<?xml version="1.0" standalone="no"?>
<!DOCTYPE svg PUBLIC "-//W3C//DTD SVG 20010904//EN"
 "http://www.w3.org/TR/2001/REC-SVG-20010904/DTD/svg10.dtd">
<svg version="1.0" xmlns="http://www.w3.org/2000/svg"
 width="96.000000pt" height="68.000000pt" viewBox="0 0 96.000000 68.000000"
 preserveAspectRatio="xMidYMid meet">
<metadata>
Created by potrace 1.16, written by Peter Selinger 2001-2019
Combined from part_0.svg through part_5.svg with named groups
</metadata>
<g transform="translate(0.000000,68.000000) scale(0.100000,-0.100000)" fill="#000000" stroke="none">
<g id="part-0" class="char-part">
  <path d="M480 569 c0 -6 5 -20 11 -31 15 -28 2 -34 -87 -43 -41 -4 -86 -10
-101 -14 l-28 -8 24 -12 c22 -12 23 -17 17 -82 -11 -120 -83 -273 -154 -330
-23 -18 -23 -19 -4 -19 11 0 42 17 69 39 67 52 115 151 141 286 l18 99 35 8
c34 8 68 11 237 24 50 4 92 11 92 15 0 21 -46 31 -112 25 -43 -4 -68 -2 -68 4
0 5 -9 19 -20 30 -21 21 -70 28 -70 9z"/>
  <path d="M636 390 c6 -45 5 -50 -13 -50 -11 0 -48 -3 -82 -6 l-61 -7 0 37 c0
31 -3 36 -24 36 -22 0 -24 -3 -19 -40 l6 -40 -37 0 c-20 0 -36 -4 -36 -10 0
-5 18 -10 40 -10 l40 0 2 -57 c1 -32 2 -79 3 -105 1 -52 8 -66 27 -51 7 6 41
14 75 18 61 7 63 6 74 -19 14 -30 34 -34 48 -9 5 10 9 67 10 128 1 60 4 111 6
113 2 3 28 6 57 8 29 1 57 3 62 3 6 1 5 6 -2 13 -7 7 -34 11 -67 10 l-55 -2 0
39 c0 39 -11 51 -46 51 -12 0 -13 -10 -8 -50z m4 -109 c0 -28 -3 -29 -63 -40
-89 -15 -87 -16 -87 29 l0 40 75 0 75 0 0 -29z m0 -100 l0 -38 -58 -6 c-32 -4
-66 -9 -75 -13 -14 -5 -17 1 -17 39 0 46 0 46 38 50 20 2 54 4 75 5 37 2 37 2
37 -37z"/>
  <path d="M166 421 c-2 -3 7 -23 21 -44 18 -28 30 -37 46 -35 27 4 34 34 12 58
-16 17 -72 33 -79 21z"/>
  <path d="M255 310 c-9 -14 -101 -60 -120 -60 -9 0 -18 -7 -21 -15 -8 -19 13
-45 35 -45 18 0 131 103 131 119 0 14 -17 14 -25 1z"/>
</g>
<g id="part-1" class="char-part">
  <path d="M480 573 c1 -5 7 -19 15 -33 20 -34 19 -40 -7 -40 -12 0 -62 -5 -111
-12 -75 -9 -87 -13 -74 -23 35 -25 13 -184 -38 -285 -13 -25 -44 -69 -70 -98
-53 -59 -47 -67 17 -19 81 62 133 169 158 324 13 83 4 78 165 93 61 6 135 14
165 17 l55 5 -29 15 c-27 14 -73 13 -143 -4 -18 -4 -23 -1 -23 15 0 12 -10 28
-22 36 -23 17 -58 22 -58 9z"/>
  <path d="M181 398 c30 -58 69 -77 69 -34 0 27 -33 56 -63 56 -15 0 -16 -3 -6
-22z"/>
  <path d="M225 284 c-22 -13 -57 -29 -77 -36 -32 -9 -36 -14 -27 -29 17 -33 52
-22 104 31 27 27 47 52 44 54 -2 2 -22 -7 -44 -20z"/>
</g>
<g id="part-2" class="char-part">
  <path d="M636 390 c6 -45 5 -50 -13 -50 -11 0 -48 -3 -82 -6 l-61 -7 0 35 c0
27 -5 37 -19 41 -28 7 -32 -1 -25 -45 l7 -38 -37 0 c-22 0 -35 -4 -31 -10 3
-5 22 -10 41 -10 l34 0 2 -62 c1 -35 2 -81 2 -103 1 -52 14 -75 31 -52 7 10
35 18 73 23 59 6 62 6 73 -20 7 -14 18 -26 25 -26 25 0 34 39 34 149 l0 110
71 7 c64 6 69 8 49 19 -13 7 -43 10 -73 7 l-50 -5 6 37 c5 29 2 38 -13 46 -42
22 -51 14 -44 -40z m4 -160 c0 -79 -2 -90 -17 -91 -10 0 -44 -4 -75 -8 l-58
-7 0 92 0 93 63 4 c34 2 68 4 75 5 9 1 12 -22 12 -88z"/>
</g>
<g id="part-3" class="char-part">
  <path d="M580 245 c-8 -2 -32 -6 -52 -10 -45 -7 -51 -25 -9 -25 62 0 121 13
121 26 0 13 -23 16 -60 9z"/>
</g>
</g>
</svg>