<?xml version="1.0" standalone="no"?>
<!DOCTYPE svg PUBLIC "-//W3C//DTD SVG 20010904//EN"
 "http://www.w3.org/TR/2001/REC-SVG-20010904/DTD/svg10.dtd">
<svg version="1.0" xmlns="http://www.w3.org/2000/svg"
 width="96.000000pt" height="68.000000pt" viewBox="0 0 96.000000 68.000000"
 preserveAspectRatio="xMidYMid meet">
<metadata>
Created by potrace 1.16, written by Peter Selinger 2001-2019
Combined from part_0.svg through part_5.svg with named groups
</metadata>
<g transform="translate(0.000000,68.000000) scale(0.100000,-0.100000)" fill="#000000" stroke="none">
<g id="part-0" class="char-part">
  <path d="M276 588 c-2 -7 -9 -31 -15 -53 -13 -50 -76 -147 -131 -203 -73 -74
-18 -67 64 8 28 26 53 40 70 40 23 0 26 -4 26 -35 0 -34 -1 -35 -40 -36 -22
-1 -44 -3 -50 -4 -5 -1 -20 -3 -32 -4 -22 -2 -22 -2 -4 -13 11 -6 40 -8 73 -4
l54 6 -3 -32 c-3 -32 -4 -33 -56 -36 -40 -2 -51 -6 -44 -15 5 -7 17 -38 27
-69 14 -47 20 -56 34 -49 9 5 45 12 81 15 63 7 65 8 66 36 1 16 8 36 18 45 9
9 16 20 16 25 0 11 -30 22 -65 24 -33 1 -35 4 -35 41 0 22 5 25 33 25 17 0 39
5 47 10 16 10 13 11 -44 14 -13 1 -19 10 -21 34 -2 27 1 32 19 32 11 0 28 5
36 10 20 13 -59 13 -113 1 l-38 -9 27 46 c51 89 46 86 84 47 36 -37 74 -46 84
-20 7 20 -23 50 -68 66 -20 7 -36 19 -36 25 0 13 -37 44 -53 44 -4 0 -9 -6
-11 -12z m84 -401 c0 -36 -21 -56 -66 -63 -37 -5 -42 -4 -47 17 -16 58 -8 66
71 68 38 1 42 -1 42 -22z"/>
  <path d="M597 584 c-2 -3 -2 -34 0 -69 l6 -63 -77 -7 c-42 -4 -79 -11 -82 -16
-9 -15 43 -21 93 -11 57 13 63 10 63 -29 0 -27 -3 -29 -37 -31 -21 -1 -49 -2
-63 -1 l-25 0 0 -137 c0 -76 4 -142 8 -146 13 -14 27 18 27 64 0 36 3 42 23
43 12 1 32 3 45 4 21 2 22 -1 22 -61 0 -34 4 -65 9 -69 16 -9 31 30 31 77 0
56 13 68 72 68 l48 0 0 -47 c0 -62 -10 -79 -38 -64 -33 18 -34 13 -5 -24 31
-39 57 -45 73 -16 5 11 10 71 10 133 0 62 4 130 9 150 8 34 7 37 -18 48 -19 8
-40 8 -72 1 -68 -16 -75 -14 -74 17 0 35 14 40 112 41 86 1 113 14 67 31 -19
8 -48 8 -95 0 -37 -5 -70 -10 -73 -10 -3 0 -6 25 -8 56 -3 48 -7 58 -25 65
-11 4 -23 5 -26 3z m163 -254 c0 -26 -3 -30 -29 -30 -16 0 -41 -3 -57 -6 -28
-5 -29 -4 -27 28 1 18 2 34 2 36 1 1 26 2 56 2 54 0 55 0 55 -30z m-162 -18
c3 -31 2 -32 -37 -32 -22 0 -41 5 -44 13 -7 22 5 46 27 50 41 8 51 3 54 -31z
m162 -62 c0 -28 -2 -30 -39 -30 -22 0 -46 -3 -55 -6 -12 -5 -16 1 -16 24 0 27
4 31 33 35 76 9 77 9 77 -23z m-162 -17 c-3 -24 -7 -27 -43 -28 -36 0 -40 3
-43 28 -3 26 -2 27 43 27 44 0 46 -1 43 -27z"/>
  <path d="M710 565 c0 -9 55 -55 67 -55 21 0 15 28 -9 44 -21 15 -58 22 -58 11z"/>
</g>
<g id="part-1" class="char-part">
  <path d="M275 563 c-15 -71 -66 -154 -149 -240 -46 -49 -37 -56 20 -14 53 39
104 95 143 159 18 28 36 52 40 52 4 0 22 -16 41 -35 37 -38 70 -46 70 -17 0
22 -22 43 -64 60 -16 7 -37 24 -48 37 -26 33 -46 32 -53 -2z"/>
</g>
<g id="part-2" class="char-part">
  <path d="M305 229 c-22 -4 -60 -8 -84 -8 -33 -1 -41 -4 -33 -13 5 -7 15 -33
22 -58 18 -72 16 -70 47 -60 15 6 54 12 85 15 45 5 56 9 51 21 -3 9 4 28 16
44 27 37 27 44 -4 58 -29 13 -42 13 -100 1z m55 -33 c0 -41 -19 -64 -60 -71
-23 -4 -43 -5 -46 -2 -3 2 -7 20 -11 40 -6 40 1 44 75 46 30 1 42 -3 42 -13z"/>
</g>
<g id="part-3" class="char-part">
  <path d="M710 565 c0 -9 55 -55 67 -55 23 0 14 37 -12 48 -26 12 -55 16 -55 7z"/>
</g>
<g id="part-4" class="char-part">
  <path d="M597 521 l6 -69 -69 -7 c-91 -9 -105 -13 -81 -27 17 -9 84 -5 130 8
16 5 17 -8 17 -173 0 -183 9 -233 30 -178 7 17 12 98 13 190 2 131 5 161 17
167 8 4 49 7 90 7 88 1 115 12 73 30 -20 8 -45 8 -88 1 -94 -16 -90 -17 -87
45 4 51 2 55 -23 65 -14 5 -28 10 -30 10 -2 0 -1 -31 2 -69z"/>
</g>
<g id="part-5" class="char-part">
  <path d="M754 382 c4 -7 -8 -11 -34 -10 -23 0 -44 -2 -47 -6 -4 -3 15 -6 40
-6 39 0 55 -8 45 -22 -1 -2 4 -14 11 -27 7 -13 8 -21 3 -17 -6 4 -10 -2 -9
-14 2 -33 32 -20 33 15 1 17 5 38 9 48 9 21 0 32 -34 42 -15 5 -21 4 -17 -3z"/>
  <path d="M480 334 c5 -12 6 -25 3 -28 -4 -3 1 -6 11 -6 10 0 14 5 10 12 -4 6
1 17 10 23 15 11 13 13 -13 17 -26 4 -28 2 -21 -18z"/>
  <path d="M693 292 c-37 -6 -26 -18 12 -14 19 2 35 5 35 7 0 7 -27 11 -47 7z"/>
  <path d="M480 276 c0 -10 9 -16 21 -16 24 0 21 23 -4 28 -10 2 -17 -3 -17 -12z"/>
  <path d="M635 280 c-3 -5 -1 -10 4 -10 6 0 11 5 11 10 0 6 -2 10 -4 10 -3 0
-8 -4 -11 -10z"/>
  <path d="M530 270 c0 -6 7 -10 15 -10 8 0 15 2 15 4 0 2 -7 6 -15 10 -8 3 -15
1 -15 -4z"/>
  <path d="M570 276 c0 -9 40 -13 46 -5 3 5 -6 9 -20 9 -14 0 -26 -2 -26 -4z"/>
  <path d="M778 253 c-23 -6 -23 -15 1 -30 16 -10 19 -9 19 13 0 13 -1 23 -2 23
0 -1 -9 -3 -18 -6z"/>
  <path d="M489 241 c8 -5 9 -11 3 -15 -6 -4 -9 -16 -6 -29 2 -12 -1 -32 -7 -44
-7 -12 -9 -34 -5 -49 l7 -27 15 29 c9 16 13 41 10 57 -5 24 -2 27 22 28 23 2
24 2 5 6 -16 3 -23 11 -23 29 0 16 -6 24 -17 24 -14 0 -15 -2 -4 -9z"/>
  <path d="M680 210 c-11 -7 -6 -10 20 -10 26 0 31 3 20 10 -8 5 -17 10 -20 10
-3 0 -12 -5 -20 -10z"/>
  <path d="M762 173 c0 -27 5 -51 11 -55 9 -6 9 -8 0 -8 -7 0 -13 -7 -13 -15 0
-10 -10 -15 -26 -15 l-27 0 27 -25 c25 -23 54 -26 41 -4 -4 5 -2 9 4 9 6 0 7
7 4 17 -4 9 -2 14 3 10 14 -8 16 103 3 120 -20 23 -27 14 -27 -34z"/>
  <path d="M630 199 c0 -5 5 -7 10 -4 6 3 10 8 10 11 0 2 -4 4 -10 4 -5 0 -10
-5 -10 -11z"/>
</g>
</g>
</svg>