<?xml version="1.0" standalone="no"?>
<!DOCTYPE svg PUBLIC "-//W3C//DTD SVG 20010904//EN"
 "http://www.w3.org/TR/2001/REC-SVG-20010904/DTD/svg10.dtd">
<svg version="1.0" xmlns="http://www.w3.org/2000/svg"
 width="96.000000pt" height="68.000000pt" viewBox="0 0 96.000000 68.000000"
 preserveAspectRatio="xMidYMid meet">
<metadata>
Created by potrace 1.16, written by Peter Selinger 2001-2019
Combined from part_0.svg through part_5.svg with named groups
</metadata>
<g transform="translate(0.000000,68.000000) scale(0.100000,-0.100000)" fill="#000000" stroke="none">
<g id="part-0" class="char-part">
  <path d="M465 625 c-44 -8 -106 -14 -139 -14 -51 -1 -57 -3 -51 -18 14 -33 35
-145 29 -154 -3 -5 -25 -9 -49 -9 -31 0 -45 5 -50 18 -5 13 -13 4 -36 -41 -16
-32 -27 -62 -24 -67 13 -21 36 -8 55 31 13 25 26 39 34 36 8 -3 60 1 117 8
137 19 339 30 339 20 0 -5 -8 -17 -17 -28 -18 -19 -17 -20 42 -12 33 4 63 9
68 12 15 9 6 29 -24 46 -33 19 -83 21 -141 8 -32 -8 -38 -6 -38 8 0 15 20 87
35 123 5 12 -2 21 -24 32 -16 9 -34 15 -38 15 -4 -1 -44 -7 -88 -14z m65 -54
c0 -17 -5 -29 -12 -28 -7 0 -36 -1 -64 -1 l-51 -2 5 -50 c4 -48 4 -50 -22 -50
-27 0 -29 4 -40 86 -7 51 3 61 69 67 120 9 115 10 115 -22z m-5 -85 c-7 -33
-10 -36 -41 -36 -32 0 -34 2 -34 34 0 33 2 35 38 38 20 2 38 2 40 2 2 -1 0
-18 -3 -38z"/>
  <path d="M450 379 c-19 -5 -60 -9 -92 -10 l-56 -1 5 -72 c4 -57 1 -84 -17
-135 -22 -66 -20 -111 4 -111 14 0 28 34 41 98 4 20 13 32 23 33 9 0 50 4 90
8 l72 7 0 -48 c0 -53 -14 -67 -48 -49 -11 6 -22 8 -25 4 -7 -6 70 -73 84 -73
5 0 16 12 26 27 14 21 17 45 15 118 -1 51 2 113 7 139 7 37 5 50 -6 61 -16 16
-68 18 -123 4z m70 -47 c0 -27 -2 -28 -81 -40 -45 -6 -85 -10 -89 -7 -3 2 -5
18 -2 34 4 32 14 35 125 39 45 2 47 1 47 -26z m1 -65 c-1 -4 -1 -16 -1 -26 0
-16 -11 -20 -72 -27 -104 -12 -103 -12 -103 16 -1 24 4 26 80 36 87 12 97 12
96 1z"/>
</g>
<g id="part-1" class="char-part">
  <path d="M420 614 c-41 -7 -90 -10 -108 -7 -37 6 -36 10 -13 -87 13 -52 23
-76 35 -78 14 -3 16 6 14 69 l-3 73 40 7 c22 4 65 9 95 10 l55 4 -3 -78 c-4
-72 -2 -79 15 -75 13 2 25 24 42 77 23 71 23 75 5 88 -21 16 -73 15 -174 -3z"/>
</g>
<g id="part-2" class="char-part">
  <path d="M639 466 c-2 -3 -96 -12 -207 -21 -188 -16 -204 -16 -221 -1 -17 16
-20 14 -45 -37 -32 -66 -33 -79 -3 -75 13 2 29 16 40 38 10 19 22 34 28 32 6
-1 60 4 120 13 137 19 339 31 339 20 0 -5 -9 -18 -20 -30 l-20 -21 70 10 c39
6 71 14 70 19 0 4 0 11 0 15 0 17 -61 42 -102 42 -25 0 -47 -2 -49 -4z"/>
</g>
<g id="part-3" class="char-part">
  <path d="M445 379 c-22 -4 -62 -8 -90 -8 l-50 -1 -1 -88 c-1 -53 -8 -106 -19
-136 -18 -52 -14 -96 10 -96 13 0 45 82 45 115 0 8 33 16 90 21 l90 10 0 -48
c0 -26 -4 -49 -9 -52 -4 -3 -23 -1 -41 4 l-33 10 29 -31 c46 -49 63 -54 88
-30 19 20 21 31 18 134 -1 62 2 128 8 147 8 29 7 37 -7 48 -19 13 -67 14 -128
1z m75 -48 c0 -28 -2 -29 -62 -35 -35 -4 -73 -10 -86 -13 -21 -5 -23 -3 -20
28 3 30 7 35 38 40 19 4 56 7 83 8 45 1 47 0 47 -28z m0 -80 c0 -28 -1 -28
-82 -38 -88 -11 -104 -7 -94 24 5 16 21 22 84 30 42 5 80 11 85 11 4 1 7 -11
7 -27z"/>
</g>
</g>
</svg>