<?xml version="1.0" standalone="no"?>
<!DOCTYPE svg PUBLIC "-//W3C//DTD SVG 20010904//EN"
 "http://www.w3.org/TR/2001/REC-SVG-20010904/DTD/svg10.dtd">
<svg version="1.0" xmlns="http://www.w3.org/2000/svg"
 width="96.000000pt" height="68.000000pt" viewBox="0 0 96.000000 68.000000"
 preserveAspectRatio="xMidYMid meet">
<metadata>
Created by potrace 1.16, written by Peter Selinger 2001-2019
Combined from part_0.svg through part_5.svg with named groups
</metadata>
<g transform="translate(0.000000,68.000000) scale(0.100000,-0.100000)" fill="#000000" stroke="none">
<g id="part-0" class="char-part">
  <path d="M380 598 c0 -6 7 -19 16 -29 9 -10 13 -23 9 -28 -8 -14 -162 -14
-170 -1 -12 19 -23 10 -49 -36 -33 -59 -34 -84 -3 -84 17 0 29 10 42 33 l18
34 190 16 c105 10 193 15 195 12 3 -3 0 -11 -6 -17 -24 -24 -14 -40 21 -32 17
3 46 8 62 9 42 3 43 28 1 60 -35 26 -36 27 -123 16 -115 -14 -110 -15 -117 13
-8 31 -86 62 -86 34z"/>
  <path d="M474 470 c4 -25 2 -28 -26 -34 -61 -12 -78 -8 -78 19 0 21 -5 25 -29
25 -26 0 -30 -3 -28 -27 2 -21 -3 -28 -23 -33 -25 -7 -25 -7 5 -11 22 -3 31
-10 33 -26 3 -18 -2 -23 -17 -23 -28 0 -27 -18 2 -22 14 -2 22 -10 22 -23 0
-18 -8 -21 -68 -25 -86 -6 -92 -24 -9 -28 34 -2 62 -6 62 -9 0 -12 -68 -65
-123 -95 -31 -17 -56 -33 -53 -35 7 -7 128 47 179 79 36 23 47 36 44 50 -5 16
2 18 58 18 62 0 63 -1 156 -70 59 -43 104 -70 120 -70 41 0 119 12 119 19 0 3
-33 14 -73 24 -72 17 -210 78 -222 97 -4 6 24 10 77 10 77 1 82 2 63 16 -16
12 -35 14 -87 10 -48 -4 -68 -3 -71 7 -8 23 5 37 34 37 16 0 29 5 29 10 0 6
-11 10 -25 10 -20 0 -25 5 -25 24 0 19 7 25 35 30 36 7 39 26 5 26 -11 0 -24
8 -29 19 -6 10 -22 21 -37 24 -24 4 -26 2 -20 -23z m-2 -75 c5 -24 3 -25 -38
-25 -24 0 -47 -1 -51 -2 -5 -2 -9 7 -11 19 -3 19 2 22 40 26 24 2 46 4 49 5 4
1 9 -9 11 -23z m-2 -75 c0 -17 -7 -20 -40 -20 -22 0 -43 -1 -47 -2 -5 -2 -9 7
-11 20 -3 20 0 22 47 22 44 0 51 -3 51 -20z"/>
  <path d="M414 176 c41 -38 68 -43 74 -14 4 20 -19 34 -73 43 l-40 7 39 -36z"/>
  <path d="M376 92 c100 -84 119 -92 119 -52 0 28 -42 53 -105 64 -34 5 -35 5
-14 -12z"/>
</g>
<g id="part-1" class="char-part">
  <path d="M390 591 c0 -4 9 -20 20 -33 l19 -25 -92 -7 c-77 -6 -93 -5 -103 9
-10 14 -16 8 -44 -36 -17 -28 -29 -58 -26 -66 10 -24 40 -10 60 28 l20 36 105
6 c58 4 146 10 195 13 l89 7 -7 -27 -7 -28 53 7 c82 11 88 21 33 55 -33 20
-43 21 -140 15 -102 -7 -105 -7 -105 13 0 22 -26 42 -54 42 -9 0 -16 -4 -16
-9z"/>
</g>
<g id="part-2" class="char-part">
  <path d="M473 471 c5 -26 3 -29 -25 -35 -61 -12 -78 -8 -78 19 0 21 -5 25 -30
25 -27 0 -30 -3 -24 -24 5 -21 1 -25 -28 -32 l-33 -8 35 -6 c27 -4 36 -10 38
-27 3 -17 -2 -23 -17 -23 -11 0 -23 -4 -26 -10 -7 -11 112 -13 218 -3 64 6 95
23 42 23 -20 0 -25 5 -25 24 0 19 7 25 35 30 39 8 38 26 -1 26 -14 0 -24 6
-24 15 0 15 -29 35 -51 35 -7 0 -10 -10 -6 -29z m-3 -76 c0 -23 -3 -25 -50
-25 -43 0 -50 3 -50 19 0 15 8 21 38 24 20 2 43 4 50 5 7 1 12 -9 12 -23z"/>
</g>
<g id="part-3" class="char-part">
  <path d="M293 229 c-18 -20 -63 -53 -100 -73 -80 -44 -43 -41 54 4 87 40 136
79 122 96 -17 21 -42 12 -76 -27z"/>
  <path d="M576 205 c49 -36 99 -68 112 -71 27 -8 132 5 132 15 0 4 -34 15 -76
25 -42 10 -110 36 -150 57 -110 59 -119 47 -18 -26z"/>
</g>
<g id="part-4" class="char-part">
  <path d="M415 175 c41 -37 67 -42 73 -13 4 20 -20 34 -73 43 l-40 6 40 -36z"/>
  <path d="M400 73 c63 -55 79 -65 90 -58 15 9 12 41 -4 55 -12 9 -106 39 -125
40 -3 0 15 -17 39 -37z"/>
</g>
</g>
</svg>