<?xml version="1.0" standalone="no"?>
<!DOCTYPE svg PUBLIC "-//W3C//DTD SVG 20010904//EN"
 "http://www.w3.org/TR/2001/REC-SVG-20010904/DTD/svg10.dtd">
<svg version="1.0" xmlns="http://www.w3.org/2000/svg"
 width="96.000000pt" height="68.000000pt" viewBox="0 0 96.000000 68.000000"
 preserveAspectRatio="xMidYMid meet">
<metadata>
Created by potrace 1.16, written by Peter Selinger 2001-2019
Combined from part_0.svg through part_5.svg with named groups
</metadata>
<g transform="translate(0.000000,68.000000) scale(0.100000,-0.100000)" fill="#000000" stroke="none">
<g id="part-0" class="char-part">
  <path d="M565 578 c-11 -47 -35 -97 -68 -140 -16 -21 -25 -43 -21 -49 4 -7 3
-9 -3 -6 -5 3 -17 -3 -26 -14 -28 -32 5 -23 38 11 38 39 82 41 91 4 4 -14 4
-85 0 -157 -9 -180 -9 -178 3 -190 20 -20 34 10 39 88 5 86 1 83 117 87 41 2
69 7 67 13 -2 10 -54 12 -132 5 -44 -4 -45 -4 -44 23 2 58 1 57 58 57 63 0
116 9 116 21 0 17 -39 19 -103 5 -66 -13 -67 -13 -68 8 0 11 -2 33 -4 48 -4
31 2 33 128 44 51 4 76 10 74 18 -6 15 -102 11 -193 -9 -40 -9 -78 -15 -84
-13 -5 1 11 34 36 72 49 73 51 97 6 104 -16 2 -22 -4 -27 -30z"/>
  <path d="M291 568 c8 -29 13 -137 7 -139 -2 0 -36 -6 -76 -12 -91 -15 -90 -33
1 -30 37 1 67 -2 67 -6 0 -17 -102 -137 -140 -165 -22 -17 -40 -33 -40 -38 0
-29 97 28 154 92 l38 42 -6 -38 c-3 -22 -8 -73 -12 -114 -5 -62 -3 -78 10 -89
9 -7 23 -11 31 -7 12 4 15 28 15 128 l0 122 34 -33 c39 -38 70 -37 64 1 -2 16
-17 29 -45 43 -35 16 -43 25 -43 46 0 24 5 27 45 33 29 5 45 12 45 22 0 15
-16 19 -62 15 -31 -3 -33 4 -18 79 10 54 -7 80 -51 80 -26 0 -27 -1 -18 -32z"/>
</g>
<g id="part-1" class="char-part">
  <path d="M297 568 c4 -18 8 -58 8 -88 l0 -55 -60 -8 c-100 -14 -109 -26 -22
-26 l78 -1 -18 -32 c-10 -18 -53 -67 -95 -110 -42 -43 -74 -78 -70 -78 29 2
109 64 155 118 l27 34 0 -39 c0 -21 -5 -68 -10 -105 -7 -48 -7 -75 2 -93 13
-28 19 -30 36 -13 8 8 12 52 12 132 l0 120 33 -32 c39 -38 60 -41 55 -9 -2 15
-17 28 -45 42 -35 16 -43 25 -43 46 0 24 5 28 48 36 57 10 57 28 0 27 l-41 -1
7 70 c5 60 4 71 -11 83 -10 7 -26 14 -36 14 -16 0 -17 -5 -10 -32z"/>
</g>
<g id="part-2" class="char-part">
  <path d="M570 596 c0 -33 -62 -153 -106 -204 -20 -24 -34 -45 -31 -49 11 -10
117 101 158 165 44 70 44 87 1 103 -19 7 -22 5 -22 -15z"/>
</g>
<g id="part-3" class="char-part">
  <path d="M638 447 c-94 -21 -132 -37 -91 -37 12 0 24 -7 27 -16 9 -23 6 -222
-3 -273 -10 -50 1 -91 23 -91 14 0 21 34 29 140 l2 35 88 5 c51 3 86 9 85 15
-3 10 -52 12 -128 5 l-45 -5 0 40 0 40 83 6 c45 4 86 9 90 13 10 11 -21 27
-43 21 -12 -2 -45 -7 -75 -11 l-55 -6 0 45 c-1 52 -3 51 129 63 49 4 75 11 73
18 -6 19 -87 16 -189 -7z"/>
</g>
</g>
</svg>