<?xml version="1.0" standalone="no"?>
<!DOCTYPE svg PUBLIC "-//W3C//DTD SVG 20010904//EN"
 "http://www.w3.org/TR/2001/REC-SVG-20010904/DTD/svg10.dtd">
<svg version="1.0" xmlns="http://www.w3.org/2000/svg"
 width="96.000000pt" height="68.000000pt" viewBox="0 0 96.000000 68.000000"
 preserveAspectRatio="xMidYMid meet">
<metadata>
Created by potrace 1.16, written by Peter Selinger 2001-2019
Combined from part_0.svg through part_5.svg with named groups
</metadata>
<g transform="translate(0.000000,68.000000) scale(0.100000,-0.100000)" fill="#000000" stroke="none">
<g id="part-0" class="char-part">
  <path d="M350 544 c-36 -8 -96 -16 -133 -18 l-69 -4 -1 -143 c-2 -148 -7 -169
-54 -241 -29 -46 -3 -45 38 1 42 47 69 119 69 185 0 23 3 71 6 107 l7 65 104
18 c57 10 106 16 108 14 2 -2 5 -46 6 -98 1 -88 0 -95 -17 -92 -11 1 -31 3
-46 3 -25 0 -28 4 -28 35 0 29 3 34 24 34 14 0 28 5 31 10 8 13 -22 13 -100
-2 -71 -14 -83 -25 -32 -30 27 -2 33 -8 35 -30 3 -26 1 -28 -35 -29 -21 -1
-41 -1 -45 0 -11 1 -10 -4 8 -60 12 -36 20 -47 27 -40 6 6 19 11 29 11 14 0
18 -8 18 -39 0 -38 -2 -40 -38 -46 -21 -3 -43 -5 -48 -4 -21 4 -26 -2 -14 -16
14 -17 52 -20 78 -5 9 5 39 16 66 25 47 15 50 15 72 -6 l24 -22 0 26 c0 28
-34 67 -58 67 -11 0 -12 -3 -3 -13 14 -17 4 -27 -26 -27 -16 0 -23 6 -23 19 0
37 12 51 41 51 21 0 29 5 29 18 0 10 7 27 15 38 14 18 14 18 15 -11 2 -80 59
-170 133 -211 48 -26 60 -28 164 -29 61 0 115 3 119 7 7 8 -14 97 -26 111 -4
5 -10 -4 -13 -20 -11 -47 -22 -56 -81 -61 -108 -9 -205 39 -237 118 -21 52
-24 161 -8 260 9 57 8 66 -7 77 -21 15 -39 15 -124 -3z m20 -244 c0 -22 -5
-30 -18 -30 -15 0 -18 6 -14 30 2 17 10 30 18 30 9 0 14 -11 14 -30z m-70 -10
c0 -25 -4 -30 -25 -30 -21 0 -25 5 -25 30 0 25 4 30 25 30 21 0 25 -5 25 -30z"/>
  <path d="M656 531 c-16 -17 -43 -37 -60 -46 l-31 -16 33 6 c31 6 32 6 32 -29
0 -29 -4 -36 -20 -36 -10 0 -42 -5 -70 -11 -37 -8 -49 -14 -41 -22 7 -7 25 -7
62 1 68 16 69 16 69 -16 0 -46 -21 -66 -64 -59 -33 5 -48 -4 -27 -17 5 -4 17
-31 26 -61 17 -53 29 -67 37 -44 2 5 38 13 81 16 67 5 77 8 77 25 0 10 7 33
16 50 15 30 15 32 -2 45 -14 10 -34 12 -71 7 l-53 -6 7 33 c8 43 16 48 83 50
30 0 66 4 80 9 l25 7 -27 11 c-15 6 -33 10 -40 7 -7 -2 -32 -6 -55 -9 -42 -5
-43 -5 -44 24 -1 17 -2 35 -3 42 -1 6 14 16 32 20 28 8 31 11 22 28 -15 28
-42 25 -74 -9z m70 -263 c-9 -43 -12 -46 -76 -50 l-55 -3 0 35 c0 32 3 36 35
41 19 4 50 7 69 8 33 1 33 0 27 -31z"/>
</g>
<g id="part-1" class="char-part">
  <path d="M158 428 c6 -118 -11 -213 -49 -272 -16 -25 -25 -46 -20 -46 20 0 72
67 87 114 17 49 36 257 26 284 -2 6 -14 12 -26 12 -22 0 -22 -3 -18 -92z"/>
</g>
<g id="part-2" class="char-part">
  <path d="M303 537 c-57 -11 -103 -24 -103 -29 0 -12 39 -10 127 7 43 8 84 15
91 15 9 0 12 -32 12 -128 0 -198 28 -265 134 -319 46 -24 62 -27 163 -27 127
-1 142 5 118 50 -8 16 -15 37 -15 46 0 33 -17 27 -29 -11 -12 -43 -28 -51
-102 -51 -102 0 -193 57 -217 137 -15 51 -15 172 0 248 10 53 10 59 -7 71 -24
18 -47 16 -172 -9z"/>
</g>
<g id="part-3" class="char-part">
  <path d="M657 534 c-12 -14 -39 -35 -59 -47 -21 -11 -36 -22 -35 -23 3 -4 168
54 175 61 9 9 -21 35 -39 35 -11 0 -29 -12 -42 -26z"/>
</g>
<g id="part-4" class="char-part">
  <path d="M637 484 c-4 -4 -7 -22 -7 -40 0 -31 -1 -32 -52 -39 -29 -3 -62 -9
-73 -12 -40 -12 23 -24 68 -13 59 14 59 14 55 -27 -4 -53 19 -54 29 -1 8 40
11 43 43 45 111 8 144 15 126 25 -11 6 -46 8 -86 4 l-68 -6 2 32 c1 31 -20 49
-37 32z"/>
</g>
<g id="part-5" class="char-part">
  <path d="M743 313 c-7 -2 -9 -11 -6 -19 9 -23 -17 -74 -38 -74 -10 0 -20 -4
-23 -9 -3 -5 12 -9 34 -9 37 -1 40 1 40 28 0 15 4 30 9 32 4 2 11 13 15 24 7
22 -8 35 -31 27z"/>
  <path d="M550 290 c6 -4 11 -10 11 -14 -3 -24 1 -36 10 -30 8 4 9 0 4 -15 -7
-24 8 -60 19 -43 4 7 2 30 -4 52 -6 22 -9 44 -6 49 3 5 -6 9 -20 9 -15 0 -21
-4 -14 -8z"/>
  <path d="M635 210 c-19 -8 -19 -9 3 -9 12 -1 22 4 22 9 0 6 -1 10 -2 9 -2 0
-12 -4 -23 -9z"/>
</g>
</g>
</svg>