<?xml version="1.0" standalone="no"?>
<!DOCTYPE svg PUBLIC "-//W3C//DTD SVG 20010904//EN"
 "http://www.w3.org/TR/2001/REC-SVG-20010904/DTD/svg10.dtd">
<svg version="1.0" xmlns="http://www.w3.org/2000/svg"
 width="96.000000pt" height="68.000000pt" viewBox="0 0 96.000000 68.000000"
 preserveAspectRatio="xMidYMid meet">
<metadata>
Created by potrace 1.16, written by Peter Selinger 2001-2019
Combined from part_0.svg through part_5.svg with named groups
</metadata>
<g transform="translate(0.000000,68.000000) scale(0.100000,-0.100000)" fill="#000000" stroke="none">
<g id="part-0" class="char-part">
  <path d="M324 535 c5 -36 7 -67 5 -70 -3 -2 -25 -7 -49 -11 -37 -5 -43 -4 -32
7 17 18 15 56 -4 63 -33 13 -44 6 -44 -24 0 -17 -7 -41 -15 -54 -13 -19 -13
-25 -1 -41 14 -19 15 -19 83 2 37 12 90 24 117 28 27 4 55 9 62 12 8 3 14 -1
14 -10 0 -20 19 -32 31 -20 6 6 16 35 23 66 14 62 6 82 -31 75 -14 -3 -17 -11
-15 -37 4 -39 -8 -51 -57 -51 l-34 0 6 59 c5 64 0 71 -47 71 -22 0 -22 -2 -12
-65z"/>
  <path d="M718 564 c-4 -3 -2 -20 3 -37 10 -36 12 -259 3 -359 -7 -71 -20 -86
-56 -67 -37 20 -31 0 13 -41 24 -22 46 -40 49 -40 3 0 13 9 23 20 14 17 17 43
18 158 0 144 12 295 24 324 9 23 -59 60 -77 42z"/>
  <path d="M587 377 c3 -38 1 -72 -6 -85 -8 -16 -8 -27 1 -46 24 -54 36 -28 45
95 4 60 3 89 -5 89 -6 0 -17 3 -25 6 -12 4 -14 -5 -10 -59z"/>
  <path d="M371 389 c-24 -10 -64 -16 -113 -18 -16 0 -28 -5 -28 -11 0 -14 51
-12 145 5 44 8 82 15 85 15 3 0 -2 5 -10 10 -19 12 -48 12 -79 -1z"/>
  <path d="M375 319 c-27 -5 -73 -10 -100 -11 l-51 -2 14 -46 c8 -25 26 -69 39
-99 15 -33 21 -57 15 -63 -5 -5 -39 -10 -75 -11 -37 -1 -67 -5 -67 -9 0 -4 12
-15 26 -24 24 -16 32 -16 182 21 180 43 218 59 123 50 -36 -3 -69 -9 -75 -12
-5 -4 2 9 17 29 31 40 33 53 11 62 -28 11 -34 6 -34 -27 0 -43 -26 -79 -53
-75 -16 2 -23 11 -25 30 -2 15 -13 34 -25 43 -11 8 -19 17 -16 20 5 4 130 24
158 25 7 0 11 6 8 14 -3 8 3 26 14 39 10 14 19 30 19 35 0 8 -36 24 -50 21 -3
-1 -27 -5 -55 -10z m48 -21 c-2 -5 -3 -19 -3 -32 0 -22 -6 -25 -66 -36 -71
-12 -78 -10 -88 31 -5 25 -4 27 57 36 69 12 103 12 100 1z"/>
</g>
<g id="part-1" class="char-part">
  <path d="M324 528 l1 -73 -42 -3 c-47 -3 -49 -1 -30 29 10 17 9 22 -7 35 -32
23 -49 18 -42 -11 4 -17 0 -37 -11 -55 -16 -27 -16 -32 -2 -45 13 -14 19 -14
50 -1 32 13 184 46 215 46 8 0 14 -7 14 -15 0 -23 19 -18 29 8 5 13 11 41 12
62 4 36 1 40 -19 43 -21 3 -23 1 -18 -25 8 -39 -2 -50 -54 -54 l-45 -4 3 59
c3 60 -5 76 -39 76 -12 0 -15 -13 -15 -72z"/>
</g>
<g id="part-2" class="char-part">
  <path d="M400 177 c0 -41 -18 -66 -50 -69 -20 -2 -26 2 -28 22 -4 25 -38 70
-54 70 -4 0 1 -22 12 -50 12 -30 16 -52 10 -55 -6 -4 -39 -7 -75 -8 -36 -1
-65 -5 -65 -9 0 -4 11 -15 25 -24 24 -16 33 -15 163 16 75 17 155 37 177 43
38 10 38 11 12 15 -15 2 -48 -1 -72 -6 -25 -5 -45 -8 -45 -5 0 2 12 19 26 38
25 33 25 34 5 44 -32 18 -41 13 -41 -22z"/>
</g>
<g id="part-3" class="char-part">
  <path d="M583 363 c-1 -43 -2 -89 -3 -102 -2 -28 16 -49 30 -35 5 5 13 52 17
103 5 74 3 95 -8 102 -30 19 -36 9 -36 -68z"/>
</g>
<g id="part-4" class="char-part">
  <path d="M715 554 c12 -24 19 -299 10 -379 -8 -83 -15 -92 -54 -75 -18 7 -33
11 -35 9 -2 -2 19 -24 46 -48 l51 -45 17 21 c15 19 18 53 22 235 4 157 9 219
19 236 12 19 11 24 -1 37 -9 8 -31 18 -49 21 -31 7 -34 5 -26 -12z"/>
</g>
</g>
</svg>