<?xml version="1.0" standalone="no"?>
<!DOCTYPE svg PUBLIC "-//W3C//DTD SVG 20010904//EN"
 "http://www.w3.org/TR/2001/REC-SVG-20010904/DTD/svg10.dtd">
<svg version="1.0" xmlns="http://www.w3.org/2000/svg"
 width="96.000000pt" height="68.000000pt" viewBox="0 0 96.000000 68.000000"
 preserveAspectRatio="xMidYMid meet">
<metadata>
Created by potrace 1.16, written by Peter Selinger 2001-2019
Combined from part_0.svg through part_5.svg with named groups
</metadata>
<g transform="translate(0.000000,68.000000) scale(0.100000,-0.100000)" fill="#000000" stroke="none">
<g id="part-0" class="char-part">
  <path d="M296 586 c-9 -45 -70 -136 -145 -215 -34 -35 -59 -66 -57 -69 8 -7
89 43 115 72 14 14 28 26 33 26 12 0 10 -133 -4 -205 -9 -50 -8 -70 2 -94 32
-78 58 -5 61 170 1 97 -2 141 -11 156 -12 18 -9 27 33 82 52 68 54 73 31 95
-27 27 -51 20 -58 -18z"/>
  <path d="M520 590 c0 -5 15 -25 34 -44 18 -20 31 -38 28 -41 -10 -10 -148 -5
-159 6 -8 8 -18 -5 -37 -46 -14 -32 -23 -61 -20 -66 12 -20 33 -6 53 35 l21
43 83 6 c45 4 118 10 161 14 l80 6 -22 -30 c-12 -17 -22 -33 -22 -36 0 -6 114
24 123 33 5 4 -6 19 -24 34 -30 26 -36 27 -98 20 -36 -3 -70 -7 -76 -8 -5 0
-9 6 -10 14 -1 37 -43 70 -89 70 -14 0 -26 -4 -26 -10z"/>
  <path d="M552 352 c-138 -13 -152 -16 -138 -30 13 -13 24 -14 87 -3 56 10 73
11 79 1 12 -19 21 -138 14 -177 -7 -35 -7 -35 -48 -29 l-41 7 35 -35 c41 -41
72 -46 88 -13 7 12 13 75 14 142 l3 120 78 3 c73 3 96 12 61 26 -20 8 -48 6
-232 -12z"/>
</g>
<g id="part-1" class="char-part">
  <path d="M304 593 c-18 -61 -69 -138 -139 -212 -85 -89 -71 -94 33 -12 48 38
51 39 57 20 8 -25 -2 -158 -16 -213 -12 -43 3 -96 27 -96 17 0 21 33 29 194 5
112 4 131 -11 147 -16 18 -14 22 36 91 49 67 51 72 34 85 -25 18 -44 16 -50
-4z"/>
</g>
<g id="part-2" class="char-part">
  <path d="M540 560 c17 -22 37 -40 43 -41 7 0 3 -4 -8 -9 -29 -13 -139 -12
-152 1 -9 9 -18 -2 -37 -39 -32 -62 -33 -82 -5 -82 14 0 25 12 37 39 13 31 24
41 47 45 72 13 275 29 282 23 3 -4 -3 -21 -16 -37 -12 -17 -19 -30 -17 -30 11
0 117 29 126 35 16 10 12 19 -24 43 -34 23 -75 24 -165 6 -18 -4 -22 -2 -18
10 15 37 -34 76 -93 76 l-32 0 32 -40z"/>
</g>
<g id="part-3" class="char-part">
  <path d="M570 354 c-186 -18 -181 -17 -148 -33 22 -11 39 -11 85 -2 32 6 114
14 182 18 107 5 121 8 105 20 -21 15 -43 15 -224 -3z"/>
</g>
<g id="part-4" class="char-part">
  <path d="M584 313 c12 -30 19 -130 12 -168 l-7 -37 -42 6 -42 7 35 -35 c38
-40 59 -45 83 -18 14 15 17 41 17 140 l0 122 -31 0 c-25 0 -30 -3 -25 -17z"/>
</g>
</g>
</svg>