<?xml version="1.0" standalone="no"?>
<!DOCTYPE svg PUBLIC "-//W3C//DTD SVG 20010904//EN"
 "http://www.w3.org/TR/2001/REC-SVG-20010904/DTD/svg10.dtd">
<svg version="1.0" xmlns="http://www.w3.org/2000/svg"
 width="96.000000pt" height="68.000000pt" viewBox="0 0 96.000000 68.000000"
 preserveAspectRatio="xMidYMid meet">
<metadata>
Created by potrace 1.16, written by Peter Selinger 2001-2019
Combined from part_0.svg through part_5.svg with named groups
</metadata>
<g transform="translate(0.000000,68.000000) scale(0.100000,-0.100000)" fill="#000000" stroke="none">
<g id="part-0" class="char-part">
  <path d="M440 604 c-58 -7 -122 -11 -142 -8 -43 7 -46 2 -19 -32 10 -13 22
-43 25 -68 9 -56 29 -86 47 -68 7 6 32 12 56 12 l43 0 0 -39 0 -38 -82 -6
c-46 -4 -108 -7 -139 -7 -31 0 -59 -3 -63 -7 -15 -15 67 -30 118 -22 121 17
136 18 136 3 0 -14 -111 -131 -170 -178 -30 -25 -32 -27 -10 -21 37 11 105 60
155 113 24 25 48 43 52 39 3 -4 2 -40 -4 -80 -8 -58 -7 -77 4 -101 24 -46 37
-17 48 105 l10 109 60 -80 c83 -112 82 -112 156 -108 l64 3 -60 29 c-59 29
-213 171 -200 185 3 3 29 6 58 6 137 1 197 6 197 14 0 20 -58 29 -136 20 -143
-15 -141 -15 -146 31 l-4 40 37 0 c63 0 101 11 89 25 -8 9 -1 25 25 59 19 25
35 50 35 54 0 16 -50 32 -93 31 -23 -1 -89 -8 -147 -15z m135 -24 c3 -5 1 -27
-6 -49 l-12 -39 -94 -12 c-53 -6 -99 -8 -103 -3 -5 4 -13 25 -18 45 -10 36 -9
37 21 44 18 4 68 10 112 14 44 4 83 8 87 9 4 0 10 -3 13 -9z"/>
</g>
<g id="part-1" class="char-part">
  <path d="M470 603 c-58 -7 -129 -12 -157 -10 -29 2 -53 2 -53 0 0 -2 8 -11 18
-21 10 -10 24 -43 31 -75 7 -31 16 -59 19 -61 4 -2 28 -1 52 4 25 4 89 11 143
15 67 5 97 11 94 18 -5 14 28 82 43 92 18 11 11 31 -15 43 -30 14 -37 14 -175
-5z m110 -37 c0 -35 -16 -72 -34 -79 -9 -4 -56 -9 -105 -13 l-89 -7 -12 43
c-6 23 -8 45 -5 49 10 10 125 28 188 30 54 1 57 0 57 -23z"/>
</g>
<g id="part-2" class="char-part">
  <path d="M443 408 l2 -43 -60 -6 c-33 -4 -97 -7 -142 -8 -80 -1 -106 -12 -61
-26 21 -7 187 2 221 11 9 3 17 1 17 -5 0 -16 -81 -105 -142 -157 -32 -26 -56
-50 -54 -52 13 -13 107 47 162 103 l64 65 0 -37 c-1 -21 -5 -58 -9 -82 -10
-49 3 -101 25 -101 17 0 21 19 31 143 l8 98 70 -95 70 -95 68 -1 c37 0 67 2
67 4 0 2 -26 17 -57 32 -36 18 -86 57 -131 104 -85 86 -97 75 93 89 l110 7
-37 17 c-30 14 -49 15 -110 7 -40 -5 -90 -10 -110 -10 -35 0 -37 1 -40 38 -3
32 -7 37 -30 40 -26 3 -27 1 -25 -40z"/>
</g>
</g>
</svg>