<?xml version="1.0" standalone="no"?>
<!DOCTYPE svg PUBLIC "-//W3C//DTD SVG 20010904//EN"
 "http://www.w3.org/TR/2001/REC-SVG-20010904/DTD/svg10.dtd">
<svg version="1.0" xmlns="http://www.w3.org/2000/svg"
 width="96.000000pt" height="68.000000pt" viewBox="0 0 96.000000 68.000000"
 preserveAspectRatio="xMidYMid meet">
<metadata>
Created by potrace 1.16, written by Peter Selinger 2001-2019
Combined from part_0.svg through part_5.svg with named groups
</metadata>
<g transform="translate(0.000000,68.000000) scale(0.100000,-0.100000)" fill="#000000" stroke="none">
<g id="part-0" class="char-part">
  <path d="M560 611 c0 -4 -11 -25 -25 -46 -15 -20 -24 -39 -22 -41 5 -5 106 59
107 67 0 5 -45 29 -55 29 -3 0 -5 -4 -5 -9z"/>
  <path d="M323 561 c-76 -17 -83 -34 -13 -29 28 1 50 2 50 0 0 -8 -34 -69 -47
-84 -13 -14 -18 -14 -41 -2 -15 8 -36 14 -46 14 -19 0 -19 0 0 -21 10 -12 27
-24 37 -28 16 -6 13 -12 -21 -47 -21 -23 -65 -58 -98 -80 -66 -43 -55 -59 17
-25 65 31 142 98 196 171 27 36 56 73 66 83 46 46 -5 71 -100 48z"/>
  <path d="M631 505 c-24 -25 -49 -45 -55 -45 -5 0 -24 13 -41 29 -16 16 -43 31
-60 35 l-30 6 25 -20 c14 -11 71 -66 128 -122 l103 -101 65 6 c36 2 70 9 75
14 6 6 -21 20 -68 36 -73 26 -183 90 -183 107 0 4 27 18 60 30 69 26 81 38 55
57 -26 18 -24 18 -74 -32z"/>
  <path d="M463 369 c-24 -5 -62 -13 -85 -18 l-43 -9 38 -1 c31 -1 39 -6 47 -27
13 -34 13 -40 -5 -57 -9 -9 -46 -18 -95 -22 -44 -4 -80 -12 -80 -17 0 -7 27
-9 80 -4 95 8 102 -2 42 -61 -53 -52 -66 -61 -96 -69 -14 -3 -26 -10 -26 -15
0 -12 8 -11 67 6 54 16 123 76 143 125 11 27 14 28 111 32 55 3 102 8 106 11
15 16 -15 22 -99 20 l-90 -3 5 30 c4 16 2 32 -3 35 -19 12 1 25 36 25 19 0 34
5 34 10 0 6 -4 10 -9 10 -5 0 -15 2 -23 4 -7 2 -32 0 -55 -5z"/>
  <path d="M510 172 c0 -10 59 -66 108 -102 25 -19 35 -21 44 -12 19 19 -12 64
-63 88 -58 28 -89 37 -89 26z"/>
</g>
<g id="part-1" class="char-part">
  <path d="M313 557 c-59 -15 -54 -29 7 -21 28 4 50 4 50 1 0 -3 -11 -24 -23
-46 -36 -63 -131 -166 -188 -203 -59 -38 -51 -49 13 -17 63 32 118 80 168 146
24 32 58 73 74 91 30 32 30 34 12 48 -22 16 -51 16 -113 1z"/>
</g>
<g id="part-2" class="char-part">
  <path d="M455 520 c-3 -5 -1 -10 6 -10 6 0 62 -49 124 -110 105 -103 115 -110
153 -110 50 0 102 10 102 20 0 4 -34 20 -76 35 -51 19 -103 48 -156 89 -126
97 -141 105 -153 86z"/>
</g>
<g id="part-3" class="char-part">
  <path d="M480 370 c-14 -4 -43 -9 -65 -10 -22 -1 -49 -6 -60 -11 -13 -6 13 -8
81 -6 105 4 144 14 108 28 -23 9 -32 9 -64 -1z"/>
</g>
<g id="part-4" class="char-part">
  <path d="M420 296 c0 -51 0 -51 -107 -61 -40 -4 -73 -12 -73 -17 0 -7 29 -8
86 -4 l86 7 -19 -31 c-25 -42 -49 -64 -113 -100 l-55 -31 40 6 c21 4 55 15 75
25 41 21 104 87 115 119 5 17 14 21 49 21 68 0 166 12 166 21 0 14 -54 19
-120 10 -36 -5 -68 -7 -72 -5 -3 3 -3 18 2 34 7 25 5 32 -10 40 -39 21 -50 13
-50 -34z"/>
  <path d="M549 129 c67 -62 97 -83 111 -74 33 21 -13 76 -88 103 -33 12 -63 22
-68 22 -5 -1 15 -23 45 -51z"/>
</g>
</g>
</svg>