<?xml version="1.0" standalone="no"?>
<!DOCTYPE svg PUBLIC "-//W3C//DTD SVG 20010904//EN"
 "http://www.w3.org/TR/2001/REC-SVG-20010904/DTD/svg10.dtd">
<svg version="1.0" xmlns="http://www.w3.org/2000/svg"
 width="96.000000pt" height="68.000000pt" viewBox="0 0 96.000000 68.000000"
 preserveAspectRatio="xMidYMid meet">
<metadata>
Created by potrace 1.16, written by Peter Selinger 2001-2019
Combined from part_0.svg through part_5.svg with named groups
</metadata>
<g transform="translate(0.000000,68.000000) scale(0.100000,-0.100000)" fill="#000000" stroke="none">
<g id="part-0" class="char-part">
  <path d="M540 574 c-36 -7 -107 -13 -157 -14 -51 0 -93 -2 -93 -5 0 -3 9 -14
19 -24 11 -11 25 -44 32 -75 14 -62 32 -87 51 -68 7 7 24 12 39 12 27 0 27 0
15 -42 -15 -49 -29 -56 -111 -58 -33 -1 -69 -5 -80 -9 -19 -8 -19 -8 3 -15 12
-4 52 -4 89 0 l66 7 -19 -31 c-28 -49 -90 -110 -145 -143 -27 -17 -48 -34 -45
-36 3 -3 34 8 68 25 61 29 169 127 196 178 9 18 24 22 92 27 108 9 114 6 105
-52 -4 -25 -17 -66 -28 -91 -22 -44 -23 -45 -69 -44 -27 0 -48 -1 -48 -2 0 -1
13 -16 29 -33 60 -64 107 -29 155 114 42 124 42 120 6 135 -25 10 -47 10 -121
0 -49 -7 -92 -10 -96 -7 -3 4 2 18 11 31 8 14 13 31 10 39 -6 16 40 27 109 27
33 0 38 3 32 20 -7 21 14 69 39 89 24 20 20 31 -19 47 -40 16 -48 16 -135 -2z
m64 -42 c3 -5 -3 -24 -12 -43 -15 -29 -25 -36 -72 -46 -30 -7 -70 -12 -89 -10
-32 2 -36 5 -47 49 l-12 47 52 4 c105 7 175 7 180 -1z"/>
</g>
<g id="part-1" class="char-part">
  <path d="M540 569 c-19 -5 -81 -10 -137 -11 -57 -2 -103 -4 -103 -6 0 -2 7
-10 15 -18 8 -8 20 -34 26 -57 20 -76 28 -90 47 -81 20 9 47 12 170 20 75 6
92 10 88 21 -6 15 17 67 43 96 15 17 14 20 -4 33 -21 15 -90 17 -145 3z m70
-30 c0 -28 -24 -88 -37 -93 -8 -4 -52 -9 -97 -12 l-83 -7 -12 48 c-7 26 -10
49 -8 51 4 4 151 21 200 23 22 0 37 -4 37 -10z"/>
</g>
<g id="part-2" class="char-part">
  <path d="M455 398 c-2 -7 -8 -29 -13 -48 -9 -39 -26 -47 -107 -50 -27 -1 -61
-5 -75 -9 l-25 -7 24 -8 c13 -5 53 -5 89 -1 l65 7 -19 -30 c-36 -55 -83 -102
-145 -142 -69 -44 -54 -54 23 -15 67 34 111 71 160 136 41 56 59 66 116 68 20
1 32 6 32 15 0 10 -11 12 -46 8 l-46 -5 17 32 c13 25 14 36 4 47 -14 17 -48
18 -54 2z"/>
</g>
<g id="part-3" class="char-part">
  <path d="M603 333 c-38 -7 -28 -33 10 -27 57 8 65 -5 44 -83 -26 -101 -39
-116 -93 -110 l-44 4 21 -29 c26 -35 41 -42 74 -34 34 9 69 67 90 149 10 37
22 70 27 73 14 9 9 36 -9 50 -17 13 -73 16 -120 7z"/>
</g>
</g>
</svg>