<?xml version="1.0" standalone="no"?>
<!DOCTYPE svg PUBLIC "-//W3C//DTD SVG 20010904//EN"
 "http://www.w3.org/TR/2001/REC-SVG-20010904/DTD/svg10.dtd">
<svg version="1.0" xmlns="http://www.w3.org/2000/svg"
 width="96.000000pt" height="68.000000pt" viewBox="0 0 96.000000 68.000000"
 preserveAspectRatio="xMidYMid meet">
<metadata>
Created by potrace 1.16, written by Peter Selinger 2001-2019
Combined from part_0.svg through part_5.svg with named groups
</metadata>
<g transform="translate(0.000000,68.000000) scale(0.100000,-0.100000)" fill="#000000" stroke="none">
<g id="part-0" class="char-part">
  <path d="M548 598 c-3 -29 -7 -33 -48 -43 -42 -11 -44 -12 -23 -23 12 -7 29
-12 38 -12 12 0 15 -6 10 -20 -9 -28 2 -25 42 10 29 26 41 30 93 30 45 0 60 4
60 14 0 18 -40 28 -81 19 -28 -5 -31 -4 -26 12 9 23 -9 45 -39 45 -18 0 -23
-6 -26 -32z"/>
  <path d="M287 604 c-3 -4 2 -19 13 -34 l20 -27 -38 -7 c-20 -3 -49 -6 -64 -6
-33 0 -36 -15 -7 -31 21 -11 65 -8 101 6 11 5 20 -2 30 -22 16 -33 33 -29 33
9 0 22 5 28 32 33 46 8 41 25 -6 25 -36 0 -40 3 -43 28 -2 22 -9 28 -33 30
-17 2 -34 0 -38 -4z"/>
  <path d="M510 460 c-12 -7 -91 -14 -182 -14 -56 -1 -57 -1 -38 -21 10 -11 22
-37 25 -58 4 -20 11 -40 16 -43 21 -12 6 -35 -48 -73 -59 -43 -54 -55 10 -21
39 21 147 29 147 10 0 -5 -14 -25 -31 -45 -34 -38 -23 -46 20 -16 l28 20 48
-35 c48 -33 72 -34 59 -1 -3 9 -22 21 -42 28 -47 15 -60 27 -39 34 9 4 13 13
10 21 -4 11 11 14 81 14 l86 0 0 -64 c0 -34 -5 -77 -11 -95 -11 -31 -13 -32
-53 -26 l-41 7 34 -36 c40 -41 47 -43 79 -16 18 15 26 38 37 106 8 48 17 95
20 105 4 12 -2 23 -20 35 -23 15 -36 15 -173 2 -84 -9 -151 -12 -156 -7 -6 6
-5 9 3 9 8 0 10 7 6 20 -6 18 0 19 92 22 l98 3 28 58 c23 46 26 61 17 72 -13
15 -88 19 -110 5z m48 -36 c3 -18 -3 -21 -45 -23 -26 -1 -74 -6 -107 -11 -65
-10 -76 -8 -76 19 0 15 14 19 93 27 127 13 132 12 135 -12z m-8 -58 c0 -13
-30 -18 -175 -29 -11 -1 -21 5 -23 15 -3 14 6 18 50 21 126 8 148 7 148 -7z"/>
  <path d="M275 143 c4 -32 9 -61 12 -65 2 -5 58 -8 124 -8 99 0 119 3 119 15 0
12 -19 15 -112 15 l-113 0 3 50 c4 46 2 50 -18 50 -21 0 -22 -3 -15 -57z"/>
</g>
<g id="part-1" class="char-part">
  <path d="M559 623 c-1 -5 -2 -12 -4 -18 -1 -5 -3 -20 -3 -32 -2 -20 -8 -23
-43 -23 -24 0 -38 -4 -34 -10 3 -5 19 -10 35 -10 23 0 27 -3 23 -20 -7 -28 11
-25 31 5 14 21 24 24 83 27 81 4 87 22 9 26 -46 2 -54 6 -49 19 4 9 -1 21 -12
29 -21 16 -34 18 -36 7z"/>
  <path d="M290 603 c1 -5 7 -19 15 -33 8 -14 14 -28 15 -32 0 -5 -30 -8 -67 -8
l-68 -1 24 -20 c17 -14 33 -18 49 -14 75 19 79 18 86 -9 9 -36 26 -33 26 4 0
26 5 31 30 37 42 8 38 23 -5 16 -31 -5 -35 -3 -35 15 0 11 -7 28 -16 36 -16
16 -54 22 -54 9z"/>
</g>
<g id="part-2" class="char-part">
  <path d="M440 453 c-47 -7 -104 -11 -128 -8 l-42 5 19 -28 c11 -15 25 -47 31
-71 l11 -44 61 7 c34 3 89 6 123 6 l62 0 27 62 c26 59 26 63 10 75 -21 16 -62
15 -174 -4z m115 -28 c0 -11 -5 -19 -10 -18 -6 1 -53 -4 -105 -12 -71 -9 -97
-10 -102 -1 -18 27 -5 34 90 43 122 13 127 12 127 -12z m-5 -59 c0 -11 -23
-16 -87 -22 -49 -5 -92 -9 -98 -9 -5 0 -11 8 -13 17 -3 14 6 18 50 21 126 8
148 7 148 -7z"/>
</g>
<g id="part-3" class="char-part">
  <path d="M317 279 c-16 -16 -45 -38 -65 -49 -28 -14 -32 -19 -17 -20 12 0 36
8 55 18 36 18 122 26 280 27 l85 0 3 -55 c2 -30 -2 -72 -8 -93 -11 -37 -13
-39 -46 -33 -40 8 -42 1 -8 -37 50 -58 96 -10 113 118 5 39 12 78 16 87 4 11
-2 22 -19 34 -24 15 -38 16 -154 5 -70 -7 -140 -15 -157 -18 -26 -5 -28 -4
-16 10 7 9 10 21 6 27 -11 18 -39 10 -68 -21z"/>
</g>
<g id="part-4" class="char-part">
  <path d="M275 147 c4 -34 12 -65 19 -70 19 -12 238 -7 233 7 -2 7 -42 12 -110
14 l-107 3 0 48 c0 41 -3 50 -21 54 -20 5 -21 3 -14 -56z"/>
</g>
</g>
</svg>