<?xml version="1.0" standalone="no"?>
<!DOCTYPE svg PUBLIC "-//W3C//DTD SVG 20010904//EN"
 "http://www.w3.org/TR/2001/REC-SVG-20010904/DTD/svg10.dtd">
<svg version="1.0" xmlns="http://www.w3.org/2000/svg"
 width="96.000000pt" height="68.000000pt" viewBox="0 0 96.000000 68.000000"
 preserveAspectRatio="xMidYMid meet">
<metadata>
Created by potrace 1.16, written by Peter Selinger 2001-2019
Combined from part_0.svg through part_5.svg with named groups
</metadata>
<g transform="translate(0.000000,68.000000) scale(0.100000,-0.100000)" fill="#000000" stroke="none">
<g id="part-0" class="char-part">
  <path d="M339 584 c-31 -34 -71 -54 -106 -54 l-28 0 3 -110 c3 -92 6 -110 19
-110 9 0 47 23 85 51 l69 52 20 -22 c26 -28 41 -19 28 18 -9 26 -79 72 -79 51
0 -5 5 -12 10 -15 20 -12 9 -25 -40 -50 -27 -14 -52 -25 -55 -25 -3 0 -5 28
-5 63 0 35 -4 68 -10 75 -7 8 -7 9 0 4 11 -9 90 14 163 45 l38 16 -28 19 c-38
24 -55 23 -84 -8z"/>
  <path d="M610 544 c-36 -7 -86 -14 -112 -15 -50 -3 -57 -19 -7 -19 17 0 32 -6
35 -15 7 -18 -37 -98 -79 -142 -50 -54 -24 -48 37 8 54 50 96 111 96 143 0 9
14 15 38 18 59 7 72 0 72 -38 0 -33 -27 -103 -44 -115 -5 -4 -22 -3 -38 1
l-29 9 26 -30 c14 -17 25 -35 25 -40 0 -5 -24 -9 -52 -9 -29 0 -84 -5 -122
-10 -38 -6 -102 -11 -143 -11 l-74 -1 17 -25 c9 -15 23 -58 31 -97 16 -75 31
-105 43 -86 4 7 58 14 137 17 126 6 131 5 137 -15 20 -63 66 -11 86 97 7 36
17 76 21 88 7 19 3 25 -23 39 l-31 16 21 17 c13 10 29 45 42 91 12 41 24 82
27 91 5 18 -32 50 -57 48 -8 -1 -44 -7 -80 -15z m35 -299 l0 -30 -77 -3 -78
-3 0 30 c0 26 4 30 33 34 17 2 52 4 77 3 43 -1 45 -2 45 -31z m-202 -12 c3
-16 4 -29 3 -30 -2 -2 -30 -6 -63 -9 -59 -6 -60 -6 -67 20 -10 40 -1 46 63 46
56 0 59 -1 64 -27z m197 -65 c0 -38 -13 -46 -80 -49 l-65 -4 -3 32 c-3 30 -1
32 35 36 100 10 113 8 113 -15z m-188 -27 c4 -28 3 -29 -51 -34 -65 -7 -71 -4
-71 34 0 29 0 29 59 29 57 0 59 -1 63 -29z"/>
</g>
<g id="part-1" class="char-part">
  <path d="M331 570 c-28 -21 -56 -40 -63 -43 -7 -2 -10 -7 -7 -10 8 -10 169 46
169 59 0 6 -11 16 -24 22 -20 9 -30 5 -75 -28z"/>
</g>
<g id="part-2" class="char-part">
  <path d="M526 484 c-9 -34 -51 -101 -89 -141 -38 -40 -30 -42 24 -6 45 30 119
126 119 155 0 30 -46 24 -54 -8z"/>
</g>
<g id="part-3" class="char-part">
  <path d="M515 294 c-66 -7 -155 -13 -198 -13 -43 -1 -77 -4 -75 -8 2 -5 11
-24 20 -43 10 -19 22 -60 28 -90 12 -65 26 -91 38 -73 5 8 52 15 133 19 l125
7 17 -27 c10 -14 22 -26 27 -26 19 0 44 53 60 128 10 43 20 85 24 94 6 12 0
21 -23 32 -16 9 -36 15 -43 15 -7 -1 -67 -7 -133 -15z m133 -51 l3 -33 -65 0
c-35 0 -72 -3 -81 -6 -14 -6 -16 -1 -13 27 4 39 23 48 103 46 49 -2 50 -3 53
-34z m-208 -12 c0 -27 -3 -30 -52 -36 -43 -6 -54 -5 -65 11 -29 39 -14 51 70
53 46 1 47 0 47 -28z m200 -63 c0 -39 -13 -46 -80 -49 l-65 -3 -3 31 c-3 30
-1 32 35 36 100 10 113 8 113 -15z m-190 -27 c0 -27 -3 -29 -50 -35 -61 -8
-70 -4 -70 35 0 29 0 29 60 29 59 0 60 0 60 -29z"/>
</g>
</g>
</svg>