<?xml version="1.0" standalone="no"?>
<!DOCTYPE svg PUBLIC "-//W3C//DTD SVG 20010904//EN"
 "http://www.w3.org/TR/2001/REC-SVG-20010904/DTD/svg10.dtd">
<svg version="1.0" xmlns="http://www.w3.org/2000/svg"
 width="96.000000pt" height="68.000000pt" viewBox="0 0 96.000000 68.000000"
 preserveAspectRatio="xMidYMid meet">
<metadata>
Created by potrace 1.16, written by Peter Selinger 2001-2019
Combined from part_0.svg through part_5.svg with named groups
</metadata>
<g transform="translate(0.000000,68.000000) scale(0.100000,-0.100000)" fill="#000000" stroke="none">
<g id="part-0" class="char-part">
  <path d="M366 584 c-10 -37 -49 -97 -99 -149 -24 -25 -41 -47 -39 -50 3 -2 26
8 53 22 l47 27 36 -19 c20 -11 36 -25 36 -31 0 -22 -122 -105 -245 -168 -47
-24 -48 -25 -15 -20 48 8 205 88 257 130 l43 35 61 -43 c34 -24 69 -47 78 -53
9 -5 18 -13 21 -16 14 -17 53 -29 92 -29 59 0 148 11 148 19 0 3 -46 17 -102
31 -98 24 -258 95 -265 117 -2 6 25 37 61 69 l64 57 -24 20 c-24 18 -28 18
-104 1 -14 -3 -36 -8 -50 -11 l-25 -6 24 27 c24 25 24 26 6 46 -25 28 -51 25
-59 -6z m144 -83 c0 -5 -18 -28 -40 -52 l-39 -43 -47 23 -47 22 25 24 c23 21
46 27 126 33 12 1 22 -2 22 -7z"/>
  <path d="M480 234 c-41 -7 -108 -13 -147 -13 -40 -1 -73 -5 -73 -10 0 -5 4
-11 10 -13 5 -1 16 -32 25 -68 23 -95 24 -95 37 -82 7 7 45 12 93 12 44 0 97
3 118 6 30 6 35 9 26 21 -9 11 -5 26 18 72 l30 59 -26 13 c-35 17 -27 17 -111
3z m46 -76 c-4 -29 -10 -56 -14 -59 -10 -9 -171 -18 -176 -10 -3 4 -8 30 -12
58 l-6 52 43 4 c24 2 73 4 108 5 l64 2 -7 -52z"/>
</g>
<g id="part-1" class="char-part">
  <path d="M370 583 c-19 -53 -35 -77 -89 -135 -29 -32 -49 -58 -45 -58 34 0
153 109 186 169 11 20 10 25 -7 37 -27 20 -34 18 -45 -13z"/>
</g>
<g id="part-2" class="char-part">
  <path d="M453 531 c-84 -22 -92 -35 -15 -28 75 6 79 -4 27 -60 l-35 -37 -46
23 c-28 13 -50 19 -56 13 -5 -5 3 -14 21 -22 49 -20 57 -37 30 -60 -51 -44
-145 -104 -213 -137 -65 -31 -68 -33 -31 -28 54 8 191 76 255 126 l51 40 87
-62 c48 -34 98 -67 112 -72 28 -11 200 0 200 12 0 4 -42 17 -92 29 -91 22
-211 71 -259 105 l-24 17 68 63 68 64 -25 17 c-30 19 -41 19 -123 -3z"/>
</g>
<g id="part-3" class="char-part">
  <path d="M445 229 c-22 -4 -75 -8 -118 -8 l-78 -1 20 -27 c11 -16 25 -54 31
-85 11 -55 29 -85 38 -60 2 8 33 12 92 12 110 0 154 8 140 25 -11 13 11 77 37
106 13 15 12 19 -9 33 -24 17 -86 19 -153 5z m81 -71 c-4 -29 -10 -56 -14 -59
-4 -4 -44 -9 -89 -11 l-83 -5 -10 36 c-5 20 -10 46 -10 58 0 23 14 26 159 31
l54 2 -7 -52z"/>
</g>
</g>
</svg>