<?xml version="1.0" standalone="no"?>
<!DOCTYPE svg PUBLIC "-//W3C//DTD SVG 20010904//EN"
 "http://www.w3.org/TR/2001/REC-SVG-20010904/DTD/svg10.dtd">
<svg version="1.0" xmlns="http://www.w3.org/2000/svg"
 width="96.000000pt" height="68.000000pt" viewBox="0 0 96.000000 68.000000"
 preserveAspectRatio="xMidYMid meet">
<metadata>
Created by potrace 1.16, written by Peter Selinger 2001-2019
Combined from part_0.svg through part_5.svg with named groups
</metadata>
<g transform="translate(0.000000,68.000000) scale(0.100000,-0.100000)" fill="#000000" stroke="none">
<g id="part-0" class="char-part">
  <path d="M430 583 c-74 -7 -156 -12 -183 -10 -26 2 -47 2 -47 0 0 -3 9 -16 20
-30 11 -14 20 -33 20 -42 0 -9 7 -29 15 -45 9 -16 12 -32 7 -35 -5 -3 -12 -18
-16 -33 -3 -15 -24 -46 -46 -69 -22 -23 -40 -46 -40 -50 0 -15 38 -19 64 -8
43 20 40 4 -8 -44 -25 -24 -43 -47 -39 -51 11 -11 43 -7 76 10 17 9 50 18 74
19 53 2 61 9 38 35 -22 24 -55 29 -35 5 10 -12 10 -16 -1 -19 -66 -21 -91 -27
-95 -24 -2 3 28 35 66 72 39 38 70 71 70 75 0 9 -22 31 -31 31 -4 0 -12 -15
-20 -32 -7 -18 -18 -36 -23 -40 -15 -11 -76 -10 -76 0 0 5 18 26 41 46 28 26
38 43 34 55 -4 9 -7 20 -8 25 -3 14 83 25 220 29 l122 3 27 39 c14 22 34 45
43 52 14 12 14 15 -9 33 -30 23 -65 24 -260 3z m50 -51 c0 -34 -16 -52 -46
-52 -16 0 -23 8 -28 31 -8 41 -2 49 40 49 31 0 34 -3 34 -28z m124 1 c-10 -40
-7 -38 -65 -41 -50 -2 -52 -1 -36 16 10 10 17 26 17 35 0 13 10 17 45 17 44 0
45 -1 39 -27z m-232 -17 l17 -34 -31 -6 c-55 -11 -66 -7 -77 25 -6 18 -11 33
-11 35 0 1 17 5 38 7 20 2 40 4 43 5 3 1 13 -13 21 -32z"/>
  <path d="M480 405 c-6 -19 -32 -57 -57 -85 -45 -50 -47 -64 -5 -34 12 8 26 13
31 10 10 -6 4 -141 -10 -209 -11 -57 3 -96 27 -76 8 6 14 24 14 39 l0 27 118
12 c202 21 212 22 206 33 -5 7 -35 9 -86 5 l-79 -6 3 27 c3 24 9 28 56 37 63
12 58 25 -9 25 -42 0 -47 2 -42 20 4 14 17 21 49 26 57 8 57 24 -1 24 -40 0
-45 2 -45 23 0 19 6 22 46 25 52 3 67 9 58 23 -4 7 -26 8 -56 4 -35 -5 -49 -4
-44 4 9 14 -29 51 -54 51 -17 0 -19 -3 -10 -19 5 -11 15 -23 20 -26 23 -14 6
-24 -55 -30 -36 -4 -68 -5 -71 -2 -4 3 6 21 20 40 30 39 32 52 10 61 -22 9
-21 9 -34 -29z m118 -117 c-3 -20 -10 -23 -55 -26 -51 -3 -53 -2 -53 22 0 25
3 26 56 26 52 0 55 -1 52 -22z m2 -67 c0 -21 -26 -31 -81 -31 -33 0 -36 2 -31
25 4 23 9 25 58 25 46 0 54 -3 54 -19z m0 -80 c0 -27 -3 -29 -51 -34 -62 -8
-69 -4 -69 34 0 29 0 29 60 29 59 0 60 0 60 -29z"/>
  <path d="M330 152 c0 -14 39 -46 47 -38 4 4 2 15 -3 24 -12 19 -44 29 -44 14z"/>
  <path d="M253 116 c6 -13 20 -29 29 -35 15 -10 18 -8 18 12 0 16 -9 28 -25 35
-34 16 -35 16 -22 -12z"/>
  <path d="M155 83 c21 -51 47 -67 59 -38 8 21 -12 51 -41 64 -34 16 -35 15 -18
-26z"/>
</g>
<g id="part-1" class="char-part">
  <path d="M485 584 c-60 -6 -150 -13 -199 -13 -90 -1 -90 -1 -69 -21 12 -10 24
-34 28 -52 11 -52 24 -71 39 -59 8 7 83 13 177 16 139 4 166 7 174 21 6 10 23
33 40 52 l29 34 -23 19 c-26 21 -39 21 -196 3z m124 -36 c-1 -54 -8 -58 -114
-65 -200 -12 -207 -12 -218 20 -5 16 -6 31 -2 35 7 8 201 29 283 31 48 1 52
-1 51 -21z"/>
</g>
<g id="part-2" class="char-part">
  <path d="M480 548 c0 -13 -3 -33 -6 -46 -9 -32 16 -20 38 18 16 28 16 30 -2
40 -27 14 -30 13 -30 -12z"/>
</g>
<g id="part-3" class="char-part">
  <path d="M247 387 c-8 -18 -31 -50 -51 -72 -44 -46 -41 -70 6 -60 18 4 44 12
58 18 25 10 25 10 -9 16 l-34 6 46 51 c35 38 43 54 35 62 -20 20 -37 13 -51
-21z"/>
</g>
<g id="part-4" class="char-part">
  <path d="M330 152 c0 -5 9 -17 20 -27 14 -13 24 -15 31 -8 8 8 4 15 -12 27
-26 18 -39 20 -39 8z"/>
  <path d="M257 113 c22 -36 36 -45 44 -31 11 17 1 34 -27 47 -35 16 -37 14 -17
-16z"/>
  <path d="M140 115 c0 -13 30 -62 45 -75 13 -11 18 -11 25 -1 13 22 -1 51 -31
66 -30 16 -39 18 -39 10z"/>
</g>
<g id="part-5" class="char-part">
  <path d="M613 233 c-7 -3 -13 -11 -13 -19 0 -7 6 -11 14 -8 8 3 17 1 21 -5 3
-7 0 -8 -9 -5 -9 3 -16 1 -16 -5 0 -6 -6 -8 -14 -5 -8 3 -17 0 -21 -6 -4 -7 0
-10 11 -8 13 2 18 -2 16 -14 -2 -13 4 -18 19 -18 12 0 19 3 16 6 -3 4 -2 15 4
25 12 23 -9 68 -28 62z"/>
  <path d="M668 193 c6 -2 18 -2 25 0 6 3 1 5 -13 5 -14 0 -19 -2 -12 -5z"/>
  <path d="M545 180 c-3 -5 -1 -10 4 -10 6 0 11 5 11 10 0 6 -2 10 -4 10 -3 0
-8 -4 -11 -10z"/>
  <path d="M610 118 c0 -9 -92 -28 -104 -21 -5 3 -6 1 -2 -5 10 -16 32 -15 84 3
24 8 76 16 117 17 104 2 95 13 -10 13 -47 0 -85 -3 -85 -7z"/>
</g>
</g>
</svg>