<?xml version="1.0" standalone="no"?>
<!DOCTYPE svg PUBLIC "-//W3C//DTD SVG 20010904//EN"
 "http://www.w3.org/TR/2001/REC-SVG-20010904/DTD/svg10.dtd">
<svg version="1.0" xmlns="http://www.w3.org/2000/svg"
 width="96.000000pt" height="68.000000pt" viewBox="0 0 96.000000 68.000000"
 preserveAspectRatio="xMidYMid meet">
<metadata>
Created by potrace 1.16, written by Peter Selinger 2001-2019
Combined from part_0.svg through part_5.svg with named groups
</metadata>
<g transform="translate(0.000000,68.000000) scale(0.100000,-0.100000)" fill="#000000" stroke="none">
<g id="part-0" class="char-part">
  <path d="M599 561 c-13 -10 -42 -28 -64 -39 -22 -12 -33 -21 -25 -21 18 -1
104 22 145 39 l30 12 -25 13 c-32 18 -33 18 -61 -4z"/>
  <path d="M210 560 c0 -20 -79 -90 -95 -84 -13 5 -13 2 -1 -27 8 -19 17 -56 21
-82 l7 -48 42 6 c22 3 70 7 105 8 l64 2 23 50 c39 86 40 101 7 112 -21 8 -40
6 -78 -9 l-50 -18 48 6 c45 5 47 4 47 -20 0 -23 -4 -26 -35 -26 -19 0 -35 -4
-35 -10 0 -5 14 -10 30 -10 30 0 37 -13 22 -37 -5 -8 -41 -16 -84 -19 -70 -6
-75 -5 -80 14 -7 26 -1 32 28 32 13 0 26 5 29 11 5 6 -7 9 -32 7 -34 -3 -38 0
-41 22 -3 22 5 29 63 58 36 17 65 36 65 42 0 6 -12 15 -26 20 -32 13 -44 13
-44 0z"/>
  <path d="M677 475 c-21 -25 -36 -45 -32 -45 13 0 105 51 105 58 0 9 -21 32
-29 32 -4 -1 -23 -21 -44 -45z"/>
  <path d="M560 484 c0 -10 28 -34 39 -34 14 0 14 13 -1 28 -12 12 -38 17 -38 6z"/>
  <path d="M446 473 c-6 -6 34 -53 47 -53 4 0 7 8 7 18 0 19 -43 46 -54 35z"/>
  <path d="M503 395 c-31 -30 -39 -45 -32 -52 8 -8 20 -8 41 -1 49 17 43 1 -11
-26 -28 -15 -51 -30 -51 -35 0 -15 23 -19 55 -9 44 12 55 10 55 -11 0 -16 -10
-21 -57 -27 -32 -5 -61 -9 -65 -10 -5 -1 -11 -2 -15 -3 -5 -1 2 -6 15 -12 14
-5 39 -5 63 0 21 5 41 5 44 1 8 -13 -31 -55 -70 -75 l-37 -20 -29 35 c-26 31
-30 42 -28 93 3 63 3 62 -28 71 -21 7 -22 5 -17 -26 26 -145 62 -199 157 -233
65 -24 254 -28 305 -6 31 13 43 43 23 55 -5 3 -12 23 -16 43 l-8 38 -14 -43
c-10 -30 -23 -47 -42 -54 -35 -15 -186 -14 -238 1 -42 12 -59 31 -27 31 28 0
72 33 91 67 18 35 38 41 148 46 83 3 52 22 -35 21 -71 -1 -80 1 -80 17 0 12
10 21 28 25 15 3 34 8 44 10 9 3 19 0 23 -6 10 -16 35 -12 35 6 0 20 -28 43
-54 44 -15 0 -16 -3 -7 -14 10 -12 5 -15 -26 -20 -101 -14 -138 -17 -132 -12
3 3 41 21 85 40 76 34 99 57 61 64 -11 2 -29 -5 -40 -16 -12 -11 -41 -22 -65
-25 -49 -6 -47 8 5 29 19 8 33 20 30 27 -8 25 -43 13 -84 -28z"/>
  <path d="M228 206 c-1 -58 -2 -114 -2 -123 -2 -30 27 -24 69 14 22 20 33 34
25 30 -8 -3 -23 -8 -32 -12 -15 -6 -18 -1 -18 29 0 32 3 36 24 36 14 0 28 5
32 11 5 8 -3 10 -25 7 -27 -4 -31 -2 -31 19 0 16 7 24 25 29 14 3 25 11 25 16
0 6 -11 7 -24 4 -20 -5 -25 -2 -28 16 -2 13 -11 24 -20 26 -16 3 -18 -7 -20
-102z"/>
  <path d="M114 175 c-1 -63 3 -115 8 -115 4 0 25 16 46 36 25 23 29 32 14 24
-28 -14 -34 -1 -30 66 3 45 5 49 31 52 34 4 36 22 2 22 -16 0 -25 6 -25 15 0
9 -9 15 -22 15 -22 0 -23 -3 -24 -115z"/>
  <path d="M165 190 c-4 -6 5 -10 19 -10 14 0 26 5 26 10 0 6 -9 10 -19 10 -11
0 -23 -4 -26 -10z"/>
  <path d="M620 196 c0 -10 99 -76 115 -76 29 0 12 34 -25 51 -38 18 -90 32 -90
25z"/>
</g>
<g id="part-1" class="char-part">
  <path d="M176 514 c-21 -24 -34 -44 -29 -44 8 0 120 57 133 67 8 7 -24 23 -45
22 -11 -1 -37 -21 -59 -45z"/>
</g>
<g id="part-2" class="char-part">
  <path d="M334 298 c3 -13 10 -48 16 -78 22 -110 86 -163 222 -182 118 -16 258
3 258 36 0 6 -8 33 -18 59 l-19 48 -11 -39 c-14 -45 -35 -57 -113 -67 -68 -8
-188 16 -230 46 -39 28 -59 74 -59 138 0 35 -4 51 -16 55 -27 11 -35 7 -30
-16z"/>
</g>
<g id="part-3" class="char-part">
  <path d="M600 565 c-6 -7 -35 -25 -63 -40 -62 -31 -39 -32 65 -4 81 22 92 31
59 49 -27 14 -46 13 -61 -5z"/>
  <path d="M677 475 c-36 -42 -37 -44 -13 -35 44 16 86 40 86 48 0 9 -21 32 -29
32 -4 -1 -23 -21 -44 -45z"/>
  <path d="M562 478 c6 -16 36 -34 44 -25 9 9 -15 37 -33 37 -8 0 -13 -5 -11
-12z"/>
  <path d="M450 466 c0 -13 31 -46 44 -46 4 0 6 10 4 21 -3 24 -48 47 -48 25z"/>
</g>
<g id="part-4" class="char-part">
  <path d="M525 410 c-16 -16 -37 -32 -47 -36 -10 -3 -18 -12 -18 -21 0 -13 8
-15 46 -9 25 3 53 11 62 17 13 8 9 9 -20 5 -49 -6 -48 6 2 29 22 10 39 23 37
29 -7 22 -33 16 -62 -14z"/>
</g>
<g id="part-5" class="char-part">
  <path d="M567 266 c-3 -8 -1 -17 6 -20 7 -2 1 -5 -13 -6 -14 -1 -20 -4 -14 -6
17 -7 5 -45 -25 -78 -24 -27 -24 -28 -3 -17 12 6 22 15 22 19 0 13 55 72 68
72 7 0 12 5 12 10 0 5 -6 9 -12 8 -7 -2 -12 5 -10 15 3 21 -23 23 -31 3z"/>
  <path d="M704 253 c15 -4 16 -7 5 -14 -9 -6 -10 -9 -2 -9 6 0 14 4 18 10 3 5
13 7 23 4 14 -5 15 -4 2 5 -8 6 -26 10 -40 10 -19 -1 -21 -2 -6 -6z"/>
  <path d="M638 238 c5 -5 16 -8 23 -6 8 3 3 7 -10 11 -17 4 -21 3 -13 -5z"/>
  <path d="M495 220 c4 -6 11 -8 16 -5 14 9 11 15 -7 15 -8 0 -12 -5 -9 -10z"/>
  <path d="M690 148 c39 -32 53 -35 48 -10 -3 11 -12 16 -28 14 -20 -2 -22 0
-10 8 8 5 13 10 10 11 -3 0 -16 2 -29 3 -24 3 -23 1 9 -26z"/>
</g>
</g>
</svg>