<?xml version="1.0" standalone="no"?>
<!DOCTYPE svg PUBLIC "-//W3C//DTD SVG 20010904//EN"
 "http://www.w3.org/TR/2001/REC-SVG-20010904/DTD/svg10.dtd">
<svg version="1.0" xmlns="http://www.w3.org/2000/svg"
 width="96.000000pt" height="68.000000pt" viewBox="0 0 96.000000 68.000000"
 preserveAspectRatio="xMidYMid meet">
<metadata>
Created by potrace 1.16, written by Peter Selinger 2001-2019
Combined from part_0.svg through part_5.svg with named groups
</metadata>
<g transform="translate(0.000000,68.000000) scale(0.100000,-0.100000)" fill="#000000" stroke="none">
<g id="part-0" class="char-part">
  <path d="M584 564 c10 -36 36 -185 36 -200 0 -12 -87 -30 -97 -21 -2 3 6 24
19 46 20 36 21 43 8 51 -13 8 -12 10 3 10 9 0 17 4 17 9 0 16 -37 18 -101 5
-35 -8 -75 -14 -89 -14 -23 -1 -24 -2 -8 -14 19 -14 48 -75 48 -101 0 -11 -11
-15 -37 -15 -21 0 -45 -5 -53 -10 -24 -15 64 -12 181 6 55 9 105 12 109 8 10
-11 42 -121 44 -153 1 -18 -10 -33 -41 -55 -23 -17 -42 -34 -42 -38 -1 -11 45
9 80 34 l30 23 27 -31 c43 -48 102 -88 113 -77 11 11 1 123 -11 123 -4 0 -11
-11 -14 -25 -8 -31 -26 -32 -54 -2 -29 31 -27 55 8 97 30 34 30 35 11 54 -25
25 -51 14 -51 -21 0 -57 -17 -58 -35 -2 -10 30 -20 59 -22 66 -3 8 15 14 56
19 34 3 61 10 61 14 0 13 -36 18 -84 13 l-45 -5 -3 58 c-2 33 0 79 5 103 8 51
4 58 -42 67 -33 7 -34 7 -27 -22z m-74 -148 c0 -12 -5 -37 -11 -55 -8 -23 -17
-31 -35 -31 -14 0 -24 5 -23 13 3 27 -2 44 -21 64 -20 22 -20 22 3 26 12 2 37
5 55 6 27 1 32 -2 32 -23z"/>
  <path d="M215 407 c0 -185 -3 -197 -79 -289 -28 -34 -41 -58 -33 -58 27 0 97
60 118 102 12 24 23 45 25 47 1 2 15 -6 30 -18 35 -27 64 -28 64 0 0 15 -12
25 -41 37 -36 15 -40 20 -35 46 4 16 6 41 6 57 0 24 8 33 50 54 56 28 62 42
24 51 -18 5 -32 0 -51 -17 l-26 -24 7 50 c3 28 9 62 12 77 6 27 6 27 -56 44
-13 3 -15 -19 -15 -159z"/>
  <path d="M423 518 c14 -36 57 -53 57 -24 0 20 -35 56 -55 56 -13 0 -13 -4 -2
-32z"/>
  <path d="M690 495 c0 -13 46 -53 68 -60 19 -5 22 -3 22 19 0 20 -7 27 -37 35
-43 12 -53 13 -53 6z"/>
  <path d="M106 382 c-8 -13 44 -92 59 -92 19 0 28 17 21 44 -6 22 -71 62 -80
48z"/>
  <path d="M508 275 c-3 -3 -31 -9 -63 -13 l-59 -7 3 -70 c1 -38 5 -73 7 -77 3
-4 28 -4 56 -1 43 5 53 3 65 -13 11 -15 17 -16 31 -8 21 14 31 156 12 180 -12
14 -42 19 -52 9z m22 -51 c0 -20 -5 -24 -32 -25 -18 0 -43 -2 -55 -5 -19 -3
-23 1 -23 21 0 20 6 25 38 30 20 4 42 8 47 9 17 5 25 -4 25 -30z m-2 -62 c4
-24 -2 -27 -65 -36 -42 -6 -43 -6 -43 23 0 28 3 30 43 34 58 5 62 3 65 -21z"/>
</g>
<g id="part-1" class="char-part">
  <path d="M218 528 c4 -18 7 -80 6 -138 -1 -140 -21 -204 -87 -276 -52 -57 -53
-63 -9 -40 35 19 75 62 97 106 10 19 19 37 21 39 2 2 17 -8 34 -23 35 -29 45
-32 56 -14 9 14 -31 48 -57 48 -26 0 -28 8 -17 76 10 59 12 62 54 82 49 24 55
37 22 48 -17 5 -27 0 -46 -22 l-23 -29 3 85 3 85 -32 3 c-32 3 -33 3 -25 -30z"/>
  <path d="M110 372 c0 -21 42 -72 60 -72 39 0 16 52 -30 68 -16 6 -30 8 -30 4z"/>
</g>
<g id="part-2" class="char-part">
  <path d="M410 545 c0 -22 34 -65 50 -65 26 0 26 24 0 50 -18 18 -50 28 -50 15z"/>
  <path d="M470 465 c-30 -8 -67 -14 -82 -15 -16 0 -28 -4 -28 -10 0 -13 45 -12
134 0 77 11 88 16 66 30 -18 12 -22 12 -90 -5z"/>
</g>
<g id="part-3" class="char-part">
  <path d="M584 568 c9 -35 37 -210 34 -213 -2 -2 -62 -11 -133 -20 -72 -9 -139
-20 -150 -25 -34 -15 60 -12 175 5 56 9 105 13 109 10 5 -6 34 -96 48 -151 4
-17 -6 -31 -47 -63 -60 -48 -46 -55 23 -11 l48 30 49 -49 c46 -46 85 -69 96
-58 2 2 0 35 -4 73 -8 63 -10 67 -20 42 -17 -41 -33 -44 -59 -14 -30 35 -29
45 6 94 28 38 29 41 12 56 -26 23 -40 20 -47 -11 -10 -48 -14 -57 -23 -47 -6
7 -41 100 -41 110 0 1 27 5 60 9 94 11 76 31 -22 26 -33 -2 -38 1 -44 24 -4
14 -4 62 -2 106 5 86 -2 99 -53 99 -17 0 -20 -4 -15 -22z"/>
  <path d="M690 491 c0 -16 68 -63 80 -56 21 13 10 43 -21 54 -39 14 -59 14 -59
2z"/>
</g>
<g id="part-4" class="char-part">
  <path d="M490 268 c-14 -5 -42 -10 -62 -10 l-38 1 0 -81 0 -80 56 7 c50 6 57
4 71 -15 14 -20 16 -20 33 -5 14 13 19 35 22 95 3 74 2 80 -20 90 -27 12 -29
12 -62 -2z m40 -43 c0 -17 -6 -25 -17 -25 -10 0 -35 -3 -55 -6 -36 -6 -38 -5
-38 19 0 28 12 34 73 36 33 1 37 -2 37 -24z m0 -59 c0 -26 -7 -30 -72 -41 -37
-6 -38 -5 -38 24 0 28 2 30 48 34 26 2 50 4 55 5 4 1 7 -9 7 -22z"/>
</g>
</g>
</svg>