<?xml version="1.0" standalone="no"?>
<!DOCTYPE svg PUBLIC "-//W3C//DTD SVG 20010904//EN"
 "http://www.w3.org/TR/2001/REC-SVG-20010904/DTD/svg10.dtd">
<svg version="1.0" xmlns="http://www.w3.org/2000/svg"
 width="96.000000pt" height="68.000000pt" viewBox="0 0 96.000000 68.000000"
 preserveAspectRatio="xMidYMid meet">
<metadata>
Created by potrace 1.16, written by Peter Selinger 2001-2019
Combined from part_0.svg through part_5.svg with named groups
</metadata>
<g transform="translate(0.000000,68.000000) scale(0.100000,-0.100000)" fill="#000000" stroke="none">
<g id="part-0" class="char-part">
  <path d="M305 579 c-8 -24 -64 -90 -74 -86 -3 2 -16 -7 -28 -20 -44 -45 44
-13 119 44 52 40 59 57 29 73 -29 15 -39 12 -46 -11z"/>
  <path d="M618 542 c-32 -9 -58 -20 -58 -25 0 -9 102 1 138 14 12 5 22 13 22
19 0 13 -32 11 -102 -8z"/>
  <path d="M430 546 c0 -12 40 -46 54 -46 21 0 28 16 13 28 -15 13 -67 27 -67
18z"/>
  <path d="M320 462 c0 -20 -65 -85 -128 -127 -24 -15 -45 -32 -48 -37 -7 -12
44 9 94 38 38 23 43 23 49 8 3 -9 2 -34 -4 -56 -8 -29 -7 -42 3 -55 23 -30 35
3 31 81 -3 68 -2 70 33 103 34 32 34 34 16 48 -27 20 -46 19 -46 -3z"/>
  <path d="M710 464 c-193 -29 -256 -54 -113 -45 29 2 31 0 38 -38 10 -63 -1
-101 -31 -101 l-25 0 21 -30 c46 -64 80 -23 80 96 l0 82 60 7 c33 4 60 11 60
16 0 5 -6 9 -12 9 -7 0 -22 2 -33 4 -11 2 -31 2 -45 0z"/>
  <path d="M424 431 c23 -26 49 -28 44 -3 -2 10 -14 18 -33 20 -30 4 -30 4 -11
-17z"/>
  <path d="M471 356 c-7 -8 -32 -24 -57 -35 -49 -23 -52 -30 -25 -55 17 -16 20
-15 47 21 15 21 32 40 36 41 5 2 13 12 18 23 12 22 -2 26 -19 5z"/>
  <path d="M460 220 c0 -5 13 -24 29 -42 24 -27 32 -31 43 -20 9 9 10 17 2 29
-13 20 -74 48 -74 33z"/>
  <path d="M210 150 c-33 -52 -36 -83 -8 -88 32 -6 77 115 49 132 -5 3 -23 -16
-41 -44z"/>
  <path d="M721 162 c47 -54 67 -66 84 -52 22 18 -2 57 -47 74 -65 27 -74 21
-37 -22z"/>
  <path d="M320 188 c0 -2 11 -26 24 -54 28 -57 53 -80 108 -100 70 -25 236 -15
271 16 13 12 -3 36 -36 53 -18 9 -42 24 -54 33 -22 16 -22 15 -20 -28 l2 -43
-75 0 c-95 0 -146 23 -175 79 -17 32 -45 60 -45 44z"/>
</g>
<g id="part-1" class="char-part">
  <path d="M297 556 c-8 -19 -33 -47 -54 -62 -57 -42 -61 -46 -30 -35 45 17 69
32 115 69 33 27 40 38 31 48 -20 24 -45 15 -62 -20z"/>
</g>
<g id="part-2" class="char-part">
  <path d="M635 421 c-3 -6 -3 -28 1 -50 4 -22 3 -52 0 -67 -6 -22 -11 -25 -36
-22 l-28 4 25 -33 c50 -66 83 -29 83 94 0 75 -2 83 -19 83 -11 0 -22 -4 -26
-9z"/>
</g>
<g id="part-3" class="char-part">
  <path d="M460 217 c0 -16 51 -67 67 -67 19 0 16 34 -4 52 -23 20 -63 29 -63
15z"/>
  <path d="M211 152 c-36 -56 -41 -92 -12 -92 24 0 52 43 58 90 8 56 -11 56 -46
2z"/>
  <path d="M735 151 c52 -54 69 -61 79 -35 12 30 -31 64 -102 80 -25 6 -23 2 23
-45z"/>
  <path d="M332 156 c17 -55 62 -102 115 -120 88 -30 278 -14 278 24 0 12 -46
50 -98 81 -16 9 -17 6 -11 -30 6 -37 5 -40 -20 -47 -43 -10 -130 1 -172 22
-24 13 -47 35 -59 59 -28 52 -47 58 -33 11z"/>
</g>
</g>
</svg>