<?xml version="1.0" standalone="no"?>
<!DOCTYPE svg PUBLIC "-//W3C//DTD SVG 20010904//EN"
 "http://www.w3.org/TR/2001/REC-SVG-20010904/DTD/svg10.dtd">
<svg version="1.0" xmlns="http://www.w3.org/2000/svg"
 width="96.000000pt" height="68.000000pt" viewBox="0 0 96.000000 68.000000"
 preserveAspectRatio="xMidYMid meet">
<metadata>
Created by potrace 1.16, written by Peter Selinger 2001-2019
Combined from part_0.svg through part_5.svg with named groups
</metadata>
<g transform="translate(0.000000,68.000000) scale(0.100000,-0.100000)" fill="#000000" stroke="none">
<g id="part-0" class="char-part">
  <path d="M315 606 l7 -34 -68 -7 c-62 -7 -66 -9 -48 -22 13 -10 35 -13 67 -10
41 3 47 2 47 -14 0 -16 -8 -19 -42 -19 -24 0 -49 -4 -57 -9 -23 -15 25 -34 65
-26 29 5 34 3 34 -14 0 -26 -8 -30 -79 -37 -34 -4 -61 -11 -61 -15 0 -16 47
-21 90 -9 44 12 59 5 60 -27 0 -28 19 -11 26 22 4 23 12 35 23 35 9 1 30 7 46
15 l30 15 -42 -6 c-38 -5 -43 -4 -43 15 0 16 8 20 38 23 20 2 37 8 37 13 0 6
-17 11 -37 13 -61 5 -45 42 18 42 39 0 27 19 -16 26 -35 6 -40 9 -34 27 7 22
-10 37 -44 37 -21 0 -22 -3 -17 -34z"/>
  <path d="M659 595 c-3 -2 -40 -10 -82 -16 -42 -6 -74 -15 -71 -20 3 -5 10 -7
15 -4 5 4 13 3 19 0 13 -8 -14 -61 -53 -102 -21 -23 -26 -33 -16 -33 22 0 117
97 121 123 2 18 11 23 41 25 48 4 54 -11 32 -78 -14 -42 -20 -50 -42 -50 -29
0 -27 -17 4 -37 19 -13 23 -12 41 8 11 11 26 44 33 73 7 28 17 59 23 69 9 15
7 21 -8 33 -20 14 -48 19 -57 9z"/>
  <path d="M505 408 c-11 -6 -22 -14 -25 -18 -3 -3 -25 -16 -50 -28 -45 -22 -45
-22 -10 -16 28 4 38 1 47 -14 11 -19 7 -21 -70 -33 -62 -10 -76 -14 -57 -20
14 -3 51 -4 83 -1 l57 5 0 -31 0 -30 -130 -7 c-72 -4 -133 -11 -135 -16 -10
-15 60 -20 145 -10 127 16 120 18 120 -36 0 -65 -10 -77 -51 -69 l-34 6 40
-35 c22 -19 43 -35 46 -35 19 0 34 41 39 109 l5 76 123 3 c67 1 122 7 122 12
0 15 -65 31 -106 26 -22 -3 -63 -8 -91 -11 l-53 -6 0 29 c0 28 2 30 60 36 78
9 77 26 -1 26 -47 0 -65 4 -75 18 -20 25 -18 29 23 37 50 9 56 14 42 31 -14
17 -37 18 -64 2z"/>
</g>
<g id="part-1" class="char-part">
  <path d="M319 631 c0 -3 -2 -19 -2 -36 -2 -29 -4 -30 -62 -35 -55 -5 -58 -6
-38 -18 14 -8 37 -10 63 -6 36 6 40 4 40 -14 0 -22 -24 -32 -80 -32 -26 0 -31
-3 -20 -10 8 -5 34 -10 58 -10 32 0 42 -4 42 -16 0 -11 5 -14 16 -10 9 3 18 6
20 6 2 0 4 6 4 14 0 9 15 17 40 21 48 8 43 25 -6 25 -28 0 -35 4 -32 18 2 12
15 18 46 20 53 4 55 22 2 22 -37 0 -40 2 -40 29 0 23 -5 30 -25 33 -14 3 -25
2 -26 -1z"/>
</g>
<g id="part-2" class="char-part">
  <path d="M542 531 c-6 -16 -27 -47 -47 -70 -42 -46 -39 -51 11 -20 37 22 96
97 88 111 -12 19 -42 7 -52 -21z"/>
</g>
<g id="part-3" class="char-part">
  <path d="M450 378 c-72 -39 -73 -40 -34 -34 39 5 54 -3 54 -29 0 -2 -21 -7
-47 -10 -91 -12 -107 -16 -92 -26 8 -5 44 -6 82 -3 67 7 67 7 67 -19 0 -14 -4
-28 -8 -31 -5 -3 -65 -8 -135 -12 -122 -7 -155 -16 -101 -30 23 -6 72 -3 197
13 l47 6 0 -49 c0 -66 -10 -79 -51 -70 l-34 6 37 -36 c58 -58 88 -29 88 86 0
43 4 59 16 64 9 3 65 6 125 6 110 0 136 10 77 29 -23 7 -59 8 -118 1 -47 -5
-88 -10 -92 -10 -5 0 -8 13 -8 29 0 27 2 29 60 35 101 12 86 33 -19 27 -28 -2
-47 2 -52 11 -17 26 -8 38 31 44 42 7 47 13 28 32 -18 18 -36 14 -118 -30z"/>
</g>
</g>
</svg>