<?xml version="1.0" standalone="no"?>
<!DOCTYPE svg PUBLIC "-//W3C//DTD SVG 20010904//EN"
 "http://www.w3.org/TR/2001/REC-SVG-20010904/DTD/svg10.dtd">
<svg version="1.0" xmlns="http://www.w3.org/2000/svg"
 width="96.000000pt" height="68.000000pt" viewBox="0 0 96.000000 68.000000"
 preserveAspectRatio="xMidYMid meet">
<metadata>
Created by potrace 1.16, written by Peter Selinger 2001-2019
Combined from part_0.svg through part_5.svg with named groups
</metadata>
<g transform="translate(0.000000,68.000000) scale(0.100000,-0.100000)" fill="#000000" stroke="none">
<g id="part-0" class="char-part">
  <path d="M375 593 c6 -18 10 -39 19 -105 l4 -36 -74 -7 c-94 -9 -95 -29 -1
-33 l67 -3 0 -38 c0 -21 -6 -43 -13 -49 -7 -6 -56 -14 -110 -18 -54 -4 -100
-10 -102 -15 -11 -17 61 -28 133 -21 39 5 72 4 72 0 0 -55 -95 -149 -194 -194
-73 -32 -85 -48 -28 -38 129 24 222 94 269 204 14 31 16 33 26 15 18 -34 79
-108 138 -167 l56 -58 90 0 c49 0 93 3 97 7 4 4 -32 22 -79 40 -98 37 -179 90
-248 159 l-48 49 126 7 c70 3 130 9 133 13 4 4 -2 13 -13 22 -16 12 -38 14
-115 9 -52 -4 -105 -9 -118 -13 -23 -5 -23 -4 -17 43 4 27 8 50 10 51 1 2 29
6 63 9 34 4 70 13 79 20 16 11 16 13 -10 25 -20 9 -39 10 -73 2 -55 -13 -60
-6 -51 68 6 47 4 50 -19 59 -14 6 -37 10 -51 10 -20 0 -24 -4 -18 -17z"/>
</g>
<g id="part-1" class="char-part">
  <path d="M385 583 c4 -10 9 -44 12 -75 l6 -57 -39 -6 c-107 -17 -112 -20 -36
-23 79 -3 78 -2 66 -74 l-6 -37 -77 -6 c-42 -3 -92 -8 -111 -11 -30 -5 -32 -7
-16 -16 12 -7 53 -8 108 -4 89 6 89 6 83 -17 -20 -67 -102 -143 -206 -192 -44
-20 -49 -25 -27 -25 46 0 138 42 186 85 28 25 59 67 76 102 l28 60 91 7 c49 3
110 6 134 6 49 0 57 15 16 31 -19 7 -52 7 -107 0 -128 -18 -126 -18 -126 32 0
23 4 47 8 53 4 6 36 14 70 17 71 8 86 13 76 29 -4 7 -31 8 -76 4 l-70 -6 3 67
4 68 -39 3 c-34 3 -38 1 -31 -15z"/>
</g>
<g id="part-2" class="char-part">
  <path d="M430 278 c0 -18 104 -150 160 -202 l49 -46 96 0 c52 0 95 4 95 9 0 4
-38 22 -85 39 -97 36 -178 87 -250 161 -51 52 -65 60 -65 39z"/>
</g>
</g>
</svg>