<?xml version="1.0" standalone="no"?>
<!DOCTYPE svg PUBLIC "-//W3C//DTD SVG 20010904//EN"
 "http://www.w3.org/TR/2001/REC-SVG-20010904/DTD/svg10.dtd">
<svg version="1.0" xmlns="http://www.w3.org/2000/svg"
 width="96.000000pt" height="68.000000pt" viewBox="0 0 96.000000 68.000000"
 preserveAspectRatio="xMidYMid meet">
<metadata>
Created by potrace 1.16, written by Peter Selinger 2001-2019
Combined from part_0.svg through part_5.svg with named groups
</metadata>
<g transform="translate(0.000000,68.000000) scale(0.100000,-0.100000)" fill="#000000" stroke="none">
<g id="part-0" class="char-part">
  <path d="M490 583 c0 -5 14 -20 32 -34 l31 -26 -101 -7 c-100 -7 -131 -19 -72
-28 17 -3 56 -1 87 3 31 4 119 11 195 15 76 4 138 11 138 15 0 16 -52 22 -141
15 -85 -6 -89 -6 -89 13 0 11 -9 25 -19 31 -23 12 -61 13 -61 3z"/>
  <path d="M195 528 c5 -13 10 -53 12 -90 l5 -68 -31 0 c-16 0 -42 -5 -58 -11
l-28 -11 25 -10 c14 -5 39 -7 56 -3 38 7 44 -4 44 -75 l0 -49 -57 -17 c-32
-10 -62 -22 -68 -27 -14 -12 34 -50 57 -44 34 9 218 122 218 134 0 9 -10 8
-41 -2 -23 -8 -45 -15 -50 -15 -5 0 -9 25 -9 55 0 48 3 55 19 55 11 0 32 5 47
10 36 14 18 34 -31 32 -34 -1 -35 -1 -35 38 0 21 5 51 12 66 11 23 10 28 -7
40 -10 8 -34 14 -53 14 -31 0 -34 -2 -27 -22z"/>
  <path d="M665 470 c-22 -5 -97 -12 -167 -16 -119 -6 -149 -14 -114 -27 8 -3
22 -40 32 -82 16 -69 20 -76 38 -70 12 3 73 8 136 11 63 2 117 8 121 12 5 6
59 148 59 157 0 3 -62 26 -64 24 -1 -1 -19 -5 -41 -9z m34 -62 c-2 -89 -5 -91
-94 -96 -166 -9 -147 -15 -163 51 -8 32 -13 60 -10 62 6 6 153 22 216 24 l52
1 -1 -42z"/>
  <path d="M575 410 c-11 -5 -37 -9 -59 -9 -32 -1 -37 -4 -31 -18 4 -10 10 -26
12 -36 4 -11 11 -16 20 -13 8 3 34 6 57 6 38 0 43 3 54 32 16 44 -5 59 -53 38z
m19 -35 c-7 -16 -69 -21 -78 -6 -9 14 6 21 45 21 30 0 37 -3 33 -15z"/>
  <path d="M550 244 c-52 -7 -106 -10 -119 -7 -22 5 -22 4 -10 -18 7 -13 18 -46
24 -74 10 -40 16 -49 31 -47 10 1 64 4 119 6 l100 3 27 54 c52 105 38 112
-172 83z m138 -26 c-2 -16 -10 -23 -26 -24 -12 -1 -60 -4 -106 -8 -73 -6 -84
-5 -90 10 -4 9 -5 18 -4 19 3 2 165 21 206 23 19 2 23 -2 20 -20z m-15 -68
c-4 -16 -14 -20 -53 -20 -26 0 -68 -3 -94 -6 -42 -6 -46 -5 -46 14 0 22 19 26
142 30 52 2 56 0 51 -18z"/>
  <path d="M595 65 c-71 -7 -163 -13 -202 -14 -40 -1 -73 -5 -73 -11 0 -17 71
-23 159 -11 48 6 151 11 229 11 141 0 171 8 111 29 -37 13 -48 12 -224 -4z"/>
</g>
<g id="part-1" class="char-part">
  <path d="M198 544 c-5 -4 -3 -13 2 -19 6 -7 13 -43 17 -80 7 -77 2 -85 -64
-85 -24 0 -43 -4 -43 -10 0 -5 25 -10 55 -10 l55 0 0 -68 0 -68 -65 -19 c-36
-11 -65 -23 -65 -27 0 -10 36 -28 56 -28 20 0 227 120 220 128 -3 2 -23 -3
-46 -12 -22 -9 -45 -16 -50 -16 -6 0 -10 27 -10 59 l0 60 41 8 c51 10 51 28
-1 27 -37 -1 -40 1 -40 25 0 14 5 46 11 70 5 24 6 48 2 52 -12 12 -67 22 -75
13z"/>
</g>
<g id="part-2" class="char-part">
  <path d="M513 556 l37 -33 -100 -8 c-55 -3 -100 -10 -100 -15 0 -15 49 -20
117 -11 37 5 130 12 206 16 75 4 137 11 137 16 0 16 -66 26 -125 18 -95 -12
-115 -11 -109 5 7 19 -34 46 -71 46 l-30 -1 38 -33z"/>
</g>
<g id="part-3" class="char-part">
  <path d="M605 464 c-55 -7 -130 -13 -167 -13 -38 -1 -68 -5 -68 -11 0 -5 4
-10 9 -10 11 0 27 -40 42 -105 7 -27 13 -51 14 -52 0 -2 28 2 61 7 32 5 93 10
136 11 l76 1 32 80 c18 44 30 81 28 82 -10 9 -48 26 -55 25 -4 -1 -53 -8 -108
-15z m97 -54 c-2 -19 -7 -49 -13 -65 -8 -27 -14 -31 -47 -30 -20 0 -69 -3
-109 -8 l-72 -7 -16 52 c-8 28 -15 57 -15 64 0 14 134 32 220 30 l55 -1 -3
-35z"/>
</g>
<g id="part-4" class="char-part">
  <path d="M605 65 c-77 -7 -173 -14 -212 -14 -40 -1 -73 -5 -73 -11 0 -17 69
-22 156 -10 49 6 152 11 231 12 79 0 143 4 143 8 0 11 -58 30 -84 29 -12 -1
-84 -7 -161 -14z"/>
</g>
</g>
</svg>