<?xml version="1.0" standalone="no"?>
<!DOCTYPE svg PUBLIC "-//W3C//DTD SVG 20010904//EN"
 "http://www.w3.org/TR/2001/REC-SVG-20010904/DTD/svg10.dtd">
<svg version="1.0" xmlns="http://www.w3.org/2000/svg"
 width="96.000000pt" height="68.000000pt" viewBox="0 0 96.000000 68.000000"
 preserveAspectRatio="xMidYMid meet">
<metadata>
Created by potrace 1.16, written by Peter Selinger 2001-2019
Combined from part_0.svg through part_5.svg with named groups
</metadata>
<g transform="translate(0.000000,68.000000) scale(0.100000,-0.100000)" fill="#000000" stroke="none">
<g id="part-0" class="char-part">
  <path d="M408 635 c-3 -3 -3 -26 -1 -50 l5 -43 -81 -8 c-103 -8 -104 -28 -3
-32 40 -2 72 -6 72 -10 -1 -20 -21 -31 -68 -38 -59 -8 -66 -27 -11 -32 55 -5
65 -10 48 -27 -9 -9 -48 -17 -111 -21 -54 -4 -98 -10 -98 -14 0 -14 58 -19
112 -10 29 4 57 5 61 1 13 -13 -90 -107 -154 -141 -66 -35 -72 -49 -12 -30 80
26 150 78 208 154 24 32 33 37 61 33 28 -4 172 -95 213 -135 8 -8 25 -18 38
-23 25 -9 141 -1 148 11 2 4 -31 17 -73 29 -86 26 -196 73 -233 102 -24 19
-24 19 84 19 107 0 128 7 83 28 -18 8 -57 8 -145 0 -66 -7 -124 -9 -128 -5
-16 17 30 41 93 49 37 4 72 12 77 17 14 14 -48 24 -100 16 -42 -6 -44 -5 -34
13 8 15 28 22 82 30 39 6 74 13 77 17 16 15 -28 26 -86 20 -60 -5 -63 -5 -53
14 18 33 13 49 -20 60 -36 12 -43 13 -51 6z"/>
  <path d="M408 278 c-61 -11 -78 -28 -28 -28 25 0 30 -4 30 -24 0 -26 -28 -36
-99 -36 -20 0 -43 -4 -50 -9 -24 -15 28 -24 77 -13 27 6 44 6 48 0 10 -16 -70
-83 -114 -96 -54 -16 -55 -33 -1 -21 70 16 123 52 160 109 15 23 23 25 98 27
44 1 81 5 81 10 0 4 -33 9 -74 11 -70 3 -73 4 -73 27 0 19 6 24 33 30 19 3 34
10 34 15 0 12 -45 11 -122 -2z"/>
  <path d="M480 141 c0 -10 125 -111 138 -111 13 0 20 20 14 42 -6 23 -152 90
-152 69z"/>
</g>
<g id="part-1" class="char-part">
  <path d="M410 586 c0 -50 -10 -56 -92 -56 -26 0 -50 -4 -53 -10 -4 -6 20 -10
65 -10 l71 0 -3 -27 c-3 -26 -7 -28 -53 -31 -69 -4 -83 -22 -17 -22 29 0 52
-4 52 -10 0 -15 40 -12 46 4 4 10 30 17 80 21 115 11 109 32 -8 26 -38 -2 -48
0 -48 13 0 22 26 33 98 41 60 7 77 17 48 28 -8 3 -39 3 -70 0 -59 -6 -63 -4
-45 29 9 18 8 24 -7 35 -10 7 -28 13 -41 13 -21 0 -23 -5 -23 -44z"/>
</g>
<g id="part-2" class="char-part">
  <path d="M365 395 c-7 -10 -38 -17 -107 -21 -54 -4 -98 -11 -98 -15 0 -15 66
-21 121 -11 30 6 56 8 58 6 11 -11 -91 -100 -159 -140 -78 -46 -74 -57 8 -26
71 27 138 76 180 133 35 47 39 50 71 44 39 -7 56 -18 170 -103 l85 -64 60 7
c34 4 68 11 76 15 14 8 7 11 -115 42 -22 5 -78 31 -125 56 l-85 47 108 3 c59
1 107 7 107 11 0 21 -62 30 -133 21 -95 -12 -167 -12 -167 0 0 16 -44 12 -55
-5z"/>
</g>
<g id="part-3" class="char-part">
  <path d="M402 278 c-87 -14 -71 -33 21 -24 88 8 118 16 111 27 -6 11 -47 10
-132 -3z"/>
</g>
<g id="part-4" class="char-part">
  <path d="M410 226 c0 -28 -22 -36 -107 -37 -29 -1 -53 -5 -53 -10 0 -15 48
-21 94 -11 31 6 46 6 46 -1 0 -19 -76 -82 -120 -99 l-45 -17 34 0 c51 -1 118
35 154 84 37 51 48 55 147 55 57 1 71 3 57 11 -10 6 -49 9 -88 7 -65 -3 -69
-2 -67 17 2 15 -4 21 -24 23 -24 3 -28 0 -28 -22z"/>
  <path d="M480 144 c0 -14 125 -114 142 -114 15 0 8 47 -9 62 -20 17 -133 61
-133 52z"/>
</g>
</g>
</svg>