<?xml version="1.0" standalone="no"?>
<!DOCTYPE svg PUBLIC "-//W3C//DTD SVG 20010904//EN"
 "http://www.w3.org/TR/2001/REC-SVG-20010904/DTD/svg10.dtd">
<svg version="1.0" xmlns="http://www.w3.org/2000/svg"
 width="96.000000pt" height="68.000000pt" viewBox="0 0 96.000000 68.000000"
 preserveAspectRatio="xMidYMid meet">
<metadata>
Created by potrace 1.16, written by Peter Selinger 2001-2019
Combined from part_0.svg through part_5.svg with named groups
</metadata>
<g transform="translate(0.000000,68.000000) scale(0.100000,-0.100000)" fill="#000000" stroke="none">
<g id="part-0" class="char-part">
  <path d="M256 582 c-3 -5 -1 -24 4 -43 6 -19 10 -55 10 -80 0 -52 1 -51 -92
-64 -27 -4 -48 -11 -48 -15 0 -15 33 -20 82 -14 l50 7 -31 -50 c-17 -27 -54
-73 -83 -101 -39 -39 -48 -52 -34 -52 28 0 81 36 122 83 l37 42 -6 -40 c-18
-118 -19 -200 -3 -220 16 -20 16 -20 31 -1 11 15 15 49 15 144 0 121 1 124 18
109 25 -23 52 -22 52 2 0 13 -11 23 -35 31 -27 9 -35 17 -35 35 0 18 7 24 35
29 19 4 37 11 40 16 8 13 -40 31 -59 24 -12 -5 -14 2 -11 30 3 20 7 51 9 70 3
20 -1 39 -7 44 -19 15 -55 23 -61 14z"/>
  <path d="M728 555 c-3 -3 -27 -7 -54 -10 -34 -2 -48 -8 -45 -17 2 -7 4 -39 6
-71 1 -31 4 -59 6 -61 2 -3 32 -1 67 3 l62 7 -2 -155 -3 -156 -32 1 c-42 2
-41 -4 1 -38 75 -60 84 -33 88 260 2 245 3 242 -58 242 -17 0 -33 -2 -36 -5z
m36 -32 c9 -23 -2 -31 -51 -39 -41 -6 -43 -5 -43 19 0 20 6 27 28 30 53 8 60
7 66 -10z m6 -72 c0 -22 -19 -31 -66 -31 -27 0 -34 4 -34 19 0 20 17 27 73 30
20 1 27 -4 27 -18z"/>
  <path d="M507 524 c-3 -3 -30 -9 -59 -13 -40 -5 -52 -10 -48 -21 6 -19 6 -218
0 -329 -3 -57 -1 -85 6 -88 18 -6 23 19 30 162 l7 135 26 2 c14 1 37 2 51 3
26 1 39 25 53 102 6 28 3 32 -25 42 -36 13 -33 13 -41 5z m13 -43 c0 -11 -9
-21 -22 -25 -41 -10 -58 -7 -58 12 0 26 9 32 47 32 26 0 33 -4 33 -19z m0 -60
c0 -18 -26 -31 -62 -31 -27 0 -23 38 5 42 51 8 57 7 57 -11z"/>
  <path d="M553 343 c-29 -2 -53 -6 -53 -9 0 -2 7 -21 15 -40 10 -25 20 -34 30
-31 18 8 28 -8 20 -32 -4 -14 -13 -17 -46 -14 -40 4 -40 4 -26 -19 8 -13 18
-36 21 -52 5 -22 10 -26 19 -17 6 6 34 11 63 11 58 0 84 7 84 23 0 6 8 19 17
29 15 17 15 20 1 35 -14 13 -23 14 -59 5 -24 -6 -45 -9 -47 -7 -8 8 24 45 40
45 18 0 51 56 42 71 -5 9 -16 9 -121 2z m73 -24 c9 -16 -7 -27 -46 -31 -26 -2
-35 1 -38 14 -3 16 5 19 65 27 6 0 15 -4 19 -10z m34 -123 c0 -25 -28 -37 -77
-34 -35 2 -49 7 -51 20 -3 17 17 24 91 27 25 1 37 -3 37 -13z"/>
</g>
<g id="part-1" class="char-part">
  <path d="M260 573 c0 -5 4 -36 9 -70 14 -93 10 -100 -60 -108 -79 -9 -85 -25
-10 -25 34 0 61 -3 61 -6 0 -13 -66 -103 -109 -146 -25 -27 -42 -48 -38 -48
22 0 70 35 112 82 l48 53 -6 -85 c-4 -47 -9 -101 -12 -120 -4 -23 -1 -42 8
-54 25 -34 37 -9 37 78 0 46 3 104 6 130 l7 46 24 -16 c19 -12 28 -13 37 -4
13 14 -17 40 -47 40 -15 0 -18 6 -15 32 2 28 8 34 32 38 39 7 35 25 -5 25
l-31 0 7 72 c6 65 5 72 -14 82 -23 13 -41 14 -41 4z"/>
</g>
<g id="part-2" class="char-part">
  <path d="M495 520 c-11 -5 -40 -9 -64 -9 -37 -1 -42 -3 -35 -18 4 -10 10 -42
12 -70 l4 -53 67 2 67 2 17 65 c10 36 14 68 10 72 -14 13 -57 18 -78 9z m25
-42 c0 -20 -6 -23 -40 -26 -34 -2 -40 0 -40 17 0 22 13 29 53 30 22 1 27 -3
27 -21z m0 -57 c0 -18 -25 -31 -62 -31 -27 0 -23 38 5 43 47 9 57 7 57 -12z"/>
</g>
<g id="part-3" class="char-part">
  <path d="M768 253 l-3 -158 -40 1 -40 2 40 -34 c22 -19 48 -34 57 -34 29 0 39
63 36 225 -3 146 -4 150 -25 153 -22 3 -23 2 -25 -155z"/>
</g>
<g id="part-4" class="char-part">
  <path d="M605 224 c-33 -7 -76 -11 -95 -7 -29 5 -33 4 -24 -8 6 -8 17 -31 23
-51 11 -35 31 -52 31 -28 0 6 24 10 53 10 66 0 97 9 91 24 -3 7 2 19 11 26 16
14 21 40 6 40 -5 0 -15 2 -23 4 -7 2 -40 -3 -73 -10z m55 -28 c0 -22 -22 -34
-72 -37 -46 -4 -58 3 -58 31 0 9 34 16 93 19 25 1 37 -3 37 -13z"/>
</g>
</g>
</svg>