<?xml version="1.0" standalone="no"?>
<!DOCTYPE svg PUBLIC "-//W3C//DTD SVG 20010904//EN"
 "http://www.w3.org/TR/2001/REC-SVG-20010904/DTD/svg10.dtd">
<svg version="1.0" xmlns="http://www.w3.org/2000/svg"
 width="96.000000pt" height="68.000000pt" viewBox="0 0 96.000000 68.000000"
 preserveAspectRatio="xMidYMid meet">
<metadata>
Created by potrace 1.16, written by Peter Selinger 2001-2019
Combined from part_0.svg through part_5.svg with named groups
</metadata>
<g transform="translate(0.000000,68.000000) scale(0.100000,-0.100000)" fill="#000000" stroke="none">
<g id="part-0" class="char-part">
  <path d="M425 598 c6 -31 4 -36 -17 -41 -12 -4 -40 -7 -60 -7 -42 0 -68 -8
-68 -21 0 -5 34 -9 75 -9 60 0 75 -3 75 -15 0 -11 -12 -15 -49 -15 -51 0 -76
-15 -45 -27 19 -7 262 12 272 21 13 14 -14 21 -69 19 -43 -1 -59 2 -59 12 0 8
16 16 40 19 22 3 58 9 80 12 22 3 40 9 40 14 0 15 -31 20 -90 13 -60 -6 -60
-6 -60 21 0 14 -6 26 -12 26 -7 0 -23 3 -36 6 -22 6 -23 5 -17 -28z"/>
  <path d="M385 436 l-170 -11 22 -46 22 -45 73 7 c40 5 136 9 213 11 l140 2 27
31 c63 70 38 74 -327 51z m125 -36 c0 -28 -2 -30 -40 -30 -22 0 -43 0 -47 0
-4 0 -8 11 -10 24 -3 23 0 25 39 29 24 2 46 4 51 5 4 1 7 -11 7 -28z m160 18
c-1 -30 -19 -40 -74 -41 -59 -2 -64 1 -44 33 10 16 24 20 65 20 36 0 53 -4 53
-12z m-286 -24 c12 -30 6 -34 -53 -34 -45 0 -60 4 -65 16 -10 26 3 34 59 34
39 0 54 -4 59 -16z"/>
  <path d="M460 314 c-52 -8 -106 -13 -120 -11 l-25 3 2 -85 c3 -103 6 -114 34
-106 39 13 17 -28 -33 -60 -25 -16 -55 -35 -65 -42 -15 -10 -12 -10 15 -3 39
10 129 53 157 74 20 14 20 15 -4 24 -19 7 -5 10 63 16 56 4 93 3 101 -4 7 -6
20 -8 29 -4 13 5 16 21 16 78 0 39 3 80 6 92 4 15 -1 23 -21 32 -31 14 -32 14
-155 -4z m113 -28 c8 -19 -7 -23 -118 -31 -107 -8 -100 -9 -100 13 0 14 12 18
65 23 123 11 148 10 153 -5z m7 -55 c0 -16 -11 -19 -87 -25 -49 -4 -100 -9
-115 -12 -21 -4 -28 -2 -28 11 0 20 8 23 105 34 124 13 125 13 125 -8z m-2
-76 c-2 -1 -54 -6 -115 -10 -109 -6 -113 -6 -113 13 0 18 9 21 98 27 53 3 104
7 112 8 13 2 28 -29 18 -38z"/>
  <path d="M520 103 c1 -5 25 -28 55 -52 61 -48 92 -58 87 -27 -5 28 -24 43 -83
66 -62 23 -59 22 -59 13z"/>
</g>
<g id="part-1" class="char-part">
  <path d="M430 587 l0 -35 -70 -7 c-89 -9 -82 -28 8 -23 56 2 67 0 70 -14 2
-13 -8 -18 -53 -23 -37 -5 -53 -11 -47 -17 7 -7 51 -6 132 2 129 14 176 33 69
29 -35 -2 -63 0 -61 4 1 4 2 14 2 22 0 10 10 15 29 15 53 0 121 13 121 23 0 6
-26 8 -69 4 l-70 -6 -3 27 c-2 21 -9 28 -30 30 -26 3 -28 1 -28 -31z"/>
</g>
<g id="part-2" class="char-part">
  <path d="M590 449 c-41 -4 -143 -10 -226 -14 l-151 -8 19 -38 c10 -21 18 -43
18 -49 0 -6 10 -8 22 -5 35 8 349 23 383 19 25 -4 35 2 63 35 29 36 31 41 15
49 -31 16 -66 19 -143 11z m80 -31 c-1 -32 -19 -37 -168 -47 -221 -16 -229
-15 -235 11 -4 12 -5 23 -4 24 1 1 52 5 112 9 61 4 112 9 114 11 2 2 44 4 93
4 64 0 88 -3 88 -12z"/>
</g>
<g id="part-3" class="char-part">
  <path d="M510 395 c0 -29 8 -32 26 -7 19 24 17 32 -6 32 -15 0 -20 -7 -20 -25z"/>
</g>
<g id="part-4" class="char-part">
  <path d="M370 107 c0 -17 -46 -54 -105 -85 -48 -26 -42 -27 22 -6 65 22 156
75 146 85 -4 4 -20 11 -35 14 -21 5 -28 4 -28 -8z"/>
  <path d="M520 103 c1 -10 100 -90 122 -98 9 -4 18 0 22 10 8 21 -32 58 -81 74
-21 7 -44 15 -50 17 -7 3 -13 2 -13 -3z"/>
</g>
</g>
</svg>