<?xml version="1.0" standalone="no"?>
<!DOCTYPE svg PUBLIC "-//W3C//DTD SVG 20010904//EN"
 "http://www.w3.org/TR/2001/REC-SVG-20010904/DTD/svg10.dtd">
<svg version="1.0" xmlns="http://www.w3.org/2000/svg"
 width="96.000000pt" height="68.000000pt" viewBox="0 0 96.000000 68.000000"
 preserveAspectRatio="xMidYMid meet">
<metadata>
Created by potrace 1.16, written by Peter Selinger 2001-2019
Combined from part_0.svg through part_5.svg with named groups
</metadata>
<g transform="translate(0.000000,68.000000) scale(0.100000,-0.100000)" fill="#000000" stroke="none">
<g id="part-0" class="char-part">
  <path d="M400 562 c0 -6 11 -24 25 -40 l25 -30 -31 -6 c-18 -3 -63 -6 -101 -6
-52 0 -70 4 -74 15 -4 8 -9 15 -13 15 -13 0 -63 -121 -57 -137 10 -26 48 -10
68 29 18 34 22 36 81 43 79 8 116 13 202 25 39 5 90 10 114 10 l45 0 -29 -30
c-16 -16 -26 -32 -24 -35 8 -7 140 22 152 34 14 14 -5 35 -47 55 -28 13 -46
14 -126 4 -70 -8 -95 -8 -98 1 -9 28 -40 52 -74 58 -24 3 -38 2 -38 -5z"/>
  <path d="M485 399 c-16 -6 -63 -11 -102 -11 -68 -1 -72 -2 -67 -22 2 -12 8
-74 12 -140 5 -85 4 -120 -4 -123 -6 -2 -49 -7 -95 -11 -76 -7 -82 -9 -61 -20
19 -11 49 -11 150 -3 69 6 206 14 304 18 98 3 178 9 178 14 0 14 -32 19 -119
19 l-87 0 4 63 c2 34 7 91 12 127 8 59 6 67 -12 83 -22 18 -66 21 -113 6z m55
-56 c0 -33 -3 -38 -22 -38 -13 -1 -51 -4 -85 -8 l-63 -8 0 35 c0 32 3 36 33
40 137 23 137 23 137 -21z m0 -95 c0 -27 -4 -33 -22 -33 -13 -1 -51 -4 -85 -8
l-63 -8 0 35 c0 34 1 35 48 39 126 10 122 10 122 -25z m0 -93 l0 -45 -85 0
-85 0 0 34 c0 34 0 35 53 40 81 9 112 13 115 15 1 0 2 -19 2 -44z"/>
</g>
<g id="part-1" class="char-part">
  <path d="M400 563 c0 -5 14 -25 31 -46 l30 -37 -54 0 c-30 0 -74 -3 -99 -6
-34 -5 -48 -2 -62 11 -9 10 -18 16 -20 14 -15 -17 -46 -93 -46 -114 0 -41 31
-28 55 22 19 39 23 42 60 43 22 0 94 7 160 15 180 22 214 24 220 15 2 -4 -5
-20 -17 -35 l-22 -28 34 7 c19 3 52 9 73 13 44 7 47 23 10 53 -26 21 -35 22
-121 15 -52 -3 -100 -9 -108 -12 -8 -3 -17 4 -23 19 -5 13 -15 29 -22 35 -18
14 -79 27 -79 16z"/>
</g>
<g id="part-2" class="char-part">
  <path d="M451 395 c-35 -7 -82 -10 -104 -7 -36 4 -40 3 -33 -13 3 -10 9 -65
12 -124 7 -131 10 -151 29 -151 11 0 15 11 15 39 l0 38 61 7 c107 11 107 11
111 -32 2 -31 6 -36 23 -34 29 6 31 13 39 125 3 56 9 111 12 123 4 15 -1 23
-21 32 -31 14 -59 14 -144 -3z m89 -49 c0 -38 8 -34 -122 -52 l-48 -6 0 35 c0
33 3 37 33 41 136 22 137 22 137 -18z m0 -95 c0 -28 -2 -29 -75 -40 -100 -15
-95 -16 -95 23 0 38 5 40 123 44 46 2 47 1 47 -27z"/>
</g>
<g id="part-3" class="char-part">
  <path d="M440 110 c-149 -10 -284 -21 -288 -25 -2 -2 6 -9 18 -15 16 -8 53 -9
148 0 70 6 207 13 305 17 165 6 201 12 161 27 -19 7 -190 5 -344 -4z"/>
</g>
</g>
</svg>