<?xml version="1.0" standalone="no"?>
<!DOCTYPE svg PUBLIC "-//W3C//DTD SVG 20010904//EN"
 "http://www.w3.org/TR/2001/REC-SVG-20010904/DTD/svg10.dtd">
<svg version="1.0" xmlns="http://www.w3.org/2000/svg"
 width="96.000000pt" height="68.000000pt" viewBox="0 0 96.000000 68.000000"
 preserveAspectRatio="xMidYMid meet">
<metadata>
Created by potrace 1.16, written by Peter Selinger 2001-2019
Combined from part_0.svg through part_5.svg with named groups
</metadata>
<g transform="translate(0.000000,68.000000) scale(0.100000,-0.100000)" fill="#000000" stroke="none">
<g id="part-0" class="char-part">
  <path d="M545 599 c-90 -13 -89 -18 5 -16 l85 1 3 -34 c2 -18 1 -49 -3 -67 -5
-28 -10 -33 -33 -33 l-27 0 28 -27 c25 -26 28 -26 44 -11 9 10 21 49 28 93 17
109 10 114 -130 94z"/>
  <path d="M315 589 c-83 -15 -95 -19 -95 -31 0 -10 81 -6 138 9 23 5 23 4 20
-63 -3 -63 -5 -69 -25 -72 -28 -4 -28 -6 -6 -32 22 -25 47 -26 64 0 14 20 14
19 36 -5 l21 -25 -39 -1 c-21 -1 -43 -3 -49 -4 -5 -1 -30 -3 -55 -4 -52 -1
-62 -21 -11 -21 27 0 34 -4 31 -17 -2 -10 -4 -21 -4 -25 -1 -3 -20 -20 -43
-37 -47 -35 -32 -42 21 -10 30 18 35 19 50 5 19 -18 51 -21 51 -6 0 5 -12 16
-27 24 -24 12 -26 15 -10 21 24 10 21 24 -5 34 -20 7 -17 10 22 14 25 4 71 8
103 10 67 4 72 -6 31 -60 -27 -36 -15 -45 25 -17 13 10 26 13 30 7 8 -12 53
-43 63 -43 5 0 8 9 8 19 0 13 -9 21 -30 26 -35 8 -48 24 -29 35 10 7 10 11 0
24 -12 14 -8 16 30 16 34 0 40 3 31 12 -8 8 -40 12 -92 10 -65 -2 -80 0 -80
12 0 13 -39 43 -47 38 -2 -1 -8 -2 -14 -2 -10 0 -9 15 7 116 5 25 1 32 -21 42
-29 13 -30 13 -100 1z"/>
  <path d="M519 530 c29 -25 54 -26 49 -2 -2 12 -14 18 -38 20 l-35 2 24 -20z"/>
  <path d="M269 510 c27 -23 51 -26 51 -6 0 13 -30 26 -60 26 -10 -1 -8 -7 9
-20z"/>
  <path d="M567 494 c-3 -4 -30 -14 -59 -24 -50 -17 -52 -18 -25 -25 21 -5 36
-1 62 16 19 13 35 27 35 32 0 9 -5 9 -13 1z"/>
  <path d="M267 456 c-54 -17 -65 -24 -55 -34 18 -18 33 -15 88 19 75 46 70 48
-33 15z"/>
  <path d="M444 226 c7 -30 -6 -33 -177 -42 -70 -4 -130 -11 -133 -15 -10 -16
71 -21 155 -10 47 7 102 13 121 14 l35 2 3 -83 c2 -59 6 -82 15 -79 16 5 25
42 26 110 l1 57 155 0 c129 0 155 2 155 15 0 23 -64 29 -182 16 -108 -12 -134
-9 -122 11 8 12 -14 28 -40 28 -14 0 -17 -5 -12 -24z"/>
</g>
<g id="part-1" class="char-part">
  <path d="M275 576 c-81 -16 -56 -28 29 -14 85 14 90 9 81 -71 -7 -57 -9 -61
-33 -61 l-27 0 28 -27 28 -28 18 22 c23 28 38 173 19 185 -17 10 -69 8 -143
-6z"/>
</g>
<g id="part-2" class="char-part">
  <path d="M522 478 c-60 -19 -74 -38 -29 -38 20 0 97 44 97 55 0 3 -1 5 -2 4
-2 -1 -31 -10 -66 -21z"/>
</g>
<g id="part-3" class="char-part">
  <path d="M432 411 c2 -8 14 -21 26 -27 21 -10 11 -13 -70 -19 -51 -4 -102 -11
-113 -16 -29 -11 94 -9 260 5 116 10 136 14 119 23 -14 8 -45 10 -91 6 -64 -5
-70 -4 -75 14 -7 25 -61 39 -56 14z"/>
</g>
<g id="part-4" class="char-part">
  <path d="M350 325 c0 -8 -19 -32 -42 -55 -46 -44 -42 -51 10 -20 33 20 33 20
61 1 27 -19 41 -19 41 1 0 5 -11 14 -25 20 -23 10 -24 13 -9 29 14 16 14 18
-5 28 -26 14 -31 14 -31 -4z"/>
</g>
<g id="part-5" class="char-part">
  <path d="M446 243 c-3 -3 -1 -14 4 -24 7 -12 6 -20 -1 -25 -9 -5 -6 -11 6 -21
11 -7 14 -13 8 -13 -6 0 -10 -27 -10 -70 1 -38 5 -70 9 -70 12 0 21 46 16 80
-3 17 0 30 6 30 6 0 4 5 -4 10 -12 7 -12 10 -1 10 7 0 11 6 8 14 -3 7 -1 18 5
24 6 6 6 12 -1 16 -5 4 -8 13 -5 20 5 13 -30 29 -40 19z"/>
  <path d="M700 211 c0 -4 -21 -7 -47 -7 -79 0 -133 -7 -133 -17 0 -5 12 -6 27
-2 16 4 72 6 125 6 54 -1 100 3 103 9 7 11 5 12 -42 16 -18 1 -33 -1 -33 -5z"/>
  <path d="M165 170 c-29 -6 -29 -6 -7 -14 24 -8 113 1 147 15 23 9 -92 8 -140
-1z"/>
</g>
</g>
</svg>