<?xml version="1.0" standalone="no"?>
<!DOCTYPE svg PUBLIC "-//W3C//DTD SVG 20010904//EN"
 "http://www.w3.org/TR/2001/REC-SVG-20010904/DTD/svg10.dtd">
<svg version="1.0" xmlns="http://www.w3.org/2000/svg"
 width="96.000000pt" height="68.000000pt" viewBox="0 0 96.000000 68.000000"
 preserveAspectRatio="xMidYMid meet">
<metadata>
Created by potrace 1.16, written by Peter Selinger 2001-2019
Combined from part_0.svg through part_5.svg with named groups
</metadata>
<g transform="translate(0.000000,68.000000) scale(0.100000,-0.100000)" fill="#000000" stroke="none">
<g id="part-0" class="char-part">
  <path d="M677 521 l6 -59 -41 -7 c-51 -8 -62 -2 -62 36 0 16 -3 29 -7 29 -5 0
-17 3 -28 6 -19 5 -20 1 -17 -34 4 -36 1 -40 -25 -47 l-28 -8 30 -6 30 -6 7
-100 c3 -55 4 -103 1 -107 -2 -5 -22 -8 -44 -8 -39 0 -53 -15 -24 -26 8 -4 66
1 128 10 61 9 146 16 187 16 68 1 73 2 56 15 -12 9 -41 15 -70 15 l-51 0 3
100 3 99 35 7 c44 8 44 24 -1 24 -29 0 -35 4 -35 21 0 11 5 29 11 40 8 17 7
23 -8 35 -10 7 -28 14 -40 14 -20 0 -21 -4 -16 -59z m10 -117 c-2 -25 -6 -27
-55 -31 l-52 -4 0 30 c0 31 0 31 54 31 53 0 55 -1 53 -26z m3 -73 c0 -14 -10
-20 -46 -25 -53 -7 -64 -3 -64 25 0 16 7 19 55 19 47 0 55 -3 55 -19z m-2 -72
c3 -23 -1 -27 -35 -32 -67 -12 -73 -10 -73 22 0 32 16 40 75 37 24 -1 31 -6
33 -27z"/>
  <path d="M286 548 c4 -7 14 -21 22 -31 8 -9 13 -19 10 -22 -3 -3 -45 -10 -94
-16 -48 -5 -90 -12 -92 -14 -3 -3 1 -11 8 -20 10 -11 11 -40 7 -108 -7 -101
-24 -167 -61 -233 -31 -55 -11 -60 32 -8 28 33 72 144 72 180 0 26 23 10 32
-22 5 -16 6 -59 3 -96 -5 -50 -3 -68 6 -68 13 0 99 48 99 55 0 2 -16 1 -35 -2
-34 -5 -35 -5 -35 26 0 30 2 31 40 31 30 0 40 4 40 16 0 11 -5 14 -16 10 -56
-22 -62 -20 -66 23 -4 41 -3 41 32 42 19 0 42 2 51 4 21 4 28 -35 22 -127 -2
-38 0 -69 6 -73 9 -5 91 41 91 52 0 3 -13 2 -30 -2 -30 -6 -30 -6 -30 34 0 38
2 41 28 42 15 0 36 5 47 10 15 7 8 8 -27 5 -45 -3 -48 -2 -48 20 0 13 -8 28
-17 33 -19 11 -17 12 41 15 23 1 31 8 43 39 21 51 12 70 -31 65 -31 -3 -35 -1
-38 24 -5 29 -5 29 54 33 9 0 20 4 25 8 13 13 -20 27 -64 27 -35 0 -43 3 -43
18 0 20 -38 42 -71 42 -13 0 -18 -4 -13 -12z m70 -112 c8 -32 -2 -46 -30 -46
-20 0 -25 6 -28 35 -4 33 -2 35 24 35 21 0 29 -6 34 -24z m-98 -23 c3 -30 1
-33 -22 -33 -23 0 -26 4 -26 36 0 31 3 35 23 32 17 -2 23 -11 25 -35z m176
-50 c-8 -34 -10 -36 -34 -40 -16 -2 -20 3 -20 26 0 29 10 39 43 40 14 1 16 -4
11 -26z m-86 -38 c-2 -1 -13 -6 -25 -9 -20 -7 -23 -4 -23 23 0 23 5 30 23 33
17 2 23 -3 25 -20 2 -13 2 -25 0 -27z m-83 11 c0 -26 -4 -30 -32 -33 -32 -4
-33 -3 -33 32 0 35 1 36 33 33 28 -3 32 -7 32 -32z"/>
  <path d="M540 150 c0 -6 -20 -30 -45 -53 -75 -71 -53 -71 53 1 28 19 52 39 52
42 0 4 -10 10 -22 14 -32 8 -38 7 -38 -4z"/>
  <path d="M690 156 c0 -2 24 -29 53 -60 53 -57 53 -57 72 -36 18 19 18 21 -1
41 -27 30 -124 73 -124 55z"/>
</g>
<g id="part-1" class="char-part">
  <path d="M290 554 c0 -3 9 -18 20 -32 27 -34 17 -39 -88 -48 -78 -7 -96 -14
-71 -30 8 -4 9 -32 5 -88 -9 -101 -30 -185 -63 -250 -21 -42 -23 -48 -7 -36
10 8 27 24 36 35 33 38 78 208 78 296 0 21 5 41 10 44 6 4 67 12 135 18 69 6
125 15 125 19 0 12 -47 21 -75 14 -20 -5 -25 -3 -25 14 0 12 -12 26 -30 35
-30 16 -50 19 -50 9z"/>
</g>
<g id="part-2" class="char-part">
  <path d="M365 247 c4 -29 2 -70 -3 -92 -9 -42 -6 -65 8 -65 12 0 111 62 106
67 -2 2 -15 -1 -30 -7 -42 -16 -46 -13 -46 30 0 38 1 40 33 40 17 0 39 4 47
10 23 15 -11 23 -44 10 -37 -14 -36 -14 -36 19 0 21 -6 30 -21 34 -19 5 -20 2
-14 -46z"/>
</g>
<g id="part-3" class="char-part">
  <path d="M665 571 c-3 -5 -1 -12 5 -16 5 -3 10 -26 10 -49 0 -42 -1 -44 -37
-50 -61 -10 -63 -8 -63 28 0 33 -13 46 -45 46 -9 0 -12 -11 -8 -39 5 -35 3
-39 -23 -46 l-29 -8 30 -6 c30 -6 30 -6 39 -98 5 -50 6 -99 3 -107 -5 -12 -20
-16 -54 -16 -44 0 -46 -1 -30 -17 15 -15 24 -15 94 -4 43 7 129 15 192 18 99
5 111 8 96 20 -11 7 -40 13 -67 13 l-48 0 0 99 0 99 35 6 c19 4 35 11 35 15 0
13 -26 20 -51 14 -23 -6 -23 1 -3 69 8 26 -66 52 -81 29z m23 -240 l0 -99 -36
-6 c-76 -12 -72 -17 -72 98 l0 105 48 3 c26 2 50 2 54 0 3 -1 6 -47 6 -101z"/>
</g>
<g id="part-4" class="char-part">
  <path d="M613 373 c-49 -6 -40 -23 11 -23 46 0 68 13 40 24 -9 3 -16 5 -17 4
-1 0 -17 -3 -34 -5z"/>
</g>
<g id="part-5" class="char-part">
  <path d="M700 153 c0 -3 16 -19 35 -36 19 -16 32 -34 28 -41 -3 -6 -2 -8 2 -3
5 4 16 0 25 -8 16 -14 18 -14 24 1 9 24 -35 63 -96 87 -10 3 -18 4 -18 0z"/>
  <path d="M540 139 c0 -6 -19 -29 -42 -51 l-43 -39 40 21 c22 12 42 26 45 30 3
4 15 12 28 19 12 7 20 16 17 22 -9 13 -45 11 -45 -2z"/>
</g>
</g>
</svg>