<?xml version="1.0" standalone="no"?>
<!DOCTYPE svg PUBLIC "-//W3C//DTD SVG 20010904//EN"
 "http://www.w3.org/TR/2001/REC-SVG-20010904/DTD/svg10.dtd">
<svg version="1.0" xmlns="http://www.w3.org/2000/svg"
 width="96.000000pt" height="68.000000pt" viewBox="0 0 96.000000 68.000000"
 preserveAspectRatio="xMidYMid meet">
<metadata>
Created by potrace 1.16, written by Peter Selinger 2001-2019
Combined from part_0.svg through part_5.svg with named groups
</metadata>
<g transform="translate(0.000000,68.000000) scale(0.100000,-0.100000)" fill="#000000" stroke="none">
<g id="part-0" class="char-part">
  <path d="M590 559 c-19 -4 -68 -10 -107 -11 -40 -2 -73 -4 -73 -4 0 -1 7 -15
15 -30 8 -16 15 -37 15 -46 0 -24 11 -48 21 -48 5 0 6 24 3 53 l-6 54 82 6
c45 4 86 5 90 2 6 -4 1 -48 -11 -94 -2 -8 3 -16 12 -18 10 -3 23 14 40 54 13
32 25 60 27 64 3 6 -54 30 -67 28 -3 -1 -22 -5 -41 -10z"/>
  <path d="M250 545 c0 -28 -37 -89 -79 -130 -42 -40 -47 -50 -32 -74 7 -11 15
-11 45 -1 21 7 40 9 44 6 3 -4 -16 -27 -43 -51 -39 -36 -47 -47 -37 -57 10
-10 22 -9 60 5 101 39 113 41 133 29 27 -17 38 12 14 38 -22 24 -43 26 -41 4
1 -11 -13 -21 -39 -31 -72 -25 -70 -10 9 67 75 74 91 102 60 114 -22 8 -20 9
-34 -24 -7 -16 -17 -30 -22 -30 -5 0 -7 -4 -4 -9 5 -8 -38 -21 -71 -21 -9 0
11 29 47 69 l61 70 -20 20 c-25 25 -51 27 -51 6z"/>
  <path d="M530 494 c-45 -12 -45 -12 -10 -12 39 -1 79 12 64 20 -5 3 -29 -1
-54 -8z"/>
  <path d="M510 440 c-11 -7 -6 -10 20 -10 19 0 42 5 50 10 11 7 6 10 -20 10
-19 0 -42 -5 -50 -10z"/>
  <path d="M610 400 c-19 -5 -81 -12 -137 -16 -100 -7 -102 -7 -89 -28 8 -11 17
-34 20 -49 6 -26 10 -27 44 -23 59 8 205 10 227 3 16 -6 25 2 48 38 15 25 27
50 27 55 0 27 -69 37 -140 20z m76 -36 c-3 -9 -6 -22 -6 -30 0 -10 -13 -14
-44 -14 l-44 0 11 30 c10 26 16 30 50 30 32 0 38 -3 33 -16z m-195 -20 c11
-30 11 -29 -16 -38 -25 -7 -42 3 -45 29 -4 32 -1 35 25 35 18 0 28 -7 36 -26z
m79 -5 c0 -26 -3 -30 -22 -27 -14 2 -24 13 -29 31 -7 25 -5 27 22 27 26 0 29
-3 29 -31z"/>
  <path d="M635 264 c-5 -1 -56 -8 -112 -14 -57 -7 -103 -16 -103 -21 0 -5 6 -9
14 -9 8 0 38 -22 67 -48 l53 -48 -54 -27 c-30 -15 -63 -27 -74 -27 -12 0 -28
-5 -36 -11 -29 -20 83 0 132 24 l46 23 44 -33 c37 -28 51 -32 98 -32 67 2 122
13 100 22 -8 3 -40 11 -70 18 -71 15 -130 39 -130 51 0 10 34 57 67 90 9 10
15 20 12 22 -12 10 -45 23 -54 20z m-30 -66 c-21 -52 -37 -56 -84 -18 -22 18
-41 37 -41 42 0 4 31 8 70 8 l69 0 -14 -32z"/>
  <path d="M310 231 c0 -5 9 -19 19 -32 20 -25 38 -21 28 5 -7 17 -47 41 -47 27z"/>
  <path d="M226 198 c13 -23 37 -48 46 -48 16 0 7 29 -14 44 -27 19 -42 21 -32
4z"/>
  <path d="M130 180 c0 -24 35 -69 53 -70 12 0 8 47 -5 57 -21 16 -48 23 -48 13z"/>
</g>
<g id="part-1" class="char-part">
  <path d="M240 503 c-12 -27 -41 -68 -65 -93 -58 -59 -50 -78 24 -60 59 14 76
30 32 30 -38 0 -39 9 -5 41 76 71 100 129 53 129 -12 0 -25 -16 -39 -47z"/>
</g>
<g id="part-2" class="char-part">
  <path d="M317 210 c17 -30 37 -38 48 -20 7 12 -30 50 -51 50 -13 0 -13 -4 3
-30z"/>
  <path d="M220 203 c1 -13 38 -53 49 -53 19 0 12 39 -8 50 -23 12 -41 13 -41 3z"/>
  <path d="M141 150 c25 -45 49 -52 49 -16 0 25 -32 56 -58 56 -10 0 -7 -11 9
-40z"/>
</g>
<g id="part-3" class="char-part">
  <path d="M580 559 c-19 -5 -65 -10 -102 -11 -41 -2 -66 -7 -64 -13 3 -5 12
-34 21 -62 9 -29 21 -53 26 -53 11 0 11 14 0 63 -5 20 -6 39 -2 41 3 2 44 7
90 11 l83 7 -4 -44 c-3 -24 -6 -49 -9 -57 -2 -8 3 -16 11 -18 11 -3 24 16 43
56 15 32 27 61 27 64 0 6 -59 27 -74 26 -6 -1 -27 -5 -46 -10z"/>
  <path d="M505 490 c-16 -7 -13 -9 15 -9 19 0 44 4 55 9 16 7 13 9 -15 9 -19 0
-44 -4 -55 -9z"/>
  <path d="M510 440 c-11 -7 -6 -10 20 -10 19 0 42 5 50 10 11 7 6 10 -20 10
-19 0 -42 -5 -50 -10z"/>
</g>
<g id="part-4" class="char-part">
  <path d="M620 399 c-19 -4 -83 -11 -141 -15 l-106 -7 13 -26 c8 -14 19 -39 24
-55 8 -21 14 -26 23 -18 7 6 71 12 142 14 l130 4 22 40 c28 49 28 48 -2 62
-29 14 -54 14 -105 1z m65 -46 c-4 -16 -8 -29 -9 -30 -1 -1 -57 -5 -124 -9
-107 -6 -122 -5 -122 9 0 8 -3 22 -6 31 -6 16 20 19 200 24 l68 2 -7 -27z"/>
</g>
<g id="part-5" class="char-part">
  <path d="M580 250 c-12 -8 -9 -10 13 -10 31 0 36 -22 12 -54 -8 -10 -12 -22
-10 -26 3 -4 -4 -10 -15 -13 -23 -6 -113 60 -106 78 3 8 -7 12 -25 13 -27 1
-24 -4 40 -51 45 -34 66 -56 60 -63 -11 -14 -1 -24 17 -17 7 3 20 -2 28 -10
32 -31 83 -56 115 -55 33 1 33 1 10 15 l-24 13 28 -5 c15 -3 39 -8 54 -11 16
-3 25 -3 21 1 -3 3 -35 13 -69 21 -89 20 -129 42 -127 71 2 13 8 23 15 23 7 0
18 10 24 23 7 12 19 28 28 34 14 11 14 14 1 22 -9 7 -19 6 -27 -1 -9 -7 -13
-7 -13 1 0 13 -30 14 -50 1z"/>
  <path d="M545 240 c-3 -5 -1 -10 4 -10 6 0 11 5 11 10 0 6 -2 10 -4 10 -3 0
-8 -4 -11 -10z"/>
  <path d="M498 233 c7 -3 16 -2 19 1 4 3 -2 6 -13 5 -11 0 -14 -3 -6 -6z"/>
  <path d="M515 90 c-3 -6 1 -7 9 -4 18 7 21 14 7 14 -6 0 -13 -4 -16 -10z"/>
  <path d="M450 70 c-9 -6 -10 -10 -3 -10 6 0 15 5 18 10 8 12 4 12 -15 0z"/>
</g>
</g>
</svg>