<?xml version="1.0" standalone="no"?>
<!DOCTYPE svg PUBLIC "-//W3C//DTD SVG 20010904//EN"
 "http://www.w3.org/TR/2001/REC-SVG-20010904/DTD/svg10.dtd">
<svg version="1.0" xmlns="http://www.w3.org/2000/svg"
 width="96.000000pt" height="68.000000pt" viewBox="0 0 96.000000 68.000000"
 preserveAspectRatio="xMidYMid meet">
<metadata>
Created by potrace 1.16, written by Peter Selinger 2001-2019
Combined from part_0.svg through part_5.svg with named groups
</metadata>
<g transform="translate(0.000000,68.000000) scale(0.100000,-0.100000)" fill="#000000" stroke="none">
<g id="part-0" class="char-part">
  <path d="M470 571 c0 -14 62 -71 71 -65 12 7 11 41 -1 49 -20 12 -70 24 -70
16z"/>
  <path d="M555 495 c-49 -8 -119 -17 -155 -20 l-65 -7 1 -81 c2 -107 -33 -194
-109 -274 -45 -48 -27 -50 26 -3 58 52 103 141 124 249 12 59 22 85 35 92 10
6 87 15 171 21 83 6 154 13 157 15 2 2 -2 8 -10 13 -19 12 -62 11 -175 -5z"/>
  <path d="M646 438 c5 -13 8 -39 9 -58 0 -33 -2 -35 -35 -38 -50 -5 -63 -22
-17 -22 26 0 37 -4 37 -15 0 -18 -52 -107 -94 -160 l-31 -40 30 19 c35 23 41
29 79 79 15 21 30 37 32 34 2 -2 -1 -40 -6 -85 -12 -91 -2 -134 26 -111 10 9
14 39 14 123 l1 111 37 -75 c35 -72 39 -75 75 -78 20 -2 37 1 37 7 0 5 -18 24
-41 41 -37 30 -99 121 -99 147 0 6 18 14 40 18 52 9 52 27 0 23 -22 -1 -42 0
-44 3 -3 2 -1 21 4 42 7 31 5 39 -10 47 -34 18 -52 13 -44 -12z"/>
  <path d="M205 434 c-19 -9 -46 -12 -72 -8 -47 6 -50 1 -29 -42 8 -16 17 -53
21 -81 5 -42 11 -53 25 -53 11 0 22 5 25 10 3 6 18 10 33 10 42 0 71 11 66 24
-5 12 9 85 21 118 4 9 -3 19 -20 26 -31 14 -32 14 -70 -4z m20 -71 c-7 -49
-17 -63 -47 -63 -15 0 -18 9 -18 49 0 43 3 50 23 54 50 10 50 10 42 -40z"/>
  <path d="M448 375 c4 -55 4 -55 -24 -56 -16 -1 -32 -1 -36 0 -5 0 -8 -3 -8 -9
0 -5 14 -10 30 -10 17 0 30 -2 30 -5 0 -20 -32 -71 -75 -119 -58 -65 -31 -61
36 6 l52 52 -7 -82 c-6 -71 -5 -83 9 -88 26 -10 29 1 27 96 -2 82 6 108 23 80
3 -5 15 -15 26 -20 16 -9 19 -7 19 9 0 12 -13 25 -35 35 -38 19 -38 46 0 46
13 0 27 5 30 10 4 6 -6 10 -24 10 -29 0 -30 2 -33 48 -2 39 -7 48 -24 50 -19
3 -20 -1 -16 -53z"/>
</g>
<g id="part-1" class="char-part">
  <path d="M200 429 c-14 -6 -43 -9 -65 -7 -23 1 -38 -2 -36 -7 2 -6 7 -19 11
-30 4 -11 10 -40 14 -65 8 -53 22 -81 34 -64 4 6 31 15 60 19 39 5 52 11 48
21 -3 7 2 36 10 65 9 28 13 57 10 65 -6 16 -49 17 -86 3z m28 -71 c-3 -48 -5
-52 -32 -59 -17 -5 -31 -7 -32 -6 -1 1 -5 25 -9 54 -7 55 -4 59 53 62 22 1 23
-2 20 -51z"/>
</g>
<g id="part-2" class="char-part">
  <path d="M470 571 c0 -13 56 -71 69 -71 6 0 11 11 11 25 0 17 -9 29 -30 40
-33 17 -50 19 -50 6z"/>
  <path d="M487 486 c-90 -12 -158 -25 -157 -31 2 -5 5 -16 8 -23 2 -7 2 -42 -1
-78 -6 -78 -47 -169 -108 -237 -22 -26 -36 -47 -30 -47 11 0 77 54 98 80 29
35 59 111 79 200 l21 95 52 12 c29 6 105 14 169 18 123 8 143 12 121 26 -20
12 -73 9 -252 -15z"/>
</g>
<g id="part-3" class="char-part">
  <path d="M448 375 c4 -52 3 -55 -19 -55 -13 0 -31 -5 -39 -10 -11 -7 -5 -10
24 -10 l39 0 -6 -113 c-5 -117 1 -153 24 -130 8 8 12 49 12 120 0 60 2 113 4
119 2 7 19 15 36 19 l32 7 -33 11 c-29 9 -33 14 -31 41 4 38 -6 56 -30 56 -15
0 -17 -7 -13 -55z"/>
</g>
<g id="part-4" class="char-part">
  <path d="M640 304 c0 -20 -45 -98 -87 -151 -19 -24 -31 -43 -28 -43 17 0 68
45 93 83 30 43 51 127 32 127 -5 0 -10 -7 -10 -16z"/>
  <path d="M690 304 c0 -32 66 -170 85 -178 24 -9 65 -7 65 3 0 5 -20 25 -45 46
-26 21 -58 61 -75 93 -19 38 -29 50 -30 36z"/>
</g>
</g>
</svg>