<?xml version="1.0" standalone="no"?>
<!DOCTYPE svg PUBLIC "-//W3C//DTD SVG 20010904//EN"
 "http://www.w3.org/TR/2001/REC-SVG-20010904/DTD/svg10.dtd">
<svg version="1.0" xmlns="http://www.w3.org/2000/svg"
 width="96.000000pt" height="68.000000pt" viewBox="0 0 96.000000 68.000000"
 preserveAspectRatio="xMidYMid meet">
<metadata>
Created by potrace 1.16, written by Peter Selinger 2001-2019
Combined from part_0.svg through part_5.svg with named groups
</metadata>
<g transform="translate(0.000000,68.000000) scale(0.100000,-0.100000)" fill="#000000" stroke="none">
<g id="part-0" class="char-part">
  <path d="M631 563 c-6 -16 -18 -38 -27 -50 -25 -34 -3 -28 49 14 41 33 44 38
29 50 -26 19 -39 16 -51 -14z"/>
  <path d="M430 549 c0 -20 44 -69 62 -69 21 0 25 33 6 47 -26 19 -68 33 -68 22z"/>
  <path d="M246 514 c-10 -38 -54 -105 -88 -135 -27 -22 -29 -28 -19 -47 14 -26
20 -27 57 -7 16 8 38 15 48 15 15 0 7 -12 -32 -51 -29 -28 -52 -55 -52 -59 0
-17 40 -21 62 -6 43 27 105 41 123 26 12 -10 16 -9 22 5 4 12 0 23 -12 31 -24
18 -46 18 -39 1 3 -9 -10 -17 -43 -24 -26 -6 -50 -10 -52 -8 -2 2 32 38 75 79
68 64 76 76 65 90 -20 24 -38 19 -47 -11 -4 -16 -7 -31 -6 -35 1 -4 -5 -5 -13
-2 -9 4 -29 1 -46 -6 -16 -7 -32 -10 -35 -7 -4 3 17 32 45 65 55 63 62 85 32
102 -30 15 -38 12 -45 -16z"/>
  <path d="M610 470 c-19 -5 -70 -12 -113 -16 -91 -8 -113 -24 -33 -24 52 0 56
-2 56 -24 0 -19 -7 -25 -42 -33 l-43 -11 48 -1 c44 -1 48 -3 45 -23 -3 -20
-12 -24 -68 -32 -59 -9 -62 -10 -38 -19 24 -9 48 -43 48 -67 0 -6 -22 -10 -50
-10 -27 0 -50 -4 -50 -9 0 -18 50 -20 161 -6 63 7 151 15 196 16 45 1 87 5 94
10 13 8 11 9 -33 23 -7 2 -40 0 -73 -5 -33 -4 -61 -6 -64 -3 -2 2 6 15 18 28
14 15 19 26 12 31 -19 11 -12 25 14 25 14 0 25 5 25 10 0 12 -49 12 -107 1
-40 -8 -43 -7 -43 14 0 23 30 35 86 35 12 0 26 5 30 12 5 8 -9 10 -53 6 -58
-6 -60 -5 -60 18 0 24 1 25 90 40 20 3 37 10 37 15 0 11 -42 10 -90 -1z m16
-202 c-3 -17 -8 -33 -10 -35 -2 -2 -28 -7 -58 -10 -48 -5 -56 -3 -60 13 -3 11
-9 27 -13 36 -7 17 12 22 109 26 38 2 38 2 32 -30z"/>
  <path d="M285 211 c-2 -5 6 -18 20 -31 27 -25 51 -19 35 9 -10 20 -47 34 -55
22z"/>
  <path d="M210 172 c0 -16 32 -52 46 -52 20 0 18 24 -4 43 -19 18 -42 23 -42 9z"/>
  <path d="M600 169 c-36 -4 -96 -9 -134 -10 -53 -2 -66 -5 -54 -13 9 -6 19 -27
23 -46 13 -61 20 -68 67 -64 176 15 178 15 178 33 0 10 9 26 20 36 11 10 20
24 20 31 0 12 -39 45 -50 43 -3 -1 -34 -5 -70 -10z m45 -56 c-4 -21 -8 -39 -9
-40 -1 -1 -37 -3 -81 -5 l-79 -3 -6 30 c-5 30 -5 30 60 41 36 6 78 12 94 13
27 1 28 0 21 -36z"/>
  <path d="M132 118 c28 -50 48 -60 48 -24 0 27 -34 66 -58 66 -10 0 -8 -11 10
-42z"/>
</g>
<g id="part-1" class="char-part">
  <path d="M241 491 c-6 -22 -32 -62 -57 -90 -44 -49 -53 -81 -22 -81 20 0 107
35 120 48 8 8 2 9 -26 1 -51 -14 -61 -8 -36 21 81 92 93 110 80 125 -23 27
-46 18 -59 -24z"/>
</g>
<g id="part-2" class="char-part">
  <path d="M280 212 c0 -12 44 -52 58 -52 16 0 15 25 0 38 -19 15 -58 25 -58 14z"/>
  <path d="M200 184 c0 -15 43 -64 56 -64 15 0 18 18 6 37 -8 13 -62 36 -62 27z"/>
  <path d="M110 155 c0 -17 53 -86 63 -82 18 6 9 50 -14 70 -20 16 -49 23 -49
12z"/>
</g>
<g id="part-3" class="char-part">
  <path d="M618 540 c-16 -28 -24 -50 -19 -50 4 0 29 16 55 36 44 33 46 37 29
50 -28 21 -36 17 -65 -36z"/>
  <path d="M430 549 c0 -22 42 -69 61 -69 32 0 23 38 -13 60 -38 23 -48 25 -48
9z"/>
  <path d="M610 470 c-19 -5 -70 -12 -113 -16 -112 -10 -113 -29 -1 -21 49 3 98
8 109 10 11 3 39 8 63 12 23 4 40 11 36 16 -6 11 -46 10 -94 -1z"/>
</g>
<g id="part-4" class="char-part">
  <path d="M538 433 c-11 -3 -18 -14 -18 -29 0 -20 -5 -24 -27 -24 -16 0 -35 -5
-43 -10 -11 -7 -2 -10 33 -10 43 0 47 -2 47 -25 0 -22 -4 -25 -37 -26 -21 -1
-51 -4 -68 -8 -28 -7 -28 -8 -9 -14 12 -4 81 2 154 13 73 11 137 20 142 20 5
0 6 5 2 11 -6 10 -97 5 -131 -8 -9 -3 -13 3 -13 20 0 19 6 26 31 31 17 3 42 6
55 6 12 0 26 5 30 12 5 8 -9 10 -54 5 -56 -5 -62 -3 -62 13 0 22 -9 28 -32 23z"/>
</g>
<g id="part-5" class="char-part">
  <path d="M595 159 c-17 -7 -15 -8 10 -7 42 3 55 -8 55 -45 0 -21 -3 -28 -9
-19 -6 10 -10 9 -14 -7 -3 -12 -1 -19 4 -15 5 3 9 0 9 -5 0 -6 5 -11 12 -11 6
0 8 3 5 7 -4 3 4 21 18 39 29 38 30 41 12 59 -15 15 -72 17 -102 4z"/>
  <path d="M495 149 c-4 -5 10 -9 29 -9 45 0 54 14 10 17 -18 1 -36 -3 -39 -8z"/>
  <path d="M435 126 c8 -13 13 -31 9 -40 -3 -9 -1 -16 4 -16 18 0 24 18 12 39
-8 16 -6 22 7 30 15 9 12 10 -15 11 -32 0 -32 0 -17 -24z"/>
  <path d="M467 63 c-14 -14 -6 -19 33 -21 22 -2 40 1 40 6 0 5 -12 7 -26 4 -14
-2 -29 0 -33 7 -4 6 -10 8 -14 4z"/>
  <path d="M598 53 c7 -3 16 -2 19 1 4 3 -2 6 -13 5 -11 0 -14 -3 -6 -6z"/>
</g>
</g>
</svg>