<?xml version="1.0" standalone="no"?>
<!DOCTYPE svg PUBLIC "-//W3C//DTD SVG 20010904//EN"
 "http://www.w3.org/TR/2001/REC-SVG-20010904/DTD/svg10.dtd">
<svg version="1.0" xmlns="http://www.w3.org/2000/svg"
 width="96.000000pt" height="68.000000pt" viewBox="0 0 96.000000 68.000000"
 preserveAspectRatio="xMidYMid meet">
<metadata>
Created by potrace 1.16, written by Peter Selinger 2001-2019
Combined from part_0.svg through part_5.svg with named groups
</metadata>
<g transform="translate(0.000000,68.000000) scale(0.100000,-0.100000)" fill="#000000" stroke="none">
<g id="part-0" class="char-part">
  <path d="M255 529 c-10 -21 -40 -59 -67 -84 -61 -56 -36 -63 38 -10 32 23 60
35 82 35 l33 0 -38 -50 -38 -49 -68 -1 c-65 0 -66 -1 -49 -18 10 -10 24 -47
32 -81 13 -60 14 -62 39 -55 14 4 61 8 105 9 l78 2 24 74 c22 68 22 75 7 86
-9 7 -36 11 -60 9 -35 -3 -41 -1 -32 10 6 8 15 14 19 14 8 0 80 66 80 73 0 3
-14 10 -30 17 -24 10 -37 10 -56 1 -36 -16 -60 -15 -45 3 15 17 5 43 -19 49
-13 3 -22 -5 -35 -34z m135 -179 c0 -28 -2 -30 -39 -30 -34 0 -38 3 -34 20 3
13 0 20 -8 21 -19 1 31 17 59 18 18 1 22 -4 22 -29z m-120 1 c0 -5 3 -16 6
-25 4 -11 -4 -17 -31 -22 -41 -7 -41 -7 -50 27 -6 23 -4 25 34 27 23 2 41 -2
41 -7z m108 -73 c-2 -18 -11 -24 -35 -26 -27 -3 -33 0 -33 16 0 26 8 32 42 32
25 0 29 -4 26 -22z m-98 -13 c0 -22 -4 -25 -35 -25 -30 0 -35 3 -35 23 0 19 6
23 35 25 31 2 35 0 35 -23z"/>
  <path d="M615 475 c-44 -8 -99 -14 -122 -14 -24 -1 -43 -5 -43 -11 0 -5 3 -10
8 -10 4 0 16 -39 27 -86 20 -86 31 -107 45 -84 4 6 20 10 36 8 25 -2 29 -8 32
-35 3 -30 1 -33 -25 -33 -39 0 -73 -10 -73 -22 0 -5 21 -8 48 -6 46 3 47 2 50
-28 l3 -31 -88 -10 c-72 -8 -84 -11 -65 -19 14 -6 46 -7 75 -3 29 4 114 8 190
8 76 1 137 5 137 10 0 20 -69 32 -140 25 l-70 -7 0 31 c0 29 3 31 45 38 25 3
45 10 45 15 0 5 -20 9 -45 9 -43 0 -45 1 -45 29 0 23 5 30 27 34 15 3 35 1 43
-3 9 -5 20 -6 26 -2 10 7 74 171 74 189 0 25 -71 28 -195 8z m123 -38 c3 -28
-1 -31 -54 -41 -30 -5 -32 -3 -36 29 -4 38 5 44 57 42 25 -2 31 -7 33 -30z
m-154 -3 c17 -45 -1 -65 -51 -56 -26 5 -41 51 -21 63 22 14 65 10 72 -7z m137
-66 c-1 -5 -1 -19 -1 -33 0 -22 -4 -25 -40 -25 -38 0 -40 2 -40 29 0 25 5 30
28 34 36 6 53 4 53 -5z m-131 -42 c0 -30 -3 -33 -27 -32 -32 1 -43 12 -43 44
0 19 5 22 35 22 33 0 35 -2 35 -34z"/>
  <path d="M391 183 c50 -62 59 -67 59 -30 0 16 -9 28 -25 35 -37 17 -50 15 -34
-5z"/>
  <path d="M297 184 c-9 -10 25 -64 40 -64 19 0 16 23 -7 48 -23 24 -24 25 -33
16z"/>
  <path d="M112 144 c-14 -21 -21 -43 -17 -55 17 -51 61 6 56 74 -2 26 -14 20
-39 -19z"/>
  <path d="M205 153 c13 -53 45 -72 45 -27 0 25 -23 53 -44 54 -4 0 -5 -12 -1
-27z"/>
</g>
<g id="part-1" class="char-part">
  <path d="M259 528 c-7 -18 -36 -54 -63 -81 -52 -51 -38 -53 30 -5 31 22 50 29
78 26 l37 -3 -31 -42 c-45 -61 -15 -56 57 9 32 28 59 55 61 59 8 18 -54 25
-90 11 -43 -17 -63 -8 -33 14 20 15 20 15 1 30 -28 20 -32 18 -47 -18z"/>
</g>
<g id="part-2" class="char-part">
  <path d="M386 188 c12 -22 47 -58 56 -58 4 0 8 11 8 25 0 18 -7 28 -26 35 -34
13 -47 13 -38 -2z"/>
  <path d="M111 145 c-13 -24 -21 -51 -18 -60 11 -26 37 -16 53 20 17 42 17 47
2 68 -12 15 -16 12 -37 -28z"/>
  <path d="M290 185 c0 -18 33 -65 45 -65 21 0 18 27 -5 50 -19 19 -40 27 -40
15z"/>
  <path d="M200 171 c0 -24 24 -71 36 -71 20 0 18 50 -3 66 -21 16 -33 18 -33 5z"/>
</g>
<g id="part-3" class="char-part">
  <path d="M615 475 c-44 -8 -99 -14 -122 -14 -40 -1 -55 -12 -34 -25 5 -3 17
-41 26 -83 18 -81 30 -107 43 -86 8 12 170 22 188 11 5 -4 15 -4 20 0 14 10
78 191 70 199 -12 12 -112 11 -191 -2z m122 -17 c2 -5 2 -21 -2 -36 -5 -24
-11 -27 -46 -29 -39 -1 -41 0 -36 24 3 17 -1 27 -12 31 -13 5 -11 8 9 13 32 9
80 7 87 -3z m-149 -45 c3 -32 2 -33 -36 -33 -35 0 -40 3 -45 27 -6 33 7 44 48
41 26 -3 30 -7 33 -35z m138 -55 c-3 -13 -6 -29 -6 -35 0 -8 -15 -13 -40 -13
-38 0 -40 2 -40 29 0 31 -2 30 79 39 9 2 11 -5 7 -20z m-136 -29 c0 -28 -2
-30 -32 -27 -28 2 -34 8 -36 31 -3 25 -1 27 32 27 33 0 36 -2 36 -31z"/>
</g>
<g id="part-4" class="char-part">
  <path d="M600 246 c0 -33 -1 -34 -52 -40 -44 -6 -50 -9 -34 -18 10 -6 33 -8
52 -5 33 6 34 5 34 -28 l0 -33 -92 -8 c-87 -7 -91 -8 -63 -20 21 -8 44 -10 75
-4 25 5 109 9 188 10 78 0 142 4 142 9 0 19 -63 30 -136 24 l-74 -6 0 30 c0
32 17 43 68 43 12 0 22 5 22 10 0 6 -20 10 -45 10 -43 0 -45 1 -45 30 0 23 -4
30 -20 30 -16 0 -20 -7 -20 -34z"/>
</g>
</g>
</svg>