<?xml version="1.0" standalone="no"?>
<!DOCTYPE svg PUBLIC "-//W3C//DTD SVG 20010904//EN"
 "http://www.w3.org/TR/2001/REC-SVG-20010904/DTD/svg10.dtd">
<svg version="1.0" xmlns="http://www.w3.org/2000/svg"
 width="96.000000pt" height="68.000000pt" viewBox="0 0 96.000000 68.000000"
 preserveAspectRatio="xMidYMid meet">
<metadata>
Created by potrace 1.16, written by Peter Selinger 2001-2019
Combined from part_0.svg through part_5.svg with named groups
</metadata>
<g transform="translate(0.000000,68.000000) scale(0.100000,-0.100000)" fill="#000000" stroke="none">
<g id="part-0" class="char-part">
  <path d="M400 569 c-19 -5 -62 -8 -94 -7 l-60 3 3 -58 c3 -71 -28 -145 -89
-211 -46 -49 -39 -60 14 -23 47 32 82 76 104 133 21 53 21 53 152 69 42 5 46
8 57 43 18 59 -4 72 -87 51z m40 -33 c0 -23 -22 -34 -82 -41 -54 -7 -56 -6
-51 14 8 30 133 56 133 27z"/>
  <path d="M656 526 l7 -54 -69 -7 c-89 -8 -104 -13 -84 -26 14 -8 51 -6 123 7
l27 6 0 -92 c0 -97 -8 -112 -49 -90 -31 16 -25 -2 13 -39 l34 -33 21 21 c19
19 21 33 21 130 0 104 1 109 20 104 28 -7 92 6 85 18 -4 5 -29 9 -57 9 l-51 0
6 39 c5 42 -6 61 -35 61 -16 0 -17 -6 -12 -54z"/>
  <path d="M345 425 l-40 -13 35 -1 c51 -1 110 10 104 20 -7 13 -52 10 -99 -6z"/>
  <path d="M557 359 c26 -26 35 -31 45 -21 16 16 -6 38 -47 48 l-30 6 32 -33z"/>
  <path d="M332 370 c-29 -4 -56 -11 -59 -14 -7 -6 26 -10 64 -6 24 1 37 -28 31
-71 -2 -19 -9 -24 -31 -22 -27 2 -28 1 -15 -19 8 -12 22 -27 31 -32 23 -14 46
18 47 64 0 19 3 45 6 58 5 17 2 22 -12 23 -11 1 8 7 41 14 l60 12 -55 0 c-30
0 -79 -3 -108 -7z"/>
  <path d="M255 283 c-29 -36 -29 -36 -5 -28 38 12 71 36 67 49 -7 22 -33 14
-62 -21z"/>
  <path d="M450 315 c0 -11 35 -45 47 -45 20 0 15 28 -6 40 -21 11 -41 13 -41 5z"/>
  <path d="M457 213 c-9 -8 52 -63 70 -63 7 0 13 11 13 24 0 24 -3 26 -61 42 -8
2 -18 1 -22 -3z"/>
  <path d="M310 190 c0 -22 41 -89 66 -109 48 -38 127 -54 237 -49 75 4 102 9
115 22 16 16 15 19 -13 42 -16 13 -34 24 -39 24 -5 0 -18 8 -29 18 -20 16 -20
16 -13 -3 19 -48 19 -54 -9 -61 -14 -3 -61 -4 -104 -2 -97 6 -151 33 -177 89
-16 37 -34 52 -34 29z"/>
  <path d="M731 170 c51 -46 65 -52 79 -35 6 8 9 19 5 26 -10 15 -69 39 -96 39
-20 0 -18 -3 12 -30z"/>
  <path d="M195 130 c-24 -39 -25 -70 0 -70 17 0 44 32 46 56 6 65 -11 70 -46
14z"/>
</g>
<g id="part-1" class="char-part">
  <path d="M365 560 c-22 -5 -56 -6 -76 -3 l-35 5 0 -54 c1 -69 -26 -137 -81
-205 -45 -55 -45 -55 -13 -37 47 28 97 90 115 145 17 51 28 59 79 59 58 0 126
12 120 22 -3 5 2 20 11 35 14 21 15 27 4 34 -17 10 -69 10 -124 -1z m75 -30
c0 -25 -35 -40 -96 -40 -41 0 -45 2 -42 23 3 23 32 33 106 36 26 1 32 -3 32
-19z"/>
</g>
<g id="part-2" class="char-part">
  <path d="M555 360 c33 -34 55 -39 55 -12 0 19 -37 42 -67 42 -13 0 -10 -7 12
-30z"/>
</g>
<g id="part-3" class="char-part">
  <path d="M471 189 c31 -40 69 -51 69 -21 0 25 -19 40 -61 49 l-34 6 26 -34z"/>
  <path d="M316 163 c20 -48 59 -90 104 -111 46 -21 273 -24 308 -4 13 7 22 18
20 23 -2 5 -32 25 -66 45 l-64 35 18 -30 c10 -17 15 -34 10 -38 -13 -13 -149
-16 -192 -4 -54 14 -91 44 -109 87 -8 19 -21 34 -29 34 -13 0 -13 -4 0 -37z"/>
  <path d="M725 176 c49 -44 74 -58 85 -51 33 20 -9 59 -75 70 l-40 7 30 -26z"/>
  <path d="M194 130 c-28 -42 -26 -70 4 -70 26 0 57 65 46 95 -10 24 -22 18 -50
-25z"/>
</g>
</g>
</svg>