<?xml version="1.0" standalone="no"?>
<!DOCTYPE svg PUBLIC "-//W3C//DTD SVG 20010904//EN"
 "http://www.w3.org/TR/2001/REC-SVG-20010904/DTD/svg10.dtd">
<svg version="1.0" xmlns="http://www.w3.org/2000/svg"
 width="96.000000pt" height="68.000000pt" viewBox="0 0 96.000000 68.000000"
 preserveAspectRatio="xMidYMid meet">
<metadata>
Created by potrace 1.16, written by Peter Selinger 2001-2019
Combined from part_0.svg through part_5.svg with named groups
</metadata>
<g transform="translate(0.000000,68.000000) scale(0.100000,-0.100000)" fill="#000000" stroke="none">
<g id="part-0" class="char-part">
  <path d="M237 532 c-9 -27 -35 -69 -57 -94 -59 -67 -52 -100 16 -78 19 7 38
10 40 7 3 -3 -13 -24 -35 -46 -23 -23 -41 -46 -41 -50 0 -14 31 -22 44 -12 27
21 115 42 134 32 23 -12 33 -5 24 17 -7 21 -32 41 -51 42 -10 0 -11 -3 -2 -14
9 -11 5 -16 -20 -25 -69 -24 -74 -14 -20 39 29 28 49 55 46 60 -3 5 0 7 8 4
21 -8 43 24 30 44 -15 25 -36 21 -43 -8 -7 -28 -49 -53 -82 -48 -19 3 -17 9
30 65 54 64 60 81 40 101 -24 24 -43 13 -61 -36z"/>
  <path d="M468 511 l5 -70 -34 -15 -34 -14 31 -1 c37 -1 43 -6 37 -31 -3 -13
-19 -22 -47 -29 l-41 -9 43 -1 c40 -1 42 -3 42 -31 0 -28 -3 -30 -50 -36 -60
-8 -66 -24 -10 -24 22 0 40 -5 40 -10 0 -17 -37 -83 -60 -107 -30 -32 -2 -30
33 3 15 14 41 49 58 79 29 51 32 54 81 60 58 8 47 24 -13 19 -38 -3 -39 -2
-36 24 3 22 11 29 43 38 38 11 38 11 11 18 -15 3 -32 4 -37 1 -6 -4 -10 9 -10
28 0 31 4 35 40 46 22 6 40 16 40 21 0 14 -40 23 -54 11 -19 -16 -26 -2 -20
40 5 31 3 39 -14 48 -44 23 -50 16 -44 -58z"/>
  <path d="M745 515 c-22 -8 -57 -14 -78 -12 l-38 2 1 -228 c0 -125 4 -237 9
-249 17 -46 30 45 37 247 4 130 11 203 18 207 19 13 76 9 76 -4 0 -7 -9 -28
-20 -46 -24 -39 -26 -68 -5 -76 19 -7 55 -65 55 -88 0 -14 -9 -18 -42 -18
l-42 0 49 -31 c57 -36 78 -31 83 19 4 43 -21 92 -63 121 -19 13 -35 26 -35 30
0 3 21 30 46 59 26 30 43 57 38 62 -19 17 -50 18 -89 5z"/>
  <path d="M290 242 c0 -5 11 -19 25 -32 23 -21 25 -22 31 -5 5 12 1 23 -11 31
-21 16 -45 18 -45 6z"/>
  <path d="M227 190 c9 -16 23 -30 30 -30 20 0 15 38 -6 50 -35 18 -43 11 -24
-20z"/>
  <path d="M106 188 c24 -41 47 -68 60 -68 21 0 17 37 -6 60 -22 22 -66 28 -54
8z"/>
</g>
<g id="part-1" class="char-part">
  <path d="M253 563 c-22 -64 -49 -113 -81 -145 -28 -30 -33 -41 -24 -50 9 -9
22 -9 60 1 61 16 82 35 28 25 -46 -8 -46 -8 26 82 26 34 48 65 48 69 0 9 -31
34 -43 35 -4 0 -10 -8 -14 -17z"/>
</g>
<g id="part-2" class="char-part">
  <path d="M290 242 c0 -12 39 -52 50 -52 18 0 10 39 -9 50 -24 12 -41 13 -41 2z"/>
  <path d="M216 198 c35 -42 54 -49 54 -20 0 25 -20 42 -49 42 -24 0 -24 0 -5
-22z"/>
  <path d="M120 161 c27 -47 60 -56 60 -17 0 28 -14 42 -54 52 l-29 7 23 -42z"/>
</g>
<g id="part-3" class="char-part">
  <path d="M464 509 l1 -72 -35 -13 -35 -12 38 -1 c32 -1 37 -4 37 -25 0 -21 -7
-26 -42 -34 l-43 -10 43 -1 c30 -1 42 -5 42 -16 0 -22 37 -18 43 4 3 13 17 22
42 27 39 7 31 24 -12 24 -18 0 -23 6 -23 25 0 20 8 28 40 41 57 23 54 36 -10
38 -22 1 -25 5 -22 34 4 39 -12 62 -42 62 -21 0 -22 -4 -22 -71z"/>
</g>
<g id="part-4" class="char-part">
  <path d="M470 296 c0 -16 -30 -26 -77 -26 -18 0 -33 -4 -33 -10 0 -5 20 -10
45 -10 25 0 45 -5 45 -10 0 -19 -39 -89 -62 -110 -32 -29 -17 -33 23 -6 21 14
49 49 67 84 32 59 33 60 83 67 34 5 47 10 38 16 -7 4 -30 5 -51 3 -24 -4 -38
-2 -38 5 0 6 -9 11 -20 11 -11 0 -20 -6 -20 -14z"/>
</g>
<g id="part-5" class="char-part">
  <path d="M639 510 c-5 -15 -9 -393 -3 -440 5 -46 8 -51 17 -35 13 23 27 445
15 460 -5 5 -8 3 -9 -5 0 -10 -4 -7 -9 5 -5 11 -9 18 -11 15z"/>
</g>
</g>
</svg>