<?xml version="1.0" standalone="no"?>
<!DOCTYPE svg PUBLIC "-//W3C//DTD SVG 20010904//EN"
 "http://www.w3.org/TR/2001/REC-SVG-20010904/DTD/svg10.dtd">
<svg version="1.0" xmlns="http://www.w3.org/2000/svg"
 width="96.000000pt" height="68.000000pt" viewBox="0 0 96.000000 68.000000"
 preserveAspectRatio="xMidYMid meet">
<metadata>
Created by potrace 1.16, written by Peter Selinger 2001-2019
Combined from part_0.svg through part_5.svg with named groups
</metadata>
<g transform="translate(0.000000,68.000000) scale(0.100000,-0.100000)" fill="#000000" stroke="none">
<g id="part-0" class="char-part">
  <path d="M543 607 c3 -8 8 -35 12 -60 l7 -45 -81 -7 c-108 -9 -109 -30 0 -22
l80 5 -3 -41 c-3 -41 -4 -42 -43 -45 -22 -1 -51 -5 -65 -8 -24 -6 -24 -6 -4
-14 12 -5 56 -4 98 2 43 5 79 8 81 7 2 -2 6 -20 10 -40 l7 -36 -153 -13 c-129
-11 -149 -15 -134 -26 11 -8 35 -12 59 -9 23 2 86 7 140 11 l99 7 -7 -84 c-7
-88 -16 -102 -55 -92 l-24 6 29 -36 c22 -28 34 -35 49 -30 37 11 44 34 45 140
l0 102 77 3 c74 3 76 4 58 21 -14 15 -30 18 -74 15 -52 -3 -55 -1 -61 22 -4
15 -15 27 -30 30 l-25 6 25 7 c14 4 37 7 53 7 15 0 27 5 27 10 0 11 -26 15
-87 11 l-43 -3 0 41 0 41 68 1 c37 1 73 1 80 0 19 -3 14 17 -8 29 -13 7 -38 8
-68 3 -26 -4 -51 -8 -57 -8 -5 0 -12 23 -15 50 -5 48 -6 50 -39 53 -26 3 -32
0 -28 -11z"/>
  <path d="M304 583 c-26 -77 -61 -130 -129 -202 -43 -45 -71 -81 -63 -81 17 0
99 51 127 79 l21 21 0 -90 c0 -49 -5 -112 -11 -140 -12 -55 1 -110 26 -110 22
0 27 29 35 185 5 116 4 154 -6 169 -11 17 -8 26 32 77 47 62 51 71 32 87 -28
21 -58 24 -64 5z"/>
  <path d="M455 220 c-6 -9 0 -18 33 -55 20 -23 42 -18 42 8 0 21 -11 31 -62 54
-4 2 -9 -1 -13 -7z"/>
</g>
<g id="part-1" class="char-part">
  <path d="M304 573 c-17 -57 -66 -134 -126 -195 -37 -38 -68 -72 -68 -74 0 -8
57 25 104 61 25 19 48 35 51 35 9 0 5 -135 -7 -200 -14 -81 -13 -106 3 -126
10 -12 15 -13 25 -2 16 18 30 333 15 342 -17 11 -14 20 35 86 25 34 44 63 42
65 -10 8 -48 25 -58 25 -6 0 -13 -8 -16 -17z"/>
</g>
<g id="part-2" class="char-part">
  <path d="M547 583 c14 -80 16 -77 -69 -87 -43 -5 -78 -13 -78 -18 0 -6 34 -8
78 -6 l77 3 3 -37 c3 -36 2 -37 -35 -43 -97 -16 -100 -17 -76 -26 12 -4 50 -4
85 1 34 4 98 11 142 15 94 8 91 30 -4 28 l-60 -2 0 39 0 40 80 0 c80 0 98 9
59 30 -19 10 -72 7 -121 -6 -16 -5 -18 2 -18 50 l0 56 -34 0 c-35 0 -35 0 -29
-37z"/>
</g>
<g id="part-3" class="char-part">
  <path d="M636 342 l6 -39 -151 -13 c-83 -7 -151 -16 -151 -20 0 -16 52 -20
142 -10 51 5 111 10 132 10 l39 0 -6 -76 c-6 -86 -16 -103 -54 -96 l-26 5 29
-37 c33 -41 46 -44 74 -16 17 17 20 33 20 125 l0 105 69 0 c39 0 72 4 76 9 11
19 -37 34 -92 28 -51 -5 -53 -5 -53 19 0 17 -8 27 -26 34 -35 14 -35 14 -28
-28z"/>
</g>
<g id="part-4" class="char-part">
  <path d="M456 208 c14 -26 48 -58 60 -58 24 0 26 22 3 46 -23 25 -76 35 -63
12z"/>
</g>
</g>
</svg>