<?xml version="1.0" standalone="no"?>
<!DOCTYPE svg PUBLIC "-//W3C//DTD SVG 20010904//EN"
 "http://www.w3.org/TR/2001/REC-SVG-20010904/DTD/svg10.dtd">
<svg version="1.0" xmlns="http://www.w3.org/2000/svg"
 width="96.000000pt" height="68.000000pt" viewBox="0 0 96.000000 68.000000"
 preserveAspectRatio="xMidYMid meet">
<metadata>
Created by potrace 1.16, written by Peter Selinger 2001-2019
Combined from part_0.svg through part_5.svg with named groups
</metadata>
<g transform="translate(0.000000,68.000000) scale(0.100000,-0.100000)" fill="#000000" stroke="none">
<g id="part-0" class="char-part">
  <path d="M460 584 c0 -14 71 -75 83 -71 6 2 13 13 15 24 2 14 -5 23 -25 31
-47 18 -73 24 -73 16z"/>
  <path d="M649 515 c-3 -2 -63 -11 -134 -20 -71 -9 -131 -18 -133 -20 -2 -2 5
-6 16 -9 18 -6 62 -92 62 -121 0 -8 -23 -15 -65 -20 -36 -3 -63 -11 -60 -16 8
-11 96 -11 155 1 25 5 108 14 184 20 77 6 142 13 145 16 22 21 -90 31 -163 14
-22 -5 -44 -6 -48 -4 -5 3 8 25 28 50 30 36 34 47 24 59 -13 15 -12 16 38 31
20 6 4 24 -22 24 -12 0 -25 -2 -27 -5z m-47 -75 c-4 -54 -33 -94 -69 -98 -29
-3 -32 0 -38 32 -4 19 -18 44 -31 57 -13 12 -24 26 -24 30 0 5 28 10 63 12
104 6 102 7 99 -33z"/>
  <path d="M230 465 c-25 -8 -58 -11 -75 -9 l-30 5 0 -155 c0 -85 4 -158 7 -162
4 -4 23 1 42 10 46 22 60 20 76 -9 7 -14 21 -25 29 -25 31 0 39 35 42 185 3
135 1 149 -16 161 -10 8 -21 13 -24 13 -3 -1 -26 -7 -51 -14z m40 -79 c0 -46
-11 -56 -67 -56 -21 0 -23 5 -23 50 l0 50 45 0 45 0 0 -44z m0 -135 l0 -49
-45 -4 -45 -3 0 52 0 53 45 0 45 0 0 -49z"/>
  <path d="M545 269 c-22 -4 -58 -8 -80 -8 l-40 -1 0 -98 c0 -101 10 -139 27
-108 7 12 25 16 83 16 64 0 76 -3 85 -20 14 -26 36 -25 51 2 12 22 16 199 4
218 -7 12 -72 11 -130 -1z m87 -47 c4 -28 4 -29 -75 -40 -44 -6 -82 -10 -86
-8 -4 3 -6 17 -5 33 1 33 21 41 105 42 55 1 57 0 61 -27z m-2 -87 c0 -30 -3
-35 -24 -35 -12 0 -51 -3 -85 -6 l-61 -7 2 28 c3 31 7 33 74 45 91 15 94 14
94 -25z"/>
</g>
<g id="part-1" class="char-part">
  <path d="M230 459 c-14 -6 -44 -9 -68 -6 -37 4 -42 2 -36 -12 13 -30 16 -161
5 -207 -10 -39 -9 -50 5 -72 15 -23 18 -24 29 -9 19 27 66 21 92 -10 l23 -28
20 24 c18 21 20 38 20 167 0 131 -2 144 -19 154 -24 12 -38 12 -71 -1z m38
-76 c3 -53 3 -53 -27 -53 -16 0 -36 -3 -45 -6 -13 -5 -16 3 -16 49 0 59 7 67
60 64 23 -2 25 -6 28 -54z m0 -130 l-3 -58 -47 -3 c-45 -3 -48 -2 -48 21 0 59
12 86 39 90 64 10 62 12 59 -50z"/>
</g>
<g id="part-2" class="char-part">
  <path d="M460 583 c0 -19 69 -76 84 -70 21 8 20 44 -1 55 -28 15 -83 24 -83
15z"/>
  <path d="M648 515 c-3 -4 -224 -33 -273 -36 -5 0 0 -4 13 -9 29 -12 243 6 316
27 15 4 16 7 5 14 -15 9 -53 12 -61 4z"/>
</g>
<g id="part-3" class="char-part">
  <path d="M601 429 c-15 -59 -41 -89 -75 -89 -19 0 -25 7 -30 34 -7 35 -67 99
-74 78 -2 -6 8 -33 23 -61 14 -28 24 -52 23 -52 -2 -1 -34 -7 -73 -13 -110
-19 -53 -32 74 -17 58 7 160 17 225 22 66 5 122 12 125 15 17 16 -33 25 -116
19 -51 -3 -93 -3 -93 1 0 3 14 23 30 44 34 43 37 55 14 64 -32 12 -41 5 -53
-45z"/>
</g>
<g id="part-4" class="char-part">
  <path d="M550 269 c-25 -4 -63 -8 -85 -8 l-40 -1 0 -98 c0 -103 8 -134 28
-108 8 10 33 16 81 17 62 2 71 0 84 -19 18 -28 38 -28 53 -1 17 32 15 209 -2
220 -16 10 -56 10 -119 -2z m80 -48 c0 -26 -4 -29 -42 -34 -24 -3 -60 -9 -80
-13 l-38 -7 0 36 c0 41 6 44 98 46 62 1 62 1 62 -28z m2 -85 c-4 -33 -5 -33
-64 -40 -97 -10 -108 -8 -108 13 0 26 11 52 19 47 4 -3 29 -1 57 3 96 16 100
15 96 -23z"/>
</g>
</g>
</svg>