<?xml version="1.0" standalone="no"?>
<!DOCTYPE svg PUBLIC "-//W3C//DTD SVG 20010904//EN"
 "http://www.w3.org/TR/2001/REC-SVG-20010904/DTD/svg10.dtd">
<svg version="1.0" xmlns="http://www.w3.org/2000/svg"
 width="96.000000pt" height="68.000000pt" viewBox="0 0 96.000000 68.000000"
 preserveAspectRatio="xMidYMid meet">
<metadata>
Created by potrace 1.16, written by Peter Selinger 2001-2019
Combined from part_0.svg through part_5.svg with named groups
</metadata>
<g transform="translate(0.000000,68.000000) scale(0.100000,-0.100000)" fill="#000000" stroke="none">
<g id="part-0" class="char-part">
  <path d="M247 583 c-3 -2 -1 -21 4 -41 5 -20 9 -58 9 -83 l0 -46 -60 -7 c-33
-4 -60 -11 -60 -16 0 -13 56 -22 90 -15 30 7 30 6 30 -38 l0 -44 -85 -38 c-82
-36 -102 -56 -69 -69 30 -12 51 -6 99 29 27 19 51 33 53 30 2 -2 1 -32 -3 -66
l-7 -61 -34 5 c-19 3 -34 5 -34 3 0 -8 81 -86 89 -86 25 0 41 60 41 151 l0 92
38 34 c36 34 30 39 -20 18 -15 -6 -18 -2 -18 19 0 17 7 29 18 32 54 17 66 25
51 35 -7 5 -26 9 -41 9 -33 0 -35 14 -14 82 13 44 12 46 -8 56 -27 13 -64 21
-69 15z"/>
  <path d="M555 569 c-22 -4 -70 -8 -107 -8 -41 -1 -68 -5 -68 -12 0 -5 4 -8 9
-4 5 3 15 -21 21 -52 14 -65 25 -84 46 -76 38 14 -11 -86 -62 -126 -34 -27
-12 -27 31 -1 32 20 35 20 69 3 57 -27 55 -29 -79 -104 -37 -21 -44 -29 -28
-29 25 0 53 -34 53 -65 1 -44 18 -50 123 -45 53 3 96 7 95 10 -1 3 10 26 25
51 l27 46 -28 12 c-21 9 -50 9 -113 2 -104 -14 -139 -14 -139 -1 0 6 6 10 13
10 6 0 38 16 70 35 l58 35 66 -35 c68 -36 115 -42 188 -26 35 8 33 9 -85 37
-41 9 -91 24 -110 32 l-34 14 42 39 c23 22 42 43 42 48 0 18 -47 29 -91 20
-58 -11 -71 -11 -64 1 3 5 -6 15 -21 23 -26 14 -24 14 52 21 44 4 87 4 96 1
19 -7 25 1 55 75 21 51 22 56 6 68 -19 13 -96 14 -158 1z m113 -36 c3 -22 0
-23 -52 -23 -49 0 -56 3 -56 19 0 21 24 30 75 27 23 -1 31 -6 33 -23z m-140
-10 c3 -21 -1 -23 -42 -23 -38 0 -46 3 -46 18 0 27 10 33 50 30 28 -2 36 -8
38 -25z m126 -56 c-4 -12 -18 -17 -50 -17 -37 0 -44 3 -44 19 0 16 8 20 43 23
49 3 60 -2 51 -25z m-126 -4 c-5 -25 -71 -25 -76 0 -3 14 4 17 38 17 34 0 41
-3 38 -17z m72 -121 c0 -8 -37 -52 -44 -52 -2 0 -20 7 -40 15 -37 16 -46 29
-23 38 20 9 107 8 107 -1z m40 -204 c-1 -49 -10 -56 -82 -63 -38 -4 -71 -5
-73 -3 -3 3 -8 18 -11 35 -7 36 0 39 104 42 44 1 62 -3 62 -11z"/>
</g>
<g id="part-1" class="char-part">
  <path d="M257 499 c7 -93 3 -99 -64 -99 -24 0 -43 -4 -43 -10 0 -5 25 -10 55
-10 l55 0 0 -44 0 -45 -76 -35 c-42 -20 -80 -36 -86 -36 -19 0 -1 -25 24 -34
21 -7 34 -2 82 33 l56 42 0 -64 c0 -71 -12 -90 -51 -80 -21 5 -20 1 16 -36
l40 -42 18 22 c14 17 17 41 17 124 l0 102 35 24 c42 29 46 45 5 24 -40 -21
-42 -20 -38 17 3 28 8 33 41 41 20 5 37 13 37 18 0 12 -46 22 -61 13 -9 -5
-10 5 -6 42 3 27 8 58 12 70 5 15 0 23 -20 32 -51 23 -54 19 -48 -69z"/>
</g>
<g id="part-2" class="char-part">
  <path d="M555 569 c-22 -4 -71 -8 -109 -8 l-68 -1 15 -23 c8 -12 18 -40 21
-62 11 -62 11 -63 106 -53 47 5 100 7 118 4 32 -5 34 -3 62 56 34 70 36 83 14
92 -21 8 -110 6 -159 -5z m113 -36 c3 -22 0 -23 -52 -23 -49 0 -56 3 -56 19 0
14 8 21 28 24 55 9 77 3 80 -20z m-143 -8 c0 -16 -8 -21 -42 -23 -37 -3 -43 0
-43 17 0 23 14 31 55 28 23 -2 30 -7 30 -22z m128 -53 c-7 -27 -96 -31 -91 -5
2 12 16 20 43 23 49 7 54 5 48 -18z m-125 -9 c-5 -25 -71 -25 -76 0 -3 14 4
17 38 17 34 0 41 -3 38 -17z"/>
</g>
<g id="part-3" class="char-part">
  <path d="M457 375 c-9 -19 -33 -52 -53 -75 -20 -22 -33 -40 -29 -40 12 0 69
42 112 83 33 31 40 44 31 54 -19 23 -44 14 -61 -22z"/>
</g>
<g id="part-4" class="char-part">
  <path d="M545 168 c-38 -5 -85 -7 -102 -6 -32 4 -40 -1 -25 -16 4 -4 14 -28
23 -54 12 -36 21 -46 35 -45 10 1 58 3 106 4 64 1 85 4 82 13 -3 7 7 29 20 49
l25 37 -22 15 c-24 17 -39 17 -142 3z m95 -40 c0 -40 -14 -49 -86 -55 l-70 -6
-11 36 c-10 34 -10 36 16 40 14 2 54 5 89 6 58 1 62 0 62 -21z"/>
</g>
</g>
</svg>