<?xml version="1.0" standalone="no"?>
<!DOCTYPE svg PUBLIC "-//W3C//DTD SVG 20010904//EN"
 "http://www.w3.org/TR/2001/REC-SVG-20010904/DTD/svg10.dtd">
<svg version="1.0" xmlns="http://www.w3.org/2000/svg"
 width="96.000000pt" height="68.000000pt" viewBox="0 0 96.000000 68.000000"
 preserveAspectRatio="xMidYMid meet">
<metadata>
Created by potrace 1.16, written by Peter Selinger 2001-2019
Combined from part_0.svg through part_5.svg with named groups
</metadata>
<g transform="translate(0.000000,68.000000) scale(0.100000,-0.100000)" fill="#000000" stroke="none">
<g id="part-0" class="char-part">
  <path d="M347 586 c5 -44 4 -46 -20 -46 -17 0 -24 5 -23 18 1 11 -7 18 -25 20
-22 3 -28 -4 -49 -47 -13 -28 -21 -53 -19 -55 3 -3 20 5 38 16 19 12 49 23 67
25 28 3 34 0 34 -15 0 -16 -12 -21 -62 -31 -35 -6 -70 -12 -78 -12 -35 -1 -70
-11 -70 -20 0 -17 135 -6 193 16 13 6 17 2 17 -18 0 -14 -6 -25 -12 -24 -7 0
-35 -1 -61 -1 -44 -2 -47 -4 -37 -21 5 -11 10 -33 10 -50 0 -50 28 -40 32 12
3 39 5 42 36 45 l32 3 0 -49 c0 -53 5 -63 26 -55 10 3 14 22 14 59 0 53 0 54
30 54 17 0 30 -4 30 -9 0 -5 3 -16 6 -25 4 -11 0 -16 -15 -16 -14 0 -19 -5
-14 -16 3 -9 15 -14 32 -12 22 3 27 9 32 43 9 55 -3 67 -58 59 -38 -5 -43 -4
-43 12 0 15 9 20 47 22 55 4 72 11 50 24 -9 5 -33 4 -57 -1 -39 -9 -41 -8 -38
12 2 16 12 23 37 27 19 3 36 11 39 19 3 10 -5 12 -37 9 l-42 -4 3 36 c3 31 0
35 -23 38 -26 3 -27 2 -22 -42z"/>
  <path d="M646 621 c-4 -5 -2 -21 4 -36 12 -32 13 -185 1 -203 -4 -8 -19 -13
-32 -12 -38 3 -39 2 -9 -29 38 -38 55 -43 74 -23 12 14 15 46 17 152 1 118 -1
135 -17 147 -21 15 -31 16 -38 4z"/>
  <path d="M540 484 c6 -74 25 -97 35 -41 11 58 3 102 -20 105 -19 3 -20 -2 -15
-64z"/>
  <path d="M420 303 c0 -3 7 -14 15 -23 14 -16 10 -18 -57 -29 -40 -6 -90 -12
-110 -13 -21 -1 -38 -5 -38 -9 0 -13 38 -16 91 -8 29 5 55 6 58 4 10 -11 -44
-55 -130 -105 -49 -29 -88 -54 -86 -56 6 -6 77 21 131 50 27 14 53 26 59 26 6
0 7 -25 2 -65 -8 -78 0 -82 75 -32 61 40 75 65 20 37 -55 -28 -62 -26 -59 19
2 21 -3 46 -10 54 -10 13 -8 18 13 32 28 18 34 41 14 48 -7 2 41 7 106 11 66
4 124 10 129 13 23 14 -24 23 -92 17 -54 -5 -72 -4 -67 5 4 6 -3 15 -19 21
-31 12 -45 13 -45 3z"/>
  <path d="M605 213 c-3 -10 -17 -26 -30 -36 -24 -17 -26 -17 -52 2 -35 25 -73
36 -73 22 0 -6 5 -11 10 -11 6 0 53 -32 106 -71 l95 -72 66 6 c37 4 71 11 77
17 6 6 6 10 0 10 -58 0 -227 57 -221 74 2 5 22 16 45 24 46 15 52 26 23 42
-28 14 -39 13 -46 -7z"/>
</g>
<g id="part-1" class="char-part">
  <path d="M250 566 c0 -8 -9 -31 -21 -50 -28 -47 -12 -45 42 4 36 33 41 42 29
50 -22 14 -50 12 -50 -4z"/>
</g>
<g id="part-2" class="char-part">
  <path d="M645 613 c11 -27 18 -167 11 -208 -7 -36 -9 -37 -42 -32 l-35 6 28
-34 c37 -43 53 -50 74 -28 15 15 18 40 20 152 2 120 0 135 -16 147 -27 20 -49
18 -40 -3z"/>
</g>
<g id="part-3" class="char-part">
  <path d="M420 303 c0 -3 7 -14 15 -24 15 -15 13 -17 -17 -22 -18 -4 -66 -9
-106 -13 -40 -4 -75 -10 -77 -14 -10 -16 40 -18 114 -5 42 7 127 16 189 20 61
4 112 11 112 16 0 15 -42 21 -95 14 -46 -5 -57 -3 -74 14 -20 20 -61 29 -61
14z"/>
</g>
<g id="part-4" class="char-part">
  <path d="M352 194 c-18 -18 -72 -56 -120 -84 -55 -33 -76 -50 -57 -45 83 18
245 118 245 151 0 24 -33 13 -68 -22z"/>
</g>
<g id="part-5" class="char-part">
  <path d="M609 201 c-16 -18 -16 -19 7 -17 16 1 22 6 19 15 -5 12 -3 12 11 0
15 -12 17 -12 12 1 -7 22 -31 23 -49 1z"/>
  <path d="M475 186 c11 -8 23 -12 27 -10 5 3 8 0 8 -6 0 -6 5 -8 11 -4 13 8
-14 26 -46 31 -19 4 -19 3 0 -11z"/>
  <path d="M562 132 c18 -15 36 -31 39 -36 4 -5 12 -5 19 -1 8 5 11 4 6 -3 -3
-6 4 -17 16 -24 28 -15 80 -20 72 -6 -4 6 5 8 22 6 16 -3 23 -3 15 0 -12 3
-12 5 0 14 10 7 4 8 -18 4 -21 -3 -33 -1 -33 5 0 6 -7 9 -15 6 -8 -4 -17 -2
-20 4 -4 5 -11 7 -16 4 -5 -4 -9 -2 -9 2 0 5 -16 15 -35 22 -19 7 -35 16 -35
20 0 3 -9 7 -20 8 -16 1 -14 -3 12 -25z"/>
  <path d="M359 102 c0 -26 -2 -55 -4 -64 -7 -39 21 -32 85 22 l25 21 -33 -16
c-42 -20 -51 -14 -47 34 2 28 -1 41 -11 45 -11 4 -14 -5 -15 -42z"/>
</g>
</g>
</svg>