<?xml version="1.0" standalone="no"?>
<!DOCTYPE svg PUBLIC "-//W3C//DTD SVG 20010904//EN"
 "http://www.w3.org/TR/2001/REC-SVG-20010904/DTD/svg10.dtd">
<svg version="1.0" xmlns="http://www.w3.org/2000/svg"
 width="96.000000pt" height="68.000000pt" viewBox="0 0 96.000000 68.000000"
 preserveAspectRatio="xMidYMid meet">
<metadata>
Created by potrace 1.16, written by Peter Selinger 2001-2019
Combined from part_0.svg through part_5.svg with named groups
</metadata>
<g transform="translate(0.000000,68.000000) scale(0.100000,-0.100000)" fill="#000000" stroke="none">
<g id="part-0" class="char-part">
  <path d="M626 554 c-129 -17 -170 -33 -83 -34 56 0 58 -1 52 -22 -14 -46 -35
-68 -63 -68 l-28 0 2 -67 c1 -38 -2 -87 -7 -111 -11 -49 4 -93 24 -73 6 6 17
11 25 11 28 0 -2 -52 -75 -127 -17 -18 -28 -33 -25 -33 14 0 81 46 126 86 46
41 58 64 34 64 -9 0 -8 4 2 10 8 5 36 10 62 10 40 0 50 -4 64 -25 20 -31 35
-32 53 -3 18 29 16 258 -2 271 -12 8 -132 2 -177 -9 -23 -6 -21 -3 15 35 30
32 37 44 26 50 -8 5 20 11 73 16 85 7 107 17 64 29 -27 7 -25 7 -162 -10z
m124 -143 c0 -5 3 -16 6 -25 5 -13 -3 -16 -47 -17 -30 0 -75 -4 -101 -8 -54
-9 -68 -4 -64 24 2 14 13 22 37 26 55 10 169 10 169 0z m2 -81 c3 -24 0 -25
-82 -36 -131 -19 -130 -19 -130 16 l0 30 63 1 c34 0 80 4 102 8 22 4 41 7 42
7 0 -1 3 -12 5 -26z m4 -66 c-3 -9 -6 -22 -6 -30 0 -11 -8 -14 -32 -9 -18 3
-66 2 -105 -3 l-73 -8 0 28 c0 18 4 26 13 23 6 -2 44 -1 82 4 115 14 128 13
121 -5z"/>
  <path d="M320 515 c-36 -7 -80 -13 -98 -14 -49 -1 -35 -25 16 -29 32 -2 42 -7
42 -21 0 -25 -93 -163 -135 -199 -19 -17 -35 -34 -35 -37 0 -15 33 0 78 35 27
22 52 40 55 40 3 0 9 -20 12 -45 7 -45 34 -82 42 -57 3 7 24 12 59 12 48 0 54
2 54 21 0 12 7 37 16 56 16 32 16 36 1 51 -14 13 -24 14 -64 5 -87 -21 -103
-23 -103 -18 0 3 18 30 40 60 22 30 41 65 43 77 2 27 19 36 64 37 29 1 52 16
41 27 -11 11 -69 11 -128 -1z m65 -222 c-14 -69 -15 -71 -45 -75 -35 -5 -45 4
-53 49 -7 34 0 39 70 42 25 1 30 -3 28 -16z"/>
  <path d="M690 143 c0 -16 102 -114 113 -110 17 5 21 36 6 53 -11 14 -101 64
-114 64 -3 0 -5 -3 -5 -7z"/>
</g>
<g id="part-1" class="char-part">
  <path d="M282 505 c-97 -15 -116 -25 -48 -25 32 0 48 -5 52 -15 10 -26 -75
-156 -141 -217 -24 -22 -26 -27 -12 -28 39 0 178 156 203 230 11 32 16 36 65
43 36 6 48 12 38 18 -18 11 -54 10 -157 -6z"/>
</g>
<g id="part-2" class="char-part">
  <path d="M355 330 c-11 -5 -39 -9 -62 -9 -23 -1 -44 -5 -47 -9 -6 -11 22 -124
34 -136 6 -6 12 -3 16 7 5 13 19 17 66 17 38 0 57 4 53 10 -4 6 1 33 10 61 15
43 15 53 4 60 -17 11 -48 10 -74 -1z m25 -42 c0 -52 -11 -68 -45 -68 -24 0
-35 5 -39 18 -2 9 -7 27 -11 39 -6 23 6 29 68 32 22 1 27 -3 27 -21z"/>
</g>
<g id="part-3" class="char-part">
  <path d="M618 551 c-129 -18 -161 -31 -75 -31 31 0 57 -2 57 -5 0 -3 -9 -24
-20 -45 -31 -60 6 -50 65 18 15 18 16 25 6 31 -8 5 22 11 73 16 85 7 107 17
64 29 -28 7 -24 7 -170 -13z"/>
</g>
<g id="part-4" class="char-part">
  <path d="M655 439 c-22 -4 -68 -9 -102 -10 -60 -1 -62 -2 -51 -22 6 -13 8 -49
5 -94 -5 -66 -4 -73 13 -73 10 0 20 5 22 11 2 5 21 12 43 13 22 2 70 7 108 11
47 5 67 4 67 -4 0 -6 8 -11 19 -11 17 0 19 9 19 87 1 57 -3 90 -11 95 -15 10
-79 8 -132 -3z m81 -18 c7 -1 14 -12 16 -25 5 -23 3 -24 -86 -32 -127 -12
-121 -12 -121 16 0 23 5 26 70 35 39 6 79 10 90 9 11 -1 25 -3 31 -3z m19 -95
c1 -22 -4 -24 -70 -30 -38 -4 -87 -10 -107 -13 -37 -5 -38 -5 -38 26 l0 31 58
1 c31 0 77 4 102 8 53 8 53 8 55 -23z"/>
</g>
<g id="part-5" class="char-part">
  <path d="M567 173 c-4 -3 -7 -11 -7 -17 0 -6 5 -4 10 4 7 10 10 11 10 2 0 -7
-10 -17 -22 -23 -32 -16 -81 -76 -63 -76 8 0 15 7 15 14 0 8 5 11 12 7 7 -5 8
-3 4 5 -5 8 -3 11 5 10 8 -2 31 14 52 35 20 21 30 36 22 32 -8 -3 -15 -1 -15
4 0 11 -13 13 -23 3z m-14 -58 c-3 -9 -8 -14 -10 -11 -3 3 -2 9 2 15 9 16 15
13 8 -4z"/>
  <path d="M716 115 c4 -8 9 -13 14 -10 4 2 12 -7 18 -20 7 -14 19 -25 27 -25 9
0 14 -4 11 -8 -2 -4 4 -9 15 -9 10 -1 19 1 19 5 0 13 -31 52 -41 52 -6 0 -17
7 -25 15 -20 20 -45 20 -38 0z"/>
</g>
</g>
</svg>