<?xml version="1.0" standalone="no"?>
<!DOCTYPE svg PUBLIC "-//W3C//DTD SVG 20010904//EN"
 "http://www.w3.org/TR/2001/REC-SVG-20010904/DTD/svg10.dtd">
<svg version="1.0" xmlns="http://www.w3.org/2000/svg"
 width="96.000000pt" height="68.000000pt" viewBox="0 0 96.000000 68.000000"
 preserveAspectRatio="xMidYMid meet">
<metadata>
Created by potrace 1.16, written by Peter Selinger 2001-2019
Combined from part_0.svg through part_5.svg with named groups
</metadata>
<g transform="translate(0.000000,68.000000) scale(0.100000,-0.100000)" fill="#000000" stroke="none">
<g id="part-0" class="char-part">
  <path d="M260 593 c0 -23 42 -73 62 -74 13 -1 -2 -5 -32 -10 -108 -17 -120
-20 -115 -30 4 -5 15 -9 25 -9 13 0 26 -15 40 -46 27 -61 26 -64 -15 -64 -19
0 -35 -4 -35 -10 0 -6 27 -10 61 -10 60 0 60 0 57 -27 -3 -27 -5 -28 -95 -38
-50 -5 -95 -13 -98 -17 -13 -13 52 -18 104 -8 99 19 95 22 89 -75 -5 -65 -3
-87 8 -96 8 -7 17 -9 21 -6 3 4 8 49 11 101 l5 94 30 6 c16 3 47 6 68 6 40 0
53 14 20 23 -10 2 -41 2 -70 -1 -46 -4 -51 -3 -51 16 0 11 -6 22 -12 25 -7 3
15 8 50 12 39 5 61 12 59 19 -2 6 -18 10 -36 8 -38 -3 -38 3 -6 51 14 20 24
41 21 46 -3 5 6 12 20 15 22 6 24 9 13 22 -10 12 -24 15 -61 10 -46 -6 -48 -6
-48 18 0 18 -9 30 -30 41 -31 16 -60 20 -60 8z m110 -142 c0 -55 -16 -81 -50
-81 -27 0 -30 3 -30 30 0 18 -8 37 -20 48 -21 17 -21 17 12 23 76 14 88 11 88
-20z"/>
  <path d="M680 555 c-29 -35 -102 -74 -129 -69 l-27 6 4 -90 c5 -101 -19 -205
-59 -255 -35 -46 -2 -30 36 17 25 31 41 65 53 114 l17 70 48 4 47 3 0 -152 c0
-149 4 -183 21 -183 16 0 28 77 31 212 l3 138 35 1 c19 0 44 4 55 8 19 8 19 8
-2 19 -17 9 -43 7 -125 -12 l-103 -23 -3 40 c-2 22 -1 45 2 52 2 7 37 25 78
41 90 34 99 41 74 60 -25 18 -40 18 -56 -1z"/>
  <path d="M390 232 c0 -17 41 -62 56 -62 26 0 11 33 -24 53 -17 10 -32 15 -32
9z"/>
  <path d="M198 193 c-9 -16 -26 -38 -38 -50 -28 -31 -12 -29 36 3 42 29 54 42
54 62 0 23 -36 12 -52 -15z"/>
</g>
<g id="part-1" class="char-part">
  <path d="M270 588 c0 -22 36 -68 52 -68 26 0 33 27 14 49 -19 21 -66 34 -66
19z"/>
  <path d="M390 521 c-14 -4 -69 -14 -124 -21 -73 -10 -94 -15 -81 -23 27 -15
275 15 275 34 0 5 -4 9 -9 9 -5 0 -15 2 -23 4 -7 2 -24 1 -38 -3z"/>
</g>
<g id="part-2" class="char-part">
  <path d="M307 316 c6 -28 -5 -32 -119 -42 -43 -4 -78 -11 -78 -15 0 -17 50
-21 113 -10 97 17 91 22 84 -73 -4 -61 -2 -89 7 -101 20 -28 28 -4 34 100 l5
93 36 6 c20 3 51 6 69 6 33 0 43 14 18 23 -8 3 -39 3 -70 0 -52 -5 -56 -4 -56
16 0 15 -6 21 -24 21 -19 0 -22 -4 -19 -24z"/>
  <path d="M386 227 c15 -25 48 -57 61 -57 22 0 15 36 -9 47 -42 20 -60 24 -52
10z"/>
  <path d="M203 203 c-9 -16 -28 -41 -42 -57 l-26 -28 25 7 c14 4 42 23 62 43
29 27 35 39 27 49 -17 19 -27 16 -46 -14z"/>
</g>
<g id="part-3" class="char-part">
  <path d="M669 553 c-33 -39 -91 -72 -118 -67 l-28 6 5 -79 c5 -91 -9 -167 -43
-238 -13 -27 -23 -51 -21 -53 2 -1 20 16 40 39 39 46 62 112 71 204 11 103 8
99 87 130 91 36 99 42 74 61 -26 19 -50 18 -67 -3z"/>
</g>
<g id="part-4" class="char-part">
  <path d="M658 381 c-118 -24 -99 -42 23 -22 30 5 75 12 102 16 26 3 45 10 42
16 -9 13 -77 9 -167 -10z"/>
</g>
<g id="part-5" class="char-part">
  <path d="M680 193 c0 -124 3 -164 11 -156 15 15 21 51 26 161 3 71 1 92 -9 92
-10 0 -10 2 -1 8 7 4 14 18 15 31 2 18 -3 24 -19 27 l-23 4 0 -167z"/>
</g>
</g>
</svg>