<?xml version="1.0" standalone="no"?>
<!DOCTYPE svg PUBLIC "-//W3C//DTD SVG 20010904//EN"
 "http://www.w3.org/TR/2001/REC-SVG-20010904/DTD/svg10.dtd">
<svg version="1.0" xmlns="http://www.w3.org/2000/svg"
 width="96.000000pt" height="68.000000pt" viewBox="0 0 96.000000 68.000000"
 preserveAspectRatio="xMidYMid meet">
<metadata>
Created by potrace 1.16, written by Peter Selinger 2001-2019
Combined from part_0.svg through part_5.svg with named groups
</metadata>
<g transform="translate(0.000000,68.000000) scale(0.100000,-0.100000)" fill="#000000" stroke="none">
<g id="part-0" class="char-part">
  <path d="M625 579 c-22 -4 -62 -8 -89 -8 -42 -1 -47 -3 -41 -18 3 -10 9 -55
12 -100 l6 -83 41 6 c23 3 51 7 64 10 12 2 31 0 41 -6 25 -13 35 1 51 70 7 30
16 67 20 82 7 22 4 29 -15 42 -26 17 -31 18 -90 5z m45 -48 c0 -26 -3 -29 -47
-34 -27 -3 -56 -9 -65 -12 -15 -6 -18 -1 -18 29 0 38 6 42 80 49 46 3 50 1 50
-32z m-12 -87 l-3 -37 -55 -1 c-55 -1 -55 -1 -58 31 -3 31 -2 32 45 36 26 2
54 4 61 5 9 1 12 -9 10 -34z"/>
  <path d="M295 535 c-22 -8 -64 -14 -94 -14 l-54 -1 19 -21 c10 -11 26 -42 34
-67 14 -44 17 -47 46 -44 l32 3 1 -99 c2 -84 -1 -100 -14 -106 -40 -15 -45 -8
-45 63 0 54 -3 70 -16 75 -26 10 -31 -1 -23 -51 4 -26 8 -60 8 -75 1 -26 -2
-28 -40 -28 -35 0 -40 -2 -29 -15 6 -8 21 -17 31 -20 22 -7 259 64 259 78 0 9
-8 8 -68 -9 -22 -6 -23 -5 -20 47 l3 54 38 3 c49 4 48 22 -1 22 -38 0 -38 0
-34 35 3 29 8 35 28 35 19 0 24 5 24 28 0 15 10 42 21 61 20 33 20 35 3 48
-22 16 -56 15 -109 -2z m45 -52 c0 -40 -10 -50 -56 -57 -38 -7 -42 -5 -46 16
-3 13 -9 31 -12 40 -8 17 10 23 82 27 29 1 32 -2 32 -26z"/>
  <path d="M476 336 c-3 -13 -22 -38 -42 -56 -44 -39 -40 -49 8 -16 46 31 88 32
88 2 0 -20 -36 -53 -120 -109 -30 -21 -21 -22 25 -3 58 25 147 97 142 117 -4
14 3 18 34 21 30 3 39 0 39 -12 -1 -41 -77 -126 -164 -182 -71 -45 -53 -50 30
-8 84 43 185 146 188 191 1 11 4 19 9 19 4 0 16 0 27 0 17 0 20 -7 20 -41 0
-51 -26 -144 -46 -164 -18 -18 -29 -19 -55 -5 -25 14 -24 6 3 -30 51 -69 106
-19 133 119 10 50 21 94 26 97 5 3 9 14 9 24 0 25 -51 39 -105 29 -22 -3 -80
-10 -130 -14 -87 -6 -89 -6 -72 13 20 21 13 32 -19 32 -15 0 -24 -8 -28 -24z"/>
</g>
<g id="part-1" class="char-part">
  <path d="M310 534 c-25 -7 -69 -13 -99 -13 -52 -1 -53 -2 -38 -19 10 -10 24
-42 32 -70 16 -52 23 -60 41 -43 5 5 37 11 72 13 48 2 61 6 57 16 -3 8 4 35
15 60 11 25 17 49 13 53 -16 14 -49 16 -93 3z m35 -56 c-4 -24 -8 -44 -9 -45
-2 -2 -23 -6 -48 -9 -46 -6 -46 -6 -58 30 -7 21 -9 40 -6 44 6 5 71 18 109 21
17 1 18 -4 12 -41z"/>
</g>
<g id="part-2" class="char-part">
  <path d="M310 199 c-41 -10 -103 -21 -137 -25 -35 -4 -63 -9 -63 -12 0 -9 35
-31 50 -32 24 -1 250 73 250 82 0 11 -12 9 -100 -13z"/>
</g>
<g id="part-3" class="char-part">
  <path d="M615 580 c-16 -4 -52 -8 -79 -9 -45 -1 -48 -2 -42 -23 4 -13 10 -58
13 -100 l6 -78 36 6 c20 3 61 6 91 7 l55 2 12 55 c7 30 17 69 23 85 18 52 -32
76 -115 55z m55 -50 c0 -25 -4 -28 -48 -33 -26 -3 -54 -7 -62 -9 -10 -2 -16 7
-18 29 -3 34 3 38 73 46 44 4 55 -2 55 -33z m-10 -84 c0 -33 -1 -34 -51 -40
-58 -8 -72 0 -67 35 3 24 8 26 106 37 7 1 12 -11 12 -32z"/>
</g>
<g id="part-4" class="char-part">
  <path d="M480 340 c-7 -17 -31 -46 -53 -65 -47 -41 -38 -46 16 -10 23 16 49
25 69 24 18 0 82 2 142 7 l109 7 -6 -68 c-4 -37 -16 -88 -28 -112 -21 -43 -23
-44 -56 -38 l-34 6 17 -26 c28 -44 49 -48 82 -20 25 21 34 41 52 118 11 50 26
102 32 115 10 18 9 26 -5 39 -18 18 -35 19 -162 4 -49 -6 -103 -11 -119 -11
-28 0 -28 1 -12 19 17 19 17 20 -3 30 -27 15 -27 15 -41 -19z"/>
</g>
<g id="part-5" class="char-part">
  <path d="M680 290 c0 -5 -6 -9 -12 -7 -7 1 -12 -4 -10 -12 1 -7 -13 -33 -33
-57 -21 -25 -33 -49 -29 -55 4 -8 3 -9 -5 -5 -6 4 -32 -9 -59 -30 -71 -57 -71
-58 -15 -30 29 14 52 32 50 39 -1 6 4 11 12 9 21 -4 61 37 54 56 -5 11 -2 14
10 9 17 -6 34 24 28 52 -1 7 2 10 8 6 7 -3 11 2 11 14 0 12 -2 21 -5 21 -3 0
-5 -4 -5 -10z"/>
</g>
</g>
</svg>