<?xml version="1.0" standalone="no"?>
<!DOCTYPE svg PUBLIC "-//W3C//DTD SVG 20010904//EN"
 "http://www.w3.org/TR/2001/REC-SVG-20010904/DTD/svg10.dtd">
<svg version="1.0" xmlns="http://www.w3.org/2000/svg"
 width="96.000000pt" height="68.000000pt" viewBox="0 0 96.000000 68.000000"
 preserveAspectRatio="xMidYMid meet">
<metadata>
Created by potrace 1.16, written by Peter Selinger 2001-2019
Combined from part_0.svg through part_5.svg with named groups
</metadata>
<g transform="translate(0.000000,68.000000) scale(0.100000,-0.100000)" fill="#000000" stroke="none">
<g id="part-0" class="char-part">
  <path d="M599 596 c-2 -2 -80 -12 -174 -21 -93 -9 -178 -18 -188 -21 -32 -10
-7 -22 59 -29 l65 -7 -3 -57 c-2 -36 -8 -56 -15 -57 -7 -1 -52 -2 -99 -3 l-86
-1 15 -24 c9 -13 24 -68 33 -123 9 -54 22 -105 30 -113 12 -12 14 -12 14 1 0
13 21 17 128 23 70 3 159 9 199 13 l72 6 18 -32 c38 -67 78 -18 94 116 6 49
16 98 22 110 8 18 6 27 -9 44 -18 20 -25 20 -126 14 l-108 -7 0 55 0 56 48 6
c74 10 92 15 92 25 0 17 -68 38 -81 26z m-109 -121 c0 -30 -4 -55 -9 -55 -5 0
-23 -3 -40 -6 l-31 -6 0 61 0 61 40 0 40 0 0 -55z m218 -63 c12 -8 11 -77 -4
-172 l-5 -35 -82 0 c-45 0 -145 -4 -223 -9 l-141 -8 -15 92 c-10 65 -12 93 -4
95 6 2 37 6 69 9 55 6 57 6 57 -18 0 -14 -9 -41 -21 -60 -12 -20 -16 -36 -10
-36 14 0 58 60 66 91 5 20 15 28 37 33 54 11 58 9 58 -33 0 -57 33 -81 111
-81 46 0 59 3 59 15 0 12 -13 15 -55 15 -60 0 -73 12 -71 65 l1 30 75 6 c41 3
77 6 80 7 3 1 11 -2 18 -6z"/>
</g>
<g id="part-1" class="char-part">
  <path d="M559 586 c-2 -2 -60 -9 -129 -15 -171 -15 -201 -21 -194 -33 11 -17
414 9 433 27 1 2 0 8 -4 14 -6 10 -96 16 -106 7z"/>
</g>
<g id="part-2" class="char-part">
  <path d="M490 431 c0 -106 1 -110 26 -130 34 -26 144 -31 144 -6 0 11 -12 15
-46 15 -82 0 -86 5 -78 126 l7 104 -27 0 -26 0 0 -109z"/>
  <path d="M360 436 c0 -83 -3 -97 -25 -131 -34 -49 -24 -56 19 -13 40 40 56 90
56 176 0 60 -1 62 -25 62 -25 0 -25 0 -25 -94z"/>
</g>
<g id="part-3" class="char-part">
  <path d="M620 433 c-234 -24 -341 -33 -395 -33 -36 0 -65 -2 -65 -5 0 -3 7
-16 15 -28 7 -12 21 -63 30 -112 8 -50 18 -98 21 -107 6 -21 20 -23 27 -4 4 9
38 15 124 20 65 3 152 9 195 12 l76 6 16 -31 c36 -68 77 -23 95 104 7 44 17
95 22 113 21 64 -18 80 -161 65z m96 -95 c-13 -136 -14 -140 -48 -133 -17 4
-115 1 -219 -6 -104 -7 -191 -11 -193 -8 -6 6 -30 178 -25 183 7 7 312 33 403
35 l89 1 -7 -72z"/>
</g>
</g>
</svg>