<?xml version="1.0" standalone="no"?>
<!DOCTYPE svg PUBLIC "-//W3C//DTD SVG 20010904//EN"
 "http://www.w3.org/TR/2001/REC-SVG-20010904/DTD/svg10.dtd">
<svg version="1.0" xmlns="http://www.w3.org/2000/svg"
 width="96.000000pt" height="68.000000pt" viewBox="0 0 96.000000 68.000000"
 preserveAspectRatio="xMidYMid meet">
<metadata>
Created by potrace 1.16, written by Peter Selinger 2001-2019
Combined from part_0.svg through part_5.svg with named groups
</metadata>
<g transform="translate(0.000000,68.000000) scale(0.100000,-0.100000)" fill="#000000" stroke="none">
<g id="part-0" class="char-part">
  <path d="M366 546 c-18 -43 -84 -115 -148 -162 -83 -61 -57 -75 36 -19 162 98
148 -24 -16 -132 -53 -36 -40 -40 25 -9 75 37 161 118 163 154 1 25 4 27 52
30 62 4 64 -2 22 -74 -31 -56 -124 -145 -208 -201 -58 -38 -62 -54 -10 -33 76
31 174 112 251 207 42 52 57 78 52 91 -4 15 0 21 21 26 14 4 34 4 45 1 26 -9
25 -77 -2 -180 -36 -139 -59 -165 -128 -140 -23 8 -41 11 -41 7 1 -4 18 -26
39 -49 46 -51 76 -55 113 -16 39 42 54 78 77 188 12 55 29 121 38 147 31 87 0
96 -222 69 -88 -11 -162 -17 -165 -15 -2 3 19 28 49 57 l53 51 -22 18 c-34 28
-58 23 -74 -16z"/>
</g>
<g id="part-1" class="char-part">
  <path d="M374 553 c-9 -38 -72 -111 -140 -164 -66 -51 -55 -65 17 -20 32 20
64 31 87 31 20 0 84 7 142 15 149 20 187 20 195 -4 13 -42 -40 -267 -73 -303
-17 -20 -48 -23 -88 -8 -25 10 -26 9 -13 -7 31 -42 64 -73 76 -73 22 0 79 58
96 97 9 21 25 85 37 143 12 58 28 117 36 132 8 15 14 31 14 36 0 15 -76 44
-98 38 -23 -8 -254 -36 -292 -36 -22 0 -20 4 28 53 57 57 62 71 33 87 -32 17
-50 12 -57 -17z"/>
</g>
<g id="part-2" class="char-part">
  <path d="M367 367 c-16 -38 -59 -83 -123 -128 -24 -18 -42 -34 -39 -37 12 -12
123 57 177 109 50 49 58 62 48 74 -21 25 -49 18 -63 -18z"/>
</g>
<g id="part-3" class="char-part">
  <path d="M517 371 c-22 -63 -91 -139 -196 -216 -44 -33 -76 -61 -71 -63 19 -7
132 63 193 119 72 65 147 158 147 181 0 15 -20 28 -43 28 -7 0 -20 -22 -30
-49z"/>
</g>
</g>
</svg>