<?xml version="1.0" standalone="no"?>
<!DOCTYPE svg PUBLIC "-//W3C//DTD SVG 20010904//EN"
 "http://www.w3.org/TR/2001/REC-SVG-20010904/DTD/svg10.dtd">
<svg version="1.0" xmlns="http://www.w3.org/2000/svg"
 width="96.000000pt" height="68.000000pt" viewBox="0 0 96.000000 68.000000"
 preserveAspectRatio="xMidYMid meet">
<metadata>
Created by potrace 1.16, written by Peter Selinger 2001-2019
Combined from part_0.svg through part_5.svg with named groups
</metadata>
<g transform="translate(0.000000,68.000000) scale(0.100000,-0.100000)" fill="#000000" stroke="none">
<g id="part-0" class="char-part">
  <path d="M407 614 c-4 -4 3 -20 14 -36 12 -16 18 -32 15 -36 -4 -3 -61 -12
-127 -18 -125 -13 -144 -18 -119 -34 19 -12 67 -12 165 0 44 5 145 14 224 20
79 5 146 12 150 15 3 4 -3 13 -14 22 -16 12 -37 13 -103 8 -46 -3 -90 -9 -98
-12 -10 -4 -14 2 -14 21 0 21 -7 30 -35 42 -38 16 -49 17 -58 8z"/>
  <path d="M484 453 c-14 -45 -25 -63 -73 -121 l-51 -62 30 6 c23 5 38 0 65 -20
54 -42 50 -49 -65 -109 -54 -28 -55 -29 -17 -24 20 3 63 19 96 36 l58 29 59
-49 c56 -46 62 -48 119 -48 33 0 76 6 95 13 l34 13 -92 22 c-77 19 -182 63
-182 77 0 2 29 47 65 99 36 53 65 100 65 105 0 19 -55 27 -99 13 -58 -17 -61
-17 -58 9 3 30 -40 39 -49 11z m136 -57 c0 -22 -50 -112 -75 -136 l-22 -21
-51 35 -51 34 22 21 23 20 28 -24 c32 -27 66 -33 66 -11 0 18 -19 33 -53 41
-46 12 -27 40 33 48 69 8 80 7 80 -7z"/>
  <path d="M295 432 c-6 -30 -101 -136 -148 -167 -15 -10 -26 -20 -23 -22 6 -6
64 25 103 55 29 22 33 22 39 7 10 -26 -4 -143 -20 -166 -11 -16 -12 -28 -4
-50 12 -35 36 -38 43 -6 12 54 24 232 15 235 -19 7 -10 34 25 75 33 38 35 43
19 54 -28 20 -42 15 -49 -15z"/>
</g>
<g id="part-1" class="char-part">
  <path d="M410 608 c0 -7 14 -27 32 -45 l32 -33 -29 0 c-60 0 -255 -23 -255
-30 0 -17 54 -19 166 -5 66 7 174 17 242 21 67 3 122 11 122 16 0 21 -54 29
-127 18 -97 -13 -93 -14 -93 14 0 23 -10 30 -72 50 -10 3 -18 0 -18 -6z"/>
</g>
<g id="part-2" class="char-part">
  <path d="M292 426 c-7 -19 -47 -67 -93 -111 -84 -80 -77 -93 14 -29 40 29 49
32 54 18 9 -25 -3 -128 -20 -159 -11 -22 -12 -36 -5 -57 11 -32 34 -37 42 -10
14 43 23 237 12 254 -9 14 -4 25 28 57 33 34 37 42 26 56 -21 25 -45 18 -58
-19z"/>
</g>
<g id="part-3" class="char-part">
  <path d="M475 435 c-8 -21 -37 -66 -65 -101 -28 -35 -45 -64 -38 -64 7 0 40
29 74 64 58 59 66 63 118 70 49 5 56 4 56 -11 -1 -10 -7 -29 -15 -43 -19 -32
-19 -50 0 -50 8 0 21 13 30 29 8 17 27 42 41 58 24 26 24 28 7 41 -17 13 -76
12 -129 -3 -17 -5 -21 -2 -20 17 1 16 -5 24 -21 26 -17 3 -26 -5 -38 -33z"/>
</g>
<g id="part-4" class="char-part">
  <path d="M410 293 c1 -5 15 -17 32 -28 17 -11 36 -28 42 -37 13 -21 1 -31 -89
-79 -60 -31 -60 -31 -20 -25 22 3 66 19 98 36 l58 30 59 -51 60 -52 73 5 c40
3 81 9 91 15 15 8 5 13 -56 27 -70 16 -198 68 -198 81 0 4 11 21 25 39 29 38
31 46 10 46 -8 0 -28 -14 -43 -31 l-28 -32 -44 32 c-41 30 -70 40 -70 24z"/>
</g>
</g>
</svg>