<?xml version="1.0" standalone="no"?>
<!DOCTYPE svg PUBLIC "-//W3C//DTD SVG 20010904//EN"
 "http://www.w3.org/TR/2001/REC-SVG-20010904/DTD/svg10.dtd">
<svg version="1.0" xmlns="http://www.w3.org/2000/svg"
 width="96.000000pt" height="68.000000pt" viewBox="0 0 96.000000 68.000000"
 preserveAspectRatio="xMidYMid meet">
<metadata>
Created by potrace 1.16, written by Peter Selinger 2001-2019
Combined from part_0.svg through part_5.svg with named groups
</metadata>
<g transform="translate(0.000000,68.000000) scale(0.100000,-0.100000)" fill="#000000" stroke="none">
<g id="part-0" class="char-part">
  <path d="M390 626 c0 -9 3 -16 8 -16 4 0 13 -9 20 -21 13 -20 12 -21 -94 -18
l-106 3 -18 -46 c-18 -47 -12 -78 14 -78 14 0 36 41 36 66 0 12 11 14 52 12
64 -4 80 -28 18 -28 -25 0 -39 -4 -35 -10 3 -5 22 -10 41 -10 27 0 34 -4 34
-19 0 -16 -8 -21 -42 -24 l-43 -4 48 -1 c40 -2 48 -5 45 -19 -2 -11 -14 -19
-33 -20 -17 -2 -48 -5 -70 -7 -22 -2 -50 -4 -62 -5 -13 -1 -23 -6 -23 -12 0
-9 21 -10 70 -6 39 3 70 2 70 -3 0 -14 -96 -93 -142 -117 -24 -12 -36 -23 -27
-23 20 0 139 59 159 79 13 13 15 11 18 -18 2 -18 -1 -46 -7 -63 -21 -59 -7
-74 50 -58 18 6 75 11 127 12 99 2 112 -4 112 -48 0 -36 -23 -57 -58 -52 -18
2 -32 2 -32 -1 1 -13 50 -61 63 -61 19 0 57 42 57 63 0 10 7 34 15 54 14 33
14 38 -2 56 -16 17 -26 19 -100 13 -71 -6 -83 -5 -83 8 0 12 10 16 35 16 19 0
35 5 35 10 0 6 -16 10 -36 10 -45 0 -42 24 4 28 41 4 42 22 2 22 -44 0 -37 17
10 25 61 10 50 28 -12 21 -151 -18 -158 -19 -158 -7 0 6 5 11 11 11 6 0 8 8 4
19 -5 17 1 20 62 23 79 4 81 3 193 -81 81 -62 87 -64 141 -64 89 1 91 14 8 38
-77 23 -213 87 -224 105 -4 6 27 10 89 10 53 0 96 4 96 9 0 18 -41 23 -124 16
-58 -5 -86 -4 -90 4 -9 13 20 26 69 30 19 2 -20 21 -43 21 -35 0 -21 24 16 28
18 2 32 7 32 12 0 12 -28 20 -45 14 -10 -4 -15 0 -15 15 0 19 6 21 66 21 l65
0 -21 -30 c-25 -35 -20 -36 59 -18 61 14 68 39 19 64 -26 14 -49 15 -135 10
-90 -6 -103 -5 -103 9 0 15 -14 23 -67 39 -17 6 -23 3 -23 -8z m90 -96 c0 -17
-7 -20 -40 -20 -27 0 -40 4 -40 13 0 21 11 27 47 27 26 0 33 -4 33 -20z m0
-54 c0 -16 -21 -26 -56 -26 -17 0 -24 6 -24 20 0 17 7 20 40 20 28 0 40 -4 40
-14z m0 -50 c0 -16 -21 -26 -56 -26 -14 0 -24 6 -24 14 0 13 15 18 68 25 6 0
12 -5 12 -13z m-43 -132 c4 -12 -27 -24 -60 -24 -14 0 -16 4 -8 19 11 20 62
24 68 5z m1 -46 c-3 -7 -21 -14 -41 -16 -28 -2 -37 1 -37 12 0 12 11 16 41 16
28 0 39 -4 37 -12z m-9 -50 c-12 -22 -79 -26 -79 -4 0 17 9 21 55 22 30 1 33
-1 24 -18z"/>
  <path d="M243 119 c-26 -41 -30 -69 -10 -69 20 0 39 42 35 76 l-3 29 -22 -36z"/>
  <path d="M500 142 c0 -5 9 -17 19 -26 22 -20 40 -4 21 19 -13 16 -40 20 -40 7z"/>
  <path d="M410 136 c0 -10 34 -46 43 -46 5 0 7 10 5 23 -2 14 -11 23 -25 25
-13 2 -23 1 -23 -2z"/>
  <path d="M342 100 c13 -18 26 -26 31 -21 14 14 -11 51 -34 51 -19 0 -19 -1 3
-30z"/>
</g>
<g id="part-1" class="char-part">
  <path d="M400 623 c0 -4 9 -17 21 -29 l21 -22 -77 -7 c-42 -4 -91 -5 -110 -2
-32 5 -35 4 -51 -38 -16 -44 -13 -65 10 -65 13 0 36 41 36 64 0 9 29 15 108
20 59 4 151 9 205 13 53 3 97 3 97 -1 0 -4 -8 -19 -17 -33 -16 -25 -17 -26 -1
-21 9 4 33 10 53 14 46 8 54 28 24 54 -21 18 -33 20 -99 15 -41 -3 -92 -9
-112 -12 -34 -5 -38 -3 -38 16 0 14 -9 25 -26 31 -30 12 -44 13 -44 3z"/>
</g>
<g id="part-2" class="char-part">
  <path d="M498 553 c-10 -2 -18 -13 -18 -24 0 -16 -7 -19 -40 -19 -29 0 -40 4
-40 15 0 9 -9 15 -25 15 -18 0 -25 -5 -25 -20 0 -16 -7 -20 -35 -20 -19 0 -35
-4 -35 -10 0 -5 18 -10 41 -10 33 0 40 -3 37 -17 -2 -12 -17 -20 -43 -25 -22
-4 21 -5 95 -2 147 5 190 11 168 25 -7 5 -23 9 -36 9 -31 0 -23 24 9 28 13 2
31 5 39 8 24 8 -16 27 -40 19 -16 -5 -20 -2 -20 14 0 21 -2 22 -32 14z m-18
-77 c0 -7 -10 -16 -22 -20 -42 -11 -58 -7 -58 14 0 17 7 20 40 20 27 0 40 -4
40 -14z"/>
</g>
<g id="part-3" class="char-part">
  <path d="M534 367 c10 -7 51 -38 92 -69 l73 -58 71 0 c38 0 70 3 70 8 0 4 -30
16 -67 26 -38 10 -106 38 -152 62 -76 40 -133 60 -87 31z"/>
  <path d="M280 321 c-25 -25 -72 -61 -105 -79 -73 -40 -36 -32 60 13 81 38 142
86 131 103 -13 21 -40 10 -86 -37z"/>
</g>
<g id="part-4" class="char-part">
  <path d="M237 115 c-21 -44 -22 -65 -2 -65 19 0 35 31 35 69 0 41 -12 39 -33
-4z"/>
  <path d="M500 142 c0 -14 39 -46 47 -38 4 4 2 15 -3 24 -12 19 -44 29 -44 14z"/>
  <path d="M338 108 c25 -39 42 -47 42 -20 0 21 -13 35 -44 46 -17 6 -17 4 2
-26z"/>
  <path d="M422 119 c21 -33 40 -37 36 -8 -2 17 -11 25 -27 27 -24 4 -24 3 -9
-19z"/>
</g>
</g>
</svg>