<?xml version="1.0" standalone="no"?>
<!DOCTYPE svg PUBLIC "-//W3C//DTD SVG 20010904//EN"
 "http://www.w3.org/TR/2001/REC-SVG-20010904/DTD/svg10.dtd">
<svg version="1.0" xmlns="http://www.w3.org/2000/svg"
 width="96.000000pt" height="68.000000pt" viewBox="0 0 96.000000 68.000000"
 preserveAspectRatio="xMidYMid meet">
<metadata>
Created by potrace 1.16, written by Peter Selinger 2001-2019
Combined from part_0.svg through part_5.svg with named groups
</metadata>
<g transform="translate(0.000000,68.000000) scale(0.100000,-0.100000)" fill="#000000" stroke="none">
<g id="part-0" class="char-part">
  <path d="M297 573 c4 -16 8 -62 8 -103 l0 -74 -44 -8 c-25 -4 -46 -6 -48 -4
-2 1 7 15 19 31 25 32 16 58 -24 63 -22 3 -26 -2 -31 -30 -3 -19 -19 -57 -36
-86 -17 -29 -31 -55 -31 -57 0 -15 31 0 58 28 29 30 35 32 87 29 l55 -4 0 -37
c0 -20 -6 -44 -12 -53 -14 -16 -151 -68 -180 -68 -24 0 -23 -17 1 -30 31 -16
49 -12 112 25 33 19 63 35 65 35 3 0 2 -24 -2 -52 -14 -97 -2 -145 31 -118 11
9 15 34 15 104 l0 92 41 23 c49 28 46 37 -5 16 l-37 -16 3 48 c3 43 6 48 28
51 79 9 92 32 18 32 l-41 0 6 84 c6 82 5 84 -19 95 -38 17 -45 14 -37 -16z"/>
  <path d="M564 538 c4 -13 10 -58 13 -100 l6 -78 -39 -1 c-21 -1 -50 -4 -64 -8
l-25 -7 23 -8 c13 -4 39 -5 57 -2 39 8 41 4 44 -78 3 -70 -2 -75 -84 -77 -33
0 -71 -4 -85 -9 l-25 -7 27 -11 c20 -8 50 -9 100 -2 40 5 123 10 185 10 61 0
118 3 127 6 54 21 -35 47 -119 35 -33 -5 -66 -6 -72 -4 -8 3 -13 23 -12 52 2
71 11 96 39 99 105 11 124 32 30 32 l-60 0 0 43 c0 23 5 58 10 77 12 41 -5 60
-53 60 -26 0 -29 -3 -23 -22z"/>
</g>
<g id="part-1" class="char-part">
  <path d="M185 448 c-4 -18 -22 -59 -41 -90 -18 -32 -30 -58 -26 -58 13 0 71
60 101 106 28 40 28 43 12 58 -26 24 -39 19 -46 -16z"/>
</g>
<g id="part-2" class="char-part">
  <path d="M297 573 c5 -16 8 -62 8 -103 l0 -75 -52 -8 c-69 -11 -68 -27 2 -27
l55 0 0 -39 c0 -22 -6 -46 -14 -53 -7 -8 -54 -27 -102 -43 -49 -17 -91 -31
-94 -33 -9 -6 33 -32 53 -32 10 0 46 16 79 35 33 20 63 34 65 31 3 -3 0 -32
-5 -66 -12 -66 -3 -110 22 -110 21 0 26 23 26 119 l0 86 45 25 c54 29 51 39
-5 16 l-40 -16 0 45 c0 44 0 45 39 51 76 12 83 39 10 36 l-42 -2 6 85 c6 85 6
86 -19 95 -39 15 -45 13 -37 -17z"/>
</g>
<g id="part-3" class="char-part">
  <path d="M567 523 c4 -21 8 -65 8 -98 0 -57 -1 -60 -25 -63 -14 -1 -41 -5 -60
-8 -29 -5 -32 -7 -17 -16 10 -5 37 -8 60 -6 l42 3 3 -71 c3 -82 2 -83 -98 -85
-30 0 -64 -4 -75 -9 -19 -7 -19 -8 -1 -15 10 -5 30 -8 45 -7 354 13 391 16
391 32 0 18 -74 29 -135 21 -86 -12 -88 -10 -82 66 2 35 7 67 11 70 3 3 29 10
57 14 86 14 82 33 -6 30 l-55 -2 0 44 c0 24 5 59 12 77 9 29 9 35 -7 47 -11 7
-32 13 -47 13 -28 0 -29 -1 -21 -37z"/>
</g>
</g>
</svg>