<?xml version="1.0" standalone="no"?>
<!DOCTYPE svg PUBLIC "-//W3C//DTD SVG 20010904//EN"
 "http://www.w3.org/TR/2001/REC-SVG-20010904/DTD/svg10.dtd">
<svg version="1.0" xmlns="http://www.w3.org/2000/svg"
 width="96.000000pt" height="68.000000pt" viewBox="0 0 96.000000 68.000000"
 preserveAspectRatio="xMidYMid meet">
<metadata>
Created by potrace 1.16, written by Peter Selinger 2001-2019
Combined from part_0.svg through part_5.svg with named groups
</metadata>
<g transform="translate(0.000000,68.000000) scale(0.100000,-0.100000)" fill="#000000" stroke="none">
<g id="part-0" class="char-part">
  <path d="M650 568 c0 -34 -20 -56 -55 -61 l-30 -4 32 -8 c29 -6 32 -11 27 -34
l-5 -26 25 30 c28 32 27 32 101 34 47 2 49 3 30 17 -11 8 -33 14 -50 12 -27
-3 -30 0 -30 27 0 23 -5 31 -22 33 -18 3 -23 -1 -23 -20z"/>
  <path d="M227 533 c10 -58 6 -252 -7 -381 -9 -98 -2 -142 24 -142 29 0 36 39
36 209 l0 170 27 -25 c17 -16 35 -23 48 -20 11 2 38 1 60 -2 36 -7 40 -10 45
-42 l5 -35 124 -3 c132 -3 167 2 141 18 -9 6 -64 7 -127 3 l-113 -6 0 35 0 35
83 6 c45 4 106 7 135 7 39 0 52 4 49 13 -3 8 -28 12 -86 10 -64 -1 -81 2 -81
13 0 15 -46 41 -56 31 -3 -3 2 -17 11 -31 l17 -26 -33 -1 c-19 0 -43 -2 -54
-4 -59 -12 -92 -8 -113 13 -12 12 -33 24 -48 28 -25 6 -26 8 -22 76 2 60 0 72
-17 84 -10 8 -27 14 -38 14 -16 0 -17 -5 -10 -47z"/>
  <path d="M422 549 c3 -13 7 -31 9 -39 3 -12 -7 -16 -44 -18 -42 -3 -47 -5 -36
-18 9 -11 23 -13 56 -8 36 5 43 4 43 -10 0 -9 7 -16 15 -16 9 0 15 9 15 25 0
19 5 25 23 26 21 1 21 1 -3 8 -18 5 -26 15 -28 34 -2 15 -7 27 -12 27 -5 0
-16 3 -26 7 -14 5 -16 2 -12 -18z"/>
  <path d="M127 355 c-28 -58 -27 -85 4 -85 25 0 51 53 47 97 -4 54 -20 50 -51
-12z"/>
  <path d="M420 227 c-1 -1 -2 -33 -3 -70 -2 -64 -4 -71 -35 -98 -40 -35 -20
-38 30 -4 39 26 43 34 53 106 5 42 4 46 -20 57 -14 6 -25 11 -25 9z"/>
  <path d="M650 151 c0 -74 2 -81 26 -100 20 -16 41 -21 83 -21 62 0 93 12 70
26 -7 4 -29 7 -48 5 -19 -1 -48 1 -64 5 l-30 6 6 73 c6 61 4 74 -9 79 -31 12
-34 5 -34 -73z"/>
  <path d="M530 131 c0 -71 3 -90 15 -95 20 -7 22 1 28 96 4 62 3 78 -10 82 -30
12 -33 4 -33 -83z"/>
</g>
<g id="part-1" class="char-part">
  <path d="M226 563 c14 -33 16 -182 5 -348 -12 -172 -6 -220 23 -195 10 7 16
62 21 190 l7 180 30 -25 c36 -30 48 -32 48 -4 0 15 -12 25 -41 37 l-41 17 7
67 c6 61 4 67 -17 82 -31 22 -52 21 -42 -1z"/>
  <path d="M132 357 c-26 -60 -28 -87 -7 -87 29 0 63 79 50 119 -10 32 -18 26
-43 -32z"/>
</g>
<g id="part-2" class="char-part">
  <path d="M650 561 c0 -34 -14 -48 -55 -53 l-30 -5 33 -8 c36 -8 36 -9 22 -36
-16 -29 3 -23 33 11 23 26 34 30 77 30 49 0 66 12 34 24 -9 3 -29 6 -45 6 -26
0 -28 2 -20 18 12 22 -3 42 -31 42 -13 0 -18 -8 -18 -29z"/>
  <path d="M415 553 c20 -46 12 -58 -40 -63 -48 -5 -49 -6 -26 -18 14 -9 36 -11
58 -7 28 5 37 2 53 -17 l19 -23 1 28 c0 21 6 30 23 35 22 6 22 6 -3 12 -17 4
-26 14 -29 30 -3 28 -17 40 -45 40 -13 0 -16 -4 -11 -17z"/>
</g>
<g id="part-3" class="char-part">
  <path d="M536 409 c8 -17 14 -33 12 -35 -2 -2 -41 -6 -86 -10 -57 -5 -80 -10
-73 -17 8 -8 50 -7 138 1 71 7 148 12 173 12 25 0 52 4 59 9 24 16 -31 24
-103 16 -57 -6 -64 -4 -68 13 -3 10 -19 24 -37 30 l-31 11 16 -30z"/>
</g>
<g id="part-4" class="char-part">
  <path d="M650 144 l0 -85 35 -15 c35 -14 111 -19 139 -8 29 11 6 24 -42 24
-26 0 -58 3 -71 7 -23 6 -23 9 -18 79 4 59 3 74 -10 78 -30 12 -33 4 -33 -80z"/>
</g>
</g>
</svg>