<?xml version="1.0" standalone="no"?>
<!DOCTYPE svg PUBLIC "-//W3C//DTD SVG 20010904//EN"
 "http://www.w3.org/TR/2001/REC-SVG-20010904/DTD/svg10.dtd">
<svg version="1.0" xmlns="http://www.w3.org/2000/svg"
 width="96.000000pt" height="68.000000pt" viewBox="0 0 96.000000 68.000000"
 preserveAspectRatio="xMidYMid meet">
<metadata>
Created by potrace 1.16, written by Peter Selinger 2001-2019
Combined from part_0.svg through part_5.svg with named groups
</metadata>
<g transform="translate(0.000000,68.000000) scale(0.100000,-0.100000)" fill="#000000" stroke="none">
<g id="part-0" class="char-part">
  <path d="M635 589 c-51 -11 -126 -18 -173 -17 -45 0 -85 -2 -89 -6 -3 -3 -2
-6 4 -6 14 0 39 -63 48 -120 11 -72 25 -120 35 -120 6 0 10 6 10 13 0 8 14 11
45 9 l45 -4 0 -128 c0 -118 8 -156 27 -136 3 3 10 66 16 140 l10 134 35 7 c24
4 39 2 52 -10 16 -14 19 -14 37 2 12 10 35 58 52 108 18 49 37 95 43 102 8 10
0 18 -33 33 -52 23 -48 23 -164 -1z m103 -60 l-3 -41 -60 -1 -60 -1 0 34 c0
41 12 48 78 49 l48 1 -3 -41z m-178 -20 l0 -40 -52 3 c-46 3 -53 6 -58 28 -11
42 -2 50 56 50 l54 0 0 -41z m160 -70 c0 -43 -18 -59 -65 -59 -44 0 -45 1 -45
33 0 44 4 47 62 47 42 0 48 -3 48 -21z m-160 -29 l0 -40 -45 0 c-38 0 -45 3
-45 19 0 11 -3 26 -6 35 -4 11 4 16 38 19 23 2 46 4 51 5 4 1 7 -16 7 -38z"/>
  <path d="M245 533 c-25 -9 -58 -13 -86 -9 -26 2 -49 2 -53 -1 -3 -3 4 -17 14
-31 11 -13 20 -31 20 -38 0 -36 24 -116 36 -121 7 -3 21 2 29 11 9 9 28 16 43
16 46 0 72 11 72 31 0 10 9 44 21 75 12 31 17 59 13 64 -18 16 -70 18 -109 3z
m32 -73 c-8 -65 -12 -70 -51 -70 -31 0 -34 3 -40 36 -4 19 -9 41 -12 49 -5 11
39 26 100 34 5 0 6 -22 3 -49z"/>
</g>
<g id="part-1" class="char-part">
  <path d="M235 525 c-22 -8 -58 -11 -82 -8 l-42 5 19 -36 c10 -20 21 -59 25
-86 4 -27 13 -54 21 -61 11 -9 14 -8 14 4 0 11 17 16 65 22 36 3 63 10 61 14
-6 8 17 89 33 119 22 40 -33 53 -114 27z m45 -62 c0 -60 -6 -68 -51 -77 l-37
-7 -12 52 c-14 56 -9 65 35 72 67 9 65 11 65 -40z"/>
</g>
<g id="part-2" class="char-part">
  <path d="M655 593 c-33 -8 -108 -16 -167 -17 -60 0 -108 -2 -108 -4 0 -2 7
-17 16 -33 8 -17 22 -69 30 -117 15 -87 28 -117 42 -96 4 5 54 15 112 21 93
10 107 10 123 -5 16 -15 19 -14 36 4 10 10 31 55 46 99 15 44 34 88 42 97 19
21 10 35 -34 53 -43 18 -60 18 -138 -2z m85 -55 c0 -47 -8 -53 -72 -55 l-57
-2 2 37 c2 42 15 49 85 51 41 1 42 0 42 -31z m-182 -30 l3 -38 -49 0 c-53 0
-62 8 -62 56 0 24 3 25 53 22 l52 -3 3 -37z m166 -60 c-20 -67 -21 -68 -69
-68 l-46 0 3 38 c3 39 1 39 106 50 9 2 11 -5 6 -20z m-166 -41 l3 -37 -45 0
c-39 0 -46 3 -46 19 0 11 -3 26 -6 35 -4 11 3 16 33 19 56 5 58 4 61 -36z"/>
</g>
<g id="part-3" class="char-part">
  <path d="M573 343 c-16 -6 -18 -258 -3 -268 17 -11 27 35 34 158 8 121 6 126
-31 110z"/>
</g>
</g>
</svg>