<?xml version="1.0" standalone="no"?>
<!DOCTYPE svg PUBLIC "-//W3C//DTD SVG 20010904//EN"
 "http://www.w3.org/TR/2001/REC-SVG-20010904/DTD/svg10.dtd">
<svg version="1.0" xmlns="http://www.w3.org/2000/svg"
 width="96.000000pt" height="68.000000pt" viewBox="0 0 96.000000 68.000000"
 preserveAspectRatio="xMidYMid meet">
<metadata>
Created by potrace 1.16, written by Peter Selinger 2001-2019
Combined from part_0.svg through part_5.svg with named groups
</metadata>
<g transform="translate(0.000000,68.000000) scale(0.100000,-0.100000)" fill="#000000" stroke="none">
<g id="part-0" class="char-part">
  <path d="M452 567 c-11 -40 -30 -65 -100 -134 -30 -29 -51 -53 -47 -53 19 0
76 39 127 87 60 58 75 61 114 25 10 -10 35 -28 54 -42 19 -13 38 -29 42 -34
10 -15 158 -21 158 -7 0 6 -12 13 -27 17 -59 13 -71 17 -165 62 -74 35 -98 51
-98 66 0 17 -25 45 -42 46 -4 0 -11 -15 -16 -33z"/>
  <path d="M229 536 c40 -41 91 -51 91 -17 0 27 -18 38 -75 46 l-50 7 34 -36z"/>
  <path d="M130 460 c0 -19 52 -60 75 -60 20 0 25 5 25 24 0 18 -8 27 -31 35
-39 14 -69 14 -69 1z"/>
  <path d="M525 435 c-5 -2 -36 -6 -67 -10 -63 -7 -77 -22 -26 -27 21 -2 34 -9
36 -19 2 -13 -10 -18 -65 -25 l-68 -9 70 -5 c67 -5 70 -6 73 -32 3 -28 -3 -32
-43 -28 -19 2 -18 0 4 -24 14 -14 30 -26 37 -26 26 0 44 32 44 76 l0 44 43 1
c23 0 51 4 62 8 17 7 17 8 -8 15 -15 3 -45 3 -67 0 -36 -6 -40 -4 -40 15 0 17
8 22 40 27 22 4 40 10 40 15 0 9 -44 11 -65 4z"/>
  <path d="M226 354 c-21 -25 -50 -51 -62 -56 -15 -7 -24 -20 -24 -34 0 -25 26
-57 42 -52 12 4 97 157 98 176 0 22 -14 12 -54 -34z"/>
  <path d="M328 270 c-15 -22 -24 -40 -20 -40 17 0 83 53 79 63 -8 26 -34 16
-59 -23z"/>
  <path d="M570 299 c34 -33 82 -61 95 -55 37 14 -4 50 -70 62 -34 6 -38 5 -25
-7z"/>
  <path d="M403 224 c-8 -4 -9 -15 -2 -36 5 -18 7 -33 5 -36 -3 -2 -32 -6 -65
-9 -34 -3 -61 -9 -61 -14 0 -4 28 -9 63 -11 58 -3 62 -4 65 -29 3 -25 1 -26
-65 -32 -37 -4 -94 -7 -125 -7 -59 0 -86 -15 -45 -25 13 -4 103 -1 201 4 98 6
223 11 277 11 99 0 120 8 78 31 -15 8 -60 9 -150 4 -122 -7 -129 -6 -129 11 0
33 14 41 78 47 68 6 78 10 67 27 -4 7 -29 8 -72 4 l-66 -7 5 25 c6 33 -25 56
-59 42z"/>
</g>
<g id="part-1" class="char-part">
  <path d="M215 560 c-6 -10 38 -46 67 -56 29 -9 46 12 26 32 -18 18 -86 36 -93
24z"/>
  <path d="M130 461 c0 -16 61 -61 81 -61 24 0 26 36 2 48 -28 14 -83 22 -83 13z"/>
  <path d="M230 352 c-19 -21 -48 -47 -65 -59 -27 -19 -28 -23 -17 -48 7 -15 19
-25 28 -23 15 3 109 168 96 168 -4 0 -23 -17 -42 -38z"/>
</g>
<g id="part-2" class="char-part">
  <path d="M477 403 c-4 -3 -7 -14 -7 -24 0 -13 -13 -18 -66 -24 -80 -8 -76 -17
8 -19 l63 -1 0 -30 c0 -27 -3 -30 -29 -28 l-29 2 23 -24 c27 -29 42 -31 65 -9
11 12 15 30 13 58 -3 39 -2 41 27 44 17 1 45 5 64 8 56 9 15 25 -46 18 -49 -6
-53 -5 -53 15 0 20 -19 28 -33 14z"/>
  <path d="M321 269 c-32 -39 -33 -41 -10 -34 34 10 90 55 84 66 -13 19 -41 7
-74 -32z"/>
  <path d="M600 276 c45 -36 70 -42 77 -19 6 16 -34 40 -82 49 l-40 7 45 -37z"/>
</g>
<g id="part-3" class="char-part">
  <path d="M398 224 c-4 -3 -2 -19 3 -37 5 -17 7 -33 4 -35 -2 -2 -33 -7 -69 -9
-83 -7 -76 -23 10 -23 l64 0 0 -29 0 -29 -130 -7 c-123 -7 -159 -17 -107 -31
13 -3 109 -1 213 5 104 6 228 11 277 11 87 0 106 9 66 31 -15 8 -61 9 -151 4
l-130 -7 4 28 c3 28 5 29 78 37 41 5 77 10 79 13 13 12 -18 19 -81 17 -70 -3
-70 -3 -64 22 5 18 1 27 -13 35 -22 11 -45 13 -53 4z"/>
</g>
</g>
</svg>