<?xml version="1.0" standalone="no"?>
<!DOCTYPE svg PUBLIC "-//W3C//DTD SVG 20010904//EN"
 "http://www.w3.org/TR/2001/REC-SVG-20010904/DTD/svg10.dtd">
<svg version="1.0" xmlns="http://www.w3.org/2000/svg"
 width="96.000000pt" height="68.000000pt" viewBox="0 0 96.000000 68.000000"
 preserveAspectRatio="xMidYMid meet">
<metadata>
Created by potrace 1.16, written by Peter Selinger 2001-2019
Combined from part_0.svg through part_5.svg with named groups
</metadata>
<g transform="translate(0.000000,68.000000) scale(0.100000,-0.100000)" fill="#000000" stroke="none">
<g id="part-0" class="char-part">
  <path d="M210 545 c0 -8 14 -30 30 -48 17 -19 30 -37 30 -40 0 -3 -38 -11 -85
-18 -47 -7 -88 -15 -90 -19 -2 -4 7 -13 21 -20 21 -12 35 -12 82 -1 31 6 86
17 122 23 93 14 95 15 79 34 -10 12 -25 15 -54 11 -38 -4 -41 -2 -38 17 5 26
-22 53 -66 66 -24 7 -31 6 -31 -5z"/>
  <path d="M575 479 c-72 -10 -136 -18 -142 -18 -8 -1 -5 -9 8 -22 20 -20 21
-29 17 -173 -3 -83 -8 -158 -12 -166 -3 -9 -1 -24 7 -33 11 -16 18 -17 62 -7
28 7 111 13 185 15 74 2 137 4 139 4 2 1 -3 8 -10 17 -12 15 -30 16 -144 9
-71 -4 -143 -8 -160 -9 l-30 -1 3 170 c2 94 7 173 11 178 4 4 67 10 139 14 73
3 132 10 132 14 0 12 -36 29 -57 28 -10 -1 -76 -10 -148 -20z"/>
  <path d="M630 384 c-105 -15 -105 -16 -50 -23 42 -6 45 -8 48 -38 3 -32 2 -33
-32 -33 -45 0 -47 -18 -4 -22 29 -3 33 -6 33 -33 0 -29 -2 -30 -52 -33 -53 -3
-69 -16 -35 -26 10 -3 49 -2 87 3 39 5 94 6 123 3 32 -3 52 -1 52 6 0 15 -26
22 -81 22 -47 0 -49 1 -49 29 0 32 14 41 61 41 18 0 28 4 24 10 -3 6 -24 10
-46 10 -36 0 -39 2 -39 29 0 30 14 41 56 41 28 0 33 16 7 22 -10 2 -56 -2
-103 -8z"/>
  <path d="M257 364 c-32 -7 -61 -15 -65 -19 -10 -11 125 2 144 13 28 16 -15 19
-79 6z"/>
  <path d="M225 293 c-36 -9 -41 -23 -8 -23 52 0 123 12 123 21 0 9 -80 10 -115
2z"/>
  <path d="M290 225 c-19 -7 -57 -14 -85 -14 -27 -1 -45 -5 -39 -9 7 -4 17 -25
23 -47 17 -65 30 -77 71 -65 19 5 47 10 62 10 21 0 28 5 28 19 0 10 7 36 16
57 15 35 15 39 -2 51 -21 16 -29 15 -74 -2z m30 -54 c0 -37 -3 -40 -37 -52
-32 -10 -38 -10 -50 7 -7 10 -13 30 -13 45 0 24 5 28 33 32 70 8 67 10 67 -32z"/>
</g>
<g id="part-1" class="char-part">
  <path d="M218 534 c31 -57 83 -81 90 -42 4 19 -29 43 -72 54 -25 6 -27 5 -18
-12z"/>
  <path d="M255 449 c-136 -25 -158 -31 -144 -40 20 -13 67 -11 145 5 38 8 86
18 107 21 21 3 35 10 32 16 -7 11 -72 10 -140 -2z"/>
</g>
<g id="part-2" class="char-part">
  <path d="M285 224 c-22 -8 -61 -14 -88 -12 -46 3 -62 -4 -33 -15 8 -3 22 -31
31 -62 14 -51 19 -56 38 -51 12 3 46 9 75 12 41 5 52 10 47 21 -3 8 4 35 15
59 l19 45 -25 9 c-31 12 -29 12 -79 -6z m35 -53 c0 -36 -3 -40 -35 -51 -19 -6
-39 -9 -44 -6 -9 6 -23 54 -22 73 0 7 38 16 89 22 8 1 12 -13 12 -38z"/>
</g>
<g id="part-3" class="char-part">
  <path d="M565 479 c-77 -10 -141 -18 -142 -18 -2 -1 6 -10 18 -22 20 -20 21
-28 16 -168 -3 -80 -8 -157 -11 -171 -12 -47 4 -55 76 -39 38 8 114 14 191 13
70 -1 127 2 127 6 0 4 -7 13 -16 20 -12 11 -45 11 -162 3 -81 -5 -153 -7 -161
-5 -11 4 -13 32 -7 156 9 203 5 192 78 200 34 3 94 6 134 6 76 0 96 12 48 30
-14 6 -31 9 -37 9 -7 -1 -75 -10 -152 -20z"/>
</g>
<g id="part-4" class="char-part">
  <path d="M630 384 c-115 -21 -114 -24 4 -19 99 4 127 8 115 19 -13 12 -53 12
-119 0z"/>
</g>
<g id="part-5" class="char-part">
  <path d="M635 339 c-4 -5 -4 -21 -1 -34 4 -17 11 -22 25 -18 17 4 18 9 9 34
-10 30 -22 37 -33 18z"/>
  <path d="M705 290 c-18 -8 -17 -9 8 -9 16 -1 26 3 22 9 -3 6 -7 10 -8 9 -1 0
-11 -4 -22 -9z"/>
  <path d="M580 280 c-11 -8 -8 -9 12 -4 20 4 29 1 37 -14 6 -11 8 -22 4 -25 -3
-4 0 -13 7 -22 11 -13 8 -15 -18 -15 -17 0 -34 -5 -38 -11 -4 -7 0 -9 14 -5
12 4 57 8 102 8 44 1 78 4 74 7 -3 3 -29 6 -57 6 l-52 0 1 38 c0 27 -3 36 -12
33 -8 -3 -16 -1 -19 4 -8 13 -36 12 -55 0z"/>
</g>
</g>
</svg>