<?xml version="1.0" standalone="no"?>
<!DOCTYPE svg PUBLIC "-//W3C//DTD SVG 20010904//EN"
 "http://www.w3.org/TR/2001/REC-SVG-20010904/DTD/svg10.dtd">
<svg version="1.0" xmlns="http://www.w3.org/2000/svg"
 width="96.000000pt" height="68.000000pt" viewBox="0 0 96.000000 68.000000"
 preserveAspectRatio="xMidYMid meet">
<metadata>
Created by potrace 1.16, written by Peter Selinger 2001-2019
Combined from part_0.svg through part_5.svg with named groups
</metadata>
<g transform="translate(0.000000,68.000000) scale(0.100000,-0.100000)" fill="#000000" stroke="none">
<g id="part-0" class="char-part">
  <path d="M597 584 c-13 -13 -300 -31 -333 -21 -50 15 -66 5 -52 -34 17 -48 4
-203 -23 -274 -23 -64 -47 -103 -87 -147 -22 -24 -23 -28 -8 -28 9 0 41 24 70
53 73 72 116 191 116 318 0 69 10 75 142 83 62 4 131 10 152 13 l39 6 -7 -129
c-8 -148 6 -222 52 -289 31 -44 89 -81 141 -89 48 -7 52 -1 35 46 -7 22 -14
52 -14 66 0 31 -11 22 -25 -21 -8 -24 -16 -31 -30 -29 -31 6 -71 50 -97 106
-36 81 -29 222 18 333 9 20 -72 54 -89 37z"/>
  <path d="M455 469 c-22 -4 -59 -8 -82 -8 -23 -1 -45 -5 -48 -11 -4 -6 8 -10
29 -10 29 0 36 -4 36 -19 0 -27 -22 -66 -64 -111 -36 -39 -34 -50 3 -30 15 7
26 2 55 -26 20 -19 36 -40 36 -45 0 -6 -22 -33 -50 -60 -56 -56 -62 -67 -22
-42 49 30 103 87 154 161 64 95 61 107 -29 98 l-67 -7 23 25 c19 20 22 28 12
40 -13 15 -10 16 82 32 20 3 37 10 37 15 0 11 -49 10 -105 -2z m35 -129 c0 -6
-9 -29 -21 -51 -19 -37 -22 -40 -37 -26 -9 9 -30 21 -46 27 -27 10 -28 11 -11
30 22 25 115 41 115 20z"/>
</g>
<g id="part-1" class="char-part">
  <path d="M210 551 c0 -4 5 -22 11 -40 8 -23 8 -57 0 -124 -13 -108 -31 -161
-83 -239 -21 -32 -35 -58 -30 -58 21 0 96 85 118 135 26 56 37 105 53 240 7
59 6 82 -2 87 -16 11 -67 10 -67 -1z"/>
</g>
<g id="part-2" class="char-part">
  <path d="M595 585 c-5 -2 -77 -11 -160 -20 -82 -9 -151 -17 -152 -18 -1 -2 1
-8 5 -14 7 -10 72 -7 266 12 l59 6 -6 -108 c-15 -256 44 -375 196 -398 50 -8
57 -2 36 37 -6 11 -14 41 -18 67 l-7 46 -15 -45 c-11 -35 -18 -44 -34 -42 -30
4 -93 79 -107 126 -20 64 -14 191 11 256 11 30 21 59 21 63 0 4 -16 15 -35 23
-35 14 -42 15 -60 9z"/>
</g>
<g id="part-3" class="char-part">
  <path d="M408 466 c-115 -17 -109 -30 12 -23 114 7 153 14 144 28 -6 11 -56
10 -156 -5z"/>
</g>
<g id="part-4" class="char-part">
  <path d="M390 425 c0 -23 -28 -74 -68 -122 -43 -54 -29 -55 30 -4 32 29 57 41
91 46 34 5 47 4 47 -5 0 -30 -69 -137 -124 -192 l-61 -61 41 21 c71 36 217
222 199 253 -6 8 -27 9 -72 5 l-65 -7 21 27 c16 21 18 30 10 40 -16 19 -49 18
-49 -1z"/>
</g>
<g id="part-5" class="char-part">
  <path d="M380 270 c15 -28 29 -33 27 -11 0 11 -9 22 -19 24 -14 4 -16 2 -8
-13z"/>
</g>
</g>
</svg>