<?xml version="1.0" standalone="no"?>
<!DOCTYPE svg PUBLIC "-//W3C//DTD SVG 20010904//EN"
 "http://www.w3.org/TR/2001/REC-SVG-20010904/DTD/svg10.dtd">
<svg version="1.0" xmlns="http://www.w3.org/2000/svg"
 width="96.000000pt" height="68.000000pt" viewBox="0 0 96.000000 68.000000"
 preserveAspectRatio="xMidYMid meet">
<metadata>
Created by potrace 1.16, written by Peter Selinger 2001-2019
Combined from part_0.svg through part_5.svg with named groups
</metadata>
<g transform="translate(0.000000,68.000000) scale(0.100000,-0.100000)" fill="#000000" stroke="none">
<g id="part-0" class="char-part">
  <path d="M416 556 c-12 -102 -12 -103 -116 -111 -117 -9 -118 -29 -2 -33 l82
-3 -21 -42 c-45 -88 -131 -188 -199 -232 -19 -12 -42 -30 -50 -40 -14 -17 -13
-18 12 -12 74 19 157 77 214 150 20 26 40 47 43 47 12 0 101 -93 101 -105 0
-18 -93 -72 -171 -99 -65 -23 -68 -25 -29 -20 60 8 158 41 191 65 15 10 32 19
39 19 6 0 38 -23 70 -51 l59 -51 88 4 c127 6 134 17 30 44 -79 21 -207 77
-207 90 0 3 21 37 46 76 26 40 43 77 39 86 -6 15 -8 15 -170 -7 -33 -4 -61 -7
-63 -6 -2 2 7 23 19 48 l22 45 111 12 c61 7 122 17 135 22 23 8 23 10 8 25
-16 16 -25 16 -123 2 -105 -15 -105 -15 -100 5 3 12 6 27 6 34 0 7 3 11 8 9 4
-3 8 8 9 25 2 25 -3 31 -32 44 -19 8 -36 14 -38 14 -2 0 -7 -24 -11 -54z m144
-248 c-1 -18 -36 -94 -47 -101 -4 -3 -31 16 -59 43 l-50 48 60 9 c87 14 96 14
96 1z"/>
</g>
<g id="part-1" class="char-part">
  <path d="M420 563 c0 -21 -5 -55 -10 -75 -11 -36 -11 -36 -78 -43 -37 -3 -78
-8 -92 -11 -23 -5 -23 -6 -6 -16 11 -6 43 -8 77 -4 34 3 61 2 64 -4 7 -12 -32
-86 -81 -153 -19 -26 -66 -73 -104 -104 -75 -62 -78 -78 -8 -42 94 47 175 136
228 248 31 64 30 64 140 76 137 15 150 18 150 34 0 18 -42 18 -135 3 -52 -8
-97 -13 -100 -10 -3 3 3 29 14 57 l19 51 -21 15 c-38 27 -57 20 -57 -22z"/>
</g>
<g id="part-2" class="char-part">
  <path d="M539 345 c-3 -2 -36 -9 -73 -14 -100 -14 -106 -30 -37 -96 54 -52 55
-54 38 -73 -25 -28 -103 -68 -170 -87 -75 -22 -67 -30 13 -15 63 11 149 45
185 73 18 14 23 11 78 -39 56 -52 60 -54 116 -54 74 0 151 10 151 20 0 5 -33
15 -74 24 -73 17 -216 78 -216 93 0 4 22 41 49 81 45 66 48 73 31 82 -19 10
-83 14 -91 5z m21 -34 c0 -23 -41 -101 -53 -101 -7 0 -32 20 -56 44 l-44 44
49 7 c27 4 54 8 59 10 20 7 45 5 45 -4z"/>
</g>
</g>
</svg>