<?xml version="1.0" standalone="no"?>
<!DOCTYPE svg PUBLIC "-//W3C//DTD SVG 20010904//EN"
 "http://www.w3.org/TR/2001/REC-SVG-20010904/DTD/svg10.dtd">
<svg version="1.0" xmlns="http://www.w3.org/2000/svg"
 width="96.000000pt" height="68.000000pt" viewBox="0 0 96.000000 68.000000"
 preserveAspectRatio="xMidYMid meet">
<metadata>
Created by potrace 1.16, written by Peter Selinger 2001-2019
Combined from part_0.svg through part_5.svg with named groups
</metadata>
<g transform="translate(0.000000,68.000000) scale(0.100000,-0.100000)" fill="#000000" stroke="none">
<g id="part-0" class="char-part">
  <path d="M465 549 c-55 -10 -130 -21 -167 -25 -46 -4 -68 -11 -68 -20 0 -25
67 -26 200 -4 72 12 134 20 136 17 9 -8 -68 -75 -101 -88 -16 -7 -31 -14 -33
-15 -2 -1 4 -17 13 -35 20 -38 30 -168 18 -224 -9 -38 -11 -40 -47 -39 l-38 1
38 -38 c46 -48 67 -49 85 -6 15 34 19 177 8 280 l-7 58 104 51 c57 27 104 54
104 59 0 16 -78 49 -112 48 -18 -1 -78 -10 -133 -20z"/>
</g>
<g id="part-1" class="char-part">
  <path d="M460 544 c-69 -12 -146 -23 -172 -23 -57 -1 -70 -16 -26 -29 25 -8
65 -5 168 12 74 13 139 21 144 18 6 -3 -14 -27 -43 -53 -29 -26 -49 -49 -44
-52 10 -6 207 89 211 103 4 11 -75 50 -98 48 -8 0 -71 -11 -140 -24z"/>
</g>
<g id="part-2" class="char-part">
  <path d="M435 403 c28 -65 34 -97 34 -163 -1 -114 -7 -126 -57 -122 l-41 2 39
-40 c80 -84 106 -46 103 156 -1 160 -8 184 -54 184 -26 0 -30 -3 -24 -17z"/>
</g>
</g>
</svg>