<?xml version="1.0" standalone="no"?>
<!DOCTYPE svg PUBLIC "-//W3C//DTD SVG 20010904//EN"
 "http://www.w3.org/TR/2001/REC-SVG-20010904/DTD/svg10.dtd">
<svg version="1.0" xmlns="http://www.w3.org/2000/svg"
 width="96.000000pt" height="68.000000pt" viewBox="0 0 96.000000 68.000000"
 preserveAspectRatio="xMidYMid meet">
<metadata>
Created by potrace 1.16, written by Peter Selinger 2001-2019
Combined from part_0.svg through part_5.svg with named groups
</metadata>
<g transform="translate(0.000000,68.000000) scale(0.100000,-0.100000)" fill="#000000" stroke="none">
<g id="part-0" class="char-part">
  <path d="M447 602 l6 -60 -62 -7 c-91 -10 -77 -35 20 -35 48 0 49 -1 49 -29 0
-17 -3 -32 -8 -35 -4 -2 -72 -10 -150 -17 -78 -7 -142 -16 -142 -20 0 -16 89
-18 163 -4 43 8 97 15 120 15 37 -1 39 -2 22 -12 -11 -6 -22 -14 -25 -18 -12
-14 -165 -100 -235 -130 -41 -18 -73 -35 -71 -37 9 -9 123 30 197 68 54 28 88
39 120 39 24 0 61 4 82 9 23 6 39 5 43 -1 10 -15 -27 -48 -55 -48 -19 0 -22
-3 -13 -12 7 -7 12 -19 12 -29 0 -13 -14 -17 -67 -22 -38 -4 -87 -7 -110 -7
-43 0 -57 -13 -27 -24 9 -3 60 -3 115 1 l99 6 0 -39 c0 -54 -11 -67 -46 -58
l-29 6 37 -38 c36 -36 39 -38 55 -21 12 12 19 38 21 87 l4 70 102 0 c114 0
140 8 103 33 -20 13 -36 14 -106 5 -91 -11 -111 -7 -111 19 0 13 18 25 60 41
33 13 60 28 60 33 0 6 -16 17 -36 25 -27 11 -44 12 -67 5 -50 -15 -117 -24
-117 -14 0 4 25 23 54 41 53 32 56 32 179 32 133 0 163 10 104 35 -28 12 -47
12 -92 4 -102 -19 -108 -10 -36 45 l64 49 -29 24 -29 23 -25 -32 c-29 -39
-122 -128 -132 -128 -5 0 -8 16 -8 35 0 33 2 35 39 41 21 3 44 10 52 15 24 15
-6 32 -50 27 l-40 -3 6 41 c6 45 3 48 -44 58 l-31 7 5 -59z"/>
</g>
<g id="part-1" class="char-part">
  <path d="M445 633 c5 -10 10 -34 13 -54 3 -31 1 -37 -20 -42 -12 -4 -37 -7
-55 -7 -17 0 -35 -4 -38 -10 -4 -6 17 -10 54 -10 l61 0 0 -35 c0 -31 3 -35 25
-35 22 0 25 4 25 39 0 38 0 38 45 44 76 8 76 33 0 29 l-44 -2 -3 48 c-3 45 -4
47 -37 50 -29 3 -33 1 -26 -15z"/>
</g>
<g id="part-2" class="char-part">
  <path d="M645 567 c-9 -19 -40 -55 -69 -80 l-53 -46 -164 -15 c-89 -9 -171
-16 -181 -16 -10 0 -18 -4 -18 -9 0 -19 79 -22 166 -7 49 9 104 16 123 16 l34
0 -34 -23 c-60 -41 -232 -134 -282 -152 -61 -23 -53 -31 15 -15 62 15 218 91
318 155 l70 45 130 0 c71 0 131 4 134 9 3 5 -12 16 -35 25 -34 14 -50 15 -104
5 -105 -18 -103 -14 35 89 6 5 -48 52 -60 52 -5 0 -16 -15 -25 -33z"/>
</g>
<g id="part-3" class="char-part">
  <path d="M515 349 c-44 -9 -84 -18 -90 -18 -5 -1 -3 -6 6 -11 10 -6 38 -5 77
2 34 6 65 8 69 5 3 -4 -4 -18 -17 -32 -13 -14 -19 -25 -14 -25 17 0 134 54
134 63 0 8 -64 38 -77 36 -4 -1 -44 -10 -88 -20z"/>
</g>
<g id="part-4" class="char-part">
  <path d="M516 252 c6 -29 6 -29 -57 -35 -34 -4 -86 -7 -115 -7 -30 0 -54 -4
-54 -10 0 -17 50 -23 129 -14 111 13 115 12 107 -44 -3 -25 -8 -47 -11 -50 -2
-2 -19 1 -37 7 l-33 12 42 -43 c41 -40 44 -42 60 -25 12 12 19 38 21 87 l4 70
62 1 c33 0 79 1 101 1 59 0 75 12 39 30 -20 10 -44 12 -79 7 -88 -13 -135 -11
-135 6 0 12 -28 35 -44 35 -3 0 -3 -13 0 -28z"/>
</g>
</g>
</svg>