<?xml version="1.0" standalone="no"?>
<!DOCTYPE svg PUBLIC "-//W3C//DTD SVG 20010904//EN"
 "http://www.w3.org/TR/2001/REC-SVG-20010904/DTD/svg10.dtd">
<svg version="1.0" xmlns="http://www.w3.org/2000/svg"
 width="96.000000pt" height="68.000000pt" viewBox="0 0 96.000000 68.000000"
 preserveAspectRatio="xMidYMid meet">
<metadata>
Created by potrace 1.16, written by Peter Selinger 2001-2019
Combined from part_0.svg through part_5.svg with named groups
</metadata>
<g transform="translate(0.000000,68.000000) scale(0.100000,-0.100000)" fill="#000000" stroke="none">
<g id="part-0" class="char-part">
  <path d="M276 598 c-15 -52 -40 -107 -59 -131 -12 -16 -37 -47 -55 -69 -18
-22 -31 -43 -28 -45 7 -7 48 17 81 47 29 26 107 50 162 50 l26 0 -5 -112 c-6
-122 -22 -201 -45 -219 -10 -9 -23 -9 -50 -1 -21 6 -38 10 -40 8 -8 -7 61 -86
76 -86 9 0 30 13 46 30 15 16 31 27 36 25 14 -9 58 14 97 52 46 45 98 142 113
213 l11 51 46 -3 47 -3 -3 -65 c-2 -67 -11 -107 -39 -172 -15 -35 -19 -38 -55
-38 l-39 0 21 -22 c11 -12 20 -25 20 -30 0 -4 11 -8 23 -8 46 0 80 61 106 194
11 52 24 103 30 114 16 31 14 38 -19 52 -19 8 -47 10 -81 5 l-52 -7 7 43 c4
24 9 58 12 75 5 28 3 33 -27 43 -43 15 -42 15 -35 -19 8 -42 -5 -151 -18 -155
-6 -2 -33 -6 -60 -10 -36 -5 -45 -10 -37 -18 8 -8 22 -8 51 0 22 5 41 8 44 6
8 -8 -16 -87 -45 -148 -26 -52 -106 -152 -115 -143 -1 2 2 28 7 58 4 30 13 98
18 150 6 52 13 107 17 122 10 41 -26 54 -114 41 -37 -6 -68 -9 -70 -8 -2 2 10
22 27 46 37 50 38 63 9 83 -27 19 -37 20 -42 4z"/>
  <path d="M225 329 c-22 -6 -51 -7 -64 -4 -20 5 -22 3 -16 -12 4 -10 9 -27 12
-38 23 -93 24 -96 36 -87 7 6 33 13 59 17 35 5 45 11 41 22 -3 8 3 32 13 54
15 35 16 42 3 50 -17 10 -31 10 -84 -2z m40 -19 c7 -11 -5 -84 -12 -76 -3 3
-16 1 -29 -5 -27 -10 -31 -5 -36 46 -3 29 3 33 64 44 4 0 10 -3 13 -9z"/>
</g>
<g id="part-1" class="char-part">
  <path d="M270 575 c0 -35 -30 -91 -85 -158 -25 -31 -43 -57 -40 -57 11 0 60
35 80 57 16 18 35 24 97 29 96 8 96 10 80 -143 -13 -134 -40 -209 -72 -199
-71 22 -68 23 -39 -15 31 -40 51 -46 83 -26 38 25 54 75 62 187 4 58 12 127
19 153 12 46 11 49 -10 63 -19 13 -34 13 -89 4 -36 -7 -70 -10 -75 -8 -6 1 6
27 27 56 36 52 36 54 18 68 -32 23 -56 18 -56 -11z"/>
</g>
<g id="part-2" class="char-part">
  <path d="M230 329 c-14 -6 -42 -8 -63 -5 -37 6 -38 6 -23 -16 8 -13 18 -44 21
-71 7 -46 25 -73 33 -49 2 6 26 14 53 18 27 4 46 11 43 16 -3 5 1 29 11 54 9
24 14 48 10 54 -8 13 -52 12 -85 -1z m35 -51 c-10 -45 -12 -48 -44 -48 -25 0
-29 5 -34 33 -6 43 -3 47 44 47 41 0 41 0 34 -32z"/>
</g>
<g id="part-3" class="char-part">
  <path d="M602 526 c0 -93 -7 -116 -36 -116 -42 0 -86 -12 -80 -22 4 -5 27 -7
54 -3 l48 7 -9 -41 c-16 -74 -57 -150 -110 -206 -59 -62 -46 -75 23 -22 53 41
94 107 128 205 23 69 29 77 53 80 35 4 35 22 1 22 -29 0 -29 0 -8 116 5 25 1
32 -21 42 -14 7 -30 12 -34 12 -5 0 -9 -33 -9 -74z"/>
</g>
<g id="part-4" class="char-part">
  <path d="M707 433 c-13 -12 -7 -23 13 -23 16 0 20 -7 20 -37 0 -52 -25 -165
-46 -209 -16 -34 -19 -36 -60 -32 l-43 3 31 -32 c18 -18 39 -33 48 -33 38 0
72 66 95 185 10 50 24 102 31 117 8 15 14 31 14 36 0 21 -86 42 -103 25z"/>
</g>
</g>
</svg>