<?xml version="1.0" standalone="no"?>
<!DOCTYPE svg PUBLIC "-//W3C//DTD SVG 20010904//EN"
 "http://www.w3.org/TR/2001/REC-SVG-20010904/DTD/svg10.dtd">
<svg version="1.0" xmlns="http://www.w3.org/2000/svg"
 width="96.000000pt" height="68.000000pt" viewBox="0 0 96.000000 68.000000"
 preserveAspectRatio="xMidYMid meet">
<metadata>
Created by potrace 1.16, written by Peter Selinger 2001-2019
Combined from part_0.svg through part_5.svg with named groups
</metadata>
<g transform="translate(0.000000,68.000000) scale(0.100000,-0.100000)" fill="#000000" stroke="none">
<g id="part-0" class="char-part">
  <path d="M527 643 c-4 -3 -7 -24 -7 -45 0 -35 -2 -38 -29 -38 -41 0 -49 -19
-13 -26 28 -6 29 -8 22 -35 -11 -39 3 -37 37 6 19 24 36 35 54 35 46 0 119 12
119 20 0 17 -56 29 -92 21 -36 -8 -37 -8 -26 12 9 17 7 24 -12 39 -23 19 -42
23 -53 11z"/>
  <path d="M260 607 c0 -7 7 -23 16 -35 9 -13 14 -26 11 -29 -3 -3 -38 -8 -78
-11 -71 -7 -72 -8 -54 -25 16 -16 28 -18 83 -12 61 6 67 5 84 -17 15 -20 19
-21 28 -8 6 8 8 23 6 32 -3 12 5 19 25 23 36 8 28 25 -12 25 -24 0 -29 4 -29
25 0 26 -25 45 -59 45 -12 0 -21 -6 -21 -13z"/>
  <path d="M404 438 l1 -43 -112 -9 c-62 -5 -113 -12 -113 -16 0 -15 49 -20 121
-10 111 14 109 15 109 -24 0 -31 -3 -34 -37 -40 -21 -3 -55 -6 -75 -6 -66 0
-41 -19 29 -22 l67 -3 -42 -40 c-24 -22 -70 -57 -105 -77 -90 -55 -97 -60 -67
-52 47 11 145 64 184 99 21 19 40 35 43 35 2 0 1 -44 -2 -99 -8 -102 0 -126
30 -101 11 10 15 38 15 116 0 57 3 104 6 104 3 0 50 -38 105 -85 l100 -85 57
0 c70 0 93 12 57 28 -14 7 -32 12 -39 12 -32 0 -276 141 -276 160 0 3 34 6 76
7 76 3 94 7 81 20 -7 6 -120 6 -150 0 -8 -1 -12 10 -12 33 l0 35 118 6 c114 6
138 11 123 27 -9 8 -118 9 -186 2 -42 -4 -45 -3 -48 20 -5 32 -20 50 -42 50
-13 0 -17 -9 -16 -42z"/>
</g>
<g id="part-1" class="char-part">
  <path d="M530 611 c0 -35 -22 -61 -53 -62 -19 -1 -19 -2 6 -12 24 -10 27 -15
22 -42 l-6 -30 21 24 c11 13 24 31 29 39 5 10 32 16 80 20 39 2 71 8 71 13 0
14 -40 21 -82 14 -41 -7 -41 -7 -34 20 8 30 -5 45 -36 45 -13 0 -18 -8 -18
-29z"/>
  <path d="M260 605 c0 -4 9 -18 20 -32 11 -14 17 -29 14 -34 -3 -5 -36 -9 -75
-9 -70 0 -86 -10 -47 -31 16 -9 34 -8 76 2 53 12 56 12 70 -9 19 -29 30 -28
34 5 2 19 10 29 28 34 23 6 23 7 -7 8 -28 1 -34 6 -41 34 -7 27 -13 33 -40 35
-18 2 -32 0 -32 -3z"/>
</g>
<g id="part-2" class="char-part">
  <path d="M407 441 c6 -47 7 -47 -134 -56 -57 -4 -103 -11 -103 -15 0 -16 59
-21 141 -10 46 5 87 10 91 10 13 0 9 -59 -7 -89 -21 -42 -100 -107 -182 -153
-40 -22 -73 -41 -73 -43 0 -5 101 25 125 37 11 6 48 33 83 60 l62 48 0 -42 c0
-24 -5 -60 -9 -82 -11 -44 1 -86 24 -86 19 0 25 26 28 139 l2 94 75 -64 c41
-35 86 -74 100 -86 20 -19 36 -23 85 -22 95 1 107 12 38 33 -79 25 -123 48
-221 114 l-83 56 3 46 3 45 110 6 c61 4 119 7 130 8 l20 2 -20 15 c-17 13 -39
14 -127 9 l-108 -7 0 30 c0 29 -14 42 -45 42 -9 0 -12 -11 -8 -39z"/>
</g>
<g id="part-3" class="char-part">
  <path d="M410 336 c0 -31 -3 -34 -37 -40 -21 -3 -55 -6 -75 -6 -21 0 -38 -4
-38 -10 0 -6 32 -10 75 -10 l75 0 0 -55 c0 -48 2 -55 20 -55 18 0 20 7 20 59
l0 58 53 7 c28 3 67 6 85 6 17 0 32 4 32 9 0 15 -40 20 -107 14 l-63 -6 0 32
c0 24 -4 31 -20 31 -16 0 -20 -7 -20 -34z"/>
</g>
</g>
</svg>