<?xml version="1.0" standalone="no"?>
<!DOCTYPE svg PUBLIC "-//W3C//DTD SVG 20010904//EN"
 "http://www.w3.org/TR/2001/REC-SVG-20010904/DTD/svg10.dtd">
<svg version="1.0" xmlns="http://www.w3.org/2000/svg"
 width="96.000000pt" height="68.000000pt" viewBox="0 0 96.000000 68.000000"
 preserveAspectRatio="xMidYMid meet">
<metadata>
Created by potrace 1.16, written by Peter Selinger 2001-2019
Combined from part_0.svg through part_5.svg with named groups
</metadata>
<g transform="translate(0.000000,68.000000) scale(0.100000,-0.100000)" fill="#000000" stroke="none">
<g id="part-0" class="char-part">
  <path d="M428 622 c-14 -3 -15 -7 -6 -21 6 -10 8 -26 5 -35 -5 -13 -22 -16
-92 -16 -50 0 -85 -4 -85 -10 0 -5 5 -10 10 -10 6 0 19 -20 30 -45 l19 -45 61
7 c56 5 60 4 60 -14 0 -27 -21 -32 -167 -40 -68 -3 -123 -10 -123 -14 0 -17
55 -21 134 -10 44 7 178 14 296 17 118 3 221 8 229 10 11 4 11 7 0 21 -12 13
-29 15 -119 10 -58 -4 -126 -9 -152 -13 -44 -6 -48 -5 -48 13 0 22 37 33 114
33 30 0 37 3 32 15 -3 9 4 21 19 31 58 38 13 69 -87 61 l-68 -6 0 28 c0 29
-23 41 -62 33z m162 -88 c0 -3 -5 -14 -10 -25 -15 -28 -100 -28 -100 0 0 11 6
22 13 24 17 7 97 8 97 1z m-160 -30 c0 -24 -2 -25 -47 -22 -35 2 -49 7 -51 20
-2 12 5 18 25 21 67 10 73 8 73 -19z"/>
  <path d="M485 344 c-49 -7 -108 -13 -130 -13 l-40 -1 -2 -105 -2 -105 35 0
c19 0 34 -4 34 -8 0 -11 -43 -48 -99 -84 -41 -27 -43 -29 -16 -23 38 8 167 77
172 91 2 6 -7 16 -19 22 -19 9 -4 11 73 11 61 1 99 -3 107 -11 21 -21 30 4 34
110 6 134 1 138 -147 116z m93 -40 c3 -19 -3 -22 -65 -27 -37 -4 -89 -7 -115
-7 -41 0 -48 3 -48 19 0 20 0 20 115 35 17 2 48 3 70 2 33 -1 41 -5 43 -22z
m2 -61 c0 -26 -3 -28 -42 -28 -24 -1 -74 -3 -113 -5 -65 -3 -70 -2 -73 17 -3
19 4 21 110 30 62 6 114 11 116 11 1 1 2 -10 2 -25z m0 -65 c0 -21 -5 -23 -56
-24 -31 -1 -83 -5 -115 -8 -58 -7 -59 -7 -59 18 0 24 3 25 68 29 170 8 162 9
162 -15z"/>
  <path d="M520 101 c0 -5 17 -21 37 -37 21 -16 45 -36 55 -46 26 -26 48 -23 48
6 0 21 -11 30 -64 55 -69 34 -76 35 -76 22z"/>
</g>
<g id="part-1" class="char-part">
  <path d="M428 586 l4 -34 -66 -7 c-36 -4 -75 -5 -86 -2 -11 3 -20 1 -20 -4 0
-5 4 -9 9 -9 5 0 17 -19 26 -43 l16 -43 59 4 c52 4 59 2 65 -17 9 -28 33 -27
37 2 3 20 9 22 76 25 63 3 72 5 72 22 0 11 12 27 26 36 23 16 24 18 9 33 -12
13 -33 15 -96 13 -72 -2 -80 -1 -77 15 4 26 -10 43 -36 43 -19 0 -21 -4 -18
-34z m163 -68 c-8 -22 -37 -34 -88 -37 -19 -1 -23 4 -23 29 0 30 0 30 60 30
57 0 59 -1 51 -22z m-161 -12 c0 -26 -16 -36 -60 -36 -25 0 -50 22 -50 44 0 7
31 14 73 15 33 1 37 -2 37 -23z"/>
</g>
<g id="part-2" class="char-part">
  <path d="M520 415 c-69 -7 -185 -17 -257 -21 -73 -4 -133 -11 -133 -15 0 -16
76 -22 149 -10 42 6 174 15 293 18 119 3 223 10 230 14 43 27 -94 34 -282 14z"/>
</g>
<g id="part-3" class="char-part">
  <path d="M485 344 c-49 -7 -112 -13 -138 -13 -46 -1 -47 -2 -36 -23 7 -13 9
-44 6 -80 -5 -51 -3 -58 13 -58 10 0 20 5 22 11 2 7 53 11 139 12 l136 2 6 70
c4 38 5 71 3 72 -14 14 -75 17 -151 7z m93 -40 c3 -19 -3 -22 -65 -27 -37 -4
-89 -7 -115 -7 -41 0 -48 3 -48 19 0 16 10 21 58 26 31 3 66 8 77 9 11 2 36 3
55 2 27 -1 36 -6 38 -22z m2 -63 c0 -15 -10 -19 -52 -25 -29 -3 -81 -6 -115
-6 -56 0 -63 2 -63 19 0 21 21 25 168 29 54 2 62 0 62 -17z"/>
</g>
<g id="part-4" class="char-part">
  <path d="M583 170 c-5 -17 -14 -20 -67 -20 -33 0 -85 -3 -113 -6 -45 -6 -53
-4 -53 10 0 10 -8 16 -21 16 -15 0 -20 -5 -17 -22 3 -23 4 -23 139 -19 96 2
139 0 144 -8 11 -20 35 8 35 40 0 23 -5 29 -21 29 -12 0 -23 -8 -26 -20z"/>
</g>
<g id="part-5" class="char-part">
  <path d="M371 88 c-11 -11 -40 -34 -63 -50 -24 -17 -36 -27 -28 -24 8 3 23 9
33 12 9 4 17 11 17 16 0 5 4 7 8 4 5 -3 14 4 22 14 8 10 17 17 22 14 4 -3 17
0 29 7 17 9 19 13 8 20 -20 13 -26 11 -48 -13z"/>
  <path d="M535 90 c3 -5 11 -10 16 -10 6 0 7 5 4 10 -3 6 -11 10 -16 10 -6 0
-7 -4 -4 -10z"/>
  <path d="M573 78 c4 -19 40 -58 54 -58 7 0 13 -6 14 -12 0 -7 4 -4 9 7 9 24
-24 57 -49 47 -8 -3 -12 -1 -8 5 4 6 0 13 -8 17 -8 3 -14 0 -12 -6z m52 -46
c-3 -3 -11 0 -18 7 -9 10 -8 11 6 5 10 -3 15 -9 12 -12z"/>
</g>
</g>
</svg>