<?xml version="1.0" standalone="no"?>
<!DOCTYPE svg PUBLIC "-//W3C//DTD SVG 20010904//EN"
 "http://www.w3.org/TR/2001/REC-SVG-20010904/DTD/svg10.dtd">
<svg version="1.0" xmlns="http://www.w3.org/2000/svg"
 width="96.000000pt" height="68.000000pt" viewBox="0 0 96.000000 68.000000"
 preserveAspectRatio="xMidYMid meet">
<metadata>
Created by potrace 1.16, written by Peter Selinger 2001-2019
Combined from part_0.svg through part_5.svg with named groups
</metadata>
<g transform="translate(0.000000,68.000000) scale(0.100000,-0.100000)" fill="#000000" stroke="none">
<g id="part-0" class="char-part">
  <path d="M264 563 c8 -35 20 -213 15 -214 -2 0 -24 -2 -49 -5 -72 -8 -91 -14
-84 -26 4 -6 25 -8 56 -5 42 5 49 4 44 -9 -3 -9 -6 -20 -6 -24 0 -5 -26 -37
-57 -71 -69 -73 -77 -88 -33 -63 34 20 104 91 112 115 13 35 18 -4 8 -62 -14
-90 -13 -144 5 -159 27 -22 35 0 35 98 0 53 3 108 7 120 l6 24 23 -29 c12 -15
25 -25 29 -21 14 14 -5 55 -30 66 -34 16 -33 42 3 43 15 0 36 4 46 8 29 11 4
22 -39 16 l-37 -4 6 67 c4 37 10 81 13 99 4 27 1 33 -26 47 -44 23 -54 21 -47
-11z"/>
  <path d="M570 567 c0 -16 32 -47 48 -47 24 0 12 40 -14 50 -33 13 -34 13 -34
-3z"/>
  <path d="M555 500 c-84 -13 -109 -20 -106 -31 21 -87 -19 -286 -75 -372 -35
-53 -25 -55 21 -6 39 43 85 148 85 194 0 21 5 25 29 25 16 0 43 3 61 6 30 7
31 6 28 -22 -2 -25 -8 -29 -35 -32 -47 -5 -41 -22 8 -22 22 0 38 -4 35 -8 -2
-4 -1 -14 4 -21 6 -10 12 -6 24 18 15 27 21 31 60 31 41 0 43 1 44 30 1 43 8
50 53 50 21 0 39 4 39 9 0 11 -25 21 -50 21 -13 0 -17 6 -13 18 7 30 -22 45
-72 39 -40 -6 -45 -5 -45 13 0 13 -7 20 -20 20 -11 0 -23 0 -27 1 -5 1 -7 -12
-5 -28 3 -26 0 -29 -30 -31 -18 -2 -37 -7 -43 -13 -7 -8 3 -10 33 -7 38 3 42
1 42 -18 0 -19 -7 -23 -47 -26 -27 -3 -51 -2 -55 1 -8 7 8 111 19 122 10 10
110 27 196 35 37 3 65 10 62 15 -9 13 -92 9 -220 -11z m153 -122 c-2 -17 -10
-23 -30 -25 -24 -1 -28 2 -28 23 0 20 5 24 31 24 26 0 30 -3 27 -22z m-5 -60
c8 -24 -5 -38 -34 -38 -30 0 -34 6 -23 34 7 19 50 21 57 4z"/>
  <path d="M355 440 c-10 -22 -16 -43 -13 -46 6 -5 88 42 88 50 0 10 -32 36 -44
36 -7 0 -21 -18 -31 -40z"/>
  <path d="M186 410 c27 -45 64 -51 64 -10 0 22 -28 40 -60 40 -21 0 -21 -1 -4
-30z"/>
  <path d="M650 189 c-25 -4 -69 -9 -98 -10 -45 -1 -52 -4 -47 -18 4 -9 13 -37
20 -63 16 -59 25 -74 35 -59 4 7 46 15 98 18 74 5 90 9 81 19 -8 10 -4 23 16
51 l26 38 -22 18 c-23 18 -38 19 -109 6z m48 -57 c-4 -40 -20 -49 -94 -51 -39
-1 -42 1 -48 31 -3 17 -3 35 2 40 9 9 123 26 135 20 5 -2 7 -20 5 -40z"/>
</g>
<g id="part-1" class="char-part">
  <path d="M266 563 c4 -10 9 -52 11 -93 5 -90 8 -101 26 -94 10 4 17 31 22 92
6 76 5 87 -11 99 -27 20 -58 17 -48 -4z"/>
  <path d="M360 440 c-24 -46 -10 -54 34 -19 31 24 33 35 6 49 -17 9 -22 5 -40
-30z"/>
  <path d="M180 433 c0 -16 31 -53 45 -53 21 0 29 20 14 35 -18 16 -59 29 -59
18z"/>
</g>
<g id="part-2" class="char-part">
  <path d="M280 366 c0 -9 -16 -17 -42 -21 -96 -15 -108 -18 -102 -27 4 -6 30
-8 60 -6 30 3 54 3 54 1 0 -17 -42 -77 -88 -125 -30 -32 -52 -58 -48 -58 21 0
69 36 116 87 l53 58 -6 -35 c-23 -128 -20 -210 7 -210 21 0 26 23 27 123 0 51
4 100 8 110 6 17 8 16 21 -7 14 -26 34 -34 45 -16 8 13 -15 46 -42 61 -34 18
-29 39 10 39 37 0 65 14 48 24 -6 4 -26 4 -46 0 -23 -4 -35 -2 -35 5 0 6 -9
11 -20 11 -11 0 -20 -6 -20 -14z"/>
</g>
<g id="part-3" class="char-part">
  <path d="M566 568 c26 -46 64 -64 64 -30 0 25 -19 42 -48 42 -16 0 -21 -4 -16
-12z"/>
  <path d="M585 504 c-77 -12 -141 -23 -142 -23 -1 -1 2 -13 7 -27 22 -58 -19
-252 -75 -352 -30 -53 -30 -56 -7 -43 49 26 114 174 126 287 15 127 10 119 80
132 35 7 85 12 112 13 27 1 60 4 74 9 l25 7 -28 12 c-16 6 -29 10 -30 10 -1
-1 -65 -12 -142 -25z"/>
</g>
<g id="part-4" class="char-part">
  <path d="M597 433 c6 -33 6 -33 -36 -33 -23 0 -41 -5 -41 -11 0 -7 15 -10 40
-7 36 3 40 1 40 -19 0 -17 -6 -23 -22 -24 -13 -1 -27 -2 -33 -4 -5 -1 -20 -3
-32 -3 -13 -1 -23 -7 -23 -13 0 -8 18 -10 59 -5 l59 7 -7 -28 c-6 -22 -14 -29
-39 -31 -18 -2 -32 -8 -32 -14 0 -7 15 -9 39 -5 37 5 40 3 43 -22 l3 -26 15
30 c13 26 21 30 63 33 38 2 47 6 43 18 -3 8 -1 25 4 39 8 22 16 25 57 25 44 1
47 2 29 15 -11 8 -30 15 -42 15 -17 0 -21 5 -17 19 7 27 -30 45 -77 37 -31 -5
-39 -3 -43 13 -2 10 -16 20 -30 23 -24 5 -25 3 -20 -29z m111 -55 c-2 -18 -11
-24 -34 -26 -29 -3 -31 -1 -27 22 4 21 11 26 35 26 25 0 29 -4 26 -22z m-3
-68 c-2 -24 -3 -26 -37 -34 -26 -6 -28 -4 -28 24 0 27 3 30 33 30 27 0 33 -4
32 -20z"/>
</g>
<g id="part-5" class="char-part">
  <path d="M702 171 c2 -9 8 -19 13 -23 6 -5 5 -8 -2 -8 -7 0 -13 -11 -13 -25 0
-17 -6 -25 -17 -25 -15 0 -16 -2 -3 -10 13 -8 12 -10 -4 -10 -11 0 -17 -2 -14
-5 3 -3 19 -2 37 1 23 5 29 9 19 15 -11 7 -11 9 1 9 11 0 11 3 1 15 -11 13
-10 14 4 9 10 -4 18 0 23 12 3 11 11 22 16 26 15 9 -14 33 -41 34 -15 0 -21
-5 -20 -15z"/>
  <path d="M520 160 c20 -13 33 -13 25 0 -3 6 -14 10 -23 10 -15 0 -15 -2 -2
-10z"/>
  <path d="M526 125 c9 -14 18 -25 21 -25 8 0 -2 35 -12 42 -21 15 -25 7 -9 -17z"/>
  <path d="M530 81 c1 -22 18 -29 50 -21 32 7 33 8 8 9 -16 1 -28 5 -28 9 0 5
-7 9 -15 9 -8 0 -15 -3 -15 -6z"/>
  <path d="M628 73 c7 -3 16 -2 19 1 4 3 -2 6 -13 5 -11 0 -14 -3 -6 -6z"/>
</g>
</g>
</svg>