<?xml version="1.0" standalone="no"?>
<!DOCTYPE svg PUBLIC "-//W3C//DTD SVG 20010904//EN"
 "http://www.w3.org/TR/2001/REC-SVG-20010904/DTD/svg10.dtd">
<svg version="1.0" xmlns="http://www.w3.org/2000/svg"
 width="96.000000pt" height="68.000000pt" viewBox="0 0 96.000000 68.000000"
 preserveAspectRatio="xMidYMid meet">
<metadata>
Created by potrace 1.16, written by Peter Selinger 2001-2019
Combined from part_0.svg through part_5.svg with named groups
</metadata>
<g transform="translate(0.000000,68.000000) scale(0.100000,-0.100000)" fill="#000000" stroke="none">
<g id="part-0" class="char-part">
  <path d="M248 423 c2 -100 -1 -211 -8 -255 -12 -82 -4 -118 26 -118 27 0 34
49 34 227 l0 175 35 -31 c20 -17 39 -31 43 -31 12 0 32 23 32 37 0 16 -51 43
-81 43 -20 0 -21 3 -16 50 7 55 -8 80 -46 80 -22 0 -22 -1 -19 -177z"/>
  <path d="M575 585 c-27 -7 -69 -14 -93 -14 -39 -1 -42 -3 -32 -20 5 -11 15
-53 21 -95 11 -70 10 -77 -11 -110 -12 -20 -40 -51 -62 -70 -28 -24 -34 -33
-19 -29 12 3 21 9 21 13 0 12 58 33 75 26 26 -10 17 -29 -41 -83 -62 -59 -60
-67 7 -24 60 39 103 86 96 105 -5 13 1 16 28 16 28 0 35 -4 35 -19 0 -27 -65
-110 -122 -156 -27 -22 -45 -41 -39 -43 15 -5 96 53 170 124 64 60 65 62 48
82 -17 19 -17 20 14 24 63 10 72 1 65 -56 -4 -28 -17 -71 -29 -96 -20 -42 -25
-45 -59 -44 -44 1 -45 -2 -13 -38 51 -59 95 -22 135 114 15 51 31 101 35 110
5 13 0 21 -18 29 -19 9 -52 8 -144 -5 -66 -9 -130 -16 -144 -16 l-24 1 30 24
c28 23 29 25 11 38 -18 13 -18 14 4 20 13 3 49 4 81 2 l57 -3 26 81 c31 98 31
103 7 117 -24 12 -52 11 -116 -5z m75 -44 c0 -17 -3 -32 -7 -34 -5 -3 -40 -8
-79 -12 l-71 -7 -7 27 c-4 15 -4 30 -1 33 7 7 83 19 133 21 29 1 32 -2 32 -28z
m-16 -88 c-4 -16 -7 -29 -8 -30 -1 -1 -28 -3 -61 -5 -59 -3 -60 -2 -63 24 -3
29 7 32 101 36 36 2 37 1 31 -25z"/>
  <path d="M146 377 c-27 -57 -26 -97 4 -97 10 0 23 6 29 14 25 30 26 136 1 136
-5 0 -21 -24 -34 -53z"/>
</g>
<g id="part-1" class="char-part">
  <path d="M245 578 c15 -44 17 -234 5 -366 -10 -105 -10 -135 0 -147 26 -31 40
2 41 99 1 50 4 136 8 190 l6 99 31 -26 c40 -34 67 -36 62 -4 -2 17 -14 25 -50
36 l-48 14 6 53 c6 46 4 53 -14 63 -36 19 -55 14 -47 -11z"/>
  <path d="M152 376 c-26 -49 -26 -89 1 -94 24 -5 51 60 42 105 -3 18 -9 33 -13
33 -4 0 -18 -20 -30 -44z"/>
</g>
<g id="part-2" class="char-part">
  <path d="M570 584 c-30 -8 -72 -13 -93 -10 -33 4 -37 2 -31 -12 6 -16 14 -48
33 -142 6 -28 11 -34 27 -31 10 2 49 4 86 4 l68 0 28 89 c22 69 26 91 16 99
-21 17 -76 18 -134 3z m78 -46 c-3 -29 -7 -33 -33 -35 -16 -1 -49 -5 -72 -9
-40 -6 -43 -5 -53 21 -6 15 -9 30 -6 32 6 6 94 20 134 22 32 1 33 -1 30 -31z
m-16 -88 c-4 -30 -5 -30 -68 -30 -61 0 -64 1 -64 24 0 27 14 31 96 35 40 1 40
0 36 -29z"/>
</g>
<g id="part-3" class="char-part">
  <path d="M460 345 c-12 -20 -42 -51 -67 -70 -54 -41 -50 -44 15 -11 26 13 64
24 84 24 20 0 44 3 54 6 38 12 154 24 175 19 19 -5 21 -11 15 -56 -3 -28 -16
-71 -28 -96 -22 -44 -25 -46 -65 -45 l-41 1 26 -34 c54 -67 101 -31 142 109
15 51 31 101 35 110 5 13 0 21 -19 29 -20 9 -52 8 -148 -5 -168 -22 -170 -22
-133 9 25 21 28 26 15 35 -25 17 -37 11 -60 -25z"/>
</g>
<g id="part-4" class="char-part">
  <path d="M599 268 c-31 -60 -66 -100 -133 -153 -32 -25 -54 -45 -50 -45 25 0
124 70 186 131 69 68 70 70 53 89 -25 28 -32 26 -56 -22z"/>
</g>
</g>
</svg>