<?xml version="1.0" standalone="no"?>
<!DOCTYPE svg PUBLIC "-//W3C//DTD SVG 20010904//EN"
 "http://www.w3.org/TR/2001/REC-SVG-20010904/DTD/svg10.dtd">
<svg version="1.0" xmlns="http://www.w3.org/2000/svg"
 width="96.000000pt" height="68.000000pt" viewBox="0 0 96.000000 68.000000"
 preserveAspectRatio="xMidYMid meet">
<metadata>
Created by potrace 1.16, written by Peter Selinger 2001-2019
Combined from part_0.svg through part_5.svg with named groups
</metadata>
<g transform="translate(0.000000,68.000000) scale(0.100000,-0.100000)" fill="#000000" stroke="none">
<g id="part-0" class="char-part">
  <path d="M386 603 c-6 -6 25 -66 37 -71 4 -2 7 -8 7 -14 0 -6 -41 -9 -112 -7
l-113 4 -28 -58 c-20 -40 -26 -62 -19 -69 19 -19 47 -3 67 40 17 38 23 42 55
42 19 0 85 7 145 15 61 8 139 15 174 15 l65 0 -29 -30 c-16 -16 -26 -32 -23
-35 3 -3 40 2 82 12 88 20 96 35 39 72 -32 21 -44 23 -102 17 -36 -3 -83 -9
-103 -12 -30 -5 -38 -3 -38 9 0 24 -33 57 -67 66 -17 5 -34 7 -37 4z"/>
  <path d="M420 411 c-30 -21 -72 -44 -92 -50 -21 -7 -38 -17 -38 -23 0 -6 6 -8
14 -5 8 3 30 9 50 12 34 7 35 6 42 -29 3 -21 3 -40 0 -44 -4 -4 -60 -14 -123
-22 -113 -15 -152 -32 -96 -43 15 -3 61 1 101 9 117 22 117 23 119 -39 2 -44
6 -56 29 -74 42 -33 115 -47 213 -40 92 6 128 16 154 42 15 15 15 19 -3 53
-11 20 -20 42 -20 49 0 7 -4 13 -10 13 -5 0 -10 -12 -10 -26 0 -15 -12 -38
-29 -55 -29 -28 -32 -29 -130 -29 -55 0 -112 5 -126 12 -22 10 -25 17 -25 68
l0 57 105 13 c58 6 105 16 105 20 0 16 -35 20 -95 10 -100 -16 -108 -15 -100
19 5 23 2 32 -15 44 -25 17 -22 19 43 37 58 15 64 24 35 44 -30 22 -35 21 -98
-23z"/>
</g>
<g id="part-1" class="char-part">
  <path d="M390 592 c0 -4 11 -24 26 -43 l25 -34 -102 -9 c-76 -7 -104 -6 -107
2 -7 23 -21 11 -46 -39 -28 -54 -32 -74 -17 -83 18 -11 40 6 55 43 17 43 -9
36 256 66 192 22 206 19 158 -32 -12 -13 -16 -23 -10 -23 12 0 110 19 129 25
19 6 7 27 -30 53 -32 21 -38 22 -113 12 -43 -6 -91 -12 -106 -15 -24 -4 -28
-1 -28 20 0 14 -11 32 -26 44 -27 21 -64 28 -64 13z"/>
</g>
<g id="part-2" class="char-part">
  <path d="M440 423 c-19 -14 -66 -40 -105 -59 -56 -27 -63 -33 -35 -28 19 3 71
17 115 31 138 43 147 50 100 71 -34 15 -34 15 -75 -15z"/>
</g>
<g id="part-3" class="char-part">
  <path d="M398 363 c-1 -5 -2 -28 -2 -53 l-1 -44 -115 -17 c-63 -10 -121 -18
-128 -18 -7 -1 -11 -5 -8 -10 11 -18 69 -20 137 -6 107 23 106 23 114 -40 7
-63 31 -88 99 -106 84 -23 287 3 310 39 4 6 -3 28 -14 49 -11 21 -20 43 -20
50 0 7 -4 13 -10 13 -5 0 -10 -12 -10 -26 0 -45 -46 -80 -116 -88 -71 -8 -139
0 -171 20 -19 12 -23 23 -23 68 l0 53 102 12 c102 11 117 15 105 28 -10 9 -61
9 -135 -1 l-63 -8 6 34 c6 30 3 36 -20 46 -30 14 -34 15 -37 5z"/>
</g>
</g>
</svg>