<?xml version="1.0" standalone="no"?>
<!DOCTYPE svg PUBLIC "-//W3C//DTD SVG 20010904//EN"
 "http://www.w3.org/TR/2001/REC-SVG-20010904/DTD/svg10.dtd">
<svg version="1.0" xmlns="http://www.w3.org/2000/svg"
 width="96.000000pt" height="68.000000pt" viewBox="0 0 96.000000 68.000000"
 preserveAspectRatio="xMidYMid meet">
<metadata>
Created by potrace 1.16, written by Peter Selinger 2001-2019
Combined from part_0.svg through part_5.svg with named groups
</metadata>
<g transform="translate(0.000000,68.000000) scale(0.100000,-0.100000)" fill="#000000" stroke="none">
<g id="part-0" class="char-part">
  <path d="M520 585 c0 -9 -14 -42 -30 -75 -24 -47 -35 -59 -51 -57 -20 2 -20
-3 -20 -121 0 -67 3 -127 6 -132 9 -15 25 -12 25 4 0 9 25 15 92 20 92 6 98 4
112 -29 2 -6 11 -3 20 5 13 13 17 40 18 135 2 111 1 119 -19 132 -19 13 -33
12 -104 -1 -46 -9 -85 -13 -88 -11 -2 3 21 30 52 61 52 52 56 58 40 70 -24 18
-53 17 -53 -1z m118 -183 c2 -25 -1 -41 -6 -38 -5 3 -46 0 -91 -8 l-81 -13 0
43 0 42 63 10 c104 16 111 14 115 -36z m2 -109 l0 -48 -90 -2 -90 -3 0 45 0
44 53 4 c28 2 69 4 90 5 l37 2 0 -47z"/>
  <path d="M210 544 c0 -39 78 -86 105 -64 20 17 19 37 -4 49 -27 15 -101 25
-101 15z"/>
  <path d="M190 377 c-78 -25 -76 -25 -63 -38 8 -8 25 -8 59 -1 27 6 50 9 52 7
2 -2 -3 -16 -11 -32 -14 -26 -13 -30 9 -56 13 -16 24 -39 24 -53 0 -23 -2 -24
-75 -24 -59 0 -75 -3 -75 -15 0 -25 35 -36 82 -25 75 17 113 11 269 -40 84
-27 169 -50 190 -50 21 0 75 12 120 26 99 31 91 44 -26 44 -169 0 -451 50
-440 77 6 18 -11 53 -38 74 -19 16 -19 17 17 49 41 37 45 55 17 70 -25 13 -34
12 -111 -13z"/>
</g>
<g id="part-1" class="char-part">
  <path d="M210 541 c0 -17 61 -61 86 -61 29 0 34 34 7 48 -29 15 -93 24 -93 13z"/>
  <path d="M190 371 c-76 -28 -77 -31 -7 -26 l67 4 -15 -29 c-15 -29 -14 -32 10
-67 35 -53 33 -69 -12 -77 -21 -3 -58 -6 -82 -6 -38 0 -42 -2 -31 -15 11 -13
28 -14 101 -9 87 7 91 6 256 -46 l167 -53 71 18 c38 10 81 22 95 28 23 10 19
11 -35 18 -33 4 -94 8 -135 9 -41 1 -133 13 -205 28 l-130 27 -3 32 c-2 21
-13 40 -32 55 l-28 23 40 42 c22 22 37 46 34 52 -10 15 -73 11 -126 -8z"/>
</g>
<g id="part-2" class="char-part">
  <path d="M520 586 c0 -8 -14 -40 -30 -71 -17 -32 -28 -60 -25 -63 3 -4 33 23
67 57 57 60 60 65 43 78 -24 17 -55 17 -55 -1z"/>
</g>
<g id="part-3" class="char-part">
  <path d="M550 464 c-36 -8 -81 -12 -100 -9 l-35 4 1 -123 c1 -68 5 -129 8
-135 10 -15 26 -14 26 3 0 9 24 15 92 19 92 6 99 4 112 -28 2 -6 10 -4 19 5
11 11 16 45 19 137 4 120 4 122 -19 132 -29 13 -39 13 -123 -5z m88 -60 c3
-39 2 -41 -25 -41 -15 1 -56 -3 -90 -7 l-63 -8 0 39 0 40 58 10 c31 6 71 10
87 9 28 -1 30 -4 33 -42z m2 -111 l0 -48 -91 -2 -90 -2 3 42 3 42 60 6 c125
12 115 15 115 -38z"/>
</g>
</g>
</svg>