<?xml version="1.0" standalone="no"?>
<!DOCTYPE svg PUBLIC "-//W3C//DTD SVG 20010904//EN"
 "http://www.w3.org/TR/2001/REC-SVG-20010904/DTD/svg10.dtd">
<svg version="1.0" xmlns="http://www.w3.org/2000/svg"
 width="96.000000pt" height="68.000000pt" viewBox="0 0 96.000000 68.000000"
 preserveAspectRatio="xMidYMid meet">
<metadata>
Created by potrace 1.16, written by Peter Selinger 2001-2019
Combined from part_0.svg through part_5.svg with named groups
</metadata>
<g transform="translate(0.000000,68.000000) scale(0.100000,-0.100000)" fill="#000000" stroke="none">
<g id="part-0" class="char-part">
  <path d="M516 598 c-4 -18 -22 -57 -41 -85 -19 -29 -35 -55 -35 -58 0 -13 59
27 86 58 28 33 33 34 117 41 109 9 122 13 105 33 -12 15 -41 14 -125 -3 -26
-5 -33 -3 -33 9 0 17 -29 37 -53 37 -8 0 -17 -14 -21 -32z"/>
  <path d="M275 582 c-3 -16 -28 -56 -55 -90 -28 -33 -50 -63 -50 -66 0 -16 25
-1 82 49 61 53 65 55 123 55 68 0 100 13 75 30 -14 10 -62 6 -95 -6 -10 -4
-12 0 -8 15 4 16 -1 23 -22 31 -38 15 -43 13 -50 -18z"/>
  <path d="M570 531 c0 -15 50 -51 71 -51 31 0 24 39 -8 46 -16 3 -36 8 -45 11
-10 2 -18 0 -18 -6z"/>
  <path d="M310 497 c0 -18 32 -47 53 -47 41 0 21 43 -25 54 -20 5 -28 3 -28 -7z"/>
  <path d="M650 454 c-30 -7 -76 -13 -102 -14 l-47 0 10 -32 c5 -18 9 -54 9 -81
l0 -48 53 6 c28 4 64 8 80 10 l27 3 0 -113 c0 -97 -3 -115 -17 -123 -11 -7
-23 -6 -34 1 -26 16 -37 -1 -11 -18 11 -9 28 -22 36 -30 23 -24 55 -18 66 11
6 14 10 99 10 189 0 91 5 176 11 192 7 20 7 29 -1 31 -5 2 -16 9 -23 16 -10
10 -23 10 -67 0z m30 -49 c0 -18 -5 -25 -19 -25 -10 0 -39 -3 -65 -6 -42 -6
-46 -5 -46 15 0 26 29 39 88 40 38 1 42 -1 42 -24z m0 -59 c0 -18 -7 -25 -31
-30 -51 -10 -86 -7 -92 7 -9 24 7 36 58 40 28 2 53 4 58 5 4 1 7 -9 7 -22z"/>
  <path d="M270 413 l-55 -4 3 -117 c3 -84 0 -132 -11 -167 -15 -54 -8 -95 17
-95 17 0 25 30 27 100 1 70 12 141 22 140 4 0 27 0 51 0 l43 0 16 66 c9 37 14
70 11 75 -3 5 -20 8 -37 7 -18 -1 -57 -3 -87 -5z m85 -38 c0 -16 -9 -21 -43
-26 -46 -6 -60 5 -48 37 4 11 17 14 48 12 35 -2 43 -7 43 -23z m-5 -60 c0 -19
-5 -25 -22 -25 -13 0 -33 -3 -45 -6 -20 -5 -23 -2 -23 19 0 22 5 26 33 30 17
2 38 5 45 5 7 1 12 -9 12 -23z"/>
  <path d="M457 244 c-3 -3 -27 -8 -54 -9 l-48 -3 4 -69 c2 -37 5 -70 7 -72 1
-2 26 2 55 9 50 12 53 12 70 -11 15 -20 19 -21 33 -10 23 19 23 156 0 165 -20
8 -59 8 -67 0z m51 -35 c-2 -18 -11 -22 -55 -25 -47 -4 -53 -2 -53 15 0 20 18
27 78 30 29 1 33 -2 30 -20z m0 -61 c-3 -20 -10 -23 -55 -26 -47 -3 -53 -1
-53 17 0 21 17 27 78 30 29 1 33 -2 30 -21z"/>
</g>
<g id="part-1" class="char-part">
  <path d="M521 589 c-6 -21 -27 -59 -46 -84 -46 -60 -25 -57 37 5 45 44 55 49
92 48 67 -1 147 13 140 24 -7 11 -124 4 -161 -8 -15 -6 -16 -4 -5 7 18 19 15
26 -17 37 -27 10 -29 8 -40 -29z"/>
  <path d="M271 563 c-8 -20 -34 -58 -59 -85 -24 -26 -40 -48 -34 -48 11 0 106
73 117 90 3 5 30 10 58 10 60 0 97 8 97 21 0 12 -47 11 -88 0 -33 -10 -41 -4
-20 17 10 10 10 15 -2 22 -32 20 -56 11 -69 -27z"/>
  <path d="M595 505 c34 -27 65 -32 65 -10 0 19 -31 35 -67 35 l-28 0 30 -25z"/>
  <path d="M333 475 c32 -28 47 -32 47 -10 0 17 -30 35 -57 35 -15 -1 -13 -5 10
-25z"/>
</g>
<g id="part-2" class="char-part">
  <path d="M261 413 c-49 -4 -53 -6 -47 -26 3 -12 6 -46 6 -75 l0 -53 74 3 74 3
17 67 c9 37 13 72 10 78 -6 10 -25 10 -134 3z m91 -19 c3 -3 4 -13 1 -24 -6
-22 -82 -34 -90 -13 -11 27 6 43 45 43 21 0 41 -3 44 -6z m-2 -73 c0 -24 -4
-26 -52 -35 -36 -6 -38 -5 -38 18 0 21 5 25 38 29 20 2 40 4 45 5 4 1 7 -7 7
-17z"/>
</g>
<g id="part-3" class="char-part">
  <path d="M678 183 l-3 -118 -39 2 -40 3 34 -35 c41 -43 76 -46 90 -9 6 14 10
81 10 150 l0 124 -25 0 -24 0 -3 -117z"/>
</g>
<g id="part-4" class="char-part">
  <path d="M430 239 c-19 -5 -45 -7 -56 -4 -21 5 -21 2 -16 -68 2 -39 6 -73 7
-75 1 -1 26 3 54 10 51 11 54 11 71 -12 15 -20 20 -22 34 -11 23 19 23 156 0
165 -20 8 -50 6 -94 -5z m78 -35 c3 -19 -2 -21 -55 -20 -32 1 -57 4 -55 9 1 4
2 11 2 16 0 13 27 19 70 18 27 -2 36 -7 38 -23z m2 -59 c0 -25 -2 -26 -57 -23
-92 5 -71 44 25 47 28 1 32 -2 32 -24z"/>
</g>
</g>
</svg>