<?xml version="1.0" standalone="no"?>
<!DOCTYPE svg PUBLIC "-//W3C//DTD SVG 20010904//EN"
 "http://www.w3.org/TR/2001/REC-SVG-20010904/DTD/svg10.dtd">
<svg version="1.0" xmlns="http://www.w3.org/2000/svg"
 width="96.000000pt" height="68.000000pt" viewBox="0 0 96.000000 68.000000"
 preserveAspectRatio="xMidYMid meet">
<metadata>
Created by potrace 1.16, written by Peter Selinger 2001-2019
Combined from part_0.svg through part_5.svg with named groups
</metadata>
<g transform="translate(0.000000,68.000000) scale(0.100000,-0.100000)" fill="#000000" stroke="none">
<g id="part-0" class="char-part">
  <path d="M384 590 c-4 -25 -22 -59 -46 -90 -33 -42 -157 -151 -240 -212 -22
-16 -22 -17 -3 -17 11 -1 31 5 45 12 14 8 50 27 80 42 34 18 86 62 136 114
l82 85 109 -106 c61 -58 120 -109 133 -113 26 -8 139 2 160 15 12 7 11 10 -5
16 -11 3 -47 16 -80 29 -33 12 -67 25 -75 28 -14 4 -117 78 -180 128 -13 10
-28 19 -32 19 -4 0 -5 13 -2 29 5 22 1 32 -17 45 -40 28 -58 21 -65 -24z"/>
  <path d="M420 354 c-36 -6 -82 -12 -102 -13 -21 -1 -38 -5 -38 -11 0 -18 238
-6 256 13 20 20 -41 26 -116 11z"/>
  <path d="M465 254 c-33 -7 -97 -14 -142 -15 l-81 -1 17 -31 c10 -18 24 -58 30
-89 7 -32 17 -58 22 -58 5 0 9 4 9 9 0 4 60 11 132 15 124 7 159 13 132 23
-14 5 9 79 32 104 20 22 18 26 -16 44 -34 17 -53 17 -135 -1z m64 -23 c9 -6
11 -20 7 -47 -11 -65 -15 -68 -119 -72 l-94 -4 -10 51 c-6 28 -10 51 -9 52 2
1 179 26 196 28 8 0 21 -3 29 -8z"/>
</g>
<g id="part-1" class="char-part">
  <path d="M390 592 c0 -54 -92 -159 -232 -264 -38 -28 -68 -52 -68 -54 0 -2 15
2 32 8 74 26 157 84 234 165 l82 85 115 -111 116 -111 68 1 c114 1 117 11 14
50 -64 24 -119 54 -184 102 -50 38 -98 72 -106 76 -10 6 -11 13 -2 28 8 16 7
24 -8 37 -9 9 -27 16 -39 16 -17 0 -22 -6 -22 -28z"/>
</g>
<g id="part-2" class="char-part">
  <path d="M420 355 c-36 -7 -82 -13 -102 -14 -22 -1 -38 -6 -38 -13 0 -13 210
-5 250 10 l25 10 -28 11 c-16 6 -31 10 -35 10 -4 -1 -36 -7 -72 -14z"/>
</g>
<g id="part-3" class="char-part">
  <path d="M460 254 c-36 -7 -100 -13 -142 -14 l-77 0 19 -32 c10 -18 21 -54 25
-79 9 -59 19 -76 37 -62 7 6 70 14 140 18 115 7 127 9 118 24 -6 12 0 32 21
71 16 29 29 55 29 56 0 2 -13 10 -30 19 -34 17 -52 17 -140 -1z m69 -23 c9 -6
11 -20 7 -47 -11 -64 -15 -66 -118 -72 l-94 -5 -11 49 c-6 27 -10 51 -7 53 2
2 47 9 101 16 54 7 100 13 103 14 3 0 11 -3 19 -8z"/>
</g>
</g>
</svg>