<?xml version="1.0" standalone="no"?>
<!DOCTYPE svg PUBLIC "-//W3C//DTD SVG 20010904//EN"
 "http://www.w3.org/TR/2001/REC-SVG-20010904/DTD/svg10.dtd">
<svg version="1.0" xmlns="http://www.w3.org/2000/svg"
 width="96.000000pt" height="68.000000pt" viewBox="0 0 96.000000 68.000000"
 preserveAspectRatio="xMidYMid meet">
<metadata>
Created by potrace 1.16, written by Peter Selinger 2001-2019
Combined from part_0.svg through part_5.svg with named groups
</metadata>
<g transform="translate(0.000000,68.000000) scale(0.100000,-0.100000)" fill="#000000" stroke="none">
<g id="part-0" class="char-part">
  <path d="M245 593 c4 -10 9 -50 12 -90 l6 -71 -59 -7 c-74 -8 -87 -12 -79 -25
3 -5 35 -10 71 -10 l64 0 0 -43 c0 -43 0 -43 -57 -67 -32 -13 -74 -30 -93 -38
l-35 -14 24 -19 c33 -27 50 -24 106 16 27 19 50 33 50 32 1 -1 -1 -29 -4 -62
l-6 -60 -40 2 -40 3 48 -48 48 -47 25 28 c22 26 24 37 24 122 l0 95 35 22 c51
34 46 49 -10 28 -26 -10 -26 -9 -23 27 2 29 8 39 23 41 61 9 67 12 54 28 -9
10 -24 14 -47 12 l-34 -4 7 45 c4 25 11 50 16 56 16 17 9 34 -21 50 -41 21
-74 20 -65 -2z"/>
  <path d="M522 562 c-7 -22 -28 -60 -47 -85 -44 -58 -30 -61 29 -7 34 31 51 40
80 40 42 0 44 -7 14 -54 -31 -48 -53 -57 -136 -59 -40 -1 -72 -5 -72 -9 0 -5
4 -8 10 -8 5 0 12 -22 16 -50 4 -27 13 -55 20 -61 10 -8 14 -8 14 0 0 6 14 11
31 11 29 0 31 -2 25 -26 -11 -43 -57 -104 -104 -136 -24 -16 -41 -32 -38 -35
10 -11 96 39 121 70 14 18 29 37 34 43 4 5 14 27 21 48 19 60 34 38 40 -58 5
-78 8 -90 30 -106 34 -26 105 -35 169 -22 77 16 83 24 63 78 -9 24 -19 44 -23
44 -4 0 -9 -14 -13 -32 -10 -51 -22 -58 -96 -58 -88 0 -95 8 -87 105 3 43 2
75 -4 75 -5 0 -9 5 -9 10 0 6 24 10 53 10 49 0 52 2 53 26 1 14 11 36 23 48
12 12 21 27 21 33 0 21 -53 34 -102 24 -27 -4 -48 -6 -48 -2 0 8 38 48 74 78
14 13 26 27 26 32 0 17 -48 21 -96 6 -26 -8 -50 -12 -52 -10 -3 2 2 15 11 28
12 18 13 27 4 36 -22 22 -44 12 -55 -27z m160 -180 c-1 -7 -4 -22 -6 -34 -3
-25 -27 -36 -78 -37 -36 -1 -37 0 -28 24 5 14 7 31 4 39 -7 17 17 25 71 23 27
-1 39 -6 37 -15z m-162 -42 c0 -39 -1 -40 -34 -40 -26 0 -35 5 -40 23 -10 37
-7 45 17 50 54 11 57 9 57 -33z"/>
</g>
<g id="part-1" class="char-part">
  <path d="M258 522 c5 -101 10 -95 -82 -108 -67 -9 -38 -26 32 -18 l53 6 -3
-52 -3 -53 -82 -35 c-46 -18 -83 -37 -83 -41 0 -4 11 -13 25 -19 23 -11 32 -8
81 23 30 19 57 35 59 35 7 0 6 -62 -1 -100 -7 -31 -9 -32 -45 -27 l-37 5 36
-39 c68 -72 92 -47 92 95 l0 96 35 22 c42 28 46 44 5 23 -41 -21 -42 -20 -38
27 3 41 4 43 46 51 65 13 53 33 -15 27 -20 -1 -23 3 -23 33 0 19 5 49 11 66
13 38 2 55 -42 66 l-27 7 6 -90z"/>
</g>
<g id="part-2" class="char-part">
  <path d="M530 584 c-6 -14 -10 -29 -10 -33 0 -4 -18 -34 -41 -65 -23 -32 -39
-60 -36 -63 3 -3 28 16 55 41 40 37 56 46 86 46 20 0 36 -4 36 -8 0 -4 -14
-27 -31 -50 -48 -65 -8 -54 69 18 l63 60 -27 10 c-19 7 -40 6 -77 -5 -28 -8
-52 -13 -54 -11 -3 2 3 16 13 31 16 25 16 26 -2 40 -27 20 -33 19 -44 -11z"/>
</g>
<g id="part-3" class="char-part">
  <path d="M605 414 c-38 -7 -102 -14 -141 -16 -66 -3 -71 -4 -63 -23 4 -11 13
-41 19 -67 7 -27 17 -48 21 -48 5 0 9 5 9 10 0 6 20 10 43 10 24 0 85 3 135 6
72 6 89 10 85 21 -3 8 9 32 26 53 l31 39 -29 16 c-34 17 -40 17 -136 -1z m77
-20 c3 -3 1 -20 -4 -39 -11 -34 -34 -45 -94 -45 -21 0 -23 2 -13 27 5 14 8 32
5 39 -3 7 3 15 12 17 26 7 88 8 94 1z m-164 -51 c-3 -34 -6 -38 -34 -41 -26
-3 -33 1 -38 20 -9 35 -8 38 17 48 47 19 58 13 55 -27z"/>
</g>
<g id="part-4" class="char-part">
  <path d="M580 193 c3 -49 9 -94 14 -102 23 -37 105 -49 196 -30 59 13 67 25
51 80 -13 44 -31 52 -31 14 0 -45 -32 -65 -104 -65 -45 0 -67 4 -76 15 -15 18
-15 91 0 129 8 21 6 28 -10 36 -42 22 -45 15 -40 -77z"/>
</g>
</g>
</svg>