<?xml version="1.0" standalone="no"?>
<!DOCTYPE svg PUBLIC "-//W3C//DTD SVG 20010904//EN"
 "http://www.w3.org/TR/2001/REC-SVG-20010904/DTD/svg10.dtd">
<svg version="1.0" xmlns="http://www.w3.org/2000/svg"
 width="96.000000pt" height="68.000000pt" viewBox="0 0 96.000000 68.000000"
 preserveAspectRatio="xMidYMid meet">
<metadata>
Created by potrace 1.16, written by Peter Selinger 2001-2019
Combined from part_0.svg through part_5.svg with named groups
</metadata>
<g transform="translate(0.000000,68.000000) scale(0.100000,-0.100000)" fill="#000000" stroke="none">
<g id="part-0" class="char-part">
  <path d="M530 614 c0 -18 -26 -60 -59 -96 -22 -25 -23 -28 -6 -28 10 0 29 10
42 22 20 19 40 24 120 30 52 3 98 9 101 13 15 15 -28 26 -84 20 -57 -5 -61 -4
-60 17 1 15 -7 23 -26 29 -21 5 -28 4 -28 -7z"/>
  <path d="M267 561 c-9 -21 -31 -53 -47 -70 -51 -53 -35 -56 37 -7 42 29 59 34
120 38 40 2 75 7 80 11 15 16 -23 28 -68 22 -43 -5 -46 -4 -45 17 1 18 -5 24
-29 26 -26 2 -32 -3 -48 -37z"/>
  <path d="M550 514 c0 -13 44 -44 62 -44 23 0 36 29 17 41 -16 10 -79 12 -79 3z"/>
  <path d="M300 501 c0 -11 44 -51 57 -51 14 0 26 31 16 40 -12 11 -73 20 -73
11z"/>
  <path d="M415 460 c6 -30 6 -30 -37 -32 -24 0 -55 0 -70 1 -33 3 -36 -9 -8
-27 31 -19 17 -29 -55 -37 -40 -4 -63 -11 -59 -17 4 -6 32 -7 74 -3 66 7 68 6
74 -18 5 -23 9 -24 51 -19 36 4 45 1 45 -10 0 -16 -56 -28 -126 -28 l-33 0 27
-44 c17 -27 31 -41 36 -35 6 5 25 9 44 9 26 0 33 -4 30 -17 -4 -20 -66 -30
-205 -34 -46 -1 -83 -5 -83 -10 0 -18 55 -22 146 -10 120 14 119 14 104 -4
-15 -18 -5 -35 23 -35 52 -1 49 -18 -7 -39 -31 -11 -67 -21 -79 -22 -12 -1
-33 -5 -47 -10 -55 -19 116 1 177 22 l63 21 62 -31 c60 -30 88 -37 101 -25 15
15 -70 66 -115 69 -21 1 -16 18 13 44 33 31 34 31 146 31 114 0 140 9 80 29
-23 8 -56 8 -112 1 -58 -7 -87 -7 -112 2 -25 9 -36 9 -41 1 -12 -19 -55 -20
-58 0 -1 9 2 17 7 17 6 0 8 3 6 8 -3 4 24 5 59 4 61 -4 66 -2 93 27 41 44 22
56 -85 53 -70 -2 -83 0 -78 12 4 10 23 16 57 18 45 3 54 6 65 31 13 26 16 27
88 27 40 0 74 4 74 10 0 13 -64 24 -100 16 -25 -4 -30 -2 -30 14 0 28 -57 43
-107 26 -16 -5 -28 0 -47 19 -36 36 -59 34 -51 -5z m145 -50 c0 -17 -7 -20
-40 -20 -22 0 -43 0 -47 -1 -5 0 -9 7 -11 15 -2 9 7 16 25 19 63 9 73 8 73
-13z m-130 -10 c0 -12 -10 -16 -56 -23 -23 -4 -33 -1 -42 14 -11 18 -9 19 43
19 31 0 55 -4 55 -10z m120 -45 c0 -11 -12 -15 -45 -15 -33 0 -45 4 -45 15 0
11 12 15 45 15 33 0 45 -4 45 -15z m-120 -10 c0 -16 -64 -22 -74 -6 -9 14 5
21 41 21 23 0 33 -5 33 -15z m160 -79 c0 -28 -16 -36 -70 -36 -53 0 -59 2 -57
20 1 18 8 20 64 20 35 0 63 -2 63 -4z m-160 -26 c0 -17 -7 -20 -49 -20 -49 0
-68 10 -56 30 3 6 28 10 56 10 42 0 49 -3 49 -20z m90 -98 c0 -17 -43 -53 -57
-48 -8 3 -28 6 -45 6 -39 0 -32 21 13 37 40 14 89 17 89 5z"/>
</g>
<g id="part-1" class="char-part">
  <path d="M522 588 c-6 -18 -23 -46 -37 -62 -38 -44 -33 -45 25 -6 16 11 56 19
114 24 50 3 92 9 95 11 18 19 -50 24 -125 10 -38 -7 -39 -7 -21 13 18 20 18
21 -2 31 -30 16 -36 14 -49 -21z"/>
  <path d="M278 566 c-9 -18 -31 -50 -48 -70 -38 -43 -27 -46 26 -8 31 23 54 30
113 35 40 3 76 9 79 12 9 9 -21 25 -38 21 -8 -2 -33 -7 -55 -11 l-40 -7 20 22
c16 18 17 23 5 30 -27 18 -46 10 -62 -24z"/>
  <path d="M573 495 c32 -28 57 -32 57 -10 0 16 -38 35 -68 35 -13 -1 -10 -6 11
-25z"/>
  <path d="M310 490 c0 -10 32 -30 49 -30 17 0 13 27 -5 34 -23 9 -44 7 -44 -4z"/>
</g>
<g id="part-2" class="char-part">
  <path d="M410 481 c0 -27 15 -41 41 -41 37 0 39 27 3 40 -32 12 -44 13 -44 1z"/>
</g>
<g id="part-3" class="char-part">
  <path d="M460 440 c-30 -5 -86 -8 -124 -9 l-69 -1 21 -23 c12 -13 22 -26 22
-29 0 -3 -32 -9 -72 -13 -55 -6 -67 -10 -53 -17 10 -6 43 -8 77 -4 56 5 59 4
70 -20 6 -13 17 -23 24 -20 6 2 59 8 117 12 105 7 106 7 116 35 10 28 11 29
85 29 43 0 76 4 76 10 0 15 -47 23 -95 17 -38 -6 -43 -4 -38 9 12 33 -37 40
-157 24z m98 -27 c-2 -14 -15 -19 -52 -21 -36 -2 -47 0 -44 10 3 7 18 16 34
19 53 12 66 10 62 -8z m-138 -18 c0 -8 -9 -15 -19 -15 -11 0 -26 -3 -34 -6
-10 -3 -20 3 -27 15 -10 20 -8 21 35 21 33 0 45 -4 45 -15z m134 -39 c-6 -15
-82 -27 -90 -14 -11 17 9 28 51 28 34 0 43 -3 39 -14z m-126 -8 c-7 -20 -68
-23 -68 -4 0 12 10 16 36 16 24 0 34 -4 32 -12z"/>
</g>
<g id="part-4" class="char-part">
  <path d="M410 186 c0 -24 -12 -27 -152 -33 -73 -3 -135 -8 -138 -10 -2 -2 2
-9 10 -14 14 -10 53 -8 195 7 60 7 60 7 42 -13 -16 -19 -16 -21 -2 -27 9 -3
27 -6 40 -6 75 0 2 -41 -118 -66 l-62 -13 75 4 c41 2 103 13 137 25 l63 22 61
-31 c34 -17 73 -31 86 -31 43 0 8 37 -57 61 -33 12 -60 23 -60 25 0 2 15 17
33 33 32 31 33 31 145 31 84 0 113 3 110 12 -7 21 -61 28 -142 18 -60 -7 -89
-7 -115 3 -27 9 -35 9 -38 0 -3 -7 -18 -13 -34 -13 -18 0 -28 5 -26 13 1 7
-10 13 -25 15 -20 2 -28 -1 -28 -12z m110 -44 c0 -21 -43 -53 -64 -48 -11 3
-31 6 -43 6 -31 0 -29 16 3 33 29 15 104 22 104 9z"/>
</g>
</g>
</svg>