<?xml version="1.0" standalone="no"?>
<!DOCTYPE svg PUBLIC "-//W3C//DTD SVG 20010904//EN"
 "http://www.w3.org/TR/2001/REC-SVG-20010904/DTD/svg10.dtd">
<svg version="1.0" xmlns="http://www.w3.org/2000/svg"
 width="96.000000pt" height="68.000000pt" viewBox="0 0 96.000000 68.000000"
 preserveAspectRatio="xMidYMid meet">
<metadata>
Created by potrace 1.16, written by Peter Selinger 2001-2019
Combined from part_0.svg through part_5.svg with named groups
</metadata>
<g transform="translate(0.000000,68.000000) scale(0.100000,-0.100000)" fill="#000000" stroke="none">
<g id="part-0" class="char-part">
  <path d="M684 578 c13 -49 19 -165 8 -172 -6 -4 -41 -9 -77 -13 l-65 -6 0 61
c0 50 -3 63 -19 72 -43 22 -48 15 -39 -56 9 -66 6 -95 -9 -93 -4 1 -21 1 -36
0 -42 -2 -22 -21 22 -21 l38 0 2 -112 c2 -125 10 -152 32 -120 10 14 28 21 65
23 46 4 53 1 77 -26 25 -29 26 -29 44 -12 15 15 19 38 22 147 l3 130 43 0 c24
0 46 4 50 9 8 14 -28 31 -67 31 l-33 0 6 73 c6 81 -5 107 -49 107 -20 0 -23
-4 -18 -22z m16 -249 c0 -34 -3 -39 -22 -39 -13 0 -47 -3 -75 -6 l-53 -7 0 41
c0 45 -10 40 110 55 36 4 40 0 40 -44z m-1 -108 l-2 -50 -74 -3 -73 -3 0 47 0
47 53 4 c28 2 62 4 75 5 21 2 22 -2 21 -47z"/>
  <path d="M237 503 c-87 -17 -93 -33 -13 -33 58 0 69 -11 59 -63 -4 -23 -11
-25 -75 -32 -39 -3 -80 -10 -92 -15 -43 -16 14 -24 87 -12 39 7 71 11 73 10 1
-2 0 -22 -3 -46 l-6 -42 -53 0 c-30 0 -54 -4 -54 -10 0 -5 4 -10 9 -10 5 0 17
-29 26 -65 10 -36 22 -65 26 -65 5 0 9 4 9 9 0 5 38 12 85 16 72 6 83 10 76
23 -6 10 -1 30 15 60 29 55 21 65 -50 58 l-48 -5 7 37 c9 48 21 62 54 62 39 0
72 11 65 21 -3 5 -28 6 -56 3 -51 -7 -51 -7 -44 17 5 13 8 32 9 42 1 12 13 19
39 24 40 6 49 17 22 27 -24 9 -81 6 -167 -11z m123 -270 c0 -44 -14 -56 -72
-61 -53 -4 -53 -4 -66 30 -6 19 -12 37 -12 41 0 7 44 13 108 15 40 2 42 0 42
-25z"/>
</g>
<g id="part-1" class="char-part">
  <path d="M250 501 c-118 -23 -86 -36 50 -20 106 12 128 20 94 33 -22 9 -48 6
-144 -13z"/>
</g>
<g id="part-2" class="char-part">
  <path d="M315 280 c-16 -4 -61 -8 -99 -9 -67 -1 -69 -2 -52 -20 10 -10 23 -42
31 -71 16 -62 20 -67 39 -51 8 7 49 15 91 18 67 5 75 8 70 24 -3 10 3 37 14
60 11 23 18 46 15 50 -6 11 -66 10 -109 -1z m42 -56 c-3 -20 -8 -38 -11 -41
-2 -2 -28 -7 -59 -10 -54 -5 -54 -5 -66 27 -6 18 -11 37 -11 41 0 8 42 14 114
17 l39 2 -6 -36z"/>
</g>
<g id="part-3" class="char-part">
  <path d="M683 570 c14 -66 19 -158 10 -163 -5 -3 -40 -9 -76 -13 l-67 -7 0 56
c0 58 -16 87 -47 87 -14 0 -15 -11 -9 -74 6 -71 6 -74 -16 -80 -13 -3 -34 -6
-48 -6 -20 0 -22 -2 -10 -10 8 -5 29 -10 46 -10 40 0 44 -13 44 -142 0 -99 8
-123 32 -89 8 12 31 21 63 25 48 7 51 6 73 -23 49 -67 72 -21 72 145 l0 114
44 0 c25 0 47 4 51 9 8 14 -28 31 -65 31 l-31 0 2 81 c3 86 -3 99 -50 99 -21
0 -23 -3 -18 -30z m15 -301 l-3 -94 -72 -3 -73 -3 0 95 0 95 43 5 c23 3 53 7
67 9 14 2 29 0 33 -3 4 -4 6 -49 5 -101z"/>
</g>
<g id="part-4" class="char-part">
  <path d="M593 283 c-54 -5 -57 -23 -4 -23 51 0 101 10 101 21 0 9 -15 9 -97 2z"/>
</g>
</g>
</svg>