<?xml version="1.0" standalone="no"?>
<!DOCTYPE svg PUBLIC "-//W3C//DTD SVG 20010904//EN"
 "http://www.w3.org/TR/2001/REC-SVG-20010904/DTD/svg10.dtd">
<svg version="1.0" xmlns="http://www.w3.org/2000/svg"
 width="96.000000pt" height="68.000000pt" viewBox="0 0 96.000000 68.000000"
 preserveAspectRatio="xMidYMid meet">
<metadata>
Created by potrace 1.16, written by Peter Selinger 2001-2019
Combined from part_0.svg through part_5.svg with named groups
</metadata>
<g transform="translate(0.000000,68.000000) scale(0.100000,-0.100000)" fill="#000000" stroke="none">
<g id="part-0" class="char-part">
  <path d="M545 568 l0 -53 -35 -3 c-53 -5 -62 -22 -12 -22 23 0 42 -5 42 -11 0
-6 -27 -37 -59 -70 -33 -32 -53 -59 -46 -59 8 0 20 6 27 13 7 7 30 26 52 42
l39 29 -7 -31 c-4 -19 -3 -41 4 -53 18 -33 40 -7 40 46 0 24 2 44 5 44 3 0 24
-14 47 -30 50 -37 81 -40 76 -7 -2 17 -16 26 -65 42 -75 24 -85 49 -25 59 58
11 73 17 66 28 -4 6 -25 7 -54 3 l-49 -7 -3 44 c-2 34 -7 44 -23 46 -19 3 -21
-2 -20 -50z"/>
  <path d="M298 552 l4 -59 -61 -7 c-90 -10 -90 -36 0 -36 21 0 39 -4 39 -9 0
-12 -90 -91 -117 -104 -28 -12 -30 -27 -5 -27 21 0 101 49 122 75 14 17 15 15
20 -26 4 -36 9 -44 25 -44 17 0 21 8 25 53 5 52 5 53 23 32 22 -26 52 -22 52
5 0 15 -10 22 -38 29 -44 11 -44 28 2 37 38 8 45 14 36 29 -4 7 -22 10 -41 8
l-33 -4 -3 51 c-3 45 -5 50 -29 53 -25 3 -25 2 -21 -56z"/>
  <path d="M405 294 c-88 -12 -164 -23 -170 -23 -5 -1 -4 -6 2 -12 7 -7 34 -7
92 1 45 7 85 9 89 6 3 -4 8 -39 10 -78 5 -79 8 -77 -77 -42 -32 14 -33 15 -17
33 16 17 16 20 1 35 -24 23 -45 20 -45 -7 0 -34 -50 -98 -103 -134 -26 -17
-44 -33 -41 -36 8 -8 96 42 134 77 l33 29 56 -23 c31 -13 83 -35 116 -50 110
-51 137 -60 173 -60 43 0 142 22 142 31 0 3 -42 11 -92 17 -51 6 -126 18 -165
27 l-73 17 0 39 c0 39 0 39 39 39 54 0 101 11 101 23 0 6 -25 7 -69 3 l-70 -7
6 38 c3 21 7 39 8 41 1 1 33 5 70 9 l67 6 -12 -22 c-6 -13 -10 -24 -8 -27 5
-4 94 28 103 38 13 13 -55 38 -97 37 -24 -1 -115 -12 -203 -25z"/>
</g>
<g id="part-1" class="char-part">
  <path d="M305 546 l7 -54 -48 -7 c-89 -12 -106 -23 -36 -24 34 -1 62 -4 62 -7
0 -14 -55 -75 -90 -99 -43 -30 -55 -53 -17 -34 12 6 46 29 75 51 l52 39 -5
-38 c-3 -21 -2 -44 4 -52 17 -25 31 0 31 56 l0 56 23 -21 c29 -27 60 -29 55
-4 -2 10 -18 21 -41 26 -50 13 -47 32 8 40 25 4 45 11 45 16 0 13 -28 20 -62
13 l-31 -6 7 51 c7 51 6 52 -19 52 -26 0 -26 -1 -20 -54z"/>
</g>
<g id="part-2" class="char-part">
  <path d="M545 568 l0 -53 -47 -3 c-61 -4 -63 -22 -3 -22 26 0 45 -5 45 -11 0
-6 -28 -38 -61 -70 -81 -78 -41 -78 44 0 l28 26 -6 -41 c-5 -30 -3 -43 9 -53
23 -19 30 -8 36 55 l5 54 35 -30 c49 -42 100 -52 100 -19 0 15 -60 47 -102 54
-28 5 -38 12 -38 25 0 13 11 19 46 25 60 9 75 15 68 27 -4 6 -28 7 -61 3 l-55
-7 4 44 c3 40 1 43 -22 46 -25 3 -26 1 -25 -50z"/>
</g>
<g id="part-3" class="char-part">
  <path d="M435 299 c-224 -31 -221 -30 -202 -40 11 -6 71 -3 174 11 87 11 171
20 187 20 28 0 28 0 12 -25 -20 -30 -15 -30 46 -7 62 24 65 28 29 46 -37 19
-78 19 -246 -5z"/>
</g>
<g id="part-4" class="char-part">
  <path d="M445 273 c-18 -3 -20 -10 -17 -76 4 -67 14 -93 34 -81 4 3 8 18 8 35
0 28 2 29 48 30 26 1 58 4 72 8 44 12 3 23 -60 16 l-59 -7 6 35 c6 37 -1 45
-32 40z"/>
</g>
<g id="part-5" class="char-part">
  <path d="M295 199 c3 -14 -3 -30 -15 -42 -11 -10 -18 -22 -15 -28 4 -5 0 -9
-8 -9 -13 0 -27 -20 -27 -36 0 -3 14 5 31 17 23 16 28 24 17 30 -10 7 -9 9 5
9 9 0 17 5 17 11 0 5 4 8 9 5 5 -3 12 1 15 10 4 10 2 13 -7 9 -6 -4 -3 1 7 9
22 18 21 21 -11 30 -19 6 -21 4 -18 -15z"/>
  <path d="M370 126 c0 -2 7 -7 16 -10 8 -3 12 -2 9 4 -6 10 -25 14 -25 6z"/>
  <path d="M415 110 c3 -5 8 -10 11 -10 2 0 4 5 4 10 0 6 -5 10 -11 10 -5 0 -7
-4 -4 -10z"/>
  <path d="M440 96 c0 -10 28 -13 41 -5 10 6 7 9 -13 9 -16 0 -28 -2 -28 -4z"/>
  <path d="M210 82 c0 -6 -8 -13 -17 -15 -16 -4 -16 -5 -1 -6 18 -1 34 16 24 26
-3 4 -6 1 -6 -5z"/>
  <path d="M493 82 c-9 -5 0 -13 25 -22 20 -8 41 -13 45 -12 4 1 15 -4 23 -13 9
-8 21 -15 27 -16 7 0 23 -2 37 -3 13 -2 47 2 75 9 l50 12 -40 7 c-22 4 -57 11
-78 17 -21 6 -46 7 -57 4 -10 -3 -33 1 -49 9 -34 18 -41 19 -58 8z"/>
</g>
</g>
</svg>