<?xml version="1.0" standalone="no"?>
<!DOCTYPE svg PUBLIC "-//W3C//DTD SVG 20010904//EN"
 "http://www.w3.org/TR/2001/REC-SVG-20010904/DTD/svg10.dtd">
<svg version="1.0" xmlns="http://www.w3.org/2000/svg"
 width="96.000000pt" height="68.000000pt" viewBox="0 0 96.000000 68.000000"
 preserveAspectRatio="xMidYMid meet">
<metadata>
Created by potrace 1.16, written by Peter Selinger 2001-2019
Combined from part_0.svg through part_5.svg with named groups
</metadata>
<g transform="translate(0.000000,68.000000) scale(0.100000,-0.100000)" fill="#000000" stroke="none">
<g id="part-0" class="char-part">
  <path d="M500 595 c0 -8 -4 -15 -10 -15 -5 0 -10 -5 -10 -11 0 -6 -10 -19 -22
-30 -26 -21 -12 -26 17 -5 24 16 89 29 98 20 4 -4 -4 -17 -18 -29 -25 -24
-132 -44 -155 -30 -8 5 -9 -3 -5 -28 7 -34 -7 -58 -20 -37 -3 5 -18 10 -32 10
-24 0 -25 2 -20 38 4 20 9 49 13 64 5 24 3 27 -32 37 -47 13 -57 5 -44 -39 6
-19 10 -54 10 -76 l0 -42 -47 -6 c-64 -9 -83 -15 -83 -27 0 -5 30 -9 66 -9
l65 0 -3 -37 c-3 -36 -3 -36 -90 -67 -49 -17 -86 -35 -85 -41 2 -5 16 -14 31
-20 22 -8 37 -4 88 24 l61 34 -6 -39 c-4 -21 -7 -59 -7 -83 l0 -44 -40 7 -40
6 37 -40 c70 -76 93 -50 93 109 0 61 3 111 8 111 4 0 18 10 32 21 l25 21 -32
-6 c-31 -5 -33 -4 -33 25 0 31 4 34 58 43 33 6 34 6 32 -32 -3 -71 2 -75 58
-46 45 22 48 34 7 27 -28 -4 -35 -2 -35 11 0 11 9 16 28 16 15 0 34 5 42 11
11 7 5 9 -25 7 -30 -2 -40 1 -43 13 -3 14 14 18 123 24 71 4 125 11 125 17 0
5 10 18 23 28 32 26 15 35 -61 33 -73 -1 -73 1 -2 48 l24 16 -22 12 c-16 8
-28 9 -41 1 -29 -15 -61 -12 -61 5 0 8 -9 15 -20 15 -11 0 -20 -7 -20 -15z
m160 -102 c-1 -24 -24 -31 -122 -38 -96 -7 -108 -6 -108 9 0 12 10 16 38 17
20 0 55 4 77 8 52 11 115 13 115 4z"/>
  <path d="M587 423 c-10 -9 -8 -66 3 -83 12 -19 140 -27 180 -10 35 14 37 21
12 43 -16 15 -19 15 -30 -3 -10 -17 -23 -20 -78 -20 -82 0 -82 18 0 40 45 13
55 18 44 27 -10 9 -19 8 -38 -2 -33 -19 -60 -19 -60 0 0 15 -21 21 -33 8z"/>
  <path d="M479 299 c-37 -40 -38 -51 -3 -24 21 16 84 21 84 6 0 -19 -28 -30
-96 -36 l-71 -7 20 -43 c19 -41 21 -43 58 -38 25 4 39 2 39 -6 0 -20 -55 -70
-105 -95 -59 -30 -34 -35 28 -6 50 25 76 46 100 83 27 41 37 33 37 -31 0 -57
1 -59 35 -75 41 -20 117 -22 181 -6 53 14 57 18 48 64 -7 37 -24 49 -24 17 0
-39 -37 -57 -116 -57 -92 0 -100 7 -88 77 9 52 10 53 44 53 19 0 35 5 35 10 0
6 9 23 19 38 10 15 15 31 11 35 -4 4 -39 6 -78 5 l-72 -2 33 20 c41 26 32 43
-19 35 -31 -5 -39 -3 -39 9 0 25 -23 16 -61 -26z m181 -74 c0 -15 -6 -25 -14
-25 -7 0 -28 -3 -46 -7 -28 -5 -32 -4 -27 10 3 9 1 20 -6 24 -12 8 26 19 71
22 17 1 22 -4 22 -24z m-140 -20 c0 -22 -4 -25 -39 -25 -26 0 -41 5 -45 16
-10 25 2 34 45 34 35 0 39 -3 39 -25z"/>
  <path d="M672 138 c2 -6 16 -21 31 -32 22 -16 29 -17 40 -7 10 10 7 16 -12 32
-26 21 -65 26 -59 7z"/>
</g>
<g id="part-1" class="char-part">
  <path d="M267 501 c6 -88 10 -83 -75 -96 -62 -10 -41 -29 24 -22 l54 6 0 -42
c0 -42 0 -42 -57 -64 -32 -12 -70 -25 -86 -29 -33 -8 -35 -21 -3 -35 21 -10
33 -7 79 20 30 17 57 31 61 31 3 0 6 -33 6 -74 0 -86 -11 -103 -56 -86 -27 10
-27 9 13 -31 41 -42 43 -43 63 -24 18 16 20 30 20 131 0 111 0 113 28 133 l27
21 -27 -10 c-28 -9 -28 -9 -28 30 0 33 3 40 19 40 26 0 51 10 51 21 0 5 -16 9
-36 9 l-36 0 7 43 c4 23 11 50 16 59 7 12 3 21 -13 32 -12 9 -30 16 -39 16
-15 0 -16 -9 -12 -79z"/>
</g>
<g id="part-2" class="char-part">
  <path d="M499 598 c-6 -13 -23 -35 -37 -50 -27 -30 -20 -37 13 -14 11 7 40 16
64 20 45 7 45 7 26 -14 -26 -28 -13 -35 25 -13 18 10 41 22 51 28 24 12 24 22
0 35 -14 7 -31 6 -61 -5 -37 -13 -41 -13 -36 0 3 9 -3 19 -14 25 -16 8 -21 6
-31 -12z"/>
</g>
<g id="part-3" class="char-part">
  <path d="M629 516 c-6 -6 -155 -21 -205 -21 l-40 0 12 -35 c7 -19 16 -35 21
-35 4 0 64 4 132 9 116 7 125 9 147 34 21 25 22 28 7 40 -16 11 -65 17 -74 8z
m31 -25 c0 -21 -31 -30 -127 -36 -88 -7 -103 -5 -103 7 0 12 20 18 83 25 112
14 147 15 147 4z"/>
</g>
<g id="part-4" class="char-part">
  <path d="M672 138 c2 -6 16 -21 31 -32 22 -16 29 -17 40 -7 10 10 7 16 -12 32
-26 21 -65 26 -59 7z"/>
</g>
</g>
</svg>