<?xml version="1.0" standalone="no"?>
<!DOCTYPE svg PUBLIC "-//W3C//DTD SVG 20010904//EN"
 "http://www.w3.org/TR/2001/REC-SVG-20010904/DTD/svg10.dtd">
<svg version="1.0" xmlns="http://www.w3.org/2000/svg"
 width="96.000000pt" height="68.000000pt" viewBox="0 0 96.000000 68.000000"
 preserveAspectRatio="xMidYMid meet">
<metadata>
Created by potrace 1.16, written by Peter Selinger 2001-2019
Combined from part_0.svg through part_5.svg with named groups
</metadata>
<g transform="translate(0.000000,68.000000) scale(0.100000,-0.100000)" fill="#000000" stroke="none">
<g id="part-0" class="char-part">
  <path d="M567 576 c3 -20 -2 -55 -12 -86 -19 -57 -38 -70 -108 -70 -23 0 -49
-4 -56 -9 -22 -14 30 -25 79 -17 27 4 40 3 40 -5 0 -20 -100 -147 -149 -189
-56 -49 -26 -41 46 12 29 21 57 38 63 38 14 0 27 -32 40 -102 12 -60 17 -67
38 -46 12 12 17 13 137 16 51 1 66 5 58 13 -13 13 8 69 41 107 l21 23 -25 19
c-30 24 -35 24 -162 5 -56 -9 -108 -13 -115 -11 -9 4 -1 24 28 70 l40 64 123
7 c137 8 168 17 121 35 -23 9 -53 9 -124 1 -52 -6 -96 -10 -98 -8 -3 4 19 64
40 106 10 20 8 26 -12 42 -13 10 -31 19 -41 19 -16 0 -18 -6 -13 -34z m139
-358 c-4 -29 -10 -56 -14 -59 -13 -12 -140 -21 -146 -11 -3 6 -9 30 -12 54
l-6 44 48 11 c27 6 69 11 93 12 l44 1 -7 -52z"/>
  <path d="M310 573 c0 -40 -60 -133 -139 -215 -46 -49 -79 -88 -72 -88 18 0 83
36 109 60 12 11 22 17 22 13 0 -4 4 -1 10 7 20 31 23 -5 11 -115 -9 -83 -9
-120 -1 -135 15 -27 38 -25 50 4 14 38 14 274 0 291 -9 11 -2 27 39 81 28 37
51 71 51 75 0 12 -42 39 -62 39 -10 0 -18 -7 -18 -17z"/>
</g>
<g id="part-1" class="char-part">
  <path d="M316 578 c-20 -64 -29 -85 -60 -131 -20 -30 -63 -80 -96 -111 -33
-32 -60 -59 -60 -62 0 -10 81 38 114 66 18 17 36 30 40 30 10 0 7 -153 -5
-194 -8 -28 -7 -46 1 -67 14 -32 22 -36 38 -16 12 14 19 283 8 308 -4 10 11
38 45 83 43 57 49 70 38 81 -22 21 -59 28 -63 13z"/>
</g>
<g id="part-2" class="char-part">
  <path d="M567 573 c3 -24 -2 -57 -14 -88 -20 -54 -23 -55 -138 -70 -41 -6 -46
-9 -31 -17 10 -6 43 -8 72 -5 30 3 54 2 54 -2 0 -18 -66 -104 -127 -165 -72
-73 -58 -76 37 -7 41 30 74 66 106 116 l47 73 122 7 c120 7 158 16 141 32 -10
10 -115 10 -189 0 l-57 -9 21 54 c34 85 34 93 4 106 -45 21 -54 16 -48 -25z"/>
</g>
<g id="part-3" class="char-part">
  <path d="M610 284 c-47 -8 -93 -12 -102 -10 -10 2 -20 0 -23 -5 -5 -7 32 -169
41 -178 2 -2 10 2 18 8 8 7 55 15 105 18 81 5 91 8 91 25 0 22 25 75 48 101
15 17 15 20 -8 38 -29 21 -53 22 -170 3z m92 -64 c-2 -25 -8 -50 -15 -57 -7
-7 -42 -15 -78 -19 l-66 -6 -6 38 c-12 69 -11 70 46 82 28 5 68 9 87 8 l35 -1
-3 -45z"/>
</g>
</g>
</svg>