<?xml version="1.0" standalone="no"?>
<!DOCTYPE svg PUBLIC "-//W3C//DTD SVG 20010904//EN"
 "http://www.w3.org/TR/2001/REC-SVG-20010904/DTD/svg10.dtd">
<svg version="1.0" xmlns="http://www.w3.org/2000/svg"
 width="96.000000pt" height="68.000000pt" viewBox="0 0 96.000000 68.000000"
 preserveAspectRatio="xMidYMid meet">
<metadata>
Created by potrace 1.16, written by Peter Selinger 2001-2019
Combined from part_0.svg through part_5.svg with named groups
</metadata>
<g transform="translate(0.000000,68.000000) scale(0.100000,-0.100000)" fill="#000000" stroke="none">
<g id="part-0" class="char-part">
  <path d="M290 576 c0 -7 7 -19 15 -26 32 -26 16 -38 -60 -45 -77 -7 -91 -16
-55 -35 19 -10 58 -7 172 16 23 5 26 2 21 -15 -6 -22 -15 -25 -73 -23 -31 2
-32 1 -12 -8 30 -13 28 -25 -8 -40 -17 -7 -33 -16 -35 -21 -6 -8 29 1 78 20
18 7 35 7 53 1 56 -22 87 -6 39 20 -28 15 -33 35 -10 44 8 3 15 12 15 21 0 10
10 15 30 15 17 0 30 4 30 10 0 14 -46 23 -80 16 -25 -5 -30 -2 -30 15 0 13
-11 25 -35 35 -43 18 -55 18 -55 0z"/>
  <path d="M603 513 c-99 -16 -123 -33 -48 -33 39 0 45 -3 45 -21 0 -35 -19 -59
-48 -59 l-27 0 1 -108 c1 -140 1 -135 24 -129 33 8 24 -18 -24 -70 -24 -26
-43 -50 -41 -52 12 -11 155 96 155 116 0 19 89 17 110 -2 29 -26 38 2 41 129
2 115 2 119 -20 131 -19 10 -37 9 -89 -2 -36 -7 -67 -11 -70 -8 -3 3 7 18 22
34 16 16 25 34 22 39 -3 6 26 13 74 17 80 7 100 17 58 29 -33 8 -80 5 -185
-11z m135 -145 c3 -25 0 -28 -26 -28 -16 0 -56 -3 -89 -6 -58 -6 -60 -6 -58
17 1 21 9 25 66 35 90 17 103 14 107 -18z m2 -72 c0 -21 -5 -24 -61 -30 -108
-11 -119 -9 -119 19 0 22 4 24 58 28 131 8 122 9 122 -17z m3 -66 c3 -11 2
-22 -1 -24 -4 -2 -45 -5 -92 -7 -81 -4 -85 -3 -88 18 -3 21 1 22 70 26 40 1
80 4 89 5 9 1 19 -7 22 -18z"/>
  <path d="M360 359 c-25 -4 -73 -8 -106 -8 l-62 -1 5 -44 c6 -53 -17 -139 -52
-190 -32 -48 -26 -57 13 -19 38 36 65 93 81 165 7 32 16 60 20 62 4 3 59 8
122 12 63 3 116 8 119 11 2 2 -2 8 -10 13 -17 11 -66 11 -130 -1z"/>
  <path d="M362 300 c-7 -11 -34 -34 -60 -50 -66 -41 -35 -37 54 7 75 38 88 56
43 61 -16 2 -28 -4 -37 -18z"/>
  <path d="M390 239 c0 -15 -20 -33 -79 -69 -77 -48 -54 -48 41 0 98 48 108 57
88 70 -20 13 -50 12 -50 -1z"/>
  <path d="M430 155 c-22 -27 -91 -71 -155 -99 -58 -26 -59 -27 -20 -22 55 7
226 96 223 116 -4 21 -32 24 -48 5z"/>
  <path d="M700 134 c0 -16 103 -102 116 -97 30 11 5 59 -39 78 -51 20 -77 27
-77 19z"/>
</g>
<g id="part-1" class="char-part">
  <path d="M309 554 c12 -15 21 -30 21 -35 0 -4 -26 -10 -57 -14 -32 -3 -69 -8
-83 -11 -23 -5 -24 -6 -6 -16 22 -12 296 19 296 34 0 10 -12 11 -68 8 -34 -1
-41 1 -36 13 7 19 -32 47 -64 47 l-23 0 20 -26z"/>
</g>
<g id="part-2" class="char-part">
  <path d="M420 145 c-14 -15 -65 -47 -115 -72 -85 -43 -88 -45 -45 -39 54 8
215 95 215 116 0 25 -30 22 -55 -5z"/>
</g>
<g id="part-3" class="char-part">
  <path d="M597 511 c-100 -16 -119 -31 -40 -31 37 0 43 -3 43 -21 0 -11 -5 -29
-10 -40 -17 -31 7 -23 40 14 16 17 30 37 30 43 0 6 30 14 72 18 78 7 90 12 68
26 -21 14 -89 11 -203 -9z"/>
</g>
<g id="part-4" class="char-part">
  <path d="M665 409 c-22 -4 -62 -8 -90 -8 l-50 -1 0 -95 c0 -84 2 -95 18 -95 9
0 17 6 17 14 0 16 173 32 178 16 2 -6 14 -10 28 -10 23 0 24 3 23 64 -1 35 2
73 5 84 12 38 -38 50 -129 31z m73 -41 c3 -25 0 -28 -26 -28 -16 0 -56 -3 -89
-6 l-61 -7 5 26 c4 22 12 26 61 35 88 15 106 12 110 -20z m3 -55 c0 -5 2 -16
4 -25 2 -14 -10 -17 -81 -23 -105 -9 -98 -10 -102 19 -3 27 -12 25 146 34 17
1 32 -1 33 -5z"/>
</g>
<g id="part-5" class="char-part">
  <path d="M580 145 c0 -8 -4 -15 -10 -15 -5 0 -10 -7 -10 -15 0 -8 -5 -15 -11
-15 -5 0 -7 -5 -3 -12 5 -8 15 -2 31 16 12 15 23 24 23 20 0 -3 7 -1 15 6 21
18 19 25 -10 28 -16 1 -25 -3 -25 -13z"/>
  <path d="M710 133 c1 -15 59 -65 68 -59 5 3 9 -2 8 -10 0 -9 7 -18 17 -19 9
-2 17 3 17 11 0 17 -50 67 -58 59 -3 -3 -16 2 -29 10 -13 9 -23 12 -23 8z m57
-38 c0 -8 -4 -12 -9 -9 -5 3 -6 10 -3 15 9 13 12 11 12 -6z"/>
</g>
</g>
</svg>