<?xml version="1.0" standalone="no"?>
<!DOCTYPE svg PUBLIC "-//W3C//DTD SVG 20010904//EN"
 "http://www.w3.org/TR/2001/REC-SVG-20010904/DTD/svg10.dtd">
<svg version="1.0" xmlns="http://www.w3.org/2000/svg"
 width="96.000000pt" height="68.000000pt" viewBox="0 0 96.000000 68.000000"
 preserveAspectRatio="xMidYMid meet">
<metadata>
Created by potrace 1.16, written by Peter Selinger 2001-2019
Combined from part_0.svg through part_5.svg with named groups
</metadata>
<g transform="translate(0.000000,68.000000) scale(0.100000,-0.100000)" fill="#000000" stroke="none">
<g id="part-0" class="char-part">
  <path d="M555 581 c-3 -11 -18 -33 -34 -49 -21 -24 -33 -29 -55 -25 -28 6 -28
5 -13 -18 8 -13 20 -43 27 -67 l11 -42 39 6 c22 4 40 3 41 -2 0 -5 2 -18 5
-29 2 -11 1 -36 -2 -57 -5 -32 -11 -39 -56 -58 -69 -29 -53 -38 19 -10 47 19
162 80 183 97 3 3 -4 11 -14 19 -18 13 -23 11 -52 -17 -36 -35 -46 -28 -37 25
4 28 11 38 30 42 13 4 30 1 36 -5 6 -6 14 -11 18 -11 6 0 69 124 69 136 0 2
-18 8 -39 15 -32 10 -52 9 -110 -6 -69 -17 -118 -16 -76 1 11 4 26 14 33 21 7
7 21 17 30 23 15 8 15 11 2 20 -24 16 -48 12 -55 -9z m145 -85 c0 -22 -4 -23
-97 -30 -74 -5 -98 -4 -104 6 -7 10 12 16 76 24 46 7 89 14 97 17 24 10 28 7
28 -17z m-6 -60 c-3 -9 -35 -17 -87 -24 -86 -11 -97 -9 -97 13 0 10 17 15 58
18 129 8 132 8 126 -7z"/>
  <path d="M338 552 c-12 -10 -59 -36 -103 -60 l-80 -43 45 5 c25 4 54 7 65 9
17 2 20 -5 23 -44 l3 -47 -73 -7 c-40 -4 -82 -11 -93 -15 -37 -14 34 -24 89
-13 28 6 53 9 55 7 10 -10 -29 -64 -92 -126 -51 -51 -61 -65 -41 -58 40 15
100 61 121 92 36 55 40 36 22 -105 -10 -78 -10 -90 5 -105 27 -27 34 -3 37
126 2 67 7 122 11 122 5 0 18 -11 30 -25 25 -29 61 -34 56 -8 -2 10 -22 27
-45 38 -32 14 -43 25 -43 42 0 18 6 23 28 23 39 0 72 11 72 22 0 7 -18 9 -45
6 l-45 -6 0 44 c0 24 -4 44 -10 44 -27 0 -5 18 37 31 57 17 68 42 25 57 -24 8
-35 7 -54 -6z"/>
  <path d="M740 373 c1 -12 71 -63 87 -63 22 0 15 40 -9 49 -42 15 -78 21 -78
14z"/>
  <path d="M490 341 c0 -4 -11 -20 -25 -35 -30 -33 -20 -33 28 -1 41 28 47 45
17 45 -11 0 -20 -4 -20 -9z"/>
  <path d="M663 255 c-17 -18 -65 -51 -107 -74 -42 -24 -76 -44 -76 -46 0 -10
140 49 190 79 61 38 69 50 43 64 -14 7 -25 2 -50 -23z"/>
  <path d="M667 159 c-31 -30 -83 -65 -140 -94 -110 -54 -89 -60 31 -8 98 42
202 107 202 127 0 13 -24 28 -38 24 -4 -1 -29 -23 -55 -49z"/>
</g>
<g id="part-1" class="char-part">
  <path d="M329 540 c-15 -11 -57 -36 -95 -55 -56 -29 -62 -34 -34 -29 61 11
220 65 220 74 0 11 -33 30 -52 30 -7 0 -25 -9 -39 -20z"/>
</g>
<g id="part-2" class="char-part">
  <path d="M287 426 l6 -56 -28 0 c-50 0 -155 -22 -149 -31 7 -11 67 -11 117 0
25 6 37 5 37 -2 0 -17 -77 -111 -120 -146 -23 -18 -39 -35 -37 -38 10 -10 84
38 131 84 l48 48 -6 -55 c-20 -182 -17 -210 18 -197 13 5 16 24 17 104 1 54 4
111 8 126 l6 29 24 -26 c29 -31 61 -34 61 -7 0 14 -13 24 -45 37 -36 13 -45
22 -45 40 0 19 5 24 24 24 40 0 86 12 80 21 -3 5 -25 9 -49 9 l-44 0 -3 43
c-3 37 -6 42 -30 45 l-27 3 6 -55z"/>
</g>
<g id="part-3" class="char-part">
  <path d="M538 555 c-15 -25 -25 -45 -23 -45 10 0 105 64 105 70 0 9 -26 20
-43 20 -7 0 -24 -21 -39 -45z"/>
</g>
<g id="part-4" class="char-part">
  <path d="M625 525 c-22 -8 -73 -14 -112 -14 -73 -1 -86 -8 -59 -30 8 -7 18
-27 22 -44 10 -49 23 -70 37 -59 16 13 163 22 173 12 15 -15 31 2 58 64 14 32
26 60 26 61 0 7 -65 25 -84 24 -12 -1 -39 -7 -61 -14z m75 -30 c0 -23 -4 -25
-47 -26 -27 0 -70 -4 -98 -8 -47 -8 -64 -3 -65 20 0 4 130 29 198 37 7 1 12
-9 12 -23z m-6 -63 c-5 -17 -14 -18 -149 -25 -21 -2 -30 3 -33 16 -3 14 4 17
40 18 24 0 63 4 88 8 53 9 60 7 54 -17z"/>
</g>
<g id="part-5" class="char-part">
  <path d="M690 165 c-19 -23 -37 -41 -40 -39 -3 1 -23 -11 -44 -27 -50 -37 -40
-37 23 -1 45 25 51 31 51 50 0 4 5 0 10 -8 8 -13 10 -13 10 2 0 9 5 20 12 24
7 4 8 3 4 -5 -6 -8 -1 -8 18 1 30 13 33 24 9 36 -14 7 -25 0 -53 -33z"/>
</g>
</g>
</svg>