<?xml version="1.0" standalone="no"?>
<!DOCTYPE svg PUBLIC "-//W3C//DTD SVG 20010904//EN"
 "http://www.w3.org/TR/2001/REC-SVG-20010904/DTD/svg10.dtd">
<svg version="1.0" xmlns="http://www.w3.org/2000/svg"
 width="96.000000pt" height="68.000000pt" viewBox="0 0 96.000000 68.000000"
 preserveAspectRatio="xMidYMid meet">
<metadata>
Created by potrace 1.16, written by Peter Selinger 2001-2019
Combined from part_0.svg through part_5.svg with named groups
</metadata>
<g transform="translate(0.000000,68.000000) scale(0.100000,-0.100000)" fill="#000000" stroke="none">
<g id="part-0" class="char-part">
  <path d="M544 602 c-13 -43 -37 -87 -66 -123 -39 -49 -31 -60 15 -20 29 26 43
31 86 31 60 0 66 -13 23 -61 -28 -31 -28 -31 -60 -15 -35 18 -42 19 -42 8 0
-4 15 -13 33 -20 l32 -12 -30 -25 c-16 -14 -47 -35 -68 -46 -22 -11 -36 -23
-33 -26 7 -7 61 15 110 45 l39 24 43 -21 c23 -12 44 -27 47 -34 5 -16 161 -17
177 -1 9 9 -4 14 -52 19 -64 7 -174 41 -184 57 -3 4 2 11 10 14 8 3 27 22 42
41 26 34 26 36 9 49 -18 13 -17 14 6 14 34 0 69 11 69 21 0 13 -53 11 -132 -5
-37 -7 -70 -11 -73 -8 -3 3 6 19 18 36 37 49 38 52 11 64 -21 10 -26 9 -30 -6z"/>
  <path d="M295 545 c-33 -8 -75 -14 -92 -15 -18 0 -33 -4 -33 -10 0 -19 49 -22
114 -7 76 17 84 8 37 -37 -24 -23 -35 -27 -58 -22 l-28 7 38 -38 37 -39 -77
-12 c-121 -20 -136 -23 -126 -32 4 -5 41 -4 80 2 40 6 76 8 80 5 16 -16 -99
-155 -154 -185 -36 -20 -6 -21 33 -1 39 20 80 58 121 112 30 38 36 21 28 -72
-9 -98 -15 -109 -51 -93 -39 19 -38 11 7 -33 35 -34 42 -37 55 -24 32 32 45
240 18 285 -12 20 -11 23 9 28 50 13 88 0 57 -19 -28 -17 -4 -21 40 -7 27 10
50 20 50 23 0 16 -68 36 -107 32 -41 -5 -43 -4 -43 21 0 21 11 33 58 63 31 20
59 38 61 40 3 2 -2 10 -10 19 -22 21 -75 25 -144 9z"/>
  <path d="M550 286 c0 -41 -5 -45 -70 -53 -28 -3 -47 -10 -43 -16 3 -5 23 -7
44 -4 29 4 39 2 39 -9 0 -15 -50 -76 -93 -113 -37 -31 -27 -39 17 -12 39 25
102 91 118 126 7 17 20 24 47 27 68 6 74 2 67 -49 -3 -24 -14 -58 -23 -75 -16
-26 -22 -29 -51 -24 -28 4 -31 3 -23 -13 16 -30 40 -44 64 -37 26 6 61 63 72
116 4 19 13 45 20 56 12 19 12 24 -5 39 -20 18 -41 20 -102 9 -36 -6 -52 6
-28 21 17 10 11 21 -15 33 -35 16 -35 16 -35 -22z"/>
</g>
<g id="part-1" class="char-part">
  <path d="M315 544 c-33 -7 -77 -13 -97 -14 -21 0 -38 -4 -38 -9 0 -17 39 -19
97 -5 94 22 101 18 58 -32 -25 -29 -31 -44 -18 -44 11 0 123 75 123 82 0 7
-55 39 -62 37 -2 -1 -30 -7 -63 -15z"/>
</g>
<g id="part-2" class="char-part">
  <path d="M270 347 c0 -22 -75 -116 -132 -164 -29 -25 -55 -47 -58 -50 -7 -7
46 15 79 31 47 25 131 126 131 157 0 15 -4 31 -10 34 -5 3 -10 0 -10 -8z"/>
</g>
<g id="part-3" class="char-part">
  <path d="M536 586 c-4 -18 -25 -59 -47 -90 -23 -32 -39 -59 -37 -61 2 -3 20 8
39 24 30 25 44 29 129 34 100 6 130 13 130 29 0 11 -24 9 -160 -8 l-54 -7 34
43 c32 41 33 43 15 56 -30 22 -42 17 -49 -20z"/>
</g>
<g id="part-4" class="char-part">
  <path d="M630 476 c0 -9 -12 -30 -28 -47 -26 -30 -28 -30 -57 -15 -35 18 -45
20 -45 6 0 -5 6 -10 13 -10 7 0 22 -6 32 -14 17 -12 13 -17 -51 -60 -82 -55
-69 -60 27 -10 l69 37 59 -37 c60 -37 100 -44 170 -30 47 10 37 21 -26 29 -49
6 -169 40 -182 51 -2 2 14 22 35 44 46 47 49 64 12 68 -20 2 -28 -1 -28 -12z"/>
</g>
<g id="part-5" class="char-part">
  <path d="M665 251 c-3 -5 3 -12 14 -16 18 -5 18 -8 3 -68 -8 -34 -21 -65 -28
-70 -7 -4 -20 -15 -29 -24 -14 -14 -18 -14 -25 -2 -5 7 -11 11 -14 8 -3 -3 4
-15 17 -27 20 -18 26 -20 47 -9 16 9 24 20 22 33 -2 10 -1 16 4 12 4 -4 16 18
26 50 10 31 23 65 29 75 6 11 9 20 7 20 -2 1 -13 8 -25 15 -27 14 -40 15 -48
3z"/>
</g>
</g>
</svg>