<?xml version="1.0" standalone="no"?>
<!DOCTYPE svg PUBLIC "-//W3C//DTD SVG 20010904//EN"
 "http://www.w3.org/TR/2001/REC-SVG-20010904/DTD/svg10.dtd">
<svg version="1.0" xmlns="http://www.w3.org/2000/svg"
 width="96.000000pt" height="68.000000pt" viewBox="0 0 96.000000 68.000000"
 preserveAspectRatio="xMidYMid meet">
<metadata>
Created by potrace 1.16, written by Peter Selinger 2001-2019
Combined from part_0.svg through part_5.svg with named groups
</metadata>
<g transform="translate(0.000000,68.000000) scale(0.100000,-0.100000)" fill="#000000" stroke="none">
<g id="part-0" class="char-part">
  <path d="M540 550 c-19 -5 -90 -14 -157 -21 -130 -13 -159 -22 -133 -39 21
-14 93 -12 250 5 147 17 170 21 170 36 0 24 -66 34 -130 19z"/>
  <path d="M475 355 c-49 -8 -109 -14 -132 -14 -52 -1 -65 -18 -20 -26 33 -7
304 19 315 29 21 22 -55 27 -163 11z"/>
  <path d="M620 200 c-47 -4 -170 -13 -275 -19 -222 -14 -243 -17 -226 -34 15
-15 105 -15 306 1 88 6 215 12 283 12 128 0 151 9 87 36 -37 15 -45 15 -175 4z"/>
</g>
<g id="part-1" class="char-part">
  <path d="M570 549 c-28 -7 -292 -39 -315 -39 -3 0 -5 -4 -5 -10 0 -19 69 -21
205 -6 185 21 207 25 202 39 -5 17 -48 24 -87 16z"/>
</g>
<g id="part-2" class="char-part">
  <path d="M520 360 c-19 -4 -79 -11 -132 -15 -98 -7 -122 -17 -71 -30 29 -7
276 13 308 25 18 7 18 9 -8 19 -32 12 -47 13 -97 1z"/>
</g>
<g id="part-3" class="char-part">
  <path d="M670 203 c-19 -2 -152 -12 -295 -21 -143 -9 -260 -21 -260 -26 0 -23
62 -29 170 -17 61 7 208 15 328 18 119 3 217 10 217 15 0 14 -66 38 -97 36
-15 -1 -44 -3 -63 -5z"/>
</g>
</g>
</svg>