<?xml version="1.0" standalone="no"?>
<!DOCTYPE svg PUBLIC "-//W3C//DTD SVG 20010904//EN"
 "http://www.w3.org/TR/2001/REC-SVG-20010904/DTD/svg10.dtd">
<svg version="1.0" xmlns="http://www.w3.org/2000/svg"
 width="96.000000pt" height="68.000000pt" viewBox="0 0 96.000000 68.000000"
 preserveAspectRatio="xMidYMid meet">
<metadata>
Created by potrace 1.16, written by Peter Selinger 2001-2019
Combined from part_0.svg through part_5.svg with named groups
</metadata>
<g transform="translate(0.000000,68.000000) scale(0.100000,-0.100000)" fill="#000000" stroke="none">
<g id="part-0" class="char-part">
  <path d="M530 580 c0 -36 -3 -40 -24 -40 -14 0 -28 -4 -31 -10 -4 -6 5 -10 19
-10 21 0 26 -5 26 -24 0 -32 -6 -35 -80 -43 -42 -4 -58 -9 -51 -16 8 -8 45 -7
123 1 62 7 145 15 183 18 102 7 135 14 135 26 0 8 -25 9 -80 5 -44 -4 -80 -4
-80 -1 0 3 9 17 20 32 14 17 17 29 10 36 -12 12 -75 13 -108 1 -21 -7 -22 -6
-12 19 9 24 7 28 -16 36 -35 14 -34 15 -34 -30z m103 -72 c-3 -18 -6 -34 -7
-34 -1 -1 -18 -4 -38 -7 -40 -5 -43 -1 -32 40 6 20 22 28 66 32 14 1 16 -5 11
-31z"/>
  <path d="M226 504 c-49 -8 -92 -16 -94 -19 -11 -11 9 -18 55 -19 l48 -2 3 -57
3 -56 -37 -3 c-54 -4 -55 -26 -2 -30 l43 -3 0 -55 0 -55 -67 -19 c-38 -11 -68
-23 -68 -26 0 -4 11 -13 25 -20 24 -13 34 -10 140 45 113 58 145 83 65 51 -22
-9 -43 -16 -45 -16 -7 0 -6 85 1 104 3 9 16 16 28 16 11 0 28 4 36 10 12 8 12
10 -3 16 -9 3 -26 4 -37 1 -18 -5 -20 0 -20 52 l0 58 46 9 c25 5 46 14 47 19
3 15 -68 15 -167 -1z"/>
  <path d="M590 409 c-25 -4 -67 -8 -94 -8 l-48 -1 16 -25 c9 -13 16 -36 16 -49
0 -23 4 -25 37 -23 29 2 38 -2 41 -17 5 -25 -14 -36 -69 -36 -47 0 -47 0 -51
-37 -3 -21 -8 -46 -13 -56 -7 -17 -3 -18 64 -11 l71 7 0 -66 c0 -36 5 -69 11
-72 15 -10 19 -3 25 41 3 22 7 54 10 72 l5 32 94 0 c52 0 95 4 95 9 0 17 -42
23 -116 16 l-74 -7 0 31 c0 29 1 30 60 37 38 4 59 11 57 18 -4 12 -25 13 -72
4 -25 -6 -32 -3 -41 17 -14 30 -9 35 33 35 24 0 33 4 33 16 0 9 9 25 20 34 20
17 20 18 -5 34 -26 17 -36 18 -105 5z m54 -41 c-3 -13 -7 -24 -8 -25 -5 -6
-126 -19 -131 -15 -3 3 -5 16 -5 28 0 24 16 29 108 32 41 2 43 1 36 -20z m-84
-168 c0 -29 -2 -30 -45 -30 -49 0 -53 5 -29 38 10 14 25 22 45 22 26 0 29 -3
29 -30z"/>
</g>
<g id="part-1" class="char-part">
  <path d="M270 505 c-36 -7 -80 -13 -97 -14 -55 -2 -36 -21 20 -21 50 0 147 14
192 27 l20 6 -20 8 c-25 10 -35 9 -115 -6z"/>
</g>
<g id="part-2" class="char-part">
  <path d="M245 474 c-6 -2 -9 -30 -7 -64 4 -57 3 -60 -20 -60 -36 0 -68 -11
-62 -21 3 -5 23 -9 44 -9 44 0 54 -17 48 -81 -3 -32 -5 -34 -77 -54 -74 -21
-74 -22 -50 -38 13 -9 30 -17 37 -17 20 0 237 113 224 118 -5 1 -27 -4 -47
-12 -21 -9 -39 -16 -42 -16 -2 0 -3 26 -1 57 l3 57 43 9 c49 10 47 27 -3 27
-34 0 -34 0 -37 53 -3 44 -6 52 -23 54 -11 1 -24 0 -30 -3z"/>
</g>
<g id="part-3" class="char-part">
  <path d="M525 583 c0 -34 -3 -38 -27 -41 -36 -4 -37 -22 -2 -22 24 0 26 -3 20
-31 -5 -25 -3 -30 11 -27 10 2 21 17 26 35 7 23 17 32 39 37 39 8 49 0 42 -30
-10 -38 27 -31 53 11 l23 34 -21 12 c-21 11 -49 9 -98 -7 -22 -6 -23 -5 -11
16 11 20 10 25 -6 37 -33 24 -49 16 -49 -24z"/>
</g>
<g id="part-4" class="char-part">
  <path d="M550 465 c-111 -14 -168 -25 -157 -30 10 -4 44 -5 75 -1 71 8 342 35
360 36 7 0 10 5 7 10 -9 15 -87 11 -285 -15z"/>
</g>
<g id="part-5" class="char-part">
  <path d="M566 285 c-3 -8 -1 -15 3 -15 5 0 11 7 15 15 3 8 1 15 -3 15 -5 0
-11 -7 -15 -15z"/>
  <path d="M581 270 c-13 -11 -29 -20 -37 -20 -8 0 -14 -4 -14 -9 0 -5 7 -8 16
-7 13 1 16 -15 19 -104 4 -125 3 -116 16 -103 5 5 10 30 11 54 0 24 4 53 8 64
4 11 4 29 0 40 -4 11 -3 26 4 34 9 12 8 13 -7 8 -11 -4 -16 -3 -12 3 3 6 13
10 21 10 16 0 19 16 4 25 -6 4 -8 11 -5 16 9 13 3 11 -24 -11z"/>
  <path d="M690 260 c0 -5 7 -10 16 -10 8 0 12 5 9 10 -3 6 -10 10 -16 10 -5 0
-9 -4 -9 -10z"/>
  <path d="M454 228 c2 -13 -5 -35 -16 -50 -10 -15 -15 -29 -10 -32 10 -6 68 3
96 15 16 7 12 8 -16 4 -25 -4 -38 -2 -38 5 0 6 -4 8 -10 5 -23 -14 -8 12 21
38 17 15 29 27 28 28 -49 11 -59 9 -55 -13z"/>
  <path d="M705 178 c-22 -5 -50 -7 -62 -5 -13 2 -23 1 -23 -4 0 -4 36 -7 80 -6
77 2 97 8 64 21 -9 3 -16 6 -17 5 -1 -1 -20 -5 -42 -11z"/>
</g>
</g>
</svg>