<?xml version="1.0" standalone="no"?>
<!DOCTYPE svg PUBLIC "-//W3C//DTD SVG 20010904//EN"
 "http://www.w3.org/TR/2001/REC-SVG-20010904/DTD/svg10.dtd">
<svg version="1.0" xmlns="http://www.w3.org/2000/svg"
 width="96.000000pt" height="68.000000pt" viewBox="0 0 96.000000 68.000000"
 preserveAspectRatio="xMidYMid meet">
<metadata>
Created by potrace 1.16, written by Peter Selinger 2001-2019
Combined from part_0.svg through part_5.svg with named groups
</metadata>
<g transform="translate(0.000000,68.000000) scale(0.100000,-0.100000)" fill="#000000" stroke="none">
<g id="part-0" class="char-part">
  <path d="M252 571 c-6 -17 -29 -50 -51 -74 -23 -24 -41 -47 -41 -51 0 -13 28
-5 60 19 24 18 47 25 78 25 l43 0 -28 -39 c-28 -40 -56 -51 -126 -51 -25 0
-27 -3 -20 -22 4 -13 7 -60 6 -104 -1 -85 -15 -127 -56 -172 -27 -29 -12 -28
28 3 18 13 41 44 51 68 l18 44 89 7 c49 4 91 5 93 3 3 -2 1 -28 -4 -58 -8 -53
-8 -54 -40 -51 -18 1 -32 0 -32 -2 0 -2 16 -16 37 -31 l36 -28 19 22 c15 20
18 42 18 148 0 71 5 133 11 145 16 30 -11 53 -62 53 l-41 0 47 42 c32 30 45
48 41 59 -6 17 -27 16 -111 -2 l-30 -7 23 25 c21 24 22 27 7 42 -26 25 -52 20
-63 -13z m138 -190 c0 -11 3 -26 6 -35 5 -13 -2 -16 -35 -16 -40 0 -41 1 -41
35 0 33 2 35 35 35 28 0 35 -4 35 -19z m-112 -27 c3 -28 0 -32 -27 -36 -30 -4
-31 -3 -31 34 0 37 2 39 28 36 22 -2 28 -9 30 -34z m122 -75 c0 -27 -3 -29
-38 -29 -46 0 -51 3 -45 35 4 18 13 25 37 27 42 5 46 2 46 -33z m-116 6 c10
-28 -5 -45 -39 -45 -31 0 -33 2 -30 28 2 15 4 27 4 27 16 9 60 1 65 -10z"/>
  <path d="M615 544 c-38 -7 -86 -13 -105 -14 -33 -1 -34 -2 -10 -11 13 -6 35
-7 47 -4 18 4 23 1 23 -13 0 -19 -41 -80 -62 -93 -7 -5 -9 -11 -6 -15 19 -19
124 95 114 123 -4 10 8 13 46 13 l51 0 -6 -36 c-8 -49 -24 -65 -54 -58 -25 7
-25 7 -8 -20 34 -52 76 -24 102 69 23 81 10 86 -132 59z"/>
  <path d="M610 350 c0 -39 -1 -40 -37 -40 -33 0 -35 1 -18 13 21 16 13 37 -15
37 -11 0 -20 -10 -25 -27 -3 -16 -16 -38 -27 -50 -27 -29 -18 -39 13 -15 13
10 43 19 67 21 40 2 42 1 42 -28 0 -32 -3 -34 -109 -47 -79 -9 -42 -26 42 -18
l67 7 2 -44 c0 -24 0 -54 -1 -65 -1 -12 4 -35 10 -50 15 -42 27 -15 35 84 l7
82 66 1 c83 2 110 5 118 12 12 13 -52 28 -92 22 -22 -4 -52 -9 -67 -11 -25 -4
-28 -1 -28 25 0 27 4 31 38 36 54 9 64 14 57 25 -4 7 -24 8 -51 4 -45 -6 -45
-6 -38 20 5 22 2 27 -21 36 -36 14 -35 15 -35 -30z"/>
</g>
<g id="part-1" class="char-part">
  <path d="M256 566 c-8 -19 -34 -55 -57 -81 -43 -46 -32 -51 24 -12 37 26 117
36 117 15 0 -8 -9 -23 -20 -33 -11 -10 -20 -24 -20 -32 0 -18 21 -6 84 51 48
42 49 44 28 55 -17 9 -33 8 -74 -4 -28 -8 -54 -13 -56 -10 -3 3 5 17 19 31 24
25 24 26 5 40 -28 20 -34 18 -50 -20z"/>
</g>
<g id="part-2" class="char-part">
  <path d="M290 414 c-47 -8 -95 -12 -108 -10 -21 3 -23 1 -15 -23 12 -38 8
-160 -6 -204 -7 -21 -24 -51 -38 -67 -31 -37 -21 -38 25 -4 46 36 59 72 68
186 l7 96 51 6 c28 3 65 6 82 6 l32 0 6 -87 c3 -49 3 -113 -2 -143 -8 -58 -12
-61 -62 -45 l-25 7 25 -27 c42 -45 61 -51 82 -25 15 19 18 41 18 145 0 68 4
135 10 149 8 21 6 28 -13 41 -25 17 -24 17 -137 -1z"/>
</g>
<g id="part-3" class="char-part">
  <path d="M640 550 c-25 -5 -72 -11 -105 -15 -51 -6 -56 -9 -36 -16 15 -6 45
-6 79 1 31 5 73 10 95 10 l40 0 -6 -36 c-8 -49 -24 -65 -54 -58 -25 7 -25 7
-8 -20 34 -51 71 -27 103 67 18 55 18 58 1 67 -20 11 -45 11 -109 0z"/>
</g>
<g id="part-4" class="char-part">
  <path d="M570 505 c0 -21 -35 -73 -69 -103 l-26 -22 33 11 c34 12 115 95 109
113 -6 19 -47 19 -47 1z"/>
</g>
<g id="part-5" class="char-part">
  <path d="M617 367 c-2 -7 3 -21 12 -31 9 -11 11 -16 4 -13 -14 8 -22 -11 -15
-36 3 -10 10 -16 18 -13 7 3 15 0 18 -7 3 -7 5 -6 5 3 -2 31 1 39 15 34 8 -3
17 -1 21 5 4 7 -4 11 -20 11 -22 0 -25 4 -23 26 2 19 -2 28 -14 29 -9 2 -19
-2 -21 -8z"/>
  <path d="M714 318 c-9 -14 -2 -16 26 -8 25 6 25 6 3 12 -13 3 -26 2 -29 -4z"/>
  <path d="M626 245 c4 -8 2 -15 -4 -15 -10 0 -7 -102 5 -170 l6 -35 8 45 c4 25
8 66 8 91 1 37 5 48 24 58 12 6 15 10 6 7 -8 -2 -21 5 -27 15 -14 22 -34 26
-26 4z m19 -25 c-3 -5 -12 -10 -18 -10 -7 0 -6 4 3 10 19 12 23 12 15 0z"/>
  <path d="M736 229 c3 -5 25 -8 49 -7 57 2 49 15 -10 16 -25 0 -43 -4 -39 -9z"/>
  <path d="M525 210 c-16 -7 -14 -9 13 -7 17 1 32 5 32 9 0 10 -19 9 -45 -2z"/>
</g>
</g>
</svg>