<?xml version="1.0" standalone="no"?>
<!DOCTYPE svg PUBLIC "-//W3C//DTD SVG 20010904//EN"
 "http://www.w3.org/TR/2001/REC-SVG-20010904/DTD/svg10.dtd">
<svg version="1.0" xmlns="http://www.w3.org/2000/svg"
 width="96.000000pt" height="68.000000pt" viewBox="0 0 96.000000 68.000000"
 preserveAspectRatio="xMidYMid meet">
<metadata>
Created by potrace 1.16, written by Peter Selinger 2001-2019
Combined from part_0.svg through part_5.svg with named groups
</metadata>
<g transform="translate(0.000000,68.000000) scale(0.100000,-0.100000)" fill="#000000" stroke="none">
<g id="part-0" class="char-part">
  <path d="M410 594 c0 -4 9 -21 20 -39 l20 -32 -103 -6 c-80 -4 -106 -2 -118
10 -15 13 -19 9 -43 -33 -31 -56 -30 -79 3 -79 17 0 29 9 40 32 14 29 21 33
56 33 22 0 104 7 183 15 202 21 214 19 174 -27 -13 -16 -13 -18 0 -18 26 0
133 23 141 30 4 4 -9 22 -29 40 -40 35 -35 35 -206 13 -47 -5 -48 -5 -48 21 0
19 -7 29 -26 36 -29 11 -64 13 -64 4z"/>
  <path d="M524 423 c1 -48 1 -48 -34 -51 -55 -5 -61 -22 -7 -22 l47 0 0 -35 c0
-31 -3 -35 -27 -35 -46 0 -103 -12 -103 -21 0 -5 25 -9 56 -9 l55 0 -26 -34
c-29 -39 -93 -91 -101 -83 -8 8 -6 219 2 262 7 39 -4 55 -38 55 -14 0 -15 -9
-11 -60 l6 -60 -32 -1 c-17 -1 -37 -2 -43 -3 -7 -1 -15 14 -18 34 -3 20 -11
36 -20 38 -12 2 -15 -10 -15 -58 -1 -69 8 -74 75 -40 22 11 42 20 45 20 8 0 6
-80 -2 -81 -5 0 -19 -2 -33 -5 -14 -2 -55 -9 -92 -15 -75 -12 -91 -29 -28 -29
55 0 53 -21 -7 -82 -26 -26 -41 -48 -34 -48 17 0 141 120 141 137 0 7 6 13 13
14 6 0 20 2 29 4 16 3 18 -6 15 -83 -2 -72 1 -87 13 -87 8 0 20 15 26 34 7 21
20 38 35 43 12 5 43 25 67 45 23 19 45 33 48 31 2 -3 0 -29 -6 -58 -13 -70
-13 -83 4 -106 23 -31 31 -9 36 99 l5 102 51 -50 c79 -79 103 -95 143 -95 34
0 71 14 61 23 -3 2 -31 13 -64 25 -57 22 -186 107 -186 124 0 4 36 8 79 8 44
0 82 4 86 9 10 16 -32 22 -106 15 l-70 -7 3 34 c3 32 6 34 45 40 24 3 46 9 50
13 12 11 -20 26 -42 20 -36 -11 -40 -9 -40 21 0 37 -11 55 -34 55 -14 0 -17
-9 -17 -47z"/>
</g>
<g id="part-1" class="char-part">
  <path d="M420 587 c0 -8 9 -26 20 -39 l19 -25 -61 -7 c-91 -9 -163 -7 -175 5
-14 14 -66 -73 -57 -95 10 -26 33 -18 55 19 12 19 28 35 37 35 22 0 315 28
370 36 45 6 58 -11 27 -36 -27 -23 -16 -26 53 -15 79 13 86 29 27 61 -34 19
-48 21 -95 14 -30 -5 -74 -9 -97 -9 -36 -1 -43 2 -43 18 0 23 -16 37 -53 46
-20 5 -27 4 -27 -8z"/>
</g>
<g id="part-2" class="char-part">
  <path d="M215 340 c0 -32 3 -62 7 -65 7 -7 118 46 118 56 0 4 -17 3 -37 -1
-47 -11 -53 -7 -53 36 0 26 -4 34 -18 34 -15 0 -18 -9 -17 -60z"/>
</g>
<g id="part-3" class="char-part">
  <path d="M295 235 c-5 -2 -43 -9 -82 -15 -82 -13 -97 -30 -28 -30 44 0 45 -1
34 -22 -6 -13 -30 -42 -52 -65 -45 -47 -39 -57 12 -19 38 28 101 99 101 114 0
6 12 12 27 14 30 3 45 28 16 27 -10 0 -22 -2 -28 -4z"/>
</g>
<g id="part-4" class="char-part">
  <path d="M518 458 c7 -7 12 -29 12 -50 0 -38 0 -38 -39 -38 -22 0 -43 -4 -46
-10 -4 -6 12 -10 39 -10 45 0 46 0 46 -33 0 -56 -50 -121 -149 -194 -2 -2 -2
-6 1 -9 9 -8 47 13 101 58 l48 40 -7 -54 c-11 -78 -10 -116 4 -130 22 -22 32
11 32 110 0 50 3 92 8 92 4 0 36 -29 71 -65 69 -71 91 -81 147 -70 44 8 37 16
-41 47 -33 13 -88 46 -123 73 -62 48 -63 49 -60 94 3 45 3 46 47 53 24 4 46
10 50 13 12 13 -23 22 -56 15 l-35 -8 6 38 c6 40 -3 50 -47 50 -16 0 -18 -3
-9 -12z"/>
</g>
</g>
</svg>