<?xml version="1.0" standalone="no"?>
<!DOCTYPE svg PUBLIC "-//W3C//DTD SVG 20010904//EN"
 "http://www.w3.org/TR/2001/REC-SVG-20010904/DTD/svg10.dtd">
<svg version="1.0" xmlns="http://www.w3.org/2000/svg"
 width="96.000000pt" height="68.000000pt" viewBox="0 0 96.000000 68.000000"
 preserveAspectRatio="xMidYMid meet">
<metadata>
Created by potrace 1.16, written by Peter Selinger 2001-2019
Combined from part_0.svg through part_5.svg with named groups
</metadata>
<g transform="translate(0.000000,68.000000) scale(0.100000,-0.100000)" fill="#000000" stroke="none">
<g id="part-0" class="char-part">
  <path d="M374 590 c-6 -6 -42 -24 -80 -41 l-69 -30 63 6 c57 5 62 4 62 -13 0
-17 -12 -22 -85 -32 -47 -7 -85 -17 -85 -22 0 -10 52 -7 125 8 l30 7 -35 -37
c-19 -21 -50 -47 -68 -58 -18 -11 -31 -22 -28 -25 6 -6 63 24 104 54 30 23 32
23 32 4 0 -30 11 -51 26 -51 10 0 14 12 14 40 0 45 8 49 35 20 22 -24 48 -26
43 -3 -2 9 -18 21 -35 27 -44 15 -44 30 1 37 52 8 56 19 8 19 -38 0 -42 2 -40
25 2 15 9 25 18 25 8 0 22 5 30 10 13 9 12 12 -4 25 -23 17 -48 19 -62 5z"/>
  <path d="M560 571 c0 -5 -16 -30 -35 -55 -43 -56 -44 -64 -6 -37 67 48 82 12
20 -50 -46 -46 -46 -58 0 -35 34 18 81 75 81 99 0 10 8 17 18 18 9 0 27 2 40
5 19 3 22 0 22 -27 0 -44 -17 -69 -46 -69 -24 0 -24 -1 -8 -25 19 -30 35 -32
57 -7 16 17 47 103 47 129 0 20 -35 24 -101 14 -35 -6 -65 -8 -68 -6 -2 3 3
13 12 23 23 25 21 32 -8 32 -14 0 -25 -4 -25 -9z"/>
  <path d="M555 361 c-60 -13 -142 -20 -214 -21 -58 0 -62 -1 -50 -16 8 -9 21
-35 29 -57 l15 -41 63 3 c48 2 62 -1 62 -12 0 -9 -20 -17 -57 -24 l-58 -10 58
-2 c41 -1 57 -5 57 -15 0 -19 -22 -26 -83 -27 -29 0 -61 -5 -72 -10 -13 -5 45
-6 155 -2 246 9 242 9 220 23 -8 6 -49 10 -90 9 -96 -1 -100 -1 -100 11 0 6
11 10 24 10 40 0 86 12 80 21 -3 5 -28 9 -55 9 -36 0 -49 4 -46 13 2 8 26 12
71 12 l67 0 30 54 c16 30 26 58 22 62 -13 13 -85 18 -128 10z m61 -23 c3 -4 3
-20 -1 -37 -6 -27 -10 -30 -61 -37 -30 -3 -56 -5 -58 -3 -2 2 -1 21 1 41 5 34
8 37 42 41 45 4 69 3 77 -5z m-156 -47 c0 -38 -1 -39 -38 -43 -21 -1 -44 -2
-53 0 -14 3 -40 67 -31 77 3 3 32 5 64 5 l58 0 0 -39z"/>
  <path d="M535 304 c-22 -33 -17 -36 24 -14 33 17 34 18 14 28 -18 10 -23 8
-38 -14z"/>
  <path d="M380 290 c10 -19 40 -28 40 -12 0 13 -23 32 -37 32 -11 0 -11 -5 -3
-20z"/>
  <path d="M676 113 c-6 -7 30 -62 52 -80 23 -19 32 -16 32 10 0 33 -66 88 -84
70z"/>
  <path d="M232 80 c-39 -52 -19 -97 21 -52 18 19 23 67 9 76 -5 3 -19 -8 -30
-24z"/>
  <path d="M385 64 c8 -20 15 -38 15 -40 0 -2 7 -4 15 -4 21 0 19 43 -3 63 -32
29 -44 21 -27 -19z"/>
  <path d="M532 73 c24 -57 48 -66 48 -19 0 27 -18 46 -42 46 -15 0 -16 -3 -6
-27z"/>
</g>
<g id="part-1" class="char-part">
  <path d="M365 578 c-11 -7 -45 -22 -75 -35 -69 -28 -52 -29 62 -2 56 13 88 25
85 32 -5 17 -48 19 -72 5z"/>
</g>
<g id="part-2" class="char-part">
  <path d="M570 469 c-7 -16 -29 -42 -48 -57 -39 -30 -29 -41 17 -18 31 17 81
74 81 94 0 26 -38 11 -50 -19z"/>
</g>
<g id="part-3" class="char-part">
  <path d="M515 355 c-44 -8 -116 -14 -159 -14 -75 -1 -78 -2 -63 -18 8 -10 20
-37 27 -61 11 -41 12 -42 43 -37 18 3 85 7 151 9 l118 4 29 53 c16 29 26 56
22 60 -15 15 -89 17 -168 4z m103 -36 c1 -13 -2 -30 -6 -37 -9 -13 -246 -41
-257 -30 -3 3 -9 22 -12 42 l-6 36 74 1 c41 1 99 4 129 9 71 9 74 8 78 -21z"/>
</g>
<g id="part-4" class="char-part">
  <path d="M460 216 c0 -9 -20 -17 -57 -24 l-58 -9 58 -2 c50 -1 58 -4 55 -18
-3 -15 -16 -19 -78 -21 -41 -2 -79 -8 -85 -14 -7 -7 34 -8 130 -4 77 4 166 7
198 8 31 0 60 4 62 9 9 14 -43 22 -116 17 -40 -3 -72 -1 -76 4 -9 16 18 28 65
28 26 0 41 4 37 10 -3 6 -28 10 -56 10 -27 0 -49 5 -49 10 0 6 -7 10 -15 10
-8 0 -15 -6 -15 -14z"/>
</g>
<g id="part-5" class="char-part">
  <path d="M694 95 c11 -8 17 -15 13 -15 -4 0 -3 -9 3 -20 6 -11 15 -18 21 -15
5 4 9 1 9 -5 0 -6 5 -8 10 -5 16 10 -7 43 -43 60 -29 14 -30 14 -13 0z"/>
  <path d="M233 72 c-26 -31 -30 -55 -7 -50 22 4 51 55 39 67 -7 6 -18 0 -32
-17z"/>
  <path d="M530 96 c0 -12 27 -35 34 -29 3 4 6 1 6 -4 0 -6 -6 -13 -12 -16 -7
-2 -9 -8 -5 -13 9 -9 28 15 24 30 -4 12 -47 41 -47 32z"/>
  <path d="M386 75 c4 -8 10 -15 16 -15 5 0 7 -4 4 -8 -2 -4 -1 -14 5 -22 6 -12
9 -9 9 11 0 24 -16 49 -32 49 -4 0 -5 -7 -2 -15z"/>
</g>
</g>
</svg>