<?xml version="1.0" standalone="no"?>
<!DOCTYPE svg PUBLIC "-//W3C//DTD SVG 20010904//EN"
 "http://www.w3.org/TR/2001/REC-SVG-20010904/DTD/svg10.dtd">
<svg version="1.0" xmlns="http://www.w3.org/2000/svg"
 width="96.000000pt" height="68.000000pt" viewBox="0 0 96.000000 68.000000"
 preserveAspectRatio="xMidYMid meet">
<metadata>
Created by potrace 1.16, written by Peter Selinger 2001-2019
Combined from part_0.svg through part_5.svg with named groups
</metadata>
<g transform="translate(0.000000,68.000000) scale(0.100000,-0.100000)" fill="#000000" stroke="none">
<g id="part-0" class="char-part">
  <path d="M244 578 c4 -13 9 -53 13 -89 l6 -66 -77 -9 c-42 -5 -78 -13 -79 -19
-1 -6 27 -11 65 -13 l67 -3 -20 -37 c-28 -50 -67 -101 -102 -135 -17 -15 -27
-30 -24 -33 11 -11 70 29 119 79 l50 52 -6 -35 c-4 -19 -10 -71 -13 -115 -5
-69 -3 -82 12 -95 15 -13 19 -12 31 5 10 14 14 53 14 144 l0 125 29 -32 c33
-35 55 -41 65 -16 8 21 -11 44 -51 61 -33 13 -44 40 -20 48 6 2 32 9 57 15 44
12 44 12 20 26 -15 8 -38 11 -59 7 l-34 -6 7 68 c8 77 -1 95 -46 95 -27 0 -30
-3 -24 -22z"/>
  <path d="M550 525 c-80 -12 -146 -23 -147 -24 -2 0 6 -10 18 -22 20 -20 21
-29 17 -168 -2 -86 -9 -155 -15 -167 -10 -17 -9 -25 1 -40 13 -17 18 -18 63
-5 26 7 119 15 206 18 103 4 156 10 154 16 -6 20 -57 25 -150 16 -50 -5 -123
-12 -161 -15 l-68 -7 6 154 c10 224 1 204 104 217 48 7 113 14 146 18 37 3 55
9 49 15 -18 18 -79 17 -223 -6z"/>
  <path d="M607 426 c-72 -11 -81 -26 -16 -26 30 0 37 -4 41 -23 7 -39 -1 -47
-50 -47 -34 0 -43 -3 -32 -10 8 -5 31 -10 50 -10 34 0 36 -2 35 -32 -1 -32 -2
-33 -60 -43 -99 -17 -45 -27 84 -15 65 6 122 10 127 8 5 -2 11 2 14 7 3 6 -22
11 -63 13 l-68 3 3 32 c3 28 8 32 46 42 49 11 46 25 -5 25 -30 0 -33 3 -33 29
0 28 3 30 45 37 25 3 42 10 39 15 -7 12 -71 10 -157 -5z"/>
</g>
<g id="part-1" class="char-part">
  <path d="M258 511 l5 -89 -44 -7 c-114 -17 -118 -20 -41 -25 l73 -5 -41 -65
c-23 -36 -58 -82 -78 -102 -29 -30 -32 -38 -18 -38 10 0 47 30 82 66 73 75 73
75 53 -60 -12 -82 -7 -126 16 -126 26 0 35 38 35 154 0 64 2 116 4 116 3 0 18
-14 35 -31 32 -31 51 -31 51 1 0 12 -16 26 -45 40 -62 30 -61 55 3 67 54 9 55
28 0 28 -20 0 -39 2 -42 5 -3 3 -1 32 3 65 9 65 -3 95 -39 95 -16 0 -17 -10
-12 -89z"/>
</g>
<g id="part-2" class="char-part">
  <path d="M580 529 c-63 -10 -128 -20 -143 -21 -26 -2 -51 -18 -29 -18 5 0 15
-14 22 -30 16 -39 9 -285 -9 -319 -11 -20 -10 -26 3 -39 14 -14 22 -15 63 -3
27 7 119 15 206 18 86 3 157 9 157 13 0 4 -12 12 -26 18 -20 10 -60 8 -185 -5
-87 -9 -162 -13 -166 -10 -7 7 10 344 18 351 4 4 134 21 244 32 57 6 58 7 35
20 -31 17 -49 16 -190 -7z"/>
</g>
<g id="part-3" class="char-part">
  <path d="M600 426 c-76 -11 -78 -26 -4 -26 56 0 174 22 168 31 -7 11 -69 9
-164 -5z"/>
</g>
<g id="part-4" class="char-part">
  <path d="M630 365 l0 -35 -47 0 c-35 0 -44 -3 -33 -10 8 -5 31 -10 50 -10 35
0 36 -1 32 -34 -4 -34 -5 -34 -65 -41 -46 -6 -56 -10 -43 -17 11 -6 54 -6 123
2 57 7 118 9 135 6 21 -4 28 -2 26 7 -3 7 -29 13 -71 15 l-67 3 0 34 c0 33 2
34 46 41 36 5 43 9 30 16 -9 5 -29 8 -44 6 -24 -3 -27 0 -24 25 2 23 -1 27
-23 27 -22 0 -25 -4 -25 -35z"/>
</g>
</g>
</svg>