<?xml version="1.0" standalone="no"?>
<!DOCTYPE svg PUBLIC "-//W3C//DTD SVG 20010904//EN"
 "http://www.w3.org/TR/2001/REC-SVG-20010904/DTD/svg10.dtd">
<svg version="1.0" xmlns="http://www.w3.org/2000/svg"
 width="96.000000pt" height="68.000000pt" viewBox="0 0 96.000000 68.000000"
 preserveAspectRatio="xMidYMid meet">
<metadata>
Created by potrace 1.16, written by Peter Selinger 2001-2019
Combined from part_0.svg through part_5.svg with named groups
</metadata>
<g transform="translate(0.000000,68.000000) scale(0.100000,-0.100000)" fill="#000000" stroke="none">
<g id="part-0" class="char-part">
  <path d="M290 593 c-1 -48 -100 -200 -169 -259 -14 -12 -23 -25 -19 -29 9 -10
66 26 102 64 17 17 34 31 39 31 5 0 6 -48 3 -117 -10 -174 -9 -194 7 -210 13
-14 17 -13 30 8 22 36 32 323 12 343 -20 19 -20 18 18 72 17 25 37 53 42 61 7
11 4 19 -14 34 -29 24 -51 25 -51 2z"/>
  <path d="M595 460 c-82 -10 -168 -16 -189 -12 -36 5 -39 3 -31 -14 14 -35 24
-88 36 -191 l11 -102 42 4 c22 3 83 10 135 16 88 10 96 10 107 -7 36 -52 47
-52 81 -1 17 24 24 53 28 117 3 47 11 105 17 129 11 41 10 45 -11 63 -27 21
-28 21 -226 -2z m163 -19 c9 -5 12 -24 10 -57 l-3 -49 -76 -2 -76 -2 4 47 c3
26 6 53 8 60 5 14 112 17 133 3z m-210 -13 c7 -7 12 -33 12 -59 l0 -47 -57 -5
c-32 -2 -60 -3 -62 -1 -2 1 -4 27 -5 56 l-1 53 45 6 c25 3 47 7 51 7 3 1 10
-3 17 -10z m216 -126 c3 -5 2 -30 -2 -57 l-7 -49 -73 -1 -73 0 3 50 3 50 50 6
c80 9 94 10 99 1z m-200 -51 c10 -62 2 -71 -59 -71 l-53 0 -4 48 c-3 26 -3 50
-1 55 2 4 28 7 57 7 l53 0 7 -39z"/>
</g>
<g id="part-1" class="char-part">
  <path d="M290 582 c0 -37 -61 -139 -124 -206 -36 -39 -64 -71 -63 -73 5 -4
101 63 121 86 11 11 23 21 28 21 12 0 10 -100 -4 -213 -10 -85 -10 -99 3 -113
31 -30 41 6 49 164 6 132 5 150 -11 173 -18 27 -18 27 28 89 43 60 45 64 27
77 -26 19 -54 16 -54 -5z"/>
</g>
<g id="part-2" class="char-part">
  <path d="M595 459 c-82 -10 -168 -15 -189 -12 -36 6 -39 4 -32 -13 16 -39 25
-81 36 -182 7 -56 15 -104 19 -106 3 -2 62 3 131 10 132 14 150 13 150 -9 0
-20 25 -38 42 -32 32 12 57 80 68 181 6 54 13 113 16 130 5 25 2 32 -21 42
-31 14 -28 14 -220 -9z m173 -69 l3 -55 -79 -2 -78 -2 1 52 c0 29 5 55 10 60
6 4 39 6 75 5 l65 -3 3 -55z m-208 -20 l0 -48 -57 -4 c-32 -2 -59 -3 -61 -2
-1 1 -5 24 -9 52 -6 56 -5 57 72 65 43 4 55 -9 55 -63z m205 -102 c-12 -77 -8
-74 -85 -74 l-71 1 3 50 3 50 45 6 c25 3 60 7 78 7 l34 2 -7 -42z m-200 -24
c8 -56 0 -64 -67 -64 -47 0 -48 0 -48 33 0 17 -3 42 -6 55 -6 21 -4 22 54 22
l60 0 7 -46z"/>
</g>
</g>
</svg>