<?xml version="1.0" standalone="no"?>
<!DOCTYPE svg PUBLIC "-//W3C//DTD SVG 20010904//EN"
 "http://www.w3.org/TR/2001/REC-SVG-20010904/DTD/svg10.dtd">
<svg version="1.0" xmlns="http://www.w3.org/2000/svg"
 width="96.000000pt" height="68.000000pt" viewBox="0 0 96.000000 68.000000"
 preserveAspectRatio="xMidYMid meet">
<metadata>
Created by potrace 1.16, written by Peter Selinger 2001-2019
Combined from part_0.svg through part_5.svg with named groups
</metadata>
<g transform="translate(0.000000,68.000000) scale(0.100000,-0.100000)" fill="#000000" stroke="none">
<g id="part-0" class="char-part">
  <path d="M614 568 c3 -18 8 -67 11 -109 6 -88 5 -89 -75 -89 l-48 0 10 -34 c8
-26 7 -55 -7 -123 -25 -127 -27 -146 -16 -163 9 -13 12 -12 25 5 9 11 18 36
21 55 11 59 12 60 62 61 26 0 70 4 96 8 l48 8 -3 -56 -3 -56 -35 3 -35 4 30
-32 c35 -36 64 -36 82 0 7 15 13 86 14 174 3 173 0 180 -78 169 l-45 -6 4 97
c3 102 -2 115 -45 116 -15 0 -17 -6 -13 -32z m110 -204 c9 -4 16 -18 16 -34 0
-26 -3 -28 -77 -40 -116 -18 -108 -20 -104 20 1 19 4 36 6 38 2 2 34 7 72 11
37 5 69 9 70 10 1 0 8 -2 17 -5z m16 -122 c0 -27 -3 -29 -64 -40 -35 -7 -77
-12 -95 -12 -27 0 -31 3 -31 28 0 28 2 29 68 39 117 18 122 17 122 -15z"/>
  <path d="M315 553 c-16 -73 -68 -154 -164 -255 -29 -31 -40 -48 -30 -48 18 0
76 37 117 75 15 14 39 25 54 25 23 0 28 -4 28 -25 0 -24 -5 -27 -88 -38 -7 -1
-13 -6 -13 -12 1 -5 23 -11 51 -13 l50 -3 0 -54 0 -54 -55 -11 c-30 -6 -69
-10 -87 -8 -17 2 -33 -2 -35 -8 -6 -18 46 -46 76 -41 66 12 255 73 259 85 4
14 -30 16 -76 3 l-32 -10 0 54 c0 58 -1 57 75 70 38 6 39 8 20 22 -12 9 -32
13 -52 9 -29 -4 -33 -2 -33 19 0 18 7 24 35 29 43 8 53 23 23 35 -16 6 -43 4
-78 -5 -30 -8 -58 -13 -62 -12 -4 2 6 23 22 48 16 25 31 49 33 54 2 6 17 0 34
-12 36 -25 59 -28 66 -8 7 17 -8 31 -47 46 -18 6 -26 15 -23 24 7 17 -23 46
-46 46 -10 0 -19 -11 -22 -27z"/>
  <path d="M756 496 c-14 -19 -33 -41 -42 -50 -8 -9 -13 -16 -10 -16 14 0 136
64 136 71 0 9 -33 29 -48 29 -5 0 -21 -15 -36 -34z"/>
  <path d="M510 450 c34 -43 53 -47 58 -12 3 22 -13 34 -62 46 l-28 7 32 -41z"/>
  <path d="M407 220 c-14 -22 -22 -40 -17 -40 14 0 54 18 74 34 16 13 17 18 6
31 -20 24 -34 18 -63 -25z"/>
  <path d="M215 209 c8 -24 41 -54 60 -54 15 0 18 40 3 53 -7 6 -26 14 -42 18
-26 6 -28 5 -21 -17z"/>
</g>
<g id="part-1" class="char-part">
  <path d="M320 557 c0 -41 -57 -139 -131 -225 -60 -71 -66 -81 -39 -67 17 9 48
32 69 51 49 43 96 47 103 9 6 -30 6 -31 -55 -39 -60 -9 -52 -30 9 -23 42 4 44
4 50 -28 3 -17 4 -45 2 -61 -3 -33 -25 -41 -120 -43 -64 -1 -71 -10 -32 -36
25 -16 30 -16 108 8 44 14 107 33 139 43 68 21 63 37 -6 22 -27 -5 -50 -8 -53
-5 -2 2 -2 29 2 59 l6 56 50 6 c58 8 55 26 -6 26 -38 0 -42 3 -42 23 1 28 13
37 49 37 19 0 27 4 24 13 -4 13 -33 14 -116 2 l-54 -8 42 62 42 62 30 -26 c36
-30 59 -32 59 -6 0 13 -13 24 -40 35 -30 12 -38 20 -33 32 4 11 -1 22 -12 30
-28 21 -45 17 -45 -9z"/>
  <path d="M424 238 c-4 -7 -14 -24 -23 -37 l-15 -23 43 21 c41 22 50 43 19 49
-9 2 -20 -3 -24 -10z"/>
  <path d="M210 225 c0 -16 43 -65 56 -65 17 0 19 34 2 48 -17 13 -58 25 -58 17z"/>
</g>
<g id="part-2" class="char-part">
  <path d="M609 578 c5 -13 12 -62 16 -110 6 -76 9 -88 25 -88 16 0 19 11 22
103 2 62 -1 105 -7 109 -5 4 -22 8 -37 8 -24 0 -27 -3 -19 -22z"/>
  <path d="M767 511 c-9 -15 -28 -39 -43 -54 -34 -35 -23 -34 54 3 64 32 71 40
50 57 -29 22 -45 21 -61 -6z"/>
  <path d="M491 473 c51 -68 79 -81 79 -37 0 19 -8 28 -35 40 -47 19 -61 18 -44
-3z"/>
</g>
<g id="part-3" class="char-part">
  <path d="M705 389 c-16 -5 -69 -12 -117 -15 l-86 -7 10 -26 c11 -30 3 -112
-19 -193 -15 -57 -12 -108 8 -108 13 0 39 62 39 94 0 14 3 27 8 29 4 3 49 8
100 11 l92 8 0 -45 c0 -50 -15 -69 -45 -56 -38 15 -39 9 -5 -26 40 -41 69 -43
87 -5 7 15 13 86 14 174 3 136 1 150 -16 162 -21 16 -28 16 -70 3z m35 -58 c0
-28 -2 -28 -77 -41 -107 -17 -108 -17 -107 -2 1 6 2 23 3 36 1 29 15 33 114
35 l67 1 0 -29z m0 -90 c0 -27 -2 -28 -69 -40 -110 -18 -121 -16 -121 18 0 28
2 28 73 38 119 17 117 17 117 -16z"/>
</g>
</g>
</svg>