<?xml version="1.0" standalone="no"?>
<!DOCTYPE svg PUBLIC "-//W3C//DTD SVG 20010904//EN"
 "http://www.w3.org/TR/2001/REC-SVG-20010904/DTD/svg10.dtd">
<svg version="1.0" xmlns="http://www.w3.org/2000/svg"
 width="96.000000pt" height="68.000000pt" viewBox="0 0 96.000000 68.000000"
 preserveAspectRatio="xMidYMid meet">
<metadata>
Created by potrace 1.16, written by Peter Selinger 2001-2019
Combined from part_0.svg through part_5.svg with named groups
</metadata>
<g transform="translate(0.000000,68.000000) scale(0.100000,-0.100000)" fill="#000000" stroke="none">
<g id="part-0" class="char-part">
  <path d="M225 509 c30 -84 19 -99 -74 -99 -41 0 -43 -1 -29 -17 8 -10 21 -39
28 -66 7 -26 16 -50 20 -52 4 -2 21 0 39 5 l31 9 0 -44 c0 -24 -4 -46 -9 -50
-5 -3 -32 -6 -60 -6 -56 -2 -63 -11 -27 -34 22 -15 27 -14 67 4 24 11 66 26
94 35 47 14 51 14 71 -5 11 -10 24 -16 27 -12 15 14 6 42 -19 62 -32 25 -46
27 -42 4 2 -10 -6 -19 -24 -24 -34 -9 -38 -4 -31 35 8 39 18 46 67 46 30 0 37
3 32 15 -3 9 3 30 14 48 31 50 27 65 -22 72 -24 3 -53 4 -65 1 -26 -6 -28 5
-12 53 15 42 -1 61 -52 61 l-38 0 14 -41z m115 -123 c0 -37 -10 -56 -31 -56
-15 0 -19 7 -19 33 0 38 6 47 32 47 12 0 18 -7 18 -24z m-100 -30 c0 -22 -6
-36 -17 -40 -20 -8 -28 0 -37 35 -7 31 -1 39 31 39 20 0 23 -5 23 -34z"/>
  <path d="M710 539 c-19 -5 -87 -12 -151 -15 l-117 -7 8 -26 c13 -48 11 -215
-5 -274 -8 -31 -28 -78 -44 -104 -34 -55 -32 -67 5 -32 47 43 65 77 80 151 8
40 18 76 22 79 4 4 64 10 135 14 l127 7 0 -98 c0 -134 -5 -148 -44 -140 l-30
6 34 -35 c74 -76 87 -42 91 242 4 202 2 222 -13 232 -20 13 -49 13 -98 0z m58
-61 c3 -38 3 -38 -35 -39 -21 -1 -47 -3 -59 -4 -17 -2 -19 2 -16 26 3 17 0 29
-7 29 -6 0 -11 4 -11 9 0 11 41 19 90 17 33 -1 35 -3 38 -38z m-163 -8 c9 -42
0 -50 -56 -50 -53 0 -57 6 -39 54 8 22 16 26 49 26 36 0 40 -3 46 -30z m165
-79 c0 -24 -5 -29 -31 -35 -17 -3 -44 -6 -60 -6 -25 0 -29 4 -29 29 0 26 4 30
33 34 83 10 87 9 87 -22z m-160 -21 c0 -30 -1 -30 -55 -30 -51 0 -55 2 -55 23
0 33 7 37 62 37 47 0 48 -1 48 -30z"/>
  <path d="M610 270 c-25 -5 -54 -6 -64 -3 -13 4 -17 1 -14 -8 3 -8 11 -31 19
-51 14 -41 17 -42 106 -32 29 4 50 10 47 15 -2 5 2 22 11 38 8 17 15 35 15 41
0 11 -53 11 -120 0z m68 -37 c4 -26 -34 -46 -77 -41 -20 2 -26 9 -26 28 0 19
6 26 30 31 49 11 70 6 73 -18z"/>
</g>
<g id="part-1" class="char-part">
  <path d="M230 524 c6 -14 10 -45 10 -70 l0 -44 -60 0 c-33 0 -60 -4 -60 -9 0
-5 4 -11 9 -13 5 -1 15 -25 23 -53 14 -49 15 -50 51 -47 l37 3 0 -47 c0 -38 3
-45 16 -40 9 3 18 6 20 6 2 0 4 20 4 44 l0 44 50 7 c33 4 50 12 50 21 0 7 9
28 20 46 11 18 20 36 20 40 0 13 -61 27 -96 21 l-37 -6 5 34 c3 19 8 41 12 50
7 17 -29 39 -64 39 -17 0 -18 -4 -10 -26z m112 -149 c-3 -31 -28 -58 -47 -52
-12 4 -19 52 -11 74 4 9 16 13 33 11 25 -3 28 -7 25 -33z m-102 -20 c0 -41 -2
-45 -24 -45 -16 0 -26 7 -30 23 -10 38 -7 55 12 60 39 10 42 7 42 -38z"/>
</g>
<g id="part-2" class="char-part">
  <path d="M330 261 c0 -5 3 -11 8 -13 4 -1 16 -20 26 -40 23 -45 46 -50 46 -10
0 23 -8 33 -40 51 -22 12 -40 18 -40 12z"/>
</g>
<g id="part-3" class="char-part">
  <path d="M670 535 c-36 -7 -102 -13 -146 -14 l-82 -1 9 -37 c12 -53 11 -168
-2 -239 -11 -59 -30 -106 -63 -156 -26 -39 -6 -35 36 7 49 50 69 117 77 263 5
86 11 126 20 131 7 5 63 14 124 21 91 10 111 10 118 -2 10 -15 12 -361 3 -395
-6 -23 -38 -31 -49 -13 -3 6 -11 10 -18 10 -6 0 7 -18 28 -40 80 -82 92 -51
96 238 3 245 4 243 -56 240 -16 0 -59 -6 -95 -13z"/>
</g>
<g id="part-4" class="char-part">
  <path d="M604 463 l1 -38 -47 -3 c-64 -4 -62 -22 2 -22 49 0 50 -1 50 -30 0
-29 -1 -30 -49 -30 -28 0 -53 -5 -57 -11 -5 -9 26 -10 122 -5 71 5 133 10 137
13 21 13 -12 20 -60 14 l-53 -7 0 32 c0 31 1 31 60 38 33 4 60 12 60 18 0 7
-18 9 -54 5 l-55 -5 -3 31 c-2 26 -8 33 -29 35 -25 3 -26 0 -25 -35z"/>
</g>
<g id="part-5" class="char-part">
  <path d="M673 269 c25 -14 21 -44 -9 -68 -15 -12 -21 -21 -13 -21 19 0 32 10
52 42 19 31 22 42 7 33 -5 -3 -10 0 -10 7 0 8 -10 14 -22 15 -20 2 -21 1 -5
-8z"/>
  <path d="M553 254 c-9 -4 -9 -13 -1 -37 14 -41 32 -62 23 -27 -3 14 -7 35 -8
48 0 12 -1 22 -2 21 0 0 -5 -3 -12 -5z"/>
</g>
</g>
</svg>