<?xml version="1.0" standalone="no"?>
<!DOCTYPE svg PUBLIC "-//W3C//DTD SVG 20010904//EN"
 "http://www.w3.org/TR/2001/REC-SVG-20010904/DTD/svg10.dtd">
<svg version="1.0" xmlns="http://www.w3.org/2000/svg"
 width="96.000000pt" height="68.000000pt" viewBox="0 0 96.000000 68.000000"
 preserveAspectRatio="xMidYMid meet">
<metadata>
Created by potrace 1.16, written by Peter Selinger 2001-2019
Combined from part_0.svg through part_5.svg with named groups
</metadata>
<g transform="translate(0.000000,68.000000) scale(0.100000,-0.100000)" fill="#000000" stroke="none">
<g id="part-0" class="char-part">
  <path d="M459 563 c10 -27 24 -77 31 -111 15 -75 16 -75 -78 -92 -45 -9 -60
-16 -53 -23 8 -8 32 -8 82 1 40 7 73 11 74 10 1 -2 11 -25 23 -53 l22 -50 -43
-37 c-23 -21 -64 -49 -92 -62 -48 -24 -49 -25 -19 -25 18 -1 63 15 103 35 l71
37 53 -55 c70 -73 171 -123 202 -100 12 8 7 142 -5 142 -5 0 -14 -16 -21 -35
-10 -28 -18 -35 -40 -35 -30 0 -107 55 -133 94 -17 26 -17 27 31 70 41 38 46
46 34 60 -21 25 -39 19 -63 -19 -32 -48 -45 -50 -63 -9 -28 68 -29 67 73 89
50 10 92 23 92 27 0 20 -58 20 -124 0 -39 -11 -73 -18 -75 -16 -3 3 -7 47 -9
99 -5 100 -7 104 -69 105 -21 0 -21 0 -4 -47z"/>
  <path d="M610 552 c0 -17 61 -63 79 -60 23 5 26 35 4 46 -30 16 -83 25 -83 14z"/>
  <path d="M294 514 c-8 -43 -72 -132 -148 -203 -31 -29 -55 -56 -52 -58 8 -8
84 34 125 68 l36 30 3 -54 c2 -29 -3 -83 -11 -120 -11 -54 -11 -72 -1 -97 15
-36 29 -38 45 -8 18 32 27 286 12 307 -9 14 -4 26 33 70 49 59 53 75 25 91
-39 20 -60 12 -67 -26z"/>
</g>
<g id="part-1" class="char-part">
  <path d="M296 513 c-7 -48 -59 -121 -137 -195 -75 -71 -54 -76 35 -8 l66 49 0
-80 c0 -44 -5 -100 -11 -125 -9 -33 -9 -52 -1 -70 16 -35 40 -30 46 9 12 76
16 276 6 282 -16 10 -13 18 36 81 l46 58 -22 18 c-36 29 -57 23 -64 -19z"/>
</g>
<g id="part-2" class="char-part">
  <path d="M449 592 c11 -21 51 -173 51 -195 0 -11 -23 -21 -75 -33 -41 -10 -75
-21 -75 -26 0 -13 74 -9 119 7 l41 14 16 -37 c31 -74 30 -86 -14 -120 -22 -18
-64 -43 -93 -57 l-54 -25 35 0 c36 0 152 49 164 69 5 7 30 -12 68 -50 68 -69
153 -115 195 -105 20 6 24 11 19 29 -3 12 -6 43 -6 70 0 58 -12 60 -33 7 -8
-22 -22 -40 -29 -40 -35 0 -158 101 -158 130 0 5 6 13 14 17 7 4 27 20 45 35
27 23 30 31 21 48 -11 20 -50 28 -50 11 0 -5 -12 -24 -27 -42 l-27 -32 -23 48
c-12 27 -20 52 -18 56 3 4 48 15 100 25 52 10 95 21 95 25 0 20 -71 20 -136 0
-37 -11 -70 -18 -72 -16 -2 2 -6 43 -9 92 -6 96 -15 113 -65 113 -25 0 -27 -3
-19 -18z"/>
  <path d="M632 525 c45 -42 78 -46 78 -11 0 26 -39 46 -89 46 -26 -1 -26 -1 11
-35z"/>
</g>
</g>
</svg>