<?xml version="1.0" standalone="no"?>
<!DOCTYPE svg PUBLIC "-//W3C//DTD SVG 20010904//EN"
 "http://www.w3.org/TR/2001/REC-SVG-20010904/DTD/svg10.dtd">
<svg version="1.0" xmlns="http://www.w3.org/2000/svg"
 width="96.000000pt" height="68.000000pt" viewBox="0 0 96.000000 68.000000"
 preserveAspectRatio="xMidYMid meet">
<metadata>
Created by potrace 1.16, written by Peter Selinger 2001-2019
Combined from part_0.svg through part_5.svg with named groups
</metadata>
<g transform="translate(0.000000,68.000000) scale(0.100000,-0.100000)" fill="#000000" stroke="none">
<g id="part-0" class="char-part">
  <path d="M549 613 c0 -5 0 -29 1 -55 1 -47 1 -48 -29 -49 -17 -1 -35 -3 -41
-4 -5 -1 -26 -3 -45 -4 -19 0 -35 -6 -35 -12 0 -9 23 -10 80 -5 l80 6 0 -43 0
-44 -52 -7 c-42 -6 -49 -9 -36 -17 11 -6 40 -6 83 2 36 6 67 10 69 8 2 -2 6
-20 10 -40 l6 -36 -117 -12 c-156 -16 -180 -21 -162 -32 14 -7 182 3 252 16
l27 4 0 -90 c0 -98 -8 -112 -56 -91 -33 16 -30 3 10 -35 40 -39 60 -41 81 -9
13 19 16 46 13 124 l-3 100 78 5 c43 3 81 8 84 11 14 14 -13 20 -82 19 -73 -2
-75 -1 -75 22 0 18 -7 27 -27 32 -26 7 -24 8 17 13 62 7 48 25 -20 25 -59 0
-56 -3 -52 59 2 22 7 23 78 29 42 3 79 8 82 11 14 14 -15 21 -84 19 l-74 -2 0
38 c0 26 -5 41 -16 45 -22 8 -44 8 -45 -1z"/>
  <path d="M295 578 c-5 -20 -31 -55 -77 -100 -71 -68 -75 -82 -15 -52 60 31
166 124 167 147 0 15 -28 37 -48 37 -15 0 -22 -9 -27 -32z"/>
  <path d="M310 442 c0 -26 -40 -83 -91 -129 -23 -21 -47 -43 -53 -48 -6 -6 -24
-20 -40 -33 -48 -37 -15 -25 63 23 41 25 76 43 79 40 3 -3 0 -42 -6 -88 -16
-109 -16 -118 3 -136 13 -13 17 -14 24 -3 13 22 21 235 8 250 -8 10 1 24 34
58 36 37 42 48 33 62 -16 25 -54 28 -54 4z"/>
  <path d="M460 232 c0 -19 42 -62 61 -62 40 0 11 50 -38 64 -13 4 -23 3 -23 -2z"/>
</g>
<g id="part-1" class="char-part">
  <path d="M307 603 c-2 -5 -7 -19 -10 -33 -4 -14 -37 -56 -74 -94 -59 -59 -63
-66 -33 -51 47 24 146 100 165 128 15 20 14 23 -6 40 -23 18 -35 21 -42 10z"/>
</g>
<g id="part-2" class="char-part">
  <path d="M305 431 c-8 -36 -71 -109 -148 -171 -31 -24 -55 -46 -53 -48 6 -6
67 28 119 65 l47 35 0 -54 c0 -29 -5 -71 -11 -93 -14 -54 -13 -75 6 -94 13
-13 17 -14 24 -3 13 22 21 235 8 250 -8 10 1 24 34 58 36 37 42 48 33 62 -6 9
-20 18 -32 20 -15 2 -22 -4 -27 -27z"/>
</g>
<g id="part-3" class="char-part">
  <path d="M548 566 l4 -56 -29 0 c-55 0 -123 -13 -123 -23 0 -6 28 -8 75 -4 72
5 75 5 81 -18 12 -47 2 -59 -55 -68 -45 -8 -52 -11 -36 -19 13 -8 37 -7 80 1
34 6 84 11 111 11 27 0 55 4 63 9 22 14 -4 23 -59 20 -27 -2 -52 0 -55 3 -4 3
-3 22 0 42 7 34 9 36 49 37 22 0 61 4 86 8 l45 8 -30 12 c-19 8 -50 10 -87 6
l-57 -7 -3 44 c-3 40 -5 43 -34 46 l-31 3 5 -55z"/>
</g>
<g id="part-4" class="char-part">
  <path d="M634 350 c4 -24 2 -40 -3 -40 -19 0 -216 -21 -251 -26 -26 -4 -31 -8
-19 -14 9 -6 69 -4 145 4 71 8 130 13 132 11 6 -6 4 -164 -3 -175 -5 -8 -20
-10 -43 -6 l-35 5 33 -34 c69 -71 100 -37 100 112 l0 103 53 1 c28 1 66 5 82
9 l30 7 -27 11 c-15 6 -50 8 -82 5 -55 -6 -56 -5 -56 20 0 19 -7 28 -31 36
l-32 11 7 -40z"/>
</g>
<g id="part-5" class="char-part">
  <path d="M473 218 c2 -7 10 -12 16 -10 7 1 10 -2 7 -7 -3 -5 1 -14 8 -20 10
-8 16 -9 21 -1 3 5 0 10 -7 10 -10 0 -11 2 0 8 9 6 5 12 -13 20 -33 15 -38 15
-32 0z"/>
</g>
</g>
</svg>