<?xml version="1.0" standalone="no"?>
<!DOCTYPE svg PUBLIC "-//W3C//DTD SVG 20010904//EN"
 "http://www.w3.org/TR/2001/REC-SVG-20010904/DTD/svg10.dtd">
<svg version="1.0" xmlns="http://www.w3.org/2000/svg"
 width="96.000000pt" height="68.000000pt" viewBox="0 0 96.000000 68.000000"
 preserveAspectRatio="xMidYMid meet">
<metadata>
Created by potrace 1.16, written by Peter Selinger 2001-2019
Combined from part_0.svg through part_5.svg with named groups
</metadata>
<g transform="translate(0.000000,68.000000) scale(0.100000,-0.100000)" fill="#000000" stroke="none">
<g id="part-0" class="char-part">
  <path d="M400 625 c0 -3 7 -16 16 -29 18 -29 14 -31 -91 -41 -38 -3 -90 -9
-114 -12 -40 -5 -43 -7 -26 -19 22 -17 72 -18 163 -4 37 6 133 14 214 18 81 4
151 11 154 15 4 4 2 13 -5 20 -13 13 -146 15 -192 4 -21 -5 -27 -1 -36 23 -10
26 -17 30 -47 30 -20 0 -36 -2 -36 -5z"/>
  <path d="M475 499 c-22 -4 -78 -9 -124 -9 -46 -1 -80 -5 -75 -9 12 -8 30 -48
43 -97 l11 -42 45 6 c41 4 45 3 45 -17 0 -19 -6 -21 -49 -21 -28 0 -53 -4 -56
-10 -4 -6 17 -10 55 -10 53 0 61 -2 58 -17 -3 -15 -21 -19 -121 -27 -64 -5
-117 -12 -117 -16 0 -14 74 -21 125 -11 27 5 53 7 57 5 13 -8 -45 -51 -133
-99 -91 -48 -81 -60 16 -20 33 14 62 25 64 25 2 0 1 -25 -1 -56 -3 -38 -1 -57
7 -60 13 -5 139 66 131 74 -3 2 -24 -3 -46 -12 -23 -9 -45 -14 -49 -12 -4 3
-6 26 -5 53 1 44 4 50 38 68 20 11 35 27 33 35 -2 13 21 15 146 18 83 1 147 7
147 12 0 24 -41 30 -145 19 -59 -6 -109 -8 -112 -5 -17 17 11 34 66 40 34 4
61 12 61 18 0 7 -19 9 -60 5 -37 -4 -61 -3 -66 4 -12 19 15 33 65 33 l50 0 25
57 c15 31 26 61 26 67 0 21 -78 27 -155 11z m95 -32 c0 -21 -4 -23 -50 -23
-41 0 -50 3 -50 17 0 18 19 25 73 28 22 1 27 -3 27 -22z m-153 -17 c2 -17 -4
-20 -41 -20 -35 0 -45 4 -49 20 -5 18 0 20 42 20 40 0 47 -3 48 -20z m143 -27
c-1 -19 -18 -31 -52 -35 -31 -3 -38 -1 -38 13 0 10 8 20 18 22 29 8 72 7 72 0z
m-142 -32 c-2 -10 -15 -17 -34 -19 -24 -2 -33 1 -37 17 -6 26 -4 28 38 23 27
-3 35 -9 33 -21z"/>
  <path d="M574 195 c-21 -33 -44 -38 -87 -20 -65 27 -83 12 -19 -17 20 -9 70
-41 111 -70 78 -55 98 -60 185 -44 50 10 45 22 -11 31 -69 10 -204 56 -200 68
2 6 21 16 42 24 50 17 52 20 29 38 -26 20 -31 19 -50 -10z"/>
</g>
<g id="part-1" class="char-part">
  <path d="M419 601 c12 -16 21 -31 21 -34 0 -2 -58 -10 -130 -17 -72 -7 -130
-17 -130 -21 0 -17 58 -19 173 -5 67 8 175 18 240 22 64 3 119 10 122 14 12
19 -62 31 -126 20 -92 -14 -109 -13 -109 8 0 26 -20 42 -53 42 l-28 0 20 -29z"/>
</g>
<g id="part-2" class="char-part">
  <path d="M475 499 c-22 -4 -77 -8 -123 -8 l-83 -1 19 -27 c11 -16 22 -44 26
-63 11 -59 13 -60 96 -49 41 6 97 11 124 12 l48 2 28 62 c28 60 28 63 10 73
-22 12 -87 11 -145 -1z m93 -35 c3 -18 -2 -20 -48 -20 -40 1 -50 4 -50 18 0
17 27 27 70 24 17 -1 26 -8 28 -22z m-150 -17 c3 -16 -2 -18 -40 -15 -32 2
-44 8 -46 21 -3 16 2 18 40 15 32 -2 44 -8 46 -21z m142 -21 c0 -24 -17 -36
-51 -36 -43 0 -56 25 -16 33 32 6 67 8 67 3z m-142 -33 c-2 -12 -14 -19 -34
-21 -25 -2 -33 1 -37 17 -5 19 -1 21 35 21 32 0 39 -3 36 -17z"/>
</g>
<g id="part-3" class="char-part">
  <path d="M438 352 c-10 -2 -18 -12 -18 -23 0 -16 -7 -19 -55 -19 -30 0 -55 -4
-55 -10 0 -6 27 -10 60 -10 45 0 60 -3 60 -14 0 -20 -18 -24 -137 -32 -57 -3
-103 -10 -103 -15 0 -17 69 -19 160 -5 54 9 156 16 238 16 78 0 142 4 142 9 0
5 -13 14 -29 20 -22 10 -52 10 -126 1 -97 -10 -126 -5 -111 19 4 6 20 11 35
11 45 0 91 12 91 23 0 6 -23 8 -61 4 -51 -4 -61 -2 -67 12 -4 9 -15 15 -24 13z"/>
</g>
<g id="part-4" class="char-part">
  <path d="M564 185 l-32 -36 -36 21 c-19 12 -43 20 -53 17 -16 -4 -16 -5 2 -12
11 -5 57 -35 103 -67 98 -71 120 -78 197 -66 91 14 89 16 -35 42 -41 9 -97 27
-125 40 l-50 23 53 17 c56 19 63 29 33 46 -26 13 -21 15 -57 -25z"/>
  <path d="M334 142 c-6 -4 -11 -24 -12 -46 -1 -21 -4 -47 -7 -57 -11 -35 22
-32 85 7 67 41 72 55 10 30 -22 -9 -44 -16 -49 -16 -4 0 -6 20 -4 45 5 44 -1
52 -23 37z"/>
</g>
</g>
</svg>