<?xml version="1.0" standalone="no"?>
<!DOCTYPE svg PUBLIC "-//W3C//DTD SVG 20010904//EN"
 "http://www.w3.org/TR/2001/REC-SVG-20010904/DTD/svg10.dtd">
<svg version="1.0" xmlns="http://www.w3.org/2000/svg"
 width="96.000000pt" height="68.000000pt" viewBox="0 0 96.000000 68.000000"
 preserveAspectRatio="xMidYMid meet">
<metadata>
Created by potrace 1.16, written by Peter Selinger 2001-2019
Combined from part_0.svg through part_5.svg with named groups
</metadata>
<g transform="translate(0.000000,68.000000) scale(0.100000,-0.100000)" fill="#000000" stroke="none">
<g id="part-0" class="char-part">
  <path d="M255 620 c-4 -6 -1 -34 5 -63 20 -89 15 -100 -57 -112 -34 -5 -64
-13 -68 -17 -11 -11 54 -20 95 -13 l40 7 0 -44 0 -43 -80 -37 c-44 -21 -84
-38 -90 -38 -29 0 8 -49 37 -50 7 0 35 16 62 35 26 19 51 35 55 35 4 0 6 -26
4 -57 l-3 -58 -37 1 c-21 1 -38 -2 -38 -5 0 -13 76 -81 89 -81 30 0 40 34 41
134 l0 99 38 34 c36 34 30 39 -20 18 -14 -6 -18 -2 -18 18 0 31 14 42 63 51
59 11 42 36 -25 36 -30 0 -30 1 -25 38 4 20 9 49 13 64 5 22 1 29 -24 42 -36
19 -48 20 -57 6z"/>
  <path d="M564 583 c4 -10 7 -63 5 -118 -3 -140 -2 -146 11 -159 8 -8 15 -6 26
9 11 15 14 48 12 150 l-3 130 -29 3 c-24 3 -28 1 -22 -15z"/>
  <path d="M706 463 c-9 -10 114 -95 129 -89 32 12 6 56 -40 69 -11 3 -34 10
-52 15 -17 6 -34 8 -37 5z"/>
  <path d="M456 420 c-3 -22 -11 -40 -16 -40 -6 0 -10 -5 -10 -11 0 -6 -9 -22
-20 -36 -25 -32 -18 -43 11 -17 45 41 101 115 93 123 -5 5 -19 12 -30 15 -19
6 -22 1 -28 -34z"/>
  <path d="M700 352 c0 -52 -116 -171 -269 -275 -71 -49 -33 -43 65 10 72 39
264 218 264 245 0 19 -21 38 -42 38 -11 0 -18 -7 -18 -18z"/>
</g>
<g id="part-1" class="char-part">
  <path d="M255 603 c5 -10 10 -48 13 -84 4 -63 3 -66 -19 -72 -13 -4 -41 -7
-61 -7 -20 0 -40 -4 -43 -10 -4 -6 18 -10 59 -10 l66 0 0 -45 0 -46 -67 -30
c-38 -17 -79 -35 -92 -40 -19 -8 -21 -12 -11 -24 20 -24 51 -18 107 20 29 19
55 35 59 35 8 0 -3 -117 -12 -131 -3 -5 -22 -7 -41 -3 l-35 7 47 -44 47 -44
19 24 c16 19 19 40 19 122 0 99 0 99 33 130 l32 30 -32 -16 -33 -16 0 40 c0
39 0 40 45 47 68 10 57 30 -14 24 -22 -2 -23 1 -18 47 2 26 8 57 11 69 6 16 2
23 -19 32 -40 18 -69 16 -60 -5z"/>
</g>
<g id="part-2" class="char-part">
  <path d="M567 459 c2 -142 10 -176 36 -151 15 16 27 274 12 284 -5 4 -19 8
-30 8 -19 0 -20 -6 -18 -141z"/>
  <path d="M710 450 c47 -38 113 -80 127 -80 19 0 16 34 -4 52 -18 15 -60 30
-118 42 l-30 7 25 -21z"/>
  <path d="M460 438 c0 -13 -16 -49 -35 -80 -19 -32 -31 -58 -27 -58 12 0 64 51
97 94 28 37 28 39 10 52 -28 20 -45 17 -45 -8z"/>
</g>
<g id="part-3" class="char-part">
  <path d="M695 341 c-14 -64 -139 -187 -273 -268 -70 -42 -40 -44 41 -2 94 47
137 81 220 169 79 83 86 97 65 118 -22 22 -46 14 -53 -17z"/>
</g>
</g>
</svg>