<?xml version="1.0" standalone="no"?>
<!DOCTYPE svg PUBLIC "-//W3C//DTD SVG 20010904//EN"
 "http://www.w3.org/TR/2001/REC-SVG-20010904/DTD/svg10.dtd">
<svg version="1.0" xmlns="http://www.w3.org/2000/svg"
 width="96.000000pt" height="68.000000pt" viewBox="0 0 96.000000 68.000000"
 preserveAspectRatio="xMidYMid meet">
<metadata>
Created by potrace 1.16, written by Peter Selinger 2001-2019
Combined from part_0.svg through part_5.svg with named groups
</metadata>
<g transform="translate(0.000000,68.000000) scale(0.100000,-0.100000)" fill="#000000" stroke="none">
<g id="part-0" class="char-part">
  <path d="M466 610 c-28 -21 -71 -49 -98 -61 -74 -35 -62 -52 17 -24 39 14 45
12 57 -16 2 -4 18 -15 36 -26 l32 -20 -93 -41 c-51 -23 -114 -47 -140 -54 -26
-6 -47 -16 -47 -20 0 -15 68 -8 151 16 46 14 87 21 91 18 13 -13 -39 -59 -109
-98 -37 -21 -62 -39 -56 -41 17 -6 112 37 164 74 40 28 48 31 58 19 28 -34
-48 -99 -244 -206 l-40 -22 35 6 c47 8 165 67 222 111 26 19 50 35 54 35 10 0
-3 -97 -18 -128 -10 -20 -21 -27 -41 -27 -33 1 -32 2 -5 -35 27 -37 51 -38 76
-2 68 98 52 236 -37 298 -22 16 -41 31 -41 34 0 3 41 27 90 53 50 27 90 54 90
61 0 31 -51 49 -67 23 -4 -7 -21 -23 -37 -35 l-29 -22 -11 22 c-6 12 -26 26
-46 31 l-35 9 25 14 c14 7 42 18 63 24 45 13 57 35 31 55 -29 22 -44 18 -98
-25z"/>
  <path d="M310 495 c0 -17 57 -65 77 -65 31 0 31 33 -2 54 -22 15 -75 23 -75
11z"/>
</g>
<g id="part-1" class="char-part">
  <path d="M480 615 c-14 -13 -54 -41 -90 -60 -63 -35 -64 -36 -25 -30 22 4 45
10 50 14 6 5 45 21 88 36 42 15 77 31 77 34 0 4 -5 12 -12 19 -20 20 -62 14
-88 -13z"/>
  <path d="M585 514 c-44 -40 -172 -104 -274 -140 -61 -21 -63 -23 -30 -23 56
-1 163 36 269 92 125 66 124 66 104 88 -22 24 -22 24 -69 -17z"/>
  <path d="M453 505 c31 -28 67 -33 67 -10 0 19 -31 35 -67 35 l-28 -1 28 -24z"/>
  <path d="M339 466 c35 -36 71 -48 71 -23 0 21 -31 44 -70 52 l-35 7 34 -36z"/>
</g>
<g id="part-2" class="char-part">
  <path d="M496 363 c23 -21 47 -55 54 -77 14 -44 8 -112 -15 -156 -17 -32 -34
-37 -67 -19 -15 8 -12 1 12 -30 18 -23 41 -41 50 -41 40 0 79 82 79 165 1 68
-28 127 -80 164 -61 44 -83 40 -33 -6z"/>
</g>
<g id="part-3" class="char-part">
  <path d="M436 338 c-22 -21 -67 -52 -102 -70 -35 -18 -61 -34 -59 -36 15 -15
223 87 232 113 2 6 -5 15 -14 20 -14 8 -26 2 -57 -27z"/>
</g>
<g id="part-4" class="char-part">
  <path d="M530 301 c0 -16 -107 -94 -200 -145 -68 -38 -78 -46 -50 -42 88 16
270 127 270 166 0 10 -4 22 -10 25 -5 3 -10 2 -10 -4z"/>
</g>
</g>
</svg>