<?xml version="1.0" standalone="no"?>
<!DOCTYPE svg PUBLIC "-//W3C//DTD SVG 20010904//EN"
 "http://www.w3.org/TR/2001/REC-SVG-20010904/DTD/svg10.dtd">
<svg version="1.0" xmlns="http://www.w3.org/2000/svg"
 width="96.000000pt" height="68.000000pt" viewBox="0 0 96.000000 68.000000"
 preserveAspectRatio="xMidYMid meet">
<metadata>
Created by potrace 1.16, written by Peter Selinger 2001-2019
Combined from part_0.svg through part_5.svg with named groups
</metadata>
<g transform="translate(0.000000,68.000000) scale(0.100000,-0.100000)" fill="#000000" stroke="none">
<g id="part-0" class="char-part">
  <path d="M414 639 c-3 -6 -1 -16 5 -22 7 -7 11 -50 11 -108 l0 -96 -37 -6
c-21 -3 -50 -4 -64 -2 l-26 3 5 -72 c2 -39 -1 -98 -8 -131 -22 -106 -23 -130
-6 -144 13 -11 17 -9 27 15 6 16 14 48 16 70 l5 41 72 7 c39 3 93 9 119 13
l48 6 -3 -54 -3 -54 -37 2 c-21 1 -38 -2 -38 -7 0 -6 3 -10 8 -10 4 0 23 -14
42 -30 42 -36 45 -36 64 -8 13 18 16 52 16 160 0 75 5 149 11 164 9 24 7 31
-13 46 -18 14 -33 17 -67 12 -24 -3 -50 -8 -58 -11 -13 -5 -14 10 -12 103 4
108 4 108 -21 115 -37 10 -48 10 -56 -2z m166 -275 c0 -34 0 -34 -44 -34 -25
0 -55 -4 -69 -9 -13 -5 -44 -11 -68 -12 -43 -4 -44 -3 -47 27 -2 17 3 36 11
42 13 11 194 32 210 24 4 -2 7 -19 7 -38z m0 -88 l0 -33 -107 -17 c-60 -9
-111 -16 -115 -16 -5 0 -8 16 -8 35 0 26 4 35 18 36 9 0 31 2 47 5 28 3 141
20 158 23 4 0 7 -14 7 -33z"/>
  <path d="M615 579 c-9 -17 -32 -48 -52 -70 -33 -36 -34 -39 -13 -39 23 0 160
85 160 99 0 4 -10 12 -22 18 -50 24 -57 23 -73 -8z"/>
  <path d="M240 542 c0 -4 14 -24 31 -45 36 -44 79 -52 79 -14 0 12 -4 27 -8 34
-15 23 -102 45 -102 25z"/>
</g>
<g id="part-1" class="char-part">
  <path d="M424 624 c3 -9 6 -58 6 -110 0 -92 0 -94 24 -94 23 0 24 3 31 99 4
55 4 104 0 110 -3 6 -20 11 -37 11 -23 0 -29 -4 -24 -16z"/>
  <path d="M620 588 c0 -9 -18 -38 -41 -67 -22 -28 -37 -51 -32 -51 5 0 44 22
86 49 82 52 85 64 19 77 -25 5 -32 3 -32 -8z"/>
  <path d="M277 500 c43 -44 73 -49 73 -12 0 28 -23 43 -72 49 l-43 5 42 -42z"/>
</g>
<g id="part-2" class="char-part">
  <path d="M495 424 c-38 -8 -97 -15 -131 -16 l-61 -3 5 -70 c2 -42 -2 -100 -12
-145 -19 -87 -19 -109 -6 -130 16 -24 38 12 45 75 l7 53 72 6 c39 4 93 10 119
13 l48 6 -3 -54 -3 -54 -39 2 -40 3 39 -40 c45 -46 58 -49 79 -18 13 18 16 52
16 160 0 75 5 149 11 165 9 24 7 30 -11 45 -25 20 -38 21 -135 2z m85 -60 c0
-33 -2 -34 -37 -34 -21 0 -54 -4 -73 -9 -19 -5 -54 -11 -77 -14 l-43 -5 0 34
c0 23 6 37 19 44 21 11 178 28 199 22 6 -2 12 -19 12 -38z m0 -89 c0 -19 -1
-35 -3 -35 -12 0 -178 -22 -199 -26 -26 -5 -28 -3 -28 28 l0 34 103 16 c56 8
108 16 115 17 7 0 12 -12 12 -34z"/>
</g>
</g>
</svg>