<?xml version="1.0" standalone="no"?>
<!DOCTYPE svg PUBLIC "-//W3C//DTD SVG 20010904//EN"
 "http://www.w3.org/TR/2001/REC-SVG-20010904/DTD/svg10.dtd">
<svg version="1.0" xmlns="http://www.w3.org/2000/svg"
 width="96.000000pt" height="68.000000pt" viewBox="0 0 96.000000 68.000000"
 preserveAspectRatio="xMidYMid meet">
<metadata>
Created by potrace 1.16, written by Peter Selinger 2001-2019
Combined from part_0.svg through part_5.svg with named groups
</metadata>
<g transform="translate(0.000000,68.000000) scale(0.100000,-0.100000)" fill="#000000" stroke="none">
<g id="part-0" class="char-part">
  <path d="M470 565 c-30 -7 -75 -14 -99 -14 -41 -1 -43 -2 -37 -25 8 -32 26
-201 26 -248 l0 -38 -50 0 -50 0 0 40 c0 39 1 40 35 40 19 0 35 5 35 11 0 6
-15 9 -37 7 -35 -3 -38 -1 -41 23 -3 23 1 27 32 33 51 10 47 30 -4 21 l-40 -7
0 36 c0 31 5 38 40 58 42 24 47 44 16 62 -14 8 -20 8 -23 -1 -14 -38 -51 -78
-71 -76 -25 3 -26 0 -11 -29 10 -19 39 -178 39 -215 0 -9 -20 -13 -65 -13 -36
0 -65 -4 -65 -9 0 -18 66 -20 202 -6 77 8 229 15 338 15 195 0 243 8 185 30
-14 6 -48 10 -75 10 l-49 0 5 33 c3 17 15 72 26 121 20 87 20 90 2 103 -20 15
-82 11 -113 -7 -12 -7 -5 -9 27 -10 41 0 42 -1 42 -35 0 -33 -2 -35 -34 -35
-19 0 -38 -4 -41 -10 -4 -6 8 -10 29 -10 31 0 36 -3 36 -24 0 -20 -8 -26 -47
-37 l-48 -13 43 -4 c40 -3 42 -5 38 -30 -2 -15 -5 -33 -5 -39 -1 -8 -17 -13
-44 -13 l-42 0 7 117 c4 65 9 132 13 150 4 25 2 34 -14 42 -23 13 -38 12 -111
-4z m68 -162 l-3 -148 -73 -5 -72 -5 0 78 c0 42 2 77 5 77 2 0 9 -18 15 -40 8
-31 16 -40 33 -40 41 0 65 12 70 33 3 12 9 32 13 45 7 23 6 23 -67 20 l-74 -3
-3 57 -3 57 38 6 c21 4 43 8 48 10 6 2 25 4 43 4 l33 1 -3 -147z m-54 -11 c10
-16 -7 -52 -24 -52 -18 0 -30 19 -30 46 0 15 45 20 54 6z"/>
  <path d="M428 483 c-16 -2 -28 -9 -28 -15 0 -11 75 -2 100 13 16 9 -19 10 -72
2z"/>
  <path d="M321 167 c-10 -24 -85 -98 -120 -117 -13 -6 -20 -14 -17 -17 7 -7
136 58 136 68 0 4 8 10 18 14 9 3 28 14 41 25 19 17 21 23 11 35 -19 23 -59
19 -69 -8z"/>
  <path d="M560 173 c0 -4 29 -38 65 -75 45 -48 69 -66 80 -61 23 8 12 62 -18
86 -36 30 -127 66 -127 50z"/>
</g>
<g id="part-1" class="char-part">
  <path d="M269 548 c-7 -13 -19 -34 -28 -48 l-16 -24 44 24 c52 29 60 44 32 59
-17 9 -22 7 -32 -11z"/>
</g>
<g id="part-2" class="char-part">
  <path d="M650 533 c-45 -8 -46 -23 -1 -23 42 0 42 0 39 -32 -3 -29 -7 -33 -41
-39 -53 -8 -58 -19 -9 -19 38 0 42 -3 42 -24 0 -20 -8 -26 -47 -37 l-48 -13
43 -4 42 -3 -6 -39 c-6 -36 -5 -38 15 -33 11 3 21 7 21 10 0 2 12 56 26 119
32 144 26 155 -76 137z"/>
  <path d="M185 464 c13 -20 44 -168 45 -216 0 -5 7 -8 15 -8 11 0 15 11 15 40
0 39 1 40 34 40 19 0 38 5 42 11 4 7 -8 10 -37 7 -41 -3 -44 -1 -47 24 -3 24
1 28 32 34 51 9 46 28 -4 20 -39 -6 -40 -6 -40 24 0 24 -6 33 -26 40 -40 16
-48 12 -29 -16z"/>
</g>
<g id="part-3" class="char-part">
  <path d="M465 564 c-33 -8 -77 -13 -97 -11 -41 3 -42 1 -28 -58 5 -22 11 -85
14 -140 4 -84 7 -101 22 -104 16 -3 16 8 10 137 l-7 140 23 5 c13 4 50 9 81
13 l57 7 0 -147 c0 -118 3 -146 14 -146 20 0 26 23 26 98 0 37 5 96 10 132 8
56 7 67 -7 78 -20 14 -39 14 -118 -4z"/>
</g>
<g id="part-4" class="char-part">
  <path d="M315 157 c-11 -17 -46 -52 -77 -77 -31 -25 -55 -46 -54 -48 11 -10
216 113 216 129 0 10 -34 29 -52 29 -7 -1 -22 -15 -33 -33z"/>
  <path d="M600 123 c80 -87 90 -95 106 -82 19 16 17 32 -8 64 -21 27 -109 75
-137 75 -8 0 10 -26 39 -57z"/>
</g>
</g>
</svg>