<?xml version="1.0" standalone="no"?>
<!DOCTYPE svg PUBLIC "-//W3C//DTD SVG 20010904//EN"
 "http://www.w3.org/TR/2001/REC-SVG-20010904/DTD/svg10.dtd">
<svg version="1.0" xmlns="http://www.w3.org/2000/svg"
 width="96.000000pt" height="68.000000pt" viewBox="0 0 96.000000 68.000000"
 preserveAspectRatio="xMidYMid meet">
<metadata>
Created by potrace 1.16, written by Peter Selinger 2001-2019
Combined from part_0.svg through part_5.svg with named groups
</metadata>
<g transform="translate(0.000000,68.000000) scale(0.100000,-0.100000)" fill="#000000" stroke="none">
<g id="part-0" class="char-part">
  <path d="M530 575 c0 -3 12 -22 26 -41 15 -19 25 -36 23 -38 -2 -2 -34 -7 -71
-11 -46 -4 -68 -3 -68 4 0 6 -4 11 -10 11 -10 0 -36 -54 -46 -96 -9 -36 30
-19 49 22 14 27 22 34 46 34 17 0 52 4 78 9 26 5 74 12 106 15 47 4 57 2 57
-11 0 -9 -8 -22 -17 -29 -16 -12 -17 -13 -1 -14 28 0 118 23 118 31 0 4 -12
17 -27 29 -25 20 -36 21 -100 16 l-73 -7 0 26 c0 25 -7 31 -67 49 -13 4 -23 4
-23 1z"/>
  <path d="M197 534 c-3 -4 -3 -14 2 -23 5 -9 11 -44 14 -77 l6 -61 -49 -7 c-63
-8 -65 -24 -2 -28 l47 -3 3 -55 3 -56 -48 -17 c-26 -9 -56 -17 -65 -17 -10 0
-18 -7 -18 -15 0 -15 29 -35 53 -35 14 0 194 94 211 111 18 17 -1 19 -42 5
l-42 -15 0 53 0 54 45 6 c67 10 56 40 -13 38 l-35 -1 7 42 c3 23 8 52 12 63 5
17 0 24 -27 33 -36 13 -53 14 -62 5z"/>
  <path d="M587 405 c-20 -14 -57 -34 -82 -45 -51 -22 -57 -30 -18 -27 24 2 27
-1 27 -33 l1 -34 -68 -12 c-37 -6 -70 -14 -73 -17 -12 -12 27 -20 64 -12 77
14 77 15 82 -42 6 -59 27 -87 79 -104 44 -15 169 -14 217 1 30 10 35 16 29 34
-3 11 -8 36 -12 54 -7 40 -19 41 -28 2 -10 -47 -38 -60 -131 -60 -99 0 -114
11 -114 88 l0 51 58 6 c117 12 142 16 142 24 0 15 -63 21 -105 11 -68 -16 -85
-13 -85 14 0 14 -4 28 -10 31 -20 13 -8 22 50 40 64 19 72 28 41 45 -25 13
-20 14 -64 -15z"/>
</g>
<g id="part-1" class="char-part">
  <path d="M205 513 c5 -10 10 -45 13 -79 4 -58 3 -61 -19 -67 -13 -4 -36 -7
-51 -7 -16 0 -28 -4 -28 -10 0 -5 23 -10 50 -10 l51 0 -3 -62 -3 -61 -64 -22
-65 -21 24 -17 c14 -9 28 -17 32 -17 11 0 208 111 208 117 0 5 -35 -2 -64 -13
-13 -5 -16 3 -16 50 l0 56 40 6 c22 4 43 10 46 15 7 12 -40 22 -65 14 -19 -6
-21 -2 -21 40 0 25 5 55 10 65 12 23 -12 40 -55 40 -22 0 -26 -3 -20 -17z"/>
</g>
<g id="part-2" class="char-part">
  <path d="M530 575 c0 -5 12 -23 26 -42 14 -19 24 -36 23 -37 -2 -2 -31 -6 -65
-10 -50 -5 -64 -4 -74 10 -12 14 -17 10 -37 -36 -28 -64 -28 -70 -2 -70 13 0
25 11 34 34 13 31 18 34 72 40 126 16 208 23 216 18 5 -2 -2 -15 -14 -28 -27
-28 -18 -30 60 -12 57 13 59 23 13 54 -26 18 -38 20 -79 13 -78 -13 -86 -12
-80 11 4 14 -2 25 -16 35 -27 17 -77 30 -77 20z"/>
</g>
<g id="part-3" class="char-part">
  <path d="M601 414 c-13 -9 -53 -32 -90 -50 -36 -18 -59 -33 -51 -33 24 -1 210
61 210 70 0 7 -32 29 -42 29 -2 0 -14 -7 -27 -16z"/>
</g>
<g id="part-4" class="char-part">
  <path d="M525 344 c-6 -2 -9 -22 -7 -43 l4 -39 -59 -8 c-32 -3 -67 -10 -78
-14 -37 -14 31 -23 80 -11 24 6 46 11 49 11 3 0 6 -22 6 -49 0 -90 54 -125
192 -123 89 1 134 18 131 47 -5 46 -16 85 -23 85 -4 0 -11 -12 -15 -27 -13
-55 -30 -63 -125 -63 -105 0 -122 12 -124 87 -1 54 7 59 104 63 30 1 69 6 85
10 l30 7 -30 12 c-29 12 -78 7 -162 -15 -21 -6 -22 -4 -17 24 5 23 2 32 -12
40 -11 5 -24 8 -29 6z"/>
</g>
</g>
</svg>