<?xml version="1.0" standalone="no"?>
<!DOCTYPE svg PUBLIC "-//W3C//DTD SVG 20010904//EN"
 "http://www.w3.org/TR/2001/REC-SVG-20010904/DTD/svg10.dtd">
<svg version="1.0" xmlns="http://www.w3.org/2000/svg"
 width="96.000000pt" height="68.000000pt" viewBox="0 0 96.000000 68.000000"
 preserveAspectRatio="xMidYMid meet">
<metadata>
Created by potrace 1.16, written by Peter Selinger 2001-2019
Combined from part_0.svg through part_5.svg with named groups
</metadata>
<g transform="translate(0.000000,68.000000) scale(0.100000,-0.100000)" fill="#000000" stroke="none">
<g id="part-0" class="char-part">
  <path d="M480 617 c0 -21 -41 -89 -81 -137 -21 -24 -36 -46 -34 -49 3 -2 24
12 47 31 38 31 51 36 122 41 105 9 206 27 206 37 0 16 -63 16 -147 -1 -120
-25 -119 -25 -82 22 31 40 32 42 14 55 -24 17 -45 18 -45 1z"/>
  <path d="M276 578 c-9 -46 -79 -148 -142 -208 -58 -55 -61 -60 -41 -60 15 0
116 73 129 93 12 19 9 -153 -3 -217 -13 -63 -2 -106 26 -106 22 0 23 5 33 180
8 133 8 157 -5 172 -14 15 -11 22 31 73 25 31 46 61 46 65 0 11 -41 40 -56 40
-6 0 -14 -14 -18 -32z"/>
  <path d="M520 440 c-30 -4 -65 -6 -77 -5 -22 2 -22 0 -16 -58 7 -73 -6 -87
-80 -87 -29 0 -46 -4 -42 -10 3 -5 28 -10 54 -10 26 0 50 -3 53 -6 8 -7 -18
-58 -37 -74 -15 -13 -20 -42 -9 -53 4 -3 21 1 38 10 20 10 66 18 129 21 105 5
114 0 81 -47 -13 -18 -24 -22 -50 -19 -19 2 -34 2 -34 0 0 -12 58 -62 72 -62
20 0 68 55 68 78 1 40 15 46 66 28 58 -20 64 -20 64 -2 0 22 -40 46 -77 46
-32 0 -33 1 -33 44 0 57 15 68 87 66 84 -3 92 -2 63 15 -15 9 -46 14 -77 13
-29 -1 -56 1 -59 5 -4 3 -1 27 6 53 11 39 11 47 -1 55 -16 10 -107 10 -189 -1z
m140 -65 c0 -63 5 -60 -122 -69 l-78 -6 6 48 c3 26 7 52 9 59 4 12 43 18 133
21 l52 2 0 -55z m-10 -131 c-5 -44 -7 -47 -37 -50 -27 -3 -33 0 -33 16 0 21
-46 57 -58 46 -3 -4 1 -20 10 -35 l16 -29 -60 -6 c-33 -4 -62 -5 -64 -3 -2 2
3 25 13 50 19 52 21 53 148 55 l71 2 -6 -46z"/>
  <path d="M526 372 c-2 -4 4 -18 14 -31 19 -27 50 -23 46 5 -3 23 -49 43 -60
26z"/>
</g>
<g id="part-1" class="char-part">
  <path d="M287 602 c-2 -4 -7 -20 -11 -36 -11 -45 -67 -125 -131 -188 -33 -32
-54 -58 -48 -58 13 0 80 45 117 79 l29 26 -7 -110 c-3 -61 -11 -126 -16 -145
-11 -39 3 -90 25 -90 15 0 21 44 31 211 4 87 3 122 -7 137 -12 19 -8 27 34 80
38 49 44 62 34 74 -14 18 -45 30 -50 20z"/>
</g>
<g id="part-2" class="char-part">
  <path d="M471 594 c-7 -19 -35 -64 -61 -100 -27 -35 -47 -64 -44 -64 4 0 24
14 46 32 36 28 51 33 151 44 150 17 188 24 182 34 -11 17 -65 17 -154 -1 -51
-10 -98 -19 -103 -19 -5 0 4 18 21 39 35 44 38 56 15 65 -30 11 -40 6 -53 -30z"/>
</g>
<g id="part-3" class="char-part">
  <path d="M565 444 c-55 -7 -110 -10 -123 -7 -22 5 -23 4 -17 -43 8 -58 -14
-154 -45 -196 -38 -51 -22 -78 31 -51 41 20 195 31 211 15 8 -8 6 -19 -7 -38
-15 -23 -22 -26 -57 -21 l-41 5 38 -38 c30 -31 42 -37 56 -30 26 15 57 57 64
90 7 32 18 33 83 9 33 -12 42 -11 42 5 0 22 -40 46 -77 46 -31 0 -33 2 -33 33
1 34 16 145 26 188 9 39 -28 47 -151 33z m91 -116 c-10 -142 -7 -137 -69 -137
-29 1 -78 -2 -110 -6 -31 -4 -57 -6 -57 -4 0 2 9 27 19 54 10 28 22 73 26 100
12 92 8 89 144 93 l54 2 -7 -102z"/>
</g>
<g id="part-4" class="char-part">
  <path d="M520 373 c1 -21 39 -56 54 -50 24 9 19 32 -9 45 -30 14 -45 15 -45 5z"/>
  <path d="M739 326 c-2 -2 -42 -7 -89 -10 -47 -4 -134 -11 -195 -16 -60 -6
-120 -10 -133 -10 -15 0 -21 -4 -16 -11 6 -11 127 -8 194 5 14 2 101 7 193 11
145 6 165 9 150 21 -16 12 -93 20 -104 10z"/>
</g>
</g>
</svg>