<?xml version="1.0" standalone="no"?>
<!DOCTYPE svg PUBLIC "-//W3C//DTD SVG 20010904//EN"
 "http://www.w3.org/TR/2001/REC-SVG-20010904/DTD/svg10.dtd">
<svg version="1.0" xmlns="http://www.w3.org/2000/svg"
 width="96.000000pt" height="68.000000pt" viewBox="0 0 96.000000 68.000000"
 preserveAspectRatio="xMidYMid meet">
<metadata>
Created by potrace 1.16, written by Peter Selinger 2001-2019
Combined from part_0.svg through part_5.svg with named groups
</metadata>
<g transform="translate(0.000000,68.000000) scale(0.100000,-0.100000)" fill="#000000" stroke="none">
<g id="part-0" class="char-part">
  <path d="M368 605 c-3 -3 -3 -37 0 -75 5 -80 14 -75 -128 -85 -46 -3 -86 -8
-88 -10 -2 -2 -1 -9 3 -16 6 -9 35 -10 111 -6 l104 7 0 -84 0 -83 -37 -7 c-48
-8 -93 -8 -93 0 0 3 8 22 17 41 18 38 10 65 -19 71 -12 2 -17 -9 -20 -48 -3
-28 -13 -59 -22 -69 -23 -26 -13 -61 18 -61 12 0 26 4 31 9 11 9 117 42 122
37 2 -1 7 -24 12 -50 15 -80 62 -114 170 -123 59 -5 168 6 224 23 22 7 22 39
1 111 -17 60 -25 59 -42 -2 -17 -60 -50 -75 -159 -75 -63 0 -95 4 -110 15 -26
18 -51 91 -37 105 5 5 36 12 68 16 53 6 59 5 53 -9 -4 -11 1 -20 13 -27 21
-11 20 -13 45 94 8 38 14 71 12 73 -3 2 -18 8 -36 13 l-31 9 0 -59 0 -59 -37
-6 c-92 -14 -83 -22 -83 70 l0 82 75 6 c116 10 155 18 155 32 0 20 -49 27
-109 15 -29 -5 -67 -10 -84 -10 l-30 0 7 59 7 59 -32 11 c-36 12 -43 13 -51 6z"/>
</g>
<g id="part-1" class="char-part">
  <path d="M370 574 c6 -14 10 -47 10 -74 l0 -48 -110 -7 c-61 -4 -110 -11 -110
-16 0 -5 50 -9 110 -9 l110 0 -1 -124 c-1 -153 11 -188 73 -216 67 -30 297
-25 330 8 8 8 6 30 -7 79 -14 51 -20 62 -26 48 -4 -11 -12 -34 -18 -50 -7 -17
-21 -36 -33 -44 -29 -18 -155 -26 -205 -12 -61 17 -73 45 -73 173 0 145 1 146
69 153 116 13 155 20 153 30 -2 11 -60 12 -152 5 l-55 -5 3 40 c2 22 5 47 8
56 5 17 -33 39 -66 39 -17 0 -18 -4 -10 -26z"/>
</g>
<g id="part-2" class="char-part">
  <path d="M550 335 c0 -53 0 -54 -32 -59 -18 -2 -67 -10 -108 -16 -41 -7 -97
-14 -123 -17 l-48 -6 15 38 c20 48 20 71 0 79 -35 14 -42 7 -37 -33 4 -30 0
-47 -16 -70 -42 -58 -6 -90 61 -55 31 16 218 54 266 54 16 0 22 -4 19 -13 -8
-20 7 -39 25 -32 10 4 18 25 23 53 3 26 11 62 17 81 12 37 1 51 -39 51 -21 0
-23 -5 -23 -55z"/>
</g>
</g>
</svg>