<?xml version="1.0" standalone="no"?>
<!DOCTYPE svg PUBLIC "-//W3C//DTD SVG 20010904//EN"
 "http://www.w3.org/TR/2001/REC-SVG-20010904/DTD/svg10.dtd">
<svg version="1.0" xmlns="http://www.w3.org/2000/svg"
 width="96.000000pt" height="68.000000pt" viewBox="0 0 96.000000 68.000000"
 preserveAspectRatio="xMidYMid meet">
<metadata>
Created by potrace 1.16, written by Peter Selinger 2001-2019
Combined from part_0.svg through part_5.svg with named groups
</metadata>
<g transform="translate(0.000000,68.000000) scale(0.100000,-0.100000)" fill="#000000" stroke="none">
<g id="part-0" class="char-part">
  <path d="M236 612 c-3 -6 -2 -22 4 -37 5 -14 10 -50 10 -80 l0 -53 -60 -9
c-34 -4 -62 -12 -63 -18 -1 -6 26 -11 61 -13 l62 -3 -1 -42 c0 -41 -1 -43 -57
-69 -31 -15 -70 -32 -85 -38 -33 -12 -31 -30 3 -47 26 -13 49 -4 108 43 37 30
38 28 26 -60 l-7 -47 -41 6 -41 7 45 -46 c77 -80 99 -59 100 96 0 101 1 108
23 119 33 17 57 41 51 50 -3 5 -18 2 -34 -6 -39 -20 -40 -20 -40 15 0 26 4 30
38 36 20 4 41 9 45 11 16 9 -16 33 -44 33 -25 0 -29 4 -29 27 0 15 5 41 12 59
9 27 9 35 -5 48 -20 20 -72 32 -81 18z"/>
  <path d="M540 584 c0 -57 -14 -73 -70 -80 -65 -9 -75 -24 -16 -24 27 0 46 -5
46 -11 0 -15 -96 -135 -123 -154 -33 -23 1 -18 40 6 30 19 102 99 129 145 10
18 13 17 45 -8 19 -15 54 -46 79 -69 57 -52 103 -73 147 -64 18 3 33 10 33 14
0 5 -27 19 -61 31 -61 23 -179 96 -179 111 0 4 25 13 55 19 81 17 71 34 -15
26 -74 -7 -77 -5 -60 40 12 31 -1 54 -31 54 -15 0 -19 -7 -19 -36z"/>
  <path d="M538 357 c-86 -15 -73 -31 19 -23 71 6 92 11 82 20 -12 11 -50 12
-101 3z"/>
  <path d="M540 274 c-52 -7 -105 -13 -117 -13 -13 -1 -23 -5 -23 -11 0 -6 32
-10 75 -10 l74 0 -3 -58 c-4 -74 -9 -83 -48 -75 l-31 6 19 -25 c32 -44 49 -50
78 -27 23 18 25 28 28 102 l3 82 80 9 c88 9 97 13 75 26 -19 12 -92 10 -210
-6z"/>
  <path d="M394 158 c-9 -18 -26 -43 -37 -55 -34 -38 3 -28 51 13 44 38 52 58
26 68 -23 9 -22 9 -40 -26z"/>
  <path d="M696 136 c52 -57 94 -73 94 -37 0 25 -22 46 -71 71 -69 36 -76 25
-23 -34z"/>
</g>
<g id="part-1" class="char-part">
  <path d="M244 587 c3 -13 8 -49 12 -81 8 -66 1 -75 -56 -77 -19 0 -44 -4 -54
-8 -32 -13 -1 -23 57 -19 l52 3 3 -32 c5 -50 -10 -65 -97 -103 -44 -19 -79
-39 -78 -45 2 -5 15 -14 29 -19 22 -8 34 -3 77 27 28 21 54 37 57 37 3 0 4
-28 2 -62 l-3 -63 -40 1 -40 0 48 -45 c45 -42 49 -44 65 -27 13 13 18 39 20
126 l4 110 41 30 c22 16 34 30 26 30 -8 0 -24 -7 -35 -15 -29 -22 -34 -18 -34
25 0 36 3 40 24 40 13 0 31 3 40 6 29 11 16 24 -24 24 -46 0 -49 8 -26 84 13
44 13 47 -7 61 -12 8 -32 15 -45 15 -20 0 -23 -4 -18 -23z"/>
</g>
<g id="part-2" class="char-part">
  <path d="M539 627 c0 -1 -1 -23 -2 -49 -2 -26 -7 -52 -13 -58 -6 -6 -34 -13
-62 -17 -64 -7 -68 -23 -7 -23 25 0 45 -3 45 -7 0 -18 -68 -108 -109 -143 -25
-22 -41 -40 -35 -40 28 0 113 70 154 127 25 34 48 62 51 62 4 1 42 -31 85 -70
44 -39 89 -76 101 -81 22 -11 113 -2 113 10 0 4 -33 19 -74 35 -41 15 -100 46
-131 70 l-57 42 56 11 c58 12 74 19 63 30 -8 9 -45 8 -96 -1 -41 -7 -44 -7
-37 11 22 55 19 71 -13 82 -17 6 -31 10 -32 9z"/>
</g>
<g id="part-3" class="char-part">
  <path d="M570 360 c-14 -4 -40 -8 -57 -9 -18 -1 -33 -6 -33 -12 0 -9 22 -10
77 -5 42 3 79 8 81 11 14 14 -36 25 -68 15z"/>
</g>
<g id="part-4" class="char-part">
  <path d="M553 244 c-7 -3 -10 -16 -7 -32 3 -15 1 -45 -4 -67 -8 -38 -10 -40
-42 -37 l-35 3 34 -35 c27 -28 38 -33 52 -25 30 16 39 44 39 123 0 76 -4 83
-37 70z"/>
  <path d="M398 163 c-7 -16 -23 -40 -37 -55 -37 -42 -4 -36 47 8 44 38 52 58
26 68 -23 9 -23 9 -36 -21z"/>
  <path d="M700 135 c54 -54 73 -65 85 -45 14 23 -9 53 -58 76 -80 37 -86 29
-27 -31z"/>
</g>
</g>
</svg>