<?xml version="1.0" standalone="no"?>
<!DOCTYPE svg PUBLIC "-//W3C//DTD SVG 20010904//EN"
 "http://www.w3.org/TR/2001/REC-SVG-20010904/DTD/svg10.dtd">
<svg version="1.0" xmlns="http://www.w3.org/2000/svg"
 width="96.000000pt" height="68.000000pt" viewBox="0 0 96.000000 68.000000"
 preserveAspectRatio="xMidYMid meet">
<metadata>
Created by potrace 1.16, written by Peter Selinger 2001-2019
Combined from part_0.svg through part_5.svg with named groups
</metadata>
<g transform="translate(0.000000,68.000000) scale(0.100000,-0.100000)" fill="#000000" stroke="none">
<g id="part-0" class="char-part">
  <path d="M466 551 l7 -71 -64 0 c-35 0 -81 -3 -102 -6 -36 -6 -37 -8 -21 -25
14 -16 16 -32 11 -99 -4 -43 -11 -87 -17 -97 -5 -10 -20 -43 -33 -73 -13 -30
-41 -77 -61 -103 -21 -27 -36 -51 -33 -53 2 -2 25 14 51 37 69 61 105 141 135
299 l16 85 42 9 c51 10 73 3 73 -24 0 -16 -7 -20 -32 -20 -18 0 -40 -5 -48
-10 -11 -7 -4 -10 28 -10 29 0 48 -6 62 -20 16 -16 33 -20 93 -19 39 0 81 4
92 8 19 8 19 8 0 18 -14 8 -37 8 -76 0 -96 -17 -128 14 -34 33 30 6 55 16 55
22 0 7 -19 8 -55 3 -54 -6 -63 -2 -47 22 9 14 192 31 192 18 0 -5 -7 -17 -17
-27 -19 -21 -12 -22 56 -7 57 12 59 26 8 54 -29 15 -42 16 -104 6 -109 -17
-123 -15 -123 13 0 22 5 24 70 30 64 7 91 18 76 33 -8 9 -56 8 -98 0 -33 -7
-37 -5 -40 15 -2 18 -10 24 -36 26 l-32 3 6 -70z"/>
  <path d="M555 319 c-22 -4 -70 -8 -106 -8 l-67 -1 14 -37 c7 -21 13 -48 14
-59 0 -36 19 -42 108 -33 54 6 91 5 103 -1 17 -9 22 -3 50 56 31 64 31 68 14
81 -21 14 -68 15 -130 2z m80 -51 c-10 -57 -11 -58 -51 -58 -27 0 -34 4 -34
20 0 16 7 20 35 20 19 0 35 5 35 10 0 6 -15 10 -34 10 -20 0 -36 6 -39 14 -7
18 7 24 56 25 l39 1 -7 -42z m-121 24 c10 -17 -13 -35 -45 -34 -46 1 -58 25
-16 33 49 10 55 10 61 1z m-1 -58 c14 -15 -8 -34 -39 -34 -27 0 -34 4 -34 20
0 16 7 20 33 20 19 0 36 -3 40 -6z"/>
  <path d="M748 130 c44 -39 72 -43 72 -10 0 20 -55 50 -92 50 -21 -1 -19 -4 20
-40z"/>
  <path d="M520 152 c0 -17 49 -54 64 -49 22 9 20 23 -6 41 -24 17 -58 21 -58 8z"/>
  <path d="M409 113 c41 -82 100 -106 240 -101 76 2 104 7 117 19 14 15 12 19
-31 48 -56 38 -59 38 -51 6 5 -21 2 -27 -21 -36 -31 -12 -120 -6 -171 12 -20
7 -43 26 -58 50 -31 50 -50 51 -25 2z"/>
  <path d="M302 88 c-22 -44 -17 -66 12 -55 18 7 38 52 34 75 -6 30 -24 22 -46
-20z"/>
</g>
<g id="part-1" class="char-part">
  <path d="M467 563 c3 -32 6 -64 8 -70 7 -22 32 -3 39 28 5 28 8 29 60 29 60 0
86 7 86 22 0 6 -26 7 -70 3 -66 -7 -70 -6 -70 13 0 17 -23 31 -51 32 -3 0 -4
-26 -2 -57z"/>
</g>
<g id="part-2" class="char-part">
  <path d="M464 438 c1 -18 -6 -23 -37 -29 -53 -9 -58 -19 -9 -19 29 0 48 -6 62
-20 16 -16 33 -20 88 -20 71 0 112 7 112 20 0 16 -32 19 -79 8 -50 -11 -101
-5 -101 12 0 10 14 14 83 25 49 8 38 29 -12 22 -20 -3 -44 -8 -55 -13 -15 -6
-17 -4 -11 14 5 18 2 22 -18 22 -18 0 -23 -5 -23 -22z"/>
</g>
<g id="part-3" class="char-part">
  <path d="M555 319 c-22 -4 -71 -8 -108 -8 -61 -1 -67 -3 -59 -18 5 -10 15 -41
22 -70 11 -49 14 -52 38 -48 76 12 156 14 173 5 17 -9 22 -3 50 56 31 64 31
68 14 81 -21 14 -68 15 -130 2z m80 -19 c14 -23 -3 -36 -44 -32 -40 4 -56 24
-28 35 22 10 66 7 72 -3z m-125 -20 c0 -17 -7 -20 -39 -20 -44 0 -66 26 -28
33 52 10 67 7 67 -13z m118 -47 c-2 -13 -14 -19 -41 -21 -32 -3 -37 0 -37 17
0 18 6 21 41 21 33 0 40 -3 37 -17z m-118 -13 c0 -16 -7 -20 -35 -20 -28 0
-35 4 -35 20 0 16 7 20 35 20 28 0 35 -4 35 -20z"/>
</g>
<g id="part-4" class="char-part">
  <path d="M715 159 c12 -19 87 -69 96 -63 23 14 7 43 -31 58 -46 18 -74 21 -65
5z"/>
  <path d="M520 152 c0 -15 46 -52 63 -52 24 0 21 26 -5 44 -24 17 -58 21 -58 8z"/>
  <path d="M409 113 c24 -48 50 -71 98 -89 54 -19 194 -18 241 2 42 18 43 15
-42 70 -32 21 -37 22 -31 7 18 -45 17 -50 -15 -57 -51 -10 -92 -7 -148 9 -42
13 -57 24 -77 55 -32 51 -52 52 -26 3z"/>
  <path d="M302 90 c-24 -43 -22 -60 7 -60 20 0 48 70 37 89 -12 18 -20 13 -44
-29z"/>
</g>
</g>
</svg>