<?xml version="1.0" standalone="no"?>
<!DOCTYPE svg PUBLIC "-//W3C//DTD SVG 20010904//EN"
 "http://www.w3.org/TR/2001/REC-SVG-20010904/DTD/svg10.dtd">
<svg version="1.0" xmlns="http://www.w3.org/2000/svg"
 width="96.000000pt" height="68.000000pt" viewBox="0 0 96.000000 68.000000"
 preserveAspectRatio="xMidYMid meet">
<metadata>
Created by potrace 1.16, written by Peter Selinger 2001-2019
Combined from part_0.svg through part_5.svg with named groups
</metadata>
<g transform="translate(0.000000,68.000000) scale(0.100000,-0.100000)" fill="#000000" stroke="none">
<g id="part-0" class="char-part">
  <path d="M391 584 c-102 -14 -187 -26 -189 -29 -2 -2 -1 -9 3 -16 6 -8 30 -10
81 -6 41 3 74 2 74 -2 0 -15 -57 -60 -120 -95 -58 -32 -62 -36 -35 -36 17 0
55 12 85 27 66 32 105 36 107 11 2 -24 -44 -61 -132 -104 -41 -20 -75 -39 -75
-41 0 -12 75 14 151 53 47 24 90 44 96 44 12 0 22 -29 15 -48 -6 -20 -136
-101 -220 -138 -50 -22 -68 -34 -52 -34 43 0 156 46 219 88 33 22 62 37 65 34
11 -10 6 -101 -6 -126 -13 -31 -38 -40 -85 -31 l-34 6 39 -35 c49 -45 74 -45
106 -3 32 42 44 131 26 196 -6 23 -10 45 -7 47 2 2 19 -11 38 -30 19 -19 56
-52 84 -75 47 -39 53 -41 117 -41 37 0 69 4 72 9 3 5 -31 20 -75 35 -79 26
-126 52 -182 99 l-28 24 46 34 c92 68 92 68 75 79 -28 18 -57 12 -64 -14 -7
-27 -53 -86 -67 -86 -5 0 -39 22 -75 50 l-65 50 36 21 c20 12 34 27 31 34 -5
15 43 25 119 25 62 0 125 10 125 20 0 12 -50 30 -83 29 -18 -1 -115 -12 -216
-25z"/>
</g>
<g id="part-1" class="char-part">
  <path d="M408 581 c-108 -14 -199 -29 -203 -33 -19 -18 81 -20 148 -1 31 8 19
-24 -20 -55 -21 -16 -63 -44 -93 -61 -51 -30 -53 -32 -20 -26 34 7 151 68 200
105 19 15 22 21 12 33 -11 12 5 15 118 22 145 8 167 20 70 40 -8 1 -104 -9
-212 -24z"/>
</g>
<g id="part-2" class="char-part">
  <path d="M350 466 c0 -2 18 -16 41 -31 52 -37 69 -71 76 -154 10 -124 -22
-168 -105 -143 l-35 11 44 -39 c24 -22 54 -40 67 -40 71 -1 101 133 61 275
-15 52 -86 125 -123 125 -14 0 -26 -2 -26 -4z"/>
</g>
<g id="part-3" class="char-part">
  <path d="M430 320 c-37 -32 -173 -109 -224 -126 -67 -23 -66 -34 4 -18 66 15
137 47 211 95 51 33 54 36 41 57 -7 10 -14 8 -32 -8z"/>
</g>
<g id="part-4" class="char-part">
  <path d="M587 468 c-4 -13 -20 -39 -36 -58 -26 -31 -32 -34 -50 -22 -73 44 77
-120 154 -169 20 -13 48 -19 85 -19 93 0 92 15 -3 44 -60 18 -103 39 -146 72
-34 25 -61 47 -61 49 0 2 29 25 65 51 36 25 64 51 62 58 -2 6 -17 12 -34 14
-25 3 -32 -1 -36 -20z"/>
</g>
</g>
</svg>