<?xml version="1.0" standalone="no"?>
<!DOCTYPE svg PUBLIC "-//W3C//DTD SVG 20010904//EN"
 "http://www.w3.org/TR/2001/REC-SVG-20010904/DTD/svg10.dtd">
<svg version="1.0" xmlns="http://www.w3.org/2000/svg"
 width="96.000000pt" height="68.000000pt" viewBox="0 0 96.000000 68.000000"
 preserveAspectRatio="xMidYMid meet">
<metadata>
Created by potrace 1.16, written by Peter Selinger 2001-2019
Combined from part_0.svg through part_5.svg with named groups
</metadata>
<g transform="translate(0.000000,68.000000) scale(0.100000,-0.100000)" fill="#000000" stroke="none">
<g id="part-0" class="char-part">
  <path d="M370 610 c-5 -10 -10 -23 -10 -29 0 -19 -63 -104 -112 -151 -26 -25
-48 -50 -48 -54 0 -18 58 8 102 45 42 35 52 39 105 39 32 0 99 5 148 10 87 9
91 9 109 -13 17 -20 18 -34 13 -142 -5 -120 -18 -177 -43 -205 -11 -12 -21
-12 -56 -3 -24 6 -45 10 -47 7 -9 -9 75 -92 95 -93 11 -1 32 11 46 26 43 46
58 96 59 197 0 50 4 123 8 161 8 63 6 72 -12 93 -23 25 -68 29 -158 12 -108
-20 -188 -27 -182 -16 4 6 22 30 40 52 36 45 34 53 -20 73 -22 9 -28 7 -37 -9z"/>
  <path d="M340 422 c0 -10 50 -47 64 -47 6 0 12 7 14 16 2 11 -8 20 -29 28 -38
13 -49 14 -49 3z"/>
  <path d="M335 351 c-55 -9 -93 -19 -85 -22 16 -6 37 -5 120 5 46 6 88 9 188
15 7 1 10 6 7 11 -9 14 -113 10 -230 -9z"/>
  <path d="M355 295 l-50 -13 46 -1 c64 -1 140 10 133 20 -7 12 -70 9 -129 -6z"/>
  <path d="M381 249 c-71 -12 -77 -19 -15 -19 67 0 125 11 118 21 -6 11 -29 10
-103 -2z"/>
  <path d="M431 199 c-14 -5 -51 -11 -83 -12 -52 -2 -72 -9 -50 -19 4 -1 15 -21
23 -43 9 -23 21 -39 29 -37 7 2 42 6 76 9 35 3 61 9 59 13 -2 4 5 24 16 45 17
30 18 39 7 46 -17 11 -47 10 -77 -2z m29 -48 c0 -27 -3 -29 -52 -34 -28 -4
-53 -5 -54 -4 -1 1 -5 14 -9 29 -7 29 2 33 83 37 29 1 32 -2 32 -28z"/>
</g>
<g id="part-1" class="char-part">
  <path d="M370 605 c0 -34 -34 -87 -103 -161 -69 -74 -70 -75 -33 -60 21 9 54
29 74 44 35 27 46 30 190 42 125 10 155 10 168 -1 13 -11 15 -35 12 -153 -2
-120 -6 -147 -24 -181 -22 -42 -32 -45 -88 -30 l-30 8 38 -46 c21 -26 44 -47
51 -47 7 0 29 18 48 39 45 50 55 101 59 289 4 192 11 187 -195 151 -66 -11
-131 -19 -144 -17 -22 3 -21 5 18 51 46 53 43 69 -13 82 -22 6 -28 4 -28 -10z"/>
</g>
<g id="part-2" class="char-part">
  <path d="M352 411 c15 -25 53 -45 67 -37 20 13 12 27 -24 42 -47 19 -58 18
-43 -5z"/>
  <path d="M366 357 c-101 -15 -133 -23 -117 -29 12 -4 64 -3 114 2 51 6 119 13
152 16 54 5 58 7 40 20 -22 17 -13 17 -189 -9z"/>
</g>
<g id="part-3" class="char-part">
  <path d="M372 300 c-72 -11 -77 -20 -11 -20 71 0 130 10 123 21 -6 10 -36 10
-112 -1z"/>
</g>
<g id="part-4" class="char-part">
  <path d="M430 198 c-14 -5 -53 -11 -87 -11 -56 -2 -60 -3 -47 -18 8 -9 19 -33
25 -53 9 -31 13 -35 33 -30 39 9 60 12 94 13 22 1 34 7 38 19 3 9 12 29 19 43
24 43 -15 62 -75 37z m30 -52 c-5 -15 -20 -23 -54 -30 -53 -9 -51 -10 -60 25
-6 26 -4 27 52 36 62 9 75 3 62 -31z"/>
</g>
</g>
</svg>