<?xml version="1.0" standalone="no"?>
<!DOCTYPE svg PUBLIC "-//W3C//DTD SVG 20010904//EN"
 "http://www.w3.org/TR/2001/REC-SVG-20010904/DTD/svg10.dtd">
<svg version="1.0" xmlns="http://www.w3.org/2000/svg"
 width="96.000000pt" height="68.000000pt" viewBox="0 0 96.000000 68.000000"
 preserveAspectRatio="xMidYMid meet">
<metadata>
Created by potrace 1.16, written by Peter Selinger 2001-2019
Combined from part_0.svg through part_5.svg with named groups
</metadata>
<g transform="translate(0.000000,68.000000) scale(0.100000,-0.100000)" fill="#000000" stroke="none">
<g id="part-0" class="char-part">
  <path d="M417 612 c-164 -17 -193 -35 -64 -40 l77 -3 0 -29 c0 -28 -2 -30 -39
-30 -70 0 -81 -15 -16 -20 52 -4 60 -8 59 -25 -2 -54 -3 -55 -38 -55 -66 0
-156 -13 -156 -23 0 -8 138 -5 365 9 22 1 51 2 64 3 20 1 22 3 10 17 -11 13
-30 15 -104 13 l-90 -4 -3 31 c-3 28 0 32 29 38 17 3 44 6 60 6 54 0 29 19
-28 22 -54 3 -58 5 -61 29 -3 26 -1 27 67 34 71 7 96 20 70 36 -16 10 -10 10
-202 -9z"/>
  <path d="M530 358 c5 -58 5 -58 -70 -58 -68 0 -70 1 -70 25 0 14 -3 25 -7 25
-5 0 -18 3 -30 6 -20 6 -22 3 -16 -28 l5 -35 -47 -6 c-26 -4 -78 -7 -114 -7
-62 -1 -65 -2 -46 -16 15 -12 37 -15 95 -11 41 2 82 6 90 8 24 6 15 -48 -16
-92 -15 -22 -42 -49 -61 -60 -51 -32 -31 -36 21 -5 52 30 96 81 112 128 l11
33 76 3 77 3 0 -116 c0 -72 4 -115 10 -115 19 0 30 50 30 130 0 116 -7 110
126 110 63 0 114 4 114 9 0 21 -70 32 -151 25 l-82 -7 5 27 c4 19 0 29 -13 36
-31 17 -51 12 -49 -12z"/>
</g>
<g id="part-1" class="char-part">
  <path d="M540 620 c-19 -5 -80 -11 -136 -15 -140 -10 -155 -25 -24 -25 98 0
238 14 249 25 15 15 -45 25 -89 15z"/>
</g>
<g id="part-2" class="char-part">
  <path d="M432 545 c4 -35 4 -35 -37 -36 -22 -1 -51 -5 -65 -9 -19 -6 -10 -8
36 -9 56 -1 62 -3 66 -23 9 -52 3 -55 -103 -63 -66 -4 -97 -10 -93 -17 7 -11
228 -6 387 9 58 5 65 8 55 21 -10 12 -30 14 -105 9 l-93 -6 0 34 0 34 60 7
c33 4 60 11 60 15 0 9 -10 10 -80 13 -30 1 -35 5 -38 29 -3 21 -8 27 -29 27
-23 0 -25 -3 -21 -35z"/>
</g>
<g id="part-3" class="char-part">
  <path d="M532 343 l3 -38 -74 -3 c-70 -3 -73 -2 -68 18 5 21 -17 40 -47 40
-11 0 -13 -8 -9 -33 l5 -34 -53 -6 c-30 -4 -80 -7 -111 -7 -32 0 -58 -4 -58
-10 0 -16 68 -23 147 -16 l75 7 -7 -28 c-9 -38 -49 -88 -98 -124 -51 -37 -25
-38 34 -1 53 34 97 83 106 120 9 37 19 42 96 42 l67 0 0 -115 c0 -63 4 -115 9
-115 14 0 31 58 31 105 0 23 3 63 6 89 l7 46 113 0 c63 0 114 4 114 9 0 21
-72 33 -151 26 -81 -7 -81 -7 -78 16 5 33 -8 49 -37 49 -23 0 -25 -3 -22 -37z"/>
</g>
</g>
</svg>