<?xml version="1.0" standalone="no"?>
<!DOCTYPE svg PUBLIC "-//W3C//DTD SVG 20010904//EN"
 "http://www.w3.org/TR/2001/REC-SVG-20010904/DTD/svg10.dtd">
<svg version="1.0" xmlns="http://www.w3.org/2000/svg"
 width="96.000000pt" height="68.000000pt" viewBox="0 0 96.000000 68.000000"
 preserveAspectRatio="xMidYMid meet">
<metadata>
Created by potrace 1.16, written by Peter Selinger 2001-2019
Combined from part_0.svg through part_5.svg with named groups
</metadata>
<g transform="translate(0.000000,68.000000) scale(0.100000,-0.100000)" fill="#000000" stroke="none">
<g id="part-0" class="char-part">
  <path d="M280 554 c-25 -19 -63 -44 -85 -56 -30 -17 -36 -23 -22 -26 10 -2 32
1 49 7 40 14 50 4 46 -44 -2 -28 -8 -39 -21 -41 -98 -14 -156 -27 -151 -35 7
-11 67 -11 117 0 20 5 37 6 37 2 0 -19 -62 -101 -105 -139 -26 -23 -43 -42
-36 -42 21 0 88 48 124 90 19 23 37 38 40 33 2 -4 1 -33 -4 -63 -13 -92 -11
-177 5 -183 8 -3 17 -3 20 0 3 4 6 62 6 130 0 67 4 123 8 123 5 0 21 -13 37
-30 28 -30 45 -31 45 -4 0 9 -18 23 -40 32 -33 14 -40 22 -40 44 0 25 5 28 40
34 46 8 44 24 -4 24 -32 0 -33 1 -29 37 2 21 -1 39 -8 44 -18 11 -2 26 36 33
45 9 54 25 25 48 -30 24 -37 23 -90 -18z"/>
  <path d="M590 553 c-5 -78 3 -380 10 -398 14 -37 47 -49 129 -48 114 2 150 26
122 81 -5 9 -14 28 -19 42 -10 24 -11 24 -11 3 -1 -36 -22 -71 -45 -77 -43
-12 -114 -6 -130 10 -21 20 -23 183 -3 188 6 2 46 10 87 17 54 10 75 18 75 29
0 25 -38 23 -92 -5 -77 -38 -77 -38 -70 58 7 83 7 84 -19 95 -29 14 -34 15
-34 5z"/>
  <path d="M415 286 c0 -85 3 -157 6 -161 4 -3 37 15 75 41 38 26 58 44 44 40
-14 -4 -38 -9 -55 -12 l-30 -6 3 61 c4 65 3 64 66 73 11 2 21 9 24 17 5 14
-11 12 -71 -5 -17 -5 -19 -1 -17 38 4 63 2 68 -22 68 -23 0 -23 -1 -23 -154z"/>
</g>
<g id="part-1" class="char-part">
  <path d="M281 550 c-19 -16 -55 -39 -79 -50 -57 -27 -48 -36 15 -16 152 48
184 67 152 87 -25 16 -53 9 -88 -21z"/>
</g>
<g id="part-2" class="char-part">
  <path d="M265 448 l0 -52 -82 -12 c-103 -15 -115 -20 -79 -29 17 -5 56 -4 88
1 32 6 58 7 58 3 0 -18 -94 -129 -131 -155 -49 -34 -37 -44 18 -15 47 25 59
35 102 86 l34 39 -8 -99 c-10 -125 -9 -145 3 -157 24 -24 32 6 32 128 0 68 4
124 8 124 5 0 21 -13 37 -30 34 -35 48 -38 43 -8 -2 13 -18 29 -40 41 -28 14
-38 25 -38 43 0 19 5 24 24 24 33 0 57 10 50 21 -3 5 -20 9 -38 9 -32 0 -33 1
-32 43 1 38 -1 42 -24 45 -25 3 -26 1 -25 -50z"/>
</g>
<g id="part-3" class="char-part">
  <path d="M415 282 c1 -142 2 -157 18 -156 17 2 120 75 113 81 -1 2 -22 -3 -44
-11 l-42 -15 0 64 c0 71 -7 64 78 81 13 3 20 9 16 15 -6 11 -40 8 -78 -7 -17
-7 -19 -4 -13 36 7 53 1 70 -27 70 -21 0 -21 -3 -21 -158z"/>
</g>
<g id="part-4" class="char-part">
  <path d="M588 368 c4 -211 11 -242 60 -255 68 -18 212 2 212 30 0 24 -39 112
-40 90 0 -35 -21 -71 -44 -77 -37 -10 -122 -6 -134 6 -17 17 -16 187 1 192 6
2 45 10 86 17 75 14 100 32 61 44 -12 4 -41 -3 -74 -19 -30 -14 -60 -26 -67
-26 -9 0 -10 22 -6 85 3 46 3 86 -1 88 -4 2 -18 7 -32 10 l-25 6 3 -191z"/>
</g>
</g>
</svg>