<?xml version="1.0" standalone="no"?>
<!DOCTYPE svg PUBLIC "-//W3C//DTD SVG 20010904//EN"
 "http://www.w3.org/TR/2001/REC-SVG-20010904/DTD/svg10.dtd">
<svg version="1.0" xmlns="http://www.w3.org/2000/svg"
 width="96.000000pt" height="68.000000pt" viewBox="0 0 96.000000 68.000000"
 preserveAspectRatio="xMidYMid meet">
<metadata>
Created by potrace 1.16, written by Peter Selinger 2001-2019
Combined from part_0.svg through part_5.svg with named groups
</metadata>
<g transform="translate(0.000000,68.000000) scale(0.100000,-0.100000)" fill="#000000" stroke="none">
<g id="part-0" class="char-part">
  <path d="M276 568 c5 -24 9 -63 9 -88 0 -44 -1 -45 -35 -48 -94 -7 -105 -32
-14 -32 l54 0 0 -44 0 -44 -90 -33 c-49 -19 -90 -39 -90 -45 0 -6 13 -17 30
-24 30 -13 33 -11 125 47 20 12 21 11 18 -25 -2 -20 -6 -52 -9 -70 -5 -33 -6
-33 -47 -27 l-42 7 39 -41 c51 -53 74 -60 98 -31 15 18 18 41 18 126 l0 104
42 27 c28 19 36 29 25 31 -9 2 -25 -2 -36 -7 -29 -16 -33 -14 -29 21 3 28 8
33 41 41 50 12 50 37 -1 37 l-38 0 4 43 c2 23 8 46 13 52 5 5 9 15 9 22 0 15
-51 43 -80 43 -20 0 -21 -3 -14 -42z"/>
  <path d="M562 551 c-11 -27 -39 -70 -63 -96 -23 -25 -40 -47 -38 -49 2 -2 27
11 54 29 37 24 66 34 113 39 34 4 62 3 62 -1 0 -4 -14 -28 -30 -52 -30 -44
-36 -61 -22 -61 4 0 41 31 82 69 l75 69 -28 13 c-22 10 -39 9 -96 -4 -38 -10
-72 -17 -75 -17 -9 0 -7 30 2 30 4 0 15 12 25 26 18 25 18 26 0 39 -30 23 -39
18 -61 -34z"/>
  <path d="M515 350 c-9 -29 -54 -60 -88 -60 -28 0 -29 -1 -15 -17 9 -10 23 -54
32 -97 16 -79 34 -116 45 -97 4 5 56 13 118 17 107 6 111 6 122 -15 29 -54 64
-9 80 104 6 44 14 92 17 106 8 38 -32 52 -111 39 -33 -5 -63 -10 -67 -10 -5 0
-8 -5 -8 -10 0 -7 20 -9 60 -4 l60 7 0 -36 c0 -35 0 -35 -55 -42 -76 -9 -80
-25 -6 -25 57 0 61 -2 61 -22 -1 -63 0 -63 -141 -66 l-129 -2 0 30 c0 49 -3
47 63 49 20 0 37 5 37 10 0 15 -40 20 -72 9 -35 -12 -48 -1 -48 44 0 22 7 29
45 43 55 21 75 42 54 56 -23 15 -47 10 -54 -11z"/>
</g>
<g id="part-1" class="char-part">
  <path d="M287 519 l6 -89 -25 0 c-42 0 -88 -12 -82 -21 3 -5 27 -9 55 -9 l49
0 0 -44 0 -43 -70 -32 c-39 -17 -77 -31 -84 -31 -24 0 -28 -18 -7 -29 30 -17
47 -13 101 20 28 17 53 29 56 26 3 -3 3 -36 -1 -72 l-8 -67 -40 5 -40 6 46
-47 c45 -45 46 -46 67 -27 18 16 20 30 20 126 l0 109 40 25 c50 31 51 40 4 20
-20 -8 -38 -15 -41 -15 -2 0 -3 17 -1 38 3 35 6 38 46 46 23 6 42 13 42 18 0
11 -47 21 -65 14 -19 -7 -20 30 -3 86 13 44 7 54 -39 67 l-32 9 6 -89z"/>
</g>
<g id="part-2" class="char-part">
  <path d="M570 573 c-18 -50 -34 -76 -78 -125 -51 -56 -42 -62 21 -14 35 27 56
35 110 40 37 4 67 5 67 1 0 -3 -16 -30 -35 -60 -20 -31 -29 -55 -22 -55 6 0
45 31 85 68 58 53 70 70 60 80 -16 16 -50 15 -120 -4 -32 -9 -61 -14 -65 -11
-3 3 6 20 21 37 31 38 32 46 7 60 -30 16 -41 12 -51 -17z"/>
</g>
<g id="part-3" class="char-part">
  <path d="M499 331 l-36 -48 36 14 c20 8 47 23 61 33 25 19 25 19 5 34 -11 9
-22 16 -25 16 -3 0 -21 -22 -41 -49z"/>
</g>
<g id="part-4" class="char-part">
  <path d="M695 326 c-82 -13 -74 -31 9 -21 47 6 54 5 58 -12 10 -41 -1 -51 -63
-58 -75 -9 -68 -29 7 -23 l54 5 0 -31 c0 -52 -9 -57 -116 -63 -100 -5 -146 -5
-149 0 -1 1 -5 19 -8 40 l-6 37 55 0 c30 0 54 4 54 9 0 16 -28 20 -66 10 -40
-12 -54 -3 -54 37 0 22 -17 34 -50 34 -19 0 -19 -1 -1 -32 10 -18 24 -62 30
-97 11 -64 29 -101 41 -82 3 6 56 13 117 17 106 7 111 6 122 -15 30 -56 65 -8
80 109 6 47 13 94 16 106 5 15 0 23 -20 32 -14 7 -29 11 -33 11 -4 -1 -38 -6
-77 -13z"/>
</g>
</g>
</svg>