<?xml version="1.0" standalone="no"?>
<!DOCTYPE svg PUBLIC "-//W3C//DTD SVG 20010904//EN"
 "http://www.w3.org/TR/2001/REC-SVG-20010904/DTD/svg10.dtd">
<svg version="1.0" xmlns="http://www.w3.org/2000/svg"
 width="96.000000pt" height="68.000000pt" viewBox="0 0 96.000000 68.000000"
 preserveAspectRatio="xMidYMid meet">
<metadata>
Created by potrace 1.16, written by Peter Selinger 2001-2019
Combined from part_0.svg through part_5.svg with named groups
</metadata>
<g transform="translate(0.000000,68.000000) scale(0.100000,-0.100000)" fill="#000000" stroke="none">
<g id="part-0" class="char-part">
  <path d="M315 546 c-8 -19 -19 -37 -24 -40 -5 -3 -29 5 -53 19 -65 37 -79 30
-29 -15 51 -47 49 -52 -39 -109 -72 -46 -44 -54 41 -12 34 17 65 28 70 25 5
-3 9 -19 9 -35 0 -37 -32 -71 -114 -124 -32 -20 -55 -39 -53 -42 8 -7 114 46
148 75 l31 26 -6 -75 c-11 -112 -24 -131 -80 -109 -14 5 -28 5 -31 1 -5 -9 69
-81 84 -81 21 0 61 44 71 78 15 55 12 199 -5 267 l-16 59 43 43 43 44 -24 20
c-34 27 -50 24 -66 -15z"/>
  <path d="M580 548 c11 -18 20 -36 20 -40 0 -3 -29 -10 -65 -13 -55 -6 -69 -5
-85 10 -18 17 -19 16 -26 -11 -3 -16 -13 -39 -21 -52 -14 -23 -10 -42 8 -42 5
0 18 15 29 33 19 32 22 33 122 46 57 6 120 15 141 18 32 5 37 3 37 -14 0 -10
-5 -24 -12 -31 -15 -15 -5 -15 62 -1 56 12 62 25 23 53 -22 16 -36 18 -99 12
-74 -6 -74 -6 -74 19 0 26 -25 45 -59 45 l-21 0 20 -32z"/>
  <path d="M624 443 c-8 -2 -9 -18 -3 -46 4 -23 5 -45 3 -48 -2 -4 -49 -10 -104
-13 -95 -7 -127 -17 -95 -30 8 -3 21 -4 27 -1 7 2 50 6 96 10 l82 6 0 -98 c0
-54 -4 -104 -9 -112 -6 -10 -20 -12 -45 -8 -20 3 -36 2 -36 -4 0 -5 4 -9 10
-9 5 0 20 -11 34 -25 31 -31 59 -32 74 -2 7 12 13 75 14 142 l3 120 68 3 c102
4 80 32 -25 32 l-48 0 0 35 c0 34 -22 57 -46 48z"/>
  <path d="M460 241 c0 -13 56 -71 68 -71 24 0 22 36 -3 57 -26 23 -65 31 -65
14z"/>
</g>
<g id="part-1" class="char-part">
  <path d="M325 558 c-4 -13 -13 -33 -21 -45 l-14 -23 -58 32 -57 31 43 -45 44
-46 -66 -48 c-36 -27 -63 -50 -61 -52 2 -2 36 12 76 32 40 20 75 33 78 30 3
-3 6 -65 6 -138 0 -158 -6 -172 -69 -161 l-41 6 35 -35 c18 -20 42 -36 51 -36
29 0 66 55 74 109 8 59 -2 189 -20 247 l-12 42 43 36 c24 21 44 41 44 46 0 8
-51 40 -64 40 -2 0 -8 -10 -11 -22z"/>
</g>
<g id="part-2" class="char-part">
  <path d="M260 324 c-19 -20 -62 -54 -95 -76 -47 -31 -54 -38 -30 -32 33 7 107
45 143 73 17 12 23 25 20 45 l-3 27 -35 -37z"/>
</g>
<g id="part-3" class="char-part">
  <path d="M560 582 c0 -4 9 -22 21 -41 11 -18 19 -34 17 -36 -11 -9 -138 -14
-143 -5 -3 5 -10 10 -14 10 -11 0 -52 -90 -46 -101 12 -19 32 -8 48 26 14 29
22 35 47 35 17 0 78 7 136 16 58 9 108 14 111 10 3 -3 1 -18 -6 -32 l-11 -26
42 7 c64 10 79 16 75 28 -6 19 -69 58 -86 53 -9 -3 -37 -8 -63 -12 -47 -6 -48
-5 -48 19 0 14 -5 29 -10 32 -19 12 -70 24 -70 17z"/>
</g>
<g id="part-4" class="char-part">
  <path d="M625 392 l7 -50 -111 -7 c-61 -4 -113 -11 -116 -15 -9 -14 50 -19
120 -10 116 15 106 25 103 -97 l-3 -108 -43 1 -44 1 37 -34 c41 -37 69 -42 85
-14 5 11 10 76 10 145 l0 126 70 0 c39 0 70 4 70 10 0 13 -64 23 -104 16 l-35
-7 -3 43 c-3 36 -7 44 -27 46 -22 4 -23 2 -16 -46z"/>
</g>
<g id="part-5" class="char-part">
  <path d="M485 230 c14 -6 15 -9 5 -10 -11 0 -8 -6 9 -21 16 -13 27 -17 34 -10
15 15 -20 51 -47 50 -21 0 -21 -1 -1 -9z"/>
</g>
</g>
</svg>