<?xml version="1.0" standalone="no"?>
<!DOCTYPE svg PUBLIC "-//W3C//DTD SVG 20010904//EN"
 "http://www.w3.org/TR/2001/REC-SVG-20010904/DTD/svg10.dtd">
<svg version="1.0" xmlns="http://www.w3.org/2000/svg"
 width="96.000000pt" height="68.000000pt" viewBox="0 0 96.000000 68.000000"
 preserveAspectRatio="xMidYMid meet">
<metadata>
Created by potrace 1.16, written by Peter Selinger 2001-2019
Combined from part_0.svg through part_5.svg with named groups
</metadata>
<g transform="translate(0.000000,68.000000) scale(0.100000,-0.100000)" fill="#000000" stroke="none">
<g id="part-0" class="char-part">
  <path d="M580 569 c-19 -4 -80 -12 -135 -15 -55 -4 -95 -9 -88 -11 6 -2 19
-26 28 -52 15 -47 16 -48 58 -47 36 1 42 -2 45 -20 3 -22 -16 -32 -68 -35 -14
-1 -5 -5 20 -8 39 -5 45 -9 45 -31 0 -24 -4 -25 -78 -34 -117 -14 -97 -30 29
-23 66 4 103 3 99 -3 -8 -13 -161 -114 -220 -144 -38 -20 -43 -25 -20 -20 37
8 133 52 140 65 4 5 11 9 17 9 7 0 9 -22 6 -67 -3 -38 -4 -74 -1 -80 6 -17 33
-17 33 0 0 10 18 14 61 16 52 2 64 -1 76 -18 8 -12 20 -21 28 -21 25 0 35 36
33 125 -2 79 -4 88 -24 95 -12 5 -41 4 -64 -1 -77 -17 -88 -8 -36 29 44 30 55
33 151 39 58 3 105 10 105 14 0 14 -45 23 -110 20 l-64 -2 34 29 c29 26 32 32
21 46 -19 22 -38 20 -52 -6 -23 -46 -72 -88 -101 -88 -28 0 -35 13 -19 38 4 8
27 16 50 19 55 7 52 23 -4 23 -41 0 -45 2 -45 25 0 26 6 28 118 29 28 1 37 8
62 48 29 46 29 48 11 58 -23 12 -91 12 -141 -1z m90 -21 c-1 -43 -13 -58 -46
-58 -33 0 -45 12 -24 25 6 3 10 15 10 26 0 14 7 19 30 19 17 0 30 -5 30 -12z
m-102 -30 c-2 -25 -9 -33 -29 -39 -24 -6 -28 -3 -33 23 -8 39 -1 48 35 48 28
0 30 -2 27 -32z m-90 -7 c12 -35 8 -41 -29 -41 -21 0 -29 7 -38 31 -6 18 -11
34 -11 35 0 2 15 4 34 4 29 0 36 -5 44 -29z m162 -311 c0 -28 -2 -30 -39 -30
-21 0 -53 -3 -71 -6 -30 -7 -31 -6 -28 22 3 31 25 40 101 43 35 1 37 -1 37
-29z m-2 -95 c-2 -1 -33 -6 -70 -10 -67 -7 -68 -6 -68 18 0 23 5 25 68 33 66
9 67 9 70 -14 2 -13 2 -25 0 -27z"/>
  <path d="M230 478 c-14 -6 -45 -11 -70 -12 -40 -1 -44 -4 -40 -21 5 -20 4
-156 -1 -220 -2 -24 3 -41 15 -53 16 -16 18 -16 27 1 14 25 75 23 91 -3 15
-24 31 -25 48 -5 14 17 18 291 4 304 -17 16 -49 20 -74 9z m28 -81 c3 -44 2
-47 -22 -47 -13 0 -31 -3 -40 -6 -13 -5 -16 2 -16 44 0 44 3 51 23 55 45 9 52
4 55 -46z m2 -127 l0 -50 -46 0 c-38 0 -45 3 -40 16 3 9 6 28 6 44 0 29 11 36
58 39 20 1 22 -3 22 -49z"/>
</g>
<g id="part-1" class="char-part">
  <path d="M230 470 c-14 -4 -43 -8 -65 -9 l-40 -1 0 -135 c1 -94 5 -139 13
-147 9 -9 15 -10 20 -2 4 6 24 14 44 17 31 5 40 2 48 -14 13 -24 47 -25 54 -1
3 9 4 77 2 150 -2 155 -7 164 -76 142z m40 -70 c0 -33 -4 -50 -12 -50 -7 0
-30 -3 -50 -6 l-38 -7 0 51 c0 55 4 59 68 61 32 1 32 1 32 -49z m0 -130 c0
-48 -1 -50 -27 -50 -16 0 -38 -3 -50 -6 -22 -6 -23 -4 -23 50 l0 56 50 0 50 0
0 -50z"/>
</g>
<g id="part-2" class="char-part">
  <path d="M570 569 c-25 -5 -86 -10 -137 -12 -91 -2 -91 -2 -73 -22 10 -11 21
-35 25 -52 3 -18 10 -35 13 -37 4 -2 59 2 122 10 63 7 125 11 136 8 17 -4 27
4 52 45 30 48 31 51 12 61 -22 12 -87 11 -150 -1z m100 -26 c0 -38 -18 -48
-112 -60 -136 -17 -134 -18 -147 19 -6 17 -10 32 -9 33 3 2 193 21 241 23 20
2 27 -3 27 -15z"/>
</g>
<g id="part-3" class="char-part">
  <path d="M570 520 c0 -34 14 -39 30 -11 15 29 12 41 -10 41 -16 0 -20 -7 -20
-30z"/>
</g>
<g id="part-4" class="char-part">
  <path d="M567 244 c-93 -23 -104 -34 -109 -112 -3 -37 -3 -73 0 -79 6 -18 32
-16 32 2 0 12 14 15 64 15 56 0 66 -3 71 -20 8 -25 41 -26 54 -2 5 9 8 56 8
104 -2 80 -4 88 -25 98 -26 12 -20 12 -95 -6z m73 -44 c0 -28 -2 -30 -39 -30
-21 0 -53 -3 -71 -6 -30 -7 -31 -5 -28 22 3 32 25 41 96 43 40 1 42 0 42 -29z
m0 -73 l0 -33 -70 -2 c-68 -2 -70 -1 -70 22 0 22 6 25 63 34 34 5 65 10 70 11
4 0 7 -14 7 -32z"/>
</g>
</g>
</svg>