<?xml version="1.0" standalone="no"?>
<!DOCTYPE svg PUBLIC "-//W3C//DTD SVG 20010904//EN"
 "http://www.w3.org/TR/2001/REC-SVG-20010904/DTD/svg10.dtd">
<svg version="1.0" xmlns="http://www.w3.org/2000/svg"
 width="96.000000pt" height="68.000000pt" viewBox="0 0 96.000000 68.000000"
 preserveAspectRatio="xMidYMid meet">
<metadata>
Created by potrace 1.16, written by Peter Selinger 2001-2019
Combined from part_0.svg through part_5.svg with named groups
</metadata>
<g transform="translate(0.000000,68.000000) scale(0.100000,-0.100000)" fill="#000000" stroke="none">
<g id="part-0" class="char-part">
  <path d="M308 571 l4 -50 -48 -3 c-67 -4 -72 -28 -5 -28 l51 0 0 -59 0 -59
-62 -51 c-35 -28 -79 -59 -98 -68 -26 -13 -30 -18 -17 -21 18 -4 117 48 137
74 7 8 25 23 40 34 l26 19 50 -40 c52 -41 74 -48 74 -25 0 23 -27 44 -73 58
-47 13 -61 27 -46 44 5 6 12 32 15 57 6 44 8 46 45 52 58 10 45 35 -18 35 -24
0 -25 3 -20 34 6 36 -4 46 -42 46 -16 0 -17 -7 -13 -49z"/>
  <path d="M580 543 c-14 -36 -35 -80 -47 -96 -29 -39 -21 -48 15 -15 22 21 40
26 103 31 52 5 79 3 87 -5 16 -16 15 -222 -1 -268 -11 -31 -16 -35 -45 -32
-40 3 -40 -6 -3 -42 61 -58 91 -4 102 181 4 73 10 140 13 150 4 13 -2 24 -23
36 -27 16 -34 16 -93 2 -80 -19 -98 -19 -98 0 0 8 3 15 8 15 4 0 19 20 32 45
22 39 23 47 10 55 -27 17 -35 10 -60 -57z"/>
  <path d="M391 438 c-19 -47 -20 -50 -3 -35 23 21 48 22 56 2 7 -19 36 -20 36
-1 0 8 -9 18 -21 21 -16 5 -19 12 -15 30 5 20 -8 35 -28 35 -2 0 -13 -23 -25
-52z"/>
  <path d="M209 453 c-5 -15 -27 -45 -47 -67 -36 -38 -37 -38 -7 -22 17 9 37 21
46 28 13 9 22 7 45 -11 20 -16 30 -19 33 -10 4 12 -18 33 -43 42 -6 3 -1 14
13 26 27 23 26 25 -6 35 -19 6 -25 2 -34 -21z"/>
  <path d="M555 353 l0 -58 -37 -3 c-51 -4 -49 -22 2 -22 l40 0 0 -70 c0 -56 3
-70 15 -70 15 0 20 36 15 118 -1 26 2 32 19 33 12 1 26 3 31 4 6 1 19 3 30 4
11 0 20 6 20 12 0 8 -15 10 -45 7 l-45 -6 0 54 c0 50 -2 54 -23 54 -21 0 -22
-4 -22 -57z"/>
  <path d="M641 365 c-23 -40 -23 -41 23 -18 29 13 33 19 25 35 -14 26 -24 23
-48 -17z"/>
  <path d="M500 340 c12 -23 40 -27 40 -6 0 8 -7 17 -16 20 -28 11 -35 7 -24
-14z"/>
  <path d="M277 274 c-16 -19 -48 -49 -70 -66 -37 -27 -39 -30 -15 -24 26 6 108
-19 108 -33 -1 -8 -41 -37 -109 -78 -30 -18 -48 -33 -40 -33 22 0 130 55 157
81 l23 21 57 -23 c31 -12 62 -26 67 -30 6 -3 42 -19 80 -34 39 -15 74 -31 80
-36 15 -14 75 -10 154 11 41 11 76 22 78 24 2 2 -40 7 -94 11 -54 4 -120 11
-148 16 -70 13 -245 69 -245 79 0 4 18 26 41 48 40 40 40 41 18 52 -13 7 -39
10 -63 6 -35 -5 -39 -4 -24 7 13 11 15 16 6 25 -19 19 -31 14 -61 -24z m73
-64 c-29 -40 -31 -41 -74 -21 l-39 17 25 16 c24 16 84 28 101 20 4 -2 -2 -16
-13 -32z"/>
  <path d="M490 241 c0 -5 -12 -23 -26 -40 -33 -40 -11 -41 36 -3 20 17 30 33
26 40 -9 14 -36 16 -36 3z"/>
  <path d="M645 225 c33 -27 55 -32 55 -12 0 15 -41 37 -68 37 -13 0 -9 -7 13
-25z"/>
</g>
<g id="part-1" class="char-part">
  <path d="M310 572 l0 -50 -45 -7 c-28 -4 -43 -10 -39 -17 4 -6 23 -8 44 -5
l38 5 6 -49 c10 -72 36 -60 36 17 0 29 4 35 28 40 54 12 58 14 42 24 -8 5 -25
7 -37 3 -21 -5 -23 -2 -23 36 0 23 -4 41 -9 41 -5 0 -16 3 -25 6 -13 5 -16 -2
-16 -44z"/>
</g>
<g id="part-2" class="char-part">
  <path d="M285 291 c-6 -19 -49 -62 -95 -94 -47 -33 -12 -26 45 9 46 27 68 34
99 32 l40 -3 -56 -60 c-31 -33 -84 -77 -119 -99 -44 -26 -55 -36 -35 -32 60
14 120 52 197 124 67 62 77 77 67 89 -9 12 -25 14 -63 10 -46 -6 -48 -5 -30 9
17 13 18 16 5 24 -24 16 -48 11 -55 -9z"/>
</g>
<g id="part-3" class="char-part">
  <path d="M584 554 c-9 -30 -29 -72 -44 -92 -51 -72 -51 -79 2 -33 28 24 44 29
111 34 68 5 78 3 87 -13 14 -27 11 -218 -4 -260 -12 -33 -16 -35 -52 -32 l-39
3 37 -37 c42 -42 59 -41 84 8 13 24 20 70 25 168 4 74 10 142 14 151 4 12 -3
21 -29 33 -32 15 -39 15 -105 -1 -39 -9 -73 -14 -76 -11 -3 3 8 27 24 54 35
54 38 69 15 78 -28 11 -32 7 -50 -50z"/>
</g>
<g id="part-4" class="char-part">
  <path d="M559 359 c2 -40 6 -49 20 -47 12 2 17 16 19 51 3 43 1 47 -20 47 -21
0 -23 -3 -19 -51z"/>
  <path d="M643 365 c-25 -40 -21 -43 25 -15 28 17 32 23 22 35 -17 21 -22 19
-47 -20z"/>
  <path d="M500 341 c13 -26 43 -28 38 -3 -2 9 -14 18 -26 20 -21 3 -22 1 -12
-17z"/>
</g>
<g id="part-5" class="char-part">
  <path d="M553 293 c-10 -3 -10 -8 1 -19 8 -8 13 -28 11 -49 -3 -25 0 -35 11
-35 10 0 13 11 11 41 -2 27 1 43 10 46 7 3 10 9 7 14 -6 10 -31 11 -51 2z m34
-9 c-3 -3 -12 -4 -19 -1 -8 3 -5 6 6 6 11 1 17 -2 13 -5z"/>
  <path d="M638 293 c6 -2 18 -2 25 0 6 3 1 5 -13 5 -14 0 -19 -2 -12 -5z"/>
  <path d="M645 240 c3 -6 14 -10 23 -10 13 0 14 -2 4 -9 -11 -7 -10 -9 3 -15
12 -4 16 -1 13 10 -2 9 -13 21 -26 25 -15 6 -21 5 -17 -1z"/>
  <path d="M489 223 c-8 -10 -21 -27 -29 -37 -15 -19 -15 -19 15 0 31 19 45 33
45 47 0 13 -16 7 -31 -10z"/>
  <path d="M568 174 c-3 -3 -3 -14 -1 -25 5 -16 8 -18 14 -7 16 25 6 51 -13 32z"/>
</g>
</g>
</svg>