<?xml version="1.0" standalone="no"?>
<!DOCTYPE svg PUBLIC "-//W3C//DTD SVG 20010904//EN"
 "http://www.w3.org/TR/2001/REC-SVG-20010904/DTD/svg10.dtd">
<svg version="1.0" xmlns="http://www.w3.org/2000/svg"
 width="96.000000pt" height="68.000000pt" viewBox="0 0 96.000000 68.000000"
 preserveAspectRatio="xMidYMid meet">
<metadata>
Created by potrace 1.16, written by Peter Selinger 2001-2019
Combined from part_0.svg through part_5.svg with named groups
</metadata>
<g transform="translate(0.000000,68.000000) scale(0.100000,-0.100000)" fill="#000000" stroke="none">
<g id="part-0" class="char-part">
  <path d="M317 561 c-20 -58 -84 -146 -157 -216 -29 -27 -47 -51 -42 -53 15 -5
66 23 107 59 19 17 39 27 46 24 12 -8 4 -160 -12 -212 -8 -24 -6 -39 6 -62 18
-35 30 -39 43 -14 15 28 26 323 13 323 -21 0 -11 23 39 90 28 37 50 70 50 73
0 14 -33 37 -53 37 -18 0 -26 -11 -40 -49z"/>
  <path d="M545 593 c15 -36 18 -150 5 -158 -7 -4 -50 -8 -96 -9 -75 0 -82 -2
-69 -16 7 -8 19 -38 26 -65 22 -94 24 -96 58 -79 17 9 43 14 58 12 l28 -3 3
-127 c1 -71 6 -128 11 -128 21 0 29 33 34 139 4 78 10 117 19 122 7 5 41 9 74
9 59 0 62 1 67 28 3 15 19 43 36 62 17 19 31 38 31 42 0 4 -14 15 -30 23 -25
13 -45 14 -110 7 l-80 -8 0 77 c0 81 -5 89 -52 89 -15 0 -18 -4 -13 -17z m179
-171 c2 -4 0 -28 -6 -54 -9 -40 -15 -47 -41 -52 -64 -13 -67 -11 -67 48 0 49
2 55 23 59 39 8 86 7 91 -1z m-164 -67 l0 -55 -49 0 -49 0 -11 44 c-6 25 -11
47 -11 50 0 5 42 11 93 14 26 2 27 1 27 -53z"/>
</g>
<g id="part-1" class="char-part">
  <path d="M337 603 c-4 -3 -7 -14 -7 -23 0 -31 -75 -140 -149 -215 -41 -41 -69
-75 -62 -75 15 0 114 64 131 85 28 33 33 15 26 -87 -3 -57 -9 -119 -12 -138
-6 -42 17 -83 36 -63 19 18 31 292 14 320 -12 19 -9 27 36 87 28 36 50 72 50
81 0 8 -12 20 -26 25 -30 12 -29 12 -37 3z"/>
</g>
<g id="part-2" class="char-part">
  <path d="M545 588 c4 -13 9 -51 12 -84 6 -74 2 -76 -111 -76 l-72 0 23 -46
c13 -25 23 -53 23 -63 0 -10 5 -30 10 -44 8 -22 13 -25 24 -16 8 7 34 13 58
14 l43 2 3 -120 c3 -134 6 -155 24 -137 7 7 15 63 19 131 3 65 10 124 13 130
4 6 37 11 77 11 61 0 69 2 69 19 0 11 16 40 35 65 19 26 35 48 35 51 0 2 -13
11 -29 20 -22 11 -48 13 -110 8 l-81 -6 0 75 c0 80 -5 88 -52 88 -17 0 -19 -4
-13 -22z m172 -166 c9 -6 9 -18 1 -52 -6 -25 -11 -46 -12 -47 -1 0 -22 -4 -48
-8 l-48 -7 0 55 c0 53 1 56 28 60 47 7 67 7 79 -1z m-159 -64 l-3 -53 -47 -3
c-45 -3 -46 -2 -53 30 -3 18 -9 41 -11 50 -5 17 13 22 89 26 28 2 28 1 25 -50z"/>
</g>
</g>
</svg>