<?xml version="1.0" standalone="no"?>
<!DOCTYPE svg PUBLIC "-//W3C//DTD SVG 20010904//EN"
 "http://www.w3.org/TR/2001/REC-SVG-20010904/DTD/svg10.dtd">
<svg version="1.0" xmlns="http://www.w3.org/2000/svg"
 width="96.000000pt" height="68.000000pt" viewBox="0 0 96.000000 68.000000"
 preserveAspectRatio="xMidYMid meet">
<metadata>
Created by potrace 1.16, written by Peter Selinger 2001-2019
Combined from part_0.svg through part_5.svg with named groups
</metadata>
<g transform="translate(0.000000,68.000000) scale(0.100000,-0.100000)" fill="#000000" stroke="none">
<g id="part-0" class="char-part">
  <path d="M610 534 c-157 -25 -155 -25 -139 -35 8 -5 38 -6 67 -3 49 6 52 5 52
-16 0 -34 -28 -86 -67 -123 -29 -29 -32 -35 -19 -46 11 -9 24 -9 63 3 26 8 72
17 100 20 50 5 53 4 59 -20 9 -33 -3 -99 -26 -151 -22 -50 -56 -64 -95 -39
-31 21 -31 15 1 -40 32 -55 57 -57 106 -10 28 27 39 50 53 108 10 40 24 87 32
105 18 45 17 49 -23 68 -32 15 -46 16 -111 6 -41 -6 -79 -9 -84 -5 -5 3 11 34
36 69 40 55 43 64 28 70 -17 7 -16 8 2 15 11 5 48 9 82 9 72 1 102 9 81 22
-18 12 -97 9 -198 -7z"/>
  <path d="M308 510 c-14 -4 -54 -11 -88 -15 -73 -9 -76 -28 -4 -35 l49 -5 7
-55 c13 -117 15 -113 -52 -132 -32 -10 -66 -18 -75 -18 -31 0 -3 -39 38 -54
19 -6 261 106 273 126 11 17 -3 18 -52 3 -77 -23 -76 -25 -73 64 l3 80 48 6
c55 8 68 19 39 34 -23 13 -74 13 -113 1z"/>
</g>
<g id="part-1" class="char-part">
  <path d="M320 504 c-36 -7 -84 -13 -107 -13 -23 -1 -45 -5 -48 -11 -4 -6 11
-10 38 -10 64 0 77 -19 77 -113 l0 -76 -57 -16 c-32 -9 -64 -18 -71 -20 -22
-8 -8 -29 24 -38 26 -8 49 0 159 54 130 64 149 83 54 55 -29 -9 -54 -16 -55
-16 -1 0 -4 38 -6 85 l-3 85 35 6 c55 9 71 15 65 24 -9 15 -41 16 -105 4z"/>
</g>
<g id="part-2" class="char-part">
  <path d="M581 530 c-62 -10 -115 -21 -118 -24 -16 -16 39 -17 132 -2 57 9 124
16 149 16 56 0 83 9 64 21 -20 13 -101 9 -227 -11z"/>
</g>
<g id="part-3" class="char-part">
  <path d="M603 503 c-7 -2 -13 -13 -13 -24 0 -28 -33 -90 -64 -118 -50 -47 -30
-68 46 -47 29 8 66 16 82 18 16 2 32 9 34 17 4 11 -7 13 -57 7 -33 -4 -61 -4
-61 -1 0 4 21 34 46 68 44 57 45 61 28 74 -19 14 -22 14 -41 6z"/>
</g>
<g id="part-4" class="char-part">
  <path d="M697 363 c-12 -12 -7 -21 14 -26 20 -5 21 -11 17 -64 -5 -74 -44
-157 -75 -161 -12 -2 -36 4 -53 13 l-31 16 33 -50 c36 -55 46 -59 86 -35 42
25 58 53 86 154 15 52 30 103 33 112 9 28 -87 65 -110 41z"/>
</g>
</g>
</svg>