<?xml version="1.0" standalone="no"?>
<!DOCTYPE svg PUBLIC "-//W3C//DTD SVG 20010904//EN"
 "http://www.w3.org/TR/2001/REC-SVG-20010904/DTD/svg10.dtd">
<svg version="1.0" xmlns="http://www.w3.org/2000/svg"
 width="96.000000pt" height="68.000000pt" viewBox="0 0 96.000000 68.000000"
 preserveAspectRatio="xMidYMid meet">
<metadata>
Created by potrace 1.16, written by Peter Selinger 2001-2019
Combined from part_0.svg through part_5.svg with named groups
</metadata>
<g transform="translate(0.000000,68.000000) scale(0.100000,-0.100000)" fill="#000000" stroke="none">
<g id="part-0" class="char-part">
  <path d="M587 599 c-3 -22 -8 -43 -11 -46 -3 -3 -26 -8 -51 -10 -37 -5 -43 -8
-34 -19 6 -8 25 -14 41 -14 25 0 27 -2 18 -19 -21 -40 0 -43 33 -5 18 21 33
26 87 31 36 2 72 7 80 10 26 8 -19 33 -61 33 -21 0 -41 5 -44 10 -3 6 -1 10 4
10 19 0 12 39 -8 50 -36 19 -48 12 -54 -31z"/>
  <path d="M303 604 c-2 -7 0 -21 6 -33 17 -30 15 -31 -49 -31 -67 0 -80 -17
-36 -45 20 -13 32 -14 63 -6 50 14 48 15 61 -14 16 -34 32 -32 32 4 0 25 5 30
35 35 45 9 45 26 0 26 -31 0 -35 3 -40 34 -6 28 -12 35 -37 38 -18 3 -32 0
-35 -8z"/>
  <path d="M477 435 c-55 -15 -113 -24 -172 -25 -30 0 -36 -3 -25 -10 8 -5 27
-10 43 -10 21 0 27 -5 27 -23 0 -57 -83 -172 -175 -242 -45 -35 -39 -42 17
-17 46 20 118 83 137 120 6 12 18 22 27 22 15 0 114 -86 114 -99 0 -13 -65
-45 -135 -67 -50 -16 -62 -23 -41 -23 16 -1 69 13 118 30 98 33 91 34 156 -25
32 -30 36 -31 128 -30 84 0 115 6 103 18 -2 3 -40 14 -84 26 -92 25 -175 59
-175 71 0 5 23 39 52 75 41 52 48 68 37 75 -13 8 -50 13 -76 10 -20 -3 -16 8
21 59 19 27 31 52 27 59 -12 18 -71 21 -124 6z m53 -47 c0 -13 -9 -37 -19 -54
-16 -27 -28 -33 -71 -39 -28 -4 -54 -4 -57 -1 -4 3 1 22 10 41 9 19 14 41 11
49 -6 15 17 21 94 24 27 2 32 -1 32 -20z m20 -127 c0 -23 -37 -81 -52 -81 -7
0 -35 20 -63 44 l-50 45 60 3 c33 2 70 4 83 4 14 1 22 -4 22 -15z"/>
</g>
<g id="part-1" class="char-part">
  <path d="M590 601 c0 -51 -9 -61 -52 -61 -46 0 -49 -23 -4 -28 24 -3 27 -7 22
-30 l-6 -27 30 33 c27 29 35 32 87 32 32 0 65 4 73 10 22 14 -37 33 -77 25
-36 -6 -39 -4 -21 24 16 26 3 51 -27 51 -21 0 -25 -5 -25 -29z"/>
  <path d="M308 604 c-4 -4 -1 -19 7 -35 8 -15 15 -30 15 -34 0 -3 -30 -5 -67
-5 l-68 -1 25 -20 c20 -17 33 -20 72 -15 46 6 49 5 58 -20 12 -30 26 -23 32
16 2 19 10 26 31 28 39 5 33 22 -7 22 -32 0 -35 3 -38 33 -2 26 -8 33 -28 35
-14 2 -29 0 -32 -4z"/>
</g>
<g id="part-2" class="char-part">
  <path d="M471 435 c-30 -8 -87 -17 -128 -20 -45 -5 -70 -11 -67 -17 6 -10 79
-7 202 8 60 7 64 0 35 -61 -18 -37 -14 -52 10 -38 15 8 90 114 85 118 -33 27
-60 28 -137 10z"/>
</g>
<g id="part-3" class="char-part">
  <path d="M350 370 c0 -57 -79 -167 -173 -241 -33 -27 -43 -39 -30 -39 31 0
119 57 156 100 43 51 111 176 102 190 -3 6 -17 10 -31 10 -17 0 -24 -5 -24
-20z"/>
</g>
<g id="part-4" class="char-part">
  <path d="M450 298 c-85 -12 -113 -33 -77 -57 28 -18 97 -83 97 -91 0 -12 -68
-45 -140 -67 -72 -23 -73 -23 -25 -18 56 6 172 42 180 56 4 5 34 -14 68 -42
l61 -52 82 6 c124 7 132 19 29 45 -47 11 -111 32 -141 46 l-55 25 56 71 c31
39 54 74 51 77 -11 11 -110 12 -186 1z m100 -37 c0 -21 -41 -85 -53 -84 -5 1
-32 21 -60 45 l-52 43 60 6 c107 10 105 10 105 -10z"/>
</g>
</g>
</svg>