<?xml version="1.0" standalone="no"?>
<!DOCTYPE svg PUBLIC "-//W3C//DTD SVG 20010904//EN"
 "http://www.w3.org/TR/2001/REC-SVG-20010904/DTD/svg10.dtd">
<svg version="1.0" xmlns="http://www.w3.org/2000/svg"
 width="96.000000pt" height="68.000000pt" viewBox="0 0 96.000000 68.000000"
 preserveAspectRatio="xMidYMid meet">
<metadata>
Created by potrace 1.16, written by Peter Selinger 2001-2019
Combined from part_0.svg through part_5.svg with named groups
</metadata>
<g transform="translate(0.000000,68.000000) scale(0.100000,-0.100000)" fill="#000000" stroke="none">
<g id="part-0" class="char-part">
  <path d="M490 559 c-41 -21 -71 -39 -65 -39 5 0 54 10 107 22 93 21 119 38 82
52 -27 10 -47 5 -124 -35z"/>
  <path d="M611 490 c-15 -34 -28 -51 -44 -54 -59 -12 -188 -25 -200 -20 -13 5
-47 -53 -47 -82 0 -28 34 -10 44 23 10 37 -3 34 219 59 81 10 150 14 154 11 3
-4 0 -13 -7 -22 -20 -24 -8 -26 43 -7 61 24 64 28 28 46 -34 18 -86 20 -146 6
-22 -5 -41 -7 -43 -5 -2 2 12 19 32 39 35 33 36 36 17 45 -28 15 -26 16 -50
-39z"/>
  <path d="M496 475 c19 -30 44 -33 44 -6 0 19 -18 31 -46 31 -12 0 -12 -4 2
-25z"/>
  <path d="M390 485 c0 -14 21 -45 30 -45 18 0 10 29 -10 40 -11 6 -20 8 -20 5z"/>
  <path d="M220 469 c-14 -6 -45 -9 -70 -8 -43 3 -45 2 -40 -22 7 -37 6 -179 -2
-221 -5 -29 -2 -42 13 -60 18 -21 20 -22 29 -5 16 25 76 23 90 -3 12 -23 33
-26 48 -8 5 7 12 81 14 165 3 151 3 152 -20 163 -27 12 -29 12 -62 -1z m28
-81 c3 -41 0 -48 -15 -48 -10 0 -28 -3 -40 -6 -21 -6 -23 -3 -23 38 0 51 15
70 50 66 22 -3 25 -8 28 -50z m2 -131 l0 -53 -45 -3 c-45 -2 -45 -2 -45 31 0
65 9 78 51 78 l39 0 0 -53z"/>
  <path d="M640 387 c0 -3 16 -15 36 -27 26 -17 38 -20 47 -11 7 7 7 14 2 20
-11 11 -85 26 -85 18z"/>
  <path d="M541 356 c21 -22 49 -25 49 -5 0 11 -34 29 -55 29 -14 0 -13 -4 6
-24z"/>
  <path d="M460 353 c0 -21 61 -72 94 -78 49 -10 147 2 165 20 13 12 11 16 -15
26 -16 6 -39 15 -52 20 -20 8 -21 7 -13 -10 14 -25 5 -31 -46 -31 -48 0 -75
11 -110 43 -13 11 -23 16 -23 10z"/>
  <path d="M390 325 c-7 -13 -9 -32 -6 -42 7 -17 8 -17 22 1 16 22 19 52 6 60
-5 3 -15 -5 -22 -19z"/>
  <path d="M465 241 c-6 -39 -67 -114 -112 -139 -10 -6 -15 -14 -11 -17 8 -8 79
33 91 52 4 7 13 13 18 13 14 0 69 -39 69 -49 0 -9 -106 -55 -160 -70 l-35 -9
30 -1 c34 -1 103 18 156 44 35 17 36 17 84 -14 40 -25 59 -31 104 -31 64 0
131 10 131 19 0 3 -37 13 -83 22 -45 9 -99 24 -121 33 l-38 16 47 56 c38 44
45 58 34 65 -18 11 -53 11 -102 0 -35 -8 -39 -7 -47 14 -7 18 -28 35 -45 35
-2 0 -6 -18 -10 -39z m145 -48 c0 -24 -40 -63 -64 -63 -30 1 -70 34 -63 53 6
17 30 23 90 26 29 1 37 -3 37 -16z"/>
</g>
<g id="part-1" class="char-part">
  <path d="M200 459 c-14 -6 -38 -8 -55 -5 l-30 6 1 -143 c1 -78 2 -148 3 -154
2 -18 28 -16 35 2 8 23 68 19 84 -5 15 -25 38 -26 51 -2 10 19 7 283 -3 301
-9 13 -52 13 -86 0z m54 -64 c4 -25 4 -49 1 -55 -3 -5 -26 -10 -51 -10 l-44 0
0 48 c0 27 3 52 7 55 3 4 23 7 44 7 36 0 37 -1 43 -45z m6 -102 c0 -10 -3 -35
-6 -55 -6 -37 -8 -38 -50 -38 l-44 0 0 55 0 55 50 0 c41 0 50 -3 50 -17z"/>
</g>
<g id="part-2" class="char-part">
  <path d="M556 591 c-3 -4 -42 -23 -86 -41 -44 -19 -79 -35 -77 -36 3 -3 211
43 237 52 12 5 12 8 -4 20 -22 16 -62 19 -70 5z"/>
  <path d="M610 493 c-11 -25 -18 -48 -15 -51 3 -3 23 13 44 35 30 30 37 43 28
52 -21 21 -36 11 -57 -36z"/>
  <path d="M490 479 c14 -25 38 -35 52 -21 16 16 -8 42 -39 42 -21 0 -22 -2 -13
-21z"/>
  <path d="M396 465 c16 -24 44 -34 44 -17 0 13 -34 42 -49 42 -8 0 -6 -8 5 -25z"/>
</g>
<g id="part-3" class="char-part">
  <path d="M580 439 c-58 -10 -134 -20 -169 -22 -61 -4 -64 -5 -77 -37 -8 -18
-14 -39 -14 -46 0 -35 49 3 50 39 0 9 6 17 13 17 6 0 82 9 167 20 206 27 194
27 174 -12 -13 -24 -13 -30 -3 -22 8 6 32 17 54 24 57 18 62 26 27 44 -38 20
-87 19 -222 -5z"/>
</g>
<g id="part-4" class="char-part">
  <path d="M550 227 l-45 -12 53 -3 c58 -3 64 -14 31 -56 -25 -31 -41 -32 -85
-6 -42 26 -54 9 -14 -20 17 -12 28 -26 24 -31 -6 -11 -57 -34 -134 -61 l-55
-19 53 5 c29 3 79 17 111 31 l58 26 48 -30 c40 -25 60 -31 104 -31 64 0 131
10 131 19 0 3 -41 14 -91 24 -50 9 -104 24 -121 33 -33 17 -35 14 37 92 25 28
27 34 15 42 -19 12 -63 11 -120 -3z"/>
</g>
</g>
</svg>