<?xml version="1.0" standalone="no"?>
<!DOCTYPE svg PUBLIC "-//W3C//DTD SVG 20010904//EN"
 "http://www.w3.org/TR/2001/REC-SVG-20010904/DTD/svg10.dtd">
<svg version="1.0" xmlns="http://www.w3.org/2000/svg"
 width="96.000000pt" height="68.000000pt" viewBox="0 0 96.000000 68.000000"
 preserveAspectRatio="xMidYMid meet">
<metadata>
Created by potrace 1.16, written by Peter Selinger 2001-2019
Combined from part_0.svg through part_5.svg with named groups
</metadata>
<g transform="translate(0.000000,68.000000) scale(0.100000,-0.100000)" fill="#000000" stroke="none">
<g id="part-0" class="char-part">
  <path d="M248 568 c-3 -42 -4 -43 -41 -46 -43 -4 -40 -22 4 -22 31 0 37 -16
19 -51 -8 -15 -22 -19 -60 -19 -31 0 -50 -4 -50 -11 0 -9 20 -10 68 -5 37 4
122 9 190 13 67 3 122 10 122 15 0 4 -1 8 -2 8 -2 1 -21 3 -43 6 -22 4 -41 7
-43 9 -1 1 5 16 15 34 16 28 16 33 3 42 -8 5 -38 7 -67 4 -52 -5 -63 1 -42 22
14 14 -16 43 -46 43 -21 0 -24 -5 -27 -42z m112 -82 c0 -28 -12 -38 -52 -43
-30 -3 -33 3 -18 41 7 20 16 26 40 26 25 0 30 -4 30 -24z"/>
  <path d="M716 440 c-15 -5 -70 -14 -122 -21 -54 -6 -91 -15 -88 -21 3 -5 22
-8 41 -6 42 3 55 -14 47 -62 -10 -62 -11 -63 -40 -41 -27 21 -54 28 -54 13 0
-15 56 -62 64 -55 18 17 -8 -44 -32 -77 -34 -45 -56 -66 -82 -80 -26 -14 -20
-24 9 -15 40 12 116 82 138 126 29 58 54 141 55 179 1 29 3 30 43 30 32 0 44
-4 47 -17 6 -23 -17 -206 -32 -256 -9 -32 -15 -37 -40 -37 -35 0 -36 -6 -11
-39 10 -13 25 -22 37 -19 28 5 62 74 74 153 7 38 18 103 27 144 12 61 12 76 1
86 -19 19 -49 24 -82 15z"/>
  <path d="M277 381 c-72 -11 -105 -19 -98 -26 5 -5 13 -26 18 -45 9 -33 11 -35
46 -32 34 3 37 1 37 -22 0 -25 -2 -26 -64 -26 -60 0 -64 -1 -64 -22 1 -13 -3
-38 -7 -56 l-8 -33 72 7 71 7 0 -49 c0 -27 4 -55 9 -63 17 -26 31 1 31 60 l0
59 77 0 c58 0 74 3 66 11 -7 7 -39 11 -78 10 l-66 -2 3 28 c3 26 6 28 56 31
28 2 52 7 52 13 0 10 -16 12 -66 9 -26 -1 -32 3 -36 24 -5 24 -3 26 33 26 31
0 39 4 39 18 0 11 9 27 21 38 l21 19 -22 17 c-12 10 -25 17 -29 17 -3 -1 -55
-9 -114 -18z m94 -38 c-7 -25 -13 -29 -70 -37 -66 -8 -74 -5 -85 31 -8 24 7
28 111 31 l51 2 -7 -27z m-88 -145 c9 -28 -5 -48 -33 -48 -16 0 -35 -3 -44 -6
-12 -5 -16 0 -16 18 0 13 5 29 12 36 16 16 75 15 81 0z"/>
</g>
<g id="part-1" class="char-part">
  <path d="M253 568 c2 -43 2 -43 -35 -46 -48 -4 -50 -22 -3 -22 33 0 34 -1 28
-31 -5 -27 -3 -31 13 -27 10 2 22 16 27 35 7 25 16 32 41 36 41 6 49 0 42 -34
-3 -17 -1 -29 5 -29 12 0 69 60 69 72 0 19 -55 30 -93 18 -46 -13 -53 -9 -35
19 15 24 6 36 -34 46 -26 7 -27 6 -25 -37z"/>
</g>
<g id="part-2" class="char-part">
  <path d="M280 255 c0 -24 -2 -25 -66 -25 -56 0 -65 -2 -60 -16 3 -8 -1 -31 -8
-49 -8 -19 -11 -37 -6 -40 5 -3 38 -3 74 1 l65 7 3 -59 c2 -44 7 -59 18 -59
11 0 16 15 18 62 l3 63 74 0 c41 0 75 4 75 9 0 15 -42 21 -97 14 -52 -6 -53
-5 -53 20 0 29 16 37 71 37 21 0 39 4 39 9 0 15 -37 23 -70 16 -26 -6 -30 -4
-30 14 0 16 -6 21 -25 21 -20 0 -25 -5 -25 -25z m0 -75 c0 -24 -4 -30 -22 -30
-13 0 -33 -3 -45 -6 -18 -5 -23 -2 -23 14 0 29 27 52 61 52 26 0 29 -3 29 -30z"/>
</g>
<g id="part-3" class="char-part">
  <path d="M685 434 c-38 -7 -96 -16 -128 -19 -36 -4 -55 -10 -51 -17 4 -6 26
-8 58 -4 28 3 79 9 114 12 l62 7 0 -59 c0 -58 -22 -201 -36 -237 -5 -14 -15
-18 -40 -15 l-33 4 19 -31 c42 -67 92 -26 115 97 8 40 21 107 30 148 8 41 16
81 18 89 4 28 -52 39 -128 25z"/>
</g>
<g id="part-4" class="char-part">
  <path d="M600 398 c-1 -2 -3 -29 -5 -61 -7 -86 -38 -149 -107 -212 -32 -30
-53 -55 -46 -55 24 0 105 57 133 94 28 37 89 212 79 227 -4 8 -53 13 -54 7z"/>
</g>
<g id="part-5" class="char-part">
  <path d="M511 297 c8 -7 18 -20 22 -29 7 -21 37 -24 37 -5 0 7 -13 20 -29 30
-33 19 -54 22 -30 4z"/>
</g>
</g>
</svg>