<?xml version="1.0" standalone="no"?>
<!DOCTYPE svg PUBLIC "-//W3C//DTD SVG 20010904//EN"
 "http://www.w3.org/TR/2001/REC-SVG-20010904/DTD/svg10.dtd">
<svg version="1.0" xmlns="http://www.w3.org/2000/svg"
 width="96.000000pt" height="68.000000pt" viewBox="0 0 96.000000 68.000000"
 preserveAspectRatio="xMidYMid meet">
<metadata>
Created by potrace 1.16, written by Peter Selinger 2001-2019
Combined from part_0.svg through part_5.svg with named groups
</metadata>
<g transform="translate(0.000000,68.000000) scale(0.100000,-0.100000)" fill="#000000" stroke="none">
<g id="part-0" class="char-part">
  <path d="M645 565 c-44 -7 -110 -15 -147 -19 -84 -9 -89 -26 -9 -26 60 0 60 0
55 -27 -7 -40 -52 -101 -101 -137 -23 -17 -42 -34 -43 -39 0 -17 84 37 124 80
50 52 93 123 76 123 -6 0 -8 5 -5 10 3 6 34 10 67 10 l61 0 -6 -56 c-8 -76
-29 -107 -68 -99 -35 8 -36 4 -5 -29 47 -52 88 -23 117 83 10 36 21 75 24 87
13 43 -32 56 -140 39z"/>
  <path d="M265 534 c-27 -7 -68 -11 -89 -7 -38 6 -39 5 -32 -18 15 -51 18 -138
7 -227 -10 -94 -4 -142 20 -142 7 0 17 6 23 14 6 7 30 16 54 19 39 5 44 3 54
-19 13 -28 29 -31 51 -6 13 14 16 48 18 189 2 213 -3 223 -106 197z m45 -73
c0 -22 2 -45 5 -53 8 -23 -8 -35 -57 -41 l-48 -7 0 64 c0 34 3 66 7 69 3 4 26
7 50 7 l43 0 0 -39z m8 -155 c2 -16 1 -44 -2 -62 -6 -31 -8 -32 -61 -36 l-55
-3 0 40 c0 81 14 95 90 91 20 -1 26 -7 28 -30z"/>
  <path d="M650 284 c-47 -7 -115 -13 -153 -13 l-67 -1 17 -27 c10 -15 23 -50
28 -77 8 -42 14 -51 30 -49 11 1 72 5 135 9 l115 7 1 33 c0 19 11 48 23 65 13
17 19 34 15 38 -28 23 -63 27 -144 15z m70 -34 c0 -6 -6 -28 -12 -50 l-13 -39
-65 -6 c-36 -4 -72 -8 -80 -11 -8 -2 -20 0 -26 4 -16 10 -38 82 -28 92 17 17
224 26 224 10z"/>
</g>
<g id="part-1" class="char-part">
  <path d="M270 530 c-14 -4 -49 -8 -78 -9 -51 -1 -52 -2 -41 -23 9 -16 10 -67
6 -178 -5 -113 -3 -160 5 -168 17 -17 25 -15 31 8 4 17 14 20 55 20 42 0 52
-3 57 -20 8 -25 40 -26 51 -3 4 10 8 95 9 190 0 170 0 172 -23 182 -26 12 -36
12 -72 1z m48 -92 c2 -53 0 -68 -11 -68 -8 0 -35 -3 -61 -6 l-46 -7 0 67 c0
60 2 68 23 76 12 5 38 8 57 7 l35 -2 3 -67z m2 -158 l0 -70 -29 0 c-16 0 -43
-3 -60 -6 l-32 -7 3 69 3 69 45 6 c25 3 51 7 58 7 8 2 12 -18 12 -68z"/>
</g>
<g id="part-2" class="char-part">
  <path d="M675 570 c-22 -5 -88 -14 -147 -20 -66 -8 -105 -16 -101 -23 3 -6 33
-7 77 -3 39 4 104 9 144 13 l72 6 0 -27 c0 -40 -20 -114 -34 -125 -8 -7 -24
-7 -44 -1 -36 10 -35 3 1 -37 44 -50 90 -20 113 74 8 32 20 70 26 86 9 23 7
31 -7 47 -19 21 -35 23 -100 10z"/>
</g>
<g id="part-3" class="char-part">
  <path d="M547 523 c-2 -5 -7 -24 -11 -43 -7 -36 -32 -68 -104 -132 -51 -46
-44 -48 25 -8 63 36 158 156 141 178 -11 13 -44 16 -51 5z"/>
</g>
<g id="part-4" class="char-part">
  <path d="M655 284 c-44 -7 -112 -13 -152 -13 l-72 -1 18 -32 c10 -18 22 -51
26 -73 8 -44 25 -72 34 -56 4 6 62 13 129 17 82 5 120 10 113 17 -11 11 10 70
36 99 15 17 15 19 -3 33 -29 21 -42 22 -129 9z m61 -46 c-4 -13 -9 -35 -12
-49 -7 -31 -33 -39 -129 -39 l-63 0 -11 44 c-6 25 -11 47 -11 50 0 6 67 12
164 14 66 2 68 1 62 -20z"/>
</g>
</g>
</svg>