<?xml version="1.0" standalone="no"?>
<!DOCTYPE svg PUBLIC "-//W3C//DTD SVG 20010904//EN"
 "http://www.w3.org/TR/2001/REC-SVG-20010904/DTD/svg10.dtd">
<svg version="1.0" xmlns="http://www.w3.org/2000/svg"
 width="96.000000pt" height="68.000000pt" viewBox="0 0 96.000000 68.000000"
 preserveAspectRatio="xMidYMid meet">
<metadata>
Created by potrace 1.16, written by Peter Selinger 2001-2019
Combined from part_0.svg through part_5.svg with named groups
</metadata>
<g transform="translate(0.000000,68.000000) scale(0.100000,-0.100000)" fill="#000000" stroke="none">
<g id="part-0" class="char-part">
  <path d="M550 579 c0 -20 58 -69 74 -63 24 9 19 30 -10 53 -29 22 -64 28 -64
10z"/>
  <path d="M238 563 c-24 -6 -23 -11 7 -56 27 -39 58 -48 69 -21 13 33 -39 85
-76 77z"/>
  <path d="M655 508 c-38 -5 -101 -16 -140 -23 -63 -11 -67 -13 -39 -20 24 -5
36 -17 52 -51 12 -25 22 -47 22 -49 0 -3 -24 -5 -52 -5 l-53 0 0 -134 c0 -74
3 -137 7 -141 20 -21 28 15 28 126 0 131 -3 124 68 132 l42 5 0 -34 c0 -33 -2
-34 -37 -34 -40 0 -35 -16 7 -22 17 -2 26 -10 28 -25 3 -23 -8 -28 -50 -25
-22 2 -22 2 -2 -49 16 -38 19 -40 47 -35 16 3 45 6 64 6 19 0 32 4 29 9 -3 5
3 20 14 34 17 22 18 26 5 37 -9 7 -27 10 -45 7 -33 -7 -41 0 -34 30 4 16 17
23 50 28 54 8 58 25 6 25 -36 0 -39 2 -39 30 l0 31 61 -3 61 -3 3 -115 c4
-152 1 -163 -41 -155 l-32 7 29 -31 c34 -35 61 -40 76 -12 5 11 10 71 10 133
0 62 4 128 10 147 14 49 -7 63 -82 57 -32 -3 -58 -3 -58 0 0 3 10 20 22 37 13
18 22 39 20 47 -2 12 8 17 40 19 43 2 56 7 46 16 -11 11 -75 13 -143 3z m5
-39 c0 -5 -5 -30 -11 -55 -11 -41 -14 -44 -45 -44 -30 0 -34 3 -34 25 0 14 -9
33 -20 42 -30 26 -25 32 33 36 28 2 58 4 65 5 6 1 12 -3 12 -9z m-9 -291 c-8
-22 -55 -42 -78 -33 -19 7 -16 43 5 48 9 3 31 5 49 6 29 1 32 -1 24 -21z"/>
  <path d="M217 451 c-110 -16 -140 -34 -74 -46 29 -5 274 28 285 39 2 3 1 9 -3
15 -8 14 -74 12 -208 -8z"/>
  <path d="M263 367 c-54 -11 -72 -27 -30 -27 48 0 139 23 125 31 -15 10 -24 10
-95 -4z"/>
  <path d="M300 305 c-8 -2 -32 -6 -53 -10 -59 -9 -34 -29 27 -21 73 10 97 17
90 27 -5 9 -33 10 -64 4z"/>
  <path d="M300 225 c-19 -7 -54 -14 -78 -14 l-43 -1 16 -30 c8 -16 15 -35 15
-43 0 -7 6 -21 13 -31 10 -14 18 -15 37 -7 14 5 41 12 61 16 30 4 38 10 42 34
3 16 13 35 21 44 30 30 -30 53 -84 32z m28 -52 c-3 -33 -7 -38 -37 -46 -39
-10 -48 -3 -57 40 -6 30 -4 32 27 36 73 9 70 10 67 -30z"/>
</g>
<g id="part-1" class="char-part">
  <path d="M231 538 c31 -61 79 -80 79 -32 0 19 -8 28 -35 40 -49 20 -58 18 -44
-8z"/>
  <path d="M250 450 c-63 -10 -121 -19 -128 -19 -7 -1 -10 -5 -7 -11 9 -15 95
-11 215 9 92 15 102 19 83 29 -26 14 -17 15 -163 -8z"/>
</g>
<g id="part-2" class="char-part">
  <path d="M285 223 c-27 -7 -65 -12 -82 -10 -36 3 -41 -4 -18 -23 9 -7 20 -32
26 -56 6 -24 14 -44 18 -44 3 1 32 7 63 14 31 8 59 11 62 8 3 -3 6 3 6 14 0
10 9 34 21 53 11 18 17 37 12 41 -17 15 -60 17 -108 3z m43 -50 c-3 -33 -7
-38 -37 -46 -39 -10 -48 -3 -53 38 -3 26 1 30 27 36 63 14 66 12 63 -28z"/>
</g>
<g id="part-3" class="char-part">
  <path d="M550 580 c0 -5 12 -24 28 -40 19 -22 32 -29 45 -25 24 10 21 30 -9
54 -28 22 -64 28 -64 11z"/>
  <path d="M640 506 c-47 -7 -112 -17 -145 -21 -46 -5 -55 -9 -41 -17 21 -12
360 22 347 35 -14 14 -75 15 -161 3z"/>
</g>
<g id="part-4" class="char-part">
  <path d="M656 441 c-3 -22 -9 -46 -12 -55 -12 -30 11 -15 44 30 35 48 35 64
-2 64 -19 0 -25 -7 -30 -39z"/>
  <path d="M510 455 c0 -15 41 -85 50 -85 17 0 11 46 -7 62 -24 20 -43 31 -43
23z"/>
</g>
<g id="part-5" class="char-part">
  <path d="M703 383 c-37 -7 -26 -23 11 -18 20 3 38 0 42 -7 9 -14 7 -265 -2
-279 -3 -6 -16 -8 -27 -5 -19 5 -18 3 5 -21 31 -30 52 -23 44 16 -5 17 -4 21
2 12 16 -23 20 1 20 122 0 65 2 121 6 124 18 18 3 41 -33 51 -21 7 -40 11 -42
11 -2 -1 -14 -4 -26 -6z m84 -240 c-3 -10 -5 -4 -5 12 0 17 2 24 5 18 2 -7 2
-21 0 -30z"/>
  <path d="M638 363 c6 -2 18 -2 25 0 6 3 1 5 -13 5 -14 0 -19 -2 -12 -5z"/>
  <path d="M448 338 c10 -28 9 -175 -2 -205 -4 -14 -3 -23 3 -23 14 0 22 36 24
109 1 35 -2 61 -8 61 -5 0 -4 4 4 9 8 5 10 14 6 21 -4 7 -2 16 6 21 16 9 12
14 -19 23 -20 7 -21 5 -14 -16z"/>
  <path d="M530 349 c0 -5 5 -7 10 -4 6 3 10 8 10 11 0 2 -4 4 -10 4 -5 0 -10
-5 -10 -11z"/>
</g>
</g>
</svg>