<?xml version="1.0" standalone="no"?>
<!DOCTYPE svg PUBLIC "-//W3C//DTD SVG 20010904//EN"
 "http://www.w3.org/TR/2001/REC-SVG-20010904/DTD/svg10.dtd">
<svg version="1.0" xmlns="http://www.w3.org/2000/svg"
 width="96.000000pt" height="68.000000pt" viewBox="0 0 96.000000 68.000000"
 preserveAspectRatio="xMidYMid meet">
<metadata>
Created by potrace 1.16, written by Peter Selinger 2001-2019
Combined from part_0.svg through part_5.svg with named groups
</metadata>
<g transform="translate(0.000000,68.000000) scale(0.100000,-0.100000)" fill="#000000" stroke="none">
<g id="part-0" class="char-part">
  <path d="M266 511 l6 -70 -33 -5 c-19 -3 -46 -7 -62 -9 -31 -3 -31 -4 -21 -30
12 -32 -4 -149 -30 -222 l-25 -70 29 33 c31 37 58 121 68 215 7 60 8 62 37 62
25 0 30 -5 36 -32 4 -23 3 -30 -7 -26 -7 2 -21 0 -31 -6 -16 -9 -15 -10 10
-11 17 0 27 -5 27 -15 0 -8 14 -21 30 -30 30 -15 30 -17 30 -95 0 -75 -1 -80
-21 -80 -20 0 -21 3 -14 74 6 69 5 74 -14 79 -19 5 -21 1 -21 -44 0 -36 -4
-49 -14 -49 -9 0 -16 12 -18 32 -2 17 -9 33 -16 36 -9 3 -11 -3 -7 -21 4 -14
2 -28 -4 -31 -6 -4 -11 -16 -11 -27 0 -20 7 -20 58 -1 10 3 13 -4 10 -29 -3
-33 -5 -34 -50 -37 -27 -2 -48 -7 -48 -12 0 -9 39 -25 52 -22 4 1 50 13 102
27 118 31 137 32 105 5 -13 -10 -19 -19 -14 -20 40 -1 161 127 152 162 -4 13
0 18 14 18 17 0 19 -8 19 -84 0 -96 7 -108 71 -127 47 -15 153 1 178 25 13 13
11 20 -10 61 l-24 45 -6 -35 c-3 -20 -11 -41 -17 -47 -16 -16 -103 -21 -136
-9 -28 11 -29 13 -21 64 4 28 8 67 8 85 0 24 5 32 19 32 10 0 18 -5 18 -11 0
-6 8 -9 18 -7 15 3 18 20 22 138 4 88 2 138 -5 143 -5 4 -41 5 -80 1 -38 -4
-86 -7 -105 -7 l-35 1 1 -132 c1 -167 0 -162 19 -146 25 20 19 -17 -10 -67
-19 -31 -32 -43 -49 -43 -13 0 -38 -3 -55 -6 -29 -6 -31 -4 -31 21 0 25 3 27
30 22 34 -7 37 -4 46 51 6 38 5 42 -14 42 -16 0 -21 -7 -24 -32 -5 -51 -28
-47 -28 5 0 41 2 45 30 51 17 3 30 10 30 16 0 12 -9 13 -77 10 -41 -1 -53 2
-53 13 0 9 14 17 40 21 22 3 40 11 40 17 0 8 -13 9 -40 5 -39 -6 -40 -6 -40
24 0 29 1 30 50 30 39 0 48 -3 44 -14 -5 -12 0 -13 30 -4 20 6 36 14 36 18 0
17 -55 30 -102 24 -45 -6 -50 -5 -46 12 2 10 10 20 18 21 69 9 90 15 90 28 0
17 -36 20 -74 5 -23 -8 -25 -7 -28 23 -2 27 -8 33 -31 35 l-28 3 7 -70z m398
-7 c16 -41 7 -49 -59 -62 -88 -17 -87 -17 -83 25 3 32 7 37 33 40 16 3 32 6
34 9 12 11 69 3 75 -12z m6 -102 c0 -28 -2 -29 -75 -38 l-75 -10 0 27 c0 24 4
27 63 36 34 6 68 11 75 12 7 0 12 -11 12 -27z m0 -82 c0 -26 -3 -30 -29 -30
-15 0 -49 -3 -75 -6 -46 -7 -46 -7 -46 23 0 29 2 29 52 32 29 1 55 4 57 7 2 2
13 4 23 4 13 0 18 -8 18 -30z"/>
</g>
<g id="part-1" class="char-part">
  <path d="M269 576 c-2 -2 -2 -34 -1 -70 3 -57 6 -66 23 -66 13 0 19 7 19 24 0
22 5 25 55 31 30 4 55 11 55 15 0 15 -29 19 -62 9 -47 -13 -51 -12 -44 16 5
18 1 27 -13 35 -22 11 -26 12 -32 6z"/>
</g>
<g id="part-2" class="char-part">
  <path d="M315 119 c-44 -9 -97 -18 -117 -18 -42 -1 -48 -10 -18 -28 16 -11 40
-7 141 22 67 19 124 37 127 40 10 9 -53 2 -133 -16z"/>
</g>
<g id="part-3" class="char-part">
  <path d="M630 539 c-19 -5 -60 -10 -90 -10 l-55 -2 0 -103 c0 -90 2 -104 17
-104 9 0 18 4 20 8 4 13 148 23 148 11 0 -5 9 -9 20 -9 18 0 20 7 20 69 0 38
3 82 6 98 5 24 2 31 -21 41 -14 7 -27 12 -28 11 -1 -1 -18 -5 -37 -10z m34
-35 c16 -41 7 -49 -59 -62 -87 -16 -85 -17 -85 21 0 30 4 35 38 44 58 16 99
15 106 -3z m6 -103 c0 -27 -2 -29 -61 -35 -33 -4 -67 -10 -75 -13 -10 -4 -14
3 -14 25 0 28 2 30 63 39 34 6 68 11 75 12 7 0 12 -11 12 -28z"/>
</g>
<g id="part-4" class="char-part">
  <path d="M670 308 c0 -22 -5 -23 -80 -25 -74 -3 -80 -1 -80 17 0 11 -7 20 -16
20 -11 0 -14 -8 -12 -32 2 -26 7 -32 23 -30 93 12 163 13 169 3 17 -26 36 -11
36 29 0 33 -3 40 -20 40 -14 0 -20 -7 -20 -22z"/>
</g>
<g id="part-5" class="char-part">
  <path d="M597 253 c-8 -8 -9 -43 -1 -43 3 0 14 5 25 11 16 8 18 13 8 25 -13
15 -22 18 -32 7z"/>
  <path d="M602 193 c-14 -37 -8 -104 12 -118 10 -8 23 -12 27 -9 5 3 9 2 9 -3
0 -4 29 -8 65 -9 35 -1 62 2 60 6 -2 4 10 7 27 8 50 1 55 23 15 77 -14 18 -15
18 -12 -8 5 -44 -39 -64 -131 -59 -30 2 -83 37 -66 44 12 4 22 88 11 88 -5 0
-13 -8 -17 -17z"/>
</g>
</g>
</svg>