<?xml version="1.0" standalone="no"?>
<!DOCTYPE svg PUBLIC "-//W3C//DTD SVG 20010904//EN"
 "http://www.w3.org/TR/2001/REC-SVG-20010904/DTD/svg10.dtd">
<svg version="1.0" xmlns="http://www.w3.org/2000/svg"
 width="96.000000pt" height="68.000000pt" viewBox="0 0 96.000000 68.000000"
 preserveAspectRatio="xMidYMid meet">
<metadata>
Created by potrace 1.16, written by Peter Selinger 2001-2019
Combined from part_0.svg through part_5.svg with named groups
</metadata>
<g transform="translate(0.000000,68.000000) scale(0.100000,-0.100000)" fill="#000000" stroke="none">
<g id="part-0" class="char-part">
  <path d="M435 565 c-126 -13 -240 -24 -252 -24 -36 -1 -27 -28 11 -35 18 -4
64 -2 101 3 38 6 72 8 77 5 4 -3 8 -25 8 -50 l0 -44 -67 0 -68 0 0 -162 c0
-127 3 -162 14 -166 7 -2 16 0 20 5 3 5 78 14 166 20 l160 12 18 -25 c22 -28
39 -30 58 -7 11 12 14 56 14 180 l0 164 -37 9 c-23 7 -52 7 -77 1 l-41 -9 0
43 c0 41 1 43 38 49 20 3 71 6 112 6 85 0 110 9 85 30 -25 21 -96 20 -340 -5z
m53 -82 c-3 -46 -4 -48 -35 -51 -31 -3 -33 -1 -33 28 0 45 16 70 46 70 24 0
25 -3 22 -47z m152 -114 l0 -50 -52 3 -53 3 -3 48 -3 47 55 0 56 0 0 -51z
m-144 1 c0 -19 1 -41 2 -48 3 -18 64 -42 107 -42 l36 0 -3 -62 -3 -63 -100 -6
c-55 -4 -133 -10 -172 -14 l-73 -7 0 64 0 65 49 32 c37 23 53 41 62 69 17 53
17 53 57 50 35 -3 37 -5 38 -38z m-125 18 c3 -27 -3 -42 -29 -75 -45 -56 -60
-41 -46 48 5 31 9 35 40 37 22 2 34 -2 35 -10z"/>
  <path d="M475 229 c-22 -4 -57 -9 -78 -10 -67 -5 -51 -19 20 -18 85 1 171 12
158 20 -21 13 -61 16 -100 8z"/>
</g>
<g id="part-1" class="char-part">
  <path d="M443 561 c-149 -15 -275 -29 -278 -33 -18 -18 63 -19 243 -4 109 8
236 18 285 22 48 3 87 10 87 15 0 5 -1 9 -3 9 -1 0 -16 4 -32 8 -19 5 -134 -2
-302 -17z"/>
</g>
<g id="part-2" class="char-part">
  <path d="M490 438 c0 -55 4 -108 10 -118 12 -22 60 -40 106 -40 27 0 34 4 34
19 0 17 -8 20 -52 23 l-53 3 0 104 c0 101 -1 104 -22 106 -22 2 -23 -1 -23
-97z"/>
  <path d="M390 523 c-12 -3 -15 -19 -15 -71 0 -86 -7 -110 -46 -150 -43 -44
-12 -43 34 1 37 34 52 76 60 164 4 52 -2 63 -33 56z"/>
</g>
<g id="part-3" class="char-part">
  <path d="M599 456 c-8 -8 -235 -36 -294 -36 l-60 0 3 -94 c2 -52 -1 -116 -6
-142 -11 -53 -1 -94 23 -94 8 0 15 5 15 10 0 6 3 9 8 8 13 -3 286 13 304 18
12 4 22 -3 30 -20 14 -33 43 -33 64 -2 13 21 15 44 9 149 -5 81 -4 130 3 143
6 11 7 25 4 31 -13 21 -89 42 -103 29z m36 -171 l0 -130 -115 -7 c-63 -3 -141
-9 -174 -13 l-58 -6 3 125 c2 68 7 128 11 132 10 10 212 32 278 30 l55 -1 0
-130z"/>
</g>
<g id="part-4" class="char-part">
  <path d="M475 229 c-22 -4 -57 -8 -77 -8 -20 -1 -40 -6 -44 -13 -5 -8 20 -10
101 -5 60 4 111 9 113 12 15 15 -44 24 -93 14z"/>
</g>
</g>
</svg>