<?xml version="1.0" standalone="no"?>
<!DOCTYPE svg PUBLIC "-//W3C//DTD SVG 20010904//EN"
 "http://www.w3.org/TR/2001/REC-SVG-20010904/DTD/svg10.dtd">
<svg version="1.0" xmlns="http://www.w3.org/2000/svg"
 width="96.000000pt" height="68.000000pt" viewBox="0 0 96.000000 68.000000"
 preserveAspectRatio="xMidYMid meet">
<metadata>
Created by potrace 1.16, written by Peter Selinger 2001-2019
Combined from part_0.svg through part_5.svg with named groups
</metadata>
<g transform="translate(0.000000,68.000000) scale(0.100000,-0.100000)" fill="#000000" stroke="none">
<g id="part-0" class="char-part">
  <path d="M333 593 c-7 -3 -13 -14 -13 -26 0 -29 -54 -122 -82 -141 -13 -9 -22
-19 -20 -22 2 -3 -24 -31 -58 -61 -91 -83 -59 -87 50 -7 l60 44 0 -65 c0 -35
-5 -96 -12 -134 -9 -53 -9 -76 0 -95 14 -32 29 -33 42 -3 12 28 28 297 18 303
-18 12 -5 48 37 102 25 31 45 63 45 69 0 15 -50 42 -67 36z"/>
  <path d="M535 560 c-3 -5 12 -27 33 -49 29 -31 43 -39 60 -34 27 7 28 34 3 57
-23 20 -89 38 -96 26z"/>
  <path d="M533 448 c-97 -12 -160 -25 -157 -30 4 -6 41 -7 95 -3 86 7 89 6 86
-14 -5 -34 -77 -129 -140 -187 -33 -30 -56 -54 -51 -54 31 0 166 110 205 166
13 20 18 21 61 11 26 -7 50 -18 53 -25 7 -20 -41 -152 -64 -176 -18 -17 -25
-18 -58 -8 -43 13 -52 9 -29 -13 9 -9 21 -25 26 -36 13 -23 48 -25 78 -3 24
17 61 84 82 149 7 22 20 50 28 63 14 21 13 25 -5 43 -17 18 -51 26 -120 28 -7
1 -13 12 -13 26 0 13 -8 29 -17 34 -22 12 -28 11 127 20 66 3 115 10 115 16 0
17 -132 14 -302 -7z"/>
</g>
<g id="part-1" class="char-part">
  <path d="M326 574 c-3 -9 -6 -23 -6 -31 0 -27 -87 -139 -157 -202 -37 -34 -64
-61 -60 -61 18 0 75 34 121 73 l48 40 -5 -114 c-3 -63 -9 -127 -12 -144 -4
-20 -1 -37 9 -50 15 -19 17 -19 30 -3 16 21 30 298 15 312 -16 17 -10 31 42
96 l52 64 -23 18 c-27 22 -46 23 -54 2z"/>
</g>
<g id="part-2" class="char-part">
  <path d="M530 562 c0 -21 78 -94 97 -90 27 5 23 47 -7 69 -30 23 -90 36 -90
21z"/>
  <path d="M595 454 c-99 -12 -191 -23 -205 -26 -23 -4 -23 -5 -6 -13 12 -5 74
-2 155 8 75 10 168 17 206 17 69 0 117 13 85 24 -38 12 -67 10 -235 -10z"/>
</g>
<g id="part-3" class="char-part">
  <path d="M552 391 c-15 -49 -87 -139 -154 -192 -27 -21 -44 -39 -36 -39 27 0
114 63 170 124 71 76 86 101 71 124 -19 31 -39 25 -51 -17z"/>
</g>
<g id="part-4" class="char-part">
  <path d="M600 351 c0 -5 20 -14 45 -20 l46 -11 -7 -38 c-9 -50 -47 -134 -68
-151 -13 -11 -24 -12 -53 -3 -21 6 -39 10 -41 7 -2 -2 9 -20 25 -39 54 -69
110 -33 163 107 18 45 37 88 43 95 20 25 -22 51 -90 57 -35 3 -63 1 -63 -4z"/>
</g>
</g>
</svg>