<?xml version="1.0" standalone="no"?>
<!DOCTYPE svg PUBLIC "-//W3C//DTD SVG 20010904//EN"
 "http://www.w3.org/TR/2001/REC-SVG-20010904/DTD/svg10.dtd">
<svg version="1.0" xmlns="http://www.w3.org/2000/svg"
 width="96.000000pt" height="68.000000pt" viewBox="0 0 96.000000 68.000000"
 preserveAspectRatio="xMidYMid meet">
<metadata>
Created by potrace 1.16, written by Peter Selinger 2001-2019
Combined from part_0.svg through part_5.svg with named groups
</metadata>
<g transform="translate(0.000000,68.000000) scale(0.100000,-0.100000)" fill="#000000" stroke="none">
<g id="part-0" class="char-part">
  <path d="M326 576 c-7 -38 -47 -100 -105 -166 -22 -25 -35 -47 -29 -49 5 -2
37 15 69 38 49 34 67 42 97 39 l37 -3 -1 -47 c0 -26 -3 -50 -6 -53 -10 -10
-122 -25 -190 -25 -71 0 -88 -13 -42 -30 18 -7 52 -6 115 5 50 9 94 13 99 10
6 -4 3 -19 -6 -37 -29 -55 -102 -124 -169 -158 -36 -18 -63 -35 -61 -38 21
-20 182 54 213 98 7 10 20 25 27 33 8 8 21 30 30 51 8 20 20 36 27 36 12 0 17
-5 97 -100 26 -30 63 -69 82 -87 33 -31 40 -33 105 -33 62 0 108 11 95 23 -3
2 -34 14 -70 27 -36 13 -81 32 -100 43 -63 35 -180 132 -180 149 0 4 63 8 140
8 77 0 140 4 140 9 0 33 -64 41 -181 21 -35 -5 -76 -10 -91 -10 -26 0 -27 2
-20 33 3 17 7 44 7 58 0 25 3 27 67 33 73 7 98 14 98 27 0 18 -52 20 -159 7
-61 -8 -111 -12 -111 -10 0 2 14 21 30 42 36 45 37 54 8 74 -36 26 -55 20 -62
-18z"/>
</g>
<g id="part-1" class="char-part">
  <path d="M334 583 c-18 -55 -31 -81 -68 -127 -22 -28 -46 -55 -53 -59 -15 -9
-18 -27 -4 -27 5 0 32 18 60 40 44 35 56 40 85 35 29 -6 69 -2 224 21 17 3 32
9 32 13 0 18 -48 20 -135 6 -50 -8 -101 -15 -114 -15 -26 0 -27 -4 27 68 20
28 21 32 6 46 -21 21 -53 20 -60 -1z"/>
</g>
<g id="part-2" class="char-part">
  <path d="M410 443 c-11 -3 -15 -17 -15 -52 0 -27 -3 -52 -6 -56 -11 -10 -128
-25 -201 -25 -73 0 -87 -11 -37 -29 24 -8 52 -7 116 4 117 21 113 21 100 -17
-17 -48 -119 -145 -185 -176 -47 -22 -53 -28 -33 -30 29 -4 103 23 153 56 42
27 75 68 107 130 l22 43 75 -88 c118 -137 126 -143 204 -142 121 2 125 10 23
52 -105 44 -156 76 -233 146 l-55 50 147 1 c145 0 178 7 135 28 -40 19 -51 19
-142 6 -123 -17 -148 -17 -142 0 3 8 9 30 12 49 6 28 3 37 -12 44 -10 5 -25 8
-33 6z"/>
</g>
</g>
</svg>