<?xml version="1.0" standalone="no"?>
<!DOCTYPE svg PUBLIC "-//W3C//DTD SVG 20010904//EN"
 "http://www.w3.org/TR/2001/REC-SVG-20010904/DTD/svg10.dtd">
<svg version="1.0" xmlns="http://www.w3.org/2000/svg"
 width="96.000000pt" height="68.000000pt" viewBox="0 0 96.000000 68.000000"
 preserveAspectRatio="xMidYMid meet">
<metadata>
Created by potrace 1.16, written by Peter Selinger 2001-2019
Combined from part_0.svg through part_5.svg with named groups
</metadata>
<g transform="translate(0.000000,68.000000) scale(0.100000,-0.100000)" fill="#000000" stroke="none">
<g id="part-0" class="char-part">
  <path d="M506 582 c-8 -13 53 -72 73 -72 29 0 36 19 14 41 -20 21 -80 42 -87
31z"/>
  <path d="M245 500 c-11 -5 -40 -9 -64 -9 l-43 -1 8 -37 c9 -43 9 -52 3 -180
-3 -78 -1 -95 14 -110 13 -13 20 -14 29 -5 20 20 86 15 98 -8 13 -25 36 -26
49 -2 11 21 18 333 7 350 -8 14 -71 15 -101 2z m55 -90 c0 -59 -1 -60 -27 -60
-16 0 -38 -3 -50 -6 -22 -6 -23 -4 -23 53 0 33 3 63 7 66 3 4 26 7 50 7 l43 0
0 -60z m-2 -195 c-2 -2 -24 -6 -50 -10 l-48 -7 0 56 c0 60 1 60 70 68 24 3 25
0 28 -51 2 -29 2 -55 0 -56z"/>
  <path d="M547 485 c-86 -12 -160 -24 -163 -28 -17 -16 61 -18 191 -3 79 9 159
16 178 16 42 0 52 9 29 26 -22 17 -43 16 -235 -11z"/>
  <path d="M580 394 c-41 -7 -92 -13 -112 -13 -36 -1 -49 -13 -28 -26 5 -3 16
-27 23 -53 14 -47 14 -47 55 -44 l40 4 7 -56 c4 -31 4 -72 0 -92 -6 -33 -9
-36 -36 -32 -16 3 -29 3 -29 1 0 -11 57 -52 72 -53 26 0 31 16 39 115 5 73 4
93 -9 108 -14 16 -12 17 36 17 47 0 52 2 52 23 0 12 9 33 20 47 25 32 25 47 1
60 -23 12 -33 12 -131 -6z m80 -49 c0 -41 -14 -49 -102 -60 l-55 -7 -12 33
c-12 34 -14 56 -6 47 3 -3 22 1 43 8 20 7 58 13 85 14 l47 0 0 -35z"/>
  <path d="M439 198 c-6 -13 -30 -40 -53 -60 -51 -47 -28 -51 38 -7 59 40 74 64
47 79 -17 8 -22 6 -32 -12z"/>
  <path d="M726 150 c53 -57 77 -64 72 -23 -2 19 -15 33 -43 49 -70 40 -82 30
-29 -26z"/>
</g>
<g id="part-1" class="char-part">
  <path d="M260 498 c-14 -5 -45 -11 -70 -13 -32 -3 -44 -8 -40 -17 3 -7 5 -77
5 -155 0 -78 2 -144 5 -146 3 -3 29 0 59 6 51 10 56 9 69 -11 8 -12 20 -22 28
-22 29 0 36 40 29 164 -4 77 -3 131 4 148 9 24 7 30 -12 43 -25 17 -42 18 -77
3z m48 -85 c3 -55 1 -63 -15 -63 -10 0 -35 -3 -55 -6 l-38 -7 0 66 c0 72 4 77
70 74 l35 -2 3 -62z m2 -138 c0 -61 -9 -70 -81 -77 l-34 -3 0 60 0 60 40 6
c79 12 75 14 75 -46z"/>
</g>
<g id="part-2" class="char-part">
  <path d="M500 583 c0 -5 14 -23 31 -41 20 -22 37 -32 52 -30 39 5 31 34 -16
57 -45 22 -67 26 -67 14z"/>
  <path d="M553 486 c-89 -12 -165 -25 -169 -29 -16 -16 57 -17 184 -3 76 9 160
16 185 16 51 0 62 15 21 30 -31 12 -23 13 -221 -14z"/>
</g>
<g id="part-3" class="char-part">
  <path d="M580 395 c-41 -8 -94 -14 -118 -14 l-43 -1 20 -26 c11 -14 23 -41 27
-60 3 -19 9 -36 13 -38 6 -3 127 9 189 19 18 3 30 10 27 15 -3 5 4 28 17 50
23 40 23 41 4 55 -23 17 -35 17 -136 0z m80 -50 c0 -41 -14 -49 -102 -60 l-55
-7 -12 33 c-6 18 -8 36 -3 41 11 11 85 25 135 27 36 1 37 0 37 -34z"/>
</g>
<g id="part-4" class="char-part">
  <path d="M562 229 c12 -35 6 -135 -9 -150 -8 -8 -17 -7 -33 1 -34 18 -30 8 11
-28 l37 -33 20 22 c17 17 21 38 24 108 4 94 -2 111 -38 111 -21 0 -22 -2 -12
-31z"/>
  <path d="M436 191 c-9 -16 -32 -43 -53 -60 -66 -55 -2 -35 70 21 42 34 45 43
17 58 -16 9 -22 6 -34 -19z"/>
  <path d="M725 151 c56 -58 78 -65 73 -24 -3 29 -40 56 -93 69 -29 6 -29 5 20
-45z"/>
</g>
</g>
</svg>