<?xml version="1.0" standalone="no"?>
<!DOCTYPE svg PUBLIC "-//W3C//DTD SVG 20010904//EN"
 "http://www.w3.org/TR/2001/REC-SVG-20010904/DTD/svg10.dtd">
<svg version="1.0" xmlns="http://www.w3.org/2000/svg"
 width="96.000000pt" height="68.000000pt" viewBox="0 0 96.000000 68.000000"
 preserveAspectRatio="xMidYMid meet">
<metadata>
Created by potrace 1.16, written by Peter Selinger 2001-2019
Combined from part_0.svg through part_5.svg with named groups
</metadata>
<g transform="translate(0.000000,68.000000) scale(0.100000,-0.100000)" fill="#000000" stroke="none">
<g id="part-0" class="char-part">
  <path d="M538 583 c-3 -46 -4 -48 -40 -56 -46 -11 -50 -27 -7 -27 26 0 30 -3
24 -17 -4 -10 -10 -29 -12 -43 -4 -22 1 -19 39 22 41 44 46 46 113 53 77 7 84
10 67 27 -13 13 -62 15 -105 5 l-28 -8 16 30 c14 28 14 31 -7 45 -41 29 -57
21 -60 -31z"/>
  <path d="M260 594 c0 -4 10 -22 21 -41 12 -19 19 -36 16 -39 -2 -3 -37 -8 -76
-11 -76 -6 -86 -18 -38 -41 17 -8 33 -10 44 -4 10 5 34 12 53 16 33 6 36 4 47
-25 15 -40 39 -33 36 10 -1 28 3 33 28 38 40 8 37 23 -5 23 -31 0 -34 3 -40
34 -4 19 -14 37 -22 40 -21 8 -64 8 -64 0z"/>
  <path d="M557 414 c-1 -1 -24 -5 -52 -8 -27 -3 -98 -11 -157 -17 l-108 -13 0
-131 c0 -154 5 -164 92 -186 82 -20 308 -17 386 6 68 19 81 34 64 68 -7 12
-17 36 -23 52 l-11 30 -14 -40 c-24 -70 -53 -80 -234 -80 -109 0 -165 4 -187
14 -32 13 -33 16 -33 70 l0 58 170 13 c152 11 170 15 165 30 -3 9 6 33 20 54
32 47 32 61 -2 75 -23 9 -68 12 -76 5z m27 -41 c-1 -7 -2 -23 -3 -35 -2 -38
-14 -46 -79 -54 l-62 -7 6 34 c14 73 17 75 80 74 41 0 59 -4 58 -12z m-174
-52 c0 -48 0 -48 -37 -55 -21 -3 -50 -6 -65 -6 -26 0 -28 3 -28 38 0 58 13 68
93 71 l37 1 0 -49z"/>
</g>
<g id="part-1" class="char-part">
  <path d="M546 576 c-7 -44 -19 -56 -57 -56 -11 0 -17 -4 -14 -10 3 -5 15 -10
27 -10 12 0 18 -5 15 -12 -21 -59 -17 -62 21 -19 38 42 42 44 111 49 39 2 71
8 71 13 0 14 -41 21 -86 14 -49 -7 -49 -7 -32 30 10 22 9 28 -3 36 -32 20 -47
10 -53 -35z"/>
  <path d="M270 590 c0 -7 9 -28 20 -46 l21 -33 -33 -5 c-18 -3 -55 -7 -82 -8
-48 -3 -49 -3 -31 -22 14 -13 27 -17 52 -12 109 20 101 20 114 -8 16 -35 35
-28 31 11 -3 27 0 31 30 38 l33 8 -40 6 c-36 5 -40 9 -43 39 -2 17 -9 32 -15
32 -7 0 -22 3 -34 6 -15 4 -23 2 -23 -6z"/>
</g>
<g id="part-2" class="char-part">
  <path d="M425 399 c-82 -10 -158 -15 -167 -13 -16 5 -18 -3 -18 -74 l0 -79 27
3 c16 2 101 8 189 15 142 10 161 13 157 28 -2 9 10 35 26 59 17 23 31 44 31
47 0 9 -59 35 -77 34 -10 -1 -85 -10 -168 -20z m159 -17 c3 -5 0 -27 -6 -49
l-10 -41 -60 -7 c-32 -4 -61 -5 -63 -3 -3 2 0 21 6 41 5 21 7 41 4 46 -3 6 7
12 22 14 51 8 102 7 107 -1z m-174 -61 l0 -48 -46 -7 c-82 -11 -84 -10 -84 32
0 58 13 68 93 71 l37 1 0 -49z"/>
</g>
<g id="part-3" class="char-part">
  <path d="M240 187 c0 -108 20 -124 176 -139 160 -16 364 13 372 52 4 22 -40
119 -46 100 -30 -98 -76 -115 -284 -108 -165 6 -178 13 -178 88 0 39 -4 49
-20 53 -18 5 -20 0 -20 -46z"/>
</g>
</g>
</svg>