<?xml version="1.0" standalone="no"?>
<!DOCTYPE svg PUBLIC "-//W3C//DTD SVG 20010904//EN"
 "http://www.w3.org/TR/2001/REC-SVG-20010904/DTD/svg10.dtd">
<svg version="1.0" xmlns="http://www.w3.org/2000/svg"
 width="96.000000pt" height="68.000000pt" viewBox="0 0 96.000000 68.000000"
 preserveAspectRatio="xMidYMid meet">
<metadata>
Created by potrace 1.16, written by Peter Selinger 2001-2019
Combined from part_0.svg through part_5.svg with named groups
</metadata>
<g transform="translate(0.000000,68.000000) scale(0.100000,-0.100000)" fill="#000000" stroke="none">
<g id="part-0" class="char-part">
  <path d="M410 622 c0 -11 51 -58 70 -64 8 -3 -30 -8 -86 -13 -77 -5 -106 -4
-122 6 -24 15 -21 18 -60 -45 -24 -38 -29 -53 -21 -67 15 -29 35 -23 60 19 12
20 23 38 23 39 3 6 420 43 425 38 3 -4 -4 -15 -16 -25 -30 -24 -30 -44 -1 -34
12 4 45 9 73 13 63 8 71 30 20 61 -42 26 -49 26 -172 16 l-93 -8 0 25 c0 19
-7 28 -31 36 -38 13 -69 14 -69 3z"/>
  <path d="M406 461 l-6 -38 -80 -7 c-94 -9 -107 -26 -20 -26 33 0 60 -4 60 -9
0 -13 -123 -125 -179 -162 -40 -28 -42 -31 -17 -25 28 7 128 70 170 109 11 9
23 17 28 17 14 0 9 -105 -7 -150 -17 -50 -20 -106 -4 -115 15 -10 36 24 42 68
3 21 7 40 9 42 1 1 45 7 96 12 l93 9 -3 -46 c-3 -45 -3 -45 -38 -42 l-35 3 37
-36 c21 -19 42 -35 48 -35 5 0 18 12 27 27 15 22 17 45 15 123 -2 53 2 109 8
124 16 43 -9 58 -85 51 -33 -3 -88 -8 -122 -12 -70 -6 -77 0 -35 39 25 24 35
26 167 33 129 6 171 14 148 28 -22 13 -151 8 -248 -10 -24 -4 -28 -3 -17 8 17
18 15 46 -4 53 -32 12 -42 5 -48 -33z m186 -155 c5 -23 2 -24 -66 -31 -39 -3
-81 -9 -92 -11 -23 -6 -37 15 -28 40 6 15 39 21 130 24 47 2 52 0 56 -22z m-2
-76 c0 -29 -2 -30 -42 -30 -24 0 -66 -3 -94 -6 -50 -6 -51 -6 -51 19 0 24 3
25 76 35 118 14 111 16 111 -18z"/>
</g>
<g id="part-1" class="char-part">
  <path d="M420 620 c0 -18 52 -61 69 -58 23 5 25 35 4 46 -32 16 -73 23 -73 12z"/>
  <path d="M540 554 c-154 -15 -267 -17 -275 -4 -10 16 -19 12 -31 -13 -6 -12
-19 -36 -30 -54 -14 -25 -16 -35 -7 -44 18 -18 41 -4 60 36 13 27 23 35 42 35
14 0 108 7 208 17 100 9 186 14 189 10 4 -4 -3 -18 -16 -32 -19 -20 -20 -25
-7 -25 27 0 121 22 130 30 5 4 -7 19 -26 34 -39 30 -47 30 -237 10z"/>
</g>
<g id="part-2" class="char-part">
  <path d="M410 479 c0 -46 -15 -56 -101 -63 -92 -9 -95 -23 -5 -28 l60 -3 -33
-38 c-18 -20 -69 -64 -113 -97 -43 -33 -74 -60 -68 -60 33 0 142 73 208 139
l74 73 149 11 c82 6 149 14 149 19 0 15 -65 24 -120 17 -172 -22 -162 -22
-149 -1 17 27 4 52 -26 52 -19 0 -25 -5 -25 -21z"/>
</g>
<g id="part-3" class="char-part">
  <path d="M534 354 c-6 -3 -47 -8 -90 -12 l-79 -7 3 -40 c2 -21 -4 -78 -14
-126 -16 -82 -15 -119 4 -119 11 0 29 39 37 83 l7 34 94 9 95 9 -3 -45 c-3
-45 -3 -45 -38 -42 l-35 4 34 -36 c40 -42 51 -44 77 -15 17 18 19 34 16 124
-1 56 2 115 8 130 9 23 7 30 -7 41 -17 13 -85 18 -109 8z m56 -48 c0 -21 -5
-24 -67 -30 -38 -4 -78 -9 -90 -13 -20 -4 -23 -1 -23 25 0 34 8 37 128 40 48
2 52 0 52 -22z m0 -75 l0 -28 -87 -6 c-90 -7 -108 -2 -98 25 5 11 28 19 78 26
112 15 107 15 107 -17z"/>
</g>
</g>
</svg>