<?xml version="1.0" standalone="no"?>
<!DOCTYPE svg PUBLIC "-//W3C//DTD SVG 20010904//EN"
 "http://www.w3.org/TR/2001/REC-SVG-20010904/DTD/svg10.dtd">
<svg version="1.0" xmlns="http://www.w3.org/2000/svg"
 width="96.000000pt" height="68.000000pt" viewBox="0 0 96.000000 68.000000"
 preserveAspectRatio="xMidYMid meet">
<metadata>
Created by potrace 1.16, written by Peter Selinger 2001-2019
Combined from part_0.svg through part_5.svg with named groups
</metadata>
<g transform="translate(0.000000,68.000000) scale(0.100000,-0.100000)" fill="#000000" stroke="none">
<g id="part-0" class="char-part">
  <path d="M394 592 c-24 -37 -37 -46 -55 -45 l-24 3 0 -118 0 -117 40 3 c35 3
42 -1 56 -27 l17 -29 -31 -6 c-17 -3 -61 -9 -99 -13 -37 -3 -68 -10 -68 -16 0
-6 26 -8 70 -4 39 3 70 2 70 -3 0 -16 -88 -85 -154 -120 -36 -19 -66 -38 -66
-42 0 -9 98 33 148 63 51 29 55 26 50 -42 -3 -43 -1 -62 8 -66 12 -5 116 56
128 75 3 6 -17 2 -44 -9 l-50 -19 0 45 c0 29 -4 45 -12 45 -7 0 2 14 20 30 17
16 32 36 32 44 0 11 21 16 85 21 47 4 85 11 85 15 0 14 -46 20 -94 14 -36 -5
-46 -4 -44 6 2 8 -10 21 -27 29 l-30 15 55 8 c30 5 93 7 140 6 83 -3 85 -4 85
-28 0 -22 -4 -25 -32 -24 -18 1 -33 -1 -33 -5 0 -17 60 -63 74 -58 21 8 43 46
51 89 11 56 -8 62 -168 49 -73 -6 -153 -13 -179 -16 -42 -4 -48 -3 -48 13 0
17 12 20 102 26 56 3 107 11 113 17 10 12 -38 9 -162 -7 -50 -6 -53 -5 -53 15
0 22 15 24 198 26 41 0 43 1 67 53 14 30 25 57 25 62 0 13 -73 27 -100 20 -14
-4 -48 -10 -75 -14 -46 -6 -48 -5 -31 8 10 9 23 13 29 9 6 -3 7 -1 3 6 -4 6 0
14 8 17 23 9 20 19 -9 32 -36 17 -36 16 -71 -36z m176 -63 c0 -12 -13 -18 -57
-22 -32 -4 -80 -10 -107 -13 -43 -6 -48 -5 -44 12 3 16 18 21 88 30 111 13
120 13 120 -7z m-2 -51 c-5 -13 -181 -41 -205 -33 -32 11 -7 23 65 32 115 15
144 15 140 1z"/>
  <path d="M574 193 c-30 -36 -31 -36 -54 -20 -27 19 -60 23 -60 7 0 -5 6 -10
14 -10 7 0 53 -27 102 -61 l89 -61 68 6 c101 7 102 18 4 38 -48 10 -109 27
-135 39 l-47 21 40 19 c22 10 45 20 50 23 9 3 -22 35 -36 36 -3 0 -19 -17 -35
-37z"/>
</g>
<g id="part-1" class="char-part">
  <path d="M420 621 c0 -5 -12 -23 -26 -40 -32 -38 -16 -40 43 -6 46 28 53 39
27 49 -23 9 -44 7 -44 -3z"/>
</g>
<g id="part-2" class="char-part">
  <path d="M505 564 c-33 -7 -93 -14 -133 -15 -52 -1 -70 -4 -65 -12 4 -7 10
-34 13 -61 l5 -49 80 3 c44 2 104 4 134 4 l55 1 22 50 c29 64 29 72 2 80 -44
13 -54 13 -113 -1z m65 -33 c0 -15 -10 -19 -57 -24 -32 -4 -80 -10 -107 -13
-43 -6 -48 -5 -44 12 3 16 18 21 98 30 52 6 98 12 103 12 4 1 7 -6 7 -17z m0
-48 c-1 -21 -21 -28 -85 -31 -38 -2 -83 -5 -99 -5 -16 -1 -31 3 -33 9 -2 7 26
15 74 21 103 13 143 15 143 6z"/>
</g>
<g id="part-3" class="char-part">
  <path d="M328 419 c-12 -7 -18 -22 -18 -44 0 -28 4 -35 20 -35 13 0 20 7 20
18 0 17 12 20 101 26 56 3 109 11 118 17 16 10 -95 6 -181 -8 -31 -4 -37 -2
-40 15 -2 17 -7 19 -20 11z"/>
</g>
<g id="part-4" class="char-part">
  <path d="M574 193 c-30 -35 -31 -36 -57 -19 -14 10 -33 16 -42 14 -10 -2 27
-31 90 -72 l106 -69 60 7 c97 10 101 21 13 35 -44 7 -104 24 -134 38 l-55 25
45 21 c59 28 58 27 36 43 -26 18 -26 18 -62 -23z"/>
  <path d="M350 101 c0 -27 -3 -56 -6 -65 -12 -32 25 -26 87 14 82 53 84 56 21
31 -29 -12 -55 -21 -57 -21 -3 0 -5 20 -5 45 0 38 -3 45 -20 45 -17 0 -20 -7
-20 -49z"/>
</g>
</g>
</svg>