<?xml version="1.0" standalone="no"?>
<!DOCTYPE svg PUBLIC "-//W3C//DTD SVG 20010904//EN"
 "http://www.w3.org/TR/2001/REC-SVG-20010904/DTD/svg10.dtd">
<svg version="1.0" xmlns="http://www.w3.org/2000/svg"
 width="96.000000pt" height="68.000000pt" viewBox="0 0 96.000000 68.000000"
 preserveAspectRatio="xMidYMid meet">
<metadata>
Created by potrace 1.16, written by Peter Selinger 2001-2019
Combined from part_0.svg through part_5.svg with named groups
</metadata>
<g transform="translate(0.000000,68.000000) scale(0.100000,-0.100000)" fill="#000000" stroke="none">
<g id="part-0" class="char-part">
  <path d="M407 603 c-3 -5 0 -27 6 -50 6 -24 8 -45 5 -48 -3 -4 -37 -10 -75
-13 -37 -4 -68 -11 -68 -17 0 -5 33 -11 73 -13 l72 -3 0 -33 c0 -38 3 -37
-153 -52 -71 -7 -92 -18 -56 -29 20 -7 450 12 497 21 13 3 22 10 20 16 -7 21
-61 28 -155 21 l-93 -6 0 35 0 35 68 7 c37 4 74 11 82 16 30 19 -11 31 -84 25
l-69 -5 7 39 c3 22 3 42 -1 44 -18 11 -72 17 -76 10z"/>
  <path d="M578 324 c-3 -3 -4 -23 -1 -45 l6 -39 -41 0 c-68 0 -84 -14 -22 -20
l55 -5 3 -46 3 -46 -93 -7 c-51 -4 -95 -9 -97 -12 -14 -13 29 -24 74 -19 28 3
121 8 208 12 86 3 157 9 157 13 0 19 -57 30 -126 24 l-74 -7 0 45 0 45 55 9
c69 11 72 30 5 27 -49 -2 -50 -2 -50 28 0 22 -6 32 -26 39 -30 12 -29 12 -36
4z"/>
  <path d="M283 273 l2 -38 -52 -5 c-28 -3 -55 -9 -59 -13 -8 -8 1 -9 66 -11 44
-1 45 -2 48 -38 3 -36 3 -36 -48 -47 -28 -6 -67 -11 -85 -11 -19 0 -35 -4 -35
-8 0 -16 24 -32 48 -32 33 0 292 82 292 92 0 11 -10 10 -66 -7 -66 -20 -66
-20 -62 23 3 36 4 37 51 42 63 7 61 24 -3 28 -46 3 -50 5 -44 24 7 22 -9 38
-38 38 -14 0 -17 -8 -15 -37z"/>
</g>
<g id="part-1" class="char-part">
  <path d="M410 581 c5 -11 10 -36 10 -55 l0 -36 -47 -1 c-27 -1 -61 -5 -78 -9
l-30 -7 27 -7 c15 -5 50 -6 78 -4 l50 3 0 -42 0 -41 -110 -7 c-60 -4 -110 -11
-110 -15 0 -17 57 -20 178 -11 70 6 176 13 235 17 71 4 107 10 104 17 -6 20
-54 25 -138 16 -96 -11 -109 -8 -109 23 0 39 15 49 84 58 74 9 88 16 66 31
-15 10 -74 6 -117 -7 -22 -6 -23 -3 -23 39 0 48 -9 57 -56 57 -21 0 -23 -3
-14 -19z"/>
</g>
<g id="part-2" class="char-part">
  <path d="M282 273 c3 -36 1 -38 -27 -41 -16 -1 -46 -5 -65 -8 -29 -5 -32 -7
-17 -16 10 -5 39 -8 65 -6 l47 3 3 -36 c3 -35 2 -37 -42 -48 -25 -6 -66 -11
-92 -11 -41 0 -45 -2 -33 -16 29 -35 52 -34 195 13 77 25 143 49 149 54 12 12
-26 12 -57 0 -13 -4 -35 -11 -50 -15 -27 -6 -28 -5 -28 29 0 36 6 41 73 47 46
5 30 23 -21 24 -43 1 -47 3 -44 24 4 24 -12 40 -41 40 -15 0 -17 -7 -15 -37z"/>
</g>
<g id="part-3" class="char-part">
  <path d="M577 285 l6 -45 -34 -1 c-19 -1 -45 -5 -59 -9 -19 -6 -11 -8 33 -9
l57 -1 0 -49 0 -49 -95 -7 c-52 -4 -95 -11 -95 -15 0 -17 67 -21 163 -11 53 6
137 11 187 11 49 0 90 4 90 9 0 18 -61 30 -130 24 l-70 -6 0 45 0 45 60 7 c59
7 75 18 45 30 -9 3 -35 3 -59 0 l-43 -6 5 31 c4 26 0 32 -23 41 -42 16 -45 13
-38 -35z"/>
</g>
</g>
</svg>