<?xml version="1.0" standalone="no"?>
<!DOCTYPE svg PUBLIC "-//W3C//DTD SVG 20010904//EN"
 "http://www.w3.org/TR/2001/REC-SVG-20010904/DTD/svg10.dtd">
<svg version="1.0" xmlns="http://www.w3.org/2000/svg"
 width="96.000000pt" height="68.000000pt" viewBox="0 0 96.000000 68.000000"
 preserveAspectRatio="xMidYMid meet">
<metadata>
Created by potrace 1.16, written by Peter Selinger 2001-2019
Combined from part_0.svg through part_5.svg with named groups
</metadata>
<g transform="translate(0.000000,68.000000) scale(0.100000,-0.100000)" fill="#000000" stroke="none">
<g id="part-0" class="char-part">
  <path d="M625 573 c-27 -7 -67 -12 -88 -9 -36 4 -38 3 -33 -17 3 -12 10 -54
17 -93 11 -68 11 -72 -15 -112 -14 -22 -36 -50 -48 -62 -21 -19 -21 -21 -3
-14 11 4 29 13 40 21 25 16 55 17 55 1 0 -19 -31 -62 -73 -103 -45 -44 -47
-52 -7 -28 41 24 130 111 130 127 0 14 58 28 65 16 3 -4 -7 -31 -21 -59 -24
-48 -61 -84 -166 -164 l-23 -17 30 6 c17 4 49 20 72 35 44 31 123 117 123 135
0 6 7 17 15 24 8 7 15 21 15 31 0 14 7 19 30 19 38 0 38 -13 5 -117 -32 -104
-43 -117 -78 -104 -15 6 -27 8 -27 5 0 -14 43 -64 55 -64 23 0 72 69 90 128
10 32 27 77 38 101 l21 44 -25 20 c-20 16 -33 18 -79 13 -126 -15 -200 -18
-200 -7 0 6 5 11 11 11 7 0 9 9 5 24 -5 22 -2 24 39 30 27 4 53 3 65 -4 12 -7
24 -9 27 -7 2 3 15 36 28 73 13 38 26 77 30 87 6 13 -1 20 -29 32 -19 8 -37
14 -38 14 -2 -1 -25 -8 -53 -16z m55 -48 l0 -35 -55 -1 c-30 -1 -61 -2 -67 -3
-8 -1 -13 11 -13 29 0 26 4 31 35 36 19 4 50 7 68 8 30 1 32 -1 32 -34z m-10
-74 c0 -27 -3 -29 -51 -35 -56 -8 -73 0 -67 30 2 13 15 21 43 25 74 11 75 11
75 -20z"/>
  <path d="M275 542 c-8 -50 -50 -122 -119 -202 -30 -35 -53 -66 -51 -68 6 -7
50 20 85 53 29 27 41 32 68 28 25 -4 32 -10 32 -28 0 -19 -6 -23 -45 -28 -76
-8 -76 -33 0 -30 l43 1 4 -53 3 -53 -36 -11 c-20 -6 -60 -11 -88 -11 -45 0
-52 -3 -49 -17 2 -10 16 -24 33 -32 24 -11 34 -12 59 -1 17 6 78 29 136 50
126 45 156 83 35 45 -11 -3 -3 4 17 17 44 27 47 41 14 56 -23 10 -25 8 -42
-39 -10 -27 -22 -49 -26 -49 -5 0 -8 23 -6 51 l3 52 49 14 c54 16 48 33 -11
33 -28 0 -33 3 -33 25 0 21 5 25 29 25 17 0 33 5 36 10 9 14 -43 32 -63 21 -9
-4 -36 -11 -60 -15 l-43 -6 23 38 c13 21 31 49 40 62 l18 24 29 -28 c32 -31
66 -32 66 -1 0 14 -13 26 -42 40 -26 11 -43 26 -43 36 0 17 -19 29 -45 29 -8
0 -16 -16 -20 -38z"/>
  <path d="M190 234 c0 -11 23 -49 34 -56 34 -23 56 12 26 42 -18 18 -60 28 -60
14z"/>
</g>
<g id="part-1" class="char-part">
  <path d="M287 573 c-4 -3 -7 -16 -7 -27 0 -38 -47 -120 -109 -193 -34 -40 -58
-73 -53 -73 11 0 88 55 97 69 3 6 21 11 39 11 26 0 35 -5 40 -22 9 -36 9 -37
-44 -44 -27 -4 -50 -10 -50 -15 0 -5 23 -9 50 -9 l50 0 0 -59 0 -58 -57 -12
c-31 -6 -69 -11 -85 -11 -15 0 -28 -4 -28 -10 0 -16 41 -32 69 -27 53 11 245
84 249 95 2 8 -10 7 -38 -3 -69 -24 -71 -22 -68 42 l3 57 45 10 c44 9 44 9 17
17 -16 4 -35 5 -42 3 -8 -3 -14 5 -17 25 -4 27 -1 30 29 36 34 6 46 25 16 25
-9 0 -43 -5 -75 -12 -31 -7 -60 -9 -64 -5 -4 3 11 33 32 66 l38 59 39 -30 c29
-23 41 -28 50 -19 17 17 -3 44 -42 55 -20 6 -31 15 -31 27 0 10 -9 23 -19 29
-23 12 -26 12 -34 3z"/>
  <path d="M379 225 c-19 -41 -17 -42 29 -13 32 20 33 22 16 35 -25 18 -27 17
-45 -22z"/>
  <path d="M190 232 c0 -4 12 -20 26 -35 19 -21 29 -26 37 -18 16 16 -3 43 -36
52 -15 4 -27 4 -27 1z"/>
</g>
<g id="part-2" class="char-part">
  <path d="M650 578 c-14 -5 -55 -11 -92 -11 -57 -1 -65 -3 -58 -17 5 -9 13 -49
18 -89 6 -40 12 -74 14 -76 2 -2 27 1 55 6 37 7 59 6 74 -2 17 -9 23 -8 30 2
8 13 59 162 59 173 0 4 -59 26 -69 25 -3 0 -17 -5 -31 -11z m30 -52 l0 -34
-62 -4 c-66 -5 -78 0 -78 39 0 22 14 26 108 31 30 2 32 0 32 -32z m-10 -70 c0
-31 -4 -33 -68 -42 -51 -6 -52 -6 -52 20 0 27 18 35 108 45 6 0 12 -10 12 -23z"/>
</g>
<g id="part-3" class="char-part">
  <path d="M515 359 c-4 -12 -23 -39 -42 -60 -37 -41 -34 -51 7 -22 13 9 40 18
60 19 19 1 79 5 133 9 76 5 97 4 97 -6 0 -27 -34 -146 -51 -181 -17 -34 -21
-36 -49 -28 -36 10 -37 4 -7 -34 44 -55 81 -16 141 149 l36 100 -22 19 c-18
14 -33 17 -73 12 -27 -3 -86 -9 -130 -13 -74 -6 -79 -5 -66 10 16 20 8 47 -13
47 -8 0 -18 -9 -21 -21z"/>
</g>
<g id="part-4" class="char-part">
  <path d="M660 274 c-6 -14 -10 -29 -10 -34 0 -16 -109 -120 -158 -151 -26 -16
-38 -29 -29 -29 24 0 87 33 126 66 35 29 121 145 121 163 0 23 -40 11 -50 -15z"/>
</g>
</g>
</svg>