<?xml version="1.0" standalone="no"?>
<!DOCTYPE svg PUBLIC "-//W3C//DTD SVG 20010904//EN"
 "http://www.w3.org/TR/2001/REC-SVG-20010904/DTD/svg10.dtd">
<svg version="1.0" xmlns="http://www.w3.org/2000/svg"
 width="96.000000pt" height="68.000000pt" viewBox="0 0 96.000000 68.000000"
 preserveAspectRatio="xMidYMid meet">
<metadata>
Created by potrace 1.16, written by Peter Selinger 2001-2019
Combined from part_0.svg through part_5.svg with named groups
</metadata>
<g transform="translate(0.000000,68.000000) scale(0.100000,-0.100000)" fill="#000000" stroke="none">
<g id="part-0" class="char-part">
  <path d="M675 558 c-27 -5 -86 -12 -129 -16 l-80 -7 3 -60 c4 -115 -46 -283
-111 -367 -37 -48 -17 -49 27 -2 37 39 95 151 95 183 0 12 3 21 8 22 4 0 16 2
27 4 62 10 205 23 221 21 17 -3 19 -13 19 -110 -1 -124 -10 -142 -63 -127 -18
5 -32 7 -32 5 0 -14 54 -74 66 -74 8 0 27 12 44 27 27 26 31 37 43 138 8 61
16 116 18 123 2 8 -8 23 -22 34 -26 20 -28 20 -164 3 -76 -9 -141 -13 -145 -8
-4 4 -3 22 1 40 10 34 15 35 194 46 25 1 39 6 38 14 -2 7 6 27 17 45 11 18 20
38 20 44 0 20 -44 30 -95 22z m27 -58 c-5 -43 -2 -40 -43 -44 -19 -2 -60 -7
-92 -11 l-58 -7 4 37 c3 19 6 37 8 39 6 5 142 23 164 22 17 -1 19 -7 17 -36z"/>
  <path d="M285 520 c-11 -5 -48 -9 -83 -9 l-62 -1 16 -25 c9 -13 21 -46 28 -72
12 -47 13 -48 49 -45 l37 4 0 -95 c0 -90 -1 -95 -22 -101 -13 -3 -26 -6 -30
-6 -5 0 -8 29 -8 64 0 62 -7 76 -39 76 -5 0 -6 -34 -3 -75 l5 -75 -32 0 c-36
0 -41 -14 -10 -31 23 -12 89 -4 89 11 0 6 3 9 8 8 13 -5 172 47 172 55 0 5
-21 5 -46 1 l-45 -6 3 43 c3 43 4 44 42 49 22 3 41 10 43 17 3 8 -8 10 -36 6
-40 -6 -41 -5 -41 26 0 17 0 34 0 39 0 4 11 8 25 10 14 2 23 8 20 13 -3 5 3
30 15 55 15 36 17 50 9 60 -13 15 -73 17 -104 4z m35 -60 c0 -24 -6 -33 -26
-40 -43 -17 -74 -13 -74 9 0 11 -3 26 -6 34 -4 12 3 17 28 20 78 9 78 9 78
-23z"/>
  <path d="M595 270 c-11 -5 -41 -9 -66 -9 l-47 -1 14 -37 c7 -21 13 -46 14 -57
0 -14 5 -17 23 -12 12 3 43 6 70 6 43 0 48 3 57 28 6 15 15 36 21 46 20 35
-35 58 -86 36z m29 -47 c-1 -16 -2 -31 -3 -35 -1 -5 -21 -8 -45 -8 -38 0 -44
3 -48 24 -7 34 9 46 57 46 40 0 42 -2 39 -27z"/>
</g>
<g id="part-1" class="char-part">
  <path d="M280 513 c-25 -8 -64 -12 -87 -10 -24 3 -43 4 -43 3 0 -1 9 -19 20
-41 11 -22 20 -49 20 -62 0 -12 3 -24 8 -26 4 -2 42 0 85 6 69 8 77 12 77 31
0 11 10 36 21 55 20 33 20 35 3 48 -22 16 -46 15 -104 -4z m33 -94 c-4 -4 -27
-11 -50 -15 l-42 -6 -7 36 c-3 20 -3 40 0 44 4 3 28 9 54 12 l47 5 3 -34 c2
-18 0 -37 -5 -42z"/>
</g>
<g id="part-2" class="char-part">
  <path d="M285 189 c-61 -16 -124 -27 -174 -29 -23 0 19 -40 43 -40 24 0 226
68 241 81 15 14 -34 9 -110 -12z"/>
</g>
<g id="part-3" class="char-part">
  <path d="M640 554 c-41 -7 -98 -13 -126 -13 l-51 -1 5 -54 c9 -111 -37 -274
-105 -369 -19 -27 -33 -51 -31 -53 2 -2 20 10 39 26 60 49 100 141 134 307 4
19 13 22 92 28 49 3 99 7 112 8 17 1 25 8 26 23 1 12 11 34 24 49 17 23 19 31
9 41 -22 20 -50 22 -128 8z m62 -49 c-2 -17 -7 -33 -11 -37 -9 -10 -169 -33
-177 -26 -3 3 -1 21 4 39 8 33 10 34 83 45 100 16 105 15 101 -21z"/>
</g>
<g id="part-4" class="char-part">
  <path d="M729 365 c-3 -2 -56 -9 -119 -15 -63 -7 -117 -14 -119 -16 -3 -2 0
-9 6 -15 8 -8 21 -8 45 -1 18 6 75 14 127 17 l93 7 -3 -109 c-5 -143 -16 -157
-95 -126 -12 4 -7 -7 16 -35 18 -23 41 -42 51 -42 18 0 69 53 69 73 0 7 7 62
15 122 8 61 15 111 15 112 0 1 -13 9 -30 18 -28 15 -62 20 -71 10z"/>
</g>
<g id="part-5" class="char-part">
  <path d="M622 271 c-11 -7 -11 -9 2 -14 10 -4 13 -15 10 -33 -7 -38 -12 -44
-37 -45 -21 0 -21 -1 2 -10 27 -11 56 -4 46 10 -3 5 -1 12 4 15 5 3 7 16 5 29
-2 12 -1 16 2 9 5 -10 9 -9 19 5 11 15 9 19 -12 30 -30 15 -25 15 -41 4z"/>
  <path d="M505 250 c-3 -6 -3 -20 1 -33 8 -21 9 -28 12 -54 2 -12 39 -6 48 8 3
5 2 9 -3 8 -23 -4 -43 2 -38 11 4 6 2 16 -4 23 -11 14 -3 31 19 40 10 4 8 6
-7 6 -12 1 -25 -4 -28 -9z"/>
</g>
</g>
</svg>