<?xml version="1.0" standalone="no"?>
<!DOCTYPE svg PUBLIC "-//W3C//DTD SVG 20010904//EN"
 "http://www.w3.org/TR/2001/REC-SVG-20010904/DTD/svg10.dtd">
<svg version="1.0" xmlns="http://www.w3.org/2000/svg"
 width="96.000000pt" height="68.000000pt" viewBox="0 0 96.000000 68.000000"
 preserveAspectRatio="xMidYMid meet">
<metadata>
Created by potrace 1.16, written by Peter Selinger 2001-2019
Combined from part_0.svg through part_5.svg with named groups
</metadata>
<g transform="translate(0.000000,68.000000) scale(0.100000,-0.100000)" fill="#000000" stroke="none">
<g id="part-0" class="char-part">
  <path d="M530 570 c0 -27 -30 -86 -74 -144 -43 -56 -45 -63 -8 -38 32 22 248
50 264 34 6 -6 5 -36 -4 -83 -12 -69 -15 -74 -41 -77 -32 -4 -33 -9 -8 -41 40
-52 74 -9 108 136 l19 82 -30 13 c-17 7 -33 12 -36 11 -26 -8 -203 -34 -206
-30 -3 2 14 32 37 65 36 51 40 64 29 77 -19 22 -50 19 -50 -5z"/>
  <path d="M296 509 c-10 -6 -47 -12 -82 -13 -41 -1 -64 -5 -64 -13 0 -6 5 -13
11 -15 7 -2 19 -28 29 -58 16 -53 18 -55 48 -52 18 1 32 1 32 0 1 -2 3 -44 7
-94 l5 -92 -32 -7 c-17 -4 -33 -5 -35 -3 -1 1 -7 32 -11 68 -8 58 -12 65 -32
68 -20 3 -23 0 -17 -17 10 -32 23 -126 19 -131 -3 -2 -23 -4 -44 -3 -47 2 -51
-11 -11 -32 26 -13 34 -13 73 1 24 8 50 17 58 19 42 10 147 46 160 56 11 8 7
9 -20 6 -19 -2 -43 -7 -52 -12 -16 -6 -18 -1 -18 44 0 49 1 51 28 51 15 0 34
5 42 10 11 7 3 10 -28 10 l-44 0 7 33 c10 43 13 47 37 47 14 0 18 5 14 16 -3
9 1 31 10 49 24 51 16 70 -31 72 -22 2 -48 -2 -59 -8z m34 -58 c0 -43 -10 -51
-65 -51 -32 0 -44 16 -45 56 0 10 45 24 103 33 4 0 7 -17 7 -38z"/>
  <path d="M546 343 c-3 -3 -29 -8 -58 -12 l-53 -6 3 -115 c3 -99 7 -118 24
-137 30 -32 106 -46 219 -41 85 4 104 8 139 32 40 26 48 40 30 51 -5 3 -14 24
-21 47 -8 31 -13 38 -20 27 -5 -8 -9 -23 -9 -35 0 -56 -110 -93 -235 -79 -82
8 -95 21 -95 91 l0 54 33 0 c43 0 77 10 77 22 0 6 9 23 21 39 16 23 18 33 10
43 -12 14 -57 27 -65 19z m12 -60 c-2 -22 -10 -29 -38 -34 -44 -9 -48 -7 -42
31 4 28 7 30 44 30 37 0 39 -2 36 -27z"/>
</g>
<g id="part-1" class="char-part">
  <path d="M295 505 c-22 -7 -64 -14 -94 -14 l-55 -1 21 -19 c12 -11 24 -37 28
-58 8 -52 20 -70 37 -56 7 6 41 14 76 18 52 6 62 10 62 26 0 10 7 37 16 59 9
23 14 43 12 45 -12 12 -67 12 -103 0z m42 -52 c-8 -46 -13 -51 -63 -58 -40 -7
-40 -6 -52 31 -6 21 -9 40 -7 42 7 7 68 20 99 21 28 1 28 0 23 -36z"/>
</g>
<g id="part-2" class="char-part">
  <path d="M280 174 c-47 -12 -109 -23 -137 -23 -59 -1 -66 -10 -27 -36 25 -16
30 -15 152 25 70 22 134 45 142 50 26 17 -38 9 -130 -16z"/>
</g>
<g id="part-3" class="char-part">
  <path d="M530 573 c0 -25 -46 -109 -88 -160 -36 -45 -32 -56 9 -24 23 18 114
32 219 35 l45 1 -2 -41 c-1 -23 -7 -60 -13 -83 -10 -36 -14 -41 -41 -41 l-30
0 23 -30 c43 -59 78 -31 102 85 8 39 19 83 25 98 19 49 -25 57 -168 32 -46 -8
-88 -12 -92 -9 -5 3 10 30 33 61 31 43 39 60 31 72 -15 24 -53 27 -53 4z"/>
</g>
<g id="part-4" class="char-part">
  <path d="M477 333 l-48 -4 7 -52 c4 -29 8 -54 10 -56 6 -7 144 12 139 19 -3 5
3 23 14 41 34 56 18 63 -122 52z m81 -50 c-2 -20 -10 -29 -33 -35 -42 -11 -52
-5 -47 31 4 29 7 31 44 31 37 0 39 -2 36 -27z"/>
</g>
<g id="part-5" class="char-part">
  <path d="M440 157 c0 -53 18 -87 47 -87 6 0 13 -5 15 -12 4 -12 15 -13 136
-23 54 -4 63 -2 58 10 -3 9 0 15 8 15 8 0 16 -5 18 -12 6 -16 76 4 108 30 21
17 21 18 4 57 l-17 40 -12 -30 c-10 -23 -10 -32 -2 -38 8 -5 7 -7 -3 -5 -8 1
-31 -6 -50 -17 -28 -14 -54 -18 -126 -17 -51 1 -103 6 -117 11 -14 5 -28 7
-31 4 -6 -7 -7 1 -10 76 -2 68 -26 66 -26 -2z"/>
</g>
</g>
</svg>