<?xml version="1.0" standalone="no"?>
<!DOCTYPE svg PUBLIC "-//W3C//DTD SVG 20010904//EN"
 "http://www.w3.org/TR/2001/REC-SVG-20010904/DTD/svg10.dtd">
<svg version="1.0" xmlns="http://www.w3.org/2000/svg"
 width="96.000000pt" height="68.000000pt" viewBox="0 0 96.000000 68.000000"
 preserveAspectRatio="xMidYMid meet">
<metadata>
Created by potrace 1.16, written by Peter Selinger 2001-2019
Combined from part_0.svg through part_5.svg with named groups
</metadata>
<g transform="translate(0.000000,68.000000) scale(0.100000,-0.100000)" fill="#000000" stroke="none">
<g id="part-0" class="char-part">
  <path d="M390 587 c0 -8 12 -24 26 -38 l26 -24 -44 -7 c-66 -10 -138 -9 -138
2 0 20 -29 10 -36 -12 -4 -13 -16 -35 -26 -49 -24 -32 -17 -69 12 -69 13 0 27
14 40 40 11 22 25 40 30 40 6 0 54 6 108 14 53 8 135 17 181 20 l83 6 -26 -35
c-15 -19 -25 -35 -23 -35 8 0 124 22 140 26 26 8 21 28 -15 54 -35 26 -60 29
-160 17 -66 -8 -67 -8 -74 17 -9 36 -104 66 -104 33z"/>
  <path d="M470 414 c-41 -7 -92 -13 -112 -13 -21 -1 -38 -6 -38 -12 0 -6 18 -9
46 -8 31 2 48 -1 54 -11 13 -20 13 -170 0 -170 -23 0 -100 45 -100 59 0 8 8
23 17 33 15 17 15 19 -3 33 -30 23 -54 19 -54 -9 0 -44 -31 -99 -87 -153 -31
-29 -53 -53 -49 -53 18 0 74 37 117 77 l48 45 118 -73 c148 -90 188 -109 238
-108 40 0 129 20 140 31 4 3 -38 13 -92 23 -54 9 -128 26 -165 37 l-68 21 0
52 0 52 77 7 c82 7 96 12 73 27 -14 9 -29 8 -116 -7 l-32 -6 -3 50 -4 50 53 7
c52 6 66 18 36 29 -9 3 -16 5 -17 5 -1 -1 -36 -7 -77 -15z"/>
</g>
<g id="part-1" class="char-part">
  <path d="M390 591 c0 -5 14 -22 30 -38 17 -15 30 -31 30 -35 0 -13 -185 -9
-198 4 -9 9 -14 5 -24 -18 -7 -16 -21 -41 -31 -56 -21 -30 -16 -48 14 -48 14
0 26 12 37 39 16 38 18 39 82 45 36 4 119 13 185 20 68 8 124 10 129 5 6 -5 1
-18 -12 -32 -12 -13 -22 -26 -22 -29 0 -7 133 22 143 32 5 4 -8 20 -27 35 -35
27 -40 27 -114 21 -42 -4 -87 -10 -99 -13 -20 -4 -23 -1 -23 21 0 21 -7 30
-35 42 -39 16 -65 18 -65 5z"/>
</g>
<g id="part-2" class="char-part">
  <path d="M427 411 c-112 -17 -132 -31 -43 -31 52 0 169 16 196 26 12 5 11 8
-5 14 -24 10 -15 11 -148 -9z"/>
</g>
<g id="part-3" class="char-part">
  <path d="M438 383 c-16 -4 -17 -14 -11 -96 3 -51 11 -95 17 -99 26 -18 36 -7
36 36 l0 43 72 6 c39 3 75 10 81 16 16 16 -26 22 -83 11 -73 -14 -72 -14 -69
28 3 37 -5 63 -19 61 -4 -1 -15 -3 -24 -6z"/>
</g>
<g id="part-4" class="char-part">
  <path d="M280 313 c0 -42 -49 -118 -104 -163 -26 -22 -43 -40 -37 -40 23 0 75
33 122 76 l47 45 142 -85 c78 -47 158 -88 177 -92 38 -7 192 20 181 32 -2 2
-48 10 -103 19 -54 9 -122 24 -149 34 -79 28 -236 103 -236 113 0 5 8 20 17
35 16 24 16 26 -2 39 -32 23 -55 18 -55 -13z"/>
</g>
</g>
</svg>