<?xml version="1.0" standalone="no"?>
<!DOCTYPE svg PUBLIC "-//W3C//DTD SVG 20010904//EN"
 "http://www.w3.org/TR/2001/REC-SVG-20010904/DTD/svg10.dtd">
<svg version="1.0" xmlns="http://www.w3.org/2000/svg"
 width="96.000000pt" height="68.000000pt" viewBox="0 0 96.000000 68.000000"
 preserveAspectRatio="xMidYMid meet">
<metadata>
Created by potrace 1.16, written by Peter Selinger 2001-2019
Combined from part_0.svg through part_5.svg with named groups
</metadata>
<g transform="translate(0.000000,68.000000) scale(0.100000,-0.100000)" fill="#000000" stroke="none">
<g id="part-0" class="char-part">
  <path d="M244 553 c3 -15 9 -54 12 -85 l7 -56 -49 -7 c-66 -9 -84 -15 -84 -26
0 -5 29 -9 65 -9 l66 0 -40 -58 c-22 -33 -63 -80 -91 -105 -33 -30 -46 -47
-36 -47 31 0 80 31 118 73 l37 42 1 -36 c0 -19 -5 -61 -11 -93 -11 -63 2 -126
26 -126 26 0 35 39 35 156 l0 117 23 -21 c27 -26 52 -28 61 -6 9 23 0 32 -43
45 -31 9 -38 16 -37 37 1 21 9 27 46 38 54 16 53 16 45 5 -3 -5 0 -13 5 -16
15 -9 50 24 50 47 0 14 8 18 38 18 20 0 84 7 141 15 57 8 107 13 110 10 3 -3
0 -19 -6 -35 -6 -17 -9 -30 -6 -30 18 0 113 33 113 39 0 4 -9 16 -21 27 -16
15 -35 19 -83 18 -34 0 -74 -4 -89 -8 -25 -6 -27 -4 -27 22 0 23 -7 32 -36 46
-20 9 -39 15 -41 12 -3 -2 7 -22 21 -43 l26 -38 -27 -6 c-51 -12 -121 -10
-126 4 -2 6 -12 -5 -21 -27 -11 -28 -20 -37 -32 -32 -8 3 -29 6 -46 6 l-30 0
6 63 c8 70 3 79 -48 91 -27 7 -28 6 -22 -21z"/>
  <path d="M562 386 c-79 -14 -70 -29 12 -21 85 9 108 14 101 25 -7 12 -30 11
-113 -4z"/>
  <path d="M615 319 c-16 -5 -63 -10 -102 -12 -40 -1 -73 -3 -73 -3 0 -1 6 -14
14 -29 8 -15 18 -50 21 -77 4 -27 13 -52 20 -54 7 -3 56 -2 110 3 l98 8 26 74
c25 71 25 73 6 87 -21 16 -75 17 -120 3z m65 -43 c0 -23 -4 -24 -80 -31 -44
-4 -83 -8 -86 -9 -11 -2 -29 33 -21 41 9 8 83 20 145 22 38 1 42 -1 42 -23z
m-10 -70 c0 -21 -7 -26 -50 -35 -28 -6 -64 -11 -80 -11 -26 0 -30 4 -30 29 0
33 -10 30 133 39 22 2 27 -2 27 -22z"/>
  <path d="M530 93 c-90 -8 -166 -16 -169 -18 -12 -12 16 -20 72 -20 137 1 417
19 417 27 0 15 -50 28 -103 27 -29 -1 -126 -8 -217 -16z"/>
</g>
<g id="part-1" class="char-part">
  <path d="M245 553 c5 -10 10 -48 13 -84 l4 -66 -68 -8 c-53 -5 -64 -9 -50 -17
10 -6 40 -7 67 -4 28 4 49 3 49 -3 0 -20 -84 -133 -127 -171 -25 -22 -42 -40
-36 -40 19 0 101 59 132 96 l33 39 -6 -50 c-17 -147 -18 -183 -7 -204 24 -44
38 -7 45 121 4 68 9 124 11 127 2 2 16 -6 31 -18 34 -26 44 -27 44 0 0 15 -11
25 -40 36 -33 13 -40 21 -40 44 0 23 5 28 36 36 47 11 48 27 2 31 -23 2 -36 8
-33 15 2 7 6 35 9 63 6 47 5 51 -19 62 -39 18 -59 15 -50 -5z"/>
</g>
<g id="part-2" class="char-part">
  <path d="M540 555 c0 -3 11 -23 24 -44 l25 -39 -37 -6 c-57 -9 -97 -7 -110 6
-9 9 -16 1 -30 -33 -11 -24 -17 -50 -15 -56 9 -24 32 -13 44 22 11 30 18 35
44 35 17 0 80 7 140 15 59 9 110 13 114 10 3 -3 0 -19 -6 -35 -13 -35 -16 -34
54 -14 58 17 62 27 20 58 -24 18 -34 19 -107 10 l-80 -9 0 27 c0 20 -8 31 -30
43 -29 15 -50 19 -50 10z"/>
</g>
<g id="part-3" class="char-part">
  <path d="M558 387 c-82 -14 -74 -31 10 -23 85 9 113 16 106 27 -6 11 -39 10
-116 -4z"/>
</g>
<g id="part-4" class="char-part">
  <path d="M540 93 c-95 -7 -176 -16 -179 -18 -12 -12 16 -20 67 -19 210 6 408
17 416 25 14 12 -39 29 -87 28 -23 -1 -121 -8 -217 -16z"/>
</g>
</g>
</svg>