<?xml version="1.0" standalone="no"?>
<!DOCTYPE svg PUBLIC "-//W3C//DTD SVG 20010904//EN"
 "http://www.w3.org/TR/2001/REC-SVG-20010904/DTD/svg10.dtd">
<svg version="1.0" xmlns="http://www.w3.org/2000/svg"
 width="96.000000pt" height="68.000000pt" viewBox="0 0 96.000000 68.000000"
 preserveAspectRatio="xMidYMid meet">
<metadata>
Created by potrace 1.16, written by Peter Selinger 2001-2019
Combined from part_0.svg through part_5.svg with named groups
</metadata>
<g transform="translate(0.000000,68.000000) scale(0.100000,-0.100000)" fill="#000000" stroke="none">
<g id="part-0" class="char-part">
  <path d="M546 633 c-3 -4 -6 -21 -6 -39 0 -34 -13 -44 -56 -44 -13 0 -24 -4
-24 -10 0 -5 16 -10 35 -10 31 0 35 -3 35 -25 0 -14 5 -25 10 -25 6 0 10 4 10
8 0 5 9 18 19 29 16 16 33 21 77 22 59 0 82 11 69 31 -5 8 -26 11 -60 8 -49
-4 -51 -3 -47 18 3 17 -3 24 -26 32 -17 6 -33 8 -36 5z"/>
  <path d="M285 600 c-4 -6 0 -21 9 -34 14 -22 14 -24 -7 -30 -12 -3 -44 -6 -71
-6 -48 0 -49 0 -31 -20 20 -22 59 -26 102 -9 24 9 30 7 46 -15 22 -30 37 -26
37 10 0 19 6 26 30 31 42 8 38 21 -7 25 -31 2 -39 7 -41 26 -2 12 -9 22 -17
22 -7 0 -20 3 -28 6 -8 3 -18 0 -22 -6z"/>
  <path d="M410 481 c0 -27 -2 -29 -62 -37 l-63 -9 58 -3 c48 -2 57 -6 57 -21 0
-26 -19 -31 -148 -38 -101 -5 -112 -8 -98 -21 13 -14 31 -13 158 1 79 10 219
20 313 23 93 3 172 8 174 10 13 13 -21 19 -105 18 -52 0 -94 2 -94 5 0 2 7 12
16 22 26 29 -13 42 -98 34 -52 -5 -69 -4 -63 4 8 14 -12 41 -31 41 -9 0 -14
-11 -14 -29z m148 -56 c5 -25 -15 -35 -75 -35 -36 0 -53 4 -53 13 0 23 15 35
45 39 58 6 80 2 83 -17z"/>
  <path d="M435 339 c-27 -5 -69 -9 -92 -10 l-42 -2 20 -39 c19 -37 22 -39 62
-36 37 3 42 0 45 -19 3 -22 1 -23 -84 -23 -74 0 -85 -2 -75 -14 10 -11 9 -22
-4 -46 -23 -44 -10 -52 54 -40 30 5 67 10 82 10 26 0 29 -3 29 -32 0 -42 10
-78 21 -78 4 0 13 27 20 60 l12 60 104 0 c79 0 104 3 100 13 -3 9 -31 11 -106
9 l-101 -2 0 24 c0 23 4 25 80 32 44 3 80 11 80 17 0 6 -27 8 -75 4 -69 -6
-75 -5 -75 12 0 18 25 31 63 31 20 0 56 37 57 56 0 25 -74 30 -175 13z m113
-26 c-3 -19 -41 -28 -138 -35 -45 -2 -55 0 -58 14 -3 13 8 18 55 23 32 4 63 8
68 10 6 2 25 4 43 4 27 1 33 -3 30 -16z m-118 -142 c0 -27 -2 -28 -62 -35 -34
-3 -63 -4 -65 -2 -2 2 2 15 8 29 10 22 19 27 63 30 28 2 52 4 54 5 1 1 2 -11
2 -27z"/>
</g>
<g id="part-1" class="char-part">
  <path d="M550 606 c0 -42 -11 -56 -41 -56 -16 0 -29 -4 -29 -10 0 -5 13 -10
29 -10 24 0 28 -3 24 -20 -7 -26 4 -25 27 3 14 17 36 25 92 33 70 10 72 11 44
23 -16 6 -43 9 -64 5 -30 -6 -34 -4 -29 9 7 18 -17 47 -39 47 -8 0 -14 -10
-14 -24z"/>
  <path d="M293 576 c27 -41 22 -46 -50 -46 l-68 -1 24 -20 c17 -14 33 -18 49
-14 72 18 80 18 87 -5 9 -28 30 -20 30 11 0 19 6 25 28 27 15 2 27 8 27 13 0
6 -14 9 -32 7 -27 -3 -33 1 -38 22 -4 20 -13 26 -40 28 l-33 4 16 -26z"/>
</g>
<g id="part-2" class="char-part">
  <path d="M410 480 c0 -29 -2 -30 -42 -31 -71 -1 -93 -17 -24 -18 53 -1 58 -3
53 -21 -4 -15 0 -20 14 -20 12 0 21 9 25 25 5 22 12 25 50 27 24 0 50 1 57 2
6 1 13 -9 15 -21 4 -30 32 -29 55 2 17 23 17 25 -4 35 -14 8 -45 9 -91 5 -53
-5 -69 -4 -63 4 8 14 -12 41 -31 41 -9 0 -14 -11 -14 -30z"/>
</g>
<g id="part-3" class="char-part">
  <path d="M655 405 c-5 -2 -86 -9 -180 -16 -373 -27 -343 -23 -312 -39 23 -11
41 -11 105 -2 89 14 342 31 455 32 72 0 98 10 61 24 -16 6 -112 7 -129 1z"/>
</g>
<g id="part-4" class="char-part">
  <path d="M437 253 c-4 -3 -7 -15 -7 -25 0 -16 -9 -18 -79 -18 -44 0 -83 -4
-86 -10 -3 -5 -1 -10 5 -10 6 0 5 -13 -5 -37 -20 -47 -9 -56 46 -44 24 6 61
11 82 11 32 0 37 -3 37 -24 0 -38 12 -86 21 -86 10 0 18 28 23 80 l3 35 99 3
c115 3 139 8 110 24 -12 7 -52 8 -112 4 l-94 -7 0 24 c0 24 4 25 80 32 50 4
78 11 74 17 -4 7 -34 8 -80 4 -69 -6 -72 -6 -67 14 4 16 1 20 -19 20 -14 0
-28 -3 -31 -7z m-7 -82 c0 -27 -2 -28 -62 -34 -35 -3 -64 -4 -66 -3 -1 2 2 15
7 29 9 23 17 26 63 30 29 2 54 4 56 5 1 1 2 -11 2 -27z"/>
</g>
</g>
</svg>