<?xml version="1.0" standalone="no"?>
<!DOCTYPE svg PUBLIC "-//W3C//DTD SVG 20010904//EN"
 "http://www.w3.org/TR/2001/REC-SVG-20010904/DTD/svg10.dtd">
<svg version="1.0" xmlns="http://www.w3.org/2000/svg"
 width="96.000000pt" height="68.000000pt" viewBox="0 0 96.000000 68.000000"
 preserveAspectRatio="xMidYMid meet">
<metadata>
Created by potrace 1.16, written by Peter Selinger 2001-2019
Combined from part_0.svg through part_5.svg with named groups
</metadata>
<g transform="translate(0.000000,68.000000) scale(0.100000,-0.100000)" fill="#000000" stroke="none">
<g id="part-0" class="char-part">
  <path d="M515 564 c-44 -37 -100 -64 -133 -64 -28 0 -29 -2 -27 -41 5 -93 -37
-236 -91 -307 -36 -46 -25 -49 18 -4 39 40 84 122 94 170 6 30 6 30 93 36 142
11 170 16 164 32 -2 7 7 25 21 38 22 23 23 27 10 41 -19 19 -43 19 -164 0 -52
-8 -96 -12 -98 -10 -11 11 10 34 36 40 16 3 65 21 108 40 76 33 77 34 50 45
-38 14 -47 13 -81 -16z m91 -136 c-3 -13 -6 -26 -6 -29 0 -4 -28 -9 -62 -13
-35 -4 -82 -9 -105 -12 -37 -6 -43 -4 -43 12 1 46 39 60 164 63 56 1 58 0 52
-21z"/>
  <path d="M180 533 c0 -17 70 -63 94 -63 41 0 35 37 -9 56 -37 15 -85 19 -85 7z"/>
  <path d="M116 396 c9 -23 82 -69 99 -62 28 11 17 46 -20 62 -45 19 -86 19 -79
0z"/>
  <path d="M675 331 c27 -31 55 -45 66 -34 15 15 -13 42 -51 49 l-35 7 20 -22z"/>
  <path d="M500 313 c3 -48 1 -50 -62 -57 -44 -5 -58 -10 -47 -17 8 -5 34 -6 58
-3 42 6 43 6 36 -17 -17 -54 -53 -89 -133 -131 l-37 -19 40 6 c57 10 117 48
145 94 14 22 28 39 32 38 3 -1 38 -32 77 -69 71 -68 71 -68 129 -68 87 0 92
13 15 39 -99 34 -213 105 -213 132 0 5 32 9 71 9 52 0 70 3 66 13 -3 8 -24 11
-67 10 -61 -2 -62 -1 -57 23 3 20 -1 27 -20 35 -34 13 -35 12 -33 -18z"/>
  <path d="M210 250 c-19 -28 -50 -60 -68 -71 -28 -18 -33 -26 -27 -48 8 -31 23
-51 39 -51 11 1 106 186 106 208 0 23 -15 11 -50 -38z"/>
</g>
<g id="part-1" class="char-part">
  <path d="M201 514 c14 -17 62 -44 79 -44 18 0 11 39 -9 50 -11 5 -34 10 -52
10 -27 0 -30 -2 -18 -16z"/>
  <path d="M150 370 c39 -34 80 -40 80 -12 0 23 -39 42 -83 42 l-32 -1 35 -29z"/>
  <path d="M217 251 c-15 -22 -44 -54 -66 -71 l-40 -32 17 -34 c9 -19 19 -33 24
-32 11 4 109 208 99 208 -5 0 -20 -18 -34 -39z"/>
</g>
<g id="part-2" class="char-part">
  <path d="M525 570 c-11 -10 -45 -33 -75 -50 -48 -28 -51 -31 -23 -26 18 3 69
20 114 38 73 28 79 33 63 45 -26 19 -56 16 -79 -7z"/>
</g>
<g id="part-3" class="char-part">
  <path d="M355 468 c13 -73 -48 -270 -102 -331 -9 -9 -14 -19 -11 -22 3 -3 25
16 50 43 41 43 88 138 88 176 0 10 24 15 88 20 129 10 172 17 166 28 -3 5 6
24 21 43 l26 35 -26 12 c-19 9 -48 8 -128 -3 -128 -18 -122 -18 -122 6 0 14
-8 21 -28 23 -27 3 -28 2 -22 -30z m251 -34 c-3 -9 -6 -21 -6 -29 0 -8 -20
-15 -57 -19 -32 -4 -79 -9 -105 -12 -42 -5 -48 -4 -48 13 1 44 38 58 174 62
40 1 47 -2 42 -15z"/>
</g>
<g id="part-4" class="char-part">
  <path d="M498 324 c5 -9 7 -26 4 -39 -3 -20 -12 -24 -70 -30 -49 -6 -62 -10
-47 -16 11 -4 39 -5 63 -2 49 6 53 -3 22 -52 -23 -38 -72 -77 -121 -99 -30
-13 -31 -14 -10 -15 39 -1 129 48 151 83 11 17 24 38 29 46 8 12 24 0 84 -58
72 -69 77 -72 123 -72 100 0 103 10 12 44 -86 32 -212 112 -202 127 3 5 36 9
75 9 38 0 69 4 69 9 0 16 -39 23 -91 16 l-49 -7 10 26 c8 21 6 27 -10 36 -30
16 -53 13 -42 -6z"/>
</g>
</g>
</svg>