<?xml version="1.0" standalone="no"?>
<!DOCTYPE svg PUBLIC "-//W3C//DTD SVG 20010904//EN"
 "http://www.w3.org/TR/2001/REC-SVG-20010904/DTD/svg10.dtd">
<svg version="1.0" xmlns="http://www.w3.org/2000/svg"
 width="96.000000pt" height="68.000000pt" viewBox="0 0 96.000000 68.000000"
 preserveAspectRatio="xMidYMid meet">
<metadata>
Created by potrace 1.16, written by Peter Selinger 2001-2019
Combined from part_0.svg through part_5.svg with named groups
</metadata>
<g transform="translate(0.000000,68.000000) scale(0.100000,-0.100000)" fill="#000000" stroke="none">
<g id="part-0" class="char-part">
  <path d="M660 599 c-25 -4 -108 -11 -186 -15 l-140 -7 4 -82 c4 -66 0 -96 -19
-155 -24 -76 -74 -162 -128 -219 -17 -19 -29 -36 -27 -39 15 -14 114 79 152
144 28 48 64 148 64 179 0 24 -5 23 273 42 82 5 97 9 96 22 -3 20 16 67 30 76
20 12 11 34 -19 50 -31 16 -33 16 -100 4z m38 -60 c4 -33 -12 -45 -70 -53 -42
-6 -48 -5 -48 11 1 58 17 72 80 70 30 -2 35 -6 38 -28z m-173 -25 l0 -39 -59
-8 c-32 -5 -60 -6 -62 -4 -2 2 -1 22 4 43 7 37 10 39 52 45 63 8 65 7 65 -37z"/>
  <path d="M610 370 c-19 -5 -72 -12 -117 -16 -79 -6 -82 -7 -71 -27 7 -14 9
-59 5 -133 -5 -89 -3 -115 8 -130 14 -18 16 -18 26 -2 8 15 25 18 104 18 89 0
94 -1 112 -26 21 -29 48 -25 59 9 4 12 8 84 8 159 1 104 -2 138 -11 138 -7 0
-13 5 -13 10 0 12 -60 12 -110 0z m80 -59 l0 -29 -97 -8 c-54 -4 -102 -8 -108
-9 -5 0 -10 13 -10 30 0 36 19 42 138 44 l77 1 0 -29z m0 -154 l-5 -48 -104
-4 c-57 -2 -107 -2 -111 0 -4 3 -5 15 -3 28 5 23 10 25 96 32 51 4 98 7 105 8
6 0 12 6 12 13 0 14 -54 13 -157 -1 l-53 -8 0 31 0 30 87 7 c48 4 96 11 108
15 17 6 21 3 25 -24 3 -17 3 -53 0 -79z"/>
</g>
<g id="part-1" class="char-part">
  <path d="M555 584 c-66 -8 -141 -12 -166 -10 l-46 5 1 -70 c1 -59 4 -70 20
-75 10 -4 101 2 201 12 155 15 182 20 178 33 -2 9 8 31 22 50 31 43 31 45 0
59 -31 14 -53 14 -210 -4z m152 -50 c-3 -20 -7 -38 -9 -39 -2 -2 -31 -7 -65
-12 -68 -10 -73 -6 -54 42 5 11 4 25 -1 33 -8 9 5 12 62 12 l73 0 -6 -36z
m-177 -18 c0 -49 -10 -56 -87 -56 -42 0 -43 1 -43 33 0 53 14 62 98 66 31 1
32 0 32 -43z"/>
</g>
<g id="part-2" class="char-part">
  <path d="M353 431 c-5 -3 -17 -33 -27 -66 -27 -87 -61 -151 -123 -228 -48 -59
-51 -67 -27 -54 45 24 129 117 157 173 20 40 57 154 57 176 0 7 -28 6 -37 -1z"/>
</g>
<g id="part-3" class="char-part">
  <path d="M533 361 c-113 -15 -121 -17 -111 -34 5 -10 8 -57 6 -103 -3 -81 -2
-84 20 -84 12 0 22 4 22 9 0 4 43 11 95 15 52 3 101 9 110 12 10 4 15 0 15
-15 0 -16 6 -21 28 -21 l27 0 0 110 c0 145 10 140 -212 111z m157 -50 l0 -28
-87 -7 c-49 -4 -97 -8 -108 -9 -16 -2 -20 4 -20 28 0 26 4 31 35 36 19 4 68 7
108 8 l72 1 0 -29z m0 -84 c0 -32 -1 -32 -47 -32 -27 0 -76 -4 -110 -8 l-63
-8 0 29 0 29 93 10 c50 6 100 11 110 11 13 2 17 -6 17 -31z"/>
</g>
<g id="part-4" class="char-part">
  <path d="M420 107 c0 -31 14 -57 32 -57 4 0 8 7 8 15 0 12 18 15 103 15 101 0
104 -1 115 -25 17 -38 43 -30 61 18 19 50 14 67 -19 67 -22 0 -30 -5 -30 -17
0 -16 -13 -18 -110 -20 -104 -2 -110 -1 -110 17 0 15 -7 20 -25 20 -22 0 -25
-4 -25 -33z"/>
</g>
</g>
</svg>