<?xml version="1.0" standalone="no"?>
<!DOCTYPE svg PUBLIC "-//W3C//DTD SVG 20010904//EN"
 "http://www.w3.org/TR/2001/REC-SVG-20010904/DTD/svg10.dtd">
<svg version="1.0" xmlns="http://www.w3.org/2000/svg"
 width="96.000000pt" height="68.000000pt" viewBox="0 0 96.000000 68.000000"
 preserveAspectRatio="xMidYMid meet">
<metadata>
Created by potrace 1.16, written by Peter Selinger 2001-2019
Combined from part_0.svg through part_5.svg with named groups
</metadata>
<g transform="translate(0.000000,68.000000) scale(0.100000,-0.100000)" fill="#000000" stroke="none">
<g id="part-0" class="char-part">
  <path d="M351 545 c-11 -25 -25 -45 -31 -45 -6 0 -29 9 -51 21 -63 32 -84 19
-27 -17 26 -16 48 -32 48 -35 0 -4 -29 -26 -65 -50 -100 -68 -84 -81 29 -24
75 38 86 36 86 -18 0 -36 -85 -123 -154 -158 -28 -14 -42 -25 -33 -27 21 -4
109 41 152 79 l35 31 0 -60 c0 -34 -5 -73 -10 -88 -10 -25 -13 -26 -62 -20
l-52 7 46 -47 c46 -47 47 -47 72 -30 50 32 61 70 61 201 0 97 -4 127 -20 159
l-19 39 42 36 c48 41 51 53 20 75 -35 24 -45 20 -67 -29z"/>
  <path d="M605 528 c-22 -5 -60 -8 -85 -6 l-45 3 0 -150 c1 -83 4 -156 9 -163
10 -17 26 -15 26 3 0 8 5 15 10 15 6 0 10 -9 10 -19 0 -11 -25 -39 -59 -67
-33 -27 -58 -50 -55 -53 5 -5 104 40 104 48 0 4 18 17 40 31 44 27 48 35 23
48 -13 8 1 12 52 17 64 7 69 6 87 -16 33 -42 44 -8 51 153 5 125 4 145 -10
156 -19 14 -100 14 -158 0z m93 -17 c8 -1 12 -23 12 -75 l0 -73 -57 -7 c-32
-4 -75 -9 -95 -13 l-38 -6 0 37 c0 30 4 37 18 35 31 -4 162 13 162 22 0 17
-19 18 -98 5 l-82 -13 0 38 0 37 63 9 c56 8 72 9 115 4z m20 -211 l3 -35 -73
-3 c-40 -2 -86 -4 -103 -5 -27 -2 -30 1 -33 29 l-3 32 83 10 c120 14 122 13
126 -28z"/>
  <path d="M670 194 c0 -15 129 -136 139 -130 18 12 12 51 -11 73 -39 35 -128
75 -128 57z"/>
</g>
<g id="part-1" class="char-part">
  <path d="M359 553 c-6 -16 -17 -36 -26 -45 -14 -16 -18 -16 -65 8 -62 32 -74
25 -19 -12 23 -14 41 -30 41 -34 0 -10 -65 -62 -98 -79 -13 -7 -21 -15 -18
-18 7 -8 84 24 119 49 45 32 52 15 52 -120 0 -172 -11 -193 -85 -172 l-34 10
39 -40 c22 -22 47 -40 56 -40 10 0 28 15 41 33 20 28 23 45 26 154 3 105 1
128 -17 167 l-20 46 47 45 c45 44 46 46 28 60 -30 23 -55 18 -67 -12z"/>
</g>
<g id="part-2" class="char-part">
  <path d="M308 316 c-15 -19 -62 -57 -105 -86 -76 -50 -71 -57 14 -18 56 26
133 95 133 119 0 28 -11 24 -42 -15z"/>
</g>
<g id="part-3" class="char-part">
  <path d="M630 534 c-41 -8 -93 -13 -115 -12 l-40 3 4 -115 c2 -63 5 -117 8
-120 2 -3 10 2 16 11 8 10 35 19 72 23 33 4 79 9 103 13 40 5 42 4 42 -21 0
-21 4 -25 25 -24 24 2 25 4 25 84 0 45 3 96 6 113 6 28 4 32 -29 46 -20 8 -38
15 -39 14 -2 -1 -37 -8 -78 -15z m68 -27 c6 -5 12 -22 12 -36 0 -24 -4 -27
-32 -27 -18 0 -61 -4 -95 -8 l-63 -9 0 36 0 35 68 9 c90 12 95 12 110 0z m12
-111 c0 -33 0 -33 -57 -40 -32 -4 -75 -9 -95 -13 -38 -6 -38 -5 -38 29 l0 35
93 10 c50 5 93 10 95 11 1 1 2 -13 2 -32z"/>
</g>
<g id="part-4" class="char-part">
  <path d="M475 279 c-10 -14 4 -79 16 -79 5 0 12 6 15 14 4 9 34 15 101 20 94
7 97 7 114 -16 22 -29 37 -17 46 35 5 35 4 37 -20 37 -14 0 -27 -5 -29 -12 -2
-6 -26 -12 -54 -13 -27 -1 -73 -5 -101 -9 -49 -7 -53 -6 -53 13 0 22 -24 29
-35 10z"/>
</g>
<g id="part-5" class="char-part">
  <path d="M495 157 c-33 -34 -50 -53 -37 -43 12 11 22 15 22 10 0 -5 11 4 24
19 14 16 27 28 30 28 15 -2 22 1 41 15 17 13 18 16 5 24 -8 5 -17 9 -20 9 -3
-1 -32 -28 -65 -62z"/>
  <path d="M680 194 c0 -2 25 -31 56 -64 56 -59 82 -76 70 -44 -3 8 -2 12 4 9
21 -13 9 12 -17 37 -25 22 -113 71 -113 62z"/>
</g>
</g>
</svg>