<?xml version="1.0" standalone="no"?>
<!DOCTYPE svg PUBLIC "-//W3C//DTD SVG 20010904//EN"
 "http://www.w3.org/TR/2001/REC-SVG-20010904/DTD/svg10.dtd">
<svg version="1.0" xmlns="http://www.w3.org/2000/svg"
 width="96.000000pt" height="68.000000pt" viewBox="0 0 96.000000 68.000000"
 preserveAspectRatio="xMidYMid meet">
<metadata>
Created by potrace 1.16, written by Peter Selinger 2001-2019
Combined from part_0.svg through part_5.svg with named groups
</metadata>
<g transform="translate(0.000000,68.000000) scale(0.100000,-0.100000)" fill="#000000" stroke="none">
<g id="part-0" class="char-part">
  <path d="M313 583 c8 -42 -7 -133 -24 -144 -8 -5 -30 -9 -50 -9 -50 0 -99 -11
-99 -21 0 -5 34 -9 76 -9 l77 0 -7 -42 c-4 -23 -8 -44 -10 -45 -2 -2 -24 -4
-50 -5 -42 0 -61 -11 -36 -20 5 -1 17 -33 26 -70 9 -38 21 -68 25 -68 5 0 9 5
9 10 0 6 26 10 58 11 48 1 125 15 99 18 -9 1 19 59 42 84 15 17 14 20 -4 33
-10 8 -40 14 -66 14 l-46 0 10 45 10 44 59 7 c37 4 58 11 58 19 0 18 -28 26
-66 19 -40 -7 -42 -1 -17 75 19 60 14 69 -42 78 l-38 6 6 -30z m77 -307 c0
-57 -15 -74 -75 -81 -31 -4 -58 -5 -60 -3 -3 3 -8 25 -11 50 -7 53 -5 55 89
57 54 1 57 0 57 -23z"/>
  <path d="M670 544 c-25 -7 -67 -13 -95 -13 l-50 -1 3 -110 c3 -86 -1 -131 -18
-204 -17 -73 -19 -98 -11 -115 7 -11 16 -21 21 -21 13 0 30 60 38 132 l7 63
60 7 c33 4 70 10 83 13 23 6 23 5 20 -87 -3 -103 -1 -100 -77 -85 l-34 7 29
-22 c16 -13 38 -31 49 -41 31 -28 58 -18 74 28 10 30 12 80 8 201 -3 89 -2
179 3 200 15 64 -13 76 -110 48z m60 -63 l0 -38 -72 -15 c-40 -9 -76 -13 -79
-10 -3 4 -4 26 -2 48 l5 42 66 9 c37 5 70 7 75 5 4 -2 7 -20 7 -41z m0 -115
l0 -43 -42 -6 c-24 -3 -60 -9 -80 -13 l-38 -7 0 46 0 45 63 10 c102 16 97 17
97 -32z"/>
</g>
<g id="part-1" class="char-part">
  <path d="M320 608 c0 -2 -2 -38 -4 -80 -2 -42 -7 -81 -10 -87 -3 -5 -40 -12
-81 -16 -41 -4 -75 -11 -75 -16 0 -5 34 -9 76 -9 l76 0 -7 -32 c-4 -18 -8 -35
-9 -38 0 -3 2 -6 7 -7 24 -9 36 2 47 42 13 47 13 47 93 60 56 9 35 28 -24 23
-27 -3 -49 -2 -49 2 0 8 25 88 35 113 6 13 -1 20 -29 32 -34 15 -46 18 -46 13z"/>
</g>
<g id="part-2" class="char-part">
  <path d="M242 313 l-62 -4 15 -28 c8 -16 17 -47 21 -69 8 -53 19 -69 36 -55 7
6 48 13 91 15 60 2 76 6 72 17 -3 7 6 34 20 59 41 73 30 77 -193 65z m144 -55
c-4 -24 -10 -46 -14 -50 -4 -3 -32 -9 -63 -13 l-56 -7 -7 32 c-14 73 -10 76
93 79 l54 1 -7 -42z"/>
</g>
<g id="part-3" class="char-part">
  <path d="M665 545 c-22 -8 -62 -14 -90 -14 l-50 -1 3 -102 c3 -76 -2 -129 -17
-202 -21 -98 -20 -146 3 -146 18 0 33 39 41 106 11 93 8 91 80 98 36 4 72 9
80 12 14 6 15 -6 13 -87 -3 -104 -1 -102 -78 -84 l-35 7 51 -41 c100 -79 109
-63 110 188 0 108 4 211 8 230 6 24 4 36 -5 42 -19 12 -67 9 -114 -6z m65 -64
l0 -38 -57 -12 c-104 -21 -110 -18 -97 47 7 33 17 37 112 40 l42 2 0 -39z m0
-115 l0 -43 -47 -6 c-27 -3 -63 -9 -80 -13 l-33 -6 0 45 0 45 68 9 c37 6 73
11 80 12 8 1 12 -14 12 -43z"/>
</g>
</g>
</svg>