<?xml version="1.0" standalone="no"?>
<!DOCTYPE svg PUBLIC "-//W3C//DTD SVG 20010904//EN"
 "http://www.w3.org/TR/2001/REC-SVG-20010904/DTD/svg10.dtd">
<svg version="1.0" xmlns="http://www.w3.org/2000/svg"
 width="96.000000pt" height="68.000000pt" viewBox="0 0 96.000000 68.000000"
 preserveAspectRatio="xMidYMid meet">
<metadata>
Created by potrace 1.16, written by Peter Selinger 2001-2019
Combined from part_0.svg through part_5.svg with named groups
</metadata>
<g transform="translate(0.000000,68.000000) scale(0.100000,-0.100000)" fill="#000000" stroke="none">
<g id="part-0" class="char-part">
  <path d="M499 582 c-1 -4 0 -11 1 -17 1 -5 4 -29 6 -51 4 -44 -7 -54 -63 -54
-13 0 -23 -5 -23 -11 0 -6 18 -9 43 -7 41 3 42 2 45 -29 2 -18 -2 -34 -7 -34
-6 -1 -15 -3 -21 -4 -5 -1 -37 -3 -70 -4 -33 0 -60 -5 -60 -10 0 -13 38 -18
85 -10 22 4 42 6 44 4 9 -10 -45 -67 -75 -80 -32 -13 -44 -37 -25 -50 5 -3 54
6 108 20 113 29 155 31 173 10 19 -23 40 -18 40 9 0 19 -10 29 -43 45 -53 26
-75 28 -57 6 17 -21 15 -22 -61 -37 -87 -18 -98 -13 -48 24 23 16 38 35 36 42
-7 17 53 26 161 26 61 0 73 2 63 13 -8 8 -41 11 -107 9 l-94 -3 0 29 c0 27 3
30 45 36 25 4 45 11 45 17 0 10 -11 12 -52 9 -25 -1 -27 1 -30 46 -3 42 -6 48
-30 55 -16 4 -29 4 -29 1z"/>
  <path d="M210 420 c-14 -4 -49 -8 -78 -9 -52 -1 -52 -1 -38 -23 8 -13 21 -49
30 -81 18 -70 21 -75 46 -59 11 7 32 12 47 13 41 1 58 11 61 39 2 14 12 43 22
65 18 37 18 41 3 53 -19 13 -55 14 -93 2z m24 -67 c-8 -58 -12 -63 -38 -63
-25 0 -27 4 -40 62 -6 28 2 33 61 37 20 1 21 -3 17 -36z"/>
  <path d="M630 210 c-84 -15 -195 -25 -254 -24 -42 2 -55 -1 -43 -7 16 -9 52
-108 42 -117 -5 -5 -26 -7 -100 -11 -34 -1 -37 -3 -21 -13 17 -9 86 -8 276 7
14 1 89 3 168 3 78 1 142 6 142 10 0 19 -51 31 -101 25 -51 -6 -51 -6 -44 18
4 13 14 37 23 53 14 28 13 31 -8 48 -12 10 -25 17 -29 17 -3 -1 -26 -5 -51 -9z
m23 -60 c-6 -73 -10 -80 -53 -80 -22 0 -40 2 -40 5 0 3 7 22 15 42 8 19 15 44
15 55 0 16 6 19 33 16 30 -3 32 -5 30 -38z m-105 -22 c-3 -49 -5 -53 -30 -56
-28 -3 -28 -2 -28 52 0 56 0 56 31 56 l30 0 -3 -52z m-88 1 c13 -48 8 -69 -17
-69 -27 0 -37 11 -52 54 -14 42 -10 50 33 54 22 1 27 -4 36 -39z"/>
</g>
<g id="part-1" class="char-part">
  <path d="M220 418 c-14 -5 -49 -10 -77 -10 l-53 0 14 -26 c8 -15 19 -53 26
-84 12 -59 18 -66 36 -48 6 6 33 13 60 16 47 6 49 7 51 40 1 18 10 47 20 64
18 31 17 32 -1 46 -23 16 -41 17 -76 2z m16 -81 c-6 -40 -10 -45 -37 -49 -35
-5 -41 4 -43 60 -1 35 1 37 34 43 47 7 54 -1 46 -54z"/>
</g>
<g id="part-2" class="char-part">
  <path d="M494 569 c18 -86 17 -96 -6 -103 -13 -3 -36 -6 -51 -6 -16 0 -26 -4
-22 -10 3 -5 26 -10 51 -10 42 0 44 -1 44 -29 0 -24 -5 -29 -31 -35 -17 -3
-56 -6 -85 -6 -30 0 -54 -4 -54 -9 0 -14 46 -19 93 -10 23 4 106 11 185 15 78
4 142 10 142 14 0 14 -43 19 -126 13 l-84 -6 0 31 c0 29 2 30 50 37 75 10 65
30 -12 25 -27 -1 -28 0 -28 49 0 44 -3 51 -19 51 -11 0 -27 3 -36 6 -13 5 -15
2 -11 -17z"/>
</g>
<g id="part-3" class="char-part">
  <path d="M469 331 c-11 -15 -39 -38 -60 -51 -26 -14 -39 -28 -37 -38 5 -22 27
-20 158 11 104 25 105 25 126 6 27 -25 46 -24 42 2 -4 26 -41 55 -83 65 -30 7
-30 7 -12 -13 18 -21 17 -21 -46 -32 -102 -18 -108 -15 -63 23 22 19 36 38 32
45 -12 19 -35 12 -57 -18z"/>
</g>
<g id="part-4" class="char-part">
  <path d="M550 141 c0 -55 -8 -71 -36 -71 -22 0 -24 4 -24 50 0 44 -3 50 -21
50 -15 0 -19 -5 -15 -17 3 -10 8 -35 12 -55 l6 -38 -68 -1 c-38 -1 -94 -4
-124 -8 -50 -7 -52 -8 -26 -16 15 -4 63 -5 105 -1 42 4 166 9 276 13 110 3
202 7 203 8 2 2 -7 10 -20 19 -20 13 -40 13 -136 4 -63 -5 -115 -8 -118 -5 -2
2 3 20 11 40 20 49 19 67 -5 67 -17 0 -20 -7 -20 -39z"/>
</g>
</g>
</svg>