<?xml version="1.0" standalone="no"?>
<!DOCTYPE svg PUBLIC "-//W3C//DTD SVG 20010904//EN"
 "http://www.w3.org/TR/2001/REC-SVG-20010904/DTD/svg10.dtd">
<svg version="1.0" xmlns="http://www.w3.org/2000/svg"
 width="96.000000pt" height="68.000000pt" viewBox="0 0 96.000000 68.000000"
 preserveAspectRatio="xMidYMid meet">
<metadata>
Created by potrace 1.16, written by Peter Selinger 2001-2019
Combined from part_0.svg through part_5.svg with named groups
</metadata>
<g transform="translate(0.000000,68.000000) scale(0.100000,-0.100000)" fill="#000000" stroke="none">
<g id="part-0" class="char-part">
  <path d="M545 579 c-16 -5 -55 -12 -85 -14 -38 -3 -54 -8 -53 -17 1 -7 7 -33
13 -58 5 -25 12 -55 15 -66 4 -20 11 -21 90 -20 l84 1 30 75 c25 61 28 77 18
88 -18 17 -76 23 -112 11z m50 -49 c0 -20 -5 -25 -30 -27 -56 -4 -95 -14 -95
-24 0 -9 31 -7 99 7 21 5 23 3 16 -23 -3 -15 -7 -29 -8 -29 -1 -1 -26 -4 -56
-5 -42 -3 -54 -1 -56 11 -2 8 -6 36 -10 62 l-7 47 43 4 c87 8 104 4 104 -23z"/>
  <path d="M200 539 c0 -20 62 -70 84 -67 35 5 33 44 -3 62 -35 18 -81 21 -81 5z"/>
  <path d="M136 402 c-15 -25 76 -94 96 -74 21 21 0 58 -40 70 -47 14 -49 14
-56 4z"/>
  <path d="M515 355 c-116 -12 -212 -23 -215 -24 -3 -1 2 -6 10 -11 8 -6 34 -9
57 -8 24 1 43 -2 43 -7 0 -15 -48 -63 -69 -70 -11 -3 -22 -12 -25 -20 -4 -11
9 -8 44 10 49 25 100 33 100 16 0 -9 -82 -87 -120 -113 l-25 -18 28 10 c45 16
80 37 122 74 22 20 43 36 47 36 4 0 5 6 2 14 -4 9 5 15 25 18 69 10 22 -52
-139 -183 l-25 -20 25 7 c71 19 238 159 226 189 -4 11 2 15 23 15 15 0 30 -2
33 -5 10 -11 -14 -120 -33 -152 -19 -30 -24 -33 -55 -27 -40 7 -43 -2 -10 -34
57 -53 108 -7 136 125 6 26 16 59 22 72 11 20 10 25 -7 37 -24 18 -35 17 -175
-1 -108 -14 -145 -14 -101 0 12 3 21 15 21 25 0 16 15 18 163 25 89 4 165 9
170 12 16 10 -24 33 -55 32 -18 -1 -127 -12 -243 -24z"/>
  <path d="M244 255 c-14 -19 -48 -51 -75 -71 -48 -35 -48 -36 -36 -67 20 -48
48 -46 73 5 11 24 35 69 53 100 36 64 26 87 -15 33z"/>
</g>
<g id="part-1" class="char-part">
  <path d="M200 542 c0 -14 68 -72 84 -72 8 0 17 8 21 17 7 21 -27 53 -55 53
-10 0 -25 3 -34 6 -9 3 -16 2 -16 -4z"/>
  <path d="M140 391 c0 -16 62 -62 79 -59 32 6 24 38 -13 53 -40 17 -66 19 -66
6z"/>
  <path d="M238 242 c-20 -21 -53 -53 -74 -70 -38 -31 -38 -33 -24 -59 21 -37
38 -39 53 -6 7 15 29 59 51 96 21 37 36 70 34 73 -3 2 -21 -13 -40 -34z"/>
</g>
<g id="part-2" class="char-part">
  <path d="M515 574 c-33 -7 -78 -11 -99 -8 l-39 6 21 -26 c12 -16 24 -50 27
-80 9 -73 14 -79 54 -65 18 6 54 9 81 6 l48 -6 32 80 c18 44 30 82 28 83 -32
28 -66 30 -153 10z m83 -41 c-3 -24 -8 -27 -48 -30 -25 -2 -56 -5 -70 -6 -20
-2 -26 3 -28 25 -3 25 -1 27 45 31 111 8 105 10 101 -20z m-13 -70 c-4 -16 -7
-28 -8 -29 -11 -7 -107 -11 -107 -4 0 4 -2 15 -5 23 -5 10 8 17 47 24 82 16
81 16 73 -14z"/>
</g>
<g id="part-3" class="char-part">
  <path d="M510 354 c-118 -12 -217 -23 -220 -24 -17 -5 43 -19 85 -20 l50 -1
-54 -49 c-59 -54 -58 -61 4 -27 79 44 104 62 108 78 3 13 26 17 118 22 63 4
138 7 167 7 56 0 68 14 26 30 -31 12 -21 13 -284 -16z"/>
</g>
<g id="part-4" class="char-part">
  <path d="M510 181 c-41 -43 -88 -88 -105 -100 -28 -21 -29 -22 -5 -16 38 10
124 70 180 124 55 54 62 71 28 70 -15 0 -50 -29 -98 -78z"/>
</g>
</g>
</svg>