<?xml version="1.0" standalone="no"?>
<!DOCTYPE svg PUBLIC "-//W3C//DTD SVG 20010904//EN"
 "http://www.w3.org/TR/2001/REC-SVG-20010904/DTD/svg10.dtd">
<svg version="1.0" xmlns="http://www.w3.org/2000/svg"
 width="96.000000pt" height="68.000000pt" viewBox="0 0 96.000000 68.000000"
 preserveAspectRatio="xMidYMid meet">
<metadata>
Created by potrace 1.16, written by Peter Selinger 2001-2019
Combined from part_0.svg through part_5.svg with named groups
</metadata>
<g transform="translate(0.000000,68.000000) scale(0.100000,-0.100000)" fill="#000000" stroke="none">
<g id="part-0" class="char-part">
  <path d="M312 558 c-15 -58 -61 -129 -135 -205 -87 -91 -59 -97 46 -10 l49 40
-7 -84 c-3 -46 -11 -110 -17 -141 -9 -50 -8 -61 7 -84 31 -48 43 -15 54 156 8
129 7 157 -4 169 -12 13 -8 23 30 77 61 85 62 90 26 108 -16 9 -32 16 -34 16
-3 0 -9 -19 -15 -42z"/>
  <path d="M685 554 c-33 -8 -105 -16 -160 -19 -76 -3 -99 -7 -95 -17 10 -26 3
-204 -10 -258 -7 -30 -25 -80 -39 -110 -36 -77 -36 -77 -11 -55 12 11 33 39
47 62 23 39 31 63 47 136 6 25 10 27 52 27 25 0 88 5 140 11 52 6 97 9 101 6
7 -8 4 -202 -4 -222 -6 -16 -17 -16 -70 1 -10 3 2 -13 26 -35 51 -48 65 -50
87 -16 14 22 17 53 15 213 -1 103 3 202 8 219 8 29 7 35 -16 53 -29 23 -36 23
-118 4z m73 -69 l3 -40 -61 -2 -60 -1 0 34 c0 26 -4 34 -17 34 -15 0 -16 2 -3
10 8 6 42 9 75 8 l60 -3 3 -40z m-180 23 c7 -7 12 -26 12 -44 0 -35 -16 -44
-78 -44 -33 0 -33 0 -30 42 3 39 6 44 33 49 46 10 50 10 63 -3z m182 -113 l0
-35 -50 -1 c-27 -1 -56 -2 -62 -3 -8 -1 -13 11 -13 29 0 28 3 30 45 36 83 11
80 12 80 -26z m-170 -20 l0 -35 -60 0 c-51 0 -60 3 -60 18 0 36 19 45 98 51
19 1 22 -4 22 -34z"/>
  <path d="M548 273 l-57 -4 14 -32 c7 -18 16 -40 19 -51 6 -16 13 -18 53 -12
25 3 59 6 74 6 16 0 29 5 29 11 0 6 9 24 21 40 35 49 23 53 -153 42z m110 -40
c-3 -27 -5 -28 -58 -28 -49 0 -55 2 -58 22 -3 23 11 29 81 32 36 1 38 -1 35
-26z"/>
</g>
<g id="part-1" class="char-part">
  <path d="M320 572 c0 -38 -62 -140 -132 -216 -60 -65 -66 -76 -39 -62 18 10
49 33 70 52 21 19 42 34 46 34 11 0 -1 -200 -14 -234 -13 -33 2 -86 24 -86 17
0 25 32 25 110 1 36 5 97 9 135 7 57 5 73 -7 87 -14 16 -11 24 31 88 26 38 47
74 47 80 0 10 -32 30 -49 30 -6 0 -11 -8 -11 -18z"/>
</g>
<g id="part-2" class="char-part">
  <path d="M680 554 c-36 -8 -109 -15 -163 -17 -76 -2 -96 -5 -92 -15 33 -87 -2
-305 -68 -421 l-20 -36 36 34 c63 60 91 143 105 321 l7 85 85 12 c47 7 108 12
135 10 l50 -2 3 -190 c3 -216 0 -239 -28 -231 -64 18 -65 17 -20 -24 25 -22
51 -40 57 -40 7 0 20 12 30 26 15 23 17 51 15 213 -2 102 2 201 7 218 8 29 7
35 -16 53 -29 23 -34 23 -123 4z"/>
</g>
<g id="part-3" class="char-part">
  <path d="M586 476 c6 -42 6 -43 -26 -50 -18 -3 -43 -6 -57 -6 -15 0 -22 -4
-17 -11 4 -7 24 -9 56 -6 l49 6 -3 -32 c-3 -31 -5 -32 -53 -35 -70 -4 -83 -22
-16 -22 79 0 241 22 241 33 0 5 -28 8 -65 5 l-66 -4 3 30 c2 18 9 32 18 33
105 13 113 15 99 24 -8 5 -37 6 -65 3 l-50 -6 4 35 c3 29 0 35 -20 40 -37 10
-38 9 -32 -37z"/>
</g>
<g id="part-4" class="char-part">
  <path d="M598 274 c-3 -3 -28 -5 -56 -6 l-49 0 20 -48 c18 -42 24 -48 46 -45
14 1 47 3 74 4 27 1 47 6 47 12 0 6 10 24 21 41 18 25 19 32 8 39 -15 10 -102
12 -111 3z m62 -38 c0 -31 -4 -34 -65 -37 -48 -3 -50 -2 -53 23 -3 29 8 34 81
37 33 1 37 -2 37 -23z"/>
</g>
</g>
</svg>