<?xml version="1.0" standalone="no"?>
<!DOCTYPE svg PUBLIC "-//W3C//DTD SVG 20010904//EN"
 "http://www.w3.org/TR/2001/REC-SVG-20010904/DTD/svg10.dtd">
<svg version="1.0" xmlns="http://www.w3.org/2000/svg"
 width="96.000000pt" height="68.000000pt" viewBox="0 0 96.000000 68.000000"
 preserveAspectRatio="xMidYMid meet">
<metadata>
Created by potrace 1.16, written by Peter Selinger 2001-2019
Combined from part_0.svg through part_5.svg with named groups
</metadata>
<g transform="translate(0.000000,68.000000) scale(0.100000,-0.100000)" fill="#000000" stroke="none">
<g id="part-0" class="char-part">
  <path d="M644 555 c9 -13 16 -29 16 -34 0 -6 -27 -13 -60 -17 -33 -3 -57 -10
-54 -15 3 -5 14 -9 25 -9 10 0 19 -2 19 -4 0 -2 11 -29 25 -60 l25 -56 -50 0
c-48 0 -50 2 -70 39 -24 48 -45 65 -29 24 6 -15 24 -68 39 -118 26 -84 50
-121 50 -76 0 18 6 21 45 21 l45 0 0 -105 c0 -82 3 -105 14 -105 16 0 26 43
26 110 0 26 3 62 6 79 6 30 9 31 55 31 48 0 64 12 33 24 -9 3 -31 6 -50 6 -28
0 -35 4 -32 18 1 9 -1 22 -5 29 -5 8 11 13 53 18 33 4 60 11 60 15 0 13 -45
20 -80 14 l-31 -7 20 34 c12 19 21 46 21 61 0 18 7 29 20 33 40 13 21 28 -30
23 -43 -4 -50 -3 -50 13 0 20 -28 39 -55 39 -16 0 -16 -2 -1 -25z m70 -117
c-7 -63 -10 -68 -34 -68 -14 0 -20 10 -25 40 -4 25 -14 44 -26 51 -31 16 -12
29 41 29 l49 0 -5 -52z m-46 -130 c-3 -31 -6 -33 -43 -36 -42 -4 -65 14 -65
50 0 15 9 18 56 18 l55 0 -3 -32z"/>
  <path d="M200 566 c0 -4 7 -20 15 -35 16 -33 12 -41 -24 -41 -38 0 -72 -11
-65 -21 3 -5 13 -9 23 -9 13 0 24 -16 38 -55 l20 -54 -43 -7 c-68 -10 -66 -27
2 -23 l59 4 3 -31 c3 -33 -13 -44 -66 -44 -13 0 -21 -4 -17 -9 3 -6 23 -8 45
-5 30 4 40 1 40 -9 0 -35 -26 -86 -64 -125 l-41 -44 35 17 c34 16 90 81 90
105 0 32 31 68 62 73 18 2 35 3 36 2 2 -2 -6 -25 -17 -50 -27 -61 -27 -74 0
-44 42 46 62 109 67 206 4 73 2 93 -9 93 -24 0 4 16 68 39 43 16 60 27 56 37
-7 20 -37 17 -57 -5 -9 -10 -36 -28 -60 -41 -42 -21 -44 -24 -34 -51 17 -49 7
-72 -30 -73 -37 -1 -37 -1 -16 49 8 21 13 44 10 51 -3 9 2 14 14 14 10 0 22 5
26 11 10 17 -18 29 -53 23 -25 -5 -33 -3 -33 9 0 8 -6 19 -13 25 -15 13 -67
26 -67 18z m76 -192 c-10 -26 -44 -16 -51 15 -3 16 -15 37 -27 47 -20 19 -20
19 28 24 l49 5 3 -39 c2 -21 1 -45 -2 -52z m84 -65 l0 -39 -44 0 c-43 0 -44 1
-42 33 1 26 7 34 31 43 43 15 55 7 55 -37z"/>
  <path d="M427 414 c9 -31 10 -159 3 -238 -6 -58 5 -66 42 -31 31 29 46 31 54
10 10 -25 24 -17 24 14 0 20 -8 34 -26 46 -26 17 -27 17 -21 -4 3 -14 -1 -24
-13 -31 -9 -5 -20 -7 -22 -5 -3 3 -3 61 0 130 3 84 1 125 -6 125 -6 0 -18 3
-27 6 -13 6 -15 2 -8 -22z"/>
</g>
<g id="part-1" class="char-part">
  <path d="M210 552 c0 -5 7 -17 15 -28 22 -29 19 -31 -40 -39 -35 -4 -53 -10
-49 -17 8 -12 125 -4 187 13 54 14 48 33 -8 26 -39 -6 -45 -4 -45 11 0 10 -5
23 -12 30 -14 14 -48 16 -48 4z"/>
</g>
<g id="part-2" class="char-part">
  <path d="M228 296 c4 -34 3 -35 -42 -41 -26 -4 -43 -11 -40 -17 4 -6 23 -7 45
-4 22 3 39 3 39 -1 0 -34 -29 -93 -63 -131 l-42 -46 44 25 c44 24 74 66 99
138 9 25 16 31 41 31 16 0 33 5 36 10 4 6 -10 10 -34 10 -40 0 -40 1 -34 30 5
28 3 30 -24 30 -27 0 -29 -2 -25 -34z"/>
</g>
<g id="part-3" class="char-part">
  <path d="M422 510 c-30 -22 -58 -40 -64 -42 -6 -2 -6 -13 0 -28 15 -42 -3
-182 -31 -244 -26 -57 -24 -71 6 -38 39 43 60 115 64 217 l3 99 60 25 c33 14
59 29 57 35 -7 23 -44 13 -95 -24z"/>
</g>
<g id="part-4" class="char-part">
  <path d="M491 445 c-2 -23 67 -229 78 -233 25 -8 9 67 -33 153 -25 50 -45 86
-45 80z"/>
</g>
<g id="part-5" class="char-part">
  <path d="M679 331 c-6 -47 -4 -98 4 -108 6 -8 6 -13 0 -13 -6 0 -9 -33 -7 -77
3 -103 3 -101 15 -80 15 26 19 177 5 177 -6 0 -4 5 4 10 8 5 11 10 5 10 -5 0
-3 5 5 10 8 5 38 10 65 11 44 1 46 2 22 9 -16 5 -34 7 -40 5 -7 -2 -25 -6 -42
-10 -27 -6 -28 -5 -11 8 22 16 18 50 -7 55 -9 2 -18 -1 -18 -7z"/>
  <path d="M625 260 c27 -12 43 -12 25 0 -8 5 -22 9 -30 9 -10 0 -8 -3 5 -9z"/>
</g>
</g>
</svg>