<?xml version="1.0" standalone="no"?>
<!DOCTYPE svg PUBLIC "-//W3C//DTD SVG 20010904//EN"
 "http://www.w3.org/TR/2001/REC-SVG-20010904/DTD/svg10.dtd">
<svg version="1.0" xmlns="http://www.w3.org/2000/svg"
 width="96.000000pt" height="68.000000pt" viewBox="0 0 96.000000 68.000000"
 preserveAspectRatio="xMidYMid meet">
<metadata>
Created by potrace 1.16, written by Peter Selinger 2001-2019
Combined from part_0.svg through part_5.svg with named groups
</metadata>
<g transform="translate(0.000000,68.000000) scale(0.100000,-0.100000)" fill="#000000" stroke="none">
<g id="part-0" class="char-part">
  <path d="M410 629 c0 -6 9 -24 20 -40 l21 -28 -23 -5 c-13 -3 -63 -8 -113 -11
-95 -7 -108 -11 -85 -25 20 -13 71 -12 283 4 165 13 213 23 193 43 -10 10 -98
10 -158 0 -47 -8 -48 -8 -48 18 0 20 -8 29 -35 41 -41 17 -55 18 -55 3z"/>
  <path d="M577 503 c-2 -5 -7 -21 -11 -37 -4 -16 -19 -44 -33 -62 -18 -25 -21
-34 -11 -34 8 0 23 9 33 20 24 26 29 26 81 -12 35 -25 47 -29 56 -20 19 19 -3
46 -48 56 -21 5 -40 10 -42 11 -1 1 5 16 15 34 16 28 16 33 3 41 -18 12 -37
13 -43 3z"/>
  <path d="M311 454 c-7 -19 -28 -49 -47 -66 -48 -44 -42 -55 10 -19 41 28 76
33 76 10 0 -14 41 -32 51 -22 16 16 -1 41 -32 48 -35 8 -35 12 -7 42 19 20 20
25 8 33 -28 18 -46 10 -59 -26z"/>
  <path d="M445 360 c-3 -5 -3 -19 0 -32 10 -42 -3 -47 -158 -54 -81 -4 -150
-10 -152 -15 -11 -16 56 -27 117 -19 35 5 92 10 128 12 l65 3 3 -110 c1 -60 5
-117 8 -125 9 -24 34 46 34 94 0 22 3 65 6 94 l7 52 127 0 c132 0 190 6 190
21 0 19 -77 28 -170 19 -147 -15 -153 -14 -147 13 4 12 3 27 -1 33 -9 15 -51
24 -57 14z"/>
</g>
<g id="part-1" class="char-part">
  <path d="M410 627 c0 -2 11 -19 25 -38 l26 -34 -58 -6 c-32 -4 -84 -7 -115 -8
-91 -2 -69 -21 23 -21 112 0 371 20 389 30 28 16 -30 28 -90 19 -93 -13 -110
-11 -110 10 0 24 -36 51 -67 51 -13 0 -23 -1 -23 -3z"/>
</g>
<g id="part-2" class="char-part">
  <path d="M316 466 c-3 -13 -26 -47 -52 -75 -52 -58 -47 -65 15 -21 l42 31 31
-26 c17 -14 36 -24 42 -22 21 7 11 31 -19 47 -16 8 -32 16 -34 18 -3 1 6 13
18 26 26 28 21 46 -14 46 -16 0 -25 -7 -29 -24z"/>
</g>
<g id="part-3" class="char-part">
  <path d="M577 503 c-4 -3 -7 -14 -7 -23 0 -9 -13 -37 -30 -63 -30 -48 -21 -66
15 -27 24 26 28 26 82 -11 31 -22 48 -28 55 -21 19 19 -1 42 -47 54 -50 14
-55 25 -23 52 21 18 21 19 3 32 -21 15 -38 18 -48 7z"/>
</g>
<g id="part-4" class="char-part">
  <path d="M442 328 l3 -43 -70 -6 c-38 -4 -107 -7 -152 -8 -45 0 -84 -5 -87
-10 -11 -18 53 -30 111 -21 32 4 91 11 131 14 l72 6 0 -119 c0 -66 4 -122 9
-125 14 -9 31 51 31 109 0 29 3 72 6 96 l6 44 137 -3 c75 -2 148 1 161 7 25 9
25 9 -11 25 -30 12 -52 13 -125 6 -49 -5 -106 -10 -128 -10 -37 0 -38 1 -33
29 5 26 3 31 -25 40 -17 6 -33 11 -35 11 -2 0 -3 -19 -1 -42z"/>
</g>
</g>
</svg>