<?xml version="1.0" standalone="no"?>
<!DOCTYPE svg PUBLIC "-//W3C//DTD SVG 20010904//EN"
 "http://www.w3.org/TR/2001/REC-SVG-20010904/DTD/svg10.dtd">
<svg version="1.0" xmlns="http://www.w3.org/2000/svg"
 width="96.000000pt" height="68.000000pt" viewBox="0 0 96.000000 68.000000"
 preserveAspectRatio="xMidYMid meet">
<metadata>
Created by potrace 1.16, written by Peter Selinger 2001-2019
Combined from part_0.svg through part_5.svg with named groups
</metadata>
<g transform="translate(0.000000,68.000000) scale(0.100000,-0.100000)" fill="#000000" stroke="none">
<g id="part-0" class="char-part">
  <path d="M308 555 c-25 -24 -117 -75 -137 -75 -6 0 -11 -4 -11 -10 0 -5 13
-10 30 -10 19 0 38 -9 55 -27 l25 -28 -22 -18 c-13 -10 -48 -31 -78 -47 -63
-33 -45 -40 25 -10 74 32 100 22 53 -19 -13 -11 -34 -29 -47 -40 -13 -11 -32
-23 -42 -26 -17 -6 -27 -25 -14 -25 14 0 95 43 113 60 28 27 42 25 42 -4 0
-15 -12 -33 -32 -48 -54 -41 -132 -94 -148 -101 -8 -4 -1 -5 15 -1 41 8 107
41 139 71 14 13 31 21 37 17 15 -9 5 -78 -16 -110 -14 -22 -22 -25 -48 -20
l-31 6 29 -30 c55 -57 106 -15 113 93 5 80 -12 144 -49 178 -16 15 -29 29 -29
32 0 3 32 24 70 47 39 23 70 46 70 51 0 13 -50 31 -67 25 -7 -3 -13 -12 -13
-20 0 -7 -11 -21 -25 -30 -24 -16 -25 -15 -25 3 0 11 -9 23 -21 26 -17 6 -10
12 39 35 63 30 75 40 64 56 -15 23 -41 22 -64 -1z"/>
  <path d="M515 550 c8 -13 -58 -137 -92 -172 -35 -37 -24 -46 16 -12 l32 27 35
-19 c20 -11 33 -25 32 -34 -2 -8 -38 -39 -82 -67 -43 -29 -75 -53 -72 -53 19
0 98 39 140 69 33 23 52 32 61 25 116 -84 152 -97 223 -78 35 10 26 21 -30 34
-49 12 -178 67 -178 76 0 6 51 63 73 83 9 8 17 21 17 28 0 19 -47 35 -68 24
-15 -8 -63 -15 -85 -12 -5 1 1 15 13 31 18 25 19 34 10 45 -14 17 -55 21 -45
5z m105 -106 c0 -18 -44 -74 -57 -74 -22 0 -73 32 -73 46 0 7 12 17 28 22 30
12 102 15 102 6z"/>
  <path d="M140 431 c0 -12 47 -61 60 -61 17 0 11 36 -8 53 -20 18 -52 23 -52 8z"/>
  <path d="M535 200 c-38 -5 -81 -6 -94 -3 -24 6 -24 5 -8 -18 9 -13 20 -44 23
-70 8 -60 19 -78 36 -61 8 8 44 12 104 12 l91 0 7 42 c4 23 15 51 24 61 16 18
16 20 -3 33 -20 15 -66 16 -180 4z m110 -86 l-6 -34 -73 0 -73 0 -7 31 c-13
68 -14 68 77 71 91 3 95 0 82 -68z"/>
</g>
<g id="part-1" class="char-part">
  <path d="M313 558 c-11 -20 -61 -52 -108 -71 l-40 -16 31 0 c22 -1 37 -8 48
-26 18 -27 46 -34 46 -11 0 7 -9 20 -21 27 -20 14 -18 16 40 44 41 19 61 34
59 45 -4 19 -44 25 -55 8z"/>
  <path d="M337 457 c-13 -21 -71 -63 -183 -134 -10 -7 13 0 51 16 80 32 200
106 200 124 0 7 -12 13 -26 15 -19 2 -31 -4 -42 -21z"/>
  <path d="M150 427 c0 -16 32 -47 48 -47 20 0 13 28 -10 44 -28 20 -38 20 -38
3z"/>
</g>
<g id="part-2" class="char-part">
  <path d="M280 245 c-14 -16 -59 -50 -100 -78 -55 -36 -67 -48 -45 -43 85 20
179 87 174 125 l-4 23 -25 -27z"/>
</g>
<g id="part-3" class="char-part">
  <path d="M515 557 c-2 -6 -6 -23 -9 -37 -5 -23 -45 -88 -103 -170 l-18 -25 31
23 c49 34 154 164 154 190 0 5 -11 14 -25 20 -20 9 -27 9 -30 -1z"/>
</g>
<g id="part-4" class="char-part">
  <path d="M613 480 c-11 -5 -36 -10 -54 -12 -18 -2 -34 -9 -37 -16 -3 -11 13
-11 81 3 24 4 21 -14 -9 -58 l-25 -38 -45 25 c-52 29 -57 22 -12 -17 l33 -27
-30 -26 c-16 -14 -50 -39 -74 -55 -25 -16 -40 -29 -34 -29 20 0 78 29 122 60
l43 32 69 -47 68 -47 67 7 c36 4 62 10 58 14 -5 4 -36 15 -69 25 -33 10 -84
30 -113 45 l-53 27 31 39 c17 21 40 45 50 52 26 19 25 27 -5 41 -30 14 -32 14
-62 2z"/>
</g>
<g id="part-5" class="char-part">
  <path d="M635 200 c-4 -6 -1 -9 7 -8 18 4 19 -69 2 -103 -13 -26 -13 -27 10
-16 12 6 28 25 35 42 7 16 16 37 20 45 9 17 -14 45 -29 35 -6 -3 -10 -1 -10 4
0 14 -27 14 -35 1z m42 -52 c-3 -8 -6 -5 -6 6 -1 11 2 17 5 13 3 -3 4 -12 1
-19z"/>
  <path d="M536 191 c-3 -5 11 -7 32 -4 49 7 54 13 9 13 -20 0 -38 -4 -41 -9z"/>
  <path d="M445 180 c-4 -6 -2 -10 4 -10 6 0 8 -7 5 -15 -4 -8 -2 -15 4 -15 6 0
9 -12 7 -27 -3 -32 3 -53 16 -53 5 0 6 12 2 28 -3 15 -7 42 -7 59 -1 32 -20
52 -31 33z"/>
  <path d="M565 70 c-3 -5 3 -10 14 -10 12 0 21 5 21 10 0 6 -6 10 -14 10 -8 0
-18 -4 -21 -10z"/>
</g>
</g>
</svg>