<?xml version="1.0" standalone="no"?>
<!DOCTYPE svg PUBLIC "-//W3C//DTD SVG 20010904//EN"
 "http://www.w3.org/TR/2001/REC-SVG-20010904/DTD/svg10.dtd">
<svg version="1.0" xmlns="http://www.w3.org/2000/svg"
 width="96.000000pt" height="68.000000pt" viewBox="0 0 96.000000 68.000000"
 preserveAspectRatio="xMidYMid meet">
<metadata>
Created by potrace 1.16, written by Peter Selinger 2001-2019
Combined from part_0.svg through part_5.svg with named groups
</metadata>
<g transform="translate(0.000000,68.000000) scale(0.100000,-0.100000)" fill="#000000" stroke="none">
<g id="part-0" class="char-part">
  <path d="M419 565 c-3 -2 -61 -11 -129 -20 -68 -8 -125 -17 -128 -20 -3 -3 3
-14 13 -25 15 -17 17 -31 11 -92 -8 -93 -36 -199 -69 -265 -15 -29 -27 -55
-27 -58 0 -17 45 23 70 61 25 40 35 71 71 213 5 23 13 40 17 36 4 -3 14 -34
22 -68 15 -59 18 -62 48 -65 l32 -3 0 -79 0 -80 -26 11 c-39 14 -40 5 -2 -30
30 -28 34 -29 50 -14 14 13 18 32 18 97 0 94 8 111 43 102 26 -6 35 7 52 74 3
14 11 35 17 48 10 18 8 25 -8 37 -23 18 -54 19 -105 3 -22 -6 -42 -9 -45 -5
-3 3 6 22 21 41 15 19 24 39 21 44 -3 5 21 13 54 16 40 5 60 11 60 20 0 16
-69 34 -81 21z m-85 -82 c-16 -67 -22 -74 -56 -71 -30 3 -33 6 -36 41 -3 31 1
39 20 46 13 6 35 10 51 10 25 1 27 -1 21 -26z m110 -71 c10 -16 -6 -51 -22
-50 -10 1 -43 -2 -74 -7 -50 -6 -58 -5 -58 9 0 9 -1 19 -2 23 -2 4 29 13 67
19 39 6 73 12 77 13 4 0 9 -3 12 -7z m-8 -94 c-2 -20 -11 -24 -57 -30 -65 -9
-79 -5 -79 21 0 22 18 27 92 30 44 1 48 -1 44 -21z"/>
  <path d="M630 544 c-52 -7 -99 -13 -105 -13 -26 -3 24 -21 58 -21 36 0 37 -1
31 -27 -10 -41 -23 -53 -56 -53 -26 0 -29 -2 -18 -15 10 -12 11 -41 6 -116 -7
-106 0 -134 32 -121 14 5 13 1 -3 -25 -11 -17 -33 -45 -48 -63 -39 -43 -27
-48 25 -11 72 51 104 82 91 88 -28 11 -10 21 44 25 44 4 61 1 69 -10 6 -8 18
-13 27 -9 23 9 29 245 7 265 -15 14 -115 10 -157 -5 -13 -4 -10 3 10 24 29 31
35 52 15 54 -33 3 44 17 94 18 56 1 82 13 52 25 -21 8 -60 6 -174 -10z m118
-149 c3 -30 2 -30 -50 -31 -29 0 -68 -3 -85 -7 -31 -6 -33 -5 -33 22 0 26 4
28 58 38 90 16 107 13 110 -22z m10 -69 c0 -21 -6 -24 -52 -29 -28 -4 -68 -9
-88 -13 -36 -6 -38 -5 -38 19 0 24 4 26 58 32 31 3 64 8 72 9 39 9 48 5 48
-18z m2 -76 c0 -29 -2 -30 -44 -30 -24 0 -64 -3 -90 -6 -44 -6 -46 -6 -46 19
0 24 4 26 58 32 31 3 64 8 72 9 43 10 50 6 50 -24z"/>
  <path d="M225 176 c-11 -24 -23 -42 -27 -40 -5 3 -8 0 -8 -5 0 -20 25 -10 66
27 43 39 47 62 10 62 -16 0 -27 -11 -41 -44z"/>
  <path d="M440 212 c0 -14 50 -77 62 -77 23 0 19 26 -10 55 -29 29 -52 39 -52
22z"/>
  <path d="M711 162 c10 -27 102 -113 116 -108 21 9 12 46 -17 67 -33 24 -103
53 -99 41z"/>
</g>
<g id="part-1" class="char-part">
  <path d="M281 541 c-108 -14 -122 -18 -108 -30 37 -30 12 -224 -44 -350 -35
-76 -35 -80 -8 -55 54 49 98 179 114 337 l7 67 41 1 c23 0 56 2 72 5 109 16
128 20 129 29 1 16 -68 14 -203 -4z"/>
</g>
<g id="part-2" class="char-part">
  <path d="M348 184 l4 -77 -39 8 -38 7 37 -36 c61 -59 71 -49 78 82 l5 92 -25
0 c-25 0 -25 -1 -22 -76z"/>
  <path d="M240 207 c0 -7 -14 -32 -31 -55 -35 -48 -26 -54 23 -15 71 60 74 63
58 73 -22 14 -50 12 -50 -3z"/>
  <path d="M461 175 c30 -44 48 -53 57 -27 5 15 -54 72 -74 72 -9 0 -3 -16 17
-45z"/>
</g>
<g id="part-3" class="char-part">
  <path d="M645 549 c-115 -16 -130 -20 -114 -30 8 -5 31 -9 52 -9 41 0 45 -9
23 -52 -19 -37 -5 -35 40 4 32 28 34 33 20 44 -14 10 -12 12 15 18 17 3 53 6
80 6 26 0 50 4 53 9 14 22 -57 26 -169 10z"/>
</g>
<g id="part-4" class="char-part">
  <path d="M665 439 c-22 -4 -62 -8 -88 -8 -45 -1 -47 -2 -36 -22 6 -13 10 -52
7 -95 -3 -64 -1 -74 13 -74 10 0 19 4 21 9 3 10 26 15 121 26 49 6 57 5 57 -9
0 -9 8 -16 19 -16 18 0 20 9 23 88 2 67 0 90 -11 100 -16 13 -65 14 -126 1z
m80 -21 c3 -7 6 -37 7 -66 l3 -54 -40 -2 c-22 -2 -61 -6 -87 -11 -47 -7 -48
-7 -48 18 0 26 2 27 113 43 26 3 47 11 47 17 0 10 -57 6 -127 -9 -32 -6 -33
-5 -33 24 0 29 3 31 48 37 26 4 52 8 57 10 24 8 56 4 60 -7z"/>
</g>
<g id="part-5" class="char-part">
  <path d="M585 170 c-3 -5 -1 -10 4 -10 6 0 11 5 11 10 0 6 -2 10 -4 10 -3 0
-8 -4 -11 -10z"/>
  <path d="M613 168 c6 -16 -2 -22 -24 -20 -4 1 -21 -17 -38 -38 -18 -22 -27
-40 -21 -40 5 0 10 4 10 8 0 5 11 14 25 20 17 8 23 17 19 29 -5 14 -4 15 4 4
8 -11 14 -10 31 6 20 19 21 21 4 34 -15 12 -16 12 -10 -3z"/>
  <path d="M720 156 c0 -1 18 -22 39 -45 25 -27 44 -40 52 -35 8 5 10 3 4 -6 -5
-8 -3 -11 5 -8 25 8 21 25 -12 49 -31 23 -88 52 -88 45z m65 -44 c-3 -3 -11 0
-18 7 -9 10 -8 11 6 5 10 -3 15 -9 12 -12z"/>
</g>
</g>
</svg>