<?xml version="1.0" standalone="no"?>
<!DOCTYPE svg PUBLIC "-//W3C//DTD SVG 20010904//EN"
 "http://www.w3.org/TR/2001/REC-SVG-20010904/DTD/svg10.dtd">
<svg version="1.0" xmlns="http://www.w3.org/2000/svg"
 width="96.000000pt" height="68.000000pt" viewBox="0 0 96.000000 68.000000"
 preserveAspectRatio="xMidYMid meet">
<metadata>
Created by potrace 1.16, written by Peter Selinger 2001-2019
Combined from part_0.svg through part_5.svg with named groups
</metadata>
<g transform="translate(0.000000,68.000000) scale(0.100000,-0.100000)" fill="#000000" stroke="none">
<g id="part-0" class="char-part">
  <path d="M510 575 c0 -33 -2 -35 -40 -41 -50 -8 -52 -24 -4 -24 35 0 36 -1 31
-30 -8 -38 7 -39 30 -2 9 15 18 29 19 30 1 2 32 7 69 12 37 5 69 11 73 15 14
13 -25 25 -71 22 -43 -3 -47 -2 -41 16 7 22 -10 37 -43 37 -20 0 -23 -5 -23
-35z"/>
  <path d="M256 581 c-3 -5 4 -20 15 -35 l20 -26 -65 0 c-51 0 -66 -3 -66 -15 0
-32 65 -42 124 -19 7 3 18 -7 24 -21 14 -31 32 -24 32 11 0 19 6 26 30 31 41
8 38 23 -5 23 -28 0 -35 4 -35 20 0 29 -60 55 -74 31z"/>
  <path d="M396 451 c5 -29 4 -29 -56 -36 -73 -8 -70 -25 6 -25 47 0 54 -3 54
-19 0 -25 -12 -28 -138 -36 -116 -8 -124 -22 -17 -27 l70 -3 -50 -49 c-54 -53
-39 -54 37 -3 26 18 48 40 48 50 0 10 8 17 19 17 10 0 39 3 64 6 44 6 45 6 52
-25 9 -42 45 -59 120 -57 84 2 86 20 3 24 -68 3 -93 17 -83 44 6 16 66 28 141
28 48 0 59 16 18 26 -26 7 -179 -2 -221 -13 -19 -4 -23 -1 -23 20 0 27 20 37
80 37 19 0 41 4 49 9 25 16 -8 23 -71 16 -52 -6 -60 -5 -55 8 7 18 -11 37 -34
37 -13 0 -16 -7 -13 -29z"/>
  <path d="M375 253 c-3 -15 -36 -55 -72 -90 -37 -35 -63 -63 -59 -63 4 0 28 11
55 24 l48 25 34 -28 33 -28 -39 -20 c-22 -12 -56 -24 -75 -28 -19 -4 -42 -12
-50 -17 -23 -14 55 1 129 25 l63 20 58 -31 c52 -29 65 -32 136 -31 44 1 93 4
109 8 l30 7 -30 7 c-16 3 -48 9 -70 13 -79 12 -195 46 -195 58 0 6 21 33 45
60 25 27 43 51 40 54 -8 9 -73 7 -125 -3 l-45 -8 19 21 c16 19 17 23 3 37 -22
22 -34 19 -42 -12z m115 -60 c0 -17 -41 -73 -52 -73 -19 0 -78 38 -78 50 0 5
6 10 13 11 32 1 81 10 85 14 8 8 32 6 32 -2z"/>
</g>
<g id="part-1" class="char-part">
  <path d="M520 582 c0 -15 -5 -33 -12 -40 -7 -7 -25 -12 -40 -12 -15 0 -28 -4
-28 -10 0 -5 15 -10 34 -10 31 0 33 -2 29 -27 l-4 -28 28 32 c24 27 37 32 91
38 94 10 81 31 -17 25 -30 -2 -33 1 -28 19 3 14 -1 24 -13 31 -30 16 -40 12
-40 -18z"/>
  <path d="M260 573 c0 -5 7 -17 15 -27 22 -28 10 -36 -56 -36 -63 0 -75 -10
-35 -28 17 -7 35 -8 58 -1 49 14 65 11 71 -11 8 -30 30 -25 24 6 -4 21 0 26
24 31 43 8 46 23 5 23 -30 0 -37 4 -42 25 -5 19 -13 25 -35 25 -16 0 -29 -3
-29 -7z"/>
</g>
<g id="part-2" class="char-part">
  <path d="M396 451 c6 -26 3 -28 -33 -34 -21 -4 -51 -7 -68 -7 -23 0 -27 -3
-15 -10 8 -5 39 -10 68 -10 45 0 52 -3 52 -19 0 -23 -17 -27 -147 -37 -51 -3
-90 -10 -87 -15 7 -12 86 -11 210 0 55 6 152 13 217 16 64 4 117 11 117 16 0
16 -64 25 -125 17 -158 -20 -145 -20 -145 6 0 22 6 25 53 31 71 9 88 15 81 27
-4 6 -29 7 -65 3 -55 -6 -59 -5 -59 13 0 19 -18 32 -46 32 -10 0 -12 -8 -8
-29z"/>
</g>
<g id="part-3" class="char-part">
  <path d="M486 303 c12 -49 28 -58 111 -58 52 0 78 4 80 13 4 9 -12 12 -57 12
-73 0 -104 13 -95 41 5 15 2 19 -20 19 -23 0 -25 -3 -19 -27z"/>
  <path d="M308 304 c-7 -8 -33 -35 -58 -60 -27 -27 -37 -42 -25 -38 33 12 125
78 125 90 0 19 -29 24 -42 8z"/>
</g>
<g id="part-4" class="char-part">
  <path d="M446 216 c-27 -7 -51 -17 -54 -24 -5 -15 13 -15 55 0 42 15 49 7 27
-31 -24 -41 -40 -45 -82 -21 -47 28 -55 15 -13 -19 l35 -28 -25 -13 c-13 -8
-55 -24 -94 -36 -38 -13 -62 -23 -51 -24 26 0 135 29 167 46 25 13 31 11 85
-21 55 -33 63 -35 143 -34 47 1 97 4 111 8 l25 8 -30 6 c-16 3 -48 9 -70 13
-59 9 -195 45 -200 53 -2 4 18 30 45 58 68 71 47 88 -74 59z"/>
</g>
</g>
</svg>