<?xml version="1.0" standalone="no"?>
<!DOCTYPE svg PUBLIC "-//W3C//DTD SVG 20010904//EN"
 "http://www.w3.org/TR/2001/REC-SVG-20010904/DTD/svg10.dtd">
<svg version="1.0" xmlns="http://www.w3.org/2000/svg"
 width="96.000000pt" height="68.000000pt" viewBox="0 0 96.000000 68.000000"
 preserveAspectRatio="xMidYMid meet">
<metadata>
Created by potrace 1.16, written by Peter Selinger 2001-2019
Combined from part_0.svg through part_5.svg with named groups
</metadata>
<g transform="translate(0.000000,68.000000) scale(0.100000,-0.100000)" fill="#000000" stroke="none">
<g id="part-0" class="char-part">
  <path d="M530 562 c0 -4 5 -13 10 -18 10 -10 43 -125 38 -129 -2 -1 -34 -7
-73 -14 -143 -26 -142 -26 -95 -36 19 -4 59 0 101 10 39 10 71 16 73 14 2 -2
20 -44 40 -94 20 -50 39 -95 42 -102 3 -7 -16 -35 -41 -62 -26 -28 -44 -51
-39 -51 13 0 84 52 84 61 0 19 28 8 44 -16 38 -58 114 -111 132 -92 3 3 1 22
-5 44 -6 21 -11 50 -11 66 0 36 -16 35 -23 -3 -4 -16 -13 -30 -20 -30 -17 0
-67 52 -67 69 0 8 14 40 30 73 34 67 37 83 14 92 -29 11 -41 6 -41 -18 0 -34
-23 -97 -33 -91 -9 6 -45 95 -56 140 -6 24 -4 25 37 26 24 1 55 4 69 8 l25 7
-22 12 c-13 7 -46 11 -75 10 l-53 -3 -3 58 c-3 51 -6 59 -28 67 -31 12 -54 13
-54 2z"/>
  <path d="M220 535 c7 -8 9 -15 6 -15 -8 0 9 -21 41 -54 l22 -23 -95 -13 c-52
-7 -97 -16 -100 -21 -3 -5 6 -14 20 -20 20 -10 53 -7 161 12 139 25 168 42 79
47 -49 3 -50 4 -46 31 5 36 -30 71 -71 71 -25 0 -28 -2 -17 -15z"/>
  <path d="M680 524 c0 -13 60 -64 74 -64 26 0 26 29 -1 50 -24 19 -73 28 -73
14z"/>
  <path d="M253 347 c-70 -14 -69 -32 1 -23 65 7 88 15 80 27 -6 10 -8 10 -81
-4z"/>
  <path d="M508 291 c-2 -34 -7 -47 -20 -49 -13 -3 -18 3 -18 22 0 15 -8 30 -19
36 -29 15 -34 13 -27 -14 9 -35 -3 -56 -31 -56 -13 0 -21 -4 -18 -10 3 -5 15
-10 26 -10 12 0 19 -7 19 -18 0 -22 -27 -79 -41 -87 -5 -4 -9 -11 -9 -17 0
-24 60 47 76 89 13 34 22 43 40 43 22 0 23 -4 26 -77 2 -61 6 -78 18 -78 12 0
16 17 18 83 l3 82 29 0 c39 0 38 19 -1 27 -28 5 -30 8 -25 38 6 29 4 33 -18
37 -23 5 -25 2 -28 -41z"/>
  <path d="M240 276 c-61 -13 -55 -31 7 -21 21 3 53 8 72 11 26 4 31 8 20 15
-17 11 -28 10 -99 -5z"/>
  <path d="M260 199 c-14 -6 -44 -9 -68 -6 -39 4 -42 3 -29 -12 8 -9 20 -34 27
-56 15 -47 25 -61 34 -46 4 6 22 11 39 11 43 0 78 10 72 20 -3 5 4 25 15 45
11 20 18 40 15 46 -8 12 -73 11 -105 -2z m48 -40 c-3 -33 -22 -49 -61 -49 -17
0 -27 7 -31 23 -12 46 -10 48 77 55 14 2 17 -5 15 -29z"/>
</g>
<g id="part-1" class="char-part">
  <path d="M220 545 c0 -20 53 -85 70 -85 28 0 26 35 -5 65 -21 22 -65 35 -65
20z"/>
  <path d="M275 439 c-27 -5 -81 -14 -119 -20 -68 -11 -69 -12 -44 -25 23 -12
40 -11 128 6 56 11 115 20 132 20 42 0 31 25 -13 27 -19 0 -56 -3 -84 -8z"/>
</g>
<g id="part-2" class="char-part">
  <path d="M270 203 c-27 -8 -61 -12 -84 -8 -38 6 -39 5 -24 -12 8 -10 21 -36
28 -58 15 -47 25 -61 34 -46 4 6 26 11 49 11 46 0 60 7 65 30 2 8 10 28 18 44
23 46 -13 63 -86 39z m36 -45 c-11 -54 -64 -68 -84 -23 -18 38 -15 43 21 48
72 9 70 10 63 -25z"/>
</g>
<g id="part-3" class="char-part">
  <path d="M530 566 c0 -2 9 -23 19 -47 10 -24 22 -58 25 -74 l7 -31 -78 -13
c-99 -16 -115 -20 -108 -32 9 -13 55 -11 125 7 34 8 63 14 65 12 2 -2 19 -43
39 -93 21 -50 39 -95 42 -101 3 -6 -17 -35 -43 -64 -50 -56 -37 -56 36 -2 l34
26 16 -25 c30 -47 91 -99 118 -99 22 0 24 3 19 23 -4 12 -10 47 -13 77 l-6 55
-19 -44 -19 -44 -34 33 c-19 19 -35 41 -35 50 0 9 13 41 30 71 29 52 38 89 23
89 -5 0 -18 3 -30 6 -21 6 -23 3 -23 -27 -1 -19 -6 -47 -13 -63 -10 -23 -15
-26 -24 -15 -11 14 -53 130 -53 149 0 5 17 11 38 11 20 1 51 4 67 8 l30 7 -24
13 c-15 9 -38 11 -69 6 -54 -8 -62 0 -62 67 0 36 -4 50 -19 58 -19 10 -61 14
-61 6z"/>
  <path d="M680 521 c0 -13 59 -61 75 -61 18 0 26 14 19 33 -10 26 -94 52 -94
28z"/>
</g>
<g id="part-4" class="char-part">
  <path d="M511 297 c2 -26 2 -47 -1 -47 -3 0 -14 -3 -26 -6 -18 -5 -20 -2 -16
24 3 24 0 30 -20 35 -36 10 -39 8 -28 -13 16 -31 3 -60 -26 -60 -14 0 -22 -4
-19 -10 3 -5 15 -10 26 -10 27 0 25 -39 -6 -84 -13 -20 -20 -36 -16 -36 16 0
59 58 71 95 9 27 17 35 35 35 23 0 24 -3 27 -77 2 -61 6 -78 18 -78 12 0 16
17 18 83 l3 82 29 0 c39 0 38 17 -1 25 -29 7 -30 9 -24 41 3 20 2 34 -4 34 -5
0 -17 3 -26 7 -15 5 -17 0 -14 -40z"/>
</g>
</g>
</svg>