<?xml version="1.0" standalone="no"?>
<!DOCTYPE svg PUBLIC "-//W3C//DTD SVG 20010904//EN"
 "http://www.w3.org/TR/2001/REC-SVG-20010904/DTD/svg10.dtd">
<svg version="1.0" xmlns="http://www.w3.org/2000/svg"
 width="96.000000pt" height="68.000000pt" viewBox="0 0 96.000000 68.000000"
 preserveAspectRatio="xMidYMid meet">
<metadata>
Created by potrace 1.16, written by Peter Selinger 2001-2019
Combined from part_0.svg through part_5.svg with named groups
</metadata>
<g transform="translate(0.000000,68.000000) scale(0.100000,-0.100000)" fill="#000000" stroke="none">
<g id="part-0" class="char-part">
  <path d="M684 535 c-28 -7 -81 -15 -116 -19 -92 -9 -129 -17 -122 -28 3 -5 25
-8 48 -6 39 3 41 1 44 -26 5 -40 -60 -168 -112 -220 -23 -24 -61 -56 -85 -72
-58 -38 -38 -42 28 -5 83 45 144 111 197 213 38 74 45 95 36 109 -10 16 -6 18
42 24 88 11 91 9 89 -61 -2 -80 -40 -219 -68 -252 -21 -24 -25 -25 -59 -15
-20 6 -36 9 -36 6 0 -13 66 -73 80 -73 18 0 61 42 79 77 6 13 25 83 41 155 16
73 32 143 36 156 5 19 1 24 -30 37 -19 8 -37 15 -38 14 -2 -1 -26 -7 -54 -14z"/>
  <path d="M270 494 c-25 -7 -66 -11 -92 -8 -52 6 -54 4 -35 -29 6 -12 19 -56
27 -97 12 -55 20 -76 33 -78 10 -2 17 3 17 12 0 12 11 16 48 16 74 0 89 7 90
41 0 17 10 49 21 73 26 52 26 63 2 76 -24 13 -53 11 -111 -6z m45 -76 c-4 -29
-9 -56 -11 -60 -6 -10 -74 -22 -81 -14 -4 3 -10 29 -13 56 -7 55 -9 52 60 63
54 9 52 10 45 -45z"/>
</g>
<g id="part-1" class="char-part">
  <path d="M290 494 c-19 -7 -61 -13 -92 -13 -53 -1 -72 -11 -49 -25 5 -3 14
-36 21 -73 7 -38 17 -77 23 -87 9 -18 11 -18 22 -3 7 10 34 18 76 23 64 6 64
6 65 39 0 17 10 51 22 74 28 54 28 57 -9 70 -37 13 -33 13 -79 -5z m34 -32 c2
-4 -1 -33 -7 -63 -12 -54 -13 -54 -55 -60 -24 -3 -44 -3 -46 0 -2 3 -7 32 -10
63 -7 56 -7 57 21 61 51 7 92 7 97 -1z"/>
</g>
<g id="part-2" class="char-part">
  <path d="M630 529 c-58 -9 -127 -21 -155 -24 -44 -7 -47 -9 -28 -18 16 -7 51
-5 121 7 54 9 115 16 136 16 l39 0 -7 -67 c-8 -91 -40 -211 -64 -242 -20 -27
-46 -31 -92 -17 -22 7 -21 4 15 -33 44 -46 62 -50 93 -21 36 34 53 77 84 219
16 75 32 146 35 157 4 17 -2 24 -28 33 -17 6 -35 10 -38 10 -3 -1 -53 -10
-111 -20z"/>
</g>
<g id="part-3" class="char-part">
  <path d="M537 451 c-13 -97 -82 -197 -191 -278 -39 -29 -52 -43 -39 -43 30 0
129 64 173 112 47 50 134 213 126 234 -3 8 -18 14 -34 14 -27 0 -30 -4 -35
-39z"/>
</g>
</g>
</svg>