<?xml version="1.0" standalone="no"?>
<!DOCTYPE svg PUBLIC "-//W3C//DTD SVG 20010904//EN"
 "http://www.w3.org/TR/2001/REC-SVG-20010904/DTD/svg10.dtd">
<svg version="1.0" xmlns="http://www.w3.org/2000/svg"
 width="96.000000pt" height="68.000000pt" viewBox="0 0 96.000000 68.000000"
 preserveAspectRatio="xMidYMid meet">
<metadata>
Created by potrace 1.16, written by Peter Selinger 2001-2019
Combined from part_0.svg through part_5.svg with named groups
</metadata>
<g transform="translate(0.000000,68.000000) scale(0.100000,-0.100000)" fill="#000000" stroke="none">
<g id="part-0" class="char-part">
  <path d="M495 556 c-9 -49 -49 -150 -77 -188 -24 -34 -13 -36 21 -4 18 16 43
25 80 29 l54 6 -6 -62 c-6 -67 -15 -97 -27 -97 -4 0 -19 11 -33 24 -26 24 -64
42 -73 34 -2 -3 16 -19 41 -37 47 -34 53 -47 33 -73 -19 -24 -109 -78 -129
-78 -10 0 -20 -4 -24 -9 -8 -15 64 -1 110 20 22 10 52 28 67 40 l27 22 55 -51
c52 -50 57 -52 109 -52 64 0 117 9 117 20 0 5 -19 11 -42 15 -64 11 -128 34
-176 64 -46 28 -46 23 -17 125 9 32 14 69 11 82 -6 24 2 27 84 36 14 2 25 8
25 13 0 18 -69 16 -150 -4 -43 -11 -81 -19 -83 -17 -2 3 13 36 33 75 39 75 38
93 -5 104 -15 4 -20 -2 -25 -37z"/>
  <path d="M275 470 c-16 -4 -65 -8 -107 -9 -43 0 -78 -4 -78 -7 0 -3 5 -15 12
-27 6 -12 13 -31 14 -42 28 -187 32 -198 58 -176 10 9 42 12 96 10 93 -4 94
-3 105 79 4 29 13 76 21 105 12 47 12 53 -3 65 -18 13 -70 14 -118 2z m61 -35
c4 -8 3 -26 0 -40 -5 -18 -13 -25 -31 -25 -22 0 -25 5 -25 33 0 19 3 37 7 40
12 13 44 7 49 -8z m-112 -21 c12 -33 6 -54 -18 -60 -35 -8 -46 2 -46 42 0 31
3 34 29 34 17 0 31 -6 35 -16z m106 -83 c0 -5 -3 -23 -6 -40 -5 -24 -12 -31
-30 -31 -21 0 -24 5 -24 34 0 24 5 36 18 39 29 8 42 7 42 -2z m-100 -41 c0
-35 -3 -40 -24 -40 -18 0 -25 7 -30 32 -7 33 4 48 37 48 13 0 17 -9 17 -40z"/>
</g>
<g id="part-1" class="char-part">
  <path d="M290 470 c-19 -5 -72 -12 -117 -16 -80 -7 -81 -7 -68 -28 8 -11 19
-52 25 -91 19 -123 20 -126 41 -120 11 4 57 8 102 10 l82 3 23 112 c13 62 19
117 15 121 -14 14 -65 18 -103 9z m50 -66 c0 -45 0 -45 -32 -42 -30 3 -33 6
-33 38 0 47 2 50 36 50 28 0 29 -2 29 -46z m-112 -11 l3 -43 -35 0 c-28 0 -36
4 -36 18 0 9 -3 27 -6 39 -6 22 11 33 51 30 16 -2 21 -10 23 -44z m100 -95
c-3 -39 -6 -43 -30 -46 -26 -3 -28 -1 -28 36 0 45 5 52 37 52 22 0 24 -3 21
-42z m-100 -10 c-3 -38 -6 -43 -28 -43 -22 0 -25 5 -28 43 -3 41 -2 42 28 42
30 0 31 -1 28 -42z"/>
</g>
<g id="part-2" class="char-part">
  <path d="M492 539 c-7 -28 -28 -83 -47 -122 -19 -39 -33 -72 -32 -74 2 -1 14
7 27 20 24 21 46 27 233 55 26 4 49 12 50 17 4 18 -70 16 -149 -4 -43 -11 -80
-18 -82 -16 -2 2 13 35 33 74 31 58 35 74 25 86 -25 30 -46 18 -58 -36z"/>
</g>
<g id="part-3" class="char-part">
  <path d="M570 363 c0 -41 -14 -111 -24 -120 -3 -4 -16 3 -29 14 -12 11 -32 26
-44 32 -45 23 -43 10 4 -33 l48 -44 -20 -22 c-26 -29 -86 -67 -119 -76 -47
-11 -42 -27 5 -19 50 8 89 26 137 62 l33 25 54 -51 c53 -51 54 -51 117 -50 35
1 77 4 93 8 l30 7 -35 11 c-19 6 -51 15 -70 18 -45 9 -170 74 -170 89 0 6 11
45 24 88 25 79 22 98 -16 98 -14 0 -18 -8 -18 -37z"/>
</g>
</g>
</svg>