<?xml version="1.0" standalone="no"?>
<!DOCTYPE svg PUBLIC "-//W3C//DTD SVG 20010904//EN"
 "http://www.w3.org/TR/2001/REC-SVG-20010904/DTD/svg10.dtd">
<svg version="1.0" xmlns="http://www.w3.org/2000/svg"
 width="96.000000pt" height="68.000000pt" viewBox="0 0 96.000000 68.000000"
 preserveAspectRatio="xMidYMid meet">
<metadata>
Created by potrace 1.16, written by Peter Selinger 2001-2019
Combined from part_0.svg through part_5.svg with named groups
</metadata>
<g transform="translate(0.000000,68.000000) scale(0.100000,-0.100000)" fill="#000000" stroke="none">
<g id="part-0" class="char-part">
  <path d="M557 573 c3 -10 12 -25 20 -34 12 -14 9 -17 -24 -23 -59 -9 -101 -7
-105 6 -6 16 -50 -61 -46 -81 5 -27 32 -18 48 15 16 35 17 35 223 50 l88 7 -6
-26 c-7 -25 -6 -25 22 -16 57 18 63 22 63 34 0 25 -55 37 -134 30 -69 -7 -76
-6 -76 10 0 22 -28 44 -57 45 -17 0 -21 -4 -16 -17z"/>
  <path d="M241 493 c-1 -135 -12 -150 -108 -152 -24 -1 -43 -5 -43 -11 0 -18
43 -32 82 -27 34 5 39 3 32 -11 -21 -49 -16 -68 20 -87 20 -11 35 -24 33 -29
-2 -6 -24 -24 -49 -40 -91 -62 -87 -57 -45 -52 21 3 61 19 89 36 l50 31 29
-27 c32 -30 59 -27 59 9 0 14 -10 29 -29 40 l-29 17 19 37 c11 21 24 54 30 74
8 25 20 39 37 45 l27 9 -32 23 c-43 31 -77 33 -81 6 -2 -15 -12 -24 -30 -27
-15 -3 -29 -4 -31 -2 -2 2 9 43 24 90 31 95 28 107 -27 120 l-26 7 -1 -79z
m89 -180 c0 -10 -9 -37 -19 -60 -19 -41 -20 -42 -50 -30 -33 12 -36 21 -21 62
15 39 90 63 90 28z"/>
  <path d="M577 460 c-75 -36 -82 -44 -31 -36 l40 7 2 -40 3 -40 -81 -7 c-99 -8
-123 -28 -26 -22 36 2 66 1 66 -2 0 -9 -50 -45 -100 -70 -25 -13 -39 -25 -32
-27 15 -6 142 57 142 70 0 5 5 7 11 5 6 -2 12 -23 14 -46 l3 -42 -73 0 -73 0
19 -50 c10 -28 19 -60 19 -73 0 -34 16 -55 32 -39 19 19 184 17 192 -3 8 -22
33 -18 50 7 8 13 17 53 21 90 6 66 6 67 -22 81 -17 9 -36 11 -48 6 -11 -4 -37
-8 -57 -8 -37 -1 -37 0 -32 32 3 17 7 38 10 45 2 9 31 -1 94 -33 87 -44 115
-49 104 -22 -7 20 -54 43 -114 57 -84 18 -91 21 -85 31 4 5 45 9 91 9 64 0 85
3 81 13 -3 8 -28 11 -89 10 l-84 -3 4 35 c3 22 0 35 -7 35 -7 0 -9 5 -6 10 3
6 17 10 31 10 28 0 32 15 7 28 -13 7 -35 1 -76 -18z m13 -290 c0 -24 -78 -40
-91 -19 -17 27 -9 38 29 41 49 4 62 0 62 -22z m138 5 c2 -18 -4 -20 -48 -22
-47 -2 -50 0 -50 23 0 24 3 25 48 22 38 -2 48 -7 50 -23z m0 -62 c-3 -26 -6
-28 -53 -28 -43 0 -50 3 -50 20 0 20 27 32 78 34 25 1 28 -2 25 -26z m-138 -8
c0 -22 -4 -25 -40 -25 -33 0 -40 3 -40 19 0 22 13 29 53 30 22 1 27 -3 27 -24z"/>
  <path d="M690 405 l-23 -24 39 11 c51 14 59 19 43 29 -22 14 -34 11 -59 -16z"/>
  <path d="M472 388 c6 -16 36 -34 44 -25 9 9 -15 37 -33 37 -8 0 -13 -5 -11
-12z"/>
</g>
<g id="part-1" class="char-part">
  <path d="M249 568 c0 -2 -1 -41 -3 -88 -1 -47 -8 -97 -14 -112 -11 -27 -15
-28 -79 -28 l-68 -1 24 -19 c18 -16 32 -19 64 -13 39 6 40 5 34 -20 -4 -14
-10 -32 -13 -41 -5 -14 34 -47 71 -59 17 -6 -16 -38 -73 -69 -29 -17 -51 -32
-49 -34 8 -9 78 19 114 45 l39 28 30 -23 c36 -29 64 -31 64 -4 0 16 -18 33
-58 55 -1 1 8 26 21 56 13 30 27 66 31 81 4 17 14 28 29 30 20 3 19 5 -14 26
-44 27 -74 29 -65 5 8 -20 -10 -33 -45 -33 l-27 0 23 78 c13 42 26 84 29 93 6
14 -2 21 -56 47 -5 2 -8 2 -9 0z m71 -301 c-12 -32 -26 -57 -31 -57 -6 0 -23
7 -39 15 -27 14 -28 17 -18 47 6 18 14 37 18 42 11 12 74 24 83 16 4 -4 -2
-32 -13 -63z"/>
</g>
<g id="part-2" class="char-part">
  <path d="M550 584 c0 -3 9 -19 20 -34 l20 -29 -57 -7 c-36 -4 -63 -3 -74 4
-19 12 -22 10 -51 -44 -15 -27 -16 -33 -4 -44 12 -9 19 -7 35 9 12 12 21 27
21 35 0 14 33 19 213 32 48 4 87 4 87 0 0 -4 -5 -16 -11 -28 -10 -18 -8 -19
12 -13 38 12 89 35 89 40 0 2 -14 12 -32 21 -25 13 -47 15 -110 9 -74 -6 -78
-5 -78 14 0 11 -9 25 -19 31 -21 11 -61 14 -61 4z"/>
</g>
<g id="part-3" class="char-part">
  <path d="M560 454 c-71 -37 -65 -42 25 -19 93 24 93 24 71 41 -24 17 -18 19
-96 -22z"/>
</g>
<g id="part-4" class="char-part">
  <path d="M625 218 c-38 -5 -96 -8 -128 -6 -31 2 -57 2 -57 0 0 -2 6 -15 14
-30 7 -15 19 -53 26 -85 11 -54 22 -69 35 -47 3 6 45 10 92 10 70 0 88 -3 99
-17 19 -26 47 -5 57 43 4 21 12 56 16 77 7 32 5 40 -13 52 -23 16 -38 17 -141
3z m105 -42 c0 -20 -5 -22 -49 -23 -44 -1 -50 2 -54 23 -3 20 0 23 27 26 54 5
76 -2 76 -26z m-142 -10 c-2 -17 -11 -22 -42 -24 -38 -3 -55 8 -56 35 0 12 63
22 88 14 7 -2 12 -13 10 -25z m140 -53 c-3 -26 -6 -28 -56 -30 -49 -1 -53 0
-50 20 3 23 28 34 81 36 25 1 28 -2 25 -26z m-138 -8 c0 -22 -4 -25 -40 -25
-36 0 -40 3 -40 25 0 23 4 25 40 25 36 0 40 -2 40 -25z"/>
</g>
</g>
</svg>