<?xml version="1.0" standalone="no"?>
<!DOCTYPE svg PUBLIC "-//W3C//DTD SVG 20010904//EN"
 "http://www.w3.org/TR/2001/REC-SVG-20010904/DTD/svg10.dtd">
<svg version="1.0" xmlns="http://www.w3.org/2000/svg"
 width="96.000000pt" height="68.000000pt" viewBox="0 0 96.000000 68.000000"
 preserveAspectRatio="xMidYMid meet">
<metadata>
Created by potrace 1.16, written by Peter Selinger 2001-2019
Combined from part_0.svg through part_5.svg with named groups
</metadata>
<g transform="translate(0.000000,68.000000) scale(0.100000,-0.100000)" fill="#000000" stroke="none">
<g id="part-0" class="char-part">
  <path d="M623 578 c3 -13 9 -57 13 -99 l7 -76 -74 -7 c-41 -4 -82 -9 -91 -12
-16 -5 -18 3 -18 64 0 67 -1 70 -25 74 -14 3 -28 1 -31 -3 -5 -9 3 -86 12
-121 4 -14 -4 -18 -45 -24 -65 -9 -66 -24 -1 -24 l50 0 0 -114 c0 -116 10
-147 35 -113 9 13 28 17 76 17 54 0 67 -4 89 -25 17 -16 33 -23 43 -19 14 5
17 23 18 113 2 184 -5 166 62 169 31 2 57 7 57 11 0 14 -46 32 -76 29 l-29 -3
-1 78 c-2 84 -12 107 -51 107 -21 0 -24 -4 -20 -22z m17 -247 l0 -38 -67 -7
c-38 -4 -77 -8 -88 -9 -17 -2 -20 5 -23 40 l-3 42 48 4 c26 2 67 4 91 5 l42 2
0 -39z m-2 -108 l-3 -47 -72 -3 c-40 -1 -78 -4 -85 -5 -9 -2 -13 9 -13 37 l0
40 70 11 c113 19 107 21 103 -33z"/>
  <path d="M220 560 c0 -6 14 -24 30 -40 43 -42 101 -39 84 3 -11 31 -114 63
-114 37z"/>
  <path d="M142 411 c18 -29 84 -74 97 -66 18 10 12 54 -8 64 -10 6 -38 13 -61
17 -41 7 -42 6 -28 -15z"/>
  <path d="M265 269 c-21 -28 -56 -65 -77 -82 -41 -33 -44 -42 -26 -82 13 -29
38 -29 53 0 5 11 31 59 58 107 26 49 47 92 47 98 0 21 -17 8 -55 -41z"/>
</g>
<g id="part-1" class="char-part">
  <path d="M252 525 c42 -39 78 -46 78 -16 0 27 -38 51 -80 51 l-35 -1 37 -34z"/>
  <path d="M140 420 c0 -13 70 -70 86 -70 21 0 29 29 13 45 -16 16 -99 37 -99
25z"/>
  <path d="M261 258 c-27 -35 -63 -72 -80 -83 -17 -11 -31 -24 -31 -28 0 -15 31
-67 40 -67 5 0 25 33 45 73 21 39 41 77 46 83 12 15 40 84 34 84 -2 0 -27 -28
-54 -62z"/>
</g>
<g id="part-2" class="char-part">
  <path d="M627 543 c4 -32 8 -76 8 -98 l0 -40 -55 -7 c-30 -4 -70 -9 -87 -12
l-33 -5 0 64 c0 53 -3 66 -19 75 -39 21 -43 14 -36 -64 l7 -74 -52 -7 c-60 -8
-55 -22 10 -27 l45 -3 5 -115 c4 -99 7 -115 23 -118 10 -2 17 3 17 11 0 12 16
16 69 19 66 3 70 2 88 -24 22 -34 51 -36 58 -5 3 12 6 76 8 142 l2 120 58 3
c31 2 57 7 57 12 0 17 -43 32 -77 27 l-35 -6 3 78 c4 87 -7 111 -47 111 -24 0
-24 -1 -17 -57z m13 -260 c0 -49 -4 -93 -8 -99 -4 -6 -20 -11 -37 -11 -16 0
-52 -1 -80 -3 l-50 -4 -3 96 -3 97 48 4 c26 2 67 4 91 5 l42 2 0 -87z"/>
</g>
<g id="part-3" class="char-part">
  <path d="M545 285 c-5 -2 -27 -6 -48 -10 -58 -10 -35 -29 27 -21 87 11 116 18
116 27 0 8 -73 11 -95 4z"/>
</g>
</g>
</svg>