<?xml version="1.0" standalone="no"?>
<!DOCTYPE svg PUBLIC "-//W3C//DTD SVG 20010904//EN"
 "http://www.w3.org/TR/2001/REC-SVG-20010904/DTD/svg10.dtd">
<svg version="1.0" xmlns="http://www.w3.org/2000/svg"
 width="96.000000pt" height="68.000000pt" viewBox="0 0 96.000000 68.000000"
 preserveAspectRatio="xMidYMid meet">
<metadata>
Created by potrace 1.16, written by Peter Selinger 2001-2019
Combined from part_0.svg through part_5.svg with named groups
</metadata>
<g transform="translate(0.000000,68.000000) scale(0.100000,-0.100000)" fill="#000000" stroke="none">
<g id="part-0" class="char-part">
  <path d="M520 599 c0 -23 -43 -100 -65 -119 -8 -7 -15 -16 -15 -21 0 -18 24
-8 64 24 38 32 47 34 140 41 111 7 122 11 104 33 -12 15 -36 15 -143 -3 l-40
-7 19 22 c21 23 21 23 -11 40 -33 17 -53 14 -53 -10z"/>
  <path d="M270 560 c-7 -16 -36 -52 -66 -80 -30 -28 -54 -53 -54 -56 0 -13 33
1 82 35 48 33 65 39 130 45 90 9 115 20 75 35 -15 6 -32 9 -39 7 -7 -3 -26 -7
-43 -11 -28 -6 -29 -6 -12 12 21 24 6 43 -34 43 -20 0 -30 -7 -39 -30z"/>
  <path d="M560 493 c0 -17 56 -63 77 -63 18 0 23 6 23 25 0 19 -7 26 -37 34
-44 13 -63 14 -63 4z"/>
  <path d="M290 478 c1 -19 48 -51 66 -44 22 8 17 34 -8 41 -13 4 -31 9 -40 11
-11 3 -18 0 -18 -8z"/>
  <path d="M290 400 c16 -30 4 -40 -48 -41 -38 -1 -42 -3 -22 -9 14 -4 38 -5 53
-2 26 4 28 2 25 -19 -3 -26 -3 -26 -83 -28 -55 -1 -55 -1 -41 -23 8 -13 20
-42 27 -65 12 -42 13 -43 49 -37 39 6 54 -3 44 -29 -3 -10 -35 -18 -100 -27
-61 -8 -92 -16 -86 -22 13 -13 65 -12 122 1 25 6 48 11 51 11 4 0 5 -19 2 -42
-2 -24 0 -49 5 -57 16 -23 32 -2 32 42 0 23 4 47 8 53 7 11 61 23 110 24 12 0
22 5 22 11 0 8 -20 10 -64 7 -57 -5 -65 -3 -69 13 -5 20 7 26 67 31 24 3 31
10 48 56 25 67 17 77 -57 74 -42 -2 -55 1 -55 12 0 14 29 26 68 26 12 0 22 5
22 10 0 6 -17 10 -39 10 -30 0 -40 4 -44 20 -3 14 -14 20 -31 20 -24 0 -25 -2
-16 -20z m120 -115 c0 -8 -3 -15 -7 -16 -5 0 -23 -2 -40 -3 -27 -3 -33 0 -33
15 0 15 7 19 40 19 29 0 40 -4 40 -15z m-112 -12 c-2 -14 -13 -18 -42 -18 -70
0 -54 31 17 34 22 1 28 -3 25 -16z m102 -37 c0 -22 -4 -24 -35 -23 -44 2 -46
23 -2 36 17 5 33 10 35 10 1 1 2 -10 2 -23z m-100 -16 c0 -16 -7 -20 -35 -20
-37 0 -50 25 -17 33 38 10 52 7 52 -13z"/>
  <path d="M595 369 c-22 -4 -52 -6 -67 -3 l-28 6 0 -134 c1 -155 6 -166 89
-194 58 -19 181 -15 221 6 19 10 21 17 15 57 -12 83 -20 92 -34 39 -10 -40
-17 -50 -46 -62 -65 -27 -174 -12 -195 26 -6 10 -10 59 -10 109 0 109 14 131
80 131 49 0 57 -14 39 -72 -11 -34 -20 -44 -42 -48 -27 -5 -27 -6 -11 -28 35
-50 80 -8 109 99 13 49 12 55 -2 67 -19 13 -58 14 -118 1z"/>
</g>
<g id="part-1" class="char-part">
  <path d="M521 579 c-6 -17 -27 -53 -47 -80 -43 -58 -34 -63 26 -12 37 32 51
38 94 39 71 1 156 14 156 24 0 16 -41 17 -111 4 -73 -14 -99 -11 -66 7 21 12
22 35 1 43 -30 12 -42 6 -53 -25z"/>
  <path d="M276 561 c-9 -16 -38 -52 -67 -80 -28 -28 -48 -51 -45 -51 12 0 70
32 102 56 22 17 45 24 80 25 27 1 63 5 79 9 54 13 -1 24 -63 13 -54 -10 -55
-10 -34 7 28 23 28 36 0 44 -35 9 -36 8 -52 -23z"/>
  <path d="M573 480 c14 -24 65 -53 77 -45 12 7 14 45 3 45 -5 1 -27 5 -50 9
-38 7 -40 6 -30 -9z"/>
  <path d="M309 460 c24 -21 61 -27 61 -10 0 13 -34 30 -62 30 l-23 -1 24 -19z"/>
</g>
<g id="part-2" class="char-part">
  <path d="M280 412 c0 -4 5 -13 12 -20 17 -17 6 -24 -47 -30 -31 -3 -42 -8 -33
-14 7 -4 30 -6 51 -2 33 5 37 3 37 -15 0 -26 20 -28 27 -2 5 20 30 31 71 31
12 0 22 5 22 10 0 6 -19 10 -42 10 -23 0 -38 3 -35 7 12 11 -14 33 -39 33 -13
0 -24 -4 -24 -8z"/>
</g>
<g id="part-3" class="char-part">
  <path d="M296 167 c9 -23 -18 -35 -111 -49 -82 -12 -88 -15 -67 -27 23 -12 51
-9 149 15 21 6 22 4 17 -25 -8 -38 3 -84 19 -78 7 2 14 28 17 58 l5 54 68 9
c88 11 90 31 2 24 -59 -5 -65 -4 -65 13 0 12 -7 19 -20 19 -12 0 -17 -5 -14
-13z"/>
</g>
<g id="part-4" class="char-part">
  <path d="M498 243 c1 -71 7 -138 13 -150 20 -38 84 -58 184 -58 68 0 98 4 117
17 l25 17 -16 61 -16 62 -13 -46 c-18 -62 -51 -79 -143 -74 -106 6 -113 15
-107 160 5 118 1 138 -31 138 -14 0 -16 -18 -13 -127z"/>
</g>
</g>
</svg>