<?xml version="1.0" standalone="no"?>
<!DOCTYPE svg PUBLIC "-//W3C//DTD SVG 20010904//EN"
 "http://www.w3.org/TR/2001/REC-SVG-20010904/DTD/svg10.dtd">
<svg version="1.0" xmlns="http://www.w3.org/2000/svg"
 width="96.000000pt" height="68.000000pt" viewBox="0 0 96.000000 68.000000"
 preserveAspectRatio="xMidYMid meet">
<metadata>
Created by potrace 1.16, written by Peter Selinger 2001-2019
Combined from part_0.svg through part_5.svg with named groups
</metadata>
<g transform="translate(0.000000,68.000000) scale(0.100000,-0.100000)" fill="#000000" stroke="none">
<g id="part-0" class="char-part">
  <path d="M415 573 c-9 -21 -28 -50 -42 -65 -37 -38 -24 -44 18 -8 19 16 46 29
60 30 54 0 119 13 119 23 0 6 -23 7 -61 3 -60 -7 -60 -7 -49 15 10 17 9 23 -1
30 -23 14 -28 11 -44 -28z"/>
  <path d="M603 562 c-12 -25 -20 -48 -17 -51 2 -2 17 5 32 16 17 13 52 23 95
27 37 4 67 12 67 18 0 6 -22 7 -61 3 -48 -6 -60 -4 -54 5 8 12 -11 30 -30 29
-5 0 -20 -21 -32 -47z"/>
  <path d="M245 590 c-4 -6 -1 -34 5 -63 7 -28 10 -63 9 -77 -4 -22 -10 -26 -66
-34 -35 -5 -63 -13 -63 -17 0 -13 41 -21 86 -17 l39 3 3 -45 3 -45 -83 -34
c-101 -41 -109 -48 -84 -67 29 -21 57 -17 100 16 22 17 43 30 48 30 5 0 8 -28
6 -62 -2 -35 -7 -62 -13 -62 -5 1 -23 5 -40 8 -29 7 -29 6 18 -41 39 -40 50
-46 64 -37 26 16 31 49 25 145 l-5 87 42 27 c60 40 53 62 -10 29 l-30 -15 3
38 c3 35 5 38 46 46 23 4 42 12 42 17 0 11 -26 20 -56 20 -28 0 -31 20 -12 82
9 32 9 41 -3 52 -19 18 -66 28 -74 16z"/>
  <path d="M685 503 c27 -23 30 -24 33 -8 4 20 -14 35 -43 35 -18 -1 -16 -4 10
-27z"/>
  <path d="M466 506 c7 -19 48 -22 42 -3 -3 6 -14 13 -26 15 -16 3 -20 -1 -16
-12z"/>
  <path d="M570 474 c-41 -7 -87 -11 -101 -8 l-27 5 5 -68 c6 -73 16 -95 39 -86
9 3 14 -2 14 -15 0 -18 -9 -21 -76 -27 -58 -6 -73 -10 -59 -17 9 -6 35 -8 56
-5 22 3 39 2 39 -2 0 -3 -29 -26 -65 -50 -36 -24 -63 -46 -61 -48 6 -7 121 55
161 87 64 51 112 37 242 -70 14 -12 70 -12 98 0 22 9 22 9 -50 31 -54 16 -145
60 -145 71 0 4 36 8 80 8 44 0 80 4 80 9 0 15 -58 21 -111 11 -76 -15 -126
-13 -132 5 -9 21 8 27 60 23 l46 -3 22 68 c12 37 19 70 15 72 -28 17 -63 20
-130 9z m70 -29 c0 -12 -13 -15 -59 -15 -33 0 -66 -3 -75 -6 -10 -4 -16 -1
-16 9 0 16 25 21 113 25 27 2 37 -2 37 -13z m0 -39 c0 -12 -76 -26 -141 -26
-34 0 -8 29 29 33 84 9 112 7 112 -7z m-5 -37 c10 -15 7 -16 -72 -24 -62 -6
-73 -5 -73 9 0 12 14 16 63 19 34 2 65 4 69 5 4 1 10 -3 13 -9z"/>
  <path d="M520 235 c-7 -14 -24 -28 -37 -31 -33 -9 -23 -28 16 -34 l32 -5 -35
-19 c-20 -11 -36 -23 -36 -28 0 -15 26 -19 55 -8 32 12 45 2 45 -39 0 -18 -4
-22 -19 -18 -17 4 -18 2 -8 -14 23 -38 57 -35 57 5 0 56 12 86 34 86 12 0 28
-6 34 -12 21 -21 35 12 15 34 -17 19 -59 25 -48 8 8 -12 -5 -17 -70 -25 l-50
-6 25 20 c13 10 41 25 62 32 21 7 38 18 38 26 0 21 -48 16 -62 -7 -13 -21 -34
-25 -56 -11 -10 6 -3 13 23 25 36 17 42 38 14 44 -9 1 -21 -9 -29 -23z"/>
  <path d="M428 59 c-23 -25 -24 -29 -8 -29 10 0 25 7 34 15 8 8 19 15 25 15 17
0 13 17 -5 24 -9 3 -16 5 -17 5 -1 -1 -14 -14 -29 -30z"/>
  <path d="M640 83 c0 -14 68 -55 79 -49 17 11 1 34 -31 45 -37 13 -48 14 -48 4z"/>
</g>
<g id="part-1" class="char-part">
  <path d="M245 573 c5 -10 10 -48 13 -84 4 -63 3 -66 -19 -72 -13 -4 -41 -7
-61 -7 -21 0 -38 -4 -38 -10 0 -6 27 -10 60 -10 l60 0 0 -49 0 -48 -80 -37
c-43 -20 -84 -36 -91 -36 -8 0 -8 -4 1 -15 25 -30 48 -27 110 15 l60 41 0 -53
c0 -87 -7 -101 -45 -94 l-32 6 37 -40 c20 -22 42 -40 49 -40 21 0 31 49 31
148 l0 98 43 28 c33 22 37 27 17 23 -14 -2 -33 -8 -42 -12 -16 -6 -18 -1 -18
34 0 40 1 41 40 47 22 4 40 10 40 14 0 10 -48 22 -60 15 -19 -12 -17 42 5 111
5 15 0 23 -20 32 -40 18 -69 16 -60 -5z"/>
</g>
<g id="part-2" class="char-part">
  <path d="M420 593 c0 -17 -17 -47 -56 -100 -22 -31 -14 -29 29 6 29 23 51 30
107 35 39 4 70 12 70 18 0 7 -20 9 -60 5 -58 -7 -60 -6 -47 13 10 17 9 22 -3
30 -23 15 -40 12 -40 -7z"/>
  <path d="M597 555 c-15 -30 -24 -55 -20 -55 3 0 21 11 39 25 20 15 46 25 67
25 50 0 97 11 97 23 0 6 -22 8 -59 4 -52 -6 -59 -4 -57 11 0 10 -7 18 -19 19
-15 2 -27 -11 -48 -52z"/>
  <path d="M662 518 c6 -16 55 -34 65 -24 10 10 -26 36 -50 36 -10 0 -17 -5 -15
-12z"/>
  <path d="M460 510 c0 -15 38 -32 45 -20 3 5 3 15 0 20 -8 13 -45 13 -45 0z"/>
</g>
<g id="part-3" class="char-part">
  <path d="M600 479 c-19 -5 -65 -10 -102 -11 -58 -3 -65 -5 -57 -20 5 -9 9 -35
9 -57 0 -45 12 -58 32 -37 15 14 134 26 153 14 18 -11 55 11 55 32 0 12 4 30
10 40 17 33 -37 54 -100 39z m40 -34 c0 -12 -13 -15 -59 -15 -33 0 -66 -3 -75
-6 -10 -4 -16 -1 -16 9 0 16 26 22 108 25 31 2 42 -2 42 -13z m0 -40 c0 -9 -9
-15 -22 -15 -13 0 -47 -3 -75 -6 -44 -6 -53 -4 -53 9 0 11 12 17 43 20 95 8
107 7 107 -8z"/>
</g>
<g id="part-4" class="char-part">
  <path d="M558 84 c4 -35 3 -37 -21 -30 l-26 6 25 -26 c33 -32 54 -25 56 21 0
19 1 41 2 48 1 6 -8 13 -20 15 -18 3 -20 -1 -16 -34z"/>
  <path d="M432 60 c-31 -41 4 -37 58 7 4 4 -20 23 -31 23 -3 0 -15 -13 -27 -30z"/>
  <path d="M660 62 c36 -32 55 -39 65 -23 6 11 -21 41 -38 41 -7 0 -23 3 -37 6
-23 6 -22 4 10 -24z"/>
</g>
</g>
</svg>