<?xml version="1.0" standalone="no"?>
<!DOCTYPE svg PUBLIC "-//W3C//DTD SVG 20010904//EN"
 "http://www.w3.org/TR/2001/REC-SVG-20010904/DTD/svg10.dtd">
<svg version="1.0" xmlns="http://www.w3.org/2000/svg"
 width="96.000000pt" height="68.000000pt" viewBox="0 0 96.000000 68.000000"
 preserveAspectRatio="xMidYMid meet">
<metadata>
Created by potrace 1.16, written by Peter Selinger 2001-2019
Combined from part_0.svg through part_5.svg with named groups
</metadata>
<g transform="translate(0.000000,68.000000) scale(0.100000,-0.100000)" fill="#000000" stroke="none">
<g id="part-0" class="char-part">
  <path d="M400 598 c0 -7 14 -28 31 -46 17 -18 30 -35 28 -37 -7 -6 -196 -25
-253 -25 -62 0 -81 -15 -39 -31 21 -8 55 -8 128 1 55 7 106 14 113 16 43 12
-28 -110 -88 -151 -69 -48 -45 -65 67 -46 41 7 76 11 78 9 10 -9 -220 -168
-243 -168 -6 0 -14 -5 -17 -10 -11 -17 44 -1 110 33 86 44 172 106 234 170 67
69 76 84 61 103 -23 27 -47 16 -65 -31 -9 -25 -27 -52 -38 -59 -25 -16 -145
-28 -152 -16 -3 5 28 38 67 75 69 63 72 67 54 81 -18 13 -14 14 40 14 144 0
284 13 284 26 0 23 -72 35 -146 24 -108 -15 -121 -14 -128 16 -10 38 -126 86
-126 52z"/>
  <path d="M620 307 c0 -27 -70 -97 -151 -152 -24 -16 -46 -33 -49 -37 -3 -4
-23 -14 -44 -23 -21 -9 -36 -19 -33 -22 9 -9 101 26 149 56 48 31 60 29 103
-12 33 -32 95 -68 105 -62 6 4 10 17 10 30 0 19 -10 30 -40 45 -21 11 -44 20
-49 20 -5 0 -22 5 -37 10 l-26 10 63 59 c55 51 62 62 53 78 -6 10 -21 19 -33
21 -17 3 -21 -2 -21 -21z"/>
</g>
<g id="part-1" class="char-part">
  <path d="M410 592 c0 -6 14 -27 30 -45 30 -35 30 -35 8 -41 -13 -3 -75 -8
-138 -12 -130 -6 -163 -11 -156 -23 11 -17 65 -19 142 -5 43 8 173 17 287 21
114 3 210 10 213 14 2 4 -5 13 -17 20 -22 11 -157 7 -230 -8 -26 -5 -29 -3
-29 19 0 14 -8 33 -19 42 -22 20 -91 34 -91 18z"/>
</g>
<g id="part-2" class="char-part">
  <path d="M416 449 c-4 -20 -29 -54 -72 -96 -57 -58 -63 -68 -51 -81 13 -12 23
-12 83 2 38 9 79 19 92 22 47 10 19 20 -50 16 l-73 -3 75 71 c72 67 74 71 56
85 -32 24 -53 19 -60 -16z"/>
</g>
<g id="part-3" class="char-part">
  <path d="M554 400 c-4 -17 -27 -53 -51 -81 -43 -47 -229 -180 -283 -201 -17
-7 -20 -12 -11 -15 25 -10 218 96 284 156 102 92 133 130 120 149 -5 10 -20
18 -32 20 -17 3 -22 -3 -27 -28z"/>
</g>
<g id="part-4" class="char-part">
  <path d="M620 311 c0 -11 -12 -34 -27 -52 -30 -35 -151 -127 -217 -165 -22
-13 -34 -24 -26 -24 23 1 124 44 159 69 l32 23 47 -39 c91 -77 122 -87 122
-43 0 25 -40 54 -95 70 -25 7 -47 16 -50 20 -2 3 23 30 56 59 63 55 71 74 40
91 -29 15 -41 12 -41 -9z"/>
</g>
</g>
</svg>