<?xml version="1.0" standalone="no"?>
<!DOCTYPE svg PUBLIC "-//W3C//DTD SVG 20010904//EN"
 "http://www.w3.org/TR/2001/REC-SVG-20010904/DTD/svg10.dtd">
<svg version="1.0" xmlns="http://www.w3.org/2000/svg"
 width="96.000000pt" height="68.000000pt" viewBox="0 0 96.000000 68.000000"
 preserveAspectRatio="xMidYMid meet">
<metadata>
Created by potrace 1.16, written by Peter Selinger 2001-2019
Combined from part_0.svg through part_5.svg with named groups
</metadata>
<g transform="translate(0.000000,68.000000) scale(0.100000,-0.100000)" fill="#000000" stroke="none">
<g id="part-0" class="char-part">
  <path d="M633 573 c-18 -26 -30 -49 -28 -52 6 -6 115 69 115 79 0 9 -25 20
-43 20 -7 0 -26 -22 -44 -47z"/>
  <path d="M227 563 c11 -52 7 -297 -6 -381 -12 -75 -1 -132 25 -132 28 0 34 41
34 221 l0 182 23 -21 c27 -26 52 -28 61 -6 9 22 0 32 -37 42 -31 8 -32 10 -32
61 -1 56 -12 71 -53 71 -21 0 -22 -3 -15 -37z"/>
  <path d="M460 553 c14 -15 29 -31 34 -34 12 -10 36 0 36 15 0 22 -16 33 -55
40 l-40 8 25 -29z"/>
  <path d="M640 504 c-8 -1 -61 -8 -117 -15 -57 -6 -103 -16 -103 -21 0 -6 22
-7 59 -3 57 7 58 6 63 -20 7 -32 -8 -39 -101 -49 -64 -6 -87 -15 -63 -23 17
-6 15 -44 -4 -72 -26 -36 -5 -46 59 -27 30 9 65 16 78 16 21 0 19 -4 -21 -46
-25 -25 -72 -61 -105 -81 -74 -43 -77 -46 -40 -37 43 10 95 38 148 78 26 20
47 33 48 28 0 -4 1 -47 2 -97 2 -84 3 -90 24 -93 28 -4 30 8 25 145 l-5 111
44 7 c25 4 60 5 79 3 30 -2 35 -7 38 -30 5 -42 -14 -69 -43 -62 -14 3 -25 2
-25 -3 0 -15 44 -53 61 -53 19 1 45 38 54 80 4 19 12 42 19 52 8 14 6 21 -9
33 -16 12 -35 13 -90 8 -123 -12 -120 -13 -120 27 l0 35 63 3 c48 2 63 6 59
16 -3 8 5 24 19 37 22 21 23 24 7 41 -15 17 -59 22 -103 12z m38 -39 c3 -30
-9 -43 -48 -46 -33 -4 -35 -2 -35 26 0 33 16 45 55 42 17 -1 26 -9 28 -22z
m-136 -106 c6 -36 -4 -45 -63 -53 -52 -8 -61 1 -52 47 4 22 11 26 42 29 20 2
43 4 52 5 12 1 18 -8 21 -28z"/>
  <path d="M140 403 c-6 -16 -15 -36 -20 -45 -15 -27 -12 -68 6 -75 22 -8 41 18
49 68 12 68 -15 108 -35 52z"/>
</g>
<g id="part-1" class="char-part">
  <path d="M227 578 c11 -32 8 -340 -5 -413 -10 -62 -1 -105 24 -105 19 0 22 20
29 213 4 97 11 177 15 177 4 0 13 -7 20 -15 7 -8 21 -15 32 -15 33 0 16 34
-22 46 -34 12 -35 13 -32 59 4 49 -13 74 -51 75 -15 0 -17 -4 -10 -22z"/>
  <path d="M135 383 c-25 -59 -27 -79 -12 -92 23 -19 47 23 47 81 0 57 -14 62
-35 11z"/>
</g>
<g id="part-2" class="char-part">
  <path d="M650 605 c0 -8 -14 -30 -31 -50 -17 -19 -25 -35 -18 -35 14 0 128 72
129 81 0 8 -37 19 -62 19 -10 0 -18 -7 -18 -15z"/>
  <path d="M440 574 c0 -13 56 -64 70 -64 14 0 22 19 16 38 -7 22 -86 46 -86 26z"/>
</g>
<g id="part-3" class="char-part">
  <path d="M535 494 c-55 -7 -107 -13 -115 -13 -10 -1 -11 -4 -3 -12 9 -9 31 -9
85 -1 182 27 185 27 173 -21 -6 -22 -13 -24 -118 -36 -196 -22 -186 -19 -174
-52 10 -24 8 -32 -10 -51 -15 -16 -19 -28 -13 -38 8 -12 16 -12 52 -2 60 17
256 44 298 40 30 -3 35 -7 38 -30 5 -46 -13 -68 -51 -61 l-32 6 34 -36 c19
-20 39 -33 48 -30 14 6 43 54 43 73 0 7 8 28 17 47 16 34 16 36 -3 50 -14 11
-34 13 -71 9 -28 -3 -93 -10 -145 -16 -51 -5 -108 -12 -125 -16 -33 -6 -33 -6
-33 33 l0 39 114 12 c62 7 128 12 145 12 22 0 31 4 28 13 -2 6 7 24 21 40 25
26 25 27 6 42 -23 17 -75 17 -209 -1z"/>
</g>
<g id="part-4" class="char-part">
  <path d="M500 253 c-20 -23 -69 -62 -110 -88 -77 -48 -65 -52 26 -9 75 35 127
84 123 114 -4 23 -5 23 -39 -17z"/>
</g>
</g>
</svg>