<?xml version="1.0" standalone="no"?>
<!DOCTYPE svg PUBLIC "-//W3C//DTD SVG 20010904//EN"
 "http://www.w3.org/TR/2001/REC-SVG-20010904/DTD/svg10.dtd">
<svg version="1.0" xmlns="http://www.w3.org/2000/svg"
 width="96.000000pt" height="68.000000pt" viewBox="0 0 96.000000 68.000000"
 preserveAspectRatio="xMidYMid meet">
<metadata>
Created by potrace 1.16, written by Peter Selinger 2001-2019
Combined from part_0.svg through part_5.svg with named groups
</metadata>
<g transform="translate(0.000000,68.000000) scale(0.100000,-0.100000)" fill="#000000" stroke="none">
<g id="part-0" class="char-part">
  <path d="M460 582 c0 -6 12 -24 26 -41 32 -39 74 -43 74 -7 0 13 -6 29 -14 35
-20 16 -86 26 -86 13z"/>
  <path d="M460 493 c-101 -13 -186 -26 -188 -28 -2 -2 6 -13 18 -25 19 -19 21
-29 15 -68 -15 -115 -56 -205 -129 -286 -30 -34 -29 -41 5 -27 83 35 148 158
175 329 4 24 14 47 23 51 14 8 91 17 319 37 64 6 76 16 43 34 -27 14 -67 12
-281 -17z"/>
  <path d="M410 416 c0 -20 26 -56 42 -56 23 0 24 35 1 44 -10 3 -24 9 -30 12
-7 3 -13 3 -13 0z"/>
  <path d="M620 393 c0 -16 -13 -50 -28 -77 -27 -49 -28 -50 -77 -51 l-51 -2 0
34 c0 29 3 33 26 34 36 1 66 14 52 23 -10 6 -113 -6 -172 -21 -22 -6 -20 -7
15 -12 33 -5 39 -10 37 -26 -6 -38 -53 -129 -88 -172 -19 -24 -31 -43 -25 -43
20 0 88 69 112 114 23 44 62 66 83 46 9 -9 -18 -101 -40 -137 -12 -19 -18 -21
-40 -13 l-25 10 18 -30 c20 -34 34 -37 58 -14 19 19 69 118 79 154 3 14 20 40
36 58 30 32 34 33 123 38 98 6 110 9 87 25 -14 10 -59 7 -128 -7 l-33 -7 22
37 c25 43 19 66 -16 66 -21 0 -25 -5 -25 -27z"/>
  <path d="M150 394 c0 -16 55 -74 70 -74 38 0 26 63 -14 74 -27 7 -56 8 -56 0z"/>
  <path d="M220 285 c-19 -12 -52 -27 -72 -34 -21 -7 -38 -16 -38 -20 0 -11 34
-41 46 -41 15 0 117 107 107 113 -4 2 -24 -5 -43 -18z"/>
  <path d="M641 233 c0 -13 53 -51 74 -55 14 -2 21 3 23 19 3 18 -4 24 -35 32
-45 13 -63 14 -62 4z"/>
  <path d="M640 122 c0 -12 77 -92 89 -92 40 0 7 64 -44 86 -40 16 -45 17 -45 6z"/>
</g>
<g id="part-1" class="char-part">
  <path d="M470 577 c0 -20 50 -68 68 -65 30 6 25 36 -10 58 -38 23 -58 26 -58
7z"/>
  <path d="M445 487 c-88 -11 -162 -22 -165 -24 -3 -3 3 -9 13 -14 12 -7 17 -23
17 -57 0 -94 -42 -201 -111 -284 -21 -26 -39 -49 -39 -53 0 -11 35 13 71 49
55 55 87 125 112 238 l22 103 75 11 c41 7 130 15 198 19 67 4 122 11 122 15 0
26 -96 25 -315 -3z"/>
  <path d="M160 392 c0 -17 51 -72 66 -72 8 0 14 9 14 19 0 20 -24 51 -40 51 -5
0 -15 3 -24 6 -9 3 -16 2 -16 -4z"/>
  <path d="M183 266 c-65 -32 -78 -58 -34 -64 23 -4 81 42 102 81 12 22 7 21
-68 -17z"/>
</g>
<g id="part-2" class="char-part">
  <path d="M410 412 c0 -16 32 -52 46 -52 24 0 16 36 -11 48 -31 14 -35 15 -35
4z"/>
  <path d="M438 346 c-90 -14 -111 -26 -46 -26 59 0 159 20 152 31 -6 10 -4 10
-106 -5z"/>
</g>
<g id="part-3" class="char-part">
  <path d="M485 263 c-11 -3 -24 -10 -30 -15 -7 -7 -1 -9 17 -4 37 9 42 -6 23
-67 -27 -82 -40 -98 -71 -87 l-25 10 18 -30 c9 -17 22 -30 28 -30 22 0 59 51
92 127 31 72 32 79 16 90 -17 13 -32 14 -68 6z"/>
</g>
<g id="part-4" class="char-part">
  <path d="M668 211 c34 -32 72 -41 72 -17 0 20 -21 33 -65 41 l-40 6 33 -30z"/>
  <path d="M640 125 c0 -13 75 -95 87 -95 33 0 22 46 -19 72 -28 18 -68 32 -68
23z"/>
</g>
</g>
</svg>