<?xml version="1.0" standalone="no"?>
<!DOCTYPE svg PUBLIC "-//W3C//DTD SVG 20010904//EN"
 "http://www.w3.org/TR/2001/REC-SVG-20010904/DTD/svg10.dtd">
<svg version="1.0" xmlns="http://www.w3.org/2000/svg"
 width="96.000000pt" height="68.000000pt" viewBox="0 0 96.000000 68.000000"
 preserveAspectRatio="xMidYMid meet">
<metadata>
Created by potrace 1.16, written by Peter Selinger 2001-2019
Combined from part_0.svg through part_5.svg with named groups
</metadata>
<g transform="translate(0.000000,68.000000) scale(0.100000,-0.100000)" fill="#000000" stroke="none">
<g id="part-0" class="char-part">
  <path d="M250 607 c0 -8 -13 -32 -29 -55 -33 -45 -35 -40 36 -90 39 -27 53
-28 53 -4 0 21 -24 45 -55 56 -19 8 -19 8 -1 19 52 33 59 42 47 65 -13 24 -51
30 -51 9z"/>
  <path d="M547 603 c-3 -10 -15 -32 -27 -49 l-21 -32 48 -35 c27 -20 52 -32 57
-27 14 14 -1 39 -31 52 -15 7 -30 14 -33 16 -3 2 11 16 30 32 29 24 32 30 21
44 -18 21 -37 20 -44 -1z"/>
  <path d="M387 569 c-15 -22 -27 -44 -27 -49 0 -7 74 -60 85 -60 3 0 5 9 5 19
0 12 -13 24 -37 34 l-37 14 42 28 c33 22 40 31 31 41 -19 23 -34 16 -62 -27z"/>
  <path d="M385 438 c-66 -10 -130 -16 -142 -13 l-21 5 24 -49 c23 -48 24 -49
56 -41 18 5 77 11 131 15 69 5 97 11 97 20 0 7 10 19 22 27 12 8 18 19 15 25
-16 26 -63 29 -182 11z m103 -30 c-3 -21 -12 -24 -102 -37 -83 -11 -100 -11
-107 0 -5 8 -9 17 -9 21 0 10 121 33 193 37 24 1 28 -2 25 -21z"/>
  <path d="M405 319 c-77 -10 -155 -18 -174 -16 l-34 2 2 -75 c4 -131 15 -152
95 -175 119 -36 333 -27 417 16 44 22 43 19 15 94 l-15 40 -16 -39 c-23 -54
-33 -62 -97 -76 -68 -15 -303 -9 -335 8 -18 10 -23 22 -23 51 l0 38 68 7 c37
3 106 9 155 12 69 5 87 10 87 22 0 9 12 29 28 45 l27 29 -24 19 c-13 10 -26
19 -30 18 -3 0 -69 -9 -146 -20z m110 -19 c3 -5 0 -22 -7 -37 -11 -23 -22 -29
-63 -35 -27 -4 -51 -5 -53 -4 -10 10 12 75 27 79 32 9 90 7 96 -3z m-164 -22
c5 -54 -8 -68 -69 -68 -43 0 -43 0 -40 32 2 25 9 34 28 39 41 12 80 10 81 -3z"/>
</g>
<g id="part-1" class="char-part">
  <path d="M249 588 c-6 -13 -21 -33 -33 -46 l-21 -23 40 -34 c40 -35 65 -41 72
-18 3 7 -14 21 -36 33 -23 11 -41 22 -41 25 0 3 18 14 40 25 43 22 47 29 28
48 -18 18 -36 14 -49 -10z"/>
</g>
<g id="part-2" class="char-part">
  <path d="M550 611 c0 -4 -12 -26 -26 -47 l-26 -38 28 -24 c50 -40 73 -54 83
-48 18 12 -1 43 -36 60 l-36 17 33 28 c23 19 31 33 27 44 -6 17 -47 24 -47 8z"/>
</g>
<g id="part-3" class="char-part">
  <path d="M355 434 c-49 -7 -103 -11 -120 -8 -22 4 -26 2 -14 -5 8 -6 22 -28
29 -51 10 -31 17 -39 29 -34 15 5 180 23 229 24 12 0 22 6 22 14 0 7 10 21 23
30 22 15 22 16 3 31 -24 18 -77 18 -201 -1z m130 -29 c0 -18 -11 -22 -95 -33
-88 -13 -95 -12 -107 4 -12 16 -11 19 8 26 26 10 145 26 174 24 13 0 20 -8 20
-21z"/>
</g>
<g id="part-4" class="char-part">
  <path d="M485 330 c-59 -12 -183 -25 -237 -25 l-48 0 0 -57 0 -58 37 0 c20 0
99 5 175 12 125 10 138 13 138 30 0 10 11 29 25 42 14 13 25 26 25 29 0 8 -56
37 -67 36 -4 -1 -26 -5 -48 -9z m25 -54 c0 -30 -4 -35 -30 -40 -16 -3 -44 -9
-61 -12 -31 -6 -31 -6 -27 33 3 42 16 50 81 52 36 1 37 0 37 -33z m-158 2 c2
-6 2 -23 0 -37 -3 -24 -8 -26 -58 -29 l-55 -3 3 32 c2 26 9 35 28 40 40 11 78
10 82 -3z"/>
</g>
<g id="part-5" class="char-part">
  <path d="M710 172 c0 -12 -7 -23 -38 -57 -11 -13 -11 -15 2 -15 8 0 21 -7 29
-15 13 -12 17 -12 27 0 9 10 8 24 -4 57 -8 24 -15 37 -16 30z"/>
  <path d="M210 145 c0 -33 42 -75 75 -75 15 0 24 -4 20 -10 -8 -13 -23 -11 148
-16 155 -4 237 7 237 33 0 11 -13 12 -72 7 -40 -4 -131 -7 -201 -7 -113 0
-131 2 -155 20 -20 15 -26 27 -24 47 2 18 -1 26 -12 26 -10 0 -16 -9 -16 -25z"/>
</g>
</g>
</svg>