<?xml version="1.0" standalone="no"?>
<!DOCTYPE svg PUBLIC "-//W3C//DTD SVG 20010904//EN"
 "http://www.w3.org/TR/2001/REC-SVG-20010904/DTD/svg10.dtd">
<svg version="1.0" xmlns="http://www.w3.org/2000/svg"
 width="96.000000pt" height="68.000000pt" viewBox="0 0 96.000000 68.000000"
 preserveAspectRatio="xMidYMid meet">
<metadata>
Created by potrace 1.16, written by Peter Selinger 2001-2019
Combined from part_0.svg through part_5.svg with named groups
</metadata>
<g transform="translate(0.000000,68.000000) scale(0.100000,-0.100000)" fill="#000000" stroke="none">
<g id="part-0" class="char-part">
  <path d="M257 496 l6 -83 -39 -7 c-81 -14 -94 -18 -88 -27 3 -5 32 -9 65 -9
l59 0 0 -39 c0 -21 -6 -43 -12 -48 -12 -9 -82 -40 -144 -63 -24 -9 -25 -13
-13 -24 31 -30 55 -27 108 10 29 19 55 33 58 30 3 -3 2 -34 -3 -68 l-9 -63
-40 3 -40 3 45 -40 c25 -22 50 -40 57 -41 24 0 33 40 33 143 0 100 1 104 25
117 14 7 25 19 25 27 0 9 -8 11 -25 7 -22 -6 -25 -3 -25 24 0 26 5 31 45 42
53 15 54 35 2 35 -32 0 -37 3 -37 24 0 13 5 41 12 63 10 34 9 40 -8 53 -10 8
-29 15 -41 15 -21 0 -22 -2 -16 -84z"/>
  <path d="M540 550 c-74 -10 -139 -15 -145 -12 -5 3 -2 -4 8 -15 9 -11 17 -25
17 -32 0 -7 7 -28 16 -46 14 -30 14 -36 0 -58 -9 -13 -27 -30 -41 -37 -24 -13
-33 -34 -17 -43 4 -3 41 4 81 14 50 13 78 16 85 9 17 -17 36 -11 36 10 0 20
-27 40 -54 40 -9 0 -13 -6 -10 -15 4 -9 -3 -16 -20 -20 -14 -3 -37 -7 -51 -10
-36 -8 -30 6 16 39 23 16 38 34 35 41 -6 16 146 40 191 31 25 -5 32 0 63 41
45 61 45 58 15 71 -32 15 -55 14 -225 -8z m180 -21 c0 -4 -5 -19 -11 -32 -9
-20 -19 -25 -51 -25 -33 -1 -39 2 -33 16 4 9 9 25 12 34 7 24 83 31 83 7z
m-115 -24 c0 -17 -4 -33 -10 -37 -16 -12 -55 -9 -56 5 0 6 -2 22 -5 34 -3 16
2 23 19 26 42 8 52 3 52 -28z m-96 -11 c13 -30 12 -33 -18 -39 -16 -3 -24 3
-31 21 -15 37 -12 44 13 44 16 0 28 -9 36 -26z"/>
  <path d="M602 369 c3 -37 10 -64 19 -70 22 -15 172 -7 177 10 4 11 -10 12 -77
6 l-81 -7 0 25 c0 23 4 26 60 32 70 8 83 26 20 27 -3 1 -20 -2 -37 -5 -28 -6
-33 -3 -33 12 0 18 -18 31 -42 31 -7 0 -9 -23 -6 -61z"/>
  <path d="M470 280 c-19 -5 -45 -6 -57 -3 -22 5 -23 3 -17 -38 3 -24 0 -64 -6
-89 -16 -62 -17 -92 -3 -97 8 -3 17 13 25 40 10 38 16 46 41 51 55 11 77 7 77
-13 0 -35 -12 -51 -36 -51 -22 0 -23 -2 -12 -20 16 -25 46 -36 62 -21 15 16
26 233 11 243 -12 9 -39 9 -85 -2z m58 -31 c2 -12 -7 -18 -33 -23 -20 -4 -43
-10 -51 -13 -10 -4 -14 2 -14 20 0 19 6 27 23 30 40 8 72 2 75 -14z m2 -59 c0
-13 -7 -20 -19 -20 -10 0 -33 -3 -50 -6 -27 -6 -31 -4 -31 14 0 16 8 22 33 25
65 8 67 7 67 -13z"/>
  <path d="M610 193 c0 -99 5 -115 38 -131 32 -15 141 -16 179 -1 27 10 27 11 8
25 -11 8 -26 12 -35 8 -8 -3 -45 -9 -82 -11 -73 -6 -78 -1 -70 60 3 21 10 27
31 27 14 0 49 6 76 14 66 18 36 32 -35 17 -69 -15 -67 -15 -62 20 3 20 0 34
-9 40 -33 21 -39 10 -39 -68z"/>
</g>
<g id="part-1" class="char-part">
  <path d="M254 549 c4 -19 10 -57 13 -85 l6 -52 -52 -11 c-29 -6 -60 -11 -69
-11 -15 -1 -15 -2 1 -11 10 -6 39 -9 65 -7 l47 3 3 -43 3 -43 -73 -33 c-40
-18 -81 -36 -92 -40 -15 -5 -16 -9 -6 -21 19 -23 46 -18 106 20 l55 35 -3 -72
-3 -73 -37 0 -38 0 41 -40 40 -40 20 24 c16 20 19 39 19 126 0 101 1 104 28
125 l27 21 -28 -6 c-27 -6 -28 -5 -25 32 3 34 6 38 41 46 60 14 46 33 -22 27
-22 -2 -23 0 -16 42 4 23 12 51 17 62 12 23 -5 42 -46 52 -29 7 -29 6 -22 -27z"/>
</g>
<g id="part-2" class="char-part">
  <path d="M535 549 c-77 -9 -142 -18 -145 -18 -3 -1 1 -5 7 -9 7 -4 19 -26 26
-47 16 -45 11 -45 202 -33 l89 6 40 47 c38 45 39 48 21 61 -23 17 -62 16 -240
-7z m185 -19 c0 -5 -5 -20 -11 -33 -9 -19 -19 -24 -47 -25 -21 0 -71 -5 -112
-11 -41 -5 -78 -7 -82 -3 -4 4 -9 19 -13 33 -6 26 -5 27 62 36 91 14 203 15
203 3z"/>
</g>
<g id="part-3" class="char-part">
  <path d="M610 521 c0 -11 -3 -26 -6 -35 -10 -27 12 -18 24 9 16 34 15 45 -3
45 -8 0 -15 -9 -15 -19z"/>
</g>
<g id="part-4" class="char-part">
  <path d="M610 186 c0 -121 10 -131 129 -131 95 0 132 13 93 34 -14 8 -29 8
-47 1 -14 -5 -50 -10 -79 -10 -47 0 -54 3 -59 22 -14 51 -1 63 80 77 53 9 72
16 65 23 -8 8 -29 7 -72 -2 -33 -7 -63 -11 -66 -8 -2 3 0 17 6 32 9 24 7 28
-16 36 -14 6 -27 10 -30 10 -2 0 -4 -38 -4 -84z"/>
</g>
</g>
</svg>