<?xml version="1.0" standalone="no"?>
<!DOCTYPE svg PUBLIC "-//W3C//DTD SVG 20010904//EN"
 "http://www.w3.org/TR/2001/REC-SVG-20010904/DTD/svg10.dtd">
<svg version="1.0" xmlns="http://www.w3.org/2000/svg"
 width="96.000000pt" height="68.000000pt" viewBox="0 0 96.000000 68.000000"
 preserveAspectRatio="xMidYMid meet">
<metadata>
Created by potrace 1.16, written by Peter Selinger 2001-2019
Combined from part_0.svg through part_5.svg with named groups
</metadata>
<g transform="translate(0.000000,68.000000) scale(0.100000,-0.100000)" fill="#000000" stroke="none">
<g id="part-0" class="char-part">
  <path d="M287 553 c-4 -3 -7 -19 -7 -33 0 -38 -85 -165 -148 -222 -29 -25 -52
-49 -52 -53 0 -23 105 34 136 73 5 8 21 12 35 10 18 -2 25 -10 27 -30 3 -26 0
-28 -48 -34 -62 -8 -62 -29 1 -28 52 2 59 -6 59 -67 l0 -47 -44 -11 c-25 -6
-65 -11 -90 -11 -57 0 -62 -23 -11 -47 33 -16 36 -16 87 9 56 27 138 55 176
61 27 4 46 22 38 35 -6 10 -50 3 -88 -13 -16 -6 -18 -1 -18 49 l0 56 40 6 c22
4 43 10 46 15 6 11 -41 23 -66 16 -17 -4 -20 -1 -18 24 2 22 7 29 23 29 12 0
30 6 41 14 18 14 18 15 -6 20 -14 3 -52 0 -85 -8 -33 -8 -61 -13 -62 -12 -4 4
79 116 86 116 4 0 18 -11 31 -25 31 -33 73 -34 68 -2 -2 15 -17 29 -45 42 -25
12 -42 27 -43 37 0 25 -47 48 -63 31z"/>
  <path d="M585 541 c-3 -5 -1 -12 5 -16 5 -3 10 -42 10 -86 l0 -79 -81 0 c-53
0 -78 -4 -74 -10 7 -11 22 -108 31 -194 6 -60 11 -68 32 -62 10 2 63 7 119 11
97 6 101 6 108 -14 8 -28 41 -27 56 1 7 13 23 76 36 141 30 150 28 153 -88
144 -94 -8 -96 -5 -81 80 8 48 7 61 -6 76 -16 18 -57 23 -67 8z m195 -233 l0
-48 -64 0 -64 0 0 44 c0 44 0 45 36 48 94 9 92 10 92 -44z m-170 -12 l0 -45
-46 -7 c-25 -3 -49 -3 -54 2 -10 11 -21 75 -14 86 3 4 30 8 60 8 l54 0 0 -44z
m159 -88 c-1 -62 -11 -73 -60 -69 -50 3 -60 14 -57 56 3 26 8 31 38 36 75 13
80 12 79 -23z m-159 -33 c0 -44 -1 -45 -32 -46 -18 0 -41 -2 -50 -4 -15 -3
-18 4 -18 46 l0 49 50 0 50 0 0 -45z"/>
  <path d="M370 200 c-23 -46 -14 -50 36 -19 39 24 42 34 15 49 -28 14 -28 14
-51 -30z"/>
  <path d="M189 178 c21 -35 46 -47 63 -30 14 14 -34 62 -63 62 l-21 0 21 -32z"/>
</g>
<g id="part-1" class="char-part">
  <path d="M290 528 c0 -37 -69 -145 -141 -220 -36 -37 -64 -68 -62 -68 12 0 72
37 101 61 43 38 89 40 98 5 8 -35 -2 -46 -44 -46 -20 0 -44 -5 -52 -10 -11 -7
2 -10 43 -10 l58 0 -3 -62 c-3 -59 -4 -62 -33 -70 -16 -5 -54 -11 -83 -13 -30
-2 -56 -6 -59 -8 -2 -3 7 -13 21 -22 30 -20 33 -20 186 35 155 55 171 74 38
44 -28 -6 -28 -6 -28 49 0 58 7 67 55 67 13 0 27 5 30 10 6 10 -13 14 -51 11
-17 -1 -23 5 -26 29 -4 28 -2 31 34 36 38 7 49 18 26 27 -7 2 -22 1 -33 -3
-11 -4 -44 -11 -73 -15 l-53 -7 46 66 47 66 36 -30 c43 -35 62 -38 62 -9 0 24
-26 48 -52 49 -9 0 -23 12 -30 28 -17 36 -58 43 -58 10z"/>
  <path d="M375 200 c-12 -23 -12 -30 -3 -30 22 1 61 36 54 49 -13 20 -35 12
-51 -19z"/>
  <path d="M186 188 c15 -27 38 -48 51 -48 20 0 16 38 -6 50 -28 14 -54 13 -45
-2z"/>
</g>
<g id="part-2" class="char-part">
  <path d="M586 533 c4 -10 10 -51 12 -90 l4 -73 30 0 c26 0 30 3 25 21 -3 12
-2 46 3 77 11 63 -1 81 -54 82 -23 0 -27 -3 -20 -17z"/>
</g>
<g id="part-3" class="char-part">
  <path d="M645 370 c-33 -4 -93 -8 -134 -9 -65 -1 -72 -3 -66 -18 6 -17 14 -59
33 -193 6 -46 11 -55 27 -53 11 1 66 5 121 9 98 6 102 6 109 -15 9 -30 42 -26
59 7 7 15 19 61 25 102 6 41 17 92 23 114 11 34 10 40 -7 52 -20 15 -88 16
-190 4z m133 -62 l3 -48 -65 0 -66 0 0 44 c0 41 2 45 28 49 15 2 43 4 62 3 34
-1 35 -2 38 -48z m-168 -12 l0 -45 -46 -7 c-25 -3 -49 -3 -53 2 -11 12 -21 81
-14 88 4 3 30 6 60 6 l53 0 0 -44z m160 -90 c0 -60 -7 -66 -67 -66 l-54 0 3
43 c3 41 4 42 43 48 76 12 75 12 75 -25z m-160 -31 l0 -45 -50 0 -50 0 0 45 0
45 50 0 50 0 0 -45z"/>
</g>
</g>
</svg>