<?xml version="1.0" standalone="no"?>
<!DOCTYPE svg PUBLIC "-//W3C//DTD SVG 20010904//EN"
 "http://www.w3.org/TR/2001/REC-SVG-20010904/DTD/svg10.dtd">
<svg version="1.0" xmlns="http://www.w3.org/2000/svg"
 width="96.000000pt" height="68.000000pt" viewBox="0 0 96.000000 68.000000"
 preserveAspectRatio="xMidYMid meet">
<metadata>
Created by potrace 1.16, written by Peter Selinger 2001-2019
Combined from part_0.svg through part_5.svg with named groups
</metadata>
<g transform="translate(0.000000,68.000000) scale(0.100000,-0.100000)" fill="#000000" stroke="none">
<g id="part-0" class="char-part">
  <path d="M295 525 c-33 -7 -86 -16 -118 -20 -67 -8 -73 -27 -11 -35 37 -5 39
-7 42 -42 l3 -37 -51 -7 c-36 -5 -48 -10 -41 -17 14 -14 14 -132 0 -196 -8
-37 -7 -55 2 -72 11 -21 13 -21 24 -6 10 14 30 17 103 17 82 0 91 -2 97 -20 8
-24 18 -25 35 -5 18 21 20 295 3 313 -6 6 -28 12 -48 12 -35 0 -37 1 -31 27 5
16 3 29 -5 34 -8 4 2 10 27 14 63 11 74 15 74 31 0 8 -4 14 -9 14 -5 0 -15 2
-23 4 -7 2 -40 -2 -73 -9z m-37 -126 c-10 -6 -14 1 -18 29 -4 27 -1 39 10 43
20 8 28 -60 8 -72z m95 -32 c6 -19 3 -72 -5 -74 -5 -2 -17 -3 -28 -3 -17 0
-20 7 -20 43 0 24 3 46 6 49 8 9 42 -3 47 -15z m-82 1 c1 -7 0 -26 -1 -41 -2
-37 26 -67 63 -67 l29 0 -6 -57 c-3 -31 -7 -58 -9 -59 -1 -1 -45 -4 -97 -6
l-95 -3 3 49 c3 38 10 58 32 83 16 18 34 51 40 73 10 38 39 57 41 28z m-65
-18 c-3 -11 -9 -30 -12 -42 -4 -12 -13 -28 -20 -36 -12 -11 -14 -6 -14 36 0
54 4 62 32 62 15 0 18 -5 14 -20z"/>
  <path d="M222 200 c-46 -11 -51 -20 -11 -20 51 0 109 11 109 21 0 11 -52 10
-98 -1z"/>
  <path d="M615 504 c-38 -7 -96 -14 -128 -15 -53 -1 -57 -3 -44 -18 8 -9 22
-50 31 -92 l17 -77 107 3 107 3 18 59 c10 32 25 73 33 91 14 33 14 33 -21 47
-19 8 -38 14 -42 14 -4 -1 -39 -8 -78 -15z m80 -71 c-12 -104 -11 -103 -64
-103 -25 0 -62 -3 -82 -6 l-35 -6 -13 72 c-7 39 -11 73 -9 75 5 6 126 22 172
24 l38 1 -7 -57z"/>
  <path d="M561 414 c-17 -32 -29 -59 -27 -62 3 -2 17 8 32 23 l26 26 29 -27
c23 -22 32 -25 42 -15 9 10 8 15 -7 27 -11 8 -26 14 -33 14 -9 0 -12 11 -11
31 5 52 -18 44 -51 -17z"/>
  <path d="M655 260 c-27 -5 -89 -9 -137 -9 -52 -1 -88 -5 -88 -11 0 -5 4 -10 9
-10 4 0 11 -15 15 -32 3 -18 9 -45 12 -61 6 -26 5 -27 -32 -27 -38 0 -38 0
-15 -16 16 -12 32 -14 54 -9 18 4 104 10 192 14 159 6 196 17 121 34 -42 10
-43 14 -15 69 20 40 21 42 3 55 -19 14 -42 15 -119 3z m49 -16 c17 -7 20 -32
10 -83 -6 -27 -10 -31 -40 -31 -19 0 -34 1 -34 3 0 8 30 99 35 107 7 12 9 12
29 4z m-80 -26 c0 -10 -1 -36 -2 -58 -2 -33 -6 -40 -22 -40 -16 0 -20 7 -21
40 -1 22 -2 46 -3 53 -4 21 5 28 27 25 14 -2 22 -10 21 -20z m-84 -5 c0 -10 3
-34 6 -54 6 -33 4 -37 -21 -43 -15 -4 -29 -6 -30 -4 -2 2 -6 29 -10 61 l-7 57
31 0 c23 0 31 -5 31 -17z"/>
</g>
<g id="part-1" class="char-part">
  <path d="M270 515 c-36 -7 -82 -13 -102 -14 -53 -1 -56 -18 -4 -25 63 -10 223
18 228 39 4 15 -47 14 -122 0z"/>
</g>
<g id="part-2" class="char-part">
  <path d="M225 393 c-38 -7 -80 -12 -93 -10 -18 4 -22 1 -17 -12 15 -35 17 -92
6 -171 -12 -91 -3 -132 25 -109 8 6 55 14 104 17 78 4 90 3 90 -11 0 -24 20
-31 38 -14 13 13 15 42 15 161 0 79 -4 149 -7 155 -9 14 -74 12 -161 -6z m129
-45 c6 -48 6 -97 0 -155 l-5 -51 -95 -7 c-52 -4 -96 -6 -98 -4 -1 2 0 56 3
119 l6 115 40 6 c22 3 63 7 92 8 52 1 52 1 57 -31z"/>
</g>
<g id="part-3" class="char-part">
  <path d="M620 504 c-36 -7 -93 -13 -128 -14 l-62 0 14 -23 c9 -12 20 -47 26
-77 20 -98 20 -99 82 -88 29 6 76 8 103 5 l51 -5 30 95 30 95 -28 14 c-31 16
-31 16 -118 -2z m80 -37 c0 -13 -5 -49 -11 -80 l-12 -57 -58 -2 c-33 -1 -69
-2 -81 -2 -20 -1 -25 7 -37 67 -8 37 -12 70 -8 73 5 6 118 20 175 23 27 1 32
-2 32 -22z"/>
</g>
<g id="part-4" class="char-part">
  <path d="M575 443 c-3 -16 -18 -43 -31 -60 -19 -25 -21 -33 -10 -33 8 0 24 12
36 27 l20 26 29 -27 c16 -16 34 -25 40 -22 20 13 11 27 -25 42 -29 12 -34 18
-24 29 7 8 10 22 6 30 -9 24 -33 17 -41 -12z"/>
</g>
<g id="part-5" class="char-part">
  <path d="M643 228 c-10 -17 -12 -61 -2 -51 10 10 23 63 16 63 -3 0 -9 -6 -14
-12z"/>
  <path d="M545 220 c-3 -5 0 -10 7 -10 8 0 9 -3 3 -8 -6 -4 -8 -20 -4 -37 7
-34 11 -27 14 28 2 36 -7 48 -20 27z"/>
  <path d="M554 119 c-9 -14 12 -17 66 -9 57 8 54 11 -18 14 -24 1 -45 -1 -48
-5z"/>
  <path d="M694 118 c-3 -5 23 -8 60 -7 36 1 63 5 61 9 -6 10 -115 8 -121 -2z"/>
  <path d="M455 100 c-17 -8 -17 -9 7 -7 15 1 24 5 22 9 -3 4 -6 8 -7 7 -1 0
-11 -4 -22 -9z"/>
  <path d="M518 103 c7 -3 16 -2 19 1 4 3 -2 6 -13 5 -11 0 -14 -3 -6 -6z"/>
</g>
</g>
</svg>