<?xml version="1.0" standalone="no"?>
<!DOCTYPE svg PUBLIC "-//W3C//DTD SVG 20010904//EN"
 "http://www.w3.org/TR/2001/REC-SVG-20010904/DTD/svg10.dtd">
<svg version="1.0" xmlns="http://www.w3.org/2000/svg"
 width="96.000000pt" height="68.000000pt" viewBox="0 0 96.000000 68.000000"
 preserveAspectRatio="xMidYMid meet">
<metadata>
Created by potrace 1.16, written by Peter Selinger 2001-2019
Combined from part_0.svg through part_5.svg with named groups
</metadata>
<g transform="translate(0.000000,68.000000) scale(0.100000,-0.100000)" fill="#000000" stroke="none">
<g id="part-0" class="char-part">
  <path d="M387 594 c-2 -25 -9 -50 -14 -55 -5 -5 -44 -14 -88 -20 -88 -12 -94
-14 -78 -30 7 -7 37 -10 76 -7 l65 4 -14 -27 c-22 -44 -107 -121 -173 -159
-33 -19 -61 -38 -61 -43 0 -11 47 2 103 28 26 12 50 18 53 14 3 -5 27 -9 54
-9 l49 0 -10 -30 c-6 -16 -15 -30 -20 -30 -5 0 -9 -7 -9 -15 0 -19 29 -19 89
1 57 18 106 16 106 -6 3 -80 -64 -157 -103 -118 -17 17 -15 1 5 -33 37 -63 98
-25 137 87 26 73 27 76 9 90 -14 11 -37 13 -101 8 l-84 -6 17 26 c9 14 14 30
10 36 -4 6 20 10 72 11 43 1 89 4 103 9 23 7 23 8 6 15 -24 10 -294 -16 -318
-31 -4 -3 -8 -1 -8 5 0 5 15 21 33 36 19 14 55 54 82 90 32 44 54 65 68 65 13
0 62 -41 132 -110 104 -102 115 -110 151 -110 59 0 115 12 111 23 -1 5 -41 25
-89 44 -49 19 -107 52 -136 76 -28 23 -63 51 -79 62 l-28 20 79 5 c85 5 109
22 59 41 -20 7 -51 7 -111 -1 -46 -7 -85 -10 -87 -8 -2 2 4 19 12 37 16 32 16
34 -2 47 -10 8 -29 14 -41 14 -18 0 -22 -7 -27 -46z"/>
  <path d="M424 406 c-22 -7 -48 -12 -57 -10 -10 1 -14 -2 -11 -8 4 -7 29 -8 64
-5 67 7 92 16 84 28 -7 12 -30 10 -80 -5z"/>
</g>
<g id="part-1" class="char-part">
  <path d="M399 638 c-1 -2 -2 -16 -4 -33 -2 -16 -8 -42 -13 -56 -10 -25 -16
-27 -91 -34 -45 -4 -81 -11 -81 -15 0 -16 40 -21 96 -14 l57 7 -31 -44 c-40
-59 -84 -99 -161 -148 -73 -46 -59 -54 24 -15 69 33 144 99 186 164 53 82 59
80 211 -67 l107 -105 58 7 c91 11 91 18 -2 54 -63 24 -108 50 -169 99 l-84 67
79 9 c43 5 79 12 79 16 0 21 -58 27 -135 15 -44 -7 -82 -12 -83 -10 -2 2 2 20
9 40 12 34 12 38 -6 51 -16 12 -43 19 -46 12z"/>
</g>
<g id="part-2" class="char-part">
  <path d="M413 407 c-79 -16 -66 -31 19 -23 78 7 90 12 68 26 -17 11 -15 11
-87 -3z"/>
</g>
<g id="part-3" class="char-part">
  <path d="M403 328 c-79 -11 -143 -25 -143 -30 0 -7 22 -8 58 -5 31 3 106 10
166 16 59 5 111 12 114 15 4 5 -45 28 -51 25 -1 -1 -66 -10 -144 -21z"/>
</g>
<g id="part-4" class="char-part">
  <path d="M423 243 c-27 -3 -43 -9 -43 -18 0 -10 9 -11 38 -4 47 11 73 11 90 0
17 -11 -1 -86 -29 -120 -18 -22 -24 -24 -50 -14 -17 7 -29 9 -27 5 2 -4 10
-19 17 -35 9 -17 22 -27 36 -27 40 0 71 36 99 116 26 73 27 76 9 90 -17 13
-52 15 -140 7z"/>
</g>
</g>
</svg>