<?xml version="1.0" standalone="no"?>
<!DOCTYPE svg PUBLIC "-//W3C//DTD SVG 20010904//EN"
 "http://www.w3.org/TR/2001/REC-SVG-20010904/DTD/svg10.dtd">
<svg version="1.0" xmlns="http://www.w3.org/2000/svg"
 width="96.000000pt" height="68.000000pt" viewBox="0 0 96.000000 68.000000"
 preserveAspectRatio="xMidYMid meet">
<metadata>
Created by potrace 1.16, written by Peter Selinger 2001-2019
Combined from part_0.svg through part_5.svg with named groups
</metadata>
<g transform="translate(0.000000,68.000000) scale(0.100000,-0.100000)" fill="#000000" stroke="none">
<g id="part-0" class="char-part">
  <path d="M589 592 c-13 -9 -50 -26 -84 -39 -59 -23 -59 -23 -20 -21 38 3 40 2
40 -27 0 -30 0 -30 -77 -40 -100 -13 -114 -28 -20 -23 39 2 72 1 72 -3 0 -9
-86 -72 -128 -93 -19 -10 -32 -20 -29 -22 7 -7 113 42 149 68 31 21 39 14 35
-32 -1 -16 4 -26 16 -28 14 -3 17 4 17 47 0 28 2 51 5 51 7 0 63 -31 120 -65
45 -28 75 -32 75 -10 0 21 -34 39 -117 65 -40 13 -73 26 -73 30 0 4 41 10 90
12 50 3 94 8 97 12 19 19 -48 25 -138 12 l-55 -8 4 35 c4 32 8 36 48 46 50 13
55 23 20 39 -19 8 -29 7 -47 -6z"/>
  <path d="M290 584 c0 -27 -67 -156 -100 -194 -17 -19 -46 -52 -66 -72 -61 -65
3 -43 74 25 l42 41 0 -85 c0 -47 -5 -111 -11 -143 -13 -63 1 -109 30 -104 20
4 28 56 32 221 2 97 0 130 -10 136 -9 6 -1 25 33 75 25 37 46 71 46 76 0 12
-41 40 -57 40 -7 0 -13 -7 -13 -16z"/>
  <path d="M500 310 c0 -5 1 -11 2 -12 1 -2 -4 -13 -10 -25 -10 -19 -24 -22
-102 -29 -103 -8 -112 -26 -12 -24 37 1 70 1 75 1 4 -1 0 -12 -8 -25 -19 -28
-13 -33 43 -42 23 -4 42 -10 42 -15 0 -12 -54 -39 -120 -61 l-55 -18 55 3 c33
2 77 14 111 30 31 15 59 27 63 27 4 0 35 -16 69 -36 73 -43 96 -49 104 -27 8
21 -26 48 -88 70 -54 20 -57 27 -29 63 11 14 20 31 20 38 0 9 26 12 96 12 85
0 95 2 84 15 -9 11 -33 15 -87 15 -52 0 -81 5 -99 17 -24 15 -25 15 -31 -5 -4
-18 -13 -22 -44 -22 -37 0 -51 12 -29 25 8 5 7 11 -1 21 -13 16 -49 19 -49 4z
m110 -81 c0 -6 -9 -24 -21 -40 -20 -28 -24 -29 -68 -23 -25 4 -49 8 -53 10 -8
5 32 49 52 57 27 10 90 7 90 -4z"/>
</g>
<g id="part-1" class="char-part">
  <path d="M290 573 c0 -48 -70 -161 -154 -252 -39 -41 -40 -43 -11 -28 17 8 50
34 74 56 24 23 46 41 48 41 13 0 -4 -223 -22 -280 -8 -24 31 -70 43 -52 16 23
25 331 12 347 -10 12 -4 28 29 81 45 71 49 89 25 98 -28 11 -44 6 -44 -11z"/>
</g>
<g id="part-2" class="char-part">
  <path d="M595 600 c-9 -15 -64 -42 -115 -56 l-45 -12 40 -1 c40 -1 169 30 183
44 8 8 -26 35 -44 35 -7 0 -16 -5 -19 -10z"/>
</g>
<g id="part-3" class="char-part">
  <path d="M528 508 l-3 -33 -82 -9 c-46 -5 -83 -13 -83 -18 0 -4 32 -8 71 -8
l71 0 -29 -23 c-15 -13 -53 -41 -83 -61 -33 -23 -45 -35 -30 -31 32 10 98 42
132 66 34 25 39 24 34 -7 -6 -32 2 -54 20 -54 10 0 14 14 14 50 0 28 3 50 8
50 4 0 40 -20 80 -45 79 -49 112 -57 112 -26 0 20 -42 40 -147 71 -24 7 -43
16 -43 20 0 4 41 10 90 12 87 5 110 11 97 24 -9 9 -76 10 -134 1 l-53 -8 0 31
c0 23 -4 30 -19 30 -15 0 -21 -8 -23 -32z"/>
</g>
<g id="part-4" class="char-part">
  <path d="M496 286 c-6 -32 -8 -33 -68 -40 -33 -3 -77 -6 -97 -6 -31 -1 -33 -2
-17 -11 10 -7 45 -9 82 -6 65 4 76 -1 49 -23 -28 -23 -17 -38 35 -45 28 -4 50
-11 50 -16 0 -12 -56 -40 -125 -61 l-60 -18 61 4 c40 2 81 13 118 32 l57 28
80 -43 c56 -30 84 -40 91 -33 24 24 -6 48 -114 91 l-28 11 32 45 32 45 89 0
c78 0 88 2 77 15 -9 11 -33 15 -89 15 -51 1 -82 5 -95 15 -26 20 -36 19 -36
-4 0 -15 -9 -20 -41 -23 -45 -4 -56 3 -34 22 12 10 13 16 4 26 -21 26 -46 16
-53 -20z m114 -57 c0 -6 -10 -24 -21 -41 -20 -28 -25 -29 -68 -23 -25 4 -47 8
-49 10 -8 8 21 47 41 55 32 13 97 12 97 -1z"/>
</g>
</g>
</svg>