<?xml version="1.0" standalone="no"?>
<!DOCTYPE svg PUBLIC "-//W3C//DTD SVG 20010904//EN"
 "http://www.w3.org/TR/2001/REC-SVG-20010904/DTD/svg10.dtd">
<svg version="1.0" xmlns="http://www.w3.org/2000/svg"
 width="96.000000pt" height="68.000000pt" viewBox="0 0 96.000000 68.000000"
 preserveAspectRatio="xMidYMid meet">
<metadata>
Created by potrace 1.16, written by Peter Selinger 2001-2019
Combined from part_0.svg through part_5.svg with named groups
</metadata>
<g transform="translate(0.000000,68.000000) scale(0.100000,-0.100000)" fill="#000000" stroke="none">
<g id="part-0" class="char-part">
  <path d="M170 558 c0 -20 71 -78 96 -78 36 0 34 45 -3 63 -40 20 -93 29 -93
15z"/>
  <path d="M492 552 c-119 -14 -146 -27 -72 -34 32 -3 35 -6 38 -37 l3 -34 -60
5 c-63 4 -72 0 -46 -22 8 -7 15 -18 15 -24 0 -6 5 -28 10 -48 l11 -38 59 7
c57 6 59 5 66 -21 3 -14 4 -32 1 -39 -5 -14 -88 -27 -163 -27 -19 0 -34 -4
-34 -9 0 -17 51 -22 112 -11 33 6 63 9 66 5 8 -8 -87 -104 -123 -122 -17 -9
-25 -18 -17 -20 14 -5 84 34 127 72 l30 27 3 -74 c3 -79 12 -99 37 -78 11 9
15 32 15 92 l0 79 67 -66 c67 -65 68 -65 125 -65 53 0 86 14 56 25 -93 32
-134 52 -182 86 -32 23 -56 43 -54 45 2 2 49 4 103 5 55 1 104 3 108 6 5 3 -1
12 -13 20 -17 12 -40 13 -115 8 l-95 -7 0 31 c0 21 -5 31 -16 31 -9 0 -12 5
-8 11 4 8 33 10 83 7 l77 -4 33 59 c32 58 33 61 15 74 -12 9 -38 13 -68 12
-49 -3 -49 -3 -50 29 -1 26 3 32 19 32 31 0 65 11 65 21 0 12 -81 9 -228 -9z
m88 -55 c0 -32 -2 -33 -40 -35 -38 -3 -40 -1 -40 27 0 32 10 39 53 40 24 1 27
-2 27 -32z m115 -79 c-10 -45 -10 -45 -50 -50 -30 -3 -35 -1 -35 17 0 52 11
65 52 65 39 0 40 0 33 -32z m-119 6 c-3 -9 -6 -26 -6 -39 0 -17 -7 -24 -27
-28 -16 -3 -29 -4 -30 -3 -1 1 -5 21 -9 44 l-7 42 43 0 c34 0 41 -3 36 -16z
m-106 -34 c0 -37 -2 -40 -29 -40 -24 0 -31 6 -40 31 -16 47 -15 49 29 49 l40
0 0 -40z"/>
  <path d="M100 422 c0 -17 82 -82 102 -82 42 0 29 53 -17 70 -41 16 -85 22 -85
12z"/>
  <path d="M241 269 c-19 -28 -54 -67 -78 -88 -24 -21 -43 -45 -43 -53 0 -20 29
-58 45 -58 12 0 125 218 125 241 0 20 -17 6 -49 -42z"/>
</g>
<g id="part-1" class="char-part">
  <path d="M205 520 c41 -42 77 -50 83 -18 4 22 -53 58 -93 58 l-29 0 39 -40z"/>
  <path d="M110 411 c0 -15 67 -61 89 -61 36 0 26 39 -14 56 -39 16 -75 19 -75
5z"/>
  <path d="M235 254 c-21 -31 -54 -67 -72 -81 -19 -15 -33 -34 -33 -47 1 -23 22
-56 36 -56 5 0 35 54 66 120 31 66 53 120 49 120 -4 0 -25 -25 -46 -56z"/>
</g>
<g id="part-2" class="char-part">
  <path d="M518 557 c-189 -24 -204 -43 -26 -33 148 8 244 25 227 40 -14 12 -61
11 -201 -7z"/>
</g>
<g id="part-3" class="char-part">
  <path d="M540 463 c-63 -7 -136 -11 -162 -9 -45 5 -65 -5 -34 -17 8 -3 22 -31
31 -62 l16 -57 37 7 c20 4 91 8 157 10 l120 4 34 57 c33 54 34 57 16 70 -22
17 -62 16 -215 -3z m155 -45 c-4 -18 -9 -36 -11 -39 -4 -7 -71 -15 -199 -25
l-70 -6 -14 37 c-7 20 -11 38 -9 39 4 4 201 23 261 24 l49 2 -7 -32z"/>
</g>
<g id="part-4" class="char-part">
  <path d="M517 291 l5 -39 -101 -7 c-55 -4 -101 -11 -101 -15 0 -16 59 -21 116
-11 32 6 60 9 62 6 8 -8 -47 -63 -113 -113 -38 -28 -51 -42 -35 -37 31 9 94
46 138 81 l32 27 0 -76 c0 -78 6 -92 30 -77 11 7 15 30 15 90 0 44 2 80 4 80
3 0 35 -29 72 -65 64 -62 69 -65 117 -65 88 0 89 10 4 44 -82 33 -179 95 -174
112 1 5 47 7 101 6 100 -3 131 6 91 28 -14 7 -53 9 -115 4 l-95 -7 0 30 c0 23
-5 32 -22 37 -36 9 -36 8 -31 -33z"/>
</g>
</g>
</svg>