<?xml version="1.0" standalone="no"?>
<!DOCTYPE svg PUBLIC "-//W3C//DTD SVG 20010904//EN"
 "http://www.w3.org/TR/2001/REC-SVG-20010904/DTD/svg10.dtd">
<svg version="1.0" xmlns="http://www.w3.org/2000/svg"
 width="96.000000pt" height="68.000000pt" viewBox="0 0 96.000000 68.000000"
 preserveAspectRatio="xMidYMid meet">
<metadata>
Created by potrace 1.16, written by Peter Selinger 2001-2019
Combined from part_0.svg through part_5.svg with named groups
</metadata>
<g transform="translate(0.000000,68.000000) scale(0.100000,-0.100000)" fill="#000000" stroke="none">
<g id="part-0" class="char-part">
  <path d="M510 586 c0 -2 6 -19 14 -37 7 -19 16 -55 18 -81 l5 -47 -73 -13
c-99 -16 -96 -32 4 -24 l79 7 18 -68 c31 -119 31 -125 -10 -152 -46 -31 -37
-39 15 -13 l42 20 16 -20 c36 -44 108 -110 130 -119 13 -5 34 -9 47 -9 22 0
23 2 18 63 -6 74 -19 94 -28 44 -12 -63 -49 -55 -112 24 -35 45 -35 44 14 105
36 45 41 69 17 78 -29 11 -44 6 -44 -14 0 -29 -30 -84 -40 -74 -9 10 -40 110
-40 130 0 7 24 18 55 24 30 6 55 15 55 20 0 15 -34 20 -69 10 -19 -5 -38 -7
-42 -4 -5 3 -9 36 -9 73 0 63 -2 69 -22 75 -26 7 -58 8 -58 2z"/>
  <path d="M245 514 c-14 -31 -43 -73 -66 -94 -32 -29 -40 -42 -34 -59 8 -25 16
-26 74 -5 24 8 46 13 48 10 3 -3 -20 -31 -51 -62 -31 -31 -56 -60 -56 -64 0
-19 33 -17 90 6 42 18 70 23 91 19 24 -6 29 -3 29 13 0 10 -11 24 -25 30 -34
16 -36 15 -33 -4 2 -12 -10 -21 -40 -32 -24 -8 -46 -11 -49 -8 -3 3 27 40 68
81 91 94 93 98 69 120 -18 16 -19 15 -39 -23 -17 -34 -27 -41 -61 -47 -23 -4
-43 -5 -45 -3 -2 2 20 31 50 65 57 63 64 80 43 101 -23 23 -38 12 -63 -44z"/>
  <path d="M650 505 c28 -30 70 -34 70 -6 0 19 -25 31 -69 31 l-24 0 23 -25z"/>
  <path d="M444 313 c1 -45 -1 -48 -26 -51 -35 -4 -37 -22 -3 -22 34 0 33 -28
-5 -75 -33 -41 -34 -45 -21 -45 16 0 71 64 83 98 9 24 20 35 40 39 40 8 45 23
8 23 -29 0 -31 2 -28 30 2 19 -3 34 -12 40 -29 18 -36 10 -36 -37z"/>
  <path d="M306 208 c13 -23 37 -48 46 -48 20 0 6 41 -18 50 -33 13 -37 13 -28
-2z"/>
  <path d="M220 190 c0 -22 39 -53 57 -46 16 7 15 10 -10 32 -30 26 -47 31 -47
14z"/>
  <path d="M100 164 c0 -9 42 -68 55 -76 35 -26 35 33 -1 61 -25 20 -54 28 -54
15z"/>
</g>
<g id="part-1" class="char-part">
  <path d="M250 511 c-12 -26 -39 -65 -61 -87 -40 -39 -51 -74 -23 -74 8 0 35 5
60 11 55 14 73 35 20 25 -21 -4 -36 -3 -36 3 0 5 25 38 55 74 59 69 64 81 39
91 -28 11 -33 7 -54 -43z"/>
</g>
<g id="part-2" class="char-part">
  <path d="M300 212 c0 -10 43 -52 53 -52 16 0 6 40 -12 50 -24 12 -41 13 -41 2z"/>
  <path d="M220 187 c0 -19 33 -47 53 -47 27 0 19 28 -13 45 -36 18 -40 19 -40
2z"/>
  <path d="M122 128 c27 -50 58 -63 58 -24 0 26 -41 66 -67 66 -11 0 -9 -10 9
-42z"/>
</g>
<g id="part-3" class="char-part">
  <path d="M510 583 c0 -5 6 -26 14 -48 7 -22 16 -56 19 -76 l5 -37 -74 -11
c-101 -17 -98 -36 4 -28 l77 6 23 -77 c12 -42 25 -84 27 -92 3 -9 -10 -26 -35
-44 -22 -16 -38 -31 -36 -33 2 -2 23 4 46 13 l42 17 49 -55 c51 -59 99 -88
144 -88 25 0 27 2 21 31 -3 17 -6 47 -6 65 0 39 -17 45 -26 9 -8 -33 -25 -44
-51 -34 -23 9 -83 84 -83 104 0 7 18 35 40 63 37 46 39 52 24 66 -23 23 -54
21 -54 -4 0 -12 -8 -35 -17 -53 l-16 -32 -18 40 c-9 22 -19 56 -23 76 l-6 36
55 12 c30 7 55 16 55 21 0 15 -34 20 -69 10 -19 -5 -38 -7 -42 -4 -5 3 -9 34
-9 69 0 53 -3 66 -19 75 -23 12 -61 13 -61 3z"/>
  <path d="M650 505 c25 -26 64 -33 76 -13 11 17 -25 38 -65 38 l-34 0 23 -25z"/>
</g>
<g id="part-4" class="char-part">
  <path d="M440 341 c5 -11 10 -33 10 -50 0 -28 -3 -31 -30 -31 -16 0 -30 -4
-30 -10 0 -5 11 -10 25 -10 34 0 32 -18 -11 -81 l-37 -53 34 21 c20 13 44 42
59 72 19 37 32 52 52 56 40 9 45 25 7 25 -30 0 -31 1 -26 34 5 29 2 35 -16 40
-40 11 -49 8 -37 -13z"/>
</g>
</g>
</svg>