<?xml version="1.0" standalone="no"?>
<!DOCTYPE svg PUBLIC "-//W3C//DTD SVG 20010904//EN"
 "http://www.w3.org/TR/2001/REC-SVG-20010904/DTD/svg10.dtd">
<svg version="1.0" xmlns="http://www.w3.org/2000/svg"
 width="96.000000pt" height="68.000000pt" viewBox="0 0 96.000000 68.000000"
 preserveAspectRatio="xMidYMid meet">
<metadata>
Created by potrace 1.16, written by Peter Selinger 2001-2019
Combined from part_0.svg through part_5.svg with named groups
</metadata>
<g transform="translate(0.000000,68.000000) scale(0.100000,-0.100000)" fill="#000000" stroke="none">
<g id="part-0" class="char-part">
  <path d="M463 593 c-20 -58 -36 -89 -64 -124 -39 -50 -32 -60 14 -20 19 17 45
31 58 31 46 0 259 33 259 41 0 18 -57 17 -146 -2 -53 -11 -98 -18 -101 -15 -3
3 4 18 16 34 26 37 26 48 2 62 -26 14 -31 13 -38 -7z"/>
  <path d="M220 499 c-14 -6 -43 -8 -65 -4 l-40 5 0 -157 c1 -87 4 -164 9 -171
8 -14 33 -16 38 -3 2 5 20 12 40 16 34 6 39 5 49 -19 15 -31 33 -33 52 -6 10
15 13 55 11 172 -2 149 -3 153 -26 165 -27 15 -35 15 -68 2z m38 -86 c2 -41 0
-53 -11 -53 -8 0 -29 -3 -46 -6 l-31 -6 0 49 c0 57 14 75 55 71 29 -3 30 -5
33 -55z m0 -135 l-3 -53 -42 -3 -43 -3 0 49 c0 27 3 52 7 55 3 4 24 7 45 7
l39 0 -3 -52z"/>
  <path d="M560 419 c-41 -4 -89 -5 -106 -2 l-30 4 4 -65 4 -66 -51 0 c-35 0
-50 -4 -45 -11 3 -6 21 -9 40 -7 19 2 35 -1 38 -7 4 -11 -15 -58 -35 -86 -7
-9 -9 -24 -6 -33 6 -14 10 -15 29 -5 13 7 71 15 131 17 118 5 131 -2 83 -47
-20 -19 -31 -22 -58 -16 l-33 7 34 -36 c19 -20 40 -36 47 -36 16 0 70 62 79
90 6 18 12 21 33 15 63 -15 82 -17 82 -7 0 17 -51 52 -76 52 -21 0 -24 5 -24
39 0 66 5 71 74 71 56 1 59 2 42 15 -11 8 -39 15 -63 15 -47 0 -48 2 -31 50 9
29 9 35 -7 47 -20 14 -38 14 -155 2z m108 -53 c2 -21 0 -42 -5 -47 -4 -4 -50
-11 -100 -15 l-93 -7 0 39 c0 21 4 44 8 51 4 7 38 14 77 16 113 6 110 7 113
-37z m-10 -125 l-3 -48 -110 -6 c-60 -3 -111 -4 -112 -3 -1 1 4 22 11 46 l13
45 64 3 c35 1 71 4 79 6 8 2 25 4 38 5 21 1 23 -2 20 -48z"/>
  <path d="M539 350 c32 -27 55 -27 41 0 -7 13 -21 20 -38 20 l-27 -1 24 -19z"/>
  <path d="M520 252 c0 -19 40 -44 57 -37 16 6 16 8 -6 26 -24 20 -51 25 -51 11z"/>
</g>
<g id="part-1" class="char-part">
  <path d="M200 490 c-19 -5 -44 -7 -55 -4 -20 5 -21 2 -17 -90 3 -53 -1 -116
-7 -140 -8 -34 -8 -51 1 -70 13 -29 26 -33 34 -11 10 25 78 20 97 -7 12 -19
18 -21 34 -12 16 10 18 27 19 168 1 141 -1 158 -17 166 -20 11 -40 11 -89 0z
m60 -59 c0 -22 2 -46 5 -53 4 -10 -9 -17 -45 -24 l-50 -11 0 64 0 63 45 0 45
0 0 -39z m2 -153 c-2 -29 -5 -54 -7 -55 -1 -2 -23 -6 -48 -9 l-47 -7 0 39 c0
75 7 84 60 84 l47 0 -5 -52z"/>
</g>
<g id="part-2" class="char-part">
  <path d="M463 593 c-19 -55 -34 -83 -66 -125 -41 -54 -29 -64 20 -18 20 19 42
30 61 30 16 0 73 7 128 15 54 8 105 15 112 15 6 0 12 4 12 9 0 20 -61 21 -150
2 -51 -12 -95 -19 -98 -17 -2 3 5 18 17 34 26 37 26 48 2 62 -26 14 -31 13
-38 -7z"/>
</g>
<g id="part-3" class="char-part">
  <path d="M555 419 c-38 -4 -83 -5 -100 -3 l-30 5 0 -78 c0 -75 -7 -100 -45
-159 -7 -12 -10 -29 -7 -38 6 -14 10 -15 29 -5 29 16 223 25 232 11 3 -5 -4
-22 -16 -37 -18 -23 -26 -26 -57 -20 l-36 7 34 -36 c19 -20 40 -36 46 -36 17
0 62 51 75 84 9 24 14 27 38 22 89 -22 101 -18 59 22 -13 12 -36 22 -51 22
l-28 0 7 87 c4 48 12 98 18 111 9 20 8 27 -8 38 -20 15 -50 16 -160 3z m104
-18 c11 -7 12 -27 5 -107 l-9 -99 -109 -8 c-60 -4 -110 -6 -112 -4 -2 2 5 30
15 63 11 32 22 80 26 106 l6 47 72 4 c40 1 77 4 82 5 6 1 16 -2 24 -7z"/>
</g>
<g id="part-4" class="char-part">
  <path d="M535 350 c18 -20 55 -28 55 -12 0 16 -24 32 -49 32 -23 0 -24 -1 -6
-20z"/>
  <path d="M528 302 c-118 -9 -195 -19 -192 -24 5 -8 204 -2 254 8 8 1 67 3 130
4 103 1 113 2 96 15 -23 17 -24 17 -288 -3z"/>
</g>
</g>
</svg>