<?xml version="1.0" standalone="no"?>
<!DOCTYPE svg PUBLIC "-//W3C//DTD SVG 20010904//EN"
 "http://www.w3.org/TR/2001/REC-SVG-20010904/DTD/svg10.dtd">
<svg version="1.0" xmlns="http://www.w3.org/2000/svg"
 width="96.000000pt" height="68.000000pt" viewBox="0 0 96.000000 68.000000"
 preserveAspectRatio="xMidYMid meet">
<metadata>
Created by potrace 1.16, written by Peter Selinger 2001-2019
Combined from part_0.svg through part_5.svg with named groups
</metadata>
<g transform="translate(0.000000,68.000000) scale(0.100000,-0.100000)" fill="#000000" stroke="none">
<g id="part-0" class="char-part">
  <path d="M475 603 c10 -24 46 -185 43 -189 -8 -7 -141 -24 -147 -19 -3 4 -6
23 -6 43 0 33 4 39 39 54 27 13 36 22 32 34 -3 9 -6 18 -6 20 0 15 -56 -1 -92
-26 -24 -16 -68 -39 -98 -49 -64 -23 -49 -38 20 -22 54 12 60 9 60 -34 0 -33
-1 -34 -47 -40 -27 -3 -61 -10 -78 -14 l-30 -8 26 -11 c17 -7 40 -7 65 -1 71
16 76 14 72 -33 -3 -39 -6 -43 -38 -52 -19 -5 -66 -18 -105 -29 l-69 -20 32
-15 c31 -15 36 -14 102 15 38 17 72 28 74 25 2 -4 1 -31 -1 -61 l-6 -53 -35 6
-35 5 33 -34 c19 -19 40 -35 46 -35 29 0 44 44 44 127 l0 82 40 11 c21 6 42
15 45 20 8 13 5 13 -44 -5 l-41 -14 0 38 c0 43 3 45 101 57 l55 6 31 -83 c21
-59 27 -88 20 -97 -6 -7 -40 -31 -76 -52 -78 -47 -63 -53 27 -10 35 17 68 30
74 30 5 0 31 -21 56 -47 46 -45 110 -82 145 -83 19 0 22 35 8 105 l-8 40 -8
-32 c-4 -18 -13 -37 -20 -43 -19 -16 -66 10 -104 59 -26 32 -29 42 -19 53 7 8
33 35 58 61 39 41 42 49 30 62 -20 19 -66 24 -62 6 4 -19 -38 -101 -51 -101
-13 0 -53 84 -59 121 -3 22 1 24 52 27 71 3 100 10 100 23 0 8 -24 9 -79 5
-49 -4 -82 -3 -85 3 -4 5 -9 47 -13 93 -6 86 -12 98 -52 98 -18 0 -22 -4 -16
-17z"/>
  <path d="M642 503 c31 -30 39 -34 52 -24 21 17 10 38 -26 50 -58 20 -65 13
-26 -26z"/>
</g>
<g id="part-1" class="char-part">
  <path d="M351 523 c-18 -14 -58 -37 -90 -50 l-56 -24 52 5 c47 4 145 38 167
57 11 9 -11 39 -28 39 -6 0 -26 -12 -45 -27z"/>
</g>
<g id="part-2" class="char-part">
  <path d="M333 469 c-18 -7 -21 -13 -16 -47 l5 -40 -53 -6 c-30 -4 -67 -10 -83
-13 l-30 -5 27 -14 c20 -11 36 -12 69 -4 73 17 78 15 78 -30 l0 -39 -64 -20
c-35 -11 -80 -23 -100 -26 -44 -9 -53 -20 -27 -34 31 -17 58 -13 122 20 34 17
62 29 64 27 1 -2 0 -29 -3 -61 l-5 -59 -36 7 -36 7 34 -36 c19 -20 42 -36 51
-36 26 0 40 44 40 126 l0 75 46 20 c52 22 54 38 3 20 -46 -16 -49 -15 -49 23
0 35 13 46 51 46 10 0 19 6 19 14 0 11 -9 13 -35 9 l-35 -6 0 41 c0 46 -6 53
-37 41z"/>
</g>
<g id="part-3" class="char-part">
  <path d="M474 603 c8 -20 31 -109 41 -160 6 -30 5 -31 -34 -38 -57 -9 -54 -31
3 -27 l44 4 15 -49 c8 -26 22 -65 31 -85 l16 -37 -33 -24 c-17 -13 -51 -35
-75 -48 -69 -38 -29 -34 53 5 l75 35 17 -25 c35 -54 168 -132 189 -111 3 3 3
39 -1 79 l-8 73 -14 -40 c-7 -22 -17 -43 -22 -48 -13 -13 -52 10 -93 56 l-36
42 55 63 c48 54 54 65 42 77 -8 8 -25 16 -39 17 -20 3 -24 -2 -27 -27 -2 -30
-30 -76 -50 -82 -12 -4 -53 95 -53 127 0 18 7 20 63 20 67 0 106 14 74 26 -10
4 -47 4 -83 0 -48 -5 -66 -3 -69 6 -3 7 -8 51 -12 98 l-8 85 -34 3 c-29 3 -33
1 -27 -15z"/>
  <path d="M638 510 c34 -33 46 -39 57 -30 27 23 0 46 -75 65 -22 5 -19 1 18
-35z"/>
</g>
</g>
</svg>