<?xml version="1.0" standalone="no"?>
<!DOCTYPE svg PUBLIC "-//W3C//DTD SVG 20010904//EN"
 "http://www.w3.org/TR/2001/REC-SVG-20010904/DTD/svg10.dtd">
<svg version="1.0" xmlns="http://www.w3.org/2000/svg"
 width="96.000000pt" height="68.000000pt" viewBox="0 0 96.000000 68.000000"
 preserveAspectRatio="xMidYMid meet">
<metadata>
Created by potrace 1.16, written by Peter Selinger 2001-2019
Combined from part_0.svg through part_5.svg with named groups
</metadata>
<g transform="translate(0.000000,68.000000) scale(0.100000,-0.100000)" fill="#000000" stroke="none">
<g id="part-0" class="char-part">
  <path d="M294 578 c-4 -13 -18 -40 -32 -60 -18 -28 -32 -38 -51 -38 l-27 0 9
-100 c5 -55 7 -107 3 -115 -3 -10 -19 -15 -46 -15 -41 0 -49 -7 -28 -28 14
-14 51 -16 76 -3 40 20 89 39 122 46 l35 7 -25 -28 c-14 -15 -35 -37 -48 -47
-12 -10 -29 -26 -38 -34 -9 -9 -43 -31 -77 -50 -50 -28 -56 -33 -30 -29 33 5
113 50 174 98 20 15 40 28 43 28 8 0 8 -54 -1 -103 -5 -36 -8 -39 -34 -35 -37
6 -37 -3 1 -30 35 -26 37 -27 58 -5 13 13 17 38 19 115 1 75 5 104 17 117 20
22 20 37 0 45 -14 5 -16 19 -12 87 5 77 4 81 -18 91 -17 8 -35 7 -71 -5 -46
-15 -47 -15 -28 2 11 9 36 34 55 55 29 31 32 38 20 46 -27 17 -58 11 -66 -12z
m66 -131 c0 -22 -6 -25 -52 -33 -74 -11 -72 -11 -76 10 -6 28 19 42 77 45 48
2 51 1 51 -22z m0 -67 c0 -19 -7 -21 -97 -34 -14 -2 -23 2 -23 10 0 8 -1 17
-2 22 -2 4 17 10 42 13 78 10 80 10 80 -11z m0 -64 c0 -20 -7 -25 -57 -35 -75
-15 -75 -15 -71 17 3 24 8 28 48 33 80 11 80 11 80 -15z"/>
  <path d="M605 504 c-152 -23 -159 -24 -147 -36 8 -8 9 -64 5 -178 l-6 -166 27
-21 c35 -28 106 -37 231 -28 109 7 141 17 115 35 -8 6 -24 8 -35 5 -44 -12
-251 -17 -277 -6 l-28 11 0 112 c1 62 6 140 13 172 15 71 19 72 167 82 113 7
131 11 110 24 -20 13 -65 11 -175 -6z"/>
  <path d="M609 426 l-56 -11 20 -52 c18 -48 37 -70 37 -43 0 6 20 10 45 10 45
0 46 1 65 46 11 25 18 50 14 55 -7 11 -53 10 -125 -5z m77 -36 c-4 -38 -4 -37
-45 -42 -31 -3 -35 0 -42 25 -8 29 -6 31 36 40 49 11 55 8 51 -23z"/>
  <path d="M722 273 c-36 -4 -43 -7 -37 -21 4 -9 9 -34 12 -55 5 -33 9 -38 27
-33 12 3 33 6 48 6 22 0 29 6 33 28 4 15 11 35 16 45 5 10 7 22 4 27 -6 10
-19 10 -103 3z m54 -57 c-5 -19 -13 -26 -31 -26 -21 0 -25 5 -25 29 0 23 5 30
23 33 30 5 41 -6 33 -36z"/>
  <path d="M556 256 c-22 -7 -35 -16 -29 -19 6 -4 14 -25 18 -47 6 -36 25 -67
25 -41 0 6 15 11 34 11 41 0 42 1 51 63 l7 47 -33 -1 c-19 -1 -52 -7 -73 -13z
m64 -35 c0 -32 -22 -56 -45 -47 -18 7 -20 62 -2 69 32 14 47 7 47 -22z"/>
</g>
<g id="part-1" class="char-part">
  <path d="M300 574 c-6 -15 -20 -40 -31 -56 -34 -47 -14 -44 47 7 52 45 55 50
38 62 -27 20 -43 16 -54 -13z"/>
</g>
<g id="part-2" class="char-part">
  <path d="M315 236 c-49 -51 -105 -97 -145 -119 -80 -45 -52 -49 36 -6 65 32
210 148 221 176 5 13 -13 34 -27 32 -3 -1 -41 -38 -85 -83z"/>
</g>
<g id="part-3" class="char-part">
  <path d="M570 500 c-69 -10 -127 -19 -130 -19 -3 -1 2 -5 10 -11 12 -7 14 -41
15 -181 l0 -172 28 -21 c26 -19 41 -21 178 -20 102 1 154 5 162 13 15 15 -10
34 -33 25 -8 -3 -67 -8 -132 -11 -86 -4 -125 -2 -149 7 l-32 14 6 135 c3 75
10 152 16 172 13 42 20 44 166 54 109 8 126 12 105 25 -20 13 -63 11 -210 -10z"/>
</g>
<g id="part-4" class="char-part">
  <path d="M640 430 c-14 -4 -39 -8 -57 -9 l-31 -1 19 -52 c10 -29 19 -55 19
-57 0 -3 5 0 12 7 7 7 32 12 58 12 43 0 46 2 58 38 22 62 20 67 -18 69 -19 1
-46 -2 -60 -7z m45 -42 c-9 -39 -3 -34 -43 -41 -29 -6 -34 -3 -42 19 -15 38
-13 42 23 47 72 9 69 10 62 -25z"/>
</g>
<g id="part-5" class="char-part">
  <path d="M770 270 c0 -5 4 -10 10 -10 5 0 8 -10 6 -22 -3 -13 -5 -29 -5 -36
-1 -7 -11 -17 -23 -22 -21 -8 -21 -9 -3 -9 11 0 25 3 31 7 16 10 24 64 13 84
-10 19 -29 24 -29 8z"/>
  <path d="M810 260 c0 -5 5 -10 11 -10 5 0 7 5 4 10 -3 6 -8 10 -11 10 -2 0 -4
-4 -4 -10z"/>
  <path d="M693 245 c0 -8 4 -15 9 -15 4 0 8 7 8 15 0 8 -4 15 -8 15 -5 0 -9 -7
-9 -15z"/>
  <path d="M704 198 c3 -13 6 -27 6 -31 0 -5 5 -5 10 -2 8 5 7 11 0 20 -7 8 -9
19 -5 25 3 5 1 10 -6 10 -7 0 -9 -9 -5 -22z"/>
</g>
</g>
</svg>