<?xml version="1.0" standalone="no"?>
<!DOCTYPE svg PUBLIC "-//W3C//DTD SVG 20010904//EN"
 "http://www.w3.org/TR/2001/REC-SVG-20010904/DTD/svg10.dtd">
<svg version="1.0" xmlns="http://www.w3.org/2000/svg"
 width="96.000000pt" height="68.000000pt" viewBox="0 0 96.000000 68.000000"
 preserveAspectRatio="xMidYMid meet">
<metadata>
Created by potrace 1.16, written by Peter Selinger 2001-2019
Combined from part_0.svg through part_5.svg with named groups
</metadata>
<g transform="translate(0.000000,68.000000) scale(0.100000,-0.100000)" fill="#000000" stroke="none">
<g id="part-0" class="char-part">
  <path d="M266 563 c-3 -8 -6 -25 -6 -38 0 -29 -76 -144 -138 -207 -58 -61 -34
-65 42 -9 60 45 96 46 96 5 0 -24 -11 -30 -70 -36 -43 -5 -23 -23 30 -26 l50
-3 0 -58 c0 -67 -5 -71 -97 -71 -29 0 -53 -4 -53 -8 0 -5 11 -19 24 -32 29
-26 27 -27 189 31 148 52 156 76 14 43 l-28 -7 3 59 3 58 43 9 c23 4 42 12 42
17 0 12 -48 22 -71 15 -10 -4 -19 -2 -19 4 0 25 14 41 46 51 19 6 34 16 34 21
0 11 -46 23 -59 14 -6 -3 -33 -10 -60 -14 l-49 -8 40 58 41 58 38 -29 c41 -33
67 -38 75 -15 9 22 -10 40 -56 54 -22 7 -40 17 -39 24 3 27 -2 36 -30 45 -24
8 -31 7 -35 -5z"/>
  <path d="M554 494 l26 -39 -22 -7 c-13 -3 -44 -9 -70 -13 -51 -7 -66 -25 -20
-25 15 0 81 7 147 15 66 8 131 15 144 15 20 0 22 2 10 16 -11 13 -25 15 -82 9
-59 -5 -69 -4 -64 8 8 20 -22 45 -63 53 l-33 7 27 -39z"/>
  <path d="M476 356 c-3 -14 -18 -38 -32 -55 -40 -48 0 -34 67 23 32 27 32 29
14 42 -27 20 -42 17 -49 -10z"/>
  <path d="M640 374 c0 -15 82 -74 103 -74 22 0 30 16 18 39 -7 12 -29 23 -61
30 -59 13 -60 13 -60 5z"/>
  <path d="M636 274 c-9 -33 -35 -74 -48 -74 -6 0 -26 16 -45 35 -34 34 -63 45
-63 25 0 -5 3 -10 8 -10 4 0 24 -14 44 -31 33 -27 36 -32 25 -50 -6 -11 -43
-39 -82 -62 -45 -27 -63 -43 -52 -45 17 -4 100 32 149 64 l27 18 51 -53 51
-54 67 7 c37 4 71 11 75 15 8 8 -43 31 -69 31 -16 0 -111 45 -138 65 -17 13
-17 16 18 58 39 48 45 71 20 81 -26 10 -32 7 -38 -20z"/>
  <path d="M352 205 c-12 -25 -19 -45 -17 -45 3 0 23 12 45 26 38 26 40 28 24
45 -10 11 -20 19 -24 19 -3 0 -16 -20 -28 -45z"/>
  <path d="M160 209 c0 -22 42 -69 61 -69 28 0 24 35 -7 59 -29 23 -54 27 -54
10z"/>
</g>
<g id="part-1" class="char-part">
  <path d="M270 550 c0 -51 -86 -185 -157 -244 -66 -55 -14 -41 58 15 47 37 86
38 95 5 8 -33 -2 -46 -34 -47 -15 0 -36 -4 -47 -9 -18 -7 -19 -8 -2 -15 9 -4
33 -4 52 -1 30 6 35 4 35 -12 0 -11 3 -39 6 -64 l6 -44 -40 -12 c-21 -7 -59
-12 -82 -12 -42 0 -43 0 -25 -20 10 -11 28 -20 39 -20 31 0 266 80 266 91 0
12 -9 11 -66 -6 -27 -8 -50 -15 -51 -15 -7 0 -13 65 -8 93 6 32 11 36 46 42
50 9 50 25 0 25 -35 0 -39 3 -43 30 -4 27 -2 30 21 30 27 0 59 15 51 24 -11
10 -38 9 -93 -3 -32 -7 -61 -10 -64 -8 -9 10 79 117 91 110 6 -4 26 -18 44
-31 24 -18 36 -22 44 -14 18 18 1 39 -44 54 -34 12 -42 19 -40 36 2 13 -5 25
-17 31 -29 16 -41 13 -41 -9z"/>
  <path d="M359 213 c-7 -16 -15 -32 -17 -36 -5 -10 24 5 53 27 17 13 18 17 5
26 -22 14 -25 13 -41 -17z"/>
  <path d="M180 180 c27 -37 39 -45 52 -32 17 17 -17 62 -48 62 l-25 0 21 -30z"/>
</g>
<g id="part-2" class="char-part">
  <path d="M555 493 c23 -35 24 -38 8 -45 -10 -3 -34 -7 -53 -8 -47 -2 -78 -14
-61 -24 7 -5 84 0 172 10 136 15 157 20 147 32 -10 11 -28 13 -80 8 -55 -5
-66 -4 -62 8 7 18 -42 56 -73 56 l-24 0 26 -37z"/>
</g>
<g id="part-3" class="char-part">
  <path d="M476 356 c-3 -14 -18 -38 -32 -56 -15 -17 -24 -33 -22 -36 6 -6 118
77 118 87 0 9 -33 29 -48 29 -6 0 -13 -11 -16 -24z"/>
  <path d="M630 376 c0 -10 99 -76 113 -76 22 0 30 16 18 38 -11 20 -131 55
-131 38z"/>
</g>
<g id="part-4" class="char-part">
  <path d="M632 267 c-6 -18 -18 -42 -26 -52 -13 -18 -16 -18 -59 18 -45 37 -67
46 -67 28 0 -5 9 -12 20 -16 10 -3 31 -20 45 -37 25 -29 25 -31 8 -50 -10 -11
-49 -38 -88 -59 -53 -29 -64 -39 -45 -39 23 0 102 36 157 70 21 14 26 11 75
-39 l52 -53 66 6 c36 4 69 11 73 15 5 5 -24 19 -65 31 -66 20 -158 65 -158 77
0 2 17 25 37 50 29 35 35 48 26 61 -18 29 -38 25 -51 -11z"/>
</g>
</g>
</svg>