<?xml version="1.0" standalone="no"?>
<!DOCTYPE svg PUBLIC "-//W3C//DTD SVG 20010904//EN"
 "http://www.w3.org/TR/2001/REC-SVG-20010904/DTD/svg10.dtd">
<svg version="1.0" xmlns="http://www.w3.org/2000/svg"
 width="96.000000pt" height="68.000000pt" viewBox="0 0 96.000000 68.000000"
 preserveAspectRatio="xMidYMid meet">
<metadata>
Created by potrace 1.16, written by Peter Selinger 2001-2019
Combined from part_0.svg through part_5.svg with named groups
</metadata>
<g transform="translate(0.000000,68.000000) scale(0.100000,-0.100000)" fill="#000000" stroke="none">
<g id="part-0" class="char-part">
  <path d="M372 592 c-129 -16 -158 -35 -64 -40 44 -3 52 -6 52 -23 0 -17 -7
-19 -80 -19 -47 0 -80 -4 -80 -10 0 -5 4 -10 9 -10 5 0 16 -19 24 -42 11 -33
19 -42 33 -40 10 1 54 5 97 9 74 6 77 5 77 -15 0 -12 -8 -29 -18 -39 -51 -51
-51 -75 0 -28 15 14 39 25 53 25 43 0 169 22 179 31 14 12 -38 11 -108 -2 -57
-10 -83 -6 -57 10 7 5 10 14 7 20 -5 8 18 11 77 11 l84 0 31 39 c18 22 32 44
32 50 0 15 -65 24 -121 18 -43 -5 -49 -4 -49 12 0 19 26 31 68 31 14 0 22 5
20 13 -6 18 -120 18 -266 -1z m128 -42 c0 -11 -1 -20 -2 -21 -2 0 -22 -2 -45
-5 -38 -5 -43 -4 -43 14 0 23 12 30 58 31 26 1 32 -3 32 -19z m150 -47 c0 -31
-14 -41 -60 -44 -60 -4 -73 4 -58 36 10 22 18 25 65 25 44 0 53 -3 53 -17z
m-154 -20 c-2 -19 -10 -30 -27 -34 -49 -14 -59 -11 -59 20 0 30 6 34 62 39 24
2 26 -1 24 -25z m-128 -15 c2 -19 -2 -27 -20 -32 -41 -11 -76 -7 -82 10 -13
34 -6 43 37 47 59 5 62 4 65 -25z"/>
  <path d="M261 349 c-19 -23 -48 -50 -65 -60 -17 -10 -24 -19 -16 -19 25 0 155
84 155 100 0 32 -40 20 -74 -21z"/>
  <path d="M523 337 l-72 -10 2 -56 c2 -52 4 -56 25 -54 12 2 22 0 22 -3 0 -15
-26 -53 -64 -93 l-41 -44 38 22 c36 22 39 22 63 6 14 -9 24 -22 22 -28 -3 -7
-33 -22 -69 -34 -44 -16 -56 -22 -37 -23 15 0 52 9 82 21 l55 20 48 -25 c37
-20 62 -26 108 -25 33 0 69 4 80 8 l20 8 -20 6 c-11 3 -47 11 -80 17 -60 11
-115 29 -115 36 0 3 15 21 33 40 46 51 42 59 -28 59 -61 0 -85 8 -85 27 0 7
23 9 64 6 l64 -4 5 56 c4 43 1 58 -11 68 -9 6 -21 11 -26 10 -6 -1 -43 -6 -83
-11z m82 -28 c11 -16 1 -20 -64 -26 -51 -5 -61 -3 -61 10 0 9 11 17 28 20 54
8 91 7 97 -4z m5 -54 c0 -12 -14 -15 -65 -15 -36 0 -65 4 -65 9 0 9 22 13 108
19 14 1 22 -4 22 -13z m-20 -104 c0 -5 -8 -19 -18 -31 -16 -19 -21 -20 -45 -9
-31 14 -36 35 -9 42 31 8 72 7 72 -2z"/>
  <path d="M303 282 c-11 -25 -125 -124 -155 -135 -7 -2 -10 -7 -7 -11 4 -4 33
9 65 29 33 19 63 35 68 35 5 0 6 -30 2 -67 -10 -93 -10 -113 3 -126 17 -17 31
36 31 117 0 43 -5 77 -12 84 -10 10 -8 15 7 26 58 40 70 55 55 66 -26 17 -45
11 -57 -18z"/>
</g>
<g id="part-1" class="char-part">
  <path d="M403 591 c-133 -17 -180 -31 -107 -31 21 0 108 5 193 12 132 10 151
13 135 25 -22 16 -52 15 -221 -6z"/>
</g>
<g id="part-2" class="char-part">
  <path d="M649 546 c-7 -7 -321 -36 -393 -36 l-69 0 20 -22 c11 -13 25 -36 30
-53 7 -21 16 -29 29 -27 10 2 104 8 207 15 l188 12 34 41 c26 32 32 44 22 51
-14 12 -62 25 -68 19z m1 -43 c0 -10 -4 -23 -8 -29 -6 -9 -360 -49 -368 -42
-1 2 -5 15 -9 29 l-7 26 134 12 c73 7 140 14 148 15 8 2 36 4 63 5 39 1 47 -2
47 -16z"/>
</g>
<g id="part-3" class="char-part">
  <path d="M232 324 c-34 -35 -60 -64 -57 -64 13 0 109 57 141 84 27 22 32 31
22 37 -25 16 -43 6 -106 -57z"/>
</g>
<g id="part-4" class="char-part">
  <path d="M310 296 c0 -17 -110 -121 -152 -142 -16 -8 -27 -18 -24 -21 3 -3 35
11 71 31 36 20 68 36 70 36 9 0 5 -85 -6 -123 -8 -29 -7 -42 5 -58 14 -20 14
-21 25 -2 14 28 16 169 2 187 -9 11 -3 21 31 50 35 30 40 38 28 46 -22 14 -50
12 -50 -4z"/>
</g>
<g id="part-5" class="char-part">
  <path d="M595 155 c1 -19 -1 -32 -4 -31 -9 6 -31 -21 -24 -28 11 -11 -8 -6
-40 10 l-32 17 19 -21 c15 -18 17 -24 6 -37 -11 -13 -10 -14 11 -7 24 9 69 -3
69 -19 0 -4 7 -10 16 -13 10 -4 13 -2 8 7 -4 6 2 4 13 -6 14 -12 33 -17 65
-15 26 2 44 6 41 10 -2 4 10 5 27 2 16 -4 30 -4 30 -1 0 3 -31 10 -69 17 -62
10 -97 16 -111 20 -3 0 -14 7 -24 15 -19 14 -19 15 5 39 48 48 53 57 38 67
-30 19 -45 10 -44 -26z"/>
  <path d="M545 170 c-8 -13 5 -13 25 0 13 8 13 10 -2 10 -9 0 -20 -4 -23 -10z"/>
</g>
</g>
</svg>