<?xml version="1.0" standalone="no"?>
<!DOCTYPE svg PUBLIC "-//W3C//DTD SVG 20010904//EN"
 "http://www.w3.org/TR/2001/REC-SVG-20010904/DTD/svg10.dtd">
<svg version="1.0" xmlns="http://www.w3.org/2000/svg"
 width="96.000000pt" height="68.000000pt" viewBox="0 0 96.000000 68.000000"
 preserveAspectRatio="xMidYMid meet">
<metadata>
Created by potrace 1.16, written by Peter Selinger 2001-2019
Combined from part_0.svg through part_5.svg with named groups
</metadata>
<g transform="translate(0.000000,68.000000) scale(0.100000,-0.100000)" fill="#000000" stroke="none">
<g id="part-0" class="char-part">
  <path d="M629 534 c12 -19 21 -37 21 -40 0 -2 -20 -4 -45 -4 -25 0 -45 -4 -45
-10 0 -5 4 -10 8 -10 9 0 42 -70 42 -88 0 -7 -19 -13 -47 -14 -47 -1 -47 -1
12 -7 59 -6 60 -7 63 -38 3 -33 3 -33 -42 -33 -25 0 -46 -4 -46 -10 0 -5 20
-10 45 -10 l44 0 3 -72 c2 -57 6 -73 18 -73 12 0 16 17 20 75 l5 75 39 3 c22
2 48 7 60 11 17 7 14 9 -17 15 -21 4 -46 4 -56 1 -15 -4 -20 1 -23 24 -4 26
-1 30 25 35 16 3 44 6 63 6 18 0 36 5 39 10 6 10 -20 15 -67 11 -34 -3 -34 2
-7 40 17 24 18 33 9 44 -10 12 -9 15 8 15 12 0 24 5 27 10 4 6 -15 10 -49 10
-49 0 -56 2 -56 20 0 20 -27 40 -55 40 -15 0 -15 -4 4 -36z m81 -82 c0 -15 -7
-38 -16 -50 -19 -27 -54 -30 -54 -4 0 10 -9 28 -20 40 -11 12 -20 23 -20 26 0
6 25 10 73 13 34 2 37 1 37 -25z"/>
  <path d="M465 530 c-11 -5 -44 -9 -73 -9 -49 -1 -53 -3 -47 -22 15 -46 -23
-182 -65 -236 -16 -20 -19 -21 -39 -7 -29 21 -26 39 9 66 61 44 19 83 -63 58
-80 -24 -93 -30 -77 -40 8 -5 32 -7 52 -3 l37 5 -11 -35 c-10 -32 -8 -39 16
-67 14 -17 26 -40 26 -51 0 -17 -8 -19 -64 -19 -70 0 -85 -9 -60 -35 13 -13
25 -15 58 -8 72 14 130 4 295 -47 88 -27 173 -50 188 -50 30 0 190 43 200 54
13 12 -6 15 -172 25 -94 5 -199 17 -235 25 -36 8 -90 19 -121 26 -55 11 -55
11 -51 43 4 28 66 106 76 96 3 -2 10 -29 18 -59 10 -39 18 -54 28 -51 8 2 35
6 60 8 46 5 46 5 66 64 12 33 18 62 14 64 -12 7 -48 7 -119 -1 -61 -7 -64 -6
-56 12 4 10 10 29 12 42 4 18 12 22 43 22 57 0 100 11 100 26 0 7 9 30 20 50
16 28 18 39 9 50 -13 16 -43 17 -74 4z m18 -57 c-3 -21 -6 -39 -7 -40 -1 0
-22 -4 -48 -8 l-48 -7 6 33 c8 42 28 59 70 59 32 0 33 -1 27 -37z m-3 -196 c0
-41 -15 -57 -56 -57 -28 0 -32 4 -38 35 -9 48 -2 55 50 55 43 0 44 -1 44 -33z"/>
  <path d="M182 495 c43 -40 88 -48 88 -16 0 28 -38 51 -85 51 l-40 -1 37 -34z"/>
</g>
<g id="part-1" class="char-part">
  <path d="M192 496 c41 -40 68 -46 68 -17 0 26 -21 41 -67 47 l-38 6 37 -36z"/>
  <path d="M168 371 c-66 -24 -69 -31 -15 -31 48 0 55 -7 37 -40 -8 -16 -4 -28
20 -61 16 -23 30 -48 30 -54 0 -16 -32 -25 -93 -25 -35 0 -47 -4 -44 -12 2 -9
34 -13 108 -13 96 -1 115 -4 248 -48 86 -28 163 -47 190 -47 48 0 191 38 191
50 0 4 -71 10 -157 14 -110 5 -198 16 -288 35 l-129 27 -2 34 c-1 24 -10 41
-30 57 l-28 22 24 28 c14 15 28 29 33 31 13 6 7 40 -9 46 -22 8 -32 7 -86 -13z"/>
</g>
<g id="part-2" class="char-part">
  <path d="M455 529 c-16 -6 -48 -8 -71 -5 l-40 5 -1 -67 c-1 -73 -22 -138 -61
-190 -35 -48 -20 -50 26 -4 24 24 44 57 53 85 13 44 15 47 49 47 62 0 109 11
104 25 -3 7 4 29 16 50 32 57 3 79 -75 54z m30 -51 c-9 -43 -12 -46 -64 -54
-39 -6 -44 -5 -38 10 4 10 7 28 7 41 0 24 14 31 73 34 27 1 28 -1 22 -31z"/>
</g>
<g id="part-3" class="char-part">
  <path d="M460 330 c-14 -4 -43 -8 -66 -9 -22 -1 -43 -3 -46 -6 -3 -3 2 -33 12
-68 12 -44 21 -61 31 -58 8 2 35 6 60 8 45 5 47 7 59 47 7 22 17 47 23 55 9
10 7 16 -8 27 -21 15 -28 16 -65 4z m20 -53 c0 -18 -5 -38 -12 -45 -14 -14
-78 -16 -78 -3 0 5 -3 22 -6 39 -7 33 2 39 64 41 30 1 32 -1 32 -32z"/>
</g>
<g id="part-4" class="char-part">
  <path d="M638 328 c-3 -31 -5 -33 -45 -36 -59 -4 -54 -22 6 -22 l49 0 -5 -69
c-4 -47 -2 -71 6 -76 20 -12 26 3 31 78 l5 72 35 3 c19 1 46 5 60 8 l25 7 -30
8 c-16 5 -42 7 -57 3 -23 -5 -27 -2 -30 23 -2 20 -9 29 -25 31 -18 3 -22 -2
-25 -30z"/>
</g>
</g>
</svg>