<?xml version="1.0" standalone="no"?>
<!DOCTYPE svg PUBLIC "-//W3C//DTD SVG 20010904//EN"
 "http://www.w3.org/TR/2001/REC-SVG-20010904/DTD/svg10.dtd">
<svg version="1.0" xmlns="http://www.w3.org/2000/svg"
 width="96.000000pt" height="68.000000pt" viewBox="0 0 96.000000 68.000000"
 preserveAspectRatio="xMidYMid meet">
<metadata>
Created by potrace 1.16, written by Peter Selinger 2001-2019
Combined from part_0.svg through part_5.svg with named groups
</metadata>
<g transform="translate(0.000000,68.000000) scale(0.100000,-0.100000)" fill="#000000" stroke="none">
<g id="part-0" class="char-part">
  <path d="M615 569 c-27 -4 -76 -11 -107 -14 -66 -7 -77 -22 -20 -27 32 -3 37
-7 40 -30 3 -28 3 -28 -59 -28 -52 0 -60 -2 -47 -12 9 -7 23 -37 33 -65 16
-50 29 -65 37 -43 2 5 57 11 124 12 l121 3 36 50 c24 31 34 52 27 59 -5 5 -34
11 -63 14 -52 4 -54 6 -55 33 0 22 4 29 18 29 28 0 51 11 44 21 -6 11 -59 10
-129 -2z m13 -60 c3 -23 -1 -27 -28 -31 -37 -6 -38 -5 -32 32 4 27 8 31 31 28
20 -2 27 -9 29 -29z m87 -106 c-4 -19 -10 -23 -28 -17 -30 9 -30 9 -22 43 4
20 13 31 28 33 25 3 33 -18 22 -59z m-85 48 c0 -4 -3 -23 -6 -40 -9 -44 -45
-40 -55 6 -3 18 -5 34 -3 35 8 8 64 7 64 -1z m-96 -23 c10 -39 7 -48 -18 -48
-24 0 -36 16 -36 51 0 29 46 26 54 -3z"/>
  <path d="M216 533 c4 -10 9 -41 12 -70 l4 -52 -36 -6 c-19 -4 -49 -2 -66 3
-35 13 -35 13 -11 -30 10 -18 22 -47 26 -65 7 -36 29 -60 40 -43 3 5 15 10 26
10 16 0 19 -7 19 -45 0 -43 -1 -44 -35 -51 -19 -3 -44 -4 -55 -1 -29 8 -25
-21 5 -35 20 -9 33 -6 78 15 75 35 125 44 133 23 9 -23 34 -20 34 4 0 18 -46
70 -63 70 -5 0 -6 -8 -2 -19 4 -13 0 -20 -15 -24 -19 -5 -21 -2 -18 31 3 35 5
37 41 40 22 2 37 8 37 16 0 7 13 31 29 53 39 54 29 68 -49 66 -59 -2 -62 -1
-57 20 19 82 19 83 -8 95 -14 7 -37 12 -52 12 -20 0 -24 -3 -17 -17z m128
-170 c-9 -39 -13 -43 -35 -43 -15 0 -19 7 -19 35 0 32 2 35 30 35 28 0 30 -2
24 -27z m-116 -15 c-4 -43 -34 -50 -48 -12 -12 30 -1 44 33 44 15 0 18 -7 15
-32z"/>
  <path d="M585 319 c-91 -13 -88 -17 12 -18 51 -1 95 3 98 9 3 6 0 10 -9 10 -8
0 -20 2 -28 4 -7 2 -40 0 -73 -5z"/>
  <path d="M565 253 c-88 -8 -162 -16 -164 -19 -17 -17 39 -21 149 -11 24 2 25
0 28 -72 l3 -74 -33 7 -32 6 29 -30 c33 -35 38 -36 59 -14 10 10 16 34 17 67
0 29 3 68 7 87 8 39 1 37 162 40 51 1 53 2 36 15 -23 17 -45 17 -261 -2z"/>
  <path d="M702 180 c7 -21 83 -110 95 -110 18 0 26 18 19 45 -4 17 -23 33 -56
50 -54 27 -63 30 -58 15z"/>
  <path d="M470 166 c0 -8 -18 -30 -40 -49 -22 -19 -40 -37 -40 -41 0 -11 94 40
113 62 11 12 16 26 12 31 -9 16 -45 13 -45 -3z"/>
</g>
<g id="part-1" class="char-part">
  <path d="M226 524 c4 -16 8 -49 8 -74 l1 -45 -67 2 -67 1 19 -26 c10 -15 24
-46 30 -70 10 -39 13 -42 38 -36 15 4 32 7 37 8 6 0 11 -18 13 -42 2 -23 6
-42 10 -42 19 1 31 18 34 50 3 33 5 35 46 38 29 2 42 8 42 18 0 8 12 33 27 55
33 50 23 61 -52 57 -45 -2 -50 0 -53 21 -2 12 1 35 6 51 12 34 3 44 -47 55
-33 7 -34 7 -25 -21z m127 -130 c3 -3 1 -20 -5 -37 -13 -38 -9 -33 -35 -41
-22 -7 -23 -4 -23 38 0 44 1 46 28 46 16 0 31 -3 35 -6z m-113 -44 c0 -37 -2
-40 -29 -40 -21 0 -30 6 -35 23 -10 38 -7 46 22 50 15 2 30 5 35 6 4 0 7 -17
7 -39z"/>
</g>
<g id="part-2" class="char-part">
  <path d="M326 238 c10 -34 44 -79 55 -73 17 11 9 46 -17 70 -33 31 -47 32 -38
3z"/>
</g>
<g id="part-3" class="char-part">
  <path d="M620 570 c-25 -4 -75 -11 -113 -14 -43 -5 -65 -11 -61 -18 5 -7 44
-8 118 -4 121 8 190 21 181 36 -7 11 -59 11 -125 0z"/>
</g>
<g id="part-4" class="char-part">
  <path d="M620 480 c-30 -4 -91 -9 -135 -9 -54 -1 -75 -4 -65 -11 8 -5 22 -30
31 -57 l15 -47 90 4 c49 3 110 4 135 4 41 -1 48 2 70 34 13 20 30 42 38 49 10
11 11 17 3 25 -15 15 -110 19 -182 8z m105 -42 c-4 -13 -8 -30 -11 -38 -3 -12
-26 -16 -113 -18 l-109 -3 -11 32 c-6 17 -11 33 -11 35 0 4 88 10 183 12 77 2
78 2 72 -20z"/>
</g>
<g id="part-5" class="char-part">
  <path d="M587 165 c1 -30 8 -64 16 -76 14 -20 16 -16 19 55 3 71 2 76 -17 76
-18 0 -20 -6 -18 -55z"/>
  <path d="M747 130 c38 -50 63 -63 63 -34 0 9 -5 12 -12 8 -10 -6 -10 -4 0 8
11 14 7 20 -31 42 -24 14 -47 26 -51 26 -4 0 10 -22 31 -50z"/>
  <path d="M470 162 c0 -5 -16 -26 -36 -46 l-37 -38 32 16 c17 9 31 21 31 27 0
6 3 8 8 6 4 -2 18 7 32 21 14 14 17 20 8 13 -12 -9 -18 -10 -18 -2 0 6 -4 11
-10 11 -5 0 -10 -4 -10 -8z"/>
  <path d="M575 80 c-3 -5 -13 -6 -21 -3 -14 5 -14 3 -3 -15 10 -15 16 -18 21
-9 6 9 8 9 8 0 0 -7 6 -10 14 -7 8 3 12 13 9 25 -6 20 -18 25 -28 9z"/>
</g>
</g>
</svg>