<?xml version="1.0" standalone="no"?>
<!DOCTYPE svg PUBLIC "-//W3C//DTD SVG 20010904//EN"
 "http://www.w3.org/TR/2001/REC-SVG-20010904/DTD/svg10.dtd">
<svg version="1.0" xmlns="http://www.w3.org/2000/svg"
 width="96.000000pt" height="68.000000pt" viewBox="0 0 96.000000 68.000000"
 preserveAspectRatio="xMidYMid meet">
<metadata>
Created by potrace 1.16, written by Peter Selinger 2001-2019
Combined from part_0.svg through part_5.svg with named groups
</metadata>
<g transform="translate(0.000000,68.000000) scale(0.100000,-0.100000)" fill="#000000" stroke="none">
<g id="part-0" class="char-part">
  <path d="M296 523 c4 -10 9 -50 12 -89 l4 -72 -26 5 c-21 4 -25 10 -24 38 1
40 -8 55 -33 55 -15 0 -19 -5 -15 -17 20 -72 18 -80 -15 -87 -17 -3 -50 -6
-72 -6 -30 0 -38 -3 -30 -11 11 -11 95 -15 112 -5 18 12 22 -14 6 -45 -20 -37
-15 -47 10 -19 17 19 19 19 37 3 10 -9 21 -13 26 -9 4 4 -2 15 -13 24 -34 29
-28 50 17 57 22 4 42 5 44 2 3 -3 -2 -22 -11 -42 -17 -42 -15 -54 5 -30 16 19
29 19 52 -2 17 -15 18 -15 18 4 0 12 -7 23 -15 27 -8 3 -15 17 -15 31 0 22 5
25 35 26 47 2 52 3 61 12 8 8 -15 11 -68 8 -35 -3 -38 0 -38 23 0 23 4 26 33
26 36 0 66 15 54 27 -4 4 -26 6 -48 6 l-40 -2 6 33 c6 29 4 34 -17 39 -43 12
-61 9 -52 -10z"/>
  <path d="M655 480 c-38 -10 -87 -19 -107 -19 -54 -1 -47 -21 7 -21 44 0 45 0
45 -34 0 -37 -12 -46 -61 -46 -18 0 -28 -4 -24 -10 3 -5 20 -10 37 -10 30 0
30 -1 23 -37 -9 -52 -11 -53 -56 -53 -34 0 -39 3 -39 24 0 21 -16 36 -39 36
-5 0 -11 -43 -13 -95 -3 -53 -7 -97 -9 -99 -7 -7 -239 -30 -244 -24 -3 2 -6
40 -7 82 -2 71 -4 79 -25 89 -30 14 -35 8 -23 -34 6 -19 10 -67 9 -107 -1 -40
1 -75 4 -79 4 -3 19 -1 34 6 43 17 163 41 211 41 32 0 42 -4 42 -16 0 -23 23
-11 31 17 4 13 10 49 14 80 l6 55 185 15 c180 14 243 31 137 37 -60 3 -65 14
-31 57 21 27 21 28 2 42 -14 11 -34 13 -71 9 -54 -6 -60 -3 -43 24 5 9 5 19 0
26 -7 8 10 14 60 23 39 7 70 16 70 21 0 7 -38 21 -50 19 -3 -1 -36 -9 -75 -19z
m50 -130 c4 -6 1 -26 -5 -44 -9 -30 -17 -35 -51 -41 -22 -4 -42 -5 -45 -3 -6
7 26 82 40 90 16 11 54 10 61 -2z"/>
  <path d="M261 229 c-30 -5 -57 -12 -60 -15 -8 -9 160 7 184 17 27 11 -53 9
-124 -2z"/>
  <path d="M327 183 c-2 -10 -8 -26 -12 -36 -7 -17 -6 -18 14 -6 17 11 25 12 42
1 27 -17 37 -7 16 16 -10 10 -17 24 -17 30 0 19 -37 14 -43 -5z"/>
  <path d="M655 188 c-22 -5 -66 -8 -97 -6 -42 3 -58 1 -58 -8 0 -7 4 -15 9 -19
5 -3 15 -30 22 -61 14 -63 18 -68 52 -55 13 5 59 11 101 12 81 3 90 7 76 28
-4 8 1 29 14 53 20 39 20 40 1 54 -21 16 -61 17 -120 2z m61 -60 c-4 -23 -8
-43 -9 -44 -1 -1 -32 -5 -69 -9 -65 -7 -67 -6 -72 16 -14 64 -14 64 39 70 28
3 65 7 84 7 l34 2 -7 -42z"/>
  <path d="M216 158 c-16 -39 -14 -43 12 -27 17 10 23 10 36 0 13 -11 16 -11 16
3 0 9 -4 16 -9 16 -5 0 -11 9 -14 20 -8 30 -25 24 -41 -12z"/>
</g>
<g id="part-1" class="char-part">
  <path d="M305 503 c2 -21 7 -59 10 -85 5 -35 10 -46 21 -41 7 3 14 15 14 28 0
19 7 24 45 29 25 4 45 12 45 18 0 7 -15 9 -40 5 l-40 -5 0 38 c0 31 -4 39 -22
44 -37 9 -38 8 -33 -31z"/>
</g>
<g id="part-2" class="char-part">
  <path d="M428 264 c2 -25 1 -69 -3 -98 l-6 -54 -57 -6 c-31 -3 -87 -9 -124
-12 l-68 -7 0 80 c0 82 -9 103 -43 103 -15 0 -17 -4 -11 -17 4 -10 9 -60 10
-111 1 -52 5 -96 8 -99 2 -3 26 2 53 11 26 9 90 22 141 29 l92 14 0 -24 c0
-23 14 -31 24 -14 3 4 13 59 22 121 17 118 15 129 -26 130 -12 0 -14 -10 -12
-46z"/>
</g>
<g id="part-3" class="char-part">
  <path d="M705 490 c-11 -4 -59 -14 -107 -20 -98 -14 -116 -30 -35 -30 52 0
206 25 216 36 7 7 -21 24 -39 23 -8 0 -24 -4 -35 -9z"/>
</g>
<g id="part-4" class="char-part">
  <path d="M613 262 c-147 -16 -188 -39 -50 -28 45 4 128 9 185 13 97 6 121 13
86 27 -21 8 -64 6 -221 -12z"/>
</g>
<g id="part-5" class="char-part">
  <path d="M692 189 c-18 -4 -36 -10 -40 -14 -4 -4 7 -4 24 -1 41 9 60 -12 47
-51 -13 -40 -10 -56 10 -59 13 -2 16 2 12 17 -4 11 -2 19 4 19 6 0 11 9 11 19
0 11 5 23 10 26 19 12 10 35 -14 35 -13 0 -26 4 -28 8 -1 5 -18 5 -36 1z"/>
  <path d="M512 160 c15 -24 27 -26 34 -6 3 9 13 12 22 9 14 -5 15 -4 4 8 -10
11 -16 11 -32 1 -12 -7 -20 -8 -20 -2 0 5 -5 10 -10 10 -6 0 -5 -8 2 -20z"/>
  <path d="M598 173 c7 -3 16 -2 19 1 4 3 -2 6 -13 5 -11 0 -14 -3 -6 -6z"/>
  <path d="M534 108 c3 -13 6 -29 6 -35 0 -7 7 -13 16 -13 8 0 13 -4 10 -9 -4
-5 4 -6 16 -3 18 5 19 7 6 10 -9 2 -22 19 -28 38 -13 37 -36 48 -26 12z"/>
  <path d="M616 62 c-2 -4 4 -8 14 -8 10 0 16 4 14 8 -3 4 -9 8 -14 8 -5 0 -11
-4 -14 -8z"/>
  <path d="M668 63 c6 -2 18 -2 25 0 6 3 1 5 -13 5 -14 0 -19 -2 -12 -5z"/>
</g>
</g>
</svg>