<?xml version="1.0" standalone="no"?>
<!DOCTYPE svg PUBLIC "-//W3C//DTD SVG 20010904//EN"
 "http://www.w3.org/TR/2001/REC-SVG-20010904/DTD/svg10.dtd">
<svg version="1.0" xmlns="http://www.w3.org/2000/svg"
 width="96.000000pt" height="68.000000pt" viewBox="0 0 96.000000 68.000000"
 preserveAspectRatio="xMidYMid meet">
<metadata>
Created by potrace 1.16, written by Peter Selinger 2001-2019
Combined from part_0.svg through part_5.svg with named groups
</metadata>
<g transform="translate(0.000000,68.000000) scale(0.100000,-0.100000)" fill="#000000" stroke="none">
<g id="part-0" class="char-part">
  <path d="M516 593 c-3 -3 -3 -15 -1 -27 8 -31 -9 -111 -23 -112 -6 -1 -28 -2
-48 -3 -23 -1 -33 -5 -28 -12 3 -6 22 -9 40 -7 19 2 34 1 34 -3 0 -22 -15 -39
-35 -39 -39 0 -85 -12 -79 -21 3 -5 24 -9 47 -9 l42 -1 -43 -39 c-24 -22 -48
-40 -53 -40 -6 0 -7 -4 -4 -10 9 -15 56 13 106 62 65 64 90 63 189 -6 81 -57
121 -68 174 -47 16 6 10 10 -30 20 -59 15 -184 71 -184 82 0 5 34 9 75 9 42 0
75 4 75 10 0 18 -46 22 -124 11 -43 -6 -89 -11 -102 -11 -22 0 -23 3 -14 20
11 21 23 25 103 35 75 10 58 29 -19 20 l-65 -7 7 39 c12 62 10 75 -13 83 -11
5 -24 6 -27 3z"/>
  <path d="M636 539 c-15 -17 -25 -33 -22 -37 9 -8 96 35 96 48 0 5 -4 10 -9 10
-5 0 -16 2 -23 5 -8 3 -26 -8 -42 -26z"/>
  <path d="M257 529 c-11 -6 -38 -8 -65 -4 l-47 6 0 -163 c0 -157 -1 -165 -28
-228 -44 -102 -44 -111 2 -64 29 31 45 60 61 113 l22 71 39 0 40 0 -3 -72 -3
-73 -40 3 -40 3 40 -40 c21 -23 47 -41 57 -41 36 0 43 37 44 230 0 102 4 197
8 211 12 43 -43 73 -87 48z m23 -79 c0 -27 -4 -50 -9 -50 -5 0 -23 -3 -41 -6
l-32 -7 7 44 c7 46 26 69 57 69 15 0 18 -8 18 -50z m0 -122 c0 -23 -2 -39 -6
-36 -3 3 -21 2 -40 -2 l-35 -8 3 36 c3 34 6 38 38 43 19 4 36 7 38 8 1 0 2
-18 2 -41z"/>
  <path d="M400 533 c1 -17 40 -54 50 -48 14 9 13 24 -4 41 -15 15 -46 19 -46 7z"/>
  <path d="M517 323 c8 -21 23 -33 41 -33 19 0 14 28 -7 40 -29 15 -41 12 -34
-7z"/>
  <path d="M555 274 c-11 -2 -47 -6 -80 -10 -49 -5 -56 -8 -37 -15 26 -10 232 9
246 22 9 8 -82 11 -129 3z"/>
  <path d="M490 210 c-28 -6 -20 -7 35 -8 39 0 84 4 100 8 41 10 -86 10 -135 0z"/>
  <path d="M535 173 c-53 -4 -89 -23 -43 -23 56 0 148 13 148 21 0 9 -8 9 -105
2z"/>
  <path d="M498 123 l-77 -4 21 -50 c15 -35 25 -48 35 -44 8 3 48 5 89 5 74 0
76 1 109 37 22 24 31 41 25 47 -11 11 -91 15 -202 9z m137 -23 c3 -5 1 -19 -5
-30 -9 -17 -21 -20 -80 -20 -39 0 -71 4 -71 10 -5 31 -1 35 41 41 74 10 108
10 115 -1z"/>
</g>
<g id="part-1" class="char-part">
  <path d="M156 427 c8 -131 -7 -231 -45 -312 -16 -36 -28 -65 -26 -65 3 0 16
10 29 21 27 24 61 95 71 151 6 34 10 36 48 40 23 3 45 3 50 1 9 -5 9 -74 1
-126 -7 -39 -5 -39 -64 -19 -8 2 4 -15 28 -39 l43 -44 20 24 c17 21 19 40 19
190 0 91 3 189 6 218 6 50 6 52 -21 59 -15 4 -44 2 -64 -5 -24 -7 -48 -7 -69
-2 l-32 10 6 -102z m128 57 c3 -9 6 -31 6 -49 0 -28 -4 -34 -27 -39 -16 -4
-36 -9 -45 -12 -16 -5 -18 2 -18 45 0 37 5 53 18 60 26 16 59 13 66 -5z m6
-153 c0 -38 0 -38 -47 -45 -25 -3 -47 -5 -48 -4 -1 2 0 20 2 40 5 38 14 45 66
47 25 1 27 -2 27 -38z"/>
</g>
<g id="part-2" class="char-part">
  <path d="M515 570 c8 -38 -19 -142 -51 -197 -13 -23 -45 -58 -71 -78 -51 -39
-43 -46 16 -15 70 35 118 109 147 225 17 65 16 68 -1 81 -32 24 -47 18 -40
-16z"/>
  <path d="M625 530 l-40 -40 58 19 c78 27 84 31 62 48 -28 20 -37 17 -80 -27z"/>
  <path d="M400 535 c0 -15 34 -55 46 -55 21 0 17 38 -5 50 -21 11 -41 13 -41 5z"/>
  <path d="M659 325 c83 -56 124 -66 175 -46 14 5 3 11 -44 24 -34 10 -88 31
-121 47 -94 48 -99 35 -10 -25z"/>
</g>
<g id="part-3" class="char-part">
  <path d="M510 485 c0 -18 -39 -35 -81 -35 -18 0 -28 -4 -24 -10 3 -5 24 -10
46 -10 21 0 39 -3 39 -7 -1 -21 -20 -31 -75 -38 -47 -5 -55 -9 -41 -17 10 -5
31 -8 47 -6 33 5 37 -7 12 -34 -15 -17 -15 -18 5 -18 11 0 32 14 46 32 22 28
32 33 93 39 37 5 96 8 130 8 34 1 64 5 68 10 11 19 -39 23 -141 10 -57 -6
-107 -9 -110 -6 -3 3 3 14 14 25 12 12 40 21 81 26 85 10 81 31 -4 23 -53 -5
-65 -4 -65 8 0 8 -9 15 -20 15 -11 0 -20 -7 -20 -15z"/>
</g>
<g id="part-4" class="char-part">
  <path d="M578 125 c-3 -3 -42 -6 -87 -7 -44 -1 -77 -4 -72 -7 5 -4 16 -24 25
-46 l17 -41 67 3 c110 6 125 10 155 48 l28 35 -26 10 c-28 11 -98 14 -107 5z
m57 -25 c3 -5 1 -19 -5 -30 -9 -17 -21 -20 -79 -20 -68 0 -81 7 -81 40 0 17
155 26 165 10z"/>
</g>
</g>
</svg>