<?xml version="1.0" standalone="no"?>
<!DOCTYPE svg PUBLIC "-//W3C//DTD SVG 20010904//EN"
 "http://www.w3.org/TR/2001/REC-SVG-20010904/DTD/svg10.dtd">
<svg version="1.0" xmlns="http://www.w3.org/2000/svg"
 width="96.000000pt" height="68.000000pt" viewBox="0 0 96.000000 68.000000"
 preserveAspectRatio="xMidYMid meet">
<metadata>
Created by potrace 1.16, written by Peter Selinger 2001-2019
Combined from part_0.svg through part_5.svg with named groups
</metadata>
<g transform="translate(0.000000,68.000000) scale(0.100000,-0.100000)" fill="#000000" stroke="none">
<g id="part-0" class="char-part">
  <path d="M618 513 c-3 -88 -3 -88 -30 -91 -28 -3 -28 -3 -28 57 0 52 -3 61
-21 66 -11 4 -22 5 -25 3 -2 -3 0 -29 6 -58 15 -77 14 -80 -22 -81 -18 -1 -44
-5 -58 -9 -22 -7 -20 -8 15 -9 34 -1 44 -6 58 -30 23 -39 22 -39 -18 -47 -48
-9 -35 -19 23 -19 34 0 47 -4 50 -16 2 -11 -10 -18 -45 -26 l-48 -10 48 -2
c39 -1 47 -4 47 -20 0 -21 -40 -31 -128 -31 -39 0 -52 -4 -49 -12 3 -9 27 -12
87 -10 l82 3 -28 -36 c-15 -20 -50 -50 -78 -66 -56 -32 -37 -40 23 -10 37 19
80 56 113 99 16 20 27 22 122 22 59 0 108 4 111 10 3 6 -1 10 -9 10 -9 0 -16
5 -16 11 0 7 -28 8 -90 3 -77 -6 -90 -4 -90 9 0 18 21 27 66 27 19 0 34 5 34
10 0 6 -22 10 -49 10 -41 0 -49 3 -47 18 2 12 13 18 37 20 55 4 80 12 74 22
-3 6 -25 10 -47 10 l-41 0 21 23 c12 13 22 29 22 35 0 8 18 12 49 12 52 0 81
7 81 20 0 15 -42 19 -98 10 -31 -5 -58 -7 -60 -5 -3 3 0 35 6 72 10 60 10 69
-5 81 -36 26 -42 15 -45 -75z m22 -137 c0 -28 -14 -42 -53 -51 -21 -6 -27 -4
-27 9 0 9 -9 25 -19 35 -24 24 -15 29 52 30 43 1 47 -1 47 -23z"/>
  <path d="M278 491 l5 -89 -44 -6 c-79 -12 -99 -17 -99 -26 0 -15 32 -20 87
-13 l56 6 -24 -43 c-13 -24 -53 -71 -89 -106 -59 -59 -67 -86 -12 -48 12 8 27
12 32 9 6 -4 10 -3 8 2 -1 4 17 27 40 51 l42 43 0 -38 c0 -21 -5 -68 -10 -105
-10 -70 0 -118 26 -118 19 0 25 26 31 147 3 62 9 113 12 113 3 0 15 -7 25 -15
22 -17 36 -11 36 15 0 13 -10 22 -32 28 -27 7 -34 14 -36 40 -3 27 0 32 25 38
15 4 32 9 36 11 14 8 -15 33 -37 33 -21 0 -22 3 -15 62 8 72 5 84 -24 92 -44
12 -45 10 -39 -83z"/>
  <path d="M721 508 c-17 -17 -29 -33 -27 -35 5 -5 88 27 101 39 6 6 5 12 -5 18
-24 16 -36 12 -69 -22z"/>
  <path d="M435 480 c-8 -13 33 -43 51 -36 13 5 14 9 5 20 -14 17 -49 27 -56 16z"/>
  <path d="M641 143 c0 -10 106 -96 137 -112 18 -10 23 -9 28 4 14 35 -18 63
-107 95 -62 23 -59 22 -58 13z"/>
</g>
<g id="part-1" class="char-part">
  <path d="M275 563 c4 -10 10 -50 12 -89 l5 -72 -51 -11 c-29 -6 -60 -11 -71
-11 -10 0 -22 -5 -26 -11 -5 -9 14 -10 69 -7 l76 5 -21 -41 c-11 -23 -52 -71
-89 -108 -38 -38 -66 -68 -62 -68 20 0 97 56 133 97 l42 48 -6 -60 c-18 -176
-19 -195 -6 -210 10 -12 16 -13 26 -4 11 9 14 44 14 141 l0 129 29 -20 c35
-25 54 -27 49 -4 -2 9 -19 22 -38 28 -19 6 -35 17 -34 23 1 7 2 23 3 36 1 18
8 25 31 30 50 9 33 34 -18 27 -11 -2 -12 13 -7 71 7 73 7 74 -19 86 -37 17
-49 15 -41 -5z"/>
</g>
<g id="part-2" class="char-part">
  <path d="M615 513 l0 -88 -27 -3 c-27 -3 -27 -2 -30 60 -3 60 -4 63 -29 66
l-26 3 13 -53 c22 -81 20 -88 -23 -89 -21 -1 -49 -4 -63 -8 -56 -16 11 -19
111 -6 57 8 138 15 179 15 41 1 84 5 95 10 19 7 18 8 -7 18 -18 8 -46 8 -84 2
-32 -5 -60 -7 -63 -5 -2 3 1 35 8 72 11 61 11 68 -5 80 -41 30 -49 18 -49 -74z"/>
</g>
<g id="part-3" class="char-part">
  <path d="M718 505 c-21 -19 -36 -35 -35 -35 2 0 26 7 53 16 60 20 74 32 54 44
-23 15 -32 12 -72 -25z"/>
  <path d="M430 482 c0 -14 35 -42 53 -42 34 0 13 31 -30 44 -13 4 -23 3 -23 -2z"/>
</g>
<g id="part-4" class="char-part">
  <path d="M641 142 c0 -10 119 -106 141 -114 24 -10 34 13 18 42 -15 28 -161
94 -159 72z"/>
</g>
</g>
</svg>