<?xml version="1.0" standalone="no"?>
<!DOCTYPE svg PUBLIC "-//W3C//DTD SVG 20010904//EN"
 "http://www.w3.org/TR/2001/REC-SVG-20010904/DTD/svg10.dtd">
<svg version="1.0" xmlns="http://www.w3.org/2000/svg"
 width="96.000000pt" height="68.000000pt" viewBox="0 0 96.000000 68.000000"
 preserveAspectRatio="xMidYMid meet">
<metadata>
Created by potrace 1.16, written by Peter Selinger 2001-2019
Combined from part_0.svg through part_5.svg with named groups
</metadata>
<g transform="translate(0.000000,68.000000) scale(0.100000,-0.100000)" fill="#000000" stroke="none">
<g id="part-0" class="char-part">
  <path d="M290 610 c0 -5 9 -19 19 -29 19 -19 19 -19 -2 -25 -12 -3 -35 -6 -52
-6 -16 0 -36 -4 -44 -9 -11 -7 -5 -11 21 -16 24 -5 39 -15 47 -32 16 -35 7
-43 -47 -43 -26 0 -54 -5 -62 -10 -20 -13 4 -13 128 0 139 15 163 20 157 30
-3 5 -19 7 -35 3 -33 -6 -37 2 -15 31 8 10 12 23 9 27 -3 5 4 9 15 9 13 0 21
7 21 16 0 13 -9 15 -44 13 -29 -3 -42 0 -39 7 6 17 -26 44 -53 44 -13 0 -24
-4 -24 -10z m84 -107 c-4 -16 -12 -31 -18 -35 -18 -12 -46 -9 -46 5 0 6 -3 22
-6 35 -6 20 -3 22 35 22 40 0 41 -1 35 -27z"/>
  <path d="M496 603 c4 -10 7 -37 7 -61 l-2 -44 64 7 c61 7 65 6 65 -13 0 -17
-9 -21 -67 -27 l-68 -6 3 -80 c3 -76 5 -80 36 -104 29 -22 43 -25 113 -25 85
0 173 23 173 45 0 7 -6 28 -14 46 l-14 33 -17 -35 c-23 -44 -28 -47 -103 -55
-73 -7 -165 12 -127 27 11 4 41 8 68 8 28 1 47 6 47 12 0 9 -20 10 -70 5 -39
-3 -70 -2 -70 3 0 10 48 21 91 21 15 0 31 5 35 11 5 8 -12 10 -56 8 -44 -3
-64 0 -67 9 -3 9 11 12 54 12 32 0 65 5 73 11 11 8 -3 9 -53 6 -37 -3 -70 -1
-73 4 -8 14 33 27 93 28 25 1 35 7 47 32 23 46 13 52 -66 44 -64 -6 -69 -5
-66 12 3 14 16 19 66 24 34 3 66 10 70 14 4 4 -23 5 -60 1 -64 -6 -67 -5 -70
16 -2 15 -11 24 -27 26 -20 3 -22 1 -15 -15z"/>
  <path d="M345 420 c-16 -4 -46 -8 -65 -9 -35 -1 -35 -1 -32 -41 2 -22 0 -53
-6 -68 -11 -31 -1 -59 17 -48 6 4 11 16 11 26 0 25 5 27 70 31 44 3 55 1 55
-11 0 -9 -12 -17 -30 -20 l-30 -5 34 -24 c32 -23 34 -24 45 -5 15 25 25 156
13 172 -10 13 -35 14 -82 2z m50 -19 c8 -14 -9 -21 -65 -28 -43 -5 -50 -4 -44
10 8 21 97 36 109 18z m5 -50 c0 -12 -23 -19 -72 -23 -38 -2 -54 4 -45 19 7
11 117 15 117 4z"/>
  <path d="M415 210 c-82 -9 -129 -18 -103 -19 55 -1 63 -9 40 -37 -23 -28 -62
-51 -135 -80 -52 -21 -56 -24 -25 -20 20 2 64 16 97 29 l61 25 6 -27 c12 -56
22 -76 35 -72 8 2 65 6 126 9 65 2 110 8 107 14 -3 5 7 25 22 45 26 35 27 36
8 50 -15 12 -39 14 -118 8 -55 -3 -113 -9 -130 -12 -30 -6 -31 -6 -13 14 9 11
17 26 17 35 0 12 20 16 103 22 127 8 142 11 142 22 0 15 -81 13 -240 -6z m185
-113 c0 -46 -19 -55 -115 -59 l-90 -3 0 35 0 35 60 6 c132 13 145 11 145 -14z"/>
</g>
<g id="part-1" class="char-part">
  <path d="M300 602 c0 -14 23 -32 42 -32 22 0 24 26 2 34 -22 8 -44 7 -44 -2z"/>
  <path d="M340 559 c-129 -22 -128 -21 -100 -28 18 -5 169 8 208 18 2 1 0 6 -3
11 -7 12 -28 11 -105 -1z"/>
</g>
<g id="part-2" class="char-part">
  <path d="M772 336 c-15 -40 -26 -45 -108 -53 -69 -6 -155 14 -119 28 11 4 41
8 67 8 26 1 50 6 54 13 5 8 -13 9 -69 4 -51 -5 -77 -3 -77 4 0 5 -4 10 -10 10
-5 0 -10 -13 -10 -29 0 -44 39 -64 135 -69 75 -4 142 6 174 27 13 8 13 15 1
50 -7 23 -16 41 -20 41 -3 0 -12 -15 -18 -34z"/>
</g>
<g id="part-3" class="char-part">
  <path d="M448 215 c-165 -16 -198 -22 -135 -24 51 -1 61 -16 30 -47 -20 -20
-151 -84 -172 -84 -8 0 -12 -3 -8 -6 10 -10 109 17 167 46 55 28 99 66 90 79
-3 3 49 11 115 17 143 14 133 12 115 24 -18 12 -25 11 -202 -5z"/>
</g>
<g id="part-4" class="char-part">
  <path d="M450 128 c-47 -5 -88 -12 -92 -16 -6 -7 5 -98 13 -106 2 -2 24 0 49
4 25 5 82 9 127 10 65 0 81 3 77 14 -3 7 7 28 22 45 26 31 26 32 8 46 -21 16
-77 17 -204 3z m150 -31 c0 -45 -19 -54 -118 -61 l-93 -6 3 38 3 37 55 6 c30
3 76 6 103 7 43 2 47 0 47 -21z"/>
</g>
</g>
</svg>