<?xml version="1.0" standalone="no"?>
<!DOCTYPE svg PUBLIC "-//W3C//DTD SVG 20010904//EN"
 "http://www.w3.org/TR/2001/REC-SVG-20010904/DTD/svg10.dtd">
<svg version="1.0" xmlns="http://www.w3.org/2000/svg"
 width="96.000000pt" height="68.000000pt" viewBox="0 0 96.000000 68.000000"
 preserveAspectRatio="xMidYMid meet">
<metadata>
Created by potrace 1.16, written by Peter Selinger 2001-2019
Combined from part_0.svg through part_5.svg with named groups
</metadata>
<g transform="translate(0.000000,68.000000) scale(0.100000,-0.100000)" fill="#000000" stroke="none">
<g id="part-0" class="char-part">
  <path d="M590 563 c0 -31 -51 -120 -96 -167 -34 -34 -39 -44 -24 -41 11 2 33
13 48 23 15 11 52 22 82 25 30 3 79 9 108 13 l52 7 0 -132 c0 -94 -4 -142 -15
-167 -15 -37 -21 -38 -67 -19 -26 10 -22 -9 8 -44 29 -35 54 -39 77 -13 33 37
47 90 47 184 1 51 5 113 9 137 5 25 7 51 4 58 -10 26 -65 31 -137 11 -38 -10
-80 -18 -93 -16 -22 3 -21 6 24 62 37 46 44 62 36 75 -15 24 -63 27 -63 4z"/>
  <path d="M310 545 c-35 -7 -80 -10 -99 -7 -31 5 -34 3 -26 -14 13 -32 17 -126
7 -181 -13 -75 -7 -80 78 -65 39 7 87 12 107 12 l36 0 -7 -71 c-8 -93 -19
-113 -57 -105 -16 3 -29 2 -29 -2 0 -13 49 -52 64 -52 27 0 50 54 61 145 14
105 9 115 -55 115 -39 0 -41 1 -38 28 2 22 8 28 36 30 44 4 41 22 -4 22 -31 0
-35 3 -32 23 2 17 11 23 36 25 43 4 41 22 -3 22 -34 0 -43 12 -27 36 4 6 24
14 46 17 46 7 56 15 36 27 -19 12 -48 11 -130 -5z m-2 -62 c-2 -19 -10 -29
-30 -34 -26 -7 -28 -5 -28 21 0 19 6 30 18 33 38 10 43 7 40 -20z m2 -78 c0
-20 -5 -25 -25 -25 -14 0 -25 -5 -25 -10 0 -6 11 -8 26 -4 23 6 25 4 22 -22
-3 -25 -8 -29 -37 -32 l-34 -3 7 47 c3 26 6 53 6 60 0 9 11 14 30 14 25 0 30
-4 30 -25z"/>
  <path d="M610 330 c-8 -5 -41 -10 -74 -10 -52 0 -57 -2 -46 -16 8 -8 19 -36
25 -62 7 -26 16 -47 21 -47 56 3 124 19 121 29 -2 6 7 28 20 50 14 21 21 42
16 47 -14 14 -67 20 -83 9z m16 -46 c-3 -9 -6 -24 -6 -34 0 -20 -39 -32 -64
-18 -9 5 -16 22 -16 38 0 29 2 30 46 30 38 0 45 -3 40 -16z"/>
  <path d="M336 251 c-8 -12 31 -44 44 -36 5 3 8 11 5 16 -10 15 -43 30 -49 20z"/>
  <path d="M260 235 c0 -11 35 -45 46 -45 16 0 11 29 -7 41 -15 9 -39 12 -39 4z"/>
  <path d="M132 214 c-19 -37 -18 -84 2 -84 17 0 30 64 18 87 -9 15 -11 14 -20
-3z"/>
  <path d="M200 219 c0 -17 20 -49 30 -49 17 0 11 47 -6 54 -21 8 -24 8 -24 -5z"/>
</g>
<g id="part-1" class="char-part">
  <path d="M335 543 c-38 -8 -87 -12 -108 -11 l-37 4 7 -36 c4 -19 6 -62 4 -95
-7 -140 -8 -130 19 -128 152 13 190 20 190 34 0 11 -90 6 -147 -8 -23 -5 -23
-4 -23 101 l0 106 43 0 c53 0 157 20 157 30 0 15 -36 16 -105 3z"/>
</g>
<g id="part-2" class="char-part">
  <path d="M330 252 c0 -12 34 -42 48 -42 19 0 14 18 -10 34 -25 18 -38 20 -38
8z"/>
  <path d="M260 232 c0 -12 34 -42 48 -42 19 0 14 28 -7 40 -24 12 -41 13 -41 2z"/>
  <path d="M121 190 c-13 -43 -9 -60 14 -60 16 0 31 61 21 85 -10 26 -22 17 -35
-25z"/>
  <path d="M205 200 c9 -16 20 -30 25 -30 16 0 11 47 -6 54 -30 11 -34 6 -19
-24z"/>
</g>
<g id="part-3" class="char-part">
  <path d="M586 548 c-8 -38 -54 -113 -96 -153 -43 -42 -37 -50 18 -21 45 23
122 38 207 40 l40 1 3 -118 c4 -173 -14 -220 -74 -196 -15 5 -28 8 -30 6 -8
-8 59 -77 75 -77 47 0 81 81 82 197 0 48 4 111 9 138 14 84 -20 103 -131 74
-41 -11 -84 -18 -97 -17 -21 3 -20 6 23 58 25 30 45 60 45 65 0 18 -23 35 -46
35 -16 0 -23 -8 -28 -32z"/>
</g>
<g id="part-4" class="char-part">
  <path d="M615 329 c-16 -5 -53 -10 -82 -10 l-51 -1 19 -32 c10 -17 19 -43 19
-58 0 -30 14 -43 33 -31 14 9 18 9 67 11 28 2 36 6 37 22 1 11 12 34 24 51 30
42 -4 67 -66 48z m9 -66 c-5 -25 -12 -32 -38 -36 -17 -2 -32 -3 -34 -2 -2 1
-5 19 -9 38 -5 35 -5 36 33 39 49 4 56 -1 48 -39z"/>
</g>
</g>
</svg>