<?xml version="1.0" standalone="no"?>
<!DOCTYPE svg PUBLIC "-//W3C//DTD SVG 20010904//EN"
 "http://www.w3.org/TR/2001/REC-SVG-20010904/DTD/svg10.dtd">
<svg version="1.0" xmlns="http://www.w3.org/2000/svg"
 width="96.000000pt" height="68.000000pt" viewBox="0 0 96.000000 68.000000"
 preserveAspectRatio="xMidYMid meet">
<metadata>
Created by potrace 1.16, written by Peter Selinger 2001-2019
Combined from part_0.svg through part_5.svg with named groups
</metadata>
<g transform="translate(0.000000,68.000000) scale(0.100000,-0.100000)" fill="#000000" stroke="none">
<g id="part-0" class="char-part">
  <path d="M514 583 c4 -10 10 -41 13 -69 l6 -52 -72 -7 c-87 -9 -84 -25 6 -25
l65 0 -7 -52 c-17 -135 -59 -208 -148 -265 -52 -33 -41 -39 21 -13 58 25 105
70 127 123 17 42 29 46 45 17 6 -12 38 -52 71 -90 l60 -70 76 0 c82 0 85 7 13
34 -60 23 -157 90 -198 137 -34 38 -34 39 -27 113 l7 74 47 7 c72 10 91 16 85
27 -4 5 -34 8 -68 6 l-61 -3 0 60 0 60 -34 3 c-29 3 -33 1 -27 -15z"/>
  <path d="M300 536 c-18 -55 -33 -62 -77 -32 -67 46 -88 28 -26 -22 38 -30 38
-30 19 -51 -11 -12 -39 -34 -63 -49 -82 -52 -44 -54 59 -3 l56 29 7 -25 c4
-19 -2 -35 -30 -68 -36 -45 -93 -93 -133 -114 -13 -7 -21 -15 -19 -18 9 -9
100 37 144 73 l43 35 -1 -53 c-2 -93 -8 -103 -62 -102 -26 0 -46 -3 -45 -7 2
-4 22 -23 46 -43 37 -30 46 -34 63 -23 26 16 46 61 54 126 6 42 14 59 39 82
37 34 41 35 68 9 28 -25 38 -25 38 0 0 13 -10 24 -25 30 -29 11 -31 17 -9 41
19 21 11 39 -16 39 -13 0 -23 -11 -30 -37 -7 -21 -22 -51 -35 -67 l-24 -30 -5
30 c-4 16 -12 56 -20 89 l-14 60 35 37 c20 20 39 35 43 33 3 -2 7 5 7 16 1 15
-8 25 -32 35 -45 18 -42 19 -55 -20z"/>
  <path d="M660 397 c0 -7 -15 -39 -34 -70 -35 -58 -30 -74 10 -36 l23 21 35
-27 c22 -17 42 -25 52 -21 15 6 15 8 -1 26 -10 11 -23 20 -29 20 -6 0 -17 4
-25 9 -12 7 -10 14 8 37 l22 28 -23 13 c-30 16 -38 16 -38 0z"/>
</g>
<g id="part-1" class="char-part">
  <path d="M297 520 c-19 -41 -39 -49 -66 -27 -9 7 -29 19 -46 25 -28 11 -27 9
13 -26 23 -21 42 -41 42 -45 0 -4 -28 -27 -62 -52 -71 -52 -57 -59 27 -14 31
17 59 28 62 25 13 -13 23 -116 17 -181 -9 -98 -16 -108 -67 -100 l-42 7 35
-36 c40 -43 64 -43 94 -3 30 40 35 171 10 273 l-17 75 44 45 c42 44 43 46 25
60 -32 23 -50 16 -69 -26z"/>
</g>
<g id="part-2" class="char-part">
  <path d="M247 316 c-15 -19 -56 -56 -92 -83 -35 -26 -63 -49 -61 -50 7 -7 79
25 120 54 55 39 81 76 69 98 -8 14 -14 11 -36 -19z"/>
</g>
<g id="part-3" class="char-part">
  <path d="M514 578 c14 -50 18 -106 8 -112 -6 -3 -38 -9 -71 -12 -83 -9 -77
-24 9 -24 39 0 70 -3 70 -7 0 -5 -5 -39 -10 -76 -16 -108 -66 -187 -153 -241
-43 -27 -25 -30 30 -6 63 28 100 64 128 123 l23 49 30 -44 c17 -24 52 -67 79
-96 l48 -53 75 3 c69 3 73 4 47 15 -104 46 -143 71 -203 126 l-67 62 7 77 8
76 51 7 c69 9 87 14 87 27 0 6 -25 9 -66 7 l-67 -4 -1 60 -1 60 -34 3 c-31 3
-33 2 -27 -20z"/>
</g>
<g id="part-4" class="char-part">
  <path d="M384 325 c-32 -66 -32 -81 1 -45 10 11 23 20 30 20 7 0 20 -9 30 -20
23 -25 35 -25 35 0 0 13 -10 24 -25 30 -29 11 -31 17 -9 41 18 20 11 39 -14
39 -11 0 -28 -24 -48 -65z"/>
</g>
<g id="part-5" class="char-part">
  <path d="M656 370 c-8 -16 -11 -30 -6 -30 20 0 40 13 40 27 0 9 5 11 13 7 8
-5 8 -2 -2 9 -19 24 -27 21 -45 -13z"/>
  <path d="M634 321 c4 -5 0 -12 -6 -14 -9 -4 -10 -6 -1 -6 6 -1 14 3 18 9 7 11
55 -8 55 -23 0 -5 7 -7 15 -3 8 3 15 1 15 -4 0 -6 5 -10 12 -10 6 0 3 9 -7 20
-10 11 -20 18 -23 15 -3 -2 -14 2 -26 10 -22 16 -61 20 -52 6z"/>
</g>
</g>
</svg>