<?xml version="1.0" standalone="no"?>
<!DOCTYPE svg PUBLIC "-//W3C//DTD SVG 20010904//EN"
 "http://www.w3.org/TR/2001/REC-SVG-20010904/DTD/svg10.dtd">
<svg version="1.0" xmlns="http://www.w3.org/2000/svg"
 width="96.000000pt" height="68.000000pt" viewBox="0 0 96.000000 68.000000"
 preserveAspectRatio="xMidYMid meet">
<metadata>
Created by potrace 1.16, written by Peter Selinger 2001-2019
Combined from part_0.svg through part_5.svg with named groups
</metadata>
<g transform="translate(0.000000,68.000000) scale(0.100000,-0.100000)" fill="#000000" stroke="none">
<g id="part-0" class="char-part">
  <path d="M400 610 c0 -5 14 -25 30 -44 36 -40 35 -41 -77 -51 -59 -6 -75 -4
-88 9 -9 9 -19 16 -23 15 -13 0 -64 -120 -58 -134 13 -34 65 -7 80 41 6 18 23
24 139 42 192 31 257 36 257 22 0 -6 -7 -24 -15 -40 -19 -36 -14 -37 70 -11
33 10 60 24 59 30 -1 6 -2 15 -2 19 -1 5 -19 18 -40 30 -38 21 -41 21 -123 7
-109 -19 -106 -20 -101 14 3 25 -1 32 -26 45 -34 18 -82 21 -82 6z"/>
  <path d="M433 406 c-45 -6 -84 -14 -88 -17 -12 -13 58 -18 128 -9 83 10 109
18 101 31 -6 11 -31 10 -141 -5z"/>
  <path d="M415 303 c-82 -8 -161 -17 -175 -20 -23 -4 -23 -5 -6 -15 12 -7 53
-8 112 -4 l94 7 10 -27 c6 -15 10 -55 8 -88 l-3 -61 -42 1 -42 1 37 -34 c42
-38 52 -40 77 -13 15 16 18 37 18 114 0 51 -3 98 -6 103 -4 6 39 13 110 17 64
3 119 8 121 10 2 3 1 9 -3 15 -8 14 -122 12 -310 -6z"/>
  <path d="M590 212 c0 -4 25 -32 54 -61 47 -46 57 -52 70 -41 9 7 16 18 16 24
0 21 -43 54 -89 71 -50 17 -51 18 -51 7z"/>
  <path d="M289 183 c-5 -15 -22 -40 -36 -55 -43 -45 -18 -44 44 2 32 24 60 45
62 47 7 6 -12 20 -36 28 -19 5 -25 1 -34 -22z"/>
</g>
<g id="part-1" class="char-part">
  <path d="M416 591 c30 -50 94 -68 94 -26 0 19 -57 55 -88 55 -23 0 -23 0 -6
-29z"/>
  <path d="M570 535 c-137 -21 -310 -30 -310 -16 0 24 -20 9 -44 -35 -33 -59
-34 -87 -4 -82 14 2 31 17 43 40 17 32 25 38 52 38 17 0 66 7 108 15 100 19
255 31 255 19 -1 -5 -7 -20 -15 -34 -8 -14 -14 -28 -15 -31 0 -3 28 2 63 11
34 9 62 22 61 29 -2 24 -5 27 -33 44 -33 19 -43 19 -161 2z"/>
</g>
<g id="part-2" class="char-part">
  <path d="M422 405 c-93 -15 -107 -21 -68 -31 33 -8 221 18 221 31 0 15 -59 15
-153 0z"/>
</g>
<g id="part-3" class="char-part">
  <path d="M400 299 c-91 -10 -172 -18 -180 -19 -11 0 -10 -3 4 -12 12 -7 50 -9
105 -5 278 19 396 29 401 33 2 3 -2 9 -10 14 -22 14 -132 10 -320 -11z"/>
</g>
<g id="part-4" class="char-part">
  <path d="M451 242 c5 -16 9 -56 7 -88 l-3 -59 -44 1 -45 1 40 -33 c46 -39 55
-41 79 -14 15 17 18 37 18 118 l-1 97 -31 3 c-30 3 -30 2 -20 -26z"/>
  <path d="M630 166 c58 -61 86 -74 95 -44 9 26 -11 47 -70 74 -76 36 -82 29
-25 -30z"/>
  <path d="M290 186 c-5 -14 -26 -44 -47 -67 l-38 -42 35 18 c19 10 53 32 75 49
22 17 42 32 44 34 8 4 -13 19 -36 27 -18 5 -25 1 -33 -19z"/>
</g>
</g>
</svg>