<?xml version="1.0" standalone="no"?>
<!DOCTYPE svg PUBLIC "-//W3C//DTD SVG 20010904//EN"
 "http://www.w3.org/TR/2001/REC-SVG-20010904/DTD/svg10.dtd">
<svg version="1.0" xmlns="http://www.w3.org/2000/svg"
 width="96.000000pt" height="68.000000pt" viewBox="0 0 96.000000 68.000000"
 preserveAspectRatio="xMidYMid meet">
<metadata>
Created by potrace 1.16, written by Peter Selinger 2001-2019
Combined from part_0.svg through part_5.svg with named groups
</metadata>
<g transform="translate(0.000000,68.000000) scale(0.100000,-0.100000)" fill="#000000" stroke="none">
<g id="part-0" class="char-part">
  <path d="M515 610 c-9 -14 23 -62 38 -57 19 6 14 38 -10 54 -15 10 -23 11 -28
3z"/>
  <path d="M204 551 c0 -11 2 -18 4 -16 3 2 14 -10 26 -28 25 -37 59 -43 64 -11
4 29 -27 63 -63 70 -26 5 -31 3 -31 -15z"/>
  <path d="M639 556 c-2 -3 -59 -12 -127 -22 -83 -12 -119 -21 -112 -28 6 -6 49
-4 132 7 68 10 142 17 166 17 42 0 56 12 26 24 -18 7 -79 8 -85 2z"/>
  <path d="M655 500 c-11 -5 -38 -9 -60 -9 -22 -1 -35 -5 -28 -9 15 -9 33 -56
33 -86 0 -19 -7 -24 -37 -29 -27 -5 -40 -2 -46 8 -12 22 -37 18 -37 -4 0 -16
-8 -21 -42 -24 l-43 -4 43 -1 c35 -2 42 -5 42 -22 0 -16 -7 -20 -32 -20 -17 0
-28 -3 -24 -7 4 -5 19 -8 33 -8 15 0 28 -6 30 -12 5 -15 -37 -33 -77 -33 -16
0 -32 -5 -36 -12 -5 -8 9 -10 54 -5 34 3 62 2 62 -2 0 -14 -76 -79 -122 -106
-58 -32 -62 -41 -10 -19 55 23 83 34 89 34 3 0 3 -25 1 -55 -7 -78 7 -84 73
-30 62 52 77 76 27 45 -49 -30 -62 -27 -55 14 3 18 1 38 -5 44 -7 7 0 17 21
33 17 12 31 28 31 35 0 15 31 21 160 29 52 3 97 8 99 11 21 21 -95 27 -161 8
-11 -3 -18 0 -18 8 0 24 23 38 63 38 25 0 36 4 31 11 -4 7 -22 9 -46 6 -33 -4
-39 -3 -36 11 2 11 15 18 33 20 17 1 41 5 54 8 41 9 3 25 -41 18 -30 -4 -38
-2 -38 9 0 9 -6 17 -12 20 -7 2 11 7 41 12 32 4 48 10 41 15 -9 6 -7 13 8 28
33 33 -9 55 -63 32z m23 -32 c-2 -19 -9 -23 -38 -23 -25 0 -36 5 -38 17 -2 12
5 18 30 21 18 2 37 5 41 5 5 1 7 -8 5 -20z m-83 -138 c0 -20 -65 -27 -76 -8
-6 9 -1 15 14 20 34 10 62 5 62 -12z m-1 -55 c-6 -14 -61 -28 -75 -19 -21 12
-7 33 24 36 42 4 57 -1 51 -17z"/>
  <path d="M443 473 c-24 -2 -43 -5 -43 -7 0 -2 7 -17 15 -34 13 -25 21 -30 43
-28 15 2 36 4 47 5 13 1 25 12 32 30 16 44 16 44 -94 34z m55 -30 c-4 -22 -48
-30 -59 -11 -6 9 -2 15 14 20 38 11 49 9 45 -9z"/>
  <path d="M230 454 c-167 -27 -157 -24 -135 -40 24 -18 72 -17 155 1 36 8 79
14 97 15 35 0 53 17 32 31 -18 11 -45 10 -149 -7z"/>
  <path d="M236 364 c-66 -18 -69 -24 -10 -24 42 1 130 27 97 29 -6 1 -17 3 -25
5 -7 2 -35 -3 -62 -10z"/>
  <path d="M243 297 c-73 -12 -70 -32 3 -23 31 4 63 10 71 15 25 14 -15 18 -74
8z"/>
  <path d="M255 220 c-11 -5 -42 -9 -68 -9 l-48 -1 21 -22 c11 -12 20 -31 20
-42 1 -28 24 -58 36 -46 5 5 29 10 52 12 41 3 45 6 59 43 23 64 22 70 -17 72
-19 1 -44 -2 -55 -7z m30 -50 c0 -31 -4 -35 -33 -41 -29 -6 -34 -4 -43 19 -13
35 -6 50 28 55 43 6 48 3 48 -33z"/>
  <path d="M665 209 c-16 -35 -40 -45 -68 -30 -14 7 -31 11 -38 9 -10 -3 -6 -9
10 -17 12 -7 54 -35 91 -62 67 -49 83 -54 148 -51 46 3 40 15 -15 31 -59 17
-153 60 -153 70 0 4 19 14 43 22 46 17 56 42 17 47 -18 2 -28 -4 -35 -19z"/>
</g>
<g id="part-1" class="char-part">
  <path d="M210 564 c0 -3 12 -26 26 -50 27 -46 56 -56 62 -21 4 20 -49 77 -72
77 -9 0 -16 -3 -16 -6z"/>
  <path d="M275 455 c-5 -2 -49 -9 -97 -15 -90 -12 -108 -23 -62 -34 32 -8 275
34 268 46 -5 8 -89 10 -109 3z"/>
</g>
<g id="part-2" class="char-part">
  <path d="M260 224 c-19 -7 -54 -13 -78 -13 l-43 -1 20 -26 c12 -15 21 -30 21
-35 0 -4 5 -20 10 -35 8 -21 14 -24 22 -16 7 7 31 12 55 12 41 0 43 2 63 47
11 26 19 52 16 59 -7 18 -48 22 -86 8z m25 -55 c0 -31 -3 -34 -33 -37 -27 -3
-34 1 -42 24 -12 31 -6 40 30 47 39 7 45 3 45 -34z"/>
</g>
<g id="part-3" class="char-part">
  <path d="M510 607 c0 -20 30 -57 46 -57 22 0 17 37 -8 54 -27 19 -38 20 -38 3z"/>
  <path d="M515 535 c-90 -15 -124 -24 -111 -30 10 -4 52 -3 95 3 42 7 110 14
151 18 94 7 110 12 90 24 -22 14 -80 10 -225 -15z"/>
</g>
<g id="part-4" class="char-part">
  <path d="M443 473 c-24 -2 -43 -6 -43 -9 0 -3 7 -19 16 -35 12 -24 20 -30 37
-25 12 3 33 6 47 6 17 0 29 8 37 26 21 45 15 47 -94 37z m55 -30 c-4 -22 -48
-30 -59 -11 -9 14 11 26 44 27 12 1 17 -5 15 -16z"/>
</g>
<g id="part-5" class="char-part">
  <path d="M667 199 c-28 -33 -28 -34 7 -18 14 7 23 16 20 20 -3 5 2 6 10 3 9
-3 16 -2 16 4 0 23 -29 18 -53 -9z"/>
  <path d="M600 160 c0 -5 3 -9 8 -9 17 3 35 -2 29 -7 -3 -4 13 -20 36 -37 45
-33 130 -52 157 -35 11 6 8 7 -9 2 -14 -4 -21 -2 -17 4 5 9 -65 27 -93 23 -8
-2 -10 2 -5 10 5 9 2 10 -9 6 -10 -3 -17 -3 -17 1 0 8 -62 52 -73 52 -4 0 -7
-4 -7 -10z"/>
  <path d="M467 143 c-4 -3 -7 -22 -7 -42 0 -20 -4 -43 -10 -51 -14 -22 7 -42
31 -29 11 5 17 14 14 20 -4 5 2 9 12 10 15 0 14 2 -4 9 -15 6 -21 15 -18 30 2
11 0 20 -5 20 -4 0 -6 9 -3 20 5 20 2 25 -10 13z"/>
</g>
</g>
</svg>