<?xml version="1.0" standalone="no"?>
<!DOCTYPE svg PUBLIC "-//W3C//DTD SVG 20010904//EN"
 "http://www.w3.org/TR/2001/REC-SVG-20010904/DTD/svg10.dtd">
<svg version="1.0" xmlns="http://www.w3.org/2000/svg"
 width="96.000000pt" height="68.000000pt" viewBox="0 0 96.000000 68.000000"
 preserveAspectRatio="xMidYMid meet">
<metadata>
Created by potrace 1.16, written by Peter Selinger 2001-2019
Combined from part_0.svg through part_5.svg with named groups
</metadata>
<g transform="translate(0.000000,68.000000) scale(0.100000,-0.100000)" fill="#000000" stroke="none">
<g id="part-0" class="char-part">
  <path d="M501 553 c13 -56 11 -113 -3 -118 -11 -3 -107 -14 -132 -15 -5 0 -1
-9 9 -20 16 -17 17 -31 11 -117 -6 -86 -11 -105 -42 -162 -19 -35 -33 -65 -31
-68 3 -2 21 15 41 39 43 49 64 114 75 228 5 45 10 83 12 85 2 2 18 5 34 7 26
3 30 0 33 -25 3 -23 -1 -28 -27 -33 -39 -8 -41 -24 -3 -24 19 0 30 -7 37 -22
15 -35 59 -51 119 -44 55 7 85 20 73 32 -4 5 -22 7 -40 6 -115 -9 -122 -8
-125 15 -3 18 3 23 35 28 57 10 73 15 73 26 0 12 -42 12 -74 -1 -22 -8 -26 -7
-26 8 0 36 23 50 85 54 57 3 60 2 57 -19 -4 -28 -1 -28 50 -2 l42 21 -40 19
c-32 14 -48 16 -80 9 -21 -5 -56 -10 -77 -10 -34 0 -38 3 -35 23 3 19 12 23
66 31 81 12 83 31 2 22 -55 -6 -60 -5 -60 13 0 36 -12 51 -40 51 -27 0 -28 -1
-19 -37z"/>
  <path d="M255 539 c-16 -5 -49 -7 -72 -4 -44 6 -55 -3 -28 -25 8 -7 18 -30 21
-51 8 -46 30 -80 41 -63 5 7 34 15 66 19 41 5 57 11 53 20 -2 7 5 32 16 55 18
35 19 43 7 51 -18 11 -65 10 -104 -2z m40 -56 c-8 -32 -21 -43 -51 -43 -23 0
-34 17 -34 51 0 16 7 19 46 19 45 0 46 -1 39 -27z"/>
  <path d="M214 365 c-115 -18 -126 -23 -66 -24 48 -1 52 -3 52 -25 0 -13 -9
-35 -20 -49 -25 -31 -13 -41 33 -29 39 11 82 -2 74 -22 -3 -8 -9 -30 -12 -48
-12 -63 -52 -92 -99 -73 -17 7 -16 5 4 -23 13 -18 31 -32 40 -32 29 0 64 49
91 126 31 88 25 99 -52 97 l-49 -1 19 26 c10 15 16 32 14 39 -3 7 15 14 48 20
53 8 70 27 27 29 -13 1 -60 -4 -104 -11z"/>
  <path d="M470 184 c0 -62 -11 -89 -49 -121 -33 -28 -10 -30 34 -3 53 33 82
125 50 160 -28 31 -35 24 -35 -36z"/>
  <path d="M579 233 c-1 -5 0 -41 1 -82 2 -81 11 -104 47 -120 51 -23 188 -6
200 25 3 9 -5 37 -18 62 l-23 47 -10 -43 c-13 -51 -27 -62 -83 -62 -66 0 -73
6 -73 62 0 27 5 58 11 69 8 17 7 23 -8 35 -20 15 -42 18 -44 7z"/>
</g>
<g id="part-1" class="char-part">
  <path d="M270 538 c-19 -5 -54 -8 -77 -6 -40 3 -54 -4 -34 -16 5 -3 14 -28 21
-56 13 -54 25 -69 43 -51 6 6 33 11 59 11 41 0 48 3 48 20 0 10 8 35 17 55 15
31 15 37 3 45 -18 12 -34 11 -80 -2z m30 -45 c0 -38 -9 -49 -48 -56 -34 -7
-35 -6 -46 45 -6 24 -3 27 26 31 69 8 68 8 68 -20z"/>
</g>
<g id="part-2" class="char-part">
  <path d="M233 263 c-36 -7 -27 -23 13 -23 l37 0 -6 -46 c-8 -77 -63 -126 -103
-94 -22 19 -17 -2 10 -34 22 -28 25 -29 55 -17 38 16 38 15 71 113 l27 79 -21
14 c-20 15 -39 16 -83 8z"/>
</g>
<g id="part-3" class="char-part">
  <path d="M494 574 c4 -10 9 -44 13 -76 5 -47 9 -58 24 -58 12 0 19 9 21 27 3
26 8 29 58 36 30 4 62 11 70 14 28 10 -23 21 -55 12 -53 -16 -63 -12 -67 24
-3 28 -7 32 -37 35 -29 3 -33 1 -27 -14z"/>
</g>
<g id="part-4" class="char-part">
  <path d="M508 388 c-2 -28 -8 -34 -31 -36 -32 -4 -27 -22 6 -22 14 0 28 -11
38 -29 13 -22 26 -30 62 -35 47 -7 127 8 127 23 0 15 -49 22 -71 11 -11 -6
-37 -10 -57 -8 -29 2 -38 8 -40 25 -3 23 4 26 70 38 64 10 59 29 -5 21 -56 -6
-57 -6 -57 19 0 18 -5 25 -19 25 -15 0 -21 -8 -23 -32z"/>
</g>
<g id="part-5" class="char-part">
  <path d="M580 230 c0 -8 24 -20 41 -20 6 0 8 4 5 9 -8 12 -46 21 -46 11z"/>
  <path d="M587 202 c-2 -4 -3 -32 -2 -62 1 -36 5 -54 13 -53 7 2 9 -4 5 -14 -5
-12 -3 -14 7 -8 10 6 12 4 7 -7 -9 -24 66 -42 123 -29 24 5 46 15 48 21 2 5 7
8 11 6 4 -3 13 -1 20 4 11 6 9 16 -10 46 l-23 38 -7 -33 c-4 -19 -6 -39 -5
-45 2 -6 1 -8 -1 -3 -3 4 -8 5 -12 2 -17 -10 -76 -16 -102 -10 -29 7 -64 58
-53 77 3 5 9 22 14 37 7 24 5 30 -11 34 -10 3 -20 2 -22 -1z"/>
</g>
</g>
</svg>