<?xml version="1.0" standalone="no"?>
<!DOCTYPE svg PUBLIC "-//W3C//DTD SVG 20010904//EN"
 "http://www.w3.org/TR/2001/REC-SVG-20010904/DTD/svg10.dtd">
<svg version="1.0" xmlns="http://www.w3.org/2000/svg"
 width="96.000000pt" height="68.000000pt" viewBox="0 0 96.000000 68.000000"
 preserveAspectRatio="xMidYMid meet">
<metadata>
Created by potrace 1.16, written by Peter Selinger 2001-2019
Combined from part_0.svg through part_5.svg with named groups
</metadata>
<g transform="translate(0.000000,68.000000) scale(0.100000,-0.100000)" fill="#000000" stroke="none">
<g id="part-0" class="char-part">
  <path d="M400 494 l0 -93 -56 -7 c-44 -5 -53 -9 -40 -16 10 -6 33 -7 52 -4
l34 7 0 -52 0 -52 -50 6 c-27 3 -50 4 -50 2 0 -2 9 -19 19 -37 10 -18 22 -48
26 -66 5 -24 11 -32 22 -28 8 3 42 6 75 6 51 0 59 2 56 18 -3 9 4 34 14 55 26
52 18 67 -33 67 l-42 0 6 36 c7 43 7 44 40 50 14 2 36 8 49 13 20 8 21 10 5
16 -9 4 -31 5 -47 3 -26 -4 -30 -1 -30 19 0 13 5 44 11 69 13 50 4 69 -36 77
l-25 4 0 -93z m38 -305 c-7 -5 -27 -9 -45 -9 -29 0 -33 4 -39 36 -8 43 0 52
51 56 40 3 40 3 43 -36 2 -24 -2 -42 -10 -47z"/>
  <path d="M210 527 c0 -16 64 -77 80 -77 26 0 32 26 12 50 -15 19 -92 41 -92
27z"/>
  <path d="M695 510 c-16 -4 -49 -8 -72 -9 l-41 -1 3 -57 c3 -60 -16 -250 -29
-291 -9 -28 1 -92 14 -92 13 0 39 95 42 153 1 27 4 50 7 52 3 1 32 6 64 10
l57 7 0 -73 c0 -41 -3 -85 -7 -98 -5 -21 -10 -23 -47 -17 -38 6 -40 5 -21 -9
11 -9 30 -25 43 -35 29 -26 48 -25 66 2 11 18 15 71 18 235 l3 212 -23 11
c-25 11 -33 11 -77 0z m43 -62 c3 -36 3 -36 -48 -47 -72 -16 -71 -16 -68 31 3
39 6 44 33 49 17 4 41 6 55 6 21 -2 25 -8 28 -39z m2 -104 c0 -38 -3 -40 -72
-49 l-48 -6 0 39 0 39 53 10 c28 5 55 7 60 5 4 -2 7 -19 7 -38z"/>
  <path d="M130 391 c0 -18 59 -71 79 -71 34 0 28 46 -9 65 -32 17 -70 20 -70 6z"/>
  <path d="M198 219 c-69 -71 -76 -85 -58 -120 19 -35 38 -20 89 76 75 141 69
148 -31 44z"/>
</g>
<g id="part-1" class="char-part">
  <path d="M220 521 c0 -16 59 -73 72 -69 21 7 21 46 1 56 -30 15 -73 23 -73 13z"/>
  <path d="M141 380 c9 -14 28 -33 43 -44 23 -18 28 -19 36 -6 5 8 10 18 10 22
0 11 -42 36 -75 44 -29 7 -30 7 -14 -16z"/>
  <path d="M261 283 c0 -7 -30 -41 -67 -77 -63 -63 -65 -67 -52 -92 7 -15 18
-27 23 -27 14 0 106 175 101 193 -2 8 -4 10 -5 3z"/>
</g>
<g id="part-2" class="char-part">
  <path d="M400 495 l0 -93 -62 -7 c-48 -6 -57 -10 -44 -17 10 -6 36 -7 57 -4
l39 6 0 -46 c0 -38 3 -45 17 -42 11 2 20 18 26 46 6 33 13 43 33 47 13 3 35 7
49 10 44 9 28 27 -20 23 -25 -2 -45 1 -45 6 0 5 5 38 11 73 6 35 9 66 6 69 -2
2 -18 9 -36 14 l-31 9 0 -94z"/>
</g>
<g id="part-3" class="char-part">
  <path d="M395 289 c-16 -5 -47 -7 -68 -4 l-38 5 15 -27 c7 -16 19 -47 25 -71
9 -33 16 -42 29 -38 9 3 43 6 75 8 36 2 56 7 53 14 -2 6 5 30 15 54 11 24 17
50 15 57 -6 15 -75 16 -121 2z m55 -58 c0 -38 -1 -39 -41 -46 -22 -4 -42 -5
-44 -3 -2 1 -6 19 -10 40 -8 40 -1 45 63 47 31 1 32 0 32 -38z"/>
</g>
<g id="part-4" class="char-part">
  <path d="M700 510 c-14 -4 -48 -8 -77 -9 l-52 -1 11 -30 c11 -33 -2 -208 -24
-306 -11 -53 -5 -104 12 -104 13 0 40 96 40 144 0 23 4 46 8 53 4 7 33 15 65
19 l57 7 0 -84 c0 -104 -6 -114 -56 -104 l-39 7 40 -36 c47 -41 58 -43 85 -16
19 19 21 32 20 198 -1 98 1 194 5 213 6 31 4 36 -20 47 -29 13 -39 14 -75 2z
m38 -62 c3 -36 3 -36 -48 -47 -72 -15 -71 -16 -68 31 3 46 22 58 83 55 27 -2
30 -6 33 -39z m0 -143 c-2 -1 -30 -5 -63 -9 l-61 -6 4 39 4 39 56 9 57 8 3
-39 c2 -21 2 -39 0 -41z"/>
</g>
</g>
</svg>