<?xml version="1.0" standalone="no"?>
<!DOCTYPE svg PUBLIC "-//W3C//DTD SVG 20010904//EN"
 "http://www.w3.org/TR/2001/REC-SVG-20010904/DTD/svg10.dtd">
<svg version="1.0" xmlns="http://www.w3.org/2000/svg"
 width="96.000000pt" height="68.000000pt" viewBox="0 0 96.000000 68.000000"
 preserveAspectRatio="xMidYMid meet">
<metadata>
Created by potrace 1.16, written by Peter Selinger 2001-2019
Combined from part_0.svg through part_5.svg with named groups
</metadata>
<g transform="translate(0.000000,68.000000) scale(0.100000,-0.100000)" fill="#000000" stroke="none">
<g id="part-0" class="char-part">
  <path d="M260 531 c-5 -11 -10 -25 -10 -31 0 -16 -75 -116 -101 -133 -12 -9
-19 -23 -17 -34 4 -20 26 -22 93 -8 l39 8 -52 -53 c-81 -82 -70 -97 44 -58 53
19 67 21 84 10 27 -17 30 -16 30 13 0 20 -8 29 -32 40 -37 15 -46 12 -29 -9
10 -12 6 -16 -26 -25 -43 -12 -63 -14 -63 -5 0 3 34 40 75 81 41 42 75 82 75
89 0 7 -8 18 -18 23 -16 8 -22 3 -40 -35 -21 -43 -23 -44 -68 -44 l-46 0 66
74 c36 40 66 76 66 79 0 11 -32 37 -45 37 -8 0 -19 -9 -25 -19z"/>
  <path d="M575 510 c-22 -5 -61 -11 -87 -15 -27 -3 -48 -11 -48 -17 0 -8 28 -9
93 -4 109 8 157 17 160 31 3 13 -66 16 -118 5z"/>
  <path d="M680 424 c-6 -14 -10 -29 -10 -33 0 -5 -7 -14 -15 -21 -8 -7 -15 -19
-15 -26 0 -19 102 -86 113 -75 17 17 0 37 -42 51 -23 7 -41 18 -41 25 0 6 14
26 31 43 19 19 29 38 25 47 -9 24 -36 18 -46 -11z"/>
  <path d="M554 413 c-3 -10 -13 -35 -22 -56 l-16 -39 39 -33 c36 -30 65 -36 65
-14 0 5 -18 20 -41 34 l-40 26 31 35 c17 20 29 41 27 47 -6 20 -37 20 -43 0z"/>
  <path d="M435 393 c-4 -16 -10 -35 -16 -43 -22 -36 -21 -43 19 -83 34 -34 44
-39 54 -28 13 13 10 16 -53 61 l-21 16 31 33 c36 38 41 71 11 71 -13 0 -21 -9
-25 -27z"/>
  <path d="M540 219 c-109 -15 -124 -22 -55 -29 l60 -5 3 -47 3 -46 -110 -7
c-61 -4 -109 -11 -106 -15 9 -15 53 -16 156 -4 57 7 159 13 227 14 67 0 122 4
122 8 0 4 -14 13 -30 19 -23 9 -53 9 -120 0 -49 -6 -92 -8 -95 -5 -4 3 -3 26
0 51 l7 45 59 7 c32 4 56 11 53 16 -6 11 -85 10 -174 -2z"/>
  <path d="M310 170 c24 -34 50 -40 50 -11 0 12 -11 23 -31 30 -43 15 -43 15
-19 -19z"/>
  <path d="M226 135 c17 -27 44 -34 44 -12 0 19 -21 37 -42 37 -17 0 -17 -1 -2
-25z"/>
  <path d="M107 123 c10 -28 43 -73 54 -73 14 0 11 56 -3 68 -7 5 -23 13 -35 16
-19 6 -22 4 -16 -11z"/>
</g>
<g id="part-1" class="char-part">
  <path d="M241 476 c-19 -39 -49 -80 -73 -101 -37 -31 -40 -37 -27 -50 11 -12
22 -13 45 -6 16 5 43 13 59 17 30 8 29 8 -12 13 l-43 6 65 75 c67 77 76 103
39 108 -17 2 -27 -10 -53 -62z"/>
</g>
<g id="part-2" class="char-part">
  <path d="M296 188 c26 -47 64 -64 64 -29 0 12 -11 23 -31 30 -40 14 -42 14
-33 -1z"/>
  <path d="M206 157 c27 -46 64 -62 64 -27 0 11 -1 20 -3 20 -1 0 -17 4 -35 9
-24 7 -31 7 -26 -2z"/>
  <path d="M105 128 c11 -35 46 -79 59 -75 16 5 20 36 5 53 -7 8 -26 22 -42 30
-28 15 -29 15 -22 -8z"/>
</g>
<g id="part-3" class="char-part">
  <path d="M532 504 c-104 -16 -114 -20 -77 -29 25 -7 233 11 244 20 1 2 0 8 -4
14 -8 14 -56 12 -163 -5z"/>
</g>
<g id="part-4" class="char-part">
  <path d="M434 393 c-4 -16 -13 -41 -21 -57 -15 -28 -14 -30 26 -70 33 -33 43
-38 53 -27 13 13 11 16 -53 62 l-22 15 35 40 c37 41 39 64 7 64 -12 0 -21 -9
-25 -27z"/>
</g>
<g id="part-5" class="char-part">
  <path d="M535 210 c-22 -4 -45 -5 -52 -3 -7 3 -13 0 -13 -5 0 -6 16 -9 36 -7
41 4 54 -17 49 -78 -5 -43 7 -48 23 -12 14 31 17 68 3 47 -6 -11 -9 -9 -13 6
-4 15 -2 19 9 15 11 -4 14 -1 11 8 -3 8 6 19 21 26 l26 11 -30 0 c-16 0 -48
-4 -70 -8z"/>
  <path d="M683 98 c-15 -4 -34 -6 -40 -3 -7 2 -13 1 -13 -4 0 -5 45 -8 100 -7
55 0 100 4 100 8 0 9 -8 11 -72 12 -26 1 -60 -2 -75 -6z"/>
  <path d="M580 88 c0 -4 9 -8 20 -8 11 0 20 4 20 8 0 4 -9 8 -20 8 -11 0 -20
-4 -20 -8z"/>
  <path d="M356 68 c7 -10 34 -10 34 0 0 4 -9 8 -19 8 -11 0 -17 -4 -15 -8z"/>
  <path d="M405 70 c3 -5 13 -10 21 -10 8 0 14 5 14 10 0 6 -9 10 -21 10 -11 0
-17 -4 -14 -10z"/>
</g>
</g>
</svg>