<?xml version="1.0" standalone="no"?>
<!DOCTYPE svg PUBLIC "-//W3C//DTD SVG 20010904//EN"
 "http://www.w3.org/TR/2001/REC-SVG-20010904/DTD/svg10.dtd">
<svg version="1.0" xmlns="http://www.w3.org/2000/svg"
 width="96.000000pt" height="68.000000pt" viewBox="0 0 96.000000 68.000000"
 preserveAspectRatio="xMidYMid meet">
<metadata>
Created by potrace 1.16, written by Peter Selinger 2001-2019
Combined from part_0.svg through part_5.svg with named groups
</metadata>
<g transform="translate(0.000000,68.000000) scale(0.100000,-0.100000)" fill="#000000" stroke="none">
<g id="part-0" class="char-part">
  <path d="M630 576 c-3 -3 -90 -12 -194 -21 -135 -12 -191 -14 -199 -6 -6 6
-14 11 -18 11 -13 0 -60 -94 -57 -114 5 -38 33 -29 58 17 l23 44 195 17 c106
10 196 15 200 12 3 -3 -4 -16 -16 -29 -24 -25 -30 -54 -9 -40 6 4 39 15 71 23
33 8 61 20 63 26 8 24 -99 78 -117 60z"/>
  <path d="M300 435 l-65 -13 80 0 c44 0 89 3 99 7 18 7 18 8 -5 14 -28 8 -26 8
-109 -8z"/>
  <path d="M604 413 l1 -38 -64 -8 c-50 -7 -61 -11 -47 -19 9 -5 39 -7 66 -3 48
7 48 6 55 -25 4 -17 4 -54 0 -81 l-7 -51 -37 7 -36 7 25 -27 c40 -43 57 -48
80 -25 17 17 20 33 20 114 l0 95 48 3 c58 4 58 23 0 23 -40 0 -43 2 -48 30 -4
23 -11 31 -31 33 -25 3 -26 0 -25 -35z"/>
  <path d="M315 350 c-22 -4 -67 -11 -99 -15 -65 -8 -60 -25 6 -25 37 0 37 -1
31 -32 -9 -50 -39 -103 -83 -149 -22 -23 -38 -44 -36 -46 9 -9 64 27 92 59 44
51 92 157 75 167 -9 6 -5 10 14 15 14 4 30 4 35 1 6 -4 10 -46 10 -94 0 -79 2
-91 24 -114 53 -57 234 -76 359 -37 72 22 82 35 63 77 -7 15 -18 39 -23 53
-10 24 -11 23 -23 -22 -17 -67 -56 -81 -213 -76 -150 4 -152 6 -152 128 0 94
1 95 48 91 21 -3 23 15 1 23 -20 8 -78 6 -129 -4z"/>
  <path d="M490 293 c1 -16 37 -51 56 -55 13 -2 20 4 22 19 3 21 1 22 -60 39
-10 3 -18 2 -18 -3z"/>
</g>
<g id="part-1" class="char-part">
  <path d="M480 555 c-169 -16 -250 -18 -250 -5 0 6 -4 10 -10 10 -13 0 -63
-107 -55 -120 13 -21 35 -9 55 30 11 22 24 40 28 40 4 0 93 9 197 19 105 10
192 17 194 14 3 -2 -3 -18 -14 -35 l-18 -31 24 7 c13 3 43 9 67 12 49 8 54 23
16 53 -30 24 -40 24 -234 6z"/>
</g>
<g id="part-2" class="char-part">
  <path d="M300 436 l-65 -11 65 -3 c80 -4 140 5 119 19 -17 11 -34 10 -119 -5z"/>
</g>
<g id="part-3" class="char-part">
  <path d="M360 234 c0 -91 1 -97 28 -124 34 -34 103 -50 210 -50 131 0 245 45
214 83 -7 8 -18 32 -26 53 l-13 39 -12 -41 c-19 -71 -36 -79 -176 -82 -180 -6
-210 16 -188 137 11 58 4 81 -23 81 -11 0 -14 -21 -14 -96z"/>
</g>
<g id="part-4" class="char-part">
  <path d="M490 292 c0 -17 49 -54 64 -49 32 12 12 39 -36 51 -16 3 -28 3 -28
-2z"/>
</g>
</g>
</svg>