<?xml version="1.0" standalone="no"?>
<!DOCTYPE svg PUBLIC "-//W3C//DTD SVG 20010904//EN"
 "http://www.w3.org/TR/2001/REC-SVG-20010904/DTD/svg10.dtd">
<svg version="1.0" xmlns="http://www.w3.org/2000/svg"
 width="96.000000pt" height="68.000000pt" viewBox="0 0 96.000000 68.000000"
 preserveAspectRatio="xMidYMid meet">
<metadata>
Created by potrace 1.16, written by Peter Selinger 2001-2019
Combined from part_0.svg through part_5.svg with named groups
</metadata>
<g transform="translate(0.000000,68.000000) scale(0.100000,-0.100000)" fill="#000000" stroke="none">
<g id="part-0" class="char-part">
  <path d="M260 579 c0 -37 -57 -142 -115 -212 -31 -38 -54 -71 -51 -74 6 -6 59
29 99 65 l27 26 0 -68 c0 -38 -5 -97 -12 -132 -12 -68 -2 -114 26 -114 21 0
24 14 31 172 6 104 4 147 -4 152 -19 12 -13 32 29 95 45 67 49 86 21 101 -31
16 -51 12 -51 -11z"/>
  <path d="M421 513 c0 -76 -6 -83 -68 -83 -25 0 -43 -5 -43 -11 0 -7 19 -10 51
-7 l51 3 -5 -35 c-8 -54 -45 -144 -81 -197 -53 -78 -54 -80 -26 -62 59 38 117
141 144 254 11 46 15 50 44 53 32 3 32 3 32 -42 0 -48 -25 -168 -41 -198 -5
-10 -20 -18 -33 -18 -22 0 -23 -2 -13 -25 16 -32 35 -39 62 -21 28 18 40 50
60 161 9 50 21 103 27 118 14 37 0 47 -69 47 -29 0 -53 2 -53 4 0 2 5 27 10
56 11 56 5 70 -32 70 -13 0 -16 -11 -17 -67z"/>
  <path d="M730 408 c-19 -5 -56 -8 -82 -5 -48 4 -57 0 -38 -19 5 -5 16 -54 24
-108 8 -54 17 -100 20 -103 8 -8 26 7 26 23 0 11 15 14 66 14 54 0 65 3 61 14
-7 17 21 135 36 154 7 9 5 17 -9 27 -22 17 -54 17 -104 3z m46 -23 c4 -8 1
-44 -6 -80 -12 -63 -13 -65 -47 -71 -19 -4 -38 -3 -43 2 -4 5 -10 39 -13 76
l-5 66 47 10 c25 5 50 10 54 11 4 0 10 -6 13 -14z"/>
</g>
<g id="part-1" class="char-part">
  <path d="M257 546 c-17 -51 -73 -146 -114 -191 -62 -69 -48 -75 25 -10 62 56
66 49 51 -85 -15 -128 -15 -168 -1 -182 27 -27 37 10 43 160 5 118 3 150 -8
163 -13 15 -9 26 32 89 44 69 45 73 29 91 -27 30 -39 23 -57 -35z"/>
</g>
<g id="part-2" class="char-part">
  <path d="M418 514 c4 -77 -1 -84 -65 -84 -24 0 -43 -4 -43 -9 0 -14 38 -20 70
-11 25 7 30 6 30 -10 0 -43 -44 -154 -85 -216 -25 -37 -43 -69 -40 -72 10 -10
82 69 109 118 15 27 35 82 45 122 15 59 23 74 40 76 27 4 28 22 1 22 -24 0
-23 -4 -9 61 12 56 5 69 -36 69 -18 0 -20 -5 -17 -66z"/>
</g>
<g id="part-3" class="char-part">
  <path d="M501 451 c-11 -7 -10 -11 4 -19 16 -8 17 -19 12 -78 -3 -38 -14 -94
-24 -124 -17 -51 -20 -55 -49 -55 l-31 0 21 -33 c45 -70 88 -22 121 139 13 63
26 124 30 135 5 18 1 23 -26 33 -38 13 -40 13 -58 2z"/>
</g>
<g id="part-4" class="char-part">
  <path d="M740 408 c-19 -5 -59 -8 -87 -6 -29 3 -53 4 -53 3 0 -2 6 -18 14 -36
8 -19 17 -63 21 -99 7 -67 22 -107 33 -95 4 4 7 12 7 18 0 7 16 13 35 15 62 4
101 13 96 21 -7 11 24 132 37 150 9 10 7 17 -8 27 -22 16 -45 16 -95 2z m36
-65 c-12 -103 -19 -112 -83 -113 -20 0 -23 5 -23 38 0 20 -3 54 -6 74 -6 36
-6 36 37 46 84 19 83 19 75 -45z"/>
</g>
</g>
</svg>