<?xml version="1.0" standalone="no"?>
<!DOCTYPE svg PUBLIC "-//W3C//DTD SVG 20010904//EN"
 "http://www.w3.org/TR/2001/REC-SVG-20010904/DTD/svg10.dtd">
<svg version="1.0" xmlns="http://www.w3.org/2000/svg"
 width="96.000000pt" height="68.000000pt" viewBox="0 0 96.000000 68.000000"
 preserveAspectRatio="xMidYMid meet">
<metadata>
Created by potrace 1.16, written by Peter Selinger 2001-2019
Combined from part_0.svg through part_5.svg with named groups
</metadata>
<g transform="translate(0.000000,68.000000) scale(0.100000,-0.100000)" fill="#000000" stroke="none">
<g id="part-0" class="char-part">
  <path d="M345 593 c-9 -21 -46 -69 -83 -107 -62 -63 -65 -68 -37 -62 17 4 46
17 65 30 29 19 60 24 185 35 139 11 150 11 162 -5 16 -22 18 -211 2 -283 -14
-65 -29 -78 -80 -64 -51 13 -51 1 1 -54 44 -48 67 -53 97 -20 44 48 52 80 61
248 5 90 12 171 16 179 9 21 -42 50 -89 50 -21 0 -79 -7 -130 -16 -51 -8 -104
-14 -119 -12 l-26 3 30 32 c37 39 38 60 4 73 -38 15 -42 13 -59 -27z"/>
  <path d="M335 399 c-22 -4 -57 -8 -78 -8 -35 -1 -37 -3 -27 -21 7 -13 9 -50 4
-104 -5 -61 -3 -85 6 -91 6 -4 17 -2 23 4 6 6 39 11 74 11 52 0 65 -3 75 -20
15 -24 22 -25 42 -4 23 23 23 229 0 238 -20 8 -68 6 -119 -5z m91 -42 c3 -16
2 -32 -2 -37 -5 -4 -42 -10 -81 -14 l-73 -6 0 34 c0 32 3 36 33 40 30 5 75 10
104 12 7 0 15 -13 19 -29z m-2 -107 l-6 -35 -76 0 -77 0 3 30 c2 17 5 31 7 33
6 7 140 18 147 12 4 -3 5 -21 2 -40z"/>
</g>
<g id="part-1" class="char-part">
  <path d="M350 594 c-7 -19 -39 -64 -72 -100 -64 -68 -59 -83 12 -35 37 25 53
29 118 30 41 1 78 3 82 6 4 2 37 5 74 6 49 1 71 -2 77 -12 15 -22 6 -309 -11
-342 -15 -30 -19 -30 -90 -10 -23 6 -21 2 18 -45 24 -29 49 -52 56 -52 15 0
58 45 77 80 8 15 16 82 20 175 4 83 10 164 14 181 6 28 4 32 -31 49 -38 18
-42 18 -182 -5 -78 -12 -146 -20 -149 -16 -4 3 10 23 30 44 20 21 37 41 37 45
0 6 -53 37 -64 37 -2 0 -10 -16 -16 -36z"/>
</g>
<g id="part-2" class="char-part">
  <path d="M350 404 c-30 -8 -72 -13 -93 -11 -31 2 -36 0 -30 -13 4 -8 6 -58 4
-111 -2 -78 0 -97 12 -102 9 -3 18 1 21 9 4 10 23 14 70 14 55 0 67 -3 76 -20
14 -25 36 -26 50 -1 5 11 10 67 10 126 0 104 0 106 -26 115 -29 11 -23 12 -94
-6z m64 -30 c9 -8 16 -26 16 -40 0 -22 -4 -24 -42 -24 -24 0 -60 -3 -80 -6
l-38 -7 0 36 c0 39 -5 36 90 50 14 3 28 5 32 6 4 0 14 -6 22 -15z m11 -123
c-5 -26 -11 -31 -34 -31 -16 0 -49 -3 -75 -6 l-46 -7 0 36 c0 35 1 36 43 41
117 16 123 14 112 -33z"/>
</g>
</g>
</svg>