<?xml version="1.0" standalone="no"?>
<!DOCTYPE svg PUBLIC "-//W3C//DTD SVG 20010904//EN"
 "http://www.w3.org/TR/2001/REC-SVG-20010904/DTD/svg10.dtd">
<svg version="1.0" xmlns="http://www.w3.org/2000/svg"
 width="96.000000pt" height="68.000000pt" viewBox="0 0 96.000000 68.000000"
 preserveAspectRatio="xMidYMid meet">
<metadata>
Created by potrace 1.16, written by Peter Selinger 2001-2019
Combined from part_0.svg through part_5.svg with named groups
</metadata>
<g transform="translate(0.000000,68.000000) scale(0.100000,-0.100000)" fill="#000000" stroke="none">
<g id="part-0" class="char-part">
  <path d="M606 561 c-9 -23 -22 -41 -27 -41 -5 0 -9 -4 -9 -9 0 -16 38 1 77 34
41 36 41 40 3 50 -23 5 -28 1 -44 -34z"/>
  <path d="M440 553 c1 -13 48 -63 60 -63 15 0 12 22 -6 48 -14 20 -54 31 -54
15z"/>
  <path d="M245 519 c-16 -5 -47 -7 -69 -4 -37 5 -38 5 -31 -17 9 -26 10 -55 6
-176 -4 -84 7 -116 34 -105 26 9 7 -38 -35 -89 -55 -65 -36 -61 38 9 48 44 59
60 52 73 -7 13 -3 16 25 18 18 2 36 -2 40 -8 3 -5 12 -10 20 -10 14 0 20 48
28 222 4 72 3 77 -20 87 -28 13 -47 13 -88 0z m45 -63 c0 -30 -4 -34 -31 -40
-54 -11 -59 -8 -59 28 0 37 8 44 58 45 30 1 32 -1 32 -33z m10 -91 c0 -18 -5
-25 -19 -25 -10 0 -33 -3 -50 -6 -29 -6 -31 -5 -31 25 0 31 1 31 50 31 47 0
50 -2 50 -25z m0 -85 c0 -24 -4 -30 -22 -31 -13 0 -38 -2 -55 -5 -30 -4 -33
-2 -33 24 0 38 5 42 62 42 47 0 48 -1 48 -30z"/>
  <path d="M640 494 c-30 -7 -99 -18 -153 -25 -94 -12 -115 -24 -52 -31 22 -2
31 -9 33 -25 3 -20 -1 -23 -27 -23 -17 0 -31 -4 -31 -10 0 -5 15 -10 34 -10
28 0 33 -3 29 -19 -3 -14 -18 -20 -55 -25 -61 -8 -57 -19 7 -18 41 1 45 -1 45
-23 0 -22 -4 -25 -35 -25 -19 0 -35 -4 -35 -10 0 -5 12 -10 26 -10 l25 0 -19
-27 c-26 -36 -53 -65 -87 -92 -34 -26 -26 -40 10 -17 13 9 27 16 30 16 2 0 23
19 46 43 l41 42 -7 -40 c-18 -112 -18 -124 -1 -131 9 -4 19 -5 21 -2 2 2 7 52
11 110 7 102 8 106 31 111 13 2 26 0 29 -5 3 -5 4 -55 3 -113 -2 -57 0 -107 3
-111 4 -3 14 -4 23 -1 12 5 15 25 15 107 0 55 4 100 8 100 8 0 97 -97 114
-124 9 -14 95 -13 109 1 7 7 2 13 -18 17 -37 10 -99 46 -143 85 -19 17 -38 31
-42 31 -5 0 -8 6 -8 13 0 7 13 12 32 12 27 0 33 4 40 33 8 30 12 32 51 32 57
0 81 15 45 29 -14 5 -36 7 -48 4 -18 -5 -21 -3 -16 13 11 37 -7 48 -69 40 -55
-6 -56 -6 -53 16 3 20 12 25 62 33 59 10 83 28 49 37 -10 3 -43 -1 -73 -8z
m-80 -69 c0 -20 -5 -25 -24 -25 -22 0 -36 16 -36 41 0 5 14 9 30 9 25 0 30 -4
30 -25z m110 -55 c0 -16 -7 -20 -35 -20 -28 0 -35 4 -35 20 0 16 7 20 35 20
28 0 35 -4 35 -20z m-110 -10 c0 -16 -7 -20 -30 -20 -32 0 -33 1 -24 24 9 24
54 21 54 -4z m98 -47 c-4 -22 -58 -31 -58 -10 0 20 10 27 37 27 18 0 24 -5 21
-17z m-100 -15 c-3 -25 -34 -36 -50 -20 -17 17 -1 42 27 42 22 0 26 -4 23 -22z"/>
  <path d="M287 169 c25 -43 39 -53 47 -34 3 10 -4 25 -21 41 -36 33 -48 30 -26
-7z"/>
</g>
<g id="part-1" class="char-part">
  <path d="M270 519 c-14 -4 -49 -7 -78 -8 -51 -1 -52 -2 -41 -23 8 -15 10 -53
5 -120 -6 -94 -5 -98 14 -98 13 0 20 7 20 19 0 13 10 20 31 25 58 11 79 8 79
-14 0 -13 7 -20 20 -20 18 0 20 7 20 69 0 37 3 88 6 113 6 43 5 46 -22 55 -16
5 -40 6 -54 2z m24 -35 c3 -9 6 -26 6 -39 0 -20 -7 -25 -47 -34 -56 -12 -66
-5 -61 40 2 29 8 35 33 40 50 11 63 10 69 -7z m6 -119 l0 -35 -55 0 c-54 0
-55 0 -55 29 0 26 4 30 33 34 78 9 77 10 77 -28z"/>
</g>
<g id="part-2" class="char-part">
  <path d="M187 185 c-9 -19 -33 -52 -53 -75 -55 -60 -26 -48 51 22 62 57 66 63
49 75 -25 18 -28 17 -47 -22z"/>
  <path d="M287 165 c18 -39 39 -51 47 -29 6 16 -35 64 -53 64 -6 0 -4 -15 6
-35z"/>
</g>
<g id="part-3" class="char-part">
  <path d="M620 591 c0 -4 -11 -25 -25 -46 -15 -20 -24 -39 -22 -41 2 -2 29 13
62 33 53 33 56 37 39 50 -20 15 -54 18 -54 4z"/>
  <path d="M440 555 c0 -14 45 -65 57 -65 19 0 16 34 -5 53 -17 16 -52 23 -52
12z"/>
  <path d="M648 495 c-2 -3 -59 -12 -126 -21 -146 -20 -166 -40 -29 -30 129 11
230 29 235 44 2 8 -9 12 -35 12 -22 0 -42 -2 -45 -5z"/>
</g>
<g id="part-4" class="char-part">
  <path d="M560 425 c0 -20 -5 -25 -26 -25 -17 0 -28 6 -31 20 -3 11 -13 20 -23
20 -13 0 -16 -6 -12 -25 4 -21 0 -25 -19 -25 -13 0 -31 -5 -39 -10 -11 -7 -5
-10 23 -10 29 0 37 -4 37 -19 0 -15 -10 -20 -52 -26 -40 -5 -48 -9 -33 -15 11
-4 36 -5 56 -2 35 4 36 3 32 -22 -5 -23 -10 -26 -45 -26 -26 0 -37 -4 -32 -11
3 -6 22 -9 41 -7 l35 4 -5 -60 c-4 -34 -9 -80 -13 -103 -5 -35 -3 -44 10 -49
9 -4 19 -5 21 -2 2 2 7 52 11 110 6 97 9 107 28 112 12 3 25 6 29 6 5 0 8 -48
7 -107 -2 -140 -3 -133 20 -133 19 0 20 7 20 120 0 107 2 120 18 121 9 1 22 2
27 4 6 1 17 3 26 3 10 1 19 14 23 32 5 26 10 30 38 31 18 1 44 4 58 8 34 9 9
25 -37 23 -29 -1 -33 1 -28 18 9 28 -27 43 -81 35 -40 -6 -44 -4 -44 14 0 14
-6 21 -20 21 -15 0 -20 -7 -20 -25z m110 -55 c0 -16 -7 -20 -35 -20 -28 0 -35
4 -35 20 0 16 7 20 35 20 28 0 35 -4 35 -20z m-110 -10 c0 -14 -7 -20 -24 -20
-23 0 -41 22 -29 34 4 3 17 6 30 6 16 0 23 -6 23 -20z m100 -50 c0 -11 -6 -20
-14 -20 -8 0 -21 -3 -30 -6 -12 -5 -16 0 -16 20 0 22 4 26 30 26 23 0 30 -4
30 -20z m-102 -12 c-2 -17 -11 -24 -30 -26 -24 -3 -28 0 -28 22 0 22 4 26 31
26 26 0 30 -3 27 -22z"/>
</g>
<g id="part-5" class="char-part">
  <path d="M650 205 c67 -76 114 -119 118 -107 2 6 10 8 18 5 8 -3 22 -2 32 2
14 5 11 9 -17 21 -19 8 -41 12 -48 9 -8 -2 -12 -1 -9 4 5 8 -23 25 -33 21 -1
-1 -24 17 -49 41 l-47 44 35 -40z"/>
  <path d="M396 164 c-33 -36 -49 -60 -38 -53 12 8 22 17 22 21 0 5 7 8 15 8 8
0 15 7 15 16 0 8 4 13 9 10 10 -6 35 20 44 47 11 31 -7 18 -67 -49z"/>
</g>
</g>
</svg>