<?xml version="1.0" standalone="no"?>
<!DOCTYPE svg PUBLIC "-//W3C//DTD SVG 20010904//EN"
 "http://www.w3.org/TR/2001/REC-SVG-20010904/DTD/svg10.dtd">
<svg version="1.0" xmlns="http://www.w3.org/2000/svg"
 width="96.000000pt" height="68.000000pt" viewBox="0 0 96.000000 68.000000"
 preserveAspectRatio="xMidYMid meet">
<metadata>
Created by potrace 1.16, written by Peter Selinger 2001-2019
Combined from part_0.svg through part_5.svg with named groups
</metadata>
<g transform="translate(0.000000,68.000000) scale(0.100000,-0.100000)" fill="#000000" stroke="none">
<g id="part-0" class="char-part">
  <path d="M364 479 c2 -56 7 -75 21 -85 25 -19 129 -18 144 0 18 21 -19 30 -68
15 -47 -14 -71 -7 -71 21 0 22 5 25 63 35 24 4 37 11 34 18 -3 7 -10 11 -18 9
-69 -17 -69 -17 -69 22 0 29 -4 36 -19 36 -18 0 -19 -7 -17 -71z"/>
  <path d="M660 500 c-14 -4 -42 -8 -62 -9 -21 -1 -38 -5 -38 -11 0 -12 32 -12
85 0 22 5 43 6 47 2 4 -4 -6 -25 -23 -45 -23 -28 -36 -36 -50 -32 -25 8 -24
-3 3 -32 12 -13 19 -25 17 -27 -3 -3 -26 -6 -52 -7 -27 -2 -51 -7 -54 -12 -3
-5 15 -7 39 -6 24 2 49 -1 56 -5 8 -4 12 -34 12 -83 l0 -75 -22 15 c-16 10
-22 23 -20 40 2 18 -4 29 -17 36 -28 15 -31 14 -31 -11 0 -29 -42 -119 -63
-137 -18 -14 -22 -31 -9 -31 11 0 78 64 90 87 9 14 19 10 80 -35 62 -47 75
-52 120 -52 90 0 113 23 35 35 -27 3 -65 11 -85 17 -36 11 -38 13 -38 53 l0
43 45 6 c25 4 45 11 45 17 0 5 -20 9 -45 9 l-45 0 0 45 c0 45 0 45 35 45 28 0
35 -4 35 -20 0 -23 -2 -23 39 -9 61 21 6 63 -70 53 -42 -6 -47 -4 -52 17 -7
25 5 37 66 69 42 23 46 35 18 50 -22 11 -55 12 -91 0z"/>
  <path d="M220 465 c-30 -7 -68 -14 -83 -14 -39 -1 -24 -20 23 -27 37 -6 38 -7
29 -37 -8 -29 -49 -94 -99 -159 -27 -35 -11 -36 28 -3 17 14 32 25 35 25 2 0
10 -21 16 -46 l12 -46 52 7 c65 9 62 7 65 45 1 18 7 40 12 50 13 25 -16 34
-81 25 -27 -4 -49 -4 -49 -1 0 3 16 28 34 54 19 26 39 60 45 74 7 19 19 28 38
30 36 4 38 32 3 34 -14 1 -50 -4 -80 -11z m43 -202 c3 -5 2 -22 0 -40 -4 -23
-12 -33 -30 -38 -32 -8 -33 -6 -40 44 l-6 41 36 0 c20 0 38 -3 40 -7z"/>
  <path d="M368 322 c-12 -26 -24 -51 -26 -56 -3 -5 9 0 26 10 35 20 41 18 47
-19 5 -26 -13 -37 -62 -37 -12 0 -25 -5 -29 -11 -5 -8 6 -10 35 -7 34 3 41 0
41 -14 0 -22 -64 -86 -104 -104 -30 -13 -30 -13 -6 -14 34 0 103 45 125 82
l17 30 22 -21 c26 -24 46 -27 46 -7 0 7 -13 19 -30 26 -43 18 -38 38 10 42 22
2 39 7 38 13 -2 5 -18 8 -35 6 -27 -2 -32 0 -27 14 4 10 1 21 -6 25 -9 6 -2
11 23 15 61 12 44 28 -20 20 -47 -5 -56 -4 -45 6 16 18 15 36 -3 43 -12 4 -22
-7 -37 -42z"/>
</g>
<g id="part-1" class="char-part">
  <path d="M193 456 c-75 -13 -91 -26 -35 -26 33 0 42 -4 42 -17 -1 -30 -35 -95
-79 -151 -24 -30 -40 -56 -37 -59 9 -10 103 95 135 151 18 31 29 61 25 70 -5
12 0 16 17 16 34 0 69 11 69 21 0 12 -59 10 -137 -5z"/>
</g>
<g id="part-2" class="char-part">
  <path d="M245 290 c-11 -5 -34 -9 -52 -9 -39 -1 -43 -12 -24 -78 11 -41 18
-52 30 -48 8 3 35 9 59 12 30 4 42 10 38 19 -3 8 1 32 9 54 14 40 14 41 -11
50 -14 6 -26 10 -27 9 -1 0 -11 -4 -22 -9z m18 -57 c-7 -46 -3 -40 -34 -48
-24 -6 -27 -3 -33 29 -9 47 -2 56 39 56 33 0 34 0 28 -37z"/>
</g>
<g id="part-3" class="char-part">
  <path d="M360 480 c0 -63 2 -71 25 -86 19 -12 41 -15 85 -12 33 2 63 8 67 12
14 14 -22 26 -57 19 -69 -13 -85 -10 -85 17 0 22 5 26 48 32 27 4 52 9 55 13
13 13 -22 22 -52 14 -45 -13 -46 -12 -46 26 0 28 -4 35 -20 35 -18 0 -20 -7
-20 -70z"/>
</g>
<g id="part-4" class="char-part">
  <path d="M419 282 c-1 -4 0 -17 1 -29 1 -18 -5 -23 -37 -28 -62 -10 -71 -19
-25 -23 25 -2 42 -8 42 -16 0 -18 -58 -75 -99 -96 -31 -16 -33 -19 -13 -20 35
0 76 25 114 70 35 40 35 40 53 20 22 -24 45 -26 45 -4 0 8 -14 20 -30 26 -40
13 -33 31 13 39 65 10 60 24 -6 19 -25 -1 -28 1 -23 18 5 14 1 21 -14 25 -11
3 -20 2 -21 -1z"/>
</g>
<g id="part-5" class="char-part">
  <path d="M552 243 c4 -17 -14 -103 -20 -99 -4 2 -15 -9 -24 -25 -23 -40 -9
-36 27 7 17 20 35 42 42 49 7 7 9 15 6 19 -3 3 0 12 6 20 10 12 8 17 -8 25
-23 13 -32 14 -29 4z"/>
  <path d="M605 160 c3 -5 8 -10 11 -10 2 0 4 5 4 10 0 6 -5 10 -11 10 -5 0 -7
-4 -4 -10z"/>
  <path d="M655 126 c17 -15 44 -34 62 -42 39 -17 97 -19 87 -3 -4 8 1 9 17 4
13 -4 21 -4 17 0 -4 5 -27 11 -50 15 -24 4 -52 11 -63 16 -18 7 -19 6 -5 -11
14 -17 14 -17 -7 -5 -12 8 -20 17 -17 21 2 4 -4 9 -14 12 -9 2 -26 8 -37 12
-14 5 -11 0 10 -19z"/>
</g>
</g>
</svg>