<?xml version="1.0" standalone="no"?>
<!DOCTYPE svg PUBLIC "-//W3C//DTD SVG 20010904//EN"
 "http://www.w3.org/TR/2001/REC-SVG-20010904/DTD/svg10.dtd">
<svg version="1.0" xmlns="http://www.w3.org/2000/svg"
 width="96.000000pt" height="68.000000pt" viewBox="0 0 96.000000 68.000000"
 preserveAspectRatio="xMidYMid meet">
<metadata>
Created by potrace 1.16, written by Peter Selinger 2001-2019
Combined from part_0.svg through part_5.svg with named groups
</metadata>
<g transform="translate(0.000000,68.000000) scale(0.100000,-0.100000)" fill="#000000" stroke="none">
<g id="part-0" class="char-part">
  <path d="M489 556 l21 -34 -22 -5 c-13 -3 -59 -9 -103 -12 -97 -9 -118 -17
-85 -35 21 -11 22 -16 17 -85 -4 -40 -17 -102 -30 -138 -24 -66 -108 -194
-133 -204 -8 -3 -11 -9 -8 -14 15 -25 126 76 163 149 23 44 57 170 67 242 l6
47 61 7 c33 3 62 4 65 2 2 -3 7 -25 9 -49 l5 -45 -71 -7 c-45 -4 -69 -11 -65
-17 4 -7 31 -8 70 -5 70 7 79 1 69 -43 -6 -27 -11 -30 -56 -36 -28 -4 -47 -10
-42 -14 10 -10 273 10 273 21 0 14 -35 20 -87 13 l-53 -6 2 39 1 40 80 6 c80
7 96 11 83 24 -8 9 -93 9 -128 0 -25 -7 -27 -5 -30 30 -2 30 -8 38 -28 44 -21
5 -18 7 20 12 25 3 78 9 119 12 41 3 77 8 80 11 3 3 -3 12 -14 20 -16 12 -37
14 -97 9 -67 -6 -78 -5 -78 9 0 18 -49 46 -80 46 l-22 0 21 -34z"/>
  <path d="M166 432 c-8 -13 48 -92 65 -92 42 0 30 62 -16 84 -38 18 -42 19 -49
8z"/>
  <path d="M205 279 c-38 -15 -79 -30 -90 -33 -20 -5 -20 -6 2 -27 19 -19 25
-21 50 -10 31 13 121 87 113 93 -3 3 -36 -8 -75 -23z"/>
  <path d="M710 219 c23 -21 98 -69 110 -69 5 0 10 8 10 19 0 25 -38 49 -92 57
-37 6 -41 5 -28 -7z"/>
  <path d="M520 212 c0 -13 49 -52 65 -52 26 0 17 40 -11 50 -31 12 -54 13 -54
2z"/>
  <path d="M343 155 c-28 -54 -29 -78 -6 -73 25 5 56 64 49 93 -9 35 -18 31 -43
-20z"/>
  <path d="M434 163 c15 -40 52 -82 86 -98 51 -25 194 -32 243 -12 20 9 37 22
37 29 0 11 -97 68 -116 68 -3 0 1 -11 10 -25 15 -23 15 -25 -3 -35 -33 -17
-121 -12 -166 10 -22 11 -48 33 -58 50 -19 32 -44 42 -33 13z"/>
</g>
<g id="part-1" class="char-part">
  <path d="M480 581 c0 -4 10 -20 21 -35 12 -15 20 -28 18 -30 -2 -2 -53 -9
-114 -15 -60 -7 -112 -14 -114 -16 -2 -3 4 -7 13 -11 12 -5 16 -20 16 -71 0
-119 -47 -235 -135 -332 -60 -66 -17 -47 51 22 70 72 95 127 125 276 11 52 21
96 22 98 7 6 149 22 260 28 64 4 117 11 117 15 0 20 -57 30 -115 20 -81 -13
-85 -13 -85 9 0 11 -10 27 -22 35 -24 17 -58 21 -58 7z"/>
  <path d="M170 426 c0 -20 46 -76 61 -76 32 0 25 47 -11 65 -28 15 -50 19 -50
11z"/>
  <path d="M220 280 c-19 -10 -52 -22 -72 -25 -44 -8 -51 -31 -13 -41 19 -5 36
1 63 20 59 42 72 53 72 60 0 10 -13 6 -50 -14z"/>
</g>
<g id="part-2" class="char-part">
  <path d="M514 428 l1 -42 -70 -11 c-83 -14 -67 -31 20 -22 47 5 55 3 60 -14
15 -46 -16 -68 -94 -69 -22 -1 -23 -2 -9 -11 19 -10 278 10 278 22 0 14 -36
20 -88 13 l-53 -6 3 38 3 39 79 7 c98 9 108 13 72 27 -21 8 -44 9 -84 1 -31
-5 -57 -10 -58 -10 -2 0 -4 17 -6 38 -3 31 -7 37 -29 40 -24 3 -26 1 -25 -40z"/>
</g>
<g id="part-3" class="char-part">
  <path d="M710 224 c0 -11 92 -74 108 -74 21 0 13 39 -10 54 -28 18 -98 32 -98
20z"/>
  <path d="M520 216 c0 -13 49 -56 64 -56 27 0 19 39 -10 50 -27 10 -54 13 -54
6z"/>
  <path d="M360 190 c0 -6 -9 -24 -21 -39 -24 -32 -22 -64 4 -69 22 -4 51 60 43
94 -6 24 -26 34 -26 14z"/>
  <path d="M430 173 c0 -3 11 -25 25 -48 32 -56 77 -76 179 -82 133 -8 205 30
129 68 -17 9 -43 23 -57 33 -30 19 -32 15 -10 -20 9 -13 14 -28 10 -31 -3 -4
-33 -9 -67 -11 -80 -6 -141 17 -168 64 -18 30 -41 46 -41 27z"/>
</g>
</g>
</svg>