<?xml version="1.0" standalone="no"?>
<!DOCTYPE svg PUBLIC "-//W3C//DTD SVG 20010904//EN"
 "http://www.w3.org/TR/2001/REC-SVG-20010904/DTD/svg10.dtd">
<svg version="1.0" xmlns="http://www.w3.org/2000/svg"
 width="96.000000pt" height="68.000000pt" viewBox="0 0 96.000000 68.000000"
 preserveAspectRatio="xMidYMid meet">
<metadata>
Created by potrace 1.16, written by Peter Selinger 2001-2019
Combined from part_0.svg through part_5.svg with named groups
</metadata>
<g transform="translate(0.000000,68.000000) scale(0.100000,-0.100000)" fill="#000000" stroke="none">
<g id="part-0" class="char-part">
  <path d="M405 633 c4 -10 9 -34 12 -55 6 -44 -3 -50 -100 -68 -88 -16 -76 -35
15 -26 84 9 83 10 86 -13 4 -22 -1 -24 -103 -39 -60 -9 -60 -9 -30 -21 19 -8
50 -11 83 -7 l52 6 0 -29 c0 -29 -1 -29 -67 -35 -38 -3 -88 -7 -113 -8 -53 -2
-67 -7 -49 -19 18 -11 103 -11 152 0 51 12 56 -2 14 -42 -64 -60 -109 -92
-191 -136 -47 -25 -54 -31 -33 -31 36 0 168 70 223 119 70 62 72 59 54 -72
-11 -80 -2 -127 24 -127 23 0 33 56 28 163 -2 53 -2 97 1 97 4 0 28 -23 54
-52 26 -28 70 -68 96 -90 46 -36 52 -38 115 -37 37 1 81 4 97 8 27 6 24 8 -45
30 -41 13 -98 34 -127 48 -63 29 -186 117 -176 126 3 4 60 7 125 7 74 0 118 4
118 10 0 22 -54 30 -158 24 l-105 -7 6 24 c4 13 7 27 7 32 0 4 34 7 75 7 41 0
75 4 75 8 0 5 -8 16 -19 26 -14 13 -29 15 -75 10 -55 -7 -56 -6 -56 19 0 24 5
26 80 43 72 15 78 18 69 35 -16 30 -56 34 -105 11 l-43 -21 6 34 c7 43 -10 65
-49 65 -25 0 -29 -3 -23 -17z"/>
</g>
<g id="part-1" class="char-part">
  <path d="M406 642 c-2 -4 -1 -14 5 -22 5 -8 9 -32 9 -52 0 -40 0 -40 -115 -68
-33 -8 -27 -9 38 -5 l77 5 0 -30 c0 -28 -1 -29 -70 -36 -38 -3 -70 -11 -70
-15 0 -5 32 -9 70 -9 40 0 70 -4 70 -10 0 -5 9 -10 20 -10 11 0 20 7 20 15 0
11 12 15 43 16 23 0 60 3 82 8 39 7 39 7 17 20 -14 7 -47 11 -80 9 -55 -3 -57
-2 -60 24 -3 29 -4 29 91 49 32 7 60 16 63 20 2 5 -7 16 -21 25 -25 16 -28 16
-71 -4 -24 -12 -47 -22 -50 -22 -3 0 -3 17 1 38 5 34 4 39 -20 50 -30 14 -42
15 -49 4z"/>
</g>
<g id="part-2" class="char-part">
  <path d="M420 371 c0 -15 -11 -19 -61 -25 -34 -3 -88 -6 -120 -6 -61 0 -79
-15 -33 -26 14 -4 62 -3 107 1 77 6 80 6 66 -11 -41 -52 -119 -110 -224 -167
-57 -31 -64 -37 -35 -31 86 16 186 72 273 152 l27 26 0 -33 c0 -18 -5 -63 -10
-100 -12 -73 -2 -121 24 -121 24 0 34 58 29 166 l-5 99 78 -76 c109 -105 116
-109 194 -108 36 1 79 4 95 8 27 6 18 11 -75 41 -102 34 -220 101 -264 149
l-19 21 126 0 c80 0 127 4 127 10 0 22 -54 30 -156 24 -93 -6 -104 -5 -104 10
0 9 -8 16 -20 16 -13 0 -20 -7 -20 -19z"/>
</g>
</g>
</svg>