<?xml version="1.0" standalone="no"?>
<!DOCTYPE svg PUBLIC "-//W3C//DTD SVG 20010904//EN"
 "http://www.w3.org/TR/2001/REC-SVG-20010904/DTD/svg10.dtd">
<svg version="1.0" xmlns="http://www.w3.org/2000/svg"
 width="96.000000pt" height="68.000000pt" viewBox="0 0 96.000000 68.000000"
 preserveAspectRatio="xMidYMid meet">
<metadata>
Created by potrace 1.16, written by Peter Selinger 2001-2019
Combined from part_0.svg through part_5.svg with named groups
</metadata>
<g transform="translate(0.000000,68.000000) scale(0.100000,-0.100000)" fill="#000000" stroke="none">
<g id="part-0" class="char-part">
  <path d="M290 549 c-14 -6 -47 -9 -75 -8 -39 2 -49 -1 -46 -12 11 -35 12 -196
1 -257 -6 -37 -24 -91 -41 -121 -17 -29 -28 -55 -26 -58 3 -2 21 10 41 27 23
21 43 52 57 91 18 48 24 57 35 48 15 -12 33 -3 67 36 18 20 18 18 14 -63 -3
-46 -8 -86 -11 -89 -3 -4 -17 0 -31 7 -41 22 -40 3 2 -40 74 -76 93 -39 93
183 0 89 4 176 9 193 10 35 6 46 -26 63 -25 13 -30 13 -63 0z m24 -45 c3 -9 6
-34 6 -55 0 -34 -3 -40 -17 -36 -10 3 -31 8 -46 11 -25 6 -28 10 -25 43 2 30
8 39 28 44 40 11 47 10 54 -7z m-20 -134 c39 0 31 -30 -14 -52 -45 -22 -64
-23 -56 -2 3 9 6 32 6 51 0 34 1 35 18 20 10 -10 31 -17 46 -17z"/>
  <path d="M705 524 c-6 -1 -64 -10 -130 -20 -145 -21 -175 -33 -82 -34 50 0 67
-3 67 -14 0 -21 -96 -139 -135 -165 -19 -13 -35 -28 -35 -33 0 -12 109 62 141
96 13 14 28 26 33 26 5 0 6 -29 1 -67 -9 -93 -10 -115 -1 -134 6 -14 -5 -17
-80 -23 -87 -6 -103 -10 -91 -22 12 -12 447 4 447 17 0 4 -15 13 -34 19 -31
10 -80 8 -174 -6 l-33 -5 3 93 c2 75 6 93 18 93 8 0 21 -5 27 -12 27 -25 132
-83 152 -83 29 0 28 34 -1 55 -21 14 -81 34 -149 49 -41 9 -60 45 -46 89 11
33 16 37 60 47 26 5 56 10 67 10 28 0 33 17 7 22 -13 2 -27 3 -32 2z"/>
</g>
<g id="part-1" class="char-part">
  <path d="M275 539 c-16 -5 -46 -7 -65 -4 l-35 6 3 -130 c4 -144 -9 -210 -52
-274 -29 -43 -21 -48 18 -12 29 26 65 98 66 128 0 14 5 16 26 11 19 -5 32 0
55 22 l29 28 0 -82 c0 -91 -6 -100 -56 -82 -28 11 -27 9 13 -31 45 -45 67 -47
82 -6 5 13 11 113 12 221 2 163 0 199 -12 207 -17 11 -44 10 -84 -2z m45 -77
l0 -58 -45 10 c-45 10 -45 11 -45 52 0 46 7 52 58 53 l32 1 0 -58z m-64 -77
c10 -8 29 -15 42 -15 35 0 28 -35 -12 -54 -57 -27 -66 -23 -66 34 0 53 5 58
36 35z"/>
</g>
<g id="part-2" class="char-part">
  <path d="M572 505 c-73 -12 -136 -25 -139 -29 -23 -22 297 12 322 35 5 6 3 9
-7 9 -9 0 -22 2 -30 4 -7 2 -73 -7 -146 -19z"/>
</g>
<g id="part-3" class="char-part">
  <path d="M556 444 c-4 -14 -43 -62 -86 -106 -44 -43 -80 -81 -80 -83 0 -9 90
49 130 85 l45 39 3 -26 c2 -15 -1 -54 -8 -86 -10 -50 -9 -62 5 -83 25 -38 35
-20 35 64 0 111 4 113 90 58 40 -26 85 -50 101 -53 25 -5 29 -2 29 16 0 36
-47 58 -185 86 -11 3 -26 17 -32 32 -11 22 -10 31 2 50 20 31 19 33 -14 33
-23 0 -30 -5 -35 -26z"/>
</g>
<g id="part-4" class="char-part">
  <path d="M680 170 c-75 -8 -238 -19 -275 -20 -32 0 -2 -21 31 -21 102 0 404
15 404 21 0 6 -72 32 -81 29 -2 -1 -38 -5 -79 -9z"/>
</g>
</g>
</svg>