<?xml version="1.0" standalone="no"?>
<!DOCTYPE svg PUBLIC "-//W3C//DTD SVG 20010904//EN"
 "http://www.w3.org/TR/2001/REC-SVG-20010904/DTD/svg10.dtd">
<svg version="1.0" xmlns="http://www.w3.org/2000/svg"
 width="96.000000pt" height="68.000000pt" viewBox="0 0 96.000000 68.000000"
 preserveAspectRatio="xMidYMid meet">
<metadata>
Created by potrace 1.16, written by Peter Selinger 2001-2019
Combined from part_0.svg through part_5.svg with named groups
</metadata>
<g transform="translate(0.000000,68.000000) scale(0.100000,-0.100000)" fill="#000000" stroke="none">
<g id="part-0" class="char-part">
  <path d="M537 643 c-4 -3 -7 -20 -7 -38 0 -37 -15 -55 -48 -55 -30 0 -24 -24
6 -28 18 -3 21 -8 16 -28 -8 -33 11 -31 37 6 20 26 30 30 91 36 46 4 68 11 68
20 0 16 -60 29 -89 19 -18 -6 -20 -3 -15 22 5 24 1 31 -21 41 -30 14 -30 14
-38 5z"/>
  <path d="M250 615 c0 -3 7 -19 15 -36 9 -16 13 -34 10 -39 -3 -6 -31 -10 -61
-10 -59 0 -68 -11 -30 -35 20 -13 32 -14 61 -6 41 11 65 6 65 -15 0 -8 7 -14
15 -14 10 0 15 10 15 29 0 25 5 30 35 35 46 9 45 24 -2 28 -33 3 -39 7 -43 33
-4 26 -10 30 -43 33 -20 2 -37 0 -37 -3z"/>
  <path d="M385 463 c16 -38 11 -58 -15 -61 -82 -8 -110 -14 -110 -24 0 -7 23
-8 70 -4 l70 7 0 -43 c0 -24 -7 -71 -15 -103 -20 -76 -66 -125 -157 -167 -37
-18 -66 -33 -65 -34 2 -2 25 3 52 10 99 26 163 72 199 144 l17 32 42 -48 c65
-74 137 -131 175 -138 18 -4 61 -2 95 2 l62 9 -80 28 c-141 48 -268 127 -281
175 -3 12 -2 48 2 80 l9 57 74 7 c41 4 76 10 78 12 3 2 -5 9 -16 16 -15 7 -37
8 -74 1 -59 -10 -70 -7 -62 19 7 21 -20 40 -55 40 -17 0 -20 -4 -15 -17z"/>
  <path d="M541 335 c-7 -19 -24 -49 -38 -65 -33 -40 -23 -50 17 -16 39 32 44
32 78 1 28 -26 60 -41 69 -31 3 3 3 16 -1 30 -5 19 -15 27 -41 32 -34 6 -46
26 -24 39 12 8 -17 45 -36 45 -6 0 -17 -16 -24 -35z"/>
  <path d="M250 324 c-6 -14 -10 -28 -10 -32 0 -3 -19 -26 -42 -49 -23 -24 -38
-43 -32 -43 10 0 51 26 72 47 20 19 36 16 62 -12 28 -30 50 -32 50 -5 0 13
-12 26 -35 37 -33 16 -34 17 -18 36 17 18 17 20 -2 33 -27 20 -34 18 -45 -12z"/>
</g>
<g id="part-1" class="char-part">
  <path d="M536 595 c-6 -38 -11 -45 -29 -45 -12 0 -29 -5 -37 -10 -12 -7 -8
-10 14 -10 26 0 28 -2 23 -30 -9 -40 6 -38 33 5 20 32 26 35 68 35 26 0 57 3
69 6 39 11 14 24 -43 24 -53 0 -54 1 -43 22 10 18 8 24 -7 35 -30 22 -41 15
-48 -32z"/>
  <path d="M260 608 c1 -7 7 -24 15 -38 8 -14 14 -28 15 -32 0 -4 -30 -8 -67
-10 -65 -3 -66 -3 -48 -22 19 -18 63 -19 107 -1 13 5 20 0 28 -19 13 -35 30
-33 30 3 0 29 14 41 51 41 11 0 17 5 14 10 -4 6 -21 8 -41 4 -33 -6 -34 -5
-34 25 0 20 -7 34 -19 41 -27 14 -51 13 -51 -2z"/>
</g>
<g id="part-2" class="char-part">
  <path d="M386 458 c14 -46 11 -53 -31 -56 -72 -4 -106 -13 -99 -24 5 -7 31 -8
77 -4 l70 6 -6 -62 c-12 -136 -46 -187 -163 -245 -41 -20 -73 -37 -71 -39 7
-7 93 19 136 41 50 25 90 66 117 117 l15 29 37 -45 c41 -50 116 -117 149 -134
24 -13 88 -15 148 -3 l40 7 -55 21 c-30 11 -66 24 -80 28 -52 16 -137 65 -184
106 l-49 43 7 65 c3 35 11 68 17 71 6 4 40 10 76 13 36 4 68 9 71 12 17 17
-47 23 -133 13 -16 -3 -19 2 -17 23 2 20 -3 28 -20 33 -46 12 -60 8 -52 -16z"/>
</g>
<g id="part-3" class="char-part">
  <path d="M249 323 c-6 -16 -28 -49 -50 -75 -46 -55 -40 -61 20 -18 43 31 50
31 88 -3 12 -10 26 -16 32 -12 21 12 11 36 -24 52 -33 16 -34 18 -19 35 14 14
14 20 4 33 -19 23 -39 18 -51 -12z"/>
</g>
<g id="part-4" class="char-part">
  <path d="M541 333 c-7 -21 -27 -53 -44 -70 -37 -39 -20 -44 27 -8 18 14 36 25
41 25 4 0 23 -13 42 -30 37 -33 58 -38 66 -16 5 13 -21 46 -36 46 -3 0 -18 5
-33 10 -26 10 -26 11 -9 30 20 22 14 34 -20 44 -17 5 -23 -1 -34 -31z"/>
</g>
</g>
</svg>