<?xml version="1.0" standalone="no"?>
<!DOCTYPE svg PUBLIC "-//W3C//DTD SVG 20010904//EN"
 "http://www.w3.org/TR/2001/REC-SVG-20010904/DTD/svg10.dtd">
<svg version="1.0" xmlns="http://www.w3.org/2000/svg"
 width="96.000000pt" height="68.000000pt" viewBox="0 0 96.000000 68.000000"
 preserveAspectRatio="xMidYMid meet">
<metadata>
Created by potrace 1.16, written by Peter Selinger 2001-2019
Combined from part_0.svg through part_5.svg with named groups
</metadata>
<g transform="translate(0.000000,68.000000) scale(0.100000,-0.100000)" fill="#000000" stroke="none">
<g id="part-0" class="char-part">
  <path d="M244 508 l1 -93 -62 -9 c-35 -5 -63 -13 -63 -17 0 -14 47 -22 85 -15
19 4 35 4 35 0 0 -20 -69 -110 -113 -149 -28 -24 -48 -47 -44 -51 11 -11 91
42 132 87 l38 43 -6 -55 c-19 -165 -19 -174 -4 -194 22 -28 47 -4 47 45 0 20
3 65 6 98 6 55 9 60 25 52 27 -15 39 -12 39 8 0 23 -19 42 -42 42 -15 0 -18 8
-16 44 1 42 3 45 34 51 18 3 36 10 39 15 8 13 -40 31 -61 23 -14 -5 -15 3 -9
70 7 69 6 76 -13 86 -46 24 -50 17 -48 -81z"/>
  <path d="M655 519 c-16 -5 -77 -12 -135 -15 l-105 -7 0 -81 0 -81 -38 -3 c-32
-3 -36 -6 -26 -18 6 -8 24 -14 40 -14 34 0 35 -7 14 -99 -16 -68 -13 -101 10
-101 17 0 21 16 32 130 8 82 9 85 34 88 24 3 27 -1 32 -38 3 -23 3 -66 0 -96
-5 -44 -3 -55 11 -60 9 -4 19 -4 22 -1 3 3 6 49 7 104 l2 98 29 3 28 4 -3 -89
c-1 -48 1 -97 6 -107 8 -18 9 -18 22 0 9 12 13 49 13 111 l0 93 35 0 36 0 -3
-112 -3 -113 -29 2 -30 2 37 -37 c35 -35 38 -36 54 -19 15 15 18 39 20 145 l2
127 46 3 c68 5 54 32 -17 32 l-31 0 6 70 c5 62 4 71 -13 80 -22 12 -64 12
-105 -1z m-61 -25 c12 -5 16 -21 16 -69 0 -64 -7 -75 -47 -75 -25 0 -12 147
14 150 1 0 8 -3 17 -6z m126 -64 l0 -70 -34 0 -34 0 -4 70 -3 70 38 0 37 0 0
-70z m-216 44 c16 -16 22 -87 10 -118 -4 -10 -18 -16 -36 -16 l-30 0 7 68 c4
37 12 70 19 74 14 10 12 10 30 -8z"/>
</g>
<g id="part-1" class="char-part">
  <path d="M247 568 c4 -18 8 -60 8 -93 l0 -60 -63 -11 c-85 -15 -89 -24 -8 -24
l67 0 -17 -32 c-9 -18 -46 -63 -82 -100 -36 -38 -61 -68 -56 -68 18 0 99 61
130 97 l31 37 -4 -54 c-2 -30 -9 -79 -13 -108 -9 -52 -2 -94 19 -106 20 -13
31 34 31 128 0 94 4 108 27 85 7 -7 20 -8 30 -5 17 7 16 9 -6 27 -13 10 -30
19 -38 19 -11 0 -13 11 -11 43 3 38 6 43 38 53 49 16 53 38 5 32 l-38 -4 7 74
c5 64 3 77 -12 88 -9 7 -25 14 -35 14 -16 0 -17 -5 -10 -32z"/>
</g>
<g id="part-2" class="char-part">
  <path d="M620 515 c-36 -7 -97 -13 -135 -14 l-70 -1 3 -111 c3 -81 0 -130 -13
-180 -9 -38 -13 -78 -10 -89 8 -25 32 -26 39 -2 6 22 15 132 21 256 3 55 8
102 10 105 8 7 129 20 198 20 l57 1 -2 -192 -3 -193 -35 3 -35 2 40 -35 c22
-19 45 -33 50 -31 26 7 34 58 36 254 3 223 3 223 -56 220 -16 0 -59 -6 -95
-13z"/>
</g>
<g id="part-3" class="char-part">
  <path d="M605 428 c0 -73 0 -73 -29 -76 l-28 -4 3 69 c4 63 2 68 -16 68 -18 0
-20 -7 -20 -70 l0 -70 -90 -10 c-86 -10 -89 -12 -63 -25 23 -11 37 -11 83 0
30 7 58 10 62 7 3 -4 6 -48 7 -99 1 -76 4 -93 16 -93 12 0 16 20 20 100 l5
100 29 3 28 4 -3 -91 c-3 -62 0 -94 8 -102 21 -21 28 -1 33 99 l5 97 103 3
c56 1 102 7 102 12 0 17 -49 23 -131 16 l-79 -7 0 70 c0 67 -1 71 -22 71 -22
0 -23 -4 -23 -72z"/>
</g>
</g>
</svg>