<?xml version="1.0" standalone="no"?>
<!DOCTYPE svg PUBLIC "-//W3C//DTD SVG 20010904//EN"
 "http://www.w3.org/TR/2001/REC-SVG-20010904/DTD/svg10.dtd">
<svg version="1.0" xmlns="http://www.w3.org/2000/svg"
 width="96.000000pt" height="68.000000pt" viewBox="0 0 96.000000 68.000000"
 preserveAspectRatio="xMidYMid meet">
<metadata>
Created by potrace 1.16, written by Peter Selinger 2001-2019
Combined from part_0.svg through part_5.svg with named groups
</metadata>
<g transform="translate(0.000000,68.000000) scale(0.100000,-0.100000)" fill="#000000" stroke="none">
<g id="part-0" class="char-part">
  <path d="M234 568 c3 -13 9 -53 12 -89 l7 -67 -29 -6 c-16 -3 -46 -8 -66 -12
-56 -9 -36 -24 33 -24 l59 0 0 -35 c0 -33 -3 -35 -85 -76 -47 -23 -85 -45 -85
-49 0 -3 5 -11 12 -18 21 -21 62 -13 98 18 19 16 39 29 43 30 4 0 7 -26 5 -58
l-3 -57 -33 3 -33 2 33 -40 c60 -73 88 -42 88 97 0 84 1 88 32 120 31 32 25
43 -13 23 -17 -10 -19 -7 -19 19 0 27 4 31 35 37 43 8 41 28 -2 32 -30 3 -30
4 -25 50 2 26 9 56 15 66 8 16 5 23 -13 38 -12 10 -33 18 -47 18 -21 0 -24 -4
-19 -22z"/>
  <path d="M644 516 c-2 -62 -6 -80 -28 -112 -35 -53 -12 -59 30 -9 l32 38 27
-21 c32 -25 55 -28 55 -8 0 18 -20 33 -50 38 -24 3 -25 5 -22 67 3 62 -4 80
-33 81 -6 0 -11 -32 -11 -74z"/>
  <path d="M448 500 c5 -74 -2 -104 -28 -130 -11 -11 -15 -20 -9 -20 6 0 23 13
38 29 l27 29 27 -20 c15 -11 32 -16 38 -12 15 9 -17 34 -43 34 -30 0 -20 25
17 43 36 17 47 37 20 37 -8 0 -20 -9 -27 -20 -21 -33 -29 -23 -26 33 3 45 1
52 -17 55 -18 3 -20 -2 -17 -58z"/>
  <path d="M724 508 c-21 -23 -24 -29 -11 -25 11 4 30 10 43 13 26 7 32 29 10
37 -7 3 -27 -8 -42 -25z"/>
  <path d="M580 494 c0 -13 21 -44 30 -44 16 0 11 37 -6 44 -19 7 -24 8 -24 0z"/>
  <path d="M380 455 c0 -8 5 -15 11 -15 5 0 7 -4 4 -10 -3 -5 1 -10 9 -10 19 0
21 21 4 38 -16 16 -28 15 -28 -3z"/>
  <path d="M670 354 c-36 -9 -273 -32 -291 -29 -11 2 -17 0 -14 -4 2 -5 -3 -23
-11 -41 -12 -22 -13 -35 -6 -42 14 -14 38 4 46 35 5 21 15 24 148 40 207 25
250 23 216 -11 -21 -21 1 -26 37 -9 20 9 42 17 50 17 23 0 18 16 -10 34 -22
15 -121 21 -165 10z"/>
  <path d="M549 293 c-1 -4 -2 -19 -2 -33 -2 -21 -9 -26 -57 -35 -57 -11 -59
-25 -2 -21 24 2 32 -2 32 -14 0 -16 -53 -73 -110 -119 l-25 -21 34 12 c34 11
107 77 146 131 24 34 75 46 95 22 11 -13 10 -25 -4 -70 -19 -61 -38 -77 -73
-64 -29 11 -29 6 -1 -26 46 -53 86 -22 122 92 14 45 26 84 26 87 0 13 -63 24
-92 15 -46 -13 -47 -12 -45 18 2 22 -3 29 -20 31 -13 2 -23 0 -24 -5z"/>
</g>
<g id="part-1" class="char-part">
  <path d="M237 584 c-3 -3 -2 -17 4 -31 5 -13 9 -53 9 -88 l0 -63 -60 -7 c-73
-9 -69 -25 6 -25 l55 0 -3 -40 c-3 -41 -3 -41 -85 -78 -45 -20 -83 -40 -83
-43 0 -4 13 -12 30 -19 27 -11 33 -9 79 24 27 20 51 36 55 36 8 0 6 -65 -3
-105 -7 -30 -18 -34 -54 -20 -11 5 -1 -12 22 -36 39 -42 41 -43 58 -26 15 15
18 32 15 116 l-3 99 30 22 c37 26 41 44 6 28 -32 -14 -39 -7 -28 29 7 20 17
29 37 31 35 4 29 26 -9 30 -27 3 -27 5 -21 50 3 26 9 58 12 73 4 20 1 27 -21
37 -29 13 -39 15 -48 6z"/>
</g>
<g id="part-2" class="char-part">
  <path d="M448 490 c3 -64 1 -76 -23 -111 -23 -36 -24 -39 -6 -29 12 6 28 22
37 35 l16 25 28 -20 c32 -23 54 -26 48 -7 -3 6 -19 16 -36 22 -42 12 -40 27 4
48 19 10 34 23 32 29 -8 23 -28 19 -39 -6 -19 -41 -29 -31 -26 27 2 45 -1 52
-18 55 -19 3 -20 -2 -17 -68z"/>
  <path d="M380 457 c0 -18 28 -42 37 -33 9 8 -9 38 -25 44 -7 2 -12 -3 -12 -11z"/>
</g>
<g id="part-3" class="char-part">
  <path d="M644 517 c-1 -57 -5 -81 -21 -103 -32 -46 -35 -54 -22 -54 6 0 27 16
45 35 l34 36 29 -22 c17 -13 36 -19 46 -15 26 10 12 30 -30 42 -21 6 -40 15
-42 20 -2 6 22 21 52 33 45 19 53 26 44 37 -16 20 -37 17 -49 -6 -6 -11 -18
-24 -28 -29 -16 -8 -18 -4 -17 42 0 45 -3 52 -20 55 -19 3 -20 -3 -21 -71z"/>
  <path d="M582 479 c21 -33 40 -37 36 -8 -2 17 -11 25 -27 27 -24 4 -24 3 -9
-19z"/>
</g>
<g id="part-4" class="char-part">
  <path d="M605 240 c-17 -7 -16 -9 10 -9 48 -2 59 -13 50 -57 -3 -21 -13 -51
-22 -67 -13 -26 -19 -29 -49 -24 l-35 6 21 -30 c41 -56 89 -27 115 68 9 32 20
66 26 76 16 28 -7 47 -55 46 -22 0 -50 -4 -61 -9z"/>
</g>
</g>
</svg>