<?xml version="1.0" standalone="no"?>
<!DOCTYPE svg PUBLIC "-//W3C//DTD SVG 20010904//EN"
 "http://www.w3.org/TR/2001/REC-SVG-20010904/DTD/svg10.dtd">
<svg version="1.0" xmlns="http://www.w3.org/2000/svg"
 width="96.000000pt" height="68.000000pt" viewBox="0 0 96.000000 68.000000"
 preserveAspectRatio="xMidYMid meet">
<metadata>
Created by potrace 1.16, written by Peter Selinger 2001-2019
Combined from part_0.svg through part_5.svg with named groups
</metadata>
<g transform="translate(0.000000,68.000000) scale(0.100000,-0.100000)" fill="#000000" stroke="none">
<g id="part-0" class="char-part">
  <path d="M560 585 c-47 -8 -103 -18 -125 -23 -39 -9 -39 -9 -12 -17 23 -6 27
-12 27 -45 0 -21 3 -51 6 -67 6 -28 4 -30 -38 -41 -39 -10 -35 -11 42 -7 47 3
95 8 108 11 20 6 22 3 22 -30 l0 -37 -57 2 c-57 3 -163 -7 -193 -18 -11 -4
-10 -7 8 -14 16 -6 22 -17 22 -37 0 -16 3 -50 6 -76 l7 -46 -39 0 c-36 0 -37
-1 -21 -17 16 -17 37 -15 135 13 21 6 22 3 22 -45 0 -39 4 -51 15 -51 11 0 15
11 15 38 l0 38 83 12 c113 16 107 18 107 -32 0 -60 8 -80 26 -65 8 7 14 31 14
60 0 48 0 49 33 50 54 2 60 4 64 17 3 7 -5 13 -19 13 -75 4 -68 -5 -68 89 l0
70 30 0 c17 0 30 4 30 9 0 16 -40 19 -111 9 -38 -6 -72 -8 -75 -5 -3 2 -2 16
1 30 6 23 13 26 58 29 68 4 67 22 -2 26 l-54 3 7 52 c3 29 6 60 6 70 0 12 8
17 30 17 17 0 30 5 30 10 0 6 -6 10 -14 10 -8 0 -20 2 -28 4 -7 2 -51 -2 -98
-9z m30 -43 c0 -14 -8 -19 -30 -20 -17 0 -39 -4 -50 -7 -15 -5 -20 -2 -20 13
0 27 8 32 57 32 35 0 43 -3 43 -18z m0 -52 c0 -15 -7 -20 -24 -20 -14 0 -36
-4 -50 -10 -23 -8 -26 -7 -26 13 0 19 6 23 37 25 21 2 39 5 42 7 11 11 21 4
21 -15z m0 -54 c0 -18 -22 -26 -71 -26 -26 0 -38 4 -36 13 4 24 107 37 107 13z
m-20 -133 c3 -2 6 -38 8 -79 l4 -74 -36 0 -36 0 0 54 c0 29 3 68 6 85 6 26 10
30 28 25 11 -4 23 -8 26 -11z m128 -4 c3 -17 -24 -29 -67 -29 -17 0 -22 4 -17
16 3 9 6 19 6 23 0 5 17 8 37 7 26 -1 39 -6 41 -17z m-218 -8 c0 -11 -9 -21
-22 -25 -41 -11 -58 -7 -58 13 0 22 13 29 53 30 20 1 27 -4 27 -18z m220 -50
c0 -13 -10 -20 -31 -25 -49 -10 -59 -7 -59 13 0 15 8 21 38 24 20 2 40 4 45 5
4 1 7 -6 7 -17z m-222 -8 c-4 -24 -78 -32 -78 -9 0 15 18 23 58 25 17 1 23 -4
20 -16z m-10 -74 c-7 -5 -25 -9 -40 -9 -21 0 -28 5 -28 19 0 16 8 20 38 23 39
3 57 -16 30 -33z m232 21 c0 -15 -7 -20 -29 -20 -16 0 -36 -3 -45 -6 -12 -5
-16 0 -16 18 0 22 4 25 45 26 39 2 45 -1 45 -18z"/>
  <path d="M245 535 c-22 -7 -61 -14 -87 -14 -51 -1 -56 -5 -34 -27 8 -7 17 -31
21 -53 8 -46 24 -64 45 -51 20 13 27 12 28 -2 3 -45 3 -180 0 -182 -1 -2 -13
-7 -25 -10 -21 -7 -22 -4 -25 66 -2 57 -6 73 -19 76 -14 2 -16 -9 -15 -80 l1
-83 -30 -6 -30 -6 28 -13 c25 -12 35 -10 132 35 58 26 104 50 102 52 -3 2 -16
-1 -31 -7 -43 -16 -46 -13 -46 39 0 48 1 49 35 55 49 10 57 29 9 24 -34 -3
-38 -1 -37 20 1 37 3 42 11 41 19 -3 32 2 32 13 0 6 10 31 21 56 12 25 18 47
13 52 -17 16 -59 18 -99 5z m27 -61 c-4 -35 -9 -40 -48 -47 -27 -5 -33 -3 -38
16 -12 47 -8 56 32 60 53 5 57 3 54 -29z"/>
</g>
<g id="part-1" class="char-part">
  <path d="M255 530 c-11 -5 -49 -9 -84 -9 -60 -1 -63 -2 -48 -18 8 -10 21 -40
28 -66 11 -44 14 -48 38 -43 14 3 47 8 74 12 35 5 47 11 47 23 0 9 8 33 19 53
13 26 15 40 8 47 -13 13 -54 13 -82 1z m25 -47 c0 -39 -10 -50 -51 -58 -40 -7
-43 -5 -53 42 -7 29 -5 32 21 36 74 11 83 9 83 -20z"/>
</g>
<g id="part-2" class="char-part">
  <path d="M203 202 c-97 -29 -120 -39 -111 -49 17 -21 46 -15 142 28 151 69
145 73 -31 21z"/>
</g>
<g id="part-3" class="char-part">
  <path d="M585 589 c-27 -5 -81 -14 -119 -20 -68 -11 -69 -12 -43 -26 20 -10
27 -21 27 -42 0 -49 12 -91 26 -91 8 0 14 7 14 15 0 10 16 16 50 21 28 4 50
11 50 16 0 6 -20 7 -50 3 -41 -6 -50 -4 -50 8 0 18 21 27 66 27 24 0 34 4 34
16 0 10 -6 14 -17 10 -67 -18 -83 -18 -83 2 0 23 16 28 133 38 77 6 97 16 55
28 -26 7 -26 7 -93 -5z"/>
</g>
<g id="part-4" class="char-part">
  <path d="M590 487 l0 -73 -37 -2 c-50 -3 -166 -22 -172 -28 -8 -8 83 -4 143 6
33 5 61 8 63 6 2 -1 4 -15 5 -29 3 -36 25 -34 33 2 6 26 11 29 62 36 65 8 55
25 -16 25 l-44 0 7 65 c7 65 6 65 -19 65 -24 0 -25 -2 -25 -73z"/>
</g>
<g id="part-5" class="char-part">
  <path d="M700 305 c0 -8 5 -15 10 -15 6 0 10 -5 10 -11 0 -5 -4 -7 -10 -4 -5
3 -10 1 -10 -4 0 -6 4 -11 10 -11 6 0 6 -9 0 -26 -8 -21 -7 -29 7 -41 10 -8
13 -12 6 -9 -16 8 -29 -34 -13 -44 8 -5 9 -10 2 -14 -6 -3 -8 -21 -5 -39 2
-17 5 -38 5 -44 2 -22 16 -14 17 10 4 81 7 92 24 91 9 -1 17 3 17 10 0 6 5 4
10 -4 7 -10 10 -11 10 -2 0 8 9 10 28 7 23 -5 25 -5 9 5 -10 7 -34 10 -53 8
-26 -3 -34 0 -35 12 0 8 -1 36 -2 63 -1 26 3 49 8 51 12 5 -14 26 -32 26 -7 0
-13 -7 -13 -15z"/>
  <path d="M625 153 c-22 -3 -44 -8 -48 -12 -4 -4 18 -4 49 0 31 4 58 10 62 13
3 3 -1 5 -9 4 -8 -1 -32 -3 -54 -5z"/>
  <path d="M538 133 c7 -3 16 -2 19 1 4 3 -2 6 -13 5 -11 0 -14 -3 -6 -6z"/>
</g>
</g>
</svg>