<?xml version="1.0" standalone="no"?>
<!DOCTYPE svg PUBLIC "-//W3C//DTD SVG 20010904//EN"
 "http://www.w3.org/TR/2001/REC-SVG-20010904/DTD/svg10.dtd">
<svg version="1.0" xmlns="http://www.w3.org/2000/svg"
 width="96.000000pt" height="68.000000pt" viewBox="0 0 96.000000 68.000000"
 preserveAspectRatio="xMidYMid meet">
<metadata>
Created by potrace 1.16, written by Peter Selinger 2001-2019
Combined from part_0.svg through part_5.svg with named groups
</metadata>
<g transform="translate(0.000000,68.000000) scale(0.100000,-0.100000)" fill="#000000" stroke="none">
<g id="part-0" class="char-part">
  <path d="M370 640 c-10 -6 -11 -10 -2 -10 8 0 12 -16 12 -44 l0 -44 -67 -7
c-38 -3 -79 -8 -93 -11 -24 -5 -24 -6 -5 -17 11 -6 48 -11 83 -10 l62 2 -17
-31 c-26 -44 -84 -86 -166 -120 -40 -17 -74 -33 -77 -36 -3 -2 18 -2 47 1 96
11 210 84 258 164 22 37 56 46 87 25 20 -14 135 -112 176 -149 21 -20 172 -14
172 7 0 4 -38 19 -84 34 -49 16 -112 47 -152 74 l-69 47 73 8 c76 9 90 21 45
38 -20 8 -51 8 -108 0 -112 -15 -108 -16 -90 19 20 39 20 39 -20 56 -40 17
-45 17 -65 4z"/>
  <path d="M423 426 c5 -32 3 -38 -16 -45 -12 -5 -25 -7 -30 -4 -4 2 -17 1 -30
-4 -18 -6 -12 -9 28 -13 48 -5 50 -6 53 -37 4 -44 30 -44 34 -1 3 31 7 34 51
43 60 13 61 31 2 28 -44 -3 -45 -2 -45 27 0 17 -4 30 -9 30 -5 0 -17 3 -27 7
-15 6 -16 2 -11 -31z"/>
  <path d="M530 301 c0 -37 -2 -39 -37 -45 -21 -3 -59 -6 -85 -6 -45 0 -47 1
-50 33 -3 27 -7 33 -32 35 -21 3 -26 0 -20 -10 14 -22 15 -51 2 -60 -7 -4 -46
-8 -85 -8 -41 0 -73 -4 -73 -10 0 -15 46 -23 101 -18 27 3 52 2 54 -3 8 -12
-47 -97 -72 -110 -12 -6 -24 -18 -27 -25 -4 -10 5 -9 33 5 43 22 96 78 106
113 4 13 13 26 19 30 17 12 178 10 171 -2 -8 -13 6 -190 15 -190 13 0 20 29
26 116 l7 84 71 0 c39 0 77 4 85 9 24 16 -22 31 -94 31 -64 0 -65 0 -59 24 4
18 1 27 -14 35 -34 18 -42 13 -42 -28z"/>
</g>
<g id="part-1" class="char-part">
  <path d="M385 606 c12 -60 0 -76 -53 -77 -26 0 -65 -4 -87 -8 -40 -8 -40 -8
-12 -16 16 -4 53 -5 83 -2 l54 6 -14 -28 c-30 -57 -120 -121 -220 -155 -42
-14 -5 -15 50 0 94 24 176 84 220 162 31 54 57 45 180 -59 l108 -91 57 5 c90
8 90 17 -2 48 -80 28 -235 120 -222 133 3 3 37 6 75 6 50 0 69 3 66 12 -8 22
-54 26 -139 12 -46 -7 -85 -11 -87 -9 -3 2 1 19 8 36 12 28 12 33 -5 45 -10 8
-29 14 -42 14 -22 0 -23 -3 -18 -34z"/>
</g>
<g id="part-2" class="char-part">
  <path d="M422 424 c3 -39 3 -39 -39 -45 -62 -8 -65 -19 -5 -19 l51 0 3 -37 c4
-45 20 -47 29 -3 9 40 10 41 64 47 25 3 45 9 45 14 0 13 -39 21 -70 14 -28 -6
-30 -5 -30 24 0 17 -4 31 -9 31 -5 0 -17 3 -26 6 -14 6 -16 1 -13 -32z"/>
</g>
<g id="part-3" class="char-part">
  <path d="M530 301 l0 -39 -75 -7 c-84 -8 -99 -3 -91 30 6 24 -8 35 -44 35 -17
0 -18 -4 -8 -31 14 -42 2 -49 -89 -49 -40 0 -73 -4 -73 -9 0 -15 37 -23 93
-21 29 2 55 2 60 1 16 -2 -34 -80 -74 -114 -33 -28 -36 -34 -18 -30 55 14 111
66 131 119 12 35 39 44 134 44 l52 0 7 -100 c10 -142 32 -133 42 18 l6 82 78
0 c43 0 80 4 84 9 10 18 -33 31 -98 31 -60 0 -65 2 -60 20 7 25 -13 50 -38 50
-15 0 -19 -8 -19 -39z"/>
</g>
</g>
</svg>