<?xml version="1.0" standalone="no"?>
<!DOCTYPE svg PUBLIC "-//W3C//DTD SVG 20010904//EN"
 "http://www.w3.org/TR/2001/REC-SVG-20010904/DTD/svg10.dtd">
<svg version="1.0" xmlns="http://www.w3.org/2000/svg"
 width="96.000000pt" height="68.000000pt" viewBox="0 0 96.000000 68.000000"
 preserveAspectRatio="xMidYMid meet">
<metadata>
Created by potrace 1.16, written by Peter Selinger 2001-2019
Combined from part_0.svg through part_5.svg with named groups
</metadata>
<g transform="translate(0.000000,68.000000) scale(0.100000,-0.100000)" fill="#000000" stroke="none">
<g id="part-0" class="char-part">
  <path d="M380 607 c0 -9 12 -27 26 -40 l26 -24 -24 -6 c-12 -3 -59 -9 -103
-13 -44 -4 -89 -10 -100 -14 -18 -7 -17 -8 8 -15 15 -4 58 -5 95 -2 37 3 139
10 227 17 88 6 164 15 169 20 20 20 -39 33 -121 26 -70 -5 -83 -4 -83 9 0 20
-37 42 -82 50 -31 6 -38 4 -38 -8z"/>
  <path d="M455 470 c-27 -5 -71 -9 -98 -9 l-47 -1 20 -37 c11 -21 20 -44 20
-51 0 -10 7 -12 24 -8 13 3 62 9 110 12 56 5 86 11 86 19 0 7 9 20 20 30 52
47 -2 65 -135 45z m78 -16 c3 -3 1 -16 -5 -29 -9 -19 -20 -24 -80 -30 -38 -3
-71 -5 -73 -3 -2 2 -5 12 -7 23 -3 17 6 21 57 31 72 14 100 16 108 8z"/>
  <path d="M659 356 c-2 -2 -97 -11 -212 -21 -166 -14 -210 -15 -222 -5 -18 15
-15 19 -51 -48 -24 -44 -27 -54 -15 -62 21 -13 47 5 59 40 6 16 15 30 19 30 4
0 51 5 103 10 228 23 322 30 332 24 5 -4 0 -16 -13 -30 -12 -13 -21 -26 -18
-28 8 -9 133 19 136 31 8 24 -98 78 -118 59z"/>
  <path d="M492 180 c3 -75 6 -92 23 -105 35 -28 64 -35 138 -35 55 0 80 5 105
20 33 20 33 22 18 45 -9 13 -16 33 -16 44 0 32 -17 33 -23 1 -11 -54 -38 -70
-111 -66 -35 2 -69 7 -76 11 -9 6 -11 28 -7 81 5 65 3 75 -13 84 -37 20 -40
13 -38 -80z"/>
  <path d="M357 217 c7 -56 -23 -117 -74 -152 -21 -14 -31 -25 -22 -25 22 0 95
54 115 85 9 14 21 47 25 72 9 49 2 63 -32 63 -14 0 -16 -8 -12 -43z"/>
</g>
<g id="part-1" class="char-part">
  <path d="M390 594 c8 -10 23 -25 33 -32 30 -23 19 -29 -65 -37 -46 -4 -101
-10 -123 -14 l-40 -8 37 -7 c20 -5 74 -3 120 3 46 6 133 13 193 16 61 4 121 9
135 11 25 6 25 6 5 20 -15 12 -36 14 -90 9 -38 -4 -78 -9 -87 -11 -13 -4 -18
0 -18 14 0 28 -22 43 -72 50 -41 5 -42 4 -28 -14z"/>
</g>
<g id="part-2" class="char-part">
  <path d="M450 469 c-25 -4 -67 -8 -93 -8 -27 -1 -47 -4 -45 -8 2 -5 13 -27 24
-51 15 -35 23 -42 40 -37 12 2 60 8 108 11 55 5 86 11 86 19 0 6 11 22 25 35
l26 24 -23 13 c-25 14 -79 15 -148 2z m84 -18 c3 -5 -2 -18 -12 -29 -12 -15
-35 -23 -84 -28 -68 -6 -68 -6 -68 19 0 23 5 26 48 32 26 4 52 8 57 10 20 7
54 5 59 -4z"/>
</g>
<g id="part-3" class="char-part">
  <path d="M460 338 c-164 -15 -219 -17 -233 -8 -11 6 -20 10 -21 8 -2 -2 -16
-27 -31 -56 -21 -38 -25 -56 -17 -64 17 -17 42 -2 58 37 8 21 21 35 32 35 9 0
103 9 207 20 105 11 196 20 203 20 20 0 14 -30 -10 -51 -27 -22 -18 -23 66 -5
33 7 61 17 63 23 5 14 -66 64 -87 62 -8 -1 -112 -10 -230 -21z"/>
</g>
<g id="part-4" class="char-part">
  <path d="M491 185 c-1 -78 1 -88 23 -110 42 -42 216 -49 256 -9 19 19 19 20
-4 68 l-23 48 -6 -31 c-11 -52 -39 -71 -105 -71 -86 0 -96 11 -90 99 5 62 3
73 -13 81 -33 18 -37 10 -38 -75z"/>
</g>
</g>
</svg>