<?xml version="1.0" standalone="no"?>
<!DOCTYPE svg PUBLIC "-//W3C//DTD SVG 20010904//EN"
 "http://www.w3.org/TR/2001/REC-SVG-20010904/DTD/svg10.dtd">
<svg version="1.0" xmlns="http://www.w3.org/2000/svg"
 width="96.000000pt" height="68.000000pt" viewBox="0 0 96.000000 68.000000"
 preserveAspectRatio="xMidYMid meet">
<metadata>
Created by potrace 1.16, written by Peter Selinger 2001-2019
Combined from part_0.svg through part_5.svg with named groups
</metadata>
<g transform="translate(0.000000,68.000000) scale(0.100000,-0.100000)" fill="#000000" stroke="none">
<g id="part-0" class="char-part">
  <path d="M410 636 c0 -8 5 -18 10 -21 6 -3 10 -17 10 -29 0 -22 -5 -24 -70
-28 -39 -3 -74 -8 -78 -12 -15 -16 27 -27 86 -22 60 5 62 4 62 -18 0 -22 -6
-25 -60 -31 -33 -4 -60 -10 -60 -15 0 -11 37 -20 83 -20 32 0 37 -3 37 -23 0
-20 -5 -22 -57 -25 -143 -5 -215 -14 -204 -25 14 -14 85 -13 191 1 46 7 160
12 252 12 164 0 201 7 157 31 -20 10 -131 8 -246 -7 -30 -3 -33 -1 -33 21 0
26 -1 26 81 30 16 1 35 7 42 14 20 20 -13 32 -70 26 -47 -5 -53 -3 -53 14 0
23 19 31 70 31 48 0 70 8 70 26 0 15 -21 19 -94 15 -48 -3 -49 -3 -42 23 5 19
1 28 -13 36 -29 15 -71 13 -71 -4z"/>
  <path d="M480 334 c-41 -8 -95 -13 -120 -12 -25 1 -44 -1 -44 -5 12 -76 11
-104 -5 -168 -20 -80 -18 -109 9 -109 13 0 20 14 29 60 l12 60 38 0 c21 0 66
3 100 6 60 7 61 6 61 -17 0 -48 -11 -69 -36 -69 -32 0 -30 -14 6 -40 25 -17
32 -19 49 -8 24 15 32 61 28 163 -1 39 1 82 6 97 6 24 3 29 -22 43 -17 8 -31
15 -33 14 -2 0 -37 -7 -78 -15z m70 -48 c0 -18 -5 -23 -24 -23 -14 0 -54 -4
-90 -8 -56 -6 -66 -4 -66 9 0 9 -1 19 -2 23 -4 11 48 20 120 22 59 1 62 0 62
-23z m8 -68 c-2 -15 -11 -22 -28 -23 -14 -1 -58 -5 -98 -9 -74 -8 -74 -8 -70
15 3 21 10 25 63 30 127 12 137 11 133 -13z"/>
</g>
<g id="part-1" class="char-part">
  <path d="M427 602 l5 -39 -47 -6 c-26 -4 -61 -7 -76 -7 -16 0 -29 -4 -29 -10
0 -6 32 -10 75 -10 l75 0 0 -30 c0 -30 -1 -30 -55 -30 -73 0 -71 -18 3 -22 50
-3 57 -6 60 -25 2 -15 10 -23 23 -23 14 0 19 7 19 30 0 29 1 30 48 30 56 0 92
9 92 22 0 5 -29 8 -65 7 -72 -3 -80 1 -71 29 5 15 21 21 74 28 85 11 83 30 -3
27 l-64 -2 -3 32 c-3 28 -7 32 -35 35 -31 3 -31 3 -26 -36z"/>
</g>
<g id="part-2" class="char-part">
  <path d="M639 416 c-2 -2 -49 -6 -104 -10 -175 -10 -369 -26 -373 -31 -3 -2 8
-9 24 -15 22 -9 55 -8 139 4 65 10 178 16 275 16 168 0 212 8 172 29 -19 10
-123 16 -133 7z"/>
</g>
<g id="part-3" class="char-part">
  <path d="M470 333 c-41 -7 -94 -12 -117 -11 -24 2 -43 2 -43 1 0 -1 5 -24 10
-50 9 -39 7 -62 -9 -122 -14 -53 -17 -81 -10 -98 14 -37 35 -14 49 53 l11 54
42 0 c23 0 65 3 93 6 49 6 51 5 58 -20 9 -37 -9 -66 -41 -66 l-27 0 29 -30
c61 -64 97 -17 93 122 -2 46 1 97 5 115 8 29 6 33 -22 47 -16 9 -34 15 -38 15
-4 -1 -42 -8 -83 -16z m80 -42 c0 -15 -13 -20 -69 -30 -102 -16 -111 -15 -111
13 0 28 14 32 118 35 54 1 62 -1 62 -18z m8 -73 c-2 -15 -11 -22 -28 -23 -14
-1 -57 -5 -96 -9 l-71 -8 0 26 c0 24 2 25 66 29 36 2 81 4 99 5 29 2 33 -1 30
-20z"/>
</g>
</g>
</svg>