<?xml version="1.0" standalone="no"?>
<!DOCTYPE svg PUBLIC "-//W3C//DTD SVG 20010904//EN"
 "http://www.w3.org/TR/2001/REC-SVG-20010904/DTD/svg10.dtd">
<svg version="1.0" xmlns="http://www.w3.org/2000/svg"
 width="96.000000pt" height="68.000000pt" viewBox="0 0 96.000000 68.000000"
 preserveAspectRatio="xMidYMid meet">
<metadata>
Created by potrace 1.16, written by Peter Selinger 2001-2019
Combined from part_0.svg through part_5.svg with named groups
</metadata>
<g transform="translate(0.000000,68.000000) scale(0.100000,-0.100000)" fill="#000000" stroke="none">
<g id="part-0" class="char-part">
  <path d="M470 555 c-36 -8 -93 -14 -128 -14 l-62 -1 24 -37 c14 -21 28 -59 31
-84 9 -63 19 -77 43 -62 10 6 61 14 113 18 122 9 132 11 119 35 -7 13 -3 32
19 74 l28 57 -21 14 c-25 18 -78 18 -166 0z m77 -76 c-4 -29 -8 -53 -10 -56
-2 -2 -35 -7 -73 -12 -48 -6 -71 -5 -76 3 -10 15 -21 86 -15 92 7 7 95 21 141
23 l39 1 -6 -51z"/>
  <path d="M670 304 c-36 -7 -93 -13 -128 -14 l-63 0 15 -28 c8 -15 20 -55 26
-90 13 -64 26 -85 36 -58 5 12 20 16 59 16 29 0 73 3 99 6 39 6 46 10 46 29 0
12 11 43 25 69 14 26 25 49 25 51 0 6 -58 35 -67 34 -4 -1 -37 -7 -73 -15z
m46 -76 c-4 -29 -10 -56 -14 -60 -11 -10 -139 -21 -145 -12 -2 5 -8 32 -12 61
l-7 52 54 4 c29 2 70 4 92 5 l39 2 -7 -52z"/>
  <path d="M320 279 c-19 -5 -66 -11 -105 -14 -38 -2 -72 -5 -75 -5 -3 0 0 -4 5
-8 15 -11 33 -52 39 -92 9 -48 21 -66 38 -54 7 6 36 12 63 13 87 3 105 10 105
37 0 14 9 43 19 65 19 39 19 39 -2 54 -24 17 -35 17 -87 4z m27 -70 c-4 -29
-8 -53 -10 -55 -2 -2 -28 -6 -59 -10 l-55 -6 -12 47 c-7 26 -9 50 -7 53 8 7
74 19 115 21 l34 1 -6 -51z"/>
</g>
<g id="part-1" class="char-part">
  <path d="M495 554 c-33 -7 -93 -15 -132 -16 -40 -2 -73 -6 -73 -10 0 -5 4 -8
9 -8 11 0 37 -70 46 -122 6 -39 23 -58 34 -39 6 9 151 30 212 31 11 0 15 7 12
23 -2 12 7 45 22 72 l25 50 -21 18 c-25 20 -51 20 -134 1z m54 -23 c14 -9 9
-72 -8 -100 -9 -14 -74 -30 -127 -31 -29 0 -31 3 -42 51 -7 29 -10 54 -7 57 5
5 123 27 160 31 6 0 16 -3 24 -8z"/>
</g>
<g id="part-2" class="char-part">
  <path d="M315 279 c-16 -5 -63 -10 -102 -12 -40 -1 -73 -3 -73 -4 0 -1 9 -17
19 -35 11 -18 22 -51 26 -73 8 -52 22 -75 33 -57 5 7 33 15 63 18 108 10 117
13 112 33 -3 11 5 40 16 66 20 45 20 48 4 61 -21 15 -55 16 -98 3z m32 -70
c-4 -29 -8 -53 -10 -55 -2 -2 -28 -6 -59 -10 l-56 -7 -10 49 c-6 27 -9 51 -6
53 6 6 75 19 113 20 l34 1 -6 -51z"/>
</g>
<g id="part-3" class="char-part">
  <path d="M665 303 c-38 -8 -96 -12 -128 -10 -49 3 -57 1 -51 -12 21 -49 33
-89 34 -108 0 -12 5 -34 10 -49 10 -25 12 -26 29 -10 10 10 35 16 62 16 24 0
67 3 95 6 41 5 51 10 47 23 -3 13 17 70 45 123 4 7 -52 39 -65 37 -4 -1 -39
-8 -78 -16z m55 -45 c0 -13 -5 -40 -11 -60 -9 -35 -13 -38 -48 -38 -21 0 -52
-3 -68 -6 -34 -7 -38 -2 -48 69 l-7 46 48 4 c127 9 134 9 134 -15z"/>
</g>
</g>
</svg>