<?xml version="1.0" standalone="no"?>
<!DOCTYPE svg PUBLIC "-//W3C//DTD SVG 20010904//EN"
 "http://www.w3.org/TR/2001/REC-SVG-20010904/DTD/svg10.dtd">
<svg version="1.0" xmlns="http://www.w3.org/2000/svg"
 width="96.000000pt" height="68.000000pt" viewBox="0 0 96.000000 68.000000"
 preserveAspectRatio="xMidYMid meet">
<metadata>
Created by potrace 1.16, written by Peter Selinger 2001-2019
Combined from part_0.svg through part_5.svg with named groups
</metadata>
<g transform="translate(0.000000,68.000000) scale(0.100000,-0.100000)" fill="#000000" stroke="none">
<g id="part-0" class="char-part">
  <path d="M204 576 c-3 -7 0 -25 6 -40 5 -15 10 -52 10 -81 l0 -54 -37 -6 c-21
-4 -45 -7 -53 -8 -8 -1 -15 -7 -15 -12 0 -6 24 -11 53 -13 l52 -3 0 -42 0 -42
-69 -28 c-49 -21 -68 -33 -64 -43 10 -27 50 -27 90 0 38 26 38 26 41 5 2 -12
1 -37 -3 -57 -6 -33 -8 -34 -41 -29 -19 3 -34 4 -34 2 0 -2 19 -22 42 -44 39
-39 42 -40 60 -25 15 14 18 33 18 110 0 92 0 94 30 116 30 22 41 45 18 35 -50
-20 -48 -21 -48 16 0 32 4 37 35 47 43 14 45 29 5 37 -26 5 -30 10 -30 38 0
17 5 47 11 65 10 29 9 34 -7 44 -34 20 -65 25 -70 12z"/>
  <path d="M580 510 c-247 -29 -264 -32 -245 -46 15 -11 18 -27 17 -101 -1 -104
-14 -167 -47 -237 -13 -28 -23 -52 -21 -54 2 -1 15 11 29 27 42 51 68 136 77
254 4 59 9 109 11 111 9 7 205 26 268 26 67 0 91 10 55 24 -19 7 -56 6 -144
-4z"/>
  <path d="M656 448 c-2 -7 -13 -40 -25 -74 -25 -74 -26 -86 -3 -58 11 14 34 24
66 29 45 6 49 5 37 -9 -18 -22 -5 -33 19 -18 11 7 27 12 35 12 19 0 19 14 0
30 -11 9 -32 11 -71 6 l-56 -6 21 33 c26 42 26 44 1 57 -15 8 -21 8 -24 -2z"/>
  <path d="M526 391 c-27 -52 -40 -61 -87 -61 -18 0 -28 -4 -24 -10 3 -5 19 -10
36 -10 28 0 29 -1 29 -50 0 -43 -3 -50 -20 -50 -16 0 -20 7 -20 30 0 19 -5 30
-14 30 -8 0 -14 -8 -14 -17 0 -10 -3 -31 -7 -47 -8 -29 -8 -29 29 -22 20 4 36
3 36 -1 0 -18 -32 -66 -55 -85 -41 -32 -21 -33 24 -2 22 16 47 45 57 66 16 36
52 57 65 36 11 -17 27 0 38 39 12 42 8 53 -20 53 -15 0 -19 -7 -19 -35 0 -28
-4 -35 -20 -35 -18 0 -20 6 -19 50 2 48 3 50 36 56 52 10 37 32 -17 24 -9 -1
-1 13 19 33 18 20 30 40 27 46 -15 23 -37 9 -60 -38z"/>
  <path d="M435 380 c15 -30 29 -38 39 -22 8 13 -23 52 -40 52 -13 0 -12 -4 1
-30z"/>
  <path d="M647 266 c11 -55 -43 -153 -101 -184 -23 -12 -27 -17 -14 -20 28 -6
78 27 110 73 l32 45 40 -63 c37 -56 45 -62 80 -65 57 -5 66 12 19 36 -21 11
-59 41 -83 66 -39 40 -45 52 -45 89 0 35 -3 42 -21 45 -18 3 -21 -1 -17 -22z"/>
</g>
<g id="part-1" class="char-part">
  <path d="M218 490 c5 -98 9 -92 -63 -107 l-40 -8 53 -3 52 -3 0 -48 0 -49 -65
-27 c-36 -16 -65 -32 -65 -36 0 -5 9 -13 21 -19 17 -10 28 -7 60 14 21 14 41
26 44 26 3 0 5 -26 3 -58 l-3 -57 -34 2 -33 1 33 -34 c18 -19 39 -34 46 -34
22 0 33 46 33 135 0 78 1 84 26 100 30 19 26 32 -5 15 -20 -10 -21 -8 -21 35
0 36 3 45 18 45 9 0 24 5 32 10 13 9 13 11 0 20 -8 5 -23 7 -32 4 -22 -6 -23
12 -7 87 10 47 9 54 -7 66 -10 7 -25 13 -35 13 -15 0 -16 -10 -11 -90z"/>
</g>
<g id="part-2" class="char-part">
  <path d="M485 499 c-82 -10 -154 -18 -159 -18 -5 -1 -1 -10 9 -21 15 -16 18
-36 17 -106 -1 -95 -21 -176 -58 -243 -30 -55 -30 -60 2 -30 57 53 94 168 94
299 0 30 4 61 9 69 11 18 73 28 212 36 132 8 151 11 129 25 -21 13 -80 11
-255 -11z"/>
</g>
<g id="part-3" class="char-part">
  <path d="M523 391 c-20 -47 -24 -50 -67 -56 -25 -4 -43 -11 -40 -16 7 -12 63
-11 123 3 54 12 65 35 15 30 l-29 -3 34 34 c33 35 35 57 3 57 -11 0 -25 -19
-39 -49z"/>
  <path d="M435 380 c16 -31 29 -37 40 -19 8 13 -23 49 -42 49 -11 0 -11 -5 2
-30z"/>
</g>
<g id="part-4" class="char-part">
  <path d="M645 242 c0 -59 -38 -123 -93 -155 -28 -17 -33 -23 -19 -25 27 -5 90
40 112 82 11 20 22 36 25 36 3 0 23 -28 45 -62 42 -65 67 -78 116 -60 23 9 22
10 -17 30 -22 11 -60 41 -84 66 -39 40 -45 52 -45 89 0 34 -4 43 -20 45 -18 2
-20 -3 -20 -46z"/>
</g>
</g>
</svg>