<?xml version="1.0" standalone="no"?>
<!DOCTYPE svg PUBLIC "-//W3C//DTD SVG 20010904//EN"
 "http://www.w3.org/TR/2001/REC-SVG-20010904/DTD/svg10.dtd">
<svg version="1.0" xmlns="http://www.w3.org/2000/svg"
 width="96.000000pt" height="68.000000pt" viewBox="0 0 96.000000 68.000000"
 preserveAspectRatio="xMidYMid meet">
<metadata>
Created by potrace 1.16, written by Peter Selinger 2001-2019
Combined from part_0.svg through part_5.svg with named groups
</metadata>
<g transform="translate(0.000000,68.000000) scale(0.100000,-0.100000)" fill="#000000" stroke="none">
<g id="part-0" class="char-part">
  <path d="M290 609 c-109 -17 -120 -20 -120 -29 0 -6 7 -10 15 -10 19 0 27 -47
23 -135 -3 -70 -3 -70 22 -67 14 2 66 6 115 9 50 3 92 8 95 12 3 4 36 17 75
30 l70 22 14 -20 c7 -12 20 -21 27 -21 8 0 14 -4 14 -10 0 -11 105 -12 134 -1
15 6 9 11 -30 25 -27 9 -69 26 -92 37 -43 19 -44 20 -28 42 9 12 25 39 37 61
17 31 18 40 7 47 -17 11 -18 11 -85 -6 -31 -8 -73 -15 -93 -15 l-35 0 25 -23
c37 -32 73 -86 67 -100 -3 -7 -26 -21 -52 -31 -38 -15 -51 -17 -67 -7 -11 7
-33 9 -53 5 -31 -5 -33 -4 -28 15 3 12 13 21 24 21 17 0 59 52 59 73 0 4 -20
7 -45 7 -25 0 -45 3 -45 8 1 20 22 35 56 41 22 4 39 11 39 16 0 13 -76 15
-145 4z m20 -54 c0 -14 -3 -25 -7 -25 -5 0 -18 -3 -30 -6 -19 -5 -23 -2 -23
19 0 26 11 35 43 36 12 1 17 -7 17 -24z m310 15 c0 -17 -29 -70 -38 -70 -5 0
-21 13 -37 30 -29 30 -28 33 20 43 37 8 55 7 55 -3z m-240 -65 c0 -19 -9 -22
-77 -29 -47 -4 -53 -2 -53 14 0 19 9 22 93 28 28 2 37 -1 37 -13z m-70 -70 c0
-22 -4 -25 -35 -25 -27 0 -35 4 -35 18 0 25 4 27 40 30 26 2 30 -1 30 -23z"/>
  <path d="M370 350 c-8 -11 -27 -24 -43 -29 -42 -15 -24 -31 36 -31 l52 -1 -24
-19 c-13 -11 -19 -20 -15 -20 23 0 184 76 184 86 0 20 -42 29 -52 11 -15 -28
-71 -56 -101 -50 -40 8 -42 20 -7 38 17 9 28 20 25 25 -10 17 -40 11 -55 -10z"/>
  <path d="M520 272 c0 -4 5 -13 12 -20 7 -7 8 -12 3 -13 -6 0 -46 -4 -90 -9
-52 -5 -84 -4 -92 2 -14 11 -73 -7 -73 -22 0 -22 29 -30 71 -21 79 19 79 19
79 -54 0 -67 -2 -70 -45 -65 -17 1 -15 -4 13 -32 26 -27 35 -31 50 -22 13 9
18 30 22 105 l5 93 38 8 c29 6 42 4 53 -7 23 -23 46 -19 42 7 -4 29 -88 77
-88 50z"/>
  <path d="M546 163 c-2 -3 17 -28 44 -56 36 -38 52 -49 61 -40 24 24 5 55 -48
78 -28 13 -54 21 -57 18z"/>
  <path d="M285 141 c-3 -11 -23 -34 -43 -51 -49 -40 -19 -39 42 1 29 20 46 38
44 48 -5 24 -35 25 -43 2z"/>
</g>
<g id="part-1" class="char-part">
  <path d="M272 602 c-95 -14 -101 -16 -81 -30 19 -13 21 -22 17 -106 l-3 -91
30 2 c223 17 221 17 195 34 -15 10 -59 8 -147 -7 l-43 -7 0 54 c0 30 3 70 6
90 l6 36 67 7 c36 3 77 9 90 13 23 6 23 7 5 14 -23 9 -17 10 -142 -9z"/>
</g>
<g id="part-2" class="char-part">
  <path d="M605 600 c-11 -4 -49 -11 -85 -15 l-65 -7 47 -48 c27 -26 48 -54 48
-62 0 -9 -25 -27 -57 -42 -48 -22 -52 -26 -23 -20 19 3 50 12 68 20 32 13 36
12 69 -13 38 -29 135 -44 168 -25 15 8 9 12 -36 27 -30 10 -71 26 -91 36 l-38
19 36 56 c20 30 33 62 30 70 -6 15 -40 17 -71 4z m15 -30 c0 -17 -29 -70 -38
-70 -5 0 -21 13 -36 29 l-28 29 29 10 c37 14 73 15 73 2z"/>
</g>
<g id="part-3" class="char-part">
  <path d="M374 359 c-10 -12 -31 -28 -47 -35 -40 -21 -24 -34 41 -33 55 1 56 1
22 11 l-35 10 38 20 c32 16 36 22 26 34 -15 19 -22 18 -45 -7z"/>
</g>
<g id="part-4" class="char-part">
  <path d="M485 329 c-16 -16 -68 -48 -115 -71 -103 -50 -97 -45 -78 -64 14 -14
27 -13 137 11 113 25 123 26 140 11 25 -23 43 -20 39 6 -2 14 -16 29 -38 40
-50 24 -68 23 -45 -2 10 -11 16 -20 14 -21 -23 -5 -189 -13 -189 -8 0 3 47 25
105 49 76 32 105 48 103 60 -5 25 -41 20 -73 -11z"/>
</g>
<g id="part-5" class="char-part">
  <path d="M434 133 c1 -63 -1 -68 -22 -71 -12 -2 -20 -8 -16 -13 3 -5 10 -6 16
-3 6 4 8 2 5 -3 -4 -6 -1 -16 7 -22 10 -8 17 -6 31 9 10 11 14 20 8 20 -6 0
-8 14 -4 38 11 59 6 107 -11 110 -11 2 -14 -11 -14 -65z"/>
  <path d="M567 140 c10 -10 21 -16 26 -13 4 2 7 -3 7 -11 0 -14 36 -46 52 -46
5 0 8 7 8 16 0 8 -4 12 -10 9 -6 -3 -7 1 -4 9 4 11 0 16 -10 16 -9 0 -16 3
-16 8 0 4 -16 12 -35 18 -34 11 -35 10 -18 -6z"/>
  <path d="M285 140 c-3 -5 -3 -10 1 -10 4 0 -7 -13 -25 -29 -33 -30 -25 -36 17
-12 17 9 22 19 19 32 -4 15 -2 18 7 10 14 -12 29 -4 20 10 -7 12 -31 11 -39
-1z"/>
</g>
</g>
</svg>