<?xml version="1.0" standalone="no"?>
<!DOCTYPE svg PUBLIC "-//W3C//DTD SVG 20010904//EN"
 "http://www.w3.org/TR/2001/REC-SVG-20010904/DTD/svg10.dtd">
<svg version="1.0" xmlns="http://www.w3.org/2000/svg"
 width="96.000000pt" height="68.000000pt" viewBox="0 0 96.000000 68.000000"
 preserveAspectRatio="xMidYMid meet">
<metadata>
Created by potrace 1.16, written by Peter Selinger 2001-2019
Combined from part_0.svg through part_5.svg with named groups
</metadata>
<g transform="translate(0.000000,68.000000) scale(0.100000,-0.100000)" fill="#000000" stroke="none">
<g id="part-0" class="char-part">
  <path d="M305 537 c-16 -13 -56 -34 -87 -47 -57 -23 -80 -47 -35 -37 85 20 86
20 92 -6 4 -14 5 -36 3 -48 -3 -22 -10 -25 -80 -35 -43 -5 -80 -13 -84 -17
-13 -13 50 -19 92 -10 25 6 47 6 50 2 8 -14 -50 -92 -102 -138 -26 -23 -40
-41 -33 -41 20 0 56 25 112 79 l48 46 -7 -60 c-3 -33 -10 -80 -14 -104 -8 -44
4 -91 22 -91 17 0 25 47 27 155 1 60 4 111 6 113 1 2 16 -11 33 -29 19 -21 35
-30 46 -26 29 11 17 34 -29 52 -60 25 -74 65 -22 65 33 0 67 11 67 21 0 5 -21
9 -46 9 l-46 0 6 34 c5 24 2 39 -9 49 -13 14 -10 16 28 22 68 11 85 34 42 53
-36 17 -46 15 -80 -11z"/>
  <path d="M540 530 c0 -35 -39 -99 -96 -158 -30 -31 -54 -58 -54 -60 0 -14 73
45 126 102 36 38 66 67 69 65 2 -2 38 -37 78 -76 73 -71 76 -73 125 -73 55 0
76 14 40 26 -97 30 -215 111 -241 164 -16 32 -47 39 -47 10z"/>
  <path d="M540 373 c-39 -7 -48 -23 -14 -24 76 -3 128 7 119 22 -6 9 -59 10
-105 2z"/>
  <path d="M560 308 c-36 -5 -76 -12 -90 -14 -23 -5 -23 -6 -6 -16 17 -10 75 -2
149 18 25 8 21 -9 -10 -40 -14 -14 -24 -28 -22 -31 3 -2 33 10 68 28 l63 31
-22 18 c-24 19 -32 20 -130 6z"/>
  <path d="M690 210 c0 -6 3 -10 8 -10 4 0 23 -13 42 -30 25 -22 37 -26 47 -18
19 15 16 26 -9 42 -30 18 -88 28 -88 16z"/>
  <path d="M459 158 c13 -29 34 -54 66 -76 43 -29 54 -32 126 -32 115 0 160 27
104 64 -14 9 -36 23 -50 32 l-25 17 2 -34 3 -34 -60 -3 c-74 -4 -115 15 -141
66 -28 53 -48 53 -25 0z"/>
  <path d="M552 168 c29 -38 43 -44 52 -23 7 20 -28 55 -55 55 -21 0 -21 0 3
-32z"/>
  <path d="M371 156 c-24 -39 -27 -66 -7 -66 31 0 62 79 37 94 -5 4 -19 -9 -30
-28z"/>
</g>
<g id="part-1" class="char-part">
  <path d="M316 534 c-20 -14 -62 -35 -93 -47 -84 -32 -40 -33 70 -2 130 37 121
33 108 49 -21 25 -49 24 -85 0z"/>
</g>
<g id="part-2" class="char-part">
  <path d="M276 432 c7 -57 9 -56 -86 -67 -30 -4 -62 -11 -70 -15 -26 -15 40
-24 92 -13 29 6 48 6 48 0 0 -15 -78 -108 -121 -145 -22 -19 -38 -36 -35 -39
10 -10 88 40 132 85 45 47 46 47 40 17 -29 -162 -19 -264 20 -211 10 15 14 51
14 140 l0 120 34 -33 c23 -22 40 -31 51 -27 26 10 13 29 -35 54 -63 32 -60 54
8 65 62 10 60 27 -3 27 l-44 0 2 43 c2 39 0 42 -26 45 l-28 3 7 -49z"/>
</g>
<g id="part-3" class="char-part">
  <path d="M540 528 c0 -31 -47 -105 -108 -170 -45 -50 -46 -51 -13 -32 39 22
82 62 128 119 l33 40 78 -78 c74 -73 80 -77 122 -77 75 0 78 14 10 40 -70 26
-184 110 -203 149 -16 35 -47 41 -47 9z"/>
</g>
<g id="part-4" class="char-part">
  <path d="M540 373 c-50 -9 -44 -23 11 -23 63 0 101 9 93 21 -5 9 -58 10 -104
2z"/>
</g>
<g id="part-5" class="char-part">
  <path d="M450 190 c1 -8 7 -24 15 -34 19 -25 19 -16 0 20 -8 16 -15 22 -15 14z"/>
  <path d="M550 180 c15 -28 30 -34 30 -12 0 11 -9 22 -20 25 -17 4 -18 2 -10
-13z"/>
  <path d="M750 185 c-7 -8 -11 -15 -9 -16 2 0 14 -2 26 -3 19 -2 21 0 11 13 -7
9 -13 17 -14 19 -1 1 -7 -4 -14 -13z"/>
  <path d="M373 150 c-26 -32 -29 -50 -9 -50 17 0 38 24 29 33 -3 4 -1 7 5 7 13
0 16 26 5 33 -5 2 -18 -8 -30 -23z"/>
  <path d="M591 154 c0 -11 3 -14 6 -6 3 7 2 16 -1 19 -3 4 -6 -2 -5 -13z"/>
  <path d="M687 138 c14 -24 12 -40 -8 -45 -10 -3 -19 -8 -19 -12 0 -3 -23 -6
-51 -7 -34 -1 -46 2 -37 8 10 7 9 8 -4 4 -10 -3 -30 5 -48 20 -16 14 -30 21
-30 15 0 -5 16 -22 35 -37 30 -22 47 -27 110 -30 54 -2 73 0 69 8 -5 8 -1 9
11 4 23 -9 55 2 55 18 0 7 -18 25 -40 40 -44 29 -55 32 -43 14z m73 -50 c0 -5
-5 -6 -11 -2 -6 3 -14 2 -18 -4 -4 -7 -12 -8 -21 -2 -13 8 -12 10 3 10 9 0 17
4 17 10 0 5 7 7 15 4 8 -4 15 -10 15 -16z"/>
</g>
</g>
</svg>