<?xml version="1.0" standalone="no"?>
<!DOCTYPE svg PUBLIC "-//W3C//DTD SVG 20010904//EN"
 "http://www.w3.org/TR/2001/REC-SVG-20010904/DTD/svg10.dtd">
<svg version="1.0" xmlns="http://www.w3.org/2000/svg"
 width="96.000000pt" height="68.000000pt" viewBox="0 0 96.000000 68.000000"
 preserveAspectRatio="xMidYMid meet">
<metadata>
Created by potrace 1.16, written by Peter Selinger 2001-2019
Combined from part_0.svg through part_5.svg with named groups
</metadata>
<g transform="translate(0.000000,68.000000) scale(0.100000,-0.100000)" fill="#000000" stroke="none">
<g id="part-0" class="char-part">
  <path d="M414 606 c-3 -9 -1 -23 6 -31 12 -14 41 -127 35 -133 -2 -2 -38 -8
-80 -13 -42 -4 -87 -11 -98 -15 -12 -4 -35 -7 -51 -6 l-28 1 21 -23 c42 -45
16 -187 -50 -269 -38 -47 -31 -59 15 -24 32 25 96 133 96 163 0 15 24 23 80
27 l35 2 -4 -44 c-2 -25 -10 -56 -19 -69 -13 -19 -21 -23 -46 -18 l-31 6 27
-26 c41 -41 72 -28 92 38 9 29 21 68 27 87 15 45 1 53 -83 45 l-68 -6 0 28 c0
16 4 35 9 43 12 18 151 33 167 17 7 -6 24 -45 39 -86 14 -41 33 -85 41 -97 13
-21 11 -25 -44 -70 -32 -26 -69 -55 -82 -64 -14 -9 -22 -20 -18 -24 9 -9 90
28 144 67 45 32 46 33 62 13 43 -52 173 -115 209 -101 14 6 13 44 -6 136 l-8
35 -13 -44 c-8 -23 -19 -45 -26 -48 -15 -6 -59 17 -103 54 l-34 29 46 64 c26
35 47 66 47 70 -1 17 -21 31 -53 37 -37 6 -37 6 -37 -31 0 -20 -7 -51 -16 -69
l-17 -32 -16 25 c-17 26 -73 152 -69 155 2 1 32 6 68 11 47 7 65 13 65 24 0
12 -14 15 -70 15 l-70 0 -3 67 c-3 70 -10 82 -54 93 -21 5 -29 3 -34 -9z"/>
  <path d="M611 563 c2 -5 23 -26 46 -47 46 -41 76 -44 81 -9 2 16 -5 25 -30 37
-43 19 -101 31 -97 19z"/>
</g>
<g id="part-1" class="char-part">
  <path d="M430 568 c10 -24 21 -64 22 -89 l3 -44 -77 -9 c-57 -7 -78 -13 -78
-24 0 -12 15 -13 88 -7 l87 7 24 -74 c13 -40 32 -88 43 -106 11 -18 17 -39 14
-47 -3 -8 -37 -38 -75 -66 -39 -29 -69 -55 -67 -57 8 -7 98 38 136 68 l38 30
28 -25 c70 -65 160 -106 198 -92 12 5 13 13 5 39 -5 18 -9 48 -9 66 0 40 -15
35 -23 -8 -5 -24 -11 -30 -33 -30 -34 0 -138 76 -127 93 3 7 24 35 45 64 45
61 47 76 13 91 -38 17 -45 15 -45 -15 0 -29 -34 -113 -45 -113 -7 0 -85 163
-85 178 0 10 17 15 98 27 23 4 42 11 42 16 0 16 -51 22 -96 12 -24 -6 -46 -8
-49 -5 -3 3 -5 33 -5 66 0 74 -6 85 -53 93 l-37 6 20 -45z"/>
  <path d="M655 525 c46 -40 75 -45 75 -14 0 22 -51 49 -92 49 -21 -1 -19 -4 17
-35z"/>
</g>
<g id="part-2" class="char-part">
  <path d="M243 413 c-48 -5 -53 -12 -22 -31 19 -12 21 -20 16 -80 -6 -81 -33
-146 -83 -201 -24 -28 -30 -39 -18 -35 61 22 122 99 142 179 15 58 25 175 15
173 -4 -1 -27 -3 -50 -5z"/>
</g>
<g id="part-3" class="char-part">
  <path d="M343 306 c-34 -6 -53 -15 -53 -23 0 -9 7 -12 18 -10 86 24 96 18 82
-51 -13 -61 -30 -77 -67 -67 l-28 7 24 -26 c48 -51 81 -26 112 84 11 40 16 76
12 80 -15 15 -48 17 -100 6z"/>
</g>
</g>
</svg>