<?xml version="1.0" standalone="no"?>
<!DOCTYPE svg PUBLIC "-//W3C//DTD SVG 20010904//EN"
 "http://www.w3.org/TR/2001/REC-SVG-20010904/DTD/svg10.dtd">
<svg version="1.0" xmlns="http://www.w3.org/2000/svg"
 width="96.000000pt" height="68.000000pt" viewBox="0 0 96.000000 68.000000"
 preserveAspectRatio="xMidYMid meet">
<metadata>
Created by potrace 1.16, written by Peter Selinger 2001-2019
Combined from part_0.svg through part_5.svg with named groups
</metadata>
<g transform="translate(0.000000,68.000000) scale(0.100000,-0.100000)" fill="#000000" stroke="none">
<g id="part-0" class="char-part">
  <path d="M430 614 c0 -4 14 -23 32 -41 l32 -33 -25 -1 c-30 -2 -42 -3 -154
-18 -49 -7 -91 -14 -93 -16 -2 -2 6 -8 17 -15 28 -14 28 -88 2 -193 -24 -92
-51 -147 -103 -210 -44 -53 -44 -70 -1 -42 58 37 115 118 139 198 10 31 21 57
25 57 4 0 30 16 59 35 29 19 53 35 54 35 1 0 0 -16 -2 -35 -3 -27 -1 -35 12
-35 12 0 16 10 16 40 0 40 0 40 23 25 13 -8 27 -12 31 -8 4 4 11 1 16 -6 7
-12 13 -12 38 -2 17 7 33 19 36 27 12 30 27 14 20 -22 -5 -25 -3 -39 7 -44 21
-13 29 -2 29 41 l0 40 37 -30 c33 -27 45 -31 97 -31 70 0 65 9 -19 34 -57 18
-104 43 -105 58 0 3 23 9 50 13 70 10 65 29 -5 22 -51 -5 -54 -4 -52 16 2 17
-4 23 -25 25 -29 3 -36 -6 -17 -25 16 -16 2 -33 -27 -33 -13 0 -24 -5 -24 -11
0 -5 4 -8 9 -4 5 3 13 1 16 -5 4 -6 -6 -22 -22 -36 -29 -25 -43 -30 -43 -15 0
5 -17 16 -37 24 -39 16 -37 19 22 32 26 6 27 8 12 16 -10 6 -26 7 -37 4 -16
-5 -20 -2 -20 15 0 11 -8 24 -17 28 -10 4 49 12 131 17 103 7 151 14 154 22 7
24 -49 35 -125 26 -69 -9 -71 -8 -61 10 7 14 6 23 -4 32 -15 15 -98 31 -98 19z
m-20 -139 c18 -22 8 -37 -36 -51 -35 -11 -36 -12 -11 -13 37 -1 34 -17 -10
-57 -43 -40 -57 -43 -50 -11 3 12 9 45 13 72 3 28 11 56 16 63 14 17 63 15 78
-3z"/>
  <path d="M475 273 c-73 -31 -77 -33 -40 -31 34 3 40 0 43 -18 3 -24 -19 -34
-75 -34 -17 0 -35 -5 -38 -11 -5 -7 9 -10 41 -9 70 2 74 2 74 -14 0 -18 -16
-23 -95 -32 -33 -3 -69 -10 -80 -14 -37 -15 29 -23 85 -11 81 17 90 15 90 -19
0 -24 7 -33 40 -50 67 -34 282 -23 297 16 2 6 -1 31 -7 55 l-12 44 -19 -37
c-26 -51 -44 -58 -144 -58 -97 0 -125 10 -125 44 0 23 4 24 105 31 58 4 105
11 105 15 0 21 -66 29 -130 15 -37 -8 -69 -10 -74 -5 -16 16 3 40 32 40 46 0
92 11 92 23 0 6 -22 8 -60 4 -34 -4 -60 -3 -60 2 0 5 -3 16 -6 24 -4 11 5 17
35 22 48 8 59 20 32 34 -11 6 -21 10 -23 10 -2 -1 -39 -17 -83 -36z"/>
</g>
<g id="part-1" class="char-part">
  <path d="M440 612 c0 -4 12 -19 25 -34 30 -35 68 -38 63 -6 -2 16 -14 25 -45
34 -24 7 -43 10 -43 6z"/>
  <path d="M450 532 c-113 -14 -207 -26 -210 -29 -2 -2 2 -8 10 -13 33 -21 2
-217 -50 -321 -10 -19 -35 -55 -54 -78 -20 -24 -36 -45 -36 -47 0 -13 23 1 63
39 72 69 111 163 137 324 7 40 16 76 21 79 9 5 109 15 302 29 48 4 87 10 87
14 0 4 -15 12 -32 17 -24 7 -91 3 -238 -14z"/>
</g>
<g id="part-2" class="char-part">
  <path d="M590 493 c0 -5 5 -14 11 -20 17 -17 1 -33 -32 -33 -16 0 -29 -5 -29
-11 0 -7 10 -9 26 -5 l26 7 -21 -27 c-12 -15 -36 -38 -53 -51 -33 -24 -17 -33
17 -10 11 8 33 22 48 32 l28 18 -3 -44 c-2 -34 1 -44 12 -44 11 0 16 13 18 43
l3 43 35 -30 c31 -28 42 -31 99 -31 36 0 65 2 65 4 0 3 -26 12 -57 21 -61 18
-133 53 -133 66 0 4 23 10 50 14 69 9 65 29 -5 23 -50 -4 -54 -3 -52 16 2 16
-4 22 -25 24 -16 2 -28 -1 -28 -5z"/>
</g>
<g id="part-3" class="char-part">
  <path d="M520 290 c-19 -11 -59 -27 -88 -36 -30 -9 -52 -17 -50 -19 3 -4 184
32 208 41 12 4 12 8 -4 20 -24 17 -23 17 -66 -6z"/>
</g>
<g id="part-4" class="char-part">
  <path d="M475 229 c9 -28 -9 -39 -67 -39 -28 0 -48 -5 -48 -11 0 -6 22 -9 57
-8 47 2 59 0 61 -14 4 -18 -4 -21 -118 -37 -41 -6 -76 -12 -78 -14 -11 -12 66
-16 113 -6 30 6 69 9 85 5 18 -4 30 -2 30 3 0 6 45 14 100 18 55 3 103 10 105
14 3 5 -8 13 -24 18 -26 9 -43 8 -153 -12 -23 -5 -28 -2 -28 14 0 20 12 26 83
36 70 10 60 28 -12 21 -53 -6 -59 -4 -64 13 -3 12 -14 20 -27 20 -17 0 -20 -4
-15 -21z"/>
</g>
<g id="part-5" class="char-part">
  <path d="M780 96 c0 -8 -9 -21 -20 -29 -11 -8 -18 -16 -15 -19 5 -5 -207 -3
-233 3 -6 1 -11 9 -10 17 2 8 -3 17 -9 19 -19 7 -16 -22 5 -39 33 -30 232 -54
232 -28 0 6 16 10 35 10 27 0 35 4 35 18 0 14 2 15 10 2 13 -20 12 -10 -1 29
-11 32 -29 42 -29 17z m-143 -72 c-3 -3 -12 -4 -19 -1 -8 3 -5 6 6 6 11 1 17
-2 13 -5z"/>
</g>
</g>
</svg>