<?xml version="1.0" standalone="no"?>
<!DOCTYPE svg PUBLIC "-//W3C//DTD SVG 20010904//EN"
 "http://www.w3.org/TR/2001/REC-SVG-20010904/DTD/svg10.dtd">
<svg version="1.0" xmlns="http://www.w3.org/2000/svg"
 width="96.000000pt" height="68.000000pt" viewBox="0 0 96.000000 68.000000"
 preserveAspectRatio="xMidYMid meet">
<metadata>
Created by potrace 1.16, written by Peter Selinger 2001-2019
Combined from part_0.svg through part_5.svg with named groups
</metadata>
<g transform="translate(0.000000,68.000000) scale(0.100000,-0.100000)" fill="#000000" stroke="none">
<g id="part-0" class="char-part">
  <path d="M290 542 c0 -49 -145 -252 -174 -244 -6 2 -8 0 -4 -3 4 -4 -3 -16
-15 -27 l-22 -19 29 6 c27 6 106 60 114 77 11 25 82 -3 82 -32 0 -15 -10 -20
-47 -26 -27 -3 -55 -10 -63 -15 -24 -12 11 -22 65 -17 l45 3 0 -57 0 -56 -50
-11 c-28 -6 -69 -11 -90 -11 -22 0 -40 -4 -40 -9 0 -15 42 -41 65 -40 37 0
269 84 273 98 4 11 -4 12 -34 7 l-39 -7 33 22 c17 11 32 24 32 28 0 11 -23 31
-35 31 -14 0 -47 -68 -40 -81 4 -5 -1 -9 -10 -9 -13 0 -15 10 -13 52 3 52 3
52 43 60 22 5 44 13 49 18 10 10 -58 25 -73 15 -7 -4 -11 5 -11 24 0 23 5 31
18 31 10 0 27 6 38 14 33 25 -6 30 -85 12 -38 -9 -72 -16 -74 -16 -3 0 16 32
41 70 l46 70 32 -31 c35 -34 69 -36 69 -4 0 14 -14 27 -44 41 -25 12 -48 31
-53 43 -5 14 -16 21 -33 21 -21 0 -25 -5 -25 -28z"/>
  <path d="M670 438 c0 -99 3 -109 37 -127 26 -14 112 -14 133 -1 24 16 -6 30
-66 30 -32 0 -54 5 -56 13 -3 6 -1 45 3 86 4 41 6 78 3 83 -3 4 -16 8 -30 8
-24 0 -24 -1 -24 -92z"/>
  <path d="M517 488 c26 -42 12 -136 -27 -177 -35 -36 -37 -41 -11 -34 42 11 75
61 87 131 12 74 6 92 -33 92 -17 0 -22 -4 -16 -12z"/>
  <path d="M691 239 c-24 -4 -80 -10 -125 -13 -99 -6 -94 -5 -78 -15 8 -4 21
-39 31 -77 15 -57 21 -69 37 -67 10 1 63 5 117 9 78 6 97 10 93 21 -3 8 6 37
19 65 20 42 23 55 13 64 -19 19 -57 23 -107 13z m37 -69 c-3 -28 -8 -54 -12
-58 -4 -3 -40 -8 -81 -10 -80 -4 -75 -8 -90 65 -7 36 -1 40 85 46 114 9 103
13 98 -43z"/>
  <path d="M180 203 c0 -12 53 -63 66 -63 22 0 23 39 1 55 -22 15 -67 21 -67 8z"/>
</g>
<g id="part-1" class="char-part">
  <path d="M296 558 c-3 -7 -7 -26 -11 -42 -9 -41 -69 -129 -139 -203 -78 -84
-54 -82 47 3 31 26 43 30 70 25 27 -6 32 -12 35 -38 l3 -31 -62 -7 c-48 -6
-58 -10 -45 -17 10 -6 38 -7 62 -3 41 6 44 5 44 -17 0 -13 3 -39 6 -59 6 -36
6 -36 -39 -48 -25 -6 -70 -11 -99 -11 l-53 -1 29 -25 c34 -30 26 -31 196 27
79 28 117 45 102 47 -12 2 -38 -2 -58 -8 -19 -7 -38 -10 -40 -7 -3 3 -3 30 1
60 7 58 17 67 73 67 12 0 22 5 22 10 0 6 -20 10 -45 10 -43 0 -45 1 -45 30 0
25 4 30 35 36 35 6 46 19 23 27 -7 2 -35 -2 -63 -9 -56 -15 -99 -18 -93 -6 12
25 84 132 90 132 4 0 22 -13 40 -30 39 -36 61 -39 56 -7 -2 15 -17 28 -45 42
-24 11 -43 25 -43 32 0 7 -9 17 -19 23 -25 13 -31 13 -35 -2z"/>
  <path d="M397 223 c-2 -10 -8 -26 -12 -35 -9 -23 4 -22 35 1 20 16 22 21 11
35 -17 21 -27 20 -34 -1z"/>
  <path d="M191 193 c33 -44 69 -57 69 -25 0 19 -37 42 -67 42 -13 0 -13 -3 -2
-17z"/>
</g>
<g id="part-2" class="char-part">
  <path d="M670 431 c0 -92 2 -101 22 -115 24 -17 143 -23 152 -7 11 18 -22 32
-61 25 -59 -9 -75 11 -66 84 12 100 11 107 -19 110 l-28 3 0 -100z"/>
  <path d="M525 431 c0 -62 -3 -74 -33 -117 l-34 -47 33 19 c48 29 68 62 78 134
9 67 4 80 -29 80 -12 0 -15 -14 -15 -69z"/>
</g>
<g id="part-3" class="char-part">
  <path d="M690 239 c-19 -5 -74 -10 -122 -11 -86 -3 -87 -3 -73 -24 7 -11 19
-49 26 -83 11 -56 14 -62 33 -57 12 2 64 8 117 12 90 6 97 8 97 28 0 12 9 42
21 66 17 36 19 47 8 57 -17 18 -66 23 -107 12z m38 -69 c-3 -28 -8 -54 -12
-58 -4 -3 -40 -8 -81 -10 -80 -4 -75 -8 -90 65 -7 35 -3 37 95 46 98 10 93 13
88 -43z"/>
</g>
</g>
</svg>