<?xml version="1.0" standalone="no"?>
<!DOCTYPE svg PUBLIC "-//W3C//DTD SVG 20010904//EN"
 "http://www.w3.org/TR/2001/REC-SVG-20010904/DTD/svg10.dtd">
<svg version="1.0" xmlns="http://www.w3.org/2000/svg"
 width="96.000000pt" height="68.000000pt" viewBox="0 0 96.000000 68.000000"
 preserveAspectRatio="xMidYMid meet">
<metadata>
Created by potrace 1.16, written by Peter Selinger 2001-2019
Combined from part_0.svg through part_5.svg with named groups
</metadata>
<g transform="translate(0.000000,68.000000) scale(0.100000,-0.100000)" fill="#000000" stroke="none">
<g id="part-0" class="char-part">
  <path d="M395 528 c-110 -17 -202 -32 -204 -33 -1 -2 0 -9 4 -16 6 -8 28 -10
84 -4 42 4 87 8 101 9 l25 1 5 -116 c7 -156 8 -152 -41 -130 -62 28 -66 35
-41 79 l21 38 -33 12 c-45 17 -46 16 -46 -19 0 -50 -39 -118 -107 -186 -33
-35 -58 -63 -54 -63 18 0 110 67 148 109 36 38 45 44 60 35 120 -74 294 -167
320 -171 37 -6 191 15 198 28 3 4 -16 11 -42 14 -116 15 -219 38 -269 58 l-54
22 0 117 c0 64 4 128 10 142 7 20 6 27 -7 35 -12 6 1 11 50 16 38 4 71 5 74 1
4 -3 -3 -20 -16 -36 -14 -20 -17 -30 -9 -30 25 0 138 55 138 67 0 15 -72 53
-97 52 -10 -1 -108 -15 -218 -31z"/>
  <path d="M516 361 c-16 -3 -31 -12 -34 -20 -4 -12 6 -13 55 -8 70 7 95 16 87
28 -6 10 -63 10 -108 0z"/>
</g>
<g id="part-1" class="char-part">
  <path d="M378 521 c-97 -15 -180 -29 -183 -33 -23 -23 73 -16 325 22 36 5 68
10 73 10 12 0 8 -30 -9 -55 -9 -14 -14 -25 -12 -25 11 0 138 60 138 65 0 3
-15 14 -32 25 -42 25 -78 24 -300 -9z"/>
</g>
<g id="part-2" class="char-part">
  <path d="M420 494 c-13 -4 -15 -26 -12 -138 3 -131 3 -133 28 -145 14 -6 27
-11 29 -11 3 0 5 29 5 63 l0 64 77 9 c75 9 104 26 63 37 -11 3 -35 2 -53 -3
-92 -23 -87 -25 -87 20 0 23 5 51 11 62 9 18 8 24 -7 35 -18 13 -26 14 -54 7z"/>
</g>
<g id="part-3" class="char-part">
  <path d="M270 350 c0 -48 -48 -130 -113 -192 -32 -32 -56 -58 -53 -58 26 0
111 58 148 101 l46 53 133 -76 c184 -104 193 -108 236 -108 38 1 160 24 169
32 2 3 -54 14 -124 26 -123 21 -242 61 -364 123 -44 22 -46 31 -17 67 l20 27
-21 17 c-35 29 -60 23 -60 -12z"/>
</g>
</g>
</svg>