<?xml version="1.0" standalone="no"?>
<!DOCTYPE svg PUBLIC "-//W3C//DTD SVG 20010904//EN"
 "http://www.w3.org/TR/2001/REC-SVG-20010904/DTD/svg10.dtd">
<svg version="1.0" xmlns="http://www.w3.org/2000/svg"
 width="96.000000pt" height="68.000000pt" viewBox="0 0 96.000000 68.000000"
 preserveAspectRatio="xMidYMid meet">
<metadata>
Created by potrace 1.16, written by Peter Selinger 2001-2019
Combined from part_0.svg through part_5.svg with named groups
</metadata>
<g transform="translate(0.000000,68.000000) scale(0.100000,-0.100000)" fill="#000000" stroke="none">
<g id="part-0" class="char-part">
  <path d="M280 585 c0 -25 -43 -86 -94 -133 -26 -24 -45 -47 -41 -50 12 -13 93
40 151 99 49 49 57 62 48 77 -15 23 -64 29 -64 7z"/>
  <path d="M550 564 c-25 -8 -56 -13 -70 -10 -24 4 -25 3 -25 -52 0 -40 -7 -70
-22 -99 -26 -49 -18 -55 20 -15 17 17 31 50 40 87 12 54 17 61 43 66 72 16 74
14 74 -48 1 -84 15 -98 98 -98 53 0 67 3 67 15 0 11 -14 15 -58 16 -32 1 -63
6 -68 11 -12 12 -1 83 12 83 5 0 9 11 9 24 0 38 -42 45 -120 20z"/>
  <path d="M287 412 c-21 -44 -68 -97 -138 -152 -68 -54 -46 -51 35 5 36 24 67
41 69 37 9 -18 6 -92 -6 -138 -18 -70 1 -128 31 -91 12 14 20 223 9 234 -15
14 -5 36 35 74 42 40 42 51 3 62 -16 5 -24 -2 -38 -31z"/>
  <path d="M555 335 c-27 -7 -67 -14 -87 -14 -47 -1 -56 -16 -21 -35 15 -8 45
-32 67 -52 l38 -38 -25 -22 c-26 -22 -125 -64 -152 -64 -8 0 -15 -4 -15 -10 0
-5 4 -10 10 -10 18 0 165 51 185 64 19 13 25 10 71 -31 l49 -45 80 7 c88 7
115 19 63 30 -74 15 -167 46 -188 63 l-22 18 37 54 c20 30 42 58 48 62 7 4 7
11 -2 22 -16 19 -65 19 -136 1z m55 -32 c0 -10 -9 -33 -20 -51 l-20 -33 -40
31 c-22 18 -40 35 -40 39 0 8 68 27 103 30 10 1 17 -6 17 -16z"/>
</g>
<g id="part-1" class="char-part">
  <path d="M287 593 c-2 -4 -7 -19 -10 -33 -4 -14 -31 -52 -62 -85 -58 -63 -60
-65 -47 -65 38 0 195 152 176 170 -14 13 -52 22 -57 13z"/>
</g>
<g id="part-2" class="char-part">
  <path d="M292 421 c-13 -37 -86 -117 -153 -168 -27 -20 -47 -39 -45 -41 6 -6
46 17 102 59 29 21 54 35 58 32 11 -11 6 -87 -8 -143 -9 -35 -11 -62 -5 -77
10 -27 35 -30 43 -5 9 31 11 227 2 240 -6 10 5 28 35 58 44 45 44 56 3 68 -18
5 -24 1 -32 -23z"/>
</g>
<g id="part-3" class="char-part">
  <path d="M454 503 c0 -39 -7 -72 -22 -100 -26 -50 -17 -55 22 -14 19 20 33 51
43 91 8 35 13 64 11 65 -2 2 -14 6 -28 10 -24 6 -25 5 -26 -52z"/>
</g>
<g id="part-4" class="char-part">
  <path d="M553 567 c-59 -15 -54 -29 7 -21 l50 7 0 -61 c0 -85 26 -107 121
-100 31 2 44 7 44 18 0 12 -13 15 -55 15 -85 0 -96 16 -60 90 18 37 18 41 3
53 -19 14 -50 14 -110 -1z"/>
</g>
<g id="part-5" class="char-part">
  <path d="M635 340 c6 -10 1 -12 -21 -7 -16 3 -23 4 -16 1 6 -3 12 -13 12 -23
0 -9 6 -23 13 -30 10 -10 9 -12 -3 -9 -10 2 -14 -3 -12 -16 2 -10 -1 -15 -7
-11 -7 4 -8 0 -4 -11 4 -11 3 -15 -5 -10 -6 3 -14 2 -17 -4 -5 -8 -12 -7 -23
2 -12 10 -14 10 -8 1 13 -23 15 -52 3 -47 -7 2 -18 -5 -25 -16 -15 -25 -4 -25
27 -1 25 19 25 19 70 -17 25 -21 52 -43 59 -49 7 -7 19 -13 25 -13 7 0 6 4 -3
10 -12 7 -10 9 7 7 12 0 19 -5 16 -10 -3 -5 4 -6 16 -2 11 3 34 7 50 7 25 1
27 3 15 15 -7 8 -19 11 -24 8 -6 -4 -16 -2 -23 3 -7 5 -33 16 -59 25 -35 11
-48 12 -52 4 -2 -7 -5 -4 -5 6 -1 9 -5 17 -11 17 -20 0 -25 3 -39 22 -7 11
-10 22 -7 25 3 4 6 1 6 -5 0 -7 5 -12 11 -12 5 0 7 5 4 10 -3 6 -2 10 3 10 4
0 19 14 31 31 13 18 17 29 10 25 -8 -4 -5 0 5 8 11 9 16 16 11 16 -5 0 -1 6 7
13 15 10 15 14 2 25 -11 11 -14 10 -14 -2 0 -8 -4 -18 -10 -21 -5 -3 -7 0 -4
8 3 8 0 18 -7 23 -8 5 -10 3 -4 -6z"/>
  <path d="M516 321 c-35 -14 -2 -19 34 -5 30 11 32 12 10 13 -14 0 -34 -4 -44
-8z"/>
  <path d="M456 311 c-4 -6 -14 -8 -24 -5 -9 2 -6 -1 8 -8 14 -7 33 -22 42 -33
10 -11 17 -16 18 -11 0 6 7 1 15 -10 8 -10 15 -14 15 -7 0 13 -19 28 -35 28
-5 0 -10 11 -10 24 0 26 -19 39 -29 22z"/>
  <path d="M458 123 c7 -3 16 -2 19 1 4 3 -2 6 -13 5 -11 0 -14 -3 -6 -6z"/>
  <path d="M418 113 c7 -3 16 -2 19 1 4 3 -2 6 -13 5 -11 0 -14 -3 -6 -6z"/>
</g>
</g>
</svg>