<?xml version="1.0" standalone="no"?>
<!DOCTYPE svg PUBLIC "-//W3C//DTD SVG 20010904//EN"
 "http://www.w3.org/TR/2001/REC-SVG-20010904/DTD/svg10.dtd">
<svg version="1.0" xmlns="http://www.w3.org/2000/svg"
 width="96.000000pt" height="68.000000pt" viewBox="0 0 96.000000 68.000000"
 preserveAspectRatio="xMidYMid meet">
<metadata>
Created by potrace 1.16, written by Peter Selinger 2001-2019
Combined from part_0.svg through part_5.svg with named groups
</metadata>
<g transform="translate(0.000000,68.000000) scale(0.100000,-0.100000)" fill="#000000" stroke="none">
<g id="part-0" class="char-part">
  <path d="M339 593 c-12 -26 -36 -63 -55 -82 -19 -20 -34 -39 -34 -43 0 -17 95
36 104 57 3 8 13 14 23 13 10 0 38 3 63 7 25 3 40 3 34 -2 -5 -4 -25 -29 -43
-55 -38 -54 -56 -60 -168 -61 -69 0 -72 -1 -57 -18 8 -9 21 -40 29 -69 16 -61
21 -68 37 -52 7 7 32 12 56 12 40 0 43 -2 36 -22 -11 -36 -61 -105 -94 -128
-16 -11 -50 -30 -75 -41 -67 -30 -47 -36 26 -9 73 28 157 101 184 159 29 66
45 49 45 -50 0 -111 39 -144 170 -144 94 0 141 10 168 35 20 19 20 20 3 70
-21 58 -31 72 -31 41 0 -30 -26 -78 -49 -91 -25 -13 -151 -13 -184 -1 -34 13
-41 42 -26 103 11 49 11 52 -11 70 -22 18 -21 18 49 18 68 0 71 1 71 23 0 13
13 37 30 53 36 35 37 47 6 64 -23 12 -86 10 -168 -5 -16 -3 -28 -2 -28 2 0 7
95 88 134 116 7 5 4 13 -9 23 -20 15 -82 14 -143 -2 -18 -5 -21 -3 -16 11 5
12 1 23 -11 31 -31 23 -43 16 -66 -33z m233 -168 c3 -3 1 -23 -4 -44 -10 -38
-11 -38 -66 -44 -31 -3 -59 -4 -61 -1 -3 3 0 18 6 35 10 25 9 31 -4 36 -14 6
-14 8 3 14 22 9 118 12 126 4z m-187 -60 l0 -40 -53 -3 c-48 -3 -53 -1 -62 23
-21 54 -8 64 75 61 40 -1 40 -1 40 -41z"/>
</g>
<g id="part-1" class="char-part">
  <path d="M355 609 c-4 -17 -27 -55 -51 -85 -24 -30 -40 -54 -35 -54 5 0 32 18
60 41 47 36 56 40 102 37 l51 -3 -36 -45 c-36 -46 -43 -60 -27 -60 10 0 154
119 159 131 2 5 -7 14 -20 20 -19 8 -39 7 -85 -5 -77 -20 -72 -21 -70 10 1 19
-4 29 -20 35 -19 7 -23 4 -28 -22z"/>
</g>
<g id="part-2" class="char-part">
  <path d="M406 440 c-83 -10 -167 -15 -189 -12 l-39 5 26 -26 c14 -14 26 -32
26 -39 0 -33 22 -88 35 -88 8 0 15 4 15 9 0 5 77 12 170 16 151 6 197 14 158
27 -7 3 6 23 31 51 l42 46 -30 15 c-36 19 -52 19 -245 -4z m169 -20 c3 -5 -1
-24 -9 -43 -12 -31 -19 -35 -66 -41 -29 -4 -55 -5 -58 -2 -3 3 0 18 7 33 11
23 10 29 -4 39 -15 11 -14 13 7 17 44 8 117 7 123 -3z m-189 -34 c3 -14 3 -34
-1 -45 -5 -17 -15 -21 -55 -21 -45 0 -49 2 -59 31 -15 44 -14 47 17 52 73 11
91 8 98 -17z"/>
</g>
<g id="part-3" class="char-part">
  <path d="M356 259 c-25 -57 -87 -116 -153 -146 -61 -28 -64 -40 -6 -24 77 21
169 94 204 163 24 47 24 48 -4 48 -18 0 -28 -10 -41 -41z"/>
</g>
<g id="part-4" class="char-part">
  <path d="M447 232 c7 -136 39 -167 173 -166 96 0 141 9 168 34 20 19 20 20 3
70 -21 58 -31 72 -31 41 0 -30 -26 -78 -49 -91 -11 -5 -56 -10 -100 -10 -69 0
-84 3 -102 21 -18 18 -20 28 -14 63 15 78 12 88 -21 102 l-31 13 4 -77z"/>
</g>
</g>
</svg>