<?xml version="1.0" standalone="no"?>
<!DOCTYPE svg PUBLIC "-//W3C//DTD SVG 20010904//EN"
 "http://www.w3.org/TR/2001/REC-SVG-20010904/DTD/svg10.dtd">
<svg version="1.0" xmlns="http://www.w3.org/2000/svg"
 width="96.000000pt" height="68.000000pt" viewBox="0 0 96.000000 68.000000"
 preserveAspectRatio="xMidYMid meet">
<metadata>
Created by potrace 1.16, written by Peter Selinger 2001-2019
Combined from part_0.svg through part_5.svg with named groups
</metadata>
<g transform="translate(0.000000,68.000000) scale(0.100000,-0.100000)" fill="#000000" stroke="none">
<g id="part-0" class="char-part">
  <path d="M566 558 c-19 -60 -27 -80 -50 -114 -14 -21 -35 -51 -46 -66 -36 -47
0 -33 55 21 46 45 55 50 113 56 34 4 62 4 62 0 0 -4 -13 -30 -30 -57 -16 -26
-30 -53 -30 -58 0 -10 132 96 138 111 2 4 -8 15 -22 24 -23 15 -34 16 -91 5
-36 -7 -68 -10 -71 -8 -2 3 3 20 13 37 17 31 17 32 -1 46 -24 18 -35 19 -40 3z"/>
  <path d="M230 555 c0 -10 25 -51 48 -76 l23 -27 -83 -11 c-46 -7 -92 -15 -102
-18 -19 -5 -19 -6 -1 -19 24 -18 60 -18 160 1 44 8 97 17 118 20 59 9 41 30
-26 30 -43 0 -53 3 -45 12 17 20 0 61 -32 78 -28 15 -60 20 -60 10z"/>
  <path d="M273 356 c-67 -14 -78 -26 -22 -25 40 0 140 25 112 28 -6 1 -17 3
-25 5 -7 2 -36 -2 -65 -8z"/>
  <path d="M517 294 c-27 -25 -44 -33 -57 -29 -28 9 -43 -3 -26 -20 7 -8 19 -49
26 -93 13 -84 25 -115 38 -96 9 14 242 26 242 13 0 -5 7 -9 15 -9 20 0 32 32
72 196 8 35 -45 47 -127 30 -69 -15 -65 -20 13 -16 46 2 47 1 47 -29 0 -29 -2
-31 -50 -37 -70 -9 -73 -24 -6 -24 l56 0 -7 -32 c-3 -18 -7 -34 -8 -36 -1 -1
-38 -5 -81 -7 -44 -3 -98 -7 -121 -10 -40 -4 -43 -3 -44 20 -1 14 -2 31 -3 38
-1 7 17 14 48 17 28 3 51 11 54 18 3 10 -9 12 -55 7 l-60 -7 2 33 c1 31 6 36
56 56 55 22 71 46 34 50 -12 2 -36 -12 -58 -33z"/>
  <path d="M243 283 c-18 -2 -33 -9 -33 -15 0 -13 102 -5 141 11 20 8 16 10 -26
9 -27 -1 -65 -3 -82 -5z"/>
  <path d="M290 210 c-14 -4 -42 -8 -62 -9 -21 -1 -38 -3 -38 -5 0 -3 21 -64 35
-105 4 -9 9 -10 18 -3 7 6 35 12 61 14 41 2 50 7 52 24 2 11 10 33 18 49 8 16
13 32 10 37 -6 10 -60 9 -94 -2z m40 -24 c0 -8 -4 -26 -10 -40 -8 -21 -16 -26
-45 -26 -28 0 -35 4 -36 20 -1 11 -2 26 -3 33 -1 10 31 20 82 26 6 0 12 -5 12
-13z"/>
</g>
<g id="part-1" class="char-part">
  <path d="M240 548 c0 -23 43 -78 60 -78 27 0 34 18 16 44 -17 26 -76 53 -76
34z"/>
  <path d="M242 440 c-139 -23 -144 -24 -110 -40 23 -11 44 -10 135 9 59 11 118
21 131 21 12 0 22 4 22 9 0 9 -36 22 -55 20 -5 -1 -61 -10 -123 -19z"/>
</g>
<g id="part-2" class="char-part">
  <path d="M296 213 c-28 -8 -67 -13 -88 -11 -36 3 -52 -6 -26 -14 6 -2 19 -26
28 -54 11 -34 20 -48 30 -45 8 2 37 7 64 10 41 5 50 10 53 29 1 12 11 34 20
49 16 24 16 26 -2 39 -22 16 -17 17 -79 -3z m30 -26 c3 -8 0 -26 -5 -40 -15
-38 -67 -39 -82 -1 -11 32 -10 34 33 44 47 11 48 11 54 -3z"/>
</g>
<g id="part-3" class="char-part">
  <path d="M565 558 c-2 -7 -9 -30 -15 -50 -6 -20 -33 -66 -61 -102 -27 -36 -46
-66 -41 -66 13 0 67 43 95 76 14 17 32 31 39 31 7 0 37 4 66 8 29 4 52 4 52
-1 0 -5 -14 -29 -30 -54 -43 -65 -37 -79 13 -33 24 22 56 48 70 58 60 39 6 73
-89 56 -79 -15 -78 -15 -55 23 20 32 20 34 3 50 -22 19 -41 21 -47 4z"/>
</g>
<g id="part-4" class="char-part">
  <path d="M518 295 c-21 -19 -36 -35 -35 -35 9 0 108 38 114 44 8 8 -15 26 -32
26 -5 0 -27 -16 -47 -35z"/>
</g>
<g id="part-5" class="char-part">
  <path d="M742 292 c-9 -6 -5 -12 15 -21 16 -7 23 -15 16 -19 -6 -4 -10 -19 -8
-34 3 -25 1 -26 -36 -23 -21 3 -39 0 -39 -5 0 -6 18 -10 40 -10 38 0 40 -1 30
-21 -7 -11 -9 -23 -6 -26 3 -3 1 -15 -5 -25 -8 -14 -8 -23 0 -31 17 -17 33 5
34 46 0 20 5 34 9 31 13 -8 9 21 -4 35 -8 9 -9 11 -1 7 6 -3 16 7 24 27 7 17
15 35 17 40 2 4 -12 14 -32 22 -41 17 -37 17 -54 7z"/>
  <path d="M440 250 c8 -5 11 -10 6 -10 -5 0 -3 -7 4 -15 7 -8 10 -15 7 -15 -3
0 1 -20 8 -44 8 -24 11 -47 8 -50 -3 -3 -2 -17 1 -31 9 -35 29 -21 21 15 -3
15 -8 49 -11 76 -2 26 -10 51 -17 56 -9 6 -8 8 3 8 13 0 13 1 0 10 -8 5 -22
10 -30 10 -13 0 -13 -1 0 -10z"/>
  <path d="M520 179 c-17 -6 -9 -7 24 -4 27 2 51 6 53 9 8 7 -49 3 -77 -5z"/>
  <path d="M598 90 c-15 -4 -41 -7 -58 -6 -16 1 -30 -2 -30 -7 0 -9 95 -5 105 5
3 3 27 3 54 0 27 -2 51 0 54 4 7 12 -90 15 -125 4z"/>
</g>
</g>
</svg>