<?xml version="1.0" standalone="no"?>
<!DOCTYPE svg PUBLIC "-//W3C//DTD SVG 20010904//EN"
 "http://www.w3.org/TR/2001/REC-SVG-20010904/DTD/svg10.dtd">
<svg version="1.0" xmlns="http://www.w3.org/2000/svg"
 width="96.000000pt" height="68.000000pt" viewBox="0 0 96.000000 68.000000"
 preserveAspectRatio="xMidYMid meet">
<metadata>
Created by potrace 1.16, written by Peter Selinger 2001-2019
Combined from part_0.svg through part_5.svg with named groups
</metadata>
<g transform="translate(0.000000,68.000000) scale(0.100000,-0.100000)" fill="#000000" stroke="none">
<g id="part-0" class="char-part">
  <path d="M570 616 c0 -53 -9 -66 -51 -72 -21 -4 -39 -10 -39 -14 0 -11 49 -22
62 -14 7 5 9 2 6 -7 -27 -71 -18 -76 32 -19 33 38 38 40 98 41 35 1 65 6 68
10 10 16 -40 31 -82 25 -49 -6 -49 -7 -32 30 11 23 10 28 -7 40 -34 25 -55 18
-55 -20z"/>
  <path d="M287 613 c-3 -5 3 -22 14 -39 10 -16 19 -32 19 -36 0 -5 -31 -8 -70
-8 -76 0 -92 -15 -46 -40 23 -12 58 -10 112 5 15 5 23 0 32 -20 16 -34 37 -27
37 11 0 24 5 30 28 32 37 4 34 22 -4 22 -25 0 -32 6 -45 35 -8 19 -21 35 -28
35 -8 0 -21 3 -29 6 -8 3 -17 1 -20 -3z"/>
  <path d="M434 454 c27 -65 22 -70 -77 -73 -39 -1 -73 -4 -75 -5 -1 -2 2 -15 8
-30 5 -15 10 -54 10 -87 l0 -59 -42 -1 c-24 0 -63 -4 -88 -8 -44 -6 -44 -7
-21 -20 17 -9 42 -11 84 -6 55 6 59 5 52 -12 -15 -39 -16 -79 -2 -97 22 -30
34 -12 42 63 l7 68 96 2 c54 1 118 4 145 8 l47 6 0 -56 c0 -63 -7 -71 -44 -57
-14 5 -26 8 -26 6 0 -8 70 -76 79 -76 24 0 41 46 41 112 l0 68 69 0 c39 0 72
4 75 9 9 15 -49 33 -96 30 l-43 -3 0 44 c0 25 4 57 8 72 12 46 -14 62 -93 55
-36 -3 -72 -7 -80 -9 -11 -2 -14 5 -11 30 2 21 -2 32 -11 32 -7 0 -24 3 -37 7
-21 5 -23 4 -17 -13z m186 -149 c0 -41 -1 -75 -2 -75 -2 -1 -31 -4 -65 -7
l-63 -5 0 30 c0 35 13 42 76 42 24 0 44 5 44 10 0 10 -9 11 -80 14 -32 1 -35
4 -38 34 l-3 32 65 0 66 0 0 -75z m-170 30 c0 -33 -2 -35 -35 -36 -19 -1 -45
-2 -57 -2 -22 -1 -25 7 -19 52 1 10 32 17 84 20 25 1 27 -2 27 -34z m0 -91 l0
-34 -60 0 c-59 0 -60 0 -60 28 0 16 2 31 4 33 3 2 30 5 60 6 l56 2 0 -35z"/>
</g>
<g id="part-1" class="char-part">
  <path d="M568 593 c-3 -48 -3 -48 -40 -51 -48 -4 -50 -22 -3 -22 l36 0 -16
-30 c-24 -47 -17 -48 23 -2 36 40 42 43 105 49 104 9 85 30 -21 24 l-43 -3 15
30 c17 34 7 52 -30 52 -20 0 -23 -6 -26 -47z"/>
  <path d="M290 604 c0 -3 8 -19 17 -35 9 -15 13 -32 9 -36 -4 -4 -38 -10 -74
-13 l-67 -5 27 -18 c25 -17 32 -18 79 -6 50 13 52 13 67 -9 20 -30 32 -28 32
8 0 23 5 30 19 30 34 0 33 19 -1 22 -27 2 -34 8 -37 28 -1 14 -8 28 -15 32
-13 9 -56 10 -56 2z"/>
</g>
<g id="part-2" class="char-part">
  <path d="M435 453 c4 -10 10 -48 12 -85 l6 -68 -44 0 c-51 0 -81 -13 -54 -24
9 -3 34 -3 56 0 l39 7 0 -35 0 -35 -107 -7 c-60 -4 -133 -11 -163 -15 l-55 -8
30 -12 c25 -11 48 -10 130 3 55 9 198 19 318 23 119 3 217 10 217 15 0 23 -58
30 -172 19 -164 -15 -158 -16 -158 18 0 33 17 41 88 41 23 0 42 5 42 10 0 11
-26 15 -87 11 l-43 -3 0 41 c0 22 4 51 10 65 11 31 -9 56 -47 56 -20 0 -24 -4
-18 -17z"/>
</g>
<g id="part-3" class="char-part">
  <path d="M555 404 c-33 -7 -108 -16 -168 -20 -104 -7 -107 -8 -100 -28 11 -30
7 -162 -7 -222 -13 -54 -2 -100 23 -91 15 5 24 57 31 196 4 63 8 117 10 119 5
5 181 21 234 22 l42 0 0 -144 c0 -80 -4 -147 -9 -150 -5 -4 -21 -2 -35 4 -24
9 -25 8 -17 -8 11 -21 58 -62 70 -62 27 0 36 39 42 179 3 80 9 155 13 167 6
17 1 24 -27 37 -19 10 -37 16 -39 16 -1 -1 -30 -8 -63 -15z"/>
</g>
</g>
</svg>