<?xml version="1.0" standalone="no"?>
<!DOCTYPE svg PUBLIC "-//W3C//DTD SVG 20010904//EN"
 "http://www.w3.org/TR/2001/REC-SVG-20010904/DTD/svg10.dtd">
<svg version="1.0" xmlns="http://www.w3.org/2000/svg"
 width="96.000000pt" height="68.000000pt" viewBox="0 0 96.000000 68.000000"
 preserveAspectRatio="xMidYMid meet">
<metadata>
Created by potrace 1.16, written by Peter Selinger 2001-2019
Combined from part_0.svg through part_5.svg with named groups
</metadata>
<g transform="translate(0.000000,68.000000) scale(0.100000,-0.100000)" fill="#000000" stroke="none">
<g id="part-0" class="char-part">
  <path d="M530 576 c0 -32 -65 -134 -116 -183 -58 -57 -57 -67 5 -28 46 29 96
79 117 118 8 15 20 27 27 27 7 0 35 -23 62 -50 83 -84 113 -101 168 -94 26 4
47 10 47 14 0 3 -25 14 -55 24 -73 23 -205 112 -205 139 0 11 -8 26 -17 33
-23 17 -33 17 -33 0z"/>
  <path d="M200 563 c0 -3 12 -26 26 -50 19 -34 31 -43 47 -41 55 8 13 98 -45
98 -15 0 -28 -3 -28 -7z"/>
  <path d="M265 459 c-190 -31 -186 -30 -174 -45 15 -18 75 -17 159 1 36 8 79
14 97 15 35 0 53 17 32 31 -16 10 -45 10 -114 -2z"/>
  <path d="M585 395 c-5 -2 -31 -6 -58 -10 -74 -10 -45 -26 36 -19 79 6 82 8 72
23 -6 11 -29 13 -50 6z"/>
  <path d="M238 366 c-25 -6 -50 -15 -55 -20 -11 -12 128 1 141 14 7 7 6 10 -1
10 -6 0 -17 2 -25 4 -7 2 -34 -2 -60 -8z"/>
  <path d="M683 318 c13 -52 19 -150 12 -193 l-7 -47 -36 6 -37 7 39 -35 c31
-27 43 -33 57 -25 16 8 18 27 21 147 2 75 -1 143 -6 150 -5 6 -17 12 -28 12
-16 0 -19 -5 -15 -22z"/>
  <path d="M508 325 c-2 -3 -29 -8 -58 -12 l-54 -8 2 -55 c2 -30 -3 -77 -10
-105 -8 -27 -12 -58 -10 -68 6 -32 27 -12 39 37 7 27 13 49 15 51 2 1 20 5 41
8 l38 6 -3 -42 c-3 -37 -6 -42 -25 -40 -30 4 -29 -8 3 -36 42 -36 51 -15 57
127 4 110 3 123 -13 132 -9 5 -19 7 -22 5z m2 -47 c0 -20 -6 -23 -40 -26 -34
-2 -40 0 -40 17 0 22 13 29 53 30 22 1 27 -3 27 -21z m0 -63 c0 -22 -4 -25
-40 -25 -33 0 -40 3 -40 19 0 19 9 23 68 30 7 0 12 -10 12 -24z"/>
  <path d="M213 293 c-18 -2 -33 -9 -33 -15 0 -13 130 -2 145 13 9 9 -45 10
-112 2z"/>
  <path d="M597 218 c7 -70 7 -73 22 -63 6 3 11 33 11 66 0 52 -2 59 -20 59 -18
0 -19 -5 -13 -62z"/>
  <path d="M260 220 c-8 -5 -34 -10 -58 -10 -37 0 -41 -2 -33 -17 6 -10 13 -35
16 -55 6 -41 21 -56 38 -39 6 6 30 11 53 11 39 0 42 2 48 32 3 17 13 40 22 49
9 10 13 23 9 28 -8 14 -75 14 -95 1z m36 -42 c-3 -13 -6 -29 -6 -35 0 -8 -14
-13 -34 -13 -26 0 -35 5 -39 21 -10 36 2 49 45 49 37 0 40 -2 34 -22z"/>
</g>
<g id="part-1" class="char-part">
  <path d="M223 528 c27 -46 62 -62 74 -32 8 21 -47 74 -78 74 -21 0 -21 -1 4
-42z"/>
  <path d="M275 455 c-5 -2 -49 -9 -97 -15 -90 -12 -108 -23 -62 -34 32 -8 275
34 268 46 -5 8 -89 10 -109 3z"/>
</g>
<g id="part-2" class="char-part">
  <path d="M270 223 c-18 -7 -53 -13 -77 -13 -39 0 -44 -2 -33 -15 6 -8 18 -34
25 -57 8 -27 18 -42 26 -39 8 2 35 6 62 9 35 3 47 9 47 21 0 9 9 31 20 49 11
18 18 37 15 41 -9 16 -53 18 -85 4z m23 -51 c-7 -31 -20 -42 -49 -42 -15 0
-24 8 -28 26 -8 32 -1 41 39 46 41 5 46 1 38 -30z"/>
</g>
<g id="part-3" class="char-part">
  <path d="M522 557 c-13 -48 -58 -114 -113 -169 -27 -27 -43 -48 -36 -48 24 0
104 64 146 118 23 28 44 52 47 52 2 0 35 -29 73 -64 37 -35 77 -68 88 -75 22
-11 113 -4 113 9 0 4 -25 15 -56 25 -50 16 -97 42 -176 100 -15 11 -28 30 -28
42 0 19 -25 43 -44 43 -3 0 -9 -15 -14 -33z"/>
</g>
<g id="part-4" class="char-part">
  <path d="M537 386 c-33 -6 -56 -14 -52 -18 8 -7 119 -1 150 9 l20 6 -20 8
c-25 9 -27 9 -98 -5z"/>
</g>
<g id="part-5" class="char-part">
  <path d="M690 316 c0 -9 3 -16 8 -16 9 0 6 -175 -3 -207 -5 -15 -14 -20 -32
-18 l-25 2 28 -22 29 -23 7 21 c6 21 6 21 8 2 l1 -20 9 20 c4 11 7 76 6 145
-1 110 -3 125 -18 128 -11 2 -18 -3 -18 -12z"/>
</g>
</g>
</svg>