<?xml version="1.0" standalone="no"?>
<!DOCTYPE svg PUBLIC "-//W3C//DTD SVG 20010904//EN"
 "http://www.w3.org/TR/2001/REC-SVG-20010904/DTD/svg10.dtd">
<svg version="1.0" xmlns="http://www.w3.org/2000/svg"
 width="96.000000pt" height="68.000000pt" viewBox="0 0 96.000000 68.000000"
 preserveAspectRatio="xMidYMid meet">
<metadata>
Created by potrace 1.16, written by Peter Selinger 2001-2019
Combined from part_0.svg through part_5.svg with named groups
</metadata>
<g transform="translate(0.000000,68.000000) scale(0.100000,-0.100000)" fill="#000000" stroke="none">
<g id="part-0" class="char-part">
  <path d="M225 538 c13 -42 17 -213 6 -272 -14 -76 -41 -132 -90 -185 -28 -30
-33 -41 -21 -41 33 0 96 57 125 113 l29 55 33 -29 c38 -33 61 -37 70 -12 8 20
-29 52 -67 60 -22 4 -27 10 -25 31 1 15 3 43 3 63 2 33 6 37 62 64 65 31 72
45 38 70 -22 15 -24 14 -56 -22 l-34 -38 5 72 6 71 -31 11 c-49 17 -61 14 -53
-11z"/>
  <path d="M590 523 c-30 -7 -81 -14 -112 -15 -60 -3 -64 -6 -49 -36 5 -9 15
-44 23 -77 10 -39 19 -59 28 -57 7 2 52 4 100 4 l87 2 13 45 c7 25 20 61 29
79 25 54 -26 77 -119 55z m60 -46 c0 -31 -2 -32 -37 -33 -21 0 -60 -2 -88 -4
-48 -5 -50 -4 -53 21 -3 26 -1 27 65 36 115 17 113 17 113 -20z m-14 -85 c-5
-16 -19 -21 -73 -26 -70 -7 -87 -1 -81 30 3 16 15 20 73 24 78 6 90 1 81 -28z"/>
  <path d="M100 375 c0 -3 11 -23 25 -45 24 -37 56 -52 69 -32 11 18 -8 53 -35
67 -28 15 -59 20 -59 10z"/>
  <path d="M523 305 c7 -14 21 -28 32 -31 l20 -7 -20 -8 c-11 -4 -38 -8 -60 -9
-22 -1 -49 -5 -59 -9 -19 -7 -19 -8 1 -13 15 -4 25 -19 34 -49 7 -24 17 -50
22 -57 15 -19 7 -22 -83 -29 -74 -6 -81 -8 -64 -20 13 -10 34 -13 69 -9 28 3
131 9 230 12 99 3 182 8 184 10 3 2 -4 11 -15 20 -15 12 -36 14 -97 9 -43 -3
-76 -2 -74 2 21 37 47 106 41 114 -3 6 3 13 15 16 12 3 21 9 21 13 0 16 -31
19 -81 10 -65 -12 -62 -13 -56 4 8 21 -21 56 -48 56 -21 0 -22 -2 -12 -25z
m103 -127 c-3 -34 -7 -62 -9 -63 -1 -2 -23 -5 -49 -9 -47 -7 -47 -7 -46 22 1
17 -9 43 -21 60 -11 17 -21 33 -21 36 0 3 30 7 68 9 37 2 71 4 76 5 5 1 6 -25
2 -60z"/>
</g>
<g id="part-1" class="char-part">
  <path d="M230 531 c5 -11 10 -75 10 -143 0 -155 -20 -224 -87 -298 -48 -53
-48 -59 -5 -36 38 20 76 63 104 119 l24 47 34 -35 c39 -41 63 -46 58 -12 -2
15 -17 29 -49 44 l-46 22 10 62 c9 57 13 63 46 78 82 38 85 40 65 62 -25 28
-41 23 -66 -21 -13 -22 -27 -40 -32 -40 -5 0 -6 34 -2 79 7 85 4 91 -50 91
-21 0 -23 -3 -14 -19z"/>
  <path d="M110 371 c0 -17 47 -76 63 -79 21 -4 24 40 4 56 -19 16 -67 33 -67
23z"/>
</g>
<g id="part-2" class="char-part">
  <path d="M585 523 c-27 -7 -78 -15 -112 -16 -35 -1 -63 -3 -63 -5 0 -1 6 -13
14 -25 8 -12 17 -42 21 -67 12 -75 14 -77 92 -69 37 4 80 5 95 2 30 -6 26 -11
71 104 l24 61 -21 10 c-37 18 -70 19 -121 5z m63 -44 c-3 -33 3 -31 -148 -42
-20 -2 -26 3 -28 24 -3 26 -1 27 70 37 116 15 110 16 106 -19z m-8 -66 c0 -32
-14 -40 -82 -47 -62 -7 -67 -6 -73 14 -10 32 2 39 75 43 36 2 68 4 73 5 4 1 7
-6 7 -15z"/>
</g>
<g id="part-3" class="char-part">
  <path d="M525 300 c9 -16 23 -30 33 -31 22 -1 -38 -16 -103 -25 -43 -6 -46 -8
-24 -14 43 -12 299 13 299 30 0 14 -44 19 -90 10 -61 -12 -63 -12 -56 5 7 20
-28 55 -54 55 -20 0 -20 -1 -5 -30z"/>
</g>
<g id="part-4" class="char-part">
  <path d="M644 232 c-6 -4 -14 -31 -17 -61 -4 -29 -8 -55 -9 -56 -2 -2 -24 -6
-50 -10 l-48 -7 0 33 c0 33 -42 101 -54 88 -3 -3 3 -31 13 -62 l20 -56 -42 -6
c-23 -3 -62 -6 -87 -8 l-45 -3 30 -13 c24 -11 47 -11 116 -2 48 6 145 11 217
11 72 0 133 4 136 9 12 19 -52 33 -118 26 l-66 -7 10 26 c5 14 17 40 25 56 21
41 3 65 -31 42z"/>
</g>
</g>
</svg>