<?xml version="1.0" standalone="no"?>
<!DOCTYPE svg PUBLIC "-//W3C//DTD SVG 20010904//EN"
 "http://www.w3.org/TR/2001/REC-SVG-20010904/DTD/svg10.dtd">
<svg version="1.0" xmlns="http://www.w3.org/2000/svg"
 width="96.000000pt" height="68.000000pt" viewBox="0 0 96.000000 68.000000"
 preserveAspectRatio="xMidYMid meet">
<metadata>
Created by potrace 1.16, written by Peter Selinger 2001-2019
Combined from part_0.svg through part_5.svg with named groups
</metadata>
<g transform="translate(0.000000,68.000000) scale(0.100000,-0.100000)" fill="#000000" stroke="none">
<g id="part-0" class="char-part">
  <path d="M340 603 c0 -5 20 -30 45 -58 24 -27 45 -55 45 -61 0 -5 -24 -19 -52
-30 -48 -17 -50 -19 -25 -22 16 -2 42 1 59 7 44 16 52 14 82 -16 l27 -26 -28
-19 c-32 -21 -29 -22 14 -7 27 9 39 6 98 -25 67 -36 118 -46 131 -25 3 6 -2
29 -12 51 -17 38 -19 40 -24 17 -4 -17 -14 -25 -32 -27 -26 -3 -81 19 -92 36
-3 5 22 28 55 52 32 23 59 47 59 51 0 15 -54 23 -58 9 -6 -18 -72 -90 -83 -90
-4 0 -20 10 -35 23 l-27 23 39 19 c29 14 34 20 21 23 -10 2 -31 -1 -47 -6 -24
-9 -31 -7 -49 11 -11 12 -27 39 -36 60 -13 31 -20 37 -45 37 -17 0 -30 -3 -30
-7z"/>
  <path d="M500 586 c0 -2 15 -14 34 -25 44 -28 86 -15 54 17 -11 11 -88 18 -88
8z"/>
  <path d="M180 532 c0 -13 53 -59 77 -66 16 -5 25 -2 32 13 15 28 16 27 -29 45
-44 17 -80 21 -80 8z"/>
  <path d="M126 382 c-9 -16 63 -74 87 -70 30 4 33 34 5 51 -31 20 -85 31 -92
19z"/>
  <path d="M350 365 c0 -4 11 -20 25 -37 35 -41 31 -55 -15 -69 -22 -7 -40 -16
-40 -22 0 -5 7 -6 16 -3 9 3 32 9 53 12 35 6 39 3 64 -34 l26 -41 -43 -25
c-23 -13 -54 -28 -69 -31 -26 -7 -48 -25 -30 -25 11 0 112 37 141 52 18 9 26
8 45 -9 66 -59 168 -102 244 -103 42 0 48 12 24 57 -11 21 -24 49 -30 63 -10
25 -10 25 -10 -6 -1 -49 -22 -68 -66 -61 -42 7 -145 65 -145 82 0 6 25 26 55
44 31 19 58 38 61 43 4 5 -4 19 -16 30 l-22 20 -15 -21 c-21 -31 -65 -70 -86
-77 -11 -3 -25 3 -37 18 -27 32 -25 44 10 57 38 13 40 34 3 28 -16 -3 -35 -8
-44 -12 -13 -5 -19 2 -26 32 -8 33 -13 38 -41 41 -18 2 -32 0 -32 -3z"/>
  <path d="M520 342 c0 -5 12 -14 26 -21 22 -10 25 -9 22 6 -3 18 -48 32 -48 15z"/>
  <path d="M259 288 c-29 -56 -74 -119 -96 -133 -27 -18 -30 -51 -7 -83 18 -27
32 -28 41 -5 8 26 63 153 79 187 8 16 14 35 14 43 0 21 -18 15 -31 -9z"/>
</g>
<g id="part-1" class="char-part">
  <path d="M215 500 c33 -35 75 -41 75 -11 0 20 -43 41 -83 41 -19 0 -18 -3 8
-30z"/>
  <path d="M159 346 c38 -39 58 -45 68 -20 8 23 -18 44 -63 51 l-39 6 34 -37z"/>
  <path d="M251 259 c-13 -23 -43 -63 -66 -89 -31 -35 -42 -55 -38 -69 6 -24 31
-47 40 -37 12 11 101 236 94 236 -4 0 -18 -18 -30 -41z"/>
</g>
<g id="part-2" class="char-part">
  <path d="M330 602 c0 -4 23 -30 50 -57 28 -27 50 -53 50 -58 0 -4 -24 -19 -52
-32 l-53 -24 36 0 c20 -1 50 4 67 10 28 10 35 8 62 -14 l30 -26 -28 -22 -27
-21 25 7 c14 4 29 11 33 15 5 4 35 -7 66 -26 62 -37 151 -57 151 -33 0 7 -8
34 -17 59 -18 45 -18 45 -23 15 -4 -23 -11 -31 -32 -33 -26 -3 -81 19 -92 36
-3 5 22 28 55 51 63 44 70 64 27 69 -19 2 -28 -2 -32 -16 -3 -10 -22 -33 -40
-51 l-34 -33 -33 22 -32 23 39 21 c38 20 39 21 12 24 -15 2 -37 -2 -48 -8 -26
-14 -40 0 -70 68 -17 38 -23 42 -55 42 -19 0 -35 -4 -35 -8z"/>
  <path d="M505 580 c11 -17 66 -42 81 -36 22 8 17 33 -8 40 -36 9 -80 7 -73 -4z"/>
</g>
<g id="part-3" class="char-part">
  <path d="M350 365 c0 -3 11 -21 25 -39 14 -18 25 -37 25 -43 0 -5 -18 -15 -40
-22 -49 -15 -67 -37 -22 -28 91 19 85 20 115 -23 l28 -40 -82 -40 c-96 -46
-78 -53 28 -11 l73 29 39 -29 c76 -55 139 -81 206 -87 70 -5 79 3 51 43 -7 11
-19 38 -26 60 l-13 40 -11 -45 c-9 -38 -15 -45 -38 -48 -15 -2 -52 10 -85 27
-64 32 -93 58 -76 69 5 4 33 22 61 41 57 36 64 52 29 68 -21 10 -27 7 -51 -23
-15 -19 -39 -42 -53 -51 -25 -17 -26 -16 -49 11 -31 35 -30 42 6 55 17 5 30
15 30 22 0 11 -12 10 -70 -3 -8 -2 -19 11 -26 32 -9 29 -17 36 -43 38 -17 2
-31 0 -31 -3z"/>
  <path d="M530 330 c29 -23 36 -24 46 -9 9 15 -14 29 -46 29 l-25 0 25 -20z"/>
</g>
</g>
</svg>