<?xml version="1.0" standalone="no"?>
<!DOCTYPE svg PUBLIC "-//W3C//DTD SVG 20010904//EN"
 "http://www.w3.org/TR/2001/REC-SVG-20010904/DTD/svg10.dtd">
<svg version="1.0" xmlns="http://www.w3.org/2000/svg"
 width="96.000000pt" height="68.000000pt" viewBox="0 0 96.000000 68.000000"
 preserveAspectRatio="xMidYMid meet">
<metadata>
Created by potrace 1.16, written by Peter Selinger 2001-2019
Combined from part_0.svg through part_5.svg with named groups
</metadata>
<g transform="translate(0.000000,68.000000) scale(0.100000,-0.100000)" fill="#000000" stroke="none">
<g id="part-0" class="char-part">
  <path d="M262 552 c-16 -60 -56 -129 -121 -209 -28 -35 -47 -63 -43 -63 11 0
85 52 99 69 10 13 12 -3 13 -80 0 -53 -5 -110 -11 -128 -21 -59 28 -126 50
-68 11 28 17 297 7 318 -4 10 7 38 34 80 55 87 55 87 35 109 -30 34 -50 25
-63 -28z"/>
  <path d="M620 551 c0 -4 9 -20 20 -34 11 -14 20 -27 20 -30 0 -3 -23 -8 -51
-12 -46 -6 -49 -8 -35 -24 8 -9 18 -28 21 -44 4 -15 11 -30 16 -33 5 -3 9 -14
9 -25 0 -16 -7 -19 -40 -19 -62 0 -47 -19 18 -22 55 -3 57 -4 60 -32 4 -35
-10 -46 -60 -46 -21 0 -38 -4 -38 -10 0 -5 24 -10 53 -10 l52 0 -3 -71 c-2
-39 -1 -83 3 -97 6 -26 7 -26 21 -8 9 13 14 45 14 90 0 39 4 76 8 83 4 6 27
13 51 15 64 4 66 28 3 28 l-50 0 1 34 1 35 63 7 c80 8 82 24 3 24 l-60 0 25
41 c16 24 24 48 20 59 -4 13 0 20 15 25 41 13 21 28 -30 21 -46 -6 -50 -5 -50
13 0 13 -12 27 -30 36 -33 17 -50 19 -50 6z m94 -128 c-9 -74 -13 -84 -36 -81
-15 2 -22 11 -25 33 -2 17 -14 40 -28 51 -13 12 -21 25 -18 28 4 3 30 6 59 6
l52 0 -4 -37z"/>
  <path d="M445 514 c-22 -6 -54 -9 -71 -7 l-31 5 5 -54 c5 -59 -27 -204 -53
-242 -8 -11 -15 -24 -15 -29 0 -14 20 4 50 44 16 22 30 36 33 32 3 -4 8 -32
12 -60 7 -53 21 -75 34 -55 3 6 29 15 56 19 48 8 50 10 60 48 6 22 14 46 19
53 19 30 -20 40 -106 28 -71 -10 -79 -6 -66 39 10 30 16 35 60 44 27 6 56 11
65 11 9 0 13 6 10 13 -3 8 3 33 14 56 10 24 17 47 14 51 -9 14 -50 16 -90 4z
m25 -67 c-10 -46 -7 -43 -49 -52 l-33 -7 5 43 c3 24 6 47 6 51 1 8 63 15 73 8
4 -3 3 -22 -2 -43z m17 -210 c-6 -44 -19 -57 -59 -57 -22 0 -28 5 -28 23 0 12
-3 32 -6 44 -5 19 -1 23 38 31 23 5 47 7 52 4 4 -3 6 -23 3 -45z"/>
</g>
<g id="part-1" class="char-part">
  <path d="M275 578 c-2 -7 -9 -30 -15 -50 -14 -45 -75 -142 -125 -197 -21 -23
-33 -41 -28 -41 11 0 50 27 83 57 l25 23 3 -62 c2 -35 -1 -97 -8 -139 -9 -59
-9 -82 0 -98 9 -17 15 -20 25 -11 19 15 32 296 16 323 -11 16 -5 30 39 100 48
75 50 82 34 94 -23 16 -43 17 -49 1z"/>
</g>
<g id="part-2" class="char-part">
  <path d="M450 516 c-25 -7 -59 -11 -76 -8 l-32 4 5 -46 c7 -61 -12 -155 -48
-236 l-29 -65 38 42 c25 27 45 63 57 101 l18 60 62 13 c38 7 61 17 59 23 -2 6
5 29 16 51 22 42 25 65 11 65 -5 0 -15 2 -23 4 -7 2 -33 -2 -58 -8z m23 -58
c-7 -40 -19 -53 -55 -62 -25 -6 -28 -4 -28 21 0 60 9 73 51 73 38 0 38 0 32
-32z"/>
</g>
<g id="part-3" class="char-part">
  <path d="M470 300 c-14 -4 -44 -8 -67 -9 -48 -1 -49 -2 -32 -83 16 -82 18 -86
34 -65 8 11 32 20 64 24 41 5 51 9 51 25 0 10 7 35 15 56 15 34 15 38 -1 49
-20 14 -27 15 -64 3z m20 -43 c0 -46 -12 -66 -42 -72 -36 -8 -44 -1 -52 47 -7
37 -7 37 36 46 51 10 58 8 58 -21z"/>
</g>
<g id="part-4" class="char-part">
  <path d="M658 277 c4 -37 -10 -47 -72 -47 -22 0 -27 -3 -19 -11 6 -6 30 -10
52 -7 l41 4 0 -86 c0 -96 12 -132 29 -87 6 16 11 56 11 90 0 34 4 67 8 73 4 6
31 15 61 19 62 8 51 25 -17 25 -41 0 -43 1 -40 28 3 24 -1 27 -28 30 -29 3
-30 2 -26 -31z"/>
</g>
</g>
</svg>