<?xml version="1.0" standalone="no"?>
<!DOCTYPE svg PUBLIC "-//W3C//DTD SVG 20010904//EN"
 "http://www.w3.org/TR/2001/REC-SVG-20010904/DTD/svg10.dtd">
<svg version="1.0" xmlns="http://www.w3.org/2000/svg"
 width="96.000000pt" height="68.000000pt" viewBox="0 0 96.000000 68.000000"
 preserveAspectRatio="xMidYMid meet">
<metadata>
Created by potrace 1.16, written by Peter Selinger 2001-2019
Combined from part_0.svg through part_5.svg with named groups
</metadata>
<g transform="translate(0.000000,68.000000) scale(0.100000,-0.100000)" fill="#000000" stroke="none">
<g id="part-0" class="char-part">
  <path d="M566 582 c-2 -4 0 -31 6 -61 5 -29 7 -59 4 -67 -3 -7 -25 -17 -48
-21 l-43 -8 45 -5 45 -5 3 -47 3 -48 -45 0 c-25 0 -47 -4 -50 -8 -3 -5 -20 -7
-38 -5 -29 4 -31 3 -14 -8 12 -7 40 -9 80 -5 33 3 108 9 166 12 120 6 134 9
124 25 -5 8 -33 10 -95 5 l-89 -7 0 45 c0 44 1 45 38 51 59 11 73 16 66 27 -3
5 -27 8 -52 6 l-46 -3 -1 59 c0 56 -2 60 -27 67 -16 4 -30 4 -32 1z"/>
  <path d="M267 503 c4 -42 -10 -159 -21 -170 -2 -2 -36 -7 -75 -10 -39 -3 -71
-9 -71 -13 0 -4 9 -15 20 -25 19 -17 47 -17 92 0 15 6 16 2 12 -27 -5 -31 -3
-36 30 -53 20 -11 36 -25 36 -33 0 -7 -27 -30 -60 -50 -33 -20 -60 -40 -60
-43 0 -3 13 -6 29 -5 16 1 27 4 24 9 -2 4 2 7 9 7 8 0 33 14 56 31 l42 31 31
-27 c35 -29 53 -28 57 3 2 13 -7 28 -26 42 l-29 21 26 66 c17 43 34 69 48 76
26 12 30 27 8 27 -8 0 -15 7 -15 15 0 16 -30 35 -54 35 -9 0 -16 -12 -18 -32
-3 -29 -7 -33 -35 -36 -18 -2 -33 1 -33 6 0 5 11 40 25 78 31 87 31 102 -1
114 -48 19 -54 14 -47 -37z m79 -238 c-22 -56 -28 -60 -65 -40 -28 14 -29 17
-20 45 9 23 19 31 52 38 23 5 44 7 46 6 2 -2 -4 -24 -13 -49z"/>
  <path d="M560 273 c0 -7 5 -13 10 -13 16 0 11 -47 -6 -54 -9 -3 -31 -6 -50 -6
-19 0 -34 -4 -34 -10 0 -5 23 -10 50 -10 l50 0 0 -40 0 -40 -50 -1 c-27 -1
-54 -3 -60 -4 -5 -1 -25 -3 -42 -4 -31 -1 -32 -2 -12 -15 11 -8 33 -13 50 -10
16 2 107 7 202 11 94 3 172 9 172 13 0 20 -56 30 -137 23 -79 -6 -86 -5 -80
11 4 10 7 28 7 41 0 19 6 23 51 29 66 9 62 32 -4 28 -46 -4 -47 -3 -47 26 0
27 -4 30 -35 34 -24 3 -35 0 -35 -9z"/>
</g>
<g id="part-1" class="char-part">
  <path d="M270 470 c0 -79 -11 -128 -33 -142 -7 -4 -40 -8 -74 -8 -64 0 -75 -7
-48 -30 17 -14 49 -16 89 -5 27 7 28 7 22 -22 -6 -27 -3 -33 34 -57 41 -27 41
-28 23 -48 -10 -11 -37 -31 -61 -45 -24 -14 -41 -27 -39 -30 10 -10 62 12 103
43 l43 33 31 -25 c28 -24 60 -27 60 -5 0 5 -14 21 -31 35 l-30 26 28 71 c17
44 35 74 45 77 23 6 23 22 1 22 -9 0 -13 3 -10 7 12 11 -14 33 -39 33 -21 0
-23 -4 -18 -29 6 -27 4 -28 -37 -34 -24 -3 -45 -5 -46 -3 -2 1 10 42 27 91 16
48 27 91 25 95 -3 5 -18 13 -35 18 l-30 11 0 -79z m80 -201 c-23 -63 -24 -63
-52 -55 -43 11 -51 21 -41 52 9 28 52 52 95 53 17 1 17 -2 -2 -50z"/>
</g>
<g id="part-2" class="char-part">
  <path d="M563 564 c3 -16 8 -50 12 -76 l6 -47 -48 -8 -48 -8 45 -5 45 -5 3
-47 3 -46 -76 -7 c-53 -5 -73 -11 -66 -18 7 -7 48 -7 133 1 68 7 146 12 173
12 28 0 57 4 64 9 25 16 -32 24 -114 16 l-75 -7 0 45 0 45 43 7 c23 4 49 11
57 15 24 13 -13 24 -58 16 l-38 -6 4 65 c3 50 1 65 -9 65 -8 0 -25 3 -38 7
-21 5 -23 3 -18 -23z"/>
</g>
<g id="part-3" class="char-part">
  <path d="M573 250 c14 -38 1 -50 -55 -50 -21 0 -38 -4 -38 -10 0 -5 23 -10 50
-10 l50 0 0 -40 0 -40 -47 -1 c-27 0 -68 -4 -93 -8 -43 -7 -44 -8 -19 -18 17
-7 50 -8 100 -2 41 4 129 8 197 9 67 0 122 4 122 8 0 22 -54 32 -137 25 l-86
-6 6 24 c4 13 7 31 7 41 0 12 13 18 50 23 65 9 62 31 -3 27 -43 -3 -46 -1 -49
25 -2 23 -8 29 -35 31 -32 3 -32 3 -20 -28z"/>
</g>
</g>
</svg>