<?xml version="1.0" standalone="no"?>
<!DOCTYPE svg PUBLIC "-//W3C//DTD SVG 20010904//EN"
 "http://www.w3.org/TR/2001/REC-SVG-20010904/DTD/svg10.dtd">
<svg version="1.0" xmlns="http://www.w3.org/2000/svg"
 width="96.000000pt" height="68.000000pt" viewBox="0 0 96.000000 68.000000"
 preserveAspectRatio="xMidYMid meet">
<metadata>
Created by potrace 1.16, written by Peter Selinger 2001-2019
Combined from part_0.svg through part_5.svg with named groups
</metadata>
<g transform="translate(0.000000,68.000000) scale(0.100000,-0.100000)" fill="#000000" stroke="none">
<g id="part-0" class="char-part">
  <path d="M400 624 c0 -3 9 -17 20 -31 11 -15 18 -28 16 -30 -2 -2 -48 -11
-102 -19 -54 -8 -100 -16 -102 -19 -2 -2 -1 -9 3 -16 6 -8 29 -10 79 -6 l71 6
-55 -50 c-30 -28 -83 -66 -118 -86 -35 -19 -61 -38 -58 -40 3 -3 42 13 88 35
46 22 87 38 91 35 5 -3 6 -32 2 -64 -9 -73 2 -76 76 -22 48 34 55 58 10 34
-40 -22 -50 -14 -48 38 2 39 8 56 30 78 15 16 27 34 27 41 0 15 23 19 133 27
48 4 87 10 87 15 0 23 -33 32 -95 25 -55 -5 -65 -4 -65 9 0 20 -38 46 -67 46
-13 0 -23 -3 -23 -6z"/>
  <path d="M589 475 c-31 -45 -45 -50 -76 -25 -14 11 -35 20 -47 19 -20 0 -20
-1 -2 -12 10 -7 58 -42 108 -79 95 -72 120 -79 207 -62 42 9 39 22 -6 29 -75
13 -213 62 -213 75 0 8 46 30 63 30 7 0 18 5 25 12 9 9 8 16 -5 30 -22 25 -27
23 -54 -17z"/>
  <path d="M565 279 c-27 -5 -108 -10 -180 -11 l-130 -3 0 -117 c0 -64 4 -120 8
-124 17 -17 27 17 33 114 7 101 7 102 33 102 14 0 36 3 49 6 31 9 28 -9 -9
-51 -17 -19 -25 -35 -18 -35 19 0 77 48 84 70 5 15 15 20 41 20 29 0 34 -3 34
-24 0 -13 6 -28 13 -34 19 -16 64 -25 92 -18 41 10 28 26 -21 26 -44 0 -45 1
-42 28 3 26 5 27 58 27 l55 0 3 -70 c4 -92 -2 -113 -33 -117 l-25 -3 25 -28
c14 -15 32 -27 40 -27 24 0 39 41 41 105 0 33 4 81 8 107 8 46 7 48 -19 58
-30 11 -69 11 -140 -1z"/>
  <path d="M428 153 c-51 -4 -56 -6 -48 -21 6 -9 14 -28 19 -42 8 -24 12 -25 76
-22 56 3 68 7 72 23 3 10 9 19 13 19 15 0 21 33 8 42 -13 8 -28 8 -140 1z
m102 -32 c0 -10 -7 -22 -16 -25 -28 -11 -92 -6 -97 7 -9 27 6 37 59 37 46 0
54 -3 54 -19z"/>
</g>
<g id="part-1" class="char-part">
  <path d="M423 597 c15 -20 24 -38 20 -40 -5 -3 -54 -10 -110 -17 -57 -7 -103
-17 -103 -21 0 -16 50 -18 131 -4 48 7 130 17 183 21 97 7 113 14 76 34 -15 8
-37 8 -77 0 -70 -12 -66 -13 -60 4 7 18 -20 42 -58 52 l-30 7 28 -36z"/>
</g>
<g id="part-2" class="char-part">
  <path d="M582 470 l-33 -39 -32 19 c-36 23 -87 29 -54 7 10 -7 60 -43 110 -81
l91 -68 67 4 c102 8 102 18 2 43 -50 13 -110 33 -134 45 l-44 23 53 20 c54 21
65 39 33 57 -26 13 -21 15 -59 -30z"/>
  <path d="M342 423 c-8 -3 -11 -15 -7 -37 4 -17 2 -42 -3 -56 -11 -30 -5 -50
15 -50 16 0 136 81 129 87 -2 2 -21 -3 -41 -11 -57 -24 -69 -21 -62 14 7 30 0
61 -12 59 -3 0 -12 -3 -19 -6z"/>
</g>
<g id="part-3" class="char-part">
  <path d="M560 279 c-30 -5 -111 -10 -180 -11 l-125 -3 1 -110 c2 -139 1 -135
18 -135 10 0 15 27 21 110 l7 110 31 2 c18 0 43 2 57 3 194 15 263 16 271 3
11 -17 11 -149 0 -167 -5 -8 -18 -12 -30 -8 -12 3 -21 2 -21 -2 0 -12 55 -61
68 -61 20 0 44 60 38 93 -3 16 -1 59 5 95 11 59 10 67 -7 79 -20 14 -70 15
-154 2z"/>
</g>
<g id="part-4" class="char-part">
  <path d="M374 204 c-22 -24 -36 -44 -31 -44 23 0 97 54 97 71 0 23 -31 11 -66
-27z"/>
  <path d="M510 226 c0 -42 63 -70 114 -50 30 11 16 23 -31 26 -43 3 -48 5 -46
26 2 16 -2 22 -17 22 -15 0 -20 -7 -20 -24z"/>
</g>
<g id="part-5" class="char-part">
  <path d="M517 150 c13 -5 20 -16 18 -27 -2 -10 -4 -21 -4 -25 -1 -3 -9 -9 -18
-11 -15 -4 -15 -5 2 -6 28 -1 64 57 44 70 -8 5 -25 8 -39 8 -24 0 -24 -1 -3
-9z"/>
  <path d="M396 133 c-6 -14 -5 -15 5 -6 7 7 10 15 7 18 -3 3 -9 -2 -12 -12z"/>
  <path d="M410 79 c0 -5 9 -9 20 -9 11 0 20 2 20 4 0 2 -9 6 -20 9 -11 3 -20 1
-20 -4z"/>
</g>
</g>
</svg>