<?xml version="1.0" standalone="no"?>
<!DOCTYPE svg PUBLIC "-//W3C//DTD SVG 20010904//EN"
 "http://www.w3.org/TR/2001/REC-SVG-20010904/DTD/svg10.dtd">
<svg version="1.0" xmlns="http://www.w3.org/2000/svg"
 width="96.000000pt" height="68.000000pt" viewBox="0 0 96.000000 68.000000"
 preserveAspectRatio="xMidYMid meet">
<metadata>
Created by potrace 1.16, written by Peter Selinger 2001-2019
Combined from part_0.svg through part_5.svg with named groups
</metadata>
<g transform="translate(0.000000,68.000000) scale(0.100000,-0.100000)" fill="#000000" stroke="none">
<g id="part-0" class="char-part">
  <path d="M720 593 c0 -5 5 -48 10 -97 10 -93 -3 -353 -19 -369 -4 -4 -20 -3
-36 3 -15 6 -30 9 -32 6 -7 -6 80 -85 95 -86 29 0 40 64 45 260 3 113 10 207
16 225 11 26 10 31 -11 47 -23 18 -68 25 -68 11z"/>
  <path d="M380 559 c-36 -11 -90 -19 -120 -18 -74 1 -72 1 -52 -19 10 -10 24
-46 32 -81 14 -65 24 -81 43 -62 17 17 37 13 37 -8 0 -40 -44 -115 -107 -182
-36 -38 -62 -69 -59 -69 33 0 144 102 167 153 9 19 22 26 56 31 76 10 92 8 89
-11 -2 -10 -7 -36 -11 -58 -3 -22 -18 -55 -32 -73 -21 -29 -30 -33 -54 -28
-34 6 -36 0 -10 -31 45 -54 102 -5 130 112 7 28 19 60 27 73 14 22 14 25 -3
38 -13 11 -35 13 -85 9 -67 -5 -67 -5 -59 17 6 17 4 26 -8 35 -14 11 -12 12
15 13 17 0 46 3 63 6 25 5 30 10 25 28 -3 14 4 35 20 59 33 48 33 65 0 77 -30
12 -23 13 -104 -11z m50 -43 c0 -7 -5 -27 -11 -43 -11 -32 -37 -43 -100 -43
-31 0 -34 3 -43 46 -6 29 -5 30 36 41 65 15 118 15 118 -1z"/>
  <path d="M586 367 c1 -129 1 -127 19 -127 8 0 15 1 16 3 1 1 4 48 8 104 5 90
4 103 -11 112 -10 6 -21 11 -25 11 -5 0 -8 -46 -7 -103z"/>
</g>
<g id="part-1" class="char-part">
  <path d="M385 555 c-22 -8 -73 -14 -113 -14 l-73 -1 19 -25 c11 -14 23 -44 26
-67 9 -56 20 -75 38 -61 7 6 50 14 94 18 77 6 82 8 82 30 0 13 9 40 21 60 11
20 21 42 21 50 0 27 -49 31 -115 10z m42 -57 c-6 -48 -27 -67 -74 -70 -18 -1
-41 -2 -50 -2 -12 -1 -21 12 -29 41 l-12 42 61 15 c34 8 73 15 86 15 22 1 23
-2 18 -41z"/>
</g>
<g id="part-2" class="char-part">
  <path d="M393 333 c-36 -5 -69 -33 -37 -33 11 0 36 4 56 9 52 12 61 -2 45 -67
-15 -56 -40 -100 -63 -109 -9 -3 -26 -1 -40 6 -22 10 -24 9 -14 -7 21 -36 38
-52 57 -52 33 0 70 51 88 120 10 36 24 76 33 89 26 43 -15 58 -125 44z"/>
</g>
<g id="part-3" class="char-part">
  <path d="M585 358 c0 -98 2 -113 17 -116 22 -4 30 38 26 143 -3 71 -5 80 -23
83 -19 3 -20 -3 -20 -110z"/>
</g>
<g id="part-4" class="char-part">
  <path d="M718 594 c-4 -3 -2 -16 5 -28 13 -25 13 -363 -1 -411 -9 -31 -18 -34
-62 -20 -21 6 -19 1 20 -39 24 -25 50 -46 58 -46 28 0 40 62 41 205 1 134 12
262 25 296 4 9 1 21 -7 27 -18 15 -70 26 -79 16z"/>
</g>
</g>
</svg>