<?xml version="1.0" standalone="no"?>
<!DOCTYPE svg PUBLIC "-//W3C//DTD SVG 20010904//EN"
 "http://www.w3.org/TR/2001/REC-SVG-20010904/DTD/svg10.dtd">
<svg version="1.0" xmlns="http://www.w3.org/2000/svg"
 width="96.000000pt" height="68.000000pt" viewBox="0 0 96.000000 68.000000"
 preserveAspectRatio="xMidYMid meet">
<metadata>
Created by potrace 1.16, written by Peter Selinger 2001-2019
Combined from part_0.svg through part_5.svg with named groups
</metadata>
<g transform="translate(0.000000,68.000000) scale(0.100000,-0.100000)" fill="#000000" stroke="none">
<g id="part-0" class="char-part">
  <path d="M575 572 c-51 -49 -83 -66 -119 -64 -23 2 -27 -1 -21 -15 10 -27 6
-283 -5 -304 -13 -24 -13 -32 4 -54 13 -18 18 -15 85 43 75 64 79 80 11 37
-22 -14 -42 -25 -45 -25 -3 0 -5 38 -5 84 l0 84 34 0 c19 0 48 3 65 7 17 4 31
3 31 -2 0 -24 122 -192 157 -216 46 -32 99 -37 88 -9 -3 9 -11 39 -16 66 -5
27 -11 51 -13 54 -3 2 -10 -14 -16 -37 -6 -23 -17 -41 -24 -41 -21 0 -80 71
-111 133 -31 65 -27 76 30 78 17 0 39 4 50 9 18 7 18 9 -10 19 -27 11 -50 10
-88 -5 -10 -4 -16 5 -21 35 -6 40 -27 61 -60 61 -20 0 -20 -20 -1 -56 29 -56
14 -74 -64 -74 l-34 0 7 53 c4 28 10 55 14 59 4 4 41 21 82 38 92 39 101 47
76 66 -29 20 -37 18 -81 -24z"/>
  <path d="M280 525 c-30 -8 -77 -17 -103 -20 -40 -5 -46 -9 -36 -21 6 -8 29
-14 50 -14 22 0 39 -5 39 -11 0 -23 -74 -150 -111 -193 -22 -24 -39 -47 -39
-50 0 -15 26 -3 65 28 l42 35 12 -55 c11 -49 15 -55 34 -51 12 3 43 9 69 12
26 4 46 10 44 14 -3 4 4 26 15 50 24 54 24 58 -1 71 -14 7 -32 8 -58 1 -52
-14 -92 -20 -92 -15 0 3 19 37 43 76 23 39 41 76 39 81 -4 14 18 27 45 27 12
0 34 5 48 10 23 9 25 13 15 25 -15 18 -46 18 -120 0z m37 -266 c-6 -48 -5 -47
-44 -55 -27 -5 -31 -3 -42 27 -20 58 -18 60 73 67 16 2 18 -3 13 -39z"/>
  <path d="M615 139 c-27 -5 -65 -12 -84 -15 -24 -4 -31 -8 -23 -16 8 -8 39 -8
112 1 84 11 99 16 89 27 -13 16 -22 16 -94 3z"/>
</g>
<g id="part-1" class="char-part">
  <path d="M265 515 c-27 -7 -67 -14 -87 -14 -57 -1 -45 -21 12 -21 30 0 50 -4
50 -11 0 -23 -84 -170 -121 -213 -30 -34 -34 -43 -19 -39 46 12 185 198 185
248 0 17 10 22 58 29 36 6 57 14 57 23 0 17 -65 16 -135 -2z"/>
</g>
<g id="part-2" class="char-part">
  <path d="M253 312 c-34 -10 -64 -19 -67 -22 -3 -3 1 -28 9 -55 23 -78 24 -78
38 -67 6 5 37 13 67 17 51 6 55 9 56 33 1 15 7 41 15 59 7 18 11 35 8 38 -14
13 -69 12 -126 -3z m64 -53 c-6 -48 -5 -47 -44 -55 -30 -6 -32 -4 -42 32 -15
53 -15 52 22 57 73 9 70 11 64 -34z"/>
</g>
<g id="part-3" class="char-part">
  <path d="M604 599 c-3 -6 -33 -30 -65 -54 -33 -24 -56 -46 -51 -49 8 -5 161
60 177 75 7 7 3 15 -9 25 -24 17 -42 18 -52 3z"/>
</g>
<g id="part-4" class="char-part">
  <path d="M560 501 c0 -5 7 -28 15 -51 8 -23 15 -46 15 -50 0 -4 -20 -12 -46
-16 -25 -5 -45 -13 -44 -19 1 -11 18 -11 70 -1 33 7 36 5 59 -36 41 -74 118
-172 149 -190 17 -10 42 -18 57 -18 23 0 25 3 19 23 -4 12 -13 44 -19 71 l-11
49 -12 -42 c-7 -22 -19 -41 -27 -41 -21 0 -84 78 -112 139 -28 59 -24 70 32
72 17 0 39 4 50 9 19 7 18 9 -9 19 -16 6 -37 9 -47 6 -11 -3 -27 -7 -38 -10
-15 -5 -20 2 -25 35 -5 31 -12 43 -32 50 -31 12 -44 13 -44 1z"/>
</g>
<g id="part-5" class="char-part">
  <path d="M601 129 c-25 -5 -49 -14 -55 -20 -8 -9 -6 -10 9 -4 11 4 52 10 90
13 52 4 63 7 45 13 -31 9 -35 9 -89 -2z"/>
</g>
</g>
</svg>