<?xml version="1.0" standalone="no"?>
<!DOCTYPE svg PUBLIC "-//W3C//DTD SVG 20010904//EN"
 "http://www.w3.org/TR/2001/REC-SVG-20010904/DTD/svg10.dtd">
<svg version="1.0" xmlns="http://www.w3.org/2000/svg"
 width="96.000000pt" height="68.000000pt" viewBox="0 0 96.000000 68.000000"
 preserveAspectRatio="xMidYMid meet">
<metadata>
Created by potrace 1.16, written by Peter Selinger 2001-2019
Combined from part_0.svg through part_5.svg with named groups
</metadata>
<g transform="translate(0.000000,68.000000) scale(0.100000,-0.100000)" fill="#000000" stroke="none">
<g id="part-0" class="char-part">
  <path d="M287 563 c-4 -3 -7 -14 -7 -24 0 -10 -25 -48 -56 -84 -31 -36 -54
-68 -52 -71 3 -2 28 11 56 29 27 19 67 38 87 41 l38 7 -39 -50 c-26 -33 -47
-50 -61 -51 -13 0 -23 -5 -23 -10 0 -6 12 -9 28 -8 21 2 28 -2 30 -19 3 -21
-1 -23 -39 -23 -41 0 -41 0 -35 30 5 28 4 30 -25 30 -21 0 -28 -4 -23 -12 5
-7 16 -40 25 -73 13 -49 20 -59 35 -56 11 1 55 4 99 6 l80 2 27 59 c15 33 27
64 28 71 0 18 -60 31 -98 21 -19 -5 -36 -8 -38 -6 -3 4 75 69 105 88 8 4 11
15 7 25 -5 14 -15 17 -49 12 -23 -2 -51 -8 -62 -12 -18 -7 -18 -6 3 14 29 28
28 45 -3 59 -30 14 -30 14 -38 5z m109 -225 c-2 -18 -10 -24 -38 -26 -33 -3
-35 -1 -31 22 5 22 11 26 39 26 29 0 33 -3 30 -22z m-8 -60 c-2 -18 -11 -24
-35 -26 -27 -3 -33 0 -33 17 0 19 15 27 53 30 14 1 18 -5 15 -21z m-100 -15
c3 -20 -1 -23 -27 -23 -23 0 -31 5 -31 18 0 25 10 33 35 30 12 -2 21 -12 23
-25z"/>
  <path d="M570 523 c0 -48 -1 -49 -32 -51 -45 -4 -49 -12 -6 -12 27 0 37 -5 41
-20 6 -25 5 -26 -67 -35 -39 -4 -55 -10 -48 -17 6 -6 31 -7 71 0 80 12 80 -2
0 -53 -33 -22 -55 -41 -49 -43 6 -2 22 3 35 12 31 21 33 20 37 -6 4 -32 43
-48 118 -48 76 0 112 8 107 24 -3 7 -35 10 -102 7 -71 -2 -96 0 -91 8 4 6 12
11 19 11 19 0 117 43 117 52 0 4 -12 11 -26 14 -19 5 -29 2 -36 -10 -7 -13
-58 -46 -71 -46 -14 0 4 44 24 57 13 9 26 20 29 23 3 4 41 10 85 14 44 4 84
11 88 15 13 13 -58 23 -100 15 l-37 -7 41 43 c34 36 39 46 28 57 -20 19 -30
16 -43 -12 -7 -14 -20 -25 -31 -25 -11 0 -26 -3 -35 -6 -11 -4 -15 4 -18 38
-2 36 -7 44 -25 46 -21 3 -23 -1 -23 -45z m90 -62 c0 -12 -36 -42 -42 -35 -12
11 4 40 23 41 10 1 19 -2 19 -6z"/>
  <path d="M696 223 c-4 -4 -41 -10 -82 -13 l-76 -5 -4 -83 c-3 -65 0 -82 10
-82 8 0 16 4 18 9 2 4 31 11 66 14 55 4 65 3 75 -14 13 -22 32 -25 43 -7 4 7
9 47 10 89 1 73 0 78 -23 88 -28 13 -28 13 -37 4z m8 -29 c9 -3 16 -15 16 -25
0 -16 -8 -19 -52 -19 -29 0 -63 -3 -75 -6 -20 -5 -23 -2 -23 19 0 24 4 26 48
30 26 2 52 4 59 5 6 1 18 -1 27 -4z m16 -83 c0 -14 -11 -20 -52 -25 -90 -10
-98 -9 -98 19 0 23 3 24 68 27 78 3 82 3 82 -21z"/>
  <path d="M402 155 c23 -35 58 -48 58 -21 0 13 -57 56 -74 56 -3 0 4 -16 16
-35z"/>
  <path d="M152 155 c-16 -36 -15 -75 2 -75 17 0 36 52 29 79 -7 28 -17 26 -31
-4z"/>
  <path d="M310 168 c0 -7 7 -22 15 -32 11 -15 18 -17 26 -9 13 13 5 29 -22 43
-14 8 -19 7 -19 -2z"/>
  <path d="M239 138 c17 -33 35 -40 37 -15 1 17 -26 47 -42 47 -10 0 -9 -8 5
-32z"/>
</g>
<g id="part-1" class="char-part">
  <path d="M281 527 c-6 -19 -34 -57 -61 -85 -28 -29 -46 -52 -41 -52 5 0 32 16
61 35 47 32 111 48 110 28 -1 -5 -14 -24 -31 -43 -16 -19 -25 -36 -19 -38 10
-4 132 93 138 109 6 15 -47 21 -79 10 -48 -17 -52 -14 -29 18 20 30 20 30 1
40 -31 17 -39 13 -50 -22z"/>
</g>
<g id="part-2" class="char-part">
  <path d="M406 151 c29 -44 41 -50 51 -25 7 18 -22 49 -55 59 l-23 7 27 -41z"/>
  <path d="M146 140 c-16 -41 -13 -70 9 -70 17 0 36 56 29 86 -9 34 -20 30 -38
-16z"/>
  <path d="M300 175 c0 -15 34 -55 46 -55 22 0 16 27 -8 44 -23 16 -38 20 -38
11z"/>
  <path d="M220 164 c0 -15 36 -64 47 -64 19 0 16 34 -5 53 -18 17 -42 23 -42
11z"/>
</g>
<g id="part-3" class="char-part">
  <path d="M568 526 c4 -48 9 -44 -63 -59 -11 -3 -1 -5 23 -6 35 -1 42 -4 42
-21 0 -28 33 -26 45 2 6 13 19 24 30 26 37 7 43 25 7 20 l-33 -5 3 41 c3 39 2
41 -27 44 -30 3 -30 3 -27 -42z"/>
</g>
<g id="part-4" class="char-part">
  <path d="M642 340 c-30 -28 -71 -42 -57 -21 9 16 -12 22 -25 6 -17 -21 -3 -51
31 -65 30 -13 173 -10 186 4 17 17 -17 25 -77 18 -36 -4 -78 -5 -95 -2 l-30 6
35 16 c19 8 52 20 73 27 40 13 47 25 21 35 -23 9 -26 8 -62 -24z"/>
</g>
<g id="part-5" class="char-part">
  <path d="M680 209 c0 -7 10 -9 23 -7 21 4 23 1 21 -21 -2 -14 -4 -44 -5 -67
-2 -37 -5 -40 -28 -37 -14 2 -19 0 -11 -3 8 -4 22 -16 31 -27 l17 -20 12 23
c10 18 9 24 -1 31 -12 8 -12 10 -1 18 8 5 13 22 11 42 -2 19 0 40 4 46 9 14
-5 23 -44 30 -18 2 -29 0 -29 -8z m57 -81 c-3 -7 -5 -2 -5 12 0 14 2 19 5 13
2 -7 2 -19 0 -25z"/>
  <path d="M544 133 c3 -40 2 -62 -4 -58 -6 3 -10 2 -10 -4 0 -14 18 -23 24 -12
3 5 16 7 29 5 l22 -5 -22 10 c-22 10 -28 23 -23 46 9 40 6 82 -7 82 -11 0 -13
-13 -9 -64z"/>
</g>
</g>
</svg>