<?xml version="1.0" standalone="no"?>
<!DOCTYPE svg PUBLIC "-//W3C//DTD SVG 20010904//EN"
 "http://www.w3.org/TR/2001/REC-SVG-20010904/DTD/svg10.dtd">
<svg version="1.0" xmlns="http://www.w3.org/2000/svg"
 width="96.000000pt" height="68.000000pt" viewBox="0 0 96.000000 68.000000"
 preserveAspectRatio="xMidYMid meet">
<metadata>
Created by potrace 1.16, written by Peter Selinger 2001-2019
Combined from part_0.svg through part_5.svg with named groups
</metadata>
<g transform="translate(0.000000,68.000000) scale(0.100000,-0.100000)" fill="#000000" stroke="none">
<g id="part-0" class="char-part">
  <path d="M245 526 c8 -54 -11 -157 -33 -173 -9 -7 -39 -13 -67 -13 -64 0 -73
-8 -38 -31 20 -14 38 -17 68 -12 33 5 38 3 28 -8 -23 -23 -14 -49 22 -71 20
-11 34 -26 32 -32 -2 -6 -28 -25 -58 -43 -87 -52 -89 -54 -44 -48 22 4 63 21
91 40 l51 33 29 -24 c16 -13 37 -23 47 -24 29 0 18 51 -13 67 -30 15 -30 13
-1 91 17 45 31 66 48 73 34 13 28 23 -22 37 -60 16 -65 15 -65 -8 0 -15 -7
-20 -25 -20 -14 0 -25 3 -25 6 0 4 12 43 27 87 l27 79 -23 19 c-13 11 -32 19
-43 19 -17 0 -19 -5 -13 -44z m73 -233 c-15 -56 -24 -63 -59 -51 -32 11 -35
19 -18 51 16 29 28 37 61 37 26 0 26 -1 16 -37z"/>
  <path d="M510 558 c0 -7 12 -26 26 -43 l26 -30 -66 -10 c-35 -5 -68 -13 -72
-17 -12 -13 86 -9 176 7 105 19 120 23 120 37 0 11 -78 6 -112 -7 -14 -6 -18
-2 -18 17 0 18 -9 29 -35 41 -43 20 -45 21 -45 5z"/>
  <path d="M474 404 c-4 -14 -22 -42 -40 -62 -18 -20 -31 -38 -29 -40 12 -13
125 81 125 104 0 11 -21 24 -41 24 -5 0 -12 -12 -15 -26z"/>
  <path d="M639 396 c12 -13 38 -32 57 -42 30 -16 36 -17 44 -5 19 32 -34 71
-98 71 l-25 0 22 -24z"/>
  <path d="M616 311 c-3 -26 -12 -56 -19 -65 -12 -17 -17 -15 -61 23 -67 58 -79
51 -16 -11 l53 -52 -38 -33 c-21 -18 -56 -38 -77 -45 -21 -6 -38 -15 -38 -20
0 -20 84 3 135 38 l37 25 49 -46 c47 -44 49 -45 116 -45 37 0 75 4 83 10 17
10 14 12 -60 30 -47 11 -111 40 -144 65 -19 15 -19 16 9 74 30 63 29 85 -3 93
-17 5 -21 -1 -26 -41z"/>
</g>
<g id="part-1" class="char-part">
  <path d="M250 568 c0 -2 -2 -41 -4 -88 -2 -47 -8 -97 -14 -112 -11 -27 -15
-28 -77 -28 -36 0 -65 -4 -65 -10 0 -18 43 -32 81 -26 30 5 39 3 39 -8 0 -8
-5 -18 -10 -21 -16 -10 -12 -35 8 -42 9 -4 27 -13 40 -21 l23 -15 -23 -24
c-13 -14 -45 -36 -71 -50 -27 -13 -47 -26 -45 -29 9 -8 88 25 122 51 41 31 44
31 77 -1 18 -17 34 -24 44 -20 24 9 14 37 -21 61 -29 20 -31 23 -18 46 7 13
20 45 29 71 11 30 24 49 37 54 19 6 17 8 -18 25 -49 23 -54 23 -54 0 0 -13
-10 -20 -32 -25 -17 -3 -33 -5 -35 -3 -1 2 11 43 27 92 17 49 30 90 30 92 0 7
-70 38 -70 31z m77 -255 c-16 -80 -40 -100 -81 -70 -28 21 -13 75 22 83 15 3
32 7 37 9 23 8 27 4 22 -22z"/>
</g>
<g id="part-2" class="char-part">
  <path d="M500 562 c0 -4 13 -24 30 -43 l29 -36 -69 -7 c-84 -9 -103 -26 -28
-26 55 0 254 33 265 44 13 13 -33 19 -79 9 -52 -10 -58 -9 -58 18 0 9 -15 24
-34 33 -37 17 -56 20 -56 8z"/>
</g>
<g id="part-3" class="char-part">
  <path d="M474 408 c-3 -13 -22 -42 -41 -65 -19 -24 -32 -43 -28 -43 17 0 64
33 99 68 37 39 37 41 18 51 -30 16 -40 14 -48 -11z"/>
  <path d="M630 411 c0 -12 80 -71 96 -71 18 0 24 26 11 44 -21 27 -107 49 -107
27z"/>
</g>
<g id="part-4" class="char-part">
  <path d="M620 331 c0 -16 -7 -45 -15 -66 -17 -40 -19 -40 -74 12 -13 13 -33
23 -45 22 -21 0 -21 0 -1 -12 11 -7 35 -27 53 -46 l33 -34 -22 -23 c-13 -14
-50 -38 -83 -55 l-61 -30 45 6 c25 3 67 19 93 35 27 17 51 30 54 30 2 0 24
-20 49 -45 43 -45 44 -45 111 -45 37 0 75 4 83 10 17 10 20 9 -75 35 -64 18
-145 61 -145 76 0 5 11 32 25 59 30 59 31 69 8 86 -27 20 -33 17 -33 -15z"/>
</g>
</g>
</svg>