<?xml version="1.0" standalone="no"?>
<!DOCTYPE svg PUBLIC "-//W3C//DTD SVG 20010904//EN"
 "http://www.w3.org/TR/2001/REC-SVG-20010904/DTD/svg10.dtd">
<svg version="1.0" xmlns="http://www.w3.org/2000/svg"
 width="96.000000pt" height="68.000000pt" viewBox="0 0 96.000000 68.000000"
 preserveAspectRatio="xMidYMid meet">
<metadata>
Created by potrace 1.16, written by Peter Selinger 2001-2019
Combined from part_0.svg through part_5.svg with named groups
</metadata>
<g transform="translate(0.000000,68.000000) scale(0.100000,-0.100000)" fill="#000000" stroke="none">
<g id="part-0" class="char-part">
  <path d="M592 605 c45 -42 78 -46 78 -10 0 30 -26 45 -77 45 l-38 -1 37 -34z"/>
  <path d="M444 588 c1 -31 -3 -43 -14 -44 -8 0 -36 -2 -62 -2 -73 -3 -57 -22
17 -22 l66 0 -3 -62 c-3 -59 -4 -63 -25 -60 -29 4 -29 -1 -1 -33 42 -49 68
-22 67 71 -1 33 0 66 0 75 1 12 16 18 61 23 60 7 83 19 55 30 -8 3 -37 2 -65
-1 -49 -6 -50 -5 -50 20 0 16 -8 30 -19 37 -29 15 -29 14 -27 -32z"/>
  <path d="M582 497 c-18 -18 -32 -36 -32 -39 0 -3 25 3 55 15 59 21 66 30 36
47 -26 13 -23 15 -59 -23z"/>
  <path d="M280 493 c0 -19 32 -53 51 -53 21 0 26 22 7 38 -19 14 -58 25 -58 15z"/>
  <path d="M335 410 c-22 -11 -61 -25 -87 -31 -27 -7 -48 -15 -48 -18 0 -4 9
-12 21 -19 18 -12 29 -8 100 33 43 26 79 49 79 51 0 8 -26 2 -65 -16z"/>
  <path d="M556 421 c21 -19 127 -71 145 -71 30 0 24 36 -8 49 -23 9 -122 31
-141 31 -3 0 -2 -4 4 -9z"/>
  <path d="M400 331 c0 -5 7 -14 15 -21 24 -20 18 -27 -32 -34 -109 -15 -123
-18 -117 -28 4 -6 27 -8 60 -4 32 4 54 2 54 -3 0 -19 -93 -86 -179 -129 -98
-49 -61 -50 48 -1 92 42 95 41 88 -32 -7 -79 5 -83 88 -29 72 47 88 72 25 40
-60 -31 -70 -27 -70 25 0 25 -4 45 -10 45 -5 0 -10 5 -10 10 0 6 5 10 10 10
17 0 71 53 66 66 -5 14 45 24 127 24 43 0 57 3 54 13 -3 8 -25 11 -76 9 -55
-2 -71 1 -71 12 0 8 -14 19 -31 25 -38 13 -39 13 -39 2z"/>
  <path d="M607 214 c-32 -38 -47 -41 -82 -18 -13 9 -32 14 -42 12 -15 -3 -12
-7 12 -20 17 -9 44 -28 60 -42 17 -14 35 -30 42 -36 45 -38 90 -60 122 -60 40
0 116 19 108 26 -3 3 -36 12 -73 20 -73 15 -177 60 -169 73 2 5 25 14 50 21
54 15 65 28 40 47 -27 19 -37 16 -68 -23z"/>
</g>
<g id="part-1" class="char-part">
  <path d="M595 610 c30 -32 75 -41 75 -15 0 17 -50 45 -81 45 -22 0 -22 -1 6
-30z"/>
</g>
<g id="part-2" class="char-part">
  <path d="M463 522 c-7 -4 -13 -34 -15 -67 l-3 -60 -30 3 -30 4 29 -31 c53 -56
76 -33 76 78 0 70 -6 86 -27 73z"/>
  <path d="M570 488 c-25 -23 -37 -38 -26 -34 10 3 38 11 62 17 52 13 64 27 39
46 -25 18 -24 18 -75 -29z"/>
  <path d="M270 495 c0 -14 46 -55 62 -55 27 0 22 35 -7 48 -27 12 -55 16 -55 7z"/>
  <path d="M360 420 c-16 -11 -88 -34 -134 -45 -27 -6 -28 -6 -10 -26 10 -11 24
-17 33 -14 22 8 151 86 151 91 0 7 -25 4 -40 -6z"/>
  <path d="M610 390 c82 -44 113 -50 108 -22 -4 23 -61 49 -128 56 l-55 6 75
-40z"/>
</g>
<g id="part-3" class="char-part">
  <path d="M400 330 c0 -5 9 -18 21 -28 20 -19 20 -20 -45 -27 -36 -3 -78 -10
-93 -15 -54 -15 6 -24 81 -12 39 6 113 15 164 18 51 4 95 10 97 15 9 14 -36
21 -96 14 -48 -6 -59 -4 -59 7 0 8 -11 20 -25 26 -31 15 -45 15 -45 2z"/>
</g>
<g id="part-4" class="char-part">
  <path d="M409 253 c-9 -2 -37 -23 -62 -46 -25 -24 -87 -64 -138 -90 -101 -51
-105 -58 -15 -27 117 40 264 136 241 157 -5 5 -17 8 -26 6z"/>
</g>
<g id="part-5" class="char-part">
  <path d="M632 234 c-19 -21 -2 -44 26 -33 26 10 28 25 5 38 -13 6 -22 5 -31
-5z m38 -14 c0 -5 -2 -10 -4 -10 -3 0 -8 5 -11 10 -3 6 -1 10 4 10 6 0 11 -4
11 -10z"/>
  <path d="M600 200 c-8 -5 -12 -11 -9 -14 2 -3 11 -1 19 4 8 5 12 11 9 14 -2 3
-11 1 -19 -4z"/>
  <path d="M510 193 c1 -19 150 -123 175 -123 8 0 15 -4 15 -9 0 -6 14 -5 35 0
19 6 39 8 44 4 5 -3 17 -2 26 1 11 5 -6 13 -51 25 -38 9 -78 20 -89 24 -16 5
-17 5 -5 -4 12 -8 11 -10 -7 -9 -14 2 -19 7 -15 17 3 9 1 12 -6 7 -12 -7 -56
17 -48 25 3 2 -13 15 -35 27 -21 12 -39 19 -39 15z"/>
  <path d="M340 139 c0 -5 5 -7 10 -4 6 3 10 1 10 -4 0 -6 -4 -11 -10 -11 -5 0
-10 -12 -10 -26 0 -14 4 -23 10 -19 16 10 12 -7 -7 -27 -12 -13 -13 -22 -6
-29 14 -14 33 -3 33 19 0 14 2 14 9 3 7 -11 16 -8 45 14 20 15 36 29 36 31 0
1 -16 -4 -36 -12 -41 -17 -48 -13 -50 24 -1 15 -2 33 -3 40 -1 15 -31 16 -31
1z"/>
</g>
</g>
</svg>