<?xml version="1.0" standalone="no"?>
<!DOCTYPE svg PUBLIC "-//W3C//DTD SVG 20010904//EN"
 "http://www.w3.org/TR/2001/REC-SVG-20010904/DTD/svg10.dtd">
<svg version="1.0" xmlns="http://www.w3.org/2000/svg"
 width="96.000000pt" height="68.000000pt" viewBox="0 0 96.000000 68.000000"
 preserveAspectRatio="xMidYMid meet">
<metadata>
Created by potrace 1.16, written by Peter Selinger 2001-2019
Combined from part_0.svg through part_5.svg with named groups
</metadata>
<g transform="translate(0.000000,68.000000) scale(0.100000,-0.100000)" fill="#000000" stroke="none">
<g id="part-0" class="char-part">
  <path d="M245 533 c3 -32 8 -72 11 -90 5 -34 4 -35 -96 -49 -25 -3 -47 -8 -49
-10 -13 -12 19 -19 80 -17 74 3 74 3 63 -55 -5 -27 -17 -35 -100 -72 -52 -24
-94 -47 -94 -51 0 -12 35 -29 58 -29 10 0 40 16 65 35 25 19 51 35 56 35 13 0
15 -99 2 -118 -6 -11 -17 -11 -46 -3 l-39 10 49 -49 c27 -28 54 -50 61 -50 22
0 34 53 34 148 l0 97 32 27 c37 30 34 44 -6 28 -26 -10 -27 -9 -24 23 2 26 9
34 36 42 38 11 37 29 -2 33 -28 3 -28 5 -23 50 4 26 9 58 12 73 5 20 2 27 -20
37 -14 7 -35 12 -46 12 -19 0 -20 -4 -14 -57z"/>
  <path d="M531 518 c1 -40 2 -101 1 -134 l-2 -61 -42 -7 c-43 -7 -58 2 -58 37
0 11 8 17 24 17 13 0 32 3 41 6 28 11 -4 23 -36 14 -32 -10 -39 -5 -39 26 0
17 11 29 40 44 43 22 50 34 23 44 -12 5 -24 -3 -41 -24 -16 -21 -32 -30 -52
-30 l-29 0 19 -32 c10 -18 21 -54 25 -79 9 -61 19 -77 38 -61 8 7 31 13 52 15
34 2 39 -1 46 -26 7 -25 5 -27 -19 -27 -42 0 -102 -12 -102 -20 0 -4 11 -12
25 -18 34 -16 106 -83 100 -93 -7 -11 -111 -49 -160 -59 l-40 -8 35 -1 c19 -1
74 11 122 25 l86 27 22 -21 c44 -41 88 -55 152 -48 33 4 69 11 81 15 21 8 21
8 2 14 -11 4 -52 13 -90 21 -90 19 -125 32 -125 48 0 7 20 33 45 58 24 25 44
51 45 57 0 25 -70 28 -143 7 -15 -5 -17 -1 -11 23 4 15 7 29 8 29 1 1 22 5 49
8 39 6 47 5 47 -8 0 -19 25 -21 37 -3 4 6 20 44 34 82 14 39 29 78 34 88 11
25 -58 53 -92 38 -13 -6 -33 -11 -43 -11 -11 0 -20 -5 -20 -11 0 -8 14 -10 40
-6 22 3 40 2 41 -1 6 -50 6 -50 -38 -57 -53 -8 -57 -25 -4 -25 35 0 38 -2 34
-24 -5 -26 -27 -36 -82 -36 l-34 0 5 124 c5 120 4 125 -16 130 -12 3 -25 6
-29 6 -4 0 -7 -33 -6 -72z m99 -311 c0 -29 -43 -72 -62 -62 -7 5 -29 19 -48
34 l-34 25 54 12 c84 17 90 17 90 -9z"/>
</g>
<g id="part-1" class="char-part">
  <path d="M245 568 c4 -13 9 -55 12 -95 l5 -71 -66 -7 c-90 -10 -94 -25 -6 -25
l71 0 -3 -46 -3 -45 -92 -41 c-51 -23 -93 -45 -93 -50 0 -4 11 -14 25 -20 22
-10 31 -6 84 30 33 23 64 42 70 42 8 0 9 -19 5 -57 -9 -86 -9 -86 -52 -80
l-37 6 43 -39 c24 -22 49 -40 56 -40 23 0 36 57 36 156 l0 92 33 21 c33 21 22
30 -14 10 -19 -10 -20 -8 -17 33 3 39 6 43 31 46 35 4 30 26 -6 30 -18 2 -27
9 -27 20 1 20 15 79 25 104 5 12 -2 21 -24 32 -45 24 -65 21 -56 -6z"/>
</g>
<g id="part-2" class="char-part">
  <path d="M436 475 c-15 -19 -25 -35 -23 -35 3 0 26 9 51 21 39 17 45 23 35 35
-18 22 -34 17 -63 -21z"/>
</g>
<g id="part-3" class="char-part">
  <path d="M663 497 c-60 -17 -66 -31 -10 -25 46 5 47 5 47 -22 0 -25 -5 -29
-40 -35 -49 -8 -53 -25 -5 -25 31 0 35 -3 35 -25 0 -14 -1 -25 -2 -25 -186
-26 -233 -28 -245 -12 -23 29 -19 33 41 47 18 4 25 10 20 15 -6 6 -22 6 -42 1
-30 -9 -32 -8 -40 22 -6 25 -14 33 -35 35 l-27 3 19 -33 c10 -18 22 -53 25
-78 9 -60 20 -78 39 -62 11 9 150 29 220 32 4 0 7 -7 7 -15 0 -21 27 -19 39 4
6 10 21 47 34 82 13 35 27 72 31 81 6 12 0 21 -23 32 -34 18 -32 18 -88 3z"/>
</g>
<g id="part-4" class="char-part">
  <path d="M602 250 c-19 -4 -67 -11 -108 -15 -41 -4 -74 -11 -74 -15 0 -5 15
-16 33 -25 19 -9 49 -31 67 -50 l32 -33 -41 -22 c-23 -11 -70 -27 -104 -35
l-62 -15 55 4 c30 2 83 14 118 25 l63 21 47 -32 c39 -28 56 -33 102 -33 73 0
139 14 120 25 -8 4 -35 10 -59 14 -39 6 -161 43 -170 51 -2 2 21 31 50 65 43
49 50 63 39 70 -18 11 -62 11 -108 0z m28 -39 c0 -11 -11 -32 -24 -48 l-24
-27 -41 29 c-23 15 -44 32 -47 36 -2 4 19 12 48 17 81 15 88 14 88 -7z"/>
</g>
</g>
</svg>