<?xml version="1.0" standalone="no"?>
<!DOCTYPE svg PUBLIC "-//W3C//DTD SVG 20010904//EN"
 "http://www.w3.org/TR/2001/REC-SVG-20010904/DTD/svg10.dtd">
<svg version="1.0" xmlns="http://www.w3.org/2000/svg"
 width="96.000000pt" height="68.000000pt" viewBox="0 0 96.000000 68.000000"
 preserveAspectRatio="xMidYMid meet">
<metadata>
Created by potrace 1.16, written by Peter Selinger 2001-2019
Combined from part_0.svg through part_5.svg with named groups
</metadata>
<g transform="translate(0.000000,68.000000) scale(0.100000,-0.100000)" fill="#000000" stroke="none">
<g id="part-0" class="char-part">
  <path d="M428 616 c-25 -46 -76 -95 -95 -92 -17 4 -19 -3 -18 -82 0 -48 -4
-98 -8 -112 -10 -33 15 -72 34 -52 7 6 32 12 55 12 37 0 43 -3 48 -26 4 -15 5
-29 2 -32 -3 -3 -77 -9 -163 -15 -87 -5 -160 -11 -163 -14 -2 -2 2 -9 10 -14
14 -10 90 -7 253 8 l67 6 0 -91 c0 -82 9 -116 27 -98 4 3 10 45 14 93 4 49 8
91 8 96 1 4 73 7 161 7 158 0 185 6 138 31 -15 8 -53 9 -127 4 -171 -12 -166
-13 -166 10 -1 11 -4 26 -8 33 -6 9 9 12 66 12 71 0 75 1 75 23 0 12 3 34 7
48 6 24 4 28 -24 34 -17 3 -54 2 -83 -4 -29 -6 -82 -12 -118 -13 -60 -3 -65
-1 -68 18 -3 21 3 22 133 34 74 7 133 15 131 17 -2 3 2 21 10 40 9 19 12 38 9
42 -14 14 -200 2 -227 -15 -4 -3 -8 -3 -8 1 0 3 25 21 55 40 58 38 62 44 43
63 -20 20 -56 14 -70 -12z m152 -110 c0 -15 -7 -27 -17 -30 -40 -11 -184 -28
-198 -22 -19 7 -20 45 -2 52 18 6 132 21 180 23 33 1 37 -2 37 -23z m10 -145
c0 -33 7 -31 -172 -46 -68 -6 -68 -5 -68 20 0 14 3 25 8 26 4 0 52 6 107 13
55 7 106 14 113 15 7 0 12 -11 12 -28z"/>
</g>
<g id="part-1" class="char-part">
  <path d="M440 631 c0 -5 -16 -30 -35 -55 -49 -65 -25 -61 74 12 l34 25 -24 13
c-28 16 -49 18 -49 5z"/>
</g>
<g id="part-2" class="char-part">
  <path d="M535 400 c-22 -5 -79 -12 -128 -15 -48 -4 -89 -10 -91 -14 -2 -3 -7
-20 -10 -36 -7 -34 17 -80 31 -58 5 7 61 14 156 19 119 6 147 10 143 21 -3 7
0 25 6 39 11 22 9 28 -7 40 -21 15 -39 16 -100 4z m55 -39 c0 -31 1 -31 -167
-47 l-73 -7 0 27 c0 14 3 26 8 27 4 0 50 6 102 13 138 19 130 20 130 -13z"/>
</g>
<g id="part-3" class="char-part">
  <path d="M457 292 c-14 -3 -17 -10 -12 -32 l6 -28 -68 -6 c-37 -3 -112 -8
-165 -12 -54 -3 -98 -10 -98 -15 0 -18 57 -22 174 -10 67 6 129 11 139 11 15
0 17 -11 17 -89 0 -136 33 -132 42 5 3 39 8 76 12 83 5 7 58 11 167 11 87 0
159 4 159 9 0 23 -63 34 -163 26 -170 -12 -162 -13 -162 13 -1 26 -21 41 -48
34z"/>
</g>
</g>
</svg>