<?xml version="1.0" standalone="no"?>
<!DOCTYPE svg PUBLIC "-//W3C//DTD SVG 20010904//EN"
 "http://www.w3.org/TR/2001/REC-SVG-20010904/DTD/svg10.dtd">
<svg version="1.0" xmlns="http://www.w3.org/2000/svg"
 width="96.000000pt" height="68.000000pt" viewBox="0 0 96.000000 68.000000"
 preserveAspectRatio="xMidYMid meet">
<metadata>
Created by potrace 1.16, written by Peter Selinger 2001-2019
Combined from part_0.svg through part_5.svg with named groups
</metadata>
<g transform="translate(0.000000,68.000000) scale(0.100000,-0.100000)" fill="#000000" stroke="none">
<g id="part-0" class="char-part">
  <path d="M395 571 l7 -58 -82 -7 c-106 -10 -104 -30 3 -34 67 -2 77 -5 83 -24
4 -12 1 -24 -7 -28 -18 -12 -144 -23 -168 -15 -23 7 -30 -10 -8 -18 8 -3 24
-29 36 -59 l21 -53 58 0 c52 0 57 -2 54 -20 -7 -40 -21 -46 -63 -25 -40 21
-125 28 -114 10 3 -5 20 -10 37 -10 30 0 98 -34 98 -49 0 -12 -53 -58 -89 -76
-19 -10 -58 -26 -85 -36 -38 -13 -45 -18 -25 -18 57 -2 154 41 233 102 7 6 52
-17 115 -57 l104 -66 81 1 c45 1 92 4 106 8 23 7 24 8 5 14 -11 4 -52 13 -92
21 -135 29 -299 97 -288 121 2 6 10 29 16 52 14 47 29 53 131 53 47 0 58 3 50
13 -13 16 1 53 28 69 53 34 -3 61 -106 52 -41 -4 -74 -4 -74 -1 0 3 4 17 9 30
8 21 18 25 68 31 68 8 93 20 77 36 -14 14 -37 15 -97 6 l-48 -7 3 34 c2 41
-19 67 -57 67 -27 0 -27 0 -20 -59z m179 -170 c3 -4 0 -22 -6 -39 -10 -27 -19
-32 -56 -38 -53 -8 -63 1 -55 49 l6 37 53 0 c29 0 55 -4 58 -9z m-164 -30 c0
-53 -8 -61 -60 -61 -37 0 -49 4 -53 18 -2 9 -8 24 -11 33 -6 13 2 19 41 27 79
16 83 15 83 -17z"/>
</g>
<g id="part-1" class="char-part">
  <path d="M394 594 c22 -87 26 -81 -50 -89 -38 -4 -78 -9 -89 -12 -39 -11 26
-25 88 -19 54 5 59 4 64 -15 4 -12 11 -18 20 -15 8 3 19 6 24 6 5 0 9 8 9 18
0 15 13 20 71 29 39 6 74 14 77 18 13 13 -25 26 -63 20 -86 -11 -80 -13 -80
28 0 41 -15 57 -54 57 -20 0 -22 -3 -17 -26z"/>
</g>
<g id="part-2" class="char-part">
  <path d="M412 431 c-23 -19 -138 -35 -179 -25 -28 8 -29 -2 -4 -24 10 -10 26
-38 35 -63 l17 -46 44 4 c24 3 57 1 74 -5 25 -9 32 -8 39 5 7 11 32 16 95 20
48 3 87 10 87 14 0 5 -4 9 -10 9 -18 0 -10 18 20 47 17 15 30 33 30 39 0 23
-52 35 -126 28 -53 -5 -74 -3 -74 5 0 17 -24 13 -48 -8z m168 -26 c0 -3 -6
-21 -14 -39 -12 -29 -20 -34 -61 -40 -26 -4 -49 -6 -51 -3 -3 2 -2 23 2 46 l7
41 58 0 c33 0 59 -2 59 -5z m-170 -34 c0 -52 -8 -61 -56 -61 -39 0 -46 3 -54
26 -15 39 -13 42 33 52 71 16 77 15 77 -17z"/>
</g>
<g id="part-3" class="char-part">
  <path d="M390 245 c-11 -29 -16 -30 -63 -10 -20 8 -58 15 -84 14 -53 0 -39
-13 27 -24 42 -7 86 -38 76 -53 -13 -22 -96 -73 -158 -98 l-63 -25 52 5 c56 5
131 39 181 81 l32 27 107 -66 108 -66 80 1 c85 1 142 12 115 22 -8 3 -60 15
-115 27 -55 12 -139 40 -187 63 -49 22 -88 41 -88 42 0 2 7 18 15 38 8 19 11
37 8 41 -14 13 -34 5 -43 -19z"/>
</g>
</g>
</svg>