<?xml version="1.0" standalone="no"?>
<!DOCTYPE svg PUBLIC "-//W3C//DTD SVG 20010904//EN"
 "http://www.w3.org/TR/2001/REC-SVG-20010904/DTD/svg10.dtd">
<svg version="1.0" xmlns="http://www.w3.org/2000/svg"
 width="96.000000pt" height="68.000000pt" viewBox="0 0 96.000000 68.000000"
 preserveAspectRatio="xMidYMid meet">
<metadata>
Created by potrace 1.16, written by Peter Selinger 2001-2019
Combined from part_0.svg through part_5.svg with named groups
</metadata>
<g transform="translate(0.000000,68.000000) scale(0.100000,-0.100000)" fill="#000000" stroke="none">
<g id="part-0" class="char-part">
  <path d="M465 601 c-3 -5 11 -15 30 -21 27 -9 51 -33 104 -103 110 -148 109
-147 186 -147 36 0 65 3 65 8 0 4 -21 15 -48 26 -76 30 -145 81 -202 151 -62
77 -118 113 -135 86z"/>
  <path d="M402 436 c-12 -29 -48 -77 -79 -109 -31 -31 -51 -57 -45 -57 7 0 12
5 12 11 0 5 5 7 11 4 5 -4 49 32 95 79 67 68 83 90 75 100 -27 32 -46 24 -69
-28z"/>
  <path d="M205 470 c-11 -5 -44 -9 -72 -9 -56 -1 -61 -5 -38 -34 7 -11 16 -38
20 -60 12 -82 17 -97 30 -97 7 0 15 7 19 15 3 8 16 15 29 15 14 0 38 3 55 6
25 5 31 12 36 45 3 21 14 55 23 74 15 32 15 37 3 45 -18 12 -78 12 -105 0z
m32 -76 c-5 -49 -18 -64 -53 -64 -17 0 -23 8 -28 36 -4 19 -9 41 -12 49 -6 15
14 22 65 24 l34 1 -6 -46z"/>
  <path d="M473 323 c-51 -9 -90 -19 -87 -24 3 -5 14 -9 26 -9 18 0 20 -4 14
-32 -7 -37 -65 -110 -106 -135 -43 -25 -37 -37 8 -14 69 37 166 144 160 178
-3 15 6 18 55 21 l57 3 0 -35 c0 -39 -35 -137 -53 -148 -6 -4 -25 -4 -42 -1
l-30 6 26 -33 c34 -44 41 -46 77 -15 23 20 34 42 51 107 12 46 26 92 32 102 9
16 8 22 -7 33 -22 16 -61 15 -181 -4z"/>
</g>
<g id="part-1" class="char-part">
  <path d="M220 469 c-14 -6 -50 -11 -81 -12 l-56 -2 18 -35 c9 -19 20 -58 24
-87 4 -30 13 -54 21 -57 8 -3 14 1 14 8 0 16 30 26 78 26 24 0 32 5 32 18 0 9
11 43 24 75 23 55 23 58 6 67 -23 12 -47 12 -80 -1z m28 -41 c2 -9 -2 -34 -8
-56 -9 -35 -14 -40 -45 -44 -38 -4 -40 -2 -50 65 l-7 46 38 4 c57 6 68 4 72
-15z"/>
</g>
<g id="part-2" class="char-part">
  <path d="M460 601 c0 -5 16 -16 36 -23 27 -10 54 -37 116 -121 44 -59 89 -112
99 -117 22 -12 152 -13 145 -2 -3 5 -36 21 -74 36 -73 28 -123 70 -195 161
-38 49 -74 74 -109 75 -10 0 -18 -4 -18 -9z"/>
  <path d="M405 444 c-10 -28 -44 -75 -84 -117 l-66 -70 41 21 c23 11 74 56 113
99 l73 77 -22 18 c-12 10 -26 18 -30 18 -4 0 -15 -21 -25 -46z"/>
</g>
<g id="part-3" class="char-part">
  <path d="M555 335 c-5 -2 -50 -9 -100 -16 -76 -10 -86 -13 -67 -22 17 -8 40
-7 81 1 31 7 74 12 94 12 34 0 37 -2 37 -30 0 -37 -27 -120 -47 -142 -11 -12
-24 -15 -47 -11 l-31 6 26 -33 c34 -44 41 -46 77 -15 23 19 35 43 52 107 12
46 27 92 32 102 8 15 6 22 -8 33 -16 12 -74 17 -99 8z"/>
</g>
<g id="part-4" class="char-part">
  <path d="M448 293 c-10 -2 -18 -13 -18 -24 0 -31 -55 -104 -107 -144 -25 -19
-43 -35 -39 -35 13 0 71 33 104 59 42 33 106 126 98 140 -7 11 -10 12 -38 4z"/>
</g>
</g>
</svg>