<?xml version="1.0" standalone="no"?>
<!DOCTYPE svg PUBLIC "-//W3C//DTD SVG 20010904//EN"
 "http://www.w3.org/TR/2001/REC-SVG-20010904/DTD/svg10.dtd">
<svg version="1.0" xmlns="http://www.w3.org/2000/svg"
 width="96.000000pt" height="68.000000pt" viewBox="0 0 96.000000 68.000000"
 preserveAspectRatio="xMidYMid meet">
<metadata>
Created by potrace 1.16, written by Peter Selinger 2001-2019
Combined from part_0.svg through part_5.svg with named groups
</metadata>
<g transform="translate(0.000000,68.000000) scale(0.100000,-0.100000)" fill="#000000" stroke="none">
<g id="part-0" class="char-part">
  <path d="M609 536 c-5 -5 -174 -30 -199 -29 -8 0 -23 3 -32 8 -17 7 -18 -4
-18 -153 0 -158 0 -161 26 -191 37 -45 86 -54 254 -49 112 3 153 8 178 22 42
22 47 35 27 72 -8 16 -15 37 -15 47 0 28 -18 20 -25 -12 -10 -47 -45 -71 -120
-82 -86 -14 -211 -8 -250 11 -29 15 -30 18 -33 92 l-3 76 93 6 c153 11 165 14
173 43 3 14 17 42 31 62 29 43 30 57 5 71 -19 10 -84 14 -92 6z m31 -43 c0
-10 -5 -35 -11 -55 -7 -29 -16 -39 -37 -44 -15 -3 -35 -8 -44 -11 -16 -4 -18
3 -15 61 l2 66 53 0 c43 0 52 -3 52 -17z m-156 -9 c8 -22 7 -87 -2 -99 -4 -6
-24 -12 -44 -14 l-38 -3 0 44 c0 59 15 77 71 87 4 0 10 -6 13 -15z"/>
  <path d="M230 481 c-27 -15 -85 -21 -118 -12 -25 8 -32 7 -32 -4 0 -7 5 -15
10 -17 6 -2 18 -40 28 -86 13 -65 20 -82 34 -82 10 0 18 4 18 9 0 5 26 12 58
16 68 8 76 13 62 30 -8 9 -6 25 5 56 29 79 29 78 0 89 -31 12 -45 12 -65 1z
m6 -77 c-7 -58 -12 -64 -41 -64 -29 0 -31 3 -40 57 l-7 42 39 4 c21 2 42 4 47
5 5 1 6 -19 2 -44z"/>
</g>
<g id="part-1" class="char-part">
  <path d="M220 472 c-23 -9 -51 -12 -82 -8 -44 6 -63 -3 -39 -18 5 -4 15 -37
22 -75 15 -84 24 -103 42 -81 6 9 23 16 37 17 14 1 39 5 56 8 26 4 30 9 27 29
-3 13 5 45 16 71 12 27 20 50 17 52 -15 15 -65 18 -96 5z m26 -38 c-3 -9 -6
-28 -6 -44 0 -34 -23 -60 -54 -60 -20 0 -24 7 -33 55 -9 53 -9 54 16 58 63 10
83 7 77 -9z"/>
</g>
<g id="part-2" class="char-part">
  <path d="M530 523 c-47 -8 -104 -12 -127 -10 l-43 5 0 -86 0 -85 108 7 c166
11 201 16 195 32 -3 7 11 37 31 66 l36 53 -21 18 c-25 20 -62 20 -179 0z m106
-44 c-3 -17 -6 -37 -6 -43 0 -24 -19 -39 -59 -46 l-41 -7 2 63 3 64 54 0 54 0
-7 -31z m-146 -49 c0 -45 -2 -48 -31 -54 -54 -10 -59 -8 -59 27 0 53 11 76 39
85 37 13 51 -2 51 -58z"/>
</g>
<g id="part-3" class="char-part">
  <path d="M360 280 c0 -133 26 -152 216 -158 141 -4 230 8 264 36 20 17 20 18
2 64 -23 61 -29 66 -37 30 -10 -48 -44 -72 -121 -84 -89 -14 -225 -4 -259 18
-23 15 -25 22 -25 90 0 67 -2 74 -20 74 -18 0 -20 -7 -20 -70z"/>
</g>
</g>
</svg>