<?xml version="1.0" standalone="no"?>
<!DOCTYPE svg PUBLIC "-//W3C//DTD SVG 20010904//EN"
 "http://www.w3.org/TR/2001/REC-SVG-20010904/DTD/svg10.dtd">
<svg version="1.0" xmlns="http://www.w3.org/2000/svg"
 width="96.000000pt" height="68.000000pt" viewBox="0 0 96.000000 68.000000"
 preserveAspectRatio="xMidYMid meet">
<metadata>
Created by potrace 1.16, written by Peter Selinger 2001-2019
Combined from part_0.svg through part_5.svg with named groups
</metadata>
<g transform="translate(0.000000,68.000000) scale(0.100000,-0.100000)" fill="#000000" stroke="none">
<g id="part-0" class="char-part">
  <path d="M280 588 c0 -7 -15 -34 -32 -60 -27 -39 -37 -46 -55 -42 -26 7 -27 3
-12 -49 7 -26 7 -61 -1 -118 -6 -45 -9 -84 -6 -87 3 -3 41 3 83 12 43 10 92
16 108 14 30 -3 30 -3 28 -62 -1 -33 -8 -73 -14 -89 -10 -24 -17 -28 -41 -25
-34 5 -35 -1 -3 -36 21 -23 27 -25 44 -14 27 16 47 68 61 157 15 88 9 95 -65
86 -157 -18 -155 -18 -155 -3 0 11 21 19 76 28 54 8 73 15 66 22 -8 8 -28 8
-68 -1 -75 -15 -74 -15 -74 14 0 23 3 25 53 26 63 2 58 2 79 -6 15 -6 39 29
86 126 1 4 -10 12 -26 18 -26 11 -71 8 -97 -7 -17 -10 -55 -11 -55 -1 0 8 15
13 32 10 5 0 7 3 5 7 -1 5 12 20 28 35 29 26 29 27 11 42 -24 18 -56 20 -56 3z
m94 -116 c11 -19 -13 -29 -81 -35 -67 -7 -71 -6 -66 12 4 15 16 21 47 24 80 7
95 7 100 -1z m-11 -71 c-4 -14 -13 -19 -41 -18 -21 1 -49 -3 -64 -7 -24 -7
-28 -5 -28 12 0 22 18 28 97 31 36 1 40 -1 36 -18z"/>
  <path d="M591 478 l30 -43 -43 -8 c-24 -4 -57 -6 -74 -3 -29 4 -32 1 -47 -42
-21 -59 -21 -62 3 -62 15 0 21 9 26 39 l6 38 120 15 c66 8 122 10 125 5 3 -4
-3 -17 -13 -28 -27 -30 -12 -31 46 -2 l53 26 -24 19 c-18 16 -36 19 -84 16
-48 -2 -60 0 -60 12 0 16 -61 60 -83 60 -7 0 1 -18 19 -42z"/>
  <path d="M529 318 c0 -2 -1 -54 -2 -116 -2 -110 -1 -114 23 -132 49 -38 290
-20 290 21 0 15 -34 79 -42 79 -4 0 -8 -9 -8 -20 0 -10 -10 -28 -22 -40 -18
-17 -35 -20 -110 -20 -84 0 -88 1 -94 24 -9 39 -1 60 31 76 17 8 58 34 93 57
57 38 61 43 43 52 -32 18 -47 13 -72 -24 -13 -19 -34 -40 -46 -46 -13 -7 -23
-16 -23 -21 0 -4 -7 -8 -16 -8 -14 0 -16 8 -10 49 6 44 4 51 -14 61 -11 6 -20
9 -21 8z"/>
  <path d="M320 207 c0 -14 31 -47 43 -47 12 0 8 35 -5 48 -16 16 -38 15 -38 -1z"/>
  <path d="M185 173 c7 -32 22 -50 31 -40 11 11 -5 54 -22 61 -13 5 -15 1 -9
-21z"/>
  <path d="M250 192 c0 -5 9 -17 21 -28 21 -19 21 -19 18 6 -4 23 -39 43 -39 22z"/>
  <path d="M114 158 c-17 -37 -13 -73 8 -66 17 6 31 65 19 85 -8 15 -12 12 -27
-19z"/>
</g>
<g id="part-1" class="char-part">
  <path d="M279 573 c-5 -14 -19 -39 -30 -55 -12 -16 -19 -32 -16 -35 6 -5 116
78 116 89 1 3 -13 11 -29 17 -28 9 -32 8 -41 -16z"/>
</g>
<g id="part-2" class="char-part">
  <path d="M327 190 c19 -33 43 -40 43 -12 0 23 -19 42 -43 42 -17 0 -17 -1 0
-30z"/>
  <path d="M250 197 c0 -22 26 -51 39 -43 7 5 8 13 1 25 -12 23 -40 35 -40 18z"/>
  <path d="M185 173 c7 -32 22 -50 31 -40 11 11 -5 54 -22 61 -13 5 -15 1 -9
-21z"/>
  <path d="M109 150 c-13 -41 -3 -70 19 -56 12 7 23 62 16 81 -10 26 -23 17 -35
-25z"/>
</g>
<g id="part-3" class="char-part">
  <path d="M571 503 c7 -10 22 -28 33 -40 11 -13 17 -26 13 -29 -3 -3 -37 -7
-75 -8 l-69 -1 -17 -48 c-10 -27 -15 -51 -12 -54 12 -13 36 8 44 39 l8 33 117
16 c65 8 120 13 122 11 2 -3 -2 -17 -11 -33 -8 -16 -13 -29 -10 -29 13 0 106
52 106 59 0 20 -73 38 -113 29 -39 -8 -51 -6 -53 13 -1 5 -2 13 -3 18 -1 10
-63 41 -81 41 -9 0 -9 -4 1 -17z"/>
</g>
<g id="part-4" class="char-part">
  <path d="M527 217 c1 -56 2 -110 2 -119 2 -31 53 -48 145 -48 83 0 166 20 166
41 0 15 -34 79 -42 79 -4 0 -8 -9 -8 -20 0 -11 -9 -29 -20 -40 -17 -17 -33
-20 -109 -20 -96 0 -101 3 -101 60 0 22 6 30 28 38 15 5 58 30 96 55 64 41 67
46 48 56 -33 17 -43 14 -79 -29 -19 -21 -48 -49 -65 -61 l-31 -23 6 57 c6 49
5 58 -12 67 -11 5 -21 10 -23 10 -2 0 -2 -46 -1 -103z"/>
</g>
</g>
</svg>