<?xml version="1.0" standalone="no"?>
<!DOCTYPE svg PUBLIC "-//W3C//DTD SVG 20010904//EN"
 "http://www.w3.org/TR/2001/REC-SVG-20010904/DTD/svg10.dtd">
<svg version="1.0" xmlns="http://www.w3.org/2000/svg"
 width="96.000000pt" height="68.000000pt" viewBox="0 0 96.000000 68.000000"
 preserveAspectRatio="xMidYMid meet">
<metadata>
Created by potrace 1.16, written by Peter Selinger 2001-2019
Combined from part_0.svg through part_5.svg with named groups
</metadata>
<g transform="translate(0.000000,68.000000) scale(0.100000,-0.100000)" fill="#000000" stroke="none">
<g id="part-0" class="char-part">
  <path d="M568 506 l4 -83 -39 -6 c-21 -4 -49 -4 -62 0 -22 5 -22 4 -11 -17 8
-14 12 -60 11 -121 -2 -102 11 -151 32 -130 16 16 27 13 27 -7 0 -18 -22 -42
-84 -90 -37 -28 -12 -28 35 1 20 12 55 33 77 47 48 28 51 37 20 49 -15 6 2 10
62 15 73 6 86 5 97 -10 7 -9 18 -14 26 -11 11 4 15 38 19 144 3 76 4 140 1
143 -3 3 -42 4 -87 3 l-82 -2 4 29 c4 27 7 29 76 37 41 5 69 12 66 18 -6 11
-60 13 -106 3 -29 -7 -30 -6 -26 24 5 32 -9 48 -43 48 -19 0 -20 -5 -17 -84z
m162 -124 c0 -29 0 -29 -94 -40 -133 -17 -128 -17 -124 20 3 30 6 32 43 36 22
2 42 6 44 8 2 2 33 4 68 4 63 0 63 0 63 -28z m-2 -79 c-3 -28 -3 -28 -111 -38
l-107 -10 0 26 c0 25 3 26 88 36 141 16 134 17 130 -14z m0 -108 c-2 -2 -50
-5 -108 -6 l-105 -4 -3 26 -3 26 108 9 108 9 3 -28 c2 -16 2 -30 0 -32z"/>
  <path d="M283 488 l2 -82 -70 -11 c-38 -5 -70 -14 -70 -20 0 -5 28 -11 63 -13
34 -2 62 -7 62 -13 0 -18 -66 -113 -113 -163 -26 -27 -44 -52 -41 -55 11 -11
78 36 126 89 l51 55 -6 -50 c-20 -157 -20 -171 -2 -189 32 -32 45 -4 45 99 0
51 3 106 6 123 l6 31 28 -21 c31 -22 50 -18 50 13 0 13 -13 24 -41 35 -57 24
-51 52 16 71 47 14 48 16 30 30 -13 9 -32 13 -53 9 -29 -4 -32 -3 -28 17 18
88 16 96 -21 116 -38 20 -41 14 -40 -71z"/>
  <path d="M720 85 c56 -57 90 -70 90 -36 0 26 -25 50 -78 72 -68 30 -70 23 -12
-36z"/>
</g>
<g id="part-1" class="char-part">
  <path d="M284 538 c3 -13 9 -48 12 -79 l7 -56 -49 -7 c-84 -12 -104 -17 -98
-28 4 -6 29 -7 65 -3 47 6 59 4 59 -7 0 -21 -67 -118 -118 -170 -29 -31 -41
-48 -30 -48 26 0 79 45 134 115 12 16 25 27 27 25 2 -3 0 -39 -5 -80 -14 -115
-14 -148 0 -162 11 -11 16 -9 28 6 10 15 14 52 14 145 l0 125 28 -27 c33 -31
52 -35 52 -9 0 17 -21 32 -63 46 -12 4 -17 14 -15 28 2 17 14 26 51 36 60 17
60 32 1 32 l-46 0 7 56 c6 47 4 58 -12 69 -10 8 -26 15 -37 15 -14 0 -17 -5
-12 -22z"/>
</g>
<g id="part-2" class="char-part">
  <path d="M558 579 c7 -8 12 -41 12 -87 0 -70 1 -73 23 -70 14 2 22 10 23 23 1
11 2 25 3 32 0 6 32 15 74 20 39 4 71 13 69 18 -3 12 -75 13 -113 3 -25 -7
-26 -6 -25 30 1 36 0 37 -39 40 -32 3 -38 1 -27 -9z"/>
</g>
<g id="part-3" class="char-part">
  <path d="M640 429 c-30 -5 -83 -9 -118 -10 -59 -2 -63 -3 -58 -23 3 -12 6 -60
6 -108 0 -81 2 -88 20 -88 13 0 20 7 20 19 0 16 12 19 96 25 53 4 102 10 110
13 9 3 14 -2 14 -16 0 -15 6 -21 24 -21 22 0 23 3 29 98 8 129 2 134 -143 111z
m90 -48 c0 -28 -2 -29 -62 -35 -35 -4 -84 -9 -110 -13 l-48 -6 0 32 c0 24 5
32 23 36 31 7 83 12 145 13 51 2 52 1 52 -27z m0 -81 c0 -27 -3 -30 -33 -30
-19 0 -68 -3 -110 -6 l-77 -7 0 25 c0 26 10 28 203 46 13 2 17 -5 17 -28z"/>
</g>
<g id="part-4" class="char-part">
  <path d="M530 136 c-5 -14 -32 -42 -59 -63 -112 -86 -32 -52 128 54 8 5 -13
20 -36 28 -19 5 -25 1 -33 -19z"/>
  <path d="M720 85 c56 -57 90 -70 90 -36 0 22 -39 56 -89 77 -57 24 -57 16 -1
-41z"/>
</g>
</g>
</svg>