<?xml version="1.0" standalone="no"?>
<!DOCTYPE svg PUBLIC "-//W3C//DTD SVG 20010904//EN"
 "http://www.w3.org/TR/2001/REC-SVG-20010904/DTD/svg10.dtd">
<svg version="1.0" xmlns="http://www.w3.org/2000/svg"
 width="96.000000pt" height="68.000000pt" viewBox="0 0 96.000000 68.000000"
 preserveAspectRatio="xMidYMid meet">
<metadata>
Created by potrace 1.16, written by Peter Selinger 2001-2019
Combined from part_0.svg through part_5.svg with named groups
</metadata>
<g transform="translate(0.000000,68.000000) scale(0.100000,-0.100000)" fill="#000000" stroke="none">
<g id="part-0" class="char-part">
  <path d="M577 653 c-4 -3 -7 -21 -7 -39 0 -30 -2 -32 -45 -38 -25 -4 -45 -11
-45 -16 0 -10 25 -20 51 -20 16 0 18 -5 13 -25 -9 -35 9 -31 40 10 26 33 30
35 87 35 32 0 59 4 59 10 0 17 -41 31 -72 25 -27 -6 -29 -5 -24 13 9 27 -39
64 -57 45z"/>
  <path d="M286 622 c-3 -5 4 -19 15 -31 12 -12 19 -25 16 -28 -3 -2 -33 -7 -66
-10 -64 -6 -75 -15 -40 -34 21 -11 76 -8 110 5 10 5 19 -1 27 -19 16 -34 32
-32 32 5 0 26 5 31 30 37 41 8 38 21 -7 25 -29 2 -39 8 -42 23 -2 11 -8 23
-15 27 -15 10 -54 10 -60 0z"/>
  <path d="M443 493 c2 -10 8 -26 12 -35 6 -16 0 -18 -51 -18 -80 0 -139 -10
-122 -21 7 -5 23 -9 35 -9 16 0 28 -12 43 -40 11 -23 18 -44 16 -49 -3 -4 -54
-11 -113 -15 -59 -4 -110 -9 -112 -12 -3 -3 1 -10 9 -15 15 -10 82 -7 205 10
38 5 73 7 77 5 4 -3 8 -20 8 -38 l0 -33 -61 -7 c-34 -3 -77 -6 -96 -6 -22 0
-32 -4 -28 -11 5 -7 41 -10 99 -8 l91 3 -3 -74 c-2 -71 8 -113 24 -97 4 3 12
45 17 92 l11 85 65 1 c37 1 80 4 96 8 l30 7 -24 13 c-18 10 -45 12 -99 7 l-74
-7 7 31 c5 21 3 30 -7 31 -44 4 95 18 190 18 61 1 112 5 112 9 0 23 -51 30
-146 21 -54 -5 -99 -7 -101 -6 -2 2 8 17 21 32 14 16 24 38 23 49 -2 17 5 22
31 24 20 2 32 8 29 15 -5 14 -85 13 -99 -1 -15 -15 -58 -1 -58 18 0 9 -11 22
-25 28 -34 16 -38 15 -32 -5z m97 -100 c0 -54 -10 -63 -71 -66 -51 -2 -54 -1
-57 23 -2 14 -13 33 -25 42 -26 20 -17 25 53 31 108 9 100 11 100 -30z"/>
</g>
<g id="part-1" class="char-part">
  <path d="M568 613 c-3 -37 -4 -38 -46 -41 -50 -4 -47 -22 3 -22 33 0 34 -1 24
-26 -15 -40 -4 -40 26 0 25 32 31 35 86 38 72 4 79 22 10 26 -44 3 -48 5 -44
24 6 21 -10 38 -39 38 -12 0 -18 -10 -20 -37z"/>
  <path d="M309 591 c26 -35 17 -41 -67 -41 l-57 -1 25 -20 c16 -14 32 -19 50
-15 81 19 87 19 93 -3 8 -30 30 -27 25 4 -4 19 0 26 23 34 39 13 37 23 -3 19
-29 -3 -33 0 -36 25 -3 24 -8 27 -38 27 l-35 0 20 -29z"/>
</g>
<g id="part-2" class="char-part">
  <path d="M430 503 c0 -5 7 -17 15 -27 20 -27 19 -31 -7 -33 -111 -7 -167 -16
-162 -25 10 -16 347 12 383 32 28 15 -35 23 -84 11 -61 -15 -75 -14 -75 7 0
11 -11 24 -25 30 -30 14 -45 15 -45 5z"/>
</g>
<g id="part-3" class="char-part">
  <path d="M537 385 c-2 -26 -6 -48 -8 -50 -2 -1 -30 -6 -61 -10 l-58 -7 0 29
c0 32 -26 63 -53 63 -16 0 -15 -4 3 -41 12 -23 19 -43 16 -47 -3 -3 -55 -10
-116 -15 -60 -5 -110 -14 -110 -18 0 -19 58 -21 177 -5 69 10 204 20 300 23
95 3 173 9 173 13 0 4 -13 13 -28 19 -21 9 -52 9 -121 1 -52 -6 -96 -9 -98 -6
-2 2 2 10 10 18 8 7 20 24 26 37 11 19 11 25 0 32 -32 20 -46 10 -52 -36z"/>
</g>
<g id="part-4" class="char-part">
  <path d="M455 291 c-3 -6 -5 -24 -3 -39 3 -26 0 -27 -47 -34 -27 -3 -72 -7
-98 -7 -32 -1 -46 -5 -42 -12 5 -7 40 -10 97 -8 l89 3 2 -81 c2 -77 9 -104 23
-90 4 3 11 45 17 92 l10 85 31 2 c17 1 38 2 46 4 8 1 38 2 65 3 47 2 49 2 30
17 -16 13 -36 15 -98 10 l-79 -7 7 31 c4 18 3 30 -3 30 -6 0 -17 3 -25 6 -8 3
-18 0 -22 -5z"/>
</g>
</g>
</svg>