<?xml version="1.0" standalone="no"?>
<!DOCTYPE svg PUBLIC "-//W3C//DTD SVG 20010904//EN"
 "http://www.w3.org/TR/2001/REC-SVG-20010904/DTD/svg10.dtd">
<svg version="1.0" xmlns="http://www.w3.org/2000/svg"
 width="96.000000pt" height="68.000000pt" viewBox="0 0 96.000000 68.000000"
 preserveAspectRatio="xMidYMid meet">
<metadata>
Created by potrace 1.16, written by Peter Selinger 2001-2019
Combined from part_0.svg through part_5.svg with named groups
</metadata>
<g transform="translate(0.000000,68.000000) scale(0.100000,-0.100000)" fill="#000000" stroke="none">
<g id="part-0" class="char-part">
  <path d="M512 591 c-15 -35 -66 -91 -104 -115 -17 -11 -25 -23 -21 -33 6 -15
49 -14 111 3 42 12 22 -11 -48 -55 -38 -24 -70 -47 -70 -51 0 -21 28 -30 59
-19 18 6 35 9 38 5 13 -13 -23 -69 -74 -116 -57 -52 -60 -64 -8 -30 17 11 36
20 44 20 17 0 81 -41 81 -52 0 -12 -95 -57 -153 -73 -48 -13 -49 -14 -17 -14
47 -1 113 15 163 39 l40 20 63 -40 c58 -37 69 -40 131 -39 105 1 132 18 53 34
-55 10 -163 47 -187 63 l-23 14 48 50 c58 60 60 65 28 79 -18 9 -36 9 -70 0
-25 -6 -54 -11 -66 -11 -19 0 -20 1 -6 16 18 18 20 30 6 39 -22 13 -7 21 61
33 l71 12 26 -27 c24 -26 26 -26 33 -8 9 25 -8 53 -51 82 -32 22 -63 22 -41 0
24 -24 8 -33 -80 -45 -51 -7 -94 -11 -96 -8 -2 2 46 34 106 71 61 37 111 70
111 73 0 3 -7 13 -16 23 -17 19 -44 15 -44 -5 0 -35 -138 -83 -156 -55 -4 6
-2 14 4 18 5 3 35 28 66 55 45 39 54 51 45 62 -19 23 -43 16 -57 -15z m108
-334 c0 -20 -54 -77 -73 -77 -22 0 -77 33 -77 46 0 9 77 32 143 43 4 0 7 -5 7
-12z"/>
  <path d="M262 567 c-7 -19 -40 -60 -73 -91 -34 -31 -60 -59 -58 -61 16 -16
209 119 209 147 0 14 -31 37 -50 38 -9 0 -21 -15 -28 -33z"/>
  <path d="M290 443 c0 -27 -78 -117 -140 -164 -61 -46 -35 -45 40 2 l45 28 3
-61 c2 -33 -2 -74 -7 -91 -6 -16 -11 -40 -11 -52 0 -26 25 -63 36 -52 14 13
23 250 11 266 -9 10 -2 22 31 52 46 44 52 63 23 79 -27 14 -31 13 -31 -7z"/>
</g>
<g id="part-1" class="char-part">
  <path d="M267 570 c-4 -18 -30 -52 -68 -90 -33 -33 -56 -60 -51 -60 16 0 125
77 160 113 35 36 32 47 -14 61 -18 5 -22 1 -27 -24z"/>
</g>
<g id="part-2" class="char-part">
  <path d="M280 426 c-10 -32 -82 -108 -160 -169 l-35 -28 49 21 c26 11 60 30
75 41 l26 21 3 -62 c2 -35 -2 -76 -7 -93 -16 -43 -13 -83 5 -98 12 -10 17 -10
23 0 12 19 20 243 10 263 -7 12 2 26 39 58 l47 41 -24 20 c-32 26 -38 24 -51
-15z"/>
</g>
<g id="part-3" class="char-part">
  <path d="M500 575 c-19 -33 -49 -67 -75 -85 -29 -20 -42 -35 -39 -45 7 -18 26
-19 96 -4 70 15 90 34 26 26 -26 -4 -49 -3 -52 2 -3 4 24 34 59 65 66 58 70
68 35 86 -16 9 -23 2 -50 -45z"/>
</g>
<g id="part-4" class="char-part">
  <path d="M605 519 c-22 -33 -177 -152 -214 -164 -23 -7 -23 -7 -4 -27 20 -19
20 -19 84 1 35 11 92 25 127 32 62 12 62 11 88 -16 19 -21 28 -25 34 -15 13
20 -1 49 -34 74 -54 40 -85 43 -50 5 14 -16 14 -18 -3 -22 -33 -10 -175 -29
-179 -24 -3 3 41 33 97 68 57 35 107 67 113 71 6 4 3 14 -8 27 -25 27 -27 27
-51 -10z"/>
</g>
<g id="part-5" class="char-part">
  <path d="M627 273 c-4 -3 -7 -14 -7 -24 0 -19 -44 -69 -60 -69 -6 0 -10 -4
-10 -9 0 -5 -11 -4 -25 2 -14 7 -25 15 -25 20 0 4 -6 7 -12 7 -7 -1 -3 -9 9
-19 23 -19 28 -65 6 -57 -7 3 -15 1 -18 -5 -4 -5 -21 -16 -38 -24 -18 -8 -22
-12 -10 -9 12 2 31 7 42 9 12 2 26 7 32 11 17 10 79 23 74 15 -7 -12 51 -51
75 -51 11 0 23 -7 26 -15 8 -20 97 -21 113 -1 19 23 -35 31 -68 10 -26 -17
-26 -17 -9 2 17 19 16 20 -30 34 -26 8 -49 15 -52 15 -16 4 -60 29 -60 36 0 4
14 19 31 33 17 14 28 26 24 26 -3 0 7 11 22 24 24 21 26 27 14 38 -11 10 -14
10 -18 1 -3 -7 -9 -13 -14 -13 -6 0 -7 5 -4 10 7 11 2 13 -8 3z m67 -188 c11
-8 16 -15 10 -15 -5 0 -18 7 -28 15 -11 8 -16 15 -10 15 5 0 18 -7 28 -15z
m76 -25 c-8 -5 -19 -10 -25 -10 -5 0 -3 5 5 10 8 5 20 10 25 10 6 0 3 -5 -5
-10z"/>
  <path d="M520 260 c-13 -8 -13 -10 2 -10 9 0 20 5 23 10 8 13 -5 13 -25 0z"/>
  <path d="M376 71 c-4 -5 3 -7 14 -4 23 6 26 13 6 13 -8 0 -17 -4 -20 -9z"/>
</g>
</g>
</svg>