<?xml version="1.0" standalone="no"?>
<!DOCTYPE svg PUBLIC "-//W3C//DTD SVG 20010904//EN"
 "http://www.w3.org/TR/2001/REC-SVG-20010904/DTD/svg10.dtd">
<svg version="1.0" xmlns="http://www.w3.org/2000/svg"
 width="96.000000pt" height="68.000000pt" viewBox="0 0 96.000000 68.000000"
 preserveAspectRatio="xMidYMid meet">
<metadata>
Created by potrace 1.16, written by Peter Selinger 2001-2019
Combined from part_0.svg through part_5.svg with named groups
</metadata>
<g transform="translate(0.000000,68.000000) scale(0.100000,-0.100000)" fill="#000000" stroke="none">
<g id="part-0" class="char-part">
  <path d="M429 550 c-19 -17 -45 -36 -59 -42 -23 -10 -23 -12 -5 -16 11 -2 30
-15 41 -28 20 -21 21 -24 5 -37 -9 -8 -34 -24 -56 -36 -22 -12 -33 -21 -25
-21 16 0 152 67 160 79 3 4 13 10 23 14 23 9 21 24 -5 32 -15 6 -26 1 -38 -15
-15 -20 -19 -21 -38 -9 -32 20 -27 34 19 52 29 11 40 21 37 33 -5 28 -23 26
-59 -6z"/>
  <path d="M602 513 c-22 -46 -33 -59 -53 -61 l-26 -3 15 -61 c11 -42 21 -62 33
-65 15 -4 17 -11 13 -32 -8 -32 -27 -67 -56 -103 -32 -40 -16 -44 21 -6 38 38
71 98 71 128 0 13 5 20 13 18 8 -3 13 -31 15 -79 4 -95 16 -109 92 -109 70 0
94 15 85 53 -10 38 -23 43 -36 14 -8 -17 -21 -26 -43 -29 -62 -7 -67 -2 -65
61 3 70 9 86 33 86 27 0 74 108 56 130 -15 18 -68 19 -121 3 -22 -6 -42 -8
-46 -4 -4 3 10 23 30 44 43 44 44 48 17 62 -18 10 -23 5 -48 -47z m118 -82 c0
-16 -9 -21 -47 -26 -27 -3 -61 -8 -76 -10 -26 -4 -49 17 -34 31 4 4 83 17 145
23 6 0 12 -8 12 -18z m-10 -61 c-6 -11 -21 -20 -33 -21 -96 -4 -102 -4 -105
13 -3 17 18 22 111 26 35 2 37 0 27 -18z"/>
  <path d="M150 535 c0 -15 48 -68 71 -81 23 -11 29 -11 38 0 20 24 -3 64 -46
75 -42 12 -63 14 -63 6z"/>
  <path d="M332 440 c15 -24 43 -27 34 -4 -3 9 -6 18 -6 20 0 2 -9 4 -20 4 -18
0 -19 -2 -8 -20z"/>
  <path d="M158 377 c-79 -31 -80 -37 -9 -37 l62 0 -16 -30 c-15 -29 -15 -32 10
-64 14 -18 25 -43 25 -54 0 -20 -5 -22 -70 -22 -51 0 -70 -4 -70 -13 0 -30 23
-37 104 -31 78 6 86 5 241 -47 184 -60 220 -63 335 -26 84 28 102 47 43 47
-136 1 -347 22 -444 46 -107 25 -108 26 -103 52 4 20 -1 35 -21 56 -25 27 -26
29 -8 49 10 11 28 30 40 41 52 47 -28 69 -119 33z"/>
  <path d="M420 386 c0 -8 -12 -24 -27 -36 -16 -11 -39 -30 -53 -41 l-25 -20 38
15 c20 8 47 22 59 31 28 19 38 19 38 0 0 -18 -52 -67 -97 -92 -18 -10 -33 -21
-33 -25 0 -11 93 36 114 57 23 23 35 10 26 -29 -10 -48 -18 -56 -47 -56 -25 0
-26 0 -8 -20 54 -59 109 29 85 136 -14 62 -70 126 -70 80z"/>
</g>
<g id="part-1" class="char-part">
  <path d="M160 527 c0 -16 64 -77 81 -77 23 0 26 41 5 59 -15 13 -86 27 -86 18z"/>
  <path d="M185 380 c-22 -10 -48 -19 -57 -19 -10 -1 -18 -6 -18 -12 0 -8 16
-10 50 -5 54 7 63 -2 36 -39 -12 -17 -11 -23 10 -51 13 -17 24 -42 24 -56 0
-29 -20 -38 -87 -38 -46 0 -55 -13 -23 -30 14 -8 32 -8 62 0 53 15 80 9 265
-51 83 -27 168 -49 189 -49 41 0 210 48 200 57 -3 3 -92 12 -198 19 -189 14
-386 50 -381 71 1 4 4 15 8 24 4 11 -5 29 -24 51 l-30 35 39 38 c22 22 40 42
40 45 0 7 -47 30 -58 29 -4 0 -25 -9 -47 -19z"/>
</g>
<g id="part-2" class="char-part">
  <path d="M429 554 c-13 -15 -42 -35 -64 -45 -37 -17 -38 -19 -13 -19 15 0 38
-11 52 -25 27 -27 26 -29 -44 -69 -68 -39 -25 -31 55 10 39 20 80 42 93 48 12
6 21 18 20 26 -5 25 -39 24 -62 -2 l-21 -25 -22 24 -23 24 25 9 c14 5 36 17
50 26 20 13 23 19 14 30 -17 20 -33 17 -60 -12z"/>
  <path d="M330 441 c13 -26 43 -28 38 -3 -2 9 -14 18 -26 20 -21 3 -22 1 -12
-17z"/>
</g>
<g id="part-3" class="char-part">
  <path d="M425 300 c-10 -11 -39 -34 -63 -50 -53 -35 -40 -40 21 -9 51 26 77
48 77 66 0 19 -14 16 -35 -7z"/>
</g>
<g id="part-4" class="char-part">
  <path d="M650 252 c0 -95 12 -112 83 -112 45 0 97 16 97 30 0 4 -6 22 -14 40
l-13 32 -7 -26 c-8 -32 -45 -51 -81 -42 -33 8 -44 38 -33 94 9 48 5 62 -18 62
-11 0 -14 -17 -14 -78z"/>
</g>
</g>
</svg>