<?xml version="1.0" standalone="no"?>
<!DOCTYPE svg PUBLIC "-//W3C//DTD SVG 20010904//EN"
 "http://www.w3.org/TR/2001/REC-SVG-20010904/DTD/svg10.dtd">
<svg version="1.0" xmlns="http://www.w3.org/2000/svg"
 width="96.000000pt" height="68.000000pt" viewBox="0 0 96.000000 68.000000"
 preserveAspectRatio="xMidYMid meet">
<metadata>
Created by potrace 1.16, written by Peter Selinger 2001-2019
Combined from part_0.svg through part_5.svg with named groups
</metadata>
<g transform="translate(0.000000,68.000000) scale(0.100000,-0.100000)" fill="#000000" stroke="none">
<g id="part-0" class="char-part">
  <path d="M360 558 c-113 -12 -207 -22 -209 -24 -3 -3 9 -18 25 -35 l29 -30 -2
-147 c-1 -102 -7 -160 -17 -190 -11 -32 -13 -49 -6 -63 13 -23 23 -23 97 -4
39 11 129 18 276 22 192 5 217 8 215 22 -7 35 -63 39 -258 20 -102 -10 -202
-18 -222 -18 l-38 -1 1 83 c0 94 14 306 21 312 2 2 92 10 201 16 203 13 231
19 210 40 -20 20 -104 19 -323 -3z"/>
  <path d="M437 458 c2 -24 4 -102 5 -175 3 -123 9 -156 25 -140 3 4 11 62 17
130 l11 123 48 3 48 3 -3 -69 c-3 -64 -4 -68 -25 -66 -13 2 -23 0 -23 -3 0 -9
53 -54 62 -54 19 0 36 52 42 122 8 94 -1 104 -85 88 -28 -6 -55 -10 -60 -10
-4 0 -9 19 -11 43 -3 36 -6 42 -28 45 -24 3 -25 0 -23 -40z"/>
  <path d="M317 338 c6 -89 11 -108 28 -108 12 0 15 15 15 75 l0 75 29 0 c17 0
33 5 36 10 4 6 -16 10 -53 10 l-60 0 5 -62z"/>
</g>
<g id="part-1" class="char-part">
  <path d="M337 550 c-176 -18 -212 -25 -169 -36 37 -10 46 -62 38 -222 -4 -100
-11 -152 -22 -174 -14 -28 -14 -31 2 -50 12 -12 25 -17 39 -13 96 28 173 36
353 36 201 0 224 5 157 38 -25 12 -58 11 -249 -7 -121 -11 -225 -18 -230 -15
-9 6 -3 390 7 399 3 3 97 12 208 20 112 8 205 17 207 19 2 2 1 8 -3 14 -9 15
-127 12 -338 -9z"/>
</g>
<g id="part-2" class="char-part">
  <path d="M440 321 c3 -99 8 -183 12 -187 15 -15 26 47 34 194 9 159 7 172 -30
172 -21 0 -21 -4 -16 -179z"/>
</g>
<g id="part-3" class="char-part">
  <path d="M510 414 c-47 -7 -110 -13 -142 -13 l-56 -1 5 -62 c6 -88 11 -108 28
-108 11 0 15 17 17 72 3 84 0 81 143 93 l86 7 -3 -68 c-3 -67 -4 -69 -28 -66
-25 3 -24 3 8 -30 l33 -33 20 24 c12 15 19 38 19 65 0 22 4 56 9 74 8 27 7 34
-12 47 -12 8 -26 14 -32 14 -5 -1 -48 -7 -95 -15z"/>
</g>
</g>
</svg>