<?xml version="1.0" standalone="no"?>
<!DOCTYPE svg PUBLIC "-//W3C//DTD SVG 20010904//EN"
 "http://www.w3.org/TR/2001/REC-SVG-20010904/DTD/svg10.dtd">
<svg version="1.0" xmlns="http://www.w3.org/2000/svg"
 width="96.000000pt" height="68.000000pt" viewBox="0 0 96.000000 68.000000"
 preserveAspectRatio="xMidYMid meet">
<metadata>
Created by potrace 1.16, written by Peter Selinger 2001-2019
Combined from part_0.svg through part_5.svg with named groups
</metadata>
<g transform="translate(0.000000,68.000000) scale(0.100000,-0.100000)" fill="#000000" stroke="none">
<g id="part-0" class="char-part">
  <path d="M235 544 c-11 -8 -35 -14 -55 -12 l-34 3 3 -139 c1 -76 -3 -176 -10
-222 -10 -68 -10 -86 1 -99 9 -10 17 -12 23 -6 7 7 20 195 27 411 0 13 49 40
73 40 4 0 -1 -16 -10 -35 -16 -33 -16 -37 0 -64 9 -16 17 -41 17 -56 0 -22 -4
-26 -19 -22 -30 8 -15 -17 18 -30 55 -20 68 25 25 82 -31 41 -26 65 22 101 37
29 43 48 18 58 -28 11 -78 6 -99 -10z"/>
  <path d="M545 535 c-44 -8 -99 -14 -122 -14 l-42 -1 18 -32 c10 -18 22 -54 26
-80 6 -44 8 -48 33 -47 58 3 62 1 62 -36 0 -30 -3 -35 -22 -35 -13 0 -40 -3
-60 -6 -30 -5 -38 -3 -38 9 0 14 -20 27 -41 27 -5 0 -9 -9 -9 -20 0 -15 -7
-20 -27 -20 -30 0 -21 -16 12 -22 24 -4 33 -34 34 -116 1 -46 4 -63 14 -60 8
3 13 33 15 91 2 59 7 87 15 88 7 0 34 4 60 8 54 9 64 1 53 -44 -6 -23 -11 -25
-59 -25 l-52 -1 24 -20 c15 -12 33 -18 45 -15 12 3 51 14 88 25 59 17 70 18
82 5 18 -18 32 -18 39 0 6 14 -27 56 -43 56 -6 0 -13 0 -17 0 -5 0 -8 -4 -8
-9 0 -13 -6 -17 -37 -25 -26 -6 -28 -4 -28 27 l0 34 78 5 c100 7 112 0 111
-60 -2 -83 -10 -97 -52 -95 l-37 2 26 -34 c15 -19 30 -35 34 -35 41 0 67 44
76 127 4 32 11 66 15 75 7 12 2 22 -18 38 -22 17 -36 20 -73 16 -165 -21 -159
-22 -152 24 4 31 5 32 55 28 l51 -3 28 80 c15 45 23 84 18 89 -14 14 -91 15
-175 1z m115 -43 c0 -26 -2 -28 -45 -28 -43 0 -45 2 -45 28 0 26 2 28 45 28
43 0 45 -2 45 -28z m-142 -14 c3 -25 0 -28 -27 -28 -17 0 -34 -1 -38 -2 -5 -2
-9 9 -11 24 -3 27 12 38 53 35 14 -2 21 -10 23 -29z m128 -63 c-5 -21 -12 -25
-41 -25 -30 0 -35 3 -35 24 0 21 5 25 38 28 46 4 46 4 38 -27z m-126 -10 c0
-21 -5 -25 -30 -25 -16 0 -30 4 -30 9 0 5 -3 16 -6 25 -5 13 1 16 30 16 32 0
36 -3 36 -25z"/>
</g>
<g id="part-1" class="char-part">
  <path d="M250 545 c-14 -8 -33 -14 -42 -15 -10 0 -18 -5 -18 -11 0 -7 14 -8
40 -4 43 7 47 3 25 -35 -34 -59 -3 -53 54 11 l43 49 -26 10 c-35 13 -46 12
-76 -5z"/>
</g>
<g id="part-2" class="char-part">
  <path d="M145 378 c0 -90 -4 -192 -8 -228 -8 -69 2 -105 23 -84 17 17 35 441
19 460 -29 35 -34 14 -34 -148z"/>
</g>
<g id="part-3" class="char-part">
  <path d="M580 540 c-19 -5 -71 -12 -116 -16 l-81 -6 19 -36 c10 -20 18 -46 18
-58 0 -32 18 -76 29 -70 5 3 57 7 116 9 l108 4 29 79 c27 74 28 79 12 91 -20
14 -80 15 -134 3z m78 -46 c-3 -23 -8 -27 -45 -28 -41 -2 -43 -1 -43 26 0 27
2 28 46 28 43 0 45 -1 42 -26z m-154 10 c9 -3 16 -17 16 -31 0 -22 -4 -24 -37
-21 -30 2 -39 8 -41 25 -2 16 3 23 20 26 13 2 24 5 25 6 1 0 8 -2 17 -5z m146
-68 c0 -33 -13 -46 -46 -46 -29 0 -34 3 -34 24 0 20 6 25 33 29 17 2 35 5 40
5 4 1 7 -4 7 -12z m-130 -31 c0 -21 -5 -25 -30 -25 -16 0 -30 4 -30 9 0 5 -3
16 -6 25 -5 13 1 16 30 16 32 0 36 -3 36 -25z"/>
</g>
<g id="part-4" class="char-part">
  <path d="M520 338 c0 -63 14 -128 26 -128 8 0 14 10 14 23 0 12 3 46 6 75 7
51 6 52 -20 52 -20 0 -26 -5 -26 -22z"/>
</g>
<g id="part-5" class="char-part">
  <path d="M697 310 c-66 -11 -74 -22 -13 -19 37 2 51 -1 61 -14 10 -14 14 -15
19 -5 3 7 3 2 -1 -12 -3 -14 -7 -41 -8 -60 -2 -19 -7 -46 -13 -60 -6 -18 -6
-27 2 -32 20 -14 -9 -8 -34 7 -26 15 -53 21 -35 7 6 -4 15 -16 21 -27 6 -11
18 -21 25 -23 24 -4 59 36 58 66 -1 15 5 52 15 82 l17 55 -28 22 c-15 13 -30
22 -33 22 -3 -1 -27 -5 -53 -9z"/>
  <path d="M360 290 c6 -11 7 -20 3 -19 -22 4 -25 -2 -9 -14 15 -11 18 -26 17
-75 -1 -44 3 -62 11 -62 9 0 8 -3 -2 -10 -8 -5 -11 -12 -8 -15 16 -16 24 9 27
81 1 43 4 81 7 85 6 10 -32 49 -46 49 -7 0 -7 -7 0 -20z"/>
  <path d="M555 290 c3 -5 8 -10 11 -10 2 0 4 5 4 10 0 6 -5 10 -11 10 -5 0 -7
-4 -4 -10z"/>
  <path d="M595 290 c-18 -8 -17 -9 8 -9 16 -1 26 3 22 9 -3 6 -7 10 -8 9 -1 0
-11 -4 -22 -9z"/>
  <path d="M315 270 c3 -5 8 -10 11 -10 2 0 4 5 4 10 0 6 -5 10 -11 10 -5 0 -7
-4 -4 -10z"/>
  <path d="M433 273 c9 -2 23 -2 30 0 6 3 -1 5 -18 5 -16 0 -22 -2 -12 -5z"/>
</g>
</g>
</svg>