<?xml version="1.0" standalone="no"?>
<!DOCTYPE svg PUBLIC "-//W3C//DTD SVG 20010904//EN"
 "http://www.w3.org/TR/2001/REC-SVG-20010904/DTD/svg10.dtd">
<svg version="1.0" xmlns="http://www.w3.org/2000/svg"
 width="96.000000pt" height="68.000000pt" viewBox="0 0 96.000000 68.000000"
 preserveAspectRatio="xMidYMid meet">
<metadata>
Created by potrace 1.16, written by Peter Selinger 2001-2019
Combined from part_0.svg through part_5.svg with named groups
</metadata>
<g transform="translate(0.000000,68.000000) scale(0.100000,-0.100000)" fill="#000000" stroke="none">
<g id="part-0" class="char-part">
  <path d="M517 603 c-4 -3 -7 -16 -7 -27 0 -29 -48 -98 -62 -90 -7 4 -8 3 -4
-4 4 -6 2 -21 -4 -32 -16 -29 1 -25 46 14 31 26 51 34 99 40 113 13 135 18
135 31 0 20 -29 26 -75 15 -67 -16 -76 -14 -69 16 4 17 2 29 -7 35 -17 10 -43
12 -52 2z"/>
  <path d="M261 546 c-10 -25 -38 -65 -61 -90 -51 -55 -33 -61 33 -11 28 22 57
35 75 35 35 0 133 18 141 26 22 21 -73 26 -128 6 -14 -5 -14 -3 2 15 22 25 22
40 -2 53 -32 16 -39 12 -60 -34z"/>
  <path d="M546 471 c-9 -14 52 -71 75 -71 14 0 19 7 19 26 0 19 -8 28 -35 40
-40 16 -52 17 -59 5z"/>
  <path d="M270 452 c0 -16 58 -64 69 -58 21 13 12 46 -15 56 -31 12 -54 13 -54
2z"/>
  <path d="M383 396 c16 -12 15 -15 -10 -44 -25 -28 -182 -132 -200 -132 -5 0
-17 -8 -28 -16 -19 -15 -18 -16 15 -9 56 12 163 70 229 125 33 27 63 50 66 50
9 0 199 -143 203 -152 7 -16 162 -5 162 11 0 4 -38 17 -83 30 -99 28 -128 41
-222 101 -49 31 -82 46 -110 47 -35 2 -38 1 -22 -11z"/>
  <path d="M460 255 c-36 -7 -82 -13 -102 -14 -54 -1 -47 -19 10 -23 45 -3 47
-4 50 -35 3 -33 3 -33 -42 -34 -42 -1 -52 -2 -73 -9 -22 -6 57 -19 85 -14 32
6 32 6 32 -35 l0 -41 -62 -1 c-35 -1 -90 -4 -123 -8 -53 -5 -58 -8 -39 -18 12
-7 32 -10 45 -7 13 4 126 8 252 11 125 3 227 9 227 14 0 23 -46 30 -151 24
l-109 -8 0 30 c0 37 16 53 55 53 41 0 75 10 75 23 0 6 -22 8 -60 4 l-60 -5 0
33 c0 32 1 33 50 40 32 4 50 11 47 19 -5 15 -31 16 -107 1z"/>
</g>
<g id="part-1" class="char-part">
  <path d="M517 583 c-3 -16 -22 -54 -41 -85 -39 -66 -33 -73 21 -24 35 30 45
34 121 39 89 7 106 12 96 29 -6 10 -87 5 -142 -9 l-24 -6 18 28 c17 27 17 28
-1 41 -28 21 -42 17 -48 -13z"/>
  <path d="M275 563 c-8 -33 -66 -115 -97 -136 -13 -9 -18 -16 -12 -16 6 -1 35
16 66 38 48 33 64 39 125 43 80 6 109 17 76 29 -12 4 -46 2 -77 -5 -31 -8 -56
-11 -56 -8 0 3 10 16 22 29 21 23 21 23 2 38 -28 21 -41 18 -49 -12z"/>
  <path d="M556 458 c17 -31 39 -48 61 -48 29 0 30 24 1 44 -27 20 -72 22 -62 4z"/>
  <path d="M290 430 c22 -31 60 -41 60 -16 0 18 -38 46 -63 46 -17 0 -17 -2 3
-30z"/>
</g>
<g id="part-2" class="char-part">
  <path d="M370 402 c0 -6 8 -12 18 -14 28 -6 -58 -79 -166 -139 -51 -30 -89
-55 -84 -57 35 -11 231 96 286 157 11 11 22 21 25 21 4 0 56 -36 116 -80 107
-78 111 -80 165 -79 30 1 66 4 80 8 21 7 14 11 -50 30 -92 26 -164 60 -242
112 -60 39 -148 64 -148 41z"/>
</g>
<g id="part-3" class="char-part">
  <path d="M417 251 c-109 -16 -132 -31 -50 -31 45 0 175 17 203 26 13 4 13 6 0
14 -18 11 -15 12 -153 -9z"/>
</g>
<g id="part-4" class="char-part">
  <path d="M430 223 c-12 -3 -15 -13 -12 -38 l4 -35 -43 -1 c-24 0 -53 -4 -63
-8 -18 -7 -18 -8 5 -14 13 -4 41 -4 62 0 l37 6 0 -40 0 -40 -121 -8 c-87 -5
-118 -10 -110 -18 6 -6 25 -10 43 -9 18 0 135 4 261 8 125 3 227 10 227 15 0
21 -55 28 -156 22 l-105 -6 3 39 c2 25 8 40 18 41 98 13 110 15 104 25 -4 6
-27 8 -60 4 l-53 -6 -3 32 c-3 32 -11 39 -38 31z"/>
</g>
</g>
</svg>