<?xml version="1.0" standalone="no"?>
<!DOCTYPE svg PUBLIC "-//W3C//DTD SVG 20010904//EN"
 "http://www.w3.org/TR/2001/REC-SVG-20010904/DTD/svg10.dtd">
<svg version="1.0" xmlns="http://www.w3.org/2000/svg"
 width="96.000000pt" height="68.000000pt" viewBox="0 0 96.000000 68.000000"
 preserveAspectRatio="xMidYMid meet">
<metadata>
Created by potrace 1.16, written by Peter Selinger 2001-2019
Combined from part_0.svg through part_5.svg with named groups
</metadata>
<g transform="translate(0.000000,68.000000) scale(0.100000,-0.100000)" fill="#000000" stroke="none">
<g id="part-0" class="char-part">
  <path d="M510 565 l0 -45 -45 0 c-25 0 -45 -4 -45 -10 0 -5 23 -10 50 -10 35
0 50 -4 49 -12 -3 -27 2 -38 17 -38 8 0 13 3 11 8 -3 4 -1 17 3 28 7 17 20 23
64 28 74 10 74 30 0 24 -54 -5 -55 -4 -54 21 3 45 1 51 -25 51 -23 0 -25 -4
-25 -45z"/>
  <path d="M630 466 c0 -33 -5 -35 -93 -42 -69 -6 -75 -5 -81 14 -4 11 -18 22
-32 25 -23 4 -24 2 -19 -23 6 -26 4 -28 -42 -35 -47 -8 -47 -8 -18 -16 17 -5
42 -7 57 -3 20 4 30 0 42 -18 16 -22 20 -19 17 15 -2 13 6 17 36 17 21 0 55 3
76 6 33 6 37 4 37 -15 0 -28 14 -27 34 4 15 23 22 25 101 25 46 0 86 4 89 9 9
13 -59 23 -110 15 -39 -6 -44 -4 -38 11 8 19 -10 35 -38 35 -12 0 -18 -8 -18
-24z"/>
  <path d="M235 460 c-11 -5 -46 -9 -77 -9 -32 -1 -58 -3 -58 -6 0 -4 6 -18 14
-33 7 -15 17 -51 21 -80 7 -56 30 -79 47 -49 6 12 23 17 57 17 46 0 48 1 49
29 0 16 10 47 21 68 11 22 16 44 13 50 -10 15 -64 23 -87 13z m15 -57 c0 -57
-10 -73 -45 -73 -28 0 -33 4 -39 31 -10 52 -8 58 27 62 17 2 38 5 45 5 7 1 12
-9 12 -25z"/>
  <path d="M520 345 c-47 -7 -94 -11 -105 -9 -19 5 -20 0 -20 -103 0 -95 2 -108
18 -111 9 -2 17 1 17 7 0 6 7 11 15 11 40 0 2 -59 -62 -97 -26 -15 -41 -29
-35 -31 14 -4 172 80 172 92 0 5 -8 15 -17 22 -16 12 -8 13 55 14 40 0 81 -5
92 -12 32 -20 40 0 42 110 4 135 6 133 -172 107z m104 -11 c9 -3 16 -15 16
-25 0 -15 -7 -19 -39 -19 -21 0 -66 -3 -100 -6 -53 -6 -61 -5 -61 10 0 21 8
24 95 35 39 5 71 9 72 10 1 0 8 -2 17 -5z m16 -79 c0 -21 -5 -25 -28 -25 -16
0 -63 -3 -105 -6 -74 -7 -76 -6 -70 15 5 18 13 21 57 22 28 0 69 4 91 8 22 5
43 9 48 10 4 0 7 -10 7 -24z m0 -70 l0 -25 -105 0 c-97 0 -105 1 -105 20 0 16
8 20 63 23 156 8 147 9 147 -18z"/>
  <path d="M600 104 c0 -12 94 -104 106 -104 17 0 25 29 14 49 -13 25 -120 74
-120 55z"/>
</g>
<g id="part-1" class="char-part">
  <path d="M210 448 c-19 -5 -51 -8 -71 -6 -37 3 -37 3 -24 -22 7 -14 16 -45 20
-70 4 -25 12 -53 17 -63 8 -17 11 -17 21 -3 7 8 31 16 55 18 43 3 44 4 63 58
31 85 30 95 -11 97 -19 1 -51 -3 -70 -9z m44 -60 c-7 -47 -26 -68 -60 -68 -17
0 -24 8 -29 33 -4 17 -9 40 -11 49 -5 18 11 25 69 27 l37 1 -6 -42z"/>
</g>
<g id="part-2" class="char-part">
  <path d="M510 570 l0 -50 -51 0 c-31 0 -48 -4 -44 -10 3 -5 26 -10 50 -10 38
0 44 -3 47 -22 4 -31 31 -29 38 2 5 22 14 26 63 34 75 11 75 30 1 24 l-56 -5
5 34 c5 29 3 35 -19 43 -14 6 -27 10 -30 10 -2 0 -4 -22 -4 -50z"/>
</g>
<g id="part-3" class="char-part">
  <path d="M630 466 c0 -32 -3 -34 -92 -42 -70 -6 -76 -5 -82 14 -7 20 -42 36
-58 26 -4 -3 -1 -16 8 -30 16 -24 16 -24 -17 -25 -19 0 -43 -4 -54 -8 -19 -8
-19 -8 2 -15 12 -4 38 -4 57 -1 28 6 36 3 45 -14 16 -28 31 -26 31 4 0 21 5
25 33 25 17 1 49 3 70 6 33 5 37 3 37 -15 0 -28 14 -26 34 4 16 24 22 25 106
25 50 0 90 4 90 9 0 15 -57 23 -112 16 -46 -7 -50 -6 -44 11 7 19 -8 34 -36
34 -12 0 -18 -8 -18 -24z"/>
</g>
<g id="part-4" class="char-part">
  <path d="M441 98 c-14 -17 -43 -44 -65 -61 -59 -43 -14 -29 80 24 67 39 73 45
58 56 -27 20 -47 15 -73 -19z"/>
  <path d="M642 54 c59 -56 81 -63 86 -28 4 25 -20 46 -76 67 -69 27 -70 20 -10
-39z"/>
</g>
</g>
</svg>