<?xml version="1.0" standalone="no"?>
<!DOCTYPE svg PUBLIC "-//W3C//DTD SVG 20010904//EN"
 "http://www.w3.org/TR/2001/REC-SVG-20010904/DTD/svg10.dtd">
<svg version="1.0" xmlns="http://www.w3.org/2000/svg"
 width="96.000000pt" height="68.000000pt" viewBox="0 0 96.000000 68.000000"
 preserveAspectRatio="xMidYMid meet">
<metadata>
Created by potrace 1.16, written by Peter Selinger 2001-2019
Combined from part_0.svg through part_5.svg with named groups
</metadata>
<g transform="translate(0.000000,68.000000) scale(0.100000,-0.100000)" fill="#000000" stroke="none">
<g id="part-0" class="char-part">
  <path d="M370 557 c0 -7 13 -34 30 -60 17 -28 25 -47 17 -47 -32 0 -192 -21
-196 -26 -9 -8 22 -24 49 -24 23 0 28 -10 66 -119 l42 -119 -52 -6 c-28 -3
-84 -8 -123 -12 -40 -4 -73 -10 -73 -15 0 -16 73 -21 143 -10 40 7 179 15 309
19 130 4 240 10 244 15 4 4 -1 14 -12 23 -15 12 -38 14 -118 9 -55 -3 -118 -8
-140 -12 l-40 -6 15 24 c21 32 89 189 89 206 0 7 -5 13 -11 13 -5 0 -7 5 -4
10 3 6 15 10 25 10 10 0 31 5 47 11 27 10 28 11 8 26 -20 15 -75 14 -167 -3
-36 -6 -38 -5 -38 20 0 29 -28 62 -66 76 -34 13 -44 12 -44 -3z m175 -186 c-4
-42 -39 -188 -47 -196 -2 -2 -24 -6 -50 -10 l-48 -7 0 41 c0 48 -23 113 -58
159 -13 18 -22 35 -21 36 5 4 153 23 196 25 l32 1 -4 -49z"/>
</g>
<g id="part-1" class="char-part">
  <path d="M381 538 c6 -13 22 -37 35 -55 29 -38 29 -39 -98 -49 -49 -3 -88 -10
-88 -14 0 -17 52 -20 185 -9 165 13 267 30 272 46 6 16 -56 24 -102 13 -22 -5
-54 -10 -72 -10 -27 0 -32 4 -35 27 -3 30 -57 73 -90 73 -16 0 -17 -3 -7 -22z"/>
</g>
<g id="part-2" class="char-part">
  <path d="M560 424 c-10 -3 -16 -20 -17 -56 -3 -62 -42 -198 -57 -198 -6 0 -27
-3 -47 -6 l-36 -6 -5 59 c-6 59 -28 114 -67 163 -36 45 -34 12 6 -104 l39
-115 -50 -5 c-28 -3 -86 -8 -128 -12 -43 -3 -78 -10 -78 -14 0 -14 67 -23 118
-16 96 14 281 25 419 25 138 1 173 5 173 21 0 4 -14 13 -30 20 -30 12 -115 10
-237 -7 l-46 -6 25 44 c14 24 38 77 53 118 27 71 27 75 10 88 -11 7 -21 12
-24 12 -3 -1 -13 -3 -21 -5z"/>
</g>
</g>
</svg>