<?xml version="1.0" standalone="no"?>
<!DOCTYPE svg PUBLIC "-//W3C//DTD SVG 20010904//EN"
 "http://www.w3.org/TR/2001/REC-SVG-20010904/DTD/svg10.dtd">
<svg version="1.0" xmlns="http://www.w3.org/2000/svg"
 width="96.000000pt" height="68.000000pt" viewBox="0 0 96.000000 68.000000"
 preserveAspectRatio="xMidYMid meet">
<metadata>
Created by potrace 1.16, written by Peter Selinger 2001-2019
Combined from part_0.svg through part_5.svg with named groups
</metadata>
<g transform="translate(0.000000,68.000000) scale(0.100000,-0.100000)" fill="#000000" stroke="none">
<g id="part-0" class="char-part">
  <path d="M520 581 c0 -16 -3 -43 -6 -60 -6 -27 -12 -32 -45 -37 -46 -8 -52
-24 -9 -24 17 0 30 -2 30 -5 0 -22 -35 -81 -71 -119 -47 -52 -43 -58 13 -20
35 25 98 108 98 131 0 6 6 16 14 22 11 9 24 2 64 -34 103 -93 117 -105 138
-111 26 -7 116 11 94 18 -8 3 -37 14 -64 23 -53 19 -167 93 -174 113 -2 8 9
12 35 12 47 0 83 9 83 21 0 12 -54 11 -109 -2 -24 -5 -45 -8 -47 -7 -1 2 1 21
6 43 8 33 6 42 -7 53 -28 20 -43 14 -43 -17z"/>
  <path d="M220 567 c0 -25 45 -82 65 -82 31 0 33 50 3 68 -38 24 -68 30 -68 14z"/>
  <path d="M240 464 c-131 -20 -150 -24 -150 -33 0 -5 14 -14 30 -20 25 -8 56
-5 153 15 67 14 123 27 125 29 2 2 1 8 -3 14 -8 14 -46 12 -155 -5z"/>
  <path d="M230 367 c-36 -9 -40 -12 -21 -15 36 -6 131 8 131 19 0 12 -52 10
-110 -4z"/>
  <path d="M545 365 c-50 -12 -50 -12 -18 -19 29 -7 96 0 117 12 11 6 -15 22
-34 21 -8 -1 -37 -7 -65 -14z"/>
  <path d="M665 315 c-5 -2 -63 -11 -127 -21 -65 -9 -115 -20 -112 -25 3 -5 18
-9 33 -9 38 0 43 -8 25 -42 -20 -39 -5 -60 28 -39 12 8 50 16 85 19 l63 5 0
-29 c-1 -35 -29 -93 -52 -108 -13 -8 -26 -7 -50 2 -44 16 -47 7 -8 -28 39 -35
43 -36 81 -13 20 12 38 38 59 89 16 40 30 77 30 82 0 23 -61 35 -118 25 -31
-6 -60 -9 -63 -7 -4 2 -4 14 -2 28 6 27 34 36 117 36 66 0 92 15 53 29 -16 6
-29 11 -30 10 -1 0 -6 -2 -12 -4z"/>
  <path d="M237 300 c-20 -4 -41 -10 -45 -15 -11 -12 139 2 152 15 12 12 -46 12
-107 0z"/>
  <path d="M275 228 c-16 -5 -49 -9 -73 -8 -43 1 -43 1 -29 -22 8 -13 20 -40 27
-61 8 -26 17 -37 26 -33 8 3 36 8 64 12 41 5 50 10 50 26 0 11 8 33 17 49 16
26 16 31 3 39 -19 12 -46 11 -85 -2z m35 -48 c0 -55 -71 -70 -89 -19 -6 18
-11 33 -11 35 0 4 41 11 73 13 24 1 27 -3 27 -29z"/>
</g>
<g id="part-1" class="char-part">
  <path d="M241 530 c16 -29 29 -40 46 -40 16 0 23 6 23 19 0 23 -45 61 -72 61
-19 0 -18 -2 3 -40z"/>
  <path d="M230 458 c-69 -11 -127 -22 -130 -24 -8 -9 24 -24 50 -24 14 0 77 11
140 24 81 17 109 26 95 32 -11 4 -22 8 -25 9 -3 1 -61 -7 -130 -17z"/>
</g>
<g id="part-2" class="char-part">
  <path d="M275 230 c-11 -5 -41 -9 -67 -9 l-47 -1 14 -27 c8 -16 19 -43 26 -61
7 -18 17 -31 24 -28 6 2 37 7 67 11 48 6 55 10 51 26 -3 10 2 31 12 45 9 14
14 32 11 40 -6 16 -59 18 -91 4z m35 -42 c0 -33 -11 -45 -46 -52 -28 -6 -31
-4 -41 28 -12 39 -7 43 55 45 27 1 32 -3 32 -21z"/>
</g>
<g id="part-3" class="char-part">
  <path d="M516 550 l-7 -60 -40 -6 c-51 -8 -61 -24 -15 -24 20 0 36 -2 36 -5 0
-17 -46 -91 -77 -125 -19 -22 -30 -40 -23 -40 26 0 98 71 126 124 16 31 34 56
41 56 6 0 38 -24 70 -52 32 -29 67 -61 78 -71 11 -10 30 -20 42 -23 27 -7 93
4 93 15 0 4 -25 15 -55 25 -56 17 -177 93 -179 111 -1 6 25 13 57 16 32 4 60
9 64 12 14 15 -36 20 -96 9 -36 -6 -67 -9 -69 -7 -2 2 1 20 8 40 13 39 8 49
-26 59 -20 6 -22 2 -28 -54z"/>
</g>
<g id="part-4" class="char-part">
  <path d="M545 366 c-61 -15 -45 -30 24 -22 64 7 87 16 69 27 -16 11 -29 10
-93 -5z"/>
</g>
<g id="part-5" class="char-part">
  <path d="M650 219 c0 -5 -3 -8 -8 -5 -4 2 -23 1 -42 -4 -31 -8 -29 -8 17 -6
45 3 53 0 59 -17 3 -11 1 -23 -6 -27 -7 -4 -13 -21 -14 -38 0 -17 -5 -30 -10
-29 -5 1 -11 -4 -14 -12 -3 -9 0 -11 9 -6 8 5 11 4 6 -1 -5 -5 -12 -9 -15 -9
-4 0 -12 -3 -18 -7 -6 -4 -25 -3 -43 2 -31 9 -45 -3 -15 -14 8 -3 13 -10 10
-15 -3 -5 4 -7 16 -4 19 4 20 3 8 -6 -23 -17 -1 -13 28 5 38 22 63 60 64 94 1
17 5 30 9 30 5 0 5 7 2 17 -4 10 -2 14 4 10 6 -4 14 1 17 10 4 10 4 14 0 11
-3 -4 -15 2 -27 13 -23 21 -37 24 -37 8z"/>
  <path d="M495 201 c-23 -5 -26 -8 -13 -13 19 -8 58 1 58 13 0 10 -1 10 -45 0z"/>
</g>
</g>
</svg>