<?xml version="1.0" standalone="no"?>
<!DOCTYPE svg PUBLIC "-//W3C//DTD SVG 20010904//EN"
 "http://www.w3.org/TR/2001/REC-SVG-20010904/DTD/svg10.dtd">
<svg version="1.0" xmlns="http://www.w3.org/2000/svg"
 width="96.000000pt" height="68.000000pt" viewBox="0 0 96.000000 68.000000"
 preserveAspectRatio="xMidYMid meet">
<metadata>
Created by potrace 1.16, written by Peter Selinger 2001-2019
Combined from part_0.svg through part_5.svg with named groups
</metadata>
<g transform="translate(0.000000,68.000000) scale(0.100000,-0.100000)" fill="#000000" stroke="none">
<g id="part-0" class="char-part">
  <path d="M665 548 c-22 -5 -80 -15 -130 -22 -77 -11 -86 -14 -60 -21 19 -5 64
-2 124 8 52 9 97 14 100 12 2 -3 -11 -21 -30 -41 -31 -32 -37 -34 -74 -28
l-40 6 24 -26 c13 -14 34 -29 45 -33 20 -6 20 -7 -4 -14 -14 -4 -53 -7 -87 -8
l-63 -1 0 -82 c0 -46 -7 -105 -15 -131 -10 -34 -11 -55 -5 -73 14 -36 27 -22
40 41 l11 55 50 0 c47 0 49 -1 49 -27 0 -45 12 -103 21 -103 11 0 29 67 29
106 0 30 3 32 46 38 74 10 74 10 74 -31 0 -21 -3 -48 -7 -61 -6 -24 -11 -24
-58 -7 -12 5 -4 -9 23 -36 l43 -44 26 30 c25 28 25 33 20 115 -4 47 -2 115 4
150 9 57 8 66 -7 77 -21 15 -72 17 -107 4 -28 -11 -44 -3 -49 23 -2 15 13 28
71 59 l74 40 -34 18 c-38 20 -47 21 -104 7z m99 -194 c9 -35 1 -42 -59 -46
-46 -3 -50 -1 -50 19 0 11 -3 25 -7 29 -18 18 -4 24 51 24 55 0 59 -2 65 -26z
m-164 -24 c0 -37 -2 -40 -27 -41 -16 0 -36 -2 -45 -4 -15 -3 -18 4 -18 35 0
36 2 39 33 43 17 2 38 5 45 5 8 1 12 -12 12 -38z m170 -65 c0 -14 -6 -25 -14
-25 -7 0 -34 -3 -60 -6 -44 -7 -46 -6 -46 19 0 22 5 26 38 30 83 8 82 9 82
-18z m-172 -21 c3 -23 -19 -34 -70 -34 -23 0 -26 3 -24 28 2 15 4 27 5 28 0 0
20 0 44 0 35 -1 43 -5 45 -22z"/>
  <path d="M234 528 c3 -13 9 -49 13 -80 l6 -58 -67 0 c-36 0 -66 -2 -66 -4 0
-3 9 -20 19 -38 10 -18 22 -48 26 -65 8 -38 22 -50 38 -34 6 6 19 11 29 11 15
0 18 -8 18 -44 0 -41 -2 -44 -31 -50 -17 -3 -49 -6 -70 -6 -46 0 -49 -10 -11
-32 24 -14 32 -15 53 -5 13 7 62 24 108 37 82 23 84 23 98 4 12 -16 15 -17 23
-4 16 25 12 38 -19 59 -37 26 -51 27 -44 1 4 -14 0 -20 -10 -20 -8 0 -23 -3
-32 -6 -14 -6 -16 0 -13 32 3 39 3 39 51 42 36 2 47 7 44 17 -3 7 8 32 25 54
29 41 30 43 12 57 -14 11 -35 14 -78 10 l-58 -4 6 41 c4 23 9 51 12 63 6 22
-28 44 -68 44 -16 0 -19 -4 -14 -22z m122 -156 c18 -12 -12 -72 -36 -72 -16 0
-20 7 -20 34 0 40 27 58 56 38z m-106 -47 c0 -30 -3 -35 -24 -35 -18 0 -25 7
-29 27 -7 35 -2 43 29 43 21 0 24 -5 24 -35z"/>
</g>
<g id="part-1" class="char-part">
  <path d="M248 466 c4 -70 4 -73 -19 -79 -13 -4 -41 -7 -62 -7 -33 0 -36 -2
-27 -17 6 -10 16 -38 23 -63 13 -44 14 -45 50 -42 36 3 37 3 43 -38 5 -30 11
-40 23 -38 11 2 17 16 19 45 l3 42 49 7 c33 4 47 10 44 19 -3 7 6 26 20 43 15
16 26 35 26 41 0 21 -40 32 -90 25 l-50 -7 0 36 c0 20 4 47 10 61 8 21 6 27
-10 36 -10 5 -27 10 -38 10 -17 0 -19 -6 -14 -74z m122 -95 c0 -4 -5 -22 -11
-40 -9 -25 -17 -31 -39 -31 -24 0 -27 3 -23 28 3 15 6 33 8 40 5 13 65 17 65
3z m-122 -43 c-2 -35 -7 -44 -24 -46 -15 -2 -23 4 -28 20 -13 52 -10 57 47 67
5 0 7 -18 5 -41z"/>
</g>
<g id="part-2" class="char-part">
  <path d="M373 198 c27 -47 50 -55 55 -22 3 23 -39 64 -65 64 -12 0 -9 -10 10
-42z"/>
</g>
<g id="part-3" class="char-part">
  <path d="M610 540 c-52 -11 -110 -19 -128 -19 -19 -1 -31 -5 -27 -11 9 -14 56
-12 154 5 47 8 87 12 90 10 2 -3 -11 -21 -29 -40 -18 -19 -31 -37 -29 -40 3
-2 40 14 83 36 73 39 76 42 57 55 -32 23 -70 23 -171 4z"/>
</g>
<g id="part-4" class="char-part">
  <path d="M570 445 c20 -24 79 -57 90 -50 19 12 -9 44 -48 55 -50 13 -57 13
-42 -5z"/>
</g>
<g id="part-5" class="char-part">
  <path d="M735 401 c-6 -5 -19 -11 -30 -14 -13 -4 -10 -5 10 -5 67 2 63 10 60
-129 -3 -109 -1 -129 13 -140 25 -19 31 -16 26 14 -9 59 -11 183 -2 183 4 0 6
11 2 24 -3 13 -1 27 6 31 8 5 8 10 -1 21 -6 7 -15 12 -19 9 -5 -3 -11 -1 -15
5 -8 12 -38 13 -50 1z"/>
  <path d="M563 373 c9 -2 25 -2 35 0 9 3 1 5 -18 5 -19 0 -27 -2 -17 -5z"/>
  <path d="M476 361 c-3 -4 1 -17 9 -27 13 -17 14 -17 15 -2 0 9 8 22 18 27 15
9 13 10 -10 11 -15 0 -29 -4 -32 -9z"/>
  <path d="M480 280 c0 -16 5 -30 10 -30 6 0 9 14 8 30 -1 17 -6 30 -10 30 -4 0
-8 -13 -8 -30z"/>
  <path d="M472 212 c1 -15 -2 -33 -6 -40 -12 -20 -15 -67 -5 -83 6 -10 9 -10
10 -1 2 15 4 23 12 42 4 8 8 36 11 63 2 35 0 47 -11 47 -8 0 -13 -10 -11 -28z"/>
  <path d="M767 88 c-5 -16 -9 -19 -19 -11 -34 26 -50 21 -18 -6 38 -33 66 -41
56 -16 -3 8 -2 14 2 14 19 -3 22 3 12 21 -14 26 -26 25 -33 -2z"/>
</g>
</g>
</svg>