<?xml version="1.0" standalone="no"?>
<!DOCTYPE svg PUBLIC "-//W3C//DTD SVG 20010904//EN"
 "http://www.w3.org/TR/2001/REC-SVG-20010904/DTD/svg10.dtd">
<svg version="1.0" xmlns="http://www.w3.org/2000/svg"
 width="96.000000pt" height="68.000000pt" viewBox="0 0 96.000000 68.000000"
 preserveAspectRatio="xMidYMid meet">
<metadata>
Created by potrace 1.16, written by Peter Selinger 2001-2019
Combined from part_0.svg through part_5.svg with named groups
</metadata>
<g transform="translate(0.000000,68.000000) scale(0.100000,-0.100000)" fill="#000000" stroke="none">
<g id="part-0" class="char-part">
  <path d="M656 586 c-9 -36 -33 -56 -67 -56 -24 0 -29 4 -29 23 0 15 -9 29 -25
37 -35 18 -41 7 -16 -28 12 -17 21 -33 21 -36 0 -3 -24 -7 -52 -7 -29 -1 -66
-5 -83 -9 -26 -6 -28 -8 -11 -15 11 -5 56 -3 105 4 47 7 143 15 214 18 70 3
127 9 127 13 0 14 -45 20 -115 14 l-70 -6 33 22 c36 24 40 35 16 44 -29 11
-42 6 -48 -18z"/>
  <path d="M210 564 c0 -3 12 -25 26 -50 28 -47 58 -58 69 -24 7 21 -10 60 -26
60 -6 0 -8 3 -6 8 3 4 -10 8 -29 9 -19 2 -34 0 -34 -3z"/>
  <path d="M718 415 l5 -85 -28 0 -28 0 23 -25 c29 -31 58 -32 65 -2 3 12 5 60
3 107 -3 77 -5 85 -24 88 -20 3 -20 -1 -16 -83z"/>
  <path d="M520 469 c-13 -6 -35 -7 -47 -4 -22 5 -23 2 -23 -47 0 -29 -6 -64
-13 -78 -29 -55 -27 -65 6 -29 23 27 43 38 75 44 35 6 42 4 42 -10 0 -9 -9
-19 -20 -22 -25 -7 -22 -21 7 -40 19 -13 23 -12 31 4 6 10 11 53 13 96 3 61 0
80 -11 87 -18 12 -28 12 -60 -1z m35 -20 c10 -15 3 -19 -39 -26 -28 -4 -36 -2
-36 10 0 14 16 21 57 26 6 0 15 -4 18 -10z m4 -63 c-2 -2 -21 -7 -41 -11 -31
-6 -38 -4 -38 8 0 10 11 17 33 19 30 3 56 -6 46 -16z"/>
  <path d="M240 454 c-160 -26 -153 -24 -140 -40 16 -18 75 -18 160 1 36 8 79
14 97 15 35 0 53 17 32 31 -18 11 -45 10 -149 -7z"/>
  <path d="M630 401 c0 -51 15 -75 31 -50 5 8 9 33 9 57 0 35 -3 42 -20 42 -17
0 -20 -7 -20 -49z"/>
  <path d="M240 363 c-14 -3 -29 -9 -35 -15 -13 -14 115 -2 129 12 10 10 -44 12
-94 3z"/>
  <path d="M253 298 c-76 -14 -69 -32 9 -24 70 8 86 15 67 27 -8 5 -16 8 -19 8
-3 -1 -29 -6 -57 -11z"/>
  <path d="M662 246 c-71 -15 -55 -28 25 -20 l63 7 0 -82 c0 -84 -1 -86 -45 -81
-18 2 -16 -2 9 -29 17 -17 35 -31 41 -31 21 0 33 44 39 141 8 120 2 124 -132
95z"/>
  <path d="M463 237 c-29 -5 -53 -14 -53 -18 0 -11 24 -11 71 0 21 5 42 6 47 2
6 -3 10 -39 9 -81 -2 -75 -2 -75 -29 -75 -31 1 -33 -1 -15 -18 37 -36 44 -38
61 -22 11 11 16 34 16 73 0 32 4 71 9 89 7 25 6 35 -8 47 -19 18 -32 18 -108
3z"/>
  <path d="M280 225 c-19 -7 -55 -14 -80 -14 -25 -1 -40 -5 -34 -9 6 -4 20 -28
31 -53 l20 -46 54 8 c30 4 62 8 71 8 11 1 15 6 12 15 -3 8 2 29 11 47 16 31
16 33 -1 46 -22 16 -38 16 -84 -2z m30 -55 c0 -40 0 -40 -39 -40 -35 0 -40 3
-50 31 -12 36 -14 45 -5 37 3 -3 17 -2 32 2 55 17 62 13 62 -30z"/>
  <path d="M434 175 c20 -19 32 -23 39 -16 14 14 0 28 -38 36 l-30 6 29 -26z"/>
  <path d="M645 180 c10 -11 24 -20 32 -20 7 0 13 9 13 20 0 16 -7 20 -32 20
-30 0 -31 0 -13 -20z"/>
  <path d="M437 116 c-52 -25 -64 -35 -55 -44 7 -7 19 -12 27 -12 17 1 108 77
100 83 -2 2 -34 -10 -72 -27z"/>
  <path d="M653 124 c-57 -25 -65 -39 -33 -49 15 -5 32 3 60 27 62 53 54 60 -27
22z"/>
</g>
<g id="part-1" class="char-part">
  <path d="M220 557 c0 -21 51 -88 63 -84 25 8 19 54 -9 76 -30 24 -54 27 -54 8z"/>
  <path d="M193 443 c-95 -15 -113 -26 -67 -37 32 -8 275 34 268 46 -8 12 -96 8
-201 -9z"/>
</g>
<g id="part-2" class="char-part">
  <path d="M275 225 c-22 -8 -58 -14 -79 -14 -36 -1 -38 -2 -24 -18 9 -10 22
-35 29 -56 11 -33 17 -37 39 -33 14 3 46 8 72 12 33 4 45 10 41 20 -2 7 2 28
11 46 16 31 16 34 -1 45 -20 16 -35 15 -88 -2z m35 -49 c0 -36 -12 -46 -55
-46 -15 0 -25 7 -28 23 -4 12 -7 26 -9 32 -2 5 11 13 27 16 60 13 65 11 65
-25z"/>
</g>
<g id="part-3" class="char-part">
  <path d="M659 593 c-16 -42 -39 -63 -71 -63 -23 0 -28 4 -28 25 0 17 -8 29
-25 37 -35 16 -41 4 -16 -30 11 -16 18 -32 14 -36 -3 -3 -29 -6 -57 -7 -28 -1
-62 -4 -76 -9 -22 -6 -23 -8 -7 -15 18 -8 62 -4 202 15 39 5 113 10 165 10 86
1 93 2 75 16 -15 11 -37 13 -95 9 l-75 -6 30 26 c29 25 29 26 11 40 -28 21
-35 19 -47 -12z"/>
</g>
<g id="part-4" class="char-part">
  <path d="M520 469 c-14 -6 -36 -8 -50 -5 -24 4 -25 3 -22 -43 3 -31 -3 -62
-14 -87 -28 -60 -27 -61 8 -23 24 26 45 38 76 44 35 6 42 4 42 -10 0 -9 -9
-19 -20 -22 -25 -7 -25 -15 0 -38 31 -28 44 -6 51 88 4 66 2 84 -10 95 -17 14
-27 14 -61 1z m35 -29 c0 -9 -13 -15 -37 -18 -42 -4 -52 13 -15 28 30 12 52 8
52 -10z m3 -47 c-4 -23 -78 -32 -78 -9 0 13 15 18 68 25 8 0 12 -6 10 -16z"/>
</g>
<g id="part-5" class="char-part">
  <path d="M672 124 c-12 -8 -22 -12 -22 -8 0 4 -7 -1 -16 -12 -8 -10 -13 -13
-9 -7 4 9 1 11 -10 6 -13 -5 -14 -7 -3 -14 20 -13 31 -10 62 17 32 28 31 41
-2 18z"/>
</g>
</g>
</svg>