<?xml version="1.0" standalone="no"?>
<!DOCTYPE svg PUBLIC "-//W3C//DTD SVG 20010904//EN"
 "http://www.w3.org/TR/2001/REC-SVG-20010904/DTD/svg10.dtd">
<svg version="1.0" xmlns="http://www.w3.org/2000/svg"
 width="96.000000pt" height="68.000000pt" viewBox="0 0 96.000000 68.000000"
 preserveAspectRatio="xMidYMid meet">
<metadata>
Created by potrace 1.16, written by Peter Selinger 2001-2019
Combined from part_0.svg through part_5.svg with named groups
</metadata>
<g transform="translate(0.000000,68.000000) scale(0.100000,-0.100000)" fill="#000000" stroke="none">
<g id="part-0" class="char-part">
  <path d="M220 560 c0 -16 47 -87 62 -93 7 -3 3 -6 -9 -6 -54 -2 -173 -24 -173
-32 0 -25 52 -28 146 -9 53 11 113 20 135 20 21 0 41 5 44 10 10 16 -40 30
-80 23 -35 -6 -37 -4 -31 15 10 30 -8 58 -45 71 -40 14 -49 14 -49 1z"/>
  <path d="M620 545 c-30 -7 -88 -14 -128 -14 -56 -1 -71 -4 -65 -13 4 -7 15
-42 24 -78 14 -57 18 -65 37 -62 39 6 23 -36 -28 -71 -17 -12 -20 -17 -9 -17
26 0 101 60 95 76 -3 9 1 14 12 15 9 0 25 2 35 4 13 2 17 -4 17 -25 0 -40 21
-57 77 -64 61 -7 96 -3 101 12 2 7 -20 12 -65 14 l-68 3 -3 34 c-3 31 -2 33
21 27 15 -3 29 -1 35 7 10 11 52 124 52 138 0 8 -58 30 -74 28 -6 -1 -36 -7
-66 -14z m75 -40 c0 -17 -8 -20 -47 -23 -41 -3 -48 -1 -48 16 0 28 10 33 55
30 32 -2 40 -7 40 -23z m-140 -15 c0 -22 -5 -25 -36 -28 -32 -3 -37 0 -41 22
-7 33 -1 38 42 34 30 -3 35 -7 35 -28z m131 -46 c-3 -9 -6 -20 -6 -25 0 -5
-18 -9 -40 -9 -33 0 -40 3 -40 19 0 19 17 27 69 30 17 1 22 -3 17 -15z m-130
-29 c-3 -9 -18 -15 -36 -15 -23 0 -30 4 -30 19 0 15 8 21 33 23 34 3 42 -4 33
-27z"/>
  <path d="M250 371 c-36 -8 -56 -17 -46 -19 28 -6 146 8 146 18 0 15 -36 16
-100 1z"/>
  <path d="M275 307 c-88 -16 -97 -28 -15 -22 41 3 78 9 83 14 14 14 -15 17 -68
8z"/>
  <path d="M522 283 c-11 -31 -51 -77 -97 -110 -38 -28 -13 -30 31 -2 l34 21 35
-22 c19 -12 33 -25 31 -28 -5 -7 -73 -43 -116 -60 l-25 -11 25 0 c30 -1 120
30 120 41 0 17 33 6 85 -28 53 -35 56 -36 120 -29 79 8 91 21 28 31 -72 10
-173 43 -173 56 0 7 19 34 42 61 40 48 41 50 22 64 -18 14 -31 13 -99 -3 -28
-7 -29 -6 -16 10 13 15 13 19 0 27 -24 15 -37 10 -47 -18z m106 -55 c2 -8 -6
-25 -16 -38 -20 -25 -49 -23 -86 5 -26 20 -6 43 42 48 49 5 56 3 60 -15z"/>
  <path d="M285 230 c-11 -5 -45 -9 -75 -10 -30 -1 -49 -4 -43 -7 7 -2 20 -29
29 -59 8 -30 18 -54 22 -53 48 4 126 29 124 39 -1 7 7 28 18 48 17 28 18 37 8
43 -16 11 -57 10 -83 -1z m31 -52 c-7 -37 -22 -49 -56 -46 -19 2 -26 11 -31
35 -3 18 -4 35 -1 38 3 3 25 5 50 5 l45 0 -7 -32z"/>
</g>
<g id="part-1" class="char-part">
  <path d="M243 523 c29 -46 67 -57 67 -19 0 28 -33 56 -67 56 l-23 0 23 -37z"/>
  <path d="M223 451 c-61 -9 -115 -19 -118 -23 -17 -17 55 -19 134 -4 47 9 107
19 133 22 26 4 45 11 42 15 -7 12 -58 9 -191 -10z"/>
</g>
<g id="part-2" class="char-part">
  <path d="M290 234 c-19 -7 -57 -13 -83 -13 -44 -1 -47 -2 -33 -17 9 -8 16 -22
16 -30 0 -8 7 -31 15 -51 11 -27 18 -33 28 -25 7 6 36 14 65 18 43 5 52 10 47
24 -3 9 4 29 16 44 11 14 19 33 16 40 -8 20 -48 24 -87 10z m26 -56 c-8 -40
-8 -40 -47 -41 -29 -2 -33 1 -40 30 -3 18 -4 35 -1 38 3 3 25 5 50 5 l45 0 -7
-32z"/>
</g>
<g id="part-3" class="char-part">
  <path d="M600 543 c-41 -7 -99 -12 -128 -11 -32 2 -50 -1 -48 -7 6 -13 22 -69
33 -115 l9 -35 54 5 c30 3 85 5 123 5 l67 -1 20 56 c11 30 25 63 30 72 8 14 4
20 -20 33 -33 17 -39 17 -140 -2z m95 -38 c0 -17 -8 -20 -47 -23 -41 -3 -48
-1 -48 16 0 28 10 33 55 30 32 -2 40 -7 40 -23z m-137 -9 c5 -23 -14 -36 -50
-36 -23 0 -28 5 -28 23 0 32 9 38 45 35 20 -2 31 -9 33 -22z m128 -52 c-3 -9
-6 -20 -6 -25 0 -5 -18 -9 -40 -9 -33 0 -40 3 -40 19 0 19 17 27 69 30 17 1
22 -3 17 -15z m-128 -21 c-2 -12 -14 -19 -36 -21 -27 -3 -32 0 -32 17 0 17 6
21 36 21 28 0 35 -3 32 -17z"/>
</g>
<g id="part-4" class="char-part">
  <path d="M610 361 c0 -32 22 -61 48 -62 9 0 33 -2 52 -5 19 -3 45 -2 58 1 43
11 21 24 -45 27 l-68 3 -3 33 c-2 24 -8 32 -23 32 -14 0 -19 -7 -19 -29z"/>
  <path d="M510 367 c0 -8 -16 -29 -35 -46 -20 -17 -30 -31 -22 -31 20 0 98 61
94 74 -6 17 -37 20 -37 3z"/>
</g>
<g id="part-5" class="char-part">
  <path d="M625 270 c-3 -5 1 -10 9 -10 13 0 13 -5 4 -32 -6 -18 -16 -36 -22
-40 -8 -5 -7 -8 1 -8 12 0 23 9 60 54 22 25 22 26 3 26 -11 0 -20 5 -20 10 0
6 -6 10 -14 10 -8 0 -18 -4 -21 -10z"/>
  <path d="M560 250 c0 -5 5 -10 10 -10 6 0 10 5 10 10 0 6 -4 10 -10 10 -5 0
-10 -4 -10 -10z"/>
  <path d="M558 142 c3 -13 1 -22 -4 -20 -12 3 -57 -22 -51 -29 3 -2 24 5 47 17
38 20 43 20 59 6 10 -9 23 -16 30 -16 7 0 10 -4 7 -8 -3 -5 12 -14 32 -22 45
-17 73 -20 65 -7 -3 5 8 6 28 2 27 -6 31 -4 22 5 -6 7 -31 16 -55 20 -23 5
-56 14 -73 21 -16 7 -33 12 -37 11 -5 -1 -8 3 -8 9 0 5 -4 7 -10 4 -14 -8 -13
8 1 22 9 9 3 11 -23 10 -30 -2 -34 -5 -30 -25z"/>
</g>
</g>
</svg>