<?xml version="1.0" standalone="no"?>
<!DOCTYPE svg PUBLIC "-//W3C//DTD SVG 20010904//EN"
 "http://www.w3.org/TR/2001/REC-SVG-20010904/DTD/svg10.dtd">
<svg version="1.0" xmlns="http://www.w3.org/2000/svg"
 width="96.000000pt" height="68.000000pt" viewBox="0 0 96.000000 68.000000"
 preserveAspectRatio="xMidYMid meet">
<metadata>
Created by potrace 1.16, written by Peter Selinger 2001-2019
Combined from part_0.svg through part_5.svg with named groups
</metadata>
<g transform="translate(0.000000,68.000000) scale(0.100000,-0.100000)" fill="#000000" stroke="none">
<g id="part-0" class="char-part">
  <path d="M277 545 c-59 -7 -110 -15 -113 -18 -4 -3 1 -13 10 -22 13 -13 16
-38 16 -118 0 -55 -6 -116 -12 -135 -11 -30 -11 -35 5 -47 16 -11 25 -11 55 2
25 11 75 17 152 19 63 1 116 3 118 3 1 1 -2 11 -9 22 -10 20 -17 21 -76 16
-36 -3 -61 -2 -54 2 6 4 13 22 14 39 2 26 6 32 25 32 14 0 22 6 22 18 0 10 7
28 16 40 20 29 11 42 -32 42 -27 0 -34 4 -34 19 0 11 5 23 11 26 6 4 8 13 5
21 -4 10 6 16 35 20 23 4 38 11 36 18 -5 15 -64 16 -190 1z m73 -70 l0 -45
-45 0 c-25 0 -45 -1 -45 -2 0 -2 6 -23 14 -48 12 -39 17 -45 39 -42 19 2 26
-3 31 -23 11 -42 -8 -62 -61 -68 -26 -3 -50 -4 -51 -2 -2 2 -1 62 3 134 l8
130 46 4 c25 2 49 4 54 5 4 1 7 -18 7 -43z m60 -69 c0 -26 -30 -46 -71 -46
-35 0 -39 3 -39 24 0 26 14 32 78 35 22 1 32 -4 32 -13z"/>
  <path d="M620 529 c-14 -6 -48 -11 -77 -11 l-51 -1 -1 -109 c-1 -119 5 -140
49 -163 39 -20 171 -20 210 0 34 18 34 17 11 70 l-18 40 -12 -37 c-14 -43 -24
-48 -102 -48 -85 0 -99 10 -99 70 l0 50 48 0 c62 0 92 9 92 27 0 9 10 32 21
53 12 21 19 45 16 54 -7 18 -48 20 -87 5z m24 -56 c-8 -48 -10 -49 -61 -56
-49 -6 -57 1 -48 43 7 31 37 48 88 49 27 1 28 0 21 -36z"/>
  <path d="M670 165 c0 -6 65 -91 84 -111 15 -14 46 -9 46 8 0 26 -33 66 -70 86
-41 21 -60 27 -60 17z"/>
  <path d="M183 137 c-43 -47 -54 -72 -40 -91 17 -23 42 -12 61 29 30 62 15 103
-21 62z"/>
  <path d="M350 144 c0 -25 30 -82 47 -88 42 -16 44 34 4 75 -33 32 -51 37 -51
13z"/>
  <path d="M500 153 c0 -19 60 -93 75 -93 21 0 19 53 -2 73 -22 19 -73 33 -73
20z"/>
</g>
<g id="part-1" class="char-part">
  <path d="M360 550 c-25 -5 -81 -11 -125 -15 -72 -7 -78 -8 -60 -22 18 -13 20
-25 18 -128 0 -62 -6 -122 -12 -133 -7 -14 -7 -24 3 -38 13 -17 16 -17 66 -1
35 11 86 17 151 17 100 0 123 10 75 32 -19 8 -46 7 -114 -6 -144 -26 -132 -34
-131 92 1 59 4 121 8 137 l6 30 95 7 c110 9 132 14 110 28 -17 11 -27 11 -90
0z"/>
</g>
<g id="part-2" class="char-part">
  <path d="M490 346 c0 -87 39 -116 155 -116 49 0 87 6 105 15 34 18 34 17 11
70 l-18 40 -12 -37 c-14 -43 -24 -48 -104 -48 -78 1 -97 14 -97 69 0 34 -3 41
-20 41 -16 0 -20 -7 -20 -34z"/>
</g>
<g id="part-3" class="char-part">
  <path d="M692 129 c74 -93 92 -105 103 -69 10 30 -20 69 -68 91 -64 28 -72 23
-35 -22z"/>
  <path d="M164 114 c-46 -66 -25 -117 25 -62 31 33 40 108 13 108 -4 0 -21 -21
-38 -46z"/>
  <path d="M340 155 c0 -3 11 -28 25 -56 18 -35 31 -49 43 -47 27 5 25 42 -3 77
-23 26 -65 43 -65 26z"/>
  <path d="M500 152 c0 -17 60 -92 74 -92 19 0 28 28 16 50 -19 36 -90 69 -90
42z"/>
</g>
</g>
</svg>