<?xml version="1.0" standalone="no"?>
<!DOCTYPE svg PUBLIC "-//W3C//DTD SVG 20010904//EN"
 "http://www.w3.org/TR/2001/REC-SVG-20010904/DTD/svg10.dtd">
<svg version="1.0" xmlns="http://www.w3.org/2000/svg"
 width="96.000000pt" height="68.000000pt" viewBox="0 0 96.000000 68.000000"
 preserveAspectRatio="xMidYMid meet">
<metadata>
Created by potrace 1.16, written by Peter Selinger 2001-2019
Combined from part_0.svg through part_5.svg with named groups
</metadata>
<g transform="translate(0.000000,68.000000) scale(0.100000,-0.100000)" fill="#000000" stroke="none">
<g id="part-0" class="char-part">
  <path d="M438 624 c-3 -3 -2 -22 3 -42 5 -20 9 -56 9 -79 0 -40 -1 -42 -36
-49 -44 -8 -52 0 -56 56 -3 39 -6 45 -27 48 -22 4 -23 2 -17 -35 3 -21 9 -48
12 -59 5 -20 1 -22 -65 -29 -39 -4 -71 -11 -71 -16 0 -12 68 -10 168 5 l83 12
15 -27 c17 -34 20 -33 -131 -50 -60 -6 -114 -16 -119 -20 -6 -6 -3 -9 7 -9 14
0 17 -9 17 -47 0 -59 -26 -116 -74 -167 -44 -47 -40 -59 9 -22 49 38 80 90 99
166 9 35 21 67 27 71 6 3 43 9 83 12 40 4 79 9 87 11 10 4 27 -22 57 -84 23
-49 42 -93 42 -98 0 -4 -20 -21 -45 -36 -25 -16 -45 -30 -45 -32 0 -7 92 25
107 37 12 11 17 11 27 -2 20 -26 120 -100 155 -115 18 -8 44 -14 57 -14 22 0
23 2 17 48 -3 26 -9 58 -13 71 -5 22 -7 20 -20 -18 -15 -46 -37 -53 -80 -24
-37 24 -90 75 -90 86 0 6 21 34 46 64 44 51 45 55 28 68 -31 24 -51 18 -58
-16 -3 -17 -16 -44 -28 -61 l-21 -31 -33 64 c-40 78 -42 99 -10 99 13 0 38 3
56 6 44 9 18 24 -42 24 -36 0 -48 4 -48 15 0 9 -7 18 -15 21 -34 14 1 22 100
23 107 2 135 6 135 22 0 16 -70 21 -133 10 -95 -16 -107 -15 -107 13 0 21 5
24 62 30 67 8 102 22 93 37 -9 13 -55 11 -110 -5 l-47 -15 5 35 c5 27 2 36
-13 44 -21 11 -44 13 -52 4z"/>
  <path d="M658 415 c-3 -4 8 -20 24 -36 33 -31 68 -39 68 -15 0 18 -27 46 -45
46 -7 0 -20 2 -27 5 -8 3 -17 3 -20 0z"/>
  <path d="M367 296 c-32 -7 -60 -13 -63 -13 -3 -1 -8 -4 -12 -7 -3 -3 11 -6 31
-6 22 0 37 -5 38 -12 1 -7 2 -28 4 -46 1 -18 6 -36 9 -39 15 -15 28 18 25 61
l-4 45 35 3 c37 3 49 22 15 25 -11 1 -46 -4 -78 -11z"/>
  <path d="M450 210 c-18 -43 -82 -97 -163 -137 -55 -27 -64 -34 -38 -29 63 11
138 53 197 109 49 48 55 58 44 71 -18 23 -26 20 -40 -14z"/>
  <path d="M276 188 c-22 -42 -12 -48 24 -13 35 33 38 45 11 45 -12 0 -26 -13
-35 -32z"/>
</g>
<g id="part-1" class="char-part">
  <path d="M443 608 c3 -8 8 -45 12 -82 6 -54 11 -66 24 -64 10 2 17 15 19 34 3
31 4 31 68 37 36 2 71 10 77 16 20 20 -20 23 -77 7 -30 -9 -56 -16 -59 -16 -3
0 -7 17 -9 38 -3 33 -6 37 -32 40 -21 3 -27 0 -23 -10z"/>
</g>
<g id="part-2" class="char-part">
  <path d="M515 471 c-66 -10 -168 -24 -227 -31 -59 -7 -105 -17 -102 -21 8 -13
72 -11 184 6 55 8 159 19 231 24 72 5 134 12 137 15 25 26 -79 28 -223 7z"/>
</g>
<g id="part-3" class="char-part">
  <path d="M450 429 c0 -6 4 -19 10 -29 12 -22 6 -24 -147 -41 -62 -7 -113 -16
-113 -20 0 -16 33 -17 122 -3 172 26 155 27 169 -14 6 -20 25 -58 40 -84 16
-27 29 -55 29 -61 0 -7 -21 -26 -46 -42 -59 -37 -41 -44 27 -11 l53 25 55 -51
c61 -56 120 -87 165 -88 24 0 27 3 23 22 -3 13 -9 45 -13 71 l-7 49 -18 -41
c-12 -28 -24 -41 -38 -41 -21 0 -131 85 -131 102 0 6 20 35 45 64 41 48 44 54
29 68 -25 26 -51 20 -57 -14 -7 -34 -35 -80 -48 -80 -11 0 -69 114 -69 135 0
9 9 15 24 15 40 0 86 12 80 21 -3 5 -30 9 -60 9 -41 0 -54 4 -54 15 0 16 -30
35 -54 35 -9 0 -16 -5 -16 -11z"/>
  <path d="M671 393 c13 -15 29 -31 34 -35 17 -13 45 -9 45 7 0 18 -57 55 -84
55 -18 0 -18 -2 5 -27z"/>
</g>
<g id="part-4" class="char-part">
  <path d="M243 323 c-8 -2 -13 -22 -13 -44 0 -53 -23 -104 -72 -162 -40 -48
-40 -49 -11 -34 65 34 98 91 129 220 6 27 -3 33 -33 20z"/>
</g>
<g id="part-5" class="char-part">
  <path d="M455 202 c-7 -29 -41 -62 -102 -99 -24 -13 -43 -27 -43 -29 0 -7 56
20 76 38 11 10 24 15 29 11 4 -5 5 -2 1 5 -4 6 -2 12 3 12 12 0 71 59 71 70 0
5 -6 10 -14 13 -9 4 -16 -4 -21 -21z"/>
</g>
</g>
</svg>