<?xml version="1.0" standalone="no"?>
<!DOCTYPE svg PUBLIC "-//W3C//DTD SVG 20010904//EN"
 "http://www.w3.org/TR/2001/REC-SVG-20010904/DTD/svg10.dtd">
<svg version="1.0" xmlns="http://www.w3.org/2000/svg"
 width="96.000000pt" height="68.000000pt" viewBox="0 0 96.000000 68.000000"
 preserveAspectRatio="xMidYMid meet">
<metadata>
Created by potrace 1.16, written by Peter Selinger 2001-2019
Combined from part_0.svg through part_5.svg with named groups
</metadata>
<g transform="translate(0.000000,68.000000) scale(0.100000,-0.100000)" fill="#000000" stroke="none">
<g id="part-0" class="char-part">
  <path d="M234 583 c4 -16 9 -56 13 -90 l6 -61 -44 -6 c-24 -3 -54 -7 -67 -8
-50 -6 -23 -23 41 -26 l67 -3 0 -43 0 -43 -85 -29 c-88 -30 -103 -46 -61 -65
20 -9 33 -6 80 20 l56 30 0 -58 c0 -65 -10 -76 -58 -65 -26 6 -25 5 13 -35 23
-24 48 -41 62 -41 32 0 47 61 38 156 -4 41 -3 74 1 74 5 0 23 12 39 26 l30 25
-37 -6 c-35 -5 -38 -4 -38 19 0 31 24 56 55 56 13 0 26 4 29 9 10 16 -23 34
-49 27 -23 -6 -25 -3 -25 24 0 17 7 47 15 67 8 19 15 37 15 39 0 8 -61 34 -81
34 -18 0 -20 -4 -15 -27z"/>
  <path d="M585 374 l0 -186 27 -23 c15 -13 47 -27 71 -30 46 -7 155 9 171 25 6
6 3 30 -9 67 l-18 58 -11 -44 c-7 -28 -19 -47 -31 -52 -32 -12 -140 -10 -153
3 -13 13 -17 145 -4 164 4 7 44 20 90 30 45 10 82 22 82 25 0 3 -12 11 -26 18
-22 9 -30 9 -43 -2 -20 -18 -89 -43 -96 -35 -4 3 -2 37 3 74 9 59 8 71 -6 82
-9 6 -23 12 -31 12 -14 0 -16 -24 -16 -186z"/>
  <path d="M398 372 c2 -66 -1 -136 -7 -157 -11 -42 -6 -65 16 -65 15 0 145 91
139 98 -2 1 -26 -6 -55 -17 l-51 -21 0 70 c0 70 0 70 28 70 39 0 72 11 72 22
0 7 -19 8 -51 4 l-51 -7 4 58 c3 55 2 58 -22 61 l-25 3 3 -119z"/>
</g>
<g id="part-1" class="char-part">
  <path d="M245 548 c3 -29 8 -67 11 -85 5 -36 11 -32 -91 -51 l-50 -10 66 -1
c74 -1 79 -7 69 -70 -5 -32 -9 -36 -75 -58 -109 -36 -103 -32 -76 -54 l24 -19
63 35 64 36 0 -39 c0 -22 -3 -54 -6 -72 -7 -31 -9 -32 -46 -27 l-39 5 43 -39
c24 -21 48 -38 54 -39 21 0 34 53 34 144 l0 94 30 12 c36 15 41 34 4 20 -35
-14 -34 -15 -34 34 0 43 0 44 40 50 49 8 53 26 5 26 -34 0 -35 1 -35 40 0 21
5 50 11 64 15 33 -2 56 -43 56 l-29 0 6 -52z"/>
</g>
<g id="part-2" class="char-part">
  <path d="M394 351 c-1 -80 -3 -157 -5 -171 -6 -41 26 -35 96 16 36 26 63 49
61 51 -2 2 -26 -5 -55 -16 l-51 -21 0 70 c0 70 0 70 28 70 39 0 72 11 72 22 0
7 -19 8 -51 4 l-50 -7 3 57 c3 54 1 58 -22 64 l-25 7 -1 -146z"/>
</g>
<g id="part-3" class="char-part">
  <path d="M586 382 c0 -97 1 -182 2 -189 4 -27 45 -51 95 -57 54 -7 154 7 171
24 6 6 3 30 -9 67 l-18 58 -9 -35 c-16 -58 -33 -70 -103 -70 -89 0 -97 9 -93
105 l3 80 88 19 c48 11 87 23 87 26 0 4 -10 12 -23 19 -20 10 -29 9 -67 -13
-80 -46 -89 -37 -70 65 9 47 8 56 -7 66 -9 7 -24 13 -32 13 -14 0 -16 -23 -15
-178z"/>
</g>
</g>
</svg>