<?xml version="1.0" standalone="no"?>
<!DOCTYPE svg PUBLIC "-//W3C//DTD SVG 20010904//EN"
 "http://www.w3.org/TR/2001/REC-SVG-20010904/DTD/svg10.dtd">
<svg version="1.0" xmlns="http://www.w3.org/2000/svg"
 width="96.000000pt" height="68.000000pt" viewBox="0 0 96.000000 68.000000"
 preserveAspectRatio="xMidYMid meet">
<metadata>
Created by potrace 1.16, written by Peter Selinger 2001-2019
Combined from part_0.svg through part_5.svg with named groups
</metadata>
<g transform="translate(0.000000,68.000000) scale(0.100000,-0.100000)" fill="#000000" stroke="none">
<g id="part-0" class="char-part">
  <path d="M400 648 c0 -2 -2 -37 -4 -79 -1 -41 -6 -80 -9 -86 -4 -6 -30 -14
-57 -18 -62 -9 -65 -25 -5 -25 44 0 45 -1 34 -22 -16 -31 -28 -38 -69 -38 -56
0 -110 -12 -104 -22 3 -5 34 -8 68 -7 33 2 61 -1 60 -5 -3 -24 -64 -81 -135
-128 -55 -35 -76 -54 -64 -56 28 -6 98 25 156 69 l54 40 3 -31 c2 -17 -1 -61
-7 -96 -5 -36 -7 -72 -4 -80 6 -15 33 -20 33 -5 0 5 35 11 78 13 73 5 78 4 99
-20 22 -26 22 -26 42 -7 19 16 21 30 21 137 l0 120 54 -46 c46 -40 59 -46 98
-46 53 0 108 10 108 19 0 4 -38 19 -84 34 -46 15 -114 47 -152 72 l-69 45 65
1 c36 0 76 4 90 8 l25 7 -22 12 c-16 9 -47 9 -125 1 -57 -6 -115 -11 -130 -11
-17 -1 -25 -5 -21 -12 4 -8 3 -8 -6 0 -7 6 -9 22 -6 36 6 23 12 26 77 32 84 8
118 15 118 26 0 15 -42 18 -101 8 -32 -7 -62 -9 -65 -5 -4 3 -1 26 6 49 25 89
25 97 -5 108 -25 10 -45 13 -45 8z m138 -309 c45 -33 55 -47 22 -29 -15 8 -31
8 -53 1 -18 -5 -63 -12 -101 -16 l-69 -7 29 41 c27 38 32 41 80 41 40 0 58 -6
92 -31z m8 -76 c-2 -14 -19 -21 -77 -30 -106 -17 -109 -17 -109 11 0 29 13 33
117 35 63 1 71 -1 69 -16z m0 -65 c-2 -20 -11 -24 -62 -30 -32 -4 -74 -9 -91
-11 -29 -4 -33 -1 -33 18 0 19 8 23 68 32 114 17 122 16 118 -9z m2 -70 c-3
-21 -9 -23 -93 -28 -49 -3 -93 -4 -97 -3 -3 2 -4 12 -1 22 4 16 15 19 60 20
31 0 58 3 61 6 3 3 21 5 39 5 30 0 34 -3 31 -22z"/>
  <path d="M570 612 c0 -4 -16 -25 -35 -47 -20 -21 -34 -39 -32 -41 7 -7 127 36
146 52 2 2 -4 13 -14 24 -18 19 -65 28 -65 12z"/>
  <path d="M250 569 c0 -24 49 -69 75 -69 29 0 32 19 8 49 -22 26 -83 40 -83 20z"/>
</g>
<g id="part-1" class="char-part">
  <path d="M404 620 c14 -73 -32 -211 -101 -302 -32 -41 -113 -104 -188 -146
-20 -11 -20 -11 1 -12 39 0 148 63 200 116 61 62 87 112 124 242 30 103 29
116 -16 125 -24 4 -26 2 -20 -23z"/>
  <path d="M551 578 c-22 -24 -37 -44 -32 -46 16 -5 122 40 118 51 -1 5 -12 16
-24 24 -19 13 -24 10 -62 -29z"/>
  <path d="M250 571 c0 -16 57 -71 74 -71 21 0 20 33 -1 52 -22 18 -73 32 -73
19z"/>
  <path d="M510 371 c0 -6 4 -11 8 -11 4 0 44 -30 87 -66 101 -84 110 -88 180
-79 65 8 63 15 -15 40 -65 21 -120 48 -175 85 -47 32 -85 46 -85 31z"/>
</g>
<g id="part-2" class="char-part">
  <path d="M393 490 c-4 -15 -17 -21 -64 -26 -70 -8 -69 -24 2 -24 l50 0 -18
-30 c-16 -28 -22 -30 -78 -31 -33 -1 -73 -5 -90 -9 l-30 -7 28 -8 c16 -4 53
-5 83 -2 51 5 54 4 49 -13 -5 -15 -2 -18 16 -15 12 2 28 13 35 24 12 16 31 20
131 25 162 9 224 16 218 26 -10 17 -65 18 -189 4 -71 -8 -131 -12 -134 -9 -3
2 2 15 11 29 14 21 27 25 95 31 78 7 113 18 99 31 -9 9 -50 9 -120 -1 -51 -7
-57 -6 -51 9 5 12 0 16 -16 16 -13 0 -24 -8 -27 -20z"/>
</g>
<g id="part-3" class="char-part">
  <path d="M507 314 c-3 -3 -45 -11 -92 -18 l-87 -11 -3 -83 c-2 -73 0 -82 15
-82 10 0 20 4 22 9 5 12 188 24 188 11 0 -5 9 -10 20 -10 18 0 20 7 20 85 0
73 -3 86 -19 95 -22 11 -54 13 -64 4z m33 -53 c0 -15 -11 -20 -62 -25 -35 -4
-75 -10 -90 -13 -25 -5 -28 -2 -28 20 0 29 13 33 118 36 54 1 62 -1 62 -18z
m8 -63 c-3 -21 -11 -24 -95 -33 -91 -10 -93 -10 -93 11 0 18 9 22 73 31 118
16 119 16 115 -9z"/>
</g>
<g id="part-4" class="char-part">
  <path d="M545 116 c-13 -20 -186 -27 -193 -8 -5 17 -29 15 -36 -4 -3 -8 -1
-24 4 -35 11 -20 26 -25 32 -10 2 4 37 11 80 15 73 6 77 6 96 -19 23 -29 26
-30 46 -9 23 22 21 84 -2 84 -9 0 -22 -6 -27 -14z"/>
</g>
</g>
</svg>