<?xml version="1.0" standalone="no"?>
<!DOCTYPE svg PUBLIC "-//W3C//DTD SVG 20010904//EN"
 "http://www.w3.org/TR/2001/REC-SVG-20010904/DTD/svg10.dtd">
<svg version="1.0" xmlns="http://www.w3.org/2000/svg"
 width="96.000000pt" height="68.000000pt" viewBox="0 0 96.000000 68.000000"
 preserveAspectRatio="xMidYMid meet">
<metadata>
Created by potrace 1.16, written by Peter Selinger 2001-2019
Combined from part_0.svg through part_5.svg with named groups
</metadata>
<g transform="translate(0.000000,68.000000) scale(0.100000,-0.100000)" fill="#000000" stroke="none">
<g id="part-0" class="char-part">
  <path d="M376 611 c-4 -5 5 -23 19 -39 l25 -30 -67 -7 c-122 -11 -153 -16
-148 -26 4 -5 24 -9 46 -9 37 0 39 -2 39 -30 l0 -30 104 0 c121 0 226 10 226
21 0 4 -67 5 -150 2 -149 -6 -150 -6 -150 15 0 18 6 22 33 23 97 2 291 25 294
35 7 23 -51 26 -160 9 -24 -4 -27 -2 -22 13 3 11 -2 25 -12 34 -23 19 -70 31
-77 19z"/>
  <path d="M445 403 c-38 -7 -85 -12 -103 -10 -20 2 -31 -1 -29 -7 2 -6 10 -28
18 -49 9 -25 18 -36 29 -33 8 3 59 7 113 11 84 6 97 9 97 25 0 10 7 23 15 30
20 16 19 36 -1 44 -22 9 -59 6 -139 -11z m90 -34 c-3 -12 -7 -24 -9 -27 -3 -3
-43 -5 -88 -6 -77 -1 -83 1 -83 19 0 17 9 21 55 26 117 12 129 11 125 -12z"/>
  <path d="M390 265 c0 -53 -9 -65 -45 -65 -33 0 -33 1 -28 39 6 47 -11 57 -75
43 -22 -5 -51 -8 -64 -5 -23 4 -23 3 -23 -89 0 -69 -5 -101 -18 -125 -13 -25
-14 -31 -3 -27 7 3 21 23 31 44 17 39 36 50 88 50 25 0 27 -3 27 -40 0 -38 -2
-40 -30 -40 l-31 0 25 -25 c30 -30 41 -31 59 -5 10 15 13 40 9 91 l-5 71 29
-4 c24 -2 29 -7 27 -26 -2 -18 4 -26 27 -34 25 -8 29 -13 19 -25 -7 -8 -29
-23 -48 -33 -20 -11 -29 -19 -21 -19 8 -1 35 10 58 24 40 23 46 24 65 10 12
-8 25 -15 29 -15 14 0 8 22 -9 35 -15 11 -15 16 6 60 14 30 27 45 35 42 8 -3
17 -3 20 0 3 4 -11 14 -31 23 -35 15 -38 15 -55 -2 -25 -25 -40 -14 -27 19 12
33 7 49 -20 56 -18 4 -21 1 -21 -28z m-110 -20 c0 -19 -7 -26 -37 -34 -52 -15
-53 -14 -53 14 0 27 25 43 68 44 17 1 22 -5 22 -24z m-2 -90 c-2 -2 -23 -7
-47 -11 -41 -7 -43 -6 -39 17 2 20 10 25 43 29 33 4 41 2 43 -13 2 -10 2 -20
0 -22z m182 11 c0 -35 -25 -52 -56 -38 -24 11 -24 13 -8 37 22 34 64 35 64 1z"/>
  <path d="M585 286 c-54 -11 -57 -13 -32 -20 23 -7 27 -13 27 -47 0 -34 -3 -39
-22 -39 -23 -1 -23 -1 -3 -15 17 -14 18 -19 7 -60 -14 -55 -15 -82 -2 -90 12
-8 40 47 40 80 0 18 5 25 20 25 13 0 20 7 20 20 0 11 -4 20 -9 20 -9 0 -20
109 -11 111 3 0 15 2 28 5 22 4 22 2 22 -96 0 -95 1 -101 28 -131 24 -27 36
-32 74 -33 26 -1 49 2 52 5 3 3 0 25 -7 50 l-13 44 -12 -32 c-13 -40 -41 -43
-72 -10 -18 18 -21 31 -18 82 2 33 11 75 21 94 9 18 14 37 11 42 -7 12 -76 9
-149 -5z"/>
</g>
<g id="part-1" class="char-part">
  <path d="M380 602 c0 -16 41 -52 60 -52 29 0 25 34 -5 48 -30 14 -55 15 -55 4z"/>
  <path d="M539 546 c-2 -2 -53 -7 -114 -10 -158 -10 -225 -21 -201 -31 11 -5
90 -3 180 4 196 15 237 21 230 32 -5 9 -86 13 -95 5z"/>
</g>
<g id="part-2" class="char-part">
  <path d="M480 409 c-19 -5 -67 -10 -106 -11 -68 -3 -71 -4 -59 -23 7 -11 16
-32 19 -48 5 -22 11 -26 29 -23 12 3 66 8 120 11 61 4 95 11 91 17 -4 5 3 23
15 39 21 28 21 28 2 39 -23 12 -62 12 -111 -1z m60 -31 c-1 -30 -19 -39 -97
-45 -71 -5 -81 -4 -87 12 -9 24 -6 26 56 35 85 12 128 11 128 -2z"/>
</g>
<g id="part-3" class="char-part">
  <path d="M235 280 c-11 -5 -33 -6 -50 -4 l-30 5 3 -83 c3 -68 0 -90 -17 -122
-11 -22 -19 -41 -17 -43 7 -7 47 41 52 63 6 23 30 34 77 34 26 0 28 -2 25 -37
-3 -33 -6 -38 -32 -41 l-28 -4 23 -24 c53 -57 74 -17 74 141 l0 120 -30 2
c-16 1 -39 -2 -50 -7z m45 -35 c0 -19 -7 -26 -37 -34 -52 -15 -53 -14 -53 14
0 27 25 43 68 44 17 1 22 -5 22 -24z m0 -69 c0 -18 -7 -25 -31 -30 -52 -10
-61 -8 -57 17 2 16 12 24 38 28 19 4 38 7 43 8 4 0 7 -10 7 -23z"/>
</g>
<g id="part-4" class="char-part">
  <path d="M390 265 c0 -48 -9 -65 -35 -65 -13 0 -27 -4 -30 -10 -4 -6 5 -10 19
-10 29 0 30 -3 16 -30 -8 -16 -5 -20 26 -30 29 -10 33 -14 23 -27 -7 -8 -29
-23 -48 -34 -46 -25 -3 -15 50 12 33 16 38 17 58 2 29 -20 39 -9 16 17 -17 19
-17 21 4 65 13 28 28 45 39 45 13 1 11 4 -8 15 -28 16 -64 20 -56 6 3 -5 -6
-11 -19 -14 -22 -4 -25 -2 -19 17 13 39 9 58 -13 67 -21 8 -23 5 -23 -26z m68
-105 c-12 -37 -20 -42 -52 -34 -25 6 -25 7 -10 35 11 22 22 29 44 29 28 0 29
-1 18 -30z"/>
</g>
<g id="part-5" class="char-part">
  <path d="M661 291 c-11 -7 -11 -9 0 -13 10 -3 14 -25 14 -74 1 -38 5 -78 10
-88 6 -13 5 -17 -2 -13 -24 15 1 -34 29 -58 23 -19 37 -23 69 -20 50 5 51 5
34 29 -12 16 -16 17 -29 4 -16 -17 -62 -16 -79 1 -16 16 -10 143 8 187 8 21
14 38 13 40 -10 9 -55 13 -67 5z m26 -133 c-3 -7 -5 -2 -5 12 0 14 2 19 5 13
2 -7 2 -19 0 -25z"/>
</g>
</g>
</svg>