<?xml version="1.0" standalone="no"?>
<!DOCTYPE svg PUBLIC "-//W3C//DTD SVG 20010904//EN"
 "http://www.w3.org/TR/2001/REC-SVG-20010904/DTD/svg10.dtd">
<svg version="1.0" xmlns="http://www.w3.org/2000/svg"
 width="96.000000pt" height="68.000000pt" viewBox="0 0 96.000000 68.000000"
 preserveAspectRatio="xMidYMid meet">
<metadata>
Created by potrace 1.16, written by Peter Selinger 2001-2019
Combined from part_0.svg through part_5.svg with named groups
</metadata>
<g transform="translate(0.000000,68.000000) scale(0.100000,-0.100000)" fill="#000000" stroke="none">
<g id="part-0" class="char-part">
  <path d="M327 531 c7 -80 -6 -128 -48 -172 -16 -17 -27 -34 -25 -37 8 -7 79
37 94 59 13 18 14 18 43 -3 21 -16 32 -19 40 -11 18 18 2 43 -31 50 -26 5 -31
10 -28 32 2 21 13 29 53 44 61 22 61 23 45 42 -18 21 -47 19 -60 -5 -16 -30
-33 -24 -28 10 5 32 -4 44 -39 52 -21 6 -21 4 -16 -61z"/>
  <path d="M549 593 c0 -5 0 -38 1 -75 1 -71 -7 -97 -48 -140 -14 -16 -22 -28
-16 -28 15 0 67 37 84 60 l16 22 44 -37 c39 -32 45 -34 53 -19 11 20 -21 49
-65 58 -27 5 -27 5 -21 72 5 58 4 69 -12 80 -21 16 -35 18 -36 7z"/>
  <path d="M640 520 c-40 -34 -34 -37 30 -13 56 21 58 22 40 33 -23 15 -33 12
-70 -20z"/>
  <path d="M224 498 c-9 -15 43 -60 65 -56 28 6 24 36 -8 52 -36 19 -47 20 -57
4z"/>
  <path d="M460 484 c0 -16 23 -44 35 -44 18 0 20 21 3 38 -12 12 -38 17 -38 6z"/>
  <path d="M521 335 c-240 -25 -291 -27 -297 -10 -4 8 -9 15 -13 15 -11 0 -51
-88 -51 -110 0 -39 38 -15 60 38 9 20 43 30 83 23 8 -1 269 25 350 35 50 7 57
0 36 -38 -15 -28 -8 -30 47 -16 67 16 72 23 40 53 -32 29 -57 30 -255 10z"/>
  <path d="M505 265 c-5 -2 -49 -7 -97 -10 -97 -7 -120 -25 -34 -25 44 0 55 -3
58 -17 9 -39 -3 -53 -43 -53 -56 0 -58 -18 -2 -22 l48 -3 3 -40 3 -40 -103 -3
c-57 -2 -107 -6 -112 -9 -27 -17 44 -22 244 -17 237 6 270 8 270 24 0 13 -69
30 -100 26 -14 -3 -55 -7 -92 -11 l-68 -7 0 40 c0 36 3 40 31 46 17 3 42 6 55
6 13 0 24 4 24 9 0 15 -36 23 -75 15 -34 -6 -35 -5 -35 25 0 35 3 37 73 46 26
3 45 10 42 16 -6 8 -68 11 -90 4z"/>
  <path d="M590 134 c0 -10 26 -31 48 -38 18 -6 22 -3 22 12 0 11 -7 23 -16 26
-20 8 -54 8 -54 0z"/>
</g>
<g id="part-1" class="char-part">
  <path d="M328 520 c5 -88 -1 -111 -39 -155 -45 -50 -10 -46 41 5 22 22 40 36
40 32 0 -13 47 -35 59 -28 17 11 1 34 -30 41 -24 5 -29 12 -29 35 0 25 6 31
48 46 62 23 69 30 42 44 -19 10 -26 8 -49 -14 -37 -35 -44 -33 -36 10 7 38 -3
54 -35 54 -13 0 -15 -12 -12 -70z"/>
  <path d="M230 492 c0 -5 11 -19 25 -32 24 -23 26 -23 43 -6 16 16 16 18 -2 32
-21 15 -66 19 -66 6z"/>
</g>
<g id="part-2" class="char-part">
  <path d="M548 545 c6 -78 -4 -120 -42 -160 -48 -51 -10 -48 44 4 l41 39 41
-35 c29 -24 44 -31 52 -23 17 17 -6 43 -52 58 -67 22 -56 49 31 75 60 19 69
30 37 47 -15 8 -25 5 -53 -20 -19 -16 -38 -30 -42 -30 -4 0 -5 18 -2 41 5 36
3 41 -20 50 -38 14 -40 12 -35 -46z"/>
  <path d="M460 483 c1 -14 27 -43 39 -43 17 0 13 37 -5 44 -21 8 -34 8 -34 -1z"/>
</g>
<g id="part-3" class="char-part">
  <path d="M470 330 c-232 -23 -226 -23 -244 -5 -8 8 -17 15 -20 15 -8 0 -46
-91 -46 -112 0 -32 31 -17 53 25 17 34 22 37 61 37 24 0 123 9 222 20 98 11
185 20 192 20 15 0 16 -32 0 -48 -6 -6 -9 -14 -6 -17 8 -8 112 21 115 32 2 6
-8 20 -23 32 -32 25 -50 25 -304 1z"/>
</g>
<g id="part-4" class="char-part">
  <path d="M413 257 c-147 -14 -133 -32 20 -24 130 7 170 14 161 28 -6 10 -39
10 -181 -4z"/>
</g>
<g id="part-5" class="char-part">
  <path d="M438 188 c-3 -30 -7 -34 -43 -39 l-40 -6 43 -2 c41 -1 42 -2 42 -37
0 -21 4 -33 10 -29 6 3 10 1 10 -4 0 -11 -12 -14 -45 -12 -17 2 -17 0 -5 -8
11 -8 1 -9 -34 -4 -36 4 -47 3 -42 -5 4 -7 3 -12 -3 -12 -5 0 -11 5 -13 11 -3
8 -18 9 -48 4 -40 -7 -42 -9 -20 -15 31 -9 159 -1 181 11 9 4 19 5 23 2 8 -9
107 -13 102 -5 -2 4 37 6 87 4 76 -3 90 -1 79 10 -14 14 -145 17 -195 4 -34
-8 -71 27 -57 55 6 10 7 26 4 36 -3 10 -2 14 3 8 5 -7 23 -6 53 2 l45 12 -42
-1 c-24 -1 -48 3 -55 10 -7 7 -9 12 -4 12 4 0 1 7 -8 15 -21 21 -24 19 -28
-17z"/>
</g>
</g>
</svg>