<?xml version="1.0" standalone="no"?>
<!DOCTYPE svg PUBLIC "-//W3C//DTD SVG 20010904//EN"
 "http://www.w3.org/TR/2001/REC-SVG-20010904/DTD/svg10.dtd">
<svg version="1.0" xmlns="http://www.w3.org/2000/svg"
 width="96.000000pt" height="68.000000pt" viewBox="0 0 96.000000 68.000000"
 preserveAspectRatio="xMidYMid meet">
<metadata>
Created by potrace 1.16, written by Peter Selinger 2001-2019
Combined from part_0.svg through part_5.svg with named groups
</metadata>
<g transform="translate(0.000000,68.000000) scale(0.100000,-0.100000)" fill="#000000" stroke="none">
<g id="part-0" class="char-part">
  <path d="M521 573 c-7 -15 -26 -44 -43 -65 -38 -49 -32 -58 13 -18 27 24 43
30 82 30 26 0 47 -3 47 -6 0 -3 -9 -19 -20 -34 -20 -29 -48 -36 -155 -42 -51
-2 -59 -6 -44 -24 29 -35 -19 -264 -72 -340 -35 -52 -26 -58 19 -11 32 33 74
118 86 172 l7 31 176 12 c97 7 178 14 181 16 2 3 1 10 -3 16 -5 8 -31 9 -86 4
-70 -6 -79 -5 -79 10 0 18 -46 44 -57 33 -3 -4 4 -18 16 -31 l22 -23 -47 -7
c-26 -3 -62 -6 -80 -6 -33 0 -34 1 -34 39 0 64 15 91 50 91 37 0 39 -18 5 -54
-49 -53 -24 -50 35 4 37 33 42 42 30 50 -12 8 -9 10 12 10 14 0 33 3 42 6 13
5 16 -1 16 -26 0 -44 23 -59 88 -60 64 0 69 16 6 23 -54 6 -65 14 -53 45 7 18
16 22 55 22 32 0 44 4 41 13 -3 8 -26 11 -76 10 -39 -1 -71 1 -71 5 0 4 16 21
37 38 22 18 33 35 29 42 -9 15 -51 15 -93 0 -36 -13 -59 -3 -30 14 14 8 16 13
6 24 -18 22 -45 16 -58 -13z"/>
  <path d="M202 492 c-59 -13 -71 -19 -65 -32 4 -8 8 -79 8 -157 0 -78 3 -145 7
-149 4 -4 13 -2 20 3 7 6 32 13 56 16 35 4 45 2 55 -14 15 -24 33 -24 46 -1 5
9 10 88 12 175 4 197 10 191 -139 159z m88 -62 c0 -37 -2 -40 -27 -40 -16 0
-38 -3 -50 -6 -21 -6 -23 -3 -23 28 0 44 15 58 62 58 38 0 38 0 38 -40z m0
-100 c0 -27 -3 -30 -34 -30 -19 0 -41 -3 -50 -6 -12 -5 -16 1 -16 24 0 32 10
38 73 41 24 1 27 -3 27 -29z m6 -86 c8 -33 -1 -40 -59 -47 -54 -5 -61 1 -52
43 6 28 9 30 56 30 44 0 49 -2 55 -26z"/>
  <path d="M587 240 c-121 -15 -59 -27 72 -14 33 4 61 11 61 15 0 10 -49 10
-133 -1z"/>
  <path d="M580 193 c-59 -5 -77 -23 -23 -23 68 0 163 12 163 21 0 9 -51 9 -140
2z"/>
  <path d="M546 133 c-73 -4 -77 -5 -63 -21 8 -9 20 -36 26 -60 10 -36 15 -42
34 -38 12 3 56 8 97 11 l75 7 26 42 c25 41 25 43 8 54 -10 7 -42 11 -71 10
-29 -1 -88 -4 -132 -5z m142 -45 l-3 -33 -72 -3 c-65 -3 -72 -1 -78 19 -11 34
10 43 118 47 37 2 38 1 35 -30z"/>
</g>
<g id="part-1" class="char-part">
  <path d="M230 490 c-14 -4 -40 -8 -59 -9 -26 -1 -32 -4 -27 -17 3 -9 6 -63 6
-120 0 -104 7 -123 34 -90 6 7 35 16 64 19 42 5 52 3 52 -9 0 -9 7 -14 18 -12
15 3 18 19 22 112 4 83 2 113 -8 123 -15 14 -62 16 -102 3z m68 -61 c3 -34 3
-35 -53 -45 l-56 -10 3 45 c3 42 5 46 33 52 48 9 70 -4 73 -42z m0 -97 c2 -23
-1 -32 -11 -32 -8 0 -34 -3 -59 -6 l-44 -6 4 35 c4 34 6 36 46 40 59 5 61 4
64 -31z"/>
</g>
<g id="part-2" class="char-part">
  <path d="M300 233 c0 -27 -6 -30 -72 -36 -47 -4 -48 -4 -48 23 0 23 -4 27 -20
23 -16 -4 -20 -14 -20 -44 0 -39 24 -65 39 -42 3 6 25 12 48 15 37 5 44 3 59
-20 l17 -26 18 23 c12 14 19 39 19 65 0 35 -3 42 -20 42 -14 0 -20 -7 -20 -23z"/>
</g>
<g id="part-3" class="char-part">
  <path d="M523 578 c-6 -13 -27 -44 -47 -70 -41 -55 -36 -60 20 -18 29 22 50
30 82 30 l43 0 -16 -30 c-29 -56 -14 -54 54 7 l53 48 -28 11 c-22 9 -37 9 -67
-2 -54 -19 -63 -18 -41 7 16 17 16 22 4 29 -25 16 -46 11 -57 -12z"/>
</g>
<g id="part-4" class="char-part">
  <path d="M530 412 c0 -8 -11 -30 -26 -49 -32 -43 -22 -42 32 3 51 41 54 50 19
56 -18 4 -25 1 -25 -10z"/>
  <path d="M640 400 c0 -37 23 -50 90 -50 37 0 50 4 47 13 -2 6 -19 12 -38 13
-69 1 -72 2 -65 29 5 20 3 25 -14 25 -16 0 -20 -7 -20 -30z"/>
</g>
<g id="part-5" class="char-part">
  <path d="M650 130 l-35 -7 41 -2 c38 -1 42 -3 46 -31 6 -38 -5 -43 -119 -48
-18 -1 -33 -5 -33 -10 0 -6 95 0 158 9 11 2 16 13 13 32 0 4 3 7 9 7 5 0 7 7
4 15 -5 11 -2 14 12 8 18 -6 18 -6 0 15 -19 22 -32 30 -21 13 3 -5 1 -12 -5
-16 -5 -3 -10 1 -10 9 0 17 -5 18 -60 6z"/>
  <path d="M490 108 c0 -4 4 -9 9 -12 4 -3 11 -19 14 -36 4 -16 11 -30 17 -30 7
0 9 9 4 23 -13 39 -10 50 16 58 19 6 15 7 -17 6 -24 -1 -43 -5 -43 -9z"/>
</g>
</g>
</svg>