<?xml version="1.0" standalone="no"?>
<!DOCTYPE svg PUBLIC "-//W3C//DTD SVG 20010904//EN"
 "http://www.w3.org/TR/2001/REC-SVG-20010904/DTD/svg10.dtd">
<svg version="1.0" xmlns="http://www.w3.org/2000/svg"
 width="96.000000pt" height="68.000000pt" viewBox="0 0 96.000000 68.000000"
 preserveAspectRatio="xMidYMid meet">
<metadata>
Created by potrace 1.16, written by Peter Selinger 2001-2019
Combined from part_0.svg through part_5.svg with named groups
</metadata>
<g transform="translate(0.000000,68.000000) scale(0.100000,-0.100000)" fill="#000000" stroke="none">
<g id="part-0" class="char-part">
  <path d="M706 576 c-6 -25 -73 -99 -116 -129 l-25 -18 30 6 c27 6 110 61 159
107 20 18 20 18 -2 38 -28 26 -39 25 -46 -4z"/>
  <path d="M365 569 c-16 -5 -51 -7 -77 -4 l-46 5 5 -101 c7 -118 6 -119 -79
-119 -59 0 -78 -15 -33 -26 14 -3 43 -4 65 -2 48 4 49 -2 20 -86 -20 -59 -56
-125 -74 -138 -6 -4 -2 -8 11 -8 40 0 104 98 124 190 12 57 10 56 96 64 l62 6
-5 -83 c-8 -127 -8 -127 -46 -116 -17 5 -33 7 -35 6 -1 -2 12 -20 30 -40 37
-43 58 -46 87 -15 18 19 20 35 20 140 l0 118 46 0 c27 0 43 4 39 10 -3 6 -25
10 -47 10 l-41 0 5 90 c5 80 3 92 -13 100 -22 12 -74 12 -114 -1z m69 -75 c3
-26 6 -64 6 -85 l0 -39 -47 0 c-27 0 -58 -3 -70 -6 -22 -6 -23 -4 -23 65 0 88
17 111 84 111 l43 0 7 -46z"/>
  <path d="M340 451 c12 -23 48 -37 62 -23 14 14 -18 42 -48 42 -21 0 -23 -3
-14 -19z"/>
  <path d="M720 428 c-1 -18 -61 -82 -112 -118 -61 -44 -22 -36 57 12 97 58 122
82 106 102 -16 19 -51 21 -51 4z"/>
  <path d="M767 267 c-53 -69 -166 -156 -246 -189 -20 -9 -22 -12 -9 -15 22 -6
151 58 208 102 25 19 62 47 83 61 20 15 37 30 37 34 0 4 -11 15 -24 23 -23 16
-25 15 -49 -16z"/>
</g>
<g id="part-1" class="char-part">
  <path d="M365 565 c-27 -7 -67 -10 -88 -8 -38 6 -38 6 -30 -23 12 -43 4 -190
-14 -264 -16 -69 -44 -132 -72 -164 -15 -18 -15 -18 6 -7 66 34 110 141 125
300 6 64 14 120 18 124 15 16 90 28 110 17 18 -10 20 -22 20 -138 0 -70 -3
-158 -7 -195 l-6 -69 -35 7 -35 6 35 -36 c30 -32 38 -36 55 -26 11 6 23 18 27
27 3 8 6 97 7 196 0 99 5 192 10 206 7 19 6 29 -7 43 -19 21 -47 22 -119 4z"/>
</g>
<g id="part-2" class="char-part">
  <path d="M330 466 c0 -32 60 -60 76 -35 9 15 -6 28 -44 38 -24 7 -32 6 -32 -3z"/>
  <path d="M273 362 c-95 -9 -173 -19 -173 -24 0 -18 61 -20 189 -4 75 9 171 19
214 22 42 4 77 11 77 15 0 12 -104 9 -307 -9z"/>
</g>
<g id="part-3" class="char-part">
  <path d="M702 573 c-11 -31 -48 -73 -102 -116 l-35 -29 30 7 c32 7 76 35 140
89 40 34 40 34 21 55 -26 28 -42 26 -54 -6z"/>
</g>
<g id="part-4" class="char-part">
  <path d="M725 431 c-6 -19 -86 -98 -140 -139 l-30 -22 45 17 c45 17 150 84
171 109 12 15 6 30 -21 44 -15 8 -20 6 -25 -9z"/>
</g>
<g id="part-5" class="char-part">
  <path d="M726 214 c-39 -40 -73 -71 -77 -69 -4 3 -12 -2 -18 -9 -8 -10 -9 -16
-1 -21 5 -3 10 -2 10 3 0 5 13 15 29 22 16 6 45 27 65 45 21 19 38 33 39 33 1
-1 15 7 30 17 18 12 24 21 17 25 -7 4 -11 11 -10 16 4 24 -22 5 -84 -62z m24
3 c0 -2 -10 -12 -22 -23 l-23 -19 19 23 c18 21 26 27 26 19z"/>
  <path d="M580 100 c0 -6 -4 -9 -9 -5 -5 3 -12 1 -16 -4 -3 -6 4 -8 16 -6 27 5
33 11 20 20 -6 3 -11 1 -11 -5z"/>
  <path d="M515 70 c-3 -6 1 -7 9 -4 18 7 21 14 7 14 -6 0 -13 -4 -16 -10z"/>
</g>
</g>
</svg>