<?xml version="1.0" standalone="no"?>
<!DOCTYPE svg PUBLIC "-//W3C//DTD SVG 20010904//EN"
 "http://www.w3.org/TR/2001/REC-SVG-20010904/DTD/svg10.dtd">
<svg version="1.0" xmlns="http://www.w3.org/2000/svg"
 width="96.000000pt" height="68.000000pt" viewBox="0 0 96.000000 68.000000"
 preserveAspectRatio="xMidYMid meet">
<metadata>
Created by potrace 1.16, written by Peter Selinger 2001-2019
Combined from part_0.svg through part_5.svg with named groups
</metadata>
<g transform="translate(0.000000,68.000000) scale(0.100000,-0.100000)" fill="#000000" stroke="none">
<g id="part-0" class="char-part">
  <path d="M258 604 c-4 -3 -2 -20 3 -37 5 -18 9 -55 9 -83 l0 -52 -70 -9 c-39
-4 -71 -12 -70 -18 0 -5 29 -12 65 -15 l66 -5 -32 -50 c-17 -27 -54 -74 -82
-102 -32 -33 -45 -53 -36 -53 22 0 80 40 123 86 l37 39 -5 -40 c-12 -92 -16
-211 -8 -223 5 -8 18 -12 28 -10 17 3 20 17 25 133 4 72 7 134 8 139 0 4 12 1
26 -8 34 -22 45 -20 45 8 0 19 -8 27 -35 36 -27 9 -35 17 -35 35 0 20 7 25 35
31 19 3 38 10 40 15 8 13 -33 31 -56 24 -18 -6 -19 -3 -13 63 6 65 5 70 -17
86 -24 17 -41 20 -51 10z"/>
  <path d="M555 575 c-49 -7 -98 -14 -108 -14 -32 -2 -7 -21 27 -21 30 0 34 -4
38 -30 l5 -30 -59 0 c-32 0 -58 -4 -58 -10 0 -5 4 -10 9 -10 5 0 17 -22 26
-50 15 -45 19 -49 43 -44 15 2 75 6 133 7 l106 3 30 34 c56 65 50 86 -26 92
-40 3 -44 6 -47 31 -2 21 2 27 16 27 28 0 51 11 44 21 -7 12 -68 10 -179 -6z
m65 -55 c0 -28 -3 -30 -35 -30 -24 0 -35 5 -35 14 0 32 13 46 41 46 26 0 29
-4 29 -30z m90 -49 c0 -5 -3 -23 -6 -40 -5 -24 -12 -31 -30 -31 -26 0 -30 14
-14 54 9 24 50 38 50 17z m-95 -33 c-10 -44 -13 -48 -35 -48 -13 0 -22 9 -26
25 -9 38 2 55 36 55 30 0 31 -1 25 -32z m-95 -13 c0 -31 -3 -35 -25 -35 -18 0
-28 7 -35 26 -15 39 -13 44 25 44 33 0 35 -2 35 -35z"/>
  <path d="M565 326 c-57 -9 -75 -15 -62 -21 19 -8 152 1 169 11 9 6 -10 25 -22
23 -3 -1 -41 -7 -85 -13z"/>
  <path d="M585 263 c-82 -8 -166 -17 -185 -20 -33 -5 -34 -6 -11 -14 13 -5 58
-8 100 -7 l76 3 3 -58 c3 -64 -10 -91 -40 -84 -30 8 -29 -8 1 -37 26 -25 31
-26 50 -14 23 14 32 36 32 78 0 14 3 49 5 78 l5 52 110 0 c110 0 130 7 84 28
-30 14 -29 14 -230 -5z"/>
  <path d="M690 182 c0 -4 23 -33 50 -65 53 -58 80 -66 80 -22 0 26 -36 59 -89
81 -39 16 -41 17 -41 6z"/>
  <path d="M430 145 c-12 -19 -31 -42 -43 -50 -11 -8 -18 -17 -15 -21 8 -7 54
17 93 49 25 21 28 27 16 41 -19 23 -27 20 -51 -19z"/>
</g>
<g id="part-1" class="char-part">
  <path d="M263 578 c3 -13 9 -51 13 -84 l6 -62 -43 -7 c-97 -14 -109 -18 -103
-26 3 -5 32 -9 65 -9 32 0 59 -4 59 -9 0 -17 -81 -130 -115 -160 -19 -17 -35
-33 -35 -36 0 -16 83 41 120 82 l43 48 -9 -95 c-11 -131 -10 -168 5 -182 10
-11 15 -9 27 6 10 15 14 53 14 155 l0 134 23 -21 c28 -26 60 -29 55 -5 -2 9
-19 22 -38 28 -29 10 -35 17 -35 41 0 25 4 30 33 34 44 7 46 24 3 28 l-34 3 6
65 c5 70 -6 94 -45 94 -16 0 -19 -5 -15 -22z"/>
</g>
<g id="part-2" class="char-part">
  <path d="M585 579 c-33 -4 -85 -11 -115 -15 -45 -5 -51 -8 -35 -17 13 -7 58
-7 153 2 139 12 156 16 147 32 -7 11 -65 10 -150 -2z"/>
</g>
<g id="part-3" class="char-part">
  <path d="M629 496 c-2 -3 -54 -8 -114 -12 -106 -6 -134 -12 -108 -21 7 -3 17
-21 23 -41 16 -59 15 -59 135 -51 61 4 119 5 131 3 17 -4 29 6 59 46 49 66 39
80 -55 80 -36 0 -69 -2 -71 -4z m78 -52 c-3 -20 -7 -38 -9 -39 -2 -2 -53 -6
-114 -9 l-112 -6 -11 30 c-8 23 -7 32 2 35 10 4 144 17 231 24 16 1 18 -4 13
-35z"/>
</g>
<g id="part-4" class="char-part">
  <path d="M585 233 c-18 -3 -20 -10 -17 -64 4 -68 -9 -93 -44 -86 -19 3 -21 1
-14 -12 4 -9 17 -24 28 -34 16 -15 24 -16 41 -8 11 7 23 22 25 34 9 44 15 167
8 170 -4 2 -16 2 -27 0z"/>
  <path d="M690 182 c0 -5 24 -34 53 -66 38 -41 56 -54 66 -47 19 12 6 57 -22
75 -35 23 -97 47 -97 38z"/>
  <path d="M436 151 c-9 -16 -29 -40 -46 -55 -45 -38 -12 -33 46 7 56 39 63 52
35 66 -17 10 -22 7 -35 -18z"/>
</g>
</g>
</svg>