<?xml version="1.0" standalone="no"?>
<!DOCTYPE svg PUBLIC "-//W3C//DTD SVG 20010904//EN"
 "http://www.w3.org/TR/2001/REC-SVG-20010904/DTD/svg10.dtd">
<svg version="1.0" xmlns="http://www.w3.org/2000/svg"
 width="96.000000pt" height="68.000000pt" viewBox="0 0 96.000000 68.000000"
 preserveAspectRatio="xMidYMid meet">
<metadata>
Created by potrace 1.16, written by Peter Selinger 2001-2019
Combined from part_0.svg through part_5.svg with named groups
</metadata>
<g transform="translate(0.000000,68.000000) scale(0.100000,-0.100000)" fill="#000000" stroke="none">
<g id="part-0" class="char-part">
  <path d="M470 579 c-91 -10 -187 -18 -215 -19 l-50 -1 23 -19 c13 -10 32 -46
43 -78 l20 -59 70 5 70 5 -3 -39 -3 -39 -60 -6 c-33 -4 -104 -7 -157 -8 -57
-1 -98 -5 -98 -11 0 -19 55 -23 171 -10 128 14 136 14 130 -3 -2 -7 -6 -24 -9
-40 -5 -32 -33 -42 -93 -34 -44 6 -44 5 -25 -26 8 -12 19 -46 26 -75 12 -51
30 -77 38 -54 2 8 36 12 105 12 137 0 176 7 170 30 -3 10 8 32 27 54 18 20 30
42 27 49 -9 25 -72 35 -154 26 -42 -5 -78 -7 -80 -5 -6 5 20 71 31 78 6 4 61
8 121 8 132 0 245 10 245 21 0 18 -81 21 -209 10 -135 -12 -165 -8 -139 20 20
22 20 39 0 40 -9 1 1 5 23 9 22 5 59 6 82 4 26 -3 45 0 53 8 20 23 80 120 80
129 0 12 -55 39 -77 38 -10 -1 -92 -10 -183 -20z m170 -34 c0 -9 -7 -31 -14
-50 -14 -33 -18 -35 -60 -35 -26 0 -46 2 -46 5 0 4 7 19 15 36 9 16 13 34 10
39 -6 9 20 16 68 19 18 1 27 -4 27 -14z m-142 -42 c-3 -46 -4 -48 -33 -48 -26
0 -30 4 -37 39 -9 45 -1 56 45 56 27 0 28 -1 25 -47z m-110 10 c23 -59 21 -68
-24 -71 -38 -3 -42 -1 -47 25 -3 15 -8 35 -12 45 -4 11 0 18 12 21 44 11 61 7
71 -20z m199 -307 c2 -2 -3 -22 -10 -47 -12 -42 -15 -44 -57 -51 -25 -3 -72
-7 -105 -7 l-61 -1 -11 43 c-7 23 -8 45 -5 49 16 16 233 27 249 14z"/>
</g>
<g id="part-1" class="char-part">
  <path d="M465 574 c-66 -7 -149 -13 -184 -13 l-64 -1 20 -22 c11 -13 28 -47
38 -76 16 -49 19 -53 43 -47 15 3 94 7 175 9 l148 4 45 67 c25 37 44 68 42 69
-33 29 -78 31 -263 10z m179 -36 c-21 -71 -32 -85 -60 -85 -16 1 -81 -2 -145
-7 l-116 -8 -12 33 c-23 66 -22 66 102 76 61 6 140 11 175 11 61 2 63 1 56
-20z"/>
</g>
<g id="part-2" class="char-part">
  <path d="M500 526 c0 -17 -3 -42 -7 -55 -10 -37 18 -22 44 24 25 44 23 51 -12
57 -22 5 -25 2 -25 -26z"/>
</g>
<g id="part-3" class="char-part">
  <path d="M428 378 l-3 -43 -65 -6 c-36 -4 -106 -7 -157 -8 -50 0 -95 -5 -98
-11 -11 -19 50 -23 161 -12 158 17 155 17 144 -14 -15 -38 -12 -54 9 -54 14 0
23 12 33 43 l15 42 159 6 c87 4 171 7 187 8 56 2 18 32 -45 34 -13 0 -81 -5
-152 -12 -70 -7 -131 -10 -133 -7 -3 3 1 16 10 29 19 30 6 47 -34 47 -26 0
-28 -4 -31 -42z"/>
</g>
<g id="part-4" class="char-part">
  <path d="M530 239 c-30 -5 -103 -10 -161 -11 l-106 -3 18 -25 c9 -14 23 -49
29 -78 12 -51 30 -77 38 -54 2 8 34 12 96 12 136 0 185 8 179 30 -3 10 8 32
26 53 17 19 31 40 31 45 0 28 -73 43 -150 31z m55 -28 c3 -5 0 -30 -7 -54 -11
-44 -12 -45 -62 -51 -28 -3 -76 -6 -107 -6 l-56 0 -10 46 c-13 55 -16 53 109
64 51 4 101 8 110 9 9 0 19 -3 23 -8z"/>
</g>
</g>
</svg>