<?xml version="1.0" standalone="no"?>
<!DOCTYPE svg PUBLIC "-//W3C//DTD SVG 20010904//EN"
 "http://www.w3.org/TR/2001/REC-SVG-20010904/DTD/svg10.dtd">
<svg version="1.0" xmlns="http://www.w3.org/2000/svg"
 width="96.000000pt" height="68.000000pt" viewBox="0 0 96.000000 68.000000"
 preserveAspectRatio="xMidYMid meet">
<metadata>
Created by potrace 1.16, written by Peter Selinger 2001-2019
Combined from part_0.svg through part_5.svg with named groups
</metadata>
<g transform="translate(0.000000,68.000000) scale(0.100000,-0.100000)" fill="#000000" stroke="none">
<g id="part-0" class="char-part">
  <path d="M546 571 c-2 -3 0 -28 5 -56 4 -27 8 -70 8 -94 l1 -43 -65 4 c-49 3
-65 1 -65 -9 0 -7 -4 -13 -8 -13 -14 0 -32 -48 -25 -65 8 -23 26 -13 45 26 17
32 21 34 85 40 38 4 103 10 146 14 83 8 91 4 57 -35 -13 -15 -25 -20 -37 -16
-9 4 -65 4 -123 0 l-107 -7 19 -35 c10 -20 18 -42 18 -48 0 -7 12 -14 28 -16
21 -2 28 -9 30 -31 3 -26 2 -27 -42 -27 -25 0 -46 -4 -46 -10 0 -5 23 -10 51
-10 l50 0 -3 -33 -3 -32 -88 -7 c-49 -3 -91 -9 -94 -12 -15 -15 40 -18 126 -8
53 7 149 12 214 12 64 0 117 4 117 9 0 5 -14 14 -31 22 -26 10 -46 10 -106 0
-83 -14 -98 -9 -87 33 6 24 10 26 56 26 35 0 48 4 45 13 -2 7 -22 12 -50 11
-45 0 -47 1 -47 28 0 25 3 28 34 28 27 0 33 3 30 18 -7 30 43 74 99 87 60 13
66 31 20 58 -28 16 -39 17 -89 8 -109 -20 -104 -24 -104 78 l0 89 -30 4 c-17
3 -32 2 -34 -1z m94 -286 c0 -30 -10 -35 -70 -38 -39 -2 -44 1 -51 25 -6 25
-4 27 25 31 85 11 96 9 96 -18z"/>
  <path d="M196 513 c4 -10 10 -44 12 -75 l4 -58 -61 0 c-34 0 -61 -4 -61 -10 0
-5 4 -10 10 -10 5 0 16 -23 24 -50 20 -69 22 -71 53 -59 31 12 43 0 43 -47 0
-27 -4 -32 -31 -38 -17 -3 -44 -6 -60 -6 -34 0 -38 -15 -8 -31 17 -9 33 -7 75
7 30 10 54 22 54 26 0 4 3 7 8 6 4 -1 25 4 46 11 33 11 40 11 47 0 21 -36 28
-41 38 -35 20 13 11 44 -20 70 -34 29 -71 37 -50 12 10 -12 8 -17 -8 -25 -39
-21 -52 -14 -49 27 3 36 4 37 48 42 31 3 44 9 42 19 -1 7 9 28 23 46 14 19 25
36 25 38 0 13 -65 29 -95 24 -34 -6 -35 -5 -35 28 0 19 4 45 10 59 8 21 6 27
-10 36 -10 5 -33 10 -50 10 -27 0 -31 -3 -24 -17z m114 -155 c0 -30 -13 -58
-26 -58 -14 0 -20 51 -7 63 11 12 33 8 33 -5z m-100 -33 c0 -28 -4 -35 -19
-35 -11 0 -21 9 -25 23 -10 38 -7 47 19 47 22 0 25 -4 25 -35z"/>
  <path d="M689 480 c-40 -45 -37 -47 38 -23 56 18 64 28 36 49 -27 20 -35 17
-74 -26z"/>
  <path d="M454 451 c30 -31 66 -42 66 -18 0 24 -17 38 -56 44 l-39 6 29 -32z"/>
</g>
<g id="part-1" class="char-part">
  <path d="M205 508 c4 -13 9 -47 12 -75 l5 -53 -33 -2 c-19 -1 -46 -1 -61 0
-27 2 -36 -7 -20 -22 4 -4 14 -28 22 -54 15 -46 16 -47 53 -44 l37 4 0 -41 c0
-34 3 -41 20 -41 17 0 20 7 20 44 l0 45 44 6 c27 4 43 11 40 19 -2 6 7 23 21
38 14 15 25 31 25 36 0 17 -48 30 -90 25 l-43 -6 7 39 c4 21 10 49 13 61 4 18
-1 25 -22 33 -44 17 -58 13 -50 -12z m109 -165 c-9 -39 -13 -43 -35 -43 -15 0
-19 7 -19 35 0 32 2 35 30 35 28 0 30 -2 24 -27z m-96 -20 c-5 -65 -57 -56
-58 10 0 24 4 27 31 27 29 0 30 -2 27 -37z"/>
</g>
<g id="part-2" class="char-part">
  <path d="M341 190 c31 -50 42 -59 54 -39 12 19 -4 54 -34 72 -48 28 -53 20
-20 -33z"/>
</g>
<g id="part-3" class="char-part">
  <path d="M544 548 c3 -17 9 -62 13 -100 5 -54 9 -68 20 -64 8 4 19 6 24 6 5 0
9 40 9 89 0 84 -1 89 -22 95 -45 12 -51 8 -44 -26z"/>
  <path d="M687 480 c-42 -45 -38 -47 39 -24 64 18 72 27 42 48 -32 23 -39 21
-81 -24z"/>
  <path d="M455 450 c33 -35 65 -40 65 -10 0 23 -28 40 -66 40 l-28 0 29 -30z"/>
</g>
<g id="part-4" class="char-part">
  <path d="M665 394 c-49 -7 -123 -12 -162 -11 l-73 1 -19 -38 c-24 -46 -19 -71
11 -55 11 6 24 23 29 38 10 27 11 28 150 41 77 7 142 10 145 7 3 -3 -2 -17
-11 -31 l-17 -25 34 9 c18 6 45 10 60 10 39 0 36 25 -4 50 -18 11 -37 19 -43
19 -5 -1 -50 -8 -100 -15z"/>
</g>
<g id="part-5" class="char-part">
  <path d="M570 190 c0 -22 -6 -33 -22 -41 l-23 -10 23 5 c12 2 23 0 23 -5 5
-34 4 -55 -2 -64 -5 -7 39 -10 127 -11 74 0 134 2 134 6 0 13 -23 17 -65 14
-22 -2 -65 -5 -95 -6 l-55 -1 -1 55 c-1 66 -8 88 -29 88 -10 0 -15 -10 -15
-30z m30 6 c0 -3 -4 -8 -10 -11 -5 -3 -10 -1 -10 4 0 6 5 11 10 11 6 0 10 -2
10 -4z"/>
  <path d="M648 173 c-10 -2 -18 -9 -18 -14 0 -6 7 -6 19 1 25 13 34 13 26 0 -3
-5 -1 -10 4 -10 6 0 11 7 11 15 0 15 -9 17 -42 8z"/>
  <path d="M452 62 c-18 -2 -30 -8 -27 -13 8 -12 55 -12 55 1 0 5 14 7 33 3 17
-3 30 -4 27 -1 -9 9 -54 14 -88 10z"/>
</g>
</g>
</svg>