<?xml version="1.0" standalone="no"?>
<!DOCTYPE svg PUBLIC "-//W3C//DTD SVG 20010904//EN"
 "http://www.w3.org/TR/2001/REC-SVG-20010904/DTD/svg10.dtd">
<svg version="1.0" xmlns="http://www.w3.org/2000/svg"
 width="96.000000pt" height="68.000000pt" viewBox="0 0 96.000000 68.000000"
 preserveAspectRatio="xMidYMid meet">
<metadata>
Created by potrace 1.16, written by Peter Selinger 2001-2019
Combined from part_0.svg through part_5.svg with named groups
</metadata>
<g transform="translate(0.000000,68.000000) scale(0.100000,-0.100000)" fill="#000000" stroke="none">
<g id="part-0" class="char-part">
  <path d="M278 526 c5 -71 7 -68 -62 -78 -11 -2 -21 -9 -24 -15 -2 -9 11 -13
47 -13 47 0 51 -2 51 -24 0 -29 -5 -30 -117 -47 -86 -13 -101 -23 -57 -39 18
-7 44 -6 90 5 97 22 94 24 94 -50 0 -36 -2 -65 -5 -65 -10 0 -55 24 -55 30 0
3 5 11 11 17 7 7 5 15 -6 27 -22 21 -45 21 -45 -1 -1 -28 -37 -101 -71 -144
-47 -59 -18 -47 48 22 l60 60 174 -86 c96 -47 191 -88 212 -92 41 -6 222 17
210 27 -5 4 -64 15 -133 24 -116 16 -279 60 -341 91 -21 11 -25 19 -21 44 3
26 9 30 43 36 51 9 50 25 -1 25 -37 0 -40 2 -40 29 0 32 14 41 65 41 37 0 56
17 34 31 -7 4 -33 5 -56 2 -41 -5 -43 -5 -43 20 0 23 6 28 45 38 56 14 57 27
5 35 l-39 6 -3 52 c-3 51 -3 51 -39 54 l-35 3 4 -65z"/>
  <path d="M588 475 l4 -95 -39 -1 c-21 -1 -49 0 -63 0 l-25 2 3 -93 c3 -83 13
-121 26 -107 3 3 6 41 8 86 4 96 -4 91 142 100 l98 6 -3 -86 c-4 -97 -13 -113
-52 -98 -35 14 -34 2 2 -33 36 -35 66 -28 80 17 9 32 33 199 29 202 -2 0 -14
8 -28 17 -16 10 -32 12 -45 7 -11 -4 -37 -8 -59 -8 l-39 -1 7 84 c7 81 6 84
-16 90 -13 3 -25 6 -28 6 -3 0 -3 -43 -2 -95z"/>
  <path d="M728 504 c-7 -9 -25 -29 -40 -45 -33 -36 -23 -37 38 -4 60 32 59 31
44 50 -16 19 -26 19 -42 -1z"/>
  <path d="M480 484 c0 -12 42 -64 51 -64 18 0 9 39 -13 54 -23 17 -38 20 -38
10z"/>
  <path d="M585 316 c-37 -7 -55 -14 -47 -19 6 -5 12 -16 12 -25 0 -35 15 -43
66 -37 43 6 51 11 67 42 10 20 17 37 15 38 -13 10 -63 10 -113 1z m61 -32 c-3
-9 -6 -20 -6 -25 0 -5 -16 -9 -35 -9 -31 0 -35 3 -35 25 0 23 4 25 41 25 33 0
40 -3 35 -16z"/>
</g>
<g id="part-1" class="char-part">
  <path d="M270 582 c0 -4 5 -13 11 -19 5 -5 9 -32 7 -59 l-3 -48 -50 -11 c-37
-8 -45 -12 -32 -18 10 -4 34 -7 53 -7 31 0 34 -3 34 -29 0 -28 -1 -29 -82 -41
-99 -15 -125 -25 -87 -35 15 -4 73 3 130 14 57 11 125 23 152 26 64 8 51 29
-14 23 l-49 -5 0 33 c0 30 3 33 40 39 52 9 51 25 -1 25 l-42 0 6 54 c5 49 3
55 -16 60 -31 8 -57 7 -57 -2z"/>
</g>
<g id="part-2" class="char-part">
  <path d="M196 255 c-4 -19 -27 -64 -51 -100 -25 -36 -40 -65 -34 -65 6 0 37
27 68 60 l58 61 171 -85 c93 -47 186 -88 207 -92 38 -7 225 14 225 25 0 4 -62
15 -137 25 -140 19 -192 33 -365 101 -89 36 -96 40 -86 59 8 15 7 22 -8 33
-29 21 -41 15 -48 -22z"/>
</g>
<g id="part-3" class="char-part">
  <path d="M588 478 c2 -51 6 -95 8 -97 2 -2 10 1 17 8 9 6 17 42 21 88 7 79 2
92 -35 93 -13 0 -15 -14 -11 -92z"/>
  <path d="M719 498 c-6 -13 -21 -33 -33 -46 l-21 -23 28 10 c80 31 109 61 71
75 -26 10 -33 7 -45 -16z"/>
  <path d="M480 481 c0 -13 40 -61 51 -61 17 0 9 49 -10 60 -24 12 -41 13 -41 1z"/>
</g>
<g id="part-4" class="char-part">
  <path d="M650 388 c-41 -5 -100 -10 -130 -10 l-55 -1 2 -90 c1 -78 12 -121 27
-106 3 2 6 41 7 86 1 65 5 83 18 88 9 4 62 9 119 12 l102 6 0 -84 c0 -113 -6
-120 -75 -94 -14 6 -10 -2 14 -28 19 -21 43 -37 52 -37 20 0 49 57 49 97 0 16
5 55 11 87 9 52 8 59 -8 72 -20 15 -27 15 -133 2z"/>
</g>
<g id="part-5" class="char-part">
  <path d="M651 299 c20 -20 34 -26 24 -9 -3 6 -1 10 4 10 26 0 8 17 -18 18 -29
1 -29 0 -10 -19z"/>
  <path d="M547 290 c8 -30 18 -32 18 -4 0 13 -5 24 -12 24 -6 0 -9 -9 -6 -20z"/>
  <path d="M647 263 c-4 -3 -7 -11 -7 -17 0 -6 5 -5 12 2 6 6 9 14 7 17 -3 3 -9
2 -12 -2z"/>
  <path d="M560 239 c0 -5 5 -7 10 -4 6 3 10 8 10 11 0 2 -4 4 -10 4 -5 0 -10
-5 -10 -11z"/>
</g>
</g>
</svg>