<?xml version="1.0" standalone="no"?>
<!DOCTYPE svg PUBLIC "-//W3C//DTD SVG 20010904//EN"
 "http://www.w3.org/TR/2001/REC-SVG-20010904/DTD/svg10.dtd">
<svg version="1.0" xmlns="http://www.w3.org/2000/svg"
 width="96.000000pt" height="68.000000pt" viewBox="0 0 96.000000 68.000000"
 preserveAspectRatio="xMidYMid meet">
<metadata>
Created by potrace 1.16, written by Peter Selinger 2001-2019
Combined from part_0.svg through part_5.svg with named groups
</metadata>
<g transform="translate(0.000000,68.000000) scale(0.100000,-0.100000)" fill="#000000" stroke="none">
<g id="part-0" class="char-part">
  <path d="M269 593 c-6 -16 -27 -45 -47 -65 -40 -42 -27 -50 26 -18 29 18 92
28 92 15 0 -3 -11 -17 -23 -31 -20 -21 -33 -25 -78 -25 l-54 0 3 -57 c2 -33
-3 -74 -11 -97 -8 -22 -18 -49 -22 -60 -5 -14 2 -10 24 13 17 18 31 38 31 46
0 9 21 15 68 19 111 11 122 10 122 -14 0 -18 -5 -21 -30 -17 -16 3 -30 2 -30
-1 0 -10 44 -47 63 -54 9 -3 17 -13 17 -22 0 -12 -15 -15 -81 -15 -71 0 -79
-2 -66 -15 9 -8 18 -28 22 -45 4 -16 10 -31 13 -34 4 -2 33 0 65 3 l57 7 0
-32 0 -31 -67 -6 c-38 -4 -91 -7 -120 -7 -40 0 -51 -3 -47 -14 8 -22 46 -33
89 -25 384 66 336 65 397 6 22 -21 34 -22 42 -1 9 24 -11 52 -54 74 -47 24
-72 26 -64 5 4 -10 0 -15 -14 -15 -10 0 -40 -3 -66 -6 l-46 -7 0 32 0 31 71 0
c57 0 70 3 66 14 -3 8 3 22 14 32 44 40 7 61 -87 50 -45 -5 -54 -4 -54 9 0 9
-12 18 -30 21 -24 5 -29 11 -26 28 3 11 7 58 11 103 5 78 4 82 -17 89 -13 4
-35 7 -50 6 -16 0 -28 1 -28 4 0 2 18 16 40 30 59 39 54 58 -14 52 -42 -4 -53
-2 -49 9 6 16 -14 43 -33 43 -8 0 -19 -12 -25 -27z m66 -123 c-5 -8 31 -15 58
-11 4 0 7 -9 7 -21 0 -19 -6 -23 -33 -24 -25 0 -36 5 -44 22 -7 16 -7 26 0 33
14 14 20 14 12 1z m-47 -45 c2 -17 -3 -21 -25 -20 -22 0 -29 5 -31 23 -3 20 0
23 25 20 19 -2 29 -9 31 -23z m120 -47 c3 -15 -4 -18 -42 -18 -32 0 -46 4 -46
13 0 22 12 28 50 25 24 -2 36 -9 38 -20z m-115 -8 c4 -17 0 -20 -34 -20 -26 0
-39 4 -39 13 0 20 10 27 41 27 18 0 28 -6 32 -20z m287 -184 c0 -27 -16 -36
-66 -36 -29 0 -34 3 -34 24 0 19 6 26 28 29 65 10 72 8 72 -17z m-150 -16 c0
-29 -1 -30 -49 -30 -35 0 -51 4 -55 16 -11 28 -6 33 37 37 23 2 48 4 55 5 7 1
12 -10 12 -28z"/>
  <path d="M615 573 c-16 -1 -55 -6 -85 -9 -43 -5 -50 -8 -36 -16 10 -5 29 -8
42 -5 47 9 15 -47 -51 -91 -18 -12 -17 -12 9 -7 37 8 105 60 116 90 7 17 14
20 44 17 26 -3 36 -9 36 -22 0 -26 -25 -43 -51 -35 l-22 7 22 -31 c12 -17 26
-31 30 -31 33 0 81 101 60 126 -11 13 -46 15 -114 7z"/>
  <path d="M598 423 c-4 -34 -38 -46 -38 -14 0 35 -33 24 -57 -19 -30 -50 -29
-56 3 -31 36 28 104 29 104 2 0 -27 -6 -29 -78 -33 -36 -1 -61 -7 -59 -13 3
-6 30 -9 65 -7 60 3 60 3 67 -27 9 -42 23 -48 31 -14 3 15 7 34 10 41 2 8 27
12 79 12 41 0 75 4 75 9 0 16 -37 22 -95 16 -55 -7 -57 -6 -53 16 2 19 10 25
38 27 55 5 61 22 7 22 -34 0 -47 4 -47 14 0 13 -20 26 -40 26 -5 0 -10 -12
-12 -27z"/>
</g>
<g id="part-1" class="char-part">
  <path d="M272 590 c-6 -15 -25 -44 -43 -66 l-34 -38 47 27 c42 25 108 37 108
20 0 -4 -10 -17 -22 -30 -12 -13 -19 -25 -16 -28 6 -7 117 66 118 77 0 14 -48
20 -84 10 -36 -11 -45 -5 -25 15 14 14 5 29 -20 36 -15 4 -22 -2 -29 -23z"/>
</g>
<g id="part-2" class="char-part">
  <path d="M600 425 c0 -19 -7 -26 -32 -34 l-33 -9 38 -1 c29 -1 37 -5 37 -20 0
-21 -19 -31 -60 -31 -15 0 -42 -3 -61 -7 -51 -10 -6 -23 58 -16 l52 6 6 -37
c9 -43 22 -47 31 -8 3 15 7 33 10 40 2 8 29 12 86 12 77 1 82 2 63 16 -15 12
-34 14 -82 10 -58 -6 -63 -5 -63 13 0 21 18 31 61 31 16 0 29 5 29 10 0 6 -20
10 -45 10 -32 0 -45 4 -45 14 0 13 -20 26 -41 26 -5 0 -9 -11 -9 -25z"/>
</g>
<g id="part-3" class="char-part">
  <path d="M422 238 c3 -22 0 -23 -81 -26 -78 -3 -82 -4 -68 -20 8 -9 19 -30 24
-47 10 -30 11 -30 71 -27 61 4 62 3 62 -22 0 -21 5 -26 24 -26 19 0 25 6 28
28 3 26 5 27 71 30 43 2 65 7 61 13 -3 6 6 23 21 39 l27 28 -23 12 c-15 8 -44
11 -86 7 -49 -5 -63 -3 -63 7 0 15 -21 26 -51 26 -15 0 -19 -6 -17 -22z m156
-52 c5 -24 -14 -36 -60 -36 -32 0 -38 3 -38 20 0 39 91 54 98 16z m-148 -16
c0 -29 -1 -30 -49 -30 -35 0 -51 4 -55 16 -13 33 -13 33 87 42 13 2 17 -5 17
-28z"/>
</g>
<g id="part-4" class="char-part">
  <path d="M605 84 c-23 -7 -302 -34 -356 -34 -33 0 -59 -4 -59 -10 0 -13 56
-41 72 -35 7 3 89 18 181 34 93 16 171 32 174 35 8 8 1 14 -12 10z"/>
</g>
<g id="part-5" class="char-part">
  <path d="M610 105 c0 -12 83 -95 95 -95 23 0 24 27 2 48 -35 32 -65 44 -70 29
-3 -7 -6 -5 -6 6 -1 14 -21 26 -21 12z m60 -35 c8 -5 11 -10 5 -10 -5 0 -17 5
-25 10 -8 5 -10 10 -5 10 6 0 17 -5 25 -10z"/>
</g>
</g>
</svg>