<?xml version="1.0" standalone="no"?>
<!DOCTYPE svg PUBLIC "-//W3C//DTD SVG 20010904//EN"
 "http://www.w3.org/TR/2001/REC-SVG-20010904/DTD/svg10.dtd">
<svg version="1.0" xmlns="http://www.w3.org/2000/svg"
 width="96.000000pt" height="68.000000pt" viewBox="0 0 96.000000 68.000000"
 preserveAspectRatio="xMidYMid meet">
<metadata>
Created by potrace 1.16, written by Peter Selinger 2001-2019
Combined from part_0.svg through part_5.svg with named groups
</metadata>
<g transform="translate(0.000000,68.000000) scale(0.100000,-0.100000)" fill="#000000" stroke="none">
<g id="part-0" class="char-part">
  <path d="M545 585 c-44 -8 -112 -14 -152 -14 l-72 -1 6 -54 c11 -108 -42 -239
-134 -334 -50 -50 -51 -53 -25 -50 26 3 34 9 100 71 37 35 73 99 93 165 7 24
20 47 28 51 9 5 63 11 121 15 135 9 167 15 174 33 3 7 1 11 -4 8 -5 -3 2 14
15 37 32 56 31 64 -6 77 -37 13 -39 13 -144 -4z m85 -54 c0 -16 -6 -33 -12
-39 -14 -11 -216 -38 -224 -29 -3 3 -2 21 1 40 l7 35 76 7 c43 4 82 8 87 10 6
2 22 4 38 4 23 1 27 -3 27 -28z"/>
  <path d="M535 398 c3 -13 9 -44 12 -69 l5 -47 -51 -7 c-29 -4 -55 -4 -59 -1
-3 4 -1 20 5 36 12 32 2 50 -29 50 -13 0 -18 -8 -18 -30 0 -16 -5 -41 -12 -55
-9 -21 -9 -29 4 -41 13 -14 21 -13 76 5 34 12 64 21 67 21 3 0 5 -31 5 -70 0
-67 -1 -70 -24 -70 -13 0 -44 -3 -70 -6 l-46 -7 11 32 c10 28 9 34 -7 46 -30
22 -45 19 -38 -9 3 -14 -1 -37 -11 -56 -13 -24 -14 -35 -4 -46 13 -16 42 -18
68 -5 10 6 69 17 132 25 63 8 128 18 145 22 30 6 31 4 27 -20 -4 -18 0 -28 11
-32 22 -9 24 -7 45 69 l19 65 -25 11 c-43 20 -52 15 -46 -28 5 -36 4 -38 -27
-45 -18 -3 -50 -6 -72 -6 l-39 0 3 68 3 67 48 5 c47 6 70 0 67 -16 -1 -5 3
-10 9 -12 14 -5 38 51 47 106 5 35 4 40 -17 45 -44 12 -46 9 -41 -42 4 -44 2
-49 -19 -54 -13 -4 -39 -7 -58 -7 l-34 0 7 54 c6 54 6 54 -26 65 -45 16 -51
14 -43 -11z"/>
</g>
<g id="part-1" class="char-part">
  <path d="M500 574 c-47 -8 -104 -13 -127 -10 -50 4 -55 1 -42 -31 28 -73 -42
-259 -132 -350 -54 -55 -55 -66 -4 -34 76 47 128 119 165 226 l17 50 150 15
c105 11 149 19 146 27 -2 6 8 31 23 54 25 40 26 43 8 56 -22 16 -93 15 -204
-3z m136 -46 c-3 -18 -13 -38 -21 -44 -9 -6 -57 -15 -108 -20 -132 -12 -122
-14 -119 26 2 19 7 39 12 44 10 10 103 23 184 25 l59 1 -7 -32z"/>
</g>
<g id="part-2" class="char-part">
  <path d="M534 398 c4 -13 9 -44 12 -69 l6 -46 -52 -7 c-29 -4 -55 -5 -57 -2
-3 3 -1 18 5 35 11 31 5 41 -30 54 -15 5 -18 0 -18 -28 0 -19 -5 -46 -12 -60
-9 -21 -9 -29 3 -40 12 -13 21 -13 64 1 28 8 94 20 147 27 91 12 97 12 101 -5
8 -30 36 -9 47 36 6 22 15 51 20 63 7 18 5 25 -10 33 -10 5 -28 10 -39 10 -18
0 -20 -5 -14 -49 5 -44 4 -49 -18 -54 -13 -4 -39 -7 -58 -7 l-34 0 7 55 c6 54
6 55 -21 61 -16 3 -34 8 -42 10 -10 3 -12 -2 -7 -18z"/>
</g>
<g id="part-3" class="char-part">
  <path d="M547 253 c-4 -3 -7 -35 -7 -70 0 -62 0 -63 -27 -63 -16 0 -45 -3 -66
-7 l-38 -6 6 36 c6 29 3 37 -13 46 -34 18 -45 14 -38 -14 4 -15 0 -37 -9 -55
-8 -16 -15 -34 -15 -39 0 -17 47 -24 83 -12 39 13 289 51 299 45 3 -2 4 -13 1
-24 -3 -13 1 -22 11 -26 22 -9 24 -7 45 69 l19 65 -25 11 c-43 20 -52 15 -46
-27 l5 -39 -47 -6 c-97 -14 -95 -15 -95 58 0 56 -2 65 -18 65 -10 0 -22 -3
-25 -7z"/>
</g>
</g>
</svg>