<?xml version="1.0" standalone="no"?>
<!DOCTYPE svg PUBLIC "-//W3C//DTD SVG 20010904//EN"
 "http://www.w3.org/TR/2001/REC-SVG-20010904/DTD/svg10.dtd">
<svg version="1.0" xmlns="http://www.w3.org/2000/svg"
 width="96.000000pt" height="68.000000pt" viewBox="0 0 96.000000 68.000000"
 preserveAspectRatio="xMidYMid meet">
<metadata>
Created by potrace 1.16, written by Peter Selinger 2001-2019
Combined from part_0.svg through part_5.svg with named groups
</metadata>
<g transform="translate(0.000000,68.000000) scale(0.100000,-0.100000)" fill="#000000" stroke="none">
<g id="part-0" class="char-part">
  <path d="M291 524 c-15 -58 -56 -120 -140 -206 -42 -45 -59 -68 -47 -68 17 0
66 27 77 43 3 4 12 1 19 -8 8 -10 9 -15 1 -15 -6 0 -11 -4 -11 -10 0 -5 22
-10 49 -10 54 0 61 -8 61 -65 0 -45 -19 -57 -100 -63 -39 -2 -70 -8 -70 -13 0
-4 14 -17 30 -29 30 -21 32 -21 73 -5 74 31 189 66 195 61 2 -3 -6 -15 -19
-26 -23 -20 -23 -20 21 1 25 12 57 30 72 40 39 28 45 24 53 -30 7 -51 27 -82
40 -61 3 5 30 10 59 10 29 0 74 3 98 6 39 6 46 10 46 30 0 13 9 41 20 62 l20
39 -24 13 c-19 11 -38 11 -96 1 -125 -20 -138 -22 -138 -18 0 2 27 33 60 68
33 35 73 82 88 104 15 22 37 48 50 58 29 24 28 32 -6 46 -19 8 -36 9 -53 2
-23 -8 -78 -15 -103 -12 -5 1 -1 10 9 21 17 19 17 21 0 40 -25 28 -34 22 -55
-33 -17 -45 -66 -117 -99 -146 -14 -12 -13 -13 10 -7 20 4 32 -2 59 -29 20
-20 40 -33 49 -30 21 8 -57 -76 -101 -108 -21 -16 -38 -23 -38 -17 0 13 -45
10 -82 -5 -16 -6 -18 0 -18 53 l0 59 40 7 c65 10 45 33 -22 27 -13 -2 -18 5
-18 22 0 19 7 26 32 33 41 12 49 34 11 34 -15 0 -48 -5 -72 -11 -24 -5 -45 -8
-47 -6 -3 2 12 29 33 60 l37 56 29 -25 c33 -28 55 -31 64 -9 7 20 -21 51 -53
59 -13 4 -24 10 -24 15 0 14 -30 41 -45 41 -7 0 -18 -21 -24 -46z m419 -85 c0
-11 -44 -76 -80 -118 l-21 -24 -15 22 c-8 12 -19 19 -22 17 -4 -2 -18 3 -30
12 l-22 17 40 43 c38 39 43 42 95 42 32 0 55 -4 55 -11z m-422 -123 c5 -23
-14 -36 -50 -36 -35 0 -44 17 -22 41 22 25 67 22 72 -5z m469 -157 c-3 -22 -8
-43 -10 -46 -3 -2 -36 -9 -74 -13 -77 -10 -83 -6 -83 52 0 36 1 37 43 41 23 2
62 4 86 5 l44 2 -6 -41z"/>
  <path d="M382 213 c-13 -43 -11 -48 16 -34 39 21 54 42 41 57 -21 26 -45 16
-57 -23z"/>
  <path d="M186 208 c16 -30 49 -58 66 -58 26 0 23 35 -4 54 -27 20 -72 22 -62
4z"/>
</g>
<g id="part-1" class="char-part">
  <path d="M300 542 c0 -48 -60 -142 -153 -239 -53 -56 -35 -55 42 2 59 44 84
49 103 21 21 -30 8 -45 -47 -51 -66 -9 -63 -28 4 -23 l46 3 3 -61 3 -61 -32
-7 c-17 -3 -54 -6 -81 -6 -54 0 -61 -14 -17 -38 21 -13 37 -10 147 28 67 23
122 47 122 52 0 6 -6 8 -14 5 -8 -3 -31 -9 -50 -13 l-36 -6 0 60 0 61 45 7
c52 7 51 24 -1 24 -32 0 -35 2 -32 27 2 21 10 29 37 36 23 6 31 11 23 19 -7 7
-31 5 -78 -5 -38 -9 -70 -14 -72 -12 -5 4 77 125 84 125 4 0 19 -11 36 -25 34
-29 44 -31 52 -10 6 17 -17 43 -48 51 -12 3 -26 15 -31 27 -13 29 -55 36 -55
9z"/>
  <path d="M391 219 c-6 -18 -11 -34 -11 -35 0 -9 17 -2 40 15 20 16 22 21 11
35 -19 23 -28 20 -40 -15z"/>
  <path d="M190 211 c0 -12 45 -51 58 -51 16 0 15 25 0 37 -17 13 -58 23 -58 14z"/>
</g>
<g id="part-2" class="char-part">
  <path d="M584 533 c-14 -42 -41 -91 -74 -133 -55 -68 -57 -74 -24 -57 16 9 49
36 74 61 41 43 47 46 97 46 29 0 53 -4 53 -10 0 -15 -72 -113 -126 -172 -27
-30 -82 -80 -121 -112 -40 -32 -73 -60 -73 -62 0 -3 24 8 53 22 96 49 191 134
278 249 12 17 36 45 53 63 21 22 27 35 19 43 -14 14 -67 15 -125 2 -54 -12
-65 -7 -42 18 12 14 13 22 4 38 -13 26 -39 27 -46 4z"/>
</g>
<g id="part-3" class="char-part">
  <path d="M510 352 c0 -13 64 -72 78 -72 7 0 12 9 12 20 0 13 -14 27 -40 40
-43 22 -50 24 -50 12z"/>
</g>
<g id="part-4" class="char-part">
  <path d="M660 211 c-122 -23 -124 -24 -104 -91 17 -59 33 -84 41 -62 3 7 23
12 51 12 88 0 151 11 145 26 -3 7 7 35 21 60 25 44 25 47 9 60 -22 17 -55 16
-163 -5z m93 -7 c12 -4 13 -13 5 -47 -5 -23 -14 -44 -20 -48 -18 -11 -130 -21
-139 -12 -4 4 -9 26 -11 48 l-3 40 75 11 c41 6 76 12 77 13 1 0 8 -2 16 -5z"/>
</g>
</g>
</svg>