<?xml version="1.0" standalone="no"?>
<!DOCTYPE svg PUBLIC "-//W3C//DTD SVG 20010904//EN"
 "http://www.w3.org/TR/2001/REC-SVG-20010904/DTD/svg10.dtd">
<svg version="1.0" xmlns="http://www.w3.org/2000/svg"
 width="96.000000pt" height="68.000000pt" viewBox="0 0 96.000000 68.000000"
 preserveAspectRatio="xMidYMid meet">
<metadata>
Created by potrace 1.16, written by Peter Selinger 2001-2019
Combined from part_0.svg through part_5.svg with named groups
</metadata>
<g transform="translate(0.000000,68.000000) scale(0.100000,-0.100000)" fill="#000000" stroke="none">
<g id="part-0" class="char-part">
  <path d="M190 545 c0 -14 63 -65 87 -71 45 -12 59 25 21 50 -26 17 -108 33
-108 21z"/>
  <path d="M535 520 c-44 -10 -97 -16 -119 -13 -38 6 -38 6 -32 -23 3 -16 8 -76
11 -134 3 -58 8 -129 11 -157 l5 -53 -38 -1 c-21 0 -56 -4 -78 -8 l-40 -7 36
-11 c22 -7 54 -8 80 -3 24 5 134 11 244 15 110 4 204 10 209 15 18 18 -38 33
-104 27 l-67 -6 4 72 c6 105 20 229 28 254 6 17 1 25 -24 37 -16 9 -34 15 -38
15 -4 -1 -44 -10 -88 -19z m75 -75 c0 -51 -2 -55 -24 -55 -12 0 -51 -3 -85 -6
l-61 -7 0 51 c0 45 3 52 23 57 39 8 71 12 110 14 l37 1 0 -55z m0 -113 l0 -48
-80 -10 -80 -9 0 47 0 48 48 1 c37 1 93 10 110 18 1 0 2 -21 2 -47z m-7 -122
c-1 -23 -5 -45 -8 -48 -3 -4 -37 -8 -76 -10 l-69 -4 0 50 0 51 68 3 c90 5 87
7 85 -42z"/>
  <path d="M110 395 c0 -14 36 -48 69 -65 32 -16 59 7 42 37 -12 24 -111 49
-111 28z"/>
  <path d="M255 272 c-27 -33 -69 -72 -92 -88 -46 -29 -50 -38 -31 -79 16 -35
44 -32 64 8 9 17 39 67 66 109 65 102 61 132 -7 50z"/>
</g>
<g id="part-1" class="char-part">
  <path d="M200 542 c0 -16 72 -72 92 -72 31 0 23 46 -9 58 -48 19 -83 25 -83
14z"/>
  <path d="M139 366 c39 -40 81 -49 81 -17 0 26 -19 39 -70 47 l-45 7 34 -37z"/>
  <path d="M240 252 c-36 -37 -78 -77 -94 -88 -29 -19 -29 -20 -12 -52 20 -38
31 -40 49 -10 8 13 40 65 72 116 31 51 55 95 53 97 -2 2 -33 -26 -68 -63z"/>
</g>
<g id="part-2" class="char-part">
  <path d="M555 523 c-27 -8 -80 -14 -117 -15 -62 0 -83 -8 -59 -22 4 -3 11 -61
15 -128 11 -193 15 -216 37 -211 15 4 19 15 19 54 l0 49 64 0 c35 0 72 3 82 7
15 6 16 1 10 -45 -6 -50 -6 -52 18 -52 23 0 25 4 30 63 13 139 25 243 31 264
6 17 1 25 -24 37 -35 18 -39 18 -106 -1z m55 -78 l0 -55 -32 0 c-18 0 -57 -3
-85 -6 l-53 -7 0 51 0 51 38 6 c20 4 44 8 52 10 8 1 30 3 48 4 l32 1 0 -55z
m0 -119 l0 -43 -61 -7 c-103 -10 -99 -12 -99 39 l0 44 58 4 c31 2 67 4 80 5
20 2 22 -2 22 -42z"/>
</g>
<g id="part-3" class="char-part">
  <path d="M689 166 c-2 -2 -78 -9 -169 -15 -91 -6 -187 -14 -215 -18 l-50 -6
33 -14 c25 -10 47 -11 95 -4 34 6 149 13 255 17 105 4 192 11 192 15 0 16 -39
29 -88 29 -27 0 -51 -2 -53 -4z"/>
</g>
</g>
</svg>