<?xml version="1.0" standalone="no"?>
<!DOCTYPE svg PUBLIC "-//W3C//DTD SVG 20010904//EN"
 "http://www.w3.org/TR/2001/REC-SVG-20010904/DTD/svg10.dtd">
<svg version="1.0" xmlns="http://www.w3.org/2000/svg"
 width="96.000000pt" height="68.000000pt" viewBox="0 0 96.000000 68.000000"
 preserveAspectRatio="xMidYMid meet">
<metadata>
Created by potrace 1.16, written by Peter Selinger 2001-2019
Combined from part_0.svg through part_5.svg with named groups
</metadata>
<g transform="translate(0.000000,68.000000) scale(0.100000,-0.100000)" fill="#000000" stroke="none">
<g id="part-0" class="char-part">
  <path d="M320 585 c0 -40 -3 -45 -22 -45 -34 0 -68 -11 -68 -21 0 -5 18 -9 40
-9 29 0 40 -4 40 -15 0 -19 -10 -23 -84 -33 -33 -4 -61 -12 -63 -19 -6 -18 42
-27 87 -15 38 9 39 9 29 -12 -6 -11 -27 -38 -47 -58 -35 -37 -35 -38 -12 -38
25 0 104 76 115 110 4 14 20 21 53 25 26 3 53 7 61 8 8 1 14 7 12 12 -1 6 -24
9 -51 9 -35 -1 -50 2 -50 11 0 15 22 25 55 25 24 0 42 16 31 27 -3 4 -22 6
-41 5 -33 -1 -34 0 -29 27 5 23 2 32 -14 40 -35 19 -42 13 -42 -34z"/>
  <path d="M589 624 c-1 -5 0 -21 1 -36 1 -25 -2 -28 -29 -28 -16 0 -33 -4 -36
-10 -4 -6 8 -10 30 -10 32 0 36 -3 33 -22 -2 -19 -10 -23 -48 -26 -66 -5 -75
-22 -12 -22 29 0 52 -4 52 -9 0 -5 -14 -22 -31 -39 -25 -24 -36 -29 -50 -22
-35 19 -51 12 -44 -19 6 -28 5 -29 -49 -36 -72 -8 -72 -25 -1 -25 41 0 55 -4
55 -14 0 -19 -74 -30 -132 -21 -42 7 -43 7 -25 -12 9 -11 23 -40 30 -64 l13
-44 58 3 c52 4 57 2 54 -15 -4 -21 -61 -30 -198 -32 -67 -1 -81 -4 -72 -13 15
-15 75 -16 190 -4 l82 8 0 -56 c0 -52 10 -70 25 -45 4 5 10 31 14 57 l6 47
155 5 c129 4 151 7 134 17 -28 16 -55 17 -186 8 -106 -8 -108 -8 -108 14 0 19
6 21 49 21 28 0 52 -4 56 -10 12 -19 37 4 65 61 l30 58 -22 12 c-14 8 -47 10
-94 5 -107 -9 -108 22 -1 39 57 9 35 29 -24 21 -41 -6 -48 -4 -43 9 3 8 14 15
24 15 15 0 38 22 91 88 6 7 36 12 79 12 38 0 71 4 75 9 9 15 -55 23 -108 13
-46 -9 -48 -9 -45 12 2 17 11 22 46 24 23 2 42 7 42 12 0 13 -37 22 -60 15
-16 -5 -20 -2 -20 19 0 14 -4 26 -9 26 -5 0 -16 3 -25 6 -9 3 -16 2 -17 -2z
m31 -354 c10 -19 8 -20 -54 -20 -53 0 -64 3 -60 14 3 8 22 17 42 19 21 2 42 4
49 5 7 1 17 -7 23 -18z m-160 -14 c0 -12 -47 -26 -92 -26 -26 0 -22 28 5 33
50 10 87 7 87 -7z m154 -41 c-5 -11 -21 -15 -60 -15 -50 0 -64 7 -47 23 3 4
30 7 59 7 43 0 52 -3 48 -15z m-154 -11 c0 -12 -10 -14 -47 -12 -66 4 -70 28
-4 28 39 0 51 -4 51 -16z"/>
  <path d="M660 444 c0 -6 55 -54 77 -67 24 -14 45 0 34 22 -14 24 -111 65 -111
45z"/>
  <path d="M370 395 c26 -28 50 -33 50 -10 0 9 -12 20 -26 25 -42 16 -49 12 -24
-15z"/>
</g>
<g id="part-1" class="char-part">
  <path d="M325 591 c8 -36 -15 -61 -56 -61 -16 0 -29 -4 -29 -10 0 -5 18 -10
39 -10 34 0 38 -3 34 -20 -6 -22 -16 -26 -96 -35 -78 -9 -65 -29 14 -22 33 3
59 3 59 0 0 -15 -44 -74 -68 -92 -20 -15 -23 -20 -10 -21 24 0 72 43 105 95
26 42 31 45 70 45 23 0 49 3 58 6 30 12 -6 23 -53 17 -39 -5 -44 -4 -40 13 2
10 12 20 23 22 47 7 65 13 65 22 0 6 -16 10 -36 10 -35 0 -36 1 -31 29 6 30
-5 41 -40 41 -11 0 -13 -7 -8 -29z"/>
</g>
<g id="part-2" class="char-part">
  <path d="M695 412 c50 -43 85 -54 85 -28 0 21 -54 56 -97 63 l-38 6 50 -41z"/>
</g>
<g id="part-3" class="char-part">
  <path d="M455 381 c6 -29 6 -29 -54 -36 -74 -8 -71 -25 5 -25 41 0 54 -4 54
-15 0 -23 41 -19 47 5 4 14 20 22 59 30 68 14 62 34 -7 25 -41 -6 -48 -5 -43
8 6 16 -23 37 -51 37 -13 0 -15 -6 -10 -29z"/>
</g>
<g id="part-4" class="char-part">
  <path d="M530 299 c-19 -5 -81 -10 -137 -12 -85 -2 -99 -4 -90 -16 7 -7 19
-34 28 -60 9 -25 20 -46 25 -46 5 1 60 4 122 9 83 6 116 5 127 -4 20 -17 31
-6 65 60 29 57 29 60 11 70 -23 12 -102 12 -151 -1z m93 -29 c5 -18 0 -20 -54
-20 -45 0 -59 3 -59 14 0 10 13 16 38 19 20 2 44 4 53 5 9 1 19 -7 22 -18z
m-163 -14 c0 -16 -30 -26 -77 -26 -25 0 -33 4 -33 18 0 14 10 18 55 20 42 2
55 -1 55 -12z m158 -33 c-4 -24 -118 -33 -118 -9 0 11 14 16 53 19 28 2 56 4
60 5 5 1 7 -6 5 -15z m-158 -19 c0 -12 -10 -14 -47 -12 -66 4 -70 28 -4 28 39
0 51 -4 51 -16z"/>
</g>
<g id="part-5" class="char-part">
  <path d="M480 165 c-1 -5 -2 -13 -1 -17 1 -9 -48 -23 -66 -20 -7 2 -13 -1 -13
-7 0 -5 14 -7 30 -5 17 3 30 1 30 -5 0 -6 5 -11 11 -11 5 0 8 4 5 8 -5 9 -11
9 178 12 102 2 143 6 131 12 -21 12 -64 13 -173 4 -92 -8 -119 -3 -125 22 -3
9 -6 13 -7 7z"/>
  <path d="M193 114 c9 -10 132 -14 162 -5 21 5 1 8 -69 9 -54 0 -96 -2 -93 -4z"/>
  <path d="M238 93 c7 -3 16 -2 19 1 4 3 -2 6 -13 5 -11 0 -14 -3 -6 -6z"/>
  <path d="M476 88 c-13 -42 -13 -58 -1 -58 9 0 12 10 10 30 -3 18 0 28 5 25 6
-4 10 -1 10 4 0 15 -20 14 -24 -1z"/>
</g>
</g>
</svg>