<?xml version="1.0" standalone="no"?>
<!DOCTYPE svg PUBLIC "-//W3C//DTD SVG 20010904//EN"
 "http://www.w3.org/TR/2001/REC-SVG-20010904/DTD/svg10.dtd">
<svg version="1.0" xmlns="http://www.w3.org/2000/svg"
 width="96.000000pt" height="68.000000pt" viewBox="0 0 96.000000 68.000000"
 preserveAspectRatio="xMidYMid meet">
<metadata>
Created by potrace 1.16, written by Peter Selinger 2001-2019
Combined from part_0.svg through part_5.svg with named groups
</metadata>
<g transform="translate(0.000000,68.000000) scale(0.100000,-0.100000)" fill="#000000" stroke="none">
<g id="part-0" class="char-part">
  <path d="M418 556 c-83 -14 -93 -23 -34 -31 49 -8 55 -19 37 -68 -8 -21 -18
-25 -80 -31 -40 -4 -71 -12 -71 -18 0 -7 21 -9 65 -5 36 4 65 2 65 -3 0 -12
-112 -127 -130 -132 -8 -3 -12 -8 -8 -12 19 -21 144 80 177 143 8 14 21 21 42
21 33 0 55 -15 134 -89 81 -75 99 -84 161 -76 30 3 54 10 54 13 0 4 -30 18
-67 30 -38 13 -104 47 -147 75 l-80 52 78 6 c85 7 97 12 68 28 -14 8 -47 7
-116 -3 -96 -13 -96 -13 -89 8 4 12 7 33 7 49 -1 26 1 27 48 27 35 0 48 4 46
13 -6 16 -76 18 -160 3z"/>
  <path d="M160 549 c0 -22 74 -73 95 -65 16 6 20 41 6 51 -18 10 -101 23 -101
14z"/>
  <path d="M96 421 c-3 -5 1 -14 9 -21 8 -7 12 -17 8 -24 -3 -6 -3 -8 2 -4 4 4
17 1 29 -7 39 -28 74 -14 61 24 -3 12 -22 23 -50 30 -53 13 -52 13 -59 2z"/>
  <path d="M457 257 c3 -52 3 -107 -1 -122 -6 -23 -11 -26 -31 -21 -33 8 -31 -4
5 -39 25 -24 34 -27 48 -19 14 9 18 32 22 134 3 67 3 125 0 130 -3 4 -15 12
-27 19 l-22 11 6 -93z"/>
  <path d="M202 278 c-11 -18 -41 -53 -65 -77 -41 -40 -44 -46 -35 -72 13 -37
33 -54 44 -37 29 45 92 204 85 211 -5 5 -17 -6 -29 -25z"/>
  <path d="M640 231 c0 -13 64 -104 77 -108 16 -6 23 37 10 59 -13 22 -87 64
-87 49z"/>
  <path d="M319 208 c-6 -13 -21 -33 -32 -45 -27 -30 -16 -39 20 -17 47 30 72
55 66 70 -8 22 -41 16 -54 -8z"/>
  <path d="M546 212 c-8 -14 35 -92 50 -92 24 0 17 54 -11 78 -28 24 -32 26 -39
14z"/>
</g>
<g id="part-1" class="char-part">
  <path d="M190 520 c39 -34 70 -39 70 -12 0 22 -39 42 -78 42 l-27 -1 35 -29z"/>
  <path d="M133 385 c40 -38 60 -41 65 -11 5 26 -7 34 -58 41 l-45 7 38 -37z"/>
  <path d="M191 255 c-18 -25 -46 -55 -62 -67 -33 -25 -36 -47 -11 -78 14 -18
20 -19 28 -9 17 23 87 189 82 194 -3 3 -19 -15 -37 -40z"/>
</g>
<g id="part-2" class="char-part">
  <path d="M440 559 c-52 -10 -97 -18 -100 -18 -3 -1 3 -6 14 -12 13 -8 45 -8
115 1 113 14 124 17 117 29 -10 16 -51 16 -146 0z"/>
</g>
<g id="part-3" class="char-part">
  <path d="M437 523 c-2 -5 -7 -25 -11 -45 -7 -41 -12 -43 -98 -54 -77 -9 -65
-28 13 -21 43 4 57 2 52 -6 -22 -39 -63 -84 -101 -113 -50 -38 -42 -45 16 -15
46 24 85 61 119 112 41 62 70 56 173 -37 46 -41 92 -80 103 -86 21 -11 127 -2
127 11 0 4 -28 16 -61 26 -34 11 -100 44 -147 74 l-86 56 77 5 c85 7 99 13 67
30 -16 8 -39 9 -90 1 -38 -6 -80 -11 -94 -11 -23 0 -25 2 -14 24 6 14 8 32 5
40 -6 16 -42 22 -50 9z"/>
</g>
<g id="part-4" class="char-part">
  <path d="M447 344 c-3 -3 -1 -18 4 -33 6 -15 9 -66 7 -112 l-3 -84 -33 1 -32
2 27 -33 c32 -38 58 -44 72 -17 5 10 11 72 12 137 1 104 -1 120 -17 132 -20
14 -28 16 -37 7z"/>
  <path d="M650 208 c11 -18 31 -46 44 -63 21 -26 25 -28 31 -12 13 33 -4 66
-45 87 -51 26 -53 26 -30 -12z"/>
  <path d="M302 183 c-18 -25 -31 -47 -28 -50 7 -7 68 31 91 57 16 18 17 23 5
30 -25 16 -34 11 -68 -37z"/>
  <path d="M545 198 c10 -33 45 -88 56 -88 21 0 8 62 -17 85 -33 31 -47 32 -39
3z"/>
</g>
</g>
</svg>