<?xml version="1.0" standalone="no"?>
<!DOCTYPE svg PUBLIC "-//W3C//DTD SVG 20010904//EN"
 "http://www.w3.org/TR/2001/REC-SVG-20010904/DTD/svg10.dtd">
<svg version="1.0" xmlns="http://www.w3.org/2000/svg"
 width="96.000000pt" height="68.000000pt" viewBox="0 0 96.000000 68.000000"
 preserveAspectRatio="xMidYMid meet">
<metadata>
Created by potrace 1.16, written by Peter Selinger 2001-2019
Combined from part_0.svg through part_5.svg with named groups
</metadata>
<g transform="translate(0.000000,68.000000) scale(0.100000,-0.100000)" fill="#000000" stroke="none">
<g id="part-0" class="char-part">
  <path d="M180 542 c0 -6 17 -25 38 -42 43 -35 87 -38 87 -5 0 22 -31 40 -87
50 -24 5 -38 3 -38 -3z"/>
  <path d="M649 546 c-7 -7 -239 -36 -288 -36 -40 0 -43 -2 -27 -13 11 -8 28
-48 41 -98 l22 -84 51 3 52 4 0 -41 0 -41 -50 0 c-27 0 -50 -4 -50 -10 0 -5
23 -10 50 -10 l50 0 0 -39 0 -39 -107 -9 c-100 -8 -106 -10 -81 -22 22 -11 44
-12 116 -2 48 6 154 11 235 11 96 0 148 4 153 11 14 24 -24 30 -148 23 -140
-7 -138 -8 -122 54 5 19 13 22 53 22 53 0 87 15 58 25 -9 4 -37 5 -61 4 -38
-4 -45 -1 -48 16 -9 50 0 58 62 52 l59 -5 31 74 c17 40 33 87 36 102 5 26 2
31 -27 41 -34 12 -53 14 -60 7z m17 -41 c4 -8 4 -25 0 -38 -4 -19 -12 -22 -60
-24 l-55 -2 1 34 c1 36 9 41 76 44 21 1 35 -4 38 -14z m-178 -42 c-3 -36 -5
-38 -39 -41 -33 -3 -38 0 -48 29 -6 18 -11 33 -11 35 0 4 41 11 73 13 27 1 28
-1 25 -36z m159 -71 c-10 -37 -12 -39 -54 -39 -42 0 -43 1 -43 33 0 35 -6 32
91 42 14 2 15 -3 6 -36z m-149 -23 c-2 -20 -9 -24 -37 -24 -29 0 -36 4 -42 27
-7 25 -5 27 30 30 44 4 54 -3 49 -33z"/>
  <path d="M110 406 c0 -17 46 -66 72 -77 55 -23 77 34 23 59 -31 14 -95 26 -95
18z"/>
  <path d="M274 312 c-5 -4 -26 -28 -45 -53 -19 -25 -51 -60 -72 -78 -20 -18
-37 -41 -37 -51 0 -26 36 -67 49 -55 15 15 122 227 119 236 -2 5 -8 5 -14 1z"/>
</g>
<g id="part-1" class="char-part">
  <path d="M181 536 c2 -2 21 -18 43 -35 48 -38 76 -41 76 -6 0 19 -7 26 -37 34
-38 11 -90 15 -82 7z"/>
  <path d="M120 395 c0 -21 59 -65 86 -65 31 0 33 35 2 51 -39 21 -88 29 -88 14z"/>
  <path d="M241 267 c-17 -25 -51 -63 -77 -86 -45 -39 -46 -42 -34 -71 22 -52
41 -37 99 80 58 116 63 151 12 77z"/>
</g>
<g id="part-2" class="char-part">
  <path d="M575 535 c-38 -8 -112 -17 -163 -21 l-93 -7 20 -21 c11 -12 28 -55
39 -96 16 -63 22 -75 38 -72 10 1 73 4 138 6 l119 3 37 96 c31 79 35 99 24
108 -21 17 -82 19 -159 4z m90 -25 c4 -6 4 -23 0 -38 -5 -25 -9 -27 -59 -28
l-54 -2 -4 34 c-3 29 -1 34 22 37 51 8 89 7 95 -3z m-175 -44 c0 -34 -15 -45
-62 -46 -12 0 -38 44 -38 66 0 5 35 12 68 13 30 1 32 -1 32 -33z m156 -72
c-11 -33 -15 -36 -54 -38 -41 -2 -42 -2 -42 30 0 35 -5 33 92 42 15 2 16 -2 4
-34z m-151 -20 c0 -26 -3 -29 -35 -29 -31 0 -35 3 -38 27 -3 22 1 27 25 31 43
6 48 3 48 -29z"/>
</g>
<g id="part-3" class="char-part">
  <path d="M498 283 c-3 -38 -3 -38 -50 -41 -64 -4 -61 -22 3 -22 l50 0 -3 -37
-3 -38 -110 -11 c-103 -10 -108 -11 -80 -23 24 -11 51 -11 130 -2 55 6 157 11
227 11 124 0 158 4 158 20 0 14 -75 26 -125 19 -27 -4 -74 -8 -102 -8 l-53 -1
0 35 c0 36 6 39 93 47 50 5 28 23 -28 23 l-55 -1 0 33 c0 28 -4 33 -24 33 -21
0 -25 -5 -28 -37z"/>
</g>
</g>
</svg>