<?xml version="1.0" standalone="no"?>
<!DOCTYPE svg PUBLIC "-//W3C//DTD SVG 20010904//EN"
 "http://www.w3.org/TR/2001/REC-SVG-20010904/DTD/svg10.dtd">
<svg version="1.0" xmlns="http://www.w3.org/2000/svg"
 width="96.000000pt" height="68.000000pt" viewBox="0 0 96.000000 68.000000"
 preserveAspectRatio="xMidYMid meet">
<metadata>
Created by potrace 1.16, written by Peter Selinger 2001-2019
Combined from part_0.svg through part_5.svg with named groups
</metadata>
<g transform="translate(0.000000,68.000000) scale(0.100000,-0.100000)" fill="#000000" stroke="none">
<g id="part-0" class="char-part">
  <path d="M527 456 l6 -105 -27 -11 c-15 -5 -38 -10 -52 -10 -13 0 -24 -4 -24
-10 0 -5 21 -10 46 -10 l47 0 -6 -36 c-9 -55 -44 -115 -95 -163 -38 -35 -42
-42 -22 -36 50 15 81 36 110 77 17 22 30 47 30 53 0 7 6 27 13 44 l14 32 45
-78 c26 -43 60 -93 77 -111 27 -29 35 -32 90 -32 34 0 61 3 61 8 0 4 -26 21
-58 39 -31 17 -75 46 -96 65 -55 47 -120 138 -108 150 5 5 44 12 86 15 42 3
76 9 76 13 0 15 -47 19 -105 10 -32 -5 -60 -8 -62 -6 -2 2 0 42 5 90 8 91 6
98 -35 110 l-23 7 7 -105z"/>
  <path d="M270 534 c-41 -7 -99 -13 -128 -13 l-53 -1 20 -29 c12 -16 25 -50 30
-75 11 -61 26 -78 57 -65 44 16 66 12 62 -13 -2 -19 -10 -24 -41 -26 -46 -4
-39 -22 9 -22 27 0 34 -4 34 -19 0 -23 -12 -28 -89 -37 -64 -7 -84 -24 -28
-24 17 0 70 7 117 15 47 8 100 15 118 15 17 0 32 5 32 10 0 11 -21 13 -82 10
-32 -1 -38 2 -38 18 0 20 24 32 68 32 12 0 22 5 22 11 0 6 -17 9 -42 7 -33 -2
-44 1 -46 13 -4 20 34 31 75 23 27 -5 30 -3 56 63 43 103 43 101 12 113 -33
12 -69 11 -165 -6z m106 -70 c-8 -60 -11 -64 -49 -64 l-32 0 0 55 0 55 44 0
44 0 -7 -46z m-131 24 c2 -7 6 -32 8 -55 4 -39 2 -42 -24 -48 -37 -8 -45 -2
-53 41 -4 19 -10 41 -12 49 -4 8 3 15 18 18 44 8 59 7 63 -5z"/>
  <path d="M322 460 c-6 -16 -7 -30 -2 -30 14 0 41 31 37 43 -7 23 -25 17 -35
-13z"/>
  <path d="M198 435 c4 -25 26 -34 37 -15 8 13 -12 40 -30 40 -8 0 -10 -9 -7
-25z"/>
  <path d="M668 461 c37 -36 72 -41 72 -12 0 25 -7 29 -61 36 l-44 7 33 -31z"/>
  <path d="M367 213 c-8 -13 24 -74 37 -70 19 6 12 49 -11 64 -11 8 -23 10 -26
6z"/>
  <path d="M290 185 c0 -24 23 -66 34 -62 19 6 18 32 -2 55 -22 26 -32 28 -32 7z"/>
  <path d="M113 126 c-14 -28 -18 -47 -12 -57 21 -34 64 34 52 81 -8 29 -15 25
-40 -24z"/>
  <path d="M215 143 c3 -16 13 -35 21 -43 12 -12 14 -10 14 16 0 29 -15 54 -33
54 -5 0 -6 -12 -2 -27z"/>
</g>
<g id="part-1" class="char-part">
  <path d="M305 534 c-33 -7 -92 -14 -131 -16 l-72 -2 19 -35 c11 -20 19 -40 19
-46 0 -5 5 -27 11 -48 8 -31 14 -37 29 -32 11 3 63 8 117 10 l98 3 23 63 c12
35 27 68 33 75 8 9 2 17 -20 28 -35 19 -46 19 -126 0z m80 -24 c7 -12 -13
-108 -24 -114 -3 -2 -45 -7 -92 -11 l-86 -7 -12 46 c-18 74 -17 76 42 77 28 1
66 5 82 9 45 11 83 11 90 0z"/>
</g>
<g id="part-2" class="char-part">
  <path d="M360 210 c0 -22 31 -70 45 -70 24 0 18 47 -7 64 -26 19 -38 20 -38 6z"/>
  <path d="M287 194 c-9 -10 32 -86 43 -79 15 9 12 38 -6 63 -15 22 -26 27 -37
16z"/>
  <path d="M207 174 c-8 -8 18 -77 31 -82 18 -6 15 54 -4 72 -17 18 -18 18 -27
10z"/>
  <path d="M113 131 c-23 -40 -22 -71 2 -71 26 0 41 39 37 93 -3 27 -15 20 -39
-22z"/>
</g>
<g id="part-3" class="char-part">
  <path d="M665 460 c34 -35 75 -41 75 -10 0 22 -34 40 -78 40 l-26 0 29 -30z"/>
</g>
<g id="part-4" class="char-part">
  <path d="M523 553 c-8 -3 -9 -13 -2 -36 5 -18 9 -64 9 -103 0 -79 -4 -84 -77
-84 -18 0 -33 -5 -33 -11 0 -7 18 -10 50 -7 45 3 50 1 50 -17 0 -64 -48 -147
-114 -195 -55 -41 -17 -41 47 -1 45 30 75 72 101 149 l12 34 46 -78 c25 -44
59 -94 76 -112 27 -29 36 -32 85 -32 31 0 58 3 61 8 2 4 -26 24 -64 45 -43 23
-89 60 -122 97 -54 59 -85 106 -77 115 3 2 42 7 87 11 45 4 82 10 82 15 0 17
-45 21 -102 9 -32 -7 -61 -10 -64 -7 -3 3 -2 44 3 92 6 58 6 88 -1 94 -17 12
-40 18 -53 14z"/>
</g>
</g>
</svg>