<?xml version="1.0" standalone="no"?>
<!DOCTYPE svg PUBLIC "-//W3C//DTD SVG 20010904//EN"
 "http://www.w3.org/TR/2001/REC-SVG-20010904/DTD/svg10.dtd">
<svg version="1.0" xmlns="http://www.w3.org/2000/svg"
 width="96.000000pt" height="68.000000pt" viewBox="0 0 96.000000 68.000000"
 preserveAspectRatio="xMidYMid meet">
<metadata>
Created by potrace 1.16, written by Peter Selinger 2001-2019
Combined from part_0.svg through part_5.svg with named groups
</metadata>
<g transform="translate(0.000000,68.000000) scale(0.100000,-0.100000)" fill="#000000" stroke="none">
<g id="part-0" class="char-part">
  <path d="M225 573 c13 -47 11 -77 -5 -80 -105 -14 -125 -33 -35 -33 54 0 55 0
55 -30 l0 -30 -65 0 c-65 0 -65 0 -51 -22 8 -13 21 -49 31 -82 12 -44 19 -56
28 -47 6 6 21 11 34 11 19 0 23 -5 23 -29 0 -28 -3 -30 -47 -36 -106 -13 -120
-17 -98 -25 19 -7 33 -7 106 5 l31 5 -7 -63 c-6 -51 -4 -66 9 -76 26 -22 36
-3 36 69 l0 69 58 6 c87 10 90 11 61 22 -15 7 -42 8 -67 3 l-42 -7 0 35 c0 35
0 35 39 29 39 -5 39 -5 61 47 11 28 25 58 30 67 12 23 -52 54 -81 39 -25 -14
-39 -5 -39 24 0 21 6 24 56 31 70 8 68 30 -3 30 l-51 -1 6 35 c6 39 -14 61
-56 61 -22 0 -23 -3 -17 -27z m123 -195 c-2 -18 -10 -23 -35 -25 -26 -1 -33 3
-33 17 0 18 16 26 53 29 14 1 18 -5 15 -21z m-105 -18 c-4 -15 -14 -20 -39
-20 -27 0 -34 4 -34 20 0 17 7 20 39 20 34 0 38 -3 34 -20z m97 -51 c-14 -26
-60 -26 -60 0 0 14 8 21 28 23 37 5 44 0 32 -23z m-100 -6 c0 -18 -6 -23 -25
-23 -27 0 -46 27 -27 39 25 15 52 7 52 -16z"/>
  <path d="M647 571 c-67 -19 -68 -32 -1 -20 26 5 50 6 55 3 11 -7 12 -134 1
-152 -5 -7 -16 -10 -25 -6 -24 9 -21 -9 6 -34 19 -18 25 -19 40 -7 14 10 20
35 27 107 9 89 8 94 -13 110 -12 10 -24 17 -27 17 -3 -1 -31 -9 -63 -18z"/>
  <path d="M470 560 c-8 -5 -25 -10 -37 -10 -13 0 -23 -4 -23 -10 0 -5 21 -8 48
-7 26 1 48 -1 50 -5 1 -5 2 -33 2 -63 0 -48 -2 -55 -20 -55 -11 0 -20 -3 -20
-8 0 -10 38 -42 49 -42 28 0 47 184 21 200 -19 12 -51 12 -70 0z"/>
  <path d="M610 514 c0 -16 37 -37 51 -29 13 9 -5 31 -31 38 -13 3 -20 0 -20 -9z"/>
  <path d="M430 500 c11 -20 40 -28 40 -10 0 9 -31 30 -45 30 -3 0 -1 -9 5 -20z"/>
  <path d="M645 459 c-22 -10 -44 -20 -50 -23 -9 -4 12 -26 25 -26 8 1 72 61 68
64 -1 2 -21 -5 -43 -15z"/>
  <path d="M433 450 c-13 -5 -23 -14 -23 -20 0 -17 36 -11 55 10 20 22 8 26 -32
10z"/>
  <path d="M549 374 c-11 -32 -61 -77 -106 -99 -40 -19 -55 -39 -19 -25 42 16
89 41 122 66 17 13 35 24 40 24 5 0 36 -21 69 -46 75 -57 99 -67 147 -59 49 9
49 21 -1 30 -63 10 -184 76 -199 108 -17 34 -40 35 -53 1z"/>
  <path d="M560 291 c0 -12 -50 -61 -85 -82 -44 -27 -22 -23 43 8 91 44 104 53
91 69 -13 15 -49 19 -49 5z"/>
  <path d="M596 223 c-4 -10 -35 -38 -70 -63 -36 -25 -63 -47 -60 -49 6 -7 171
79 186 96 9 12 9 16 -3 24 -23 14 -47 10 -53 -8z"/>
  <path d="M619 131 c-41 -41 -117 -88 -174 -107 -12 -4 -15 -8 -8 -11 30 -11
277 109 270 131 -2 5 -12 15 -23 21 -17 10 -25 6 -65 -34z"/>
</g>
<g id="part-1" class="char-part">
  <path d="M236 546 c6 -50 5 -53 -17 -59 -13 -4 -37 -7 -52 -7 -16 0 -26 -4
-22 -10 3 -5 26 -10 51 -10 40 0 44 -2 44 -25 0 -37 38 -35 42 2 3 24 9 29 51
38 59 13 58 31 -2 28 l-43 -1 5 34 c5 27 1 37 -16 49 -40 28 -48 20 -41 -39z"/>
</g>
<g id="part-2" class="char-part">
  <path d="M258 262 c-12 -2 -18 -13 -18 -32 0 -26 -3 -28 -52 -35 -93 -11 -112
-16 -97 -26 8 -5 43 -6 77 -3 l64 7 -7 -56 c-8 -64 7 -106 31 -86 9 8 14 32
14 76 0 71 -3 68 85 78 53 6 57 8 41 20 -12 9 -34 12 -66 8 -48 -6 -49 -5 -52
23 -2 22 -8 29 -20 26z"/>
</g>
<g id="part-3" class="char-part">
  <path d="M442 556 c-56 -15 -43 -28 20 -20 l48 7 0 -67 c0 -59 -2 -66 -20 -66
-25 0 -26 -12 -2 -33 26 -24 38 -21 50 11 14 33 19 152 9 170 -10 14 -46 14
-105 -2z"/>
</g>
<g id="part-4" class="char-part">
  <path d="M645 459 c-22 -10 -44 -20 -50 -23 -6 -3 -4 -9 4 -15 16 -10 31 -4
70 29 32 28 24 31 -24 9z"/>
</g>
<g id="part-5" class="char-part">
  <path d="M638 140 c-14 -16 -23 -30 -20 -31 4 0 -3 -4 -16 -10 -13 -5 -20 -13
-17 -19 8 -12 38 2 82 40 23 20 28 31 20 39 -16 16 -20 14 -49 -19z m22 -4 c0
-2 -8 -10 -17 -17 -16 -13 -17 -12 -4 4 13 16 21 21 21 13z"/>
  <path d="M535 60 c-16 -11 -25 -20 -20 -20 6 0 20 7 31 15 12 8 25 11 29 7 5
-4 5 -1 1 6 -9 15 -5 16 -41 -8z"/>
  <path d="M475 30 c-3 -6 1 -7 9 -4 18 7 21 14 7 14 -6 0 -13 -4 -16 -10z"/>
</g>
</g>
</svg>