<?xml version="1.0" standalone="no"?>
<!DOCTYPE svg PUBLIC "-//W3C//DTD SVG 20010904//EN"
 "http://www.w3.org/TR/2001/REC-SVG-20010904/DTD/svg10.dtd">
<svg version="1.0" xmlns="http://www.w3.org/2000/svg"
 width="96.000000pt" height="68.000000pt" viewBox="0 0 96.000000 68.000000"
 preserveAspectRatio="xMidYMid meet">
<metadata>
Created by potrace 1.16, written by Peter Selinger 2001-2019
Combined from part_0.svg through part_5.svg with named groups
</metadata>
<g transform="translate(0.000000,68.000000) scale(0.100000,-0.100000)" fill="#000000" stroke="none">
<g id="part-0" class="char-part">
  <path d="M529 561 c6 -11 11 -45 11 -75 l0 -56 -46 0 c-27 0 -43 -4 -39 -10 3
-5 24 -10 46 -10 38 0 39 -1 39 -35 0 -21 -5 -36 -12 -36 -7 -1 -31 -3 -52 -5
-22 -2 -47 -6 -55 -10 -29 -12 45 -22 100 -13 29 5 55 6 58 4 8 -8 -40 -54
-111 -107 -38 -27 -68 -52 -68 -55 0 -9 45 10 80 33 19 13 38 24 42 24 4 0 4
-35 1 -79 -5 -79 5 -107 30 -82 6 6 38 11 70 11 45 0 63 -4 73 -17 22 -31 32
-3 36 101 4 120 0 125 -92 110 -34 -6 -63 -7 -65 -4 -2 4 14 23 36 43 38 35
43 37 134 43 52 4 95 11 95 15 0 15 -49 22 -106 16 -30 -3 -54 -3 -54 -1 0 3
20 32 45 64 51 66 53 75 26 90 -27 14 -29 14 -36 -20 -9 -42 -91 -150 -114
-150 -27 0 -24 72 3 76 44 6 67 15 61 23 -2 5 -20 7 -39 4 l-35 -4 -3 63 -3
63 -33 3 c-31 3 -33 2 -23 -17z m145 -327 c9 -4 16 -18 16 -34 0 -24 -5 -28
-37 -34 -21 -3 -50 -6 -65 -6 -25 0 -28 4 -28 34 0 34 1 35 43 39 23 2 45 4
49 5 3 1 13 -1 22 -4z m16 -119 l0 -35 -65 0 -65 0 0 29 c0 28 3 30 43 34 93
8 87 10 87 -28z"/>
  <path d="M278 505 c5 -63 4 -65 -19 -65 -34 0 -69 -11 -69 -21 0 -4 21 -9 48
-11 39 -3 47 -6 50 -25 4 -25 -2 -27 -113 -44 -44 -6 -84 -15 -89 -20 -15 -13
42 -22 99 -15 60 7 65 2 58 -58 -5 -47 -37 -112 -63 -128 -11 -7 -20 -16 -20
-20 0 -29 73 30 95 75 16 35 36 128 29 138 -6 11 28 21 38 11 13 -13 22 -113
14 -166 -7 -43 -9 -46 -32 -40 -31 8 -25 -13 12 -39 40 -30 54 -9 54 79 0 74
7 87 30 59 16 -19 40 -20 40 -1 0 7 -16 21 -35 30 -31 15 -35 21 -35 56 0 40
0 40 39 40 38 0 61 14 46 28 -4 4 -31 6 -61 5 -50 -3 -54 -1 -54 20 0 19 8 25
41 33 54 12 54 28 0 32 l-44 3 6 49 c5 43 4 49 -16 54 -52 14 -55 11 -49 -59z"/>
  <path d="M185 252 c-15 -10 -57 -83 -51 -89 9 -9 76 60 76 78 0 20 -8 24 -25
11z"/>
</g>
<g id="part-1" class="char-part">
  <path d="M287 507 c5 -61 4 -64 -18 -70 -13 -4 -36 -7 -51 -7 -16 0 -28 -4
-28 -10 0 -5 23 -10 50 -10 48 0 50 -1 50 -29 0 -29 -1 -29 -87 -41 -49 -7
-92 -17 -97 -21 -19 -17 44 -20 115 -5 41 8 109 20 152 27 92 14 105 34 17 26
l-60 -5 0 28 c0 24 5 28 42 36 23 5 43 15 46 23 4 11 -5 13 -42 9 l-46 -6 6
54 c6 45 4 54 -9 54 -8 0 -22 3 -30 6 -12 4 -14 -5 -10 -59z"/>
</g>
<g id="part-2" class="char-part">
  <path d="M164 228 c-9 -18 -23 -41 -32 -50 -19 -22 -8 -23 26 -2 34 20 65 61
57 74 -12 20 -35 9 -51 -22z"/>
  <path d="M376 253 c-8 -9 34 -53 51 -53 7 0 13 7 13 15 0 16 -54 48 -64 38z"/>
</g>
<g id="part-3" class="char-part">
  <path d="M526 583 c-3 -3 -1 -14 5 -25 5 -10 9 -42 7 -71 -3 -52 -3 -52 -38
-55 -55 -5 -61 -22 -7 -22 l47 0 0 -35 c0 -28 4 -35 20 -35 17 0 20 7 20 40 0
25 5 40 13 40 6 0 30 5 51 11 33 9 37 13 23 21 -10 5 -32 6 -49 3 l-31 -7 5
61 c2 34 4 61 4 61 -1 0 -15 4 -33 9 -17 5 -34 7 -37 4z"/>
</g>
<g id="part-4" class="char-part">
  <path d="M720 512 c0 -20 -68 -130 -93 -151 -8 -6 -49 -15 -93 -21 -43 -6 -90
-14 -104 -17 l-25 -6 30 -8 c18 -5 52 -5 84 1 30 6 59 10 65 10 16 0 -43 -57
-116 -112 -37 -29 -66 -53 -64 -55 13 -13 111 52 191 129 l50 47 98 7 c53 4
97 11 97 15 0 15 -50 22 -106 15 -30 -3 -54 -4 -54 0 0 3 21 33 47 66 36 48
44 64 36 77 -15 24 -43 26 -43 3z"/>
</g>
<g id="part-5" class="char-part">
  <path d="M680 251 c0 -6 4 -12 8 -15 5 -3 7 -30 6 -61 -1 -35 2 -53 8 -49 5 4
4 -4 -3 -17 -7 -13 -13 -26 -13 -29 -1 -3 -11 -4 -23 -2 -13 1 -23 -1 -23 -6
0 -5 12 -9 26 -9 15 0 30 -6 34 -13 17 -27 29 4 29 75 0 60 -3 76 -17 85 -16
10 -15 10 2 8 29 -4 30 17 1 30 -31 14 -35 15 -35 3z"/>
  <path d="M648 243 c7 -3 16 -2 19 1 4 3 -2 6 -13 5 -11 0 -14 -3 -6 -6z"/>
  <path d="M545 222 c-6 -4 -11 -23 -12 -42 0 -19 -3 -54 -6 -77 -3 -24 -1 -45
3 -48 12 -8 41 6 34 16 -3 5 -10 7 -15 4 -5 -4 -5 5 1 20 7 18 7 24 -1 20 -6
-4 -5 3 3 14 9 15 19 20 35 16 12 -3 25 -1 28 5 4 6 -6 10 -24 10 -27 0 -31 4
-32 28 -1 15 -1 30 0 35 1 9 -1 9 -14 -1z"/>
  <path d="M640 161 c0 -5 9 -7 20 -4 11 3 20 7 20 9 0 2 -9 4 -20 4 -11 0 -20
-4 -20 -9z"/>
  <path d="M598 63 c6 -2 18 -2 25 0 6 3 1 5 -13 5 -14 0 -19 -2 -12 -5z"/>
</g>
</g>
</svg>