<?xml version="1.0" standalone="no"?>
<!DOCTYPE svg PUBLIC "-//W3C//DTD SVG 20010904//EN"
 "http://www.w3.org/TR/2001/REC-SVG-20010904/DTD/svg10.dtd">
<svg version="1.0" xmlns="http://www.w3.org/2000/svg"
 width="96.000000pt" height="68.000000pt" viewBox="0 0 96.000000 68.000000"
 preserveAspectRatio="xMidYMid meet">
<metadata>
Created by potrace 1.16, written by Peter Selinger 2001-2019
Combined from part_0.svg through part_5.svg with named groups
</metadata>
<g transform="translate(0.000000,68.000000) scale(0.100000,-0.100000)" fill="#000000" stroke="none">
<g id="part-0" class="char-part">
  <path d="M514 573 c-10 -48 -45 -107 -95 -163 -27 -30 -46 -56 -44 -58 2 -2
19 5 38 17 19 11 37 21 41 21 9 0 6 -196 -4 -255 -10 -63 10 -125 35 -105 8 7
15 27 15 45 l0 32 73 7 c39 3 116 9 170 12 124 9 128 29 6 29 l-84 1 2 28 c3
37 4 37 58 43 61 7 57 23 -5 23 -49 0 -50 1 -50 29 0 27 3 30 50 36 64 9 65
25 1 25 -48 0 -49 1 -53 34 l-4 34 69 7 c46 4 67 10 64 18 -3 8 -24 11 -61 9
-46 -2 -56 1 -56 14 0 22 -29 43 -57 44 -29 0 -29 -8 -1 -37 12 -13 19 -25 17
-28 -8 -8 -149 -28 -155 -22 -3 3 20 38 52 78 l58 71 -23 19 c-32 26 -50 24
-57 -8z m94 -207 c4 -35 -10 -46 -65 -46 -41 0 -42 1 -40 33 2 35 21 47 72 44
25 -2 31 -7 33 -31z m10 -97 c3 -22 -2 -27 -29 -33 -17 -3 -44 -6 -60 -6 -27
0 -29 3 -29 35 l0 36 58 -3 c53 -3 57 -5 60 -29z m2 -94 l0 -35 -60 0 -60 0 0
35 0 35 60 0 60 0 0 -35z"/>
  <path d="M224 548 c4 -18 10 -57 13 -85 l6 -53 -34 0 c-19 0 -44 -3 -56 -6
-42 -11 -24 -24 32 -24 l56 0 -3 -66 -3 -67 -45 -12 c-25 -7 -57 -16 -73 -19
-23 -6 -26 -9 -17 -25 21 -41 62 -36 184 22 142 69 168 95 60 62 -27 -8 -50
-15 -52 -15 -2 0 -2 28 0 62 l3 62 39 11 c22 7 41 16 43 22 5 15 -32 26 -59
18 -21 -7 -21 -6 -15 59 6 65 6 67 -19 76 -14 6 -35 10 -46 10 -18 0 -20 -4
-14 -32z"/>
</g>
<g id="part-1" class="char-part">
  <path d="M225 559 c4 -13 10 -52 12 -86 l5 -61 -56 -7 c-67 -9 -65 -25 3 -25
l48 0 7 -61 c3 -34 4 -65 1 -69 -3 -4 -36 -16 -75 -25 -71 -17 -80 -24 -57
-42 34 -27 62 -21 177 38 106 55 112 65 26 43 l-26 -6 0 66 0 66 46 11 c53 14
46 33 -12 31 l-37 -1 6 42 c3 23 9 52 12 63 5 18 1 23 -22 28 -15 4 -37 9 -47
13 -16 4 -18 2 -11 -18z"/>
</g>
<g id="part-2" class="char-part">
  <path d="M514 573 c-12 -48 -42 -100 -94 -159 -27 -31 -48 -59 -46 -62 3 -2
20 5 39 17 19 11 37 21 41 21 9 0 7 -176 -4 -248 -9 -67 1 -112 26 -112 20 0
22 20 25 193 2 122 -1 170 -10 181 -11 13 -3 27 45 87 l58 71 -23 19 c-32 26
-49 24 -57 -8z"/>
</g>
<g id="part-3" class="char-part">
  <path d="M620 271 c0 -28 -2 -29 -60 -36 -33 -4 -60 -11 -60 -16 0 -5 27 -9
60 -9 l60 0 0 -35 0 -35 -54 0 c-49 0 -77 -12 -63 -26 10 -11 338 19 334 30
-2 7 -37 11 -85 12 -45 0 -85 3 -88 7 -4 3 -4 17 0 31 5 20 14 25 56 31 65 9
65 25 0 25 -47 0 -50 2 -50 25 0 20 -5 25 -25 25 -21 0 -25 -5 -25 -29z"/>
</g>
</g>
</svg>