<?xml version="1.0" standalone="no"?>
<!DOCTYPE svg PUBLIC "-//W3C//DTD SVG 20010904//EN"
 "http://www.w3.org/TR/2001/REC-SVG-20010904/DTD/svg10.dtd">
<svg version="1.0" xmlns="http://www.w3.org/2000/svg"
 width="96.000000pt" height="68.000000pt" viewBox="0 0 96.000000 68.000000"
 preserveAspectRatio="xMidYMid meet">
<metadata>
Created by potrace 1.16, written by Peter Selinger 2001-2019
Combined from part_0.svg through part_5.svg with named groups
</metadata>
<g transform="translate(0.000000,68.000000) scale(0.100000,-0.100000)" fill="#000000" stroke="none">
<g id="part-0" class="char-part">
  <path d="M505 547 c-29 -59 -32 -62 -64 -59 -28 3 -32 1 -28 -15 15 -50 17
-106 8 -187 -7 -59 -7 -95 0 -107 12 -23 29 -25 29 -4 0 11 11 15 38 15 20 0
67 3 105 7 60 5 67 8 67 28 0 11 7 30 15 41 41 54 4 70 -110 47 -99 -20 -113
-17 -107 29 3 27 8 34 25 34 145 2 157 3 157 25 0 12 9 37 21 55 l20 34 -25
11 c-19 9 -38 8 -86 -4 -33 -8 -62 -11 -65 -7 -2 4 13 26 35 49 44 46 48 56
24 65 -26 10 -28 8 -59 -57z m105 -94 c0 -43 -10 -50 -82 -57 l-68 -7 0 39 0
38 47 3 c26 1 49 4 52 7 2 2 15 4 28 4 18 0 23 -5 23 -27z m13 -192 c0 -18 -3
-34 -5 -36 -2 -2 -40 -5 -83 -7 l-80 -3 3 30 c2 17 5 31 6 32 4 4 131 21 146
19 10 -1 15 -12 13 -35z"/>
  <path d="M207 500 c51 -48 93 -55 93 -15 0 31 -43 55 -97 55 l-38 -1 42 -39z"/>
  <path d="M215 389 c-27 -9 -59 -20 -70 -23 -38 -11 6 -25 59 -19 l51 6 -22
-25 c-29 -31 -29 -36 7 -78 17 -19 30 -45 30 -57 0 -22 -3 -23 -79 -23 -83 0
-109 -12 -76 -36 13 -10 42 -12 109 -8 85 6 99 4 216 -31 203 -61 192 -59 267
-40 37 9 84 25 102 34 l35 19 -50 5 c-27 4 -103 9 -169 12 -101 5 -193 17
-301 40 -17 4 -20 10 -16 34 3 24 -3 37 -28 62 l-31 32 42 43 c24 24 41 45 38
47 -10 10 -48 27 -56 26 -4 -1 -30 -10 -58 -20z"/>
</g>
<g id="part-1" class="char-part">
  <path d="M210 505 c38 -39 67 -52 82 -37 25 25 -38 72 -95 72 -19 0 -17 -4 13
-35z"/>
  <path d="M213 385 c-83 -27 -91 -39 -20 -31 31 4 57 4 57 1 0 -4 -7 -19 -16
-35 -16 -26 -16 -29 8 -61 58 -77 43 -99 -66 -99 -66 0 -83 -10 -47 -29 13 -7
37 -7 76 0 70 13 102 8 275 -43 106 -31 146 -39 185 -35 53 6 180 49 155 54
-8 1 -85 7 -171 12 -85 5 -199 17 -252 27 l-97 17 0 37 c0 27 -7 43 -30 65
l-31 30 41 36 c46 41 49 52 18 65 -17 7 -40 4 -85 -11z"/>
</g>
<g id="part-2" class="char-part">
  <path d="M506 554 c-14 -31 -26 -61 -26 -67 0 -7 25 13 55 43 48 49 53 56 38
68 -29 21 -41 14 -67 -44z"/>
</g>
<g id="part-3" class="char-part">
  <path d="M560 494 c-27 -9 -66 -13 -98 -10 -49 4 -52 3 -48 -17 3 -12 8 -39
11 -61 l6 -39 67 7 c37 3 86 6 109 6 33 0 41 3 37 15 -4 8 4 34 16 56 17 34
19 44 8 50 -19 12 -57 10 -108 -7z m50 -44 c0 -36 -16 -45 -92 -54 l-58 -6 0
35 c0 36 2 38 70 48 70 11 80 9 80 -23z"/>
</g>
<g id="part-4" class="char-part">
  <path d="M575 315 c-27 -7 -73 -14 -101 -14 l-51 -1 -6 -52 c-5 -52 5 -88 23
-88 6 0 10 6 10 14 0 10 26 15 105 21 58 4 103 10 100 15 -2 4 6 29 19 54 l24
47 -25 10 c-29 11 -33 10 -98 -6z m48 -53 c0 -18 -3 -35 -5 -37 -2 -2 -41 -7
-86 -11 l-82 -7 2 36 c3 34 5 37 43 42 22 2 51 7 65 9 55 8 65 3 63 -32z"/>
</g>
</g>
</svg>