<?xml version="1.0" standalone="no"?>
<!DOCTYPE svg PUBLIC "-//W3C//DTD SVG 20010904//EN"
 "http://www.w3.org/TR/2001/REC-SVG-20010904/DTD/svg10.dtd">
<svg version="1.0" xmlns="http://www.w3.org/2000/svg"
 width="96.000000pt" height="68.000000pt" viewBox="0 0 96.000000 68.000000"
 preserveAspectRatio="xMidYMid meet">
<metadata>
Created by potrace 1.16, written by Peter Selinger 2001-2019
Combined from part_0.svg through part_5.svg with named groups
</metadata>
<g transform="translate(0.000000,68.000000) scale(0.100000,-0.100000)" fill="#000000" stroke="none">
<g id="part-0" class="char-part">
  <path d="M383 617 c-3 -5 9 -23 27 -38 19 -17 27 -29 19 -30 -103 -7 -233 -26
-231 -34 1 -6 36 -10 80 -10 106 1 433 23 441 30 3 4 -3 13 -14 22 -16 12 -38
14 -112 8 -77 -5 -93 -4 -93 8 0 30 -102 68 -117 44z"/>
  <path d="M455 480 c-22 -5 -67 -9 -99 -9 -55 -1 -58 -2 -44 -18 9 -10 20 -31
25 -48 11 -34 5 -33 131 -22 56 5 92 13 92 20 0 6 10 21 22 34 16 17 19 26 11
34 -15 15 -89 20 -138 9z m68 -43 c-4 -21 -12 -25 -79 -33 -59 -8 -75 -7 -79
4 -16 42 -2 48 101 51 59 1 61 0 57 -22z"/>
  <path d="M500 345 c-206 -20 -290 -22 -299 -6 -10 16 -53 -73 -49 -102 5 -36
28 -31 44 11 18 45 -15 38 308 70 148 15 179 16 183 5 3 -8 -3 -23 -12 -33
-17 -19 -17 -20 4 -20 41 0 111 22 111 36 0 7 -13 22 -29 33 -34 24 -60 25
-261 6z"/>
  <path d="M378 252 c-124 -18 -148 -38 -34 -28 84 8 96 -1 96 -66 0 -66 -9 -80
-46 -76 -40 5 -41 2 -9 -34 28 -32 55 -36 78 -10 13 15 17 39 17 110 l0 92 71
0 c52 0 70 3 67 13 -6 18 -113 18 -240 -1z"/>
</g>
<g id="part-1" class="char-part">
  <path d="M390 613 c0 -4 14 -21 31 -39 l30 -31 -98 -7 c-54 -4 -114 -11 -133
-15 l-35 -8 27 -8 c16 -4 72 -2 125 4 54 6 160 13 236 17 76 4 140 10 142 15
12 18 -61 29 -135 19 -41 -5 -78 -10 -82 -10 -5 0 -8 9 -8 21 0 13 -11 25 -35
35 -37 15 -65 18 -65 7z"/>
</g>
<g id="part-2" class="char-part">
  <path d="M455 479 c-22 -4 -68 -8 -102 -8 l-63 -1 20 -20 c11 -11 20 -26 20
-33 0 -24 31 -59 43 -49 7 6 54 13 104 17 56 4 90 11 87 17 -3 5 5 21 17 35
24 24 24 25 5 39 -21 15 -68 16 -131 3z m58 -59 c-4 -5 -38 -11 -74 -15 -63
-7 -67 -6 -74 15 -4 12 -5 23 -2 26 2 2 37 8 78 12 68 6 74 5 77 -12 2 -10 0
-22 -5 -26z"/>
</g>
<g id="part-3" class="char-part">
  <path d="M505 344 c-181 -16 -288 -17 -302 -3 -9 9 -18 -2 -37 -45 -25 -56
-25 -86 -1 -86 17 0 32 19 40 51 6 25 10 26 148 42 222 27 337 33 337 17 0 -7
-7 -22 -17 -32 -9 -10 -14 -20 -12 -22 5 -5 83 12 119 26 l25 10 -35 29 c-39
33 -44 34 -265 13z"/>
</g>
<g id="part-4" class="char-part">
  <path d="M430 211 c12 -24 13 -101 1 -120 -6 -10 -19 -12 -47 -7 l-39 8 39
-41 c22 -22 44 -37 50 -34 41 23 46 35 46 125 l0 88 -30 0 c-27 0 -30 -2 -20
-19z"/>
</g>
</g>
</svg>