<?xml version="1.0" standalone="no"?>
<!DOCTYPE svg PUBLIC "-//W3C//DTD SVG 20010904//EN"
 "http://www.w3.org/TR/2001/REC-SVG-20010904/DTD/svg10.dtd">
<svg version="1.0" xmlns="http://www.w3.org/2000/svg"
 width="96.000000pt" height="68.000000pt" viewBox="0 0 96.000000 68.000000"
 preserveAspectRatio="xMidYMid meet">
<metadata>
Created by potrace 1.16, written by Peter Selinger 2001-2019
Combined from part_0.svg through part_5.svg with named groups
</metadata>
<g transform="translate(0.000000,68.000000) scale(0.100000,-0.100000)" fill="#000000" stroke="none">
<g id="part-0" class="char-part">
  <path d="M270 581 c0 -16 67 -71 88 -71 27 0 30 30 5 52 -19 16 -93 32 -93 19z"/>
  <path d="M690 549 c-19 -5 -75 -11 -125 -15 l-90 -7 1 -129 c1 -71 4 -131 7
-135 4 -3 26 -1 49 5 62 15 193 25 224 18 27 -7 27 -8 21 -76 -8 -98 -38 -136
-87 -110 -12 7 -24 9 -28 6 -10 -11 51 -66 73 -66 31 0 62 38 74 90 40 165 39
156 17 170 -12 7 -50 12 -98 11 -71 -1 -78 0 -78 18 0 26 9 30 64 32 31 2 46
7 46 16 0 9 -15 13 -53 13 -46 0 -53 3 -53 20 0 16 10 20 53 26 72 9 77 24 9
24 -56 0 -56 0 -56 30 0 27 3 30 33 31 17 1 43 4 57 9 26 8 26 8 -20 25 -3 1
-21 -2 -40 -6z m-85 -74 c0 -28 -3 -30 -42 -33 l-43 -3 0 36 0 36 43 -3 c39
-3 42 -5 42 -33z m3 -77 c-2 -19 -10 -24 -45 -26 -40 -3 -43 -1 -43 22 0 24 3
26 46 26 41 0 45 -2 42 -22z m2 -73 c0 -19 -5 -25 -22 -26 -13 0 -33 -2 -45
-5 -20 -3 -23 0 -23 26 0 29 2 30 45 30 41 0 45 -2 45 -25z"/>
  <path d="M270 444 c-30 -7 -70 -14 -87 -16 -18 -1 -33 -6 -33 -10 0 -19 38
-20 102 -4 38 10 72 15 75 12 14 -14 -117 -156 -185 -201 -23 -15 -40 -30 -38
-32 10 -10 50 11 112 58 36 27 67 49 70 49 8 0 4 -91 -8 -161 -10 -62 -9 -72
5 -86 9 -9 20 -13 24 -9 5 4 11 57 14 117 4 61 9 112 12 115 3 3 15 -4 26 -15
26 -26 41 -27 41 -1 0 14 -11 23 -41 31 -23 7 -43 19 -46 27 -4 8 16 35 46 66
40 40 49 54 39 64 -15 15 -57 14 -128 -4z"/>
  <path d="M696 215 c29 -39 54 -46 54 -16 0 22 -35 51 -63 51 -16 0 -15 -4 9
-35z"/>
  <path d="M586 218 c15 -27 38 -48 51 -48 18 0 17 25 -3 44 -19 19 -59 22 -48
4z"/>
  <path d="M417 184 c-20 -42 -22 -74 -4 -74 26 0 51 90 29 104 -5 3 -16 -11
-25 -30z"/>
  <path d="M500 214 c0 -12 35 -64 42 -64 21 0 20 34 -1 52 -23 18 -41 23 -41
12z"/>
</g>
<g id="part-1" class="char-part">
  <path d="M297 556 c25 -35 60 -53 75 -38 24 24 -20 62 -73 62 -19 0 -19 -1 -2
-24z"/>
</g>
<g id="part-2" class="char-part">
  <path d="M230 305 c-30 -31 -73 -68 -94 -83 -28 -19 -34 -28 -23 -30 16 -3
119 57 131 77 4 6 17 16 28 22 21 11 21 10 15 -68 -3 -44 -11 -91 -16 -106
-12 -30 3 -77 25 -77 17 0 24 24 24 89 0 32 3 79 6 104 l7 46 29 -22 c24 -18
30 -19 38 -7 12 20 5 28 -40 41 -22 7 -41 16 -41 21 -1 4 -2 14 -3 21 -1 12
-15 27 -26 27 -3 0 -30 -25 -60 -55z"/>
</g>
<g id="part-3" class="char-part">
  <path d="M650 544 c-41 -7 -97 -13 -125 -13 l-50 -1 1 -130 c0 -71 4 -133 8
-137 3 -4 26 -2 50 5 25 6 87 15 140 18 53 4 96 11 96 17 0 10 -156 3 -220 -9
l-30 -7 0 112 0 111 58 0 c56 0 182 17 191 26 18 18 -41 22 -119 8z"/>
</g>
<g id="part-4" class="char-part">
  <path d="M605 478 c0 -32 -2 -33 -42 -36 -57 -4 -55 -22 2 -22 41 0 45 -2 45
-25 0 -23 -4 -25 -45 -25 -25 0 -45 -4 -45 -10 0 -5 20 -10 45 -10 41 0 45 -2
45 -25 0 -37 34 -29 41 10 3 16 15 21 57 26 29 4 56 9 59 12 8 9 -64 19 -85
13 -23 -8 -35 5 -26 28 4 10 24 18 55 22 69 9 72 24 5 24 -53 0 -56 1 -56 25
0 21 -5 25 -28 25 -24 0 -27 -4 -27 -32z"/>
</g>
<g id="part-5" class="char-part">
  <path d="M704 213 c19 -20 29 -24 37 -16 8 8 4 15 -12 27 -38 26 -53 19 -25
-11z"/>
  <path d="M606 205 c9 -14 20 -25 26 -25 13 0 -9 37 -27 44 -13 5 -13 2 1 -19z"/>
  <path d="M434 201 c3 -4 -3 -18 -14 -31 -18 -21 -18 -50 1 -50 4 0 5 7 2 17
-4 11 -3 14 5 9 8 -5 12 0 12 13 0 10 3 26 6 35 3 9 1 16 -6 16 -6 0 -9 -4 -6
-9z"/>
  <path d="M516 202 c-8 -13 11 -35 23 -28 17 11 13 26 -6 19 -11 -4 -14 -3 -9
5 4 7 5 12 2 12 -3 0 -7 -4 -10 -8z"/>
</g>
</g>
</svg>