<?xml version="1.0" standalone="no"?>
<!DOCTYPE svg PUBLIC "-//W3C//DTD SVG 20010904//EN"
 "http://www.w3.org/TR/2001/REC-SVG-20010904/DTD/svg10.dtd">
<svg version="1.0" xmlns="http://www.w3.org/2000/svg"
 width="96.000000pt" height="68.000000pt" viewBox="0 0 96.000000 68.000000"
 preserveAspectRatio="xMidYMid meet">
<metadata>
Created by potrace 1.16, written by Peter Selinger 2001-2019
Combined from part_0.svg through part_5.svg with named groups
</metadata>
<g transform="translate(0.000000,68.000000) scale(0.100000,-0.100000)" fill="#000000" stroke="none">
<g id="part-0" class="char-part">
  <path d="M509 603 c-1 -5 0 -25 1 -47 2 -46 -9 -56 -69 -56 -33 0 -42 -3 -34
-11 6 -6 30 -10 52 -7 42 4 48 -3 35 -36 -3 -9 -18 -16 -33 -16 -14 0 -33 -5
-41 -10 -11 -7 -5 -10 23 -10 35 0 38 -2 31 -22 -9 -32 -22 -38 -76 -38 -26 0
-50 -4 -53 -10 -4 -6 13 -10 44 -10 28 0 51 -3 51 -7 -1 -13 -63 -77 -95 -97
-16 -11 -24 -21 -18 -23 19 -7 88 43 135 97 39 45 47 50 84 50 32 0 49 -7 71
-27 121 -113 122 -113 160 -112 21 0 47 4 58 9 l20 8 -20 7 c-99 34 -214 97
-215 118 0 4 28 8 63 9 85 2 87 2 88 13 1 18 -43 20 -143 6 -54 -7 -101 -11
-104 -8 -3 3 -3 14 0 25 5 16 19 21 76 26 39 4 70 12 70 18 0 7 -21 9 -65 5
-48 -5 -65 -3 -65 6 0 25 17 35 78 47 81 16 82 34 1 25 l-60 -7 6 36 c7 32 5
37 -20 46 -32 12 -35 12 -36 3z"/>
  <path d="M224 533 c4 -27 9 -62 12 -79 6 -31 5 -31 -48 -38 -29 -4 -63 -10
-75 -13 -39 -9 -14 -23 43 -23 31 0 54 -4 54 -10 0 -24 -45 -96 -87 -142 -26
-26 -43 -51 -39 -55 14 -14 73 31 125 97 l20 25 1 -27 c0 -15 -5 -61 -11 -103
-9 -67 -8 -80 7 -103 l17 -26 18 23 c16 20 19 41 19 139 0 108 1 115 16 94 8
-12 24 -22 35 -22 33 0 20 42 -19 60 -25 12 -32 20 -30 40 3 20 10 26 41 31
20 3 40 9 43 12 13 13 -9 27 -43 27 l-36 0 5 51 c5 48 4 52 -26 70 -45 27 -49
24 -42 -28z"/>
  <path d="M516 275 c6 -35 6 -35 -29 -35 -20 0 -39 -4 -42 -10 -4 -6 10 -10 34
-10 37 0 41 -3 41 -24 0 -22 -5 -24 -70 -31 -38 -4 -70 -12 -70 -17 0 -7 24
-9 70 -5 l70 6 0 -59 c0 -53 12 -82 27 -66 3 3 9 34 12 68 l6 63 82 5 c78 5
104 13 90 26 -8 8 -42 8 -115 -1 -63 -7 -64 -7 -60 16 2 20 10 25 42 29 56 7
60 30 6 30 -32 0 -41 3 -37 14 7 19 -12 36 -40 36 -22 0 -23 -3 -17 -35z"/>
</g>
<g id="part-1" class="char-part">
  <path d="M224 553 c4 -9 9 -42 13 -73 6 -64 10 -61 -89 -75 -68 -10 -50 -29
19 -21 53 6 54 6 48 -16 -12 -39 -51 -101 -96 -152 l-44 -50 43 24 c24 14 60
46 79 73 19 26 37 46 39 45 2 -2 -2 -50 -7 -107 -11 -110 -7 -151 15 -151 22
0 26 24 26 151 0 65 3 119 6 119 3 0 15 -11 26 -25 17 -21 23 -24 35 -13 13
11 12 15 -10 33 -13 11 -32 25 -42 30 -31 18 -11 52 35 60 22 4 42 11 45 16 8
12 -39 22 -65 14 -20 -6 -21 -5 -15 52 7 57 6 59 -19 71 -37 16 -49 15 -42 -5z"/>
</g>
<g id="part-2" class="char-part">
  <path d="M508 564 c6 -55 -3 -64 -68 -64 -33 0 -41 -3 -30 -10 8 -5 32 -10 54
-10 31 0 37 -3 32 -16 -3 -9 -6 -19 -6 -24 0 -4 -19 -11 -42 -16 l-43 -8 38
-4 c20 -2 37 -7 37 -13 0 -14 36 -11 49 5 6 7 39 16 73 20 34 3 67 11 73 17 7
9 -9 10 -62 5 -74 -6 -85 -1 -65 31 5 8 101 33 129 33 2 0 3 5 3 11 0 8 -18
10 -60 6 l-61 -7 7 35 c5 31 3 36 -21 45 -41 15 -43 13 -37 -36z"/>
</g>
<g id="part-3" class="char-part">
  <path d="M625 382 c-72 -11 -100 -11 -103 -3 -5 16 -52 14 -52 -3 0 -16 -30
-26 -82 -26 -21 0 -38 -4 -38 -10 0 -10 25 -14 68 -10 21 1 22 -1 13 -18 -6
-11 -34 -41 -63 -66 -29 -25 -47 -46 -40 -46 33 0 102 53 145 111 25 35 34 39
71 39 43 0 40 2 153 -101 34 -31 50 -39 80 -38 21 0 47 4 58 9 22 9 23 8 -55
35 -47 17 -160 85 -160 98 0 4 30 7 68 7 79 0 109 12 65 27 -19 6 -61 4 -128
-5z"/>
</g>
<g id="part-4" class="char-part">
  <path d="M517 276 c5 -34 4 -36 -23 -36 -16 0 -36 -5 -44 -10 -11 -7 -4 -10
28 -10 38 0 42 -2 42 -24 0 -23 -4 -25 -75 -31 -46 -5 -72 -11 -68 -17 3 -7
32 -8 74 -4 l69 6 0 -57 c0 -60 12 -95 24 -74 4 6 10 39 14 74 7 60 8 62 37
65 144 12 159 14 140 24 -11 7 -48 8 -96 4 -61 -5 -79 -4 -79 6 0 24 15 35 53
42 46 9 39 30 -9 24 -29 -3 -33 -1 -36 22 -2 19 -10 26 -30 28 -26 3 -27 2
-21 -32z"/>
</g>
</g>
</svg>