<?xml version="1.0" standalone="no"?>
<!DOCTYPE svg PUBLIC "-//W3C//DTD SVG 20010904//EN"
 "http://www.w3.org/TR/2001/REC-SVG-20010904/DTD/svg10.dtd">
<svg version="1.0" xmlns="http://www.w3.org/2000/svg"
 width="96.000000pt" height="68.000000pt" viewBox="0 0 96.000000 68.000000"
 preserveAspectRatio="xMidYMid meet">
<metadata>
Created by potrace 1.16, written by Peter Selinger 2001-2019
Combined from part_0.svg through part_5.svg with named groups
</metadata>
<g transform="translate(0.000000,68.000000) scale(0.100000,-0.100000)" fill="#000000" stroke="none">
<g id="part-0" class="char-part">
  <path d="M415 640 c-4 -6 -2 -17 5 -25 6 -7 10 -29 8 -47 -3 -33 -4 -33 -61
-38 -77 -7 -77 -24 1 -28 57 -3 62 -5 62 -26 0 -26 7 -24 -217 -42 -86 -7
-102 -17 -55 -35 19 -7 50 -7 105 1 44 6 80 10 82 8 7 -8 45 -93 45 -100 0 -4
-25 -8 -55 -8 -84 0 -65 -19 23 -22 75 -3 77 -4 77 -28 0 -30 -25 -37 -142
-39 -46 0 -83 -5 -83 -11 0 -16 62 -21 140 -12 41 5 78 8 83 5 4 -2 7 -40 7
-83 0 -43 4 -81 9 -85 14 -8 31 60 31 123 l0 52 135 0 c135 0 165 9 102 29
-23 8 -61 8 -127 1 -52 -5 -98 -6 -103 -1 -4 4 -5 19 -2 33 6 23 12 26 78 32
39 4 76 11 81 16 15 15 -20 23 -69 17 -36 -5 -43 -4 -39 8 4 8 9 15 13 15 11
0 39 54 34 68 -4 9 24 12 117 12 109 0 121 2 118 17 -5 27 -63 36 -164 24 -51
-6 -109 -11 -129 -11 -32 0 -36 3 -33 23 3 19 12 23 65 32 34 6 65 13 68 17
15 15 -37 28 -87 22 l-51 -7 6 42 c4 33 2 43 -13 51 -24 13 -57 13 -65 0z
m115 -234 c0 -22 -23 -80 -34 -88 -6 -4 -26 -8 -43 -8 -28 0 -33 4 -33 24 0
13 -14 37 -32 55 l-32 31 87 0 c66 0 87 -3 87 -14z"/>
</g>
<g id="part-1" class="char-part">
  <path d="M429 643 c-1 -5 -1 -31 1 -59 l2 -52 -61 -7 c-76 -9 -70 -27 8 -24
54 3 56 2 59 -23 4 -33 -6 -35 -175 -44 -73 -4 -133 -10 -133 -14 0 -22 81
-26 175 -9 33 6 160 14 283 17 219 7 263 15 195 37 -23 8 -68 7 -155 -2 -68
-7 -129 -11 -135 -8 -7 2 -13 15 -13 29 0 22 5 25 58 31 32 3 65 10 72 15 24
15 -14 23 -71 17 l-49 -6 0 44 c0 34 -5 47 -19 55 -23 12 -41 13 -42 3z"/>
</g>
<g id="part-2" class="char-part">
  <path d="M530 406 c0 -13 -7 -40 -15 -60 -14 -33 -19 -36 -55 -36 -35 0 -40 3
-40 24 0 22 -53 86 -72 86 -12 0 -10 -6 17 -60 14 -27 25 -52 25 -55 0 -3 -25
-5 -55 -5 -35 0 -55 -4 -55 -12 0 -12 247 -5 325 10 58 11 44 27 -21 25 l-54
-2 32 45 c27 38 30 47 18 54 -28 18 -50 11 -50 -14z"/>
</g>
<g id="part-3" class="char-part">
  <path d="M430 251 c0 -26 -3 -29 -46 -35 -26 -3 -75 -6 -110 -6 -34 0 -65 -4
-69 -9 -10 -17 58 -23 141 -13 43 5 82 7 87 5 4 -2 7 -42 7 -89 0 -46 4 -84
10 -84 14 0 30 68 30 128 l0 52 135 0 c135 0 165 9 102 29 -23 8 -61 8 -127 2
-51 -6 -97 -8 -102 -5 -4 3 -5 16 -2 30 6 22 3 24 -25 24 -27 0 -31 -3 -31
-29z"/>
</g>
</g>
</svg>