<?xml version="1.0" standalone="no"?>
<!DOCTYPE svg PUBLIC "-//W3C//DTD SVG 20010904//EN"
 "http://www.w3.org/TR/2001/REC-SVG-20010904/DTD/svg10.dtd">
<svg version="1.0" xmlns="http://www.w3.org/2000/svg"
 width="96.000000pt" height="68.000000pt" viewBox="0 0 96.000000 68.000000"
 preserveAspectRatio="xMidYMid meet">
<metadata>
Created by potrace 1.16, written by Peter Selinger 2001-2019
Combined from part_0.svg through part_5.svg with named groups
</metadata>
<g transform="translate(0.000000,68.000000) scale(0.100000,-0.100000)" fill="#000000" stroke="none">
<g id="part-0" class="char-part">
  <path d="M160 556 c0 -20 70 -76 96 -76 47 0 40 54 -9 69 -68 20 -87 22 -87 7z"/>
  <path d="M468 532 c-54 -8 -98 -19 -98 -24 0 -4 8 -8 18 -8 30 0 42 -22 42
-77 0 -52 0 -53 -30 -53 -16 0 -30 -4 -30 -10 0 -5 14 -10 31 -10 l31 0 -7
-74 c-5 -51 -3 -80 5 -96 l13 -23 13 24 c7 13 13 52 14 86 0 80 5 91 46 99 46
9 43 24 -5 24 l-39 0 -1 59 0 58 66 7 c36 4 67 5 70 3 2 -3 -1 -24 -6 -48 -15
-62 -13 -192 2 -221 27 -53 70 -78 133 -78 44 0 49 13 26 73 -18 48 -32 53
-32 12 0 -54 -56 -52 -84 3 -27 54 -26 111 2 195 22 67 24 80 12 87 -20 13
-75 10 -192 -8z"/>
  <path d="M178 398 c-69 -25 -75 -41 -13 -36 48 3 55 -6 34 -41 -10 -14 -7 -25
15 -57 46 -68 34 -84 -60 -84 -42 0 -54 -3 -54 -15 0 -26 45 -40 89 -27 63 20
94 14 263 -43 91 -31 179 -55 202 -55 42 0 196 48 196 61 0 8 -70 16 -225 24
-61 4 -154 17 -210 31 -55 13 -110 24 -122 24 -16 0 -20 5 -16 20 9 32 -6 69
-32 83 l-25 13 40 39 c47 46 50 62 14 75 -31 12 -26 13 -96 -12z"/>
</g>
<g id="part-1" class="char-part">
  <path d="M190 526 c42 -43 83 -52 88 -19 4 26 -18 40 -79 49 l-44 6 35 -36z"/>
  <path d="M188 396 c-32 -11 -58 -25 -58 -30 0 -5 23 -6 51 -2 l51 7 -22 -36
-22 -36 25 -27 c14 -15 27 -40 29 -57 l3 -30 -72 -3 c-40 -2 -73 -7 -73 -11 0
-24 31 -31 116 -25 88 6 90 5 251 -50 89 -31 173 -56 186 -56 28 0 167 46 181
60 7 7 -5 10 -35 10 -140 2 -305 20 -412 46 l-118 28 7 28 c5 23 0 34 -27 59
l-32 30 43 44 42 43 -28 15 c-26 13 -35 12 -86 -7z"/>
</g>
<g id="part-2" class="char-part">
  <path d="M468 532 c-54 -8 -98 -18 -98 -22 0 -17 51 -18 133 -3 52 9 92 12 97
7 5 -5 5 -26 0 -49 -5 -22 -10 -76 -10 -120 0 -62 4 -87 20 -112 24 -40 67
-63 117 -63 59 0 66 10 43 55 -11 22 -20 48 -20 60 0 16 -2 17 -10 5 -5 -8
-10 -25 -10 -36 0 -53 -56 -51 -84 4 -27 54 -26 111 2 195 22 67 24 80 12 87
-20 13 -76 11 -192 -8z"/>
</g>
<g id="part-3" class="char-part">
  <path d="M429 493 c0 -5 -1 -33 -2 -63 -2 -54 -2 -55 -35 -58 -40 -4 -32 -22
10 -22 l30 0 -7 -69 c-7 -75 -1 -111 19 -111 16 0 26 52 26 131 l0 56 40 7
c40 6 56 25 23 27 -60 4 -58 1 -61 57 -3 44 -6 52 -23 52 -10 0 -19 -3 -20 -7z"/>
</g>
</g>
</svg>