<?xml version="1.0" standalone="no"?>
<!DOCTYPE svg PUBLIC "-//W3C//DTD SVG 20010904//EN"
 "http://www.w3.org/TR/2001/REC-SVG-20010904/DTD/svg10.dtd">
<svg version="1.0" xmlns="http://www.w3.org/2000/svg"
 width="96.000000pt" height="68.000000pt" viewBox="0 0 96.000000 68.000000"
 preserveAspectRatio="xMidYMid meet">
<metadata>
Created by potrace 1.16, written by Peter Selinger 2001-2019
Combined from part_0.svg through part_5.svg with named groups
</metadata>
<g transform="translate(0.000000,68.000000) scale(0.100000,-0.100000)" fill="#000000" stroke="none">
<g id="part-0" class="char-part">
  <path d="M380 607 c0 -24 65 -77 93 -77 23 0 27 4 27 29 0 26 -5 30 -47 41
-27 6 -54 14 -60 16 -7 2 -13 -2 -13 -9z"/>
  <path d="M611 458 c-9 -22 -25 -39 -85 -86 -43 -33 -50 -29 -42 32 7 67 -3 73
-96 55 -89 -17 -98 -32 -18 -27 l65 3 0 -161 c0 -188 -5 -203 -61 -179 -19 8
-34 12 -34 10 0 -1 16 -19 36 -39 73 -73 104 -34 104 131 l0 108 86 -92 86
-93 84 0 c46 0 84 4 84 9 0 5 -37 23 -82 41 -91 35 -152 71 -212 124 l-39 34
94 49 c52 26 100 49 107 51 23 6 12 30 -19 41 -44 15 -48 14 -58 -11z"/>
  <path d="M280 339 c-25 -5 -66 -11 -93 -14 -26 -4 -45 -10 -42 -16 8 -12 68
-11 120 1 22 5 44 5 48 1 13 -13 -68 -101 -136 -148 -50 -35 -56 -43 -36 -43
39 0 119 53 194 129 66 68 68 71 50 86 -22 16 -38 16 -105 4z"/>
</g>
<g id="part-1" class="char-part">
  <path d="M415 570 c41 -42 69 -51 79 -25 10 27 -5 43 -49 54 -68 17 -72 14
-30 -29z"/>
</g>
<g id="part-2" class="char-part">
  <path d="M395 460 c-11 -5 -32 -9 -47 -9 -15 -1 -30 -6 -34 -12 -5 -8 12 -10
57 -8 57 4 63 2 68 -17 5 -18 10 -20 29 -13 18 7 23 15 20 36 -3 24 -8 28 -38
30 -19 1 -44 -2 -55 -7z"/>
</g>
<g id="part-3" class="char-part">
  <path d="M612 455 c-6 -13 -36 -44 -66 -67 -30 -23 -53 -45 -50 -47 8 -8 204
92 204 104 0 12 -42 35 -64 35 -7 0 -18 -11 -24 -25z"/>
  <path d="M453 393 c-9 -3 -13 -34 -14 -101 0 -53 -4 -119 -7 -147 -6 -45 -9
-50 -32 -49 -14 0 -36 4 -49 8 -19 7 -15 0 19 -33 81 -77 110 -44 110 126 l1
108 31 -35 c17 -19 55 -61 85 -92 l53 -58 85 0 c46 0 86 3 89 8 2 4 -35 23
-82 41 -148 58 -262 145 -262 200 0 31 -4 34 -27 24z"/>
  <path d="M270 338 c-122 -20 -136 -24 -116 -33 10 -5 50 -4 87 1 61 9 69 8 69
-7 0 -19 -97 -113 -157 -154 -50 -32 -53 -38 -15 -29 58 14 120 55 190 126
l73 73 -22 18 c-23 19 -28 19 -109 5z"/>
</g>
</g>
</svg>