<?xml version="1.0" standalone="no"?>
<!DOCTYPE svg PUBLIC "-//W3C//DTD SVG 20010904//EN"
 "http://www.w3.org/TR/2001/REC-SVG-20010904/DTD/svg10.dtd">
<svg version="1.0" xmlns="http://www.w3.org/2000/svg"
 width="96.000000pt" height="68.000000pt" viewBox="0 0 96.000000 68.000000"
 preserveAspectRatio="xMidYMid meet">
<metadata>
Created by potrace 1.16, written by Peter Selinger 2001-2019
Combined from part_0.svg through part_5.svg with named groups
</metadata>
<g transform="translate(0.000000,68.000000) scale(0.100000,-0.100000)" fill="#000000" stroke="none">
<g id="part-0" class="char-part">
  <path d="M460 583 c0 -14 52 -73 65 -73 41 0 21 52 -26 69 -37 13 -39 13 -39
4z"/>
  <path d="M176 531 c-3 -4 13 -26 34 -49 44 -47 80 -56 80 -19 0 12 -4 27 -8
33 -9 14 -100 45 -106 35z"/>
  <path d="M510 495 c-47 -7 -111 -16 -144 -20 -55 -6 -57 -8 -37 -21 27 -19 27
-66 2 -167 -24 -92 -38 -121 -96 -192 -53 -64 -43 -72 18 -15 38 34 107 151
107 180 0 6 28 10 68 10 37 0 83 3 102 6 l35 6 4 -109 c1 -59 7 -114 13 -120
29 -36 175 -40 226 -7 18 12 21 18 12 29 -6 8 -15 26 -19 42 l-8 28 -11 -25
c-17 -43 -35 -51 -109 -48 l-68 3 0 45 0 45 78 15 c77 16 92 26 63 45 -11 7
-29 3 -61 -13 -64 -31 -78 -29 -70 7 5 24 2 32 -17 43 -23 12 -23 13 12 18 19
3 40 2 47 -2 13 -11 42 17 69 67 25 47 10 61 -62 58 -58 -3 -59 -2 -44 28 8
15 7 21 -5 25 -30 12 -2 24 56 24 44 0 60 3 57 13 -6 17 -113 18 -218 2z m60
-65 c0 -36 -3 -40 -25 -41 -14 -1 -31 -2 -37 -3 -16 -1 -29 72 -14 78 6 2 26
5 44 5 31 1 32 0 32 -39z m-116 -5 c9 -45 2 -55 -35 -55 -25 0 -29 4 -29 29 0
44 10 61 35 61 18 0 24 -7 29 -35z m222 -77 c-8 -42 -15 -47 -53 -41 -30 5
-32 8 -27 32 9 37 9 37 50 39 36 3 37 3 30 -30z m-111 12 c3 -5 3 -21 -1 -35
-5 -21 -12 -25 -40 -25 -31 0 -34 3 -34 29 0 23 5 31 23 34 39 8 46 7 52 -3z
m-103 -24 c7 -35 -1 -43 -50 -48 -39 -3 -43 -2 -38 17 3 11 6 25 6 32 0 11 21
18 61 22 10 0 18 -9 21 -23z"/>
  <path d="M110 388 c0 -22 66 -80 86 -76 29 5 29 44 2 62 -36 24 -88 32 -88 14z"/>
  <path d="M225 255 c-16 -25 -49 -59 -72 -77 -46 -34 -49 -43 -31 -83 21 -46
41 -30 96 78 29 56 52 108 52 115 0 23 -15 12 -45 -33z"/>
  <path d="M386 148 c1 -75 5 -113 12 -116 12 -4 104 49 129 74 20 19 9 18 -38
-7 -54 -27 -66 -21 -61 30 4 40 5 41 41 41 20 0 43 4 51 10 24 15 -12 23 -54
12 l-36 -10 0 33 c0 30 -13 45 -38 45 -4 0 -7 -50 -6 -112z"/>
</g>
<g id="part-1" class="char-part">
  <path d="M189 514 c33 -42 65 -74 77 -74 35 0 25 56 -12 70 -14 6 -37 13 -52
17 -25 6 -26 5 -13 -13z"/>
  <path d="M110 391 c0 -12 75 -81 88 -81 17 0 15 45 -3 60 -17 14 -85 31 -85
21z"/>
  <path d="M250 280 c0 -6 -31 -42 -69 -79 -68 -68 -68 -69 -55 -100 7 -17 18
-31 23 -31 6 0 32 42 58 93 60 116 65 127 53 127 -6 0 -10 -5 -10 -10z"/>
</g>
<g id="part-2" class="char-part">
  <path d="M468 563 c29 -42 49 -56 67 -49 37 14 1 61 -55 72 l-34 7 22 -30z"/>
  <path d="M500 494 c-193 -26 -184 -23 -166 -43 46 -51 -13 -252 -106 -363 -49
-59 -33 -63 27 -7 61 56 101 142 125 268 12 58 22 106 23 107 1 1 77 8 169 15
135 11 165 16 156 26 -13 16 -97 15 -228 -3z"/>
</g>
<g id="part-3" class="char-part">
  <path d="M570 430 l0 -40 -41 0 c-40 0 -41 1 -36 29 4 21 2 31 -9 35 -32 12
-37 6 -30 -33 l6 -39 -40 -7 c-22 -4 -37 -11 -34 -16 3 -5 21 -7 40 -3 34 6
34 6 34 -30 l0 -36 -45 0 c-25 0 -45 -5 -45 -10 0 -8 51 -9 156 -6 l157 5 33
50 c30 44 32 51 18 62 -10 8 -37 12 -70 11 -53 -2 -54 -2 -44 23 8 20 6 27
-10 35 -32 17 -40 11 -40 -30z m106 -82 c-8 -42 -15 -47 -53 -41 -30 5 -32 8
-27 32 10 39 12 41 51 41 35 0 35 -1 29 -32z m-111 11 c4 -5 4 -21 1 -35 -6
-21 -12 -25 -39 -22 -26 2 -33 8 -35 30 -3 22 1 27 25 31 15 2 31 5 35 6 4 0
10 -4 13 -10z"/>
</g>
<g id="part-4" class="char-part">
  <path d="M568 168 c2 -69 8 -108 17 -117 33 -34 218 -32 231 3 3 7 -3 30 -12
52 l-16 39 -12 -35 c-11 -34 -12 -35 -71 -38 -94 -5 -105 1 -105 52 l0 43 73
13 c84 15 97 19 97 31 0 17 -48 20 -79 5 -17 -9 -43 -21 -57 -26 -26 -10 -26
-10 -20 24 6 29 3 37 -13 45 -11 6 -23 11 -28 11 -4 0 -7 -46 -5 -102z"/>
</g>
</g>
</svg>