<?xml version="1.0" standalone="no"?>
<!DOCTYPE svg PUBLIC "-//W3C//DTD SVG 20010904//EN"
 "http://www.w3.org/TR/2001/REC-SVG-20010904/DTD/svg10.dtd">
<svg version="1.0" xmlns="http://www.w3.org/2000/svg"
 width="96.000000pt" height="68.000000pt" viewBox="0 0 96.000000 68.000000"
 preserveAspectRatio="xMidYMid meet">
<metadata>
Created by potrace 1.16, written by Peter Selinger 2001-2019
Combined from part_0.svg through part_5.svg with named groups
</metadata>
<g transform="translate(0.000000,68.000000) scale(0.100000,-0.100000)" fill="#000000" stroke="none">
<g id="part-0" class="char-part">
  <path d="M669 546 c-3 -3 -261 -36 -284 -36 -3 0 -5 -4 -5 -10 0 -5 18 -10 40
-10 35 0 40 -3 46 -27 4 -14 7 -43 8 -62 l1 -36 -64 -3 -63 -3 7 -37 c4 -20 9
-52 10 -70 3 -41 20 -61 37 -44 7 7 25 12 40 12 29 0 29 0 26 -58 l-3 -57 -70
-3 c-86 -3 -108 -9 -83 -23 16 -9 526 8 537 17 3 2 -4 11 -15 19 -15 13 -36
15 -101 10 l-83 -6 0 54 c0 62 6 67 75 67 41 0 43 1 48 36 3 20 14 45 24 56
17 19 17 20 -2 34 -12 9 -44 14 -88 14 l-70 0 7 46 c3 26 6 55 6 64 0 13 11
19 42 24 23 4 37 10 32 15 -12 11 -49 23 -55 17z m-75 -130 l-2 -78 37 6 c20
3 45 8 56 11 36 9 49 -8 38 -51 -9 -39 -9 -39 -64 -42 l-56 -3 5 -68 c4 -65 3
-68 -19 -74 -33 -9 -67 -9 -72 1 -3 4 -1 30 3 57 11 68 1 78 -67 69 l-54 -6 3
48 3 49 53 3 54 3 -2 72 c-1 40 -2 76 -1 80 1 5 20 7 44 5 l42 -3 -1 -79z"/>
  <path d="M245 438 c-11 -6 -50 -12 -87 -12 -38 -1 -68 -3 -68 -5 0 -3 6 -12
14 -20 7 -9 19 -44 26 -78 14 -70 36 -99 51 -70 7 12 23 17 52 18 59 1 72 9
75 48 1 19 10 50 19 69 16 33 16 35 -2 48 -23 17 -53 17 -80 2z m15 -63 c0
-48 -18 -75 -49 -75 -25 0 -30 5 -39 42 -6 23 -9 44 -7 47 7 6 79 18 88 14 4
-2 7 -15 7 -28z"/>
</g>
<g id="part-1" class="char-part">
  <path d="M235 430 c-11 -5 -48 -9 -83 -9 -58 -1 -62 -2 -48 -17 9 -8 19 -27
22 -42 17 -76 26 -102 36 -108 7 -4 14 -2 16 4 2 6 30 14 63 18 37 4 58 11 56
18 -2 6 5 35 15 64 11 29 17 59 14 67 -6 17 -58 19 -91 5z m25 -70 c0 -52 -1
-53 -52 -64 -24 -6 -28 -3 -37 31 -17 61 -15 71 22 76 71 9 67 11 67 -43z"/>
</g>
<g id="part-2" class="char-part">
  <path d="M659 545 c-5 -4 -246 -35 -277 -35 -7 0 -10 -5 -6 -11 14 -23 354 7
354 31 0 13 -61 26 -71 15z"/>
</g>
<g id="part-3" class="char-part">
  <path d="M464 468 c3 -12 9 -42 12 -65 4 -27 12 -43 21 -43 11 0 13 14 11 63
-3 57 -5 62 -27 65 -21 3 -23 1 -17 -20z"/>
</g>
<g id="part-4" class="char-part">
  <path d="M719 126 c-2 -2 -97 -10 -211 -17 -115 -7 -208 -16 -208 -20 0 -4 7
-10 16 -13 16 -6 525 14 533 21 3 2 -4 10 -15 18 -17 13 -104 21 -115 11z"/>
</g>
</g>
</svg>