<?xml version="1.0" standalone="no"?>
<!DOCTYPE svg PUBLIC "-//W3C//DTD SVG 20010904//EN"
 "http://www.w3.org/TR/2001/REC-SVG-20010904/DTD/svg10.dtd">
<svg version="1.0" xmlns="http://www.w3.org/2000/svg"
 width="96.000000pt" height="68.000000pt" viewBox="0 0 96.000000 68.000000"
 preserveAspectRatio="xMidYMid meet">
<metadata>
Created by potrace 1.16, written by Peter Selinger 2001-2019
Combined from part_0.svg through part_5.svg with named groups
</metadata>
<g transform="translate(0.000000,68.000000) scale(0.100000,-0.100000)" fill="#000000" stroke="none">
<g id="part-0" class="char-part">
  <path d="M251 495 c-11 -24 -40 -66 -65 -93 -65 -69 -50 -100 33 -71 18 6 34
9 37 6 3 -2 -19 -27 -48 -55 -40 -39 -50 -54 -41 -62 8 -9 27 -6 76 14 71 28
103 33 109 14 5 -15 28 -1 28 17 0 8 -13 21 -30 30 -37 19 -46 19 -30 0 10
-12 8 -16 -11 -24 -34 -12 -89 -23 -89 -18 0 9 61 67 71 67 5 0 9 4 9 9 0 5
16 19 35 32 40 27 52 53 35 74 -19 22 -26 19 -47 -22 -18 -34 -25 -38 -63 -41
l-43 -3 52 60 c29 34 57 64 63 67 13 8 -21 44 -43 44 -12 0 -25 -16 -38 -45z"/>
  <path d="M655 503 c12 -31 18 -110 9 -116 -5 -3 -38 -7 -74 -9 l-65 -3 3 29
c4 30 -10 46 -40 46 -15 0 -17 -7 -11 -45 6 -45 6 -45 -24 -45 -17 0 -45 -3
-63 -6 -44 -9 -18 -24 43 -24 46 0 47 -1 47 -31 0 -16 -5 -61 -12 -100 -8 -53
-8 -76 1 -96 l12 -26 23 22 c17 16 35 21 79 21 51 0 58 -3 67 -24 12 -34 25
-38 44 -17 14 15 17 41 18 149 l0 130 34 7 c19 3 38 4 42 1 4 -3 14 0 22 5 23
14 -6 29 -55 29 l-40 0 3 45 c5 52 -9 75 -45 75 -20 0 -24 -4 -18 -17z m10
-193 c0 -33 -4 -44 -14 -42 -7 2 -38 -2 -68 -8 -30 -7 -59 -8 -63 -3 -5 4 -6
27 -3 50 l6 42 51 4 c92 7 91 7 91 -43z m3 -120 l-3 -42 -77 -3 -78 -3 0 39
c0 23 5 41 13 43 34 10 133 21 140 15 5 -3 7 -25 5 -49z"/>
  <path d="M320 215 c0 -15 34 -55 46 -55 25 0 16 40 -12 50 -29 11 -34 12 -34
5z"/>
  <path d="M230 195 c0 -3 8 -18 17 -33 30 -47 53 -55 53 -19 0 22 -9 29 -62 55
-5 2 -8 1 -8 -3z"/>
  <path d="M130 162 c0 -18 46 -77 63 -80 23 -5 23 29 0 56 -20 22 -63 39 -63
24z"/>
</g>
<g id="part-1" class="char-part">
  <path d="M264 513 c-8 -33 -52 -99 -88 -132 -26 -25 -33 -46 -17 -55 10 -6
121 24 121 33 0 4 -16 5 -35 3 -19 -2 -35 -1 -35 3 0 4 25 35 55 68 60 68 65
81 36 97 -28 14 -30 13 -37 -17z"/>
</g>
<g id="part-2" class="char-part">
  <path d="M320 215 c0 -15 34 -55 46 -55 21 0 17 38 -5 50 -21 11 -41 13 -41 5z"/>
  <path d="M230 191 c0 -13 50 -71 61 -71 5 0 9 11 9 25 0 17 -9 29 -30 40 -34
17 -40 18 -40 6z"/>
  <path d="M130 162 c0 -18 46 -77 63 -80 23 -5 23 29 0 56 -20 22 -63 39 -63
24z"/>
</g>
<g id="part-3" class="char-part">
  <path d="M653 498 c4 -13 9 -42 13 -64 7 -47 7 -48 -83 -59 l-53 -7 0 36 c0
29 -5 38 -22 45 -33 12 -50 3 -38 -19 6 -10 10 -30 10 -44 0 -22 -5 -26 -29
-26 -16 0 -43 -3 -61 -6 -44 -9 -18 -24 43 -24 55 0 55 1 35 -136 -10 -67 -9
-85 2 -98 12 -15 14 -15 32 1 12 10 41 18 78 21 57 4 60 3 72 -24 17 -40 16
-39 38 -19 18 16 20 31 20 151 l0 133 57 7 c51 6 55 8 38 20 -10 8 -34 14 -52
14 l-33 0 0 54 c0 56 -8 66 -52 66 -16 0 -19 -5 -15 -22z m15 -228 c4 -128 6
-125 -83 -127 l-75 -2 1 77 c2 117 6 126 64 133 93 12 90 15 93 -81z"/>
</g>
<g id="part-4" class="char-part">
  <path d="M568 258 c-77 -14 -77 -33 0 -25 74 8 99 17 80 28 -7 5 -15 8 -18 8
-3 -1 -31 -6 -62 -11z"/>
</g>
</g>
</svg>