<?xml version="1.0" standalone="no"?>
<!DOCTYPE svg PUBLIC "-//W3C//DTD SVG 20010904//EN"
 "http://www.w3.org/TR/2001/REC-SVG-20010904/DTD/svg10.dtd">
<svg version="1.0" xmlns="http://www.w3.org/2000/svg"
 width="96.000000pt" height="68.000000pt" viewBox="0 0 96.000000 68.000000"
 preserveAspectRatio="xMidYMid meet">
<metadata>
Created by potrace 1.16, written by Peter Selinger 2001-2019
Combined from part_0.svg through part_5.svg with named groups
</metadata>
<g transform="translate(0.000000,68.000000) scale(0.100000,-0.100000)" fill="#000000" stroke="none">
<g id="part-0" class="char-part">
  <path d="M634 578 c-3 -13 -14 -31 -23 -41 -15 -18 -13 -21 19 -48 34 -28 59
-34 63 -14 1 6 -13 17 -30 25 -40 18 -41 28 -6 55 15 13 23 27 19 33 -12 19
-34 14 -42 -10z"/>
  <path d="M530 576 c0 -7 -10 -25 -21 -40 l-22 -27 34 -35 c23 -24 36 -31 43
-23 8 8 2 18 -21 36 l-32 25 32 29 c27 24 30 30 17 39 -21 13 -30 12 -30 -4z"/>
  <path d="M400 535 c-11 -26 -20 -50 -19 -53 1 -14 59 -53 70 -47 13 8 -18 45
-38 45 -20 0 -16 11 18 46 31 32 31 32 10 44 -20 10 -23 7 -41 -35z"/>
  <path d="M260 539 c-14 -6 -45 -9 -70 -7 -36 2 -44 0 -41 -12 2 -8 6 -55 8
-105 7 -116 -10 -224 -48 -304 -16 -35 -27 -66 -25 -69 3 -2 21 11 40 30 30
30 66 113 66 154 0 7 8 10 21 7 13 -4 30 3 50 23 l29 28 0 -50 c0 -27 -3 -66
-6 -87 -6 -36 -9 -38 -35 -32 -40 9 -37 -12 7 -49 l35 -29 22 22 c21 20 22 32
27 244 5 187 3 224 -9 235 -17 14 -37 15 -71 1z m28 -83 c3 -47 2 -48 -20 -42
-13 3 -31 6 -40 6 -14 0 -18 9 -18 39 0 41 11 51 55 48 17 -2 21 -10 23 -51z
m-16 -96 c28 0 17 -41 -15 -60 -50 -31 -57 -27 -57 35 l0 56 30 -16 c16 -8 35
-15 42 -15z"/>
  <path d="M600 434 c-36 -7 -103 -12 -149 -13 -75 -1 -82 -3 -76 -18 5 -10 13
-42 18 -71 8 -41 14 -51 26 -47 8 3 69 8 135 11 66 2 123 8 127 12 22 24 59
106 51 114 -18 18 -70 23 -132 12z m75 -24 c6 -10 -15 -80 -25 -80 -3 -1 -36
-4 -75 -7 -38 -4 -88 -7 -110 -7 -40 -1 -40 -1 -43 40 l-3 41 62 7 c34 3 74 6
88 6 25 -1 25 -1 7 -15 -11 -8 -38 -15 -60 -15 -39 -1 -40 -1 -18 -14 l23 -12
-23 -12 c-21 -11 -21 -11 7 -4 17 4 53 6 80 5 l50 -3 -24 19 -24 19 21 6 c12
4 22 14 22 22 0 16 36 19 45 4z"/>
  <path d="M630 260 c0 -12 7 -50 17 -87 19 -79 66 -134 130 -153 66 -20 74 -12
55 56 l-16 57 -11 -34 c-6 -18 -16 -34 -23 -37 -18 -6 -49 16 -78 54 -22 29
-27 45 -26 87 0 28 -4 57 -10 64 -16 20 -38 15 -38 -7z"/>
  <path d="M515 213 c2 -32 -1 -82 -6 -111 -14 -74 -3 -83 55 -42 52 38 61 58
16 35 l-31 -16 3 68 c3 66 4 68 31 71 15 2 27 8 27 14 0 6 -12 8 -30 5 -25 -6
-30 -3 -30 13 0 13 -7 20 -20 20 -18 0 -19 -6 -15 -57z"/>
  <path d="M382 179 c-1 -45 -4 -94 -7 -109 -9 -42 10 -45 59 -8 51 37 60 54 19
33 -34 -18 -45 -8 -37 33 6 28 10 32 40 32 19 0 34 5 34 11 0 8 -12 10 -36 6
-32 -5 -35 -4 -32 16 2 17 11 23 36 25 17 2 32 8 32 14 0 6 -13 8 -35 4 -28
-6 -35 -4 -35 9 0 8 -9 15 -19 15 -17 0 -19 -8 -19 -81z"/>
  <path d="M560 170 c0 -5 11 -10 24 -10 14 0 28 5 31 10 4 6 -7 10 -24 10 -17
0 -31 -4 -31 -10z"/>
</g>
<g id="part-1" class="char-part">
  <path d="M210 533 l-55 -4 0 -162 c0 -172 -7 -208 -52 -279 -13 -21 -19 -38
-14 -38 21 0 70 76 86 132 13 47 20 58 32 53 11 -3 29 6 50 27 l34 33 -3 -90
-3 -90 -29 -3 -28 -4 28 -29 c61 -64 72 -30 76 244 l3 217 -35 -2 c-19 -1 -60
-3 -90 -5z m80 -79 c0 -48 -2 -55 -17 -51 -10 3 -30 8 -45 11 -29 7 -35 25
-22 74 5 18 13 22 45 22 l39 0 0 -56z m0 -121 c0 -22 -14 -34 -64 -53 l-26
-10 0 65 0 64 45 -22 c33 -16 45 -28 45 -44z"/>
</g>
<g id="part-2" class="char-part">
  <path d="M397 531 l-23 -49 33 -27 c37 -29 65 -25 37 6 -9 10 -23 19 -31 19
-20 0 -16 11 19 47 27 28 30 35 18 43 -24 15 -28 13 -53 -39z"/>
</g>
<g id="part-3" class="char-part">
  <path d="M622 558 l-23 -43 33 -27 c34 -28 58 -32 65 -11 2 6 -12 17 -31 24
-20 7 -36 16 -36 19 0 4 11 17 25 30 29 27 33 50 8 50 -11 0 -28 -18 -41 -42z"/>
</g>
<g id="part-4" class="char-part">
  <path d="M642 198 c22 -96 53 -142 112 -169 47 -22 86 -24 86 -6 0 6 -6 35
-13 62 l-14 50 -7 -37 c-9 -48 -32 -50 -81 -7 -38 33 -61 95 -50 136 7 28 -9
53 -35 53 -16 0 -16 -5 2 -82z"/>
</g>
</g>
</svg>