<?xml version="1.0" standalone="no"?>
<!DOCTYPE svg PUBLIC "-//W3C//DTD SVG 20010904//EN"
 "http://www.w3.org/TR/2001/REC-SVG-20010904/DTD/svg10.dtd">
<svg version="1.0" xmlns="http://www.w3.org/2000/svg"
 width="96.000000pt" height="68.000000pt" viewBox="0 0 96.000000 68.000000"
 preserveAspectRatio="xMidYMid meet">
<metadata>
Created by potrace 1.16, written by Peter Selinger 2001-2019
Combined from part_0.svg through part_5.svg with named groups
</metadata>
<g transform="translate(0.000000,68.000000) scale(0.100000,-0.100000)" fill="#000000" stroke="none">
<g id="part-0" class="char-part">
  <path d="M207 568 c11 -31 8 -339 -5 -413 -8 -47 -7 -66 4 -88 8 -15 18 -27
23 -27 23 0 30 39 37 208 4 100 10 182 13 182 3 0 12 -9 19 -20 20 -33 72 -22
72 16 0 3 -21 14 -46 26 -46 20 -46 20 -40 60 8 49 -13 78 -56 78 -26 0 -28
-2 -21 -22z"/>
  <path d="M528 552 c-121 -15 -150 -29 -75 -34 37 -3 42 -6 45 -30 5 -46 -13
-68 -59 -68 -22 0 -38 -4 -35 -9 4 -5 22 -8 41 -7 39 3 40 0 24 -56 l-10 -38
-62 -1 c-34 0 -71 -4 -82 -9 -42 -17 38 -23 140 -12 55 7 162 13 238 13 75 1
140 5 143 10 10 17 -51 31 -113 26 -34 -2 -64 -3 -66 0 -6 5 21 61 34 68 18
12 9 36 -18 46 -19 7 -41 7 -76 -2 -26 -6 -50 -9 -53 -7 -2 3 0 17 5 30 6 17
6 29 -1 36 -13 13 6 18 90 27 34 4 62 11 62 15 0 9 -27 21 -43 18 -7 0 -65 -8
-129 -16z m95 -158 c-1 -11 -7 -32 -12 -47 -10 -25 -15 -27 -66 -27 -50 0 -69
10 -46 24 5 3 12 18 16 33 9 36 22 44 70 41 34 -3 40 -6 38 -24z"/>
  <path d="M126 371 c-34 -68 -35 -101 -2 -101 17 0 27 8 34 28 20 51 23 87 9
106 -13 18 -16 16 -41 -33z"/>
  <path d="M580 239 c-19 -5 -70 -9 -112 -11 -70 -2 -76 -3 -64 -17 7 -9 19 -41
26 -71 17 -82 18 -84 33 -72 7 6 59 14 115 18 82 5 102 10 98 21 -7 16 22 93
35 93 19 0 8 27 -16 38 -29 14 -64 14 -115 1z m55 -66 c-4 -27 -9 -50 -11 -52
-8 -9 -152 -13 -156 -5 -3 5 -9 28 -13 51 l-7 42 59 4 c32 2 75 4 97 5 l38 2
-7 -47z"/>
</g>
<g id="part-1" class="char-part">
  <path d="M209 572 c20 -38 23 -168 7 -325 -16 -155 -13 -197 14 -197 22 0 30
47 30 183 0 80 3 159 6 176 l7 32 28 -27 c29 -27 59 -27 59 0 0 16 -48 46 -75
46 -13 0 -14 9 -9 53 6 50 5 53 -20 65 -41 18 -59 16 -47 -6z"/>
  <path d="M125 361 c-27 -54 -26 -91 1 -91 29 0 55 97 35 129 -7 11 -16 1 -36
-38z"/>
</g>
<g id="part-2" class="char-part">
  <path d="M629 566 c-3 -3 -55 -10 -116 -17 -121 -13 -142 -29 -38 -29 64 0
216 18 225 26 7 8 -23 24 -46 24 -11 0 -23 -2 -25 -4z"/>
</g>
<g id="part-3" class="char-part">
  <path d="M699 336 c-2 -3 -87 -10 -189 -17 -192 -12 -239 -21 -185 -35 16 -4
73 -2 125 4 52 7 159 12 237 12 141 0 182 10 128 30 -26 10 -108 14 -116 6z"/>
</g>
<g id="part-4" class="char-part">
  <path d="M575 240 c-22 -5 -72 -10 -112 -11 -71 -1 -72 -2 -58 -23 7 -11 19
-43 25 -71 18 -77 19 -79 33 -67 6 6 58 13 115 17 90 7 102 10 97 24 -3 10 6
39 20 66 13 27 23 50 22 51 -32 24 -71 28 -142 14z m62 -60 c-8 -62 -20 -70
-98 -70 -37 0 -70 3 -72 8 -3 4 -8 26 -12 49 l-7 42 49 4 c26 2 70 4 97 5 l49
2 -6 -40z"/>
</g>
</g>
</svg>