<?xml version="1.0" standalone="no"?>
<!DOCTYPE svg PUBLIC "-//W3C//DTD SVG 20010904//EN"
 "http://www.w3.org/TR/2001/REC-SVG-20010904/DTD/svg10.dtd">
<svg version="1.0" xmlns="http://www.w3.org/2000/svg"
 width="96.000000pt" height="68.000000pt" viewBox="0 0 96.000000 68.000000"
 preserveAspectRatio="xMidYMid meet">
<metadata>
Created by potrace 1.16, written by Peter Selinger 2001-2019
Combined from part_0.svg through part_5.svg with named groups
</metadata>
<g transform="translate(0.000000,68.000000) scale(0.100000,-0.100000)" fill="#000000" stroke="none">
<g id="part-0" class="char-part">
  <path d="M448 513 c3 -135 6 -147 35 -160 60 -28 234 -23 252 7 6 10 -17 90
-25 90 -3 0 -11 -13 -17 -30 -13 -35 -46 -50 -111 -50 -72 0 -97 17 -97 65 l0
39 90 27 c50 15 92 28 94 28 2 1 -4 10 -14 21 -18 20 -45 27 -45 12 0 -10 -64
-46 -99 -57 -24 -7 -24 -7 -18 48 6 45 4 56 -9 61 -37 14 -39 9 -36 -101z"/>
  <path d="M195 448 c0 -118 2 -133 17 -136 10 -2 57 20 105 50 93 56 94 71 2
44 -29 -9 -54 -16 -56 -16 -2 0 -3 17 -3 38 l0 39 68 9 c49 7 67 13 67 24 0
17 -25 18 -92 6 -42 -8 -43 -7 -43 21 0 34 -16 53 -45 53 -19 0 -20 -6 -20
-132z"/>
  <path d="M379 338 c-20 -39 -51 -68 -73 -68 -20 0 -21 -5 -20 -93 1 -50 2 -98
3 -104 1 -15 28 -18 33 -4 2 4 50 11 106 13 101 5 104 4 114 -18 27 -58 45
-17 50 109 3 106 3 108 -20 114 -22 5 -110 -1 -182 -14 l-34 -6 39 34 c22 18
42 35 45 37 6 4 -22 22 -37 22 -7 0 -18 -10 -24 -22z m159 -104 l3 -31 -68 -6
c-37 -4 -87 -7 -110 -7 -41 0 -43 2 -43 29 0 29 1 30 68 36 37 3 74 8 82 10 8
2 26 2 40 2 20 -2 26 -8 28 -33z m2 -89 c0 -31 -2 -34 -27 -33 -16 1 -65 -1
-110 -6 l-83 -7 0 29 c0 28 2 29 68 39 37 5 86 11 110 11 42 2 42 2 42 -33z"/>
</g>
<g id="part-1" class="char-part">
  <path d="M197 458 c1 -68 2 -126 2 -130 2 -19 48 -5 112 33 38 23 72 46 75 51
6 9 -31 2 -74 -13 -49 -18 -62 -12 -62 30 l0 38 53 7 c76 10 98 17 91 28 -6
10 -64 6 -119 -8 -24 -6 -25 -4 -25 34 0 27 -5 42 -16 46 -37 14 -39 9 -37
-116z"/>
</g>
<g id="part-2" class="char-part">
  <path d="M448 513 c3 -137 6 -147 39 -162 61 -28 230 -21 249 10 3 6 -2 31
-11 56 l-18 46 -11 -34 c-13 -41 -46 -59 -108 -59 -59 0 -97 17 -104 46 -12
48 -3 57 90 84 49 14 91 30 93 36 2 6 -8 16 -22 24 -22 12 -28 11 -48 -7 -25
-23 -80 -53 -98 -53 -8 0 -10 15 -5 52 7 53 0 67 -34 68 -13 0 -15 -17 -12
-107z"/>
</g>
<g id="part-3" class="char-part">
  <path d="M379 338 c-6 -13 -21 -33 -32 -45 -32 -35 2 -30 49 8 52 41 50 39 34
49 -24 15 -38 12 -51 -12z"/>
</g>
<g id="part-4" class="char-part">
  <path d="M440 279 c-25 -4 -70 -8 -100 -8 l-55 -1 0 -98 c0 -102 9 -137 29
-110 8 11 40 16 118 21 100 5 106 5 111 -15 4 -12 12 -18 24 -16 16 3 19 17
23 108 4 84 3 107 -9 118 -16 13 -71 14 -141 1z m94 -25 c18 -46 11 -50 -96
-61 -57 -6 -106 -9 -110 -6 -5 2 -8 17 -8 33 0 27 2 29 58 35 31 3 64 8 72 9
42 9 78 5 84 -10z m6 -109 l0 -35 -64 0 c-35 0 -84 -3 -110 -6 l-47 -7 3 33
c3 33 4 33 63 37 33 3 62 7 64 9 2 2 24 4 48 4 43 0 43 0 43 -35z"/>
</g>
</g>
</svg>