<?xml version="1.0" standalone="no"?>
<!DOCTYPE svg PUBLIC "-//W3C//DTD SVG 20010904//EN"
 "http://www.w3.org/TR/2001/REC-SVG-20010904/DTD/svg10.dtd">
<svg version="1.0" xmlns="http://www.w3.org/2000/svg"
 width="96.000000pt" height="68.000000pt" viewBox="0 0 96.000000 68.000000"
 preserveAspectRatio="xMidYMid meet">
<metadata>
Created by potrace 1.16, written by Peter Selinger 2001-2019
Combined from part_0.svg through part_5.svg with named groups
</metadata>
<g transform="translate(0.000000,68.000000) scale(0.100000,-0.100000)" fill="#000000" stroke="none">
<g id="part-0" class="char-part">
  <path d="M561 595 c-26 -44 -41 -50 -91 -37 -48 12 -51 8 -8 -14 l32 -17 -26
-21 c-15 -11 -37 -29 -50 -38 l-23 -18 26 9 c14 5 41 19 60 30 42 26 59 26
106 1 48 -26 86 -27 81 -2 -2 11 -20 22 -51 31 -26 8 -47 20 -47 26 0 7 16 20
35 31 19 10 35 22 35 27 0 6 -42 27 -55 27 -2 0 -12 -16 -24 -35z"/>
  <path d="M202 549 c7 -21 86 -72 102 -66 29 12 19 47 -19 63 -41 17 -88 19
-83 3z"/>
  <path d="M480 441 c0 -28 0 -29 -77 -36 -42 -4 -86 -10 -97 -15 -35 -12 34
-23 100 -14 l56 7 -15 -29 c-17 -32 -74 -89 -126 -124 -19 -13 -29 -26 -23
-28 7 -2 41 17 77 42 36 25 68 46 70 46 11 0 4 -108 -9 -157 -15 -55 -11 -96
8 -90 6 2 17 27 25 55 15 57 16 58 109 65 l52 4 0 -38 c0 -38 -1 -39 -37 -39
l-38 -1 39 -35 c22 -19 45 -33 50 -31 24 8 34 58 38 181 3 128 3 129 -21 138
-21 7 -60 3 -163 -17 -22 -4 -23 22 -3 49 12 16 35 20 167 28 84 5 155 11 158
14 2 3 -2 10 -10 15 -15 10 -118 7 -229 -7 -38 -5 -52 -4 -47 4 6 10 -29 42
-46 42 -5 0 -8 -13 -8 -29z m150 -141 c12 -23 -4 -35 -65 -45 -22 -4 -47 -9
-56 -11 -11 -3 -19 3 -22 18 -11 39 14 52 100 57 23 1 35 -5 43 -19z m0 -84
c0 -26 -5 -28 -103 -41 l-48 -6 3 28 c3 26 7 29 53 34 95 11 95 11 95 -15z"/>
  <path d="M120 406 c0 -17 65 -76 84 -76 20 0 37 25 30 43 -6 16 -72 47 -99 47
-8 0 -15 -6 -15 -14z"/>
  <path d="M242 267 c-23 -31 -57 -68 -76 -82 -19 -14 -37 -33 -40 -41 -8 -20
20 -74 38 -74 15 0 129 225 124 242 -2 6 -23 -15 -46 -45z"/>
</g>
<g id="part-1" class="char-part">
  <path d="M210 552 c0 -17 67 -64 86 -60 27 5 28 25 2 42 -32 21 -88 32 -88 18z"/>
  <path d="M150 375 c38 -40 80 -47 80 -15 0 23 -46 50 -86 50 l-28 0 34 -35z"/>
  <path d="M235 250 c-20 -28 -52 -62 -71 -77 -19 -14 -34 -33 -34 -42 0 -23 31
-64 41 -54 14 14 111 214 106 219 -3 3 -21 -18 -42 -46z"/>
</g>
<g id="part-2" class="char-part">
  <path d="M570 620 c0 -6 -10 -25 -21 -42 -19 -27 -25 -29 -58 -23 -20 3 -47 8
-61 11 -15 3 -8 -4 18 -16 24 -11 41 -24 38 -29 -3 -5 -27 -24 -54 -41 -55
-37 -23 -32 49 8 l46 26 51 -22 c28 -12 60 -22 71 -22 38 0 22 28 -26 46 -27
9 -51 20 -55 23 -4 4 10 18 32 31 39 24 53 50 28 50 -7 0 -23 3 -35 6 -15 4
-23 2 -23 -6z"/>
</g>
<g id="part-3" class="char-part">
  <path d="M478 443 c-3 -26 -7 -29 -63 -36 -133 -18 -131 -18 -111 -29 11 -6
46 -8 88 -3 57 5 69 4 62 -7 -24 -41 -62 -81 -111 -119 -68 -53 -54 -63 20
-16 49 31 76 59 135 136 18 23 28 25 163 34 79 5 148 13 153 17 19 18 -53 23
-158 11 -110 -12 -115 -11 -128 20 -2 4 -13 9 -25 13 -18 6 -22 3 -25 -21z"/>
</g>
<g id="part-4" class="char-part">
  <path d="M590 340 c-14 -4 -45 -8 -71 -9 -25 -1 -50 -6 -57 -13 -7 -7 -12 -37
-12 -68 0 -30 -6 -81 -14 -113 -14 -58 -12 -97 5 -97 13 0 29 36 29 68 0 38
14 48 75 51 28 1 58 4 68 7 14 5 17 -1 17 -35 0 -41 0 -41 -37 -41 l-38 -1 39
-35 c22 -19 45 -33 50 -31 24 8 34 58 38 179 4 125 4 127 -20 137 -26 12 -36
12 -72 1z m40 -45 c0 -25 -18 -33 -114 -50 -37 -6 -38 -5 -32 17 3 13 6 28 6
35 0 13 30 19 98 22 38 1 42 -1 42 -24z m3 -76 c7 -24 -13 -33 -95 -43 l-58
-7 0 30 c0 29 2 30 53 34 28 2 62 4 73 5 14 1 24 -5 27 -19z"/>
</g>
</g>
</svg>