<?xml version="1.0" standalone="no"?>
<!DOCTYPE svg PUBLIC "-//W3C//DTD SVG 20010904//EN"
 "http://www.w3.org/TR/2001/REC-SVG-20010904/DTD/svg10.dtd">
<svg version="1.0" xmlns="http://www.w3.org/2000/svg"
 width="96.000000pt" height="68.000000pt" viewBox="0 0 96.000000 68.000000"
 preserveAspectRatio="xMidYMid meet">
<metadata>
Created by potrace 1.16, written by Peter Selinger 2001-2019
Combined from part_0.svg through part_5.svg with named groups
</metadata>
<g transform="translate(0.000000,68.000000) scale(0.100000,-0.100000)" fill="#000000" stroke="none">
<g id="part-0" class="char-part">
  <path d="M267 536 l6 -94 -29 -5 c-16 -3 -48 -9 -71 -12 -65 -10 -51 -25 22
-25 l65 0 -21 -42 c-12 -24 -54 -76 -93 -117 -53 -55 -65 -72 -46 -66 44 14
96 55 130 101 18 25 34 43 37 41 2 -3 -1 -52 -7 -110 -12 -109 -6 -147 24
-147 22 0 26 24 26 151 0 65 3 119 8 119 4 0 13 -9 20 -20 16 -26 62 -27 62
-1 0 22 -16 36 -52 45 -21 5 -28 12 -28 30 0 19 7 25 35 30 19 4 37 12 41 18
10 16 -17 29 -48 24 -32 -6 -33 -3 -18 75 10 52 10 55 -15 77 -49 42 -55 32
-48 -72z"/>
  <path d="M524 602 c4 -10 8 -38 10 -61 4 -46 -11 -61 -59 -61 -15 0 -24 -4
-20 -10 3 -5 24 -10 46 -10 36 0 39 -2 39 -29 0 -26 -4 -30 -37 -35 -21 -3
-57 -7 -81 -8 -24 -1 -45 -5 -48 -9 -9 -15 55 -20 121 -9 37 6 70 9 72 6 7 -7
-54 -61 -130 -113 -76 -53 -73 -72 3 -25 26 17 58 33 71 37 18 6 21 4 15 -10
-3 -9 -9 -28 -12 -42 -7 -25 -5 -25 27 -18 19 4 54 7 79 8 l45 2 3 -44 c4 -60
-19 -85 -70 -77 -21 4 -38 4 -38 2 0 -3 11 -17 25 -31 50 -49 103 -20 125 69
6 22 15 51 20 63 16 37 -19 53 -101 46 -66 -6 -69 -5 -69 16 0 28 14 32 147
48 75 8 55 27 -21 20 -34 -3 -77 -9 -96 -12 l-35 -6 45 40 c43 39 49 41 110
42 36 0 85 4 110 8 44 6 44 7 21 20 -17 10 -44 11 -99 6 l-75 -7 56 65 c54 61
56 65 39 81 -27 24 -36 20 -55 -23 -17 -38 -18 -38 -73 -39 l-57 0 6 49 c5 41
3 50 -13 59 -31 16 -52 13 -46 -8z m136 -130 c0 -13 -58 -72 -70 -72 -10 0
-14 62 -5 71 8 9 75 10 75 1z"/>
</g>
<g id="part-1" class="char-part">
  <path d="M268 583 c4 -21 7 -63 7 -93 l0 -55 -67 -9 c-38 -4 -68 -12 -68 -17
0 -5 27 -9 60 -9 33 0 60 -4 60 -8 0 -18 -61 -101 -114 -154 -31 -32 -51 -58
-43 -58 25 0 93 56 131 109 21 28 39 51 40 51 3 0 -13 -174 -19 -196 -5 -24
12 -84 26 -84 20 0 29 47 29 161 l0 123 28 -27 c32 -31 47 -34 56 -12 6 16
-21 38 -61 50 -16 4 -23 14 -23 30 0 23 5 26 63 39 41 10 32 26 -14 26 l-42 0
6 75 c6 67 5 76 -12 85 -39 20 -50 13 -43 -27z"/>
</g>
<g id="part-2" class="char-part">
  <path d="M527 556 c5 -60 4 -63 -18 -69 -13 -4 -35 -7 -49 -7 -20 0 -22 -2
-10 -10 8 -5 32 -10 53 -10 34 0 37 -2 37 -29 0 -24 4 -29 20 -28 16 1 20 8
20 34 0 26 5 34 23 37 78 16 81 17 66 26 -7 5 -32 7 -53 3 l-39 -6 7 53 c8 57
0 70 -40 70 -20 0 -21 -4 -17 -64z"/>
</g>
<g id="part-3" class="char-part">
  <path d="M705 541 c-24 -53 -95 -131 -124 -136 -14 -3 -64 -8 -113 -11 -49 -4
-91 -10 -93 -14 -9 -15 46 -20 116 -10 40 6 74 9 76 6 6 -6 -95 -91 -157 -131
-46 -30 -50 -35 -25 -30 45 10 122 57 195 119 63 54 67 56 125 57 33 0 83 4
110 8 48 6 49 7 26 20 -17 10 -43 11 -92 7 -38 -4 -69 -4 -69 1 0 4 23 32 50
62 48 51 49 55 34 73 -25 27 -39 22 -59 -21z"/>
</g>
<g id="part-4" class="char-part">
  <path d="M618 243 c-29 -3 -48 -9 -48 -16 0 -8 16 -11 50 -9 49 4 50 3 51 -25
2 -41 0 -55 -14 -82 -10 -20 -17 -22 -55 -18 l-44 5 30 -30 c24 -24 35 -29 56
-24 29 7 66 59 66 91 0 11 7 33 15 49 8 15 15 30 15 32 0 6 -58 34 -67 32 -4
-1 -29 -3 -55 -5z"/>
</g>
</g>
</svg>