<?xml version="1.0" standalone="no"?>
<!DOCTYPE svg PUBLIC "-//W3C//DTD SVG 20010904//EN"
 "http://www.w3.org/TR/2001/REC-SVG-20010904/DTD/svg10.dtd">
<svg version="1.0" xmlns="http://www.w3.org/2000/svg"
 width="96.000000pt" height="68.000000pt" viewBox="0 0 96.000000 68.000000"
 preserveAspectRatio="xMidYMid meet">
<metadata>
Created by potrace 1.16, written by Peter Selinger 2001-2019
Combined from part_0.svg through part_5.svg with named groups
</metadata>
<g transform="translate(0.000000,68.000000) scale(0.100000,-0.100000)" fill="#000000" stroke="none">
<g id="part-0" class="char-part">
  <path d="M580 611 c0 -51 -9 -60 -63 -67 -45 -6 -48 -8 -32 -20 11 -8 31 -14
47 -14 25 0 27 -2 18 -26 -23 -58 5 -61 40 -4 l25 40 67 0 c66 0 95 13 67 31
-8 5 -35 9 -61 9 -36 0 -48 4 -48 15 0 8 4 15 10 15 11 0 1 32 -14 42 -6 4
-21 8 -33 8 -19 0 -23 -6 -23 -29z"/>
  <path d="M284 606 c-3 -8 2 -25 11 -39 15 -23 15 -25 -7 -31 -13 -3 -42 -6
-65 -6 -31 0 -43 -4 -43 -15 0 -32 69 -44 122 -21 12 6 21 0 33 -23 21 -41 33
-39 37 6 3 33 7 39 36 47 44 12 40 26 -8 26 -37 0 -41 3 -46 29 -4 19 -14 31
-28 35 -31 8 -36 7 -42 -8z"/>
  <path d="M435 442 c6 -38 5 -39 -26 -46 -17 -3 -61 -6 -98 -7 -36 0 -75 -4
-86 -9 -18 -7 -18 -9 9 -19 22 -9 43 -9 78 -1 27 5 67 10 88 10 38 0 40 -2 40
-30 l0 -30 -82 0 -83 0 1 -83 c1 -105 1 -107 18 -107 18 0 26 31 26 101 l0 56
46 7 c26 3 53 6 60 6 11 0 14 -27 14 -130 0 -105 3 -130 14 -130 16 0 22 33
32 173 l6 97 59 0 c53 0 61 -2 71 -25 7 -17 8 -38 2 -67 -9 -42 -11 -43 -47
-42 -44 1 -46 -5 -11 -40 52 -52 90 -28 105 66 5 35 12 75 15 89 7 38 -31 52
-123 43 l-73 -6 0 31 0 31 78 1 c42 0 96 0 118 -1 23 -1 45 3 49 9 13 22 -48
33 -149 26 -99 -7 -99 -7 -93 15 7 26 -8 44 -42 48 -22 3 -23 1 -16 -36z"/>
</g>
<g id="part-1" class="char-part">
  <path d="M584 593 l-9 -48 -50 -5 c-47 -5 -49 -6 -27 -18 12 -7 32 -10 44 -6
18 5 20 3 14 -19 -3 -14 -9 -32 -12 -41 -12 -32 16 -15 38 23 22 38 23 39 103
48 77 9 79 10 50 22 -17 7 -46 10 -67 7 -43 -7 -42 -8 -27 31 8 23 7 30 -7 40
-30 22 -42 15 -50 -34z"/>
  <path d="M297 575 c9 -19 14 -37 11 -40 -3 -4 -33 -6 -66 -7 -55 -1 -60 -3
-52 -18 12 -23 52 -32 85 -20 40 15 51 12 63 -15 17 -38 35 -32 28 9 -6 32 -5
34 29 40 48 9 44 22 -5 18 -39 -4 -40 -3 -40 26 0 30 -14 42 -51 42 -18 0 -18
-1 -2 -35z"/>
</g>
<g id="part-2" class="char-part">
  <path d="M435 441 l6 -38 -47 -7 c-26 -3 -70 -6 -98 -7 -28 -1 -62 -4 -76 -8
-24 -7 -24 -8 11 -19 25 -9 50 -9 88 -2 30 5 69 10 87 10 l34 0 2 -170 c2
-103 7 -170 13 -171 16 -1 23 47 30 204 l7 147 118 0 c120 0 156 11 103 31
-18 7 -63 8 -125 4 l-98 -7 6 30 c5 25 2 30 -18 35 -46 13 -50 10 -43 -32z"/>
</g>
<g id="part-3" class="char-part">
  <path d="M500 320 c-36 -4 -101 -8 -145 -9 l-80 -1 -1 -57 c-1 -32 -3 -70 -4
-85 -3 -33 18 -64 33 -49 5 5 12 43 15 84 l4 75 52 6 c28 3 95 9 148 12 l97 7
5 -34 c3 -19 2 -50 -2 -69 -8 -33 -11 -35 -45 -34 -20 1 -37 -1 -37 -4 0 -3
12 -19 27 -34 53 -56 93 -27 107 77 3 28 9 61 12 76 10 46 -37 55 -186 39z"/>
</g>
</g>
</svg>