<?xml version="1.0" standalone="no"?>
<!DOCTYPE svg PUBLIC "-//W3C//DTD SVG 20010904//EN"
 "http://www.w3.org/TR/2001/REC-SVG-20010904/DTD/svg10.dtd">
<svg version="1.0" xmlns="http://www.w3.org/2000/svg"
 width="96.000000pt" height="68.000000pt" viewBox="0 0 96.000000 68.000000"
 preserveAspectRatio="xMidYMid meet">
<metadata>
Created by potrace 1.16, written by Peter Selinger 2001-2019
Combined from part_0.svg through part_5.svg with named groups
</metadata>
<g transform="translate(0.000000,68.000000) scale(0.100000,-0.100000)" fill="#000000" stroke="none">
<g id="part-0" class="char-part">
  <path d="M316 598 c-32 -110 -60 -150 -201 -288 -20 -19 -31 -36 -25 -38 13
-5 85 38 130 77 l35 31 3 -68 c2 -37 -2 -97 -8 -134 -8 -49 -9 -72 0 -87 13
-26 35 -27 45 -3 13 31 21 294 10 316 -9 18 -3 32 41 92 29 39 49 75 46 81 -9
12 -47 33 -62 33 -6 0 -12 -6 -14 -12z"/>
  <path d="M518 544 c39 -53 47 -61 62 -66 8 -3 -33 -11 -92 -18 -60 -7 -108
-17 -108 -21 0 -5 33 -9 74 -9 l73 0 7 -46 c7 -56 -4 -74 -48 -74 -17 0 -41
-3 -53 -6 -40 -11 -13 -24 48 -24 l60 0 -3 -59 -3 -59 -95 -7 c-117 -8 -120
-9 -93 -23 16 -9 79 -9 257 0 130 7 236 16 236 20 0 22 -47 29 -147 23 l-104
-7 3 63 c3 60 5 64 28 67 82 8 110 14 110 24 0 6 -26 9 -71 6 l-71 -4 5 47 c3
26 1 51 -5 57 -10 10 5 14 120 28 28 3 52 9 52 14 0 13 -57 20 -105 13 -40 -5
-45 -4 -45 14 0 27 -39 61 -80 69 l-34 7 22 -29z"/>
</g>
<g id="part-1" class="char-part">
  <path d="M311 566 c-15 -60 -61 -127 -146 -212 -41 -41 -69 -74 -63 -74 17 0
101 56 128 85 13 14 27 25 32 25 11 0 10 -103 -3 -180 -15 -88 -14 -109 4
-127 13 -14 16 -13 25 3 13 27 24 312 12 319 -17 10 -12 22 41 92 55 72 56 91
7 104 -24 6 -27 3 -37 -35z"/>
</g>
<g id="part-2" class="char-part">
  <path d="M515 543 c9 -16 26 -36 37 -46 12 -10 19 -20 16 -22 -5 -5 -137 -24
-170 -25 -10 0 -18 -4 -18 -10 0 -6 29 -10 66 -10 80 0 314 30 314 40 0 12
-58 20 -104 14 -42 -6 -43 -5 -49 23 -6 31 -54 63 -92 63 -16 0 -16 -2 0 -27z"/>
</g>
<g id="part-3" class="char-part">
  <path d="M535 430 c-4 -6 -6 -27 -4 -48 4 -69 2 -72 -38 -72 -21 0 -48 -3 -60
-6 -40 -11 -13 -24 48 -24 l60 0 -3 -57 -3 -58 -102 -9 c-101 -9 -126 -18 -80
-30 23 -6 461 13 487 21 11 3 9 8 -10 19 -20 11 -48 13 -133 8 l-108 -6 3 63
3 64 64 7 c64 7 80 13 68 25 -9 8 -89 7 -118 -2 -21 -7 -22 -6 -16 42 6 53 -3
73 -34 73 -10 0 -21 -5 -24 -10z"/>
</g>
</g>
</svg>