<?xml version="1.0" standalone="no"?>
<!DOCTYPE svg PUBLIC "-//W3C//DTD SVG 20010904//EN"
 "http://www.w3.org/TR/2001/REC-SVG-20010904/DTD/svg10.dtd">
<svg version="1.0" xmlns="http://www.w3.org/2000/svg"
 width="96.000000pt" height="68.000000pt" viewBox="0 0 96.000000 68.000000"
 preserveAspectRatio="xMidYMid meet">
<metadata>
Created by potrace 1.16, written by Peter Selinger 2001-2019
Combined from part_0.svg through part_5.svg with named groups
</metadata>
<g transform="translate(0.000000,68.000000) scale(0.100000,-0.100000)" fill="#000000" stroke="none">
<g id="part-0" class="char-part">
  <path d="M214 558 c15 -56 17 -173 5 -288 -16 -162 -16 -187 4 -207 13 -13 19
-14 31 -3 13 10 16 38 16 150 0 76 3 151 6 168 6 30 8 31 27 17 32 -23 59 -19
55 7 -2 14 -15 25 -38 33 -34 12 -35 14 -35 62 0 57 -17 83 -52 83 -21 0 -24
-4 -19 -22z"/>
  <path d="M736 563 c5 -10 9 -112 9 -226 0 -224 -3 -235 -52 -216 -32 12 -29 4
17 -41 74 -73 76 -68 84 210 3 102 10 201 16 220 9 31 7 37 -12 52 -13 10 -34
18 -47 18 -19 0 -22 -3 -15 -17z"/>
  <path d="M435 508 l-60 -10 1 -127 c1 -166 1 -164 19 -157 32 12 6 -47 -39
-87 -10 -9 -17 -19 -14 -22 7 -8 48 15 93 52 31 26 36 35 26 46 -10 12 -5 16
26 19 21 3 41 0 44 -5 4 -5 14 -7 22 -4 19 7 31 288 13 299 -14 9 -54 8 -131
-4z m91 -43 c3 -20 5 -38 3 -40 -2 -1 -30 -6 -62 -10 l-58 -7 3 38 c3 36 6 40
38 45 66 12 69 11 76 -26z m4 -94 c0 -25 -5 -29 -37 -35 -73 -12 -83 -9 -83
24 0 27 3 30 33 31 17 0 41 4 52 8 27 11 35 5 35 -28z m-2 -87 c3 -28 0 -32
-29 -38 -17 -3 -47 -6 -66 -6 -28 0 -34 3 -29 16 3 9 6 24 6 34 0 14 9 20 38
23 69 7 77 5 80 -29z"/>
  <path d="M647 358 c5 -80 15 -110 30 -95 3 4 9 45 11 92 l5 85 -26 0 -25 0 5
-82z"/>
  <path d="M130 378 c-23 -51 -25 -81 -6 -97 19 -16 42 8 50 52 6 32 -6 87 -19
87 -3 0 -15 -19 -25 -42z"/>
  <path d="M510 194 c0 -12 66 -84 78 -84 24 0 11 40 -21 64 -32 24 -57 33 -57
20z"/>
</g>
<g id="part-1" class="char-part">
  <path d="M221 548 c12 -45 11 -220 -2 -351 -10 -97 -10 -111 5 -125 32 -32 39
-1 44 178 3 93 7 170 10 170 3 0 16 -10 28 -21 24 -23 54 -20 54 5 0 9 -17 20
-41 28 l-41 12 4 53 c4 46 2 56 -16 69 -11 8 -28 14 -38 14 -14 0 -15 -5 -7
-32z"/>
  <path d="M135 381 c-20 -39 -20 -101 0 -101 21 0 35 32 35 79 0 51 -15 60 -35
22z"/>
</g>
<g id="part-2" class="char-part">
  <path d="M435 508 l-60 -10 0 -114 c0 -102 2 -114 18 -114 10 0 17 8 17 20 0
15 7 20 29 20 16 0 43 3 60 6 27 6 31 4 31 -15 0 -14 6 -21 19 -21 16 0 19 12
24 112 3 62 4 114 2 116 -9 9 -86 9 -140 0z m89 -39 c10 -53 9 -54 -55 -56
l-60 -2 3 37 c3 34 6 38 38 43 64 12 67 11 74 -22z m6 -99 c0 -19 -5 -30 -14
-30 -7 0 -34 -3 -60 -6 l-46 -7 0 31 c0 28 3 31 38 35 84 9 82 9 82 -23z"/>
</g>
<g id="part-3" class="char-part">
  <path d="M410 200 c0 -6 -21 -33 -47 -61 -47 -51 -38 -55 27 -13 61 40 83 61
76 73 -9 14 -56 15 -56 1z"/>
  <path d="M516 188 c21 -38 57 -78 70 -78 26 0 15 39 -19 64 -36 28 -63 34 -51
14z"/>
</g>
<g id="part-4" class="char-part">
  <path d="M741 545 c12 -42 8 -419 -4 -431 -4 -4 -24 -2 -44 4 l-37 11 49 -44
c28 -25 53 -45 57 -45 19 0 26 51 31 235 3 118 10 214 17 233 15 40 3 58 -47
68 l-32 6 10 -37z"/>
</g>
</g>
</svg>