<?xml version="1.0" standalone="no"?>
<!DOCTYPE svg PUBLIC "-//W3C//DTD SVG 20010904//EN"
 "http://www.w3.org/TR/2001/REC-SVG-20010904/DTD/svg10.dtd">
<svg version="1.0" xmlns="http://www.w3.org/2000/svg"
 width="96.000000pt" height="68.000000pt" viewBox="0 0 96.000000 68.000000"
 preserveAspectRatio="xMidYMid meet">
<metadata>
Created by potrace 1.16, written by Peter Selinger 2001-2019
Combined from part_0.svg through part_5.svg with named groups
</metadata>
<g transform="translate(0.000000,68.000000) scale(0.100000,-0.100000)" fill="#000000" stroke="none">
<g id="part-0" class="char-part">
  <path d="M396 641 c-3 -5 -2 -21 4 -36 21 -55 16 -61 -60 -71 -91 -12 -91 -29
0 -28 61 2 70 -1 70 -16 0 -20 4 -19 -210 -38 -48 -4 -84 -11 -82 -17 3 -12
126 -13 225 -3 66 7 67 7 67 -16 0 -22 -5 -24 -70 -30 -38 -4 -70 -11 -70 -15
0 -14 40 -20 91 -14 l49 6 0 -32 c0 -30 -2 -31 -42 -32 -74 -1 -92 -17 -20
-18 58 -1 62 -2 62 -25 0 -20 -6 -24 -46 -30 -26 -3 -80 -6 -120 -6 -95 0
-110 -20 -24 -31 18 -3 147 11 171 17 14 4 18 -9 24 -88 7 -92 7 -92 26 -69
15 18 19 40 19 92 l0 69 79 0 c98 0 201 10 201 20 0 20 -63 29 -133 20 -40 -5
-89 -10 -109 -10 -34 0 -38 3 -38 25 0 24 3 25 63 27 34 0 67 2 72 3 6 2 18 3
28 4 10 0 16 5 13 10 -9 14 -58 19 -114 12 -58 -8 -64 -5 -55 27 5 20 12 22
79 22 68 0 102 13 76 29 -6 4 -9 16 -6 28 6 23 52 33 155 33 60 0 71 8 44 30
-11 9 -39 11 -95 7 -78 -5 -80 -5 -69 16 10 17 8 24 -12 40 -19 16 -33 18 -74
13 -27 -3 -61 -9 -74 -13 -23 -6 -24 -5 -18 35 4 22 4 43 0 45 -20 12 -72 17
-77 8z m174 -136 c0 -23 -3 -25 -50 -25 -43 0 -50 3 -50 19 0 15 8 21 38 24
20 2 43 4 50 5 7 1 12 -9 12 -23z m-10 -62 c-1 -20 -20 -34 -53 -40 -33 -5
-37 -3 -37 15 0 13 8 22 23 25 39 7 67 7 67 0z"/>
</g>
<g id="part-1" class="char-part">
  <path d="M406 591 l6 -50 -38 -6 c-106 -17 -111 -20 -36 -23 68 -3 72 -4 72
-26 0 -23 -3 -24 -121 -31 -67 -4 -133 -11 -148 -15 l-26 -7 28 -8 c15 -4 70
-2 121 4 138 16 146 15 146 -13 0 -27 -21 -36 -87 -36 -25 0 -43 -5 -43 -11 0
-8 21 -10 65 -7 49 3 65 1 65 -9 0 -7 11 -13 25 -13 14 0 25 6 25 14 0 14 60
26 133 26 34 0 38 2 27 15 -7 8 -10 25 -6 40 6 24 9 25 94 25 97 0 129 10 93
29 -15 8 -45 10 -93 5 l-71 -7 6 25 c11 42 -12 52 -98 44 l-74 -7 -3 43 c-3
41 -5 43 -36 46 l-33 3 7 -50z m172 -87 c3 -19 -3 -22 -48 -28 -57 -8 -70 -3
-70 24 0 21 24 29 80 26 27 -1 36 -6 38 -22z m-18 -63 c0 -31 -14 -41 -56 -41
-36 0 -44 3 -44 18 0 10 3 22 7 25 10 11 93 8 93 -2z"/>
</g>
<g id="part-2" class="char-part">
  <path d="M410 320 c0 -17 -7 -20 -42 -21 -50 -1 -106 -16 -73 -19 11 -1 41 -1
68 0 44 1 47 0 47 -23 0 -22 -5 -25 -52 -31 -29 -3 -83 -6 -120 -6 -74 0 -94
-12 -48 -28 20 -7 51 -8 92 -2 35 6 77 12 95 14 l31 4 7 -89 c4 -49 11 -89 16
-89 17 0 29 50 29 116 l0 64 63 0 c92 0 227 12 227 20 0 18 -77 29 -140 20
-36 -5 -84 -10 -107 -10 -39 0 -43 2 -43 25 0 22 4 25 39 25 57 0 131 12 131
21 0 14 -54 19 -108 10 -42 -6 -55 -5 -59 5 -3 8 -16 14 -29 14 -17 0 -24 -6
-24 -20z"/>
</g>
</g>
</svg>