<?xml version="1.0" standalone="no"?>
<!DOCTYPE svg PUBLIC "-//W3C//DTD SVG 20010904//EN"
 "http://www.w3.org/TR/2001/REC-SVG-20010904/DTD/svg10.dtd">
<svg version="1.0" xmlns="http://www.w3.org/2000/svg"
 width="96.000000pt" height="68.000000pt" viewBox="0 0 96.000000 68.000000"
 preserveAspectRatio="xMidYMid meet">
<metadata>
Created by potrace 1.16, written by Peter Selinger 2001-2019
Combined from part_0.svg through part_5.svg with named groups
</metadata>
<g transform="translate(0.000000,68.000000) scale(0.100000,-0.100000)" fill="#000000" stroke="none">
<g id="part-0" class="char-part">
  <path d="M402 600 c-123 -10 -226 -21 -229 -24 -3 -3 11 -13 32 -22 32 -13 48
-14 100 -5 87 15 105 14 105 -7 0 -10 -10 -31 -22 -48 -18 -22 -30 -28 -50
-26 -32 4 -32 3 -18 -34 7 -18 7 -58 0 -126 -11 -113 -4 -146 30 -128 55 29
-24 -78 -90 -123 -40 -27 -4 -19 48 10 91 53 132 87 126 106 -5 15 2 17 49 17
30 0 69 3 86 6 24 5 31 3 31 -10 0 -25 37 -20 44 7 11 43 7 272 -6 285 -15 15
-87 16 -158 2 -29 -6 -55 -8 -58 -5 -3 3 9 18 26 35 18 17 32 37 32 45 0 13
23 15 139 15 77 0 142 4 146 9 3 5 -2 17 -11 25 -19 20 -55 19 -352 -4z m186
-167 c3 -26 0 -31 -15 -27 -10 2 -58 -2 -108 -9 -49 -8 -93 -12 -97 -10 -5 2
-8 17 -8 34 0 16 3 29 8 30 4 0 47 3 97 5 49 3 92 7 94 10 12 11 26 -5 29 -33z
m4 -83 c3 -33 1 -35 -27 -36 -16 0 -70 -4 -118 -8 l-88 -8 3 33 3 34 70 3 c38
2 88 7 110 11 22 4 41 7 42 7 0 -1 3 -17 5 -36z m3 -91 l0 -32 -117 -4 -118
-5 0 31 0 30 68 4 c180 9 167 11 167 -24z"/>
  <path d="M593 109 c69 -67 88 -81 103 -71 14 10 11 34 -6 59 -15 21 -119 73
-146 73 -7 0 15 -27 49 -61z"/>
</g>
<g id="part-1" class="char-part">
  <path d="M590 610 c-36 -4 -143 -13 -239 -20 -155 -12 -172 -15 -155 -27 19
-15 111 -13 192 3 38 8 41 -4 13 -59 -13 -25 -15 -37 -7 -37 18 0 89 77 82 88
-4 6 48 13 139 17 80 4 145 11 145 15 0 12 -49 30 -78 29 -15 -1 -56 -5 -92
-9z"/>
</g>
<g id="part-2" class="char-part">
  <path d="M505 485 c-44 -8 -106 -14 -139 -14 -52 -1 -57 -3 -50 -18 5 -10 8
-60 6 -110 -3 -88 -2 -93 18 -93 11 0 20 6 20 13 0 18 223 34 228 17 2 -5 17
-10 33 -10 l29 0 0 104 0 104 -31 11 c-18 6 -32 10 -33 10 -1 -1 -37 -7 -81
-14z m69 -21 c9 -3 16 -18 16 -33 0 -23 -4 -26 -37 -27 -21 0 -73 -4 -115 -8
l-78 -9 0 31 0 30 93 10 c50 5 95 10 99 11 3 0 13 -2 22 -5z m16 -112 c0 -37
-1 -38 -32 -38 -18 0 -70 -3 -115 -8 l-83 -8 0 29 0 30 113 15 c61 8 113 16
115 17 1 0 2 -16 2 -37z"/>
</g>
<g id="part-3" class="char-part">
  <path d="M613 262 c-13 -2 -23 -11 -23 -20 0 -15 -15 -17 -111 -20 -95 -2
-113 0 -124 14 -15 21 -45 12 -45 -14 0 -10 6 -27 14 -37 12 -16 16 -17 29 -6
9 7 20 11 24 8 4 -3 53 -1 107 4 88 9 101 8 118 -8 19 -17 20 -17 34 2 15 20
19 71 7 77 -5 2 -18 2 -30 0z"/>
</g>
<g id="part-4" class="char-part">
  <path d="M360 157 c-7 -16 -39 -50 -71 -75 -33 -25 -59 -47 -59 -48 0 -4 45
13 73 27 12 7 50 32 85 57 50 37 59 48 46 55 -35 20 -60 15 -74 -16z"/>
  <path d="M593 109 c56 -54 87 -79 100 -79 12 0 15 33 5 55 -11 24 -120 85
-153 85 -8 0 14 -27 48 -61z"/>
</g>
</g>
</svg>