<?xml version="1.0" standalone="no"?>
<!DOCTYPE svg PUBLIC "-//W3C//DTD SVG 20010904//EN"
 "http://www.w3.org/TR/2001/REC-SVG-20010904/DTD/svg10.dtd">
<svg version="1.0" xmlns="http://www.w3.org/2000/svg"
 width="96.000000pt" height="68.000000pt" viewBox="0 0 96.000000 68.000000"
 preserveAspectRatio="xMidYMid meet">
<metadata>
Created by potrace 1.16, written by Peter Selinger 2001-2019
Combined from part_0.svg through part_5.svg with named groups
</metadata>
<g transform="translate(0.000000,68.000000) scale(0.100000,-0.100000)" fill="#000000" stroke="none">
<g id="part-0" class="char-part">
  <path d="M584 581 c16 -26 -156 -114 -214 -110 -27 2 -34 0 -31 -11 2 -8 6
-43 9 -76 8 -108 -37 -225 -116 -302 -38 -37 -42 -43 -22 -37 14 4 27 10 30
14 3 3 21 18 41 33 23 17 48 52 71 101 l36 74 117 7 c119 7 190 14 211 21 7 2
9 15 7 29 -3 15 3 38 16 59 27 44 26 51 -3 65 -17 8 -59 5 -169 -11 -114 -17
-149 -19 -159 -9 -9 9 -3 15 26 27 20 9 42 13 49 9 7 -4 9 -4 5 1 -4 4 40 23
97 43 58 19 105 39 105 44 0 11 -63 38 -90 38 -12 0 -19 -4 -16 -9z m92 -198
c-3 -26 -10 -50 -14 -54 -9 -9 -170 -29 -230 -29 l-44 0 7 43 c4 23 9 43 10
45 4 4 223 40 254 41 23 1 23 -1 17 -46z"/>
</g>
<g id="part-1" class="char-part">
  <path d="M574 555 c-18 -18 -65 -46 -105 -63 -41 -17 -67 -32 -59 -32 14 0
260 79 269 87 8 7 -15 23 -45 32 -25 7 -33 3 -60 -24z"/>
</g>
<g id="part-2" class="char-part">
  <path d="M336 453 c5 -16 8 -62 8 -103 -2 -106 -30 -175 -106 -256 -62 -66
-56 -73 20 -21 48 32 96 100 114 160 11 36 12 37 61 37 55 0 290 21 296 26 2
2 -1 9 -7 16 -7 9 -3 27 14 62 30 61 30 60 -2 75 -20 9 -44 8 -112 -4 -48 -8
-117 -17 -154 -21 -63 -6 -67 -6 -62 13 5 16 -1 23 -27 32 -47 16 -52 14 -43
-16z m333 -32 c11 -7 12 -19 5 -53 l-9 -43 -85 -12 c-47 -6 -109 -12 -138 -12
l-54 -1 7 43 c4 23 9 43 10 45 2 3 202 36 240 41 6 0 16 -3 24 -8z"/>
</g>
</g>
</svg>