<?xml version="1.0" standalone="no"?>
<!DOCTYPE svg PUBLIC "-//W3C//DTD SVG 20010904//EN"
 "http://www.w3.org/TR/2001/REC-SVG-20010904/DTD/svg10.dtd">
<svg version="1.0" xmlns="http://www.w3.org/2000/svg"
 width="96.000000pt" height="68.000000pt" viewBox="0 0 96.000000 68.000000"
 preserveAspectRatio="xMidYMid meet">
<metadata>
Created by potrace 1.16, written by Peter Selinger 2001-2019
Combined from part_0.svg through part_5.svg with named groups
</metadata>
<g transform="translate(0.000000,68.000000) scale(0.100000,-0.100000)" fill="#000000" stroke="none">
<g id="part-0" class="char-part">
  <path d="M275 600 c-3 -5 -1 -35 4 -67 6 -31 11 -69 11 -84 0 -26 -3 -27 -66
-34 -84 -9 -81 -29 4 -33 l62 -3 0 -34 c0 -40 -12 -50 -113 -91 -37 -15 -66
-33 -64 -38 2 -6 15 -17 29 -25 24 -14 29 -12 77 22 28 20 53 37 56 37 9 0 5
-94 -4 -109 -6 -9 -18 -11 -42 -6 -31 7 -33 6 -19 -10 94 -114 130 -93 130 75
0 95 0 95 30 112 38 21 41 42 4 28 -35 -14 -34 -14 -34 23 0 31 3 34 43 43 23
5 42 14 42 19 0 6 -19 11 -42 13 -38 3 -43 6 -43 28 0 14 7 40 15 60 18 43 12
60 -27 73 -38 14 -45 14 -53 1z"/>
  <path d="M560 574 c0 -3 9 -19 21 -36 12 -16 19 -31 17 -33 -4 -4 -131 -24
-155 -25 -7 0 -13 -4 -13 -10 0 -5 13 -10 29 -10 23 0 31 -6 41 -32 8 -18 19
-40 27 -49 12 -14 12 -17 -3 -23 -9 -3 -37 -3 -62 0 -41 6 -44 4 -37 -12 15
-35 17 -97 6 -170 -9 -55 -9 -78 -1 -95 21 -38 30 -6 37 124 l6 127 36 5 c20
4 44 8 54 10 13 2 17 -4 17 -30 0 -32 -3 -34 -42 -43 l-43 -10 37 -1 c41 -1
52 -12 43 -41 -5 -15 -15 -20 -40 -20 -34 0 -34 0 -19 -28 7 -15 14 -33 14
-41 0 -10 9 -12 38 -7 20 3 53 6 72 6 29 0 36 4 37 22 1 11 7 24 14 28 22 14
-2 30 -47 30 -42 0 -45 1 -38 23 9 30 22 37 67 37 20 0 37 5 37 11 0 7 -15 10
-40 7 -40 -4 -40 -3 -35 24 5 23 3 28 -12 29 -37 2 32 17 83 18 l51 1 7 -46
c8 -59 8 -158 -1 -207 -6 -38 -6 -39 -42 -32 l-36 6 33 -31 c25 -24 39 -30 57
-26 30 8 32 23 39 208 3 109 1 139 -10 149 -9 7 -36 9 -86 4 l-73 -7 25 28
c14 16 30 32 35 37 6 4 3 12 -7 21 -29 21 -21 26 42 26 49 0 60 3 60 16 0 15
-10 16 -80 10 l-80 -7 0 24 c0 19 -8 28 -31 36 -36 12 -49 14 -49 5z m80 -152
c-6 -26 -17 -50 -23 -54 -20 -13 -47 -9 -47 7 0 26 -23 65 -42 70 -31 10 -20
25 20 26 20 1 51 4 67 8 37 8 40 2 25 -57z m5 -247 c0 -15 -10 -21 -44 -28
-33 -7 -46 -5 -52 5 -13 20 -5 32 27 39 47 11 69 6 69 -16z"/>
</g>
<g id="part-1" class="char-part">
  <path d="M275 583 c4 -10 10 -50 12 -89 5 -68 4 -71 -18 -77 -13 -4 -37 -7
-54 -7 -16 0 -37 -5 -45 -10 -11 -7 5 -10 53 -10 l67 0 0 -48 0 -48 -90 -34
c-49 -19 -90 -38 -90 -41 0 -4 14 -12 30 -19 28 -12 34 -10 86 24 31 21 58 36
60 33 2 -2 1 -31 -2 -65 -7 -62 -7 -62 -39 -62 l-33 0 39 -42 c37 -41 38 -42
59 -23 18 16 20 30 20 122 l0 104 37 21 c36 22 32 39 -6 19 -29 -16 -31 -15
-31 28 0 37 1 38 42 47 50 11 48 29 -2 29 -35 0 -35 0 -31 40 1 22 7 48 12 57
15 28 10 44 -16 56 -40 18 -69 16 -60 -5z"/>
</g>
<g id="part-2" class="char-part">
  <path d="M560 571 c0 -4 10 -20 21 -35 12 -15 20 -29 18 -31 -2 -2 -42 -9 -89
-15 -47 -6 -87 -13 -89 -16 -14 -14 48 -14 162 0 72 9 152 17 177 19 80 4 43
22 -41 20 -44 -1 -77 1 -74 6 10 17 -7 40 -37 50 -37 13 -48 14 -48 2z"/>
</g>
<g id="part-3" class="char-part">
  <path d="M656 478 c-30 -104 -30 -130 -1 -92 52 65 55 72 42 81 -26 21 -37 24
-41 11z"/>
  <path d="M490 453 c0 -20 44 -93 56 -93 33 0 23 58 -15 87 -18 14 -41 17 -41
6z"/>
</g>
<g id="part-4" class="char-part">
  <path d="M660 374 c-36 -8 -104 -15 -153 -17 -73 -2 -86 -4 -80 -17 13 -28 15
-123 4 -180 -12 -60 -7 -90 14 -90 10 0 15 34 20 130 l8 130 31 5 c77 13 174
25 212 25 39 0 42 -2 48 -31 8 -41 8 -207 -1 -237 -5 -21 -10 -23 -39 -17 -19
3 -34 4 -34 1 0 -2 18 -18 39 -35 l40 -32 19 21 c17 19 20 40 24 178 3 93 1
162 -5 170 -12 15 -62 14 -147 -4z"/>
</g>
</g>
</svg>