<?xml version="1.0" standalone="no"?>
<!DOCTYPE svg PUBLIC "-//W3C//DTD SVG 20010904//EN"
 "http://www.w3.org/TR/2001/REC-SVG-20010904/DTD/svg10.dtd">
<svg version="1.0" xmlns="http://www.w3.org/2000/svg"
 width="96.000000pt" height="68.000000pt" viewBox="0 0 96.000000 68.000000"
 preserveAspectRatio="xMidYMid meet">
<metadata>
Created by potrace 1.16, written by Peter Selinger 2001-2019
Combined from part_0.svg through part_5.svg with named groups
</metadata>
<g transform="translate(0.000000,68.000000) scale(0.100000,-0.100000)" fill="#000000" stroke="none">
<g id="part-0" class="char-part">
  <path d="M625 588 c-22 -5 -52 -7 -67 -4 -27 5 -27 5 -23 -37 3 -23 7 -68 10
-99 6 -56 7 -57 33 -52 99 18 122 21 127 16 3 -3 5 -69 5 -147 0 -162 -7 -183
-54 -165 -24 9 -49 7 -35 -3 2 -2 23 -18 46 -35 45 -35 69 -34 83 3 11 28 16
507 6 523 -8 14 -73 14 -131 0z m85 -48 c0 -29 -2 -30 -42 -30 -24 0 -53 -3
-65 -6 -20 -6 -23 -3 -23 24 0 34 9 39 83 41 46 1 47 0 47 -29z m-2 -71 c-2
-18 -14 -26 -53 -36 -71 -18 -75 -17 -75 20 l0 32 66 3 c63 3 65 3 62 -19z"/>
  <path d="M320 570 c-14 -4 -51 -8 -84 -9 -56 -1 -58 -2 -51 -23 17 -52 17
-256 1 -337 -12 -60 -14 -86 -6 -101 6 -11 15 -20 19 -20 16 0 23 34 28 148 7
125 14 141 66 144 18 1 39 2 47 4 8 1 20 2 26 3 16 2 69 170 57 182 -14 14
-74 19 -103 9z m38 -51 c-2 -17 -15 -25 -53 -35 -27 -7 -51 -13 -52 -14 -2 0
-3 13 -3 29 0 32 10 38 73 40 34 1 38 -2 35 -20z m-8 -71 c0 -23 -14 -34 -56
-46 -54 -16 -54 -16 -54 12 0 21 7 26 43 34 59 14 67 14 67 0z"/>
  <path d="M422 321 c-12 -27 -43 -71 -68 -96 -25 -26 -43 -49 -41 -51 4 -4 79
48 111 78 11 10 24 18 29 18 5 0 36 -20 69 -45 58 -44 78 -52 91 -39 8 8 -12
46 -32 61 -9 6 -35 17 -59 24 -51 14 -59 24 -38 48 15 16 15 19 -2 34 -28 25
-35 21 -60 -32z"/>
</g>
<g id="part-1" class="char-part">
  <path d="M310 565 c-30 -8 -69 -14 -86 -15 l-31 0 5 -92 c2 -51 5 -94 6 -94 0
-1 39 4 86 10 l84 11 28 80 c15 44 27 81 28 82 0 3 -58 33 -62 32 -2 0 -28 -7
-58 -14z m50 -43 c0 -25 -5 -29 -45 -40 -69 -18 -75 -17 -75 22 0 34 1 35 43
39 23 2 50 4 60 5 12 2 17 -5 17 -26z m-10 -82 c0 -23 -21 -35 -73 -45 -36 -7
-37 -7 -37 23 0 27 4 31 33 35 71 9 77 8 77 -13z"/>
</g>
<g id="part-2" class="char-part">
  <path d="M710 272 c0 -172 -5 -188 -59 -172 -19 5 -36 8 -38 7 -1 -2 20 -20
47 -41 87 -66 102 -39 98 187 -3 157 -3 160 -25 163 -23 4 -23 4 -23 -144z"/>
</g>
<g id="part-3" class="char-part">
  <path d="M437 363 c-2 -5 -7 -20 -10 -34 -4 -14 -31 -54 -62 -88 -30 -34 -55
-64 -55 -67 0 -10 58 26 100 64 l44 39 65 -48 c72 -55 91 -60 91 -25 0 28 -31
51 -95 68 -49 13 -54 22 -28 51 17 18 17 19 -2 33 -21 15 -41 18 -48 7z"/>
</g>
</g>
</svg>