<?xml version="1.0" standalone="no"?>
<!DOCTYPE svg PUBLIC "-//W3C//DTD SVG 20010904//EN"
 "http://www.w3.org/TR/2001/REC-SVG-20010904/DTD/svg10.dtd">
<svg version="1.0" xmlns="http://www.w3.org/2000/svg"
 width="96.000000pt" height="68.000000pt" viewBox="0 0 96.000000 68.000000"
 preserveAspectRatio="xMidYMid meet">
<metadata>
Created by potrace 1.16, written by Peter Selinger 2001-2019
Combined from part_0.svg through part_5.svg with named groups
</metadata>
<g transform="translate(0.000000,68.000000) scale(0.100000,-0.100000)" fill="#000000" stroke="none">
<g id="part-0" class="char-part">
  <path d="M532 562 c16 -43 5 -62 -37 -62 -19 0 -35 -4 -35 -10 0 -5 18 -10 41
-10 36 0 40 -2 37 -22 -2 -19 -13 -24 -58 -33 -30 -6 -50 -14 -45 -17 10 -6
185 7 243 18 43 8 11 24 -49 24 -52 0 -60 2 -57 17 2 12 17 20 47 25 70 12 71
32 1 30 -39 -2 -40 -1 -38 31 3 29 0 32 -29 35 -31 3 -32 3 -21 -26z"/>
  <path d="M224 548 c14 -47 18 -88 12 -112 -5 -20 -14 -25 -58 -31 -29 -4 -57
-10 -62 -12 -16 -10 20 -23 67 -23 l48 0 -23 -41 c-13 -22 -46 -66 -75 -97
-29 -31 -51 -58 -49 -60 9 -8 68 31 106 70 l40 42 0 -59 c-1 -33 -5 -80 -10
-105 -6 -32 -4 -54 5 -77 16 -38 18 -39 39 -17 13 13 16 42 16 157 0 78 4 137
8 131 11 -17 51 -36 62 -29 22 13 8 37 -30 52 -22 9 -40 19 -40 22 1 17 19 30
60 41 42 11 43 13 25 27 -11 8 -33 12 -48 10 l-29 -4 7 54 c8 63 -3 83 -47 83
-27 0 -30 -3 -24 -22z"/>
  <path d="M647 386 c5 -24 3 -26 -30 -26 -20 0 -39 -4 -42 -10 -4 -6 10 -10 34
-10 33 0 41 -3 41 -19 0 -19 -25 -31 -67 -31 -13 0 -23 -4 -23 -10 0 -13 13
-13 138 2 110 13 135 28 47 28 -47 0 -55 3 -55 19 0 14 11 22 38 29 28 7 31
11 15 12 -13 1 -29 3 -35 4 -7 0 -13 8 -13 16 0 9 -11 16 -26 18 -23 3 -26 0
-22 -22z"/>
  <path d="M439 384 c-1 -2 -2 -14 -3 -26 -1 -17 -8 -24 -28 -26 -16 -2 -28 -7
-28 -11 0 -4 12 -7 28 -6 21 0 28 -5 30 -24 5 -30 -12 -41 -63 -41 -37 0 -38
-1 -23 -17 15 -14 23 -15 58 -4 22 6 59 21 82 32 41 18 41 19 11 14 -31 -4
-33 -3 -33 25 0 27 3 30 33 31 l32 1 -30 7 c-20 4 -29 12 -27 23 2 13 -35 35
-39 22z"/>
  <path d="M533 221 c-114 -16 -156 -31 -90 -31 29 0 37 -4 37 -18 0 -24 -64
-98 -102 -118 -45 -23 -26 -28 24 -6 54 24 128 99 128 129 0 18 6 23 24 23 28
0 36 -16 36 -75 0 -57 7 -73 41 -90 53 -28 189 -11 212 26 6 10 3 25 -11 49
-19 30 -22 32 -27 14 -13 -39 -23 -49 -59 -57 -40 -10 -102 -2 -112 14 -3 6
-3 37 1 70 l7 59 39 0 c43 0 52 14 17 24 -29 7 -29 7 -165 -13z"/>
</g>
<g id="part-1" class="char-part">
  <path d="M230 544 c6 -14 10 -49 10 -79 l0 -54 -47 -7 c-75 -10 -86 -23 -20
-24 32 0 57 -4 57 -10 0 -19 -52 -95 -98 -143 -33 -33 -41 -47 -29 -47 9 0 44
27 78 61 l61 61 -6 -69 c-4 -37 -9 -93 -12 -123 -4 -40 -1 -60 10 -75 26 -33
33 -5 38 141 3 74 8 137 11 141 4 3 16 -2 27 -12 18 -17 50 -15 50 3 0 10 -44
32 -65 32 -9 0 -15 10 -15 24 0 20 7 26 45 35 52 13 51 31 -2 31 l-36 0 6 59
c5 55 3 59 -20 70 -41 19 -54 15 -43 -15z"/>
</g>
<g id="part-2" class="char-part">
  <path d="M531 560 c16 -44 6 -60 -36 -60 -19 0 -35 -4 -35 -10 0 -5 18 -10 41
-10 36 0 40 -2 37 -22 -2 -19 -12 -24 -63 -33 -93 -16 -40 -27 68 -14 148 17
158 19 151 31 -4 6 -28 8 -60 6 -50 -4 -54 -3 -54 17 0 19 7 23 41 28 22 3 44
8 47 12 13 12 -24 25 -56 19 -32 -6 -32 -6 -30 27 3 32 1 34 -29 37 -32 3 -32
3 -22 -28z"/>
</g>
<g id="part-3" class="char-part">
  <path d="M432 363 c3 -24 -1 -29 -27 -32 l-30 -4 30 -6 c23 -5 31 -12 33 -33
3 -24 -1 -27 -35 -33 -21 -4 -45 -8 -53 -9 -10 -2 -6 -7 12 -16 23 -11 35 -9
97 15 75 30 90 41 41 30 -27 -6 -30 -4 -30 19 0 20 7 27 33 34 l32 9 -27 8
c-16 4 -28 13 -28 20 0 12 -21 25 -41 25 -5 0 -8 -12 -7 -27z"/>
</g>
<g id="part-4" class="char-part">
  <path d="M587 148 c7 -88 11 -98 48 -114 62 -26 185 -10 208 27 6 10 3 25 -11
49 l-21 33 -7 -27 c-9 -37 -41 -56 -94 -56 -64 0 -84 16 -78 66 3 21 7 46 9
54 3 11 -5 16 -27 18 l-31 3 4 -53z"/>
</g>
</g>
</svg>