<?xml version="1.0" standalone="no"?>
<!DOCTYPE svg PUBLIC "-//W3C//DTD SVG 20010904//EN"
 "http://www.w3.org/TR/2001/REC-SVG-20010904/DTD/svg10.dtd">
<svg version="1.0" xmlns="http://www.w3.org/2000/svg"
 width="96.000000pt" height="68.000000pt" viewBox="0 0 96.000000 68.000000"
 preserveAspectRatio="xMidYMid meet">
<metadata>
Created by potrace 1.16, written by Peter Selinger 2001-2019
Combined from part_0.svg through part_5.svg with named groups
</metadata>
<g transform="translate(0.000000,68.000000) scale(0.100000,-0.100000)" fill="#000000" stroke="none">
<g id="part-0" class="char-part">
  <path d="M550 565 c-41 -8 -93 -14 -115 -14 -30 -1 -36 -4 -27 -13 14 -14 15
-112 3 -177 -12 -62 1 -94 34 -85 l26 6 -16 -38 c-20 -48 -66 -98 -122 -131
-50 -29 -54 -38 -15 -28 77 19 198 135 189 183 -3 17 0 22 18 22 30 0 35 -16
35 -107 0 -87 13 -107 82 -118 51 -9 147 2 176 21 26 17 27 37 3 83 l-18 34
-6 -30 c-3 -17 -13 -37 -21 -46 -19 -18 -94 -30 -140 -22 -42 8 -48 26 -35
106 5 33 7 64 4 68 -3 5 2 11 10 15 8 3 15 1 15 -3 0 -13 32 -23 41 -14 4 4 9
70 11 145 l4 138 -30 10 c-16 5 -29 10 -30 9 -1 -1 -35 -7 -76 -14z m78 -50
c3 -28 1 -30 -35 -31 -21 -1 -62 -5 -91 -9 l-53 -8 3 34 c3 31 6 35 43 40 22
4 60 6 85 5 42 -1 45 -3 48 -31z m2 -77 c0 -32 -1 -33 -48 -34 -66 -1 -122
-13 -122 -26 0 -10 20 -9 131 8 39 6 51 -10 40 -51 -5 -18 -16 -20 -93 -24
l-88 -3 0 70 0 69 73 10 c113 16 107 17 107 -19z"/>
  <path d="M250 520 c-14 -4 -42 -8 -62 -9 -81 -2 -93 -28 -15 -33 l52 -3 3 -52
c3 -50 2 -53 -22 -53 -33 0 -57 -10 -50 -21 3 -5 21 -9 40 -9 l34 0 0 -53 c0
-61 -10 -70 -89 -84 -42 -8 -43 -9 -27 -26 27 -27 51 -21 163 39 107 57 129
80 48 49 -25 -10 -47 -16 -49 -14 -2 2 -2 27 1 56 5 49 7 52 39 57 50 10 52
26 4 26 l-42 0 4 45 c2 25 -1 46 -7 48 -5 2 14 7 43 11 35 4 52 11 49 19 -4
14 -81 19 -117 7z"/>
</g>
<g id="part-1" class="char-part">
  <path d="M240 515 c-30 -7 -67 -14 -82 -14 -16 -1 -28 -6 -28 -12 0 -9 23 -10
83 -5 102 8 166 24 146 37 -18 11 -50 9 -119 -6z"/>
</g>
<g id="part-2" class="char-part">
  <path d="M233 484 c-8 -4 -10 -21 -6 -54 6 -53 7 -52 -50 -64 -37 -9 -25 -26
19 -26 l34 0 0 -55 0 -54 -52 -16 c-28 -8 -58 -15 -65 -15 -22 0 -14 -20 13
-32 19 -9 33 -9 54 -1 43 16 202 104 197 109 -2 2 -25 -3 -51 -12 -26 -9 -50
-14 -53 -11 -3 3 -2 28 2 56 7 48 8 50 46 56 51 9 50 25 -2 25 l-42 0 5 44 c6
51 -9 66 -49 50z"/>
</g>
<g id="part-3" class="char-part">
  <path d="M540 563 c-41 -7 -90 -12 -108 -10 -29 3 -31 1 -25 -18 5 -11 8 -55
8 -98 0 -42 2 -77 5 -77 3 0 32 4 65 9 149 22 142 22 148 1 6 -22 35 -27 42
-7 2 6 5 53 8 103 4 89 4 92 -20 103 -28 13 -24 13 -123 -6z m88 -44 c3 -25 0
-27 -50 -33 -29 -4 -70 -10 -90 -13 -37 -5 -38 -5 -38 25 0 28 4 32 43 41 23
5 62 9 87 8 41 -2 45 -5 48 -28z m2 -78 c0 -28 -2 -29 -57 -35 -32 -4 -73 -10
-90 -13 -31 -5 -33 -3 -33 24 0 29 1 30 73 40 113 15 107 16 107 -16z"/>
</g>
<g id="part-4" class="char-part">
  <path d="M408 332 c-6 -22 8 -62 22 -62 5 0 10 5 10 10 0 15 197 13 202 -2 9
-26 38 2 38 37 0 31 -3 35 -25 35 -18 0 -25 -5 -25 -18 0 -16 -11 -19 -96 -21
-92 -2 -95 -1 -89 18 5 16 2 21 -13 21 -11 0 -22 -8 -24 -18z"/>
</g>
<g id="part-5" class="char-part">
  <path d="M565 270 c-2 -4 -4 -35 -4 -69 1 -55 4 -67 27 -88 21 -19 22 -23 6
-18 -16 5 -16 5 -3 -4 36 -24 161 -30 186 -10 7 6 16 8 21 5 15 -9 43 29 36
48 -5 14 -9 15 -16 4 -7 -9 -8 -5 -4 12 5 24 5 24 -10 5 -34 -47 -45 -55 -79
-56 -19 -1 -49 -2 -66 -3 -43 -1 -82 35 -73 68 3 14 7 38 9 53 1 15 5 36 9 45
6 13 3 17 -14 15 -12 -1 -23 -4 -25 -7z m12 -42 c-3 -8 -6 -5 -6 6 -1 11 2 17
5 13 3 -3 4 -12 1 -19z"/>
</g>
</g>
</svg>