<?xml version="1.0" standalone="no"?>
<!DOCTYPE svg PUBLIC "-//W3C//DTD SVG 20010904//EN"
 "http://www.w3.org/TR/2001/REC-SVG-20010904/DTD/svg10.dtd">
<svg version="1.0" xmlns="http://www.w3.org/2000/svg"
 width="96.000000pt" height="68.000000pt" viewBox="0 0 96.000000 68.000000"
 preserveAspectRatio="xMidYMid meet">
<metadata>
Created by potrace 1.16, written by Peter Selinger 2001-2019
Combined from part_0.svg through part_5.svg with named groups
</metadata>
<g transform="translate(0.000000,68.000000) scale(0.100000,-0.100000)" fill="#000000" stroke="none">
<g id="part-0" class="char-part">
  <path d="M560 591 c0 -39 -1 -40 -37 -43 -49 -4 -57 -28 -9 -28 29 0 36 -4 36
-20 0 -26 15 -25 34 2 13 18 28 23 81 26 46 3 65 8 65 18 0 16 -60 29 -90 19
-21 -7 -22 -5 -16 20 8 31 -5 45 -41 45 -20 0 -23 -5 -23 -39z"/>
  <path d="M300 598 c0 -6 7 -19 16 -29 24 -27 8 -39 -52 -39 -62 0 -74 -19 -25
-40 24 -9 37 -9 66 1 33 12 38 12 46 -4 15 -25 39 -21 39 7 0 17 7 26 25 30
34 9 32 26 -4 26 -24 0 -30 5 -34 30 -6 27 -11 30 -42 30 -20 0 -35 -5 -35
-12z"/>
  <path d="M449 480 c12 -11 27 -17 32 -14 5 3 9 0 9 -5 0 -6 -19 -11 -42 -12
-24 0 -52 -2 -63 -4 -11 -2 -47 -7 -80 -10 -66 -8 -76 -12 -56 -24 14 -9 12
-85 -3 -155 -11 -48 -55 -125 -98 -172 -51 -55 -36 -57 25 -4 41 36 88 111 94
150 1 8 10 20 19 27 10 7 13 13 7 13 -8 0 -9 10 -2 32 5 18 9 45 9 60 0 14 7
34 16 42 20 21 70 21 78 0 14 -35 7 -44 -36 -46 -37 -1 -39 -2 -10 -5 17 -2
32 -6 32 -8 0 -3 -17 -21 -37 -40 -25 -23 -31 -33 -18 -29 11 4 27 12 35 19
37 29 42 28 35 -9 -6 -32 -5 -36 14 -36 14 0 21 -6 21 -19 0 -16 -10 -20 -65
-26 -83 -9 -76 -19 11 -16 48 2 65 -1 62 -10 -2 -6 -17 -13 -33 -15 -17 -2
-43 -8 -60 -13 -26 -8 -21 -9 33 -10 45 -1 62 -5 60 -13 -5 -13 -109 -36 -165
-37 -40 -1 -43 -18 -7 -27 17 -4 49 1 88 15 33 12 64 21 69 21 16 0 5 -22 -29
-55 -41 -40 -33 -46 17 -12 46 31 62 69 63 147 1 60 -1 65 -21 68 -19 3 -23
10 -23 38 0 33 12 45 25 24 3 -5 16 -10 28 -10 18 0 19 -2 7 -10 -29 -19 3
-10 52 15 27 14 51 25 53 25 2 0 1 -16 -2 -35 -5 -31 -3 -35 15 -35 17 0 21 7
24 35 l3 35 37 -25 c30 -21 48 -25 100 -24 l63 1 -65 20 c-78 24 -130 48 -130
60 0 4 23 8 50 8 30 0 50 4 50 11 0 8 -18 10 -56 7 -50 -4 -55 -3 -51 14 3 10
-2 22 -11 28 -13 7 -3 9 36 10 38 0 52 4 49 13 -4 13 -106 18 -169 6 -32 -5
-38 -4 -38 11 0 19 -19 30 -53 30 -22 -1 -22 -1 2 -20z m139 -69 c11 -32 3
-40 -41 -42 -21 -1 -21 -1 1 -8 23 -6 23 -6 -9 -36 -20 -19 -33 -26 -36 -18
-2 7 -20 17 -40 24 -26 8 -32 14 -22 20 8 5 24 9 37 9 14 0 21 4 16 11 -3 6
-17 8 -30 5 -17 -5 -24 -2 -24 8 0 8 -3 21 -6 30 -5 12 6 16 63 19 37 1 71 4
75 5 3 1 11 -11 16 -27z"/>
  <path d="M549 252 c-3 -38 3 -238 8 -245 8 -12 23 13 23 39 0 26 31 34 131 34
67 0 90 12 49 25 -19 6 -115 -1 -152 -11 -14 -4 -18 1 -18 20 0 24 3 26 49 26
55 0 81 7 81 22 0 10 -61 7 -110 -4 -9 -2 -16 6 -18 20 -3 18 1 22 26 22 54 0
122 13 122 23 0 6 -26 8 -70 4 -51 -4 -72 -2 -77 7 -9 15 -43 29 -44 18z"/>
</g>
<g id="part-1" class="char-part">
  <path d="M566 590 c-6 -37 -9 -40 -47 -46 -44 -7 -36 -24 13 -24 22 0 25 -4
21 -22 -4 -22 -3 -21 21 5 22 24 32 27 86 27 78 0 79 23 2 28 -56 3 -57 4 -42
32 8 15 6 21 -9 30 -32 16 -38 12 -45 -30z"/>
  <path d="M310 598 c0 -7 7 -22 15 -32 21 -28 10 -36 -51 -36 -41 0 -54 -4 -54
-15 0 -22 48 -30 89 -15 32 12 36 11 49 -9 20 -29 35 -27 30 4 -4 20 -1 26 18
31 13 3 24 11 24 16 0 6 -11 7 -25 4 -21 -5 -26 -2 -31 21 -4 16 -12 31 -18
35 -18 12 -46 9 -46 -4z"/>
</g>
<g id="part-2" class="char-part">
  <path d="M440 485 c25 -27 45 -32 56 -14 9 15 -5 25 -45 33 l-35 6 24 -25z"/>
  <path d="M420 448 c-96 -11 -177 -22 -179 -24 -3 -2 1 -10 7 -16 28 -28 4
-163 -45 -247 -14 -24 -41 -61 -60 -82 -20 -22 -32 -39 -28 -39 10 0 76 49 93
70 29 34 72 139 87 215 9 44 18 81 19 83 8 7 137 21 261 27 71 4 132 9 135 11
11 11 -28 24 -70 23 -25 -1 -124 -10 -220 -21z"/>
</g>
<g id="part-3" class="char-part">
  <path d="M580 425 c0 -3 5 -15 10 -25 9 -17 6 -20 -17 -26 -44 -9 -50 -12 -25
-13 34 -1 27 -16 -25 -50 -56 -37 -49 -40 19 -6 27 14 51 25 53 25 2 0 1 -16
-2 -35 -5 -31 -3 -35 16 -35 17 0 21 6 21 35 l0 35 40 -25 c32 -20 51 -25 102
-24 l63 1 -75 24 c-127 40 -155 64 -76 64 25 0 48 5 52 11 5 9 -9 10 -50 7
-53 -4 -57 -3 -54 16 2 16 -3 22 -24 24 -16 2 -28 0 -28 -3z"/>
</g>
<g id="part-4" class="char-part">
  <path d="M550 65 c0 -36 4 -65 9 -65 11 0 21 25 21 50 0 23 27 30 117 30 71 0
102 12 63 25 -18 6 -75 1 -142 -11 -23 -5 -28 -2 -28 15 0 14 -6 21 -20 21
-18 0 -20 -7 -20 -65z"/>
</g>
</g>
</svg>