<?xml version="1.0" standalone="no"?>
<!DOCTYPE svg PUBLIC "-//W3C//DTD SVG 20010904//EN"
 "http://www.w3.org/TR/2001/REC-SVG-20010904/DTD/svg10.dtd">
<svg version="1.0" xmlns="http://www.w3.org/2000/svg"
 width="96.000000pt" height="68.000000pt" viewBox="0 0 96.000000 68.000000"
 preserveAspectRatio="xMidYMid meet">
<metadata>
Created by potrace 1.16, written by Peter Selinger 2001-2019
Combined from part_0.svg through part_5.svg with named groups
</metadata>
<g transform="translate(0.000000,68.000000) scale(0.100000,-0.100000)" fill="#000000" stroke="none">
<g id="part-0" class="char-part">
  <path d="M554 593 c-15 -47 -38 -92 -60 -118 -13 -15 -24 -31 -24 -35 0 -3
-14 -21 -31 -38 -17 -18 -26 -32 -19 -32 13 0 68 37 85 56 10 12 208 26 233
17 25 -9 5 -266 -25 -312 -13 -21 -20 -23 -61 -17 l-45 6 19 -22 c52 -61 85
-62 126 -3 24 35 30 58 44 175 22 195 23 183 -7 197 -20 10 -44 10 -100 3 -41
-5 -91 -10 -112 -10 l-38 0 33 45 c56 76 55 75 34 91 -26 19 -45 18 -52 -3z"/>
  <path d="M233 569 c4 -13 10 -54 13 -90 l7 -66 -52 -7 c-62 -8 -59 -26 5 -26
l44 0 0 -64 0 -65 -57 -16 c-84 -23 -83 -23 -77 -38 5 -14 45 -37 63 -37 10 0
222 118 235 131 16 14 -27 11 -68 -6 l-36 -15 0 60 c0 58 1 60 26 60 32 0 66
18 59 31 -4 5 -24 9 -46 9 -38 0 -39 1 -39 34 0 19 5 47 10 62 14 35 -2 52
-55 61 -37 6 -38 5 -32 -18z"/>
  <path d="M510 339 c-88 -15 -82 -19 18 -15 52 2 99 9 105 15 13 13 -40 13
-123 0z"/>
  <path d="M498 237 c-106 -15 -83 -30 35 -22 120 8 146 13 126 26 -17 11 -72 9
-161 -4z"/>
</g>
<g id="part-1" class="char-part">
  <path d="M235 573 c5 -10 10 -49 13 -87 5 -77 -1 -86 -56 -86 -20 0 -31 -4
-27 -10 3 -5 23 -10 45 -10 44 0 50 -10 50 -81 l0 -48 -70 -22 c-74 -22 -84
-37 -36 -54 25 -8 41 -3 130 44 104 55 129 71 123 78 -2 2 -23 -4 -47 -12 -23
-8 -44 -15 -46 -15 -2 0 -4 26 -4 59 l0 59 47 12 c41 10 45 13 29 22 -10 5
-32 7 -48 4 l-31 -6 6 75 c6 81 10 75 -57 90 -25 5 -28 4 -21 -12z"/>
</g>
<g id="part-2" class="char-part">
  <path d="M557 612 c-2 -4 -7 -20 -11 -37 -9 -37 -38 -85 -93 -152 -49 -60 -38
-69 24 -19 40 31 47 33 148 39 59 4 111 4 116 1 23 -14 -4 -287 -31 -319 -11
-13 -24 -15 -59 -10 l-46 7 34 -36 c40 -41 69 -45 98 -13 35 38 42 61 58 194
8 70 18 140 21 155 5 21 1 30 -20 43 -22 15 -36 15 -113 6 -48 -6 -101 -11
-116 -11 l-28 0 42 57 c31 41 39 60 32 71 -10 18 -51 34 -56 24z"/>
</g>
<g id="part-3" class="char-part">
  <path d="M511 339 c-76 -13 -76 -19 1 -19 78 0 130 9 122 21 -6 11 -50 10
-123 -2z"/>
</g>
<g id="part-4" class="char-part">
  <path d="M503 237 c-100 -13 -96 -32 5 -23 127 11 166 18 151 27 -17 10 -60 9
-156 -4z"/>
</g>
</g>
</svg>