<?xml version="1.0" standalone="no"?>
<!DOCTYPE svg PUBLIC "-//W3C//DTD SVG 20010904//EN"
 "http://www.w3.org/TR/2001/REC-SVG-20010904/DTD/svg10.dtd">
<svg version="1.0" xmlns="http://www.w3.org/2000/svg"
 width="96.000000pt" height="68.000000pt" viewBox="0 0 96.000000 68.000000"
 preserveAspectRatio="xMidYMid meet">
<metadata>
Created by potrace 1.16, written by Peter Selinger 2001-2019
Combined from part_0.svg through part_5.svg with named groups
</metadata>
<g transform="translate(0.000000,68.000000) scale(0.100000,-0.100000)" fill="#000000" stroke="none">
<g id="part-0" class="char-part">
  <path d="M605 578 c-14 -45 -49 -88 -74 -88 -18 0 -22 -4 -16 -17 4 -10 6 -49
5 -88 -6 -156 -7 -150 15 -148 11 1 44 7 73 13 29 6 76 10 105 8 l52 -3 3 -55
c2 -37 -3 -66 -15 -90 -16 -30 -22 -35 -51 -32 -29 2 -32 0 -23 -16 5 -9 18
-25 29 -35 40 -36 85 20 102 124 5 35 13 76 16 91 10 42 -28 52 -143 39 -118
-14 -133 -14 -133 3 0 9 22 15 77 20 42 4 81 10 86 13 20 12 -16 20 -56 12
-23 -4 -56 -8 -74 -9 -26 0 -31 4 -30 20 1 20 13 23 125 24 27 1 36 7 55 41
38 67 39 73 9 89 -23 12 -37 12 -92 0 -35 -7 -66 -11 -69 -9 -4 5 19 28 68 66
26 21 22 32 -16 43 -17 5 -23 2 -28 -16z m95 -118 c0 -16 -7 -20 -32 -20 -18
0 -50 -3 -70 -6 -31 -5 -38 -4 -38 10 0 15 13 20 70 29 59 10 70 7 70 -13z
m-10 -49 c0 -14 -10 -20 -46 -25 -69 -9 -84 -8 -84 9 0 13 9 16 90 28 14 3 28
5 33 6 4 0 7 -7 7 -18z"/>
  <path d="M358 506 c4 -59 3 -63 -19 -69 -43 -12 -48 -8 -51 36 -3 38 -6 42
-32 45 l-28 4 7 -50 c6 -47 5 -51 -16 -54 -33 -5 -35 -26 -2 -30 22 -2 28 -8
28 -28 0 -24 -4 -26 -72 -34 -40 -5 -73 -13 -73 -18 0 -14 53 -29 80 -23 14 4
87 15 163 25 77 10 141 21 144 24 3 2 2 10 -2 16 -5 8 -22 10 -53 5 -39 -6
-44 -5 -38 10 3 9 6 23 6 30 0 7 16 16 35 19 42 8 45 22 8 38 -16 7 -29 13
-31 14 -2 1 2 21 9 44 14 47 5 60 -41 60 -26 0 -26 -1 -22 -64z m-8 -130 c0
-23 -16 -36 -46 -36 -21 0 -18 48 4 53 35 9 42 6 42 -17z"/>
  <path d="M342 282 c-6 -5 -33 -9 -59 -11 -26 -1 -48 -3 -50 -4 -6 -7 -7 -167
0 -173 4 -4 13 -2 19 4 7 7 34 12 61 12 38 0 53 -5 66 -22 l18 -22 16 25 c12
18 15 44 13 100 -1 41 -6 80 -10 87 -8 14 -54 16 -74 4z m48 -47 c0 -19 -5
-25 -22 -25 -13 0 -40 -3 -60 -6 -37 -6 -38 -6 -38 25 l0 31 60 0 c57 0 60 -1
60 -25z m-2 -72 c-3 -27 -6 -28 -65 -31 -61 -3 -63 -2 -63 22 0 21 5 25 38 29
93 9 94 9 90 -20z"/>
  <path d="M680 217 c1 -19 37 -57 55 -57 12 0 15 5 9 23 -3 12 -7 22 -8 22 0 1
-13 6 -28 13 -22 9 -28 9 -28 -1z"/>
  <path d="M606 201 c-3 -4 6 -18 19 -31 22 -21 25 -21 31 -6 9 24 -37 59 -50
37z"/>
  <path d="M476 168 c-20 -39 -20 -58 -2 -58 19 0 23 7 31 53 9 46 -7 49 -29 5z"/>
  <path d="M540 188 c0 -7 7 -22 15 -32 12 -15 18 -17 27 -8 9 9 7 16 -7 32 -21
23 -35 26 -35 8z"/>
</g>
<g id="part-1" class="char-part">
  <path d="M363 510 c0 -68 -5 -77 -48 -82 -29 -3 -30 -2 -33 45 -3 42 -5 47
-28 47 -23 0 -24 -2 -18 -42 4 -24 7 -47 8 -52 0 -6 -12 -13 -29 -17 l-30 -6
33 -8 c26 -6 32 -12 32 -35 0 -30 -18 -40 -80 -40 -19 0 -42 -4 -50 -10 -35
-22 30 -22 196 1 171 23 222 39 124 39 -43 0 -50 3 -50 19 0 25 26 51 52 51
26 0 18 24 -10 28 -24 4 -30 38 -13 71 12 22 2 38 -30 46 -25 6 -26 6 -26 -55z
m-3 -124 c0 -31 -13 -46 -40 -46 -29 0 -49 28 -35 50 10 16 75 12 75 -4z"/>
</g>
<g id="part-2" class="char-part">
  <path d="M330 280 c-14 -4 -43 -8 -65 -9 l-40 -1 0 -83 c0 -87 10 -123 27 -93
7 12 23 16 63 16 45 0 55 -3 60 -20 8 -25 17 -25 38 -2 13 14 16 35 13 99 -2
45 -7 86 -10 92 -8 12 -49 13 -86 1z m60 -45 c0 -21 -5 -25 -29 -25 -16 0 -43
-3 -60 -6 -28 -6 -31 -4 -31 19 0 30 10 35 73 36 44 1 47 -1 47 -24z m-2 -72
c-3 -27 -6 -28 -65 -31 -47 -2 -63 0 -63 10 1 32 23 42 103 47 25 1 28 -2 25
-26z"/>
</g>
<g id="part-3" class="char-part">
  <path d="M590 548 c-14 -28 -27 -56 -29 -61 -5 -12 24 8 74 52 37 32 38 34 20
47 -30 22 -39 17 -65 -38z"/>
</g>
<g id="part-4" class="char-part">
  <path d="M645 493 c-28 -8 -68 -11 -91 -8 l-41 6 8 -43 c4 -24 5 -53 2 -66 -5
-23 -5 -23 92 -19 l97 3 29 54 c16 29 29 55 29 56 0 6 -59 34 -67 33 -4 -1
-30 -8 -58 -16z m55 -33 c0 -14 -7 -20 -24 -20 -13 0 -45 -3 -71 -6 -43 -6
-47 -5 -43 12 2 14 15 21 43 25 80 12 95 11 95 -11z m-7 -49 c-4 -15 -18 -21
-63 -26 -64 -7 -90 -1 -71 18 6 6 35 14 64 18 28 3 57 7 64 8 6 0 9 -7 6 -18z"/>
</g>
<g id="part-5" class="char-part">
  <path d="M690 213 c1 -19 30 -44 47 -41 15 3 12 7 -15 26 -17 13 -32 20 -32
15z"/>
  <path d="M479 161 c-13 -31 -14 -38 -3 -38 8 0 14 10 14 23 0 12 4 24 10 26 5
2 6 8 2 15 -4 7 -13 -3 -23 -26z"/>
  <path d="M620 191 c0 -6 4 -12 8 -15 5 -3 9 1 9 9 0 8 -4 15 -9 15 -4 0 -8 -4
-8 -9z"/>
  <path d="M560 165 c7 -9 15 -13 17 -11 7 7 -7 26 -19 26 -6 0 -6 -6 2 -15z"/>
</g>
</g>
</svg>