<?xml version="1.0" standalone="no"?>
<!DOCTYPE svg PUBLIC "-//W3C//DTD SVG 20010904//EN"
 "http://www.w3.org/TR/2001/REC-SVG-20010904/DTD/svg10.dtd">
<svg version="1.0" xmlns="http://www.w3.org/2000/svg"
 width="96.000000pt" height="68.000000pt" viewBox="0 0 96.000000 68.000000"
 preserveAspectRatio="xMidYMid meet">
<metadata>
Created by potrace 1.16, written by Peter Selinger 2001-2019
Combined from part_0.svg through part_5.svg with named groups
</metadata>
<g transform="translate(0.000000,68.000000) scale(0.100000,-0.100000)" fill="#000000" stroke="none">
<g id="part-0" class="char-part">
  <path d="M306 566 c-9 -46 -70 -138 -144 -215 -34 -36 -59 -67 -57 -69 7 -7
88 44 114 72 13 14 28 23 33 20 11 -7 1 -149 -14 -216 -9 -38 -9 -53 2 -73 17
-31 38 -32 49 -1 14 36 17 304 4 317 -9 9 2 31 40 86 l52 75 -24 19 c-34 27
-48 24 -55 -15z"/>
  <path d="M500 571 c0 -4 13 -23 30 -43 l29 -36 -31 -6 c-49 -10 -118 -7 -118
5 0 21 -21 -4 -44 -51 -37 -77 6 -95 45 -19 15 30 25 39 44 39 43 0 33 -48
-21 -109 -47 -52 -48 -65 -4 -34 45 32 71 57 92 91 16 26 18 35 8 47 -11 13
-6 15 29 15 l41 0 0 -52 c0 -59 5 -70 37 -87 27 -14 140 -15 148 0 11 17 -2
22 -52 21 -25 0 -57 4 -71 9 -23 9 -24 13 -18 58 5 36 3 51 -6 54 -7 3 13 6
45 6 l58 1 -16 -30 c-9 -18 -11 -30 -5 -30 13 0 110 48 110 55 0 2 -14 12 -32
21 -25 13 -48 15 -103 11 -38 -3 -78 -8 -87 -12 -14 -6 -18 -2 -18 17 0 14 -8
32 -17 40 -19 16 -73 30 -73 19z"/>
  <path d="M610 280 c-19 -4 -65 -11 -102 -15 -79 -8 -91 -25 -18 -25 l50 0 0
-54 0 -54 -110 -7 c-105 -7 -135 -16 -89 -28 30 -8 437 3 474 13 l30 8 -35 15
c-27 12 -55 13 -128 8 -52 -3 -96 -3 -99 1 -2 5 1 24 7 44 7 19 10 41 7 48 -4
10 9 15 45 19 69 8 79 19 28 29 -14 3 -41 2 -60 -2z"/>
</g>
<g id="part-1" class="char-part">
  <path d="M310 568 c0 -37 -53 -119 -130 -201 -40 -42 -68 -77 -63 -77 17 0
103 62 114 81 5 11 15 17 21 13 10 -7 6 -143 -7 -244 -5 -33 -2 -50 9 -65 12
-16 17 -17 24 -7 15 22 24 310 10 331 -9 15 -4 29 35 83 50 70 57 92 31 102
-30 11 -44 6 -44 -16z"/>
</g>
<g id="part-2" class="char-part">
  <path d="M500 570 c0 -5 13 -25 30 -43 l30 -35 -31 -6 c-48 -9 -107 -7 -114 4
-9 14 -25 12 -25 -3 0 -7 -11 -29 -25 -49 -26 -39 -24 -71 4 -66 8 2 26 22 38
44 l23 41 127 12 c71 6 139 11 152 11 24 0 25 -7 6 -52 -6 -15 3 -14 54 10 33
15 60 30 61 34 0 4 -14 15 -32 24 -25 13 -47 15 -105 10 -41 -4 -80 -9 -88
-13 -11 -3 -15 2 -15 18 0 32 -10 46 -43 58 -35 14 -47 14 -47 1z"/>
</g>
<g id="part-3" class="char-part">
  <path d="M600 418 c0 -62 6 -73 43 -87 37 -14 134 -14 143 0 11 18 -18 30 -56
24 -20 -4 -49 -1 -64 5 -27 10 -28 12 -22 60 6 49 6 50 -19 50 -24 0 -25 -3
-25 -52z"/>
  <path d="M480 440 c0 -32 -25 -74 -65 -109 -48 -42 -19 -40 38 4 48 37 92 98
82 115 -3 5 -17 10 -31 10 -18 0 -24 -5 -24 -20z"/>
</g>
<g id="part-4" class="char-part">
  <path d="M515 266 c-90 -11 -98 -26 -14 -26 l39 0 0 -54 0 -54 -110 -7 c-104
-7 -135 -16 -90 -28 23 -6 394 1 458 9 23 3 42 9 42 13 0 19 -78 29 -165 21
-49 -5 -91 -7 -93 -5 -2 1 2 22 8 45 6 23 9 48 6 55 -3 9 11 15 50 20 30 3 54
11 54 16 0 11 -68 10 -185 -5z"/>
</g>
</g>
</svg>