<?xml version="1.0" standalone="no"?>
<!DOCTYPE svg PUBLIC "-//W3C//DTD SVG 20010904//EN"
 "http://www.w3.org/TR/2001/REC-SVG-20010904/DTD/svg10.dtd">
<svg version="1.0" xmlns="http://www.w3.org/2000/svg"
 width="96.000000pt" height="68.000000pt" viewBox="0 0 96.000000 68.000000"
 preserveAspectRatio="xMidYMid meet">
<metadata>
Created by potrace 1.16, written by Peter Selinger 2001-2019
Combined from part_0.svg through part_5.svg with named groups
</metadata>
<g transform="translate(0.000000,68.000000) scale(0.100000,-0.100000)" fill="#000000" stroke="none">
<g id="part-0" class="char-part">
  <path d="M400 576 c0 -7 9 -25 20 -38 l20 -26 -31 -6 c-18 -3 -63 -6 -101 -6
-52 0 -70 4 -74 15 -4 8 -11 15 -18 14 -15 0 -70 -114 -62 -128 17 -27 64 -3
79 42 4 9 12 17 19 17 7 0 101 9 207 20 115 12 199 16 204 11 5 -5 2 -20 -8
-35 -10 -15 -16 -28 -14 -31 6 -5 132 25 142 34 13 13 -3 38 -37 56 -30 16
-46 17 -139 9 l-106 -9 -5 26 c-7 38 -96 71 -96 35z"/>
  <path d="M450 419 c-41 -5 -93 -10 -115 -11 l-41 -1 23 -46 c12 -25 23 -52 23
-59 0 -10 9 -12 31 -7 29 7 30 6 26 -22 -8 -59 -14 -63 -85 -63 -54 0 -63 -2
-50 -12 8 -7 24 -44 33 -81 14 -52 22 -67 33 -62 8 3 56 8 106 11 152 8 176
13 176 33 0 10 13 36 29 58 31 42 30 53 -6 72 -17 8 -39 9 -85 1 -35 -5 -81
-10 -102 -10 l-40 0 26 28 c14 15 24 32 21 38 -2 7 16 14 48 18 28 4 49 10 45
13 -3 3 5 21 19 39 14 18 25 37 25 43 0 12 -33 32 -52 30 -7 -1 -47 -6 -88
-10z m74 -18 c3 -5 1 -22 -5 -39 -11 -33 -37 -42 -114 -42 -39 0 -44 3 -53 30
-13 36 -9 39 71 49 88 12 95 12 101 2z m52 -244 l-12 -42 -89 -12 c-145 -18
-141 -19 -153 29 -14 53 -11 55 92 62 45 4 97 7 116 9 57 4 60 1 46 -46z"/>
</g>
<g id="part-1" class="char-part">
  <path d="M409 562 c5 -10 17 -24 25 -32 31 -25 15 -30 -94 -30 -67 0 -110 4
-110 10 0 23 -20 7 -44 -36 -28 -50 -33 -84 -13 -84 20 0 35 14 51 45 16 30
17 30 143 42 245 23 313 26 313 16 0 -6 -9 -22 -21 -37 -24 -30 -19 -31 61
-12 50 11 57 17 52 44 -1 4 -17 15 -35 25 -29 16 -43 17 -122 7 -125 -14 -125
-14 -125 15 0 27 -25 45 -65 45 -22 0 -24 -3 -16 -18z"/>
</g>
<g id="part-2" class="char-part">
  <path d="M465 420 c-27 -5 -81 -9 -120 -9 -51 -1 -65 -4 -53 -11 9 -6 24 -32
33 -59 l16 -49 62 4 c103 8 148 15 143 23 -3 4 8 24 25 43 27 33 28 38 13 52
-16 17 -39 18 -119 6z m53 -18 c9 -6 10 -16 2 -39 -12 -33 -41 -43 -122 -43
-34 0 -38 3 -46 33 -5 17 -8 33 -6 35 1 2 33 7 71 11 37 5 73 9 78 10 6 0 16
-3 23 -7z"/>
</g>
<g id="part-3" class="char-part">
  <path d="M395 259 c-4 -22 -5 -42 -2 -45 2 -3 19 12 37 32 25 28 29 39 18 45
-30 19 -46 10 -53 -32z"/>
</g>
<g id="part-4" class="char-part">
  <path d="M500 225 c-52 -6 -130 -11 -173 -11 -78 1 -88 -3 -63 -23 7 -6 21
-40 31 -77 13 -48 21 -64 32 -60 15 6 62 11 207 22 49 3 83 9 76 14 -9 5 -5
18 14 48 14 22 30 43 36 47 18 11 11 22 -24 39 -19 9 -36 15 -38 14 -1 0 -46
-6 -98 -13z m84 -26 c2 -2 0 -23 -7 -46 -12 -46 -10 -46 -168 -59 l-76 -6 -6
28 c-3 16 -9 37 -12 46 -8 19 14 25 137 37 78 8 125 8 132 0z"/>
</g>
</g>
</svg>