<?xml version="1.0" standalone="no"?>
<!DOCTYPE svg PUBLIC "-//W3C//DTD SVG 20010904//EN"
 "http://www.w3.org/TR/2001/REC-SVG-20010904/DTD/svg10.dtd">
<svg version="1.0" xmlns="http://www.w3.org/2000/svg"
 width="96.000000pt" height="68.000000pt" viewBox="0 0 96.000000 68.000000"
 preserveAspectRatio="xMidYMid meet">
<metadata>
Created by potrace 1.16, written by Peter Selinger 2001-2019
Combined from part_0.svg through part_5.svg with named groups
</metadata>
<g transform="translate(0.000000,68.000000) scale(0.100000,-0.100000)" fill="#000000" stroke="none">
<g id="part-0" class="char-part">
  <path d="M393 599 c9 -70 4 -76 -74 -81 -38 -3 -73 -8 -77 -12 -15 -16 27 -27
81 -22 44 4 57 3 57 -8 0 -21 -22 -34 -65 -38 -48 -4 -49 -21 -3 -28 18 -3 33
-11 32 -17 -1 -7 -2 -17 -3 -22 0 -5 -42 -12 -93 -16 -71 -5 -88 -9 -74 -17
11 -6 45 -8 77 -5 33 3 59 2 59 -2 0 -14 -93 -87 -149 -116 -65 -36 -53 -43
24 -14 40 15 77 40 125 85 63 60 70 64 115 64 43 0 57 -7 146 -70 54 -39 110
-75 125 -80 31 -12 134 -3 134 11 0 5 -2 9 -5 9 -35 0 -190 53 -205 71 -3 3
-27 16 -53 28 -27 13 -45 27 -40 32 4 4 49 9 98 11 l90 3 -27 18 c-24 17 -35
17 -100 8 -119 -18 -198 -23 -198 -13 0 22 37 38 108 47 76 10 104 28 58 37
-14 3 -46 2 -73 -2 -53 -9 -58 -7 -50 14 4 9 25 17 54 20 94 12 134 21 133 31
0 6 -35 9 -86 8 -76 -1 -85 1 -79 15 4 10 9 29 12 43 4 24 1 27 -37 37 l-42
10 5 -39z"/>
  <path d="M395 285 c-22 -14 -48 -25 -57 -25 -9 0 -19 -4 -22 -8 -3 -5 17 -7
44 -4 48 4 50 3 50 -20 0 -22 -5 -26 -46 -32 -26 -3 -66 -6 -90 -6 -26 0 -44
-5 -44 -11 0 -8 24 -10 75 -7 41 2 75 1 75 -2 0 -12 -103 -72 -157 -92 -67
-25 -93 -43 -48 -33 47 11 146 46 187 66 21 11 40 19 44 19 4 0 4 -23 0 -51
-8 -57 6 -88 30 -68 9 7 14 33 14 70 0 33 4 59 10 59 5 0 38 -20 73 -45 60
-41 69 -45 123 -44 33 1 70 4 84 8 24 7 23 8 -15 19 -22 7 -47 12 -55 12 -41
0 -210 74 -210 92 0 4 30 8 68 8 76 0 114 14 69 26 -16 3 -52 4 -82 2 -40 -3
-55 -1 -55 8 0 7 -3 19 -6 27 -4 11 2 16 18 19 13 2 23 10 23 18 0 25 -56 23
-100 -5z"/>
</g>
<g id="part-1" class="char-part">
  <path d="M397 580 c5 -47 4 -50 -21 -60 -15 -5 -52 -10 -82 -10 -34 0 -53 -4
-49 -10 3 -5 37 -10 75 -10 64 0 68 -1 63 -21 -6 -23 -10 -24 -66 -34 -43 -7
-41 -25 4 -25 16 0 29 -4 29 -10 0 -16 47 -12 53 4 4 9 26 17 54 21 108 14
123 17 123 27 0 7 -26 9 -80 4 l-80 -6 9 22 c7 20 18 24 87 31 99 10 114 14
94 28 -9 5 -46 7 -89 3 l-74 -7 5 24 c3 13 9 31 12 40 5 13 -1 19 -25 28 -47
16 -49 15 -42 -39z"/>
</g>
<g id="part-2" class="char-part">
  <path d="M520 383 c-85 -9 -126 -10 -128 -3 -5 15 -38 12 -52 -5 -8 -9 -30
-15 -59 -16 -25 0 -64 -4 -86 -8 -59 -12 -19 -25 55 -18 46 4 58 2 53 -8 -7
-19 -96 -86 -158 -120 -48 -26 -49 -27 -15 -21 60 11 134 53 189 109 48 48 57
54 101 56 49 2 66 -7 223 -119 45 -32 54 -35 115 -33 93 3 97 17 10 38 -89 21
-257 106 -231 117 10 3 54 7 98 8 l80 1 -24 19 c-13 11 -28 19 -35 19 -6 -1
-67 -8 -136 -16z"/>
</g>
<g id="part-3" class="char-part">
  <path d="M370 274 c-36 -19 -62 -34 -58 -34 7 0 132 25 176 35 20 5 22 8 12
20 -19 23 -59 16 -130 -21z"/>
</g>
<g id="part-4" class="char-part">
  <path d="M408 231 l4 -29 -79 -7 c-96 -8 -118 -15 -82 -25 14 -4 50 -4 79 1
30 5 56 7 58 5 8 -9 -91 -68 -157 -94 -39 -16 -74 -32 -77 -35 -15 -14 127 27
185 53 35 17 66 30 69 30 2 0 2 -23 -1 -50 -7 -57 -1 -80 19 -80 16 0 23 25
26 98 l3 52 74 -50 c68 -46 78 -50 130 -49 31 1 70 4 86 8 25 6 15 10 -70 30
-94 22 -206 68 -220 91 -4 6 20 10 67 10 81 0 121 14 74 26 -15 3 -54 3 -87 0
-57 -7 -59 -6 -56 16 1 18 -4 24 -24 26 -23 3 -25 0 -21 -27z"/>
</g>
</g>
</svg>