<?xml version="1.0" standalone="no"?>
<!DOCTYPE svg PUBLIC "-//W3C//DTD SVG 20010904//EN"
 "http://www.w3.org/TR/2001/REC-SVG-20010904/DTD/svg10.dtd">
<svg version="1.0" xmlns="http://www.w3.org/2000/svg"
 width="96.000000pt" height="68.000000pt" viewBox="0 0 96.000000 68.000000"
 preserveAspectRatio="xMidYMid meet">
<metadata>
Created by potrace 1.16, written by Peter Selinger 2001-2019
Combined from part_0.svg through part_5.svg with named groups
</metadata>
<g transform="translate(0.000000,68.000000) scale(0.100000,-0.100000)" fill="#000000" stroke="none">
<g id="part-0" class="char-part">
  <path d="M460 599 c0 -7 12 -25 26 -40 l26 -28 -33 -5 c-19 -3 -74 -10 -123
-16 -96 -10 -111 -16 -83 -31 12 -7 17 -23 17 -53 0 -113 -50 -240 -128 -327
-36 -40 -40 -49 -24 -49 52 0 149 126 182 238 l13 42 57 0 58 0 6 -54 c5 -33
13 -57 22 -60 8 -3 14 -1 14 4 0 6 26 10 58 10 31 0 62 4 68 8 6 4 15 30 19
58 l7 52 71 7 c61 6 69 9 55 19 -12 8 -36 11 -68 8 -53 -5 -57 0 -35 51 9 22
6 25 -32 33 -30 6 -30 6 -31 -42 -1 -26 -4 -49 -6 -51 -2 -3 -28 -7 -58 -10
l-54 -5 -9 38 c-8 29 -16 40 -32 42 -23 3 -32 -12 -14 -22 5 -3 11 -19 13 -34
4 -28 3 -29 -50 -31 l-54 -2 7 58 c4 32 10 61 14 65 6 6 150 22 314 34 42 3
77 10 77 15 0 21 -44 30 -116 24 -61 -6 -74 -5 -74 7 0 21 -30 45 -67 53 -24
5 -33 3 -33 -6z m132 -294 c-2 -22 -5 -41 -7 -44 -2 -2 -24 -6 -50 -8 -36 -5
-45 -2 -45 9 0 9 -3 29 -6 46 -6 30 -5 31 37 35 73 6 74 6 71 -38z"/>
  <path d="M680 194 c0 -9 112 -134 120 -134 17 0 19 33 5 61 -17 32 -125 95
-125 73z"/>
  <path d="M321 135 c-24 -51 -26 -71 -10 -81 18 -11 49 37 49 78 0 53 -15 54
-39 3z"/>
  <path d="M565 158 c20 -61 65 -92 65 -45 0 29 -18 53 -48 62 -22 6 -23 5 -17
-17z"/>
  <path d="M450 145 c0 -14 4 -25 9 -25 5 0 11 -9 14 -21 6 -23 30 -21 35 2 3
17 -34 69 -49 69 -5 0 -9 -11 -9 -25z"/>
</g>
<g id="part-1" class="char-part">
  <path d="M470 591 c0 -4 9 -20 20 -34 11 -14 20 -27 20 -30 0 -2 -54 -10 -120
-17 -110 -12 -141 -21 -108 -32 20 -7 13 -125 -12 -199 -25 -74 -48 -116 -103
-181 -48 -59 -32 -62 30 -6 80 75 119 158 143 311 l12 75 47 7 c25 5 116 13
201 20 153 12 155 12 120 27 -27 12 -47 14 -85 8 -72 -12 -75 -12 -75 9 0 11
-10 27 -22 35 -24 17 -68 22 -68 7z"/>
</g>
<g id="part-2" class="char-part">
  <path d="M600 425 l0 -53 -56 -7 c-31 -4 -57 -5 -58 -3 -1 2 -7 19 -12 38 -8
28 -15 36 -38 38 -28 3 -28 3 -12 -19 9 -13 16 -34 16 -46 0 -21 -4 -23 -55
-23 -30 0 -55 -4 -55 -10 0 -6 26 -10 59 -10 l59 0 7 -55 c6 -52 24 -83 33
-57 2 7 25 12 57 12 68 0 85 7 85 35 0 12 3 36 6 53 6 29 8 30 82 37 71 7 74
8 52 20 -16 9 -42 11 -74 8 -44 -6 -49 -4 -43 11 11 27 20 66 16 66 -2 0 -19
4 -37 9 l-32 10 0 -54z m0 -89 c0 -7 -3 -27 -6 -44 -6 -28 -11 -32 -51 -38
-24 -3 -46 -5 -48 -2 -2 2 -7 22 -11 45 l-6 42 43 4 c24 2 52 4 62 5 9 1 17
-4 17 -12z"/>
</g>
<g id="part-3" class="char-part">
  <path d="M680 193 c0 -5 27 -37 59 -73 46 -50 62 -62 71 -53 19 18 4 59 -29
83 -37 25 -101 53 -101 43z"/>
  <path d="M322 139 c-25 -46 -29 -89 -8 -89 28 0 60 69 49 110 -8 29 -17 25
-41 -21z"/>
  <path d="M560 171 c0 -20 43 -81 56 -81 22 0 17 50 -8 71 -23 20 -48 25 -48
10z"/>
  <path d="M455 133 c20 -47 30 -57 45 -48 26 16 -13 84 -48 85 -9 0 -9 -9 3
-37z"/>
</g>
</g>
</svg>