<?xml version="1.0" standalone="no"?>
<!DOCTYPE svg PUBLIC "-//W3C//DTD SVG 20010904//EN"
 "http://www.w3.org/TR/2001/REC-SVG-20010904/DTD/svg10.dtd">
<svg version="1.0" xmlns="http://www.w3.org/2000/svg"
 width="96.000000pt" height="68.000000pt" viewBox="0 0 96.000000 68.000000"
 preserveAspectRatio="xMidYMid meet">
<metadata>
Created by potrace 1.16, written by Peter Selinger 2001-2019
Combined from part_0.svg through part_5.svg with named groups
</metadata>
<g transform="translate(0.000000,68.000000) scale(0.100000,-0.100000)" fill="#000000" stroke="none">
<g id="part-0" class="char-part">
  <path d="M570 628 c0 -46 -10 -56 -55 -60 -51 -4 -52 -22 -2 -26 20 -2 37 -5
37 -6 0 -2 -7 -20 -15 -40 -14 -32 -14 -36 0 -36 8 0 26 18 41 39 25 39 28 40
95 47 42 4 68 11 66 17 -5 16 -58 28 -90 21 -26 -5 -28 -4 -18 14 16 30 14 37
-14 50 -39 18 -45 15 -45 -20z"/>
  <path d="M312 618 c3 -13 9 -31 13 -40 6 -16 0 -18 -59 -18 -74 0 -87 -16 -40
-46 21 -15 31 -15 58 -6 48 17 64 15 68 -10 2 -13 11 -24 21 -26 13 -3 17 4
17 30 0 28 5 36 33 48 l32 14 -37 3 c-33 4 -37 7 -40 36 -3 28 -7 32 -37 35
-31 3 -33 1 -29 -20z"/>
  <path d="M303 463 c-13 -36 -46 -75 -85 -99 -55 -35 -40 -42 20 -9 71 38 126
94 111 111 -16 19 -38 17 -46 -3z"/>
  <path d="M585 438 c-111 -18 -112 -18 -91 -30 17 -10 192 4 204 17 18 17 -42
24 -113 13z"/>
  <path d="M326 358 c-18 -44 -52 -77 -132 -132 -45 -30 -27 -34 31 -6 22 11 43
19 48 20 11 0 9 -94 -3 -125 -11 -30 2 -65 25 -65 19 0 27 45 23 138 l-3 80
38 41 c39 42 40 53 7 71 -17 9 -22 6 -34 -22z"/>
  <path d="M580 329 c-74 -10 -143 -18 -153 -18 -11 -1 -15 -6 -11 -12 4 -7 38
-10 98 -8 l91 4 6 -30 c10 -45 10 -138 0 -154 -6 -10 -19 -12 -46 -7 l-38 7
39 -40 c42 -46 54 -49 77 -23 12 13 16 44 18 140 l2 122 69 0 c51 0 68 3 68
14 0 12 -46 28 -74 25 -6 -1 -72 -10 -146 -20z"/>
</g>
<g id="part-1" class="char-part">
  <path d="M570 610 c0 -35 -3 -40 -22 -40 -13 0 -34 -3 -46 -7 -29 -7 -11 -23
27 -23 24 0 25 -12 4 -67 -6 -16 -5 -16 10 -4 9 7 26 28 38 47 20 33 23 34 86
34 47 0 64 3 61 13 -3 7 -26 13 -56 15 -54 3 -61 9 -39 31 10 10 8 15 -7 27
-11 8 -28 14 -38 14 -14 0 -18 -8 -18 -40z"/>
  <path d="M315 630 c-3 -5 -1 -18 5 -29 23 -43 14 -51 -57 -51 l-66 0 19 -21
c19 -21 35 -21 105 -4 24 6 28 4 34 -24 4 -17 10 -31 15 -31 12 0 19 26 13 48
-3 15 2 22 26 30 40 14 40 26 1 19 -28 -6 -30 -4 -30 23 0 37 -48 67 -65 40z"/>
</g>
<g id="part-2" class="char-part">
  <path d="M303 463 c-12 -33 -46 -73 -85 -99 -51 -36 -42 -41 19 -11 55 29 128
100 119 116 -11 17 -46 13 -53 -6z"/>
</g>
<g id="part-3" class="char-part">
  <path d="M337 383 c-4 -3 -7 -14 -7 -23 0 -18 -65 -83 -129 -129 -50 -35 -37
-40 28 -11 24 11 45 20 47 20 9 0 3 -89 -7 -119 -9 -26 -8 -36 6 -58 17 -25
18 -26 31 -8 16 22 19 171 5 194 -7 11 2 25 35 54 49 43 52 53 27 73 -21 15
-27 17 -36 7z"/>
</g>
<g id="part-4" class="char-part">
  <path d="M616 237 c4 -36 3 -82 0 -102 -7 -37 -8 -37 -48 -32 l-41 5 39 -39
c21 -21 44 -39 51 -39 29 0 42 44 44 155 l3 110 -27 3 -28 3 7 -64z"/>
</g>
</g>
</svg>