<?xml version="1.0" standalone="no"?>
<!DOCTYPE svg PUBLIC "-//W3C//DTD SVG 20010904//EN"
 "http://www.w3.org/TR/2001/REC-SVG-20010904/DTD/svg10.dtd">
<svg version="1.0" xmlns="http://www.w3.org/2000/svg"
 width="96.000000pt" height="68.000000pt" viewBox="0 0 96.000000 68.000000"
 preserveAspectRatio="xMidYMid meet">
<metadata>
Created by potrace 1.16, written by Peter Selinger 2001-2019
Combined from part_0.svg through part_5.svg with named groups
</metadata>
<g transform="translate(0.000000,68.000000) scale(0.100000,-0.100000)" fill="#000000" stroke="none">
<g id="part-0" class="char-part">
  <path d="M160 563 c0 -12 71 -79 91 -86 36 -12 52 38 22 66 -20 17 -113 34
-113 20z"/>
  <path d="M560 550 c-25 -4 -76 -11 -113 -15 -74 -7 -80 -15 -16 -24 l40 -6
-26 -52 c-15 -29 -40 -64 -57 -78 -32 -27 -23 -33 20 -11 41 21 102 109 102
146 0 14 12 18 62 23 35 3 65 3 67 1 8 -8 1 -78 -11 -107 -9 -24 -16 -28 -40
-25 -34 5 -34 5 -6 -27 41 -47 78 -21 98 71 6 25 16 56 22 67 22 41 -33 55
-142 37z"/>
  <path d="M168 396 c-78 -29 -81 -36 -15 -36 31 0 57 -2 57 -5 0 -3 -6 -14 -12
-25 -10 -16 -10 -24 0 -38 34 -47 52 -78 52 -89 0 -9 -22 -13 -78 -13 -43 0
-82 -3 -85 -7 -4 -3 0 -14 9 -24 14 -15 28 -17 102 -12 86 5 90 5 254 -51 92
-31 178 -56 193 -56 31 0 170 37 199 53 27 15 27 15 -169 26 -114 6 -194 17
-277 37 -111 26 -117 29 -112 50 9 35 -4 63 -38 80 l-30 16 42 43 42 43 -23
16 c-29 20 -40 19 -111 -8z"/>
  <path d="M558 325 c-2 -3 -41 -7 -86 -10 -45 -2 -82 -8 -81 -12 1 -4 5 -18 10
-31 5 -13 14 -44 20 -68 9 -35 15 -44 28 -39 9 4 50 9 91 11 121 8 139 12 134
32 -3 9 5 35 16 57 19 37 19 41 3 52 -16 12 -124 18 -135 8z m70 -67 c-5 -23
-10 -44 -12 -45 -2 -2 -39 -6 -83 -10 l-79 -6 -11 46 c-10 45 -9 46 16 50 14
2 60 5 102 6 l77 1 -10 -42z"/>
</g>
<g id="part-1" class="char-part">
  <path d="M186 534 c19 -28 70 -58 84 -49 18 11 11 43 -12 59 -12 9 -37 16 -55
16 l-33 0 16 -26z"/>
  <path d="M168 392 c-69 -25 -71 -35 -5 -28 61 8 66 4 41 -32 -15 -22 -15 -25
4 -45 26 -30 42 -61 42 -86 0 -20 -6 -21 -81 -21 -73 0 -80 -2 -69 -16 11 -12
27 -14 89 -9 74 7 82 5 259 -52 166 -55 187 -59 233 -52 74 12 159 38 159 49
0 6 -38 10 -87 10 -128 0 -259 16 -377 46 l-104 26 5 36 c5 31 2 38 -28 64
l-34 28 38 34 c40 36 46 51 21 60 -24 9 -55 6 -106 -12z"/>
</g>
<g id="part-2" class="char-part">
  <path d="M570 554 c-41 -7 -101 -15 -133 -19 -36 -4 -55 -10 -51 -17 4 -7 27
-8 63 -3 153 19 177 22 184 18 11 -7 8 -79 -5 -108 -10 -22 -17 -26 -40 -23
-33 5 -34 1 -9 -29 41 -49 77 -21 106 83 23 84 23 86 -10 99 -23 8 -48 8 -105
-1z"/>
</g>
<g id="part-3" class="char-part">
  <path d="M464 503 c-18 -55 -30 -76 -64 -113 -38 -41 -38 -42 -12 -35 15 4 36
14 46 23 28 25 76 103 76 124 0 24 -39 24 -46 1z"/>
</g>
<g id="part-4" class="char-part">
  <path d="M478 316 c-88 -10 -95 -12 -84 -28 7 -10 18 -42 25 -73 10 -46 16
-55 29 -50 10 4 64 11 122 16 58 4 106 8 107 8 0 1 -1 9 -3 19 -3 9 4 35 15
56 19 37 19 40 3 52 -20 15 -78 15 -214 0z m150 -58 c-5 -23 -11 -44 -13 -46
-2 -2 -39 -6 -83 -9 l-79 -6 -6 29 c-3 16 -9 37 -12 46 -8 21 11 25 121 27
l82 1 -10 -42z"/>
</g>
</g>
</svg>