<?xml version="1.0" standalone="no"?>
<!DOCTYPE svg PUBLIC "-//W3C//DTD SVG 20010904//EN"
 "http://www.w3.org/TR/2001/REC-SVG-20010904/DTD/svg10.dtd">
<svg version="1.0" xmlns="http://www.w3.org/2000/svg"
 width="96.000000pt" height="68.000000pt" viewBox="0 0 96.000000 68.000000"
 preserveAspectRatio="xMidYMid meet">
<metadata>
Created by potrace 1.16, written by Peter Selinger 2001-2019
Combined from part_0.svg through part_5.svg with named groups
</metadata>
<g transform="translate(0.000000,68.000000) scale(0.100000,-0.100000)" fill="#000000" stroke="none">
<g id="part-0" class="char-part">
  <path d="M561 371 c-1 -227 6 -259 61 -282 40 -17 145 -17 187 1 36 14 38 35
12 94 l-17 39 -12 -41 c-15 -50 -35 -62 -101 -62 -72 0 -91 21 -91 99 0 33 5
63 10 66 6 4 29 -9 50 -29 43 -38 64 -45 73 -22 9 23 -15 44 -68 59 -42 12
-50 18 -50 38 0 18 12 29 55 52 30 15 61 34 69 42 12 12 11 16 -12 26 -25 11
-29 9 -73 -37 l-47 -49 6 35 c4 19 9 62 13 96 6 58 5 61 -17 67 -48 13 -47 17
-48 -192z"/>
  <path d="M435 513 c4 -10 6 -70 6 -133 -1 -134 -21 -203 -78 -269 -48 -56 -23
-52 35 7 69 68 79 98 91 252 9 122 9 136 -6 148 -26 19 -57 16 -48 -5z"/>
  <path d="M248 515 c-3 -3 -38 -9 -79 -13 -58 -6 -73 -11 -69 -22 3 -8 6 -82 7
-163 2 -148 11 -189 37 -168 6 4 35 11 64 13 45 4 54 2 63 -15 10 -17 12 -18
26 -4 13 12 17 50 21 186 l5 170 -27 11 c-31 11 -40 12 -48 5z m6 -51 c15 -38
6 -52 -38 -63 -25 -6 -47 -11 -50 -11 -12 0 -6 79 7 83 28 12 75 7 81 -9z m6
-127 c0 -32 -2 -34 -41 -35 -22 -1 -45 -4 -50 -8 -5 -3 -9 11 -9 30 0 32 3 35
33 39 69 8 67 9 67 -26z m10 -114 c0 -31 -2 -33 -37 -33 -21 0 -48 -3 -60 -6
-20 -6 -23 -3 -23 22 0 42 9 51 60 61 51 10 60 4 60 -44z"/>
  <path d="M368 369 c33 -29 52 -31 52 -4 0 18 -31 35 -62 35 -22 -1 -21 -2 10
-31z"/>
  <path d="M380 270 c-14 -11 -31 -20 -38 -20 -21 0 -8 -25 14 -27 11 -1 31 12
47 32 32 39 18 47 -23 15z"/>
</g>
<g id="part-1" class="char-part">
  <path d="M164 496 c-60 -11 -61 -12 -52 -36 6 -14 7 -69 4 -127 -6 -99 -6
-103 14 -103 13 0 20 7 20 20 0 14 7 20 23 20 12 0 39 3 60 6 35 6 37 5 37
-20 0 -19 5 -26 19 -26 17 0 19 10 23 128 2 70 0 133 -5 140 -11 14 -57 14
-143 -2z m82 -14 c6 -4 14 -23 18 -42 l6 -36 -56 -10 c-30 -5 -57 -8 -58 -5
-2 4 -1 25 2 48 4 38 7 42 35 46 18 2 34 4 37 5 3 1 10 -2 16 -6z m24 -142 c0
-37 -2 -40 -29 -40 -16 0 -43 -3 -60 -6 -32 -7 -32 -7 -29 32 3 42 -1 40 106
52 8 1 12 -12 12 -38z"/>
</g>
<g id="part-2" class="char-part">
  <path d="M110 197 c0 -37 18 -61 34 -48 6 5 35 11 63 12 43 2 56 -1 68 -17 13
-16 16 -17 25 -4 5 8 10 32 10 53 0 30 -4 37 -20 37 -13 0 -20 -7 -20 -20 0
-16 -7 -20 -37 -20 -21 0 -48 -3 -60 -6 -20 -5 -23 -2 -23 20 0 19 -5 26 -20
26 -16 0 -20 -7 -20 -33z"/>
</g>
<g id="part-3" class="char-part">
  <path d="M438 398 c4 -155 -11 -213 -76 -288 -24 -29 -31 -42 -18 -37 51 20
118 102 130 162 4 17 10 84 15 150 10 128 6 145 -33 145 -21 0 -21 -3 -18
-132z"/>
</g>
<g id="part-4" class="char-part">
  <path d="M385 274 c-22 -13 -44 -25 -50 -28 -5 -2 -2 -12 8 -22 18 -19 19 -18
43 11 23 28 48 66 42 64 -2 0 -21 -12 -43 -25z"/>
</g>
<g id="part-5" class="char-part">
  <path d="M657 406 l-37 -45 45 25 c25 14 43 29 40 34 -3 4 1 7 8 6 6 0 14 4
17 9 3 6 -4 11 -15 12 -13 2 -33 -12 -58 -41z"/>
  <path d="M626 289 c3 -5 9 -9 14 -9 5 0 20 -11 34 -25 27 -27 56 -33 56 -12 0
7 -10 18 -22 26 -28 17 -90 32 -82 20z"/>
</g>
</g>
</svg>