<?xml version="1.0" standalone="no"?>
<!DOCTYPE svg PUBLIC "-//W3C//DTD SVG 20010904//EN"
 "http://www.w3.org/TR/2001/REC-SVG-20010904/DTD/svg10.dtd">
<svg version="1.0" xmlns="http://www.w3.org/2000/svg"
 width="96.000000pt" height="68.000000pt" viewBox="0 0 96.000000 68.000000"
 preserveAspectRatio="xMidYMid meet">
<metadata>
Created by potrace 1.16, written by Peter Selinger 2001-2019
Combined from part_0.svg through part_5.svg with named groups
</metadata>
<g transform="translate(0.000000,68.000000) scale(0.100000,-0.100000)" fill="#000000" stroke="none">
<g id="part-0" class="char-part">
  <path d="M638 533 c-3 -57 -4 -58 -32 -58 -25 0 -30 4 -33 30 -5 44 -11 55
-27 55 -12 0 -14 -10 -9 -51 l6 -52 -47 5 c-41 5 -46 3 -41 -11 4 -9 9 -31 12
-50 6 -31 4 -34 -13 -26 -10 5 -31 9 -45 9 -28 1 -28 0 -3 90 18 64 18 65 -9
75 -15 6 -42 4 -78 -5 -30 -8 -73 -14 -96 -12 l-43 3 7 -55 c4 -30 8 -71 8
-90 0 -33 -2 -35 -30 -33 -26 2 -32 -3 -47 -37 -13 -31 -14 -41 -3 -50 15 -13
29 3 39 43 5 21 12 27 36 28 17 1 33 2 38 4 4 1 35 5 70 10 34 4 62 11 62 15
0 5 9 6 21 3 16 -5 19 -11 14 -30 -6 -24 -5 -24 24 -8 37 19 51 19 65 1 9 -11
24 -12 81 -4 39 5 91 8 117 5 54 -5 67 5 89 66 7 20 17 37 21 37 4 0 8 6 8 14
0 16 -50 36 -91 36 -32 0 -33 2 -20 48 8 27 7 34 -9 42 -33 18 -39 11 -42 -47z
m-289 -82 c-1 -58 -5 -70 -20 -74 -11 -3 -22 -1 -25 4 -9 16 7 68 24 79 13 7
9 9 -19 10 l-37 0 6 -46 c3 -33 1 -49 -9 -55 -20 -12 -29 9 -29 73 0 55 1 58
28 64 15 3 32 7 37 9 41 14 46 7 44 -64z m386 10 c3 -5 0 -30 -7 -55 -11 -41
-15 -46 -41 -46 -24 0 -28 4 -25 22 2 16 12 25 33 29 22 5 24 7 8 8 -25 1 -37
16 -29 36 6 17 51 20 61 6z m-100 -18 c-2 -10 -4 -35 -4 -55 -1 -34 -4 -38
-26 -38 -20 0 -25 5 -25 25 0 19 6 25 23 26 l22 2 -22 4 c-14 3 -23 12 -23 22
0 23 9 31 36 31 16 0 21 -5 19 -17z m-89 -15 c2 -14 -5 -18 -27 -18 -23 0 -29
5 -29 21 0 16 5 20 27 17 16 -2 27 -10 29 -20z m4 -58 c0 -15 -7 -20 -25 -20
-18 0 -25 5 -25 20 0 15 7 20 25 20 18 0 25 -5 25 -20z"/>
  <path d="M290 310 c-14 -4 -39 -8 -57 -9 -31 -1 -31 -2 -26 -42 3 -23 0 -79
-7 -125 -7 -46 -10 -87 -7 -90 12 -13 37 19 37 46 0 53 8 60 66 60 56 0 60 -3
48 -47 -4 -14 -14 -23 -26 -23 -19 0 -19 -2 -6 -23 21 -31 46 -33 57 -5 5 13
11 78 12 144 l4 119 -35 2 c-19 1 -46 -2 -60 -7z m58 -34 c5 -26 -6 -33 -60
-41 l-48 -7 0 30 c0 26 4 31 28 35 51 8 77 3 80 -17z m-1 -77 c2 -22 -3 -25
-64 -33 -40 -6 -43 -5 -43 17 0 33 7 37 60 37 39 0 46 -3 47 -21z"/>
  <path d="M595 289 c-44 -5 -89 -10 -100 -13 -27 -6 184 -3 215 2 23 5 23 6 5
13 -23 9 -16 9 -120 -2z"/>
  <path d="M625 239 c-22 -4 -66 -8 -97 -8 l-57 -1 13 -32 c7 -18 16 -41 19 -51
5 -12 11 -15 19 -10 14 9 20 9 125 13 56 2 70 6 66 17 -3 7 3 23 12 33 10 11
16 23 12 26 -12 13 -74 20 -112 13z m53 -41 c-3 -20 -11 -24 -67 -31 -74 -9
-91 -5 -91 22 0 25 12 29 93 30 65 1 68 0 65 -21z"/>
  <path d="M661 117 c-22 -57 -74 -76 -90 -33 -8 20 -29 36 -48 36 -3 0 2 -12
12 -26 9 -14 15 -28 12 -30 -3 -3 -37 -8 -76 -11 -39 -3 -71 -10 -71 -16 0 -6
28 -8 78 -3 42 3 139 9 214 13 144 6 181 23 52 23 -78 0 -91 8 -49 30 23 12
23 14 7 26 -24 19 -31 17 -41 -9z"/>
</g>
<g id="part-1" class="char-part">
  <path d="M320 540 c-14 -4 -51 -8 -83 -9 -51 -1 -58 -3 -53 -18 3 -10 8 -36
11 -58 13 -83 17 -95 31 -95 11 0 14 17 14 74 l0 73 52 11 c29 5 56 8 60 6 4
-3 4 -34 1 -69 -5 -54 -3 -65 9 -65 15 0 48 92 48 132 0 27 -39 34 -90 18z"/>
</g>
<g id="part-2" class="char-part">
  <path d="M280 310 c-19 -5 -45 -6 -57 -3 -21 5 -22 2 -17 -49 3 -30 -1 -83 -9
-123 -10 -50 -12 -76 -5 -89 10 -19 11 -19 24 -1 8 10 14 31 14 46 0 38 25 59
70 59 41 0 52 -13 43 -50 -4 -16 -12 -21 -29 -17 -19 3 -22 1 -14 -12 4 -9 17
-24 27 -34 19 -16 21 -16 35 0 22 25 31 270 10 278 -18 7 -49 5 -92 -5z m60
-35 c0 -19 -7 -26 -37 -34 -57 -16 -66 -14 -59 12 3 12 6 25 6 29 0 7 30 14
68 17 17 1 22 -4 22 -24z m0 -74 c0 -14 -12 -22 -44 -30 -58 -14 -56 -15 -56
13 0 19 6 26 28 29 61 9 72 7 72 -12z"/>
</g>
<g id="part-3" class="char-part">
  <path d="M634 509 c-1 -57 -6 -84 -15 -90 -31 -20 -38 -9 -41 64 -3 70 -4 72
-30 75 -26 3 -26 2 -17 -35 5 -21 9 -55 9 -75 0 -31 -4 -38 -20 -38 -11 0 -20
-4 -20 -10 0 -5 11 -10 25 -10 18 0 25 -5 25 -20 0 -28 28 -25 32 3 4 30 48
38 48 8 0 -29 27 -26 34 4 5 19 13 25 34 26 l27 1 -25 7 c-21 6 -25 12 -22 42
1 19 8 51 14 72 13 42 3 57 -37 57 -18 0 -20 -7 -21 -81z"/>
</g>
<g id="part-4" class="char-part">
  <path d="M650 479 c-19 -5 -74 -10 -122 -12 -49 -1 -88 -4 -88 -7 0 -3 7 -14
15 -24 8 -11 15 -30 15 -41 0 -12 5 -36 11 -54 9 -24 14 -29 24 -21 8 6 62 12
123 13 l110 2 32 64 c17 35 30 64 28 66 -31 25 -85 30 -148 14z m77 -55 c-2
-25 -9 -50 -14 -55 -4 -4 -52 -11 -105 -15 l-97 -7 -5 27 c-18 84 -22 76 36
77 29 0 76 4 103 9 92 14 88 16 82 -36z"/>
</g>
<g id="part-5" class="char-part">
  <path d="M661 110 c-10 -31 4 -45 15 -15 4 8 11 12 16 9 6 -4 5 3 -1 15 -15
27 -17 27 -30 -9z"/>
  <path d="M536 102 c12 -10 20 -27 18 -38 -3 -17 2 -21 26 -22 17 0 30 4 30 9
0 5 -9 9 -20 9 -11 0 -20 6 -20 13 0 15 -31 47 -46 47 -5 -1 0 -9 12 -18z"/>
  <path d="M635 60 c-2 -3 39 -6 90 -6 52 0 92 2 89 5 -8 8 -174 9 -179 1z"/>
  <path d="M503 43 c9 -2 23 -2 30 0 6 3 -1 5 -18 5 -16 0 -22 -2 -12 -5z"/>
  <path d="M428 33 c7 -3 16 -2 19 1 4 3 -2 6 -13 5 -11 0 -14 -3 -6 -6z"/>
</g>
</g>
</svg>