<?xml version="1.0" standalone="no"?>
<!DOCTYPE svg PUBLIC "-//W3C//DTD SVG 20010904//EN"
 "http://www.w3.org/TR/2001/REC-SVG-20010904/DTD/svg10.dtd">
<svg version="1.0" xmlns="http://www.w3.org/2000/svg"
 width="96.000000pt" height="68.000000pt" viewBox="0 0 96.000000 68.000000"
 preserveAspectRatio="xMidYMid meet">
<metadata>
Created by potrace 1.16, written by Peter Selinger 2001-2019
Combined from part_0.svg through part_5.svg with named groups
</metadata>
<g transform="translate(0.000000,68.000000) scale(0.100000,-0.100000)" fill="#000000" stroke="none">
<g id="part-0" class="char-part">
  <path d="M407 643 c-3 -3 -2 -16 4 -30 22 -57 16 -63 -66 -63 -41 0 -75 -4
-75 -9 0 -17 40 -23 96 -16 44 5 54 4 54 -8 0 -15 -13 -17 -203 -33 -83 -7
-100 -16 -65 -35 17 -9 41 -9 107 0 167 23 163 23 159 4 -2 -11 -14 -19 -28
-21 -85 -9 -110 -14 -104 -23 3 -6 34 -10 67 -9 82 2 79 3 67 -20 -9 -16 -21
-20 -66 -20 -34 0 -53 -4 -49 -10 3 -5 33 -10 67 -10 51 0 59 -2 54 -16 -3 -9
-6 -18 -6 -20 0 -2 -24 -4 -52 -5 -29 -1 -78 -4 -108 -8 -76 -10 -40 -25 43
-18 34 3 141 11 237 17 96 7 177 14 180 17 2 2 -2 9 -10 14 -14 9 -43 8 -189
-7 -56 -6 -60 -6 -58 14 1 19 10 22 79 28 48 4 75 10 71 17 -3 6 -33 7 -74 4
-54 -5 -68 -3 -73 9 -7 19 7 24 90 32 65 7 69 8 69 32 0 25 1 25 93 28 70 2
92 6 92 16 0 22 -55 36 -111 29 -49 -6 -51 -5 -41 14 8 14 8 23 0 31 -14 14
-78 15 -133 2 -22 -5 -41 -8 -42 -6 -2 2 1 15 6 29 7 18 6 28 -2 35 -15 12
-73 23 -80 15z m181 -120 c3 -9 -12 -13 -52 -13 -44 0 -56 3 -56 16 0 12 10
14 52 12 30 -2 53 -8 56 -15z m-18 -57 c0 -9 -17 -16 -46 -21 -53 -8 -68 0
-40 21 26 18 86 19 86 0z"/>
  <path d="M495 254 c-38 -7 -103 -13 -142 -15 -40 -1 -73 -5 -73 -10 0 -5 4 -9
10 -9 5 0 14 -19 21 -42 20 -76 28 -91 43 -79 7 6 64 13 126 15 l113 3 28 54
c34 66 34 67 7 78 -47 17 -65 18 -133 5z m75 -34 c0 -15 -7 -20 -27 -20 -15 0
-65 -6 -112 -12 -84 -12 -94 -10 -92 19 0 6 114 23 214 32 11 0 17 -6 17 -19z
m-7 -70 c-4 -4 -55 -11 -111 -15 -98 -7 -104 -6 -100 11 3 16 18 20 108 29 86
8 106 8 108 -4 2 -7 0 -17 -5 -21z"/>
  <path d="M485 78 c-258 -13 -325 -19 -325 -28 0 -17 59 -20 200 -10 80 5 205
10 278 10 131 0 162 9 106 30 -27 11 -24 11 -259 -2z"/>
</g>
<g id="part-1" class="char-part">
  <path d="M414 623 c21 -73 25 -69 -61 -80 l-78 -10 78 -1 c69 -2 78 -4 75 -19
-3 -16 -22 -19 -141 -28 -79 -6 -137 -14 -137 -20 0 -12 95 -12 203 -1 74 8
77 8 77 -12 0 -18 -8 -22 -70 -28 -39 -4 -68 -9 -65 -13 10 -9 175 -9 175 0 0
5 33 9 73 11 52 2 71 7 69 16 -1 7 2 22 8 32 9 18 22 20 103 20 85 1 91 2 72
16 -15 12 -36 15 -87 11 -68 -4 -78 -1 -56 21 8 8 8 15 -3 28 -14 17 -51 16
-138 -2 -33 -7 -33 -7 -26 24 5 25 2 33 -14 41 -32 18 -63 14 -57 -6z m173
-88 c8 -21 6 -22 -59 -30 -54 -7 -58 -6 -58 13 0 15 8 22 28 25 59 9 83 7 89
-8z m-7 -65 c0 -14 -44 -30 -81 -30 -22 0 -29 5 -29 20 0 18 7 20 55 20 31 0
55 -4 55 -10z"/>
</g>
<g id="part-2" class="char-part">
  <path d="M418 379 c-13 -14 -31 -19 -68 -19 -27 0 -50 -4 -50 -10 0 -6 27 -10
60 -10 52 0 60 -2 60 -19 0 -17 -11 -20 -105 -26 -58 -4 -105 -12 -105 -17 0
-10 26 -9 333 12 103 8 187 17 187 21 0 16 -67 20 -150 10 -114 -15 -120 -14
-120 8 0 17 10 20 80 27 44 3 80 11 80 17 0 6 -27 8 -75 4 -61 -4 -75 -3 -75
9 0 20 -32 16 -52 -7z"/>
</g>
<g id="part-3" class="char-part">
  <path d="M490 255 c-41 -8 -108 -14 -149 -14 -74 -1 -75 -1 -54 -20 11 -11 24
-37 28 -58 10 -55 23 -77 39 -64 7 6 64 13 127 15 83 2 115 7 121 17 4 8 17
34 28 59 19 42 19 46 3 57 -9 7 -22 13 -29 13 -7 0 -18 2 -26 4 -7 2 -47 -2
-88 -9z m80 -37 c0 -21 -5 -23 -47 -23 -27 0 -78 -4 -115 -8 -63 -8 -68 -7
-68 11 0 19 19 23 213 40 11 1 17 -5 17 -20z m0 -45 c-1 -28 -30 -35 -160 -37
-44 -1 -55 2 -58 16 -3 15 7 18 70 21 40 1 90 4 111 5 20 1 37 -1 37 -5z"/>
</g>
<g id="part-4" class="char-part">
  <path d="M432 75 c-128 -8 -245 -15 -260 -17 l-27 -4 29 -12 c22 -10 57 -10
135 -4 58 5 185 10 281 11 96 1 177 4 179 7 11 10 -18 24 -59 28 -25 2 -150
-2 -278 -9z"/>
</g>
</g>
</svg>