<?xml version="1.0" standalone="no"?>
<!DOCTYPE svg PUBLIC "-//W3C//DTD SVG 20010904//EN"
 "http://www.w3.org/TR/2001/REC-SVG-20010904/DTD/svg10.dtd">
<svg version="1.0" xmlns="http://www.w3.org/2000/svg"
 width="96.000000pt" height="68.000000pt" viewBox="0 0 96.000000 68.000000"
 preserveAspectRatio="xMidYMid meet">
<metadata>
Created by potrace 1.16, written by Peter Selinger 2001-2019
Combined from part_0.svg through part_5.svg with named groups
</metadata>
<g transform="translate(0.000000,68.000000) scale(0.100000,-0.100000)" fill="#000000" stroke="none">
<g id="part-0" class="char-part">
  <path d="M576 541 l6 -49 -46 -7 c-55 -9 -52 -26 3 -21 34 3 40 0 44 -20 5
-26 -13 -34 -81 -34 -43 0 -43 0 -28 -22 9 -12 16 -36 16 -53 0 -46 14 -60 55
-57 29 3 35 0 35 -16 0 -23 -18 -32 -65 -32 -19 0 -37 -4 -40 -10 -4 -6 14
-10 45 -10 50 0 52 -1 46 -24 -8 -31 10 -79 27 -74 6 3 14 27 17 54 l5 49 83
3 c81 3 106 15 56 28 -14 4 -52 3 -85 0 -59 -7 -60 -7 -57 16 3 20 8 23 52 23
43 0 50 3 59 25 6 14 19 43 29 64 17 37 17 40 0 53 -12 10 -33 12 -74 8 -53
-6 -58 -4 -58 14 0 20 10 25 73 37 38 6 51 23 20 25 -23 2 -24 2 -56 -6 -25
-7 -27 -5 -27 23 0 30 -11 44 -43 55 -16 6 -17 2 -11 -42z m134 -151 c0 -17
-7 -20 -45 -20 -38 0 -45 3 -45 20 0 17 7 20 45 20 38 0 45 -3 45 -20z m-127
-10 c3 -11 0 -21 -6 -21 -7 -1 -24 -3 -39 -4 -19 -3 -27 2 -31 15 -6 24 -3 27
37 28 26 1 35 -3 39 -18z m110 -50 c-4 -16 -14 -20 -44 -20 -32 0 -39 3 -39
20 0 17 7 20 44 20 39 0 44 -2 39 -20z m-113 -10 c0 -16 -7 -20 -30 -20 -23 0
-30 4 -30 20 0 16 7 20 30 20 23 0 30 -4 30 -20z"/>
  <path d="M220 552 c0 -15 78 -72 98 -72 18 0 32 18 32 41 0 6 -16 17 -35 25
-37 15 -95 19 -95 6z"/>
  <path d="M230 425 c-25 -7 -62 -16 -83 -20 -20 -3 -37 -10 -37 -15 0 -20 55
-23 103 -6 27 10 51 15 54 12 9 -8 -44 -73 -120 -149 -38 -38 -67 -71 -63 -74
6 -7 88 40 106 61 27 33 33 17 27 -73 -4 -67 -2 -94 8 -108 25 -33 40 0 44 98
l3 90 25 -16 c28 -18 53 -14 53 10 0 9 -12 18 -31 22 l-32 6 37 19 c39 20 39
34 0 48 -31 12 -30 25 1 46 28 18 33 49 9 58 -22 9 -52 6 -104 -9z m59 -126
c-15 -22 -25 -27 -32 -20 -8 8 -4 18 13 36 31 33 46 21 19 -16z"/>
  <path d="M380 418 c1 -24 28 -51 46 -44 13 5 14 9 3 22 -20 24 -49 37 -49 22z"/>
  <path d="M385 294 c-43 -22 -44 -27 -7 -22 17 2 32 3 32 2 0 -2 -5 -15 -10
-29 -8 -20 -6 -32 5 -48 28 -40 20 -54 -35 -61 -29 -4 -48 -11 -45 -17 4 -5
26 -7 53 -3 37 5 63 0 122 -21 41 -15 105 -37 141 -48 l66 -20 74 23 74 24
-140 11 c-77 7 -158 17 -180 23 -22 5 -52 13 -67 16 -22 5 -28 12 -28 33 0 14
-7 34 -16 44 -15 17 -15 20 10 49 30 36 32 46 10 54 -22 8 -25 8 -59 -10z"/>
</g>
<g id="part-1" class="char-part">
  <path d="M230 552 c0 -16 67 -62 89 -62 29 0 27 33 -1 48 -34 16 -88 25 -88
14z"/>
  <path d="M270 430 c-8 -5 -45 -14 -82 -21 -38 -7 -68 -16 -68 -20 0 -19 49
-19 98 0 29 12 55 21 57 21 22 0 -28 -66 -122 -162 -37 -38 -63 -68 -59 -68
13 0 49 22 87 51 20 16 40 29 44 29 5 0 5 -33 0 -72 -10 -99 -9 -116 6 -134
12 -14 14 -14 20 3 4 10 8 57 8 106 1 48 4 87 9 87 4 0 18 -9 32 -20 31 -25
40 -25 40 -1 0 13 -12 22 -45 31 -25 7 -48 16 -50 20 -2 4 21 35 52 70 54 59
56 63 38 76 -22 16 -44 18 -65 4z"/>
  <path d="M297 304 c-24 -33 -17 -39 22 -19 34 17 39 30 15 39 -20 8 -16 10
-37 -20z"/>
</g>
<g id="part-2" class="char-part">
  <path d="M380 417 c0 -19 36 -50 49 -42 18 11 12 24 -19 40 -25 13 -30 13 -30
2z"/>
  <path d="M380 289 l-35 -20 33 4 c17 2 32 2 32 1 0 -2 -5 -15 -10 -30 -8 -20
-7 -32 5 -50 26 -40 19 -51 -35 -58 -33 -4 -48 -11 -44 -18 4 -6 24 -8 51 -4
37 5 68 -2 179 -40 146 -50 177 -52 259 -15 l40 18 -120 7 c-66 4 -160 16
-208 28 -81 18 -88 22 -83 41 3 14 -2 30 -16 44 l-22 23 35 36 c28 29 31 36
19 44 -22 14 -41 12 -80 -11z"/>
</g>
<g id="part-3" class="char-part">
  <path d="M576 541 l6 -49 -52 -7 c-59 -8 -51 -25 13 -25 30 0 37 -4 37 -20 0
-13 7 -20 20 -20 15 0 20 7 20 24 0 22 7 26 55 37 67 15 74 30 15 31 -3 1 -17
-2 -32 -6 -26 -6 -28 -4 -28 23 0 20 -8 35 -22 45 -35 25 -39 20 -32 -33z"/>
</g>
<g id="part-4" class="char-part">
  <path d="M578 258 c-2 -19 -10 -23 -48 -26 -65 -5 -75 -22 -13 -22 l52 0 3
-47 c2 -35 7 -48 18 -48 11 0 16 14 20 50 l5 50 70 3 c86 3 106 9 85 23 -9 6
-45 7 -87 4 -69 -6 -73 -6 -73 14 0 28 -28 27 -32 -1z"/>
</g>
</g>
</svg>