<?xml version="1.0" standalone="no"?>
<!DOCTYPE svg PUBLIC "-//W3C//DTD SVG 20010904//EN"
 "http://www.w3.org/TR/2001/REC-SVG-20010904/DTD/svg10.dtd">
<svg version="1.0" xmlns="http://www.w3.org/2000/svg"
 width="96.000000pt" height="68.000000pt" viewBox="0 0 96.000000 68.000000"
 preserveAspectRatio="xMidYMid meet">
<metadata>
Created by potrace 1.16, written by Peter Selinger 2001-2019
Combined from part_0.svg through part_5.svg with named groups
</metadata>
<g transform="translate(0.000000,68.000000) scale(0.100000,-0.100000)" fill="#000000" stroke="none">
<g id="part-0" class="char-part">
  <path d="M236 591 c-3 -4 -1 -23 4 -42 6 -19 10 -53 10 -76 l0 -42 -47 -6
c-67 -9 -84 -15 -78 -26 4 -5 33 -9 66 -9 l59 0 0 -45 0 -45 -77 -38 c-43 -20
-80 -38 -83 -40 -8 -5 40 -42 55 -42 6 0 25 11 41 26 61 53 63 52 57 -28 -3
-40 -7 -75 -9 -77 -2 -2 -17 2 -35 8 -18 6 -34 9 -36 7 -7 -6 81 -85 94 -86
24 0 33 40 33 149 0 61 3 111 8 111 4 0 22 14 41 32 37 35 27 51 -15 24 -21
-15 -25 -15 -30 -2 -11 30 1 50 38 61 20 5 40 13 44 17 9 10 -46 30 -64 23
-12 -4 -14 3 -9 37 3 24 9 53 12 65 6 17 1 25 -24 37 -34 18 -47 20 -55 7z"/>
  <path d="M692 570 c-18 -4 -42 -5 -53 -3 -18 5 -19 -1 -19 -85 0 -105 6 -128
26 -111 29 24 14 -19 -17 -50 -35 -36 -25 -41 17 -9 45 35 51 42 46 56 -5 15
64 17 73 2 5 -8 11 -7 21 1 21 18 20 195 -2 203 -20 7 -49 6 -92 -4z m68 -30
c0 -23 -6 -26 -67 -34 -41 -6 -43 -5 -43 18 0 25 13 31 83 35 21 1 27 -3 27
-19z m-2 -67 c-4 -23 -108 -33 -108 -10 0 22 11 27 62 27 42 0 49 -3 46 -17z
m2 -48 c0 -18 -9 -21 -67 -28 -37 -4 -43 -2 -43 13 0 18 5 20 93 28 9 1 17 -5
17 -13z"/>
  <path d="M445 563 l-41 -4 -1 -95 c-2 -75 1 -96 12 -101 22 -8 18 -25 -10 -56
-14 -15 -23 -27 -19 -27 15 0 94 72 89 80 -7 12 31 22 65 18 l25 -3 0 95 0 95
-40 1 c-22 1 -58 -1 -80 -3z m87 -61 c-4 -46 -5 -48 -35 -50 -18 -1 -40 -5
-49 -8 -13 -4 -18 0 -18 14 0 20 25 32 68 32 13 0 22 6 22 15 0 11 -5 12 -26
5 -37 -14 -64 -12 -64 5 0 20 29 34 70 35 l35 0 -3 -48z m2 -70 c11 -18 -14
-34 -58 -39 -42 -5 -46 -4 -46 15 0 17 7 22 43 25 23 2 45 4 49 5 4 1 9 -2 12
-6z"/>
  <path d="M731 343 c34 -44 69 -56 69 -25 0 19 -37 42 -67 42 -13 0 -14 -2 -2
-17z"/>
  <path d="M500 342 c0 -12 34 -42 48 -42 22 0 13 37 -10 44 -31 8 -38 7 -38 -2z"/>
  <path d="M525 276 c-3 -9 -7 -23 -10 -31 -3 -10 -17 -15 -43 -15 -59 0 -132
-12 -132 -21 0 -15 70 -21 112 -11 23 6 44 9 46 7 2 -2 -5 -17 -17 -34 l-22
-30 38 -10 c21 -6 45 -11 53 -11 32 0 -28 -41 -96 -66 l-69 -25 54 5 c31 3 78
17 108 32 59 30 59 30 155 -27 21 -13 43 -19 53 -15 29 11 -5 48 -66 73 -59
24 -60 29 -22 87 l25 39 74 -5 c79 -5 97 2 64 25 -15 11 -44 14 -107 11 -47
-2 -88 -6 -91 -9 -14 -13 -48 -3 -57 17 -12 27 -43 36 -50 14z m105 -67 c0 -7
-10 -27 -21 -46 -17 -27 -26 -33 -43 -29 -11 3 -29 6 -38 6 -27 0 -22 28 10
55 28 25 92 35 92 14z"/>
</g>
<g id="part-1" class="char-part">
  <path d="M244 548 c3 -24 7 -61 8 -83 l3 -40 -63 -8 c-77 -11 -72 -30 6 -25
63 3 69 -4 58 -66 -5 -28 -15 -36 -79 -66 -39 -19 -74 -36 -76 -37 -9 -6 23
-33 39 -33 9 0 38 16 64 36 l47 36 -3 -79 -3 -78 -37 1 -38 1 42 -40 41 -40
19 23 c15 18 18 40 18 130 l0 109 37 30 c39 32 30 43 -12 15 l-25 -16 0 45 c0
46 0 46 38 49 20 2 37 8 37 13 0 6 -17 11 -37 13 -43 4 -47 15 -24 81 14 39
14 41 -7 56 -12 8 -30 15 -40 15 -16 0 -17 -6 -13 -42z"/>
</g>
<g id="part-2" class="char-part">
  <path d="M505 569 c-16 -3 -49 -7 -73 -8 -40 -1 -43 -2 -35 -23 4 -13 7 -49 5
-80 -2 -47 0 -58 13 -58 8 0 15 6 15 14 0 15 93 30 98 15 2 -5 12 -9 23 -9 17
0 19 8 19 70 0 78 -11 92 -65 79z m25 -39 c0 -11 -6 -20 -12 -20 -7 0 -30 -3
-50 -6 -31 -5 -38 -4 -38 9 0 21 28 36 68 37 25 0 32 -4 32 -20z m0 -56 c0
-14 -4 -23 -8 -20 -4 3 -25 1 -46 -4 -29 -6 -39 -5 -43 6 -7 20 -3 23 48 33
24 5 45 9 47 10 1 1 2 -11 2 -25z"/>
</g>
<g id="part-3" class="char-part">
  <path d="M650 350 c-7 -17 -22 -37 -34 -45 -11 -8 -17 -15 -13 -15 13 0 97 60
97 69 0 7 -23 21 -35 21 -1 0 -8 -14 -15 -30z"/>
  <path d="M736 338 c36 -43 64 -51 64 -19 0 12 -11 23 -31 30 -47 16 -54 14
-33 -11z"/>
</g>
<g id="part-4" class="char-part">
  <path d="M524 261 c-6 -28 -7 -29 -97 -36 -82 -6 -90 -8 -72 -21 23 -17 61
-18 104 -3 42 15 48 7 22 -30 l-22 -30 28 -6 c15 -4 39 -11 52 -16 l24 -10
-24 -17 c-13 -9 -53 -27 -89 -40 l-65 -22 55 5 c30 2 77 16 103 30 27 14 54
25 61 25 7 0 38 -16 70 -35 69 -41 89 -44 84 -12 -2 16 -20 30 -65 52 l-61 31
26 48 27 48 78 -4 c81 -5 98 1 71 23 -17 14 -204 20 -204 7 0 -5 -13 -8 -30
-8 -21 0 -28 4 -24 14 3 8 -3 19 -15 25 -28 16 -31 14 -37 -18z m106 -53 c0
-7 -9 -28 -20 -46 -19 -30 -23 -32 -58 -26 -53 9 -55 15 -21 52 23 24 39 32
65 32 20 0 34 -5 34 -12z"/>
</g>
</g>
</svg>