<?xml version="1.0" standalone="no"?>
<!DOCTYPE svg PUBLIC "-//W3C//DTD SVG 20010904//EN"
 "http://www.w3.org/TR/2001/REC-SVG-20010904/DTD/svg10.dtd">
<svg version="1.0" xmlns="http://www.w3.org/2000/svg"
 width="96.000000pt" height="68.000000pt" viewBox="0 0 96.000000 68.000000"
 preserveAspectRatio="xMidYMid meet">
<metadata>
Created by potrace 1.16, written by Peter Selinger 2001-2019
Combined from part_0.svg through part_5.svg with named groups
</metadata>
<g transform="translate(0.000000,68.000000) scale(0.100000,-0.100000)" fill="#000000" stroke="none">
<g id="part-0" class="char-part">
  <path d="M195 588 c4 -13 9 -53 12 -90 5 -66 5 -68 -18 -68 -37 0 -69 -11 -63
-21 3 -5 25 -9 50 -9 l44 0 0 -64 0 -63 -65 -18 c-56 -15 -63 -19 -55 -35 16
-31 57 -30 118 2 167 89 188 104 132 95 -19 -3 -43 -8 -52 -12 -16 -6 -18 0
-18 49 0 51 2 56 23 56 38 0 67 12 67 27 0 12 -10 14 -44 12 l-44 -4 -7 51
c-3 28 -3 62 0 76 5 21 2 26 -17 32 -13 3 -34 6 -47 6 -20 0 -22 -3 -16 -22z"/>
  <path d="M585 580 c-22 -4 -66 -11 -97 -15 -76 -9 -74 -25 2 -25 l60 0 0 -114
0 -113 -90 -7 c-49 -4 -92 -11 -95 -16 -10 -16 37 -22 110 -15 l72 6 6 -38 c4
-21 7 -75 7 -120 0 -79 9 -103 25 -65 4 9 10 65 13 125 l5 107 123 0 c128 0
148 7 95 34 -24 13 -44 14 -112 6 -46 -6 -90 -10 -97 -10 -11 0 -13 20 -7 105
7 94 6 105 -9 105 -10 0 -15 4 -11 9 3 5 35 13 71 16 41 5 64 12 61 19 -4 13
-77 17 -132 6z"/>
  <path d="M703 483 c-4 -10 -16 -31 -28 -48 -32 -44 -37 -55 -26 -55 5 0 16 6
23 13 7 7 35 26 61 41 46 27 47 29 31 47 -21 24 -53 24 -61 2z"/>
  <path d="M410 452 c0 -4 13 -23 28 -42 20 -23 34 -31 45 -27 27 10 20 36 -15
57 -34 21 -58 26 -58 12z"/>
</g>
<g id="part-1" class="char-part">
  <path d="M197 604 c-3 -4 -3 -14 2 -23 5 -9 11 -46 15 -82 6 -63 5 -67 -16
-73 -13 -3 -33 -6 -46 -6 -13 0 -20 -4 -17 -10 3 -5 23 -10 44 -10 35 0 39 -3
45 -31 3 -17 6 -46 6 -64 0 -32 -2 -33 -65 -50 -68 -19 -77 -28 -46 -45 31
-16 43 -13 150 46 106 58 124 75 54 50 l-41 -14 -6 36 c-12 75 -10 79 39 86
24 4 47 11 50 16 8 13 -25 21 -61 14 l-34 -6 0 76 c0 73 -1 77 -26 86 -30 12
-38 12 -47 4z"/>
</g>
<g id="part-2" class="char-part">
  <path d="M522 571 c-57 -9 -100 -19 -96 -23 20 -21 298 5 291 26 -5 17 -80 16
-195 -3z"/>
</g>
<g id="part-3" class="char-part">
  <path d="M548 456 c3 -85 13 -104 43 -86 8 6 15 34 17 81 5 75 -2 89 -43 89
-19 0 -20 -6 -17 -84z"/>
  <path d="M677 440 l-36 -60 32 16 c18 10 50 28 71 42 l40 25 -23 18 c-13 11
-29 19 -36 19 -7 0 -29 -27 -48 -60z"/>
  <path d="M410 453 c0 -5 13 -24 28 -43 20 -23 34 -31 45 -27 22 8 22 30 0 50
-21 18 -73 33 -73 20z"/>
</g>
<g id="part-4" class="char-part">
  <path d="M563 363 c-7 -2 -13 -15 -13 -28 0 -21 -5 -23 -97 -31 l-98 -9 31
-17 c27 -15 40 -16 93 -6 33 6 64 8 68 5 4 -4 9 -59 11 -122 3 -63 8 -115 12
-115 16 0 23 37 28 141 l4 107 38 5 c21 3 77 2 124 0 59 -4 86 -2 86 5 0 26
-44 35 -147 28 l-103 -7 0 26 c0 24 -11 29 -37 18z"/>
</g>
</g>
</svg>