<?xml version="1.0" standalone="no"?>
<!DOCTYPE svg PUBLIC "-//W3C//DTD SVG 20010904//EN"
 "http://www.w3.org/TR/2001/REC-SVG-20010904/DTD/svg10.dtd">
<svg version="1.0" xmlns="http://www.w3.org/2000/svg"
 width="96.000000pt" height="68.000000pt" viewBox="0 0 96.000000 68.000000"
 preserveAspectRatio="xMidYMid meet">
<metadata>
Created by potrace 1.16, written by Peter Selinger 2001-2019
Combined from part_0.svg through part_5.svg with named groups
</metadata>
<g transform="translate(0.000000,68.000000) scale(0.100000,-0.100000)" fill="#000000" stroke="none">
<g id="part-0" class="char-part">
  <path d="M558 525 l5 -93 -62 -7 c-33 -4 -61 -12 -61 -17 0 -7 21 -9 61 -4
l61 6 -7 -138 c-3 -75 -8 -144 -11 -153 -7 -24 13 -69 30 -69 22 0 29 52 21
181 -3 65 -3 134 0 153 l7 34 79 7 c43 4 79 11 79 15 0 15 -56 21 -101 11 -24
-6 -48 -11 -53 -11 -5 0 -6 35 -3 79 l5 80 -28 9 -27 10 5 -93z"/>
  <path d="M307 582 c-10 -10 -47 -36 -84 -58 -55 -32 -63 -40 -44 -42 12 -2 36
2 53 9 37 15 50 1 46 -50 l-3 -35 -83 -15 c-84 -16 -100 -31 -33 -31 20 0 50
4 68 9 17 5 34 7 37 4 13 -13 -68 -117 -117 -149 -21 -14 -37 -28 -34 -30 10
-10 70 28 120 75 44 41 49 43 44 21 -3 -14 -8 -63 -12 -110 -5 -68 -3 -89 8
-105 15 -20 16 -19 26 8 6 16 11 74 11 130 l0 101 33 -32 c18 -18 36 -29 40
-26 16 16 5 35 -32 58 -26 17 -38 31 -36 43 2 10 4 21 4 25 1 4 20 8 44 10 51
4 51 23 -1 23 -36 0 -37 1 -37 36 0 20 -6 43 -13 51 -11 13 -7 18 27 31 49 20
60 36 36 54 -26 18 -49 16 -68 -5z"/>
  <path d="M706 562 c-8 -8 44 -62 60 -62 19 0 27 19 14 35 -14 16 -66 36 -74
27z"/>
  <path d="M660 270 l0 -100 33 -20 c24 -16 46 -20 91 -18 77 4 92 28 17 28 -27
0 -62 5 -77 12 l-26 12 7 93 7 93 -26 0 -26 0 0 -100z"/>
  <path d="M460 346 c-1 0 -2 -28 -3 -62 -2 -49 -8 -71 -34 -112 -18 -29 -28
-52 -23 -52 17 0 80 84 90 120 24 90 24 97 -4 102 -14 3 -26 5 -26 4z"/>
</g>
<g id="part-1" class="char-part">
  <path d="M297 570 c-19 -16 -54 -41 -78 -55 -63 -36 -23 -32 79 7 83 32 98 49
63 68 -27 14 -26 14 -64 -20z"/>
</g>
<g id="part-2" class="char-part">
  <path d="M273 513 c-10 -3 -10 -10 -2 -24 5 -11 9 -34 7 -52 -3 -30 -6 -32
-53 -39 -108 -17 -118 -19 -108 -29 12 -12 46 -13 107 -3 l49 7 -31 -44 c-47
-65 -53 -72 -106 -112 -27 -20 -46 -37 -42 -37 20 0 95 48 139 88 44 42 49 44
44 22 -3 -14 -8 -65 -12 -115 -7 -98 2 -128 29 -106 13 11 16 36 16 129 l0
116 33 -32 c39 -38 47 -40 47 -9 0 17 -10 28 -35 40 -28 14 -35 22 -35 46 0
28 3 30 40 33 49 4 49 23 0 23 -35 0 -35 0 -32 42 3 33 -1 44 -17 52 -11 6
-21 11 -23 10 -2 0 -9 -3 -15 -6z"/>
</g>
<g id="part-3" class="char-part">
  <path d="M719 536 c39 -40 71 -47 71 -16 0 22 -19 34 -70 45 l-35 7 34 -36z"/>
</g>
<g id="part-4" class="char-part">
  <path d="M559 612 c-1 -4 -1 -46 1 -93 l2 -86 -68 -8 c-52 -5 -64 -9 -50 -17
10 -5 39 -7 68 -3 l51 7 -7 -133 c-4 -74 -9 -147 -12 -164 -7 -39 18 -76 38
-57 10 10 13 55 13 182 0 92 2 171 5 174 3 3 43 8 89 12 75 6 82 9 65 21 -18
14 -64 12 -133 -4 -23 -6 -23 -6 -20 77 4 78 3 83 -18 91 -13 5 -24 5 -24 1z"/>
</g>
<g id="part-5" class="char-part">
  <path d="M666 361 c-4 -5 -4 -49 -2 -98 4 -75 8 -91 27 -105 11 -10 25 -15 30
-12 6 3 15 1 22 -4 7 -6 28 -9 47 -7 50 4 50 4 50 14 0 4 -12 7 -27 5 -16 -2
-43 1 -60 6 -24 6 -33 5 -34 -3 0 -7 -4 -2 -9 11 -5 12 -13 22 -18 22 -6 0 -6
18 0 44 12 55 7 128 -9 133 -6 2 -14 0 -17 -6z m11 -83 c-3 -8 -6 -5 -6 6 -1
11 2 17 5 13 3 -3 4 -12 1 -19z"/>
  <path d="M465 309 c3 -41 31 -48 38 -10 3 14 5 27 4 27 -1 1 -12 4 -23 8 -19
6 -21 3 -19 -25z"/>
  <path d="M473 242 c-3 -12 -9 -22 -14 -22 -5 0 -9 -4 -9 -10 0 -5 4 -10 8 -10
11 0 34 51 27 58 -3 4 -8 -4 -12 -16z"/>
  <path d="M431 177 c-8 -10 -7 -14 4 -14 8 0 12 4 9 8 -2 4 2 10 8 12 8 4 9 6
2 6 -6 1 -17 -5 -23 -12z"/>
</g>
</g>
</svg>