<?xml version="1.0" standalone="no"?>
<!DOCTYPE svg PUBLIC "-//W3C//DTD SVG 20010904//EN"
 "http://www.w3.org/TR/2001/REC-SVG-20010904/DTD/svg10.dtd">
<svg version="1.0" xmlns="http://www.w3.org/2000/svg"
 width="96.000000pt" height="68.000000pt" viewBox="0 0 96.000000 68.000000"
 preserveAspectRatio="xMidYMid meet">
<metadata>
Created by potrace 1.16, written by Peter Selinger 2001-2019
Combined from part_0.svg through part_5.svg with named groups
</metadata>
<g transform="translate(0.000000,68.000000) scale(0.100000,-0.100000)" fill="#000000" stroke="none">
<g id="part-0" class="char-part">
  <path d="M426 623 c-25 -48 -85 -103 -113 -103 -22 0 -24 -3 -18 -22 4 -13 9
-68 12 -123 5 -104 13 -126 35 -107 8 6 60 14 117 18 95 6 105 5 118 -12 11
-16 15 -16 27 -4 10 11 15 49 18 134 l3 120 -28 11 c-21 9 -47 8 -105 -1 -119
-20 -122 -18 -49 32 37 26 67 51 67 55 0 9 -42 29 -60 29 -5 0 -16 -12 -24
-27z m125 -113 c10 -6 19 -20 19 -30 0 -18 -7 -20 -57 -20 -32 -1 -76 -4 -98
-8 -56 -11 -77 -5 -73 21 3 20 13 23 88 33 47 6 89 12 93 12 5 1 17 -3 28 -8z
m19 -94 c0 -21 -5 -24 -67 -29 -38 -4 -89 -10 -115 -13 l-48 -7 0 31 c0 31 0
31 63 35 167 9 167 9 167 -17z m0 -74 l0 -29 -106 -6 c-58 -4 -109 -5 -114 -2
-4 2 -5 16 -3 29 5 24 9 25 82 29 42 1 91 4 109 5 29 2 32 -1 32 -26z"/>
  <path d="M655 233 c37 -35 96 -73 114 -73 32 0 27 36 -8 54 -34 18 -121 33
-106 19z"/>
  <path d="M453 194 c37 -34 57 -37 57 -9 0 16 -50 45 -77 45 -14 0 -9 -9 20
-36z"/>
  <path d="M191 175 c-38 -64 -37 -104 1 -105 14 0 38 59 38 94 0 48 -14 52 -39
11z"/>
  <path d="M305 188 c15 -50 60 -101 110 -125 42 -19 66 -23 150 -22 106 0 170
15 170 39 0 15 -65 63 -103 75 -23 7 -23 6 -8 -17 27 -41 8 -53 -86 -53 -109
1 -168 25 -198 84 -22 44 -46 56 -35 19z"/>
</g>
<g id="part-1" class="char-part">
  <path d="M432 624 c-6 -12 -28 -41 -48 -63 -48 -54 -27 -52 53 5 67 48 74 63
31 75 -21 5 -28 2 -36 -17z"/>
</g>
<g id="part-2" class="char-part">
  <path d="M576 362 c-3 -3 -6 -16 -6 -29 0 -22 -4 -23 -64 -23 -35 0 -84 -3
-110 -6 -44 -6 -46 -6 -46 18 0 17 -7 27 -20 31 -18 5 -20 0 -20 -44 0 -37 4
-49 15 -49 8 0 15 4 15 9 0 5 50 12 112 16 102 7 113 6 125 -11 14 -19 15 -19
29 0 21 30 18 83 -5 89 -11 3 -22 2 -25 -1z"/>
</g>
<g id="part-3" class="char-part">
  <path d="M430 220 c11 -21 58 -60 71 -60 5 0 9 11 9 24 0 24 -9 30 -62 46 -25
8 -27 7 -18 -10z"/>
  <path d="M650 238 c0 -12 100 -78 119 -78 32 0 27 36 -8 54 -28 15 -111 33
-111 24z"/>
  <path d="M203 198 c-43 -70 -53 -115 -27 -125 25 -9 46 22 52 75 4 49 -9 75
-25 50z"/>
  <path d="M300 205 c0 -14 33 -81 48 -99 9 -10 40 -29 67 -42 42 -20 65 -24
150 -23 158 0 217 33 138 75 -21 11 -51 29 -67 39 l-29 19 12 -21 c29 -55 9
-73 -84 -73 -96 0 -167 36 -201 101 -12 25 -34 40 -34 24z"/>
</g>
</g>
</svg>