<?xml version="1.0" standalone="no"?>
<!DOCTYPE svg PUBLIC "-//W3C//DTD SVG 20010904//EN"
 "http://www.w3.org/TR/2001/REC-SVG-20010904/DTD/svg10.dtd">
<svg version="1.0" xmlns="http://www.w3.org/2000/svg"
 width="96.000000pt" height="68.000000pt" viewBox="0 0 96.000000 68.000000"
 preserveAspectRatio="xMidYMid meet">
<metadata>
Created by potrace 1.16, written by Peter Selinger 2001-2019
Combined from part_0.svg through part_5.svg with named groups
</metadata>
<g transform="translate(0.000000,68.000000) scale(0.100000,-0.100000)" fill="#000000" stroke="none">
<g id="part-0" class="char-part">
  <path d="M515 556 l7 -53 -46 -7 c-54 -8 -52 -29 3 -24 33 3 36 1 39 -24 3
-27 2 -28 -48 -28 -32 0 -49 -4 -45 -10 3 -5 26 -10 51 -10 36 0 44 -3 44 -19
0 -19 -34 -31 -92 -31 -25 0 -28 -3 -23 -21 4 -11 1 -34 -5 -50 -7 -16 -10
-32 -7 -36 4 -3 28 1 54 9 39 13 49 13 51 3 6 -24 -40 -99 -86 -143 -25 -23
-42 -45 -39 -48 12 -12 93 53 125 101 19 28 37 51 42 53 5 2 33 -20 62 -49
106 -105 126 -119 171 -119 42 0 77 13 61 22 -5 3 -31 13 -59 22 -27 9 -75 34
-105 56 -30 22 -72 51 -92 65 -23 15 -38 33 -38 45 0 18 7 20 59 20 32 0 73 3
90 6 30 6 31 5 31 -29 0 -38 -14 -49 -50 -40 -22 6 -22 5 -6 -20 34 -52 74
-39 97 32 6 20 16 41 21 48 6 8 2 15 -12 23 -16 8 -45 8 -116 -1 -52 -6 -97
-9 -101 -6 -3 3 -3 18 1 32 6 23 11 25 59 25 28 0 57 4 62 8 18 13 46 75 38
83 -11 11 -68 12 -111 3 -31 -6 -33 -5 -30 17 2 19 13 25 66 37 38 8 60 18 56
24 -7 11 -74 6 -106 -7 -16 -6 -18 -1 -18 38 0 45 -10 57 -47 57 -12 0 -13
-10 -8 -54z m138 -162 c-5 -13 -35 -24 -71 -24 -19 0 -23 5 -20 23 2 17 11 23
43 27 41 5 57 -3 48 -26z m-142 -67 c-1 -4 -1 -16 -1 -27 0 -16 -7 -20 -35
-20 -30 0 -35 3 -35 24 0 19 6 26 28 29 34 5 44 4 43 -6z"/>
  <path d="M169 550 c0 -3 0 -63 1 -135 1 -142 -11 -200 -54 -265 -30 -45 -22
-58 14 -27 34 30 56 65 71 115 11 36 14 40 31 31 16 -9 25 -6 49 17 l29 28 0
-66 c0 -88 -5 -99 -37 -87 -45 17 -47 9 -8 -31 84 -86 102 -50 106 213 2 108
-1 200 -5 204 -8 9 -195 11 -197 3z m139 -79 c3 -49 2 -52 -17 -47 -12 3 -30
9 -41 12 -16 4 -20 14 -20 44 0 35 3 39 28 43 44 6 47 3 50 -52z m-13 -91 c29
0 16 -36 -20 -53 -20 -9 -40 -17 -45 -17 -6 0 -10 23 -10 50 l0 51 30 -16 c16
-8 36 -15 45 -15z"/>
</g>
<g id="part-1" class="char-part">
  <path d="M275 549 c-16 -5 -49 -6 -72 -3 l-42 6 9 -33 c25 -88 6 -265 -39
-351 -25 -50 -27 -56 -10 -48 24 13 62 72 78 123 10 31 16 37 32 32 13 -4 30
3 52 21 l32 27 3 -49 c4 -55 -5 -111 -18 -119 -4 -3 -20 -1 -34 5 -35 13 -33
0 7 -38 39 -38 52 -40 71 -10 21 34 29 435 9 443 -19 7 -42 5 -78 -6z m43 -83
c3 -53 1 -58 -15 -51 -10 4 -31 10 -48 14 -23 5 -31 13 -33 33 -6 47 14 70 56
66 l37 -3 3 -59z m-15 -86 c31 0 19 -35 -18 -53 -53 -25 -72 -23 -70 11 1 15
3 39 3 54 l2 28 33 -20 c17 -11 40 -20 50 -20z"/>
</g>
<g id="part-2" class="char-part">
  <path d="M505 593 c4 -10 9 -34 12 -54 l5 -37 -51 -7 c-62 -8 -58 -25 6 -25
l46 0 -7 -95 c-9 -132 -32 -189 -105 -259 -39 -36 -54 -56 -42 -56 35 0 114
67 142 122 11 21 24 38 30 38 5 0 48 -38 95 -85 83 -83 86 -85 132 -84 26 0
56 4 67 9 18 7 17 8 -10 15 -16 4 -55 20 -85 35 -47 24 -81 46 -183 122 -15
11 -16 20 -8 68 5 30 13 83 16 118 6 57 9 63 33 68 78 17 102 26 102 35 0 11
-66 8 -107 -6 -20 -6 -22 -3 -25 41 -3 48 -4 49 -37 52 -29 3 -33 1 -26 -15z"/>
</g>
<g id="part-3" class="char-part">
  <path d="M595 444 c-27 -8 -78 -17 -113 -21 -44 -4 -60 -9 -53 -16 8 -8 36 -7
94 1 114 16 127 16 127 -7 0 -22 -11 -26 -147 -42 l-102 -13 6 -27 c3 -14 0
-30 -6 -33 -16 -10 -14 -46 3 -46 7 0 29 6 47 14 26 11 208 36 261 36 13 0 9
-57 -5 -68 -7 -6 -24 -9 -38 -5 -23 5 -23 4 8 -28 31 -32 33 -32 52 -15 11 10
26 35 32 55 6 20 16 41 20 47 6 7 4 16 -5 24 -12 9 -46 8 -161 -4 -185 -20
-175 -21 -175 9 0 14 3 25 8 25 4 0 61 7 127 15 65 8 121 15 123 15 2 0 0 5
-3 10 -3 6 3 23 15 39 11 16 17 32 13 34 -21 13 -83 14 -128 1z"/>
</g>
</g>
</svg>