<?xml version="1.0" standalone="no"?>
<!DOCTYPE svg PUBLIC "-//W3C//DTD SVG 20010904//EN"
 "http://www.w3.org/TR/2001/REC-SVG-20010904/DTD/svg10.dtd">
<svg version="1.0" xmlns="http://www.w3.org/2000/svg"
 width="96.000000pt" height="68.000000pt" viewBox="0 0 96.000000 68.000000"
 preserveAspectRatio="xMidYMid meet">
<metadata>
Created by potrace 1.16, written by Peter Selinger 2001-2019
Combined from part_0.svg through part_5.svg with named groups
</metadata>
<g transform="translate(0.000000,68.000000) scale(0.100000,-0.100000)" fill="#000000" stroke="none">
<g id="part-0" class="char-part">
  <path d="M405 582 c-66 -9 -122 -17 -124 -19 -3 -2 2 -11 11 -20 15 -14 30
-15 160 -3 79 7 154 17 168 22 24 9 24 10 6 24 -24 17 -61 16 -221 -4z"/>
  <path d="M485 444 c-88 -7 -197 -16 -242 -20 -46 -3 -83 -9 -83 -13 0 -4 11
-13 25 -19 19 -9 51 -8 137 3 77 10 115 12 122 5 12 -12 21 -217 12 -255 -7
-27 -33 -33 -68 -14 -36 20 -30 1 13 -38 87 -79 111 -45 103 142 -4 80 -2 140
4 156 l10 26 133 2 c74 1 136 4 138 7 3 2 -1 10 -7 16 -17 17 -115 18 -297 2z"/>
</g>
<g id="part-1" class="char-part">
  <path d="M460 584 c-52 -8 -114 -17 -138 -20 -61 -8 -42 -24 28 -24 83 0 263
20 274 31 9 8 -35 30 -57 28 -7 -1 -55 -8 -107 -15z"/>
</g>
<g id="part-2" class="char-part">
  <path d="M430 439 c-124 -9 -237 -18 -252 -18 -37 -1 -35 -16 3 -30 23 -8 56
-7 130 4 54 8 184 18 289 22 104 3 190 10 190 15 0 14 -49 28 -93 27 -23 -1
-143 -10 -267 -20z"/>
</g>
<g id="part-3" class="char-part">
  <path d="M451 378 c11 -41 12 -228 0 -247 -9 -13 -23 -13 -81 5 -20 6 -15 -2
25 -39 94 -87 110 -63 110 155 l0 158 -32 0 c-31 0 -31 -1 -22 -32z"/>
</g>
</g>
</svg>