<?xml version="1.0" standalone="no"?>
<!DOCTYPE svg PUBLIC "-//W3C//DTD SVG 20010904//EN"
 "http://www.w3.org/TR/2001/REC-SVG-20010904/DTD/svg10.dtd">
<svg version="1.0" xmlns="http://www.w3.org/2000/svg"
 width="96.000000pt" height="68.000000pt" viewBox="0 0 96.000000 68.000000"
 preserveAspectRatio="xMidYMid meet">
<metadata>
Created by potrace 1.16, written by Peter Selinger 2001-2019
Combined from part_0.svg through part_5.svg with named groups
</metadata>
<g transform="translate(0.000000,68.000000) scale(0.100000,-0.100000)" fill="#000000" stroke="none">
<g id="part-0" class="char-part">
  <path d="M568 605 c-3 -3 -74 -8 -158 -10 l-153 -5 -25 -40 c-28 -48 -24 -90
9 -90 14 0 26 13 40 45 18 40 24 45 52 45 18 0 48 3 68 6 30 5 37 3 41 -14 9
-33 -9 -52 -52 -52 -56 0 -50 -18 8 -22 41 -3 47 -6 44 -23 -2 -11 -5 -21 -6
-22 -1 -1 -34 -3 -74 -4 -40 -1 -72 -3 -72 -6 0 -2 4 -11 10 -21 5 -9 14 -43
20 -74 l11 -56 55 5 c52 6 54 5 54 -19 0 -23 -5 -26 -52 -32 -29 -3 -84 -6
-123 -7 -38 -1 -83 -5 -100 -9 l-30 -7 34 -9 c18 -5 65 -6 105 -2 39 4 94 7
121 7 l50 1 3 -82 c2 -45 5 -85 8 -87 10 -11 24 25 24 64 0 22 3 57 6 77 l7
38 158 0 c159 0 191 8 132 31 -28 11 -247 4 -280 -8 -11 -4 -14 1 -11 23 3 29
4 29 67 29 l64 0 30 73 c20 52 26 77 19 84 -13 13 -94 16 -144 4 -36 -8 -38
-7 -38 18 0 21 5 26 24 26 38 0 86 12 86 21 0 5 -24 9 -52 9 -52 0 -53 0 -53
30 l0 30 83 0 83 0 -15 -22 c-9 -12 -16 -25 -16 -28 0 -10 133 15 137 25 4 14
-7 28 -39 48 -26 16 -146 25 -160 12z m32 -210 c0 -24 -3 -25 -55 -25 -48 0
-55 3 -55 19 0 20 18 27 78 30 28 1 32 -2 32 -24z m-150 -2 c-1 -31 -94 -53
-105 -25 -10 28 -4 32 50 32 30 0 55 -3 55 -7z m142 -68 c-4 -23 -9 -25 -53
-25 -44 0 -49 2 -49 23 0 20 6 23 42 26 23 1 44 4 47 6 10 11 18 -7 13 -30z
m-152 -10 c0 -23 -4 -25 -44 -25 -41 0 -43 1 -38 25 4 22 10 25 43 25 35 0 39
-3 39 -25z"/>
</g>
<g id="part-1" class="char-part">
  <path d="M466 593 c-145 -11 -181 -12 -187 -1 -10 16 -14 12 -43 -47 -27 -52
-25 -75 6 -75 14 0 24 12 35 39 17 44 8 41 168 56 161 15 215 17 215 9 0 -5
-7 -20 -16 -33 l-16 -23 48 8 c52 7 94 20 94 28 0 14 -78 56 -100 55 -14 -1
-106 -8 -204 -16z"/>
</g>
<g id="part-2" class="char-part">
  <path d="M440 535 c0 -37 -13 -45 -66 -45 -19 0 -34 -4 -34 -10 0 -5 23 -10
50 -10 43 0 50 -3 50 -20 0 -15 7 -20 25 -20 20 0 25 5 25 25 0 20 5 25 24 25
38 0 86 12 86 21 0 5 -22 9 -49 9 -47 0 -50 2 -53 28 -2 22 -8 27 -30 28 -25
1 -28 -2 -28 -31z"/>
</g>
<g id="part-3" class="char-part">
  <path d="M540 440 c-19 -6 -86 -13 -147 -16 -85 -5 -110 -10 -103 -19 5 -6 17
-40 26 -76 20 -78 22 -83 39 -69 7 5 70 12 140 14 l128 3 23 58 c13 32 28 63
34 70 24 29 -71 53 -140 35z m60 -45 c0 -24 -3 -25 -55 -25 -48 0 -55 3 -55
19 0 20 18 27 78 30 28 1 32 -2 32 -24z m-160 -14 c0 -15 -9 -20 -40 -23 -41
-4 -60 5 -60 29 0 9 16 13 50 13 42 0 50 -3 50 -19z m151 -54 c-7 -18 -17 -23
-55 -25 -40 -3 -46 -1 -46 17 0 15 9 22 38 26 20 4 42 8 47 9 18 6 24 -4 16
-27z m-151 -12 c0 -22 -4 -25 -40 -25 -22 0 -40 4 -40 9 0 5 -3 16 -6 25 -5
13 2 16 40 16 42 0 46 -2 46 -25z"/>
</g>
<g id="part-4" class="char-part">
  <path d="M442 246 c4 -22 1 -24 -55 -30 -33 -3 -87 -6 -121 -7 -34 0 -79 -4
-101 -8 l-40 -7 36 -11 c23 -7 64 -8 115 -2 43 4 99 8 124 8 l46 1 3 -82 c1
-46 5 -85 7 -88 10 -10 24 27 24 65 0 22 3 57 6 78 l7 37 153 0 c151 0 186 8
143 31 -22 11 -220 6 -276 -8 -19 -4 -23 -1 -23 21 0 21 -5 26 -26 26 -22 0
-26 -4 -22 -24z"/>
</g>
</g>
</svg>