<?xml version="1.0" standalone="no"?>
<!DOCTYPE svg PUBLIC "-//W3C//DTD SVG 20010904//EN"
 "http://www.w3.org/TR/2001/REC-SVG-20010904/DTD/svg10.dtd">
<svg version="1.0" xmlns="http://www.w3.org/2000/svg"
 width="96.000000pt" height="68.000000pt" viewBox="0 0 96.000000 68.000000"
 preserveAspectRatio="xMidYMid meet">
<metadata>
Created by potrace 1.16, written by Peter Selinger 2001-2019
Combined from part_0.svg through part_5.svg with named groups
</metadata>
<g transform="translate(0.000000,68.000000) scale(0.100000,-0.100000)" fill="#000000" stroke="none">
<g id="part-0" class="char-part">
  <path d="M513 562 c-6 -26 -25 -72 -42 -101 -18 -29 -30 -55 -28 -57 1 -2 15
8 30 21 19 18 37 25 67 25 l40 0 0 -50 c0 -57 -2 -58 -109 -62 -44 -2 -66 -7
-69 -17 -4 -11 12 -12 92 -6 l97 7 -2 -125 c-1 -137 10 -183 30 -127 6 18 11
54 11 79 0 25 3 76 6 112 l7 67 103 7 c57 4 104 11 104 15 0 15 -51 20 -132
14 l-81 -7 7 43 c4 27 2 47 -5 56 -9 11 -6 14 17 14 45 0 104 12 104 20 0 18
-70 18 -145 0 -44 -10 -83 -16 -87 -13 -5 2 5 23 22 46 33 45 38 72 14 81 -31
12 -39 5 -51 -42z"/>
  <path d="M260 594 c0 -11 23 -49 41 -70 l19 -21 -115 -13 c-63 -7 -117 -16
-120 -20 -3 -4 9 -13 26 -20 26 -11 49 -10 149 8 65 12 134 22 154 22 25 0 36
4 36 15 0 16 -13 19 -79 15 -34 -2 -42 1 -35 11 12 20 5 52 -14 67 -16 12 -62
17 -62 6z"/>
  <path d="M289 416 c-2 -2 -21 -6 -42 -9 -73 -10 -52 -20 28 -13 85 7 129 26
59 26 -23 0 -43 -2 -45 -4z"/>
  <path d="M265 343 c-49 -5 -72 -23 -30 -23 56 0 135 13 135 21 0 9 -28 9 -105
2z"/>
  <path d="M305 270 c-11 -5 -44 -9 -74 -9 -51 -1 -53 -2 -38 -18 8 -10 18 -34
22 -54 8 -43 24 -70 32 -51 3 8 27 12 69 12 60 0 64 2 64 23 0 12 7 35 15 51
9 16 13 36 11 43 -6 15 -69 17 -101 3z m40 -21 c4 -6 4 -26 1 -45 -7 -33 -9
-34 -52 -34 -47 0 -46 0 -58 67 0 5 19 11 44 14 25 3 48 7 52 7 4 1 10 -3 13
-9z"/>
</g>
<g id="part-1" class="char-part">
  <path d="M270 590 c0 -26 32 -71 48 -68 26 5 27 44 0 62 -26 18 -48 21 -48 6z"/>
  <path d="M232 490 c-73 -10 -135 -20 -138 -22 -2 -3 8 -11 23 -17 23 -9 47 -8
127 9 54 11 122 20 152 20 52 0 71 11 38 24 -21 8 -48 6 -202 -14z"/>
</g>
<g id="part-2" class="char-part">
  <path d="M315 274 c-22 -7 -61 -13 -88 -13 -47 -1 -47 -1 -33 -23 8 -13 18
-40 21 -61 8 -41 21 -55 38 -38 6 6 37 11 69 11 52 0 58 2 58 20 0 12 7 35 16
51 8 17 13 37 11 44 -8 19 -47 23 -92 9z m35 -49 c0 -33 -26 -55 -65 -55 -30
0 -35 4 -43 33 -5 17 -8 33 -6 35 4 6 99 19 107 15 4 -2 7 -15 7 -28z"/>
</g>
<g id="part-3" class="char-part">
  <path d="M526 608 c-2 -7 -9 -31 -15 -53 -5 -22 -26 -66 -46 -99 -19 -32 -35
-61 -35 -63 0 -3 18 9 39 26 21 17 47 31 57 31 39 0 234 35 234 42 0 18 -70
18 -145 0 -44 -11 -81 -16 -83 -11 -2 5 11 29 29 55 l32 47 -23 19 c-26 21
-39 23 -44 6z"/>
</g>
<g id="part-4" class="char-part">
  <path d="M582 405 l3 -54 -35 -5 c-19 -3 -62 -8 -94 -11 -92 -10 -47 -27 52
-19 l82 6 0 -137 c0 -103 3 -136 12 -133 18 6 26 43 27 128 1 41 4 91 7 112
l6 36 104 7 c57 4 104 11 104 15 0 17 -38 21 -124 14 l-89 -7 6 46 c7 48 0 57
-45 57 -18 0 -20 -5 -16 -55z"/>
</g>
</g>
</svg>