<?xml version="1.0" standalone="no"?>
<!DOCTYPE svg PUBLIC "-//W3C//DTD SVG 20010904//EN"
 "http://www.w3.org/TR/2001/REC-SVG-20010904/DTD/svg10.dtd">
<svg version="1.0" xmlns="http://www.w3.org/2000/svg"
 width="96.000000pt" height="68.000000pt" viewBox="0 0 96.000000 68.000000"
 preserveAspectRatio="xMidYMid meet">
<metadata>
Created by potrace 1.16, written by Peter Selinger 2001-2019
Combined from part_0.svg through part_5.svg with named groups
</metadata>
<g transform="translate(0.000000,68.000000) scale(0.100000,-0.100000)" fill="#000000" stroke="none">
<g id="part-0" class="char-part">
  <path d="M410 603 c0 -10 5 -24 11 -30 11 -11 41 -124 35 -130 -3 -4 -146 -24
-200 -29 -49 -4 -52 -8 -27 -33 24 -24 25 -35 10 -117 -11 -60 -40 -121 -78
-161 -39 -41 -4 -32 41 11 31 29 53 61 64 95 10 28 23 51 27 51 5 0 27 -16 50
-35 44 -38 64 -43 74 -19 9 23 -16 42 -75 56 -51 13 -52 13 -52 50 0 68 1 69
127 83 l51 5 22 -67 c13 -38 32 -85 43 -105 25 -46 21 -53 -82 -120 -56 -36
-68 -48 -50 -48 30 0 127 45 156 72 l21 20 37 -35 c50 -48 126 -87 172 -90
l38 -2 -3 50 c-2 28 -7 66 -11 85 l-7 35 -13 -40 c-8 -22 -17 -44 -22 -49 -11
-12 -71 13 -62 27 4 6 1 7 -6 2 -8 -4 -25 5 -46 25 -29 28 -31 34 -19 48 31
35 84 113 84 122 0 13 -35 30 -63 30 -22 0 -25 -4 -24 -33 1 -29 -28 -86 -43
-87 -9 0 -57 102 -64 138 -7 28 -5 32 13 32 11 0 44 5 73 11 51 11 52 12 31
29 -18 14 -31 16 -74 9 -29 -5 -56 -6 -61 -3 -4 3 -8 34 -8 68 0 70 -8 82 -58
92 -27 6 -32 4 -32 -13z"/>
  <path d="M610 563 c0 -17 100 -85 115 -79 25 9 17 44 -12 59 -35 18 -103 31
-103 20z"/>
</g>
<g id="part-1" class="char-part">
  <path d="M430 567 c11 -24 21 -63 22 -88 l3 -44 -77 -9 c-59 -6 -78 -12 -78
-23 0 -13 14 -14 88 -8 l88 7 12 -49 c7 -26 26 -75 42 -108 34 -71 35 -69 -69
-137 -40 -26 -67 -48 -60 -48 20 0 112 44 148 71 l29 22 59 -46 c32 -25 75
-53 95 -61 40 -17 85 -21 90 -8 2 4 -1 36 -8 72 -8 47 -13 60 -18 45 -24 -64
-26 -66 -49 -59 -26 8 -98 56 -116 77 -10 13 -5 26 33 78 25 35 46 69 46 76 0
12 -38 33 -61 33 -5 0 -9 -14 -9 -31 0 -18 -10 -47 -22 -67 l-21 -35 -22 27
c-12 15 -30 50 -40 79 -10 29 -20 57 -22 63 -3 8 21 16 66 24 39 6 71 16 71
21 0 15 -47 21 -94 11 -25 -5 -48 -7 -51 -4 -3 3 -5 34 -5 68 0 71 -15 94 -60
94 l-29 0 19 -43z"/>
  <path d="M655 526 c45 -40 75 -47 75 -16 0 23 -21 36 -75 45 l-40 6 40 -35z"/>
</g>
<g id="part-2" class="char-part">
  <path d="M248 413 c-42 -5 -46 -10 -20 -29 42 -31 2 -201 -65 -275 -38 -42
-37 -47 6 -24 61 31 120 140 122 223 0 20 4 46 8 57 8 21 3 56 -8 53 -3 -1
-23 -3 -43 -5z"/>
</g>
<g id="part-3" class="char-part">
  <path d="M290 272 c1 -11 94 -82 108 -82 19 0 27 30 11 45 -16 15 -119 48
-119 37z"/>
</g>
</g>
</svg>