<?xml version="1.0" standalone="no"?>
<!DOCTYPE svg PUBLIC "-//W3C//DTD SVG 20010904//EN"
 "http://www.w3.org/TR/2001/REC-SVG-20010904/DTD/svg10.dtd">
<svg version="1.0" xmlns="http://www.w3.org/2000/svg"
 width="96.000000pt" height="68.000000pt" viewBox="0 0 96.000000 68.000000"
 preserveAspectRatio="xMidYMid meet">
<metadata>
Created by potrace 1.16, written by Peter Selinger 2001-2019
Combined from part_0.svg through part_5.svg with named groups
</metadata>
<g transform="translate(0.000000,68.000000) scale(0.100000,-0.100000)" fill="#000000" stroke="none">
<g id="part-0" class="char-part">
  <path d="M502 555 c-125 -17 -132 -26 -23 -29 27 -1 36 -16 27 -50 -5 -19 -13
-23 -54 -25 -27 -1 -62 -6 -78 -10 l-29 -8 37 -8 c21 -4 48 -5 61 -1 13 3 27
3 30 0 7 -8 -62 -111 -91 -137 -19 -17 -22 -18 -45 -2 -18 11 -36 14 -61 10
l-35 -7 11 36 c11 33 14 36 52 37 50 1 85 12 68 23 -7 4 -33 4 -58 0 l-47 -7
7 29 c4 16 8 37 9 47 1 13 10 17 39 17 46 0 58 17 23 30 -28 10 -200 -14 -219
-31 -12 -11 37 -22 74 -17 29 4 30 3 30 -33 0 -45 -5 -49 -73 -56 -29 -3 -59
-9 -67 -13 -24 -13 55 -24 89 -12 34 12 41 8 41 -25 0 -27 -40 -47 -77 -40
-27 5 -27 6 -9 -35 8 -18 18 -50 21 -70 6 -37 18 -48 30 -28 3 6 35 10 71 10
47 0 64 4 62 13 -1 6 1 29 5 50 6 28 13 37 28 37 26 0 110 79 150 141 17 27
37 49 44 49 7 0 48 -38 90 -85 l77 -85 64 0 c34 0 66 5 69 10 3 6 0 10 -7 10
-48 1 -247 115 -248 143 0 4 28 7 63 8 34 0 71 4 82 8 19 8 18 9 -7 21 -20 9
-46 10 -102 3 -73 -9 -76 -8 -70 10 3 11 7 27 8 35 3 18 3 18 69 27 26 3 47
10 47 16 0 12 -60 10 -178 -6z m-212 -317 c0 -47 -10 -57 -62 -64 -45 -6 -45
-6 -52 26 -12 62 -9 64 82 69 30 1 32 -1 32 -31z"/>
  <path d="M528 231 c5 -132 2 -144 -33 -131 -33 12 -32 2 4 -38 30 -32 54 -34
65 -7 3 8 6 69 7 136 1 108 -1 124 -17 136 -10 7 -21 13 -24 13 -4 0 -4 -49
-2 -109z"/>
  <path d="M404 198 c-9 -18 -26 -43 -37 -55 -27 -30 -11 -29 35 2 46 31 66 64
47 76 -22 14 -28 11 -45 -23z"/>
  <path d="M680 225 c0 -3 9 -15 19 -27 10 -13 30 -36 43 -52 26 -30 48 -29 48
3 0 21 -22 42 -67 65 -34 17 -43 19 -43 11z"/>
  <path d="M610 189 c0 -22 35 -70 49 -67 25 5 23 25 -4 52 -27 27 -45 33 -45
15z"/>
</g>
<g id="part-1" class="char-part">
  <path d="M225 489 c-50 -10 -92 -19 -95 -19 -3 0 2 -5 10 -9 19 -11 210 10
211 24 1 19 -39 21 -126 4z"/>
</g>
<g id="part-2" class="char-part">
  <path d="M205 282 c-44 -8 -82 -17 -84 -18 -2 -2 1 -10 7 -17 6 -7 16 -37 23
-65 10 -50 21 -63 34 -42 3 6 36 10 71 10 48 0 64 3 61 13 -2 6 5 36 16 66 28
77 17 82 -128 53z m85 -44 c0 -47 -9 -55 -62 -63 -39 -6 -48 -4 -48 8 0 8 -3
28 -6 45 -6 29 -4 31 27 35 87 10 89 10 89 -25z"/>
</g>
<g id="part-3" class="char-part">
  <path d="M502 555 c-51 -7 -95 -15 -98 -18 -3 -2 10 -7 28 -10 49 -9 241 15
246 31 5 15 -48 14 -176 -3z"/>
</g>
<g id="part-4" class="char-part">
  <path d="M517 523 c-2 -5 -7 -20 -11 -35 -6 -28 -3 -27 -116 -44 -30 -5 -32
-7 -16 -16 10 -6 38 -8 62 -4 24 3 44 3 44 0 0 -10 -63 -97 -98 -136 -19 -21
-29 -38 -22 -38 18 0 125 106 146 145 31 58 42 54 129 -40 l80 -86 61 1 c33 0
64 3 68 7 4 4 -25 19 -65 33 -39 15 -101 49 -137 76 l-67 49 40 2 c22 2 65 6
95 9 l55 6 -29 15 c-23 12 -42 13 -104 4 -42 -5 -78 -8 -80 -6 -2 2 1 13 8 24
6 12 8 26 5 31 -7 12 -42 13 -48 3z"/>
</g>
<g id="part-5" class="char-part">
  <path d="M525 320 c5 -8 10 -28 11 -44 2 -17 6 -51 9 -75 3 -24 1 -49 -5 -56
-6 -7 -10 -17 -9 -21 5 -27 -3 -36 -26 -32 -13 3 -22 1 -19 -3 3 -5 12 -9 19
-9 9 0 12 -6 9 -15 -9 -24 26 -32 40 -9 11 20 16 264 4 264 -3 0 -14 3 -24 7
-13 5 -15 3 -9 -7z"/>
  <path d="M430 210 c11 -7 11 -10 2 -10 -8 0 -10 -5 -6 -12 5 -7 2 -9 -9 -5
-10 4 -18 -1 -22 -14 -4 -10 -10 -19 -15 -19 -4 0 -11 -7 -14 -15 -6 -18 48
21 76 54 18 21 14 31 -11 31 -14 0 -14 -2 -1 -10z"/>
  <path d="M707 204 c3 -7 9 -14 14 -14 5 0 8 -3 7 -7 -2 -5 4 -17 12 -29 18
-25 51 -29 43 -5 -9 25 -35 51 -44 45 -5 -3 -9 -1 -9 4 0 6 -7 12 -14 15 -10
4 -13 1 -9 -9z"/>
  <path d="M610 191 c0 -5 7 -14 16 -19 9 -5 15 -12 15 -15 -3 -21 1 -27 14 -27
8 0 15 5 15 11 0 5 -4 7 -10 4 -6 -3 -7 1 -4 9 3 9 1 16 -4 16 -6 0 -18 7 -26
16 -9 8 -16 11 -16 5z"/>
</g>
</g>
</svg>