<?xml version="1.0" standalone="no"?>
<!DOCTYPE svg PUBLIC "-//W3C//DTD SVG 20010904//EN"
 "http://www.w3.org/TR/2001/REC-SVG-20010904/DTD/svg10.dtd">
<svg version="1.0" xmlns="http://www.w3.org/2000/svg"
 width="96.000000pt" height="68.000000pt" viewBox="0 0 96.000000 68.000000"
 preserveAspectRatio="xMidYMid meet">
<metadata>
Created by potrace 1.16, written by Peter Selinger 2001-2019
Combined from part_0.svg through part_5.svg with named groups
</metadata>
<g transform="translate(0.000000,68.000000) scale(0.100000,-0.100000)" fill="#000000" stroke="none">
<g id="part-0" class="char-part">
  <path d="M280 570 c-14 -9 40 -65 72 -76 30 -9 53 18 39 45 -7 11 -15 21 -19
21 -4 0 -23 4 -43 9 -21 5 -42 5 -49 1z"/>
  <path d="M587 516 l6 -64 -59 -8 c-33 -4 -67 -7 -78 -5 -12 2 -16 -1 -11 -9 5
-9 29 -11 76 -8 l69 5 0 -38 0 -39 -65 0 -64 0 4 -53 c3 -29 1 -84 -4 -122 -5
-46 -5 -77 2 -90 10 -20 10 -20 18 0 4 11 11 38 15 60 8 38 11 40 48 43 47 4
52 -3 55 -71 1 -28 6 -56 11 -61 13 -13 30 36 30 83 0 49 14 61 72 61 48 0 48
0 48 -32 0 -18 -3 -44 -7 -56 -5 -20 -10 -23 -34 -18 -36 7 -37 -3 -1 -37 61
-58 78 -25 85 161 l5 142 -28 15 c-15 8 -30 12 -32 10 -3 -3 -26 -9 -51 -14
l-47 -8 0 38 0 39 63 1 c34 1 73 4 87 8 45 12 3 23 -77 20 l-76 -4 -1 55 c-1
54 -2 55 -32 58 l-32 3 5 -65z m170 -198 c4 -28 3 -28 -52 -28 -54 0 -55 1
-55 28 0 27 2 28 52 27 48 0 51 -2 55 -27z m-161 -4 c-3 -9 -6 -19 -6 -24 0
-12 -71 -23 -82 -12 -6 6 -7 19 -3 31 5 17 14 21 52 21 37 0 44 -3 39 -16z
m162 -66 c-3 -20 -9 -23 -55 -26 -46 -3 -53 -1 -53 16 0 26 4 28 61 31 48 2
50 1 47 -21z m-166 -13 c-5 -26 -3 -25 -48 -28 -33 -2 -39 1 -42 20 -3 23 18
32 68 29 19 -1 24 -6 22 -21z"/>
  <path d="M720 564 c0 -16 69 -57 85 -50 34 13 6 44 -49 53 -20 3 -36 2 -36 -3z"/>
  <path d="M320 439 c-13 -5 -58 -16 -99 -23 -41 -6 -76 -17 -78 -23 -7 -19 50
-24 107 -8 30 8 61 15 68 15 19 0 -115 -155 -165 -191 -50 -35 -54 -48 -16
-41 29 5 79 38 123 80 l25 24 3 -56 c2 -31 -2 -72 -7 -92 -8 -28 -7 -43 5 -65
32 -63 54 -21 54 105 0 53 3 96 6 96 3 0 17 -9 31 -20 14 -11 32 -20 39 -20
22 0 16 37 -7 54 l-22 15 27 7 c32 8 34 29 4 45 -17 9 -23 9 -26 -1 -3 -7 -13
-21 -24 -32 -16 -16 -22 -17 -35 -6 -14 11 -10 18 31 54 52 48 57 66 21 82
-30 14 -32 14 -65 1z"/>
</g>
<g id="part-1" class="char-part">
  <path d="M280 562 c0 -16 60 -62 81 -62 25 0 36 27 18 45 -18 18 -99 32 -99
17z"/>
  <path d="M280 425 c-25 -7 -66 -16 -93 -20 -26 -3 -45 -10 -42 -16 8 -11 76
-12 107 0 49 18 78 21 78 10 0 -17 -138 -168 -184 -201 -27 -19 -33 -28 -21
-28 22 0 103 51 135 85 13 14 27 25 32 25 12 0 10 -107 -4 -151 -8 -30 -8 -45
1 -65 22 -50 36 -22 42 90 3 58 9 109 13 113 3 4 17 -4 31 -17 16 -15 30 -20
42 -15 16 6 15 9 -10 29 l-29 23 31 13 c25 10 29 15 20 26 -16 20 -27 17 -52
-12 -15 -17 -28 -23 -40 -19 -26 11 -21 21 31 71 45 44 46 46 28 60 -24 17
-55 17 -116 -1z"/>
</g>
<g id="part-2" class="char-part">
  <path d="M732 551 c25 -41 88 -53 88 -18 0 17 -42 37 -76 37 -21 0 -23 -2 -12
-19z"/>
</g>
<g id="part-3" class="char-part">
  <path d="M587 516 l6 -65 -72 -7 c-85 -8 -110 -27 -36 -27 6 0 31 3 56 6 l46
6 6 -180 c3 -106 10 -186 16 -192 21 -21 33 48 38 216 l6 167 61 1 c34 1 72 4
86 9 22 6 23 8 8 15 -24 10 -54 10 -110 1 l-47 -8 -3 58 c-3 58 -4 59 -34 62
l-32 3 5 -65z"/>
</g>
<g id="part-4" class="char-part">
  <path d="M650 364 c-36 -7 -92 -13 -125 -14 l-60 0 0 -77 c-1 -43 -3 -103 -5
-135 -5 -53 2 -79 16 -65 4 4 11 30 15 58 5 28 10 53 11 54 2 1 60 5 131 9
l127 7 0 -33 c0 -18 -3 -44 -7 -56 -5 -21 -10 -23 -42 -17 l-36 7 35 -36 c69
-69 86 -41 93 152 6 178 6 179 -153 146z m108 -45 l3 -26 -103 -7 c-57 -4
-114 -8 -128 -9 -20 -2 -25 3 -25 23 0 23 5 26 75 36 41 7 98 11 125 10 46 -1
50 -3 53 -27z m2 -68 l0 -28 -97 -8 c-163 -12 -158 -13 -161 12 -3 24 -11 22
163 41 44 5 83 10 88 11 4 0 7 -12 7 -28z"/>
</g>
</g>
</svg>