<?xml version="1.0" standalone="no"?>
<!DOCTYPE svg PUBLIC "-//W3C//DTD SVG 20010904//EN"
 "http://www.w3.org/TR/2001/REC-SVG-20010904/DTD/svg10.dtd">
<svg version="1.0" xmlns="http://www.w3.org/2000/svg"
 width="96.000000pt" height="68.000000pt" viewBox="0 0 96.000000 68.000000"
 preserveAspectRatio="xMidYMid meet">
<metadata>
Created by potrace 1.16, written by Peter Selinger 2001-2019
Combined from part_0.svg through part_5.svg with named groups
</metadata>
<g transform="translate(0.000000,68.000000) scale(0.100000,-0.100000)" fill="#000000" stroke="none">
<g id="part-0" class="char-part">
  <path d="M241 571 c-17 -27 -47 -63 -66 -80 -35 -30 -32 -51 3 -32 11 6 22 8
26 6 3 -3 4 -2 1 1 -2 4 9 16 24 28 16 11 47 35 70 51 55 41 55 55 0 68 -23 6
-30 1 -58 -42z"/>
  <path d="M400 602 c0 -4 19 -27 43 -50 51 -50 80 -56 75 -15 -2 20 -14 34 -43
50 -40 23 -75 30 -75 15z"/>
  <path d="M738 565 c-13 -13 -108 -31 -122 -23 -9 5 -19 7 -24 5 -4 -3 -6 -118
-4 -256 2 -201 5 -251 16 -251 18 0 26 54 26 186 0 61 3 152 6 202 l7 91 49
11 c27 5 54 8 58 5 5 -3 0 -26 -10 -51 -26 -60 -25 -66 10 -104 32 -34 46 -72
35 -90 -5 -8 -23 -10 -54 -5 l-46 6 58 -35 c67 -42 73 -43 87 -17 27 51 -3
131 -62 166 -15 9 -28 19 -28 23 0 4 20 30 45 59 25 28 45 56 45 61 0 16 -78
30 -92 17z"/>
  <path d="M325 483 c-41 -64 -100 -125 -158 -164 -46 -30 -55 -39 -34 -35 38 9
132 71 186 123 24 24 46 43 50 43 3 0 33 -25 66 -55 33 -30 63 -55 67 -55 4 0
12 8 17 19 13 23 -3 39 -82 75 -32 15 -55 31 -51 37 5 9 -22 38 -37 39 -4 0
-15 -12 -24 -27z"/>
  <path d="M355 300 c-27 -5 -74 -9 -104 -9 -52 -1 -53 -2 -38 -19 9 -10 20 -39
23 -64 9 -68 11 -69 79 -58 33 5 81 10 107 10 38 0 46 3 42 15 -3 8 6 36 20
61 25 44 25 47 9 60 -20 15 -61 16 -138 4z m75 -42 c0 -58 -9 -66 -77 -78 -36
-6 -69 -7 -73 -3 -5 4 -11 27 -15 50 -6 40 -5 42 22 46 15 2 54 5 86 6 53 1
57 -1 57 -21z"/>
</g>
<g id="part-1" class="char-part">
  <path d="M254 579 c-8 -17 -34 -51 -56 -75 -52 -56 -36 -56 39 0 97 74 115
106 58 106 -17 0 -29 -9 -41 -31z"/>
  <path d="M435 566 c31 -38 54 -56 71 -56 2 0 4 11 4 23 0 26 -20 47 -63 65
-47 20 -50 14 -12 -32z"/>
</g>
<g id="part-2" class="char-part">
  <path d="M350 299 c-25 -4 -69 -8 -98 -8 -52 -1 -52 -1 -38 -23 7 -13 19 -47
26 -76 11 -48 15 -53 34 -48 11 3 58 9 104 12 53 5 82 11 82 19 0 6 11 34 25
61 23 45 24 50 8 62 -18 13 -73 14 -143 1z m77 -60 c-3 -22 -7 -42 -9 -44 -8
-9 -133 -24 -139 -17 -4 4 -9 26 -13 49 l-6 42 37 4 c21 2 60 4 87 5 l49 2 -6
-41z"/>
</g>
<g id="part-3" class="char-part">
  <path d="M690 551 c-63 -19 -54 -38 11 -21 22 6 44 9 47 5 4 -3 -1 -27 -10
-53 -10 -25 -15 -49 -12 -51 3 -3 29 22 59 54 47 53 52 61 37 73 -21 16 -65
14 -132 -7z"/>
</g>
<g id="part-4" class="char-part">
  <path d="M588 313 c2 -241 6 -288 21 -279 14 9 21 82 22 253 1 90 5 181 9 204
7 37 5 41 -17 50 -13 5 -27 9 -31 9 -4 0 -6 -107 -4 -237z"/>
</g>
</g>
</svg>