<?xml version="1.0" standalone="no"?>
<!DOCTYPE svg PUBLIC "-//W3C//DTD SVG 20010904//EN"
 "http://www.w3.org/TR/2001/REC-SVG-20010904/DTD/svg10.dtd">
<svg version="1.0" xmlns="http://www.w3.org/2000/svg"
 width="96.000000pt" height="68.000000pt" viewBox="0 0 96.000000 68.000000"
 preserveAspectRatio="xMidYMid meet">
<metadata>
Created by potrace 1.16, written by Peter Selinger 2001-2019
Combined from part_0.svg through part_5.svg with named groups
</metadata>
<g transform="translate(0.000000,68.000000) scale(0.100000,-0.100000)" fill="#000000" stroke="none">
<g id="part-0" class="char-part">
  <path d="M270 595 c0 -12 35 -75 42 -75 4 0 8 -4 8 -8 0 -5 -52 -15 -115 -22
-84 -9 -115 -16 -115 -26 0 -25 48 -26 174 -5 68 12 139 21 158 21 40 0 52 8
37 26 -7 8 -28 11 -65 7 -53 -4 -55 -3 -45 15 14 27 -20 72 -55 72 -13 0 -24
-2 -24 -5z"/>
  <path d="M615 545 c-38 -7 -85 -14 -104 -14 -32 -1 -33 -2 -18 -19 14 -16 14
-22 -4 -72 -11 -30 -23 -66 -26 -79 -6 -22 -4 -23 28 -17 19 4 58 9 88 13 l54
6 -21 -31 c-19 -26 -75 -79 -162 -151 l-25 -21 25 9 c45 17 80 36 80 44 0 4 5
7 10 7 6 0 33 23 60 51 57 59 55 62 44 -74 l-7 -77 -41 0 -41 0 40 -35 c22
-19 45 -34 52 -35 25 0 33 42 36 179 l2 141 83 0 c63 0 82 3 82 14 0 21 -27
27 -96 20 -71 -7 -73 -5 -52 54 12 31 11 35 -11 53 l-23 19 50 0 c54 0 77 14
39 24 -31 8 -61 6 -142 -9z m19 -42 c3 -10 8 -39 11 -64 l7 -46 -34 -6 c-87
-16 -98 -17 -98 -7 0 31 37 130 50 134 35 9 59 5 64 -11z"/>
  <path d="M253 411 c-54 -9 -67 -21 -22 -21 59 0 139 12 139 21 0 10 -55 10
-117 0z"/>
  <path d="M267 340 c-84 -16 -40 -27 57 -14 25 4 46 11 46 15 0 10 -48 10 -103
-1z"/>
  <path d="M305 270 c-11 -5 -42 -9 -69 -9 -42 -1 -47 -3 -41 -18 4 -10 12 -34
17 -53 13 -46 28 -64 42 -50 5 5 36 10 68 10 53 0 58 2 58 23 0 12 7 35 15 51
9 16 13 36 11 43 -6 15 -69 17 -101 3z m40 -21 c4 -6 4 -26 1 -45 -7 -33 -9
-34 -51 -34 -40 0 -44 2 -50 31 -4 17 -4 33 -1 36 5 5 43 14 88 22 4 0 10 -4
13 -10z"/>
</g>
<g id="part-1" class="char-part">
  <path d="M280 583 c1 -29 35 -67 54 -60 23 9 20 43 -6 61 -29 21 -48 20 -48
-1z"/>
  <path d="M230 489 c-74 -9 -136 -18 -138 -18 -2 -1 0 -5 3 -11 9 -15 91 -12
182 5 43 8 99 15 125 15 48 0 71 13 42 24 -22 8 -60 6 -214 -15z"/>
</g>
<g id="part-2" class="char-part">
  <path d="M290 268 c-19 -5 -51 -8 -72 -6 -42 4 -44 2 -23 -25 7 -11 17 -36 20
-58 7 -43 21 -57 38 -40 6 6 39 11 73 11 56 0 62 2 57 19 -3 10 3 33 12 51 9
17 14 38 11 46 -6 16 -63 17 -116 2z m56 -62 c-7 -35 -8 -36 -51 -36 -40 0
-44 2 -50 31 -8 38 -5 41 48 49 53 8 61 1 53 -44z"/>
</g>
<g id="part-3" class="char-part">
  <path d="M580 541 c-148 -23 -110 -36 61 -20 132 12 159 19 123 33 -23 9 -66
6 -184 -13z"/>
</g>
<g id="part-4" class="char-part">
  <path d="M507 503 c-4 -3 -7 -16 -7 -28 0 -12 -11 -44 -25 -70 -28 -56 -21
-70 30 -60 98 20 151 25 243 25 99 0 116 6 89 28 -13 11 -124 3 -251 -18 -33
-5 -62 -7 -65 -5 -2 3 3 29 12 59 9 29 17 58 17 64 0 13 -32 16 -43 5z"/>
</g>
<g id="part-5" class="char-part">
  <path d="M630 335 c0 -10 -3 -15 -7 -12 -3 4 -17 -8 -30 -25 -12 -18 -23 -28
-24 -22 0 5 -4 -1 -10 -14 -5 -13 -13 -20 -19 -17 -5 3 -10 1 -10 -4 0 -6 5
-11 11 -11 15 0 69 56 69 70 0 6 4 9 9 5 11 -6 26 33 17 42 -3 4 -6 -2 -6 -12z"/>
  <path d="M483 205 l-28 -25 33 11 c35 12 48 24 33 33 -5 4 -22 -5 -38 -19z"/>
</g>
</g>
</svg>