<?xml version="1.0" standalone="no"?>
<!DOCTYPE svg PUBLIC "-//W3C//DTD SVG 20010904//EN"
 "http://www.w3.org/TR/2001/REC-SVG-20010904/DTD/svg10.dtd">
<svg version="1.0" xmlns="http://www.w3.org/2000/svg"
 width="96.000000pt" height="68.000000pt" viewBox="0 0 96.000000 68.000000"
 preserveAspectRatio="xMidYMid meet">
<metadata>
Created by potrace 1.16, written by Peter Selinger 2001-2019
Combined from part_0.svg through part_5.svg with named groups
</metadata>
<g transform="translate(0.000000,68.000000) scale(0.100000,-0.100000)" fill="#000000" stroke="none">
<g id="part-0" class="char-part">
  <path d="M546 618 c-4 -18 -22 -58 -41 -88 -18 -30 -32 -56 -30 -59 6 -5 55
27 77 49 11 12 41 20 94 25 93 8 132 21 117 36 -14 14 -64 14 -120 1 -48 -11
-48 -10 -30 19 10 17 9 22 -7 35 -33 24 -53 17 -60 -18z"/>
  <path d="M296 598 c-4 -18 -27 -59 -52 -91 -25 -33 -43 -61 -41 -64 6 -6 87
47 87 57 0 14 54 29 118 32 67 5 98 21 72 39 -14 9 -26 8 -101 -7 -30 -7 -30
-6 -17 15 11 20 11 24 -6 37 -33 23 -53 17 -60 -18z"/>
  <path d="M616 517 c8 -22 64 -59 80 -53 38 15 -7 66 -58 66 -19 0 -26 -4 -22
-13z"/>
  <path d="M340 500 c0 -14 41 -50 57 -50 23 0 28 32 8 46 -22 16 -65 19 -65 4z"/>
  <path d="M467 446 c-76 -11 -135 -24 -131 -28 4 -4 32 -5 62 -1 54 6 71 -2 72
-34 0 -14 -85 -29 -187 -33 -10 0 -10 -6 -2 -24 9 -18 7 -32 -6 -60 -25 -52
-11 -63 54 -42 56 18 101 21 101 6 0 -5 -3 -10 -7 -10 -5 0 -23 -13 -41 -28
-18 -15 -67 -45 -110 -67 -42 -21 -72 -40 -66 -42 19 -6 120 34 188 76 38 23
70 41 73 41 3 0 2 -34 -2 -75 -8 -82 4 -117 31 -94 10 8 14 39 14 114 l0 102
38 7 c20 3 61 6 90 6 50 0 52 -1 52 -27 0 -44 -13 -56 -49 -48 -38 8 -39 -2
-2 -38 34 -33 61 -32 77 3 6 14 20 44 32 68 19 38 19 44 5 58 -14 13 -34 15
-134 9 l-118 -8 4 29 c2 16 4 32 4 35 1 4 33 10 71 14 55 6 70 10 70 24 1 9 7
27 14 41 12 21 12 26 -3 37 -20 15 -24 15 -194 -11z m145 -19 c15 -24 -12 -47
-56 -47 -40 0 -43 2 -43 25 0 15 5 25 13 25 8 0 14 4 14 8 0 12 64 2 72 -11z
m-142 -116 c0 -37 -3 -39 -81 -47 l-65 -6 4 41 4 41 69 0 69 0 0 -29z"/>
</g>
<g id="part-1" class="char-part">
  <path d="M551 612 c-6 -21 -24 -59 -41 -85 -35 -56 -25 -60 29 -12 34 31 45
35 97 36 77 2 116 11 122 28 4 11 -6 13 -50 8 -30 -4 -69 -10 -87 -13 -31 -7
-33 -6 -22 14 16 30 14 37 -14 50 -23 11 -25 9 -34 -26z"/>
  <path d="M287 568 c-14 -29 -38 -68 -53 -85 -36 -45 -17 -41 37 5 39 34 52 40
111 46 75 7 98 14 98 27 0 11 -44 11 -95 -1 -47 -11 -54 -7 -32 18 13 14 14
21 5 30 -24 24 -44 12 -71 -40z"/>
  <path d="M630 511 c10 -20 48 -51 62 -51 5 0 8 11 8 24 0 18 -8 27 -31 35 -44
15 -51 14 -39 -8z"/>
  <path d="M352 488 c18 -27 58 -37 58 -14 0 17 -29 36 -56 36 -15 0 -15 -2 -2
-22z"/>
</g>
<g id="part-2" class="char-part">
  <path d="M560 459 c-19 -4 -79 -13 -132 -20 -54 -7 -98 -16 -98 -21 0 -9 99
-2 189 13 83 14 91 12 91 -16 0 -31 14 -28 -282 -60 -63 -7 -63 -7 -48 -36 8
-14 7 -28 -6 -55 -23 -48 -9 -62 43 -45 44 14 247 40 316 41 53 0 64 -12 53
-56 -7 -25 -10 -26 -49 -20 l-42 7 42 -42 c42 -41 44 -42 63 -24 10 9 24 34
31 54 6 20 18 47 26 60 14 22 14 26 -3 38 -20 15 -140 12 -309 -8 -119 -14
-115 -15 -115 29 l0 39 98 6 c198 13 222 18 222 40 0 11 8 29 17 40 17 18 17
19 -2 33 -21 15 -51 16 -105 3z"/>
</g>
<g id="part-3" class="char-part">
  <path d="M465 231 c0 -142 3 -193 13 -203 25 -25 32 14 33 190 1 94 2 178 3
185 1 6 -10 13 -24 15 l-25 3 0 -190z"/>
</g>
<g id="part-4" class="char-part">
  <path d="M419 224 c-19 -23 -83 -65 -164 -108 -63 -34 -66 -37 -32 -31 84 14
237 101 237 135 0 24 -22 26 -41 4z"/>
</g>
</g>
</svg>