<?xml version="1.0" standalone="no"?>
<!DOCTYPE svg PUBLIC "-//W3C//DTD SVG 20010904//EN"
 "http://www.w3.org/TR/2001/REC-SVG-20010904/DTD/svg10.dtd">
<svg version="1.0" xmlns="http://www.w3.org/2000/svg"
 width="96.000000pt" height="68.000000pt" viewBox="0 0 96.000000 68.000000"
 preserveAspectRatio="xMidYMid meet">
<metadata>
Created by potrace 1.16, written by Peter Selinger 2001-2019
Combined from part_0.svg through part_5.svg with named groups
</metadata>
<g transform="translate(0.000000,68.000000) scale(0.100000,-0.100000)" fill="#000000" stroke="none">
<g id="part-0" class="char-part">
  <path d="M495 603 c4 -10 10 -43 12 -74 l5 -56 -46 -7 c-60 -9 -61 -29 -1 -24
l45 3 0 -36 0 -37 -85 -12 c-104 -15 -107 -36 -4 -27 38 3 69 3 69 -2 0 -20
-113 -146 -152 -169 -47 -27 -31 -34 20 -8 50 26 111 78 130 111 10 18 11 18
11 -10 1 -16 -3 -57 -8 -91 -10 -70 -4 -113 17 -121 31 -12 42 26 42 149 l0
119 52 -63 c79 -95 83 -97 163 -98 79 0 77 7 -13 43 -66 27 -90 44 -162 110
l-44 42 54 7 c30 3 79 6 108 7 56 1 68 15 26 31 -17 7 -47 7 -87 0 -95 -15
-97 -15 -93 20 4 38 2 36 54 47 56 11 54 28 -4 26 l-45 -1 7 57 6 58 -32 12
c-45 15 -53 14 -45 -6z"/>
  <path d="M225 519 c-16 -5 -49 -10 -72 -10 -45 -1 -63 -13 -44 -32 13 -13 14
-147 1 -202 -7 -27 -6 -49 1 -67 11 -28 33 -37 44 -18 3 6 25 10 48 10 31 0
45 -5 55 -20 18 -29 38 -25 54 13 10 24 13 68 10 173 -3 139 -4 142 -28 153
-28 13 -29 13 -69 0z m33 -90 l-3 -51 -42 -4 -43 -4 0 55 0 55 46 0 45 0 -3
-51z m0 -136 l-3 -56 -47 -4 -48 -4 0 33 c0 60 9 77 44 81 17 2 37 5 44 5 10
2 12 -13 10 -55z"/>
</g>
<g id="part-1" class="char-part">
  <path d="M210 510 c-14 -4 -41 -8 -60 -9 l-35 -1 0 -150 c0 -109 4 -153 13
-162 11 -11 15 -10 23 5 7 12 22 17 53 17 35 0 45 -4 56 -25 16 -31 24 -31 44
-4 12 18 14 49 10 173 -3 102 -9 153 -17 158 -15 10 -54 9 -87 -2z m58 -82 l3
-58 -33 0 c-18 0 -43 -3 -55 -6 -22 -6 -23 -4 -23 54 0 67 5 71 70 69 l35 -2
3 -57z m0 -135 l-3 -58 -52 -3 -53 -3 0 55 c0 60 3 63 73 65 l38 1 -3 -57z"/>
</g>
<g id="part-2" class="char-part">
  <path d="M495 598 c4 -13 9 -46 12 -74 l5 -51 -57 -8 c-66 -8 -58 -25 13 -25
31 0 42 -4 42 -15 0 -22 38 -18 45 4 4 13 20 22 51 27 56 11 54 29 -4 28 -48
0 -47 -3 -27 78 5 21 1 28 -28 42 -48 22 -61 21 -52 -6z"/>
</g>
<g id="part-3" class="char-part">
  <path d="M510 391 c0 -15 -10 -20 -47 -25 -110 -15 -123 -18 -117 -28 4 -7 32
-9 75 -5 38 3 69 2 69 -3 0 -15 -113 -139 -152 -166 -21 -15 -37 -29 -34 -31
10 -10 103 45 147 88 48 47 49 47 49 21 0 -15 -4 -53 -10 -86 -7 -46 -6 -66 6
-95 l15 -36 20 24 c16 20 19 39 19 142 l0 120 46 -58 c78 -96 88 -102 174
-102 l75 0 -35 16 c-19 9 -59 27 -88 41 -29 13 -80 49 -114 80 l-61 57 54 7
c30 3 78 6 107 7 56 1 68 15 25 32 -18 7 -48 7 -94 -1 -87 -13 -89 -13 -89 5
0 8 -9 15 -20 15 -13 0 -20 -7 -20 -19z"/>
</g>
</g>
</svg>