<?xml version="1.0" standalone="no"?>
<!DOCTYPE svg PUBLIC "-//W3C//DTD SVG 20010904//EN"
 "http://www.w3.org/TR/2001/REC-SVG-20010904/DTD/svg10.dtd">
<svg version="1.0" xmlns="http://www.w3.org/2000/svg"
 width="96.000000pt" height="68.000000pt" viewBox="0 0 96.000000 68.000000"
 preserveAspectRatio="xMidYMid meet">
<metadata>
Created by potrace 1.16, written by Peter Selinger 2001-2019
Combined from part_0.svg through part_5.svg with named groups
</metadata>
<g transform="translate(0.000000,68.000000) scale(0.100000,-0.100000)" fill="#000000" stroke="none">
<g id="part-0" class="char-part">
  <path d="M332 573 c-6 -16 -20 -39 -31 -53 l-21 -25 -51 28 c-28 16 -54 25
-58 22 -3 -4 13 -23 37 -43 l42 -37 -72 -49 c-39 -28 -67 -51 -61 -53 5 -2 42
13 82 33 40 20 74 35 76 33 2 -2 6 -20 9 -39 6 -31 2 -40 -36 -81 -24 -26 -67
-61 -96 -79 -29 -18 -51 -34 -48 -37 8 -8 99 37 138 67 20 17 40 30 44 30 11
0 -4 -140 -17 -156 -9 -11 -23 -13 -53 -9 l-41 7 40 -41 c46 -48 60 -50 89
-16 18 20 27 24 45 17 12 -4 55 -4 94 0 40 5 149 10 242 12 94 2 172 4 175 5
17 5 -44 26 -88 31 l-53 5 25 50 c45 88 35 97 -90 88 l-75 -6 11 27 c5 15 10
47 10 71 0 28 4 43 13 42 6 0 53 1 102 2 86 3 89 3 60 17 -22 10 -51 12 -107
8 -66 -6 -78 -4 -78 8 0 20 16 33 86 67 l59 29 -37 17 c-35 17 -41 17 -142 0
-58 -10 -106 -23 -106 -28 0 -9 62 -6 155 9 l40 7 -29 -32 c-17 -17 -38 -31
-48 -31 -14 0 -16 -6 -12 -29 l6 -29 -81 -7 c-45 -4 -84 -11 -87 -16 -10 -17
29 -22 88 -13 69 12 81 7 76 -32 -2 -20 -10 -30 -26 -34 l-24 -5 27 -25 27
-25 -39 -7 c-21 -4 -63 -7 -93 -8 -30 0 -50 -4 -44 -8 17 -11 31 -43 38 -89 7
-46 10 -44 -59 -47 -25 -1 -29 3 -27 19 11 64 2 234 -13 280 l-17 50 53 49 53
48 -23 19 c-32 26 -47 24 -59 -8z m371 -310 c3 -5 -1 -35 -7 -68 -12 -59 -13
-60 -48 -63 l-36 -3 21 70 c17 61 23 71 43 71 13 0 25 -3 27 -7z m-103 -68 c0
-62 -1 -65 -24 -65 -27 0 -36 21 -36 88 0 40 1 42 30 42 l30 0 0 -65z m-96 38
c3 -10 8 -38 11 -63 6 -45 6 -46 -22 -48 -27 -2 -29 1 -41 51 -17 73 -16 77
17 77 20 0 31 -6 35 -17z"/>
</g>
<g id="part-1" class="char-part">
  <path d="M335 568 c-7 -18 -24 -43 -38 -56 l-24 -23 -38 25 c-21 14 -45 26
-54 26 -16 -1 -13 -4 53 -53 25 -18 18 -27 -57 -77 -67 -46 -45 -45 42 1 30
16 56 27 59 25 9 -10 19 -136 15 -201 -6 -99 -19 -121 -68 -117 l-40 2 37 -35
c21 -19 42 -35 47 -35 6 0 23 17 38 37 27 36 28 39 28 167 0 102 -4 139 -18
170 l-17 38 50 45 c28 25 50 50 50 57 0 7 -11 18 -26 24 -23 11 -26 10 -39
-20z"/>
</g>
<g id="part-2" class="char-part">
  <path d="M245 309 c-22 -23 -67 -59 -99 -80 -70 -46 -54 -51 30 -9 72 36 125
87 115 113 -5 15 -12 12 -46 -24z"/>
</g>
<g id="part-3" class="char-part">
  <path d="M530 561 c-70 -14 -82 -19 -66 -27 13 -8 37 -7 88 3 38 8 72 12 76 9
3 -4 -7 -20 -23 -36 -16 -17 -24 -30 -18 -30 17 0 143 61 143 69 0 13 -50 31
-83 30 -18 -1 -70 -9 -117 -18z"/>
</g>
<g id="part-4" class="char-part">
  <path d="M548 479 c6 -7 12 -20 12 -30 0 -16 -58 -29 -137 -29 -37 0 -44 -15
-12 -25 19 -6 46 -4 122 11 26 5 27 4 27 -35 0 -34 -3 -41 -20 -41 -11 0 -20
-4 -20 -8 0 -13 34 -42 49 -42 17 0 33 49 29 95 -2 26 2 40 10 41 6 1 51 2
100 3 80 2 85 3 67 17 -16 12 -37 13 -102 8 -80 -7 -83 -6 -83 15 0 11 -4 21
-9 21 -5 0 -18 3 -28 6 -15 6 -16 4 -5 -7z"/>
</g>
<g id="part-5" class="char-part">
  <path d="M510 241 c0 -5 6 -12 13 -14 8 -4 8 -6 0 -6 -8 -1 -9 -11 -1 -37 5
-20 7 -42 5 -49 -3 -7 -32 -15 -64 -19 -32 -4 -67 -12 -78 -17 -15 -7 -9 -8
20 -4 22 3 94 8 160 11 66 3 126 9 133 13 8 4 -23 7 -68 5 -90 -2 -89 -3 -95
67 -1 24 -3 47 -4 52 -1 10 -21 9 -21 -2z"/>
  <path d="M603 205 c1 -39 4 -43 14 -29 7 9 10 20 8 25 -3 4 -1 10 5 14 17 11
11 35 -10 35 -17 0 -19 -6 -17 -45z"/>
  <path d="M736 127 c-16 -12 -10 -14 48 -14 40 -1 64 3 60 9 -3 5 -12 7 -20 4
-8 -3 -14 -1 -14 4 0 15 -53 12 -74 -3z"/>
</g>
</g>
</svg>