<?xml version="1.0" standalone="no"?>
<!DOCTYPE svg PUBLIC "-//W3C//DTD SVG 20010904//EN"
 "http://www.w3.org/TR/2001/REC-SVG-20010904/DTD/svg10.dtd">
<svg version="1.0" xmlns="http://www.w3.org/2000/svg"
 width="96.000000pt" height="68.000000pt" viewBox="0 0 96.000000 68.000000"
 preserveAspectRatio="xMidYMid meet">
<metadata>
Created by potrace 1.16, written by Peter Selinger 2001-2019
Combined from part_0.svg through part_5.svg with named groups
</metadata>
<g transform="translate(0.000000,68.000000) scale(0.100000,-0.100000)" fill="#000000" stroke="none">
<g id="part-0" class="char-part">
  <path d="M631 483 c1 -196 2 -183 -25 -183 -14 0 -48 -5 -78 -11 -29 -6 -64
-13 -77 -15 -15 -3 -20 -9 -14 -15 9 -9 130 3 174 16 19 6 29 -53 29 -182 0
-79 9 -103 25 -65 4 9 10 69 13 133 l4 117 30 6 c17 3 55 6 84 6 60 0 70 12
23 29 -21 7 -45 8 -76 1 -24 -6 -48 -8 -53 -5 -9 6 -5 186 6 251 4 26 1 33
-18 38 -49 13 -48 13 -47 -121z"/>
  <path d="M216 543 c4 -16 8 -44 8 -63 l1 -35 -62 -3 -63 -3 19 -27 c11 -15 22
-44 26 -65 6 -37 35 -63 43 -39 2 7 12 12 23 12 16 0 19 -7 19 -48 l0 -49 -67
-2 c-37 -1 -71 -5 -75 -7 -5 -3 3 -15 18 -26 l26 -21 61 21 c34 11 86 26 115
33 49 12 55 12 63 -4 15 -26 39 -21 39 8 0 17 -9 29 -30 40 -34 18 -54 20 -44
4 8 -13 -13 -29 -38 -29 -14 0 -18 8 -18 39 0 35 3 39 31 45 17 3 43 6 56 6
19 0 24 4 19 16 -4 10 4 30 19 50 l25 33 -22 15 c-13 9 -43 16 -72 16 l-49 0
6 45 c7 50 -7 65 -58 65 -25 0 -26 -2 -19 -27z m124 -140 c0 -25 -12 -39 -37
-47 -21 -7 -23 -4 -23 28 0 33 2 36 30 36 22 0 30 -5 30 -17z m-110 -23 c0
-16 -2 -30 -4 -30 -2 0 -11 -3 -19 -6 -10 -3 -18 5 -26 27 -6 18 -11 34 -11
35 0 2 14 4 30 4 27 0 30 -3 30 -30z"/>
  <path d="M500 502 c0 -13 49 -52 65 -52 29 0 16 38 -16 49 -38 13 -49 14 -49
3z"/>
  <path d="M480 405 c0 -20 72 -69 84 -58 15 15 3 35 -29 49 -36 15 -55 18 -55
9z"/>
</g>
<g id="part-1" class="char-part">
  <path d="M227 505 l6 -65 -67 0 -66 0 20 -20 c11 -11 20 -27 20 -35 0 -9 7
-32 15 -52 12 -28 18 -34 27 -25 7 7 20 12 30 12 15 0 18 -8 18 -46 0 -38 3
-45 18 -42 12 2 18 16 22 48 5 41 7 45 35 48 46 4 78 12 72 19 -4 3 5 22 18
42 14 19 25 39 25 42 0 16 -61 31 -101 24 l-42 -7 7 37 c4 20 9 42 12 50 5 11
-41 35 -67 35 -5 0 -6 -29 -2 -65z m116 -107 c-7 -36 -18 -48 -45 -48 -14 0
-18 9 -18 40 0 39 1 40 35 40 34 0 34 -1 28 -32z m-113 -18 c0 -36 -2 -40 -25
-40 -14 0 -25 4 -25 9 0 5 -3 23 -6 40 -6 29 -5 31 25 31 30 0 31 -2 31 -40z"/>
</g>
<g id="part-2" class="char-part">
  <path d="M330 282 c0 -16 62 -92 71 -86 13 8 11 50 -4 62 -19 16 -67 33 -67
24z"/>
</g>
<g id="part-3" class="char-part">
  <path d="M515 480 c34 -35 65 -40 65 -10 0 21 -34 40 -73 40 -19 0 -19 -2 8
-30z"/>
  <path d="M482 398 c5 -14 65 -58 79 -58 5 0 9 11 9 24 0 18 -8 27 -31 35 -42
14 -62 14 -57 -1z"/>
</g>
<g id="part-4" class="char-part">
  <path d="M630 473 c1 -76 1 -145 0 -155 0 -11 -13 -18 -42 -23 -161 -25 -173
-28 -150 -36 14 -5 56 -3 106 5 l84 13 6 -45 c3 -25 6 -85 6 -133 0 -85 9
-110 25 -71 4 9 10 69 13 132 3 69 9 118 16 122 6 4 44 8 84 8 39 0 72 4 72 9
0 18 -57 29 -105 20 -29 -5 -53 -5 -58 0 -5 5 -5 64 1 142 10 142 8 149 -36
149 -23 0 -23 0 -22 -137z"/>
</g>
</g>
</svg>