<?xml version="1.0" standalone="no"?>
<!DOCTYPE svg PUBLIC "-//W3C//DTD SVG 20010904//EN"
 "http://www.w3.org/TR/2001/REC-SVG-20010904/DTD/svg10.dtd">
<svg version="1.0" xmlns="http://www.w3.org/2000/svg"
 width="96.000000pt" height="68.000000pt" viewBox="0 0 96.000000 68.000000"
 preserveAspectRatio="xMidYMid meet">
<metadata>
Created by potrace 1.16, written by Peter Selinger 2001-2019
Combined from part_0.svg through part_5.svg with named groups
</metadata>
<g transform="translate(0.000000,68.000000) scale(0.100000,-0.100000)" fill="#000000" stroke="none">
<g id="part-0" class="char-part">
  <path d="M390 574 c-74 -7 -152 -10 -172 -7 -42 6 -48 -5 -18 -32 11 -10 20
-24 20 -32 0 -8 7 -27 15 -43 13 -25 20 -29 43 -24 15 3 97 8 182 12 l155 7
20 32 c11 17 28 34 38 36 26 8 21 42 -8 55 -32 15 -98 14 -275 -4z m198 -39
c5 -35 -18 -53 -64 -48 l-42 5 17 29 c24 43 83 52 89 14z m-128 -20 c0 -33 -2
-35 -34 -35 -26 0 -35 5 -40 23 -11 42 -7 47 34 47 39 0 40 -1 40 -35z m-105
-5 c8 -16 15 -31 15 -35 0 -3 -20 -5 -45 -5 -40 0 -47 3 -55 26 -13 33 -13 32
8 37 44 12 62 7 77 -23z"/>
  <path d="M486 432 c-2 -4 0 -33 3 -64 9 -77 24 -87 124 -88 76 0 117 11 117
31 0 6 -39 9 -102 7 -98 -3 -103 -2 -106 18 -3 22 29 36 116 50 45 7 51 14 27
34 -13 11 -24 8 -64 -14 -60 -32 -71 -33 -71 -2 0 22 -34 44 -44 28z"/>
  <path d="M259 394 c-7 -14 -33 -40 -57 -56 -33 -23 -40 -33 -32 -43 8 -10 26
-8 93 11 90 26 123 29 132 14 9 -15 35 -12 35 4 0 8 -7 22 -16 30 -18 19 -55
21 -51 4 1 -7 -17 -15 -42 -19 -23 -5 -52 -11 -62 -14 -34 -11 -20 19 21 44
30 19 37 28 28 38 -16 20 -33 16 -49 -13z"/>
  <path d="M315 280 c-16 -4 -48 -8 -70 -9 l-40 -1 -1 -83 c-1 -56 -6 -94 -17
-117 -10 -18 -15 -35 -13 -38 5 -4 62 71 68 89 2 5 31 12 66 15 l63 7 -3 -34
c-2 -28 -7 -34 -28 -36 -14 0 -29 -1 -35 -2 -5 -1 8 -13 29 -27 55 -38 62 -25
69 118 6 137 3 141 -88 118z m55 -39 c0 -24 -19 -31 -80 -31 -43 0 -48 2 -43
19 6 23 21 28 81 30 35 1 42 -2 42 -18z m-10 -66 c-14 -17 -120 -22 -120 -6 0
11 29 18 89 20 38 1 42 -1 31 -14z"/>
  <path d="M487 203 c7 -116 11 -132 41 -147 59 -30 218 -31 258 -1 16 11 16 15
-2 58 -10 26 -22 47 -25 47 -4 0 -9 -13 -12 -29 -10 -50 -31 -61 -110 -61 -85
0 -117 16 -117 58 0 27 3 28 90 46 50 10 90 22 90 26 0 4 -7 13 -15 20 -13 11
-24 8 -63 -13 -26 -14 -58 -27 -72 -29 -24 -3 -25 -1 -22 40 2 24 -1 42 -6 42
-6 0 -17 3 -25 6 -12 4 -14 -6 -10 -63z"/>
</g>
<g id="part-1" class="char-part">
  <path d="M450 575 c-74 -7 -166 -14 -205 -14 -68 -1 -69 -2 -49 -19 11 -9 29
-39 38 -65 14 -37 22 -47 35 -42 29 11 245 26 293 20 42 -6 48 -4 58 17 7 13
26 37 42 54 25 27 27 32 14 43 -23 19 -78 21 -226 6z m150 -23 c0 -5 -5 -23
-11 -41 -11 -30 -12 -31 -72 -31 -34 0 -99 -5 -145 -12 -91 -12 -98 -10 -108
39 l-6 30 99 9 c155 14 243 16 243 6z"/>
</g>
<g id="part-2" class="char-part">
  <path d="M460 519 c0 -45 11 -49 34 -14 22 33 20 42 -9 47 -23 5 -25 2 -25
-33z"/>
</g>
<g id="part-3" class="char-part">
  <path d="M260 398 c-13 -18 -31 -39 -39 -45 -9 -7 -26 -21 -38 -30 -13 -11
-20 -23 -15 -29 5 -9 34 -5 105 14 79 21 103 23 118 14 27 -17 39 -15 39 8 0
20 -27 40 -54 40 -9 0 -15 -5 -13 -12 1 -7 -22 -16 -60 -24 -35 -6 -63 -9 -63
-6 0 3 17 20 38 38 34 29 36 34 21 48 -14 15 -17 13 -39 -16z"/>
</g>
<g id="part-4" class="char-part">
  <path d="M325 280 c-16 -4 -50 -8 -75 -9 l-45 -1 0 -78 c-1 -48 -7 -93 -18
-120 -23 -57 -6 -53 26 7 28 50 50 61 130 61 26 0 28 -3 25 -32 -3 -30 -6 -33
-35 -32 -18 1 -33 0 -33 -2 0 -1 16 -15 36 -31 35 -26 37 -26 50 -8 9 12 14
45 14 89 0 39 4 85 9 102 5 17 6 36 2 42 -9 15 -51 21 -86 12z m40 -42 c0 -20
0 -20 -67 -28 -45 -6 -48 -5 -48 16 0 26 17 33 75 31 31 -2 40 -6 40 -19z m5
-57 c0 -11 -24 -19 -65 -21 -48 -3 -65 -1 -65 9 0 13 25 18 83 20 26 0 47 -3
47 -8z"/>
</g>
<g id="part-5" class="char-part">
  <path d="M488 223 c3 -21 10 -41 16 -45 8 -6 8 -8 -1 -8 -8 0 -9 -9 -3 -29 5
-18 4 -32 -1 -35 -5 -2 -4 -4 2 -2 6 1 13 26 15 56 2 30 7 63 10 73 3 9 1 17
-5 17 -5 0 -16 2 -23 5 -11 4 -13 -3 -10 -32z"/>
  <path d="M618 199 c-40 -20 -50 -34 -20 -25 9 3 37 10 61 16 33 9 41 14 30 21
-20 12 -29 11 -71 -12z"/>
  <path d="M755 140 c-5 -9 -4 -15 3 -18 14 -4 16 -32 3 -32 -5 0 -11 4 -13 9
-1 5 -12 -2 -22 -17 -12 -15 -14 -22 -5 -17 11 6 11 5 3 -4 -9 -10 -17 -10
-32 -2 -11 6 -29 11 -39 11 -15 0 -16 -2 -3 -11 12 -8 10 -10 -10 -5 -14 2
-42 8 -63 12 -21 3 -41 12 -44 20 -2 7 -11 10 -19 7 -8 -3 -11 -9 -8 -14 3 -5
9 -7 14 -4 4 3 10 -1 13 -9 4 -9 14 -13 29 -9 17 3 19 2 9 -5 -10 -7 14 -10
78 -10 105 1 157 17 142 46 -5 9 -13 28 -18 41 -7 19 -11 22 -18 11z"/>
</g>
</g>
</svg>