<?xml version="1.0" standalone="no"?>
<!DOCTYPE svg PUBLIC "-//W3C//DTD SVG 20010904//EN"
 "http://www.w3.org/TR/2001/REC-SVG-20010904/DTD/svg10.dtd">
<svg version="1.0" xmlns="http://www.w3.org/2000/svg"
 width="96.000000pt" height="68.000000pt" viewBox="0 0 96.000000 68.000000"
 preserveAspectRatio="xMidYMid meet">
<metadata>
Created by potrace 1.16, written by Peter Selinger 2001-2019
Combined from part_0.svg through part_5.svg with named groups
</metadata>
<g transform="translate(0.000000,68.000000) scale(0.100000,-0.100000)" fill="#000000" stroke="none">
<g id="part-0" class="char-part">
  <path d="M389 617 c-1 -6 0 -24 1 -38 1 -30 -18 -39 -83 -39 -27 0 -37 -4 -34
-12 2 -9 24 -13 60 -13 50 0 54 -1 46 -17 -6 -12 -21 -18 -44 -18 -18 0 -40
-3 -49 -6 -27 -10 -7 -24 35 -24 33 0 40 -3 37 -17 -2 -12 -14 -19 -33 -21
-103 -8 -135 -14 -129 -24 4 -6 29 -8 65 -5 33 3 59 1 59 -3 0 -16 -66 -64
-130 -94 -46 -22 -59 -32 -44 -34 25 -4 98 28 143 62 19 14 38 23 43 20 5 -3
8 -26 6 -51 l-3 -46 104 1 c57 1 104 2 106 4 1 2 5 28 9 59 7 71 4 73 -119 63
l-90 -7 18 21 c14 15 34 21 80 24 62 3 62 3 167 -65 99 -65 107 -69 149 -63
24 3 50 6 57 6 8 0 14 4 14 9 0 4 -33 16 -72 26 -71 17 -223 85 -203 91 6 1
40 5 78 9 37 4 67 10 67 15 0 16 -66 17 -178 3 -63 -8 -117 -12 -120 -9 -15
15 26 34 86 40 37 4 74 11 82 16 25 15 -14 23 -80 17 -49 -6 -58 -4 -54 8 4 8
27 16 62 20 85 9 104 14 99 28 -3 8 -25 11 -72 9 -57 -3 -67 -1 -62 12 7 17
-7 30 -46 45 -20 8 -27 7 -28 -2z m121 -285 c0 -15 -9 -18 -53 -19 -28 -1 -59
-3 -67 -5 -8 -2 -15 4 -15 12 0 16 37 27 98 29 29 1 37 -3 37 -17z m0 -52 c0
-16 -7 -20 -32 -20 -18 0 -50 -3 -70 -6 -34 -6 -38 -4 -38 14 0 18 7 21 48 25
26 2 57 4 70 5 16 2 22 -3 22 -18z"/>
  <path d="M559 234 c-1 -5 -2 -16 -3 -24 -1 -11 -17 -16 -61 -20 -36 -3 -55 -8
-47 -13 7 -5 18 -23 26 -41 12 -29 16 -32 53 -28 38 4 39 3 39 -27 l0 -31 -58
0 c-59 0 -73 -11 -39 -30 14 -7 36 -6 76 5 98 25 169 29 184 11 20 -24 43 -20
39 6 -2 14 -16 29 -38 40 -43 21 -54 22 -47 4 6 -15 -20 -26 -61 -26 -20 0
-23 4 -20 28 3 25 7 27 55 30 40 2 51 6 47 17 -3 8 1 22 10 31 28 27 2 47 -56
42 -36 -4 -48 -2 -48 8 0 8 -4 14 -9 14 -5 0 -16 3 -25 6 -9 3 -17 2 -17 -2z
m107 -66 c-4 -31 -66 -40 -66 -10 0 25 8 32 42 32 23 0 27 -4 24 -22z m-103
-7 c6 -25 0 -31 -29 -31 -23 0 -49 31 -37 44 3 3 19 6 34 6 18 0 28 -6 32 -19z"/>
  <path d="M265 220 c-3 -4 -3 -15 1 -23 4 -10 -5 -16 -35 -21 -22 -3 -47 -3
-55 0 -20 8 -20 6 3 -42 17 -35 23 -39 57 -39 30 0 37 -4 40 -21 4 -24 -25
-34 -98 -34 -36 0 -39 -2 -27 -16 8 -10 23 -14 38 -11 14 3 63 12 108 21 67
13 86 14 102 4 11 -7 23 -10 26 -7 10 11 -6 36 -31 47 -19 10 -24 9 -24 -3 0
-10 -10 -15 -30 -15 -25 0 -30 4 -30 25 0 23 4 25 43 25 39 0 44 3 55 32 16
44 1 61 -49 53 -27 -5 -40 -2 -46 8 -10 17 -41 29 -48 17z m3 -78 c3 -18 -1
-22 -23 -22 -29 0 -45 27 -24 41 22 14 44 6 47 -19z m102 8 c0 -16 -7 -20 -30
-20 -23 0 -30 4 -30 20 0 16 7 20 30 20 23 0 30 -4 30 -20z"/>
</g>
<g id="part-1" class="char-part">
  <path d="M392 583 l3 -38 -58 -6 c-79 -9 -84 -19 -9 -19 49 0 62 -3 62 -15 0
-18 -39 -35 -83 -35 -50 0 -18 -17 46 -25 35 -4 57 -3 57 3 0 6 24 13 53 17
28 3 66 9 82 12 27 5 28 7 10 14 -11 4 -44 5 -72 2 -44 -5 -53 -3 -53 10 0 16
17 21 107 32 29 4 55 10 58 15 8 14 -38 19 -85 10 -62 -13 -61 -13 -55 13 5
18 1 26 -20 35 -40 18 -46 15 -43 -25z"/>
</g>
<g id="part-2" class="char-part">
  <path d="M520 433 c-80 -10 -116 -11 -118 -4 -5 16 -39 13 -46 -4 -3 -10 -20
-15 -48 -16 -24 0 -61 -4 -83 -8 -60 -12 -19 -25 53 -17 l57 6 -45 -40 c-25
-21 -73 -52 -107 -67 -34 -15 -63 -31 -63 -34 0 -13 85 12 134 39 27 15 68 46
90 69 40 41 43 43 104 43 61 0 67 -2 165 -66 96 -62 105 -65 146 -60 24 3 53
6 64 6 36 0 5 16 -68 35 -38 10 -104 35 -145 56 l-75 38 45 1 c65 2 137 14
125 21 -24 15 -78 16 -185 2z"/>
</g>
<g id="part-3" class="char-part">
  <path d="M395 361 l-60 -6 0 -59 0 -60 105 1 105 1 7 58 c6 42 4 60 -5 66 -13
8 -57 8 -152 -1z m115 -29 c0 -14 -11 -17 -71 -19 -51 -2 -69 1 -66 10 4 12
48 23 105 26 24 1 32 -3 32 -17z m0 -50 c0 -10 -6 -19 -12 -19 -7 0 -39 -3
-70 -7 -54 -7 -58 -6 -58 13 0 17 8 20 58 24 31 2 63 4 70 5 6 1 12 -6 12 -16z"/>
</g>
<g id="part-4" class="char-part">
  <path d="M265 201 c5 -15 0 -21 -25 -26 -16 -4 -45 -3 -62 0 -31 7 -32 7 -17
-11 9 -11 21 -34 29 -51 12 -31 30 -45 30 -23 0 19 48 11 55 -10 9 -29 35 -25
35 5 0 23 4 25 43 25 38 1 43 4 58 36 16 32 16 35 0 44 -9 5 -36 6 -59 3 -34
-5 -42 -3 -42 11 0 11 -9 16 -26 16 -20 0 -24 -4 -19 -19z m5 -55 c0 -26 -31
-41 -49 -23 -16 16 -13 35 7 40 35 9 42 6 42 -17z m100 5 c0 -13 -9 -20 -30
-23 -26 -4 -30 -1 -30 19 0 19 5 23 30 23 23 0 30 -5 30 -19z"/>
</g>
<g id="part-5" class="char-part">
  <path d="M706 65 c16 -25 42 -36 28 -12 -4 7 -3 9 2 4 5 -5 9 -14 9 -19 0 -6
6 -13 13 -16 16 -5 16 23 -1 36 -7 6 -25 16 -40 21 -27 11 -27 11 -11 -14z"/>
</g>
</g>
</svg>