<?xml version="1.0" standalone="no"?>
<!DOCTYPE svg PUBLIC "-//W3C//DTD SVG 20010904//EN"
 "http://www.w3.org/TR/2001/REC-SVG-20010904/DTD/svg10.dtd">
<svg version="1.0" xmlns="http://www.w3.org/2000/svg"
 width="96.000000pt" height="68.000000pt" viewBox="0 0 96.000000 68.000000"
 preserveAspectRatio="xMidYMid meet">
<metadata>
Created by potrace 1.16, written by Peter Selinger 2001-2019
Combined from part_0.svg through part_5.svg with named groups
</metadata>
<g transform="translate(0.000000,68.000000) scale(0.100000,-0.100000)" fill="#000000" stroke="none">
<g id="part-0" class="char-part">
  <path d="M548 481 l4 -118 -73 -5 c-96 -7 -103 -4 -95 44 5 29 3 40 -9 44 -25
10 -17 18 40 43 56 24 60 28 47 47 -17 27 -48 24 -94 -9 -25 -18 -63 -40 -84
-49 -94 -38 -93 -38 -29 -36 l60 2 9 -42 c5 -23 6 -46 2 -50 -4 -4 -51 -9
-104 -10 -107 -4 -132 -14 -78 -32 26 -8 50 -8 92 -1 97 18 97 18 89 -36 -10
-65 -38 -116 -85 -154 -48 -39 -46 -48 7 -20 76 41 107 82 122 165 6 33 12 60
13 61 2 1 39 5 84 8 l81 6 6 -160 c3 -88 8 -163 11 -167 18 -17 29 28 33 130
2 62 6 132 9 156 l5 42 110 0 c109 0 131 8 87 31 -15 8 -51 10 -111 5 l-90 -6
5 105 c5 95 4 106 -12 115 -10 6 -27 10 -37 10 -17 0 -18 -9 -15 -119z"/>
</g>
<g id="part-1" class="char-part">
  <path d="M360 516 c-25 -19 -70 -43 -100 -55 l-55 -22 55 5 c62 6 200 62 200
81 0 13 -22 26 -43 24 -7 0 -32 -15 -57 -33z"/>
</g>
<g id="part-2" class="char-part">
  <path d="M548 482 l4 -119 -78 -6 c-43 -3 -82 -3 -87 0 -4 3 -6 22 -2 42 7 45
-11 67 -50 57 -22 -6 -23 -9 -15 -32 17 -43 12 -71 -12 -78 -13 -3 -59 -6
-103 -6 -98 0 -127 -13 -67 -29 29 -8 60 -9 104 -1 94 15 91 16 84 -31 -9 -59
-49 -132 -93 -168 -32 -27 -34 -31 -13 -25 41 11 99 54 120 90 12 18 25 58 30
90 5 31 11 58 12 59 2 1 40 5 86 8 l82 5 0 -87 c0 -116 11 -241 21 -241 16 0
29 77 29 171 0 53 3 111 6 128 l7 31 108 0 c109 0 131 8 87 31 -15 8 -50 9
-111 5 l-89 -7 3 103 c2 57 0 109 -4 116 -5 6 -20 12 -35 12 l-27 0 3 -118z"/>
</g>
</g>
</svg>