<?xml version="1.0" standalone="no"?>
<!DOCTYPE svg PUBLIC "-//W3C//DTD SVG 20010904//EN"
 "http://www.w3.org/TR/2001/REC-SVG-20010904/DTD/svg10.dtd">
<svg version="1.0" xmlns="http://www.w3.org/2000/svg"
 width="96.000000pt" height="68.000000pt" viewBox="0 0 96.000000 68.000000"
 preserveAspectRatio="xMidYMid meet">
<metadata>
Created by potrace 1.16, written by Peter Selinger 2001-2019
Combined from part_0.svg through part_5.svg with named groups
</metadata>
<g transform="translate(0.000000,68.000000) scale(0.100000,-0.100000)" fill="#000000" stroke="none">
<g id="part-0" class="char-part">
  <path d="M510 584 c0 -24 -50 -134 -78 -171 -27 -37 -14 -45 20 -11 13 13 36
22 57 24 20 1 58 7 84 14 27 7 60 9 74 5 25 -6 26 -8 19 -66 -8 -82 -30 -122
-62 -116 -36 7 -37 -6 -3 -39 l31 -29 27 33 c20 23 33 56 44 110 9 42 19 87
23 99 11 39 -30 49 -126 29 -44 -9 -89 -16 -100 -16 -19 0 -19 0 0 33 49 82
52 88 39 103 -16 19 -49 18 -49 -2z"/>
  <path d="M232 548 c14 -58 3 -252 -18 -310 -9 -27 -36 -71 -61 -98 -25 -28
-43 -54 -39 -57 17 -18 103 53 133 111 l15 28 32 -31 c17 -17 39 -31 48 -31
50 0 17 65 -38 76 -31 6 -35 9 -30 30 4 13 9 43 12 67 6 38 11 46 53 70 76 44
74 42 62 66 -20 36 -49 26 -73 -24 -21 -43 -38 -58 -38 -32 1 6 5 43 10 82 10
81 3 95 -45 95 l-33 0 10 -42z"/>
  <path d="M110 405 c0 -20 43 -85 60 -90 37 -12 54 21 27 56 -15 19 -87 47 -87
34z"/>
  <path d="M470 349 c-13 -6 -34 -8 -46 -5 -22 6 -22 4 -23 -107 -1 -123 3 -133
69 -168 41 -21 226 -24 293 -5 66 19 80 37 62 80 -7 17 -18 42 -23 56 -10 23
-11 23 -11 4 -3 -90 -59 -119 -215 -112 -131 6 -146 14 -146 77 0 53 9 61 78
61 25 0 32 4 32 20 0 11 9 35 19 54 14 25 16 37 8 45 -13 13 -63 13 -97 0z
m42 -54 c-4 -30 -9 -37 -33 -42 -47 -9 -51 -4 -39 47 5 18 15 27 36 31 39 7
41 6 36 -36z"/>
</g>
<g id="part-1" class="char-part">
  <path d="M235 427 c0 -186 -9 -219 -85 -301 -24 -25 -38 -46 -33 -46 22 0 95
66 120 107 l26 44 36 -35 c42 -41 64 -46 59 -14 -2 16 -17 29 -46 43 l-43 20
6 50 c10 78 13 84 71 116 58 33 67 52 33 70 -22 11 -38 0 -39 -26 0 -5 -12
-23 -26 -40 l-25 -30 5 92 c5 84 4 93 -13 103 -45 23 -46 19 -46 -153z"/>
  <path d="M120 389 c0 -22 42 -69 61 -69 27 0 25 44 -3 64 -26 18 -58 21 -58 5z"/>
</g>
<g id="part-2" class="char-part">
  <path d="M510 590 c0 -25 -51 -139 -81 -181 -29 -41 -19 -46 21 -12 19 16 47
28 64 29 17 1 56 7 87 14 81 19 93 12 86 -53 -3 -29 -12 -70 -21 -91 -14 -34
-19 -38 -45 -34 -25 4 -28 2 -21 -11 4 -9 18 -25 30 -36 l22 -20 27 31 c20 22
32 53 45 115 25 115 24 121 -2 135 -18 9 -39 7 -103 -8 -120 -28 -125 -25 -81
46 l36 58 -23 19 c-30 24 -41 24 -41 -1z"/>
</g>
<g id="part-3" class="char-part">
  <path d="M480 349 c-14 -6 -37 -8 -52 -5 l-28 6 0 -67 0 -66 61 7 c71 8 91 15
83 27 -3 6 4 28 15 50 12 22 19 45 16 50 -8 12 -63 11 -95 -2z m30 -47 c0 -34
-16 -52 -47 -52 -18 0 -23 6 -23 24 0 42 11 56 41 56 25 0 29 -4 29 -28z"/>
</g>
<g id="part-4" class="char-part">
  <path d="M402 165 c3 -39 10 -60 24 -70 35 -27 116 -45 201 -45 97 0 163 14
191 40 20 19 20 19 -1 75 l-20 56 -16 -48 c-23 -68 -57 -83 -181 -82 -52 0
-111 5 -130 12 -33 11 -35 14 -38 65 -2 39 -7 52 -19 52 -13 0 -15 -10 -11
-55z"/>
</g>
</g>
</svg>