<?xml version="1.0" standalone="no"?>
<!DOCTYPE svg PUBLIC "-//W3C//DTD SVG 20010904//EN"
 "http://www.w3.org/TR/2001/REC-SVG-20010904/DTD/svg10.dtd">
<svg version="1.0" xmlns="http://www.w3.org/2000/svg"
 width="96.000000pt" height="68.000000pt" viewBox="0 0 96.000000 68.000000"
 preserveAspectRatio="xMidYMid meet">
<metadata>
Created by potrace 1.16, written by Peter Selinger 2001-2019
Combined from part_0.svg through part_5.svg with named groups
</metadata>
<g transform="translate(0.000000,68.000000) scale(0.100000,-0.100000)" fill="#000000" stroke="none">
<g id="part-0" class="char-part">
  <path d="M265 563 c-10 -55 -59 -136 -126 -208 -33 -34 -59 -65 -59 -69 0 -3
11 -1 24 4 13 5 26 8 27 7 2 -1 3 0 2 2 -3 5 63 51 72 51 7 0 -1 -176 -11
-237 -6 -39 -5 -43 14 -43 12 0 49 18 84 40 59 37 64 38 86 24 12 -8 27 -12
32 -9 17 10 -12 54 -43 65 -39 13 -44 13 -29 -2 18 -18 15 -23 -15 -38 -80
-37 -93 -32 -93 35 0 32 2 34 45 41 25 3 56 4 69 0 25 -6 29 1 66 117 12 38
-20 61 -70 47 -55 -14 -100 -19 -105 -11 -2 4 2 17 10 28 11 15 29 22 75 26
62 5 79 11 67 24 -4 3 -27 2 -52 -4 -25 -6 -47 -7 -50 -4 -2 4 6 21 17 39 l20
32 49 -27 c37 -21 51 -25 60 -16 20 20 1 42 -46 55 -28 8 -47 19 -51 31 -4 14
-40 37 -59 37 -1 0 -6 -17 -10 -37z m95 -218 c0 -19 -5 -25 -22 -25 -13 0 -40
-3 -61 -7 -37 -6 -39 -5 -35 18 2 19 11 25 38 30 71 13 80 11 80 -16z m0 -57
c0 -26 -16 -35 -67 -41 -51 -6 -53 -5 -53 18 0 25 14 31 83 34 24 1 37 -3 37
-11z"/>
  <path d="M592 550 l3 -39 -45 -8 -45 -8 45 -5 c41 -5 45 -7 45 -33 1 -16 -2
-30 -5 -32 -16 -10 -96 -12 -107 -3 -13 11 -29 -17 -40 -76 -8 -40 16 -31 39
14 13 25 25 35 45 37 16 1 73 7 128 12 54 6 101 8 104 5 3 -3 0 -13 -7 -24
-17 -29 -3 -30 53 -6 l50 22 -28 19 c-31 20 -57 22 -138 11 l-56 -8 1 29 c1
26 5 29 51 37 59 11 64 14 45 26 -8 5 -32 7 -53 3 -37 -6 -38 -5 -31 22 7 29
-6 45 -40 45 -15 0 -17 -6 -14 -40z"/>
  <path d="M585 348 c-71 -14 -85 -21 -53 -26 15 -2 44 1 64 7 21 6 40 8 42 6 9
-9 -29 -55 -45 -55 -14 0 -14 -2 2 -20 10 -11 15 -23 12 -27 -4 -3 -43 -8 -87
-11 -44 -2 -80 -8 -80 -13 0 -16 47 -21 105 -10 31 6 61 8 66 5 10 -6 10 -57
0 -94 -5 -17 -15 -25 -31 -27 -14 0 -29 -1 -34 -2 -11 -1 23 -40 46 -52 43
-23 74 38 64 125 l-7 53 33 5 c18 3 61 4 95 2 65 -4 88 7 53 26 -13 7 -50 9
-103 5 -76 -6 -83 -5 -94 14 -12 19 -9 23 39 47 48 25 51 27 33 40 -21 16 -46
16 -120 2z"/>
</g>
<g id="part-1" class="char-part">
  <path d="M270 568 c0 -41 -46 -122 -114 -200 -37 -43 -63 -78 -58 -78 33 0
151 119 201 202 l22 37 39 -24 c45 -28 70 -32 70 -10 0 16 -25 29 -72 39 -16
4 -28 13 -28 21 0 14 -29 35 -49 35 -6 0 -11 -10 -11 -22z"/>
</g>
<g id="part-2" class="char-part">
  <path d="M345 170 c18 -35 52 -57 67 -42 14 14 -8 51 -38 62 -40 16 -46 12
-29 -20z"/>
</g>
<g id="part-3" class="char-part">
  <path d="M588 552 c4 -38 3 -39 -40 -49 l-43 -11 43 -1 c40 -1 42 -3 42 -30 0
-51 31 -49 44 1 5 24 12 28 56 34 65 9 65 24 0 24 -49 0 -50 1 -44 26 7 29 -7
44 -41 44 -18 0 -20 -5 -17 -38z"/>
</g>
<g id="part-4" class="char-part">
  <path d="M739 446 c-11 -11 -243 -35 -254 -26 -8 7 -18 -4 -33 -36 -12 -25
-20 -50 -17 -55 13 -20 34 -7 45 26 9 27 18 35 43 40 60 10 231 24 236 20 2
-3 -1 -16 -7 -30 l-11 -24 50 19 c27 11 52 20 54 20 3 0 5 4 5 9 0 17 -98 49
-111 37z"/>
</g>
<g id="part-5" class="char-part">
  <path d="M597 269 c7 -7 15 -10 18 -7 3 3 -2 9 -12 12 -14 6 -15 5 -6 -5z"/>
  <path d="M620 240 c0 -5 -7 -10 -15 -10 -8 0 -15 -4 -15 -10 0 -5 7 -7 15 -4
17 7 18 1 19 -74 1 -41 -3 -53 -16 -58 -19 -6 -25 -49 -8 -59 6 -3 17 1 26 9
8 9 12 16 8 16 -5 0 -3 5 4 12 16 16 16 58 0 58 -9 0 -9 3 0 12 15 15 16 55 1
64 -8 4 -3 12 12 21 13 8 16 12 7 9 -12 -3 -18 0 -18 9 0 8 -4 15 -10 15 -5 0
-10 -4 -10 -10z"/>
  <path d="M755 240 c-11 -4 -31 -6 -44 -3 -15 4 -22 2 -18 -4 4 -6 39 -11 79
-11 41 0 66 3 58 8 -28 15 -55 18 -75 10z"/>
  <path d="M453 208 c-15 -5 -13 -7 7 -9 37 -3 83 2 99 11 17 9 -82 8 -106 -2z"/>
  <path d="M550 76 c0 -2 8 -10 18 -17 15 -13 16 -12 3 4 -13 16 -21 21 -21 13z"/>
</g>
</g>
</svg>