<?xml version="1.0" standalone="no"?>
<!DOCTYPE svg PUBLIC "-//W3C//DTD SVG 20010904//EN"
 "http://www.w3.org/TR/2001/REC-SVG-20010904/DTD/svg10.dtd">
<svg version="1.0" xmlns="http://www.w3.org/2000/svg"
 width="96.000000pt" height="68.000000pt" viewBox="0 0 96.000000 68.000000"
 preserveAspectRatio="xMidYMid meet">
<metadata>
Created by potrace 1.16, written by Peter Selinger 2001-2019
Combined from part_0.svg through part_5.svg with named groups
</metadata>
<g transform="translate(0.000000,68.000000) scale(0.100000,-0.100000)" fill="#000000" stroke="none">
<g id="part-0" class="char-part">
  <path d="M388 481 l5 -119 -33 -17 c-18 -9 -44 -18 -57 -20 -24 -2 -25 -1 -18
41 5 36 3 44 -14 53 -41 22 -47 15 -43 -52 l4 -63 -73 -25 c-41 -15 -73 -30
-72 -35 6 -19 62 -25 99 -9 20 8 38 15 39 15 2 0 6 -20 9 -44 15 -95 129 -146
327 -146 139 1 299 41 299 77 0 20 -50 123 -59 123 -5 0 -14 -20 -21 -45 -11
-38 -19 -48 -55 -65 -90 -43 -359 -36 -420 12 -21 16 -25 28 -25 68 0 47 1 48
45 69 25 12 49 21 55 21 6 0 10 -26 10 -60 0 -45 3 -60 14 -60 10 0 17 17 21
58 11 93 -1 81 148 138 26 9 22 -35 -8 -98 -31 -63 -32 -77 -4 -52 34 30 121
166 115 180 -3 7 -22 16 -42 20 -29 5 -48 1 -88 -19 -28 -14 -64 -31 -80 -37
l-29 -11 6 100 c5 105 0 121 -39 121 -21 0 -21 -2 -16 -119z"/>
</g>
<g id="part-1" class="char-part">
  <path d="M236 366 l6 -63 -81 -28 c-52 -18 -77 -31 -69 -37 20 -12 65 -9 105
7 19 8 37 15 39 15 2 0 4 -20 4 -45 0 -55 25 -85 98 -118 60 -27 268 -36 376
-17 62 11 146 42 146 54 0 3 -11 27 -25 54 -14 28 -25 55 -25 62 0 24 -18 -1
-24 -34 -14 -72 -73 -95 -249 -96 -204 0 -256 21 -265 109 -4 42 -2 51 12 51
9 0 16 8 16 20 0 11 -6 20 -14 20 -11 0 -12 8 -6 37 10 41 2 58 -31 66 -18 5
-19 2 -13 -57z"/>
</g>
<g id="part-2" class="char-part">
  <path d="M385 479 l0 -122 -42 -16 c-29 -10 -43 -21 -43 -33 0 -22 -1 -22 43
-3 20 8 39 15 42 15 3 0 5 -27 5 -59 0 -57 11 -84 25 -61 3 5 9 38 13 73 l7
62 55 26 c89 42 100 44 100 17 0 -13 -13 -51 -30 -86 -16 -34 -26 -62 -22 -62
26 0 147 172 138 196 -10 26 -75 28 -125 4 -25 -12 -61 -29 -80 -37 l-34 -15
5 106 c6 110 4 116 -40 116 -15 0 -17 -14 -17 -121z"/>
</g>
</g>
</svg>