<?xml version="1.0" standalone="no"?>
<!DOCTYPE svg PUBLIC "-//W3C//DTD SVG 20010904//EN"
 "http://www.w3.org/TR/2001/REC-SVG-20010904/DTD/svg10.dtd">
<svg version="1.0" xmlns="http://www.w3.org/2000/svg"
 width="96.000000pt" height="68.000000pt" viewBox="0 0 96.000000 68.000000"
 preserveAspectRatio="xMidYMid meet">
<metadata>
Created by potrace 1.16, written by Peter Selinger 2001-2019
Combined from part_0.svg through part_5.svg with named groups
</metadata>
<g transform="translate(0.000000,68.000000) scale(0.100000,-0.100000)" fill="#000000" stroke="none">
<g id="part-0" class="char-part">
  <path d="M414 609 c-3 -5 -2 -24 2 -43 7 -39 7 -39 -94 -54 -72 -10 -62 -27
16 -26 34 0 62 -1 62 -3 0 -12 -107 -90 -160 -118 -17 -9 -29 -19 -26 -22 7
-8 124 35 156 57 54 36 53 36 46 -12 -5 -36 -3 -49 10 -62 27 -28 44 -3 44 65
0 33 2 59 5 59 3 0 29 -16 58 -35 58 -39 87 -45 87 -17 0 28 -28 48 -92 67
-32 9 -58 20 -58 25 0 4 34 11 75 15 50 5 75 12 75 20 0 18 -37 25 -97 18
l-53 -6 0 35 c0 30 -4 36 -25 40 -14 3 -28 1 -31 -3z"/>
  <path d="M548 358 c7 -7 12 -24 12 -39 0 -22 -6 -28 -31 -33 -17 -3 -42 -6
-55 -6 -13 0 -24 -4 -24 -10 0 -5 20 -10 45 -10 25 0 45 -4 45 -10 0 -5 -34
-44 -75 -85 -41 -42 -75 -78 -75 -80 0 -12 89 45 121 78 20 20 39 37 43 37 9
0 7 -59 -4 -108 -11 -47 0 -82 25 -82 18 0 29 58 22 112 -3 22 -3 56 0 75 l6
35 65 -69 c63 -64 68 -68 109 -66 69 2 71 14 7 41 -53 22 -174 111 -182 133
-2 5 5 8 15 7 10 0 43 0 72 0 76 3 52 26 -26 27 -57 0 -57 0 -58 30 0 26 -4
30 -35 32 -26 2 -31 0 -22 -9z"/>
  <path d="M282 303 c3 -35 1 -38 -27 -44 -17 -4 -47 -7 -67 -8 -21 0 -38 -6
-38 -12 0 -8 20 -10 60 -7 33 2 60 0 60 -4 0 -15 -91 -107 -127 -129 -19 -12
-32 -23 -30 -26 10 -9 74 27 120 67 l47 42 0 -69 c0 -71 10 -100 29 -89 7 4
11 39 11 87 0 43 3 79 8 79 4 0 18 -12 31 -25 24 -26 41 -25 41 1 0 8 -18 21
-40 30 -27 11 -40 22 -40 35 0 16 8 19 45 19 25 0 45 4 45 9 0 14 -35 23 -63
15 -23 -5 -26 -3 -29 28 -2 22 -9 34 -21 36 -16 3 -18 -2 -15 -35z"/>
</g>
<g id="part-1" class="char-part">
  <path d="M420 566 l0 -45 -57 -7 c-32 -4 -67 -10 -78 -14 -19 -7 -18 -8 5 -14
14 -4 46 -3 73 2 26 5 47 6 47 3 0 -13 -54 -59 -119 -100 -35 -23 -58 -41 -50
-41 19 0 114 45 149 70 l29 21 3 -58 c2 -46 7 -59 21 -61 15 -3 17 5 17 67 0
39 2 71 5 71 2 0 29 -16 59 -35 58 -37 96 -45 96 -20 0 18 -28 33 -100 56 -80
25 -73 43 20 49 95 6 91 25 -5 25 l-70 0 0 35 c0 29 -4 36 -22 38 -21 3 -23
-1 -23 -42z"/>
</g>
<g id="part-2" class="char-part">
  <path d="M280 301 l0 -40 -70 -7 c-89 -8 -93 -27 -5 -22 36 1 65 0 65 -5 0
-15 -83 -97 -128 -127 -32 -21 -40 -30 -26 -30 24 0 100 46 137 84 l26 26 3
-77 c2 -61 6 -78 18 -78 12 0 16 17 18 83 l3 82 33 -25 c18 -14 36 -22 39 -18
17 16 4 36 -33 50 -27 11 -40 22 -40 35 0 15 8 18 50 18 28 0 50 4 50 9 0 12
-52 21 -79 14 -19 -5 -22 -2 -20 18 4 29 -7 49 -27 49 -10 0 -14 -12 -14 -39z"/>
</g>
<g id="part-3" class="char-part">
  <path d="M556 331 c5 -34 4 -39 -17 -44 -13 -4 -39 -7 -56 -7 -50 0 -39 -19
13 -22 l46 -3 -40 -49 c-22 -26 -61 -66 -87 -87 -26 -21 -44 -39 -41 -39 23 0
117 60 148 94 l38 41 0 -45 c0 -25 -5 -62 -10 -82 -12 -42 0 -78 25 -78 18 0
29 58 22 112 -3 22 -3 56 0 75 l6 36 67 -73 68 -72 43 7 c24 4 48 9 52 12 4 3
-23 19 -60 38 -37 18 -90 52 -117 76 -42 37 -46 44 -30 50 11 4 41 8 68 8 40
1 47 3 37 14 -7 7 -34 11 -70 10 l-58 -3 5 29 c3 23 0 29 -20 34 -37 10 -39 9
-32 -32z"/>
</g>
</g>
</svg>