<?xml version="1.0" standalone="no"?>
<!DOCTYPE svg PUBLIC "-//W3C//DTD SVG 20010904//EN"
 "http://www.w3.org/TR/2001/REC-SVG-20010904/DTD/svg10.dtd">
<svg version="1.0" xmlns="http://www.w3.org/2000/svg"
 width="96.000000pt" height="68.000000pt" viewBox="0 0 96.000000 68.000000"
 preserveAspectRatio="xMidYMid meet">
<metadata>
Created by potrace 1.16, written by Peter Selinger 2001-2019
Combined from part_0.svg through part_5.svg with named groups
</metadata>
<g transform="translate(0.000000,68.000000) scale(0.100000,-0.100000)" fill="#000000" stroke="none">
<g id="part-0" class="char-part">
  <path d="M315 574 c-34 -8 -87 -13 -122 -10 -70 4 -80 0 -58 -24 8 -9 23 -50
33 -91 l19 -74 44 0 c40 0 44 -2 47 -27 3 -26 0 -28 -47 -34 -66 -9 -66 -24 0
-24 l50 0 -3 -32 c-3 -35 -5 -35 -107 -45 l-65 -6 28 -24 c18 -15 34 -22 45
-17 39 17 155 54 206 65 30 7 55 17 55 22 0 5 -14 7 -32 3 -99 -21 -98 -21
-98 12 0 28 3 30 45 36 58 9 58 26 -1 26 -44 0 -45 1 -42 28 3 26 5 27 54 25
l51 -2 17 57 c10 31 25 70 33 86 13 25 13 30 0 43 -21 21 -83 24 -152 7z m83
-47 c3 -25 0 -27 -33 -27 -32 0 -36 3 -33 23 3 21 30 38 53 33 6 -2 11 -15 13
-29z m-137 -8 c9 -17 8 -23 -2 -30 -19 -12 -59 -11 -59 0 0 5 -3 16 -6 24 -3
10 2 17 13 20 35 9 42 7 54 -14z m129 -58 c0 -27 -15 -41 -41 -41 -22 0 -29 5
-29 19 0 11 8 22 18 24 30 8 52 7 52 -2z m-122 -28 c-4 -22 -38 -30 -49 -11
-15 22 -10 28 22 28 24 0 30 -4 27 -17z"/>
  <path d="M620 564 c-25 -7 -60 -13 -77 -13 -32 -1 -43 -14 -23 -26 6 -4 40 1
75 10 36 9 70 13 75 10 5 -3 -7 -24 -27 -45 -28 -31 -41 -38 -59 -34 -40 10
-24 -19 25 -45 29 -16 51 0 32 23 -10 12 -1 21 58 56 39 23 71 44 71 46 0 2
-13 10 -30 19 -34 17 -58 17 -120 -1z"/>
  <path d="M700 413 c-14 -2 -65 -10 -115 -18 -49 -9 -101 -17 -115 -19 -14 -3
-27 -5 -30 -6 -3 0 2 -5 11 -10 9 -5 37 -6 68 -1 67 11 71 4 71 -140 l0 -111
-27 5 c-16 3 -37 9 -48 12 -14 5 -9 -3 15 -26 64 -62 68 -64 90 -44 18 17 20
31 20 167 0 111 -3 148 -12 149 -7 1 14 5 47 9 71 9 80 6 60 -23 -25 -35 -18
-37 36 -12 72 33 76 39 36 59 -34 16 -55 17 -107 9z"/>
</g>
<g id="part-1" class="char-part">
  <path d="M305 568 c-55 -9 -117 -14 -139 -11 l-38 6 15 -24 c9 -14 23 -55 31
-92 15 -76 20 -84 38 -70 17 13 151 23 170 12 8 -4 19 -5 24 -1 13 8 68 171
61 178 -17 17 -73 18 -162 2z m95 -43 c0 -34 -1 -35 -40 -35 -38 0 -40 1 -34
25 4 17 2 25 -7 26 -24 1 25 18 54 18 24 1 27 -2 27 -34z m-136 -1 c13 -34 6
-44 -28 -44 -33 0 -46 13 -46 46 0 20 66 19 74 -2z m127 -76 c-11 -31 -81 -40
-81 -10 0 27 8 32 51 32 36 0 38 -2 30 -22z m-111 -13 c0 -22 -4 -25 -35 -25
-31 0 -35 3 -35 25 0 22 4 25 35 25 31 0 35 -3 35 -25z"/>
</g>
<g id="part-2" class="char-part">
  <path d="M280 355 c0 -34 -1 -34 -50 -41 -70 -9 -73 -24 -6 -24 55 0 56 0 56
-29 0 -35 -12 -41 -102 -48 -38 -3 -68 -9 -68 -13 0 -4 12 -15 26 -25 23 -15
29 -15 62 -2 20 8 82 27 137 42 144 40 148 60 7 29 -32 -7 -33 -6 -30 22 3 26
8 30 51 38 62 12 60 26 -4 26 -51 0 -51 0 -47 30 4 24 1 30 -14 30 -14 0 -18
-8 -18 -35z"/>
</g>
<g id="part-3" class="char-part">
  <path d="M615 564 c-27 -7 -62 -14 -77 -14 -15 0 -29 -4 -33 -9 -11 -18 33
-21 91 -6 32 8 62 15 66 15 16 0 7 -20 -23 -55 -17 -19 -27 -35 -21 -35 11 0
152 79 152 86 0 9 -61 34 -82 33 -13 0 -45 -7 -73 -15z"/>
</g>
<g id="part-4" class="char-part">
  <path d="M550 466 c0 -3 18 -18 40 -32 43 -29 71 -23 48 9 -12 17 -88 37 -88
23z"/>
</g>
<g id="part-5" class="char-part">
  <path d="M592 340 c1 -16 4 -30 7 -30 7 0 3 -191 -4 -198 -10 -10 -50 -10 -65
1 -8 6 -1 -3 15 -19 18 -18 38 -28 50 -26 17 3 17 2 5 -7 -8 -6 -10 -11 -5
-11 6 0 18 8 26 19 13 15 16 43 15 155 -1 104 -4 135 -13 131 -7 -2 -13 0 -13
5 0 6 -4 10 -9 10 -5 0 -9 -13 -9 -30z m31 -240 c-3 -12 -8 -19 -11 -16 -5 6
5 36 12 36 2 0 2 -9 -1 -20z"/>
</g>
</g>
</svg>