<?xml version="1.0" standalone="no"?>
<!DOCTYPE svg PUBLIC "-//W3C//DTD SVG 20010904//EN"
 "http://www.w3.org/TR/2001/REC-SVG-20010904/DTD/svg10.dtd">
<svg version="1.0" xmlns="http://www.w3.org/2000/svg"
 width="96.000000pt" height="68.000000pt" viewBox="0 0 96.000000 68.000000"
 preserveAspectRatio="xMidYMid meet">
<metadata>
Created by potrace 1.16, written by Peter Selinger 2001-2019
Combined from part_0.svg through part_5.svg with named groups
</metadata>
<g transform="translate(0.000000,68.000000) scale(0.100000,-0.100000)" fill="#000000" stroke="none">
<g id="part-0" class="char-part">
  <path d="M535 578 c-4 -13 -14 -38 -23 -55 -13 -26 -23 -33 -47 -33 l-30 0 0
-123 0 -122 30 1 c17 0 68 6 115 12 116 16 167 15 173 -3 10 -24 -4 -118 -21
-152 -17 -34 -39 -41 -73 -23 -10 6 -19 7 -19 2 0 -12 58 -72 69 -72 17 0 63
43 73 69 8 22 38 172 38 193 0 21 -65 25 -195 11 -139 -14 -164 -11 -152 19 3
9 40 18 111 27 59 7 106 18 106 23 0 11 -85 6 -172 -8 -36 -6 -38 -5 -38 19 0
23 4 25 63 31 152 16 155 17 150 35 -2 10 3 23 11 30 46 38 -7 65 -90 45 -98
-23 -105 -19 -56 27 48 45 51 54 20 63 -34 9 -36 8 -43 -16z m113 -115 c-3
-30 -17 -36 -110 -46 l-58 -7 0 29 c0 28 2 29 68 38 107 16 104 16 100 -14z"/>
  <path d="M244 543 c3 -16 9 -53 12 -84 l7 -57 -52 -7 c-73 -10 -63 -35 15 -35
l34 0 0 -54 0 -53 -58 -17 c-32 -9 -66 -16 -75 -16 -9 0 -17 -7 -17 -15 0 -17
30 -35 60 -35 23 0 206 94 230 118 13 13 12 14 -15 9 -16 -3 -38 -9 -47 -12
-16 -6 -18 -1 -18 39 0 48 1 49 53 60 15 4 27 13 27 22 0 13 -9 15 -40 12
l-40 -4 0 44 c0 24 5 52 10 62 9 16 5 22 -19 35 -17 8 -40 15 -52 15 -18 0
-20 -4 -15 -27z"/>
  <path d="M620 215 c0 -11 58 -65 69 -65 23 0 11 45 -16 58 -28 12 -53 16 -53
7z"/>
  <path d="M350 199 c0 -6 -7 -26 -16 -44 -17 -37 -16 -66 4 -73 18 -6 44 64 37
99 -6 28 -25 41 -25 18z"/>
  <path d="M541 179 c29 -37 43 -41 47 -13 2 14 -5 24 -23 32 -42 19 -49 14 -24
-19z"/>
  <path d="M431 193 c1 -17 35 -66 44 -65 18 2 17 33 -1 53 -17 19 -45 26 -43
12z"/>
</g>
<g id="part-1" class="char-part">
  <path d="M245 560 c-3 -5 -1 -18 5 -29 5 -11 10 -45 10 -75 l0 -55 -37 -6
c-66 -11 -70 -20 -10 -23 l57 -3 0 -58 0 -58 -81 -24 c-80 -23 -81 -23 -59
-41 12 -10 29 -18 37 -18 18 0 233 112 233 122 0 4 -19 1 -41 -7 -23 -8 -43
-15 -45 -15 -2 0 -4 24 -4 54 l0 55 45 7 c25 3 45 10 45 14 0 14 -36 21 -66
14 l-27 -7 5 49 c3 27 9 57 13 67 6 13 -1 20 -29 32 -42 18 -43 18 -51 5z"/>
</g>
<g id="part-2" class="char-part">
  <path d="M534 583 c-3 -10 -13 -35 -24 -55 -25 -51 -7 -48 54 7 l50 44 -28 11
c-38 14 -46 13 -52 -7z"/>
</g>
<g id="part-3" class="char-part">
  <path d="M610 503 c-30 -7 -84 -12 -120 -12 -51 1 -64 -1 -61 -12 2 -8 6 -31
9 -52 2 -20 7 -39 11 -41 3 -2 56 3 116 10 61 7 116 13 123 14 7 0 10 5 7 10
-4 6 0 22 9 35 22 34 20 42 -11 52 -19 6 -46 5 -83 -4z m35 -43 c0 -26 -12
-30 -117 -44 -48 -6 -48 -5 -48 23 0 28 2 30 58 36 31 4 62 8 67 10 24 9 40
-2 40 -25z"/>
</g>
<g id="part-4" class="char-part">
  <path d="M642 188 c33 -42 58 -48 58 -15 0 19 -8 28 -31 36 -49 17 -54 14 -27
-21z"/>
  <path d="M341 166 c-24 -54 -24 -81 -1 -81 21 0 43 72 31 104 -8 25 -9 25 -30
-23z"/>
  <path d="M540 180 c23 -33 50 -40 50 -14 0 20 -28 43 -53 44 -17 0 -17 -2 3
-30z"/>
  <path d="M430 195 c0 -18 33 -65 45 -65 21 0 19 34 -3 53 -18 16 -42 23 -42
12z"/>
</g>
</g>
</svg>