<?xml version="1.0" standalone="no"?>
<!DOCTYPE svg PUBLIC "-//W3C//DTD SVG 20010904//EN"
 "http://www.w3.org/TR/2001/REC-SVG-20010904/DTD/svg10.dtd">
<svg version="1.0" xmlns="http://www.w3.org/2000/svg"
 width="96.000000pt" height="68.000000pt" viewBox="0 0 96.000000 68.000000"
 preserveAspectRatio="xMidYMid meet">
<metadata>
Created by potrace 1.16, written by Peter Selinger 2001-2019
Combined from part_0.svg through part_5.svg with named groups
</metadata>
<g transform="translate(0.000000,68.000000) scale(0.100000,-0.100000)" fill="#000000" stroke="none">
<g id="part-0" class="char-part">
  <path d="M415 568 c-14 -82 -14 -83 28 -80 36 3 37 2 37 -33 0 -25 -4 -35 -15
-35 -11 0 -14 -7 -9 -25 l6 -25 -81 0 c-45 0 -84 -1 -88 -2 -5 -2 -9 7 -11 19
-3 18 3 22 37 28 54 9 53 26 -1 23 -33 -2 -43 1 -43 12 0 9 11 16 30 18 50 6
56 24 6 20 -64 -4 -63 17 1 37 29 9 59 18 66 21 19 6 -4 44 -26 44 -10 0 -31
-14 -47 -30 -16 -17 -34 -29 -39 -29 -6 1 -24 1 -39 0 l-28 -1 20 -27 c12 -17
23 -53 27 -88 l6 -60 -66 3 c-41 2 -66 0 -66 -7 0 -16 81 -24 140 -13 30 6 56
9 58 7 14 -14 -94 -107 -173 -149 -44 -23 -47 -26 -22 -26 28 0 100 32 122 54
6 6 29 25 49 41 64 50 76 62 76 72 0 13 48 23 106 23 40 0 52 -7 146 -86 102
-85 103 -86 147 -80 24 3 50 6 57 6 28 0 13 18 -21 24 -43 8 -180 77 -220 110
l-30 25 123 1 c67 0 122 4 122 9 0 16 -60 34 -100 28 -22 -3 -43 -1 -46 4 -3
5 5 40 17 79 13 38 19 73 15 77 -11 12 -106 7 -119 -6 -8 -8 -1 -11 25 -11 34
0 57 -14 45 -26 -6 -7 -34 -12 -64 -13 -13 -1 -23 -5 -23 -11 0 -5 17 -8 38
-7 55 3 50 -25 -7 -35 -59 -10 -64 -18 -12 -18 38 0 42 -2 39 -22 -3 -21 -9
-23 -67 -26 l-64 -3 17 25 c9 14 16 41 16 61 0 34 -1 35 -40 35 -55 0 -55 27
0 36 22 4 37 11 34 16 -4 6 -19 7 -35 4 -26 -5 -29 -3 -29 19 0 36 -18 31 -25
-7z"/>
  <path d="M392 421 c-24 -48 -13 -54 19 -10 15 21 18 34 11 41 -7 7 -16 -2 -30
-31z"/>
  <path d="M420 331 c0 -12 29 -41 40 -41 17 0 20 19 4 34 -17 17 -44 21 -44 7z"/>
  <path d="M413 277 c-121 -13 -125 -32 -5 -23 134 10 182 18 176 27 -6 11 -45
10 -171 -4z"/>
  <path d="M428 223 c-32 -2 -58 -9 -58 -14 0 -12 140 -2 175 12 21 8 -5 9 -117
2z"/>
  <path d="M432 170 c-29 -4 -56 -11 -60 -15 -10 -10 171 6 183 16 11 11 -46 10
-123 -1z"/>
  <path d="M445 118 c-38 -5 -84 -8 -101 -6 l-31 4 22 -50 22 -50 99 3 c54 1
106 7 114 12 8 4 11 9 6 9 -6 0 3 13 18 29 l28 29 -23 16 c-26 17 -49 18 -154
4z m105 -30 c-1 -32 -18 -39 -96 -41 -74 -2 -79 -1 -82 20 -4 26 9 30 106 32
52 1 72 -3 72 -11z"/>
</g>
<g id="part-1" class="char-part">
  <path d="M302 555 c-18 -19 -31 -35 -29 -35 19 0 107 33 107 40 0 8 -32 30
-42 30 -2 0 -18 -16 -36 -35z"/>
</g>
<g id="part-2" class="char-part">
  <path d="M530 355 c0 -2 44 -41 97 -85 l97 -82 55 7 c84 10 84 11 -14 43 -38
13 -103 46 -143 73 -66 44 -92 57 -92 44z"/>
  <path d="M308 322 c-28 -34 -119 -103 -173 -131 -36 -19 -37 -21 -14 -21 14 0
45 10 70 23 54 27 179 126 179 142 0 22 -40 13 -62 -13z"/>
</g>
<g id="part-3" class="char-part">
  <path d="M420 334 c0 -15 22 -44 35 -44 21 0 28 19 15 35 -12 14 -50 21 -50 9z"/>
  <path d="M413 278 c-130 -14 -122 -33 10 -24 125 8 169 15 161 27 -6 11 -44
10 -171 -3z"/>
</g>
<g id="part-4" class="char-part">
  <path d="M425 223 c-27 -2 -54 -9 -60 -14 -11 -11 131 -2 175 12 27 8 -20 9
-115 2z"/>
</g>
<g id="part-5" class="char-part">
  <path d="M545 121 c-3 -5 -1 -12 4 -16 5 -3 8 -14 6 -24 -4 -24 21 -23 42 3
17 20 17 20 1 7 -20 -15 -24 -1 -5 18 10 10 9 11 -5 6 -11 -4 -18 -2 -18 4 0
13 -17 15 -25 2z"/>
  <path d="M420 110 c-18 -7 -10 -8 32 -7 31 2 60 6 64 10 10 10 -65 7 -96 -3z"/>
  <path d="M331 88 c0 -13 3 -17 6 -10 2 6 12 12 21 12 15 0 15 2 2 10 -23 15
-30 12 -29 -12z"/>
  <path d="M346 65 c-3 -9 -1 -24 6 -34 9 -15 18 -16 52 -10 23 5 69 8 104 9 35
0 62 4 62 10 0 6 -16 8 -37 5 -21 -3 -68 -7 -104 -9 -61 -5 -66 -3 -62 13 6
23 -13 37 -21 16z"/>
</g>
</g>
</svg>