<?xml version="1.0" standalone="no"?>
<!DOCTYPE svg PUBLIC "-//W3C//DTD SVG 20010904//EN"
 "http://www.w3.org/TR/2001/REC-SVG-20010904/DTD/svg10.dtd">
<svg version="1.0" xmlns="http://www.w3.org/2000/svg"
 width="96.000000pt" height="68.000000pt" viewBox="0 0 96.000000 68.000000"
 preserveAspectRatio="xMidYMid meet">
<metadata>
Created by potrace 1.16, written by Peter Selinger 2001-2019
Combined from part_0.svg through part_5.svg with named groups
</metadata>
<g transform="translate(0.000000,68.000000) scale(0.100000,-0.100000)" fill="#000000" stroke="none">
<g id="part-0" class="char-part">
  <path d="M287 520 l6 -67 -49 -9 c-60 -11 -59 -27 3 -34 40 -4 49 -9 51 -27 4
-25 -1 -27 -120 -44 -49 -7 -88 -16 -88 -21 0 -22 55 -29 121 -13 37 8 73 15
78 15 7 0 11 -26 11 -64 l0 -64 -30 11 c-29 11 -41 27 -20 27 15 0 12 19 -5
37 -22 22 -41 10 -49 -30 -3 -19 -24 -60 -46 -91 -22 -31 -36 -56 -32 -56 11
0 74 61 93 90 l17 25 143 -72 c157 -78 206 -98 259 -107 38 -7 187 12 195 24
2 4 -53 15 -123 24 -89 12 -162 30 -242 58 -63 22 -118 43 -122 47 -12 11 7
66 23 67 8 0 26 2 42 2 15 1 27 6 27 11 0 12 -32 24 -39 14 -3 -4 -13 -9 -22
-11 -12 -2 -18 7 -21 32 -3 31 -1 35 25 40 16 3 42 6 57 6 35 0 43 10 25 30
-14 16 -13 19 19 34 19 9 55 39 79 67 52 60 53 59 136 -25 55 -57 75 -64 129
-50 33 9 27 19 -23 32 -68 18 -185 102 -185 132 0 17 -19 30 -41 30 -5 0 -9
-10 -9 -22 0 -43 -85 -156 -138 -184 -15 -8 -37 -14 -50 -14 -20 0 -23 4 -20
28 3 23 9 28 46 36 58 12 56 36 -4 36 l-45 0 3 52 3 52 -37 6 -37 7 6 -67z"/>
  <path d="M600 419 c0 -5 -23 -32 -52 -60 -28 -27 -45 -49 -36 -49 8 0 23 8 34
18 10 9 36 28 56 42 41 27 48 44 22 54 -21 8 -24 8 -24 -5z"/>
  <path d="M598 305 c-25 -24 -58 -49 -74 -56 -16 -6 -24 -13 -17 -16 17 -6 173
74 173 89 0 4 -9 12 -19 17 -16 9 -26 3 -63 -34z"/>
  <path d="M673 257 c-23 -29 -108 -81 -156 -97 -53 -17 -38 -25 19 -11 51 13
194 88 194 102 0 4 -9 13 -19 19 -16 8 -23 5 -38 -13z"/>
</g>
<g id="part-1" class="char-part">
  <path d="M285 563 c3 -10 9 -39 12 -65 6 -52 6 -52 -60 -63 -50 -8 -37 -27 17
-23 40 3 41 2 44 -28 l3 -32 -88 -12 c-114 -15 -130 -19 -112 -31 19 -12 76
-11 119 1 19 6 80 17 134 26 55 8 102 17 104 19 10 9 -30 17 -68 13 -39 -3
-40 -3 -40 29 0 31 3 33 40 39 22 4 43 10 45 15 8 12 -30 21 -59 13 -26 -6
-26 -5 -26 49 0 57 -8 67 -52 67 -15 0 -18 -4 -13 -17z"/>
</g>
<g id="part-2" class="char-part">
  <path d="M204 263 c-17 -52 -30 -78 -65 -128 -46 -66 -26 -59 47 15 l51 51
117 -61 c65 -34 152 -75 194 -92 77 -31 77 -31 171 -19 51 6 100 15 108 19 9
5 -45 17 -135 30 -129 18 -168 28 -295 78 -137 53 -146 58 -141 80 4 16 0 25
-14 33 -28 15 -32 14 -38 -6z"/>
</g>
<g id="part-3" class="char-part">
  <path d="M560 570 c0 -33 -28 -79 -83 -137 -27 -29 -45 -53 -40 -53 18 0 91
58 124 99 18 23 36 41 41 41 5 0 40 -29 78 -65 70 -66 86 -72 140 -55 24 7 24
8 5 15 -11 4 -35 14 -54 21 -46 19 -163 103 -156 114 7 11 -22 40 -41 40 -8 0
-14 -9 -14 -20z"/>
</g>
<g id="part-4" class="char-part">
  <path d="M589 402 c-8 -14 -36 -43 -62 -64 -77 -60 -20 -39 71 27 45 33 52 50
23 58 -13 3 -23 -3 -32 -21z"/>
</g>
<g id="part-5" class="char-part">
  <path d="M665 240 c-11 -16 -22 -28 -25 -27 -13 3 -62 -31 -52 -37 6 -3 16 -1
24 6 7 7 35 24 61 36 46 23 57 43 26 47 -9 2 -24 -10 -34 -25z m45 10 c0 -5
-5 -10 -11 -10 -5 0 -7 5 -4 10 3 6 8 10 11 10 2 0 4 -4 4 -10z"/>
</g>
</g>
</svg>