<?xml version="1.0" standalone="no"?>
<!DOCTYPE svg PUBLIC "-//W3C//DTD SVG 20010904//EN"
 "http://www.w3.org/TR/2001/REC-SVG-20010904/DTD/svg10.dtd">
<svg version="1.0" xmlns="http://www.w3.org/2000/svg"
 width="96.000000pt" height="68.000000pt" viewBox="0 0 96.000000 68.000000"
 preserveAspectRatio="xMidYMid meet">
<metadata>
Created by potrace 1.16, written by Peter Selinger 2001-2019
Combined from part_0.svg through part_5.svg with named groups
</metadata>
<g transform="translate(0.000000,68.000000) scale(0.100000,-0.100000)" fill="#000000" stroke="none">
<g id="part-0" class="char-part">
  <path d="M278 552 c-16 -55 -67 -137 -136 -222 -51 -61 -15 -51 58 16 33 31
62 55 64 53 5 -5 -12 -228 -19 -259 -9 -35 27 -82 47 -62 20 20 30 320 11 349
-13 20 -12 26 12 67 15 25 31 49 36 52 19 11 9 45 -17 54 -38 15 -38 15 -56
-48z"/>
  <path d="M660 545 c-36 -7 -103 -13 -150 -14 l-85 -1 3 -127 c3 -123 -9 -206
-43 -288 -8 -19 -7 -19 11 -3 25 22 50 72 64 126 l11 42 53 0 c52 0 54 -1 60
-31 3 -17 6 -56 6 -85 0 -52 11 -71 23 -39 4 8 9 48 13 90 l7 75 65 0 65 0 -5
-71 c-6 -78 -17 -93 -56 -78 -14 5 -26 8 -28 7 -6 -7 68 -78 82 -78 8 0 23 8
32 17 15 14 18 48 23 232 6 266 12 257 -151 226z m98 -67 l3 -48 -34 0 c-19 0
-49 -3 -67 -7 l-33 -6 7 46 c6 36 4 47 -6 48 -34 3 42 17 82 16 l45 -2 3 -47z
m-176 10 c2 -13 1 -35 -1 -50 -3 -26 -6 -28 -52 -28 l-49 0 0 44 c0 49 6 54
62 55 31 1 37 -3 40 -21z m178 -122 l0 -44 -65 -4 -66 -3 3 40 3 40 50 6 c28
3 56 7 63 7 8 1 12 -13 12 -42z m-180 -19 l0 -44 -55 -2 -55 -2 0 39 c0 21 3
42 7 45 3 4 28 7 55 7 l48 0 0 -43z"/>
</g>
<g id="part-1" class="char-part">
  <path d="M290 578 c0 -40 -55 -141 -115 -211 -31 -38 -55 -70 -53 -73 7 -7 95
65 113 92 8 13 20 24 25 24 13 0 13 -138 -1 -217 -13 -75 -6 -116 19 -111 15
3 19 25 28 158 10 146 10 157 -8 183 l-19 27 41 61 c45 65 43 89 -6 89 -18 0
-24 -5 -24 -22z"/>
</g>
<g id="part-2" class="char-part">
  <path d="M685 549 c-16 -6 -85 -13 -152 -16 -113 -5 -121 -7 -113 -24 14 -24
12 -216 -1 -281 -6 -29 -20 -71 -30 -92 -10 -22 -17 -41 -15 -43 8 -9 66 70
76 104 6 21 16 98 22 170 9 107 14 134 27 137 26 8 152 20 206 21 l50 0 3
-150 c2 -82 0 -170 -3 -194 l-7 -43 -41 6 -42 7 40 -40 c82 -85 105 -46 105
181 0 90 5 179 10 198 9 31 8 37 -11 53 -23 19 -76 21 -124 6z"/>
</g>
<g id="part-3" class="char-part">
  <path d="M578 468 l-3 -53 -47 -3 c-64 -4 -62 -22 2 -22 l50 0 0 -39 c0 -35
-3 -39 -31 -45 -17 -3 -42 -6 -55 -6 -13 0 -24 -4 -24 -10 0 -5 24 -10 54 -10
52 0 54 -1 60 -31 3 -17 6 -56 6 -85 0 -55 13 -72 23 -32 4 13 9 53 13 90 l7
67 60 3 c40 2 62 8 65 17 3 10 -9 12 -59 10 l-64 -4 0 40 c0 37 2 40 30 43 63
5 95 13 95 24 0 7 -21 9 -66 4 l-66 -7 6 44 c6 36 4 46 -9 51 -37 14 -44 7
-47 -46z"/>
</g>
</g>
</svg>