<?xml version="1.0" standalone="no"?>
<!DOCTYPE svg PUBLIC "-//W3C//DTD SVG 20010904//EN"
 "http://www.w3.org/TR/2001/REC-SVG-20010904/DTD/svg10.dtd">
<svg version="1.0" xmlns="http://www.w3.org/2000/svg"
 width="96.000000pt" height="68.000000pt" viewBox="0 0 96.000000 68.000000"
 preserveAspectRatio="xMidYMid meet">
<metadata>
Created by potrace 1.16, written by Peter Selinger 2001-2019
Combined from part_0.svg through part_5.svg with named groups
</metadata>
<g transform="translate(0.000000,68.000000) scale(0.100000,-0.100000)" fill="#000000" stroke="none">
<g id="part-0" class="char-part">
  <path d="M570 578 c0 -7 7 -50 16 -95 9 -45 14 -89 11 -97 -4 -11 -20 -16 -47
-16 -35 0 -41 3 -38 18 2 11 -3 26 -10 35 -11 13 -8 18 24 33 34 16 35 18 18
31 -25 18 -41 16 -57 -7 -7 -10 -30 -33 -51 -49 l-37 -30 35 6 c34 5 36 4 36
-21 0 -28 -8 -34 -55 -38 -22 -2 -29 1 -27 12 5 23 -28 40 -81 40 -48 0 -49 1
-43 26 19 75 19 81 -6 87 -12 4 -34 7 -47 7 -20 0 -22 -3 -16 -22 4 -13 10
-42 12 -65 5 -41 4 -42 -30 -48 -19 -4 -43 -5 -53 -4 -25 5 -26 -3 -9 -44 7
-18 17 -45 20 -60 7 -25 10 -27 41 -21 l34 6 0 -44 c0 -35 -4 -44 -17 -45 -40
-1 -93 -10 -99 -16 -3 -3 5 -13 19 -21 20 -14 30 -14 53 -5 16 6 58 22 93 35
64 22 65 23 79 3 15 -22 32 -17 32 10 0 19 -24 44 -53 54 -15 6 -17 3 -12 -12
4 -13 0 -20 -14 -24 -26 -6 -31 0 -31 40 0 28 4 33 23 33 36 0 67 11 61 22 -3
5 2 18 11 28 13 14 23 16 43 10 15 -5 38 -8 52 -7 23 2 25 -1 21 -33 -4 -46
-5 -48 -53 -60 -38 -11 -40 -13 -24 -28 16 -16 19 -16 46 0 l30 17 0 -54 c0
-60 -9 -72 -41 -55 l-21 12 18 -32 c29 -49 41 -56 64 -35 17 15 20 31 20 94 0
86 2 90 50 121 32 20 32 21 8 16 -14 -3 -33 -9 -42 -12 -13 -5 -16 1 -16 29 0
34 1 35 46 42 26 3 50 3 54 -2 5 -4 14 -37 21 -72 12 -56 12 -64 -3 -75 -57
-40 -55 -37 -30 -31 12 3 31 8 41 11 15 4 23 -2 35 -25 37 -70 109 -131 156
-131 17 0 20 6 19 48 0 26 -4 55 -8 65 -6 15 -9 13 -24 -17 -18 -39 -31 -44
-52 -22 -24 23 -65 88 -65 102 0 7 23 35 51 62 l51 50 -26 17 c-32 21 -56 13
-56 -18 0 -13 -9 -32 -19 -41 -19 -17 -20 -17 -30 21 -19 67 -17 69 51 77 34
3 64 8 66 11 13 13 -15 20 -74 19 -47 -1 -64 3 -65 13 -1 7 -3 18 -4 23 -1 6
-3 39 -4 73 -1 58 -3 65 -26 75 -33 15 -45 15 -45 0z m-269 -239 c-3 -23 -17
-39 -33 -39 -13 0 -9 58 5 63 22 9 32 1 28 -24z m-101 -43 c-8 -8 -15 -6 -26
8 -20 28 -17 44 9 48 17 2 23 -3 25 -21 2 -13 -2 -29 -8 -35z"/>
  <path d="M708 480 c39 -37 62 -39 62 -6 0 25 -22 36 -70 36 -25 -1 -25 -1 8
-30z"/>
</g>
<g id="part-1" class="char-part">
  <path d="M207 451 l6 -71 -57 0 c-51 0 -55 -2 -46 -17 6 -10 17 -38 24 -63 8
-30 17 -44 27 -41 8 2 22 6 32 8 14 5 17 -2 17 -40 0 -40 2 -45 20 -40 16 4
20 14 20 43 0 40 13 50 73 50 17 0 26 4 22 10 -4 6 4 27 16 47 22 35 22 36 3
50 -13 10 -33 13 -61 9 -40 -5 -43 -4 -43 19 0 13 4 34 9 48 12 31 2 45 -37
53 l-31 6 6 -71z m103 -93 c0 -33 -14 -58 -31 -58 -15 0 -19 7 -19 35 0 31 3
35 25 35 14 0 25 -6 25 -12z m-100 -33 c0 -31 -3 -35 -25 -35 -22 0 -25 4 -25
35 0 31 3 35 25 35 22 0 25 -4 25 -35z"/>
</g>
<g id="part-2" class="char-part">
  <path d="M300 234 c0 -17 45 -84 57 -84 23 0 14 48 -13 69 -26 21 -44 27 -44
15z"/>
</g>
<g id="part-3" class="char-part">
  <path d="M446 447 c-47 -48 -48 -50 -20 -43 16 4 53 23 82 41 50 31 52 34 34
44 -32 17 -43 12 -96 -42z"/>
</g>
<g id="part-4" class="char-part">
  <path d="M474 422 c-6 -4 -10 -20 -10 -37 1 -26 -3 -30 -37 -36 -66 -11 -60
-21 13 -23 28 -1 30 -4 30 -45 0 -26 -6 -32 -45 -47 -25 -9 -45 -20 -45 -25 0
-17 42 -20 65 -5 l25 16 0 -55 c0 -60 -16 -79 -45 -55 -29 24 -23 5 10 -35 33
-39 34 -39 54 -21 18 16 21 31 21 102 l0 83 38 27 c35 25 28 27 -25 7 -9 -4
-13 6 -13 30 0 29 4 36 23 39 28 4 29 22 0 26 -15 2 -23 11 -25 29 -3 28 -16
37 -34 25z"/>
</g>
<g id="part-5" class="char-part">
  <path d="M574 579 c-4 -7 4 -20 17 -31 18 -14 20 -17 5 -11 -16 5 -18 3 -12
-12 3 -10 9 -45 13 -77 3 -32 11 -58 17 -59 6 0 -2 -7 -19 -14 -16 -8 -28 -15
-25 -15 25 -7 48 -5 43 3 -3 6 -1 7 5 4 5 -4 8 -17 4 -29 -3 -12 -1 -19 4 -15
5 3 10 -2 11 -11 1 -9 5 -36 8 -60 6 -35 4 -46 -11 -58 -11 -9 -13 -13 -6 -9
16 8 54 -4 47 -15 -3 -5 2 -17 12 -27 10 -10 24 -31 32 -46 8 -15 22 -29 33
-33 10 -3 18 -9 18 -13 0 -5 14 -14 31 -21 26 -11 32 -11 40 1 5 8 7 20 4 27
-3 8 -5 23 -5 35 -1 22 -1 22 -18 2 -10 -11 -23 -21 -29 -22 -15 -3 -78 59
-78 77 0 8 -5 14 -11 13 -7 -1 -10 6 -7 17 3 12 0 20 -7 20 -7 0 6 16 29 36
31 28 39 40 31 50 -9 9 -7 11 8 7 20 -5 40 13 27 25 -3 3 -10 0 -15 -8 -9 -14
-14 -7 -11 13 0 4 -5 7 -12 7 -9 0 -13 -11 -12 -30 1 -16 -2 -27 -6 -24 -4 2
-15 -6 -23 -18 -19 -26 -28 -19 -46 39 -14 47 -8 78 16 69 8 -3 12 -2 9 4 -3
5 7 8 23 5 40 -4 62 10 28 19 -15 4 -40 0 -59 -8 l-34 -14 -2 77 c-1 42 -7 78
-12 79 -6 3 -6 9 1 17 7 9 6 16 -7 26 -13 11 -17 11 -20 2 -3 -7 -9 -13 -15
-13 -6 0 -8 7 -4 15 6 18 0 20 -10 4z m106 -350 c0 -6 -4 -7 -10 -4 -5 3 -10
11 -10 16 0 6 5 7 10 4 6 -3 10 -11 10 -16z m113 -169 c6 0 7 -3 4 -6 -7 -8
-77 43 -77 56 0 4 14 -5 31 -21 17 -16 36 -29 42 -29z m30 -5 c-3 -9 -8 -14
-10 -11 -3 3 -2 9 2 15 9 16 15 13 8 -4z"/>
  <path d="M695 500 c3 -5 12 -7 20 -3 21 7 19 13 -6 13 -11 0 -18 -4 -14 -10z"/>
  <path d="M728 493 c-35 -9 -18 -29 21 -24 8 2 10 -3 6 -11 -6 -10 -5 -10 4 -2
11 10 5 45 -8 43 -3 -1 -14 -3 -23 -6z"/>
</g>
</g>
</svg>