<?xml version="1.0" standalone="no"?>
<!DOCTYPE svg PUBLIC "-//W3C//DTD SVG 20010904//EN"
 "http://www.w3.org/TR/2001/REC-SVG-20010904/DTD/svg10.dtd">
<svg version="1.0" xmlns="http://www.w3.org/2000/svg"
 width="96.000000pt" height="68.000000pt" viewBox="0 0 96.000000 68.000000"
 preserveAspectRatio="xMidYMid meet">
<metadata>
Created by potrace 1.16, written by Peter Selinger 2001-2019
Combined from part_0.svg through part_5.svg with named groups
</metadata>
<g transform="translate(0.000000,68.000000) scale(0.100000,-0.100000)" fill="#000000" stroke="none">
<g id="part-0" class="char-part">
  <path d="M237 496 l6 -84 -29 -6 c-16 -3 -46 -8 -66 -12 -57 -10 -46 -23 23
-26 l60 -3 -41 -65 c-23 -36 -58 -82 -78 -102 -34 -36 -35 -38 -13 -38 14 0
44 22 83 60 l60 61 -6 -43 c-17 -124 -17 -163 -3 -182 9 -12 20 -17 31 -13 12
5 16 21 17 74 1 37 4 92 7 122 6 48 9 52 21 38 20 -25 41 -21 41 9 0 19 -7 28
-30 37 -51 19 -37 67 21 67 10 0 19 7 19 15 0 17 -43 31 -61 20 -8 -5 -10 1
-6 21 20 102 20 110 -8 122 -52 24 -55 20 -48 -72z"/>
  <path d="M452 519 l3 -54 -42 -3 c-54 -4 -57 -22 -4 -22 48 0 64 -26 25 -40
-14 -6 -33 -10 -41 -10 -40 0 1 -13 59 -19 3 -1 4 -10 1 -21 -4 -15 -14 -20
-40 -20 -25 0 -32 -3 -27 -12 6 -10 5 -10 -7 -1 -13 10 -16 10 -16 -2 0 -18
54 -30 71 -16 16 14 26 4 26 -26 0 -36 18 -27 26 13 4 20 14 38 23 41 9 2 25
9 36 14 16 7 13 8 -12 4 -18 -2 -33 -1 -34 3 0 4 -2 15 -4 25 -3 13 4 17 31
17 19 0 34 5 34 10 0 6 -16 10 -35 10 -28 0 -35 4 -35 19 0 14 10 21 38 27
l37 8 -35 5 c-34 6 -35 7 -32 49 2 23 -1 42 -7 42 -5 0 -17 3 -26 6 -14 6 -16
-1 -13 -47z"/>
  <path d="M663 478 c-60 -10 -87 -28 -43 -28 35 0 33 -27 -3 -82 -41 -60 -40
-77 1 -33 46 50 74 95 69 109 -4 9 4 15 23 18 41 6 49 -6 38 -55 -13 -58 -35
-90 -59 -84 -22 6 -23 3 -9 -24 14 -25 42 -24 67 4 20 22 69 165 59 174 -10
10 -84 11 -143 1z"/>
  <path d="M538 255 c4 -33 3 -35 -27 -36 -17 -1 -35 -3 -41 -4 -5 -1 -35 -3
-66 -4 -40 -1 -54 -5 -51 -13 4 -15 65 -16 140 -3 l48 8 -12 -29 c-19 -43 -48
-73 -104 -105 -55 -32 -42 -39 20 -10 56 25 102 67 126 112 l19 39 108 1 c59
1 117 0 130 -1 31 -2 27 15 -7 29 -21 9 -48 10 -105 2 -98 -14 -119 -14 -111
0 10 15 -24 49 -50 49 -18 0 -20 -5 -17 -35z"/>
  <path d="M630 162 c0 -5 10 -17 23 -25 12 -9 42 -34 67 -56 25 -22 50 -41 56
-41 22 0 23 29 3 54 -26 34 -149 89 -149 68z"/>
</g>
<g id="part-1" class="char-part">
  <path d="M238 548 c4 -18 7 -58 7 -88 l0 -55 -62 -9 c-78 -11 -82 -26 -8 -26
30 0 55 -4 55 -8 0 -14 -73 -123 -109 -164 -28 -32 -29 -36 -10 -31 23 6 85
63 112 102 9 14 18 23 21 20 2 -2 -2 -47 -9 -99 -11 -92 -6 -150 16 -150 20 0
29 46 29 154 0 116 7 138 28 91 13 -29 27 -32 36 -9 8 21 0 33 -30 44 -50 19
-40 62 17 74 37 7 29 26 -12 26 l-30 0 7 69 6 68 -32 12 c-18 6 -34 11 -36 11
-2 0 0 -15 4 -32z"/>
</g>
<g id="part-2" class="char-part">
  <path d="M450 528 c11 -59 5 -68 -46 -68 -24 0 -44 -4 -44 -10 0 -5 20 -10 45
-10 38 0 45 -3 45 -20 0 -14 -9 -21 -36 -26 -29 -5 -33 -9 -20 -16 9 -5 25 -6
36 -3 16 5 20 2 20 -14 0 -30 38 -28 42 2 2 17 11 23 36 25 43 4 41 22 -3 22
-28 0 -35 4 -35 19 0 14 10 20 41 25 48 8 47 14 -2 20 -33 3 -34 5 -31 41 4
39 -8 55 -39 55 -14 0 -15 -7 -9 -42z"/>
</g>
<g id="part-3" class="char-part">
  <path d="M650 437 c0 -7 -15 -39 -34 -70 -42 -69 -17 -63 39 10 40 52 44 73
15 73 -11 0 -20 -6 -20 -13z"/>
</g>
<g id="part-4" class="char-part">
  <path d="M540 256 c0 -32 -2 -34 -46 -40 -26 -3 -71 -6 -100 -6 -30 0 -54 -4
-54 -10 0 -18 53 -23 121 -10 38 7 72 11 75 8 10 -10 -24 -65 -58 -93 -18 -16
-51 -37 -73 -47 l-40 -19 35 6 c71 14 158 81 181 142 8 22 12 23 139 23 71 0
130 4 130 9 0 23 -59 33 -129 22 -96 -15 -124 -14 -118 3 7 17 -23 46 -46 46
-13 0 -17 -9 -17 -34z"/>
  <path d="M692 105 c40 -35 79 -65 86 -65 20 0 13 45 -10 67 -23 20 -117 63
-138 63 -6 0 22 -29 62 -65z"/>
</g>
</g>
</svg>