<?xml version="1.0" standalone="no"?>
<!DOCTYPE svg PUBLIC "-//W3C//DTD SVG 20010904//EN"
 "http://www.w3.org/TR/2001/REC-SVG-20010904/DTD/svg10.dtd">
<svg version="1.0" xmlns="http://www.w3.org/2000/svg"
 width="96.000000pt" height="68.000000pt" viewBox="0 0 96.000000 68.000000"
 preserveAspectRatio="xMidYMid meet">
<metadata>
Created by potrace 1.16, written by Peter Selinger 2001-2019
Combined from part_0.svg through part_5.svg with named groups
</metadata>
<g transform="translate(0.000000,68.000000) scale(0.100000,-0.100000)" fill="#000000" stroke="none">
<g id="part-0" class="char-part">
  <path d="M309 573 c-9 -2 -21 -21 -28 -42 -15 -53 -60 -130 -82 -144 -11 -7
-19 -16 -19 -22 0 -5 -21 -31 -47 -57 -62 -63 -34 -65 42 -3 l55 45 0 -77 c0
-43 -6 -101 -14 -128 -14 -53 -9 -82 17 -103 25 -21 31 2 43 158 9 119 9 148
-2 161 -8 8 -14 19 -14 23 0 9 65 101 87 124 7 7 13 19 13 26 0 19 -32 43 -51
39z"/>
  <path d="M515 498 c-176 -25 -171 -24 -151 -44 13 -13 16 -42 16 -162 0 -165
6 -183 67 -209 50 -20 182 -27 292 -14 101 11 126 22 93 40 -14 7 -43 8 -94 1
-83 -11 -258 -13 -283 -4 -33 13 -44 56 -39 155 6 116 22 199 37 200 7 0 21 2
32 4 11 2 86 9 167 16 122 10 146 15 137 26 -16 18 -102 15 -274 -9z"/>
  <path d="M633 440 c-12 -5 -49 -12 -82 -16 -51 -5 -58 -9 -50 -23 5 -9 13 -28
19 -43 8 -25 15 -28 52 -28 24 0 59 3 80 6 32 6 37 11 43 40 3 19 10 34 15 34
16 0 11 27 -6 34 -21 8 -44 7 -71 -4z m27 -37 c0 -35 -17 -47 -67 -47 -45 -1
-48 1 -48 24 0 21 6 26 40 31 69 11 75 10 75 -8z"/>
  <path d="M705 279 c-22 -5 -47 -8 -56 -6 -15 4 -15 2 -3 -22 8 -14 14 -31 14
-38 0 -6 5 -24 10 -38 8 -20 14 -24 23 -17 7 6 30 12 52 14 35 3 41 7 50 34 6
17 16 39 24 48 8 9 11 19 8 22 -11 11 -83 13 -122 3z m55 -54 c0 -33 -2 -35
-34 -35 -26 0 -35 5 -40 23 -11 42 -7 47 34 47 39 0 40 -1 40 -35z"/>
  <path d="M538 265 c-3 -3 -23 -7 -44 -10 -27 -2 -38 -8 -35 -17 2 -7 8 -31 14
-53 12 -49 13 -50 29 -37 7 6 29 12 48 14 29 2 36 8 38 28 2 14 8 31 14 37 17
21 1 43 -30 43 -16 0 -31 -2 -34 -5z m22 -49 c0 -29 -4 -34 -27 -39 -34 -6
-33 -7 -36 29 -2 22 3 29 23 35 39 11 40 11 40 -25z"/>
</g>
<g id="part-1" class="char-part">
  <path d="M290 549 c0 -41 -56 -135 -122 -205 -38 -39 -68 -75 -68 -79 0 -10
52 24 94 63 30 27 37 30 43 17 7 -20 -4 -167 -17 -217 -12 -42 1 -88 24 -88
16 0 22 37 31 211 4 87 3 108 -10 119 -13 11 -8 23 39 90 51 74 53 80 37 94
-25 23 -51 20 -51 -5z"/>
</g>
<g id="part-2" class="char-part">
  <path d="M510 498 c-85 -12 -157 -22 -159 -24 -2 -2 4 -10 13 -19 13 -14 16
-41 16 -160 0 -83 5 -154 11 -168 17 -37 71 -57 173 -64 91 -6 263 11 280 27
19 19 -31 28 -99 20 -93 -12 -272 -12 -294 0 -37 19 -44 60 -32 187 16 169 9
158 99 171 42 6 121 14 175 18 65 5 96 11 94 18 -6 18 -111 16 -277 -6z"/>
</g>
<g id="part-3" class="char-part">
  <path d="M628 440 c-9 -6 -43 -13 -76 -16 l-59 -7 18 -46 c19 -50 12 -48 122
-36 44 5 57 10 57 23 0 10 7 28 16 40 12 18 13 26 4 37 -14 17 -57 19 -82 5z
m32 -45 c0 -31 -29 -47 -78 -43 -32 3 -37 7 -40 30 -3 24 0 27 35 31 84 8 83
9 83 -18z"/>
</g>
<g id="part-4" class="char-part">
  <path d="M720 279 c-14 -6 -40 -9 -57 -7 -18 2 -33 0 -33 -4 0 -4 4 -8 9 -8 5
0 14 -23 21 -50 12 -51 24 -68 35 -50 3 5 19 10 35 10 37 0 60 9 60 24 0 6 9
28 20 48 17 32 17 37 4 42 -23 9 -65 6 -94 -5z m40 -48 c0 -34 -3 -39 -27 -44
-34 -7 -41 -1 -49 40 -6 31 -5 32 32 36 22 2 40 4 42 5 1 1 2 -15 2 -37z"/>
</g>
</g>
</svg>