<?xml version="1.0" standalone="no"?>
<!DOCTYPE svg PUBLIC "-//W3C//DTD SVG 20010904//EN"
 "http://www.w3.org/TR/2001/REC-SVG-20010904/DTD/svg10.dtd">
<svg version="1.0" xmlns="http://www.w3.org/2000/svg"
 width="96.000000pt" height="68.000000pt" viewBox="0 0 96.000000 68.000000"
 preserveAspectRatio="xMidYMid meet">
<metadata>
Created by potrace 1.16, written by Peter Selinger 2001-2019
Combined from part_0.svg through part_5.svg with named groups
</metadata>
<g transform="translate(0.000000,68.000000) scale(0.100000,-0.100000)" fill="#000000" stroke="none">
<g id="part-0" class="char-part">
  <path d="M531 569 c14 -62 8 -69 -56 -69 -35 0 -54 -4 -50 -10 3 -5 31 -10 61
-10 50 0 54 -2 54 -24 0 -28 -16 -36 -73 -36 -34 -1 -39 -3 -24 -11 10 -6 35
-9 55 -7 34 3 37 1 37 -22 0 -21 -6 -26 -39 -31 -30 -5 -43 -2 -57 12 -26 26
-98 61 -110 53 -6 -3 -9 -14 -6 -24 3 -13 -2 -20 -20 -25 -14 -3 -27 -4 -30
-1 -2 2 7 41 21 86 14 44 26 87 26 95 0 17 -31 35 -59 35 -19 0 -20 -4 -15
-44 8 -52 -12 -177 -29 -188 -7 -4 -38 -8 -69 -8 -63 0 -72 -10 -32 -36 20
-14 32 -15 60 -6 l35 10 -7 -34 c-5 -29 -3 -35 19 -45 45 -21 40 -36 -29 -81
-58 -38 -63 -43 -40 -46 25 -3 104 36 126 63 10 13 18 10 48 -15 42 -34 57
-37 67 -13 5 13 -4 27 -29 49 l-36 31 20 48 c11 25 20 53 20 60 0 13 29 35 44
35 11 0 6 -69 -6 -95 -16 -35 -5 -40 49 -23 40 13 49 13 51 2 9 -36 -56 -118
-138 -177 l-25 -18 29 6 c46 10 110 61 142 115 16 27 32 50 35 50 4 0 26 -25
49 -55 23 -30 58 -69 77 -85 30 -27 41 -30 98 -30 35 0 66 4 69 9 3 4 -26 20
-64 34 -95 35 -231 140 -215 166 3 6 39 11 81 11 l75 0 -3 -27 c-2 -23 -8 -28
-30 -28 -34 1 -35 -5 -2 -40 24 -26 26 -26 45 -10 10 10 19 22 19 27 0 5 9 27
19 49 19 39 19 39 -1 50 -18 10 -115 6 -175 -7 -20 -4 -23 0 -23 26 0 27 3 30
34 30 69 0 90 10 114 53 29 52 19 60 -71 52 -67 -5 -68 -5 -65 17 3 20 11 24
58 31 91 14 101 17 94 29 -5 7 -30 8 -75 4 l-68 -6 -3 42 c-3 40 -5 43 -35 46
l-31 3 9 -42z m139 -174 c0 -19 -5 -25 -22 -25 -13 0 -33 -3 -45 -6 -20 -6
-23 -3 -23 25 0 30 1 31 45 31 41 0 45 -2 45 -25z m-364 -120 c-16 -42 -18
-43 -45 -34 -27 10 -28 12 -18 45 8 26 18 36 41 42 39 11 42 2 22 -53z m222
28 c-3 -24 -8 -28 -40 -31 -28 -2 -38 1 -38 12 0 34 13 46 47 46 32 0 34 -2
31 -27z"/>
</g>
<g id="part-1" class="char-part">
  <path d="M252 549 c6 -39 -9 -165 -23 -191 -8 -14 -22 -18 -69 -18 -32 0 -61
-4 -65 -9 -11 -19 36 -33 83 -26 41 6 44 5 37 -12 -17 -42 -16 -48 20 -67 l35
-19 -22 -24 c-12 -13 -45 -37 -73 -53 -27 -16 -43 -30 -35 -30 20 0 94 35 131
61 l30 21 28 -26 c32 -30 61 -34 61 -8 0 20 -24 45 -52 55 -15 5 -14 11 7 64
12 32 25 66 28 76 4 9 16 17 27 17 30 0 24 13 -16 33 -46 23 -54 22 -54 -8 0
-22 -4 -25 -34 -25 l-34 0 22 73 c13 39 26 81 30 93 7 23 -5 37 -43 49 -22 7
-23 5 -19 -26z m78 -221 c0 -7 -9 -32 -20 -56 -17 -38 -23 -43 -42 -37 -13 4
-27 11 -32 16 -13 12 14 70 38 79 31 13 56 12 56 -2z"/>
</g>
<g id="part-2" class="char-part">
  <path d="M527 583 c4 -15 7 -39 8 -53 0 -23 -3 -25 -57 -28 -77 -4 -74 -22 3
-22 l62 0 -7 -95 c-11 -158 -59 -249 -169 -316 -32 -19 -32 -19 -6 -19 53 0
153 89 183 163 2 7 16 -3 32 -23 16 -19 51 -59 78 -87 l49 -53 68 0 c37 0 70
4 73 9 4 5 -27 21 -66 36 -77 29 -114 53 -179 115 -33 31 -39 42 -34 63 4 14
10 68 13 119 l7 93 75 12 c41 6 76 12 78 12 2 1 0 6 -4 12 -4 8 -29 9 -75 5
l-68 -7 -3 43 c-3 41 -5 43 -36 46 -31 3 -32 2 -25 -25z"/>
</g>
<g id="part-3" class="char-part">
  <path d="M600 439 c-25 -5 -73 -12 -108 -15 -43 -5 -60 -10 -53 -17 7 -7 37
-6 93 1 125 18 138 17 138 -12 0 -22 -5 -25 -57 -32 -32 -5 -88 -8 -125 -9
l-68 0 0 -37 c0 -20 -4 -40 -10 -43 -15 -9 -12 -45 4 -45 7 0 33 7 57 16 24 9
90 18 147 21 l104 6 -4 -29 c-3 -26 -7 -29 -36 -27 -33 1 -33 1 -15 -20 39
-47 46 -48 70 -19 13 15 23 32 23 37 0 6 6 22 14 37 12 23 12 29 -1 39 -11 10
-45 9 -164 -5 -83 -10 -153 -16 -156 -12 -3 3 -3 16 1 29 5 23 11 25 108 31
114 8 150 14 143 25 -2 4 5 22 16 41 16 26 18 35 7 41 -16 10 -67 9 -128 -2z"/>
</g>
</g>
</svg>