<?xml version="1.0" standalone="no"?>
<!DOCTYPE svg PUBLIC "-//W3C//DTD SVG 20010904//EN"
 "http://www.w3.org/TR/2001/REC-SVG-20010904/DTD/svg10.dtd">
<svg version="1.0" xmlns="http://www.w3.org/2000/svg"
 width="96.000000pt" height="68.000000pt" viewBox="0 0 96.000000 68.000000"
 preserveAspectRatio="xMidYMid meet">
<metadata>
Created by potrace 1.16, written by Peter Selinger 2001-2019
Combined from part_0.svg through part_5.svg with named groups
</metadata>
<g transform="translate(0.000000,68.000000) scale(0.100000,-0.100000)" fill="#000000" stroke="none">
<g id="part-0" class="char-part">
  <path d="M719 559 c-13 -12 -51 -35 -84 -51 l-60 -29 46 6 c37 5 48 3 53 -10
16 -43 1 -65 -45 -65 -11 0 -17 -4 -14 -10 3 -5 22 -10 41 -10 33 0 34 -1 34
-39 0 -43 -10 -51 -63 -51 -18 0 -38 -4 -45 -9 -22 -14 15 -23 65 -15 l43 6
-1 -53 c-1 -30 -4 -67 -8 -84 -6 -27 -10 -30 -40 -27 l-34 2 34 -39 c19 -22
40 -40 47 -40 26 -2 52 80 52 167 l0 82 43 0 c47 0 77 13 58 24 -6 4 -28 6
-49 5 -49 -4 -58 3 -60 45 -1 31 2 35 35 43 52 12 55 33 4 33 -32 0 -41 4 -41
17 0 9 -7 24 -15 33 -15 16 -13 19 24 33 48 20 58 33 32 46 -26 14 -24 14 -52
-10z"/>
  <path d="M253 536 c-28 -23 -67 -45 -113 -64 -23 -10 -22 -11 15 -11 92 -2 88
-70 -3 -71 -15 0 -22 -5 -19 -12 3 -8 21 -12 51 -11 46 1 46 1 46 -31 0 -33 0
-33 -70 -45 -38 -7 -70 -17 -70 -22 0 -14 47 -22 96 -14 l46 7 -7 -54 c-8 -65
-24 -85 -53 -69 -44 23 -44 9 -2 -34 24 -25 52 -45 61 -45 22 0 46 62 53 138
7 78 10 82 47 82 50 0 32 32 -20 34 -22 1 -27 6 -29 34 -3 30 -1 32 27 32 16
0 33 5 37 11 9 16 -16 30 -44 25 -16 -2 -25 2 -29 13 -2 9 -8 23 -13 32 -7 13
0 20 31 34 45 21 49 37 14 53 -21 10 -29 8 -52 -12z"/>
  <path d="M457 497 c16 -19 46 -62 67 -95 31 -51 42 -62 64 -62 15 0 33 4 41 9
11 7 7 12 -15 24 -35 19 -69 51 -119 111 -20 25 -44 46 -52 46 -10 0 -6 -10
14 -33z"/>
  <path d="M397 453 c-4 -3 -7 -15 -7 -25 0 -10 -4 -18 -10 -18 -5 0 -10 -5 -10
-12 0 -6 -7 -20 -17 -30 -33 -36 -5 -28 41 13 48 43 56 63 30 73 -19 7 -19 7
-27 -1z"/>
  <path d="M421 334 c-24 -7 -48 -11 -54 -7 -6 3 -7 1 -3 -5 4 -7 16 -12 27 -12
10 0 19 -6 19 -12 -1 -25 -38 -95 -70 -131 -39 -45 -24 -49 25 -5 40 34 89
122 81 143 -5 14 20 25 42 18 15 -6 15 -52 -2 -123 -11 -46 -16 -55 -34 -54
-12 0 -22 -5 -22 -12 0 -14 27 -44 40 -44 18 0 42 56 62 146 19 82 20 97 7
105 -19 12 -66 10 -118 -7z"/>
</g>
<g id="part-1" class="char-part">
  <path d="M259 534 c-7 -8 -38 -29 -68 -44 l-56 -29 38 -1 c31 0 39 -5 47 -26
14 -35 6 -44 -41 -44 -21 0 -39 -4 -39 -10 0 -5 20 -10 45 -10 45 0 45 0 45
-34 0 -38 -4 -40 -82 -52 -27 -3 -48 -10 -48 -14 0 -14 49 -20 90 -11 l40 9
-1 -42 c-2 -73 -11 -91 -47 -90 l-32 2 31 -39 c17 -21 37 -39 45 -39 24 0 47
62 52 143 l5 77 33 0 c18 0 35 4 38 9 7 11 -17 21 -50 21 -19 0 -24 5 -24 25
0 14 0 28 -1 32 0 4 14 11 30 16 42 10 39 27 -4 27 -29 0 -35 4 -35 21 0 12
-8 28 -17 35 -16 11 -13 14 25 29 43 18 54 38 26 49 -23 9 -30 8 -45 -10z"/>
</g>
<g id="part-2" class="char-part">
  <path d="M430 531 c0 -4 9 -16 20 -26 11 -10 40 -51 66 -91 38 -62 50 -74 72
-74 51 0 56 15 14 43 -22 14 -63 53 -92 86 -49 56 -80 80 -80 62z"/>
  <path d="M385 423 c-9 -21 -23 -45 -32 -55 -9 -10 -13 -21 -10 -24 3 -3 27 14
53 38 33 31 45 50 41 62 -11 28 -36 18 -52 -21z"/>
</g>
<g id="part-3" class="char-part">
  <path d="M400 271 c-6 -22 -28 -62 -50 -89 -29 -38 -34 -49 -20 -45 29 8 69
52 96 105 29 57 30 68 4 68 -14 0 -22 -11 -30 -39z"/>
</g>
<g id="part-4" class="char-part">
  <path d="M715 558 c-11 -11 -47 -34 -80 -50 l-60 -29 47 7 c47 6 47 6 56 -27
9 -37 0 -47 -46 -48 -14 -1 -20 -5 -17 -12 4 -6 21 -9 38 -7 31 3 32 1 35 -36
4 -46 -4 -52 -72 -62 -39 -5 -46 -8 -32 -16 10 -6 38 -7 62 -3 l44 6 -1 -58
c-2 -91 -9 -108 -47 -106 l-33 1 33 -38 c18 -21 39 -39 46 -39 22 -2 43 68 49
160 l6 88 49 3 c62 4 63 22 1 26 -52 4 -63 13 -63 54 0 23 6 29 40 38 22 6 40
16 40 22 0 7 -14 8 -40 4 -37 -6 -40 -5 -40 18 0 13 -7 29 -16 37 -14 11 -10
16 32 37 45 23 47 25 29 38 -25 18 -36 17 -60 -8z"/>
</g>
</g>
</svg>