<?xml version="1.0" standalone="no"?>
<!DOCTYPE svg PUBLIC "-//W3C//DTD SVG 20010904//EN"
 "http://www.w3.org/TR/2001/REC-SVG-20010904/DTD/svg10.dtd">
<svg version="1.0" xmlns="http://www.w3.org/2000/svg"
 width="96.000000pt" height="68.000000pt" viewBox="0 0 96.000000 68.000000"
 preserveAspectRatio="xMidYMid meet">
<metadata>
Created by potrace 1.16, written by Peter Selinger 2001-2019
Combined from part_0.svg through part_5.svg with named groups
</metadata>
<g transform="translate(0.000000,68.000000) scale(0.100000,-0.100000)" fill="#000000" stroke="none">
<g id="part-0" class="char-part">
  <path d="M419 623 c-1 -5 0 -33 1 -64 2 -56 1 -56 -30 -63 -18 -3 -46 -6 -62
-6 -28 0 -29 2 -22 35 5 31 3 36 -21 45 -36 14 -38 13 -31 -12 3 -13 0 -40 -6
-61 -9 -31 -9 -40 4 -53 14 -14 20 -14 62 0 82 28 95 19 47 -33 -24 -26 -37
-31 -74 -31 l-44 0 23 -47 c13 -25 24 -56 24 -67 0 -30 12 -45 35 -43 61 6
-48 -117 -152 -172 -27 -14 -32 -20 -18 -21 60 -1 235 135 235 184 0 15 6 22
20 22 24 0 27 -13 33 -105 4 -72 20 -93 85 -111 82 -22 271 -2 294 32 4 7 5
24 2 38 -3 14 -8 33 -10 44 -6 30 -12 30 -19 -2 -3 -16 -17 -40 -31 -53 -22
-21 -37 -24 -116 -28 -153 -6 -192 27 -166 139 11 48 12 49 52 52 40 3 42 5
73 68 17 36 32 70 32 76 2 27 -52 34 -154 20 -55 -8 -101 -13 -103 -11 -2 1
13 13 32 25 38 23 44 35 24 43 -7 2 20 8 61 12 65 6 76 5 87 -10 21 -28 42
-10 60 51 16 55 15 57 -2 67 -41 24 -54 16 -54 -30 l0 -43 -37 0 c-21 0 -49
-3 -62 -7 -23 -6 -24 -5 -17 50 6 49 5 57 -13 66 -23 13 -41 14 -42 4z m141
-258 c0 -22 -5 -25 -32 -25 -18 0 -43 -3 -55 -6 -19 -5 -23 -2 -23 18 0 34 6
38 62 38 45 0 48 -2 48 -25z m-152 -17 c-2 -18 -12 -25 -46 -32 -34 -7 -46 -6
-53 5 -22 34 -7 46 64 48 34 1 38 -1 35 -21z m142 -48 c0 -11 -6 -23 -12 -25
-24 -8 -87 -10 -88 -2 -1 32 3 36 38 40 20 2 43 4 50 5 6 1 12 -7 12 -18z
m-142 -22 c-2 -19 -10 -24 -45 -26 -37 -3 -43 0 -43 17 0 19 16 27 68 30 19 1
23 -3 20 -21z"/>
  <path d="M592 206 c-7 -19 -24 -45 -37 -58 -21 -20 -34 -58 -20 -58 3 0 39 9
81 21 73 20 76 20 95 3 17 -15 22 -16 29 -5 12 20 4 34 -29 54 -37 22 -44 21
-36 -2 5 -15 -1 -20 -31 -25 -20 -4 -38 -5 -41 -2 -3 3 5 21 17 41 22 36 21
65 -3 65 -7 0 -19 -15 -25 -34z"/>
</g>
<g id="part-1" class="char-part">
  <path d="M423 570 c5 -27 7 -55 4 -63 -5 -14 -112 -31 -128 -21 -4 2 -3 18 3
35 11 33 1 49 -33 49 -11 0 -14 -7 -11 -29 2 -16 -1 -38 -7 -49 -18 -34 -3
-55 33 -47 55 11 190 32 247 39 53 5 57 4 63 -16 5 -20 7 -21 20 -8 8 8 22 35
30 60 14 41 14 46 -1 58 -9 6 -25 12 -34 12 -14 0 -16 -7 -12 -39 5 -34 3 -39
-18 -44 -13 -4 -45 -7 -70 -7 l-45 0 6 53 c8 55 2 67 -36 67 -20 0 -21 -3 -11
-50z"/>
</g>
<g id="part-2" class="char-part">
  <path d="M368 425 c-29 -48 -24 -49 45 -6 40 25 45 36 21 45 -29 11 -39 6 -66
-39z"/>
</g>
<g id="part-3" class="char-part">
  <path d="M596 215 c-3 -13 -20 -40 -36 -59 -27 -30 -40 -66 -24 -66 3 0 39 10
80 22 72 21 74 21 95 2 16 -15 22 -16 29 -5 12 20 1 40 -31 56 -36 19 -38 19
-32 -4 4 -16 -2 -21 -31 -27 -21 -3 -39 -4 -43 -1 -3 3 5 22 17 42 23 37 21
65 -4 65 -7 0 -17 -11 -20 -25z"/>
</g>
</g>
</svg>