<?xml version="1.0" standalone="no"?>
<!DOCTYPE svg PUBLIC "-//W3C//DTD SVG 20010904//EN"
 "http://www.w3.org/TR/2001/REC-SVG-20010904/DTD/svg10.dtd">
<svg version="1.0" xmlns="http://www.w3.org/2000/svg"
 width="96.000000pt" height="68.000000pt" viewBox="0 0 96.000000 68.000000"
 preserveAspectRatio="xMidYMid meet">
<metadata>
Created by potrace 1.16, written by Peter Selinger 2001-2019
Combined from part_0.svg through part_5.svg with named groups
</metadata>
<g transform="translate(0.000000,68.000000) scale(0.100000,-0.100000)" fill="#000000" stroke="none">
<g id="part-0" class="char-part">
  <path d="M264 583 c4 -21 9 -61 13 -90 l6 -52 -62 -7 c-42 -4 -61 -11 -61 -20
0 -10 16 -14 60 -14 l60 0 0 -37 0 -38 -93 -37 c-50 -20 -92 -42 -92 -50 0 -7
12 -17 27 -22 28 -10 36 -7 108 34 l35 20 3 -37 c2 -20 1 -52 -3 -71 l-6 -34
-47 7 -46 7 50 -46 c27 -25 57 -45 66 -46 34 0 51 56 44 142 -8 100 -3 118 44
147 44 28 44 49 0 26 -39 -20 -40 -20 -40 15 0 25 5 31 33 38 17 4 32 15 32
23 0 9 -12 15 -32 17 -28 3 -33 7 -33 28 0 14 6 40 14 58 8 18 11 38 7 43 -10
16 -48 33 -72 33 -20 0 -21 -4 -15 -37z"/>
  <path d="M541 607 c-6 -6 -11 -15 -11 -21 0 -12 -50 -88 -65 -98 -5 -4 -18 -5
-27 -2 -20 6 -24 -6 -8 -22 6 -6 19 -40 28 -75 17 -60 19 -64 45 -61 33 3 35
-13 4 -51 -18 -23 -32 -28 -84 -34 -35 -3 -63 -10 -63 -14 0 -17 53 -21 120
-10 117 19 120 18 120 -33 0 -67 12 -166 20 -166 14 0 19 29 26 125 l7 95 101
0 101 1 -24 19 c-21 18 -33 19 -102 14 l-79 -7 3 24 c2 14 -3 30 -12 37 -14
11 -9 13 30 8 51 -6 47 -10 88 88 27 62 26 74 -4 88 -18 8 -47 7 -122 -6 -145
-24 -147 -23 -84 34 29 27 50 53 47 58 -9 15 -43 21 -55 9z m169 -142 c0 -23
-4 -25 -45 -25 -25 0 -45 4 -45 9 0 5 -3 16 -6 25 -5 13 2 16 45 16 48 0 51
-2 51 -25z m-142 -12 c-3 -25 -7 -28 -45 -31 -34 -2 -43 0 -43 12 0 9 0 19 0
24 -1 6 39 17 78 21 9 1 12 -8 10 -26z m128 -55 c-3 -13 -6 -26 -6 -29 0 -3
-22 -6 -50 -7 -48 -1 -49 0 -38 23 10 22 27 29 82 34 14 1 17 -4 12 -21z
m-136 -11 c0 -33 -53 -51 -64 -21 -11 29 -6 34 29 34 22 0 35 -5 35 -13z m38
-91 c1 -32 -1 -34 -34 -38 -32 -4 -56 5 -36 14 4 1 18 18 31 36 27 38 37 35
39 -12z"/>
</g>
<g id="part-1" class="char-part">
  <path d="M265 611 c-2 -5 0 -23 5 -42 6 -19 10 -55 10 -81 0 -41 -3 -48 -22
-52 -13 -3 -41 -8 -63 -13 -39 -8 -38 -8 23 -11 l62 -3 0 -43 0 -44 -86 -36
c-47 -20 -91 -36 -96 -36 -16 0 11 -28 33 -35 12 -4 40 6 78 29 32 20 61 36
65 36 8 0 8 -64 -1 -114 l-6 -38 -46 5 -45 5 49 -44 c28 -24 53 -44 56 -44 23
0 34 42 39 149 l5 116 37 24 c45 29 43 40 -1 16 -27 -14 -32 -14 -37 -1 -13
35 0 60 39 69 56 13 45 34 -15 29 -14 -1 -18 6 -18 37 0 22 5 52 10 67 6 15 7
31 2 36 -13 13 -71 27 -77 19z"/>
</g>
<g id="part-2" class="char-part">
  <path d="M532 590 c-6 -16 -23 -46 -38 -65 -40 -54 -8 -43 61 19 l60 54 -28
11 c-40 16 -44 14 -55 -19z"/>
</g>
<g id="part-3" class="char-part">
  <path d="M566 433 c-3 -27 -20 -77 -36 -112 -33 -69 -33 -84 -2 -53 51 51 109
181 89 201 -25 25 -44 12 -51 -36z"/>
</g>
<g id="part-4" class="char-part">
  <path d="M598 295 c3 -29 1 -35 -14 -36 -11 0 -68 -6 -129 -13 -101 -12 -108
-14 -83 -25 22 -11 44 -11 127 1 l101 14 1 -35 c1 -72 10 -175 14 -180 12 -12
19 17 29 114 l10 105 98 0 c54 0 98 4 98 8 0 21 -53 31 -127 25 l-76 -6 6 25
c7 27 -5 38 -42 38 -14 0 -16 -7 -13 -35z"/>
</g>
</g>
</svg>