<?xml version="1.0" standalone="no"?>
<!DOCTYPE svg PUBLIC "-//W3C//DTD SVG 20010904//EN"
 "http://www.w3.org/TR/2001/REC-SVG-20010904/DTD/svg10.dtd">
<svg version="1.0" xmlns="http://www.w3.org/2000/svg"
 width="96.000000pt" height="68.000000pt" viewBox="0 0 96.000000 68.000000"
 preserveAspectRatio="xMidYMid meet">
<metadata>
Created by potrace 1.16, written by Peter Selinger 2001-2019
Combined from part_0.svg through part_5.svg with named groups
</metadata>
<g transform="translate(0.000000,68.000000) scale(0.100000,-0.100000)" fill="#000000" stroke="none">
<g id="part-0" class="char-part">
  <path d="M569 623 c-1 -5 -1 -31 1 -59 2 -50 1 -51 -30 -58 -18 -3 -52 -6 -76
-6 -24 0 -44 -4 -44 -10 0 -6 32 -10 75 -10 l75 0 0 -40 0 -40 -49 0 c-28 0
-53 -5 -56 -11 -5 -7 32 -8 126 -3 74 3 136 8 138 10 1 1 0 8 -4 14 -5 8 -25
11 -56 8 l-49 -5 0 38 c0 38 1 39 38 40 57 0 115 13 113 24 -1 6 -33 10 -74
10 l-72 0 0 44 c0 35 -4 46 -20 52 -26 10 -35 11 -36 2z"/>
  <path d="M209 424 c3 -133 0 -143 -42 -144 -17 0 -18 6 -12 59 6 53 5 60 -13
70 -34 18 -44 13 -38 -20 2 -17 -2 -52 -10 -77 -18 -62 -11 -86 24 -78 31 6
146 32 180 41 17 4 22 1 22 -15 0 -13 7 -20 20 -20 11 0 20 2 20 4 0 2 7 40
15 85 9 45 13 86 10 91 -3 6 -18 10 -33 10 -27 0 -27 -1 -27 -62 0 -62 -1 -63
-29 -66 l-28 -4 3 121 c4 128 3 131 -44 131 -22 0 -22 -2 -18 -126z"/>
  <path d="M644 343 c6 -27 5 -28 -36 -30 -160 -7 -229 -16 -219 -26 12 -12 47
-12 174 0 104 10 103 12 90 -108 l-8 -74 -43 0 c-23 0 -42 -1 -42 -3 0 -4 60
-55 76 -65 9 -5 23 1 39 17 24 24 25 31 25 136 l0 110 75 0 c41 0 75 4 75 9 0
13 -83 25 -120 17 -25 -4 -30 -2 -30 13 0 19 -18 31 -47 31 -11 0 -13 -7 -9
-27z"/>
  <path d="M460 241 c0 -16 41 -61 56 -61 25 0 16 46 -11 58 -31 14 -45 15 -45
3z"/>
</g>
<g id="part-1" class="char-part">
  <path d="M200 536 c0 -8 5 -18 10 -21 6 -4 10 -55 10 -121 l0 -114 -40 0 c-22
0 -40 3 -40 8 0 4 5 27 11 51 10 47 1 71 -30 71 -12 0 -16 -10 -17 -42 -1 -24
-5 -61 -9 -84 -9 -52 3 -58 76 -34 30 10 76 21 102 25 44 6 49 4 54 -14 6 -22
18 -27 28 -12 3 6 11 44 18 86 12 70 12 77 -4 86 -34 18 -39 10 -39 -56 l0
-65 -36 0 -36 0 7 119 7 118 -23 6 c-37 10 -49 8 -49 -7z"/>
</g>
<g id="part-2" class="char-part">
  <path d="M556 622 c-2 -4 -1 -14 5 -22 5 -8 9 -31 9 -51 0 -34 -2 -37 -37 -43
-21 -3 -57 -6 -80 -6 -24 0 -43 -4 -43 -10 0 -6 33 -10 80 -10 l80 0 0 -40 0
-40 -49 0 c-28 0 -53 -5 -57 -11 -4 -8 31 -9 127 -4 74 4 136 9 138 11 1 1 0
8 -4 14 -5 8 -25 11 -56 8 l-49 -5 0 37 0 37 71 7 c78 7 93 12 83 28 -4 6 -33
8 -82 3 l-75 -7 6 46 c6 43 5 47 -19 56 -31 12 -41 12 -48 2z"/>
</g>
<g id="part-3" class="char-part">
  <path d="M644 346 c7 -28 1 -30 -169 -41 -90 -6 -104 -10 -92 -22 9 -8 74 -7
180 4 87 9 88 9 94 -15 3 -13 2 -56 -3 -95 -9 -68 -10 -72 -36 -75 -15 -2 -37
2 -49 8 -12 7 -20 8 -18 2 5 -12 88 -82 98 -82 4 0 17 10 29 23 19 20 22 36
24 132 l3 110 73 3 c39 2 72 7 72 12 0 14 -58 23 -105 15 -40 -5 -44 -4 -47
17 -2 17 -11 24 -32 26 -26 3 -28 1 -22 -22z"/>
</g>
<g id="part-4" class="char-part">
  <path d="M472 218 c33 -42 58 -48 58 -15 0 19 -8 28 -31 36 -49 17 -54 14 -27
-21z"/>
</g>
</g>
</svg>