<?xml version="1.0" standalone="no"?>
<!DOCTYPE svg PUBLIC "-//W3C//DTD SVG 20010904//EN"
 "http://www.w3.org/TR/2001/REC-SVG-20010904/DTD/svg10.dtd">
<svg version="1.0" xmlns="http://www.w3.org/2000/svg"
 width="96.000000pt" height="68.000000pt" viewBox="0 0 96.000000 68.000000"
 preserveAspectRatio="xMidYMid meet">
<metadata>
Created by potrace 1.16, written by Peter Selinger 2001-2019
Combined from part_0.svg through part_5.svg with named groups
</metadata>
<g transform="translate(0.000000,68.000000) scale(0.100000,-0.100000)" fill="#000000" stroke="none">
<g id="part-0" class="char-part">
  <path d="M544 573 c3 -10 8 -48 11 -85 l7 -68 -74 0 -74 0 -17 -36 c-17 -35
-15 -54 4 -54 5 0 16 15 25 33 l16 33 155 13 c85 7 157 10 160 8 2 -3 -1 -15
-7 -27 -11 -21 -10 -22 22 -15 78 16 83 23 37 57 -22 17 -32 18 -90 9 -35 -6
-78 -11 -94 -11 l-31 0 1 78 0 77 -28 3 c-24 3 -28 0 -23 -15z"/>
  <path d="M676 509 c-14 -23 -25 -43 -23 -45 1 -2 16 3 31 11 16 8 34 15 41 15
7 0 18 6 24 14 9 10 6 17 -13 30 -14 9 -27 16 -29 16 -2 0 -16 -19 -31 -41z"/>
  <path d="M220 521 c0 -11 67 -71 80 -71 46 0 53 43 10 65 -32 16 -90 20 -90 6z"/>
  <path d="M435 510 c-6 -9 51 -60 66 -60 14 0 23 30 12 41 -14 14 -72 29 -78
19z"/>
  <path d="M195 399 c-44 -9 -84 -18 -90 -18 -5 -1 -3 -6 5 -11 20 -13 76 -12
123 1 22 6 41 9 43 7 5 -6 -98 -143 -145 -190 -23 -24 -36 -45 -31 -46 16 -6
84 42 125 86 l34 37 1 -47 c0 -26 -5 -70 -11 -99 -12 -56 -1 -99 25 -99 21 0
26 23 26 131 l0 100 35 -27 c26 -19 39 -24 47 -16 15 15 2 43 -22 49 -25 7
-25 11 2 33 19 15 20 20 9 34 -20 24 -35 19 -48 -15 -7 -17 -17 -28 -22 -24
-18 10 -13 23 26 66 36 39 36 42 18 55 -23 17 -48 16 -150 -7z"/>
  <path d="M560 357 c-41 -5 -76 -10 -77 -11 -1 -1 3 -21 9 -45 l11 -43 45 6
c25 3 60 6 79 6 25 0 36 6 43 23 6 12 15 30 22 39 7 9 10 19 8 21 -13 12 -72
13 -140 4z m72 -42 c-3 -18 -11 -25 -27 -25 -12 0 -37 -3 -54 -6 -29 -6 -31
-5 -31 24 0 30 1 31 53 34 65 4 65 4 59 -27z"/>
  <path d="M625 230 c-38 -5 -101 -9 -140 -11 -82 -3 -90 -6 -72 -24 8 -7 20
-42 26 -77 7 -35 15 -69 17 -76 5 -17 24 -15 24 3 0 12 14 15 69 15 38 0 82 3
98 6 23 5 35 1 51 -16 34 -37 55 -23 73 50 8 36 18 77 22 91 5 21 2 28 -19 37
-27 13 -43 13 -149 2z m110 -30 c10 -32 -3 -40 -64 -40 -55 0 -58 1 -58 24 0
20 5 26 31 29 72 9 85 7 91 -13z m-167 -26 c3 -18 -3 -22 -44 -28 -55 -7 -64
-3 -64 30 0 24 2 25 53 22 44 -3 52 -6 55 -24z m158 -67 c-4 -19 -12 -22 -61
-23 -54 0 -56 1 -53 25 3 22 8 26 48 29 25 2 50 4 55 6 14 4 18 -10 11 -37z
m-158 -5 c3 -20 -1 -22 -41 -22 -36 0 -46 4 -50 19 -4 17 1 21 32 24 51 5 56
3 59 -21z"/>
</g>
<g id="part-1" class="char-part">
  <path d="M230 524 c0 -18 55 -64 77 -64 26 0 32 30 11 48 -17 13 -88 27 -88
16z"/>
  <path d="M262 410 c-12 -5 -53 -15 -90 -21 -58 -10 -64 -13 -44 -22 21 -10 84
-1 135 18 30 12 19 -14 -35 -89 -29 -39 -55 -73 -58 -76 -3 -3 -21 -23 -40
-44 l-35 -38 34 17 c19 9 56 39 82 65 26 26 50 46 53 43 7 -7 -4 -123 -14
-156 -10 -29 0 -70 19 -82 19 -11 31 44 31 143 l0 96 29 -28 c18 -17 36 -26
45 -23 22 9 9 36 -20 43 -31 8 -30 18 1 32 29 13 32 27 8 36 -16 7 -37 -10
-46 -37 -4 -12 -37 -2 -37 10 0 4 16 25 35 46 40 44 42 52 16 67 -23 12 -38
12 -69 0z"/>
</g>
<g id="part-2" class="char-part">
  <path d="M543 573 c3 -10 8 -48 12 -85 5 -47 11 -68 20 -68 16 0 28 65 23 125
-3 36 -6 40 -31 43 -24 3 -28 0 -24 -15z"/>
  <path d="M672 505 c-17 -25 -29 -45 -26 -45 6 0 107 42 114 47 5 4 -40 42 -51
43 -3 0 -19 -20 -37 -45z"/>
  <path d="M458 480 c37 -34 50 -37 59 -14 8 22 -22 44 -61 44 l-31 -1 33 -29z"/>
</g>
<g id="part-3" class="char-part">
  <path d="M705 438 c-27 -5 -105 -10 -172 -11 l-122 -2 -15 -40 c-10 -25 -12
-43 -6 -49 12 -12 36 8 44 38 6 25 -7 23 261 43 l80 6 -19 -22 c-11 -11 -17
-23 -15 -25 8 -8 99 16 99 26 0 16 -43 47 -65 46 -11 0 -42 -4 -70 -10z"/>
</g>
<g id="part-4" class="char-part">
  <path d="M630 229 c-36 -4 -100 -9 -142 -11 -75 -3 -91 -11 -68 -34 6 -6 16
-41 23 -79 7 -38 18 -70 25 -73 7 -2 12 3 12 11 0 11 23 15 103 20 94 6 103 4
116 -13 32 -47 59 -18 80 85 5 28 12 57 16 66 4 10 -3 19 -20 27 -28 13 -47
13 -145 1z m108 -41 c3 -28 3 -28 -61 -28 -61 0 -65 2 -69 24 -5 22 -1 25 31
29 78 9 96 4 99 -25z m-168 -18 c0 -23 -88 -39 -101 -18 -20 31 -10 47 34 50
47 3 67 -6 67 -32z m158 -67 c-3 -14 -15 -18 -61 -19 -53 -1 -57 0 -57 22 0
23 11 28 90 36 26 3 34 -9 28 -39z m-158 2 c0 -23 -4 -25 -44 -25 -46 0 -62
11 -53 34 3 8 23 14 51 14 42 1 46 -1 46 -23z"/>
</g>
</g>
</svg>