<?xml version="1.0" standalone="no"?>
<!DOCTYPE svg PUBLIC "-//W3C//DTD SVG 20010904//EN"
 "http://www.w3.org/TR/2001/REC-SVG-20010904/DTD/svg10.dtd">
<svg version="1.0" xmlns="http://www.w3.org/2000/svg"
 width="96.000000pt" height="68.000000pt" viewBox="0 0 96.000000 68.000000"
 preserveAspectRatio="xMidYMid meet">
<metadata>
Created by potrace 1.16, written by Peter Selinger 2001-2019
Combined from part_0.svg through part_5.svg with named groups
</metadata>
<g transform="translate(0.000000,68.000000) scale(0.100000,-0.100000)" fill="#000000" stroke="none">
<g id="part-0" class="char-part">
  <path d="M460 599 c0 -6 9 -23 21 -37 l21 -27 -33 -6 c-18 -4 -72 -10 -121
-14 -92 -7 -113 -17 -78 -35 58 -31 -8 -278 -101 -377 -48 -52 -7 -41 51 13
69 65 108 159 135 326 6 36 6 36 66 43 33 4 63 5 66 2 15 -15 -24 -77 -86
-138 -39 -38 -68 -69 -65 -69 22 0 100 54 147 102 l58 59 60 -48 c33 -26 75
-61 92 -76 29 -26 37 -28 91 -23 32 2 63 9 69 15 8 8 7 11 -4 11 -60 0 -298
118 -299 148 0 6 -4 12 -10 12 -5 0 -10 4 -10 9 0 4 50 11 111 14 61 3 114 8
117 12 3 3 0 11 -7 18 -8 8 -41 11 -97 10 -65 -1 -84 1 -84 12 0 21 -50 55
-81 55 -16 0 -29 -5 -29 -11z"/>
  <path d="M140 443 c0 -18 55 -83 70 -83 20 0 32 23 23 45 -10 27 -93 60 -93
38z"/>
  <path d="M195 314 c-22 -13 -57 -29 -77 -36 -40 -12 -48 -28 -23 -48 23 -19
55 -5 108 46 67 66 64 82 -8 38z"/>
  <path d="M590 197 c0 -120 7 -177 21 -177 15 0 28 73 31 180 l3 105 -27 3 -28
3 0 -114z"/>
  <path d="M438 255 c6 -54 -34 -144 -73 -165 -14 -7 -23 -15 -21 -17 8 -9 54
18 88 52 29 29 38 48 47 97 12 69 9 78 -23 78 -22 0 -23 -3 -18 -45z"/>
</g>
<g id="part-1" class="char-part">
  <path d="M470 596 c0 -7 9 -25 20 -39 11 -14 20 -27 20 -30 0 -2 -46 -8 -102
-11 -57 -4 -113 -10 -126 -13 l-23 -5 20 -20 c13 -11 21 -31 21 -51 -1 -96
-60 -252 -122 -323 -17 -19 -27 -34 -24 -34 19 0 64 41 101 92 43 57 75 150
91 261 4 31 13 51 25 57 10 6 99 15 198 22 100 6 181 15 181 19 0 16 -67 26
-116 18 -72 -12 -74 -11 -74 17 0 19 -8 28 -35 40 -43 18 -55 18 -55 0z"/>
  <path d="M150 432 c0 -18 57 -75 68 -68 19 12 14 44 -10 60 -24 17 -58 21 -58
8z"/>
  <path d="M210 316 c-19 -12 -53 -29 -75 -36 -55 -17 -56 -19 -45 -41 14 -25
27 -24 72 7 31 22 97 94 86 94 -2 0 -19 -11 -38 -24z"/>
</g>
<g id="part-2" class="char-part">
  <path d="M490 479 c0 -29 -51 -100 -112 -154 -41 -36 -47 -45 -28 -40 39 12
104 60 148 111 l41 46 94 -76 c98 -79 108 -83 190 -70 35 6 53 24 24 24 -54 0
-297 121 -297 147 0 13 -31 33 -49 33 -6 0 -11 -9 -11 -21z"/>
</g>
<g id="part-3" class="char-part">
  <path d="M437 267 c9 -55 -15 -118 -60 -161 -33 -31 -36 -37 -16 -31 63 20
103 73 119 156 11 55 5 69 -32 69 -13 0 -16 -7 -11 -33z"/>
</g>
<g id="part-4" class="char-part">
  <path d="M590 203 c0 -59 3 -125 6 -145 14 -85 40 -18 44 112 1 47 3 96 3 110
2 20 -3 26 -25 28 l-28 3 0 -108z"/>
</g>
</g>
</svg>