<?xml version="1.0" standalone="no"?>
<!DOCTYPE svg PUBLIC "-//W3C//DTD SVG 20010904//EN"
 "http://www.w3.org/TR/2001/REC-SVG-20010904/DTD/svg10.dtd">
<svg version="1.0" xmlns="http://www.w3.org/2000/svg"
 width="96.000000pt" height="68.000000pt" viewBox="0 0 96.000000 68.000000"
 preserveAspectRatio="xMidYMid meet">
<metadata>
Created by potrace 1.16, written by Peter Selinger 2001-2019
Combined from part_0.svg through part_5.svg with named groups
</metadata>
<g transform="translate(0.000000,68.000000) scale(0.100000,-0.100000)" fill="#000000" stroke="none">
<g id="part-0" class="char-part">
  <path d="M535 579 c-33 -4 -83 -9 -111 -10 l-52 -2 18 -31 c10 -17 21 -46 25
-64 5 -26 11 -32 23 -27 26 10 193 27 208 21 27 -10 101 93 81 113 -12 12
-102 12 -192 0z m135 -16 c0 -4 -5 -22 -12 -40 -10 -27 -17 -33 -41 -33 -23 0
-28 4 -23 16 3 9 9 27 12 40 5 18 13 24 35 24 16 0 29 -3 29 -7z m-94 -19 c-3
-9 -6 -27 -6 -40 0 -19 -5 -24 -25 -24 -17 0 -25 6 -25 18 0 9 -3 27 -6 40 -6
20 -3 22 31 22 30 0 36 -3 31 -16z m-84 -18 c15 -35 4 -59 -24 -50 -28 8 -38
22 -38 52 0 32 46 31 62 -2z"/>
  <path d="M200 515 c-41 -8 -76 -14 -77 -14 -2 -1 -3 -5 -3 -11 0 -5 20 -10 44
-10 49 0 56 -9 56 -70 0 -37 -1 -39 -42 -48 l-43 -10 43 -1 43 -1 -3 -62 -3
-63 -60 -16 c-65 -17 -74 -28 -34 -43 21 -7 44 1 137 49 110 56 143 84 62 51
-59 -23 -61 -22 -58 36 2 44 6 53 23 56 44 7 50 15 15 21 -27 5 -35 10 -33 26
2 11 4 34 5 52 3 28 7 32 41 37 48 8 45 30 -4 32 -19 1 -68 -4 -109 -11z"/>
  <path d="M669 436 c-2 -2 -58 -9 -124 -15 -151 -14 -195 -22 -173 -30 17 -6
389 18 398 26 2 2 -2 8 -10 13 -15 9 -83 14 -91 6z"/>
  <path d="M530 358 c-30 -5 -70 -7 -88 -4 -25 4 -31 2 -25 -7 5 -7 15 -31 22
-55 10 -37 15 -42 27 -31 10 8 18 9 25 2 14 -14 -59 -76 -136 -114 -49 -25
-54 -29 -27 -25 19 3 56 17 84 31 l50 25 -3 -77 c-5 -96 3 -100 89 -42 73 49
80 66 16 38 -25 -12 -48 -18 -51 -15 -3 3 -6 31 -7 62 -1 53 0 58 32 79 24 16
30 25 21 31 -17 10 14 22 59 23 25 1 32 5 32 21 0 11 7 23 15 26 8 4 15 12 15
19 0 26 -49 31 -150 13z m80 -32 c0 -26 -28 -36 -106 -36 -37 0 -44 3 -44 20
0 20 13 26 75 33 71 9 75 8 75 -17z"/>
  <path d="M671 234 c-33 -36 -47 -39 -93 -19 -26 11 -22 -10 5 -22 12 -6 53
-39 90 -72 69 -62 79 -66 136 -55 32 7 43 24 15 24 -23 0 -184 79 -184 90 0 9
28 23 99 51 19 8 21 12 11 24 -20 24 -42 17 -79 -21z"/>
</g>
<g id="part-1" class="char-part">
  <path d="M205 511 c-90 -17 -97 -31 -16 -31 49 0 151 21 151 30 0 8 -27 21
-38 19 -4 -1 -47 -9 -97 -18z"/>
</g>
<g id="part-2" class="char-part">
  <path d="M229 483 c-12 -3 -15 -15 -11 -57 l4 -54 -41 -7 c-47 -8 -45 -28 2
-23 l32 3 3 -57 3 -57 -58 -17 c-75 -21 -80 -24 -58 -41 29 -20 42 -17 158 43
111 57 133 76 57 49 -23 -8 -46 -15 -51 -15 -14 0 -11 100 4 104 6 3 26 8 42
12 l30 7 -41 11 c-39 11 -40 12 -32 46 12 55 3 66 -43 53z"/>
</g>
<g id="part-3" class="char-part">
  <path d="M585 584 c-55 -7 -126 -13 -158 -13 -57 -1 -57 -1 -43 -23 8 -13 20
-42 27 -66 9 -32 16 -41 28 -37 24 10 191 27 205 22 7 -3 17 -2 22 1 13 9 74
94 74 103 0 19 -61 24 -155 13z m85 -23 c0 -4 -5 -22 -10 -38 -10 -29 -15 -31
-78 -37 -129 -12 -140 -10 -147 25 -4 17 -5 32 -3 35 5 4 149 20 211 23 15 0
27 -3 27 -8z"/>
</g>
<g id="part-4" class="char-part">
  <path d="M579 548 c0 -7 -2 -23 -5 -35 -5 -27 11 -31 19 -5 2 9 8 25 12 35 5
12 2 17 -9 17 -9 0 -16 -6 -17 -12z"/>
</g>
<g id="part-5" class="char-part">
  <path d="M691 244 c-17 -14 -31 -31 -31 -37 0 -9 2 -9 8 -1 4 6 22 15 39 19
39 8 48 19 29 34 -11 9 -21 6 -45 -15z m39 11 c0 -2 -10 -9 -22 -15 -22 -11
-22 -10 -4 4 21 17 26 19 26 11z"/>
  <path d="M605 187 c17 -14 33 -24 36 -23 3 0 18 -14 33 -32 16 -17 33 -29 38
-25 6 3 8 1 5 -4 -11 -18 39 -44 65 -34 13 4 29 6 36 4 6 -3 12 0 12 6 0 11
-19 16 -53 13 -10 -1 -16 2 -13 7 3 5 -4 11 -17 14 -38 10 -41 11 -65 34 -14
13 -28 20 -33 17 -5 -3 -9 -1 -9 5 0 6 -15 18 -32 26 l-33 16 30 -24z"/>
  <path d="M466 163 c-3 -10 -2 -34 3 -53 6 -26 4 -39 -6 -48 -16 -16 -9 -32 14
-32 15 0 123 68 123 77 0 2 -14 -4 -31 -12 -17 -9 -40 -15 -52 -13 -21 3 -24
20 -14 82 3 18 -31 17 -37 -1z m11 -25 c-3 -8 -6 -5 -6 6 -1 11 2 17 5 13 3
-3 4 -12 1 -19z"/>
</g>
</g>
</svg>