<?xml version="1.0" standalone="no"?>
<!DOCTYPE svg PUBLIC "-//W3C//DTD SVG 20010904//EN"
 "http://www.w3.org/TR/2001/REC-SVG-20010904/DTD/svg10.dtd">
<svg version="1.0" xmlns="http://www.w3.org/2000/svg"
 width="96.000000pt" height="68.000000pt" viewBox="0 0 96.000000 68.000000"
 preserveAspectRatio="xMidYMid meet">
<metadata>
Created by potrace 1.16, written by Peter Selinger 2001-2019
Combined from part_0.svg through part_5.svg with named groups
</metadata>
<g transform="translate(0.000000,68.000000) scale(0.100000,-0.100000)" fill="#000000" stroke="none">
<g id="part-0" class="char-part">
  <path d="M535 578 c16 -55 25 -95 25 -119 0 -25 -4 -27 -69 -38 -39 -6 -84
-11 -101 -11 -27 0 -31 -3 -25 -17 16 -42 16 -74 1 -133 -18 -69 -23 -80 -34
-65 -15 21 -40 36 -46 27 -5 -9 27 -54 38 -53 3 1 8 1 12 1 3 0 -7 -16 -22
-35 -35 -47 -26 -53 16 -12 47 46 74 114 94 245 4 22 20 30 83 37 l62 7 6 -29
c3 -15 14 -61 25 -100 11 -40 20 -79 20 -86 0 -8 -22 -35 -50 -61 -65 -61 -30
-60 44 1 l29 24 15 -23 c44 -67 110 -118 152 -118 17 0 20 6 19 48 0 26 -4 56
-8 67 -7 17 -9 16 -15 -12 -4 -18 -12 -35 -17 -39 -19 -11 -50 9 -79 51 -33
48 -37 70 -17 94 8 9 26 37 40 63 l27 47 -22 15 c-35 25 -48 20 -48 -17 0 -34
-19 -87 -32 -87 -4 0 -10 6 -14 12 -11 17 -33 141 -28 150 3 5 23 8 44 8 21 0
41 4 45 9 8 14 -32 24 -71 16 l-34 -6 0 71 c0 66 -1 71 -26 80 -39 15 -47 13
-39 -12z"/>
  <path d="M230 536 c0 -28 -38 -101 -69 -135 -49 -52 -38 -95 19 -71 51 21 53
6 4 -43 -58 -58 -51 -77 21 -53 26 9 56 21 67 27 14 8 23 8 31 0 17 -17 37
-13 37 7 0 38 -44 57 -53 23 -3 -12 -17 -21 -42 -25 -47 -9 -51 -5 -23 26 129
144 121 132 99 152 -19 17 -20 16 -39 -26 -16 -37 -24 -44 -50 -46 -18 -1 -32
1 -32 5 0 5 23 37 49 73 39 51 47 68 40 82 -12 22 -59 24 -59 4z"/>
  <path d="M670 491 c37 -32 55 -38 66 -20 10 17 -17 36 -61 43 l-40 7 35 -30z"/>
  <path d="M471 328 c-29 -6 -40 -13 -33 -20 12 -12 125 9 117 23 -7 11 -25 10
-84 -3z"/>
  <path d="M467 257 c-51 -11 -50 -10 -26 -74 7 -19 14 -22 41 -17 69 11 77 14
77 32 0 9 2 28 3 42 4 30 -19 34 -95 17z m61 -29 c-4 -28 -48 -53 -60 -35 -16
25 -8 46 20 50 15 2 31 5 35 6 5 0 7 -9 5 -21z"/>
  <path d="M207 192 c-9 -14 32 -54 49 -48 13 5 14 9 3 22 -17 21 -47 36 -52 26z"/>
  <path d="M110 172 c0 -24 32 -82 45 -82 16 0 20 36 7 56 -10 16 -52 36 -52 26z"/>
</g>
<g id="part-1" class="char-part">
  <path d="M225 501 c-9 -27 -34 -70 -57 -95 -57 -65 -44 -90 33 -65 49 17 62
33 20 25 -41 -7 -39 0 25 84 37 49 45 66 37 79 -21 33 -40 24 -58 -28z"/>
</g>
<g id="part-2" class="char-part">
  <path d="M280 221 c0 -5 9 -19 19 -32 15 -18 22 -21 31 -13 9 9 6 17 -11 33
-24 22 -39 27 -39 12z"/>
  <path d="M200 191 c1 -3 10 -17 20 -30 24 -28 57 -22 41 8 -10 17 -61 36 -61
22z"/>
  <path d="M100 173 c1 -16 45 -87 58 -91 8 -2 12 6 12 25 0 34 -8 46 -37 62
-25 13 -33 14 -33 4z"/>
</g>
<g id="part-3" class="char-part">
  <path d="M534 578 c13 -45 29 -138 25 -142 -3 -3 -33 -9 -69 -13 -39 -5 -65
-13 -68 -22 -3 -10 3 -12 24 -8 16 3 50 8 75 12 l47 6 17 -76 c9 -42 23 -92
31 -110 l14 -33 -62 -57 c-67 -62 -50 -69 30 -12 l43 31 45 -52 c50 -57 89
-82 129 -82 21 0 25 4 21 22 -3 13 -8 46 -12 73 l-7 50 -9 -35 c-5 -19 -13
-39 -18 -43 -16 -17 -48 4 -83 54 l-36 51 46 71 45 71 -22 18 c-34 27 -50 23
-50 -14 -1 -18 -9 -49 -19 -68 l-19 -35 -16 55 c-8 30 -17 71 -18 90 -3 33 -1
35 32 38 19 1 42 5 50 8 27 9 -11 25 -55 22 l-40 -3 -3 68 c-3 62 -5 69 -28
77 -39 15 -47 12 -40 -12z"/>
  <path d="M670 490 c40 -35 70 -39 70 -11 0 20 -44 41 -84 41 -18 -1 -17 -4 14
-30z"/>
</g>
<g id="part-4" class="char-part">
  <path d="M374 404 c-9 -4 -9 -13 -1 -34 19 -51 -13 -171 -68 -254 l-20 -29 28
18 c15 10 39 37 53 61 25 43 66 208 57 232 -5 12 -27 15 -49 6z"/>
</g>
<g id="part-5" class="char-part">
  <path d="M529 251 c21 -14 6 -55 -26 -68 l-28 -12 30 6 c17 3 30 6 30 7 0 1 7
15 17 33 18 35 15 43 -16 43 -16 0 -18 -2 -7 -9z"/>
  <path d="M433 235 c0 -8 4 -12 9 -9 4 3 8 9 8 15 0 5 -4 9 -8 9 -5 0 -9 -7 -9
-15z"/>
  <path d="M445 210 c-7 -11 14 -55 22 -47 2 3 0 14 -6 25 -6 11 -7 22 -4 26 3
3 4 6 0 6 -3 0 -9 -4 -12 -10z"/>
</g>
</g>
</svg>