<?xml version="1.0" standalone="no"?>
<!DOCTYPE svg PUBLIC "-//W3C//DTD SVG 20010904//EN"
 "http://www.w3.org/TR/2001/REC-SVG-20010904/DTD/svg10.dtd">
<svg version="1.0" xmlns="http://www.w3.org/2000/svg"
 width="96.000000pt" height="68.000000pt" viewBox="0 0 96.000000 68.000000"
 preserveAspectRatio="xMidYMid meet">
<metadata>
Created by potrace 1.16, written by Peter Selinger 2001-2019
Combined from part_0.svg through part_5.svg with named groups
</metadata>
<g transform="translate(0.000000,68.000000) scale(0.100000,-0.100000)" fill="#000000" stroke="none">
<g id="part-0" class="char-part">
  <path d="M386 588 c4 -7 18 -27 31 -44 l23 -31 -46 -7 c-69 -9 -142 -7 -149 4
-14 22 -32 7 -58 -46 -22 -44 -25 -59 -16 -70 19 -24 38 -16 58 25 21 40 42
51 99 51 30 0 33 -2 26 -22 -9 -31 -50 -83 -88 -114 l-31 -26 29 7 c15 3 41
16 58 28 37 27 91 105 84 122 -3 8 7 15 26 19 56 11 58 10 58 -46 0 -59 5 -70
37 -87 27 -14 150 -15 158 0 11 17 -1 22 -52 20 -26 0 -61 2 -77 5 -28 6 -28
7 -22 63 3 31 5 57 6 59 0 1 27 2 60 2 l61 0 -25 -37 c-14 -20 -24 -38 -22
-40 1 -2 22 4 46 12 23 8 50 15 59 15 51 1 51 49 -1 76 -26 13 -42 14 -111 5
-110 -15 -117 -14 -117 9 0 30 -39 60 -77 60 -25 0 -32 -4 -27 -12z"/>
  <path d="M500 280 c-25 -4 -84 -11 -132 -15 -101 -8 -118 -25 -25 -25 34 0 67
-4 72 -8 6 -4 10 -29 10 -57 l0 -49 -50 -3 c-196 -11 -218 -14 -195 -30 15
-11 38 -13 88 -9 37 3 167 8 290 12 165 5 222 10 222 19 0 13 -71 38 -91 31
-8 -3 -58 -7 -113 -11 l-98 -6 5 58 c4 32 6 58 7 59 0 1 28 4 62 8 68 7 80 12
58 26 -17 11 -45 11 -110 0z"/>
</g>
<g id="part-1" class="char-part">
  <path d="M390 594 c0 -5 13 -26 30 -45 16 -20 26 -39 23 -43 -11 -11 -198 -7
-210 5 -8 8 -18 -3 -37 -41 -31 -62 -33 -80 -6 -80 13 0 26 13 39 38 l20 38
108 13 c59 7 122 14 138 16 177 22 184 20 144 -37 -21 -28 -21 -30 -3 -25 10
4 40 11 67 18 54 13 64 23 45 46 -24 29 -66 40 -121 32 -160 -23 -147 -24
-147 9 0 16 -6 35 -13 41 -18 15 -77 26 -77 15z"/>
</g>
<g id="part-2" class="char-part">
  <path d="M503 493 c-8 -3 -13 -25 -13 -58 0 -81 26 -99 135 -93 35 2 60 8 63
16 3 9 -15 12 -66 12 -83 0 -95 10 -90 76 3 46 -4 57 -29 47z"/>
  <path d="M356 452 c-7 -29 -76 -111 -111 -130 -11 -6 -17 -14 -13 -17 15 -15
101 39 139 88 43 54 47 80 12 85 -16 2 -23 -3 -27 -26z"/>
</g>
<g id="part-3" class="char-part">
  <path d="M495 280 c-28 -4 -90 -11 -138 -15 -102 -8 -107 -25 -7 -25 l68 0 7
-51 c4 -27 5 -53 2 -56 -3 -3 -63 -9 -134 -15 -70 -5 -129 -11 -132 -13 -2 -2
8 -10 23 -16 20 -10 54 -10 149 -1 67 7 195 12 285 12 166 0 195 8 130 34 -26
11 -57 12 -146 4 -63 -5 -116 -7 -119 -5 -2 3 -2 30 2 61 l7 56 47 1 c25 1 57
4 71 8 l25 7 -22 12 c-24 13 -42 13 -118 2z"/>
</g>
</g>
</svg>