<?xml version="1.0" standalone="no"?>
<!DOCTYPE svg PUBLIC "-//W3C//DTD SVG 20010904//EN"
 "http://www.w3.org/TR/2001/REC-SVG-20010904/DTD/svg10.dtd">
<svg version="1.0" xmlns="http://www.w3.org/2000/svg"
 width="96.000000pt" height="68.000000pt" viewBox="0 0 96.000000 68.000000"
 preserveAspectRatio="xMidYMid meet">
<metadata>
Created by potrace 1.16, written by Peter Selinger 2001-2019
Combined from part_0.svg through part_5.svg with named groups
</metadata>
<g transform="translate(0.000000,68.000000) scale(0.100000,-0.100000)" fill="#000000" stroke="none">
<g id="part-0" class="char-part">
  <path d="M245 433 c0 -184 -15 -250 -69 -307 -18 -20 -31 -36 -28 -36 3 0 -3
-9 -13 -20 -15 -17 -16 -20 -3 -20 8 0 27 9 42 21 14 11 31 17 38 13 7 -4 10
-4 6 1 -4 4 2 20 13 36 11 15 26 44 35 65 l15 37 33 -32 c41 -40 69 -42 64 -4
-2 21 -13 32 -45 48 -40 18 -43 22 -38 52 17 108 12 100 75 134 33 17 60 37
60 44 0 6 -12 18 -26 26 -25 13 -28 12 -43 -11 -9 -13 -24 -33 -34 -44 -18
-20 -18 -19 -13 56 5 69 4 79 -13 88 -11 5 -28 10 -38 10 -17 0 -18 -12 -18
-157z"/>
  <path d="M575 554 c-38 -7 -87 -13 -107 -13 -21 -1 -38 -5 -38 -11 0 -12 10
-13 68 -11 37 2 42 0 42 -19 0 -39 -29 -70 -67 -70 -31 0 -34 -2 -27 -22 8
-24 8 -63 -1 -163 -6 -66 5 -96 27 -77 8 6 19 7 26 3 15 -9 -32 -75 -78 -109
-17 -13 -29 -26 -27 -29 8 -7 65 25 127 71 30 22 57 42 60 44 2 2 -2 7 -10 12
-21 13 -12 17 59 23 57 5 64 3 68 -14 7 -24 29 -25 41 -2 6 10 12 75 14 145
l4 128 -34 6 c-19 4 -65 2 -103 -3 -38 -5 -69 -7 -69 -5 0 2 11 18 25 34 19
22 23 34 15 43 -12 14 46 25 136 25 52 0 71 12 38 24 -25 9 -112 5 -189 -10z
m99 -130 c9 -3 16 -16 16 -29 0 -21 -6 -22 -84 -29 -46 -3 -91 -9 -100 -12
-13 -5 -16 1 -16 25 0 29 2 31 38 32 20 0 55 4 77 8 22 5 43 9 47 10 3 0 13
-2 22 -5z m21 -102 c2 -29 2 -29 -112 -36 -89 -6 -92 -5 -95 17 -3 20 3 23 77
33 111 16 128 14 130 -14z m-3 -57 c3 -3 3 -16 1 -29 -4 -18 -11 -23 -31 -23
-15 0 -62 -3 -104 -7 l-78 -8 0 30 0 31 83 4 c45 1 91 4 103 5 11 1 23 0 26
-3z"/>
  <path d="M130 388 c0 -25 51 -89 68 -86 24 4 27 50 5 70 -26 24 -73 34 -73 16z"/>
  <path d="M710 77 c57 -61 90 -73 90 -33 0 28 -58 72 -109 82 l-34 7 53 -56z"/>
</g>
<g id="part-1" class="char-part">
  <path d="M246 582 c-3 -5 0 -26 6 -48 6 -24 8 -82 5 -149 -7 -133 -31 -210
-87 -276 -22 -26 -40 -50 -40 -53 0 -9 66 33 87 56 11 13 32 45 45 71 l24 48
33 -36 c34 -38 56 -41 56 -9 0 13 -14 26 -42 39 -36 17 -42 25 -42 50 0 44 16
119 26 122 4 2 32 17 61 34 44 25 51 33 41 45 -20 24 -44 16 -75 -26 -16 -22
-33 -40 -37 -40 -8 0 -3 66 9 131 4 20 -1 28 -21 37 -31 14 -42 15 -49 4z"/>
  <path d="M130 393 c0 -4 11 -25 25 -46 30 -43 55 -49 55 -13 0 24 -23 56 -40
56 -5 0 -15 3 -24 6 -9 3 -16 2 -16 -3z"/>
</g>
<g id="part-2" class="char-part">
  <path d="M547 552 c-73 -10 -116 -20 -114 -26 2 -7 25 -10 56 -8 57 4 63 -5
36 -58 -22 -43 2 -40 45 5 26 27 31 37 21 48 -9 12 -3 15 35 21 26 3 71 6 100
6 53 0 78 13 48 24 -23 9 -96 5 -227 -12z"/>
</g>
<g id="part-3" class="char-part">
  <path d="M615 444 c-38 -7 -92 -13 -120 -13 l-50 -1 2 -107 c2 -89 5 -109 17
-111 11 -2 16 4 16 18 0 26 5 27 117 33 82 5 92 4 96 -13 3 -13 11 -16 31 -13
25 5 26 8 26 68 0 34 3 76 6 93 5 27 2 32 -24 46 -17 9 -35 15 -39 15 -4 -1
-39 -7 -78 -15z m71 -39 c4 -14 5 -27 3 -29 -2 -2 -48 -7 -102 -11 l-99 -7 4
24 c3 23 30 30 175 47 7 0 15 -10 19 -24z m4 -85 c0 -30 -1 -30 -54 -30 -29 0
-74 -3 -100 -6 -44 -6 -46 -6 -46 18 0 24 4 26 78 35 126 16 122 17 122 -17z"/>
</g>
<g id="part-4" class="char-part">
  <path d="M482 128 c-18 -24 -51 -58 -74 -75 -22 -18 -38 -33 -34 -33 15 0 93
45 146 83 30 23 57 43 60 45 2 2 -2 7 -10 12 -30 19 -56 10 -88 -32z"/>
  <path d="M710 75 c59 -60 90 -70 90 -31 0 25 -29 51 -83 74 -60 26 -62 13 -7
-43z"/>
</g>
</g>
</svg>