<?xml version="1.0" standalone="no"?>
<!DOCTYPE svg PUBLIC "-//W3C//DTD SVG 20010904//EN"
 "http://www.w3.org/TR/2001/REC-SVG-20010904/DTD/svg10.dtd">
<svg version="1.0" xmlns="http://www.w3.org/2000/svg"
 width="96.000000pt" height="68.000000pt" viewBox="0 0 96.000000 68.000000"
 preserveAspectRatio="xMidYMid meet">
<metadata>
Created by potrace 1.16, written by Peter Selinger 2001-2019
Combined from part_0.svg through part_5.svg with named groups
</metadata>
<g transform="translate(0.000000,68.000000) scale(0.100000,-0.100000)" fill="#000000" stroke="none">
<g id="part-0" class="char-part">
  <path d="M620 580 c-54 -13 -363 -31 -400 -24 l-33 7 9 -39 c11 -47 6 -303 -6
-361 -15 -67 20 -135 47 -89 6 10 55 15 208 20 110 3 205 3 211 -1 6 -5 16
-18 23 -30 14 -27 33 -29 52 -6 11 13 14 65 14 237 1 122 3 230 5 241 8 33
-68 60 -130 45z m46 -52 c11 -17 22 -243 17 -323 l-6 -70 -216 -4 -216 -3 3
93 c1 52 5 140 8 197 l6 102 46 0 c26 0 63 3 83 6 34 6 36 5 47 -34 7 -21 12
-42 12 -45 0 -3 -31 -8 -70 -12 -38 -4 -70 -11 -70 -17 0 -6 30 -7 80 -2 61 5
80 4 80 -6 0 -7 12 -35 26 -63 31 -63 27 -83 -31 -136 -25 -23 -45 -44 -45
-46 0 -11 61 27 90 55 17 17 33 30 36 30 3 0 23 -18 45 -40 36 -35 79 -53 79
-32 -1 18 -28 105 -29 91 -1 -9 -7 -22 -14 -28 -11 -8 -19 -5 -37 14 -21 22
-22 27 -10 55 7 18 20 38 28 46 11 12 11 18 2 29 -22 27 -48 18 -52 -17 -5
-48 -23 -44 -46 9 l-21 48 40 8 c48 10 43 25 -8 24 -36 -1 -38 1 -41 31 -2 18
-9 32 -15 33 -7 1 -1 5 13 9 40 13 178 12 186 -2z"/>
  <path d="M560 505 c0 -13 37 -45 52 -45 27 0 21 29 -8 40 -28 11 -44 13 -44 5z"/>
  <path d="M380 369 c-14 -4 -42 -7 -62 -8 l-38 -1 14 -32 c8 -18 17 -40 19 -49
8 -26 103 -4 110 25 2 11 8 29 11 38 10 22 -21 37 -54 27z m10 -43 c0 -39 -54
-51 -63 -14 -8 30 -1 38 34 38 24 0 29 -4 29 -24z"/>
  <path d="M342 223 c-34 -8 -60 -19 -57 -24 11 -16 59 -9 110 15 57 28 39 31
-53 9z"/>
</g>
<g id="part-1" class="char-part">
  <path d="M580 570 c-25 -5 -123 -11 -218 -16 -169 -7 -172 -7 -165 -28 10 -28
10 -261 0 -356 -7 -60 -5 -79 7 -95 15 -20 15 -20 29 -1 13 18 31 20 218 24
l203 5 23 -29 c19 -24 26 -27 40 -18 16 10 18 32 19 215 0 112 4 221 8 241 7
34 6 38 -23 52 -32 17 -68 18 -141 6z m83 -35 c19 -18 29 -141 25 -292 l-3
-112 -223 -5 -223 -6 7 198 c4 108 7 198 8 199 3 3 302 30 353 32 25 0 47 -5
56 -14z"/>
</g>
<g id="part-2" class="char-part">
  <path d="M420 523 c1 -5 7 -19 15 -33 25 -43 19 -48 -60 -55 -41 -4 -75 -12
-75 -17 0 -7 28 -8 80 -4 l79 7 31 -60 c16 -33 30 -68 30 -76 0 -9 -24 -41
-54 -71 -30 -30 -51 -54 -47 -54 11 0 97 58 111 75 10 13 19 9 58 -25 24 -22
53 -40 64 -40 16 0 18 5 12 37 -9 47 -22 84 -24 63 0 -8 -5 -22 -10 -30 -7
-12 -13 -11 -34 10 -32 29 -32 38 -1 84 32 47 31 52 -5 65 -28 9 -30 9 -31
-17 0 -15 -4 -36 -9 -47 -7 -18 -10 -14 -29 25 -28 61 -27 68 15 76 30 5 34 8
20 16 -10 6 -28 7 -41 4 -24 -6 -35 8 -35 44 0 10 -10 20 -22 24 -30 8 -38 7
-38 -1z"/>
  <path d="M570 485 c26 -27 60 -33 60 -10 0 17 -30 35 -61 35 l-22 0 23 -25z"/>
</g>
<g id="part-3" class="char-part">
  <path d="M370 370 c-8 -5 -31 -10 -52 -10 l-36 0 17 -47 c9 -27 19 -47 21 -47
3 1 29 5 58 9 28 4 50 10 47 14 -2 5 1 22 8 40 10 27 9 33 -3 41 -19 12 -41
12 -60 0z m20 -44 c0 -39 -54 -51 -63 -14 -7 25 7 38 41 38 17 0 22 -6 22 -24z"/>
</g>
<g id="part-4" class="char-part">
  <path d="M372 230 c-93 -19 -102 -24 -75 -38 14 -8 37 -3 93 19 110 45 109 46
-18 19z"/>
</g>
</g>
</svg>