<?xml version="1.0" standalone="no"?>
<!DOCTYPE svg PUBLIC "-//W3C//DTD SVG 20010904//EN"
 "http://www.w3.org/TR/2001/REC-SVG-20010904/DTD/svg10.dtd">
<svg version="1.0" xmlns="http://www.w3.org/2000/svg"
 width="96.000000pt" height="68.000000pt" viewBox="0 0 96.000000 68.000000"
 preserveAspectRatio="xMidYMid meet">
<metadata>
Created by potrace 1.16, written by Peter Selinger 2001-2019
Combined from part_0.svg through part_5.svg with named groups
</metadata>
<g transform="translate(0.000000,68.000000) scale(0.100000,-0.100000)" fill="#000000" stroke="none">
<g id="part-0" class="char-part">
  <path d="M565 578 c-33 -6 -67 -13 -75 -16 -34 -12 27 -14 93 -2 38 7 71 9 75
5 4 -4 -5 -17 -20 -30 -18 -16 -35 -21 -55 -18 l-28 4 24 -20 c28 -25 22 -28
-69 -35 -81 -6 -80 -5 -51 -17 13 -5 46 -6 72 -3 27 4 49 4 49 2 0 -8 -104
-75 -129 -83 -12 -4 -20 -9 -17 -12 13 -13 109 33 154 75 21 19 32 14 32 -13
0 -17 -7 -28 -20 -33 -20 -8 -20 -8 -1 -29 20 -21 20 -21 -3 -27 -13 -3 -52
-6 -87 -7 l-64 -2 -1 -67 c-1 -37 -7 -90 -13 -118 -11 -53 -6 -85 12 -79 16 5
27 51 35 152 l7 90 38 3 c44 4 46 -6 11 -47 -14 -17 -21 -31 -15 -31 17 0 71
58 71 75 0 9 10 15 24 15 21 0 25 -5 28 -37 3 -38 3 -38 52 -41 36 -2 47 0 44
10 -3 7 -21 14 -41 16 -20 2 -37 5 -37 7 0 2 4 15 10 29 7 20 17 26 39 26 57
0 59 -3 60 -113 1 -56 -3 -108 -8 -116 -6 -9 -18 -11 -42 -6 l-34 7 39 -36
c21 -20 43 -35 50 -33 24 8 34 57 38 181 4 156 3 156 -99 139 -37 -7 -68 -11
-68 -10 0 1 1 32 3 70 l4 67 44 0 c41 0 59 -13 32 -23 -29 -10 4 -18 43 -10
50 10 57 22 25 45 -20 14 -33 15 -91 7 -37 -5 -70 -8 -72 -6 -6 7 8 37 17 37
5 0 25 10 45 21 28 17 33 24 24 35 -13 16 -62 16 -154 2z"/>
  <path d="M255 539 c9 -16 25 -39 35 -49 23 -23 26 -22 -98 -39 -41 -5 -77 -12
-80 -15 -11 -12 16 -27 49 -29 43 -1 251 33 263 44 13 12 -35 28 -65 22 -24
-4 -25 -2 -21 25 3 23 -2 34 -23 51 -15 11 -38 21 -52 21 -23 0 -23 -1 -8 -31z"/>
  <path d="M267 370 c-65 -12 -55 -23 16 -17 38 2 74 10 80 16 13 13 -34 13 -96
1z"/>
  <path d="M262 300 c-42 -10 -53 -20 -21 -20 51 0 129 13 129 21 0 11 -62 10
-108 -1z"/>
  <path d="M305 230 c-11 -5 -45 -9 -75 -10 -45 0 -52 -3 -40 -13 8 -7 22 -32
30 -57 11 -30 21 -44 30 -42 8 2 39 6 68 9 42 5 52 9 47 21 -3 8 3 29 13 46
10 17 17 37 14 44 -4 14 -57 15 -87 2z m27 -49 c-5 -39 -59 -62 -79 -34 -30
40 -13 59 53 62 28 1 30 -1 26 -28z"/>
  <path d="M620 198 c-19 -5 -51 -8 -71 -5 l-36 5 16 -43 c9 -23 18 -43 21 -45
3 -2 35 0 73 4 43 5 67 12 65 19 -1 7 3 22 10 35 23 41 -4 51 -78 30z m40 -33
c0 -18 -6 -21 -57 -30 -41 -6 -43 -6 -43 19 0 22 5 25 43 28 49 4 57 1 57 -17z"/>
</g>
<g id="part-1" class="char-part">
  <path d="M267 525 c27 -50 63 -63 63 -22 0 30 -11 44 -43 56 -45 17 -47 14
-20 -34z"/>
  <path d="M216 452 c-99 -13 -107 -16 -90 -29 21 -16 47 -14 199 11 50 8 91 15
93 16 2 0 0 5 -3 10 -8 13 -65 11 -199 -8z"/>
</g>
<g id="part-2" class="char-part">
  <path d="M300 230 c-14 -4 -47 -8 -74 -9 -46 -1 -48 -2 -33 -18 8 -10 19 -31
23 -48 11 -47 20 -54 62 -44 20 4 50 11 66 14 15 3 26 9 23 12 -4 3 3 24 14
46 17 32 18 41 7 48 -16 10 -54 10 -88 -1z m34 -47 c-8 -35 -5 -32 -43 -43
-29 -8 -33 -6 -41 16 -18 46 -11 52 53 53 36 1 37 0 31 -26z"/>
</g>
<g id="part-3" class="char-part">
  <path d="M615 584 c-33 -7 -77 -13 -97 -14 -21 0 -38 -4 -38 -10 0 -13 43 -13
114 1 31 7 59 9 63 5 4 -3 -4 -17 -17 -31 -13 -14 -20 -25 -16 -25 19 0 116
51 112 59 -14 21 -62 27 -121 15z"/>
</g>
<g id="part-4" class="char-part">
  <path d="M546 424 c-25 -19 -65 -44 -89 -54 -49 -23 -24 -27 28 -6 45 19 125
74 125 86 0 17 -16 11 -64 -26z"/>
</g>
<g id="part-5" class="char-part">
  <path d="M740 340 c0 -7 -7 -10 -16 -6 -9 3 -12 2 -8 -5 3 -6 15 -9 25 -6 10
3 22 1 25 -4 16 -27 12 -221 -6 -249 -6 -9 -13 -9 -31 0 l-24 12 25 -25 c14
-13 28 -23 32 -21 3 2 8 0 10 -6 2 -6 9 -1 16 10 10 17 10 20 -5 21 -14 0 -13
2 4 9 22 9 23 14 20 115 -1 59 2 110 7 115 13 13 -11 37 -46 45 -19 5 -28 3
-28 -5z m65 -21 c11 -16 1 -19 -13 -3 -7 8 -8 14 -3 14 5 0 13 -5 16 -11z"/>
  <path d="M668 323 c6 -2 18 -2 25 0 6 3 1 5 -13 5 -14 0 -19 -2 -12 -5z"/>
  <path d="M526 312 c-2 -4 11 -6 30 -4 19 2 34 6 34 8 0 8 -59 4 -64 -4z"/>
  <path d="M453 249 c1 -33 -1 -59 -5 -59 -4 0 -7 -10 -7 -22 0 -13 -2 -38 -5
-55 -4 -26 -1 -33 11 -33 9 0 13 6 9 15 -3 8 -2 15 3 15 4 0 8 24 10 53 1 28
4 59 7 69 3 9 0 19 -6 23 -5 3 -10 11 -10 16 0 6 5 7 10 4 6 -3 10 0 10 9 0 8
6 16 13 19 6 2 0 4 -15 4 -26 0 -27 -1 -25 -58z"/>
</g>
</g>
</svg>