<?xml version="1.0" standalone="no"?>
<!DOCTYPE svg PUBLIC "-//W3C//DTD SVG 20010904//EN"
 "http://www.w3.org/TR/2001/REC-SVG-20010904/DTD/svg10.dtd">
<svg version="1.0" xmlns="http://www.w3.org/2000/svg"
 width="96.000000pt" height="68.000000pt" viewBox="0 0 96.000000 68.000000"
 preserveAspectRatio="xMidYMid meet">
<metadata>
Created by potrace 1.16, written by Peter Selinger 2001-2019
Combined from part_0.svg through part_5.svg with named groups
</metadata>
<g transform="translate(0.000000,68.000000) scale(0.100000,-0.100000)" fill="#000000" stroke="none">
<g id="part-0" class="char-part">
  <path d="M208 585 c-3 -4 -2 -21 3 -38 12 -43 11 -213 -2 -359 -8 -89 -8 -127
0 -146 11 -24 12 -24 31 -7 17 15 20 31 20 99 0 45 3 125 7 179 l6 98 22 -21
c36 -34 73 -22 60 19 -4 13 -19 22 -45 26 -44 7 -45 11 -31 82 6 29 5 46 -3
52 -16 13 -60 23 -68 16z"/>
  <path d="M520 517 c-91 -11 -167 -21 -169 -23 -2 -2 4 -10 12 -19 26 -26 31
-82 20 -250 -6 -87 -8 -165 -5 -173 3 -10 14 -12 36 -7 69 15 177 24 294 25
121 0 144 7 100 31 -16 8 -48 9 -127 0 -58 -5 -141 -13 -183 -16 l-78 -5 0
163 c0 89 3 178 6 198 7 44 11 45 175 55 63 4 125 10 139 14 l25 7 -28 12
c-16 6 -34 10 -40 10 -7 -1 -86 -10 -177 -22z"/>
  <path d="M582 438 c3 -33 2 -33 -42 -36 -66 -5 -75 -22 -12 -22 l52 0 0 -61
c0 -74 -26 -127 -84 -170 -22 -16 -33 -29 -25 -29 25 0 107 57 114 79 6 20 45
31 45 12 0 -12 91 -81 107 -81 10 0 12 6 7 22 -9 29 -39 54 -91 74 l-42 16 6
47 c12 90 16 96 59 99 21 2 43 7 48 12 10 10 -27 20 -64 17 -21 -2 -25 2 -25
23 0 20 -6 26 -28 28 -27 3 -28 1 -25 -30z"/>
  <path d="M121 362 c-25 -54 -25 -95 1 -100 36 -7 66 111 35 137 -11 8 -18 1
-36 -37z"/>
  <path d="M666 318 c-11 -24 -22 -46 -24 -50 -8 -16 15 -7 36 13 l22 20 30 -21
c29 -20 50 -20 50 1 0 6 -13 15 -30 20 -22 8 -29 16 -27 32 1 15 -4 23 -18 25
-15 2 -25 -8 -39 -40z"/>
  <path d="M500 329 c0 -6 -14 -30 -30 -55 -33 -47 -30 -57 7 -22 20 18 26 20
48 10 33 -15 35 -15 35 2 0 8 -9 18 -20 21 -22 7 -26 20 -10 30 6 4 8 11 5 16
-8 13 -35 11 -35 -2z"/>
</g>
<g id="part-1" class="char-part">
  <path d="M216 548 c11 -44 7 -277 -6 -382 -11 -88 -2 -142 23 -133 19 6 26 68
26 235 1 83 4 152 7 152 3 0 19 -11 36 -25 37 -31 48 -31 48 0 0 19 -7 26 -27
31 -57 12 -56 10 -50 74 6 52 4 61 -13 70 -10 5 -26 10 -35 10 -14 0 -15 -6
-9 -32z"/>
  <path d="M122 355 c-26 -53 -27 -68 -8 -84 30 -25 70 77 44 112 -12 17 -15 14
-36 -28z"/>
</g>
<g id="part-2" class="char-part">
  <path d="M505 515 c-102 -13 -163 -25 -153 -30 31 -13 41 -80 34 -222 -4 -72
-11 -145 -16 -162 -5 -20 -4 -35 4 -47 12 -15 18 -16 62 -4 27 7 130 15 229
19 178 6 180 6 153 24 -25 17 -34 17 -198 3 -94 -9 -178 -16 -187 -16 -13 0
-15 24 -12 194 2 107 7 197 11 201 3 4 78 13 165 20 87 7 160 14 163 14 3 1
-4 8 -14 16 -24 18 -28 18 -241 -10z"/>
</g>
<g id="part-3" class="char-part">
  <path d="M579 471 c-1 -3 0 -21 1 -38 2 -33 1 -33 -44 -33 -24 0 -48 -4 -51
-10 -4 -6 13 -10 44 -10 l51 0 0 -57 c-1 -77 -26 -131 -80 -168 -23 -16 -37
-31 -32 -33 22 -7 85 33 109 69 l26 39 58 -51 c55 -47 89 -58 89 -29 0 19 -50
58 -96 76 l-45 17 7 46 c14 92 16 96 65 101 58 7 52 26 -7 23 -46 -1 -46 -1
-41 27 5 25 3 28 -23 32 -17 3 -30 2 -31 -1z"/>
</g>
<g id="part-4" class="char-part">
  <path d="M680 341 c0 -10 -10 -30 -21 -45 -27 -35 -20 -42 14 -15 l27 20 29
-20 c35 -25 54 -27 49 -4 -2 9 -18 21 -36 25 -32 9 -42 23 -20 30 17 6 0 28
-23 28 -12 0 -19 -7 -19 -19z"/>
</g>
</g>
</svg>