<?xml version="1.0" standalone="no"?>
<!DOCTYPE svg PUBLIC "-//W3C//DTD SVG 20010904//EN"
 "http://www.w3.org/TR/2001/REC-SVG-20010904/DTD/svg10.dtd">
<svg version="1.0" xmlns="http://www.w3.org/2000/svg"
 width="96.000000pt" height="68.000000pt" viewBox="0 0 96.000000 68.000000"
 preserveAspectRatio="xMidYMid meet">
<metadata>
Created by potrace 1.16, written by Peter Selinger 2001-2019
Combined from part_0.svg through part_5.svg with named groups
</metadata>
<g transform="translate(0.000000,68.000000) scale(0.100000,-0.100000)" fill="#000000" stroke="none">
<g id="part-0" class="char-part">
  <path d="M517 583 c-4 -3 -7 -17 -7 -29 0 -13 -18 -58 -40 -100 -22 -43 -38
-79 -37 -81 2 -1 16 11 32 27 21 22 38 30 63 30 18 0 61 7 95 15 34 8 74 17
90 20 15 3 27 10 27 15 0 17 -62 11 -142 -14 -45 -14 -78 -19 -78 -14 0 6 13
32 29 58 28 46 29 49 12 64 -19 17 -34 20 -44 9z"/>
  <path d="M220 535 c0 -24 45 -67 66 -63 27 5 29 33 3 57 -27 25 -69 28 -69 6z"/>
  <path d="M325 470 c-26 -7 -61 -15 -172 -36 -45 -9 -22 -24 37 -24 l60 0 -7
-32 c-8 -46 -66 -140 -109 -178 -45 -39 -38 -49 13 -17 42 27 73 62 105 120
22 38 47 47 78 27 13 -8 12 -17 -3 -76 -19 -68 -42 -114 -59 -114 -5 0 -18 5
-29 10 -10 6 -19 7 -19 2 0 -16 41 -62 55 -62 24 0 62 61 95 150 l31 85 -22
18 c-12 9 -36 17 -55 17 -33 0 -45 12 -23 25 6 4 8 13 6 20 -4 8 15 18 55 29
37 10 58 21 55 29 -4 15 -51 18 -92 7z"/>
  <path d="M560 357 c0 -37 -4 -46 -25 -55 -35 -16 -35 -16 -35 18 0 17 -4 30
-9 30 -5 0 -16 3 -25 6 -14 5 -15 -1 -10 -40 6 -42 5 -46 -15 -46 -27 0 -28
-16 -1 -23 16 -4 20 -14 20 -44 0 -80 65 -123 187 -123 105 0 145 8 178 34
l28 23 -18 47 -18 48 -16 -44 c-22 -57 -62 -71 -181 -66 -117 6 -130 14 -130
84 0 49 2 55 26 64 40 16 44 13 44 -36 0 -63 22 -53 35 15 9 46 14 54 44 67
18 8 36 14 39 14 2 0 2 -27 -1 -60 -5 -55 -4 -60 10 -48 17 14 63 105 63 125
0 21 -57 26 -94 8 -38 -18 -59 -13 -49 11 3 9 0 20 -8 25 -29 18 -39 10 -39
-34z"/>
</g>
<g id="part-1" class="char-part">
  <path d="M220 545 c0 -18 44 -65 61 -65 22 0 26 32 6 48 -16 13 -67 26 -67 17z"/>
  <path d="M323 465 c-23 -7 -76 -19 -117 -25 -78 -13 -94 -30 -28 -30 40 0 186
24 215 35 10 4 16 13 14 19 -5 16 -36 16 -84 1z"/>
</g>
<g id="part-2" class="char-part">
  <path d="M286 351 c-4 -5 8 -12 25 -16 29 -7 31 -10 26 -39 -9 -57 -52 -151
-67 -150 -8 1 -25 4 -38 8 l-23 8 23 -36 c27 -41 46 -45 76 -13 20 21 62 108
62 129 0 5 8 26 17 45 16 35 16 36 -6 54 -24 20 -86 26 -95 10z"/>
</g>
<g id="part-3" class="char-part">
  <path d="M516 578 c-15 -57 -33 -101 -62 -150 -37 -64 -33 -74 11 -28 21 22
38 30 63 30 19 0 60 6 91 14 31 8 73 17 94 21 21 3 35 10 32 16 -10 15 -78 10
-140 -11 -95 -33 -102 -29 -60 32 19 29 35 55 35 59 0 5 -45 29 -56 29 -2 0
-6 -6 -8 -12z"/>
</g>
<g id="part-4" class="char-part">
  <path d="M457 315 c5 -41 4 -45 -16 -45 -11 0 -21 -4 -21 -10 0 -5 9 -10 20
-10 17 0 20 -7 20 -46 0 -85 73 -127 213 -123 84 2 127 13 158 37 l22 18 -20
52 -19 52 -12 -44 c-17 -63 -55 -80 -178 -74 -116 5 -134 17 -134 90 0 41 3
51 20 55 11 3 20 12 20 20 0 10 -6 12 -19 8 -17 -5 -20 -2 -18 21 1 19 -4 29
-20 35 -22 8 -22 7 -16 -36z"/>
</g>
<g id="part-5" class="char-part">
  <path d="M573 386 c3 -7 0 -19 -6 -25 -8 -8 -6 -11 9 -11 24 0 30 36 7 44 -10
4 -13 2 -10 -8z"/>
  <path d="M660 349 c-24 -13 -46 -17 -70 -13 -21 3 -30 2 -23 -3 9 -7 8 -12 -7
-23 -23 -17 -27 -32 -5 -24 12 5 15 -3 16 -37 0 -39 1 -41 10 -20 5 14 8 32 6
40 -4 20 38 61 64 61 10 0 19 5 19 10 0 6 5 10 11 10 5 0 7 -5 4 -10 -4 -7 2
-9 19 -4 15 3 26 2 26 -4 0 -5 -7 -9 -17 -8 -11 1 -19 -11 -25 -33 -15 -57 6
-54 35 4 26 54 25 59 -9 54 -4 0 -10 4 -13 9 -4 6 -20 2 -41 -9z"/>
</g>
</g>
</svg>