<?xml version="1.0" standalone="no"?>
<!DOCTYPE svg PUBLIC "-//W3C//DTD SVG 20010904//EN"
 "http://www.w3.org/TR/2001/REC-SVG-20010904/DTD/svg10.dtd">
<svg version="1.0" xmlns="http://www.w3.org/2000/svg"
 width="96.000000pt" height="68.000000pt" viewBox="0 0 96.000000 68.000000"
 preserveAspectRatio="xMidYMid meet">
<metadata>
Created by potrace 1.16, written by Peter Selinger 2001-2019
Combined from part_0.svg through part_5.svg with named groups
</metadata>
<g transform="translate(0.000000,68.000000) scale(0.100000,-0.100000)" fill="#000000" stroke="none">
<g id="part-0" class="char-part">
  <path d="M303 560 c-23 -5 -51 -14 -62 -19 -11 -6 -36 -11 -56 -11 -36 0 -37
-1 -29 -27 12 -38 8 -222 -6 -314 -9 -59 -9 -82 0 -98 31 -59 47 34 52 301 l1
108 34 6 c43 8 50 1 29 -31 -16 -25 -16 -28 8 -72 34 -61 34 -83 -1 -83 l-28
0 25 -20 c63 -50 93 10 41 82 -17 23 -31 46 -31 50 0 4 21 28 48 53 43 42 46
47 30 59 -10 7 -15 16 -11 19 3 4 4 7 2 6 -2 -1 -23 -5 -46 -9z"/>
  <path d="M520 535 c0 -3 9 -23 20 -45 11 -22 20 -41 20 -43 0 -3 -28 -7 -62
-11 -107 -12 -138 -18 -138 -28 0 -6 29 -9 72 -7 70 4 73 3 74 -19 1 -12 -2
-25 -7 -28 -5 -3 -16 -20 -24 -38 -9 -18 -52 -70 -96 -114 -44 -45 -75 -82
-69 -82 32 0 150 105 206 184 20 27 23 28 54 18 18 -7 43 -12 56 -12 12 0 24
-6 27 -12 9 -29 -30 -133 -61 -161 -17 -16 -22 -16 -57 -1 -35 14 -37 14 -31
-1 12 -33 51 -74 70 -74 32 -1 80 62 114 148 18 45 32 88 32 96 0 16 -16 22
-95 31 -71 8 -80 12 -65 29 7 8 9 23 6 33 -6 18 2 19 115 25 68 4 124 9 127
11 2 3 1 10 -3 17 -6 9 -35 10 -106 6 l-99 -6 0 24 c0 28 -35 65 -62 65 -10 0
-18 -2 -18 -5z"/>
</g>
<g id="part-1" class="char-part">
  <path d="M263 542 c-59 -24 -66 -36 -15 -28 47 7 48 6 26 -35 -23 -46 -9 -47
38 -3 55 51 60 57 45 65 -30 16 -55 16 -94 1z"/>
</g>
<g id="part-2" class="char-part">
  <path d="M157 498 c11 -44 6 -214 -9 -311 -12 -81 -6 -112 23 -112 16 0 25 86
30 310 l4 140 -28 3 c-28 3 -29 3 -20 -30z"/>
</g>
<g id="part-3" class="char-part">
  <path d="M520 528 c0 -7 9 -28 21 -47 11 -18 19 -34 17 -36 -2 -1 -49 -8 -105
-15 -119 -14 -134 -36 -19 -26 39 3 138 10 221 16 82 6 152 13 154 16 10 9
-17 25 -45 26 -16 1 -59 -2 -96 -6 -67 -8 -68 -8 -68 15 0 30 -9 43 -37 58
-28 14 -43 14 -43 -1z"/>
</g>
<g id="part-4" class="char-part">
  <path d="M510 395 c0 -37 -55 -118 -134 -198 -48 -48 -78 -84 -69 -80 61 22
137 93 221 204 46 61 50 74 26 83 -27 10 -44 7 -44 -9z"/>
</g>
<g id="part-5" class="char-part">
  <path d="M556 329 c2 -4 27 -10 54 -14 l50 -7 0 -45 c0 -27 -4 -42 -10 -38 -5
3 -10 -2 -10 -12 0 -10 -7 -28 -15 -39 -8 -12 -11 -24 -8 -28 3 -3 1 -6 -6 -6
-7 0 -9 -5 -5 -11 7 -13 -56 -8 -91 6 -20 8 -20 8 0 -14 11 -13 27 -20 37 -18
11 3 15 1 11 -6 -4 -6 2 -8 15 -5 13 4 20 2 16 -4 -3 -5 -15 -7 -26 -5 -12 4
-18 1 -15 -6 7 -20 41 -7 75 29 26 27 31 40 26 62 -4 21 -3 24 5 12 9 -12 11
-11 11 8 0 12 5 22 10 22 6 0 10 6 10 13 0 6 7 25 15 40 24 47 1 61 -122 71
-18 1 -30 -1 -27 -5z"/>
</g>
</g>
</svg>