<?xml version="1.0" standalone="no"?>
<!DOCTYPE svg PUBLIC "-//W3C//DTD SVG 20010904//EN"
 "http://www.w3.org/TR/2001/REC-SVG-20010904/DTD/svg10.dtd">
<svg version="1.0" xmlns="http://www.w3.org/2000/svg"
 width="96.000000pt" height="68.000000pt" viewBox="0 0 96.000000 68.000000"
 preserveAspectRatio="xMidYMid meet">
<metadata>
Created by potrace 1.16, written by Peter Selinger 2001-2019
Combined from part_0.svg through part_5.svg with named groups
</metadata>
<g transform="translate(0.000000,68.000000) scale(0.100000,-0.100000)" fill="#000000" stroke="none">
<g id="part-0" class="char-part">
  <path d="M329 564 c-19 -14 -58 -37 -86 -50 -29 -13 -53 -27 -53 -30 0 -6 61
1 108 13 19 4 22 1 22 -26 0 -22 -5 -31 -17 -32 -10 -1 -22 -2 -28 -3 -5 -1
-43 -5 -83 -10 -39 -4 -74 -12 -77 -16 -10 -16 48 -20 106 -9 33 6 62 9 65 6
7 -6 -51 -60 -103 -95 -18 -12 -33 -25 -33 -27 0 -11 61 20 108 55 29 22 54
40 55 40 2 0 3 -21 3 -47 -1 -37 3 -48 17 -51 14 -3 17 5 17 52 0 31 4 56 8
56 5 0 22 -11 38 -25 31 -27 47 -28 52 -3 3 15 -31 33 -72 40 -11 2 -21 9 -24
16 -2 8 10 12 45 12 52 0 83 12 64 25 -7 4 -34 4 -60 0 -48 -7 -49 -6 -43 20
2 15 0 30 -7 34 -7 5 4 12 28 20 49 14 60 30 36 48 -27 19 -47 16 -86 -13z"/>
  <path d="M615 543 c-112 -15 -159 -32 -95 -34 19 -1 43 -1 53 0 20 3 23 -25 5
-64 -9 -19 -19 -25 -45 -25 -18 0 -33 -4 -33 -10 0 -5 5 -10 11 -10 9 0 10
-30 6 -108 -6 -117 0 -145 27 -123 14 12 16 11 16 -7 0 -11 -25 -45 -57 -77
-76 -74 -35 -60 85 29 39 29 50 42 42 51 -13 16 8 25 60 25 28 0 41 -6 53 -22
12 -19 17 -21 29 -10 18 18 29 251 12 271 -15 16 -44 18 -134 7 l-65 -8 34 32
c27 25 31 34 20 40 -20 13 1 18 94 23 81 4 102 12 77 27 -19 12 -60 11 -195
-7z m119 -145 c3 -13 2 -26 -2 -29 -4 -4 -46 -10 -94 -14 -82 -7 -88 -6 -88
11 0 41 16 46 141 52 30 2 38 -2 43 -20z m6 -82 c0 -20 -7 -23 -87 -33 -91
-11 -106 -7 -100 27 2 11 23 17 81 22 43 4 81 10 84 12 10 10 22 -5 22 -28z
m0 -73 c0 -28 -1 -28 -68 -31 -37 -1 -79 -5 -94 -8 -25 -5 -28 -3 -28 19 0 24
4 26 58 32 31 3 64 8 72 9 48 11 60 6 60 -21z"/>
  <path d="M365 253 c8 -31 8 -93 -1 -136 -8 -37 18 -46 48 -17 13 12 33 29 46
37 32 22 27 36 -7 19 -16 -9 -31 -12 -35 -9 -3 4 -6 30 -6 59 0 42 -4 55 -19
64 -30 15 -34 13 -26 -17z"/>
  <path d="M244 232 c5 -44 -18 -100 -56 -134 -19 -18 -25 -28 -15 -24 10 3 22
6 25 6 22 0 66 56 83 105 11 32 19 59 17 60 -2 2 -15 6 -30 10 -26 7 -28 5
-24 -23z"/>
  <path d="M690 144 c0 -13 109 -114 123 -114 28 0 21 46 -10 70 -41 32 -113 60
-113 44z"/>
</g>
<g id="part-1" class="char-part">
  <path d="M346 569 c-15 -12 -51 -34 -79 -50 -67 -37 -38 -38 71 -2 82 27 99
43 63 63 -25 13 -24 13 -55 -11z"/>
</g>
<g id="part-2" class="char-part">
  <path d="M365 183 c1 -65 5 -98 13 -101 12 -4 116 78 108 85 -2 3 -18 -3 -35
-11 -37 -20 -43 -12 -40 54 3 55 3 55 -26 64 -19 5 -20 1 -20 -91z"/>
</g>
<g id="part-3" class="char-part">
  <path d="M595 540 c-87 -12 -114 -19 -100 -25 11 -5 37 -9 57 -10 40 0 44 -7
28 -49 -13 -36 8 -34 45 4 23 24 26 32 15 45 -11 13 -3 15 66 16 44 1 90 4
104 9 l25 7 -28 12 c-35 14 -61 13 -212 -9z"/>
</g>
<g id="part-4" class="char-part">
  <path d="M650 434 c-41 -7 -92 -13 -114 -13 -32 -1 -37 -3 -26 -15 7 -10 10
-43 8 -95 -3 -72 -1 -81 15 -81 9 0 17 7 17 15 0 9 9 14 28 13 15 -1 57 2 95
6 58 7 67 5 67 -8 0 -10 9 -16 26 -16 25 0 25 1 23 68 -1 37 2 79 6 93 6 23 3
28 -26 38 -17 6 -35 10 -38 10 -3 -1 -40 -7 -81 -15z m84 -30 c14 -36 7 -41
-75 -48 -44 -4 -86 -8 -92 -9 -7 -1 -13 10 -15 25 -3 29 3 33 73 41 73 9 103
7 109 -9z m6 -88 c0 -20 -7 -23 -83 -34 -110 -16 -107 -16 -107 18 0 29 2 30
48 31 26 0 65 4 87 8 48 9 55 6 55 -23z"/>
</g>
<g id="part-5" class="char-part">
  <path d="M557 141 c-9 -15 -14 -31 -12 -35 3 -3 2 -4 -2 -1 -8 6 -33 -14 -33
-26 0 -17 20 -9 52 22 20 19 26 29 15 25 -11 -4 -16 -2 -12 5 4 6 14 8 22 5
16 -6 46 17 36 28 -16 16 -50 4 -66 -23z"/>
  <path d="M721 129 c0 -8 14 -29 32 -45 43 -40 73 -62 64 -47 -4 6 -2 13 4 15
14 5 -28 58 -46 58 -7 0 -16 -6 -19 -12 -3 -7 -3 -2 1 12 5 22 4 23 -10 12
-13 -11 -16 -10 -20 5 -3 13 -5 14 -6 2z m84 -59 c-3 -5 -12 -10 -18 -10 -7 0
-6 4 3 10 19 12 23 12 15 0z"/>
</g>
</g>
</svg>