<?xml version="1.0" standalone="no"?>
<!DOCTYPE svg PUBLIC "-//W3C//DTD SVG 20010904//EN"
 "http://www.w3.org/TR/2001/REC-SVG-20010904/DTD/svg10.dtd">
<svg version="1.0" xmlns="http://www.w3.org/2000/svg"
 width="96.000000pt" height="68.000000pt" viewBox="0 0 96.000000 68.000000"
 preserveAspectRatio="xMidYMid meet">
<metadata>
Created by potrace 1.16, written by Peter Selinger 2001-2019
Combined from part_0.svg through part_5.svg with named groups
</metadata>
<g transform="translate(0.000000,68.000000) scale(0.100000,-0.100000)" fill="#000000" stroke="none">
<g id="part-0" class="char-part">
  <path d="M218 554 c-8 -7 28 -75 48 -90 17 -13 0 -18 -104 -30 -70 -8 -85 -18
-48 -35 20 -10 53 -7 161 12 137 24 167 41 82 47 -41 3 -47 6 -47 26 0 22 -33
66 -50 66 -4 0 -15 2 -22 5 -8 3 -17 3 -20 -1z"/>
  <path d="M570 524 c-41 -7 -90 -16 -108 -19 -48 -9 -29 -25 29 -25 l50 0 -3
-37 c-3 -36 -5 -37 -53 -48 l-50 -12 45 -4 c41 -4 45 -6 41 -29 -6 -49 -19
-60 -69 -60 -26 0 -53 -4 -61 -9 -26 -16 40 -22 144 -11 55 5 132 10 171 10
88 0 136 9 131 24 -2 6 -29 11 -65 11 -49 0 -62 3 -62 16 0 8 4 19 9 25 5 5
12 19 15 30 5 18 1 24 -24 33 -20 7 -39 7 -56 1 -52 -20 -62 -14 -60 35 l1 45
55 1 c30 1 66 4 80 8 l25 7 -22 12 c-26 15 -64 14 -163 -4z m104 -142 c2 -4
-2 -21 -9 -38 -9 -23 -21 -33 -45 -38 -74 -14 -80 -9 -56 49 14 33 18 35 60
35 25 0 47 -3 50 -8z"/>
  <path d="M253 357 c-61 -11 -70 -27 -15 -26 35 0 130 26 105 28 -6 1 -17 3
-25 5 -7 2 -37 -1 -65 -7z"/>
  <path d="M240 286 c-81 -17 -44 -30 43 -15 53 9 67 14 52 20 -25 10 -28 9 -95
-5z"/>
  <path d="M275 213 c-22 -8 -57 -13 -77 -11 -21 2 -38 3 -38 2 0 0 6 -14 14
-30 8 -16 19 -41 25 -56 10 -26 13 -27 63 -22 62 7 83 12 75 20 -3 4 3 24 14
46 29 57 -2 78 -76 51z m35 -47 c0 -31 -3 -34 -36 -41 -40 -7 -54 3 -54 42 0
17 7 23 33 26 17 2 38 5 45 5 7 1 12 -11 12 -32z"/>
  <path d="M562 216 c-94 -8 -120 -14 -111 -23 6 -6 17 -38 23 -70 l12 -58 39 2
c123 7 194 16 189 24 -3 5 7 30 22 56 l27 46 -24 18 c-13 10 -31 18 -39 17 -8
0 -70 -6 -138 -12z m115 -57 c-3 -22 -7 -43 -10 -45 -8 -8 -128 -23 -142 -18
-15 6 -30 73 -18 85 8 7 56 14 137 17 l39 2 -6 -41z"/>
</g>
<g id="part-1" class="char-part">
  <path d="M220 545 c0 -12 51 -85 59 -85 5 0 14 6 20 14 22 26 -20 76 -63 76
-9 0 -16 -2 -16 -5z"/>
  <path d="M230 440 c-63 -10 -122 -19 -130 -20 -9 0 -3 -7 13 -16 25 -14 37
-13 129 5 55 12 113 21 129 21 32 0 47 15 23 24 -20 8 -27 7 -164 -14z"/>
</g>
<g id="part-2" class="char-part">
  <path d="M270 214 c-27 -9 -61 -13 -84 -9 -38 6 -39 5 -24 -12 8 -10 22 -36
29 -58 16 -45 28 -58 44 -45 6 5 33 10 60 12 42 2 50 6 47 21 -2 10 4 29 12
42 22 34 20 52 -6 59 -27 7 -22 8 -78 -10z m40 -38 c0 -31 -25 -56 -55 -56
-17 0 -26 8 -34 31 -6 18 -11 33 -11 35 0 2 39 8 83 12 12 2 17 -5 17 -22z"/>
</g>
<g id="part-3" class="char-part">
  <path d="M553 521 c-62 -10 -116 -20 -119 -24 -13 -13 28 -19 84 -13 48 5 204
22 237 26 6 0 1 7 -9 15 -24 18 -49 18 -193 -4z"/>
</g>
<g id="part-4" class="char-part">
  <path d="M558 301 c-91 -9 -169 -19 -173 -22 -14 -15 52 -19 148 -10 56 5 150
13 210 16 101 7 128 15 91 29 -22 8 -84 6 -276 -13z"/>
</g>
<g id="part-5" class="char-part">
  <path d="M625 211 l-50 -5 55 -5 c60 -6 58 -4 46 -79 -6 -38 -4 -42 14 -42 18
0 19 3 9 23 -6 12 -8 19 -4 14 10 -9 57 72 49 84 -3 6 -11 5 -20 -2 -8 -6 -17
-9 -21 -5 -3 3 -1 6 6 6 7 0 9 5 6 10 -3 6 -14 9 -23 8 -9 -1 -39 -4 -67 -7z"/>
  <path d="M450 201 c0 -5 5 -11 11 -13 10 -3 19 -35 21 -78 1 -24 17 -38 43
-38 31 1 33 15 3 20 -15 2 -22 9 -22 20 1 10 -3 15 -9 11 -7 -4 -8 0 -4 12 4
9 2 24 -4 31 -13 16 -4 21 51 27 23 3 18 4 -16 4 -27 0 -55 3 -62 7 -7 4 -12
3 -12 -3z"/>
  <path d="M590 90 l-35 -7 35 -1 c19 0 44 3 55 8 l20 9 -20 -1 c-11 0 -36 -4
-55 -8z"/>
</g>
</g>
</svg>