<?xml version="1.0" standalone="no"?>
<!DOCTYPE svg PUBLIC "-//W3C//DTD SVG 20010904//EN"
 "http://www.w3.org/TR/2001/REC-SVG-20010904/DTD/svg10.dtd">
<svg version="1.0" xmlns="http://www.w3.org/2000/svg"
 width="96.000000pt" height="68.000000pt" viewBox="0 0 96.000000 68.000000"
 preserveAspectRatio="xMidYMid meet">
<metadata>
Created by potrace 1.16, written by Peter Selinger 2001-2019
Combined from part_0.svg through part_5.svg with named groups
</metadata>
<g transform="translate(0.000000,68.000000) scale(0.100000,-0.100000)" fill="#000000" stroke="none">
<g id="part-0" class="char-part">
  <path d="M370 606 c0 -47 -22 -66 -75 -66 -76 0 -65 -33 12 -34 18 -1 33 -2
33 -4 0 -28 -89 -123 -151 -159 -37 -22 -37 -35 -1 -27 40 10 77 31 118 66
l36 32 20 -27 c22 -30 46 -35 54 -12 6 15 -17 45 -35 45 -21 0 -21 20 1 57 12
21 22 39 23 40 0 1 56 7 124 12 69 6 128 14 133 19 5 5 -3 14 -22 22 -29 12
-59 11 -173 -7 -37 -6 -37 -5 -31 25 5 24 2 32 -14 41 -38 20 -52 14 -52 -23z"/>
  <path d="M470 446 c0 -68 -43 -124 -134 -173 -31 -17 -36 -23 -19 -23 38 0
107 36 140 75 35 41 31 41 108 -16 59 -44 105 -60 105 -35 0 25 -33 52 -86 71
-104 36 -105 46 -7 70 98 23 98 23 77 46 -24 26 -41 24 -81 -11 -43 -38 -66
-40 -57 -4 4 17 2 29 -7 35 -29 18 -39 10 -39 -35z"/>
  <path d="M480 225 c-58 -8 -138 -14 -178 -14 l-73 -1 20 -26 c22 -29 43 -92
35 -106 -3 -4 -41 -8 -85 -8 -81 0 -106 -14 -46 -25 19 -4 56 -4 83 -1 27 3
167 9 312 12 148 4 265 11 269 17 11 17 -22 27 -94 27 -40 0 -73 3 -73 8 0 4
11 25 25 47 31 51 31 59 0 73 -31 14 -58 14 -195 -3z m136 -52 c-3 -21 -6 -48
-6 -60 0 -20 -5 -23 -45 -23 -54 0 -55 2 -17 76 8 16 7 25 -1 33 -8 8 0 11 32
11 l44 0 -7 -37z m-222 -20 c24 -69 22 -73 -28 -73 -41 0 -44 2 -49 33 -4 17
-9 42 -13 54 -6 22 -4 23 63 32 6 0 18 -20 27 -46z m106 -7 c0 -51 -2 -54 -27
-59 -35 -7 -43 5 -43 66 l0 47 35 0 35 0 0 -54z"/>
</g>
<g id="part-1" class="char-part">
  <path d="M376 632 c-3 -3 -6 -23 -6 -44 0 -42 -2 -43 -74 -53 -57 -8 -50 -22
12 -27 l43 -3 -30 -47 c-17 -26 -58 -68 -92 -93 -65 -48 -56 -62 14 -20 55 32
102 78 133 131 14 24 33 45 42 48 9 3 68 8 130 12 61 3 112 10 112 15 0 20
-68 26 -150 13 -46 -7 -86 -12 -88 -10 -2 3 2 14 8 26 8 15 8 25 0 35 -12 15
-46 26 -54 17z"/>
</g>
<g id="part-2" class="char-part">
  <path d="M468 461 c2 -16 -1 -45 -8 -65 -14 -42 -95 -118 -142 -133 l-33 -11
30 -1 c44 -1 105 30 143 73 l32 37 72 -51 c76 -53 108 -63 108 -31 0 28 -38
54 -109 76 -34 10 -61 23 -61 30 0 6 36 20 80 30 45 10 83 22 86 26 6 11 -25
39 -44 39 -8 0 -25 -8 -36 -19 -12 -10 -33 -26 -47 -35 l-26 -17 1 38 c1 34
-2 38 -25 41 -23 3 -25 0 -21 -27z"/>
  <path d="M340 425 c0 -16 42 -65 56 -65 21 0 29 29 13 45 -16 15 -69 31 -69
20z"/>
</g>
<g id="part-3" class="char-part">
  <path d="M411 221 c-156 -14 -182 -18 -168 -29 9 -8 23 -36 32 -63 10 -31 22
-49 32 -49 12 0 14 7 9 33 -13 71 -13 70 24 78 19 4 91 10 159 14 l123 6 -6
-55 c-7 -51 -6 -56 12 -56 12 0 24 11 32 30 7 16 18 35 26 41 22 18 16 45 -11
57 -30 14 -22 14 -264 -7z"/>
</g>
<g id="part-4" class="char-part">
  <path d="M517 202 c-13 -2 -18 -12 -17 -30 5 -70 1 -80 -30 -84 -33 -5 -37 2
-42 72 -3 29 -7 35 -26 36 -15 1 -21 -3 -18 -11 13 -36 29 -96 25 -99 -2 -3
-69 -8 -149 -13 -126 -7 -142 -10 -122 -21 18 -10 58 -11 200 -3 97 6 240 11
317 12 77 1 149 5 160 9 19 7 18 7 -5 20 -18 10 -57 11 -158 6 -107 -5 -133
-4 -130 6 35 93 34 109 -5 100z"/>
</g>
</g>
</svg>