<?xml version="1.0" standalone="no"?>
<!DOCTYPE svg PUBLIC "-//W3C//DTD SVG 20010904//EN"
 "http://www.w3.org/TR/2001/REC-SVG-20010904/DTD/svg10.dtd">
<svg version="1.0" xmlns="http://www.w3.org/2000/svg"
 width="96.000000pt" height="68.000000pt" viewBox="0 0 96.000000 68.000000"
 preserveAspectRatio="xMidYMid meet">
<metadata>
Created by potrace 1.16, written by Peter Selinger 2001-2019
Combined from part_0.svg through part_5.svg with named groups
</metadata>
<g transform="translate(0.000000,68.000000) scale(0.100000,-0.100000)" fill="#000000" stroke="none">
<g id="part-0" class="char-part">
  <path d="M740 559 c-19 -4 -91 -11 -160 -15 l-125 -7 0 -131 c0 -117 -3 -140
-29 -216 -15 -47 -32 -89 -37 -94 -21 -23 -7 -27 17 -5 34 30 62 93 78 172
l13 62 89 6 c49 4 112 8 139 10 l50 3 3 -64 c2 -36 1 -93 -3 -128 -7 -66 -20
-76 -66 -52 -33 18 -21 -6 23 -43 46 -39 57 -39 81 2 15 25 17 56 15 223 -1
106 1 207 6 225 7 29 4 33 -23 47 -16 9 -31 16 -33 15 -2 -1 -19 -5 -38 -10z
m38 -52 c2 -10 1 -28 -2 -40 -5 -19 -12 -22 -61 -22 l-55 0 0 37 c0 20 -6 39
-12 42 -7 3 18 4 57 3 59 -2 70 -5 73 -20z m-174 -3 c3 -9 6 -29 6 -45 0 -28
-2 -29 -45 -29 -25 0 -48 -1 -52 -2 -13 -5 -15 63 -2 78 16 20 85 19 93 -2z
m174 -105 c-3 -31 -3 -31 -66 -32 -61 -2 -63 -1 -60 23 3 26 28 36 96 39 31 1
33 -1 30 -30z m-168 -13 c0 -28 -16 -36 -71 -36 -37 0 -39 2 -39 30 0 30 1 30
55 30 51 0 55 -2 55 -24z"/>
  <path d="M300 505 c-36 -7 -80 -13 -97 -14 -48 -1 -45 -31 2 -31 30 0 35 -3
35 -23 0 -26 -33 -78 -98 -155 -25 -29 -42 -55 -39 -59 7 -7 51 20 87 53 l25
23 12 -25 c6 -13 7 -22 3 -19 -5 3 -5 -7 -1 -22 4 -16 12 -28 17 -28 5 1 37 4
72 9 49 6 62 12 62 25 0 10 7 32 16 50 29 59 9 71 -86 50 -28 -6 -54 -9 -56
-6 -3 3 7 24 22 48 14 23 27 53 27 65 0 13 2 22 6 22 17 -5 111 14 111 22 0
10 -34 31 -47 29 -4 -1 -37 -7 -73 -14z m53 -192 c3 -5 2 -22 0 -39 -4 -28
-10 -32 -45 -38 -48 -8 -48 -8 -55 34 -3 21 0 36 9 41 16 11 85 12 91 2z"/>
  <path d="M660 290 c-14 -4 -48 -8 -77 -9 l-52 -1 15 -27 c7 -16 14 -35 14 -43
0 -26 17 -43 31 -34 14 9 24 10 92 13 21 0 36 5 33 9 -2 4 2 22 11 40 25 51
-3 73 -67 52z m20 -50 c0 -29 -1 -30 -45 -30 -31 0 -47 5 -51 15 -11 28 3 40
50 43 45 3 46 2 46 -28z"/>
</g>
<g id="part-1" class="char-part">
  <path d="M340 506 c-3 -2 -36 -7 -75 -11 -92 -9 -114 -22 -57 -31 41 -6 43 -8
37 -33 -8 -33 -41 -83 -94 -145 -44 -51 -48 -70 -9 -43 71 48 164 173 155 207
-4 16 4 19 55 25 37 5 58 11 55 19 -3 11 -58 21 -67 12z"/>
</g>
<g id="part-2" class="char-part">
  <path d="M330 345 c-19 -7 -49 -14 -67 -14 -43 -1 -54 -23 -37 -78 18 -59 23
-66 38 -54 7 6 38 13 69 17 31 4 54 11 51 15 -3 5 4 30 16 55 11 26 19 48 18
49 -7 5 -47 25 -50 24 -2 0 -19 -7 -38 -14z m13 -96 c-4 -4 -24 -9 -42 -11
-32 -3 -36 0 -44 30 -12 40 -8 44 46 51 42 6 42 6 45 -28 2 -18 0 -37 -5 -42z"/>
</g>
<g id="part-3" class="char-part">
  <path d="M730 559 c-19 -5 -89 -12 -156 -15 l-121 -7 5 -92 c6 -112 -16 -232
-59 -325 l-30 -65 30 29 c63 61 100 179 101 323 0 58 4 86 15 96 16 16 234 35
254 23 13 -8 15 -325 3 -391 -7 -34 -11 -40 -32 -39 -14 1 -34 4 -45 9 -11 4
3 -13 30 -39 28 -25 53 -46 57 -46 4 0 16 12 28 27 21 27 22 35 17 181 -2 85
-1 188 4 230 8 73 8 78 -14 94 -24 19 -35 20 -87 7z"/>
</g>
<g id="part-4" class="char-part">
  <path d="M607 476 l6 -46 -46 0 c-25 0 -49 -4 -52 -10 -4 -6 13 -10 45 -10 50
0 51 -1 48 -27 -3 -26 -7 -28 -55 -31 -29 -2 -53 -8 -53 -14 0 -12 228 -2 264
12 20 7 20 7 -3 15 -12 4 -43 4 -67 0 -44 -6 -44 -6 -44 24 0 29 1 30 60 37
36 4 57 11 53 17 -3 5 -28 7 -58 4 l-52 -5 1 36 c1 33 -2 37 -25 40 -26 3 -27
2 -22 -42z"/>
</g>
<g id="part-5" class="char-part">
  <path d="M690 288 c0 -5 -4 -6 -10 -3 -5 3 -18 2 -27 -4 -14 -8 -11 -9 15 -6
29 3 32 2 21 -11 -10 -13 -10 -17 0 -23 10 -7 8 -12 -8 -23 -21 -15 -19 -28 6
-28 8 0 11 5 8 10 -3 6 -3 10 2 10 11 0 44 60 38 70 -7 12 -45 19 -45 8z"/>
  <path d="M554 258 c-4 -6 -2 -14 4 -16 6 -2 8 -10 5 -19 -4 -11 -2 -14 5 -9
16 10 15 36 0 36 -9 0 -8 4 2 10 9 6 10 10 3 10 -6 0 -15 -5 -19 -12z"/>
  <path d="M576 194 c-6 -16 2 -18 22 -5 11 7 11 9 -1 14 -9 3 -18 -1 -21 -9z"/>
</g>
</g>
</svg>