<?xml version="1.0" standalone="no"?>
<!DOCTYPE svg PUBLIC "-//W3C//DTD SVG 20010904//EN"
 "http://www.w3.org/TR/2001/REC-SVG-20010904/DTD/svg10.dtd">
<svg version="1.0" xmlns="http://www.w3.org/2000/svg"
 width="96.000000pt" height="68.000000pt" viewBox="0 0 96.000000 68.000000"
 preserveAspectRatio="xMidYMid meet">
<metadata>
Created by potrace 1.16, written by Peter Selinger 2001-2019
Combined from part_0.svg through part_5.svg with named groups
</metadata>
<g transform="translate(0.000000,68.000000) scale(0.100000,-0.100000)" fill="#000000" stroke="none">
<g id="part-0" class="char-part">
  <path d="M405 618 l7 -45 -47 -7 c-27 -3 -61 -6 -76 -6 -19 0 -29 -5 -29 -15
0 -12 14 -15 70 -15 54 0 70 -3 70 -14 0 -20 -13 -27 -67 -34 -63 -9 -69 -32
-9 -32 34 0 46 -4 46 -15 0 -24 -35 -35 -109 -35 -39 0 -71 -4 -71 -9 0 -17
40 -23 97 -16 l55 7 -27 -36 c-31 -40 -96 -90 -167 -126 -26 -14 -45 -26 -43
-28 8 -9 106 31 147 59 24 17 66 54 93 84 45 48 55 54 98 58 38 3 54 -1 75
-17 27 -20 145 -120 170 -143 21 -20 95 -26 132 -11 l33 14 -84 28 c-50 17
-114 49 -159 80 l-75 51 100 5 100 5 -33 18 c-27 15 -41 16 -90 8 -31 -5 -90
-13 -129 -16 -62 -6 -73 -5 -73 9 0 21 25 33 90 40 84 11 110 17 110 26 0 15
-62 21 -117 12 -49 -8 -51 -8 -43 12 6 16 20 23 61 28 106 15 119 18 119 35 0
14 -11 15 -80 10 -80 -6 -80 -6 -74 17 6 26 -8 41 -49 51 l-29 8 7 -45z"/>
  <path d="M422 333 l3 -38 -42 -3 c-58 -4 -55 -22 3 -22 44 0 45 -1 42 -27 -3
-27 -6 -28 -83 -38 -74 -9 -78 -11 -52 -22 15 -7 32 -11 39 -9 7 3 32 7 56 10
l42 6 0 -75 c0 -57 3 -75 14 -75 15 0 26 43 26 106 l0 44 85 0 c48 0 85 4 85
10 0 19 -42 31 -102 28 -61 -3 -62 -2 -63 22 0 19 6 26 25 28 50 5 71 13 64
23 -3 6 -25 9 -48 7 -37 -2 -41 0 -38 20 2 16 -4 25 -23 32 -37 14 -37 14 -33
-27z"/>
</g>
<g id="part-1" class="char-part">
  <path d="M405 608 c0 -40 -2 -43 -30 -46 -16 -1 -50 -5 -74 -8 -61 -8 -33 -24
42 -24 55 0 58 -1 55 -22 -3 -20 -11 -24 -55 -28 -67 -7 -80 -20 -20 -20 26 0
47 -4 47 -10 0 -5 11 -10 25 -10 14 0 25 4 25 9 0 5 41 15 90 22 114 15 121
34 10 26 -80 -5 -91 0 -72 30 4 6 44 17 90 23 45 7 85 16 88 21 10 17 -28 22
-92 12 l-65 -9 6 26 c5 22 1 29 -20 38 -43 20 -50 15 -50 -30z"/>
</g>
<g id="part-2" class="char-part">
  <path d="M361 423 c-8 -15 -26 -19 -95 -22 -47 -1 -86 -7 -86 -11 0 -14 59
-22 113 -15 l52 7 -55 -56 c-32 -33 -85 -73 -130 -96 -69 -37 -72 -40 -35 -34
66 11 151 62 215 131 58 62 60 63 112 63 52 0 55 -2 149 -84 54 -46 108 -86
122 -90 22 -5 124 8 134 18 2 1 -30 13 -70 25 -73 21 -167 71 -223 117 l-29
23 98 1 c53 0 97 4 97 9 0 19 -60 30 -117 21 -32 -4 -91 -11 -131 -14 -62 -4
-73 -3 -68 10 8 21 -41 18 -53 -3z"/>
</g>
<g id="part-3" class="char-part">
  <path d="M426 359 c-3 -8 -4 -25 -3 -39 2 -22 -3 -25 -33 -28 -56 -5 -61 -22
-6 -22 46 0 47 -1 44 -27 -3 -27 -6 -28 -83 -39 -74 -10 -78 -11 -53 -22 15
-6 33 -10 40 -8 7 3 32 7 56 10 l42 6 0 -74 c0 -71 10 -100 26 -75 4 7 9 43
12 80 l5 69 83 0 c51 0 84 4 84 10 0 18 -53 31 -110 28 -53 -3 -55 -2 -55 22
0 22 5 26 42 31 24 3 45 8 49 12 9 9 -43 20 -66 14 -17 -4 -20 0 -20 24 0 16
-4 29 -9 29 -5 0 -16 3 -25 6 -9 3 -18 0 -20 -7z"/>
</g>
</g>
</svg>