<?xml version="1.0" standalone="no"?>
<!DOCTYPE svg PUBLIC "-//W3C//DTD SVG 20010904//EN"
 "http://www.w3.org/TR/2001/REC-SVG-20010904/DTD/svg10.dtd">
<svg version="1.0" xmlns="http://www.w3.org/2000/svg"
 width="96.000000pt" height="68.000000pt" viewBox="0 0 96.000000 68.000000"
 preserveAspectRatio="xMidYMid meet">
<metadata>
Created by potrace 1.16, written by Peter Selinger 2001-2019
Combined from part_0.svg through part_5.svg with named groups
</metadata>
<g transform="translate(0.000000,68.000000) scale(0.100000,-0.100000)" fill="#000000" stroke="none">
<g id="part-0" class="char-part">
  <path d="M715 566 c-5 -2 -50 -9 -100 -16 -49 -7 -97 -14 -105 -17 -26 -9 21
-22 58 -16 29 5 32 3 32 -22 0 -43 -17 -65 -51 -65 -19 0 -28 -4 -24 -11 4 -6
6 -47 5 -92 -2 -45 -2 -95 -2 -111 2 -32 22 -52 34 -33 4 6 10 8 14 5 9 -10
-31 -72 -64 -100 -81 -68 -19 -47 74 25 41 32 53 47 50 65 -3 20 1 22 49 22
43 0 55 -4 68 -23 27 -39 37 -8 41 131 l5 132 -27 7 c-14 3 -57 2 -94 -3 -37
-5 -68 -7 -68 -4 0 3 12 16 25 29 26 24 32 41 15 41 -5 0 -10 5 -10 10 0 6 31
10 73 10 68 0 109 11 95 25 -8 8 -79 16 -93 11z m29 -162 c4 -15 6 -27 4 -29
-2 -1 -42 -5 -90 -9 l-88 -7 0 24 c0 21 6 25 58 34 98 17 109 16 116 -13z m6
-77 c0 -33 -1 -34 -42 -34 -24 0 -64 -3 -90 -7 l-48 -7 0 30 c0 30 2 31 43 32
34 0 124 12 135 18 1 0 2 -14 2 -32z m0 -76 l0 -29 -96 -1 c-87 -2 -95 0 -92
16 2 14 19 20 78 29 114 17 110 18 110 -15z"/>
  <path d="M340 550 c-19 -5 -70 -12 -113 -16 -73 -6 -77 -8 -62 -24 9 -10 24
-46 33 -81 l18 -64 42 3 c39 3 42 2 42 -22 0 -26 9 -24 -158 -41 -36 -4 -37
-13 -1 -20 19 -3 55 -2 82 3 30 6 50 6 53 0 4 -6 -30 -46 -74 -89 -44 -43 -78
-79 -76 -79 29 0 154 98 154 121 0 5 5 9 11 9 6 0 9 -32 8 -90 -3 -94 0 -106
26 -97 12 5 15 24 15 92 0 47 4 85 9 85 4 0 25 -13 46 -30 43 -34 53 -36 61
-15 9 24 -13 42 -67 56 -41 11 -49 17 -49 36 0 21 4 23 54 23 38 0 58 5 67 17
13 15 9 16 -53 10 -68 -6 -68 -6 -68 20 0 24 2 25 44 19 l44 -7 17 48 c9 26
21 58 26 71 13 34 11 59 -7 66 -21 8 -81 6 -124 -4z m70 -45 c0 -21 -5 -25
-30 -25 -25 0 -30 4 -30 25 0 21 5 25 30 25 25 0 30 -4 30 -25z m-120 -9 c0
-17 -7 -26 -27 -30 -17 -5 -29 -3 -34 6 -15 24 -9 37 19 41 15 2 30 5 35 6 4
0 7 -10 7 -23z m110 -63 c0 -12 -8 -18 -25 -19 -18 -2 -25 3 -25 17 0 14 7 19
25 19 17 0 25 -5 25 -17z m-110 -14 c0 -15 -5 -20 -22 -17 -34 5 -37 38 -4 38
20 0 26 -5 26 -21z"/>
  <path d="M727 128 c17 -18 41 -45 53 -60 31 -36 50 -36 50 0 0 33 -21 55 -73
77 -56 23 -64 18 -30 -17z"/>
</g>
<g id="part-1" class="char-part">
  <path d="M340 545 c-41 -7 -99 -14 -129 -14 -51 -1 -53 -2 -39 -18 9 -10 21
-43 27 -73 16 -76 21 -83 56 -70 15 6 61 11 101 12 l73 2 26 74 c15 41 23 78
18 83 -16 16 -59 17 -133 4z m80 -34 c0 -24 -6 -28 -44 -32 -26 -4 -29 -1 -30
24 -2 25 1 27 36 27 31 0 38 -4 38 -19z m-120 -21 c0 -28 -3 -30 -35 -30 -28
0 -38 5 -44 23 -10 25 5 35 52 36 24 1 27 -3 27 -29z m103 -60 c-4 -14 -14
-20 -34 -20 -22 0 -29 5 -29 20 0 16 7 20 34 20 29 0 33 -3 29 -20z m-103 -10
c0 -15 -7 -20 -29 -20 -20 0 -30 6 -34 20 -4 17 0 20 29 20 27 0 34 -4 34 -20z"/>
</g>
<g id="part-2" class="char-part">
  <path d="M298 353 c-3 -27 -5 -28 -90 -38 -48 -6 -90 -14 -93 -17 -13 -13 38
-20 96 -13 46 5 59 4 59 -6 0 -8 -36 -49 -80 -91 -43 -42 -71 -74 -62 -71 34
13 88 52 131 94 l44 44 -6 -87 c-5 -71 -3 -91 9 -103 27 -26 34 -7 34 91 l0
95 45 -36 c44 -37 75 -41 75 -12 0 21 -23 37 -72 52 -31 9 -43 17 -43 31 0 14
8 20 30 22 63 5 95 13 95 24 0 7 -21 9 -65 5 -64 -6 -65 -6 -65 18 0 37 -38
34 -42 -2z"/>
</g>
<g id="part-3" class="char-part">
  <path d="M613 552 c-62 -9 -113 -19 -113 -23 0 -11 48 -20 75 -13 21 5 25 3
25 -16 0 -12 -5 -30 -11 -42 -19 -36 1 -33 39 6 24 25 33 40 24 43 -28 11 3
23 61 24 34 1 73 4 87 8 l25 7 -22 12 c-26 14 -45 14 -190 -6z"/>
</g>
<g id="part-4" class="char-part">
  <path d="M675 444 c-33 -7 -80 -13 -105 -14 l-45 0 3 -95 c3 -93 11 -111 38
-86 8 8 132 31 168 31 9 0 16 -7 16 -15 0 -8 9 -15 20 -15 18 0 20 7 20 58 0
31 3 73 6 93 6 34 4 37 -26 48 -18 6 -33 11 -34 10 -1 -1 -28 -7 -61 -15z m69
-30 c14 -36 7 -44 -36 -45 -24 0 -64 -4 -90 -8 -48 -8 -48 -8 -48 21 0 15 3
28 8 29 31 2 98 12 101 15 12 11 60 2 65 -12z m6 -87 c0 -31 -2 -33 -32 -33
-18 0 -59 -3 -90 -7 l-58 -8 0 29 c0 29 0 29 83 39 45 5 85 10 90 11 4 1 7
-13 7 -31z"/>
</g>
<g id="part-5" class="char-part">
  <path d="M584 168 c-3 -10 -19 -33 -35 -50 -31 -35 -41 -62 -11 -35 43 42 87
77 95 77 5 0 7 5 5 12 -7 19 -47 17 -54 -4z"/>
  <path d="M710 156 c0 -2 19 -24 42 -49 39 -44 78 -62 78 -36 0 18 -62 70 -77
65 -7 -3 -13 -1 -13 3 0 5 -7 11 -15 15 -8 3 -15 4 -15 2z"/>
</g>
</g>
</svg>