<?xml version="1.0" standalone="no"?>
<!DOCTYPE svg PUBLIC "-//W3C//DTD SVG 20010904//EN"
 "http://www.w3.org/TR/2001/REC-SVG-20010904/DTD/svg10.dtd">
<svg version="1.0" xmlns="http://www.w3.org/2000/svg"
 width="96.000000pt" height="68.000000pt" viewBox="0 0 96.000000 68.000000"
 preserveAspectRatio="xMidYMid meet">
<metadata>
Created by potrace 1.16, written by Peter Selinger 2001-2019
Combined from part_0.svg through part_5.svg with named groups
</metadata>
<g transform="translate(0.000000,68.000000) scale(0.100000,-0.100000)" fill="#000000" stroke="none">
<g id="part-0" class="char-part">
  <path d="M534 568 l1 -52 -55 -12 -55 -11 55 -4 c47 -3 55 -7 55 -24 0 -16 -9
-21 -40 -26 -22 -3 -34 -7 -27 -9 6 -1 17 -4 22 -5 6 -1 19 -3 30 -4 13 -1 20
-8 20 -20 0 -17 -10 -20 -67 -26 -106 -10 -129 -16 -110 -26 10 -6 71 -4 161
6 80 8 179 15 220 15 80 0 100 9 61 30 -19 10 -42 10 -116 1 -59 -8 -96 -8
-102 -2 -16 16 2 31 44 37 51 8 50 24 -2 24 -33 0 -40 3 -37 18 2 10 14 18 28
20 67 7 90 14 84 24 -4 6 -27 8 -60 5 l-54 -6 0 44 c0 41 -12 54 -51 55 -4 0
-6 -23 -5 -52z"/>
  <path d="M238 523 c-10 -28 -36 -67 -63 -95 -70 -70 -52 -100 42 -70 31 10 32
9 22 -9 -5 -11 -27 -35 -47 -54 -30 -27 -35 -36 -24 -46 10 -11 26 -9 82 11
55 19 72 22 82 12 17 -17 28 -15 28 7 0 11 -10 27 -22 35 -29 21 -37 20 -31
-2 3 -14 -5 -20 -36 -28 -26 -7 -41 -8 -41 -2 0 6 32 44 72 85 59 60 70 77 62
90 -17 28 -28 24 -52 -17 -17 -30 -30 -41 -58 -46 -19 -3 -37 -4 -41 -1 -3 3
20 36 50 73 46 55 54 71 46 86 -5 10 -20 18 -32 18 -18 0 -26 -10 -39 -47z"/>
  <path d="M570 329 c-25 -4 -64 -8 -88 -8 l-43 -1 3 -102 c3 -100 4 -103 26
-101 12 2 22 -2 22 -7 0 -13 -48 -61 -83 -84 -51 -32 -20 -29 40 4 32 18 71
39 86 47 27 14 27 16 11 34 -17 18 -15 19 47 19 37 0 70 -5 77 -12 22 -22 31
5 35 105 4 97 4 99 -20 108 -27 10 -49 10 -113 -2z m78 -37 c3 -20 -1 -22 -36
-22 -22 0 -60 -3 -86 -6 -42 -6 -46 -5 -46 14 0 22 14 27 100 35 55 6 65 3 68
-21z m5 -60 c-3 -13 -17 -18 -56 -21 -103 -7 -111 -7 -115 10 -2 13 12 18 80
25 46 6 86 8 90 7 3 -2 4 -11 1 -21z m-2 -74 c-3 -3 -43 -8 -89 -11 -80 -4
-83 -4 -80 17 3 19 11 22 83 26 65 4 81 2 86 -10 4 -8 4 -18 0 -22z"/>
  <path d="M310 222 c0 -5 9 -19 20 -32 16 -18 23 -21 32 -12 9 9 7 16 -7 32
-18 20 -45 27 -45 12z"/>
  <path d="M230 195 c0 -18 27 -45 46 -45 17 0 18 24 2 37 -25 19 -48 23 -48 8z"/>
  <path d="M110 185 c0 -16 52 -85 65 -85 20 0 19 33 -2 58 -17 20 -63 40 -63
27z"/>
  <path d="M620 102 c0 -11 101 -97 114 -97 6 0 12 8 14 17 4 22 -37 58 -85 75
-45 15 -43 15 -43 5z"/>
</g>
<g id="part-1" class="char-part">
  <path d="M257 563 c-2 -5 -10 -26 -17 -48 -7 -22 -35 -62 -61 -90 -56 -59 -54
-82 6 -71 20 4 49 12 64 18 26 12 26 12 -13 17 l-39 6 56 67 c31 36 57 71 57
77 0 6 -9 15 -19 21 -23 12 -28 12 -34 3z"/>
</g>
<g id="part-2" class="char-part">
  <path d="M310 222 c0 -16 32 -52 46 -52 20 0 18 24 -4 43 -19 18 -42 23 -42 9z"/>
  <path d="M220 205 c0 -17 35 -55 51 -55 26 0 24 25 -3 44 -22 16 -48 21 -48
11z"/>
  <path d="M117 163 c40 -66 73 -84 73 -40 0 30 -11 44 -43 56 -43 17 -49 13
-30 -16z"/>
</g>
<g id="part-3" class="char-part">
  <path d="M527 614 c-3 -4 -2 -15 4 -26 6 -10 9 -31 7 -46 -3 -24 -9 -28 -58
-38 l-55 -12 42 -1 c51 -1 73 -9 73 -26 0 -15 -22 -25 -56 -25 -14 0 -22 -4
-19 -10 3 -5 22 -10 41 -10 27 0 34 -4 34 -20 0 -31 30 -22 43 12 4 11 22 20
47 24 57 9 60 24 6 24 -34 0 -46 4 -46 14 0 10 20 19 60 27 75 14 69 34 -8 26
l-54 -6 5 39 c3 21 0 43 -6 49 -12 12 -50 15 -60 5z"/>
</g>
<g id="part-4" class="char-part">
  <path d="M650 395 c-58 -7 -134 -16 -170 -20 -116 -11 -136 -16 -118 -26 10
-6 70 -3 158 6 78 8 177 15 220 15 44 0 81 4 84 9 5 8 -48 33 -63 30 -3 -1
-53 -7 -111 -14z"/>
</g>
<g id="part-5" class="char-part">
  <path d="M492 108 c3 -7 -6 -22 -19 -34 -19 -18 -21 -23 -8 -27 8 -4 20 2 28
13 8 11 17 17 22 12 5 -4 4 -1 0 7 -6 11 -4 13 8 8 20 -8 32 9 15 20 -22 13
-50 14 -46 1z"/>
  <path d="M630 95 c0 -3 15 -12 33 -20 17 -8 26 -14 18 -15 -11 0 -11 -3 -1
-15 8 -9 21 -13 34 -10 15 5 17 4 7 -3 -10 -7 -10 -11 -1 -17 6 -4 17 -2 22 3
16 16 -4 36 -57 61 -47 22 -55 24 -55 16z"/>
  <path d="M425 30 c-3 -6 1 -7 9 -4 18 7 21 14 7 14 -6 0 -13 -4 -16 -10z"/>
</g>
</g>
</svg>