<?xml version="1.0" standalone="no"?>
<!DOCTYPE svg PUBLIC "-//W3C//DTD SVG 20010904//EN"
 "http://www.w3.org/TR/2001/REC-SVG-20010904/DTD/svg10.dtd">
<svg version="1.0" xmlns="http://www.w3.org/2000/svg"
 width="96.000000pt" height="68.000000pt" viewBox="0 0 96.000000 68.000000"
 preserveAspectRatio="xMidYMid meet">
<metadata>
Created by potrace 1.16, written by Peter Selinger 2001-2019
Combined from part_0.svg through part_5.svg with named groups
</metadata>
<g transform="translate(0.000000,68.000000) scale(0.100000,-0.100000)" fill="#000000" stroke="none">
<g id="part-0" class="char-part">
  <path d="M568 485 c3 -47 1 -85 -4 -84 -5 1 -38 1 -74 0 -43 -1 -60 -4 -51
-10 8 -5 22 -33 31 -63 l16 -53 38 3 c38 4 39 3 32 -25 -10 -37 -9 -37 -46
-18 -17 9 -39 15 -48 13 -12 -3 -5 -10 21 -22 56 -28 50 -56 -28 -113 -23 -17
-26 -22 -12 -23 23 0 66 26 92 56 l21 24 39 -28 c22 -15 53 -39 70 -54 26 -24
38 -28 90 -27 33 0 69 4 80 9 23 9 24 9 -77 39 -68 20 -127 48 -163 76 -18 14
-18 17 -4 58 l16 42 56 3 c48 3 57 6 57 22 0 10 14 32 30 49 l31 30 -26 17
c-19 12 -40 15 -81 12 l-55 -5 2 76 2 76 -30 3 -29 3 4 -86z m0 -137 c-3 -39
-6 -43 -31 -46 -27 -3 -30 0 -41 65 -1 6 30 16 67 22 5 0 7 -18 5 -41z m132
38 c0 -2 -7 -20 -15 -40 -13 -30 -20 -36 -45 -36 -32 0 -36 11 -24 58 5 18 13
22 45 22 22 0 39 -2 39 -4z"/>
  <path d="M335 534 c-33 -7 -84 -13 -114 -14 -47 0 -52 -2 -45 -17 15 -35 16
-98 4 -166 -14 -81 -7 -98 37 -78 16 7 61 15 102 19 l74 5 -6 -62 c-10 -90
-25 -117 -65 -113 -38 3 -39 0 -8 -33 26 -28 53 -28 75 -1 7 9 50 197 51 223
0 8 -68 21 -86 17 -21 -5 -24 -3 -21 17 3 17 13 25 36 30 56 12 52 24 -6 19
-18 -1 -23 4 -23 24 0 23 4 26 35 26 19 0 35 5 35 10 0 6 -16 10 -36 10 -31 0
-35 3 -32 23 2 17 13 24 46 31 43 10 56 30 25 38 -10 2 -45 -1 -78 -8z m-40
-74 c0 -21 -5 -26 -32 -28 -31 -3 -33 -1 -33 28 0 29 2 31 33 28 27 -2 32 -7
32 -28z m3 -67 c3 -20 -1 -23 -32 -23 -32 0 -36 3 -36 26 0 23 3 25 33 22 24
-2 33 -8 35 -25z m0 -65 c-2 -18 -11 -24 -35 -26 -30 -3 -33 -1 -33 22 0 23 4
26 36 26 31 0 35 -3 32 -22z"/>
  <path d="M310 232 c0 -5 10 -19 22 -32 20 -22 23 -22 26 -7 2 10 -2 24 -8 32
-13 16 -40 20 -40 7z"/>
  <path d="M102 197 c-15 -42 -15 -64 -1 -73 17 -10 29 16 29 64 0 50 -12 54
-28 9z"/>
  <path d="M240 224 c0 -2 7 -16 16 -29 18 -28 40 -24 24 4 -9 17 -40 37 -40 25z"/>
  <path d="M170 215 c0 -3 7 -20 16 -37 12 -24 18 -28 25 -17 5 8 3 22 -5 33
-13 20 -36 33 -36 21z"/>
</g>
<g id="part-1" class="char-part">
  <path d="M305 524 c-33 -8 -77 -12 -98 -9 -35 5 -37 4 -27 -14 12 -24 13 -161
1 -194 -17 -44 -1 -52 73 -33 36 9 79 16 95 16 16 0 33 5 37 12 5 8 -8 9 -52
4 -32 -4 -70 -8 -84 -9 l-25 -2 4 95 c2 52 5 96 6 98 2 2 18 3 36 4 19 0 50 4
69 8 19 4 48 11 63 14 15 4 25 11 22 16 -8 13 -45 11 -120 -6z"/>
</g>
<g id="part-2" class="char-part">
  <path d="M102 201 c-15 -48 -15 -68 -1 -77 17 -10 29 16 29 69 0 57 -13 61
-28 8z"/>
  <path d="M310 235 c0 -12 33 -55 41 -55 13 0 11 34 -3 48 -12 12 -38 17 -38 7z"/>
  <path d="M240 227 c0 -3 5 -18 12 -32 12 -28 41 -35 36 -9 -3 15 -48 53 -48
41z"/>
  <path d="M170 208 c0 -7 9 -24 19 -37 24 -31 39 -10 17 24 -18 27 -36 33 -36
13z"/>
</g>
<g id="part-3" class="char-part">
  <path d="M568 494 c6 -90 3 -94 -83 -94 -37 0 -55 -4 -47 -9 8 -5 22 -33 32
-62 17 -53 18 -54 54 -51 21 2 36 -1 36 -7 0 -17 37 -13 44 4 4 11 21 15 65
15 52 0 59 2 54 18 -2 10 7 29 21 45 14 16 26 32 26 37 0 21 -44 32 -98 26
l-54 -6 4 75 c4 77 0 85 -41 85 -16 0 -17 -8 -13 -76z m132 -109 c0 -11 -26
-61 -35 -67 -5 -4 -20 -8 -32 -8 -19 0 -23 5 -23 33 0 19 3 37 7 40 7 8 83 10
83 2z m-132 -42 c-3 -32 -7 -38 -29 -41 -21 -3 -27 3 -36 32 -13 42 -10 46 34
46 33 0 34 -1 31 -37z"/>
</g>
<g id="part-4" class="char-part">
  <path d="M560 253 c0 -5 -4 -14 -9 -21 -7 -12 -14 -11 -40 3 -52 27 -73 14
-23 -15 23 -13 42 -27 42 -31 0 -4 -25 -30 -56 -58 -30 -28 -52 -51 -47 -51
19 0 89 43 109 67 l22 26 72 -57 c69 -54 74 -56 129 -55 31 1 67 4 81 8 28 8
38 4 -85 40 -38 12 -95 36 -127 54 l-56 33 13 32 c13 30 13 32 -5 32 -11 0
-20 -3 -20 -7z"/>
</g>
</g>
</svg>