<?xml version="1.0" standalone="no"?>
<!DOCTYPE svg PUBLIC "-//W3C//DTD SVG 20010904//EN"
 "http://www.w3.org/TR/2001/REC-SVG-20010904/DTD/svg10.dtd">
<svg version="1.0" xmlns="http://www.w3.org/2000/svg"
 width="96.000000pt" height="68.000000pt" viewBox="0 0 96.000000 68.000000"
 preserveAspectRatio="xMidYMid meet">
<metadata>
Created by potrace 1.16, written by Peter Selinger 2001-2019
Combined from part_0.svg through part_5.svg with named groups
</metadata>
<g transform="translate(0.000000,68.000000) scale(0.100000,-0.100000)" fill="#000000" stroke="none">
<g id="part-0" class="char-part">
  <path d="M566 513 c4 -100 3 -101 -76 -102 l-45 -1 3 -122 c4 -123 11 -152 38
-141 28 11 13 -19 -36 -68 -59 -60 -38 -58 57 5 48 33 59 45 52 57 -7 14 2 17
69 22 63 5 79 3 89 -10 7 -8 19 -13 28 -10 12 5 15 25 15 104 1 54 3 115 6
135 7 49 -16 62 -97 53 l-59 -7 6 64 c3 34 7 69 10 76 3 11 -33 32 -56 32 -5
0 -7 -39 -4 -87z m144 -132 c0 -27 -2 -28 -82 -39 -46 -7 -96 -12 -111 -12
-26 0 -28 3 -25 33 l3 32 100 11 c55 5 103 8 108 6 4 -2 7 -16 7 -31z m0 -80
c0 -28 0 -28 -82 -35 -46 -3 -95 -8 -110 -10 -25 -3 -28 0 -28 24 0 27 1 27
93 37 50 6 100 11 110 11 12 2 17 -5 17 -27z m0 -81 c0 -29 -1 -30 -47 -30
-27 0 -78 -3 -114 -6 l-66 -7 5 31 c4 31 4 31 76 35 39 1 88 4 109 5 35 2 37
0 37 -28z"/>
  <path d="M710 538 c-5 -13 -17 -33 -26 -45 -23 -33 -2 -29 52 7 47 33 53 44
28 54 -29 11 -44 6 -54 -16z"/>
  <path d="M440 512 c0 -4 11 -20 23 -36 16 -20 29 -27 41 -23 13 5 15 11 7 26
-10 18 -71 47 -71 33z"/>
  <path d="M260 443 c-28 -9 -65 -12 -97 -9 -29 2 -53 3 -53 1 0 -2 11 -20 24
-39 13 -19 27 -56 31 -82 6 -44 8 -46 33 -39 15 4 55 9 90 12 56 4 62 7 57 23
-3 11 4 42 16 70 13 30 18 55 13 59 -18 17 -70 19 -114 4z m40 -57 c0 -57 -8
-66 -55 -66 -36 0 -44 4 -49 23 -12 47 -7 56 37 65 66 15 67 15 67 -22z"/>
  <path d="M702 80 c67 -63 82 -70 92 -44 9 23 -20 53 -79 80 -78 37 -80 29 -13
-36z"/>
</g>
<g id="part-1" class="char-part">
  <path d="M240 434 c-25 -7 -62 -10 -83 -7 l-39 5 17 -25 c9 -14 23 -49 30 -77
16 -62 18 -64 42 -51 10 5 44 13 76 16 53 6 57 8 57 32 0 14 10 43 22 65 19
33 20 40 8 48 -20 13 -75 10 -130 -6z m63 -61 c-3 -27 -6 -49 -7 -50 -1 0 -22
-4 -47 -8 l-45 -7 -12 40 c-17 57 -16 60 26 65 98 10 92 13 85 -40z"/>
</g>
<g id="part-2" class="char-part">
  <path d="M558 594 c-4 -3 -2 -20 3 -37 5 -18 9 -56 9 -84 0 -46 3 -53 19 -53
16 0 21 10 26 58 3 31 8 67 11 80 3 17 -2 25 -21 32 -30 11 -39 12 -47 4z"/>
  <path d="M693 513 c-18 -27 -30 -50 -27 -52 2 -2 31 14 65 37 57 37 60 41 41
51 -35 19 -47 13 -79 -36z"/>
  <path d="M452 488 c22 -33 45 -45 59 -31 17 17 -16 53 -49 53 -23 0 -24 -1
-10 -22z"/>
</g>
<g id="part-3" class="char-part">
  <path d="M590 423 c-47 -8 -100 -12 -118 -10 -29 3 -33 1 -28 -17 3 -12 6 -60
6 -108 0 -81 2 -88 20 -88 13 0 20 7 20 20 0 18 7 20 58 20 31 0 81 3 110 6
44 6 52 4 52 -10 0 -10 8 -16 24 -16 23 0 24 3 28 98 7 133 4 135 -172 105z
m118 -44 c3 -26 2 -26 -86 -38 -131 -16 -132 -16 -132 19 0 23 5 31 23 35 43
9 82 12 137 11 51 -1 55 -3 58 -27z m2 -78 l0 -28 -86 -7 c-48 -3 -97 -9 -110
-12 -21 -5 -24 -3 -24 23 l0 30 93 10 c50 5 100 10 110 11 12 2 17 -5 17 -27z"/>
</g>
<g id="part-4" class="char-part">
  <path d="M500 139 c0 -6 -25 -35 -55 -65 -42 -40 -49 -51 -30 -44 20 8 132 78
155 97 8 7 -24 23 -47 23 -13 0 -23 -5 -23 -11z"/>
  <path d="M704 80 c68 -65 86 -73 86 -37 0 29 -22 50 -80 76 -71 33 -72 25 -6
-39z"/>
</g>
</g>
</svg>