<?xml version="1.0" standalone="no"?>
<!DOCTYPE svg PUBLIC "-//W3C//DTD SVG 20010904//EN"
 "http://www.w3.org/TR/2001/REC-SVG-20010904/DTD/svg10.dtd">
<svg version="1.0" xmlns="http://www.w3.org/2000/svg"
 width="96.000000pt" height="68.000000pt" viewBox="0 0 96.000000 68.000000"
 preserveAspectRatio="xMidYMid meet">
<metadata>
Created by potrace 1.16, written by Peter Selinger 2001-2019
Combined from part_0.svg through part_5.svg with named groups
</metadata>
<g transform="translate(0.000000,68.000000) scale(0.100000,-0.100000)" fill="#000000" stroke="none">
<g id="part-0" class="char-part">
  <path d="M214 539 c5 -19 10 -55 12 -80 l3 -46 -42 -6 c-22 -3 -54 -3 -70 0
l-29 6 21 -39 c11 -21 26 -58 31 -81 11 -42 23 -53 35 -33 3 6 17 10 31 10 22
0 24 -4 24 -50 0 -27 -3 -50 -7 -50 -26 -1 -119 -13 -122 -16 -2 -2 2 -10 9
-19 16 -19 43 -19 79 -1 15 8 59 26 99 40 65 22 73 23 87 9 9 -8 22 -12 30 -9
21 8 0 50 -32 65 -31 14 -31 14 -29 -6 0 -9 -12 -21 -31 -30 l-33 -13 0 44 c0
49 9 56 66 56 30 0 34 3 29 19 -3 11 3 33 15 53 26 44 25 54 -7 64 -32 8 -28
8 -72 0 l-33 -6 7 46 c3 26 8 52 11 58 7 20 -12 37 -51 43 l-38 6 7 -34z m116
-156 c0 -36 -12 -61 -31 -66 -16 -4 -19 0 -19 33 0 21 6 41 13 43 24 10 37 7
37 -10z m-100 -43 c0 -36 -3 -40 -24 -40 -19 0 -26 7 -31 31 -8 33 4 49 38 49
13 0 17 -9 17 -40z"/>
  <path d="M615 520 c-44 -46 -108 -80 -150 -80 -31 0 -36 -3 -30 -17 9 -26 37
-272 31 -281 -3 -5 -31 -10 -63 -11 -62 -2 -72 -6 -57 -21 14 -14 47 -14 144
-1 70 9 265 21 342 21 10 0 18 4 18 9 0 17 -55 26 -118 21 -35 -3 -65 -4 -67
-2 -3 3 0 15 25 109 6 25 6 41 -2 50 -8 10 0 13 41 13 28 0 51 4 51 10 0 20
-54 22 -163 7 -62 -8 -113 -14 -114 -13 -1 1 -5 20 -8 42 l-7 40 58 23 c75 32
144 70 144 82 0 7 -32 29 -42 29 -3 0 -17 -14 -33 -30z m14 -279 c-2 -44 -6
-81 -9 -84 -3 -3 -26 -7 -52 -10 -55 -7 -53 -9 -61 100 -6 69 -8 67 77 72 l48
2 -3 -80z"/>
</g>
<g id="part-1" class="char-part">
  <path d="M216 563 c-3 -3 -1 -16 5 -30 5 -13 9 -46 9 -73 0 -48 -1 -49 -35
-56 -19 -3 -49 -4 -65 -2 -33 5 -36 1 -15 -25 7 -10 19 -41 25 -68 7 -30 17
-49 26 -49 8 0 14 5 14 10 0 6 11 10 25 10 23 0 25 -3 25 -49 0 -44 2 -49 20
-44 16 4 20 14 20 49 0 47 1 48 63 59 21 3 35 10 32 16 -4 5 3 24 14 43 12 18
21 40 21 49 0 19 -41 30 -87 21 l-35 -7 4 69 3 68 -32 7 c-18 3 -34 4 -37 2z
m116 -198 c-5 -37 -19 -55 -43 -55 -15 0 -19 7 -19 38 0 46 6 54 40 50 21 -3
25 -7 22 -33z m-102 -19 c0 -39 -3 -44 -25 -48 -21 -4 -26 -1 -31 21 -3 14 -7
32 -10 39 -2 7 6 17 19 22 41 16 47 12 47 -34z"/>
</g>
<g id="part-2" class="char-part">
  <path d="M356 210 c27 -40 48 -51 56 -27 8 20 -2 37 -32 52 -46 24 -52 18 -24
-25z"/>
</g>
<g id="part-3" class="char-part">
  <path d="M617 525 c-10 -14 -41 -39 -70 -55 -41 -24 -59 -29 -86 -25 -31 6
-33 5 -27 -17 3 -13 13 -83 23 -155 16 -129 17 -133 40 -133 21 0 24 4 19 27
-3 16 -8 64 -11 108 -3 44 -8 94 -11 112 -4 29 -2 32 33 44 53 16 150 66 159
80 7 12 -21 39 -40 39 -6 0 -19 -12 -29 -25z"/>
</g>
<g id="part-4" class="char-part">
  <path d="M610 346 c-41 -6 -79 -12 -83 -13 -4 -2 -11 -3 -17 -3 -5 0 -10 -4
-10 -10 0 -5 26 -7 66 -3 l66 6 -3 -81 c-2 -44 -7 -83 -11 -87 -3 -4 -67 -11
-142 -17 -126 -11 -159 -20 -120 -35 8 -3 88 2 177 11 89 9 197 16 240 16 44
0 77 4 77 10 0 16 -47 23 -120 18 l-69 -5 6 31 c3 17 12 51 19 75 10 33 10 49
2 58 -8 10 -1 13 35 13 47 0 69 13 41 24 -21 8 -65 6 -154 -8z"/>
</g>
</g>
</svg>