<?xml version="1.0" standalone="no"?>
<!DOCTYPE svg PUBLIC "-//W3C//DTD SVG 20010904//EN"
 "http://www.w3.org/TR/2001/REC-SVG-20010904/DTD/svg10.dtd">
<svg version="1.0" xmlns="http://www.w3.org/2000/svg"
 width="96.000000pt" height="68.000000pt" viewBox="0 0 96.000000 68.000000"
 preserveAspectRatio="xMidYMid meet">
<metadata>
Created by potrace 1.16, written by Peter Selinger 2001-2019
Combined from part_0.svg through part_5.svg with named groups
</metadata>
<g transform="translate(0.000000,68.000000) scale(0.100000,-0.100000)" fill="#000000" stroke="none">
<g id="part-0" class="char-part">
  <path d="M530 581 c0 -42 -9 -61 -30 -61 -25 0 -50 -10 -50 -21 0 -5 14 -9 30
-9 32 0 36 -9 20 -41 -19 -35 18 -22 42 16 23 34 24 35 91 35 60 0 68 2 65 18
-3 13 -14 17 -55 17 -50 0 -51 1 -46 27 4 20 0 29 -15 37 -36 19 -52 14 -52
-18z"/>
  <path d="M270 576 c0 -2 7 -17 15 -32 l15 -29 -43 -7 c-23 -4 -49 -5 -59 -2
-25 8 -30 -11 -7 -32 17 -15 26 -16 70 -8 48 10 50 10 62 -15 15 -32 33 -25
31 11 -2 23 3 29 30 36 37 10 33 28 -6 26 -22 -2 -28 3 -33 27 -6 25 -11 29
-41 29 -19 0 -34 -2 -34 -4z"/>
  <path d="M425 399 c-4 -18 -11 -37 -16 -43 -5 -6 -24 -29 -43 -51 -39 -45 -29
-61 13 -21 31 29 57 32 86 10 20 -15 20 -16 -10 -40 -16 -14 -59 -43 -95 -65
-36 -22 -54 -38 -40 -34 42 11 92 36 142 72 26 18 52 33 58 33 6 0 29 -14 52
-30 22 -17 47 -30 55 -30 7 0 13 -4 13 -10 0 -11 111 -12 150 -1 33 9 18 17
-59 31 -36 6 -93 23 -128 37 l-64 26 57 52 c56 52 56 53 34 65 -13 7 -36 9
-54 5 -91 -18 -98 -18 -94 1 2 14 -4 20 -24 22 -22 3 -27 -1 -33 -29z m135
-33 c0 -7 -13 -24 -28 -39 -28 -27 -29 -27 -67 -11 -33 13 -36 17 -23 30 8 8
27 17 43 20 16 3 31 6 32 7 8 9 43 3 43 -7z"/>
  <path d="M220 394 c0 -10 64 -64 76 -64 10 0 24 21 24 35 0 1 -15 10 -34 19
-35 16 -66 21 -66 10z"/>
  <path d="M160 302 c0 -15 46 -52 63 -52 31 0 20 37 -14 49 -38 13 -49 14 -49
3z"/>
  <path d="M234 170 c-21 -27 -41 -50 -44 -50 -3 0 -13 -7 -23 -15 -15 -10 -17
-21 -12 -44 10 -46 31 -38 64 27 16 31 36 72 46 90 27 52 12 48 -31 -8z"/>
  <path d="M525 159 c-33 -5 -86 -9 -117 -10 -55 -1 -74 -11 -44 -22 8 -3 17
-23 20 -44 11 -64 11 -64 129 -56 59 3 105 8 103 11 -6 6 21 61 41 84 13 15
12 18 -16 32 -16 9 -36 15 -43 15 -7 -1 -40 -5 -73 -10z m59 -27 c3 -5 1 -25
-4 -44 -10 -35 -11 -35 -77 -41 -37 -4 -71 -3 -76 2 -5 5 -10 24 -10 42 -2 31
1 34 33 40 54 10 128 10 134 1z"/>
</g>
<g id="part-1" class="char-part">
  <path d="M536 560 c-6 -37 -9 -40 -46 -46 -22 -4 -37 -11 -34 -16 4 -6 20 -7
36 -4 27 5 29 4 22 -17 -4 -12 -9 -29 -11 -37 -3 -8 10 1 29 21 30 33 40 38
101 44 37 4 67 11 67 16 0 10 -22 12 -83 9 -37 -2 -37 -1 -25 25 10 22 9 28
-3 36 -30 19 -46 10 -53 -31z"/>
  <path d="M286 558 c15 -50 12 -53 -56 -58 l-65 -5 28 -19 c24 -16 33 -17 66
-7 53 15 58 14 65 -14 9 -37 26 -30 26 10 0 30 3 35 23 35 12 0 29 5 37 10 11
7 4 10 -27 10 -39 0 -43 2 -43 24 0 23 -16 36 -46 36 -11 0 -13 -6 -8 -22z"/>
</g>
<g id="part-2" class="char-part">
  <path d="M232 378 c9 -13 27 -30 42 -38 24 -13 28 -13 36 0 5 8 10 19 10 23 0
10 -63 37 -86 37 -15 0 -15 -2 -2 -22z"/>
  <path d="M161 293 c36 -46 79 -58 79 -23 0 21 -34 40 -72 40 -18 0 -19 -2 -7
-17z"/>
  <path d="M240 181 c-19 -27 -47 -57 -62 -68 -30 -19 -36 -49 -15 -77 11 -15
15 -15 24 -4 11 13 103 186 103 194 0 15 -20 -3 -50 -45z"/>
</g>
<g id="part-3" class="char-part">
  <path d="M420 395 c-6 -19 -29 -56 -51 -82 -77 -94 0 -52 84 46 30 34 35 46
26 57 -21 25 -47 16 -59 -21z"/>
</g>
<g id="part-4" class="char-part">
  <path d="M535 160 c-27 -5 -81 -9 -119 -9 -57 -1 -67 -3 -57 -15 6 -8 20 -38
29 -67 12 -37 23 -53 32 -51 8 2 57 6 108 9 51 3 90 8 88 11 -6 6 21 61 41 84
13 15 12 18 -16 32 -32 17 -31 17 -106 6z m55 -27 c0 -5 -5 -24 -10 -44 -10
-36 -10 -36 -78 -42 -37 -3 -70 -2 -74 1 -4 4 -9 23 -10 42 -3 33 -1 35 32 41
51 9 140 10 140 2z"/>
</g>
</g>
</svg>