<?xml version="1.0" standalone="no"?>
<!DOCTYPE svg PUBLIC "-//W3C//DTD SVG 20010904//EN"
 "http://www.w3.org/TR/2001/REC-SVG-20010904/DTD/svg10.dtd">
<svg version="1.0" xmlns="http://www.w3.org/2000/svg"
 width="96.000000pt" height="68.000000pt" viewBox="0 0 96.000000 68.000000"
 preserveAspectRatio="xMidYMid meet">
<metadata>
Created by potrace 1.16, written by Peter Selinger 2001-2019
Combined from part_0.svg through part_5.svg with named groups
</metadata>
<g transform="translate(0.000000,68.000000) scale(0.100000,-0.100000)" fill="#000000" stroke="none">
<g id="part-0" class="char-part">
  <path d="M410 573 c0 -101 -8 -111 -86 -118 -53 -5 -54 -15 -1 -15 54 0 63
-10 38 -41 -14 -18 -30 -23 -82 -26 -35 -3 -71 -7 -79 -10 -24 -9 32 -21 79
-17 22 2 41 0 41 -4 0 -15 -88 -81 -156 -118 -38 -20 -71 -39 -74 -42 -10 -10
76 6 113 21 20 9 40 16 42 17 9 0 59 44 107 92 37 37 56 48 85 51 47 4 59 -1
161 -80 45 -35 94 -68 108 -74 27 -10 117 -3 144 12 18 9 22 7 -85 39 -38 11
-88 32 -110 45 -22 13 -55 31 -74 40 -19 8 -32 17 -29 20 3 3 35 6 71 6 37 1
67 5 67 10 0 18 -44 31 -84 24 -23 -3 -56 -6 -73 -5 -18 0 -33 -3 -33 -7 0 -4
-19 -7 -42 -7 -24 1 -43 3 -42 5 14 53 16 54 104 64 56 7 67 11 58 20 -8 8
-51 8 -92 0 l-38 -8 7 34 c4 19 15 48 23 66 19 40 4 63 -39 63 -29 0 -29 -1
-29 -57z"/>
  <path d="M541 554 c-24 -25 -41 -47 -38 -51 10 -9 147 48 147 61 0 12 -40 36
-58 36 -4 0 -27 -21 -51 -46z"/>
  <path d="M270 562 c0 -19 59 -74 77 -70 20 4 28 36 14 56 -10 17 -91 29 -91
14z"/>
  <path d="M450 264 c-36 -7 -84 -14 -107 -15 -24 -2 -43 -6 -43 -10 0 -9 26
-19 51 -19 10 0 19 -2 19 -5 0 -22 -51 -97 -89 -133 -55 -50 -26 -45 39 7 77
61 114 116 90 131 -22 14 -8 21 54 27 l56 6 -1 -44 c0 -24 -6 -60 -12 -79 -11
-31 -16 -35 -44 -34 l-32 2 21 -29 c12 -16 29 -29 37 -29 24 0 58 61 70 124 6
31 15 65 21 75 8 16 5 21 -22 30 -17 6 -34 10 -37 10 -3 -1 -35 -7 -71 -15z"/>
</g>
<g id="part-1" class="char-part">
  <path d="M414 561 c0 -39 -5 -76 -11 -83 -6 -7 -16 -29 -22 -49 -19 -58 -125
-164 -211 -210 -61 -32 -68 -39 -40 -34 92 17 230 117 271 197 24 48 79 201
79 221 0 16 -20 27 -48 27 -14 0 -17 -12 -18 -69z"/>
  <path d="M549 554 c-49 -50 -44 -53 38 -23 70 26 69 25 54 43 -25 30 -48 25
-92 -20z"/>
  <path d="M291 539 c29 -38 66 -50 75 -24 9 23 -14 42 -61 51 l-40 7 26 -34z"/>
  <path d="M503 359 c10 -6 59 -42 109 -80 86 -65 93 -69 142 -68 28 1 62 4 76
8 22 7 19 9 -29 24 -30 10 -59 17 -65 17 -6 0 -56 25 -111 55 -54 30 -108 55
-120 55 -19 -1 -19 -1 -2 -11z"/>
</g>
<g id="part-2" class="char-part">
  <path d="M418 492 c-10 -2 -18 -10 -18 -18 0 -10 -13 -14 -47 -15 -74 -1 -101
-17 -30 -18 60 -1 69 -10 44 -45 -10 -13 -32 -19 -95 -23 -46 -3 -85 -9 -87
-14 -8 -13 51 -21 102 -13 l48 7 -19 -21 c-17 -20 -17 -22 -2 -28 12 -5 28 4
51 26 l33 32 146 5 c81 3 149 10 152 14 3 5 -7 14 -22 19 -20 8 -61 7 -141 -1
-62 -7 -115 -10 -119 -7 -9 10 14 46 33 52 10 2 44 7 76 11 71 8 77 29 7 27
-3 0 -24 -3 -47 -7 -31 -5 -42 -3 -45 7 -1 7 -11 12 -20 10z"/>
</g>
<g id="part-3" class="char-part">
  <path d="M450 265 c-30 -7 -71 -14 -90 -14 -19 -1 -41 -5 -49 -10 -27 -17 22
-21 79 -6 30 8 72 15 93 15 l37 0 -1 -42 c0 -24 -6 -59 -12 -78 -11 -30 -17
-35 -45 -35 -17 0 -32 -1 -32 -2 0 -2 10 -14 22 -28 46 -54 76 -25 109 105 20
80 20 85 3 97 -21 15 -39 15 -114 -2z"/>
</g>
<g id="part-4" class="char-part">
  <path d="M357 186 c-10 -25 -41 -65 -68 -91 -27 -25 -49 -48 -49 -51 0 -13 80
39 116 76 56 56 73 88 54 100 -26 17 -35 11 -53 -34z"/>
</g>
</g>
</svg>