<?xml version="1.0" standalone="no"?>
<!DOCTYPE svg PUBLIC "-//W3C//DTD SVG 20010904//EN"
 "http://www.w3.org/TR/2001/REC-SVG-20010904/DTD/svg10.dtd">
<svg version="1.0" xmlns="http://www.w3.org/2000/svg"
 width="96.000000pt" height="68.000000pt" viewBox="0 0 96.000000 68.000000"
 preserveAspectRatio="xMidYMid meet">
<metadata>
Created by potrace 1.16, written by Peter Selinger 2001-2019
Combined from part_0.svg through part_5.svg with named groups
</metadata>
<g transform="translate(0.000000,68.000000) scale(0.100000,-0.100000)" fill="#000000" stroke="none">
<g id="part-0" class="char-part">
  <path d="M510 563 c0 -3 11 -21 25 -38 13 -18 21 -35 18 -39 -12 -12 -141 -6
-146 7 -2 6 -13 -6 -23 -28 -11 -22 -22 -41 -26 -43 -5 -2 -8 -13 -8 -24 0
-30 38 -19 58 17 9 17 17 31 17 32 1 7 265 35 279 30 15 -6 15 -9 -1 -34 l-18
-27 25 7 c14 4 42 10 63 13 47 8 47 26 2 54 -36 22 -61 23 -159 3 -23 -4 -28
-2 -23 10 9 23 -30 67 -59 67 -13 0 -24 -3 -24 -7z"/>
  <path d="M230 423 c-19 -7 -57 -12 -85 -12 -27 0 -54 0 -58 0 -5 -1 1 -13 12
-27 12 -15 21 -33 21 -40 0 -38 23 -114 35 -114 7 0 15 5 17 12 2 6 31 13 66
16 55 4 62 7 57 23 -4 10 3 39 14 65 18 41 27 74 18 74 -1 0 -16 4 -32 8 -19
5 -43 3 -65 -5z m20 -70 c0 -48 -8 -58 -46 -66 -31 -6 -32 -5 -41 43 -11 54
-9 55 60 59 25 1 27 -2 27 -36z"/>
  <path d="M513 397 c-50 -9 -74 -27 -35 -27 50 1 156 20 165 29 14 14 -55 13
-130 -2z"/>
  <path d="M535 325 c-49 -8 -100 -11 -112 -8 -22 5 -33 -12 -13 -19 6 -2 19
-37 28 -78 l18 -75 34 5 c19 3 68 5 108 5 l72 0 31 80 c28 75 29 80 13 92 -21
16 -60 15 -179 -2z m125 -40 c0 -19 -6 -23 -52 -28 -29 -3 -74 -9 -100 -13
-47 -7 -48 -6 -48 20 0 32 4 34 100 44 89 10 100 7 100 -23z m-10 -62 c0 -33
-15 -40 -92 -46 -62 -4 -78 -3 -82 10 -11 28 -6 33 37 34 23 1 53 5 67 9 44
14 70 11 70 -7z"/>
  <path d="M759 115 c-3 -2 -101 -11 -218 -19 -118 -8 -216 -18 -219 -21 -13
-12 13 -19 71 -19 159 2 448 18 453 26 9 13 -75 46 -87 33z"/>
</g>
<g id="part-1" class="char-part">
  <path d="M230 419 c-14 -6 -51 -11 -82 -11 -55 -1 -56 -2 -43 -22 7 -12 19
-49 26 -84 12 -64 25 -85 35 -58 4 11 20 16 53 16 44 0 74 10 71 24 -4 14 14
72 28 95 15 22 14 24 -3 37 -22 16 -50 17 -85 3z m22 -74 c-2 -53 -12 -65 -54
-65 -23 0 -29 6 -37 38 -18 62 -15 70 27 75 66 7 67 6 64 -48z"/>
</g>
<g id="part-2" class="char-part">
  <path d="M510 561 c0 -4 9 -20 20 -34 11 -14 20 -30 20 -36 0 -14 -122 -15
-137 0 -7 7 -18 -3 -37 -37 -32 -58 -33 -76 -3 -72 13 2 28 15 37 34 14 29 21
32 90 43 41 6 106 14 143 18 71 6 78 2 56 -39 -10 -19 -9 -20 12 -14 13 3 41
9 62 12 45 8 47 25 6 54 -26 19 -38 21 -87 15 -31 -3 -68 -9 -81 -12 -19 -5
-22 -3 -17 13 3 11 2 24 -2 30 -16 25 -82 45 -82 25z"/>
</g>
<g id="part-3" class="char-part">
  <path d="M505 396 c-48 -10 -56 -13 -38 -20 27 -9 183 12 183 25 0 12 -71 10
-145 -5z"/>
</g>
<g id="part-4" class="char-part">
  <path d="M725 110 c-22 -4 -89 -10 -150 -14 -194 -11 -265 -18 -260 -26 10
-16 81 -20 156 -11 42 6 142 11 223 12 141 1 176 8 139 27 -31 16 -66 20 -108
12z"/>
</g>
</g>
</svg>