<?xml version="1.0" standalone="no"?>
<!DOCTYPE svg PUBLIC "-//W3C//DTD SVG 20010904//EN"
 "http://www.w3.org/TR/2001/REC-SVG-20010904/DTD/svg10.dtd">
<svg version="1.0" xmlns="http://www.w3.org/2000/svg"
 width="96.000000pt" height="68.000000pt" viewBox="0 0 96.000000 68.000000"
 preserveAspectRatio="xMidYMid meet">
<metadata>
Created by potrace 1.16, written by Peter Selinger 2001-2019
Combined from part_0.svg through part_5.svg with named groups
</metadata>
<g transform="translate(0.000000,68.000000) scale(0.100000,-0.100000)" fill="#000000" stroke="none">
<g id="part-0" class="char-part">
  <path d="M425 601 l7 -48 -77 -9 c-41 -5 -76 -13 -75 -19 0 -5 34 -11 75 -13
71 -3 75 -4 75 -26 0 -31 -16 -36 -107 -36 -72 0 -75 -1 -60 -17 8 -10 21 -49
29 -88 l14 -70 67 4 67 3 0 -30 0 -30 -87 -6 c-49 -4 -121 -9 -162 -13 l-75
-6 24 -19 c16 -13 32 -17 48 -13 13 3 60 10 105 15 45 6 97 12 115 15 l32 6 0
-96 c0 -52 4 -95 8 -95 23 0 32 30 32 101 0 45 5 81 11 85 6 3 85 7 175 7 90
1 164 4 164 8 0 4 -11 14 -25 23 -23 15 -39 16 -138 7 -62 -6 -128 -11 -148
-11 -33 0 -35 2 -31 27 3 25 8 28 44 31 22 1 46 -3 54 -9 24 -20 39 -3 68 72
16 41 33 79 38 86 7 9 0 18 -24 33 -33 21 -37 21 -140 4 -35 -5 -38 -4 -38 19
0 22 6 26 40 31 22 3 58 9 80 12 50 7 59 21 23 35 -19 7 -40 7 -70 0 -66 -17
-69 -16 -65 28 3 33 1 39 -20 44 -55 15 -60 11 -53 -42z m183 -177 l3 -29 -61
0 c-59 0 -61 1 -58 25 2 19 10 26 33 30 63 11 80 6 83 -26z m-168 -14 l0 -30
-60 0 c-33 0 -60 4 -60 9 0 5 -3 16 -6 25 -4 11 3 16 33 19 93 9 93 10 93 -23z
m164 -57 c-10 -42 -12 -43 -65 -43 -48 0 -49 1 -49 29 0 28 2 30 48 34 26 2
53 4 60 5 9 1 10 -6 6 -25z m-164 -24 l0 -30 -52 3 c-49 3 -53 5 -56 31 -3 27
-2 27 52 27 56 0 56 0 56 -31z"/>
</g>
<g id="part-1" class="char-part">
  <path d="M424 613 c4 -15 9 -36 12 -45 4 -13 -4 -18 -43 -23 -112 -14 -121
-20 -35 -23 l82 -3 0 -29 c0 -17 4 -30 9 -30 26 0 41 15 41 40 0 26 2 27 75
36 98 12 98 30 0 27 l-74 -3 -3 38 c-3 34 -6 37 -37 40 -32 3 -33 2 -27 -25z"/>
</g>
<g id="part-2" class="char-part">
  <path d="M490 470 c-52 -10 -128 -19 -168 -19 l-72 -1 15 -23 c8 -13 20 -50
26 -83 14 -70 25 -87 48 -75 27 14 236 22 249 9 20 -20 40 0 68 74 15 40 32
79 37 86 6 7 8 14 6 16 -53 41 -66 42 -209 16z m120 -42 l0 -33 -60 0 c-58 0
-60 1 -60 27 0 25 4 27 48 31 26 2 53 4 60 5 7 1 12 -10 12 -30z m-172 -15
c-3 -27 -6 -28 -60 -31 -33 -2 -58 1 -58 7 0 5 -3 16 -6 25 -4 11 3 16 33 19
94 9 95 9 91 -20z m161 -65 c-5 -18 -9 -34 -9 -35 0 -2 -22 -3 -50 -3 -49 0
-50 1 -50 29 0 28 2 30 48 34 26 2 52 4 59 5 8 2 9 -7 2 -30z m-159 -19 l0
-30 -52 3 c-49 3 -53 5 -56 31 -3 27 -2 27 52 27 56 0 56 0 56 -31z"/>
</g>
<g id="part-3" class="char-part">
  <path d="M440 251 l0 -28 -102 -7 c-221 -14 -248 -21 -189 -46 22 -9 43 -9 83
-1 29 5 80 13 113 16 33 4 68 9 78 11 15 5 17 -4 17 -90 0 -55 4 -96 10 -96
19 0 30 40 30 109 0 38 5 73 10 76 6 4 82 8 168 9 157 1 189 9 140 33 -18 9
-51 10 -129 3 -169 -15 -179 -14 -179 15 0 20 -5 25 -25 25 -21 0 -25 -5 -25
-29z"/>
</g>
</g>
</svg>