<?xml version="1.0" standalone="no"?>
<!DOCTYPE svg PUBLIC "-//W3C//DTD SVG 20010904//EN"
 "http://www.w3.org/TR/2001/REC-SVG-20010904/DTD/svg10.dtd">
<svg version="1.0" xmlns="http://www.w3.org/2000/svg"
 width="96.000000pt" height="68.000000pt" viewBox="0 0 96.000000 68.000000"
 preserveAspectRatio="xMidYMid meet">
<metadata>
Created by potrace 1.16, written by Peter Selinger 2001-2019
Combined from part_0.svg through part_5.svg with named groups
</metadata>
<g transform="translate(0.000000,68.000000) scale(0.100000,-0.100000)" fill="#000000" stroke="none">
<g id="part-0" class="char-part">
  <path d="M557 553 c4 -15 8 -53 8 -83 l0 -55 -67 1 c-62 2 -83 -6 -59 -20 5
-4 12 -25 16 -49 3 -23 9 -50 11 -59 5 -16 -2 -18 -47 -18 -41 0 -50 -3 -41
-12 7 -7 40 -11 87 -10 74 2 76 2 70 -19 -10 -30 -32 -54 -93 -101 -29 -22
-51 -43 -48 -45 2 -3 24 4 48 15 50 22 102 72 128 123 18 34 22 36 81 43 34 3
96 6 137 6 90 0 88 20 -3 28 -30 2 -55 8 -55 12 0 4 11 24 25 44 14 20 25 41
25 46 0 22 -44 32 -107 25 l-64 -7 3 79 3 78 -33 3 c-32 3 -32 2 -25 -25z
m138 -153 c4 -6 4 -33 0 -60 l-7 -50 -44 0 c-40 0 -44 2 -44 24 0 52 12 85 34
89 40 8 55 7 61 -3z m-130 -47 c-9 -67 -12 -73 -35 -73 -21 0 -32 19 -43 77
-6 31 -5 32 31 36 20 2 41 4 45 5 5 1 5 -19 2 -45z"/>
  <path d="M322 551 c-12 -11 -54 -32 -92 -48 -93 -37 -95 -54 -5 -33 45 10 55
3 55 -46 0 -37 -5 -40 -93 -49 -37 -4 -70 -11 -73 -16 -9 -16 44 -21 97 -10
57 13 67 10 46 -10 -7 -8 -18 -22 -23 -32 -6 -10 -39 -47 -74 -82 -35 -36 -60
-65 -56 -65 20 0 100 57 132 93 l37 42 -6 -100 c-6 -105 0 -132 27 -122 18 7
19 15 16 155 -2 102 3 117 32 88 8 -7 24 -17 37 -21 19 -6 22 -4 19 12 -2 11
-17 21 -40 27 -57 14 -56 34 2 42 63 8 65 24 4 24 l-47 0 5 45 c4 29 2 45 -6
46 -6 0 11 7 38 14 57 16 72 28 54 43 -26 21 -62 22 -86 3z"/>
  <path d="M641 197 c40 -32 115 -93 119 -98 11 -13 48 -28 54 -22 28 28 -34 90
-117 116 -63 20 -78 21 -56 4z"/>
</g>
<g id="part-1" class="char-part">
  <path d="M312 538 c-18 -11 -59 -31 -90 -44 -79 -33 -33 -31 87 3 53 15 98 28
100 30 2 1 -2 9 -9 18 -17 21 -49 19 -88 -7z"/>
</g>
<g id="part-2" class="char-part">
  <path d="M287 492 c-15 -3 -17 -11 -11 -51 l6 -48 -58 -11 c-31 -7 -70 -12
-85 -12 -15 0 -31 -4 -34 -10 -10 -16 41 -23 100 -13 30 6 55 7 55 4 0 -14
-36 -60 -99 -123 -36 -38 -61 -68 -55 -68 20 0 101 58 133 96 l33 39 -6 -106
c-5 -90 -3 -109 10 -120 13 -10 17 -10 25 2 11 18 12 30 9 157 -1 56 1 102 5
102 4 0 18 -9 32 -20 31 -24 56 -26 51 -4 -3 19 -21 30 -61 39 -39 8 -26 21
28 29 59 9 58 26 -1 26 l-47 0 6 44 c7 46 -1 56 -36 48z"/>
</g>
<g id="part-3" class="char-part">
  <path d="M555 563 c4 -10 9 -46 12 -80 5 -52 9 -63 24 -63 14 0 19 12 24 65 9
81 4 95 -36 95 -26 0 -30 -3 -24 -17z"/>
</g>
<g id="part-4" class="char-part">
  <path d="M600 419 c-41 -5 -100 -6 -130 -3 -53 6 -54 5 -39 -12 9 -11 20 -35
24 -54 11 -60 16 -70 32 -70 12 0 14 7 9 38 -4 20 -9 44 -12 53 -5 17 2 19
155 35 l64 7 -6 -56 c-6 -48 -5 -56 10 -59 12 -2 24 8 35 32 10 19 23 43 30
53 11 15 10 20 -6 33 -22 15 -52 16 -166 3z"/>
</g>
<g id="part-5" class="char-part">
  <path d="M576 378 c-22 -80 -32 -148 -22 -152 6 -2 2 -5 -8 -5 -16 -1 -17 -4
-8 -13 10 -10 15 -10 22 2 6 8 8 20 6 27 -3 6 2 14 11 18 13 4 14 8 5 17 -7 7
-12 16 -12 21 0 5 8 0 18 -12 16 -19 22 -20 76 -11 32 5 61 12 65 16 6 6 -101
-5 -108 -12 -2 -2 -9 1 -16 6 -7 6 -10 30 -9 60 2 29 -1 50 -7 50 -5 0 -11 -6
-13 -12z"/>
  <path d="M750 290 c-13 -8 -13 -10 2 -10 9 0 20 5 23 10 8 13 -5 13 -25 0z"/>
  <path d="M786 285 c-3 -9 0 -15 9 -15 16 0 20 16 6 24 -5 3 -11 -1 -15 -9z"/>
  <path d="M490 271 c0 -7 -4 -10 -9 -7 -5 4 -20 2 -33 -4 -21 -8 -20 -9 10 -7
33 1 50 12 38 24 -3 4 -6 1 -6 -6z"/>
  <path d="M515 270 c-3 -5 1 -10 9 -10 9 0 16 5 16 10 0 6 -4 10 -9 10 -6 0
-13 -4 -16 -10z"/>
  <path d="M400 259 c0 -5 5 -7 10 -4 6 3 10 8 10 11 0 2 -4 4 -10 4 -5 0 -10
-5 -10 -11z"/>
  <path d="M501 176 c-14 -15 -20 -30 -16 -37 5 -7 4 -10 -3 -5 -6 3 -27 -5 -48
-19 -43 -29 -39 -32 13 -8 45 20 93 61 93 80 0 20 -14 16 -39 -11z"/>
  <path d="M690 170 c19 -17 45 -40 56 -52 12 -11 27 -17 33 -13 6 3 10 1 9 -6
-2 -6 3 -14 10 -16 8 -3 11 3 8 19 -3 12 -5 26 -5 30 -1 4 -8 5 -16 1 -10 -3
-15 -1 -13 8 2 7 -10 17 -27 23 -16 6 -32 14 -35 17 -3 3 -16 9 -30 13 -23 7
-22 4 10 -24z"/>
</g>
</g>
</svg>