<?xml version="1.0" standalone="no"?>
<!DOCTYPE svg PUBLIC "-//W3C//DTD SVG 20010904//EN"
 "http://www.w3.org/TR/2001/REC-SVG-20010904/DTD/svg10.dtd">
<svg version="1.0" xmlns="http://www.w3.org/2000/svg"
 width="96.000000pt" height="68.000000pt" viewBox="0 0 96.000000 68.000000"
 preserveAspectRatio="xMidYMid meet">
<metadata>
Created by potrace 1.16, written by Peter Selinger 2001-2019
Combined from part_0.svg through part_5.svg with named groups
</metadata>
<g transform="translate(0.000000,68.000000) scale(0.100000,-0.100000)" fill="#000000" stroke="none">
<g id="part-0" class="char-part">
  <path d="M530 535 c-30 -7 -91 -14 -135 -14 l-80 -2 23 -19 c14 -12 30 -44 41
-82 13 -47 21 -63 34 -62 22 2 23 -36 1 -81 -17 -36 -82 -109 -128 -143 -43
-33 -10 -26 44 8 27 17 71 62 103 106 55 72 69 104 47 104 -5 0 -10 5 -10 10
0 15 36 12 49 -4 8 -9 12 -44 11 -88 -2 -120 -1 -126 29 -160 29 -33 30 -33
119 -33 77 0 95 3 119 21 30 23 31 29 11 87 -15 44 -23 47 -33 9 -15 -60 -30
-72 -98 -72 -90 0 -107 15 -107 92 0 34 6 77 12 96 11 30 11 35 -6 47 -16 12
-15 14 16 17 19 2 32 8 31 15 -4 18 25 95 43 114 14 15 13 18 -8 33 -26 18
-51 18 -128 1z m60 -25 c0 -5 -5 -32 -11 -59 l-11 -51 -51 -7 c-90 -12 -89
-12 -108 45 -20 59 -23 56 61 70 75 13 120 14 120 2z"/>
  <path d="M190 533 c0 -17 56 -63 76 -63 30 0 38 26 14 50 -19 19 -90 29 -90
13z"/>
  <path d="M140 375 c38 -39 81 -45 86 -12 3 22 -43 47 -87 47 l-33 0 34 -35z"/>
  <path d="M226 260 c-26 -32 -60 -69 -77 -81 -25 -18 -29 -26 -24 -48 8 -34 32
-58 44 -46 10 10 121 222 121 230 0 17 -23 -3 -64 -55z"/>
</g>
<g id="part-1" class="char-part">
  <path d="M200 534 c0 -16 54 -64 72 -64 21 0 25 32 6 48 -17 13 -78 26 -78 16z"/>
  <path d="M131 393 c29 -47 89 -66 89 -29 0 18 -49 46 -80 46 -17 0 -18 -3 -9
-17z"/>
  <path d="M198 227 c-76 -80 -76 -81 -62 -109 8 -15 20 -28 27 -27 11 1 122
208 115 214 -2 2 -38 -34 -80 -78z"/>
</g>
<g id="part-2" class="char-part">
  <path d="M525 535 c-27 -7 -86 -14 -129 -14 l-79 -1 24 -26 c13 -14 31 -51 39
-82 13 -46 19 -57 35 -55 11 1 49 5 85 8 109 10 129 15 124 28 -2 7 8 39 24
70 l29 58 -21 14 c-24 18 -62 17 -131 0z m59 -24 c4 -5 1 -32 -5 -59 -11 -55
-24 -62 -114 -62 -42 0 -43 0 -54 46 -7 26 -9 49 -6 53 7 6 114 28 152 30 12
0 24 -3 27 -8z"/>
</g>
<g id="part-3" class="char-part">
  <path d="M430 331 c0 -38 -60 -125 -123 -180 -47 -40 -49 -44 -22 -37 45 11
102 62 156 139 53 75 58 91 33 101 -32 12 -44 6 -44 -23z"/>
</g>
<g id="part-4" class="char-part">
  <path d="M527 259 c2 -125 12 -151 68 -175 60 -25 187 -10 219 25 15 17 15 22
-8 70 l-24 53 -7 -42 c-10 -59 -44 -76 -142 -72 -47 3 -63 24 -63 89 0 31 5
74 12 96 11 35 10 41 -7 53 -10 8 -26 14 -34 14 -14 0 -16 -16 -14 -111z"/>
</g>
</g>
</svg>