<?xml version="1.0" standalone="no"?>
<!DOCTYPE svg PUBLIC "-//W3C//DTD SVG 20010904//EN"
 "http://www.w3.org/TR/2001/REC-SVG-20010904/DTD/svg10.dtd">
<svg version="1.0" xmlns="http://www.w3.org/2000/svg"
 width="96.000000pt" height="68.000000pt" viewBox="0 0 96.000000 68.000000"
 preserveAspectRatio="xMidYMid meet">
<metadata>
Created by potrace 1.16, written by Peter Selinger 2001-2019
Combined from part_0.svg through part_5.svg with named groups
</metadata>
<g transform="translate(0.000000,68.000000) scale(0.100000,-0.100000)" fill="#000000" stroke="none">
<g id="part-0" class="char-part">
  <path d="M491 515 c-7 -24 -33 -75 -58 -112 -34 -50 -39 -63 -22 -50 13 10 30
20 38 24 20 9 86 -31 86 -53 0 -10 -30 -43 -66 -74 -63 -53 -69 -55 -126 -56
-55 -1 -59 1 -57 20 1 12 3 31 3 43 1 18 8 22 38 25 20 2 39 9 41 17 4 11 -4
13 -37 7 l-42 -6 3 35 c1 19 7 36 13 37 5 0 17 2 25 2 8 1 14 9 12 18 -1 10 4
34 13 54 8 20 15 43 15 50 0 23 -45 27 -119 10 -38 -9 -83 -13 -100 -10 -34 7
-39 0 -16 -22 8 -8 19 -34 25 -57 18 -70 18 -69 49 -62 35 7 41 -8 41 -111 0
-69 -1 -72 -26 -78 -15 -4 -29 -4 -32 -1 -3 3 -5 29 -3 58 2 55 -15 87 -39 72
-11 -7 -9 -37 6 -118 5 -25 3 -27 -30 -27 -40 0 -47 -14 -15 -31 21 -11 84 -5
104 10 11 8 152 61 162 61 4 0 -2 -7 -13 -15 -15 -12 -16 -14 -3 -15 9 0 19 3
23 7 28 28 61 -6 72 -74 7 -45 27 -72 39 -53 3 5 32 10 64 10 83 0 121 9 121
29 0 9 9 34 19 54 17 33 17 39 4 52 -17 18 -44 19 -152 4 -113 -15 -126 -8
-65 38 27 21 58 45 68 55 18 17 21 16 57 -13 21 -17 41 -35 44 -40 17 -26 67
-40 125 -33 33 4 60 10 60 14 0 5 -24 16 -52 25 -74 24 -148 57 -148 67 0 4
-6 8 -14 8 -32 0 -25 23 23 85 28 36 51 67 51 70 0 3 -11 10 -25 15 -18 7 -44
5 -85 -4 -65 -16 -73 -10 -44 32 12 18 13 26 4 37 -23 28 -45 17 -59 -30z
m-195 -67 c-8 -39 -7 -38 -51 -48 -33 -7 -37 -6 -46 17 -19 51 -10 58 70 62
33 1 33 0 27 -31z m329 2 c3 -5 -8 -30 -25 -55 l-31 -45 -44 23 c-24 12 -45
27 -45 33 0 21 35 43 75 47 22 2 45 4 52 5 6 1 15 -2 18 -8z m14 -324 l-3 -44
-44 -6 c-72 -10 -102 -7 -102 8 0 7 -3 27 -6 44 -6 29 -4 31 27 35 19 2 56 5
82 5 l48 2 -2 -44z"/>
</g>
<g id="part-1" class="char-part">
  <path d="M260 503 c-27 -8 -64 -12 -93 -9 l-48 5 21 -26 c11 -14 23 -43 26
-63 8 -51 19 -67 36 -53 7 6 41 15 75 19 35 3 60 10 57 15 -3 5 4 30 16 56 20
45 20 48 4 60 -22 16 -36 15 -94 -4z m40 -57 c0 -40 -3 -43 -57 -52 -37 -6
-41 -4 -47 19 -3 14 -9 32 -12 40 -6 18 12 24 74 26 41 1 42 1 42 -33z"/>
</g>
<g id="part-2" class="char-part">
  <path d="M265 180 c-55 -16 -117 -29 -137 -29 -45 -1 -49 -15 -10 -35 27 -14
35 -12 145 31 64 26 117 50 117 55 0 10 5 11 -115 -22z"/>
</g>
<g id="part-3" class="char-part">
  <path d="M492 526 c-11 -38 -49 -109 -89 -165 -17 -24 -17 -24 25 4 55 36 139
159 123 179 -7 8 -20 16 -30 19 -14 3 -20 -5 -29 -37z"/>
</g>
<g id="part-4" class="char-part">
  <path d="M583 476 c-73 -16 -80 -30 -10 -22 31 3 57 3 57 -2 0 -12 -58 -102
-66 -102 -3 0 -18 8 -32 18 -15 10 -35 22 -44 25 -32 12 -19 -10 24 -38 l42
-28 -59 -55 c-33 -29 -80 -66 -104 -80 -24 -14 -39 -28 -33 -30 17 -5 104 43
164 92 l56 46 49 -44 c67 -60 86 -68 141 -61 88 12 89 16 15 40 -70 22 -183
80 -183 94 0 4 23 36 51 71 48 59 50 64 33 77 -20 15 -28 15 -101 -1z"/>
</g>
<g id="part-5" class="char-part">
  <path d="M620 191 c0 -5 9 -11 21 -14 16 -4 19 -10 11 -24 -4 -10 -8 -29 -8
-43 1 -14 -6 -31 -14 -38 -13 -10 -10 -12 14 -9 27 3 31 9 44 61 12 49 12 60
1 67 -20 13 -31 11 -23 -3 6 -10 4 -10 -7 0 -15 14 -39 16 -39 3z"/>
  <path d="M430 168 c0 -4 10 -8 23 -9 21 0 21 -1 2 -9 -11 -5 -15 -9 -8 -9 7
-1 10 -8 6 -18 -4 -11 -3 -14 6 -9 8 6 10 1 6 -16 -3 -13 0 -31 8 -42 13 -17
14 -13 10 42 -4 60 -4 61 24 67 50 12 49 13 -14 12 -35 0 -63 -4 -63 -9z"/>
  <path d="M515 60 c-19 -8 -19 -9 2 -9 12 -1 25 4 28 9 7 12 -2 12 -30 0z"/>
  <path d="M560 60 c0 -5 5 -10 10 -10 6 0 10 5 10 10 0 6 -4 10 -10 10 -5 0
-10 -4 -10 -10z"/>
</g>
</g>
</svg>