<?xml version="1.0" standalone="no"?>
<!DOCTYPE svg PUBLIC "-//W3C//DTD SVG 20010904//EN"
 "http://www.w3.org/TR/2001/REC-SVG-20010904/DTD/svg10.dtd">
<svg version="1.0" xmlns="http://www.w3.org/2000/svg"
 width="96.000000pt" height="68.000000pt" viewBox="0 0 96.000000 68.000000"
 preserveAspectRatio="xMidYMid meet">
<metadata>
Created by potrace 1.16, written by Peter Selinger 2001-2019
Combined from part_0.svg through part_5.svg with named groups
</metadata>
<g transform="translate(0.000000,68.000000) scale(0.100000,-0.100000)" fill="#000000" stroke="none">
<g id="part-0" class="char-part">
  <path d="M252 595 c-6 -14 -19 -25 -28 -25 -13 0 -15 -6 -10 -32 4 -18 10 -54
13 -80 l6 -48 -36 0 c-19 0 -38 6 -40 13 -4 9 -8 9 -15 -2 -15 -21 -36 -91
-29 -97 12 -13 38 7 48 36 10 28 14 30 65 32 30 0 60 1 67 2 6 1 12 -6 12 -14
0 -10 -12 -16 -37 -18 -46 -4 -51 -22 -7 -22 27 0 30 -2 18 -16 -7 -8 -29 -24
-48 -34 -48 -25 -21 -25 31 0 23 11 42 19 44 17 1 -1 5 -17 9 -35 l7 -32 -51
0 c-28 0 -51 -4 -51 -10 0 -10 25 -14 68 -10 12 1 22 -1 22 -4 0 -16 -51 -61
-107 -93 -34 -20 -61 -38 -59 -40 6 -6 89 29 120 50 l29 20 27 -33 c18 -23 32
-31 44 -27 27 10 18 34 -19 51 l-35 17 32 33 c29 29 41 34 100 38 73 6 97 -4
180 -78 60 -53 91 -66 148 -58 28 4 50 9 50 13 0 3 -28 15 -62 25 -73 23 -171
70 -188 91 -11 13 -6 15 34 15 25 0 46 4 46 9 0 18 -56 28 -115 21 -132 -18
-150 -18 -178 -3 -19 9 -27 20 -23 29 3 9 6 24 6 34 0 12 10 20 32 24 36 7 33
15 -8 22 -68 12 -44 24 65 31 77 5 91 4 91 -9 0 -10 -16 -19 -42 -25 l-43 -11
39 -1 c34 -1 37 -3 25 -17 -7 -8 -26 -22 -43 -31 -17 -9 -25 -18 -19 -20 7 -3
29 5 48 17 l35 22 0 -26 c0 -16 6 -26 15 -26 11 0 15 11 15 40 0 39 1 40 40
46 47 8 43 24 -6 24 -19 0 -33 4 -30 9 4 5 0 11 -6 13 -7 3 21 8 62 11 79 7
102 -1 80 -28 -16 -19 -7 -30 17 -20 10 4 31 9 46 10 42 4 45 14 13 42 -23 19
-38 24 -75 22 l-46 -3 3 45 c2 24 8 48 13 53 12 13 11 43 -1 51 -15 9 -110 -5
-110 -16 0 -6 15 -7 35 -3 30 5 35 4 35 -13 0 -14 -11 -22 -37 -30 l-38 -10
33 -2 c43 -1 45 -31 2 -31 -16 0 -30 -4 -30 -10 0 -5 14 -10 30 -10 20 0 30
-5 30 -15 0 -9 -9 -15 -22 -15 -13 0 -33 -3 -45 -6 -23 -6 -23 -5 -23 79 0
101 -2 103 -105 87 -36 -6 -70 -8 -75 -5 -5 3 -7 -32 -3 -85 l5 -90 -31 0
c-17 0 -34 -1 -38 -2 -4 -2 -9 4 -11 13 -2 10 8 19 30 26 l33 11 -36 1 c-25 1
-36 6 -36 16 0 8 9 15 21 15 12 0 28 5 36 10 11 7 6 10 -21 10 -29 0 -36 4
-35 18 0 9 14 23 29 29 33 15 34 46 1 51 -14 2 -24 -5 -32 -23z m225 -45 c0
-21 -2 -39 -6 -38 -32 3 -91 -4 -91 -12 0 -5 7 -10 15 -10 9 0 15 -9 15 -25 0
-14 0 -28 0 -32 1 -5 -8 -9 -20 -11 -18 -3 -20 2 -20 57 l0 61 46 0 c30 0 43
4 38 11 -4 7 -21 9 -45 5 -30 -5 -39 -3 -39 8 0 17 19 23 71 25 36 1 36 0 36
-39z m3 -85 c0 -28 -4 -35 -20 -35 -16 0 -20 7 -20 35 0 28 4 35 20 35 16 0
20 -7 20 -35z"/>
  <path d="M560 340 c0 -14 82 -52 92 -42 5 5 4 13 -4 19 -19 14 -88 32 -88 23z"/>
  <path d="M364 315 c10 -8 23 -12 28 -9 14 9 -2 24 -25 24 -21 -1 -21 -1 -3
-15z"/>
  <path d="M416 178 c8 -52 -31 -118 -86 -146 -36 -19 -39 -22 -15 -17 49 11 95
36 112 61 20 31 23 30 64 -7 56 -50 79 -63 90 -52 24 24 -26 71 -93 87 -24 5
-27 10 -22 35 7 36 -11 71 -36 71 -16 0 -18 -5 -14 -32z"/>
  <path d="M502 167 c-29 -31 -28 -39 6 -31 50 12 65 24 51 40 -16 20 -32 18
-57 -9z"/>
</g>
<g id="part-1" class="char-part">
  <path d="M260 601 c-17 -34 -13 -41 20 -30 33 12 36 19 18 37 -17 17 -26 15
-38 -7z"/>
</g>
<g id="part-2" class="char-part">
  <path d="M587 439 c-179 -19 -411 -28 -425 -17 -10 9 -16 8 -22 -1 -14 -24
-33 -91 -27 -97 12 -12 38 6 48 34 l10 29 147 12 c271 22 357 28 370 23 10 -3
9 -10 -3 -29 l-16 -24 38 6 c21 4 51 9 68 12 l29 5 -32 29 c-35 32 -46 33
-185 18z"/>
</g>
<g id="part-3" class="char-part">
  <path d="M309 395 c-1 -3 -2 -11 -3 -17 0 -7 -14 -14 -31 -16 -53 -5 -62 -15
-20 -22 l40 -6 -53 -33 c-29 -19 -50 -36 -48 -38 3 -4 54 17 109 45 4 2 7 0 6
-5 -7 -38 16 -45 25 -8 6 22 9 24 26 15 22 -12 44 -5 35 11 -4 5 -17 9 -31 9
-35 0 -30 16 9 25 l32 7 -25 10 c-14 5 -33 14 -42 19 -20 10 -27 11 -29 4z"/>
</g>
<g id="part-4" class="char-part">
  <path d="M520 396 c0 -9 -17 -19 -42 -24 l-43 -10 39 -1 c34 -1 37 -3 25 -17
-7 -8 -26 -22 -42 -30 -16 -9 -26 -18 -23 -21 3 -3 21 4 41 16 45 26 45 26 45
-4 0 -16 6 -25 15 -25 11 0 15 11 15 39 0 41 11 51 56 51 14 0 22 4 19 10 -3
6 -22 10 -41 10 -19 0 -34 5 -34 10 0 6 -7 10 -15 10 -8 0 -15 -6 -15 -14z"/>
  <path d="M595 315 c45 -28 65 -31 65 -11 0 8 -19 18 -44 25 -64 16 -66 14 -21
-14z"/>
</g>
<g id="part-5" class="char-part">
  <path d="M425 150 c1 -33 -3 -60 -8 -60 -5 0 -22 -13 -37 -30 -40 -43 -17 -37
29 8 37 36 40 37 62 22 13 -8 27 -18 30 -23 3 -4 14 -5 25 -1 13 4 15 3 6 -3
-10 -8 -10 -12 3 -23 8 -7 15 -9 15 -5 0 4 7 2 15 -5 9 -7 18 -10 22 -7 11 12
-55 63 -93 72 -39 10 -39 10 -39 60 0 37 -4 50 -16 53 -13 2 -15 -7 -14 -58z"/>
  <path d="M512 168 c-19 -19 -14 -33 6 -16 9 9 24 13 32 11 13 -4 13 -3 0 6
-19 14 -23 14 -38 -1z"/>
  <path d="M327 133 c-9 -9 12 -33 29 -33 19 0 18 26 -2 34 -19 7 -19 7 -27 -1z
m28 -13 c3 -5 2 -10 -4 -10 -5 0 -13 5 -16 10 -3 6 -2 10 4 10 5 0 13 -4 16
-10z"/>
</g>
</g>
</svg>