<?xml version="1.0" standalone="no"?>
<!DOCTYPE svg PUBLIC "-//W3C//DTD SVG 20010904//EN"
 "http://www.w3.org/TR/2001/REC-SVG-20010904/DTD/svg10.dtd">
<svg version="1.0" xmlns="http://www.w3.org/2000/svg"
 width="96.000000pt" height="68.000000pt" viewBox="0 0 96.000000 68.000000"
 preserveAspectRatio="xMidYMid meet">
<metadata>
Created by potrace 1.16, written by Peter Selinger 2001-2019
Combined from part_0.svg through part_5.svg with named groups
</metadata>
<g transform="translate(0.000000,68.000000) scale(0.100000,-0.100000)" fill="#000000" stroke="none">
<g id="part-0" class="char-part">
  <path d="M600 562 c-29 -55 -45 -72 -66 -72 -18 0 -19 -7 -16 -80 2 -44 0 -92
-5 -107 -5 -16 -7 -36 -5 -47 3 -16 10 -17 45 -11 65 11 190 21 211 17 17 -4
18 -11 13 -74 -8 -89 -33 -123 -84 -113 -39 7 -41 2 -8 -30 28 -29 52 -31 81
-7 30 24 44 55 55 121 5 31 12 70 15 88 6 30 4 32 -28 38 -19 4 -78 2 -131 -4
-122 -14 -127 -14 -127 3 0 9 18 16 53 20 103 13 121 18 103 28 -10 5 -38 5
-73 -1 -76 -15 -83 -14 -83 8 0 16 10 20 58 25 31 3 66 5 76 4 20 -3 55 47 70
98 10 34 -32 47 -105 33 -33 -6 -62 -9 -65 -6 -3 3 15 20 40 39 49 36 52 47
18 59 -19 7 -25 3 -42 -29z m97 -87 c7 -20 1 -26 -34 -30 -15 -2 -45 -6 -65
-10 -34 -7 -38 -5 -38 12 0 16 10 22 58 30 31 6 61 11 65 12 4 0 10 -6 14 -14z
m-7 -59 c0 -20 -7 -23 -72 -31 -54 -7 -58 -6 -58 13 0 21 4 22 108 30 13 1 22
-4 22 -12z"/>
  <path d="M290 540 c0 -70 -14 -87 -81 -94 -32 -4 -59 -11 -59 -16 0 -6 5 -11
10 -11 6 -1 15 -3 20 -4 6 -1 22 -3 36 -4 l26 -1 -35 -40 c-19 -22 -55 -57
-81 -77 -25 -20 -44 -38 -41 -41 2 -3 25 3 50 13 26 9 47 16 49 14 1 -2 9 -29
17 -59 14 -53 15 -55 49 -55 33 0 35 -2 32 -30 -8 -64 -6 -78 9 -88 12 -8 23
-4 46 17 16 14 38 33 49 42 18 15 18 15 -8 10 -14 -3 -33 -9 -42 -12 -13 -5
-16 1 -16 35 l0 41 40 0 c44 0 65 21 76 78 4 18 11 32 16 32 5 0 6 5 3 10 -4
6 -10 8 -15 5 -4 -3 -13 2 -19 9 -9 11 -20 12 -43 5 -36 -10 -48 -5 -48 21 0
13 -9 22 -25 26 -33 8 -38 3 -26 -29 6 -15 7 -28 3 -31 -13 -8 -72 -11 -72 -3
0 4 20 32 46 61 l47 53 68 -43 c74 -48 109 -56 109 -24 0 24 -35 48 -97 65
-34 9 -41 13 -22 14 35 1 89 21 89 32 0 15 -49 21 -81 10 -18 -6 -34 -9 -37
-7 -2 3 6 23 19 46 23 41 23 42 4 56 -10 8 -29 14 -42 14 -20 0 -23 -5 -23
-40z m-3 -286 c-3 -3 -17 -6 -33 -7 -42 -3 -43 26 -2 38 28 9 33 7 36 -8 2
-10 2 -21 -1 -23z m103 19 c0 -55 -10 -73 -41 -73 -40 0 -41 35 -1 45 26 8 27
8 4 14 -13 3 -23 9 -23 14 1 4 1 12 1 17 0 6 14 10 30 10 26 0 30 -4 30 -27z
m-100 -63 c0 -15 -7 -20 -25 -20 -14 0 -25 2 -25 4 0 2 -3 11 -6 20 -5 13 1
16 25 16 24 0 31 -4 31 -20z"/>
  <path d="M681 203 c33 -44 69 -57 69 -25 0 11 -12 22 -33 30 -45 16 -52 15
-36 -5z"/>
  <path d="M461 170 c-17 -33 -19 -45 -10 -56 24 -29 57 32 41 77 -8 20 -10 19
-31 -21z"/>
  <path d="M600 202 c0 -10 43 -52 53 -52 16 0 5 30 -15 44 -25 18 -38 20 -38 8z"/>
  <path d="M540 186 c0 -13 25 -46 36 -46 13 0 1 37 -16 48 -17 10 -20 10 -20
-2z"/>
</g>
<g id="part-1" class="char-part">
  <path d="M296 556 c3 -14 1 -41 -6 -61 -13 -40 -40 -55 -96 -55 -52 0 -41 -18
14 -22 l47 -3 -83 -83 c-45 -45 -80 -82 -77 -82 32 0 135 82 183 145 21 27 25
28 45 15 129 -82 149 -89 155 -56 4 18 -57 50 -120 63 -32 7 -32 7 21 18 30 5
56 16 59 24 4 12 -7 13 -56 8 l-62 -7 23 46 c21 45 22 46 3 60 -11 8 -28 14
-38 14 -15 0 -17 -5 -12 -24z"/>
</g>
<g id="part-2" class="char-part">
  <path d="M287 173 c-3 -5 -7 -35 -8 -68 -4 -54 -2 -60 16 -62 12 -2 40 16 70
42 l50 44 -47 -14 -48 -14 0 39 c0 28 -4 40 -14 40 -8 0 -17 -3 -19 -7z"/>
</g>
<g id="part-3" class="char-part">
  <path d="M610 586 c0 -7 -11 -30 -25 -51 -15 -20 -24 -40 -21 -43 3 -2 27 12
53 33 27 21 50 41 53 43 7 5 -31 32 -47 32 -7 0 -13 -6 -13 -14z"/>
</g>
<g id="part-4" class="char-part">
  <path d="M627 495 c-32 -7 -72 -11 -89 -8 -26 4 -30 2 -24 -12 3 -9 6 -39 6
-66 l0 -49 93 4 92 5 27 48 c33 61 34 67 3 81 -30 14 -30 14 -108 -3z m71 -33
c3 -18 -2 -22 -26 -22 -16 0 -50 -3 -75 -6 -42 -6 -45 -5 -41 13 4 15 19 22
62 30 71 12 76 11 80 -15z m-8 -39 c-1 -22 -21 -32 -79 -39 -58 -6 -63 -5 -59
12 2 15 15 20 53 25 79 9 85 9 85 2z"/>
</g>
<g id="part-5" class="char-part">
  <path d="M680 217 c0 -12 40 -47 54 -47 15 0 15 2 4 13 -15 15 -58 40 -58 34z"/>
  <path d="M472 180 c-7 -12 -10 -26 -6 -32 4 -6 3 -8 -4 -4 -7 4 -10 -1 -9 -14
3 -43 26 -18 33 35 5 41 3 42 -14 15z"/>
  <path d="M620 194 c0 -5 7 -18 15 -28 12 -16 15 -17 15 -4 0 8 -7 21 -15 28
-8 7 -15 9 -15 4z"/>
  <path d="M552 168 c2 -6 10 -13 16 -14 7 -1 8 0 2 3 -5 2 -8 9 -4 14 3 5 0 9
-6 9 -7 0 -10 -5 -8 -12z"/>
</g>
</g>
</svg>