<?xml version="1.0" standalone="no"?>
<!DOCTYPE svg PUBLIC "-//W3C//DTD SVG 20010904//EN"
 "http://www.w3.org/TR/2001/REC-SVG-20010904/DTD/svg10.dtd">
<svg version="1.0" xmlns="http://www.w3.org/2000/svg"
 width="96.000000pt" height="68.000000pt" viewBox="0 0 96.000000 68.000000"
 preserveAspectRatio="xMidYMid meet">
<metadata>
Created by potrace 1.16, written by Peter Selinger 2001-2019
Combined from part_0.svg through part_5.svg with named groups
</metadata>
<g transform="translate(0.000000,68.000000) scale(0.100000,-0.100000)" fill="#000000" stroke="none">
<g id="part-0" class="char-part">
  <path d="M245 563 c4 -10 9 -44 12 -75 7 -75 -3 -88 -73 -88 -41 0 -54 -4 -54
-15 0 -12 13 -15 60 -15 l60 0 -21 -42 c-26 -50 -46 -78 -101 -136 -22 -23
-38 -45 -35 -48 15 -15 85 40 143 112 14 17 14 9 9 -83 -7 -114 -2 -143 25
-143 26 0 30 19 30 153 l1 122 19 -24 c12 -13 26 -21 35 -17 26 10 16 36 -21
58 -22 13 -33 26 -30 35 3 8 6 16 6 18 0 2 20 7 45 11 57 8 54 28 -4 32 l-43
3 7 65 c8 75 -2 94 -47 94 -25 0 -29 -3 -23 -17z"/>
  <path d="M543 523 l2 -48 -72 -9 c-87 -11 -97 -28 -15 -25 31 1 58 -2 60 -7 3
-13 -45 -61 -91 -92 -22 -15 -35 -28 -29 -30 13 -4 66 23 110 56 18 14 34 23
36 21 2 -2 2 -25 -1 -51 -6 -53 -9 -54 -98 -49 -27 1 -35 -1 -27 -7 11 -8 51
-126 52 -155 0 -5 8 -6 18 -3 45 14 153 17 168 5 8 -6 16 -10 18 -8 2 2 15 39
30 82 22 62 25 81 16 92 -14 17 -82 20 -111 5 -18 -10 -19 -7 -19 75 l0 85 74
0 c74 0 106 12 65 25 -11 4 -46 5 -77 3 l-57 -3 -1 30 c-2 52 -4 55 -28 55
-22 0 -24 -4 -23 -47z m117 -266 c0 -20 -6 -24 -32 -25 -18 -1 -59 -6 -90 -10
l-58 -9 0 28 c0 27 3 28 53 32 129 9 127 9 127 -16z m-7 -69 c-4 -21 -11 -23
-84 -26 -74 -3 -79 -2 -79 17 0 17 8 21 48 24 119 9 120 9 115 -15z"/>
  <path d="M600 412 c0 -4 12 -13 28 -19 35 -16 92 -49 106 -63 13 -13 56 -13
56 0 0 20 -44 49 -108 69 -75 23 -82 24 -82 13z"/>
  <path d="M517 85 c-87 -7 -161 -16 -164 -19 -20 -20 24 -22 282 -12 216 9 223
10 205 31 -15 18 -93 18 -323 0z"/>
</g>
<g id="part-1" class="char-part">
  <path d="M258 492 l5 -89 -69 -10 -69 -10 63 -1 c42 -2 62 -6 62 -14 0 -25
-59 -115 -112 -173 -45 -49 -48 -56 -23 -42 37 19 100 80 127 121 l20 31 -7
-80 c-3 -44 -8 -98 -11 -120 -4 -27 0 -47 10 -60 27 -36 37 -5 43 134 5 116 8
129 20 111 8 -11 21 -20 29 -20 25 0 15 30 -16 48 -23 13 -30 23 -28 42 3 21
9 26 45 31 24 3 45 8 49 12 9 9 -43 20 -68 14 -20 -6 -21 -4 -15 67 5 71 4 74
-19 85 -14 6 -29 11 -33 11 -5 0 -6 -40 -3 -88z"/>
</g>
<g id="part-2" class="char-part">
  <path d="M543 527 l2 -52 -72 -8 c-92 -11 -97 -30 -8 -25 36 1 65 0 65 -3 0
-8 -74 -76 -115 -106 -18 -13 -24 -22 -15 -23 17 0 116 55 125 70 14 23 22 7
18 -34 -6 -45 4 -60 31 -50 12 5 16 20 16 60 0 30 2 54 5 54 3 0 40 -20 83
-45 74 -43 112 -55 112 -36 0 28 -57 60 -147 81 -41 9 -53 16 -53 31 0 17 8
19 80 19 48 0 80 4 80 10 0 14 -43 30 -66 25 -11 -2 -36 -6 -57 -9 l-38 -5 3
41 c3 37 1 42 -24 49 -27 7 -27 7 -25 -44z"/>
</g>
<g id="part-3" class="char-part">
  <path d="M550 295 c-41 -7 -91 -10 -110 -7 -32 5 -34 4 -18 -11 9 -9 23 -46
31 -83 9 -36 17 -67 19 -68 2 -2 40 2 86 8 67 8 85 7 92 -3 13 -22 26 -5 54
74 21 60 25 80 15 91 -14 17 -64 16 -169 -1z m110 -40 c0 -19 -5 -25 -22 -24
-13 0 -53 -2 -89 -6 -57 -7 -67 -5 -72 10 -11 26 1 35 46 36 23 0 60 4 82 8
49 9 55 6 55 -24z m-7 -64 c-6 -23 -31 -31 -105 -31 -51 0 -58 2 -58 19 0 16
8 21 48 24 116 9 120 8 115 -12z"/>
</g>
<g id="part-4" class="char-part">
  <path d="M545 84 c-88 -7 -169 -13 -180 -13 -37 -2 1 -23 41 -23 86 0 420 14
433 18 11 4 10 8 -5 19 -23 17 -71 17 -289 -1z"/>
</g>
</g>
</svg>