<?xml version="1.0" standalone="no"?>
<!DOCTYPE svg PUBLIC "-//W3C//DTD SVG 20010904//EN"
 "http://www.w3.org/TR/2001/REC-SVG-20010904/DTD/svg10.dtd">
<svg version="1.0" xmlns="http://www.w3.org/2000/svg"
 width="96.000000pt" height="68.000000pt" viewBox="0 0 96.000000 68.000000"
 preserveAspectRatio="xMidYMid meet">
<metadata>
Created by potrace 1.16, written by Peter Selinger 2001-2019
Combined from part_0.svg through part_5.svg with named groups
</metadata>
<g transform="translate(0.000000,68.000000) scale(0.100000,-0.100000)" fill="#000000" stroke="none">
<g id="part-0" class="char-part">
  <path d="M485 594 c-44 -7 -111 -13 -149 -13 l-69 -1 21 -23 c12 -13 22 -32
23 -43 0 -10 5 -35 12 -54 11 -33 15 -35 57 -35 38 0 45 -3 45 -20 0 -20 -2
-21 -75 -24 -53 -2 -32 -18 23 -18 51 1 52 0 55 -31 2 -21 -1 -32 -10 -32 -56
0 -268 -25 -268 -32 0 -19 36 -20 159 -4 157 20 162 20 136 0 -28 -22 -148
-84 -225 -116 -36 -15 -56 -27 -44 -27 25 -1 112 29 169 57 l40 20 3 -76 c3
-81 12 -103 34 -84 7 6 44 12 82 13 55 2 71 -1 81 -14 33 -46 55 -7 58 102 2
89 1 91 -24 101 -17 8 -39 8 -70 1 -24 -6 -57 -11 -74 -11 -29 0 -28 2 20 29
45 25 63 29 174 35 68 4 128 9 133 12 5 4 0 13 -11 21 -17 11 -36 12 -99 5
-42 -5 -81 -7 -85 -5 -7 5 36 42 73 63 12 7 12 11 -4 29 -21 24 -46 28 -46 8
0 -7 -17 -29 -37 -48 -80 -76 -123 -90 -123 -39 0 28 3 30 50 36 58 8 57 24
-1 24 -32 0 -39 4 -39 19 0 10 7 22 16 25 25 9 64 7 64 -4 0 -5 8 -10 19 -10
16 0 38 37 78 137 5 14 -48 44 -74 42 -10 -1 -54 -8 -98 -15z m92 -40 c2 -7
-21 -14 -64 -18 -37 -4 -89 -9 -115 -13 -38 -4 -48 -3 -48 9 0 11 22 17 88 25
105 12 134 12 139 -3z m-7 -58 c0 -13 -28 -18 -179 -29 -13 -1 -26 3 -28 10
-3 7 19 13 64 18 37 3 77 7 88 9 44 7 55 5 55 -8z m23 -302 c5 -30 4 -31 -91
-39 l-73 -6 3 28 c3 30 27 39 114 42 37 1 42 -2 47 -25z m-3 -84 c0 -29 -1
-30 -52 -31 -29 0 -65 -3 -80 -5 -25 -4 -28 -2 -28 25 0 28 3 30 43 34 115 10
117 10 117 -23z"/>
</g>
<g id="part-1" class="char-part">
  <path d="M480 589 c-25 -5 -79 -10 -122 -12 -64 -2 -74 -4 -65 -16 7 -8 19
-39 27 -70 l15 -56 65 5 c36 3 95 5 131 4 l66 -1 30 66 c28 60 30 66 14 78
-18 14 -95 15 -161 2z m100 -39 c0 -17 -7 -20 -52 -21 -29 0 -80 -4 -113 -8
-33 -5 -61 -8 -62 -7 0 1 -3 10 -5 21 -3 18 4 21 72 26 154 11 160 11 160 -11z
m-10 -60 c0 -14 -6 -19 -22 -19 -13 1 -60 -2 -105 -6 -80 -8 -83 -7 -83 13 0
19 7 21 63 25 151 8 147 9 147 -13z"/>
</g>
<g id="part-2" class="char-part">
  <path d="M426 416 c5 -20 1 -24 -27 -30 -17 -3 -45 -6 -61 -6 -17 0 -27 -4
-23 -10 3 -5 31 -10 61 -10 53 0 54 -1 54 -29 0 -24 3 -28 20 -24 14 4 20 14
20 33 0 26 4 29 50 35 75 10 64 32 -12 26 -22 -2 -28 2 -28 18 0 17 -6 21 -30
21 -27 0 -30 -3 -24 -24z"/>
</g>
<g id="part-3" class="char-part">
  <path d="M630 430 c0 -13 -56 -76 -89 -99 -20 -14 -66 -23 -206 -36 -99 -10
-184 -21 -188 -25 -20 -18 58 -20 178 -5 70 8 130 14 132 11 6 -6 -99 -64
-207 -114 -84 -39 -90 -43 -52 -38 52 8 179 63 277 122 70 41 71 41 200 49 72
4 132 9 135 12 3 2 -4 11 -15 20 -15 11 -36 13 -90 8 -38 -3 -78 -8 -87 -11
-32 -9 -19 10 27 41 49 33 55 49 26 65 -25 13 -41 13 -41 0z"/>
</g>
<g id="part-4" class="char-part">
  <path d="M525 238 c-27 -6 -69 -17 -92 -25 l-43 -15 0 -78 c0 -74 12 -109 29
-82 3 6 39 12 80 13 60 2 75 -1 83 -14 5 -10 15 -17 22 -17 28 0 38 30 40 119
1 85 0 91 -22 101 -26 11 -27 11 -97 -2z m67 -43 c3 -14 3 -27 -1 -29 -3 -2
-41 -7 -84 -11 l-79 -7 4 29 c3 31 26 40 109 42 42 1 47 -1 51 -24z m2 -85 c1
-30 0 -30 -50 -30 -28 0 -66 -3 -83 -6 -29 -6 -31 -5 -31 23 0 30 0 30 78 39
42 5 79 8 81 7 2 -2 5 -16 5 -33z"/>
</g>
</g>
</svg>