<?xml version="1.0" standalone="no"?>
<!DOCTYPE svg PUBLIC "-//W3C//DTD SVG 20010904//EN"
 "http://www.w3.org/TR/2001/REC-SVG-20010904/DTD/svg10.dtd">
<svg version="1.0" xmlns="http://www.w3.org/2000/svg"
 width="96.000000pt" height="68.000000pt" viewBox="0 0 96.000000 68.000000"
 preserveAspectRatio="xMidYMid meet">
<metadata>
Created by potrace 1.16, written by Peter Selinger 2001-2019
Combined from part_0.svg through part_5.svg with named groups
</metadata>
<g transform="translate(0.000000,68.000000) scale(0.100000,-0.100000)" fill="#000000" stroke="none">
<g id="part-0" class="char-part">
  <path d="M518 565 c-2 -3 -81 -8 -174 -11 -93 -4 -171 -8 -173 -10 -2 -1 6
-14 17 -29 11 -14 25 -48 32 -75 l12 -51 37 8 c69 13 85 10 86 -16 0 -29 -10
-31 -118 -34 -64 -2 -76 -4 -70 -17 3 -8 7 -55 9 -105 1 -50 2 -91 3 -92 1 -1
26 7 56 18 72 25 125 26 125 0 0 -38 22 -78 53 -97 27 -16 51 -19 152 -19 72
0 139 5 168 14 52 15 56 24 33 96 l-13 40 -17 -41 c-25 -60 -50 -69 -182 -69
-105 0 -115 2 -136 23 -22 22 -23 29 -22 170 1 219 5 261 27 268 10 3 21 3 25
0 3 -4 5 -84 5 -179 -1 -95 2 -179 7 -186 5 -9 14 -11 26 -6 26 11 31 12 99
13 l61 2 28 86 c40 123 40 123 -142 98 -42 -6 -42 -6 -40 24 2 30 4 31 58 37
75 9 71 6 104 70 24 47 27 58 15 66 -15 9 -142 13 -151 4z m88 -57 c-4 -23 -9
-44 -11 -46 -2 -3 -24 -7 -50 -9 l-45 -6 0 46 c0 51 5 55 69 56 l44 1 -7 -42z
m-256 -27 c0 -36 -2 -39 -35 -45 -44 -9 -52 -4 -60 35 -9 38 4 49 58 49 36 0
37 -1 37 -39z m290 -161 c0 -24 -4 -30 -22 -30 -13 0 -47 -3 -75 -6 l-53 -7 0
31 c0 34 9 38 98 41 51 1 52 1 52 -29z m-280 -15 c0 -30 -4 -31 -87 -40 l-63
-6 0 30 c0 28 3 30 43 34 106 9 107 9 107 -18z m270 -48 c0 -31 -26 -48 -84
-54 l-58 -6 4 29 c3 26 7 30 48 35 77 10 90 9 90 -4z m-270 -32 c0 -19 -6 -26
-27 -30 -16 -4 -45 -10 -65 -14 -43 -10 -48 -7 -48 30 0 32 11 36 88 38 49 1
52 0 52 -24z"/>
</g>
<g id="part-1" class="char-part">
  <path d="M236 543 c-54 -4 -57 -5 -43 -21 8 -9 21 -39 29 -67 7 -27 19 -50 26
-49 7 1 44 2 82 3 l70 1 0 56 c0 35 -5 61 -14 70 -14 14 -26 14 -150 7z m122
-59 c3 -38 1 -42 -25 -48 -15 -4 -36 -9 -45 -12 -18 -5 -29 13 -44 71 -5 21
-2 24 33 28 74 8 78 6 81 -39z"/>
</g>
<g id="part-2" class="char-part">
  <path d="M470 563 c-64 -5 -90 -12 -90 -24 0 -7 12 -9 35 -5 l35 7 0 -178 c0
-98 4 -184 9 -192 7 -11 15 -11 41 -2 18 6 58 11 89 11 l56 0 29 85 c27 79 28
87 13 102 -13 14 -25 14 -92 4 -105 -15 -105 -15 -105 18 0 25 4 29 38 35 20
3 49 6 64 6 22 0 32 8 49 43 12 23 28 50 36 59 13 15 12 18 -6 27 -18 10 -98
12 -201 4z m135 -55 c-4 -24 -9 -45 -11 -47 -1 -2 -23 -6 -49 -8 l-45 -6 0 46
c0 50 4 53 78 56 l34 1 -7 -42z m33 -189 c-3 -30 -3 -30 -75 -35 l-73 -4 0 29
c0 33 10 37 98 40 l53 1 -3 -31z m-14 -76 c-4 -16 -8 -29 -9 -30 -1 -2 -29 -6
-63 -9 l-62 -7 0 31 c0 30 2 31 48 35 26 2 57 4 70 5 20 2 22 -1 16 -25z"/>
  <path d="M358 383 c-4 -31 -13 -33 -121 -36 -65 -2 -76 -4 -70 -17 4 -8 7 -55
8 -104 1 -98 6 -106 53 -82 16 8 58 20 92 25 34 6 64 12 65 13 1 2 5 54 7 116
5 103 4 112 -13 112 -12 0 -19 -9 -21 -27z m0 -80 c-3 -26 -7 -28 -67 -36 -49
-6 -66 -5 -73 5 -23 36 8 51 115 56 25 2 28 -1 25 -25z m2 -77 c0 -31 -2 -32
-77 -41 l-63 -7 0 30 c0 35 9 39 88 41 49 1 52 0 52 -23z"/>
</g>
<g id="part-3" class="char-part">
  <path d="M360 150 c0 -91 42 -114 205 -115 189 0 233 16 213 77 -25 77 -24 76
-43 31 -23 -57 -54 -68 -186 -68 -118 0 -141 10 -152 64 -8 41 -37 49 -37 11z"/>
</g>
</g>
</svg>