<?xml version="1.0" standalone="no"?>
<!DOCTYPE svg PUBLIC "-//W3C//DTD SVG 20010904//EN"
 "http://www.w3.org/TR/2001/REC-SVG-20010904/DTD/svg10.dtd">
<svg version="1.0" xmlns="http://www.w3.org/2000/svg"
 width="96.000000pt" height="68.000000pt" viewBox="0 0 96.000000 68.000000"
 preserveAspectRatio="xMidYMid meet">
<metadata>
Created by potrace 1.16, written by Peter Selinger 2001-2019
Combined from part_0.svg through part_5.svg with named groups
</metadata>
<g transform="translate(0.000000,68.000000) scale(0.100000,-0.100000)" fill="#000000" stroke="none">
<g id="part-0" class="char-part">
  <path d="M530 555 c-30 -7 -69 -14 -87 -14 -17 -1 -35 -6 -39 -12 -5 -9 13
-10 67 -5 145 13 169 18 169 32 0 17 -33 16 -110 -1z"/>
  <path d="M200 521 c0 -18 65 -71 86 -71 42 0 41 49 -2 69 -30 13 -84 15 -84 2z"/>
  <path d="M555 480 c-11 -5 -51 -9 -88 -9 -62 -1 -67 -2 -53 -17 9 -8 19 -33
22 -55 l7 -39 66 5 c102 9 104 10 129 61 18 37 20 49 10 56 -17 10 -67 9 -93
-2z m37 -50 c-2 -16 -9 -30 -16 -31 -6 0 -33 -4 -59 -8 -46 -8 -49 -7 -58 17
-5 14 -6 29 -2 33 9 8 50 15 104 18 34 1 35 0 31 -29z"/>
  <path d="M190 355 c-85 -31 -93 -50 -17 -41 l57 6 -12 -25 c-10 -22 -8 -29 15
-53 15 -15 30 -42 33 -60 l7 -32 -87 0 c-70 0 -86 -3 -86 -15 0 -18 0 -18 125
-19 90 -1 115 -6 250 -49 83 -26 162 -47 175 -47 32 0 187 48 195 60 4 6 -8
10 -27 10 -238 3 -537 49 -518 80 16 25 11 41 -22 72 l-32 30 38 35 c31 29 35
38 24 48 -24 23 -52 23 -118 0z"/>
  <path d="M630 340 c-75 -11 -208 -23 -246 -22 l-31 1 17 -35 c10 -19 21 -57
25 -84 l7 -49 41 4 c23 2 75 7 116 10 72 5 76 5 96 -22 l22 -27 16 25 c14 22
47 142 47 173 0 10 -45 40 -53 35 -1 -1 -27 -5 -57 -9z m55 -47 c1 -19 -3 -23
-30 -23 -18 0 -47 -3 -64 -6 -28 -6 -31 -4 -31 18 0 35 8 39 69 36 48 -3 55
-6 56 -25z m-165 -13 c0 -30 -1 -30 -55 -30 -52 0 -55 1 -55 24 0 25 0 25 93
34 13 2 17 -5 17 -28z m160 -44 c0 -38 -12 -46 -66 -46 -51 0 -54 2 -54 24 0
22 5 25 43 29 23 2 50 4 60 5 9 1 17 -4 17 -12z m-162 -28 c-2 -19 -10 -24
-42 -26 -38 -3 -56 8 -56 36 0 8 17 12 51 12 47 0 50 -2 47 -22z"/>
</g>
<g id="part-1" class="char-part">
  <path d="M200 522 c0 -17 56 -62 80 -64 19 -2 26 2 28 18 2 16 -6 25 -31 38
-37 17 -77 21 -77 8z"/>
  <path d="M175 346 l-60 -21 58 -3 c62 -3 60 -1 40 -49 -3 -7 0 -13 6 -13 15 0
51 -60 51 -86 0 -18 -8 -22 -55 -28 -31 -3 -67 -3 -80 0 -19 5 -25 2 -25 -10
0 -19 -5 -18 130 -20 93 -2 120 -7 236 -44 72 -23 151 -42 175 -42 45 0 179
37 179 50 0 4 -69 10 -154 14 -89 3 -197 15 -253 26 -139 29 -132 26 -126 64
4 28 0 37 -28 60 l-33 28 39 34 c39 33 39 35 21 49 -25 19 -46 17 -121 -9z"/>
</g>
<g id="part-2" class="char-part">
  <path d="M498 551 c-101 -19 -122 -31 -52 -30 70 1 194 22 197 34 3 16 -50 14
-145 -4z"/>
</g>
<g id="part-3" class="char-part">
  <path d="M555 480 c-11 -5 -51 -9 -90 -9 -38 -1 -65 -5 -58 -9 6 -4 17 -29 24
-56 l12 -48 71 7 c95 9 103 11 115 43 6 15 16 35 23 45 11 14 10 19 -2 27 -18
12 -68 12 -95 0z m35 -50 c0 -17 -5 -30 -12 -31 -7 0 -35 -4 -61 -8 -50 -8
-53 -7 -59 34 -3 21 26 31 100 34 29 1 32 -2 32 -29z"/>
</g>
<g id="part-4" class="char-part">
  <path d="M678 345 c-6 -6 -219 -26 -276 -26 -47 0 -52 -2 -40 -16 7 -8 20 -45
28 -82 l15 -66 60 3 c33 1 86 5 117 8 55 6 58 5 69 -20 15 -32 24 -33 43 -3
13 19 46 148 46 177 0 8 -56 31 -62 25z m2 -52 c0 -27 -2 -28 -60 -29 -55 -1
-60 0 -60 21 0 31 7 35 67 35 51 0 53 -1 53 -27z m-160 -13 c0 -30 -1 -30 -55
-30 -52 0 -55 2 -55 24 0 25 13 31 83 35 24 1 27 -3 27 -29z m160 -49 c0 -41
-8 -46 -65 -43 -50 4 -55 6 -55 27 0 21 6 24 43 28 23 2 50 4 60 5 11 1 17 -5
17 -17z m-160 -27 c0 -24 -2 -25 -47 -22 -41 3 -48 6 -51 26 -3 20 0 22 47 22
48 0 51 -2 51 -26z"/>
</g>
</g>
</svg>