<?xml version="1.0" standalone="no"?>
<!DOCTYPE svg PUBLIC "-//W3C//DTD SVG 20010904//EN"
 "http://www.w3.org/TR/2001/REC-SVG-20010904/DTD/svg10.dtd">
<svg version="1.0" xmlns="http://www.w3.org/2000/svg"
 width="96.000000pt" height="68.000000pt" viewBox="0 0 96.000000 68.000000"
 preserveAspectRatio="xMidYMid meet">
<metadata>
Created by potrace 1.16, written by Peter Selinger 2001-2019
Combined from part_0.svg through part_5.svg with named groups
</metadata>
<g transform="translate(0.000000,68.000000) scale(0.100000,-0.100000)" fill="#000000" stroke="none">
<g id="part-0" class="char-part">
  <path d="M208 406 l4 -145 -51 3 c-28 2 -51 3 -51 1 0 -1 7 -15 15 -31 8 -16
17 -48 21 -71 6 -40 27 -59 36 -32 2 5 38 13 81 16 68 5 77 8 77 26 0 10 10
37 22 58 12 21 18 42 14 46 -4 5 -32 8 -62 7 -59 0 -59 0 -48 67 6 36 7 37 61
42 30 3 58 9 61 12 14 14 -26 25 -71 19 l-49 -6 4 63 3 64 -35 3 -35 3 3 -145z
m102 -178 c0 -48 -9 -55 -71 -63 -53 -7 -56 -6 -62 17 -15 54 -9 67 31 71 101
10 102 10 102 -25z"/>
  <path d="M565 529 c-22 -4 -62 -9 -90 -10 l-50 -1 0 -127 c1 -134 7 -160 31
-140 22 18 28 3 14 -30 -15 -37 -87 -105 -135 -128 -19 -9 -35 -20 -35 -25 0
-12 6 -10 73 23 74 36 160 123 151 152 -5 14 -2 18 13 15 15 -3 18 -15 21 -84
4 -110 13 -118 136 -122 86 -4 95 -2 120 20 l26 23 -17 37 c-20 41 -33 49 -33
18 0 -38 -38 -60 -106 -60 -77 0 -95 14 -87 68 3 20 10 45 15 55 5 10 6 27 3
37 -8 24 20 28 29 5 8 -23 35 -18 40 8 3 12 7 75 8 139 3 114 2 117 -20 128
-26 11 -50 11 -107 -1z m69 -35 c17 -44 9 -51 -71 -58 -84 -7 -99 -1 -89 38 7
27 22 33 102 35 39 1 53 -3 58 -15z m6 -99 c0 -22 -5 -25 -32 -25 -18 0 -57
-3 -86 -7 -52 -6 -54 -5 -50 18 3 21 10 25 53 30 107 13 115 11 115 -16z m0
-75 c0 -30 -1 -30 -54 -30 -29 0 -68 -3 -85 -6 -29 -6 -31 -5 -31 24 l0 31 73
4 c39 1 78 4 85 5 7 1 12 -10 12 -28z"/>
</g>
<g id="part-1" class="char-part">
  <path d="M208 413 c2 -76 5 -140 7 -141 2 -2 13 -1 24 3 18 5 21 14 21 60 l0
53 60 7 c33 4 60 11 60 15 0 15 -35 20 -69 10 -19 -5 -37 -7 -41 -5 -4 2 -5
30 -2 61 5 60 -3 74 -43 74 -19 0 -20 -5 -17 -137z"/>
</g>
<g id="part-2" class="char-part">
  <path d="M235 274 c-33 -7 -78 -11 -100 -8 -38 6 -39 6 -24 -12 9 -11 22 -44
29 -74 16 -70 20 -77 35 -56 9 12 34 18 92 23 71 5 80 8 76 24 -3 10 5 36 18
59 20 35 21 43 9 50 -20 13 -62 11 -135 -6z m72 -55 c-3 -22 -7 -42 -9 -44 -1
-1 -28 -6 -59 -9 -53 -7 -57 -6 -63 16 -14 55 -9 67 37 71 107 9 100 12 94
-34z"/>
</g>
<g id="part-3" class="char-part">
  <path d="M560 529 c-19 -5 -57 -9 -85 -10 l-50 0 0 -110 c0 -105 1 -109 21
-109 13 0 24 8 27 20 4 17 14 20 55 20 27 0 64 3 81 6 24 5 31 3 31 -10 0 -10
9 -16 24 -16 23 0 24 2 28 98 3 78 1 99 -11 110 -17 14 -69 14 -121 1z m74
-35 c15 -39 7 -55 -26 -53 -18 1 -57 -2 -85 -6 -52 -7 -53 -7 -53 17 0 41 26
54 116 57 30 1 44 -4 48 -15z m6 -99 c0 -22 -5 -25 -32 -25 -18 0 -57 -3 -86
-7 -52 -6 -54 -5 -50 18 3 21 10 25 58 30 109 12 110 11 110 -16z"/>
</g>
<g id="part-4" class="char-part">
  <path d="M640 306 c0 -10 -22 -15 -82 -18 -46 -3 -84 -1 -86 3 -6 14 -52 10
-52 -4 0 -22 29 -53 37 -41 5 6 47 14 96 18 74 6 88 5 93 -8 14 -37 44 -10 44
40 0 19 -5 24 -25 24 -15 0 -25 -6 -25 -14z"/>
</g>
<g id="part-5" class="char-part">
  <path d="M569 258 c-1 -2 -2 -36 -4 -77 -2 -56 1 -78 13 -92 20 -24 32 -24 32
-1 0 14 -2 15 -10 2 -9 -13 -10 -13 -11 0 -1 8 -1 24 0 35 l1 20 -9 -20 c-9
-19 -10 -19 -10 3 -1 12 3 22 8 22 5 0 14 21 20 47 10 37 9 48 -1 54 -13 9
-27 11 -29 7z m16 -18 c3 -5 1 -10 -4 -10 -6 0 -11 5 -11 10 0 6 2 10 4 10 3
0 8 -4 11 -10z"/>
  <path d="M790 151 c0 -6 5 -13 11 -16 6 -4 -5 -18 -27 -32 -30 -21 -49 -26
-96 -25 -36 1 -58 -3 -58 -10 0 -6 3 -8 7 -5 3 4 12 2 19 -4 7 -6 41 -9 80 -6
55 3 71 8 86 26 16 21 16 25 3 52 -16 29 -25 37 -25 20z"/>
</g>
</g>
</svg>