<?xml version="1.0" standalone="no"?>
<!DOCTYPE svg PUBLIC "-//W3C//DTD SVG 20010904//EN"
 "http://www.w3.org/TR/2001/REC-SVG-20010904/DTD/svg10.dtd">
<svg version="1.0" xmlns="http://www.w3.org/2000/svg"
 width="96.000000pt" height="68.000000pt" viewBox="0 0 96.000000 68.000000"
 preserveAspectRatio="xMidYMid meet">
<metadata>
Created by potrace 1.16, written by Peter Selinger 2001-2019
Combined from part_0.svg through part_5.svg with named groups
</metadata>
<g transform="translate(0.000000,68.000000) scale(0.100000,-0.100000)" fill="#000000" stroke="none">
<g id="part-0" class="char-part">
  <path d="M598 372 c4 -251 4 -251 70 -273 52 -17 193 5 192 30 -1 20 -50 103
-53 90 -22 -78 -18 -74 -81 -77 -82 -4 -86 2 -86 118 l0 97 80 19 c79 19 90
28 58 48 -12 7 -30 3 -70 -17 -29 -15 -57 -27 -62 -27 -7 0 -5 42 10 151 5 38
-4 51 -41 63 -20 6 -20 2 -17 -222z"/>
  <path d="M400 510 c0 -3 5 -11 11 -17 13 -13 13 -292 0 -326 -10 -25 3 -57 22
-57 19 1 130 110 112 110 -10 0 -30 -9 -46 -21 -16 -11 -32 -18 -36 -16 -5 3
-7 39 -5 81 4 82 1 78 76 91 29 5 36 9 27 18 -8 8 -22 8 -52 0 l-42 -11 6 62
c3 34 3 67 -1 72 -8 12 -72 25 -72 14z"/>
  <path d="M255 434 c-40 -9 -92 -13 -123 -9 -57 6 -64 -3 -37 -42 8 -12 20 -67
27 -122 6 -55 15 -105 18 -111 5 -7 23 -7 59 1 29 6 72 8 96 5 l43 -7 17 78
c9 43 23 101 31 130 8 28 14 54 14 57 0 7 -56 36 -67 35 -4 0 -39 -7 -78 -15z
m65 -75 c0 -43 -3 -50 -16 -45 -9 3 -22 6 -30 6 -10 0 -14 13 -14 45 0 43 1
45 30 45 29 0 30 -1 30 -51z m-112 -6 c3 -35 0 -42 -18 -48 -27 -9 -28 -8 -36
42 -5 35 -3 42 12 46 32 8 39 2 42 -40z m102 -82 c0 -10 -3 -32 -6 -49 -5 -23
-10 -28 -25 -25 -14 4 -19 14 -19 43 0 21 6 41 13 43 25 11 37 7 37 -12z
m-102 -38 c-2 -35 -7 -49 -19 -51 -13 -2 -18 7 -21 40 -6 51 -3 58 23 58 18 0
20 -6 17 -47z"/>
</g>
<g id="part-1" class="char-part">
  <path d="M255 430 c-16 -4 -63 -8 -104 -9 l-73 -1 17 -26 c10 -16 23 -71 31
-128 18 -126 19 -129 41 -118 30 15 129 22 142 9 19 -19 29 3 50 103 11 52 24
107 30 122 19 49 -42 71 -134 48z m75 -47 c0 -55 -10 -73 -41 -73 -35 0 -39 6
-32 58 5 40 7 42 39 42 30 0 34 -3 34 -27z m-120 -34 c0 -49 -1 -50 -27 -47
-25 3 -29 8 -34 46 -6 49 -5 52 33 52 27 0 28 -2 28 -51z m104 -96 c-9 -58
-12 -65 -36 -61 -18 2 -24 11 -26 36 -5 48 3 62 37 62 29 0 30 -1 25 -37z
m-102 15 c3 -7 3 -30 0 -50 -6 -49 -36 -53 -46 -7 -11 57 -8 69 18 69 13 0 26
-6 28 -12z"/>
</g>
<g id="part-2" class="char-part">
  <path d="M400 511 c0 -5 5 -13 10 -16 13 -8 13 -300 0 -326 -12 -22 3 -59 23
-59 7 0 39 27 72 60 33 33 57 60 53 60 -3 0 -26 -11 -51 -25 -25 -14 -48 -22
-50 -18 -3 5 -2 42 1 83 5 55 11 75 22 77 67 8 90 15 84 25 -4 6 -24 8 -52 4
l-45 -6 7 64 c7 70 12 63 -56 82 -10 3 -18 1 -18 -5z"/>
</g>
<g id="part-3" class="char-part">
  <path d="M598 371 c3 -218 4 -227 26 -249 15 -15 39 -24 73 -28 58 -7 152 12
160 32 3 8 -4 30 -16 49 -12 20 -21 44 -22 53 -1 9 -7 -3 -15 -27 -8 -25 -19
-48 -26 -53 -20 -12 -113 -9 -126 4 -8 8 -12 47 -12 109 l0 96 68 17 c37 9 75
16 85 16 26 0 20 16 -11 29 -25 10 -35 8 -80 -15 -29 -15 -55 -25 -58 -22 -2
3 0 45 6 93 12 94 7 109 -33 117 l-22 4 3 -225z"/>
</g>
</g>
</svg>