<?xml version="1.0" standalone="no"?>
<!DOCTYPE svg PUBLIC "-//W3C//DTD SVG 20010904//EN"
 "http://www.w3.org/TR/2001/REC-SVG-20010904/DTD/svg10.dtd">
<svg version="1.0" xmlns="http://www.w3.org/2000/svg"
 width="96.000000pt" height="68.000000pt" viewBox="0 0 96.000000 68.000000"
 preserveAspectRatio="xMidYMid meet">
<metadata>
Created by potrace 1.16, written by Peter Selinger 2001-2019
Combined from part_0.svg through part_5.svg with named groups
</metadata>
<g transform="translate(0.000000,68.000000) scale(0.100000,-0.100000)" fill="#000000" stroke="none">
<g id="part-0" class="char-part">
  <path d="M430 630 c-80 -10 -146 -18 -148 -19 -2 0 6 -13 18 -28 17 -22 20
-35 14 -72 -11 -74 -59 -160 -127 -225 -57 -54 -59 -58 -32 -52 17 4 38 15 48
23 9 9 17 13 17 9 0 -18 81 88 105 138 17 34 32 53 40 50 17 -7 25 -60 16
-110 -14 -77 0 -81 84 -23 37 25 50 39 35 35 -14 -4 -37 -9 -52 -12 l-28 -6 0
61 0 61 33 1 c17 0 69 4 114 7 71 6 80 5 73 -8 -20 -37 -48 -53 -86 -46 -24 5
-34 4 -29 -3 3 -6 10 -11 16 -11 5 0 44 -22 86 -50 80 -52 103 -60 103 -35 0
20 -38 53 -77 67 -40 15 -38 29 5 40 37 10 39 16 15 33 -16 12 -14 14 20 20
20 4 34 11 31 16 -7 13 -70 11 -209 -6 -160 -19 -157 -19 -153 7 3 21 12 24
136 39 128 15 153 22 139 35 -8 8 -212 -15 -245 -27 -21 -8 -23 -7 -17 13 4
13 11 27 16 32 5 6 71 15 146 22 76 6 140 12 142 13 3 0 -4 8 -15 16 -23 18
-49 17 -234 -5z"/>
  <path d="M566 292 l6 -29 -129 -12 c-70 -6 -141 -13 -158 -14 l-30 -3 30 -13
c24 -10 43 -10 95 -1 89 16 167 23 182 17 10 -3 12 -24 8 -78 l-5 -74 -35 3
-35 3 34 -35 c29 -30 36 -33 57 -24 29 14 38 55 31 143 l-4 65 93 0 c73 0 94
3 94 14 0 19 -54 28 -122 20 -50 -6 -58 -4 -58 10 0 9 -12 21 -26 26 -35 14
-34 14 -28 -18z"/>
  <path d="M379 183 c13 -25 49 -53 66 -53 26 0 16 35 -14 53 -39 23 -65 23 -52
0z"/>
</g>
<g id="part-1" class="char-part">
  <path d="M460 629 c-36 -4 -89 -11 -117 -14 -49 -6 -52 -8 -37 -23 13 -12 15
-29 11 -72 -8 -88 -68 -193 -146 -253 -50 -38 -47 -45 8 -18 85 44 156 149
182 269 7 31 17 63 24 70 7 8 60 16 146 22 74 5 136 10 139 10 3 0 -2 5 -10
10 -17 11 -107 11 -200 -1z"/>
</g>
<g id="part-2" class="char-part">
  <path d="M620 440 c-24 -33 -22 -33 -106 -15 -20 5 -10 -4 31 -28 33 -19 82
-48 109 -66 54 -33 76 -39 76 -18 0 20 -40 54 -85 73 l-40 17 37 11 c44 13 50
24 22 43 -20 13 -24 12 -44 -17z"/>
  <path d="M376 368 c1 -54 5 -83 13 -86 10 -3 141 74 141 84 0 2 -19 -3 -41
-11 -66 -24 -69 -22 -69 40 0 50 -2 55 -22 55 -22 0 -23 -3 -22 -82z"/>
</g>
<g id="part-3" class="char-part">
  <path d="M567 314 c-4 -4 -4 -17 -1 -29 5 -21 1 -22 -103 -33 -59 -7 -129 -12
-155 -12 -27 0 -48 -4 -48 -10 0 -19 74 -23 149 -6 42 9 95 16 119 16 l42 0 1
-47 c3 -108 -4 -121 -53 -104 l-33 12 40 -41 c21 -22 42 -40 45 -40 3 0 17 10
29 22 22 20 23 27 19 110 l-5 88 93 0 c51 0 96 4 99 10 12 19 -48 32 -117 25
-58 -6 -68 -5 -68 9 0 8 -9 20 -19 26 -23 12 -26 12 -34 4z"/>
</g>
<g id="part-4" class="char-part">
  <path d="M380 186 c0 -18 43 -56 63 -56 24 0 21 33 -4 48 -30 19 -59 23 -59 8z"/>
</g>
</g>
</svg>