<?xml version="1.0" standalone="no"?>
<!DOCTYPE svg PUBLIC "-//W3C//DTD SVG 20010904//EN"
 "http://www.w3.org/TR/2001/REC-SVG-20010904/DTD/svg10.dtd">
<svg version="1.0" xmlns="http://www.w3.org/2000/svg"
 width="96.000000pt" height="68.000000pt" viewBox="0 0 96.000000 68.000000"
 preserveAspectRatio="xMidYMid meet">
<metadata>
Created by potrace 1.16, written by Peter Selinger 2001-2019
Combined from part_0.svg through part_5.svg with named groups
</metadata>
<g transform="translate(0.000000,68.000000) scale(0.100000,-0.100000)" fill="#000000" stroke="none">
<g id="part-0" class="char-part">
  <path d="M508 491 c4 -107 4 -108 -19 -114 -43 -12 -49 -8 -49 27 0 31 -13 46
-38 46 -4 0 -5 -21 -3 -46 4 -51 -6 -63 -49 -64 -20 0 -22 -2 -10 -10 8 -5 25
-10 38 -10 21 0 22 -4 22 -65 0 -81 16 -108 78 -132 92 -35 296 -18 338 28 16
18 16 20 1 37 -9 10 -20 33 -23 50 -8 41 -20 41 -28 -1 -3 -19 -18 -45 -32
-58 -24 -22 -33 -24 -138 -24 -153 0 -162 6 -158 107 l3 75 35 11 c19 5 36 7
38 4 1 -4 4 -34 5 -67 2 -57 6 -73 15 -64 3 2 8 38 13 79 l8 74 47 15 c27 8
51 12 54 8 6 -5 -4 -59 -23 -122 l-6 -20 23 20 c12 11 36 49 53 83 25 53 28
65 16 73 -22 13 -73 11 -105 -6 -16 -8 -38 -15 -48 -15 -18 0 -18 6 -13 83 7
83 7 84 -19 95 -14 7 -26 12 -27 12 -1 0 -1 -49 1 -109z"/>
  <path d="M260 574 c-19 -7 -53 -13 -75 -13 -22 -1 -47 -5 -54 -10 -24 -15 31
-24 95 -16 l55 7 -7 -29 c-17 -69 -19 -71 -88 -78 -68 -8 -72 -10 -57 -34 5
-8 3 -31 -6 -58 -19 -56 -9 -69 40 -48 20 8 50 15 67 15 28 0 30 -3 30 -35 0
-51 -20 -132 -35 -145 -10 -8 -21 -7 -45 5 -18 9 -34 14 -37 11 -8 -8 59 -86
75 -86 32 0 67 57 88 141 12 46 24 91 28 99 12 28 -45 52 -104 44 -33 -4 -50
-3 -50 4 0 6 5 14 11 18 6 3 9 15 6 25 -5 17 1 19 54 19 55 0 59 2 57 23 -1
12 11 46 27 74 16 29 26 55 23 58 -16 16 -66 21 -98 9z"/>
</g>
<g id="part-1" class="char-part">
  <path d="M261 571 c-8 -5 -41 -13 -74 -16 -40 -5 -55 -10 -46 -16 8 -5 42 -6
77 -2 57 5 62 4 62 -14 0 -11 -5 -34 -11 -50 -11 -33 -37 -43 -106 -43 -33 0
-34 -1 -28 -29 4 -17 0 -43 -9 -65 -19 -45 -8 -52 48 -31 24 9 54 15 67 13 22
-3 24 -7 21 -48 -4 -71 -23 -141 -39 -147 -8 -3 -31 2 -50 11 l-35 17 32 -41
c58 -73 95 -44 134 105 25 94 26 100 9 112 -14 11 -28 15 -53 15 -3 1 -24 -2
-48 -6 -40 -6 -42 -5 -32 13 5 11 10 29 10 39 0 17 9 21 59 27 43 5 58 10 55
20 -6 15 19 69 45 98 15 17 14 20 -4 33 -21 16 -63 18 -84 5z"/>
</g>
<g id="part-2" class="char-part">
  <path d="M398 401 l4 -50 -36 -6 c-46 -9 -47 -25 -1 -25 l35 0 0 -66 c0 -80 9
-98 63 -126 80 -43 313 -26 356 25 7 9 2 28 -16 66 l-27 54 -10 -38 c-18 -62
-52 -79 -160 -83 -67 -3 -102 0 -129 12 l-37 15 0 79 c0 75 1 79 26 90 29 14
24 33 -8 24 -19 -5 -21 -2 -15 25 6 32 -6 53 -32 53 -13 0 -15 -10 -13 -49z"/>
</g>
<g id="part-3" class="char-part">
  <path d="M508 496 c3 -70 1 -105 -7 -110 -6 -4 -11 -14 -11 -22 0 -8 5 -12 10
-9 6 3 10 3 10 -2 2 -40 13 -129 16 -132 9 -10 15 10 22 79 l7 74 47 15 c27 8
51 11 55 8 6 -7 -8 -80 -23 -122 l-7 -20 23 20 c34 29 84 146 68 157 -20 12
-65 9 -105 -7 -60 -25 -67 -17 -59 74 7 73 6 80 -13 90 -11 6 -24 11 -29 11
-5 0 -7 -45 -4 -104z"/>
</g>
</g>
</svg>