<?xml version="1.0" standalone="no"?>
<!DOCTYPE svg PUBLIC "-//W3C//DTD SVG 20010904//EN"
 "http://www.w3.org/TR/2001/REC-SVG-20010904/DTD/svg10.dtd">
<svg version="1.0" xmlns="http://www.w3.org/2000/svg"
 width="96.000000pt" height="68.000000pt" viewBox="0 0 96.000000 68.000000"
 preserveAspectRatio="xMidYMid meet">
<metadata>
Created by potrace 1.16, written by Peter Selinger 2001-2019
Combined from part_0.svg through part_5.svg with named groups
</metadata>
<g transform="translate(0.000000,68.000000) scale(0.100000,-0.100000)" fill="#000000" stroke="none">
<g id="part-0" class="char-part">
  <path d="M259 543 c-6 -21 -36 -61 -65 -91 -30 -29 -54 -60 -54 -68 0 -22 25
-27 65 -14 20 7 39 9 42 6 4 -4 -19 -31 -49 -61 -47 -45 -54 -56 -42 -66 11
-9 24 -6 61 12 28 13 66 23 91 22 33 0 42 4 42 17 0 9 -11 22 -25 28 -34 16
-38 15 -31 -3 6 -17 -14 -30 -64 -39 -33 -7 -31 -3 55 77 79 74 88 86 76 101
-21 25 -36 19 -54 -19 -15 -32 -20 -35 -59 -35 l-42 0 68 69 c63 63 66 69 51
85 -28 27 -52 20 -66 -21z"/>
  <path d="M540 572 c0 -5 8 -16 19 -26 10 -9 51 -61 92 -116 69 -94 76 -100
109 -100 40 0 80 9 80 19 0 3 -27 19 -60 35 -39 19 -84 53 -132 103 -73 74
-108 102 -108 85z"/>
  <path d="M475 477 c-2 -6 -9 -29 -15 -49 -6 -20 -22 -53 -35 -72 -49 -72 -51
-81 -11 -50 36 29 116 133 116 151 0 6 -11 15 -25 21 -20 9 -27 9 -30 -1z"/>
  <path d="M625 319 c-11 -4 -59 -13 -107 -20 -48 -7 -85 -16 -82 -21 3 -4 14
-8 24 -8 10 0 21 -4 24 -8 11 -17 -43 -110 -84 -145 -52 -44 -31 -50 27 -8 37
27 83 80 83 96 0 3 7 13 15 22 9 8 13 23 10 33 -5 14 1 20 25 24 16 3 43 8 59
12 37 7 43 -9 31 -81 -14 -89 -29 -110 -73 -109 -20 1 -37 -3 -37 -7 0 -5 4
-9 8 -9 5 0 15 -11 22 -25 17 -32 53 -32 78 0 18 23 77 233 68 243 -11 10 -73
18 -91 11z"/>
  <path d="M300 255 c0 -18 27 -56 42 -61 28 -8 33 2 15 29 -13 20 -57 44 -57
32z"/>
  <path d="M228 195 c10 -21 23 -35 34 -35 26 0 23 35 -4 54 -37 27 -47 20 -30
-19z"/>
  <path d="M110 197 c0 -11 33 -67 45 -77 16 -14 35 -5 35 16 0 20 -45 64 -65
64 -8 0 -15 -2 -15 -3z"/>
</g>
<g id="part-1" class="char-part">
  <path d="M259 533 c-12 -27 -45 -69 -73 -96 -44 -41 -48 -49 -35 -62 12 -13
20 -13 64 0 66 20 79 35 24 28 l-44 -6 40 44 c22 24 45 48 50 54 41 41 48 55
35 70 -21 26 -37 17 -61 -32z"/>
</g>
<g id="part-2" class="char-part">
  <path d="M299 243 c21 -36 39 -53 55 -53 23 0 20 26 -6 50 -28 26 -63 28 -49
3z"/>
  <path d="M231 190 c23 -41 41 -47 47 -16 5 23 -26 56 -50 56 -18 0 -18 -2 3
-40z"/>
  <path d="M100 205 c0 -2 12 -25 27 -50 38 -63 87 -58 53 6 -13 23 -80 61 -80
44z"/>
</g>
<g id="part-3" class="char-part">
  <path d="M530 574 c0 -3 11 -14 24 -25 13 -10 56 -63 97 -119 69 -94 76 -100
109 -100 41 0 80 10 80 19 0 4 -27 20 -59 36 -40 19 -86 55 -142 111 -73 73
-109 99 -109 78z"/>
  <path d="M470 464 c-6 -14 -10 -31 -10 -38 0 -7 -18 -41 -41 -76 -22 -34 -38
-65 -35 -67 9 -9 109 101 131 141 19 37 19 38 0 52 -27 20 -34 18 -45 -12z"/>
</g>
<g id="part-4" class="char-part">
  <path d="M620 318 c-19 -6 -71 -16 -115 -23 -57 -8 -75 -14 -61 -20 10 -5 56
-1 108 9 111 22 116 19 100 -64 -17 -95 -31 -115 -75 -114 -20 1 -37 -2 -37
-5 0 -13 56 -61 70 -61 28 0 59 52 76 129 9 42 23 89 31 104 14 27 13 28 -21
42 -20 8 -37 15 -38 14 -2 0 -19 -5 -38 -11z"/>
</g>
<g id="part-5" class="char-part">
  <path d="M477 211 c-19 -33 -33 -62 -29 -65 10 -11 61 55 55 72 -4 10 -2 13 5
8 8 -5 10 -1 5 10 -4 12 -3 15 5 10 8 -5 10 -2 6 8 -3 9 -7 16 -9 16 -1 0 -19
-27 -38 -59z"/>
  <path d="M415 120 c-17 -18 -17 -20 -2 -14 9 3 17 10 17 16 0 5 5 6 12 2 7 -4
8 -3 4 4 -9 16 -10 15 -31 -8z"/>
</g>
</g>
</svg>