<?xml version="1.0" standalone="no"?>
<!DOCTYPE svg PUBLIC "-//W3C//DTD SVG 20010904//EN"
 "http://www.w3.org/TR/2001/REC-SVG-20010904/DTD/svg10.dtd">
<svg version="1.0" xmlns="http://www.w3.org/2000/svg"
 width="96.000000pt" height="68.000000pt" viewBox="0 0 96.000000 68.000000"
 preserveAspectRatio="xMidYMid meet">
<metadata>
Created by potrace 1.16, written by Peter Selinger 2001-2019
Combined from part_0.svg through part_5.svg with named groups
</metadata>
<g transform="translate(0.000000,68.000000) scale(0.100000,-0.100000)" fill="#000000" stroke="none">
<g id="part-0" class="char-part">
  <path d="M565 608 c-2 -7 -6 -29 -7 -48 -3 -32 -6 -35 -46 -43 -47 -9 -48 -27
0 -27 28 0 30 -2 23 -27 -4 -16 -8 -35 -7 -44 0 -9 -8 -15 -21 -15 -12 0 -80
-4 -152 -8 l-130 -8 3 -117 c3 -71 -1 -136 -9 -169 -11 -47 -10 -55 4 -69 15
-16 18 -16 29 -1 11 13 47 17 209 23 193 7 196 6 202 -14 8 -30 37 -38 54 -15
11 15 13 51 11 164 -2 80 1 157 6 173 8 25 5 28 -29 43 -28 11 -54 14 -102 8
l-64 -6 31 46 c31 45 32 46 85 46 57 0 85 7 85 20 0 21 -98 34 -113 15 -8 -9
-5 6 9 39 4 10 -5 20 -25 30 -36 19 -40 20 -46 4z m88 -230 c12 -10 18 -38 23
-114 4 -56 4 -117 0 -136 l-6 -35 -201 -13 c-110 -7 -202 -10 -205 -7 -3 3 -2
69 2 146 6 120 9 141 23 142 9 0 68 6 131 13 153 18 213 19 233 4z"/>
  <path d="M480 345 c-25 -14 -52 -25 -60 -25 -8 0 -26 -7 -40 -15 -24 -13 -23
-13 18 -8 40 5 42 4 42 -20 0 -24 -4 -25 -71 -32 -47 -5 -67 -10 -58 -16 8 -5
35 -6 62 -3 26 4 47 3 47 -2 0 -10 -34 -44 -87 -85 -54 -43 -15 -35 50 11 l57
39 0 -44 c0 -40 13 -65 27 -51 3 3 8 25 10 51 3 25 10 45 15 45 5 0 29 -16 52
-35 49 -40 66 -44 66 -15 0 24 -49 57 -97 66 -60 11 -38 31 42 39 41 4 75 10
75 15 0 13 -39 19 -94 13 -52 -5 -53 -5 -53 20 0 22 5 27 38 32 40 7 52 28 23
39 -9 3 -16 6 -17 5 -1 0 -22 -11 -47 -24z"/>
  <path d="M290 585 c0 -4 7 -20 16 -36 8 -17 13 -33 10 -36 -3 -3 -35 -8 -71
-10 -64 -6 -65 -6 -48 -25 14 -16 26 -19 58 -14 23 3 48 8 57 11 11 4 19 -3
26 -24 6 -18 18 -31 28 -31 13 0 16 7 11 34 -5 32 -4 34 28 40 50 10 53 26 6
26 -39 0 -41 2 -41 29 0 17 -6 31 -16 35 -20 8 -64 8 -64 1z"/>
</g>
<g id="part-1" class="char-part">
  <path d="M570 588 c0 -52 -11 -68 -51 -74 -21 -4 -36 -11 -33 -16 4 -6 19 -8
35 -6 31 5 30 8 13 -53 -9 -31 12 -15 42 32 24 39 25 39 89 39 36 0 65 4 65 9
0 16 -38 23 -81 16 l-39 -7 11 26 c9 20 9 29 -1 41 -19 23 -50 19 -50 -7z"/>
  <path d="M305 568 c21 -71 24 -68 -49 -68 -67 0 -83 -10 -45 -31 15 -8 33 -8
64 0 61 15 63 15 70 -19 9 -41 25 -38 25 5 0 31 3 36 30 42 45 8 47 23 3 20
-35 -2 -38 0 -41 28 -4 32 -16 45 -46 45 -14 0 -17 -5 -11 -22z"/>
</g>
<g id="part-2" class="char-part">
  <path d="M485 404 c-72 -7 -159 -13 -195 -13 l-65 -1 4 -112 c2 -65 -2 -134
-9 -165 -16 -75 2 -119 34 -79 9 12 51 15 206 18 194 3 195 3 205 -19 5 -13
18 -23 27 -23 32 0 39 35 36 183 -2 78 1 154 5 169 8 23 5 28 -22 42 -34 18
-46 18 -226 0z m164 -23 c17 -11 29 -87 30 -181 1 -114 18 -105 -211 -119
-110 -7 -201 -11 -203 -9 -2 2 -1 67 2 146 5 121 8 142 22 143 9 0 68 6 131
13 142 17 211 18 229 7z"/>
</g>
<g id="part-3" class="char-part">
  <path d="M495 353 c-16 -9 -57 -27 -90 -40 l-60 -22 45 5 c40 5 131 26 170 40
12 5 12 8 -4 20 -24 17 -24 17 -61 -3z"/>
</g>
<g id="part-4" class="char-part">
  <path d="M447 303 c-4 -3 -7 -16 -7 -29 0 -20 -6 -23 -70 -29 -40 -4 -67 -11
-64 -17 3 -5 28 -6 60 -2 34 4 54 3 54 -4 0 -5 -21 -27 -46 -48 -100 -84 -94
-77 -51 -60 21 9 56 30 78 47 l39 31 0 -46 c0 -42 13 -66 28 -51 4 3 9 29 12
56 l5 50 54 -41 c60 -45 71 -48 71 -20 0 24 -49 57 -97 66 -42 8 -44 34 -3 35
17 1 35 3 40 4 6 1 27 3 47 4 28 1 34 4 25 13 -13 13 -50 15 -104 4 -36 -7
-38 -5 -38 19 0 23 -18 34 -33 18z"/>
</g>
</g>
</svg>