<?xml version="1.0" standalone="no"?>
<!DOCTYPE svg PUBLIC "-//W3C//DTD SVG 20010904//EN"
 "http://www.w3.org/TR/2001/REC-SVG-20010904/DTD/svg10.dtd">
<svg version="1.0" xmlns="http://www.w3.org/2000/svg"
 width="96.000000pt" height="68.000000pt" viewBox="0 0 96.000000 68.000000"
 preserveAspectRatio="xMidYMid meet">
<metadata>
Created by potrace 1.16, written by Peter Selinger 2001-2019
Combined from part_0.svg through part_5.svg with named groups
</metadata>
<g transform="translate(0.000000,68.000000) scale(0.100000,-0.100000)" fill="#000000" stroke="none">
<g id="part-0" class="char-part">
  <path d="M297 527 l6 -65 -34 -7 c-89 -18 -95 -35 -13 -35 54 0 55 0 52 -27
-3 -27 -6 -28 -107 -45 -109 -18 -124 -24 -101 -38 21 -14 66 -12 135 5 33 8
65 14 70 15 11 0 18 -117 7 -124 -4 -2 -17 0 -30 5 -18 7 -21 14 -16 33 4 18
1 27 -14 35 -23 12 -32 4 -52 -49 -7 -19 -31 -57 -53 -83 -21 -27 -37 -50 -35
-53 3 -2 34 23 70 56 l65 59 170 -85 c93 -46 186 -87 206 -91 44 -7 217 16
217 28 0 5 -11 9 -24 9 -53 0 -276 43 -341 66 -119 42 -125 46 -125 77 0 30
28 47 76 47 13 0 24 5 24 11 0 8 -15 10 -45 7 l-45 -6 0 33 c0 33 0 33 60 40
39 5 60 12 60 20 0 19 -25 25 -75 18 -43 -5 -45 -5 -45 20 0 22 7 28 38 36 20
6 43 11 50 11 6 0 12 7 12 15 0 11 -12 15 -44 15 l-45 0 -3 53 -3 52 -36 3
-37 3 5 -64z"/>
  <path d="M545 562 c-2 -3 2 -14 10 -26 8 -11 15 -30 15 -43 0 -12 5 -25 10
-28 6 -3 10 -14 10 -25 0 -15 -11 -19 -61 -25 -40 -5 -57 -10 -48 -16 10 -6
14 -34 14 -108 0 -55 3 -102 6 -106 4 -3 30 14 58 39 29 25 46 46 40 46 -7 0
-20 -7 -30 -16 -29 -26 -40 -8 -38 66 2 68 2 69 31 76 36 7 37 6 76 -78 l31
-68 -47 -40 c-55 -47 -45 -52 21 -11 l46 30 30 -38 c32 -40 95 -80 108 -68 4
4 2 28 -5 52 -7 25 -12 54 -12 65 0 31 -17 24 -23 -10 -8 -36 -22 -38 -48 -7
-25 29 -24 42 6 81 29 38 31 52 9 60 -27 10 -32 7 -38 -29 -4 -20 -13 -35 -21
-35 -12 0 -55 78 -55 100 0 5 27 11 60 15 97 11 70 37 -29 27 l-51 -5 0 30 c0
67 -10 91 -41 95 -16 3 -31 2 -34 0z"/>
  <path d="M680 522 c0 -15 46 -52 63 -52 26 0 20 35 -8 48 -30 14 -55 15 -55 4z"/>
</g>
<g id="part-1" class="char-part">
  <path d="M296 573 c4 -10 8 -40 9 -68 l0 -50 -47 -8 c-27 -5 -48 -14 -48 -19
0 -5 21 -8 48 -7 46 3 47 3 50 -28 4 -35 9 -33 -130 -54 -43 -6 -78 -15 -78
-19 0 -19 57 -18 169 5 67 14 136 25 154 25 18 0 39 4 47 10 23 14 -13 24 -66
16 l-44 -6 0 35 c0 21 5 35 13 35 6 0 30 5 52 12 l40 11 -30 8 c-16 5 -40 6
-53 2 -24 -6 -25 -5 -20 46 6 56 -6 71 -52 71 -18 0 -20 -4 -14 -17z"/>
</g>
<g id="part-2" class="char-part">
  <path d="M205 244 c-10 -26 -37 -71 -61 -100 -25 -30 -40 -54 -34 -54 5 0 38
27 73 59 l63 60 168 -84 c93 -47 185 -88 204 -91 39 -8 237 16 225 26 -4 4
-73 16 -153 28 -125 19 -165 30 -287 79 -131 52 -142 59 -137 79 4 16 0 26
-14 33 -29 15 -27 16 -47 -35z"/>
</g>
<g id="part-3" class="char-part">
  <path d="M540 569 c0 -2 11 -31 25 -64 32 -78 31 -85 -5 -85 -21 0 -30 -5 -30
-16 0 -13 7 -15 40 -9 30 5 40 3 40 -7 0 -7 13 -41 29 -75 l30 -63 -45 -36
c-57 -47 -49 -56 16 -16 l49 31 30 -38 c32 -40 95 -80 108 -68 4 4 2 28 -5 52
-7 25 -12 57 -12 71 0 33 -16 23 -23 -16 -8 -36 -19 -38 -47 -8 -26 28 -25 36
5 80 14 20 25 41 25 46 0 5 -11 14 -25 20 -23 10 -25 9 -25 -11 -1 -12 -7 -33
-14 -46 l-14 -25 -20 40 c-40 80 -40 81 29 89 41 5 58 10 51 17 -10 10 -71 13
-102 6 -14 -3 -26 24 -35 85 -4 27 -11 37 -25 37 -10 0 -25 3 -34 6 -9 3 -16
5 -16 3z"/>
  <path d="M680 521 c0 -13 50 -51 66 -51 24 0 15 36 -11 48 -31 14 -55 15 -55
3z"/>
</g>
<g id="part-4" class="char-part">
  <path d="M491 388 c8 -14 10 -51 6 -110 -3 -53 -2 -90 4 -94 6 -3 32 14 59 38
53 48 66 71 21 39 -49 -35 -54 -29 -49 52 6 87 3 97 -28 97 -22 0 -24 -2 -13
-22z"/>
</g>
</g>
</svg>