<?xml version="1.0" standalone="no"?>
<!DOCTYPE svg PUBLIC "-//W3C//DTD SVG 20010904//EN"
 "http://www.w3.org/TR/2001/REC-SVG-20010904/DTD/svg10.dtd">
<svg version="1.0" xmlns="http://www.w3.org/2000/svg"
 width="96.000000pt" height="68.000000pt" viewBox="0 0 96.000000 68.000000"
 preserveAspectRatio="xMidYMid meet">
<metadata>
Created by potrace 1.16, written by Peter Selinger 2001-2019
Combined from part_0.svg through part_5.svg with named groups
</metadata>
<g transform="translate(0.000000,68.000000) scale(0.100000,-0.100000)" fill="#000000" stroke="none">
<g id="part-0" class="char-part">
  <path d="M650 521 c-52 -42 -111 -71 -147 -71 l-32 0 0 -75 c0 -41 -5 -94 -11
-118 -15 -58 -71 -187 -81 -187 -5 0 -9 -5 -9 -12 0 -23 77 64 100 113 13 27
27 49 31 49 9 0 29 -64 29 -95 1 -35 23 -65 40 -55 8 5 38 10 66 10 79 0 145
11 141 24 -5 13 18 63 41 89 14 16 14 20 -6 39 -20 21 -24 21 -116 10 -116
-15 -183 -15 -191 -2 -3 5 -3 25 0 44 7 33 9 35 73 46 37 7 109 16 160 20 52
5 96 11 99 14 3 3 -7 10 -23 17 -31 11 -68 9 -199 -16 -44 -8 -84 -15 -88 -15
-5 0 -7 16 -5 36 3 39 0 37 181 112 39 16 48 36 21 46 -27 10 -38 7 -74 -23z
m92 -346 c-2 -22 -7 -43 -11 -47 -11 -13 -145 -28 -155 -18 -5 5 -10 29 -10
52 -1 43 -1 43 39 49 22 4 63 6 90 5 l50 -1 -3 -40z"/>
  <path d="M230 535 c0 -13 35 -61 58 -81 l24 -21 -101 -13 c-56 -8 -104 -17
-107 -22 -3 -4 7 -13 23 -19 22 -8 58 -6 165 12 76 13 138 27 138 31 0 14 -22
20 -65 20 -40 -1 -42 0 -37 24 6 34 -32 74 -70 74 -15 0 -28 -2 -28 -5z"/>
  <path d="M258 337 c-51 -11 -65 -27 -24 -27 37 0 126 22 126 32 0 10 -41 8
-102 -5z"/>
  <path d="M263 267 c-24 -5 -43 -14 -43 -18 0 -11 1 -11 77 2 34 6 60 15 57 20
-6 11 -35 10 -91 -4z"/>
  <path d="M306 198 c-11 -6 -43 -11 -73 -12 -49 0 -65 -7 -44 -20 4 -3 14 -26
21 -51 14 -50 2 -47 116 -29 21 3 34 10 31 17 -3 7 5 29 16 50 18 33 19 39 7
47 -20 13 -51 12 -74 -2z m19 -50 c-8 -37 -20 -48 -53 -48 -15 0 -26 8 -33 27
-11 30 -5 39 31 46 60 10 62 9 55 -25z"/>
</g>
<g id="part-1" class="char-part">
  <path d="M240 533 c0 -16 41 -74 56 -80 22 -8 34 8 27 35 -7 30 -83 70 -83 45z"/>
  <path d="M295 429 c-27 -4 -80 -13 -118 -19 -70 -12 -82 -30 -19 -30 34 0 228
27 262 37 13 4 13 5 0 13 -17 11 -55 11 -125 -1z"/>
</g>
<g id="part-2" class="char-part">
  <path d="M306 198 c-11 -6 -46 -12 -77 -12 -51 -1 -56 -3 -45 -16 8 -8 19 -33
26 -55 15 -47 25 -61 34 -46 4 6 25 11 46 11 48 0 70 8 70 26 0 7 8 29 17 49
15 31 15 37 3 45 -20 13 -51 12 -74 -2z m24 -30 c-1 -37 -14 -57 -42 -63 -34
-8 -44 -1 -53 37 -6 24 -4 27 27 31 62 7 68 7 68 -5z"/>
</g>
<g id="part-3" class="char-part">
  <path d="M643 520 c-63 -49 -105 -70 -143 -70 l-30 0 0 -77 c0 -94 -18 -166
-63 -255 l-35 -67 30 22 c54 40 91 138 124 332 2 16 27 30 101 59 114 45 127
54 113 71 -23 27 -49 23 -97 -15z"/>
</g>
<g id="part-4" class="char-part">
  <path d="M635 368 c-60 -11 -112 -22 -114 -24 -3 -2 0 -8 5 -14 5 -5 46 -3
104 6 52 8 122 17 155 20 54 5 58 7 40 20 -24 18 -55 17 -190 -8z"/>
</g>
<g id="part-5" class="char-part">
  <path d="M740 240 c-14 -4 -35 -5 -46 -3 -12 3 -25 -1 -29 -7 -5 -8 5 -11 34
-9 56 4 68 -9 52 -60 -11 -38 -27 -51 -71 -56 -63 -7 -121 -19 -125 -25 -2 -3
31 -1 74 5 44 6 93 10 110 9 19 -1 28 2 25 8 -4 6 -1 14 6 18 6 4 13 19 13 33
1 14 4 24 6 21 5 -4 30 27 31 38 0 15 -55 35 -80 28z m27 -102 c-3 -8 -6 -5
-6 6 -1 11 2 17 5 13 3 -3 4 -12 1 -19z"/>
  <path d="M517 212 c3 -9 10 -23 16 -29 5 -7 6 -24 3 -38 -4 -14 -2 -25 3 -25
6 0 8 -7 5 -15 -4 -11 -2 -13 9 -10 11 5 13 14 6 43 -13 58 -11 67 19 79 25 9
24 10 -20 11 -39 0 -46 -2 -41 -16z"/>
</g>
</g>
</svg>