<?xml version="1.0" standalone="no"?>
<!DOCTYPE svg PUBLIC "-//W3C//DTD SVG 20010904//EN"
 "http://www.w3.org/TR/2001/REC-SVG-20010904/DTD/svg10.dtd">
<svg version="1.0" xmlns="http://www.w3.org/2000/svg"
 width="96.000000pt" height="68.000000pt" viewBox="0 0 96.000000 68.000000"
 preserveAspectRatio="xMidYMid meet">
<metadata>
Created by potrace 1.16, written by Peter Selinger 2001-2019
Combined from part_0.svg through part_5.svg with named groups
</metadata>
<g transform="translate(0.000000,68.000000) scale(0.100000,-0.100000)" fill="#000000" stroke="none">
<g id="part-0" class="char-part">
  <path d="M566 578 c-2 -7 -9 -33 -16 -57 -6 -24 -29 -73 -50 -108 -21 -34 -36
-63 -32 -63 3 0 20 13 37 30 27 27 39 30 118 36 l87 7 0 -91 c0 -98 -13 -179
-34 -207 -11 -16 -17 -16 -50 -5 -21 6 -39 10 -41 8 -9 -9 58 -78 75 -78 26 0
66 42 78 82 6 18 16 80 22 137 6 57 15 114 20 126 17 45 -37 62 -140 45 -39
-7 -73 -10 -76 -7 -3 2 5 22 17 43 51 89 50 88 32 102 -9 6 -23 12 -30 12 -8
0 -15 -6 -17 -12z"/>
  <path d="M267 553 c-4 -3 -7 -20 -7 -38 0 -17 -12 -50 -27 -74 -23 -34 -33
-41 -52 -38 -22 4 -23 3 -17 -47 4 -28 7 -86 7 -128 1 -88 18 -127 41 -95 9
12 32 20 70 24 55 6 58 5 67 -21 6 -14 15 -26 20 -26 33 0 55 68 66 202 5 74
5 78 -18 93 -20 13 -33 14 -68 6 -24 -6 -57 -11 -72 -11 l-28 0 50 58 c28 32
51 64 51 71 0 20 -68 40 -83 24z m108 -211 l0 -43 -60 -4 c-33 -2 -68 -6 -78
-10 -16 -7 -18 -3 -15 41 3 56 17 64 103 61 l50 -2 0 -43z m3 -109 l-3 -48
-75 -7 c-41 -3 -77 -5 -79 -2 -9 9 -7 76 3 80 10 4 111 20 144 23 9 1 12 -12
10 -46z"/>
  <path d="M500 300 c0 -21 57 -73 73 -67 29 11 20 43 -17 61 -39 18 -56 20 -56
6z"/>
</g>
<g id="part-1" class="char-part">
  <path d="M266 518 c-4 -24 -18 -60 -32 -80 -50 -77 18 -30 100 69 17 21 17 22
-13 37 -43 23 -48 21 -55 -26z"/>
</g>
<g id="part-2" class="char-part">
  <path d="M320 408 c-25 -5 -71 -7 -102 -5 l-56 3 5 -130 c4 -91 10 -135 19
-146 12 -12 15 -12 26 3 8 10 34 19 68 23 53 6 56 5 68 -20 29 -64 69 -7 78
111 3 43 9 90 14 104 9 30 4 41 -27 58 -25 12 -30 12 -93 -1z m58 -64 l3 -41
-58 -6 c-32 -4 -68 -10 -81 -13 -22 -6 -23 -5 -20 42 3 45 5 49 33 55 17 4 50
6 75 6 l45 -2 3 -41z m2 -101 c0 -51 -9 -61 -50 -60 -19 0 -52 -3 -72 -7 l-38
-7 0 44 0 45 68 9 c37 6 73 11 80 12 8 1 12 -12 12 -36z"/>
</g>
<g id="part-3" class="char-part">
  <path d="M567 583 c-4 -3 -7 -16 -7 -27 0 -24 -50 -134 -81 -178 -30 -42 -19
-43 23 -3 33 33 41 35 123 41 l88 7 -5 -119 c-6 -145 -24 -200 -63 -190 -87
21 -84 23 -38 -24 39 -39 46 -43 70 -34 45 15 65 64 79 192 8 65 18 129 23
144 17 49 -39 68 -144 48 -36 -7 -68 -10 -72 -7 -3 3 12 34 33 68 35 59 36 63
19 75 -21 15 -38 18 -48 7z"/>
</g>
<g id="part-4" class="char-part">
  <path d="M508 283 c29 -42 49 -56 67 -49 37 14 1 61 -55 72 l-34 7 22 -30z"/>
</g>
</g>
</svg>