<?xml version="1.0" standalone="no"?>
<!DOCTYPE svg PUBLIC "-//W3C//DTD SVG 20010904//EN"
 "http://www.w3.org/TR/2001/REC-SVG-20010904/DTD/svg10.dtd">
<svg version="1.0" xmlns="http://www.w3.org/2000/svg"
 width="96.000000pt" height="68.000000pt" viewBox="0 0 96.000000 68.000000"
 preserveAspectRatio="xMidYMid meet">
<metadata>
Created by potrace 1.16, written by Peter Selinger 2001-2019
Combined from part_0.svg through part_5.svg with named groups
</metadata>
<g transform="translate(0.000000,68.000000) scale(0.100000,-0.100000)" fill="#000000" stroke="none">
<g id="part-0" class="char-part">
  <path d="M350 564 c-30 -13 -65 -24 -78 -24 -14 0 -21 -4 -17 -11 5 -7 25 -8
56 -4 40 6 49 4 49 -8 0 -23 -7 -25 -108 -38 -51 -6 -92 -16 -92 -20 0 -11 71
-11 128 0 68 13 52 -10 -53 -74 -46 -29 -53 -35 -30 -30 17 3 55 22 87 41 31
18 59 34 62 34 3 0 6 -13 6 -30 0 -39 -69 -106 -170 -167 -71 -43 -73 -45 -35
-38 37 6 132 63 179 106 26 24 33 24 98 -6 64 -30 78 -31 78 -6 0 20 -26 31
-77 31 -17 0 -39 7 -47 16 -18 18 -21 34 -6 34 6 0 10 16 10 35 0 24 5 35 15
35 8 0 15 -4 15 -8 0 -12 76 -53 84 -45 22 22 -10 46 -78 58 -58 11 -46 35 17
35 57 0 91 13 63 23 -9 4 -37 4 -62 0 -44 -6 -46 -5 -42 18 2 18 10 25 31 27
29 4 37 26 11 36 -23 9 -33 7 -94 -20z"/>
  <path d="M615 541 c-3 -5 -1 -12 5 -16 6 -4 10 -60 10 -141 l0 -134 -50 0
c-27 0 -50 -4 -50 -10 0 -5 4 -10 8 -10 5 0 9 -6 10 -12 1 -7 7 -40 13 -73 13
-67 25 -88 39 -65 6 11 28 16 72 18 109 4 136 11 131 32 -3 10 5 40 17 66 20
47 20 49 3 62 -13 10 -36 12 -81 8 l-63 -5 3 57 c3 55 4 57 33 60 62 5 95 13
95 23 0 7 -23 8 -67 3 l-66 -7 7 67 c6 65 6 66 -19 76 -33 12 -42 13 -50 1z
m145 -343 c0 -24 -4 -49 -9 -56 -4 -7 -37 -15 -79 -19 l-71 -6 -6 39 c-4 21
-9 47 -11 56 -5 18 18 23 124 26 l52 2 0 -42z"/>
  <path d="M356 200 c3 -44 3 -91 0 -106 -6 -22 -11 -25 -34 -19 l-27 6 26 -26
c19 -20 32 -25 48 -20 20 6 21 13 21 126 0 113 -1 119 -21 119 -19 0 -20 -4
-13 -80z"/>
  <path d="M421 218 l-25 -30 25 7 c71 22 86 36 53 49 -24 9 -27 7 -53 -26z"/>
  <path d="M264 205 c24 -18 49 -20 44 -2 -3 6 -18 13 -34 15 -28 2 -28 2 -10
-13z"/>
  <path d="M270 145 c-19 -7 -47 -14 -62 -14 -33 -1 -37 -17 -7 -26 22 -7 119
31 119 47 0 10 -7 9 -50 -7z"/>
  <path d="M421 153 c1 -14 59 -54 69 -48 20 12 10 33 -21 44 -37 13 -49 14 -48
4z"/>
</g>
<g id="part-1" class="char-part">
  <path d="M395 578 c-11 -6 -45 -20 -75 -29 -73 -24 -27 -25 72 -3 65 15 70 18
53 30 -22 17 -24 17 -50 2z"/>
</g>
<g id="part-2" class="char-part">
  <path d="M348 285 c-3 -3 -1 -28 5 -55 5 -27 6 -74 2 -105 -6 -55 -7 -57 -33
-50 l-27 6 33 -33 c32 -32 34 -32 48 -14 21 30 20 241 -2 250 -19 7 -19 7 -26
1z"/>
  <path d="M421 218 l-25 -30 25 7 c71 22 86 36 53 49 -24 9 -27 7 -53 -26z"/>
  <path d="M250 220 c0 -5 11 -17 26 -26 19 -13 28 -14 36 -6 15 15 9 20 -31 32
-18 5 -31 5 -31 0z"/>
  <path d="M248 142 c-67 -16 -82 -27 -53 -38 21 -8 53 1 100 30 46 29 43 30
-47 8z"/>
  <path d="M443 130 c40 -34 57 -38 57 -12 0 20 -38 42 -71 42 -16 0 -14 -5 14
-30z"/>
</g>
<g id="part-3" class="char-part">
  <path d="M620 531 c5 -11 10 -79 10 -151 0 -116 2 -131 16 -126 9 3 20 6 24 6
5 0 10 26 12 58 3 55 4 57 33 60 63 5 95 13 95 24 0 7 -21 8 -67 3 l-66 -7 6
49 c3 26 8 55 12 64 6 17 -31 39 -66 39 -16 0 -18 -3 -9 -19z"/>
</g>
<g id="part-4" class="char-part">
  <path d="M695 259 c-22 -4 -71 -8 -109 -8 -67 -1 -69 -2 -52 -20 9 -10 21 -45
27 -78 13 -72 25 -95 38 -74 8 12 81 23 198 30 6 1 9 10 6 20 -3 10 5 41 17
67 20 46 20 49 4 61 -20 14 -68 15 -129 2z m65 -61 c0 -63 -8 -70 -88 -76 -77
-5 -73 -8 -86 70 -6 36 -6 37 26 41 18 2 59 5 91 5 l57 2 0 -42z"/>
</g>
</g>
</svg>