<?xml version="1.0" standalone="no"?>
<!DOCTYPE svg PUBLIC "-//W3C//DTD SVG 20010904//EN"
 "http://www.w3.org/TR/2001/REC-SVG-20010904/DTD/svg10.dtd">
<svg version="1.0" xmlns="http://www.w3.org/2000/svg"
 width="96.000000pt" height="68.000000pt" viewBox="0 0 96.000000 68.000000"
 preserveAspectRatio="xMidYMid meet">
<metadata>
Created by potrace 1.16, written by Peter Selinger 2001-2019
Combined from part_0.svg through part_5.svg with named groups
</metadata>
<g transform="translate(0.000000,68.000000) scale(0.100000,-0.100000)" fill="#000000" stroke="none">
<g id="part-0" class="char-part">
  <path d="M427 613 c-2 -5 -10 -26 -17 -48 -15 -49 -43 -96 -88 -152 -40 -50
-29 -57 18 -13 18 17 34 30 37 30 4 0 1 -145 -9 -353 0 -16 6 -35 15 -44 13
-14 16 -13 22 6 3 12 8 33 9 49 3 22 8 27 32 29 16 1 102 5 192 9 123 5 162
10 162 20 0 17 -48 25 -125 22 l-59 -3 -1 30 c0 29 2 30 60 41 80 16 80 17 5
23 l-65 6 4 30 c4 36 15 45 61 45 19 0 42 5 50 10 11 7 -3 10 -47 10 l-63 0 0
40 0 40 48 0 c26 0 54 5 62 10 26 18 -9 30 -67 23 -50 -5 -51 -5 -55 22 -2 20
-13 33 -38 46 -19 11 -36 15 -38 10 -4 -12 28 -63 46 -75 25 -15 -5 -23 -94
-25 -46 -1 -84 0 -84 2 0 3 18 32 40 65 22 33 40 63 40 67 0 9 -31 34 -42 35
-4 0 -9 -3 -11 -7z m127 -209 c15 -40 7 -54 -34 -56 -101 -5 -95 -7 -95 35 l0
37 61 0 c47 0 63 -4 68 -16z m6 -118 c0 -40 -11 -46 -87 -46 l-55 0 3 33 c2
17 5 35 7 40 2 4 32 7 68 7 l64 0 0 -34z m6 -92 c9 -35 0 -41 -78 -49 l-68 -7
0 35 c0 18 3 37 7 40 3 4 35 7 69 7 60 0 64 -1 70 -26z"/>
  <path d="M140 512 c0 -4 20 -25 45 -46 53 -44 80 -44 80 -2 0 24 -6 31 -35 42
-40 14 -90 18 -90 6z"/>
  <path d="M208 229 l-77 -77 15 -32 c20 -39 30 -32 74 52 18 35 36 65 40 68 11
8 41 70 33 69 -5 -1 -43 -37 -85 -80z"/>
</g>
<g id="part-1" class="char-part">
  <path d="M160 495 c58 -63 110 -79 110 -34 0 22 -39 44 -95 54 l-40 8 25 -28z"/>
</g>
<g id="part-2" class="char-part">
  <path d="M230 250 c-36 -37 -74 -72 -85 -78 -19 -10 -19 -12 -3 -46 21 -43 38
-40 62 12 10 20 36 65 58 99 22 34 38 67 36 72 -1 5 -32 -22 -68 -59z"/>
</g>
<g id="part-3" class="char-part">
  <path d="M412 574 c-13 -48 -66 -139 -96 -163 -9 -8 -22 -24 -28 -35 -11 -20
-11 -20 18 -2 16 10 39 28 52 39 l22 20 0 -125 c0 -69 -4 -148 -10 -176 -15
-82 21 -153 41 -79 4 15 10 110 14 212 6 166 5 185 -9 185 -22 0 -21 1 24 66
45 65 48 79 21 94 -31 16 -36 13 -49 -36z"/>
</g>
<g id="part-4" class="char-part">
  <path d="M564 293 c10 -33 -10 -46 -73 -51 -34 -2 -61 -8 -61 -13 0 -4 30 -9
68 -11 l67 -3 3 -32 3 -31 -75 -7 c-42 -4 -76 -11 -76 -15 0 -11 28 -20 44
-14 7 3 83 8 169 12 86 4 159 11 163 15 16 16 -13 22 -97 19 -86 -2 -89 -1
-89 20 0 37 12 46 68 54 75 10 74 24 -1 24 -63 0 -64 0 -59 25 4 22 1 25 -28
25 -25 0 -30 -3 -26 -17z"/>
</g>
</g>
</svg>