<?xml version="1.0" standalone="no"?>
<!DOCTYPE svg PUBLIC "-//W3C//DTD SVG 20010904//EN"
 "http://www.w3.org/TR/2001/REC-SVG-20010904/DTD/svg10.dtd">
<svg version="1.0" xmlns="http://www.w3.org/2000/svg"
 width="96.000000pt" height="68.000000pt" viewBox="0 0 96.000000 68.000000"
 preserveAspectRatio="xMidYMid meet">
<metadata>
Created by potrace 1.16, written by Peter Selinger 2001-2019
Combined from part_0.svg through part_5.svg with named groups
</metadata>
<g transform="translate(0.000000,68.000000) scale(0.100000,-0.100000)" fill="#000000" stroke="none">
<g id="part-0" class="char-part">
  <path d="M434 603 l1 -48 -107 -10 c-59 -6 -110 -14 -114 -17 -4 -4 5 -13 19
-19 19 -9 47 -9 109 -1 46 6 84 9 86 8 1 -2 -1 -17 -4 -34 -6 -32 -7 -32 -69
-32 l-62 0 8 -47 c4 -27 8 -87 8 -134 l1 -86 -90 -7 c-50 -4 -88 -11 -85 -16
10 -15 73 -20 141 -10 38 5 170 13 294 16 145 5 228 11 232 18 12 18 -32 28
-114 27 l-78 -1 4 32 c2 18 7 75 11 125 l8 93 -29 10 c-26 10 -69 8 -118 -7
-16 -4 -18 -1 -12 23 4 16 9 31 11 33 2 2 54 7 115 11 62 5 115 12 119 15 3 4
-3 13 -13 21 -22 16 -75 17 -151 4 -27 -4 -51 -7 -53 -5 -1 1 3 15 10 30 11
24 10 29 -7 41 -10 8 -31 14 -45 14 -25 0 -26 -3 -26 -47z m124 -182 c3 -17 0
-22 -10 -19 -7 3 -52 0 -100 -6 -87 -12 -88 -12 -88 10 0 20 7 23 78 32 105
13 116 12 120 -17z m2 -67 c0 -17 -4 -24 -12 -21 -7 2 -52 -1 -100 -7 l-88
-12 0 28 c0 18 4 26 13 23 6 -3 35 -1 62 4 28 5 67 9 88 10 34 1 37 -1 37 -25z
m0 -63 c0 -15 -11 -19 -67 -25 -38 -4 -83 -9 -100 -12 -30 -6 -33 -4 -33 19 0
25 3 26 63 30 143 8 137 8 137 -12z m8 -68 c3 -18 -4 -21 -65 -26 -124 -12
-153 -10 -153 13 0 17 7 20 48 21 26 0 70 4 97 8 63 10 69 9 73 -16z"/>
  <path d="M545 139 c-4 -5 -2 -9 4 -9 5 0 16 -6 23 -12 59 -56 100 -88 113 -88
21 0 19 43 -3 63 -25 23 -130 58 -137 46z"/>
  <path d="M324 115 c-9 -14 -41 -39 -71 -56 -30 -17 -52 -33 -50 -35 9 -10 207
74 207 88 0 5 -54 28 -66 28 -2 0 -11 -11 -20 -25z"/>
</g>
<g id="part-1" class="char-part">
  <path d="M445 620 c12 -53 0 -67 -60 -74 -30 -3 -80 -9 -110 -12 -34 -4 -52
-10 -48 -17 4 -6 41 -8 106 -3 l99 6 -6 -35 c-7 -33 -6 -34 16 -26 13 5 27 21
32 39 l8 30 114 7 c63 4 116 11 119 15 2 4 -6 13 -20 20 -19 10 -40 10 -100 1
-111 -16 -108 -17 -90 18 14 28 14 31 -7 45 -12 9 -31 16 -41 16 -15 0 -17 -5
-12 -30z"/>
</g>
<g id="part-2" class="char-part">
  <path d="M505 469 c-16 -5 -72 -12 -123 -16 -80 -5 -92 -8 -86 -22 3 -9 9 -69
11 -133 5 -105 7 -116 24 -115 15 1 20 13 25 59 l7 58 46 0 c25 0 69 3 98 6
l51 7 7 -55 c5 -43 10 -54 25 -54 20 0 22 9 36 178 6 77 6 78 -21 88 -31 12
-59 12 -100 -1z m53 -45 c2 -17 -2 -21 -30 -20 -18 0 -63 -4 -100 -9 -64 -7
-68 -7 -68 13 0 18 9 21 83 30 104 12 111 11 115 -14z m2 -68 c0 -19 -5 -23
-27 -23 -16 1 -61 -3 -100 -7 -69 -8 -73 -7 -73 12 0 17 10 21 73 30 121 16
127 15 127 -12z"/>
</g>
<g id="part-3" class="char-part">
  <path d="M413 258 c-84 -15 -66 -32 25 -24 92 8 122 15 122 27 0 11 -78 10
-147 -3z"/>
</g>
<g id="part-4" class="char-part">
  <path d="M540 146 c0 -10 133 -116 146 -116 20 0 17 44 -4 63 -10 9 -45 26
-77 37 -62 21 -65 22 -65 16z"/>
  <path d="M319 112 c-13 -16 -49 -43 -79 -60 -69 -40 -50 -41 43 -3 94 38 127
55 127 63 0 4 -54 28 -65 28 -1 0 -13 -13 -26 -28z"/>
</g>
</g>
</svg>