<?xml version="1.0" standalone="no"?>
<!DOCTYPE svg PUBLIC "-//W3C//DTD SVG 20010904//EN"
 "http://www.w3.org/TR/2001/REC-SVG-20010904/DTD/svg10.dtd">
<svg version="1.0" xmlns="http://www.w3.org/2000/svg"
 width="96.000000pt" height="68.000000pt" viewBox="0 0 96.000000 68.000000"
 preserveAspectRatio="xMidYMid meet">
<metadata>
Created by potrace 1.16, written by Peter Selinger 2001-2019
Combined from part_0.svg through part_5.svg with named groups
</metadata>
<g transform="translate(0.000000,68.000000) scale(0.100000,-0.100000)" fill="#000000" stroke="none">
<g id="part-0" class="char-part">
  <path d="M258 574 c-4 -3 -2 -20 3 -37 5 -18 9 -57 9 -89 0 -63 7 -58 -98 -73
-62 -10 -41 -25 34 -25 l64 0 0 -39 c0 -38 0 -38 -80 -75 -43 -20 -84 -36 -90
-36 -17 0 -11 -29 9 -40 32 -16 48 -12 101 26 28 20 53 35 55 32 2 -2 1 -30
-2 -61 l-6 -58 -38 6 -37 6 42 -45 c23 -25 47 -46 54 -46 6 0 18 14 27 30 9
17 19 30 23 30 4 0 23 15 43 33 40 35 75 97 87 152 4 20 10 36 15 36 4 -1 23
-1 42 -1 30 0 35 -3 35 -22 0 -13 3 -33 6 -45 6 -22 7 -22 94 -8 14 2 30 4 37
4 7 1 13 21 15 48 l3 48 48 10 c53 11 53 25 0 25 -30 0 -34 3 -31 22 2 15 -5
26 -21 34 -33 17 -41 10 -34 -30 4 -29 2 -34 -18 -39 -51 -14 -78 -8 -85 17
-3 13 -14 26 -24 29 -23 6 -33 -2 -21 -17 4 -6 11 -19 14 -28 5 -15 1 -18 -24
-18 -29 0 -30 0 -27 50 2 27 8 50 13 51 6 0 19 2 30 5 11 2 71 10 133 16 61 7
112 15 112 19 0 12 -49 19 -90 13 -36 -6 -40 -4 -40 14 0 22 -44 52 -75 52
-22 0 -18 -16 11 -46 34 -33 25 -39 -74 -48 -82 -7 -92 -10 -74 -28 38 -38
-24 -265 -89 -324 -18 -17 -19 -15 -19 72 l0 89 35 24 c53 36 43 60 -10 25
-25 -16 -25 -16 -25 14 0 30 14 42 51 42 10 0 19 6 19 14 0 15 -21 26 -51 26
-24 0 -25 23 -3 87 16 46 16 47 -6 65 -21 17 -61 24 -72 12z m402 -284 l0 -40
-41 0 c-39 0 -40 1 -37 32 3 32 11 37 71 47 4 0 7 -17 7 -39z"/>
  <path d="M445 119 c-13 -29 -22 -56 -19 -61 18 -29 64 21 64 71 0 50 -19 45
-45 -10z"/>
  <path d="M740 163 c0 -11 80 -113 90 -113 5 0 12 10 16 22 5 18 -2 30 -36 60
-39 34 -70 48 -70 31z"/>
  <path d="M640 150 c0 -5 5 -10 10 -10 6 0 10 -5 10 -11 0 -14 25 -39 39 -39
16 0 13 36 -5 54 -17 18 -54 22 -54 6z"/>
  <path d="M540 144 c0 -15 43 -64 56 -64 16 0 11 33 -8 58 -10 12 -48 17 -48 6z"/>
</g>
<g id="part-1" class="char-part">
  <path d="M266 538 c5 -24 9 -68 9 -98 l0 -55 -70 -11 c-79 -12 -69 -28 15 -22
49 3 50 3 56 -29 3 -17 3 -37 -1 -43 -8 -14 -143 -80 -162 -80 -22 0 -14 -30
11 -41 21 -10 31 -6 79 30 31 22 59 41 62 41 9 0 5 -104 -4 -119 -6 -10 -19
-12 -42 -7 l-34 6 43 -42 c35 -36 45 -41 60 -32 14 9 17 29 20 115 l3 104 37
33 c23 21 29 31 17 27 -56 -20 -57 -20 -53 15 3 29 8 35 41 44 43 12 40 26 -6
26 -29 0 -30 0 -23 48 3 26 8 61 12 78 5 29 3 32 -27 43 -49 17 -52 15 -43
-31z"/>
</g>
<g id="part-2" class="char-part">
  <path d="M550 541 c0 -5 11 -23 25 -39 l25 -30 -27 -6 c-16 -3 -55 -8 -88 -12
-73 -8 -79 -11 -60 -30 41 -41 -14 -240 -88 -321 -29 -33 -8 -28 34 7 55 44
86 123 113 281 6 35 8 37 64 48 31 6 94 14 140 17 45 4 82 10 82 15 0 14 -39
20 -85 13 -41 -6 -45 -4 -45 15 0 13 -11 26 -30 36 -33 17 -60 20 -60 6z"/>
</g>
<g id="part-3" class="char-part">
  <path d="M667 390 c5 -35 4 -37 -27 -44 -54 -10 -68 -7 -74 18 -3 13 -16 26
-28 29 -27 7 -36 1 -20 -15 21 -21 14 -46 -13 -50 -36 -4 -32 -22 7 -28 29 -4
33 -9 41 -48 7 -36 11 -41 30 -38 12 3 42 8 67 11 39 5 45 9 46 30 4 62 12 72
59 79 52 8 51 26 -2 26 -30 0 -35 3 -30 20 5 21 -7 34 -39 42 -20 5 -21 2 -17
-32z m-9 -135 c-2 -2 -19 -5 -38 -7 -34 -3 -35 -2 -38 34 -3 36 -2 37 35 40
37 3 38 2 41 -31 2 -18 2 -34 0 -36z"/>
</g>
<g id="part-4" class="char-part">
  <path d="M453 135 c-30 -46 -34 -85 -9 -85 22 0 46 40 46 77 0 44 -12 47 -37
8z"/>
  <path d="M755 143 c58 -91 94 -117 87 -62 -5 29 -28 56 -64 75 -39 20 -43 18
-23 -13z"/>
  <path d="M540 153 c0 -5 9 -23 20 -41 22 -35 47 -39 42 -6 -5 27 -62 70 -62
47z"/>
  <path d="M654 132 c9 -17 25 -36 36 -42 17 -9 20 -8 20 12 0 32 -11 45 -44 54
l-28 7 16 -31z"/>
</g>
</g>
</svg>