<?xml version="1.0" standalone="no"?>
<!DOCTYPE svg PUBLIC "-//W3C//DTD SVG 20010904//EN"
 "http://www.w3.org/TR/2001/REC-SVG-20010904/DTD/svg10.dtd">
<svg version="1.0" xmlns="http://www.w3.org/2000/svg"
 width="96.000000pt" height="68.000000pt" viewBox="0 0 96.000000 68.000000"
 preserveAspectRatio="xMidYMid meet">
<metadata>
Created by potrace 1.16, written by Peter Selinger 2001-2019
Combined from part_0.svg through part_5.svg with named groups
</metadata>
<g transform="translate(0.000000,68.000000) scale(0.100000,-0.100000)" fill="#000000" stroke="none">
<g id="part-0" class="char-part">
  <path d="M547 623 c-4 -3 -7 -21 -7 -39 0 -33 -15 -43 -70 -44 -24 -1 -25 -1
-5 -16 11 -8 30 -13 42 -11 19 3 20 1 12 -21 -15 -39 0 -40 30 -3 25 30 33 33
94 38 37 3 67 9 67 14 0 18 -41 29 -81 23 -41 -7 -41 -7 -29 16 11 20 10 25
-6 37 -20 14 -37 17 -47 6z"/>
  <path d="M299 599 c-12 -7 -12 -12 -1 -29 18 -30 10 -37 -50 -39 -60 -2 -66
-5 -47 -27 11 -13 24 -15 70 -10 52 6 58 5 64 -14 10 -31 35 -25 35 9 0 25 5
30 27 33 14 2 29 9 31 17 4 11 -3 12 -31 7 -33 -6 -36 -5 -39 20 -3 30 -36 48
-59 33z"/>
  <path d="M565 430 c-33 -22 -65 -40 -72 -40 -6 0 -14 -3 -17 -8 -2 -4 13 -6
35 -4 39 4 39 4 39 -31 0 -36 0 -36 -55 -42 -30 -4 -55 -12 -55 -17 0 -7 18
-9 45 -6 31 4 45 2 45 -6 0 -32 -124 -186 -150 -186 -4 0 -10 -7 -14 -15 -4
-12 -2 -13 12 -6 38 21 82 59 117 101 20 25 42 47 48 49 6 2 8 -27 5 -87 -4
-66 -2 -97 7 -109 8 -10 16 -15 20 -12 3 4 6 57 6 118 0 61 3 111 7 111 4 0
32 -34 62 -74 l55 -75 63 0 c64 -1 83 12 35 24 -50 12 -129 64 -177 114 -25
28 -46 54 -46 59 0 12 50 22 111 22 27 0 49 4 49 10 0 16 -46 22 -86 11 -64
-18 -69 -16 -70 33 -1 44 -1 44 43 55 41 11 60 31 28 31 -8 0 -15 5 -15 10 0
16 -12 12 -75 -30z"/>
  <path d="M254 418 c-9 -18 -23 -41 -32 -50 -20 -24 -6 -23 25 2 14 11 41 20
60 20 l34 0 -27 -35 c-14 -19 -35 -35 -45 -35 -11 0 -19 -4 -19 -10 0 -5 5
-10 10 -10 6 0 10 -8 10 -19 0 -13 -10 -20 -31 -25 -37 -7 -49 -1 -49 24 0 13
9 20 28 23 18 3 13 4 -17 6 -37 1 -42 -1 -36 -16 4 -10 12 -36 17 -58 16 -65
18 -71 26 -58 9 14 142 23 142 9 0 -21 27 21 49 78 27 67 22 76 -44 76 l-40 0
40 27 c22 14 42 28 44 30 3 2 -1 9 -7 15 -9 9 -21 9 -48 0 -38 -11 -67 -6 -44
8 7 4 9 13 6 19 -13 20 -35 11 -52 -21z m112 -135 c-3 -21 -6 -46 -6 -55 0
-14 -8 -18 -35 -18 -28 0 -35 4 -35 20 0 11 7 21 15 21 28 3 33 4 41 12 4 4
-7 7 -24 7 -25 0 -32 4 -32 19 0 22 13 29 54 30 28 1 28 0 22 -36z m-98 -60
c-2 -11 -14 -19 -31 -21 -22 -3 -27 1 -27 17 0 17 6 21 31 21 24 0 30 -4 27
-17z"/>
  <path d="M344 144 c3 -9 6 -18 6 -20 0 -2 7 -4 16 -4 11 0 14 5 10 16 -3 9 -6
18 -6 20 0 2 -7 4 -16 4 -11 0 -14 -5 -10 -16z"/>
  <path d="M270 143 c1 -14 27 -43 39 -43 16 0 13 15 -7 33 -20 18 -32 22 -32
10z"/>
  <path d="M123 106 c-20 -43 -9 -60 17 -26 22 28 25 46 10 55 -5 3 -17 -10 -27
-29z"/>
  <path d="M205 117 c9 -27 23 -43 31 -35 10 10 -5 46 -22 52 -12 5 -14 1 -9
-17z"/>
</g>
<g id="part-1" class="char-part">
  <path d="M546 580 c-6 -39 -7 -40 -47 -40 -24 0 -38 -4 -34 -10 3 -5 19 -10
36 -10 31 0 35 -9 19 -43 -7 -13 3 -7 23 15 30 33 39 37 90 40 69 4 72 23 5
23 -50 -1 -53 1 -38 25 11 18 -5 40 -30 40 -13 0 -19 -11 -24 -40z"/>
  <path d="M305 570 c8 -16 15 -31 15 -35 0 -3 -27 -5 -60 -5 -33 0 -60 -4 -60
-9 0 -18 31 -33 55 -27 14 3 35 9 48 12 18 4 26 0 35 -21 14 -31 35 -24 26 9
-4 19 0 24 28 33 l33 11 -32 1 c-25 1 -33 7 -42 31 -7 23 -16 30 -36 30 -25 0
-25 -1 -10 -30z"/>
</g>
<g id="part-2" class="char-part">
  <path d="M255 423 c-10 -16 -29 -40 -43 -55 -32 -35 -18 -36 30 -3 21 14 51
25 69 25 l33 0 -29 -30 c-40 -42 -12 -38 46 7 58 44 52 63 -13 46 -48 -13 -56
-10 -39 11 9 11 8 15 -5 20 -25 10 -31 7 -49 -21z"/>
</g>
<g id="part-3" class="char-part">
  <path d="M342 140 c13 -20 29 -26 41 -13 11 10 -13 33 -34 33 -17 0 -18 -3 -7
-20z"/>
  <path d="M127 121 c-21 -36 -22 -61 -2 -61 20 0 39 49 28 73 -7 16 -10 15 -26
-12z"/>
  <path d="M270 137 c0 -8 9 -22 19 -31 23 -21 37 -6 21 24 -12 23 -40 27 -40 7z"/>
  <path d="M204 114 c10 -39 24 -52 32 -29 8 20 -5 46 -26 53 -10 4 -11 -3 -6
-24z"/>
</g>
<g id="part-4" class="char-part">
  <path d="M549 383 c-1 -5 0 -22 1 -40 1 -31 1 -31 -54 -38 -80 -10 -74 -32 7
-26 15 1 27 -2 27 -7 0 -19 -88 -129 -136 -170 -27 -23 -43 -42 -36 -42 23 0
74 39 135 104 l59 61 -5 -95 c-5 -104 -2 -120 19 -120 20 0 26 38 23 140 -2
49 -1 89 3 88 4 -2 28 -32 55 -68 61 -82 84 -95 149 -85 l49 8 -45 21 c-106
50 -210 133 -210 167 0 19 38 29 111 29 27 0 49 4 49 9 0 16 -55 22 -101 12
-64 -15 -65 -15 -61 24 4 30 1 35 -17 35 -12 0 -21 -3 -22 -7z"/>
</g>
</g>
</svg>