<?xml version="1.0" standalone="no"?>
<!DOCTYPE svg PUBLIC "-//W3C//DTD SVG 20010904//EN"
 "http://www.w3.org/TR/2001/REC-SVG-20010904/DTD/svg10.dtd">
<svg version="1.0" xmlns="http://www.w3.org/2000/svg"
 width="96.000000pt" height="68.000000pt" viewBox="0 0 96.000000 68.000000"
 preserveAspectRatio="xMidYMid meet">
<metadata>
Created by potrace 1.16, written by Peter Selinger 2001-2019
Combined from part_0.svg through part_5.svg with named groups
</metadata>
<g transform="translate(0.000000,68.000000) scale(0.100000,-0.100000)" fill="#000000" stroke="none">
<g id="part-0" class="char-part">
  <path d="M470 600 c-14 -11 -63 -32 -110 -48 l-85 -27 53 -3 c43 -3 52 -6 52
-22 0 -26 -6 -28 -98 -36 -104 -9 -110 -28 -7 -22 49 3 75 1 75 -6 0 -20 -116
-122 -167 -146 -29 -13 -50 -26 -49 -28 11 -10 89 23 139 58 l58 40 9 -26 c6
-14 10 -30 10 -35 0 -10 43 -12 115 -3 44 6 52 10 66 40 15 31 15 34 -2 50
-15 14 -26 15 -66 6 -119 -26 -127 -23 -82 31 43 52 88 52 150 0 24 -21 46
-40 49 -43 3 -3 29 -25 59 -48 50 -39 58 -42 117 -42 103 0 93 15 -34 55 -29
9 -83 37 -120 61 -37 24 -71 44 -77 45 -25 3 45 17 88 18 47 1 63 15 30 25
-10 3 -56 1 -103 -4 -117 -13 -125 -13 -111 4 6 7 9 20 6 28 -5 11 9 19 54 32
71 20 79 29 49 50 -29 20 -38 20 -68 -4z m13 -243 c9 -24 -7 -36 -61 -43 -44
-6 -52 -4 -52 10 0 9 0 19 0 24 -1 7 45 18 86 21 12 0 24 -5 27 -12z"/>
  <path d="M450 244 c-80 -8 -165 -12 -189 -9 -38 4 -42 3 -36 -13 4 -9 10 -54
13 -99 3 -58 9 -83 19 -87 20 -8 25 13 21 98 l-3 75 45 5 c95 11 259 18 279
11 18 -5 21 -14 21 -58 0 -85 -7 -99 -46 -95 -47 4 -49 -5 -9 -41 28 -24 40
-29 54 -22 31 17 48 54 55 116 4 33 9 69 12 81 12 49 -37 57 -236 38z"/>
  <path d="M445 189 c-22 -4 -57 -8 -78 -8 -34 -1 -37 -3 -24 -16 9 -8 18 -29
22 -46 5 -21 11 -29 22 -25 8 3 36 6 62 6 43 0 48 3 65 35 15 28 17 37 6 50
-14 16 -16 17 -75 4z m35 -39 c0 -39 -93 -41 -98 -2 -3 20 0 22 47 22 44 0 51
-3 51 -20z"/>
</g>
<g id="part-1" class="char-part">
  <path d="M468 594 c-8 -9 -53 -29 -99 -45 l-84 -30 55 6 c46 5 196 42 209 51
2 2 -2 10 -9 19 -16 20 -51 19 -72 -1z"/>
</g>
<g id="part-2" class="char-part">
  <path d="M377 501 c-6 -29 -7 -29 -92 -36 -106 -9 -115 -29 -10 -23 41 2 75 0
75 -4 0 -20 -114 -118 -175 -151 -77 -41 -48 -42 44 -1 61 27 112 69 159 131
45 58 86 60 151 5 160 -134 157 -132 219 -131 98 1 103 12 18 39 -42 13 -115
47 -161 76 l-85 51 37 7 c21 3 56 6 78 6 36 0 38 1 24 16 -14 13 -29 14 -112
5 -126 -14 -134 -14 -119 1 21 21 13 38 -17 38 -23 0 -30 -5 -34 -29z"/>
</g>
<g id="part-3" class="char-part">
  <path d="M460 390 c-14 -4 -44 -8 -66 -9 -53 -1 -65 -16 -50 -61 6 -19 13 -35
16 -34 3 1 39 4 80 8 73 7 75 9 91 42 15 31 15 35 -1 49 -18 16 -32 17 -70 5z
m24 -42 c-3 -13 -7 -24 -8 -24 0 -1 -25 -5 -53 -9 -45 -6 -53 -4 -53 9 0 9 0
19 0 24 -1 8 48 19 93 21 25 1 28 -2 21 -21z"/>
</g>
<g id="part-4" class="char-part">
  <path d="M520 249 c-41 -5 -126 -10 -188 -11 -108 -3 -113 -4 -107 -23 4 -11
10 -55 13 -97 4 -42 11 -80 15 -84 18 -19 28 18 25 94 l-3 81 70 6 c39 4 115
7 170 8 l100 2 3 -45 c2 -24 1 -60 -3 -78 -6 -34 -7 -34 -50 -30 l-43 5 35
-38 c20 -22 40 -39 44 -39 4 0 20 10 34 23 21 17 28 36 36 91 5 38 12 79 15
92 5 18 0 26 -25 38 -32 17 -31 17 -141 5z"/>
</g>
<g id="part-5" class="char-part">
  <path d="M487 167 c10 -11 12 -17 5 -13 -9 5 -13 3 -11 -5 4 -33 -1 -38 -31
-34 -16 3 -44 7 -62 10 -25 4 -30 3 -20 -7 6 -6 34 -13 61 -15 46 -2 51 0 76
33 30 39 28 45 -11 50 -25 2 -25 2 -7 -19z"/>
  <path d="M353 169 c11 -7 23 -7 35 0 14 9 11 10 -18 10 -29 0 -32 -1 -17 -10z"/>
</g>
</g>
</svg>