<?xml version="1.0" standalone="no"?>
<!DOCTYPE svg PUBLIC "-//W3C//DTD SVG 20010904//EN"
 "http://www.w3.org/TR/2001/REC-SVG-20010904/DTD/svg10.dtd">
<svg version="1.0" xmlns="http://www.w3.org/2000/svg"
 width="96.000000pt" height="68.000000pt" viewBox="0 0 96.000000 68.000000"
 preserveAspectRatio="xMidYMid meet">
<metadata>
Created by potrace 1.16, written by Peter Selinger 2001-2019
Combined from part_0.svg through part_5.svg with named groups
</metadata>
<g transform="translate(0.000000,68.000000) scale(0.100000,-0.100000)" fill="#000000" stroke="none">
<g id="part-0" class="char-part">
  <path d="M633 494 c-17 -35 -28 -64 -23 -64 11 0 120 91 120 101 0 10 -34 29
-52 28 -7 0 -27 -29 -45 -65z"/>
  <path d="M461 488 c42 -60 69 -69 69 -24 0 17 -10 28 -34 40 -51 24 -60 20
-35 -16z"/>
  <path d="M275 464 c-25 -10 -58 -14 -86 -10 -56 6 -63 1 -44 -33 8 -14 19 -45
25 -68 11 -45 28 -63 40 -43 4 6 16 10 26 8 17 -3 19 -15 22 -101 l3 -97 -30
0 c-33 0 -31 -7 -35 95 -1 23 -6 31 -24 33 -22 3 -22 2 -16 -67 l7 -71 -37 0
c-42 0 -46 -13 -10 -37 22 -14 30 -15 58 -4 17 7 70 25 118 40 105 32 120 44
53 39 l-50 -3 4 40 c3 45 13 55 54 55 18 0 27 5 27 16 0 13 -6 15 -27 9 -46
-11 -48 -11 -47 15 3 48 4 53 10 47 10 -10 45 13 39 24 -4 5 4 30 16 56 21 44
22 46 4 59 -24 17 -49 17 -100 -2z m35 -51 c0 -41 -11 -51 -58 -59 -38 -6 -42
-5 -42 14 0 11 -3 27 -6 35 -4 12 5 18 38 25 66 15 68 14 68 -15z"/>
  <path d="M645 415 c-38 -7 -105 -16 -149 -20 -76 -7 -92 -20 -31 -27 l30 -3 7
-120 c4 -66 6 -125 4 -131 -3 -6 -36 -13 -76 -16 -67 -5 -90 -12 -78 -23 8 -9
49 -8 198 4 80 6 183 11 230 11 79 1 84 2 65 16 -15 12 -36 15 -90 11 -38 -2
-76 -2 -82 0 -15 5 -16 47 -7 181 l7 92 36 0 c35 0 70 14 61 24 -13 12 -61 13
-125 1z m-31 -51 c3 -9 6 -69 6 -135 l0 -119 -30 0 c-16 0 -33 1 -37 3 -8 2
-4 246 4 260 8 13 51 7 57 -9z"/>
  <path d="M722 250 c-16 -33 -27 -60 -24 -60 7 0 112 80 112 85 0 10 -33 35
-46 35 -7 0 -27 -27 -42 -60z"/>
  <path d="M433 224 c24 -39 40 -45 45 -19 5 21 -26 55 -50 55 -17 0 -17 -2 5
-36z"/>
</g>
<g id="part-1" class="char-part">
  <path d="M280 459 c-14 -6 -50 -11 -80 -11 l-56 -1 18 -51 c9 -28 17 -59 18
-68 0 -10 1 -18 3 -18 19 2 159 29 160 31 13 23 37 112 32 119 -8 13 -63 12
-95 -1z m30 -58 c0 -39 -1 -40 -47 -49 -55 -12 -65 -5 -61 43 3 24 9 31 33 36
69 15 75 12 75 -30z"/>
</g>
<g id="part-2" class="char-part">
  <path d="M270 130 c-36 -10 -91 -19 -122 -19 -63 -1 -72 -11 -33 -37 25 -16
31 -15 155 25 72 24 130 45 130 47 0 9 -69 1 -130 -16z"/>
</g>
<g id="part-3" class="char-part">
  <path d="M634 495 c-18 -36 -29 -65 -25 -65 11 0 121 90 121 100 0 11 -33 30
-52 30 -7 0 -27 -30 -44 -65z"/>
  <path d="M446 508 c23 -39 58 -78 70 -78 9 0 14 11 14 30 0 23 -7 33 -30 45
-36 19 -64 20 -54 3z"/>
  <path d="M670 420 c-19 -5 -83 -14 -142 -21 -147 -16 -133 -34 20 -24 162 10
238 23 221 39 -11 10 -68 13 -99 6z"/>
</g>
<g id="part-4" class="char-part">
  <path d="M620 246 l5 -134 -38 -4 c-21 -2 -40 -2 -42 0 -2 2 -1 62 2 133 l6
129 -32 0 c-18 0 -30 -3 -27 -8 2 -4 7 -65 11 -135 l6 -127 -31 -1 c-16 -1
-34 -3 -40 -4 -5 -1 -31 -3 -57 -5 -47 -2 -47 -2 -20 -14 20 -9 48 -10 100 -4
40 5 146 12 237 17 148 6 162 8 135 20 -20 9 -53 11 -104 7 l-74 -6 7 135 7
135 -28 0 -28 0 5 -134z"/>
</g>
<g id="part-5" class="char-part">
  <path d="M754 303 c4 -8 2 -13 -6 -13 -11 0 -10 -2 0 -9 11 -6 10 -10 -4 -15
-9 -3 -14 -9 -11 -13 4 -3 1 -15 -5 -26 -10 -19 -9 -19 21 2 17 13 28 27 24
33 -4 8 0 9 11 5 25 -10 15 13 -14 32 -14 10 -21 11 -16 4z"/>
  <path d="M428 243 c6 -2 9 -10 5 -16 -4 -7 0 -8 12 -3 14 5 16 4 6 -8 -9 -11
-8 -15 3 -19 9 -4 18 -3 20 2 8 13 -24 51 -42 50 -11 0 -12 -2 -4 -6z"/>
</g>
</g>
</svg>