<?xml version="1.0" standalone="no"?>
<!DOCTYPE svg PUBLIC "-//W3C//DTD SVG 20010904//EN"
 "http://www.w3.org/TR/2001/REC-SVG-20010904/DTD/svg10.dtd">
<svg version="1.0" xmlns="http://www.w3.org/2000/svg"
 width="96.000000pt" height="68.000000pt" viewBox="0 0 96.000000 68.000000"
 preserveAspectRatio="xMidYMid meet">
<metadata>
Created by potrace 1.16, written by Peter Selinger 2001-2019
Combined from part_0.svg through part_5.svg with named groups
</metadata>
<g transform="translate(0.000000,68.000000) scale(0.100000,-0.100000)" fill="#000000" stroke="none">
<g id="part-0" class="char-part">
  <path d="M592 555 c-52 -7 -127 -16 -169 -20 -69 -6 -73 -8 -54 -21 20 -14 21
-23 19 -197 0 -100 2 -191 6 -203 10 -33 72 -57 163 -62 103 -6 283 15 283 33
0 20 -45 26 -116 15 -87 -14 -248 -14 -274 0 -18 10 -20 20 -20 118 0 93 15
281 23 289 2 1 68 10 147 18 151 17 181 25 140 36 -33 9 -38 9 -148 -6z"/>
  <path d="M197 534 c-3 -3 -1 -18 4 -34 6 -15 9 -50 7 -76 -2 -40 -7 -49 -23
-52 -78 -11 -91 -32 -20 -32 l46 0 -3 -62 -3 -62 -63 -19 c-62 -18 -63 -19
-46 -38 9 -10 27 -19 38 -19 26 0 236 107 236 120 0 14 -12 12 -53 -5 -20 -8
-39 -15 -42 -15 -3 0 -5 25 -5 55 0 48 3 55 19 55 11 0 32 5 47 10 37 15 16
35 -32 32 l-37 -3 6 38 c4 21 9 50 13 64 5 23 2 28 -27 38 -36 12 -53 14 -62
5z"/>
  <path d="M630 479 c-25 -4 -69 -8 -99 -8 -46 -1 -52 -3 -41 -16 7 -8 17 -38
24 -67 6 -29 17 -53 24 -53 6 0 12 -3 12 -7 0 -5 0 -17 0 -28 0 -16 -7 -20
-37 -21 -21 0 -47 -4 -58 -9 -15 -6 -8 -9 28 -9 40 -1 47 -4 47 -21 0 -11 4
-20 9 -20 18 0 64 -21 58 -26 -3 -3 -31 -16 -64 -30 -49 -20 -53 -23 -28 -23
17 0 48 7 70 15 69 26 74 27 101 5 15 -12 33 -21 40 -21 25 0 15 28 -16 47
-36 21 -36 26 -9 64 18 26 26 29 77 29 52 1 55 2 38 15 -13 10 -32 12 -61 8
-24 -3 -51 0 -64 6 -17 10 -22 9 -27 -4 -4 -9 -18 -15 -35 -15 -21 0 -27 4
-23 15 4 8 1 22 -6 30 -11 13 -5 15 43 15 l55 0 21 49 c25 59 26 77 5 85 -18
7 -22 7 -84 -5z m46 -24 c3 -8 2 -20 -2 -27 -5 -7 -8 -22 -9 -33 0 -17 -9 -21
-55 -26 -60 -6 -70 -4 -70 15 0 9 20 16 56 21 36 4 53 10 47 16 -6 6 -26 6
-54 0 -37 -9 -46 -8 -56 6 -7 9 -11 18 -9 20 3 3 97 18 134 22 7 0 15 -6 18
-14z m-26 -192 c-1 -18 -29 -43 -48 -43 -24 0 -36 15 -28 35 6 15 76 22 76 8z"/>
</g>
<g id="part-1" class="char-part">
  <path d="M205 508 c4 -13 10 -49 12 -80 l5 -57 -52 -7 c-58 -8 -50 -24 13 -24
l37 0 0 -63 0 -62 -65 -19 c-36 -10 -65 -22 -65 -26 0 -4 12 -13 28 -19 25
-10 38 -6 142 49 109 58 112 63 23 43 -22 -5 -23 -2 -23 51 l0 56 40 6 c22 4
43 10 45 15 8 11 -32 21 -55 14 -18 -6 -20 -2 -20 34 0 22 4 51 9 64 8 21 6
26 -15 36 -14 6 -34 11 -46 11 -17 0 -19 -4 -13 -22z"/>
</g>
<g id="part-2" class="char-part">
  <path d="M665 565 c-10 -4 -286 -35 -309 -35 -6 0 0 -7 12 -16 21 -15 22 -20
22 -205 0 -105 4 -198 10 -208 18 -34 69 -46 200 -46 151 0 240 11 240 30 0
20 -48 27 -109 15 -29 -5 -102 -10 -162 -10 -140 0 -139 -1 -139 133 0 85 16
276 24 284 2 2 70 10 152 19 82 8 151 17 153 20 16 16 -62 31 -94 19z"/>
</g>
<g id="part-3" class="char-part">
  <path d="M625 479 c-22 -4 -64 -8 -93 -8 -47 -1 -51 -3 -42 -18 6 -10 17 -40
23 -68 9 -36 17 -49 27 -45 8 2 45 6 81 8 l67 4 21 50 c26 64 26 74 -1 82 -26
7 -29 7 -83 -5z m50 -34 c0 -17 -7 -20 -45 -21 -25 -1 -56 -5 -68 -8 -16 -5
-24 -3 -28 9 -9 22 -3 25 53 35 69 12 88 8 88 -15z m-5 -49 c0 -21 -8 -23 -70
-27 -45 -3 -55 -1 -58 13 -2 12 5 18 30 21 74 9 98 7 98 -7z"/>
</g>
<g id="part-4" class="char-part">
  <path d="M550 311 c0 -29 -2 -31 -37 -32 -21 0 -47 -4 -58 -9 -15 -6 -6 -9 32
-9 46 -1 51 -3 46 -21 -3 -11 -1 -20 5 -20 6 0 23 -5 38 -10 26 -10 26 -11 8
-24 -10 -7 -39 -20 -64 -29 -41 -14 -42 -15 -15 -16 17 0 48 7 70 15 69 26 74
27 101 5 15 -12 33 -21 41 -21 24 0 10 34 -20 48 -32 16 -33 25 -6 63 18 26
26 29 77 29 40 0 53 3 45 11 -12 12 -152 19 -159 7 -3 -4 -18 -8 -33 -8 -22 0
-27 4 -27 23 1 16 -5 23 -21 25 -20 3 -23 -1 -23 -27z m100 -48 c-1 -16 -28
-43 -43 -43 -34 0 -47 11 -36 31 7 13 21 19 44 19 19 0 35 -3 35 -7z"/>
</g>
</g>
</svg>