<?xml version="1.0" standalone="no"?>
<!DOCTYPE svg PUBLIC "-//W3C//DTD SVG 20010904//EN"
 "http://www.w3.org/TR/2001/REC-SVG-20010904/DTD/svg10.dtd">
<svg version="1.0" xmlns="http://www.w3.org/2000/svg"
 width="96.000000pt" height="68.000000pt" viewBox="0 0 96.000000 68.000000"
 preserveAspectRatio="xMidYMid meet">
<metadata>
Created by potrace 1.16, written by Peter Selinger 2001-2019
Combined from part_0.svg through part_5.svg with named groups
</metadata>
<g transform="translate(0.000000,68.000000) scale(0.100000,-0.100000)" fill="#000000" stroke="none">
<g id="part-0" class="char-part">
  <path d="M324 578 c4 -13 10 -51 13 -84 l6 -61 -49 -7 c-81 -11 -104 -17 -104
-27 0 -5 34 -9 75 -9 l75 0 0 -39 c0 -21 -6 -43 -12 -49 -17 -13 -159 -72
-175 -72 -26 0 -22 -20 6 -35 43 -22 58 -19 112 20 27 19 53 35 59 35 9 0 3
-118 -7 -130 -2 -2 -18 1 -35 8 -18 6 -34 9 -37 7 -7 -8 81 -95 96 -95 27 0
43 57 43 153 0 78 3 97 18 110 10 10 23 17 29 17 6 0 13 7 17 15 6 18 -16 20
-45 4 -19 -10 -20 -8 -17 28 3 35 6 38 41 44 43 7 52 13 42 29 -4 7 -24 10
-46 8 -37 -3 -39 -2 -39 25 0 15 6 43 14 62 13 30 13 35 -3 49 -10 9 -32 16
-50 16 -30 0 -33 -2 -27 -22z"/>
  <path d="M581 485 c-32 -80 -35 -85 -63 -85 -26 0 -29 -2 -18 -15 10 -12 12
-47 7 -140 -4 -96 -3 -126 7 -135 10 -8 15 -6 19 10 4 15 13 20 39 20 18 0 56
3 85 6 49 6 53 5 64 -20 13 -28 40 -34 58 -12 7 8 13 71 16 155 6 173 8 171
-130 147 -49 -9 -90 -14 -92 -12 -2 1 19 34 47 71 28 38 49 73 47 79 -2 6 -15
12 -28 14 -23 3 -28 -5 -58 -83z m150 -95 c14 -8 19 -21 19 -55 0 -42 -2 -44
-27 -43 -16 0 -63 -3 -105 -7 l-78 -8 0 34 c0 49 10 78 24 73 6 -2 30 0 51 5
55 13 93 13 116 1z m17 -167 c-3 -47 -4 -48 -38 -49 -19 -1 -64 -3 -100 -4
l-65 -4 0 45 0 44 65 6 c36 3 82 6 103 7 l39 2 -4 -47z"/>
</g>
<g id="part-1" class="char-part">
  <path d="M337 516 c7 -95 11 -89 -84 -101 -82 -11 -66 -29 18 -22 l70 6 -3
-51 -3 -52 -90 -37 c-50 -21 -94 -40 -100 -42 -5 -2 5 -11 23 -21 36 -18 43
-16 119 35 23 16 44 29 47 29 8 0 7 -89 -1 -119 -5 -21 -10 -22 -44 -17 l-37
6 40 -40 c70 -69 88 -49 88 97 l0 98 37 33 c36 30 36 31 10 22 -43 -15 -47
-13 -47 29 l0 38 50 7 c28 4 50 11 50 15 0 13 -42 21 -69 14 -22 -6 -23 -4
-18 43 2 27 8 58 11 70 6 16 2 23 -19 32 -52 24 -55 20 -48 -72z"/>
</g>
<g id="part-2" class="char-part">
  <path d="M599 538 c-6 -24 -20 -60 -30 -80 -21 -40 -24 -62 -10 -56 18 6 122
151 114 158 -4 4 -20 10 -35 14 -25 6 -28 3 -39 -36z"/>
</g>
<g id="part-3" class="char-part">
  <path d="M640 413 c-36 -7 -81 -13 -100 -11 l-35 3 0 -142 c0 -141 6 -172 28
-142 8 11 37 18 94 23 l82 6 16 -30 c18 -35 26 -37 47 -12 12 13 17 53 21 159
5 133 5 144 -13 153 -24 13 -60 11 -140 -7z m94 -19 c12 -4 16 -20 16 -54 l0
-48 -37 1 c-21 0 -68 -3 -105 -8 l-68 -8 0 29 c0 61 9 72 64 82 63 12 109 14
130 6z m16 -161 c0 -51 -8 -60 -55 -59 -22 0 -66 -3 -98 -7 l-58 -9 3 49 3 48
70 6 c145 12 135 14 135 -28z"/>
</g>
</g>
</svg>