<?xml version="1.0" standalone="no"?>
<!DOCTYPE svg PUBLIC "-//W3C//DTD SVG 20010904//EN"
 "http://www.w3.org/TR/2001/REC-SVG-20010904/DTD/svg10.dtd">
<svg version="1.0" xmlns="http://www.w3.org/2000/svg"
 width="96.000000pt" height="68.000000pt" viewBox="0 0 96.000000 68.000000"
 preserveAspectRatio="xMidYMid meet">
<metadata>
Created by potrace 1.16, written by Peter Selinger 2001-2019
Combined from part_0.svg through part_5.svg with named groups
</metadata>
<g transform="translate(0.000000,68.000000) scale(0.100000,-0.100000)" fill="#000000" stroke="none">
<g id="part-0" class="char-part">
  <path d="M400 624 c0 -29 -53 -94 -77 -94 -22 0 -23 -3 -23 -92 0 -51 4 -98 8
-104 4 -6 32 -10 62 -10 49 1 55 -1 58 -20 3 -20 -3 -22 -70 -28 -40 -4 -97
-7 -126 -8 -34 0 -51 -5 -49 -12 4 -12 106 -15 175 -4 23 3 42 3 42 -1 0 -10
-96 -74 -143 -95 -21 -9 -52 -24 -70 -32 l-32 -15 35 7 c48 8 157 52 203 81
l37 23 0 -89 c0 -73 3 -90 16 -95 9 -4 20 -4 23 0 3 3 8 44 11 90 l5 85 55
-41 c90 -68 104 -73 181 -65 78 8 89 19 28 29 -51 8 -193 62 -236 90 -61 39
-45 46 110 46 130 1 140 2 117 15 -20 12 -49 14 -143 9 l-119 -7 4 24 c2 20
10 25 41 27 21 2 45 -2 53 -9 26 -21 35 4 38 105 2 88 0 98 -18 108 -19 10
-80 7 -178 -8 l-42 -7 36 32 c22 19 42 29 49 25 7 -4 9 -3 5 4 -3 6 -2 14 4
17 18 11 -10 35 -41 35 -20 0 -29 -5 -29 -16z m144 -100 c9 -3 16 -15 16 -25
0 -16 -8 -19 -49 -19 -26 0 -76 -3 -110 -6 -52 -6 -61 -4 -61 9 0 10 12 18 33
22 17 3 55 9 82 14 67 12 71 12 89 5z m16 -73 c0 -19 -15 -23 -163 -38 -54 -5
-59 -4 -55 13 3 16 16 20 82 26 43 4 84 9 90 12 26 11 46 5 46 -13z m0 -61 c0
-21 -16 -26 -138 -39 -78 -8 -82 -7 -82 19 0 15 17 19 103 27 56 5 105 11 110
11 4 1 7 -7 7 -18z"/>
</g>
<g id="part-1" class="char-part">
  <path d="M383 585 c-17 -30 -28 -55 -23 -55 11 0 110 80 110 90 0 9 -25 20
-43 20 -7 -1 -26 -25 -44 -55z"/>
</g>
<g id="part-2" class="char-part">
  <path d="M567 433 c-4 -3 -7 -19 -7 -34 0 -24 -5 -29 -32 -34 -67 -11 -178
-21 -183 -17 -3 3 -5 23 -5 44 0 31 -3 38 -20 38 -17 0 -20 -7 -20 -42 0 -24
4 -48 8 -54 5 -8 42 -9 132 -2 86 6 126 6 128 -2 7 -19 33 -10 42 16 14 37 2
94 -19 94 -10 0 -21 -3 -24 -7z"/>
</g>
<g id="part-3" class="char-part">
  <path d="M430 306 c0 -21 -5 -24 -61 -30 -34 -3 -90 -6 -125 -6 -66 0 -93 -15
-49 -26 27 -7 164 2 190 13 8 3 15 0 15 -6 0 -14 -83 -65 -175 -109 -63 -30
-66 -33 -30 -27 22 4 82 26 134 51 51 24 95 44 97 44 2 0 4 -38 4 -85 0 -68 3
-87 15 -92 25 -9 30 3 35 94 l5 85 70 -51 c39 -29 80 -54 92 -57 27 -7 154 10
133 18 -8 3 -53 18 -100 33 -85 27 -200 81 -200 95 0 13 59 20 174 20 102 1
109 2 91 16 -17 13 -40 14 -141 9 -118 -7 -121 -7 -127 14 -8 31 -47 29 -47
-3z"/>
</g>
</g>
</svg>