<?xml version="1.0" standalone="no"?>
<!DOCTYPE svg PUBLIC "-//W3C//DTD SVG 20010904//EN"
 "http://www.w3.org/TR/2001/REC-SVG-20010904/DTD/svg10.dtd">
<svg version="1.0" xmlns="http://www.w3.org/2000/svg"
 width="96.000000pt" height="68.000000pt" viewBox="0 0 96.000000 68.000000"
 preserveAspectRatio="xMidYMid meet">
<metadata>
Created by potrace 1.16, written by Peter Selinger 2001-2019
Combined from part_0.svg through part_5.svg with named groups
</metadata>
<g transform="translate(0.000000,68.000000) scale(0.100000,-0.100000)" fill="#000000" stroke="none">
<g id="part-0" class="char-part">
  <path d="M300 555 c-14 -13 -52 -38 -85 -54 -58 -29 -59 -30 -27 -30 24 -1 42
-10 62 -31 l28 -30 -47 -27 c-25 -15 -62 -35 -81 -45 -29 -14 -31 -17 -13 -18
12 0 45 9 73 20 61 24 60 24 60 5 0 -18 -32 -49 -89 -86 -25 -16 -39 -29 -33
-29 20 0 97 39 120 60 27 25 42 25 42 1 0 -18 -108 -114 -158 -140 -13 -7 -22
-15 -19 -17 10 -11 59 10 121 51 l66 43 0 -34 c0 -19 -7 -51 -15 -70 -13 -32
-18 -36 -45 -32 -37 6 -38 -1 -2 -34 56 -53 106 8 105 128 -1 77 -16 118 -60
158 -15 14 -25 27 -23 29 3 2 38 24 79 47 66 40 72 45 55 57 -30 22 -55 15
-90 -24 -19 -21 -31 -30 -27 -19 4 12 0 22 -10 28 -28 15 -20 25 38 52 54 25
70 48 39 60 -27 10 -39 7 -64 -19z"/>
  <path d="M530 544 c-6 -14 -10 -28 -10 -31 0 -3 -12 -26 -27 -50 -24 -37 -33
-44 -58 -42 -45 2 -47 1 -31 -23 7 -13 17 -41 20 -63 12 -71 16 -77 42 -72 19
3 24 0 24 -17 -1 -37 -36 -100 -81 -143 -51 -51 -38 -56 23 -10 45 35 97 117
98 155 0 12 6 22 14 22 15 0 26 -50 26 -122 0 -69 30 -100 103 -106 64 -5 156
14 164 34 3 7 -3 35 -13 60 l-18 48 -9 -35 c-15 -57 -32 -69 -103 -69 -82 0
-95 17 -84 105 4 33 5 66 2 73 -4 11 5 13 34 10 42 -3 37 -9 89 100 14 30 23
58 20 63 -11 17 -78 21 -149 9 -109 -18 -113 -14 -56 50 44 49 48 56 33 68
-26 19 -43 15 -53 -14z m155 -152 c0 -21 -5 -23 -70 -27 -38 -2 -91 -7 -116
-10 -42 -6 -47 -5 -52 16 -4 13 -5 25 -3 27 7 7 141 20 191 18 45 -1 50 -3 50
-24z m-15 -56 c0 -42 -9 -46 -111 -46 -99 0 -99 0 -99 25 0 24 2 24 93 28 50
1 98 4 105 5 6 1 12 -4 12 -12z"/>
  <path d="M146 442 c-9 -15 40 -66 57 -59 22 8 11 42 -19 56 -30 13 -31 13 -38
3z"/>
</g>
<g id="part-1" class="char-part">
  <path d="M297 546 c-20 -18 -61 -43 -90 -54 l-52 -21 39 0 c28 -1 43 -7 58
-26 11 -14 24 -25 29 -25 18 0 9 39 -12 50 -19 11 -15 14 43 41 77 37 77 37
54 55 -26 18 -25 19 -69 -20z"/>
  <path d="M343 467 c-12 -25 -88 -80 -169 -121 -27 -14 -44 -26 -37 -26 25 0
113 40 198 91 79 48 86 54 69 66 -27 20 -50 16 -61 -10z"/>
  <path d="M156 428 c13 -23 37 -48 46 -48 12 0 10 34 -4 48 -16 16 -51 16 -42
0z"/>
</g>
<g id="part-2" class="char-part">
  <path d="M270 241 c-19 -19 -62 -52 -94 -73 -78 -50 -78 -51 -21 -33 43 12
148 75 160 95 3 5 2 16 -2 27 -7 16 -11 15 -43 -16z"/>
</g>
<g id="part-3" class="char-part">
  <path d="M530 553 c0 -10 -13 -42 -29 -70 -16 -29 -25 -53 -19 -53 12 0 118
108 118 120 0 8 -34 20 -57 20 -7 0 -13 -8 -13 -17z"/>
</g>
<g id="part-4" class="char-part">
  <path d="M610 439 c-19 -4 -77 -9 -127 -11 -51 -2 -93 -5 -93 -8 1 -3 7 -13
15 -24 8 -10 17 -39 21 -65 8 -59 22 -85 37 -73 7 5 60 8 120 8 l107 -1 26 67
c14 38 30 70 35 74 16 9 10 20 -16 32 -29 14 -74 14 -125 1z m78 -45 c-3 -23
-8 -26 -53 -29 -27 -1 -80 -6 -116 -10 -66 -7 -66 -7 -71 19 -5 22 -1 26 26
31 41 6 98 11 164 13 52 2 53 1 50 -24z m-18 -58 c0 -42 -9 -46 -111 -46 -99
0 -99 0 -99 25 0 24 2 24 93 28 50 1 98 4 105 5 6 1 12 -4 12 -12z"/>
</g>
<g id="part-5" class="char-part">
  <path d="M577 253 c-11 -10 -8 -43 3 -43 6 0 6 -9 0 -25 -11 -30 -9 -76 3 -68
4 3 7 -3 5 -13 -4 -23 74 -64 112 -59 14 2 38 4 53 4 19 1 26 5 21 13 -5 8 -2
9 10 5 10 -4 26 -2 36 3 17 9 18 14 8 35 -13 30 -24 32 -33 6 -8 -27 -55 -43
-116 -40 -51 3 -82 16 -73 31 2 4 0 9 -4 12 -5 3 -5 27 -1 53 12 71 11 93 -4
93 -8 0 -17 -3 -20 -7z"/>
</g>
</g>
</svg>