<?xml version="1.0" standalone="no"?>
<!DOCTYPE svg PUBLIC "-//W3C//DTD SVG 20010904//EN"
 "http://www.w3.org/TR/2001/REC-SVG-20010904/DTD/svg10.dtd">
<svg version="1.0" xmlns="http://www.w3.org/2000/svg"
 width="96.000000pt" height="68.000000pt" viewBox="0 0 96.000000 68.000000"
 preserveAspectRatio="xMidYMid meet">
<metadata>
Created by potrace 1.16, written by Peter Selinger 2001-2019
Combined from part_0.svg through part_5.svg with named groups
</metadata>
<g transform="translate(0.000000,68.000000) scale(0.100000,-0.100000)" fill="#000000" stroke="none">
<g id="part-0" class="char-part">
  <path d="M230 553 c-17 -46 -30 -68 -62 -102 -16 -18 -28 -35 -25 -38 9 -8 45
7 75 31 15 13 44 26 65 29 l38 6 -21 -29 c-38 -54 -71 -72 -114 -66 -37 6 -38
5 -32 -16 25 -82 12 -217 -26 -271 -11 -15 -18 -30 -16 -32 10 -10 68 63 81
100 l14 40 83 5 c95 6 97 4 83 -68 -8 -44 -11 -47 -38 -45 l-29 2 32 -32 c32
-31 32 -31 51 -12 18 18 20 38 24 178 5 183 4 184 -70 169 l-48 -11 40 38 c22
21 49 42 59 48 12 7 17 17 13 27 -7 19 -61 22 -103 5 -27 -10 -27 -9 -11 9 21
23 21 32 0 48 -29 22 -53 16 -63 -13z m40 -218 c0 -14 -3 -26 -7 -26 -49 -9
-53 -6 -53 27 0 18 6 34 13 37 21 8 47 -13 47 -38z m105 11 c0 -26 -4 -29 -33
-30 -30 -1 -32 1 -32 32 0 31 2 33 33 30 28 -3 32 -7 32 -32z m5 -76 c0 -27
-3 -30 -30 -30 -16 0 -33 -1 -37 -2 -13 -5 -15 32 -3 47 7 8 25 15 41 15 26 0
29 -4 29 -30z m-110 -9 c0 -24 -5 -29 -30 -33 -30 -4 -32 -2 -32 27 0 28 2 31
32 33 27 2 30 -1 30 -27z"/>
  <path d="M609 514 c-24 -29 -97 -74 -121 -74 -23 0 -23 -2 -25 -120 -1 -82 -6
-135 -18 -170 -21 -63 -15 -73 15 -23 24 40 36 102 46 226 3 42 10 77 15 77
24 0 159 64 159 75 0 26 -51 33 -71 9z"/>
  <path d="M610 394 c0 -3 16 -37 36 -77 20 -40 48 -96 63 -125 14 -30 35 -57
46 -62 22 -8 85 -2 84 9 0 3 -22 22 -48 42 -43 33 -137 156 -154 202 -6 15
-27 25 -27 11z"/>
  <path d="M544 253 c-1 -76 -3 -151 -5 -167 -6 -41 10 -41 54 -1 34 31 67 38
67 14 0 -5 7 -9 15 -9 18 0 19 29 2 50 -18 22 -58 43 -65 34 -4 -4 -1 -9 6
-11 6 -3 12 -9 12 -15 0 -12 -30 -37 -44 -38 -5 0 -6 56 -3 135 4 79 3 135 -2
135 -5 0 -15 2 -23 5 -10 4 -13 -22 -14 -132z"/>
</g>
<g id="part-1" class="char-part">
  <path d="M237 552 c-3 -16 -24 -52 -46 -80 -23 -28 -41 -54 -41 -57 0 -9 41
15 73 41 26 22 97 35 97 18 0 -3 -14 -24 -31 -45 -17 -21 -26 -39 -19 -39 12
0 133 97 138 111 6 15 -47 21 -79 10 -53 -18 -66 -14 -40 13 l22 24 -22 16
c-33 23 -46 20 -52 -12z"/>
</g>
<g id="part-2" class="char-part">
  <path d="M290 394 c-36 -7 -83 -11 -104 -8 -34 6 -38 4 -32 -12 28 -72 13
-217 -29 -278 -28 -41 -20 -47 18 -12 44 41 59 84 66 185 l6 96 74 8 c40 4 76
5 80 2 11 -12 7 -263 -5 -275 -8 -8 -19 -8 -39 0 l-27 10 28 -34 c33 -40 45
-43 66 -18 20 22 33 323 15 341 -13 13 -33 13 -117 -5z"/>
</g>
<g id="part-3" class="char-part">
  <path d="M570 484 c-32 -26 -65 -44 -80 -44 l-25 0 -1 -118 c-1 -89 -6 -133
-22 -182 l-21 -65 24 28 c32 36 52 111 60 225 l7 92 52 24 c28 13 62 27 76 31
40 12 52 25 39 41 -20 24 -52 14 -109 -32z"/>
</g>
<g id="part-4" class="char-part">
  <path d="M549 268 c2 -81 -1 -134 -10 -160 -9 -30 -10 -41 -1 -50 10 -10 22
-2 55 31 25 26 33 39 20 32 -12 -6 -25 -11 -29 -11 -4 0 -4 60 -1 134 5 136 3
146 -31 146 -4 0 -5 -55 -3 -122z"/>
</g>
<g id="part-5" class="char-part">
  <path d="M620 387 c0 -13 21 -49 41 -71 11 -11 18 -25 17 -30 -3 -18 13 -56
23 -56 6 0 7 -4 4 -10 -10 -17 6 -34 17 -19 8 11 8 10 4 -4 -12 -37 43 -80 57
-44 3 7 6 6 6 -5 1 -10 9 -16 21 -15 28 2 25 8 -16 36 -20 14 -47 40 -61 58
-14 18 -30 30 -36 26 -6 -4 -8 0 -5 9 4 9 -10 40 -33 74 -21 33 -39 55 -39 51z"/>
</g>
</g>
</svg>