<?xml version="1.0" standalone="no"?>
<!DOCTYPE svg PUBLIC "-//W3C//DTD SVG 20010904//EN"
 "http://www.w3.org/TR/2001/REC-SVG-20010904/DTD/svg10.dtd">
<svg version="1.0" xmlns="http://www.w3.org/2000/svg"
 width="96.000000pt" height="68.000000pt" viewBox="0 0 96.000000 68.000000"
 preserveAspectRatio="xMidYMid meet">
<metadata>
Created by potrace 1.16, written by Peter Selinger 2001-2019
Combined from part_0.svg through part_5.svg with named groups
</metadata>
<g transform="translate(0.000000,68.000000) scale(0.100000,-0.100000)" fill="#000000" stroke="none">
<g id="part-0" class="char-part">
  <path d="M238 571 c2 -28 1 -75 -2 -105 l-7 -55 -71 -3 c-79 -3 -95 -17 -54
-44 22 -13 33 -15 67 -6 l41 10 -7 -31 c-12 -56 -11 -59 27 -79 l38 -20 -28
-23 c-15 -13 -48 -34 -72 -46 l-45 -24 32 -3 c34 -3 84 18 120 50 l22 20 38
-31 c42 -35 58 -38 67 -15 8 21 -7 47 -38 64 -14 7 -26 16 -26 19 0 3 11 28
25 55 14 27 25 58 25 69 0 12 11 23 30 30 29 11 41 27 20 27 -5 0 -19 9 -30
20 -11 11 -31 20 -45 20 -20 0 -25 -5 -25 -25 0 -22 -4 -25 -34 -25 l-34 0 26
81 27 81 -24 19 c-13 10 -33 19 -46 19 -20 0 -22 -3 -17 -49z m98 -204 c-12
-48 -37 -97 -49 -97 -7 0 -22 6 -32 14 -17 12 -18 18 -7 54 10 33 18 42 40 45
54 8 54 8 48 -16z"/>
  <path d="M635 540 c-27 -5 -80 -11 -117 -15 -38 -4 -68 -11 -68 -16 0 -5 8 -9
18 -9 31 0 42 -22 42 -81 0 -63 -7 -68 -80 -69 -26 0 -31 -3 -20 -10 8 -5 34
-10 58 -10 39 0 42 -2 41 -27 0 -31 -26 -97 -49 -129 -8 -11 -30 -31 -47 -44
-42 -31 -35 -37 14 -12 68 36 116 108 125 192 3 22 9 26 56 30 29 3 55 4 58 1
2 -2 4 -63 5 -135 0 -72 4 -140 8 -150 7 -19 8 -19 15 0 8 20 15 102 19 219
l2 70 63 3 c82 4 79 25 -4 32 l-59 5 4 59 c2 41 -1 61 -10 67 -10 6 -8 9 8 9
30 0 54 11 47 21 -6 10 -58 10 -129 -1z m33 -98 c4 -68 6 -66 -66 -76 l-44 -7
3 58 c2 32 0 63 -4 70 -9 14 21 21 73 19 l35 -1 3 -63z"/>
</g>
<g id="part-1" class="char-part">
  <path d="M244 527 c-1 -116 -9 -127 -89 -127 -66 0 -77 -7 -50 -30 10 -9 31
-10 66 -6 47 6 51 5 45 -11 -22 -55 -19 -70 19 -93 35 -21 35 -23 19 -41 -10
-11 -40 -33 -68 -49 -63 -37 -32 -41 34 -5 96 52 88 51 118 22 33 -32 62 -35
62 -8 0 18 -36 55 -61 63 -6 2 1 23 14 48 14 25 28 60 32 78 4 18 13 35 21 38
46 14 50 17 29 22 -11 2 -24 10 -30 18 -5 7 -21 15 -35 16 -20 2 -25 -1 -24
-19 0 -18 -6 -24 -33 -29 -19 -4 -36 -4 -39 -1 -3 3 4 36 15 75 26 85 26 99 2
112 -41 22 -46 14 -47 -73z m92 -168 c-3 -17 -13 -46 -22 -64 -16 -33 -17 -34
-47 -21 -35 14 -35 14 -23 68 8 37 18 43 75 47 21 1 23 -2 17 -30z"/>
</g>
<g id="part-2" class="char-part">
  <path d="M563 532 c-150 -20 -149 -37 2 -29 127 8 218 24 209 38 -7 12 -76 9
-211 -9z"/>
</g>
<g id="part-3" class="char-part">
  <path d="M668 445 c4 -71 6 -69 -66 -79 l-44 -7 3 58 c4 67 -3 83 -34 81 -21
-2 -22 -6 -19 -70 4 -61 2 -68 -14 -70 -11 0 -23 -2 -29 -3 -5 -2 -23 -3 -40
-4 -47 -2 -9 -21 43 -21 39 0 42 -2 42 -27 0 -46 -44 -127 -90 -166 -47 -40
-47 -44 3 -23 57 24 99 79 118 153 l17 68 56 3 56 3 0 -138 c0 -136 9 -185 25
-146 4 10 11 79 14 153 l6 135 69 5 c55 4 66 7 55 17 -8 6 -39 13 -69 15 l-54
3 3 63 2 62 -28 0 -28 0 3 -65z"/>
</g>
</g>
</svg>