<?xml version="1.0" standalone="no"?>
<!DOCTYPE svg PUBLIC "-//W3C//DTD SVG 20010904//EN"
 "http://www.w3.org/TR/2001/REC-SVG-20010904/DTD/svg10.dtd">
<svg version="1.0" xmlns="http://www.w3.org/2000/svg"
 width="96.000000pt" height="68.000000pt" viewBox="0 0 96.000000 68.000000"
 preserveAspectRatio="xMidYMid meet">
<metadata>
Created by potrace 1.16, written by Peter Selinger 2001-2019
Combined from part_0.svg through part_5.svg with named groups
</metadata>
<g transform="translate(0.000000,68.000000) scale(0.100000,-0.100000)" fill="#000000" stroke="none">
<g id="part-0" class="char-part">
  <path d="M458 521 l4 -70 -36 -7 c-42 -7 -41 -14 5 -23 21 -4 33 -13 35 -26 4
-25 -12 -35 -55 -35 -27 0 -32 -3 -23 -12 8 -8 34 -8 104 2 107 15 137 30 60
30 -49 0 -52 2 -52 25 0 21 6 26 40 31 22 4 40 10 40 15 0 9 -7 11 -50 13 -23
1 -25 4 -25 54 0 36 -5 56 -15 62 -31 20 -36 11 -32 -59z"/>
  <path d="M235 546 c29 -44 85 -70 99 -47 17 27 -38 71 -89 71 -25 0 -25 -1
-10 -24z"/>
  <path d="M638 538 c9 -40 8 -234 -1 -383 -7 -119 -1 -148 30 -129 15 10 18 28
19 120 3 211 4 234 13 234 5 0 32 -14 59 -31 29 -18 60 -29 73 -27 l24 3 -26
26 c-17 18 -45 31 -84 39 l-58 12 6 78 c5 74 4 79 -17 84 -41 11 -46 8 -38
-26z"/>
  <path d="M235 435 c-17 -7 -55 -16 -85 -20 -30 -4 -59 -11 -64 -15 -18 -18 45
-22 109 -8 36 8 65 14 65 12 0 -1 -6 -9 -13 -16 -6 -7 -24 -32 -40 -56 -15
-23 -50 -65 -77 -92 -70 -71 -32 -65 59 8 l44 36 -7 -107 c-6 -94 -5 -108 10
-114 26 -10 34 16 34 115 0 50 2 92 5 92 3 0 19 -10 36 -22 26 -19 31 -20 39
-8 15 23 12 29 -15 42 -32 14 -31 20 6 42 24 14 28 20 18 32 -19 23 -43 16
-63 -16 -9 -17 -22 -28 -27 -25 -12 8 2 33 35 64 33 31 33 45 1 59 -31 14 -31
14 -70 -3z"/>
  <path d="M464 316 c-3 -8 -3 -20 1 -25 3 -6 -11 -13 -35 -17 -52 -8 -52 -24 0
-24 36 0 40 -2 40 -25 0 -31 -31 -45 -96 -45 -49 0 -56 -10 -21 -29 19 -10 35
-8 100 13 42 14 92 28 112 32 19 3 35 11 35 16 0 6 -10 8 -22 5 -13 -3 -35 -9
-50 -12 -26 -7 -28 -5 -28 24 0 28 3 31 40 37 52 8 52 24 -1 24 -23 0 -38 4
-34 9 3 6 -4 15 -15 21 -16 9 -22 8 -26 -4z"/>
</g>
<g id="part-1" class="char-part">
  <path d="M230 562 c0 -12 67 -72 80 -72 34 0 18 58 -18 66 -15 3 -35 8 -44 11
-10 2 -18 0 -18 -5z"/>
  <path d="M215 425 c-22 -8 -59 -14 -82 -14 -24 -1 -43 -5 -43 -10 0 -19 38
-21 99 -5 35 8 65 13 68 11 8 -8 -52 -90 -115 -158 -52 -57 -54 -61 -23 -45
18 10 53 36 77 58 l44 41 0 -51 c0 -28 -5 -73 -11 -101 -7 -36 -7 -55 1 -71
19 -36 28 -13 35 95 l7 105 28 -20 c16 -11 33 -20 39 -20 21 0 11 31 -14 42
-32 14 -31 20 6 42 24 14 28 20 18 32 -17 21 -25 18 -49 -21 -12 -19 -26 -33
-31 -29 -18 11 -8 34 28 69 36 35 37 37 19 51 -24 17 -47 16 -101 -1z"/>
</g>
<g id="part-2" class="char-part">
  <path d="M458 521 l5 -70 -37 -6 c-42 -8 -39 -25 5 -25 24 0 29 -4 29 -24 0
-25 -16 -36 -56 -36 -13 0 -24 -4 -24 -10 0 -13 49 -12 138 4 89 16 102 26 34
26 -48 0 -52 2 -52 24 0 26 16 36 57 36 15 0 23 5 20 13 -2 6 -19 12 -38 12
l-34 0 4 54 c3 55 -6 71 -40 71 -14 0 -16 -10 -11 -69z"/>
</g>
<g id="part-3" class="char-part">
  <path d="M460 306 c0 -24 -16 -36 -51 -36 -10 0 -19 -4 -19 -10 0 -5 18 -10
40 -10 37 0 40 -2 40 -29 0 -24 -5 -29 -31 -35 -17 -3 -49 -6 -70 -6 -44 0
-50 -11 -16 -29 21 -11 40 -8 140 24 65 20 117 39 117 42 0 6 -69 -3 -94 -13
-12 -5 -16 1 -16 24 0 31 17 42 68 42 13 0 20 4 17 10 -3 6 -19 10 -36 10 -16
0 -38 9 -49 20 -27 27 -40 25 -40 -4z"/>
</g>
<g id="part-4" class="char-part">
  <path d="M635 553 c15 -36 17 -163 6 -332 -11 -157 -10 -176 4 -190 15 -15 18
-14 31 4 12 16 15 44 13 130 -1 61 -2 136 -1 167 l2 57 59 -35 c35 -21 69 -34
83 -32 l23 3 -25 25 c-16 16 -47 31 -84 39 l-59 13 6 78 c7 83 3 90 -45 90
-15 0 -18 -4 -13 -17z"/>
</g>
</g>
</svg>