<?xml version="1.0" standalone="no"?>
<!DOCTYPE svg PUBLIC "-//W3C//DTD SVG 20010904//EN"
 "http://www.w3.org/TR/2001/REC-SVG-20010904/DTD/svg10.dtd">
<svg version="1.0" xmlns="http://www.w3.org/2000/svg"
 width="96.000000pt" height="68.000000pt" viewBox="0 0 96.000000 68.000000"
 preserveAspectRatio="xMidYMid meet">
<metadata>
Created by potrace 1.16, written by Peter Selinger 2001-2019
Combined from part_0.svg through part_5.svg with named groups
</metadata>
<g transform="translate(0.000000,68.000000) scale(0.100000,-0.100000)" fill="#000000" stroke="none">
<g id="part-0" class="char-part">
  <path d="M580 559 c-19 -5 -60 -8 -90 -7 -31 1 -53 -2 -51 -8 16 -41 21 -59
31 -112 l12 -61 47 5 c25 3 60 7 77 9 18 2 36 -1 42 -7 17 -17 39 7 62 70 12
32 28 67 36 80 14 21 13 23 -11 32 -31 12 -106 11 -155 -1z m100 -39 c0 -26
-4 -30 -27 -30 -16 0 -58 -3 -94 -6 -66 -7 -66 -6 -71 20 -6 29 2 33 77 39
113 10 115 10 115 -23z m-15 -77 c-4 -16 -7 -28 -8 -29 -1 -1 -34 -4 -73 -8
-60 -5 -73 -3 -78 10 -16 43 -9 46 128 52 37 2 38 1 31 -25z"/>
  <path d="M285 495 c-22 -8 -68 -14 -101 -14 l-62 -1 19 -37 c10 -21 19 -46 19
-58 0 -33 20 -95 31 -95 6 0 17 7 25 15 9 9 35 15 62 16 64 1 77 8 80 47 1 19
9 46 17 62 22 43 19 57 -16 69 -18 6 -32 11 -33 10 -1 -1 -19 -7 -41 -14z m21
-77 c-8 -52 -13 -57 -58 -64 -31 -5 -36 -3 -41 17 -19 72 -9 84 72 88 l34 1
-7 -42z"/>
  <path d="M729 326 c-9 -9 -285 -35 -313 -29 -26 5 -28 4 -22 -13 5 -10 14 -61
20 -111 7 -51 14 -94 17 -96 2 -2 58 2 124 8 113 12 121 11 137 -6 9 -11 18
-25 21 -32 7 -21 52 11 65 46 9 27 32 167 32 197 0 17 -70 47 -81 36z m11 -70
l0 -33 -132 -9 c-73 -5 -140 -9 -148 -9 -10 0 -15 10 -15 30 0 30 0 30 80 41
44 6 110 12 148 13 l67 1 0 -34z m-2 -101 l-2 -33 -60 -1 c-34 0 -96 -4 -138
-9 -83 -9 -88 -6 -88 43 0 22 3 23 128 30 70 3 132 8 137 9 19 6 26 -5 23 -39z"/>
</g>
<g id="part-1" class="char-part">
  <path d="M265 484 c-28 -8 -69 -12 -93 -9 l-42 5 14 -28 c8 -15 17 -50 21 -77
4 -28 12 -59 18 -69 8 -17 11 -18 21 -4 7 9 36 18 77 22 l66 7 7 45 c3 24 13
56 23 70 16 25 16 27 -2 40 -23 17 -45 17 -110 -2z m41 -100 c-6 -23 -23 -31
-76 -37 -22 -2 -25 3 -32 47 -5 27 -7 51 -4 53 3 3 29 8 58 12 53 6 53 6 56
-23 2 -16 1 -39 -2 -52z"/>
</g>
<g id="part-2" class="char-part">
  <path d="M635 568 c-16 -5 -69 -10 -117 -11 -49 -1 -88 -3 -88 -5 0 -2 6 -15
14 -30 7 -15 17 -47 21 -72 11 -68 23 -94 38 -82 20 15 127 24 143 11 17 -14
40 2 50 34 3 12 19 48 35 79 25 53 26 59 11 67 -30 15 -76 19 -107 9z m45 -48
c0 -27 -3 -30 -34 -30 -18 0 -60 -3 -93 -6 -57 -6 -60 -5 -66 17 -3 13 -4 25
-2 27 5 6 108 19 158 21 35 1 37 -1 37 -29z m-10 -54 c0 -3 -4 -16 -9 -29 -8
-21 -18 -25 -77 -31 -70 -7 -84 -1 -84 36 0 13 11 18 53 21 98 7 117 7 117 3z"/>
</g>
<g id="part-3" class="char-part">
  <path d="M605 309 c-71 -11 -150 -16 -174 -13 -40 5 -43 4 -36 -13 4 -10 12
-59 19 -108 12 -92 23 -126 35 -107 4 6 59 14 123 18 l117 7 12 -27 c7 -14 18
-26 25 -26 19 0 52 39 58 69 7 32 26 161 26 178 0 12 -51 44 -67 42 -4 -1 -66
-10 -138 -20z m133 -55 l3 -31 -108 -7 c-59 -3 -125 -9 -145 -12 -34 -6 -38
-4 -44 21 -3 14 -3 30 2 35 13 12 147 28 224 26 l65 -1 3 -31z m2 -81 c0 -53
-4 -54 -215 -57 l-70 -1 -3 31 -3 31 133 10 c73 5 139 10 146 11 7 1 12 -9 12
-25z"/>
</g>
</g>
</svg>