<?xml version="1.0" standalone="no"?>
<!DOCTYPE svg PUBLIC "-//W3C//DTD SVG 20010904//EN"
 "http://www.w3.org/TR/2001/REC-SVG-20010904/DTD/svg10.dtd">
<svg version="1.0" xmlns="http://www.w3.org/2000/svg"
 width="96.000000pt" height="68.000000pt" viewBox="0 0 96.000000 68.000000"
 preserveAspectRatio="xMidYMid meet">
<metadata>
Created by potrace 1.16, written by Peter Selinger 2001-2019
Combined from part_0.svg through part_5.svg with named groups
</metadata>
<g transform="translate(0.000000,68.000000) scale(0.100000,-0.100000)" fill="#000000" stroke="none">
<g id="part-0" class="char-part">
  <path d="M520 585 c0 -30 -4 -35 -27 -41 -55 -12 -63 -16 -58 -25 4 -5 19 -9
36 -9 36 0 37 -11 4 -46 -14 -15 -25 -36 -25 -46 0 -27 -49 -95 -109 -152 -64
-59 -60 -72 6 -20 51 40 71 61 116 118 15 20 31 36 35 36 4 0 24 -15 44 -33
123 -108 146 -121 209 -112 27 4 49 10 49 14 0 4 -28 16 -62 27 -68 20 -210
102 -238 137 -18 21 -18 22 0 29 10 4 26 18 35 32 14 22 25 26 78 28 47 2 62
7 62 18 0 18 -69 32 -84 17 -6 -6 -14 -8 -18 -4 -4 4 -2 12 5 19 17 17 -4 48
-33 48 -22 0 -25 -4 -25 -35z"/>
  <path d="M273 583 c2 -10 8 -25 12 -34 5 -14 -3 -18 -55 -24 -60 -7 -61 -7
-43 -27 18 -20 60 -21 103 -4 10 4 19 -2 25 -16 16 -34 35 -34 35 0 0 26 5 31
30 37 41 9 38 25 -5 25 -27 0 -35 4 -35 18 0 25 -20 42 -48 42 -18 0 -23 -4
-19 -17z"/>
  <path d="M245 420 c-22 -10 -51 -16 -65 -14 l-25 6 3 -131 c2 -71 -1 -153 -7
-181 -8 -36 -8 -57 -1 -71 26 -48 31 -22 46 247 l6 112 31 6 c37 8 45 1 29
-25 -8 -12 -10 -33 -6 -54 5 -27 3 -34 -13 -37 -15 -3 -14 -6 10 -22 26 -18
29 -18 45 -3 15 16 15 19 -1 46 -22 38 -22 68 2 76 32 10 46 32 31 50 -16 19
-35 18 -85 -5z"/>
  <path d="M455 320 c-4 -6 11 -10 39 -10 25 0 48 5 51 10 4 6 -11 10 -39 10
-25 0 -48 -4 -51 -10z"/>
  <path d="M473 276 c-80 -17 -77 -29 5 -21 l74 7 -16 -25 c-14 -20 -29 -26 -79
-33 -46 -6 -54 -9 -32 -12 44 -6 175 8 175 19 0 5 -7 9 -15 9 -8 0 -15 5 -15
10 0 6 7 13 15 16 20 8 19 30 -1 38 -21 8 -48 6 -111 -8z"/>
  <path d="M475 155 c-93 -13 -172 -24 -175 -25 -3 -1 7 -5 22 -10 14 -4 48 -4
74 1 26 5 50 6 53 3 6 -6 -54 -64 -84 -81 -12 -7 -16 -17 -12 -27 4 -10 11
-15 17 -11 10 6 206 45 228 45 7 0 20 -9 29 -20 20 -23 39 -26 46 -6 8 20 -19
53 -59 72 -38 18 -54 13 -35 -10 14 -17 7 -20 -83 -31 -27 -4 -55 -9 -62 -12
-28 -11 -13 16 21 37 19 12 35 30 35 39 0 16 14 19 117 25 113 6 133 10 120
22 -14 14 -95 11 -252 -11z"/>
</g>
<g id="part-1" class="char-part">
  <path d="M520 580 c0 -39 -1 -40 -40 -46 -45 -7 -44 -24 1 -24 27 0 29 -2 19
-21 -18 -32 -5 -33 22 -1 21 25 35 31 86 37 34 4 62 10 62 15 0 12 -40 19 -73
13 -28 -6 -30 -5 -23 20 5 20 2 29 -13 37 -33 17 -41 12 -41 -30z"/>
  <path d="M270 596 c0 -4 7 -20 15 -35 8 -16 11 -31 8 -35 -4 -3 -34 -6 -67 -6
-57 -1 -60 -2 -41 -16 15 -12 33 -14 71 -10 47 5 52 4 64 -19 16 -29 25 -24
25 13 0 22 5 28 28 30 15 2 27 8 27 14 0 6 -12 8 -30 4 -28 -5 -31 -3 -37 24
-3 17 -11 30 -18 30 -8 0 -20 3 -29 6 -9 3 -16 3 -16 0z"/>
</g>
<g id="part-2" class="char-part">
  <path d="M256 425 c-15 -8 -35 -15 -42 -15 -8 0 -14 -5 -14 -11 0 -7 12 -9 36
-4 39 7 38 9 17 -42 -10 -24 15 -13 58 27 l43 39 -28 11 c-35 13 -35 13 -70
-5z"/>
</g>
<g id="part-3" class="char-part">
  <path d="M158 281 c2 -71 -1 -153 -7 -181 -11 -51 -3 -90 19 -90 11 0 19 91
22 260 3 128 2 135 -17 138 -19 3 -20 -2 -17 -127z"/>
</g>
<g id="part-4" class="char-part">
  <path d="M425 96 c-16 -17 -41 -38 -54 -47 -15 -10 -22 -21 -19 -31 6 -14 18
-13 110 8 129 29 154 30 170 4 23 -37 58 -18 38 20 -9 17 -77 60 -95 60 -3 0
-1 -9 5 -19 13 -26 7 -29 -86 -36 l-79 -6 30 25 c17 14 33 26 38 26 4 0 7 7 7
15 0 24 -33 15 -65 -19z"/>
</g>
</g>
</svg>