<?xml version="1.0" standalone="no"?>
<!DOCTYPE svg PUBLIC "-//W3C//DTD SVG 20010904//EN"
 "http://www.w3.org/TR/2001/REC-SVG-20010904/DTD/svg10.dtd">
<svg version="1.0" xmlns="http://www.w3.org/2000/svg"
 width="96.000000pt" height="68.000000pt" viewBox="0 0 96.000000 68.000000"
 preserveAspectRatio="xMidYMid meet">
<metadata>
Created by potrace 1.16, written by Peter Selinger 2001-2019
Combined from part_0.svg through part_5.svg with named groups
</metadata>
<g transform="translate(0.000000,68.000000) scale(0.100000,-0.100000)" fill="#000000" stroke="none">
<g id="part-0" class="char-part">
  <path d="M291 556 c-17 -67 -161 -253 -185 -239 -6 3 -8 3 -4 -2 4 -4 0 -14
-10 -21 -16 -12 -16 -13 4 -14 11 0 42 16 69 34 27 19 53 32 58 29 13 -8 1
-212 -14 -229 -14 -17 -2 -54 18 -54 8 0 46 21 83 46 66 44 70 45 92 30 30
-21 38 -20 38 4 0 12 -13 28 -32 40 -42 25 -51 25 -43 0 3 -11 5 -20 3 -20 -2
0 -27 -9 -55 -20 l-53 -20 0 55 c0 39 4 55 13 54 6 -1 37 -1 68 0 l55 1 22 62
c27 81 19 93 -58 84 -30 -3 -67 -8 -82 -11 -32 -6 -41 4 -23 28 8 11 30 19 65
21 29 3 58 10 64 17 8 8 -3 10 -47 4 l-58 -7 32 46 c32 44 33 45 60 31 15 -8
31 -19 34 -25 11 -18 55 -12 55 8 0 20 -26 36 -73 47 -21 4 -27 10 -23 22 7
17 -19 42 -45 43 -11 0 -20 -14 -28 -44z m89 -220 c0 -22 -5 -24 -52 -28 -63
-5 -68 -4 -61 21 3 13 16 21 37 24 72 9 76 8 76 -17z m-10 -56 c0 -23 -7 -26
-68 -33 -40 -5 -43 -4 -40 16 3 21 19 27 96 36 6 0 12 -8 12 -19z"/>
  <path d="M455 589 c-2 -3 10 -21 28 -40 35 -37 62 -89 47 -89 -5 0 -24 -9 -42
-21 l-33 -21 35 7 c19 4 44 9 55 12 14 3 30 -5 49 -23 l28 -28 -29 -23 c-31
-25 -25 -29 22 -12 27 10 36 8 80 -20 44 -28 102 -41 117 -25 4 3 0 17 -8 32
-8 15 -14 33 -14 40 0 22 -18 13 -24 -13 -8 -31 -19 -31 -63 -4 l-34 22 30 31
c24 25 28 35 19 44 -16 16 -48 15 -48 -1 0 -7 -6 -21 -13 -31 -12 -16 -14 -16
-40 4 -34 27 -34 38 -2 46 41 10 30 27 -14 20 l-39 -6 -26 55 c-22 47 -29 55
-52 53 -14 -2 -27 -5 -29 -9z"/>
  <path d="M633 545 c34 -30 67 -33 67 -6 0 20 -26 31 -70 31 l-25 -1 28 -24z"/>
  <path d="M470 333 c0 -5 9 -21 20 -38 11 -16 20 -33 20 -36 0 -4 -19 -19 -42
-33 -48 -28 -37 -34 19 -11 20 8 37 14 39 12 2 -1 15 -20 29 -41 29 -43 30
-40 -35 -76 -19 -11 -42 -24 -50 -30 -21 -16 23 -3 74 21 22 11 44 19 48 19 5
0 31 -18 59 -40 28 -22 69 -45 92 -51 43 -12 95 -14 104 -5 3 3 -4 26 -16 51
-11 24 -21 50 -21 57 0 23 -20 -16 -20 -39 0 -19 -6 -23 -33 -23 -30 0 -102
39 -119 64 -4 6 12 30 35 54 40 42 41 44 23 58 -29 21 -43 17 -51 -13 -14 -59
-42 -68 -68 -24 -22 38 -22 39 11 53 l27 12 -33 4 c-27 3 -36 10 -44 33 -8 23
-16 29 -39 29 -16 0 -29 -3 -29 -7z"/>
  <path d="M600 326 c0 -3 13 -14 28 -25 20 -14 32 -17 43 -10 12 8 11 12 -5 24
-18 14 -66 21 -66 11z"/>
</g>
<g id="part-1" class="char-part">
  <path d="M300 578 c-1 -54 -97 -195 -183 -267 -43 -36 -24 -37 32 -2 57 37
114 96 156 163 17 27 35 48 40 48 6 0 24 -9 40 -20 32 -21 75 -27 75 -10 0 14
-55 40 -85 40 -22 0 -25 3 -19 24 4 18 1 27 -14 35 -31 16 -42 13 -42 -11z"/>
</g>
<g id="part-2" class="char-part">
  <path d="M360 194 c0 -15 52 -74 66 -74 20 0 18 34 -3 52 -21 18 -63 33 -63
22z"/>
</g>
<g id="part-3" class="char-part">
  <path d="M450 592 c0 -5 6 -14 13 -20 7 -6 27 -31 45 -56 l32 -45 -42 -25
c-47 -28 -31 -36 29 -14 30 11 35 10 63 -17 l31 -30 -33 -28 c-33 -29 -29 -29
33 -4 21 8 32 5 66 -17 47 -31 123 -47 123 -26 0 22 -23 80 -32 80 -4 0 -8 -9
-8 -20 0 -29 -37 -30 -79 -3 l-23 15 30 31 c16 18 27 38 25 45 -6 16 -53 16
-53 -1 0 -7 -6 -22 -14 -33 -14 -19 -15 -18 -41 6 l-26 25 28 23 28 24 -41 -6
-41 -6 -24 53 c-21 45 -28 52 -56 55 -18 2 -33 -1 -33 -6z"/>
  <path d="M633 545 c34 -30 67 -33 67 -6 0 20 -26 31 -70 31 l-25 -1 28 -24z"/>
</g>
<g id="part-4" class="char-part">
  <path d="M470 333 c0 -4 9 -21 20 -38 11 -16 20 -33 20 -37 0 -4 -19 -17 -42
-29 -51 -26 -37 -37 18 -14 20 8 38 14 40 12 13 -13 54 -80 51 -84 -3 -2 -33
-19 -68 -38 -76 -41 -64 -45 26 -9 l65 26 37 -32 c20 -18 55 -41 77 -51 41
-19 136 -26 136 -11 0 5 -9 27 -20 50 -11 22 -20 47 -20 54 0 23 -20 -15 -20
-39 0 -19 -6 -23 -32 -23 -28 0 -128 53 -128 68 0 4 19 26 43 50 40 42 41 44
23 58 -30 21 -44 17 -51 -15 -3 -16 -14 -36 -24 -45 -18 -16 -20 -15 -40 17
-27 43 -26 45 5 57 14 6 23 14 19 20 -4 6 -15 6 -31 0 -20 -8 -26 -6 -30 8
-11 36 -22 47 -48 50 -14 2 -26 0 -26 -5z"/>
  <path d="M600 326 c0 -3 14 -15 31 -27 26 -18 33 -19 40 -8 11 18 -15 39 -48
39 -13 0 -23 -2 -23 -4z"/>
</g>
</g>
</svg>