<?xml version="1.0" standalone="no"?>
<!DOCTYPE svg PUBLIC "-//W3C//DTD SVG 20010904//EN"
 "http://www.w3.org/TR/2001/REC-SVG-20010904/DTD/svg10.dtd">
<svg version="1.0" xmlns="http://www.w3.org/2000/svg"
 width="96.000000pt" height="68.000000pt" viewBox="0 0 96.000000 68.000000"
 preserveAspectRatio="xMidYMid meet">
<metadata>
Created by potrace 1.16, written by Peter Selinger 2001-2019
Combined from part_0.svg through part_5.svg with named groups
</metadata>
<g transform="translate(0.000000,68.000000) scale(0.100000,-0.100000)" fill="#000000" stroke="none">
<g id="part-0" class="char-part">
  <path d="M310 603 c0 -42 -53 -124 -135 -210 -48 -51 -84 -93 -81 -93 16 0 89
43 121 71 l35 31 0 -83 c0 -46 -6 -109 -13 -140 -14 -55 -9 -90 13 -104 26
-16 35 20 46 173 8 119 8 162 -1 176 -10 17 -5 29 37 83 26 35 48 68 48 73 0
15 -31 40 -51 40 -11 0 -19 -7 -19 -17z"/>
  <path d="M616 601 c-4 -5 -2 -21 4 -36 6 -15 10 -131 10 -271 0 -161 4 -244
10 -244 15 0 19 15 28 100 l7 75 35 1 c55 1 129 14 135 24 10 16 -42 22 -95
11 -78 -17 -80 -16 -80 28 0 35 3 39 31 45 17 3 47 6 65 6 35 0 46 13 19 24
-9 3 -36 3 -60 -1 l-45 -6 0 42 c0 40 1 41 34 41 49 0 96 11 96 23 0 6 -25 8
-66 4 l-66 -5 4 58 c4 62 6 60 -54 87 -4 2 -9 -1 -12 -6z"/>
  <path d="M466 518 c13 -62 13 -62 -54 -73 -76 -12 -71 -25 10 -25 57 0 58 0
58 -29 0 -27 -4 -29 -60 -41 -73 -15 -70 -31 4 -23 l54 6 -7 -34 c-6 -32 -11
-36 -79 -58 -67 -22 -71 -25 -53 -38 23 -15 64 -9 82 13 11 13 39 20 39 9 0
-17 -45 -96 -66 -115 -36 -35 -29 -44 13 -16 81 56 107 124 118 320 6 118 1
136 -42 136 -23 0 -24 -3 -17 -32z"/>
</g>
<g id="part-1" class="char-part">
  <path d="M305 571 c-20 -61 -60 -117 -141 -198 -34 -35 -58 -63 -55 -63 13 0
96 57 115 78 10 12 23 19 28 16 10 -7 1 -169 -14 -237 -8 -40 -7 -52 7 -74 16
-24 18 -25 27 -8 16 28 30 325 17 342 -9 10 0 29 40 83 28 39 51 72 51 75 0 2
-13 11 -29 20 l-29 15 -17 -49z"/>
</g>
<g id="part-2" class="char-part">
  <path d="M459 531 c18 -33 22 -190 6 -263 -16 -77 -33 -114 -76 -163 -38 -43
-26 -45 30 -4 69 49 91 111 102 281 10 155 6 168 -43 168 -25 0 -27 -2 -19
-19z"/>
</g>
<g id="part-3" class="char-part">
  <path d="M382 238 c-57 -18 -61 -21 -45 -34 10 -7 24 -14 31 -14 17 0 92 48
92 60 0 12 -1 12 -78 -12z"/>
</g>
<g id="part-4" class="char-part">
  <path d="M630 191 c0 -80 4 -142 10 -146 14 -9 28 62 29 151 l1 31 81 6 c45 3
86 10 91 15 16 16 -43 24 -93 13 -75 -18 -79 -16 -79 29 0 33 -3 40 -20 40
-19 0 -20 -7 -20 -139z"/>
</g>
</g>
</svg>