<?xml version="1.0" standalone="no"?>
<!DOCTYPE svg PUBLIC "-//W3C//DTD SVG 20010904//EN"
 "http://www.w3.org/TR/2001/REC-SVG-20010904/DTD/svg10.dtd">
<svg version="1.0" xmlns="http://www.w3.org/2000/svg"
 width="96.000000pt" height="68.000000pt" viewBox="0 0 96.000000 68.000000"
 preserveAspectRatio="xMidYMid meet">
<metadata>
Created by potrace 1.16, written by Peter Selinger 2001-2019
Combined from part_0.svg through part_5.svg with named groups
</metadata>
<g transform="translate(0.000000,68.000000) scale(0.100000,-0.100000)" fill="#000000" stroke="none">
<g id="part-0" class="char-part">
  <path d="M580 581 c0 -5 5 -13 10 -16 6 -3 10 -48 10 -101 0 -90 -1 -94 -22
-95 -23 -2 -61 -5 -86 -8 -9 -1 -11 -8 -6 -23 11 -34 5 -139 -11 -200 -15 -59
-11 -98 10 -98 14 0 28 35 41 100 3 19 12 38 18 42 6 4 48 8 94 8 l82 0 0 -34
c0 -19 -5 -47 -10 -61 -9 -24 -14 -26 -43 -20 l-32 7 37 -38 38 -39 24 25 c24
24 25 31 27 177 3 181 0 188 -73 179 l-48 -7 2 103 3 103 -32 3 c-18 2 -33 -1
-33 -7z m133 -243 c9 -31 4 -34 -65 -42 -35 -3 -72 -7 -83 -9 -16 -2 -20 4
-20 28 0 29 2 30 50 36 101 12 112 11 118 -13z m5 -90 c3 -24 0 -25 -65 -31
-115 -11 -123 -10 -123 17 0 23 5 25 83 34 101 11 101 11 105 -20z"/>
  <path d="M240 564 c0 -4 10 -24 22 -45 15 -27 28 -39 44 -39 46 0 42 50 -6 75
-30 15 -60 20 -60 9z"/>
  <path d="M744 498 c-9 -18 -26 -44 -38 -57 -24 -27 -21 -26 52 12 52 28 62 43
40 65 -20 20 -37 14 -54 -20z"/>
  <path d="M460 473 c0 -16 60 -74 70 -68 14 8 13 28 -2 48 -14 18 -68 34 -68
20z"/>
  <path d="M270 454 c-41 -7 -92 -14 -112 -15 -41 -3 -49 -17 -20 -35 13 -8 52
-5 157 13 76 13 141 25 143 28 2 2 1 8 -3 14 -8 14 -69 12 -165 -5z"/>
  <path d="M320 370 c-14 -4 -42 -8 -62 -9 -21 -1 -38 -6 -38 -12 0 -14 130 -6
157 10 10 6 13 11 6 11 -6 0 -17 2 -25 4 -7 2 -24 0 -38 -4z"/>
  <path d="M310 300 c-14 -4 -40 -8 -57 -9 -18 -1 -33 -6 -33 -12 0 -8 20 -9 67
-4 66 7 126 23 91 24 -9 1 -22 3 -30 5 -7 2 -24 0 -38 -4z"/>
  <path d="M315 225 c-22 -8 -59 -14 -82 -14 l-41 -1 20 -52 c11 -29 23 -56 26
-60 4 -3 36 -1 72 6 61 11 65 14 68 40 2 16 10 35 18 43 19 19 18 30 -5 43
-23 12 -24 12 -76 -5z m27 -50 c-4 -37 -10 -43 -50 -51 -33 -7 -34 -6 -46 63
-1 9 50 22 79 19 16 -1 19 -7 17 -31z"/>
</g>
<g id="part-1" class="char-part">
  <path d="M250 559 c0 -21 41 -79 56 -79 19 0 30 29 17 48 -13 22 -73 46 -73
31z"/>
  <path d="M264 450 c-158 -25 -155 -24 -119 -39 25 -11 47 -9 135 8 58 12 115
21 128 21 12 0 22 4 22 9 0 8 -37 22 -50 20 -3 -1 -55 -9 -116 -19z"/>
</g>
<g id="part-2" class="char-part">
  <path d="M305 223 c-27 -7 -65 -12 -83 -10 -20 2 -31 -1 -28 -7 3 -6 12 -35
21 -64 15 -47 20 -53 38 -48 12 3 46 9 75 12 37 5 52 11 48 20 -3 7 4 30 15
51 18 36 18 39 2 50 -20 15 -22 15 -88 -4z m38 -45 c-7 -36 -15 -45 -52 -54
-27 -8 -41 8 -41 48 0 27 10 32 77 37 20 1 22 -2 16 -31z"/>
</g>
<g id="part-3" class="char-part">
  <path d="M586 573 c4 -10 9 -60 12 -110 2 -51 7 -93 10 -93 23 1 31 26 39 108
10 101 6 112 -40 112 -24 0 -28 -3 -21 -17z"/>
  <path d="M744 498 c-9 -18 -26 -44 -38 -57 -24 -27 -21 -26 52 12 52 28 62 43
40 65 -20 20 -37 14 -54 -20z"/>
  <path d="M460 474 c0 -17 44 -64 61 -64 27 0 25 35 -3 54 -22 16 -58 22 -58
10z"/>
</g>
<g id="part-4" class="char-part">
  <path d="M640 379 c-25 -5 -70 -11 -100 -13 -41 -2 -54 -7 -51 -17 8 -33 -1
-157 -15 -212 -16 -62 -12 -97 11 -97 14 0 29 42 40 110 5 32 8 36 38 36 17 0
59 2 92 4 l60 4 3 -35 c2 -19 -2 -48 -8 -63 -9 -25 -14 -28 -42 -22 l-32 6 33
-34 c27 -28 38 -33 52 -25 32 17 37 40 40 196 5 186 4 187 -121 162z m70 -26
c0 -5 3 -17 6 -29 5 -19 0 -21 -63 -28 -37 -3 -78 -9 -90 -12 -21 -6 -23 -3
-23 29 l0 36 53 4 c103 7 117 7 117 0z m10 -102 c0 -27 -2 -28 -61 -35 -113
-11 -129 -9 -129 18 0 25 -2 25 178 45 7 0 12 -11 12 -28z"/>
</g>
</g>
</svg>