<?xml version="1.0" standalone="no"?>
<!DOCTYPE svg PUBLIC "-//W3C//DTD SVG 20010904//EN"
 "http://www.w3.org/TR/2001/REC-SVG-20010904/DTD/svg10.dtd">
<svg version="1.0" xmlns="http://www.w3.org/2000/svg"
 width="96.000000pt" height="68.000000pt" viewBox="0 0 96.000000 68.000000"
 preserveAspectRatio="xMidYMid meet">
<metadata>
Created by potrace 1.16, written by Peter Selinger 2001-2019
Combined from part_0.svg through part_5.svg with named groups
</metadata>
<g transform="translate(0.000000,68.000000) scale(0.100000,-0.100000)" fill="#000000" stroke="none">
<g id="part-0" class="char-part">
  <path d="M420 608 c0 -6 10 -22 22 -35 21 -22 21 -23 1 -23 -35 0 -238 -22
-242 -26 -3 -2 4 -11 15 -18 16 -12 19 -25 17 -79 -3 -86 -34 -176 -93 -264
-53 -81 -45 -96 20 -37 54 49 97 140 120 259 12 55 24 103 28 107 10 10 142
25 295 34 90 4 117 9 117 20 0 24 -54 31 -142 20 -48 -6 -58 -5 -58 8 0 8 -10
22 -22 30 -26 19 -78 21 -78 4z"/>
  <path d="M456 473 c5 -10 10 -57 11 -105 l2 -88 -45 0 c-24 0 -44 3 -44 8 0 4
-3 17 -6 30 -6 20 -3 22 30 22 20 0 36 5 36 11 0 7 -15 10 -39 7 -35 -3 -40
-1 -44 20 -4 19 3 27 36 44 38 19 40 21 23 34 -16 11 -22 9 -49 -17 -16 -17
-36 -28 -43 -25 -7 3 -16 1 -19 -4 -4 -6 -2 -10 4 -10 6 0 15 -19 21 -42 6
-24 15 -59 20 -79 l10 -36 50 5 50 5 -10 -27 c-18 -49 -71 -104 -131 -136 -32
-17 -59 -33 -59 -36 0 -8 55 9 102 32 58 30 90 61 114 113 11 22 22 41 25 41
4 0 24 -21 45 -47 50 -61 93 -104 124 -126 25 -18 101 -22 150 -8 22 6 14 11
-59 39 -82 32 -186 97 -226 142 l-20 23 60 -6 61 -6 28 77 c16 42 33 81 38 86
13 16 10 22 -19 35 -28 13 -129 6 -139 -10 -3 -5 15 -9 40 -9 42 0 46 -2 46
-24 0 -22 -6 -26 -45 -32 -26 -3 -42 -10 -39 -16 4 -6 22 -8 41 -5 35 6 35 6
29 -25 -3 -17 -6 -33 -6 -37 0 -3 -23 -6 -51 -6 l-51 0 4 100 3 100 -34 3
c-30 3 -33 1 -25 -15z"/>
</g>
<g id="part-1" class="char-part">
  <path d="M426 608 c4 -7 16 -23 27 -35 20 -22 20 -23 1 -25 -10 0 -23 -2 -29
-3 -5 -1 -56 -5 -113 -10 -100 -7 -132 -17 -92 -28 16 -4 20 -14 20 -50 0
-104 -43 -230 -108 -315 -18 -24 -31 -46 -28 -49 2 -3 27 16 54 41 60 56 95
129 117 246 9 47 18 94 20 106 5 23 37 28 280 40 134 7 167 16 121 33 -17 7
-58 9 -107 5 -71 -6 -79 -5 -73 10 5 12 -3 20 -30 31 -44 19 -70 20 -60 3z"/>
</g>
<g id="part-2" class="char-part">
  <path d="M362 439 c-26 -32 -18 -36 35 -17 38 14 41 23 14 38 -25 13 -22 14
-49 -21z"/>
</g>
<g id="part-3" class="char-part">
  <path d="M570 447 l-35 -12 48 -3 c42 -3 47 -6 47 -26 0 -20 -6 -25 -45 -31
-28 -4 -43 -10 -39 -17 4 -6 21 -8 40 -5 28 5 34 3 33 -11 -2 -50 -9 -54 -126
-59 -108 -5 -110 -4 -116 18 -8 31 -1 39 34 39 16 0 29 5 29 10 0 6 -18 10
-40 10 -33 0 -40 3 -40 20 0 10 -9 24 -19 30 -34 18 -43 12 -27 -18 8 -15 21
-54 30 -86 14 -54 36 -96 36 -69 0 15 206 28 223 15 20 -17 31 -3 66 83 17 44
34 85 37 91 6 14 -39 34 -74 33 -15 0 -43 -6 -62 -12z"/>
</g>
<g id="part-4" class="char-part">
  <path d="M456 473 c4 -10 10 -53 12 -95 7 -146 -37 -228 -158 -294 -55 -30
-60 -34 -30 -28 84 16 191 98 206 159 3 14 10 25 15 25 4 0 28 -25 52 -55 25
-30 66 -72 92 -95 49 -43 68 -46 165 -32 l45 7 -45 14 c-92 29 -186 80 -244
134 l-58 55 3 108 4 109 -34 3 c-30 3 -33 1 -25 -15z"/>
</g>
</g>
</svg>