<?xml version="1.0" standalone="no"?>
<!DOCTYPE svg PUBLIC "-//W3C//DTD SVG 20010904//EN"
 "http://www.w3.org/TR/2001/REC-SVG-20010904/DTD/svg10.dtd">
<svg version="1.0" xmlns="http://www.w3.org/2000/svg"
 width="96.000000pt" height="68.000000pt" viewBox="0 0 96.000000 68.000000"
 preserveAspectRatio="xMidYMid meet">
<metadata>
Created by potrace 1.16, written by Peter Selinger 2001-2019
Combined from part_0.svg through part_5.svg with named groups
</metadata>
<g transform="translate(0.000000,68.000000) scale(0.100000,-0.100000)" fill="#000000" stroke="none">
<g id="part-0" class="char-part">
  <path d="M535 611 c-3 -16 -24 -50 -46 -75 -47 -53 -33 -60 32 -16 40 27 52
30 126 30 49 0 85 4 89 11 12 21 -20 29 -86 23 -53 -5 -63 -4 -52 7 17 19 15
24 -13 37 -37 17 -43 15 -50 -17z"/>
  <path d="M299 593 c-17 -46 -61 -103 -73 -96 -6 3 -8 3 -4 -2 4 -4 0 -14 -8
-22 -40 -40 28 -15 82 30 22 18 46 26 98 30 75 7 82 10 71 28 -5 7 -24 10 -56
6 -41 -5 -47 -4 -42 10 7 17 -20 43 -44 43 -7 0 -18 -12 -24 -27z"/>
  <path d="M580 524 c0 -16 52 -54 74 -54 25 0 32 31 10 44 -31 18 -84 25 -84
10z"/>
  <path d="M330 513 c0 -5 11 -20 25 -33 22 -21 27 -22 40 -9 8 8 11 19 7 25 -9
14 -72 29 -72 17z"/>
  <path d="M498 486 c-15 -8 -62 -25 -103 -37 -41 -13 -73 -24 -72 -26 3 -2 84
10 134 21 11 2 42 8 68 11 35 6 45 11 43 24 -4 21 -37 25 -70 7z"/>
  <path d="M566 415 c-15 -19 -25 -35 -22 -35 16 0 96 41 96 50 0 5 -4 10 -9 10
-5 0 -16 2 -24 5 -8 4 -25 -8 -41 -30z"/>
  <path d="M430 414 c0 -16 23 -44 35 -44 18 0 20 21 3 38 -12 12 -38 17 -38 6z"/>
  <path d="M310 391 c0 -12 29 -41 40 -41 17 0 20 19 4 34 -17 17 -44 21 -44 7z"/>
  <path d="M530 360 c-19 -5 -81 -12 -137 -16 -116 -8 -142 -26 -32 -22 67 2 88
-6 89 -34 0 -10 -109 -22 -307 -32 -7 -1 -12 -5 -10 -11 2 -12 104 -10 227 3
89 9 102 5 93 -29 -5 -16 -15 -19 -67 -20 -33 0 -70 -4 -80 -8 -19 -7 -18 -8
4 -14 13 -3 50 -4 82 0 l58 6 1 -29 c3 -73 -3 -85 -42 -74 -18 5 -34 8 -37 6
-5 -6 71 -75 83 -76 26 0 44 41 47 107 l3 68 67 3 67 3 3 37 3 37 88 3 c79 2
86 4 72 18 -10 11 -32 15 -68 14 -80 -3 -78 -3 -66 27 7 20 6 28 -3 35 -16 10
-92 9 -138 -2z m77 -36 c8 -22 -5 -31 -59 -38 -46 -7 -48 -6 -48 18 0 26 13
33 68 35 21 1 35 -4 39 -15z m-10 -70 c8 -22 -5 -31 -54 -38 -40 -5 -43 -4
-43 19 0 20 6 24 38 28 20 2 41 4 45 5 4 1 10 -5 14 -14z"/>
</g>
<g id="part-1" class="char-part">
  <path d="M543 613 c-3 -10 -24 -42 -45 -71 -42 -56 -35 -58 32 -12 17 12 52
19 108 22 78 4 102 11 90 24 -9 8 -38 8 -96 0 -53 -8 -53 -8 -40 13 11 18 11
23 -2 31 -23 15 -40 12 -47 -7z"/>
  <path d="M302 581 c-6 -17 -29 -50 -53 -75 -23 -26 -37 -46 -32 -46 16 0 103
59 103 70 0 6 29 10 69 10 39 0 72 4 75 9 9 14 -35 21 -76 12 -36 -8 -51 0
-28 14 15 9 -7 35 -30 35 -11 0 -22 -12 -28 -29z"/>
  <path d="M580 526 c0 -5 75 -56 83 -56 4 0 7 9 7 20 0 13 -10 24 -26 30 -25
10 -64 14 -64 6z"/>
  <path d="M340 500 c0 -13 48 -36 56 -27 4 3 4 13 1 22 -7 17 -57 21 -57 5z"/>
</g>
<g id="part-2" class="char-part">
  <path d="M500 484 c-19 -8 -71 -26 -115 -39 -99 -30 -82 -31 60 -5 141 27 140
26 125 45 -15 18 -26 18 -70 -1z"/>
  <path d="M565 414 l-28 -36 24 7 c13 4 37 14 52 22 23 12 26 17 16 29 -18 22
-34 17 -64 -22z"/>
  <path d="M429 402 c5 -10 17 -24 25 -31 13 -11 17 -10 22 3 8 21 -13 46 -38
46 -15 0 -17 -4 -9 -18z"/>
  <path d="M323 373 c22 -22 29 -25 39 -14 11 10 9 15 -6 27 -11 8 -29 14 -40
14 -19 0 -18 -2 7 -27z"/>
</g>
<g id="part-3" class="char-part">
  <path d="M535 360 c-22 -5 -86 -12 -142 -16 -57 -4 -103 -11 -103 -15 0 -12
121 -11 219 2 52 7 86 8 92 2 10 -10 3 -81 -10 -100 -3 -6 -55 -16 -116 -23
-204 -22 -203 -21 -178 -31 35 -13 355 12 342 27 -7 8 -1 33 17 79 22 56 25
69 13 76 -17 10 -79 10 -134 -1z"/>
</g>
<g id="part-4" class="char-part">
  <path d="M444 304 c5 -18 1 -23 -22 -28 -35 -7 -261 -20 -285 -17 -25 3 -21
-18 6 -28 12 -5 24 -7 27 -6 3 2 50 8 105 14 55 6 117 13 138 16 l38 5 -3 -92
c-2 -55 -7 -93 -13 -92 -5 1 -24 4 -42 7 l-32 6 43 -39 c49 -45 56 -47 79 -22
14 15 17 40 17 124 l0 105 107 6 c58 4 131 7 162 7 52 1 55 2 36 16 -20 16
-75 15 -247 -2 -57 -6 -58 -6 -58 20 0 23 -4 26 -31 24 -26 -2 -29 -6 -25 -24z"/>
</g>
</g>
</svg>