<?xml version="1.0" standalone="no"?>
<!DOCTYPE svg PUBLIC "-//W3C//DTD SVG 20010904//EN"
 "http://www.w3.org/TR/2001/REC-SVG-20010904/DTD/svg10.dtd">
<svg version="1.0" xmlns="http://www.w3.org/2000/svg"
 width="96.000000pt" height="68.000000pt" viewBox="0 0 96.000000 68.000000"
 preserveAspectRatio="xMidYMid meet">
<metadata>
Created by potrace 1.16, written by Peter Selinger 2001-2019
Combined from part_0.svg through part_5.svg with named groups
</metadata>
<g transform="translate(0.000000,68.000000) scale(0.100000,-0.100000)" fill="#000000" stroke="none">
<g id="part-0" class="char-part">
  <path d="M517 581 c5 -44 4 -49 -18 -54 -13 -4 -36 -7 -51 -7 -16 0 -28 -4
-28 -10 0 -5 23 -10 51 -10 47 0 50 -2 47 -22 -3 -20 -10 -23 -50 -26 -64 -4
-62 -22 2 -22 43 0 50 -3 50 -19 0 -23 -12 -27 -105 -36 -58 -6 -66 -9 -48
-18 15 -6 43 -7 83 0 66 10 72 8 63 -25 -4 -18 -13 -22 -49 -22 -63 0 -55 -20
9 -21 28 -1 44 -3 35 -6 -9 -2 -18 -14 -20 -26 -3 -25 -33 -34 -115 -36 -28 0
-54 -5 -57 -10 -9 -13 47 -21 106 -14 l53 6 -18 -21 c-23 -25 -15 -42 21 -42
15 0 34 -5 42 -10 11 -7 2 -15 -40 -33 -110 -48 -110 -48 -60 -42 25 3 71 18
104 33 l59 26 68 -37 c77 -42 89 -44 89 -19 -1 22 -35 47 -88 63 -47 14 -51
25 -22 59 11 13 20 27 20 32 0 4 38 8 84 8 84 0 117 12 74 26 -13 4 -49 7 -82
5 -40 -1 -66 3 -83 14 -23 16 -25 15 -30 -4 -7 -28 -73 -31 -73 -3 0 35 17 44
89 50 39 2 68 9 65 14 -3 4 -3 22 1 38 6 29 9 30 61 30 30 0 54 4 54 9 0 12
-26 21 -61 21 -22 0 -29 5 -29 19 0 41 -41 49 -137 24 -19 -4 -23 -1 -23 20 0
23 4 26 60 32 83 10 89 27 9 24 l-64 -3 0 38 c0 35 -15 56 -42 56 -9 0 -10
-14 -6 -49z m141 -153 c-3 -20 -10 -23 -50 -26 -41 -3 -48 -1 -48 16 0 27 8
32 57 32 40 0 44 -2 41 -22z m-5 -85 c-3 -7 -15 -13 -27 -13 -11 0 -31 -3 -43
-6 -16 -4 -25 -1 -29 11 -9 23 8 37 53 44 39 7 57 -7 46 -36z m-49 -132 c3 -5
-4 -20 -15 -35 -21 -27 -69 -35 -99 -16 -12 7 -12 12 4 29 22 25 99 40 110 22z"/>
  <path d="M216 578 c11 -29 7 -357 -5 -423 -9 -51 6 -115 27 -115 24 0 31 38
38 208 l7 183 22 -21 c27 -25 55 -26 55 -1 0 23 -16 37 -53 46 -19 5 -26 12
-23 24 2 9 8 35 11 58 6 40 5 44 -20 53 -14 5 -36 10 -47 10 -17 0 -19 -4 -12
-22z"/>
  <path d="M126 371 c-29 -56 -25 -94 8 -89 26 4 52 72 42 111 -9 39 -22 33 -50
-22z"/>
</g>
<g id="part-1" class="char-part">
  <path d="M227 548 c14 -55 13 -113 -8 -345 -11 -115 -4 -153 25 -153 21 0 25
31 27 185 0 78 3 153 6 167 l5 27 30 -22 c25 -18 30 -19 38 -7 14 22 7 32 -31
45 -34 12 -34 12 -31 70 3 62 -11 84 -54 85 -21 0 -21 -1 -7 -52z"/>
  <path d="M132 372 c-25 -52 -28 -77 -10 -88 20 -13 48 35 48 82 0 23 -4 45 -8
48 -4 2 -18 -16 -30 -42z"/>
</g>
<g id="part-2" class="char-part">
  <path d="M515 581 l7 -50 -39 -6 c-72 -12 -82 -24 -20 -24 50 -1 57 -3 57 -21
0 -13 7 -20 20 -20 14 0 20 7 20 24 0 21 6 24 58 30 31 4 63 10 70 15 21 13
-38 21 -81 11 -43 -9 -51 -2 -42 40 5 22 2 31 -14 39 -37 20 -43 14 -36 -38z"/>
</g>
<g id="part-3" class="char-part">
  <path d="M517 470 c-4 -16 -14 -20 -51 -20 -25 0 -46 -4 -46 -10 0 -5 23 -10
50 -10 37 0 50 -4 50 -15 0 -21 -27 -32 -104 -40 -48 -5 -65 -10 -55 -16 8 -5
44 -7 82 -3 l67 6 0 -26 c0 -24 -3 -26 -45 -26 -25 0 -45 -4 -45 -10 0 -5 22
-10 49 -10 30 0 51 -5 54 -12 3 -9 9 -7 20 7 12 15 30 20 87 23 57 4 70 7 66
19 -3 8 -3 25 0 39 6 22 11 24 60 24 30 0 54 4 54 9 0 12 -26 21 -61 21 -24 0
-29 4 -29 25 0 32 -34 41 -95 26 -57 -14 -65 -14 -65 4 0 22 -37 18 -43 -5z
m143 -45 c0 -23 -3 -25 -50 -25 -43 0 -50 3 -50 19 0 23 13 29 63 30 33 1 37
-2 37 -24z m-12 -67 c-2 -18 -12 -24 -43 -29 -47 -8 -55 -5 -55 21 0 20 16 27
68 29 29 1 33 -2 30 -21z"/>
</g>
<g id="part-4" class="char-part">
  <path d="M488 258 c-4 -26 -32 -35 -120 -37 -32 0 -58 -5 -58 -10 0 -15 72
-22 109 -12 43 13 57 5 35 -21 -16 -16 -16 -21 -4 -28 8 -6 24 -10 35 -10 11
0 27 -4 35 -10 11 -7 2 -15 -40 -34 -30 -14 -62 -26 -70 -26 -8 0 -22 -5 -30
-11 -30 -21 81 0 142 28 l60 27 70 -37 c43 -23 75 -34 83 -29 26 14 -11 45
-83 70 l-50 18 26 42 27 42 88 0 c132 0 109 31 -27 35 -34 1 -71 5 -83 9 -18
7 -23 5 -23 -8 0 -12 -9 -16 -35 -16 -23 0 -35 5 -35 14 0 13 -20 26 -40 26
-5 0 -10 -10 -12 -22z m122 -47 c0 -5 -11 -22 -24 -38 -21 -25 -30 -28 -65
-25 -53 5 -58 15 -23 44 29 24 112 38 112 19z"/>
</g>
</g>
</svg>