<?xml version="1.0" standalone="no"?>
<!DOCTYPE svg PUBLIC "-//W3C//DTD SVG 20010904//EN"
 "http://www.w3.org/TR/2001/REC-SVG-20010904/DTD/svg10.dtd">
<svg version="1.0" xmlns="http://www.w3.org/2000/svg"
 width="96.000000pt" height="68.000000pt" viewBox="0 0 96.000000 68.000000"
 preserveAspectRatio="xMidYMid meet">
<metadata>
Created by potrace 1.16, written by Peter Selinger 2001-2019
Combined from part_0.svg through part_5.svg with named groups
</metadata>
<g transform="translate(0.000000,68.000000) scale(0.100000,-0.100000)" fill="#000000" stroke="none">
<g id="part-0" class="char-part">
  <path d="M585 590 c-38 -5 -142 -11 -230 -15 l-160 -8 3 -161 c2 -105 -2 -188
-11 -238 -13 -76 -9 -102 17 -120 6 -4 16 -1 21 6 8 11 59 16 219 22 l208 7
22 -28 c31 -39 53 -40 72 -3 13 25 15 65 12 241 -2 117 0 226 4 243 7 29 5 33
-26 48 -36 17 -43 17 -151 6z m92 -60 c9 -18 13 -83 13 -220 l0 -195 -168 -2
c-92 -1 -193 -5 -224 -8 l-57 -6 6 208 c3 114 9 212 13 216 4 5 43 11 87 14
l79 6 -1 -49 c-1 -64 -9 -74 -51 -74 -20 0 -33 -4 -29 -10 3 -5 12 -7 20 -3
24 9 44 -4 38 -25 -4 -16 -17 -21 -66 -27 -51 -6 -58 -9 -39 -16 13 -5 35 -6
48 -3 40 10 29 -21 -22 -60 -25 -19 -51 -37 -57 -39 -7 -2 -10 -7 -7 -10 3 -3
27 5 53 19 27 13 50 24 53 24 2 0 4 -20 4 -44 0 -37 5 -48 28 -66 24 -20 36
-22 110 -18 95 5 109 13 89 52 l-14 26 -17 -25 c-15 -22 -23 -25 -80 -25 -74
0 -89 11 -84 67 3 37 4 38 46 41 39 3 42 1 42 -22 0 -18 -4 -24 -15 -20 -20 8
-19 -10 1 -26 19 -16 36 -1 52 47 9 28 8 34 -8 43 -10 5 -25 8 -32 6 -32 -10
-98 -15 -98 -8 0 5 9 18 20 30 22 23 78 30 96 12 18 -18 126 -80 140 -80 8 0
14 9 14 19 0 18 -31 34 -110 58 -27 8 11 23 60 23 34 0 41 3 32 12 -14 14 -56
15 -139 4 -55 -7 -63 -6 -63 8 0 20 39 36 85 36 36 0 55 14 31 23 -7 3 -30 2
-50 -3 -43 -10 -48 -4 -36 41 9 30 7 36 -12 51 -22 17 -21 17 47 21 138 7 158
5 172 -23z"/>
  <path d="M542 505 c-28 -32 -28 -38 1 -29 64 20 70 24 57 39 -18 21 -33 19
-58 -10z"/>
  <path d="M320 491 c0 -17 43 -42 54 -31 12 12 0 25 -31 35 -13 3 -23 2 -23 -4z"/>
</g>
<g id="part-1" class="char-part">
  <path d="M658 595 c-9 -9 -412 -36 -441 -29 -29 6 -29 6 -21 -27 11 -43 7
-317 -6 -387 -10 -58 0 -102 25 -102 8 0 15 4 15 9 0 10 77 17 282 26 l137 6
27 -30 c15 -17 33 -31 40 -31 32 0 37 43 36 295 l0 250 -29 12 c-30 13 -56 16
-65 8z m21 -49 c8 -9 14 -86 18 -223 l6 -209 -64 0 c-35 1 -141 -3 -235 -7
l-171 -8 3 48 c2 26 7 124 10 216 4 112 10 170 18 172 16 6 239 22 327 24 55
1 80 -3 88 -13z"/>
</g>
<g id="part-2" class="char-part">
  <path d="M423 493 c0 -97 -47 -182 -132 -237 -64 -43 -48 -47 29 -7 67 35 112
95 142 194 20 68 20 71 3 84 -33 23 -43 16 -42 -34z"/>
  <path d="M539 498 c-21 -29 -22 -31 -3 -24 10 4 31 10 47 13 30 6 36 27 11 37
-26 10 -32 7 -55 -26z"/>
  <path d="M330 475 c28 -30 50 -32 50 -6 0 11 -9 21 -22 25 -46 12 -52 7 -28
-19z"/>
  <path d="M491 346 c18 -16 144 -86 155 -86 25 0 15 36 -13 49 -53 25 -159 52
-142 37z"/>
</g>
<g id="part-3" class="char-part">
  <path d="M418 440 c-2 -7 -22 -16 -43 -20 -38 -7 -39 -8 -8 -9 71 -2 42 -46
-36 -55 -30 -4 -57 -8 -59 -11 -7 -7 67 -17 78 -10 6 4 17 1 25 -5 12 -10 20
-9 40 4 14 9 47 16 77 17 29 1 78 4 108 8 53 7 54 8 27 19 -21 9 -46 9 -103 1
-80 -12 -88 -11 -79 13 4 10 26 18 61 23 67 8 81 25 21 25 -25 0 -58 3 -75 6
-19 4 -31 2 -34 -6z"/>
</g>
<g id="part-4" class="char-part">
  <path d="M377 283 c-9 -9 -9 -95 1 -109 22 -34 151 -48 207 -22 24 11 35 38
15 38 -5 0 -10 8 -10 18 -1 13 -5 11 -21 -10 -19 -25 -27 -28 -84 -28 -77 0
-90 12 -83 75 5 43 -5 58 -25 38z"/>
</g>
</g>
</svg>