<?xml version="1.0" standalone="no"?>
<!DOCTYPE svg PUBLIC "-//W3C//DTD SVG 20010904//EN"
 "http://www.w3.org/TR/2001/REC-SVG-20010904/DTD/svg10.dtd">
<svg version="1.0" xmlns="http://www.w3.org/2000/svg"
 width="96.000000pt" height="68.000000pt" viewBox="0 0 96.000000 68.000000"
 preserveAspectRatio="xMidYMid meet">
<metadata>
Created by potrace 1.16, written by Peter Selinger 2001-2019
Combined from part_0.svg through part_5.svg with named groups
</metadata>
<g transform="translate(0.000000,68.000000) scale(0.100000,-0.100000)" fill="#000000" stroke="none">
<g id="part-0" class="char-part">
  <path d="M455 610 c-16 -4 -63 -8 -102 -9 -73 -1 -86 -8 -59 -30 8 -7 20 -43
27 -81 6 -38 15 -73 18 -79 5 -7 28 -7 74 1 53 9 73 8 91 -2 13 -7 29 -9 35
-6 9 6 61 161 61 184 0 25 -84 38 -145 22z m55 -54 c0 -22 -5 -24 -72 -30 -53
-5 -74 -3 -80 6 -21 34 -6 41 115 46 33 2 37 -1 37 -22z m-8 -81 c-4 -22 -10
-25 -46 -25 -22 0 -51 -3 -63 -6 -20 -5 -23 -2 -23 19 0 27 10 30 106 35 28 2
31 0 26 -23z"/>
  <path d="M660 387 c-3 -3 -36 -7 -75 -10 -115 -8 -409 -38 -425 -44 -11 -4 -8
-8 10 -15 16 -6 53 -6 104 1 44 6 96 11 118 11 l38 0 0 -76 c0 -42 -3 -74 -7
-72 -5 2 -27 12 -50 22 -43 18 -52 29 -33 41 18 11 11 32 -15 43 -35 16 -45
15 -45 -5 0 -9 -11 -39 -24 -67 -25 -52 -58 -89 -109 -121 -15 -10 -26 -20
-23 -22 11 -11 78 30 134 82 l62 58 59 -37 c33 -20 64 -36 70 -36 6 0 11 -4
11 -8 0 -4 12 -13 28 -19 15 -7 52 -26 82 -42 33 -19 70 -31 91 -31 43 0 151
20 162 30 5 4 -29 13 -75 19 -108 16 -156 27 -223 52 -54 20 -55 21 -55 60 l0
39 58 0 c60 0 94 12 72 25 -6 4 -36 4 -66 0 l-54 -6 0 39 0 39 127 7 c70 3
129 9 132 11 13 14 -65 45 -79 32z"/>
</g>
<g id="part-1" class="char-part">
  <path d="M445 604 c-33 -7 -84 -13 -113 -14 l-53 0 20 -27 c10 -16 24 -56 31
-91 13 -62 26 -84 39 -64 7 12 131 21 131 9 0 -5 10 -7 22 -5 20 3 31 26 73
157 5 18 0 24 -29 36 -41 17 -42 17 -121 -1z m70 -25 c4 -5 4 -20 1 -32 -4
-19 -13 -22 -58 -25 -29 -2 -64 -4 -78 -5 -20 -2 -26 3 -28 25 -3 28 -6 27 88
41 49 8 69 7 75 -4z m-5 -93 c0 -31 -3 -33 -76 -41 -58 -7 -61 -6 -67 16 -3
13 -5 25 -3 27 2 1 32 7 67 11 35 5 67 9 72 10 4 0 7 -10 7 -23z"/>
</g>
<g id="part-2" class="char-part">
  <path d="M408 362 c-142 -14 -258 -29 -258 -33 0 -15 61 -20 137 -10 79 11
357 31 419 31 19 0 34 4 34 8 0 10 -46 33 -63 31 -7 -1 -128 -13 -269 -27z"/>
</g>
<g id="part-3" class="char-part">
  <path d="M433 324 c-2 -6 -3 -42 -1 -80 2 -56 6 -69 21 -72 14 -3 17 4 17 32
l0 36 58 0 c60 0 94 12 72 25 -6 4 -36 4 -66 0 l-54 -6 0 40 c0 34 -3 40 -21
38 -12 -1 -23 -7 -26 -13z"/>
</g>
<g id="part-4" class="char-part">
  <path d="M276 267 c-9 -50 -58 -120 -110 -157 -25 -18 -44 -35 -42 -38 12 -11
103 45 146 90 l49 50 116 -67 c200 -115 219 -119 343 -88 l67 17 -130 22
c-146 24 -131 20 -277 81 -63 27 -108 51 -108 59 0 8 5 14 10 14 23 0 7 29
-21 39 -18 6 -33 11 -34 11 -2 0 -6 -15 -9 -33z"/>
</g>
</g>
</svg>