<?xml version="1.0" standalone="no"?>
<!DOCTYPE svg PUBLIC "-//W3C//DTD SVG 20010904//EN"
 "http://www.w3.org/TR/2001/REC-SVG-20010904/DTD/svg10.dtd">
<svg version="1.0" xmlns="http://www.w3.org/2000/svg"
 width="96.000000pt" height="68.000000pt" viewBox="0 0 96.000000 68.000000"
 preserveAspectRatio="xMidYMid meet">
<metadata>
Created by potrace 1.16, written by Peter Selinger 2001-2019
Combined from part_0.svg through part_5.svg with named groups
</metadata>
<g transform="translate(0.000000,68.000000) scale(0.100000,-0.100000)" fill="#000000" stroke="none">
<g id="part-0" class="char-part">
  <path d="M590 592 c0 -4 5 -13 10 -18 7 -7 10 -47 8 -100 l-3 -89 -56 -3 -55
-3 4 -60 c3 -36 -3 -96 -14 -150 -14 -69 -15 -92 -6 -101 17 -17 32 1 47 59
l12 48 97 10 96 10 0 -45 c0 -61 -10 -74 -49 -65 -17 4 -31 4 -31 1 0 -3 16
-22 37 -41 29 -28 40 -32 55 -24 30 16 36 46 40 212 l3 157 -28 9 c-15 6 -33
8 -40 6 -7 -2 -24 -6 -39 -9 l-28 -6 7 105 6 105 -36 0 c-21 0 -37 -4 -37 -8z
m140 -251 c0 -26 -4 -28 -64 -39 -35 -7 -77 -12 -95 -12 -28 0 -31 3 -31 30 0
18 6 33 15 36 19 8 158 21 168 16 4 -2 7 -16 7 -31z m0 -89 c0 -28 -2 -29 -77
-40 -111 -17 -113 -17 -113 17 0 28 2 29 68 38 117 18 122 17 122 -15z"/>
  <path d="M733 494 c-18 -24 -29 -44 -24 -44 21 0 111 44 111 54 0 17 -21 36
-39 35 -9 0 -31 -20 -48 -45z"/>
  <path d="M295 478 c-131 -26 -134 -27 -115 -38 8 -6 27 -10 43 -10 22 0 27 -5
27 -24 0 -30 -50 -125 -101 -194 -53 -70 -26 -70 42 -1 28 28 51 50 53 48 1
-2 8 -23 15 -47 8 -30 17 -42 26 -38 7 2 40 8 73 12 50 5 59 9 55 24 -2 9 3
34 12 56 15 36 15 39 -2 52 -10 7 -25 11 -33 9 -79 -23 -110 -30 -115 -25 -3
3 5 30 20 59 14 30 23 59 21 66 -3 7 7 14 25 17 16 3 42 9 59 12 27 5 48 20
39 28 -14 12 -57 10 -144 -6z m85 -217 c0 -45 -1 -46 -52 -55 l-38 -7 0 45 c0
43 1 45 33 49 17 2 38 5 45 5 8 1 12 -12 12 -37z"/>
  <path d="M470 495 c0 -11 52 -75 61 -75 15 0 21 42 8 55 -16 15 -69 31 -69 20z"/>
</g>
<g id="part-1" class="char-part">
  <path d="M280 470 c-116 -22 -114 -21 -65 -29 37 -6 40 -8 37 -36 -6 -45 -26
-87 -82 -170 -57 -86 -40 -87 35 -3 54 60 121 188 103 199 -11 7 4 13 62 24
57 11 71 16 65 26 -8 12 -41 10 -155 -11z"/>
</g>
<g id="part-2" class="char-part">
  <path d="M345 315 c-22 -8 -52 -14 -66 -14 -15 -1 -29 -7 -31 -13 -7 -20 16
-113 27 -113 6 0 40 4 77 9 53 6 66 11 61 22 -3 8 3 33 13 56 18 39 18 41 -1
54 -22 16 -27 16 -80 -1z m35 -47 c0 -45 -9 -55 -53 -63 l-37 -7 0 45 c0 44 1
46 33 50 17 2 38 5 45 5 7 1 12 -10 12 -30z"/>
</g>
<g id="part-3" class="char-part">
  <path d="M596 583 c5 -10 10 -57 12 -105 3 -79 5 -88 23 -88 13 0 19 7 20 23
0 12 4 55 8 95 8 80 2 92 -42 92 -24 0 -28 -3 -21 -17z"/>
  <path d="M733 494 c-18 -24 -28 -44 -23 -44 5 0 35 11 66 25 56 25 57 26 39
45 -27 30 -46 24 -82 -26z"/>
  <path d="M470 493 c1 -18 58 -76 68 -69 18 11 14 34 -8 56 -19 19 -60 28 -60
13z"/>
</g>
<g id="part-4" class="char-part">
  <path d="M660 394 c-36 -7 -88 -13 -116 -14 l-50 0 4 -61 c3 -36 -3 -96 -14
-150 -14 -72 -15 -92 -5 -102 18 -17 38 13 47 69 l6 44 52 1 c28 0 72 4 99 8
l47 8 0 -46 c0 -64 -10 -75 -55 -67 l-36 7 40 -36 c78 -71 102 -35 100 150 -1
72 1 140 5 152 6 18 1 25 -23 37 -17 9 -31 15 -33 15 -2 -1 -32 -7 -68 -15z
m68 -50 l3 -31 -78 -12 c-43 -7 -86 -14 -95 -16 -14 -2 -18 4 -18 30 0 19 5
37 10 40 12 7 135 23 160 21 9 -1 16 -13 18 -32z m2 -87 l0 -34 -85 -12 c-99
-15 -114 -12 -108 22 5 23 12 26 96 40 51 8 93 15 95 16 1 0 2 -14 2 -32z"/>
</g>
</g>
</svg>