<?xml version="1.0" standalone="no"?>
<!DOCTYPE svg PUBLIC "-//W3C//DTD SVG 20010904//EN"
 "http://www.w3.org/TR/2001/REC-SVG-20010904/DTD/svg10.dtd">
<svg version="1.0" xmlns="http://www.w3.org/2000/svg"
 width="96.000000pt" height="68.000000pt" viewBox="0 0 96.000000 68.000000"
 preserveAspectRatio="xMidYMid meet">
<metadata>
Created by potrace 1.16, written by Peter Selinger 2001-2019
Combined from part_0.svg through part_5.svg with named groups
</metadata>
<g transform="translate(0.000000,68.000000) scale(0.100000,-0.100000)" fill="#000000" stroke="none">
<g id="part-0" class="char-part">
  <path d="M180 547 c0 -19 58 -69 74 -64 17 5 19 42 3 55 -8 7 -28 15 -45 18
-25 5 -32 3 -32 -9z"/>
  <path d="M385 540 c-55 -9 -93 -19 -84 -22 10 -4 22 -28 29 -58 11 -46 15 -51
34 -46 11 3 46 6 76 6 l56 0 18 54 c29 84 18 89 -129 66z m91 -32 c-3 -13 -6
-33 -6 -44 0 -18 -8 -22 -47 -28 -32 -4 -49 -2 -54 6 -12 19 -3 25 46 32 25 4
45 12 45 17 0 6 -8 8 -17 6 -10 -3 -35 -8 -55 -12 -33 -5 -38 -3 -38 14 0 23
16 28 84 30 45 1 48 0 42 -21z"/>
  <path d="M642 532 c-91 -17 -113 -32 -45 -32 28 0 33 -4 33 -22 0 -50 -11 -68
-41 -68 l-29 0 0 -110 c0 -111 2 -115 38 -111 21 3 13 -15 -30 -69 -34 -43
-38 -50 -17 -40 51 28 109 83 99 96 -8 8 -2 13 21 18 51 10 71 7 85 -12 22
-30 31 -2 37 115 6 137 4 139 -88 126 -36 -5 -65 -8 -65 -6 0 3 11 19 26 38
18 24 22 35 13 41 -19 12 18 22 79 23 38 1 52 5 50 14 -6 18 -60 17 -166 -1z
m106 -153 c2 -18 -2 -25 -15 -25 -10 0 -44 -3 -75 -7 -56 -7 -58 -7 -58 17 0
20 7 25 48 33 72 15 96 10 100 -18z m2 -68 c0 -14 -10 -20 -46 -25 -82 -11
-104 -8 -104 13 0 23 16 28 93 30 49 1 57 -1 57 -18z m0 -66 c0 -23 -3 -25
-55 -26 -106 -3 -104 -3 -101 19 2 12 16 19 52 23 100 12 104 11 104 -16z"/>
  <path d="M120 398 c1 -15 62 -63 81 -63 8 0 15 10 17 22 2 16 -5 26 -27 37
-36 19 -71 21 -71 4z"/>
  <path d="M410 397 c0 -7 5 -18 11 -24 12 -12 -8 -18 -103 -29 -32 -3 -58 -11
-58 -16 0 -11 35 -8 183 15 78 12 104 27 44 27 -21 0 -36 7 -45 20 -14 23 -32
27 -32 7z"/>
  <path d="M430 310 c-8 -5 -37 -10 -64 -10 -42 0 -47 -2 -41 -17 4 -10 12 -30
17 -45 11 -30 23 -36 31 -15 9 25 21 -5 25 -64 l4 -60 -28 7 -29 6 28 -28 c27
-28 28 -28 43 -10 9 13 14 44 14 88 0 62 2 68 20 68 12 0 25 10 32 25 6 14 15
25 20 25 18 0 6 28 -14 34 -31 8 -41 7 -58 -4z m30 -39 c0 -15 -9 -20 -46 -23
-48 -3 -60 3 -50 27 4 10 20 15 51 15 38 0 45 -3 45 -19z"/>
  <path d="M225 268 c-10 -18 -39 -54 -63 -80 -34 -37 -43 -53 -38 -70 16 -61
43 -62 65 -2 8 22 27 66 42 98 16 33 29 65 29 73 0 23 -15 14 -35 -19z"/>
  <path d="M470 182 c0 -12 34 -42 48 -42 22 0 12 27 -13 38 -31 14 -35 15 -35
4z"/>
  <path d="M283 145 c-15 -25 -18 -35 -9 -35 18 0 67 50 60 61 -10 17 -29 8 -51
-26z"/>
  <path d="M746 115 c41 -48 62 -61 77 -46 15 15 -10 49 -53 71 -59 30 -65 24
-24 -25z"/>
</g>
<g id="part-1" class="char-part">
  <path d="M190 542 c0 -15 46 -52 63 -52 22 0 22 29 0 46 -20 15 -63 19 -63 6z"/>
  <path d="M120 399 c0 -12 60 -59 75 -59 23 0 28 20 10 40 -16 17 -85 33 -85
19z"/>
  <path d="M225 260 c-9 -17 -37 -52 -63 -76 l-46 -44 17 -36 c10 -19 21 -33 26
-30 13 8 95 205 88 212 -3 3 -13 -8 -22 -26z"/>
</g>
<g id="part-2" class="char-part">
  <path d="M395 541 l-91 -16 17 -45 c10 -25 20 -53 23 -64 5 -15 9 -16 21 -6 9
7 37 11 72 8 l57 -3 19 53 c31 88 18 96 -118 73z m85 -24 c0 -14 -107 -40
-122 -30 -15 8 -8 32 10 36 41 11 112 7 112 -6z m-10 -56 c0 -14 -10 -20 -47
-25 -33 -4 -49 -2 -55 6 -13 22 -9 27 25 31 70 9 77 8 77 -12z"/>
</g>
<g id="part-3" class="char-part">
  <path d="M395 168 c0 -61 -1 -63 -25 -60 l-25 4 27 -28 c41 -42 58 -21 58 72
0 64 -2 74 -18 74 -15 0 -17 -9 -17 -62z"/>
  <path d="M480 165 c26 -28 50 -33 50 -10 0 9 -12 20 -26 25 -42 16 -49 12 -24
-15z"/>
  <path d="M287 149 c-10 -18 -15 -34 -12 -37 8 -9 60 33 63 52 6 29 -32 18 -51
-15z"/>
</g>
<g id="part-4" class="char-part">
  <path d="M605 171 c-3 -10 -23 -37 -44 -60 -49 -53 -30 -53 34 0 72 59 72 59
55 69 -23 15 -38 12 -45 -9z"/>
  <path d="M745 117 c41 -49 63 -63 77 -49 21 21 -29 68 -91 87 -22 7 -20 3 14
-38z"/>
</g>
</g>
</svg>