<?xml version="1.0" standalone="no"?>
<!DOCTYPE svg PUBLIC "-//W3C//DTD SVG 20010904//EN"
 "http://www.w3.org/TR/2001/REC-SVG-20010904/DTD/svg10.dtd">
<svg version="1.0" xmlns="http://www.w3.org/2000/svg"
 width="96.000000pt" height="68.000000pt" viewBox="0 0 96.000000 68.000000"
 preserveAspectRatio="xMidYMid meet">
<metadata>
Created by potrace 1.16, written by Peter Selinger 2001-2019
Combined from part_0.svg through part_5.svg with named groups
</metadata>
<g transform="translate(0.000000,68.000000) scale(0.100000,-0.100000)" fill="#000000" stroke="none">
<g id="part-0" class="char-part">
  <path d="M360 546 c0 -47 -3 -54 -22 -60 -48 -12 -57 -8 -60 32 -3 32 -7 37
-31 40 -28 3 -28 3 -22 -42 l7 -46 -32 0 c-41 0 -35 -24 7 -28 24 -2 32 -9 36
-30 3 -15 3 -30 1 -33 -2 -4 -40 -10 -84 -13 -82 -8 -98 -18 -56 -37 18 -9 53
-6 147 9 68 11 153 24 189 27 36 4 69 10 74 12 17 11 -20 23 -68 23 -45 0 -48
1 -42 23 3 12 6 25 6 28 0 4 16 10 36 13 41 8 41 29 1 34 -30 4 -32 8 -16 49
8 23 7 30 -7 40 -10 7 -28 13 -41 13 -21 0 -23 -4 -23 -54z m0 -113 c0 -27
-12 -41 -43 -48 -25 -7 -27 -5 -27 22 0 37 6 43 42 43 20 0 28 -5 28 -17z"/>
  <path d="M590 555 c0 -9 -9 -40 -19 -70 -11 -30 -16 -55 -13 -55 4 0 1 -4 -6
-9 -7 -4 -14 -14 -15 -22 -2 -8 -10 -25 -20 -39 -28 -40 -21 -58 11 -29 15 14
42 26 60 28 l32 3 0 -54 c0 -29 -3 -63 -6 -75 -6 -23 -6 -23 -45 8 -27 21 -45
29 -57 24 -14 -6 -12 -9 13 -22 17 -8 38 -26 48 -39 18 -24 18 -25 -5 -53 -13
-16 -40 -37 -60 -47 -49 -22 -49 -35 0 -22 36 10 90 42 104 62 4 6 30 -12 62
-42 54 -51 56 -52 115 -52 34 0 61 4 61 9 0 4 -25 18 -55 29 -55 22 -155 81
-155 93 0 4 9 35 20 69 24 75 24 84 5 100 -21 17 -6 27 57 35 26 4 48 11 48
15 0 19 -40 19 -114 0 -43 -12 -80 -19 -82 -17 -3 2 10 31 29 63 46 82 48 91
31 109 -20 19 -44 19 -44 0z"/>
  <path d="M345 319 c-22 -4 -60 -8 -85 -8 l-45 -1 -1 -83 c0 -45 -5 -96 -11
-114 -13 -35 -7 -76 10 -70 11 3 20 26 31 77 5 24 9 26 76 28 l71 3 -3 -38
c-3 -37 -4 -38 -41 -38 l-39 0 33 -28 c66 -54 81 -32 89 126 4 107 3 124 -12
140 -10 9 -21 16 -25 16 -5 -1 -26 -5 -48 -10z m40 -43 c0 -15 -12 -23 -50
-33 -76 -19 -87 -18 -83 15 3 23 9 28 43 33 66 11 90 6 90 -15z m5 -70 c0 -19
-7 -24 -37 -30 -21 -3 -53 -9 -70 -12 -30 -6 -33 -4 -33 18 0 22 6 26 53 35
83 16 87 16 87 -11z"/>
</g>
<g id="part-1" class="char-part">
  <path d="M365 543 l0 -57 -40 -7 c-43 -7 -57 2 -53 36 3 28 -9 45 -33 45 -20
0 -20 -7 -3 -71 3 -11 -6 -19 -28 -26 l-33 -10 35 -10 c29 -8 36 -14 38 -40
l3 -31 -63 -7 c-77 -8 -98 -14 -98 -26 0 -14 75 -11 203 11 65 11 138 20 162
20 24 0 46 4 50 9 8 14 -32 24 -71 16 -32 -6 -34 -5 -34 23 0 34 14 49 50 54
32 4 28 22 -6 26 -25 3 -26 6 -20 42 5 32 3 41 -13 50 -39 20 -47 13 -46 -47z
m-9 -149 c-7 -19 -62 -18 -70 2 -15 39 -7 53 32 56 32 3 37 0 40 -20 2 -13 1
-30 -2 -38z"/>
</g>
<g id="part-2" class="char-part">
  <path d="M355 320 c-16 -4 -55 -8 -86 -9 l-56 -1 4 -47 c3 -27 -2 -81 -11
-121 -8 -40 -12 -80 -9 -88 10 -26 28 -9 38 35 13 51 22 57 98 64 l58 6 -3
-42 -3 -42 -43 2 -43 2 37 -30 c71 -56 91 -26 96 143 3 114 3 117 -20 128 -13
5 -24 9 -25 9 -1 -1 -15 -5 -32 -9z m30 -44 c0 -15 -12 -22 -55 -32 -78 -19
-82 -18 -78 14 3 23 9 28 43 33 66 11 90 6 90 -15z m5 -70 c0 -19 -6 -24 -37
-29 -21 -3 -53 -9 -70 -12 -30 -7 -33 -5 -33 17 0 21 6 26 53 35 83 16 87 16
87 -11z"/>
</g>
<g id="part-3" class="char-part">
  <path d="M585 538 c-10 -52 -43 -137 -71 -184 -28 -48 -23 -56 13 -22 12 12
37 23 55 25 33 3 159 30 188 40 11 4 8 8 -10 14 -18 7 -45 4 -100 -11 -42 -11
-80 -20 -83 -20 -4 0 12 36 35 81 42 78 42 81 24 95 -30 22 -44 17 -51 -18z"/>
</g>
<g id="part-4" class="char-part">
  <path d="M619 303 c0 -32 -4 -66 -8 -76 -6 -17 -8 -17 -26 3 -23 26 -62 43
-77 34 -5 -4 8 -17 30 -30 22 -13 43 -31 46 -40 9 -22 -22 -59 -74 -88 -42
-24 -43 -26 -17 -26 31 0 96 30 117 54 11 15 19 11 66 -34 51 -49 54 -50 113
-50 34 0 61 4 61 8 0 4 -35 23 -77 40 -43 18 -90 43 -106 57 l-27 24 21 76
c22 81 17 105 -22 105 -16 0 -19 -8 -20 -57z"/>
</g>
</g>
</svg>