<?xml version="1.0" standalone="no"?>
<!DOCTYPE svg PUBLIC "-//W3C//DTD SVG 20010904//EN"
 "http://www.w3.org/TR/2001/REC-SVG-20010904/DTD/svg10.dtd">
<svg version="1.0" xmlns="http://www.w3.org/2000/svg"
 width="96.000000pt" height="68.000000pt" viewBox="0 0 96.000000 68.000000"
 preserveAspectRatio="xMidYMid meet">
<metadata>
Created by potrace 1.16, written by Peter Selinger 2001-2019
Combined from part_0.svg through part_5.svg with named groups
</metadata>
<g transform="translate(0.000000,68.000000) scale(0.100000,-0.100000)" fill="#000000" stroke="none">
<g id="part-0" class="char-part">
  <path d="M555 534 c-27 -7 -62 -14 -77 -14 -16 0 -28 -5 -28 -11 0 -9 23 -10
83 -5 109 8 131 14 116 32 -14 17 -29 16 -94 -2z"/>
  <path d="M203 512 c-51 -9 -93 -19 -93 -23 0 -10 66 -23 84 -16 23 9 36 -14
36 -64 l0 -48 -45 -7 c-58 -8 -58 -24 0 -24 l45 0 0 -59 0 -60 -54 -15 c-30
-9 -62 -16 -72 -16 -16 0 -16 -1 1 -20 10 -11 26 -20 35 -20 22 0 243 110 236
117 -3 3 -23 -2 -46 -11 -59 -24 -61 -22 -58 41 l3 57 43 9 c49 10 47 27 -4
27 l-35 0 3 52 c3 50 5 53 34 59 18 3 40 9 50 13 16 6 16 8 4 16 -19 12 -53
11 -167 -8z"/>
  <path d="M545 398 c-172 -28 -172 -28 -154 -39 7 -5 29 -9 47 -9 23 0 32 -5
32 -16 0 -28 -62 -126 -115 -183 l-50 -54 54 29 c31 16 67 47 84 69 36 50 77
129 77 150 0 19 28 31 41 18 5 -5 10 -56 11 -115 3 -121 13 -141 81 -159 74
-20 197 12 197 51 0 9 -8 33 -18 54 l-18 37 -13 -40 c-14 -50 -34 -61 -105
-61 -79 0 -91 15 -80 99 4 36 8 85 8 109 l0 42 58 0 c63 0 84 15 43 30 -31 12
-28 12 -180 -12z"/>
</g>
<g id="part-1" class="char-part">
  <path d="M287 520 c-15 -5 -57 -12 -93 -15 -35 -4 -67 -11 -70 -16 -7 -13 94
-11 177 2 71 12 86 22 47 33 -27 7 -25 7 -61 -4z"/>
</g>
<g id="part-2" class="char-part">
  <path d="M238 481 c-21 -5 -25 -9 -18 -21 5 -8 10 -34 10 -57 l0 -41 -50 -7
c-60 -8 -57 -25 6 -25 l44 0 0 -58 0 -58 -53 -17 c-30 -9 -61 -17 -70 -17 -10
0 -17 -3 -17 -6 0 -12 34 -33 53 -34 24 0 245 112 230 117 -6 2 -28 -3 -48
-11 -53 -22 -55 -21 -55 28 0 59 8 76 35 76 13 0 30 3 39 6 30 11 16 24 -25
24 l-41 0 3 45 c3 52 -6 64 -43 56z"/>
</g>
<g id="part-3" class="char-part">
  <path d="M555 535 c-27 -7 -65 -14 -83 -14 -55 -2 -25 -21 31 -20 61 0 144 13
154 23 9 9 -17 26 -37 25 -8 -1 -37 -7 -65 -14z"/>
</g>
<g id="part-4" class="char-part">
  <path d="M535 394 c-77 -12 -144 -23 -150 -24 -25 -1 24 -20 54 -20 31 0 33
-2 26 -27 -10 -44 -55 -114 -108 -170 -49 -52 -49 -53 -18 -42 17 6 51 30 74
54 46 45 107 150 107 182 0 17 9 21 68 26 37 4 86 7 109 7 50 0 65 16 28 30
-31 12 -17 13 -190 -16z"/>
</g>
<g id="part-5" class="char-part">
  <path d="M585 363 c-11 -3 -12 -172 -1 -216 5 -20 11 -27 22 -23 8 3 12 2 9
-4 -9 -14 75 -33 120 -27 65 9 75 12 95 30 24 20 25 30 5 47 -8 7 -12 16 -9
21 3 5 1 9 -4 9 -6 0 -15 -13 -21 -30 -5 -16 -15 -30 -21 -30 -6 0 -9 -3 -7
-7 8 -13 -129 -9 -145 4 -8 7 -17 11 -19 9 -11 -11 -2 151 9 171 6 12 12 26
12 31 0 11 -29 21 -45 15z m225 -223 c0 -5 -5 -10 -11 -10 -5 0 -7 5 -4 10 3
6 8 10 11 10 2 0 4 -4 4 -10z"/>
</g>
</g>
</svg>