<?xml version="1.0" standalone="no"?>
<!DOCTYPE svg PUBLIC "-//W3C//DTD SVG 20010904//EN"
 "http://www.w3.org/TR/2001/REC-SVG-20010904/DTD/svg10.dtd">
<svg version="1.0" xmlns="http://www.w3.org/2000/svg"
 width="96.000000pt" height="68.000000pt" viewBox="0 0 96.000000 68.000000"
 preserveAspectRatio="xMidYMid meet">
<metadata>
Created by potrace 1.16, written by Peter Selinger 2001-2019
Combined from part_0.svg through part_5.svg with named groups
</metadata>
<g transform="translate(0.000000,68.000000) scale(0.100000,-0.100000)" fill="#000000" stroke="none">
<g id="part-0" class="char-part">
  <path d="M246 581 c-4 -5 -2 -21 4 -36 14 -37 13 -112 -2 -122 -7 -4 -35 -10
-61 -13 -69 -7 -63 -24 11 -28 l62 -3 0 -43 0 -43 -71 -36 c-39 -21 -77 -37
-85 -37 -23 0 -16 -26 11 -38 38 -17 46 -15 94 23 24 19 45 35 46 35 6 0 -9
-116 -15 -124 -5 -5 -22 -4 -39 2 -17 6 -31 9 -31 6 0 -10 85 -94 96 -94 30 0
44 49 44 149 l0 99 38 30 c42 34 37 55 -8 28 l-30 -17 0 35 c0 34 2 36 40 42
23 4 40 12 40 20 0 16 -34 27 -59 19 -17 -5 -19 -2 -14 37 3 24 9 47 14 53 16
17 9 34 -21 50 -33 17 -56 19 -64 6z"/>
  <path d="M560 564 c-25 -7 -55 -14 -67 -14 -37 0 -27 -17 22 -39 25 -11 45
-25 45 -31 0 -6 -19 -19 -42 -30 -53 -23 -28 -26 36 -4 45 15 51 15 82 0 43
-20 44 -20 44 3 0 11 -9 23 -20 26 -28 9 -25 23 10 56 28 27 28 29 10 39 -25
13 -65 12 -120 -6z m60 -29 c0 -21 -23 -28 -65 -21 -60 12 -39 31 38 35 18 1
27 -4 27 -14z"/>
  <path d="M653 413 c-29 -9 -53 -19 -53 -22 0 -3 15 -13 33 -22 44 -22 40 -40
-14 -63 l-47 -19 -27 25 -26 25 25 24 c37 34 33 49 -11 49 -43 -1 -133 -23
-136 -33 -1 -4 13 -16 31 -27 17 -11 32 -24 32 -30 0 -6 -19 -20 -42 -30 -53
-24 -19 -28 37 -4 34 14 40 14 70 0 30 -15 52 -43 41 -53 -2 -3 -47 -7 -100
-10 -53 -3 -96 -9 -96 -13 0 -16 36 -21 103 -14 67 7 69 6 57 -13 -7 -11 -49
-45 -93 -76 -44 -31 -75 -57 -70 -57 15 0 114 50 147 74 52 39 53 39 49 -11
-6 -57 3 -93 22 -93 10 0 16 11 17 33 1 17 3 41 4 52 1 11 2 31 3 45 1 23 5
21 54 -28 48 -48 57 -52 99 -52 86 0 86 11 -1 45 -94 38 -160 83 -140 96 8 5
58 9 112 9 56 0 97 4 97 10 0 17 -46 22 -134 13 -86 -9 -86 -9 -86 14 0 13 -6
23 -12 24 -7 0 13 9 45 20 58 20 58 20 91 -1 19 -11 38 -20 45 -20 23 0 10 30
-19 45 -16 9 -30 19 -30 22 0 4 12 19 27 35 14 15 24 30 21 33 -13 14 -77 12
-125 -2z m62 -23 c3 -6 -1 -13 -9 -16 -22 -8 -68 4 -61 16 8 13 62 13 70 0z
m-205 -14 c0 -26 -23 -35 -55 -21 -30 13 -29 14 15 28 27 9 40 7 40 -7z"/>
</g>
<g id="part-1" class="char-part">
  <path d="M254 557 c3 -13 8 -48 12 -79 7 -63 10 -61 -85 -73 -42 -6 -51 -9
-37 -17 10 -5 41 -8 69 -6 l52 3 3 -48 3 -47 -85 -41 c-47 -23 -86 -46 -86
-50 0 -5 12 -14 26 -19 23 -9 33 -5 82 31 l55 42 -6 -68 c-8 -79 -16 -92 -47
-75 -34 18 -31 9 11 -40 37 -43 38 -44 58 -25 19 16 21 30 21 125 l0 108 36
27 c39 30 38 46 -1 25 -32 -17 -39 -9 -31 33 6 31 11 35 46 41 52 8 52 26 0
26 -45 0 -49 11 -29 84 10 35 9 42 -7 53 -10 7 -29 13 -42 13 -20 0 -23 -4
-18 -23z"/>
</g>
<g id="part-2" class="char-part">
  <path d="M560 564 c-25 -7 -55 -14 -67 -14 -37 0 -27 -15 27 -40 57 -27 55
-38 -15 -64 -36 -13 -37 -15 -13 -15 15 -1 46 6 69 15 38 16 43 16 75 0 43
-20 44 -20 44 2 0 9 -10 23 -21 30 -21 14 -21 14 11 47 31 32 32 33 12 44 -27
14 -67 13 -122 -5z m58 -31 c-3 -14 -13 -18 -40 -17 -20 1 -44 5 -55 9 -15 7
-12 10 17 15 65 13 82 12 78 -7z"/>
</g>
<g id="part-3" class="char-part">
  <path d="M456 399 c-33 -11 -61 -21 -63 -23 -2 -2 12 -14 31 -26 20 -12 36
-26 36 -31 0 -6 -19 -18 -42 -29 -52 -23 -29 -26 35 -4 34 11 51 13 66 5 11
-6 24 -11 30 -11 17 0 13 30 -4 36 -21 8 -19 24 7 51 40 43 -10 59 -96 32z
m54 -17 c0 -5 -6 -15 -12 -24 -11 -15 -17 -15 -43 -4 l-30 13 35 11 c45 13 50
14 50 4z"/>
</g>
<g id="part-4" class="char-part">
  <path d="M565 261 c6 -28 5 -28 -47 -34 -29 -4 -74 -7 -100 -7 -27 0 -48 -4
-48 -10 0 -17 47 -22 105 -12 31 5 58 6 60 2 6 -10 -62 -72 -125 -114 -30 -20
-52 -36 -49 -36 23 0 84 30 137 66 35 24 65 44 68 44 3 0 2 -20 -2 -45 -7 -53
1 -95 20 -95 14 0 26 49 26 114 l0 39 54 -52 c49 -46 59 -51 100 -51 82 0 81
11 -3 45 -44 17 -97 45 -117 60 -34 26 -35 29 -18 36 10 4 64 8 119 9 92 1 98
2 80 16 -16 12 -37 14 -105 8 -47 -3 -89 -7 -94 -8 -6 0 -12 8 -14 19 -5 22
-19 35 -40 35 -10 0 -12 -8 -7 -29z"/>
</g>
</g>
</svg>