<?xml version="1.0" standalone="no"?>
<!DOCTYPE svg PUBLIC "-//W3C//DTD SVG 20010904//EN"
 "http://www.w3.org/TR/2001/REC-SVG-20010904/DTD/svg10.dtd">
<svg version="1.0" xmlns="http://www.w3.org/2000/svg"
 width="96.000000pt" height="68.000000pt" viewBox="0 0 96.000000 68.000000"
 preserveAspectRatio="xMidYMid meet">
<metadata>
Created by potrace 1.16, written by Peter Selinger 2001-2019
Combined from part_0.svg through part_5.svg with named groups
</metadata>
<g transform="translate(0.000000,68.000000) scale(0.100000,-0.100000)" fill="#000000" stroke="none">
<g id="part-0" class="char-part">
  <path d="M242 560 c-62 -9 -115 -20 -118 -23 -4 -3 1 -13 10 -22 19 -19 22
-123 5 -194 -8 -36 -7 -47 5 -60 14 -13 21 -13 63 2 30 11 78 17 127 17 62 0
77 3 73 14 -4 10 6 15 33 20 21 3 59 15 85 26 l47 20 39 -35 c26 -23 49 -35
68 -35 44 0 121 12 121 19 0 3 -42 20 -93 36 -64 21 -93 35 -95 47 -3 16 30
69 67 108 12 12 9 16 -20 28 -30 13 -42 12 -99 -2 -36 -9 -78 -19 -95 -21 -16
-2 -32 -4 -34 -4 -2 -1 12 -13 30 -28 19 -16 45 -38 58 -51 21 -22 22 -25 6
-42 -27 -30 -95 -62 -129 -60 -17 0 -40 1 -52 2 -16 0 -21 7 -21 29 0 25 4 29
29 29 16 0 27 4 24 9 -3 5 4 21 16 36 21 27 21 28 2 42 -11 8 -29 11 -46 7
-30 -6 -33 0 -18 40 7 20 17 26 39 26 34 0 51 18 30 31 -17 10 -15 11 -157
-11z m48 -64 c0 -33 -1 -34 -46 -38 -51 -4 -59 2 -50 37 6 23 23 31 74 34 19
1 22 -4 22 -33z m320 2 c0 -18 -38 -78 -48 -78 -5 0 -24 14 -43 32 l-33 32 49
12 c68 16 75 16 75 2z m-260 -67 c0 -15 -11 -22 -50 -30 -28 -6 -64 -11 -80
-11 -25 0 -30 4 -30 24 0 22 5 25 43 29 105 9 117 8 117 -12z m-69 -68 c0 -5
2 -18 3 -29 2 -18 -4 -23 -33 -28 -59 -10 -61 -8 -61 29 0 35 0 35 45 35 25 0
45 -3 46 -7z"/>
  <path d="M407 274 c-3 -3 -3 -20 0 -38 l5 -33 -62 -7 c-77 -9 -69 -30 9 -25
54 4 53 5 55 -48 1 -27 -1 -28 -64 -34 -36 -4 -93 -7 -127 -8 -35 0 -63 -5
-63 -11 0 -19 54 -23 159 -11 58 6 179 11 268 11 89 0 164 4 167 9 3 5 -2 15
-11 22 -11 10 -38 13 -97 10 -45 -2 -103 -5 -131 -5 l-50 -1 -3 37 -3 36 58 8
c32 4 67 10 78 14 18 7 18 9 -9 19 -20 8 -39 8 -65 1 -50 -14 -51 -14 -51 19
0 21 -6 30 -22 35 -29 7 -33 7 -41 0z"/>
</g>
<g id="part-1" class="char-part">
  <path d="M222 552 c-98 -14 -102 -16 -86 -33 14 -16 16 -36 12 -138 -4 -83 -2
-121 6 -124 6 -2 25 2 43 10 18 7 69 13 117 13 89 0 115 12 71 32 -20 9 -43 8
-107 -4 -46 -9 -86 -14 -90 -12 -11 7 4 218 16 226 6 4 30 8 53 8 55 0 143 19
143 31 0 12 -52 9 -178 -9z"/>
</g>
<g id="part-2" class="char-part">
  <path d="M545 524 c-22 -8 -57 -16 -77 -17 -44 -1 -47 -9 -15 -29 12 -9 37
-30 54 -48 26 -27 30 -36 21 -47 -13 -16 -58 -42 -103 -60 l-30 -11 30 -1 c17
0 57 10 89 24 l59 24 39 -34 c25 -23 48 -35 67 -35 46 0 121 12 121 19 0 4
-36 18 -79 30 -44 13 -89 30 -100 38 l-21 14 21 32 c12 18 34 44 48 60 18 20
22 30 14 38 -18 18 -94 19 -138 3z m65 -25 c0 -14 -39 -79 -48 -79 -3 0 -21
15 -39 32 l-34 33 53 11 c29 6 56 12 61 13 4 0 7 -4 7 -10z"/>
</g>
<g id="part-3" class="char-part">
  <path d="M406 241 l6 -38 -67 -8 c-79 -8 -71 -25 12 -25 48 0 53 -2 59 -25 12
-49 4 -52 -137 -60 -120 -7 -131 -9 -113 -22 15 -12 35 -13 99 -8 44 4 172 11
284 14 144 4 206 10 208 18 7 20 -61 32 -134 22 -37 -4 -89 -8 -115 -9 l-48 0
0 39 0 39 63 7 c80 9 98 18 68 34 -20 11 -51 9 -103 -5 -14 -4 -18 1 -18 24 0
22 -6 31 -22 36 -44 11 -49 8 -42 -33z"/>
</g>
</g>
</svg>