<?xml version="1.0" standalone="no"?>
<!DOCTYPE svg PUBLIC "-//W3C//DTD SVG 20010904//EN"
 "http://www.w3.org/TR/2001/REC-SVG-20010904/DTD/svg10.dtd">
<svg version="1.0" xmlns="http://www.w3.org/2000/svg"
 width="96.000000pt" height="68.000000pt" viewBox="0 0 96.000000 68.000000"
 preserveAspectRatio="xMidYMid meet">
<metadata>
Created by potrace 1.16, written by Peter Selinger 2001-2019
Combined from part_0.svg through part_5.svg with named groups
</metadata>
<g transform="translate(0.000000,68.000000) scale(0.100000,-0.100000)" fill="#000000" stroke="none">
<g id="part-0" class="char-part">
  <path d="M496 598 c3 -13 11 -24 15 -26 20 -8 6 -21 -28 -26 -57 -9 -96 -10
-115 -2 -13 6 -21 -2 -37 -36 -11 -25 -16 -47 -11 -52 12 -13 37 9 44 39 6 22
12 25 54 26 26 0 56 2 67 4 30 6 187 25 203 25 10 0 13 -8 10 -25 -3 -14 -2
-25 2 -25 16 0 80 31 80 39 0 21 -57 32 -137 26 -72 -6 -83 -5 -83 9 0 8 -13
22 -30 31 -39 20 -43 19 -34 -7z"/>
  <path d="M180 574 c0 -17 58 -74 76 -74 26 0 37 22 21 44 -18 23 -97 48 -97
30z"/>
  <path d="M610 497 c8 -8 26 -18 38 -22 20 -6 23 -4 20 12 -2 12 -14 19 -38 21
-31 3 -33 2 -20 -11z"/>
  <path d="M490 494 c0 -10 28 -34 39 -34 14 0 14 13 -1 28 -12 12 -38 17 -38 6z"/>
  <path d="M387 460 c-21 -30 -22 -60 -2 -60 16 0 29 37 23 67 -3 16 -5 15 -21
-7z"/>
  <path d="M452 449 c11 -33 69 -59 132 -59 111 0 140 24 66 53 -40 15 -41 15
-35 -4 6 -17 1 -19 -53 -19 -46 0 -66 5 -87 22 -18 14 -26 17 -23 7z"/>
  <path d="M110 421 c0 -18 59 -71 79 -71 16 0 21 6 21 25 0 19 -8 28 -36 40
-41 17 -64 19 -64 6z"/>
  <path d="M579 366 c-5 -4 -138 -15 -191 -16 l-37 0 15 -35 c7 -19 14 -38 14
-44 0 -5 -25 -12 -55 -16 -30 -3 -55 -10 -55 -15 0 -10 67 -23 81 -15 17 11
268 35 366 35 133 0 136 26 5 32 l-54 3 23 28 c18 24 20 31 8 38 -14 8 -111
13 -120 5z m49 -15 c8 -5 12 -21 10 -37 -3 -25 -8 -29 -37 -32 -33 -3 -34 -3
-27 29 8 43 28 57 54 40z m-80 -38 c3 -29 0 -33 -21 -33 -25 0 -37 16 -37 51
0 16 6 20 28 17 22 -2 28 -8 30 -35z m-76 -7 c9 -35 8 -37 -27 -40 -20 -3 -29
2 -36 21 -16 44 -12 55 23 51 26 -2 33 -9 40 -32z"/>
  <path d="M241 303 c-16 -36 -68 -102 -104 -133 -29 -25 -29 -26 -14 -63 17
-39 44 -49 53 -20 4 10 26 64 50 121 24 56 44 107 44 112 0 20 -17 10 -29 -17z"/>
  <path d="M515 210 c-72 -10 -134 -19 -138 -19 -5 -1 -6 -5 -2 -10 3 -6 36 -7
75 -4 l70 6 0 -67 c0 -65 0 -66 -27 -66 l-26 0 23 -25 c47 -50 68 -27 72 82
l3 81 74 7 c70 7 74 8 51 21 -14 7 -29 13 -35 12 -5 0 -68 -9 -140 -18z"/>
</g>
<g id="part-1" class="char-part">
  <path d="M190 561 c0 -11 58 -61 71 -61 22 0 22 34 0 52 -24 19 -71 25 -71 9z"/>
  <path d="M142 386 c41 -40 56 -44 65 -20 8 23 -18 44 -63 50 l-39 6 37 -36z"/>
  <path d="M231 278 c-13 -23 -44 -64 -69 -90 -41 -44 -45 -52 -36 -76 17 -47
39 -39 64 25 13 32 34 80 47 106 31 62 26 90 -6 35z"/>
</g>
<g id="part-2" class="char-part">
  <path d="M490 609 c0 -7 7 -21 17 -31 9 -10 13 -21 10 -25 -4 -3 -44 -8 -89
-9 -81 -3 -82 -4 -100 -36 -22 -43 -22 -58 0 -58 11 0 25 14 34 34 l16 33 129
12 c70 7 143 15 162 18 32 5 34 5 29 -21 -3 -14 -2 -26 2 -26 17 0 80 31 80
39 0 22 -61 33 -140 26 -67 -6 -80 -5 -80 8 0 17 -17 32 -47 41 -15 5 -23 3
-23 -5z"/>
</g>
<g id="part-3" class="char-part">
  <path d="M619 490 c29 -25 54 -26 49 -2 -2 12 -14 18 -38 20 l-35 2 24 -20z"/>
  <path d="M490 493 c0 -13 22 -33 37 -33 7 0 13 7 13 15 0 8 -4 15 -9 15 -5 0
-16 3 -25 6 -9 3 -16 2 -16 -3z"/>
  <path d="M387 460 c-21 -30 -22 -60 -2 -60 16 0 29 37 23 67 -3 16 -5 15 -21
-7z"/>
  <path d="M450 452 c0 -5 11 -19 25 -32 19 -18 40 -25 85 -28 119 -9 169 20 90
51 -40 15 -41 15 -35 -4 6 -17 1 -19 -47 -19 -35 0 -64 7 -85 20 -18 11 -33
16 -33 12z"/>
</g>
<g id="part-4" class="char-part">
  <path d="M533 183 c-9 -3 -13 -27 -13 -70 l0 -66 -35 6 -34 6 33 -30 c19 -16
39 -29 44 -29 19 0 29 32 35 102 5 68 -4 90 -30 81z"/>
</g>
</g>
</svg>