<?xml version="1.0" standalone="no"?>
<!DOCTYPE svg PUBLIC "-//W3C//DTD SVG 20010904//EN"
 "http://www.w3.org/TR/2001/REC-SVG-20010904/DTD/svg10.dtd">
<svg version="1.0" xmlns="http://www.w3.org/2000/svg"
 width="96.000000pt" height="68.000000pt" viewBox="0 0 96.000000 68.000000"
 preserveAspectRatio="xMidYMid meet">
<metadata>
Created by potrace 1.16, written by Peter Selinger 2001-2019
Combined from part_0.svg through part_5.svg with named groups
</metadata>
<g transform="translate(0.000000,68.000000) scale(0.100000,-0.100000)" fill="#000000" stroke="none">
<g id="part-0" class="char-part">
  <path d="M515 570 c-55 -11 -142 -19 -192 -19 -51 -1 -93 -4 -93 -8 0 -4 9
-17 21 -29 11 -12 29 -54 39 -94 21 -82 32 -99 53 -82 8 7 35 15 61 18 l46 7
0 -31 c0 -29 -1 -30 -62 -37 -71 -8 -59 -27 14 -23 40 3 43 1 46 -24 3 -27 1
-28 -40 -28 -70 0 -148 -12 -148 -23 0 -6 57 -7 163 -3 210 8 297 16 297 28 0
7 -55 24 -70 21 -3 0 -40 -4 -82 -8 l-78 -7 0 25 c0 23 4 26 63 32 34 4 66 10
71 13 19 11 -30 20 -81 15 -51 -6 -53 -5 -53 19 0 23 5 27 46 33 29 4 50 3 57
-4 20 -20 47 -12 58 17 7 15 27 60 46 100 19 41 33 75 31 76 -10 8 -90 36
-101 35 -6 -1 -57 -9 -112 -19z m112 -73 c-3 -24 -11 -55 -16 -70 -10 -25 -15
-27 -65 -27 l-54 0 -4 65 c-3 73 -6 70 96 74 l49 1 -6 -43z m-185 -14 c0 -21
2 -51 3 -66 2 -27 1 -28 -48 -25 l-50 3 -18 50 c-27 76 -27 75 46 75 l65 0 2
-37z"/>
  <path d="M546 476 c-21 -45 -20 -48 9 -34 14 6 25 15 25 20 0 4 7 8 15 8 19 0
19 7 1 26 -22 21 -32 17 -50 -20z"/>
  <path d="M361 454 c15 -15 35 -24 45 -22 18 3 17 5 -4 26 -12 12 -32 22 -44
22 -22 0 -22 0 3 -26z"/>
  <path d="M510 153 c0 -15 45 -86 56 -90 35 -12 14 77 -21 91 -22 8 -35 8 -35
-1z"/>
  <path d="M670 152 c0 -15 96 -102 113 -102 28 0 21 46 -10 67 -51 34 -103 52
-103 35z"/>
  <path d="M181 105 c-32 -45 -35 -75 -8 -75 29 0 69 65 60 98 -8 31 -15 28 -52
-23z"/>
  <path d="M369 103 c23 -60 51 -70 51 -19 0 25 -6 39 -22 50 -41 29 -49 20 -29
-31z"/>
</g>
<g id="part-1" class="char-part">
  <path d="M505 564 c-44 -8 -122 -15 -172 -17 -51 -1 -93 -4 -93 -5 0 -2 9 -15
19 -28 10 -13 27 -55 36 -94 17 -69 31 -93 44 -72 8 13 249 20 273 9 14 -7 24
8 62 87 25 52 46 99 46 104 0 13 -63 32 -101 31 -19 -1 -70 -8 -114 -15z m124
-56 c0 -24 -6 -58 -13 -77 l-12 -34 -75 -3 c-40 -2 -98 -6 -127 -9 -52 -6 -52
-6 -66 27 -8 18 -17 49 -21 70 l-7 36 69 7 c37 3 100 10 138 14 123 14 115 17
114 -31z"/>
</g>
<g id="part-2" class="char-part">
  <path d="M456 363 c-3 -4 -6 -19 -6 -34 0 -26 -3 -27 -67 -34 -77 -8 -68 -25
15 -25 48 0 52 -2 52 -24 0 -23 -3 -24 -100 -31 -109 -7 -137 -25 -40 -25 82
0 404 20 409 26 10 9 -17 25 -45 26 -16 1 -64 -2 -106 -6 l-78 -8 0 25 c0 24
4 26 65 32 36 4 65 11 65 15 0 14 -29 19 -80 13 -48 -6 -50 -5 -50 20 0 24
-21 42 -34 30z"/>
</g>
<g id="part-3" class="char-part">
  <path d="M210 153 c0 -6 -6 -18 -13 -25 -48 -50 -62 -102 -26 -96 45 6 80 91
50 121 -8 8 -11 8 -11 0z"/>
  <path d="M510 153 c0 -15 45 -86 56 -90 35 -12 14 77 -21 91 -22 8 -35 8 -35
-1z"/>
  <path d="M712 104 c57 -58 88 -67 88 -25 0 20 -33 48 -83 69 -61 26 -62 12 -5
-44z"/>
  <path d="M368 100 c11 -36 21 -50 34 -50 28 0 25 64 -4 84 -40 29 -48 20 -30
-34z"/>
</g>
</g>
</svg>