<?xml version="1.0" standalone="no"?>
<!DOCTYPE svg PUBLIC "-//W3C//DTD SVG 20010904//EN"
 "http://www.w3.org/TR/2001/REC-SVG-20010904/DTD/svg10.dtd">
<svg version="1.0" xmlns="http://www.w3.org/2000/svg"
 width="96.000000pt" height="68.000000pt" viewBox="0 0 96.000000 68.000000"
 preserveAspectRatio="xMidYMid meet">
<metadata>
Created by potrace 1.16, written by Peter Selinger 2001-2019
Combined from part_0.svg through part_5.svg with named groups
</metadata>
<g transform="translate(0.000000,68.000000) scale(0.100000,-0.100000)" fill="#000000" stroke="none">
<g id="part-0" class="char-part">
  <path d="M566 568 c4 -7 15 -25 25 -39 l19 -27 -31 -6 c-18 -3 -48 -6 -68 -6
-36 0 -36 -1 -15 -18 21 -16 45 -62 58 -108 6 -18 1 -22 -25 -28 -17 -3 -44
-6 -60 -6 -16 0 -29 -5 -29 -11 0 -9 22 -10 75 -6 l75 7 0 -34 c0 -30 -4 -34
-31 -40 -17 -3 -45 -6 -61 -6 -19 0 -28 -4 -25 -12 2 -9 25 -13 63 -13 l59 0
3 -98 c4 -153 40 -110 41 51 l1 62 81 0 c71 0 79 2 65 15 -10 10 -35 15 -80
15 -69 0 -72 3 -56 44 9 25 12 26 100 26 52 0 90 4 90 10 0 16 -47 23 -110 17
l-59 -5 31 54 c24 44 28 57 18 69 -10 13 -8 15 15 15 17 0 25 4 22 13 -3 8
-23 11 -66 9 -55 -3 -61 -1 -61 17 0 11 -10 27 -22 35 -27 19 -52 21 -42 4z
m98 -97 c7 -10 -3 -94 -13 -109 -3 -6 -18 -13 -32 -17 -24 -6 -27 -3 -33 28
-4 19 -15 46 -26 60 -11 14 -20 28 -20 31 0 2 21 7 48 9 26 2 52 4 59 5 6 1
14 -2 17 -7z"/>
  <path d="M345 530 c-16 -4 -59 -8 -94 -9 l-63 -1 6 -34 c11 -57 -10 -163 -49
-245 -20 -42 -43 -83 -51 -92 -9 -10 -11 -19 -7 -22 13 -8 102 82 109 109 9
34 21 30 29 -8 12 -58 16 -68 31 -68 8 0 14 5 14 10 0 6 21 10 48 10 56 0 94
9 87 20 -3 5 2 27 11 50 23 56 12 62 -103 54 l-92 -7 11 41 10 41 67 6 c92 8
113 14 108 28 -2 7 6 33 19 59 23 46 24 48 5 58 -22 11 -51 11 -96 0z m35 -52
c0 -38 -16 -51 -72 -58 -29 -4 -54 -6 -56 -5 -2 2 0 19 3 38 7 38 17 43 88 46
32 1 37 -2 37 -21z m-7 -225 c-3 -21 -7 -40 -9 -42 -2 -2 -26 -6 -52 -9 -45
-4 -50 -2 -55 19 -16 58 -8 64 85 68 l37 1 -6 -37z"/>
</g>
<g id="part-1" class="char-part">
  <path d="M335 523 c-33 -7 -78 -12 -101 -10 l-41 4 5 -49 c7 -73 -15 -164 -62
-255 -42 -80 -38 -94 11 -41 25 27 83 145 83 170 0 36 12 48 49 48 63 0 141
12 135 21 -3 5 4 30 16 56 29 66 6 80 -95 56z m47 -54 c-2 -19 -7 -37 -11 -41
-4 -5 -34 -11 -67 -14 l-61 -7 6 44 6 44 55 6 c74 8 75 7 72 -32z"/>
</g>
<g id="part-2" class="char-part">
  <path d="M275 301 c-57 -6 -60 -7 -58 -32 3 -50 24 -109 38 -109 8 0 15 5 15
10 0 6 24 10 53 11 42 0 112 16 85 18 -4 1 0 20 8 43 25 71 18 74 -141 59z
m95 -50 c0 -35 -3 -39 -31 -45 -44 -9 -79 -7 -79 3 0 5 -3 22 -6 39 -7 33 1
37 84 41 31 1 32 0 32 -38z"/>
</g>
<g id="part-3" class="char-part">
  <path d="M575 551 c8 -17 20 -33 27 -37 18 -11 -19 -22 -74 -23 -50 -1 -65
-15 -24 -23 24 -5 246 19 254 27 2 2 1 9 -3 15 -5 9 -26 10 -66 6 -54 -6 -59
-5 -59 13 0 20 -34 51 -57 51 -11 0 -10 -6 2 -29z"/>
</g>
<g id="part-4" class="char-part">
  <path d="M666 427 c-8 -64 -14 -74 -47 -82 -24 -6 -27 -3 -33 29 -7 38 -49 96
-61 84 -4 -4 4 -31 18 -61 l25 -55 -37 -6 c-20 -3 -48 -6 -63 -6 -16 0 -28 -5
-28 -11 0 -8 20 -10 68 -5 37 3 127 9 200 12 72 4 132 11 132 15 0 15 -50 22
-112 15 l-60 -7 31 54 c32 55 29 77 -10 77 -13 0 -18 -13 -23 -53z"/>
</g>
<g id="part-5" class="char-part">
  <path d="M612 311 c-18 -11 -17 -266 0 -277 4 -3 8 3 9 13 0 10 2 30 4 46 2
16 -1 27 -8 27 -7 0 -6 4 3 10 9 6 15 26 15 55 0 53 5 55 88 51 31 -2 57 1 57
5 0 10 -9 12 -70 11 -25 -1 -55 4 -68 10 -20 10 -21 13 -7 28 13 15 14 18 2
23 -8 3 -19 2 -25 -2z m15 -133 c-3 -7 -5 -2 -5 12 0 14 2 19 5 13 2 -7 2 -19
0 -25z"/>
  <path d="M486 225 c21 -14 94 -11 94 4 0 12 -44 10 -59 -2 -11 -9 -15 -9 -18
1 -3 6 -12 12 -21 12 -13 0 -12 -3 4 -15z"/>
</g>
</g>
</svg>