<?xml version="1.0" standalone="no"?>
<!DOCTYPE svg PUBLIC "-//W3C//DTD SVG 20010904//EN"
 "http://www.w3.org/TR/2001/REC-SVG-20010904/DTD/svg10.dtd">
<svg version="1.0" xmlns="http://www.w3.org/2000/svg"
 width="96.000000pt" height="68.000000pt" viewBox="0 0 96.000000 68.000000"
 preserveAspectRatio="xMidYMid meet">
<metadata>
Created by potrace 1.16, written by Peter Selinger 2001-2019
Combined from part_0.svg through part_5.svg with named groups
</metadata>
<g transform="translate(0.000000,68.000000) scale(0.100000,-0.100000)" fill="#000000" stroke="none">
<g id="part-0" class="char-part">
  <path d="M575 544 c-49 -7 -111 -13 -138 -12 l-48 2 -3 -90 c-4 -129 -42 -230
-123 -330 -18 -23 -33 -44 -33 -48 0 -15 95 77 122 117 l28 42 0 -55 c0 -70 8
-100 27 -100 12 0 14 16 12 85 -2 46 -1 86 1 88 3 3 33 7 68 11 l63 7 -1 -78
c-2 -105 -2 -103 15 -103 16 0 16 1 16 111 l0 77 57 4 c31 3 68 2 82 -2 23 -6
25 -11 25 -61 0 -30 -4 -67 -8 -83 -7 -26 -11 -28 -42 -23 -41 7 -42 5 -13
-33 51 -70 99 -22 117 115 11 88 11 90 -11 108 -14 12 -32 17 -48 14 -14 -3
-53 -9 -88 -13 l-64 -7 4 29 c3 28 5 29 61 32 55 3 74 16 41 29 -21 8 -254
-28 -254 -39 0 -4 25 -8 55 -8 51 0 55 -2 55 -24 0 -21 -6 -24 -52 -30 -100
-11 -101 -11 -94 32 18 97 25 112 54 111 15 0 76 2 135 7 90 6 107 10 102 22
-3 9 6 27 22 44 23 25 25 30 13 42 -23 23 -59 25 -155 10z m85 -36 c-1 -46
-20 -56 -123 -64 l-97 -7 0 32 c0 37 2 38 95 50 118 15 125 14 125 -11z"/>
  <path d="M190 520 c0 -13 79 -70 97 -70 7 0 13 2 13 4 0 2 3 11 6 20 4 10 -5
22 -28 36 -34 21 -88 27 -88 10z"/>
  <path d="M120 395 c0 -3 17 -20 38 -40 40 -37 66 -44 76 -20 8 22 -2 41 -30
54 -25 11 -84 15 -84 6z"/>
  <path d="M231 253 c-24 -30 -59 -64 -77 -75 -37 -22 -40 -33 -22 -73 17 -38
40 -30 69 23 14 26 42 77 63 115 47 83 29 89 -33 10z"/>
  <path d="M639 228 c-20 -27 -20 -31 -5 -25 10 4 29 10 42 13 27 7 30 14 12 32
-18 18 -24 15 -49 -20z"/>
  <path d="M450 221 c0 -9 33 -21 59 -21 11 0 11 3 1 15 -13 16 -60 21 -60 6z"/>
  <path d="M626 172 c-3 -6 10 -17 29 -26 34 -16 55 -15 55 4 0 8 -9 12 -62 26
-9 3 -19 1 -22 -4z"/>
  <path d="M474 156 c-34 -12 -44 -29 -20 -34 16 -3 65 27 66 41 0 9 -6 8 -46
-7z"/>
</g>
<g id="part-1" class="char-part">
  <path d="M219 496 c38 -40 81 -49 81 -18 0 21 -28 38 -80 47 l-35 7 34 -36z"/>
  <path d="M152 365 c43 -40 78 -46 78 -14 0 22 -51 49 -92 49 -21 -1 -20 -3 14
-35z"/>
  <path d="M227 240 c-31 -38 -66 -72 -77 -75 -24 -8 -27 -47 -4 -69 8 -9 17
-16 19 -16 2 0 17 25 34 55 17 30 45 80 62 111 17 30 29 57 27 59 -2 3 -30
-26 -61 -65z"/>
</g>
<g id="part-2" class="char-part">
  <path d="M565 544 c-49 -8 -110 -12 -135 -9 l-45 5 4 -56 c7 -119 -39 -254
-125 -366 -48 -61 -48 -61 -15 -42 75 43 139 148 167 274 l16 70 43 0 c23 0
83 3 134 7 79 5 91 8 86 23 -3 10 5 26 20 40 32 30 32 44 0 58 -30 14 -33 14
-150 -4z m91 -46 c-3 -17 -8 -34 -11 -37 -8 -7 -103 -19 -161 -20 -50 -1 -51
-1 -46 29 5 33 14 38 104 49 120 16 121 15 114 -21z"/>
</g>
<g id="part-3" class="char-part">
  <path d="M533 363 c-106 -17 -127 -38 -30 -30 183 16 208 20 204 31 -5 16 -70
16 -174 -1z"/>
</g>
<g id="part-4" class="char-part">
  <path d="M695 301 c-22 -5 -100 -14 -172 -21 l-133 -13 -5 -31 c-7 -36 -1
-154 8 -162 17 -17 27 15 27 90 l0 82 138 17 c75 9 149 14 165 10 26 -5 27 -8
26 -62 -2 -94 -8 -106 -57 -104 l-42 2 28 -35 c16 -20 36 -34 49 -34 29 0 63
45 63 85 0 17 5 58 11 90 8 46 8 60 -3 71 -18 18 -56 23 -103 15z"/>
</g>
</g>
</svg>