<?xml version="1.0" standalone="no"?>
<!DOCTYPE svg PUBLIC "-//W3C//DTD SVG 20010904//EN"
 "http://www.w3.org/TR/2001/REC-SVG-20010904/DTD/svg10.dtd">
<svg version="1.0" xmlns="http://www.w3.org/2000/svg"
 width="96.000000pt" height="68.000000pt" viewBox="0 0 96.000000 68.000000"
 preserveAspectRatio="xMidYMid meet">
<metadata>
Created by potrace 1.16, written by Peter Selinger 2001-2019
Combined from part_0.svg through part_5.svg with named groups
</metadata>
<g transform="translate(0.000000,68.000000) scale(0.100000,-0.100000)" fill="#000000" stroke="none">
<g id="part-0" class="char-part">
  <path d="M615 446 c0 -74 3 -138 7 -142 4 -4 14 -1 23 6 12 10 15 37 15 135 0
123 -3 135 -38 135 -4 0 -7 -60 -7 -134z"/>
  <path d="M170 549 c0 -19 59 -71 77 -67 47 9 4 78 -49 78 -15 0 -28 -5 -28
-11z"/>
  <path d="M380 520 c-14 -4 -38 -8 -55 -9 l-30 -1 1 -154 c1 -155 6 -185 27
-168 7 5 26 13 44 17 26 5 34 2 45 -14 14 -23 33 -27 44 -9 4 6 8 83 8 171 1
139 -1 160 -16 168 -19 10 -33 10 -68 -1z m45 -56 c3 -20 4 -38 2 -41 -3 -2
-24 -5 -48 -6 l-44 -2 4 35 c4 47 7 50 45 50 31 0 34 -3 41 -36z m-2 -99 c-3
-35 -4 -36 -51 -42 l-40 -5 1 33 c2 31 6 35 37 40 49 9 55 6 53 -26z m-2 -67
c0 -7 2 -23 5 -36 4 -24 0 -27 -58 -37 l-38 -6 0 40 c0 36 3 40 28 44 52 8 62
7 63 -5z"/>
  <path d="M720 453 c0 -15 80 -93 95 -93 18 0 25 21 13 42 -13 26 -108 71 -108
51z"/>
  <path d="M531 427 c-6 -6 -11 -17 -11 -24 0 -8 -7 -28 -16 -44 -8 -17 -12 -34
-9 -37 10 -10 75 68 75 89 0 21 -24 31 -39 16z"/>
  <path d="M100 410 c0 -12 56 -70 68 -70 5 0 15 6 21 14 15 17 1 50 -25 60 -24
9 -64 7 -64 -4z"/>
  <path d="M710 331 c0 -83 -126 -220 -253 -275 -24 -11 -27 -15 -12 -15 29 -1
121 44 177 86 45 35 158 178 158 201 0 13 -32 32 -54 32 -11 0 -16 -9 -16 -29z"/>
  <path d="M210 264 c-19 -30 -47 -64 -62 -75 -16 -11 -28 -25 -28 -31 0 -20 33
-79 43 -75 9 3 97 209 97 228 0 21 -17 5 -50 -47z"/>
</g>
<g id="part-1" class="char-part">
  <path d="M188 533 c28 -40 49 -56 62 -48 27 17 -4 58 -54 71 l-30 7 22 -30z"/>
  <path d="M106 408 c16 -30 49 -58 66 -58 30 0 22 37 -12 55 -36 18 -64 20 -54
3z"/>
  <path d="M218 267 c-15 -23 -40 -55 -57 -71 -17 -17 -31 -39 -31 -50 1 -28 28
-63 39 -50 12 14 82 195 79 205 -2 5 -15 -10 -30 -34z"/>
</g>
<g id="part-2" class="char-part">
  <path d="M375 520 c-11 -5 -35 -9 -54 -9 -30 -1 -33 -4 -27 -23 3 -13 6 -65 6
-115 0 -74 3 -93 14 -93 8 0 16 4 18 8 5 13 88 24 88 12 0 -5 8 -10 19 -10 16
0 19 11 23 108 3 64 1 112 -5 120 -11 14 -52 15 -82 2z m48 -57 c4 -20 5 -38
4 -40 -2 -1 -22 -5 -45 -9 l-42 -7 0 41 c0 42 8 50 51 51 23 1 27 -4 32 -36z
m7 -92 c0 -35 -3 -37 -53 -46 l-37 -7 0 35 c0 34 2 36 38 40 20 2 40 4 45 5 4
1 7 -11 7 -27z"/>
</g>
<g id="part-3" class="char-part">
  <path d="M420 260 c0 -24 -4 -30 -22 -30 -13 0 -33 -3 -45 -6 -20 -6 -23 -3
-23 25 0 33 -23 44 -34 15 -16 -42 2 -96 26 -77 7 6 27 14 45 18 26 5 34 2 45
-14 17 -28 36 -26 49 3 17 36 3 96 -21 96 -16 0 -20 -7 -20 -30z"/>
</g>
<g id="part-4" class="char-part">
  <path d="M710 328 c0 -45 -62 -142 -121 -191 -25 -19 -71 -49 -103 -66 -65
-35 -53 -42 19 -11 84 36 152 89 203 158 83 113 85 124 30 137 -27 7 -28 5
-28 -27z"/>
</g>
</g>
</svg>