<?xml version="1.0" standalone="no"?>
<!DOCTYPE svg PUBLIC "-//W3C//DTD SVG 20010904//EN"
 "http://www.w3.org/TR/2001/REC-SVG-20010904/DTD/svg10.dtd">
<svg version="1.0" xmlns="http://www.w3.org/2000/svg"
 width="96.000000pt" height="68.000000pt" viewBox="0 0 96.000000 68.000000"
 preserveAspectRatio="xMidYMid meet">
<metadata>
Created by potrace 1.16, written by Peter Selinger 2001-2019
Combined from part_0.svg through part_5.svg with named groups
</metadata>
<g transform="translate(0.000000,68.000000) scale(0.100000,-0.100000)" fill="#000000" stroke="none">
<g id="part-0" class="char-part">
  <path d="M576 573 c5 -10 10 -60 12 -110 4 -104 9 -97 -78 -93 l-35 1 3 -83
c3 -53 -2 -104 -12 -143 -15 -57 -13 -105 4 -105 17 0 31 31 41 89 l11 61 68
0 c37 0 82 3 99 6 31 6 31 6 31 -35 0 -62 -15 -84 -51 -76 -38 9 -36 -3 7 -39
31 -26 37 -28 59 -16 31 17 37 49 34 173 -2 56 0 117 5 135 7 30 6 33 -27 47
-26 11 -43 12 -68 5 -19 -6 -36 -10 -39 -10 -3 0 -3 44 -2 99 4 96 3 98 -20
104 -40 11 -51 9 -42 -10z m134 -222 c17 -33 12 -37 -67 -49 -108 -17 -123
-16 -123 7 0 29 19 38 95 49 39 5 73 10 77 11 4 0 12 -8 18 -18z m10 -95 c0
-14 -3 -27 -7 -29 -5 -3 -50 -8 -100 -11 l-93 -8 0 25 c0 22 6 25 68 34 118
18 132 17 132 -11z"/>
  <path d="M234 549 c-3 -6 -1 -16 5 -22 6 -6 11 -35 11 -64 l0 -53 -53 0 c-30
0 -56 -3 -59 -6 -4 -3 0 -18 7 -32 7 -15 17 -45 22 -67 8 -39 9 -40 46 -37
l37 3 0 -45 0 -44 -60 -7 c-66 -8 -81 -18 -51 -34 31 -17 61 -12 146 24 l80
34 26 -25 c14 -13 28 -21 32 -17 22 21 -9 76 -51 88 -19 5 -22 3 -20 -17 2
-17 -3 -24 -19 -26 -21 -3 -23 1 -23 37 0 40 0 40 43 43 29 2 41 7 39 17 -1 7
9 29 24 48 14 18 23 41 20 49 -8 21 -50 34 -91 27 l-37 -6 7 44 c3 24 8 51 11
60 8 28 -76 53 -92 28z m126 -168 c0 -38 -15 -71 -31 -71 -15 0 -19 8 -19 40
0 36 3 40 25 40 14 0 25 -4 25 -9z m-110 -41 c0 -33 -3 -40 -20 -40 -16 0 -20
7 -20 33 0 36 6 47 27 47 9 0 13 -13 13 -40z"/>
  <path d="M735 503 c-11 -21 -25 -42 -32 -46 -7 -4 -13 -12 -13 -18 0 -5 27 4
60 21 63 32 71 44 43 66 -28 21 -37 17 -58 -23z"/>
  <path d="M456 478 c14 -26 48 -58 60 -58 22 0 24 30 2 50 -24 22 -74 28 -62 8z"/>
</g>
<g id="part-1" class="char-part">
  <path d="M245 538 c4 -13 9 -46 12 -74 5 -47 3 -52 -18 -57 -13 -4 -40 -7 -60
-7 l-37 0 14 -37 c7 -21 13 -47 14 -58 1 -36 15 -49 37 -34 33 20 53 5 53 -41
0 -34 3 -41 18 -38 12 2 18 15 20 44 l3 42 49 6 c38 5 48 10 43 21 -3 9 7 31
21 50 l26 34 -22 15 c-12 9 -42 16 -67 16 l-44 0 7 59 7 59 -32 11 c-46 16
-52 14 -44 -11z m114 -148 c4 0 5 -17 2 -37 -5 -32 -11 -38 -34 -41 -23 -3
-27 0 -27 23 0 37 18 68 37 61 8 -3 18 -6 22 -6z m-99 -50 c0 -36 -3 -40 -25
-40 -18 0 -26 7 -31 25 -9 36 2 55 31 55 23 0 25 -4 25 -40z"/>
</g>
<g id="part-2" class="char-part">
  <path d="M354 234 c13 -34 51 -84 64 -84 18 0 15 55 -5 72 -10 9 -29 19 -42
23 -21 6 -23 5 -17 -11z"/>
</g>
<g id="part-3" class="char-part">
  <path d="M576 573 c4 -10 9 -57 12 -105 3 -76 6 -88 22 -88 21 0 28 31 31 129
3 68 -4 78 -55 80 -14 1 -16 -3 -10 -16z"/>
  <path d="M724 490 c-15 -27 -32 -50 -37 -50 -6 0 -8 -3 -5 -6 8 -7 128 54 128
65 0 11 -34 41 -48 41 -6 0 -23 -22 -38 -50z"/>
  <path d="M450 489 c0 -5 13 -23 28 -41 19 -21 34 -29 45 -25 20 8 21 17 5 40
-15 19 -78 41 -78 26z"/>
</g>
<g id="part-4" class="char-part">
  <path d="M655 385 c-27 -7 -81 -14 -118 -14 -66 -1 -68 -2 -60 -23 12 -35 7
-137 -10 -203 -17 -63 -14 -105 8 -105 15 0 30 41 40 107 l7 43 52 0 c29 0 74
3 100 6 l46 7 0 -42 c0 -63 -14 -84 -53 -76 l-32 7 34 -36 c40 -42 51 -44 77
-15 17 19 19 38 19 153 0 72 4 141 8 153 7 18 3 25 -22 37 -34 18 -29 18 -96
1z m59 -31 c13 -35 6 -41 -63 -53 -39 -6 -84 -11 -102 -11 -29 0 -31 2 -24 27
4 16 7 29 9 30 1 1 102 15 162 22 7 0 15 -6 18 -15z m6 -104 c0 -27 -3 -30
-32 -30 -18 0 -63 -3 -100 -7 -68 -6 -68 -6 -68 19 0 24 5 26 68 35 37 6 82
11 100 12 29 1 32 -2 32 -29z"/>
</g>
</g>
</svg>