<?xml version="1.0" standalone="no"?>
<!DOCTYPE svg PUBLIC "-//W3C//DTD SVG 20010904//EN"
 "http://www.w3.org/TR/2001/REC-SVG-20010904/DTD/svg10.dtd">
<svg version="1.0" xmlns="http://www.w3.org/2000/svg"
 width="96.000000pt" height="68.000000pt" viewBox="0 0 96.000000 68.000000"
 preserveAspectRatio="xMidYMid meet">
<metadata>
Created by potrace 1.16, written by Peter Selinger 2001-2019
Combined from part_0.svg through part_5.svg with named groups
</metadata>
<g transform="translate(0.000000,68.000000) scale(0.100000,-0.100000)" fill="#000000" stroke="none">
<g id="part-0" class="char-part">
  <path d="M556 606 c-10 -18 -31 -48 -46 -65 -16 -17 -24 -31 -18 -31 16 0 81
33 102 52 11 10 28 20 38 24 26 8 22 29 -7 42 -39 18 -49 15 -69 -22z"/>
  <path d="M300 598 c0 -23 75 -90 96 -86 31 6 24 49 -11 69 -45 26 -85 34 -85
17z"/>
  <path d="M565 500 c-22 -5 -89 -13 -150 -19 -132 -14 -155 -18 -155 -31 0 -6
38 -10 90 -10 l90 0 0 -34 c0 -30 -4 -34 -31 -40 -17 -3 -56 -6 -85 -6 -30 0
-54 -4 -54 -10 0 -6 35 -10 85 -10 l85 0 0 -34 c0 -32 -3 -35 -37 -40 -21 -3
-94 -8 -161 -12 -92 -5 -121 -9 -112 -18 13 -13 85 -13 195 0 120 14 114 20
117 -103 2 -72 7 -108 15 -110 16 -6 22 22 31 135 l7 93 90 3 c50 2 123 4 163
5 77 1 92 13 40 30 -23 7 -59 8 -118 1 -47 -5 -106 -10 -132 -10 -48 0 -48 0
-48 34 l0 33 93 9 c118 11 114 30 -6 27 l-87 -3 5 27 c2 15 0 30 -6 33 -5 4
32 12 82 18 95 12 126 25 99 42 -17 11 -48 11 -105 0z"/>
</g>
<g id="part-1" class="char-part">
  <path d="M569 618 c-6 -13 -27 -42 -46 -65 -19 -24 -30 -43 -25 -43 4 0 41 21
81 46 59 38 70 49 59 59 -27 26 -56 27 -69 3z"/>
  <path d="M310 592 c0 -13 74 -82 88 -82 7 0 12 13 12 29 0 23 -7 32 -34 45
-37 17 -66 21 -66 8z"/>
  <path d="M585 499 c-25 -7 -281 -39 -315 -39 -6 0 -8 -4 -5 -10 9 -14 98 -12
254 6 120 14 164 25 150 37 -12 11 -57 14 -84 6z"/>
</g>
<g id="part-2" class="char-part">
  <path d="M437 412 c5 -39 5 -39 -33 -45 -22 -4 -63 -7 -92 -7 -33 0 -51 -4
-47 -10 3 -5 44 -10 91 -10 l84 0 0 -34 c0 -32 -1 -34 -47 -39 -27 -4 -99 -9
-160 -13 -62 -4 -113 -11 -113 -15 0 -16 73 -21 140 -10 38 6 94 11 124 11
l56 0 0 -109 c0 -172 36 -152 47 25 l6 92 163 7 c90 4 164 11 164 15 0 21 -70
31 -145 21 -42 -6 -101 -11 -131 -11 l-54 0 0 34 0 34 93 8 c119 11 117 30 -2
26 l-89 -2 2 32 c1 30 -2 33 -31 36 -31 3 -31 3 -26 -36z"/>
</g>
</g>
</svg>