<?xml version="1.0" standalone="no"?>
<!DOCTYPE svg PUBLIC "-//W3C//DTD SVG 20010904//EN"
 "http://www.w3.org/TR/2001/REC-SVG-20010904/DTD/svg10.dtd">
<svg version="1.0" xmlns="http://www.w3.org/2000/svg"
 width="96.000000pt" height="68.000000pt" viewBox="0 0 96.000000 68.000000"
 preserveAspectRatio="xMidYMid meet">
<metadata>
Created by potrace 1.16, written by Peter Selinger 2001-2019
Combined from part_0.svg through part_5.svg with named groups
</metadata>
<g transform="translate(0.000000,68.000000) scale(0.100000,-0.100000)" fill="#000000" stroke="none">
<g id="part-0" class="char-part">
  <path d="M407 581 l5 -39 -56 -7 c-31 -4 -56 -11 -56 -15 0 -13 50 -22 81 -15
24 6 29 3 29 -13 0 -26 -19 -32 -123 -39 -48 -3 -90 -10 -93 -15 -11 -18 31
-20 121 -6 52 8 95 11 95 6 0 -9 -36 -29 -135 -75 -38 -18 -64 -33 -58 -33 17
0 128 38 162 56 25 13 26 12 36 -17 14 -42 30 -49 111 -49 87 0 136 9 131 24
-3 7 -37 10 -105 7 -62 -2 -102 0 -102 6 0 6 33 19 73 30 74 20 84 28 56 46
-12 7 -23 4 -45 -11 -39 -29 -84 -39 -84 -20 0 8 9 23 21 33 17 16 41 20 142
23 67 2 124 6 127 9 16 15 -35 23 -110 18 l-85 -5 40 35 c22 19 43 35 48 35
22 0 -10 50 -33 50 -6 0 -15 -10 -21 -22 -8 -19 -18 -23 -59 -23 -47 0 -49 1
-52 30 -3 26 -8 30 -35 33 -31 3 -31 3 -26 -37z m113 -65 c0 -3 -13 -14 -30
-26 -30 -21 -30 -21 -30 -1 0 18 14 27 48 30 6 0 12 -1 12 -3z"/>
  <path d="M422 286 c-103 -11 -129 -26 -45 -26 24 0 43 -4 43 -9 0 -12 -49 -47
-84 -61 -14 -5 -26 -17 -26 -26 0 -14 7 -15 35 -10 19 3 51 9 70 12 34 6 35 6
35 -25 0 -31 0 -31 -55 -31 -73 0 -71 -18 3 -22 50 -3 57 -6 58 -24 1 -18 -6
-23 -44 -28 -25 -3 -82 -6 -128 -6 -47 0 -84 -4 -84 -10 0 -17 64 -21 175 -11
61 6 172 11 248 11 107 0 138 3 134 13 -3 9 -37 12 -130 11 l-127 -1 0 28 c0
28 1 29 54 29 30 0 57 4 61 9 9 15 -32 23 -76 16 -36 -6 -40 -5 -38 11 2 11 0
25 -4 32 -5 6 -6 12 -4 12 2 0 28 5 57 10 45 9 55 8 65 -7 15 -20 47 -11 39
12 -7 18 -55 45 -81 45 -15 0 -16 -2 -3 -10 8 -5 11 -12 7 -16 -9 -9 -103 -22
-162 -23 l-40 0 48 25 c26 13 47 29 47 34 0 9 19 13 113 25 26 4 45 10 42 16
-7 11 -67 10 -203 -5z"/>
</g>
<g id="part-1" class="char-part">
  <path d="M408 575 l5 -45 -52 0 c-28 0 -51 -4 -51 -10 0 -5 23 -10 50 -10 43
0 50 -3 50 -20 0 -30 36 -26 44 5 5 20 12 25 40 25 18 0 39 7 47 16 12 14 8
15 -32 13 -42 -3 -44 -2 -44 24 0 29 -18 47 -46 47 -14 0 -16 -8 -11 -45z"/>
</g>
<g id="part-2" class="char-part">
  <path d="M521 414 c-39 -27 -76 -33 -67 -9 6 18 1 19 -25 5 -24 -13 -25 -52
-1 -73 30 -28 238 -21 229 7 -3 7 -37 10 -105 7 -112 -4 -132 8 -49 28 28 8
63 18 77 23 24 9 24 10 6 24 -24 17 -24 18 -65 -12z"/>
</g>
<g id="part-3" class="char-part">
  <path d="M423 287 c-67 -6 -101 -13 -96 -20 4 -6 47 -8 127 -3 136 7 178 14
170 27 -6 11 -61 10 -201 -4z"/>
</g>
<g id="part-4" class="char-part">
  <path d="M408 233 c-11 -12 -41 -30 -65 -39 -44 -17 -54 -30 -30 -40 8 -3 74
6 148 20 115 20 136 22 150 10 20 -18 35 -18 43 1 6 18 -47 55 -79 55 -16 0
-17 -2 -5 -10 8 -5 11 -12 7 -16 -10 -10 -100 -23 -162 -23 l-50 0 53 24 c53
24 69 45 32 42 -11 -1 -30 -11 -42 -24z"/>
</g>
<g id="part-5" class="char-part">
  <path d="M460 141 c0 -17 -5 -31 -12 -31 -6 0 -4 -8 6 -19 24 -27 10 -48 -42
-65 l-47 -15 40 6 c22 3 61 7 87 7 25 1 50 5 55 9 4 5 -3 8 -17 6 -35 -5 -48
6 -43 35 4 20 13 25 61 34 l57 10 -55 -1 c-52 -2 -55 -1 -55 23 0 15 -7 26
-17 28 -14 3 -18 -3 -18 -27z"/>
  <path d="M410 100 c0 -5 5 -10 10 -10 6 0 10 5 10 10 0 6 -4 10 -10 10 -5 0
-10 -4 -10 -10z"/>
  <path d="M358 93 c7 -3 16 -2 19 1 4 3 -2 6 -13 5 -11 0 -14 -3 -6 -6z"/>
  <path d="M593 43 c-58 -7 -35 -18 43 -21 81 -3 118 4 109 19 -6 9 -87 10 -152
2z"/>
  <path d="M260 21 c-24 -4 -31 -9 -22 -15 7 -4 25 -3 40 3 15 5 38 12 52 14 21
4 20 4 -5 4 -16 0 -46 -2 -65 -6z"/>
</g>
</g>
</svg>