<?xml version="1.0" standalone="no"?>
<!DOCTYPE svg PUBLIC "-//W3C//DTD SVG 20010904//EN"
 "http://www.w3.org/TR/2001/REC-SVG-20010904/DTD/svg10.dtd">
<svg version="1.0" xmlns="http://www.w3.org/2000/svg"
 width="96.000000pt" height="68.000000pt" viewBox="0 0 96.000000 68.000000"
 preserveAspectRatio="xMidYMid meet">
<metadata>
Created by potrace 1.16, written by Peter Selinger 2001-2019
Combined from part_0.svg through part_5.svg with named groups
</metadata>
<g transform="translate(0.000000,68.000000) scale(0.100000,-0.100000)" fill="#000000" stroke="none">
<g id="part-0" class="char-part">
  <path d="M530 602 c-5 -22 -24 -58 -41 -81 -17 -24 -28 -48 -26 -55 4 -9 -2
-11 -18 -8 -22 4 -24 2 -18 -31 l5 -35 -48 -9 -49 -8 50 -5 c47 -5 50 -7 47
-30 -2 -14 -6 -27 -9 -30 -2 -2 -62 -9 -134 -14 -71 -5 -129 -13 -129 -17 0
-17 42 -19 146 -8 62 6 118 9 125 7 15 -5 -143 -86 -228 -118 -35 -12 -63 -25
-63 -27 0 -11 78 10 144 38 37 16 72 29 77 29 6 0 9 -33 7 -75 -1 -41 2 -79 8
-84 5 -4 42 -4 83 2 71 11 75 10 89 -11 16 -25 34 -28 50 -9 6 6 12 54 13 105
3 83 1 94 -17 107 -18 12 -29 12 -85 -1 -97 -23 -110 -14 -39 25 58 31 68 33
195 40 74 4 137 10 141 14 4 3 -5 12 -19 18 -19 9 -48 9 -107 2 -45 -5 -84 -5
-86 -1 -3 4 15 20 40 35 26 15 46 30 46 33 0 6 -54 40 -64 40 -3 0 -6 -6 -6
-14 0 -20 -96 -106 -120 -106 -15 0 -20 6 -20 24 0 22 6 26 45 32 54 8 56 30
2 27 -33 -2 -35 0 -39 32 -3 29 1 37 40 69 38 30 53 36 96 37 117 2 126 3 126
20 0 25 -28 31 -88 18 -59 -12 -72 -8 -51 17 11 14 11 18 -6 30 -34 25 -53 17
-65 -24z m27 -394 c5 -7 10 -23 11 -35 1 -20 -4 -23 -32 -23 -18 0 -53 -3 -78
-6 -39 -6 -46 -4 -50 14 -8 30 3 40 57 50 71 14 81 14 92 0z m11 -106 c4 -27
-2 -29 -95 -36 l-73 -5 0 29 c0 27 3 29 48 33 94 8 117 4 120 -21z"/>
  <path d="M291 576 c-10 -25 -38 -65 -61 -90 -55 -60 -29 -63 46 -6 45 34 60
40 103 40 59 0 105 15 95 31 -4 8 -26 10 -65 5 -49 -5 -57 -3 -53 9 4 8 11 12
18 8 6 -3 0 6 -13 20 -34 37 -47 34 -70 -17z"/>
  <path d="M576 511 c-7 -11 50 -61 70 -61 8 0 14 10 14 25 0 18 -7 28 -26 35
-32 12 -51 13 -58 1z"/>
  <path d="M320 491 c0 -11 49 -51 62 -51 19 0 21 33 3 46 -21 16 -65 19 -65 5z"/>
</g>
<g id="part-1" class="char-part">
  <path d="M540 617 c0 -13 -18 -52 -41 -87 -40 -62 -40 -63 -12 -45 15 10 37
26 48 35 14 13 46 20 108 25 48 4 90 11 93 16 10 17 -29 22 -90 12 -34 -6 -62
-9 -64 -8 -2 2 2 13 8 26 11 19 10 25 -6 36 -27 20 -44 16 -44 -10z"/>
  <path d="M295 573 c-9 -21 -34 -59 -56 -85 -49 -58 -38 -61 28 -10 42 34 58
40 118 46 71 7 102 20 73 31 -8 3 -36 1 -63 -5 -55 -12 -61 -10 -43 19 11 18
11 23 -2 31 -27 17 -39 11 -55 -27z"/>
  <path d="M580 501 c0 -14 41 -41 62 -41 24 0 23 27 -1 40 -25 13 -61 13 -61 1z"/>
  <path d="M329 481 c13 -23 49 -37 62 -24 12 12 -7 28 -44 37 -26 6 -27 5 -18
-13z"/>
</g>
<g id="part-2" class="char-part">
  <path d="M427 426 l5 -34 -53 -10 -54 -10 53 -1 c51 -1 52 -2 52 -31 0 -23 4
-30 20 -30 15 0 20 7 20 30 0 26 4 30 38 35 55 10 64 14 56 26 -4 7 -21 9 -46
5 -39 -6 -40 -6 -36 18 5 26 -7 36 -42 36 -16 0 -18 -6 -13 -34z"/>
</g>
<g id="part-3" class="char-part">
  <path d="M610 426 c0 -21 -95 -103 -127 -109 -16 -4 -94 -12 -175 -19 -82 -6
-148 -15 -148 -20 0 -17 54 -19 155 -8 58 7 108 10 111 7 9 -9 -81 -57 -185
-100 -109 -45 -122 -52 -68 -43 59 11 206 71 287 117 l73 42 131 5 c145 5 179
13 131 32 -21 9 -55 10 -117 4 -49 -5 -88 -6 -88 -2 0 4 18 18 40 30 46 26 51
50 15 66 -33 15 -35 15 -35 -2z"/>
</g>
<g id="part-4" class="char-part">
  <path d="M510 234 c-25 -7 -59 -13 -76 -13 -52 -2 -63 -18 -66 -98 -1 -40 2
-77 7 -82 6 -6 25 -7 50 -1 68 16 113 12 125 -10 14 -25 36 -26 50 -1 5 11 10
61 10 111 0 88 -1 91 -26 100 -14 6 -26 9 -27 9 -1 -1 -22 -7 -47 -15z m58
-51 c3 -32 2 -33 -36 -33 -22 0 -59 -3 -83 -6 -44 -6 -45 -6 -44 22 2 26 7 30
51 41 27 6 63 11 79 10 26 -2 30 -6 33 -34z m0 -80 c-3 -24 -8 -28 -38 -30
-19 -1 -56 -4 -82 -7 -48 -7 -48 -7 -48 23 0 33 9 35 123 39 47 2 48 1 45 -25z"/>
</g>
</g>
</svg>