<?xml version="1.0" standalone="no"?>
<!DOCTYPE svg PUBLIC "-//W3C//DTD SVG 20010904//EN"
 "http://www.w3.org/TR/2001/REC-SVG-20010904/DTD/svg10.dtd">
<svg version="1.0" xmlns="http://www.w3.org/2000/svg"
 width="96.000000pt" height="68.000000pt" viewBox="0 0 96.000000 68.000000"
 preserveAspectRatio="xMidYMid meet">
<metadata>
Created by potrace 1.16, written by Peter Selinger 2001-2019
Combined from part_0.svg through part_5.svg with named groups
</metadata>
<g transform="translate(0.000000,68.000000) scale(0.100000,-0.100000)" fill="#000000" stroke="none">
<g id="part-0" class="char-part">
  <path d="M585 569 c-16 -5 -108 -20 -204 -34 -96 -14 -177 -28 -180 -31 -22
-22 128 -30 180 -9 15 5 16 1 12 -32 -9 -68 -105 -231 -189 -322 -31 -33 -23
-38 19 -12 66 41 144 138 211 264 40 76 43 92 20 105 -10 6 10 12 66 21 45 7
84 10 87 7 8 -7 -25 -74 -55 -114 -20 -27 -23 -37 -15 -50 6 -10 16 -16 23
-14 6 1 38 5 71 9 l60 6 -6 -39 c-11 -63 -35 -131 -56 -158 -33 -42 -54 -49
-94 -32 -43 18 -44 11 -4 -41 37 -47 59 -47 114 1 29 25 44 53 76 141 22 61
40 114 42 119 4 18 -47 37 -83 31 -71 -13 -80 -13 -80 -4 0 14 81 119 92 119
5 0 6 5 3 10 -3 6 -1 10 4 10 6 0 11 9 11 20 0 14 -11 22 -37 29 -44 12 -47
12 -88 0z"/>
</g>
<g id="part-1" class="char-part">
  <path d="M560 560 c-19 -5 -106 -19 -192 -31 -87 -12 -158 -26 -158 -30 0 -20
58 -20 163 0 61 11 143 23 180 27 l68 7 -15 -36 c-8 -20 -26 -53 -40 -74 -32
-46 -32 -48 -3 -50 16 -2 31 11 57 50 19 28 48 67 65 85 28 33 28 35 10 48
-20 15 -80 17 -135 4z"/>
</g>
<g id="part-2" class="char-part">
  <path d="M403 503 c-7 -2 -13 -20 -13 -38 0 -47 -71 -180 -139 -261 -92 -110
-94 -112 -42 -84 60 34 138 122 195 218 68 117 76 140 52 158 -20 14 -32 16
-53 7z"/>
</g>
<g id="part-3" class="char-part">
  <path d="M652 380 c-13 -6 -44 -8 -68 -6 -48 5 -66 -7 -35 -23 13 -8 28 -8 46
-1 14 5 42 10 62 10 l35 0 -7 -42 c-12 -73 -45 -146 -76 -173 -36 -29 -40 -30
-80 -9 -17 8 -33 14 -35 11 -2 -2 11 -22 28 -45 40 -52 72 -55 122 -12 24 21
43 53 61 103 15 40 35 93 45 119 15 39 16 49 5 58 -19 16 -76 21 -103 10z"/>
</g>
</g>
</svg>