<?xml version="1.0" standalone="no"?>
<!DOCTYPE svg PUBLIC "-//W3C//DTD SVG 20010904//EN"
 "http://www.w3.org/TR/2001/REC-SVG-20010904/DTD/svg10.dtd">
<svg version="1.0" xmlns="http://www.w3.org/2000/svg"
 width="96.000000pt" height="68.000000pt" viewBox="0 0 96.000000 68.000000"
 preserveAspectRatio="xMidYMid meet">
<metadata>
Created by potrace 1.16, written by Peter Selinger 2001-2019
Combined from part_0.svg through part_5.svg with named groups
</metadata>
<g transform="translate(0.000000,68.000000) scale(0.100000,-0.100000)" fill="#000000" stroke="none">
<g id="part-0" class="char-part">
  <path d="M525 608 c-2 -7 -5 -24 -7 -38 -2 -19 -10 -26 -30 -28 -34 -4 -36
-20 -4 -28 18 -4 23 -12 22 -35 -1 -25 -6 -30 -36 -36 -19 -4 -71 -8 -115 -8
l-81 0 23 -55 c12 -30 23 -63 23 -72 0 -14 6 -16 31 -11 29 6 31 4 24 -18 -4
-13 -9 -26 -11 -28 -2 -2 -40 -6 -85 -9 -94 -5 -93 -20 1 -24 l65 -3 -58 -45
c-31 -25 -85 -60 -120 -77 -53 -28 -57 -32 -27 -26 58 10 162 69 210 117 43
44 46 46 103 46 52 0 64 -4 100 -34 23 -18 66 -50 96 -70 47 -32 60 -36 117
-36 34 0 65 4 68 8 3 5 -25 16 -62 26 -67 17 -194 77 -220 102 -11 12 1 14 79
14 82 0 92 2 78 15 -18 18 -57 21 -184 11 -98 -8 -101 -8 -102 13 -2 24 -2 24
86 25 l64 1 33 65 c19 35 34 65 34 66 0 10 -67 25 -90 20 -38 -7 -38 1 1 42
27 28 36 32 85 32 41 0 54 4 54 15 0 18 -41 29 -75 21 -18 -5 -23 -3 -19 8 6
15 -31 46 -54 46 -7 0 -15 -6 -17 -12z m38 -181 c10 -26 -9 -34 -93 -40 -47
-4 -94 -8 -106 -11 -27 -6 -48 8 -41 27 4 10 24 15 74 16 37 1 86 6 108 11 22
4 43 8 46 9 4 0 9 -5 12 -12z m-10 -77 c-4 -14 -14 -20 -33 -20 -15 0 -61 -3
-103 -6 -74 -7 -77 -6 -77 14 0 22 13 24 167 30 47 2 51 0 46 -18z"/>
  <path d="M270 579 c0 -6 7 -17 15 -26 23 -23 9 -33 -46 -33 -51 0 -60 -8 -34
-30 10 -8 31 -11 61 -6 40 5 48 3 64 -17 21 -25 33 -19 33 17 0 19 6 25 29 30
38 8 28 24 -12 18 -27 -4 -30 -1 -30 21 0 14 -7 28 -16 31 -25 10 -64 7 -64
-5z"/>
  <path d="M418 165 l4 -35 -51 0 c-28 0 -51 -4 -51 -10 0 -5 25 -10 55 -10 54
0 55 -1 55 -29 0 -27 -3 -29 -52 -35 -29 -3 -77 -6 -105 -6 -50 0 -69 -12 -40
-23 7 -3 76 -1 153 4 76 4 178 8 227 9 50 0 87 4 87 10 0 17 -49 23 -141 18
l-89 -5 0 27 c0 26 4 29 50 35 63 9 62 30 -1 30 -38 0 -44 3 -42 20 2 23 -13
35 -42 35 -18 0 -20 -5 -17 -35z"/>
</g>
<g id="part-1" class="char-part">
  <path d="M530 575 c0 -30 -3 -35 -24 -35 -14 0 -28 -4 -31 -10 -3 -6 5 -10 19
-10 23 0 25 -2 16 -26 -13 -34 -13 -36 8 -25 10 5 24 21 32 35 11 22 21 26 59
27 25 0 55 4 66 8 19 8 19 8 0 18 -11 6 -35 8 -52 6 -28 -5 -33 -2 -33 15 0
20 -18 32 -46 32 -9 0 -14 -11 -14 -35z"/>
  <path d="M280 580 c0 -6 7 -22 16 -35 l16 -25 -61 0 c-65 0 -76 -9 -37 -29 19
-11 31 -11 62 -1 35 12 39 11 52 -9 19 -29 35 -27 30 4 -5 22 -1 26 31 32 l36
7 -40 6 c-30 4 -41 10 -44 25 -2 11 -8 23 -15 27 -16 11 -46 10 -46 -2z"/>
</g>
<g id="part-2" class="char-part">
  <path d="M460 444 c-44 -9 -101 -13 -138 -10 l-63 5 20 -24 c10 -14 24 -48 31
-75 12 -49 13 -50 44 -45 17 3 73 7 125 9 l94 3 34 63 c20 39 30 67 24 73 -16
16 -93 16 -171 1z m105 -30 c0 -12 -6 -18 -19 -17 -17 1 -115 -10 -182 -22
-26 -4 -33 -2 -37 14 -4 17 1 21 37 25 22 3 73 9 111 14 85 11 90 10 90 -14z
m-15 -64 c0 -16 -7 -20 -37 -20 -21 0 -68 -3 -105 -7 -64 -6 -68 -5 -68 15 0
18 7 21 58 25 147 9 152 8 152 -13z"/>
</g>
<g id="part-3" class="char-part">
  <path d="M374 276 c-5 -23 -11 -25 -95 -32 -49 -3 -87 -9 -84 -13 4 -3 38 -8
77 -11 l71 -5 -59 -46 c-32 -26 -86 -60 -119 -77 -71 -37 -69 -39 19 -12 66
21 140 69 184 121 21 26 30 29 79 29 52 0 60 -4 154 -70 95 -67 102 -70 157
-70 88 0 94 14 15 34 -60 15 -201 81 -227 107 -6 5 24 9 78 9 65 0 87 3 84 12
-7 19 -56 25 -133 17 -119 -13 -142 -12 -148 11 -8 29 -45 26 -53 -4z"/>
</g>
<g id="part-4" class="char-part">
  <path d="M420 171 c4 -16 6 -32 2 -35 -3 -3 -27 -6 -54 -6 -26 0 -48 -4 -48
-10 0 -5 25 -10 55 -10 54 0 55 -1 55 -29 0 -27 -2 -28 -61 -35 -34 -3 -82 -6
-105 -6 -45 0 -59 -14 -24 -23 11 -3 79 -1 152 4 73 4 174 8 223 9 84 1 89 2
70 16 -16 13 -38 15 -117 10 l-98 -5 0 29 c0 28 3 30 50 36 28 4 50 10 50 14
0 14 -32 21 -67 14 -30 -6 -34 -4 -33 12 4 37 0 44 -29 44 -28 0 -29 -2 -21
-29z"/>
</g>
</g>
</svg>