<?xml version="1.0" standalone="no"?>
<!DOCTYPE svg PUBLIC "-//W3C//DTD SVG 20010904//EN"
 "http://www.w3.org/TR/2001/REC-SVG-20010904/DTD/svg10.dtd">
<svg version="1.0" xmlns="http://www.w3.org/2000/svg"
 width="96.000000pt" height="68.000000pt" viewBox="0 0 96.000000 68.000000"
 preserveAspectRatio="xMidYMid meet">
<metadata>
Created by potrace 1.16, written by Peter Selinger 2001-2019
Combined from part_0.svg through part_5.svg with named groups
</metadata>
<g transform="translate(0.000000,68.000000) scale(0.100000,-0.100000)" fill="#000000" stroke="none">
<g id="part-0" class="char-part">
  <path d="M524 603 c-18 -52 -52 -114 -92 -167 l-45 -58 40 23 c41 23 41 23 82
5 22 -11 41 -22 41 -25 -1 -12 -113 -96 -164 -124 -28 -15 -40 -25 -26 -21 47
12 113 44 161 79 27 19 53 35 58 35 5 0 37 -18 70 -40 34 -23 72 -40 88 -40
42 0 103 12 103 19 0 4 -24 13 -52 20 -66 17 -176 60 -184 72 -3 5 20 36 51
68 53 56 55 60 36 70 -25 14 -54 14 -102 -1 -22 -6 -42 -9 -44 -6 -3 3 3 21
15 40 16 28 18 37 8 45 -29 23 -38 24 -44 6z m106 -116 c0 -8 -15 -30 -32 -51
l-33 -37 -42 22 c-42 21 -42 21 -25 44 17 24 38 31 100 34 21 0 32 -4 32 -12z"/>
  <path d="M245 588 c4 -13 9 -51 12 -84 l5 -62 -71 -7 c-87 -9 -91 -29 -8 -33
31 -2 57 -5 57 -8 0 -21 -53 -100 -103 -151 -47 -50 -56 -63 -40 -63 28 0 97
53 134 103 l31 42 -5 -35 c-4 -19 -9 -73 -13 -120 -5 -68 -3 -89 10 -105 13
-18 16 -18 30 -5 12 12 16 43 17 149 l1 133 27 -26 c31 -30 46 -33 55 -11 7
19 -25 52 -59 61 -18 4 -24 11 -21 21 3 8 6 19 6 24 0 5 15 9 33 9 17 0 38 4
46 9 23 15 2 31 -40 31 l-41 0 7 63 c7 61 6 63 -20 75 -42 19 -59 16 -50 -10z"/>
  <path d="M560 238 c-30 -5 -74 -7 -97 -4 -40 5 -56 -5 -33 -19 5 -3 14 -25 20
-48 18 -70 29 -92 42 -79 7 7 37 12 69 12 31 0 77 3 101 6 39 5 45 9 40 26 -2
10 4 34 14 53 33 62 -13 78 -156 53z m92 -23 c3 -3 2 -22 -1 -43 l-6 -37 -68
-9 c-39 -5 -72 -5 -77 0 -5 5 -11 26 -15 46 l-7 37 44 4 c74 6 124 7 130 2z"/>
</g>
<g id="part-1" class="char-part">
  <path d="M254 563 c4 -27 9 -65 12 -85 l6 -37 -49 -6 c-91 -12 -107 -16 -92
-26 8 -5 38 -6 68 -3 53 7 53 6 46 -17 -13 -39 -55 -100 -108 -156 -27 -29
-46 -53 -42 -53 19 0 79 46 121 93 l46 52 -8 -90 c-11 -120 -10 -153 5 -168
10 -9 15 -8 27 7 10 15 14 53 14 150 l1 131 22 -27 c26 -32 57 -37 57 -10 0
12 -14 25 -40 37 -30 14 -40 24 -40 42 0 18 5 23 24 23 14 0 37 5 53 11 l28
11 -23 9 c-13 5 -35 6 -49 3 l-26 -7 6 66 c6 66 6 67 -23 82 -42 21 -43 20
-36 -32z"/>
</g>
<g id="part-2" class="char-part">
  <path d="M506 568 c-10 -29 -40 -84 -68 -122 l-50 -69 39 24 c44 27 59 43 113
121 46 65 47 73 21 88 -31 16 -35 13 -55 -42z"/>
</g>
<g id="part-3" class="char-part">
  <path d="M580 518 c-70 -15 -75 -31 -7 -23 35 5 57 4 57 -2 0 -11 -57 -93 -64
-93 -3 0 -21 9 -40 21 -19 11 -41 17 -47 13 -8 -4 1 -14 25 -26 20 -10 36 -23
36 -28 0 -14 -84 -81 -148 -117 -31 -18 -50 -33 -42 -33 24 0 119 47 172 85
26 19 51 35 55 35 4 0 37 -18 75 -41 65 -40 70 -41 128 -34 33 4 62 10 64 14
3 4 -34 17 -82 30 -47 12 -103 32 -125 42 -44 23 -46 18 36 106 38 40 39 41
19 52 -24 13 -50 13 -112 -1z"/>
</g>
<g id="part-4" class="char-part">
  <path d="M565 239 c-27 -6 -74 -7 -103 -4 l-54 5 20 -25 c11 -14 23 -42 27
-62 10 -54 24 -77 39 -64 6 5 48 11 91 12 69 2 154 15 118 18 -13 1 -6 30 19
80 24 46 -37 61 -157 40z m85 -58 c0 -22 -4 -42 -9 -45 -5 -3 -40 -9 -78 -12
l-70 -7 -6 33 c-13 63 -14 63 121 68 l42 2 0 -39z"/>
</g>
</g>
</svg>