<?xml version="1.0" standalone="no"?>
<!DOCTYPE svg PUBLIC "-//W3C//DTD SVG 20010904//EN"
 "http://www.w3.org/TR/2001/REC-SVG-20010904/DTD/svg10.dtd">
<svg version="1.0" xmlns="http://www.w3.org/2000/svg"
 width="96.000000pt" height="68.000000pt" viewBox="0 0 96.000000 68.000000"
 preserveAspectRatio="xMidYMid meet">
<metadata>
Created by potrace 1.16, written by Peter Selinger 2001-2019
Combined from part_0.svg through part_5.svg with named groups
</metadata>
<g transform="translate(0.000000,68.000000) scale(0.100000,-0.100000)" fill="#000000" stroke="none">
<g id="part-0" class="char-part">
  <path d="M295 559 c-10 -45 -89 -156 -159 -221 -35 -34 -54 -58 -45 -58 21 0
83 42 133 88 l38 37 -6 -113 c-4 -63 -11 -125 -17 -138 -12 -33 13 -96 35 -88
22 8 24 21 31 197 5 110 4 157 -4 157 -20 0 -11 23 29 76 45 60 48 69 21 84
-33 17 -49 12 -56 -21z"/>
  <path d="M510 582 c0 -11 32 -55 49 -68 12 -9 1 -13 -50 -18 -35 -4 -77 -10
-94 -13 -28 -5 -29 -6 -8 -14 23 -8 87 -125 77 -141 -3 -4 -22 -8 -42 -9 -61
-1 -119 -13 -104 -23 12 -7 90 -2 167 10 11 2 91 7 178 10 87 4 160 11 164 17
13 21 -25 28 -116 22 l-93 -6 23 38 c12 21 28 47 36 57 8 14 9 23 2 32 -7 9
-2 14 21 19 16 4 30 11 30 17 0 7 -23 9 -70 4 -68 -6 -70 -5 -76 18 -4 17 -19
30 -45 40 -45 18 -49 19 -49 8z m120 -132 c0 -40 -22 -110 -35 -110 -5 0 -20
-3 -32 -6 -18 -5 -24 1 -41 39 -11 24 -30 53 -42 65 l-23 21 24 5 c31 7 76 13
117 15 29 1 32 -1 32 -29z"/>
  <path d="M610 244 c-36 -7 -93 -14 -127 -15 -59 -2 -76 -10 -53 -24 5 -3 14
-33 21 -66 12 -63 22 -77 42 -61 7 6 58 13 114 17 81 6 100 10 96 21 -5 15 36
84 50 84 16 0 6 26 -15 39 -31 19 -51 20 -128 5z m52 -36 c6 -18 -13 -76 -27
-82 -6 -2 -41 -7 -77 -11 l-65 -7 -7 32 c-3 18 -6 38 -6 46 0 26 174 47 182
22z"/>
</g>
<g id="part-1" class="char-part">
  <path d="M296 557 c-9 -48 -54 -114 -138 -203 -62 -65 -68 -74 -39 -59 19 10
59 41 89 69 l54 51 -5 -125 c-4 -69 -9 -138 -12 -155 -8 -37 17 -77 36 -58 18
18 29 311 13 339 -11 18 -9 27 14 60 14 22 34 48 45 59 18 19 18 20 -4 37 -31
26 -46 22 -53 -15z"/>
</g>
<g id="part-2" class="char-part">
  <path d="M510 568 c7 -12 21 -33 32 -44 l20 -22 -54 -6 c-29 -4 -71 -10 -93
-13 l-40 -6 30 -8 c30 -9 293 13 328 26 9 4 17 12 17 18 0 6 -24 8 -70 3 -65
-6 -70 -5 -70 14 0 23 -32 45 -78 55 -33 7 -33 6 -22 -17z"/>
</g>
<g id="part-3" class="char-part">
  <path d="M630 454 c0 -14 -5 -45 -11 -69 -9 -36 -15 -44 -41 -49 -38 -7 -44
-3 -51 32 -7 33 -58 92 -80 92 -14 0 -13 -7 5 -47 11 -27 25 -54 31 -61 14
-18 -8 -31 -53 -32 -19 -1 -53 -5 -75 -9 -39 -8 -39 -8 -13 -15 16 -5 90 -1
168 8 77 9 182 16 233 16 89 0 130 10 113 27 -4 4 -54 7 -111 6 l-103 -2 33
59 c18 32 31 61 27 64 -3 3 -20 6 -39 6 -29 0 -33 -3 -33 -26z"/>
</g>
<g id="part-4" class="char-part">
  <path d="M610 244 c-41 -7 -101 -13 -132 -13 -53 -1 -72 -11 -49 -26 5 -3 15
-31 22 -63 13 -62 25 -84 37 -65 4 7 52 14 115 19 74 5 105 10 98 17 -7 7 1
26 25 60 33 46 34 50 17 63 -10 7 -21 14 -25 14 -3 0 -12 2 -20 4 -7 2 -47 -2
-88 -10z m34 -20 c20 -8 21 -67 2 -87 -13 -13 -142 -34 -151 -25 -2 2 -7 22
-11 45 l-6 41 53 11 c30 6 63 13 74 15 11 2 21 4 22 5 1 0 8 -2 17 -5z"/>
</g>
</g>
</svg>