<?xml version="1.0" standalone="no"?>
<!DOCTYPE svg PUBLIC "-//W3C//DTD SVG 20010904//EN"
 "http://www.w3.org/TR/2001/REC-SVG-20010904/DTD/svg10.dtd">
<svg version="1.0" xmlns="http://www.w3.org/2000/svg"
 width="96.000000pt" height="68.000000pt" viewBox="0 0 96.000000 68.000000"
 preserveAspectRatio="xMidYMid meet">
<metadata>
Created by potrace 1.16, written by Peter Selinger 2001-2019
Combined from part_0.svg through part_5.svg with named groups
</metadata>
<g transform="translate(0.000000,68.000000) scale(0.100000,-0.100000)" fill="#000000" stroke="none">
<g id="part-0" class="char-part">
  <path d="M530 585 c0 -23 -29 -76 -59 -109 l-26 -28 24 7 c23 7 23 6 17 -30
l-7 -36 48 7 47 7 -17 -27 c-26 -39 -2 -32 29 9 29 39 50 44 69 18 12 -16 15
-14 31 20 16 33 16 39 4 47 -24 15 -30 12 -30 -16 0 -21 -4 -25 -22 -22 -16 2
-22 9 -20 22 2 10 -2 23 -10 27 -26 17 -36 9 -33 -26 3 -33 2 -35 -26 -35 -22
0 -29 5 -29 19 0 11 -5 23 -11 26 -7 5 -3 16 12 31 12 13 25 22 28 20 3 -3 44
1 91 8 112 17 122 12 116 -60 -7 -74 -20 -96 -51 -88 -31 8 -31 2 -2 -28 46
-49 81 -9 96 109 9 69 8 80 -7 91 -17 14 -21 13 -162 -8 -62 -9 -79 -4 -54 15
10 7 15 19 11 29 -8 21 -57 22 -57 1z"/>
  <path d="M230 564 c0 -3 14 -25 31 -50 34 -50 37 -47 -65 -63 -75 -11 -88 -17
-66 -31 21 -14 75 -12 145 4 33 8 84 17 113 21 28 4 52 11 52 15 0 15 -40 22
-93 15 -40 -4 -48 -3 -34 5 30 19 21 56 -17 74 -34 16 -66 21 -66 10z"/>
  <path d="M287 375 c-73 -16 -83 -25 -26 -24 59 2 103 12 102 24 -2 14 -12 14
-76 0z"/>
  <path d="M481 285 c-11 -25 -27 -48 -35 -51 -8 -3 -17 -12 -20 -20 -6 -16 0
-14 46 18 18 13 63 22 147 31 l121 13 0 -73 c0 -42 -6 -89 -15 -109 -13 -33
-17 -35 -45 -29 -36 8 -38 -2 -5 -33 29 -28 57 -23 81 13 11 18 41 168 44 226
0 3 -11 11 -25 17 -18 8 -52 8 -137 -3 -62 -7 -114 -12 -116 -11 -2 2 5 11 14
21 15 14 15 18 3 26 -26 16 -38 9 -58 -36z"/>
  <path d="M278 306 c-74 -18 -71 -29 6 -22 77 8 95 14 75 27 -16 10 -20 10 -81
-5z"/>
  <path d="M310 239 c-14 -6 -48 -11 -75 -12 l-50 -1 22 -45 c13 -24 23 -51 23
-59 0 -10 7 -12 23 -9 12 3 43 9 70 12 32 5 47 12 47 22 0 8 7 30 16 49 9 19
15 37 12 39 -11 11 -65 14 -88 4z m30 -47 c0 -37 -17 -52 -56 -52 -24 0 -33 5
-38 23 -10 38 -7 46 22 50 67 10 72 9 72 -21z"/>
  <path d="M558 198 c-3 -39 -6 -43 -32 -46 -26 -3 -28 -1 -22 22 5 19 1 28 -14
36 -17 9 -20 8 -20 -13 0 -14 -3 -39 -6 -56 -6 -26 -4 -31 13 -31 11 0 23 3
27 7 11 11 36 12 36 2 0 -6 -16 -26 -35 -46 -42 -43 -43 -48 -7 -29 27 14 47
36 68 71 16 28 66 39 81 18 14 -18 15 -18 32 14 18 36 14 73 -8 73 -14 0 -21
-8 -23 -27 -2 -22 -9 -29 -31 -31 -27 -3 -28 -2 -25 34 2 29 -1 39 -14 42 -13
3 -17 -6 -20 -40z"/>
</g>
<g id="part-1" class="char-part">
  <path d="M240 565 c0 -12 29 -62 43 -73 19 -16 47 -5 47 19 0 10 -10 25 -22
33 -28 17 -68 30 -68 21z"/>
  <path d="M375 475 c-5 -2 -63 -11 -127 -21 -65 -9 -118 -20 -118 -25 0 -20 54
-19 148 0 56 12 112 21 126 21 14 0 26 5 26 10 0 6 -4 10 -9 10 -5 0 -15 2
-23 4 -7 3 -17 3 -23 1z"/>
</g>
<g id="part-2" class="char-part">
  <path d="M310 239 c-14 -6 -50 -11 -81 -11 -54 -1 -56 -1 -38 -19 10 -10 23
-36 29 -58 11 -42 28 -61 39 -43 3 5 32 13 63 17 41 5 55 11 51 20 -2 8 3 30
13 50 15 31 15 38 3 46 -18 11 -47 10 -79 -2z m30 -43 c0 -33 -25 -56 -60 -56
-20 0 -29 6 -34 23 -10 38 -7 46 22 50 65 10 72 8 72 -17z"/>
</g>
<g id="part-3" class="char-part">
  <path d="M527 572 c-3 -15 -22 -49 -42 -75 -40 -52 -28 -63 20 -18 33 31 110
51 196 51 55 0 61 -9 52 -78 -9 -68 -19 -83 -50 -76 -25 7 -25 7 -8 -20 40
-60 87 -15 104 101 10 70 10 79 -6 90 -20 15 -15 16 -130 -1 -92 -13 -104 -11
-82 11 18 18 3 43 -24 43 -19 0 -26 -7 -30 -28z"/>
</g>
<g id="part-4" class="char-part">
  <path d="M575 459 c0 -27 -5 -34 -27 -40 -25 -6 -28 -5 -28 16 0 40 -27 38
-33 -2 -8 -49 -2 -54 38 -37 42 17 52 5 24 -30 -11 -14 -16 -26 -10 -26 5 0
25 18 42 40 22 27 40 40 56 40 13 0 22 -4 18 -9 -3 -5 -1 -13 5 -16 6 -4 17
10 26 31 13 30 13 38 2 45 -22 14 -28 10 -28 -16 0 -20 -5 -25 -24 -25 -21 0
-24 5 -23 27 2 21 -3 29 -18 31 -17 2 -20 -3 -20 -29z"/>
</g>
<g id="part-5" class="char-part">
  <path d="M565 192 c0 -21 -6 -42 -15 -49 -13 -11 -13 -12 1 -13 24 0 37 21 32
53 -2 15 1 27 7 27 6 0 8 5 5 10 -14 23 -30 8 -30 -28z"/>
  <path d="M657 207 c-2 -7 0 -22 4 -34 5 -14 5 -23 -1 -23 -6 0 -10 -5 -10 -11
0 -8 5 -8 15 1 8 7 12 16 9 22 -3 5 -1 14 4 21 7 8 6 16 -3 24 -11 10 -14 10
-18 0z"/>
  <path d="M476 184 c-4 -16 -10 -38 -13 -49 -5 -17 -4 -18 10 -7 10 9 17 10 22
2 3 -6 11 -7 17 -4 7 4 5 10 -5 16 -9 5 -14 15 -11 23 3 7 1 21 -4 31 -8 14
-10 12 -16 -12z"/>
  <path d="M538 100 c-26 -24 -22 -35 4 -10 12 11 20 22 17 24 -2 2 -12 -4 -21
-14z"/>
</g>
</g>
</svg>