<?xml version="1.0" standalone="no"?>
<!DOCTYPE svg PUBLIC "-//W3C//DTD SVG 20010904//EN"
 "http://www.w3.org/TR/2001/REC-SVG-20010904/DTD/svg10.dtd">
<svg version="1.0" xmlns="http://www.w3.org/2000/svg"
 width="96.000000pt" height="68.000000pt" viewBox="0 0 96.000000 68.000000"
 preserveAspectRatio="xMidYMid meet">
<metadata>
Created by potrace 1.16, written by Peter Selinger 2001-2019
Combined from part_0.svg through part_5.svg with named groups
</metadata>
<g transform="translate(0.000000,68.000000) scale(0.100000,-0.100000)" fill="#000000" stroke="none">
<g id="part-0" class="char-part">
  <path d="M476 632 c-2 -4 -40 -26 -83 -47 -58 -30 -72 -41 -56 -43 12 -2 38 1
57 6 l35 10 7 -55 c3 -30 3 -58 -2 -63 -5 -5 -57 -12 -117 -16 -59 -4 -107
-10 -107 -15 0 -15 60 -20 124 -8 37 6 69 9 72 6 7 -7 -95 -72 -168 -108 -51
-25 -56 -29 -28 -24 42 8 177 70 202 92 21 19 20 21 22 -39 2 -52 8 -63 31
-55 11 5 15 21 15 62 0 30 3 55 6 55 3 0 50 -25 103 -55 98 -56 131 -66 131
-42 0 27 -50 59 -126 83 -44 13 -87 24 -96 24 -10 0 -18 5 -18 10 0 6 47 10
120 10 66 0 120 4 120 9 0 5 -13 14 -30 21 -27 11 -60 10 -173 -6 l-39 -6 3
58 c2 48 0 58 -16 64 -14 5 -6 10 31 20 66 18 68 19 48 41 -17 19 -59 26 -68
11z"/>
  <path d="M560 510 c-25 -22 -42 -40 -39 -40 9 0 118 38 130 45 14 9 -9 35 -30
35 -9 -1 -36 -19 -61 -40z"/>
  <path d="M290 511 c0 -16 41 -61 56 -61 29 0 11 43 -23 57 -18 7 -33 9 -33 4z"/>
  <path d="M440 233 c0 -15 55 -63 72 -63 23 0 23 22 1 42 -20 17 -73 32 -73 21z"/>
  <path d="M686 195 c45 -39 94 -48 94 -16 0 21 -62 51 -107 51 -26 0 -26 0 13
-35z"/>
  <path d="M188 157 c-28 -56 -25 -84 9 -73 21 7 43 57 43 99 0 43 -23 31 -52
-26z"/>
  <path d="M335 160 c39 -77 93 -104 220 -108 146 -5 221 25 158 64 -15 9 -40
25 -55 35 -39 27 -48 24 -35 -11 6 -16 8 -32 5 -35 -3 -4 -37 -8 -75 -11 -94
-6 -170 24 -196 79 -10 20 -25 37 -33 37 -11 0 -9 -12 11 -50z"/>
</g>
<g id="part-1" class="char-part">
  <path d="M456 614 c-21 -14 -61 -37 -89 -50 -47 -22 -48 -24 -17 -18 65 11
194 51 197 61 3 7 -37 33 -50 33 -1 0 -20 -12 -41 -26z"/>
</g>
<g id="part-2" class="char-part">
  <path d="M434 506 c3 -36 3 -67 -2 -70 -5 -3 -57 -8 -115 -12 -100 -6 -129
-16 -91 -31 9 -3 52 -1 97 6 44 6 82 9 84 7 6 -5 -87 -63 -164 -101 -37 -19
-63 -34 -57 -35 28 0 143 42 184 68 25 15 50 31 57 35 8 5 11 -8 10 -43 -2
-49 12 -78 32 -66 6 4 11 34 11 67 0 32 2 59 5 59 3 0 49 -25 103 -55 101 -56
132 -66 132 -41 0 28 -59 64 -142 86 -46 12 -87 26 -92 31 -6 5 39 9 112 9 67
0 122 4 122 9 0 5 -13 14 -29 21 -27 11 -82 9 -180 -6 l-34 -5 6 60 c5 62 0
71 -40 71 -13 0 -15 -10 -9 -64z"/>
</g>
<g id="part-3" class="char-part">
  <path d="M440 233 c1 -18 51 -63 70 -63 38 0 21 42 -23 59 -33 13 -47 14 -47
4z"/>
  <path d="M650 235 c0 -19 79 -75 106 -75 49 0 16 53 -41 65 -16 4 -38 9 -47
12 -10 2 -18 1 -18 -2z"/>
  <path d="M310 213 c0 -4 13 -30 28 -58 21 -39 38 -55 82 -78 48 -24 67 -28
145 -28 152 0 219 38 135 76 -22 10 -45 24 -51 32 -6 7 -17 13 -24 13 -11 0
-11 -6 -2 -30 6 -16 8 -33 3 -37 -4 -4 -44 -8 -89 -8 -68 0 -89 4 -124 24 -23
14 -47 37 -54 53 -11 27 -49 59 -49 41z"/>
  <path d="M212 198 c-20 -26 -49 -93 -45 -105 9 -27 44 -13 59 22 25 60 15 119
-14 83z"/>
</g>
</g>
</svg>