<?xml version="1.0" standalone="no"?>
<!DOCTYPE svg PUBLIC "-//W3C//DTD SVG 20010904//EN"
 "http://www.w3.org/TR/2001/REC-SVG-20010904/DTD/svg10.dtd">
<svg version="1.0" xmlns="http://www.w3.org/2000/svg"
 width="96.000000pt" height="68.000000pt" viewBox="0 0 96.000000 68.000000"
 preserveAspectRatio="xMidYMid meet">
<metadata>
Created by potrace 1.16, written by Peter Selinger 2001-2019
Combined from part_0.svg through part_5.svg with named groups
</metadata>
<g transform="translate(0.000000,68.000000) scale(0.100000,-0.100000)" fill="#000000" stroke="none">
<g id="part-0" class="char-part">
  <path d="M559 606 c-2 -2 -73 -11 -158 -20 -85 -9 -157 -19 -160 -22 -15 -15
31 -24 97 -19 82 7 84 4 56 -65 -18 -44 -21 -46 -49 -26 -28 19 -85 30 -85 17
0 -6 4 -11 9 -11 13 0 71 -53 71 -65 0 -5 -22 -26 -50 -45 -64 -46 -64 -59 1
-23 63 34 120 97 157 173 28 61 45 70 126 70 l29 0 -6 -60 c-6 -71 -35 -136
-59 -134 -10 1 -29 5 -43 8 -23 6 -24 5 -13 -19 6 -14 13 -23 16 -20 3 3 11
-4 19 -15 14 -20 49 -26 69 -12 20 14 44 68 63 147 11 44 23 89 26 101 5 15 0
23 -20 32 -25 11 -87 17 -96 8z"/>
  <path d="M655 311 c-6 -11 100 -101 119 -101 19 0 22 43 4 58 -21 17 -118 51
-123 43z"/>
  <path d="M440 273 c0 -17 54 -73 71 -73 23 0 26 32 5 49 -16 14 -76 32 -76 24z"/>
  <path d="M311 250 c-1 -26 35 -94 63 -121 15 -15 50 -35 79 -44 97 -32 296
-19 311 21 4 9 -13 25 -49 45 -30 17 -58 35 -61 40 -3 5 -9 9 -14 9 -6 0 -2
-16 7 -36 23 -47 11 -54 -87 -54 -93 0 -171 32 -198 81 -26 48 -51 77 -51 59z"/>
  <path d="M182 194 c-25 -34 -32 -53 -27 -71 9 -38 37 -24 59 29 14 34 17 53
10 68 -9 20 -12 18 -42 -26z"/>
</g>
<g id="part-1" class="char-part">
  <path d="M584 604 c-6 -3 -87 -13 -180 -23 -146 -16 -165 -19 -141 -29 21 -9
51 -8 132 4 57 8 128 14 157 12 l53 -3 -3 -49 c-2 -27 -11 -69 -21 -95 -17
-45 -18 -46 -60 -44 l-42 2 28 -34 c32 -38 44 -41 78 -19 25 16 46 69 65 166
6 32 16 60 21 63 33 21 -46 66 -87 49z"/>
</g>
<g id="part-2" class="char-part">
  <path d="M250 478 c0 -11 91 -69 100 -63 16 10 12 33 -8 44 -20 11 -92 25 -92
19z"/>
</g>
<g id="part-3" class="char-part">
  <path d="M685 276 c63 -57 85 -70 96 -59 30 30 -22 75 -101 89 l-35 6 40 -36z"/>
  <path d="M440 271 c0 -18 52 -71 70 -71 47 0 33 43 -21 64 -46 19 -49 19 -49
7z"/>
  <path d="M310 235 c42 -111 90 -148 214 -166 86 -13 197 0 233 26 16 12 16 15
3 28 -8 8 -42 29 -74 47 -60 32 -60 32 -43 7 35 -54 18 -67 -89 -67 -102 0
-166 31 -200 97 -10 21 -23 41 -29 45 -19 14 -24 8 -15 -17z"/>
  <path d="M182 198 c-35 -50 -41 -85 -17 -94 22 -9 40 10 55 56 9 28 10 47 3
62 -9 21 -11 20 -41 -24z"/>
</g>
</g>
</svg>