<?xml version="1.0" standalone="no"?>
<!DOCTYPE svg PUBLIC "-//W3C//DTD SVG 20010904//EN"
 "http://www.w3.org/TR/2001/REC-SVG-20010904/DTD/svg10.dtd">
<svg version="1.0" xmlns="http://www.w3.org/2000/svg"
 width="96.000000pt" height="68.000000pt" viewBox="0 0 96.000000 68.000000"
 preserveAspectRatio="xMidYMid meet">
<metadata>
Created by potrace 1.16, written by Peter Selinger 2001-2019
Combined from part_0.svg through part_5.svg with named groups
</metadata>
<g transform="translate(0.000000,68.000000) scale(0.100000,-0.100000)" fill="#000000" stroke="none">
<g id="part-0" class="char-part">
  <path d="M250 564 c0 -14 67 -64 87 -64 34 0 32 47 -3 60 -27 11 -84 14 -84 4z"/>
  <path d="M745 545 c-5 -2 -32 -6 -58 -10 -66 -9 -50 -20 24 -17 l59 3 0 -86 0
-87 -25 6 c-30 8 -31 3 -8 -24 41 -47 64 -14 74 103 5 60 4 96 -3 104 -10 12
-40 16 -63 8z"/>
  <path d="M505 525 c-5 -2 -27 -6 -49 -10 -57 -9 -33 -20 37 -17 l62 4 -2 -64
c-3 -80 -7 -88 -35 -81 -22 6 -22 5 5 -20 15 -15 34 -24 42 -21 18 7 19 0 5
-27 -7 -13 -21 -19 -43 -19 l-33 0 4 -97 c2 -54 6 -100 9 -103 2 -2 13 1 23 8
11 7 53 12 93 12 68 0 75 -2 87 -25 16 -30 22 -31 46 -4 15 17 19 39 21 120
l2 99 -26 6 c-14 4 -48 2 -75 -5 -27 -6 -61 -11 -75 -11 l-26 0 22 19 c24 21
21 41 -5 41 -10 0 -14 6 -10 18 2 9 8 50 11 91 6 57 4 75 -6 82 -14 8 -64 11
-84 4z m223 -296 c3 -23 -1 -26 -25 -26 -15 1 -61 -3 -100 -7 l-73 -8 0 30 c0
30 2 31 48 35 26 2 70 3 97 3 46 -1 50 -3 53 -27z m2 -76 l0 -38 -98 0 c-97 0
-97 0 -100 26 -3 25 -1 26 80 36 46 5 91 10 101 11 13 2 17 -6 17 -35z"/>
  <path d="M660 474 c0 -10 33 -33 48 -34 18 0 15 27 -4 34 -20 8 -44 8 -44 0z"/>
  <path d="M465 450 c21 -23 45 -26 45 -6 0 15 -21 26 -47 26 -14 0 -14 -3 2
-20z"/>
  <path d="M289 441 c-14 -5 -55 -11 -92 -15 -65 -7 -84 -20 -50 -33 9 -4 51 -2
92 4 42 6 78 10 80 8 7 -8 -92 -125 -151 -178 -96 -86 -32 -70 78 19 l56 46
-7 -63 c-3 -35 -11 -80 -16 -101 -11 -42 3 -88 26 -88 8 0 17 10 19 22 6 28
20 180 18 190 -1 4 15 -4 35 -17 44 -31 55 -31 51 -3 -2 15 -16 29 -38 39
l-35 17 38 7 c36 7 37 8 21 26 -22 24 -41 24 -56 -1 -15 -24 -24 -25 -31 -5
-4 9 10 30 36 55 34 33 39 44 31 58 -12 19 -65 25 -105 13z"/>
  <path d="M440 388 c-41 -19 -43 -22 -24 -30 15 -7 29 -4 57 14 64 41 43 51
-33 16z"/>
  <path d="M663 396 c-42 -15 -50 -24 -29 -32 17 -7 86 24 86 38 0 10 -17 8 -57
-6z"/>
</g>
<g id="part-1" class="char-part">
  <path d="M262 559 c5 -15 65 -59 80 -59 16 0 21 31 7 45 -8 7 -31 17 -53 21
-31 5 -38 4 -34 -7z"/>
  <path d="M285 435 c-27 -7 -71 -14 -97 -14 -27 -1 -48 -6 -48 -11 0 -20 32
-22 108 -7 42 8 79 14 80 12 10 -9 -62 -100 -140 -177 -31 -32 -52 -58 -46
-58 14 0 72 42 121 89 l37 35 0 -50 c0 -28 -5 -76 -11 -108 -9 -43 -9 -63 0
-83 19 -43 34 -13 38 79 2 46 6 94 9 107 l5 24 28 -27 c26 -25 61 -35 61 -17
0 12 -27 34 -59 47 l-26 11 32 7 c42 10 49 22 22 36 -17 10 -23 8 -36 -9 -17
-25 -31 -27 -40 -5 -4 10 9 31 38 60 42 42 42 44 24 59 -23 17 -33 17 -100 0z"/>
</g>
<g id="part-2" class="char-part">
  <path d="M471 519 c-66 -13 -62 -19 13 -19 l67 0 -3 -72 c-3 -71 -4 -73 -28
-70 l-25 4 27 -28 c28 -28 28 -28 47 -9 16 16 20 37 23 110 l3 90 -40 2 c-22
1 -60 -3 -84 -8z"/>
</g>
<g id="part-3" class="char-part">
  <path d="M678 403 c-58 -15 -72 -28 -42 -40 16 -6 78 23 96 45 6 6 9 12 7 11
-2 -1 -30 -8 -61 -16z"/>
</g>
<g id="part-4" class="char-part">
  <path d="M655 279 c-16 -5 -61 -11 -98 -12 -64 -2 -68 -3 -62 -24 3 -12 6 -54
6 -92 1 -39 6 -74 12 -78 6 -4 13 -1 15 5 2 8 31 12 83 12 74 0 82 -2 102 -26
l22 -26 19 21 c27 30 31 208 4 222 -21 11 -63 10 -103 -2z m75 -48 c0 -24 -4
-29 -22 -28 -13 0 -58 -3 -100 -7 l-78 -8 0 30 c0 29 3 31 43 35 23 2 68 4
100 5 57 2 57 2 57 -27z m0 -79 l0 -37 -100 -2 -100 -3 0 29 c0 28 0 28 88 38
48 5 93 11 100 11 8 1 12 -11 12 -36z"/>
</g>
</g>
</svg>