<?xml version="1.0" standalone="no"?>
<!DOCTYPE svg PUBLIC "-//W3C//DTD SVG 20010904//EN"
 "http://www.w3.org/TR/2001/REC-SVG-20010904/DTD/svg10.dtd">
<svg version="1.0" xmlns="http://www.w3.org/2000/svg"
 width="96.000000pt" height="68.000000pt" viewBox="0 0 96.000000 68.000000"
 preserveAspectRatio="xMidYMid meet">
<metadata>
Created by potrace 1.16, written by Peter Selinger 2001-2019
Combined from part_0.svg through part_5.svg with named groups
</metadata>
<g transform="translate(0.000000,68.000000) scale(0.100000,-0.100000)" fill="#000000" stroke="none">
<g id="part-0" class="char-part">
  <path d="M516 613 c-3 -3 -6 -15 -6 -26 0 -35 -57 -140 -115 -210 -30 -37 -51
-67 -45 -67 16 0 124 112 155 162 17 27 33 48 37 48 3 0 29 -27 56 -60 84
-100 100 -110 175 -110 69 0 96 13 49 25 -60 15 -178 79 -223 122 -41 39 -47
50 -42 73 4 21 0 31 -15 39 -10 6 -22 7 -26 4z"/>
  <path d="M237 602 c-4 -5 -2 -24 3 -43 6 -19 10 -52 10 -75 0 -45 -12 -54 -72
-54 -33 0 -58 -9 -58 -21 0 -5 29 -9 65 -9 l65 0 0 -39 c0 -37 -1 -39 -68 -70
-38 -17 -74 -31 -80 -31 -18 0 -25 -20 -12 -35 20 -24 57 -17 110 21 l49 35
-6 -68 c-3 -37 -9 -72 -13 -76 -4 -4 -18 -3 -32 2 -14 5 -28 7 -31 4 -6 -6 83
-93 95 -93 4 0 15 14 24 32 13 26 15 48 11 113 -8 96 -3 118 29 135 13 8 24
20 24 27 0 10 -5 11 -19 3 -28 -15 -31 -13 -31 20 0 25 4 30 35 36 43 8 41 28
-3 32 -26 3 -32 8 -32 28 0 14 7 41 15 61 13 30 13 39 3 50 -17 17 -74 28 -81
15z"/>
  <path d="M522 400 c-44 -10 -52 -20 -16 -20 47 0 104 12 104 21 0 11 -42 10
-88 -1z"/>
  <path d="M518 332 c-43 -9 -78 -20 -78 -24 0 -11 30 -10 89 4 28 6 54 9 57 5
4 -3 -3 -22 -15 -42 -11 -20 -21 -38 -21 -41 0 -3 27 14 60 38 48 34 58 45 48
54 -22 21 -60 23 -140 6z"/>
  <path d="M700 220 c0 -5 3 -10 8 -10 4 0 22 -14 41 -30 38 -33 54 -34 59 -3 2
16 -6 24 -38 37 -46 18 -70 20 -70 6z"/>
  <path d="M520 211 c0 -11 62 -51 79 -51 12 0 15 36 4 43 -19 11 -83 17 -83 8z"/>
  <path d="M360 175 c-23 -38 -23 -70 0 -70 20 0 50 57 43 83 -8 31 -18 28 -43
-13z"/>
  <path d="M450 186 c0 -20 41 -76 73 -100 53 -39 237 -32 237 9 0 7 -20 25 -44
39 -48 28 -68 34 -48 14 18 -18 15 -45 -5 -50 -29 -8 -102 -1 -133 12 -18 8
-36 27 -47 51 -18 39 -33 50 -33 25z"/>
</g>
<g id="part-1" class="char-part">
  <path d="M246 558 c4 -29 8 -69 9 -88 l0 -35 -70 -10 c-83 -12 -74 -29 13 -23
l57 3 -1 -38 c-1 -21 -6 -43 -11 -48 -5 -5 -44 -25 -87 -43 -71 -31 -76 -35
-61 -50 24 -23 40 -20 98 19 l52 35 3 -52 c2 -28 0 -63 -3 -76 -5 -22 -10 -24
-42 -19 l-36 6 38 -39 c68 -70 85 -49 85 107 l0 109 32 19 c34 20 23 34 -12
15 -20 -11 -21 -9 -18 27 3 35 6 38 36 41 40 4 38 26 -2 30 -26 3 -28 6 -23
45 2 23 8 52 12 64 6 17 1 24 -24 37 -49 26 -54 22 -45 -36z"/>
</g>
<g id="part-2" class="char-part">
  <path d="M510 595 c0 -45 -78 -181 -149 -257 -41 -46 -6 -31 51 21 29 27 69
74 88 104 19 31 38 56 41 57 4 0 33 -32 64 -71 32 -38 67 -77 79 -85 22 -15
166 -21 166 -6 0 4 -28 17 -63 30 -70 25 -168 85 -210 130 -24 25 -27 33 -18
50 9 16 7 24 -5 36 -24 24 -44 20 -44 -9z"/>
</g>
<g id="part-3" class="char-part">
  <path d="M520 403 c-42 -8 -47 -23 -8 -23 49 0 98 11 98 21 0 9 -45 10 -90 2z"/>
</g>
<g id="part-4" class="char-part">
  <path d="M732 195 c50 -48 65 -54 75 -29 8 22 -16 43 -73 59 l-49 15 47 -45z"/>
  <path d="M520 212 c0 -12 57 -52 75 -52 8 0 15 9 15 20 0 14 -11 22 -37 29
-46 13 -53 13 -53 3z"/>
  <path d="M361 176 c-25 -39 -27 -76 -6 -76 17 0 43 36 45 65 6 55 -9 60 -39
11z"/>
  <path d="M450 186 c0 -20 41 -76 73 -100 21 -15 47 -22 103 -24 118 -6 172 28
102 64 -18 9 -41 23 -50 32 -11 9 -18 10 -18 4 0 -6 5 -14 10 -17 18 -11 10
-43 -12 -49 -73 -19 -160 15 -180 70 -12 34 -28 46 -28 20z"/>
</g>
</g>
</svg>