<?xml version="1.0" standalone="no"?>
<!DOCTYPE svg PUBLIC "-//W3C//DTD SVG 20010904//EN"
 "http://www.w3.org/TR/2001/REC-SVG-20010904/DTD/svg10.dtd">
<svg version="1.0" xmlns="http://www.w3.org/2000/svg"
 width="96.000000pt" height="68.000000pt" viewBox="0 0 96.000000 68.000000"
 preserveAspectRatio="xMidYMid meet">
<metadata>
Created by potrace 1.16, written by Peter Selinger 2001-2019
Combined from part_0.svg through part_5.svg with named groups
</metadata>
<g transform="translate(0.000000,68.000000) scale(0.100000,-0.100000)" fill="#000000" stroke="none">
<g id="part-0" class="char-part">
  <path d="M623 548 c-12 -75 -8 -87 18 -54 13 16 26 22 39 19 26 -7 90 5 90 17
0 6 -23 10 -50 10 -48 0 -50 1 -40 21 13 24 -2 49 -29 49 -13 0 -20 -15 -28
-62z"/>
  <path d="M440 573 c0 -5 7 -17 15 -27 18 -24 5 -36 -37 -36 -16 0 -28 -5 -28
-11 0 -7 17 -10 45 -7 29 2 46 -1 50 -9 10 -29 25 -10 25 32 0 34 -5 47 -19
55 -23 12 -51 13 -51 3z"/>
  <path d="M194 559 c-3 -5 0 -26 5 -46 25 -89 4 -121 -70 -109 -41 6 -50 -3
-24 -24 8 -7 15 -19 15 -27 0 -7 7 -30 15 -50 12 -28 18 -34 27 -25 24 24 38
13 38 -27 0 -43 -10 -51 -66 -51 -40 0 -43 -12 -9 -34 23 -15 28 -15 53 -2 39
22 123 56 136 56 6 0 17 -9 24 -20 15 -25 32 -17 32 15 0 15 -11 31 -29 44
-36 26 -40 26 -34 2 3 -14 -3 -21 -26 -29 -29 -10 -31 -9 -31 13 0 38 11 55
34 55 33 0 66 11 61 21 -3 4 1 25 10 45 8 20 15 38 15 39 0 9 -61 22 -83 18
-31 -6 -33 4 -16 76 5 24 8 46 5 48 -10 11 -77 20 -82 12z m104 -181 c2 -9 -5
-24 -15 -34 -17 -17 -18 -17 -21 5 -2 12 -1 29 2 38 7 18 30 12 34 -9z m-98
-28 c0 -32 -23 -42 -34 -14 -11 29 -6 44 14 44 16 0 20 -7 20 -30z"/>
  <path d="M560 455 c0 -7 8 -19 18 -24 15 -9 15 -10 1 -11 -9 0 -31 -3 -48 -6
-26 -6 -31 -4 -31 14 0 16 -17 32 -36 32 -2 0 -10 -15 -18 -32 -8 -18 -28 -48
-45 -66 -17 -18 -31 -35 -31 -38 0 -7 38 15 45 26 22 36 36 -40 15 -80 -7 -13
-7 -28 0 -45 9 -23 13 -25 25 -15 10 8 70 15 160 20 80 4 149 10 152 14 15 15
-14 21 -88 18 -63 -2 -79 0 -79 11 0 16 41 27 96 27 19 0 34 5 34 11 0 8 -19
10 -60 6 -54 -5 -60 -3 -60 14 0 16 7 19 49 19 28 0 53 5 56 10 4 6 -15 10
-49 10 -42 0 -56 4 -56 14 0 10 16 17 48 21 65 9 82 15 82 27 0 7 -20 8 -60 4
-52 -6 -62 -4 -80 14 -24 24 -40 26 -40 5z m3 -80 c-7 -20 -94 -17 -101 3 -3
8 12 12 52 12 46 0 54 -3 49 -15z m7 -43 c0 -18 -26 -32 -61 -32 -38 0 -55 12
-44 30 7 12 105 14 105 2z m-4 -53 c10 -16 -7 -27 -53 -35 -39 -6 -43 -5 -43
14 0 15 8 22 28 25 51 8 61 7 68 -4z"/>
  <path d="M543 194 c-122 -16 -125 -17 -77 -42 22 -11 47 -28 54 -37 12 -15 12
-19 -5 -31 -11 -8 -38 -19 -60 -25 -84 -21 -93 -29 -27 -24 34 2 80 14 103 25
l40 21 47 -31 c59 -39 80 -44 154 -37 91 8 91 22 1 37 -43 7 -98 21 -122 31
l-44 19 42 36 c70 60 40 77 -106 58z m76 -31 c-38 -48 -55 -52 -95 -20 l-29
22 35 6 c19 4 50 7 69 8 30 1 32 -1 20 -16z"/>
</g>
<g id="part-1" class="char-part">
  <path d="M207 480 l6 -80 -62 0 -62 0 19 -25 c11 -14 23 -41 26 -60 7 -34 8
-35 42 -29 l34 6 0 -40 c0 -35 2 -39 20 -35 16 4 20 14 20 44 0 37 1 38 45 45
26 3 44 11 43 18 -2 6 4 26 11 44 17 41 6 52 -53 52 l-39 0 7 64 c6 60 5 64
-16 70 -46 12 -46 10 -41 -74z m91 -112 c-2 -25 -8 -34 -25 -36 -19 -3 -23 1
-23 26 0 34 6 42 32 42 16 0 19 -6 16 -32z m-88 -12 c0 -32 -20 -53 -40 -41
-13 8 -17 64 -6 69 33 14 46 6 46 -28z"/>
</g>
<g id="part-2" class="char-part">
  <path d="M301 273 c2 -19 45 -88 54 -85 6 1 10 13 10 27 0 18 -10 32 -32 46
-18 12 -33 17 -32 12z"/>
</g>
<g id="part-3" class="char-part">
  <path d="M623 543 c-7 -37 -10 -69 -8 -71 1 -2 11 5 21 16 12 12 39 21 73 25
29 4 56 9 59 12 12 11 -11 19 -53 17 -44 -2 -44 -1 -33 24 10 21 9 27 -3 35
-34 21 -45 10 -56 -58z"/>
  <path d="M440 572 c0 -4 7 -17 15 -30 15 -21 15 -22 -25 -28 -22 -4 -40 -10
-40 -14 0 -13 30 -20 56 -14 17 4 31 0 44 -11 20 -18 20 -17 20 31 0 28 -5 55
-12 62 -13 13 -58 17 -58 4z"/>
</g>
<g id="part-4" class="char-part">
  <path d="M451 437 c-5 -12 -25 -44 -45 -70 -25 -33 -31 -45 -17 -37 11 5 23
15 26 20 23 37 35 -33 15 -85 -7 -18 -7 -33 1 -47 11 -21 12 -21 26 -3 9 14
13 43 11 96 -3 68 0 81 19 103 22 25 22 26 3 36 -26 14 -29 13 -39 -13z"/>
</g>
<g id="part-5" class="char-part">
  <path d="M585 190 c-3 -6 1 -7 9 -4 18 7 21 14 7 14 -6 0 -13 -4 -16 -10z"/>
  <path d="M626 192 c8 -5 7 -16 -2 -37 -7 -16 -13 -27 -14 -22 0 4 -10 1 -23
-7 -21 -14 -26 -14 -57 5 l-35 21 33 -31 c34 -32 40 -44 19 -35 -8 3 -25 -4
-38 -15 -13 -11 -19 -20 -12 -21 6 0 18 7 26 15 8 8 17 12 19 9 3 -2 17 0 32
6 15 5 25 6 22 2 -7 -11 76 -63 91 -58 7 3 13 1 13 -5 0 -6 4 -8 8 -5 5 3 30
6 56 7 48 3 77 19 34 19 -13 0 -55 9 -93 19 -48 14 -71 16 -74 9 -2 -6 -9 0
-16 13 -12 21 -10 26 27 58 37 32 38 36 22 48 -10 7 -25 13 -33 13 -10 0 -12
-3 -5 -8z"/>
  <path d="M492 180 c-12 -5 -30 -7 -40 -4 -14 5 -14 3 2 -10 22 -18 36 -20 36
-6 0 5 15 14 33 19 18 5 24 9 12 9 -11 1 -30 -3 -43 -8z"/>
  <path d="M465 50 c3 -5 8 -10 11 -10 2 0 4 5 4 10 0 6 -5 10 -11 10 -5 0 -7
-4 -4 -10z"/>
</g>
</g>
</svg>