<?xml version="1.0" standalone="no"?>
<!DOCTYPE svg PUBLIC "-//W3C//DTD SVG 20010904//EN"
 "http://www.w3.org/TR/2001/REC-SVG-20010904/DTD/svg10.dtd">
<svg version="1.0" xmlns="http://www.w3.org/2000/svg"
 width="96.000000pt" height="68.000000pt" viewBox="0 0 96.000000 68.000000"
 preserveAspectRatio="xMidYMid meet">
<metadata>
Created by potrace 1.16, written by Peter Selinger 2001-2019
Combined from part_0.svg through part_5.svg with named groups
</metadata>
<g transform="translate(0.000000,68.000000) scale(0.100000,-0.100000)" fill="#000000" stroke="none">
<g id="part-0" class="char-part">
  <path d="M533 531 c0 -27 -3 -53 -7 -59 -3 -5 -40 -13 -83 -17 -60 -5 -73 -9
-59 -17 11 -6 44 -8 76 -5 l58 6 -10 -39 c-10 -38 -12 -40 -50 -40 l-40 0 6
-37 c3 -21 7 -85 8 -143 l3 -105 -65 -5 c-63 -5 -64 -6 -36 -18 22 -9 43 -10
80 -3 28 6 133 13 234 17 100 4 182 10 182 14 0 12 -40 20 -104 20 l-58 0 6
98 c4 53 9 113 12 133 4 31 2 37 -21 47 -19 9 -38 9 -72 2 -25 -6 -47 -9 -49
-7 -2 2 2 19 8 39 l11 37 88 7 c89 7 112 18 64 30 -26 6 -88 0 -121 -13 -18
-6 -17 4 1 63 5 18 1 23 -26 33 -17 6 -33 11 -34 11 -1 0 -2 -22 -2 -49z m97
-201 c0 -26 -4 -30 -27 -30 -16 0 -52 -3 -80 -6 -52 -7 -53 -6 -53 19 0 20 6
28 23 31 12 3 31 7 42 9 11 3 37 5 58 6 35 1 37 -1 37 -29z m0 -99 l0 -59 -67
-8 c-38 -4 -72 -8 -78 -9 -5 0 -11 10 -13 22 -3 23 4 25 101 39 78 10 55 26
-28 18 -72 -6 -75 -6 -75 15 0 18 6 21 38 22 29 0 106 12 120 18 1 0 2 -25 2
-58z m-40 -143 c-25 -3 -62 -7 -82 -7 -36 -1 -38 1 -38 29 0 28 3 30 38 31 20
0 55 3 77 7 39 7 40 7 45 -23 5 -29 3 -30 -40 -37z"/>
  <path d="M318 505 c-3 -3 -45 -11 -94 -18 -97 -14 -113 -30 -34 -35 42 -3 50
-6 50 -23 0 -28 -15 -53 -72 -126 -26 -35 -44 -63 -39 -63 5 0 14 7 21 15 19
23 33 18 72 -22 l37 -38 -28 -37 c-15 -20 -47 -53 -72 -73 -58 -48 -56 -47
-34 -39 61 21 138 102 202 208 20 34 43 69 51 78 25 30 5 41 -65 34 l-65 -7
26 34 c29 38 32 53 14 60 -7 3 -1 6 13 6 73 2 126 51 56 51 -19 0 -36 -2 -39
-5z m7 -177 c-8 -28 -26 -69 -39 -86 -7 -10 -13 -9 -28 5 -11 10 -31 22 -45
28 l-25 10 21 27 c20 25 41 33 99 37 20 1 22 -3 17 -21z"/>
</g>
<g id="part-1" class="char-part">
  <path d="M242 486 c-102 -21 -124 -36 -51 -36 41 0 189 26 198 35 7 7 -20 25
-34 23 -5 0 -56 -10 -113 -22z"/>
</g>
<g id="part-2" class="char-part">
  <path d="M254 452 c-6 -4 -14 -19 -17 -33 -7 -29 -65 -118 -106 -163 l-26 -28
31 16 c18 8 47 33 66 55 27 32 42 40 82 46 47 7 48 7 41 -16 -22 -72 -111
-198 -174 -249 -55 -45 -44 -50 19 -10 59 38 98 84 169 199 46 74 50 86 37 99
-12 12 -22 13 -60 3 -67 -17 -70 -14 -37 26 23 28 28 40 19 50 -12 14 -27 16
-44 5z"/>
</g>
<g id="part-3" class="char-part">
  <path d="M530 526 c0 -64 3 -62 -93 -71 -43 -4 -65 -10 -61 -17 4 -7 31 -8 75
-4 l68 6 -10 -32 c-12 -45 -12 -47 11 -41 12 3 24 20 31 44 l12 38 88 7 c49 3
89 10 89 15 0 16 -49 21 -105 12 -48 -9 -55 -8 -55 6 0 9 7 26 15 38 17 24 7
37 -38 48 l-27 7 0 -56z"/>
</g>
<g id="part-4" class="char-part">
  <path d="M595 379 c-16 -5 -64 -11 -105 -14 -56 -2 -74 -7 -72 -17 9 -33 11
-54 13 -140 2 -107 6 -128 25 -128 10 0 14 15 14 59 0 68 -3 66 100 76 l65 6
0 -63 c0 -49 3 -63 15 -63 12 0 17 19 22 85 3 47 9 108 12 136 5 47 4 52 -20
62 -28 14 -29 14 -69 1z m35 -49 c0 -26 -4 -30 -27 -30 -16 0 -52 -3 -81 -7
l-54 -6 4 29 c3 25 8 30 43 35 22 3 57 7 78 8 35 1 37 -1 37 -29z m3 -52 c10
-31 -4 -43 -46 -43 -23 0 -59 -4 -79 -8 -36 -7 -38 -6 -38 16 0 22 5 25 73 34
39 6 75 11 79 12 3 0 8 -5 11 -11z"/>
</g>
<g id="part-5" class="char-part">
  <path d="M711 89 c8 -5 4 -9 -12 -11 -13 -2 9 -4 49 -4 39 1 72 4 72 8 0 5
-10 8 -22 9 -13 0 -40 1 -61 3 -21 2 -33 0 -26 -5z"/>
  <path d="M630 81 c0 -5 9 -7 20 -4 11 3 20 7 20 9 0 2 -9 4 -20 4 -11 0 -20
-4 -20 -9z"/>
  <path d="M472 68 c16 -10 45 -10 51 0 3 4 -10 7 -29 8 -21 0 -30 -3 -22 -8z"/>
  <path d="M573 73 c9 -2 25 -2 35 0 9 3 1 5 -18 5 -19 0 -27 -2 -17 -5z"/>
  <path d="M365 60 c-18 -8 -18 -9 5 -8 14 0 36 4 50 8 24 8 24 8 -5 8 -16 0
-39 -3 -50 -8z"/>
</g>
</g>
</svg>