<?xml version="1.0" standalone="no"?>
<!DOCTYPE svg PUBLIC "-//W3C//DTD SVG 20010904//EN"
 "http://www.w3.org/TR/2001/REC-SVG-20010904/DTD/svg10.dtd">
<svg version="1.0" xmlns="http://www.w3.org/2000/svg"
 width="96.000000pt" height="68.000000pt" viewBox="0 0 96.000000 68.000000"
 preserveAspectRatio="xMidYMid meet">
<metadata>
Created by potrace 1.16, written by Peter Selinger 2001-2019
Combined from part_0.svg through part_5.svg with named groups
</metadata>
<g transform="translate(0.000000,68.000000) scale(0.100000,-0.100000)" fill="#000000" stroke="none">
<g id="part-0" class="char-part">
  <path d="M295 590 c-3 -5 -1 -28 5 -51 6 -22 9 -43 6 -47 -3 -3 -31 -5 -61 -6
-30 -1 -55 -2 -55 -4 0 -2 7 -10 15 -18 24 -24 18 -44 -12 -44 -16 0 -35 -5
-43 -10 -11 -7 -2 -10 31 -10 38 0 48 -4 56 -23 9 -19 17 -23 42 -19 26 4 31
1 31 -17 0 -22 -12 -25 -93 -21 l-38 2 24 -39 c21 -32 29 -38 56 -35 36 3 48
-15 32 -46 -9 -17 -26 -21 -101 -27 -49 -4 -90 -11 -90 -16 0 -18 28 -20 90
-9 34 6 65 8 69 4 3 -4 0 -9 -6 -11 -25 -9 -13 -22 29 -34 38 -10 40 -12 23
-22 -11 -6 -45 -19 -75 -28 -30 -10 -45 -18 -33 -18 13 -1 52 9 88 20 l65 22
38 -27 c38 -26 72 -34 72 -17 0 9 -31 36 -66 57 -17 10 -17 12 4 46 24 39 39
48 79 48 41 0 19 12 -39 21 -30 5 -55 5 -58 0 -3 -5 -18 -13 -34 -17 -26 -6
-27 -5 -17 15 7 12 9 26 6 31 -6 10 28 15 73 11 14 -1 32 9 47 26 l24 28 -20
17 c-16 13 -31 16 -65 11 -40 -5 -44 -4 -44 16 0 18 6 21 39 21 33 0 40 4 51
29 9 23 20 30 51 35 25 4 37 10 33 17 -3 6 -17 9 -31 6 -18 -3 -23 -1 -18 11
12 33 -74 58 -104 30 -11 -11 -13 -5 -8 35 4 44 3 49 -20 58 -31 11 -40 11
-48 -1z m123 -122 c-2 -18 -11 -24 -35 -26 -27 -3 -33 0 -33 17 0 18 13 25 58
30 8 0 12 -7 10 -21z m-108 -18 c0 -16 -7 -20 -35 -20 -28 0 -35 4 -35 20 0
16 7 20 35 20 28 0 35 -4 35 -20z m106 -31 c8 -14 -4 -25 -37 -33 -21 -4 -28
-2 -32 14 -3 14 1 20 17 23 38 8 45 7 52 -4z m-106 -17 c0 -25 -7 -31 -31 -25
-24 7 -25 30 -1 36 30 8 32 7 32 -11z m108 -110 c3 -19 -1 -22 -32 -22 -29 0
-36 4 -36 19 0 12 8 21 23 24 33 6 42 2 45 -21z m-108 -7 c0 -22 -4 -25 -35
-25 -19 0 -35 5 -35 10 0 6 0 13 0 18 -1 4 14 10 32 13 18 4 34 7 36 8 1 0 2
-10 2 -24z m70 -116 c0 -31 -22 -49 -60 -49 -21 0 -41 3 -44 8 -9 15 21 41 55
45 18 2 37 5 42 5 4 1 7 -3 7 -9z"/>
  <path d="M590 498 c-7 -29 -27 -82 -46 -117 -35 -67 -37 -86 -6 -58 10 10 33
17 50 17 30 0 32 -2 31 -32 -1 -18 -6 -50 -11 -71 l-9 -39 -26 26 c-14 14 -33
26 -42 26 -11 -1 -6 -9 17 -29 17 -15 32 -34 32 -42 0 -19 -35 -51 -80 -74
-19 -10 -29 -20 -22 -23 11 -3 61 18 111 49 18 12 26 7 76 -40 55 -52 58 -53
102 -47 25 3 52 6 60 6 33 0 3 24 -49 40 -32 10 -78 30 -103 45 -39 23 -46 30
-40 48 4 12 14 48 24 80 15 56 15 59 -2 72 -16 11 -11 14 43 20 33 4 62 11 65
16 10 16 -46 22 -88 9 -23 -7 -57 -15 -74 -17 l-33 -3 22 37 c12 21 25 40 28
43 3 3 13 23 21 46 15 39 15 42 -2 52 -31 19 -36 14 -49 -40z"/>
</g>
<g id="part-1" class="char-part">
  <path d="M304 560 c3 -18 6 -40 6 -50 0 -12 6 -16 23 -13 19 4 22 11 22 46 0
39 -2 42 -29 45 -28 3 -29 2 -22 -28z"/>
</g>
<g id="part-2" class="char-part">
  <path d="M295 221 c-7 -35 -14 -37 -118 -47 -79 -7 -104 -17 -66 -29 19 -6 42
-4 124 11 24 5 28 4 18 -7 -20 -20 -16 -28 20 -37 17 -4 31 -12 31 -18 -1 -5
-30 -19 -65 -32 l-64 -22 50 6 c27 3 66 13 87 21 36 15 38 14 83 -18 31 -22
49 -29 56 -22 15 15 1 40 -32 53 -41 17 -43 24 -17 64 18 27 32 37 62 42 26 4
35 9 25 14 -24 13 -102 21 -108 12 -3 -5 -16 -12 -28 -16 -19 -6 -22 -4 -20
21 3 40 -29 44 -38 4z m85 -54 c0 -29 -37 -50 -76 -43 -34 7 -35 8 -19 26 9
10 31 21 49 23 17 2 34 5 39 5 4 1 7 -4 7 -11z"/>
</g>
<g id="part-3" class="char-part">
  <path d="M594 523 c-14 -63 -28 -101 -61 -162 -31 -58 -32 -63 -11 -48 32 24
31 24 146 38 56 7 102 16 102 20 0 18 -52 20 -113 5 -86 -22 -93 -21 -73 7 9
12 29 47 46 78 28 54 28 57 11 73 -26 23 -40 20 -47 -11z"/>
</g>
<g id="part-4" class="char-part">
  <path d="M616 278 c-3 -34 -10 -66 -14 -70 -5 -5 -19 3 -32 17 -13 14 -33 25
-44 25 -16 0 -14 -5 14 -25 19 -14 38 -31 42 -39 9 -16 -32 -56 -87 -84 -22
-12 -35 -21 -29 -22 21 0 79 23 113 46 l34 23 47 -52 c48 -52 48 -52 105 -50
91 4 95 16 13 42 -88 29 -151 68 -144 90 42 136 43 161 8 161 -16 0 -20 -10
-26 -62z"/>
</g>
</g>
</svg>