<?xml version="1.0" standalone="no"?>
<!DOCTYPE svg PUBLIC "-//W3C//DTD SVG 20010904//EN"
 "http://www.w3.org/TR/2001/REC-SVG-20010904/DTD/svg10.dtd">
<svg version="1.0" xmlns="http://www.w3.org/2000/svg"
 width="96.000000pt" height="68.000000pt" viewBox="0 0 96.000000 68.000000"
 preserveAspectRatio="xMidYMid meet">
<metadata>
Created by potrace 1.16, written by Peter Selinger 2001-2019
Combined from part_0.svg through part_5.svg with named groups
</metadata>
<g transform="translate(0.000000,68.000000) scale(0.100000,-0.100000)" fill="#000000" stroke="none">
<g id="part-0" class="char-part">
  <path d="M263 579 c-8 -8 0 -22 33 -50 49 -42 65 -47 83 -25 25 29 -19 66 -80
66 -18 0 -28 4 -24 10 8 13 2 13 -12 -1z"/>
  <path d="M552 578 c-7 -7 -12 -18 -12 -26 0 -17 -35 -78 -62 -108 -24 -27 -14
-58 16 -50 44 13 106 18 106 10 -1 -30 -30 -44 -101 -49 -100 -8 -128 -14
-109 -24 8 -4 49 -5 90 -1 100 9 101 7 98 -135 l-3 -110 -32 0 c-18 0 -33 -2
-33 -6 0 -12 57 -59 72 -59 37 0 43 28 42 182 l-1 148 103 0 c58 0 106 4 109
10 12 19 -27 23 -122 14 -52 -5 -96 -7 -99 -3 -2 3 24 38 56 77 58 69 60 72
39 83 -17 9 -33 7 -76 -6 -60 -19 -75 -15 -50 13 21 24 21 29 -1 41 -13 7 -23
6 -30 -1z m88 -91 c0 -27 -28 -49 -71 -57 -43 -8 -70 -4 -52 9 5 3 16 18 26
34 14 22 25 27 57 27 26 0 40 -4 40 -13z"/>
  <path d="M295 435 c-27 -8 -74 -17 -102 -21 -29 -3 -53 -10 -53 -14 0 -18 41
-20 98 -5 33 8 65 15 71 15 34 0 -17 -70 -132 -182 -38 -38 -66 -68 -62 -68
10 0 74 40 100 62 11 9 31 26 44 37 13 12 26 21 29 21 3 0 2 -48 -2 -108 -5
-86 -4 -111 8 -127 14 -19 15 -19 26 10 7 20 9 58 5 112 -8 89 -2 99 39 68 25
-19 46 -19 46 0 0 8 -21 25 -47 37 -26 13 -49 29 -51 36 -2 7 17 33 42 59 25
25 46 49 46 53 0 6 -47 32 -53 29 -1 0 -24 -7 -52 -14z"/>
  <path d="M720 311 c0 -5 -12 -24 -26 -41 -15 -17 -25 -33 -23 -35 2 -2 28 8
58 21 52 24 53 25 36 44 -19 21 -45 27 -45 11z"/>
  <path d="M455 250 c30 -32 49 -37 61 -18 10 16 -33 48 -64 48 l-26 0 29 -30z"/>
  <path d="M515 184 c-10 -8 -43 -22 -72 -31 -38 -12 -53 -21 -51 -32 2 -9 12
-17 23 -19 19 -2 31 6 103 65 30 24 28 39 -3 17z"/>
  <path d="M666 182 c98 -84 144 -110 144 -81 0 25 -24 50 -66 69 -46 20 -97 28
-78 12z"/>
</g>
<g id="part-1" class="char-part">
  <path d="M276 549 c22 -25 66 -49 89 -49 8 0 15 9 15 21 0 23 -51 49 -96 49
-27 0 -27 0 -8 -21z"/>
</g>
<g id="part-2" class="char-part">
  <path d="M254 313 c-57 -67 -100 -110 -132 -131 -12 -8 -21 -17 -18 -19 9 -9
74 27 129 71 l57 47 0 -58 c0 -32 -4 -75 -9 -96 -9 -40 2 -97 20 -97 22 0 31
45 24 120 -8 93 -3 107 31 86 30 -20 54 -20 54 -1 0 9 -19 24 -44 35 -54 23
-61 34 -42 62 21 29 20 38 -3 38 -10 0 -40 -25 -67 -57z"/>
</g>
<g id="part-3" class="char-part">
  <path d="M540 550 c-6 -21 -26 -60 -45 -85 -54 -70 -45 -83 43 -64 74 16 94
33 30 26 -27 -2 -48 0 -48 5 0 5 18 36 40 70 32 47 38 63 29 74 -20 24 -38 15
-49 -26z"/>
</g>
<g id="part-4" class="char-part">
  <path d="M657 533 c-4 -3 -28 -12 -54 -19 l-48 -13 43 0 c23 -1 42 -6 42 -11
0 -6 -14 -37 -30 -70 -17 -33 -26 -60 -22 -60 5 0 39 36 75 80 62 73 66 80 48
90 -22 11 -45 13 -54 3z"/>
</g>
<g id="part-5" class="char-part">
  <path d="M578 313 c5 -10 7 -24 4 -32 -2 -8 0 -11 5 -8 9 6 8 -75 -3 -162 -5
-39 -8 -43 -30 -38 -23 4 -24 3 -11 -17 8 -11 23 -22 34 -24 34 -5 45 42 41
175 -4 114 -5 118 -27 121 -19 3 -21 1 -13 -15z"/>
  <path d="M703 275 l-21 -34 41 21 c54 28 54 27 37 38 -24 15 -34 11 -57 -25z"/>
  <path d="M462 253 c20 -21 48 -31 48 -17 0 12 -34 38 -51 39 -18 2 -18 0 3
-22z"/>
  <path d="M700 165 c7 -8 22 -15 34 -15 15 0 17 -3 8 -9 -11 -6 -7 -13 15 -28
31 -22 55 -20 46 3 -6 16 -83 64 -103 64 -10 0 -10 -3 0 -15z"/>
  <path d="M436 144 c-44 -16 -63 -30 -29 -22 16 4 20 2 16 -9 -5 -12 0 -12 23
3 16 10 35 24 42 31 18 17 0 16 -52 -3z"/>
</g>
</g>
</svg>