<?xml version="1.0" standalone="no"?>
<!DOCTYPE svg PUBLIC "-//W3C//DTD SVG 20010904//EN"
 "http://www.w3.org/TR/2001/REC-SVG-20010904/DTD/svg10.dtd">
<svg version="1.0" xmlns="http://www.w3.org/2000/svg"
 width="96.000000pt" height="68.000000pt" viewBox="0 0 96.000000 68.000000"
 preserveAspectRatio="xMidYMid meet">
<metadata>
Created by potrace 1.16, written by Peter Selinger 2001-2019
Combined from part_0.svg through part_5.svg with named groups
</metadata>
<g transform="translate(0.000000,68.000000) scale(0.100000,-0.100000)" fill="#000000" stroke="none">
<g id="part-0" class="char-part">
  <path d="M435 521 c-6 -28 -69 -122 -87 -129 -15 -7 -8 -24 8 -18 20 8 84 -19
84 -36 0 -12 -12 -23 -83 -80 -60 -48 37 3 110 57 9 7 21 5 37 -5 121 -76 119
-75 186 -75 36 0 79 4 95 9 28 8 28 9 9 16 -11 5 -47 11 -80 15 -48 5 -99 18
-164 41 -3 1 -15 5 -27 9 -13 4 -23 11 -23 17 0 5 18 33 40 63 49 66 40 81
-42 70 l-53 -7 29 30 c31 33 28 52 -9 52 -18 0 -25 -7 -30 -29z m75 -76 c0
-17 -28 -65 -44 -77 -9 -6 -52 8 -70 24 -14 11 25 45 65 57 47 13 49 13 49 -4z"/>
  <path d="M222 490 c-13 -28 -40 -64 -62 -82 -42 -33 -48 -49 -26 -67 9 -8 21
-8 45 0 18 6 35 8 38 5 7 -7 -76 -85 -89 -86 -15 0 -8 -19 10 -29 12 -6 29 -4
57 10 59 27 105 35 116 18 8 -12 11 -12 19 1 6 10 5 21 -4 35 -16 25 -52 34
-43 12 4 -11 -4 -19 -25 -26 -75 -26 -74 -13 8 63 75 71 78 75 62 92 -17 17
-18 17 -33 -1 -8 -11 -15 -25 -15 -31 0 -11 -44 -24 -78 -24 -10 0 6 22 41 58
58 59 69 85 41 96 -31 12 -39 5 -62 -44z"/>
  <path d="M650 504 c-6 -14 -10 -29 -10 -33 0 -7 -14 -27 -58 -82 -31 -38 -12
-37 31 1 19 17 39 30 43 30 5 0 29 -18 54 -40 51 -46 70 -50 70 -16 0 20 -11
30 -55 51 -48 22 -72 45 -47 45 4 0 13 9 20 21 10 16 10 24 1 35 -18 22 -38
17 -49 -12z"/>
  <path d="M290 221 c0 -5 9 -19 19 -32 17 -21 20 -22 26 -7 4 10 1 24 -8 33
-17 17 -37 20 -37 6z"/>
  <path d="M515 204 c-38 -7 -85 -10 -102 -7 l-33 5 14 -27 c8 -16 18 -47 22
-69 7 -45 24 -73 33 -57 4 5 52 13 109 17 56 4 102 11 102 15 0 5 -5 9 -11 9
-14 0 -2 37 23 73 11 16 19 30 17 31 -33 28 -68 30 -174 10z m88 -44 c-7 -65
-9 -67 -75 -74 -34 -3 -65 -3 -69 1 -4 5 -9 26 -11 47 -3 39 -3 40 37 44 22 2
42 6 45 8 2 3 20 4 40 2 31 -3 35 -6 33 -28z"/>
  <path d="M228 170 c9 -16 23 -30 30 -30 19 0 14 38 -7 50 -33 17 -41 11 -23
-20z"/>
  <path d="M130 169 c0 -19 34 -69 47 -69 19 0 25 18 11 39 -14 24 -58 46 -58
30z"/>
</g>
<g id="part-1" class="char-part">
  <path d="M236 510 c-3 -17 -28 -54 -56 -84 -27 -29 -50 -58 -50 -64 0 -20 20
-24 58 -12 65 20 69 23 34 29 l-32 6 26 30 c15 17 41 45 58 63 30 32 30 34 12
48 -30 21 -43 17 -50 -16z"/>
</g>
<g id="part-2" class="char-part">
  <path d="M297 200 c9 -16 23 -30 30 -30 20 0 15 38 -6 50 -35 18 -43 11 -24
-20z"/>
  <path d="M225 170 c9 -16 22 -30 30 -30 22 0 18 38 -4 50 -35 18 -42 12 -26
-20z"/>
  <path d="M142 139 c28 -47 51 -57 56 -23 3 23 -21 48 -57 59 l-24 7 25 -43z"/>
</g>
<g id="part-3" class="char-part">
  <path d="M430 522 c-5 -22 -25 -58 -42 -82 -69 -90 -66 -85 -33 -67 32 16 72
57 119 121 27 37 28 40 10 53 -29 21 -43 15 -54 -25z"/>
</g>
<g id="part-4" class="char-part">
  <path d="M650 515 c0 -24 -39 -97 -68 -127 -35 -37 -11 -36 31 2 19 17 38 30
42 30 3 0 28 -18 54 -40 54 -46 71 -50 71 -16 0 19 -10 29 -43 45 -24 12 -49
21 -55 21 -18 0 -15 14 9 44 17 21 19 29 9 41 -16 20 -50 19 -50 0z"/>
</g>
<g id="part-5" class="char-part">
  <path d="M617 212 c-24 -3 -25 -5 -12 -18 17 -18 20 -40 5 -49 -5 -3 -10 -11
-10 -16 0 -6 5 -7 11 -4 6 4 5 -2 -3 -14 -7 -12 -17 -21 -23 -21 -5 0 -3 -5 5
-10 8 -5 26 -9 40 -9 l25 1 -25 8 c-17 5 -19 8 -7 9 9 1 17 8 17 16 0 17 16
49 40 79 10 13 11 17 2 12 -8 -5 -18 -2 -25 6 -7 7 -24 12 -40 10z"/>
  <path d="M508 200 c-69 -9 -70 -19 -1 -13 32 3 59 7 61 8 9 8 -18 10 -60 5z"/>
  <path d="M397 180 c3 -11 9 -23 14 -26 5 -3 9 -16 9 -30 0 -16 5 -24 18 -23 9
0 12 3 6 5 -7 3 -10 13 -7 23 5 19 -23 71 -37 71 -5 0 -6 -9 -3 -20z"/>
  <path d="M430 76 c0 -8 5 -18 10 -21 6 -3 10 -1 10 5 0 8 10 10 28 6 31 -7 12
7 -25 18 -17 5 -23 3 -23 -8z"/>
  <path d="M540 80 c-12 -8 -11 -10 8 -10 12 0 22 5 22 10 0 13 -11 13 -30 0z"/>
</g>
</g>
</svg>