<?xml version="1.0" standalone="no"?>
<!DOCTYPE svg PUBLIC "-//W3C//DTD SVG 20010904//EN"
 "http://www.w3.org/TR/2001/REC-SVG-20010904/DTD/svg10.dtd">
<svg version="1.0" xmlns="http://www.w3.org/2000/svg"
 width="96.000000pt" height="68.000000pt" viewBox="0 0 96.000000 68.000000"
 preserveAspectRatio="xMidYMid meet">
<metadata>
Created by potrace 1.16, written by Peter Selinger 2001-2019
Combined from part_0.svg through part_5.svg with named groups
</metadata>
<g transform="translate(0.000000,68.000000) scale(0.100000,-0.100000)" fill="#000000" stroke="none">
<g id="part-0" class="char-part">
  <path d="M557 581 l6 -41 -39 -1 c-22 -1 -50 -5 -64 -9 -18 -6 -6 -8 43 -9 59
-1 67 -3 65 -18 -4 -24 -18 -33 -50 -33 -15 0 -30 -5 -34 -11 -5 -9 6 -10 42
-5 27 3 73 9 102 12 28 4 52 11 52 17 0 5 -15 7 -36 4 -26 -4 -37 -2 -41 9 -9
23 8 34 65 41 63 7 58 25 -6 22 -45 -3 -47 -2 -52 26 -4 23 -11 31 -32 33 -25
3 -26 2 -21 -37z"/>
  <path d="M250 568 c0 -49 -111 -233 -157 -261 -7 -4 -13 -12 -13 -17 0 -21 29
-8 73 31 52 45 90 50 95 12 3 -23 -8 -28 -68 -35 -41 -5 -24 -23 25 -26 l46
-3 -3 -56 c-2 -31 -8 -58 -14 -60 -6 -2 -9 7 -6 25 3 23 -1 30 -23 40 -52 24
-61 5 -19 -39 l27 -28 -27 -7 c-14 -3 -38 -4 -51 -1 -35 6 -43 -12 -15 -35 26
-21 62 -23 93 -6 37 20 180 68 187 63 4 -3 11 -21 14 -40 7 -38 13 -39 79 -29
21 4 36 12 34 18 -2 6 2 24 10 39 8 16 13 30 11 32 -7 7 -54 7 -70 0 -21 -9
-14 -27 7 -18 23 8 18 -34 -5 -47 -28 -15 -43 -3 -37 29 5 23 2 27 -21 30 -43
6 -65 5 -94 -3 l-28 -8 0 60 0 59 40 7 c22 3 40 10 40 15 0 11 -48 24 -60 16
-6 -4 -10 4 -10 17 0 17 9 27 33 37 31 12 31 13 10 23 -16 8 -38 8 -75 0 -29
-5 -54 -9 -55 -8 -1 1 14 27 35 58 l37 55 37 -29 c37 -31 58 -30 58 1 0 16
-21 32 -62 45 -10 3 -18 14 -18 24 0 23 -19 42 -42 42 -12 0 -18 -8 -18 -22z"/>
  <path d="M699 446 c-2 -2 -67 -12 -144 -21 -77 -10 -144 -21 -150 -26 -12 -12
24 -11 117 0 40 6 104 13 141 16 l69 7 -7 -31 -6 -30 50 22 c28 12 51 26 51
30 0 19 -106 48 -121 33z"/>
  <path d="M527 373 c-43 -5 -40 -23 4 -23 22 0 29 -5 29 -20 0 -16 -7 -20 -32
-20 -18 0 -44 -3 -57 -7 -20 -5 -22 -8 -8 -12 14 -5 229 11 247 18 17 7 -42
18 -72 14 -34 -5 -38 -3 -38 16 0 16 6 21 24 21 14 0 28 5 31 10 6 10 -48 11
-128 3z"/>
  <path d="M715 278 c-44 -3 -134 -12 -200 -19 -66 -7 -124 -12 -130 -10 -39 13
-44 11 -60 -19 -23 -45 -15 -54 25 -27 27 19 54 25 120 30 47 4 113 10 148 13
l62 7 0 -30 c0 -29 -2 -31 -51 -37 -64 -9 -56 -21 11 -17 l50 2 -3 -58 c-2
-56 -3 -58 -29 -58 -34 1 -35 -5 -4 -34 17 -16 31 -21 45 -16 19 6 21 15 22
83 1 42 1 80 0 85 0 4 18 7 42 7 39 1 41 2 23 15 -11 8 -28 13 -38 9 -10 -3
-18 -1 -18 5 0 5 -3 16 -6 25 -5 13 2 16 44 16 53 0 82 7 82 20 0 13 -50 16
-135 8z"/>
  <path d="M590 130 c0 -5 10 -20 23 -32 l22 -23 3 24 c4 23 -11 41 -35 41 -7 0
-13 -4 -13 -10z"/>
</g>
<g id="part-1" class="char-part">
  <path d="M247 542 c-8 -45 -65 -143 -125 -212 -24 -28 -39 -50 -34 -50 8 0 91
67 103 83 4 5 17 7 30 5 19 -2 25 -10 27 -34 3 -29 1 -31 -45 -41 l-48 -10 53
-2 52 -1 0 -64 c0 -63 0 -64 -31 -70 -17 -3 -51 -6 -75 -6 -50 0 -56 -12 -18
-37 23 -14 30 -15 58 -4 31 13 189 71 194 71 1 0 2 4 2 9 0 6 -12 6 -32 0 -56
-16 -58 -14 -58 51 l0 60 40 6 c47 8 44 24 -5 24 -29 0 -33 3 -31 26 1 19 8
27 29 31 15 3 27 9 27 13 0 16 -32 19 -80 8 -28 -6 -53 -9 -56 -6 -7 8 62 118
74 118 5 0 19 -11 32 -25 25 -27 45 -32 55 -15 10 16 -14 39 -49 48 -17 5 -31
15 -31 23 -1 23 -15 39 -34 39 -14 0 -20 -10 -24 -38z"/>
  <path d="M328 225 c-8 -19 -12 -35 -7 -35 17 0 62 47 55 58 -13 22 -32 12 -48
-23z"/>
  <path d="M180 190 c24 -34 50 -39 50 -10 0 20 -27 40 -55 40 -14 0 -13 -4 5
-30z"/>
</g>
<g id="part-2" class="char-part">
  <path d="M557 585 c6 -45 6 -45 -24 -45 -17 0 -46 -3 -64 -7 -30 -7 -27 -9 31
-13 57 -4 65 -8 65 -25 0 -16 -8 -21 -35 -23 -41 -4 -66 -22 -29 -22 13 1 62
7 109 14 61 9 78 15 60 19 -14 4 -33 6 -42 4 -9 -1 -17 1 -17 6 -3 34 0 37 38
37 22 0 46 3 55 6 29 11 5 24 -45 24 -45 0 -49 2 -49 25 0 14 -8 29 -19 35
-35 18 -41 12 -34 -35z"/>
</g>
<g id="part-3" class="char-part">
  <path d="M553 427 c-84 -11 -153 -24 -153 -29 0 -11 37 -10 180 7 164 19 153
20 145 -15 l-6 -29 50 22 c28 12 51 25 51 29 0 13 -58 38 -87 37 -15 -1 -97
-11 -180 -22z"/>
</g>
<g id="part-4" class="char-part">
  <path d="M590 130 c0 -16 40 -51 50 -45 13 8 1 34 -21 45 -23 13 -29 13 -29 0z"/>
</g>
</g>
</svg>