<?xml version="1.0" standalone="no"?>
<!DOCTYPE svg PUBLIC "-//W3C//DTD SVG 20010904//EN"
 "http://www.w3.org/TR/2001/REC-SVG-20010904/DTD/svg10.dtd">
<svg version="1.0" xmlns="http://www.w3.org/2000/svg"
 width="96.000000pt" height="68.000000pt" viewBox="0 0 96.000000 68.000000"
 preserveAspectRatio="xMidYMid meet">
<metadata>
Created by potrace 1.16, written by Peter Selinger 2001-2019
Combined from part_0.svg through part_5.svg with named groups
</metadata>
<g transform="translate(0.000000,68.000000) scale(0.100000,-0.100000)" fill="#000000" stroke="none">
<g id="part-0" class="char-part">
  <path d="M254 597 c-3 -8 0 -26 6 -41 5 -15 10 -47 10 -70 l0 -44 -55 -7 c-30
-3 -55 -10 -55 -15 0 -14 40 -22 76 -15 l34 6 0 -43 0 -43 -80 -39 c-44 -21
-80 -41 -80 -43 0 -9 34 -32 47 -33 7 0 36 17 65 37 l51 37 -6 -33 c-4 -18 -7
-54 -7 -79 l0 -45 -34 6 c-29 5 -34 3 -33 -13 1 -10 4 -17 8 -14 4 2 19 -7 33
-21 14 -14 31 -25 39 -25 30 0 37 24 37 139 l0 116 35 23 c19 12 35 27 35 32
0 13 -6 13 -40 -5 -30 -15 -30 -15 -30 14 0 29 14 41 51 41 31 0 22 28 -12 35
-33 7 -34 16 -14 97 6 23 3 29 -23 42 -38 19 -51 20 -58 3z"/>
  <path d="M647 575 c5 -33 4 -35 -23 -36 -29 -1 -29 -1 -4 -8 15 -4 26 -15 28
-29 3 -19 -1 -22 -27 -22 -17 0 -31 -4 -31 -10 0 -5 11 -10 25 -10 25 0 25 -1
9 -25 -11 -17 -25 -25 -45 -25 -16 0 -29 5 -29 11 0 5 -14 15 -31 21 -23 8
-27 13 -17 19 7 5 23 9 36 9 12 0 22 5 22 11 0 7 -9 9 -24 5 -12 -3 -26 -3
-29 0 -11 11 5 34 23 34 28 0 34 18 8 22 -14 2 -22 9 -20 18 4 15 -24 40 -44
40 -8 0 -10 -10 -4 -35 8 -34 7 -35 -21 -35 -16 0 -29 -4 -29 -10 0 -5 12 -10
26 -10 40 0 28 -34 -14 -38 -41 -4 -42 -22 -2 -22 29 0 30 -2 19 -22 -6 -13
-21 -33 -32 -45 -36 -40 -1 -25 39 17 38 39 38 39 59 20 12 -11 27 -20 33 -20
7 0 12 -9 12 -20 0 -17 -7 -20 -39 -20 -22 0 -43 -4 -46 -10 -4 -6 12 -10 39
-10 33 0 46 -4 46 -14 0 -19 -22 -26 -88 -26 -42 -1 -53 -3 -40 -10 14 -9 35
-81 30 -103 -2 -8 9 -10 61 -7 31 1 37 -2 37 -19 0 -19 -6 -21 -77 -21 -43 0
-84 -4 -92 -9 -26 -17 9 -23 90 -16 l79 7 1 -38 c0 -22 4 -48 8 -59 8 -19 8
-19 19 2 7 12 12 40 12 62 l0 41 118 0 c108 1 115 2 97 16 -16 13 -40 15 -117
11 -92 -4 -98 -3 -98 15 0 18 6 19 52 16 l52 -3 28 55 c14 30 27 58 27 62 2
14 -62 27 -109 21 -42 -5 -50 -3 -50 10 0 12 14 18 50 23 62 8 66 24 5 24 -25
0 -45 4 -45 8 0 5 13 21 30 35 29 27 55 34 62 19 5 -13 74 -62 86 -62 7 0 12
10 12 23 0 17 -10 28 -35 40 -20 9 -43 17 -51 17 -8 0 -12 5 -9 10 3 6 26 10
51 10 25 0 44 5 44 11 0 7 -20 10 -55 7 -51 -3 -55 -2 -55 20 0 18 6 22 29 22
17 0 33 5 36 10 4 6 -7 10 -24 10 -24 0 -31 4 -31 19 0 18 -18 31 -45 31 -10
0 -12 -9 -8 -35z m43 -291 c0 -10 -12 -14 -45 -14 -35 0 -43 3 -39 14 3 8 20
16 37 18 39 4 47 1 47 -18z m-132 -11 c-5 -26 -81 -26 -86 0 -3 14 4 17 43 17
39 0 46 -3 43 -17z m132 -32 c0 -19 -28 -31 -59 -25 -30 6 -38 14 -24 27 10
10 83 8 83 -2z m-132 -18 c-5 -24 -71 -25 -76 0 -3 14 4 17 38 17 34 0 41 -3
38 -17z"/>
</g>
<g id="part-1" class="char-part">
  <path d="M267 524 c7 -86 2 -94 -59 -94 -20 0 -40 -4 -43 -10 -4 -6 15 -10 49
-10 l56 0 0 -46 0 -45 -81 -38 c-81 -38 -81 -38 -58 -55 31 -21 29 -21 80 19
24 19 47 35 52 35 10 0 9 -132 -2 -148 -5 -9 -18 -11 -37 -7 l-29 7 37 -36
c21 -20 42 -36 46 -36 20 0 32 57 32 153 l0 102 37 33 38 34 -37 -21 -38 -20
0 39 c0 33 3 40 19 40 28 0 52 11 45 21 -3 5 -18 9 -35 9 -34 0 -37 20 -15 83
13 35 12 38 -7 52 -12 8 -29 15 -38 15 -15 0 -17 -9 -12 -76z"/>
</g>
<g id="part-2" class="char-part">
  <path d="M468 565 c4 -32 2 -35 -21 -35 -14 0 -29 -4 -32 -10 -4 -6 7 -10 25
-10 43 0 38 -34 -5 -38 -54 -5 -62 -16 -17 -21 l44 -6 -31 -42 c-17 -24 -27
-43 -21 -43 14 0 80 69 80 84 0 16 22 26 56 26 16 0 23 4 18 11 -3 6 -17 9
-30 6 -40 -7 -31 29 9 38 l32 7 -33 12 c-18 6 -30 15 -25 20 9 8 -23 36 -42
36 -7 0 -9 -14 -7 -35z"/>
</g>
<g id="part-3" class="char-part">
  <path d="M680 462 c0 -11 94 -82 109 -82 23 0 6 44 -24 61 -36 20 -85 32 -85
21z"/>
</g>
<g id="part-4" class="char-part">
  <path d="M560 166 c0 -18 -16 -23 -113 -31 -69 -6 -76 -9 -60 -20 14 -10 31
-11 63 -4 25 4 59 8 76 9 31 0 32 -1 39 -55 8 -68 21 -63 30 10 l7 55 117 0
c107 1 114 2 96 16 -16 13 -38 15 -117 10 -83 -5 -98 -4 -98 9 0 8 -9 15 -20
15 -11 0 -20 -6 -20 -14z"/>
</g>
</g>
</svg>