<?xml version="1.0" standalone="no"?>
<!DOCTYPE svg PUBLIC "-//W3C//DTD SVG 20010904//EN"
 "http://www.w3.org/TR/2001/REC-SVG-20010904/DTD/svg10.dtd">
<svg version="1.0" xmlns="http://www.w3.org/2000/svg"
 width="96.000000pt" height="68.000000pt" viewBox="0 0 96.000000 68.000000"
 preserveAspectRatio="xMidYMid meet">
<metadata>
Created by potrace 1.16, written by Peter Selinger 2001-2019
Combined from part_0.svg through part_5.svg with named groups
</metadata>
<g transform="translate(0.000000,68.000000) scale(0.100000,-0.100000)" fill="#000000" stroke="none">
<g id="part-0" class="char-part">
  <path d="M470 565 c0 -31 -37 -90 -67 -106 -13 -7 -23 -16 -23 -21 0 -9 29 4
70 32 30 20 120 35 120 19 0 -13 -69 -99 -78 -98 -4 1 -40 1 -80 0 l-72 -1 14
-22 c14 -22 41 -146 33 -154 -5 -5 -64 -12 -106 -13 -30 -1 -32 -3 -20 -17 11
-14 26 -15 88 -10 41 4 88 10 104 13 26 5 29 4 19 -8 -7 -8 -22 -27 -34 -43
-12 -16 -49 -46 -82 -68 -47 -30 -54 -38 -31 -32 56 13 106 45 165 104 l58 60
146 0 c93 0 146 4 146 10 0 16 -50 32 -92 29 -20 -2 -40 -1 -43 2 -3 3 3 38
13 78 l19 73 -24 15 c-20 13 -34 14 -90 5 -37 -6 -70 -9 -73 -6 -3 3 8 15 25
27 16 12 37 29 46 38 8 8 26 23 39 32 l23 16 -29 12 c-27 10 -85 3 -143 -19
-10 -4 -9 2 3 26 15 30 15 32 -3 42 -31 16 -41 12 -41 -15z m188 -250 c-3 -42
-7 -77 -9 -79 -2 -2 -23 -6 -46 -9 -31 -4 -43 -1 -43 7 0 7 -15 17 -34 23 -33
10 -35 10 -38 -15 -2 -21 -9 -27 -34 -29 -32 -4 -32 -4 -43 60 -16 94 -16 94
31 101 23 4 45 3 50 -2 4 -4 -5 -29 -22 -55 -16 -26 -28 -47 -25 -47 2 0 19
13 38 29 l33 30 29 -25 c28 -24 65 -33 65 -15 0 13 -22 29 -52 36 -24 6 -30
23 -19 63 1 1 29 2 62 2 l62 0 -5 -75z"/>
  <path d="M225 430 c-11 -5 -48 -9 -83 -9 -62 -1 -62 -1 -48 -23 8 -13 20 -49
27 -82 12 -54 37 -86 47 -58 2 7 18 12 37 12 62 0 93 10 88 30 -3 10 5 36 16
58 25 49 26 68 5 76 -22 8 -65 6 -89 -4z m25 -54 c0 -49 -17 -76 -49 -76 -30
0 -32 3 -45 62 -5 23 -3 27 21 31 66 10 73 8 73 -17z"/>
  <path d="M640 104 c56 -57 102 -88 114 -77 13 13 5 43 -16 64 -23 22 -119 69
-140 69 -7 0 12 -25 42 -56z"/>
</g>
<g id="part-1" class="char-part">
  <path d="M210 424 c-30 -8 -70 -12 -87 -9 -31 6 -45 -6 -24 -19 5 -3 15 -30
21 -58 20 -83 25 -90 58 -72 15 7 45 14 67 14 36 0 40 3 41 25 1 14 11 44 23
67 11 23 17 46 13 49 -15 16 -59 17 -112 3z m42 -60 c-4 -59 -8 -64 -50 -64
-38 0 -40 1 -46 42 -8 48 -3 55 44 61 52 6 55 3 52 -39z"/>
</g>
<g id="part-2" class="char-part">
  <path d="M465 553 c-5 -26 -20 -51 -51 -80 -52 -50 -46 -55 17 -15 42 27 139
49 139 32 0 -4 -14 -25 -31 -46 -49 -62 -12 -55 70 13 61 51 68 60 54 71 -22
16 -58 15 -112 -4 -50 -17 -62 -12 -36 16 14 16 15 22 5 35 -23 28 -47 18 -55
-22z"/>
</g>
<g id="part-3" class="char-part">
  <path d="M610 409 c-19 -4 -88 -11 -152 -15 -92 -5 -116 -10 -108 -19 9 -11
39 -132 40 -157 0 -5 7 -8 16 -8 13 0 15 7 11 29 -3 15 -9 51 -13 78 l-6 50
48 7 c27 3 86 9 133 13 l84 6 -6 -81 c-5 -80 -5 -82 17 -82 20 0 25 8 36 58 7
31 17 66 22 76 9 16 6 23 -12 38 -24 19 -53 21 -110 7z"/>
</g>
<g id="part-4" class="char-part">
  <path d="M490 246 c0 -29 -11 -32 -143 -41 -89 -7 -97 -9 -83 -23 13 -13 27
-14 107 -4 51 6 95 9 97 7 11 -11 -56 -80 -111 -116 -67 -44 -53 -52 23 -14
49 25 113 80 142 122 14 22 22 23 166 24 84 1 152 6 152 11 0 25 -106 31 -247
13 -22 -2 -33 0 -33 9 0 12 -40 36 -60 36 -6 0 -10 -11 -10 -24z"/>
  <path d="M610 133 c19 -17 54 -49 78 -72 49 -47 72 -52 72 -16 0 40 -69 89
-158 112 -25 6 -25 5 8 -24z"/>
</g>
</g>
</svg>