<?xml version="1.0" standalone="no"?>
<!DOCTYPE svg PUBLIC "-//W3C//DTD SVG 20010904//EN"
 "http://www.w3.org/TR/2001/REC-SVG-20010904/DTD/svg10.dtd">
<svg version="1.0" xmlns="http://www.w3.org/2000/svg"
 width="96.000000pt" height="68.000000pt" viewBox="0 0 96.000000 68.000000"
 preserveAspectRatio="xMidYMid meet">
<metadata>
Created by potrace 1.16, written by Peter Selinger 2001-2019
Combined from part_0.svg through part_5.svg with named groups
</metadata>
<g transform="translate(0.000000,68.000000) scale(0.100000,-0.100000)" fill="#000000" stroke="none">
<g id="part-0" class="char-part">
  <path d="M260 554 c0 -4 10 -24 22 -46 18 -31 27 -38 48 -36 34 4 37 32 6 63
-22 22 -76 35 -76 19z"/>
  <path d="M723 510 c-12 -5 -72 -16 -133 -26 -71 -11 -107 -20 -98 -26 7 -4 30
-7 50 -6 20 1 40 -1 44 -5 11 -10 -33 -86 -74 -129 -27 -28 -32 -38 -19 -38
41 0 157 140 144 174 -7 17 21 26 77 26 l39 0 -6 -52 c-7 -59 -36 -93 -68 -83
-11 4 -19 3 -19 0 0 -15 35 -65 46 -65 29 0 64 44 79 98 9 31 21 68 26 82 9
20 7 27 -11 42 -24 20 -43 21 -77 8z"/>
  <path d="M268 447 c-76 -11 -138 -24 -138 -29 0 -4 11 -13 25 -20 19 -9 47 -6
132 11 59 11 120 21 136 21 17 0 27 5 27 15 0 8 -4 15 -9 15 -5 0 -15 2 -23 4
-7 2 -75 -6 -150 -17z"/>
  <path d="M288 357 c-43 -9 -67 -27 -36 -27 37 0 137 23 132 31 -6 11 -33 10
-96 -4z"/>
  <path d="M275 286 c-37 -9 -45 -14 -29 -18 26 -7 144 12 144 23 0 12 -54 9
-115 -5z"/>
  <path d="M694 244 c-5 -2 -59 -8 -119 -12 -97 -6 -107 -9 -93 -22 8 -8 21 -42
29 -75 14 -54 18 -60 40 -58 13 0 62 2 108 3 107 3 119 7 119 34 0 12 9 41 21
65 19 42 20 45 3 57 -16 13 -85 18 -108 8z m43 -41 c-3 -10 -8 -35 -12 -55 -6
-38 -6 -38 -54 -38 -27 0 -62 -3 -79 -6 -29 -6 -31 -4 -42 36 -16 58 -9 68 47
73 125 9 145 8 140 -10z"/>
  <path d="M305 213 c-23 -8 -57 -12 -79 -9 -22 2 -35 2 -29 -2 6 -4 21 -33 33
-65 12 -31 26 -57 31 -57 5 0 9 4 9 9 0 5 25 13 55 16 30 4 53 11 50 15 -2 4
4 24 15 45 32 62 1 80 -85 48z m44 -36 c-1 -38 -13 -52 -46 -54 -27 -2 -33 1
-42 29 -14 39 -15 36 12 40 62 10 77 7 76 -15z"/>
</g>
<g id="part-1" class="char-part">
  <path d="M260 556 c0 -19 55 -86 69 -84 23 4 25 41 4 60 -19 17 -73 35 -73 24z"/>
  <path d="M250 440 c-63 -10 -117 -19 -120 -19 -3 -1 2 -6 10 -11 21 -14 78
-12 162 5 40 8 91 17 112 20 29 5 36 9 25 16 -19 12 -54 10 -189 -11z"/>
</g>
<g id="part-2" class="char-part">
  <path d="M305 213 c-25 -9 -55 -12 -79 -8 -36 5 -38 4 -25 -11 8 -9 21 -35 30
-58 16 -45 15 -44 111 -31 34 4 46 10 42 20 -3 7 2 30 12 50 15 31 15 38 3 46
-19 12 -46 10 -94 -8z m45 -35 c0 -33 -11 -45 -46 -52 -29 -6 -33 -4 -43 25
-6 18 -11 33 -11 35 0 2 39 8 83 12 11 1 17 -5 17 -20z"/>
</g>
<g id="part-3" class="char-part">
  <path d="M660 499 c-47 -10 -107 -21 -135 -25 -46 -6 -48 -7 -26 -17 17 -8 44
-7 106 6 45 9 97 17 115 17 l33 0 -5 -45 c-3 -25 -13 -57 -23 -71 -14 -21 -22
-25 -45 -20 l-29 5 21 -34 c11 -20 28 -35 38 -35 20 0 70 53 70 74 0 7 9 39
20 72 l20 59 -21 18 c-25 20 -28 20 -139 -4z"/>
</g>
<g id="part-4" class="char-part">
  <path d="M608 462 c-10 -2 -18 -12 -18 -21 0 -23 -41 -84 -88 -134 l-37 -38
30 11 c40 15 71 45 112 108 34 53 35 81 1 74z"/>
</g>
<g id="part-5" class="char-part">
  <path d="M723 234 c0 -8 7 -14 14 -14 9 0 12 -7 9 -17 -3 -10 -8 -31 -12 -48
-11 -47 -22 -56 -61 -49 -23 4 -38 2 -43 -5 -5 -8 -19 -10 -44 -6 -27 5 -36
12 -36 27 0 10 -3 17 -7 15 -5 -3 -8 13 -9 34 0 21 3 39 8 39 4 0 8 3 8 8 0 4
-17 7 -38 8 -20 0 -31 -1 -24 -3 6 -3 12 -11 12 -19 0 -9 5 -12 11 -8 7 4 9 0
5 -14 -4 -12 -2 -39 4 -62 12 -46 12 -46 168 -33 65 5 82 9 78 20 -3 8 -2 21
4 31 27 51 39 87 32 94 -4 4 -24 10 -43 12 -26 3 -36 1 -36 -10z"/>
  <path d="M655 230 c-13 -5 -14 -9 -5 -9 8 0 24 4 35 9 13 5 14 9 5 9 -8 0 -24
-4 -35 -9z"/>
  <path d="M598 223 c7 -3 16 -2 19 1 4 3 -2 6 -13 5 -11 0 -14 -3 -6 -6z"/>
</g>
</g>
</svg>