<?xml version="1.0" standalone="no"?>
<!DOCTYPE svg PUBLIC "-//W3C//DTD SVG 20010904//EN"
 "http://www.w3.org/TR/2001/REC-SVG-20010904/DTD/svg10.dtd">
<svg version="1.0" xmlns="http://www.w3.org/2000/svg"
 width="96.000000pt" height="68.000000pt" viewBox="0 0 96.000000 68.000000"
 preserveAspectRatio="xMidYMid meet">
<metadata>
Created by potrace 1.16, written by Peter Selinger 2001-2019
Combined from part_0.svg through part_5.svg with named groups
</metadata>
<g transform="translate(0.000000,68.000000) scale(0.100000,-0.100000)" fill="#000000" stroke="none">
<g id="part-0" class="char-part">
  <path d="M269 615 c-4 -3 -2 -25 3 -49 5 -25 8 -64 6 -88 l-3 -43 -73 -9 c-94
-11 -90 -30 7 -34 l72 -3 -3 -37 c-3 -36 -4 -37 -93 -71 -49 -19 -92 -37 -95
-39 -7 -6 40 -42 55 -42 7 0 39 16 71 35 31 19 59 34 60 32 1 -1 0 -31 -3 -65
l-6 -64 -33 7 c-19 3 -34 2 -34 -2 0 -15 69 -83 85 -83 29 0 45 55 45 153 0
90 1 94 25 105 14 6 25 16 25 22 0 6 -10 8 -25 4 -23 -6 -25 -3 -25 25 0 32 3
34 53 45 39 9 33 25 -13 32 -35 6 -40 10 -40 33 1 14 7 44 15 66 11 32 12 43
2 52 -14 15 -69 27 -78 18z"/>
  <path d="M550 495 l0 -115 -49 0 c-28 0 -53 -4 -56 -10 -4 -6 15 -10 49 -10
l56 0 0 -39 c0 -39 -1 -40 -42 -45 -24 -4 -64 -7 -91 -9 -26 -1 -47 -6 -47
-12 0 -6 36 -9 90 -8 l90 3 1 -58 c1 -31 4 -82 8 -112 7 -52 8 -53 18 -29 7
15 13 60 14 100 4 117 -6 109 130 109 111 0 146 8 117 27 -15 9 -131 8 -196
-2 l-43 -6 3 43 3 43 58 6 c58 6 76 13 64 26 -7 6 -80 8 -107 1 -13 -2 -15 13
-15 97 1 101 -4 115 -37 115 -16 0 -18 -12 -18 -115z"/>
  <path d="M678 495 c-20 -30 -32 -55 -27 -55 5 0 34 17 65 37 l56 37 -22 18
c-12 10 -25 18 -29 18 -4 0 -23 -25 -43 -55z"/>
  <path d="M430 493 c0 -15 52 -73 66 -73 27 0 16 48 -16 65 -31 16 -50 19 -50
8z"/>
</g>
<g id="part-1" class="char-part">
  <path d="M277 525 l6 -93 -59 -7 c-91 -11 -100 -24 -16 -25 l72 0 0 -44 0 -44
-70 -27 c-38 -15 -82 -30 -96 -34 -25 -6 -26 -8 -10 -24 26 -26 62 -21 119 18
l52 35 3 -42 c2 -23 1 -58 -3 -76 -6 -33 -8 -34 -41 -27 l-35 6 41 -42 c39
-41 41 -41 60 -24 17 16 20 31 20 119 l0 101 32 28 c31 27 28 29 -14 12 -15
-6 -18 -1 -18 33 0 38 1 40 40 46 22 3 40 10 40 15 0 11 -48 24 -60 16 -14 -9
-12 62 2 102 14 38 7 49 -39 62 l-31 9 5 -93z"/>
</g>
<g id="part-2" class="char-part">
  <path d="M550 511 l0 -101 25 0 c27 0 25 -9 29 168 1 22 -4 28 -26 30 l-28 3
0 -100z"/>
  <path d="M700 539 c0 -6 -14 -31 -31 -55 -17 -25 -29 -47 -27 -49 2 -2 33 14
68 37 l64 40 -23 19 c-26 21 -51 25 -51 8z"/>
  <path d="M447 460 c28 -40 61 -50 70 -23 6 19 -46 63 -74 63 l-24 0 28 -40z"/>
</g>
<g id="part-3" class="char-part">
  <path d="M550 395 c0 -11 -12 -15 -49 -15 -28 0 -53 -4 -56 -10 -4 -6 15 -10
49 -10 l56 0 0 -39 c0 -39 -1 -40 -42 -45 -24 -4 -65 -7 -93 -9 -27 -1 -49 -6
-47 -12 1 -6 39 -9 92 -8 l90 3 0 -49 c0 -26 3 -76 7 -111 5 -56 8 -61 20 -45
8 12 13 47 13 94 0 128 -7 121 131 121 118 0 149 9 108 31 -20 10 -89 8 -191
-7 l-38 -6 0 46 c0 46 0 46 34 46 45 0 96 11 96 20 0 13 -35 18 -83 10 -26 -4
-47 -3 -47 2 0 4 -11 8 -25 8 -16 0 -25 -6 -25 -15z"/>
</g>
</g>
</svg>