<?xml version="1.0" standalone="no"?>
<!DOCTYPE svg PUBLIC "-//W3C//DTD SVG 20010904//EN"
 "http://www.w3.org/TR/2001/REC-SVG-20010904/DTD/svg10.dtd">
<svg version="1.0" xmlns="http://www.w3.org/2000/svg"
 width="96.000000pt" height="68.000000pt" viewBox="0 0 96.000000 68.000000"
 preserveAspectRatio="xMidYMid meet">
<metadata>
Created by potrace 1.16, written by Peter Selinger 2001-2019
Combined from part_0.svg through part_5.svg with named groups
</metadata>
<g transform="translate(0.000000,68.000000) scale(0.100000,-0.100000)" fill="#000000" stroke="none">
<g id="part-0" class="char-part">
  <path d="M243 528 c-15 -54 -76 -155 -127 -208 -21 -23 -36 -43 -33 -46 7 -8
58 20 96 51 37 32 71 27 71 -10 0 -20 -6 -24 -50 -30 -64 -9 -65 -25 -1 -25
l49 0 4 -57 c2 -32 3 -60 1 -62 -1 -2 -36 -6 -78 -9 -84 -5 -95 -18 -42 -47
33 -18 34 -17 128 19 142 55 143 56 132 67 -6 6 -19 6 -37 -1 -50 -19 -56 -15
-56 44 l0 54 46 7 c54 8 55 29 2 33 -29 2 -37 8 -41 28 -3 18 0 24 14 24 29 0
49 11 49 27 0 12 -8 14 -35 9 -19 -3 -52 -9 -72 -13 l-37 -6 15 24 c9 13 24
39 33 57 l17 33 34 -25 c43 -33 68 -34 63 -3 -2 13 -17 30 -40 42 -21 11 -38
25 -38 32 0 12 -30 33 -47 33 -5 0 -14 -19 -20 -42z"/>
  <path d="M520 563 c0 -5 9 -22 20 -40 23 -39 17 -44 -55 -44 -55 0 -55 -1 -48
-27 12 -42 6 -318 -7 -343 -27 -49 11 -86 50 -49 9 8 32 28 53 44 48 38 47 49
-3 25 -21 -10 -42 -19 -45 -19 -7 0 -6 149 1 176 5 19 15 22 67 26 35 3 68 1
75 -5 18 -14 26 -3 52 71 13 34 27 65 31 68 35 21 -38 70 -86 58 -20 -5 -26
-1 -34 19 -13 33 -71 65 -71 40z m128 -114 c3 -26 1 -26 -67 -33 -90 -9 -85
-10 -85 17 0 19 7 24 59 34 79 15 89 13 93 -18z m-14 -76 c-4 -16 -7 -29 -8
-30 -1 -1 -28 -5 -61 -8 -33 -4 -63 -9 -67 -12 -5 -2 -8 9 -8 26 0 32 6 36 75
44 75 10 76 9 69 -20z"/>
  <path d="M661 259 c-31 -38 -34 -39 -54 -25 -39 28 -79 48 -85 42 -3 -4 5 -14
19 -23 13 -9 59 -51 101 -92 43 -41 85 -79 94 -84 18 -10 124 0 124 13 0 4
-10 10 -22 13 -77 17 -195 83 -197 109 -1 4 22 15 49 25 51 18 59 30 38 51
-20 20 -33 14 -67 -29z"/>
  <path d="M333 210 c-24 -45 -16 -50 34 -19 37 23 41 52 8 57 -14 2 -26 -9 -42
-38z"/>
  <path d="M150 208 c1 -20 36 -58 54 -58 27 0 28 19 2 45 -27 27 -56 33 -56 13z"/>
</g>
<g id="part-1" class="char-part">
  <path d="M250 541 c0 -32 -67 -151 -120 -212 -55 -64 -39 -71 28 -13 24 20 51
34 67 34 24 0 26 -3 23 -32 -3 -31 -6 -33 -45 -36 -60 -4 -54 -22 7 -22 l50 0
0 -60 0 -59 -37 -10 c-21 -6 -55 -11 -75 -11 -45 0 -48 -10 -11 -32 27 -15 32
-14 135 26 110 42 146 63 93 53 -16 -3 -38 -9 -47 -12 -16 -6 -18 0 -18 54 0
58 1 61 28 67 74 16 79 26 15 29 -33 1 -38 4 -38 25 0 29 11 40 43 40 24 0 30
15 10 23 -7 2 -40 -2 -72 -10 -32 -7 -61 -12 -63 -9 -5 5 65 116 73 116 4 0
20 -11 36 -25 33 -28 51 -28 56 -1 3 12 -8 22 -36 34 -21 9 -43 26 -48 37 -12
28 -54 33 -54 6z"/>
  <path d="M341 210 l-21 -40 28 14 c54 30 57 33 43 50 -20 24 -27 20 -50 -24z"/>
  <path d="M170 180 c22 -31 50 -40 50 -16 0 21 -28 46 -51 46 -20 0 -20 0 1
-30z"/>
</g>
<g id="part-2" class="char-part">
  <path d="M520 556 c0 -26 45 -70 64 -63 33 13 -5 76 -46 77 -10 0 -18 -6 -18
-14z"/>
</g>
<g id="part-3" class="char-part">
  <path d="M590 494 c-25 -7 -71 -13 -104 -13 -50 -1 -57 -3 -52 -17 4 -10 9
-50 13 -90 5 -59 9 -72 22 -69 41 8 147 9 159 1 19 -11 27 -1 55 74 14 36 28
73 32 82 5 12 -2 21 -24 32 -34 18 -39 18 -101 0z m55 -44 c0 -23 -5 -25 -72
-35 l-73 -11 0 27 c0 25 4 27 58 37 77 13 87 11 87 -18z m-6 -62 c-2 -42 -15
-50 -82 -55 -66 -4 -67 -4 -67 21 0 21 6 26 38 31 20 4 44 8 52 10 35 7 60 4
59 -7z"/>
</g>
<g id="part-4" class="char-part">
  <path d="M445 213 c-4 -49 -12 -96 -17 -106 -11 -22 -2 -67 13 -67 11 0 139
98 139 106 0 3 -12 -2 -27 -9 -16 -8 -38 -18 -51 -22 l-23 -7 3 96 c3 84 1 96
-14 96 -13 0 -17 -16 -23 -87z"/>
  <path d="M659 257 l-36 -41 -32 27 c-18 15 -42 27 -54 27 -21 0 -20 -1 3 -17
14 -9 64 -54 111 -100 48 -45 95 -83 105 -83 36 0 94 13 94 20 0 4 -28 17 -62
30 -35 12 -85 38 -112 58 l-48 35 61 25 c58 24 60 26 44 44 -23 26 -34 22 -74
-25z"/>
</g>
</g>
</svg>