<?xml version="1.0" standalone="no"?>
<!DOCTYPE svg PUBLIC "-//W3C//DTD SVG 20010904//EN"
 "http://www.w3.org/TR/2001/REC-SVG-20010904/DTD/svg10.dtd">
<svg version="1.0" xmlns="http://www.w3.org/2000/svg"
 width="96.000000pt" height="68.000000pt" viewBox="0 0 96.000000 68.000000"
 preserveAspectRatio="xMidYMid meet">
<metadata>
Created by potrace 1.16, written by Peter Selinger 2001-2019
Combined from part_0.svg through part_5.svg with named groups
</metadata>
<g transform="translate(0.000000,68.000000) scale(0.100000,-0.100000)" fill="#000000" stroke="none">
<g id="part-0" class="char-part">
  <path d="M535 583 c4 -10 10 -48 12 -85 l6 -67 -72 -7 c-62 -6 -71 -9 -64 -23
4 -9 8 -59 7 -111 -1 -100 -13 -140 -66 -220 l-23 -35 31 22 c52 37 94 135
104 244 5 52 10 97 10 102 0 4 16 7 35 7 32 0 35 -2 35 -30 0 -25 -4 -30 -25
-30 -14 0 -25 -4 -25 -10 0 -5 11 -10 25 -10 15 0 25 -6 25 -14 0 -8 12 -24
26 -35 31 -25 105 -28 144 -6 34 19 13 26 -70 23 -60 -3 -65 -1 -68 18 -3 18
4 23 35 28 60 11 74 17 67 28 -4 6 -25 7 -54 3 -47 -6 -47 -6 -43 18 6 28 27
37 91 37 35 0 42 -3 42 -20 0 -23 3 -24 47 -8 40 15 43 35 6 49 -26 10 -80 7
-155 -8 -28 -6 -29 -5 -26 28 3 34 4 34 61 39 31 3 56 10 55 15 -3 11 -5 11
-65 1 l-43 -6 0 34 c0 35 -12 46 -52 46 -15 0 -18 -4 -13 -17z"/>
  <path d="M249 514 c-24 -20 -55 -41 -69 -47 l-25 -11 25 -3 c14 -2 60 9 103
25 67 25 75 30 65 44 -26 33 -53 30 -99 -8z"/>
  <path d="M353 462 c-3 -9 -14 -36 -24 -59 -24 -57 -4 -58 45 -2 40 44 42 58 8
70 -17 7 -24 5 -29 -9z"/>
  <path d="M220 423 c1 -43 54 -71 67 -36 4 10 -2 23 -16 35 -29 23 -51 23 -51
1z"/>
  <path d="M120 410 c0 -19 22 -57 41 -68 25 -16 39 -7 39 24 0 19 -8 28 -35 40
-41 17 -45 17 -45 4z"/>
  <path d="M274 316 c6 -23 3 -25 -51 -32 -32 -4 -65 -8 -73 -10 -8 -1 -25 -3
-37 -3 -13 -1 -23 -5 -23 -10 0 -15 60 -17 120 -4 30 7 58 13 63 13 10 0 8
-162 -2 -179 -8 -12 -14 -13 -36 -3 l-27 12 24 -29 c31 -40 48 -45 71 -23 16
17 19 33 18 120 -1 107 1 112 55 112 13 0 24 5 24 10 0 6 -18 10 -40 10 -33 0
-40 3 -40 20 0 15 -7 20 -26 20 -23 0 -25 -3 -20 -24z"/>
  <path d="M605 231 c-3 -5 -1 -12 5 -16 5 -3 10 -41 10 -84 0 -60 4 -82 16 -92
25 -21 145 -24 182 -5 43 22 46 32 23 65 -12 16 -21 34 -21 41 0 6 -4 8 -10 5
-5 -3 -10 -19 -10 -35 0 -37 -23 -50 -88 -50 -43 0 -50 3 -55 22 -6 20 4 83
18 120 4 11 -3 19 -26 27 -39 13 -36 13 -44 2z"/>
  <path d="M519 223 c-3 -23 -6 -52 -7 -80 -1 -24 -14 -45 -43 -74 -33 -33 -37
-40 -17 -34 61 20 92 60 104 135 5 31 3 44 -7 51 -17 11 -29 11 -30 2z"/>
  <path d="M160 205 c0 -17 35 -55 51 -55 26 0 24 25 -3 44 -22 16 -48 21 -48
11z"/>
</g>
<g id="part-1" class="char-part">
  <path d="M269 523 c-8 -9 -34 -29 -59 -45 l-45 -29 35 7 c19 3 54 15 78 25 24
11 50 19 58 19 17 0 18 12 2 28 -17 17 -53 15 -69 -5z"/>
  <path d="M350 443 c-5 -16 -16 -40 -24 -55 -18 -34 -10 -35 24 -5 54 49 65 67
50 77 -25 16 -40 11 -50 -17z"/>
  <path d="M220 422 c0 -16 32 -52 46 -52 17 0 19 31 2 48 -13 13 -48 16 -48 4z"/>
  <path d="M137 378 c22 -39 63 -51 63 -19 0 23 -35 51 -63 51 -18 0 -18 -1 0
-32z"/>
</g>
<g id="part-2" class="char-part">
  <path d="M160 201 c0 -13 40 -61 51 -61 19 0 21 31 4 50 -18 20 -55 27 -55 11z"/>
</g>
<g id="part-3" class="char-part">
  <path d="M535 583 c3 -10 9 -46 12 -80 5 -52 9 -63 24 -63 13 0 19 9 21 33 3
31 5 32 53 35 68 4 86 10 63 23 -12 7 -31 6 -55 0 -53 -15 -53 -15 -53 23 0
35 -13 46 -52 46 -15 0 -18 -4 -13 -17z"/>
</g>
<g id="part-4" class="char-part">
  <path d="M555 412 c-3 -3 -5 -18 -5 -32 0 -23 -6 -29 -32 -36 l-33 -8 32 -3
c22 -3 33 -10 37 -27 6 -26 44 -46 85 -46 50 0 91 12 91 27 0 11 -15 13 -72
11 -68 -3 -73 -2 -76 19 -3 18 3 22 40 28 24 4 50 11 58 15 26 15 -11 22 -58
12 -41 -10 -41 -10 -36 18 4 20 2 27 -10 27 -9 0 -18 -3 -21 -5z"/>
</g>
<g id="part-5" class="char-part">
  <path d="M622 163 c-1 -69 14 -127 28 -118 5 3 10 1 12 -5 5 -16 90 -22 135
-9 39 11 42 13 31 33 -7 11 -11 32 -9 46 2 20 -2 17 -18 -15 -20 -39 -22 -40
-75 -40 -43 0 -59 5 -75 21 -11 12 -16 25 -12 30 7 9 31 84 31 98 0 4 -4 4
-10 1 -5 -3 -10 1 -10 9 0 9 -6 16 -14 16 -11 0 -14 -16 -14 -67z"/>
  <path d="M820 86 c0 -2 7 -9 15 -16 12 -10 15 -10 15 4 0 9 -7 16 -15 16 -8 0
-15 -2 -15 -4z"/>
</g>
</g>
</svg>