<?xml version="1.0" standalone="no"?>
<!DOCTYPE svg PUBLIC "-//W3C//DTD SVG 20010904//EN"
 "http://www.w3.org/TR/2001/REC-SVG-20010904/DTD/svg10.dtd">
<svg version="1.0" xmlns="http://www.w3.org/2000/svg"
 width="96.000000pt" height="68.000000pt" viewBox="0 0 96.000000 68.000000"
 preserveAspectRatio="xMidYMid meet">
<metadata>
Created by potrace 1.16, written by Peter Selinger 2001-2019
Combined from part_0.svg through part_5.svg with named groups
</metadata>
<g transform="translate(0.000000,68.000000) scale(0.100000,-0.100000)" fill="#000000" stroke="none">
<g id="part-0" class="char-part">
  <path d="M610 579 c-19 -5 -63 -10 -97 -11 -64 -2 -71 -6 -53 -24 6 -6 14 -39
19 -75 4 -35 9 -68 11 -74 7 -26 -3 -48 -37 -87 l-38 -42 36 22 c36 22 89 30
89 13 0 -5 -27 -34 -61 -65 -33 -31 -57 -56 -54 -56 27 0 155 99 155 119 0 6
14 11 30 11 l30 0 -19 -38 c-20 -38 -91 -104 -167 -155 -48 -31 -65 -51 -37
-40 94 35 277 192 271 231 -2 13 4 17 27 17 40 0 43 -25 14 -113 -38 -116 -59
-134 -123 -107 -15 7 -14 1 9 -33 15 -23 34 -42 43 -42 30 0 78 68 112 156 18
49 37 93 42 99 16 18 8 52 -16 65 -20 10 -41 10 -103 2 -140 -20 -173 -22
-173 -12 0 6 5 10 10 10 17 0 11 28 -7 33 -21 4 82 17 116 14 21 -2 27 6 47
68 31 92 30 101 -7 114 -18 6 -32 11 -33 10 -1 -1 -17 -5 -36 -10z m40 -48 c0
-27 -3 -29 -52 -35 -93 -11 -98 -9 -98 23 0 32 10 36 108 39 40 2 42 1 42 -27z
m-10 -81 l0 -30 -65 0 c-62 0 -65 1 -65 24 0 21 5 25 38 29 92 9 92 9 92 -23z"/>
  <path d="M285 529 c-22 -4 -59 -8 -82 -8 -42 -1 -55 -12 -32 -27 8 -5 10 -39
6 -113 -7 -127 -2 -161 24 -161 31 0 22 -24 -27 -79 -26 -29 -44 -54 -42 -57
6 -5 72 48 122 97 27 26 28 29 11 35 -18 7 -18 8 1 15 34 14 72 10 78 -8 6
-15 8 -15 26 3 16 16 19 37 21 153 3 121 1 134 -16 147 -21 15 -31 16 -90 3z
m45 -62 c0 -31 -2 -33 -37 -35 -21 -2 -46 -5 -55 -8 -15 -4 -18 1 -18 29 0 40
8 45 68 46 41 1 42 0 42 -32z m10 -92 c0 -22 -4 -25 -37 -25 -21 0 -48 -3 -60
-6 -19 -5 -23 -2 -23 18 0 34 6 38 67 38 50 0 53 -1 53 -25z m0 -84 c0 -25 -4
-29 -37 -35 -68 -11 -96 -8 -89 10 3 9 6 24 6 35 0 17 8 19 60 19 59 0 60 0
60 -29z"/>
  <path d="M332 169 c28 -48 58 -64 58 -30 0 17 -22 39 -70 66 -8 5 -4 -9 12
-36z"/>
</g>
<g id="part-1" class="char-part">
  <path d="M230 523 l-55 -4 0 -124 c0 -112 2 -125 18 -125 12 0 17 8 17 25 0
23 3 25 49 25 27 0 56 3 65 6 12 4 16 0 16 -15 0 -16 6 -21 24 -21 24 0 25 1
28 108 4 142 12 136 -162 125z m94 -19 c20 -8 22 -74 2 -74 -7 0 -34 -3 -60
-6 l-46 -7 0 41 c0 38 2 41 33 45 17 2 37 5 44 5 6 1 18 -1 27 -4z m16 -123
c0 -24 -5 -29 -31 -35 -17 -3 -44 -6 -60 -6 -25 0 -29 4 -29 29 0 28 3 30 43
34 23 2 50 4 60 5 13 2 17 -5 17 -27z"/>
</g>
<g id="part-2" class="char-part">
  <path d="M220 207 c0 -7 -23 -39 -51 -70 -28 -31 -46 -57 -41 -57 23 0 154
118 146 132 -8 13 -54 9 -54 -5z"/>
  <path d="M310 205 c0 -15 54 -85 66 -85 20 0 17 34 -3 52 -22 19 -63 41 -63
33z"/>
</g>
<g id="part-3" class="char-part">
  <path d="M610 579 c-19 -5 -63 -9 -97 -10 -59 -2 -76 -10 -54 -24 5 -3 13 -31
16 -63 11 -97 5 -92 103 -88 l87 3 24 82 c13 46 19 87 15 91 -15 15 -58 19
-94 9z m40 -48 c0 -28 -2 -28 -67 -35 -69 -7 -87 -1 -81 30 4 21 35 32 101 33
45 1 47 0 47 -28z m-10 -81 l0 -30 -65 0 c-62 0 -65 1 -65 24 0 22 5 25 43 29
92 8 87 9 87 -23z"/>
</g>
<g id="part-4" class="char-part">
  <path d="M480 345 c-12 -19 -33 -44 -48 -56 -29 -23 -27 -23 28 3 20 9 87 21
155 27 148 13 152 11 124 -81 -30 -96 -60 -143 -89 -142 -14 1 -33 5 -44 9
-15 7 -13 1 9 -33 15 -23 34 -42 43 -42 30 0 79 68 112 156 18 49 39 99 47
110 13 20 11 24 -14 44 -20 15 -36 20 -58 16 -16 -3 -72 -11 -123 -17 -89 -11
-122 -7 -93 10 7 5 10 14 7 20 -13 20 -34 11 -56 -24z"/>
</g>
<g id="part-5" class="char-part">
  <path d="M634 293 c-3 -10 -11 -29 -17 -43 -6 -14 -10 -28 -9 -32 1 -5 -5 -8
-14 -8 -9 0 -31 -15 -50 -34 -18 -18 -36 -31 -40 -27 -4 3 -4 0 0 -7 9 -15
116 65 116 87 0 8 3 11 7 8 6 -7 53 50 53 65 0 16 -41 8 -46 -9z"/>
  <path d="M470 120 c-8 -5 -10 -10 -5 -10 6 0 17 5 25 10 8 5 11 10 5 10 -5 0
-17 -5 -25 -10z"/>
</g>
</g>
</svg>