<?xml version="1.0" standalone="no"?>
<!DOCTYPE svg PUBLIC "-//W3C//DTD SVG 20010904//EN"
 "http://www.w3.org/TR/2001/REC-SVG-20010904/DTD/svg10.dtd">
<svg version="1.0" xmlns="http://www.w3.org/2000/svg"
 width="96.000000pt" height="68.000000pt" viewBox="0 0 96.000000 68.000000"
 preserveAspectRatio="xMidYMid meet">
<metadata>
Created by potrace 1.16, written by Peter Selinger 2001-2019
Combined from part_0.svg through part_5.svg with named groups
</metadata>
<g transform="translate(0.000000,68.000000) scale(0.100000,-0.100000)" fill="#000000" stroke="none">
<g id="part-0" class="char-part">
  <path d="M509 588 c-7 -13 -18 -32 -26 -44 -12 -19 -10 -23 27 -48 46 -30 50
-31 50 -10 0 9 -13 21 -30 27 -38 14 -38 24 0 45 35 20 37 28 10 42 -16 8 -21
6 -31 -12z"/>
  <path d="M605 570 c-10 -22 -16 -41 -14 -43 2 -1 18 -12 36 -25 34 -23 53 -28
53 -13 0 15 -30 41 -46 41 -21 0 -17 19 8 39 12 10 18 23 14 29 -14 23 -33 12
-51 -28z"/>
  <path d="M391 555 c-13 -25 -22 -47 -20 -48 2 -2 17 -13 33 -25 33 -25 46 -28
46 -9 0 8 -11 20 -25 27 -25 13 -35 40 -14 40 18 0 41 30 35 45 -10 27 -31 16
-55 -30z"/>
  <path d="M160 521 c0 -19 71 -91 90 -91 21 0 34 29 25 53 -10 24 -115 60 -115
38z"/>
  <path d="M540 449 c-47 -5 -109 -9 -137 -10 -48 -1 -52 -3 -43 -19 6 -11 14
-36 18 -56 l8 -38 59 3 c33 2 74 5 90 6 17 2 49 3 72 4 40 1 45 4 73 49 27 43
28 48 13 60 -18 13 -26 13 -153 1z m97 -46 c-4 -20 -7 -37 -9 -38 -2 -2 -54
-6 -115 -10 -109 -7 -113 -7 -113 13 0 11 -3 27 -6 35 -4 12 5 17 39 22 25 4
53 5 63 3 16 -3 14 -7 -11 -33 -22 -21 -24 -27 -10 -20 25 11 64 11 88 1 10
-5 17 -4 17 3 0 6 -11 13 -24 17 -15 4 -23 12 -21 22 2 9 4 17 4 18 1 0 24 1
52 1 l51 2 -5 -36z"/>
  <path d="M163 366 c-35 -12 -63 -24 -63 -28 0 -5 27 -8 61 -8 l60 0 -15 -22
c-21 -30 -20 -45 4 -75 11 -14 20 -36 20 -49 0 -23 -3 -24 -65 -24 -47 0 -65
-4 -65 -13 0 -28 22 -35 98 -30 74 4 84 2 230 -51 84 -30 167 -58 185 -61 32
-6 202 36 221 55 9 9 -28 14 -234 29 -74 6 -155 16 -180 24 l-45 13 43 28 c23
16 42 31 42 33 0 3 -14 2 -31 -2 -28 -6 -30 -5 -27 17 2 19 10 24 41 26 21 2
35 7 31 13 -3 5 -21 7 -40 3 -21 -4 -34 -2 -34 4 0 6 19 13 41 17 29 5 37 10
28 16 -8 4 -24 6 -36 3 -16 -4 -25 -1 -29 10 -3 9 -12 16 -20 16 -13 0 -18
-52 -17 -163 0 -19 -15 -19 -73 3 -21 8 -25 15 -20 35 5 18 -1 33 -24 59 l-30
34 40 32 c44 35 50 54 21 70 -26 13 -44 11 -118 -14z"/>
  <path d="M634 288 c23 -114 52 -158 120 -176 58 -16 66 -9 47 44 -17 48 -28
56 -33 22 -4 -31 -21 -32 -56 -3 -26 22 -31 34 -34 77 -3 43 -7 52 -27 60 -22
8 -23 7 -17 -24z"/>
  <path d="M495 213 c0 -98 8 -118 36 -91 8 8 31 24 52 37 46 28 44 34 -6 19
-42 -13 -52 -8 -42 21 4 13 15 21 28 21 12 0 29 5 37 10 17 11 9 13 -32 10
-16 -1 -28 3 -28 8 0 12 24 22 51 22 12 0 17 4 13 11 -3 6 -16 8 -29 5 -14 -4
-28 0 -35 9 -7 8 -20 15 -29 15 -14 0 -16 -14 -16 -97z"/>
</g>
<g id="part-1" class="char-part">
  <path d="M191 480 c39 -48 79 -56 79 -14 0 19 -8 28 -35 40 -19 7 -44 14 -55
14 -19 0 -18 -3 11 -40z"/>
  <path d="M195 369 c-22 -10 -48 -19 -57 -19 -9 0 -20 -5 -24 -11 -5 -9 9 -10
50 -5 31 4 56 5 56 1 0 -3 -7 -19 -15 -35 -14 -27 -13 -31 10 -67 14 -20 25
-46 23 -58 -3 -17 -11 -20 -70 -23 -66 -3 -86 -13 -51 -26 9 -4 42 -4 73 0 52
6 72 1 235 -55 98 -33 192 -61 208 -61 34 0 177 38 190 50 5 4 -44 11 -110 15
-167 9 -241 20 -353 51 l-98 27 5 33 c4 27 0 37 -23 59 l-29 27 44 40 43 41
-23 18 c-29 22 -33 22 -84 -2z"/>
</g>
<g id="part-2" class="char-part">
  <path d="M390 555 l-25 -45 30 -25 c34 -28 55 -32 55 -10 0 8 -14 22 -32 31
l-31 16 32 20 c33 21 38 50 11 56 -9 1 -25 -16 -40 -43z"/>
</g>
<g id="part-3" class="char-part">
  <path d="M610 580 c-7 -16 -16 -30 -21 -30 -20 0 -7 -19 31 -44 45 -30 60 -32
60 -11 0 8 -17 23 -37 34 l-38 19 28 13 c30 13 33 42 6 47 -10 2 -21 -9 -29
-28z"/>
</g>
<g id="part-4" class="char-part">
  <path d="M630 308 c0 -28 29 -121 45 -145 20 -30 98 -67 125 -58 18 6 19 8 5
35 -8 16 -15 39 -16 52 -1 20 -2 19 -15 -10 -17 -39 -29 -40 -66 -5 -23 22
-28 35 -28 75 0 37 -4 50 -19 58 -25 13 -31 13 -31 -2z"/>
</g>
</g>
</svg>