<?xml version="1.0" standalone="no"?>
<!DOCTYPE svg PUBLIC "-//W3C//DTD SVG 20010904//EN"
 "http://www.w3.org/TR/2001/REC-SVG-20010904/DTD/svg10.dtd">
<svg version="1.0" xmlns="http://www.w3.org/2000/svg"
 width="96.000000pt" height="68.000000pt" viewBox="0 0 96.000000 68.000000"
 preserveAspectRatio="xMidYMid meet">
<metadata>
Created by potrace 1.16, written by Peter Selinger 2001-2019
Combined from part_0.svg through part_5.svg with named groups
</metadata>
<g transform="translate(0.000000,68.000000) scale(0.100000,-0.100000)" fill="#000000" stroke="none">
<g id="part-0" class="char-part">
  <path d="M254 563 c3 -10 6 -51 7 -92 2 -63 -1 -75 -17 -84 -38 -22 -44 -15
-21 23 23 41 19 55 -17 62 -15 2 -21 -4 -26 -28 -4 -17 -21 -57 -38 -89 -18
-32 -30 -61 -27 -64 3 -2 22 12 43 32 28 27 46 37 70 37 32 0 32 -1 32 -48 0
-43 -3 -49 -27 -59 -145 -59 -145 -60 -128 -77 24 -23 39 -20 96 20 28 19 53
34 55 32 2 -2 -2 -34 -8 -71 -9 -54 -8 -73 2 -93 25 -45 41 -9 47 104 6 99 6
101 34 113 16 6 29 15 29 20 0 13 -13 11 -38 -7 -22 -15 -22 -15 -22 30 0 41
2 45 30 51 38 8 39 23 3 27 -25 3 -28 7 -28 38 0 19 4 54 8 77 7 40 6 41 -25
52 -40 14 -40 14 -34 -6z"/>
  <path d="M600 553 c4 -61 1 -73 -22 -73 -13 0 -30 -5 -38 -10 -11 -7 -5 -10
23 -10 30 0 37 -4 37 -20 0 -16 -9 -21 -50 -26 -29 -4 -47 -11 -43 -16 3 -6
24 -8 49 -4 42 5 44 4 44 -19 0 -21 -5 -25 -29 -25 -17 0 -33 -4 -36 -10 -4
-6 8 -10 29 -10 32 0 36 -3 36 -25 0 -20 -5 -25 -24 -25 -14 0 -28 -4 -31 -10
-4 -6 7 -10 24 -10 24 0 31 -4 31 -20 0 -17 -7 -20 -39 -20 -41 0 -62 -14 -36
-24 8 -3 28 -3 44 0 25 5 29 3 35 -26 8 -45 8 -50 -6 -50 -21 0 -138 52 -138
61 0 5 9 24 19 43 22 38 13 56 -26 56 -29 0 -29 6 3 65 14 26 23 54 20 61 -6
17 -40 18 -67 4 -25 -14 -25 -30 1 -23 11 3 20 4 20 2 0 -6 -27 -92 -35 -111
-6 -15 -2 -18 20 -18 24 0 26 -3 23 -32 -3 -32 -5 -33 -42 -30 -26 3 -36 0
-32 -7 4 -6 16 -11 26 -11 33 0 31 -17 -10 -63 -22 -25 -40 -48 -40 -52 0 -12
54 27 81 59 l27 31 38 -21 c170 -94 149 -87 246 -82 118 6 133 22 33 37 -42 6
-87 11 -100 11 -32 0 -37 12 -29 65 l6 45 74 0 c74 0 106 14 59 26 -14 3 -50
3 -80 -1 -50 -6 -55 -5 -55 13 0 17 9 21 52 27 41 6 48 9 34 17 -10 6 -31 7
-47 4 -21 -4 -31 -1 -36 10 -8 21 1 27 49 33 39 6 42 8 43 36 0 27 4 31 43 39
23 5 42 13 42 17 0 8 -7 10 -50 13 -10 1 -14 9 -12 23 4 27 -30 39 -82 29
l-35 -7 2 43 c2 38 -1 43 -21 46 -20 3 -23 0 -22 -25z m108 -95 c-2 -18 -11
-24 -35 -26 -27 -3 -33 0 -33 17 0 19 15 27 53 30 14 1 18 -5 15 -21z m-8 -63
c0 -14 -29 -35 -49 -35 -12 0 -15 33 -4 43 13 13 53 7 53 -8z"/>
</g>
<g id="part-1" class="char-part">
  <path d="M180 433 c-5 -21 -21 -58 -35 -82 -14 -24 -24 -45 -22 -47 2 -2 19
12 38 30 62 62 87 136 45 136 -9 0 -20 -16 -26 -37z"/>
</g>
<g id="part-2" class="char-part">
  <path d="M258 485 l5 -95 -32 -6 c-45 -9 -49 -24 -6 -24 l36 0 -3 -47 -3 -48
-82 -35 c-45 -19 -81 -39 -79 -45 1 -5 14 -14 28 -19 20 -7 34 -2 78 27 30 20
55 35 57 34 1 -2 -3 -33 -9 -70 -8 -51 -8 -74 1 -93 26 -58 49 2 50 131 1 55
3 62 33 87 24 20 28 28 16 28 -9 0 -20 -4 -23 -10 -13 -22 -25 -8 -25 29 0 36
3 40 30 46 39 9 39 25 -1 25 l-31 0 7 58 c3 31 9 66 11 78 4 15 -2 23 -21 32
-14 7 -30 12 -34 12 -5 0 -6 -43 -3 -95z"/>
</g>
<g id="part-3" class="char-part">
  <path d="M404 405 c-19 -14 -18 -14 4 -15 26 0 26 3 7 -50 -18 -52 -19 -60 -2
-60 16 0 72 114 63 129 -10 16 -48 14 -72 -4z"/>
</g>
<g id="part-4" class="char-part">
  <path d="M438 220 c-9 -28 -13 -30 -46 -24 -25 5 -33 4 -28 -5 4 -6 16 -11 27
-11 30 0 22 -27 -22 -75 -23 -25 -38 -45 -34 -45 17 0 62 34 84 64 l25 32 98
-53 c91 -50 102 -53 165 -52 37 0 86 6 108 12 l39 12 -89 13 c-148 21 -305 70
-305 94 0 5 7 22 15 38 15 29 15 30 -5 30 -14 0 -24 -10 -32 -30z"/>
</g>
<g id="part-5" class="char-part">
  <path d="M610 305 c0 -9 -11 -20 -25 -25 -14 -5 -25 -12 -25 -15 0 -4 5 -3 10
0 14 9 52 -4 45 -16 -4 -5 1 -9 9 -9 10 0 13 6 10 15 -4 10 0 15 10 15 15 0
15 2 0 25 -18 28 -34 33 -34 10z"/>
  <path d="M678 283 c7 -3 16 -2 19 1 4 3 -2 6 -13 5 -11 0 -14 -3 -6 -6z"/>
  <path d="M700 224 c-25 -13 -25 -14 -2 -14 12 0 22 5 22 11 0 8 11 9 33 5 23
-4 28 -3 17 4 -20 13 -39 11 -70 -6z"/>
  <path d="M600 221 c0 -4 -11 -7 -24 -6 -13 2 -29 -1 -37 -6 -9 -6 0 -9 29 -9
44 0 46 -2 44 -65 -1 -11 6 1 14 28 8 26 21 47 27 47 19 0 -16 20 -35 20 -10
0 -18 -4 -18 -9z m37 -7 c-3 -3 -12 -4 -19 -1 -8 3 -5 6 6 6 11 1 17 -2 13 -5z"/>
</g>
</g>
</svg>