<?xml version="1.0" standalone="no"?>
<!DOCTYPE svg PUBLIC "-//W3C//DTD SVG 20010904//EN"
 "http://www.w3.org/TR/2001/REC-SVG-20010904/DTD/svg10.dtd">
<svg version="1.0" xmlns="http://www.w3.org/2000/svg"
 width="96.000000pt" height="68.000000pt" viewBox="0 0 96.000000 68.000000"
 preserveAspectRatio="xMidYMid meet">
<metadata>
Created by potrace 1.16, written by Peter Selinger 2001-2019
Combined from part_0.svg through part_5.svg with named groups
</metadata>
<g transform="translate(0.000000,68.000000) scale(0.100000,-0.100000)" fill="#000000" stroke="none">
<g id="part-0" class="char-part">
  <path d="M546 578 c10 -13 23 -26 29 -30 13 -9 -7 -15 -80 -24 -56 -7 -58 -8
-27 -14 18 -4 42 -5 53 -3 29 8 23 -15 -11 -44 -39 -32 -30 -46 24 -38 34 6
39 5 28 -6 -8 -9 -38 -15 -78 -16 -56 -1 -67 -5 -84 -26 -23 -29 -26 -57 -7
-57 16 0 47 32 47 48 0 7 15 12 38 12 l37 -1 -24 -20 c-18 -14 -21 -23 -13
-31 8 -8 30 -6 81 8 55 14 74 15 83 6 7 -7 16 -12 20 -12 15 0 8 27 -11 44
-16 15 -20 15 -28 3 -4 -8 -30 -17 -58 -21 -46 -6 -48 -5 -33 10 19 19 82 33
151 34 48 0 56 -7 35 -28 -14 -14 -4 -15 55 -6 44 8 47 24 8 47 -23 14 -38 15
-87 7 -32 -6 -68 -10 -79 -10 -18 1 -17 3 8 23 15 13 27 28 27 34 0 22 -23 26
-39 6 -17 -21 -81 -39 -81 -23 0 5 10 15 23 21 12 7 25 17 29 24 4 7 29 16 55
20 74 10 93 16 87 27 -4 6 -28 7 -60 3 -44 -5 -54 -4 -54 9 0 23 -29 46 -57
46 -26 0 -26 0 -7 -22z"/>
  <path d="M254 533 c-10 -39 -32 -72 -78 -116 -32 -32 -38 -42 -29 -55 11 -18
33 -20 71 -8 34 11 27 -8 -23 -55 -40 -38 -43 -45 -31 -58 13 -13 24 -10 86
18 53 25 75 30 83 22 17 -17 37 -13 37 7 0 38 -53 59 -62 24 -5 -16 -76 -47
-86 -37 -3 3 15 25 39 49 111 112 113 114 99 131 -20 24 -36 18 -51 -17 -7
-18 -18 -36 -23 -40 -13 -9 -66 -11 -66 -2 0 3 23 31 50 63 52 60 61 85 34 95
-30 12 -44 6 -50 -21z"/>
  <path d="M559 323 c-1 -5 0 -23 1 -40 1 -31 -1 -33 -29 -33 -17 0 -31 5 -31
10 0 6 5 10 11 10 8 0 8 5 -1 15 -25 30 -34 21 -79 -80 -2 -5 8 -2 22 8 15 9
44 17 67 17 35 0 40 -3 40 -24 0 -27 -28 -36 -118 -36 -53 0 -55 -1 -39 -17
15 -15 23 -16 75 -5 86 18 82 20 82 -57 0 -39 4 -72 9 -75 13 -8 31 50 31 100
0 39 2 43 30 49 17 4 59 3 95 0 44 -5 65 -4 65 3 0 24 -41 33 -116 26 l-76 -7
4 24 c2 20 11 25 56 33 67 11 67 28 0 25 -50 -3 -53 -2 -50 20 4 24 -11 41
-35 41 -7 0 -13 -3 -14 -7z"/>
  <path d="M330 221 c13 -25 27 -34 40 -26 16 10 -8 45 -31 45 -16 0 -18 -3 -9
-19z"/>
  <path d="M243 210 c4 -8 10 -23 13 -32 8 -23 37 -24 32 -2 -2 9 -14 24 -27 33
-20 13 -23 13 -18 1z"/>
  <path d="M140 183 c0 -19 42 -74 53 -70 22 7 19 44 -5 61 -24 17 -48 21 -48 9z"/>
</g>
<g id="part-1" class="char-part">
  <path d="M247 507 c-13 -30 -41 -70 -61 -90 -57 -57 -45 -76 34 -57 53 13 71
34 20 23 -16 -3 -30 -1 -30 4 0 5 25 38 55 73 30 36 55 68 55 72 0 7 -33 28
-44 28 -2 0 -16 -24 -29 -53z"/>
</g>
<g id="part-2" class="char-part">
  <path d="M320 237 c0 -8 9 -22 20 -32 16 -15 23 -16 33 -6 9 10 7 16 -12 32
-27 22 -41 24 -41 6z"/>
  <path d="M240 215 c0 -18 33 -66 42 -63 21 7 20 26 -1 47 -20 20 -41 28 -41
16z"/>
  <path d="M140 188 c0 -22 40 -80 53 -75 25 8 13 50 -20 70 -25 14 -33 16 -33
5z"/>
</g>
<g id="part-3" class="char-part">
  <path d="M530 603 c0 -3 9 -16 20 -30 27 -34 25 -43 -7 -43 -50 0 -103 -12
-97 -22 8 -12 168 -1 262 18 13 3 20 9 16 16 -4 7 -26 8 -60 4 -42 -5 -54 -3
-54 7 0 8 -8 21 -17 29 -18 15 -63 30 -63 21z"/>
</g>
<g id="part-4" class="char-part">
  <path d="M565 503 c-26 -6 -75 -53 -75 -70 0 -11 9 -12 38 -7 20 4 44 11 52
16 10 6 5 8 -17 4 -41 -7 -42 4 -3 27 17 10 30 22 30 28 0 5 -1 8 -2 8 -2 -1
-12 -3 -23 -6z"/>
</g>
<g id="part-5" class="char-part">
  <path d="M563 311 c0 -9 5 -22 11 -30 8 -11 8 -13 -1 -7 -10 5 -12 -2 -9 -26
2 -18 4 -39 5 -45 2 -24 19 -13 30 19 8 23 8 34 0 38 -14 10 -14 21 3 31 10 7
10 9 0 9 -7 0 -11 4 -8 9 3 5 -2 11 -12 13 -12 4 -19 0 -19 -11z"/>
  <path d="M620 251 c0 -4 11 -6 25 -3 14 2 25 6 25 8 0 2 -11 4 -25 4 -14 0
-25 -4 -25 -9z"/>
  <path d="M510 240 c-12 -8 -12 -10 5 -10 11 0 27 5 35 10 12 8 12 10 -5 10
-11 0 -27 -5 -35 -10z"/>
  <path d="M690 185 c-24 -13 -22 -13 33 -14 53 0 57 2 40 14 -23 18 -41 18 -73
0z"/>
  <path d="M534 169 c-4 -8 1 -9 16 -4 15 5 20 4 16 -4 -4 -7 1 -11 13 -11 12 0
21 4 21 9 0 5 10 12 23 14 12 2 -1 5 -30 6 -29 0 -55 -4 -59 -10z"/>
  <path d="M444 161 c3 -5 3 -11 -1 -14 -5 -2 -2 -2 5 0 8 1 23 3 34 3 27 0 21
5 -15 14 -17 4 -26 3 -23 -3z"/>
  <path d="M566 134 c8 -3 9 -19 3 -47 -4 -23 -5 -44 -3 -46 2 -2 4 2 4 10 0 11
2 11 10 -1 7 -11 10 -6 10 22 0 20 3 43 6 52 5 12 0 16 -17 15 -13 0 -19 -3
-13 -5z"/>
</g>
</g>
</svg>