<?xml version="1.0" standalone="no"?>
<!DOCTYPE svg PUBLIC "-//W3C//DTD SVG 20010904//EN"
 "http://www.w3.org/TR/2001/REC-SVG-20010904/DTD/svg10.dtd">
<svg version="1.0" xmlns="http://www.w3.org/2000/svg"
 width="96.000000pt" height="68.000000pt" viewBox="0 0 96.000000 68.000000"
 preserveAspectRatio="xMidYMid meet">
<metadata>
Created by potrace 1.16, written by Peter Selinger 2001-2019
Combined from part_0.svg through part_5.svg with named groups
</metadata>
<g transform="translate(0.000000,68.000000) scale(0.100000,-0.100000)" fill="#000000" stroke="none">
<g id="part-0" class="char-part">
  <path d="M531 578 c6 -13 18 -30 26 -39 12 -15 10 -17 -24 -23 -21 -3 -50 -6
-65 -6 -16 0 -28 -4 -28 -10 0 -5 7 -10 15 -10 12 0 60 -76 57 -90 -1 -3 -33
-7 -72 -10 -55 -4 -70 -2 -70 9 0 24 -32 39 -73 33 l-39 -5 7 71 c7 71 7 72
-20 82 -14 5 -30 10 -34 10 -5 0 -6 -41 -3 -91 l5 -91 -42 3 -42 3 -5 -92 c-4
-75 -2 -92 9 -92 15 0 27 41 27 94 0 50 11 76 31 76 17 0 19 -9 19 -102 0 -57
-5 -133 -10 -170 -10 -71 0 -118 26 -118 28 0 34 42 34 219 l0 181 30 0 31 0
-3 -72 c-3 -62 -6 -73 -20 -72 -14 1 -15 -2 -8 -17 28 -52 60 -25 67 58 l6 60
136 8 c283 16 321 20 319 30 -2 6 -38 9 -90 7 -49 -1 -88 0 -88 4 0 3 9 17 20
31 12 16 18 34 15 45 -5 13 -1 18 14 18 11 0 23 5 26 10 4 6 -17 10 -54 10
-53 0 -61 2 -61 19 0 20 -39 51 -65 51 -13 0 -14 -4 -4 -22z m99 -109 c0 -49
-16 -69 -55 -69 -30 0 -35 3 -35 23 0 13 -9 32 -21 43 l-21 19 24 6 c12 4 42
7 66 8 40 1 42 0 42 -30z"/>
  <path d="M625 344 c-44 -7 -110 -13 -147 -13 -66 -1 -67 -1 -51 -21 9 -10 24
-43 33 -72 15 -52 16 -53 58 -56 33 -2 42 -7 42 -21 0 -15 -11 -20 -52 -25
-59 -8 -49 -26 15 -26 29 0 37 -4 37 -19 0 -15 -11 -19 -61 -25 -34 -3 -79 -6
-100 -6 -22 0 -39 -4 -39 -9 0 -16 54 -19 160 -11 58 5 152 9 210 10 97 1 103
2 85 16 -16 13 -37 14 -111 9 -94 -7 -110 -2 -98 29 4 11 19 16 43 16 20 0 46
3 58 6 40 11 14 24 -48 24 -54 0 -59 2 -59 21 0 20 4 21 50 16 33 -4 52 -2 57
6 13 21 53 121 53 134 0 13 -32 34 -47 32 -4 -1 -44 -8 -88 -15z m76 -26 c2
-19 -1 -38 -12 -81 -8 -29 -13 -36 -23 -28 -6 6 -21 8 -33 5 -11 -3 -24 -1
-28 6 -11 17 15 40 46 40 15 0 31 5 34 10 4 6 -10 10 -34 10 -37 0 -41 2 -41
25 0 23 4 25 45 25 29 0 45 -5 46 -12z m-144 -20 c-1 -28 -14 -38 -48 -38 -17
0 -28 6 -31 18 -8 31 3 42 42 42 34 0 39 -3 37 -22z m1 -70 c-3 -25 -43 -37
-60 -20 -19 19 0 42 32 42 27 0 31 -3 28 -22z"/>
</g>
<g id="part-1" class="char-part">
  <path d="M207 558 c9 -25 8 -252 -2 -419 -5 -85 -4 -108 8 -117 11 -10 17 -9
28 4 11 13 13 52 11 173 -1 86 2 201 7 256 10 109 5 125 -36 125 -21 0 -23 -3
-16 -22z"/>
</g>
<g id="part-2" class="char-part">
  <path d="M275 428 c-27 -6 -72 -11 -100 -11 l-50 -1 -2 -93 c-3 -94 9 -126 27
-78 6 14 10 48 10 74 0 66 13 78 93 86 l68 7 -3 -73 c-3 -72 -4 -74 -28 -71
l-25 3 27 -28 c26 -26 29 -26 45 -10 12 12 20 42 25 99 6 71 5 85 -9 96 -9 6
-19 11 -22 11 -3 -1 -28 -6 -56 -11z"/>
</g>
<g id="part-3" class="char-part">
  <path d="M531 578 c6 -13 18 -30 26 -40 13 -15 9 -17 -51 -23 -76 -8 -89 -25
-18 -25 55 0 224 19 231 25 12 12 -15 19 -64 17 -49 -2 -55 0 -55 17 0 22 -35
51 -63 51 -15 0 -16 -3 -6 -22z"/>
</g>
<g id="part-4" class="char-part">
  <path d="M630 469 c0 -49 -16 -69 -55 -69 -29 0 -34 4 -37 27 -3 25 -52 72
-64 61 -3 -3 6 -24 20 -47 14 -22 26 -43 26 -46 0 -3 -31 -5 -69 -5 -42 0 -73
-5 -77 -12 -5 -8 23 -9 112 -4 65 4 133 9 149 11 17 2 65 4 108 6 42 1 80 5
82 9 10 16 -31 21 -109 14 l-79 -7 22 36 c24 39 21 57 -10 57 -15 0 -19 -7
-19 -31z"/>
</g>
<g id="part-5" class="char-part">
  <path d="M572 165 c-10 -12 -10 -15 0 -16 7 0 0 -5 -15 -11 l-28 -10 26 -14
c40 -21 45 -18 43 26 -1 43 -6 47 -26 25z"/>
  <path d="M613 135 c0 -19 26 -19 51 0 19 15 19 15 -1 15 -12 0 -24 -6 -26 -12
-4 -10 -6 -10 -6 0 -1 17 -18 15 -18 -3z"/>
  <path d="M698 133 c7 -3 16 -2 19 1 4 3 -2 6 -13 5 -11 0 -14 -3 -6 -6z"/>
  <path d="M560 80 c0 -16 -7 -20 -32 -21 -18 0 -61 -1 -95 -2 -35 -1 -63 -6
-63 -10 0 -5 42 -6 93 -3 50 3 151 7 224 8 72 1 129 6 126 11 -2 4 -50 7 -105
6 -55 -1 -103 3 -107 8 -3 5 -14 12 -23 16 -13 5 -18 1 -18 -13z"/>
</g>
</g>
</svg>