<?xml version="1.0" standalone="no"?>
<!DOCTYPE svg PUBLIC "-//W3C//DTD SVG 20010904//EN"
 "http://www.w3.org/TR/2001/REC-SVG-20010904/DTD/svg10.dtd">
<svg version="1.0" xmlns="http://www.w3.org/2000/svg"
 width="96.000000pt" height="68.000000pt" viewBox="0 0 96.000000 68.000000"
 preserveAspectRatio="xMidYMid meet">
<metadata>
Created by potrace 1.16, written by Peter Selinger 2001-2019
Combined from part_0.svg through part_5.svg with named groups
</metadata>
<g transform="translate(0.000000,68.000000) scale(0.100000,-0.100000)" fill="#000000" stroke="none">
<g id="part-0" class="char-part">
  <path d="M410 623 c0 -5 7 -21 16 -38 8 -16 16 -45 17 -65 l2 -35 -158 -20
c-87 -11 -158 -24 -158 -30 -1 -24 72 -26 198 -6 70 11 131 17 134 13 3 -4 13
-33 22 -65 l16 -58 -35 -21 c-55 -32 -41 -53 16 -23 27 14 30 14 40 -4 17 -32
12 -46 -25 -65 -45 -25 -39 -30 12 -12 40 14 41 14 62 -14 l21 -29 -58 -34
c-31 -20 -73 -42 -92 -51 l-35 -16 35 6 c19 4 65 22 102 40 54 27 69 31 80 21
32 -30 100 -67 143 -78 56 -14 70 -5 55 35 -5 15 -10 42 -10 59 0 34 -14 65
-23 51 -2 -5 -8 -24 -12 -42 -3 -17 -13 -32 -20 -32 -23 0 -45 12 -39 21 3 5
2 9 -3 8 -15 -4 -43 13 -43 26 0 8 8 16 18 20 31 10 62 43 56 58 -12 32 -36
28 -72 -13 -33 -39 -35 -40 -53 -24 -26 23 -24 37 9 57 15 9 38 26 51 37 23
20 23 21 5 35 -26 20 -33 19 -45 -9 -6 -13 -22 -29 -35 -36 -13 -7 -21 -18
-18 -24 3 -6 -2 -2 -10 8 -24 30 -20 41 35 87 l51 43 -22 18 c-30 24 -47 23
-56 -4 -7 -25 -33 -58 -44 -58 -9 0 -31 82 -25 89 3 2 44 7 92 10 94 7 116 22
59 41 -32 10 -98 7 -148 -7 -16 -4 -18 4 -18 60 0 59 -2 65 -22 71 -32 8 -68
7 -68 -1z"/>
  <path d="M540 597 c0 -21 65 -70 87 -65 25 4 29 44 6 56 -10 6 -35 13 -56 17
-30 6 -37 4 -37 -8z"/>
  <path d="M290 355 c-20 -7 -52 -11 -74 -8 l-38 6 15 -24 c8 -13 18 -41 21 -61
4 -21 10 -39 14 -41 4 -3 39 1 77 8 55 9 69 15 67 28 -1 9 4 33 13 53 12 30
13 39 3 46 -18 11 -57 9 -98 -7z m38 -52 c-2 -30 -8 -38 -31 -46 -34 -11 -44
-3 -53 40 -7 33 1 38 64 42 21 1 23 -3 20 -36z"/>
  <path d="M305 169 c-50 -16 -107 -32 -128 -35 -43 -7 -44 -24 -3 -39 23 -8 43
-1 139 47 62 31 105 57 97 57 -8 0 -55 -13 -105 -30z"/>
</g>
<g id="part-1" class="char-part">
  <path d="M420 622 c0 -5 6 -25 14 -43 7 -19 17 -48 20 -65 l7 -31 -133 -17
c-188 -24 -202 -27 -186 -37 20 -13 104 -11 198 6 130 23 124 25 145 -52 17
-64 17 -67 1 -77 -10 -6 -25 -17 -34 -24 -15 -12 -15 -13 6 -8 12 3 30 9 40
12 15 4 22 -2 33 -28 44 -109 174 -218 259 -218 34 0 34 1 16 85 -12 57 -13
59 -20 28 -11 -46 -28 -58 -63 -39 -52 27 -111 85 -143 142 l-32 57 51 44 c52
45 55 55 21 73 -16 9 -22 5 -36 -25 -9 -20 -25 -40 -35 -45 -15 -9 -20 -5 -28
27 -19 69 -17 73 42 73 109 0 165 22 95 37 -18 4 -35 7 -38 6 -3 0 -31 -4 -62
-8 l-58 -6 0 54 c0 32 -5 59 -13 65 -18 15 -67 26 -67 14z"/>
  <path d="M570 565 c38 -39 51 -43 71 -19 11 14 10 19 -10 35 -13 11 -39 19
-59 19 l-36 0 34 -35z"/>
</g>
<g id="part-2" class="char-part">
  <path d="M690 257 c0 -7 -14 -26 -31 -43 l-31 -29 -18 23 c-11 13 -24 20 -34
16 -21 -8 -20 -23 1 -46 16 -18 15 -20 -7 -36 -13 -9 -55 -34 -94 -55 -58 -31
-65 -36 -36 -31 19 4 66 22 103 41 52 26 72 31 82 23 19 -16 57 9 50 31 -4 12
7 26 34 46 45 31 49 40 24 59 -23 17 -43 18 -43 1z"/>
</g>
<g id="part-3" class="char-part">
  <path d="M285 355 c-22 -7 -55 -10 -74 -7 -30 5 -32 3 -22 -14 7 -10 17 -39
24 -64 15 -50 12 -49 107 -33 38 6 54 13 52 23 -2 7 4 31 13 52 8 22 13 44 10
49 -8 12 -61 10 -110 -6z m46 -52 c-5 -30 -11 -38 -36 -45 -35 -9 -42 -3 -51
39 -7 33 1 38 67 42 24 1 26 -1 20 -36z"/>
</g>
<g id="part-4" class="char-part">
  <path d="M278 161 c-70 -20 -130 -39 -133 -43 -4 -4 6 -13 22 -21 27 -14 33
-12 143 44 63 32 111 58 105 58 -5 -1 -67 -17 -137 -38z"/>
</g>
</g>
</svg>