<?xml version="1.0" standalone="no"?>
<!DOCTYPE svg PUBLIC "-//W3C//DTD SVG 20010904//EN"
 "http://www.w3.org/TR/2001/REC-SVG-20010904/DTD/svg10.dtd">
<svg version="1.0" xmlns="http://www.w3.org/2000/svg"
 width="96.000000pt" height="68.000000pt" viewBox="0 0 96.000000 68.000000"
 preserveAspectRatio="xMidYMid meet">
<metadata>
Created by potrace 1.16, written by Peter Selinger 2001-2019
Combined from part_0.svg through part_5.svg with named groups
</metadata>
<g transform="translate(0.000000,68.000000) scale(0.100000,-0.100000)" fill="#000000" stroke="none">
<g id="part-0" class="char-part">
  <path d="M648 573 c-7 -16 -18 -36 -27 -46 -25 -30 -3 -31 39 -2 56 39 67 54
49 66 -26 16 -49 9 -61 -18z"/>
  <path d="M210 556 c0 -21 44 -81 63 -84 21 -4 31 20 23 52 -8 33 -86 62 -86
32z"/>
  <path d="M470 556 c0 -20 39 -66 56 -66 20 0 18 34 -3 52 -27 23 -53 30 -53
14z"/>
  <path d="M575 470 c-152 -24 -158 -26 -108 -35 45 -8 50 -17 49 -96 l-1 -44
-40 -3 c-22 -1 -56 -5 -75 -8 -31 -5 -33 -7 -18 -18 14 -10 35 -10 105 0 49 8
147 14 220 14 72 0 134 4 137 9 13 20 -53 33 -129 26 l-76 -7 6 63 c9 87 10
89 49 89 40 0 66 8 66 21 0 13 -58 9 -185 -11z m33 -97 l-3 -68 -30 0 c-29 0
-30 2 -27 40 6 80 12 95 38 95 24 0 25 -2 22 -67z"/>
  <path d="M197 450 c-115 -19 -130 -25 -107 -40 21 -14 75 -12 145 4 33 8 84
17 113 21 33 4 52 11 49 19 -6 17 -81 16 -200 -4z"/>
  <path d="M716 390 c-14 -22 -26 -42 -26 -45 0 -4 23 6 50 21 55 30 60 38 31
54 -27 14 -25 15 -55 -30z"/>
  <path d="M422 383 c24 -51 33 -63 45 -63 19 0 16 23 -7 48 -20 21 -46 31 -38
15z"/>
  <path d="M253 367 c-82 -13 -84 -32 -2 -23 65 6 102 20 78 27 -8 3 -42 1 -76
-4z"/>
  <path d="M250 298 c-77 -17 -73 -31 5 -23 78 8 94 13 74 26 -16 10 -20 10 -79
-3z"/>
  <path d="M270 224 c-25 -7 -63 -14 -84 -14 -36 0 -38 -1 -24 -17 9 -10 21 -35
27 -55 13 -41 26 -54 36 -38 3 5 26 10 51 10 34 0 46 4 50 18 3 9 12 33 21 52
13 31 13 35 -3 47 -21 15 -17 15 -74 -3z m26 -29 c12 -31 -5 -63 -35 -67 -24
-3 -32 0 -40 19 -18 39 -13 51 22 56 17 2 36 5 40 5 4 1 10 -5 13 -13z"/>
  <path d="M555 227 l-90 -10 3 -86 c4 -89 12 -112 34 -94 7 6 50 11 95 12 68 2
83 -1 91 -15 6 -10 16 -15 25 -11 12 5 16 26 19 99 2 51 -1 99 -6 106 -9 13
-38 13 -171 -1z m123 -47 c2 -20 -2 -25 -20 -26 -13 0 -51 -4 -85 -8 l-63 -8
0 30 c0 35 15 40 110 38 51 -1 55 -3 58 -26z m0 -105 c-2 -2 -40 -5 -85 -7
l-83 -3 0 27 c0 25 3 27 68 33 37 3 74 7 82 8 10 2 16 -8 18 -26 2 -16 2 -30
0 -32z"/>
</g>
<g id="part-1" class="char-part">
  <path d="M210 563 c0 -3 10 -23 22 -45 16 -28 28 -38 43 -36 15 2 19 9 17 28
-1 13 -6 28 -10 32 -11 11 -72 28 -72 21z"/>
  <path d="M213 447 c-68 -11 -123 -23 -123 -28 0 -17 68 -20 126 -5 32 8 85 18
117 22 57 7 71 16 41 28 -19 7 -10 8 -161 -17z"/>
</g>
<g id="part-2" class="char-part">
  <path d="M266 223 c-28 -8 -65 -13 -83 -11 -35 4 -40 -1 -21 -20 7 -7 20 -31
28 -55 11 -27 22 -41 31 -38 8 2 35 6 62 9 38 4 47 8 47 24 0 11 8 33 18 50
16 28 16 30 -2 44 -23 16 -18 17 -80 -3z m30 -26 c3 -8 0 -26 -5 -40 -8 -21
-17 -27 -41 -27 -17 0 -30 5 -30 13 0 6 -3 22 -6 34 -5 19 -1 22 28 26 18 2
37 5 41 5 4 1 10 -4 13 -11z"/>
</g>
<g id="part-3" class="char-part">
  <path d="M628 545 l-27 -55 27 14 c38 20 98 73 91 80 -3 3 -19 8 -35 11 -27 5
-31 1 -56 -50z"/>
  <path d="M479 528 c22 -36 55 -48 64 -24 8 21 -30 56 -61 56 l-24 0 21 -32z"/>
  <path d="M570 470 c-63 -10 -122 -19 -130 -19 -13 -1 -13 -2 0 -11 16 -11 102
-6 220 11 81 12 100 18 100 30 0 13 -57 10 -190 -11z"/>
</g>
<g id="part-4" class="char-part">
  <path d="M712 383 c-18 -25 -32 -46 -30 -48 2 -2 28 13 57 32 51 33 54 36 36
49 -10 8 -21 14 -24 13 -3 0 -21 -21 -39 -46z"/>
  <path d="M420 384 c0 -15 35 -64 44 -61 19 6 17 26 -3 46 -20 20 -41 28 -41
15z"/>
</g>
<g id="part-5" class="char-part">
  <path d="M664 217 c24 -20 28 -28 22 -51 -4 -16 -2 -33 4 -41 7 -8 7 -21 0
-39 -11 -30 -4 -56 17 -56 8 0 12 4 8 9 -3 5 -1 12 5 16 6 3 9 41 8 86 -1 87
-9 99 -65 99 l-28 0 29 -23z"/>
  <path d="M555 220 c-22 -5 -47 -7 -56 -4 -24 7 -31 -21 -23 -98 5 -48 11 -68
20 -68 16 0 19 16 4 25 -5 3 -10 16 -9 28 0 21 1 21 9 2 7 -17 9 -17 9 -2 1 9
9 17 19 17 12 0 10 4 -8 13 -16 9 -24 20 -22 33 5 28 15 35 61 41 23 3 44 10
47 14 6 10 5 10 -51 -1z"/>
  <path d="M633 143 c9 -2 23 -2 30 0 6 3 -1 5 -18 5 -16 0 -22 -2 -12 -5z"/>
  <path d="M578 133 c6 -2 18 -2 25 0 6 3 1 5 -13 5 -14 0 -19 -2 -12 -5z"/>
</g>
</g>
</svg>