<?xml version="1.0" standalone="no"?>
<!DOCTYPE svg PUBLIC "-//W3C//DTD SVG 20010904//EN"
 "http://www.w3.org/TR/2001/REC-SVG-20010904/DTD/svg10.dtd">
<svg version="1.0" xmlns="http://www.w3.org/2000/svg"
 width="96.000000pt" height="68.000000pt" viewBox="0 0 96.000000 68.000000"
 preserveAspectRatio="xMidYMid meet">
<metadata>
Created by potrace 1.16, written by Peter Selinger 2001-2019
Combined from part_0.svg through part_5.svg with named groups
</metadata>
<g transform="translate(0.000000,68.000000) scale(0.100000,-0.100000)" fill="#000000" stroke="none">
<g id="part-0" class="char-part">
  <path d="M516 568 c-7 -18 -27 -46 -44 -63 -35 -33 -41 -48 -15 -38 14 5 15 1
9 -36 -6 -38 -4 -42 11 -37 60 18 73 18 73 2 0 -9 -4 -16 -9 -16 -5 0 -11 -7
-15 -15 -11 -29 14 -15 36 21 21 33 26 35 65 31 39 -4 43 -3 53 26 8 23 7 33
-2 39 -21 13 -28 9 -28 -17 0 -21 -5 -25 -31 -25 -25 0 -29 3 -24 19 4 14 0
23 -15 31 -18 10 -20 8 -20 -23 0 -27 -5 -36 -22 -41 -35 -9 -38 -8 -38 18 0
14 -5 28 -10 31 -6 4 -1 14 12 24 25 20 209 48 229 35 8 -4 10 -30 7 -76 -6
-73 -18 -92 -50 -82 -25 8 -22 -9 6 -35 l24 -22 27 23 c22 19 28 34 31 80 2
31 8 68 14 82 7 19 6 29 -6 41 -18 18 -51 19 -145 4 -39 -6 -74 -8 -77 -4 -4
4 -1 10 6 12 17 7 15 30 -4 37 -27 10 -33 7 -48 -26z"/>
  <path d="M276 558 c-9 -12 -16 -28 -16 -35 0 -7 -25 -37 -55 -68 -75 -77 -71
-109 11 -86 21 6 40 8 43 6 5 -6 -80 -84 -91 -85 -5 0 -8 -6 -8 -14 0 -17 28
-29 43 -19 35 22 142 51 158 42 27 -14 39 -11 39 10 0 21 -15 35 -47 45 -19 6
-23 3 -23 -12 0 -15 -13 -24 -51 -36 -28 -10 -53 -15 -55 -13 -4 4 134 133
160 149 8 5 8 12 0 25 -18 28 -32 26 -50 -9 -9 -18 -18 -35 -20 -37 -7 -8 -85
-18 -89 -11 -2 3 23 33 55 65 64 64 71 79 41 95 -26 14 -28 13 -45 -12z"/>
  <path d="M472 306 c-6 -14 -28 -44 -49 -67 -32 -35 -34 -40 -13 -29 14 7 33
20 43 28 19 16 236 46 263 35 19 -7 19 -132 0 -178 -8 -19 -16 -35 -18 -35 -2
0 -18 4 -36 9 -39 11 -40 3 -7 -33 30 -33 61 -31 86 4 14 19 49 189 49 236 0
2 -9 8 -21 14 -15 8 -51 8 -135 -1 -112 -11 -144 -8 -114 12 13 8 13 10 0 19
-24 15 -36 12 -48 -14z"/>
  <path d="M340 240 c23 -32 40 -39 40 -17 0 17 -32 47 -49 47 -8 0 -5 -11 9
-30z"/>
  <path d="M538 198 c-3 -40 -5 -43 -33 -43 -25 0 -30 4 -30 25 0 15 -7 26 -16
28 -12 2 -18 -8 -23 -38 -8 -53 -2 -61 34 -49 16 6 37 9 47 7 14 -3 10 -11
-24 -46 -22 -23 -35 -42 -27 -42 7 0 34 25 61 55 39 45 54 55 80 55 22 0 33
-5 36 -17 3 -13 9 -7 21 21 19 42 15 66 -9 66 -9 0 -15 -9 -15 -24 0 -18 -7
-25 -27 -29 -35 -7 -48 5 -34 32 9 17 8 22 -8 31 -29 15 -30 14 -33 -32z"/>
  <path d="M250 220 c0 -5 9 -19 20 -30 11 -11 25 -20 30 -20 15 0 12 27 -6 44
-17 18 -44 21 -44 6z"/>
  <path d="M156 178 c9 -18 21 -38 26 -45 12 -15 38 -6 38 14 0 19 -45 63 -65
63 -14 0 -14 -3 1 -32z"/>
</g>
<g id="part-1" class="char-part">
  <path d="M265 530 c-10 -23 -40 -63 -67 -88 -72 -71 -63 -93 26 -67 68 20 81
35 24 28 l-43 -6 40 44 c22 23 50 51 63 62 28 24 26 61 -4 65 -16 2 -25 -7
-39 -38z"/>
</g>
<g id="part-2" class="char-part">
  <path d="M337 240 c9 -16 23 -30 30 -30 20 0 15 38 -6 50 -35 18 -43 11 -24
-20z"/>
  <path d="M257 205 c17 -35 53 -49 53 -20 0 19 -36 55 -55 55 -13 0 -12 -5 2
-35z"/>
  <path d="M162 168 c24 -45 50 -56 56 -25 5 23 -35 67 -60 67 -18 0 -18 -2 4
-42z"/>
</g>
<g id="part-3" class="char-part">
  <path d="M516 574 c-4 -14 -26 -46 -49 -71 -37 -40 -39 -45 -17 -38 14 4 37
17 51 29 19 16 52 26 121 35 53 7 101 10 107 7 14 -9 14 -106 1 -141 -9 -22
-15 -26 -35 -21 -14 4 -25 3 -25 -2 0 -15 41 -53 53 -49 25 8 57 70 57 111 0
23 4 56 9 74 8 28 7 34 -12 47 -19 12 -33 12 -102 0 -44 -8 -91 -14 -105 -14
-24 0 -24 0 -6 14 24 18 14 45 -18 45 -17 0 -26 -7 -30 -26z"/>
</g>
<g id="part-4" class="char-part">
  <path d="M558 463 c-3 -33 -7 -38 -30 -41 -24 -3 -28 0 -28 22 0 38 -23 32
-36 -9 -14 -43 -5 -50 42 -35 44 15 52 8 30 -25 -9 -14 -12 -25 -6 -25 5 0 20
15 32 34 22 33 78 56 86 35 7 -18 20 -8 31 23 9 24 8 34 -1 40 -21 13 -28 9
-28 -16 0 -15 -7 -26 -19 -29 -26 -6 -45 7 -38 27 4 10 -1 20 -13 26 -17 9
-19 6 -22 -27z"/>
</g>
<g id="part-5" class="char-part">
  <path d="M555 208 c1 -13 -4 -33 -12 -45 -7 -13 -11 -23 -7 -23 3 0 -1 -11
-10 -25 -9 -14 -13 -25 -9 -25 12 0 47 63 48 85 0 11 3 25 7 31 4 6 5 14 1 18
-13 12 -20 6 -18 -16z"/>
  <path d="M643 205 c0 -8 4 -12 9 -9 16 10 8 -9 -9 -22 -12 -9 -14 -13 -5 -14
7 0 10 -4 7 -10 -3 -5 -2 -10 4 -10 12 0 25 56 16 70 -9 15 -22 12 -22 -5z"/>
  <path d="M464 192 c-20 -13 -36 -54 -26 -64 14 -14 34 0 30 20 -1 10 1 23 6
30 10 16 4 23 -10 14z"/>
</g>
</g>
</svg>