<?xml version="1.0" standalone="no"?>
<!DOCTYPE svg PUBLIC "-//W3C//DTD SVG 20010904//EN"
 "http://www.w3.org/TR/2001/REC-SVG-20010904/DTD/svg10.dtd">
<svg version="1.0" xmlns="http://www.w3.org/2000/svg"
 width="96.000000pt" height="68.000000pt" viewBox="0 0 96.000000 68.000000"
 preserveAspectRatio="xMidYMid meet">
<metadata>
Created by potrace 1.16, written by Peter Selinger 2001-2019
Combined from part_0.svg through part_5.svg with named groups
</metadata>
<g transform="translate(0.000000,68.000000) scale(0.100000,-0.100000)" fill="#000000" stroke="none">
<g id="part-0" class="char-part">
  <path d="M274 579 c-3 -5 -2 -19 2 -31 3 -12 10 -59 13 -105 7 -94 14 -86 -96
-99 -35 -3 -63 -10 -63 -14 0 -14 45 -19 85 -10 81 19 78 22 71 -82 -3 -51 -9
-107 -12 -124 -3 -18 0 -42 6 -54 11 -21 13 -21 28 -6 14 13 18 42 20 151 l4
134 54 7 c30 3 54 10 54 15 0 10 -9 11 -67 9 -42 -1 -43 -1 -38 27 13 87 15
161 3 170 -20 15 -57 22 -64 12z"/>
  <path d="M600 514 c-25 -7 -62 -13 -82 -13 -20 -1 -40 -6 -44 -12 -7 -12 58
-9 159 7 39 6 47 -4 24 -28 -7 -7 -20 -25 -30 -40 -10 -17 -26 -28 -39 -28
-17 0 -19 -3 -10 -12 7 -7 12 -20 12 -29 0 -14 -13 -19 -67 -24 -38 -3 -84 -9
-103 -14 -34 -7 -35 -7 -12 -20 19 -10 37 -9 99 3 41 9 80 16 85 16 7 0 9 -35
6 -94 -4 -102 -17 -133 -48 -116 -40 22 -40 8 0 -32 l42 -43 24 28 c22 26 24
36 24 141 0 95 3 115 16 120 9 3 52 6 97 6 76 1 81 2 62 16 -16 12 -35 14 -96
9 -74 -6 -77 -5 -82 17 -7 24 12 45 86 93 44 30 46 38 12 53 -32 15 -76 13
-135 -4z"/>
  <path d="M395 468 c-8 -18 -22 -43 -31 -54 -14 -21 -14 -22 10 -20 13 0 22 3
20 5 -2 2 14 12 37 22 35 16 39 21 29 39 -6 11 -19 24 -31 30 -17 10 -22 7
-34 -22z"/>
  <path d="M160 455 c0 -19 53 -75 71 -75 22 0 26 27 7 53 -13 17 -78 35 -78 22z"/>
  <path d="M195 243 c-9 -20 -26 -51 -39 -67 -56 -76 -43 -74 40 6 66 63 76 81
48 92 -27 11 -33 7 -49 -31z"/>
  <path d="M370 270 c0 -10 8 -22 38 -55 19 -21 42 -18 42 5 0 13 -14 27 -40 40
-22 11 -40 16 -40 10z"/>
</g>
<g id="part-1" class="char-part">
  <path d="M284 549 c3 -17 6 -60 6 -95 0 -57 2 -64 19 -64 16 0 21 10 26 58 3
31 8 67 11 79 3 15 -3 27 -18 37 -37 26 -51 21 -44 -15z"/>
  <path d="M386 444 c-14 -26 -26 -48 -26 -50 0 -2 22 8 50 24 53 29 61 45 31
62 -28 14 -27 15 -55 -36z"/>
  <path d="M170 442 c0 -5 14 -21 30 -37 23 -22 33 -26 42 -17 17 17 -16 62 -47
62 -14 0 -25 -4 -25 -8z"/>
</g>
<g id="part-2" class="char-part">
  <path d="M290 376 c0 -19 -15 -23 -99 -32 -39 -3 -71 -10 -71 -15 0 -15 64
-20 114 -9 27 6 51 8 54 5 3 -3 0 -59 -7 -125 -9 -92 -9 -124 0 -142 l12 -22
18 23 c16 20 19 41 19 151 l0 128 62 7 c53 6 59 9 45 20 -11 8 -34 11 -62 7
-30 -3 -45 -1 -45 7 0 6 -9 11 -20 11 -11 0 -20 -6 -20 -14z"/>
  <path d="M196 245 c-8 -19 -29 -56 -47 -81 -40 -59 -14 -47 59 27 55 55 62 73
36 83 -27 10 -33 7 -48 -29z"/>
  <path d="M360 272 c0 -14 72 -82 81 -77 16 11 10 40 -12 53 -30 19 -69 33 -69
24z"/>
</g>
<g id="part-3" class="char-part">
  <path d="M570 513 c-103 -20 -110 -23 -82 -34 16 -6 43 -4 82 6 64 17 100 19
100 7 0 -4 -14 -27 -31 -50 -40 -54 -20 -55 50 -2 29 22 57 40 62 40 19 0 8
27 -16 38 -32 15 -68 13 -165 -5z"/>
</g>
<g id="part-4" class="char-part">
  <path d="M578 388 c7 -7 12 -20 12 -29 0 -14 -12 -19 -57 -24 -32 -4 -78 -10
-103 -14 -43 -7 -44 -8 -22 -20 19 -10 37 -9 99 3 41 9 79 16 84 16 12 0 11
-152 -1 -184 -10 -28 -47 -35 -68 -14 -7 7 -12 8 -12 4 0 -5 19 -26 42 -47
l43 -39 20 20 c17 18 20 36 23 138 3 74 8 120 15 124 7 4 50 8 97 8 78 1 83 2
65 16 -16 12 -36 14 -96 9 -74 -7 -75 -6 -87 19 -8 19 -19 26 -39 26 -21 0
-24 -3 -15 -12z"/>
</g>
</g>
</svg>