<?xml version="1.0" standalone="no"?>
<!DOCTYPE svg PUBLIC "-//W3C//DTD SVG 20010904//EN"
 "http://www.w3.org/TR/2001/REC-SVG-20010904/DTD/svg10.dtd">
<svg version="1.0" xmlns="http://www.w3.org/2000/svg"
 width="96.000000pt" height="68.000000pt" viewBox="0 0 96.000000 68.000000"
 preserveAspectRatio="xMidYMid meet">
<metadata>
Created by potrace 1.16, written by Peter Selinger 2001-2019
Combined from part_0.svg through part_5.svg with named groups
</metadata>
<g transform="translate(0.000000,68.000000) scale(0.100000,-0.100000)" fill="#000000" stroke="none">
<g id="part-0" class="char-part">
  <path d="M510 592 c0 -4 13 -24 30 -44 l30 -36 -88 -8 c-48 -5 -93 -8 -99 -7
-15 1 -17 -13 -3 -22 31 -19 -4 -175 -53 -244 -42 -59 -32 -68 18 -16 43 47
60 83 81 181 l17 82 87 11 c47 6 116 11 153 11 37 0 67 4 67 10 0 16 -46 23
-104 16 -52 -7 -53 -7 -49 17 4 21 -1 27 -36 41 -47 18 -51 19 -51 8z"/>
  <path d="M150 492 c0 -17 81 -83 98 -80 10 2 18 15 20 31 3 22 -2 29 -25 38
-43 17 -93 23 -93 11z"/>
  <path d="M648 436 c4 -44 3 -45 -31 -51 -57 -11 -82 -3 -85 26 -2 19 -10 28
-28 32 -27 5 -33 -13 -9 -33 23 -19 18 -40 -9 -40 -14 0 -28 -4 -31 -10 -4 -6
6 -10 24 -10 30 0 32 -2 45 -63 6 -25 10 -28 34 -23 15 3 46 8 69 11 41 6 42
8 49 51 l6 44 44 0 c44 0 66 13 38 24 -9 3 -27 6 -41 6 -22 0 -24 3 -18 29 5
23 2 32 -14 40 -38 21 -46 14 -43 -33z m-6 -106 c-3 -21 -11 -32 -27 -36 -42
-10 -60 -1 -63 34 l-3 32 49 0 c48 0 49 0 44 -30z"/>
  <path d="M165 343 c-63 -20 -76 -27 -60 -34 11 -4 42 -5 69 -2 l48 6 -17 -26
c-16 -25 -16 -28 4 -56 12 -16 24 -43 27 -60 l7 -31 -77 0 c-78 0 -88 -6 -59
-35 11 -12 25 -15 47 -11 91 19 112 17 256 -24 249 -70 226 -67 340 -35 55 15
100 31 100 35 0 4 -69 11 -152 15 -84 4 -214 18 -288 31 -74 13 -136 24 -138
24 -2 0 -1 14 3 30 5 24 1 37 -18 60 -14 16 -27 28 -29 27 -2 -1 13 14 34 33
21 20 38 40 38 46 0 9 -45 37 -53 33 -1 -1 -38 -12 -82 -26z"/>
  <path d="M403 197 c-29 -42 -30 -67 -3 -67 24 0 56 59 47 84 -9 24 -19 20 -44
-17z"/>
  <path d="M740 185 c34 -50 60 -59 60 -21 0 28 -42 66 -72 66 -17 0 -16 -5 12
-45z"/>
  <path d="M613 208 c21 -50 34 -68 50 -68 30 0 22 47 -13 65 -35 18 -44 19 -37
3z"/>
  <path d="M515 193 c4 -10 10 -26 12 -36 7 -22 36 -18 41 4 4 20 -23 49 -45 49
-10 0 -13 -5 -8 -17z"/>
</g>
<g id="part-1" class="char-part">
  <path d="M170 474 c41 -52 85 -69 97 -38 9 24 -19 45 -68 51 -42 6 -43 5 -29
-13z"/>
  <path d="M171 339 c-85 -24 -89 -33 -13 -26 66 5 74 -1 47 -37 -13 -17 -12
-22 11 -49 17 -21 24 -39 22 -61 l-3 -31 -68 -3 c-48 -2 -67 -7 -64 -15 3 -8
30 -11 91 -9 77 3 103 -1 254 -43 183 -51 216 -53 327 -20 79 24 59 30 -120
39 -77 3 -196 17 -265 29 l-125 23 3 37 c3 29 -2 42 -23 61 l-27 25 41 37 c33
29 39 39 30 50 -15 18 -38 16 -118 -7z"/>
</g>
<g id="part-2" class="char-part">
  <path d="M510 592 c0 -4 13 -24 30 -43 l29 -36 -82 -7 c-45 -4 -93 -10 -106
-13 -20 -5 -21 -7 -7 -15 37 -21 10 -160 -48 -247 -37 -55 -35 -64 8 -30 42
33 74 98 92 190 l17 86 93 12 c51 6 120 11 153 11 33 0 63 4 66 10 9 15 -40
23 -99 16 -54 -7 -55 -7 -58 20 -2 24 -10 30 -45 40 -24 7 -43 10 -43 6z"/>
</g>
<g id="part-3" class="char-part">
  <path d="M650 436 c0 -48 -11 -56 -77 -56 -27 0 -32 4 -38 29 -4 18 -14 31
-28 35 -30 8 -33 0 -14 -33 23 -39 22 -41 -19 -41 -21 0 -33 -4 -29 -10 3 -5
19 -10 35 -10 29 0 31 -3 45 -63 5 -24 10 -28 28 -24 12 3 43 9 68 12 45 7 47
8 55 48 9 42 10 42 57 45 66 4 58 32 -10 32 -22 0 -24 3 -18 29 5 23 2 32 -14
40 -34 19 -41 13 -41 -33z m-12 -108 c-3 -31 -5 -33 -43 -33 -38 0 -40 2 -43
33 -3 32 -3 32 43 32 46 0 46 0 43 -32z"/>
</g>
<g id="part-4" class="char-part">
  <path d="M407 205 c-32 -40 -36 -75 -8 -75 23 0 51 41 51 74 0 38 -13 38 -43
1z"/>
  <path d="M710 234 c0 -15 63 -94 75 -94 21 0 19 43 -3 63 -18 17 -72 40 -72
31z"/>
  <path d="M510 211 c0 -23 24 -71 35 -71 36 0 28 51 -10 68 -14 6 -25 8 -25 3z"/>
  <path d="M610 216 c0 -16 44 -76 56 -76 23 0 16 37 -12 59 -25 20 -44 27 -44
17z"/>
</g>
</g>
</svg>