<?xml version="1.0" standalone="no"?>
<!DOCTYPE svg PUBLIC "-//W3C//DTD SVG 20010904//EN"
 "http://www.w3.org/TR/2001/REC-SVG-20010904/DTD/svg10.dtd">
<svg version="1.0" xmlns="http://www.w3.org/2000/svg"
 width="96.000000pt" height="68.000000pt" viewBox="0 0 96.000000 68.000000"
 preserveAspectRatio="xMidYMid meet">
<metadata>
Created by potrace 1.16, written by Peter Selinger 2001-2019
Combined from part_0.svg through part_5.svg with named groups
</metadata>
<g transform="translate(0.000000,68.000000) scale(0.100000,-0.100000)" fill="#000000" stroke="none">
<g id="part-0" class="char-part">
  <path d="M226 563 c4 -10 10 -44 12 -77 5 -69 1 -73 -81 -82 -31 -4 -60 -10
-63 -15 -8 -14 43 -22 91 -15 25 4 45 4 45 -1 0 -19 -59 -106 -104 -153 -26
-28 -46 -53 -43 -56 11 -11 87 37 121 77 40 47 41 46 25 -70 -10 -72 -9 -85 6
-107 30 -46 44 -14 51 118 7 116 7 117 28 103 29 -21 36 -19 36 9 0 17 -9 27
-30 36 -21 9 -30 19 -30 35 0 19 7 24 40 30 66 11 68 40 1 39 l-37 -1 4 64 c5
72 -2 83 -52 83 -23 0 -27 -3 -20 -17z"/>
  <path d="M555 544 c-49 -7 -112 -13 -138 -13 -44 -1 -47 -3 -33 -16 14 -15 36
-75 36 -102 0 -6 4 -23 10 -38 8 -22 12 -24 28 -14 30 19 72 3 72 -25 0 -28
-21 -35 -107 -38 -29 0 -53 -5 -53 -9 0 -14 48 -22 91 -16 21 3 39 2 39 -2 0
-8 -78 -86 -135 -135 l-30 -26 30 10 c34 13 126 77 138 97 18 29 26 -1 20 -75
-5 -69 -3 -79 15 -95 19 -17 20 -17 26 9 4 15 7 64 6 108 -1 45 -1 85 -1 89 1
5 36 -23 79 -62 78 -71 79 -71 136 -71 71 0 71 16 -1 41 -52 17 -138 68 -182
108 l-24 21 59 0 c73 0 134 10 134 21 0 16 -44 20 -123 11 -42 -4 -79 -7 -81
-5 -2 2 -1 15 2 29 5 25 7 26 57 21 l53 -5 38 85 c37 82 38 86 19 99 -22 16
-56 16 -180 -2z m120 -39 c-3 -33 -2 -33 -55 -36 -43 -3 -44 -2 -51 29 l-6 32
57 0 c56 0 58 -1 55 -25z m-155 -14 c0 -30 -18 -41 -67 -41 -19 0 -23 6 -23
29 0 25 5 30 28 34 60 9 62 8 62 -22z m140 -53 c0 -27 -20 -42 -54 -44 -32 -2
-36 1 -36 21 0 24 14 32 63 34 16 1 27 -4 27 -11z m-130 -22 c0 -28 -11 -34
-51 -28 -27 4 -44 25 -33 43 3 5 23 9 45 9 35 0 39 -3 39 -24z"/>
</g>
<g id="part-1" class="char-part">
  <path d="M234 558 c3 -13 9 -51 12 -84 l7 -61 -58 -8 c-96 -12 -110 -24 -28
-24 65 -1 72 -3 66 -18 -11 -31 -64 -106 -107 -152 -28 -30 -35 -42 -21 -37
36 13 81 48 105 83 12 18 26 33 31 33 8 0 2 -78 -11 -143 -9 -44 5 -97 25 -97
21 0 25 25 25 151 0 65 3 119 6 119 3 0 15 -11 26 -25 20 -26 38 -25 38 1 0 8
-16 22 -35 30 -23 9 -35 21 -35 34 0 22 12 31 53 39 17 4 33 13 35 20 3 10 -6
12 -38 9 l-42 -4 6 68 c6 67 6 69 -20 78 -39 15 -47 12 -40 -12z"/>
</g>
<g id="part-2" class="char-part">
  <path d="M540 544 c-52 -8 -112 -13 -132 -12 -21 2 -38 3 -38 1 0 -1 8 -17 19
-35 10 -18 24 -59 30 -90 12 -56 23 -70 36 -47 5 7 44 10 109 8 56 -1 107 0
113 4 5 3 25 41 43 83 33 74 33 77 15 90 -23 17 -70 16 -195 -2z m130 -44 c0
-29 -1 -30 -50 -30 -49 0 -50 1 -50 30 0 29 1 30 50 30 49 0 50 -1 50 -30z
m-150 -10 c0 -25 -4 -30 -34 -36 -42 -7 -56 0 -56 31 0 19 6 24 33 28 17 2 38
5 45 5 7 1 12 -10 12 -28z m140 -52 c0 -26 -19 -41 -54 -43 -31 -2 -36 1 -36
21 0 23 14 31 63 33 16 1 27 -4 27 -11z m-130 -23 c0 -22 -4 -25 -39 -25 -33
0 -39 3 -43 25 -5 24 -3 25 38 25 40 0 44 -2 44 -25z"/>
</g>
<g id="part-3" class="char-part">
  <path d="M536 363 c-3 -4 -6 -16 -6 -29 0 -26 -22 -34 -97 -34 -28 0 -54 -4
-57 -9 -9 -13 50 -24 90 -17 19 4 34 3 34 -1 0 -9 -70 -78 -134 -132 -32 -27
-35 -32 -15 -26 35 10 99 50 138 85 18 16 35 30 37 30 2 0 2 -37 -2 -82 -5
-87 3 -115 30 -105 13 5 16 24 16 113 l0 106 77 -71 c74 -69 78 -71 127 -71
81 0 87 14 17 38 -55 19 -126 60 -191 112 l-25 20 55 1 c30 0 78 4 105 8 48 6
49 7 26 20 -22 12 -123 9 -173 -5 -14 -4 -18 1 -18 19 0 24 -21 42 -34 30z"/>
</g>
</g>
</svg>