<?xml version="1.0" standalone="no"?>
<!DOCTYPE svg PUBLIC "-//W3C//DTD SVG 20010904//EN"
 "http://www.w3.org/TR/2001/REC-SVG-20010904/DTD/svg10.dtd">
<svg version="1.0" xmlns="http://www.w3.org/2000/svg"
 width="96.000000pt" height="68.000000pt" viewBox="0 0 96.000000 68.000000"
 preserveAspectRatio="xMidYMid meet">
<metadata>
Created by potrace 1.16, written by Peter Selinger 2001-2019
Combined from part_0.svg through part_5.svg with named groups
</metadata>
<g transform="translate(0.000000,68.000000) scale(0.100000,-0.100000)" fill="#000000" stroke="none">
<g id="part-0" class="char-part">
  <path d="M548 583 c-3 -36 -5 -38 -41 -41 -47 -4 -45 -26 2 -30 23 -2 31 -7
27 -18 -8 -21 21 -17 36 5 10 14 31 21 78 27 36 3 72 10 80 14 21 12 -62 32
-96 24 -23 -6 -25 -4 -20 14 5 15 1 24 -13 31 -36 20 -50 13 -53 -26z"/>
  <path d="M290 578 c0 -8 5 -19 11 -25 20 -20 -1 -33 -57 -33 -58 0 -71 -15
-34 -38 16 -10 30 -10 66 -1 44 11 48 11 65 -12 19 -26 31 -22 33 13 1 15 9
24 25 28 39 9 39 32 0 28 -28 -3 -34 1 -39 22 -4 19 -13 26 -38 28 -22 2 -32
-1 -32 -10z"/>
  <path d="M465 462 c-16 -9 -57 -24 -90 -34 l-60 -18 63 5 c57 6 62 4 62 -13 0
-16 -10 -21 -57 -26 -140 -17 -152 -19 -146 -29 6 -9 73 -5 143 9 l35 7 -19
-21 c-10 -12 -52 -38 -92 -58 -41 -20 -74 -38 -74 -39 0 -9 107 27 145 49 54
32 59 32 60 3 0 -32 29 -28 33 6 2 15 7 27 12 27 5 0 45 -16 89 -35 43 -19 86
-35 95 -35 19 0 21 23 4 38 -14 11 -116 39 -163 44 -63 7 -21 23 76 30 56 4
104 9 107 12 20 21 -52 27 -150 12 -58 -8 -58 -8 -58 18 0 22 4 26 30 26 20 0
30 5 30 15 0 8 -4 15 -9 15 -5 0 -15 2 -23 4 -7 2 -26 -3 -43 -12z"/>
  <path d="M409 245 c-1 -8 -2 -21 -3 -27 -1 -9 -39 -16 -128 -22 -71 -5 -128
-12 -128 -16 0 -16 55 -20 136 -9 47 6 88 8 92 4 4 -4 -5 -16 -21 -27 -31 -23
-35 -38 -9 -38 9 0 35 -5 57 -12 l40 -11 -50 -23 c-27 -12 -71 -25 -97 -29
-27 -4 -48 -11 -48 -17 0 -14 81 -1 150 24 88 32 100 32 170 0 78 -36 115 -43
115 -22 0 16 -70 60 -97 60 -9 0 -28 4 -42 10 l-26 10 32 44 33 45 113 0 c69
1 112 5 112 11 0 21 -53 30 -134 24 -53 -4 -90 -3 -103 4 -16 9 -24 8 -33 -3
-7 -9 -29 -15 -52 -15 -35 0 -39 2 -28 15 10 12 8 16 -15 25 -34 13 -35 13
-36 -5z m121 -68 c0 -7 -13 -26 -29 -41 -26 -25 -35 -28 -76 -24 -25 3 -49 8
-52 11 -3 4 7 20 23 37 25 26 36 30 81 30 37 0 53 -4 53 -13z"/>
</g>
<g id="part-1" class="char-part">
  <path d="M550 577 c0 -32 -3 -35 -42 -44 l-43 -11 38 -1 c31 -1 37 -4 37 -23
0 -22 1 -22 25 5 22 22 34 27 78 28 29 0 61 4 72 9 18 7 18 8 -8 15 -16 4 -46
5 -67 2 -37 -5 -38 -4 -37 22 2 21 -3 27 -25 29 -26 3 -28 1 -28 -31z"/>
  <path d="M290 585 c0 -3 7 -17 16 -31 9 -13 15 -27 12 -29 -3 -3 -32 -8 -66
-11 -53 -6 -60 -9 -50 -21 12 -15 57 -14 114 3 17 4 23 0 28 -20 9 -35 26 -33
26 3 0 23 6 30 33 39 l32 10 -37 1 c-31 1 -38 5 -38 21 0 10 -9 24 -19 30 -21
11 -51 14 -51 5z"/>
</g>
<g id="part-2" class="char-part">
  <path d="M474 470 c-5 -5 -41 -21 -79 -34 -82 -29 -59 -33 52 -10 112 23 112
23 83 39 -30 17 -43 18 -56 5z"/>
</g>
<g id="part-3" class="char-part">
  <path d="M439 423 c-1 -5 -1 -15 0 -24 1 -13 -12 -18 -61 -23 -120 -13 -148
-18 -142 -28 7 -10 122 -5 161 8 37 12 -40 -44 -110 -79 -40 -20 -66 -37 -60
-37 20 0 143 48 177 70 l32 19 -1 -27 c0 -37 29 -36 33 1 2 15 7 27 12 27 5 0
45 -16 89 -35 91 -40 111 -43 111 -15 0 20 -46 38 -149 57 -71 13 -64 33 11
34 35 0 83 4 108 8 45 7 45 7 19 20 -21 10 -42 11 -97 2 -92 -14 -92 -14 -92
9 0 13 -7 20 -20 20 -11 0 -21 -3 -21 -7z"/>
</g>
<g id="part-4" class="char-part">
  <path d="M407 231 l-6 -29 -131 -7 c-96 -5 -129 -10 -121 -18 14 -14 71 -15
166 -4 l70 8 -28 -29 c-15 -15 -27 -31 -27 -34 0 -3 22 -9 50 -13 27 -4 52
-10 55 -15 7 -11 -83 -48 -136 -56 -55 -8 -86 -23 -49 -24 43 0 156 28 196 48
43 21 43 21 129 -19 69 -32 106 -40 112 -22 6 18 -53 51 -115 64 -29 7 -51 15
-50 18 2 3 17 25 33 48 l30 42 113 1 c61 0 112 4 112 8 0 21 -50 30 -130 23
-61 -5 -89 -3 -108 6 -22 12 -27 12 -34 -2 -6 -10 -23 -15 -50 -15 -35 0 -39
2 -28 15 10 12 8 16 -15 25 -34 13 -32 14 -38 -19z m123 -50 c0 -5 -12 -23
-26 -40 -22 -27 -32 -31 -74 -31 -63 0 -72 16 -29 51 27 22 44 29 82 29 26 0
47 -4 47 -9z"/>
</g>
</g>
</svg>