<?xml version="1.0" standalone="no"?>
<!DOCTYPE svg PUBLIC "-//W3C//DTD SVG 20010904//EN"
 "http://www.w3.org/TR/2001/REC-SVG-20010904/DTD/svg10.dtd">
<svg version="1.0" xmlns="http://www.w3.org/2000/svg"
 width="96.000000pt" height="68.000000pt" viewBox="0 0 96.000000 68.000000"
 preserveAspectRatio="xMidYMid meet">
<metadata>
Created by potrace 1.16, written by Peter Selinger 2001-2019
Combined from part_0.svg through part_5.svg with named groups
</metadata>
<g transform="translate(0.000000,68.000000) scale(0.100000,-0.100000)" fill="#000000" stroke="none">
<g id="part-0" class="char-part">
  <path d="M363 571 c-61 -9 -115 -19 -119 -23 -13 -14 51 -29 94 -23 42 6 42 6
42 -24 0 -16 -5 -41 -11 -55 -12 -26 -26 -30 -141 -42 -38 -3 -68 -10 -68 -14
0 -15 50 -21 118 -14 l67 7 -20 -24 c-44 -53 -122 -119 -169 -143 -36 -19 -44
-26 -28 -26 13 0 49 14 82 30 l60 30 14 -22 c8 -13 20 -50 26 -83 15 -72 18
-79 33 -67 7 6 67 13 135 17 108 6 146 15 111 27 -13 4 21 90 40 102 19 12 12
25 -19 41 -27 14 -38 14 -111 0 -92 -17 -219 -20 -219 -5 0 6 4 10 9 10 5 0
33 29 62 65 51 63 54 65 97 65 42 0 53 -6 145 -81 108 -89 139 -100 222 -81
l40 9 -73 22 c-41 12 -90 32 -110 43 -70 38 -132 80 -132 89 0 5 41 9 90 9 71
0 90 3 90 14 0 24 -57 29 -176 15 -63 -7 -117 -10 -119 -7 -3 3 2 22 12 43 17
36 17 37 -2 51 -17 13 -16 14 22 14 69 0 133 12 133 25 0 29 -63 30 -227 6z
m185 -330 c15 -9 8 -70 -12 -95 -12 -16 -147 -39 -172 -29 -14 5 -19 18 -29
74 l-7 36 94 10 c51 5 98 10 103 11 6 1 16 -2 23 -7z"/>
</g>
<g id="part-1" class="char-part">
  <path d="M410 574 c-148 -21 -161 -24 -154 -36 5 -7 33 -9 83 -5 265 21 272
22 226 43 -35 15 -32 15 -155 -2z"/>
</g>
<g id="part-2" class="char-part">
  <path d="M380 505 c0 -59 -18 -84 -64 -89 -180 -23 -174 -22 -141 -35 19 -8
51 -10 92 -5 38 4 63 3 63 -3 0 -18 -125 -129 -178 -158 -63 -34 -60 -45 5
-20 76 28 146 80 198 145 46 57 50 60 93 60 40 0 52 -6 126 -68 44 -37 92 -76
106 -85 26 -18 103 -22 150 -8 22 7 18 10 -35 26 -75 22 -133 50 -210 100
l-60 40 85 3 c104 3 117 7 100 27 -15 18 -59 19 -186 3 -52 -6 -97 -9 -99 -6
-3 3 3 21 15 40 18 32 19 37 5 48 -8 7 -27 14 -40 16 -22 2 -25 -2 -25 -31z"/>
</g>
<g id="part-3" class="char-part">
  <path d="M490 265 c-36 -7 -100 -13 -143 -14 l-77 -1 13 -22 c8 -13 20 -51 27
-86 13 -62 26 -84 39 -64 3 5 61 13 129 17 67 4 122 11 122 16 0 5 -4 9 -9 9
-14 0 5 60 30 94 18 24 19 30 7 42 -20 20 -65 23 -138 9z m59 -24 c13 -8 13
-16 0 -58 -17 -55 -29 -60 -136 -62 -67 -1 -64 -3 -78 67 -4 17 -5 32 -3 33 2
0 46 7 98 14 52 7 97 13 100 14 3 0 12 -3 19 -8z"/>
</g>
</g>
</svg>