<?xml version="1.0" standalone="no"?>
<!DOCTYPE svg PUBLIC "-//W3C//DTD SVG 20010904//EN"
 "http://www.w3.org/TR/2001/REC-SVG-20010904/DTD/svg10.dtd">
<svg version="1.0" xmlns="http://www.w3.org/2000/svg"
 width="96.000000pt" height="68.000000pt" viewBox="0 0 96.000000 68.000000"
 preserveAspectRatio="xMidYMid meet">
<metadata>
Created by potrace 1.16, written by Peter Selinger 2001-2019
Combined from part_0.svg through part_5.svg with named groups
</metadata>
<g transform="translate(0.000000,68.000000) scale(0.100000,-0.100000)" fill="#000000" stroke="none">
<g id="part-0" class="char-part">
  <path d="M507 540 l6 -60 -29 0 c-51 0 -104 -12 -98 -22 3 -5 31 -8 63 -7 l56
3 3 -68 c3 -65 2 -69 -41 -129 -43 -60 -58 -75 -122 -126 -29 -22 -29 -23 -5
-16 37 11 98 54 131 94 15 19 32 32 35 28 4 -4 2 -45 -5 -91 -9 -65 -9 -90 0
-110 15 -32 25 -33 40 -4 8 15 10 55 6 129 -4 58 -4 109 -1 112 3 3 37 -30 75
-74 l70 -79 65 0 c35 0 64 4 64 8 0 9 -44 32 -62 32 -20 0 -126 70 -170 113
l-44 42 4 72 4 71 36 6 c78 14 92 18 92 28 0 7 -22 9 -66 4 l-66 -7 7 47 c7
49 -1 64 -37 64 -14 0 -15 -9 -11 -60z"/>
  <path d="M205 495 c-22 -8 -54 -14 -72 -14 -31 -1 -32 -2 -21 -32 7 -21 9 -79
5 -165 -6 -126 -5 -134 13 -144 14 -7 20 -7 20 0 0 5 22 10 49 10 41 0 51 -4
56 -20 7 -22 22 -25 45 -10 12 7 16 43 20 182 5 164 4 174 -15 190 -23 20 -45
21 -100 3z m49 -41 c9 -8 16 -29 16 -45 0 -26 -3 -29 -34 -29 -19 0 -41 -3
-50 -6 -13 -5 -16 2 -16 39 0 42 2 46 28 50 15 2 30 5 34 6 4 0 14 -6 22 -15z
m16 -133 c0 -27 -3 -30 -51 -36 -27 -4 -52 -5 -54 -4 -2 2 -1 16 2 31 5 27 17
32 81 37 18 1 22 -4 22 -28z m0 -101 c0 -38 -1 -40 -32 -40 -18 0 -43 -3 -55
-6 -21 -6 -23 -3 -23 34 0 44 -6 41 93 50 14 2 17 -6 17 -38z"/>
  <path d="M650 437 c0 -7 -15 -37 -34 -67 -36 -57 -39 -74 -9 -48 32 27 40 28
73 3 40 -30 60 -32 60 -7 0 18 -37 42 -65 42 -21 0 -19 14 5 35 24 22 26 41 4
49 -24 9 -34 7 -34 -7z"/>
  <path d="M394 396 c-3 -17 -17 -46 -31 -64 -30 -40 -23 -54 12 -22 l25 23 23
-21 c13 -12 29 -22 36 -22 20 0 8 34 -17 46 -27 13 -28 22 -7 47 18 21 14 32
-14 40 -16 4 -21 -2 -27 -27z"/>
</g>
<g id="part-1" class="char-part">
  <path d="M225 494 c-22 -7 -57 -13 -79 -13 -36 -1 -38 -3 -30 -23 5 -13 8 -76
8 -141 -2 -104 0 -118 15 -115 9 2 17 13 19 24 2 15 13 24 34 28 57 11 78 8
78 -14 0 -14 7 -20 23 -20 23 0 23 1 22 128 0 70 -4 132 -8 138 -11 19 -39 21
-82 8z m45 -73 c0 -46 -1 -48 -27 -47 -16 0 -40 -3 -55 -7 -28 -7 -28 -7 -28
42 0 54 4 58 73 60 l37 1 0 -49z m0 -101 c0 -38 -1 -40 -32 -40 -18 0 -43 -3
-56 -6 -22 -6 -23 -4 -20 32 3 38 4 39 48 45 25 3 48 7 53 7 4 1 7 -16 7 -38z"/>
</g>
<g id="part-2" class="char-part">
  <path d="M270 200 c0 -16 -7 -20 -32 -20 -18 0 -43 -3 -55 -6 -17 -5 -23 -2
-23 9 0 20 -14 29 -34 21 -16 -6 -21 -30 -10 -58 7 -17 34 -22 34 -6 0 6 20
10 44 10 37 0 48 -5 65 -27 18 -26 21 -27 37 -12 9 10 19 38 21 63 5 44 5 46
-21 46 -19 0 -26 -5 -26 -20z"/>
</g>
<g id="part-3" class="char-part">
  <path d="M507 540 l6 -60 -29 0 c-49 0 -104 -12 -98 -21 3 -5 32 -9 65 -9 l59
0 0 -61 c0 -33 -5 -70 -11 -82 -24 -46 -95 -131 -138 -163 -24 -19 -37 -34
-29 -34 23 0 100 53 136 94 41 47 48 34 32 -67 -8 -57 -8 -80 1 -101 15 -32
25 -33 40 -4 8 15 10 57 6 135 -4 62 -3 113 1 113 4 0 24 -21 44 -47 20 -27
52 -63 71 -81 33 -32 37 -33 103 -30 l69 3 -95 47 c-105 52 -206 137 -196 164
3 9 6 40 6 69 l0 54 48 6 c26 4 58 10 72 14 24 7 25 8 4 19 -14 7 -34 8 -63 1
-55 -12 -64 -6 -56 43 8 43 -2 58 -37 58 -16 0 -17 -7 -11 -60z"/>
</g>
<g id="part-4" class="char-part">
  <path d="M391 395 c-5 -19 -18 -47 -28 -62 -34 -48 -38 -57 -22 -48 8 4 24 17
37 28 l22 20 23 -21 c13 -12 29 -22 36 -22 22 0 7 34 -22 48 l-27 13 20 27
c20 25 20 27 4 39 -26 19 -32 16 -43 -22z"/>
</g>
<g id="part-5" class="char-part">
  <path d="M656 443 c-3 -3 -1 -12 6 -20 9 -11 8 -13 -3 -11 -10 2 -13 -5 -11
-21 1 -14 -1 -22 -4 -18 -7 7 -44 -35 -44 -49 0 -5 7 2 16 14 11 16 22 21 37
17 12 -4 18 -3 12 2 -13 10 -16 45 -3 37 10 -6 38 13 38 27 0 11 -36 30 -44
22z"/>
  <path d="M685 340 c-8 -13 38 -41 48 -31 5 5 7 14 3 19 -8 13 -45 22 -51 12z
m40 -20 c3 -6 -1 -7 -9 -4 -18 7 -21 14 -7 14 6 0 13 -4 16 -10z"/>
</g>
</g>
</svg>