<?xml version="1.0" standalone="no"?>
<!DOCTYPE svg PUBLIC "-//W3C//DTD SVG 20010904//EN"
 "http://www.w3.org/TR/2001/REC-SVG-20010904/DTD/svg10.dtd">
<svg version="1.0" xmlns="http://www.w3.org/2000/svg"
 width="96.000000pt" height="68.000000pt" viewBox="0 0 96.000000 68.000000"
 preserveAspectRatio="xMidYMid meet">
<metadata>
Created by potrace 1.16, written by Peter Selinger 2001-2019
Combined from part_0.svg through part_5.svg with named groups
</metadata>
<g transform="translate(0.000000,68.000000) scale(0.100000,-0.100000)" fill="#000000" stroke="none">
<g id="part-0" class="char-part">
  <path d="M575 618 c-2 -7 -6 -29 -7 -48 -3 -32 -6 -35 -41 -41 -60 -10 -65
-31 -7 -33 34 -1 34 -1 20 -26 -18 -34 8 -32 44 5 33 32 40 35 96 35 46 0 60
3 60 15 0 17 -58 30 -89 20 -23 -7 -27 5 -11 35 11 20 0 33 -38 44 -14 5 -24
3 -27 -6z"/>
  <path d="M290 590 c0 -6 7 -24 15 -40 18 -35 9 -40 -73 -40 l-55 0 24 -26 c19
-21 31 -25 59 -21 19 3 43 8 52 12 13 5 21 0 29 -19 17 -36 39 -33 39 4 0 26
5 31 30 37 43 8 40 33 -4 26 -32 -5 -34 -3 -41 28 -4 19 -13 37 -19 41 -17 11
-56 9 -56 -2z"/>
  <path d="M558 435 c-8 -8 -144 -26 -204 -27 -35 0 -64 -2 -64 -3 0 -2 7 -16
15 -31 8 -16 15 -37 15 -46 0 -9 5 -29 12 -43 l12 -26 118 4 c66 3 122 8 126
11 13 14 51 131 44 137 -10 9 -70 28 -74 24z m4 -35 c0 -5 1 -16 2 -22 1 -9
-31 -16 -107 -23 -84 -8 -107 -7 -107 3 0 6 0 15 0 20 0 4 43 12 97 18 54 6
101 12 106 13 4 0 8 -3 9 -9z m-4 -77 c-2 -12 -21 -20 -73 -29 -110 -19 -127
-18 -123 9 3 19 10 23 63 28 120 11 137 11 133 -8z"/>
  <path d="M575 239 c-22 -4 -109 -11 -192 -15 -84 -4 -153 -9 -153 -12 0 -3 7
-13 15 -22 9 -10 21 -46 27 -81 14 -80 24 -92 65 -80 18 5 80 11 139 12 102 3
107 2 125 -22 l18 -24 27 27 c19 19 30 45 39 90 6 34 15 73 19 85 6 18 1 25
-23 37 -33 17 -45 18 -106 5z m55 -59 c0 -28 -2 -30 -37 -28 -21 1 -95 -2
-165 -7 l-128 -8 0 25 c0 25 2 26 103 35 56 5 130 11 165 11 l62 2 0 -30z m-4
-96 c-3 -7 -16 -13 -28 -12 -13 0 -80 -2 -150 -7 l-128 -7 0 31 0 31 88 1 c48
1 116 4 152 8 58 5 65 4 68 -12 2 -10 1 -25 -2 -33z"/>
</g>
<g id="part-1" class="char-part">
  <path d="M576 576 c-7 -46 -20 -56 -74 -56 -13 0 -20 -4 -17 -10 3 -5 22 -10
40 -10 33 0 34 -1 25 -25 -13 -35 4 -32 30 5 17 24 29 30 59 30 21 0 53 3 71
6 44 9 18 24 -42 24 -54 0 -53 -1 -36 35 10 22 9 28 -3 36 -32 20 -47 10 -53
-35z"/>
  <path d="M304 561 c25 -47 21 -51 -50 -51 -70 0 -82 -13 -32 -37 21 -11 33
-10 67 2 l41 14 15 -30 c18 -34 37 -30 33 8 -3 22 2 28 32 37 l35 11 -42 3
c-39 3 -42 5 -45 35 -3 28 -7 32 -36 35 l-33 3 15 -30z"/>
</g>
<g id="part-2" class="char-part">
  <path d="M510 426 c-11 -10 -185 -23 -207 -15 -13 5 -23 5 -23 0 0 -5 5 -11
10 -13 6 -2 18 -30 26 -63 17 -63 31 -88 44 -80 5 3 57 7 117 9 l108 3 28 68
c18 45 24 72 18 78 -11 11 -113 22 -121 13z m58 -44 c3 -19 -1 -22 -31 -22
-19 0 -68 -3 -110 -6 -74 -7 -77 -6 -77 15 0 18 6 21 48 22 26 0 70 4 97 8 64
10 69 9 73 -17z m-8 -49 c-1 -22 -22 -31 -98 -42 -88 -13 -102 -10 -102 19 0
20 0 20 163 28 20 1 37 -1 37 -5z"/>
</g>
<g id="part-3" class="char-part">
  <path d="M575 239 c-27 -4 -116 -11 -197 -15 -82 -4 -148 -10 -148 -14 0 -4 6
-13 14 -19 7 -6 19 -39 25 -74 19 -97 20 -100 44 -92 12 3 76 10 142 14 120 9
120 9 141 -16 19 -22 24 -23 42 -12 26 16 30 26 48 108 7 35 16 72 20 83 4 14
-2 22 -30 33 -19 8 -39 14 -43 14 -4 -1 -30 -5 -58 -10z m55 -56 l0 -28 -98
-4 c-210 -9 -227 -8 -230 16 -3 20 2 21 85 28 48 3 95 8 103 9 8 2 43 4 78 5
61 1 62 1 62 -26z m-4 -87 c-4 -17 -13 -23 -33 -23 -16 1 -83 -3 -150 -7
l-123 -9 0 32 0 31 88 1 c48 1 116 4 152 8 36 3 67 2 68 -2 2 -4 1 -18 -2 -31z"/>
</g>
</g>
</svg>