<?xml version="1.0" standalone="no"?>
<!DOCTYPE svg PUBLIC "-//W3C//DTD SVG 20010904//EN"
 "http://www.w3.org/TR/2001/REC-SVG-20010904/DTD/svg10.dtd">
<svg version="1.0" xmlns="http://www.w3.org/2000/svg"
 width="96.000000pt" height="68.000000pt" viewBox="0 0 96.000000 68.000000"
 preserveAspectRatio="xMidYMid meet">
<metadata>
Created by potrace 1.16, written by Peter Selinger 2001-2019
Combined from part_0.svg through part_5.svg with named groups
</metadata>
<g transform="translate(0.000000,68.000000) scale(0.100000,-0.100000)" fill="#000000" stroke="none">
<g id="part-0" class="char-part">
  <path d="M418 580 c-2 -33 -7 -62 -10 -65 -3 -3 -51 -8 -107 -12 -56 -3 -104
-10 -107 -14 -12 -19 40 -31 108 -24 69 7 70 7 59 -14 -11 -19 -8 -21 34 -32
25 -6 48 -15 50 -19 3 -5 -19 -16 -47 -25 -29 -10 -57 -21 -63 -25 -5 -4 -19
-4 -30 1 -11 4 -23 8 -26 8 -4 1 -9 -26 -11 -59 -2 -33 -7 -62 -10 -65 -3 -3
-38 -9 -77 -12 -39 -3 -71 -9 -71 -14 0 -14 41 -21 88 -15 26 3 41 3 35 0 -27
-12 -13 -41 27 -59 48 -22 42 -33 -30 -64 -28 -12 -50 -23 -50 -25 0 -8 76 17
111 36 l37 21 36 -28 c38 -29 63 -27 46 5 -5 10 -19 22 -30 25 -25 8 -25 20
-1 53 10 15 21 39 25 54 4 17 14 28 29 30 20 3 19 5 -12 21 -39 19 -66 22 -55
6 3 -6 0 -15 -7 -20 -17 -11 -72 -12 -67 -1 41 93 41 92 79 92 20 0 59 10 87
21 l51 21 45 -26 c56 -33 76 -33 76 -2 0 23 -10 30 -72 50 -16 5 -15 9 9 46
l27 40 93 0 c53 0 93 4 93 10 0 20 -45 32 -116 31 -40 -1 -76 3 -79 9 -10 16
-45 12 -45 -5 0 -11 -11 -15 -40 -15 l-41 0 26 44 26 44 -23 16 c-12 9 -32 16
-44 16 -19 0 -22 -7 -26 -60z m112 -95 c0 -3 -7 -17 -16 -30 -12 -18 -25 -25
-48 -25 -93 1 -56 53 42 59 12 0 22 -1 22 -4z m-175 -309 c-13 -27 -23 -36
-42 -36 -26 0 -63 16 -63 28 1 20 34 46 67 52 50 9 58 -1 38 -44z"/>
  <path d="M557 287 c-7 -48 -18 -57 -79 -57 -27 0 -48 -4 -48 -10 0 -13 44 -23
69 -15 23 7 26 2 11 -25 -12 -22 2 -35 47 -45 18 -3 35 -11 39 -16 5 -9 -76
-49 -101 -49 -8 0 -17 -5 -21 -12 -11 -18 62 -2 118 25 l48 24 53 -33 c57 -37
77 -42 77 -20 0 16 -59 66 -78 66 -22 0 -22 19 -1 57 28 49 35 54 90 51 62 -4
62 16 0 22 -28 3 -56 11 -63 18 -16 16 -48 15 -48 -2 0 -16 -21 -26 -56 -26
-28 0 -30 7 -8 38 18 26 13 38 -20 44 -21 4 -24 1 -29 -35z m113 -78 c0 -18
-33 -69 -45 -69 -21 0 -85 21 -85 28 0 4 7 18 16 30 12 18 25 22 65 22 29 0
49 -4 49 -11z"/>
</g>
<g id="part-1" class="char-part">
  <path d="M424 586 c0 -72 -10 -82 -86 -85 -35 -2 -81 -6 -103 -10 l-40 -8 27
-11 c19 -8 45 -8 85 -2 84 14 89 14 70 -8 -24 -26 -22 -28 27 -41 74 -18 67
-29 -44 -65 -8 -2 3 -5 25 -5 22 0 58 8 80 18 40 18 40 18 87 -5 57 -29 81
-31 76 -7 -2 10 -21 24 -43 32 -22 8 -42 16 -43 17 -2 1 8 23 23 48 l26 45 83
-6 c57 -4 85 -2 90 6 12 19 -44 33 -105 27 -40 -4 -61 -1 -75 9 -26 20 -45 19
-42 -2 2 -15 -6 -19 -46 -21 l-49 -3 27 45 c14 24 26 49 26 54 0 9 -51 32 -69
32 -4 0 -7 -24 -7 -54z m110 -108 c-24 -44 -48 -58 -83 -52 -50 9 -53 12 -35
40 14 21 24 24 71 24 40 0 52 -3 47 -12z"/>
</g>
<g id="part-2" class="char-part">
  <path d="M270 313 c0 -72 -12 -83 -99 -90 -67 -6 -72 -8 -55 -20 13 -10 35
-13 66 -10 44 4 46 3 37 -15 -6 -11 -9 -21 -7 -22 2 -1 22 -10 45 -20 23 -11
40 -23 37 -28 -4 -6 -34 -23 -68 -39 -73 -34 -27 -29 51 6 l52 23 32 -24 c18
-13 39 -24 46 -24 23 0 14 29 -16 51 l-29 21 29 58 c16 32 37 60 46 62 14 3 9
8 -16 21 -41 21 -62 22 -55 3 5 -13 -22 -26 -58 -26 -16 0 -16 4 4 45 23 47
20 58 -19 70 -22 6 -23 4 -23 -42z m100 -95 c0 -7 -9 -28 -21 -47 -18 -30 -24
-33 -52 -27 -17 4 -35 10 -40 15 -16 16 17 51 58 60 56 12 55 12 55 -1z"/>
</g>
<g id="part-3" class="char-part">
  <path d="M554 278 l-9 -43 -58 -3 c-31 -2 -57 -7 -57 -12 0 -14 39 -23 67 -15
20 5 24 3 19 -9 -3 -9 -9 -23 -12 -31 -4 -10 3 -16 23 -20 15 -4 39 -11 52
-16 l24 -10 -22 -15 c-11 -8 -45 -24 -74 -34 -45 -16 -48 -19 -22 -19 17 0 57
11 90 24 33 14 63 25 67 25 4 0 29 -14 55 -30 51 -32 73 -38 73 -17 0 15 -41
57 -56 57 -6 0 -18 6 -28 13 -16 12 -15 15 9 60 l27 47 59 0 c38 0 58 4 54 10
-3 5 -28 10 -54 10 -31 0 -53 5 -61 15 -16 19 -50 19 -50 0 0 -8 -14 -17 -35
-21 -43 -8 -50 -3 -35 26 15 27 6 50 -18 50 -14 0 -21 -11 -28 -42z m111 -80
c-4 -13 -15 -31 -25 -41 -15 -16 -22 -17 -59 -7 -46 12 -48 16 -25 48 12 18
25 22 65 22 48 0 50 -1 44 -22z"/>
</g>
</g>
</svg>