<?xml version="1.0" standalone="no"?>
<!DOCTYPE svg PUBLIC "-//W3C//DTD SVG 20010904//EN"
 "http://www.w3.org/TR/2001/REC-SVG-20010904/DTD/svg10.dtd">
<svg version="1.0" xmlns="http://www.w3.org/2000/svg"
 width="96.000000pt" height="68.000000pt" viewBox="0 0 96.000000 68.000000"
 preserveAspectRatio="xMidYMid meet">
<metadata>
Created by potrace 1.16, written by Peter Selinger 2001-2019
Combined from part_0.svg through part_5.svg with named groups
</metadata>
<g transform="translate(0.000000,68.000000) scale(0.100000,-0.100000)" fill="#000000" stroke="none">
<g id="part-0" class="char-part">
  <path d="M221 538 c5 -18 9 -52 9 -75 l0 -43 -67 0 c-62 0 -65 -1 -50 -17 8
-10 19 -36 22 -58 12 -65 20 -75 60 -68 l35 6 0 -46 c0 -45 0 -45 -44 -56 -25
-6 -54 -11 -65 -11 -24 0 -27 -10 -9 -28 20 -20 58 -14 152 25 l89 36 18 -21
c22 -28 39 -28 39 1 0 28 -9 41 -37 56 -31 16 -42 14 -36 -9 4 -14 0 -20 -10
-20 -8 0 -22 -3 -31 -6 -13 -5 -16 2 -16 40 l0 46 51 0 c42 0 50 3 45 16 -7
18 10 55 30 67 38 22 -3 56 -68 57 -53 0 -53 1 -37 70 9 38 8 46 -7 57 -10 7
-32 13 -50 13 -32 0 -32 -1 -23 -32z m113 -147 c9 -14 -15 -71 -30 -71 -14 0
-21 60 -7 73 9 10 31 9 37 -2z m-104 -41 c0 -33 -4 -40 -19 -40 -29 0 -45 63
-18 73 30 13 37 6 37 -33z"/>
  <path d="M570 534 c-41 -8 -86 -12 -100 -10 l-25 4 0 -141 c0 -127 2 -142 18
-145 9 -2 17 1 17 7 0 6 5 11 10 11 15 0 12 -33 -4 -66 -20 -36 -73 -92 -111
-115 -24 -16 -26 -19 -10 -19 59 0 194 134 182 181 -4 16 -1 20 16 17 25 -3
24 0 26 -108 1 -75 3 -81 28 -97 20 -13 47 -18 105 -18 70 0 80 2 103 26 l26
26 -25 46 -24 47 -7 -40 c-4 -21 -12 -43 -18 -48 -20 -16 -73 -24 -111 -16
-41 7 -42 14 -30 133 7 59 8 61 26 44 33 -30 43 -3 48 139 l5 130 -27 14 c-15
8 -31 14 -35 13 -4 -1 -42 -8 -83 -15z m80 -46 c0 -31 -2 -33 -37 -33 -21 0
-57 -4 -81 -9 l-43 -8 3 34 c3 29 7 34 38 39 19 4 54 7 78 8 41 1 42 0 42 -31z
m0 -80 c0 -32 -1 -33 -42 -33 -24 0 -60 -3 -80 -7 -38 -7 -38 -7 -38 27 0 30
3 33 25 31 14 -2 42 0 63 4 69 14 72 13 72 -22z m0 -85 l0 -38 -85 -3 -85 -4
0 31 c0 29 3 31 38 32 20 1 51 5 67 9 60 15 65 13 65 -27z"/>
</g>
<g id="part-1" class="char-part">
  <path d="M223 549 c4 -13 10 -47 13 -75 6 -47 4 -52 -15 -59 -12 -3 -38 -6
-59 -5 -53 3 -54 2 -38 -22 8 -13 17 -42 21 -65 7 -42 25 -67 33 -45 2 7 17
12 33 12 28 0 29 -1 29 -51 0 -43 3 -50 16 -45 9 3 18 6 20 6 2 0 4 20 4 44
l0 44 45 6 c24 4 44 10 44 14 -3 19 3 33 26 60 l26 31 -23 15 c-12 9 -42 16
-65 16 -41 0 -43 1 -43 29 0 16 4 41 9 55 12 29 -1 43 -49 53 -31 6 -33 5 -27
-18z m117 -166 c0 -42 -13 -63 -36 -63 -21 0 -24 5 -24 33 0 40 6 47 37 47 15
0 23 -6 23 -17z m-100 -33 c0 -37 -2 -40 -29 -40 -24 0 -29 5 -35 31 -8 40 -1
49 35 49 27 0 29 -2 29 -40z"/>
</g>
<g id="part-2" class="char-part">
  <path d="M336 238 c10 -32 45 -78 60 -78 41 0 15 67 -34 87 -33 13 -33 13 -26
-9z"/>
</g>
<g id="part-3" class="char-part">
  <path d="M570 534 c-41 -8 -86 -12 -100 -9 l-25 6 0 -111 c0 -98 2 -110 18
-110 9 0 17 6 17 14 0 9 19 15 60 19 33 4 71 9 84 13 18 4 25 1 29 -15 5 -21
23 -27 44 -13 7 5 12 42 14 102 2 91 1 95 -22 107 -28 15 -22 15 -119 -3z m80
-43 c0 -26 -3 -29 -47 -34 -27 -3 -63 -9 -80 -13 -32 -6 -33 -5 -33 25 0 24 5
32 23 35 12 3 31 7 42 9 11 3 37 5 58 6 34 1 37 -1 37 -28z m0 -80 c0 -27 -2
-29 -57 -35 -31 -4 -67 -9 -80 -12 -20 -5 -23 -2 -23 24 0 28 2 30 63 39 99
16 97 16 97 -16z"/>
</g>
<g id="part-4" class="char-part">
  <path d="M653 306 c4 -10 -7 -15 -40 -20 -82 -11 -133 -8 -133 9 0 8 -9 15
-20 15 -14 0 -20 -7 -20 -22 0 -35 16 -54 32 -41 21 18 172 21 192 4 21 -17
33 -7 42 37 6 31 5 32 -26 32 -23 0 -31 -4 -27 -14z"/>
</g>
<g id="part-5" class="char-part">
  <path d="M593 163 c2 -49 9 -88 17 -98 19 -22 33 2 16 27 -13 18 -12 31 9 125
7 29 5 31 -19 30 l-27 -2 4 -82z"/>
  <path d="M800 125 c0 -9 -11 -27 -25 -41 -26 -26 -25 -44 1 -44 19 0 45 25 36
34 -3 4 2 4 13 0 15 -6 17 -4 12 10 -4 10 -7 20 -7 22 0 3 -4 3 -9 0 -5 -4 -7
3 -4 14 3 11 0 20 -6 20 -6 0 -11 -7 -11 -15z"/>
  <path d="M640 60 c0 -12 28 -20 71 -20 30 0 37 3 33 15 -4 10 -20 14 -55 13
-27 0 -49 -4 -49 -8z"/>
</g>
</g>
</svg>