<?xml version="1.0" standalone="no"?>
<!DOCTYPE svg PUBLIC "-//W3C//DTD SVG 20010904//EN"
 "http://www.w3.org/TR/2001/REC-SVG-20010904/DTD/svg10.dtd">
<svg version="1.0" xmlns="http://www.w3.org/2000/svg"
 width="96.000000pt" height="68.000000pt" viewBox="0 0 96.000000 68.000000"
 preserveAspectRatio="xMidYMid meet">
<metadata>
Created by potrace 1.16, written by Peter Selinger 2001-2019
Combined from part_0.svg through part_5.svg with named groups
</metadata>
<g transform="translate(0.000000,68.000000) scale(0.100000,-0.100000)" fill="#000000" stroke="none">
<g id="part-0" class="char-part">
  <path d="M535 598 c2 -13 6 -48 7 -78 l3 -54 -38 -9 c-45 -11 -53 -6 -37 23
15 27 6 50 -19 50 -14 0 -21 -10 -26 -37 -3 -21 -18 -57 -31 -80 -29 -51 -24
-55 15 -12 24 26 37 31 80 33 l52 1 -3 -40 -3 -40 -77 -10 c-42 -5 -80 -14
-85 -19 -5 -5 -1 -7 9 -3 9 3 18 1 20 -5 3 -7 20 -7 57 1 30 6 56 9 59 6 9 -9
-53 -79 -116 -129 -34 -28 -60 -51 -58 -53 10 -11 102 45 146 89 l53 53 -7
-106 c-7 -111 -3 -139 20 -139 28 0 37 41 30 147 -3 57 -2 103 2 103 8 0 19
-12 72 -80 49 -63 59 -69 115 -70 57 0 92 15 60 25 -56 18 -148 72 -194 113
-28 26 -51 50 -51 53 0 3 40 9 90 12 103 7 124 14 89 32 -17 9 -39 10 -74 4
-27 -4 -63 -8 -78 -8 -27 -1 -28 1 -25 37 3 36 4 37 48 42 52 6 73 17 64 32
-6 10 -64 5 -100 -9 -16 -6 -17 0 -11 60 5 59 4 68 -13 77 -33 17 -51 13 -45
-12z"/>
  <path d="M237 511 l6 -88 -72 -7 c-49 -5 -71 -11 -68 -19 3 -8 26 -11 66 -10
33 1 61 -1 61 -4 0 -17 -74 -135 -110 -176 -24 -27 -36 -47 -28 -47 22 0 76
44 111 89 17 22 33 39 35 36 2 -2 -1 -42 -8 -89 -16 -115 -1 -176 35 -146 12
10 15 41 15 143 l0 130 23 -26 c26 -31 57 -36 57 -9 0 20 -24 45 -52 55 -11 4
-18 17 -18 32 0 21 6 26 40 31 40 7 53 27 24 38 -8 3 -26 3 -39 0 -24 -6 -24
-6 -18 65 6 70 6 71 -21 81 -15 5 -31 10 -36 10 -5 0 -6 -40 -3 -89z"/>
</g>
<g id="part-1" class="char-part">
  <path d="M234 568 c4 -13 10 -49 13 -80 6 -55 5 -58 -21 -68 -15 -5 -47 -10
-72 -10 -24 0 -44 -4 -44 -10 0 -6 27 -10 60 -10 33 0 60 -3 60 -6 0 -26 -79
-153 -122 -196 -10 -10 -13 -18 -7 -18 19 0 84 57 114 100 15 22 30 39 32 37
2 -2 -3 -47 -11 -99 -19 -125 -8 -179 29 -148 12 10 15 41 15 143 l0 131 29
-34 c21 -25 32 -32 41 -24 17 16 3 39 -35 57 -26 12 -35 23 -35 41 0 21 6 26
41 33 49 10 51 28 3 28 l-36 0 6 64 c6 72 -2 91 -41 91 -22 0 -24 -3 -19 -22z"/>
</g>
<g id="part-2" class="char-part">
  <path d="M430 506 c0 -13 -13 -49 -29 -80 -35 -67 -26 -73 21 -13 56 70 68 93
55 106 -20 20 -47 13 -47 -13z"/>
</g>
<g id="part-3" class="char-part">
  <path d="M538 541 l4 -78 -46 -7 c-25 -4 -46 -12 -46 -18 0 -7 16 -9 45 -5 43
6 45 6 45 -19 0 -20 4 -25 22 -22 14 2 24 12 28 28 5 22 14 26 63 34 31 4 57
12 57 16 0 13 -37 22 -60 16 -11 -3 -30 -9 -42 -12 -20 -6 -21 -4 -15 56 8 69
-1 90 -38 90 -21 0 -22 -3 -17 -79z"/>
</g>
<g id="part-4" class="char-part">
  <path d="M537 371 c-4 -15 -18 -20 -81 -26 -42 -3 -78 -10 -81 -15 -9 -15 42
-20 96 -10 29 6 54 9 55 7 8 -8 -100 -117 -150 -152 -31 -21 -56 -40 -56 -41
0 -2 19 4 42 12 48 17 99 53 146 103 l32 35 0 -60 c0 -32 -5 -77 -10 -98 -7
-30 -5 -47 7 -70 l16 -30 19 25 c19 22 20 33 13 137 -3 61 -4 112 -2 112 3 0
29 -30 59 -67 29 -38 60 -73 68 -80 17 -14 95 -16 125 -3 l20 8 -20 7 c-73 27
-116 52 -177 101 -37 30 -68 59 -68 64 0 4 45 12 100 15 55 4 100 11 100 15 0
19 -58 26 -127 15 -70 -11 -77 -10 -74 8 3 17 -47 6 -52 -12z"/>
</g>
</g>
</svg>