<?xml version="1.0" standalone="no"?>
<!DOCTYPE svg PUBLIC "-//W3C//DTD SVG 20010904//EN"
 "http://www.w3.org/TR/2001/REC-SVG-20010904/DTD/svg10.dtd">
<svg version="1.0" xmlns="http://www.w3.org/2000/svg"
 width="96.000000pt" height="68.000000pt" viewBox="0 0 96.000000 68.000000"
 preserveAspectRatio="xMidYMid meet">
<metadata>
Created by potrace 1.16, written by Peter Selinger 2001-2019
Combined from part_0.svg through part_5.svg with named groups
</metadata>
<g transform="translate(0.000000,68.000000) scale(0.100000,-0.100000)" fill="#000000" stroke="none">
<g id="part-0" class="char-part">
  <path d="M361 514 c-96 -13 -177 -26 -180 -29 -12 -12 26 -25 77 -25 47 0 53
-3 62 -26 14 -37 -1 -112 -34 -167 -28 -48 -87 -102 -146 -133 -27 -14 -31
-19 -17 -22 24 -5 135 48 178 86 50 44 87 131 91 214 l3 66 37 4 c46 4 48 0
48 -155 0 -144 12 -176 74 -207 68 -33 235 -20 272 21 16 18 16 22 1 56 -9 21
-19 49 -23 63 -7 22 -9 20 -20 -24 -19 -72 -31 -80 -124 -84 -80 -4 -80 -4
-111 29 l-32 34 6 95 c3 52 11 110 18 129 9 26 9 35 0 41 -14 8 44 20 102 20
25 0 37 5 37 14 0 33 -75 33 -319 0z"/>
</g>
<g id="part-1" class="char-part">
  <path d="M378 512 c-104 -14 -188 -29 -188 -33 0 -12 56 -21 93 -14 30 6 35 4
40 -17 10 -36 8 -87 -5 -130 -14 -48 -86 -131 -147 -170 -55 -34 -35 -36 35
-4 111 52 167 132 180 259 5 54 4 67 -7 68 -43 3 57 18 154 24 61 4 121 9 131
12 19 5 19 6 1 19 -25 18 -63 16 -287 -14z"/>
</g>
<g id="part-2" class="char-part">
  <path d="M478 348 c4 -161 15 -199 62 -223 70 -36 248 -26 286 16 16 18 16 22
1 56 -9 21 -19 49 -23 63 -7 22 -9 20 -20 -25 -19 -71 -40 -85 -130 -85 -63 0
-77 3 -101 24 -27 24 -28 27 -28 123 1 54 7 115 14 137 15 43 7 56 -39 56
l-25 0 3 -142z"/>
</g>
</g>
</svg>