<?xml version="1.0" standalone="no"?>
<!DOCTYPE svg PUBLIC "-//W3C//DTD SVG 20010904//EN"
 "http://www.w3.org/TR/2001/REC-SVG-20010904/DTD/svg10.dtd">
<svg version="1.0" xmlns="http://www.w3.org/2000/svg"
 width="96.000000pt" height="68.000000pt" viewBox="0 0 96.000000 68.000000"
 preserveAspectRatio="xMidYMid meet">
<metadata>
Created by potrace 1.16, written by Peter Selinger 2001-2019
Combined from part_0.svg through part_5.svg with named groups
</metadata>
<g transform="translate(0.000000,68.000000) scale(0.100000,-0.100000)" fill="#000000" stroke="none">
<g id="part-0" class="char-part">
  <path d="M560 577 c0 -33 -54 -135 -92 -174 -44 -45 -28 -53 22 -11 39 34 43
35 147 41 68 4 112 2 118 -4 15 -14 15 -170 0 -240 -16 -80 -31 -95 -80 -79
-20 7 -38 10 -40 8 -6 -5 64 -78 75 -78 6 0 21 7 35 16 40 26 58 87 65 224 3
69 10 132 14 141 5 12 -2 22 -27 38 -32 20 -37 20 -103 7 -38 -8 -86 -16 -107
-19 l-38 -6 22 37 c56 93 54 89 40 106 -21 25 -51 20 -51 -7z"/>
  <path d="M286 549 c5 -24 8 -62 9 -84 l0 -40 -80 -15 c-88 -17 -83 -30 11 -30
33 0 54 -4 54 -11 0 -18 -84 -131 -126 -168 -21 -20 -32 -37 -26 -39 19 -6 78
35 123 86 l42 47 -7 -70 c-4 -38 -9 -84 -12 -100 -4 -22 0 -38 15 -55 21 -25
21 -25 36 -6 11 15 15 48 15 134 l0 115 23 -26 c29 -34 60 -36 55 -4 -2 13
-17 30 -40 42 -21 11 -38 28 -38 37 0 20 29 38 59 38 11 0 23 5 27 11 10 16
-17 30 -50 26 l-28 -4 6 62 c7 68 2 78 -48 91 l-28 7 8 -44z"/>
  <path d="M551 332 c-41 -12 -60 -13 -82 -5 -29 11 -41 1 -15 -14 7 -4 19 -32
26 -61 6 -28 15 -54 19 -56 3 -2 36 1 74 6 55 8 67 13 67 29 0 10 8 35 17 55
17 35 17 36 -2 50 -23 17 -34 16 -104 -4z m49 -56 c0 -42 -1 -44 -36 -51 -43
-8 -49 -2 -58 47 -6 36 -6 37 26 41 71 9 68 10 68 -37z"/>
</g>
<g id="part-1" class="char-part">
  <path d="M290 554 c15 -37 13 -134 -2 -139 -7 -2 -39 -6 -70 -10 -83 -9 -76
-30 7 -22 48 5 65 3 65 -6 0 -21 -50 -90 -114 -154 -33 -35 -56 -63 -50 -63
18 0 86 53 127 99 21 24 41 41 43 38 3 -2 0 -46 -6 -97 -13 -104 -8 -143 18
-138 15 3 18 21 22 133 l5 129 27 -32 c29 -35 43 -40 51 -18 6 15 -13 36 -50
55 -16 8 -23 21 -23 40 0 26 4 29 45 35 71 11 56 33 -17 27 -31 -3 -34 7 -18
74 10 46 -7 75 -46 75 -21 0 -22 -3 -14 -26z"/>
</g>
<g id="part-2" class="char-part">
  <path d="M560 576 c0 -30 -42 -109 -87 -164 -19 -24 -33 -46 -30 -49 3 -3 25
10 49 30 41 33 47 35 151 41 l107 7 10 -26 c24 -63 2 -268 -33 -302 -14 -14
-20 -14 -61 0 l-46 16 37 -44 c44 -51 60 -54 97 -20 40 37 49 69 56 210 4 72
9 139 11 149 3 13 -6 25 -26 37 -29 17 -34 17 -134 -2 -58 -10 -107 -17 -109
-14 -3 3 2 13 10 22 9 10 27 37 42 60 23 38 24 43 10 57 -24 25 -54 20 -54 -8z"/>
</g>
<g id="part-3" class="char-part">
  <path d="M570 334 c-22 -9 -53 -11 -85 -8 -49 6 -50 6 -33 -13 10 -10 23 -43
30 -71 11 -49 13 -52 37 -48 14 3 47 8 74 11 37 5 47 10 47 25 0 11 8 35 17
55 10 22 13 39 7 44 -17 17 -58 19 -94 5z m30 -58 c0 -42 -1 -44 -36 -51 -44
-8 -52 -1 -56 45 -3 33 -1 35 32 41 19 4 41 7 48 8 8 1 12 -14 12 -43z"/>
</g>
</g>
</svg>