<?xml version="1.0" standalone="no"?>
<!DOCTYPE svg PUBLIC "-//W3C//DTD SVG 20010904//EN"
 "http://www.w3.org/TR/2001/REC-SVG-20010904/DTD/svg10.dtd">
<svg version="1.0" xmlns="http://www.w3.org/2000/svg"
 width="96.000000pt" height="68.000000pt" viewBox="0 0 96.000000 68.000000"
 preserveAspectRatio="xMidYMid meet">
<metadata>
Created by potrace 1.16, written by Peter Selinger 2001-2019
Combined from part_0.svg through part_5.svg with named groups
</metadata>
<g transform="translate(0.000000,68.000000) scale(0.100000,-0.100000)" fill="#000000" stroke="none">
<g id="part-0" class="char-part">
  <path d="M555 608 c-2 -7 -5 -24 -7 -38 -2 -20 -10 -26 -36 -30 -36 -6 -47
-23 -16 -28 41 -7 45 -11 34 -31 -18 -34 7 -33 35 1 24 29 35 34 89 38 45 4
61 9 61 20 0 11 -12 15 -51 15 -47 0 -50 1 -46 24 5 25 -11 41 -41 41 -10 0
-20 -6 -22 -12z"/>
  <path d="M303 583 c2 -10 8 -25 11 -34 4 -9 2 -16 -6 -17 -7 -1 -38 -6 -68
-10 l-55 -7 28 -19 c26 -18 42 -18 103 -1 15 5 23 0 32 -19 16 -35 32 -33 32
3 0 25 5 31 30 36 41 9 38 25 -5 25 -24 0 -35 5 -35 14 0 21 -28 46 -52 46
-15 0 -19 -5 -15 -17z"/>
  <path d="M426 452 l6 -29 -74 -2 c-105 -3 -112 -21 -7 -21 l84 0 3 -64 3 -64
-73 -7 c-96 -9 -134 -12 -188 -14 -41 -2 -43 -3 -22 -14 18 -8 52 -8 135 2 62
6 203 15 315 18 111 3 202 10 202 15 0 20 -55 29 -121 18 -37 -5 -99 -10 -137
-10 -66 0 -70 1 -76 25 -3 13 -3 42 0 64 l6 39 72 7 c86 8 106 13 106 27 0 11
-121 5 -153 -8 -12 -4 -20 2 -27 20 -7 18 -17 26 -35 26 -22 0 -24 -3 -19 -28z"/>
  <path d="M579 387 c-6 -12 -25 -37 -42 -54 -36 -38 -17 -46 27 -12 24 19 30
20 52 9 13 -8 24 -17 24 -22 0 -4 7 -8 15 -8 8 0 15 9 15 19 0 14 -9 21 -31
26 -23 5 -28 10 -20 18 17 17 13 34 -9 40 -14 4 -24 -1 -31 -16z"/>
  <path d="M301 367 c-5 -12 -23 -35 -41 -50 -42 -37 -30 -47 16 -14 l37 25 25
-24 c18 -16 30 -20 37 -13 9 10 -7 28 -39 44 -8 3 -7 7 2 11 19 9 14 31 -9 37
-14 4 -22 -1 -28 -16z"/>
  <path d="M515 220 c-27 -4 -104 -11 -169 -15 -97 -7 -116 -10 -103 -20 10 -7
24 -45 33 -86 17 -78 30 -102 42 -82 4 7 56 12 145 14 124 4 139 2 148 -14 6
-9 14 -17 19 -17 32 0 83 187 59 216 -13 15 -87 17 -174 4z m127 -80 c-2 -36
-7 -68 -10 -72 -4 -3 -75 -9 -157 -13 l-150 -7 -12 33 c-13 40 -26 99 -21 100
23 6 274 27 308 25 l45 -1 -3 -65z"/>
  <path d="M417 163 l-58 -4 21 -26 c11 -14 20 -32 20 -41 0 -11 7 -13 31 -8 17
3 49 6 70 6 23 0 39 5 39 12 0 6 7 19 16 29 9 10 13 23 9 28 -6 11 -27 11
-148 4z m93 -33 c0 -28 -78 -39 -97 -14 -17 23 -7 32 42 36 49 4 55 2 55 -22z"/>
</g>
<g id="part-1" class="char-part">
  <path d="M560 596 c0 -43 -11 -56 -52 -63 -32 -5 -37 -8 -23 -15 9 -6 26 -8
37 -5 18 5 20 2 14 -26 l-5 -32 28 34 c26 30 36 34 95 38 36 3 66 9 66 13 0
13 -43 20 -84 13 -37 -6 -38 -5 -26 17 13 24 7 34 -27 45 -20 5 -23 3 -23 -19z"/>
  <path d="M300 583 c0 -5 7 -17 15 -27 20 -27 4 -36 -62 -36 -29 0 -53 -4 -53
-8 0 -15 44 -29 70 -21 47 14 72 10 77 -11 7 -28 28 -19 28 11 0 19 6 25 28
27 39 5 34 24 -5 20 -29 -3 -33 0 -36 25 -3 23 -8 27 -33 27 -16 0 -29 -3 -29
-7z"/>
</g>
<g id="part-2" class="char-part">
  <path d="M425 457 c8 -29 -11 -37 -97 -37 -32 0 -58 -4 -58 -10 0 -6 33 -10
79 -10 88 0 91 -2 91 -86 l0 -42 -72 -6 c-40 -3 -111 -9 -157 -12 -63 -5 -79
-9 -66 -17 18 -10 38 -9 290 13 61 5 170 9 243 9 72 1 132 5 132 10 0 22 -57
32 -121 22 -35 -6 -96 -11 -135 -11 -69 0 -72 1 -77 26 -2 15 -2 44 0 64 l5
38 72 6 c92 9 117 16 110 28 -7 10 -138 4 -169 -8 -8 -4 -15 3 -17 18 -2 17
-10 24 -31 26 -25 3 -27 1 -22 -21z"/>
</g>
<g id="part-3" class="char-part">
  <path d="M300 375 c0 -10 -18 -35 -40 -56 -45 -44 -37 -50 21 -17 l39 22 25
-24 c18 -17 28 -21 36 -13 12 12 -14 43 -37 43 -12 0 -12 4 -2 20 14 22 12 25
-19 34 -18 6 -23 3 -23 -9z"/>
</g>
<g id="part-4" class="char-part">
  <path d="M460 214 c-74 -8 -156 -13 -183 -12 -26 2 -47 2 -47 0 0 -2 9 -15 19
-30 11 -15 25 -52 31 -82 13 -69 24 -87 42 -73 7 6 73 13 147 16 125 4 134 4
138 -14 3 -11 11 -19 18 -19 26 0 46 40 61 121 23 120 27 119 -226 93z m187
-62 c-10 -91 -6 -88 -115 -95 -53 -4 -122 -7 -153 -7 l-56 0 -17 61 c-10 33
-15 63 -12 67 7 6 226 29 305 31 l54 1 -6 -58z"/>
</g>
</g>
</svg>