<?xml version="1.0" standalone="no"?>
<!DOCTYPE svg PUBLIC "-//W3C//DTD SVG 20010904//EN"
 "http://www.w3.org/TR/2001/REC-SVG-20010904/DTD/svg10.dtd">
<svg version="1.0" xmlns="http://www.w3.org/2000/svg"
 width="96.000000pt" height="68.000000pt" viewBox="0 0 96.000000 68.000000"
 preserveAspectRatio="xMidYMid meet">
<metadata>
Created by potrace 1.16, written by Peter Selinger 2001-2019
Combined from part_0.svg through part_5.svg with named groups
</metadata>
<g transform="translate(0.000000,68.000000) scale(0.100000,-0.100000)" fill="#000000" stroke="none">
<g id="part-0" class="char-part">
  <path d="M233 572 c-15 -2 -32 -20 -49 -52 -24 -44 -30 -49 -52 -43 -22 5 -24
3 -18 -13 18 -44 18 -124 2 -174 -26 -80 -11 -89 60 -35 25 19 49 35 54 35 15
0 -42 -128 -71 -159 -15 -17 -24 -31 -19 -31 28 0 98 95 119 160 19 62 28 185
14 198 -26 25 -38 14 -35 -33 l4 -45 -33 7 c-38 7 -33 -12 7 -27 35 -14 30
-45 -10 -64 -57 -27 -59 -24 -52 57 9 98 9 97 71 142 30 22 55 42 55 45 -1 16
-28 35 -47 32z"/>
  <path d="M627 554 c-21 -14 -52 -32 -70 -39 -23 -10 -26 -14 -12 -14 32 -1
160 34 160 43 0 5 -9 15 -20 22 -18 12 -25 11 -58 -12z"/>
  <path d="M728 475 c-15 -25 -26 -45 -24 -45 11 0 96 53 96 61 0 7 -31 29 -42
29 -2 0 -15 -20 -30 -45z"/>
  <path d="M405 488 c-22 -5 -49 -7 -60 -5 -20 3 -20 -2 -19 -207 1 -187 3 -211
18 -214 14 -3 16 14 16 163 0 145 2 166 15 161 8 -3 22 -9 30 -12 8 -3 15 -1
15 6 0 6 -13 17 -30 23 -49 19 -37 57 23 71 l27 6 0 -59 c0 -90 -9 -124 -31
-118 -11 3 -19 4 -19 3 0 -8 39 -46 47 -46 18 0 33 45 42 130 9 74 8 87 -6 98
-9 6 -19 12 -22 11 -3 -1 -24 -5 -46 -11z"/>
  <path d="M600 480 c0 -5 9 -19 20 -30 26 -26 40 -25 40 0 0 13 -10 24 -26 30
-32 12 -34 12 -34 0z"/>
  <path d="M510 459 c0 -20 41 -58 56 -52 30 11 11 44 -33 57 -16 5 -23 3 -23
-5z"/>
  <path d="M659 386 c-2 -2 -22 -7 -44 -10 -98 -15 -108 -18 -92 -28 11 -5 39
-3 78 7 33 9 66 14 72 12 16 -5 -47 -67 -67 -67 -15 0 -15 -2 -1 -24 20 -30
15 -32 -94 -41 -49 -5 -78 -11 -74 -17 3 -7 39 -8 94 -3 l88 6 -2 -60 c-2 -70
-14 -88 -46 -72 -12 7 -21 8 -21 3 0 -10 63 -72 73 -72 19 0 37 65 37 135 l0
75 90 0 c52 0 90 4 90 10 0 16 -47 23 -115 15 -62 -6 -65 -5 -74 17 -7 20 -3
27 33 50 22 16 47 28 54 28 17 0 15 10 -5 26 -17 13 -65 19 -74 10z"/>
</g>
<g id="part-1" class="char-part">
  <path d="M188 518 c-15 -28 -26 -54 -23 -56 2 -3 30 14 61 38 57 43 59 54 14
65 -22 5 -28 0 -52 -47z"/>
</g>
<g id="part-2" class="char-part">
  <path d="M234 373 c-1 -117 -24 -188 -80 -246 -20 -20 -31 -37 -25 -37 6 0 31
20 55 43 60 60 87 137 89 247 2 78 0 85 -18 88 -19 3 -20 -3 -21 -95z"/>
</g>
<g id="part-3" class="char-part">
  <path d="M395 485 c-43 -14 -39 -18 13 -15 l32 2 0 -64 c0 -86 -8 -111 -32
-105 -18 5 -18 4 -5 -16 36 -55 59 -23 77 108 9 71 9 81 -7 92 -20 15 -26 15
-78 -2z"/>
</g>
<g id="part-4" class="char-part">
  <path d="M326 278 c0 -132 5 -213 11 -219 6 -6 13 -7 16 -2 3 5 7 101 8 213 1
191 0 204 -17 211 -18 6 -19 -2 -18 -203z"/>
</g>
<g id="part-5" class="char-part">
  <path d="M615 276 c10 -14 12 -27 6 -30 -9 -6 -96 -18 -133 -20 -10 0 -18 -4
-18 -9 0 -6 17 -7 38 -3 99 18 110 18 122 -5 7 -12 8 -19 2 -15 -7 4 -10 -14
-9 -49 1 -37 -2 -56 -11 -60 -7 -3 -10 -10 -6 -16 4 -7 -2 -7 -17 1 l-24 13
24 -27 c29 -31 41 -33 41 -5 0 11 4 18 9 14 21 -12 27 160 7 193 -4 6 -4 12 0
12 10 0 -28 29 -39 30 -4 0 0 -11 8 -24z m35 -36 c0 -5 -5 -10 -11 -10 -5 0
-7 5 -4 10 3 6 8 10 11 10 2 0 4 -4 4 -10z"/>
  <path d="M748 253 c-31 -8 -19 -23 17 -23 24 0 35 5 35 15 0 15 -17 17 -52 8z"/>
  <path d="M670 241 c0 -6 10 -8 21 -6 33 6 36 15 6 15 -15 0 -27 -4 -27 -9z"/>
</g>
</g>
</svg>