<?xml version="1.0" standalone="no"?>
<!DOCTYPE svg PUBLIC "-//W3C//DTD SVG 20010904//EN"
 "http://www.w3.org/TR/2001/REC-SVG-20010904/DTD/svg10.dtd">
<svg version="1.0" xmlns="http://www.w3.org/2000/svg"
 width="96.000000pt" height="68.000000pt" viewBox="0 0 96.000000 68.000000"
 preserveAspectRatio="xMidYMid meet">
<metadata>
Created by potrace 1.16, written by Peter Selinger 2001-2019
Combined from part_0.svg through part_5.svg with named groups
</metadata>
<g transform="translate(0.000000,68.000000) scale(0.100000,-0.100000)" fill="#000000" stroke="none">
<g id="part-0" class="char-part">
  <path d="M316 595 c-9 -34 -75 -106 -134 -145 -40 -26 -42 -30 -21 -30 14 0
46 13 71 29 25 16 49 27 52 24 10 -10 7 -51 -4 -58 -18 -11 -11 -43 16 -75 26
-30 27 -35 21 -113 -7 -94 -1 -111 36 -101 52 13 25 -28 -54 -81 -65 -45 -34
-37 74 17 75 37 90 57 44 59 -20 1 -20 2 3 9 40 13 165 11 178 -2 25 -25 37
10 39 113 2 98 2 100 -23 111 -19 9 -49 9 -122 0 -53 -7 -116 -12 -139 -12
-41 0 -42 1 -33 26 14 35 13 121 -1 130 -8 4 4 21 32 45 37 32 42 41 33 56 -6
10 -22 19 -36 21 -20 2 -27 -2 -32 -23z m264 -288 c0 -19 -6 -22 -37 -22 -21
0 -71 -4 -110 -9 l-73 -8 0 25 c0 24 2 25 103 34 56 5 105 7 110 5 4 -2 7 -13
7 -25z m0 -56 c0 -21 -18 -26 -142 -37 -67 -5 -79 -4 -84 10 -9 25 -3 28 83
36 135 13 143 12 143 -9z m0 -66 c0 -25 -2 -25 -77 -25 -43 0 -95 -3 -116 -7
-37 -6 -39 -5 -35 18 3 23 8 24 88 30 47 3 97 6 113 7 23 2 27 -2 27 -23z"/>
  <path d="M508 581 c-49 -10 -91 -21 -95 -24 -3 -4 21 -7 55 -7 62 0 62 0 62
-29 0 -25 -4 -29 -37 -35 -21 -3 -55 -6 -75 -6 -20 0 -40 -5 -44 -12 -5 -8 14
-10 74 -5 l82 6 0 -29 c0 -27 -3 -29 -55 -35 -80 -10 -84 -29 -4 -21 35 3 106
9 157 12 72 5 92 10 92 22 0 12 -12 13 -75 7 l-75 -7 0 30 0 30 95 7 c52 4 95
11 95 16 0 17 -52 21 -112 9 -50 -9 -62 -9 -69 2 -5 7 -7 19 -4 26 3 8 5 17 5
22 0 4 25 11 55 15 30 3 53 11 50 16 -9 13 -79 10 -177 -10z"/>
  <path d="M521 106 c83 -77 149 -116 149 -88 0 20 -37 56 -74 73 -35 16 -88 27
-75 15z"/>
</g>
<g id="part-1" class="char-part">
  <path d="M316 587 c-15 -36 -69 -96 -126 -140 -50 -38 -24 -33 40 7 l55 35 3
-29 c2 -16 -1 -37 -6 -47 -12 -22 3 -66 20 -61 16 6 28 118 15 136 -8 9 1 25
33 57 24 25 42 46 39 48 -7 7 -47 27 -53 27 -3 0 -12 -15 -20 -33z"/>
</g>
<g id="part-2" class="char-part">
  <path d="M527 526 l5 -34 -76 -7 c-107 -10 -113 -30 -8 -22 l82 5 0 -28 c0
-27 -3 -29 -57 -35 -75 -8 -82 -11 -59 -21 11 -4 63 -2 115 4 53 7 117 12 143
12 26 0 49 4 53 9 9 16 -34 23 -96 16 l-59 -7 0 30 0 30 95 7 c92 7 117 17 74
30 -19 6 -84 1 -136 -12 -20 -4 -23 -1 -23 26 0 28 -3 31 -29 31 -28 0 -29 -2
-24 -34z"/>
</g>
<g id="part-3" class="char-part">
  <path d="M475 350 c-27 -5 -75 -9 -105 -9 l-55 -1 2 -82 c2 -83 12 -105 36
-75 14 18 227 34 227 17 0 -6 13 -10 29 -10 l28 0 -1 75 c-1 56 -5 78 -16 85
-17 11 -73 11 -145 0z m103 -40 c3 -22 -1 -25 -30 -25 -18 0 -68 -4 -110 -8
l-78 -8 0 26 c0 23 4 25 43 26 23 0 62 4 87 9 69 12 85 9 88 -20z m2 -59 c0
-24 -12 -28 -128 -36 -79 -6 -93 -4 -98 10 -10 24 0 28 79 35 135 13 147 12
147 -9z"/>
</g>
<g id="part-4" class="char-part">
  <path d="M578 171 c-4 -11 -228 -22 -228 -10 0 5 -9 9 -20 9 -20 0 -26 -16
-12 -36 5 -8 25 -9 62 -3 83 12 204 11 217 -2 15 -15 30 -5 35 26 5 22 2 25
-23 25 -15 0 -29 -4 -31 -9z"/>
</g>
<g id="part-5" class="char-part">
  <path d="M367 91 c-12 -14 -34 -34 -47 -43 -14 -10 4 -3 40 15 68 33 85 51 51
53 -11 1 -31 -11 -44 -25z"/>
  <path d="M552 90 c9 -6 30 -24 47 -40 28 -28 61 -40 61 -22 0 18 -38 42 -56
36 -15 -5 -16 -4 -4 4 12 9 9 13 -13 21 -35 14 -58 14 -35 1z m93 -58 c-3 -3
-11 0 -18 7 -9 10 -8 11 6 5 10 -3 15 -9 12 -12z"/>
</g>
</g>
</svg>