<?xml version="1.0" standalone="no"?>
<!DOCTYPE svg PUBLIC "-//W3C//DTD SVG 20010904//EN"
 "http://www.w3.org/TR/2001/REC-SVG-20010904/DTD/svg10.dtd">
<svg version="1.0" xmlns="http://www.w3.org/2000/svg"
 width="96.000000pt" height="68.000000pt" viewBox="0 0 96.000000 68.000000"
 preserveAspectRatio="xMidYMid meet">
<metadata>
Created by potrace 1.16, written by Peter Selinger 2001-2019
Combined from part_0.svg through part_5.svg with named groups
</metadata>
<g transform="translate(0.000000,68.000000) scale(0.100000,-0.100000)" fill="#000000" stroke="none">
<g id="part-0" class="char-part">
  <path d="M675 590 c-11 -5 -39 -9 -62 -9 -24 -1 -43 -2 -43 -3 0 -18 41 -103
49 -102 6 1 29 2 51 3 28 1 40 5 40 16 0 8 8 30 17 50 9 19 15 36 12 39 -11
10 -46 13 -64 6z m15 -39 c0 -36 -12 -51 -40 -51 -42 0 -58 55 -17 63 47 9 57
7 57 -12z"/>
  <path d="M475 570 c-11 -5 -37 -9 -58 -9 -37 -1 -38 -1 -23 -23 9 -12 16 -29
16 -38 0 -34 16 -42 64 -35 35 6 46 11 46 26 0 10 5 30 12 44 10 22 9 28 -3
36 -17 10 -27 10 -54 -1z m16 -46 c-4 -38 -8 -44 -32 -44 -12 0 -23 10 -30 27
-11 28 -5 38 26 46 33 8 40 2 36 -29z"/>
  <path d="M265 514 c-33 -7 -77 -15 -97 -19 -57 -9 -46 -25 17 -25 31 0 55 -4
55 -10 0 -24 -52 -112 -89 -150 -27 -29 -34 -40 -20 -36 10 3 27 8 37 11 23 8
77 -59 64 -81 -5 -8 -35 -42 -68 -76 -54 -55 -56 -59 -24 -43 52 26 139 121
188 203 57 98 56 106 -13 99 -59 -6 -68 2 -39 35 13 14 14 21 5 32 -15 18 -8
22 51 30 50 8 69 23 47 37 -18 11 -40 10 -114 -7z m45 -160 c0 -20 -41 -94
-52 -94 -4 0 -8 4 -8 9 0 5 -13 14 -30 21 -16 7 -30 16 -30 19 0 15 46 49 70
54 45 8 50 7 50 -9z"/>
  <path d="M615 439 c-16 -5 -74 -12 -128 -16 -88 -5 -96 -8 -83 -22 14 -16 16
-23 36 -99 11 -44 11 -44 53 -40 36 3 42 0 45 -18 3 -18 -4 -22 -44 -28 -26
-3 -72 -6 -102 -6 -44 0 -53 -3 -44 -12 14 -14 66 -15 140 -4 l52 9 0 -86 c0
-81 9 -112 26 -86 4 7 10 48 13 93 l6 81 130 5 c129 5 129 5 101 23 -24 16
-34 17 -77 8 -73 -16 -159 -14 -159 3 0 24 28 38 71 34 l42 -3 30 74 c28 71
29 75 11 88 -20 15 -74 16 -119 2z m73 -41 c-3 -20 -10 -23 -49 -25 -39 -2
-48 1 -52 17 -7 26 0 30 55 30 45 0 49 -2 46 -22z m-150 -15 c3 -21 -1 -23
-41 -23 -36 0 -46 4 -50 19 -5 21 15 30 63 27 18 -1 26 -7 28 -23z m133 -55
c-6 -17 -18 -23 -50 -26 -35 -3 -41 -1 -41 16 0 27 8 32 56 32 41 0 43 -1 35
-22z m-133 -15 c-2 -22 -8 -27 -35 -29 -22 -2 -33 2 -33 11 0 7 -3 20 -6 29
-5 13 2 16 36 16 39 0 41 -2 38 -27z"/>
</g>
<g id="part-1" class="char-part">
  <path d="M313 519 c-11 -4 -54 -13 -96 -20 -43 -7 -77 -17 -77 -21 0 -4 24 -8
53 -8 46 0 74 5 165 25 12 3 22 9 22 14 0 12 -43 19 -67 10z"/>
</g>
<g id="part-2" class="char-part">
  <path d="M227 427 c-10 -24 -40 -72 -67 -105 -28 -34 -46 -62 -40 -62 9 0 72
51 100 82 8 9 32 19 53 22 31 6 37 4 37 -11 0 -34 -75 -148 -141 -216 -37 -37
-64 -67 -60 -67 13 0 98 57 121 81 40 42 151 219 144 231 -4 7 -27 8 -66 4
l-59 -6 20 29 c25 35 26 47 5 55 -26 10 -28 8 -47 -37z"/>
</g>
<g id="part-3" class="char-part">
  <path d="M470 570 c-8 -5 -32 -10 -53 -10 -36 0 -37 -1 -23 -22 8 -13 17 -38
21 -56 5 -24 11 -32 22 -28 8 3 31 9 51 12 31 5 37 10 39 32 1 15 3 38 5 52 2
20 -2 25 -22 28 -14 1 -32 -2 -40 -8z m18 -47 c-2 -30 -8 -39 -24 -41 -16 -2
-24 4 -32 28 -9 23 -8 32 1 35 7 2 19 6 27 8 28 10 31 7 28 -30z"/>
</g>
<g id="part-4" class="char-part">
  <path d="M670 589 c-14 -6 -41 -11 -61 -11 l-36 0 15 -54 c16 -58 12 -56 97
-39 13 3 27 21 39 50 10 25 17 47 15 49 -12 11 -47 13 -69 5z m20 -43 c0 -42
-64 -70 -74 -32 -10 36 -7 44 17 49 50 10 57 7 57 -17z"/>
</g>
<g id="part-5" class="char-part">
  <path d="M549 248 c-1 -7 -1 -16 0 -21 1 -4 -14 -11 -31 -14 l-33 -7 30 -6
c25 -4 30 -10 29 -33 0 -15 4 -27 8 -27 4 0 8 -5 8 -11 0 -5 -3 -8 -7 -6 -5 3
-6 -18 -4 -46 4 -68 18 -41 25 50 3 39 6 75 7 79 0 5 -2 19 -6 32 -8 24 -24
30 -26 10z"/>
  <path d="M759 232 c11 -8 11 -10 0 -15 -8 -3 5 -5 28 -4 48 2 44 14 -7 23 -24
4 -31 3 -21 -4z"/>
  <path d="M638 223 c7 -3 16 -2 19 1 4 3 -2 6 -13 5 -11 0 -14 -3 -6 -6z"/>
  <path d="M710 220 c-8 -5 -10 -10 -5 -10 6 0 17 5 25 10 8 5 11 10 5 10 -5 0
-17 -5 -25 -10z"/>
  <path d="M375 193 c10 -7 30 -10 49 -6 59 11 58 20 -4 19 -52 0 -59 -2 -45
-13z"/>
</g>
</g>
</svg>