<?xml version="1.0" standalone="no"?>
<!DOCTYPE svg PUBLIC "-//W3C//DTD SVG 20010904//EN"
 "http://www.w3.org/TR/2001/REC-SVG-20010904/DTD/svg10.dtd">
<svg version="1.0" xmlns="http://www.w3.org/2000/svg"
 width="96.000000pt" height="68.000000pt" viewBox="0 0 96.000000 68.000000"
 preserveAspectRatio="xMidYMid meet">
<metadata>
Created by potrace 1.16, written by Peter Selinger 2001-2019
Combined from part_0.svg through part_5.svg with named groups
</metadata>
<g transform="translate(0.000000,68.000000) scale(0.100000,-0.100000)" fill="#000000" stroke="none">
<g id="part-0" class="char-part">
  <path d="M560 548 c0 -13 -18 -56 -41 -97 -39 -72 -45 -109 -10 -63 14 19 38
28 124 44 59 11 107 24 107 29 0 14 -59 10 -116 -8 -30 -9 -57 -14 -60 -10 -4
4 7 29 23 56 23 36 28 52 20 60 -20 20 -47 13 -47 -11z"/>
  <path d="M169 492 c17 -31 49 -54 72 -50 55 8 14 68 -46 68 -31 0 -34 -2 -26
-18z"/>
  <path d="M340 492 c0 -5 10 -21 21 -36 12 -15 20 -29 18 -30 -2 -2 -33 -10
-69 -19 -57 -13 -60 -15 -27 -16 36 -1 37 -2 37 -38 0 -38 -28 -105 -57 -139
-49 -54 -55 -64 -45 -64 22 0 81 61 111 115 34 60 34 60 61 45 16 -8 16 -15 8
-57 -6 -27 -22 -67 -36 -91 -21 -37 -28 -43 -49 -37 -23 5 -24 5 -7 -20 9 -14
22 -25 28 -25 24 0 86 88 86 121 0 7 9 32 21 56 25 53 15 73 -38 73 -32 0 -35
2 -29 23 3 12 6 27 6 34 0 6 18 14 40 18 22 4 42 11 45 16 7 10 -40 23 -53 15
-6 -3 -8 2 -5 12 2 10 -2 23 -9 29 -19 16 -58 26 -58 15z"/>
  <path d="M600 364 c-47 -13 -95 -23 -107 -23 -13 -1 -23 -5 -23 -11 0 -15 35
-12 123 9 78 18 92 16 81 -13 -7 -18 5 -20 38 -7 13 5 32 12 42 16 24 7 13 19
-34 38 -31 12 -44 11 -120 -9z"/>
  <path d="M100 374 c0 -16 54 -64 72 -64 19 0 24 25 10 48 -10 14 -82 29 -82
16z"/>
  <path d="M576 263 c3 -27 7 -60 9 -75 5 -32 -9 -36 -43 -12 -19 13 -20 19 -11
36 9 18 8 24 -7 35 -27 20 -38 11 -46 -34 -8 -47 -39 -113 -62 -132 -18 -15
-21 -31 -7 -31 13 0 80 71 87 93 3 9 12 17 20 17 13 0 112 -65 124 -81 3 -4
23 -16 46 -28 34 -18 51 -20 98 -15 31 4 53 10 49 14 -4 4 -37 15 -73 25 -36
9 -82 26 -102 36 -34 17 -38 23 -38 58 l0 38 60 7 c70 8 96 32 30 28 -3 0 -22
-3 -42 -7 l-38 -7 0 35 c0 34 -12 47 -46 47 -10 0 -12 -11 -8 -47z"/>
  <path d="M192 249 c-13 -22 -39 -58 -58 -79 -19 -20 -34 -46 -34 -57 0 -20 36
-61 45 -51 9 9 85 201 85 215 0 24 -15 13 -38 -28z"/>
</g>
<g id="part-1" class="char-part">
  <path d="M170 503 c0 -15 55 -63 72 -63 26 0 23 35 -4 54 -23 16 -68 22 -68 9z"/>
  <path d="M105 370 c-6 -10 52 -60 71 -60 16 0 19 36 4 45 -22 14 -70 23 -75
15z"/>
  <path d="M192 241 c-17 -26 -45 -62 -63 -79 -30 -28 -32 -32 -19 -61 7 -17 18
-31 25 -31 7 0 27 37 45 82 34 87 51 138 45 138 -2 0 -17 -22 -33 -49z"/>
</g>
<g id="part-2" class="char-part">
  <path d="M340 491 c0 -4 9 -20 20 -34 11 -14 20 -27 20 -30 0 -3 -33 -11 -72
-18 l-73 -13 45 -6 c48 -5 190 17 190 31 0 11 -38 22 -50 14 -5 -3 -10 3 -10
14 0 11 -10 27 -22 35 -25 18 -48 21 -48 7z"/>
</g>
<g id="part-3" class="char-part">
  <path d="M383 314 c15 -8 27 -16 27 -18 0 -16 -36 -114 -51 -141 -23 -39 -23
-39 -50 -25 -22 12 -23 10 -7 -25 26 -57 72 -18 123 105 19 47 35 90 35 96 0
16 -24 24 -68 24 l-37 -1 28 -15z"/>
</g>
<g id="part-4" class="char-part">
  <path d="M477 214 c-4 -39 -28 -88 -74 -153 -17 -24 -17 -24 3 -13 21 11 81
75 99 106 9 14 20 9 95 -45 105 -76 121 -82 188 -73 63 8 59 15 -26 37 -61 17
-113 40 -199 88 -30 17 -41 29 -37 39 13 31 8 43 -17 50 -25 7 -27 6 -32 -36z"/>
</g>
</g>
</svg>