<?xml version="1.0" standalone="no"?>
<!DOCTYPE svg PUBLIC "-//W3C//DTD SVG 20010904//EN"
 "http://www.w3.org/TR/2001/REC-SVG-20010904/DTD/svg10.dtd">
<svg version="1.0" xmlns="http://www.w3.org/2000/svg"
 width="96.000000pt" height="68.000000pt" viewBox="0 0 96.000000 68.000000"
 preserveAspectRatio="xMidYMid meet">
<metadata>
Created by potrace 1.16, written by Peter Selinger 2001-2019
Combined from part_0.svg through part_5.svg with named groups
</metadata>
<g transform="translate(0.000000,68.000000) scale(0.100000,-0.100000)" fill="#000000" stroke="none">
<g id="part-0" class="char-part">
  <path d="M520 609 c-25 -4 -83 -10 -129 -13 -46 -3 -86 -8 -89 -10 -2 -3 2
-12 10 -20 9 -8 18 -34 22 -57 10 -61 18 -68 69 -58 23 4 75 8 115 9 l73 0 29
63 c28 62 28 62 8 80 -22 18 -37 19 -108 6z m50 -44 c0 -11 -11 -15 -40 -15
-29 0 -40 4 -40 15 0 11 11 15 40 15 29 0 40 -4 40 -15z m-137 -9 c4 -9 -4
-16 -25 -20 -34 -7 -48 -1 -48 20 0 19 66 19 73 0z m127 -41 c0 -8 -4 -15 -9
-15 -5 0 -23 -3 -40 -6 -24 -5 -31 -3 -31 9 0 14 13 19 68 26 6 0 12 -6 12
-14z m-122 -17 c-3 -7 -17 -13 -33 -13 -16 0 -30 6 -32 13 -3 8 7 12 32 12 25
0 35 -4 33 -12z"/>
  <path d="M619 446 c-3 -3 -55 -9 -143 -15 -5 -1 -4 -7 2 -14 6 -7 16 -33 22
-59 10 -40 15 -46 29 -38 10 5 52 8 94 7 l77 -2 24 49 c31 63 23 76 -49 76
-28 0 -54 -2 -56 -4z m75 -31 c-4 -9 -19 -15 -40 -15 -24 0 -34 5 -34 15 0 11
11 15 40 15 31 0 38 -3 34 -15z m-109 -10 c0 -5 -15 -11 -32 -13 -25 -3 -33 1
-33 13 0 12 8 16 33 13 17 -2 32 -7 32 -13z m105 -19 c0 -23 -17 -36 -46 -36
-25 0 -32 4 -28 14 5 13 23 20 62 25 6 0 12 -1 12 -3z m-109 -16 c23 0 6 -18
-21 -22 -19 -3 -30 0 -30 7 0 17 12 26 28 20 7 -3 18 -5 23 -5z"/>
  <path d="M272 416 c-41 -6 -71 -14 -67 -18 4 -3 12 -28 19 -55 l12 -48 65 4
c35 2 75 5 89 5 20 1 28 10 43 50 10 27 16 55 13 63 -6 16 -68 15 -174 -1z
m128 -27 c0 -16 -5 -20 -27 -17 -17 2 -29 10 -31 21 -3 13 3 17 27 17 25 0 31
-4 31 -21z m-92 -6 c-4 -22 -47 -30 -59 -11 -15 23 -10 28 27 28 28 0 35 -3
32 -17z m87 -44 c0 -17 -47 -19 -52 -2 -2 6 4 13 14 16 26 7 38 2 38 -14z
m-79 -4 c-3 -23 -13 -28 -41 -21 -38 10 -32 36 9 36 24 0 34 -4 32 -15z"/>
  <path d="M639 296 c-2 -2 -49 -7 -104 -10 -55 -4 -149 -11 -210 -17 -94 -7
-112 -7 -121 6 -10 13 -14 12 -29 -11 -21 -32 -25 -85 -8 -91 7 -3 20 12 30
31 15 32 21 36 57 36 56 1 137 8 299 27 151 17 177 12 135 -27 l-23 -22 50 7
c95 13 109 27 56 58 -25 15 -120 24 -132 13z"/>
  <path d="M505 230 c-16 -6 -56 -12 -88 -14 -32 -2 -60 -6 -62 -8 -2 -2 0 -37
4 -78 5 -41 6 -78 2 -82 -4 -4 -41 -8 -84 -9 -53 -1 -77 -5 -74 -13 4 -13 30
-13 350 -1 153 5 226 12 224 19 -6 18 -48 24 -124 18 -83 -6 -81 -10 -58 87 9
36 12 68 7 73 -13 13 -65 18 -97 8z m43 -45 c2 -18 -4 -20 -73 -23 -69 -2 -76
-1 -73 15 2 13 16 20 48 24 72 10 95 6 98 -16z m2 -50 c0 -19 -8 -22 -87 -29
-58 -5 -63 -4 -63 14 0 16 9 20 58 23 31 2 65 4 75 5 9 1 17 -5 17 -13z m-10
-65 c0 -18 -7 -20 -70 -20 -52 0 -70 3 -70 13 0 23 11 27 77 27 56 0 63 -2 63
-20z"/>
</g>
<g id="part-1" class="char-part">
  <path d="M520 604 c-36 -7 -98 -12 -137 -13 -65 -1 -89 -10 -65 -25 5 -3 14
-30 21 -61 10 -46 16 -55 30 -50 9 3 63 6 119 8 l101 2 26 60 c14 33 25 63 25
67 0 17 -59 23 -120 12z m55 -38 c0 -16 -8 -20 -47 -21 -40 -2 -48 0 -48 16 0
13 9 19 33 22 50 6 62 3 62 -17z m-137 -13 c-2 -13 -14 -19 -41 -21 -32 -3
-37 0 -37 17 0 18 6 21 41 21 33 0 40 -3 37 -17z m132 -27 c0 -2 -3 -11 -6
-20 -8 -21 -84 -23 -84 -2 0 8 6 17 13 19 15 7 77 9 77 3z m-130 -26 c0 -16
-7 -20 -35 -20 -37 0 -50 25 -17 33 38 10 52 7 52 -13z"/>
</g>
<g id="part-2" class="char-part">
  <path d="M290 418 c-30 -5 -65 -7 -77 -5 -23 4 -33 -8 -13 -15 6 -2 17 -26 24
-53 10 -40 17 -50 32 -48 10 1 52 3 91 5 l73 2 15 54 c9 29 13 57 10 62 -7 12
-80 11 -155 -2z m110 -28 c0 -14 -7 -20 -24 -20 -15 0 -26 7 -29 20 -4 17 0
20 24 20 22 0 29 -5 29 -20z m-92 -7 c-2 -12 -13 -18 -33 -18 -20 0 -31 6 -33
18 -3 14 4 17 33 17 29 0 36 -3 33 -17z m85 -54 c-13 -13 -45 -8 -50 8 -2 6 6
13 19 15 29 5 46 -8 31 -23z m-85 4 c-4 -22 -38 -30 -49 -11 -15 22 -10 28 22
28 24 0 30 -4 27 -17z"/>
</g>
<g id="part-3" class="char-part">
  <path d="M635 449 c-27 -4 -76 -11 -108 -14 -43 -5 -56 -10 -48 -18 5 -7 15
-34 22 -60 10 -42 14 -47 33 -40 11 5 53 8 93 8 l71 0 27 54 c14 29 25 54 23
56 -10 8 -48 25 -55 24 -4 -1 -30 -5 -58 -10z m55 -34 c0 -10 -11 -15 -35 -15
-33 0 -43 8 -28 23 13 14 63 7 63 -8z m-105 -10 c0 -5 -15 -11 -32 -13 -25 -3
-33 1 -33 13 0 12 8 16 33 13 17 -2 32 -7 32 -13z m105 -19 c0 -22 -17 -36
-41 -36 -35 0 -40 26 -6 33 34 7 47 7 47 3z m-102 -23 c2 -9 -7 -13 -27 -13
-31 0 -42 14 -18 23 19 8 40 3 45 -10z"/>
</g>
<g id="part-4" class="char-part">
  <path d="M680 67 c-3 -3 -112 -11 -242 -18 -131 -7 -238 -16 -238 -20 0 -17
52 -20 174 -10 70 6 190 11 267 11 125 0 159 6 131 24 -14 8 -86 18 -92 13z"/>
</g>
</g>
</svg>