<?xml version="1.0" standalone="no"?>
<!DOCTYPE svg PUBLIC "-//W3C//DTD SVG 20010904//EN"
 "http://www.w3.org/TR/2001/REC-SVG-20010904/DTD/svg10.dtd">
<svg version="1.0" xmlns="http://www.w3.org/2000/svg"
 width="96.000000pt" height="68.000000pt" viewBox="0 0 96.000000 68.000000"
 preserveAspectRatio="xMidYMid meet">
<metadata>
Created by potrace 1.16, written by Peter Selinger 2001-2019
Combined from part_0.svg through part_5.svg with named groups
</metadata>
<g transform="translate(0.000000,68.000000) scale(0.100000,-0.100000)" fill="#000000" stroke="none">
<g id="part-0" class="char-part">
  <path d="M250 581 c0 -3 13 -21 28 -38 34 -41 75 -48 80 -14 2 13 0 27 -5 32
-11 11 -103 29 -103 20z"/>
  <path d="M490 526 c0 -36 -15 -45 -70 -46 -20 0 -22 -2 -10 -10 8 -5 30 -10
48 -10 27 0 32 -3 32 -25 0 -22 -4 -25 -35 -25 -19 0 -35 -4 -35 -10 0 -5 16
-10 35 -10 31 0 35 -3 35 -25 0 -26 -17 -31 -79 -26 -15 1 -21 -2 -18 -11 3
-8 20 -12 50 -11 38 1 46 -2 49 -18 5 -30 22 -23 31 11 6 23 13 30 32 30 13 0
27 5 30 11 5 7 -4 9 -27 5 -33 -5 -35 -4 -30 19 3 16 11 25 23 25 10 0 21 5
24 10 4 6 -5 10 -19 10 -21 0 -26 5 -26 25 0 20 5 25 24 25 14 0 28 5 31 10 4
6 -7 10 -26 10 -27 0 -31 3 -26 22 7 24 -8 48 -29 48 -9 0 -14 -12 -14 -34z"/>
  <path d="M730 494 c-30 -7 -68 -13 -85 -14 l-30 -2 28 -11 c25 -10 28 -15 23
-41 -4 -16 -18 -45 -32 -63 -14 -19 -23 -37 -20 -40 19 -19 116 122 102 146
-5 7 5 11 28 11 40 0 44 -11 26 -84 -9 -41 -26 -59 -47 -51 -20 7 -15 -20 7
-40 20 -18 21 -18 44 4 24 23 62 150 53 175 -8 20 -36 23 -97 10z"/>
  <path d="M260 434 c-25 -7 -57 -13 -72 -13 -15 -1 -29 -5 -32 -10 -11 -17 42
-21 84 -6 47 17 80 19 80 7 0 -11 -99 -123 -168 -189 -30 -29 -50 -53 -44 -53
16 0 113 68 134 95 35 44 41 32 35 -67 -2 -51 -8 -100 -11 -108 -8 -20 19 -59
32 -45 6 6 12 56 14 113 3 56 8 105 11 109 4 3 16 -2 27 -12 16 -15 23 -16 33
-6 9 10 8 15 -7 27 -11 8 -27 14 -37 14 -9 0 -22 7 -29 15 -9 11 -8 20 8 42
11 15 29 37 41 47 54 49 2 70 -99 40z"/>
  <path d="M562 265 c1 -19 -1 -37 -4 -41 -4 -3 -43 -8 -89 -11 -73 -5 -80 -8
-63 -20 14 -10 36 -12 88 -7 l69 7 -20 -29 c-30 -41 -62 -68 -108 -92 -48 -25
-36 -28 28 -6 48 16 121 80 132 115 6 17 18 19 125 19 119 0 156 11 104 30
-16 6 -62 8 -116 4 l-89 -7 6 26 c6 23 3 28 -20 37 -41 15 -46 13 -43 -25z"/>
  <path d="M686 124 c55 -52 108 -94 117 -94 14 0 6 49 -9 65 -19 19 -128 75
-146 75 -6 0 10 -21 38 -46z"/>
</g>
<g id="part-1" class="char-part">
  <path d="M260 573 c0 -15 55 -63 71 -63 39 0 34 40 -7 59 -28 12 -64 15 -64 4z"/>
</g>
<g id="part-2" class="char-part">
  <path d="M240 316 c-19 -22 -61 -65 -92 -93 -32 -29 -52 -53 -45 -53 20 0 98
53 131 89 17 17 33 31 38 31 12 0 10 -128 -3 -173 -8 -32 -7 -43 6 -64 25 -37
35 -14 35 78 0 42 3 90 6 107 6 30 8 31 27 17 28 -19 47 -19 47 0 0 9 -20 24
-46 35 -32 14 -44 25 -40 35 3 8 -2 19 -12 23 -13 7 -25 0 -52 -32z"/>
</g>
<g id="part-3" class="char-part">
  <path d="M490 526 c0 -36 -15 -45 -70 -46 -20 0 -22 -2 -10 -10 8 -5 30 -10
48 -10 27 0 32 -3 32 -25 0 -23 -4 -25 -41 -25 -24 0 -38 -4 -34 -10 3 -5 22
-10 41 -10 29 0 34 -3 34 -24 0 -19 4 -23 20 -19 12 3 20 14 20 28 0 16 9 25
33 33 l32 10 -32 1 c-28 1 -33 5 -33 26 0 20 5 25 24 25 35 0 42 18 9 22 -23
2 -28 8 -27 28 1 25 -11 40 -33 40 -8 0 -13 -13 -13 -34z"/>
</g>
<g id="part-4" class="char-part">
  <path d="M670 450 c0 -26 -26 -78 -53 -107 -17 -19 -18 -23 -5 -23 30 0 117
118 103 140 -12 19 -45 11 -45 -10z"/>
</g>
<g id="part-5" class="char-part">
  <path d="M580 275 c22 -12 21 -20 -2 -16 -5 0 -8 -3 -8 -9 0 -5 5 -10 10 -10
14 0 -10 -26 -25 -28 -5 0 -28 -3 -50 -5 -22 -3 -51 -6 -65 -6 -22 -1 -23 -3
-7 -12 9 -5 22 -7 28 -3 6 3 30 8 55 11 35 3 44 1 44 -11 0 -21 -66 -93 -92
-101 -11 -4 -17 -9 -15 -12 9 -8 65 26 86 53 12 15 21 23 22 18 0 -5 8 7 17
26 19 39 16 38 169 42 50 2 86 6 80 10 -16 10 -111 9 -165 -1 -46 -9 -58 -2
-43 27 7 14 5 21 -10 30 -10 7 -27 12 -36 12 -14 -1 -12 -4 7 -15z"/>
  <path d="M723 100 c59 -57 87 -73 87 -49 0 5 -4 7 -10 4 -6 -3 -7 1 -4 10 4 9
-1 22 -12 31 -18 13 -112 64 -119 64 -2 0 24 -27 58 -60z m41 -6 c3 -8 2 -12
-4 -9 -6 3 -10 10 -10 16 0 14 7 11 14 -7z"/>
</g>
</g>
</svg>