<?xml version="1.0" standalone="no"?>
<!DOCTYPE svg PUBLIC "-//W3C//DTD SVG 20010904//EN"
 "http://www.w3.org/TR/2001/REC-SVG-20010904/DTD/svg10.dtd">
<svg version="1.0" xmlns="http://www.w3.org/2000/svg"
 width="96.000000pt" height="68.000000pt" viewBox="0 0 96.000000 68.000000"
 preserveAspectRatio="xMidYMid meet">
<metadata>
Created by potrace 1.16, written by Peter Selinger 2001-2019
Combined from part_0.svg through part_5.svg with named groups
</metadata>
<g transform="translate(0.000000,68.000000) scale(0.100000,-0.100000)" fill="#000000" stroke="none">
<g id="part-0" class="char-part">
  <path d="M548 548 l-3 -53 -52 -9 c-62 -11 -71 -26 -13 -21 22 2 42 0 44 -4 7
-11 -43 -71 -78 -93 -29 -19 -27 -19 24 -7 11 3 15 -5 15 -28 1 -53 24 -67
116 -72 44 -2 100 0 125 4 38 5 43 9 33 21 -6 8 -19 12 -28 9 -25 -8 -181 -14
-197 -8 -29 11 -12 20 66 37 43 9 82 21 85 26 13 21 -27 21 -73 2 -26 -11 -58
-22 -72 -24 -23 -3 -24 0 -22 35 2 23 13 48 28 64 13 14 24 30 24 34 0 5 9 9
20 9 15 0 20 -7 20 -29 0 -48 22 -61 105 -61 75 0 125 12 125 29 0 6 -11 22
-25 37 -20 21 -25 23 -25 10 0 -33 -26 -46 -89 -46 -58 0 -61 1 -61 24 0 31
25 56 56 56 13 0 24 5 24 11 0 8 -19 10 -66 5 l-65 -7 6 46 c5 29 4 45 -3 45
-6 0 -17 3 -26 6 -12 5 -15 -5 -18 -48z"/>
  <path d="M665 570 c21 -23 50 -34 66 -25 18 12 -22 45 -54 45 -29 0 -30 -1
-12 -20z"/>
  <path d="M345 551 c-6 -10 -122 -69 -169 -85 -37 -13 -6 -18 44 -7 28 6 56 9
61 5 5 -3 9 -22 9 -44 l0 -38 -85 -13 c-47 -7 -85 -16 -85 -20 0 -16 42 -20
96 -9 31 7 58 9 61 6 9 -8 -75 -113 -126 -157 -41 -36 -43 -39 -16 -29 37 14
92 55 124 93 13 15 25 26 28 23 2 -2 -1 -49 -7 -105 -11 -104 -4 -146 24 -135
9 4 15 39 20 127 4 66 9 123 11 125 2 3 18 -7 35 -22 39 -32 52 -33 48 -3 -2
16 -15 26 -45 37 -33 11 -43 20 -43 36 0 24 17 34 61 34 16 0 29 5 29 10 0 6
-18 10 -40 10 -39 0 -40 1 -41 38 -1 20 -1 40 0 45 0 4 -5 7 -11 8 -23 1 26
18 55 18 28 1 47 25 31 41 -16 15 -61 22 -69 11z"/>
  <path d="M625 229 c-22 -4 -62 -8 -90 -8 l-50 -1 0 -84 c0 -56 4 -89 13 -98
10 -10 14 -10 21 1 6 9 35 16 84 19 70 4 75 3 82 -17 7 -24 21 -27 40 -7 19
18 23 170 5 191 -13 16 -42 17 -105 4z m70 -44 c0 -18 -10 -21 -83 -29 -45 -5
-84 -7 -87 -4 -2 2 -2 14 1 25 7 24 35 31 119 29 43 -1 50 -4 50 -21z m2 -73
c-2 -26 -4 -27 -82 -33 -85 -7 -99 -2 -93 27 3 16 16 20 76 26 41 3 76 9 79
12 12 11 22 -5 20 -32z"/>
</g>
<g id="part-1" class="char-part">
  <path d="M336 538 c-14 -11 -57 -33 -94 -49 -86 -37 -49 -39 69 -4 118 35 113
33 100 49 -19 23 -46 24 -75 4z"/>
</g>
<g id="part-2" class="char-part">
  <path d="M298 483 c-14 -4 -16 -12 -11 -53 l6 -48 -92 -13 c-50 -7 -91 -16
-91 -20 0 -14 57 -20 101 -10 24 6 47 11 52 11 31 1 -41 -97 -118 -162 -37
-30 -43 -39 -25 -33 48 14 81 36 125 82 25 25 45 42 45 37 0 -5 -5 -51 -10
-102 -11 -100 -6 -142 15 -142 19 0 23 19 30 148 4 61 10 112 14 112 4 0 18
-11 31 -25 25 -27 45 -32 55 -15 10 17 -14 39 -56 52 -30 9 -39 16 -39 34 0
25 17 34 66 34 19 0 34 4 34 9 0 12 -41 21 -68 14 -20 -5 -22 -2 -22 35 0 42
-14 61 -42 55z"/>
</g>
<g id="part-3" class="char-part">
  <path d="M673 565 c31 -28 67 -33 67 -10 0 19 -31 35 -67 35 l-28 -1 28 -24z"/>
</g>
<g id="part-4" class="char-part">
  <path d="M610 442 c0 -47 27 -62 109 -62 60 0 99 8 119 26 2 1 -6 16 -19 33
l-23 31 -12 -30 c-13 -29 -15 -30 -80 -30 l-66 0 4 30 c4 24 1 30 -14 30 -13
0 -18 -8 -18 -28z"/>
</g>
<g id="part-5" class="char-part">
  <path d="M680 230 c12 -9 7 -10 -19 -5 -25 5 -32 4 -26 -5 5 -8 21 -10 44 -7
31 4 37 2 37 -14 0 -11 -4 -19 -9 -19 -4 0 -2 -6 5 -14 11 -12 14 -10 20 12 9
30 -4 46 -42 57 -20 5 -22 4 -10 -5z"/>
  <path d="M488 193 c9 -21 9 -99 -1 -109 -3 -4 -2 -15 4 -26 8 -15 13 -17 25
-7 10 8 11 15 4 24 -7 8 -7 21 -1 38 7 17 7 28 1 32 -18 11 -10 46 13 55 19 8
17 9 -16 9 -33 1 -37 -1 -29 -16z"/>
  <path d="M634 151 c3 -5 15 -7 26 -4 28 7 25 13 -6 13 -14 0 -23 -4 -20 -9z"/>
  <path d="M698 148 c14 -18 3 -78 -15 -78 -10 0 -9 -5 6 -21 26 -29 41 -16 41
34 -1 39 -18 77 -35 77 -4 0 -3 -6 3 -12z"/>
  <path d="M575 140 c3 -5 12 -7 20 -3 21 7 19 13 -6 13 -11 0 -18 -4 -14 -10z"/>
  <path d="M630 70 c19 -13 30 -13 30 0 0 6 -10 10 -22 10 -19 0 -20 -2 -8 -10z"/>
</g>
</g>
</svg>