<?xml version="1.0" standalone="no"?>
<!DOCTYPE svg PUBLIC "-//W3C//DTD SVG 20010904//EN"
 "http://www.w3.org/TR/2001/REC-SVG-20010904/DTD/svg10.dtd">
<svg version="1.0" xmlns="http://www.w3.org/2000/svg"
 width="96.000000pt" height="68.000000pt" viewBox="0 0 96.000000 68.000000"
 preserveAspectRatio="xMidYMid meet">
<metadata>
Created by potrace 1.16, written by Peter Selinger 2001-2019
Combined from part_0.svg through part_5.svg with named groups
</metadata>
<g transform="translate(0.000000,68.000000) scale(0.100000,-0.100000)" fill="#000000" stroke="none">
<g id="part-0" class="char-part">
  <path d="M550 590 c0 -23 -7 -54 -15 -70 -12 -24 -23 -30 -62 -35 -97 -13
-108 -16 -88 -27 9 -6 39 -8 66 -6 27 3 49 2 49 -2 0 -19 -68 -106 -111 -142
-27 -23 -47 -43 -44 -46 3 -3 27 9 55 26 29 18 52 27 56 21 3 -5 3 -32 -1 -60
-5 -34 -3 -54 6 -65 19 -23 29 1 29 73 0 34 3 64 8 67 4 2 24 7 45 11 l37 7 0
-138 c0 -130 8 -179 26 -161 5 4 11 74 15 155 4 81 8 148 8 150 1 1 21 2 46 2
36 0 45 -4 46 -17 1 -10 3 -31 5 -48 2 -16 2 -40 -1 -53 -5 -20 -10 -22 -43
-17 -32 5 -35 4 -18 -7 10 -7 26 -21 35 -30 42 -48 76 -5 84 105 5 71 4 78
-15 88 -13 7 -43 9 -81 4 -57 -6 -59 -5 -54 14 3 15 -1 25 -15 32 -31 17 -49
4 -42 -30 6 -28 4 -29 -36 -36 -23 -4 -44 -5 -47 -2 -3 3 12 31 33 61 44 62
43 62 186 71 103 7 126 17 83 37 -19 9 -40 9 -89 0 -35 -7 -78 -12 -95 -12
l-31 0 21 42 21 42 -22 18 c-36 29 -50 23 -50 -22z"/>
  <path d="M312 557 c-28 -66 -55 -104 -134 -184 -80 -82 -54 -84 51 -5 l31 23
0 -74 c0 -40 -5 -99 -11 -131 -13 -62 -2 -106 25 -106 19 0 25 31 35 185 6 97
5 124 -7 142 -15 25 -20 16 72 129 34 41 28 67 -15 72 -22 3 -28 -4 -47 -51z"/>
</g>
<g id="part-1" class="char-part">
  <path d="M322 569 c-17 -53 -58 -113 -135 -196 -64 -68 -50 -71 30 -7 26 22
44 30 48 23 9 -13 -3 -162 -16 -215 -12 -46 0 -84 26 -84 17 0 22 30 30 186 5
102 3 123 -10 134 -14 12 -14 15 3 34 10 12 36 45 57 75 40 57 39 83 -1 89
-15 2 -22 -7 -32 -39z"/>
</g>
<g id="part-2" class="char-part">
  <path d="M548 598 c2 -19 -3 -51 -11 -70 -14 -34 -18 -37 -74 -43 -32 -4 -67
-9 -77 -12 -36 -10 11 -25 65 -21 27 1 49 0 49 -3 0 -15 -68 -99 -119 -146
-31 -29 -51 -53 -45 -53 6 0 39 19 73 42 55 37 86 72 157 176 1 2 59 9 128 16
69 6 128 15 132 19 4 3 -6 12 -22 18 -22 9 -50 8 -121 -3 -104 -16 -105 -15
-76 47 19 40 13 52 -33 61 -29 6 -30 5 -26 -28z"/>
</g>
<g id="part-3" class="char-part">
  <path d="M578 243 c3 -172 10 -219 29 -200 3 4 10 79 14 168 5 88 11 169 14
179 4 13 -1 22 -14 29 -46 25 -46 22 -43 -176z"/>
</g>
<g id="part-4" class="char-part">
  <path d="M588 361 c-59 -9 -111 -20 -116 -26 -14 -15 -23 -138 -12 -155 15
-24 25 -2 30 73 5 68 6 71 35 79 17 4 68 9 115 10 l85 3 0 -65 0 -65 -34 2
-34 1 32 -29 c59 -53 78 -36 91 82 14 120 12 121 -192 90z"/>
</g>
</g>
</svg>