<?xml version="1.0" standalone="no"?>
<!DOCTYPE svg PUBLIC "-//W3C//DTD SVG 20010904//EN"
 "http://www.w3.org/TR/2001/REC-SVG-20010904/DTD/svg10.dtd">
<svg version="1.0" xmlns="http://www.w3.org/2000/svg"
 width="96.000000pt" height="68.000000pt" viewBox="0 0 96.000000 68.000000"
 preserveAspectRatio="xMidYMid meet">
<metadata>
Created by potrace 1.16, written by Peter Selinger 2001-2019
Combined from part_0.svg through part_5.svg with named groups
</metadata>
<g transform="translate(0.000000,68.000000) scale(0.100000,-0.100000)" fill="#000000" stroke="none">
<g id="part-0" class="char-part">
  <path d="M538 573 l-3 -58 -40 -6 c-37 -6 -22 -14 18 -10 13 2 17 -5 17 -29 0
-35 -4 -37 -82 -43 -51 -3 -58 -1 -58 14 0 15 -27 39 -43 39 -3 0 -17 -21 -32
-46 -15 -25 -28 -44 -30 -42 -2 2 1 39 6 83 5 44 5 83 1 87 -4 4 -21 10 -37
14 l-30 6 0 -154 c0 -187 -12 -232 -87 -313 -54 -60 -45 -73 18 -26 48 35 66
56 91 104 l19 37 34 -29 c40 -34 55 -38 64 -15 9 22 -10 43 -57 61 -36 15 -38
18 -33 46 3 16 6 38 6 47 0 11 20 31 50 49 40 25 54 29 74 21 13 -5 39 -7 57
-5 105 13 294 24 315 19 13 -3 36 -3 51 1 l28 7 -25 13 c-17 10 -42 12 -78 8
-48 -5 -52 -4 -46 13 4 10 14 27 23 37 13 16 13 19 1 27 -20 13 -70 12 -109
-1 -41 -14 -46 -9 -31 37 11 33 11 39 -6 51 -34 25 -43 16 -46 -44z m132 -86
c0 -34 -19 -47 -67 -47 -42 0 -43 1 -37 28 10 41 12 42 60 42 39 0 44 -2 44
-23z"/>
  <path d="M110 401 c0 -7 9 -30 20 -51 25 -49 60 -56 60 -12 0 16 -6 36 -12 45
-16 20 -68 34 -68 18z"/>
  <path d="M552 386 c-68 -7 -100 -14 -94 -21 5 -5 15 -28 22 -50 7 -22 15 -34
17 -27 3 6 20 12 38 12 25 0 34 -5 38 -22 9 -33 1 -38 -65 -38 -50 0 -59 -3
-54 -16 3 -8 -1 -29 -10 -46 -23 -45 -12 -62 34 -53 20 4 51 8 67 9 30 1 30 1
33 -61 4 -87 32 -82 32 5 0 20 4 42 8 49 5 7 39 13 87 15 105 4 104 22 -2 26
l-83 3 0 29 c0 30 1 30 55 30 30 0 55 5 55 10 0 6 -25 10 -56 10 -54 0 -55 1
-52 26 2 21 9 28 30 30 24 2 78 46 78 63 0 8 -51 31 -64 29 -6 0 -57 -6 -114
-12z m116 -33 c-4 -20 -39 -30 -115 -32 -46 -1 -53 2 -53 18 0 23 18 28 108
30 55 1 63 -1 60 -16z m-93 -163 c0 -23 -4 -25 -47 -28 -50 -3 -57 4 -42 43 5
12 17 15 48 13 36 -3 41 -6 41 -28z"/>
</g>
<g id="part-1" class="char-part">
  <path d="M223 548 c15 -63 17 -122 8 -212 -12 -114 -42 -187 -97 -235 -22 -20
-29 -31 -19 -31 25 0 107 82 127 128 l19 43 37 -31 c42 -35 62 -38 62 -11 0
13 -14 25 -45 38 -37 15 -45 23 -45 44 0 66 11 85 66 118 57 34 61 40 42 59
-21 21 -45 13 -58 -18 -7 -16 -18 -35 -26 -41 -12 -9 -14 -3 -14 37 0 27 4 64
9 82 8 27 7 34 -9 42 -10 6 -28 10 -40 10 -18 0 -21 -4 -17 -22z"/>
  <path d="M110 403 c1 -20 47 -88 60 -88 19 0 17 53 -2 71 -17 15 -58 28 -58
17z"/>
</g>
<g id="part-2" class="char-part">
  <path d="M542 613 c3 -11 3 -38 -1 -59 -6 -36 -9 -39 -46 -45 l-40 -6 38 -2
c34 -1 37 -3 37 -31 0 -41 27 -39 38 3 8 30 11 32 56 35 l48 3 -6 -35 c-6 -29
-4 -34 11 -32 10 2 23 13 29 25 7 13 17 28 23 34 17 17 14 23 -17 36 -23 10
-38 9 -76 -4 -26 -9 -49 -15 -51 -13 -2 2 1 23 7 46 12 49 13 48 -26 58 -26 6
-28 5 -24 -13z"/>
</g>
<g id="part-3" class="char-part">
  <path d="M645 445 c-71 -7 -156 -13 -187 -14 -32 -1 -58 -5 -58 -10 0 -17 32
-21 105 -10 41 5 132 11 204 12 71 1 133 5 137 9 7 8 -40 29 -59 26 -7 0 -70
-7 -142 -13z"/>
</g>
<g id="part-4" class="char-part">
  <path d="M573 273 c2 -28 2 -28 -66 -31 -57 -2 -67 -5 -57 -17 9 -10 7 -21 -5
-45 -19 -37 -14 -61 12 -56 10 2 42 7 71 11 l52 7 0 -66 c0 -98 25 -86 32 14
l3 45 82 5 c46 3 83 10 83 15 0 6 -36 11 -83 13 l-83 3 4 29 c4 29 6 30 58 30
30 0 54 5 54 10 0 6 -24 10 -54 10 -49 0 -55 2 -58 23 -2 14 -11 23 -25 25
-18 3 -22 -1 -20 -25z m7 -77 c0 -31 -4 -33 -60 -37 -40 -3 -45 -1 -42 16 6
33 23 45 63 45 35 0 39 -3 39 -24z"/>
</g>
</g>
</svg>