<?xml version="1.0" standalone="no"?>
<!DOCTYPE svg PUBLIC "-//W3C//DTD SVG 20010904//EN"
 "http://www.w3.org/TR/2001/REC-SVG-20010904/DTD/svg10.dtd">
<svg version="1.0" xmlns="http://www.w3.org/2000/svg"
 width="96.000000pt" height="68.000000pt" viewBox="0 0 96.000000 68.000000"
 preserveAspectRatio="xMidYMid meet">
<metadata>
Created by potrace 1.16, written by Peter Selinger 2001-2019
Combined from part_0.svg through part_5.svg with named groups
</metadata>
<g transform="translate(0.000000,68.000000) scale(0.100000,-0.100000)" fill="#000000" stroke="none">
<g id="part-0" class="char-part">
  <path d="M262 563 c-14 -51 -64 -140 -107 -188 -14 -17 -35 -42 -46 -57 -34
-47 3 -34 64 22 37 34 56 46 60 37 6 -15 -9 -195 -19 -239 -4 -18 -1 -37 10
-53 37 -56 46 -29 56 165 6 127 5 158 -7 171 -12 15 -9 25 29 84 l42 68 -23
18 c-35 29 -46 23 -59 -28z"/>
  <path d="M610 545 c-41 -7 -122 -18 -179 -25 -87 -11 -102 -15 -88 -25 15 -11
17 -34 17 -169 0 -163 5 -185 44 -217 41 -34 99 -42 259 -37 149 5 187 11 187
29 0 17 -50 21 -113 10 -94 -16 -262 -14 -296 4 -35 18 -41 37 -41 148 0 118
18 225 39 231 9 3 75 10 146 16 72 6 145 12 162 14 44 4 51 13 19 26 -33 12
-58 11 -156 -5z"/>
  <path d="M630 469 c-25 -5 -71 -12 -103 -15 -41 -5 -54 -10 -48 -18 5 -6 15
-33 21 -59 11 -40 16 -47 37 -47 20 0 24 -4 21 -22 -3 -20 -11 -24 -66 -31
-38 -6 -60 -13 -56 -19 4 -6 24 -8 45 -5 22 3 42 1 45 -4 3 -5 0 -9 -5 -9 -23
0 -10 -20 17 -26 54 -12 57 -14 36 -29 -11 -7 -37 -16 -57 -20 -39 -8 -51 -25
-17 -25 10 0 44 9 74 21 l55 20 41 -21 c41 -21 78 -21 65 0 -3 6 -22 18 -41
28 l-34 17 25 38 c23 33 30 37 70 37 25 0 45 5 45 10 0 7 -20 10 -48 9 -26 -1
-57 3 -70 10 -18 10 -22 9 -22 -4 0 -10 -10 -15 -32 -15 -28 0 -33 3 -33 25 0
23 4 25 46 25 43 0 46 2 61 38 31 70 32 89 6 96 -13 3 -25 5 -28 5 -3 -1 -25
-5 -50 -10z m50 -31 c0 -22 -5 -23 -80 -26 -140 -4 -86 36 63 47 11 1 17 -6
17 -21z m-10 -59 c0 -16 -8 -19 -50 -20 -27 -1 -58 -2 -67 -3 -10 0 -19 6 -21
15 -2 12 11 18 60 25 72 11 78 10 78 -17z m-20 -115 c0 -26 -24 -44 -59 -44
-48 0 -56 8 -29 31 19 17 88 27 88 13z"/>
</g>
<g id="part-1" class="char-part">
  <path d="M265 563 c-8 -47 -69 -153 -125 -215 -58 -66 -31 -60 41 9 l59 56 0
-59 c0 -32 -5 -99 -11 -147 -12 -96 -7 -137 16 -137 20 0 23 18 30 188 6 115
4 156 -5 167 -10 12 -5 27 28 82 44 71 43 93 -3 93 -18 0 -24 -7 -30 -37z"/>
</g>
<g id="part-2" class="char-part">
  <path d="M508 532 c-98 -13 -178 -29 -178 -33 0 -5 7 -9 15 -9 13 0 15 -24 15
-155 0 -191 8 -216 76 -247 44 -19 61 -20 221 -16 119 3 177 8 185 16 20 20
-10 34 -57 27 -22 -2 -100 -8 -172 -11 -147 -7 -188 1 -204 43 -13 34 -11 173
3 265 13 90 1 83 173 98 212 20 212 20 190 36 -24 18 -54 17 -267 -14z"/>
</g>
<g id="part-3" class="char-part">
  <path d="M605 464 c-38 -8 -85 -11 -102 -8 -38 6 -38 6 -18 -32 8 -16 15 -36
15 -45 0 -8 6 -23 13 -33 11 -15 23 -16 94 -10 l81 7 21 50 c12 27 21 55 21
62 0 11 -35 27 -50 24 -3 -1 -36 -8 -75 -15z m73 -29 c2 -18 -4 -20 -78 -22
-61 -2 -80 0 -80 11 0 9 22 17 63 23 80 13 91 12 95 -12z m-8 -49 c0 -21 -7
-23 -75 -27 -50 -3 -60 -1 -63 13 -2 13 6 18 35 21 85 8 103 7 103 -7z"/>
</g>
<g id="part-4" class="char-part">
  <path d="M558 308 c-3 -20 -12 -24 -68 -34 -51 -8 -60 -12 -42 -18 12 -4 36
-5 52 -1 19 4 30 3 30 -4 0 -6 -4 -11 -10 -11 -22 0 -8 -20 18 -26 54 -12 57
-13 36 -29 -10 -8 -26 -15 -34 -15 -8 -1 -28 -7 -45 -16 l-30 -14 46 5 c26 2
63 12 83 22 35 16 37 16 75 -5 45 -25 61 -28 61 -9 0 8 -16 22 -35 33 -19 10
-35 20 -35 23 0 2 11 19 26 38 23 30 30 33 77 33 38 0 48 3 37 10 -8 6 -35 10
-60 9 -25 0 -56 3 -69 7 -17 5 -22 4 -17 -4 5 -8 -4 -12 -27 -12 -30 0 -34 3
-30 20 4 15 0 20 -15 20 -14 0 -22 -8 -24 -22z m92 -48 c0 -21 -39 -48 -62
-43 -51 11 -52 12 -33 33 19 21 95 29 95 10z"/>
</g>
</g>
</svg>