<?xml version="1.0" standalone="no"?>
<!DOCTYPE svg PUBLIC "-//W3C//DTD SVG 20010904//EN"
 "http://www.w3.org/TR/2001/REC-SVG-20010904/DTD/svg10.dtd">
<svg version="1.0" xmlns="http://www.w3.org/2000/svg"
 width="96.000000pt" height="68.000000pt" viewBox="0 0 96.000000 68.000000"
 preserveAspectRatio="xMidYMid meet">
<metadata>
Created by potrace 1.16, written by Peter Selinger 2001-2019
Combined from part_0.svg through part_5.svg with named groups
</metadata>
<g transform="translate(0.000000,68.000000) scale(0.100000,-0.100000)" fill="#000000" stroke="none">
<g id="part-0" class="char-part">
  <path d="M439 601 l21 -28 -48 -6 c-26 -3 -84 -9 -130 -13 -45 -4 -85 -10 -88
-15 -11 -18 56 -22 196 -11 80 6 191 15 248 18 56 4 105 11 108 15 12 20 -53
31 -143 24 -80 -6 -93 -5 -93 9 0 19 -30 36 -65 36 l-26 0 20 -29z"/>
  <path d="M545 520 c-22 -5 -83 -12 -135 -16 l-95 -7 20 -63 c22 -69 22 -69 98
-48 12 4 17 0 17 -14 0 -22 -48 -32 -146 -32 -34 0 -54 -4 -54 -11 0 -8 25
-10 87 -6 87 5 87 5 62 -14 -13 -10 -45 -29 -71 -41 -27 -12 -48 -25 -48 -30
0 -9 106 29 135 48 29 21 35 17 35 -21 0 -24 5 -35 15 -35 11 0 15 12 15 49 0
59 3 61 145 61 78 0 96 3 87 12 -9 9 -45 12 -122 10 -96 -3 -110 -1 -110 13 0
13 10 16 59 13 33 -1 61 0 64 2 8 10 48 112 45 115 -10 8 -48 25 -55 24 -4 -1
-26 -5 -48 -9z m31 -57 c-2 -27 -5 -49 -5 -50 -1 -2 -21 -3 -46 -3 -59 0 -61
23 -2 37 l42 11 -37 1 c-31 1 -38 5 -38 20 0 16 8 21 43 24 23 2 43 4 45 5 2
1 1 -19 -2 -45z m-126 7 c0 -17 -6 -20 -45 -20 -31 0 -45 4 -45 13 0 20 4 22
49 25 35 2 41 0 41 -18z m4 -45 c3 -10 -3 -17 -19 -21 -34 -8 -59 -1 -63 19
-3 14 4 17 36 17 26 0 42 -5 46 -15z"/>
  <path d="M530 315 c0 -8 130 -75 144 -75 24 0 19 28 -6 41 -22 12 -138 40
-138 34z"/>
  <path d="M355 208 c-22 -21 -80 -59 -130 -83 -49 -25 -82 -45 -73 -45 22 0
127 39 153 56 41 29 48 19 43 -56 -3 -39 -1 -73 4 -76 9 -6 109 59 130 84 7 8
-9 2 -34 -12 -26 -14 -49 -26 -52 -26 -3 0 -6 25 -6 55 0 30 -4 55 -10 55 -21
0 -9 20 21 35 19 10 29 22 27 33 -5 28 -31 21 -73 -20z"/>
  <path d="M559 207 c-25 -29 -28 -30 -57 -18 -48 20 -57 8 -15 -20 21 -14 70
-47 108 -74 70 -47 70 -47 138 -42 82 5 108 22 51 32 -124 22 -234 58 -234 77
0 4 18 15 40 24 43 17 47 23 28 42 -18 18 -30 14 -59 -21z"/>
</g>
<g id="part-1" class="char-part">
  <path d="M430 623 c0 -3 7 -14 16 -24 9 -10 13 -22 10 -27 -3 -5 -51 -13 -105
-16 -55 -4 -113 -11 -128 -15 l-28 -8 35 -7 c19 -4 73 -3 120 3 47 6 148 13
225 17 154 7 188 16 140 34 -21 8 -53 8 -115 1 -107 -14 -100 -14 -100 7 0 11
-11 24 -25 30 -29 13 -45 15 -45 5z"/>
</g>
<g id="part-2" class="char-part">
  <path d="M535 518 c-22 -5 -84 -10 -137 -11 -54 -1 -98 -4 -98 -8 0 -3 6 -11
13 -17 6 -7 19 -34 27 -60 15 -46 16 -47 50 -42 19 3 74 5 122 5 l86 0 26 53
c14 29 26 56 26 61 0 8 -55 32 -69 30 -3 -1 -24 -5 -46 -11z m45 -38 c0 -17
-7 -20 -45 -20 -38 0 -45 3 -45 20 0 17 7 20 45 20 38 0 45 -3 45 -20z m-132
-12 c3 -15 -4 -18 -42 -18 -33 0 -46 4 -46 14 0 28 83 31 88 4z m132 -22 c0
-25 -16 -36 -56 -36 -48 0 -64 25 -21 33 31 6 77 8 77 3z m-132 -24 c-4 -23
-71 -24 -76 -1 -2 12 7 16 38 17 35 2 41 -1 38 -16z"/>
</g>
<g id="part-3" class="char-part">
  <path d="M453 371 c-5 -20 -60 -31 -155 -31 -29 0 -48 -5 -48 -11 0 -8 26 -10
84 -7 80 4 83 4 63 -13 -12 -9 -49 -31 -82 -48 -53 -28 -56 -31 -25 -25 28 5
88 29 153 62 4 2 7 -12 7 -32 0 -35 12 -47 25 -26 3 6 6 28 7 49 0 48 7 51
143 51 78 0 96 3 87 12 -9 9 -45 12 -122 10 -94 -3 -110 -1 -110 13 0 21 -21
19 -27 -4z"/>
  <path d="M530 315 c0 -8 130 -75 144 -75 24 0 19 28 -6 41 -22 12 -138 40
-138 34z"/>
</g>
<g id="part-4" class="char-part">
  <path d="M562 205 c-22 -35 -23 -35 -52 -20 -16 8 -39 15 -52 15 -20 0 -18 -3
14 -23 21 -12 72 -46 114 -74 68 -48 81 -53 127 -53 29 1 65 7 82 14 29 12 27
13 -57 30 -98 19 -190 54 -185 69 1 5 22 17 45 26 41 16 42 18 24 34 -26 24
-34 22 -60 -18z"/>
  <path d="M355 163 c-13 -4 -13 -155 0 -160 6 -2 42 19 80 47 77 56 79 62 5 25
l-50 -25 0 54 c0 52 -10 68 -35 59z"/>
</g>
</g>
</svg>