<?xml version="1.0" standalone="no"?>
<!DOCTYPE svg PUBLIC "-//W3C//DTD SVG 20010904//EN"
 "http://www.w3.org/TR/2001/REC-SVG-20010904/DTD/svg10.dtd">
<svg version="1.0" xmlns="http://www.w3.org/2000/svg"
 width="96.000000pt" height="68.000000pt" viewBox="0 0 96.000000 68.000000"
 preserveAspectRatio="xMidYMid meet">
<metadata>
Created by potrace 1.16, written by Peter Selinger 2001-2019
Combined from part_0.svg through part_5.svg with named groups
</metadata>
<g transform="translate(0.000000,68.000000) scale(0.100000,-0.100000)" fill="#000000" stroke="none">
<g id="part-0" class="char-part">
  <path d="M460 589 c0 -6 15 -26 33 -43 l32 -33 -120 -12 c-66 -7 -124 -16
-128 -20 -4 -4 -1 -14 8 -21 48 -40 -17 -285 -99 -372 -26 -27 -33 -48 -17
-48 4 0 30 19 56 42 58 51 98 135 120 251 9 45 18 92 20 103 6 26 25 30 240
45 174 12 202 19 165 39 -26 14 -64 15 -150 5 -60 -7 -60 -7 -60 19 0 18 -8
30 -30 41 -34 18 -70 20 -70 4z"/>
  <path d="M610 452 c0 -4 5 -13 10 -18 16 -16 23 -106 11 -137 -9 -24 -15 -27
-38 -21 l-28 7 25 -29 c14 -16 28 -33 32 -38 4 -5 18 -2 32 8 25 16 26 20 26
120 0 85 -3 105 -16 110 -22 9 -54 7 -54 -2z"/>
  <path d="M140 412 c0 -17 63 -82 80 -82 22 0 33 26 21 49 -12 22 -101 52 -101
33z"/>
  <path d="M410 412 c0 -14 40 -52 55 -52 25 0 17 36 -10 48 -30 14 -45 15 -45
4z"/>
  <path d="M757 351 c46 -45 83 -54 83 -20 0 21 -35 41 -96 54 -29 7 -29 6 13
-34z"/>
  <path d="M513 323 c-12 -26 -20 -49 -18 -51 8 -8 45 20 66 49 18 26 19 33 8
40 -25 16 -34 10 -56 -38z"/>
  <path d="M370 312 c0 -17 49 -54 64 -49 21 8 11 32 -20 46 -30 13 -44 14 -44
3z"/>
  <path d="M215 290 c-16 -11 -46 -25 -65 -31 -19 -6 -41 -13 -49 -15 -11 -4
-10 -8 4 -24 26 -29 40 -25 101 27 69 60 75 87 9 43z"/>
  <path d="M720 269 c0 -47 -97 -143 -237 -236 -49 -33 70 21 132 60 41 25 165
151 165 168 0 17 -19 29 -46 29 -8 0 -14 -9 -14 -21z"/>
  <path d="M449 204 c-13 -14 -40 -34 -61 -45 -34 -17 -36 -20 -25 -44 7 -14 17
-25 23 -25 11 0 98 130 91 136 -2 2 -14 -8 -28 -22z"/>
</g>
<g id="part-1" class="char-part">
  <path d="M470 586 c0 -21 49 -68 68 -64 30 6 25 36 -10 58 -38 23 -58 26 -58
6z"/>
  <path d="M475 505 c-104 -13 -191 -24 -193 -24 -1 -1 5 -12 14 -26 14 -21 15
-35 5 -107 -12 -91 -49 -181 -107 -259 -20 -27 -32 -49 -27 -49 5 0 32 23 60
51 63 62 96 138 120 274 14 81 20 96 37 101 12 2 101 11 198 18 169 12 200 17
185 32 -15 15 -113 11 -292 -11z"/>
  <path d="M158 394 c17 -32 53 -65 65 -61 18 5 20 42 4 55 -8 7 -29 15 -47 18
-29 6 -31 5 -22 -12z"/>
  <path d="M215 286 c-22 -13 -57 -29 -77 -35 -25 -9 -35 -17 -31 -27 11 -28 51
-14 105 36 29 27 51 49 48 50 -3 0 -23 -11 -45 -24z"/>
</g>
<g id="part-2" class="char-part">
  <path d="M411 403 c34 -45 69 -57 69 -23 0 22 -28 40 -61 40 -19 0 -20 -2 -8
-17z"/>
  <path d="M370 313 c0 -18 49 -56 64 -50 32 12 12 40 -37 52 -15 4 -27 3 -27
-2z"/>
  <path d="M427 190 c-26 -21 -53 -40 -59 -42 -15 -5 -2 -58 15 -58 12 0 103
128 96 135 -2 2 -25 -14 -52 -35z"/>
</g>
<g id="part-3" class="char-part">
  <path d="M610 452 c0 -4 5 -13 11 -19 13 -13 21 -107 12 -141 -5 -20 -10 -23
-35 -18 l-30 6 29 -34 c33 -40 44 -43 66 -18 24 27 25 217 1 226 -22 9 -54 7
-54 -2z"/>
  <path d="M757 351 c46 -45 83 -54 83 -21 0 22 -36 44 -90 54 l-35 7 42 -40z"/>
  <path d="M512 323 c-12 -25 -20 -48 -18 -50 9 -9 45 18 67 48 18 26 19 33 8
40 -25 16 -34 10 -57 -38z"/>
</g>
<g id="part-4" class="char-part">
  <path d="M720 261 c-12 -47 -88 -124 -190 -193 -48 -33 -65 -49 -48 -44 50 12
150 78 225 149 78 74 89 102 46 118 -20 7 -24 4 -33 -30z"/>
</g>
</g>
</svg>