<?xml version="1.0" standalone="no"?>
<!DOCTYPE svg PUBLIC "-//W3C//DTD SVG 20010904//EN"
 "http://www.w3.org/TR/2001/REC-SVG-20010904/DTD/svg10.dtd">
<svg version="1.0" xmlns="http://www.w3.org/2000/svg"
 width="96.000000pt" height="68.000000pt" viewBox="0 0 96.000000 68.000000"
 preserveAspectRatio="xMidYMid meet">
<metadata>
Created by potrace 1.16, written by Peter Selinger 2001-2019
Combined from part_0.svg through part_5.svg with named groups
</metadata>
<g transform="translate(0.000000,68.000000) scale(0.100000,-0.100000)" fill="#000000" stroke="none">
<g id="part-0" class="char-part">
  <path d="M410 605 c0 -9 6 -26 14 -38 8 -12 17 -39 20 -60 4 -21 9 -44 12 -52
4 -9 -7 -15 -33 -19 -21 -3 -77 -11 -125 -18 -86 -12 -104 -20 -73 -32 11 -4
15 -21 15 -65 0 -72 -22 -143 -59 -191 -45 -58 -47 -64 -15 -47 36 19 64 51
89 103 l20 42 77 7 c43 3 80 10 83 15 10 16 -37 21 -90 11 -27 -5 -52 -7 -55
-5 -5 6 -1 82 6 106 4 12 21 18 62 23 31 3 69 8 83 11 25 5 28 1 49 -63 13
-37 31 -85 42 -106 19 -37 19 -40 2 -58 -10 -11 -24 -17 -31 -14 -8 2 -11 0
-8 -5 3 -5 -22 -28 -57 -50 -44 -28 -57 -40 -42 -40 25 0 95 30 139 60 40 26
51 25 86 -9 41 -42 112 -79 165 -87 l46 -7 -8 59 c-4 32 -10 70 -14 84 l-7 25
-12 -30 c-6 -16 -14 -36 -16 -42 -10 -28 -61 -8 -118 47 -15 14 -27 29 -27 33
0 5 21 36 47 69 l48 60 -24 19 c-13 10 -34 19 -46 19 -19 0 -23 -5 -22 -32 1
-31 -27 -88 -42 -88 -10 0 -57 99 -65 136 l-7 31 63 9 c45 6 63 13 63 24 0 12
-14 15 -65 15 -36 -1 -68 4 -72 10 -4 5 -8 38 -8 72 0 59 -1 61 -31 72 -43 15
-59 14 -59 -4z"/>
  <path d="M611 563 c2 -5 23 -26 46 -47 46 -41 76 -44 81 -8 3 18 -4 26 -33 38
-49 20 -99 29 -94 17z"/>
</g>
<g id="part-1" class="char-part">
  <path d="M430 568 c10 -24 21 -64 25 -89 l7 -46 -81 -7 c-64 -6 -81 -11 -81
-23 0 -13 12 -15 88 -9 l88 7 17 -61 c10 -34 28 -83 42 -109 l24 -48 -51 -39
c-28 -21 -67 -49 -87 -61 -20 -12 -33 -23 -29 -23 16 0 95 35 141 63 l48 29
27 -23 c14 -13 32 -30 40 -37 30 -27 113 -62 148 -62 35 0 36 1 29 28 -4 15
-10 50 -14 77 l-7 50 -12 -42 c-7 -23 -17 -45 -23 -48 -14 -9 -91 31 -123 64
l-28 30 46 60 c25 34 46 67 46 75 0 12 -40 36 -60 36 -6 0 -10 -14 -10 -31 0
-31 -34 -99 -49 -99 -8 0 -63 115 -75 157 -6 19 -1 22 64 33 38 6 70 16 70 21
0 16 -51 22 -96 12 -28 -6 -47 -7 -50 -1 -3 5 -8 39 -10 75 -4 71 -12 83 -56
83 l-27 0 19 -42z"/>
  <path d="M655 525 c46 -40 75 -45 75 -14 0 22 -51 49 -92 49 -21 -1 -19 -4 17
-35z"/>
</g>
<g id="part-2" class="char-part">
  <path d="M240 411 c-43 -6 -44 -7 -22 -19 19 -11 22 -21 22 -72 0 -74 -29
-153 -76 -208 -39 -46 -38 -50 6 -27 35 18 73 66 99 126 19 44 38 210 24 207
-5 0 -28 -4 -53 -7z"/>
</g>
<g id="part-3" class="char-part">
  <path d="M328 258 c-75 -16 -59 -32 23 -24 86 9 106 15 87 27 -16 11 -49 10
-110 -3z"/>
</g>
</g>
</svg>