<?xml version="1.0" standalone="no"?>
<!DOCTYPE svg PUBLIC "-//W3C//DTD SVG 20010904//EN"
 "http://www.w3.org/TR/2001/REC-SVG-20010904/DTD/svg10.dtd">
<svg version="1.0" xmlns="http://www.w3.org/2000/svg"
 width="96.000000pt" height="68.000000pt" viewBox="0 0 96.000000 68.000000"
 preserveAspectRatio="xMidYMid meet">
<metadata>
Created by potrace 1.16, written by Peter Selinger 2001-2019
Combined from part_0.svg through part_5.svg with named groups
</metadata>
<g transform="translate(0.000000,68.000000) scale(0.100000,-0.100000)" fill="#000000" stroke="none">
<g id="part-0" class="char-part">
  <path d="M549 616 c-3 -3 -1 -28 4 -54 15 -70 9 -78 -62 -86 -34 -4 -61 -11
-61 -16 0 -11 20 -13 86 -10 l40 1 3 -49 c2 -54 -7 -62 -76 -62 -18 0 -33 -2
-33 -3 0 -2 27 -31 60 -64 33 -33 60 -66 60 -74 0 -17 -68 -54 -145 -80 -38
-13 -44 -17 -24 -18 30 -1 126 30 167 54 27 16 28 16 71 -24 40 -37 50 -41 95
-41 57 0 96 8 96 20 0 4 -24 14 -52 20 -73 17 -151 57 -141 73 4 6 26 40 50
74 24 35 43 67 43 72 0 14 -40 21 -87 14 l-44 -6 3 54 3 54 73 3 c52 2 72 6
69 15 -2 8 -28 12 -73 12 l-69 0 0 60 c0 57 -1 60 -25 63 -14 2 -28 0 -31 -2z
m101 -290 c0 -23 -20 -69 -37 -88 -19 -21 -27 -16 -74 43 l-29 37 62 10 c35 5
66 10 71 11 4 0 7 -5 7 -13z"/>
  <path d="M237 542 c-51 -9 -86 -20 -84 -26 4 -13 95 -14 180 -2 47 6 57 11 57
27 0 23 -25 23 -153 1z"/>
  <path d="M255 435 c-50 -8 -101 -11 -115 -8 -25 6 -25 6 -6 -16 11 -12 32 -56
46 -99 15 -42 30 -86 34 -97 17 -43 16 -44 -41 -47 -64 -3 -78 -19 -33 -38 25
-11 39 -10 73 0 23 8 47 17 52 20 6 4 43 15 83 25 82 20 106 38 38 29 -26 -4
-46 -4 -46 -2 0 3 12 26 26 52 22 39 23 47 11 52 -13 5 -11 14 13 60 l28 54
-21 15 c-25 17 -22 17 -142 0z m93 -50 c-2 -37 -6 -39 -93 -50 -48 -7 -52 -6
-63 19 -22 49 -17 54 56 61 37 4 72 8 77 9 19 6 26 -6 23 -39z m-13 -78 c3 -6
-3 -37 -12 -67 -16 -47 -22 -55 -45 -58 -25 -3 -28 0 -28 27 0 17 -11 42 -25
59 -14 17 -25 32 -25 35 0 3 15 8 33 10 67 8 98 7 102 -6z"/>
</g>
<g id="part-1" class="char-part">
  <path d="M263 541 c-50 -9 -95 -19 -99 -24 -4 -4 24 -7 62 -7 72 1 150 12 162
24 6 7 -17 27 -28 24 -3 0 -46 -8 -97 -17z"/>
</g>
<g id="part-2" class="char-part">
  <path d="M337 303 c-3 -10 -8 -35 -12 -55 -7 -43 -28 -68 -56 -68 -14 0 -19 7
-19 30 0 19 -11 41 -30 62 -35 39 -37 31 -11 -45 l20 -57 -60 0 c-61 0 -74
-11 -41 -36 20 -16 65 -18 90 -4 9 5 58 21 107 36 104 30 134 49 62 39 l-49
-8 26 51 c25 50 25 52 7 62 -26 13 -29 13 -34 -7z"/>
</g>
<g id="part-3" class="char-part">
  <path d="M547 593 c4 -15 8 -46 8 -68 l0 -40 -68 -10 c-81 -12 -78 -25 4 -25
63 0 69 -6 69 -67 0 -27 4 -34 18 -31 13 2 18 16 22 58 l5 55 70 3 c39 2 74 7
79 12 13 13 -38 23 -94 18 l-49 -5 -3 61 c-3 61 -3 61 -36 64 -31 3 -32 2 -25
-25z"/>
</g>
<g id="part-4" class="char-part">
  <path d="M558 351 c-60 -8 -108 -18 -108 -21 0 -4 10 -12 23 -19 13 -7 42 -36
65 -65 l41 -53 -49 -27 c-28 -15 -74 -36 -102 -46 -29 -10 -44 -19 -32 -19 28
-1 121 27 167 50 l37 20 39 -41 c36 -38 41 -40 92 -39 30 1 68 4 84 8 28 6 26
8 -40 30 -77 26 -145 58 -145 68 0 3 6 14 14 22 39 45 87 124 79 131 -16 17
-60 17 -165 1z m95 -17 c8 -8 -19 -73 -40 -96 -16 -18 -19 -17 -65 29 l-49 48
68 11 c37 7 71 12 74 13 3 0 8 -2 12 -5z"/>
</g>
</g>
</svg>