<?xml version="1.0" standalone="no"?>
<!DOCTYPE svg PUBLIC "-//W3C//DTD SVG 20010904//EN"
 "http://www.w3.org/TR/2001/REC-SVG-20010904/DTD/svg10.dtd">
<svg version="1.0" xmlns="http://www.w3.org/2000/svg"
 width="96.000000pt" height="68.000000pt" viewBox="0 0 96.000000 68.000000"
 preserveAspectRatio="xMidYMid meet">
<metadata>
Created by potrace 1.16, written by Peter Selinger 2001-2019
Combined from part_0.svg through part_5.svg with named groups
</metadata>
<g transform="translate(0.000000,68.000000) scale(0.100000,-0.100000)" fill="#000000" stroke="none">
<g id="part-0" class="char-part">
  <path d="M270 545 c0 -56 -55 -155 -142 -257 -29 -34 -43 -58 -35 -58 16 0 85
48 106 73 7 9 24 17 37 17 19 0 24 -5 24 -24 0 -21 -5 -25 -37 -28 -53 -4 -54
-26 -1 -30 l43 -3 3 -44 c2 -24 0 -47 -5 -52 -5 -5 -35 -11 -68 -14 -87 -9
-91 -12 -70 -35 10 -11 25 -20 34 -20 35 -1 241 75 241 89 0 9 -8 12 -27 8
-27 -5 -27 -5 7 23 26 22 32 32 24 40 -21 21 -47 6 -63 -37 -8 -24 -19 -43
-23 -43 -4 0 -8 22 -8 49 0 48 0 49 37 56 21 4 42 9 46 12 14 8 -15 23 -44 23
-40 0 -46 37 -8 45 16 4 31 11 34 15 10 16 -41 22 -85 10 -23 -6 -44 -10 -45
-8 -2 2 10 27 27 56 l30 52 35 -30 c37 -33 56 -35 61 -6 5 24 -14 44 -48 51
-26 6 -29 10 -24 35 5 22 1 31 -14 39 -28 15 -42 14 -42 -4z"/>
  <path d="M650 551 c0 -5 -11 -23 -25 -39 l-25 -30 38 -39 c20 -21 56 -60 80
-86 24 -26 49 -47 56 -47 25 0 76 13 76 19 0 3 -20 14 -44 24 -52 21 -128 76
-121 87 3 4 25 17 51 29 38 18 44 24 34 36 -19 22 -30 18 -64 -21 -29 -34 -33
-36 -54 -23 -29 18 -28 25 6 46 15 9 29 18 31 20 6 4 -20 33 -30 33 -5 0 -9
-4 -9 -9z"/>
  <path d="M483 508 c-18 -6 -33 -15 -33 -19 0 -5 12 -4 27 2 15 5 30 6 35 1 10
-10 -7 -62 -20 -62 -4 0 -17 7 -28 15 -29 19 -37 8 -13 -18 10 -11 19 -25 19
-29 0 -5 -18 -27 -40 -49 -61 -62 -51 -64 22 -6 20 16 50 48 65 71 15 22 36
49 45 60 36 39 -6 57 -79 34z"/>
  <path d="M555 363 c-69 -7 -64 -23 7 -23 70 0 98 6 98 21 0 9 -28 9 -105 2z"/>
  <path d="M540 289 c-30 -5 -65 -6 -77 -4 -13 3 -23 1 -23 -5 0 -5 5 -10 10
-10 6 0 13 -8 17 -17 3 -10 19 -48 36 -86 16 -37 28 -70 25 -72 -3 -3 -35 -8
-72 -12 -36 -3 -66 -10 -66 -14 0 -15 65 -20 130 -10 36 6 120 11 187 11 67 0
124 4 127 9 12 18 -53 33 -119 27 l-67 -6 22 35 c16 26 19 39 11 48 -11 14 9
64 32 79 9 6 7 12 -7 23 -22 16 -78 18 -166 4z m110 -33 c0 -20 -7 -25 -44
-35 -67 -17 -94 -14 -101 10 -9 27 -5 30 57 39 87 12 88 12 88 -14z m-10 -93
c0 -49 -8 -59 -47 -68 -30 -6 -33 -4 -33 17 0 14 -12 35 -26 49 l-26 24 54 6
c29 3 59 6 66 7 8 1 12 -11 12 -35z"/>
  <path d="M180 196 c0 -18 49 -58 61 -50 19 11 9 45 -17 54 -35 13 -44 13 -44
-4z"/>
</g>
<g id="part-1" class="char-part">
  <path d="M270 528 c0 -39 -54 -140 -119 -221 -51 -64 -57 -76 -34 -63 15 8 44
30 62 50 40 42 76 47 85 14 9 -35 9 -35 -39 -43 -54 -8 -50 -25 6 -25 l39 0 0
-54 0 -54 -50 -11 c-28 -6 -62 -11 -75 -11 -33 0 -32 -18 1 -30 21 -8 42 -5
103 19 42 15 93 34 114 41 24 7 35 16 30 21 -6 6 -20 6 -37 -1 -15 -5 -32 -10
-37 -10 -14 0 -11 100 4 104 6 3 26 7 42 11 27 7 28 8 10 15 -11 5 -30 6 -43
3 -21 -5 -23 -2 -20 23 2 23 9 30 31 32 15 2 27 8 27 13 0 11 -43 11 -95 -1
-22 -5 -41 -8 -42 -6 -2 2 13 31 34 65 l36 62 33 -32 c21 -21 38 -29 49 -25
32 12 14 29 -73 73 -2 1 1 10 7 21 12 22 -3 42 -31 42 -12 0 -18 -8 -18 -22z"/>
  <path d="M348 205 c-9 -20 -13 -35 -10 -33 4 2 20 10 35 18 29 14 33 43 7 48
-10 1 -22 -11 -32 -33z"/>
  <path d="M180 200 c0 -10 40 -50 50 -50 16 0 22 20 11 34 -12 15 -61 28 -61
16z"/>
</g>
<g id="part-2" class="char-part">
  <path d="M485 504 l-40 -13 38 5 c27 4 37 1 37 -9 0 -24 -76 -133 -109 -157
-44 -31 -32 -37 16 -7 44 28 64 50 117 126 30 42 35 56 24 62 -18 12 -35 10
-83 -7z"/>
</g>
<g id="part-3" class="char-part">
  <path d="M600 486 c0 -2 37 -43 82 -90 52 -54 89 -86 102 -86 29 0 66 11 66
19 0 4 -26 19 -59 34 -32 15 -73 41 -91 57 -52 48 -100 80 -100 66z"/>
</g>
<g id="part-4" class="char-part">
  <path d="M649 194 c-5 -14 -7 -27 -8 -46 -2 -34 -14 -47 -49 -54 -28 -6 -32
-4 -32 14 0 23 -45 81 -55 70 -3 -3 3 -24 14 -46 l20 -40 -37 -6 c-20 -3 -54
-6 -74 -6 -21 0 -38 -4 -38 -10 0 -16 63 -21 135 -11 39 6 123 11 187 11 64 0
119 4 122 8 13 21 -44 35 -114 28 -38 -3 -70 -3 -70 0 0 3 11 20 25 36 14 16
23 33 20 38 -5 8 -44 21 -46 14z"/>
</g>
</g>
</svg>