<?xml version="1.0" standalone="no"?>
<!DOCTYPE svg PUBLIC "-//W3C//DTD SVG 20010904//EN"
 "http://www.w3.org/TR/2001/REC-SVG-20010904/DTD/svg10.dtd">
<svg version="1.0" xmlns="http://www.w3.org/2000/svg"
 width="96.000000pt" height="68.000000pt" viewBox="0 0 96.000000 68.000000"
 preserveAspectRatio="xMidYMid meet">
<metadata>
Created by potrace 1.16, written by Peter Selinger 2001-2019
Combined from part_0.svg through part_5.svg with named groups
</metadata>
<g transform="translate(0.000000,68.000000) scale(0.100000,-0.100000)" fill="#000000" stroke="none">
<g id="part-0" class="char-part">
  <path d="M362 583 c-24 -14 -68 -36 -98 -48 -64 -26 -57 -40 12 -25 37 9 49 8
56 -2 10 -16 11 -99 1 -96 -11 3 -153 -12 -180 -19 -13 -3 -20 -9 -17 -14 7
-12 78 -11 133 2 24 5 46 8 48 5 16 -16 -73 -116 -157 -176 -32 -23 -38 -30
-20 -25 37 11 116 63 162 107 l40 39 -8 -78 c-14 -127 -12 -177 7 -181 24 -4
29 17 35 142 3 61 7 112 8 113 1 1 19 -11 39 -28 22 -18 44 -28 53 -25 27 10
-1 41 -50 54 -41 11 -46 15 -46 41 0 28 2 29 61 36 72 9 67 29 -6 23 l-47 -3
6 47 c4 31 3 48 -4 48 -5 0 -10 4 -10 8 0 5 25 14 55 21 58 13 71 32 36 51
-31 16 -63 11 -109 -17z"/>
  <path d="M700 428 c-14 -5 -58 -10 -97 -11 -40 -1 -73 -4 -73 -7 0 -3 6 -14
14 -25 7 -11 19 -57 26 -102 10 -68 16 -83 30 -83 10 0 20 4 22 10 2 5 37 13
80 16 l76 7 6 42 c4 23 16 60 26 81 11 21 20 44 20 51 0 30 -78 43 -130 21z
m50 -46 c0 -16 -7 -52 -15 -80 -15 -49 -18 -52 -48 -52 -18 0 -42 -3 -53 -6
-20 -5 -23 0 -34 66 -7 40 -8 76 -4 80 9 8 52 15 122 18 29 2 32 -1 32 -26z"/>
</g>
<g id="part-1" class="char-part">
  <path d="M380 586 c-19 -13 -64 -35 -100 -49 -86 -35 -46 -36 86 -2 138 36
133 33 105 56 -30 24 -48 23 -91 -5z"/>
</g>
<g id="part-2" class="char-part">
  <path d="M336 476 c8 -63 11 -61 -111 -72 -44 -3 -87 -10 -95 -14 -28 -16 41
-24 114 -13 39 5 73 9 75 7 11 -9 -87 -119 -140 -156 -33 -23 -56 -44 -50 -46
17 -6 95 39 154 90 65 56 63 59 46 -74 -9 -68 -9 -95 0 -115 11 -23 14 -25 27
-11 11 10 17 48 21 136 l6 121 34 -29 c35 -31 57 -37 68 -20 11 18 -13 37 -60
50 -39 11 -45 16 -45 40 0 27 3 28 60 35 76 9 78 25 4 25 l-56 0 6 36 c8 42
-6 64 -40 64 -23 0 -24 -2 -18 -54z"/>
</g>
<g id="part-3" class="char-part">
  <path d="M665 424 c-33 -8 -77 -11 -97 -8 -43 7 -43 7 -24 -32 8 -16 19 -60
26 -99 15 -81 27 -103 44 -80 7 10 37 17 91 21 l80 7 0 37 c0 20 12 60 27 88
l27 52 -22 15 c-25 18 -70 17 -152 -1z m85 -41 c0 -16 -6 -50 -13 -78 l-13
-50 -50 -6 c-27 -3 -52 -5 -55 -3 -10 5 -32 134 -25 141 8 8 73 20 119 22 34
1 37 -1 37 -26z"/>
</g>
</g>
</svg>