<?xml version="1.0" standalone="no"?>
<!DOCTYPE svg PUBLIC "-//W3C//DTD SVG 20010904//EN"
 "http://www.w3.org/TR/2001/REC-SVG-20010904/DTD/svg10.dtd">
<svg version="1.0" xmlns="http://www.w3.org/2000/svg"
 width="96.000000pt" height="68.000000pt" viewBox="0 0 96.000000 68.000000"
 preserveAspectRatio="xMidYMid meet">
<metadata>
Created by potrace 1.16, written by Peter Selinger 2001-2019
Combined from part_0.svg through part_5.svg with named groups
</metadata>
<g transform="translate(0.000000,68.000000) scale(0.100000,-0.100000)" fill="#000000" stroke="none">
<g id="part-0" class="char-part">
  <path d="M400 606 c0 -8 15 -30 33 -49 l32 -35 -100 -5 c-78 -3 -102 -1 -108
9 -14 24 -24 16 -52 -41 -27 -56 -28 -85 -1 -85 17 0 56 46 56 66 0 10 15 14
55 14 30 0 55 -4 55 -10 0 -5 -18 -28 -40 -51 -22 -23 -38 -44 -36 -47 3 -2
24 10 48 27 65 46 74 54 87 79 9 16 21 22 46 22 35 0 35 0 35 -45 0 -40 3 -47
27 -56 33 -12 148 -8 148 6 0 6 -29 11 -65 13 -77 4 -88 11 -73 52 8 21 8 30
-1 34 -6 2 19 5 57 5 37 1 67 -2 67 -6 0 -3 -7 -15 -17 -25 -23 -26 -14 -29
45 -14 29 8 52 11 52 8 0 -3 5 -1 11 5 17 17 1 50 -31 63 -23 9 -51 10 -124 1
-52 -6 -98 -11 -103 -11 -5 0 -9 12 -8 27 0 22 -8 31 -35 45 -43 21 -60 22
-60 4z"/>
  <path d="M400 353 c-33 -45 -38 -48 -85 -51 l-50 -3 0 -129 c0 -70 3 -132 7
-136 4 -4 13 -3 20 3 7 5 71 10 143 12 72 1 137 4 145 6 9 3 24 -9 36 -26 l22
-31 21 23 c11 13 21 37 22 53 3 120 7 185 13 207 6 22 3 28 -22 38 -23 10 -54
9 -151 -1 -66 -8 -121 -11 -121 -7 0 4 21 19 47 34 43 26 45 29 28 41 -29 21
-37 18 -75 -33z m229 -71 c10 -18 10 -187 0 -196 -2 -2 -76 -7 -165 -11 l-161
-8 5 104 c2 57 5 105 6 106 2 2 54 6 117 9 63 4 116 8 118 10 2 2 19 4 37 4
22 0 37 -6 43 -18z"/>
  <path d="M425 243 c-16 -21 -40 -48 -54 -60 -29 -25 -24 -29 14 -11 26 12 75
-1 75 -20 0 -5 -26 -21 -57 -35 -32 -15 -49 -27 -38 -27 11 0 45 12 75 26 l54
25 37 -20 c20 -11 39 -18 43 -14 13 14 5 30 -21 42 l-28 13 35 30 c34 28 34
30 16 44 -11 8 -28 12 -38 9 -10 -3 -27 -8 -38 -11 -15 -4 -18 -2 -13 11 5 15
-10 34 -28 35 -4 0 -19 -17 -34 -37z m105 -32 c0 -19 -41 -39 -66 -32 -34 9
-30 25 8 32 51 10 58 10 58 0z"/>
</g>
<g id="part-1" class="char-part">
  <path d="M421 576 c11 -20 25 -36 29 -36 5 0 15 -3 24 -6 12 -5 16 0 16 19 0
30 -16 45 -59 53 l-32 7 22 -37z"/>
  <path d="M585 534 c-183 -22 -314 -27 -330 -14 -9 7 -18 11 -20 8 -14 -14 -53
-103 -49 -110 12 -19 42 -6 60 27 10 19 25 35 34 35 8 0 63 7 122 15 154 20
278 29 278 20 0 -5 -7 -17 -17 -27 -23 -26 -13 -30 45 -17 59 12 65 17 47 42
-21 29 -64 34 -170 21z"/>
</g>
<g id="part-2" class="char-part">
  <path d="M510 460 c0 -62 13 -70 110 -70 53 0 71 3 68 13 -3 7 -29 13 -72 15
-73 3 -83 12 -67 54 8 21 7 28 -5 32 -30 11 -34 6 -34 -44z"/>
  <path d="M393 492 c-13 -2 -23 -10 -23 -18 0 -8 -21 -35 -46 -59 -25 -25 -40
-45 -32 -45 18 1 119 71 132 92 13 22 -1 35 -31 30z"/>
</g>
<g id="part-3" class="char-part">
  <path d="M420 388 c0 -6 -11 -26 -25 -44 -14 -18 -22 -35 -18 -37 10 -5 113
61 113 72 0 9 -33 21 -57 21 -7 0 -13 -5 -13 -12z"/>
</g>
<g id="part-4" class="char-part">
  <path d="M535 319 c-27 -5 -99 -10 -160 -11 l-110 -3 0 -135 c0 -129 1 -135
20 -132 40 6 281 17 301 14 12 -2 27 -14 34 -28 17 -30 25 -30 45 0 11 16 17
55 19 127 2 57 7 115 11 130 12 44 -44 58 -160 38z m99 -35 c8 -20 6 -151 -3
-184 l-6 -25 -161 -3 -160 -4 4 99 c2 54 7 101 11 105 6 7 177 24 262 27 34 1
48 -3 53 -15z"/>
</g>
<g id="part-5" class="char-part">
  <path d="M512 176 c-19 -25 -40 -37 -27 -16 3 6 -1 10 -10 10 -9 0 -13 -5 -10
-11 4 -6 -1 -17 -11 -25 -16 -11 -13 -11 18 1 43 17 51 18 44 6 -6 -9 43 -35
51 -27 3 2 0 13 -6 23 -6 10 -11 14 -11 9 0 -5 -7 -3 -15 4 -12 10 -13 16 -4
27 7 7 9 16 7 19 -3 3 -15 -6 -26 -20z"/>
  <path d="M405 110 c-3 -6 1 -7 9 -4 18 7 21 14 7 14 -6 0 -13 -4 -16 -10z"/>
</g>
</g>
</svg>