<?xml version="1.0" standalone="no"?>
<!DOCTYPE svg PUBLIC "-//W3C//DTD SVG 20010904//EN"
 "http://www.w3.org/TR/2001/REC-SVG-20010904/DTD/svg10.dtd">
<svg version="1.0" xmlns="http://www.w3.org/2000/svg"
 width="96.000000pt" height="68.000000pt" viewBox="0 0 96.000000 68.000000"
 preserveAspectRatio="xMidYMid meet">
<metadata>
Created by potrace 1.16, written by Peter Selinger 2001-2019
Combined from part_0.svg through part_5.svg with named groups
</metadata>
<g transform="translate(0.000000,68.000000) scale(0.100000,-0.100000)" fill="#000000" stroke="none">
<g id="part-0" class="char-part">
  <path d="M437 623 c-4 -3 -2 -12 3 -18 11 -13 42 -147 36 -153 -2 -2 -48 -7
-102 -13 -148 -13 -185 -20 -177 -32 4 -6 44 -7 117 -3 61 5 124 9 140 9 28 2
30 -1 57 -85 43 -131 93 -204 178 -259 29 -19 58 -29 82 -29 l37 0 -4 42 c-3
24 -8 59 -11 78 l-6 35 -14 -42 c-12 -34 -19 -43 -38 -43 -55 0 -150 123 -185
238 -10 36 -17 69 -15 72 3 4 32 10 65 14 45 5 60 11 60 23 0 14 -10 15 -70
10 l-70 -6 0 74 c0 63 -3 76 -19 85 -22 11 -54 13 -64 3z"/>
  <path d="M590 581 c0 -17 62 -61 86 -61 19 0 24 5 24 23 0 19 -8 26 -39 35
-46 14 -71 15 -71 3z"/>
  <path d="M355 325 c-5 -2 -43 -9 -82 -15 -81 -13 -97 -30 -29 -30 l44 0 4 -47
c3 -27 3 -53 1 -59 -2 -6 -35 -17 -74 -24 -76 -15 -90 -23 -60 -39 29 -16 56
-13 104 8 23 11 83 36 132 55 86 33 94 51 10 21 -72 -26 -77 -23 -72 43 3 46
8 58 23 60 47 7 64 13 64 22 0 9 -43 13 -65 5z"/>
</g>
<g id="part-1" class="char-part">
  <path d="M590 576 c0 -12 82 -57 95 -52 24 9 18 35 -11 46 -24 10 -84 14 -84
6z"/>
</g>
<g id="part-2" class="char-part">
  <path d="M430 624 c0 -3 5 -15 12 -27 11 -21 39 -139 34 -144 -2 -3 -260 -33
-278 -33 -5 0 -8 -5 -8 -12 0 -8 33 -9 123 -4 67 3 133 9 147 12 23 5 26 1 42
-60 46 -176 164 -316 267 -316 l40 0 -6 53 c-3 28 -9 63 -13 76 -5 22 -7 20
-20 -18 -11 -34 -18 -41 -38 -41 -33 0 -112 80 -145 147 -20 39 -57 147 -57
166 0 3 29 8 65 12 59 6 86 18 72 32 -8 8 -47 7 -99 -1 l-48 -8 0 80 c0 74 -2
80 -22 86 -29 7 -68 8 -68 0z"/>
</g>
<g id="part-3" class="char-part">
  <path d="M315 320 c-16 -4 -52 -11 -79 -15 -55 -8 -51 -22 9 -27 l40 -3 3 -49
c2 -27 0 -52 -5 -57 -4 -4 -38 -14 -75 -21 -71 -13 -81 -21 -49 -38 32 -16 48
-13 189 42 138 54 159 71 54 44 -33 -9 -62 -16 -66 -16 -3 0 -4 25 -3 55 2 58
1 57 65 70 18 4 30 11 26 16 -6 11 -67 10 -109 -1z"/>
</g>
</g>
</svg>