<?xml version="1.0" standalone="no"?>
<!DOCTYPE svg PUBLIC "-//W3C//DTD SVG 20010904//EN"
 "http://www.w3.org/TR/2001/REC-SVG-20010904/DTD/svg10.dtd">
<svg version="1.0" xmlns="http://www.w3.org/2000/svg"
 width="96.000000pt" height="68.000000pt" viewBox="0 0 96.000000 68.000000"
 preserveAspectRatio="xMidYMid meet">
<metadata>
Created by potrace 1.16, written by Peter Selinger 2001-2019
Combined from part_0.svg through part_5.svg with named groups
</metadata>
<g transform="translate(0.000000,68.000000) scale(0.100000,-0.100000)" fill="#000000" stroke="none">
<g id="part-0" class="char-part">
  <path d="M467 577 l5 -64 -58 -6 c-32 -3 -60 -5 -62 -3 -1 2 3 15 9 30 14 29
7 40 -28 51 -21 6 -23 3 -23 -33 0 -23 -6 -45 -15 -52 -21 -17 -19 -37 6 -50
16 -9 32 -8 69 4 26 9 92 20 146 26 55 6 105 13 113 16 8 2 20 -5 28 -16 8
-11 19 -20 24 -20 11 0 33 49 44 97 6 29 4 34 -19 43 -39 14 -53 4 -52 -38 l1
-37 -63 -3 -63 -3 3 58 3 58 -36 3 -37 3 5 -64z"/>
  <path d="M589 436 c-2 -2 -65 -11 -139 -20 -181 -22 -185 -23 -170 -42 9 -9
11 -36 8 -79 -6 -69 -32 -123 -88 -184 -40 -43 -31 -52 17 -15 75 56 95 88
123 200 10 42 20 77 22 79 8 8 136 25 188 25 30 0 79 3 108 6 42 6 50 9 41 20
-10 13 -99 20 -110 10z"/>
  <path d="M550 340 c-25 -5 -71 -11 -103 -15 -71 -8 -65 -25 9 -25 53 0 54 0
54 -29 0 -34 -6 -37 -107 -46 -40 -4 -73 -11 -73 -15 0 -14 60 -20 111 -10 29
6 56 10 60 10 5 0 9 -40 9 -90 0 -72 3 -90 15 -90 19 0 35 60 35 132 l0 56
105 -1 c58 0 108 3 112 7 5 4 -1 14 -12 23 -20 15 -58 14 -168 -4 l-39 -6 4
34 c4 40 13 49 53 49 39 0 63 15 40 24 -20 7 -45 6 -105 -4z"/>
</g>
<g id="part-1" class="char-part">
  <path d="M466 623 c4 -10 9 -39 12 -64 4 -45 3 -46 -28 -53 -83 -16 -114 -4
-90 34 11 18 -5 40 -31 40 -16 0 -18 -5 -13 -25 4 -17 -1 -33 -15 -51 -35 -45
7 -70 75 -44 24 10 227 40 267 40 9 0 17 -7 17 -15 0 -23 29 -18 39 8 35 95
34 107 -16 107 -19 0 -21 -4 -16 -35 6 -40 5 -41 -81 -49 l-58 -6 4 59 c4 54
2 60 -16 65 -42 11 -59 7 -50 -11z"/>
</g>
<g id="part-2" class="char-part">
  <path d="M435 415 c-93 -13 -172 -24 -175 -24 -3 -1 3 -6 13 -12 22 -13 23
-89 2 -149 -14 -41 -71 -120 -105 -147 -11 -9 -12 -12 -2 -13 26 0 102 61 126
103 23 40 32 66 56 163 l10 41 88 11 c48 6 127 14 177 18 79 5 87 8 70 20 -24
18 -53 17 -260 -11z"/>
</g>
<g id="part-3" class="char-part">
  <path d="M515 335 c-49 -7 -98 -14 -108 -14 -10 -1 -15 -5 -12 -11 8 -13 67
-13 158 0 111 16 123 20 106 31 -17 11 -29 10 -144 -6z"/>
</g>
<g id="part-4" class="char-part">
  <path d="M523 303 c-7 -2 -13 -18 -13 -34 0 -16 -1 -29 -2 -30 -2 0 -46 -6
-98 -13 -95 -12 -95 -12 -55 -24 27 -8 53 -8 80 -2 76 18 75 19 76 -67 0 -43
4 -87 9 -98 7 -18 9 -18 20 10 6 17 13 62 15 100 l4 70 111 3 c110 3 136 13
83 33 -18 7 -48 7 -94 -1 -103 -15 -102 -16 -95 25 6 30 4 35 -11 34 -10 0
-24 -3 -30 -6z"/>
</g>
</g>
</svg>