<?xml version="1.0" standalone="no"?>
<!DOCTYPE svg PUBLIC "-//W3C//DTD SVG 20010904//EN"
 "http://www.w3.org/TR/2001/REC-SVG-20010904/DTD/svg10.dtd">
<svg version="1.0" xmlns="http://www.w3.org/2000/svg"
 width="96.000000pt" height="68.000000pt" viewBox="0 0 96.000000 68.000000"
 preserveAspectRatio="xMidYMid meet">
<metadata>
Created by potrace 1.16, written by Peter Selinger 2001-2019
Combined from part_0.svg through part_5.svg with named groups
</metadata>
<g transform="translate(0.000000,68.000000) scale(0.100000,-0.100000)" fill="#000000" stroke="none">
<g id="part-0" class="char-part">
  <path d="M145 541 c-7 -13 64 -81 85 -81 24 0 28 41 5 60 -18 15 -84 30 -90
21z"/>
  <path d="M563 500 c-7 -27 -17 -55 -23 -62 -25 -31 -80 -119 -80 -129 0 -15
74 64 112 119 16 23 31 42 34 42 3 0 37 -32 74 -70 69 -70 69 -70 112 -64 24
4 44 8 46 9 1 1 -26 16 -60 34 -74 37 -151 102 -153 128 -2 27 -14 43 -33 43
-12 0 -21 -14 -29 -50z"/>
  <path d="M380 525 c-14 -8 -42 -14 -63 -15 -34 0 -38 -2 -32 -20 11 -34 7
-249 -6 -320 -13 -72 -9 -100 14 -100 18 0 27 44 27 135 0 39 3 120 6 178 7
102 8 106 32 112 33 8 35 4 21 -44 -9 -32 -10 -44 -1 -53 19 -19 15 -68 -5
-68 -14 0 -14 -3 5 -20 26 -24 35 -25 53 -4 11 14 9 24 -16 69 l-28 53 31 38
c36 43 39 59 16 68 -21 8 -25 7 -54 -9z"/>
  <path d="M90 407 c0 -3 16 -22 35 -42 24 -24 43 -35 58 -33 29 4 35 43 9 57
-23 12 -102 26 -102 18z"/>
  <path d="M625 330 c-11 -5 -34 -9 -52 -9 -33 -1 -58 -21 -26 -21 24 0 43 -19
43 -42 0 -14 -8 -18 -37 -19 -21 -1 -49 -4 -63 -8 -42 -12 -5 -24 50 -16 l50
7 0 -72 0 -72 -26 6 -25 7 23 -31 c14 -20 29 -30 43 -28 18 3 20 11 23 100 l3
96 76 8 c70 6 75 8 57 21 -14 11 -34 13 -76 8 -54 -6 -58 -4 -58 14 0 15 9 23
33 29 17 4 31 12 30 18 -3 12 -43 15 -68 4z"/>
  <path d="M204 263 c-15 -27 -43 -68 -62 -91 -35 -44 -35 -44 -19 -78 10 -19
22 -31 29 -29 10 4 66 139 95 228 11 35 -17 15 -43 -30z"/>
  <path d="M480 160 c0 -5 -14 -25 -31 -45 -41 -46 -30 -56 21 -20 56 39 67 54
49 66 -19 12 -39 11 -39 -1z"/>
  <path d="M706 148 c53 -63 84 -83 84 -54 0 38 -43 76 -86 76 -16 0 -15 -2 2
-22z"/>
</g>
<g id="part-1" class="char-part">
  <path d="M150 532 c0 -12 67 -72 81 -72 19 0 22 32 3 51 -22 21 -84 37 -84 21z"/>
  <path d="M132 365 c45 -42 68 -45 68 -10 0 28 -30 45 -78 45 l-27 -1 37 -34z"/>
  <path d="M206 259 c-15 -28 -41 -66 -57 -84 -32 -36 -36 -61 -16 -90 17 -22
33 -14 41 22 4 16 21 63 38 105 36 93 34 117 -6 47z"/>
</g>
<g id="part-2" class="char-part">
  <path d="M363 522 c-42 -22 -42 -36 -2 -27 28 6 31 5 26 -11 -17 -56 -19 -64
-11 -63 5 0 27 21 49 46 38 43 39 46 20 59 -24 18 -42 17 -82 -4z"/>
</g>
<g id="part-3" class="char-part">
  <path d="M289 383 c2 -74 -2 -163 -10 -211 -11 -74 -11 -85 4 -99 15 -15 17
-15 25 8 5 13 13 115 17 227 l7 202 -24 0 -23 0 4 -127z"/>
</g>
<g id="part-4" class="char-part">
  <path d="M590 271 c0 -27 -2 -29 -60 -35 -38 -4 -58 -11 -54 -17 4 -7 28 -8
63 -4 l56 6 -3 -71 c-4 -71 -4 -72 -28 -66 l-25 7 22 -31 c46 -61 69 -33 69
81 l0 87 77 7 c70 7 75 9 57 22 -17 13 -56 13 -115 1 -8 -2 -15 7 -17 20 -2
14 -10 22 -23 22 -14 0 -19 -7 -19 -29z"/>
  <path d="M480 161 c0 -6 -17 -30 -37 -52 -35 -39 -36 -41 -13 -34 34 10 95 59
95 76 0 8 -10 15 -22 17 -13 2 -23 -1 -23 -7z"/>
  <path d="M716 138 c56 -63 74 -72 74 -37 0 31 -47 69 -86 69 -14 0 -12 -6 12
-32z"/>
</g>
</g>
</svg>