<?xml version="1.0" standalone="no"?>
<!DOCTYPE svg PUBLIC "-//W3C//DTD SVG 20010904//EN"
 "http://www.w3.org/TR/2001/REC-SVG-20010904/DTD/svg10.dtd">
<svg version="1.0" xmlns="http://www.w3.org/2000/svg"
 width="96.000000pt" height="68.000000pt" viewBox="0 0 96.000000 68.000000"
 preserveAspectRatio="xMidYMid meet">
<metadata>
Created by potrace 1.16, written by Peter Selinger 2001-2019
Combined from part_0.svg through part_5.svg with named groups
</metadata>
<g transform="translate(0.000000,68.000000) scale(0.100000,-0.100000)" fill="#000000" stroke="none">
<g id="part-0" class="char-part">
  <path d="M275 588 c4 -13 10 -47 12 -75 l5 -53 -64 0 -63 0 -2 -85 c-2 -109
-17 -185 -48 -253 -14 -30 -23 -57 -20 -60 8 -8 32 26 57 80 19 39 50 68 75
68 3 0 4 -39 1 -87 -3 -49 -3 -94 -1 -100 7 -20 30 -15 36 6 4 16 18 20 102
26 53 4 108 8 121 8 14 0 23 4 21 11 -2 6 -29 11 -63 12 -44 1 -60 5 -62 16
-2 11 9 17 42 22 57 9 60 26 6 26 -55 0 -55 26 0 35 47 8 44 25 -6 25 -27 0
-34 4 -34 20 0 17 7 20 47 20 36 0 44 3 35 12 -9 9 -34 8 -109 -4 -54 -8 -100
-14 -102 -12 -3 2 6 15 19 29 23 25 23 25 4 39 -23 18 -31 13 -39 -23 -3 -15
-20 -41 -37 -57 l-31 -29 7 25 c4 14 12 66 18 115 6 50 12 91 13 92 0 1 17 5
37 8 30 5 36 3 41 -14 6 -25 0 -31 -30 -31 -12 0 -23 -4 -23 -10 0 -5 3 -9 8
-9 27 4 52 -3 52 -16 0 -19 65 -36 113 -28 62 10 39 28 -31 25 -51 -3 -62 -1
-62 12 0 11 13 18 40 22 22 4 40 11 40 16 0 5 -16 6 -35 2 -26 -5 -35 -3 -35
7 0 28 17 39 61 42 40 2 44 0 42 -20 -3 -28 -5 -27 46 -4 l42 18 -25 17 c-28
18 -66 20 -112 7 -36 -10 -57 -1 -49 21 4 10 25 17 62 21 62 6 72 12 55 29 -9
9 -25 9 -63 2 -50 -11 -51 -11 -46 13 5 26 -16 43 -54 43 -18 0 -20 -4 -14
-22z m70 -378 c0 -10 -13 -16 -42 -18 -38 -3 -43 -1 -43 18 0 19 5 21 43 18
29 -2 42 -8 42 -18z m5 -54 c0 -7 -14 -16 -31 -20 -50 -10 -59 -7 -59 14 0 17
7 20 45 20 32 0 45 -4 45 -14z m0 -61 c0 -23 -4 -25 -45 -25 -38 0 -45 3 -45
19 0 19 17 27 68 30 17 1 22 -4 22 -24z"/>
  <path d="M635 498 c-97 -19 -104 -22 -47 -26 62 -4 165 15 157 29 -7 11 -41
10 -110 -3z"/>
  <path d="M605 400 c-65 -10 -123 -16 -128 -13 -5 3 -7 0 -5 -8 4 -10 21 -13
62 -11 50 2 56 0 56 -17 0 -11 -11 -33 -25 -49 -35 -42 -33 -56 8 -48 17 4 58
9 90 13 l59 6 -6 -49 c-17 -121 -44 -164 -96 -146 -36 13 -37 9 -9 -29 12 -18
29 -29 43 -29 42 0 70 42 100 150 28 98 28 101 10 115 -15 12 -36 14 -91 9
-40 -4 -73 -3 -73 0 0 4 11 19 25 34 14 15 23 32 21 39 -5 12 45 21 149 26 28
1 50 7 50 12 0 17 -114 15 -240 -5z"/>
  <path d="M336 312 c-8 -13 7 -30 29 -34 28 -4 26 23 -2 33 -12 4 -24 5 -27 1z"/>
</g>
<g id="part-1" class="char-part">
  <path d="M284 579 c3 -17 6 -49 6 -70 0 -32 3 -39 20 -39 14 0 20 7 20 24 0
26 21 36 82 36 20 0 39 4 42 9 9 14 -32 20 -67 10 -45 -13 -47 -12 -47 20 0
21 -6 30 -22 35 -38 10 -41 7 -34 -25z"/>
</g>
<g id="part-2" class="char-part">
  <path d="M363 173 c-7 -2 -13 -11 -13 -18 0 -14 -30 -25 -68 -25 -13 0 -20 -4
-17 -10 4 -6 23 -9 43 -8 32 3 37 0 40 -19 3 -21 -1 -23 -37 -23 -22 0 -43 -5
-46 -11 -8 -12 235 -1 249 12 14 12 -39 22 -90 16 -38 -4 -44 -2 -44 14 0 13
11 19 45 25 56 8 59 24 5 24 -29 0 -40 4 -40 15 0 15 -6 17 -27 8z"/>
</g>
<g id="part-3" class="char-part">
  <path d="M605 490 l-70 -18 63 -1 c67 -1 152 16 152 30 0 14 -68 9 -145 -11z"/>
</g>
<g id="part-4" class="char-part">
  <path d="M605 400 c-66 -10 -124 -19 -130 -20 -5 0 -2 -5 8 -11 12 -7 49 -6
125 5 59 9 136 17 172 18 36 2 65 8 65 13 0 17 -112 14 -240 -5z"/>
</g>
<g id="part-5" class="char-part">
  <path d="M685 290 c-19 -8 -19 -9 3 -9 29 -1 44 -39 32 -80 -4 -17 -6 -40 -3
-52 4 -15 3 -20 -5 -15 -8 4 -12 0 -12 -12 0 -10 -10 -28 -22 -39 -29 -26 -53
-40 -45 -26 4 6 0 14 -9 17 -28 11 -28 -1 0 -29 26 -26 54 -29 48 -5 -1 6 3
10 10 8 18 -6 40 18 42 46 0 13 5 22 10 19 5 -3 7 6 4 20 -3 15 -2 24 2 22 10
-6 22 54 13 68 -4 6 -1 7 7 2 10 -6 12 -3 8 13 -4 14 -2 20 4 16 6 -4 8 -1 6
7 -3 8 -11 13 -17 12 -6 -2 -11 2 -11 8 0 6 -7 8 -16 5 -8 -3 -12 -2 -9 4 7
12 -12 12 -40 0z m65 -41 c0 -6 -4 -7 -10 -4 -5 3 -10 11 -10 16 0 6 5 7 10 4
6 -3 10 -11 10 -16z"/>
  <path d="M610 281 c-14 -4 -35 -6 -48 -5 -18 1 -20 -1 -11 -12 12 -15 23 -19
15 -6 -3 5 8 9 25 9 16 0 35 5 41 11 13 13 13 13 -22 3z"/>
</g>
</g>
</svg>