<?xml version="1.0" standalone="no"?>
<!DOCTYPE svg PUBLIC "-//W3C//DTD SVG 20010904//EN"
 "http://www.w3.org/TR/2001/REC-SVG-20010904/DTD/svg10.dtd">
<svg version="1.0" xmlns="http://www.w3.org/2000/svg"
 width="96.000000pt" height="68.000000pt" viewBox="0 0 96.000000 68.000000"
 preserveAspectRatio="xMidYMid meet">
<metadata>
Created by potrace 1.16, written by Peter Selinger 2001-2019
Combined from part_0.svg through part_5.svg with named groups
</metadata>
<g transform="translate(0.000000,68.000000) scale(0.100000,-0.100000)" fill="#000000" stroke="none">
<g id="part-0" class="char-part">
  <path d="M510 594 c0 -16 128 -94 154 -94 21 0 26 5 26 25 0 28 -32 48 -95 59
-22 4 -50 10 -62 13 -13 3 -23 1 -23 -3z"/>
  <path d="M320 580 c0 -15 -72 -84 -110 -106 -35 -21 -40 -38 -7 -28 27 8 154
77 182 99 20 15 20 15 1 30 -23 17 -66 20 -66 5z"/>
  <path d="M506 522 c-4 -11 -18 -29 -31 -42 -25 -23 -26 -23 -60 -7 -20 9 -50
17 -68 16 -30 0 -29 -2 18 -18 28 -10 49 -21 48 -25 -5 -21 -150 -102 -261
-146 -58 -23 -26 -23 44 0 64 20 193 79 240 110 12 7 28 10 35 7 19 -9 53 -31
59 -38 11 -13 101 -61 132 -70 35 -10 178 -2 178 11 0 4 -28 13 -62 20 -78 16
-247 69 -272 86 -17 12 -15 15 22 41 47 32 48 35 26 57 -21 21 -41 20 -48 -2z"/>
  <path d="M390 333 c-66 -5 -93 -23 -34 -23 43 0 64 -14 64 -41 0 -18 -43 -29
-112 -29 -21 0 -38 -4 -38 -10 0 -6 32 -10 75 -10 l75 0 0 -55 c0 -64 6 -61
-139 -69 -95 -6 -111 -10 -97 -23 15 -16 538 7 543 23 6 17 -66 30 -122 23
-27 -4 -71 -8 -97 -8 l-48 -1 0 59 0 58 71 6 c39 3 74 9 77 12 14 13 -15 20
-79 17 -38 -1 -69 0 -69 2 0 3 4 16 10 30 8 23 15 26 55 26 28 0 44 4 40 10
-6 10 -59 10 -175 3z"/>
  <path d="M533 175 c-13 -19 -23 -37 -23 -40 0 -2 20 5 45 17 46 23 57 41 29
52 -25 9 -28 8 -51 -29z"/>
  <path d="M290 186 c0 -13 54 -66 67 -66 17 0 17 34 0 48 -15 13 -67 27 -67 18z"/>
</g>
<g id="part-1" class="char-part">
  <path d="M319 568 c-6 -13 -37 -44 -71 -70 -33 -27 -55 -48 -48 -48 15 0 84
36 149 78 l55 34 -25 14 c-34 19 -48 17 -60 -8z"/>
  <path d="M525 583 c42 -34 130 -84 144 -81 9 2 17 13 19 24 2 17 -6 25 -39 38
-44 18 -141 33 -124 19z"/>
</g>
<g id="part-2" class="char-part">
  <path d="M501 518 c-7 -13 -23 -31 -37 -41 -23 -17 -27 -17 -49 -3 -13 9 -41
16 -62 15 -40 0 -39 -2 36 -30 l33 -12 -23 -19 c-30 -22 -164 -93 -238 -125
-54 -23 -55 -24 -16 -18 52 8 171 56 251 101 l63 35 92 -55 c98 -59 148 -73
225 -61 83 12 79 18 -23 41 -55 12 -138 37 -184 55 l-83 32 34 29 c19 15 38
28 42 28 16 0 7 30 -11 40 -28 15 -36 13 -50 -12z"/>
</g>
<g id="part-3" class="char-part">
  <path d="M418 336 c-48 -7 -91 -16 -95 -21 -8 -8 237 1 245 10 20 20 -50 25
-150 11z"/>
</g>
<g id="part-4" class="char-part">
  <path d="M417 279 c4 -23 1 -27 -27 -33 -18 -3 -52 -6 -76 -6 -25 0 -44 -5
-44 -11 0 -6 26 -9 73 -8 l72 2 3 -61 3 -62 -63 -1 c-35 -1 -90 -4 -123 -8
-59 -7 -60 -7 -33 -21 23 -11 45 -11 122 -2 52 7 162 12 245 12 148 0 183 8
140 30 -15 8 -56 10 -135 5 l-114 -7 0 60 0 60 76 7 c56 6 73 10 64 19 -6 6
-38 10 -76 8 -63 -2 -65 -2 -62 20 2 19 -2 23 -24 23 -24 1 -26 -2 -21 -26z"/>
</g>
<g id="part-5" class="char-part">
  <path d="M542 176 l-22 -38 27 20 c16 10 35 22 43 25 12 4 12 6 -2 6 -9 1 -18
6 -20 13 -2 6 -14 -6 -26 -26z"/>
  <path d="M301 184 c-1 -6 10 -21 24 -34 14 -13 25 -18 25 -11 0 7 6 9 13 6 6
-4 1 3 -12 14 -12 12 -27 19 -31 16 -5 -3 -11 1 -13 7 -3 7 -6 8 -6 2z"/>
</g>
</g>
</svg>