<?xml version="1.0" standalone="no"?>
<!DOCTYPE svg PUBLIC "-//W3C//DTD SVG 20010904//EN"
 "http://www.w3.org/TR/2001/REC-SVG-20010904/DTD/svg10.dtd">
<svg version="1.0" xmlns="http://www.w3.org/2000/svg"
 width="96.000000pt" height="68.000000pt" viewBox="0 0 96.000000 68.000000"
 preserveAspectRatio="xMidYMid meet">
<metadata>
Created by potrace 1.16, written by Peter Selinger 2001-2019
Combined from part_0.svg through part_5.svg with named groups
</metadata>
<g transform="translate(0.000000,68.000000) scale(0.100000,-0.100000)" fill="#000000" stroke="none">
<g id="part-0" class="char-part">
  <path d="M236 552 c-127 -17 -168 -34 -93 -40 l37 -3 0 -58 c0 -32 3 -99 6
-149 l7 -92 -48 0 c-42 0 -46 -2 -34 -16 27 -32 50 -32 132 3 43 18 80 33 83
33 2 0 4 -31 4 -69 0 -79 6 -101 27 -101 14 0 16 58 13 325 0 39 2 87 5 108 6
33 10 37 35 37 16 0 31 4 35 9 16 27 -61 32 -209 13z m94 -72 c0 -38 -2 -40
-29 -40 -16 0 -36 -3 -45 -6 -13 -5 -16 2 -16 40 l0 46 45 0 45 0 0 -40z m0
-93 c0 -18 -8 -24 -45 -33 -45 -10 -45 -10 -45 17 0 29 11 36 63 38 22 1 27
-3 27 -22z m0 -96 c0 -35 -3 -40 -31 -50 -54 -19 -60 -15 -57 32 3 45 -2 41
81 56 4 0 7 -17 7 -38z"/>
  <path d="M560 424 c0 -20 44 -74 61 -74 19 0 26 25 11 45 -16 22 -72 44 -72
29z"/>
  <path d="M765 366 c50 -47 77 -55 83 -24 4 22 -45 55 -93 63 l-40 7 50 -46z"/>
  <path d="M500 356 c0 -16 27 -77 47 -104 40 -54 95 -76 175 -69 74 6 108 20
108 43 0 8 -12 19 -26 24 -15 6 -40 20 -55 31 -30 21 -33 18 -20 -16 12 -28
-5 -45 -44 -45 -75 0 -134 41 -156 108 -6 17 -15 32 -20 32 -5 0 -9 -2 -9 -4z"/>
  <path d="M425 301 c-38 -76 -8 -117 33 -44 14 27 16 93 2 93 -5 0 -21 -22 -35
-49z"/>
</g>
<g id="part-1" class="char-part">
  <path d="M235 545 c-50 -7 -99 -14 -110 -14 -17 -1 -17 -3 -5 -11 8 -5 25 -10
36 -10 28 0 34 -31 34 -176 0 -107 1 -114 20 -114 17 0 20 7 20 49 l0 48 50 7
c65 9 67 29 3 24 -47 -3 -48 -3 -48 27 0 25 5 31 25 33 49 5 70 13 70 23 0 8
-16 9 -51 5 l-50 -7 3 43 c3 49 14 55 88 57 66 2 120 12 114 22 -7 12 -90 9
-199 -6z"/>
</g>
<g id="part-2" class="char-part">
  <path d="M328 390 c2 -77 -1 -140 -5 -140 -4 0 -39 -9 -78 -20 -38 -11 -87
-20 -109 -20 -34 0 -37 -2 -26 -16 29 -34 45 -34 131 0 l84 34 3 -61 c3 -82 9
-107 27 -107 13 0 15 29 15 189 0 103 3 209 6 235 7 46 6 46 -22 46 l-29 0 3
-140z"/>
</g>
<g id="part-3" class="char-part">
  <path d="M556 418 c25 -42 50 -68 66 -68 27 0 22 35 -8 59 -30 23 -70 29 -58
9z"/>
  <path d="M765 366 c50 -47 77 -55 83 -24 4 22 -49 58 -95 65 l-38 5 50 -46z"/>
  <path d="M505 339 c36 -117 114 -169 234 -155 90 11 118 39 64 66 -16 8 -40
22 -54 32 l-26 17 1 -37 c1 -34 -1 -37 -29 -40 -69 -8 -141 38 -162 102 -5 17
-15 32 -22 34 -10 3 -11 -2 -6 -19z"/>
  <path d="M424 299 c-26 -53 -26 -79 1 -79 19 0 45 57 45 100 0 44 -16 37 -46
-21z"/>
</g>
</g>
</svg>