<?xml version="1.0" standalone="no"?>
<!DOCTYPE svg PUBLIC "-//W3C//DTD SVG 20010904//EN"
 "http://www.w3.org/TR/2001/REC-SVG-20010904/DTD/svg10.dtd">
<svg version="1.0" xmlns="http://www.w3.org/2000/svg"
 width="96.000000pt" height="68.000000pt" viewBox="0 0 96.000000 68.000000"
 preserveAspectRatio="xMidYMid meet">
<metadata>
Created by potrace 1.16, written by Peter Selinger 2001-2019
Combined from part_0.svg through part_5.svg with named groups
</metadata>
<g transform="translate(0.000000,68.000000) scale(0.100000,-0.100000)" fill="#000000" stroke="none">
<g id="part-0" class="char-part">
  <path d="M618 531 l4 -58 -32 -7 c-18 -3 -46 -6 -62 -6 -28 0 -29 2 -23 31 8
35 -4 49 -43 49 -22 0 -23 -3 -17 -41 8 -46 -2 -58 -45 -59 -20 0 -22 -2 -10
-10 8 -5 25 -10 36 -10 30 0 34 -17 34 -126 l0 -94 -67 0 c-63 0 -66 -1 -51
-17 16 -15 26 -15 145 -1 70 9 175 17 233 18 57 0 107 3 109 6 14 14 -31 24
-94 22 l-70 -2 2 34 c1 19 5 70 8 112 l7 77 41 3 c54 4 54 20 1 32 -41 9 -42
10 -37 47 5 35 3 40 -21 49 -49 18 -53 15 -48 -49z m2 -123 l0 -33 -64 -3 -63
-2 1 27 c1 32 18 40 84 42 41 1 42 0 42 -31z m0 -80 l0 -33 -60 -1 c-56 0 -60
1 -60 22 0 22 14 27 113 43 4 0 7 -14 7 -31z m0 -77 c0 -27 -3 -29 -52 -34
-56 -7 -72 0 -66 29 3 19 36 30 91 33 23 1 27 -3 27 -28z"/>
  <path d="M265 490 c-16 -4 -51 -11 -77 -15 -27 -3 -48 -10 -48 -15 0 -5 21
-10 48 -12 l47 -3 3 -51 3 -51 -43 -9 -43 -8 42 -4 c41 -3 41 -3 48 -52 4 -27
4 -53 1 -58 -3 -6 -35 -18 -71 -27 -36 -10 -65 -21 -65 -26 0 -4 12 -12 28
-17 22 -8 37 -4 82 19 30 15 77 38 103 51 48 22 80 49 41 34 -10 -4 -31 -10
-46 -13 -28 -5 -28 -5 -28 45 0 50 0 51 35 58 44 8 46 24 2 24 -32 0 -32 0
-32 50 0 49 1 50 30 50 17 0 37 5 45 10 36 24 -39 38 -105 20z"/>
  <path d="M465 154 c-8 -9 -15 -20 -15 -25 0 -5 -20 -30 -45 -54 -24 -25 -40
-45 -35 -45 15 0 80 43 123 82 l39 34 -26 12 c-21 9 -28 8 -41 -4z"/>
  <path d="M626 162 c-7 -11 112 -134 127 -130 19 7 20 42 0 65 -22 25 -120 76
-127 65z"/>
</g>
<g id="part-1" class="char-part">
  <path d="M297 490 c-15 -5 -57 -12 -92 -15 -77 -9 -86 -25 -14 -25 64 0 179
20 179 32 0 4 -4 8 -9 8 -5 0 -15 2 -23 4 -7 2 -26 0 -41 -4z"/>
</g>
<g id="part-2" class="char-part">
  <path d="M249 453 c-13 -3 -15 -14 -11 -58 4 -55 4 -55 -24 -56 -16 0 -38 -4
-49 -9 -15 -6 -9 -9 27 -9 l47 -1 7 -45 c3 -25 4 -51 1 -58 -3 -7 -35 -22 -71
-31 -36 -10 -66 -21 -66 -26 0 -4 11 -12 25 -18 23 -11 38 -5 143 49 64 33
106 57 92 54 -88 -20 -80 -23 -80 34 l0 51 40 6 c46 8 44 24 -3 24 -32 0 -32
0 -29 44 4 45 -9 57 -49 49z"/>
</g>
<g id="part-3" class="char-part">
  <path d="M618 531 l4 -58 -38 -6 c-76 -13 -84 -10 -74 22 10 35 -3 51 -43 51
-28 0 -29 -1 -22 -41 8 -46 -2 -58 -45 -59 -20 0 -22 -2 -10 -10 8 -5 25 -10
36 -10 27 0 34 -31 34 -141 l0 -79 -65 0 c-36 0 -65 -4 -65 -10 0 -18 50 -22
128 -11 42 7 143 15 225 18 81 3 147 9 147 13 0 14 -31 20 -98 20 l-67 0 7 92
c3 51 7 101 7 110 1 13 12 18 44 20 54 4 54 20 0 32 -40 9 -41 10 -36 44 7 39
-13 62 -52 62 -20 0 -21 -4 -17 -59z m2 -200 l0 -108 -51 -6 c-29 -4 -56 -4
-60 -1 -5 3 -9 52 -9 109 0 116 -4 111 83 114 l37 1 0 -109z"/>
</g>
<g id="part-4" class="char-part">
  <path d="M533 369 c-18 -5 -33 -14 -33 -20 0 -9 36 -7 100 8 23 5 24 6 5 13
-25 11 -32 10 -72 -1z"/>
</g>
<g id="part-5" class="char-part">
  <path d="M448 118 c-18 -24 -44 -53 -58 -65 l-25 -23 42 23 c26 13 41 27 38
35 -3 7 0 10 6 7 13 -9 41 14 32 28 -3 5 -1 7 4 4 6 -4 16 -1 22 7 9 11 8 15
-5 20 -8 3 -17 6 -19 6 -2 0 -18 -19 -37 -42z"/>
  <path d="M640 150 c8 -5 20 -10 25 -10 6 0 3 5 -5 10 -8 5 -19 10 -25 10 -5 0
-3 -5 5 -10z"/>
  <path d="M672 131 c-6 -4 6 -25 33 -56 37 -41 46 -47 55 -35 13 20 13 33 -2
24 -7 -5 -9 -2 -5 9 6 17 -15 41 -27 29 -4 -4 -6 -1 -4 6 4 16 -34 33 -50 23z"/>
</g>
</g>
</svg>