<?xml version="1.0" standalone="no"?>
<!DOCTYPE svg PUBLIC "-//W3C//DTD SVG 20010904//EN"
 "http://www.w3.org/TR/2001/REC-SVG-20010904/DTD/svg10.dtd">
<svg version="1.0" xmlns="http://www.w3.org/2000/svg"
 width="96.000000pt" height="68.000000pt" viewBox="0 0 96.000000 68.000000"
 preserveAspectRatio="xMidYMid meet">
<metadata>
Created by potrace 1.16, written by Peter Selinger 2001-2019
Combined from part_0.svg through part_5.svg with named groups
</metadata>
<g transform="translate(0.000000,68.000000) scale(0.100000,-0.100000)" fill="#000000" stroke="none">
<g id="part-0" class="char-part">
  <path d="M429 577 c-26 -18 -85 -51 -133 -72 -117 -54 -114 -72 8 -40 57 15
59 15 74 -6 8 -12 23 -29 34 -38 10 -8 18 -18 18 -21 0 -7 -90 -26 -167 -36
-58 -7 -68 -20 -26 -30 17 -5 77 4 162 24 74 18 136 30 138 28 7 -6 -115 -90
-190 -131 -59 -32 -79 -38 -160 -44 l-92 -6 26 -18 c23 -15 33 -16 74 -7 64
14 128 1 292 -60 73 -27 146 -50 162 -50 27 0 140 33 171 50 19 11 -25 18
-170 25 -106 6 -287 41 -329 64 -13 8 -10 11 14 17 38 9 134 57 203 100 29 19
54 34 57 34 2 0 19 9 36 19 l31 19 -32 17 c-29 15 -40 16 -91 5 -67 -14 -74
-14 -75 3 -1 6 -2 17 -3 23 0 7 -18 20 -38 29 l-38 18 40 17 c22 10 43 16 47
14 4 -3 9 0 13 6 3 5 14 10 24 10 10 0 25 7 32 16 11 14 9 19 -11 35 -34 26
-48 24 -101 -14z"/>
</g>
<g id="part-1" class="char-part">
  <path d="M435 576 c-26 -21 -123 -72 -195 -104 -25 -11 -25 -11 7 -11 18 -1
79 16 135 37 57 22 115 42 131 46 31 7 36 31 8 46 -30 16 -53 12 -86 -14z"/>
</g>
<g id="part-2" class="char-part">
  <path d="M366 478 c29 -50 59 -79 78 -76 36 5 33 44 -6 68 -37 23 -84 28 -72
8z"/>
</g>
<g id="part-3" class="char-part">
  <path d="M466 405 c-48 -13 -129 -29 -178 -36 -78 -11 -87 -15 -72 -26 25 -19
54 -16 192 16 67 16 122 25 122 21 0 -9 -111 -84 -190 -129 -45 -25 -50 -31
-30 -31 14 0 54 14 90 31 85 40 250 139 250 149 0 30 -83 32 -184 5z"/>
</g>
<g id="part-4" class="char-part">
  <path d="M117 188 c21 -20 26 -21 75 -10 71 16 137 3 286 -55 153 -60 171 -61
272 -28 45 15 79 29 77 31 -2 3 -71 9 -153 15 -108 7 -180 18 -260 40 -89 23
-131 29 -215 29 l-103 0 21 -22z"/>
</g>
</g>
</svg>