<?xml version="1.0" standalone="no"?>
<!DOCTYPE svg PUBLIC "-//W3C//DTD SVG 20010904//EN"
 "http://www.w3.org/TR/2001/REC-SVG-20010904/DTD/svg10.dtd">
<svg version="1.0" xmlns="http://www.w3.org/2000/svg"
 width="96.000000pt" height="68.000000pt" viewBox="0 0 96.000000 68.000000"
 preserveAspectRatio="xMidYMid meet">
<metadata>
Created by potrace 1.16, written by Peter Selinger 2001-2019
Combined from part_0.svg through part_5.svg with named groups
</metadata>
<g transform="translate(0.000000,68.000000) scale(0.100000,-0.100000)" fill="#000000" stroke="none">
<g id="part-0" class="char-part">
  <path d="M480 571 c5 -11 15 -23 20 -26 25 -15 4 -23 -77 -30 -49 -3 -98 -9
-111 -12 l-23 -5 21 -15 c48 -34 6 -228 -78 -362 -18 -29 -32 -55 -30 -56 5
-6 72 61 87 86 8 13 22 44 32 68 l17 45 53 -3 c62 -3 62 -3 53 -25 -4 -10 -18
-16 -40 -16 -19 0 -34 -4 -34 -10 0 -5 14 -10 30 -10 17 0 30 -4 30 -9 0 -5
-28 -34 -62 -65 -34 -31 -57 -56 -52 -56 13 0 100 55 108 69 15 24 27 9 26
-32 -3 -67 -1 -77 15 -77 12 0 15 17 15 90 0 89 0 90 25 90 31 0 38 -23 33
-116 -2 -56 0 -69 12 -69 12 0 16 17 18 78 2 42 6 77 10 77 4 0 33 -27 65 -60
59 -60 59 -60 117 -60 32 0 61 4 64 8 3 5 -18 17 -47 27 -57 20 -129 54 -137
64 -3 4 -21 18 -40 31 l-35 25 50 5 c46 5 50 7 47 29 -5 33 12 41 86 41 47 0
62 3 59 13 -3 8 -25 12 -65 11 -59 -1 -61 0 -56 22 7 28 -20 38 -78 29 -36 -6
-40 -5 -35 10 4 9 7 21 7 26 0 5 15 9 33 9 49 0 107 12 107 21 0 18 -172 4
-323 -27 -28 -6 -28 -5 -25 37 3 49 5 49 129 63 l62 7 -6 -36 -6 -36 30 22
c23 16 27 24 19 34 -9 11 2 15 54 20 99 11 83 29 -19 23 -78 -5 -85 -4 -85 13
0 21 -28 39 -60 39 -17 0 -19 -3 -10 -19z m53 -190 c6 -25 0 -31 -30 -31 -18
0 -23 5 -23 25 0 20 5 25 24 25 15 0 26 -7 29 -19z m-88 -16 c0 -15 -9 -21
-35 -26 l-35 -6 35 -4 c27 -3 35 -9 35 -24 0 -17 -8 -20 -53 -23 -48 -3 -53
-1 -48 15 3 10 8 35 11 55 7 36 8 37 48 35 35 -2 42 -6 42 -22z m185 -45 c0
-16 -7 -20 -30 -20 -23 0 -30 4 -30 20 0 16 7 20 30 20 23 0 30 -4 30 -20z
m-92 -7 c-2 -11 -14 -19 -31 -21 -22 -3 -27 1 -27 17 0 17 6 21 31 21 24 0 30
-4 27 -17z m80 -50 c-2 -10 -13 -19 -26 -21 -17 -3 -22 2 -22 17 0 16 6 21 26
21 19 0 25 -5 22 -17z m-80 -10 c-2 -11 -14 -19 -31 -21 -22 -3 -27 1 -27 17
0 17 6 21 31 21 24 0 30 -4 27 -17z"/>
  <path d="M185 487 c44 -53 85 -61 85 -18 0 27 -23 42 -72 49 l-43 5 30 -36z"/>
  <path d="M440 450 c12 -23 40 -27 40 -6 0 8 -7 17 -16 20 -28 11 -35 7 -24
-14z"/>
  <path d="M109 384 c37 -65 92 -85 99 -37 4 25 -15 38 -72 48 -35 7 -37 6 -27
-11z"/>
  <path d="M216 260 c-9 -17 -42 -55 -73 -84 -53 -53 -55 -55 -41 -83 7 -15 20
-28 28 -28 15 0 120 187 120 212 0 22 -15 14 -34 -17z"/>
</g>
<g id="part-1" class="char-part">
  <path d="M176 508 c16 -30 49 -58 66 -58 30 0 22 37 -12 55 -36 18 -64 20 -54
3z"/>
  <path d="M110 390 c0 -14 61 -70 76 -70 11 0 14 8 12 27 -2 22 -10 29 -45 39
-24 7 -43 9 -43 4z"/>
  <path d="M206 240 c-21 -27 -54 -63 -73 -80 -32 -29 -35 -35 -27 -62 5 -18 14
-33 21 -35 11 -4 129 215 120 223 -2 2 -20 -19 -41 -46z"/>
</g>
<g id="part-2" class="char-part">
  <path d="M470 582 c0 -5 9 -17 20 -27 11 -10 17 -21 15 -25 -3 -4 -44 -11 -92
-15 -48 -4 -96 -11 -107 -15 -20 -7 -20 -7 3 -15 23 -7 24 -10 18 -79 -10
-118 -64 -261 -125 -329 -8 -9 -13 -19 -10 -22 8 -9 90 79 110 119 24 46 68
215 68 260 0 17 4 36 8 43 6 10 98 23 275 39 83 7 92 27 12 27 -5 0 -34 -3
-62 -7 -49 -6 -53 -5 -53 13 0 11 -9 25 -19 31 -24 12 -61 13 -61 2z"/>
</g>
<g id="part-3" class="char-part">
  <path d="M557 478 c-2 -18 -3 -34 -2 -36 1 -2 16 8 31 22 25 22 27 27 14 36
-26 17 -38 11 -43 -22z"/>
  <path d="M430 467 c0 -17 21 -37 38 -37 21 0 9 32 -15 41 -16 6 -23 5 -23 -4z"/>
  <path d="M522 424 c-200 -29 -203 -47 -3 -24 47 6 112 13 144 16 31 3 57 9 57
14 0 17 -60 15 -198 -6z"/>
</g>
<g id="part-4" class="char-part">
  <path d="M570 204 c0 -3 30 -37 67 -75 65 -68 67 -69 117 -69 83 0 87 15 11
40 -37 12 -96 42 -131 66 -35 24 -64 41 -64 38z"/>
  <path d="M372 134 c-34 -35 -60 -64 -57 -64 15 0 83 41 101 62 23 25 41 69 27
67 -4 -1 -36 -30 -71 -65z"/>
</g>
</g>
</svg>