<?xml version="1.0" standalone="no"?>
<!DOCTYPE svg PUBLIC "-//W3C//DTD SVG 20010904//EN"
 "http://www.w3.org/TR/2001/REC-SVG-20010904/DTD/svg10.dtd">
<svg version="1.0" xmlns="http://www.w3.org/2000/svg"
 width="96.000000pt" height="68.000000pt" viewBox="0 0 96.000000 68.000000"
 preserveAspectRatio="xMidYMid meet">
<metadata>
Created by potrace 1.16, written by Peter Selinger 2001-2019
Combined from part_0.svg through part_5.svg with named groups
</metadata>
<g transform="translate(0.000000,68.000000) scale(0.100000,-0.100000)" fill="#000000" stroke="none">
<g id="part-0" class="char-part">
  <path d="M584 575 c-12 -9 -45 -25 -75 -36 l-54 -20 43 6 c41 5 42 5 42 -25 0
-29 -1 -30 -49 -30 -55 0 -84 -8 -76 -21 3 -5 26 -6 50 -2 30 4 45 2 45 -5 0
-14 -44 -56 -92 -89 -21 -14 -38 -27 -38 -28 0 -7 46 9 65 22 29 19 34 17 51
-22 12 -28 19 -34 37 -31 12 3 43 8 70 11 26 3 45 10 43 14 -3 5 1 17 9 27 19
25 19 31 -5 44 -15 8 -35 7 -77 -4 -31 -8 -60 -13 -65 -10 -5 3 8 23 28 44 32
34 40 37 63 29 22 -9 92 -61 129 -96 15 -15 90 -17 110 -4 9 6 -2 12 -35 20
-53 14 -173 77 -173 91 0 6 34 10 76 10 56 0 75 3 71 13 -4 13 -74 16 -145 5
-38 -6 -42 -4 -37 12 4 12 -1 22 -12 28 -19 11 -23 10 63 27 14 3 24 11 21 18
-5 18 -59 19 -83 2z m24 -227 c-2 -19 -10 -24 -45 -26 -37 -3 -43 0 -43 17 0
19 2 20 78 29 8 1 12 -6 10 -20z"/>
  <path d="M297 534 c-3 -3 -36 -7 -74 -8 -53 -2 -67 -6 -63 -17 3 -8 5 -66 5
-129 0 -130 -7 -122 85 -101 25 6 58 10 74 11 l28 0 -4 -62 c-2 -35 -11 -76
-19 -93 -12 -25 -20 -30 -47 -27 l-33 2 23 -30 c45 -61 81 -27 109 103 9 45
19 89 21 97 2 10 -12 20 -44 30 -59 19 -66 46 -13 56 41 7 37 24 -6 24 -22 0
-29 5 -29 20 0 14 7 20 23 20 42 0 52 17 13 24 -26 5 -36 12 -36 25 0 14 10
20 45 25 64 10 62 36 -3 36 -27 0 -51 -3 -55 -6z m-24 -68 c-3 -16 -13 -26
-29 -29 -21 -4 -24 0 -24 24 0 25 4 29 29 29 24 0 28 -3 24 -24z m-5 -68 c-2
-15 -10 -23 -23 -23 -13 0 -21 8 -23 23 -3 18 1 22 23 22 22 0 26 -4 23 -22z
m5 -51 c-2 -4 -3 -14 -3 -22 0 -10 -10 -15 -30 -15 -23 0 -30 5 -30 19 0 19
20 29 50 26 8 -1 14 -5 13 -8z"/>
  <path d="M605 274 c-55 -8 -118 -12 -141 -10 l-41 5 -7 -96 c-4 -55 -3 -100 3
-106 14 -14 23 9 32 90 5 42 10 77 12 79 1 2 56 9 121 16 101 10 119 10 127
-3 10 -16 12 -77 2 -132 -6 -37 -7 -39 -39 -35 -19 2 -34 2 -34 0 0 -2 9 -17
21 -33 42 -60 93 -24 103 73 4 35 9 79 12 98 9 67 -20 76 -171 54z"/>
  <path d="M287 253 c-9 -8 16 -43 30 -43 7 0 13 6 13 13 0 14 -35 39 -43 30z"/>
  <path d="M160 232 c0 -4 7 -18 16 -30 18 -26 39 -20 24 7 -10 19 -40 36 -40
23z"/>
  <path d="M230 220 c12 -23 40 -27 40 -6 0 8 -7 17 -16 20 -28 11 -35 7 -24
-14z"/>
  <path d="M106 208 c-10 -39 -7 -68 8 -68 15 0 26 42 19 71 -7 26 -19 24 -27
-3z"/>
  <path d="M605 219 c-16 -4 -51 -7 -76 -8 l-46 -1 21 -45 c12 -27 26 -43 33
-40 7 2 35 7 63 11 39 5 50 10 50 25 0 10 5 21 10 24 16 10 12 32 -7 37 -10 2
-31 1 -48 -3z m3 -41 c-5 -39 -77 -35 -78 4 0 6 23 11 68 17 8 0 12 -7 10 -21z"/>
</g>
<g id="part-1" class="char-part">
  <path d="M305 530 c-16 -4 -56 -8 -88 -9 -56 -1 -58 -2 -50 -23 9 -25 10 -131
3 -188 -5 -32 -3 -35 20 -33 70 4 140 17 140 25 0 6 -24 7 -60 3 l-61 -7 3 98
3 99 69 7 c96 9 124 17 105 29 -16 10 -41 10 -84 -1z"/>
</g>
<g id="part-2" class="char-part">
  <path d="M280 251 c0 -5 7 -17 16 -25 8 -9 20 -16 25 -16 17 0 9 29 -10 40
-24 12 -31 13 -31 1z"/>
  <path d="M106 218 c-11 -41 -7 -78 8 -78 15 0 32 72 21 90 -10 17 -22 12 -29
-12z"/>
  <path d="M160 237 c0 -3 5 -18 12 -32 12 -28 41 -35 36 -9 -3 15 -48 53 -48
41z"/>
  <path d="M235 216 c21 -32 37 -34 33 -3 -2 14 -11 23 -26 25 -23 4 -23 3 -7
-22z"/>
</g>
<g id="part-3" class="char-part">
  <path d="M594 580 c-5 -5 -38 -20 -74 -34 -71 -27 -55 -34 30 -12 30 7 72 17
93 20 32 6 36 10 27 22 -14 16 -61 19 -76 4z"/>
</g>
<g id="part-4" class="char-part">
  <path d="M553 532 c-6 -4 -13 -18 -14 -32 -3 -18 -11 -26 -29 -28 -89 -9 -113
-14 -100 -22 8 -5 37 -6 64 -3 l51 6 -35 -38 c-19 -21 -53 -51 -75 -67 -32
-24 -35 -29 -15 -23 40 11 113 64 140 101 32 44 53 40 139 -32 55 -46 71 -54
106 -54 64 0 74 15 18 29 -51 13 -183 80 -183 93 0 4 36 8 81 8 60 0 80 3 76
13 -4 13 -74 16 -145 5 -39 -6 -42 -4 -37 12 7 21 -23 43 -42 32z"/>
</g>
<g id="part-5" class="char-part">
  <path d="M710 266 c0 -8 4 -17 8 -20 6 -4 7 -116 0 -163 -1 -12 -18 -17 -46
-14 -20 3 8 -37 30 -42 25 -7 47 33 57 105 8 54 7 65 -7 77 -16 13 -16 13 -1
8 25 -8 31 37 8 51 -14 9 -19 8 -22 -6 -4 -16 -5 -16 -6 1 -1 20 -21 23 -21 3z
m10 -210 c0 -3 -4 -8 -10 -11 -5 -3 -10 -1 -10 4 0 6 5 11 10 11 6 0 10 -2 10
-4z"/>
  <path d="M426 245 c4 -9 11 -14 16 -13 15 5 11 23 -6 26 -11 2 -14 -2 -10 -13z"/>
  <path d="M470 248 c0 -11 22 -10 39 1 10 7 7 9 -12 8 -15 -1 -27 -5 -27 -9z"/>
  <path d="M568 253 c7 -3 16 -2 19 1 4 3 -2 6 -13 5 -11 0 -14 -3 -6 -6z"/>
  <path d="M435 180 c4 -29 2 -38 -3 -25 -8 17 -9 15 -15 -13 -7 -35 5 -83 17
-64 14 22 19 109 7 128 -9 15 -10 10 -6 -26z"/>
</g>
</g>
</svg>