<?xml version="1.0" standalone="no"?>
<!DOCTYPE svg PUBLIC "-//W3C//DTD SVG 20010904//EN"
 "http://www.w3.org/TR/2001/REC-SVG-20010904/DTD/svg10.dtd">
<svg version="1.0" xmlns="http://www.w3.org/2000/svg"
 width="96.000000pt" height="68.000000pt" viewBox="0 0 96.000000 68.000000"
 preserveAspectRatio="xMidYMid meet">
<metadata>
Created by potrace 1.16, written by Peter Selinger 2001-2019
Combined from part_0.svg through part_5.svg with named groups
</metadata>
<g transform="translate(0.000000,68.000000) scale(0.100000,-0.100000)" fill="#000000" stroke="none">
<g id="part-0" class="char-part">
  <path d="M389 613 c0 -5 0 -63 1 -130 1 -68 0 -123 -2 -123 -75 -11 -128 -11
-128 1 0 8 -3 23 -6 35 -5 19 -1 22 41 26 26 3 52 11 58 18 10 10 2 11 -35 7
-25 -4 -52 -8 -60 -9 -8 -2 -14 8 -16 23 -3 24 1 28 45 38 68 17 80 25 64 45
-19 23 -49 20 -83 -9 -19 -16 -42 -25 -64 -25 -19 0 -34 -1 -34 -2 0 -2 15
-43 34 -93 l33 -90 59 3 c32 2 66 5 75 8 12 3 18 -3 21 -25 l4 -30 -73 -6
c-40 -4 -73 -10 -73 -14 0 -3 10 -11 23 -17 65 -33 85 -46 106 -68 l22 -24
-58 -27 c-32 -16 -85 -36 -118 -47 l-60 -18 67 4 c48 3 86 12 134 35 l67 31
73 -50 c67 -46 77 -50 132 -50 69 0 164 19 156 32 -3 4 -17 8 -30 8 -55 0
-294 71 -294 88 0 2 27 30 61 60 57 52 60 57 42 70 -13 10 -35 12 -86 7 -69
-6 -69 -6 -62 17 4 13 10 25 12 28 3 3 43 5 90 6 72 0 88 3 99 19 8 10 14 26
14 34 0 9 13 41 29 73 l29 56 -38 17 c-35 16 -40 16 -101 -4 l-64 -21 55 2 55
3 3 -33 c2 -18 0 -31 -5 -30 -22 6 -113 -14 -107 -23 4 -7 23 -8 49 -4 48 7
59 -2 46 -37 -8 -21 -14 -23 -82 -23 l-74 0 3 85 c1 47 5 97 8 112 4 20 0 29
-15 37 -23 13 -41 14 -42 4z m121 -341 c0 -5 -18 -28 -39 -51 l-39 -42 -53 32
-53 33 30 8 c28 8 115 24 142 27 6 0 12 -3 12 -7z"/>
</g>
<g id="part-1" class="char-part">
  <path d="M268 530 c-16 -15 -28 -30 -28 -33 0 -6 99 19 107 27 10 9 -18 36
-36 35 -9 -1 -28 -14 -43 -29z"/>
</g>
<g id="part-2" class="char-part">
  <path d="M557 544 c-75 -20 -77 -24 -9 -20 l62 4 0 -29 c0 -33 -3 -35 -73 -44
-29 -4 -45 -10 -41 -17 4 -6 25 -8 55 -4 53 7 56 3 37 -39 -7 -17 -17 -24 -27
-20 -8 3 -77 -2 -154 -11 -76 -9 -140 -15 -141 -13 -2 2 -7 19 -11 37 -6 29
-4 32 18 32 41 0 87 12 87 23 0 6 -15 7 -37 4 -81 -13 -77 -14 -83 23 -4 31
-9 35 -39 38 -39 4 -39 10 8 -112 33 -86 39 -96 49 -80 8 12 296 37 328 28 26
-7 36 6 63 79 11 32 28 68 37 82 14 22 14 24 -3 33 -33 18 -78 20 -126 6z"/>
</g>
<g id="part-3" class="char-part">
  <path d="M388 463 c4 -175 12 -209 35 -153 10 22 16 81 18 163 4 133 0 146
-41 147 -13 0 -15 -23 -12 -157z"/>
</g>
<g id="part-4" class="char-part">
  <path d="M440 289 c-25 -5 -81 -13 -125 -17 l-80 -8 50 -26 c65 -35 110 -72
102 -85 -10 -16 -73 -44 -157 -70 l-75 -24 72 4 c53 3 88 12 139 36 l67 31 75
-50 c65 -44 80 -50 125 -50 29 1 79 7 112 14 67 15 73 11 -83 45 -51 12 -116
31 -143 42 l-50 22 62 63 c58 58 60 63 41 73 -24 13 -68 13 -132 0z m70 -18
c0 -5 -17 -28 -38 -52 l-39 -43 -51 34 c-29 18 -50 35 -49 37 5 4 135 30 160
32 9 0 17 -3 17 -8z"/>
</g>
</g>
</svg>