<?xml version="1.0" standalone="no"?>
<!DOCTYPE svg PUBLIC "-//W3C//DTD SVG 20010904//EN"
 "http://www.w3.org/TR/2001/REC-SVG-20010904/DTD/svg10.dtd">
<svg version="1.0" xmlns="http://www.w3.org/2000/svg"
 width="96.000000pt" height="68.000000pt" viewBox="0 0 96.000000 68.000000"
 preserveAspectRatio="xMidYMid meet">
<metadata>
Created by potrace 1.16, written by Peter Selinger 2001-2019
Combined from part_0.svg through part_5.svg with named groups
</metadata>
<g transform="translate(0.000000,68.000000) scale(0.100000,-0.100000)" fill="#000000" stroke="none">
<g id="part-0" class="char-part">
  <path d="M230 609 c0 -5 13 -23 28 -41 19 -21 34 -29 45 -25 19 7 23 42 6 53
-20 12 -79 22 -79 13z"/>
  <path d="M421 577 c-10 -24 -26 -51 -36 -61 -29 -28 -8 -30 25 -2 18 14 35 24
40 21 4 -2 42 2 85 10 42 8 79 15 82 15 3 0 3 -11 1 -25 -6 -30 -9 -29 43 -8
l42 16 -23 19 c-26 21 -62 22 -148 4 -57 -12 -88 -7 -62 9 16 10 12 23 -10 35
-18 10 -22 6 -39 -33z"/>
  <path d="M285 492 c-23 -20 -54 -46 -69 -57 -27 -19 -28 -22 -15 -43 20 -32
31 -28 57 21 12 23 33 55 47 71 21 25 32 47 23 46 -2 0 -21 -17 -43 -38z"/>
  <path d="M480 506 c0 -22 -49 -75 -89 -96 -20 -10 -30 -19 -23 -20 21 0 80 27
104 49 12 12 28 21 36 21 8 0 48 -18 89 -41 66 -37 79 -40 118 -34 45 6 72 25
38 25 -25 0 -127 27 -181 47 -28 10 -47 25 -53 40 -9 25 -39 32 -39 9z"/>
  <path d="M421 365 c-51 -7 -106 -11 -122 -8 -28 4 -40 -9 -19 -22 12 -7 13
-85 2 -135 -4 -19 -6 -45 -4 -58 3 -20 7 -22 40 -16 l36 7 -15 -24 c-9 -13
-39 -39 -68 -58 -28 -19 -50 -36 -48 -38 5 -4 80 29 141 63 43 24 47 29 32 39
-14 11 -12 13 15 19 52 10 144 7 157 -6 6 -6 15 -8 19 -4 10 10 22 229 12 239
-12 15 -82 16 -178 2z m129 -39 c0 -21 -5 -24 -62 -30 -35 -3 -87 -9 -115 -12
l-53 -6 0 30 c0 30 1 31 53 35 28 2 80 4 115 5 59 2 62 1 62 -22z m0 -69 c0
-15 -6 -23 -17 -23 -10 0 -62 -4 -115 -8 -94 -7 -98 -6 -98 13 0 27 32 34 183
39 43 2 47 0 47 -21z m0 -61 c0 -23 -5 -25 -64 -31 -35 -4 -88 -8 -117 -9 -48
-1 -54 1 -57 21 -3 20 2 21 95 28 54 3 105 8 113 9 8 2 18 4 23 5 4 0 7 -10 7
-23z"/>
  <path d="M539 73 c62 -58 69 -63 81 -63 6 0 10 12 8 27 -2 20 -14 32 -48 49
-72 37 -90 31 -41 -13z"/>
</g>
<g id="part-1" class="char-part">
  <path d="M247 585 c29 -39 73 -45 73 -9 0 16 -39 34 -71 34 -19 0 -19 -1 -2
-25z"/>
</g>
<g id="part-2" class="char-part">
  <path d="M469 487 c-8 -17 -37 -47 -63 -64 -27 -18 -41 -33 -32 -33 22 0 89
34 105 54 20 24 36 20 116 -24 80 -44 83 -45 140 -28 l40 11 -65 14 c-105 21
-180 53 -191 80 -12 32 -31 28 -50 -10z"/>
</g>
<g id="part-3" class="char-part">
  <path d="M420 364 c-52 -7 -108 -11 -124 -8 -26 6 -28 4 -20 -12 5 -11 8 -54
7 -96 -3 -78 6 -96 31 -63 13 17 229 39 234 24 2 -5 14 -9 27 -9 21 0 23 5 28
78 7 111 4 113 -183 86z m130 -38 c0 -22 -5 -24 -67 -30 -38 -4 -90 -9 -116
-12 l-49 -6 4 28 c3 27 7 29 58 35 30 3 81 6 113 7 54 2 57 1 57 -22z m0 -65
c0 -11 -3 -22 -7 -24 -5 -3 -57 -8 -116 -12 l-109 -7 4 23 c3 22 9 25 68 30
139 12 160 11 160 -10z"/>
</g>
<g id="part-4" class="char-part">
  <path d="M563 193 c-7 -3 -13 -11 -13 -19 0 -8 -9 -13 -22 -12 -13 1 -67 -2
-120 -6 -69 -6 -98 -5 -98 3 0 6 -9 11 -20 11 -16 0 -18 -4 -11 -22 5 -14 16
-22 27 -21 118 12 252 14 258 4 12 -19 36 7 36 39 0 25 -10 32 -37 23z"/>
</g>
<g id="part-5" class="char-part">
  <path d="M340 95 c-7 -14 -16 -25 -20 -25 -3 0 -15 -7 -26 -15 -10 -9 2 -6 28
7 26 12 44 26 41 31 -4 6 0 8 10 4 8 -3 17 0 20 7 10 24 -39 16 -53 -9z"/>
  <path d="M519 97 c7 -10 20 -17 29 -17 8 0 12 -3 9 -7 -5 -5 49 -53 60 -53 2
0 3 9 3 20 0 13 -11 25 -27 33 -16 6 -31 16 -35 22 -4 5 -8 6 -8 2 0 -4 -10
-2 -22 4 -21 11 -22 11 -9 -4z"/>
</g>
</g>
</svg>