<?xml version="1.0" standalone="no"?>
<!DOCTYPE svg PUBLIC "-//W3C//DTD SVG 20010904//EN"
 "http://www.w3.org/TR/2001/REC-SVG-20010904/DTD/svg10.dtd">
<svg version="1.0" xmlns="http://www.w3.org/2000/svg"
 width="96.000000pt" height="68.000000pt" viewBox="0 0 96.000000 68.000000"
 preserveAspectRatio="xMidYMid meet">
<metadata>
Created by potrace 1.16, written by Peter Selinger 2001-2019
Combined from part_0.svg through part_5.svg with named groups
</metadata>
<g transform="translate(0.000000,68.000000) scale(0.100000,-0.100000)" fill="#000000" stroke="none">
<g id="part-0" class="char-part">
  <path d="M455 539 c-16 -5 -49 -7 -72 -4 -34 5 -43 3 -43 -9 0 -8 5 -18 10
-21 16 -10 12 -244 -5 -300 -10 -36 -11 -52 -3 -62 17 -21 29 -16 102 37 74
54 87 58 106 35 16 -19 30 -10 30 19 0 16 -12 29 -39 44 -49 28 -71 29 -48 4
10 -10 17 -23 17 -28 0 -8 -95 -54 -112 -54 -9 0 -10 75 -2 118 5 26 11 30 46
35 23 3 49 0 59 -6 24 -15 28 -9 50 70 10 37 21 77 25 89 10 36 -54 54 -121
33z m55 -44 c0 -27 -4 -35 -17 -35 -10 0 -34 -3 -54 -6 l-35 -6 4 35 c4 32 8
36 36 40 68 8 66 9 66 -28z m-7 -82 c-4 -28 -10 -33 -32 -33 -14 0 -36 -3 -48
-6 -20 -6 -23 -3 -23 24 0 28 4 32 38 37 20 4 44 7 52 9 8 1 16 2 16 2 1 -1
-1 -16 -3 -33z"/>
  <path d="M730 499 c-14 -6 -45 -8 -70 -5 l-45 6 2 -97 c10 -387 30 -443 46
-134 l11 190 25 10 c14 6 37 11 51 13 24 3 25 2 23 -60 -2 -70 -15 -96 -45
-86 -17 5 -18 3 -9 -13 5 -11 17 -26 27 -33 14 -13 19 -11 39 12 13 15 26 46
30 70 4 23 14 60 21 80 12 34 11 39 -6 48 -23 12 -67 12 -100 -1z"/>
  <path d="M235 490 c-11 -5 -48 -9 -83 -9 l-63 -1 20 -27 c11 -16 25 -54 31
-86 7 -36 18 -61 28 -64 9 -4 18 -1 20 5 2 7 25 12 59 12 47 0 54 2 49 17 -4
9 4 45 16 80 20 56 21 65 8 73 -18 12 -58 12 -85 0z m15 -59 c0 -50 -17 -81
-44 -81 -19 0 -25 6 -30 36 -4 19 -10 42 -12 49 -4 9 4 15 23 18 61 9 63 8 63
-22z"/>
</g>
<g id="part-1" class="char-part">
  <path d="M225 484 c-25 -10 -56 -13 -82 -10 -46 6 -51 3 -28 -20 8 -8 19 -41
26 -73 14 -74 25 -93 40 -68 7 12 23 17 59 17 48 0 50 1 50 28 0 15 9 46 19
68 10 23 16 46 12 52 -11 19 -55 21 -96 6z m29 -32 c-1 -7 -2 -32 -2 -57 -2
-44 -2 -45 -37 -45 -31 0 -35 3 -44 38 -16 54 -14 61 17 68 15 3 32 7 37 9 16
5 30 -1 29 -13z"/>
</g>
<g id="part-2" class="char-part">
  <path d="M470 543 c-27 -8 -62 -11 -89 -8 -40 6 -43 5 -36 -12 5 -10 10 -53
13 -96 l4 -79 62 3 c33 1 69 -1 79 -6 10 -4 20 -5 23 -2 11 10 55 178 49 186
-12 21 -61 27 -105 14z m40 -48 c0 -28 -4 -35 -19 -35 -10 0 -33 -3 -50 -6
-32 -7 -32 -6 -29 27 2 29 8 35 33 40 61 13 65 12 65 -26z m-8 -85 c-3 -20
-10 -30 -22 -30 -10 0 -32 -3 -49 -6 -28 -6 -31 -4 -31 19 0 30 11 38 60 47
45 8 48 7 42 -30z"/>
</g>
<g id="part-3" class="char-part">
  <path d="M512 256 c37 -51 56 -63 64 -41 9 23 -2 43 -38 65 -53 32 -61 24 -26
-24z"/>
</g>
<g id="part-4" class="char-part">
  <path d="M617 403 c11 -396 30 -446 49 -120 6 111 10 203 9 204 -1 2 -15 5
-31 9 l-29 6 2 -99z"/>
</g>
</g>
</svg>