<?xml version="1.0" standalone="no"?>
<!DOCTYPE svg PUBLIC "-//W3C//DTD SVG 20010904//EN"
 "http://www.w3.org/TR/2001/REC-SVG-20010904/DTD/svg10.dtd">
<svg version="1.0" xmlns="http://www.w3.org/2000/svg"
 width="96.000000pt" height="68.000000pt" viewBox="0 0 96.000000 68.000000"
 preserveAspectRatio="xMidYMid meet">
<metadata>
Created by potrace 1.16, written by Peter Selinger 2001-2019
Combined from part_0.svg through part_5.svg with named groups
</metadata>
<g transform="translate(0.000000,68.000000) scale(0.100000,-0.100000)" fill="#000000" stroke="none">
<g id="part-0" class="char-part">
  <path d="M648 593 c-7 -16 -23 -40 -37 -55 -41 -46 -17 -42 54 9 59 43 64 49
49 60 -29 21 -53 15 -66 -14z"/>
  <path d="M430 576 c0 -15 55 -66 71 -66 27 0 34 20 13 40 -18 17 -84 38 -84
26z"/>
  <path d="M565 474 c-38 -7 -87 -13 -107 -13 -21 -1 -38 -5 -38 -11 0 -6 27
-10 60 -10 l60 0 0 -40 c0 -22 -3 -39 -7 -39 -5 1 -32 1 -60 0 -74 -1 -67 -21
7 -21 l60 0 0 -34 c0 -32 -2 -34 -46 -40 -26 -3 -66 -6 -90 -6 -24 0 -44 -4
-44 -9 0 -16 87 -24 121 -12 55 19 59 16 60 -46 1 -32 4 -85 8 -117 5 -53 8
-57 20 -42 9 11 16 52 19 116 5 116 0 112 146 109 56 -1 91 2 94 9 5 17 -55
24 -147 17 l-88 -7 -1 36 c-1 33 1 36 27 36 54 0 121 13 115 22 -3 5 -34 8
-67 7 l-62 -3 -6 37 c-6 37 -6 37 30 37 54 0 118 20 100 31 -19 12 -79 10
-164 -7z"/>
  <path d="M240 450 c-14 -4 -51 -8 -84 -9 l-58 -1 16 -24 c8 -14 19 -50 22 -80
10 -84 15 -87 107 -74 63 9 76 14 72 27 -2 9 6 46 19 84 23 65 23 68 6 77 -22
12 -64 11 -100 0z m30 -59 c0 -16 -3 -43 -6 -60 -6 -27 -10 -31 -40 -31 -35 0
-35 -1 -48 77 -5 31 -4 32 32 36 20 2 43 4 50 5 7 1 12 -10 12 -27z"/>
</g>
<g id="part-1" class="char-part">
  <path d="M235 444 c-28 -8 -67 -12 -89 -9 -34 5 -38 4 -31 -12 12 -27 35 -115
35 -133 0 -26 16 -43 31 -34 18 11 19 11 79 13 46 1 50 3 50 26 0 13 9 50 21
81 12 31 17 60 13 64 -17 17 -60 18 -109 4z m39 -81 c-4 -32 -7 -59 -8 -60 -1
-1 -20 -5 -43 -9 l-40 -6 -8 57 c-8 67 -2 75 63 75 l42 0 -6 -57z"/>
</g>
<g id="part-2" class="char-part">
  <path d="M653 603 c-3 -10 -21 -37 -40 -60 -19 -24 -29 -43 -22 -43 6 0 41 21
77 47 60 42 64 47 47 60 -26 18 -54 16 -62 -4z"/>
  <path d="M420 581 c0 -14 67 -71 82 -71 23 0 31 16 19 38 -9 17 -101 47 -101
33z"/>
  <path d="M532 471 c-63 -9 -110 -19 -106 -24 10 -10 126 -8 209 3 87 13 107
19 100 31 -8 12 -68 9 -203 -10z"/>
</g>
<g id="part-3" class="char-part">
  <path d="M540 407 c0 -31 -4 -35 -31 -41 -17 -3 -44 -6 -60 -6 -16 0 -29 -4
-29 -10 0 -6 27 -10 60 -10 l60 0 0 -34 0 -34 -87 -7 c-110 -8 -115 -10 -78
-25 28 -11 115 -7 152 7 10 4 13 -11 14 -68 0 -41 4 -94 7 -118 6 -40 8 -42
21 -27 9 11 16 52 19 116 5 116 -3 110 145 110 53 0 97 4 97 9 0 17 -60 23
-152 16 l-89 -7 3 33 c3 34 3 34 71 43 37 4 67 12 67 16 0 13 -36 18 -85 12
-47 -5 -47 -5 -43 24 3 26 0 29 -29 32 -31 3 -33 2 -33 -31z"/>
</g>
</g>
</svg>