<?xml version="1.0" standalone="no"?>
<!DOCTYPE svg PUBLIC "-//W3C//DTD SVG 20010904//EN"
 "http://www.w3.org/TR/2001/REC-SVG-20010904/DTD/svg10.dtd">
<svg version="1.0" xmlns="http://www.w3.org/2000/svg"
 width="96.000000pt" height="68.000000pt" viewBox="0 0 96.000000 68.000000"
 preserveAspectRatio="xMidYMid meet">
<metadata>
Created by potrace 1.16, written by Peter Selinger 2001-2019
Combined from part_0.svg through part_5.svg with named groups
</metadata>
<g transform="translate(0.000000,68.000000) scale(0.100000,-0.100000)" fill="#000000" stroke="none">
<g id="part-0" class="char-part">
  <path d="M604 578 c-4 -13 -18 -40 -33 -60 -21 -31 -31 -37 -51 -33 l-25 5 0
-124 c0 -68 3 -127 6 -131 4 -3 45 1 93 10 47 9 107 15 133 13 45 -3 48 -5 51
-32 5 -40 -16 -111 -39 -132 -13 -11 -28 -15 -49 -11 -36 8 -38 -2 -7 -31 36
-34 70 -28 106 20 19 26 51 181 40 194 -16 20 -58 22 -158 8 -131 -19 -141
-18 -141 6 0 16 7 20 38 20 65 0 142 12 142 23 0 9 -123 3 -162 -9 -13 -4 -18
0 -18 15 0 22 24 29 120 34 55 2 55 2 82 52 15 28 27 55 27 61 1 18 -56 37
-86 29 -16 -3 -44 -9 -63 -11 -38 -5 -40 -8 31 49 33 27 33 28 15 42 -28 21
-44 19 -52 -7z m91 -114 c0 -19 -3 -20 -118 -37 -35 -5 -38 -4 -35 16 3 19 12
23 62 29 32 4 61 10 64 13 11 11 27 -2 27 -21z m-15 -64 c-8 -16 -21 -20 -60
-20 -26 0 -55 -3 -64 -6 -11 -4 -16 0 -16 14 0 21 13 25 118 30 30 2 32 0 22
-18z"/>
  <path d="M299 558 c0 -2 -3 -16 -5 -32 -7 -39 -39 -105 -69 -140 -14 -16 -25
-32 -25 -36 0 -4 -26 -32 -57 -63 -40 -40 -52 -57 -40 -57 39 0 135 88 189
172 22 35 42 65 44 67 2 2 22 -10 43 -27 44 -36 68 -40 78 -15 8 21 -27 50
-72 59 -27 5 -32 9 -27 26 3 14 -2 26 -13 34 -16 12 -43 19 -46 12z"/>
  <path d="M311 352 c-56 -19 -52 -31 7 -21 66 13 83 19 77 29 -7 11 -33 9 -84
-8z"/>
  <path d="M343 280 c-12 -5 -49 -12 -82 -16 -34 -3 -61 -11 -61 -17 0 -9 42 -7
137 9 l43 7 -10 -29 c-6 -16 -19 -40 -29 -53 -17 -22 -21 -23 -51 -12 -18 6
-35 9 -37 7 -6 -5 96 -106 107 -106 16 0 12 46 -5 60 -12 10 -7 21 36 71 58
66 59 89 7 88 -18 0 -43 -4 -55 -9z"/>
  <path d="M670 225 c0 -15 34 -55 46 -55 15 0 18 18 6 36 -8 13 -52 29 -52 19z"/>
  <path d="M600 189 c12 -22 37 -35 47 -25 9 8 -27 46 -44 46 -11 0 -11 -4 -3
-21z"/>
  <path d="M438 178 c-24 -30 -24 -71 -1 -66 22 4 45 50 37 72 -8 21 -16 20 -36
-6z"/>
  <path d="M520 189 c0 -17 20 -49 30 -49 14 0 12 34 -2 48 -15 15 -28 15 -28 1z"/>
</g>
<g id="part-1" class="char-part">
  <path d="M292 504 c-16 -59 -64 -133 -138 -213 -38 -42 -50 -60 -34 -51 54 28
110 83 162 159 l55 81 46 -35 c54 -41 67 -43 67 -11 0 23 -16 34 -78 51 -13 4
-21 12 -19 18 7 19 -12 47 -31 47 -13 0 -21 -13 -30 -46z"/>
</g>
<g id="part-2" class="char-part">
  <path d="M240 184 c0 -11 108 -114 119 -114 17 0 13 45 -6 63 -20 17 -113 60
-113 51z"/>
</g>
<g id="part-3" class="char-part">
  <path d="M592 556 c-11 -24 -25 -47 -31 -50 -6 -4 -11 -12 -11 -17 0 -13 47
14 90 51 34 29 34 31 16 45 -31 24 -44 18 -64 -29z"/>
</g>
<g id="part-4" class="char-part">
  <path d="M640 498 c-14 -5 -53 -11 -88 -11 -47 -2 -61 -5 -57 -15 3 -8 5 -38
5 -68 l0 -55 76 7 c42 4 89 7 103 8 21 1 31 11 53 56 16 30 28 57 28 60 0 11
-49 30 -73 29 -12 0 -33 -5 -47 -11z m58 -35 c3 -18 -4 -21 -55 -28 -32 -3
-68 -9 -80 -12 -19 -4 -23 -1 -23 21 0 23 4 26 38 27 20 1 51 5 67 9 40 10 49
7 53 -17z m-17 -62 c-6 -11 -19 -19 -29 -19 -9 1 -38 -2 -64 -6 -43 -6 -48 -5
-48 12 0 16 11 21 73 28 39 5 73 9 75 8 2 -1 -1 -11 -7 -23z"/>
</g>
<g id="part-5" class="char-part">
  <path d="M687 204 c3 -8 12 -13 19 -10 9 3 11 -1 7 -12 -5 -14 -4 -15 8 -4 12
11 11 15 -5 28 -26 18 -37 18 -29 -2z"/>
  <path d="M600 203 c0 -12 28 -38 34 -32 2 2 -5 13 -15 23 -11 11 -19 15 -19 9z"/>
  <path d="M453 185 c-7 -8 -13 -19 -13 -25 0 -5 -5 -10 -11 -10 -8 0 -9 -4 0
-13 6 -8 9 -17 6 -21 -3 -3 3 1 12 9 10 8 18 29 19 45 1 17 1 30 0 30 0 -1 -7
-7 -13 -15z"/>
  <path d="M527 194 c-6 -10 20 -51 27 -43 2 2 -1 15 -8 28 -7 13 -16 20 -19 15z"/>
</g>
</g>
</svg>