<?xml version="1.0" standalone="no"?>
<!DOCTYPE svg PUBLIC "-//W3C//DTD SVG 20010904//EN"
 "http://www.w3.org/TR/2001/REC-SVG-20010904/DTD/svg10.dtd">
<svg version="1.0" xmlns="http://www.w3.org/2000/svg"
 width="96.000000pt" height="68.000000pt" viewBox="0 0 96.000000 68.000000"
 preserveAspectRatio="xMidYMid meet">
<metadata>
Created by potrace 1.16, written by Peter Selinger 2001-2019
Combined from part_0.svg through part_5.svg with named groups
</metadata>
<g transform="translate(0.000000,68.000000) scale(0.100000,-0.100000)" fill="#000000" stroke="none">
<g id="part-0" class="char-part">
  <path d="M266 546 c6 -53 6 -55 -20 -60 -14 -4 -38 -9 -53 -12 -37 -8 -11 -24
40 -24 32 0 37 -3 37 -24 0 -19 -6 -24 -37 -30 -21 -3 -51 -6 -66 -6 -25 0
-27 -2 -13 -15 8 -8 20 -40 27 -70 13 -60 24 -74 42 -56 6 6 19 11 29 11 14 0
18 -8 18 -35 0 -26 -4 -35 -17 -35 -41 0 -142 -23 -137 -31 5 -9 67 -6 127 7
l28 6 -7 -61 c-5 -43 -3 -65 6 -76 24 -29 40 1 40 76 l0 69 69 0 c70 0 100 13
60 25 -12 4 -45 4 -75 0 l-54 -6 0 35 0 35 49 -4 50 -4 17 52 c9 29 22 58 27
66 20 24 -21 43 -80 38 -50 -5 -53 -4 -53 18 0 21 6 25 45 31 70 10 69 39 -2
36 -32 -1 -33 0 -33 37 0 31 -5 40 -25 49 -42 19 -46 16 -39 -42z m122 -168
c-2 -19 -10 -24 -40 -26 -32 -3 -38 0 -38 17 0 22 12 29 53 30 24 1 28 -3 25
-21z m-108 -12 c0 -17 -7 -25 -22 -28 -36 -6 -58 2 -58 22 0 14 9 20 38 23 20
2 38 4 40 5 1 1 2 -9 2 -22z m106 -42 c-3 -9 -6 -20 -6 -25 0 -5 -16 -9 -35
-9 -28 0 -35 4 -35 19 0 19 16 26 64 30 13 1 16 -4 12 -15z m-106 -23 c0 -12
-9 -20 -27 -24 -16 -3 -29 -5 -29 -4 -1 1 -5 12 -8 25 -7 20 -4 22 28 22 29 0
36 -4 36 -19z"/>
  <path d="M770 514 c-6 -14 -22 -41 -36 -60 l-26 -34 51 -51 c41 -43 52 -49 57
-36 8 21 -10 43 -48 63 -15 8 -28 19 -28 23 0 5 19 28 41 50 35 34 40 43 29
56 -18 22 -29 19 -40 -11z"/>
  <path d="M640 496 c-6 -19 -20 -47 -32 -61 l-20 -26 28 -32 c16 -17 34 -37 41
-44 17 -19 33 -16 33 7 0 11 -3 20 -7 20 -5 0 -21 11 -38 24 l-29 23 42 48
c33 37 40 51 31 61 -19 23 -37 16 -49 -20z"/>
  <path d="M521 483 c-6 -21 -17 -48 -26 -60 -14 -21 -13 -25 17 -67 33 -45 58
-59 58 -31 0 15 -38 55 -52 55 -17 0 -7 29 26 70 35 45 37 70 5 70 -13 0 -21
-11 -28 -37z"/>
  <path d="M737 304 c-5 -5 -175 -19 -229 -19 -32 0 -58 -1 -58 -3 0 -1 6 -13
14 -25 8 -12 19 -53 26 -91 14 -83 17 -91 37 -75 8 7 54 14 102 17 85 4 88 3
104 -22 35 -53 62 -29 82 75 8 41 17 84 21 96 5 17 0 25 -24 37 -24 12 -67 18
-75 10z m31 -56 c3 -28 2 -28 -52 -28 -56 0 -56 0 -56 31 l0 30 53 -3 c48 -3
52 -5 55 -30z m-155 -4 c5 -29 -6 -36 -61 -38 -33 -1 -37 2 -40 26 -3 22 1 27
25 31 64 9 71 8 76 -19z m153 -66 c-3 -13 -6 -28 -6 -33 0 -6 -23 -11 -52 -10
-49 0 -53 2 -53 25 0 26 23 37 84 39 30 1 33 -1 27 -21z m-148 -21 c3 -24 0
-27 -27 -28 -17 -1 -39 -2 -48 -3 -18 -1 -29 25 -20 47 2 7 23 12 48 12 40 0
44 -3 47 -28z"/>
</g>
<g id="part-1" class="char-part">
  <path d="M264 574 c3 -9 9 -33 12 -53 l6 -38 -52 -7 c-61 -8 -60 -17 2 -20 38
-1 43 -4 48 -28 6 -31 23 -26 34 9 7 22 13 25 69 37 41 10 21 29 -25 24 l-40
-4 5 33 c6 37 -12 63 -45 63 -14 0 -18 -5 -14 -16z"/>
</g>
<g id="part-2" class="char-part">
  <path d="M270 226 l0 -34 -87 -12 c-65 -10 -82 -15 -69 -22 16 -9 75 -5 134 9
22 5 22 4 16 -49 -8 -65 8 -107 32 -87 9 8 14 32 14 74 0 71 4 75 92 75 26 0
50 4 53 10 9 15 -41 23 -96 16 l-49 -7 0 31 c0 23 -4 30 -20 30 -16 0 -20 -7
-20 -34z"/>
</g>
<g id="part-3" class="char-part">
  <path d="M525 503 c-3 -15 -15 -44 -25 -65 l-19 -39 32 -44 c18 -24 40 -44 50
-44 27 -1 20 18 -20 55 l-36 33 36 47 c43 54 44 60 18 74 -27 14 -28 13 -36
-17z"/>
</g>
<g id="part-4" class="char-part">
  <path d="M770 524 c0 -8 -14 -35 -31 -60 l-30 -44 50 -52 c43 -44 51 -49 57
-33 7 18 -14 42 -62 71 -18 11 -16 15 25 58 38 38 42 47 31 61 -16 20 -40 19
-40 -1z"/>
</g>
<g id="part-5" class="char-part">
  <path d="M770 299 c0 -6 -11 -8 -29 -4 -17 3 -32 2 -36 -4 -4 -7 7 -11 29 -11
39 0 46 -10 38 -57 -2 -19 1 -39 8 -48 7 -9 8 -15 2 -15 -5 0 -13 -12 -17 -27
-4 -16 -10 -22 -12 -15 -6 15 -43 16 -43 1 0 -5 5 -7 10 -4 6 3 14 -5 20 -19
11 -31 35 -34 50 -7 12 24 13 41 0 21 -5 -8 -11 -12 -15 -9 -3 3 4 16 15 29
11 13 21 32 22 44 1 12 2 28 3 36 0 8 4 20 7 26 12 18 -3 51 -28 63 -17 7 -24
7 -24 0z"/>
  <path d="M605 279 l-20 -9 20 1 c34 2 41 -1 25 -11 -12 -8 -13 -14 -3 -41 10
-25 10 -30 1 -21 -15 15 -28 15 -28 1 0 -5 5 -7 10 -4 9 5 12 -1 9 -21 0 -4 5
-11 13 -15 10 -7 10 -9 -2 -9 -13 0 -13 -2 -1 -9 12 -8 8 -11 -15 -16 -51 -12
-50 -12 14 -13 34 0 64 3 67 7 2 4 -6 7 -18 6 -26 -2 -38 29 -24 63 8 18 7 25
-8 36 -14 10 -15 15 -5 21 9 5 11 4 6 -3 -4 -7 -2 -12 3 -12 14 0 14 16 1 41
-12 21 -16 22 -45 8z"/>
  <path d="M475 243 c5 -18 14 -33 18 -33 5 0 6 -4 3 -9 -3 -5 1 -11 9 -15 17
-6 21 9 5 19 -5 3 -10 15 -10 25 0 10 -6 21 -12 23 -8 3 -7 6 4 6 9 1 19 5 22
10 3 4 -7 8 -22 7 -26 -1 -27 -2 -17 -33z"/>
  <path d="M700 210 c-12 -8 -11 -10 8 -10 12 0 22 5 22 10 0 13 -11 13 -30 0z"/>
  <path d="M568 193 c7 -3 16 -2 19 1 4 3 -2 6 -13 5 -11 0 -14 -3 -6 -6z"/>
  <path d="M504 146 c-3 -14 -1 -33 4 -43 10 -17 11 -17 18 1 5 12 3 21 -3 23
-6 2 -9 13 -6 23 3 11 3 20 -1 20 -3 0 -8 -11 -12 -24z"/>
</g>
</g>
</svg>