<?xml version="1.0" standalone="no"?>
<!DOCTYPE svg PUBLIC "-//W3C//DTD SVG 20010904//EN"
 "http://www.w3.org/TR/2001/REC-SVG-20010904/DTD/svg10.dtd">
<svg version="1.0" xmlns="http://www.w3.org/2000/svg"
 width="96.000000pt" height="68.000000pt" viewBox="0 0 96.000000 68.000000"
 preserveAspectRatio="xMidYMid meet">
<metadata>
Created by potrace 1.16, written by Peter Selinger 2001-2019
Combined from part_0.svg through part_5.svg with named groups
</metadata>
<g transform="translate(0.000000,68.000000) scale(0.100000,-0.100000)" fill="#000000" stroke="none">
<g id="part-0" class="char-part">
  <path d="M405 611 c7 -40 6 -41 -23 -41 -43 0 -92 -11 -92 -21 0 -5 27 -9 59
-9 52 0 61 -3 66 -21 4 -11 5 -22 3 -24 -1 -1 -32 -7 -68 -13 l-65 -9 68 -2
c64 -1 67 -2 67 -26 0 -22 -4 -25 -38 -25 -84 0 -191 -13 -185 -23 3 -6 47 -7
114 -2 104 6 109 6 109 -13 0 -23 -25 -32 -87 -32 -24 0 -43 -4 -43 -10 0 -6
28 -10 65 -10 61 0 84 -11 50 -24 -8 -3 -15 -16 -15 -30 0 -28 -16 -36 -74
-36 -75 0 -196 -13 -196 -21 0 -15 76 -19 154 -9 44 5 81 8 83 6 3 -2 -3 -16
-13 -30 -9 -15 -15 -28 -13 -30 2 -2 24 -8 48 -13 25 -4 46 -13 48 -18 4 -12
-59 -41 -127 -60 l-45 -13 35 -1 c42 -1 123 20 168 43 33 17 34 17 102 -18 65
-34 120 -46 120 -28 0 18 -52 52 -102 68 -29 10 -54 18 -56 20 -2 1 12 22 30
47 l33 46 110 2 c61 1 115 3 122 3 23 2 24 15 2 26 -16 9 -52 11 -126 6 -87
-6 -106 -5 -119 8 -21 21 -31 20 -44 -4 -8 -15 -21 -20 -55 -20 -42 0 -58 11
-35 25 6 4 8 10 5 15 -3 5 -1 18 5 29 9 17 23 21 88 23 67 3 77 5 74 20 -6 35
17 58 56 58 20 0 54 3 75 7 55 9 26 23 -47 23 -51 0 -57 2 -46 15 10 12 10 18
-1 31 -11 14 -27 15 -101 9 -57 -4 -88 -3 -88 4 0 23 33 38 95 44 72 7 89 13
79 29 -5 7 -34 8 -86 4 l-79 -7 7 25 c6 27 2 31 -45 41 l-33 7 7 -41z m185
-150 c0 -14 -10 -20 -46 -25 -77 -10 -84 -9 -84 19 0 24 2 25 65 25 57 0 65
-2 65 -19z m-14 -52 c11 -19 -19 -38 -66 -41 -40 -3 -45 0 -48 19 -3 19 2 22
40 26 24 2 48 4 55 5 6 1 15 -3 19 -9z m-56 -191 c0 -7 -11 -25 -24 -40 -24
-28 -55 -35 -103 -22 -29 8 -29 15 2 48 20 21 33 26 75 26 33 0 50 -4 50 -12z"/>
</g>
<g id="part-1" class="char-part">
  <path d="M405 623 c21 -49 14 -58 -53 -61 -79 -4 -72 -22 9 -22 33 0 59 -4 59
-10 0 -5 9 -10 20 -10 11 0 20 6 20 14 0 9 24 16 80 22 100 11 103 30 3 26
l-72 -4 -3 29 c-3 24 -8 28 -37 31 -29 3 -33 1 -26 -15z"/>
</g>
<g id="part-2" class="char-part">
  <path d="M438 522 c-10 -2 -18 -9 -18 -16 0 -9 -25 -17 -72 -23 l-73 -10 73
-2 c70 -1 72 -2 72 -26 0 -23 -4 -25 -47 -25 -88 0 -183 -12 -176 -23 4 -6 46
-7 114 -3 104 7 109 6 109 -12 0 -23 -25 -32 -92 -32 -27 0 -48 -4 -48 -10 0
-6 30 -10 69 -10 56 0 70 -3 76 -17 6 -16 8 -16 25 4 16 20 27 23 95 23 71 0
76 1 70 20 -3 10 -1 28 5 40 9 17 21 20 70 20 32 0 65 3 74 6 32 12 3 24 -60
24 -62 0 -64 1 -52 20 21 33 -5 42 -104 35 -68 -5 -87 -3 -90 7 -1 8 -11 12
-20 10z m152 -61 c0 -15 -10 -20 -56 -26 -59 -7 -81 2 -71 29 5 12 21 16 67
16 52 0 60 -2 60 -19z m-10 -49 c0 -24 -29 -42 -70 -44 -40 -3 -45 0 -48 19
-3 19 2 22 40 26 24 2 51 4 61 5 9 1 17 -2 17 -6z"/>
</g>
<g id="part-3" class="char-part">
  <path d="M385 278 l-10 -33 -124 -7 c-146 -9 -156 -11 -116 -28 23 -9 51 -9
124 -1 52 6 96 9 98 7 3 -3 -2 -15 -11 -28 -23 -33 -21 -36 29 -44 25 -3 48
-10 50 -15 7 -11 -47 -39 -120 -61 l-60 -18 72 4 c50 3 86 12 122 30 l51 26
70 -35 c69 -35 125 -46 118 -23 -7 20 -53 50 -106 67 l-51 17 32 47 32 46 128
1 c126 0 150 7 105 31 -15 8 -53 9 -122 5 -82 -6 -105 -4 -121 8 -27 21 -45
20 -45 -2 0 -15 -9 -19 -51 -21 -47 -2 -50 -1 -40 17 7 13 7 22 -1 30 -22 22
-44 13 -53 -20z m135 -54 c0 -4 -10 -22 -22 -42 -21 -34 -22 -34 -71 -29 -27
4 -52 8 -54 11 -8 7 30 54 47 59 24 7 100 8 100 1z"/>
</g>
</g>
</svg>