<?xml version="1.0" standalone="no"?>
<!DOCTYPE svg PUBLIC "-//W3C//DTD SVG 20010904//EN"
 "http://www.w3.org/TR/2001/REC-SVG-20010904/DTD/svg10.dtd">
<svg version="1.0" xmlns="http://www.w3.org/2000/svg"
 width="96.000000pt" height="68.000000pt" viewBox="0 0 96.000000 68.000000"
 preserveAspectRatio="xMidYMid meet">
<metadata>
Created by potrace 1.16, written by Peter Selinger 2001-2019
Combined from part_0.svg through part_5.svg with named groups
</metadata>
<g transform="translate(0.000000,68.000000) scale(0.100000,-0.100000)" fill="#000000" stroke="none">
<g id="part-0" class="char-part">
  <path d="M355 601 c-8 -39 -76 -115 -154 -171 -82 -59 -55 -65 53 -12 82 40
97 44 324 73 93 12 108 20 73 39 -28 15 -63 12 -178 -14 -57 -13 -103 -20
-103 -16 0 3 16 21 35 40 49 47 44 70 -17 85 -23 6 -27 3 -33 -24z"/>
  <path d="M390 380 c-41 -10 -100 -22 -130 -27 -43 -8 -51 -11 -36 -18 12 -5
56 -3 110 7 50 8 92 14 94 13 1 -1 -23 -26 -54 -56 -30 -30 -67 -74 -81 -97
-25 -42 -25 -45 -10 -77 24 -50 65 -60 242 -60 145 0 152 1 208 28 l58 29 -19
32 c-10 17 -22 44 -26 59 -8 34 -26 36 -26 3 0 -35 -43 -81 -88 -94 -51 -15
-253 -16 -287 0 -63 28 -10 112 123 195 l75 47 -23 18 c-27 22 -34 22 -130 -2z"/>
</g>
<g id="part-1" class="char-part">
  <path d="M355 591 c-8 -35 -91 -125 -157 -170 -27 -18 -48 -34 -48 -36 0 -12
110 34 140 60 8 7 35 15 60 18 97 12 276 38 300 44 l25 6 -32 13 c-28 12 -46
11 -154 -11 -67 -14 -125 -23 -127 -20 -3 3 11 22 31 43 42 43 45 57 18 72
-33 17 -49 11 -56 -19z"/>
</g>
<g id="part-2" class="char-part">
  <path d="M388 380 c-37 -10 -93 -21 -124 -25 -56 -7 -64 -23 -14 -27 23 -1
116 15 165 29 12 3 -12 -27 -56 -74 -80 -84 -100 -124 -79 -163 20 -37 76 -53
203 -58 130 -5 218 8 272 39 35 21 35 21 19 51 -9 17 -22 47 -29 67 l-12 36
-12 -41 c-22 -81 -74 -104 -240 -104 -129 0 -161 11 -161 56 0 33 77 109 155
155 32 19 60 39 62 45 4 12 -40 34 -65 33 -9 0 -47 -9 -84 -19z"/>
</g>
</g>
</svg>