<?xml version="1.0" standalone="no"?>
<!DOCTYPE svg PUBLIC "-//W3C//DTD SVG 20010904//EN"
 "http://www.w3.org/TR/2001/REC-SVG-20010904/DTD/svg10.dtd">
<svg version="1.0" xmlns="http://www.w3.org/2000/svg"
 width="96.000000pt" height="68.000000pt" viewBox="0 0 96.000000 68.000000"
 preserveAspectRatio="xMidYMid meet">
<metadata>
Created by potrace 1.16, written by Peter Selinger 2001-2019
Combined from part_0.svg through part_5.svg with named groups
</metadata>
<g transform="translate(0.000000,68.000000) scale(0.100000,-0.100000)" fill="#000000" stroke="none">
<g id="part-0" class="char-part">
  <path d="M559 638 c-1 -2 -2 -20 -3 -41 -2 -20 -6 -40 -9 -43 -3 -4 -27 -9
-53 -12 -43 -4 -45 -6 -29 -18 11 -8 29 -14 42 -14 27 0 27 2 7 -45 -20 -50 0
-43 41 13 30 40 31 41 96 41 36 1 69 4 72 8 16 15 -18 33 -64 33 -53 0 -54 1
-38 32 9 18 8 24 -7 35 -15 11 -52 18 -55 11z"/>
  <path d="M250 600 c0 -6 7 -24 15 -39 14 -27 13 -29 -8 -35 -12 -3 -39 -6 -59
-6 -27 0 -38 -4 -38 -15 0 -32 55 -42 112 -20 13 5 20 0 28 -19 14 -39 40 -34
40 8 0 32 2 35 40 41 26 4 40 12 40 22 0 12 -8 14 -45 9 -43 -7 -45 -6 -45 16
0 13 -5 29 -12 36 -15 15 -68 16 -68 2z"/>
  <path d="M340 420 c-7 -24 -30 -60 -60 -92 -27 -29 -50 -57 -50 -61 0 -11 55
27 96 65 30 28 45 32 192 53 36 5 42 4 42 -13 0 -10 -5 -23 -12 -30 -6 -6 -9
-14 -6 -17 7 -7 118 46 118 56 0 4 -21 14 -46 23 -41 14 -54 14 -122 1 -107
-21 -115 -20 -102 6 9 17 8 23 -7 35 -27 20 -31 18 -43 -26z"/>
  <path d="M386 287 c5 -33 1 -55 -14 -88 -29 -62 -53 -87 -124 -125 -70 -37
-65 -44 11 -14 66 26 143 90 156 130 3 11 11 20 17 20 6 0 48 -38 94 -85 l84
-85 63 1 c34 1 73 4 87 9 24 7 24 8 5 15 -155 59 -209 85 -260 123 -33 25 -61
46 -63 47 -1 1 3 16 9 34 10 28 9 34 -7 46 -11 8 -29 15 -41 15 -21 0 -22 -3
-17 -43z"/>
</g>
<g id="part-1" class="char-part">
  <path d="M560 606 c0 -56 -8 -66 -51 -66 -21 0 -39 -4 -39 -10 0 -5 16 -10 35
-10 39 0 41 -4 20 -40 -31 -55 -8 -55 29 -1 27 38 30 40 103 46 88 9 87 30 -2
29 -30 -1 -55 0 -55 2 0 2 5 15 12 30 11 23 10 28 -7 40 -31 23 -45 17 -45
-20z"/>
  <path d="M263 588 c3 -13 9 -33 12 -45 7 -22 5 -23 -54 -23 -66 0 -76 -10 -36
-36 20 -13 31 -14 56 -5 47 16 58 14 65 -14 9 -36 30 -25 26 13 -3 29 0 32 45
46 l48 15 -50 -2 c-49 -2 -50 -2 -53 29 -2 23 -9 34 -25 38 -35 9 -40 7 -34
-16z"/>
</g>
<g id="part-2" class="char-part">
  <path d="M336 415 c-10 -25 -41 -70 -70 -100 -28 -30 -50 -55 -48 -55 12 0 69
37 101 65 32 29 49 36 112 45 41 6 86 12 102 15 21 4 27 1 27 -14 0 -10 -7
-24 -15 -31 -33 -27 -12 -28 46 0 73 34 78 38 59 51 -38 24 -82 28 -157 13
-105 -20 -116 -19 -101 7 11 17 10 22 -6 35 -28 20 -29 19 -50 -31z"/>
</g>
<g id="part-3" class="char-part">
  <path d="M385 300 c18 -81 -47 -182 -149 -232 -51 -25 -55 -29 -26 -24 73 13
156 69 206 139 l19 28 87 -86 88 -85 62 1 c35 1 74 5 88 9 24 8 24 9 4 15 -90
29 -212 87 -263 127 -59 46 -60 48 -49 78 12 37 5 47 -41 56 -33 7 -33 7 -26
-26z"/>
</g>
</g>
</svg>