<?xml version="1.0" standalone="no"?>
<!DOCTYPE svg PUBLIC "-//W3C//DTD SVG 20010904//EN"
 "http://www.w3.org/TR/2001/REC-SVG-20010904/DTD/svg10.dtd">
<svg version="1.0" xmlns="http://www.w3.org/2000/svg"
 width="96.000000pt" height="68.000000pt" viewBox="0 0 96.000000 68.000000"
 preserveAspectRatio="xMidYMid meet">
<metadata>
Created by potrace 1.16, written by Peter Selinger 2001-2019
Combined from part_0.svg through part_5.svg with named groups
</metadata>
<g transform="translate(0.000000,68.000000) scale(0.100000,-0.100000)" fill="#000000" stroke="none">
<g id="part-0" class="char-part">
  <path d="M316 598 c-2 -7 -9 -33 -16 -57 -9 -35 -32 -64 -109 -143 -54 -54
-91 -98 -84 -98 18 0 70 27 108 56 31 24 71 24 87 0 14 -20 8 -24 -44 -33 -66
-10 -65 -27 2 -31 l50 -3 0 -58 0 -58 -37 -7 c-21 -3 -59 -6 -85 -6 -26 0 -49
-4 -53 -9 -9 -15 47 -53 70 -48 125 31 285 82 282 91 -4 11 -13 11 -84 0 l-43
-6 0 55 c0 59 7 67 60 67 15 0 33 6 39 14 9 11 7 15 -13 20 -13 3 -38 3 -55 0
-30 -6 -31 -5 -23 17 6 15 20 26 37 29 32 6 44 25 21 33 -9 4 -46 0 -83 -8
-37 -8 -68 -13 -70 -11 -2 1 17 28 41 59 36 47 46 54 56 42 18 -22 74 -52 88
-47 20 6 14 40 -10 56 -13 7 -35 16 -50 20 -19 4 -25 11 -21 25 3 12 -3 24
-18 35 -28 19 -38 20 -43 4z"/>
  <path d="M628 491 l4 -108 -62 -7 c-78 -9 -97 -16 -78 -28 7 -4 41 -5 76 -2
l62 6 0 -160 c0 -147 7 -191 25 -161 6 9 23 221 25 300 0 26 2 27 80 33 44 4
80 12 80 17 0 17 -42 26 -89 18 -79 -13 -74 -19 -69 85 5 83 3 94 -13 105 -41
25 -45 17 -41 -98z"/>
  <path d="M401 254 c-28 -47 -26 -58 7 -39 59 36 66 43 52 60 -20 24 -36 18
-59 -21z"/>
  <path d="M200 244 c0 -3 9 -19 21 -36 14 -19 28 -28 42 -26 29 4 32 23 8 47
-19 19 -71 30 -71 15z"/>
</g>
<g id="part-1" class="char-part">
  <path d="M311 558 c-19 -61 -60 -116 -143 -192 -40 -36 -69 -66 -65 -66 13 0
70 31 104 57 45 34 97 29 101 -9 3 -27 2 -28 -42 -28 -25 0 -48 -4 -51 -10 -4
-6 13 -10 43 -10 l49 0 7 -61 c4 -34 5 -63 3 -65 -9 -9 -123 -25 -149 -22 -15
3 -28 0 -28 -5 0 -14 32 -36 52 -37 26 0 282 72 293 83 10 9 -49 4 -102 -10
-22 -5 -23 -3 -23 60 l0 65 50 7 c66 9 66 28 0 23 -48 -3 -50 -2 -50 23 0 23
5 27 40 33 22 3 40 11 40 17 0 11 -36 10 -139 -7 l-43 -7 47 62 c27 33 50 61
51 61 2 0 24 -14 49 -32 31 -22 48 -29 55 -22 18 18 0 42 -43 57 -32 11 -42
19 -42 36 0 21 -19 41 -41 41 -6 0 -17 -19 -23 -42z"/>
  <path d="M407 255 c-23 -49 -23 -49 24 -18 38 25 39 28 23 40 -25 19 -28 17
-47 -22z"/>
  <path d="M210 241 c0 -16 41 -61 56 -61 22 0 17 37 -8 54 -25 18 -48 21 -48 7z"/>
</g>
<g id="part-2" class="char-part">
  <path d="M628 491 l4 -110 -71 -7 c-39 -3 -74 -10 -76 -15 -9 -14 34 -21 90
-14 l55 7 0 -160 c0 -148 7 -191 26 -160 6 10 22 208 23 300 1 26 3 26 86 33
47 4 85 11 85 16 0 15 -64 26 -100 17 -75 -17 -73 -19 -68 88 5 94 5 96 -19
105 -13 5 -27 9 -31 9 -4 0 -6 -49 -4 -109z"/>
</g>
</g>
</svg>