<?xml version="1.0" standalone="no"?>
<!DOCTYPE svg PUBLIC "-//W3C//DTD SVG 20010904//EN"
 "http://www.w3.org/TR/2001/REC-SVG-20010904/DTD/svg10.dtd">
<svg version="1.0" xmlns="http://www.w3.org/2000/svg"
 width="96.000000pt" height="68.000000pt" viewBox="0 0 96.000000 68.000000"
 preserveAspectRatio="xMidYMid meet">
<metadata>
Created by potrace 1.16, written by Peter Selinger 2001-2019
Combined from part_0.svg through part_5.svg with named groups
</metadata>
<g transform="translate(0.000000,68.000000) scale(0.100000,-0.100000)" fill="#000000" stroke="none">
<g id="part-0" class="char-part">
  <path d="M667 511 l6 -79 -29 -5 c-16 -3 -62 -9 -101 -12 -102 -10 -92 -27 12
-24 47 1 88 -1 92 -5 10 -9 -114 -133 -167 -167 -25 -16 -38 -29 -30 -29 31 0
117 49 168 95 l53 47 -3 -108 c-3 -120 -1 -117 -73 -101 l-30 7 25 -19 c14
-11 39 -31 55 -45 17 -14 33 -26 37 -26 18 0 23 38 28 195 l5 170 47 5 c26 3
51 9 55 13 14 15 -22 27 -63 21 l-41 -6 7 51 c3 28 9 54 13 58 12 11 -25 43
-49 43 -23 0 -23 -1 -17 -79z"/>
  <path d="M270 540 c-25 -4 -56 -6 -70 -3 l-25 4 1 -144 c0 -79 4 -149 8 -156
4 -6 16 -9 27 -6 41 13 15 -41 -50 -101 -61 -56 -12 -39 62 22 37 30 67 58 67
61 0 3 -8 12 -17 19 -16 12 -12 13 31 14 30 0 56 -6 65 -14 11 -10 21 -12 31
-6 23 14 32 290 11 308 -16 13 -70 14 -141 2z m90 -54 c0 -31 -3 -34 -37 -40
-21 -3 -51 -6 -66 -6 -26 0 -28 3 -25 33 3 28 7 33 38 38 81 15 90 12 90 -25z
m0 -91 c0 -25 -13 -30 -95 -37 -32 -3 -35 0 -35 32 0 16 8 20 58 23 31 2 60 4
65 5 4 1 7 -9 7 -23z m0 -95 l0 -30 -70 0 c-67 0 -70 1 -70 23 0 34 6 37 77
37 l63 0 0 -30z"/>
  <path d="M340 198 c6 -7 21 -29 33 -48 25 -38 50 -46 55 -17 4 22 -53 77 -79
77 -15 0 -17 -3 -9 -12z"/>
</g>
<g id="part-1" class="char-part">
  <path d="M328 544 c-4 -3 -39 -7 -80 -10 -53 -3 -72 -7 -68 -16 3 -7 4 -69 2
-138 -2 -126 7 -172 28 -140 5 8 10 32 10 53 0 34 2 37 29 37 15 0 49 3 74 6
l46 7 3 -54 c2 -40 7 -54 18 -54 23 0 34 284 12 303 -16 12 -64 17 -74 6z m36
-40 c8 -22 8 -52 -1 -57 -5 -3 -39 -8 -76 -12 l-68 -7 3 38 c3 43 19 51 94 53
30 1 44 -4 48 -15z m6 -114 c0 -24 -4 -30 -22 -30 -13 0 -47 -3 -75 -6 l-53
-7 0 31 c0 29 3 31 43 35 108 9 107 10 107 -23z"/>
</g>
<g id="part-2" class="char-part">
  <path d="M219 209 c-11 -23 -39 -59 -62 -80 -46 -43 -26 -43 33 -1 43 30 100
84 100 92 0 4 -11 12 -25 18 -23 11 -26 9 -46 -29z"/>
  <path d="M340 204 c0 -16 63 -95 73 -91 24 8 18 38 -13 67 -29 27 -60 39 -60
24z"/>
</g>
<g id="part-3" class="char-part">
  <path d="M667 511 l6 -78 -44 -6 c-24 -4 -70 -9 -101 -13 -85 -9 -60 -26 36
-24 44 1 87 2 94 1 14 -1 18 -247 3 -269 -6 -11 -17 -11 -47 -3 -21 6 -39 9
-41 7 -2 -2 13 -16 34 -32 21 -15 44 -34 51 -41 39 -37 46 -10 52 182 l5 170
53 6 c29 4 56 10 59 13 13 13 -11 21 -61 19 l-52 -2 6 47 c4 26 10 54 14 63 5
11 -1 19 -19 27 -52 24 -55 19 -48 -67z"/>
</g>
<g id="part-4" class="char-part">
  <path d="M601 329 c-35 -38 -86 -85 -114 -104 -29 -19 -45 -35 -37 -35 32 0
118 49 168 97 46 42 53 54 50 81 l-3 32 -64 -71z"/>
</g>
</g>
</svg>