<?xml version="1.0" standalone="no"?>
<!DOCTYPE svg PUBLIC "-//W3C//DTD SVG 20010904//EN"
 "http://www.w3.org/TR/2001/REC-SVG-20010904/DTD/svg10.dtd">
<svg version="1.0" xmlns="http://www.w3.org/2000/svg"
 width="96.000000pt" height="68.000000pt" viewBox="0 0 96.000000 68.000000"
 preserveAspectRatio="xMidYMid meet">
<metadata>
Created by potrace 1.16, written by Peter Selinger 2001-2019
Combined from part_0.svg through part_5.svg with named groups
</metadata>
<g transform="translate(0.000000,68.000000) scale(0.100000,-0.100000)" fill="#000000" stroke="none">
<g id="part-0" class="char-part">
  <path d="M524 578 l1 -43 -62 -3 c-83 -4 -81 -22 2 -22 58 0 65 -2 65 -20 0
-16 -7 -20 -32 -20 -18 0 -40 -5 -48 -10 -11 -7 -2 -10 33 -10 43 0 47 -2 47
-24 0 -26 6 -24 -155 -42 -47 -6 -55 -9 -37 -15 12 -5 68 -4 125 2 56 5 162
14 235 18 74 5 136 12 139 15 16 16 -52 24 -129 16 -111 -13 -138 -12 -138 3
0 27 20 40 69 45 29 2 48 9 45 14 -4 6 -28 8 -55 5 -43 -5 -49 -3 -49 13 0 15
10 20 48 25 75 10 92 15 92 26 0 8 -21 9 -70 5 l-71 -7 7 25 c4 18 1 27 -14
35 -39 21 -49 14 -48 -31z"/>
  <path d="M297 583 c-4 -3 -7 -16 -7 -27 0 -34 -61 -130 -124 -196 -32 -33 -56
-63 -53 -66 7 -7 43 12 88 47 20 16 40 29 44 29 10 0 -2 -180 -16 -246 -10
-42 -9 -56 5 -82 9 -18 21 -32 26 -32 21 0 28 42 33 201 4 130 3 171 -8 186
-12 17 -8 25 31 78 24 32 44 64 44 71 0 7 -10 20 -22 28 -25 18 -32 19 -41 9z"/>
  <path d="M575 350 c-27 -5 -71 -9 -96 -9 l-46 -1 5 -50 c2 -27 -1 -70 -7 -94
-14 -57 -6 -79 25 -72 45 12 24 -21 -50 -77 -59 -45 -55 -46 26 -7 75 36 119
69 101 77 -32 12 -7 23 53 23 47 0 70 -5 82 -16 29 -30 42 7 42 122 0 125 0
125 -135 104z m69 -19 c4 -5 8 -43 11 -84 l5 -74 -65 -7 c-36 -4 -79 -9 -95
-13 -27 -5 -30 -3 -30 21 0 23 4 26 33 26 59 0 137 13 137 22 0 9 -75 4 -142
-8 -25 -5 -28 -3 -28 20 0 23 4 26 39 26 61 0 131 12 131 22 0 6 -33 7 -84 3
-82 -7 -85 -7 -79 13 4 16 16 23 52 27 25 4 53 8 61 9 30 7 49 6 54 -3z"/>
  <path d="M652 65 c59 -58 75 -65 85 -40 8 22 -23 52 -75 75 -69 31 -71 24 -10
-35z"/>
</g>
<g id="part-1" class="char-part">
  <path d="M297 573 c-4 -3 -7 -16 -7 -27 0 -34 -55 -120 -121 -191 -34 -36 -58
-65 -55 -65 11 0 59 33 91 62 17 15 33 28 38 28 11 0 8 -135 -5 -215 -14 -91
-13 -114 6 -133 30 -30 38 0 44 173 6 134 4 172 -7 187 -12 17 -9 26 25 74 22
31 44 62 49 70 16 24 -38 58 -58 37z"/>
</g>
<g id="part-2" class="char-part">
  <path d="M526 581 c5 -34 4 -39 -17 -44 -13 -4 -43 -7 -66 -7 -24 0 -43 -4
-43 -10 0 -6 28 -10 65 -10 58 0 65 -2 65 -20 0 -16 -7 -20 -37 -20 -21 0 -45
-5 -53 -10 -11 -7 0 -10 38 -10 49 0 52 -2 52 -25 0 -35 29 -32 41 4 9 27 16
30 65 37 73 9 72 29 -1 21 -49 -5 -55 -4 -55 13 0 15 10 20 48 25 75 10 92 15
92 27 0 7 -21 9 -69 4 -67 -6 -69 -5 -64 16 7 23 -18 48 -49 48 -16 0 -17 -6
-12 -39z"/>
</g>
<g id="part-3" class="char-part">
  <path d="M695 419 c-38 -5 -137 -16 -220 -24 -82 -9 -152 -18 -154 -20 -13
-14 65 -14 180 -1 74 9 163 16 199 17 36 0 83 4 105 8 l40 8 -28 11 c-16 7
-34 11 -40 11 -7 -1 -43 -5 -82 -10z"/>
</g>
<g id="part-4" class="char-part">
  <path d="M473 110 c-7 -10 -36 -37 -64 -60 -28 -22 -48 -40 -44 -40 14 0 130
60 155 80 21 17 23 21 10 30 -23 15 -44 12 -57 -10z"/>
  <path d="M601 113 c1 -14 109 -103 124 -103 21 0 19 34 -2 52 -34 30 -124 67
-122 51z"/>
</g>
</g>
</svg>