<?xml version="1.0" standalone="no"?>
<!DOCTYPE svg PUBLIC "-//W3C//DTD SVG 20010904//EN"
 "http://www.w3.org/TR/2001/REC-SVG-20010904/DTD/svg10.dtd">
<svg version="1.0" xmlns="http://www.w3.org/2000/svg"
 width="96.000000pt" height="68.000000pt" viewBox="0 0 96.000000 68.000000"
 preserveAspectRatio="xMidYMid meet">
<metadata>
Created by potrace 1.16, written by Peter Selinger 2001-2019
Combined from part_0.svg through part_5.svg with named groups
</metadata>
<g transform="translate(0.000000,68.000000) scale(0.100000,-0.100000)" fill="#000000" stroke="none">
<g id="part-0" class="char-part">
  <path d="M490 565 c7 -8 20 -15 30 -15 10 0 38 -28 66 -66 27 -37 67 -86 88
-111 38 -42 41 -44 89 -41 28 2 52 8 54 14 2 6 -18 19 -44 29 -63 23 -118 69
-173 143 -41 56 -48 61 -84 62 -33 0 -37 -2 -26 -15z"/>
  <path d="M177 527 c-67 -10 -68 -11 -60 -36 9 -28 10 -156 3 -258 -5 -67 9
-98 32 -75 7 7 33 12 59 12 37 0 50 -5 62 -23 14 -20 16 -21 32 -6 15 14 17
41 17 193 0 123 -4 181 -12 192 -14 16 -33 16 -133 1z m93 -66 c0 -35 -3 -39
-31 -45 -63 -12 -69 -9 -69 32 0 21 3 42 7 45 3 4 26 7 50 7 l43 0 0 -39z m0
-110 c0 -31 -18 -41 -72 -41 -25 0 -28 3 -28 35 l0 35 50 0 c48 0 50 -1 50
-29z m0 -111 c0 -35 -3 -40 -24 -40 -13 0 -38 -3 -55 -6 -29 -6 -31 -5 -31 24
0 54 8 62 61 62 l49 0 0 -40z"/>
  <path d="M424 483 c-12 -37 -40 -85 -67 -115 -64 -70 9 -32 79 42 46 47 55 74
28 84 -25 10 -34 7 -40 -11z"/>
  <path d="M470 308 c-52 -5 -97 -12 -99 -14 -9 -8 9 -16 41 -19 33 -2 34 -4 30
-55 -1 -10 -30 -49 -63 -85 -34 -36 -53 -62 -43 -59 27 10 104 64 104 73 0 4
8 16 18 27 34 37 54 76 49 95 -5 17 1 19 55 19 l61 0 -5 -48 c-3 -27 -13 -66
-24 -88 -17 -35 -22 -39 -56 -38 l-37 1 26 -33 c14 -19 34 -34 43 -34 27 0 57
44 76 109 9 31 22 73 29 94 24 69 0 75 -205 55z"/>
</g>
<g id="part-1" class="char-part">
  <path d="M235 530 c-16 -4 -50 -8 -74 -9 -43 -1 -43 -1 -37 -32 3 -17 6 -78 6
-135 0 -104 7 -123 34 -90 6 8 32 17 57 20 41 6 47 5 52 -14 3 -12 13 -20 26
-20 20 0 21 5 21 135 l0 135 -26 10 c-14 6 -26 9 -27 9 -1 -1 -15 -5 -32 -9z
m19 -26 c11 -4 16 -19 16 -50 0 -41 -2 -44 -27 -44 -16 0 -38 -3 -50 -6 -22
-6 -23 -3 -23 44 0 31 5 52 13 55 18 8 53 8 71 1z m16 -154 c0 -32 -4 -40 -19
-40 -10 0 -33 -3 -50 -6 -31 -6 -31 -6 -31 34 0 44 7 50 63 51 37 1 37 1 37
-39z"/>
</g>
<g id="part-2" class="char-part">
  <path d="M139 252 c-9 -2 -19 -17 -23 -33 -9 -45 20 -89 39 -59 3 6 28 10 54
10 39 0 52 -4 63 -22 27 -40 65 17 53 80 -5 27 -10 33 -28 30 -16 -2 -23 -11
-25 -30 -3 -22 -9 -28 -26 -28 -13 0 -37 -3 -54 -6 -29 -6 -31 -4 -34 28 -2
25 -7 33 -19 30z"/>
</g>
<g id="part-3" class="char-part">
  <path d="M480 571 c0 -5 15 -14 33 -20 24 -8 50 -34 94 -94 89 -119 101 -129
158 -125 27 2 50 8 51 13 2 6 -29 26 -68 45 -60 29 -82 48 -133 110 -54 66
-66 75 -98 78 -20 2 -37 -1 -37 -7z"/>
  <path d="M412 456 c-11 -24 -37 -62 -57 -85 -21 -22 -33 -41 -28 -41 18 0 89
54 122 91 34 40 39 64 15 73 -28 11 -33 7 -52 -38z"/>
</g>
<g id="part-4" class="char-part">
  <path d="M505 312 c-66 -8 -127 -16 -135 -19 -31 -11 35 -20 90 -12 30 4 79 8
109 8 l54 1 -5 -48 c-3 -27 -13 -66 -24 -88 -17 -35 -23 -39 -55 -39 l-36 0
25 -32 c13 -18 30 -33 36 -33 39 0 83 75 101 175 4 22 11 45 17 52 5 7 7 16 4
22 -14 22 -65 26 -181 13z"/>
</g>
<g id="part-5" class="char-part">
  <path d="M465 267 c-6 -7 -9 -20 -7 -29 2 -9 -6 -26 -17 -37 -12 -12 -21 -28
-21 -37 0 -8 -3 -13 -7 -11 -5 2 -24 -15 -43 -37 l-35 -40 33 20 c19 12 34 25
33 30 0 5 11 15 24 22 16 8 23 19 20 31 -2 13 1 18 9 15 19 -7 58 60 43 75
-14 14 -19 13 -32 -2z"/>
</g>
</g>
</svg>