<?xml version="1.0" standalone="no"?>
<!DOCTYPE svg PUBLIC "-//W3C//DTD SVG 20010904//EN"
 "http://www.w3.org/TR/2001/REC-SVG-20010904/DTD/svg10.dtd">
<svg version="1.0" xmlns="http://www.w3.org/2000/svg"
 width="96.000000pt" height="68.000000pt" viewBox="0 0 96.000000 68.000000"
 preserveAspectRatio="xMidYMid meet">
<metadata>
Created by potrace 1.16, written by Peter Selinger 2001-2019
Combined from part_0.svg through part_5.svg with named groups
</metadata>
<g transform="translate(0.000000,68.000000) scale(0.100000,-0.100000)" fill="#000000" stroke="none">
<g id="part-0" class="char-part">
  <path d="M257 512 l6 -99 -74 -7 c-40 -3 -75 -9 -78 -12 -14 -14 30 -24 82
-19 l58 6 -28 -50 c-15 -28 -54 -79 -86 -113 -31 -33 -55 -63 -52 -66 12 -12
74 27 123 78 l54 55 -5 -45 c-20 -155 -20 -176 -1 -194 17 -18 18 -18 36 4 15
19 18 42 18 139 l1 116 24 -27 c27 -31 37 -34 54 -14 18 22 2 45 -40 56 -34 9
-39 15 -39 39 0 27 3 29 50 35 80 11 73 36 -11 36 l-40 0 6 48 c3 26 8 56 10
68 6 27 -13 51 -47 59 l-26 7 5 -100z"/>
  <path d="M546 573 c-3 -4 -6 -40 -6 -81 l0 -75 -48 5 c-46 4 -50 3 -70 -28
-25 -38 -28 -64 -9 -64 17 0 30 11 50 43 11 17 26 27 42 27 30 0 30 -1 5 -81
-21 -71 -59 -134 -114 -193 -41 -44 -41 -54 1 -33 63 34 138 143 162 239 l19
73 43 7 c24 5 50 6 57 3 17 -6 15 -30 -4 -49 -20 -21 -8 -20 41 4 22 11 46 19
53 20 6 0 12 6 12 14 0 24 -56 39 -125 33 -73 -5 -74 -4 -56 75 9 38 4 49 -31
61 -9 3 -19 3 -22 0z"/>
  <path d="M574 211 c1 -80 4 -93 24 -113 19 -20 35 -23 111 -26 67 -3 96 0 120
12 35 19 35 18 19 63 -14 38 -24 42 -33 13 -13 -40 -34 -50 -104 -50 -41 0
-74 5 -86 14 -17 13 -18 19 -8 87 7 40 11 74 10 75 -1 2 -14 5 -28 9 l-25 6 0
-90z"/>
</g>
<g id="part-1" class="char-part">
  <path d="M255 588 c14 -48 18 -165 5 -173 -7 -4 -41 -10 -76 -13 -83 -6 -83
-22 1 -22 36 0 65 -3 65 -6 0 -18 -68 -115 -113 -161 -32 -33 -45 -53 -36 -53
23 0 93 53 124 94 15 20 31 36 36 36 9 0 3 -82 -12 -150 -11 -51 1 -100 25
-100 22 0 26 23 26 146 0 63 4 114 8 114 5 0 17 -9 27 -20 23 -25 55 -26 55
-2 0 18 -37 42 -65 42 -10 0 -15 11 -15 35 0 32 3 35 38 40 20 4 44 9 52 11
28 10 -20 27 -57 21 l-35 -6 7 83 7 83 -33 12 c-42 15 -42 15 -34 -11z"/>
</g>
<g id="part-2" class="char-part">
  <path d="M537 483 c-9 -161 -49 -258 -147 -359 -35 -37 -39 -44 -22 -44 29 0
114 80 146 139 30 55 62 154 76 236 4 28 11 62 15 76 5 21 2 27 -20 37 -14 7
-30 12 -34 12 -5 0 -11 -44 -14 -97z"/>
</g>
<g id="part-3" class="char-part">
  <path d="M565 428 c-33 -5 -74 -7 -90 -4 -26 3 -34 -1 -53 -30 -12 -18 -22
-41 -22 -49 0 -27 37 -16 57 18 19 31 22 33 119 44 107 13 128 7 106 -27 -18
-29 -17 -29 43 -6 30 11 55 26 55 32 0 31 -93 41 -215 22z"/>
</g>
<g id="part-4" class="char-part">
  <path d="M575 218 c0 -102 7 -123 47 -137 47 -16 174 -14 208 4 35 18 36 20
11 70 -18 37 -18 37 -25 12 -11 -47 -31 -57 -110 -57 -43 0 -77 5 -84 12 -15
15 -15 70 -1 121 12 44 12 43 -21 52 l-25 6 0 -83z"/>
</g>
</g>
</svg>