<?xml version="1.0" standalone="no"?>
<!DOCTYPE svg PUBLIC "-//W3C//DTD SVG 20010904//EN"
 "http://www.w3.org/TR/2001/REC-SVG-20010904/DTD/svg10.dtd">
<svg version="1.0" xmlns="http://www.w3.org/2000/svg"
 width="96.000000pt" height="68.000000pt" viewBox="0 0 96.000000 68.000000"
 preserveAspectRatio="xMidYMid meet">
<metadata>
Created by potrace 1.16, written by Peter Selinger 2001-2019
Combined from part_0.svg through part_5.svg with named groups
</metadata>
<g transform="translate(0.000000,68.000000) scale(0.100000,-0.100000)" fill="#000000" stroke="none">
<g id="part-0" class="char-part">
  <path d="M499 604 c-7 -9 -43 -31 -80 -50 -53 -26 -75 -32 -100 -27 -32 6 -32
6 -25 -28 13 -60 34 -184 32 -186 -1 -1 -53 -6 -116 -11 -107 -8 -113 -9 -85
-21 24 -11 57 -11 165 -2 74 6 228 13 343 17 114 3 207 9 207 13 0 4 -11 14
-25 21 -18 10 -50 11 -125 6 l-102 -7 8 33 c4 18 7 43 6 54 -1 18 5 22 44 27
47 5 62 12 51 24 -7 6 -196 -10 -290 -24 -38 -6 -38 -6 -35 27 3 32 4 33 107
64 58 18 106 37 108 43 5 14 -35 43 -58 43 -9 0 -22 -7 -30 -16z m49 -226 l-3
-53 -80 -5 c-44 -3 -81 -5 -83 -4 -1 1 -5 24 -9 52 l-6 51 39 4 c22 2 63 4 92
5 l53 2 -3 -52z"/>
  <path d="M455 270 c-2 -3 0 -24 5 -46 5 -21 10 -55 10 -76 l0 -36 -61 -7 c-65
-8 -94 4 -71 27 25 25 8 78 -25 78 -8 0 -13 -13 -13 -36 0 -20 -8 -49 -17 -65
-16 -27 -16 -30 -1 -45 14 -15 23 -15 60 -5 36 10 258 41 294 41 7 0 14 -9 17
-20 9 -34 35 -23 46 18 26 94 26 101 -4 112 -36 14 -40 9 -36 -44 l2 -43 -68
-6 c-37 -3 -72 -3 -76 0 -4 2 -5 37 -1 77 l7 73 -32 5 c-18 3 -34 2 -36 -2z"/>
</g>
<g id="part-1" class="char-part">
  <path d="M495 594 c-44 -34 -136 -74 -171 -74 -30 0 -35 -3 -29 -17 3 -10 13
-53 20 -96 16 -88 20 -97 42 -97 14 0 15 12 10 88 -3 49 -2 93 1 99 4 6 54 25
111 42 58 17 107 34 110 37 9 9 -31 34 -53 34 -12 0 -30 -8 -41 -16z"/>
</g>
<g id="part-2" class="char-part">
  <path d="M495 454 c-55 -7 -106 -13 -112 -13 -7 -1 -13 -6 -13 -12 0 -7 28 -8
90 -3 l90 7 0 -52 c0 -32 -5 -53 -12 -56 -7 -2 -110 -10 -228 -18 -194 -12
-212 -14 -187 -27 23 -11 51 -11 165 -2 75 7 230 15 345 18 114 3 207 10 207
14 0 22 -64 32 -156 25 l-97 -7 8 33 c4 19 8 44 9 57 1 16 7 22 26 22 35 0 70
11 70 21 0 12 -85 9 -205 -7z"/>
</g>
<g id="part-3" class="char-part">
  <path d="M453 256 c12 -31 19 -134 9 -139 -5 -4 -35 -10 -66 -13 l-58 -7 7 46
c6 39 4 47 -13 56 -32 17 -40 13 -34 -15 2 -14 -4 -43 -13 -65 -17 -36 -17
-41 -3 -56 14 -13 23 -14 65 -4 44 10 260 41 289 41 6 0 15 -11 18 -25 13 -51
39 -24 56 59 13 63 10 71 -34 82 -28 7 -28 7 -22 -32 3 -22 3 -44 -1 -50 -5
-7 -37 -14 -73 -15 l-65 -4 0 75 0 75 -34 3 c-27 3 -32 0 -28 -12z"/>
</g>
</g>
</svg>