<?xml version="1.0" standalone="no"?>
<!DOCTYPE svg PUBLIC "-//W3C//DTD SVG 20010904//EN"
 "http://www.w3.org/TR/2001/REC-SVG-20010904/DTD/svg10.dtd">
<svg version="1.0" xmlns="http://www.w3.org/2000/svg"
 width="96.000000pt" height="68.000000pt" viewBox="0 0 96.000000 68.000000"
 preserveAspectRatio="xMidYMid meet">
<metadata>
Created by potrace 1.16, written by Peter Selinger 2001-2019
Combined from part_0.svg through part_5.svg with named groups
</metadata>
<g transform="translate(0.000000,68.000000) scale(0.100000,-0.100000)" fill="#000000" stroke="none">
<g id="part-0" class="char-part">
  <path d="M489 623 c0 -5 0 -55 0 -112 1 -111 5 -122 55 -148 34 -18 156 -14
194 6 l22 12 -22 39 -23 39 -15 -32 c-14 -30 -18 -32 -77 -35 -82 -4 -103 8
-103 57 l0 38 68 8 c37 4 76 10 87 15 18 7 19 8 2 15 -16 7 -81 1 -133 -12
-21 -4 -21 -3 -13 44 8 40 7 50 -8 61 -19 14 -33 16 -34 5z"/>
  <path d="M306 523 c2 -43 7 -92 9 -110 2 -21 -1 -33 -12 -37 -33 -13 -42 -5
-54 52 -13 56 -30 81 -58 82 -10 0 -11 -4 -3 -12 13 -17 42 -129 36 -140 -3
-4 -23 -8 -45 -8 -21 0 -39 -4 -39 -10 0 -16 48 -23 88 -12 134 37 215 61 220
66 10 10 -49 6 -69 -4 -17 -10 -19 -7 -19 35 0 41 2 45 24 45 43 0 87 13 83
24 -2 6 -26 11 -53 11 l-49 0 2 39 c3 43 -8 56 -44 56 -22 0 -23 -2 -17 -77z"/>
  <path d="M427 316 l5 -43 -78 -7 c-170 -14 -204 -19 -204 -27 0 -16 45 -20
140 -10 52 6 97 8 99 5 10 -10 -62 -62 -138 -101 -43 -22 -67 -39 -58 -41 39
-8 159 51 202 98 32 36 38 24 31 -61 -8 -86 3 -121 30 -98 10 8 14 36 14 90 0
44 2 79 5 79 3 0 35 -22 71 -50 89 -68 90 -69 167 -63 76 6 87 18 25 28 -24 4
-65 16 -93 27 -60 23 -175 89 -175 100 0 4 69 9 153 10 l152 3 -33 18 c-29 16
-48 17 -154 11 l-121 -7 6 30 c6 33 -7 53 -34 53 -14 0 -16 -8 -12 -44z"/>
</g>
<g id="part-1" class="char-part">
  <path d="M303 577 c3 -12 9 -62 12 -110 6 -74 10 -87 24 -85 11 2 17 16 19 45
l3 41 50 7 c27 4 49 10 49 15 0 15 -29 19 -62 9 -18 -5 -34 -9 -36 -9 -2 0 -2
20 0 45 2 25 3 45 3 45 0 0 -15 4 -34 10 -31 9 -33 8 -28 -13z"/>
</g>
<g id="part-2" class="char-part">
  <path d="M488 518 c3 -62 8 -121 13 -130 20 -37 157 -48 232 -19 l28 11 -22
42 -22 42 -16 -34 c-16 -34 -18 -35 -78 -38 -82 -4 -103 8 -103 57 l0 38 69 7
c76 7 101 13 101 27 0 12 -64 11 -119 -2 -24 -5 -45 -8 -47 -7 -1 2 2 24 7 48
9 38 8 46 -7 57 -36 26 -39 17 -36 -99z"/>
</g>
<g id="part-3" class="char-part">
  <path d="M427 316 l5 -44 -71 -6 c-39 -3 -102 -9 -141 -12 -38 -3 -70 -10 -70
-15 0 -17 53 -21 143 -11 51 5 94 8 97 6 8 -9 -62 -58 -144 -102 l-81 -43 48
5 c56 7 108 32 166 80 24 20 45 36 48 36 3 0 3 -36 0 -80 -7 -85 -3 -110 18
-110 19 0 25 24 25 106 0 41 2 74 5 74 3 0 35 -22 71 -50 36 -27 74 -55 85
-61 23 -12 149 -2 149 12 0 5 -7 9 -14 9 -61 0 -286 103 -286 131 0 5 3 8 8 8
4 -1 70 -1 147 0 133 1 138 2 122 19 -16 15 -35 17 -154 14 l-135 -3 6 34 c5
27 3 36 -10 41 -36 14 -42 7 -37 -38z"/>
</g>
</g>
</svg>