<?xml version="1.0" standalone="no"?>
<!DOCTYPE svg PUBLIC "-//W3C//DTD SVG 20010904//EN"
 "http://www.w3.org/TR/2001/REC-SVG-20010904/DTD/svg10.dtd">
<svg version="1.0" xmlns="http://www.w3.org/2000/svg"
 width="96.000000pt" height="68.000000pt" viewBox="0 0 96.000000 68.000000"
 preserveAspectRatio="xMidYMid meet">
<metadata>
Created by potrace 1.16, written by Peter Selinger 2001-2019
Combined from part_0.svg through part_5.svg with named groups
</metadata>
<g transform="translate(0.000000,68.000000) scale(0.100000,-0.100000)" fill="#000000" stroke="none">
<g id="part-0" class="char-part">
  <path d="M575 590 c-16 -4 -65 -8 -107 -9 -43 0 -78 -4 -78 -9 0 -4 7 -18 16
-30 8 -12 13 -22 10 -22 -2 0 0 -15 5 -32 6 -18 12 -52 14 -75 5 -42 4 -43
-28 -44 l-32 -1 38 -10 c33 -9 38 -14 35 -37 -3 -23 -8 -26 -45 -29 -50 -4
-57 -17 -11 -20 18 -2 34 -4 36 -6 10 -10 -24 -49 -79 -92 -33 -25 -58 -48
-55 -51 9 -9 111 64 152 109 36 39 49 46 94 52 l52 7 64 -66 c63 -65 64 -65
119 -65 30 0 55 4 55 8 0 4 -24 17 -52 27 -29 10 -76 35 -105 54 l-52 36 47 3
c26 1 54 5 62 8 29 10 -13 24 -65 22 -44 -2 -50 0 -53 19 -3 18 4 24 37 34 43
13 46 29 5 29 -14 0 -24 6 -24 14 0 13 -20 26 -41 26 -5 0 -9 -11 -9 -24 0
-27 -16 -36 -66 -36 -27 0 -34 4 -34 20 0 11 -7 20 -15 20 -8 0 -15 4 -15 9 0
10 141 24 163 15 13 -5 22 5 37 42 11 27 25 57 31 67 21 37 -33 56 -106 37z
m48 -31 c7 -25 3 -26 -100 -34 -79 -6 -83 -5 -83 14 0 16 8 21 43 25 23 3 53
7 67 10 57 8 68 6 73 -15z m-9 -47 c10 -17 -11 -29 -68 -40 -79 -16 -86 -15
-86 7 0 16 10 21 58 26 31 4 62 8 67 10 17 6 24 5 29 -3z m-38 -168 c-3 -9 -6
-19 -6 -24 0 -9 -67 -23 -79 -16 -4 3 -6 17 -3 31 4 22 9 25 49 25 37 0 44 -3
39 -16z"/>
  <path d="M215 448 c0 -177 -14 -230 -81 -306 -25 -29 -44 -55 -41 -58 8 -8 82
42 105 71 12 15 27 42 34 61 6 19 14 34 18 34 3 0 21 -14 40 -30 40 -34 55
-34 55 1 0 19 -10 28 -42 44 -37 17 -43 24 -43 50 0 59 10 74 66 99 54 25 69
48 38 60 -29 11 -45 6 -70 -21 l-25 -28 5 73 c6 71 6 73 -20 82 -14 6 -28 10
-32 10 -4 0 -7 -64 -7 -142z"/>
  <path d="M110 424 c0 -28 41 -85 59 -82 24 5 25 41 1 71 -24 30 -60 36 -60 11z"/>
  <path d="M518 155 l4 -95 -27 0 c-26 0 -26 0 -8 -25 10 -13 26 -25 35 -25 30
0 39 35 36 138 -3 88 -5 97 -23 100 -19 3 -20 -2 -17 -93z"/>
  <path d="M603 213 c-4 -10 -11 -21 -17 -25 -23 -15 4 -18 33 -3 37 18 37 21
11 35 -16 9 -22 7 -27 -7z"/>
  <path d="M440 194 c0 -16 23 -44 36 -44 23 0 13 31 -13 41 -13 5 -23 6 -23 3z"/>
  <path d="M598 127 c6 -7 31 -27 55 -45 39 -27 46 -30 57 -17 18 21 -1 40 -57
59 -57 19 -69 20 -55 3z"/>
  <path d="M404 96 c-29 -12 -49 -26 -46 -34 7 -22 46 -12 87 23 45 39 33 43
-41 11z"/>
</g>
<g id="part-1" class="char-part">
  <path d="M214 427 c0 -176 -9 -210 -76 -290 -27 -32 -36 -48 -24 -44 38 15 76
54 103 107 15 30 29 57 31 59 1 3 17 -10 35 -27 34 -33 51 -39 62 -22 10 16
-14 40 -58 57 -36 15 -38 18 -33 46 3 16 6 39 6 51 0 16 14 29 55 50 58 29 69
50 34 61 -17 6 -27 0 -46 -24 -13 -17 -29 -31 -34 -31 -12 0 -11 56 2 104 12
42 3 56 -36 56 -19 0 -20 -7 -21 -153z"/>
  <path d="M115 418 c18 -61 65 -93 65 -45 0 27 -34 67 -56 67 -11 0 -14 -6 -9
-22z"/>
</g>
<g id="part-2" class="char-part">
  <path d="M565 590 c-16 -4 -65 -8 -108 -9 l-77 -1 15 -24 c9 -13 22 -46 28
-73 10 -39 16 -48 32 -46 11 2 56 5 100 7 l80 4 28 63 c26 60 27 64 11 76 -19
14 -61 15 -109 3z m55 -35 c0 -21 -4 -25 -27 -24 -16 1 -56 -2 -90 -6 -59 -7
-63 -6 -63 13 0 18 8 21 58 27 31 3 64 8 72 9 41 9 50 6 50 -19z m-7 -54 c-3
-13 -17 -21 -46 -25 -23 -4 -56 -9 -74 -12 -25 -5 -32 -2 -35 13 -3 15 7 20
72 29 41 6 78 12 82 13 3 0 4 -7 1 -18z"/>
</g>
<g id="part-3" class="char-part">
  <path d="M580 416 c0 -13 -7 -27 -16 -30 -22 -9 -84 -7 -83 2 4 23 -4 32 -27
32 -23 0 -25 -3 -20 -25 6 -22 3 -25 -21 -26 l-28 -1 33 -14 c20 -9 32 -21 32
-33 0 -22 -19 -31 -66 -31 -24 0 -33 -4 -28 -11 4 -8 31 -9 83 -5 42 3 125 9
184 12 72 5 106 11 104 18 -2 6 -29 12 -61 14 -52 3 -57 5 -54 25 2 15 12 23
36 28 46 9 51 18 14 25 -18 4 -32 12 -32 19 0 12 -21 25 -41 25 -5 0 -9 -11
-9 -24z m0 -68 c0 -24 -15 -36 -51 -43 -33 -6 -37 -5 -41 19 -7 33 -3 36 49
36 28 0 43 -4 43 -12z"/>
</g>
<g id="part-4" class="char-part">
  <path d="M518 155 l4 -95 -32 0 -32 0 30 -25 c17 -14 34 -25 39 -25 21 0 32
49 30 140 -2 87 -4 95 -22 98 -20 3 -21 -1 -17 -93z"/>
  <path d="M592 195 c-14 -29 -11 -30 29 -10 31 16 31 35 0 35 -10 0 -23 -11
-29 -25z"/>
  <path d="M440 181 c0 -16 30 -33 46 -27 13 5 14 9 4 21 -13 16 -50 21 -50 6z"/>
  <path d="M625 105 c47 -41 73 -51 88 -36 17 17 -12 40 -74 56 l-54 14 40 -34z"/>
  <path d="M410 97 c-67 -25 -66 -25 -53 -38 16 -16 52 -4 93 31 41 34 35 35
-40 7z"/>
</g>
</g>
</svg>