<?xml version="1.0" standalone="no"?>
<!DOCTYPE svg PUBLIC "-//W3C//DTD SVG 20010904//EN"
 "http://www.w3.org/TR/2001/REC-SVG-20010904/DTD/svg10.dtd">
<svg version="1.0" xmlns="http://www.w3.org/2000/svg"
 width="96.000000pt" height="68.000000pt" viewBox="0 0 96.000000 68.000000"
 preserveAspectRatio="xMidYMid meet">
<metadata>
Created by potrace 1.16, written by Peter Selinger 2001-2019
Combined from part_0.svg through part_5.svg with named groups
</metadata>
<g transform="translate(0.000000,68.000000) scale(0.100000,-0.100000)" fill="#000000" stroke="none">
<g id="part-0" class="char-part">
  <path d="M387 604 c-3 -4 1 -13 9 -21 8 -8 11 -19 8 -25 -4 -6 -2 -8 4 -4 6 3
13 2 17 -3 9 -15 -58 -24 -139 -19 l-73 5 -27 -45 c-26 -43 -28 -83 -3 -81 15
1 55 17 44 18 -13 1 23 61 37 61 7 0 93 9 191 20 98 11 181 17 184 14 3 -2 -3
-18 -13 -35 -10 -17 -16 -32 -14 -34 8 -8 130 29 135 41 3 7 -8 25 -24 39 -26
24 -32 25 -103 20 -41 -3 -90 -8 -107 -11 -29 -5 -33 -3 -33 15 0 30 -73 65
-93 45z"/>
  <path d="M336 447 c-11 -23 -37 -60 -57 -82 -42 -44 -44 -58 -3 -26 15 11 33
21 41 21 23 0 83 -31 83 -43 0 -20 -87 -75 -198 -123 -42 -19 -69 -34 -59 -34
28 0 180 66 241 105 l55 35 55 -32 c31 -18 53 -35 48 -39 -10 -9 -152 -29
-207 -29 -25 0 -45 -4 -45 -10 0 -5 4 -10 9 -10 4 0 16 -26 26 -58 23 -74 23
-74 44 -63 10 6 59 11 109 12 88 2 92 3 87 23 -3 11 3 38 13 59 l17 39 97 2
c130 2 147 19 42 41 -103 21 -254 76 -254 91 0 7 22 30 50 51 27 21 49 44 50
50 0 26 -48 28 -164 7 -37 -7 -38 -6 -25 15 12 18 12 23 -1 31 -25 16 -34 11
-54 -33z m164 -36 c0 -5 -14 -23 -32 -40 -34 -33 -37 -33 -106 -4 -26 11 -32
17 -23 26 18 18 161 34 161 18z m20 -248 c0 -21 -4 -44 -8 -50 -4 -7 -40 -15
-78 -19 l-71 -7 -11 44 c-6 24 -10 45 -8 46 2 3 124 19 159 22 13 1 17 -7 17
-36z"/>
</g>
<g id="part-1" class="char-part">
  <path d="M396 603 c-3 -4 5 -21 18 -38 l25 -32 -96 -7 c-67 -5 -99 -3 -109 5
-17 14 -14 17 -45 -41 -28 -51 -27 -70 3 -70 13 0 25 12 36 40 15 34 21 40 47
40 17 0 105 7 197 17 92 9 171 14 174 10 4 -3 -1 -18 -10 -33 -10 -14 -16 -28
-13 -30 2 -2 28 2 58 9 64 17 72 41 23 69 -27 16 -40 17 -100 8 -103 -15 -124
-13 -124 8 0 23 -69 59 -84 45z"/>
</g>
<g id="part-2" class="char-part">
  <path d="M336 451 c-9 -22 -38 -64 -64 -92 -47 -53 -47 -53 -12 -33 19 10 61
45 94 78 56 55 58 59 41 72 -29 22 -40 17 -59 -25z"/>
</g>
<g id="part-3" class="char-part">
  <path d="M428 436 c-84 -16 -85 -30 0 -22 39 4 72 3 72 -1 0 -5 -15 -24 -34
-42 -33 -32 -33 -32 -71 -17 -56 24 -91 20 -40 -4 22 -10 40 -25 40 -32 0 -20
-101 -85 -188 -120 -44 -18 -73 -34 -64 -36 24 -5 183 63 244 103 l53 36 87
-53 c84 -52 88 -53 162 -53 42 0 90 4 106 9 26 8 15 12 -100 41 -71 18 -152
43 -180 55 l-49 23 49 43 c28 24 53 44 58 44 4 0 7 6 7 14 0 28 -51 32 -152
12z"/>
</g>
<g id="part-4" class="char-part">
  <path d="M430 209 c-25 -4 -69 -8 -97 -8 -52 -1 -53 -1 -34 -20 11 -11 25 -45
32 -76 11 -50 15 -56 33 -50 17 5 57 10 198 24 4 1 5 7 2 15 -3 8 4 35 15 60
19 45 19 46 1 56 -21 11 -84 11 -150 -1z m92 -14 c5 -6 -6 -82 -13 -90 -2 -2
-36 -6 -75 -10 l-71 -7 -11 43 c-6 24 -9 45 -8 47 4 3 115 18 152 21 11 0 23
-1 26 -4z"/>
</g>
</g>
</svg>