<?xml version="1.0" standalone="no"?>
<!DOCTYPE svg PUBLIC "-//W3C//DTD SVG 20010904//EN"
 "http://www.w3.org/TR/2001/REC-SVG-20010904/DTD/svg10.dtd">
<svg version="1.0" xmlns="http://www.w3.org/2000/svg"
 width="96.000000pt" height="68.000000pt" viewBox="0 0 96.000000 68.000000"
 preserveAspectRatio="xMidYMid meet">
<metadata>
Created by potrace 1.16, written by Peter Selinger 2001-2019
Combined from part_0.svg through part_5.svg with named groups
</metadata>
<g transform="translate(0.000000,68.000000) scale(0.100000,-0.100000)" fill="#000000" stroke="none">
<g id="part-0" class="char-part">
  <path d="M230 551 c0 -6 5 -13 10 -16 6 -4 10 -58 10 -130 0 -128 -2 -135 -46
-135 -12 0 -14 11 -8 59 6 55 5 58 -17 64 -41 11 -46 8 -41 -23 2 -17 -1 -51
-7 -76 -7 -25 -9 -55 -5 -66 6 -21 6 -21 99 5 93 26 125 30 125 12 0 -8 9 -15
20 -15 14 0 22 11 30 43 5 23 14 57 20 76 11 41 -1 61 -37 61 -20 0 -24 -4
-22 -27 1 -16 1 -43 1 -60 -2 -30 -5 -33 -32 -33 l-31 0 7 108 c3 59 8 113 10
121 2 7 -1 20 -7 27 -13 16 -79 19 -79 5z"/>
  <path d="M625 550 c-27 -5 -73 -9 -100 -9 l-51 -1 4 -64 c3 -51 -1 -81 -23
-145 -27 -81 -95 -198 -121 -208 -8 -3 -14 -9 -14 -14 0 -16 37 9 83 57 31 32
54 70 76 124 17 44 31 85 31 93 0 10 32 17 130 27 112 11 130 15 130 30 0 9
11 33 24 53 23 34 23 36 7 51 -19 17 -87 19 -176 6z m110 -19 c3 -6 3 -27 -1
-48 -6 -36 -8 -38 -47 -40 l-42 -3 0 43 c0 28 5 44 15 49 23 10 68 9 75 -1z
m-135 -56 c0 -25 -4 -45 -9 -45 -5 0 -23 -3 -41 -6 l-32 -7 7 44 c8 48 18 59
53 59 20 0 22 -5 22 -45z"/>
  <path d="M660 344 c-36 -6 -86 -12 -112 -13 -45 -1 -47 -2 -39 -23 8 -22 5
-169 -4 -196 -2 -7 1 -23 7 -37 8 -18 15 -22 23 -15 7 6 56 13 109 17 85 5 96
4 96 -10 0 -18 17 -22 36 -9 15 9 23 267 9 280 -18 17 -59 19 -125 6z m70 -33
c5 -11 10 -24 10 -29 0 -11 -106 -32 -158 -32 -29 0 -32 3 -32 29 0 29 1 29
73 39 39 5 77 10 84 11 7 0 17 -8 23 -18z m10 -92 c0 -24 -6 -26 -107 -37
l-83 -8 0 26 c0 26 2 27 88 36 48 5 90 8 95 6 4 -2 7 -12 7 -23z m-5 -84 l0
-30 -92 -3 -93 -3 0 25 c0 26 9 30 100 40 74 7 85 4 85 -29z"/>
</g>
<g id="part-1" class="char-part">
  <path d="M248 415 l4 -145 -35 0 -35 0 5 60 c4 39 2 60 -5 60 -6 0 -17 3 -25
6 -12 4 -16 -8 -19 -58 -3 -35 -8 -70 -12 -79 -4 -10 -1 -23 9 -33 14 -14 20
-14 43 -2 15 8 60 21 101 29 70 14 74 14 78 -4 13 -47 36 -9 53 85 11 63 5 76
-31 76 -13 0 -15 -9 -11 -48 5 -54 -13 -82 -50 -82 -21 0 -21 3 -15 134 5 131
5 134 -16 140 -12 3 -26 6 -32 6 -6 0 -9 -53 -7 -145z"/>
</g>
<g id="part-2" class="char-part">
  <path d="M660 554 c-47 -7 -109 -13 -139 -13 -44 -1 -52 -4 -47 -17 3 -9 6
-40 6 -70 l0 -54 36 0 c20 0 87 5 149 12 95 10 112 14 108 27 -2 9 8 34 22 56
l27 39 -24 18 c-26 20 -23 20 -138 2z m73 -58 c-2 -22 -4 -40 -6 -42 -1 -2
-22 -6 -45 -10 l-43 -7 7 44 c8 51 18 60 59 57 28 -3 30 -5 28 -42z m-133 -21
c0 -25 -4 -45 -9 -45 -5 0 -23 -3 -41 -6 l-32 -7 7 44 c9 57 11 59 46 59 28 0
29 -2 29 -45z"/>
</g>
<g id="part-3" class="char-part">
  <path d="M461 349 c-18 -68 -61 -150 -113 -212 -51 -60 -21 -50 47 17 47 47
68 82 96 164 24 69 24 82 1 82 -14 0 -22 -13 -31 -51z"/>
</g>
<g id="part-4" class="char-part">
  <path d="M740 115 c0 -12 -18 -15 -101 -15 -64 0 -98 4 -94 10 6 11 -27 14
-38 4 -7 -8 13 -64 23 -64 5 0 10 5 12 12 3 8 38 13 101 16 84 4 97 2 97 -12
0 -21 36 -21 44 0 3 9 6 27 6 40 0 19 -5 24 -25 24 -16 0 -25 -6 -25 -15z"/>
</g>
</g>
</svg>