<?xml version="1.0" standalone="no"?>
<!DOCTYPE svg PUBLIC "-//W3C//DTD SVG 20010904//EN"
 "http://www.w3.org/TR/2001/REC-SVG-20010904/DTD/svg10.dtd">
<svg version="1.0" xmlns="http://www.w3.org/2000/svg"
 width="96.000000pt" height="68.000000pt" viewBox="0 0 96.000000 68.000000"
 preserveAspectRatio="xMidYMid meet">
<metadata>
Created by potrace 1.16, written by Peter Selinger 2001-2019
Combined from part_0.svg through part_5.svg with named groups
</metadata>
<g transform="translate(0.000000,68.000000) scale(0.100000,-0.100000)" fill="#000000" stroke="none">
<g id="part-0" class="char-part">
  <path d="M542 586 c-6 -14 -28 -43 -48 -65 -30 -34 -40 -40 -63 -34 -25 6 -25
5 -9 -13 9 -11 20 -35 23 -53 3 -19 10 -42 15 -52 6 -10 10 -27 10 -38 0 -17
5 -20 30 -14 36 7 38 -3 9 -51 -18 -30 -27 -36 -57 -38 -54 -2 -60 -3 -67 -10
-4 -3 3 -11 14 -17 16 -9 37 -8 86 4 119 27 115 30 115 -77 0 -51 4 -99 9
-107 16 -24 31 22 32 96 2 109 2 110 87 111 134 1 130 0 107 18 -16 12 -36 14
-102 8 l-83 -6 0 27 c0 15 -8 34 -17 41 -16 12 -15 13 14 14 17 0 33 -6 36
-12 8 -23 33 12 66 92 17 41 31 78 31 81 0 4 -14 12 -31 18 -23 8 -53 7 -121
-5 -135 -23 -143 -18 -68 40 47 36 59 50 49 57 -26 16 -55 10 -67 -15z m168
-125 c0 -26 -3 -29 -39 -33 -49 -4 -61 -1 -55 17 3 7 0 16 -5 20 -22 13 1 25
50 25 47 0 49 -1 49 -29z m-150 -16 c0 -34 -1 -35 -39 -35 -26 0 -41 5 -45 16
-13 33 -6 43 32 47 20 2 40 4 45 5 4 1 7 -14 7 -33z m140 -46 c0 -33 -22 -49
-66 -49 -38 0 -45 3 -40 16 3 9 6 19 6 24 0 9 28 16 73 19 15 0 27 -4 27 -10z
m-151 -9 c5 0 6 -11 3 -25 -3 -19 -10 -25 -32 -25 -21 0 -29 6 -32 25 -5 25
12 37 40 29 8 -2 17 -4 21 -4z m49 -113 l3 -37 -42 0 c-31 0 -39 3 -32 13 5 6
17 25 27 40 22 37 40 30 44 -16z"/>
  <path d="M239 517 c0 -45 -3 -100 -7 -122 l-7 -40 -74 -10 c-73 -10 -74 -11
-56 -29 15 -15 28 -17 66 -13 48 6 48 6 39 -18 -8 -21 -5 -27 18 -42 15 -10
30 -22 34 -28 10 -14 -20 -44 -77 -73 -46 -25 -48 -27 -23 -30 28 -3 96 27
117 52 19 23 33 20 71 -14 40 -36 55 -34 56 8 1 25 -4 33 -27 43 -32 13 -36
28 -15 67 8 15 19 41 26 59 6 17 20 33 31 36 23 6 25 27 3 27 -10 0 -14 6 -10
15 6 17 -22 35 -53 35 -17 0 -21 -6 -21 -34 0 -29 -4 -34 -27 -39 -16 -3 -29
-4 -31 -2 -2 1 9 44 23 94 29 101 27 111 -26 130 l-29 10 -1 -82z m91 -187 c0
-23 -35 -80 -49 -80 -47 1 -53 62 -8 80 30 12 57 12 57 0z"/>
</g>
<g id="part-1" class="char-part">
  <path d="M247 550 c3 -21 0 -75 -7 -119 -14 -89 -16 -91 -102 -91 -52 0 -62
-14 -24 -31 18 -9 33 -8 57 0 44 15 51 14 39 -8 -16 -30 -13 -39 24 -63 43
-30 36 -47 -40 -89 -30 -18 -53 -34 -50 -36 9 -9 75 18 116 48 l42 31 32 -31
c36 -35 66 -41 66 -12 0 18 -36 55 -62 63 -8 3 -5 19 10 49 11 24 24 56 28 72
4 18 15 29 31 33 22 6 23 8 9 16 -9 5 -16 15 -16 23 0 16 -30 35 -55 35 -13 0
-15 -7 -9 -34 6 -34 5 -35 -30 -42 -21 -3 -39 -5 -41 -2 -2 2 9 46 25 98 17
52 30 95 30 97 0 5 -59 33 -69 33 -5 0 -7 -17 -4 -40z m93 -206 c0 -15 -43
-104 -51 -104 -15 0 -59 23 -59 31 0 26 27 60 54 68 38 11 56 13 56 5z"/>
</g>
<g id="part-2" class="char-part">
  <path d="M542 586 c-6 -13 -25 -40 -43 -60 -17 -20 -30 -39 -27 -41 4 -4 127
81 148 101 7 8 -23 24 -46 24 -12 0 -25 -10 -32 -24z"/>
</g>
<g id="part-3" class="char-part">
  <path d="M522 292 c-26 -53 -27 -55 -6 -44 10 6 27 24 37 41 17 30 17 31 0 31
-10 0 -24 -12 -31 -28z"/>
</g>
<g id="part-4" class="char-part">
  <path d="M598 281 l4 -38 -79 -7 c-43 -4 -93 -9 -112 -13 l-34 -6 24 -13 c20
-10 36 -10 84 2 33 7 72 14 88 14 l27 0 0 -92 c0 -155 31 -159 40 -6 3 48 9
91 14 95 4 4 53 10 109 13 93 5 99 6 73 18 -21 9 -52 11 -108 6 l-78 -7 0 31
c0 27 -17 41 -50 42 -3 0 -4 -17 -2 -39z"/>
</g>
</g>
</svg>