<?xml version="1.0" standalone="no"?>
<!DOCTYPE svg PUBLIC "-//W3C//DTD SVG 20010904//EN"
 "http://www.w3.org/TR/2001/REC-SVG-20010904/DTD/svg10.dtd">
<svg version="1.0" xmlns="http://www.w3.org/2000/svg"
 width="96.000000pt" height="68.000000pt" viewBox="0 0 96.000000 68.000000"
 preserveAspectRatio="xMidYMid meet">
<metadata>
Created by potrace 1.16, written by Peter Selinger 2001-2019
Combined from part_0.svg through part_5.svg with named groups
</metadata>
<g transform="translate(0.000000,68.000000) scale(0.100000,-0.100000)" fill="#000000" stroke="none">
<g id="part-0" class="char-part">
  <path d="M420 529 c-102 -11 -187 -23 -189 -25 -3 -2 5 -11 17 -20 58 -40 -13
-243 -119 -339 -71 -64 -22 -60 61 6 60 48 101 122 131 242 l21 85 44 6 c25 3
108 9 185 12 77 4 142 10 144 14 9 15 -26 32 -68 36 -23 1 -125 -6 -227 -17z"/>
  <path d="M480 375 c0 -47 -6 -78 -21 -108 -31 -61 -83 -121 -124 -143 -19 -10
-35 -22 -35 -26 0 -5 -8 -8 -17 -8 -10 0 -25 -5 -33 -11 -11 -8 -5 -9 25 -4
75 12 141 60 212 153 l18 23 87 -87 87 -88 72 1 c99 2 108 16 24 42 -74 23
-157 70 -222 126 l-42 36 24 66 c22 62 23 68 7 80 -9 7 -27 13 -39 13 -22 0
-23 -4 -23 -65z"/>
</g>
<g id="part-1" class="char-part">
  <path d="M445 524 c-110 -12 -202 -22 -204 -23 -3 0 3 -7 13 -14 16 -11 18
-24 14 -79 -5 -84 -48 -174 -118 -246 -29 -30 -50 -55 -48 -58 7 -6 92 50 117
77 38 40 80 134 98 216 9 43 19 81 22 85 3 4 86 12 185 17 169 10 197 14 184
26 -19 19 -83 19 -263 -1z"/>
</g>
<g id="part-2" class="char-part">
  <path d="M480 377 c0 -109 -69 -210 -190 -276 -44 -25 -50 -31 -30 -31 62 0
162 65 211 136 l31 46 89 -88 89 -89 71 2 c99 2 106 16 22 43 -77 26 -161 73
-221 126 l-41 36 25 65 c13 37 23 67 22 68 -13 10 -50 25 -62 25 -13 0 -16
-12 -16 -63z"/>
</g>
</g>
</svg>