<?xml version="1.0" standalone="no"?>
<!DOCTYPE svg PUBLIC "-//W3C//DTD SVG 20010904//EN"
 "http://www.w3.org/TR/2001/REC-SVG-20010904/DTD/svg10.dtd">
<svg version="1.0" xmlns="http://www.w3.org/2000/svg"
 width="96.000000pt" height="68.000000pt" viewBox="0 0 96.000000 68.000000"
 preserveAspectRatio="xMidYMid meet">
<metadata>
Created by potrace 1.16, written by Peter Selinger 2001-2019
Combined from part_0.svg through part_5.svg with named groups
</metadata>
<g transform="translate(0.000000,68.000000) scale(0.100000,-0.100000)" fill="#000000" stroke="none">
<g id="part-0" class="char-part">
  <path d="M460 604 c0 -4 9 -22 21 -40 l21 -34 -24 0 c-42 0 -211 -20 -217 -25
-2 -3 6 -13 18 -22 22 -15 23 -20 18 -94 -8 -96 -51 -214 -107 -287 -22 -29
-40 -55 -40 -57 0 -24 88 43 123 94 23 34 63 168 77 256 6 39 16 75 23 82 7 6
41 14 77 17 36 3 60 3 54 0 -7 -3 -10 -13 -7 -24 6 -22 -29 -44 -58 -37 -17 5
-19 1 -16 -26 2 -18 0 -45 -4 -60 -12 -42 -2 -57 39 -57 l37 0 -27 -25 c-15
-14 -58 -41 -95 -61 -55 -29 -62 -34 -33 -29 19 4 72 26 117 50 l81 43 79 -36
c82 -37 160 -50 203 -34 21 8 16 11 -44 21 -82 14 -223 58 -231 71 -9 14 89
12 103 -2 17 -17 29 24 30 99 1 59 0 62 -26 68 -15 3 -49 1 -77 -4 -57 -11
-62 -9 -40 12 9 10 11 18 5 22 -29 18 0 25 98 25 113 0 147 9 124 32 -14 14
-129 16 -177 4 -20 -5 -25 -3 -25 14 0 12 -12 26 -30 35 -29 15 -70 20 -70 9z
m170 -183 c0 -9 -170 -34 -178 -26 -15 14 24 29 90 35 74 6 88 5 88 -9z m0
-39 c0 -5 -38 -13 -85 -18 -65 -7 -85 -7 -85 3 0 11 35 17 128 21 23 1 42 -2
42 -6z m3 -43 c-6 -6 -42 -15 -79 -19 -94 -13 -104 -12 -104 4 0 15 30 20 145
24 35 1 46 -1 38 -9z"/>
  <path d="M140 420 c-13 -8 62 -80 85 -80 20 0 29 24 17 46 -11 20 -85 45 -102
34z"/>
  <path d="M205 295 c-22 -14 -57 -30 -77 -37 -42 -12 -45 -19 -22 -42 23 -24
34 -20 97 35 77 69 79 91 2 44z"/>
  <path d="M513 216 c-67 -18 -63 -29 7 -21 72 8 83 12 75 26 -7 11 -27 10 -82
-5z"/>
  <path d="M575 170 c-27 -5 -82 -11 -121 -12 l-72 -3 5 -50 c2 -27 6 -56 9 -63
6 -19 24 -4 24 19 0 17 6 20 33 17 24 -2 31 -7 29 -20 -2 -11 3 -18 13 -18 9
0 15 9 15 25 0 21 5 25 29 25 26 0 30 -4 33 -32 l4 -33 17 38 c14 31 22 37 47
37 24 0 30 -4 30 -21 0 -18 -4 -20 -25 -15 -14 4 -25 2 -25 -4 0 -5 5 -10 10
-10 6 0 10 -6 10 -14 0 -18 39 -31 52 -18 17 17 40 134 29 145 -14 14 -88 17
-146 7z m93 -32 c3 -14 -3 -18 -27 -18 -24 0 -31 5 -31 19 0 25 53 24 58 -1z
m-100 -5 c-2 -11 -14 -19 -31 -21 -22 -3 -27 1 -27 17 0 17 6 21 31 21 24 0
30 -4 27 -17z m-88 -13 c0 -16 -7 -20 -30 -20 -18 0 -30 5 -30 13 0 20 10 27
37 27 16 0 23 -6 23 -20z"/>
</g>
<g id="part-1" class="char-part">
  <path d="M470 600 c0 -7 9 -24 20 -40 l20 -28 -33 -5 c-17 -3 -71 -9 -120 -13
-86 -6 -116 -17 -77 -27 18 -4 20 -14 20 -74 0 -109 -31 -203 -101 -305 -22
-33 -38 -62 -36 -65 3 -2 29 20 59 49 71 70 98 144 133 359 7 44 1 43 243 60
94 7 172 16 172 20 0 10 -57 29 -73 24 -7 -2 -40 -6 -74 -10 -53 -5 -63 -3
-63 9 0 17 -31 40 -67 51 -15 4 -23 2 -23 -5z"/>
  <path d="M150 413 c1 -25 70 -79 84 -66 17 17 4 45 -29 59 -38 16 -55 18 -55
7z"/>
  <path d="M215 295 c-22 -14 -57 -30 -78 -37 -42 -13 -48 -41 -9 -46 16 -3 38
10 70 39 41 38 69 70 60 69 -2 0 -21 -12 -43 -25z"/>
</g>
<g id="part-2" class="char-part">
  <path d="M497 473 c-7 -36 -3 -39 28 -19 21 14 24 20 14 32 -18 22 -36 17 -42
-13z"/>
</g>
<g id="part-3" class="char-part">
  <path d="M625 336 c-11 -8 -55 -16 -97 -20 -63 -5 -78 -3 -78 8 0 9 -7 12 -20
9 -23 -6 -23 -8 -11 -32 9 -16 18 -16 111 -6 84 9 103 9 112 -3 10 -12 14 -11
25 4 32 43 3 70 -42 40z"/>
</g>
<g id="part-4" class="char-part">
  <path d="M570 169 c-41 -5 -101 -10 -133 -12 -53 -2 -57 -4 -53 -22 3 -11 6
-39 6 -63 0 -61 24 -50 30 13 5 46 7 50 38 56 19 4 73 8 120 10 l87 4 3 -49
c3 -48 3 -48 -23 -42 l-27 7 18 -31 c18 -30 47 -40 59 -19 15 23 35 133 27
141 -14 14 -72 17 -152 7z"/>
</g>
</g>
</svg>