<?xml version="1.0" standalone="no"?>
<!DOCTYPE svg PUBLIC "-//W3C//DTD SVG 20010904//EN"
 "http://www.w3.org/TR/2001/REC-SVG-20010904/DTD/svg10.dtd">
<svg version="1.0" xmlns="http://www.w3.org/2000/svg"
 width="96.000000pt" height="68.000000pt" viewBox="0 0 96.000000 68.000000"
 preserveAspectRatio="xMidYMid meet">
<metadata>
Created by potrace 1.16, written by Peter Selinger 2001-2019
Combined from part_0.svg through part_5.svg with named groups
</metadata>
<g transform="translate(0.000000,68.000000) scale(0.100000,-0.100000)" fill="#000000" stroke="none">
<g id="part-0" class="char-part">
  <path d="M486 542 c-6 -41 -65 -133 -124 -194 -20 -21 -32 -38 -27 -38 27 1
147 118 175 171 15 27 32 24 57 -14 13 -17 48 -58 79 -90 l56 -58 66 3 c36 2
67 8 69 13 2 6 -25 21 -59 34 -103 38 -244 141 -233 170 7 18 -13 41 -35 41
-12 0 -19 -11 -24 -38z"/>
  <path d="M207 502 c-104 -16 -125 -35 -45 -40 43 -3 46 -5 50 -34 3 -16 3 -41
0 -54 -4 -20 -10 -24 -43 -24 -53 0 -50 -18 4 -22 l42 -3 3 -57 3 -56 -60 -14
c-66 -14 -77 -27 -39 -45 23 -12 34 -8 110 30 85 43 139 77 125 77 -5 0 -16
-4 -25 -9 -9 -4 -29 -11 -44 -15 -28 -6 -28 -6 -28 43 0 53 15 71 60 71 12 0
18 5 15 10 -3 6 -19 10 -36 10 -28 0 -29 1 -29 49 0 51 8 61 53 61 12 0 29 5
37 10 13 9 13 11 0 20 -18 12 -29 11 -153 -8z"/>
  <path d="M510 368 c-25 -5 -49 -14 -54 -19 -14 -13 60 -11 109 2 34 10 37 13
20 20 -24 9 -19 9 -75 -3z"/>
  <path d="M535 275 c-27 -7 -72 -16 -100 -20 -40 -6 -46 -9 -31 -17 17 -9 73
-3 164 19 30 7 28 -10 -9 -68 -28 -44 -33 -48 -62 -43 -31 5 -30 4 28 -50 33
-31 65 -54 70 -53 22 8 15 39 -14 66 l-30 28 32 30 c18 16 47 40 65 52 39 27
40 42 5 59 -33 15 -53 14 -118 -3z"/>
</g>
<g id="part-1" class="char-part">
  <path d="M198 496 c-98 -15 -110 -26 -28 -26 76 0 190 19 190 31 0 12 -66 10
-162 -5z"/>
</g>
<g id="part-2" class="char-part">
  <path d="M205 413 c0 -50 -3 -58 -20 -61 -64 -10 -70 -16 -20 -22 l50 -5 3
-56 3 -56 -62 -14 c-72 -17 -84 -32 -38 -48 29 -10 40 -7 140 46 60 31 107 59
104 61 -2 2 -25 -3 -50 -11 -53 -19 -58 -14 -53 49 3 36 6 40 41 48 47 12 48
26 2 26 l-35 0 0 50 c0 50 0 50 -32 50 l-33 0 0 -57z"/>
</g>
<g id="part-3" class="char-part">
  <path d="M495 577 c-2 -6 -6 -25 -10 -40 -8 -38 -43 -93 -111 -173 -53 -62
-54 -65 -22 -48 38 20 133 116 154 157 8 15 18 27 23 27 5 0 33 -28 62 -62 88
-105 106 -118 169 -117 30 0 63 4 74 8 15 6 10 10 -25 25 -106 45 -148 69
-204 117 -44 38 -59 58 -57 74 3 25 -45 55 -53 32z"/>
</g>
<g id="part-4" class="char-part">
  <path d="M503 367 c-66 -19 -65 -30 3 -24 33 4 69 10 79 13 18 7 18 8 -1 15
-24 10 -30 9 -81 -4z"/>
</g>
<g id="part-5" class="char-part">
  <path d="M490 134 c7 -7 16 -11 21 -8 5 3 8 0 7 -6 -2 -6 14 -26 35 -43 29
-24 40 -28 49 -19 9 9 8 16 -5 29 -11 12 -17 13 -17 5 0 -7 -4 -11 -10 -7 -5
3 -6 13 -3 23 6 15 5 15 -10 3 -17 -13 -18 -12 -21 11 0 6 -14 15 -29 19 -24
6 -26 5 -17 -7z"/>
</g>
</g>
</svg>