<?xml version="1.0" standalone="no"?>
<!DOCTYPE svg PUBLIC "-//W3C//DTD SVG 20010904//EN"
 "http://www.w3.org/TR/2001/REC-SVG-20010904/DTD/svg10.dtd">
<svg version="1.0" xmlns="http://www.w3.org/2000/svg"
 width="96.000000pt" height="68.000000pt" viewBox="0 0 96.000000 68.000000"
 preserveAspectRatio="xMidYMid meet">
<metadata>
Created by potrace 1.16, written by Peter Selinger 2001-2019
Combined from part_0.svg through part_5.svg with named groups
</metadata>
<g transform="translate(0.000000,68.000000) scale(0.100000,-0.100000)" fill="#000000" stroke="none">
<g id="part-0" class="char-part">
  <path d="M291 560 c-21 -70 -101 -196 -116 -182 -5 4 -6 2 -2 -3 3 -6 -12 -30
-33 -53 -67 -73 -5 -47 78 32 l42 40 0 -59 c0 -33 -5 -97 -12 -143 -11 -83 -3
-132 21 -132 23 0 34 51 41 184 6 128 5 143 -11 161 -18 20 -17 22 28 89 l47
69 -23 18 c-34 28 -47 23 -60 -21z"/>
  <path d="M605 569 c-22 -4 -73 -9 -113 -10 -58 -1 -70 -4 -62 -14 13 -16 27
-64 35 -119 7 -45 19 -64 29 -47 4 6 29 11 55 11 26 0 75 3 108 6 52 6 60 9
56 25 -6 23 15 88 36 112 15 17 14 20 -4 33 -20 15 -76 17 -140 3z m75 -38 c0
-28 -1 -28 -68 -34 -38 -4 -83 -10 -100 -13 -30 -6 -32 -5 -32 23 0 30 0 30
78 40 126 16 122 17 122 -16z m-10 -64 c0 -33 -26 -46 -103 -53 l-79 -7 4 29
c3 28 6 29 63 35 105 10 115 10 115 -4z"/>
  <path d="M650 333 c-36 -9 -111 -16 -167 -17 -57 0 -103 -2 -103 -4 0 -2 6
-15 14 -30 8 -15 17 -45 20 -67 10 -61 26 -115 34 -115 5 0 13 5 19 11 6 6 60
15 119 20 93 7 111 6 126 -8 28 -25 42 -10 72 76 16 45 32 84 37 87 20 12 7
36 -26 50 -41 17 -60 17 -145 -3z m80 -23 c12 -7 12 -19 3 -75 -6 -37 -13 -68
-15 -70 -2 -2 -60 -6 -130 -10 l-128 -8 0 27 c0 14 3 26 8 26 27 0 246 31 250
35 17 16 -23 17 -130 2 -131 -18 -148 -15 -148 29 0 21 5 24 43 25 23 0 80 6
127 13 47 8 90 14 95 15 6 0 17 -3 25 -9z"/>
</g>
<g id="part-1" class="char-part">
  <path d="M307 592 c-2 -4 -7 -20 -11 -37 -11 -43 -69 -136 -134 -212 -48 -57
-51 -63 -25 -50 16 9 48 35 71 59 35 36 44 40 53 28 11 -16 4 -135 -12 -209
-11 -49 3 -101 27 -101 18 0 22 22 29 177 6 114 4 135 -10 157 -17 26 -17 27
24 87 23 34 41 68 39 76 -3 17 -45 37 -51 25z"/>
</g>
<g id="part-2" class="char-part">
  <path d="M625 575 c-33 -8 -93 -14 -133 -15 l-72 0 14 -22 c8 -13 19 -56 26
-95 8 -51 16 -73 26 -73 8 0 14 5 14 10 0 6 19 10 43 10 23 0 72 3 109 7 64 6
67 7 62 28 -3 14 4 44 20 76 20 42 23 56 13 66 -20 20 -59 22 -122 8z m55 -44
c0 -28 -1 -28 -77 -35 -43 -4 -87 -8 -98 -9 -15 -1 -21 5 -23 24 -3 26 -1 26
80 36 46 6 91 11 101 12 12 1 17 -6 17 -28z m-15 -78 c-4 -16 -8 -29 -9 -30
-2 -2 -37 -6 -78 -9 -72 -6 -76 -6 -83 15 -9 30 -2 35 63 42 115 12 115 12
107 -18z"/>
</g>
<g id="part-3" class="char-part">
  <path d="M655 333 c-33 -7 -110 -15 -171 -16 l-110 -2 17 -30 c10 -16 23 -61
30 -100 13 -80 21 -94 44 -75 9 8 60 16 123 20 88 6 110 5 124 -8 29 -24 45
-7 73 77 14 45 31 83 36 86 20 13 7 37 -26 51 -41 17 -61 17 -140 -3z m85 -53
c0 -38 -1 -39 -27 -34 -16 3 -79 -2 -142 -10 -123 -18 -131 -16 -131 31 0 20
7 22 88 28 48 4 107 11 132 15 81 14 80 14 80 -30z m-12 -84 l-10 -33 -91 -7
c-158 -11 -167 -10 -167 19 0 14 6 25 13 26 6 0 57 6 112 13 159 22 155 22
143 -18z"/>
</g>
</g>
</svg>