<?xml version="1.0" standalone="no"?>
<!DOCTYPE svg PUBLIC "-//W3C//DTD SVG 20010904//EN"
 "http://www.w3.org/TR/2001/REC-SVG-20010904/DTD/svg10.dtd">
<svg version="1.0" xmlns="http://www.w3.org/2000/svg"
 width="96.000000pt" height="68.000000pt" viewBox="0 0 96.000000 68.000000"
 preserveAspectRatio="xMidYMid meet">
<metadata>
Created by potrace 1.16, written by Peter Selinger 2001-2019
Combined from part_0.svg through part_5.svg with named groups
</metadata>
<g transform="translate(0.000000,68.000000) scale(0.100000,-0.100000)" fill="#000000" stroke="none">
<g id="part-0" class="char-part">
  <path d="M534 578 c4 -13 9 -54 13 -91 l6 -68 -78 2 -78 2 -13 -41 c-9 -31 -9
-42 0 -42 6 0 4 -5 -4 -11 -12 -8 -11 -10 5 -7 13 2 24 16 31 38 13 39 -1 36
243 55 l104 8 -19 -28 -18 -27 32 6 c18 3 46 9 62 12 38 7 38 15 -1 43 -29 22
-34 22 -111 12 -127 -17 -117 -23 -120 72 l-3 82 -29 3 c-26 3 -28 1 -22 -20z"/>
  <path d="M258 538 c3 -29 7 -69 7 -88 l0 -35 -65 -10 c-36 -6 -65 -15 -65 -20
0 -6 31 -11 68 -13 l68 -3 -3 -41 c-3 -38 -7 -44 -53 -70 -27 -16 -67 -37 -87
-46 -40 -18 -46 -30 -26 -50 22 -22 52 -13 108 33 30 24 55 43 57 42 1 -2 -1
-32 -5 -67 l-7 -65 -38 2 c-20 1 -37 -1 -37 -4 0 -11 84 -82 97 -83 24 0 33
40 33 148 0 96 2 111 20 127 23 21 27 40 6 32 -19 -8 -31 29 -16 48 6 8 21 15
32 17 35 5 33 27 -2 35 -30 6 -32 8 -27 42 3 20 9 49 13 65 8 35 -14 56 -57
56 -28 0 -28 0 -21 -52z"/>
  <path d="M666 518 c-14 -18 -23 -34 -21 -36 2 -2 24 4 49 13 47 18 59 38 30
49 -26 10 -31 7 -58 -26z"/>
  <path d="M445 486 c21 -32 44 -40 52 -19 7 18 -21 43 -49 43 -17 0 -17 -2 -3
-24z"/>
  <path d="M550 357 c-85 -11 -87 -12 -73 -29 6 -7 13 -26 17 -42 7 -28 7 -28
64 -21 85 11 95 13 104 29 5 8 16 22 25 31 34 35 -23 48 -137 32z m80 -35 c0
-25 -89 -46 -109 -27 -25 24 -6 44 46 47 58 4 63 2 63 -20z"/>
  <path d="M580 224 c-52 -7 -114 -11 -137 -8 -29 4 -43 2 -43 -5 0 -6 4 -11 9
-11 11 0 31 -86 31 -130 0 -30 16 -39 36 -21 5 5 51 11 101 13 87 3 94 2 108
-19 36 -52 73 -13 87 93 15 112 6 116 -192 88z m140 -39 c0 -21 -5 -25 -29
-25 -16 0 -42 -3 -58 -6 -28 -5 -31 -3 -35 25 l-5 31 64 0 c61 0 63 -1 63 -25z
m-170 -15 c0 -29 -2 -30 -45 -30 -41 0 -45 2 -45 24 0 25 13 31 68 35 18 1 22
-4 22 -29z m163 -79 c-4 -4 -34 -5 -65 -3 -42 3 -58 8 -58 18 0 18 13 23 76
32 46 7 49 6 52 -16 2 -14 0 -28 -5 -31z m-153 9 c0 -17 -7 -20 -45 -20 -38 0
-45 3 -45 20 0 17 7 20 45 20 38 0 45 -3 45 -20z"/>
</g>
<g id="part-1" class="char-part">
  <path d="M255 573 c5 -10 10 -49 13 -87 5 -78 0 -86 -63 -86 -22 0 -47 -5 -55
-10 -11 -7 5 -10 53 -10 l67 0 0 -48 0 -48 -72 -41 c-40 -22 -81 -43 -90 -46
-25 -9 -22 -22 8 -36 30 -13 32 -12 102 47 l52 44 -1 -48 c-1 -27 -4 -62 -8
-79 -6 -27 -10 -30 -41 -27 l-35 3 44 -42 44 -42 19 23 c15 19 18 40 18 134 0
100 2 112 20 124 11 7 20 17 20 22 0 7 -7 7 -20 0 -18 -10 -20 -8 -20 28 0 36
3 40 30 46 36 7 40 26 5 26 -22 0 -25 4 -25 39 0 22 5 52 11 68 9 24 7 30 -11
45 -12 10 -33 18 -47 18 -20 0 -24 -3 -18 -17z"/>
</g>
<g id="part-2" class="char-part">
  <path d="M534 584 c3 -9 9 -47 12 -85 6 -58 10 -69 25 -69 17 0 19 9 19 79 0
63 -3 80 -16 85 -29 11 -46 7 -40 -10z"/>
  <path d="M680 541 c0 -5 -12 -23 -26 -40 -14 -17 -24 -31 -21 -31 2 0 31 12
63 26 55 24 57 27 39 40 -21 16 -55 19 -55 5z"/>
  <path d="M440 490 c16 -29 50 -46 61 -29 11 19 -18 49 -48 49 -21 0 -22 -3
-13 -20z"/>
</g>
<g id="part-3" class="char-part">
  <path d="M635 434 c-60 -7 -139 -13 -174 -12 l-63 1 -14 -39 c-18 -52 -17 -66
4 -62 9 2 22 19 28 38 11 35 12 35 85 42 185 17 249 20 249 14 0 -4 -5 -16
-11 -28 -10 -18 -8 -20 20 -14 17 3 45 9 61 12 38 7 38 15 0 42 -33 25 -32 25
-185 6z"/>
</g>
<g id="part-4" class="char-part">
  <path d="M580 224 c-52 -8 -114 -11 -138 -8 l-43 5 15 -29 c8 -16 18 -52 22
-80 7 -53 33 -107 34 -69 0 14 11 17 73 18 39 1 84 3 99 4 19 3 31 -3 43 -21
37 -58 78 -10 90 108 9 95 -2 100 -195 72z m140 -39 c0 -23 -4 -25 -45 -27
-25 -1 -52 -2 -62 -2 -11 -1 -17 8 -17 27 -2 27 -1 27 61 27 61 0 63 -1 63
-25z m-168 -10 c7 -32 3 -35 -49 -35 -39 0 -43 2 -43 24 0 18 7 26 23 29 53
10 65 7 69 -18z m166 -57 l-3 -31 -63 -1 c-57 -1 -62 1 -62 20 0 21 10 25 123
43 5 0 7 -13 5 -31z m-160 -15 c-2 -13 -15 -19 -46 -21 -37 -3 -42 -1 -42 17
0 18 6 21 46 21 38 0 45 -3 42 -17z"/>
</g>
</g>
</svg>