<?xml version="1.0" standalone="no"?>
<!DOCTYPE svg PUBLIC "-//W3C//DTD SVG 20010904//EN"
 "http://www.w3.org/TR/2001/REC-SVG-20010904/DTD/svg10.dtd">
<svg version="1.0" xmlns="http://www.w3.org/2000/svg"
 width="96.000000pt" height="68.000000pt" viewBox="0 0 96.000000 68.000000"
 preserveAspectRatio="xMidYMid meet">
<metadata>
Created by potrace 1.16, written by Peter Selinger 2001-2019
Combined from part_0.svg through part_5.svg with named groups
</metadata>
<g transform="translate(0.000000,68.000000) scale(0.100000,-0.100000)" fill="#000000" stroke="none">
<g id="part-0" class="char-part">
  <path d="M425 570 c-38 -11 -105 -22 -148 -26 -50 -4 -76 -11 -74 -18 6 -17
65 -18 172 -2 55 8 101 13 104 11 5 -6 -8 -88 -17 -102 -8 -12 -52 -22 -159
-37 -40 -6 -43 -5 -43 18 0 18 -8 27 -31 35 -18 6 -35 11 -38 11 -3 0 -5 -58
-4 -129 1 -154 11 -178 80 -212 41 -21 66 -24 178 -28 188 -5 315 22 315 67 0
9 -4 29 -10 46 -5 17 -12 45 -16 61 l-6 30 -14 -38 c-35 -100 -76 -117 -278
-117 -111 0 -126 2 -156 23 -19 12 -37 35 -42 52 -9 31 -1 134 11 136 3 0 66
6 140 12 l133 12 3 36 c1 20 14 60 28 88 15 28 27 53 27 56 0 7 -65 35 -77 34
-4 0 -39 -9 -78 -19z"/>
</g>
<g id="part-1" class="char-part">
  <path d="M440 569 c-21 -9 -191 -38 -225 -39 -5 0 -2 -5 7 -11 12 -7 54 -5
134 6 72 10 120 13 126 7 6 -6 4 -30 -4 -63 l-14 -54 -107 -14 c-74 -10 -108
-19 -112 -29 -5 -12 8 -14 87 -8 178 13 185 15 185 45 0 14 12 53 28 85 27 57
27 60 10 73 -22 15 -79 16 -115 2z"/>
</g>
<g id="part-2" class="char-part">
  <path d="M176 443 c4 -10 8 -71 9 -135 1 -134 10 -155 81 -192 35 -19 56 -21
209 -21 168 0 229 9 269 38 17 12 17 18 6 73 -19 86 -26 95 -39 49 -26 -96
-81 -118 -281 -113 -111 3 -132 6 -156 24 -47 34 -51 92 -18 245 5 20 0 27
-21 37 -14 7 -35 12 -47 12 -16 0 -18 -4 -12 -17z"/>
</g>
</g>
</svg>