<?xml version="1.0" standalone="no"?>
<!DOCTYPE svg PUBLIC "-//W3C//DTD SVG 20010904//EN"
 "http://www.w3.org/TR/2001/REC-SVG-20010904/DTD/svg10.dtd">
<svg version="1.0" xmlns="http://www.w3.org/2000/svg"
 width="96.000000pt" height="68.000000pt" viewBox="0 0 96.000000 68.000000"
 preserveAspectRatio="xMidYMid meet">
<metadata>
Created by potrace 1.16, written by Peter Selinger 2001-2019
Combined from part_0.svg through part_5.svg with named groups
</metadata>
<g transform="translate(0.000000,68.000000) scale(0.100000,-0.100000)" fill="#000000" stroke="none">
<g id="part-0" class="char-part">
  <path d="M295 591 c6 -34 4 -39 -17 -45 -13 -3 -36 -6 -51 -6 -48 0 -25 -25
26 -28 26 -2 47 -7 47 -13 0 -10 -7 -13 -55 -24 -23 -5 -26 -8 -14 -15 14 -8
140 4 179 16 23 8 -16 27 -41 21 -23 -6 -37 12 -18 24 8 5 25 9 39 9 30 0 57
16 47 27 -4 4 -26 7 -47 6 -36 -2 -40 0 -40 22 0 14 -8 29 -19 35 -36 19 -43
13 -36 -29z"/>
  <path d="M550 591 c-8 -6 -30 -11 -48 -11 -32 0 -33 -2 -28 -32 3 -18 -2 -44
-10 -61 -9 -16 -13 -31 -11 -34 12 -11 47 40 53 77 6 38 9 40 40 40 29 0 34
-3 34 -23 0 -32 28 -55 75 -62 43 -6 72 6 60 25 -5 8 -21 10 -51 5 -41 -6 -44
-5 -44 17 0 13 5 29 12 36 6 6 9 14 6 17 -11 12 -74 15 -88 6z"/>
  <path d="M570 460 c-14 -5 -42 -11 -62 -15 -47 -7 -48 -17 -3 -38 43 -21 44
-35 4 -49 -16 -6 -28 -13 -25 -16 3 -3 24 1 46 8 37 12 42 12 82 -16 35 -23
54 -29 98 -29 63 0 113 12 106 24 -3 4 -31 11 -63 15 -79 8 -153 28 -153 39 0
6 13 23 30 38 28 27 28 29 10 39 -22 12 -35 12 -70 0z m24 -32 c-20 -36 -25
-38 -57 -21 -29 15 -30 17 -12 24 33 13 77 11 69 -3z"/>
  <path d="M379 446 c-5 -6 -40 -11 -120 -21 -53 -6 -56 -8 -51 -30 8 -45 -9
-96 -45 -136 -19 -21 -32 -39 -28 -39 22 0 67 40 87 76 24 46 20 44 146 60 40
4 52 10 52 23 0 9 5 22 12 29 8 8 8 15 3 21 -13 11 -50 23 -56 17z m11 -46 c0
-11 -4 -20 -9 -20 -5 0 -16 -3 -25 -6 -12 -5 -16 0 -16 20 0 21 5 26 25 26 18
0 25 -5 25 -20z m-90 -15 c0 -20 -5 -25 -24 -25 -27 0 -40 22 -23 39 21 21 47
13 47 -14z"/>
  <path d="M405 308 c-119 -10 -157 -19 -115 -26 34 -6 40 -18 40 -88 l0 -62
-85 -7 c-84 -7 -104 -19 -46 -27 16 -2 69 1 118 8 48 7 109 13 136 13 l47 1 0
-54 c0 -30 4 -57 9 -61 11 -6 16 10 26 73 l7 42 99 0 c98 0 113 6 84 30 -11 9
-38 10 -101 5 l-85 -7 2 76 3 76 34 0 c19 0 31 4 27 10 -7 11 -41 11 -200 -2z
m95 -32 c0 -18 -22 -26 -76 -26 -54 0 -63 26 -11 33 69 8 87 7 87 -7z m-10
-46 c24 -15 1 -27 -63 -34 -52 -6 -58 -5 -55 11 2 13 16 20 48 24 25 3 47 7
50 7 3 1 12 -3 20 -8z m8 -67 c-3 -15 -16 -19 -66 -21 -57 -3 -62 -1 -62 18 0
18 6 20 66 20 57 0 65 -2 62 -17z"/>
</g>
<g id="part-1" class="char-part">
  <path d="M297 581 l5 -38 -53 -9 -54 -8 53 -4 c43 -2 52 -6 52 -22 0 -12 -12
-21 -37 -29 -31 -8 -23 -9 47 -5 86 6 137 24 67 24 -30 0 -37 4 -37 19 0 15
10 20 50 26 61 8 56 25 -7 25 -43 0 -45 1 -39 24 4 17 1 26 -10 30 -35 13 -42
7 -37 -33z"/>
</g>
<g id="part-2" class="char-part">
  <path d="M520 451 l-65 -17 30 -17 c61 -33 62 -35 40 -51 -11 -9 -28 -16 -37
-16 -10 0 -18 -4 -18 -9 0 -6 23 -3 51 5 51 15 51 15 92 -13 37 -25 51 -28
113 -27 39 1 79 6 89 12 15 8 3 12 -56 22 -95 15 -147 28 -154 39 -3 5 9 24
26 42 48 52 10 62 -111 30z m68 -31 c-15 -23 -27 -25 -64 -8 l-28 13 30 6 c16
4 39 7 52 8 20 1 21 -1 10 -19z"/>
</g>
<g id="part-3" class="char-part">
  <path d="M398 306 c-64 -6 -120 -14 -124 -18 -4 -5 2 -8 14 -8 28 0 36 -15 42
-84 4 -46 9 -60 23 -62 11 -1 17 4 17 16 0 20 27 30 82 30 20 0 40 5 44 11 5
8 -12 10 -57 8 -52 -3 -64 -1 -64 11 0 9 11 16 25 18 60 6 90 14 90 22 0 5
-25 6 -55 3 -45 -5 -55 -3 -55 9 0 16 20 20 163 34 37 4 67 11 67 15 0 11 -58
9 -212 -5z"/>
</g>
<g id="part-4" class="char-part">
  <path d="M495 218 l0 -73 -95 -7 c-235 -19 -242 -20 -232 -30 14 -14 68 -14
172 1 46 6 101 11 122 11 l38 0 0 -60 c0 -33 4 -60 9 -60 11 0 17 17 26 78 8
47 1 45 128 42 51 -1 77 2 77 9 0 21 -50 31 -126 24 l-75 -6 2 69 c3 66 2 69
-22 72 -23 3 -24 1 -24 -70z"/>
</g>
</g>
</svg>