<?xml version="1.0" standalone="no"?>
<!DOCTYPE svg PUBLIC "-//W3C//DTD SVG 20010904//EN"
 "http://www.w3.org/TR/2001/REC-SVG-20010904/DTD/svg10.dtd">
<svg version="1.0" xmlns="http://www.w3.org/2000/svg"
 width="96.000000pt" height="68.000000pt" viewBox="0 0 96.000000 68.000000"
 preserveAspectRatio="xMidYMid meet">
<metadata>
Created by potrace 1.16, written by Peter Selinger 2001-2019
Combined from part_0.svg through part_5.svg with named groups
</metadata>
<g transform="translate(0.000000,68.000000) scale(0.100000,-0.100000)" fill="#000000" stroke="none">
<g id="part-0" class="char-part">
  <path d="M273 579 c4 -14 9 -50 13 -81 l7 -57 -39 -6 c-70 -11 -84 -15 -84
-25 0 -5 26 -10 58 -12 57 -3 57 -3 60 -36 2 -18 -2 -39 -8 -47 -6 -7 -49 -28
-95 -46 -71 -27 -83 -35 -73 -47 30 -35 59 -34 115 3 l54 36 -3 -63 -3 -63
-42 3 c-24 1 -43 -1 -43 -5 1 -5 24 -25 51 -47 l51 -39 21 22 c20 19 22 30 19
124 l-3 102 51 33 c27 18 50 37 50 42 0 14 -5 13 -51 -11 -23 -11 -43 -18 -46
-15 -3 2 -2 18 2 35 5 23 14 33 33 37 47 10 54 14 49 27 -2 6 -20 12 -40 12
-42 0 -46 13 -23 70 18 43 5 63 -48 72 -37 6 -39 5 -33 -18z"/>
  <path d="M591 553 c7 -10 21 -28 32 -39 19 -22 19 -22 -20 -28 -21 -3 -65 -8
-97 -12 -52 -6 -57 -8 -42 -20 15 -11 17 -23 13 -81 -3 -37 -8 -78 -11 -90 -7
-34 -43 -111 -66 -142 -36 -51 -20 -57 24 -9 49 53 81 130 98 241 l12 74 76
12 c41 6 95 12 120 12 25 1 56 4 70 9 l25 7 -28 11 c-15 7 -49 11 -75 9 -42
-2 -47 1 -50 20 -3 21 -44 43 -80 43 -12 0 -12 -3 -1 -17z"/>
  <path d="M607 424 c-4 -4 -3 -14 2 -23 14 -27 22 -169 10 -176 -5 -4 -32 -7
-60 -7 -53 1 -57 -2 -35 -24 8 -8 20 -39 26 -69 11 -53 30 -81 38 -57 2 7 25
12 56 12 29 0 74 3 99 6 42 6 46 9 52 42 3 19 14 46 23 60 15 23 15 25 -4 39
-14 11 -35 13 -81 9 l-63 -7 0 39 0 39 58 6 c68 7 92 15 92 29 0 10 -36 8
-117 -8 l-31 -6 5 40 c3 22 1 42 -3 44 -18 10 -61 17 -67 12z m143 -258 c0
-25 -3 -47 -7 -49 -5 -3 -40 -8 -80 -12 l-72 -7 -8 39 c-4 21 -8 43 -8 48 0
10 59 21 133 23 l42 2 0 -44z"/>
</g>
<g id="part-1" class="char-part">
  <path d="M277 594 c-3 -3 -2 -17 4 -31 5 -13 9 -48 9 -78 l0 -53 -60 -7 c-73
-9 -69 -25 6 -25 l55 0 -3 -46 -3 -45 -85 -36 c-47 -20 -87 -38 -89 -40 -8 -6
34 -32 52 -33 10 0 41 16 69 35 29 19 54 33 56 30 3 -2 1 -34 -3 -71 l-7 -66
-39 4 c-21 2 -39 1 -38 -2 1 -10 82 -70 95 -70 25 0 34 38 34 139 l0 100 46
31 c50 35 53 51 5 26 -45 -24 -53 -21 -49 21 3 36 5 38 48 46 42 9 43 10 25
23 -12 9 -30 12 -44 9 -22 -6 -23 -4 -18 32 2 21 8 48 12 61 6 19 2 24 -29 37
-40 17 -41 17 -49 9z"/>
</g>
<g id="part-2" class="char-part">
  <path d="M580 563 c0 -4 14 -21 31 -39 l31 -32 -44 -6 c-24 -3 -67 -8 -95 -12
-54 -7 -67 -17 -37 -28 14 -5 16 -18 11 -79 -6 -84 -35 -167 -78 -227 -38 -52
-32 -61 13 -21 51 44 85 116 103 216 10 50 18 95 20 101 4 12 128 34 203 35
26 0 56 4 66 8 34 13 -3 26 -72 24 -43 -1 -62 2 -61 10 3 26 -2 34 -26 45 -29
13 -65 16 -65 5z"/>
</g>
<g id="part-3" class="char-part">
  <path d="M606 422 c-2 -4 -1 -14 5 -22 5 -8 9 -31 9 -51 0 -20 3 -57 6 -83 5
-36 11 -46 25 -46 16 0 19 8 19 43 l0 44 67 9 c42 6 68 14 71 23 5 14 -24 13
-107 -5 l-34 -7 7 42 c6 38 4 42 -20 51 -31 12 -41 12 -48 2z"/>
</g>
<g id="part-4" class="char-part">
  <path d="M695 230 c-22 -5 -73 -9 -113 -11 -57 -1 -70 -4 -62 -15 6 -7 19 -41
29 -75 10 -35 23 -65 29 -67 7 -2 12 1 12 7 0 6 17 11 39 11 21 0 66 3 100 6
51 6 61 10 61 26 0 10 9 38 20 60 11 23 19 42 17 43 -31 25 -64 28 -132 15z
m57 -37 c3 -10 1 -32 -4 -49 -7 -29 -12 -32 -60 -38 -94 -11 -96 -10 -108 35
-6 23 -9 44 -5 47 7 8 80 19 131 21 32 1 43 -3 46 -16z"/>
</g>
</g>
</svg>