<?xml version="1.0" standalone="no"?>
<!DOCTYPE svg PUBLIC "-//W3C//DTD SVG 20010904//EN"
 "http://www.w3.org/TR/2001/REC-SVG-20010904/DTD/svg10.dtd">
<svg version="1.0" xmlns="http://www.w3.org/2000/svg"
 width="96.000000pt" height="68.000000pt" viewBox="0 0 96.000000 68.000000"
 preserveAspectRatio="xMidYMid meet">
<metadata>
Created by potrace 1.16, written by Peter Selinger 2001-2019
Combined from part_0.svg through part_5.svg with named groups
</metadata>
<g transform="translate(0.000000,68.000000) scale(0.100000,-0.100000)" fill="#000000" stroke="none">
<g id="part-0" class="char-part">
  <path d="M478 581 l5 -51 -39 -1 c-71 -1 -85 -18 -16 -18 l63 -1 -3 -32 c-3
-38 -22 -45 -125 -47 -34 0 -64 -5 -68 -10 -7 -12 56 -25 90 -18 22 4 25 1 19
-17 -8 -27 -54 -76 -71 -76 -7 0 -13 -5 -13 -11 0 -16 39 -1 87 34 49 34 59
53 36 66 -14 8 -14 9 3 14 10 3 41 7 68 9 l50 3 11 -43 c5 -24 19 -50 30 -58
25 -18 136 -15 143 4 3 9 -13 12 -56 12 -64 0 -84 12 -72 45 4 11 5 26 3 33
-4 9 13 12 66 12 69 0 92 12 50 25 -12 4 -64 4 -115 0 l-94 -7 0 31 c0 33 12
39 77 44 20 1 33 7 33 16 0 11 -11 12 -49 7 l-50 -7 -3 43 c-3 40 -5 43 -34
46 l-31 3 5 -50z"/>
  <path d="M150 517 c0 -16 71 -87 88 -87 16 0 33 35 26 53 -6 16 -72 47 -99 47
-8 0 -15 -6 -15 -13z"/>
  <path d="M251 324 c-14 -20 -49 -57 -79 -84 l-54 -48 17 -36 c10 -20 21 -36
26 -36 6 0 18 19 28 43 10 23 31 65 47 92 38 64 56 105 46 105 -4 0 -18 -16
-31 -36z"/>
  <path d="M466 315 c-6 -25 -69 -95 -120 -133 -36 -27 -23 -28 27 -2 l37 20 35
-22 c19 -13 35 -25 35 -28 0 -7 -75 -46 -125 -65 l-40 -15 48 5 c26 2 70 15
98 27 45 19 54 20 73 8 123 -78 108 -73 201 -65 47 4 83 10 81 14 -3 3 -54 20
-115 36 -61 17 -120 37 -131 45 -20 15 -19 17 31 74 41 46 49 60 38 67 -19 12
-81 11 -113 -1 -28 -10 -35 0 -11 20 12 10 12 14 0 26 -21 21 -42 17 -49 -11z
m104 -70 c0 -8 -12 -29 -28 -46 l-27 -31 -43 25 c-40 22 -41 25 -25 40 10 8
36 17 58 20 22 2 46 4 53 5 6 1 12 -5 12 -13z"/>
</g>
<g id="part-1" class="char-part">
  <path d="M176 488 c38 -42 45 -48 67 -48 12 0 17 8 17 26 0 19 -8 28 -35 40
-19 7 -44 14 -57 14 -21 0 -21 -1 8 -32z"/>
</g>
<g id="part-2" class="char-part">
  <path d="M244 319 c-15 -23 -51 -61 -78 -85 l-50 -43 17 -36 c9 -19 21 -35 27
-35 5 0 28 37 51 83 22 45 45 87 49 92 15 18 30 65 21 65 -5 0 -21 -18 -37
-41z"/>
</g>
<g id="part-3" class="char-part">
  <path d="M478 580 l5 -50 -39 -1 c-68 -1 -87 -17 -22 -18 53 -1 58 -3 64 -27
4 -14 2 -30 -4 -36 -5 -5 -49 -13 -96 -15 -48 -3 -89 -10 -92 -14 -10 -17 52
-22 125 -10 91 14 148 19 259 20 46 1 82 5 82 11 0 16 -62 27 -110 19 -25 -4
-62 -8 -82 -8 -35 -1 -38 1 -38 28 0 32 14 41 63 41 18 0 39 4 47 10 23 14
-12 24 -60 16 l-40 -6 0 45 c0 44 0 45 -34 45 l-33 0 5 -50z"/>
</g>
<g id="part-4" class="char-part">
  <path d="M574 396 c2 -17 4 -39 5 -48 1 -22 62 -41 120 -36 68 5 66 28 -2 28
-79 0 -89 6 -81 45 5 29 3 33 -20 37 -23 5 -25 3 -22 -26z"/>
  <path d="M403 381 c-6 -16 -30 -43 -53 -60 -24 -17 -38 -31 -31 -31 22 0 76
29 111 59 34 30 34 32 16 46 -27 20 -30 19 -43 -14z"/>
</g>
<g id="part-5" class="char-part">
  <path d="M569 285 c-3 -2 -14 -6 -25 -8 -10 -1 -28 -8 -39 -15 -18 -11 -17
-12 8 -6 52 12 62 10 65 -13 2 -13 -1 -23 -7 -23 -6 0 -8 -8 -4 -17 3 -10 2
-15 -2 -10 -5 4 -15 1 -24 -7 -9 -8 -25 -16 -36 -18 -12 -2 -21 -13 -23 -27
-3 -19 0 -23 14 -17 11 4 31 -3 55 -19 21 -13 44 -26 51 -27 7 -2 19 -9 26
-16 10 -9 36 -11 90 -7 79 6 107 14 56 16 -16 1 -33 1 -38 0 -5 -1 -12 3 -16
9 -4 7 -27 13 -51 15 -60 3 -61 4 -54 15 3 6 0 10 -9 10 -8 0 -22 3 -32 7 -13
5 -15 3 -9 -8 4 -8 5 -11 1 -7 -4 3 -8 10 -8 15 0 4 -4 13 -9 19 -5 7 9 30 41
64 28 30 50 57 50 61 0 12 -61 24 -71 14z"/>
  <path d="M430 200 c0 -6 6 -10 14 -10 8 0 16 -5 18 -12 3 -8 6 -9 11 -1 3 5
-5 15 -18 21 -15 7 -25 8 -25 2z"/>
  <path d="M450 123 c-8 -4 -21 -12 -28 -20 -11 -11 -11 -13 2 -13 9 0 16 5 16
10 0 6 7 10 15 10 8 0 15 5 15 10 0 6 -1 10 -2 9 -2 0 -10 -3 -18 -6z"/>
  <path d="M365 83 l-30 -14 30 6 c31 7 41 12 34 19 -2 2 -17 -3 -34 -11z"/>
</g>
</g>
</svg>