<?xml version="1.0" standalone="no"?>
<!DOCTYPE svg PUBLIC "-//W3C//DTD SVG 20010904//EN"
 "http://www.w3.org/TR/2001/REC-SVG-20010904/DTD/svg10.dtd">
<svg version="1.0" xmlns="http://www.w3.org/2000/svg"
 width="96.000000pt" height="68.000000pt" viewBox="0 0 96.000000 68.000000"
 preserveAspectRatio="xMidYMid meet">
<metadata>
Created by potrace 1.16, written by Peter Selinger 2001-2019
Combined from part_0.svg through part_5.svg with named groups
</metadata>
<g transform="translate(0.000000,68.000000) scale(0.100000,-0.100000)" fill="#000000" stroke="none">
<g id="part-0" class="char-part">
  <path d="M613 573 c-9 -16 -26 -38 -37 -50 -27 -31 -14 -29 55 9 60 33 72 51
43 62 -29 11 -43 6 -61 -21z"/>
  <path d="M410 557 c0 -21 47 -60 64 -54 19 8 20 18 4 39 -18 22 -68 33 -68 15z"/>
  <path d="M160 522 c0 -15 78 -82 95 -82 22 0 20 57 -3 69 -28 15 -92 24 -92
13z"/>
  <path d="M540 470 c-25 -4 -75 -11 -113 -14 -79 -9 -80 -26 -2 -26 54 0 55 0
37 -21 -9 -11 -36 -32 -60 -46 -56 -33 -49 -38 16 -11 42 18 54 20 65 9 10
-10 6 -17 -17 -36 -16 -13 -47 -32 -68 -42 -21 -10 -38 -22 -38 -26 0 -12 38
1 96 34 57 32 74 36 74 15 0 -22 -42 -57 -112 -94 -76 -41 -34 -35 57 8 65 30
78 26 65 -21 -13 -44 -20 -51 -46 -46 -25 4 -24 -3 4 -35 14 -16 13 -18 -2
-18 -10 0 -52 9 -94 19 -43 10 -89 21 -103 25 -22 5 -25 10 -21 37 4 25 -1 36
-24 54 l-29 24 38 39 38 39 -24 16 c-23 15 -29 14 -101 -11 -58 -19 -73 -28
-61 -35 9 -5 34 -5 57 -2 44 8 43 10 22 -41 -3 -5 5 -21 16 -34 21 -24 36 -67
28 -76 -3 -2 -35 -7 -72 -11 -36 -3 -66 -9 -66 -12 0 -23 28 -29 109 -24 83 5
91 4 242 -46 85 -28 171 -51 190 -51 32 0 196 43 207 55 10 9 -26 14 -173 20
-122 6 -146 10 -132 20 29 21 49 82 41 131 -7 50 -3 53 29 23 38 -36 99 -79
114 -79 9 0 13 8 11 23 -2 16 -21 31 -75 57 -40 19 -72 38 -72 42 -1 4 22 19
51 35 61 33 70 50 32 59 -19 5 -29 2 -36 -9 -5 -9 -23 -30 -39 -45 l-31 -29
-30 29 c-16 15 -34 28 -39 28 -19 0 -8 21 16 30 27 10 33 26 13 33 -12 4 4 7
112 23 22 3 40 10 40 15 0 10 -75 10 -140 -1z"/>
</g>
<g id="part-1" class="char-part">
  <path d="M179 502 c25 -46 91 -70 91 -33 0 25 -21 41 -65 48 -35 6 -37 5 -26
-15z"/>
  <path d="M165 334 l-60 -24 53 2 c54 3 64 -7 43 -41 -7 -10 -2 -24 15 -44 13
-16 24 -41 24 -58 l0 -29 -66 0 c-48 0 -65 -3 -61 -12 2 -9 33 -13 103 -14 91
-1 111 -6 251 -53 84 -28 160 -51 170 -51 24 0 204 52 199 57 -2 3 -76 9 -163
14 -87 5 -187 15 -223 23 -36 9 -93 21 -128 28 -43 9 -61 17 -57 25 3 7 8 20
11 28 4 9 -6 27 -27 46 l-34 31 40 33 c33 29 37 35 26 49 -18 21 -43 19 -116
-10z"/>
</g>
<g id="part-2" class="char-part">
  <path d="M620 591 c0 -6 -16 -29 -36 -51 -20 -22 -31 -40 -24 -40 24 0 142 72
133 81 -15 15 -73 23 -73 10z"/>
  <path d="M400 561 c0 -14 61 -62 74 -58 27 9 17 38 -18 52 -41 17 -56 19 -56
6z"/>
  <path d="M560 475 c-47 -7 -111 -15 -143 -19 -68 -9 -66 -26 3 -26 63 0 252
29 265 41 5 6 5 9 -2 9 -6 0 -17 2 -25 4 -7 2 -51 -2 -98 -9z"/>
</g>
<g id="part-3" class="char-part">
  <path d="M485 431 c-3 -5 -33 -30 -66 -55 -69 -52 -69 -55 2 -24 l51 21 31
-31 c26 -26 31 -40 35 -90 6 -79 -9 -106 -51 -98 l-31 6 29 -30 c41 -43 62
-39 86 14 15 36 18 56 13 102 -6 49 -13 63 -47 97 l-40 40 24 18 c20 16 22 20
9 29 -19 12 -37 13 -45 1z"/>
</g>
<g id="part-4" class="char-part">
  <path d="M624 373 c-9 -15 -26 -34 -36 -43 -27 -22 -16 -40 61 -98 73 -56 91
-62 91 -34 0 17 -28 52 -42 52 -3 0 -32 12 -64 26 l-58 25 62 35 c64 36 73 48
46 58 -29 11 -41 6 -60 -21z"/>
</g>
</g>
</svg>