<?xml version="1.0" standalone="no"?>
<!DOCTYPE svg PUBLIC "-//W3C//DTD SVG 20010904//EN"
 "http://www.w3.org/TR/2001/REC-SVG-20010904/DTD/svg10.dtd">
<svg version="1.0" xmlns="http://www.w3.org/2000/svg"
 width="96.000000pt" height="68.000000pt" viewBox="0 0 96.000000 68.000000"
 preserveAspectRatio="xMidYMid meet">
<metadata>
Created by potrace 1.16, written by Peter Selinger 2001-2019
Combined from part_0.svg through part_5.svg with named groups
</metadata>
<g transform="translate(0.000000,68.000000) scale(0.100000,-0.100000)" fill="#000000" stroke="none">
<g id="part-0" class="char-part">
  <path d="M425 559 c-22 -6 -50 -7 -62 -4 -13 3 -23 1 -23 -5 0 -5 5 -10 10
-10 6 0 9 -3 8 -7 -1 -5 2 -23 6 -40 8 -35 22 -39 84 -27 21 4 32 14 36 30 4
13 11 24 16 24 6 0 10 9 10 20 0 11 -4 20 -9 20 -5 0 -15 2 -23 4 -7 2 -31 0
-53 -5z m35 -33 c0 -31 -13 -46 -40 -46 -29 0 -49 28 -35 50 10 16 75 12 75
-4z"/>
  <path d="M255 549 c-22 -4 -57 -8 -77 -8 l-37 -1 14 -27 c8 -16 19 -43 26 -60
11 -31 29 -45 29 -23 0 5 23 12 50 16 30 4 50 12 50 19 0 7 7 18 15 25 21 17
15 51 -10 60 -11 3 -38 3 -60 -1z m15 -48 c0 -33 -54 -43 -63 -11 -5 20 5 28
41 29 15 1 22 -5 22 -18z"/>
  <path d="M611 532 c-71 -11 -89 -17 -76 -24 9 -6 30 -8 46 -6 32 5 37 -9 19
-56 -7 -21 -16 -26 -42 -26 l-33 0 0 -118 c0 -116 0 -117 23 -114 20 2 22 -1
17 -20 -8 -25 -36 -60 -75 -95 -14 -12 -20 -22 -15 -23 11 0 30 12 114 73 l54
40 -22 19 c-23 18 -23 18 44 18 55 0 70 -4 83 -20 10 -11 22 -17 28 -12 14 9
23 241 10 261 -7 11 -26 12 -89 7 l-79 -7 25 31 c15 17 24 37 21 45 -5 12 6
15 59 15 70 0 100 7 91 21 -7 13 -93 9 -203 -9z m113 -118 c9 -3 16 -17 16
-30 0 -20 -5 -24 -29 -24 -15 0 -56 -3 -90 -6 -58 -7 -61 -6 -58 14 4 29 5 29
67 37 30 4 57 9 59 11 6 6 17 5 35 -2z m16 -91 c0 -27 -2 -28 -58 -31 -31 -2
-70 -4 -87 -5 -24 -2 -31 2 -33 19 -3 20 3 22 85 31 48 6 89 11 91 12 1 0 2
-11 2 -26z m0 -70 l0 -28 -90 -2 c-89 -2 -90 -2 -90 22 0 23 3 24 73 28 39 1
80 4 90 5 12 1 17 -5 17 -25z"/>
  <path d="M295 400 l-80 -18 62 -1 c70 -1 163 16 163 30 0 13 -54 9 -145 -11z"/>
  <path d="M295 335 c-44 -7 -102 -16 -129 -20 -71 -10 -44 -29 33 -23 68 5 72
-1 44 -51 -10 -16 -15 -32 -12 -35 3 -3 27 1 54 9 26 8 62 15 78 15 29 0 30
-1 24 -42 -10 -72 -64 -119 -103 -88 -22 19 -16 -2 11 -35 l24 -30 38 21 c29
17 42 33 55 70 9 27 22 57 28 67 9 15 8 23 -7 39 -16 18 -26 20 -85 15 -68 -6
-81 0 -53 23 8 7 15 18 15 25 0 13 23 19 118 31 28 4 52 10 52 15 0 12 -90 9
-185 -6z"/>
  <path d="M735 100 c33 -33 63 -60 67 -60 3 0 10 9 13 21 9 26 -16 54 -69 80
-70 33 -73 21 -11 -41z"/>
</g>
<g id="part-1" class="char-part">
  <path d="M226 540 c-21 -4 -47 -5 -57 -3 -16 5 -16 1 3 -51 20 -55 31 -66 43
-46 3 6 21 10 38 10 39 0 47 6 70 49 26 50 2 60 -97 41z m52 -37 c-2 -22 -9
-29 -32 -31 -44 -5 -66 43 -23 51 53 10 58 8 55 -20z"/>
</g>
<g id="part-2" class="char-part">
  <path d="M275 241 c-28 -4 -41 -11 -43 -25 -3 -16 0 -18 19 -11 126 39 149 32
129 -39 -20 -71 -43 -85 -104 -61 -16 7 -15 4 5 -28 13 -20 32 -37 42 -37 32
0 75 38 87 78 7 20 19 52 28 70 14 30 13 34 -4 47 -20 15 -86 17 -159 6z"/>
</g>
<g id="part-3" class="char-part">
  <path d="M638 537 c-115 -19 -146 -37 -66 -37 l40 0 -6 -35 c-8 -42 2 -44 37
-7 18 19 25 35 21 45 -5 15 3 17 62 17 82 0 113 13 71 29 -16 6 -31 10 -35 10
-4 -1 -60 -10 -124 -22z"/>
</g>
<g id="part-4" class="char-part">
  <path d="M610 427 l-85 -10 0 -83 c0 -72 2 -84 17 -84 9 0 18 4 20 8 2 5 43
12 91 15 72 5 89 3 94 -8 3 -8 13 -15 23 -15 15 0 18 12 22 83 3 47 1 87 -4
95 -12 13 -53 13 -178 -1z m114 -13 c9 -3 16 -16 16 -29 0 -21 -5 -23 -86 -29
-47 -4 -88 -5 -91 -2 -3 2 -2 13 1 24 5 15 21 22 64 30 77 13 78 13 96 6z m16
-91 c0 -27 -2 -28 -63 -31 -34 -2 -73 -4 -87 -5 -19 -1 -26 3 -28 19 -3 19 4
22 85 31 48 5 89 11 91 11 1 1 2 -10 2 -25z"/>
</g>
<g id="part-5" class="char-part">
  <path d="M585 180 c3 -5 0 -10 -6 -12 -7 -2 -13 -15 -14 -29 -1 -13 -6 -23
-11 -22 -5 0 -15 -5 -22 -13 -22 -24 2 -15 46 17 46 34 53 54 22 62 -11 3 -18
1 -15 -3z"/>
  <path d="M716 143 c-10 -10 66 -82 85 -80 11 1 19 4 19 7 0 13 -56 54 -69 52
-7 -2 -10 1 -7 6 6 11 -19 24 -28 15z"/>
</g>
</g>
</svg>