<?xml version="1.0" standalone="no"?>
<!DOCTYPE svg PUBLIC "-//W3C//DTD SVG 20010904//EN"
 "http://www.w3.org/TR/2001/REC-SVG-20010904/DTD/svg10.dtd">
<svg version="1.0" xmlns="http://www.w3.org/2000/svg"
 width="96.000000pt" height="68.000000pt" viewBox="0 0 96.000000 68.000000"
 preserveAspectRatio="xMidYMid meet">
<metadata>
Created by potrace 1.16, written by Peter Selinger 2001-2019
Combined from part_0.svg through part_5.svg with named groups
</metadata>
<g transform="translate(0.000000,68.000000) scale(0.100000,-0.100000)" fill="#000000" stroke="none">
<g id="part-0" class="char-part">
  <path d="M186 552 c-9 -15 70 -84 90 -80 29 5 25 50 -6 64 -38 18 -78 25 -84
16z"/>
  <path d="M515 513 c-30 -8 -69 -12 -97 -8 l-48 6 0 -169 c0 -154 2 -170 19
-186 36 -33 92 -45 210 -46 96 0 122 3 157 21 62 30 67 39 45 85 -10 21 -21
46 -23 54 -3 9 -10 -2 -17 -26 -6 -22 -20 -49 -30 -58 -31 -28 -138 -42 -228
-29 -97 14 -105 24 -101 118 l3 70 106 10 c72 7 105 14 102 22 -2 6 9 40 26
74 22 47 27 65 18 71 -18 11 -86 7 -142 -9z m67 -58 c-5 -64 -14 -72 -92 -79
-38 -4 -74 -5 -78 -2 -8 5 0 91 9 101 6 5 130 23 149 21 11 -1 14 -12 12 -41z"/>
  <path d="M120 426 c1 -26 61 -76 92 -76 21 0 25 42 5 58 -21 18 -97 32 -97 18z"/>
  <path d="M243 296 c-18 -29 -51 -70 -74 -90 -43 -39 -46 -59 -16 -100 20 -27
43 -15 57 31 7 21 28 73 46 116 19 43 34 82 34 87 0 23 -17 7 -47 -44z"/>
</g>
<g id="part-1" class="char-part">
  <path d="M228 509 c45 -42 65 -46 70 -13 3 22 -51 54 -91 54 -19 0 -17 -5 21
-41z"/>
  <path d="M130 411 c13 -25 77 -64 90 -56 5 3 10 15 10 26 0 21 -51 49 -90 49
-17 0 -19 -3 -10 -19z"/>
  <path d="M248 297 c-15 -24 -45 -64 -67 -89 -23 -25 -41 -53 -41 -61 0 -18 36
-64 44 -57 9 10 103 250 97 250 -3 -1 -18 -20 -33 -43z"/>
</g>
<g id="part-2" class="char-part">
  <path d="M530 519 c-42 -12 -82 -17 -115 -13 l-50 5 3 -81 c4 -82 5 -84 47
-82 130 5 203 15 199 27 -3 7 8 40 25 74 17 33 31 62 31 65 0 5 -60 27 -69 25
-3 -1 -35 -10 -71 -20z m56 -56 c-15 -81 -11 -78 -109 -88 l-67 -7 0 33 c0 69
7 77 73 87 112 17 110 17 103 -25z"/>
</g>
<g id="part-3" class="char-part">
  <path d="M370 263 c0 -49 4 -93 8 -99 21 -33 79 -48 192 -52 127 -4 185 6 226
41 l26 23 -20 39 c-11 22 -22 47 -24 55 -3 8 -11 -5 -19 -30 -21 -67 -59 -85
-179 -85 -162 0 -180 12 -180 121 0 59 -3 74 -15 74 -12 0 -15 -16 -15 -87z"/>
</g>
</g>
</svg>