<?xml version="1.0" standalone="no"?>
<!DOCTYPE svg PUBLIC "-//W3C//DTD SVG 20010904//EN"
 "http://www.w3.org/TR/2001/REC-SVG-20010904/DTD/svg10.dtd">
<svg version="1.0" xmlns="http://www.w3.org/2000/svg"
 width="96.000000pt" height="68.000000pt" viewBox="0 0 96.000000 68.000000"
 preserveAspectRatio="xMidYMid meet">
<metadata>
Created by potrace 1.16, written by Peter Selinger 2001-2019
Combined from part_0.svg through part_5.svg with named groups
</metadata>
<g transform="translate(0.000000,68.000000) scale(0.100000,-0.100000)" fill="#000000" stroke="none">
<g id="part-0" class="char-part">
  <path d="M286 583 c5 -16 8 -55 9 -88 l0 -60 -62 -8 c-35 -5 -63 -13 -63 -18
0 -5 29 -9 65 -9 l65 0 0 -44 0 -44 -72 -30 c-40 -16 -81 -32 -90 -35 -22 -8
-23 -33 -2 -41 31 -12 58 -6 106 25 27 17 50 30 53 28 2 -2 0 -29 -4 -59 l-6
-55 -40 2 -39 3 44 -45 c24 -25 52 -45 60 -45 28 0 40 46 40 145 l0 94 40 23
c22 13 40 29 40 36 0 14 -26 17 -34 3 -3 -5 -15 -11 -26 -14 -17 -4 -20 0 -20
29 0 26 4 34 19 34 10 0 33 5 51 11 28 10 30 13 15 21 -9 6 -32 10 -50 10 -33
0 -33 1 -28 36 3 21 10 45 14 54 5 9 9 21 9 27 0 14 -53 41 -81 41 -18 0 -20
-3 -13 -27z"/>
  <path d="M615 565 c-33 -8 -80 -18 -105 -23 -36 -7 -41 -10 -26 -17 17 -7 76
1 164 22 30 7 29 -14 -5 -49 -18 -18 -37 -28 -57 -28 l-31 -1 28 -24 c15 -13
27 -26 27 -29 0 -2 -35 -8 -77 -11 l-78 -7 -3 -92 c-1 -50 -3 -113 -5 -141 -1
-39 1 -50 13 -50 10 0 18 17 25 50 l11 50 49 0 50 0 3 -50 c6 -100 28 -98 38
3 5 48 11 62 23 62 9 0 32 3 52 6 36 6 37 6 41 -32 5 -43 -4 -90 -18 -88 -5 1
-20 5 -34 9 -24 7 -23 5 9 -29 19 -20 42 -36 52 -36 36 0 43 27 45 168 1 76 4
144 8 152 14 35 -31 60 -88 49 -71 -14 -86 -12 -86 14 0 16 13 30 45 50 25 15
52 27 59 27 30 0 23 28 -10 44 -39 18 -38 18 -119 1z m141 -190 c4 -14 5 -27
3 -29 -2 -2 -30 -7 -61 -10 -54 -7 -56 -6 -51 13 3 12 0 28 -7 36 -11 13 -4
15 49 15 57 0 61 -2 67 -25z m-164 -10 c0 -14 1 -30 2 -37 1 -7 -17 -13 -46
-15 l-48 -3 0 34 c0 36 8 41 68 45 17 1 22 -5 24 -24z m166 -73 c4 -25 -2 -28
-70 -37 -46 -6 -48 -5 -48 19 0 21 6 26 43 34 57 14 71 11 75 -16z m-160 -24
c-3 -20 -9 -23 -53 -23 -37 0 -50 4 -51 15 -1 26 6 30 57 30 47 0 50 -2 47
-22z"/>
</g>
<g id="part-1" class="char-part">
  <path d="M295 563 c3 -27 8 -64 11 -84 6 -44 0 -49 -71 -56 -76 -8 -69 -23 10
-23 71 0 72 -1 59 -67 -5 -26 -15 -33 -95 -63 -49 -19 -87 -39 -86 -45 2 -5
15 -14 29 -19 21 -7 36 -3 84 28 l59 37 3 -33 c2 -17 1 -47 -3 -65 -5 -29 -10
-33 -37 -33 l-32 0 39 -40 c21 -22 43 -40 47 -40 22 0 38 64 38 152 l0 93 42
24 c48 27 37 41 -11 16 l-31 -16 0 41 c0 35 3 40 28 46 46 10 53 14 47 24 -3
5 -22 10 -41 10 -30 0 -34 3 -34 25 0 14 7 42 15 62 8 20 14 37 13 38 -11 9
-69 35 -78 35 -8 0 -9 -16 -5 -47z"/>
</g>
<g id="part-2" class="char-part">
  <path d="M657 574 c-3 -3 -47 -12 -98 -20 -50 -7 -94 -16 -97 -18 -2 -3 8 -8
22 -12 24 -6 95 4 164 22 29 8 28 -7 -4 -46 -15 -17 -24 -33 -21 -36 6 -7 147
68 147 78 0 19 -98 46 -113 32z"/>
</g>
<g id="part-3" class="char-part">
  <path d="M589 439 c24 -23 36 -28 44 -20 19 19 -6 46 -44 49 l-34 2 34 -31z"/>
</g>
<g id="part-4" class="char-part">
  <path d="M625 415 c-44 -8 -101 -14 -126 -14 l-46 -1 5 -56 c2 -30 -1 -89 -7
-129 -12 -72 -9 -115 9 -115 16 0 31 67 37 172 l6 107 46 7 c25 4 82 8 126 8
l80 1 -1 -133 c-1 -138 -9 -167 -38 -143 -9 7 -20 11 -26 9 -6 -2 7 -20 28
-41 l39 -38 24 19 c22 19 23 24 21 130 -1 61 2 132 8 157 9 41 8 49 -7 61 -22
16 -72 16 -178 -1z"/>
</g>
</g>
</svg>