<?xml version="1.0" standalone="no"?>
<!DOCTYPE svg PUBLIC "-//W3C//DTD SVG 20010904//EN"
 "http://www.w3.org/TR/2001/REC-SVG-20010904/DTD/svg10.dtd">
<svg version="1.0" xmlns="http://www.w3.org/2000/svg"
 width="96.000000pt" height="68.000000pt" viewBox="0 0 96.000000 68.000000"
 preserveAspectRatio="xMidYMid meet">
<metadata>
Created by potrace 1.16, written by Peter Selinger 2001-2019
Combined from part_0.svg through part_5.svg with named groups
</metadata>
<g transform="translate(0.000000,68.000000) scale(0.100000,-0.100000)" fill="#000000" stroke="none">
<g id="part-0" class="char-part">
  <path d="M415 579 c4 -19 9 -63 11 -100 l3 -65 -87 -4 c-48 -2 -104 -4 -124
-4 -41 -1 -47 -10 -22 -37 9 -10 24 -65 35 -131 25 -149 26 -151 52 -144 12 2
74 8 137 11 63 3 132 8 153 11 34 4 40 1 55 -26 9 -16 22 -30 29 -30 23 0 52
57 63 126 15 88 36 184 45 206 5 12 -2 21 -26 34 -27 13 -48 15 -113 10 -45
-4 -92 -8 -106 -9 -31 -2 -37 26 -20 102 14 63 9 70 -50 78 l-43 6 8 -34z
m265 -231 l0 -63 -98 0 -97 0 -3 57 -3 57 43 4 c24 2 69 4 101 5 l57 2 0 -62z
m-248 32 c2 -5 1 -32 0 -60 l-4 -50 -56 -1 c-32 -1 -67 -3 -79 -4 -18 -2 -25
5 -33 34 -18 67 -14 79 28 84 77 8 140 7 144 -3z m241 -147 c-15 -91 -9 -87
-106 -89 l-87 -2 0 53 c0 33 5 55 13 57 6 3 41 6 77 7 36 2 67 5 69 7 2 2 12
4 22 4 15 0 17 -6 12 -37z m-243 -43 l0 -60 -70 0 -69 0 -6 38 c-3 20 -8 45
-9 54 -4 17 15 22 117 26 l37 2 0 -60z"/>
</g>
<g id="part-1" class="char-part">
  <path d="M416 601 c-4 -5 -2 -21 4 -36 5 -14 10 -53 10 -86 0 -55 1 -59 24
-59 21 0 24 7 34 63 5 34 13 70 17 80 6 13 -1 20 -29 32 -41 17 -53 18 -60 6z"/>
</g>
<g id="part-2" class="char-part">
  <path d="M605 435 c-20 -8 -394 -33 -414 -28 -26 7 -26 -1 0 -36 13 -18 27
-68 41 -147 21 -123 32 -151 52 -135 6 5 72 12 146 16 74 3 145 8 157 11 17 3
26 -3 38 -27 36 -69 78 -8 106 153 11 62 24 121 29 130 16 29 12 38 -25 54
-31 13 -106 18 -130 9z m75 -87 l0 -63 -98 0 -97 0 -3 57 -3 57 43 4 c24 2 69
4 101 5 l57 2 0 -62z m-250 -18 l0 -60 -49 0 c-27 0 -62 -3 -78 -6 -34 -7 -38
-2 -48 69 l-7 46 38 4 c22 2 63 4 92 5 l52 2 0 -60z m244 -92 c-3 -18 -10 -46
-15 -63 l-9 -30 -85 -1 -85 -2 0 54 c0 52 1 53 33 59 17 2 52 6 77 8 25 2 55
4 67 5 20 2 22 -2 17 -30z m-244 -48 l0 -60 -69 0 -69 0 -6 38 c-4 20 -9 45
-12 54 -5 17 13 21 119 26 l37 2 0 -60z"/>
</g>
</g>
</svg>