<?xml version="1.0" standalone="no"?>
<!DOCTYPE svg PUBLIC "-//W3C//DTD SVG 20010904//EN"
 "http://www.w3.org/TR/2001/REC-SVG-20010904/DTD/svg10.dtd">
<svg version="1.0" xmlns="http://www.w3.org/2000/svg"
 width="96.000000pt" height="68.000000pt" viewBox="0 0 96.000000 68.000000"
 preserveAspectRatio="xMidYMid meet">
<metadata>
Created by potrace 1.16, written by Peter Selinger 2001-2019
Combined from part_0.svg through part_5.svg with named groups
</metadata>
<g transform="translate(0.000000,68.000000) scale(0.100000,-0.100000)" fill="#000000" stroke="none">
<g id="part-0" class="char-part">
  <path d="M675 555 c-22 -8 -53 -14 -70 -15 -22 0 -26 -3 -15 -9 8 -5 36 -6 62
-2 55 9 58 7 58 -29 0 -37 -15 -47 -87 -55 -35 -4 -63 -11 -63 -16 0 -5 5 -9
10 -9 17 0 11 -62 -7 -75 -27 -20 -6 -38 36 -30 20 4 40 11 45 16 6 5 27 9 48
9 l38 0 0 -80 c0 -43 -5 -102 -11 -130 l-11 -52 -35 7 -35 6 19 -25 c35 -49
81 -46 106 7 9 18 20 77 26 132 6 55 12 111 13 124 4 34 -40 48 -99 33 -24 -7
-54 -12 -68 -12 -23 0 -23 2 -13 33 14 42 12 40 64 47 43 5 47 8 61 45 27 73
27 82 1 88 -27 8 -22 8 -73 -8z"/>
  <path d="M435 538 c-66 -23 -70 -28 -17 -22 l53 6 -3 -38 c-3 -39 -4 -39 -63
-54 -73 -17 -69 -14 -54 -38 10 -17 10 -25 -5 -47 -25 -39 -9 -51 48 -36 72
18 70 22 63 -84 -8 -116 -18 -139 -58 -133 -34 5 -35 1 -9 -30 27 -33 61 -26
82 18 23 48 43 241 26 252 -7 5 -39 6 -70 3 -32 -3 -58 -4 -58 -2 0 3 7 21 15
41 13 31 20 36 49 36 47 0 66 9 66 30 0 11 10 35 22 55 17 31 19 38 7 46 -18
11 -55 10 -94 -3z"/>
  <path d="M210 531 c0 -16 72 -72 88 -69 27 5 21 50 -8 65 -29 15 -80 17 -80 4z"/>
  <path d="M140 388 c0 -21 53 -68 77 -68 18 0 23 6 23 25 0 26 -17 39 -67 48
-22 4 -33 3 -33 -5z"/>
  <path d="M241 268 c-16 -29 -46 -69 -65 -87 -41 -40 -46 -71 -15 -102 21 -21
22 -21 32 -3 15 27 97 226 97 236 0 22 -22 3 -49 -44z"/>
  <path d="M574 255 c31 -27 66 -33 66 -12 0 23 -23 37 -59 37 l-36 0 29 -25z"/>
  <path d="M345 245 c36 -30 45 -31 45 -6 0 11 -9 21 -22 25 -46 12 -53 6 -23
-19z"/>
  <path d="M625 203 c-33 -13 -68 -26 -77 -29 -26 -9 -22 -21 8 -28 23 -6 47 6
133 71 16 12 -13 6 -64 -14z"/>
  <path d="M370 191 c-25 -11 -53 -22 -64 -25 -15 -5 -16 -9 -6 -21 18 -22 25
-19 81 25 57 45 55 48 -11 21z"/>
</g>
<g id="part-1" class="char-part">
  <path d="M220 531 c0 -15 57 -61 77 -61 27 0 30 21 6 42 -17 15 -83 30 -83 19z"/>
  <path d="M169 356 c38 -39 58 -45 68 -20 8 23 -18 44 -63 51 l-39 6 34 -37z"/>
  <path d="M244 263 c-15 -26 -45 -66 -66 -89 -34 -36 -38 -44 -29 -66 12 -33
31 -45 42 -27 18 29 91 220 86 225 -3 3 -18 -16 -33 -43z"/>
</g>
<g id="part-2" class="char-part">
  <path d="M416 534 c-69 -19 -71 -28 -3 -20 50 5 57 4 57 -11 -1 -51 -11 -62
-71 -74 -61 -12 -65 -15 -50 -38 6 -10 4 -25 -5 -42 -27 -54 -17 -57 90 -33
l29 7 -6 -89 c-3 -49 -11 -102 -18 -118 -11 -24 -17 -27 -46 -23 l-33 6 18
-25 c21 -29 57 -41 77 -24 23 19 43 106 47 200 l3 85 -67 -2 c-63 -1 -83 7
-58 22 6 3 10 15 10 25 0 20 11 25 77 35 30 5 40 11 36 20 -2 8 6 33 18 55 20
35 21 43 9 50 -19 12 -54 11 -114 -6z"/>
</g>
<g id="part-3" class="char-part">
  <path d="M375 194 c-27 -13 -58 -24 -67 -24 -25 0 -23 -27 2 -35 15 -5 34 4
68 31 26 21 49 39 51 41 2 2 2 5 0 7 -2 2 -26 -7 -54 -20z"/>
</g>
<g id="part-4" class="char-part">
  <path d="M600 195 c-83 -33 -84 -34 -58 -46 25 -11 33 -8 93 31 94 62 90 63
-35 15z"/>
</g>
</g>
</svg>