<?xml version="1.0" standalone="no"?>
<!DOCTYPE svg PUBLIC "-//W3C//DTD SVG 20010904//EN"
 "http://www.w3.org/TR/2001/REC-SVG-20010904/DTD/svg10.dtd">
<svg version="1.0" xmlns="http://www.w3.org/2000/svg"
 width="96.000000pt" height="68.000000pt" viewBox="0 0 96.000000 68.000000"
 preserveAspectRatio="xMidYMid meet">
<metadata>
Created by potrace 1.16, written by Peter Selinger 2001-2019
Combined from part_0.svg through part_5.svg with named groups
</metadata>
<g transform="translate(0.000000,68.000000) scale(0.100000,-0.100000)" fill="#000000" stroke="none">
<g id="part-0" class="char-part">
  <path d="M247 497 l6 -85 -44 -7 c-97 -14 -109 -18 -103 -26 3 -5 32 -9 65 -9
32 0 59 -3 59 -6 0 -18 -68 -121 -106 -162 -61 -64 -59 -80 5 -41 42 25 49 33
89 88 32 44 32 44 32 15 0 -16 -5 -64 -12 -106 -12 -83 -3 -128 26 -128 21 0
26 24 33 147 6 105 7 112 23 98 25 -23 50 -19 50 8 0 17 -10 28 -35 40 -52 25
-48 54 10 68 25 6 48 16 51 21 11 17 -19 29 -58 23 -37 -5 -37 -5 -33 25 3 16
7 43 10 59 5 32 -7 46 -47 56 l-27 7 6 -85z"/>
  <path d="M560 515 c-74 -13 -142 -24 -150 -25 -11 0 -10 -3 4 -11 11 -7 38 -9
67 -5 27 4 49 3 49 -2 0 -5 -11 -26 -25 -46 -13 -20 -22 -42 -19 -50 5 -13 11
-13 46 0 22 7 44 11 49 8 10 -6 10 -133 0 -179 -6 -26 -11 -30 -39 -29 -27 2
-30 0 -22 -16 5 -10 17 -21 27 -25 17 -6 17 -8 -2 -15 -11 -4 -59 -11 -107
-15 -49 -4 -88 -11 -88 -15 0 -16 66 -22 106 -11 22 6 84 11 139 11 131 0 265
11 265 21 0 19 -78 29 -151 19 -119 -15 -120 -15 -103 18 7 15 14 50 15 77 1
28 4 62 8 77 l6 27 33 -28 c17 -16 32 -32 32 -36 0 -9 -21 -29 -45 -43 -33
-19 8 -15 50 5 35 16 36 16 51 -5 15 -22 54 -31 54 -12 0 6 -11 22 -25 36 -30
30 -30 32 -5 64 24 31 26 60 3 62 -30 2 -36 1 -91 -15 l-53 -16 3 32 3 32 -51
-2 c-47 -2 -51 0 -47 17 3 11 11 25 19 31 8 6 14 17 14 24 0 14 42 25 99 26
20 0 45 4 56 8 19 8 19 8 -2 19 -26 14 -8 16 -173 -13z m180 -189 c0 -27 -24
-34 -54 -15 l-29 18 34 9 c38 10 49 7 49 -12z"/>
  <path d="M432 323 c-40 -3 -51 -7 -45 -16 5 -7 15 -31 22 -55 9 -32 16 -42 27
-38 9 3 30 6 47 6 29 0 34 4 49 47 20 54 17 64 -20 61 -15 -1 -51 -3 -80 -5z
m63 -24 c4 -5 4 -21 1 -35 -5 -20 -12 -25 -34 -22 -27 3 -39 25 -28 54 6 16
52 19 61 3z"/>
</g>
<g id="part-1" class="char-part">
  <path d="M244 557 c4 -12 9 -50 13 -83 7 -70 9 -68 -89 -80 -74 -8 -65 -24 13
-24 l60 0 -31 -58 c-17 -32 -51 -82 -76 -110 -25 -29 -40 -52 -33 -52 21 0 99
70 122 111 12 21 26 39 30 39 8 0 3 -63 -13 -158 -9 -52 -6 -75 13 -100 7 -9
13 -9 23 -1 11 9 14 44 14 142 l0 131 30 -29 c26 -25 32 -27 40 -15 15 24 12
29 -27 47 -21 10 -40 18 -42 20 -9 5 11 53 22 53 6 0 29 5 50 11 51 14 37 33
-21 26 l-45 -5 7 63 c7 67 2 77 -42 88 -21 5 -23 3 -18 -16z"/>
</g>
<g id="part-2" class="char-part">
  <path d="M536 512 c-112 -21 -135 -28 -118 -35 20 -9 89 -3 307 30 l40 6 -30
13 c-37 16 -32 17 -199 -14z"/>
</g>
<g id="part-3" class="char-part">
  <path d="M700 362 c-25 -8 -52 -17 -60 -19 -11 -3 -5 -14 23 -37 20 -18 37
-38 37 -44 0 -5 -15 -19 -32 -31 -40 -25 -14 -30 33 -6 29 15 31 15 60 -10 29
-23 49 -26 49 -5 0 5 -11 21 -24 37 l-25 29 25 42 25 42 -26 10 c-31 12 -27
12 -85 -8z m40 -25 c0 -7 -6 -21 -12 -30 -12 -16 -15 -16 -42 2 l-29 20 34 9
c47 14 49 14 49 -1z"/>
</g>
<g id="part-4" class="char-part">
  <path d="M749 136 c-2 -2 -92 -12 -199 -21 -107 -9 -196 -18 -198 -20 -2 -2 6
-9 18 -15 16 -8 39 -9 90 -1 38 6 102 11 143 11 111 0 257 12 257 21 0 14 -99
36 -111 25z"/>
</g>
</g>
</svg>