<?xml version="1.0" standalone="no"?>
<!DOCTYPE svg PUBLIC "-//W3C//DTD SVG 20010904//EN"
 "http://www.w3.org/TR/2001/REC-SVG-20010904/DTD/svg10.dtd">
<svg version="1.0" xmlns="http://www.w3.org/2000/svg"
 width="96.000000pt" height="68.000000pt" viewBox="0 0 96.000000 68.000000"
 preserveAspectRatio="xMidYMid meet">
<metadata>
Created by potrace 1.16, written by Peter Selinger 2001-2019
Combined from part_0.svg through part_5.svg with named groups
</metadata>
<g transform="translate(0.000000,68.000000) scale(0.100000,-0.100000)" fill="#000000" stroke="none">
<g id="part-0" class="char-part">
  <path d="M560 601 c0 -15 -72 -86 -119 -118 -13 -9 11 -13 26 -4 16 8 25 4 51
-24 18 -18 32 -36 32 -39 0 -10 -73 -52 -113 -65 -21 -7 -36 -15 -34 -17 9 -9
133 40 177 69 56 38 164 126 168 138 8 20 -46 32 -92 20 -75 -19 -84 -15 -52
18 23 24 25 29 11 35 -32 12 -55 7 -55 -13z m120 -70 c0 -12 -80 -91 -92 -91
-4 0 -16 8 -27 19 -10 10 -27 24 -37 30 -18 11 -18 11 1 24 35 21 155 35 155
18z"/>
  <path d="M316 575 c-9 -44 -89 -165 -157 -233 -28 -29 -49 -56 -45 -59 10 -10
67 23 115 68 24 21 45 39 47 39 8 0 4 -106 -8 -192 -11 -85 -11 -90 9 -110
l21 -20 12 22 c7 12 15 85 18 162 6 111 4 145 -7 160 -12 18 -8 27 35 90 l48
71 -23 18 c-36 30 -58 24 -65 -16z"/>
  <path d="M619 376 c-21 -31 -121 -106 -163 -122 -9 -3 -16 -10 -16 -15 0 -5
18 -2 40 7 l40 16 44 -38 c24 -22 44 -41 45 -44 1 -8 -94 -70 -156 -100 -68
-34 -60 -38 23 -10 99 34 179 88 294 198 62 60 64 63 46 77 -23 17 -67 19
-115 5 -19 -5 -37 -7 -40 -4 -5 5 13 20 34 27 15 6 -15 37 -35 37 -10 0 -28
-15 -41 -34z m118 -63 c4 -12 -92 -113 -107 -113 -6 0 -10 7 -10 16 0 18 -38
53 -57 54 -7 0 -13 4 -13 10 0 16 62 39 115 43 62 4 68 3 72 -10z"/>
</g>
<g id="part-1" class="char-part">
  <path d="M316 571 c-7 -49 -78 -156 -154 -233 -31 -32 -52 -58 -46 -58 16 0
83 47 128 88 l38 37 -6 -115 c-3 -63 -8 -128 -12 -145 -3 -19 0 -37 10 -50 31
-39 43 1 49 157 4 119 2 146 -10 160 -14 16 -11 23 31 82 53 74 56 93 20 106
-38 15 -41 13 -48 -29z"/>
</g>
<g id="part-2" class="char-part">
  <path d="M555 591 c-8 -17 -23 -36 -33 -43 -41 -29 -105 -88 -96 -88 6 0 36
15 67 34 42 25 74 36 122 41 37 4 65 3 65 -2 0 -28 -138 -134 -231 -178 -39
-18 -46 -24 -24 -20 82 15 313 165 323 211 5 20 -42 28 -93 15 -72 -18 -85
-15 -51 12 33 26 28 47 -9 47 -17 0 -29 -9 -40 -29z"/>
</g>
<g id="part-3" class="char-part">
  <path d="M506 465 c21 -32 46 -46 64 -35 18 11 -31 60 -60 60 -20 0 -20 -1 -4
-25z"/>
</g>
<g id="part-4" class="char-part">
  <path d="M623 379 c-10 -18 -57 -57 -108 -90 -49 -32 -85 -59 -80 -59 10 0
142 66 160 80 16 12 145 19 145 8 0 -40 -159 -174 -276 -233 -83 -42 -66 -45
32 -6 91 36 160 83 259 176 77 74 79 77 60 92 -20 14 -79 14 -145 -2 l-25 -6
28 23 c21 19 24 27 15 36 -21 21 -46 13 -65 -19z"/>
</g>
</g>
</svg>