<?xml version="1.0" standalone="no"?>
<!DOCTYPE svg PUBLIC "-//W3C//DTD SVG 20010904//EN"
 "http://www.w3.org/TR/2001/REC-SVG-20010904/DTD/svg10.dtd">
<svg version="1.0" xmlns="http://www.w3.org/2000/svg"
 width="96.000000pt" height="68.000000pt" viewBox="0 0 96.000000 68.000000"
 preserveAspectRatio="xMidYMid meet">
<metadata>
Created by potrace 1.16, written by Peter Selinger 2001-2019
Combined from part_0.svg through part_5.svg with named groups
</metadata>
<g transform="translate(0.000000,68.000000) scale(0.100000,-0.100000)" fill="#000000" stroke="none">
<g id="part-0" class="char-part">
  <path d="M416 633 c4 -10 10 -48 12 -84 l4 -66 -62 -6 c-34 -4 -73 -4 -86 -1
-29 7 -30 0 -6 -24 11 -11 25 -47 33 -81 15 -69 31 -90 53 -72 8 7 29 11 47 9
27 -2 33 -8 36 -29 4 -30 9 -29 -224 -45 -51 -3 -93 -10 -93 -15 0 -16 67 -21
144 -10 43 6 100 11 127 11 l49 0 0 -94 c0 -53 4 -98 10 -101 21 -13 35 63 35
196 0 0 72 3 159 5 88 3 162 7 164 9 2 2 -3 11 -12 20 -14 15 -34 16 -159 10
l-142 -7 -1 25 c-1 20 4 26 27 31 16 3 41 3 56 0 26 -5 31 0 66 58 21 35 45
73 53 85 15 21 14 23 -15 37 -31 17 -113 15 -171 -4 -23 -7 -26 -5 -28 21 -1
16 1 29 5 29 42 3 155 19 160 23 3 3 2 11 -2 18 -8 12 -102 7 -138 -7 -14 -5
-17 0 -17 29 0 38 -12 47 -62 47 -25 0 -29 -3 -22 -17z m219 -180 c-3 -16 -15
-46 -25 -69 -20 -47 -41 -54 -172 -54 -69 0 -77 2 -83 21 -4 11 -5 22 -3 23 1
1 57 8 123 15 149 16 184 37 45 27 -52 -4 -113 -10 -135 -13 -37 -5 -42 -3
-53 21 -6 14 -11 26 -9 27 6 3 246 26 281 27 37 2 38 1 31 -25z"/>
</g>
<g id="part-1" class="char-part">
  <path d="M424 618 c3 -18 8 -54 11 -80 5 -38 10 -48 25 -48 12 0 21 10 25 29
6 28 8 29 86 35 55 5 79 11 76 19 -4 14 -40 14 -111 2 l-49 -8 6 31 c7 34 -11
52 -53 52 -18 0 -20 -5 -16 -32z"/>
</g>
<g id="part-2" class="char-part">
  <path d="M475 489 c-82 -10 -166 -15 -185 -12 -35 6 -35 6 -17 -14 10 -12 22
-36 27 -54 5 -19 14 -53 20 -76 10 -39 33 -58 42 -33 2 5 60 10 131 11 l128 2
35 61 c19 34 42 71 50 83 15 21 14 23 -15 37 -35 18 -21 19 -216 -5z m161 -33
c-3 -13 -14 -44 -25 -69 l-19 -44 -62 -6 c-110 -12 -167 -9 -174 9 -11 28 -7
34 22 34 61 0 232 24 232 33 0 10 -96 5 -216 -9 -47 -6 -52 -5 -59 15 -4 13
-4 25 -1 28 6 6 207 29 275 32 30 1 33 -1 27 -23z"/>
</g>
<g id="part-3" class="char-part">
  <path d="M445 282 l6 -30 -80 -6 c-45 -3 -117 -9 -161 -12 -44 -3 -80 -10 -80
-15 0 -16 69 -21 156 -10 49 6 106 11 127 11 l37 0 0 -94 c0 -53 4 -98 10
-101 17 -10 33 45 38 128 l4 77 159 0 c156 0 184 6 139 30 -14 8 -64 9 -154 4
l-134 -7 -4 24 c-2 19 -10 25 -36 27 -33 3 -34 2 -27 -26z"/>
</g>
</g>
</svg>