<?xml version="1.0" standalone="no"?>
<!DOCTYPE svg PUBLIC "-//W3C//DTD SVG 20010904//EN"
 "http://www.w3.org/TR/2001/REC-SVG-20010904/DTD/svg10.dtd">
<svg version="1.0" xmlns="http://www.w3.org/2000/svg"
 width="96.000000pt" height="68.000000pt" viewBox="0 0 96.000000 68.000000"
 preserveAspectRatio="xMidYMid meet">
<metadata>
Created by potrace 1.16, written by Peter Selinger 2001-2019
Combined from part_0.svg through part_5.svg with named groups
</metadata>
<g transform="translate(0.000000,68.000000) scale(0.100000,-0.100000)" fill="#000000" stroke="none">
<g id="part-0" class="char-part">
  <path d="M550 563 c-47 -7 -105 -14 -129 -14 -41 -1 -43 -2 -37 -27 15 -67 17
-168 7 -297 -14 -182 -12 -184 92 -104 86 64 87 72 6 34 -30 -13 -57 -21 -61
-17 -3 4 -4 54 -1 112 5 88 8 106 22 107 78 4 139 5 151 2 11 -3 21 16 38 71
13 41 28 83 33 92 24 46 -11 58 -121 41z m56 -26 c6 -3 9 -20 6 -37 -4 -27 -8
-30 -42 -30 -20 0 -58 -3 -84 -6 l-46 -7 0 36 c0 35 1 36 48 42 26 3 54 7 62
9 23 3 44 1 56 -7z m-16 -131 c-5 -15 -14 -25 -19 -22 -5 3 -37 2 -70 -2 l-61
-9 0 32 0 32 78 9 c84 10 90 7 72 -40z"/>
  <path d="M235 460 c-11 -5 -48 -9 -83 -9 l-64 -1 20 -32 c11 -18 23 -54 27
-79 10 -69 9 -68 102 -56 78 11 82 12 77 33 -3 12 4 43 15 69 25 57 26 71 5
79 -22 8 -75 6 -99 -4z m41 -46 c-3 -9 -6 -26 -6 -39 0 -32 -25 -55 -59 -55
-24 0 -30 5 -35 31 -13 69 -8 74 73 78 26 1 32 -2 27 -15z"/>
  <path d="M647 324 c-45 -55 -69 -62 -107 -30 -32 26 -60 34 -60 16 0 -5 4 -10
9 -10 5 0 56 -45 113 -100 100 -96 104 -99 148 -99 25 1 56 4 70 8 22 6 19 9
-30 30 -70 29 -200 104 -200 114 0 9 70 40 113 51 31 7 36 31 8 46 -29 15 -33
13 -64 -26z"/>
</g>
<g id="part-1" class="char-part">
  <path d="M225 454 c-28 -8 -66 -12 -87 -8 -42 6 -44 3 -24 -29 8 -12 19 -48
26 -79 11 -58 23 -77 35 -58 3 5 27 10 53 11 59 1 101 12 85 22 -13 8 -5 47
22 100 15 29 15 33 -2 44 -20 16 -42 15 -108 -3z m52 -66 c-4 -28 -10 -55 -14
-59 -5 -4 -26 -9 -48 -11 l-40 -3 -6 50 c-3 28 -5 52 -3 54 4 5 70 18 98 20
17 1 18 -4 13 -51z"/>
</g>
<g id="part-2" class="char-part">
  <path d="M550 565 c-36 -7 -91 -13 -122 -14 l-58 -1 10 -26 c6 -15 13 -60 17
-101 l6 -74 81 7 c90 8 95 8 114 3 8 -2 18 3 22 11 19 33 60 184 53 191 -16
15 -59 16 -123 4z m58 -27 c6 -7 8 -25 5 -40 -5 -24 -10 -28 -37 -26 -17 1
-55 -2 -83 -7 l-53 -8 0 36 0 35 73 10 c39 5 75 10 78 11 4 0 11 -5 17 -11z
m-9 -90 c-4 -55 -12 -60 -87 -65 l-72 -5 0 30 c0 28 1 29 73 39 39 5 75 10 80
11 4 1 7 -4 6 -10z"/>
</g>
<g id="part-3" class="char-part">
  <path d="M642 321 c-43 -53 -65 -59 -103 -27 -17 14 -38 26 -47 26 -9 0 35
-49 99 -110 111 -107 115 -109 159 -109 25 1 56 4 70 9 24 7 24 8 5 15 -75 30
-130 58 -181 90 -67 43 -64 50 31 80 57 18 70 37 36 55 -30 15 -35 13 -69 -29z"/>
  <path d="M396 280 c-3 -38 -9 -101 -12 -139 -8 -94 5 -97 101 -20 41 33 75 62
75 65 0 2 -26 -8 -57 -22 -32 -14 -64 -28 -71 -31 -10 -4 -11 18 -6 106 6 96
5 111 -8 111 -12 0 -17 -16 -22 -70z"/>
</g>
</g>
</svg>