<?xml version="1.0" standalone="no"?>
<!DOCTYPE svg PUBLIC "-//W3C//DTD SVG 20010904//EN"
 "http://www.w3.org/TR/2001/REC-SVG-20010904/DTD/svg10.dtd">
<svg version="1.0" xmlns="http://www.w3.org/2000/svg"
 width="96.000000pt" height="68.000000pt" viewBox="0 0 96.000000 68.000000"
 preserveAspectRatio="xMidYMid meet">
<metadata>
Created by potrace 1.16, written by Peter Selinger 2001-2019
Combined from part_0.svg through part_5.svg with named groups
</metadata>
<g transform="translate(0.000000,68.000000) scale(0.100000,-0.100000)" fill="#000000" stroke="none">
<g id="part-0" class="char-part">
  <path d="M565 618 c-2 -7 -5 -26 -7 -43 -3 -25 -8 -31 -33 -33 -46 -5 -53 -20
-16 -33 26 -9 32 -16 27 -33 -3 -11 -6 -35 -6 -53 0 -30 -2 -32 -47 -38 -89
-12 -104 -25 -26 -22 64 2 72 0 77 -17 7 -28 -1 -36 -37 -37 -18 0 -41 -4 -52
-9 l-20 -9 20 -2 c11 -1 47 -1 81 0 55 3 62 1 67 -18 7 -27 3 -29 -79 -36
-105 -9 -134 -15 -134 -27 0 -8 32 -9 110 -4 l110 6 0 -62 c0 -80 -8 -92 -51
-83 l-34 8 35 -37 c41 -42 53 -44 74 -14 12 16 16 47 16 110 l0 88 38 1 c20 0
55 3 77 8 37 6 38 8 19 18 -13 7 -42 10 -77 6 -56 -6 -57 -6 -57 21 0 22 4 26
30 26 17 0 30 4 30 9 0 16 -40 23 -86 16 -35 -5 -44 -3 -44 9 0 40 11 46 79
46 36 0 73 4 81 10 25 16 -30 29 -81 19 -65 -12 -69 -11 -69 16 0 19 -5 25
-22 26 -16 1 -18 3 -6 6 9 2 23 15 32 28 12 19 27 24 86 30 38 4 70 11 70 16
0 15 -49 29 -86 25 -30 -4 -33 -3 -24 14 13 25 4 47 -23 54 -32 8 -37 7 -42
-6z"/>
  <path d="M290 593 c0 -10 7 -27 15 -37 20 -27 4 -36 -62 -36 -58 0 -66 -11
-28 -36 24 -15 40 -15 97 2 12 4 22 -3 30 -21 16 -35 43 -29 43 10 0 22 5 30
24 35 40 9 38 30 -3 30 -32 0 -36 3 -36 25 0 26 -4 29 -52 39 -22 5 -28 3 -28
-11z"/>
  <path d="M280 400 c-8 -5 -37 -10 -65 -10 l-50 0 0 -92 c0 -51 -4 -107 -8
-123 -10 -38 14 -78 34 -57 20 19 96 15 108 -6 8 -13 14 -15 28 -6 16 10 18
28 21 139 2 108 0 131 -14 146 -19 21 -32 23 -54 9z m24 -36 c3 -9 6 -31 6
-50 0 -30 -3 -34 -27 -34 -16 0 -38 -3 -50 -6 -22 -6 -23 -3 -23 44 0 50 1 51
33 55 17 2 37 5 43 5 7 1 15 -5 18 -14z m6 -154 c0 -46 -2 -50 -24 -50 -13 0
-38 -3 -55 -6 l-32 -7 3 49 c3 45 5 49 33 55 72 15 75 14 75 -41z"/>
  <path d="M440 162 c0 -16 58 -64 69 -58 18 11 13 34 -11 50 -24 17 -58 21 -58
8z"/>
</g>
<g id="part-1" class="char-part">
  <path d="M570 594 c0 -42 -17 -64 -51 -64 -18 0 -28 -4 -24 -10 3 -5 17 -10
31 -10 21 0 24 -3 18 -25 -9 -35 11 -32 33 5 17 29 20 30 85 30 37 0 68 4 68
9 0 13 -34 23 -73 21 -47 -3 -52 -1 -39 12 17 17 15 45 -4 52 -31 12 -44 6
-44 -20z"/>
  <path d="M305 570 c24 -46 20 -50 -45 -50 -64 0 -74 -10 -36 -35 21 -14 28
-14 65 -1 42 14 42 14 57 -15 19 -39 34 -37 34 5 0 29 4 35 33 44 l32 10 -37
1 c-31 1 -38 5 -38 20 0 27 -27 51 -56 51 -24 0 -24 -1 -9 -30z"/>
</g>
<g id="part-2" class="char-part">
  <path d="M275 400 c-11 -5 -44 -9 -73 -9 -49 -1 -52 -2 -42 -20 13 -25 13
-136 0 -181 -7 -25 -7 -43 1 -63 10 -25 13 -26 28 -13 9 8 33 16 53 17 30 3
41 -1 54 -19 15 -22 17 -22 35 -6 17 15 19 32 19 147 0 112 -2 132 -17 143
-21 15 -30 16 -58 4z m23 -32 c7 -7 12 -29 12 -50 0 -37 -1 -38 -34 -38 -19 0
-42 -3 -51 -6 -14 -6 -16 0 -13 42 3 42 6 49 28 55 38 10 45 10 58 -3z m12
-152 c0 -25 -3 -47 -7 -49 -5 -3 -30 -8 -56 -11 l-48 -7 3 48 c3 44 5 48 33
54 70 15 75 13 75 -35z"/>
</g>
<g id="part-3" class="char-part">
  <path d="M527 426 l5 -34 -58 -7 c-89 -11 -101 -26 -20 -23 60 1 70 -1 77 -18
9 -27 3 -34 -34 -35 -18 0 -41 -4 -51 -8 -19 -7 -19 -8 2 -13 28 -8 252 13
252 22 0 13 -49 21 -84 14 -38 -7 -51 5 -41 36 5 17 16 20 68 21 34 0 71 4 82
8 19 8 19 8 -2 19 -15 9 -36 9 -74 2 -69 -13 -69 -13 -69 14 0 23 -16 36 -45
36 -10 0 -12 -9 -8 -34z"/>
</g>
<g id="part-4" class="char-part">
  <path d="M460 135 c38 -39 48 -42 57 -18 8 21 -31 53 -65 53 l-26 0 34 -35z"/>
</g>
</g>
</svg>