<?xml version="1.0" standalone="no"?>
<!DOCTYPE svg PUBLIC "-//W3C//DTD SVG 20010904//EN"
 "http://www.w3.org/TR/2001/REC-SVG-20010904/DTD/svg10.dtd">
<svg version="1.0" xmlns="http://www.w3.org/2000/svg"
 width="96.000000pt" height="68.000000pt" viewBox="0 0 96.000000 68.000000"
 preserveAspectRatio="xMidYMid meet">
<metadata>
Created by potrace 1.16, written by Peter Selinger 2001-2019
Combined from part_0.svg through part_5.svg with named groups
</metadata>
<g transform="translate(0.000000,68.000000) scale(0.100000,-0.100000)" fill="#000000" stroke="none">
<g id="part-0" class="char-part">
  <path d="M536 543 c-10 -32 -38 -87 -62 -124 -24 -36 -44 -68 -44 -72 0 -17
23 -3 77 47 57 52 59 53 136 60 84 7 127 19 127 36 0 19 -53 22 -121 7 l-70
-15 14 22 c43 66 43 66 23 82 -41 29 -61 19 -80 -43z"/>
  <path d="M277 560 c-8 -39 -77 -146 -123 -190 -69 -66 5 -46 81 22 50 45 51
45 138 50 98 6 126 20 84 39 -20 9 -37 9 -71 0 -74 -18 -81 -16 -52 22 32 41
32 52 4 71 -35 25 -55 20 -61 -14z"/>
  <path d="M600 393 c63 -73 100 -85 100 -32 0 25 -6 32 -35 45 -19 7 -47 14
-61 14 l-27 0 23 -27z"/>
  <path d="M290 399 c0 -19 58 -69 80 -69 23 0 28 41 8 57 -21 17 -88 26 -88 12z"/>
  <path d="M560 297 c-3 -3 -52 -10 -110 -16 -132 -14 -153 -19 -144 -33 5 -7
42 -9 122 -4 131 8 218 24 205 37 -11 11 -66 22 -73 16z"/>
  <path d="M413 146 c-144 -11 -264 -24 -268 -28 -3 -3 9 -11 28 -17 24 -8 52
-8 103 -1 38 6 172 15 298 20 125 4 233 13 238 18 13 13 -45 32 -96 31 -23 -1
-159 -11 -303 -23z"/>
</g>
<g id="part-1" class="char-part">
  <path d="M550 575 c0 -31 -40 -112 -86 -177 -45 -64 -20 -64 43 0 46 46 48 47
146 62 97 14 130 31 88 45 -10 3 -50 -1 -87 -10 -37 -8 -69 -13 -71 -11 -3 2
7 22 21 43 l27 38 -22 18 c-32 26 -59 22 -59 -8z"/>
  <path d="M280 552 c-12 -48 -56 -115 -109 -169 -23 -24 -36 -43 -29 -43 18 0
89 49 110 76 14 18 32 22 110 28 97 7 123 17 91 34 -13 7 -37 6 -82 -4 -35 -8
-65 -13 -67 -11 -2 2 10 23 26 46 34 47 33 54 -10 69 -29 10 -30 10 -40 -26z"/>
  <path d="M590 413 c0 -18 67 -73 88 -73 30 0 29 35 0 54 -29 18 -88 31 -88 19z"/>
  <path d="M310 380 c14 -26 56 -54 70 -45 29 18 -12 65 -58 65 -20 0 -21 -3
-12 -20z"/>
</g>
<g id="part-2" class="char-part">
  <path d="M455 283 c-55 -7 -116 -16 -135 -20 -34 -5 -34 -6 -12 -16 26 -12
271 6 314 22 l23 9 -28 11 c-32 13 -29 13 -162 -6z"/>
</g>
<g id="part-3" class="char-part">
  <path d="M450 149 c-124 -9 -244 -18 -267 -18 -51 -1 -56 -15 -11 -30 25 -8
61 -7 143 4 61 8 164 15 231 15 140 0 274 10 274 20 0 14 -53 30 -98 29 -26
-1 -148 -10 -272 -20z"/>
</g>
</g>
</svg>