<?xml version="1.0" standalone="no"?>
<!DOCTYPE svg PUBLIC "-//W3C//DTD SVG 20010904//EN"
 "http://www.w3.org/TR/2001/REC-SVG-20010904/DTD/svg10.dtd">
<svg version="1.0" xmlns="http://www.w3.org/2000/svg"
 width="96.000000pt" height="68.000000pt" viewBox="0 0 96.000000 68.000000"
 preserveAspectRatio="xMidYMid meet">
<metadata>
Created by potrace 1.16, written by Peter Selinger 2001-2019
Combined from part_0.svg through part_5.svg with named groups
</metadata>
<g transform="translate(0.000000,68.000000) scale(0.100000,-0.100000)" fill="#000000" stroke="none">
<g id="part-0" class="char-part">
  <path d="M490 547 c0 -12 155 -107 176 -107 56 0 34 60 -31 84 -43 17 -145 33
-145 23z"/>
  <path d="M280 511 c0 -22 -68 -98 -112 -126 -39 -24 -35 -35 10 -23 54 15 182
104 182 127 0 14 -41 41 -62 41 -11 0 -18 -7 -18 -19z"/>
  <path d="M490 388 c0 -44 -32 -128 -48 -128 -4 0 -17 8 -28 18 -61 53 -121 81
-144 67 -7 -4 7 -16 32 -28 48 -22 108 -74 108 -93 0 -26 -149 -108 -245 -135
-21 -6 -12 -7 35 -4 87 5 126 18 199 65 l61 40 81 -63 82 -62 88 0 c137 1 135
16 -7 60 -117 37 -214 87 -214 110 0 7 6 18 14 24 8 6 20 26 27 44 7 18 19 40
27 49 20 24 7 54 -30 67 -17 6 -33 11 -34 11 -2 0 -4 -19 -4 -42z"/>
</g>
<g id="part-1" class="char-part">
  <path d="M569 496 c46 -31 90 -56 98 -56 19 0 28 29 16 48 -11 19 -87 46 -153
57 l-45 7 84 -56z"/>
  <path d="M275 488 c-9 -18 -41 -53 -71 -78 -30 -25 -50 -46 -45 -48 16 -5 121
55 165 94 38 33 39 35 20 49 -30 23 -52 18 -69 -17z"/>
</g>
<g id="part-2" class="char-part">
  <path d="M488 376 c-2 -29 -13 -68 -25 -85 l-20 -32 -54 41 c-59 44 -89 56
-116 45 -14 -5 -6 -13 37 -35 30 -15 66 -40 79 -54 l24 -26 -22 -24 c-31 -32
-132 -86 -206 -108 l-60 -18 77 4 c83 5 141 26 212 77 l44 31 63 -52 c35 -29
78 -59 96 -66 49 -21 201 -13 196 10 -1 5 -49 24 -106 41 -90 27 -143 51 -205
93 -11 7 -5 24 27 82 23 39 41 78 41 86 0 13 -48 44 -68 44 -5 0 -12 -24 -14
-54z"/>
</g>
</g>
</svg>