<?xml version="1.0" standalone="no"?>
<!DOCTYPE svg PUBLIC "-//W3C//DTD SVG 20010904//EN"
 "http://www.w3.org/TR/2001/REC-SVG-20010904/DTD/svg10.dtd">
<svg version="1.0" xmlns="http://www.w3.org/2000/svg"
 width="96.000000pt" height="68.000000pt" viewBox="0 0 96.000000 68.000000"
 preserveAspectRatio="xMidYMid meet">
<metadata>
Created by potrace 1.16, written by Peter Selinger 2001-2019
Combined from part_0.svg through part_5.svg with named groups
</metadata>
<g transform="translate(0.000000,68.000000) scale(0.100000,-0.100000)" fill="#000000" stroke="none">
<g id="part-0" class="char-part">
  <path d="M588 466 l5 -93 -32 -11 -31 -11 0 38 c0 30 -4 40 -20 44 -17 4 -19
-1 -22 -46 -3 -47 -5 -51 -38 -63 l-35 -12 38 -1 37 -1 0 -85 c0 -97 12 -117
85 -136 59 -16 205 -6 244 17 36 21 37 28 12 85 l-19 43 -7 -37 c-11 -58 -46
-77 -140 -77 -107 0 -132 14 -139 82 -5 44 -5 77 3 120 0 3 14 11 30 16 l29
10 7 -69 c4 -38 11 -67 15 -64 5 3 12 37 16 75 6 65 8 69 37 79 16 6 34 11 40
11 10 0 4 -71 -9 -118 -3 -12 -2 -22 3 -22 9 0 83 141 83 158 0 18 -61 22 -97
7 -55 -23 -56 -22 -50 59 5 71 4 74 -19 85 -14 6 -26 11 -28 11 -2 0 -1 -42 2
-94z"/>
  <path d="M340 539 c-14 -6 -60 -11 -103 -12 -65 -1 -76 -4 -71 -17 14 -36 16
-113 4 -175 -15 -81 -7 -96 43 -77 17 7 63 16 101 19 l69 6 -7 -67 c-4 -36
-11 -78 -17 -92 -8 -23 -14 -26 -39 -20 -35 6 -37 0 -11 -31 24 -29 57 -29 75
0 20 32 50 207 37 220 -10 10 -32 14 -78 16 -18 1 -23 7 -23 26 0 21 5 25 28
25 32 0 68 18 42 22 -8 1 -25 2 -37 2 -13 1 -23 4 -23 9 -1 34 2 37 29 37 17
0 33 5 36 10 4 6 -9 10 -33 10 -36 0 -39 2 -35 24 4 20 13 26 44 31 35 6 57
20 47 30 -10 10 -56 13 -78 4z m-50 -75 c0 -16 -6 -24 -17 -25 -10 0 -26 -2
-35 -4 -14 -2 -18 4 -18 25 0 24 5 29 28 32 36 5 42 1 42 -28z m-5 -69 c0 -15
-8 -21 -32 -23 -30 -3 -33 -1 -33 23 0 24 3 26 33 23 24 -2 32 -8 32 -23z m5
-70 c0 -22 -4 -25 -35 -25 -31 0 -35 3 -35 25 0 22 4 25 35 25 31 0 35 -3 35
-25z"/>
  <path d="M322 218 c18 -26 38 -35 38 -16 0 18 -20 38 -38 38 -12 0 -12 -3 0
-22z"/>
  <path d="M240 220 c0 -5 5 -10 10 -10 6 0 10 -7 10 -15 0 -8 7 -15 15 -15 18
0 20 21 3 38 -15 15 -38 16 -38 2z"/>
  <path d="M100 185 c-12 -37 -8 -65 9 -65 13 0 32 67 24 86 -9 24 -21 16 -33
-21z"/>
  <path d="M170 215 c0 -11 24 -55 31 -55 16 0 16 29 0 44 -17 16 -31 21 -31 11z"/>
</g>
<g id="part-1" class="char-part">
  <path d="M300 528 c-25 -5 -66 -7 -91 -5 l-47 4 10 -29 c9 -24 7 -120 -4 -208
-3 -28 5 -29 125 -14 90 10 85 28 -6 21 l-77 -7 6 93 c3 50 7 97 9 103 2 6 37
14 78 17 80 7 107 14 107 28 0 11 -50 10 -110 -3z"/>
</g>
<g id="part-2" class="char-part">
  <path d="M310 232 c0 -14 39 -46 47 -38 4 4 2 15 -3 24 -12 19 -44 29 -44 14z"/>
  <path d="M102 197 c-16 -45 -15 -77 3 -77 17 0 38 70 29 94 -9 24 -19 19 -32
-17z"/>
  <path d="M240 221 c0 -5 9 -19 19 -32 18 -22 20 -22 26 -6 4 9 2 24 -5 32 -14
16 -40 20 -40 6z"/>
  <path d="M170 215 c0 -12 24 -55 31 -55 18 0 20 23 3 41 -16 17 -34 25 -34 14z"/>
</g>
<g id="part-3" class="char-part">
  <path d="M488 384 c-3 -45 -5 -48 -38 -58 l-35 -10 38 -4 37 -3 0 -84 c0 -97
13 -117 85 -136 51 -14 202 -6 241 12 32 16 35 38 13 100 l-13 37 -16 -46
c-20 -63 -43 -73 -152 -70 -111 4 -119 11 -126 111 -4 67 -2 77 17 93 24 21
28 39 7 31 -11 -4 -16 4 -18 31 -2 25 -8 38 -20 40 -14 3 -17 -6 -20 -44z"/>
</g>
<g id="part-4" class="char-part">
  <path d="M588 469 c4 -78 2 -93 -12 -101 -20 -11 -22 -32 -2 -25 11 4 16 -10
21 -64 4 -38 11 -67 15 -64 4 3 11 36 15 74 7 66 8 70 37 80 17 6 35 11 41 11
10 0 3 -92 -10 -127 -6 -16 -5 -16 10 -4 16 12 77 132 77 150 0 17 -61 21 -97
6 -19 -8 -40 -15 -45 -15 -6 0 -8 32 -7 77 3 68 2 77 -16 84 -11 4 -23 8 -26
8 -4 1 -4 -40 -1 -90z"/>
</g>
</g>
</svg>