<?xml version="1.0" standalone="no"?>
<!DOCTYPE svg PUBLIC "-//W3C//DTD SVG 20010904//EN"
 "http://www.w3.org/TR/2001/REC-SVG-20010904/DTD/svg10.dtd">
<svg version="1.0" xmlns="http://www.w3.org/2000/svg"
 width="96.000000pt" height="68.000000pt" viewBox="0 0 96.000000 68.000000"
 preserveAspectRatio="xMidYMid meet">
<metadata>
Created by potrace 1.16, written by Peter Selinger 2001-2019
Combined from part_0.svg through part_5.svg with named groups
</metadata>
<g transform="translate(0.000000,68.000000) scale(0.100000,-0.100000)" fill="#000000" stroke="none">
<g id="part-0" class="char-part">
  <path d="M556 581 c-6 -40 -19 -51 -63 -51 -34 0 -24 -24 11 -28 24 -3 27 -7
23 -27 -3 -20 -1 -23 12 -15 9 4 25 18 35 29 11 12 31 21 45 21 51 0 101 13
101 25 0 17 -34 25 -76 18 -34 -6 -35 -5 -29 20 5 19 2 28 -13 36 -33 17 -39
13 -46 -28z"/>
  <path d="M303 573 c2 -10 8 -26 12 -35 6 -16 0 -18 -53 -18 -69 0 -84 -12 -47
-36 22 -14 31 -15 70 -4 25 7 47 11 48 9 1 -2 7 -13 13 -23 17 -32 32 -30 36
5 2 25 9 35 26 39 34 8 29 26 -6 22 -27 -3 -31 0 -34 25 -3 24 -8 28 -37 31
-29 3 -33 1 -28 -15z"/>
  <path d="M260 410 c-13 -22 -42 -52 -63 -67 -22 -15 -35 -29 -30 -30 13 -5 92
41 132 77 28 25 31 32 21 45 -19 23 -33 18 -60 -25z"/>
  <path d="M427 381 c5 -54 4 -58 -17 -64 -33 -8 -40 -1 -33 33 4 23 2 30 -11
30 -10 0 -16 -8 -16 -21 0 -11 -5 -30 -11 -41 -18 -34 2 -41 62 -24 63 19 106
20 111 4 8 -22 25 1 37 48 13 52 14 51 -14 56 -17 3 -20 -2 -18 -34 2 -37 1
-38 -31 -38 l-33 0 5 55 c4 50 3 55 -16 55 -18 0 -20 -5 -15 -59z"/>
  <path d="M635 408 c-8 -34 -42 -105 -73 -148 -18 -26 -5 -23 30 7 9 8 29 13
45 11 27 -3 28 -5 28 -55 -1 -69 -14 -82 -50 -49 -24 23 -45 33 -45 23 0 -2
14 -19 30 -37 17 -18 30 -37 30 -42 0 -4 -24 -21 -52 -38 -40 -23 -47 -30 -30
-30 12 0 41 9 62 20 l40 20 37 -35 c34 -32 42 -35 91 -34 29 1 55 6 58 11 3 4
-1 8 -8 8 -18 0 -134 56 -142 68 -3 6 4 41 16 77 16 52 19 71 10 85 -9 16 -5
18 39 24 28 4 47 11 44 16 -9 14 -65 12 -118 -4 -26 -8 -49 -11 -51 -7 -3 4 9
28 25 55 32 51 34 79 7 84 -11 2 -18 -7 -23 -30z"/>
  <path d="M246 298 c-18 -40 -60 -86 -112 -123 -31 -21 -34 -25 -14 -20 14 4
42 18 64 32 53 34 62 22 47 -59 -14 -78 -15 -98 -2 -111 17 -17 23 -2 34 88 9
68 8 91 -2 107 -11 18 -9 24 13 47 31 32 33 47 6 61 -17 9 -22 6 -34 -22z"/>
  <path d="M445 250 c-16 -4 -48 -8 -70 -9 -22 -1 -47 -6 -55 -12 -11 -8 9 -9
70 -4 116 8 125 10 128 20 3 13 -35 15 -73 5z"/>
  <path d="M444 153 c0 -27 -4 -58 -8 -70 -13 -35 12 -28 64 18 42 37 43 39 12
24 -28 -14 -33 -14 -38 -1 -3 8 0 24 6 36 10 18 9 24 -1 31 -27 17 -34 8 -35
-38z"/>
  <path d="M357 157 c4 -28 0 -40 -27 -70 -37 -42 -26 -49 19 -12 37 32 60 93
40 106 -28 18 -38 10 -32 -24z"/>
</g>
<g id="part-1" class="char-part">
  <path d="M560 586 c0 -41 -11 -56 -40 -56 -16 0 -32 -4 -35 -10 -4 -6 7 -10
25 -10 30 0 32 -2 26 -27 l-7 -28 31 33 c29 30 36 32 96 32 35 0 64 4 64 10 0
15 -46 23 -85 16 -35 -7 -35 -7 -23 19 10 22 9 28 -3 36 -27 17 -49 10 -49
-15z"/>
  <path d="M300 585 c0 -4 7 -19 15 -34 l14 -29 -37 -6 c-20 -3 -50 -6 -66 -6
-25 0 -27 -2 -15 -16 13 -16 49 -15 106 2 18 5 23 1 29 -20 9 -39 38 -35 29 4
-6 27 -4 30 17 30 13 0 30 5 38 10 11 7 6 10 -22 10 -29 0 -38 5 -44 23 -4 12
-12 25 -18 29 -13 9 -46 10 -46 3z"/>
</g>
<g id="part-2" class="char-part">
  <path d="M264 415 c-9 -20 -37 -50 -62 -67 -25 -18 -41 -33 -34 -36 15 -5 85
36 132 77 34 30 34 31 16 46 -28 21 -33 19 -52 -20z"/>
</g>
<g id="part-3" class="char-part">
  <path d="M245 302 c-6 -27 -72 -100 -125 -136 l-25 -18 25 7 c14 4 44 18 67
31 39 22 42 23 47 6 6 -17 -4 -79 -19 -127 -6 -22 19 -65 31 -53 21 22 31 187
12 206 -9 9 -6 18 15 40 32 33 34 48 8 62 -27 14 -29 13 -36 -18z"/>
</g>
<g id="part-4" class="char-part">
  <path d="M670 241 c0 -21 -5 -52 -11 -69 l-11 -31 -28 29 c-26 26 -50 39 -50
26 0 -3 14 -20 30 -38 17 -18 29 -37 27 -43 -2 -5 -27 -22 -56 -37 -40 -21
-47 -28 -30 -28 13 0 44 9 68 21 l45 20 20 -25 c25 -31 64 -46 116 -46 57 0
56 13 -3 34 -76 27 -110 54 -102 80 37 117 38 146 4 146 -15 0 -19 -7 -19 -39z"/>
</g>
</g>
</svg>