<?xml version="1.0" standalone="no"?>
<!DOCTYPE svg PUBLIC "-//W3C//DTD SVG 20010904//EN"
 "http://www.w3.org/TR/2001/REC-SVG-20010904/DTD/svg10.dtd">
<svg version="1.0" xmlns="http://www.w3.org/2000/svg"
 width="96.000000pt" height="68.000000pt" viewBox="0 0 96.000000 68.000000"
 preserveAspectRatio="xMidYMid meet">
<metadata>
Created by potrace 1.16, written by Peter Selinger 2001-2019
Combined from part_0.svg through part_5.svg with named groups
</metadata>
<g transform="translate(0.000000,68.000000) scale(0.100000,-0.100000)" fill="#000000" stroke="none">
<g id="part-0" class="char-part">
  <path d="M675 584 c-27 -7 -67 -13 -89 -13 l-39 -1 7 -37 c3 -21 6 -62 6 -91
l0 -54 43 7 c23 3 57 9 75 12 l32 5 0 -166 c0 -178 -1 -182 -51 -156 -31 17
-22 -4 17 -39 39 -36 59 -35 73 2 7 18 17 449 12 512 -2 24 -36 31 -86 19z
m33 -79 c-2 -2 -28 -5 -58 -7 l-55 -3 0 30 c0 29 2 30 55 35 54 5 55 5 58 -23
2 -16 2 -31 0 -32z m2 -49 c0 -19 -6 -24 -37 -30 -70 -11 -83 -8 -79 17 2 16
12 24 37 28 69 13 79 11 79 -15z"/>
  <path d="M295 565 c-22 -7 -55 -11 -74 -8 l-34 6 7 -36 c16 -83 16 -202 0
-300 -18 -117 -19 -136 -5 -150 24 -24 35 15 44 150 5 82 14 141 21 146 6 4
37 6 68 3 47 -3 58 -1 62 12 2 10 12 50 22 91 16 71 16 75 -1 88 -23 16 -57
15 -110 -2z m55 -52 c0 -27 -3 -28 -50 -30 -46 -1 -50 1 -50 22 0 25 14 32 68
34 29 1 32 -2 32 -26z m0 -73 c0 -22 -6 -26 -62 -34 -35 -4 -38 -3 -38 19 0
19 6 24 33 28 65 8 67 8 67 -13z"/>
  <path d="M401 352 c-12 -23 -25 -42 -30 -42 -5 0 -12 -7 -15 -16 -4 -12 -1
-14 14 -9 10 3 31 0 46 -8 l27 -14 -42 -31 c-24 -17 -52 -34 -62 -37 -10 -4
-19 -11 -19 -16 0 -6 7 -6 19 0 23 13 46 -10 56 -57 l7 -33 70 3 c65 2 71 4
79 28 5 14 14 33 20 44 19 33 -2 40 -93 29 -46 -6 -87 -8 -91 -6 -4 3 13 18
39 34 l46 30 85 -37 c60 -25 88 -33 96 -25 18 18 -10 38 -86 62 l-71 22 37 31
c59 50 45 77 -29 56 -41 -12 -45 -11 -63 11 l-19 23 -21 -42z m80 -46 c-17
-18 -29 -22 -47 -17 -47 12 -19 37 45 40 l24 1 -22 -24z m46 -146 c5 -27 -12
-40 -60 -46 l-47 -7 0 31 c0 27 4 31 33 35 51 7 72 3 74 -13z"/>
</g>
<g id="part-1" class="char-part">
  <path d="M310 564 c-19 -7 -54 -13 -77 -13 l-42 -1 10 -32 c5 -18 9 -59 9 -90
0 -54 1 -57 23 -52 12 2 50 5 83 6 l61 2 18 71 c9 38 19 75 22 82 2 6 -9 19
-26 27 -34 18 -34 18 -81 0z m50 -49 c0 -34 -1 -35 -39 -35 -22 0 -46 -3 -55
-6 -13 -5 -16 1 -16 25 0 25 5 32 28 37 15 3 32 7 37 9 34 11 45 4 45 -30z
m-10 -79 c0 -19 -6 -24 -37 -30 -65 -10 -73 -8 -73 18 0 25 13 31 83 35 22 1
27 -3 27 -23z"/>
</g>
<g id="part-2" class="char-part">
  <path d="M710 250 c0 -175 -2 -180 -56 -160 -28 11 -27 9 13 -31 76 -77 93
-43 93 187 l0 164 -25 0 -25 0 0 -160z"/>
</g>
<g id="part-3" class="char-part">
  <path d="M406 363 c-8 -16 -29 -43 -46 -60 -35 -36 -33 -40 8 -19 41 22 85 72
79 90 -9 24 -25 19 -41 -11z"/>
</g>
<g id="part-4" class="char-part">
  <path d="M478 351 c-27 -9 -48 -19 -48 -23 0 -11 14 -10 44 2 32 12 33 0 3
-29 -20 -18 -28 -20 -52 -11 -37 14 -44 5 -10 -13 l27 -14 -48 -35 c-27 -19
-58 -38 -68 -42 -10 -3 -16 -9 -13 -12 6 -6 91 33 137 63 25 15 29 14 103 -21
82 -39 107 -44 107 -22 0 20 -18 31 -80 50 -30 10 -62 20 -70 23 -11 3 -5 13
23 38 25 22 35 38 31 49 -7 19 -23 19 -86 -3z"/>
</g>
<g id="part-5" class="char-part">
  <path d="M523 176 c8 -16 14 -21 19 -13 5 8 8 7 8 -3 0 -13 1 -13 10 0 11 18
-5 40 -30 40 -16 0 -17 -3 -7 -24z"/>
  <path d="M387 163 c3 -7 8 -13 12 -13 4 0 8 6 8 13 0 8 -6 14 -13 14 -7 0 -10
-6 -7 -14z"/>
  <path d="M404 125 c4 -24 19 -35 36 -25 12 8 11 10 -7 10 -16 0 -21 4 -17 15
4 8 2 15 -4 15 -6 0 -9 -7 -8 -15z"/>
  <path d="M518 123 c-24 -6 -23 -23 2 -23 11 0 20 7 20 15 0 8 -1 14 -2 14 -2
-1 -11 -3 -20 -6z"/>
</g>
</g>
</svg>