<?xml version="1.0" standalone="no"?>
<!DOCTYPE svg PUBLIC "-//W3C//DTD SVG 20010904//EN"
 "http://www.w3.org/TR/2001/REC-SVG-20010904/DTD/svg10.dtd">
<svg version="1.0" xmlns="http://www.w3.org/2000/svg"
 width="96.000000pt" height="68.000000pt" viewBox="0 0 96.000000 68.000000"
 preserveAspectRatio="xMidYMid meet">
<metadata>
Created by potrace 1.16, written by Peter Selinger 2001-2019
Combined from part_0.svg through part_5.svg with named groups
</metadata>
<g transform="translate(0.000000,68.000000) scale(0.100000,-0.100000)" fill="#000000" stroke="none">
<g id="part-0" class="char-part">
  <path d="M520 520 c-25 -5 -91 -14 -147 -20 -76 -9 -103 -16 -103 -26 0 -11
16 -14 66 -14 l67 0 -7 -52 c-12 -91 -14 -95 -54 -102 -20 -3 -79 -6 -130 -6
-70 0 -93 -3 -90 -12 6 -17 89 -21 175 -10 37 5 70 8 72 6 1 -1 -5 -36 -15
-78 l-17 -75 -66 -6 c-97 -9 -99 -10 -69 -25 23 -11 49 -11 150 0 68 7 189 13
270 12 82 0 150 4 154 9 3 5 -10 16 -30 24 -26 11 -50 13 -96 7 l-60 -9 6 36
c4 20 12 54 18 76 l12 40 94 3 c116 3 134 8 100 28 -19 11 -45 13 -107 8 l-82
-6 21 63 c33 104 33 112 2 127 -31 13 -66 14 -134 2z m57 -103 c-9 -97 -9 -97
-83 -97 -35 0 -64 4 -64 9 0 5 7 28 15 51 20 56 19 80 -2 82 -22 1 60 14 106
16 l34 2 -6 -63z m-17 -122 c0 -1 -9 -31 -20 -65 -11 -34 -20 -68 -20 -75 0
-9 -21 -14 -67 -17 -38 -2 -69 -3 -71 -2 -7 4 32 140 43 149 10 8 135 18 135
10z"/>
</g>
<g id="part-1" class="char-part">
  <path d="M545 521 c-11 -5 -72 -14 -135 -20 -136 -15 -156 -20 -117 -32 16 -4
82 -2 150 5 67 7 128 11 135 8 17 -6 15 -31 -14 -162 -40 -184 -40 -180 -13
-175 12 3 26 8 29 12 4 5 19 55 34 113 14 58 34 133 45 166 l18 62 -34 16
c-36 17 -66 19 -98 7z"/>
</g>
<g id="part-2" class="char-part">
  <path d="M392 393 c-7 -42 -14 -79 -17 -81 -2 -2 -63 -7 -134 -10 -123 -5
-153 -11 -115 -26 21 -8 117 -6 184 3 30 5 57 7 59 5 1 -1 -5 -36 -15 -77
l-17 -75 -51 -6 c-28 -3 -67 -6 -86 -6 l-35 -1 30 -16 c26 -14 43 -15 152 -4
68 7 193 13 278 12 88 0 155 4 155 9 0 5 -12 16 -27 24 -24 12 -55 12 -195 3
-93 -6 -170 -8 -172 -6 -4 4 30 138 36 145 6 6 158 13 286 14 91 0 131 3 127
11 -17 26 -61 29 -226 17 -93 -6 -171 -9 -174 -6 -3 2 2 24 10 48 19 55 19 86
-1 94 -35 13 -40 6 -52 -71z"/>
</g>
</g>
</svg>