<?xml version="1.0" standalone="no"?>
<!DOCTYPE svg PUBLIC "-//W3C//DTD SVG 20010904//EN"
 "http://www.w3.org/TR/2001/REC-SVG-20010904/DTD/svg10.dtd">
<svg version="1.0" xmlns="http://www.w3.org/2000/svg"
 width="96.000000pt" height="68.000000pt" viewBox="0 0 96.000000 68.000000"
 preserveAspectRatio="xMidYMid meet">
<metadata>
Created by potrace 1.16, written by Peter Selinger 2001-2019
Combined from part_0.svg through part_5.svg with named groups
</metadata>
<g transform="translate(0.000000,68.000000) scale(0.100000,-0.100000)" fill="#000000" stroke="none">
<g id="part-0" class="char-part">
  <path d="M595 617 c-2 -7 -6 -30 -7 -52 -2 -31 -7 -40 -23 -43 -57 -8 -69 -13
-54 -23 7 -5 24 -9 37 -9 26 0 27 -2 7 -40 -9 -18 -11 -31 -5 -35 15 -9 27 1
51 45 19 33 28 40 53 40 55 0 136 13 136 21 0 19 -87 28 -133 13 -21 -6 -21
-6 -3 20 22 34 16 51 -24 64 -23 9 -32 8 -35 -1z"/>
  <path d="M310 568 c0 -7 7 -22 15 -32 8 -11 15 -23 15 -28 0 -4 -31 -8 -69 -8
-75 0 -91 -8 -63 -32 29 -25 50 -28 93 -13 55 20 56 20 74 -16 21 -40 41 -33
37 14 -3 32 -1 36 27 42 44 9 38 25 -8 25 -36 0 -40 3 -43 28 -3 23 -8 27 -40
30 -26 2 -38 -1 -38 -10z"/>
  <path d="M300 347 c0 -37 -5 -69 -11 -73 -6 -3 -40 -9 -75 -12 -36 -2 -67 -9
-70 -13 -8 -13 43 -22 86 -15 43 7 45 5 30 -24 -9 -17 -5 -22 35 -41 67 -32
59 -49 -40 -89 -38 -16 -53 -26 -42 -28 20 -4 134 35 143 49 10 17 41 9 64
-16 25 -27 60 -33 60 -11 0 7 -14 27 -30 43 l-31 30 28 61 c24 52 32 62 58 65
28 4 29 4 8 12 -13 4 -23 15 -23 25 0 18 -19 30 -47 30 -11 0 -14 -7 -9 -25 4
-14 5 -25 4 -26 -32 -7 -98 -9 -98 -2 0 4 9 25 20 46 23 43 15 60 -34 73 l-26
6 0 -65z m128 -94 c-2 -5 -10 -25 -17 -45 -8 -21 -21 -40 -28 -42 -15 -6 -93
22 -93 33 0 19 34 50 58 54 49 7 84 7 80 0z"/>
  <path d="M685 330 c-22 -5 -68 -9 -102 -9 -64 -1 -75 -8 -48 -31 8 -7 15 -25
15 -40 0 -77 34 -154 54 -122 2 4 37 9 77 11 82 3 90 6 83 26 -3 8 4 44 16 81
11 37 17 71 13 75 -14 14 -65 18 -108 9z m40 -67 c-13 -91 -12 -90 -68 -96
-28 -4 -55 -3 -59 1 -3 4 -10 35 -14 69 l-6 62 43 4 c24 2 59 4 78 5 l33 2 -7
-47z"/>
</g>
<g id="part-1" class="char-part">
  <path d="M596 571 c-6 -49 -7 -50 -49 -59 l-42 -10 33 -7 c34 -8 35 -13 17
-57 -12 -30 12 -20 36 15 35 51 48 57 121 57 37 0 68 4 68 9 0 16 -39 23 -91
16 -54 -8 -54 -7 -37 31 11 23 10 28 -7 40 -32 24 -42 16 -49 -35z"/>
  <path d="M317 574 c-3 -3 3 -20 14 -38 l19 -33 -37 -7 c-21 -3 -55 -6 -75 -6
-44 0 -49 -15 -13 -32 20 -9 37 -8 80 4 l55 15 13 -25 c6 -14 18 -28 26 -30
11 -4 12 3 7 32 -7 35 -5 37 24 42 42 9 38 24 -5 17 -31 -5 -35 -3 -35 15 0
36 -51 68 -73 46z"/>
</g>
<g id="part-2" class="char-part">
  <path d="M300 353 c0 -32 -4 -64 -9 -72 -5 -8 -35 -15 -80 -19 -39 -2 -71 -8
-71 -13 0 -14 41 -21 86 -14 41 6 59 -4 34 -20 -22 -14 -7 -32 42 -53 61 -26
59 -31 -39 -78 -58 -28 -64 -33 -39 -34 16 0 60 14 98 32 l69 31 27 -26 c31
-30 62 -35 62 -12 0 17 -43 65 -58 65 -5 0 5 29 22 64 27 57 35 65 59 65 l28
1 -34 35 c-41 42 -72 47 -63 11 6 -26 -12 -36 -66 -36 -33 0 -33 -3 -8 54 l19
46 -22 15 c-44 31 -57 21 -57 -42z m130 -98 c0 -11 -40 -84 -49 -89 -7 -5 -78
18 -89 29 -10 10 34 54 56 58 44 7 82 7 82 2z"/>
</g>
<g id="part-3" class="char-part">
  <path d="M675 329 c-22 -4 -66 -8 -97 -8 -32 -1 -58 -3 -58 -6 0 -3 6 -16 14
-28 7 -12 19 -55 26 -95 11 -69 14 -73 34 -67 11 4 56 9 98 12 74 5 77 7 72
28 -3 12 4 50 16 85 11 34 20 63 18 65 -30 24 -58 28 -123 14z m50 -29 c3 -5
1 -36 -6 -69 l-11 -58 -51 -7 c-28 -3 -55 -2 -59 2 -3 4 -10 35 -14 69 l-6 62
38 4 c76 7 103 7 109 -3z"/>
</g>
</g>
</svg>