<?xml version="1.0" standalone="no"?>
<!DOCTYPE svg PUBLIC "-//W3C//DTD SVG 20010904//EN"
 "http://www.w3.org/TR/2001/REC-SVG-20010904/DTD/svg10.dtd">
<svg version="1.0" xmlns="http://www.w3.org/2000/svg"
 width="96.000000pt" height="68.000000pt" viewBox="0 0 96.000000 68.000000"
 preserveAspectRatio="xMidYMid meet">
<metadata>
Created by potrace 1.16, written by Peter Selinger 2001-2019
Combined from part_0.svg through part_5.svg with named groups
</metadata>
<g transform="translate(0.000000,68.000000) scale(0.100000,-0.100000)" fill="#000000" stroke="none">
<g id="part-0" class="char-part">
  <path d="M526 518 c-17 -60 -75 -159 -124 -214 -18 -20 -31 -39 -28 -41 13
-14 111 80 140 133 8 16 24 40 34 53 l19 23 39 -53 c21 -30 57 -71 79 -92 39
-37 42 -38 98 -34 62 5 81 13 51 23 -66 22 -167 81 -213 123 -54 49 -55 51
-41 76 13 24 13 28 -5 41 -29 21 -32 18 -49 -38z"/>
  <path d="M207 460 l6 -72 -61 3 c-62 2 -89 -5 -58 -17 9 -3 23 -29 31 -58 21
-71 28 -81 45 -61 25 30 40 18 40 -34 l0 -49 -52 -7 c-65 -9 -72 -13 -57 -31
17 -20 34 -18 138 22 l94 35 22 -21 c23 -21 35 -18 35 11 0 16 -27 39 -61 51
-12 5 -16 2 -12 -11 3 -13 -2 -20 -18 -24 -32 -9 -39 -1 -39 44 l0 39 50 0
c45 0 50 2 50 23 0 12 9 37 20 54 l20 33 -25 16 c-21 13 -33 14 -66 6 l-42
-11 7 54 c7 58 6 59 -41 70 l-32 6 6 -71z m109 -102 c-3 -13 -6 -29 -6 -35 0
-7 -11 -13 -24 -13 -19 0 -24 5 -22 23 4 34 14 47 38 47 16 0 19 -5 14 -22z
m-106 -28 c0 -23 -5 -30 -19 -30 -19 0 -31 18 -31 46 0 8 10 14 25 14 21 0 25
-5 25 -30z"/>
  <path d="M560 304 c-8 -1 -36 -6 -63 -9 -29 -4 -45 -10 -41 -17 10 -16 194 6
194 23 0 8 -57 11 -90 3z"/>
  <path d="M595 220 c-27 -5 -83 -9 -124 -9 -70 -1 -73 -2 -59 -18 9 -10 23 -43
33 -73 20 -62 32 -81 43 -64 4 7 51 15 105 19 90 7 97 9 97 29 0 12 12 39 26
59 14 21 24 40 22 41 -29 26 -58 29 -143 16z m55 -47 c0 -69 -6 -73 -85 -73
l-73 0 -12 36 c-7 20 -8 40 -4 44 5 5 36 11 69 13 33 2 70 4 83 5 18 2 22 -3
22 -25z"/>
</g>
<g id="part-1" class="char-part">
  <path d="M204 505 c3 -8 8 -37 12 -63 l6 -49 -33 -7 c-18 -3 -49 -3 -68 0 -35
7 -36 6 -18 -13 9 -11 24 -43 33 -73 11 -39 18 -50 27 -41 6 6 21 11 34 11 21
0 23 -5 23 -46 0 -38 3 -45 16 -40 9 3 18 6 20 6 2 0 4 20 4 45 0 40 3 45 23
45 45 0 62 13 86 62 29 62 20 71 -56 63 -29 -3 -53 -3 -53 0 0 4 5 27 11 52
13 51 5 63 -45 63 -21 0 -27 -4 -22 -15z m116 -153 c0 -32 -16 -52 -42 -52
-14 0 -18 8 -18 40 0 38 2 40 30 40 26 0 30 -4 30 -28z m-100 -22 c0 -36 -3
-40 -24 -40 -28 0 -31 3 -41 48 -6 31 -6 32 29 32 35 0 36 -1 36 -40z"/>
</g>
<g id="part-2" class="char-part">
  <path d="M310 232 c0 -5 15 -26 34 -48 31 -35 35 -37 42 -20 4 10 3 26 -3 34
-11 18 -73 46 -73 34z"/>
</g>
<g id="part-3" class="char-part">
  <path d="M537 563 c-4 -3 -7 -16 -7 -28 0 -35 -64 -154 -121 -224 -34 -41 -44
-59 -29 -51 42 22 98 81 141 146 l42 65 26 -33 c14 -18 50 -59 80 -90 52 -56
56 -58 105 -57 92 1 96 12 18 43 -77 30 -127 62 -184 120 -33 33 -36 40 -26
61 8 19 8 28 -2 40 -13 16 -32 20 -43 8z"/>
</g>
<g id="part-4" class="char-part">
  <path d="M515 296 c-49 -9 -65 -15 -53 -20 22 -10 188 13 188 25 0 12 -47 10
-135 -5z"/>
</g>
<g id="part-5" class="char-part">
  <path d="M670 220 c12 -9 9 -11 -16 -6 -17 3 -44 1 -60 -4 -26 -7 -25 -8 17
-9 52 -1 64 -15 49 -55 -5 -13 -6 -26 -3 -29 3 -3 -15 -11 -38 -17 -58 -15
-67 -18 -49 -19 8 -1 30 3 48 8 23 7 32 6 32 -2 0 -8 3 -7 9 2 7 11 9 11 14 0
3 -8 6 -4 6 9 1 12 12 39 25 60 25 41 21 54 -25 66 -19 6 -21 5 -9 -4z"/>
  <path d="M419 191 c5 -4 13 -19 16 -34 4 -15 11 -27 17 -27 5 0 6 -5 3 -10 -3
-5 -1 -10 5 -10 6 0 9 -4 6 -9 -11 -17 5 -39 25 -34 10 3 19 9 19 14 0 5 -6 6
-13 3 -8 -3 -13 5 -15 23 -1 15 -7 30 -13 34 -15 9 -2 47 19 52 9 2 -4 4 -31
4 -26 -1 -43 -3 -38 -6z"/>
  <path d="M530 79 c0 -5 5 -7 10 -4 6 3 10 8 10 11 0 2 -4 4 -10 4 -5 0 -10 -5
-10 -11z"/>
</g>
</g>
</svg>