<?xml version="1.0" standalone="no"?>
<!DOCTYPE svg PUBLIC "-//W3C//DTD SVG 20010904//EN"
 "http://www.w3.org/TR/2001/REC-SVG-20010904/DTD/svg10.dtd">
<svg version="1.0" xmlns="http://www.w3.org/2000/svg"
 width="96.000000pt" height="68.000000pt" viewBox="0 0 96.000000 68.000000"
 preserveAspectRatio="xMidYMid meet">
<metadata>
Created by potrace 1.16, written by Peter Selinger 2001-2019
Combined from part_0.svg through part_5.svg with named groups
</metadata>
<g transform="translate(0.000000,68.000000) scale(0.100000,-0.100000)" fill="#000000" stroke="none">
<g id="part-0" class="char-part">
  <path d="M405 583 c22 -54 26 -51 -97 -69 -80 -11 -57 -27 32 -22 73 4 80 3
80 -14 0 -10 -1 -18 -2 -19 -2 0 -66 -6 -143 -12 -183 -16 -178 -33 8 -30 110
2 137 0 137 -11 0 -17 -31 -26 -88 -26 -70 0 -47 -24 26 -28 53 -3 62 -6 62
-22 0 -16 -11 -19 -75 -25 -75 -7 -105 -25 -41 -25 60 0 341 21 346 26 14 15
-33 24 -97 18 -68 -6 -73 -5 -73 14 0 17 9 21 66 27 52 5 64 10 60 22 -3 8 -1
23 4 34 9 16 22 19 95 19 46 0 86 4 90 9 10 17 -31 31 -89 31 -51 0 -56 2 -53
22 3 35 -36 49 -111 42 -59 -6 -63 -5 -61 12 5 30 -10 44 -48 44 -30 0 -34 -3
-28 -17z m165 -93 c0 -11 -6 -20 -14 -20 -7 0 -28 -3 -45 -6 -27 -6 -31 -4
-31 14 0 21 15 29 63 31 21 1 27 -4 27 -19z m-16 -74 c-3 -8 -21 -16 -40 -18
-28 -3 -34 -1 -34 14 0 14 8 18 40 18 30 0 38 -3 34 -14z"/>
  <path d="M584 271 c11 -17 99 -71 107 -65 19 12 7 36 -23 48 -49 20 -91 28
-84 17z"/>
  <path d="M470 259 c0 -20 21 -49 36 -49 24 0 13 41 -13 51 -15 5 -23 5 -23 -2z"/>
  <path d="M216 227 c-32 -42 -33 -57 -3 -57 29 0 52 -25 61 -65 4 -16 9 -38 12
-47 4 -12 1 -16 -8 -13 -7 3 -42 1 -78 -3 l-65 -8 40 -12 c27 -7 64 -8 115 -2
41 5 136 9 210 10 159 0 300 10 300 20 0 18 -62 32 -110 26 -45 -6 -50 -5 -50
12 0 11 10 32 22 47 l22 28 -23 18 c-13 11 -28 19 -35 18 -6 0 -85 -8 -176
-18 -91 -9 -175 -15 -187 -13 -22 4 -33 32 -13 32 6 0 10 14 10 30 0 39 -13
38 -44 -3z m277 -118 c-8 -39 -12 -44 -39 -47 -29 -3 -30 -2 -31 47 -2 49 -2
50 30 53 44 5 50 -3 40 -53z m117 42 c0 -10 -5 -32 -11 -48 -8 -25 -17 -32
-47 -36 -20 -4 -38 -4 -41 -2 -2 3 3 20 12 37 9 18 18 41 21 51 8 25 66 24 66
-2z m-221 -41 c15 -50 9 -60 -33 -60 -29 0 -33 4 -43 42 -13 48 -6 58 38 58
22 0 28 -7 38 -40z"/>
  <path d="M347 243 c15 -39 53 -58 53 -27 0 20 -24 44 -44 44 -10 0 -13 -6 -9
-17z"/>
</g>
<g id="part-1" class="char-part">
  <path d="M413 563 l2 -38 -72 -9 c-98 -12 -96 -31 2 -21 75 7 75 7 75 -18 0
-24 -3 -25 -87 -31 -165 -12 -198 -18 -178 -29 16 -9 119 -5 223 9 40 6 42 5
42 -20 0 -23 -4 -26 -37 -26 -21 0 -49 -4 -63 -8 -19 -5 -9 -8 40 -12 58 -4
65 -7 68 -27 2 -15 10 -23 23 -23 14 0 19 7 19 30 l0 30 64 0 c36 0 68 5 71
10 3 6 2 10 -4 10 -7 0 -7 8 1 25 10 22 18 25 62 26 28 0 69 4 91 8 34 7 37 9
20 17 -11 5 -46 9 -77 8 -57 -1 -57 -1 -51 26 4 24 1 29 -26 38 -17 6 -37 9
-44 7 -7 -2 -31 -6 -54 -9 -42 -6 -43 -6 -43 23 0 29 -14 41 -51 41 -15 0 -18
-7 -16 -37z m158 -82 c-9 -17 -21 -21 -57 -21 -41 0 -45 2 -42 23 2 18 11 23
48 27 53 7 66 0 51 -29z m-11 -60 c0 -13 -10 -20 -31 -25 -49 -10 -59 -7 -59
13 0 22 13 29 58 30 25 1 32 -3 32 -18z"/>
</g>
<g id="part-2" class="char-part">
  <path d="M407 312 c-96 -10 -145 -18 -138 -25 9 -9 370 9 381 20 10 9 -27 23
-60 21 -19 0 -102 -8 -183 -16z"/>
</g>
<g id="part-3" class="char-part">
  <path d="M467 253 c9 -27 24 -43 39 -43 21 0 17 38 -5 50 -29 15 -41 12 -34
-7z"/>
  <path d="M590 267 c0 -7 89 -67 99 -67 6 0 11 9 11 21 0 13 -11 25 -35 35 -31
13 -75 19 -75 11z"/>
  <path d="M216 229 c-32 -38 -33 -59 -3 -59 25 0 47 33 47 70 0 28 -14 25 -44
-11z"/>
  <path d="M340 252 c0 -16 32 -52 46 -52 21 0 17 38 -5 50 -23 12 -41 13 -41 2z"/>
</g>
<g id="part-4" class="char-part">
  <path d="M490 184 c-63 -7 -147 -14 -187 -14 -69 -2 -71 -2 -53 -20 11 -11 24
-37 30 -59 7 -26 17 -41 27 -41 11 0 14 6 9 23 -19 69 -20 65 21 72 21 3 60
10 86 15 27 6 80 10 119 10 l70 0 -4 -32 c-3 -18 -8 -41 -13 -50 -5 -14 -2
-18 14 -18 12 0 21 4 21 9 0 4 12 26 26 47 l26 38 -22 18 c-12 10 -30 17 -39
17 -9 -1 -68 -7 -131 -15z"/>
</g>
<g id="part-5" class="char-part">
  <path d="M512 151 c-8 -4 -12 -21 -10 -36 3 -27 4 -27 18 -10 13 17 13 18 0
10 -11 -6 -10 -3 3 12 26 30 20 44 -11 24z"/>
  <path d="M399 131 c11 -7 11 -9 0 -14 -10 -4 -9 -6 4 -6 9 -1 17 6 17 14 0 8
-8 15 -17 15 -14 0 -15 -2 -4 -9z"/>
  <path d="M404 65 c4 -10 -1 -15 -17 -16 -12 -1 -40 -3 -62 -4 -22 -1 -71 -4
-110 -5 -45 -1 -63 -5 -50 -10 24 -9 270 -2 305 9 14 4 94 6 178 4 83 -1 152
0 152 3 0 8 -70 35 -78 30 -4 -2 -50 -7 -102 -11 -52 -4 -98 -9 -102 -11 -4
-3 -11 4 -17 13 -8 15 -10 15 -11 3 0 -12 -8 -15 -35 -12 -19 2 -35 8 -35 13
0 5 -5 9 -11 9 -6 0 -9 -7 -5 -15z m351 -13 c-3 -3 -11 0 -18 7 -9 10 -8 11 6
5 10 -3 15 -9 12 -12z"/>
</g>
</g>
</svg>