<?xml version="1.0" standalone="no"?>
<!DOCTYPE svg PUBLIC "-//W3C//DTD SVG 20010904//EN"
 "http://www.w3.org/TR/2001/REC-SVG-20010904/DTD/svg10.dtd">
<svg version="1.0" xmlns="http://www.w3.org/2000/svg"
 width="96.000000pt" height="68.000000pt" viewBox="0 0 96.000000 68.000000"
 preserveAspectRatio="xMidYMid meet">
<metadata>
Created by potrace 1.16, written by Peter Selinger 2001-2019
Combined from part_0.svg through part_5.svg with named groups
</metadata>
<g transform="translate(0.000000,68.000000) scale(0.100000,-0.100000)" fill="#000000" stroke="none">
<g id="part-0" class="char-part">
  <path d="M469 558 c0 -2 -2 -14 -5 -28 -6 -35 -63 -150 -75 -150 -5 0 -9 -5
-9 -12 0 -7 -12 -25 -27 -40 -35 -37 -15 -36 28 2 l34 29 3 -95 c1 -52 -2
-110 -7 -129 -11 -40 -5 -71 15 -79 18 -7 22 13 28 168 3 87 1 134 -7 146 -11
19 -10 21 63 137 11 18 12 24 1 37 -11 13 -39 22 -42 14z"/>
  <path d="M207 534 c-3 -4 -2 -15 4 -26 5 -10 9 -46 7 -81 -3 -53 -6 -62 -23
-65 -78 -11 -91 -32 -20 -32 l45 0 0 -54 c0 -59 -1 -60 -94 -81 -27 -6 -28 -7
-11 -25 27 -30 51 -25 152 27 108 56 125 84 29 47 -13 -5 -16 2 -16 43 0 49 0
50 40 62 22 6 40 16 40 21 0 13 -37 22 -61 15 -21 -7 -21 -5 -16 41 3 27 8 58
12 70 5 15 0 23 -20 32 -28 13 -58 16 -68 6z"/>
  <path d="M640 520 c-14 -4 -39 -8 -57 -9 -17 -1 -35 -6 -39 -12 -5 -9 12 -10
65 -5 l71 7 0 -31 c0 -38 -17 -45 -123 -55 -76 -7 -98 -25 -31 -25 19 0 34 -5
34 -10 0 -19 -31 -74 -59 -104 l-26 -30 38 22 c21 12 54 22 73 22 32 0 34 -2
34 -34 l0 -35 -70 -7 c-38 -3 -70 -11 -70 -17 0 -6 24 -8 65 -4 58 6 63 4 58
-11 -13 -35 -38 -66 -77 -93 -45 -33 -33 -38 22 -10 39 20 84 72 96 107 7 22
59 34 149 34 42 0 50 15 11 24 -23 6 -73 2 -117 -11 -15 -4 -18 0 -16 19 2 12
0 28 -4 35 -5 7 9 13 43 18 49 7 69 18 51 29 -5 3 -47 -1 -92 -9 -109 -19
-106 -19 -78 11 23 25 24 26 5 40 -11 7 -18 16 -15 18 2 3 57 9 122 14 64 5
120 12 124 15 13 14 -10 22 -58 20 -54 -2 -60 5 -29 45 16 20 18 27 8 34 -16
10 -74 9 -108 -2z"/>
  <path d="M739 117 c66 -67 81 -74 81 -33 0 25 -20 46 -65 69 -78 38 -81 31
-16 -36z"/>
</g>
<g id="part-1" class="char-part">
  <path d="M216 532 c-3 -5 -1 -25 5 -46 6 -20 9 -56 7 -79 -3 -42 -3 -42 -53
-53 -43 -10 -47 -12 -25 -18 14 -4 36 -5 50 -4 24 3 25 1 25 -56 l0 -60 -57
-15 c-32 -8 -58 -19 -58 -23 0 -5 12 -14 26 -20 23 -11 36 -7 120 37 88 47
125 76 68 55 -49 -19 -55 -14 -52 42 3 50 4 53 36 59 18 4 36 10 40 13 11 12
-18 23 -45 18 l-26 -5 6 71 6 70 -31 11 c-37 13 -36 13 -42 3z"/>
</g>
<g id="part-2" class="char-part">
  <path d="M467 553 c-4 -3 -7 -15 -7 -26 0 -27 -45 -113 -91 -174 -22 -29 -37
-53 -33 -53 3 0 24 14 46 32 l40 31 -5 -114 c-3 -63 -8 -125 -12 -139 -8 -31
19 -73 33 -52 13 20 21 293 10 312 -8 12 1 34 36 90 41 68 44 76 29 88 -19 13
-36 16 -46 5z"/>
</g>
<g id="part-3" class="char-part">
  <path d="M650 524 c-19 -7 -46 -13 -60 -14 -14 0 -32 -5 -40 -11 -11 -8 6 -9
59 -4 l74 6 -6 -36 c-5 -30 -3 -35 11 -33 9 2 29 21 44 43 l27 40 -22 12 c-27
15 -42 14 -87 -3z"/>
</g>
<g id="part-4" class="char-part">
  <path d="M633 293 c-7 -3 -13 -19 -13 -38 0 -30 -3 -33 -37 -39 -21 -3 -53 -6
-70 -6 -18 0 -33 -5 -33 -11 0 -8 19 -10 65 -6 58 6 63 4 58 -11 -12 -34 -44
-71 -80 -93 -20 -13 -32 -24 -25 -27 29 -9 127 71 144 119 7 22 17 28 55 33
25 3 65 6 89 6 24 0 44 4 44 9 0 16 -55 22 -101 12 -61 -14 -62 -14 -56 14 5
27 -16 46 -40 38z"/>
  <path d="M745 112 c62 -59 70 -64 73 -45 5 35 -15 61 -68 88 -79 40 -80 29 -5
-43z"/>
</g>
</g>
</svg>