<?xml version="1.0" standalone="no"?>
<!DOCTYPE svg PUBLIC "-//W3C//DTD SVG 20010904//EN"
 "http://www.w3.org/TR/2001/REC-SVG-20010904/DTD/svg10.dtd">
<svg version="1.0" xmlns="http://www.w3.org/2000/svg"
 width="96.000000pt" height="68.000000pt" viewBox="0 0 96.000000 68.000000"
 preserveAspectRatio="xMidYMid meet">
<metadata>
Created by potrace 1.16, written by Peter Selinger 2001-2019
Combined from part_0.svg through part_5.svg with named groups
</metadata>
<g transform="translate(0.000000,68.000000) scale(0.100000,-0.100000)" fill="#000000" stroke="none">
<g id="part-0" class="char-part">
  <path d="M505 613 c3 -10 9 -30 12 -44 5 -26 3 -27 -58 -34 -47 -6 -58 -10
-45 -17 9 -5 37 -7 61 -3 44 5 45 5 45 -23 0 -25 -5 -30 -31 -36 -17 -3 -52
-6 -76 -6 -35 0 -43 -3 -35 -12 5 -7 15 -39 22 -70 6 -32 14 -60 18 -62 4 -2
26 -1 50 4 41 7 42 7 42 -20 0 -25 -4 -28 -46 -34 -26 -3 -65 -6 -86 -6 -27 0
-38 -4 -35 -12 3 -9 27 -12 86 -10 l82 3 -7 -36 c-4 -22 -2 -41 6 -50 17 -21
9 -20 -121 11 l-109 26 0 33 c0 25 -7 39 -27 55 l-28 22 38 31 c45 38 46 52 8
65 -24 8 -41 6 -83 -9 -29 -11 -60 -22 -68 -25 -28 -10 19 -26 56 -20 37 7 39
5 24 -25 -9 -15 -6 -26 15 -53 14 -18 25 -43 25 -54 0 -21 -5 -22 -75 -22 -59
0 -75 -3 -75 -15 0 -25 34 -36 87 -26 68 13 117 5 287 -51 151 -48 198 -56
252 -39 16 5 55 17 87 26 31 9 55 20 52 25 -3 4 -75 11 -161 15 l-156 8 6 30
c3 16 6 42 6 58 l0 29 110 0 c68 0 110 4 110 10 0 20 -50 29 -134 23 l-86 -6
0 27 c0 27 1 28 57 24 l56 -3 28 69 c30 75 28 90 -17 99 -13 2 -45 0 -71 -4
-25 -5 -48 -7 -50 -5 -2 2 1 15 6 30 7 18 18 26 35 26 40 0 86 12 86 23 0 6
-22 8 -60 4 l-60 -7 0 28 c0 33 -16 52 -43 52 -14 0 -17 -5 -12 -17z m145
-175 c0 -21 -6 -23 -50 -25 -42 -1 -50 1 -50 16 0 26 9 31 57 31 38 0 43 -3
43 -22z m-130 -12 c0 -21 -6 -24 -39 -28 -51 -4 -61 -1 -61 22 0 14 9 20 38
23 20 2 43 4 50 5 6 1 12 -9 12 -22z m118 -58 c-2 -18 -10 -22 -45 -24 -39 -2
-43 0 -43 22 0 22 4 24 46 24 41 0 45 -2 42 -22z m-118 -3 c0 -15 -37 -35 -66
-35 -8 0 -14 10 -14 25 0 23 4 25 40 25 29 0 40 -4 40 -15z"/>
  <path d="M175 520 c29 -32 84 -63 100 -56 8 3 15 15 15 26 0 25 -52 50 -101
50 -32 0 -32 0 -14 -20z"/>
</g>
<g id="part-1" class="char-part">
  <path d="M199 506 c43 -36 80 -44 88 -19 6 17 -36 41 -87 49 l-45 7 44 -37z"/>
  <path d="M178 370 c-67 -23 -69 -30 -10 -30 51 0 51 0 41 -24 -9 -20 -8 -30 8
-53 30 -41 38 -74 22 -84 -8 -5 -45 -9 -83 -9 -60 0 -67 -2 -56 -15 11 -13 29
-14 99 -9 83 6 91 4 226 -39 240 -77 212 -75 390 -25 l40 11 -30 8 c-16 3 -68
7 -115 8 -98 2 -261 24 -340 46 -30 8 -64 15 -77 15 -19 0 -21 4 -16 34 4 29
1 38 -26 62 l-31 27 41 35 c38 33 40 36 23 49 -22 16 -46 15 -106 -7z"/>
</g>
<g id="part-2" class="char-part">
  <path d="M505 613 c3 -10 9 -30 12 -45 5 -26 4 -26 -61 -33 -40 -5 -63 -11
-59 -17 3 -7 29 -8 64 -4 58 6 59 5 59 -19 0 -33 26 -33 34 0 6 25 13 28 89
40 51 8 49 27 -3 27 -3 0 -22 -3 -44 -6 -37 -7 -38 -7 -32 18 7 29 -15 56 -46
56 -15 0 -18 -4 -13 -17z"/>
</g>
<g id="part-3" class="char-part">
  <path d="M535 469 c-55 -11 -117 -17 -138 -14 l-38 5 17 -25 c9 -13 21 -48 28
-77 10 -43 16 -53 31 -51 11 2 67 5 124 7 97 4 106 6 117 28 8 13 13 30 14 38
0 8 7 28 15 44 8 15 15 32 15 37 0 7 -68 31 -80 28 -3 -1 -50 -10 -105 -20z
m115 -29 c0 -13 -7 -20 -19 -20 -10 0 -33 -3 -50 -6 -26 -6 -31 -4 -31 13 0
28 8 33 57 33 36 0 43 -3 43 -20z m-132 -17 c-4 -22 -79 -37 -90 -19 -18 27
-7 36 43 36 42 0 50 -3 47 -17z m120 -55 c-2 -17 -10 -21 -43 -22 -34 -1 -40
2 -43 22 -3 20 1 22 43 22 42 0 46 -2 43 -22z m-122 -5 c-3 -17 -28 -31 -58
-32 -13 -1 -18 7 -18 24 0 22 4 25 39 25 31 0 39 -4 37 -17z"/>
</g>
<g id="part-4" class="char-part">
  <path d="M510 286 c0 -28 -27 -36 -124 -36 -56 -1 -59 -2 -41 -16 15 -11 35
-13 92 -8 l72 7 -5 -35 c-4 -20 -1 -45 6 -58 12 -23 13 -23 26 -5 8 10 14 38
14 62 l0 43 63 2 c34 1 83 1 110 0 27 -1 47 2 47 8 0 20 -45 27 -132 22 -85
-5 -88 -4 -88 17 0 14 -6 21 -20 21 -14 0 -20 -7 -20 -24z"/>
</g>
</g>
</svg>