<?xml version="1.0" standalone="no"?>
<!DOCTYPE svg PUBLIC "-//W3C//DTD SVG 20010904//EN"
 "http://www.w3.org/TR/2001/REC-SVG-20010904/DTD/svg10.dtd">
<svg version="1.0" xmlns="http://www.w3.org/2000/svg"
 width="96.000000pt" height="68.000000pt" viewBox="0 0 96.000000 68.000000"
 preserveAspectRatio="xMidYMid meet">
<metadata>
Created by potrace 1.16, written by Peter Selinger 2001-2019
Combined from part_0.svg through part_5.svg with named groups
</metadata>
<g transform="translate(0.000000,68.000000) scale(0.100000,-0.100000)" fill="#000000" stroke="none">
<g id="part-0" class="char-part">
  <path d="M563 568 c2 -43 2 -43 -36 -46 -43 -4 -40 -22 4 -22 31 0 37 -16 19
-51 -8 -15 -22 -19 -60 -19 -28 0 -50 -4 -50 -9 0 -15 41 -20 94 -11 28 5 108
12 179 15 122 7 156 17 101 31 -14 4 -43 4 -65 1 -43 -6 -52 9 -23 38 9 8 13
23 10 32 -5 13 -17 15 -66 10 l-61 -5 7 34 c5 27 3 34 -9 34 -8 0 -22 3 -31 6
-12 5 -15 -2 -13 -38z m107 -77 c0 -35 -17 -51 -53 -51 -28 0 -29 2 -23 32 7
36 18 46 52 46 19 0 24 -6 24 -27z"/>
  <path d="M275 548 l0 -53 -50 -9 c-27 -5 -52 -11 -55 -13 -10 -9 27 -23 64
-23 35 0 38 -2 32 -22 -3 -13 -6 -26 -6 -30 0 -5 -25 -8 -55 -8 -54 0 -64 -6
-46 -25 5 -6 16 -36 25 -67 16 -56 28 -69 41 -48 12 20 43 10 49 -16 4 -15 5
-29 2 -31 -3 -3 -44 -10 -91 -16 -47 -5 -85 -14 -85 -18 0 -14 59 -20 97 -10
21 6 48 11 61 11 21 0 22 -4 20 -60 -2 -59 10 -89 31 -76 6 4 11 37 11 77 l0
69 29 0 c16 0 43 3 61 6 44 9 18 24 -42 24 -45 0 -48 2 -48 26 0 24 3 26 29
21 28 -6 29 -4 54 64 24 69 24 70 4 80 -11 6 -37 9 -58 6 -32 -4 -39 -2 -39
11 0 31 15 41 68 48 29 4 55 11 58 15 9 14 -43 29 -78 22 -27 -5 -30 -4 -25
11 26 66 18 86 -33 86 -24 0 -26 -3 -25 -52z m98 -181 c-4 -20 -11 -23 -61
-25 -31 -1 -68 -4 -82 -5 -19 -1 -26 3 -28 20 -3 19 2 22 45 26 126 10 131 9
126 -16z m-9 -59 c-3 -13 -7 -24 -8 -25 -1 -1 -30 -3 -66 -5 -53 -2 -65 0 -68
13 -2 12 10 18 50 26 90 17 100 16 92 -9z"/>
  <path d="M561 380 c-35 -5 -69 -6 -74 -3 -5 3 -7 0 -4 -8 3 -8 11 -31 18 -51
11 -35 15 -38 50 -38 25 0 39 -5 43 -17 9 -23 -11 -33 -70 -33 -47 0 -52 -2
-52 -22 1 -13 -3 -38 -7 -56 l-8 -33 72 7 71 7 0 -61 c0 -57 11 -85 24 -63 4
5 9 37 12 70 l7 61 84 0 c63 0 84 3 80 13 -3 8 -29 12 -83 12 -77 0 -79 1 -79
25 0 26 23 37 83 39 17 1 32 6 32 12 0 8 -17 10 -55 6 -30 -3 -55 -2 -55 3 0
5 -3 15 -6 24 -5 13 1 16 25 16 17 0 31 5 31 12 0 7 12 24 27 40 14 15 23 31
20 35 -11 11 -116 12 -186 3z m114 -37 c-4 -16 -7 -29 -8 -29 -9 -7 -137 -14
-137 -7 0 4 -3 18 -6 30 -6 20 -2 22 42 26 122 9 117 10 109 -20z m-75 -157
c0 -24 -21 -36 -67 -36 -25 0 -26 3 -17 37 4 16 15 23 38 25 41 4 46 1 46 -26z"/>
</g>
<g id="part-1" class="char-part">
  <path d="M282 551 c0 -27 -3 -54 -6 -60 -4 -6 -29 -11 -57 -11 -27 0 -49 -4
-49 -10 0 -5 23 -10 50 -10 49 0 50 -1 50 -30 0 -40 23 -39 41 3 12 28 20 33
61 37 26 3 50 9 54 12 9 10 -42 21 -71 16 -28 -6 -31 5 -14 49 8 23 7 30 -7
40 -37 27 -52 17 -52 -36z"/>
</g>
<g id="part-2" class="char-part">
  <path d="M275 232 c7 -36 4 -38 -109 -48 -72 -6 -78 -8 -60 -21 18 -14 62 -13
146 4 l29 6 -3 -62 c-1 -37 2 -65 10 -73 20 -20 31 3 34 72 l3 64 58 11 c70
12 65 25 -9 25 -47 0 -53 2 -56 23 -2 14 -11 23 -26 25 -22 3 -23 1 -17 -26z"/>
</g>
<g id="part-3" class="char-part">
  <path d="M562 569 l3 -44 -38 -3 c-44 -4 -40 -22 5 -22 29 0 30 -2 25 -30 -5
-25 -3 -30 12 -30 13 0 21 10 25 34 5 23 13 36 29 40 44 12 49 8 45 -29 -3
-28 -1 -35 13 -35 15 0 59 55 59 74 0 16 -54 26 -88 16 -43 -11 -47 -9 -32 20
14 26 6 36 -33 45 -27 7 -28 7 -25 -36z"/>
</g>
<g id="part-4" class="char-part">
  <path d="M690 449 c-30 -4 -99 -11 -152 -15 -93 -6 -121 -16 -80 -26 10 -3 44
-2 76 3 32 4 114 11 182 15 117 6 145 14 108 28 -19 7 -62 6 -134 -5z"/>
</g>
<g id="part-5" class="char-part">
  <path d="M607 273 c-10 -18 2 -106 14 -115 11 -8 10 -9 -3 -4 -21 6 -24 -14
-5 -33 10 -11 10 -13 0 -7 -16 9 -18 -71 -3 -94 11 -18 11 -19 16 43 2 27 9
58 15 69 6 11 7 24 2 31 -10 15 -10 68 0 85 5 6 5 17 2 22 -7 12 -32 13 -38 3z"/>
  <path d="M730 240 c0 -5 5 -10 11 -10 5 0 7 5 4 10 -3 6 -8 10 -11 10 -2 0 -4
-4 -4 -10z"/>
  <path d="M668 233 c6 -2 18 -2 25 0 6 3 1 5 -13 5 -14 0 -19 -2 -12 -5z"/>
  <path d="M488 220 c-3 -8 -10 -31 -16 -50 -8 -22 -8 -38 -2 -44 7 -7 10 -5 10
5 0 12 2 12 10 -1 5 -8 10 -10 10 -4 0 7 13 10 30 9 17 -1 30 1 30 6 0 4 -12
7 -27 6 -21 -2 -28 2 -27 16 1 9 -2 17 -7 17 -21 0 -7 19 21 29 17 5 30 12 30
15 0 6 -22 2 -37 -7 -6 -4 -13 -1 -16 5 -3 10 -6 9 -9 -2z"/>
  <path d="M660 148 c0 -4 29 -7 64 -6 36 1 62 6 60 10 -7 10 -124 6 -124 -4z"/>
</g>
</g>
</svg>