<?xml version="1.0" standalone="no"?>
<!DOCTYPE svg PUBLIC "-//W3C//DTD SVG 20010904//EN"
 "http://www.w3.org/TR/2001/REC-SVG-20010904/DTD/svg10.dtd">
<svg version="1.0" xmlns="http://www.w3.org/2000/svg"
 width="96.000000pt" height="68.000000pt" viewBox="0 0 96.000000 68.000000"
 preserveAspectRatio="xMidYMid meet">
<metadata>
Created by potrace 1.16, written by Peter Selinger 2001-2019
Combined from part_0.svg through part_5.svg with named groups
</metadata>
<g transform="translate(0.000000,68.000000) scale(0.100000,-0.100000)" fill="#000000" stroke="none">
<g id="part-0" class="char-part">
  <path d="M630 573 l-45 -4 0 -92 c1 -81 3 -92 18 -91 9 1 17 -3 17 -10 -1 -19
-69 -86 -89 -86 -13 0 -20 -10 -24 -30 -6 -27 -10 -30 -49 -31 -24 -1 -56 -5
-73 -9 -25 -6 -27 -8 -12 -15 10 -4 38 -5 62 -2 42 4 58 -4 35 -18 -22 -13 -9
-34 25 -41 71 -13 51 -31 -75 -65 -62 -16 -63 -17 -25 -18 46 -1 90 9 156 34
l45 18 66 -42 c67 -42 98 -51 98 -28 0 22 -43 56 -93 73 l-47 16 33 47 33 46
73 1 c39 1 75 4 78 7 13 14 -55 28 -103 22 -27 -3 -62 -1 -77 4 -22 9 -27 8
-27 -4 0 -11 -11 -15 -40 -15 -37 0 -40 2 -31 19 6 10 8 21 5 23 -3 3 18 22
46 43 29 21 50 45 50 55 0 16 4 17 32 9 18 -5 35 -5 39 -1 10 10 15 165 6 180
-8 12 -16 12 -107 5z m65 -88 l0 -69 -43 -4 c-38 -3 -43 -1 -40 15 3 17 8 19
56 22 12 0 22 5 22 10 0 4 -18 6 -39 4 -36 -4 -39 -3 -34 16 4 16 13 21 39 21
19 0 34 5 34 10 0 7 -13 8 -35 4 -31 -5 -35 -4 -35 14 0 23 14 32 50 29 24 -2
25 -5 25 -72z m-75 -274 c0 -6 -10 -22 -23 -37 -21 -24 -27 -26 -65 -19 -23 4
-42 9 -42 11 0 3 8 16 18 29 14 20 26 24 65 25 26 0 47 -4 47 -9z"/>
  <path d="M230 495 c-18 -39 -45 -75 -65 -91 -63 -48 -38 -89 35 -60 45 18 52
7 15 -22 -13 -11 -22 -21 -20 -23 2 -3 -9 -13 -26 -24 -33 -23 -35 -28 -15
-44 11 -9 27 -6 71 14 61 27 90 31 100 15 3 -5 10 -10 16 -10 13 0 11 34 -3
48 -16 16 -48 15 -48 -1 0 -13 -69 -41 -79 -32 -2 3 3 13 12 23 10 10 14 22
10 26 -5 4 -3 6 3 4 13 -3 124 95 124 110 0 5 -7 16 -16 23 -14 11 -19 9 -34
-11 -10 -14 -18 -29 -17 -34 2 -9 -69 -29 -84 -24 -4 2 19 32 51 68 33 36 60
68 60 72 0 8 -41 38 -52 38 -4 0 -21 -29 -38 -65z"/>
  <path d="M390 467 c0 -69 3 -89 15 -93 20 -8 19 -33 -2 -56 -28 -31 -9 -29 30
3 23 19 34 35 30 45 -5 13 2 15 38 12 l44 -3 0 90 0 90 -77 0 -78 0 0 -88z
m118 55 c3 -20 -1 -22 -43 -22 -39 0 -46 3 -43 17 2 10 16 21 33 24 41 9 49 6
53 -19z m2 -52 c0 -17 -7 -20 -45 -20 -55 0 -65 26 -12 33 17 2 38 5 45 5 6 1
12 -7 12 -18z m0 -44 c0 -18 -6 -22 -51 -30 -31 -5 -37 -3 -42 13 -5 21 1 24
60 28 23 2 33 -1 33 -11z"/>
  <path d="M711 335 c33 -34 59 -40 59 -15 0 12 -37 36 -70 45 -23 6 -22 4 11
-30z"/>
  <path d="M505 330 c10 -11 22 -20 27 -20 15 0 9 28 -8 34 -30 11 -37 6 -19
-14z"/>
  <path d="M290 206 c0 -16 39 -48 50 -41 15 9 -6 42 -30 48 -12 3 -20 0 -20 -7z"/>
  <path d="M200 193 c0 -11 51 -73 61 -73 16 0 10 36 -8 52 -21 17 -53 30 -53
21z"/>
  <path d="M110 152 c0 -17 52 -82 65 -82 25 0 17 47 -11 69 -27 21 -54 28 -54
13z"/>
</g>
<g id="part-1" class="char-part">
  <path d="M250 535 c0 -28 -37 -89 -79 -131 -35 -34 -39 -43 -28 -57 11 -16 15
-16 60 1 62 24 83 43 33 32 -20 -4 -36 -5 -36 -1 0 4 25 36 55 71 58 67 65 84
39 94 -27 10 -44 7 -44 -9z"/>
</g>
<g id="part-2" class="char-part">
  <path d="M280 212 c0 -4 11 -19 25 -32 20 -18 28 -21 37 -12 9 9 9 15 -2 26
-19 18 -60 30 -60 18z"/>
  <path d="M222 155 c25 -38 48 -46 48 -16 0 20 -35 51 -57 51 -9 0 -6 -11 9
-35z"/>
  <path d="M111 148 c40 -76 83 -105 77 -51 -2 18 -15 35 -37 50 -43 29 -55 29
-40 1z"/>
</g>
<g id="part-3" class="char-part">
  <path d="M465 558 c-22 -5 -50 -7 -63 -5 -17 3 -22 1 -18 -10 3 -8 6 -41 6
-74 0 -46 3 -59 15 -59 8 0 15 4 15 9 0 14 83 26 88 12 2 -6 12 -11 23 -11 17
0 19 8 19 65 0 53 -3 66 -19 75 -11 5 -21 10 -23 9 -2 -1 -21 -5 -43 -11z m35
-29 c14 -26 14 -26 -35 -31 -35 -3 -40 0 -43 19 -3 17 3 22 25 26 15 2 31 5
35 6 4 0 12 -8 18 -20z m10 -59 c0 -17 -7 -20 -45 -20 -32 0 -45 4 -45 14 0 8
10 16 23 18 61 9 67 8 67 -12z"/>
</g>
<g id="part-4" class="char-part">
  <path d="M620 378 c0 -7 -14 -28 -31 -45 -38 -41 -25 -42 29 -2 46 33 51 44
26 53 -22 8 -24 8 -24 -6z"/>
  <path d="M715 330 c33 -34 55 -39 55 -12 0 19 -37 42 -67 42 -13 0 -10 -7 12
-30z"/>
</g>
<g id="part-5" class="char-part">
  <path d="M516 281 c-4 -5 -3 -16 0 -25 4 -9 1 -16 -6 -16 -7 0 -10 -7 -6 -15
5 -15 -9 -22 -17 -7 -2 4 -2 1 0 -7 2 -8 -4 -22 -12 -31 -14 -16 -14 -18 0
-24 10 -3 14 -2 9 5 -10 16 45 69 65 61 14 -5 14 -3 3 10 -9 12 -10 18 -2 23
8 5 8 11 -1 21 -13 16 -25 18 -33 5z"/>
  <path d="M643 253 c4 -3 -1 -12 -11 -19 -9 -7 -12 -14 -6 -14 6 0 11 -7 11
-15 0 -8 -3 -13 -6 -11 -3 2 -13 -3 -21 -12 -13 -14 -12 -15 3 -9 11 4 16 3
12 -3 -3 -6 -2 -10 3 -10 5 0 17 16 28 35 10 19 23 35 29 35 13 1 -25 30 -39
30 -5 0 -6 -3 -3 -7z"/>
  <path d="M713 238 c16 -10 117 -7 111 4 -3 5 -32 7 -64 6 -33 -1 -54 -6 -47
-10z"/>
  <path d="M585 230 c-19 -8 -19 -9 3 -9 12 -1 22 4 22 9 0 6 -1 10 -2 9 -2 0
-12 -4 -23 -9z"/>
  <path d="M442 223 c-12 -2 -20 -8 -17 -13 6 -10 45 -1 45 11 0 5 -1 8 -2 8 -2
-1 -13 -4 -26 -6z"/>
  <path d="M386 212 c-3 -5 1 -9 9 -9 8 0 12 4 9 9 -3 4 -7 8 -9 8 -2 0 -6 -4
-9 -8z"/>
  <path d="M596 148 c5 -8 2 -9 -9 -5 -20 7 -49 -2 -42 -13 6 -9 -68 -47 -110
-56 -16 -3 -25 -8 -19 -11 7 -2 38 6 70 18 33 11 69 23 81 26 30 7 85 -13 119
-42 16 -14 32 -25 37 -25 11 0 8 14 -5 30 -11 12 -10 12 5 1 9 -7 17 -21 17
-30 0 -14 2 -14 10 -1 12 18 -26 51 -49 42 -9 -3 -12 -1 -7 6 7 12 -5 16 -33
13 -7 -2 -10 2 -7 7 3 5 -3 12 -14 15 -10 3 -21 0 -23 -6 -2 -8 -6 -7 -11 1
-4 7 -2 12 3 12 6 0 11 7 11 15 0 8 -7 15 -16 15 -9 0 -12 -5 -8 -12z"/>
</g>
</g>
</svg>