<?xml version="1.0" standalone="no"?>
<!DOCTYPE svg PUBLIC "-//W3C//DTD SVG 20010904//EN"
 "http://www.w3.org/TR/2001/REC-SVG-20010904/DTD/svg10.dtd">
<svg version="1.0" xmlns="http://www.w3.org/2000/svg"
 width="96.000000pt" height="68.000000pt" viewBox="0 0 96.000000 68.000000"
 preserveAspectRatio="xMidYMid meet">
<metadata>
Created by potrace 1.16, written by Peter Selinger 2001-2019
Combined from part_0.svg through part_5.svg with named groups
</metadata>
<g transform="translate(0.000000,68.000000) scale(0.100000,-0.100000)" fill="#000000" stroke="none">
<g id="part-0" class="char-part">
  <path d="M516 561 c-7 -46 -19 -57 -68 -66 -35 -7 -38 -6 -38 17 0 26 -47 68
-75 68 -13 0 -12 -6 5 -40 11 -23 18 -45 15 -50 -3 -6 -24 -10 -45 -10 -45 0
-70 -8 -70 -23 0 -7 29 -8 88 -3 48 4 142 11 209 15 67 4 126 10 130 14 14 14
-21 27 -76 27 l-55 0 27 28 c31 32 34 47 11 56 -38 14 -51 7 -58 -33z"/>
  <path d="M507 418 c-8 -18 -21 -39 -30 -47 -20 -16 -22 -51 -3 -51 7 0 28 3
45 6 34 7 42 24 11 24 -27 0 -25 12 5 40 29 27 32 45 9 54 -23 9 -23 9 -37
-26z"/>
  <path d="M290 415 c0 -8 -18 -33 -40 -55 -54 -54 -52 -64 10 -56 28 4 50 5 50
2 0 -3 -21 -19 -46 -37 -41 -28 -44 -33 -31 -47 14 -13 21 -13 69 6 91 35 99
36 105 13 6 -25 21 -27 30 -5 3 8 -4 25 -17 40 -27 28 -42 31 -38 7 3 -17 -48
-37 -83 -31 -14 2 -3 16 45 57 35 29 70 57 77 62 12 7 11 11 -4 26 -18 17 -19
17 -30 -1 -28 -45 -54 -64 -94 -70 -52 -8 -50 7 8 47 32 23 38 32 28 43 -15
18 -39 18 -39 -1z"/>
  <path d="M610 395 c-12 -19 -26 -35 -31 -35 -5 0 -13 -8 -16 -17 -7 -18 -47
-59 -72 -73 -17 -9 -7 -40 13 -40 9 0 45 11 81 25 64 24 65 24 75 5 13 -25 40
-26 40 -2 0 22 -26 47 -60 57 -22 7 -23 6 -11 -9 8 -9 12 -18 10 -19 -14 -10
-90 -23 -94 -17 -3 5 24 34 60 66 36 32 65 61 65 64 0 3 -9 11 -19 17 -17 11
-22 8 -41 -22z"/>
  <path d="M430 181 c0 -15 61 -72 73 -68 25 8 17 35 -16 56 -36 22 -57 27 -57
12z"/>
  <path d="M686 155 c46 -40 72 -51 87 -36 16 16 -15 46 -62 59 -62 19 -67 14
-25 -23z"/>
  <path d="M300 168 c0 -20 49 -95 72 -110 13 -8 47 -23 77 -33 95 -31 291 -11
291 30 0 6 -25 22 -55 37 -59 28 -62 28 -43 -2 7 -10 9 -23 4 -27 -4 -4 -49
-8 -100 -8 -117 0 -166 20 -203 82 -24 42 -43 55 -43 31z"/>
  <path d="M192 116 c-27 -46 -29 -76 -3 -76 35 0 61 63 38 95 -13 16 -15 15
-35 -19z"/>
</g>
<g id="part-1" class="char-part">
  <path d="M520 575 c0 -15 -7 -39 -15 -55 -14 -27 -21 -30 -61 -30 -32 0 -44 4
-41 13 7 19 -11 45 -43 62 -35 18 -36 16 -10 -35 11 -22 20 -41 20 -43 0 -3
-30 -8 -66 -12 -46 -5 -63 -10 -56 -17 7 -7 39 -7 104 0 51 6 141 14 201 18
59 3 107 10 107 15 0 14 -41 21 -88 14 l-46 -7 27 35 c31 41 33 52 11 61 -31
12 -44 6 -44 -19z"/>
</g>
<g id="part-2" class="char-part">
  <path d="M280 399 c-7 -16 -28 -42 -47 -56 -22 -17 -30 -30 -24 -36 12 -12 98
0 107 15 5 7 -4 9 -25 6 -17 -2 -31 -2 -31 1 0 3 19 22 43 43 35 31 39 39 27
48 -25 16 -37 12 -50 -21z"/>
</g>
<g id="part-3" class="char-part">
  <path d="M611 402 c-13 -31 -106 -132 -122 -132 -14 0 -11 -26 6 -40 10 -8 19
-9 28 -3 6 6 38 20 69 31 57 21 58 21 68 2 13 -25 40 -26 40 -2 0 22 -26 47
-60 57 -22 7 -23 6 -11 -9 18 -22 14 -25 -45 -32 l-49 -6 63 60 c42 40 63 66
60 78 -5 31 -34 28 -47 -4z"/>
</g>
<g id="part-4" class="char-part">
  <path d="M445 156 c28 -37 53 -52 67 -38 21 21 -33 72 -77 72 -13 0 -11 -7 10
-34z"/>
  <path d="M650 187 c0 -12 103 -78 115 -73 28 10 15 37 -27 56 -37 17 -88 27
-88 17z"/>
  <path d="M315 131 c41 -81 97 -109 235 -117 144 -9 242 33 158 66 -18 8 -46
22 -61 33 -34 23 -45 18 -17 -8 44 -40 18 -55 -93 -55 -100 0 -168 34 -203
103 -8 15 -21 27 -29 27 -12 0 -10 -10 10 -49z"/>
  <path d="M191 114 c-23 -39 -27 -69 -9 -80 17 -11 48 34 48 72 0 47 -15 50
-39 8z"/>
</g>
</g>
</svg>