<?xml version="1.0" standalone="no"?>
<!DOCTYPE svg PUBLIC "-//W3C//DTD SVG 20010904//EN"
 "http://www.w3.org/TR/2001/REC-SVG-20010904/DTD/svg10.dtd">
<svg version="1.0" xmlns="http://www.w3.org/2000/svg"
 width="96.000000pt" height="68.000000pt" viewBox="0 0 96.000000 68.000000"
 preserveAspectRatio="xMidYMid meet">
<metadata>
Created by potrace 1.16, written by Peter Selinger 2001-2019
Combined from part_0.svg through part_5.svg with named groups
</metadata>
<g transform="translate(0.000000,68.000000) scale(0.100000,-0.100000)" fill="#000000" stroke="none">
<g id="part-0" class="char-part">
  <path d="M520 617 c0 -1 4 -17 9 -35 13 -45 5 -62 -33 -63 -43 -1 -83 -13 -70
-22 6 -3 33 -5 60 -4 43 1 49 -1 52 -20 3 -19 -3 -22 -57 -28 -74 -8 -71 -25
5 -25 46 0 54 -3 54 -19 0 -21 -31 -29 -122 -33 -27 -1 -48 -5 -48 -9 0 -15
57 -19 130 -9 41 5 128 10 193 10 73 0 117 4 117 10 0 21 -48 28 -124 18 -86
-11 -106 -7 -106 21 0 17 9 21 60 27 75 8 79 24 6 24 -44 0 -55 3 -59 19 -4
16 3 20 51 26 65 8 82 14 82 27 0 6 -27 8 -65 6 l-65 -3 0 36 c0 30 -4 38 -22
43 -24 6 -48 8 -48 3z"/>
  <path d="M230 514 c-25 -8 -56 -13 -70 -12 l-25 4 2 -157 c2 -188 8 -220 40
-188 5 5 30 9 54 7 34 -2 46 -8 54 -25 12 -28 17 -28 41 -2 17 19 19 39 20
196 0 156 -1 175 -17 184 -23 12 -44 10 -99 -7z m58 -70 c3 -35 0 -39 -20 -39
-13 -1 -35 -4 -50 -8 -27 -7 -28 -7 -28 37 0 44 0 45 38 49 55 5 57 4 60 -39z
m2 -99 c0 -21 -5 -35 -12 -35 -7 0 -30 -3 -50 -6 -38 -7 -38 -7 -38 29 0 35 1
36 43 40 23 2 45 4 50 5 4 1 7 -14 7 -33z m5 -101 c3 -20 5 -37 3 -39 -2 -1
-29 -6 -60 -9 -62 -8 -62 -8 -52 42 6 28 11 31 48 35 22 2 44 4 47 5 4 1 10
-14 14 -34z"/>
  <path d="M588 315 c-2 -3 -36 -7 -74 -9 -38 -3 -68 -8 -67 -13 12 -51 11 -82
-1 -144 -15 -69 -13 -119 4 -119 14 0 24 22 30 64 l5 40 60 3 c33 2 67 5 77 7
19 4 30 -27 22 -61 -5 -18 -11 -22 -30 -17 -31 8 -30 -3 2 -32 56 -52 72 -21
76 148 2 99 0 129 -10 133 -17 6 -87 7 -94 0z m52 -40 c0 -26 -15 -31 -105
-37 -35 -3 -40 0 -43 19 -4 27 7 30 131 41 12 2 17 -5 17 -23z m4 -81 c-4 -17
-18 -22 -80 -30 l-74 -9 0 27 c0 24 4 27 43 32 112 15 120 14 111 -20z"/>
</g>
<g id="part-1" class="char-part">
  <path d="M250 514 c-25 -7 -62 -13 -83 -13 -35 -1 -38 -3 -30 -23 4 -13 8 -74
8 -135 0 -101 2 -113 17 -113 11 0 18 8 18 19 0 19 34 31 91 31 22 0 29 -5 29
-20 0 -13 7 -20 20 -20 19 0 20 7 20 114 0 63 3 121 6 130 4 9 -4 19 -23 28
-23 12 -36 12 -73 2z m48 -71 c3 -43 3 -43 -30 -43 -18 0 -43 -3 -55 -6 -21
-6 -23 -3 -23 39 0 50 8 56 70 54 34 -2 35 -4 38 -44z m2 -102 c0 -38 -1 -39
-37 -40 -21 0 -47 -2 -58 -4 -16 -2 -21 5 -23 35 -3 40 3 44 81 47 37 1 37 1
37 -38z"/>
</g>
<g id="part-2" class="char-part">
  <path d="M137 218 c-11 -39 21 -86 38 -58 3 6 26 10 51 10 38 0 46 -4 56 -25
6 -14 17 -25 24 -25 18 0 44 52 44 90 0 25 -4 30 -25 30 -18 0 -25 -5 -25 -20
0 -15 -7 -20 -29 -20 -16 0 -42 -3 -59 -6 -26 -5 -31 -3 -34 17 -4 28 -34 34
-41 7z"/>
</g>
<g id="part-3" class="char-part">
  <path d="M528 570 l5 -50 -41 0 c-22 0 -48 -3 -57 -6 -28 -11 4 -24 58 -24 39
0 47 -3 47 -19 0 -16 -10 -20 -60 -26 -33 -4 -60 -11 -60 -16 0 -5 27 -9 60
-9 53 0 60 -2 60 -20 0 -13 7 -20 20 -20 15 0 20 7 20 24 0 22 5 25 55 31 89
12 83 31 -7 26 -32 -2 -38 0 -38 17 0 16 9 21 48 26 64 10 82 15 82 28 0 7
-24 9 -65 6 l-65 -4 0 37 c0 37 -12 49 -49 49 -16 0 -17 -7 -13 -50z"/>
</g>
<g id="part-4" class="char-part">
  <path d="M690 389 c-30 -4 -115 -11 -187 -15 -73 -4 -133 -10 -133 -15 0 -16
41 -19 121 -9 46 5 136 10 201 10 67 0 118 4 118 9 0 22 -50 30 -120 20z"/>
</g>
<g id="part-5" class="char-part">
  <path d="M647 313 c-2 -5 -1 -37 3 -73 5 -37 5 -70 -1 -76 -5 -6 -6 -14 -3
-17 4 -4 8 -26 9 -50 1 -42 0 -44 -27 -42 l-28 2 21 -23 c25 -27 45 -22 55 14
12 47 13 256 0 264 -14 10 -24 10 -29 1z m8 -281 c-3 -3 -11 0 -18 7 -9 10 -8
11 6 5 10 -3 15 -9 12 -12z"/>
  <path d="M548 303 c7 -3 16 -2 19 1 4 3 -2 6 -13 5 -11 0 -14 -3 -6 -6z"/>
  <path d="M598 303 c6 -2 18 -2 25 0 6 3 1 5 -13 5 -14 0 -19 -2 -12 -5z"/>
  <path d="M457 291 c16 -12 3 -153 -19 -193 -5 -12 -5 -26 3 -40 11 -21 12 -20
26 13 8 19 16 59 18 89 l3 55 71 6 c97 7 100 17 4 15 -60 -1 -77 2 -75 12 1 8
-2 11 -8 7 -7 -4 -6 2 1 14 7 11 22 22 34 24 11 2 1 4 -23 4 -24 0 -39 -3 -35
-6z"/>
  <path d="M595 160 c-3 -5 1 -10 9 -10 9 0 16 5 16 10 0 6 -4 10 -9 10 -6 0
-13 -4 -16 -10z"/>
  <path d="M530 150 c-12 -8 -9 -10 12 -7 15 1 30 6 34 10 11 11 -29 8 -46 -3z"/>
</g>
</g>
</svg>