<?xml version="1.0" standalone="no"?>
<!DOCTYPE svg PUBLIC "-//W3C//DTD SVG 20010904//EN"
 "http://www.w3.org/TR/2001/REC-SVG-20010904/DTD/svg10.dtd">
<svg version="1.0" xmlns="http://www.w3.org/2000/svg"
 width="96.000000pt" height="68.000000pt" viewBox="0 0 96.000000 68.000000"
 preserveAspectRatio="xMidYMid meet">
<metadata>
Created by potrace 1.16, written by Peter Selinger 2001-2019
Combined from part_0.svg through part_5.svg with named groups
</metadata>
<g transform="translate(0.000000,68.000000) scale(0.100000,-0.100000)" fill="#000000" stroke="none">
<g id="part-0" class="char-part">
  <path d="M517 587 c5 -32 3 -34 -27 -41 -18 -3 -43 -6 -56 -6 -13 0 -24 -5
-24 -11 0 -7 21 -10 58 -7 51 3 57 1 57 -17 0 -16 -8 -21 -37 -23 -21 -2 -38
-8 -38 -14 0 -7 15 -8 43 -4 23 4 70 9 105 13 75 7 83 23 11 23 -43 0 -50 3
-47 18 2 11 14 18 33 20 65 5 95 13 89 23 -3 6 -27 8 -59 4 -53 -7 -53 -7 -57
21 -2 23 -9 30 -30 32 -25 3 -27 1 -21 -31z"/>
  <path d="M265 479 c-22 -4 -71 -8 -108 -8 -38 -1 -67 -4 -65 -8 23 -45 37 -86
43 -128 10 -75 12 -77 80 -64 33 6 76 8 97 5 l37 -6 11 57 c6 32 16 78 22 101
9 36 8 46 -3 53 -17 10 -59 10 -114 -2z m55 -49 c0 -25 -4 -30 -25 -30 -20 0
-25 5 -25 24 0 13 6 27 13 29 28 12 37 6 37 -23z m-102 -17 c-5 -49 -57 -40
-58 10 0 12 8 17 31 17 27 0 30 -3 27 -27z m102 -73 c0 -25 -4 -30 -25 -30
-20 0 -25 5 -25 24 0 13 6 27 13 29 28 12 37 6 37 -23z m-96 -2 c3 -13 1 -27
-4 -32 -14 -14 -37 0 -42 28 -4 22 -2 26 17 26 15 0 25 -8 29 -22z"/>
  <path d="M550 439 c-74 -10 -142 -18 -150 -19 -9 0 -11 -3 -4 -10 10 -10 27
-9 262 16 l63 7 -10 -25 -10 -26 50 16 c53 17 57 29 18 49 -30 16 -54 15 -219
-8z"/>
  <path d="M518 381 c-59 -9 -74 -21 -24 -21 33 0 37 -3 34 -22 -3 -20 -10 -23
-50 -26 -27 -2 -48 -8 -48 -14 0 -7 14 -8 38 -4 20 3 74 9 120 12 45 4 82 11
82 16 0 6 -22 8 -50 6 -27 -1 -50 0 -50 5 -1 33 2 37 24 37 14 0 28 5 31 10 7
11 -32 11 -107 1z"/>
  <path d="M680 280 c-36 -5 -112 -13 -171 -19 -242 -25 -237 -25 -204 -37 9 -4
61 -1 114 5 53 7 125 14 161 14 59 2 65 0 68 -19 2 -17 -4 -23 -29 -28 -17 -3
-44 -6 -60 -6 -16 0 -29 -5 -29 -11 0 -8 18 -10 60 -6 71 8 77 2 63 -71 -8
-43 -11 -47 -36 -45 -34 2 -34 -2 -1 -32 52 -48 67 -32 74 80 l5 80 50 5 c53
5 41 20 -16 20 -22 0 -29 5 -29 20 0 18 7 20 70 20 72 0 91 13 44 30 -28 11
-39 11 -134 0z"/>
  <path d="M435 200 c-11 -5 -37 -9 -58 -9 l-38 -1 16 -30 c8 -16 15 -37 15 -46
0 -12 6 -15 23 -10 12 3 36 6 52 6 26 0 32 5 42 37 17 54 -3 74 -52 53z m13
-42 c-4 -29 -55 -39 -65 -13 -7 20 12 35 45 35 19 0 23 -5 20 -22z"/>
  <path d="M540 142 c0 -4 11 -19 26 -32 21 -21 26 -22 34 -10 6 10 5 19 -3 26
-16 16 -57 27 -57 16z"/>
</g>
<g id="part-1" class="char-part">
  <path d="M287 480 c-16 -5 -65 -12 -108 -16 -62 -5 -77 -9 -69 -19 6 -7 17
-47 25 -90 17 -85 22 -98 36 -89 22 13 142 24 154 14 18 -15 22 -5 43 98 l18
91 -23 10 c-27 13 -37 13 -76 1z m41 -52 c-3 -29 -7 -33 -35 -35 -31 -3 -32
-1 -31 32 1 33 3 35 35 35 33 0 34 -2 31 -32z m-108 1 c17 -31 5 -51 -27 -47
-28 3 -40 25 -29 54 8 21 44 17 56 -7z m100 -89 c0 -27 -3 -30 -30 -30 -27 0
-30 3 -30 30 0 27 3 30 30 30 27 0 30 -3 30 -30z m-90 -10 c0 -25 -4 -30 -24
-30 -23 0 -36 16 -36 46 0 9 11 14 30 14 27 0 30 -3 30 -30z"/>
</g>
<g id="part-2" class="char-part">
  <path d="M517 587 c5 -32 3 -34 -27 -41 -18 -3 -46 -6 -62 -6 -19 0 -27 -4
-22 -11 4 -7 27 -10 61 -7 42 4 56 1 60 -10 8 -19 -15 -32 -56 -32 -27 0 -32
-3 -23 -12 8 -8 28 -8 81 0 38 7 84 12 100 12 17 0 31 5 31 11 0 6 -18 9 -47
8 -47 -3 -49 -1 -44 31 0 6 25 10 54 10 60 0 93 14 58 25 -11 3 -41 3 -65 0
-43 -7 -45 -6 -48 21 -2 23 -9 30 -30 32 -25 3 -27 1 -21 -31z"/>
</g>
<g id="part-3" class="char-part">
  <path d="M555 440 c-72 -10 -139 -19 -150 -19 -13 -1 -16 -4 -8 -12 7 -7 49
-6 146 5 177 21 170 21 163 -7 l-5 -23 49 15 c57 18 63 34 19 50 -39 14 -52
13 -214 -9z"/>
</g>
<g id="part-4" class="char-part">
  <path d="M552 128 c19 -28 48 -36 48 -13 0 8 -12 20 -26 25 -36 14 -38 13 -22
-12z"/>
</g>
</g>
</svg>