<?xml version="1.0" standalone="no"?>
<!DOCTYPE svg PUBLIC "-//W3C//DTD SVG 20010904//EN"
 "http://www.w3.org/TR/2001/REC-SVG-20010904/DTD/svg10.dtd">
<svg version="1.0" xmlns="http://www.w3.org/2000/svg"
 width="96.000000pt" height="68.000000pt" viewBox="0 0 96.000000 68.000000"
 preserveAspectRatio="xMidYMid meet">
<metadata>
Created by potrace 1.16, written by Peter Selinger 2001-2019
Combined from part_0.svg through part_5.svg with named groups
</metadata>
<g transform="translate(0.000000,68.000000) scale(0.100000,-0.100000)" fill="#000000" stroke="none">
<g id="part-0" class="char-part">
  <path d="M576 606 c-7 -43 -8 -44 -52 -51 -38 -5 -43 -9 -33 -21 6 -8 22 -14
36 -14 21 0 22 -2 13 -21 -22 -39 -4 -42 33 -4 35 36 41 38 111 43 48 3 77 9
80 17 6 17 -52 28 -99 19 -34 -6 -49 6 -25 21 18 11 11 32 -15 43 -39 18 -42
16 -49 -32z"/>
  <path d="M295 610 c-3 -6 3 -24 15 -40 l21 -30 -75 0 c-60 0 -76 -3 -76 -15 0
-8 13 -21 30 -30 27 -14 35 -14 81 1 42 14 52 15 59 3 5 -7 6 -17 4 -21 -3 -4
0 -8 6 -8 6 0 8 -5 4 -11 -4 -7 1 -7 16 1 16 9 20 18 16 35 -5 19 0 25 27 36
l32 12 -40 6 c-29 4 -41 11 -43 26 -2 11 -7 23 -10 26 -13 13 -61 19 -67 9z"/>
  <path d="M560 449 c-19 -4 -86 -11 -147 -15 -62 -4 -113 -11 -113 -16 0 -4 4
-8 9 -8 6 0 18 -25 27 -55 l17 -54 44 6 c42 6 43 5 43 -24 0 -16 -9 -39 -20
-51 -17 -18 -32 -22 -85 -22 l-64 0 20 -34 c11 -19 23 -53 27 -77 7 -35 12
-44 28 -42 10 1 85 5 166 9 l148 7 -6 24 c-6 23 17 86 36 98 19 11 10 26 -22
39 -28 11 -46 11 -113 0 -123 -20 -125 -20 -86 20 18 19 30 39 27 45 -7 11 29
24 55 21 8 -2 28 -2 46 -1 25 1 31 5 27 16 -4 8 6 31 20 49 32 43 32 52 2 60
-13 3 -30 8 -38 10 -7 2 -29 0 -48 -5z m28 -46 c2 -11 -5 -29 -15 -40 -15 -17
-34 -22 -109 -28 l-90 -6 -12 37 c-6 21 -10 39 -9 40 3 3 211 21 222 19 6 -1
11 -11 13 -22z m20 -191 c10 -7 10 -19 1 -59 l-12 -50 -60 -7 c-33 -3 -88 -6
-122 -6 l-62 0 -13 45 c-7 25 -10 48 -7 51 3 3 32 8 64 11 56 5 183 19 193 22
3 0 11 -3 18 -7z"/>
</g>
<g id="part-1" class="char-part">
  <path d="M586 643 c-3 -4 -6 -17 -6 -30 0 -43 -18 -63 -56 -63 -21 0 -33 -4
-29 -10 3 -5 18 -10 32 -10 22 0 24 -3 19 -25 -9 -34 8 -31 34 5 20 28 25 30
88 30 72 0 111 13 79 26 -10 3 -43 4 -73 2 -47 -4 -54 -3 -48 11 13 31 9 53
-13 61 -11 5 -24 6 -27 3z"/>
  <path d="M296 598 c4 -7 14 -21 22 -31 22 -25 9 -31 -71 -37 l-72 -5 29 -19
c27 -19 31 -19 86 -4 l58 15 11 -23 c15 -33 31 -30 31 6 0 23 5 30 19 30 11 0
23 5 26 10 4 6 -8 10 -29 10 -31 0 -36 3 -36 24 0 25 -16 36 -56 36 -17 0 -23
-4 -18 -12z"/>
</g>
<g id="part-2" class="char-part">
  <path d="M505 444 c-44 -7 -111 -13 -150 -14 -51 0 -65 -3 -53 -10 9 -6 24
-34 34 -63 22 -67 24 -71 37 -58 6 6 36 11 67 11 30 0 84 3 120 6 60 6 65 8
66 31 1 14 11 35 23 47 27 29 27 33 -9 51 -33 17 -26 17 -135 -1z m78 -49 c-3
-44 -21 -52 -120 -59 l-92 -7 -10 38 c-6 20 -9 38 -8 39 4 3 212 21 222 19 6
-1 9 -15 8 -30z"/>
</g>
<g id="part-3" class="char-part">
  <path d="M440 287 c0 -12 -7 -33 -16 -45 -27 -39 17 -27 49 13 31 39 28 55 -9
55 -18 0 -24 -5 -24 -23z"/>
</g>
<g id="part-4" class="char-part">
  <path d="M555 235 c-83 -15 -172 -24 -237 -25 l-48 0 20 -32 c11 -18 22 -52
26 -75 3 -24 9 -45 13 -47 3 -2 35 0 71 5 36 4 109 9 163 10 89 1 113 8 88 24
-11 6 13 71 35 96 8 8 14 19 14 23 0 6 -65 38 -72 35 -2 -1 -34 -7 -73 -14z
m65 -37 c0 -5 -5 -29 -11 -53 l-11 -43 -76 -6 c-175 -13 -166 -15 -179 24 -16
46 -16 70 0 71 6 0 64 6 127 13 117 12 150 11 150 -6z"/>
</g>
</g>
</svg>