<?xml version="1.0" standalone="no"?>
<!DOCTYPE svg PUBLIC "-//W3C//DTD SVG 20010904//EN"
 "http://www.w3.org/TR/2001/REC-SVG-20010904/DTD/svg10.dtd">
<svg version="1.0" xmlns="http://www.w3.org/2000/svg"
 width="96.000000pt" height="68.000000pt" viewBox="0 0 96.000000 68.000000"
 preserveAspectRatio="xMidYMid meet">
<metadata>
Created by potrace 1.16, written by Peter Selinger 2001-2019
Combined from part_0.svg through part_5.svg with named groups
</metadata>
<g transform="translate(0.000000,68.000000) scale(0.100000,-0.100000)" fill="#000000" stroke="none">
<g id="part-0" class="char-part">
  <path d="M528 537 c-20 -18 -58 -44 -85 -57 -47 -24 -47 -25 -20 -30 16 -3 36
-18 47 -35 20 -30 26 -57 13 -53 -18 5 -133 -14 -133 -21 0 -20 54 -20 136 -1
48 11 92 19 97 17 13 -4 -62 -78 -137 -133 -38 -29 -68 -44 -88 -44 -19 0 -28
-4 -25 -12 3 -9 24 -12 73 -10 62 3 79 -1 166 -37 112 -47 137 -49 204 -19 46
20 48 22 24 29 -14 4 -57 7 -96 8 -38 1 -104 10 -145 20 -41 11 -85 21 -99 23
-25 4 -25 4 8 24 18 10 60 39 94 64 33 25 73 55 89 67 37 26 38 35 10 49 -21
11 -62 7 -124 -12 -14 -5 -18 -1 -15 14 3 22 -28 62 -49 62 -7 0 -13 3 -13 8
0 8 128 62 147 62 19 0 26 20 13 35 -19 23 -52 17 -92 -18z"/>
  <path d="M205 510 c-11 -5 -40 -9 -64 -9 -40 -1 -43 -3 -36 -23 13 -39 16
-130 7 -210 -7 -64 -2 -111 12 -125 2 -2 16 3 32 12 37 19 84 20 84 1 0 -7 6
-19 13 -25 11 -8 18 -6 31 8 15 16 19 48 24 187 7 158 6 167 -13 180 -22 16
-59 17 -90 4z m45 -70 c0 -36 -3 -40 -24 -40 -13 0 -31 -3 -40 -6 -13 -5 -16
1 -16 33 0 48 4 53 47 53 32 0 33 -1 33 -40z m0 -105 c0 -32 -2 -35 -29 -35
-16 0 -36 -3 -45 -6 -13 -5 -16 1 -16 29 0 31 3 36 28 40 61 9 62 9 62 -28z
m5 -96 c9 -39 2 -45 -57 -53 -45 -5 -48 -4 -48 17 0 55 10 67 55 67 40 0 44
-2 50 -31z"/>
</g>
<g id="part-1" class="char-part">
  <path d="M220 510 c-14 -4 -43 -8 -66 -9 -47 -1 -58 -9 -43 -27 7 -8 10 -54 7
-124 -2 -89 0 -110 11 -110 8 0 19 6 25 14 6 8 32 16 59 19 41 4 47 2 47 -14
0 -12 7 -19 20 -19 19 0 20 7 20 99 0 54 3 112 6 128 5 24 2 31 -21 41 -29 13
-30 13 -65 2z m28 -29 c8 -5 12 -23 10 -47 -3 -33 -6 -39 -24 -36 -11 1 -33
-2 -47 -7 -27 -10 -27 -10 -27 39 0 42 3 49 23 53 38 7 52 7 65 -2z m12 -141
c0 -32 -4 -40 -19 -40 -10 0 -33 -3 -50 -6 -31 -6 -31 -6 -31 34 0 41 0 41 43
45 23 2 45 4 50 5 4 1 7 -16 7 -38z"/>
</g>
<g id="part-2" class="char-part">
  <path d="M107 213 c-8 -45 19 -93 37 -64 3 5 22 12 43 16 31 6 39 3 54 -17 27
-35 53 -14 57 46 3 40 1 46 -17 46 -13 0 -21 -8 -23 -22 -2 -19 -11 -24 -48
-29 -54 -8 -60 -5 -60 27 0 35 -36 33 -43 -3z"/>
</g>
<g id="part-3" class="char-part">
  <path d="M515 529 c-27 -21 -68 -48 -90 -58 -77 -38 0 -23 105 20 96 40 119
60 84 73 -29 11 -49 4 -99 -35z"/>
</g>
<g id="part-4" class="char-part">
  <path d="M450 452 c0 -15 44 -75 58 -80 10 -3 13 5 10 29 -2 26 -9 35 -35 46
-18 7 -33 9 -33 5z"/>
</g>
<g id="part-5" class="char-part">
  <path d="M343 168 c2 -7 13 -11 23 -9 60 11 124 2 212 -33 109 -43 148 -47
192 -19 l32 20 -76 8 c-41 3 -90 4 -108 0 -26 -5 -30 -4 -18 5 12 9 9 10 -13
5 -21 -4 -27 -3 -21 6 5 9 1 10 -14 7 -12 -4 -22 -2 -22 2 0 5 -34 12 -76 15
-60 6 -78 5 -85 -6 -6 -10 -9 -11 -9 -1 0 6 -5 12 -11 12 -6 0 -9 -6 -6 -12z
m397 -62 c0 -2 -7 -7 -16 -10 -8 -3 -12 -2 -9 4 6 10 25 14 25 6z"/>
</g>
</g>
</svg>