<?xml version="1.0" standalone="no"?>
<!DOCTYPE svg PUBLIC "-//W3C//DTD SVG 20010904//EN"
 "http://www.w3.org/TR/2001/REC-SVG-20010904/DTD/svg10.dtd">
<svg version="1.0" xmlns="http://www.w3.org/2000/svg"
 width="96.000000pt" height="68.000000pt" viewBox="0 0 96.000000 68.000000"
 preserveAspectRatio="xMidYMid meet">
<metadata>
Created by potrace 1.16, written by Peter Selinger 2001-2019
Combined from part_0.svg through part_5.svg with named groups
</metadata>
<g transform="translate(0.000000,68.000000) scale(0.100000,-0.100000)" fill="#000000" stroke="none">
<g id="part-0" class="char-part">
  <path d="M546 573 c4 -10 10 -52 12 -95 4 -86 8 -81 -82 -93 -61 -8 -43 -25
27 -25 28 0 47 -4 45 -10 -6 -20 -73 -96 -112 -129 -33 -27 -36 -32 -16 -26
32 10 84 50 116 89 l26 31 -7 -77 c-3 -43 -10 -90 -16 -106 -13 -39 11 -105
36 -96 21 8 25 31 28 173 l2 124 43 -57 c23 -31 42 -61 42 -66 0 -6 4 -10 9
-10 5 0 12 -8 15 -18 10 -31 48 -45 97 -35 l44 9 -60 33 c-61 34 -188 157
-182 176 2 5 30 13 63 17 73 10 87 15 78 29 -4 8 -30 9 -82 4 -63 -6 -74 -5
-69 7 3 8 8 44 12 80 7 60 5 67 -13 77 -12 6 -30 11 -42 11 -18 0 -20 -4 -14
-17z"/>
  <path d="M405 553 c-15 -72 -27 -103 -60 -148 -19 -28 -35 -54 -35 -59 0 -5
-8 -16 -17 -25 -10 -9 -34 -33 -52 -54 -57 -61 -14 -42 50 22 l59 59 0 -81 c0
-45 -5 -100 -10 -121 -7 -30 -5 -44 7 -63 27 -42 38 -11 43 129 4 99 2 135 -8
150 -12 16 -7 29 39 104 51 82 52 87 34 100 -29 21 -44 17 -50 -13z"/>
  <path d="M215 475 c-16 -8 -54 -14 -82 -15 -47 0 -71 -12 -43 -22 6 -2 18 -35
27 -73 17 -75 31 -94 50 -69 6 8 33 19 60 22 41 6 48 10 45 28 -1 11 6 42 17
67 l20 47 -22 15 c-25 18 -32 18 -72 0z m18 -67 c-6 -50 -9 -53 -44 -62 -25
-5 -27 -3 -33 36 -4 23 -3 45 1 49 7 6 35 14 70 18 7 1 9 -13 6 -41z"/>
</g>
<g id="part-1" class="char-part">
  <path d="M195 464 c-25 -10 -55 -13 -79 -9 -38 6 -39 5 -24 -12 9 -10 23 -46
31 -81 17 -73 23 -81 40 -60 6 9 33 19 60 23 26 3 45 10 42 15 -3 5 4 34 16
65 18 47 19 59 8 66 -20 12 -48 10 -94 -7z m41 -61 c-7 -55 -4 -51 -44 -59
-33 -7 -38 1 -45 65 -2 26 20 38 72 40 23 1 23 -1 17 -46z"/>
</g>
<g id="part-2" class="char-part">
  <path d="M405 552 c-13 -79 -44 -133 -148 -261 -52 -63 -56 -71 -31 -58 16 8
51 38 77 66 l47 50 0 -77 c0 -42 -5 -95 -10 -117 -11 -44 3 -95 25 -95 19 0
24 31 26 167 2 85 -1 126 -10 137 -10 12 -3 29 39 98 54 86 56 103 12 119 -19
7 -22 4 -27 -29z"/>
</g>
<g id="part-3" class="char-part">
  <path d="M546 573 c4 -10 10 -51 12 -92 4 -81 -1 -90 -53 -91 -16 0 -41 -3
-53 -7 -36 -9 -6 -23 51 -23 46 0 47 -1 36 -22 -7 -13 -39 -51 -72 -85 -33
-35 -55 -63 -49 -63 14 0 106 74 127 102 16 22 17 20 10 -52 -3 -41 -11 -92
-16 -112 -14 -56 23 -123 48 -85 4 6 10 75 13 152 l5 139 68 -92 c37 -51 74
-95 83 -99 8 -3 34 -2 56 3 l41 9 -74 47 c-84 53 -180 155 -159 168 7 4 39 11
71 14 32 4 61 11 64 16 9 15 -35 22 -91 15 l-54 -6 0 38 c0 21 4 55 9 76 8 32
6 39 -12 52 -12 8 -32 15 -45 15 -19 0 -23 -3 -16 -17z"/>
</g>
</g>
</svg>