<?xml version="1.0" standalone="no"?>
<!DOCTYPE svg PUBLIC "-//W3C//DTD SVG 20010904//EN"
 "http://www.w3.org/TR/2001/REC-SVG-20010904/DTD/svg10.dtd">
<svg version="1.0" xmlns="http://www.w3.org/2000/svg"
 width="96.000000pt" height="68.000000pt" viewBox="0 0 96.000000 68.000000"
 preserveAspectRatio="xMidYMid meet">
<metadata>
Created by potrace 1.16, written by Peter Selinger 2001-2019
Combined from part_0.svg through part_5.svg with named groups
</metadata>
<g transform="translate(0.000000,68.000000) scale(0.100000,-0.100000)" fill="#000000" stroke="none">
<g id="part-0" class="char-part">
  <path d="M410 593 c0 -4 12 -19 26 -34 l25 -26 -48 -6 c-26 -3 -85 -9 -130
-13 -46 -4 -83 -10 -83 -14 0 -4 7 -14 16 -21 13 -11 15 -27 11 -84 -7 -99
-29 -158 -91 -253 -62 -92 -54 -108 19 -36 71 72 101 143 133 324 9 54 9 54
247 70 93 6 172 13 175 16 3 3 -4 12 -15 21 -16 12 -37 14 -97 9 -72 -6 -78
-5 -78 12 0 10 -11 24 -25 30 -28 13 -85 16 -85 5z"/>
  <path d="M605 440 c-10 -11 -37 -29 -61 -41 -51 -24 -56 -33 -14 -24 25 6 30
3 36 -19 8 -34 -2 -46 -36 -46 -16 0 -32 -4 -35 -10 -4 -6 10 -10 34 -10 l41
0 0 -40 c0 -22 -3 -39 -7 -39 -5 1 -30 1 -57 0 -35 -1 -47 -4 -39 -12 7 -7 57
-8 153 -3 127 6 141 9 124 21 -14 11 -36 13 -77 10 l-58 -5 3 36 c3 31 7 37
28 40 50 5 71 13 64 23 -3 6 -25 9 -47 7 l-42 -3 -1 38 c-1 34 2 39 35 53 34
15 35 16 17 30 -26 19 -40 18 -61 -6z"/>
  <path d="M348 414 c-36 -19 -35 -27 2 -19 36 8 37 2 5 -54 -26 -45 -26 -56 3
-56 12 0 16 -8 15 -28 -3 -42 -20 -57 -67 -58 l-41 -1 35 -12 35 -13 -47 -47
c-27 -25 -48 -48 -48 -51 0 -10 55 24 94 58 31 27 44 33 60 27 12 -5 73 -31
136 -59 73 -32 129 -51 154 -51 41 0 168 39 161 50 -2 4 -47 8 -99 9 -53 1
-122 9 -153 17 -99 25 -193 55 -198 64 -3 4 7 28 21 54 29 52 24 71 -17 62
-38 -7 -37 3 6 54 39 47 42 55 19 64 -24 9 -47 7 -76 -10z"/>
</g>
<g id="part-1" class="char-part">
  <path d="M421 583 c8 -10 22 -25 32 -35 17 -16 17 -16 0 -21 -10 -3 -58 -8
-108 -12 -49 -3 -103 -8 -118 -11 -26 -5 -27 -7 -10 -19 15 -11 18 -25 16 -78
-4 -93 -35 -182 -93 -266 -28 -41 -49 -75 -47 -77 2 -3 25 14 50 36 63 55 103
141 129 273 18 92 24 108 42 112 34 8 256 25 323 25 34 0 64 4 68 9 7 12 -59
34 -82 27 -10 -3 -38 -6 -63 -8 -38 -2 -45 1 -42 15 3 19 -50 47 -89 47 -19 0
-20 -2 -8 -17z"/>
</g>
<g id="part-2" class="char-part">
  <path d="M337 409 c-45 -24 -42 -38 3 -19 17 7 33 10 36 7 3 -3 -7 -28 -22
-56 -29 -51 -25 -86 5 -41 9 14 31 42 50 62 20 23 31 44 27 53 -8 21 -53 18
-99 -6z"/>
</g>
<g id="part-3" class="char-part">
  <path d="M384 252 c-6 -4 -16 -17 -23 -29 -9 -19 -21 -23 -59 -24 l-47 -1 40
-11 39 -12 -54 -53 c-29 -28 -50 -52 -46 -52 16 0 69 33 104 64 l37 33 135
-58 c152 -66 178 -70 278 -37 63 21 65 23 37 29 -16 4 -62 7 -101 8 -66 1
-166 22 -272 57 -61 21 -68 28 -48 55 9 13 16 27 16 31 0 10 -21 10 -36 0z"/>
</g>
<g id="part-4" class="char-part">
  <path d="M575 384 c-6 -2 -9 -19 -7 -38 4 -32 2 -33 -40 -42 l-43 -8 43 -4
c42 -3 42 -3 42 -43 0 -21 -3 -38 -7 -38 -5 1 -30 1 -57 0 -35 -1 -47 -4 -39
-12 7 -7 57 -8 152 -3 103 5 139 10 131 18 -6 6 -39 10 -76 9 l-64 -2 0 39 c0
39 1 40 38 40 42 0 71 13 53 25 -7 3 -30 4 -52 0 l-41 -7 4 33 c3 33 -10 45
-37 33z"/>
</g>
</g>
</svg>