<?xml version="1.0" standalone="no"?>
<!DOCTYPE svg PUBLIC "-//W3C//DTD SVG 20010904//EN"
 "http://www.w3.org/TR/2001/REC-SVG-20010904/DTD/svg10.dtd">
<svg version="1.0" xmlns="http://www.w3.org/2000/svg"
 width="96.000000pt" height="68.000000pt" viewBox="0 0 96.000000 68.000000"
 preserveAspectRatio="xMidYMid meet">
<metadata>
Created by potrace 1.16, written by Peter Selinger 2001-2019
Combined from part_0.svg through part_5.svg with named groups
</metadata>
<g transform="translate(0.000000,68.000000) scale(0.100000,-0.100000)" fill="#000000" stroke="none">
<g id="part-0" class="char-part">
  <path d="M616 574 c-14 -25 -22 -44 -18 -42 91 44 104 59 67 76 -22 10 -26 7
-49 -34z"/>
  <path d="M470 550 c22 -31 50 -40 50 -16 0 21 -28 46 -51 46 -20 0 -20 0 1
-30z"/>
  <path d="M222 529 c34 -61 78 -77 78 -28 0 28 -44 69 -75 69 l-26 0 23 -41z"/>
  <path d="M639 520 c-14 -4 -65 -13 -113 -20 -95 -15 -114 -30 -36 -30 42 0 50
-3 50 -18 0 -14 -12 -21 -47 -29 l-48 -10 46 -2 c87 -2 66 -50 -23 -52 -24 -1
-54 -5 -68 -9 -42 -14 59 -11 225 5 83 8 151 15 153 15 1 0 2 5 2 11 0 8 -28
10 -100 4 -88 -6 -100 -5 -100 10 0 18 7 21 73 30 28 4 45 10 41 16 -4 7 -27
8 -60 4 -49 -5 -54 -4 -54 14 0 20 5 22 93 37 20 3 37 10 37 15 0 5 -4 9 -9 9
-5 0 -15 2 -23 4 -7 2 -25 1 -39 -4z"/>
  <path d="M200 450 c-63 -10 -117 -18 -120 -19 -3 -1 4 -8 14 -16 26 -20 48
-19 183 6 79 15 113 25 113 35 0 18 -41 17 -190 -6z"/>
  <path d="M238 366 c-70 -17 -72 -30 -2 -23 70 7 96 15 88 28 -6 11 -25 10 -86
-5z"/>
  <path d="M670 344 c0 -12 45 -43 63 -44 29 0 19 25 -16 38 -37 13 -47 15 -47
6z"/>
  <path d="M570 337 c0 -3 7 -17 15 -33 17 -34 11 -43 -38 -51 -29 -4 -37 -2
-37 10 0 8 -6 18 -12 20 -7 3 -3 6 9 6 26 1 40 20 23 31 -13 8 -41 2 -50 -10
-3 -4 -18 -15 -35 -24 l-30 -17 28 6 c22 4 27 2 27 -14 0 -16 -9 -21 -45 -27
-55 -8 -48 -27 9 -22 36 3 41 0 44 -19 3 -20 -4 -25 -57 -39 -49 -14 -59 -20
-50 -31 15 -17 27 -16 63 2 15 8 30 15 32 15 2 0 4 -20 4 -45 0 -43 -1 -44
-25 -35 -31 12 -32 0 -2 -28 28 -26 31 -27 51 -6 11 11 16 34 16 79 0 60 1 63
30 75 17 7 30 16 30 21 0 5 -13 3 -30 -6 -29 -15 -30 -15 -30 8 0 21 7 26 50
34 l50 10 30 -53 c16 -30 30 -56 30 -59 0 -3 -19 -18 -42 -35 -48 -35 -33 -40
24 -8 l39 22 27 -30 c32 -37 111 -79 123 -67 5 5 4 36 -4 74 l-14 64 -8 -38
c-4 -20 -12 -37 -18 -37 -15 0 -77 43 -77 54 0 5 12 25 26 43 27 36 25 46 -13
58 -19 5 -23 2 -23 -14 0 -25 -10 -51 -20 -51 -4 0 -17 18 -27 39 l-20 40 21
5 c12 3 33 6 49 6 15 0 27 5 27 11 0 7 -19 10 -52 7 -52 -3 -53 -2 -58 27 -4
24 -11 31 -33 33 -15 2 -27 1 -27 -1z"/>
  <path d="M230 295 c-46 -9 -51 -12 -30 -17 14 -4 45 -3 70 2 25 5 49 9 53 10
5 0 5 5 2 10 -7 12 -22 11 -95 -5z"/>
  <path d="M255 224 c-27 -8 -59 -14 -70 -13 -35 2 -38 -1 -23 -18 8 -10 18 -29
22 -43 10 -41 18 -46 79 -42 49 3 57 7 57 24 0 11 7 35 16 54 9 19 15 36 13
38 -14 12 -51 12 -94 0z m35 -48 c0 -35 -13 -46 -51 -46 -12 0 -23 10 -29 26
-15 37 -13 42 18 47 61 9 62 9 62 -27z"/>
</g>
<g id="part-1" class="char-part">
  <path d="M210 563 c0 -4 11 -25 25 -46 26 -37 50 -48 58 -24 6 18 -21 67 -37
67 -8 0 -21 3 -30 6 -9 3 -16 2 -16 -3z"/>
  <path d="M227 449 c-71 -9 -131 -20 -134 -23 -3 -3 6 -10 21 -16 19 -7 51 -4
124 10 53 11 109 20 125 20 30 0 37 15 10 22 -10 2 -76 -4 -146 -13z"/>
</g>
<g id="part-2" class="char-part">
  <path d="M250 224 c-26 -9 -59 -12 -80 -8 -34 6 -34 5 -17 -13 9 -11 24 -41
33 -66 16 -46 27 -57 39 -37 3 6 29 10 56 10 46 0 50 2 44 20 -4 12 0 31 9 45
20 31 20 51 0 59 -21 8 -31 7 -84 -10z m38 -48 c6 -54 -59 -66 -77 -15 -6 18
-11 33 -11 35 0 4 52 11 70 10 9 -1 16 -13 18 -30z"/>
</g>
<g id="part-3" class="char-part">
  <path d="M617 578 c-14 -24 -24 -45 -22 -46 6 -6 95 49 95 59 0 7 -32 29 -43
29 -3 0 -16 -19 -30 -42z"/>
  <path d="M472 548 c29 -37 43 -44 51 -25 9 23 -21 57 -50 57 l-26 0 25 -32z"/>
  <path d="M610 514 c-36 -6 -91 -15 -123 -19 -31 -3 -55 -11 -52 -16 9 -14 100
-11 188 6 43 8 81 15 83 15 2 0 4 4 4 9 0 16 -33 17 -100 5z"/>
</g>
<g id="part-4" class="char-part">
  <path d="M540 451 c0 -14 -12 -20 -52 -28 l-53 -10 52 -2 c28 0 54 -5 58 -10
10 -18 -27 -41 -68 -42 -23 -1 -55 -5 -72 -9 -66 -17 97 -9 320 15 22 2 46 4
53 4 7 1 10 6 6 12 -5 8 -36 9 -105 4 -87 -6 -99 -5 -99 10 0 18 7 21 74 30
36 5 45 9 35 16 -8 5 -35 7 -61 3 -40 -5 -48 -3 -48 10 0 9 -8 16 -20 16 -13
0 -20 -7 -20 -19z"/>
</g>
<g id="part-5" class="char-part">
  <path d="M584 328 c3 -7 9 -21 12 -30 4 -10 11 -18 16 -18 5 0 7 -4 4 -9 -3
-4 10 -38 28 -75 l34 -66 -32 -26 -31 -26 39 23 39 23 33 -38 c20 -24 37 -35
45 -30 7 4 10 3 6 -3 -4 -6 6 -16 23 -22 22 -7 30 -7 30 2 0 7 4 6 11 -3 9
-13 10 -13 6 0 -2 8 -10 14 -17 12 -9 -2 -10 5 -6 23 4 14 2 25 -4 25 -5 0
-10 -4 -10 -9 0 -5 -11 -8 -24 -7 -13 0 -23 2 -21 4 3 4 -85 90 -96 94 -11 4
-21 43 -21 78 -1 14 -3 19 -5 13 -9 -24 -18 -13 -21 24 -2 34 -15 52 -35 53
-5 0 -6 -6 -3 -12z"/>
  <path d="M680 335 c0 -9 57 -34 64 -28 8 8 -25 32 -46 33 -10 0 -18 -2 -18 -5z"/>
  <path d="M684 269 c-3 -5 6 -9 20 -9 31 0 34 6 6 13 -11 3 -23 1 -26 -4z"/>
  <path d="M720 212 c0 -10 -4 -22 -9 -27 -5 -6 -5 -19 -1 -30 7 -17 11 -12 10
11 -1 3 9 14 22 24 20 17 21 21 8 30 -22 14 -30 12 -30 -8z"/>
</g>
</g>
</svg>