<?xml version="1.0" standalone="no"?>
<!DOCTYPE svg PUBLIC "-//W3C//DTD SVG 20010904//EN"
 "http://www.w3.org/TR/2001/REC-SVG-20010904/DTD/svg10.dtd">
<svg version="1.0" xmlns="http://www.w3.org/2000/svg"
 width="96.000000pt" height="68.000000pt" viewBox="0 0 96.000000 68.000000"
 preserveAspectRatio="xMidYMid meet">
<metadata>
Created by potrace 1.16, written by Peter Selinger 2001-2019
Combined from part_0.svg through part_5.svg with named groups
</metadata>
<g transform="translate(0.000000,68.000000) scale(0.100000,-0.100000)" fill="#000000" stroke="none">
<g id="part-0" class="char-part">
  <path d="M550 593 c0 -5 7 -21 15 -36 16 -31 15 -33 -52 -40 -24 -3 -46 0 -52
6 -14 14 -31 -6 -31 -35 0 -9 -5 -20 -10 -23 -14 -8 -3 -25 16 -25 8 0 12 5 9
10 -3 6 -2 10 4 10 5 0 12 8 15 18 3 9 16 18 28 18 13 1 72 9 131 19 60 9 111
14 115 11 3 -4 1 -16 -6 -26 -7 -11 -9 -20 -5 -20 16 0 93 33 93 40 0 20 -62
32 -130 25 -59 -6 -70 -5 -70 8 0 9 -10 23 -22 31 -24 17 -48 21 -48 9z"/>
  <path d="M318 520 c-14 -4 -54 -11 -87 -15 -34 -4 -61 -11 -61 -16 0 -11 66
-23 79 -14 6 3 11 0 11 -7 0 -21 -27 -67 -70 -118 -37 -44 -56 -80 -28 -52 20
20 42 13 71 -22 15 -19 27 -39 27 -43 -1 -4 -27 -35 -60 -68 -32 -33 -57 -61
-55 -63 2 -3 26 12 54 32 48 35 101 100 142 173 11 19 26 45 34 57 14 21 14
25 -1 36 -12 11 -24 11 -57 3 -23 -7 -44 -10 -46 -7 -3 2 5 18 17 34 12 16 22
34 22 39 0 6 17 13 38 16 20 4 46 9 56 12 19 5 19 6 1 19 -21 15 -46 17 -87 4z
m9 -168 c-7 -16 -19 -39 -27 -51 l-15 -23 -43 28 -42 28 22 23 c17 18 32 23
69 23 l48 0 -12 -28z"/>
  <path d="M560 460 c-72 -15 -79 -18 -42 -19 l42 -1 0 -49 0 -48 -57 -21 c-32
-11 -74 -25 -93 -31 -33 -10 -32 -10 20 -8 l55 2 -2 -77 c-3 -78 0 -83 35 -79
6 1 12 -3 12 -9 0 -10 -12 -22 -70 -69 -16 -13 -20 -20 -11 -21 22 0 141 81
141 96 0 11 16 14 65 14 37 0 65 -4 65 -10 0 -5 9 -10 20 -10 18 0 20 7 20 84
0 46 3 91 6 100 11 29 -38 37 -123 21 -42 -8 -78 -13 -80 -11 -2 2 40 24 93
50 82 39 94 48 84 61 -16 19 -37 19 -47 1 -10 -17 -73 -56 -90 -56 -8 0 -13
14 -13 35 0 30 4 35 28 41 54 12 62 16 57 25 -7 11 -9 11 -115 -11z m155 -160
c9 -15 -35 -28 -119 -36 -64 -6 -76 -4 -76 8 0 25 181 50 195 28z m1 -51 c12
-20 -10 -27 -103 -34 -80 -6 -93 -5 -93 8 0 16 31 23 130 30 25 2 48 4 52 5 4
1 10 -3 14 -9z m4 -58 c0 -15 -11 -19 -61 -25 -100 -10 -139 -8 -139 8 0 10
19 16 68 21 37 3 76 7 87 9 41 7 45 6 45 -13z"/>
  <path d="M442 370 c-30 -40 -28 -44 13 -18 19 13 35 29 35 36 0 22 -26 13 -48
-18z"/>
  <path d="M707 70 c49 -48 93 -65 93 -37 0 27 -45 57 -115 78 -28 8 -26 5 22
-41z"/>
</g>
<g id="part-1" class="char-part">
  <path d="M258 506 c-100 -17 -96 -30 7 -23 98 7 135 15 135 28 0 11 -56 9
-142 -5z"/>
</g>
<g id="part-2" class="char-part">
  <path d="M251 447 c-6 -19 -34 -61 -61 -95 -28 -34 -46 -62 -41 -62 5 0 30 20
57 44 35 33 58 45 86 48 29 3 38 0 38 -12 0 -29 -75 -143 -135 -207 -69 -72
-62 -83 15 -22 33 26 74 75 116 140 35 55 64 104 64 109 0 17 -48 22 -85 10
-20 -7 -38 -10 -40 -8 -3 2 9 20 25 39 37 43 37 49 1 49 -24 0 -31 -6 -40 -33z"/>
</g>
<g id="part-3" class="char-part">
  <path d="M559 565 c23 -40 22 -40 -46 -48 -24 -3 -46 -1 -49 4 -10 17 -21 9
-36 -29 -18 -47 -14 -66 13 -52 10 6 19 17 19 25 0 7 5 17 10 20 17 11 251 46
261 40 5 -4 5 -14 -1 -26 -6 -10 -7 -19 -3 -19 16 0 93 33 93 40 0 20 -63 32
-130 26 -59 -6 -70 -5 -70 8 0 18 -38 46 -63 46 -18 0 -18 -2 2 -35z"/>
</g>
<g id="part-4" class="char-part">
  <path d="M555 459 l-80 -17 52 -1 c64 -1 155 17 147 30 -7 11 -21 10 -119 -12z"/>
</g>
<g id="part-5" class="char-part">
  <path d="M521 100 c-18 -24 -19 -30 -6 -30 9 0 18 7 21 15 4 8 10 13 14 10 10
-6 35 23 26 32 -3 3 -6 1 -6 -7 0 -9 -3 -10 -13 -1 -10 8 -19 4 -36 -19z"/>
  <path d="M724 64 c34 -32 51 -43 59 -35 12 12 -8 41 -30 41 -8 0 -12 4 -9 8 3
5 -11 14 -32 20 l-37 12 49 -46z"/>
  <path d="M470 55 c-9 -10 -9 -15 -1 -15 6 0 11 5 11 11 0 5 5 7 12 3 7 -4 8
-3 4 4 -9 15 -11 15 -26 -3z"/>
</g>
</g>
</svg>