<?xml version="1.0" standalone="no"?>
<!DOCTYPE svg PUBLIC "-//W3C//DTD SVG 20010904//EN"
 "http://www.w3.org/TR/2001/REC-SVG-20010904/DTD/svg10.dtd">
<svg version="1.0" xmlns="http://www.w3.org/2000/svg"
 width="96.000000pt" height="68.000000pt" viewBox="0 0 96.000000 68.000000"
 preserveAspectRatio="xMidYMid meet">
<metadata>
Created by potrace 1.16, written by Peter Selinger 2001-2019
Combined from part_0.svg through part_5.svg with named groups
</metadata>
<g transform="translate(0.000000,68.000000) scale(0.100000,-0.100000)" fill="#000000" stroke="none">
<g id="part-0" class="char-part">
  <path d="M355 488 l0 -83 -37 -3 c-51 -4 -48 -22 3 -22 l42 0 -6 -72 c-4 -40
-9 -82 -12 -93 -3 -11 0 -29 8 -39 14 -19 17 -18 70 30 61 53 67 68 14 35 -19
-11 -37 -18 -40 -14 -12 12 -7 139 6 156 6 9 27 17 46 19 19 2 37 9 39 17 4
11 -4 13 -42 8 l-46 -7 0 65 c0 53 -3 66 -19 75 -11 5 -21 10 -23 10 -2 0 -4
-37 -3 -82z"/>
  <path d="M199 532 c37 -53 91 -66 91 -22 0 25 -23 41 -71 47 l-43 6 23 -31z"/>
  <path d="M665 473 c-141 -26 -132 -23 -112 -35 10 -5 25 -7 34 -4 14 6 15 -1
10 -46 -8 -80 -48 -161 -111 -224 -58 -57 -61 -67 -11 -35 75 48 128 121 170
235 14 37 16 52 7 66 -9 15 -7 19 20 24 49 10 78 7 84 -8 8 -22 -23 -226 -41
-269 -18 -43 -35 -53 -64 -37 -27 14 -26 2 3 -34 51 -62 97 0 127 173 11 64
24 129 29 145 14 40 13 41 -15 54 -30 14 -26 14 -130 -5z"/>
  <path d="M121 403 c41 -51 84 -68 96 -36 9 23 -32 53 -74 53 -32 0 -34 -2 -22
-17z"/>
  <path d="M225 283 c-15 -21 -45 -54 -68 -75 -39 -35 -40 -37 -27 -68 7 -17 19
-30 27 -28 13 3 113 180 113 200 0 18 -19 6 -45 -29z"/>
</g>
<g id="part-1" class="char-part">
  <path d="M190 552 c0 -16 52 -62 70 -62 31 0 25 37 -10 55 -31 16 -60 20 -60
7z"/>
  <path d="M120 411 c0 -13 59 -61 76 -61 22 0 16 37 -8 54 -24 17 -68 22 -68 7z"/>
  <path d="M232 286 c-13 -19 -43 -52 -67 -75 -31 -29 -42 -47 -38 -59 8 -22 23
-42 32 -42 10 0 104 187 99 199 -1 6 -13 -5 -26 -23z"/>
</g>
<g id="part-2" class="char-part">
  <path d="M346 553 c4 -10 10 -46 12 -80 l4 -62 -46 -6 c-59 -9 -60 -25 -1 -25
l45 0 -7 -77 c-15 -164 -8 -171 82 -88 l60 56 -42 -21 c-23 -11 -45 -20 -48
-20 -3 0 -5 36 -5 80 l0 79 38 6 c55 10 64 14 56 26 -4 7 -24 9 -50 6 l-44 -5
0 68 c0 69 -6 80 -47 80 -11 0 -13 -5 -7 -17z"/>
</g>
<g id="part-3" class="char-part">
  <path d="M638 470 c-54 -9 -100 -19 -103 -22 -15 -15 51 -16 107 -3 35 8 74
15 87 15 24 0 24 0 18 -92 -3 -53 -14 -122 -26 -160 -21 -67 -22 -68 -57 -68
l-35 0 21 -30 c24 -34 50 -38 72 -12 29 32 38 61 62 190 13 71 29 138 35 150
9 17 7 23 -11 36 -27 19 -43 19 -170 -4z"/>
</g>
<g id="part-4" class="char-part">
  <path d="M598 393 c-10 -88 -45 -160 -110 -224 -63 -63 -58 -79 9 -30 57 41
89 87 133 188 35 79 37 89 22 101 -33 25 -49 15 -54 -35z"/>
</g>
</g>
</svg>