<?xml version="1.0" standalone="no"?>
<!DOCTYPE svg PUBLIC "-//W3C//DTD SVG 20010904//EN"
 "http://www.w3.org/TR/2001/REC-SVG-20010904/DTD/svg10.dtd">
<svg version="1.0" xmlns="http://www.w3.org/2000/svg"
 width="96.000000pt" height="68.000000pt" viewBox="0 0 96.000000 68.000000"
 preserveAspectRatio="xMidYMid meet">
<metadata>
Created by potrace 1.16, written by Peter Selinger 2001-2019
Combined from part_0.svg through part_5.svg with named groups
</metadata>
<g transform="translate(0.000000,68.000000) scale(0.100000,-0.100000)" fill="#000000" stroke="none">
<g id="part-0" class="char-part">
  <path d="M500 574 c0 -4 9 -21 20 -39 l20 -33 -42 -5 c-24 -4 -74 -9 -113 -13
-81 -7 -113 -20 -77 -30 20 -6 22 -13 22 -65 0 -107 -47 -213 -133 -302 -56
-57 -36 -64 36 -11 80 58 123 145 157 315 13 68 2 64 220 79 165 12 180 14
180 29 0 11 -56 32 -73 26 -7 -2 -36 -6 -64 -10 -48 -5 -53 -4 -53 14 0 13
-12 27 -30 36 -29 15 -70 20 -70 9z"/>
  <path d="M180 425 c0 -3 12 -24 27 -46 19 -29 32 -39 47 -37 30 4 31 34 2 63
-21 21 -76 36 -76 20z"/>
  <path d="M565 399 c-100 -16 -115 -20 -115 -30 0 -6 19 -9 48 -7 l47 3 3 -41
3 -42 -45 -6 c-25 -4 -60 -4 -78 -1 l-33 6 1 -88 c2 -114 1 -113 19 -113 11 0
15 13 16 50 1 28 3 55 4 60 1 6 3 21 4 34 1 20 8 24 48 30 25 3 48 4 50 2 6
-6 -16 -47 -40 -73 -11 -13 -18 -26 -15 -29 10 -9 44 13 62 41 21 31 31 31 68
0 35 -29 58 -32 58 -7 0 18 -41 42 -71 42 -10 0 -20 4 -23 8 -12 20 15 31 84
34 l75 3 3 -45 c2 -25 -1 -63 -6 -85 -8 -37 -11 -40 -40 -37 -38 3 -39 0 -10
-38 46 -63 86 -26 104 98 8 48 14 94 14 103 0 29 -44 40 -118 29 -37 -5 -72
-10 -78 -10 -6 0 -11 18 -10 45 l1 45 40 0 c56 0 91 10 73 21 -16 10 -75 10
-143 -2z"/>
  <path d="M220 279 c-30 -16 -63 -29 -72 -29 -38 0 -11 -50 26 -50 21 0 116 84
116 101 0 12 -7 10 -70 -22z"/>
</g>
<g id="part-1" class="char-part">
  <path d="M510 566 c0 -7 9 -25 21 -40 11 -14 16 -27 10 -27 -6 -1 -14 -2 -18
-3 -5 -1 -39 -5 -78 -9 -38 -4 -87 -10 -107 -13 -36 -5 -36 -6 -17 -25 52 -52
-7 -240 -110 -351 -29 -32 -49 -58 -43 -58 19 0 96 65 129 108 33 44 79 171
90 249 3 23 11 47 18 53 6 5 94 16 195 24 100 9 185 18 188 20 2 3 -7 10 -21
17 -18 8 -47 9 -101 2 -76 -9 -76 -9 -76 14 0 18 -9 28 -35 39 -42 17 -45 17
-45 0z"/>
  <path d="M190 421 c0 -16 52 -81 65 -81 21 0 19 44 -2 62 -20 17 -63 30 -63
19z"/>
  <path d="M220 275 c-25 -14 -50 -25 -57 -25 -19 0 -26 -20 -13 -35 20 -24 36
-18 84 31 64 63 61 69 -14 29z"/>
</g>
<g id="part-2" class="char-part">
  <path d="M585 403 c-44 -7 -95 -15 -114 -19 -23 -4 -30 -9 -23 -16 9 -9 154 3
242 21 l35 7 -30 10 c-21 7 -53 7 -110 -3z"/>
</g>
<g id="part-3" class="char-part">
  <path d="M550 333 c0 -58 -18 -110 -51 -147 -16 -19 -29 -37 -29 -40 0 -13 46
17 71 48 l26 30 36 -27 c42 -32 67 -35 67 -8 0 14 -13 24 -49 36 l-49 16 16
48 c17 55 12 81 -18 81 -16 0 -20 -6 -20 -37z"/>
</g>
<g id="part-4" class="char-part">
  <path d="M600 289 c-63 -11 -135 -17 -160 -14 l-45 5 1 -88 c2 -114 2 -112 18
-112 10 0 15 21 18 80 3 44 7 82 9 85 9 8 270 37 285 31 15 -6 19 -98 5 -146
-6 -22 -12 -25 -45 -22 l-38 3 29 -35 c15 -20 36 -36 45 -36 29 0 55 46 62
112 4 35 10 79 12 98 5 32 3 37 -21 48 -31 14 -30 14 -175 -9z"/>
</g>
</g>
</svg>