<?xml version="1.0" standalone="no"?>
<!DOCTYPE svg PUBLIC "-//W3C//DTD SVG 20010904//EN"
 "http://www.w3.org/TR/2001/REC-SVG-20010904/DTD/svg10.dtd">
<svg version="1.0" xmlns="http://www.w3.org/2000/svg"
 width="96.000000pt" height="68.000000pt" viewBox="0 0 96.000000 68.000000"
 preserveAspectRatio="xMidYMid meet">
<metadata>
Created by potrace 1.16, written by Peter Selinger 2001-2019
Combined from part_0.svg through part_5.svg with named groups
</metadata>
<g transform="translate(0.000000,68.000000) scale(0.100000,-0.100000)" fill="#000000" stroke="none">
<g id="part-0" class="char-part">
  <path d="M639 626 c-3 -4 -352 -46 -376 -46 -4 0 4 -11 17 -25 21 -22 22 -30
16 -91 -13 -125 -72 -254 -156 -342 -69 -73 -28 -65 64 12 66 54 120 167 147
308 11 56 22 104 24 107 3 2 80 12 170 21 169 17 212 30 161 50 -28 10 -59 13
-67 6z"/>
  <path d="M560 533 c-47 -6 -105 -12 -129 -12 -42 -1 -43 -2 -28 -19 9 -9 22
-44 29 -77 12 -50 17 -60 33 -58 11 2 58 5 104 7 l85 4 37 71 c51 95 32 107
-131 84z m90 -38 c0 -23 -4 -25 -47 -26 -27 0 -70 -4 -96 -8 -44 -7 -49 -6
-57 13 -4 12 -7 22 -5 24 2 3 138 19 178 21 23 1 27 -3 27 -24z m-14 -61 c-3
-9 -6 -19 -6 -22 0 -7 -58 -15 -125 -16 -34 -1 -40 2 -43 21 -3 20 1 22 60 26
35 2 76 4 92 5 22 2 27 -1 22 -14z"/>
  <path d="M490 330 c-121 -22 -98 -39 28 -21 46 6 87 9 90 6 10 -9 -36 -45 -58
-45 -17 0 -19 -3 -10 -19 5 -11 7 -22 3 -24 -8 -5 -130 -16 -210 -19 -24 -1
-43 -5 -43 -10 0 -21 81 -22 218 -2 l42 7 0 -49 c0 -68 -11 -82 -50 -67 -16 6
-30 9 -30 6 0 -8 73 -73 81 -73 19 0 34 41 39 107 l5 75 75 2 c41 2 97 4 125
5 47 1 48 2 32 19 -14 14 -31 16 -85 13 -145 -7 -157 -7 -157 9 0 9 22 23 57
35 31 11 57 24 58 29 2 14 -50 36 -84 35 -17 -1 -74 -10 -126 -19z"/>
</g>
<g id="part-1" class="char-part">
  <path d="M631 619 c-18 -4 -107 -15 -197 -25 -154 -16 -185 -24 -149 -38 11
-4 15 -21 15 -64 0 -117 -57 -258 -146 -360 -55 -62 -45 -67 26 -11 89 70 139
171 169 339 l17 95 110 12 c60 6 140 14 177 18 43 4 67 11 64 18 -5 16 -47 24
-86 16z"/>
</g>
<g id="part-2" class="char-part">
  <path d="M565 534 c-49 -7 -110 -13 -134 -13 -42 -1 -43 -2 -28 -19 9 -10 21
-43 27 -72 6 -30 14 -57 18 -61 4 -4 36 -3 72 3 36 5 79 7 97 4 31 -4 33 -2
73 71 41 76 41 92 3 93 -6 0 -17 2 -25 4 -7 1 -53 -3 -103 -10z m85 -38 c0
-22 -5 -24 -67 -29 -38 -4 -80 -9 -95 -13 -23 -5 -29 -2 -37 17 -5 13 -8 25
-6 27 2 3 138 19 178 21 22 1 27 -3 27 -23z m-15 -68 c-3 -13 -14 -24 -23 -24
-9 -1 -44 -4 -78 -9 -53 -6 -62 -5 -68 10 -10 26 2 35 47 36 23 0 60 4 82 8
22 4 41 6 43 5 2 -1 0 -12 -3 -26z"/>
</g>
<g id="part-3" class="char-part">
  <path d="M535 339 c-22 -5 -62 -12 -90 -17 -87 -15 -23 -27 73 -13 46 6 87 10
89 7 3 -3 -7 -16 -22 -30 -34 -32 -24 -32 52 -4 76 28 81 33 45 52 -33 17 -83
19 -147 5z"/>
</g>
<g id="part-4" class="char-part">
  <path d="M530 260 c0 -5 5 -10 10 -10 6 0 10 -6 10 -14 0 -13 -96 -26 -201
-26 -54 0 -74 -16 -33 -26 25 -6 81 -3 187 12 l47 7 0 -49 c0 -68 -11 -82 -50
-67 -16 6 -30 9 -30 6 0 -8 73 -73 82 -73 21 0 38 49 38 112 0 64 1 68 23 69
12 0 36 2 52 3 17 1 63 3 103 4 39 1 72 6 72 12 0 20 -68 28 -154 17 -83 -10
-87 -9 -107 11 -21 23 -49 29 -49 12z"/>
</g>
</g>
</svg>