<?xml version="1.0" standalone="no"?>
<!DOCTYPE svg PUBLIC "-//W3C//DTD SVG 20010904//EN"
 "http://www.w3.org/TR/2001/REC-SVG-20010904/DTD/svg10.dtd">
<svg version="1.0" xmlns="http://www.w3.org/2000/svg"
 width="96.000000pt" height="68.000000pt" viewBox="0 0 96.000000 68.000000"
 preserveAspectRatio="xMidYMid meet">
<metadata>
Created by potrace 1.16, written by Peter Selinger 2001-2019
Combined from part_0.svg through part_5.svg with named groups
</metadata>
<g transform="translate(0.000000,68.000000) scale(0.100000,-0.100000)" fill="#000000" stroke="none">
<g id="part-0" class="char-part">
  <path d="M408 624 c-4 -3 -3 -17 3 -31 5 -13 9 -39 9 -58 0 -37 12 -33 -153
-51 -36 -4 -56 -11 -54 -18 3 -7 37 -10 106 -8 l101 2 0 -44 0 -45 -70 -7
c-74 -7 -97 -19 -57 -29 34 -9 328 12 340 24 7 7 0 15 -24 23 -19 7 -36 12
-39 11 -3 0 -24 -4 -47 -8 l-43 -7 0 45 0 44 61 7 c34 3 84 6 110 6 55 0 66
18 25 40 -23 12 -41 11 -158 -6 l-37 -6 6 50 c3 27 2 52 -3 54 -17 10 -70 19
-76 12z"/>
  <path d="M696 245 c61 -48 94 -57 94 -27 0 24 -31 49 -77 61 -74 21 -78 13
-17 -34z"/>
  <path d="M450 245 c40 -41 70 -46 70 -12 0 19 -8 26 -39 35 -61 19 -67 14 -31
-23z"/>
  <path d="M210 263 c0 -5 -14 -31 -31 -56 -32 -48 -33 -81 -3 -75 42 8 81 123
47 135 -7 3 -13 1 -13 -4z"/>
  <path d="M300 265 c0 -21 53 -115 78 -137 60 -53 190 -72 297 -45 71 19 72 42
1 85 -65 38 -69 39 -54 8 22 -49 7 -58 -90 -54 -117 5 -153 23 -187 94 -14 30
-30 54 -35 54 -6 0 -10 -2 -10 -5z"/>
</g>
<g id="part-1" class="char-part">
  <path d="M415 558 l0 -63 -97 -9 c-54 -5 -98 -12 -98 -16 0 -16 58 -21 121
-11 93 15 89 17 89 -38 0 -54 -8 -60 -80 -62 -19 0 -44 -4 -54 -8 -42 -16 16
-20 161 -9 176 12 187 15 153 33 -16 8 -43 11 -77 8 l-53 -6 0 52 0 51 73 1
c39 0 90 3 111 7 33 6 37 9 24 19 -19 16 -45 18 -135 8 l-72 -7 -3 53 c-3 52
-4 54 -33 57 l-30 3 0 -63z"/>
</g>
<g id="part-2" class="char-part">
  <path d="M650 285 c0 -12 104 -85 122 -85 37 0 18 43 -32 68 -40 20 -90 30
-90 17z"/>
  <path d="M431 263 c44 -57 89 -71 89 -30 0 19 -8 26 -39 35 -56 17 -66 16 -50
-5z"/>
  <path d="M182 214 c-19 -30 -31 -61 -28 -69 9 -24 42 -17 62 12 19 30 25 104
9 109 -5 2 -25 -21 -43 -52z"/>
  <path d="M305 248 c4 -13 19 -44 33 -71 46 -85 172 -125 316 -98 97 18 106 41
33 81 -23 13 -50 30 -59 38 -21 18 -22 15 -7 -28 15 -43 3 -50 -84 -50 -107 0
-165 31 -198 108 -19 44 -46 60 -34 20z"/>
</g>
</g>
</svg>