<?xml version="1.0" standalone="no"?>
<!DOCTYPE svg PUBLIC "-//W3C//DTD SVG 20010904//EN"
 "http://www.w3.org/TR/2001/REC-SVG-20010904/DTD/svg10.dtd">
<svg version="1.0" xmlns="http://www.w3.org/2000/svg"
 width="96.000000pt" height="68.000000pt" viewBox="0 0 96.000000 68.000000"
 preserveAspectRatio="xMidYMid meet">
<metadata>
Created by potrace 1.16, written by Peter Selinger 2001-2019
Combined from part_0.svg through part_5.svg with named groups
</metadata>
<g transform="translate(0.000000,68.000000) scale(0.100000,-0.100000)" fill="#000000" stroke="none">
<g id="part-0" class="char-part">
  <path d="M306 592 c-2 -4 -1 -14 5 -22 5 -8 9 -34 9 -57 0 -45 -1 -46 -72 -59
-21 -3 -38 -10 -38 -14 0 -14 40 -22 76 -15 32 6 34 5 34 -24 0 -26 -4 -30
-37 -35 -166 -24 -193 -30 -190 -39 7 -22 57 -24 141 -7 47 9 88 15 91 12 9
-9 5 -122 -4 -122 -5 0 -22 5 -36 10 -22 8 -25 13 -16 24 9 11 8 18 -4 30 -19
18 -45 21 -45 5 0 -21 -34 -84 -68 -126 -48 -60 -22 -53 45 11 l55 55 176 -90
c195 -98 211 -102 351 -78 83 15 68 22 -95 44 -89 12 -149 27 -220 55 -93 35
-99 39 -99 66 0 26 4 29 45 37 70 13 79 18 52 28 -13 5 -27 7 -31 5 -4 -3 -19
-7 -34 -10 -26 -4 -27 -3 -27 35 l0 39 44 0 c54 0 100 16 90 31 -4 7 -29 10
-65 7 -59 -4 -59 -4 -59 23 0 29 4 31 68 44 49 10 33 30 -23 29 l-47 0 4 48
c4 40 2 51 -13 58 -22 12 -56 13 -63 2z"/>
  <path d="M686 455 l6 -122 -46 -7 c-25 -4 -50 -5 -54 -2 -5 3 -4 33 1 67 9 55
8 63 -8 75 -10 8 -22 14 -26 14 -4 0 -9 -28 -13 -62 -3 -35 -8 -79 -12 -99 -3
-20 -2 -39 4 -43 5 -3 34 3 65 14 89 31 87 33 87 -70 0 -83 8 -107 26 -78 4 6
11 95 16 197 4 102 9 195 11 205 1 15 -6 21 -30 27 l-33 6 6 -122z"/>
</g>
<g id="part-1" class="char-part">
  <path d="M318 527 l4 -64 -48 -8 c-73 -11 -76 -19 -9 -25 59 -5 60 -6 60 -35
l0 -30 -112 -14 c-62 -8 -113 -18 -113 -22 0 -20 57 -20 162 0 62 12 141 24
176 27 34 4 62 10 62 14 0 14 -29 19 -80 13 l-51 -6 3 34 c3 32 6 34 51 43 62
11 60 26 -3 26 l-51 0 3 53 c3 51 3 52 -28 55 l-30 3 4 -64z"/>
</g>
<g id="part-2" class="char-part">
  <path d="M215 263 c-3 -16 -29 -58 -56 -95 -27 -38 -44 -68 -38 -68 6 0 39 27
72 59 l61 59 172 -89 c157 -81 177 -89 228 -89 58 0 200 20 193 27 -3 2 -67
13 -143 24 -115 16 -162 29 -269 71 -183 71 -177 68 -163 86 10 11 8 17 -7 28
-28 21 -42 17 -50 -13z"/>
</g>
<g id="part-3" class="char-part">
  <path d="M550 431 c0 -27 -6 -67 -14 -89 -12 -33 -12 -43 -2 -58 12 -16 16
-16 47 -2 19 9 49 19 67 23 47 10 41 28 -8 20 -21 -4 -43 -4 -48 -1 -4 3 -4
35 2 71 8 55 7 68 -5 76 -30 19 -39 10 -39 -40z"/>
</g>
<g id="part-4" class="char-part">
  <path d="M688 358 c2 -123 8 -227 12 -232 16 -16 28 69 33 234 3 91 8 172 12
181 5 12 -2 20 -26 28 -18 6 -33 11 -33 11 -1 0 0 -100 2 -222z"/>
</g>
</g>
</svg>