<?xml version="1.0" standalone="no"?>
<!DOCTYPE svg PUBLIC "-//W3C//DTD SVG 20010904//EN"
 "http://www.w3.org/TR/2001/REC-SVG-20010904/DTD/svg10.dtd">
<svg version="1.0" xmlns="http://www.w3.org/2000/svg"
 width="96.000000pt" height="68.000000pt" viewBox="0 0 96.000000 68.000000"
 preserveAspectRatio="xMidYMid meet">
<metadata>
Created by potrace 1.16, written by Peter Selinger 2001-2019
Combined from part_0.svg through part_5.svg with named groups
</metadata>
<g transform="translate(0.000000,68.000000) scale(0.100000,-0.100000)" fill="#000000" stroke="none">
<g id="part-0" class="char-part">
  <path d="M497 555 c-3 -30 -8 -59 -12 -64 -3 -6 -28 -13 -55 -17 -63 -8 -65
-24 -4 -24 l45 0 -26 -49 c-15 -27 -47 -70 -72 -96 -43 -46 -53 -76 -13 -40
11 10 23 16 26 12 3 -3 14 -32 24 -64 11 -34 24 -58 32 -57 7 1 24 3 38 5 21
3 25 -1 33 -33 5 -22 22 -49 39 -63 26 -22 39 -25 108 -25 95 0 140 8 140 26
0 20 -32 25 -90 14 -119 -23 -160 -8 -160 57 l0 35 52 -4 51 -3 29 69 c26 65
27 70 10 83 -12 10 -34 12 -75 9 -56 -6 -57 -5 -51 18 5 19 0 25 -24 34 -37
13 -42 9 -35 -32 4 -28 2 -34 -18 -39 -35 -10 -69 -8 -69 3 0 5 11 20 24 33
13 13 33 42 44 64 33 63 43 67 88 34 21 -16 66 -54 99 -85 62 -58 96 -68 150
-46 18 7 18 9 -10 19 -66 26 -152 73 -189 105 l-40 33 62 7 c41 5 60 11 56 18
-5 7 -33 8 -84 4 -42 -3 -79 -4 -82 0 -3 3 0 17 8 32 26 51 13 81 -37 82 -3 0
-9 -25 -12 -55z m143 -270 c0 -23 -4 -25 -45 -25 -38 0 -45 3 -45 19 0 15 8
21 33 24 17 2 38 5 45 5 7 1 12 -9 12 -23z m-130 -4 c0 -18 -32 -41 -56 -41
-19 0 -24 5 -24 25 0 23 4 25 40 25 22 0 40 -4 40 -9z m123 -47 c3 -4 2 -15
-4 -25 -14 -27 -79 -27 -79 0 0 11 8 22 18 24 27 7 58 8 65 1z m-132 -17 c-1
-4 -1 -13 -1 -20 0 -15 -42 -18 -52 -3 -12 18 -9 24 15 29 28 5 39 4 38 -6z"/>
  <path d="M205 438 l0 -123 -27 -3 c-26 -3 -27 -2 -21 30 3 18 7 35 9 37 9 11
-20 41 -39 41 -19 0 -22 -6 -24 -43 -2 -23 -4 -58 -5 -77 -3 -33 -1 -35 27
-34 17 1 61 9 100 17 60 14 72 14 85 2 23 -21 35 -7 52 65 15 60 15 66 0 78
-9 6 -24 12 -34 12 -15 0 -18 -9 -18 -55 0 -30 -4 -55 -9 -55 -5 0 -17 -3 -26
-6 -15 -6 -16 4 -13 112 l3 119 -30 3 -30 3 0 -123z"/>
</g>
<g id="part-1" class="char-part">
  <path d="M203 546 c3 -8 9 -64 13 -125 l7 -111 -37 0 -37 0 7 46 c5 34 3 48
-7 55 -27 17 -39 9 -39 -24 0 -17 -4 -46 -9 -64 -7 -22 -5 -37 3 -49 12 -16
16 -16 52 -2 53 22 154 34 154 19 0 -6 7 -11 15 -11 15 0 31 49 37 110 3 32 0
35 -24 38 -26 3 -27 1 -22 -27 4 -17 3 -42 0 -56 -5 -20 -13 -25 -37 -25 l-30
0 6 78 c3 42 8 93 10 113 4 32 2 38 -18 43 -36 9 -50 7 -44 -8z"/>
</g>
<g id="part-2" class="char-part">
  <path d="M497 555 c-3 -30 -8 -59 -12 -64 -3 -6 -28 -13 -55 -17 -62 -8 -65
-24 -5 -24 l46 0 -17 -32 c-21 -41 -44 -71 -96 -125 -45 -48 -43 -52 10 -22
40 23 77 66 123 142 19 30 36 47 49 47 11 0 59 -36 107 -80 79 -72 92 -80 128
-80 50 0 79 15 50 26 -53 18 -145 68 -190 101 -46 35 -48 38 -25 41 102 11
114 14 96 24 -11 6 -49 8 -97 4 l-79 -7 17 45 c14 37 15 47 4 60 -8 9 -21 16
-31 16 -14 0 -18 -12 -23 -55z"/>
</g>
<g id="part-3" class="char-part">
  <path d="M507 348 c7 -41 7 -41 32 -33 21 6 36 38 26 55 -3 5 -19 10 -35 10
-28 0 -29 -2 -23 -32z"/>
</g>
<g id="part-4" class="char-part">
  <path d="M510 140 c0 -32 20 -66 50 -83 51 -30 279 -12 247 20 -9 8 -50 8
-151 -2 -71 -7 -80 -6 -92 10 -8 11 -14 31 -14 47 0 21 -5 28 -20 28 -13 0
-20 -7 -20 -20z"/>
</g>
</g>
</svg>