<?xml version="1.0" standalone="no"?>
<!DOCTYPE svg PUBLIC "-//W3C//DTD SVG 20010904//EN"
 "http://www.w3.org/TR/2001/REC-SVG-20010904/DTD/svg10.dtd">
<svg version="1.0" xmlns="http://www.w3.org/2000/svg"
 width="96.000000pt" height="68.000000pt" viewBox="0 0 96.000000 68.000000"
 preserveAspectRatio="xMidYMid meet">
<metadata>
Created by potrace 1.16, written by Peter Selinger 2001-2019
Combined from part_0.svg through part_5.svg with named groups
</metadata>
<g transform="translate(0.000000,68.000000) scale(0.100000,-0.100000)" fill="#000000" stroke="none">
<g id="part-0" class="char-part">
  <path d="M610 588 c-14 -6 -50 -11 -80 -12 -30 -2 -56 -6 -57 -9 -2 -4 -3 -33
-3 -65 0 -84 19 -103 107 -109 86 -5 158 7 158 27 0 16 -8 16 -141 4 -68 -6
-72 -5 -79 16 -9 30 -3 33 64 38 53 4 60 7 66 29 3 14 13 32 21 40 29 30 -10
58 -56 41z m2 -54 c-5 -28 -8 -29 -64 -39 -37 -6 -38 -5 -38 24 0 34 9 39 66
40 39 1 41 0 36 -25z"/>
  <path d="M320 574 c-25 -8 -58 -12 -74 -9 -27 5 -28 4 -22 -26 3 -17 6 -65 6
-106 0 -52 4 -75 13 -79 12 -4 167 60 167 69 0 2 -29 -2 -65 -8 -68 -13 -75
-12 -75 16 0 14 12 19 65 24 56 6 65 10 65 27 0 11 8 33 17 49 28 48 -19 68
-97 43z m40 -41 c0 -28 -12 -39 -47 -46 -31 -6 -33 -5 -33 23 0 29 3 31 68 39
6 0 12 -7 12 -16z"/>
  <path d="M507 347 c5 -34 5 -34 -42 -40 -84 -12 -95 -10 -95 18 0 15 -6 25
-14 25 -8 0 -22 3 -31 6 -14 6 -15 2 -10 -30 l7 -36 -43 0 c-32 0 -40 -3 -29
-10 8 -5 29 -10 46 -10 28 0 32 -4 37 -32 2 -19 0 -36 -7 -40 -9 -7 -158 -13
-193 -9 -6 1 -14 -3 -18 -8 -9 -16 60 -24 143 -17 42 3 178 8 302 11 124 4
236 8 250 11 24 5 24 6 6 20 -22 15 -133 18 -224 5 l-54 -8 6 30 c3 16 6 35 6
43 0 9 17 14 52 16 67 4 79 28 14 28 -38 0 -46 3 -46 18 0 24 -19 42 -46 42
-20 0 -22 -4 -17 -33z m-3 -89 c-1 -13 -3 -31 -3 -40 -1 -15 -11 -18 -66 -18
l-65 0 0 34 c0 37 6 40 101 44 31 2 35 -1 33 -20z"/>
  <path d="M314 121 c-9 -16 -41 -43 -70 -61 -30 -18 -54 -34 -54 -37 0 -11 108
34 178 74 39 23 41 26 25 39 -30 22 -60 17 -79 -15z"/>
  <path d="M589 86 c38 -36 75 -66 80 -66 17 0 30 33 20 52 -13 24 -87 65 -132
74 l-39 7 71 -67z"/>
</g>
<g id="part-1" class="char-part">
  <path d="M335 570 c-11 -5 -42 -9 -69 -9 -40 -1 -47 -4 -42 -17 3 -9 6 -34 6
-56 l0 -40 68 6 c82 9 104 15 96 27 -3 5 5 25 17 45 18 30 19 38 8 45 -17 11
-57 10 -84 -1z m25 -45 c0 -18 -7 -28 -26 -35 -47 -18 -64 -13 -64 19 0 31 11
38 63 40 23 1 27 -3 27 -24z"/>
</g>
<g id="part-2" class="char-part">
  <path d="M470 455 c0 -21 35 -53 66 -61 33 -9 177 1 199 13 15 9 15 11 0 23
-12 10 -27 10 -72 1 -31 -6 -76 -11 -100 -11 -37 0 -45 4 -53 25 -10 27 -40
34 -40 10z"/>
</g>
<g id="part-3" class="char-part">
  <path d="M507 345 c5 -30 3 -35 -13 -35 -11 0 -43 -3 -71 -6 -52 -7 -53 -6
-53 20 0 14 -3 26 -7 26 -5 0 -18 3 -31 6 -22 6 -23 5 -17 -30 l7 -36 -41 0
c-26 0 -40 -4 -36 -10 3 -6 23 -10 44 -10 36 0 39 -2 44 -32 2 -19 0 -36 -7
-40 -6 -4 -55 -8 -108 -8 -95 0 -135 -13 -82 -26 15 -4 108 -2 208 5 100 6
247 11 328 11 146 0 180 8 136 31 -15 8 -57 10 -145 5 -134 -8 -134 -7 -113
48 8 21 16 26 44 26 19 0 41 3 50 6 27 10 7 24 -35 24 -31 0 -39 4 -39 18 0
24 -19 42 -46 42 -20 0 -22 -4 -17 -35z m-3 -81 c3 -8 3 -27 0 -40 -6 -24 -10
-25 -68 -22 -61 3 -61 3 -64 35 -3 29 -1 32 30 36 74 9 96 7 102 -9z"/>
</g>
<g id="part-4" class="char-part">
  <path d="M312 121 c-11 -16 -44 -44 -72 -62 -27 -18 -48 -34 -46 -36 6 -6 101
34 162 68 52 30 55 33 38 46 -29 21 -59 15 -82 -16z"/>
  <path d="M588 86 c71 -66 95 -78 105 -52 14 37 -60 96 -142 112 -32 7 -31 5
37 -60z"/>
</g>
</g>
</svg>