<?xml version="1.0" standalone="no"?>
<!DOCTYPE svg PUBLIC "-//W3C//DTD SVG 20010904//EN"
 "http://www.w3.org/TR/2001/REC-SVG-20010904/DTD/svg10.dtd">
<svg version="1.0" xmlns="http://www.w3.org/2000/svg"
 width="96.000000pt" height="68.000000pt" viewBox="0 0 96.000000 68.000000"
 preserveAspectRatio="xMidYMid meet">
<metadata>
Created by potrace 1.16, written by Peter Selinger 2001-2019
Combined from part_0.svg through part_5.svg with named groups
</metadata>
<g transform="translate(0.000000,68.000000) scale(0.100000,-0.100000)" fill="#000000" stroke="none">
<g id="part-0" class="char-part">
  <path d="M280 506 c0 -85 11 -96 98 -96 74 0 108 13 82 30 -8 6 -28 7 -45 4
-16 -4 -46 -7 -65 -8 -30 -1 -35 2 -38 24 -3 24 -1 25 60 28 35 2 67 7 72 12
16 16 -18 21 -65 11 -67 -16 -68 -15 -62 24 5 31 3 35 -16 35 -19 0 -21 -5
-21 -64z"/>
  <path d="M590 538 c-25 -5 -56 -12 -70 -15 -19 -3 -21 -6 -10 -13 8 -4 39 -3
67 3 29 6 55 8 59 5 3 -4 -4 -25 -17 -47 -19 -34 -28 -41 -53 -41 l-31 -1 28
-22 c15 -13 27 -26 27 -29 0 -4 -25 -10 -55 -13 -69 -9 -74 -29 -6 -23 48 5
49 4 55 -25 7 -35 8 -137 1 -137 -2 0 -15 5 -29 11 -21 10 -23 14 -14 35 12
27 11 29 -17 38 -18 5 -22 -1 -32 -45 -7 -28 -27 -68 -44 -90 -17 -22 -29 -43
-25 -46 8 -8 53 34 74 70 9 15 22 27 28 27 7 0 50 -31 95 -70 88 -74 106 -80
188 -64 45 9 38 21 -20 33 -61 13 -144 48 -160 67 -7 8 -9 28 -5 49 6 32 10
35 44 36 20 1 48 4 62 9 43 13 -3 23 -55 12 l-45 -10 0 58 c0 56 1 58 31 64
39 8 52 0 39 -24 -16 -29 -13 -30 40 -7 28 11 50 24 50 28 0 4 -18 14 -39 22
-29 12 -48 14 -73 7 -41 -12 -38 -13 -38 4 0 8 -6 17 -12 19 -8 4 7 24 40 54
29 26 52 51 52 55 0 7 -58 29 -74 27 -6 -1 -31 -6 -56 -11z"/>
  <path d="M120 501 c0 -10 39 -62 60 -78 12 -9 18 -9 29 2 22 22 6 61 -30 74
-38 13 -59 14 -59 2z"/>
  <path d="M294 353 c-9 -21 -23 -46 -32 -56 -24 -27 -8 -30 24 -4 35 29 54 25
54 -13 0 -27 -4 -29 -47 -36 -27 -3 -54 -10 -62 -14 -22 -12 23 -23 59 -15 22
5 30 3 30 -7 0 -25 -48 -84 -84 -103 -34 -18 -47 -35 -27 -35 15 0 86 51 113
82 l27 31 32 -27 c19 -16 36 -23 41 -18 14 14 -2 40 -33 51 -49 17 -34 45 29
56 23 4 42 11 42 17 0 6 -15 7 -39 3 -39 -6 -40 -6 -39 24 1 27 5 31 30 31 15
0 28 5 28 11 0 8 -17 10 -55 6 -55 -6 -65 -1 -44 20 8 8 5 14 -10 23 -20 10
-23 7 -37 -27z"/>
  <path d="M188 287 c-15 -23 -40 -55 -57 -71 -17 -17 -31 -38 -31 -49 0 -23 18
-57 29 -57 9 0 94 210 88 216 -1 2 -15 -16 -29 -39z"/>
</g>
<g id="part-1" class="char-part">
  <path d="M128 494 c27 -47 57 -75 75 -69 9 4 17 13 17 21 0 18 -36 54 -54 54
-8 0 -22 3 -31 7 -15 5 -16 3 -7 -13z"/>
</g>
<g id="part-2" class="char-part">
  <path d="M197 304 c-10 -19 -38 -57 -63 -84 -45 -48 -45 -48 -29 -79 26 -52
24 -54 106 152 22 55 11 64 -14 11z"/>
</g>
<g id="part-3" class="char-part">
  <path d="M280 506 c0 -85 11 -96 98 -96 74 0 105 11 85 31 -9 9 -25 9 -72 -1
-64 -13 -81 -9 -81 20 0 14 11 19 53 25 74 9 91 15 79 27 -7 7 -27 6 -62 -1
-61 -13 -72 -9 -60 23 10 27 5 36 -22 36 -16 0 -18 -9 -18 -64z"/>
</g>
<g id="part-4" class="char-part">
  <path d="M338 282 c4 -27 1 -31 -27 -36 -17 -3 -45 -9 -63 -12 -26 -5 -29 -8
-14 -16 9 -5 35 -7 57 -3 l41 7 -15 -29 c-19 -36 -64 -81 -100 -100 -47 -24
-22 -27 27 -3 26 12 59 38 76 58 l30 36 25 -24 c29 -27 55 -34 55 -16 0 15
-27 40 -53 49 -37 14 -14 41 43 52 57 11 50 26 -8 17 -31 -4 -33 -3 -30 19 2
19 -2 25 -23 27 -23 3 -25 0 -21 -26z"/>
</g>
<g id="part-5" class="char-part">
  <path d="M504 236 c4 -15 0 -28 -10 -36 -8 -7 -13 -19 -10 -26 2 -6 -4 -21
-15 -32 -10 -12 -19 -26 -19 -33 0 -6 14 5 30 26 31 39 37 50 20 40 -5 -3 -10
-1 -10 4 0 21 37 11 75 -19 20 -16 42 -27 48 -23 5 3 0 13 -14 24 -13 9 -26
16 -30 14 -3 -3 -16 5 -28 17 -17 15 -20 23 -11 28 17 11 5 40 -16 40 -12 0
-15 -6 -10 -24z"/>
  <path d="M632 116 c10 -7 15 -15 12 -19 -3 -3 4 -8 15 -12 12 -3 21 -10 21
-14 0 -4 14 -8 31 -9 17 0 34 -4 38 -8 3 -4 -6 -5 -21 -2 -16 3 -25 1 -22 -4
7 -12 105 0 119 14 6 6 -1 7 -20 3 -24 -5 -27 -4 -15 5 12 9 11 10 -7 5 -12
-3 -24 -2 -27 4 -3 5 -28 14 -56 21 -28 7 -53 16 -56 21 -3 5 -11 9 -17 9 -7
0 -4 -6 5 -14z"/>
</g>
</g>
</svg>