<?xml version="1.0" standalone="no"?>
<!DOCTYPE svg PUBLIC "-//W3C//DTD SVG 20010904//EN"
 "http://www.w3.org/TR/2001/REC-SVG-20010904/DTD/svg10.dtd">
<svg version="1.0" xmlns="http://www.w3.org/2000/svg"
 width="96.000000pt" height="68.000000pt" viewBox="0 0 96.000000 68.000000"
 preserveAspectRatio="xMidYMid meet">
<metadata>
Created by potrace 1.16, written by Peter Selinger 2001-2019
Combined from part_0.svg through part_5.svg with named groups
</metadata>
<g transform="translate(0.000000,68.000000) scale(0.100000,-0.100000)" fill="#000000" stroke="none">
<g id="part-0" class="char-part">
  <path d="M480 589 c-19 -5 -75 -10 -123 -10 -78 -1 -87 -3 -81 -18 4 -9 11
-63 15 -121 5 -58 10 -126 13 -153 l5 -47 -72 -1 c-40 -1 -83 -4 -97 -8 l-25
-8 27 -13 c22 -10 42 -11 100 -1 40 7 189 15 331 18 141 3 257 10 257 15 0 21
-66 35 -140 28 -41 -4 -76 -6 -77 -5 -7 4 18 258 27 275 9 17 6 23 -22 40 -35
21 -80 24 -138 9z m65 -50 c4 -11 5 -22 3 -23 -6 -5 -146 -26 -172 -26 -21 0
-26 5 -26 24 0 23 5 25 68 31 37 4 72 8 77 10 26 9 44 3 50 -16z m5 -88 c0
-28 0 -28 -77 -35 -43 -3 -88 -9 -100 -12 -20 -6 -23 -3 -23 25 0 30 2 31 43
32 23 0 62 4 87 8 70 13 70 13 70 -18z m0 -128 l0 -68 -95 -3 -95 -4 0 31 0
31 59 0 c72 0 121 9 121 23 0 10 -110 4 -157 -9 -20 -6 -23 -3 -23 24 0 34 -7
32 153 40 l37 2 0 -67z"/>
  <path d="M309 156 c-12 -18 -48 -48 -78 -67 -30 -18 -50 -34 -44 -36 11 -4
101 38 182 85 40 23 42 26 25 39 -31 22 -60 15 -85 -21z"/>
  <path d="M520 186 c0 -8 99 -99 131 -119 25 -17 30 -17 35 -4 14 38 -1 61 -57
88 -58 29 -109 45 -109 35z"/>
</g>
<g id="part-1" class="char-part">
  <path d="M470 583 c-43 -8 -100 -12 -134 -9 -57 6 -58 5 -52 -17 3 -12 10 -85
16 -162 6 -77 14 -143 16 -147 3 -4 12 -8 20 -8 11 0 14 16 14 69 l0 68 68 7
c37 4 82 9 100 12 l32 6 0 -71 0 -71 28 0 29 0 10 133 c6 72 14 141 17 153 7
18 1 24 -33 38 -23 9 -45 15 -49 15 -4 -1 -41 -8 -82 -16z m80 -52 c0 -27 -2
-28 -62 -34 -35 -4 -80 -10 -100 -13 l-38 -7 0 36 0 36 58 4 c149 9 142 10
142 -22z m0 -74 l0 -34 -82 -11 c-117 -17 -118 -17 -118 16 0 28 1 28 98 44
53 8 98 16 100 17 1 0 2 -14 2 -32z"/>
</g>
<g id="part-2" class="char-part">
  <path d="M408 331 c-71 -10 -70 -21 3 -21 78 0 139 10 139 21 0 10 -70 10
-142 0z"/>
</g>
<g id="part-3" class="char-part">
  <path d="M605 264 c-88 -7 -231 -17 -318 -22 -87 -6 -161 -13 -165 -17 -15
-15 27 -26 78 -20 148 16 291 24 453 24 97 1 177 5 177 10 0 12 -21 28 -45 33
-11 3 -92 -1 -180 -8z"/>
</g>
<g id="part-4" class="char-part">
  <path d="M314 161 c-9 -16 -44 -46 -77 -67 -116 -74 -10 -39 132 44 40 23 42
26 25 39 -30 22 -61 16 -80 -16z"/>
  <path d="M589 120 c40 -39 79 -69 85 -67 19 6 19 48 0 68 -19 22 -82 52 -129
62 -27 6 -22 -1 44 -63z"/>
</g>
</g>
</svg>