<?xml version="1.0" standalone="no"?>
<!DOCTYPE svg PUBLIC "-//W3C//DTD SVG 20010904//EN"
 "http://www.w3.org/TR/2001/REC-SVG-20010904/DTD/svg10.dtd">
<svg version="1.0" xmlns="http://www.w3.org/2000/svg"
 width="96.000000pt" height="68.000000pt" viewBox="0 0 96.000000 68.000000"
 preserveAspectRatio="xMidYMid meet">
<metadata>
Created by potrace 1.16, written by Peter Selinger 2001-2019
Combined from part_0.svg through part_5.svg with named groups
</metadata>
<g transform="translate(0.000000,68.000000) scale(0.100000,-0.100000)" fill="#000000" stroke="none">
<g id="part-0" class="char-part">
  <path d="M240 581 c0 -21 53 -71 75 -71 25 0 38 21 29 45 -9 22 -104 46 -104
26z"/>
  <path d="M565 469 c-104 -17 -115 -20 -109 -30 3 -6 22 -9 40 -7 38 4 42 -2
47 -72 2 -31 -1 -35 -28 -41 -16 -4 -49 -7 -72 -8 -24 0 -43 -5 -43 -10 0 -14
46 -22 90 -15 35 6 40 4 40 -13 0 -30 -57 -110 -101 -141 -49 -35 -50 -48 -1
-23 49 25 105 80 126 125 18 39 30 45 40 20 9 -23 77 -124 102 -151 20 -21 29
-24 91 -21 l68 3 -65 33 c-36 18 -84 49 -106 70 -50 45 -98 108 -87 115 4 2
45 5 91 6 85 2 112 7 112 22 0 15 -66 21 -125 10 -90 -17 -88 -17 -83 33 3 25
1 49 -5 55 -15 15 -9 18 58 24 33 3 61 6 63 6 2 1 0 6 -3 11 -7 12 -68 11
-140 -1z"/>
  <path d="M265 450 c-27 -10 -64 -19 -82 -19 -40 -1 -64 -11 -57 -22 8 -13 48
-11 116 7 33 8 64 14 69 12 5 -2 -6 -19 -24 -38 -18 -19 -44 -50 -59 -68 -15
-18 -51 -51 -79 -73 -28 -23 -48 -43 -45 -46 6 -6 102 51 133 80 21 19 23 19
29 2 4 -9 2 -58 -4 -107 -11 -92 -4 -134 21 -125 8 2 13 37 15 103 3 127 5
131 39 104 17 -13 30 -17 36 -11 17 17 0 37 -42 50 -23 6 -41 18 -41 26 0 7
23 35 50 63 40 38 48 51 38 60 -25 20 -63 21 -113 2z"/>
</g>
<g id="part-1" class="char-part">
  <path d="M240 581 c0 -17 70 -73 84 -68 17 7 20 25 8 44 -8 13 -92 35 -92 24z"/>
</g>
<g id="part-2" class="char-part">
  <path d="M321 443 c-20 -43 -110 -145 -172 -194 -31 -24 -56 -45 -54 -47 7 -7
74 28 118 62 60 46 65 37 48 -86 -8 -64 -8 -94 -1 -109 22 -41 35 -14 37 77 2
49 5 100 9 113 l5 24 23 -22 c29 -28 48 -27 44 2 -2 16 -15 26 -45 37 -24 8
-43 19 -43 25 0 6 23 33 50 60 l51 50 -22 18 c-28 23 -34 22 -48 -10z"/>
</g>
<g id="part-3" class="char-part">
  <path d="M560 469 c-25 -4 -60 -11 -79 -14 -24 -5 -31 -9 -23 -17 11 -11 39
-8 220 18 18 3 30 9 27 15 -7 11 -82 10 -145 -2z"/>
</g>
<g id="part-4" class="char-part">
  <path d="M537 413 c4 -16 7 -41 7 -58 1 -30 1 -30 -71 -39 -40 -5 -73 -13 -73
-17 0 -13 44 -18 88 -10 39 8 42 7 42 -13 -1 -39 -56 -113 -112 -152 -48 -33
-43 -42 9 -16 52 27 105 80 127 129 l18 41 49 -71 c90 -133 84 -128 164 -125
l70 3 -60 29 c-33 16 -77 42 -97 58 -34 26 -108 117 -108 132 0 3 42 6 93 6
104 0 139 12 92 30 -22 9 -46 9 -91 1 -97 -17 -96 -18 -93 35 3 47 -8 64 -44
64 -14 0 -16 -5 -10 -27z"/>
</g>
</g>
</svg>