<?xml version="1.0" standalone="no"?>
<!DOCTYPE svg PUBLIC "-//W3C//DTD SVG 20010904//EN"
 "http://www.w3.org/TR/2001/REC-SVG-20010904/DTD/svg10.dtd">
<svg version="1.0" xmlns="http://www.w3.org/2000/svg"
 width="96.000000pt" height="68.000000pt" viewBox="0 0 96.000000 68.000000"
 preserveAspectRatio="xMidYMid meet">
<metadata>
Created by potrace 1.16, written by Peter Selinger 2001-2019
Combined from part_0.svg through part_5.svg with named groups
</metadata>
<g transform="translate(0.000000,68.000000) scale(0.100000,-0.100000)" fill="#000000" stroke="none">
<g id="part-0" class="char-part">
  <path d="M575 603 c5 -10 10 -32 12 -49 5 -34 -10 -44 -74 -44 -54 0 -37 -19
19 -22 48 -3 51 -5 52 -30 2 -29 -20 -38 -98 -38 -49 0 -88 -19 -43 -21 15 -1
32 -3 37 -4 6 -1 14 -3 18 -4 8 -1 52 -73 52 -84 0 -3 -18 -8 -40 -12 -56 -9
-40 -25 26 -25 53 0 54 -1 54 -29 0 -29 -1 -30 -67 -36 -38 -3 -77 -7 -88 -8
l-20 -2 20 -12 c13 -7 43 -9 88 -4 l67 7 0 -77 c0 -123 31 -110 46 19 l6 59
95 6 c52 3 97 8 101 11 14 15 -17 21 -105 19 l-94 -2 3 27 c3 31 19 40 68 41
19 1 42 5 50 11 12 8 12 10 -3 16 -10 3 -31 4 -47 0 -38 -7 -38 0 3 42 21 23
28 36 20 39 -32 11 -8 23 47 23 59 0 79 13 39 25 -11 4 -58 4 -105 0 l-86 -7
4 28 c3 27 7 29 54 35 29 4 57 10 64 14 23 14 -13 25 -62 19 l-47 -6 -3 43
c-3 42 -5 44 -37 47 -29 3 -33 1 -26 -15z m105 -203 c0 -30 -32 -81 -55 -90
-38 -15 -43 -13 -50 19 -3 16 -18 38 -33 48 l-27 18 40 6 c67 10 125 10 125
-1z"/>
  <path d="M228 486 c-3 -51 -8 -98 -12 -105 -4 -6 -33 -11 -67 -11 -45 0 -59
-3 -59 -15 0 -24 44 -47 75 -39 29 7 31 1 10 -48 -5 -12 4 -22 34 -40 23 -13
41 -26 41 -30 0 -11 -73 -63 -110 -78 -40 -16 -38 -31 3 -24 28 6 81 33 128
66 14 9 23 6 49 -16 35 -29 73 -31 78 -4 2 11 -12 28 -37 46 -36 26 -39 31
-27 48 7 10 21 42 31 69 10 28 27 57 38 66 18 15 18 16 -7 32 -34 23 -74 22
-72 0 1 -13 -8 -19 -31 -21 -18 -2 -33 0 -33 5 0 4 12 41 27 82 l27 74 -23 18
c-13 11 -31 19 -41 19 -15 0 -18 -13 -22 -94z m82 -204 c-21 -49 -23 -50 -51
-40 -38 13 -43 22 -29 62 9 28 17 35 53 42 52 12 56 3 27 -64z"/>
</g>
<g id="part-1" class="char-part">
  <path d="M236 532 c3 -27 1 -74 -5 -104 -13 -62 -22 -68 -100 -68 l-44 0 19
-21 c15 -17 27 -20 57 -16 31 4 37 3 33 -10 -21 -53 -19 -61 23 -85 22 -13 41
-26 41 -29 0 -10 -59 -53 -105 -77 -30 -16 -35 -21 -19 -22 22 0 108 42 136
67 16 14 21 13 53 -16 42 -37 65 -40 65 -8 0 14 -13 30 -36 45 -20 13 -33 29
-30 35 3 7 17 41 31 77 15 36 33 70 41 76 18 14 3 29 -39 39 -23 6 -27 4 -27
-14 0 -18 -6 -21 -39 -21 l-40 0 29 85 29 85 -29 15 c-46 24 -51 20 -44 -33z
m94 -194 c-1 -31 -36 -108 -50 -108 -12 0 -70 28 -70 34 0 2 7 20 15 39 11 27
24 39 48 46 50 14 57 13 57 -11z"/>
</g>
<g id="part-2" class="char-part">
  <path d="M574 603 c4 -10 10 -32 13 -49 4 -26 2 -32 -18 -37 -13 -4 -39 -7
-56 -7 -18 0 -33 -4 -33 -10 0 -5 23 -10 50 -10 48 0 50 -1 50 -29 0 -26 -3
-29 -46 -35 -26 -3 -60 -6 -75 -6 -16 0 -29 -4 -29 -9 0 -17 54 -22 125 -12
39 5 121 13 184 17 103 6 112 8 95 21 -15 12 -39 13 -112 8 l-94 -7 4 29 c3
26 7 28 62 35 65 8 71 11 61 28 -5 7 -25 9 -60 5 l-54 -7 -3 43 c-3 42 -5 44
-37 47 -29 3 -33 1 -27 -15z"/>
</g>
<g id="part-3" class="char-part">
  <path d="M667 361 c-12 -34 -24 -50 -39 -55 -39 -10 -46 -7 -53 24 -6 29 -49
69 -61 57 -3 -3 4 -23 15 -45 l20 -40 -40 -6 c-25 -4 -37 -10 -33 -17 9 -15
165 -5 272 17 37 8 13 26 -29 22 -22 -2 -39 -1 -39 1 0 3 15 20 32 38 27 28
30 35 18 43 -30 19 -45 10 -63 -39z"/>
</g>
<g id="part-4" class="char-part">
  <path d="M603 273 c-7 -2 -13 -17 -13 -33 0 -24 -5 -28 -37 -34 -21 -3 -57 -6
-80 -6 -23 0 -45 -4 -48 -10 -7 -12 8 -14 98 -10 l67 2 0 -68 c0 -38 4 -76 10
-84 16 -25 28 22 39 153 1 4 25 7 54 8 28 1 77 4 107 8 53 7 54 8 28 19 -18 7
-56 9 -108 5 l-80 -6 0 32 c0 30 -9 36 -37 24z"/>
</g>
</g>
</svg>