<?xml version="1.0" standalone="no"?>
<!DOCTYPE svg PUBLIC "-//W3C//DTD SVG 20010904//EN"
 "http://www.w3.org/TR/2001/REC-SVG-20010904/DTD/svg10.dtd">
<svg version="1.0" xmlns="http://www.w3.org/2000/svg"
 width="96.000000pt" height="68.000000pt" viewBox="0 0 96.000000 68.000000"
 preserveAspectRatio="xMidYMid meet">
<metadata>
Created by potrace 1.16, written by Peter Selinger 2001-2019
Combined from part_0.svg through part_5.svg with named groups
</metadata>
<g transform="translate(0.000000,68.000000) scale(0.100000,-0.100000)" fill="#000000" stroke="none">
<g id="part-0" class="char-part">
  <path d="M296 576 c-9 -45 -90 -168 -151 -228 -27 -26 -46 -51 -43 -54 8 -7
90 40 113 66 10 11 22 20 27 20 12 0 9 -108 -5 -171 -15 -60 -8 -95 19 -106
26 -10 32 13 39 154 6 98 4 137 -5 148 -10 11 -2 28 39 88 28 40 51 77 51 82
0 13 -34 34 -56 35 -17 0 -23 -8 -28 -34z"/>
  <path d="M477 583 c-4 -3 -7 -15 -7 -25 0 -22 -41 -91 -79 -132 l-26 -29 25
13 c14 7 39 24 56 37 21 15 44 23 72 23 l42 0 0 -59 0 -59 -67 -6 c-124 -12
-153 -18 -146 -29 4 -6 42 -8 109 -4 l104 7 0 -119 c0 -117 4 -151 20 -151 15
0 23 45 29 160 l6 115 107 5 c59 3 111 9 115 14 19 18 -28 27 -121 21 l-99 -5
5 50 c3 28 1 53 -3 56 -20 12 -6 20 39 22 58 3 84 11 77 23 -9 14 -90 11 -157
-7 -73 -18 -99 -16 -77 6 38 40 40 47 24 64 -17 17 -37 21 -48 9z"/>
</g>
<g id="part-1" class="char-part">
  <path d="M306 598 c-2 -7 -7 -26 -11 -43 -8 -36 -82 -144 -144 -207 -57 -61
-41 -61 39 -2 l62 45 -5 -93 c-3 -51 -9 -109 -12 -128 -8 -43 16 -83 37 -62
20 20 30 260 12 289 -13 21 -11 27 23 75 20 29 46 63 57 76 17 19 18 24 5 36
-22 21 -58 30 -63 14z"/>
</g>
<g id="part-2" class="char-part">
  <path d="M477 583 c-2 -5 -7 -20 -10 -34 -4 -15 -27 -54 -52 -88 -25 -33 -41
-61 -36 -61 4 0 28 15 52 33 30 23 57 34 84 35 22 2 65 7 95 12 30 5 72 12 94
15 25 4 35 10 29 16 -15 15 -79 13 -153 -5 -91 -22 -96 -21 -66 15 31 37 32
45 7 59 -23 12 -38 13 -44 3z"/>
</g>
<g id="part-3" class="char-part">
  <path d="M567 473 c-4 -3 -7 -32 -7 -64 l0 -57 -62 -6 c-138 -14 -158 -18
-152 -28 5 -7 43 -9 110 -5 l104 6 0 -119 c0 -116 4 -150 20 -150 17 0 24 39
29 155 l6 120 107 5 c59 3 111 9 115 14 19 18 -27 27 -119 22 -108 -7 -113 -4
-95 63 6 25 5 36 -5 42 -16 10 -42 12 -51 2z"/>
</g>
</g>
</svg>