<?xml version="1.0" standalone="no"?>
<!DOCTYPE svg PUBLIC "-//W3C//DTD SVG 20010904//EN"
 "http://www.w3.org/TR/2001/REC-SVG-20010904/DTD/svg10.dtd">
<svg version="1.0" xmlns="http://www.w3.org/2000/svg"
 width="96.000000pt" height="68.000000pt" viewBox="0 0 96.000000 68.000000"
 preserveAspectRatio="xMidYMid meet">
<metadata>
Created by potrace 1.16, written by Peter Selinger 2001-2019
Combined from part_0.svg through part_5.svg with named groups
</metadata>
<g transform="translate(0.000000,68.000000) scale(0.100000,-0.100000)" fill="#000000" stroke="none">
<g id="part-0" class="char-part">
  <path d="M490 625 c0 -28 -4 -35 -19 -35 -11 0 -23 -4 -26 -10 -3 -5 3 -10 15
-10 18 0 20 -4 14 -22 -8 -28 -22 -37 -54 -39 -14 0 -34 -2 -46 -4 -17 -4 -20
0 -16 24 2 19 12 32 26 37 20 6 20 7 -6 11 -18 3 -28 12 -32 29 -5 19 -13 24
-36 24 -29 0 -40 -13 -20 -25 6 -3 10 -13 10 -21 0 -11 -14 -14 -60 -14 -46 0
-60 -3 -60 -15 0 -21 41 -29 92 -18 41 9 45 8 55 -14 11 -22 10 -23 -29 -23
-33 0 -38 -2 -29 -14 6 -8 17 -33 24 -57 l13 -43 47 3 c42 2 47 0 47 -18 0
-18 -6 -21 -47 -22 -27 -1 -60 -3 -75 -4 -16 -2 -29 2 -32 11 -3 8 -14 14 -25
14 -14 0 -19 -5 -15 -15 5 -11 -1 -15 -20 -15 -14 0 -26 -4 -26 -10 0 -5 14
-10 30 -10 17 0 30 -5 31 -12 0 -7 2 -26 2 -42 3 -50 27 -44 27 7 0 52 9 57
102 57 51 0 56 -2 51 -20 -4 -17 -14 -20 -56 -20 -38 0 -48 -3 -40 -11 16 -16
53 -15 142 1 57 10 76 11 79 2 6 -19 34 -14 30 4 -5 28 -35 41 -58 26 -31 -19
-60 -15 -60 8 0 12 7 20 18 20 9 1 59 3 110 6 l92 6 0 -25 c0 -38 -10 -57 -31
-57 -22 0 -23 -8 -4 -33 29 -39 72 4 90 90 6 29 4 34 -20 43 -18 7 -55 7 -113
0 -130 -15 -142 -14 -142 11 0 20 4 21 55 16 l54 -5 31 56 c36 66 31 76 -38
76 -48 1 -49 2 -35 22 11 17 28 23 83 28 65 7 91 18 76 34 -8 8 -79 5 -107 -3
-18 -6 -19 -4 -10 14 9 17 8 22 -8 31 -37 19 -51 13 -51 -25z m48 -137 c3 -15
-4 -18 -47 -18 -38 0 -51 4 -51 14 0 29 93 32 98 4z m-138 -13 c0 -8 -6 -16
-12 -16 -7 -1 -28 -3 -45 -5 -23 -3 -33 0 -33 9 0 21 11 27 52 27 27 0 38 -4
38 -15z m133 -21 c16 -17 -8 -34 -49 -34 -57 0 -62 27 -6 33 20 2 40 4 43 5 3
1 8 -1 12 -4z m-133 -29 c0 -11 -11 -15 -40 -15 -29 0 -40 4 -40 15 0 11 11
15 40 15 29 0 40 -4 40 -15z"/>
  <path d="M395 247 l-91 -12 12 -25 c7 -14 15 -33 18 -42 4 -14 12 -16 35 -12
26 5 32 3 40 -17 12 -33 3 -49 -24 -49 -37 0 -82 20 -66 29 10 6 9 12 -4 25
-25 24 -42 19 -49 -15 -5 -28 -17 -42 -86 -98 -46 -38 25 -6 92 42 25 17 30
17 204 -28 l179 -45 75 23 75 24 -45 6 c-25 4 -101 9 -170 12 -128 7 -160 16
-139 41 6 8 15 11 21 8 5 -3 27 -3 48 1 57 10 39 28 -19 20 -40 -5 -48 -4 -48
9 0 11 13 18 38 22 21 4 37 10 34 14 -3 4 5 20 16 34 12 15 19 29 16 32 -11
11 -78 11 -162 1z m102 -23 c9 -23 -6 -31 -75 -42 -57 -8 -64 -7 -73 10 -15
27 -6 32 64 39 34 3 66 7 70 7 4 1 10 -5 14 -14z"/>
</g>
<g id="part-1" class="char-part">
  <path d="M500 625 c0 -18 -8 -29 -27 -37 -27 -11 -27 -12 -6 -15 19 -4 21 -8
13 -29 -12 -31 -5 -31 23 1 14 16 37 27 62 30 89 12 105 16 99 27 -4 6 -27 8
-64 4 -54 -6 -57 -6 -56 16 1 17 -5 24 -21 26 -19 3 -23 -1 -23 -23z"/>
  <path d="M294 602 c15 -29 14 -30 -7 -36 -12 -3 -39 -6 -59 -6 -21 0 -38 -4
-38 -9 0 -17 38 -22 80 -11 38 10 43 9 60 -12 l19 -23 1 26 c0 17 8 30 23 37
l22 12 -24 -3 c-19 -1 -26 4 -31 23 -4 18 -14 26 -34 28 -27 3 -27 3 -12 -26z"/>
</g>
<g id="part-2" class="char-part">
  <path d="M467 520 c-16 -5 -68 -12 -117 -16 -78 -6 -87 -8 -79 -23 5 -9 15
-34 23 -56 10 -29 18 -39 32 -38 11 1 66 4 123 6 l103 4 29 54 c28 50 29 55
12 66 -19 14 -83 16 -126 3z m73 -30 c0 -17 -7 -20 -50 -20 -37 0 -50 4 -50
14 0 13 17 18 83 24 11 1 17 -5 17 -18z m-140 -15 c0 -9 -9 -15 -22 -15 -13 0
-33 -3 -45 -6 -19 -5 -23 -2 -23 15 0 18 6 21 45 21 33 0 45 -4 45 -15z m130
-35 c0 -17 -7 -20 -45 -20 -55 0 -65 26 -12 33 17 2 38 5 45 5 6 1 12 -7 12
-18z m-130 -16 c0 -11 -9 -14 -37 -12 -52 4 -56 28 -4 28 30 0 41 -4 41 -16z"/>
</g>
<g id="part-3" class="char-part">
  <path d="M605 374 c-11 -3 -92 -10 -180 -18 -137 -12 -162 -12 -176 0 -21 19
-53 18 -45 -1 4 -11 -1 -15 -19 -15 -14 0 -25 -4 -25 -10 0 -5 14 -10 30 -10
27 0 30 -3 30 -34 0 -19 3 -41 6 -50 11 -28 24 -6 24 39 l0 44 43 5 c75 10
271 26 320 26 43 0 47 -2 47 -24 0 -37 -10 -56 -31 -56 -16 0 -17 -3 -7 -25
12 -27 39 -33 57 -11 6 7 18 37 27 67 15 50 15 54 -2 66 -17 12 -55 15 -99 7z"/>
</g>
<g id="part-4" class="char-part">
  <path d="M270 141 c0 -25 -34 -67 -83 -102 -22 -16 -37 -29 -33 -29 16 0 83
33 113 56 l33 25 152 -40 c84 -22 166 -42 181 -45 25 -4 172 32 163 41 -2 2
-41 6 -87 9 -120 7 -275 23 -342 36 -49 9 -55 13 -45 25 10 12 9 18 -7 29 -26
19 -45 17 -45 -5z"/>
</g>
</g>
</svg>