<?xml version="1.0" standalone="no"?>
<!DOCTYPE svg PUBLIC "-//W3C//DTD SVG 20010904//EN"
 "http://www.w3.org/TR/2001/REC-SVG-20010904/DTD/svg10.dtd">
<svg version="1.0" xmlns="http://www.w3.org/2000/svg"
 width="96.000000pt" height="68.000000pt" viewBox="0 0 96.000000 68.000000"
 preserveAspectRatio="xMidYMid meet">
<metadata>
Created by potrace 1.16, written by Peter Selinger 2001-2019
Combined from part_0.svg through part_5.svg with named groups
</metadata>
<g transform="translate(0.000000,68.000000) scale(0.100000,-0.100000)" fill="#000000" stroke="none">
<g id="part-0" class="char-part">
  <path d="M261 553 c-8 -20 -36 -61 -64 -90 -55 -59 -45 -69 24 -24 43 28 99
48 99 35 0 -4 -12 -25 -27 -48 l-28 -42 -63 1 c-61 1 -87 -7 -58 -18 8 -3 17
-21 21 -39 4 -18 12 -48 18 -66 10 -28 15 -32 37 -27 14 3 56 6 92 7 l66 1 17
46 c10 25 23 56 31 68 18 28 -2 46 -55 47 -33 1 -38 4 -30 17 5 9 25 31 46 48
32 25 35 32 23 41 -20 13 -52 13 -87 -1 l-28 -10 25 26 25 27 -24 19 c-33 27
-45 24 -60 -18z m119 -177 c-6 -6 -10 -18 -10 -28 0 -14 -8 -18 -35 -18 -28 0
-35 4 -35 20 0 11 -5 20 -11 20 -5 0 -8 3 -6 8 3 4 28 7 56 7 32 0 47 -3 41
-9z m-120 -31 c0 -24 -3 -26 -32 -23 -24 2 -34 8 -36 23 -2 17 3 21 33 23 32
2 35 0 35 -23z m94 -34 c12 -19 -7 -41 -35 -41 -32 0 -37 11 -13 34 17 18 40
21 48 7z m-92 -36 c-3 -18 -11 -25 -28 -25 -33 0 -35 47 -1 52 31 6 35 2 29
-27z"/>
  <path d="M588 516 l4 -73 -32 -7 c-18 -3 -48 -6 -66 -6 -19 0 -34 -5 -34 -11
0 -7 21 -10 60 -7 35 2 60 -1 61 -7 0 -5 0 -34 -1 -62 -1 -47 1 -53 19 -53 19
0 21 6 21 65 l0 65 38 0 c20 0 54 3 75 7 56 9 26 23 -50 23 -62 0 -63 0 -63
28 0 15 4 41 9 59 10 33 -1 53 -29 53 -13 0 -15 -12 -12 -74z"/>
  <path d="M688 520 c-15 -22 -25 -40 -23 -40 6 0 87 40 94 46 7 6 -21 34 -33
34 -6 -1 -23 -19 -38 -40z"/>
  <path d="M491 494 c15 -15 35 -24 45 -22 18 3 17 5 -4 26 -12 12 -32 22 -44
22 -22 0 -22 0 3 -26z"/>
  <path d="M490 360 c-14 -15 -32 -29 -40 -32 -8 -3 -12 -9 -8 -13 7 -8 108 44
108 56 0 6 -28 21 -33 18 -1 -1 -13 -14 -27 -29z"/>
  <path d="M680 387 c0 -7 73 -53 98 -61 32 -10 30 27 -2 42 -28 13 -96 26 -96
19z"/>
  <path d="M690 292 c0 -22 -6 -31 -22 -36 -35 -9 -88 -7 -88 3 0 5 -18 8 -40 7
-38 -3 -54 7 -27 17 9 4 8 8 -3 16 -22 16 -23 15 -58 -34 l-32 -46 29 -28 28
-27 -20 -25 c-10 -13 -38 -36 -61 -51 -51 -34 -41 -36 22 -4 26 13 73 53 106
90 33 36 64 66 69 66 5 0 7 -15 4 -32 -3 -18 -7 -42 -9 -53 -3 -22 10 -24 68
-10 l32 7 4 -66 c6 -105 30 -106 36 -1 l4 65 55 0 c73 0 68 24 -6 28 -50 3
-52 4 -49 30 2 20 11 29 36 36 40 11 42 26 3 26 -23 0 -30 5 -33 23 -2 14 -11
23 -25 25 -19 3 -23 -1 -23 -26z m-160 -61 c0 -5 -8 -19 -19 -32 -17 -22 -19
-22 -35 -6 -10 9 -23 17 -29 17 -7 0 -3 7 7 15 22 16 76 20 76 6z m160 -31 c0
-23 -5 -31 -24 -36 -37 -9 -47 1 -34 36 7 22 16 30 34 30 20 0 24 -5 24 -30z"/>
  <path d="M363 183 c21 -21 29 -25 39 -15 9 9 8 15 -8 27 -10 8 -28 15 -39 15
-18 0 -17 -3 8 -27z"/>
  <path d="M120 165 c-23 -36 -21 -65 3 -65 17 0 37 42 37 75 0 35 -15 31 -40
-10z"/>
  <path d="M280 194 c0 -13 21 -44 30 -44 16 0 11 37 -6 44 -19 7 -24 8 -24 0z"/>
  <path d="M212 165 c11 -24 38 -35 38 -16 0 23 -14 41 -31 41 -16 0 -17 -3 -7
-25z"/>
</g>
<g id="part-1" class="char-part">
  <path d="M262 546 c-7 -19 -34 -58 -60 -87 -49 -54 -35 -55 36 -2 21 16 42 23
62 21 l30 -3 -25 -37 c-38 -56 -7 -49 57 12 44 41 50 52 38 60 -14 10 -35 9
-90 -6 l-25 -7 25 27 c24 27 25 28 6 42 -30 21 -41 17 -54 -20z"/>
</g>
<g id="part-2" class="char-part">
  <path d="M357 185 c19 -26 38 -32 48 -14 8 13 -23 38 -48 39 -17 0 -17 -1 0
-25z"/>
  <path d="M120 168 c-26 -43 -26 -68 0 -68 22 0 40 34 40 76 0 33 -17 30 -40
-8z"/>
  <path d="M282 178 c8 -12 20 -24 26 -26 18 -6 14 35 -4 42 -30 11 -37 6 -22
-16z"/>
  <path d="M207 170 c7 -26 29 -44 38 -30 11 17 -5 50 -25 50 -13 0 -17 -5 -13
-20z"/>
</g>
<g id="part-3" class="char-part">
  <path d="M584 568 c3 -13 6 -42 6 -65 0 -65 23 -55 36 15 12 60 7 72 -30 72
-14 0 -17 -5 -12 -22z"/>
  <path d="M687 520 c-15 -22 -25 -40 -22 -40 2 0 25 10 50 22 48 23 57 51 19
56 -15 2 -28 -8 -47 -38z"/>
  <path d="M470 515 c0 -8 51 -55 60 -55 21 0 22 25 0 42 -20 16 -60 25 -60 13z"/>
</g>
<g id="part-4" class="char-part">
  <path d="M582 443 c-8 -8 -35 -13 -67 -13 -30 0 -55 -4 -55 -10 0 -6 28 -10
63 -10 l63 0 -1 -57 c0 -45 3 -58 15 -58 11 0 16 15 18 63 3 61 3 62 32 63 17
1 35 3 40 4 6 1 27 3 48 4 61 3 16 18 -68 23 -55 3 -79 1 -88 -9z"/>
  <path d="M510 380 c0 -5 -19 -24 -42 -41 -40 -30 -41 -31 -14 -25 24 6 65 29
96 53 5 5 -21 23 -32 23 -5 0 -8 -4 -8 -10z"/>
  <path d="M680 387 c0 -7 95 -67 107 -67 25 0 21 30 -5 44 -29 15 -102 32 -102
23z"/>
</g>
<g id="part-5" class="char-part">
  <path d="M690 296 c0 -13 6 -26 13 -29 6 -2 0 -8 -15 -12 -28 -7 -40 -24 -15
-21 6 0 12 -2 12 -5 0 -3 7 -14 15 -24 12 -15 12 -17 1 -10 -11 6 -13 4 -8 -8
4 -10 0 -20 -11 -26 -10 -6 -12 -11 -4 -11 6 0 12 -7 12 -16 0 -8 3 -13 8 -11
4 3 6 -23 5 -56 l-1 -62 14 39 c16 44 15 96 -1 96 -5 0 -4 4 4 9 7 5 23 6 35
4 18 -4 19 -3 6 7 -12 10 -10 11 10 5 41 -10 45 -10 48 0 1 6 -16 11 -38 12
-22 0 -44 2 -49 2 -11 1 -10 71 1 71 4 0 8 5 8 11 0 5 -6 7 -12 3 -10 -6 -10
-4 0 7 18 19 15 29 -9 29 -11 0 -17 5 -14 10 3 6 1 10 -4 10 -6 0 -11 -11 -11
-24z"/>
  <path d="M755 259 c-4 -6 -5 -12 -2 -15 2 -3 7 2 10 11 7 17 1 20 -8 4z"/>
  <path d="M608 233 c-1 -18 -4 -34 -8 -43 -1 -3 -3 -15 -4 -27 -2 -17 2 -21 21
-19 35 4 37 13 6 21 -24 6 -26 8 -10 16 11 7 16 18 13 34 -3 18 -1 22 11 18
11 -4 14 -2 9 5 -11 18 -36 14 -38 -5z"/>
</g>
</g>
</svg>