<?xml version="1.0" standalone="no"?>
<!DOCTYPE svg PUBLIC "-//W3C//DTD SVG 20010904//EN"
 "http://www.w3.org/TR/2001/REC-SVG-20010904/DTD/svg10.dtd">
<svg version="1.0" xmlns="http://www.w3.org/2000/svg"
 width="96.000000pt" height="68.000000pt" viewBox="0 0 96.000000 68.000000"
 preserveAspectRatio="xMidYMid meet">
<metadata>
Created by potrace 1.16, written by Peter Selinger 2001-2019
Combined from part_0.svg through part_5.svg with named groups
</metadata>
<g transform="translate(0.000000,68.000000) scale(0.100000,-0.100000)" fill="#000000" stroke="none">
<g id="part-0" class="char-part">
  <path d="M541 574 c-12 -15 -21 -31 -21 -35 0 -5 -21 -6 -47 -3 l-48 5 38 -23
c21 -13 77 -60 125 -105 113 -107 133 -118 205 -109 31 4 57 11 57 16 0 5 -24
16 -52 26 -97 31 -224 103 -208 117 3 2 30 13 59 24 61 22 72 36 42 53 -18 9
-27 5 -66 -31 l-44 -41 -31 22 c-16 12 -30 25 -30 29 0 4 18 18 41 30 22 13
39 24 37 25 -2 1 -10 7 -19 14 -14 11 -20 9 -38 -14z"/>
  <path d="M318 544 c-3 -3 -27 -8 -52 -12 -63 -9 -54 -28 12 -24 28 2 52 0 52
-5 0 -5 -15 -31 -33 -56 -33 -47 -34 -47 -52 -27 -19 20 -65 28 -65 10 0 -5
12 -17 28 -27 15 -9 29 -18 30 -19 2 -1 -6 -12 -17 -23 -12 -12 -21 -18 -21
-14 0 4 -7 -2 -15 -15 -9 -12 -37 -34 -63 -49 -31 -18 -41 -29 -30 -31 18 -3
92 32 150 72 21 14 53 28 73 32 33 6 35 5 35 -20 0 -30 -18 -41 -81 -50 -43
-6 -45 -8 -41 -34 2 -18 -2 -33 -12 -41 -9 -8 -16 -20 -16 -27 0 -19 34 -18
50 1 7 9 29 15 52 15 l40 0 -7 -42 c-14 -80 -21 -91 -60 -86 -35 4 -35 0 2
-39 32 -35 68 3 95 101 21 76 14 86 -58 86 -30 0 -54 3 -54 6 0 24 25 42 67
48 43 5 48 9 50 33 0 15 6 29 12 31 16 5 13 23 -6 37 -14 10 -25 10 -55 -1
l-39 -13 38 47 c20 26 50 61 66 78 l29 32 -23 16 c-23 16 -70 22 -81 10z"/>
  <path d="M525 390 c-11 -5 -34 -9 -50 -9 -29 -1 -30 -2 -27 -40 2 -24 -3 -53
-12 -72 -21 -42 -15 -46 17 -13 21 21 27 36 27 70 0 42 1 44 30 44 29 0 30 -2
30 -43 0 -59 21 -77 88 -77 41 0 52 3 52 16 0 14 -8 16 -44 12 -64 -8 -73 1
-59 54 10 37 10 45 -4 56 -19 14 -21 14 -48 2z"/>
  <path d="M496 211 l-70 -16 52 -35 c28 -19 50 -39 49 -45 -2 -5 -26 -25 -53
-43 -58 -38 -38 -43 32 -7 27 14 53 25 57 25 5 0 27 -16 50 -35 46 -39 55 -42
64 -19 6 17 -25 51 -65 73 -28 15 -28 23 4 61 26 30 26 31 8 45 -23 18 -41 17
-128 -4z m79 -21 c7 -11 -18 -40 -35 -40 -6 0 -23 8 -38 18 l-26 17 39 6 c22
3 43 7 47 8 4 0 10 -4 13 -9z"/>
</g>
<g id="part-1" class="char-part">
  <path d="M310 540 c-14 -5 -41 -13 -60 -19 -32 -10 -31 -10 23 -7 32 1 60 0
62 -4 14 -22 -122 -175 -198 -223 -26 -16 -46 -31 -44 -33 8 -9 93 35 143 72
61 46 180 192 167 205 -14 14 -65 19 -93 9z"/>
</g>
<g id="part-2" class="char-part">
  <path d="M430 535 c0 -2 15 -13 34 -22 18 -10 75 -56 125 -103 115 -106 129
-114 199 -107 79 8 85 22 16 42 -83 24 -162 66 -219 117 -71 63 -96 78 -127
78 -16 0 -28 -2 -28 -5z"/>
</g>
<g id="part-3" class="char-part">
  <path d="M303 369 c-44 -13 -42 -21 4 -17 28 2 38 -1 41 -13 5 -27 -24 -47
-78 -54 -44 -6 -50 -10 -45 -26 4 -11 -2 -33 -15 -53 -26 -43 -12 -55 34 -27
38 24 96 28 96 8 0 -7 -7 -37 -16 -66 -15 -52 -16 -53 -49 -49 l-33 4 19 -28
c11 -15 29 -28 39 -28 24 0 57 42 65 83 4 18 12 47 18 65 15 42 2 52 -70 52
-52 0 -53 0 -41 25 8 17 19 25 37 25 38 0 72 11 65 21 -2 5 2 22 11 39 9 17
13 35 10 40 -7 12 -49 11 -92 -1z"/>
</g>
<g id="part-4" class="char-part">
  <path d="M448 335 c3 -30 -1 -54 -12 -70 -16 -25 -12 -32 10 -17 20 13 34 50
34 91 0 32 -4 41 -18 41 -14 0 -17 -7 -14 -45z"/>
</g>
<g id="part-5" class="char-part">
  <path d="M528 209 c-9 -6 -2 -9 20 -9 17 0 32 -2 32 -4 0 -2 3 -12 7 -22 4
-11 3 -15 -4 -11 -6 4 -13 0 -17 -8 -6 -18 -46 -20 -46 -3 0 6 -3 8 -7 5 -3
-4 2 -16 12 -27 14 -15 15 -20 4 -20 -12 0 -12 -2 0 -9 11 -7 9 -10 -8 -16
-13 -4 -20 -9 -17 -12 3 -3 16 1 28 9 36 23 57 28 64 16 4 -7 3 -8 -4 -4 -7 4
-12 3 -12 -1 0 -5 19 -23 42 -41 31 -24 44 -29 50 -20 10 16 -70 91 -89 84 -7
-3 -13 1 -13 10 0 9 5 12 12 8 7 -4 8 -3 4 4 -4 7 -2 12 3 12 6 0 11 7 11 15
0 7 8 19 18 25 16 11 16 11 -2 6 -15 -5 -16 -4 -8 6 8 11 2 14 -28 14 -21 1
-44 -2 -52 -7z"/>
  <path d="M445 190 c3 -5 8 -10 11 -10 2 0 4 5 4 10 0 6 -5 10 -11 10 -5 0 -7
-4 -4 -10z"/>
  <path d="M465 60 c-3 -6 1 -7 9 -4 18 7 21 14 7 14 -6 0 -13 -4 -16 -10z"/>
</g>
</g>
</svg>