<?xml version="1.0" standalone="no"?>
<!DOCTYPE svg PUBLIC "-//W3C//DTD SVG 20010904//EN"
 "http://www.w3.org/TR/2001/REC-SVG-20010904/DTD/svg10.dtd">
<svg version="1.0" xmlns="http://www.w3.org/2000/svg"
 width="96.000000pt" height="68.000000pt" viewBox="0 0 96.000000 68.000000"
 preserveAspectRatio="xMidYMid meet">
<metadata>
Created by potrace 1.16, written by Peter Selinger 2001-2019
Combined from part_0.svg through part_5.svg with named groups
</metadata>
<g transform="translate(0.000000,68.000000) scale(0.100000,-0.100000)" fill="#000000" stroke="none">
<g id="part-0" class="char-part">
  <path d="M620 577 c0 -7 -14 -28 -31 -46 -16 -18 -29 -35 -27 -37 6 -5 61 25
92 49 17 14 26 29 22 35 -10 16 -56 15 -56 -1z"/>
  <path d="M410 557 c0 -19 43 -57 63 -57 31 0 19 37 -17 54 -41 19 -46 20 -46
3z"/>
  <path d="M160 508 c0 -17 34 -50 69 -68 19 -10 26 -9 39 3 29 30 3 55 -75 72
-25 5 -33 3 -33 -7z"/>
  <path d="M515 469 c-77 -10 -148 -18 -158 -18 -11 -1 -15 -6 -11 -12 4 -8 30
-10 75 -7 73 6 75 4 59 -36 -7 -21 -16 -26 -42 -26 l-33 0 1 -104 c1 -107 7
-134 27 -118 7 5 53 12 103 15 76 6 93 4 98 -8 7 -19 32 -19 39 -1 3 8 7 61 8
118 2 100 1 103 -22 115 -13 7 -31 11 -39 9 -8 -3 -40 -8 -70 -11 l-54 -7 29
35 c30 35 30 36 115 36 94 1 126 12 92 30 -26 14 -45 13 -217 -10z m113 -121
c3 -14 -3 -18 -24 -18 -15 0 -55 -5 -90 -12 -70 -13 -79 -10 -69 21 6 21 45
29 135 27 34 -1 46 -5 48 -18z m0 -63 c3 -19 -6 -22 -83 -33 -92 -14 -105 -11
-105 18 0 15 12 20 73 28 96 13 111 11 115 -13z m2 -70 c0 -22 -4 -25 -34 -25
-18 0 -61 -3 -95 -6 -58 -7 -61 -6 -61 15 0 11 6 21 13 22 39 2 102 11 106 15
2 2 19 4 38 4 29 0 33 -3 33 -25z"/>
  <path d="M210 350 c-8 -6 -34 -15 -57 -21 -59 -15 -54 -32 7 -27 l50 3 -6 -30
c-4 -23 0 -35 15 -49 12 -11 21 -31 21 -48 l0 -28 -69 0 c-72 0 -86 -6 -71
-30 7 -12 34 -15 117 -15 101 0 117 -3 263 -49 l155 -49 68 17 c89 23 148 47
141 57 -3 5 -54 9 -114 9 -105 0 -260 17 -385 43 -58 13 -60 14 -66 50 -4 23
-15 44 -28 54 l-23 15 39 40 c37 38 37 40 19 54 -23 16 -55 18 -76 4z"/>
</g>
<g id="part-1" class="char-part">
  <path d="M189 476 c39 -40 81 -49 81 -17 0 26 -19 39 -70 47 l-45 7 34 -37z"/>
  <path d="M183 336 c-35 -11 -63 -25 -63 -30 0 -5 23 -6 50 -2 53 7 56 5 40
-24 -8 -15 -4 -27 15 -56 14 -21 25 -47 23 -59 -3 -18 -11 -20 -75 -23 -74 -3
-89 -12 -53 -32 14 -8 32 -8 62 0 55 15 104 7 280 -46 80 -24 162 -44 182 -44
37 0 201 48 193 56 -3 3 -80 9 -171 14 -102 5 -211 17 -282 31 -114 23 -115
24 -109 49 4 19 -1 34 -20 54 -14 15 -25 31 -25 35 0 5 16 21 37 36 l36 28
-23 19 c-26 21 -19 22 -97 -6z"/>
</g>
<g id="part-2" class="char-part">
  <path d="M592 539 c-17 -27 -29 -49 -24 -49 6 0 105 62 122 77 8 7 -24 23 -45
22 -13 0 -32 -18 -53 -50z"/>
  <path d="M400 562 c0 -16 68 -74 79 -68 24 15 11 47 -24 62 -39 16 -55 18 -55
6z"/>
  <path d="M540 474 c-58 -7 -130 -16 -160 -20 -49 -6 -53 -8 -32 -17 17 -8 54
-7 131 1 59 7 138 12 176 13 39 0 79 4 90 9 19 7 18 9 -8 19 -34 13 -59 13
-197 -5z"/>
</g>
<g id="part-3" class="char-part">
  <path d="M483 405 c-12 -38 -11 -38 40 -1 35 25 34 36 -1 36 -24 0 -30 -6 -39
-35z"/>
</g>
<g id="part-4" class="char-part">
  <path d="M630 206 c0 -17 -182 -34 -188 -17 -5 14 -42 14 -42 0 0 -24 21 -50
33 -41 7 5 53 13 103 16 78 6 92 5 97 -8 15 -38 47 -10 47 40 0 19 -5 24 -25
24 -15 0 -25 -6 -25 -14z"/>
</g>
</g>
</svg>