<?xml version="1.0" standalone="no"?>
<!DOCTYPE svg PUBLIC "-//W3C//DTD SVG 20010904//EN"
 "http://www.w3.org/TR/2001/REC-SVG-20010904/DTD/svg10.dtd">
<svg version="1.0" xmlns="http://www.w3.org/2000/svg"
 width="96.000000pt" height="68.000000pt" viewBox="0 0 96.000000 68.000000"
 preserveAspectRatio="xMidYMid meet">
<metadata>
Created by potrace 1.16, written by Peter Selinger 2001-2019
Combined from part_0.svg through part_5.svg with named groups
</metadata>
<g transform="translate(0.000000,68.000000) scale(0.100000,-0.100000)" fill="#000000" stroke="none">
<g id="part-0" class="char-part">
  <path d="M596 524 c-10 -91 -14 -94 -120 -109 -22 -3 -42 -7 -44 -9 -8 -9 62
-17 94 -12 24 5 34 3 34 -6 0 -23 -57 -112 -104 -163 l-47 -50 3 183 c3 211 3
210 -80 196 -26 -4 -67 -8 -91 -8 l-43 -1 1 -121 c2 -147 -9 -203 -55 -267
-20 -27 -33 -51 -30 -54 13 -13 77 52 103 105 24 48 32 56 52 54 15 -3 33 6
52 24 l29 28 0 -75 c0 -80 -9 -107 -31 -93 -8 5 -25 10 -39 11 -23 3 -22 0 17
-37 23 -22 51 -40 62 -40 21 0 51 44 51 74 0 8 9 17 19 21 30 9 117 109 151
174 30 56 34 59 77 65 25 3 67 6 92 7 25 0 55 4 66 8 19 8 18 9 -8 22 -22 10
-43 10 -100 1 -39 -6 -72 -10 -74 -9 -1 1 7 27 17 57 18 51 18 56 3 68 -36 26
-50 15 -57 -44z m-246 -49 c0 -41 -11 -58 -24 -36 -3 4 -19 11 -36 14 -23 5
-30 12 -30 30 0 32 7 37 52 37 l38 0 0 -45z m-13 -95 c10 0 20 -50 11 -50 -2
0 -24 -7 -50 -15 l-48 -14 0 65 0 65 37 -26 c21 -14 43 -25 50 -25z"/>
  <path d="M629 293 c-13 -27 -49 -75 -81 -108 -52 -53 -56 -61 -43 -74 13 -13
28 -12 131 13 l116 29 24 -29 c13 -16 23 -32 24 -36 0 -14 30 -8 36 6 11 29
-24 85 -72 116 -26 16 -50 28 -53 25 -2 -3 5 -19 18 -35 25 -35 26 -34 -74
-48 -114 -16 -114 -18 18 125 25 27 28 35 17 48 -21 25 -37 17 -61 -32z"/>
</g>
<g id="part-1" class="char-part">
  <path d="M325 549 c-16 -6 -50 -8 -75 -5 l-45 4 0 -141 c0 -134 -1 -145 -27
-197 -15 -30 -35 -65 -44 -78 -27 -37 1 -25 38 16 20 22 43 60 53 85 16 41 20
45 37 36 17 -9 26 -6 52 20 18 17 36 31 40 31 10 0 3 -166 -7 -177 -4 -3 -23
-1 -44 5 l-36 11 38 -39 c46 -47 59 -49 81 -15 13 20 17 58 18 207 1 101 6
192 10 204 6 16 2 23 -19 32 -30 14 -29 14 -70 1z m33 -78 c3 -48 1 -53 -15
-46 -10 4 -33 13 -50 19 -43 16 -47 21 -39 50 7 27 25 35 71 33 29 -2 30 -4
33 -56z m-22 -81 c19 0 24 -5 24 -25 0 -21 -9 -30 -42 -45 -60 -27 -82 -26
-74 3 3 12 6 44 6 70 l0 49 31 -26 c17 -14 41 -26 55 -26z"/>
</g>
<g id="part-2" class="char-part">
  <path d="M600 560 c0 -16 -5 -51 -11 -79 l-10 -50 -57 -7 c-31 -4 -66 -10 -77
-14 -18 -7 -17 -9 8 -15 15 -4 46 -5 67 -1 22 3 40 3 40 -2 0 -18 -46 -92 -96
-154 -30 -37 -54 -70 -54 -73 0 -3 20 8 44 24 41 29 117 129 146 193 12 24 19
27 89 33 42 3 92 10 111 14 l35 8 -28 13 c-22 11 -42 11 -100 2 -39 -6 -73 -9
-75 -8 -1 2 6 27 18 55 11 29 18 56 15 61 -3 4 -18 13 -35 18 -29 11 -30 10
-30 -18z"/>
</g>
<g id="part-3" class="char-part">
  <path d="M630 295 c-12 -24 -48 -72 -81 -106 -54 -56 -58 -64 -45 -78 14 -14
27 -12 131 13 l116 28 33 -38 c47 -55 75 -30 40 37 -15 29 -102 94 -113 84 -2
-3 5 -19 17 -35 12 -16 22 -31 22 -34 0 -2 -33 -7 -72 -11 -40 -3 -81 -9 -90
-11 -32 -9 -19 15 48 92 54 61 63 78 54 90 -21 24 -37 16 -60 -31z"/>
</g>
</g>
</svg>