<?xml version="1.0" standalone="no"?>
<!DOCTYPE svg PUBLIC "-//W3C//DTD SVG 20010904//EN"
 "http://www.w3.org/TR/2001/REC-SVG-20010904/DTD/svg10.dtd">
<svg version="1.0" xmlns="http://www.w3.org/2000/svg"
 width="96.000000pt" height="68.000000pt" viewBox="0 0 96.000000 68.000000"
 preserveAspectRatio="xMidYMid meet">
<metadata>
Created by potrace 1.16, written by Peter Selinger 2001-2019
Combined from part_0.svg through part_5.svg with named groups
</metadata>
<g transform="translate(0.000000,68.000000) scale(0.100000,-0.100000)" fill="#000000" stroke="none">
<g id="part-0" class="char-part">
  <path d="M397 521 l6 -50 -41 -7 c-49 -8 -46 -24 4 -24 31 0 34 -2 34 -30 0
-30 -1 -30 -53 -30 -30 0 -56 -2 -59 -5 -3 -3 6 -28 20 -55 21 -43 27 -49 48
-44 15 4 24 2 24 -5 0 -18 -137 -151 -157 -152 -10 0 -13 -3 -7 -5 19 -8 84
26 128 66 24 22 45 38 48 35 2 -3 1 -36 -4 -75 -6 -48 -5 -77 3 -91 19 -37 33
-4 37 88 2 49 6 90 8 93 3 2 15 -8 28 -23 27 -32 56 -36 56 -8 0 13 -15 26
-45 41 -56 27 -58 45 -5 54 30 5 40 11 40 25 0 10 7 24 15 31 40 33 -5 71 -60
50 -20 -8 -27 -7 -31 5 -10 26 3 41 45 54 49 14 45 36 -5 28 -33 -6 -33 -5
-36 36 -2 35 -7 43 -25 45 -21 3 -22 1 -16 -47z m83 -170 c0 -28 -22 -47 -41
-35 -10 6 -12 47 -2 57 3 4 15 7 25 7 13 0 18 -8 18 -29z m-80 -16 c0 -32 -2
-35 -30 -35 -16 0 -30 3 -30 8 0 4 -3 17 -6 29 -4 15 -1 22 13 26 46 12 53 8
53 -28z"/>
  <path d="M627 563 c-5 -9 -29 -119 -28 -128 1 -3 -10 -28 -24 -56 -34 -67 -27
-85 11 -27 21 33 37 47 59 51 17 3 45 9 64 13 33 7 34 7 29 -24 -2 -18 -2 -32
1 -32 13 0 91 45 91 53 0 4 -16 15 -36 24 -32 16 -40 16 -95 2 -68 -18 -72
-13 -39 51 24 47 24 45 4 64 -17 17 -30 20 -37 9z"/>
  <path d="M198 439 c-10 -5 -38 -11 -63 -13 -57 -5 -60 -8 -42 -38 8 -12 18
-39 22 -58 14 -76 22 -84 51 -55 9 8 33 15 55 15 32 0 39 3 39 20 0 10 9 41
19 68 19 47 19 49 0 60 -23 14 -58 15 -81 1z m22 -61 c0 -40 -8 -53 -37 -60
-27 -7 -28 -5 -37 44 -7 39 -1 44 52 47 18 1 22 -4 22 -31z"/>
  <path d="M620 280 c0 -28 -6 -66 -14 -84 -17 -41 -80 -113 -107 -121 -10 -4
-19 -11 -19 -16 0 -5 17 -2 38 6 39 16 122 98 122 121 0 33 28 9 72 -61 l47
-75 46 0 c51 0 57 16 14 37 -31 15 -88 68 -123 116 -23 29 -27 44 -23 71 6 36
-6 56 -35 56 -15 0 -18 -9 -18 -50z"/>
</g>
<g id="part-1" class="char-part">
  <path d="M190 430 c-14 -4 -44 -8 -68 -9 -41 -1 -42 -2 -28 -23 7 -13 19 -47
26 -75 12 -51 22 -64 35 -43 3 6 21 10 38 10 18 0 37 4 42 8 16 11 57 120 50
132 -7 12 -58 12 -95 0z m34 -62 c-8 -52 -4 -47 -41 -54 -30 -6 -31 -4 -38 35
-9 52 -2 61 46 61 l39 0 -6 -42z"/>
</g>
<g id="part-2" class="char-part">
  <path d="M390 544 c6 -14 10 -36 10 -49 0 -19 -7 -24 -40 -30 -47 -8 -44 -25
6 -25 l34 0 0 -60 c0 -32 -5 -72 -12 -87 -20 -46 -93 -127 -143 -158 -25 -16
-42 -31 -36 -33 17 -6 91 38 137 80 l45 41 -3 -91 c-3 -95 5 -119 28 -88 9 13
14 47 14 103 0 46 2 83 5 83 3 0 18 -14 34 -32 29 -33 51 -32 51 3 0 14 -13
26 -45 40 l-46 20 3 92 3 92 43 13 c55 18 55 36 1 29 l-41 -5 5 33 c6 37 -7
55 -40 55 -20 0 -21 -3 -13 -26z"/>
</g>
<g id="part-3" class="char-part">
  <path d="M414 442 c-7 -4 -14 -18 -15 -32 -4 -23 -9 -25 -61 -28 l-57 -3 25
-52 c23 -50 25 -52 60 -49 24 3 34 0 30 -7 -4 -7 1 -11 13 -11 12 0 21 6 21
14 0 8 16 16 38 20 31 6 40 13 59 51 22 44 22 45 3 55 -11 6 -37 7 -59 4 -37
-6 -40 -5 -43 20 -2 16 -7 23 -14 18z m66 -92 c0 -25 -4 -30 -25 -30 -20 0
-25 5 -25 23 0 28 7 37 32 37 13 0 18 -8 18 -30z m-82 -12 c-2 -28 -8 -34 -30
-36 -20 -2 -28 1 -28 12 0 8 -3 21 -6 29 -4 11 2 17 18 20 48 9 49 8 46 -25z"/>
</g>
<g id="part-4" class="char-part">
  <path d="M620 278 c-1 -72 -27 -125 -91 -182 l-54 -48 40 17 c49 20 91 58 116
108 11 20 21 37 24 37 2 0 23 -31 45 -69 54 -91 60 -95 116 -86 l46 7 -56 34
c-33 21 -73 59 -100 95 -40 53 -44 63 -35 87 8 21 7 29 -7 39 -34 25 -44 16
-44 -39z"/>
</g>
</g>
</svg>