<?xml version="1.0" standalone="no"?>
<!DOCTYPE svg PUBLIC "-//W3C//DTD SVG 20010904//EN"
 "http://www.w3.org/TR/2001/REC-SVG-20010904/DTD/svg10.dtd">
<svg version="1.0" xmlns="http://www.w3.org/2000/svg"
 width="96.000000pt" height="68.000000pt" viewBox="0 0 96.000000 68.000000"
 preserveAspectRatio="xMidYMid meet">
<metadata>
Created by potrace 1.16, written by Peter Selinger 2001-2019
Combined from part_0.svg through part_5.svg with named groups
</metadata>
<g transform="translate(0.000000,68.000000) scale(0.100000,-0.100000)" fill="#000000" stroke="none">
<g id="part-0" class="char-part">
  <path d="M380 634 c0 -3 9 -19 20 -34 l20 -28 -91 -7 c-60 -5 -89 -11 -86 -19
2 -6 27 -11 63 -11 74 1 277 14 324 21 33 6 34 6 15 21 -15 11 -38 14 -97 10
-70 -5 -78 -3 -78 13 0 11 -12 22 -31 29 -35 12 -59 14 -59 5z"/>
  <path d="M378 513 c-32 -2 -58 -5 -58 -7 0 -2 7 -20 16 -41 15 -36 17 -37 52
-31 20 3 61 6 90 6 45 0 52 3 52 20 0 10 7 23 16 28 9 5 14 14 10 21 -7 11
-51 12 -178 4z m122 -28 c0 -14 -11 -18 -82 -30 -38 -6 -54 5 -44 30 8 22 126
21 126 0z"/>
  <path d="M689 436 c-2 -2 -107 -12 -233 -21 -163 -12 -231 -14 -239 -6 -8 8
-19 -1 -39 -32 -15 -23 -28 -47 -28 -54 0 -36 52 -16 70 27 l11 26 231 18
c126 9 233 14 237 11 3 -4 -5 -15 -18 -26 -13 -11 -21 -22 -18 -25 8 -8 127
17 127 27 0 23 -86 70 -101 55z"/>
  <path d="M420 367 c-52 -5 -96 -11 -98 -12 -2 -2 1 -11 7 -22 5 -10 12 -26 15
-37 5 -15 13 -18 44 -12 20 3 63 6 96 6 46 0 57 3 53 14 -3 8 1 20 9 26 8 7
14 18 14 25 0 12 -24 27 -38 24 -4 -1 -50 -6 -102 -12z m86 -18 c12 -20 -20
-37 -79 -44 -58 -7 -59 -7 -55 16 3 21 10 25 58 30 30 3 58 6 62 7 4 1 10 -3
14 -9z"/>
  <path d="M480 259 c-19 -5 -65 -10 -102 -11 l-68 -3 0 -52 c0 -29 -7 -73 -16
-98 -12 -36 -13 -50 -3 -61 6 -8 15 -14 20 -14 9 0 25 72 18 80 -7 9 54 18
129 19 71 1 73 0 70 -21 -2 -17 -11 -24 -36 -28 l-32 -5 30 -28 c21 -20 36
-27 50 -22 24 8 27 22 34 141 4 90 4 92 -20 103 -28 12 -26 12 -74 0z m46 -30
c3 -6 1 -15 -6 -19 -14 -9 -171 -23 -178 -16 -13 14 24 35 66 39 96 7 111 7
118 -4z m4 -64 c0 -20 -8 -22 -107 -29 -78 -6 -83 -5 -83 13 0 22 20 27 128
29 50 2 62 -1 62 -13z"/>
</g>
<g id="part-1" class="char-part">
  <path d="M400 610 c6 -10 18 -23 27 -28 11 -7 -8 -12 -68 -17 -46 -4 -93 -11
-104 -15 -41 -15 25 -22 108 -11 45 6 126 13 180 17 91 6 117 14 82 28 -9 3
-50 3 -92 -1 -53 -4 -74 -3 -69 5 9 15 -22 42 -50 42 -21 0 -23 -3 -14 -20z"/>
</g>
<g id="part-2" class="char-part">
  <path d="M415 515 l-100 -10 19 -39 c18 -36 21 -38 55 -32 20 3 60 6 89 6 41
0 52 3 52 16 0 9 10 24 22 33 l21 18 -29 9 c-18 6 -67 6 -129 -1z m85 -22 c-1
-20 -19 -30 -67 -36 -54 -6 -70 2 -59 28 4 11 22 15 66 15 33 0 60 -3 60 -7z"/>
</g>
<g id="part-3" class="char-part">
  <path d="M685 435 c-28 -12 -439 -33 -457 -24 -24 13 -28 10 -58 -45 -18 -34
-22 -48 -13 -57 17 -17 41 -4 59 34 l16 33 225 17 c123 10 229 15 234 11 6 -4
1 -16 -13 -31 l-23 -25 30 5 c17 4 47 9 68 13 20 3 39 10 42 14 12 19 -83 66
-110 55z"/>
</g>
<g id="part-4" class="char-part">
  <path d="M480 259 c-19 -5 -67 -10 -106 -11 l-71 -3 5 -46 c3 -29 -2 -67 -13
-98 -13 -41 -14 -55 -5 -66 17 -20 28 -11 40 34 12 44 30 51 137 51 61 0 64
-1 61 -22 -2 -17 -11 -24 -36 -28 l-34 -5 24 -21 c38 -34 48 -37 69 -18 15 14
19 31 19 90 0 40 4 84 10 98 8 23 6 28 -20 41 -32 17 -31 17 -80 4z m47 -35
c5 -16 -13 -21 -107 -30 -77 -6 -82 -6 -78 12 2 15 15 20 53 25 72 9 128 6
132 -7z m3 -58 c0 -21 -6 -23 -102 -31 -84 -7 -88 -7 -88 13 0 23 19 27 133
30 44 2 57 -1 57 -12z"/>
</g>
</g>
</svg>