<?xml version="1.0" standalone="no"?>
<!DOCTYPE svg PUBLIC "-//W3C//DTD SVG 20010904//EN"
 "http://www.w3.org/TR/2001/REC-SVG-20010904/DTD/svg10.dtd">
<svg version="1.0" xmlns="http://www.w3.org/2000/svg"
 width="96.000000pt" height="68.000000pt" viewBox="0 0 96.000000 68.000000"
 preserveAspectRatio="xMidYMid meet">
<metadata>
Created by potrace 1.16, written by Peter Selinger 2001-2019
Combined from part_0.svg through part_5.svg with named groups
</metadata>
<g transform="translate(0.000000,68.000000) scale(0.100000,-0.100000)" fill="#000000" stroke="none">
<g id="part-0" class="char-part">
  <path d="M440 584 c-52 -7 -121 -13 -152 -13 -62 -1 -67 -5 -42 -32 9 -10 23
-49 30 -86 8 -37 18 -71 22 -75 4 -4 35 -3 67 2 76 13 188 13 181 1 -4 -5 5
-6 21 -2 24 6 32 20 60 97 18 49 33 92 33 96 0 10 -61 28 -94 27 -17 -1 -74
-7 -126 -15z m136 -40 c-3 -9 -6 -20 -6 -25 0 -5 -22 -9 -50 -9 -47 0 -50 2
-50 25 0 24 3 25 56 25 47 0 55 -3 50 -16z m-171 -15 c5 -14 2 -25 -6 -30 -19
-12 -89 -11 -89 0 0 5 -3 16 -6 24 -5 15 5 18 78 25 9 1 20 -8 23 -19z m155
-69 c0 -22 -5 -25 -62 -35 -35 -5 -38 -4 -38 19 0 20 6 25 33 29 65 8 67 8 67
-13z m-152 -22 c-4 -30 -56 -38 -75 -12 -21 29 -16 34 33 34 41 0 45 -2 42
-22z"/>
  <path d="M629 366 c-2 -2 -105 -12 -229 -21 -296 -21 -304 -23 -250 -45 17 -7
48 -10 71 -7 l41 5 -2 -116 c-3 -143 -3 -142 13 -142 17 0 160 110 153 117 -3
3 -25 -6 -50 -21 -69 -40 -70 -39 -63 70 3 53 7 98 10 100 2 3 71 7 153 10
194 6 274 14 274 24 0 16 -108 39 -121 26z"/>
  <path d="M571 250 c-17 -22 -36 -40 -41 -40 -5 0 -29 14 -53 30 -45 30 -77 39
-77 20 0 -5 6 -10 13 -10 15 0 107 -72 182 -143 45 -42 55 -47 96 -47 53 0
109 10 109 19 0 3 -28 14 -63 24 -71 21 -187 76 -187 89 0 5 26 21 57 34 l58
26 -24 19 c-13 10 -26 19 -30 19 -4 0 -22 -18 -40 -40z"/>
</g>
<g id="part-1" class="char-part">
  <path d="M435 578 c-82 -10 -160 -16 -172 -14 -25 4 -29 -4 -12 -21 6 -6 20
-46 30 -88 20 -87 23 -92 42 -76 9 6 64 12 141 13 l126 3 27 70 c15 39 30 74
35 80 38 44 -34 55 -217 33z m140 -19 c4 -5 4 -20 1 -32 -4 -19 -12 -22 -61
-23 -53 0 -55 1 -55 27 0 22 5 28 28 32 53 8 81 7 87 -4z m-167 -41 c3 -25 0
-28 -25 -28 -15 0 -38 -3 -50 -6 -18 -5 -23 -1 -29 21 -9 35 8 46 61 43 35 -3
40 -6 43 -30z m162 -37 c0 -5 -4 -21 -10 -35 -8 -23 -15 -26 -60 -26 -43 0
-50 3 -50 19 0 25 14 33 65 42 22 4 43 7 48 8 4 0 7 -3 7 -8z m-154 -43 c-1
-20 -6 -23 -46 -23 -39 0 -45 3 -48 23 -3 20 1 22 46 22 45 0 49 -2 48 -22z"/>
</g>
<g id="part-2" class="char-part">
  <path d="M629 366 c-2 -3 -115 -12 -249 -22 -135 -9 -249 -21 -254 -25 -5 -5
4 -13 20 -19 21 -8 52 -8 114 0 47 6 175 16 285 20 234 11 205 8 205 19 0 18
-106 42 -121 27z"/>
</g>
<g id="part-3" class="char-part">
  <path d="M258 200 c-1 -55 -2 -112 -2 -127 -1 -44 28 -40 98 16 93 74 101 89
29 52 -35 -17 -65 -31 -69 -31 -4 0 -4 43 -2 95 l5 95 -28 0 -29 0 -2 -100z"/>
  <path d="M569 248 l-35 -42 -53 33 c-29 17 -63 31 -75 29 -18 -3 -17 -6 14
-22 19 -11 79 -57 133 -102 l99 -84 56 1 c32 1 68 4 82 9 28 8 28 9 -65 38
-69 22 -160 66 -170 82 -4 7 14 20 44 32 54 23 64 41 32 58 -26 13 -22 16 -62
-32z"/>
</g>
</g>
</svg>