<?xml version="1.0" standalone="no"?>
<!DOCTYPE svg PUBLIC "-//W3C//DTD SVG 20010904//EN"
 "http://www.w3.org/TR/2001/REC-SVG-20010904/DTD/svg10.dtd">
<svg version="1.0" xmlns="http://www.w3.org/2000/svg"
 width="96.000000pt" height="68.000000pt" viewBox="0 0 96.000000 68.000000"
 preserveAspectRatio="xMidYMid meet">
<metadata>
Created by potrace 1.16, written by Peter Selinger 2001-2019
Combined from part_0.svg through part_5.svg with named groups
</metadata>
<g transform="translate(0.000000,68.000000) scale(0.100000,-0.100000)" fill="#000000" stroke="none">
<g id="part-0" class="char-part">
  <path d="M200 532 c0 -15 76 -82 92 -82 22 0 31 15 23 39 -9 28 -115 67 -115
43z"/>
  <path d="M470 446 c0 -10 80 -86 90 -86 20 0 10 50 -12 64 -26 17 -78 31 -78
22z"/>
  <path d="M680 413 c0 -10 66 -65 98 -82 27 -14 52 -8 52 13 0 19 -46 51 -85
60 -16 4 -38 9 -47 12 -10 3 -18 2 -18 -3z"/>
  <path d="M116 398 c28 -48 59 -78 79 -78 28 0 40 27 23 48 -25 30 -118 57
-102 30z"/>
  <path d="M410 356 c0 -19 46 -125 62 -143 11 -12 43 -31 71 -43 42 -19 64 -22
127 -18 76 5 130 22 130 42 0 12 -120 89 -127 82 -3 -2 0 -13 6 -24 20 -38 13
-49 -33 -56 -93 -14 -163 27 -195 114 -9 24 -22 45 -28 48 -7 2 -13 1 -13 -2z"/>
  <path d="M322 271 c-23 -52 -21 -84 7 -79 30 6 53 128 23 128 -4 0 -17 -22
-30 -49z"/>
  <path d="M237 270 c-8 -11 -17 -17 -22 -12 -5 4 -6 2 -2 -4 3 -5 -18 -29 -48
-53 -53 -42 -53 -43 -40 -74 21 -51 39 -45 77 25 20 35 45 80 58 101 18 30 19
37 7 37 -9 0 -22 -9 -30 -20z"/>
</g>
<g id="part-1" class="char-part">
  <path d="M229 502 c38 -53 81 -68 81 -28 0 30 -19 45 -66 53 l-38 6 23 -31z"/>
  <path d="M138 373 c29 -42 49 -56 67 -49 19 7 20 40 1 55 -8 7 -31 15 -52 18
l-38 6 22 -30z"/>
  <path d="M215 240 c-22 -23 -52 -49 -67 -58 -16 -9 -28 -23 -28 -32 1 -20 40
-68 46 -54 2 5 25 46 49 89 25 43 44 83 43 87 -2 5 -21 -10 -43 -32z"/>
</g>
<g id="part-2" class="char-part">
  <path d="M470 442 c0 -12 76 -82 90 -82 20 0 10 50 -12 64 -31 20 -78 31 -78
18z"/>
  <path d="M670 417 c3 -2 29 -25 59 -51 58 -48 85 -57 95 -30 10 25 -19 50 -72
64 -26 7 -56 14 -67 17 -11 3 -18 3 -15 0z"/>
  <path d="M410 354 c0 -4 10 -34 22 -66 24 -66 66 -108 127 -127 79 -23 232 -4
239 30 2 10 -15 26 -45 42 -26 15 -59 35 -72 44 l-24 17 17 -33 c22 -41 16
-57 -24 -66 -82 -18 -168 31 -199 115 -14 37 -41 67 -41 44z"/>
  <path d="M324 278 c-28 -57 -27 -88 1 -88 30 0 57 96 36 129 -7 11 -16 1 -37
-41z"/>
</g>
</g>
</svg>