<?xml version="1.0" standalone="no"?>
<!DOCTYPE svg PUBLIC "-//W3C//DTD SVG 20010904//EN"
 "http://www.w3.org/TR/2001/REC-SVG-20010904/DTD/svg10.dtd">
<svg version="1.0" xmlns="http://www.w3.org/2000/svg"
 width="96.000000pt" height="68.000000pt" viewBox="0 0 96.000000 68.000000"
 preserveAspectRatio="xMidYMid meet">
<metadata>
Created by potrace 1.16, written by Peter Selinger 2001-2019
Combined from part_0.svg through part_5.svg with named groups
</metadata>
<g transform="translate(0.000000,68.000000) scale(0.100000,-0.100000)" fill="#000000" stroke="none">
<g id="part-0" class="char-part">
  <path d="M237 563 c5 -16 7 -84 7 -153 -2 -146 -19 -202 -86 -282 -45 -54 -45
-67 0 -44 38 19 88 77 107 123 l15 36 45 -42 c49 -45 57 -48 74 -27 20 24 -4
53 -59 73 -54 19 -54 20 -44 96 6 44 8 46 65 71 58 25 74 48 43 60 -32 12 -50
5 -74 -32 l-25 -37 -3 45 c-2 25 2 63 8 84 14 45 5 56 -48 56 -31 0 -32 -2
-25 -27z"/>
  <path d="M590 544 c-52 -7 -119 -15 -149 -19 -55 -7 -59 -23 -8 -27 37 -3 38
-13 35 -203 l-3 -160 -44 -5 c-39 -4 -42 -7 -28 -19 14 -11 37 -11 130 -2 62
6 155 11 207 11 86 0 93 1 78 16 -19 19 -59 21 -199 10 l-107 -8 5 49 c7 70 6
69 70 71 104 4 141 12 136 30 -2 10 6 35 17 57 19 38 20 41 3 53 -12 9 -33 12
-63 8 -25 -3 -69 -8 -97 -12 l-53 -7 3 61 2 60 120 7 c119 7 119 8 96 26 -26
21 -20 21 -151 3z m78 -167 c8 -10 8 -23 0 -49 -10 -32 -15 -36 -56 -42 -78
-11 -105 -8 -98 10 3 9 6 28 6 43 0 27 3 29 63 38 34 6 65 11 68 12 4 0 11 -5
17 -12z"/>
  <path d="M125 378 c7 -18 25 -42 39 -53 25 -18 27 -18 43 -2 14 14 15 20 3 41
-12 23 -55 46 -86 46 -11 0 -10 -6 1 -32z"/>
</g>
<g id="part-1" class="char-part">
  <path d="M249 458 c4 -165 -12 -233 -75 -319 -24 -32 -41 -59 -36 -59 26 0 82
55 108 107 16 32 30 60 31 62 2 2 23 -15 48 -38 49 -45 75 -52 75 -21 0 22
-47 56 -92 65 -26 6 -27 8 -21 53 10 77 17 88 77 113 31 12 56 26 56 31 0 5
-11 14 -25 20 -23 10 -28 8 -61 -28 l-35 -39 5 87 c5 90 2 98 -42 98 -15 0
-17 -14 -13 -132z"/>
  <path d="M131 378 c19 -38 50 -67 65 -61 36 14 -7 83 -52 83 -22 0 -24 -2 -13
-22z"/>
</g>
<g id="part-2" class="char-part">
  <path d="M550 539 c-74 -9 -141 -18 -148 -18 -23 -2 -2 -21 22 -21 43 0 47
-17 44 -196 l-3 -169 -42 -3 c-24 -2 -43 -7 -43 -12 0 -18 50 -22 150 -11 55
6 143 11 195 11 97 0 119 10 65 29 -21 7 -64 7 -133 1 -56 -5 -113 -9 -126
-10 l-24 0 8 147 c4 81 11 158 17 172 6 17 6 27 -1 29 -34 11 3 20 109 27 66
4 120 10 120 14 0 10 -47 31 -63 30 -7 -1 -73 -10 -147 -20z"/>
</g>
<g id="part-3" class="char-part">
  <path d="M640 404 c-25 -7 -62 -13 -82 -13 -21 -1 -38 -5 -38 -11 0 -12 29
-12 90 0 57 11 70 1 60 -46 -5 -20 -10 -37 -12 -40 -2 -2 -37 -7 -76 -10 -83
-8 -97 -31 -16 -26 121 6 152 12 148 30 -3 9 4 35 15 56 11 21 18 42 16 46
-12 19 -62 25 -105 14z"/>
</g>
</g>
</svg>