<?xml version="1.0" standalone="no"?>
<!DOCTYPE svg PUBLIC "-//W3C//DTD SVG 20010904//EN"
 "http://www.w3.org/TR/2001/REC-SVG-20010904/DTD/svg10.dtd">
<svg version="1.0" xmlns="http://www.w3.org/2000/svg"
 width="96.000000pt" height="68.000000pt" viewBox="0 0 96.000000 68.000000"
 preserveAspectRatio="xMidYMid meet">
<metadata>
Created by potrace 1.16, written by Peter Selinger 2001-2019
Combined from part_0.svg through part_5.svg with named groups
</metadata>
<g transform="translate(0.000000,68.000000) scale(0.100000,-0.100000)" fill="#000000" stroke="none">
<g id="part-0" class="char-part">
  <path d="M438 571 c4 -48 4 -48 -29 -54 -19 -3 -73 -9 -122 -13 -48 -3 -89
-10 -92 -14 -12 -20 58 -29 141 -19 47 6 88 8 91 5 3 -3 2 -21 -1 -41 l-7 -35
-64 0 -64 0 6 -31 c3 -17 6 -88 7 -158 l1 -126 -87 -3 c-49 -1 -88 -7 -88 -12
0 -19 77 -22 249 -11 97 6 233 11 304 11 134 0 154 8 92 37 -28 13 -44 15 -89
6 -40 -7 -56 -6 -60 2 -2 6 0 74 4 151 5 76 7 139 7 139 -1 0 -12 6 -25 13
-21 12 -47 11 -118 -3 -21 -5 -21 -3 -12 34 l10 39 119 7 c121 8 146 15 110
34 -26 15 -73 16 -150 7 -69 -9 -69 -9 -47 45 8 18 -30 39 -68 39 -22 0 -23
-3 -18 -49z m126 -188 c12 -30 -6 -39 -101 -50 -53 -7 -100 -10 -104 -7 -4 2
-4 16 0 32 6 24 13 28 57 32 95 10 143 8 148 -7z m6 -92 l0 -28 -89 -6 c-48
-4 -96 -9 -105 -13 -13 -5 -16 0 -16 25 0 18 5 31 13 31 45 2 122 11 126 15 2
3 19 5 38 5 30 0 33 -3 33 -29z m0 -75 c0 -23 -4 -24 -87 -30 -49 -4 -96 -10
-105 -12 -14 -4 -18 1 -18 20 0 14 6 26 13 26 45 2 122 11 126 15 2 3 19 5 38
5 28 0 33 -3 33 -24z m5 -81 l0 -30 -104 -8 c-110 -8 -119 -6 -117 36 1 20 7
22 76 25 41 2 77 5 79 8 3 3 19 4 36 2 26 -3 30 -7 30 -33z"/>
</g>
<g id="part-1" class="char-part">
  <path d="M440 566 l0 -53 -87 -7 c-123 -9 -158 -16 -141 -28 7 -5 58 -6 117
-2 l103 6 -4 -36 c-3 -32 -1 -36 18 -36 17 0 24 9 33 45 l11 45 115 0 c116 0
150 11 98 31 -26 10 -124 6 -182 -8 -26 -6 -25 -9 -5 55 4 13 -2 22 -21 30
-48 22 -55 17 -55 -42z"/>
</g>
<g id="part-2" class="char-part">
  <path d="M520 419 c-19 -4 -79 -11 -133 -15 -81 -6 -97 -9 -92 -22 3 -8 8 -77
12 -153 6 -137 6 -139 30 -139 22 0 23 4 23 64 l0 63 58 6 c31 4 78 9 103 13
l46 6 6 -67 c7 -76 8 -78 30 -69 16 6 20 34 31 226 l4 77 -30 10 c-35 12 -39
12 -88 0z m45 -49 c0 -24 -4 -25 -70 -32 -38 -4 -85 -10 -103 -13 -33 -6 -33
-6 -30 27 l3 33 80 6 c117 8 120 8 120 -21z m5 -80 c0 -25 -3 -29 -27 -28 -16
0 -63 -3 -105 -7 l-78 -8 0 25 c0 24 4 25 78 35 133 17 132 17 132 -17z"/>
</g>
<g id="part-3" class="char-part">
  <path d="M420 181 c-66 -7 -66 -27 0 -24 79 3 150 14 150 24 0 10 -59 10 -150
0z"/>
</g>
<g id="part-4" class="char-part">
  <path d="M670 110 c-44 -7 -136 -13 -407 -27 -73 -3 -133 -10 -133 -14 0 -16
54 -22 149 -15 53 4 190 9 306 12 116 4 214 10 219 15 6 5 -6 15 -27 24 -39
16 -40 16 -107 5z"/>
</g>
</g>
</svg>