<?xml version="1.0" standalone="no"?>
<!DOCTYPE svg PUBLIC "-//W3C//DTD SVG 20010904//EN"
 "http://www.w3.org/TR/2001/REC-SVG-20010904/DTD/svg10.dtd">
<svg version="1.0" xmlns="http://www.w3.org/2000/svg"
 width="96.000000pt" height="68.000000pt" viewBox="0 0 96.000000 68.000000"
 preserveAspectRatio="xMidYMid meet">
<metadata>
Created by potrace 1.16, written by Peter Selinger 2001-2019
Combined from part_0.svg through part_5.svg with named groups
</metadata>
<g transform="translate(0.000000,68.000000) scale(0.100000,-0.100000)" fill="#000000" stroke="none">
<g id="part-0" class="char-part">
  <path d="M279 579 c-21 -34 -40 -52 -58 -55 l-26 -6 0 -116 c0 -64 4 -122 8
-129 5 -8 17 -9 40 -2 17 5 78 12 135 16 l102 6 0 -52 c0 -29 -7 -69 -17 -88
-17 -36 -27 -38 -78 -17 -18 7 -17 4 6 -27 15 -19 36 -35 47 -37 34 -5 69 41
81 105 6 32 15 70 20 85 8 23 5 30 -15 43 -21 14 -40 14 -149 5 -128 -11 -145
-9 -145 15 0 17 22 25 69 25 62 0 131 12 131 23 0 9 -58 7 -175 -6 -15 -1 -20
4 -20 23 0 25 2 25 95 30 64 3 94 9 93 16 -1 7 9 24 22 38 14 15 25 31 25 36
0 17 -49 23 -123 16 l-72 -7 25 20 c14 11 26 18 29 16 4 -4 41 39 41 48 0 3
-13 10 -29 15 -29 10 -31 8 -62 -39z m121 -98 c0 -25 -4 -29 -37 -35 -63 -10
-121 -7 -126 7 -7 22 5 46 27 50 11 2 47 5 79 6 56 1 57 1 57 -28z"/>
  <path d="M725 533 c-22 -8 -62 -15 -90 -15 l-50 0 3 -251 c2 -138 5 -254 8
-256 2 -3 10 1 16 7 9 9 14 84 19 240 4 125 7 228 8 229 5 6 69 23 87 23 29 0
30 -14 4 -68 -25 -52 -25 -54 6 -83 27 -25 54 -70 54 -90 0 -8 -15 -10 -51 -6
-59 7 -59 7 12 -38 50 -31 55 -32 71 -18 23 21 23 76 1 115 -10 16 -35 39 -55
49 -21 11 -38 23 -38 27 0 4 23 31 50 60 28 29 50 57 50 61 0 7 -58 34 -64 30
-1 0 -19 -7 -41 -16z"/>
  <path d="M350 253 c0 -10 52 -63 62 -63 17 0 7 40 -14 54 -23 17 -48 21 -48 9z"/>
  <path d="M277 233 c-9 -9 24 -53 40 -53 22 0 11 42 -14 51 -11 4 -23 5 -26 2z"/>
  <path d="M123 198 c-18 -32 -20 -68 -3 -68 16 0 40 44 40 72 0 37 -14 35 -37
-4z"/>
  <path d="M200 215 c0 -17 32 -65 40 -60 17 10 11 44 -9 55 -22 11 -31 13 -31
5z"/>
</g>
<g id="part-1" class="char-part">
  <path d="M300 607 c0 -7 -14 -29 -31 -50 -45 -55 -5 -44 74 20 26 21 27 23 8
33 -27 14 -51 13 -51 -3z"/>
</g>
<g id="part-2" class="char-part">
  <path d="M350 253 c0 -10 52 -63 62 -63 17 0 7 40 -14 54 -23 17 -48 21 -48 9z"/>
  <path d="M120 196 c-23 -42 -21 -66 4 -66 25 0 49 91 28 104 -4 3 -19 -15 -32
-38z"/>
  <path d="M270 232 c0 -16 32 -52 46 -52 21 0 17 38 -5 50 -23 12 -41 13 -41 2z"/>
  <path d="M200 207 c0 -8 9 -25 19 -38 18 -23 20 -23 27 -5 4 10 3 26 -3 35
-13 21 -43 27 -43 8z"/>
</g>
<g id="part-3" class="char-part">
  <path d="M706 531 c-68 -20 -92 -45 -29 -30 80 18 85 14 52 -58 -11 -25 -19
-47 -16 -49 6 -6 117 112 117 125 0 10 -42 32 -58 30 -4 0 -34 -8 -66 -18z"/>
</g>
<g id="part-4" class="char-part">
  <path d="M588 268 c2 -139 5 -254 8 -257 21 -21 32 65 35 292 l4 212 -25 3
-25 3 3 -253z"/>
</g>
</g>
</svg>