<?xml version="1.0" standalone="no"?>
<!DOCTYPE svg PUBLIC "-//W3C//DTD SVG 20010904//EN"
 "http://www.w3.org/TR/2001/REC-SVG-20010904/DTD/svg10.dtd">
<svg version="1.0" xmlns="http://www.w3.org/2000/svg"
 width="96.000000pt" height="68.000000pt" viewBox="0 0 96.000000 68.000000"
 preserveAspectRatio="xMidYMid meet">
<metadata>
Created by potrace 1.16, written by Peter Selinger 2001-2019
Combined from part_0.svg through part_5.svg with named groups
</metadata>
<g transform="translate(0.000000,68.000000) scale(0.100000,-0.100000)" fill="#000000" stroke="none">
<g id="part-0" class="char-part">
  <path d="M208 505 c5 -94 7 -91 -67 -85 -22 2 -23 -1 -16 -38 4 -23 1 -57 -5
-80 -14 -44 -4 -77 19 -63 7 5 15 38 19 81 6 65 10 74 31 82 l24 8 -5 -187
c-3 -104 -3 -194 -1 -200 7 -18 40 -16 47 3 3 9 6 98 6 199 0 166 2 183 18
187 35 10 42 -2 42 -72 0 -66 -1 -68 -22 -62 -23 5 -23 5 -4 -16 41 -47 62
-19 67 88 4 85 -2 94 -58 85 l-44 -6 5 35 c18 114 19 105 -9 116 -52 20 -53
17 -47 -75z"/>
  <path d="M610 519 c-47 -4 -113 -9 -146 -10 l-61 -2 5 -107 c2 -58 0 -149 -6
-201 -12 -94 -8 -139 10 -139 5 0 12 9 15 20 5 18 16 19 157 22 158 3 160 3
186 -42 7 -12 11 -13 22 -2 10 10 14 70 18 230 4 185 3 219 -10 229 -17 14
-62 14 -190 2z m153 -104 c4 -49 6 -134 5 -187 l-3 -98 -169 -5 -168 -6 6 33
c3 18 6 93 7 166 1 73 3 141 6 151 4 15 18 19 71 24 37 3 68 4 69 4 0 -1 3
-20 5 -42 3 -43 5 -42 -67 -44 -25 0 -45 -6 -45 -12 0 -6 20 -10 53 -8 61 3
77 -4 77 -32 0 -11 9 -44 19 -74 l19 -55 -34 -35 c-40 -41 -34 -45 13 -9 l35
26 26 -24 c40 -37 62 -42 61 -15 -1 12 -4 33 -9 47 -6 22 -8 23 -15 8 -4 -10
-13 -18 -20 -18 -25 0 -24 30 1 80 25 49 29 85 9 85 -5 0 -13 -17 -17 -38 -4
-21 -15 -48 -23 -60 -14 -20 -14 -20 -24 5 -5 14 -12 45 -16 71 l-7 46 36 6
c45 9 47 25 2 25 -30 0 -33 2 -28 26 4 20 0 26 -19 31 -22 6 -22 7 -3 14 10 5
46 7 79 6 l60 -2 8 -90z"/>
  <path d="M684 465 c20 -19 32 -23 39 -16 14 14 0 28 -38 36 l-30 6 29 -26z"/>
  <path d="M512 349 c-13 -5 -29 -6 -34 -2 -8 4 -9 -5 -5 -27 4 -18 7 -39 7 -47
0 -10 11 -13 43 -11 36 3 42 6 45 28 2 14 8 30 13 36 10 13 -9 34 -30 33 -9 0
-27 -4 -39 -10z m28 -39 c0 -23 -4 -30 -20 -30 -11 0 -20 4 -20 9 0 5 -3 16
-6 24 -4 11 2 17 18 20 13 2 24 5 26 6 1 0 2 -12 2 -29z"/>
  <path d="M530 217 c-67 -25 -68 -26 -50 -37 20 -13 18 -14 80 25 62 39 52 43
-30 12z"/>
</g>
<g id="part-1" class="char-part">
  <path d="M215 418 c0 -90 -3 -211 -7 -269 -6 -84 -5 -110 7 -125 31 -43 38 -4
41 238 2 128 5 251 6 273 3 36 1 40 -22 43 l-25 3 0 -163z"/>
</g>
<g id="part-2" class="char-part">
  <path d="M213 427 l-91 -10 1 -51 c1 -28 -2 -64 -6 -81 -4 -17 -3 -37 2 -45
17 -26 31 2 40 78 4 39 10 75 15 79 4 4 38 9 77 11 l69 4 0 -64 c0 -73 -4 -82
-33 -67 -19 11 -19 11 -1 -15 22 -30 49 -33 62 -8 14 27 21 159 9 171 -12 12
-12 12 -144 -2z"/>
</g>
<g id="part-3" class="char-part">
  <path d="M710 529 c-19 -4 -99 -11 -176 -15 l-142 -7 10 -36 c10 -34 5 -240
-7 -341 -3 -25 -1 -52 5 -60 9 -13 13 -12 28 7 16 21 26 22 166 24 l148 2 17
-27 c39 -64 49 -20 52 221 1 115 -1 215 -4 220 -9 15 -56 20 -97 12z m40 -34
c9 -10 13 -67 14 -190 l1 -174 -165 -6 -165 -6 3 143 c1 79 5 161 8 184 l5 41
87 10 c138 16 198 15 212 -2z"/>
</g>
<g id="part-4" class="char-part">
  <path d="M592 460 c13 -38 1 -50 -52 -50 -19 0 -42 -5 -50 -11 -11 -7 2 -9 48
-6 60 3 63 2 68 -22 3 -14 14 -53 25 -86 l19 -60 -37 -33 c-39 -34 -30 -34 20
1 l28 19 27 -24 c15 -14 35 -28 45 -31 19 -7 21 11 8 68 -6 28 -7 28 -13 8 -7
-26 -33 -31 -42 -7 -3 8 7 41 24 73 22 44 26 61 17 70 -18 18 -27 13 -27 -14
0 -14 -7 -42 -16 -63 l-15 -37 -14 25 c-8 14 -17 45 -21 69 -7 47 2 61 44 61
12 0 22 5 22 10 0 6 -15 10 -34 10 -32 0 -35 2 -33 28 2 23 -2 28 -25 30 -27
3 -27 2 -16 -28z"/>
  <path d="M684 465 c20 -19 32 -23 39 -16 14 14 0 28 -38 36 l-30 6 29 -26z"/>
</g>
<g id="part-5" class="char-part">
  <path d="M515 206 c-27 -6 -45 -14 -40 -17 6 -3 16 -4 23 -3 6 1 18 2 25 3 7
0 22 8 33 16 10 8 17 14 14 14 -3 -1 -27 -6 -55 -13z"/>
</g>
</g>
</svg>