<?xml version="1.0" standalone="no"?>
<!DOCTYPE svg PUBLIC "-//W3C//DTD SVG 20010904//EN"
 "http://www.w3.org/TR/2001/REC-SVG-20010904/DTD/svg10.dtd">
<svg version="1.0" xmlns="http://www.w3.org/2000/svg"
 width="96.000000pt" height="68.000000pt" viewBox="0 0 96.000000 68.000000"
 preserveAspectRatio="xMidYMid meet">
<metadata>
Created by potrace 1.16, written by Peter Selinger 2001-2019
Combined from part_0.svg through part_5.svg with named groups
</metadata>
<g transform="translate(0.000000,68.000000) scale(0.100000,-0.100000)" fill="#000000" stroke="none">
<g id="part-0" class="char-part">
  <path d="M510 573 c-41 -7 -114 -15 -162 -16 -89 -1 -99 -5 -74 -26 8 -7 20
-44 27 -82 14 -81 31 -111 50 -91 7 6 31 12 54 12 41 0 41 0 37 -34 -3 -30 -8
-34 -40 -40 -70 -11 -142 -7 -148 9 -9 23 -54 19 -54 -5 0 -15 -7 -20 -27 -20
-33 0 -20 -17 17 -22 24 -3 25 -6 28 -90 2 -68 6 -87 19 -92 9 -4 18 -4 22 -1
3 4 4 46 3 95 -2 48 1 90 5 93 4 3 46 6 93 8 l84 4 1 -35 c0 -19 -4 -38 -10
-42 -5 -4 -36 -8 -67 -8 -45 0 -58 -3 -58 -15 0 -28 51 -29 163 -1 110 26 110
26 124 6 18 -25 43 -26 43 -1 0 18 -52 71 -70 71 -4 0 -10 -8 -13 -19 -5 -19
-56 -35 -70 -22 -5 5 -7 24 -5 42 l3 34 117 3 117 4 3 -44 c4 -59 -7 -117 -25
-135 -12 -13 -21 -14 -48 -4 -18 6 -34 10 -36 8 -2 -2 9 -20 24 -40 60 -79
125 -30 138 102 3 35 11 73 17 84 9 17 7 24 -13 40 -22 17 -34 19 -124 13 -55
-4 -115 -9 -132 -12 -32 -6 -33 -5 -33 29 0 32 3 35 33 40 17 2 37 0 44 -5 26
-21 45 -2 73 72 16 41 34 83 40 92 14 24 14 24 -24 42 -40 19 -46 19 -146 -1z
m88 -50 c-3 -26 -7 -28 -50 -31 -45 -3 -48 -2 -48 22 0 25 12 30 78 35 20 1
23 -3 20 -26z m-160 -19 c2 -17 -4 -23 -29 -28 -57 -11 -66 -8 -71 24 l-5 31
51 -3 c43 -3 51 -6 54 -24z m152 -55 c0 -29 -15 -39 -56 -39 -37 0 -44 3 -44
19 0 12 8 21 23 24 37 6 77 4 77 -4z m-152 -26 c-2 -14 -13 -18 -43 -18 -30 0
-41 4 -43 18 -3 14 4 17 43 17 39 0 46 -3 43 -17z"/>
</g>
<g id="part-1" class="char-part">
  <path d="M480 564 c-41 -7 -105 -13 -143 -13 l-68 -1 14 -27 c8 -16 20 -56 27
-89 14 -70 26 -95 38 -78 11 16 219 28 224 12 10 -28 38 6 66 79 16 43 33 85
36 94 5 10 -1 19 -19 27 -32 15 -77 14 -175 -4z m118 -46 c-3 -31 -4 -31 -55
-33 -52 -2 -53 -1 -53 26 0 32 9 37 68 38 43 1 43 1 40 -31z m-174 16 c10 -4
16 -18 16 -35 0 -28 -2 -29 -49 -29 -35 0 -51 4 -55 16 -13 33 -6 43 32 47 20
2 38 4 39 5 1 1 8 -1 17 -4z m166 -86 c0 -35 -11 -43 -57 -43 -40 -1 -43 1
-43 26 0 25 4 28 43 32 23 2 45 4 50 5 4 1 7 -8 7 -20z m-150 -22 c0 -19 -7
-25 -35 -30 -43 -8 -55 -2 -55 30 0 22 4 24 45 24 41 0 45 -2 45 -24z"/>
</g>
<g id="part-2" class="char-part">
  <path d="M440 301 c0 -38 3 -76 6 -85 9 -25 34 -19 34 8 0 12 3 51 6 85 7 61
7 61 -20 61 -26 0 -26 -1 -26 -69z"/>
</g>
<g id="part-3" class="char-part">
  <path d="M680 319 c-25 -3 -127 -12 -228 -19 -166 -11 -184 -11 -201 4 -25 22
-51 20 -51 -4 0 -15 -7 -20 -27 -20 -33 0 -20 -17 17 -22 24 -3 25 -6 28 -91
2 -69 6 -89 18 -94 27 -10 34 18 27 103 -5 74 -4 82 13 87 31 10 334 29 389
25 l50 -3 3 -55 c2 -30 -2 -72 -8 -92 -12 -41 -27 -46 -75 -28 -23 9 -24 8
-15 -8 26 -44 50 -63 77 -60 41 5 69 54 78 135 4 37 11 77 15 89 15 39 -38 64
-110 53z"/>
</g>
<g id="part-4" class="char-part">
  <path d="M580 205 c32 -47 60 -59 60 -26 0 21 -53 71 -76 71 -11 0 -6 -13 16
-45z"/>
</g>
</g>
</svg>