<?xml version="1.0" standalone="no"?>
<!DOCTYPE svg PUBLIC "-//W3C//DTD SVG 20010904//EN"
 "http://www.w3.org/TR/2001/REC-SVG-20010904/DTD/svg10.dtd">
<svg version="1.0" xmlns="http://www.w3.org/2000/svg"
 width="96.000000pt" height="68.000000pt" viewBox="0 0 96.000000 68.000000"
 preserveAspectRatio="xMidYMid meet">
<metadata>
Created by potrace 1.16, written by Peter Selinger 2001-2019
Combined from part_0.svg through part_5.svg with named groups
</metadata>
<g transform="translate(0.000000,68.000000) scale(0.100000,-0.100000)" fill="#000000" stroke="none">
<g id="part-0" class="char-part">
  <path d="M600 591 c0 -4 4 -11 8 -16 5 -6 6 -36 4 -67 l-4 -58 -36 -1 c-21 -1
-50 -4 -67 -8 l-30 -7 31 -6 c18 -4 48 -4 68 -1 l37 6 -2 -57 c-2 -57 10 -84
30 -72 6 4 11 36 11 72 l0 64 43 1 c23 1 53 4 67 9 22 6 23 8 7 15 -10 4 -41
5 -69 2 l-50 -6 4 61 c3 60 2 62 -24 69 -16 4 -28 4 -28 0z"/>
  <path d="M708 542 c-10 -20 -16 -37 -14 -39 2 -2 20 6 40 18 39 23 42 38 10
49 -15 6 -22 0 -36 -28z"/>
  <path d="M266 558 c4 -7 16 -25 26 -40 22 -32 20 -33 -89 -43 -70 -7 -90 -16
-58 -29 36 -14 8 -226 -45 -330 -16 -33 -27 -62 -25 -65 3 -2 19 9 36 25 34
32 72 108 83 165 l6 36 73 6 c39 3 74 3 76 1 5 -4 4 -153 -1 -174 -6 -26 31
-21 74 10 l43 32 -43 -7 -43 -7 3 38 c3 34 6 38 36 41 17 2 32 0 32 -6 0 -17
29 -1 35 20 5 14 16 19 46 19 45 0 46 -3 19 -48 -20 -32 -20 -32 -45 -16 -33
21 -45 10 -17 -15 12 -10 22 -22 22 -25 0 -4 -21 -27 -47 -52 -27 -24 -43 -44
-37 -44 22 0 100 70 144 129 49 66 65 76 57 33 -14 -71 -17 -67 41 -64 l52 4
0 -65 c0 -36 4 -68 9 -71 10 -6 15 14 26 96 l6 48 50 0 c31 0 48 4 44 10 -3 5
-26 10 -51 10 -44 0 -44 0 -44 35 0 30 3 35 24 35 37 0 42 19 7 26 -21 4 -31
12 -31 24 0 17 -28 36 -38 25 -3 -2 -5 -17 -6 -32 -1 -26 -5 -28 -49 -34 -27
-3 -51 -1 -54 4 -3 5 -25 7 -50 3 -38 -5 -43 -3 -41 11 2 10 -4 19 -14 21 -11
2 -18 -6 -23 -27 -5 -23 -12 -31 -28 -31 -12 0 -32 -3 -44 -6 -20 -5 -23 -2
-23 20 0 18 -5 26 -17 26 -17 1 -17 1 -1 10 9 6 27 9 39 8 18 -2 27 6 42 36
24 50 17 66 -28 66 -31 0 -35 3 -30 19 4 13 0 23 -12 30 -14 8 -7 10 35 11 28
0 52 4 52 10 0 18 -43 32 -85 28 -39 -5 -41 -4 -37 17 3 15 -4 28 -19 39 -28
19 -74 22 -63 4z m-12 -124 c10 -27 7 -52 -8 -57 -19 -8 -26 1 -26 33 0 40 22
55 34 24z m94 -15 c3 -22 -2 -27 -22 -31 -23 -5 -26 -2 -26 23 0 15 -6 30 -12
33 -7 3 3 4 22 3 30 -2 35 -6 38 -28z m70 -66 c-2 -20 -9 -29 -25 -31 -24 -4
-26 0 -17 36 4 13 14 22 26 22 15 0 19 -6 16 -27z m-73 -13 c0 -18 -6 -26 -22
-28 -20 -3 -23 1 -23 28 0 27 3 31 23 28 16 -2 22 -10 22 -28z m-77 -11 c2
-20 -2 -28 -20 -33 -36 -9 -38 -8 -38 30 0 33 2 35 28 32 21 -2 28 -9 30 -29z
m452 -124 c0 -33 -2 -35 -34 -35 -34 0 -35 0 -25 32 5 18 9 34 9 35 0 2 11 3
25 3 22 0 25 -4 25 -35z"/>
  <path d="M519 506 c23 -24 61 -36 61 -18 -1 18 -19 32 -50 38 l-35 7 24 -27z"/>
  <path d="M507 365 c-47 -55 -8 -43 73 22 4 4 -21 23 -30 23 -3 -1 -22 -21 -43
-45z"/>
  <path d="M680 401 c0 -10 94 -71 110 -71 24 0 8 39 -22 53 -46 20 -88 29 -88
18z"/>
  <path d="M215 253 c9 -20 8 -44 0 -121 -8 -64 -1 -65 75 -16 30 19 46 33 35
30 -81 -21 -77 -21 -73 15 3 31 6 34 41 37 20 2 37 8 37 14 0 7 -15 8 -41 4
-36 -6 -41 -4 -35 10 7 19 -10 44 -31 44 -11 0 -13 -5 -8 -17z"/>
</g>
<g id="part-1" class="char-part">
  <path d="M282 538 c30 -39 58 -48 58 -19 0 23 -35 51 -64 51 -17 0 -17 -3 6
-32z"/>
  <path d="M285 479 c-77 -9 -141 -17 -143 -18 -2 -1 4 -9 13 -18 31 -30 6 -205
-46 -320 -30 -69 -24 -82 15 -31 37 50 64 131 82 249 l16 106 52 7 c28 3 74 6
101 7 28 1 61 4 74 8 l24 6 -24 11 c-17 7 -63 5 -164 -7z"/>
</g>
<g id="part-2" class="char-part">
  <path d="M348 193 c-2 -67 1 -97 9 -100 11 -4 103 43 103 53 0 2 -18 1 -41 -2
l-40 -7 3 39 c3 37 5 39 41 42 20 2 37 8 37 14 0 6 -13 8 -35 4 -32 -6 -35 -5
-35 17 0 16 -7 26 -19 30 -18 4 -20 -2 -23 -90z"/>
</g>
<g id="part-3" class="char-part">
  <path d="M610 541 c0 -44 4 -60 15 -65 19 -7 24 5 27 63 3 37 0 44 -19 52 -22
8 -23 6 -23 -50z"/>
  <path d="M716 557 c-3 -12 -15 -32 -26 -45 -27 -29 -19 -28 36 4 49 29 53 38
25 54 -27 14 -28 13 -35 -13z"/>
  <path d="M520 505 c26 -27 60 -33 60 -10 0 17 -30 35 -61 35 l-22 0 23 -25z"/>
</g>
<g id="part-4" class="char-part">
  <path d="M614 459 c-2 -3 -32 -10 -66 -13 -74 -9 -61 -25 15 -19 l52 4 -3 -65
c-3 -53 -1 -66 11 -66 20 0 27 22 27 86 l0 54 34 0 c49 0 96 11 90 21 -6 10
-153 8 -160 -2z"/>
  <path d="M507 365 c-21 -25 -35 -45 -30 -45 16 0 103 65 100 75 -8 23 -34 12
-70 -30z"/>
  <path d="M675 402 c24 -23 99 -72 112 -72 27 0 13 38 -19 53 -42 19 -107 33
-93 19z"/>
</g>
<g id="part-5" class="char-part">
  <path d="M724 296 c3 -11 0 -26 -5 -33 -12 -14 -4 -33 16 -33 16 0 25 22 25
60 0 23 -4 28 -21 27 -15 -1 -19 -6 -15 -21z"/>
  <path d="M652 251 c-7 -4 -12 -12 -11 -17 1 -5 0 -11 -1 -14 -1 -3 -3 -12 -5
-20 -2 -8 -6 -23 -10 -32 -6 -14 -2 -18 16 -17 17 1 19 3 7 6 -15 4 -16 7 -4
26 12 20 30 77 24 77 -2 0 -9 -4 -16 -9z"/>
  <path d="M685 250 c3 -5 8 -10 11 -10 2 0 4 5 4 10 0 6 -5 10 -11 10 -5 0 -7
-4 -4 -10z"/>
  <path d="M730 210 c10 -7 11 -12 4 -17 -6 -5 -10 -33 -9 -63 2 -86 6 -100 16
-60 4 19 6 47 3 63 -5 29 -3 30 74 29 18 0 30 4 27 8 -3 5 -22 9 -43 8 -57 -1
-61 1 -55 22 4 15 0 20 -13 20 -16 0 -17 -2 -4 -10z"/>
</g>
</g>
</svg>