<?xml version="1.0" standalone="no"?>
<!DOCTYPE svg PUBLIC "-//W3C//DTD SVG 20010904//EN"
 "http://www.w3.org/TR/2001/REC-SVG-20010904/DTD/svg10.dtd">
<svg version="1.0" xmlns="http://www.w3.org/2000/svg"
 width="96.000000pt" height="68.000000pt" viewBox="0 0 96.000000 68.000000"
 preserveAspectRatio="xMidYMid meet">
<metadata>
Created by potrace 1.16, written by Peter Selinger 2001-2019
Combined from part_0.svg through part_5.svg with named groups
</metadata>
<g transform="translate(0.000000,68.000000) scale(0.100000,-0.100000)" fill="#000000" stroke="none">
<g id="part-0" class="char-part">
  <path d="M521 543 c-7 -26 -26 -70 -42 -97 -17 -26 -28 -50 -26 -52 2 -3 18 9
36 25 26 24 43 30 100 36 39 4 75 4 80 0 25 -15 4 -224 -22 -226 -7 -1 -22 0
-34 1 -29 2 -29 -8 2 -43 51 -58 92 -9 106 126 5 51 14 104 19 120 8 24 6 29
-20 42 -24 13 -41 14 -92 5 -103 -16 -102 -16 -72 32 20 31 24 46 17 57 -21
33 -40 24 -52 -26z"/>
  <path d="M305 509 c-22 -4 -56 -8 -75 -8 l-35 -1 0 -149 c0 -82 3 -152 7 -156
4 -4 21 -2 39 4 47 16 90 14 105 -7 11 -15 14 -15 27 -2 11 11 16 51 19 162 4
146 4 147 -19 157 -13 6 -25 10 -26 10 -1 -1 -20 -5 -42 -10z m23 -41 c7 -7
12 -26 12 -44 0 -26 -5 -32 -27 -38 -16 -3 -39 -9 -52 -12 -24 -7 -24 -6 -18
40 4 26 9 52 13 57 8 13 58 11 72 -3z m12 -168 c0 -33 -4 -50 -12 -50 -7 0
-30 -3 -50 -6 l-38 -7 0 51 c0 55 4 59 68 61 32 1 32 1 32 -49z"/>
  <path d="M495 359 c-16 -5 -38 -7 -47 -5 -22 5 -22 2 -1 -57 13 -36 21 -46 33
-41 8 4 34 9 57 12 35 3 42 8 46 30 14 68 14 67 -23 69 -19 1 -48 -3 -65 -8z
m55 -34 c0 -18 -7 -28 -27 -36 -35 -13 -53 -5 -53 25 0 25 13 33 58 35 17 1
22 -4 22 -24z"/>
  <path d="M171 107 c-25 -47 -25 -80 1 -85 22 -4 50 50 46 90 -4 46 -20 44 -47
-5z"/>
  <path d="M345 119 c8 -29 37 -71 52 -76 6 -2 13 3 16 11 7 18 -13 70 -28 73
-6 1 -18 5 -29 9 -16 6 -17 4 -11 -17z"/>
  <path d="M510 131 c0 -22 45 -81 60 -78 18 3 16 46 -3 63 -18 18 -57 27 -57
15z"/>
  <path d="M711 93 c64 -71 89 -82 89 -40 0 26 -30 57 -73 75 -56 24 -61 14 -16
-35z"/>
</g>
<g id="part-1" class="char-part">
  <path d="M265 499 c-27 -5 -56 -6 -64 -4 -9 4 -11 0 -6 -12 15 -40 16 -74 6
-162 -12 -96 -3 -143 22 -123 7 5 34 12 61 16 40 5 51 3 62 -11 11 -16 14 -16
28 -3 11 12 15 46 17 153 3 170 4 168 -126 146z m73 -66 c3 -47 1 -53 -16 -53
-11 0 -34 -3 -51 -6 l-31 -6 0 51 c0 44 3 53 23 61 12 5 33 8 47 7 23 -2 25
-7 28 -54z m2 -128 c0 -30 -3 -55 -7 -55 -5 -1 -27 -5 -51 -9 -23 -5 -45 -5
-48 0 -2 5 -2 31 2 58 6 49 7 50 43 54 20 2 42 4 49 5 8 1 12 -15 12 -53z"/>
</g>
<g id="part-2" class="char-part">
  <path d="M474 356 c-41 -9 -50 -14 -43 -26 4 -8 13 -30 20 -48 9 -24 16 -31
28 -26 9 3 35 9 59 11 36 5 42 9 42 29 0 12 5 26 10 29 6 3 10 15 10 26 0 16
-7 19 -37 18 -21 -1 -61 -7 -89 -13z m76 -23 c0 -29 -15 -44 -46 -46 -25 -2
-29 2 -32 25 -3 21 2 27 20 31 47 9 58 7 58 -10z"/>
</g>
<g id="part-3" class="char-part">
  <path d="M177 117 c-15 -25 -27 -55 -27 -67 0 -27 27 -37 47 -18 18 19 29 90
16 113 -9 14 -14 10 -36 -28z"/>
  <path d="M670 142 c1 -15 102 -113 113 -109 21 7 19 38 -3 62 -22 23 -110 61
-110 47z"/>
  <path d="M340 133 c0 -4 10 -26 21 -50 14 -29 27 -43 38 -41 26 5 25 45 -3 73
-23 23 -56 34 -56 18z"/>
  <path d="M524 98 c26 -44 58 -57 64 -26 4 23 -41 68 -68 68 -21 0 -21 -1 4
-42z"/>
</g>
</g>
</svg>