<?xml version="1.0" standalone="no"?>
<!DOCTYPE svg PUBLIC "-//W3C//DTD SVG 20010904//EN"
 "http://www.w3.org/TR/2001/REC-SVG-20010904/DTD/svg10.dtd">
<svg version="1.0" xmlns="http://www.w3.org/2000/svg"
 width="96.000000pt" height="68.000000pt" viewBox="0 0 96.000000 68.000000"
 preserveAspectRatio="xMidYMid meet">
<metadata>
Created by potrace 1.16, written by Peter Selinger 2001-2019
Combined from part_0.svg through part_5.svg with named groups
</metadata>
<g transform="translate(0.000000,68.000000) scale(0.100000,-0.100000)" fill="#000000" stroke="none">
<g id="part-0" class="char-part">
  <path d="M292 623 c-9 -4 -10 -8 -2 -18 6 -8 10 -33 8 -57 -3 -40 -5 -43 -33
-46 -87 -8 -98 -32 -15 -32 49 0 60 -9 60 -50 0 -14 -11 -19 -57 -24 -157 -18
-169 -23 -113 -46 19 -8 47 -10 75 -6 49 8 49 8 45 -59 -2 -42 -46 -131 -77
-155 -37 -29 -20 -37 20 -10 46 32 73 77 97 162 22 79 31 94 54 85 13 -5 16
-26 16 -122 0 -63 -2 -115 -4 -115 -3 0 -16 4 -30 10 -34 12 -33 9 9 -37 33
-36 35 -37 52 -20 16 15 18 37 18 157 l0 140 51 0 c33 0 56 5 64 15 17 21 -25
29 -106 21 l-64 -7 0 35 0 34 66 7 c53 5 65 10 62 23 -3 14 -15 17 -61 15
l-57 -2 0 44 c0 24 -3 46 -7 48 -16 9 -58 15 -71 10z"/>
  <path d="M695 545 c-16 -8 -52 -14 -79 -15 l-48 0 7 -247 c4 -137 9 -250 11
-252 2 -3 10 1 16 7 8 8 13 78 15 219 2 115 6 217 8 229 3 15 17 23 52 32 64
14 72 4 43 -57 l-23 -50 31 -36 c60 -67 55 -111 -12 -101 l-41 7 58 -41 c32
-22 59 -40 61 -40 2 0 11 15 20 33 27 57 -8 133 -79 173 -18 10 -16 15 33 69
30 34 48 63 43 68 -15 15 -85 17 -116 2z"/>
  <path d="M456 291 c-4 -5 -3 -11 1 -13 5 -1 15 -16 23 -32 20 -38 40 -45 40
-13 0 31 -52 78 -64 58z"/>
  <path d="M173 273 c-3 -10 -15 -31 -26 -46 -10 -16 -16 -31 -13 -34 9 -9 87
77 81 88 -10 15 -35 10 -42 -8z"/>
</g>
<g id="part-1" class="char-part">
  <path d="M303 577 c14 -64 7 -73 -57 -81 -70 -9 -64 -26 10 -26 l54 0 0 -34
c0 -41 -4 -42 -109 -51 -81 -8 -103 -19 -56 -31 28 -7 90 -1 265 24 115 17
123 20 96 31 -21 8 -47 9 -88 3 l-58 -9 0 38 c0 38 0 38 49 45 61 8 82 20 61
34 -14 10 -37 8 -87 -6 -20 -6 -22 -2 -25 47 -3 52 -4 54 -34 57 l-31 3 10
-44z"/>
</g>
<g id="part-2" class="char-part">
  <path d="M450 295 c0 -10 49 -83 60 -90 12 -7 14 44 2 61 -12 19 -62 42 -62
29z"/>
  <path d="M170 277 c0 -7 -11 -29 -25 -50 -19 -27 -22 -37 -11 -37 18 0 87 80
80 91 -8 14 -44 10 -44 -4z"/>
</g>
<g id="part-3" class="char-part">
  <path d="M678 541 c-27 -9 -48 -20 -48 -25 0 -8 55 -1 86 11 24 9 26 -23 4
-67 -12 -23 -20 -44 -18 -46 2 -2 31 24 64 57 56 58 58 61 40 75 -24 17 -67
16 -128 -5z"/>
</g>
<g id="part-4" class="char-part">
  <path d="M575 278 c4 -139 9 -255 11 -257 17 -19 30 114 35 361 l3 143 -28 3
-28 4 7 -254z"/>
</g>
</g>
</svg>