<?xml version="1.0" standalone="no"?>
<!DOCTYPE svg PUBLIC "-//W3C//DTD SVG 20010904//EN"
 "http://www.w3.org/TR/2001/REC-SVG-20010904/DTD/svg10.dtd">
<svg version="1.0" xmlns="http://www.w3.org/2000/svg"
 width="96.000000pt" height="68.000000pt" viewBox="0 0 96.000000 68.000000"
 preserveAspectRatio="xMidYMid meet">
<metadata>
Created by potrace 1.16, written by Peter Selinger 2001-2019
Combined from part_0.svg through part_5.svg with named groups
</metadata>
<g transform="translate(0.000000,68.000000) scale(0.100000,-0.100000)" fill="#000000" stroke="none">
<g id="part-0" class="char-part">
  <path d="M538 536 c-128 -21 -171 -36 -105 -36 34 0 37 -3 43 -36 9 -51 -20
-67 -80 -44 -17 6 -26 6 -26 0 0 -6 4 -10 9 -10 4 0 16 -25 26 -55 17 -54 18
-55 55 -55 39 0 50 -11 42 -43 -4 -14 -16 -17 -78 -17 -71 0 -74 1 -80 26 -4
14 -4 79 -2 145 l5 118 -27 6 c-14 3 -39 1 -54 -5 -15 -5 -47 -10 -72 -10 -44
0 -44 0 -37 -27 11 -40 6 -224 -7 -290 -7 -32 -19 -72 -28 -90 -22 -47 -5 -54
29 -13 18 21 34 56 41 91 10 49 14 56 31 51 14 -4 27 4 44 24 l23 29 0 -65 c0
-98 -6 -110 -48 -110 l-36 0 34 -35 c63 -65 100 -37 100 75 0 57 11 82 26 59
4 -8 25 -9 61 -5 50 6 55 5 48 -11 -12 -33 -10 -35 33 -50 23 -8 42 -18 42
-22 0 -7 -89 -51 -145 -71 -27 -9 -25 -10 19 -5 27 3 74 17 105 32 31 14 62
25 70 24 8 -1 37 -20 66 -42 28 -21 57 -39 63 -39 42 0 -5 66 -67 95 -23 10
-41 22 -41 27 0 4 10 24 23 43 l22 35 88 0 c80 0 112 11 70 24 -29 8 -202 11
-209 3 -4 -4 -18 -7 -31 -7 -16 0 -23 6 -23 20 0 11 -5 20 -12 20 -9 0 -9 3
-1 11 7 7 35 10 72 7 l61 -4 40 47 c22 26 40 52 40 58 0 17 -36 31 -80 31
l-42 0 6 34 c5 28 3 35 -11 39 -13 3 -11 5 7 7 14 1 34 5 45 9 19 8 19 8 0 18
-14 7 -58 3 -147 -11z m52 -61 c0 -45 0 -45 -35 -45 -34 0 -35 1 -35 39 0 37
2 40 33 44 17 2 33 5 35 5 1 1 2 -18 2 -43z m-300 -21 c0 -43 -2 -46 -22 -40
-13 3 -29 6 -35 6 -8 0 -13 14 -13 34 0 28 4 35 23 39 46 9 47 8 47 -39z m390
-63 c0 -39 -20 -62 -48 -55 -15 4 -21 12 -18 21 4 8 9 25 12 38 4 16 13 23 30
23 19 0 24 -6 24 -27z m-94 3 c-3 -9 -6 -27 -6 -40 0 -22 -4 -25 -27 -22 -20
2 -29 9 -31 26 -6 38 5 52 39 52 24 0 30 -3 25 -16z m-98 -37 c3 -34 1 -37
-22 -37 -14 0 -26 6 -26 13 0 6 -3 22 -6 34 -4 15 -1 22 13 26 31 8 38 2 41
-36z m-198 -14 c0 -13 -52 -53 -69 -53 -7 0 -11 20 -11 49 l0 50 40 -17 c22
-9 40 -22 40 -29z m320 -123 c0 -5 -5 -21 -12 -35 -11 -25 -32 -30 -75 -19
-27 8 -29 17 -6 44 18 21 93 29 93 10z"/>
</g>
<g id="part-1" class="char-part">
  <path d="M250 519 c-13 -5 -41 -7 -62 -4 l-38 7 12 -33 c7 -20 9 -75 5 -154
-5 -112 -15 -158 -52 -250 -7 -17 -4 -17 19 5 31 28 49 66 60 123 6 31 11 37
26 32 13 -4 27 5 50 32 l32 38 -6 -49 c-3 -27 -6 -71 -6 -97 l0 -49 -37 0 -38
0 38 -37 38 -38 25 28 c24 28 24 32 26 223 1 107 2 202 2 212 1 20 -54 27 -94
11z m48 -71 c3 -53 4 -52 -50 -37 -34 9 -38 13 -38 43 0 42 6 48 50 44 34 -3
35 -4 38 -50z m-21 -78 c37 0 29 -35 -14 -65 -48 -32 -67 -33 -59 -2 3 12 6
39 6 60 0 37 0 38 22 23 12 -9 33 -16 45 -16z"/>
</g>
<g id="part-2" class="char-part">
  <path d="M533 537 c-73 -12 -133 -25 -133 -31 0 -10 158 1 280 20 33 5 34 7
15 20 -10 8 -21 13 -24 13 -3 -1 -66 -11 -138 -22z"/>
</g>
<g id="part-3" class="char-part">
  <path d="M530 425 c-52 -8 -111 -11 -130 -8 -33 6 -34 5 -20 -12 8 -10 22 -38
30 -64 9 -25 21 -45 28 -43 7 1 65 4 129 6 l117 4 38 43 c20 24 38 49 38 56 1
35 -70 40 -230 18z m146 -20 c11 -28 -11 -70 -37 -71 -13 -1 -61 -5 -106 -9
l-83 -8 -10 27 c-18 49 -18 49 125 65 104 12 105 12 111 -4z"/>
</g>
<g id="part-4" class="char-part">
  <path d="M505 290 c-3 -5 -4 -10 0 -10 3 0 1 -9 -5 -20 -9 -17 -21 -20 -80
-20 -38 0 -71 -4 -74 -9 -9 -14 49 -24 94 -16 43 7 46 5 30 -26 -9 -16 -7 -21
17 -29 71 -26 70 -25 40 -45 -15 -10 -56 -29 -90 -42 l-62 -24 50 6 c40 5 109
31 166 62 3 2 34 -17 68 -43 39 -29 67 -44 77 -40 25 10 -3 45 -64 81 -28 17
-51 33 -52 38 0 4 10 23 23 42 l22 35 88 0 c48 0 87 4 87 9 0 16 -34 22 -116
20 -44 -1 -87 2 -96 6 -11 4 -18 3 -18 -4 0 -6 -14 -11 -31 -11 -23 0 -30 4
-25 15 3 8 -3 19 -14 25 -23 12 -27 12 -35 0z m105 -70 c0 -5 -5 -21 -12 -35
-8 -19 -19 -25 -42 -25 -17 0 -37 4 -45 9 -12 8 -12 13 3 35 13 21 24 26 56
26 22 0 40 -4 40 -10z"/>
</g>
</g>
</svg>