<?xml version="1.0" standalone="no"?>
<!DOCTYPE svg PUBLIC "-//W3C//DTD SVG 20010904//EN"
 "http://www.w3.org/TR/2001/REC-SVG-20010904/DTD/svg10.dtd">
<svg version="1.0" xmlns="http://www.w3.org/2000/svg"
 width="96.000000pt" height="68.000000pt" viewBox="0 0 96.000000 68.000000"
 preserveAspectRatio="xMidYMid meet">
<metadata>
Created by potrace 1.16, written by Peter Selinger 2001-2019
Combined from part_0.svg through part_5.svg with named groups
</metadata>
<g transform="translate(0.000000,68.000000) scale(0.100000,-0.100000)" fill="#000000" stroke="none">
<g id="part-0" class="char-part">
  <path d="M360 597 c0 -16 20 -27 50 -27 10 0 56 -39 102 -87 46 -48 95 -100
110 -115 25 -27 30 -28 124 -28 58 0 94 4 88 9 -5 5 -43 21 -84 36 -98 35
-130 55 -222 142 -49 47 -85 73 -100 73 -13 0 -33 3 -45 6 -17 5 -23 2 -23 -9z"/>
  <path d="M290 502 c0 -28 -56 -106 -103 -146 -23 -19 -53 -44 -67 -55 -35 -29
-9 -26 56 6 66 32 184 142 184 172 0 21 -26 41 -54 41 -9 0 -16 -8 -16 -18z"/>
  <path d="M425 320 c-55 -11 -117 -19 -138 -19 -23 -1 -36 -5 -32 -11 3 -5 24
-10 46 -10 35 0 39 -2 39 -26 0 -34 -56 -109 -114 -154 -59 -46 -58 -56 2 -26
54 27 89 59 145 127 42 52 45 64 20 78 -16 8 -15 10 7 15 14 3 52 7 85 9 l60
2 -2 -43 c-5 -107 -53 -179 -102 -153 -28 15 -28 -1 0 -40 24 -34 47 -37 77
-9 36 33 49 61 67 140 10 41 21 79 26 84 16 18 9 44 -13 50 -33 8 -61 6 -173
-14z"/>
</g>
<g id="part-1" class="char-part">
  <path d="M373 593 c4 -6 19 -14 34 -17 18 -4 69 -49 138 -121 l110 -115 89 0
c52 0 86 4 80 9 -5 5 -39 18 -75 30 -84 27 -135 61 -227 145 -58 55 -80 69
-114 73 -27 4 -39 3 -35 -4z"/>
  <path d="M294 503 c-19 -62 -54 -108 -133 -175 -58 -49 -31 -49 45 0 55 36
154 134 154 153 0 9 -40 39 -53 39 -4 0 -10 -8 -13 -17z"/>
</g>
<g id="part-2" class="char-part">
  <path d="M420 319 c-58 -10 -120 -18 -137 -18 -18 -1 -33 -5 -33 -11 0 -14 51
-12 166 6 130 21 138 18 129 -44 -8 -56 -35 -122 -59 -141 -13 -11 -22 -12
-43 -2 -14 6 -27 10 -28 9 -8 -10 48 -78 64 -78 30 0 79 56 91 103 6 23 20 71
31 107 19 61 19 65 3 77 -22 16 -53 15 -184 -8z"/>
</g>
<g id="part-3" class="char-part">
  <path d="M347 283 c-4 -3 -7 -16 -7 -28 0 -34 -56 -109 -115 -155 -30 -23 -55
-44 -55 -46 0 -7 67 21 101 42 38 23 108 100 131 142 11 21 10 26 -7 38 -20
15 -38 18 -48 7z"/>
</g>
</g>
</svg>