<?xml version="1.0" standalone="no"?>
<!DOCTYPE svg PUBLIC "-//W3C//DTD SVG 20010904//EN"
 "http://www.w3.org/TR/2001/REC-SVG-20010904/DTD/svg10.dtd">
<svg version="1.0" xmlns="http://www.w3.org/2000/svg"
 width="96.000000pt" height="68.000000pt" viewBox="0 0 96.000000 68.000000"
 preserveAspectRatio="xMidYMid meet">
<metadata>
Created by potrace 1.16, written by Peter Selinger 2001-2019
Combined from part_0.svg through part_5.svg with named groups
</metadata>
<g transform="translate(0.000000,68.000000) scale(0.100000,-0.100000)" fill="#000000" stroke="none">
<g id="part-0" class="char-part">
  <path d="M637 575 c-32 -41 -31 -42 29 -14 46 20 54 42 18 47 -12 2 -29 -11
-47 -33z"/>
  <path d="M506 555 c17 -26 54 -34 54 -12 0 20 -22 37 -47 37 -23 0 -23 -1 -7
-25z"/>
  <path d="M719 536 c-2 -2 -22 -6 -44 -9 -133 -16 -264 -41 -259 -49 4 -6 28
-7 59 -3 48 6 53 4 58 -15 6 -23 -1 -27 -48 -33 l-29 -4 1 -79 c1 -43 2 -83 2
-88 1 -5 40 -6 91 -2 90 7 90 7 90 -17 0 -22 -4 -24 -117 -36 -64 -6 -119 -14
-122 -16 -15 -16 23 -16 129 -4 l121 15 -3 -65 -3 -66 -32 3 c-41 3 -41 -5 4
-43 l35 -29 19 23 c15 18 19 40 19 102 l0 79 63 1 c34 0 71 4 82 9 19 7 18 8
-7 18 -14 6 -51 8 -81 5 -50 -5 -54 -4 -60 17 -5 20 -3 22 24 18 16 -3 33 0
38 6 5 6 11 46 13 88 4 88 3 88 -70 88 -43 0 -47 2 -47 25 0 14 2 25 5 25 34
1 146 13 149 16 2 2 2 6 0 8 -7 6 -75 17 -80 12z m-109 -71 c0 -33 -31 -33
-47 0 -10 24 -9 25 18 25 24 0 29 -4 29 -25z m108 -57 c3 -15 -4 -18 -37 -18
-35 0 -41 3 -41 21 0 17 5 20 37 17 27 -2 39 -8 41 -20z m-108 -2 c0 -26 30
-46 71 -46 38 0 40 -2 37 -27 -3 -25 -9 -29 -57 -40 -30 -6 -80 -13 -110 -14
l-56 -3 -3 67 c-3 63 -2 67 19 67 22 0 22 -8 4 -53 -7 -17 -6 -18 13 -6 12 7
27 26 33 41 12 29 49 39 49 14z"/>
  <path d="M572 330 c-37 -9 -54 -20 -30 -20 39 0 108 14 108 21 0 11 -32 10
-78 -1z"/>
  <path d="M241 504 c-39 -11 -62 -12 -82 -5 -36 12 -43 1 -21 -30 9 -13 24 -44
32 -69 14 -41 18 -45 46 -43 l32 3 7 -86 c7 -89 5 -97 -32 -109 -22 -6 -23 -4
-23 59 0 36 -4 66 -9 66 -5 0 -17 3 -26 6 -14 6 -15 -2 -9 -71 l7 -78 -32 6
c-27 6 -32 4 -29 -10 6 -31 49 -38 98 -15 25 11 74 30 110 42 36 13 70 28 75
33 10 9 1 8 -69 -9 l-29 -7 7 44 c8 48 18 59 59 59 15 0 27 5 27 10 0 6 -17
10 -39 10 -35 0 -39 3 -43 30 -4 27 -1 30 28 36 23 4 32 11 31 24 0 10 7 37
18 60 16 35 17 43 4 51 -20 12 -75 10 -138 -7z m72 -46 c-7 -43 -21 -56 -63
-60 -32 -3 -36 0 -46 32 l-12 35 47 12 c77 19 81 18 74 -19z"/>
  <path d="M500 151 c0 -12 40 -41 57 -41 20 0 15 28 -6 40 -24 13 -51 13 -51 1z"/>
</g>
<g id="part-1" class="char-part">
  <path d="M266 503 c-28 -8 -69 -13 -93 -11 -24 2 -43 2 -43 0 0 -2 9 -15 20
-29 11 -14 20 -34 20 -44 0 -23 21 -69 31 -69 4 0 10 4 13 9 3 5 35 12 71 16
51 5 65 10 65 23 0 9 9 36 20 59 19 42 19 43 0 53 -24 13 -44 12 -104 -7z m51
-54 c-3 -22 -7 -42 -9 -44 -1 -2 -24 -6 -49 -10 l-47 -7 -12 37 c-7 20 -10 39
-7 42 8 8 67 21 101 22 28 1 28 0 23 -40z"/>
</g>
<g id="part-2" class="char-part">
  <path d="M260 179 c-67 -19 -117 -27 -137 -24 -38 7 -43 -7 -11 -29 31 -22 38
-21 157 25 167 66 163 75 -9 28z"/>
</g>
<g id="part-3" class="char-part">
  <path d="M640 580 c-36 -45 -33 -47 27 -22 46 18 54 35 24 52 -16 8 -24 4 -51
-30z"/>
  <path d="M490 583 c0 -16 31 -53 45 -53 21 0 29 20 14 35 -18 16 -59 29 -59
18z"/>
  <path d="M685 531 c-22 -5 -93 -16 -158 -26 -83 -12 -115 -21 -108 -28 7 -7
55 -4 159 11 81 12 165 22 187 22 25 0 36 3 29 10 -15 15 -64 19 -109 11z"/>
</g>
<g id="part-4" class="char-part">
  <path d="M635 444 c-44 -7 -102 -13 -130 -13 l-50 -1 2 -86 c0 -47 4 -88 7
-91 10 -10 288 19 291 31 2 6 5 44 7 83 4 70 3 73 -22 81 -15 5 -58 3 -105 -4z
m79 -30 c14 -37 3 -130 -14 -119 -5 3 -30 1 -57 -4 -26 -5 -72 -12 -100 -16
l-53 -6 0 71 0 70 38 1 c20 1 51 5 67 9 55 14 112 11 119 -6z"/>
</g>
<g id="part-5" class="char-part">
  <path d="M510 151 c0 -13 41 -41 51 -35 5 2 6 11 2 20 -3 8 -8 13 -11 10 -2
-3 -13 -1 -23 5 -12 6 -19 6 -19 0z"/>
</g>
</g>
</svg>