<?xml version="1.0" standalone="no"?>
<!DOCTYPE svg PUBLIC "-//W3C//DTD SVG 20010904//EN"
 "http://www.w3.org/TR/2001/REC-SVG-20010904/DTD/svg10.dtd">
<svg version="1.0" xmlns="http://www.w3.org/2000/svg"
 width="96.000000pt" height="68.000000pt" viewBox="0 0 96.000000 68.000000"
 preserveAspectRatio="xMidYMid meet">
<metadata>
Created by potrace 1.16, written by Peter Selinger 2001-2019
Combined from part_0.svg through part_5.svg with named groups
</metadata>
<g transform="translate(0.000000,68.000000) scale(0.100000,-0.100000)" fill="#000000" stroke="none">
<g id="part-0" class="char-part">
  <path d="M670 550 c-7 -16 -23 -41 -36 -55 -36 -38 -7 -30 53 16 57 44 62 53
37 63 -29 11 -42 6 -54 -24z"/>
  <path d="M325 543 c-3 -16 -13 -36 -22 -45 -14 -16 -19 -15 -69 13 -62 35 -71
26 -19 -20 19 -17 35 -35 35 -40 0 -12 -78 -75 -103 -84 -10 -4 -16 -11 -12
-17 6 -10 109 35 135 59 13 13 16 10 24 -18 7 -25 5 -39 -10 -65 -20 -34 -107
-116 -145 -136 -11 -7 -18 -14 -15 -17 10 -11 110 46 149 83 l37 36 0 -39 c0
-22 -5 -66 -12 -97 l-11 -58 -50 5 -49 4 45 -44 c44 -45 45 -45 70 -28 41 27
57 82 57 198 -1 73 -6 117 -20 157 -10 30 -15 57 -12 60 4 3 22 22 41 42 34
37 34 38 16 58 -26 29 -51 25 -60 -7z"/>
  <path d="M470 537 c0 -21 47 -60 64 -54 25 10 19 31 -13 50 -35 20 -51 22 -51
4z"/>
  <path d="M705 456 c-5 -2 -81 -12 -167 -21 -89 -10 -158 -22 -158 -28 0 -6 25
-8 70 -4 l70 6 0 -34 c0 -28 -5 -36 -24 -41 -13 -3 -33 -4 -45 -2 -21 3 -22
-1 -25 -132 -4 -137 4 -177 28 -145 8 11 43 16 132 21 119 7 122 6 129 -15 8
-26 41 -28 54 -3 11 20 8 272 -3 290 -4 7 -32 12 -67 12 l-59 0 6 28 c4 15 8
28 9 30 5 6 59 11 124 11 50 1 62 4 53 13 -11 11 -107 21 -127 14z m-97 -70
c4 -28 -10 -46 -35 -46 -14 0 -18 61 -6 74 15 15 38 -1 41 -28z m120 -94 l3
-43 -43 3 c-39 3 -43 6 -46 31 -6 47 4 59 45 55 37 -3 38 -4 41 -46z m-121 -2
c4 -48 25 -65 79 -64 l45 1 -3 -59 -3 -58 -118 -5 c-64 -3 -123 -6 -130 -8
-16 -3 -19 48 -10 143 7 67 10 75 31 78 17 3 22 -1 22 -20 0 -13 -7 -34 -16
-46 -9 -13 -13 -26 -9 -30 10 -10 52 47 59 80 5 23 10 29 28 26 18 -2 23 -10
25 -38z"/>
  <path d="M625 185 c-5 -2 -31 -6 -57 -10 -27 -3 -48 -11 -48 -17 0 -7 18 -8
53 -4 74 10 98 17 91 27 -5 9 -20 10 -39 4z"/>
</g>
<g id="part-1" class="char-part">
  <path d="M325 531 c-11 -53 -30 -59 -87 -27 -27 15 -51 26 -54 24 -2 -3 14
-19 36 -37 22 -17 40 -36 40 -41 0 -6 -27 -30 -61 -55 -73 -54 -68 -57 18 -10
35 19 65 35 67 35 2 0 9 -14 16 -30 14 -33 9 -248 -5 -284 -7 -15 -16 -17 -52
-13 l-45 5 33 -35 c41 -41 65 -40 95 5 41 60 44 212 7 331 l-17 54 42 37 c41
35 42 37 24 53 -28 26 -50 21 -57 -12z"/>
</g>
<g id="part-2" class="char-part">
  <path d="M300 349 c0 -16 -109 -126 -149 -151 -46 -29 -25 -34 31 -8 68 32
128 96 128 137 0 18 -2 33 -5 33 -3 0 -5 -5 -5 -11z"/>
</g>
<g id="part-3" class="char-part">
  <path d="M672 560 c-6 -16 -23 -46 -38 -65 -14 -19 -23 -35 -19 -35 11 0 125
92 125 102 0 7 -41 28 -55 28 -2 0 -8 -13 -13 -30z"/>
  <path d="M470 538 c1 -22 37 -58 59 -58 29 0 27 34 -4 54 -29 19 -55 21 -55 4z"/>
  <path d="M695 455 c-5 -2 -81 -11 -167 -20 -87 -10 -158 -22 -158 -27 0 -6 25
-8 63 -5 34 2 140 10 235 18 165 12 199 20 150 33 -24 6 -106 7 -123 1z"/>
</g>
<g id="part-4" class="char-part">
  <path d="M612 333 c3 -84 4 -88 29 -100 27 -13 89 -8 89 8 0 4 -19 9 -42 11
l-43 3 1 83 c1 74 -1 82 -18 82 -17 0 -19 -7 -16 -87z"/>
  <path d="M520 341 c0 -54 -4 -74 -21 -95 -28 -35 -19 -43 15 -14 28 24 45 77
46 141 0 30 -4 37 -20 37 -18 0 -20 -7 -20 -69z"/>
</g>
<g id="part-5" class="char-part">
  <path d="M690 349 l-25 -7 26 -1 c15 -1 31 -7 36 -13 5 -7 9 -59 9 -115 -1
-93 0 -100 16 -92 14 8 17 23 14 108 -1 68 1 98 8 94 6 -4 3 3 -7 15 -19 21
-33 23 -77 11z"/>
  <path d="M433 314 c0 -8 5 -14 11 -14 7 0 7 -3 1 -8 -5 -4 -10 -41 -11 -82 0
-41 -4 -87 -7 -103 -9 -34 11 -63 28 -41 6 9 34 14 78 15 37 1 67 6 67 10 0 5
-33 8 -72 7 l-73 -3 3 105 c2 81 7 108 19 117 13 10 10 12 -14 11 -18 -1 -30
-6 -30 -14z"/>
  <path d="M751 107 c-15 -19 -18 -59 -5 -64 11 -4 34 38 34 62 0 19 -14 19 -29
2z"/>
  <path d="M620 95 c-11 -13 -9 -15 13 -15 13 0 30 7 37 15 11 13 9 15 -13 15
-13 0 -30 -7 -37 -15z"/>
  <path d="M704 84 c18 -17 26 -18 26 -1 0 7 -9 13 -20 14 -18 2 -18 0 -6 -13z"/>
</g>
</g>
</svg>