<?xml version="1.0" standalone="no"?>
<!DOCTYPE svg PUBLIC "-//W3C//DTD SVG 20010904//EN"
 "http://www.w3.org/TR/2001/REC-SVG-20010904/DTD/svg10.dtd">
<svg version="1.0" xmlns="http://www.w3.org/2000/svg"
 width="96.000000pt" height="68.000000pt" viewBox="0 0 96.000000 68.000000"
 preserveAspectRatio="xMidYMid meet">
<metadata>
Created by potrace 1.16, written by Peter Selinger 2001-2019
Combined from part_0.svg through part_5.svg with named groups
</metadata>
<g transform="translate(0.000000,68.000000) scale(0.100000,-0.100000)" fill="#000000" stroke="none">
<g id="part-0" class="char-part">
  <path d="M550 611 c0 -39 -11 -51 -47 -51 -40 0 -42 -23 -2 -28 21 -2 25 -8
25 -35 l0 -32 -76 -5 c-41 -2 -99 -4 -127 -5 -29 0 -53 -3 -53 -7 0 -5 4 -8 9
-8 5 0 17 -22 26 -50 9 -27 21 -50 26 -50 11 0 11 7 -1 50 -7 24 -6 36 1 41 7
4 55 10 108 14 53 4 107 9 120 12 22 4 23 2 17 -36 -3 -21 -9 -46 -12 -55 -4
-11 -1 -16 10 -16 9 0 19 8 23 18 3 9 16 31 29 48 30 41 18 58 -40 59 -25 0
-46 2 -46 3 0 2 9 16 20 32 17 24 26 28 77 29 90 2 100 40 10 41 -24 0 -36 4
-32 10 10 16 -15 40 -41 40 -17 0 -24 -6 -24 -19z"/>
  <path d="M290 596 c0 -8 5 -18 10 -21 6 -3 10 -13 10 -21 0 -11 -14 -14 -60
-14 -65 0 -74 -10 -35 -36 20 -13 31 -14 56 -5 47 16 67 14 74 -10 9 -28 30
-18 28 13 -1 21 4 27 28 32 38 7 37 26 -1 26 -23 0 -33 6 -40 25 -7 19 -17 25
-40 25 -19 0 -30 -5 -30 -14z"/>
  <path d="M428 413 c-21 -2 -38 -8 -38 -14 0 -10 63 -12 98 -3 12 4 22 10 22
15 0 9 -11 9 -82 2z"/>
  <path d="M418 363 c-43 -7 -33 -24 10 -19 20 3 49 5 65 5 15 1 27 6 27 11 0
10 -48 11 -102 3z"/>
  <path d="M525 319 c-49 -4 -141 -7 -204 -8 -110 -1 -113 -2 -98 -19 10 -10 17
-23 17 -28 0 -6 5 -21 12 -35 13 -28 7 -28 242 -9 79 6 114 5 128 -3 16 -10
23 -7 53 28 37 44 41 55 23 73 -13 13 -32 13 -173 1z m-31 -49 c-1 -14 -2 -27
-3 -30 0 -3 -20 -5 -43 -5 -37 0 -42 3 -43 25 -3 37 3 41 48 38 38 -3 42 -6
41 -28z m150 8 c-3 -13 -7 -24 -8 -25 -1 -2 -97 -5 -109 -4 -4 1 0 12 9 26 14
21 24 25 66 25 47 0 49 -1 42 -22z m-265 -18 l10 -30 -55 0 c-29 0 -54 4 -54
9 0 5 -3 16 -6 24 -6 16 13 23 68 26 21 1 28 -5 37 -29z"/>
  <path d="M510 189 c-25 -4 -72 -8 -105 -9 -33 -1 -69 -5 -79 -9 -17 -6 -14
-10 20 -24 50 -21 78 -43 70 -56 -7 -10 -79 -34 -176 -57 l-55 -14 55 5 c30 3
94 15 141 26 94 24 79 27 184 -31 34 -18 50 -20 106 -15 36 3 79 9 95 14 l29
8 -25 6 c-14 3 -52 9 -85 12 -62 7 -151 29 -173 44 -9 5 3 18 42 41 40 25 53
37 45 46 -14 17 -38 21 -89 13z m20 -26 c0 -10 -63 -53 -76 -53 -6 0 -25 11
-43 24 l-33 25 43 4 c83 7 109 7 109 0z"/>
</g>
<g id="part-1" class="char-part">
  <path d="M550 595 c0 -31 -3 -35 -27 -35 -16 0 -35 -5 -43 -10 -11 -7 -5 -10
22 -10 36 0 37 -1 27 -26 -14 -38 -5 -40 23 -6 21 25 35 31 86 37 34 4 62 11
62 15 0 14 -38 22 -71 15 -28 -6 -30 -5 -25 13 5 15 1 24 -13 31 -32 18 -41
13 -41 -24z"/>
  <path d="M300 596 c0 -8 5 -18 10 -21 6 -3 10 -12 10 -20 0 -10 -19 -16 -60
-21 -52 -6 -59 -9 -48 -21 12 -15 50 -14 105 2 16 5 23 2 28 -14 9 -29 25 -26
25 4 0 19 7 26 33 34 l32 9 -37 1 c-31 1 -38 5 -38 21 0 18 -26 40 -49 40 -6
0 -11 -6 -11 -14z"/>
</g>
<g id="part-2" class="char-part">
  <path d="M440 464 c-58 -8 -122 -13 -143 -10 -37 4 -38 4 -22 -14 9 -10 23
-36 30 -56 16 -47 41 -61 32 -18 -4 16 -9 38 -12 50 -6 19 -1 21 122 31 70 5
130 8 132 6 3 -1 -1 -26 -7 -55 -20 -82 -7 -79 54 16 16 25 22 42 15 49 -16
16 -90 16 -201 1z"/>
  <path d="M425 413 c-45 -7 -55 -23 -14 -23 53 0 109 12 103 21 -5 9 -34 10
-89 2z"/>
  <path d="M410 361 c-22 -4 -31 -9 -23 -14 16 -10 133 3 133 14 0 10 -56 10
-110 0z"/>
</g>
<g id="part-3" class="char-part">
  <path d="M515 319 c-49 -4 -138 -7 -196 -8 l-106 -1 25 -52 c13 -29 25 -53 26
-54 0 0 78 5 171 11 118 7 175 8 188 0 14 -8 24 -2 56 35 36 41 38 46 24 63
-17 18 -34 19 -188 6z m129 -41 c-3 -13 -7 -23 -8 -24 -5 -4 -261 -24 -302
-24 -45 0 -52 3 -57 22 -4 12 -5 23 -3 25 8 8 156 21 259 22 l118 1 -7 -22z"/>
</g>
<g id="part-4" class="char-part">
  <path d="M435 183 c-22 -2 -60 -6 -85 -9 -38 -5 -41 -7 -25 -16 11 -6 40 -22
64 -36 l44 -25 -27 -14 c-15 -8 -73 -25 -129 -38 l-102 -24 70 6 c39 3 104 15
145 27 l75 22 60 -36 c49 -29 69 -35 115 -34 58 0 154 13 148 19 -2 2 -35 9
-73 15 -95 14 -204 40 -210 50 -3 5 20 24 50 42 49 29 54 34 38 45 -16 12 -65
14 -158 6z m75 -38 c-34 -36 -53 -38 -96 -13 l-39 23 40 6 c22 3 58 7 79 8
l39 1 -23 -25z"/>
</g>
</g>
</svg>