<?xml version="1.0" standalone="no"?>
<!DOCTYPE svg PUBLIC "-//W3C//DTD SVG 20010904//EN"
 "http://www.w3.org/TR/2001/REC-SVG-20010904/DTD/svg10.dtd">
<svg version="1.0" xmlns="http://www.w3.org/2000/svg"
 width="96.000000pt" height="68.000000pt" viewBox="0 0 96.000000 68.000000"
 preserveAspectRatio="xMidYMid meet">
<metadata>
Created by potrace 1.16, written by Peter Selinger 2001-2019
Combined from part_0.svg through part_5.svg with named groups
</metadata>
<g transform="translate(0.000000,68.000000) scale(0.100000,-0.100000)" fill="#000000" stroke="none">
<g id="part-0" class="char-part">
  <path d="M204 493 l1 -78 -52 1 c-57 2 -60 -1 -38 -33 8 -11 17 -38 21 -60 8
-55 19 -72 36 -55 24 24 38 13 38 -32 0 -41 -2 -44 -31 -50 -17 -3 -42 -6 -55
-6 -29 0 -31 -16 -3 -30 16 -9 36 -5 100 19 93 36 107 37 124 14 12 -16 35
-11 35 8 0 14 -56 69 -70 69 -7 0 -9 -7 -6 -17 4 -9 1 -20 -6 -25 -26 -16 -38
-8 -38 27 0 29 5 37 26 45 14 6 37 10 50 10 14 0 23 4 20 9 -3 5 2 30 11 55
21 56 13 66 -56 66 l-44 0 6 43 c3 24 9 50 12 58 6 16 -31 39 -64 39 -16 0
-18 -9 -17 -77z m104 -127 c-3 -26 -31 -57 -41 -46 -2 3 -2 22 0 42 4 29 9 36
24 35 16 -1 19 -8 17 -31z m-98 -16 c0 -41 -21 -57 -34 -24 -13 34 -7 64 14
64 17 0 20 -7 20 -40z"/>
  <path d="M630 534 c-63 -7 -144 -13 -179 -13 -56 -1 -62 -3 -56 -18 11 -26 12
-110 3 -263 -4 -74 -5 -143 -2 -152 6 -19 30 -25 36 -9 2 5 73 12 159 16 l156
8 22 -37 c27 -44 36 -45 56 -7 12 25 14 61 9 218 -4 120 -2 198 4 215 10 25 9
27 -29 42 -22 9 -45 15 -52 15 -6 -1 -64 -7 -127 -15z m145 -31 c9 -25 19
-325 11 -356 -5 -21 -10 -24 -32 -18 -14 3 -89 1 -167 -5 -78 -6 -144 -10
-146 -8 -4 4 -1 367 4 372 5 5 216 29 271 31 41 1 53 -3 59 -16z"/>
  <path d="M564 474 c22 -58 21 -61 -36 -70 l-53 -9 60 -3 60 -3 23 -58 c12 -32
22 -66 22 -75 0 -9 -18 -34 -39 -55 -38 -38 -38 -39 -11 -30 15 6 38 21 50 34
l22 24 38 -40 c52 -55 71 -53 63 9 -7 57 -11 62 -28 38 -18 -24 -45 -14 -45
16 0 13 9 38 20 56 26 42 26 72 1 72 -13 0 -20 -11 -27 -42 -5 -24 -13 -43
-18 -43 -13 0 -39 82 -32 100 3 8 14 15 25 15 11 0 23 5 26 10 4 6 -8 10 -29
10 -28 0 -36 4 -36 18 0 23 -19 42 -43 42 -13 0 -17 -5 -13 -16z"/>
  <path d="M690 455 c26 -27 60 -33 60 -10 0 17 -30 35 -61 35 l-22 0 23 -25z"/>
  <path d="M504 343 l-41 -4 10 -45 c8 -32 15 -43 25 -39 7 3 24 5 37 5 18 0 29
9 40 34 18 38 13 57 -13 54 -9 -1 -35 -3 -58 -5z m48 -38 c-3 -18 -11 -25 -27
-25 -16 0 -24 7 -27 25 -5 22 -2 25 27 25 29 0 32 -3 27 -25z"/>
  <path d="M570 231 c-8 -5 -34 -12 -57 -16 -46 -7 -64 -22 -39 -31 15 -6 126
39 126 50 0 8 -13 7 -30 -3z"/>
</g>
<g id="part-1" class="char-part">
  <path d="M205 560 c-3 -5 -1 -20 5 -35 5 -14 10 -46 10 -71 l0 -44 -62 0 c-60
0 -61 0 -43 -20 9 -10 21 -40 26 -66 10 -55 15 -62 31 -46 7 7 20 12 30 12 15
0 18 -8 18 -45 0 -38 3 -45 20 -45 17 0 20 7 20 44 0 48 9 56 61 56 17 0 28 4
25 8 -2 4 4 28 15 52 24 53 16 64 -45 65 -25 0 -47 3 -50 6 -3 3 -2 30 4 59 6
29 8 55 6 57 -10 10 -66 20 -71 13z m110 -162 c10 -26 -11 -73 -33 -76 -19 -3
-22 1 -22 36 0 23 5 43 13 45 22 9 38 7 42 -5z m-95 -43 c0 -41 -2 -45 -25
-45 -17 0 -25 6 -25 18 0 9 -3 27 -6 39 -6 21 -4 22 49 32 4 0 7 -19 7 -44z"/>
</g>
<g id="part-2" class="char-part">
  <path d="M300 255 c0 -13 51 -85 60 -85 6 0 13 7 17 17 4 11 -4 26 -25 45 -30
26 -52 36 -52 23z"/>
</g>
<g id="part-3" class="char-part">
  <path d="M630 534 c-63 -7 -143 -13 -177 -13 -35 -1 -63 -2 -63 -4 0 -1 4 -17
9 -35 6 -20 6 -101 0 -214 -7 -138 -6 -184 3 -195 10 -13 13 -13 23 0 8 12 46
17 166 22 l156 8 21 -38 c12 -20 28 -35 35 -33 31 11 36 51 30 238 -4 121 -2
198 4 217 10 29 9 31 -23 47 -19 9 -42 15 -52 15 -9 -1 -69 -7 -132 -15z m141
-35 c12 -24 25 -312 15 -352 -5 -22 -9 -25 -34 -18 -15 4 -90 2 -167 -4 -77
-7 -142 -11 -144 -9 -7 7 0 359 7 366 9 9 199 36 264 37 38 1 49 -3 59 -20z"/>
</g>
<g id="part-4" class="char-part">
  <path d="M565 473 c23 -54 20 -60 -37 -69 l-53 -8 58 -4 57 -3 30 -66 30 -65
-20 -29 c-12 -15 -32 -37 -47 -49 -14 -11 -21 -20 -15 -20 6 0 31 15 55 34
l45 34 34 -39 c47 -52 71 -53 62 -1 -9 48 -22 84 -23 61 -1 -9 -7 -22 -15 -28
-11 -10 -17 -7 -30 11 -15 21 -14 25 14 75 32 56 32 73 -1 73 -13 0 -19 -7
-19 -22 -1 -13 -7 -34 -15 -48 l-13 -25 -12 30 c-7 17 -13 44 -14 60 -1 26 3
30 27 33 36 4 25 22 -14 22 -24 0 -29 4 -29 24 0 23 -16 36 -47 36 -11 0 -13
-5 -8 -17z"/>
  <path d="M690 455 c26 -27 60 -33 60 -10 0 17 -30 35 -61 35 l-22 0 23 -25z"/>
</g>
<g id="part-5" class="char-part">
  <path d="M513 213 c-13 -2 -23 -9 -23 -14 0 -6 -5 -7 -12 -3 -6 4 -8 3 -5 -4
8 -11 67 6 67 20 0 4 -1 7 -2 7 -2 -1 -13 -4 -25 -6z"/>
</g>
</g>
</svg>