<?xml version="1.0" standalone="no"?>
<!DOCTYPE svg PUBLIC "-//W3C//DTD SVG 20010904//EN"
 "http://www.w3.org/TR/2001/REC-SVG-20010904/DTD/svg10.dtd">
<svg version="1.0" xmlns="http://www.w3.org/2000/svg"
 width="96.000000pt" height="68.000000pt" viewBox="0 0 96.000000 68.000000"
 preserveAspectRatio="xMidYMid meet">
<metadata>
Created by potrace 1.16, written by Peter Selinger 2001-2019
Combined from part_0.svg through part_5.svg with named groups
</metadata>
<g transform="translate(0.000000,68.000000) scale(0.100000,-0.100000)" fill="#000000" stroke="none">
<g id="part-0" class="char-part">
  <path d="M564 568 c12 -54 26 -151 26 -180 0 -26 -3 -28 -45 -28 l-45 0 22 42
c15 29 18 43 10 46 -18 6 -14 22 6 22 16 1 16 1 -1 11 -10 6 -29 8 -43 5 -19
-5 -24 -3 -24 14 0 12 -10 25 -25 32 -33 15 -42 5 -21 -26 21 -34 22 -33 -22
-41 l-38 -6 27 -57 27 -57 -39 -3 c-21 -2 -39 -8 -39 -14 0 -11 108 -7 212 8
36 5 49 3 52 -7 2 -8 13 -46 25 -84 12 -39 21 -73 21 -76 0 -12 -36 -47 -74
-73 -21 -14 -33 -26 -26 -26 16 0 102 49 112 64 4 5 29 -14 60 -46 46 -49 99
-80 113 -66 3 2 -1 33 -9 68 -11 56 -14 61 -20 37 -9 -39 -45 -36 -73 6 -29
42 -29 46 8 96 33 46 33 65 1 73 -17 5 -22 -2 -31 -38 -6 -23 -15 -45 -20 -48
-9 -6 -37 53 -46 102 l-7 32 54 1 c29 0 62 4 73 9 17 6 15 9 -16 15 -20 4 -54
5 -75 3 l-39 -3 -8 55 c-6 33 -6 71 0 97 9 39 8 44 -13 58 -13 8 -31 15 -40
15 -13 0 -15 -6 -10 -32z m-81 -162 c-2 -54 -1 -53 -27 -58 -13 -2 -20 4 -23
22 -2 13 -10 34 -18 47 -20 30 -20 31 18 36 49 6 52 3 50 -47z"/>
  <path d="M175 580 c-3 -5 -1 -18 5 -29 5 -11 10 -45 10 -75 l0 -56 -46 0 -46
0 6 -34 c4 -19 2 -53 -3 -76 -9 -42 -6 -70 9 -70 14 0 30 61 30 110 0 43 3 48
25 52 18 4 25 1 25 -11 0 -9 -5 -83 -10 -164 -10 -153 -5 -187 26 -187 23 0
34 44 34 141 0 49 2 89 5 89 3 0 16 -9 27 -20 33 -31 49 -7 58 86 9 91 0 106
-59 96 l-34 -5 6 70 c5 68 5 71 -19 82 -31 14 -41 14 -49 1z m115 -233 c0 -71
-3 -77 -31 -70 -16 5 -19 14 -19 69 0 62 1 64 25 64 24 0 25 -2 25 -63z"/>
  <path d="M676 512 c-8 -13 52 -74 70 -70 20 4 27 18 16 35 -10 17 -80 45 -86
35z"/>
  <path d="M460 281 c-14 -4 -36 -6 -50 -5 -24 2 -25 1 -27 -69 -3 -106 -3 -105
64 -93 43 8 58 7 61 -2 5 -16 32 -15 32 1 0 6 2 47 3 89 2 70 1 77 -18 82 -24
7 -33 6 -65 -3z m40 -25 c0 -8 3 -21 6 -30 5 -13 -2 -16 -40 -16 -40 0 -46 3
-46 20 0 12 10 24 23 30 33 13 57 12 57 -4z m8 -88 c3 -27 2 -28 -46 -28 -42
0 -50 3 -47 18 2 9 4 20 4 24 1 8 38 16 66 14 14 -1 21 -9 23 -28z"/>
</g>
<g id="part-1" class="char-part">
  <path d="M188 393 c2 -104 -1 -215 -6 -248 -9 -58 -1 -105 19 -105 23 0 29 52
29 237 1 109 5 217 9 240 9 46 0 63 -34 63 -20 0 -20 -4 -17 -187z"/>
</g>
<g id="part-2" class="char-part">
  <path d="M211 425 c-41 -7 -82 -10 -92 -8 -15 4 -17 -2 -16 -43 1 -27 -1 -62
-5 -79 -5 -16 -4 -37 2 -45 17 -26 32 4 38 75 6 77 16 85 103 85 l50 0 -3 -67
c-3 -66 -4 -68 -28 -65 l-25 4 27 -28 c26 -27 29 -27 45 -11 11 11 20 43 25
94 6 67 5 80 -9 91 -9 6 -22 11 -27 11 -6 -1 -44 -7 -85 -14z"/>
</g>
<g id="part-3" class="char-part">
  <path d="M410 532 c0 -5 7 -17 15 -28 22 -29 19 -32 -31 -40 -31 -4 -42 -9
-33 -15 14 -9 37 -7 138 13 44 8 51 12 37 20 -10 5 -28 7 -42 4 -19 -5 -24 -2
-24 12 0 10 -5 23 -12 30 -14 14 -48 16 -48 4z"/>
</g>
<g id="part-4" class="char-part">
  <path d="M565 574 c14 -55 32 -205 25 -209 -4 -3 -62 -10 -129 -17 -66 -6
-121 -16 -121 -21 0 -6 33 -7 93 -2 50 4 110 8 131 9 l39 1 16 -60 c10 -33 22
-70 29 -81 14 -26 -7 -53 -77 -103 -24 -17 -41 -31 -37 -31 12 0 90 42 115 61
l23 19 52 -55 c44 -47 98 -77 111 -63 3 2 0 20 -5 39 -6 18 -10 47 -11 64 l-1
30 -14 -33 c-8 -17 -18 -32 -23 -32 -5 0 -25 18 -45 40 l-37 41 22 32 c12 18
31 41 41 53 15 17 16 23 6 31 -35 27 -46 22 -57 -22 -6 -24 -15 -46 -20 -49
-10 -6 -34 49 -46 102 l-7 32 49 1 c26 0 57 4 68 9 18 7 18 8 -8 15 -15 4 -47
4 -71 1 l-44 -7 -7 64 c-4 35 -2 79 3 100 11 41 5 51 -42 63 -28 7 -29 6 -21
-22z"/>
  <path d="M692 481 c35 -45 78 -53 78 -16 0 17 -50 45 -80 45 -21 0 -21 0 2
-29z"/>
</g>
<g id="part-5" class="char-part">
  <path d="M468 273 c7 -3 16 -2 19 1 4 3 -2 6 -13 5 -11 0 -14 -3 -6 -6z"/>
  <path d="M510 245 c5 -24 4 -35 -4 -36 -6 0 -2 -4 9 -9 11 -5 15 -9 9 -9 -14
-1 -14 -32 0 -50 8 -11 8 -13 -1 -7 -8 4 -13 1 -13 -9 0 -9 6 -15 13 -13 16 6
21 72 8 109 -6 18 -6 27 -1 24 6 -4 10 0 10 8 0 12 -19 27 -35 27 -1 0 1 -16
5 -35z"/>
  <path d="M391 213 c0 -29 -2 -61 -6 -72 -7 -23 12 -38 28 -22 6 6 7 11 2 11
-6 0 -10 16 -11 35 0 18 2 32 6 30 3 -2 6 13 7 34 1 26 -2 38 -12 38 -10 0
-14 -15 -14 -54z"/>
  <path d="M440 200 c0 -5 7 -7 15 -4 8 4 15 8 15 10 0 2 -7 4 -15 4 -8 0 -15
-4 -15 -10z"/>
  <path d="M455 130 l-30 -8 33 -1 c17 0 32 4 32 9 0 6 -1 9 -2 9 -2 -1 -16 -5
-33 -9z"/>
</g>
</g>
</svg>