<?xml version="1.0" standalone="no"?>
<!DOCTYPE svg PUBLIC "-//W3C//DTD SVG 20010904//EN"
 "http://www.w3.org/TR/2001/REC-SVG-20010904/DTD/svg10.dtd">
<svg version="1.0" xmlns="http://www.w3.org/2000/svg"
 width="96.000000pt" height="68.000000pt" viewBox="0 0 96.000000 68.000000"
 preserveAspectRatio="xMidYMid meet">
<metadata>
Created by potrace 1.16, written by Peter Selinger 2001-2019
Combined from part_0.svg through part_5.svg with named groups
</metadata>
<g transform="translate(0.000000,68.000000) scale(0.100000,-0.100000)" fill="#000000" stroke="none">
<g id="part-0" class="char-part">
  <path d="M550 589 c0 -21 -3 -38 -7 -37 -16 4 -73 -14 -73 -23 0 -5 15 -9 34
-9 30 0 33 -2 28 -26 -4 -24 -3 -25 17 -12 12 7 24 20 26 29 4 12 23 18 72 22
36 4 68 9 71 12 14 14 -21 27 -63 23 -43 -3 -46 -2 -40 19 4 16 0 23 -17 29
-45 15 -48 13 -48 -27z"/>
  <path d="M290 588 c0 -8 7 -24 16 -36 l15 -22 -70 0 c-39 0 -71 -4 -71 -9 0
-5 12 -16 26 -26 22 -14 33 -15 72 -5 43 11 47 10 64 -12 15 -19 20 -20 27 -9
5 8 7 20 5 26 -3 7 9 16 26 21 43 12 43 28 0 28 -28 1 -35 5 -40 26 -4 19 -13
26 -38 28 -22 2 -32 -1 -32 -10z"/>
  <path d="M424 468 c1 -21 -4 -23 -56 -26 -32 -2 -58 -6 -58 -10 0 -4 27 -5 60
-4 54 3 60 2 60 -16 0 -17 -10 -21 -72 -30 l-73 -9 73 -2 c64 -1 73 -3 70 -18
-3 -15 -15 -18 -63 -20 -107 -5 -166 -14 -159 -25 7 -11 112 -6 181 8 25 5 34
3 39 -10 11 -28 -1 -32 -94 -35 -29 -1 -41 -5 -36 -12 4 -8 28 -10 70 -6 54 5
64 4 64 -9 0 -10 -6 -14 -15 -10 -10 3 -15 -1 -15 -13 0 -32 -21 -39 -142 -46
-65 -4 -118 -11 -118 -16 0 -14 68 -15 180 -3 l55 6 -23 -25 c-27 -28 -24 -32
36 -42 23 -4 42 -10 42 -14 0 -12 -40 -29 -120 -51 l-75 -20 66 4 c43 2 87 13
125 30 l60 27 77 -36 c89 -40 107 -43 107 -16 0 21 -38 42 -107 60 -24 7 -43
14 -43 17 0 3 12 21 28 40 l27 34 118 0 c110 0 136 7 105 27 -7 4 -62 8 -123
9 -60 0 -120 4 -132 8 -18 6 -23 5 -23 -8 0 -12 -10 -16 -38 -16 -37 0 -38 1
-34 31 2 17 10 32 16 34 10 4 90 13 126 14 10 1 16 11 15 29 0 27 0 27 64 24
82 -4 103 3 72 24 -17 12 -34 14 -68 9 -42 -6 -44 -5 -38 13 8 27 -18 35 -97
30 -43 -2 -63 1 -65 9 -6 16 38 33 83 33 19 0 34 5 34 10 0 6 -22 9 -55 7 -37
-2 -55 1 -55 9 0 12 -22 24 -44 24 -7 0 -12 -10 -12 -22z m156 -102 c0 -18
-22 -26 -71 -26 -32 0 -39 3 -39 20 0 18 7 20 55 20 40 0 55 -4 55 -14z m-12
-58 c-6 -17 -91 -29 -100 -15 -12 20 2 27 53 27 36 0 49 -4 47 -12z m-58 -151
c0 -8 -11 -24 -24 -36 -21 -19 -30 -22 -70 -16 -25 4 -46 11 -46 15 0 5 12 18
26 29 31 25 114 30 114 8z"/>
</g>
<g id="part-1" class="char-part">
  <path d="M550 586 c0 -36 -12 -46 -58 -46 -21 0 -24 -2 -12 -10 8 -5 26 -10
39 -10 18 0 22 -4 18 -20 -7 -27 3 -25 28 5 17 21 32 27 88 32 37 3 67 9 67
13 0 13 -43 20 -84 13 -36 -6 -38 -5 -31 17 8 24 -7 40 -37 40 -14 0 -18 -8
-18 -34z"/>
  <path d="M297 594 c-3 -4 0 -19 8 -34 14 -27 14 -28 -17 -34 -17 -3 -46 -6
-65 -6 -31 0 -34 -2 -22 -16 11 -13 25 -15 75 -9 57 6 63 5 69 -14 9 -31 25
-26 25 8 0 24 5 30 33 37 l32 8 -37 3 c-24 3 -38 9 -38 18 0 28 -45 56 -63 39z"/>
</g>
<g id="part-2" class="char-part">
  <path d="M429 492 c-1 -4 -2 -16 -3 -27 -1 -17 -10 -21 -61 -25 -42 -4 -55 -8
-42 -14 9 -5 37 -5 62 -2 37 6 45 4 45 -8 0 -9 9 -16 20 -16 11 0 20 6 20 14
0 10 16 17 48 21 73 10 82 19 23 23 -30 2 -59 9 -65 16 -13 16 -46 28 -47 18z"/>
</g>
<g id="part-3" class="char-part">
  <path d="M360 384 l-75 -12 73 -1 c64 -1 73 -3 70 -18 -3 -15 -20 -19 -116
-25 -63 -3 -116 -9 -119 -12 -14 -14 59 -18 135 -8 88 12 102 10 102 -12 0
-14 -50 -26 -107 -26 -18 0 -33 -5 -33 -11 0 -7 23 -10 65 -7 50 2 68 -1 76
-12 8 -13 11 -13 20 3 7 11 22 17 47 17 56 0 112 11 106 21 -3 5 -2 18 1 30 6
18 12 20 75 13 45 -4 70 -3 74 5 11 17 -44 33 -87 27 -35 -6 -38 -5 -32 13 3
12 0 21 -11 25 -24 9 -180 4 -264 -10z m218 -21 c-2 -14 -15 -19 -56 -21 -47
-3 -52 -1 -52 17 0 19 6 21 56 21 47 0 55 -3 52 -17z m-8 -53 c0 -12 -11 -16
-62 -24 -33 -4 -38 -2 -38 15 0 16 7 19 50 19 28 0 50 -5 50 -10z"/>
</g>
<g id="part-4" class="char-part">
  <path d="M397 212 c-6 -28 -7 -29 -89 -35 -46 -4 -102 -7 -125 -7 -24 0 -43
-4 -43 -9 0 -15 55 -20 121 -11 35 5 75 10 88 10 l24 0 -22 -24 c-26 -27 -22
-31 37 -41 23 -4 42 -10 42 -15 0 -11 -75 -39 -148 -56 l-57 -13 70 3 c50 2
89 11 132 30 l61 28 77 -36 c88 -41 105 -44 105 -18 0 22 -23 35 -102 59 l-57
18 33 38 33 39 116 -1 c76 -1 117 2 117 9 0 22 -54 32 -128 23 -53 -7 -82 -6
-110 4 -47 16 -52 16 -52 -2 0 -11 -11 -15 -39 -15 -34 0 -38 3 -34 20 3 11 1
20 -5 20 -6 0 -17 2 -25 6 -10 3 -16 -4 -20 -24z m114 -60 c-22 -41 -47 -54
-95 -47 -25 4 -46 10 -46 13 0 3 10 16 22 29 17 18 32 23 75 23 48 0 53 -2 44
-18z"/>
</g>
</g>
</svg>