<?xml version="1.0" standalone="no"?>
<!DOCTYPE svg PUBLIC "-//W3C//DTD SVG 20010904//EN"
 "http://www.w3.org/TR/2001/REC-SVG-20010904/DTD/svg10.dtd">
<svg version="1.0" xmlns="http://www.w3.org/2000/svg"
 width="96.000000pt" height="68.000000pt" viewBox="0 0 96.000000 68.000000"
 preserveAspectRatio="xMidYMid meet">
<metadata>
Created by potrace 1.16, written by Peter Selinger 2001-2019
Combined from part_0.svg through part_5.svg with named groups
</metadata>
<g transform="translate(0.000000,68.000000) scale(0.100000,-0.100000)" fill="#000000" stroke="none">
<g id="part-0" class="char-part">
  <path d="M652 548 l3 -43 -44 -3 c-40 -3 -43 -2 -38 17 3 14 -1 25 -13 31 -32
17 -39 11 -37 -27 2 -34 -1 -38 -28 -44 l-30 -7 33 -1 c27 -1 32 -5 32 -25 0
-17 -7 -25 -22 -29 -28 -6 -59 -4 -76 7 -17 10 -15 -19 3 -37 8 -8 12 -17 10
-19 -5 -4 23 -109 30 -117 2 -1 9 0 15 4 15 9 136 20 221 20 73 -1 64 -8 103
89 20 48 20 51 0 71 -12 12 -27 14 -65 9 -47 -6 -49 -6 -49 19 0 20 6 26 35
31 43 8 46 26 4 26 -28 0 -31 2 -25 25 5 18 1 27 -13 35 -41 21 -53 13 -49
-32z m-2 -94 c0 -23 -3 -25 -37 -22 -63 5 -44 40 25 47 7 0 12 -10 12 -25z
m118 -56 c-2 -18 -10 -23 -38 -24 -36 -2 -52 10 -43 33 3 8 21 13 45 13 35 0
39 -2 36 -22z m-120 -10 c-2 -18 -11 -24 -35 -26 -30 -3 -33 -1 -33 22 0 23 4
26 36 26 31 0 35 -3 32 -22z m-108 -12 c0 -20 -6 -24 -34 -28 -19 -2 -32 0
-30 4 3 4 1 16 -5 26 -9 16 -5 18 30 20 35 3 39 1 39 -22z m211 -55 c-8 -14
-21 -21 -42 -21 -26 0 -30 3 -27 22 2 16 12 25 33 29 38 7 50 -3 36 -30z
m-209 2 c7 -28 -2 -43 -27 -43 -16 0 -24 7 -27 25 -6 29 -2 35 28 35 12 0 24
-7 26 -17z m98 -2 c0 -20 -32 -37 -50 -26 -5 3 -10 15 -10 26 0 14 7 19 30 19
23 0 30 -5 30 -19z"/>
  <path d="M237 498 c4 -24 7 -56 8 -73 0 -30 -1 -30 -55 -32 -30 -1 -59 -2 -64
-2 -5 -1 -1 -10 8 -20 10 -11 23 -41 30 -68 13 -47 13 -48 49 -45 37 3 37 3
37 -37 0 -38 -2 -40 -35 -47 -20 -3 -50 -8 -68 -9 -18 -2 -34 -3 -37 -4 -3 -1
8 -10 24 -20 29 -19 30 -19 85 1 31 12 58 24 61 27 3 3 24 7 47 9 32 3 44 -1
51 -15 8 -14 14 -15 23 -6 19 19 3 57 -31 70 -26 10 -30 9 -30 -7 0 -10 -9
-20 -21 -23 -18 -5 -20 -1 -17 31 3 34 6 37 43 44 31 6 44 15 53 36 6 15 17
35 24 44 21 28 -15 58 -70 58 l-44 0 6 54 c6 48 5 56 -13 65 -11 6 -31 11 -45
11 -25 0 -26 -2 -19 -42z m113 -147 c0 -33 -11 -51 -31 -51 -20 0 -23 10 -13
48 8 28 44 30 44 3z m-100 -26 c0 -28 -4 -35 -19 -35 -20 0 -31 18 -31 51 0
14 7 19 25 19 22 0 25 -4 25 -35z"/>
  <path d="M593 227 l-93 -10 0 -81 c0 -45 4 -86 8 -92 5 -8 33 -8 92 -2 61 6
91 5 108 -4 14 -7 26 -8 31 -2 5 5 11 49 13 97 4 86 4 89 -19 98 -14 5 -30 8
-36 7 -7 -1 -54 -6 -104 -11z m111 -43 c4 -15 6 -28 4 -29 -2 -1 -40 -6 -85
-9 l-83 -7 0 30 c0 33 9 36 111 39 43 2 47 0 53 -24z m6 -79 c0 -30 -4 -32
-97 -39 l-73 -5 0 29 c0 27 3 29 48 33 121 9 122 9 122 -18z"/>
</g>
<g id="part-1" class="char-part">
  <path d="M236 532 c-2 -4 -1 -14 5 -22 5 -8 9 -39 9 -67 l0 -53 -59 0 -59 0
19 -37 c10 -21 19 -46 19 -58 0 -36 14 -47 44 -35 15 5 29 10 32 10 2 0 4 -20
4 -44 0 -41 1 -43 25 -38 22 4 25 9 25 48 l0 44 46 0 c29 0 43 4 39 10 -4 6 6
27 21 47 l27 36 -23 19 c-18 15 -32 17 -68 12 l-44 -7 6 32 c18 95 19 88 -15
100 -38 13 -46 14 -53 3z m120 -165 c9 -24 -14 -67 -36 -67 -17 0 -20 7 -20
40 0 36 2 40 25 40 14 0 28 -6 31 -13z m-106 -37 c0 -28 -5 -43 -16 -47 -20
-7 -30 4 -39 44 -5 25 -3 32 12 36 39 10 43 7 43 -33z"/>
</g>
<g id="part-2" class="char-part">
  <path d="M342 218 c8 -13 21 -33 29 -45 18 -30 39 -29 39 1 0 16 -11 32 -29
45 -40 29 -58 28 -39 -1z"/>
</g>
<g id="part-3" class="char-part">
  <path d="M651 563 c4 -59 2 -63 -42 -63 -35 0 -40 2 -34 19 4 14 0 23 -14 30
-34 19 -42 13 -39 -26 3 -34 1 -38 -27 -44 l-30 -7 32 -1 c25 -1 32 -6 35 -23
2 -15 10 -23 23 -23 13 0 21 8 23 23 2 12 9 22 15 22 7 0 22 3 35 6 19 5 22 2
22 -20 0 -28 18 -34 38 -14 7 7 12 20 12 29 0 12 12 19 41 24 29 5 38 10 28
16 -8 5 -24 9 -37 9 -19 0 -21 4 -16 24 4 18 1 27 -14 35 -36 19 -53 14 -51
-16z"/>
</g>
<g id="part-4" class="char-part">
  <path d="M665 434 c-55 -8 -135 -14 -178 -15 -73 -1 -78 -2 -63 -17 8 -10 20
-40 26 -67 18 -82 20 -86 40 -80 31 10 81 15 185 19 l100 5 27 58 c32 69 33
77 12 97 -18 18 -14 18 -149 0z m105 -30 c0 -8 -5 -35 -11 -58 l-11 -43 -82
-6 c-45 -4 -102 -10 -127 -13 l-45 -6 -13 57 c-7 31 -11 58 -9 59 4 4 194 22
251 24 37 2 47 -1 47 -14z"/>
</g>
<g id="part-5" class="char-part">
  <path d="M696 233 c-3 -3 -2 -11 3 -17 12 -16 20 -66 10 -66 -5 0 -4 -11 1
-24 5 -13 6 -33 3 -44 -4 -17 -11 -20 -33 -15 -15 3 -52 0 -81 -6 -37 -8 -55
-9 -57 -1 -2 5 -8 7 -14 4 -7 -4 -7 2 -2 17 10 30 10 56 1 91 -6 24 -4 27 20
30 27 3 27 4 -4 9 -32 5 -33 5 -33 -32 0 -20 6 -40 13 -42 9 -4 9 -6 -1 -6 -7
-1 -10 -5 -7 -11 3 -5 2 -18 -4 -28 -16 -30 3 -47 51 -45 24 1 64 3 90 4 26 1
54 -4 62 -11 13 -10 17 -8 26 15 6 16 9 41 6 56 -2 15 0 44 4 64 7 32 6 37
-20 50 -15 8 -30 11 -34 8z"/>
  <path d="M668 143 c7 -3 16 -2 19 1 4 3 -2 6 -13 5 -11 0 -14 -3 -6 -6z"/>
  <path d="M555 130 c3 -5 15 -10 25 -10 10 0 22 5 25 10 4 6 -7 10 -25 10 -18
0 -29 -4 -25 -10z"/>
</g>
</g>
</svg>