<?xml version="1.0" standalone="no"?>
<!DOCTYPE svg PUBLIC "-//W3C//DTD SVG 20010904//EN"
 "http://www.w3.org/TR/2001/REC-SVG-20010904/DTD/svg10.dtd">
<svg version="1.0" xmlns="http://www.w3.org/2000/svg"
 width="96.000000pt" height="68.000000pt" viewBox="0 0 96.000000 68.000000"
 preserveAspectRatio="xMidYMid meet">
<metadata>
Created by potrace 1.16, written by Peter Selinger 2001-2019
Combined from part_0.svg through part_5.svg with named groups
</metadata>
<g transform="translate(0.000000,68.000000) scale(0.100000,-0.100000)" fill="#000000" stroke="none">
<g id="part-0" class="char-part">
  <path d="M600 524 c0 -101 -6 -110 -74 -113 l-56 -2 0 65 c0 64 0 64 -31 71
-17 4 -32 5 -34 3 -2 -1 1 -23 5 -48 16 -82 13 -100 -16 -100 -14 0 -23 -4
-19 -10 3 -5 17 -10 31 -10 18 0 24 -5 24 -22 0 -13 3 -40 6 -61 l7 -37 -59
-1 c-33 -1 -70 -4 -84 -9 l-25 -7 30 -7 c17 -4 35 -9 40 -11 6 -1 44 3 85 11
41 7 148 13 237 13 107 1 164 5 169 12 14 23 -23 30 -120 25 l-98 -5 7 47 c9
61 19 72 66 72 39 0 58 13 38 26 -7 4 -29 6 -50 6 l-38 -2 19 68 19 67 -22 17
c-12 10 -30 18 -39 18 -16 0 -18 -10 -18 -76z m-17 -164 c-8 -87 -11 -90 -58
-90 l-45 0 0 45 c0 25 0 48 -1 53 0 10 41 21 76 19 26 -2 30 -6 28 -27z"/>
  <path d="M235 458 c-10 -6 -47 -11 -81 -10 l-62 0 18 -31 c10 -18 21 -53 25
-78 10 -69 10 -69 96 -56 75 10 75 10 75 41 0 17 8 46 17 65 30 60 19 81 -41
81 -15 0 -36 -6 -47 -12z m22 -79 c-7 -60 -5 -55 -39 -64 -24 -6 -29 -3 -37
18 -6 14 -11 38 -13 54 -3 23 1 28 27 34 67 15 68 14 62 -42z"/>
  <path d="M406 181 c-9 -16 -37 -47 -63 -70 -53 -45 -39 -57 21 -16 20 14 39
25 41 25 3 0 15 9 27 20 13 10 32 25 42 33 25 18 12 37 -24 37 -22 0 -33 -7
-44 -29z"/>
  <path d="M590 208 c0 -3 12 -18 26 -34 113 -125 134 -138 134 -85 0 22 -10 38
-41 64 -22 19 -50 37 -62 40 -12 2 -30 8 -39 12 -10 4 -18 5 -18 3z"/>
</g>
<g id="part-1" class="char-part">
  <path d="M235 454 c-26 -10 -56 -13 -88 -9 -52 6 -54 5 -33 -28 8 -12 20 -48
27 -80 12 -58 26 -79 38 -59 3 6 31 12 60 14 50 3 54 5 57 30 1 15 12 48 24
75 20 45 20 48 4 60 -22 16 -39 15 -89 -3z m27 -75 c-3 -58 -12 -69 -54 -69
-23 0 -29 6 -37 38 -18 61 -15 68 32 79 23 6 47 9 52 8 6 -1 9 -26 7 -56z"/>
</g>
<g id="part-2" class="char-part">
  <path d="M600 523 c0 -43 -4 -84 -9 -92 -5 -8 -32 -16 -65 -19 l-56 -4 0 65
c0 65 0 65 -31 72 -17 4 -33 5 -35 2 -3 -2 0 -24 5 -48 6 -24 11 -56 11 -71 0
-25 -4 -28 -31 -28 -17 0 -28 -4 -24 -10 3 -5 19 -10 36 -10 25 0 29 -4 29
-29 0 -16 3 -43 6 -60 l7 -31 -64 -1 c-35 0 -73 -4 -84 -9 -18 -7 -18 -9 10
-20 23 -9 43 -9 90 1 33 7 145 15 249 18 133 4 191 10 193 18 7 19 -57 31
-117 22 -106 -15 -103 -16 -95 39 8 58 14 64 65 71 52 8 52 25 0 29 -46 4 -48
11 -25 88 14 47 14 50 -6 67 -12 9 -30 17 -40 17 -17 0 -19 -8 -19 -77z m-14
-155 c-3 -13 -8 -40 -11 -60 -6 -37 -7 -38 -50 -38 l-45 0 0 45 c0 25 0 48 -1
53 0 9 38 20 79 21 28 1 32 -2 28 -21z"/>
</g>
<g id="part-3" class="char-part">
  <path d="M406 181 c-9 -16 -39 -50 -68 -75 l-53 -47 37 15 c43 17 168 103 168
116 0 4 -7 11 -16 14 -32 12 -54 5 -68 -23z"/>
  <path d="M590 205 c0 -6 36 -47 107 -122 31 -32 53 -30 53 5 0 31 -35 70 -85
95 -40 20 -75 30 -75 22z"/>
</g>
</g>
</svg>