<?xml version="1.0" standalone="no"?>
<!DOCTYPE svg PUBLIC "-//W3C//DTD SVG 20010904//EN"
 "http://www.w3.org/TR/2001/REC-SVG-20010904/DTD/svg10.dtd">
<svg version="1.0" xmlns="http://www.w3.org/2000/svg"
 width="96.000000pt" height="68.000000pt" viewBox="0 0 96.000000 68.000000"
 preserveAspectRatio="xMidYMid meet">
<metadata>
Created by potrace 1.16, written by Peter Selinger 2001-2019
Combined from part_0.svg through part_5.svg with named groups
</metadata>
<g transform="translate(0.000000,68.000000) scale(0.100000,-0.100000)" fill="#000000" stroke="none">
<g id="part-0" class="char-part">
  <path d="M265 553 c5 -10 10 -46 13 -79 l4 -62 -63 -7 c-72 -8 -104 -20 -79
-29 8 -3 41 -7 72 -8 l57 -3 -22 -44 c-12 -25 -49 -73 -81 -108 -32 -35 -56
-66 -53 -69 11 -12 74 30 120 79 l49 52 -6 -40 c-17 -112 -18 -180 -3 -200 33
-43 55 30 56 193 l1 83 27 -26 c31 -28 58 -32 67 -10 10 27 -5 43 -50 56 -36
11 -44 18 -42 34 2 15 14 21 47 27 80 14 83 44 4 41 l-46 -2 7 54 c5 48 4 55
-16 69 -12 9 -33 16 -46 16 -19 0 -23 -4 -17 -17z"/>
  <path d="M695 524 c-27 -8 -86 -15 -130 -16 l-80 -1 0 -91 c0 -109 -30 -211
-87 -296 -61 -91 -26 -77 44 18 35 47 65 124 83 209 l6 31 133 7 c124 7 133 9
129 26 -3 10 5 37 16 60 13 25 18 46 13 51 -16 16 -76 17 -127 2z m57 -59 c-2
-22 -4 -40 -5 -41 -1 -1 -20 -5 -43 -8 l-41 -7 1 45 c1 42 3 45 31 49 56 7 60
4 57 -38z m-124 2 c2 -10 1 -30 -2 -43 -6 -22 -11 -25 -49 -22 -45 3 -45 4
-31 66 4 20 10 23 42 20 26 -2 38 -8 40 -21z"/>
  <path d="M690 324 c-36 -7 -81 -13 -100 -14 l-35 0 0 -124 c0 -126 4 -147 27
-129 7 6 47 13 90 15 72 5 77 4 87 -19 12 -27 24 -29 45 -7 14 13 15 34 10
142 -4 70 -9 130 -13 133 -14 15 -50 16 -111 3z m68 -45 c3 -25 0 -27 -55 -34
-32 -3 -68 -9 -81 -11 -21 -4 -23 -1 -20 28 3 31 5 33 53 39 85 11 100 7 103
-22z m2 -72 c0 -20 -7 -24 -76 -35 -82 -13 -94 -11 -94 17 0 15 12 21 58 29
98 16 112 15 112 -11z m0 -72 c0 -14 1 -27 3 -30 1 -3 -37 -7 -85 -9 -85 -3
-88 -3 -88 19 0 19 8 23 68 32 104 16 102 16 102 -12z"/>
</g>
<g id="part-1" class="char-part">
  <path d="M274 543 c4 -16 10 -51 13 -79 6 -58 12 -54 -101 -69 -72 -10 -37
-27 37 -19 l59 7 -30 -59 c-17 -33 -54 -85 -82 -116 -72 -81 -37 -75 45 7 l65
65 0 -37 c0 -19 -5 -63 -11 -97 -11 -62 -2 -116 20 -116 22 0 31 44 32 164 l1
126 29 -20 c15 -12 31 -25 34 -30 12 -19 35 -10 35 14 0 23 -16 34 -78 51 -16
5 -22 13 -20 28 2 17 15 24 60 35 70 17 67 37 -4 29 l-50 -6 7 58 c6 54 5 60
-16 75 -36 25 -53 21 -45 -11z"/>
</g>
<g id="part-2" class="char-part">
  <path d="M695 523 c-27 -8 -86 -14 -130 -15 l-80 -1 3 -63 4 -64 76 1 c43 1
111 4 152 8 63 5 75 9 72 23 -1 10 7 36 19 59 20 41 20 43 3 56 -22 16 -53 15
-119 -4z m60 -66 c-6 -31 -11 -35 -47 -41 -22 -4 -42 -5 -45 -3 -2 2 1 17 7
33 8 20 8 30 1 32 -25 8 -8 21 32 24 54 4 60 -2 52 -45z m-127 6 c6 -40 -15
-63 -57 -63 -37 0 -37 1 -33 33 6 45 20 59 56 55 23 -2 32 -9 34 -25z"/>
</g>
<g id="part-3" class="char-part">
  <path d="M476 310 c-16 -72 -60 -172 -96 -217 -27 -35 -17 -42 16 -12 61 56
108 154 128 267 5 27 2 32 -13 32 -15 0 -22 -14 -35 -70z"/>
</g>
<g id="part-4" class="char-part">
  <path d="M762 115 c2 -12 -13 -16 -84 -19 -49 -2 -88 0 -88 5 0 5 -9 9 -20 9
-15 0 -20 -7 -20 -24 0 -29 16 -42 33 -28 7 5 44 13 84 16 69 7 72 6 89 -18 9
-15 22 -26 30 -26 18 0 34 32 34 69 0 28 -3 31 -30 31 -22 0 -30 -4 -28 -15z"/>
</g>
</g>
</svg>