<?xml version="1.0" standalone="no"?>
<!DOCTYPE svg PUBLIC "-//W3C//DTD SVG 20010904//EN"
 "http://www.w3.org/TR/2001/REC-SVG-20010904/DTD/svg10.dtd">
<svg version="1.0" xmlns="http://www.w3.org/2000/svg"
 width="96.000000pt" height="68.000000pt" viewBox="0 0 96.000000 68.000000"
 preserveAspectRatio="xMidYMid meet">
<metadata>
Created by potrace 1.16, written by Peter Selinger 2001-2019
Combined from part_0.svg through part_5.svg with named groups
</metadata>
<g transform="translate(0.000000,68.000000) scale(0.100000,-0.100000)" fill="#000000" stroke="none">
<g id="part-0" class="char-part">
  <path d="M310 589 c0 -5 -12 -35 -27 -65 -19 -40 -32 -54 -47 -54 -20 0 -21
-4 -17 -81 4 -95 1 -99 -76 -99 -57 0 -68 -13 -28 -32 18 -8 35 -8 60 -1 19 6
37 8 40 4 9 -15 -18 -86 -46 -125 -33 -45 -31 -56 5 -29 30 22 60 74 75 129
10 39 13 41 67 53 30 7 58 10 61 7 3 -3 2 -45 -3 -93 l-9 -88 -33 3 -34 2 35
-36 c21 -23 39 -34 47 -29 25 16 40 75 40 163 0 87 0 88 28 99 l27 11 -29 1
-29 1 5 74 c5 69 3 75 -16 80 -20 5 -70 -4 -111 -19 -11 -4 4 17 34 48 59 61
63 87 11 87 -16 0 -30 -5 -30 -11z m68 -201 l3 -66 -43 -7 c-24 -3 -51 -9 -60
-11 -16 -5 -18 2 -18 53 0 65 12 89 50 96 61 11 65 7 68 -65z"/>
  <path d="M290 395 c0 -11 35 -45 47 -45 20 0 15 28 -6 40 -21 11 -41 13 -41 5z"/>
  <path d="M580 532 c0 -11 30 -55 47 -69 39 -31 58 22 21 57 -21 19 -68 28 -68
12z"/>
  <path d="M605 425 c-82 -12 -152 -23 -155 -24 -3 -1 6 -7 19 -12 13 -5 46 -6
74 -3 l50 7 -7 -44 c-9 -58 -42 -113 -107 -177 -60 -58 -53 -69 12 -19 39 29
77 72 119 135 14 20 19 21 52 12 48 -14 51 -21 38 -72 -27 -102 -57 -133 -112
-117 -35 10 -35 3 1 -39 28 -33 30 -33 58 -18 17 8 37 26 46 39 27 41 78 183
72 200 -7 15 -47 27 -97 27 -27 0 -29 2 -23 29 5 22 2 32 -11 39 -12 7 11 12
82 17 54 5 104 9 109 10 6 1 15 3 20 4 6 1 1 8 -9 16 -25 19 -46 18 -231 -10z"/>
  <path d="M300 247 c1 -20 26 -47 44 -47 19 0 21 23 4 37 -23 18 -48 23 -48 10z"/>
</g>
<g id="part-1" class="char-part">
  <path d="M313 583 c-3 -10 -14 -38 -24 -62 -11 -24 -17 -46 -15 -49 3 -2 27
20 55 49 45 48 48 55 34 67 -23 17 -43 15 -50 -5z"/>
</g>
<g id="part-2" class="char-part">
  <path d="M297 375 c20 -27 53 -34 53 -10 0 16 -30 35 -55 35 -14 0 -14 -3 2
-25z"/>
  <path d="M315 314 c-38 -7 -105 -16 -147 -20 -43 -4 -78 -10 -78 -14 0 -18 32
-32 62 -28 52 7 281 59 303 68 31 13 -57 10 -140 -6z"/>
</g>
<g id="part-3" class="char-part">
  <path d="M580 536 c0 -25 46 -81 65 -81 25 0 33 46 11 64 -24 20 -76 32 -76
17z"/>
  <path d="M610 428 c-160 -22 -174 -26 -140 -39 15 -6 48 -6 90 0 36 6 110 13
165 16 125 8 137 11 111 31 -25 17 -56 16 -226 -8z"/>
</g>
<g id="part-4" class="char-part">
  <path d="M603 393 c-7 -3 -13 -17 -13 -32 0 -44 -46 -123 -106 -183 -68 -68
-41 -70 34 -3 42 38 132 171 132 195 0 13 -32 28 -47 23z"/>
</g>
<g id="part-5" class="char-part">
  <path d="M660 309 c14 -6 32 -14 40 -19 23 -11 13 -76 -21 -136 -22 -38 -26
-53 -17 -57 7 -3 2 -5 -12 -4 -17 1 -24 -3 -22 -13 1 -9 -5 -6 -16 8 -10 13
-21 20 -24 17 -4 -4 3 -17 14 -30 19 -22 23 -23 47 -11 30 16 85 111 77 133
-3 8 -2 12 3 9 11 -7 41 64 34 80 -2 6 -21 14 -41 17 -20 3 -48 9 -62 12 l-25
6 25 -12z m95 -29 c3 -6 -1 -7 -9 -4 -18 7 -21 14 -7 14 6 0 13 -4 16 -10z
m-28 -32 c-3 -8 -6 -5 -6 6 -1 11 2 17 5 13 3 -3 4 -12 1 -19z"/>
</g>
</g>
</svg>