<?xml version="1.0" standalone="no"?>
<!DOCTYPE svg PUBLIC "-//W3C//DTD SVG 20010904//EN"
 "http://www.w3.org/TR/2001/REC-SVG-20010904/DTD/svg10.dtd">
<svg version="1.0" xmlns="http://www.w3.org/2000/svg"
 width="96.000000pt" height="68.000000pt" viewBox="0 0 96.000000 68.000000"
 preserveAspectRatio="xMidYMid meet">
<metadata>
Created by potrace 1.16, written by Peter Selinger 2001-2019
Combined from part_0.svg through part_5.svg with named groups
</metadata>
<g transform="translate(0.000000,68.000000) scale(0.100000,-0.100000)" fill="#000000" stroke="none">
<g id="part-0" class="char-part">
  <path d="M613 531 c-15 -29 -25 -36 -48 -36 -25 0 -30 4 -27 22 4 31 -30 38
-98 19 l-55 -16 50 2 c55 3 56 1 37 -54 -15 -43 -19 -44 -61 -21 -16 10 -33
15 -37 11 -8 -8 14 -31 39 -41 9 -3 17 -11 17 -17 0 -20 -28 -65 -55 -90 l-28
-25 7 46 c6 42 5 47 -15 52 -34 9 -39 1 -39 -59 0 -52 -1 -54 -26 -54 l-27 0
7 114 c7 113 7 113 -16 120 -44 11 -44 11 -40 -118 l4 -123 -27 -7 c-36 -9
-38 -5 -26 41 9 32 8 40 -6 51 -9 6 -25 12 -35 12 -15 0 -17 -5 -12 -25 4 -14
1 -46 -6 -71 -17 -60 -5 -74 48 -54 20 7 65 18 99 25 58 11 62 10 67 -8 7 -28
29 -16 38 21 5 18 13 32 18 32 5 0 24 15 42 32 30 30 40 33 110 39 43 3 81 8
85 12 15 16 -12 20 -70 10 -34 -6 -64 -9 -66 -7 -7 6 54 114 65 114 15 0 45
-24 128 -104 69 -66 70 -66 127 -66 32 0 60 4 63 9 4 5 -18 17 -46 26 -90 29
-171 84 -125 85 6 0 30 12 51 25 l40 24 -29 11 c-22 8 -31 8 -33 0 -5 -14 -51
-60 -60 -60 -4 0 -18 9 -32 20 l-25 20 43 36 c47 40 51 49 23 57 -14 3 -24 -5
-38 -32z"/>
  <path d="M580 304 c-19 -7 -65 -13 -102 -13 l-66 -1 14 -30 c8 -16 19 -51 24
-77 4 -26 11 -58 15 -69 6 -20 2 -22 -59 -29 -42 -4 -64 -10 -60 -17 5 -7 52
-8 148 -3 78 4 173 7 211 6 68 -1 107 10 91 26 -4 4 -46 8 -92 8 -46 -1 -84 1
-84 3 0 1 9 12 20 24 21 23 27 48 10 48 -16 0 -12 58 6 85 9 13 13 28 10 33
-10 16 -51 19 -86 6z m28 -40 c4 -33 -12 -44 -75 -50 -59 -6 -60 -6 -67 21 -4
15 -5 29 -3 31 5 6 119 22 132 19 6 -1 11 -10 13 -21z m-3 -95 c-9 -65 -13
-69 -65 -69 -42 0 -47 2 -43 18 2 10 -3 24 -11 31 -32 26 -18 40 42 44 31 2
62 4 69 5 7 1 10 -9 8 -29z"/>
</g>
<g id="part-1" class="char-part">
  <path d="M194 483 c2 -10 8 -62 11 -117 8 -107 4 -116 -46 -116 -26 0 -26 0
-16 46 9 37 8 47 -4 55 -27 17 -42 11 -35 -16 3 -13 -1 -42 -10 -65 -14 -35
-15 -44 -3 -55 12 -12 22 -11 69 5 30 10 76 21 103 25 44 7 47 6 47 -15 0 -19
2 -20 15 -10 8 7 15 27 15 44 0 17 4 47 10 66 7 25 7 36 -3 42 -29 18 -37 8
-37 -47 0 -50 -2 -55 -26 -61 -14 -4 -29 -3 -34 2 -5 5 -5 56 -1 114 8 111 5
120 -37 120 -17 0 -22 -4 -18 -17z"/>
</g>
<g id="part-2" class="char-part">
  <path d="M430 534 l-45 -14 48 4 c26 2 49 0 52 -3 8 -13 -73 -166 -112 -211
l-38 -44 34 19 c18 11 47 36 65 57 41 48 109 177 102 194 -7 17 -47 16 -106
-2z"/>
</g>
<g id="part-3" class="char-part">
  <path d="M527 494 c-3 -4 18 -25 48 -47 30 -22 55 -44 55 -48 0 -4 23 -26 51
-48 46 -36 58 -41 105 -41 29 0 55 4 58 9 4 5 -23 19 -59 31 -37 12 -91 42
-126 68 -106 80 -119 88 -132 76z"/>
</g>
<g id="part-4" class="char-part">
  <path d="M610 170 c0 -10 -5 -31 -12 -45 -9 -21 -18 -25 -55 -25 -35 0 -43 3
-43 18 0 21 -36 59 -46 49 -4 -4 -1 -20 6 -37 7 -17 11 -33 8 -35 -3 -4 -68
-11 -123 -14 -19 -2 -19 -2 -1 -13 12 -7 55 -8 125 -4 58 4 157 7 219 8 61 0
112 4 112 9 0 21 -45 31 -111 25 -38 -4 -69 -4 -69 0 0 4 10 18 21 30 25 26
19 54 -11 54 -13 0 -20 -7 -20 -20z"/>
</g>
</g>
</svg>