<?xml version="1.0" standalone="no"?>
<!DOCTYPE svg PUBLIC "-//W3C//DTD SVG 20010904//EN"
 "http://www.w3.org/TR/2001/REC-SVG-20010904/DTD/svg10.dtd">
<svg version="1.0" xmlns="http://www.w3.org/2000/svg"
 width="96.000000pt" height="68.000000pt" viewBox="0 0 96.000000 68.000000"
 preserveAspectRatio="xMidYMid meet">
<metadata>
Created by potrace 1.16, written by Peter Selinger 2001-2019
Combined from part_0.svg through part_5.svg with named groups
</metadata>
<g transform="translate(0.000000,68.000000) scale(0.100000,-0.100000)" fill="#000000" stroke="none">
<g id="part-0" class="char-part">
  <path d="M586 473 c7 -119 15 -135 71 -154 44 -14 136 -3 162 19 18 16 18 19
3 52 -14 31 -16 33 -20 13 -5 -34 -40 -53 -94 -53 -55 0 -88 24 -88 64 0 21
10 27 78 51 42 15 83 29 90 31 20 6 5 22 -28 29 -21 5 -35 1 -49 -12 -11 -10
-33 -26 -50 -36 l-31 -18 0 54 c0 53 -8 67 -41 67 -5 0 -6 -45 -3 -107z"/>
  <path d="M374 463 c-1 -54 -3 -109 -5 -123 -8 -48 34 -35 150 47 2 2 2 6 -1 9
-3 3 -23 -2 -43 -10 -58 -25 -67 -22 -63 22 3 37 3 37 55 43 68 9 89 17 76 30
-6 6 -28 5 -64 -4 l-54 -14 -3 36 c-3 31 -23 61 -41 61 -3 0 -7 -44 -7 -97z"/>
  <path d="M235 435 c-22 -7 -61 -14 -87 -14 -27 -1 -48 -3 -48 -6 0 -3 9 -15
19 -27 11 -11 23 -39 26 -62 10 -58 23 -79 43 -71 9 4 39 10 66 14 47 6 49 7
52 41 2 19 11 52 21 73 10 23 13 41 7 47 -17 16 -59 18 -99 5z m30 -72 c-9
-61 -10 -63 -45 -63 -24 0 -29 5 -35 33 -4 17 -9 40 -11 49 -4 13 3 18 33 21
21 2 44 4 52 5 10 2 12 -8 6 -45z"/>
  <path d="M510 338 c0 -22 -66 -89 -81 -83 -11 4 -14 -15 -14 -95 0 -54 5 -103
10 -108 6 -5 56 -4 114 2 93 9 104 8 113 -7 13 -24 37 -21 42 5 3 13 7 65 9
116 4 91 4 94 -19 104 -18 8 -47 8 -110 -2 -47 -7 -87 -10 -89 -8 -2 2 16 17
40 33 25 17 43 35 41 40 -4 16 -56 19 -56 3z m140 -122 l0 -33 -72 -8 c-126
-13 -123 -14 -126 22 -3 30 -1 32 35 38 21 4 43 8 48 10 6 2 34 4 63 4 l52 1
0 -34z m0 -93 c0 -38 0 -38 -42 -38 -24 0 -68 -3 -98 -5 l-55 -5 0 35 c0 35 0
35 50 38 28 2 55 5 60 7 6 2 27 4 48 4 36 1 37 0 37 -36z"/>
</g>
<g id="part-1" class="char-part">
  <path d="M210 424 c-30 -8 -65 -12 -77 -9 -28 6 -28 5 -4 -37 11 -18 22 -52
26 -76 6 -40 9 -43 33 -38 15 3 46 8 69 11 40 6 42 8 48 48 4 23 13 54 21 68
25 49 -11 59 -116 33z m60 -56 c0 -53 -7 -63 -47 -71 -35 -7 -36 -5 -48 65 -8
40 -1 45 63 47 31 1 32 0 32 -41z"/>
</g>
<g id="part-2" class="char-part">
  <path d="M377 497 c3 -35 0 -87 -6 -117 -10 -45 -9 -56 3 -68 12 -13 24 -8 90
38 42 29 76 54 76 56 0 1 -25 -6 -57 -17 -31 -10 -60 -19 -65 -19 -5 0 -8 17
-6 38 l3 37 58 6 c62 7 93 23 65 34 -9 4 -39 0 -67 -9 l-51 -15 0 43 c0 41
-10 56 -40 56 -4 0 -5 -28 -3 -63z"/>
</g>
<g id="part-3" class="char-part">
  <path d="M586 478 c7 -117 18 -141 69 -158 46 -15 137 -5 164 18 19 16 19 19
5 52 l-15 35 -14 -31 c-15 -37 -31 -44 -95 -44 -52 0 -67 11 -76 57 -6 28 -3
30 51 51 31 12 61 22 65 22 5 0 21 5 37 11 27 10 27 11 9 25 -27 19 -56 18
-80 -5 -12 -10 -34 -27 -50 -37 l-29 -18 5 51 c5 55 -3 73 -34 73 -17 0 -18
-8 -12 -102z"/>
</g>
<g id="part-4" class="char-part">
  <path d="M570 269 c-25 -4 -70 -8 -100 -8 l-55 -1 1 -103 c1 -110 7 -135 29
-117 7 6 56 13 108 17 84 5 97 4 103 -11 8 -21 31 -21 38 2 2 9 6 62 8 116 3
91 1 100 -17 107 -24 9 -56 9 -115 -2z m80 -44 c0 -14 0 -28 0 -32 1 -5 -37
-13 -82 -20 -124 -17 -118 -18 -118 21 0 33 3 35 43 44 23 6 68 10 100 11 54
1 57 0 57 -24z m0 -102 c0 -36 -2 -38 -32 -38 -18 -1 -62 -3 -98 -5 l-65 -5 0
35 c0 35 0 35 50 38 28 2 55 5 60 7 6 2 27 4 48 4 36 1 37 0 37 -36z"/>
</g>
</g>
</svg>