<?xml version="1.0" standalone="no"?>
<!DOCTYPE svg PUBLIC "-//W3C//DTD SVG 20010904//EN"
 "http://www.w3.org/TR/2001/REC-SVG-20010904/DTD/svg10.dtd">
<svg version="1.0" xmlns="http://www.w3.org/2000/svg"
 width="96.000000pt" height="68.000000pt" viewBox="0 0 96.000000 68.000000"
 preserveAspectRatio="xMidYMid meet">
<metadata>
Created by potrace 1.16, written by Peter Selinger 2001-2019
Combined from part_0.svg through part_5.svg with named groups
</metadata>
<g transform="translate(0.000000,68.000000) scale(0.100000,-0.100000)" fill="#000000" stroke="none">
<g id="part-0" class="char-part">
  <path d="M227 502 c6 -88 6 -90 -59 -98 -79 -11 -74 -31 10 -36 l43 -3 -34
-53 c-18 -29 -35 -51 -38 -50 -2 2 -3 1 -1 -1 1 -3 -14 -22 -35 -43 -22 -23
-31 -38 -23 -38 23 0 72 35 107 77 l33 38 0 -35 c-1 -19 -5 -68 -10 -108 -10
-77 -1 -122 24 -122 22 0 26 23 26 165 l0 134 34 -20 c27 -16 35 -17 44 -6 16
19 -1 38 -39 46 -37 8 -46 33 -14 40 11 2 31 8 44 13 32 12 13 31 -30 30 l-32
-1 6 58 c6 67 2 77 -35 86 l-28 7 7 -80z"/>
  <path d="M506 555 c-20 -13 -57 -31 -83 -40 l-48 -15 53 6 c49 6 54 4 50 -12
-2 -12 -17 -22 -41 -28 -49 -13 -47 -26 3 -19 35 5 40 3 40 -15 0 -16 -9 -21
-42 -26 -71 -11 -83 -29 -15 -22 45 5 59 3 63 -8 3 -8 25 -23 49 -32 84 -32
264 4 204 41 -6 4 -14 17 -18 28 -8 20 -9 20 -22 -8 -14 -29 -17 -30 -86 -33
-117 -5 -154 31 -45 43 31 4 68 10 82 15 l25 8 -26 7 c-16 4 -49 0 -80 -9 -35
-11 -56 -13 -63 -6 -15 15 8 33 57 47 l42 11 -38 1 c-21 1 -45 8 -53 16 -13
13 -10 16 22 30 20 8 40 15 45 15 15 0 10 18 -7 24 -24 9 -28 8 -68 -19z"/>
  <path d="M387 287 c-43 -28 -46 -32 -28 -39 26 -9 18 -35 -12 -41 -22 -4 -22
-4 1 -6 38 -2 28 -38 -13 -45 -21 -4 -33 -11 -29 -18 4 -5 19 -7 35 -4 27 5
29 4 29 -29 0 -28 5 -37 30 -50 16 -8 43 -15 59 -15 30 0 81 18 81 29 -1 17
-13 51 -19 51 -3 0 -11 -10 -16 -22 -11 -25 -42 -33 -82 -23 -21 5 -24 11 -21
43 3 36 5 37 51 46 26 5 47 14 47 19 0 9 -53 3 -86 -10 -9 -3 -14 1 -14 12 0
9 13 22 30 28 36 14 39 27 6 27 -13 0 -29 6 -36 14 -9 12 -5 16 24 22 38 7 44
15 23 32 -9 8 -25 2 -60 -21z"/>
  <path d="M600 300 c-14 -11 -30 -24 -36 -29 -6 -5 -20 -11 -30 -15 -11 -3 -7
-4 9 -2 21 2 27 -1 27 -15 0 -12 -7 -19 -20 -19 -11 0 -20 -5 -20 -11 0 -6 9
-9 20 -6 16 4 20 0 20 -19 0 -20 -5 -24 -29 -24 -17 0 -33 -4 -36 -10 -4 -6 9
-10 33 -10 36 0 40 -3 45 -30 4 -16 18 -36 31 -45 52 -34 218 -27 232 10 3 7
-5 27 -17 44 l-23 31 -12 -28 c-14 -35 -30 -42 -99 -42 -44 0 -57 4 -69 22
-32 45 -22 56 54 64 39 3 70 11 70 17 0 6 -25 8 -71 3 -63 -6 -70 -5 -67 11 2
11 18 21 41 26 46 11 50 30 4 22 -24 -5 -37 -2 -46 9 -12 14 -9 17 18 22 37 8
49 23 30 35 -20 13 -31 11 -59 -11z"/>
</g>
<g id="part-1" class="char-part">
  <path d="M228 533 c4 -21 7 -56 7 -78 0 -39 -1 -40 -40 -49 -74 -16 -84 -25
-27 -25 29 -1 52 -6 52 -11 0 -21 -30 -69 -80 -129 -65 -78 -46 -79 32 -1 33
34 62 59 64 57 2 -2 -1 -51 -7 -109 -12 -108 -7 -162 14 -155 8 2 13 47 15
155 1 84 6 152 10 152 4 0 18 -9 32 -20 31 -24 53 -25 48 -2 -2 10 -18 21 -41
26 -50 13 -50 39 0 52 53 13 55 34 3 34 l-41 0 7 61 c7 64 0 79 -38 79 -14 0
-16 -6 -10 -37z"/>
</g>
<g id="part-2" class="char-part">
  <path d="M495 553 c-27 -15 -66 -33 -85 -40 l-35 -14 49 6 c63 7 168 45 163
59 -6 20 -41 15 -92 -11z"/>
</g>
<g id="part-3" class="char-part">
  <path d="M696 401 c-16 -30 -18 -31 -91 -31 -52 0 -78 4 -89 15 -19 19 -36 19
-36 0 0 -24 46 -47 108 -52 61 -6 162 12 162 28 0 5 -9 23 -19 40 l-19 31 -16
-31z"/>
</g>
<g id="part-4" class="char-part">
  <path d="M580 127 c0 -53 56 -87 145 -87 44 0 112 16 119 29 3 4 -3 25 -14 46
l-20 39 -11 -32 c-13 -37 -33 -44 -110 -40 -50 3 -55 5 -69 35 -17 38 -40 43
-40 10z"/>
</g>
</g>
</svg>