<?xml version="1.0" standalone="no"?>
<!DOCTYPE svg PUBLIC "-//W3C//DTD SVG 20010904//EN"
 "http://www.w3.org/TR/2001/REC-SVG-20010904/DTD/svg10.dtd">
<svg version="1.0" xmlns="http://www.w3.org/2000/svg"
 width="96.000000pt" height="68.000000pt" viewBox="0 0 96.000000 68.000000"
 preserveAspectRatio="xMidYMid meet">
<metadata>
Created by potrace 1.16, written by Peter Selinger 2001-2019
Combined from part_0.svg through part_5.svg with named groups
</metadata>
<g transform="translate(0.000000,68.000000) scale(0.100000,-0.100000)" fill="#000000" stroke="none">
<g id="part-0" class="char-part">
  <path d="M595 583 c14 -32 18 -120 6 -127 -14 -9 -179 -31 -186 -24 -3 2 -1
27 4 54 11 55 2 72 -39 76 -23 3 -25 0 -22 -37 2 -22 -4 -61 -11 -87 -14 -44
-13 -48 4 -64 17 -16 22 -16 61 -1 32 12 174 47 192 47 1 0 2 -21 1 -47 l0
-47 -95 -13 c-52 -6 -130 -12 -172 -12 -63 -1 -78 -4 -78 -16 0 -20 45 -37 90
-33 34 3 35 2 32 -32 -3 -40 -37 -100 -82 -147 -17 -18 -28 -33 -25 -33 11 0
68 41 92 65 24 25 83 137 83 158 0 9 20 18 57 26 102 20 97 25 89 -86 -10
-130 -9 -134 8 -152 13 -12 18 -13 28 -2 10 9 12 51 10 154 -1 78 2 194 7 257
9 124 5 140 -36 140 -20 0 -24 -4 -18 -17z"/>
</g>
<g id="part-1" class="char-part">
  <path d="M363 533 c3 -14 -2 -53 -10 -85 -19 -76 -11 -87 50 -70 23 7 76 20
117 28 102 22 115 38 24 30 -39 -3 -86 -9 -104 -12 l-33 -7 7 58 c7 63 -2 85
-36 85 -17 0 -19 -5 -15 -27z"/>
</g>
<g id="part-2" class="char-part">
  <path d="M597 573 c11 -37 6 -365 -6 -427 -10 -54 2 -106 25 -106 28 0 35 38
28 172 -3 73 -1 187 5 253 11 128 9 135 -37 135 -20 0 -21 -3 -15 -27z"/>
</g>
<g id="part-3" class="char-part">
  <path d="M495 315 c-49 -7 -122 -14 -162 -14 -80 -1 -96 -12 -58 -37 19 -12
37 -15 71 -10 l46 6 -7 -33 c-11 -51 -34 -93 -77 -142 -46 -52 -39 -58 19 -16
54 39 129 163 117 194 -3 8 20 17 73 27 42 8 78 21 81 28 2 6 0 11 -5 11 -4
-1 -48 -7 -98 -14z"/>
</g>
</g>
</svg>