<?xml version="1.0" standalone="no"?>
<!DOCTYPE svg PUBLIC "-//W3C//DTD SVG 20010904//EN"
 "http://www.w3.org/TR/2001/REC-SVG-20010904/DTD/svg10.dtd">
<svg version="1.0" xmlns="http://www.w3.org/2000/svg"
 width="96.000000pt" height="68.000000pt" viewBox="0 0 96.000000 68.000000"
 preserveAspectRatio="xMidYMid meet">
<metadata>
Created by potrace 1.16, written by Peter Selinger 2001-2019
Combined from part_0.svg through part_5.svg with named groups
</metadata>
<g transform="translate(0.000000,68.000000) scale(0.100000,-0.100000)" fill="#000000" stroke="none">
<g id="part-0" class="char-part">
  <path d="M437 629 c-9 -6 -17 -16 -17 -23 0 -7 -16 -31 -36 -55 -32 -36 -40
-41 -68 -37 l-31 5 3 -137 c3 -156 5 -167 30 -157 41 17 156 33 257 37 l110 3
-1 -65 c0 -36 -7 -78 -15 -95 -13 -27 -18 -30 -54 -27 l-40 3 33 -31 c21 -19
42 -30 55 -28 28 4 67 63 67 102 0 18 7 58 15 90 9 33 14 59 13 60 -61 32 -63
32 -296 0 -116 -16 -145 -14 -136 9 3 9 39 18 102 27 122 16 164 32 67 26 -38
-3 -91 -8 -117 -12 -46 -6 -48 -6 -48 18 0 23 4 26 61 32 34 3 85 6 113 6 l51
0 38 61 c20 33 37 64 37 69 0 12 -67 32 -87 26 -28 -8 -123 -18 -123 -13 0 3
20 18 45 34 25 15 45 34 45 40 0 20 -53 43 -73 32z m108 -144 c0 -14 -6 -19
-20 -18 -17 3 -50 -2 -167 -23 -13 -2 -18 4 -18 20 0 19 6 23 33 25 17 1 48 5
67 10 19 5 51 9 70 8 28 -2 35 -6 35 -22z m-7 -52 c-3 -20 -88 -41 -165 -42
-37 -1 -43 2 -43 19 0 17 7 20 43 21 23 0 60 4 82 8 68 15 86 13 83 -6z"/>
  <path d="M549 193 c16 -31 52 -64 62 -58 19 12 8 45 -21 60 -39 20 -53 20 -41
-2z"/>
  <path d="M210 157 c-30 -49 -29 -80 3 -75 26 4 46 65 31 97 -8 17 -11 15 -34
-22z"/>
  <path d="M450 160 c20 -40 33 -49 45 -30 7 11 -12 51 -29 62 -29 20 -36 7 -16
-32z"/>
  <path d="M320 180 c0 -20 34 -80 44 -77 17 6 9 58 -11 73 -21 16 -33 18 -33 4z"/>
</g>
<g id="part-1" class="char-part">
  <path d="M430 619 c0 -7 -16 -34 -35 -60 -44 -62 -28 -64 55 -7 l61 42 -23 18
c-26 20 -58 24 -58 7z"/>
</g>
<g id="part-2" class="char-part">
  <path d="M465 523 c-44 -8 -104 -12 -133 -9 -45 4 -53 2 -48 -10 3 -9 6 -43 6
-77 l0 -62 136 10 136 10 20 40 c11 22 28 48 37 58 15 18 14 20 -8 38 -27 22
-39 22 -146 2z m80 -38 c0 -14 -6 -19 -21 -18 -12 1 -57 -4 -100 -11 -44 -8
-82 -12 -86 -10 -3 2 -4 13 -1 24 4 16 14 20 47 21 22 1 55 5 71 9 52 14 90 8
90 -15z m-9 -51 c-3 -9 -6 -19 -6 -23 0 -4 -17 -7 -37 -7 -21 0 -66 -4 -100
-9 -60 -7 -63 -7 -63 14 0 18 6 21 43 22 23 0 62 4 87 8 73 14 83 13 76 -5z"/>
</g>
<g id="part-3" class="char-part">
  <path d="M297 362 c-11 -16 -10 -123 0 -133 17 -17 33 -1 33 35 l0 32 103 13
c121 16 139 21 110 32 -11 4 -38 4 -59 -1 -22 -4 -65 -11 -96 -15 -53 -6 -57
-5 -60 16 -3 23 -22 36 -31 21z"/>
</g>
<g id="part-4" class="char-part">
  <path d="M557 179 c23 -39 39 -53 53 -44 20 12 10 45 -20 60 -44 23 -53 19
-33 -16z"/>
  <path d="M206 148 c-25 -45 -27 -52 -13 -65 13 -13 17 -13 36 6 21 21 30 94
13 105 -4 2 -20 -18 -36 -46z"/>
  <path d="M430 196 c0 -16 45 -76 54 -73 16 6 9 50 -11 65 -16 12 -43 17 -43 8z"/>
  <path d="M320 180 c0 -21 35 -80 47 -80 21 0 15 47 -9 70 -24 22 -38 26 -38
10z"/>
</g>
</g>
</svg>