<?xml version="1.0" standalone="no"?>
<!DOCTYPE svg PUBLIC "-//W3C//DTD SVG 20010904//EN"
 "http://www.w3.org/TR/2001/REC-SVG-20010904/DTD/svg10.dtd">
<svg version="1.0" xmlns="http://www.w3.org/2000/svg"
 width="96.000000pt" height="68.000000pt" viewBox="0 0 96.000000 68.000000"
 preserveAspectRatio="xMidYMid meet">
<metadata>
Created by potrace 1.16, written by Peter Selinger 2001-2019
Combined from part_0.svg through part_5.svg with named groups
</metadata>
<g transform="translate(0.000000,68.000000) scale(0.100000,-0.100000)" fill="#000000" stroke="none">
<g id="part-0" class="char-part">
  <path d="M385 574 c-29 -60 -103 -128 -215 -198 -75 -48 -60 -61 25 -22 69 31
125 71 194 135 30 28 57 51 60 51 3 0 57 -41 119 -90 79 -63 121 -90 140 -90
56 0 133 13 130 22 -2 5 -46 23 -99 41 -60 20 -125 52 -175 85 -44 28 -85 52
-91 52 -6 0 -9 8 -6 18 4 19 -9 34 -39 45 -12 4 -23 -8 -43 -49z"/>
  <path d="M462 459 c-12 -5 -40 -9 -62 -11 -62 -3 -47 -18 19 -18 60 0 119 15
107 27 -10 10 -40 11 -64 2z"/>
  <path d="M445 384 c-38 -7 -86 -13 -105 -14 -22 0 -30 -3 -22 -8 7 -5 18 -28
25 -53 9 -29 18 -43 28 -40 8 2 51 6 95 9 74 4 81 6 77 23 -3 11 -1 19 4 19 5
0 14 10 20 23 14 30 15 42 4 42 -5 0 -13 3 -17 8 -9 9 -22 8 -109 -9z m65 -44
c0 -35 -20 -43 -96 -38 -45 3 -49 5 -52 30 -3 25 0 27 40 31 109 9 108 10 108
-23z"/>
  <path d="M540 240 c-25 -4 -105 -11 -177 -16 -73 -4 -133 -11 -133 -15 0 -5 4
-9 9 -9 8 0 41 -93 41 -114 0 -3 -39 -6 -87 -6 -82 -1 -87 -2 -68 -16 16 -13
36 -15 105 -10 47 4 189 9 315 12 127 4 232 8 234 10 2 2 -2 11 -9 19 -10 12
-29 16 -79 14 -64 -2 -66 -1 -63 22 1 13 12 37 23 53 18 24 19 30 7 42 -18 18
-64 24 -118 14z m45 -30 c4 -6 1 -33 -5 -60 l-12 -50 -44 0 -43 0 19 42 c11
24 20 51 20 61 0 12 8 17 29 17 17 0 33 -5 36 -10z m-113 -55 c-4 -53 -5 -55
-33 -55 -27 0 -29 3 -29 39 0 22 -3 46 -6 55 -5 13 1 16 32 16 l39 0 -3 -55z
m-98 -2 c22 -63 21 -63 -23 -63 -37 0 -39 2 -45 38 -11 66 -9 72 23 72 26 0
31 -5 45 -47z"/>
</g>
<g id="part-1" class="char-part">
  <path d="M396 588 c-8 -41 -114 -147 -208 -207 -38 -24 -68 -45 -68 -47 0 -7
103 37 144 61 44 26 63 42 137 112 l46 44 114 -90 114 -91 65 1 c107 1 114 12
24 38 -90 27 -136 48 -214 101 -30 20 -63 40 -74 43 -12 5 -16 13 -12 23 7 18
-19 43 -45 44 -11 0 -19 -12 -23 -32z"/>
</g>
<g id="part-2" class="char-part">
  <path d="M435 457 c-83 -19 -82 -27 3 -24 75 3 103 10 91 21 -10 10 -57 12
-94 3z"/>
</g>
<g id="part-3" class="char-part">
  <path d="M410 381 c-58 -10 -100 -19 -94 -21 6 -3 18 -25 26 -50 10 -29 20
-44 29 -41 8 2 51 6 96 9 46 2 80 9 77 13 -3 5 4 25 16 45 22 34 22 36 4 49
-22 17 -19 17 -154 -4z m100 -40 c0 -35 -13 -41 -85 -41 -39 0 -54 4 -59 16
-16 42 -8 46 112 52 29 2 32 -1 32 -27z"/>
</g>
<g id="part-4" class="char-part">
  <path d="M470 155 c0 -54 0 -55 -30 -55 -29 0 -30 1 -30 50 0 47 -2 50 -25 50
-14 0 -25 -1 -25 -3 0 -2 7 -25 16 -51 9 -26 14 -49 12 -52 -3 -2 -64 -7 -137
-11 -72 -3 -131 -10 -131 -14 0 -18 59 -22 166 -11 61 7 197 12 303 12 188 0
217 5 169 31 -15 8 -59 9 -149 4 l-129 -7 20 44 c26 57 25 68 -5 68 -24 0 -25
-3 -25 -55z"/>
</g>
</g>
</svg>