<?xml version="1.0" standalone="no"?>
<!DOCTYPE svg PUBLIC "-//W3C//DTD SVG 20010904//EN"
 "http://www.w3.org/TR/2001/REC-SVG-20010904/DTD/svg10.dtd">
<svg version="1.0" xmlns="http://www.w3.org/2000/svg"
 width="96.000000pt" height="68.000000pt" viewBox="0 0 96.000000 68.000000"
 preserveAspectRatio="xMidYMid meet">
<metadata>
Created by potrace 1.16, written by Peter Selinger 2001-2019
Combined from part_0.svg through part_5.svg with named groups
</metadata>
<g transform="translate(0.000000,68.000000) scale(0.100000,-0.100000)" fill="#000000" stroke="none">
<g id="part-0" class="char-part">
  <path d="M544 558 l1 -53 -57 -5 c-80 -7 -84 -20 -6 -20 62 0 66 -1 70 -25 5
-23 2 -25 -33 -25 -21 0 -41 -5 -45 -12 -5 -8 17 -10 87 -5 52 4 105 10 117
13 37 11 4 25 -40 18 -35 -5 -38 -4 -38 19 0 22 5 25 60 31 33 4 62 11 65 16
9 15 -29 21 -78 11 l-47 -8 0 42 c0 41 -12 54 -51 55 -4 0 -6 -24 -5 -52z"/>
  <path d="M218 508 c5 -63 -13 -169 -31 -180 -6 -4 -33 -8 -59 -8 -27 0 -48 -4
-48 -9 0 -17 52 -43 75 -37 22 6 23 4 18 -27 -4 -29 -2 -34 31 -50 55 -26 54
-27 -69 -102 -18 -12 -25 -20 -17 -23 20 -6 99 26 133 55 l30 26 34 -33 c21
-20 40 -30 49 -27 28 11 18 44 -19 67 l-34 21 18 42 c11 23 24 55 30 70 6 16
20 31 31 34 23 6 27 23 5 23 -8 0 -15 7 -15 15 0 17 -46 39 -65 31 -7 -2 -10
-15 -8 -29 4 -21 0 -26 -27 -32 -17 -4 -33 -5 -35 -3 -2 2 9 46 25 98 l28 95
-20 18 c-11 9 -30 17 -42 17 -21 0 -22 -4 -18 -52z m92 -208 c0 -17 -42 -100
-50 -100 -5 0 -15 7 -23 15 -8 8 -17 11 -21 8 -8 -8 -8 15 0 45 8 28 94 57 94
32z"/>
  <path d="M615 379 c-16 -5 -61 -10 -100 -11 l-70 -3 25 -52 c18 -38 29 -51 40
-47 8 3 41 8 73 11 l57 5 0 -31 c0 -32 -2 -33 -74 -44 -21 -4 -30 0 -33 14 -3
10 -18 22 -34 28 -32 11 -34 9 -17 -19 19 -30 14 -32 -113 -39 -9 -1 -16 -7
-16 -13 0 -10 17 -11 71 -6 39 4 148 10 241 14 192 6 214 10 170 30 -21 9 -53
11 -105 7 -75 -6 -75 -6 -57 14 10 11 17 24 15 29 -4 17 13 84 22 84 6 0 10 6
10 14 0 26 -48 33 -105 15z m35 -43 c0 -22 -5 -25 -47 -31 -27 -3 -55 -8 -64
-9 -23 -5 -36 5 -41 29 -2 17 4 21 42 26 97 13 110 11 110 -15z"/>
  <path d="M624 150 c-23 -5 -72 -11 -110 -14 -38 -3 -71 -5 -74 -6 -3 0 3 -5
13 -11 9 -5 17 -17 17 -25 0 -8 7 -31 15 -51 12 -28 18 -34 27 -25 7 7 40 12
74 12 75 0 126 9 118 21 -3 5 4 25 16 44 36 59 7 75 -96 55z m56 -38 c0 -36
-23 -50 -96 -57 -69 -7 -71 -6 -77 17 -14 50 -8 53 116 56 49 2 57 -1 57 -16z"/>
</g>
<g id="part-1" class="char-part">
  <path d="M224 532 c6 -25 -7 -154 -20 -194 -4 -14 -17 -18 -60 -18 -30 0 -54
-4 -54 -9 0 -19 31 -33 65 -29 37 4 37 3 18 -48 -2 -7 14 -22 36 -35 l41 -23
-22 -24 c-13 -13 -40 -33 -61 -44 -22 -11 -36 -22 -33 -25 10 -10 51 6 99 38
l47 31 31 -26 c37 -31 59 -33 59 -6 0 13 -13 28 -34 41 l-35 20 19 32 c10 18
23 49 30 71 7 23 20 41 31 43 23 7 25 23 2 23 -9 0 -13 3 -10 7 12 11 -15 33
-40 33 -21 0 -24 -4 -21 -27 3 -26 0 -28 -34 -31 -21 -2 -38 1 -38 6 0 4 11
46 25 92 31 103 31 104 0 118 -39 18 -47 15 -41 -16z m86 -237 c0 -15 -37 -95
-44 -95 -2 0 -17 5 -35 11 -22 8 -30 16 -27 26 4 8 9 25 12 38 6 23 22 31 72
34 14 0 22 -5 22 -14z"/>
</g>
<g id="part-2" class="char-part">
  <path d="M530 602 c0 -4 5 -13 11 -19 6 -6 9 -26 7 -44 -3 -34 -3 -34 -66 -40
-87 -8 -89 -19 -4 -19 70 0 72 -1 72 -25 0 -20 -5 -25 -27 -26 -16 0 -37 -5
-48 -10 -23 -11 181 -4 210 7 29 12 -5 24 -47 17 -35 -5 -38 -4 -38 20 0 23 4
25 65 32 36 3 65 11 65 16 0 17 -27 21 -80 11 l-52 -10 5 43 c6 38 4 43 -16
49 -31 8 -57 7 -57 -2z"/>
</g>
<g id="part-3" class="char-part">
  <path d="M620 383 c-25 -7 -75 -15 -112 -16 -58 -2 -65 -4 -53 -17 7 -8 17
-31 23 -50 7 -27 13 -34 28 -32 10 2 55 7 98 10 67 6 80 10 82 26 1 10 12 28
24 41 12 13 17 25 12 29 -31 19 -60 22 -102 9z m34 -45 c-9 -32 -5 -30 -84
-36 -60 -4 -70 -2 -70 12 0 9 -1 19 -2 24 -3 7 60 18 125 20 35 2 38 0 31 -20z"/>
</g>
<g id="part-4" class="char-part">
  <path d="M585 144 c-49 -8 -102 -12 -117 -9 -28 5 -39 -9 -15 -18 7 -2 19 -28
26 -56 12 -49 23 -62 36 -41 3 6 35 10 69 10 77 0 128 9 120 22 -3 5 4 25 16
45 21 35 21 38 4 50 -20 15 -20 15 -139 -3z m95 -32 c0 -36 -23 -50 -96 -57
-69 -7 -71 -6 -77 17 -14 51 -9 54 111 57 54 1 62 -1 62 -17z"/>
</g>
</g>
</svg>