<?xml version="1.0" standalone="no"?>
<!DOCTYPE svg PUBLIC "-//W3C//DTD SVG 20010904//EN"
 "http://www.w3.org/TR/2001/REC-SVG-20010904/DTD/svg10.dtd">
<svg version="1.0" xmlns="http://www.w3.org/2000/svg"
 width="96.000000pt" height="68.000000pt" viewBox="0 0 96.000000 68.000000"
 preserveAspectRatio="xMidYMid meet">
<metadata>
Created by potrace 1.16, written by Peter Selinger 2001-2019
Combined from part_0.svg through part_5.svg with named groups
</metadata>
<g transform="translate(0.000000,68.000000) scale(0.100000,-0.100000)" fill="#000000" stroke="none">
<g id="part-0" class="char-part">
  <path d="M511 561 c-6 -22 -25 -65 -41 -95 -31 -60 -28 -70 12 -33 14 13 40
23 63 25 83 7 180 27 177 37 -4 15 -100 10 -149 -8 -24 -8 -43 -11 -43 -6 0 5
12 27 26 49 24 35 25 41 11 55 -26 25 -43 17 -56 -24z"/>
  <path d="M220 563 c0 -22 62 -94 78 -91 27 5 28 54 0 72 -30 19 -78 31 -78 19z"/>
  <path d="M230 448 c-63 -11 -117 -22 -119 -24 -3 -3 0 -9 7 -16 13 -13 55 -15
101 -4 l33 8 -7 -33 c-12 -55 -34 -90 -96 -151 -62 -63 -62 -73 2 -31 37 24
129 134 129 154 0 17 50 9 57 -8 8 -21 -22 -138 -43 -171 -13 -19 -22 -23 -45
-18 -28 5 -29 4 -18 -17 24 -46 29 -48 60 -26 34 24 49 51 79 139 12 36 26 70
31 77 14 16 -28 53 -62 53 -18 0 -28 6 -32 20 -7 26 -4 27 71 36 39 4 61 11
59 18 -6 18 -85 16 -207 -6z"/>
  <path d="M600 420 c0 -5 -18 -22 -40 -36 -31 -20 -47 -25 -72 -20 l-33 6 3
-101 c3 -65 0 -111 -9 -130 -10 -26 -10 -33 3 -46 14 -14 20 -13 59 11 58 34
97 65 83 66 -6 0 -30 -7 -53 -15 l-41 -14 0 82 c0 124 0 123 86 142 40 9 76
20 79 25 5 8 -37 40 -55 40 -5 0 -10 -4 -10 -10z"/>
  <path d="M657 310 c-30 -35 -43 -37 -77 -10 -27 21 -50 26 -50 10 0 -5 4 -10
10 -10 5 0 51 -40 102 -90 92 -88 94 -89 143 -90 58 0 92 15 60 25 -96 32
-205 94 -205 116 0 5 11 14 25 19 88 35 82 30 61 46 -29 20 -41 18 -69 -16z"/>
</g>
<g id="part-1" class="char-part">
  <path d="M230 556 c0 -3 10 -22 23 -41 14 -23 29 -34 41 -33 27 4 30 21 9 46
-17 20 -73 41 -73 28z"/>
  <path d="M247 446 c-65 -11 -118 -25 -118 -31 0 -19 41 -16 171 9 72 14 133
26 138 26 4 0 0 5 -8 10 -20 13 -44 11 -183 -14z"/>
</g>
<g id="part-2" class="char-part">
  <path d="M295 370 c-3 -5 6 -12 20 -16 17 -4 25 -13 25 -28 0 -31 -29 -125
-47 -153 -16 -24 -47 -31 -58 -13 -3 6 -10 10 -15 10 -5 0 0 -16 11 -35 12
-20 29 -35 39 -35 22 0 62 46 79 91 7 19 23 60 36 92 24 58 24 58 4 78 -20 20
-83 27 -94 9z"/>
</g>
<g id="part-3" class="char-part">
  <path d="M510 560 c-6 -27 -27 -74 -45 -105 -19 -30 -31 -55 -28 -55 3 0 20
11 37 24 23 17 62 29 138 42 103 18 137 36 82 42 -14 2 -55 -4 -90 -14 -36 -9
-67 -15 -69 -12 -3 3 6 22 20 42 14 20 25 41 25 46 0 9 -39 40 -51 40 -4 0
-12 -22 -19 -50z"/>
</g>
<g id="part-4" class="char-part">
  <path d="M605 420 c-3 -4 -26 -22 -52 -39 -53 -35 -46 -38 40 -15 76 19 81 22
67 39 -13 16 -48 26 -55 15z"/>
</g>
<g id="part-5" class="char-part">
  <path d="M465 251 c0 -68 -4 -113 -12 -122 -9 -11 -8 -19 4 -34 11 -14 17 -16
20 -7 3 6 10 12 16 12 18 1 72 48 64 56 -4 4 -7 3 -7 -3 0 -6 -9 -9 -22 -5
-14 3 -19 2 -14 -6 4 -7 2 -12 -3 -12 -6 0 -11 5 -11 11 0 5 -6 7 -12 3 -10
-6 -10 -4 0 8 11 14 10 17 -5 21 -16 4 -16 5 -1 6 14 1 16 5 8 26 -6 17 -6 25
1 25 11 0 6 117 -5 128 -4 3 -6 -1 -6 -9 0 -10 -3 -10 -8 -2 -4 6 -7 -37 -7
-96z"/>
  <path d="M662 305 c-13 -15 -17 -25 -9 -25 17 0 39 16 37 26 -1 5 4 10 11 13
7 2 9 -1 5 -8 -4 -6 -3 -11 3 -11 17 0 21 18 5 24 -24 9 -29 8 -52 -19z"/>
  <path d="M605 259 c22 -25 41 -44 43 -44 1 1 20 -16 42 -38 31 -30 45 -38 63
-33 13 3 39 1 57 -4 19 -5 35 -8 37 -6 6 5 -99 41 -114 40 -7 -1 -11 2 -8 6 3
5 -4 12 -16 15 -20 7 -49 28 -88 65 -42 41 -52 40 -16 -1z"/>
  <path d="M751 131 c-9 -6 2 -9 30 -9 33 0 39 2 24 8 -26 11 -37 11 -54 1z"/>
</g>
</g>
</svg>