<?xml version="1.0" standalone="no"?>
<!DOCTYPE svg PUBLIC "-//W3C//DTD SVG 20010904//EN"
 "http://www.w3.org/TR/2001/REC-SVG-20010904/DTD/svg10.dtd">
<svg version="1.0" xmlns="http://www.w3.org/2000/svg"
 width="96.000000pt" height="68.000000pt" viewBox="0 0 96.000000 68.000000"
 preserveAspectRatio="xMidYMid meet">
<metadata>
Created by potrace 1.16, written by Peter Selinger 2001-2019
Combined from part_0.svg through part_5.svg with named groups
</metadata>
<g transform="translate(0.000000,68.000000) scale(0.100000,-0.100000)" fill="#000000" stroke="none">
<g id="part-0" class="char-part">
  <path d="M341 538 c-60 -46 -68 -49 -105 -44 l-41 6 0 -112 c0 -101 -3 -120
-28 -178 -15 -35 -39 -77 -54 -92 -43 -44 -3 -35 44 10 59 57 83 116 95 230
l11 99 36 13 c20 7 54 20 76 30 22 9 52 22 68 28 15 7 27 16 27 21 0 12 -40
41 -55 40 -5 0 -39 -23 -74 -51z"/>
  <path d="M620 498 c-30 -5 -72 -8 -92 -6 l-37 3 0 -80 c1 -44 0 -84 0 -90 -1
-5 -14 4 -29 21 -29 33 -70 59 -79 50 -4 -3 10 -20 29 -36 20 -17 62 -65 94
-108 32 -42 78 -98 103 -125 44 -46 46 -47 107 -47 75 0 126 9 122 22 -2 6
-35 20 -73 33 -94 30 -190 82 -209 112 -5 10 11 11 71 7 53 -4 91 -2 117 8 42
14 71 47 49 55 -7 3 -13 13 -13 24 0 26 -13 24 -25 -3 -15 -34 -52 -48 -127
-48 -55 0 -72 4 -89 21 -11 11 -19 30 -17 42 2 17 11 23 38 24 126 9 160 15
160 28 0 8 8 30 17 50 26 55 3 64 -117 43z m72 -43 c-4 -36 -10 -42 -42 -47
-22 -3 -25 1 -26 32 -1 46 -1 46 38 46 31 -1 33 -3 30 -31z m-102 -20 c0 -32
-2 -35 -30 -35 -28 0 -30 3 -30 35 0 32 2 35 30 35 28 0 30 -3 30 -35z"/>
  <path d="M310 273 c0 -104 4 -194 9 -202 5 -8 16 -11 25 -8 14 6 16 32 16 202
l0 195 -25 0 -25 0 0 -187z"/>
</g>
<g id="part-1" class="char-part">
  <path d="M374 558 c-10 -11 -39 -34 -63 -49 -36 -24 -51 -28 -83 -23 l-38 7
11 -33 c25 -69 -11 -239 -68 -325 l-26 -40 24 16 c65 44 119 166 119 274 0 27
4 56 9 64 5 7 50 30 102 51 93 37 114 54 88 71 -24 15 -55 10 -75 -13z"/>
</g>
<g id="part-2" class="char-part">
  <path d="M380 390 c0 -5 9 -14 20 -20 11 -6 62 -64 114 -128 130 -163 133
-165 203 -163 68 2 121 10 128 20 2 4 -28 18 -68 30 -123 39 -180 76 -276 177
-79 84 -121 113 -121 84z"/>
</g>
<g id="part-3" class="char-part">
  <path d="M620 499 c-25 -4 -64 -8 -87 -8 l-43 -1 0 -55 c0 -37 4 -55 13 -56
31 -2 127 2 174 7 37 4 50 10 47 19 -3 7 2 28 11 45 30 59 3 70 -115 49z m72
-39 c-4 -43 -10 -50 -42 -50 -24 0 -30 4 -30 21 0 38 19 60 48 57 22 -2 27 -8
24 -28z m-102 -25 c0 -32 -2 -35 -30 -35 -28 0 -30 3 -30 35 0 32 2 35 30 35
28 0 30 -3 30 -35z"/>
</g>
<g id="part-4" class="char-part">
  <path d="M497 338 c10 -55 36 -75 108 -83 63 -6 154 6 185 25 12 8 12 14 -4
47 -19 37 -19 37 -26 13 -9 -36 -45 -50 -127 -50 -79 0 -113 18 -113 60 0 11
-7 20 -15 20 -11 0 -13 -8 -8 -32z"/>
</g>
</g>
</svg>