<?xml version="1.0" standalone="no"?>
<!DOCTYPE svg PUBLIC "-//W3C//DTD SVG 20010904//EN"
 "http://www.w3.org/TR/2001/REC-SVG-20010904/DTD/svg10.dtd">
<svg version="1.0" xmlns="http://www.w3.org/2000/svg"
 width="96.000000pt" height="68.000000pt" viewBox="0 0 96.000000 68.000000"
 preserveAspectRatio="xMidYMid meet">
<metadata>
Created by potrace 1.16, written by Peter Selinger 2001-2019
Combined from part_0.svg through part_5.svg with named groups
</metadata>
<g transform="translate(0.000000,68.000000) scale(0.100000,-0.100000)" fill="#000000" stroke="none">
<g id="part-0" class="char-part">
  <path d="M267 526 l6 -93 -39 -6 c-21 -4 -51 -7 -66 -7 -18 0 -28 -5 -28 -15
0 -12 14 -15 66 -15 l65 0 -3 -47 -3 -48 -80 -32 c-44 -18 -84 -35 -90 -37
-16 -7 26 -36 53 -36 13 0 43 13 67 30 24 17 46 30 49 30 8 0 8 -60 0 -100 -7
-31 -8 -32 -48 -26 l-41 7 45 -46 c49 -50 59 -53 83 -27 14 15 17 40 17 123
l0 105 40 23 c22 12 40 26 40 32 0 14 -28 11 -55 -7 l-25 -16 0 41 c0 36 3 41
28 47 55 12 63 16 59 27 -2 7 -22 12 -45 12 l-41 0 6 45 c3 25 10 49 14 55 17
18 9 43 -18 53 -67 25 -63 30 -56 -72z"/>
  <path d="M559 420 l3 -170 -35 0 c-20 0 -42 -3 -51 -6 -28 -11 -6 -24 40 -24
l44 0 0 -39 0 -38 -61 -7 c-34 -3 -77 -6 -95 -6 -19 0 -34 -4 -34 -10 0 -17
65 -22 144 -11 43 6 133 11 202 11 78 0 124 4 124 10 0 21 -52 29 -146 23
l-95 -6 3 39 c3 41 3 41 91 59 15 3 27 10 27 17 0 7 -18 9 -56 5 l-57 -6 5
155 6 155 -25 10 c-13 5 -27 9 -31 9 -4 0 -5 -76 -3 -170z"/>
  <path d="M710 476 c0 -20 -51 -116 -61 -116 -5 0 -9 -7 -9 -16 0 -13 5 -12 30
6 l30 21 39 -31 c22 -18 44 -29 50 -25 22 13 10 36 -26 52 -21 8 -40 17 -42
19 -2 2 9 20 24 40 27 35 27 37 10 50 -24 18 -45 18 -45 0z"/>
  <path d="M461 423 c-8 -21 -26 -56 -40 -78 -37 -57 -37 -76 -1 -37 17 17 33
32 36 32 3 0 19 -9 35 -21 28 -19 49 -19 49 2 0 5 -15 17 -34 26 l-35 16 24
35 c18 27 22 39 13 49 -18 22 -33 15 -47 -24z"/>
</g>
<g id="part-1" class="char-part">
  <path d="M264 588 c4 -13 9 -53 13 -90 7 -75 15 -68 -92 -85 l-50 -8 73 -3 73
-3 -3 -52 -3 -52 -87 -35 c-48 -19 -86 -39 -85 -45 2 -5 15 -14 29 -19 20 -7
35 -2 81 29 32 21 59 36 62 34 2 -3 1 -36 -3 -74 l-7 -70 -38 3 -37 3 42 -39
c23 -22 48 -38 55 -35 24 9 35 71 28 153 l-7 78 47 32 c51 35 55 51 6 26 -16
-9 -32 -16 -36 -16 -3 0 -5 20 -5 45 0 38 3 45 19 45 27 0 75 19 67 27 -3 3
-24 6 -46 5 -38 -2 -40 0 -40 28 0 17 7 47 15 67 19 45 20 40 -15 58 -44 22
-64 20 -56 -7z"/>
</g>
<g id="part-2" class="char-part">
  <path d="M470 456 c0 -15 -45 -106 -74 -148 -24 -36 -15 -35 29 3 l36 32 23
-22 c12 -11 30 -21 39 -21 30 0 18 31 -18 46 l-35 14 25 37 c23 34 23 38 8 55
-19 21 -33 23 -33 4z"/>
</g>
<g id="part-3" class="char-part">
  <path d="M706 463 c-4 -16 -23 -52 -43 -82 l-35 -54 36 21 37 22 39 -31 c21
-17 43 -28 49 -24 22 13 10 34 -29 51 -22 10 -40 21 -40 25 0 4 12 21 26 38
21 26 24 34 14 46 -20 24 -47 18 -54 -12z"/>
</g>
<g id="part-4" class="char-part">
  <path d="M558 422 l4 -169 -59 -8 c-57 -8 -57 -8 -23 -16 19 -5 45 -6 58 -4
20 5 22 2 22 -38 l0 -44 -46 -7 c-26 -3 -69 -6 -95 -6 -27 0 -49 -4 -49 -10 0
-16 63 -21 135 -11 39 6 130 11 203 11 101 0 133 3 130 12 -7 20 -47 25 -146
20 l-93 -5 2 41 c3 38 5 41 38 47 79 13 91 17 85 27 -4 7 -28 8 -63 5 l-56 -6
3 117 c2 64 7 131 12 149 9 36 1 47 -40 58 l-25 6 3 -169z"/>
</g>
</g>
</svg>