<?xml version="1.0" standalone="no"?>
<!DOCTYPE svg PUBLIC "-//W3C//DTD SVG 20010904//EN"
 "http://www.w3.org/TR/2001/REC-SVG-20010904/DTD/svg10.dtd">
<svg version="1.0" xmlns="http://www.w3.org/2000/svg"
 width="96.000000pt" height="68.000000pt" viewBox="0 0 96.000000 68.000000"
 preserveAspectRatio="xMidYMid meet">
<metadata>
Created by potrace 1.16, written by Peter Selinger 2001-2019
Combined from part_0.svg through part_5.svg with named groups
</metadata>
<g transform="translate(0.000000,68.000000) scale(0.100000,-0.100000)" fill="#000000" stroke="none">
<g id="part-0" class="char-part">
  <path d="M547 563 c6 -49 -12 -71 -59 -76 -53 -5 -60 -17 -10 -17 35 0 42 -3
42 -19 0 -10 -16 -33 -35 -50 -19 -17 -35 -33 -35 -36 0 -15 26 0 69 40 l48
45 39 -30 c37 -28 74 -39 74 -22 -1 20 -22 36 -71 52 -59 19 -56 22 44 35 70
9 60 29 -12 22 l-58 -5 10 40 c11 42 2 58 -35 58 -13 0 -15 -7 -11 -37z"/>
  <path d="M278 480 c4 -71 2 -90 -9 -91 -8 -1 -24 -3 -37 -4 -21 -2 -22 -1 -7
21 19 30 19 50 -1 58 -30 12 -44 6 -50 -21 -4 -16 -20 -54 -37 -86 -16 -31
-27 -60 -24 -63 3 -3 22 10 44 28 29 26 48 35 81 37 l42 2 0 -50 0 -49 -85
-34 c-47 -18 -85 -36 -85 -39 0 -3 11 -11 24 -19 21 -11 28 -10 54 9 17 11 34
21 40 21 5 0 15 7 22 15 22 26 29 3 18 -54 -11 -63 -3 -121 17 -121 22 0 33
64 35 195 0 22 8 35 28 48 l27 18 -27 -6 c-27 -5 -28 -4 -28 35 0 39 1 40 40
46 54 9 54 34 0 34 l-40 0 6 73 c6 72 6 74 -17 80 -13 4 -27 7 -30 7 -3 0 -3
-40 -1 -90z"/>
  <path d="M590 360 c-74 -10 -154 -19 -177 -19 -44 -1 -58 -15 -25 -23 10 -3
67 -1 127 4 60 5 114 7 122 4 11 -4 13 -32 11 -128 l-3 -123 -35 3 -35 3 38
-38 38 -38 26 30 c25 29 26 31 19 136 -3 58 -3 120 0 137 6 32 7 32 65 32 61
0 82 12 50 29 -25 14 -57 13 -221 -9z"/>
  <path d="M515 270 c-11 -5 -39 -9 -63 -9 -43 -1 -43 -1 -28 -23 9 -12 16 -30
16 -39 0 -28 22 -36 80 -30 39 4 55 10 55 21 1 8 6 25 13 37 24 44 -16 68 -73
43z m35 -44 c0 -39 -73 -53 -85 -16 -9 30 2 40 46 40 34 0 39 -3 39 -24z"/>
</g>
<g id="part-1" class="char-part">
  <path d="M180 451 c0 -11 -15 -49 -34 -85 -19 -36 -31 -66 -26 -66 12 0 66 57
98 104 25 37 26 39 7 52 -26 20 -45 17 -45 -5z"/>
</g>
<g id="part-2" class="char-part">
  <path d="M277 487 c6 -93 5 -94 -18 -100 -13 -4 -34 -7 -46 -7 -13 0 -23 -4
-23 -10 0 -5 20 -10 45 -10 l45 0 0 -46 0 -45 -76 -35 c-41 -19 -83 -34 -92
-34 -14 -1 -13 -4 7 -20 31 -27 38 -26 98 15 29 19 54 35 56 35 2 0 -1 -36 -6
-81 -8 -69 -7 -84 7 -97 26 -27 36 -2 43 107 6 93 8 104 30 118 28 18 31 38 4
23 -29 -15 -31 -13 -31 29 0 38 1 39 45 50 52 13 52 34 0 29 -19 -1 -37 0 -40
4 -3 3 -1 34 4 69 11 69 7 81 -36 93 -21 7 -21 6 -16 -87z"/>
</g>
<g id="part-3" class="char-part">
  <path d="M544 570 c9 -46 -8 -80 -41 -81 -16 0 -37 -4 -48 -9 -15 -7 -10 -9
23 -9 53 -1 55 -20 7 -68 -20 -20 -33 -38 -31 -41 7 -7 56 26 87 59 l26 28 39
-29 c38 -29 74 -39 74 -21 0 18 -31 41 -73 52 l-42 12 30 8 c17 5 47 11 68 14
61 10 45 29 -19 22 l-56 -6 6 43 c6 35 4 45 -9 50 -37 14 -48 7 -41 -24z"/>
</g>
<g id="part-4" class="char-part">
  <path d="M555 355 c-104 -13 -192 -24 -195 -25 -3 -1 8 -6 25 -11 17 -5 56 -4
95 1 36 5 127 13 203 16 76 4 140 10 142 15 5 7 -50 30 -69 28 -6 -1 -96 -11
-201 -24z"/>
</g>
<g id="part-5" class="char-part">
  <path d="M535 270 c-15 -7 -16 -9 -4 -9 9 -1 23 -9 30 -18 8 -9 9 -14 3 -10
-6 3 -11 0 -11 -8 0 -22 18 -18 24 5 3 11 10 20 16 20 6 0 2 7 -9 15 -22 16
-22 17 -49 5z"/>
  <path d="M430 250 c0 -6 7 -26 14 -45 11 -24 21 -35 36 -35 12 0 18 4 15 11
-4 6 -10 8 -13 5 -3 -3 -11 -1 -18 5 -8 7 -10 19 -4 40 7 25 6 29 -11 29 -10
0 -19 -5 -19 -10z"/>
  <path d="M535 190 c-3 -5 1 -10 9 -10 8 0 18 5 21 10 3 6 -1 10 -9 10 -8 0
-18 -4 -21 -10z"/>
</g>
</g>
</svg>