<?xml version="1.0" standalone="no"?>
<!DOCTYPE svg PUBLIC "-//W3C//DTD SVG 20010904//EN"
 "http://www.w3.org/TR/2001/REC-SVG-20010904/DTD/svg10.dtd">
<svg version="1.0" xmlns="http://www.w3.org/2000/svg"
 width="96.000000pt" height="68.000000pt" viewBox="0 0 96.000000 68.000000"
 preserveAspectRatio="xMidYMid meet">
<metadata>
Created by potrace 1.16, written by Peter Selinger 2001-2019
Combined from part_0.svg through part_5.svg with named groups
</metadata>
<g transform="translate(0.000000,68.000000) scale(0.100000,-0.100000)" fill="#000000" stroke="none">
<g id="part-0" class="char-part">
  <path d="M558 578 c3 -29 6 -66 7 -83 l0 -30 -73 0 c-70 0 -73 -1 -85 -27 -14
-34 -20 -34 -56 -7 -31 23 -51 19 -51 -10 0 -13 -9 -20 -30 -23 -20 -3 -29 -1
-27 6 2 6 13 44 23 84 19 73 19 74 0 88 -11 8 -29 14 -40 14 -19 0 -21 -5 -18
-57 1 -32 -1 -78 -5 -103 l-8 -45 -53 -3 c-37 -2 -52 -7 -52 -17 0 -21 38 -38
67 -30 24 6 25 4 18 -22 -3 -15 -7 -32 -8 -36 -1 -5 15 -18 35 -29 20 -11 35
-25 32 -31 -2 -7 -35 -31 -72 -55 -59 -36 -64 -42 -39 -42 32 0 79 22 121 57
l29 24 26 -25 c32 -31 71 -35 71 -8 0 20 -39 62 -58 62 -9 0 -8 9 4 31 9 17
22 53 30 80 16 52 29 60 49 32 17 -23 40 -5 49 37 4 23 11 30 28 31 13 0 82 6
153 13 72 8 133 12 138 9 4 -2 2 -13 -4 -24 -10 -19 -8 -20 28 -14 75 13 82
25 32 51 -27 13 -43 14 -111 5 -44 -6 -85 -8 -90 -5 -7 4 -8 31 -5 71 6 61 5
64 -19 73 -41 16 -43 13 -36 -42z m-258 -223 c0 -31 -33 -95 -49 -95 -35 0
-45 16 -35 57 9 37 17 42 77 52 4 0 7 -6 7 -14z"/>
  <path d="M720 591 c0 -5 -15 -24 -32 -42 l-33 -32 29 7 c17 4 46 14 65 22 l34
14 -21 20 c-22 21 -42 26 -42 11z"/>
  <path d="M450 542 c0 -5 11 -19 25 -32 20 -19 28 -21 38 -11 9 10 7 16 -12 32
-24 20 -51 25 -51 11z"/>
  <path d="M564 406 c-68 -9 -80 -14 -73 -26 5 -8 13 -27 19 -42 6 -18 17 -28
30 -28 24 0 38 -26 22 -42 -6 -6 -31 -10 -57 -10 -46 1 -46 1 -40 -27 3 -15 1
-40 -4 -54 -12 -30 -5 -57 14 -57 8 0 16 22 21 58 9 55 10 57 42 60 l32 3 0
-116 c0 -86 3 -116 12 -113 18 6 27 53 29 150 l1 88 49 0 49 0 0 -51 c0 -46
-2 -51 -20 -46 -17 4 -18 2 -10 -14 6 -10 19 -23 30 -29 30 -16 50 22 50 96 0
73 -7 78 -87 68 -52 -6 -53 -6 -53 20 0 21 5 26 25 26 14 0 25 6 25 13 0 7 10
24 22 37 21 22 21 23 3 36 -21 15 -17 15 -131 0z m86 -23 c0 -30 -13 -40 -62
-46 -42 -6 -49 -4 -59 14 -15 28 -3 37 56 42 28 2 53 4 58 5 4 1 7 -6 7 -15z"/>
</g>
<g id="part-1" class="char-part">
  <path d="M213 527 c0 -34 -4 -81 -7 -104 -6 -35 -11 -42 -38 -47 -17 -3 -42
-6 -55 -6 -22 0 -24 -2 -13 -15 7 -9 29 -15 51 -15 l38 0 -11 -32 c-10 -28 -9
-33 12 -50 12 -10 29 -18 37 -18 32 0 5 -37 -57 -79 -36 -24 -57 -41 -47 -37
10 3 25 6 32 6 7 0 36 16 64 35 28 19 54 35 59 35 5 0 19 -11 32 -25 27 -29
45 -32 54 -10 5 15 -5 27 -46 57 -17 12 -17 16 7 73 13 33 25 65 25 72 0 7 8
17 18 23 16 9 15 11 -7 30 -29 25 -66 27 -57 3 8 -20 -10 -33 -45 -33 l-27 0
24 82 c13 45 24 85 24 88 0 7 -45 30 -59 30 -5 0 -8 -28 -8 -63z m92 -179
c-12 -44 -38 -98 -47 -98 -8 0 -47 18 -56 25 -2 2 2 21 9 44 12 40 22 46 77
50 20 1 22 -3 17 -21z"/>
</g>
<g id="part-2" class="char-part">
  <path d="M553 604 c3 -16 9 -53 12 -81 5 -42 11 -53 25 -53 14 0 18 12 24 71
3 40 5 73 3 75 -2 2 -18 7 -36 10 -32 7 -33 6 -28 -22z"/>
  <path d="M684 554 c-23 -24 -41 -44 -39 -44 6 0 131 43 134 46 7 6 -31 44 -43
43 -6 -1 -30 -21 -52 -45z"/>
  <path d="M450 542 c0 -12 44 -52 58 -52 19 0 14 38 -7 50 -24 12 -51 13 -51 2z"/>
</g>
<g id="part-3" class="char-part">
  <path d="M695 479 c-33 -4 -109 -10 -170 -13 l-109 -4 -14 -42 c-10 -30 -11
-45 -4 -52 15 -15 39 6 47 41 l6 27 152 16 c136 15 189 13 158 -6 -6 -4 -11
-13 -11 -20 0 -10 9 -11 45 -2 58 15 65 24 35 46 -27 21 -42 22 -135 9z"/>
</g>
<g id="part-4" class="char-part">
  <path d="M600 265 c-52 -8 -106 -11 -119 -8 -22 5 -23 3 -19 -22 3 -15 2 -41
-3 -57 -9 -34 -3 -58 17 -58 9 0 15 20 20 60 4 33 12 60 18 60 6 1 38 3 71 6
131 11 125 14 125 -47 0 -47 -2 -51 -21 -46 -19 5 -19 4 -6 -16 8 -12 24 -23
36 -25 25 -4 37 21 40 87 1 25 4 48 7 53 5 8 -39 29 -59 27 -7 -1 -55 -7 -107
-14z"/>
</g>
</g>
</svg>