<?xml version="1.0" standalone="no"?>
<!DOCTYPE svg PUBLIC "-//W3C//DTD SVG 20010904//EN"
 "http://www.w3.org/TR/2001/REC-SVG-20010904/DTD/svg10.dtd">
<svg version="1.0" xmlns="http://www.w3.org/2000/svg"
 width="96.000000pt" height="68.000000pt" viewBox="0 0 96.000000 68.000000"
 preserveAspectRatio="xMidYMid meet">
<metadata>
Created by potrace 1.16, written by Peter Selinger 2001-2019
Combined from part_0.svg through part_5.svg with named groups
</metadata>
<g transform="translate(0.000000,68.000000) scale(0.100000,-0.100000)" fill="#000000" stroke="none">
<g id="part-0" class="char-part">
  <path d="M638 613 c0 -5 -2 -12 -3 -18 -2 -5 -3 -22 -4 -37 -1 -25 -5 -28 -35
-28 -19 0 -38 -4 -41 -10 -4 -6 8 -10 28 -10 32 0 34 -2 30 -27 l-4 -28 28 33
c22 25 36 32 65 32 20 0 43 3 52 6 27 10 7 24 -35 24 -37 0 -39 2 -33 24 4 18
1 27 -14 35 -24 13 -31 14 -34 4z"/>
  <path d="M390 586 c0 -2 7 -20 15 -40 l15 -36 -61 0 c-53 0 -60 -2 -49 -15 15
-18 50 -19 86 -3 24 11 28 10 42 -10 19 -29 32 -28 32 2 0 18 7 26 23 29 19 4
18 4 -5 6 -21 1 -29 7 -34 29 -4 15 -12 30 -18 34 -11 8 -46 11 -46 4z"/>
  <path d="M205 504 c-18 -8 -46 -11 -69 -8 l-39 6 9 -28 c5 -16 9 -97 9 -181 0
-83 3 -154 7 -158 4 -4 15 -4 25 0 36 16 66 14 82 -6 14 -17 19 -18 34 -7 10
8 21 32 24 53 l5 40 75 2 c41 0 90 4 109 8 32 6 34 5 34 -24 0 -30 -1 -30 -70
-37 -41 -4 -67 -11 -64 -16 4 -6 31 -7 69 -3 l62 6 7 -70 c10 -104 26 -94 42
27 l7 52 90 0 c70 0 88 3 79 12 -7 7 -41 11 -92 9 -78 -1 -80 -1 -80 23 0 30
31 37 164 35 95 -1 117 3 102 19 -9 8 -160 6 -224 -3 l-44 -6 4 80 3 80 35 6
c81 14 92 17 82 27 -10 10 -188 -6 -247 -22 -26 -7 -23 -8 23 -9 l52 -1 0 -80
c0 -44 -3 -80 -7 -80 -5 0 -57 -3 -117 -7 l-109 -6 5 131 5 131 -26 9 c-18 6
-36 5 -56 -4z m30 -89 c4 -31 6 -58 4 -60 -2 -2 -21 -6 -41 -10 -37 -7 -38 -6
-38 21 0 16 3 46 6 67 6 32 10 37 35 37 26 0 28 -3 34 -55z m5 -119 c0 -13 -3
-44 -6 -70 -6 -44 -8 -46 -40 -46 l-34 0 0 64 0 65 33 4 c17 2 35 5 40 5 4 1
7 -9 7 -22z"/>
  <path d="M650 371 c0 -23 -6 -30 -32 -39 -33 -10 -33 -10 -5 -11 17 -1 27 -7
27 -16 0 -19 17 -19 27 -1 5 9 28 16 58 18 56 3 64 21 11 26 -27 2 -34 7 -29
19 7 17 -12 33 -39 33 -13 0 -18 -8 -18 -29z"/>
  <path d="M374 366 c3 -9 9 -22 12 -30 4 -10 -6 -16 -35 -21 -54 -9 -42 -26 13
-19 34 5 44 3 49 -10 9 -23 30 -20 24 4 -4 15 0 20 16 20 12 0 29 5 37 10 11
7 4 10 -27 10 -35 0 -42 3 -45 23 -2 14 -11 23 -27 25 -18 3 -22 0 -17 -12z"/>
</g>
<g id="part-1" class="char-part">
  <path d="M205 500 c-11 -5 -36 -9 -55 -9 l-35 -1 0 -168 c1 -167 6 -201 28
-184 7 5 26 12 44 15 26 5 33 3 38 -13 7 -23 28 -26 43 -7 6 7 12 85 14 184 3
154 1 172 -14 182 -21 13 -35 13 -63 1z m33 -91 l3 -67 -41 -4 -40 -4 0 67 c0
71 5 79 50 76 24 -2 25 -6 28 -68z m2 -153 c0 -36 -3 -67 -8 -70 -4 -2 -24 -7
-45 -11 l-37 -7 0 38 c0 22 3 56 6 77 6 35 8 37 45 37 l39 0 0 -64z"/>
</g>
<g id="part-2" class="char-part">
  <path d="M628 578 c-3 -40 -5 -43 -33 -46 -44 -5 -56 -22 -16 -22 30 0 33 -2
29 -25 -7 -34 7 -32 34 5 19 26 28 30 69 30 48 0 70 12 48 26 -7 4 -27 7 -46
6 -31 -1 -33 0 -27 24 7 28 -7 44 -38 44 -13 0 -18 -10 -20 -42z"/>
  <path d="M400 558 c11 -18 20 -36 20 -40 0 -5 -28 -8 -61 -8 -54 0 -60 -2 -49
-15 15 -18 47 -19 87 -4 24 9 30 7 42 -10 18 -28 31 -26 31 3 0 18 7 26 23 29
19 4 19 4 -5 6 -21 1 -29 8 -38 36 -10 29 -16 35 -41 35 l-29 0 20 -32z"/>
</g>
<g id="part-3" class="char-part">
  <path d="M555 438 c-155 -20 -165 -27 -30 -24 135 4 178 12 153 27 -15 10 -27
10 -123 -3z"/>
</g>
<g id="part-4" class="char-part">
  <path d="M510 291 l0 -119 -70 -7 c-44 -4 -68 -11 -64 -17 4 -7 30 -8 69 -4
l63 6 7 -70 c10 -103 24 -93 41 32 l6 48 91 0 c73 0 88 2 78 13 -8 8 -38 11
-93 9 l-80 -3 4 110 c3 114 1 121 -38 121 -11 0 -14 -23 -14 -119z"/>
</g>
</g>
</svg>