<?xml version="1.0" standalone="no"?>
<!DOCTYPE svg PUBLIC "-//W3C//DTD SVG 20010904//EN"
 "http://www.w3.org/TR/2001/REC-SVG-20010904/DTD/svg10.dtd">
<svg version="1.0" xmlns="http://www.w3.org/2000/svg"
 width="96.000000pt" height="68.000000pt" viewBox="0 0 96.000000 68.000000"
 preserveAspectRatio="xMidYMid meet">
<metadata>
Created by potrace 1.16, written by Peter Selinger 2001-2019
Combined from part_0.svg through part_5.svg with named groups
</metadata>
<g transform="translate(0.000000,68.000000) scale(0.100000,-0.100000)" fill="#000000" stroke="none">
<g id="part-0" class="char-part">
  <path d="M440 571 c0 -47 -14 -89 -56 -163 -38 -67 -30 -74 21 -20 20 20 44
38 53 38 10 1 50 5 90 9 64 7 72 6 72 -9 0 -10 -5 -26 -11 -38 -18 -34 -1 -32
57 7 l57 37 -30 19 c-40 25 -55 26 -146 10 -42 -8 -80 -11 -83 -8 -3 3 7 33
22 67 27 61 27 63 9 76 -36 27 -55 18 -55 -25z"/>
  <path d="M126 541 c-10 -15 86 -81 118 -81 25 0 20 45 -6 62 -28 18 -105 31
-112 19z"/>
  <path d="M470 337 c0 -83 -53 -152 -155 -202 -43 -21 -46 -24 -23 -25 45 0
111 35 156 83 23 26 42 53 42 62 0 8 7 15 15 15 8 0 15 -4 15 -9 0 -6 34 -44
75 -85 l75 -76 80 0 c44 0 80 4 80 9 0 5 -32 19 -71 32 -70 23 -145 67 -210
123 -28 24 -33 35 -34 75 0 40 -3 46 -22 49 -21 3 -23 0 -23 -51z"/>
  <path d="M196 284 c-32 -41 -64 -78 -72 -81 -21 -8 -17 -50 6 -73 23 -23 40
-19 40 9 0 10 17 56 38 102 42 92 53 119 48 119 -2 0 -29 -34 -60 -76z"/>
</g>
<g id="part-1" class="char-part">
  <path d="M138 527 c16 -19 96 -67 111 -67 6 0 11 9 11 20 0 26 -39 50 -92 58
-39 5 -42 4 -30 -11z"/>
</g>
<g id="part-2" class="char-part">
  <path d="M191 282 c-33 -44 -67 -82 -76 -86 -19 -7 -13 -40 13 -68 22 -26 29
-23 43 19 7 21 30 75 51 121 22 46 37 86 35 89 -3 2 -32 -31 -66 -75z"/>
</g>
<g id="part-3" class="char-part">
  <path d="M440 567 c0 -31 -12 -68 -44 -130 -24 -48 -39 -87 -33 -87 5 0 27 17
47 39 36 38 39 39 129 46 l91 7 -10 -27 c-5 -14 -15 -35 -21 -46 -10 -19 -8
-19 30 3 23 13 53 33 68 44 l27 21 -41 22 c-41 20 -43 20 -128 5 -47 -9 -88
-14 -91 -12 -2 3 8 33 23 68 26 61 26 63 8 76 -10 8 -27 14 -37 14 -15 0 -18
-8 -18 -43z"/>
</g>
<g id="part-4" class="char-part">
  <path d="M470 345 c0 -25 -6 -60 -14 -78 -19 -46 -81 -103 -143 -132 -58 -28
-68 -39 -25 -29 93 20 157 66 194 139 l20 39 31 -39 c17 -22 56 -64 86 -92
l56 -53 78 0 c42 0 77 4 77 8 0 5 -35 21 -78 36 -83 29 -136 60 -199 117 -36
32 -40 41 -39 80 1 38 -2 44 -21 47 -21 3 -23 -1 -23 -43z"/>
</g>
</g>
</svg>