<?xml version="1.0" standalone="no"?>
<!DOCTYPE svg PUBLIC "-//W3C//DTD SVG 20010904//EN"
 "http://www.w3.org/TR/2001/REC-SVG-20010904/DTD/svg10.dtd">
<svg version="1.0" xmlns="http://www.w3.org/2000/svg"
 width="96.000000pt" height="68.000000pt" viewBox="0 0 96.000000 68.000000"
 preserveAspectRatio="xMidYMid meet">
<metadata>
Created by potrace 1.16, written by Peter Selinger 2001-2019
Combined from part_0.svg through part_5.svg with named groups
</metadata>
<g transform="translate(0.000000,68.000000) scale(0.100000,-0.100000)" fill="#000000" stroke="none">
<g id="part-0" class="char-part">
  <path d="M585 533 l25 -38 -27 -6 c-57 -13 -111 -10 -117 7 -4 9 -9 14 -13 10
-10 -10 -33 -78 -33 -98 0 -34 34 -16 43 23 6 25 10 26 147 40 147 15 154 14
124 -29 -8 -12 -12 -22 -7 -22 26 1 107 28 110 37 2 6 -12 21 -31 32 -32 20
-41 21 -92 12 -75 -14 -71 -15 -71 16 0 30 -26 53 -60 53 l-24 0 26 -37z"/>
  <path d="M223 523 c-69 -4 -88 -13 -62 -29 9 -5 10 -42 6 -129 -3 -66 -2 -127
2 -134 5 -8 17 -11 30 -6 15 4 21 2 21 -8 0 -17 -59 -92 -93 -119 -13 -11 -17
-18 -9 -18 15 0 119 77 142 105 12 15 12 19 -3 30 -15 11 -11 13 30 19 36 5
50 2 65 -11 17 -15 20 -15 28 -3 6 8 10 26 10 40 0 14 1 76 3 138 4 126 0 134
-65 130 -18 -1 -66 -4 -105 -5z m113 -49 c9 -34 -1 -41 -68 -49 l-58 -7 0 35
c0 33 3 36 33 40 79 10 86 8 93 -19z m4 -98 c0 -20 -6 -24 -46 -30 -77 -10
-84 -9 -84 18 0 26 13 30 98 34 27 2 32 -1 32 -22z m2 -81 c6 -31 7 -31 -69
-39 -65 -7 -75 -2 -66 32 5 21 10 22 109 30 16 2 23 -5 26 -23z"/>
  <path d="M665 370 c-22 -4 -79 -11 -127 -15 -49 -4 -88 -11 -88 -16 0 -5 33
-9 74 -9 l73 0 7 -37 c3 -21 6 -73 6 -117 l0 -79 -42 7 -42 7 39 -35 c46 -40
60 -44 74 -18 11 21 17 255 7 271 -5 8 13 11 56 11 58 0 100 12 87 24 -10 11
-85 14 -124 6z"/>
  <path d="M333 158 c12 -22 33 -48 45 -56 21 -14 22 -13 22 16 0 30 -28 59 -73
75 -15 6 -14 1 6 -35z"/>
</g>
<g id="part-1" class="char-part">
  <path d="M270 519 c-25 -5 -58 -7 -75 -4 l-30 5 0 -120 c0 -106 2 -120 17
-120 9 0 20 9 23 20 6 17 15 20 76 20 62 0 69 -2 69 -20 0 -22 28 -28 35 -8 2
7 5 59 7 115 4 98 3 102 -20 112 -26 13 -39 12 -102 0z m58 -21 c7 -7 12 -24
12 -39 0 -23 -5 -28 -37 -33 -21 -4 -50 -9 -65 -12 -27 -5 -28 -4 -28 35 0 43
1 43 70 54 14 3 27 5 31 6 3 0 10 -4 17 -11z m12 -124 c0 -19 -3 -33 -7 -31
-5 3 -32 1 -62 -4 -30 -4 -57 -6 -62 -4 -4 3 -4 17 0 33 7 24 13 28 62 33 30
3 57 6 62 7 4 1 7 -14 7 -34z"/>
</g>
<g id="part-2" class="char-part">
  <path d="M210 201 c-6 -15 -31 -48 -56 -74 -53 -55 -41 -61 25 -13 89 66 107
97 62 109 -14 3 -23 -3 -31 -22z"/>
  <path d="M310 192 c1 -13 70 -102 80 -102 6 0 10 13 10 29 0 21 -8 35 -27 49
-33 22 -63 34 -63 24z"/>
</g>
<g id="part-3" class="char-part">
  <path d="M567 574 c-3 -3 5 -23 18 -44 l24 -38 -37 -6 c-65 -10 -99 -7 -106
10 -4 9 -9 14 -13 10 -10 -10 -33 -78 -33 -99 0 -30 33 -15 43 19 l9 30 134
14 c74 7 137 10 141 6 4 -4 1 -16 -6 -27 -7 -12 -11 -22 -9 -24 2 -2 27 2 56
8 61 13 66 29 20 57 -26 16 -42 19 -78 13 -70 -10 -85 -9 -86 7 0 8 -2 21 -2
27 -1 7 -15 19 -32 28 -33 17 -34 17 -43 9z"/>
</g>
<g id="part-4" class="char-part">
  <path d="M590 360 c-74 -10 -139 -19 -145 -20 -5 -1 -1 -5 10 -9 11 -5 49 -5
85 0 36 4 99 9 140 10 41 1 84 5 95 9 18 7 18 9 -8 19 -16 6 -31 10 -35 10 -4
-1 -68 -9 -142 -19z"/>
</g>
<g id="part-5" class="char-part">
  <path d="M616 313 c-2 -10 -5 -57 -5 -105 0 -72 3 -89 17 -98 16 -11 16 -11 0
-6 -10 3 -18 0 -18 -5 0 -7 -11 -9 -25 -7 -14 3 -25 4 -25 3 0 0 14 -14 32
-31 17 -16 28 -23 24 -16 -4 7 -1 12 9 12 9 0 13 5 10 10 -3 5 -2 10 4 10 14
0 8 243 -6 247 -6 2 -14 -4 -17 -14z"/>
</g>
</g>
</svg>