<?xml version="1.0" standalone="no"?>
<!DOCTYPE svg PUBLIC "-//W3C//DTD SVG 20010904//EN"
 "http://www.w3.org/TR/2001/REC-SVG-20010904/DTD/svg10.dtd">
<svg version="1.0" xmlns="http://www.w3.org/2000/svg"
 width="96.000000pt" height="68.000000pt" viewBox="0 0 96.000000 68.000000"
 preserveAspectRatio="xMidYMid meet">
<metadata>
Created by potrace 1.16, written by Peter Selinger 2001-2019
Combined from part_0.svg through part_5.svg with named groups
</metadata>
<g transform="translate(0.000000,68.000000) scale(0.100000,-0.100000)" fill="#000000" stroke="none">
<g id="part-0" class="char-part">
  <path d="M565 573 c-33 -7 -86 -12 -117 -9 -32 2 -58 3 -58 1 0 -2 7 -39 15
-82 8 -43 15 -82 15 -87 0 -5 -20 -6 -44 -4 l-44 5 -13 -46 c-14 -51 -14 -56
3 -56 6 0 17 16 23 35 l12 35 114 12 c250 27 249 27 249 11 0 -7 -6 -20 -12
-27 -11 -11 -3 -12 42 -6 64 8 64 8 56 32 -9 28 -52 43 -107 36 l-50 -6 7 29
c4 16 13 48 21 72 11 34 12 47 2 58 -14 17 -33 16 -114 -3z m59 -30 c10 -24
-5 -34 -66 -40 l-55 -5 5 -49 c5 -49 4 -49 -26 -49 -29 0 -30 1 -37 66 -4 36
-5 67 -3 69 3 2 125 21 159 24 9 0 20 -7 23 -16z m-7 -89 c-7 -43 -4 -40 -44
-49 -33 -7 -33 -6 -33 34 0 33 4 40 23 44 57 11 60 9 54 -29z"/>
  <path d="M190 546 c0 -22 49 -56 81 -56 44 0 40 37 -6 56 -44 18 -75 18 -75 0z"/>
  <path d="M120 421 c0 -16 72 -72 88 -69 10 2 18 13 20 26 3 18 -4 26 -32 37
-40 17 -76 20 -76 6z"/>
  <path d="M535 330 c-16 -4 -54 -8 -83 -9 l-54 -1 7 -41 c4 -22 1 -76 -6 -119
-9 -58 -10 -85 -2 -102 11 -22 11 -22 27 14 9 21 16 46 16 57 0 16 9 21 48 26
26 3 64 9 85 12 l38 5 -3 -44 c-3 -42 -4 -43 -35 -42 -18 1 -33 0 -33 -3 0 -6
63 -63 70 -63 34 1 48 55 51 197 2 82 0 106 -12 114 -16 10 -71 10 -114 -1z
m75 -46 c0 -13 -3 -23 -7 -22 -9 2 -95 -10 -130 -19 -19 -4 -23 -1 -23 20 0
33 11 39 84 47 72 7 76 6 76 -26z m0 -68 c0 -22 -6 -25 -52 -31 -29 -3 -65 -8
-80 -11 -26 -5 -28 -3 -28 25 0 33 -11 30 133 39 22 2 27 -2 27 -22z"/>
  <path d="M207 252 c-20 -31 -47 -68 -60 -80 -22 -20 -24 -28 -16 -55 10 -34
38 -62 50 -50 7 8 79 223 79 236 0 22 -23 0 -53 -51z"/>
</g>
<g id="part-1" class="char-part">
  <path d="M190 549 c0 -15 66 -59 88 -59 25 0 29 22 7 40 -18 15 -95 31 -95 19z"/>
  <path d="M120 426 c0 -15 68 -66 85 -64 31 5 23 31 -15 50 -33 16 -70 23 -70
14z"/>
  <path d="M222 267 c-13 -24 -39 -60 -59 -80 -37 -39 -39 -61 -9 -102 21 -28
29 -16 65 99 36 112 37 148 3 83z"/>
</g>
<g id="part-2" class="char-part">
  <path d="M565 573 c-35 -8 -84 -11 -119 -8 -56 5 -58 4 -53 -18 3 -12 9 -44
13 -72 15 -108 47 -118 42 -13 l-3 72 40 7 c22 3 62 9 89 12 l48 5 -4 -74 c-4
-64 -3 -74 12 -74 11 0 22 20 38 70 26 84 27 96 6 104 -20 8 -37 6 -109 -11z"/>
</g>
<g id="part-3" class="char-part">
  <path d="M670 420 c-25 -5 -105 -14 -179 -20 -110 -10 -135 -10 -142 1 -9 15
-27 -24 -36 -80 -8 -45 18 -38 33 10 10 30 16 34 50 37 22 1 88 9 149 17 60 8
124 15 142 15 35 0 43 -16 21 -39 -11 -11 -4 -12 36 -6 87 12 92 19 43 53 -35
23 -45 24 -117 12z"/>
</g>
<g id="part-4" class="char-part">
  <path d="M565 334 c-27 -7 -75 -13 -106 -13 l-55 -1 4 -57 c2 -34 -2 -83 -11
-117 -12 -42 -13 -65 -6 -85 10 -25 11 -26 25 -6 8 11 17 36 20 57 6 37 7 37
63 43 31 3 68 9 84 11 26 5 27 4 27 -42 l0 -47 -42 6 -42 6 39 -34 c22 -19 46
-34 53 -35 26 0 41 64 43 185 1 115 1 118 -22 130 -18 9 -36 9 -74 -1z m43
-41 c3 -19 -5 -23 -67 -37 -91 -21 -91 -21 -91 13 0 28 3 30 48 36 26 4 52 8
57 9 29 8 50 -1 53 -21z m2 -77 c0 -21 -6 -24 -76 -36 -82 -13 -97 -8 -87 31
4 13 17 19 52 22 112 9 111 9 111 -17z"/>
</g>
</g>
</svg>