<?xml version="1.0" standalone="no"?>
<!DOCTYPE svg PUBLIC "-//W3C//DTD SVG 20010904//EN"
 "http://www.w3.org/TR/2001/REC-SVG-20010904/DTD/svg10.dtd">
<svg version="1.0" xmlns="http://www.w3.org/2000/svg"
 width="96.000000pt" height="68.000000pt" viewBox="0 0 96.000000 68.000000"
 preserveAspectRatio="xMidYMid meet">
<metadata>
Created by potrace 1.16, written by Peter Selinger 2001-2019
Combined from part_0.svg through part_5.svg with named groups
</metadata>
<g transform="translate(0.000000,68.000000) scale(0.100000,-0.100000)" fill="#000000" stroke="none">
<g id="part-0" class="char-part">
  <path d="M216 561 c-9 -13 47 -91 66 -91 41 0 34 56 -11 83 -32 19 -47 21 -55
8z"/>
  <path d="M617 528 c11 -13 37 -40 56 -60 37 -40 54 -47 63 -24 9 23 -24 63
-72 85 -57 27 -74 27 -47 -1z"/>
  <path d="M479 499 c-7 -18 -23 -43 -37 -56 -27 -27 -23 -44 5 -22 10 8 22 17
28 22 5 4 26 21 45 37 29 25 32 32 20 40 -27 18 -47 11 -61 -21z"/>
  <path d="M218 447 c-76 -12 -138 -24 -138 -28 0 -4 14 -12 31 -19 26 -11 45
-10 132 9 56 11 114 21 129 21 37 0 45 18 13 30 -14 6 -27 9 -28 9 -1 -1 -64
-11 -139 -22z"/>
  <path d="M565 405 c-38 -7 -90 -14 -114 -14 -41 -1 -43 -2 -29 -18 9 -10 19
-34 23 -53 8 -40 23 -62 36 -54 16 10 9 -36 -11 -76 -11 -22 -40 -60 -64 -85
-47 -49 -29 -54 31 -9 42 31 106 138 98 163 -4 14 -1 18 17 17 22 -1 23 -6 28
-93 7 -124 17 -135 132 -141 74 -4 86 -2 111 18 31 25 33 42 8 89 l-18 34 -6
-38 c-3 -20 -14 -43 -24 -51 -25 -19 -113 -18 -142 2 -22 16 -23 21 -17 83 4
36 8 74 9 84 1 11 10 17 25 17 13 0 20 4 17 10 -3 5 6 27 20 47 30 45 31 59 6
73 -24 12 -47 12 -136 -5z m79 -37 c-1 -10 -2 -27 -3 -38 -1 -20 -8 -22 -112
-35 l-47 -6 -6 37 c-4 20 -5 38 -3 40 6 7 119 22 147 20 17 -1 25 -7 24 -18z"/>
  <path d="M235 356 c-59 -14 -45 -31 18 -21 80 12 97 17 91 26 -7 12 -46 10
-109 -5z"/>
  <path d="M275 295 c-5 -2 -28 -7 -50 -11 -40 -7 -40 -7 -10 -13 36 -8 136 9
129 21 -5 8 -49 10 -69 3z"/>
  <path d="M280 219 c-14 -6 -49 -11 -78 -11 -45 -1 -51 -3 -40 -16 7 -8 20 -33
29 -56 11 -31 20 -40 35 -38 96 12 113 16 108 23 -2 5 5 27 16 49 l21 40 -26
10 c-31 12 -33 12 -65 -1z m26 -51 c-7 -38 -3 -34 -44 -41 -29 -6 -34 -3 -42
19 -6 14 -10 29 -10 34 0 9 28 16 74 19 27 1 28 -1 22 -31z"/>
</g>
<g id="part-1" class="char-part">
  <path d="M220 553 c0 -13 50 -83 59 -83 5 0 14 7 21 15 11 13 10 21 -7 43 -19
25 -73 44 -73 25z"/>
  <path d="M213 441 c-62 -10 -115 -20 -118 -23 -3 -3 7 -10 22 -15 26 -9 73 -3
261 33 36 7 25 24 -15 23 -21 -1 -89 -9 -150 -18z"/>
</g>
<g id="part-2" class="char-part">
  <path d="M256 215 c-27 -8 -63 -11 -80 -8 -30 6 -30 5 -14 -13 9 -10 22 -38
29 -62 11 -38 15 -43 36 -37 13 3 43 8 68 12 24 3 42 10 39 15 -3 5 4 25 16
45 21 35 21 38 4 50 -21 16 -34 15 -98 -2z m49 -47 c-9 -40 -3 -34 -42 -43
-29 -6 -34 -4 -43 20 -5 14 -10 30 -10 35 0 9 28 16 73 19 27 1 28 -1 22 -31z"/>
</g>
<g id="part-3" class="char-part">
  <path d="M640 501 c52 -62 77 -78 93 -62 26 26 -37 90 -107 107 l-30 7 44 -52z"/>
  <path d="M481 505 c-6 -19 -26 -48 -42 -65 -17 -16 -27 -30 -22 -30 14 0 96
55 117 79 19 21 19 22 0 36 -29 22 -39 18 -53 -20z"/>
</g>
<g id="part-4" class="char-part">
  <path d="M565 405 c-44 -8 -98 -14 -119 -14 -36 -1 -38 -2 -24 -18 8 -10 21
-39 28 -66 10 -36 17 -46 29 -43 32 9 87 15 143 17 31 1 55 6 52 11 -3 5 6 27
20 48 32 49 32 58 0 70 -29 11 -24 12 -129 -5z m82 -52 c-7 -42 -20 -53 -62
-53 -16 0 -47 -3 -67 -6 -36 -6 -37 -6 -44 30 -3 20 -4 39 -2 41 6 6 106 22
147 24 33 1 34 1 28 -36z"/>
</g>
<g id="part-5" class="char-part">
  <path d="M607 263 c-4 -3 -7 -19 -7 -35 0 -17 -4 -27 -10 -23 -6 4 -8 -12 -6
-42 5 -60 13 -81 38 -94 16 -9 19 -8 13 3 -4 7 2 2 15 -10 20 -22 28 -23 88
-18 61 6 121 30 108 43 -3 4 -14 -1 -25 -11 -18 -16 -18 -16 -15 16 2 30 2 31
-8 10 -8 -15 -20 -22 -42 -23 -17 0 -44 -2 -61 -3 -16 -2 -36 1 -42 7 -7 5
-20 6 -29 3 -12 -5 -15 -2 -10 9 4 11 2 14 -6 9 -8 -5 -9 -2 -3 12 4 10 9 37
11 59 2 22 4 40 5 40 1 0 3 12 5 28 3 26 -5 34 -19 20z"/>
  <path d="M582 240 c0 -14 2 -19 5 -12 2 6 2 18 0 25 -3 6 -5 1 -5 -13z"/>
  <path d="M815 125 c0 -38 2 -40 25 -25 11 7 11 10 2 10 -7 0 -11 4 -8 9 3 4 0
16 -7 25 -10 14 -12 11 -12 -19z"/>
</g>
</g>
</svg>