<?xml version="1.0" standalone="no"?>
<!DOCTYPE svg PUBLIC "-//W3C//DTD SVG 20010904//EN"
 "http://www.w3.org/TR/2001/REC-SVG-20010904/DTD/svg10.dtd">
<svg version="1.0" xmlns="http://www.w3.org/2000/svg"
 width="96.000000pt" height="68.000000pt" viewBox="0 0 96.000000 68.000000"
 preserveAspectRatio="xMidYMid meet">
<metadata>
Created by potrace 1.16, written by Peter Selinger 2001-2019
Combined from part_0.svg through part_5.svg with named groups
</metadata>
<g transform="translate(0.000000,68.000000) scale(0.100000,-0.100000)" fill="#000000" stroke="none">
<g id="part-0" class="char-part">
  <path d="M581 582 c-18 -43 -66 -94 -85 -90 -15 3 -17 -11 -20 -131 l-3 -134
56 7 c31 3 98 9 149 13 l93 6 -5 -63 c-8 -91 -45 -138 -87 -112 -40 25 -39 8
2 -35 16 -18 36 -33 43 -33 7 0 26 13 43 30 25 24 33 45 45 107 8 43 17 84 19
92 2 9 -8 21 -25 29 -24 12 -48 13 -146 3 -149 -14 -150 -14 -150 3 0 11 21
16 78 21 114 11 127 28 15 20 -89 -5 -93 -5 -93 15 0 21 12 23 143 25 36 0 39
3 72 64 37 69 36 74 -15 88 -13 3 -57 -1 -97 -9 -40 -8 -73 -12 -73 -8 0 4 25
27 57 50 52 40 55 44 38 56 -28 21 -41 17 -54 -14z m107 -119 c3 -18 -4 -21
-65 -26 -37 -3 -76 -9 -85 -12 -14 -6 -18 -2 -18 14 0 26 6 28 85 40 74 10 79
9 83 -16z m-8 -50 c-1 -22 -22 -31 -87 -38 -69 -7 -73 -6 -73 13 0 18 8 21 48
25 92 7 112 7 112 0z"/>
  <path d="M228 471 l4 -68 -46 -7 c-25 -4 -48 -11 -51 -17 -9 -13 42 -30 71
-23 21 5 24 3 24 -22 0 -44 -38 -111 -88 -154 -26 -22 -41 -40 -34 -40 23 0
86 37 113 67 27 29 59 110 59 148 0 23 43 50 61 40 12 -8 11 -88 -1 -140 -7
-30 -6 -43 4 -53 12 -12 19 -8 47 23 19 21 40 44 47 51 7 8 9 14 4 14 -5 0
-15 -7 -22 -15 -23 -28 -29 -15 -32 63 l-3 77 -49 3 -49 3 6 50 c6 52 -6 69
-50 69 -17 0 -18 -7 -15 -69z"/>
  <path d="M680 180 c26 -36 40 -38 40 -6 0 16 -7 26 -22 30 -38 10 -40 7 -18
-24z"/>
  <path d="M586 188 c13 -23 37 -48 46 -48 15 0 8 32 -9 46 -23 17 -46 18 -37 2z"/>
  <path d="M418 159 c-21 -36 -23 -69 -5 -69 23 0 47 35 47 68 0 41 -20 41 -42
1z"/>
  <path d="M510 180 c0 -20 24 -60 37 -60 17 0 17 20 -3 48 -16 23 -34 29 -34
12z"/>
</g>
<g id="part-1" class="char-part">
  <path d="M238 466 l4 -65 -38 -7 c-22 -3 -46 -10 -54 -15 -23 -12 13 -23 55
-16 41 7 42 3 20 -70 -11 -36 -29 -65 -62 -97 -53 -53 -47 -59 18 -17 49 31
82 90 95 170 4 22 10 41 15 41 14 0 11 28 -3 33 -10 3 -11 13 -1 48 13 48 7
59 -32 59 -19 0 -21 -5 -17 -64z"/>
</g>
<g id="part-2" class="char-part">
  <path d="M300 405 c0 -11 7 -15 23 -13 19 3 22 -2 25 -40 2 -24 -1 -64 -6 -89
-11 -49 -7 -73 12 -73 13 0 101 99 94 106 -3 2 -13 -5 -23 -16 -10 -11 -22
-20 -26 -20 -5 0 -9 35 -11 78 l-3 77 -42 3 c-34 3 -43 0 -43 -13z"/>
</g>
<g id="part-3" class="char-part">
  <path d="M579 584 c-5 -15 -21 -40 -35 -57 -38 -46 -20 -44 41 3 68 52 71 56
46 69 -30 17 -41 13 -52 -15z"/>
</g>
<g id="part-4" class="char-part">
  <path d="M630 498 c-19 -5 -64 -8 -98 -6 l-64 4 6 -29 c3 -16 6 -52 6 -79 0
-50 0 -50 29 -43 16 3 64 8 106 9 l78 4 33 62 c31 59 32 64 16 76 -20 16 -63
16 -112 2z m60 -31 c0 -22 -6 -24 -85 -33 -84 -9 -85 -9 -85 13 0 19 7 22 58
28 31 4 62 8 67 10 29 10 45 4 45 -18z m-10 -49 c0 -27 -18 -36 -87 -43 -70
-7 -73 -6 -73 14 0 17 6 21 38 22 29 0 106 12 120 18 1 0 2 -5 2 -11z"/>
</g>
<g id="part-5" class="char-part">
  <path d="M680 191 c0 -13 26 -32 33 -24 8 7 -11 33 -24 33 -5 0 -9 -4 -9 -9z"/>
  <path d="M604 174 c3 -8 6 -18 6 -20 0 -2 7 -4 15 -4 18 0 9 26 -12 34 -11 5
-13 2 -9 -10z"/>
  <path d="M435 170 c4 -6 11 -8 16 -5 14 9 11 15 -7 15 -8 0 -12 -5 -9 -10z"/>
  <path d="M516 165 c4 -8 12 -15 20 -15 20 0 17 7 -6 20 -16 9 -18 8 -14 -5z"/>
  <path d="M430 141 c0 -13 -2 -13 -9 -3 -12 19 -24 -14 -12 -35 7 -13 12 -10
30 15 25 36 26 39 6 39 -8 0 -15 -7 -15 -16z"/>
</g>
</g>
</svg>