<?xml version="1.0" standalone="no"?>
<!DOCTYPE svg PUBLIC "-//W3C//DTD SVG 20010904//EN"
 "http://www.w3.org/TR/2001/REC-SVG-20010904/DTD/svg10.dtd">
<svg version="1.0" xmlns="http://www.w3.org/2000/svg"
 width="96.000000pt" height="68.000000pt" viewBox="0 0 96.000000 68.000000"
 preserveAspectRatio="xMidYMid meet">
<metadata>
Created by potrace 1.16, written by Peter Selinger 2001-2019
Combined from part_0.svg through part_5.svg with named groups
</metadata>
<g transform="translate(0.000000,68.000000) scale(0.100000,-0.100000)" fill="#000000" stroke="none">
<g id="part-0" class="char-part">
  <path d="M410 626 c0 -3 10 -21 21 -41 12 -20 19 -38 17 -41 -3 -2 -40 -8 -83
-12 -48 -4 -80 -12 -83 -19 -2 -9 7 -13 26 -13 24 0 32 -6 41 -30 6 -16 16
-44 22 -60 7 -17 10 -33 7 -35 -3 -3 -59 -8 -126 -12 -67 -3 -122 -9 -122 -14
0 -20 61 -25 165 -13 61 7 203 16 317 20 120 4 205 11 202 16 -13 21 -58 26
-156 19 -56 -5 -105 -7 -108 -4 -2 2 1 12 8 21 40 55 52 79 48 93 -2 12 5 19
28 23 30 7 30 7 11 22 -15 11 -34 13 -82 8 -59 -6 -61 -5 -56 14 3 14 -2 25
-19 35 -24 15 -78 31 -78 23z m136 -155 c-13 -83 -20 -91 -79 -91 -50 0 -54 2
-52 23 3 26 -12 59 -31 70 -8 4 -14 12 -14 17 0 8 27 11 149 18 l34 2 -7 -39z"/>
  <path d="M470 294 c-36 -8 -84 -14 -107 -15 l-41 -1 9 -31 c6 -18 7 -62 4 -98
-6 -54 -4 -68 10 -79 11 -9 19 -10 23 -3 4 6 44 13 89 17 82 7 83 7 95 -18 14
-32 33 -33 52 -3 11 16 15 50 15 122 0 133 -8 139 -149 109z m98 -54 l3 -35
-43 0 c-24 0 -67 -4 -95 -9 l-53 -8 0 35 c0 33 2 35 48 45 26 6 67 9 92 9 44
-2 45 -3 48 -37z m0 -85 l-3 -36 -75 -4 c-41 -3 -84 -6 -95 -8 -16 -2 -20 4
-20 28 l0 30 85 11 c47 6 91 12 98 13 9 1 12 -10 10 -34z"/>
</g>
<g id="part-1" class="char-part">
  <path d="M420 613 c0 -5 9 -19 20 -33 31 -40 25 -50 -27 -51 -27 0 -68 -4 -93
-8 -40 -6 -42 -8 -21 -15 21 -7 192 -1 261 10 79 12 90 16 84 26 -4 7 -32 8
-79 5 l-71 -6 4 27 c3 23 -2 30 -23 40 -29 14 -55 16 -55 5z"/>
</g>
<g id="part-2" class="char-part">
  <path d="M557 513 c-2 -5 -7 -25 -11 -46 -14 -75 -24 -87 -76 -87 -47 0 -48 0
-55 38 -7 39 -39 82 -62 82 -17 0 -17 1 8 -65 12 -31 19 -58 17 -60 -2 -2 -59
-7 -126 -11 -68 -4 -125 -10 -127 -15 -11 -17 59 -29 119 -19 85 13 340 30
469 30 109 0 133 10 74 29 -22 8 -63 8 -132 2 -55 -6 -101 -8 -103 -6 -3 2 10
25 27 51 17 26 31 53 31 60 0 18 -44 32 -53 17z"/>
</g>
<g id="part-3" class="char-part">
  <path d="M475 294 c-33 -7 -81 -13 -107 -14 l-46 0 10 -37 c6 -21 8 -60 4 -88
-6 -58 1 -95 19 -95 7 0 15 4 17 9 2 4 39 11 84 15 79 7 80 7 94 -18 17 -32
35 -33 54 -3 10 15 14 52 14 125 0 132 -7 137 -143 106z m93 -50 c3 -31 3 -31
-55 -38 -32 -4 -75 -9 -95 -13 -38 -6 -38 -5 -38 30 0 35 1 36 53 45 28 6 70
9 92 9 37 -2 40 -4 43 -33z m0 -90 l-3 -36 -97 -4 c-89 -4 -98 -3 -98 13 0 38
17 43 188 62 9 1 12 -10 10 -35z"/>
</g>
</g>
</svg>