<?xml version="1.0" standalone="no"?>
<!DOCTYPE svg PUBLIC "-//W3C//DTD SVG 20010904//EN"
 "http://www.w3.org/TR/2001/REC-SVG-20010904/DTD/svg10.dtd">
<svg version="1.0" xmlns="http://www.w3.org/2000/svg"
 width="96.000000pt" height="68.000000pt" viewBox="0 0 96.000000 68.000000"
 preserveAspectRatio="xMidYMid meet">
<metadata>
Created by potrace 1.16, written by Peter Selinger 2001-2019
Combined from part_0.svg through part_5.svg with named groups
</metadata>
<g transform="translate(0.000000,68.000000) scale(0.100000,-0.100000)" fill="#000000" stroke="none">
<g id="part-0" class="char-part">
  <path d="M429 545 l3 -85 -63 0 -64 0 1 -128 c1 -70 2 -133 3 -140 1 -9 12
-10 41 -6 22 4 40 3 40 -1 0 -17 -35 -62 -69 -88 -106 -81 -99 -87 21 -15 39
24 80 48 92 55 28 16 27 36 -4 43 l-25 6 25 6 c14 3 60 7 104 8 62 1 82 -3 97
-16 12 -11 23 -14 28 -8 5 5 11 73 13 151 l3 143 -28 11 c-25 11 -72 8 -135
-8 -21 -5 -23 -2 -20 23 3 28 5 29 81 38 50 6 77 13 77 21 0 16 -42 27 -75 20
-14 -3 -37 -7 -51 -10 -24 -5 -25 -3 -22 27 3 32 2 33 -37 36 l-40 3 4 -86z
m186 -119 c0 -28 -2 -30 -50 -33 -27 -2 -83 -8 -123 -13 -40 -6 -78 -10 -83
-10 -5 0 -9 15 -9 33 0 30 3 33 33 35 17 2 55 7 82 11 28 5 73 8 100 8 48 -2
50 -3 50 -31z m5 -84 l0 -29 -132 -9 c-77 -6 -136 -6 -139 -1 -4 5 -4 17 -2
27 4 15 19 20 81 25 43 4 82 8 87 10 6 2 31 4 58 4 45 1 47 0 47 -27z m0 -81
l0 -29 -97 -6 c-54 -4 -117 -10 -141 -13 l-43 -5 3 33 3 34 95 6 c195 11 180
13 180 -20z"/>
  <path d="M608 95 c72 -69 92 -78 92 -42 0 29 -42 70 -94 91 -68 28 -67 18 2
-49z"/>
</g>
<g id="part-1" class="char-part">
  <path d="M434 614 c3 -9 6 -45 6 -80 0 -56 2 -64 19 -64 13 0 21 9 26 29 6 27
11 31 53 36 81 11 102 16 102 27 0 7 -23 9 -70 4 l-70 -6 0 29 c0 30 -14 41
-52 41 -14 0 -18 -5 -14 -16z"/>
</g>
<g id="part-2" class="char-part">
  <path d="M545 479 c-22 -4 -88 -11 -147 -15 -102 -7 -107 -8 -97 -27 6 -11 9
-58 7 -108 -1 -49 0 -89 4 -89 4 0 15 8 25 19 15 15 40 19 151 25 115 6 132 5
132 -9 0 -9 9 -15 25 -15 24 0 25 2 25 68 0 37 3 83 6 102 5 32 3 37 -20 48
-30 13 -52 14 -111 1z m71 -43 c6 -26 -2 -50 -15 -41 -5 2 -61 -2 -127 -10
-65 -8 -120 -15 -121 -15 -4 0 -4 60 0 61 12 4 190 27 219 28 32 1 39 -3 44
-23z m4 -94 l0 -29 -97 -6 c-166 -11 -173 -11 -173 17 0 23 4 25 78 31 42 4
82 8 87 10 6 2 31 4 58 4 45 1 47 0 47 -27z"/>
</g>
<g id="part-3" class="char-part">
  <path d="M620 246 c0 -19 -260 -39 -275 -22 -5 7 -18 15 -28 19 -13 5 -17 1
-17 -14 0 -33 19 -62 34 -50 6 5 72 13 145 17 122 7 135 6 147 -11 21 -29 44
-11 44 35 0 36 -2 40 -25 40 -14 0 -25 -6 -25 -14z"/>
</g>
<g id="part-4" class="char-part">
  <path d="M390 180 c0 -17 -69 -87 -118 -121 -30 -20 -38 -29 -22 -24 36 11 77
32 148 78 77 51 78 57 20 71 -17 4 -28 2 -28 -4z"/>
  <path d="M606 98 c76 -72 94 -81 94 -45 0 29 -43 70 -97 92 -65 27 -64 15 3
-47z"/>
</g>
</g>
</svg>