<?xml version="1.0" standalone="no"?>
<!DOCTYPE svg PUBLIC "-//W3C//DTD SVG 20010904//EN"
 "http://www.w3.org/TR/2001/REC-SVG-20010904/DTD/svg10.dtd">
<svg version="1.0" xmlns="http://www.w3.org/2000/svg"
 width="96.000000pt" height="68.000000pt" viewBox="0 0 96.000000 68.000000"
 preserveAspectRatio="xMidYMid meet">
<metadata>
Created by potrace 1.16, written by Peter Selinger 2001-2019
Combined from part_0.svg through part_5.svg with named groups
</metadata>
<g transform="translate(0.000000,68.000000) scale(0.100000,-0.100000)" fill="#000000" stroke="none">
<g id="part-0" class="char-part">
  <path d="M555 613 c-11 -2 -78 -9 -149 -16 -131 -12 -167 -28 -86 -37 38 -4
46 -9 54 -32 5 -15 7 -30 4 -33 -3 -3 -39 -6 -79 -7 -57 0 -70 -3 -57 -12 8
-6 24 -35 34 -64 12 -34 23 -51 32 -47 7 2 54 7 105 10 50 3 114 8 140 11 30
3 54 0 63 -7 11 -9 17 -9 29 1 15 12 79 121 73 124 -28 17 -66 25 -104 19 -46
-6 -46 -6 -42 23 3 25 8 30 41 35 45 7 57 17 37 29 -15 10 -57 11 -95 3z m-35
-72 c0 -24 -5 -29 -31 -35 -59 -12 -69 -8 -69 23 0 32 10 38 68 40 29 1 32 -2
32 -28z m115 -53 c3 -7 1 -26 -3 -43 -7 -27 -13 -30 -50 -33 -46 -3 -46 -3
-31 51 9 34 13 37 45 37 19 0 37 -6 39 -12z m-125 -38 c0 -34 -4 -41 -24 -46
-45 -11 -61 -2 -64 38 -3 38 3 43 66 47 19 1 22 -4 22 -39z m-121 -37 c1 -20
-4 -23 -33 -23 -37 0 -54 15 -58 51 -3 21 2 25 37 29 43 5 52 -4 54 -57z"/>
  <path d="M465 334 c-11 -2 -47 -6 -80 -9 -48 -6 -56 -9 -41 -17 18 -10 160 -5
227 9 71 14 -24 30 -106 17z"/>
  <path d="M680 277 c-5 -5 -422 -39 -478 -39 -34 -1 -36 -15 -3 -26 16 -6 46
-7 72 -2 24 5 71 10 104 12 l60 3 0 -65 0 -65 -33 -5 -32 -5 25 -27 c31 -33
46 -35 71 -7 14 16 20 40 23 100 l3 79 132 0 c134 0 169 7 144 27 -15 13 -81
27 -88 20z"/>
  <path d="M248 127 c-26 -28 -46 -52 -44 -55 6 -5 65 26 104 55 26 20 31 28 21
39 -18 22 -31 16 -81 -39z"/>
  <path d="M629 130 c53 -52 91 -65 91 -32 0 24 -25 47 -73 67 -67 28 -72 18
-18 -35z"/>
</g>
<g id="part-1" class="char-part">
  <path d="M589 616 c-2 -3 -72 -12 -154 -21 -83 -9 -152 -18 -154 -20 -19 -20
295 -7 352 14 l21 8 -21 12 c-23 12 -37 14 -44 7z"/>
</g>
<g id="part-2" class="char-part">
  <path d="M550 515 c-120 -18 -186 -24 -259 -25 -62 0 -63 -1 -48 -18 10 -10
24 -40 33 -65 13 -40 19 -46 37 -42 57 14 292 23 305 13 16 -14 37 7 76 74
l26 47 -29 16 c-34 17 -29 17 -141 0z m85 -25 c4 -6 1 -25 -5 -44 l-11 -33
-97 -7 c-53 -4 -121 -9 -149 -13 l-53 -6 -16 38 c-8 20 -14 38 -12 40 2 1 37
6 78 10 41 4 102 11 135 15 91 11 123 11 130 0z"/>
</g>
<g id="part-3" class="char-part">
  <path d="M465 333 c-16 -1 -54 -6 -83 -9 -32 -3 -50 -9 -46 -16 6 -9 176 -4
232 7 10 2 21 4 25 4 5 1 5 6 2 11 -6 10 -65 11 -130 3z"/>
</g>
<g id="part-4" class="char-part">
  <path d="M699 276 c-2 -3 -117 -12 -254 -21 -138 -10 -257 -19 -265 -22 -10
-4 -6 -9 15 -18 24 -10 47 -10 115 1 47 7 166 13 266 14 181 2 218 7 192 27
-15 12 -63 25 -69 19z"/>
</g>
<g id="part-5" class="char-part">
  <path d="M445 200 c-3 -10 -5 -37 -4 -59 3 -47 1 -50 -34 -53 -14 -1 -23 -6
-21 -10 3 -5 10 -5 16 -2 7 5 8 2 4 -5 -11 -18 25 -43 41 -29 7 6 10 14 7 19
-3 5 0 8 7 7 18 -4 18 26 -1 34 -12 5 -12 7 3 7 13 1 17 10 17 40 0 22 2 46 5
53 4 9 -2 14 -14 15 -12 1 -23 -6 -26 -17z"/>
  <path d="M600 173 c0 -13 53 -54 65 -49 7 2 16 -1 19 -9 3 -10 0 -12 -12 -8
-13 4 -13 2 3 -10 25 -19 48 -12 35 12 -5 10 -15 22 -22 27 -21 16 -88 44 -88
37z"/>
  <path d="M275 140 c-11 -16 -25 -30 -31 -30 -7 0 -14 -7 -18 -15 -5 -13 -1
-13 27 1 41 21 78 55 71 65 -10 17 -29 9 -49 -21z"/>
</g>
</g>
</svg>