<?xml version="1.0" standalone="no"?>
<!DOCTYPE svg PUBLIC "-//W3C//DTD SVG 20010904//EN"
 "http://www.w3.org/TR/2001/REC-SVG-20010904/DTD/svg10.dtd">
<svg version="1.0" xmlns="http://www.w3.org/2000/svg"
 width="96.000000pt" height="68.000000pt" viewBox="0 0 96.000000 68.000000"
 preserveAspectRatio="xMidYMid meet">
<metadata>
Created by potrace 1.16, written by Peter Selinger 2001-2019
Combined from part_0.svg through part_5.svg with named groups
</metadata>
<g transform="translate(0.000000,68.000000) scale(0.100000,-0.100000)" fill="#000000" stroke="none">
<g id="part-0" class="char-part">
  <path d="M390 633 c0 -3 11 -21 24 -38 l25 -32 -86 -7 c-72 -5 -89 -4 -104 10
-17 15 -20 13 -48 -33 -35 -55 -38 -78 -14 -88 20 -7 63 35 63 61 0 10 12 14
43 14 24 0 79 3 121 7 l78 6 -4 -29 c-3 -27 -6 -29 -50 -32 -38 -2 -48 0 -48
12 0 9 -6 16 -14 16 -8 0 -22 3 -32 7 -14 5 -16 2 -10 -20 6 -24 3 -27 -19
-27 -34 0 -32 -18 2 -22 41 -5 43 -36 3 -44 -35 -8 -31 -19 8 -19 18 0 28 -6
30 -18 4 -22 -4 -24 -112 -32 -69 -6 -85 -9 -72 -17 11 -6 47 -8 82 -5 35 2
64 1 64 -3 0 -14 -82 -76 -150 -114 -80 -44 -51 -48 38 -6 74 35 158 97 167
123 10 26 146 25 177 -2 162 -138 166 -141 221 -141 29 0 59 4 67 10 16 10 20
8 -55 31 -54 16 -135 59 -194 102 -23 17 -22 17 58 17 62 0 81 3 81 14 0 20
-33 25 -127 19 l-83 -6 8 24 c5 13 14 25 21 25 6 1 20 2 31 3 32 2 23 21 -10
21 -23 0 -30 5 -30 19 0 14 10 20 43 26 l42 8 -37 10 c-21 6 -38 16 -38 23 0
7 -12 16 -27 22 -23 7 -15 10 52 15 44 3 81 4 84 2 2 -3 -4 -16 -13 -30 -16
-24 -16 -25 3 -25 41 0 121 22 121 33 -1 42 -63 67 -140 56 -93 -13 -150 -11
-144 5 7 18 -42 56 -72 56 -13 0 -24 -3 -24 -7z m100 -202 c0 -16 -9 -20 -50
-23 -40 -2 -50 0 -50 13 0 24 10 29 57 29 36 0 43 -3 43 -19z m-2 -68 c-4 -23
-98 -33 -98 -10 0 22 11 27 57 27 37 0 44 -3 41 -17z"/>
  <path d="M429 293 c-1 -5 0 -20 1 -34 1 -26 -2 -27 -59 -34 -76 -9 -90 -25
-22 -25 28 0 51 -4 51 -8 0 -11 -77 -83 -118 -112 -18 -12 -31 -24 -28 -27 8
-9 119 59 149 91 l28 30 -2 -72 c-2 -46 1 -76 9 -84 19 -19 26 -2 32 77 l5 74
54 -49 c49 -46 57 -50 102 -50 27 0 49 3 49 8 0 4 -24 16 -52 26 -70 25 -157
83 -158 106 0 3 30 5 66 5 36 0 68 3 70 7 9 14 -23 22 -78 20 -51 -3 -57 -1
-51 14 4 11 -1 22 -12 30 -21 16 -34 18 -36 7z"/>
</g>
<g id="part-1" class="char-part">
  <path d="M400 634 c0 -13 35 -64 45 -65 5 -1 -3 -5 -20 -9 -49 -12 -170 -11
-183 2 -14 14 -11 16 -46 -45 -15 -26 -24 -52 -21 -57 13 -21 42 -9 60 24 21
38 3 34 277 57 81 7 151 10 154 6 4 -4 -1 -16 -11 -27 -10 -11 -16 -22 -14
-24 8 -8 123 20 126 31 2 6 -12 21 -31 32 -37 23 -35 23 -212 5 -49 -5 -51 -4
-47 18 3 17 -3 27 -25 41 -30 17 -52 22 -52 11z"/>
</g>
<g id="part-2" class="char-part">
  <path d="M488 503 c-3 -26 -7 -28 -50 -31 -38 -2 -48 0 -48 12 0 9 -6 16 -14
16 -8 0 -22 3 -32 7 -14 5 -16 2 -10 -20 6 -25 4 -27 -24 -27 -40 0 -38 -18 2
-22 45 -4 50 -34 8 -43 -22 -5 -29 -10 -22 -17 10 -10 184 2 280 19 43 7 41
23 -3 23 -28 0 -35 4 -35 20 0 15 7 20 28 20 37 0 60 15 37 24 -9 3 -26 6 -36
6 -11 0 -18 4 -14 9 6 11 -25 31 -49 31 -9 0 -16 -11 -18 -27z m2 -73 c0 -15
-7 -20 -27 -20 -16 0 -38 -3 -50 -6 -18 -5 -23 -2 -23 14 0 22 16 29 68 31 26
1 32 -3 32 -19z"/>
</g>
<g id="part-3" class="char-part">
  <path d="M624 240 c93 -78 96 -80 148 -80 86 0 90 14 12 40 -38 13 -104 45
-146 72 -43 26 -85 48 -94 48 -8 0 27 -36 80 -80z"/>
  <path d="M320 300 c0 -12 -92 -82 -161 -121 -48 -27 -50 -30 -21 -25 48 8 133
53 189 98 59 49 63 58 24 58 -17 0 -31 -4 -31 -10z"/>
</g>
<g id="part-4" class="char-part">
  <path d="M429 292 c-1 -4 0 -18 1 -31 2 -31 -15 -41 -72 -41 -28 0 -48 -5 -48
-11 0 -7 18 -10 49 -7 41 2 48 1 41 -12 -12 -21 -67 -72 -120 -110 -32 -23
-38 -30 -20 -25 41 12 107 53 140 88 l31 32 -1 -70 c-3 -93 -2 -95 15 -95 20
0 28 39 23 105 -3 30 -2 55 1 55 4 0 31 -22 61 -50 49 -44 60 -50 102 -50 26
0 50 4 53 10 3 5 0 10 -9 10 -42 0 -209 95 -203 115 2 5 14 10 28 10 134 6
126 5 99 19 -16 9 -42 12 -76 9 -48 -5 -51 -4 -50 17 1 15 -7 25 -21 31 -13 5
-23 5 -24 1z"/>
</g>
</g>
</svg>