<?xml version="1.0" standalone="no"?>
<!DOCTYPE svg PUBLIC "-//W3C//DTD SVG 20010904//EN"
 "http://www.w3.org/TR/2001/REC-SVG-20010904/DTD/svg10.dtd">
<svg version="1.0" xmlns="http://www.w3.org/2000/svg"
 width="96.000000pt" height="68.000000pt" viewBox="0 0 96.000000 68.000000"
 preserveAspectRatio="xMidYMid meet">
<metadata>
Created by potrace 1.16, written by Peter Selinger 2001-2019
Combined from part_0.svg through part_5.svg with named groups
</metadata>
<g transform="translate(0.000000,68.000000) scale(0.100000,-0.100000)" fill="#000000" stroke="none">
<g id="part-0" class="char-part">
  <path d="M520 602 c0 -10 -18 -44 -41 -75 -46 -65 -33 -77 27 -25 28 24 46 32
78 33 124 3 136 5 136 21 0 14 -11 16 -70 12 -63 -3 -69 -2 -65 14 4 10 -1 21
-14 27 -30 16 -51 13 -51 -7z"/>
  <path d="M276 560 c-10 -22 -33 -57 -52 -77 -19 -20 -32 -39 -29 -42 8 -8 70
28 96 55 19 20 32 24 83 24 67 0 104 14 73 26 -10 3 -38 4 -62 1 -42 -4 -60 5
-32 17 8 3 6 9 -7 20 -32 26 -51 19 -70 -24z"/>
  <path d="M569 486 c32 -34 74 -36 69 -3 -2 18 -10 23 -48 25 l-45 3 24 -25z"/>
  <path d="M320 480 c11 -20 40 -40 59 -40 23 0 11 41 -15 50 -42 16 -56 13 -44
-10z"/>
  <path d="M436 428 c8 -16 13 -32 10 -35 -3 -3 -60 -7 -126 -9 l-121 -3 -25
-36 c-28 -42 -30 -63 -7 -72 17 -7 63 37 63 61 0 12 187 38 389 53 l83 6 -17
-32 c-9 -18 -15 -35 -13 -37 2 -2 20 1 39 6 18 5 46 12 62 15 37 7 34 20 -13
51 -36 24 -46 26 -98 20 -144 -17 -175 -19 -169 -10 9 16 -7 34 -41 43 l-32
10 16 -31z"/>
  <path d="M518 335 c-2 -3 -46 -7 -97 -10 l-92 -4 -1 -144 c-1 -79 2 -149 6
-155 10 -16 26 -15 26 2 0 16 62 26 163 26 57 0 67 2 58 13 -8 11 -4 22 20 48
l30 34 -23 18 c-17 14 -33 18 -63 14 -22 -3 -71 -9 -108 -13 l-69 -7 4 28 c2
22 9 29 28 31 14 1 55 5 93 9 54 5 67 10 67 24 0 9 7 27 17 40 15 23 15 25 -2
37 -19 14 -47 18 -57 9z m2 -49 c0 -34 -1 -35 -47 -41 -97 -13 -98 -13 -101
22 -3 34 1 37 98 46 19 2 38 5 43 5 4 1 7 -13 7 -32z m23 -143 c2 -5 0 -22 -4
-39 -9 -31 -10 -31 -86 -37 -43 -2 -81 -3 -84 -1 -3 1 -3 19 -1 38 4 32 7 35
41 39 69 7 130 7 134 0z"/>
</g>
<g id="part-1" class="char-part">
  <path d="M526 612 c-2 -4 -6 -19 -10 -34 -3 -15 -20 -43 -37 -63 -38 -43 -20
-46 31 -5 34 27 45 30 111 30 41 0 81 4 88 9 26 16 -35 25 -92 13 -53 -10 -72
-7 -48 8 8 4 11 15 8 23 -6 15 -45 30 -51 19z"/>
  <path d="M282 562 c-6 -21 -27 -53 -47 -72 -19 -19 -35 -38 -35 -42 0 -13 52
17 79 46 15 16 35 26 51 26 53 0 119 13 114 22 -3 5 -30 6 -62 2 -53 -6 -56
-6 -42 11 13 15 12 19 -5 31 -30 22 -41 17 -53 -24z"/>
  <path d="M575 485 c34 -28 65 -33 65 -10 0 19 -31 35 -67 35 l-28 -1 30 -24z"/>
  <path d="M344 464 c20 -17 32 -22 39 -15 15 15 -11 41 -42 41 l-26 -1 29 -25z"/>
</g>
<g id="part-2" class="char-part">
  <path d="M430 446 c0 -6 7 -21 15 -32 14 -21 13 -21 -62 -28 -115 -9 -161 -8
-166 7 -5 14 -5 14 -40 -40 -31 -49 -34 -71 -10 -80 17 -7 63 37 63 61 0 9 58
19 208 34 114 12 220 22 235 22 l29 0 -21 -36 c-19 -32 -19 -35 -4 -30 10 3
40 10 66 15 26 5 51 12 55 16 4 4 -9 20 -28 37 -38 32 -24 32 -210 12 -52 -6
-56 -5 -67 18 -12 26 -63 45 -63 24z"/>
</g>
<g id="part-3" class="char-part">
  <path d="M460 328 c-30 -5 -75 -7 -99 -4 -41 6 -43 5 -37 -17 3 -12 6 -39 6
-60 l0 -39 60 6 c33 3 87 9 121 12 42 4 58 9 50 17 -7 7 -4 19 11 40 21 29 21
30 3 43 -21 16 -36 16 -115 2z m55 -42 c0 -33 -19 -42 -98 -48 -41 -3 -42 -2
-45 29 -3 30 -1 32 35 38 21 4 45 8 53 10 39 8 55 0 55 -29z"/>
</g>
<g id="part-4" class="char-part">
  <path d="M440 165 c-58 -7 -105 -14 -106 -14 -6 -5 -12 -103 -7 -120 6 -23 33
-29 33 -7 0 20 13 22 125 25 102 3 119 6 97 20 -8 5 -3 17 18 43 24 29 27 38
16 47 -22 18 -66 20 -176 6z m100 -42 c0 -16 -4 -33 -8 -39 -8 -13 -156 -23
-159 -11 -2 4 -3 20 -3 36 0 33 10 36 118 39 51 2 52 1 52 -25z"/>
</g>
</g>
</svg>