<?xml version="1.0" standalone="no"?>
<!DOCTYPE svg PUBLIC "-//W3C//DTD SVG 20010904//EN"
 "http://www.w3.org/TR/2001/REC-SVG-20010904/DTD/svg10.dtd">
<svg version="1.0" xmlns="http://www.w3.org/2000/svg"
 width="96.000000pt" height="68.000000pt" viewBox="0 0 96.000000 68.000000"
 preserveAspectRatio="xMidYMid meet">
<metadata>
Created by potrace 1.16, written by Peter Selinger 2001-2019
Combined from part_0.svg through part_5.svg with named groups
</metadata>
<g transform="translate(0.000000,68.000000) scale(0.100000,-0.100000)" fill="#000000" stroke="none">
<g id="part-0" class="char-part">
  <path d="M276 588 c4 -18 8 -55 8 -83 1 -42 -2 -50 -19 -52 -11 -2 -44 -8 -74
-14 -74 -15 -52 -33 34 -27 l66 4 -3 -35 c-3 -32 -8 -39 -53 -60 -27 -13 -72
-32 -100 -42 -27 -9 -51 -21 -52 -26 -2 -5 12 -18 31 -28 l34 -19 64 42 c36
23 66 42 69 42 5 0 0 -96 -7 -129 -5 -21 -8 -23 -47 -17 l-42 7 39 -40 c84
-86 106 -66 106 98 l0 116 35 24 c54 37 44 51 -17 26 -15 -6 -18 -2 -18 19 0
22 6 27 45 37 69 17 59 46 -14 40 -26 -2 -26 1 -6 95 6 29 4 32 -26 43 -54 19
-63 15 -53 -21z"/>
  <path d="M688 533 c-9 -2 -60 -10 -112 -16 -100 -13 -125 -31 -46 -33 25 -1
50 -2 56 -3 6 -1 12 -26 13 -60 l2 -59 -54 -7 c-30 -4 -70 -7 -90 -8 -22 -1
-36 -5 -34 -11 3 -7 38 -11 91 -10 82 1 87 0 85 -20 0 -12 -1 -76 0 -143 1
-99 4 -123 15 -123 19 0 24 29 32 178 l7 122 66 1 c36 0 84 3 105 7 35 6 37 8
22 21 -13 11 -37 12 -107 7 l-90 -7 3 61 c3 64 1 62 68 75 46 10 55 16 39 26
-15 9 -42 10 -71 2z"/>
</g>
<g id="part-1" class="char-part">
  <path d="M278 614 c-4 -3 -2 -20 3 -37 5 -18 9 -53 9 -78 l0 -46 -70 -12 c-90
-16 -84 -36 7 -27 l64 7 -3 -43 -3 -42 -95 -40 c-52 -22 -97 -41 -100 -43 -8
-8 33 -33 52 -33 11 0 46 18 79 41 33 22 63 38 66 35 9 -9 -12 -161 -22 -160
-6 1 -24 4 -42 7 -31 6 -31 6 19 -41 l50 -47 19 24 c16 20 19 40 19 140 l0
116 35 19 c19 11 35 23 35 28 0 11 -7 10 -40 -7 l-30 -16 0 35 c0 32 2 35 41
41 46 8 48 29 3 31 -16 1 -32 2 -35 3 -7 1 5 74 16 104 6 13 -1 21 -29 32 -40
17 -41 17 -48 9z"/>
</g>
<g id="part-2" class="char-part">
  <path d="M699 536 c-2 -3 -45 -10 -94 -16 -50 -6 -101 -13 -115 -16 -23 -5
-23 -6 -6 -16 29 -16 286 13 286 33 0 14 -59 26 -71 15z"/>
</g>
<g id="part-3" class="char-part">
  <path d="M599 483 c-1 -4 0 -33 1 -65 l2 -56 -69 -7 c-37 -3 -81 -9 -97 -12
-26 -5 -27 -6 -11 -16 11 -6 50 -7 97 -4 l78 6 0 -144 c0 -117 3 -145 14 -145
17 0 23 33 32 183 l6 117 67 1 c36 0 84 3 105 7 35 6 37 8 22 21 -13 11 -37
13 -107 8 l-91 -7 4 58 c3 56 2 57 -24 60 -16 2 -29 0 -29 -5z"/>
</g>
</g>
</svg>