<?xml version="1.0" standalone="no"?>
<!DOCTYPE svg PUBLIC "-//W3C//DTD SVG 20010904//EN"
 "http://www.w3.org/TR/2001/REC-SVG-20010904/DTD/svg10.dtd">
<svg version="1.0" xmlns="http://www.w3.org/2000/svg"
 width="96.000000pt" height="68.000000pt" viewBox="0 0 96.000000 68.000000"
 preserveAspectRatio="xMidYMid meet">
<metadata>
Created by potrace 1.16, written by Peter Selinger 2001-2019
Combined from part_0.svg through part_5.svg with named groups
</metadata>
<g transform="translate(0.000000,68.000000) scale(0.100000,-0.100000)" fill="#000000" stroke="none">
<g id="part-0" class="char-part">
  <path d="M470 590 c6 -11 10 -46 8 -78 l-3 -57 -42 -6 c-48 -6 -50 -3 -27 29
12 18 13 26 4 37 -23 27 -47 18 -54 -20 -4 -20 -16 -57 -27 -82 -11 -25 -18
-48 -15 -50 2 -2 15 10 29 27 23 27 32 30 81 30 l56 0 0 -35 c0 -44 -14 -51
-112 -60 -109 -10 -104 -32 5 -26 30 2 37 -1 37 -16 0 -45 -100 -167 -165
-200 -17 -9 -25 -18 -17 -21 19 -6 92 35 135 76 56 54 100 127 92 152 -6 18
-2 20 29 20 22 0 36 -5 37 -12 0 -7 0 -48 -1 -90 -2 -122 26 -148 161 -148 82
0 145 17 154 43 3 7 -4 35 -17 63 -16 36 -23 44 -26 29 -13 -77 -52 -101 -150
-93 -74 6 -86 22 -77 108 3 36 10 69 15 74 5 5 6 14 4 21 -6 15 38 25 107 25
54 0 64 15 22 31 -19 7 -46 7 -89 0 -101 -18 -104 -17 -104 29 0 38 2 39 38
45 78 13 103 20 100 30 -2 6 -31 9 -70 7 l-66 -3 5 62 c6 66 -1 79 -45 79 -20
0 -21 -3 -12 -20z"/>
  <path d="M130 473 c0 -19 78 -85 96 -81 26 5 29 40 5 62 -21 19 -101 35 -101
19z"/>
  <path d="M210 278 c-19 -28 -50 -62 -67 -76 -20 -14 -33 -33 -33 -46 0 -22 17
-46 32 -46 9 0 113 208 107 215 -3 2 -20 -19 -39 -47z"/>
</g>
<g id="part-1" class="char-part">
  <path d="M140 473 c1 -24 81 -89 93 -76 19 18 5 51 -27 67 -36 17 -66 21 -66
9z"/>
</g>
<g id="part-2" class="char-part">
  <path d="M217 293 c-30 -45 -85 -103 -96 -103 -5 0 -12 -7 -15 -16 -7 -19 21
-77 35 -69 5 4 34 56 64 116 55 109 61 143 12 72z"/>
</g>
<g id="part-3" class="char-part">
  <path d="M356 495 c-4 -19 -16 -55 -27 -80 -35 -78 -12 -69 50 19 45 65 49 81
25 90 -31 12 -42 5 -48 -29z"/>
</g>
<g id="part-4" class="char-part">
  <path d="M469 597 c7 -10 11 -39 9 -79 -3 -59 -5 -63 -28 -66 -83 -9 -97 -32
-20 -32 l50 0 0 -39 c0 -44 14 -39 -145 -60 -55 -7 -58 -9 -34 -19 19 -8 53
-7 130 3 57 8 150 17 207 21 64 4 101 11 99 17 -6 19 -58 26 -110 16 -27 -5
-63 -9 -78 -9 -27 0 -29 3 -29 40 0 37 2 39 38 46 88 15 103 20 100 29 -2 6
-31 9 -68 7 l-65 -3 0 68 0 68 -34 3 c-30 3 -33 1 -22 -11z"/>
</g>
<g id="part-5" class="char-part">
  <path d="M534 302 c3 -4 1 -25 -3 -45 -6 -24 -5 -38 3 -41 7 -3 7 -5 -1 -5
-19 -1 -16 -28 2 -28 16 0 22 17 29 85 4 37 2 42 -15 42 -11 0 -18 -4 -15 -8z"/>
  <path d="M530 160 c0 -6 6 -26 14 -45 11 -26 23 -36 53 -44 78 -22 186 -10
224 25 17 15 17 19 3 45 -17 34 -34 38 -34 9 0 -11 -5 -20 -11 -20 -6 0 -9 -7
-5 -15 6 -16 0 -17 -116 -17 -38 0 -74 5 -81 11 -8 6 -16 9 -19 6 -3 -3 -4 8
-3 25 1 19 -3 30 -12 30 -7 0 -13 -5 -13 -10z"/>
</g>
</g>
</svg>