<?xml version="1.0" standalone="no"?>
<!DOCTYPE svg PUBLIC "-//W3C//DTD SVG 20010904//EN"
 "http://www.w3.org/TR/2001/REC-SVG-20010904/DTD/svg10.dtd">
<svg version="1.0" xmlns="http://www.w3.org/2000/svg"
 width="96.000000pt" height="68.000000pt" viewBox="0 0 96.000000 68.000000"
 preserveAspectRatio="xMidYMid meet">
<metadata>
Created by potrace 1.16, written by Peter Selinger 2001-2019
Combined from part_0.svg through part_5.svg with named groups
</metadata>
<g transform="translate(0.000000,68.000000) scale(0.100000,-0.100000)" fill="#000000" stroke="none">
<g id="part-0" class="char-part">
  <path d="M525 517 c-77 -11 -142 -21 -144 -23 -2 -2 2 -11 9 -19 28 -34 -3
-267 -50 -371 -22 -51 -2 -51 27 -1 41 71 66 168 79 304 4 46 11 74 20 77 7 3
62 10 121 16 137 15 155 18 148 30 -8 13 -46 11 -210 -13z"/>
  <path d="M215 490 c-11 -5 -38 -9 -60 -9 l-40 -1 0 -180 c0 -127 4 -182 12
-191 10 -10 14 -9 19 4 5 13 19 17 59 17 45 0 55 -3 60 -20 8 -24 28 -26 45
-5 18 22 27 359 10 380 -14 16 -72 19 -105 5z m55 -71 c0 -36 -2 -39 -27 -39
-16 0 -38 -3 -51 -6 -22 -6 -23 -4 -20 37 3 42 5 44 38 49 51 9 60 3 60 -41z
m0 -104 c0 -27 -4 -35 -17 -35 -10 0 -34 -3 -54 -6 l-35 -6 4 35 c4 33 7 36
41 40 20 2 42 4 49 5 7 1 12 -11 12 -33z m4 -106 c4 -23 4 -44 1 -48 -4 -3
-33 -7 -66 -8 -56 -3 -59 -2 -55 20 3 12 5 32 5 44 1 18 8 22 44 26 23 2 47 4
53 5 6 1 14 -17 18 -39z"/>
  <path d="M559 472 c-1 -4 0 -24 1 -44 2 -38 2 -38 -39 -38 -54 0 -53 -18 2
-22 40 -3 42 -4 45 -38 3 -32 0 -36 -20 -36 -69 0 -99 -5 -93 -14 3 -5 28 -10
56 -10 l49 0 0 -34 c0 -35 -15 -46 -67 -46 -44 0 -23 -19 25 -22 45 -3 47 -5
50 -34 l3 -32 -85 -7 c-48 -4 -86 -10 -86 -15 0 -15 50 -20 117 -10 37 5 123
10 190 10 122 0 159 11 108 30 -16 6 -65 8 -122 4 l-94 -7 3 34 c3 33 5 34 61
43 74 12 76 31 2 23 l-55 -6 0 35 c0 25 -4 34 -17 35 -43 1 25 18 82 19 33 1
71 5 85 10 l25 7 -28 12 c-19 7 -41 8 -70 1 -70 -16 -77 -14 -77 24 0 32 2 34
45 40 59 9 59 29 0 24 -42 -3 -44 -2 -47 26 -2 19 -10 32 -25 37 -13 5 -23 5
-24 1z"/>
</g>
<g id="part-1" class="char-part">
  <path d="M230 490 c-14 -4 -47 -8 -73 -9 l-49 -1 9 -32 c4 -18 7 -84 5 -145
-3 -109 -3 -113 17 -113 16 0 21 6 21 25 0 14 6 25 14 25 7 0 34 3 60 6 45 7
46 6 46 -20 0 -19 5 -26 19 -26 19 0 20 9 23 138 2 75 1 140 -2 144 -9 12 -63
17 -90 8z m46 -44 c12 -48 2 -68 -36 -72 -19 -2 -44 -4 -55 -6 -17 -3 -21 3
-23 37 -4 48 15 65 70 65 31 0 39 -4 44 -24z m4 -137 c0 -38 -1 -39 -37 -39
-21 0 -48 -3 -60 -6 -21 -6 -23 -3 -23 33 l0 40 53 10 c28 5 55 7 60 5 4 -2 7
-21 7 -43z"/>
</g>
<g id="part-2" class="char-part">
  <path d="M275 178 c-5 -20 -13 -23 -67 -25 -55 -2 -60 -1 -55 17 4 16 0 20
-19 20 -20 0 -24 -5 -24 -33 0 -31 14 -57 32 -57 4 0 8 7 8 15 0 11 13 15 53
15 48 0 55 -3 66 -26 11 -26 12 -26 31 -9 14 13 20 31 20 62 0 36 -3 43 -20
43 -12 0 -22 -9 -25 -22z"/>
</g>
<g id="part-3" class="char-part">
  <path d="M615 530 c-27 -4 -92 -13 -142 -20 -51 -7 -93 -17 -93 -21 0 -5 5 -9
10 -9 14 0 12 -121 -4 -210 -12 -65 -26 -112 -60 -205 -5 -12 4 -6 23 15 48
56 82 167 97 318 5 52 11 75 23 82 22 11 159 30 221 30 49 0 73 13 44 24 -19
7 -53 6 -119 -4z"/>
</g>
<g id="part-4" class="char-part">
  <path d="M556 473 c-2 -2 -2 -22 1 -44 5 -36 4 -39 -18 -39 -13 0 -35 -4 -49
-8 -21 -6 -16 -8 25 -12 47 -5 50 -7 53 -36 3 -28 0 -32 -29 -38 -17 -3 -44
-6 -60 -6 -16 0 -29 -5 -29 -11 0 -8 19 -10 63 -5 34 4 107 11 162 16 55 5
102 9 105 10 2 0 0 4 -6 10 -13 13 -48 15 -110 6 -49 -7 -52 -7 -56 18 -7 36
1 43 54 51 60 9 52 29 -8 22 -44 -5 -44 -5 -44 28 0 27 -4 34 -25 37 -13 3
-26 3 -29 1z"/>
</g>
<g id="part-5" class="char-part">
  <path d="M566 254 c-4 -12 -2 -15 9 -10 9 3 15 0 15 -9 0 -8 -4 -15 -10 -15
-5 0 -10 -7 -10 -15 0 -10 -11 -15 -32 -16 l-33 -2 35 -6 c32 -6 35 -8 33 -40
-1 -19 -6 -38 -12 -44 -5 -5 -45 -9 -88 -9 -58 0 -72 -2 -54 -9 13 -5 47 -7
75 -4 129 13 177 17 254 17 83 0 95 4 51 14 -29 7 -40 7 -108 -1 -78 -9 -99
-2 -95 32 12 82 12 118 1 125 -18 11 -24 10 -31 -8z"/>
  <path d="M655 200 l-20 -9 20 0 c11 0 27 4 35 9 13 9 13 10 0 9 -8 0 -24 -4
-35 -9z"/>
  <path d="M615 190 c3 -5 8 -10 11 -10 2 0 4 5 4 10 0 6 -5 10 -11 10 -5 0 -7
-4 -4 -10z"/>
</g>
</g>
</svg>