<?xml version="1.0" standalone="no"?>
<!DOCTYPE svg PUBLIC "-//W3C//DTD SVG 20010904//EN"
 "http://www.w3.org/TR/2001/REC-SVG-20010904/DTD/svg10.dtd">
<svg version="1.0" xmlns="http://www.w3.org/2000/svg"
 width="96.000000pt" height="68.000000pt" viewBox="0 0 96.000000 68.000000"
 preserveAspectRatio="xMidYMid meet">
<metadata>
Created by potrace 1.16, written by Peter Selinger 2001-2019
Combined from part_0.svg through part_5.svg with named groups
</metadata>
<g transform="translate(0.000000,68.000000) scale(0.100000,-0.100000)" fill="#000000" stroke="none">
<g id="part-0" class="char-part">
  <path d="M550 586 c0 -14 -65 -101 -108 -145 -22 -21 -22 -25 -8 -39 14 -15
25 -14 113 6 116 26 159 28 167 7 8 -22 46 -19 46 3 0 28 -70 82 -107 82 -14
0 -13 -4 6 -24 l23 -24 -69 -7 c-37 -3 -78 -8 -90 -11 -38 -8 -33 10 24 70 34
36 52 64 49 73 -3 8 -6 17 -6 19 0 2 -9 4 -20 4 -11 0 -20 -6 -20 -14z"/>
  <path d="M295 571 c-11 -5 -44 -12 -72 -16 -80 -11 -65 -27 22 -23 73 3 75 2
75 -20 0 -47 -16 -60 -84 -67 l-64 -7 5 -33 c4 -22 -1 -43 -13 -64 -25 -43 -9
-59 43 -43 21 7 54 13 73 15 l35 2 -2 -45 c-3 -59 -20 -119 -42 -149 -17 -23
-19 -23 -50 -6 -50 25 -53 14 -12 -34 l38 -44 30 18 c40 24 57 55 77 145 26
115 54 132 81 51 l16 -50 50 6 49 6 0 -50 0 -50 -46 -7 c-26 -3 -63 -6 -82 -6
-35 0 -35 0 -16 -21 16 -18 26 -20 73 -14 31 4 82 15 116 25 109 32 118 32
140 -1 23 -33 48 -34 53 -2 4 24 -33 65 -78 88 -31 16 -40 9 -18 -13 16 -16
-4 -32 -39 -32 -12 0 -28 -3 -37 -6 -13 -5 -16 2 -16 45 l0 51 60 0 c39 0 60
4 60 12 0 6 12 27 26 45 36 47 22 58 -69 58 l-71 0 -1 30 c0 26 -4 30 -32 33
-31 3 -31 3 -26 -36 l5 -39 -47 -6 c-78 -11 -104 -8 -135 14 -25 19 -37 21
-90 15 l-61 -7 15 29 c8 16 13 32 10 35 -3 3 22 8 55 12 47 5 59 10 59 23 -1
10 9 39 22 65 15 31 19 52 13 58 -14 14 -74 20 -98 10z m392 -268 c3 -7 2 -24
-1 -38 -5 -21 -12 -25 -46 -25 -37 0 -40 2 -40 28 0 15 5 33 12 40 15 15 69
12 75 -5z m-137 -38 c0 -34 -1 -35 -39 -35 -34 0 -40 4 -49 29 -12 34 -6 39
51 40 36 1 37 0 37 -34z"/>
</g>
<g id="part-1" class="char-part">
  <path d="M280 560 c-14 -4 -44 -8 -68 -9 -29 -1 -41 -5 -36 -12 5 -8 29 -10
75 -5 77 7 86 1 69 -49 -12 -35 -14 -36 -107 -50 -37 -6 -41 -9 -32 -24 8 -12
7 -27 -5 -55 -23 -55 -21 -59 22 -52 20 3 56 9 80 12 l42 7 0 -39 c0 -54 -29
-150 -51 -170 -18 -16 -22 -17 -55 -1 -37 18 -37 16 -2 -35 45 -65 104 -14
137 117 12 50 26 97 31 105 6 10 1 19 -20 31 -22 14 -41 16 -86 12 -54 -6 -57
-5 -50 13 5 10 9 26 10 34 2 21 23 28 80 29 38 1 47 4 42 16 -5 14 13 64 37
98 10 14 9 19 -3 27 -18 11 -75 11 -110 0z"/>
</g>
<g id="part-2" class="char-part">
  <path d="M546 578 c-7 -18 -39 -61 -70 -95 -37 -40 -54 -67 -50 -77 8 -21 18
-20 152 8 112 24 114 24 130 5 21 -25 52 -25 52 -1 0 22 -22 43 -67 66 -46 23
-60 20 -33 -9 22 -23 22 -25 4 -25 -10 -1 -50 -5 -89 -10 -38 -5 -73 -5 -77
-1 -5 4 17 31 47 61 58 58 67 83 35 100 -17 9 -21 6 -34 -22z"/>
</g>
<g id="part-3" class="char-part">
  <path d="M547 362 l5 -39 -47 -6 c-26 -4 -62 -7 -79 -7 -20 0 -26 -3 -18 -9 7
-4 19 -28 26 -52 l13 -44 52 3 51 4 0 -46 c0 -42 2 -46 24 -46 23 0 25 5 28
48 l3 47 63 3 c38 2 60 7 56 13 -3 5 6 26 21 45 37 48 24 59 -66 58 l-69 -2 0
28 c0 28 -15 40 -50 40 -15 0 -17 -6 -13 -38z m138 -52 c4 -6 4 -24 0 -40 -6
-27 -10 -30 -46 -30 -35 0 -39 3 -39 24 0 43 10 56 45 56 19 0 37 -5 40 -10z
m-135 -45 c0 -34 -1 -35 -40 -35 -34 0 -41 4 -46 24 -9 36 2 46 47 46 38 0 39
-1 39 -35z"/>
</g>
<g id="part-4" class="char-part">
  <path d="M701 142 c41 -66 66 -89 81 -74 25 25 -30 93 -95 118 -14 5 -11 -5
14 -44z"/>
</g>
</g>
</svg>