<?xml version="1.0" standalone="no"?>
<!DOCTYPE svg PUBLIC "-//W3C//DTD SVG 20010904//EN"
 "http://www.w3.org/TR/2001/REC-SVG-20010904/DTD/svg10.dtd">
<svg version="1.0" xmlns="http://www.w3.org/2000/svg"
 width="96.000000pt" height="68.000000pt" viewBox="0 0 96.000000 68.000000"
 preserveAspectRatio="xMidYMid meet">
<metadata>
Created by potrace 1.16, written by Peter Selinger 2001-2019
Combined from part_0.svg through part_5.svg with named groups
</metadata>
<g transform="translate(0.000000,68.000000) scale(0.100000,-0.100000)" fill="#000000" stroke="none">
<g id="part-0" class="char-part">
  <path d="M542 569 c-31 -39 -79 -63 -119 -60 -31 2 -32 0 -23 -24 29 -77 -23
-297 -87 -367 -26 -28 -9 -31 23 -4 16 13 40 45 53 71 13 25 33 50 46 55 13 5
26 14 30 20 24 39 34 -59 14 -150 -12 -56 -5 -104 14 -97 7 2 13 16 15 30 3
25 7 27 50 27 72 1 245 11 260 16 7 2 10 9 7 15 -4 6 -38 9 -83 8 -65 -2 -78
0 -80 14 -4 19 34 37 79 37 16 0 29 5 29 11 0 7 -19 10 -52 7 -47 -3 -53 -1
-53 17 0 15 8 21 30 23 17 2 37 5 45 9 23 8 -19 22 -47 16 -18 -4 -23 -1 -23
15 0 21 24 32 72 32 15 0 29 4 32 9 11 17 -39 20 -109 6 -162 -33 -177 -30
-130 21 23 25 24 28 8 40 -22 15 -30 11 -47 -29 -13 -31 -62 -84 -70 -76 -2 2
3 32 11 65 l15 61 67 7 c36 3 90 6 119 6 45 0 55 3 59 20 3 11 8 20 12 20 4 0
14 13 24 29 15 26 15 30 2 41 -15 13 -57 12 -210 -5 l-50 -5 45 17 c61 24 110
52 110 62 0 8 -35 21 -55 20 -5 0 -21 -13 -33 -30z m128 -91 c0 -13 -4 -28 -8
-33 -9 -13 -115 -35 -170 -35 -40 0 -42 2 -39 25 1 13 6 27 9 31 6 6 149 31
191 33 11 1 17 -6 17 -21z m-50 -227 c0 -15 -9 -20 -46 -23 -48 -3 -60 3 -50
27 4 10 20 15 51 15 38 0 45 -3 45 -19z m0 -60 c0 -20 -25 -31 -72 -31 -21 0
-28 5 -28 18 0 27 9 32 57 32 35 0 43 -3 43 -19z m0 -65 c0 -25 -22 -36 -72
-36 -23 0 -28 4 -28 24 0 21 6 25 33 28 17 2 40 4 50 5 12 1 17 -5 17 -21z"/>
  <path d="M295 544 c-8 -45 -78 -155 -139 -219 -25 -27 -46 -53 -46 -57 0 -12
39 9 88 49 l42 34 0 -73 c0 -40 -7 -100 -14 -133 -12 -51 -12 -63 0 -87 18
-35 42 -27 48 15 11 74 13 286 3 296 -8 8 4 32 41 86 29 42 52 80 52 85 0 11
-40 40 -56 40 -7 0 -15 -16 -19 -36z"/>
  <path d="M590 357 c0 -20 22 -37 47 -37 29 0 29 14 1 34 -27 19 -48 21 -48 3z"/>
</g>
<g id="part-1" class="char-part">
  <path d="M297 535 c-7 -44 -80 -156 -141 -217 -58 -58 -37 -64 27 -8 25 22 48
40 51 40 11 0 6 -170 -5 -216 -9 -34 -9 -52 0 -70 24 -54 36 -21 47 132 9 124
8 152 -3 166 -13 14 -8 26 43 99 53 77 55 83 38 96 -32 23 -51 16 -57 -22z"/>
</g>
<g id="part-2" class="char-part">
  <path d="M557 587 c-3 -9 -30 -32 -59 -52 -53 -37 -53 -37 -18 -31 50 9 164
66 153 77 -5 5 -22 11 -39 15 -23 4 -33 2 -37 -9z"/>
</g>
<g id="part-3" class="char-part">
  <path d="M600 513 c-47 -8 -110 -11 -142 -9 l-56 5 5 -58 c7 -80 -20 -196 -67
-287 -21 -41 -34 -74 -30 -74 5 0 25 19 44 42 39 45 67 111 85 199 l12 57 97
6 c122 9 152 14 152 30 0 7 11 23 25 36 20 19 34 50 22 50 -1 0 -16 4 -32 8
-18 5 -64 3 -115 -5z m70 -35 c0 -13 -4 -28 -8 -34 -7 -12 -126 -34 -182 -34
-28 0 -30 2 -24 28 4 15 8 28 9 29 2 3 164 31 188 32 11 1 17 -6 17 -21z"/>
</g>
<g id="part-4" class="char-part">
  <path d="M620 191 c0 -22 -19 -31 -66 -31 -20 0 -33 -4 -29 -9 3 -6 26 -7 50
-4 43 5 45 4 45 -20 0 -26 -20 -37 -72 -37 -16 0 -28 -5 -28 -11 0 -12 275 -2
300 11 25 14 -35 23 -101 16 -57 -5 -59 -5 -59 18 0 24 28 36 87 36 15 0 22 4
17 11 -4 7 -24 9 -50 6 -38 -4 -44 -2 -44 14 0 14 -7 19 -25 19 -18 0 -25 -5
-25 -19z"/>
</g>
</g>
</svg>