<?xml version="1.0" standalone="no"?>
<!DOCTYPE svg PUBLIC "-//W3C//DTD SVG 20010904//EN"
 "http://www.w3.org/TR/2001/REC-SVG-20010904/DTD/svg10.dtd">
<svg version="1.0" xmlns="http://www.w3.org/2000/svg"
 width="96.000000pt" height="68.000000pt" viewBox="0 0 96.000000 68.000000"
 preserveAspectRatio="xMidYMid meet">
<metadata>
Created by potrace 1.16, written by Peter Selinger 2001-2019
Combined from part_0.svg through part_5.svg with named groups
</metadata>
<g transform="translate(0.000000,68.000000) scale(0.100000,-0.100000)" fill="#000000" stroke="none">
<g id="part-0" class="char-part">
  <path d="M255 468 c0 -109 -2 -123 -17 -126 -11 -2 -18 3 -18 12 0 9 7 16 15
16 8 0 15 5 15 10 0 6 -9 10 -20 10 -27 0 -25 26 3 35 l22 8 -22 4 c-25 5 -32
33 -8 33 8 0 15 5 15 10 0 6 -6 10 -14 10 -8 0 -16 10 -18 22 -2 13 -11 24
-20 26 -14 3 -16 -3 -13 -27 2 -21 -2 -34 -13 -41 -16 -9 -16 -9 1 -10 20 0
24 -36 5 -43 -8 -3 -6 -6 5 -6 20 -1 23 -21 5 -39 -9 -9 -9 -12 0 -12 7 0 12
-7 12 -15 0 -22 -38 -18 -45 5 -4 11 -5 39 -3 63 2 39 1 42 -23 45 l-26 3 5
-78 c5 -99 14 -109 73 -88 62 22 226 44 238 32 19 -19 39 13 55 84 9 39 13 75
10 80 -3 5 -16 9 -29 9 -21 0 -24 -3 -19 -28 9 -45 -13 -112 -36 -112 -24 0
-26 13 -4 34 8 9 11 16 5 16 -17 0 -13 30 5 37 12 4 13 8 3 13 -7 5 -9 15 -4
26 16 36 14 64 -5 74 -28 15 -32 13 -26 -20 4 -26 1 -30 -20 -30 -13 0 -24 -4
-24 -10 0 -5 9 -10 20 -10 27 0 25 -26 -2 -35 -20 -6 -20 -8 -5 -12 9 -2 17
-13 17 -24 0 -11 -4 -18 -8 -15 -4 2 -14 1 -22 -5 -12 -7 -10 -9 8 -9 25 0 30
-25 6 -34 -34 -13 -36 -7 -32 112 l3 117 -25 3 -25 3 0 -123z"/>
  <path d="M580 565 c0 -28 -50 -123 -81 -154 -16 -16 -29 -32 -29 -35 0 -9 39
15 73 44 31 27 57 37 100 39 28 1 28 1 12 -26 -41 -69 -44 -71 -125 -72 l-45
-1 -3 -125 c-4 -136 2 -156 49 -180 70 -37 239 -27 285 16 l22 21 -21 43 c-12
24 -25 44 -29 45 -3 0 -10 -17 -15 -37 -12 -52 -46 -67 -149 -68 -106 0 -116
8 -112 89 2 45 7 61 18 63 8 1 59 5 113 8 84 6 97 9 97 25 0 9 11 34 25 55 25
35 25 38 8 51 -11 9 -38 14 -68 13 -27 -1 -53 -1 -57 0 -6 1 70 74 91 88 3 2
-1 9 -7 15 -8 8 -26 9 -69 1 -32 -6 -61 -9 -66 -6 -4 2 2 18 14 35 17 23 20
35 12 47 -14 22 -43 26 -43 6z m132 -246 c-1 -18 -8 -39 -14 -46 -11 -14 -65
-14 -60 0 1 4 2 22 2 41 0 36 13 46 55 41 16 -2 19 -9 17 -36z m-104 -26 c3
-39 1 -43 -20 -44 -13 -1 -34 -2 -48 -3 -23 -1 -25 2 -21 39 4 46 14 56 56 53
28 -3 30 -6 33 -45z"/>
  <path d="M380 313 c-14 -2 -47 -7 -75 -13 -27 -5 -68 -12 -89 -15 -76 -11 -50
-18 39 -11 120 10 166 19 157 31 -4 6 -18 9 -32 8z"/>
  <path d="M255 241 c-56 -9 -95 -20 -88 -24 7 -4 19 -30 27 -58 8 -27 23 -57
32 -67 17 -16 15 -17 -32 -20 -60 -4 -76 -17 -41 -33 21 -10 46 -6 151 22 124
33 167 56 84 43 l-43 -7 24 26 c13 14 20 31 16 37 -4 7 -4 15 1 19 5 3 20 19
34 34 21 24 22 30 10 37 -20 13 -56 11 -175 -9z m118 -20 c-6 -24 -18 -29 -97
-37 -53 -5 -64 -4 -69 10 -8 20 0 24 78 35 93 13 94 13 88 -8z m-36 -88 c-7
-40 -20 -53 -54 -53 -16 0 -23 6 -23 18 0 10 -11 25 -25 32 -45 24 -26 34 74
38 33 2 34 2 28 -35z"/>
</g>
<g id="part-1" class="char-part">
  <path d="M266 468 l7 -125 -39 -6 c-22 -4 -51 -7 -66 -7 -27 0 -28 1 -28 59 0
45 -4 60 -16 65 -25 10 -34 -2 -24 -30 6 -14 10 -50 10 -81 0 -63 -12 -60 120
-28 36 8 98 16 138 18 l72 2 10 35 c6 19 10 43 10 53 0 10 5 27 10 37 8 15 6
21 -9 30 -11 5 -22 10 -24 10 -2 0 -7 -30 -10 -66 -2 -36 -6 -67 -8 -69 -2 -2
-30 -6 -63 -10 l-58 -8 3 117 c2 64 1 116 -3 116 -3 0 -14 3 -23 6 -15 6 -15
-5 -9 -118z"/>
</g>
<g id="part-2" class="char-part">
  <path d="M336 131 c-4 -29 -12 -40 -28 -45 -38 -10 -48 -7 -48 14 0 20 -44 49
-56 37 -3 -3 4 -20 16 -36 l21 -31 -55 0 c-59 0 -72 -13 -32 -31 19 -9 48 -5
147 21 132 34 180 57 94 45 l-50 -8 24 21 c26 24 22 52 -7 52 -15 0 -21 -9
-26 -39z"/>
</g>
<g id="part-3" class="char-part">
  <path d="M571 536 c-6 -24 -32 -72 -57 -107 -43 -58 -45 -62 -18 -45 16 10 41
30 56 43 17 17 43 27 74 31 51 5 51 6 11 -51 -34 -50 -8 -42 48 13 30 30 55
58 55 61 0 14 -35 14 -84 2 -27 -7 -52 -10 -55 -7 -3 3 2 19 12 35 21 38 22
55 1 63 -27 11 -31 7 -43 -38z"/>
</g>
<g id="part-4" class="char-part">
  <path d="M635 370 c-27 -5 -72 -9 -100 -9 l-50 -1 0 -65 0 -65 50 0 c28 0 87
3 132 6 63 5 80 10 76 21 -3 7 7 32 22 54 25 39 26 41 8 55 -20 15 -60 16
-138 4z m80 -20 c3 -5 1 -28 -5 -50 -10 -37 -13 -40 -46 -40 l-36 0 7 43 c4
23 13 45 19 49 16 11 54 10 61 -2z m-105 -54 c0 -43 0 -43 -41 -50 -52 -8 -59
-3 -52 42 7 43 17 52 61 52 31 0 32 -1 32 -44z"/>
</g>
<g id="part-5" class="char-part">
  <path d="M489 147 c-3 -21 -1 -41 4 -44 12 -7 13 -2 7 42 l-6 40 -5 -38z"/>
  <path d="M782 153 c2 -52 -19 -67 -115 -83 -57 -10 -74 -9 -114 4 -57 20 -58
20 -43 1 7 -8 16 -13 20 -10 5 3 10 0 12 -7 6 -17 188 -22 184 -5 -1 7 -1 9 1
5 6 -11 51 -10 57 1 4 5 0 12 -6 15 -7 2 -4 4 7 3 11 -1 21 2 22 7 1 5 5 12
10 15 5 3 -1 21 -13 39 -16 23 -23 28 -22 15z"/>
</g>
</g>
</svg>