<?xml version="1.0" standalone="no"?>
<!DOCTYPE svg PUBLIC "-//W3C//DTD SVG 20010904//EN"
 "http://www.w3.org/TR/2001/REC-SVG-20010904/DTD/svg10.dtd">
<svg version="1.0" xmlns="http://www.w3.org/2000/svg"
 width="96.000000pt" height="68.000000pt" viewBox="0 0 96.000000 68.000000"
 preserveAspectRatio="xMidYMid meet">
<metadata>
Created by potrace 1.16, written by Peter Selinger 2001-2019
Combined from part_0.svg through part_5.svg with named groups
</metadata>
<g transform="translate(0.000000,68.000000) scale(0.100000,-0.100000)" fill="#000000" stroke="none">
<g id="part-0" class="char-part">
  <path d="M410 615 c-26 -53 -113 -135 -189 -178 -40 -23 -51 -33 -38 -35 30
-6 137 53 206 112 36 31 67 56 71 56 4 0 51 -31 105 -70 88 -62 104 -70 144
-70 52 0 91 9 91 20 0 4 -21 13 -47 20 -112 31 -273 120 -273 152 0 15 -27 38
-43 38 -3 0 -15 -20 -27 -45z"/>
  <path d="M425 496 c-38 -12 -39 -13 -13 -19 15 -4 37 -3 50 2 27 10 31 11 59
11 11 0 17 5 14 10 -8 13 -60 11 -110 -4z"/>
  <path d="M480 445 c-36 -8 -82 -16 -104 -20 -25 -4 -35 -10 -29 -16 6 -6 39
-4 92 7 45 9 85 13 89 10 3 -4 -8 -21 -26 -37 -27 -26 -38 -29 -65 -24 l-32 7
23 -24 c12 -13 22 -27 22 -30 0 -4 -26 -9 -57 -13 -139 -14 -148 -16 -129 -27
11 -6 44 -7 82 -3 35 4 64 4 64 1 0 -12 -67 -69 -110 -94 -25 -14 -63 -36 -85
-50 -35 -21 -37 -23 -12 -17 16 3 52 17 80 30 28 14 55 25 60 25 6 0 7 -26 4
-65 -6 -60 -5 -65 14 -65 20 0 121 73 128 93 2 6 -13 1 -33 -11 -58 -34 -66
-30 -66 31 1 49 3 53 40 79 22 15 40 34 40 42 0 11 23 16 95 21 52 4 95 11 95
16 0 15 -40 20 -109 13 -68 -6 -70 -6 -64 15 6 22 68 61 97 61 27 0 29 22 5
41 -28 21 -23 21 -109 4z"/>
  <path d="M615 240 c-38 -39 -57 -44 -95 -25 -41 21 -51 12 -13 -11 32 -21 136
-96 143 -105 15 -16 57 -39 72 -39 29 0 21 37 -14 63 -18 14 -55 35 -83 47
l-50 23 52 16 c63 20 70 26 53 46 -18 22 -33 19 -65 -15z"/>
</g>
<g id="part-1" class="char-part">
  <path d="M417 622 c-7 -33 -96 -127 -161 -169 -24 -15 -52 -33 -62 -40 -34
-22 69 17 112 42 23 14 67 48 98 76 l55 50 99 -70 99 -71 74 0 c83 0 82 10 -6
35 -106 30 -227 100 -248 144 -18 38 -53 40 -60 3z"/>
</g>
<g id="part-2" class="char-part">
  <path d="M426 496 c-32 -10 -36 -14 -21 -20 21 -8 125 13 125 26 0 11 -58 8
-104 -6z"/>
</g>
<g id="part-3" class="char-part">
  <path d="M470 444 c-36 -7 -83 -16 -105 -20 -36 -6 -38 -7 -19 -16 15 -7 45
-5 99 6 43 9 81 14 84 10 3 -3 -7 -16 -24 -29 -16 -13 -27 -27 -24 -30 7 -7
129 46 129 56 0 9 -54 40 -67 38 -4 -1 -37 -8 -73 -15z"/>
</g>
<g id="part-4" class="char-part">
  <path d="M615 240 c-38 -39 -57 -44 -95 -25 -61 32 -38 8 68 -70 115 -84 152
-101 152 -68 0 27 -25 47 -101 84 l-64 32 54 18 c65 23 67 24 51 44 -18 22
-33 19 -65 -15z"/>
  <path d="M364 182 c-15 -10 -26 -139 -13 -148 6 -3 38 15 72 42 85 65 86 66
49 53 -18 -6 -35 -15 -38 -20 -3 -5 -14 -9 -25 -9 -16 0 -19 7 -19 45 0 45 -5
52 -26 37z"/>
</g>
</g>
</svg>