<?xml version="1.0" standalone="no"?>
<!DOCTYPE svg PUBLIC "-//W3C//DTD SVG 20010904//EN"
 "http://www.w3.org/TR/2001/REC-SVG-20010904/DTD/svg10.dtd">
<svg version="1.0" xmlns="http://www.w3.org/2000/svg"
 width="96.000000pt" height="68.000000pt" viewBox="0 0 96.000000 68.000000"
 preserveAspectRatio="xMidYMid meet">
<metadata>
Created by potrace 1.16, written by Peter Selinger 2001-2019
Combined from part_0.svg through part_5.svg with named groups
</metadata>
<g transform="translate(0.000000,68.000000) scale(0.100000,-0.100000)" fill="#000000" stroke="none">
<g id="part-0" class="char-part">
  <path d="M650 575 c0 -4 9 -18 20 -32 27 -35 25 -43 -9 -43 -43 0 -91 -11 -91
-22 0 -5 8 -8 17 -6 13 2 22 -11 37 -50 21 -59 15 -72 -31 -72 -25 0 -28 11
-12 41 15 30 -5 49 -52 49 -38 0 -39 1 -32 28 14 53 10 77 -14 80 -19 3 -23
-1 -23 -25 0 -15 -3 -45 -6 -65 -6 -32 -11 -38 -33 -39 -23 -2 -24 -2 -3 -6
12 -2 22 -10 22 -17 0 -31 -33 -116 -65 -169 -20 -33 -30 -57 -23 -55 25 9 71
79 104 160 25 62 38 84 54 86 18 3 20 -2 20 -40 0 -56 -27 -170 -43 -180 -7
-4 -21 -5 -32 -1 -18 5 -18 4 -3 -18 8 -13 24 -24 34 -24 29 0 62 60 70 124
l6 56 59 1 59 1 0 -39 c0 -38 0 -38 -40 -38 -22 0 -40 -4 -40 -10 0 -5 18 -10
40 -10 l40 0 1 -42 c1 -62 10 -162 15 -167 2 -2 6 -2 9 1 9 9 25 111 25 164
l0 54 56 0 c72 0 70 24 -3 28 -49 3 -49 3 -49 37 l1 35 50 0 c59 0 90 14 56
25 -12 3 -34 6 -49 5 -43 -3 -44 -2 -16 39 17 27 24 47 19 60 -5 15 -2 21 9
21 9 0 16 5 16 11 0 8 -17 10 -50 7 -43 -4 -50 -2 -50 12 0 10 -6 22 -12 28
-17 13 -58 25 -58 17z m96 -134 c-7 -53 -15 -68 -39 -75 -34 -9 -37 -8 -37 18
0 13 -10 35 -21 50 -26 34 -18 44 41 48 59 4 62 2 56 -41z"/>
  <path d="M220 565 c0 -3 7 -17 16 -30 22 -33 13 -42 -51 -50 -59 -7 -72 -22
-27 -31 24 -5 31 -14 44 -54 l16 -48 -37 -6 c-78 -14 -91 -18 -85 -27 4 -6 37
-8 86 -3 l79 7 -3 -34 c-3 -32 -6 -34 -45 -40 -60 -8 -65 -19 -10 -19 31 0 47
-4 47 -12 -1 -26 -39 -98 -64 -119 -27 -23 -33 -39 -17 -39 24 0 76 60 105
119 25 52 37 67 56 69 41 6 48 22 9 22 -32 0 -34 2 -35 34 -1 34 0 34 53 41
56 7 65 28 10 23 -36 -3 -38 9 -7 52 12 17 16 31 10 41 -7 10 -4 15 13 19 12
3 22 12 22 20 0 12 -12 14 -53 13 -32 -2 -50 1 -47 7 3 5 -9 19 -27 30 -32 19
-58 26 -58 15z m105 -132 c-12 -70 -14 -73 -51 -73 -19 0 -33 4 -30 8 3 5 -4
25 -15 46 -21 40 -20 42 41 49 19 2 41 5 48 5 10 2 11 -8 7 -35z"/>
</g>
<g id="part-1" class="char-part">
  <path d="M230 553 c0 -4 7 -17 15 -27 23 -31 19 -35 -45 -42 -33 -4 -60 -11
-60 -17 0 -12 166 -2 223 14 63 17 43 41 -25 29 -27 -5 -38 -4 -38 5 0 7 -6
17 -12 23 -19 14 -58 25 -58 15z"/>
</g>
<g id="part-2" class="char-part">
  <path d="M257 299 c7 -36 -6 -49 -52 -49 -16 0 -37 -5 -45 -10 -11 -7 0 -10
38 -10 51 0 53 -1 46 -22 -16 -53 -33 -85 -63 -112 -39 -37 -40 -51 -2 -32 38
20 79 70 104 126 22 50 32 60 65 60 12 0 22 5 22 10 0 6 -15 10 -33 10 -32 0
-33 2 -29 30 4 28 2 30 -27 30 -29 0 -30 -2 -24 -31z"/>
</g>
<g id="part-3" class="char-part">
  <path d="M459 513 c-2 -60 -13 -87 -39 -94 -24 -7 -24 -7 -2 -8 12 -1 22 -7
22 -14 0 -30 -40 -129 -74 -181 -41 -65 -34 -73 16 -18 29 32 71 117 101 205
4 9 15 17 26 17 11 0 23 5 26 10 3 6 -5 10 -18 10 -24 0 -25 2 -16 42 12 50 6
68 -21 68 -16 0 -20 -7 -21 -37z"/>
</g>
<g id="part-4" class="char-part">
  <path d="M510 430 c0 -5 5 -10 11 -10 16 0 5 -130 -14 -185 -13 -36 -18 -40
-47 -38 l-33 1 26 -25 c46 -46 78 -11 102 112 9 44 21 91 26 105 8 19 7 27 -7
37 -21 15 -64 17 -64 3z"/>
</g>
<g id="part-5" class="char-part">
  <path d="M697 311 c3 -11 -4 -28 -16 -40 l-21 -21 25 -6 c14 -3 25 -10 25 -15
0 -5 -7 -5 -17 -2 -12 5 -14 3 -8 -7 5 -8 8 -52 7 -99 -2 -64 1 -82 9 -74 7 7
13 29 14 50 1 21 6 62 10 90 6 49 5 54 -17 62 -21 8 -19 9 12 9 65 -1 109 5
104 14 -5 8 -43 7 -84 -3 -11 -3 -14 4 -11 29 2 26 -1 32 -17 32 -15 0 -19 -5
-15 -19z"/>
  <path d="M628 253 c7 -3 16 -2 19 1 4 3 -2 6 -13 5 -11 0 -14 -3 -6 -6z"/>
</g>
</g>
</svg>