<?xml version="1.0" standalone="no"?>
<!DOCTYPE svg PUBLIC "-//W3C//DTD SVG 20010904//EN"
 "http://www.w3.org/TR/2001/REC-SVG-20010904/DTD/svg10.dtd">
<svg version="1.0" xmlns="http://www.w3.org/2000/svg"
 width="96.000000pt" height="68.000000pt" viewBox="0 0 96.000000 68.000000"
 preserveAspectRatio="xMidYMid meet">
<metadata>
Created by potrace 1.16, written by Peter Selinger 2001-2019
Combined from part_0.svg through part_5.svg with named groups
</metadata>
<g transform="translate(0.000000,68.000000) scale(0.100000,-0.100000)" fill="#000000" stroke="none">
<g id="part-0" class="char-part">
  <path d="M180 552 c0 -20 67 -82 88 -82 41 0 40 48 -1 68 -34 17 -87 25 -87
14z"/>
  <path d="M540 544 c-25 -7 -79 -14 -121 -15 l-76 -1 15 -41 c19 -54 10 -285
-13 -330 -17 -34 -11 -67 11 -67 17 0 74 40 117 82 35 34 25 35 -28 3 -22 -14
-43 -25 -47 -25 -10 0 -10 42 -2 104 l7 46 71 0 71 0 25 -46 c36 -68 136 -167
187 -183 58 -19 74 -11 62 31 -5 18 -9 49 -10 68 l0 35 -19 -42 c-14 -30 -25
-43 -40 -43 -26 0 -91 59 -129 119 -36 55 -39 81 -11 81 36 0 120 22 120 31 0
12 -66 12 -110 -1 -38 -11 -45 -7 -54 32 -6 24 -3 27 35 33 26 5 39 11 36 19
-3 7 4 32 14 56 11 24 17 50 15 57 -7 17 -68 16 -126 -3z m60 -53 c0 -45 0
-45 -100 -61 -95 -15 -92 -16 -88 33 l3 42 65 11 c116 21 120 20 120 -25z
m-81 -123 c9 -15 13 -29 10 -32 -3 -3 -33 -9 -67 -12 -67 -7 -71 -4 -56 54 6
20 12 23 52 20 38 -2 49 -8 61 -30z"/>
  <path d="M110 421 c0 -16 70 -71 90 -71 15 0 20 7 20 26 0 19 -8 28 -35 40
-39 16 -75 18 -75 5z"/>
  <path d="M250 300 c-24 -36 -62 -82 -84 -102 l-40 -37 17 -36 c9 -19 22 -35
29 -35 16 1 132 243 126 261 -2 7 -24 -16 -48 -51z"/>
</g>
<g id="part-1" class="char-part">
  <path d="M190 543 c0 -17 56 -63 77 -63 34 0 30 36 -7 55 -30 16 -70 20 -70 8z"/>
  <path d="M120 424 c0 -18 56 -64 77 -64 39 0 26 42 -17 54 -14 4 -33 10 -42
12 -10 3 -18 2 -18 -2z"/>
  <path d="M255 299 c-16 -28 -49 -68 -72 -89 -48 -42 -55 -76 -24 -104 19 -17
21 -14 80 110 66 137 65 134 54 134 -5 0 -21 -23 -38 -51z"/>
</g>
<g id="part-2" class="char-part">
  <path d="M535 545 c-27 -7 -83 -14 -124 -14 -66 -1 -72 -3 -66 -18 4 -10 12
-39 18 -65 l10 -48 56 0 c95 0 223 21 211 35 -7 8 -2 27 15 59 14 26 23 52 20
57 -8 12 -79 9 -140 -6z m65 -47 c0 -18 -4 -38 -8 -44 -6 -9 -133 -34 -173
-34 -6 0 -9 18 -7 43 l3 42 65 11 c113 20 120 19 120 -18z"/>
</g>
<g id="part-3" class="char-part">
  <path d="M363 282 c-6 -65 -17 -128 -24 -140 -14 -22 -5 -52 17 -59 5 -2 45
26 88 62 82 68 89 81 21 40 -22 -14 -48 -25 -59 -25 -17 0 -18 6 -12 83 4 45
9 99 12 120 5 32 3 37 -13 37 -18 0 -21 -12 -30 -118z"/>
</g>
<g id="part-4" class="char-part">
  <path d="M517 403 c-15 -4 -16 -6 -2 -26 26 -37 19 -46 -45 -53 -87 -10 -87
-26 0 -23 l72 2 30 -52 c58 -100 168 -191 232 -191 23 0 24 2 15 32 -5 18 -9
49 -9 68 l-1 35 -21 -40 c-11 -22 -22 -41 -23 -43 -7 -8 -63 30 -96 65 -34 35
-79 110 -79 132 0 5 24 12 53 16 28 4 61 11 72 15 39 15 -13 24 -74 13 -65
-12 -71 -10 -71 22 0 18 -23 41 -33 34 -1 -1 -10 -3 -20 -6z"/>
</g>
</g>
</svg>