<?xml version="1.0" standalone="no"?>
<!DOCTYPE svg PUBLIC "-//W3C//DTD SVG 20010904//EN"
 "http://www.w3.org/TR/2001/REC-SVG-20010904/DTD/svg10.dtd">
<svg version="1.0" xmlns="http://www.w3.org/2000/svg"
 width="96.000000pt" height="68.000000pt" viewBox="0 0 96.000000 68.000000"
 preserveAspectRatio="xMidYMid meet">
<metadata>
Created by potrace 1.16, written by Peter Selinger 2001-2019
Combined from part_0.svg through part_5.svg with named groups
</metadata>
<g transform="translate(0.000000,68.000000) scale(0.100000,-0.100000)" fill="#000000" stroke="none">
<g id="part-0" class="char-part">
  <path d="M505 646 c-11 -7 -58 -28 -105 -47 -78 -31 -82 -34 -51 -37 29 -3
224 33 243 44 13 8 -3 31 -28 43 -32 14 -35 14 -59 -3z"/>
  <path d="M623 567 c-10 -13 -36 -35 -58 -50 -25 -17 -33 -27 -22 -27 25 0 159
38 170 49 9 9 -38 51 -59 51 -7 0 -21 -10 -31 -23z"/>
  <path d="M400 541 c0 -16 51 -71 66 -71 28 0 28 32 0 57 -27 23 -66 31 -66 14z"/>
  <path d="M250 530 c0 -15 61 -80 75 -80 37 0 29 61 -10 78 -31 14 -65 16 -65
2z"/>
  <path d="M520 450 c-19 -5 -77 -14 -127 -21 -51 -6 -93 -15 -93 -20 0 -13 64
-11 159 6 47 8 86 13 89 11 7 -8 -22 -44 -49 -60 -15 -9 -37 -16 -50 -16 -18
0 -20 -3 -11 -12 7 -7 12 -20 12 -29 0 -15 -15 -18 -97 -23 -180 -12 -233 -18
-228 -27 12 -18 77 -20 166 -5 51 9 110 16 131 16 l38 0 0 -54 c0 -29 -3 -68
-6 -86 -6 -28 -10 -31 -33 -27 -14 2 -35 8 -46 12 -11 5 0 -10 25 -33 25 -23
52 -41 62 -42 24 0 38 52 38 145 l0 82 107 6 c58 4 131 7 162 7 53 0 54 1 38
18 -20 20 -79 22 -218 8 -84 -8 -86 -8 -92 14 -5 19 3 26 71 57 93 43 89 40
71 59 -19 19 -74 25 -119 14z"/>
</g>
<g id="part-1" class="char-part">
  <path d="M492 634 c-13 -9 -58 -29 -100 -44 -93 -35 -73 -37 73 -9 122 24 140
33 111 55 -26 18 -56 18 -84 -2z"/>
  <path d="M629 563 c-8 -9 -32 -29 -54 -45 -39 -29 -39 -29 -10 -22 17 4 47 13
69 21 21 7 47 13 57 13 25 0 24 26 0 40 -28 14 -46 12 -62 -7z"/>
  <path d="M260 530 c0 -26 42 -71 63 -68 30 4 33 34 5 51 -35 22 -68 30 -68 17z"/>
  <path d="M410 532 c0 -14 51 -62 61 -57 16 10 10 44 -10 55 -23 12 -51 13 -51
2z"/>
</g>
<g id="part-2" class="char-part">
  <path d="M516 449 c-17 -4 -74 -14 -128 -20 -53 -7 -95 -16 -92 -21 8 -12 91
-9 164 7 36 8 71 14 78 15 23 0 12 -25 -23 -49 -31 -21 -50 -49 -27 -39 61 24
162 75 162 80 0 12 -57 38 -82 37 -13 0 -36 -5 -52 -10z"/>
</g>
<g id="part-3" class="char-part">
  <path d="M438 338 c7 -7 12 -20 12 -29 0 -15 -15 -18 -107 -24 -60 -3 -128 -8
-153 -10 -25 -2 -52 -4 -60 -5 -12 0 -11 -4 4 -15 25 -19 69 -19 171 0 44 8
97 14 118 15 l37 0 0 -54 c0 -29 -3 -68 -6 -86 -6 -28 -10 -31 -33 -27 -14 3
-35 9 -46 13 -11 4 0 -11 25 -34 79 -72 100 -51 100 97 l0 88 107 6 c58 4 128
7 155 7 52 0 62 14 23 32 -19 8 -52 8 -133 0 -138 -15 -152 -15 -152 3 0 16
-30 35 -56 35 -14 0 -15 -3 -6 -12z"/>
</g>
</g>
</svg>