<?xml version="1.0" standalone="no"?>
<!DOCTYPE svg PUBLIC "-//W3C//DTD SVG 20010904//EN"
 "http://www.w3.org/TR/2001/REC-SVG-20010904/DTD/svg10.dtd">
<svg version="1.0" xmlns="http://www.w3.org/2000/svg"
 width="96.000000pt" height="68.000000pt" viewBox="0 0 96.000000 68.000000"
 preserveAspectRatio="xMidYMid meet">
<metadata>
Created by potrace 1.16, written by Peter Selinger 2001-2019
Combined from part_0.svg through part_5.svg with named groups
</metadata>
<g transform="translate(0.000000,68.000000) scale(0.100000,-0.100000)" fill="#000000" stroke="none">
<g id="part-0" class="char-part">
  <path d="M307 617 c-2 -7 -1 -21 4 -32 19 -48 5 -120 -16 -85 -12 19 -31 10
-50 -22 -10 -18 -29 -41 -42 -51 -37 -30 -26 -42 11 -13 l35 26 20 -26 c12
-15 21 -30 21 -35 0 -10 -45 -41 -84 -57 -16 -7 -26 -15 -22 -19 12 -12 133
59 195 115 67 62 72 82 20 82 -22 0 -29 5 -29 19 0 15 10 20 50 25 28 4 50 11
50 16 0 13 -44 23 -69 15 -17 -5 -21 -2 -21 14 0 12 -1 21 -3 21 -1 0 -16 4
-34 9 -22 6 -33 6 -36 -2z m73 -145 c0 -4 -13 -23 -28 -42 l-29 -34 -31 24
c-17 14 -30 30 -28 35 1 6 25 13 52 16 27 3 52 7 57 7 4 1 7 -2 7 -6z"/>
  <path d="M543 541 c-35 -9 -63 -18 -63 -21 0 -3 18 -17 40 -30 22 -14 40 -29
40 -33 0 -4 -19 -16 -42 -27 -33 -14 -45 -16 -61 -7 -16 10 -21 9 -25 -3 -7
-19 -88 -96 -137 -130 -22 -15 -76 -46 -120 -70 -99 -52 -52 -45 60 10 58 28
82 35 88 27 12 -17 2 -194 -11 -210 -9 -10 -9 -18 1 -30 11 -15 18 -13 70 20
64 39 68 50 13 35 l-36 -10 0 33 c0 61 5 65 84 65 l72 0 26 54 c37 75 27 84
-87 67 -54 -8 -89 -10 -101 -3 -26 14 0 25 79 33 37 3 70 9 74 13 14 14 -7 16
-52 6 -26 -6 -50 -8 -53 -5 -9 8 52 50 68 47 8 -2 62 -35 118 -74 l104 -70 70
0 c99 0 106 16 16 37 -95 22 -287 108 -295 131 -2 5 23 17 54 26 l57 17 56
-40 c64 -45 70 -46 70 -19 0 12 -16 29 -45 46 -25 14 -45 29 -45 33 0 4 16 26
35 48 28 33 32 42 19 47 -25 9 -74 5 -141 -13z m72 -41 c-21 -23 -34 -25 -70
-8 -36 16 -31 23 23 34 56 12 73 2 47 -26z m-105 -249 c0 -6 -100 -31 -127
-31 -6 0 -9 9 -6 20 4 16 15 20 62 22 59 3 71 1 71 -11z m-10 -45 c0 -20 -6
-22 -73 -31 -54 -6 -58 -5 -55 12 2 14 16 19 58 24 30 3 58 6 63 7 4 1 7 -4 7
-12z"/>
  <path d="M584 159 c-32 -36 -69 -50 -99 -39 -35 13 -55 12 -30 -2 11 -6 43
-25 70 -43 86 -56 128 -76 139 -65 15 15 -30 57 -80 76 -41 16 -51 34 -18 34
8 0 31 7 51 15 30 13 33 17 23 30 -17 21 -33 19 -56 -6z"/>
</g>
<g id="part-1" class="char-part">
  <path d="M316 568 c3 -29 7 -59 10 -65 7 -24 32 -13 38 17 5 28 8 30 51 30 25
0 45 5 45 11 0 6 -17 9 -42 7 -36 -2 -43 1 -47 17 -4 23 -19 35 -43 35 -15 0
-16 -8 -12 -52z"/>
</g>
<g id="part-2" class="char-part">
  <path d="M575 550 c-33 -11 -68 -20 -77 -20 -30 0 -20 -17 22 -41 22 -13 40
-27 40 -31 0 -5 -19 -18 -42 -28 -51 -23 -29 -26 32 -5 l42 15 57 -40 c65 -46
71 -47 71 -21 0 12 -17 30 -45 48 -24 15 -44 30 -45 34 0 3 16 22 35 43 19 21
35 40 35 41 0 3 -61 26 -64 24 -1 0 -28 -9 -61 -19z m44 -41 c-6 -11 -17 -23
-25 -26 -16 -6 -74 15 -74 27 0 8 91 28 103 22 4 -2 2 -12 -4 -23z"/>
</g>
<g id="part-3" class="char-part">
  <path d="M416 403 c-22 -42 -114 -112 -223 -170 -54 -29 -93 -53 -87 -53 49
-1 232 95 305 159 l46 40 52 -30 c29 -17 80 -51 113 -75 59 -43 62 -44 139
-44 43 0 80 4 83 8 3 5 -34 18 -81 31 -99 26 -272 109 -291 140 -17 29 -39 26
-56 -6z"/>
</g>
<g id="part-4" class="char-part">
  <path d="M430 325 c-42 -12 -43 -13 -14 -14 45 -1 95 10 88 20 -7 11 -18 10
-74 -6z"/>
</g>
<g id="part-5" class="char-part">
  <path d="M594 155 c-11 -12 -26 -25 -34 -28 -12 -4 -12 -6 2 -6 9 -1 23 6 32
14 8 8 23 12 33 9 14 -4 15 -3 4 4 -11 8 -11 10 0 14 10 3 10 6 -2 10 -8 3
-24 -4 -35 -17z"/>
  <path d="M332 110 c1 -37 22 -34 26 3 2 19 -1 27 -12 27 -10 0 -14 -10 -14
-30z"/>
  <path d="M504 98 c-4 -7 -3 -8 4 -4 7 4 12 2 12 -3 0 -6 5 -11 10 -11 6 0 20
-9 32 -20 24 -22 87 -54 95 -47 10 11 -21 44 -37 40 -10 -3 -21 0 -24 6 -5 7
0 9 11 5 17 -5 17 -5 0 6 -9 6 -26 13 -37 15 -10 2 -28 8 -39 14 -14 8 -22 8
-27 -1z"/>
  <path d="M313 51 c-10 -15 -9 -22 2 -31 12 -10 24 -6 62 19 49 33 51 37 9 21
-17 -6 -26 -6 -26 0 0 18 -35 11 -47 -9z"/>
</g>
</g>
</svg>