<?xml version="1.0" standalone="no"?>
<!DOCTYPE svg PUBLIC "-//W3C//DTD SVG 20010904//EN"
 "http://www.w3.org/TR/2001/REC-SVG-20010904/DTD/svg10.dtd">
<svg version="1.0" xmlns="http://www.w3.org/2000/svg"
 width="96.000000pt" height="68.000000pt" viewBox="0 0 96.000000 68.000000"
 preserveAspectRatio="xMidYMid meet">
<metadata>
Created by potrace 1.16, written by Peter Selinger 2001-2019
Combined from part_0.svg through part_5.svg with named groups
</metadata>
<g transform="translate(0.000000,68.000000) scale(0.100000,-0.100000)" fill="#000000" stroke="none">
<g id="part-0" class="char-part">
  <path d="M605 564 c-33 -7 -77 -13 -98 -14 -23 0 -36 -4 -32 -10 3 -5 28 -10
56 -10 41 0 49 -3 49 -18 0 -10 -5 -23 -12 -30 -16 -16 -125 -16 -131 1 -3 6
-14 -9 -26 -36 -21 -44 -21 -67 -2 -67 5 0 16 16 25 35 17 34 18 35 76 35 l59
0 3 -62 c2 -48 7 -63 18 -63 12 0 16 15 18 66 3 59 5 68 25 73 28 7 137 8 137
1 0 -3 -7 -17 -16 -30 -9 -14 -12 -25 -7 -25 20 0 103 32 103 40 0 5 -12 18
-27 30 -20 16 -36 20 -63 16 -19 -3 -61 -8 -92 -12 l-58 -6 0 29 c0 29 2 31
51 36 58 7 70 14 49 27 -19 12 -30 11 -105 -6z"/>
  <path d="M228 554 c-8 -7 81 -84 97 -84 41 1 45 48 5 67 -34 16 -94 26 -102
17z"/>
  <path d="M280 429 c-14 -6 -47 -15 -75 -20 -108 -21 -102 -19 -81 -35 26 -18
60 -18 97 2 17 8 37 14 46 12 20 -4 -40 -81 -126 -160 -75 -70 -55 -80 33 -18
31 22 59 40 61 40 9 0 5 -74 -6 -119 -8 -35 -7 -48 7 -68 25 -40 38 -13 44 88
l5 91 27 -21 c33 -27 58 -27 58 -1 0 13 -9 22 -25 26 -32 8 -32 18 1 33 29 13
28 34 -2 39 -12 2 -28 -8 -42 -28 -20 -27 -42 -33 -42 -11 0 4 23 32 50 61 28
29 50 58 50 65 0 9 -43 37 -53 34 -1 0 -13 -5 -27 -10z"/>
  <path d="M663 425 c-20 -22 -15 -27 20 -20 40 9 45 14 27 25 -20 13 -33 12
-47 -5z"/>
  <path d="M470 413 c0 -14 59 -33 66 -21 8 12 5 14 -33 23 -18 3 -33 3 -33 -2z"/>
  <path d="M678 347 c33 -17 45 -18 54 -9 18 18 -7 32 -57 31 l-40 0 43 -22z"/>
  <path d="M486 351 c-33 -7 -48 -31 -19 -31 10 0 32 9 48 20 30 20 24 23 -29
11z"/>
  <path d="M650 300 c-14 -4 -48 -8 -76 -9 -28 -1 -67 -4 -85 -8 l-34 -8 39 -5
c45 -6 54 -20 30 -45 -14 -14 -28 -16 -72 -11 -44 5 -53 4 -45 -6 6 -7 13 -43
15 -80 4 -71 9 -84 28 -73 8 5 9 27 5 70 l-7 62 31 5 c41 6 51 -7 51 -64 0
-36 4 -48 15 -48 12 0 15 13 15 59 0 56 1 59 27 64 16 3 31 3 35 0 5 -2 8 -35
8 -74 0 -97 25 -93 29 6 1 22 4 47 7 57 6 19 47 32 75 23 17 -6 20 -14 17 -68
-3 -62 -3 -62 -31 -59 -30 3 -30 -4 1 -40 40 -47 74 -4 86 107 6 58 6 61 -21
76 -19 11 -38 14 -60 9 -57 -13 -173 -21 -173 -13 1 28 31 42 101 50 41 4 74
13 74 18 0 13 -52 16 -85 5z"/>
</g>
<g id="part-1" class="char-part">
  <path d="M240 541 c0 -13 73 -61 93 -61 29 0 20 38 -13 55 -32 16 -80 20 -80
6z"/>
  <path d="M248 415 c-20 -8 -57 -17 -82 -20 -25 -4 -43 -11 -40 -16 8 -14 65
-10 111 7 24 9 46 14 49 11 9 -9 -90 -131 -149 -182 -66 -58 -47 -58 37 0 l66
45 -1 -58 c-1 -31 -4 -68 -8 -82 -9 -28 7 -72 23 -67 6 2 12 37 14 83 3 109 4
110 49 84 29 -17 38 -18 44 -8 10 15 -16 38 -43 38 -29 0 -21 15 17 29 38 14
44 25 18 35 -12 5 -25 -2 -44 -25 -15 -19 -31 -29 -37 -25 -21 13 -13 29 40
83 44 44 49 54 38 67 -15 19 -52 19 -102 1z"/>
</g>
<g id="part-2" class="char-part">
  <path d="M659 576 c-3 -3 -46 -10 -97 -17 -100 -13 -123 -29 -39 -29 57 0 188
17 196 26 3 3 -1 9 -9 14 -16 10 -44 13 -51 6z"/>
</g>
<g id="part-3" class="char-part">
  <path d="M759 496 c-3 -3 -74 -10 -158 -17 -127 -9 -155 -9 -162 2 -4 7 -9 11
-11 9 -11 -16 -38 -83 -38 -95 0 -29 31 -15 46 20 14 34 17 35 67 36 28 0 61
2 72 5 11 2 60 7 109 10 l88 7 -16 -31 c-9 -18 -13 -32 -9 -32 23 1 97 28 100
37 8 23 -71 66 -88 49z"/>
</g>
<g id="part-4" class="char-part">
  <path d="M610 223 c-63 -7 -137 -11 -163 -8 -47 6 -48 5 -37 -16 7 -12 12 -45
11 -73 0 -56 10 -83 28 -72 8 5 9 28 5 70 l-6 63 43 7 c24 4 73 9 109 12 36 3
77 7 91 9 14 2 36 1 48 -2 20 -5 22 -11 19 -67 -3 -59 -4 -61 -30 -59 -26 2
-26 2 -10 -28 20 -35 56 -39 73 -8 6 12 15 53 20 92 13 105 10 106 -201 80z"/>
</g>
</g>
</svg>