<?xml version="1.0" standalone="no"?>
<!DOCTYPE svg PUBLIC "-//W3C//DTD SVG 20010904//EN"
 "http://www.w3.org/TR/2001/REC-SVG-20010904/DTD/svg10.dtd">
<svg version="1.0" xmlns="http://www.w3.org/2000/svg"
 width="96.000000pt" height="68.000000pt" viewBox="0 0 96.000000 68.000000"
 preserveAspectRatio="xMidYMid meet">
<metadata>
Created by potrace 1.16, written by Peter Selinger 2001-2019
Combined from part_0.svg through part_5.svg with named groups
</metadata>
<g transform="translate(0.000000,68.000000) scale(0.100000,-0.100000)" fill="#000000" stroke="none">
<g id="part-0" class="char-part">
  <path d="M499 544 c12 -20 20 -38 18 -40 -2 -2 -57 -11 -123 -20 -65 -8 -121
-18 -124 -20 -3 -3 3 -11 13 -18 25 -19 23 -119 -4 -193 -26 -68 -81 -155
-117 -183 -35 -28 -19 -38 24 -15 79 43 146 160 170 299 8 44 19 83 25 87 10
6 76 14 288 36 74 8 102 25 61 38 -28 9 -79 9 -119 0 -27 -6 -31 -4 -31 14 0
26 -36 51 -73 51 l-29 0 21 -36z"/>
  <path d="M150 409 c0 -6 12 -26 27 -45 18 -24 33 -34 47 -32 32 5 33 43 1 64
-31 20 -75 27 -75 13z"/>
  <path d="M535 374 c-38 -7 -85 -13 -102 -13 -18 -1 -33 -6 -33 -12 0 -8 18
-10 55 -7 33 3 59 0 64 -6 5 -6 11 -59 14 -118 l6 -108 -47 0 -47 0 -3 67 c-2
38 -4 68 -5 69 -1 1 -13 5 -26 9 -21 6 -23 5 -18 -16 3 -13 9 -50 12 -81 l7
-58 -61 0 c-61 0 -82 -14 -38 -26 13 -3 101 -1 195 5 94 6 205 11 247 11 76 0
93 10 54 31 -15 8 -54 9 -126 4 l-104 -7 3 53 3 54 68 3 c53 2 67 6 67 19 0
14 -10 15 -69 9 l-70 -6 2 55 c2 54 3 55 32 55 48 0 105 12 105 21 0 13 -103
9 -185 -7z"/>
  <path d="M215 285 c-22 -14 -57 -30 -77 -37 -39 -12 -47 -25 -26 -46 23 -23
50 -12 99 41 27 28 49 55 49 60 0 10 1 10 -45 -18z"/>
</g>
<g id="part-1" class="char-part">
  <path d="M490 571 c0 -4 10 -21 21 -36 29 -36 21 -40 -115 -55 -61 -7 -114
-15 -119 -17 -4 -2 3 -13 15 -23 22 -17 22 -20 10 -101 -14 -97 -45 -166 -107
-241 -24 -29 -42 -54 -40 -56 10 -10 88 59 119 106 41 62 62 123 79 223 l13
74 69 11 c39 7 120 15 180 19 125 8 150 16 115 35 -15 8 -43 10 -86 5 -53 -5
-64 -4 -64 8 0 9 -12 25 -26 36 -27 21 -64 28 -64 12z"/>
  <path d="M160 394 c51 -68 80 -83 80 -40 0 29 -17 44 -61 53 -32 6 -33 5 -19
-13z"/>
  <path d="M190 268 c-30 -15 -63 -30 -74 -33 -18 -5 -18 -6 -1 -25 10 -11 23
-20 29 -20 13 0 113 98 105 103 -2 1 -29 -10 -59 -25z"/>
</g>
<g id="part-2" class="char-part">
  <path d="M538 377 c-187 -29 -183 -52 4 -27 40 5 100 12 133 16 57 6 58 7 35
20 -14 7 -27 13 -30 12 -3 0 -67 -10 -142 -21z"/>
</g>
<g id="part-3" class="char-part">
  <path d="M527 283 c9 -127 17 -168 33 -168 11 0 16 15 20 55 l5 55 63 5 c83 7
80 26 -3 23 l-65 -2 3 47 c2 46 1 47 -29 50 l-32 3 5 -68z"/>
</g>
<g id="part-4" class="char-part">
  <path d="M689 126 c-2 -2 -93 -10 -201 -17 -109 -7 -198 -16 -198 -21 0 -14
51 -21 119 -14 36 3 145 9 241 12 96 4 177 9 180 11 3 3 -4 11 -14 19 -18 13
-116 20 -127 10z"/>
</g>
</g>
</svg>