<?xml version="1.0" standalone="no"?>
<!DOCTYPE svg PUBLIC "-//W3C//DTD SVG 20010904//EN"
 "http://www.w3.org/TR/2001/REC-SVG-20010904/DTD/svg10.dtd">
<svg version="1.0" xmlns="http://www.w3.org/2000/svg"
 width="96.000000pt" height="68.000000pt" viewBox="0 0 96.000000 68.000000"
 preserveAspectRatio="xMidYMid meet">
<metadata>
Created by potrace 1.16, written by Peter Selinger 2001-2019
Combined from part_0.svg through part_5.svg with named groups
</metadata>
<g transform="translate(0.000000,68.000000) scale(0.100000,-0.100000)" fill="#000000" stroke="none">
<g id="part-0" class="char-part">
  <path d="M550 622 c0 -6 5 -14 10 -17 6 -3 10 -19 10 -36 0 -27 -2 -29 -42
-29 -53 0 -81 -14 -49 -25 12 -3 36 -5 54 -3 25 2 33 -1 35 -16 5 -24 -14 -36
-55 -36 -18 0 -33 -5 -33 -11 0 -6 17 -9 43 -7 39 2 42 1 45 -23 3 -25 2 -26
-85 -35 -82 -9 -86 -11 -59 -22 21 -9 43 -10 85 -2 31 5 112 12 181 15 69 3
126 9 128 14 6 17 -53 29 -103 20 -84 -13 -95 -12 -95 15 0 21 6 24 50 30 64
9 65 26 1 26 -83 0 -77 35 7 47 67 10 63 28 -5 28 l-53 -1 0 33 c0 20 -5 33
-12 33 -7 0 -23 3 -35 6 -13 4 -23 2 -23 -4z"/>
  <path d="M326 546 c-3 -14 -13 -32 -22 -40 -14 -15 -20 -14 -60 10 -59 34 -70
21 -19 -22 l40 -34 -30 -25 c-16 -14 -45 -34 -62 -46 -18 -11 -33 -23 -33 -26
0 -11 57 10 102 38 46 27 48 28 58 9 5 -10 10 -27 10 -37 0 -28 -69 -102 -135
-146 -46 -30 -53 -38 -31 -33 37 9 102 47 138 81 15 14 30 25 34 25 11 0 -4
-140 -17 -156 -8 -10 -23 -12 -53 -8 l-41 7 42 -42 c23 -22 46 -41 51 -41 16
0 62 52 68 77 4 13 5 71 2 131 -2 83 -8 116 -24 149 l-21 42 41 41 c40 40 40
42 22 56 -29 21 -53 17 -60 -10z"/>
  <path d="M625 329 c-22 -4 -62 -8 -90 -8 l-50 -1 -1 -88 c-1 -48 -6 -98 -12
-112 -6 -15 -6 -34 -1 -49 14 -35 36 -10 44 50 l7 49 79 0 79 0 0 -41 c0 -39
-2 -41 -25 -37 -38 8 -39 -7 -4 -37 58 -48 77 -15 80 148 3 145 0 148 -106
126z m55 -29 c0 -5 0 -13 -1 -17 -1 -9 -93 -32 -130 -33 -22 0 -26 3 -22 24 5
27 21 32 106 35 26 0 47 -3 47 -9z m0 -74 c0 -20 -6 -24 -46 -30 -85 -11 -110
-8 -110 14 0 17 7 20 41 21 22 1 54 5 70 9 17 4 33 8 38 9 4 0 7 -10 7 -23z"/>
</g>
<g id="part-1" class="char-part">
  <path d="M326 536 c-20 -48 -32 -51 -87 -21 -59 32 -64 21 -8 -20 l40 -30 -33
-30 c-19 -16 -47 -40 -64 -53 l-29 -22 38 15 c21 8 52 24 68 36 37 26 54 20
63 -21 10 -51 7 -206 -4 -236 -10 -24 -14 -26 -51 -21 l-41 5 33 -34 c39 -41
63 -41 93 -1 19 25 21 42 21 146 -1 100 -4 124 -23 161 l-22 45 41 41 41 42
-23 16 c-32 22 -37 21 -53 -18z"/>
</g>
<g id="part-2" class="char-part">
  <path d="M311 365 c-2 -17 -98 -113 -141 -141 -22 -15 -39 -29 -36 -31 7 -7
73 24 119 56 56 38 76 68 66 101 -4 14 -8 21 -8 15z"/>
</g>
<g id="part-3" class="char-part">
  <path d="M555 613 c14 -31 11 -67 -5 -70 -67 -9 -90 -15 -85 -24 4 -5 28 -9
56 -9 41 0 49 -3 49 -19 0 -19 -25 -31 -67 -31 -13 0 -23 -4 -23 -10 0 -5 20
-10 45 -10 39 0 45 -3 45 -21 0 -29 44 -22 48 7 3 18 12 23 53 28 64 9 63 26
-1 26 -43 0 -50 3 -50 19 0 16 10 21 48 27 93 13 91 42 -3 31 l-45 -5 0 33 c0
34 -13 45 -52 45 -15 0 -18 -4 -13 -17z"/>
</g>
<g id="part-4" class="char-part">
  <path d="M625 399 c-248 -27 -233 -24 -201 -38 22 -9 42 -9 78 -2 26 6 111 14
189 17 122 6 139 9 123 21 -20 14 -67 15 -189 2z"/>
</g>
<g id="part-5" class="char-part">
  <path d="M655 324 l-30 -15 28 4 c20 3 31 -1 38 -16 8 -13 8 -22 1 -26 -7 -4
-7 -19 -2 -41 4 -19 8 -27 9 -17 1 9 6 17 12 17 6 0 9 9 6 20 -3 11 0 20 5 20
7 0 6 5 -1 14 -9 11 -9 15 1 19 10 4 8 10 -6 21 -23 19 -22 19 -61 0z"/>
  <path d="M486 309 c9 -16 7 -128 -4 -164 -12 -39 -9 -78 6 -83 16 -5 15 35 0
41 -8 3 -5 6 6 6 14 1 17 7 14 30 -2 17 -1 28 4 25 4 -3 8 4 8 16 0 13 -4 18
-11 15 -6 -4 -5 1 2 13 7 10 24 24 38 30 l26 10 -26 1 c-29 1 -42 20 -29 42 6
8 4 16 -3 21 -18 12 -39 9 -31 -3z"/>
  <path d="M699 201 c-9 -11 -13 -26 -9 -42 3 -13 5 -30 4 -36 -1 -7 -2 -17 -3
-23 0 -5 -10 -10 -21 -10 -26 0 -26 -26 -1 -40 24 -12 55 14 48 41 -3 10 0 20
6 22 6 2 7 9 2 17 -5 8 -8 31 -6 52 3 43 2 43 -20 19z"/>
  <path d="M568 183 c6 -2 18 -2 25 0 6 3 1 5 -13 5 -14 0 -19 -2 -12 -5z"/>
  <path d="M630 180 c-18 -12 -2 -12 25 0 13 6 15 9 5 9 -8 0 -22 -4 -30 -9z"/>
</g>
</g>
</svg>