<?xml version="1.0" standalone="no"?>
<!DOCTYPE svg PUBLIC "-//W3C//DTD SVG 20010904//EN"
 "http://www.w3.org/TR/2001/REC-SVG-20010904/DTD/svg10.dtd">
<svg version="1.0" xmlns="http://www.w3.org/2000/svg"
 width="96.000000pt" height="68.000000pt" viewBox="0 0 96.000000 68.000000"
 preserveAspectRatio="xMidYMid meet">
<metadata>
Created by potrace 1.16, written by Peter Selinger 2001-2019
Combined from part_0.svg through part_5.svg with named groups
</metadata>
<g transform="translate(0.000000,68.000000) scale(0.100000,-0.100000)" fill="#000000" stroke="none">
<g id="part-0" class="char-part">
  <path d="M480 586 c0 -37 -45 -119 -90 -164 -41 -41 -30 -54 13 -14 41 39 50
30 42 -47 -4 -38 -4 -79 0 -90 6 -21 30 -29 37 -12 2 5 22 12 46 16 42 7 42 7
42 -24 0 -18 -6 -34 -12 -36 -7 -3 -60 -9 -118 -13 -95 -8 -102 -10 -76 -20
21 -9 43 -10 84 -2 31 5 73 10 94 10 l38 0 0 -89 c0 -141 28 -127 39 19 l6 75
118 3 c64 1 117 7 117 12 0 19 -75 30 -130 20 -90 -17 -98 -15 -97 25 l1 35
73 0 c40 0 73 4 73 9 0 17 -34 22 -97 15 -59 -6 -63 -5 -63 15 0 14 8 22 25
26 14 3 36 7 50 10 46 10 28 28 -20 21 -43 -7 -45 -6 -45 17 0 16 6 24 18 24
51 -1 72 4 72 17 0 10 -11 12 -42 9 -41 -5 -43 -4 -44 21 -2 24 1 26 40 26 51
0 79 15 47 25 -12 3 -35 4 -51 0 -25 -6 -30 -4 -30 13 0 13 -10 24 -30 30 -36
13 -46 1 -20 -23 11 -10 20 -21 20 -25 0 -7 -111 -33 -116 -27 -2 2 8 20 21
40 29 42 31 62 9 71 -30 12 -44 6 -44 -18z m102 -113 c9 -34 -2 -43 -52 -43
-35 0 -50 4 -54 16 -4 9 -5 18 -4 19 3 2 78 20 99 24 4 0 9 -7 11 -16z m1 -83
c-3 -11 -13 -20 -23 -20 -10 0 -32 -3 -49 -6 -26 -6 -31 -4 -31 13 0 29 8 33
61 33 42 0 47 -2 42 -20z m-3 -65 c0 -23 -3 -25 -50 -25 -43 0 -50 3 -50 19 0
19 16 25 78 30 17 1 22 -4 22 -24z"/>
  <path d="M234 548 c4 -18 10 -54 13 -79 l6 -47 -44 -7 c-95 -14 -109 -17 -109
-25 0 -12 68 -22 101 -15 16 4 29 4 29 0 0 -23 -63 -118 -119 -177 -19 -21
-29 -38 -22 -38 23 0 79 40 116 83 41 47 42 44 24 -78 -10 -66 -9 -78 6 -101
15 -23 19 -24 31 -12 11 10 17 50 21 137 l6 122 23 -22 c25 -23 44 -18 44 12
0 13 -12 25 -35 35 -47 19 -48 49 0 58 58 11 61 38 4 40 l-31 1 6 54 c7 62 -9
91 -52 91 -22 0 -24 -3 -18 -32z"/>
</g>
<g id="part-1" class="char-part">
  <path d="M238 574 c-4 -3 -2 -20 3 -37 5 -18 9 -53 9 -78 l0 -47 -70 -7 c-38
-4 -70 -11 -70 -16 0 -5 29 -9 65 -9 l65 0 -24 -49 c-14 -26 -48 -74 -76 -105
-30 -31 -46 -56 -38 -56 22 0 81 50 113 93 15 21 29 36 31 34 2 -2 -2 -48 -9
-103 -14 -101 -9 -144 19 -144 19 0 23 23 25 150 0 66 5 120 10 120 5 0 14 -9
21 -20 7 -11 21 -20 31 -20 30 0 16 33 -23 52 -19 10 -35 22 -34 28 1 5 2 14
3 20 0 5 19 14 41 20 47 13 44 30 -4 30 l-34 0 5 63 c5 60 4 63 -21 75 -31 14
-31 14 -38 6z"/>
</g>
<g id="part-2" class="char-part">
  <path d="M484 592 c-11 -46 -53 -121 -91 -163 -45 -50 -38 -59 13 -18 37 29
39 30 42 11 2 -12 -1 -46 -7 -77 -8 -42 -7 -61 2 -76 15 -24 37 -25 37 -1 1 9
2 51 3 92 2 41 -1 80 -6 87 -5 7 5 32 28 68 40 63 41 84 8 96 -19 7 -24 4 -29
-19z"/>
</g>
<g id="part-3" class="char-part">
  <path d="M593 413 c-7 -2 -13 -13 -13 -23 0 -13 -11 -19 -50 -24 -27 -4 -50
-11 -50 -17 0 -7 17 -9 50 -4 49 7 50 6 50 -19 0 -23 -4 -25 -47 -28 -29 -2
-48 -8 -51 -17 -4 -11 2 -13 26 -8 18 4 86 9 152 13 66 4 120 10 120 14 0 16
-37 21 -98 14 -63 -6 -64 -6 -60 17 1 13 10 25 18 26 66 8 90 15 84 24 -4 7
-23 8 -50 4 -40 -6 -44 -4 -44 14 0 20 -12 25 -37 14z"/>
</g>
<g id="part-4" class="char-part">
  <path d="M572 249 c3 -37 6 -36 -135 -46 -59 -3 -94 -10 -89 -15 12 -12 59
-13 155 -3 l77 8 0 -97 c0 -91 9 -118 25 -79 4 10 10 54 14 98 l6 80 118 3
c64 1 117 7 117 12 0 19 -65 30 -125 20 -97 -16 -106 -14 -103 18 3 24 -1 27
-30 30 -31 3 -32 2 -30 -29z"/>
</g>
</g>
</svg>