<?xml version="1.0" standalone="no"?>
<!DOCTYPE svg PUBLIC "-//W3C//DTD SVG 20010904//EN"
 "http://www.w3.org/TR/2001/REC-SVG-20010904/DTD/svg10.dtd">
<svg version="1.0" xmlns="http://www.w3.org/2000/svg"
 width="96.000000pt" height="68.000000pt" viewBox="0 0 96.000000 68.000000"
 preserveAspectRatio="xMidYMid meet">
<metadata>
Created by potrace 1.16, written by Peter Selinger 2001-2019
Combined from part_0.svg through part_5.svg with named groups
</metadata>
<g transform="translate(0.000000,68.000000) scale(0.100000,-0.100000)" fill="#000000" stroke="none">
<g id="part-0" class="char-part">
  <path d="M520 563 c1 -15 2 -43 1 -60 -1 -31 -3 -33 -35 -33 -19 0 -38 -4 -41
-10 -4 -6 10 -10 34 -10 47 0 55 -10 47 -55 l-7 -33 -84 -7 c-47 -4 -85 -12
-85 -18 0 -8 149 -4 178 6 4 1 9 -3 12 -8 5 -10 -115 -107 -155 -126 -17 -8
-17 -9 5 -4 14 3 36 8 49 12 l24 6 -6 -91 c-7 -94 3 -123 28 -89 9 13 28 17
73 17 51 0 63 -3 72 -20 6 -11 17 -20 24 -20 30 0 41 33 43 130 4 126 1 128
-110 112 -44 -6 -82 -11 -83 -9 -2 1 25 23 59 49 61 45 64 46 160 53 53 4 97
11 97 16 0 15 -42 21 -103 14 l-62 -7 20 23 c11 13 34 39 52 56 38 38 41 58
11 74 -18 10 -24 8 -35 -7 -7 -10 -13 -24 -13 -31 0 -7 -4 -13 -10 -13 -5 0
-10 -4 -10 -10 0 -5 -10 -22 -22 -36 -60 -70 -89 -83 -84 -36 2 15 4 35 5 45
1 12 9 17 30 17 16 0 36 3 45 6 30 12 16 24 -28 24 l-45 0 -3 48 c-3 41 -6 47
-26 50 -20 3 -23 0 -22 -25z m108 -319 c29 -8 33 -64 3 -64 -10 0 -45 -3 -78
-6 l-59 -6 0 31 c0 28 3 31 35 37 20 3 43 7 51 9 8 1 17 3 20 4 3 0 15 -2 28
-5z m20 -149 c-2 -1 -38 -5 -81 -9 l-78 -6 3 35 c2 33 4 35 38 36 19 0 53 3
75 7 40 7 40 7 43 -26 2 -19 2 -35 0 -37z"/>
  <path d="M240 504 c-19 -7 -53 -13 -75 -13 l-40 -1 0 -163 c0 -108 5 -169 13
-182 8 -14 14 -17 20 -8 4 7 27 15 50 19 37 6 46 3 68 -17 25 -24 26 -24 40
-5 16 23 16 24 16 215 0 141 -1 145 -24 157 -27 15 -23 15 -68 -2z m38 -76 c2
-26 -1 -38 -10 -38 -7 0 -30 -3 -50 -6 l-38 -7 0 41 c0 44 10 51 65 49 27 -2
30 -6 33 -39z m2 -103 c0 -33 -2 -35 -34 -35 -19 0 -41 -3 -50 -6 -13 -5 -16
1 -16 29 0 35 1 36 43 40 23 2 45 4 50 5 4 1 7 -14 7 -33z m2 -100 c4 -39 2
-41 -65 -44 l-49 -2 7 33 c10 47 12 48 59 48 42 0 44 -1 48 -35z"/>
</g>
<g id="part-1" class="char-part">
  <path d="M220 494 c-25 -7 -58 -13 -74 -13 -23 -1 -27 -4 -20 -18 5 -10 8 -73
8 -139 -1 -114 0 -121 17 -117 11 3 19 14 19 24 0 23 5 25 68 34 50 7 52 6 50
-17 -2 -17 3 -24 19 -26 21 -3 22 -1 25 129 3 121 1 132 -17 145 -23 16 -34
16 -95 -2z m65 -61 c8 -44 3 -49 -57 -57 l-48 -6 0 50 c0 46 2 49 28 52 54 6
70 -2 77 -39z m5 -108 c0 -27 -4 -35 -17 -35 -10 0 -35 -3 -55 -6 -38 -7 -38
-7 -38 29 0 39 8 44 73 46 36 1 37 0 37 -34z"/>
</g>
<g id="part-2" class="char-part">
  <path d="M298 223 c-10 -3 -18 -12 -18 -21 0 -14 -11 -18 -55 -20 -44 -3 -55
0 -55 12 0 17 -9 20 -34 10 -20 -8 -21 -34 -1 -60 11 -14 17 -16 23 -7 4 7 29
16 54 19 40 6 47 4 57 -15 7 -11 18 -21 26 -21 17 0 45 38 45 60 0 24 -23 47
-42 43z"/>
</g>
<g id="part-3" class="char-part">
  <path d="M518 530 c4 -58 3 -60 -21 -60 -14 0 -34 -3 -44 -7 -13 -6 -6 -9 27
-13 44 -5 45 -6 48 -42 5 -54 28 -49 36 7 7 41 10 45 36 45 36 0 60 9 60 22 0
7 -18 9 -46 5 l-47 -5 6 48 c6 50 -1 60 -41 60 -14 0 -16 -9 -14 -60z"/>
</g>
<g id="part-4" class="char-part">
  <path d="M694 504 c-10 -20 -38 -58 -63 -85 l-46 -49 -117 -12 c-134 -14 -164
-35 -35 -24 45 3 93 9 107 13 l25 6 -25 -27 c-14 -15 -58 -50 -98 -77 -41 -27
-68 -49 -60 -49 28 1 106 43 173 95 l70 53 98 7 c53 4 97 11 97 15 0 14 -49
20 -107 13 l-57 -6 33 42 c19 24 42 48 53 54 24 15 23 44 -1 57 -28 14 -28 14
-47 -26z"/>
</g>
<g id="part-5" class="char-part">
  <path d="M628 252 c13 -4 23 -11 24 -17 0 -5 4 -20 9 -32 6 -16 5 -23 -4 -23
-7 0 -8 -3 -2 -8 6 -4 10 -25 9 -47 -2 -62 -3 -71 -12 -59 -8 13 -64 25 -56
13 3 -5 11 -9 19 -9 7 0 17 -9 20 -20 7 -23 28 -26 42 -8 5 7 9 58 9 113 l-1
100 -40 2 c-28 1 -33 0 -17 -5z"/>
  <path d="M484 232 c-17 -13 -22 -28 -23 -72 0 -30 -3 -64 -6 -75 -3 -11 -1
-27 5 -35 16 -24 28 5 25 56 -1 24 2 44 7 44 5 0 6 6 1 13 -13 21 -12 41 3 65
17 26 16 27 -12 4z"/>
  <path d="M548 243 c7 -3 16 -2 19 1 4 3 -2 6 -13 5 -11 0 -14 -3 -6 -6z"/>
  <path d="M595 170 c3 -5 12 -10 20 -10 8 0 17 5 20 10 4 6 -5 10 -20 10 -15 0
-24 -4 -20 -10z"/>
  <path d="M535 160 c-3 -5 -1 -10 4 -10 6 0 11 5 11 10 0 6 -2 10 -4 10 -3 0
-8 -4 -11 -10z"/>
  <path d="M500 70 c0 -5 5 -10 10 -10 6 0 10 5 10 10 0 6 -4 10 -10 10 -5 0
-10 -4 -10 -10z"/>
  <path d="M530 70 c0 -5 5 -10 10 -10 6 0 10 5 10 10 0 6 -4 10 -10 10 -5 0
-10 -4 -10 -10z"/>
</g>
</g>
</svg>