<?xml version="1.0" standalone="no"?>
<!DOCTYPE svg PUBLIC "-//W3C//DTD SVG 20010904//EN"
 "http://www.w3.org/TR/2001/REC-SVG-20010904/DTD/svg10.dtd">
<svg version="1.0" xmlns="http://www.w3.org/2000/svg"
 width="96.000000pt" height="68.000000pt" viewBox="0 0 96.000000 68.000000"
 preserveAspectRatio="xMidYMid meet">
<metadata>
Created by potrace 1.16, written by Peter Selinger 2001-2019
Combined from part_0.svg through part_5.svg with named groups
</metadata>
<g transform="translate(0.000000,68.000000) scale(0.100000,-0.100000)" fill="#000000" stroke="none">
<g id="part-0" class="char-part">
  <path d="M560 577 c0 -52 -13 -67 -58 -67 -43 0 -38 -24 6 -28 l32 -3 -15 -36
c-9 -20 -13 -39 -9 -42 6 -6 51 41 69 73 8 14 29 19 93 23 45 3 82 10 82 14 0
19 -44 30 -91 24 -54 -8 -54 -7 -38 29 15 33 -2 56 -42 56 -27 0 -29 -2 -29
-43z"/>
  <path d="M290 578 c1 -7 7 -24 15 -38 8 -14 14 -28 15 -32 0 -4 -36 -10 -80
-14 -73 -6 -79 -8 -69 -25 14 -28 53 -33 105 -15 53 18 58 16 79 -25 21 -41
33 -36 37 14 2 35 7 43 26 45 33 5 27 20 -10 24 -28 3 -33 7 -36 33 -2 16 -9
33 -15 37 -20 12 -67 9 -67 -4z"/>
  <path d="M559 363 c-11 -27 -36 -65 -56 -85 -21 -22 -33 -43 -30 -52 5 -13 13
-13 64 -1 32 7 60 12 62 9 2 -2 -7 -13 -20 -25 -21 -19 -106 -88 -118 -96 -3
-2 3 -11 12 -20 15 -15 20 -15 69 0 70 22 158 38 169 31 5 -3 9 -11 9 -18 0
-14 45 -38 54 -29 16 16 3 54 -26 78 -52 44 -110 58 -78 20 8 -9 9 -19 4 -24
-12 -12 -134 -25 -134 -14 1 4 22 25 48 46 115 91 138 115 126 134 -14 22 -44
30 -44 11 0 -7 -10 -25 -23 -40 -17 -21 -34 -29 -77 -34 l-55 -7 25 29 c13 16
40 46 59 66 29 31 32 40 21 53 -22 26 -40 17 -61 -32z"/>
  <path d="M277 360 c-20 -42 -79 -110 -97 -110 -12 0 -13 -20 -2 -37 5 -8 21
-8 62 3 30 8 61 14 70 14 8 -1 -17 -31 -57 -70 -40 -37 -73 -70 -73 -73 0 -18
46 -14 118 9 78 26 85 27 97 11 7 -9 17 -17 24 -17 20 0 12 46 -12 68 -32 30
-51 29 -43 -2 6 -23 3 -25 -45 -31 -28 -4 -53 -5 -56 -2 -5 5 87 95 140 137
30 24 35 51 13 70 -12 9 -19 4 -40 -28 -14 -22 -30 -43 -35 -47 -17 -10 -111
-18 -111 -9 0 4 25 31 55 59 60 57 65 69 36 85 -26 13 -23 15 -44 -30z"/>
</g>
<g id="part-1" class="char-part">
  <path d="M570 596 c0 -13 -3 -38 -6 -55 -6 -27 -11 -31 -38 -31 -45 0 -65 -16
-31 -24 14 -4 31 -4 37 0 11 7 8 -20 -7 -61 -6 -18 28 15 66 63 6 7 35 12 72
13 34 0 71 4 82 8 33 14 -42 29 -89 19 -21 -5 -41 -6 -44 -4 -2 3 1 20 8 37
12 28 12 33 -5 45 -28 21 -45 17 -45 -10z"/>
  <path d="M297 584 c-3 -3 3 -23 14 -42 18 -35 18 -37 2 -44 -10 -3 -46 -7 -80
-7 -65 -1 -79 -12 -42 -32 20 -10 55 -9 121 7 22 5 29 1 42 -25 23 -44 39 -40
31 8 -6 37 -5 39 27 46 l33 9 -37 3 c-35 4 -38 7 -38 34 0 22 -6 32 -26 39
-29 12 -38 12 -47 4z"/>
</g>
<g id="part-2" class="char-part">
  <path d="M267 346 c-16 -30 -44 -65 -63 -78 -32 -21 -44 -51 -26 -62 11 -6
135 23 147 36 7 7 -6 8 -42 3 -29 -4 -53 -3 -53 2 0 4 27 32 60 62 58 51 60
54 44 72 -26 29 -37 23 -67 -35z"/>
</g>
<g id="part-3" class="char-part">
  <path d="M376 305 c-20 -37 -171 -195 -187 -195 -5 0 -9 -6 -9 -14 0 -27 37
-27 115 -1 l77 26 22 -20 c30 -28 36 -26 36 7 0 31 -36 72 -63 72 -15 0 -16
-3 -7 -21 7 -11 10 -22 8 -23 -8 -7 -108 -22 -108 -17 -1 3 41 45 91 92 84 78
91 87 80 107 -17 31 -34 27 -55 -13z"/>
</g>
<g id="part-4" class="char-part">
  <path d="M661 307 c-21 -35 -140 -152 -181 -179 -24 -15 -24 -17 -8 -34 16
-16 20 -16 70 -1 29 9 77 22 106 28 l54 11 27 -33 c30 -35 51 -33 51 6 0 28
-19 49 -71 75 -52 27 -67 25 -40 -4 12 -13 19 -26 14 -29 -4 -3 -42 -8 -83
-11 -62 -6 -72 -5 -59 6 105 86 179 153 179 163 0 12 -20 35 -31 35 -4 0 -17
-15 -28 -33z"/>
</g>
</g>
</svg>