<?xml version="1.0" standalone="no"?>
<!DOCTYPE svg PUBLIC "-//W3C//DTD SVG 20010904//EN"
 "http://www.w3.org/TR/2001/REC-SVG-20010904/DTD/svg10.dtd">
<svg version="1.0" xmlns="http://www.w3.org/2000/svg"
 width="96.000000pt" height="68.000000pt" viewBox="0 0 96.000000 68.000000"
 preserveAspectRatio="xMidYMid meet">
<metadata>
Created by potrace 1.16, written by Peter Selinger 2001-2019
Combined from part_0.svg through part_5.svg with named groups
</metadata>
<g transform="translate(0.000000,68.000000) scale(0.100000,-0.100000)" fill="#000000" stroke="none">
<g id="part-0" class="char-part">
  <path d="M494 590 c-11 -4 -64 -14 -117 -20 -54 -7 -97 -16 -97 -20 0 -16 48
-19 147 -8 57 6 106 9 109 5 4 -3 4 -16 1 -29 -13 -51 -27 -58 -146 -73 -63
-9 -116 -17 -119 -19 -2 -3 1 -13 6 -23 8 -14 5 -30 -9 -63 -17 -37 -18 -46
-6 -57 12 -12 23 -12 73 1 74 19 240 39 254 31 13 -8 13 -49 -1 -100 -27 -105
-52 -127 -114 -101 -58 25 -60 20 -15 -34 47 -56 67 -61 117 -27 36 24 45 41
68 137 9 35 23 77 31 93 18 33 10 48 -36 67 -22 9 -53 9 -130 1 -148 -16 -174
-15 -165 7 5 9 8 24 9 34 0 13 20 18 118 29 112 11 117 13 112 33 -3 13 6 38
25 68 28 44 29 47 12 62 -19 17 -91 21 -127 6z"/>
</g>
<g id="part-1" class="char-part">
  <path d="M490 585 c-25 -7 -80 -16 -122 -20 -43 -4 -78 -12 -78 -16 0 -12 72
-11 166 2 42 6 80 7 85 2 7 -7 -12 -77 -25 -90 -3 -3 -57 -13 -120 -21 l-115
-16 6 -27 c3 -15 -2 -40 -11 -57 -33 -65 -17 -74 84 -47 30 8 97 18 148 21
l92 7 0 -45 c0 -59 -25 -140 -50 -163 -19 -17 -42 -17 -100 1 l-25 8 30 -36
c46 -55 66 -63 104 -44 41 22 55 46 81 141 11 44 26 90 32 102 27 55 -29 72
-179 57 -164 -18 -167 -18 -157 4 4 9 8 27 8 39 1 25 15 29 146 39 70 5 90 10
86 20 -7 17 18 77 38 94 23 19 19 39 -10 50 -31 12 -56 11 -114 -5z"/>
</g>
</g>
</svg>