<?xml version="1.0" standalone="no"?>
<!DOCTYPE svg PUBLIC "-//W3C//DTD SVG 20010904//EN"
 "http://www.w3.org/TR/2001/REC-SVG-20010904/DTD/svg10.dtd">
<svg version="1.0" xmlns="http://www.w3.org/2000/svg"
 width="96.000000pt" height="68.000000pt" viewBox="0 0 96.000000 68.000000"
 preserveAspectRatio="xMidYMid meet">
<metadata>
Created by potrace 1.16, written by Peter Selinger 2001-2019
Combined from part_0.svg through part_5.svg with named groups
</metadata>
<g transform="translate(0.000000,68.000000) scale(0.100000,-0.100000)" fill="#000000" stroke="none">
<g id="part-0" class="char-part">
  <path d="M604 575 c9 -13 16 -26 16 -29 0 -2 -27 -7 -60 -11 -33 -4 -60 -11
-60 -16 0 -5 7 -9 15 -9 14 0 45 -48 45 -70 0 -5 -20 -10 -45 -10 -25 0 -45
-4 -45 -10 0 -6 30 -10 69 -10 63 0 70 -2 68 -20 -1 -16 -11 -21 -60 -26 -69
-8 -58 -24 16 -24 32 0 47 -4 46 -12 -7 -56 25 -67 35 -13 l7 35 59 0 c57 0
82 11 59 26 -6 3 -36 6 -65 5 -46 -1 -54 2 -54 18 0 15 11 19 61 25 34 3 78 6
98 6 34 1 35 1 16 16 -16 12 -34 14 -82 9 -35 -4 -63 -4 -63 0 0 3 9 15 20 27
15 16 17 25 9 35 -9 10 -5 13 19 13 34 0 51 15 28 23 -8 3 -30 3 -49 0 -28 -4
-39 0 -60 21 -14 14 -34 26 -43 26 -15 0 -15 -2 0 -25z m56 -75 c0 -35 -19
-60 -45 -60 -18 0 -25 5 -25 19 0 10 -7 24 -15 31 -20 17 -8 24 44 28 36 2 41
0 41 -18z"/>
  <path d="M360 569 c-14 -6 -48 -8 -76 -5 l-50 6 0 -68 c0 -80 -21 -128 -89
-199 -25 -25 -43 -48 -41 -50 10 -10 61 22 100 61 41 43 56 48 56 20 0 -7 5
-25 10 -40 8 -21 14 -24 22 -16 7 7 32 12 57 12 56 0 67 7 76 43 4 15 11 30
16 33 17 10 9 34 -14 39 -12 3 -50 -1 -83 -8 -70 -17 -92 -11 -75 21 8 15 25
22 63 27 95 11 107 15 101 31 -3 9 4 28 16 44 11 16 21 33 21 39 0 21 -66 27
-110 10z m40 -32 c0 -27 -27 -49 -68 -57 -36 -6 -42 -5 -42 9 0 30 24 50 65
54 22 2 41 4 43 5 1 1 2 -4 2 -11z m-10 -186 c0 -32 -14 -41 -65 -41 -25 0
-34 5 -39 23 -9 34 -8 35 22 40 73 11 82 9 82 -22z"/>
  <path d="M539 250 c-14 -4 -72 -13 -128 -20 -66 -8 -98 -16 -90 -21 8 -5 35
-6 62 -3 26 4 47 3 47 -1 0 -34 -80 -114 -156 -154 -31 -17 -34 -21 -16 -21
67 0 215 113 217 166 l2 29 78 3 78 3 -6 -53 c-8 -69 -34 -103 -76 -102 -37 2
-37 1 -10 -37 40 -57 87 -23 123 90 12 39 26 74 29 78 13 12 7 41 -9 47 -21 8
-113 6 -145 -4z"/>
</g>
<g id="part-1" class="char-part">
  <path d="M357 565 c-26 -7 -65 -11 -86 -8 l-38 5 5 -56 c4 -47 0 -65 -23 -112
-15 -31 -45 -74 -66 -95 -43 -43 -42 -46 0 -24 41 21 99 92 113 137 10 34 15
38 43 38 64 0 124 12 119 24 -3 7 7 29 20 49 24 35 24 37 6 47 -23 12 -32 12
-93 -5z m43 -33 c0 -32 -24 -50 -71 -57 l-47 -7 7 33 c5 27 13 35 36 40 57 12
75 10 75 -9z"/>
</g>
<g id="part-2" class="char-part">
  <path d="M614 414 c-7 -3 -10 -13 -7 -23 5 -20 -28 -31 -91 -31 -24 0 -27 -3
-16 -10 8 -5 36 -10 63 -10 46 0 47 -1 47 -30 0 -43 27 -39 36 5 l6 35 57 0
c61 0 95 12 66 24 -9 3 -41 6 -71 6 -47 0 -54 2 -54 20 0 19 -12 24 -36 14z"/>
</g>
<g id="part-3" class="char-part">
  <path d="M475 243 c-181 -26 -171 -24 -152 -35 13 -7 47 -5 111 6 52 9 117 16
145 16 l51 0 0 -33 c0 -18 -10 -53 -22 -77 -21 -42 -26 -45 -61 -44 l-38 1 25
-31 c30 -39 45 -42 79 -16 34 27 96 208 75 221 -18 12 -95 9 -213 -8z"/>
</g>
<g id="part-4" class="char-part">
  <path d="M437 209 c-9 -6 -17 -17 -17 -24 0 -23 -74 -91 -135 -126 -31 -17
-54 -33 -53 -35 2 -2 22 2 43 7 53 14 140 74 182 126 32 39 33 42 16 51 -12 7
-25 7 -36 1z"/>
</g>
</g>
</svg>