<?xml version="1.0" standalone="no"?>
<!DOCTYPE svg PUBLIC "-//W3C//DTD SVG 20010904//EN"
 "http://www.w3.org/TR/2001/REC-SVG-20010904/DTD/svg10.dtd">
<svg version="1.0" xmlns="http://www.w3.org/2000/svg"
 width="96.000000pt" height="68.000000pt" viewBox="0 0 96.000000 68.000000"
 preserveAspectRatio="xMidYMid meet">
<metadata>
Created by potrace 1.16, written by Peter Selinger 2001-2019
Combined from part_0.svg through part_5.svg with named groups
</metadata>
<g transform="translate(0.000000,68.000000) scale(0.100000,-0.100000)" fill="#000000" stroke="none">
<g id="part-0" class="char-part">
  <path d="M599 585 c-3 -2 -74 -11 -159 -20 -84 -8 -155 -17 -158 -19 -15 -15
19 -26 82 -26 81 0 86 -4 86 -77 0 -31 -2 -33 -32 -33 -69 0 -288 -25 -288
-32 0 -5 11 -14 25 -20 19 -8 46 -8 108 0 45 6 107 14 138 18 l57 6 -3 -126
c-1 -78 -6 -131 -13 -138 -8 -8 -21 -9 -47 -1 -31 10 -34 9 -26 -5 20 -36 69
-74 88 -68 40 13 48 50 45 203 l-3 143 155 0 c85 0 157 4 160 9 10 16 -24 34
-67 34 -23 0 -89 -3 -146 -8 l-104 -8 5 51 c3 33 1 53 -6 55 -6 2 18 7 54 11
36 4 77 9 93 12 26 5 35 18 20 27 -15 8 -60 17 -64 12z"/>
</g>
<g id="part-1" class="char-part">
  <path d="M428 562 c-184 -21 -181 -37 5 -29 172 8 229 16 224 31 -5 16 -73 15
-229 -2z"/>
</g>
<g id="part-2" class="char-part">
  <path d="M446 473 l6 -59 -168 -13 c-166 -14 -168 -14 -145 -32 28 -22 36 -23
166 -4 152 22 142 25 150 -47 3 -35 2 -94 -2 -133 -8 -66 -9 -70 -33 -69 -14
1 -36 5 -50 9 -21 6 -18 0 21 -40 37 -38 51 -46 69 -40 40 13 49 57 43 208
l-5 137 161 0 c98 0 161 4 161 10 0 5 -14 17 -31 25 -26 14 -43 15 -117 6 -48
-6 -106 -11 -130 -11 l-43 0 3 53 3 52 -32 3 -33 3 6 -58z"/>
</g>
</g>
</svg>