<?xml version="1.0" standalone="no"?>
<!DOCTYPE svg PUBLIC "-//W3C//DTD SVG 20010904//EN"
 "http://www.w3.org/TR/2001/REC-SVG-20010904/DTD/svg10.dtd">
<svg version="1.0" xmlns="http://www.w3.org/2000/svg"
 width="96.000000pt" height="68.000000pt" viewBox="0 0 96.000000 68.000000"
 preserveAspectRatio="xMidYMid meet">
<metadata>
Created by potrace 1.16, written by Peter Selinger 2001-2019
Combined from part_0.svg through part_5.svg with named groups
</metadata>
<g transform="translate(0.000000,68.000000) scale(0.100000,-0.100000)" fill="#000000" stroke="none">
<g id="part-0" class="char-part">
  <path d="M274 523 l1 -98 -75 -11 c-93 -14 -88 -12 -70 -24 8 -5 41 -10 73
-10 31 0 57 -4 57 -8 0 -19 -81 -131 -120 -166 -23 -20 -39 -40 -36 -43 12
-12 69 22 122 74 l56 53 -6 -37 c-16 -116 -17 -178 -2 -198 16 -20 16 -20 36
4 17 20 20 38 20 132 0 60 2 109 5 109 3 0 15 -9 27 -20 26 -24 54 -26 62 -5
10 27 -4 42 -50 55 -38 11 -44 16 -44 40 0 25 4 28 50 34 28 4 50 11 50 17 0
15 -43 28 -74 22 l-28 -6 7 49 c3 27 8 59 11 71 5 25 -29 63 -57 63 -14 0 -16
-12 -15 -97z"/>
  <path d="M637 522 c7 -104 16 -95 -116 -112 -46 -5 -86 -12 -88 -14 -12 -12
49 -17 123 -11 l84 7 -1 -89 c0 -48 -4 -110 -7 -138 -8 -54 -9 -54 -72 -40
-34 8 -34 7 23 -40 58 -47 59 -47 78 -29 16 17 18 37 20 181 l1 161 74 7 c41
4 74 11 74 16 0 19 -42 29 -90 23 l-50 -7 0 35 c0 19 5 50 11 67 13 38 2 55
-43 66 l-27 7 6 -90z"/>
  <path d="M486 298 c62 -72 94 -88 94 -47 0 26 -17 42 -59 57 -49 17 -57 15
-35 -10z"/>
</g>
<g id="part-1" class="char-part">
  <path d="M281 568 c4 -24 8 -64 9 -91 0 -42 -3 -49 -26 -57 -14 -6 -44 -10
-67 -10 -23 0 -49 -5 -57 -10 -10 -7 7 -10 58 -10 39 0 72 -3 72 -7 0 -20 -63
-114 -107 -161 -27 -28 -45 -52 -40 -52 21 0 79 44 117 88 l40 47 0 -60 c0
-33 -5 -79 -10 -102 -11 -48 1 -93 25 -93 20 0 25 26 28 159 l2 113 32 -31
c40 -37 63 -40 63 -7 0 23 -16 34 -77 51 -17 5 -23 14 -23 35 0 25 4 29 47 36
57 11 58 29 2 28 l-41 -1 7 78 c6 71 5 78 -13 88 -41 22 -50 15 -41 -31z"/>
</g>
<g id="part-2" class="char-part">
  <path d="M628 605 c-3 -4 -2 -21 3 -38 5 -18 9 -55 9 -84 0 -59 2 -58 -105
-69 -38 -4 -79 -10 -90 -14 -18 -7 -17 -8 8 -15 27 -7 146 1 175 13 13 4 14
-14 10 -132 -2 -75 -9 -141 -14 -146 -6 -6 -24 -6 -48 1 -21 6 -40 9 -42 7 -4
-5 102 -88 112 -88 4 0 13 8 20 17 10 13 13 61 14 179 l0 161 46 7 c26 3 62 6
80 6 19 0 34 4 34 9 0 17 -61 31 -106 24 l-44 -6 0 33 c0 19 5 49 12 67 10 27
10 36 -2 47 -17 17 -63 30 -72 21z"/>
</g>
<g id="part-3" class="char-part">
  <path d="M506 276 c41 -49 67 -56 72 -19 4 25 -26 47 -77 58 l-34 7 39 -46z"/>
</g>
</g>
</svg>