<?xml version="1.0" standalone="no"?>
<!DOCTYPE svg PUBLIC "-//W3C//DTD SVG 20010904//EN"
 "http://www.w3.org/TR/2001/REC-SVG-20010904/DTD/svg10.dtd">
<svg version="1.0" xmlns="http://www.w3.org/2000/svg"
 width="96.000000pt" height="68.000000pt" viewBox="0 0 96.000000 68.000000"
 preserveAspectRatio="xMidYMid meet">
<metadata>
Created by potrace 1.16, written by Peter Selinger 2001-2019
Combined from part_0.svg through part_5.svg with named groups
</metadata>
<g transform="translate(0.000000,68.000000) scale(0.100000,-0.100000)" fill="#000000" stroke="none">
<g id="part-0" class="char-part">
  <path d="M600 580 c-14 -4 -43 -9 -65 -9 -22 -1 -51 -5 -65 -9 -21 -6 -19 -8
20 -12 42 -5 45 -7 48 -37 3 -29 0 -33 -30 -42 l-33 -9 33 -1 c30 -1 32 -4 32
-35 0 -33 -1 -34 -52 -40 -43 -6 -50 -9 -35 -18 13 -7 44 -6 100 1 45 6 101
13 125 14 68 3 44 22 -30 22 -36 0 -69 3 -72 6 -8 8 11 60 21 58 5 -1 20 -1
36 0 43 2 32 21 -13 21 -38 0 -40 2 -40 30 0 33 7 39 60 43 19 1 34 7 33 12
-3 13 -41 16 -73 5z"/>
  <path d="M258 562 c-49 -8 -88 -18 -88 -23 0 -4 21 -9 48 -11 47 -3 47 -3 50
-41 2 -20 0 -37 -5 -36 -4 1 -24 1 -43 0 -30 -1 -32 -3 -17 -12 11 -6 29 -9
42 -6 20 3 25 -1 31 -26 8 -38 -6 -47 -78 -47 -62 0 -72 -10 -35 -34 20 -14
31 -13 115 14 50 17 99 30 107 30 8 0 15 5 15 10 0 12 -16 13 -58 1 -32 -9
-32 -9 -32 25 0 29 4 35 28 40 51 11 58 18 19 22 -36 3 -38 5 -35 35 3 28 7
32 41 38 45 7 57 17 37 29 -18 12 -32 11 -142 -8z"/>
  <path d="M460 313 c-58 -7 -129 -15 -157 -19 l-53 -5 0 -98 c0 -113 3 -118 88
-146 44 -14 80 -16 210 -13 221 7 288 35 237 102 -8 11 -15 28 -15 38 0 29
-15 21 -25 -14 -16 -51 -52 -70 -159 -81 -105 -12 -283 1 -295 21 -4 6 -6 24
-5 39 1 28 1 28 105 40 213 24 208 24 203 38 -3 7 4 27 17 44 18 24 20 33 10
44 -18 22 -46 24 -161 10z m100 -40 c0 -40 -9 -47 -67 -59 l-53 -11 0 43 c0
47 5 50 83 53 34 1 37 -1 37 -26z m-160 -32 c0 -35 -3 -39 -31 -45 -59 -11
-92 -8 -85 10 3 9 6 26 6 39 0 25 14 31 78 34 31 1 32 0 32 -38z"/>
</g>
<g id="part-1" class="char-part">
  <path d="M253 557 c-105 -14 -94 -32 15 -24 97 8 132 15 132 28 0 11 -50 9
-147 -4z"/>
</g>
<g id="part-2" class="char-part">
  <path d="M537 516 c5 -32 3 -34 -33 -44 l-39 -10 38 -1 c35 -1 37 -3 37 -35 0
-34 0 -34 -57 -41 -51 -7 -55 -8 -33 -17 16 -6 51 -6 98 1 40 6 98 11 128 11
40 0 54 3 51 13 -3 8 -27 11 -81 10 l-76 -3 6 28 c8 33 20 42 56 42 15 0 30 5
33 10 4 6 -12 10 -39 10 -44 0 -46 1 -46 30 0 25 -4 30 -24 30 -22 0 -24 -3
-19 -34z"/>
</g>
<g id="part-3" class="char-part">
  <path d="M470 314 c-52 -7 -123 -15 -157 -16 l-63 -3 0 -64 0 -64 83 6 c135
10 267 29 261 38 -3 5 4 24 15 43 26 41 26 52 4 59 -10 2 -25 7 -33 9 -8 3
-58 -1 -110 -8z m86 -22 c7 -4 8 -18 2 -38 -7 -26 -14 -32 -45 -38 -70 -11
-73 -10 -73 33 0 37 2 40 33 44 57 7 72 7 83 -1z m-156 -52 c0 -31 -4 -40 -17
-40 -10 0 -35 -3 -55 -6 l-38 -7 0 37 c0 41 19 54 78 55 31 1 32 0 32 -39z"/>
</g>
<g id="part-4" class="char-part">
  <path d="M745 158 c-14 -45 -50 -67 -130 -80 -70 -10 -275 -6 -307 7 -11 4
-18 20 -20 43 -2 26 -8 38 -21 40 -14 3 -17 -4 -17 -36 0 -75 69 -102 260
-102 181 0 300 28 286 68 -21 66 -32 92 -36 92 -3 0 -10 -14 -15 -32z"/>
</g>
</g>
</svg>