<?xml version="1.0" standalone="no"?>
<!DOCTYPE svg PUBLIC "-//W3C//DTD SVG 20010904//EN"
 "http://www.w3.org/TR/2001/REC-SVG-20010904/DTD/svg10.dtd">
<svg version="1.0" xmlns="http://www.w3.org/2000/svg"
 width="96.000000pt" height="68.000000pt" viewBox="0 0 96.000000 68.000000"
 preserveAspectRatio="xMidYMid meet">
<metadata>
Created by potrace 1.16, written by Peter Selinger 2001-2019
Combined from part_0.svg through part_5.svg with named groups
</metadata>
<g transform="translate(0.000000,68.000000) scale(0.100000,-0.100000)" fill="#000000" stroke="none">
<g id="part-0" class="char-part">
  <path d="M635 584 c-27 -8 -64 -12 -81 -9 l-31 5 5 -82 c4 -81 15 -115 30 -92
4 6 40 14 80 17 l72 6 0 -152 c0 -190 -3 -200 -44 -192 l-31 7 36 -37 c33 -34
38 -36 58 -24 30 20 35 61 28 258 -4 110 -2 193 5 225 10 46 9 51 -12 68 -26
21 -47 21 -115 2z m73 -40 c3 -19 -4 -22 -60 -30 -35 -4 -67 -8 -72 -8 -14 -1
-16 32 -3 43 14 11 60 19 102 17 22 -1 31 -6 33 -22z m2 -63 c0 -26 -3 -27
-77 -35 -62 -7 -63 -7 -63 18 0 21 5 25 38 29 91 9 102 8 102 -12z"/>
  <path d="M310 559 c-19 -5 -55 -8 -80 -7 -40 2 -45 0 -42 -18 21 -115 15 -312
-11 -374 -16 -38 -5 -90 18 -90 26 0 31 21 41 194 l7 126 46 1 c113 4 101 -4
127 78 23 70 24 74 7 87 -20 15 -61 16 -113 3z m50 -38 c0 -25 -98 -47 -107
-24 -3 7 -3 16 -1 19 4 4 65 18 101 23 4 1 7 -7 7 -18z m0 -66 c0 -18 -8 -21
-68 -29 -38 -6 -43 -4 -40 11 2 13 16 20 48 24 25 3 48 7 53 7 4 1 7 -5 7 -13z"/>
  <path d="M465 380 c-16 -4 -46 -8 -65 -9 l-35 -1 1 -63 c2 -88 1 -87 29 -87
18 0 25 -5 25 -19 0 -15 -11 -20 -62 -25 -42 -5 -57 -10 -48 -16 8 -5 34 -6
57 -3 57 8 58 -17 3 -53 -22 -15 -38 -29 -36 -32 11 -11 64 21 96 58 30 35 40
40 80 41 25 1 56 4 70 9 22 6 23 8 7 15 -10 4 -40 5 -67 2 -38 -5 -50 -3 -54
9 -10 25 -8 26 37 22 l42 -3 3 74 c4 92 -5 101 -83 81z m45 -30 c0 -17 -7 -20
-50 -20 -27 0 -53 0 -57 0 -5 0 -8 6 -8 13 0 11 41 23 93 26 16 1 22 -5 22
-19z m0 -45 c0 -8 -6 -15 -14 -15 -7 0 -35 -3 -61 -7 -38 -5 -47 -3 -43 8 4
12 28 18 106 27 6 1 12 -5 12 -13z m0 -39 c0 -10 -17 -17 -55 -21 -83 -11 -94
12 -12 26 65 10 67 10 67 -5z"/>
  <path d="M590 252 c0 -19 40 -44 57 -37 16 6 16 8 -6 26 -24 20 -51 25 -51 11z"/>
  <path d="M520 100 c46 -40 70 -50 70 -27 0 22 -15 36 -53 52 -59 25 -64 18
-17 -25z"/>
</g>
<g id="part-1" class="char-part">
  <path d="M330 559 c-14 -6 -51 -11 -83 -11 -54 -1 -58 -3 -53 -22 4 -12 9 -46
12 -78 l7 -56 89 1 89 2 15 55 c8 30 19 63 24 72 8 14 4 21 -20 33 -33 17 -45
18 -80 4z m40 -39 c0 -23 -6 -26 -73 -35 -47 -6 -48 -6 -45 17 3 23 29 34 91
37 21 1 27 -4 27 -19z m-12 -71 c-3 -18 -11 -22 -55 -26 -48 -4 -53 -2 -53 16
0 20 17 26 83 30 24 1 28 -3 25 -20z"/>
</g>
<g id="part-2" class="char-part">
  <path d="M710 278 c0 -192 -2 -201 -44 -192 l-31 6 34 -36 c42 -44 56 -45 76
-6 16 31 20 185 8 313 -5 56 -9 67 -24 67 -18 0 -19 -11 -19 -152z"/>
</g>
<g id="part-3" class="char-part">
  <path d="M455 378 c-22 -5 -52 -7 -66 -4 -25 5 -25 4 -25 -60 0 -35 3 -64 7
-64 4 0 20 5 35 11 16 5 53 11 84 12 l55 3 6 47 c4 39 2 50 -12 58 -21 11 -30
10 -84 -3z m50 -28 c0 -18 -94 -35 -109 -20 -13 13 -3 21 36 30 46 11 73 8 73
-10z m5 -44 c0 -17 -98 -32 -113 -17 -11 11 -1 17 43 24 51 9 70 7 70 -7z"/>
</g>
<g id="part-4" class="char-part">
  <path d="M520 263 c-16 -12 -45 -17 -91 -17 -45 -1 -65 -5 -62 -12 3 -7 34
-10 91 -9 71 2 88 6 90 19 6 30 -3 36 -28 19z"/>
</g>
<g id="part-5" class="char-part">
  <path d="M434 204 c3 -8 2 -13 -3 -10 -7 5 -21 -15 -21 -30 0 -6 38 1 46 8 3
4 13 4 22 2 14 -5 14 -4 0 6 -10 6 -18 18 -18 25 0 8 -7 15 -16 15 -10 0 -14
-5 -10 -16z"/>
  <path d="M540 188 c0 -4 4 -8 9 -8 6 0 12 4 15 8 3 5 -1 9 -9 9 -8 0 -15 -4
-15 -9z"/>
  <path d="M378 173 c7 -3 16 -2 19 1 4 3 -2 6 -13 5 -11 0 -14 -3 -6 -6z"/>
  <path d="M397 119 c-21 -22 -30 -36 -20 -30 20 10 66 61 61 66 -2 2 -20 -15
-41 -36z"/>
  <path d="M500 125 c0 -2 17 -15 37 -29 37 -25 63 -26 40 -2 -9 10 -14 11 -19
2 -5 -7 -8 -5 -8 6 0 11 -5 15 -15 12 -8 -4 -15 -1 -15 5 0 6 -4 11 -10 11 -5
0 -10 -2 -10 -5z"/>
</g>
</g>
</svg>