<?xml version="1.0" standalone="no"?>
<!DOCTYPE svg PUBLIC "-//W3C//DTD SVG 20010904//EN"
 "http://www.w3.org/TR/2001/REC-SVG-20010904/DTD/svg10.dtd">
<svg version="1.0" xmlns="http://www.w3.org/2000/svg"
 width="96.000000pt" height="68.000000pt" viewBox="0 0 96.000000 68.000000"
 preserveAspectRatio="xMidYMid meet">
<metadata>
Created by potrace 1.16, written by Peter Selinger 2001-2019
Combined from part_0.svg through part_5.svg with named groups
</metadata>
<g transform="translate(0.000000,68.000000) scale(0.100000,-0.100000)" fill="#000000" stroke="none">
<g id="part-0" class="char-part">
  <path d="M264 608 c3 -13 9 -39 12 -59 7 -40 6 -41 -69 -54 -52 -8 -37 -25 24
-25 45 0 49 -2 49 -24 0 -29 -16 -36 -81 -36 -53 0 -54 -1 -39 -28 6 -9 17
-39 23 -67 9 -35 17 -49 27 -46 8 2 27 6 43 9 25 4 27 2 27 -31 l0 -35 -85 -7
c-47 -4 -88 -12 -92 -17 -5 -10 98 -7 147 4 12 2 15 -9 13 -60 -2 -42 2 -71
11 -83 13 -19 15 -19 30 -3 12 12 17 32 16 68 -3 90 -6 86 53 87 28 1 66 5 82
9 l30 7 -28 8 c-16 4 -53 5 -83 1 l-54 -6 0 29 c0 21 6 30 22 34 12 4 27 2 34
-4 20 -16 41 0 54 43 6 23 19 52 27 65 15 22 14 25 -3 39 -14 10 -34 13 -71
10 -50 -4 -53 -3 -53 19 0 20 6 25 45 31 28 4 45 11 45 20 0 14 -14 17 -60 15
-24 -2 -25 0 -22 39 5 46 -14 69 -57 70 -19 0 -22 -4 -17 -22z m138 -193 c3
-3 3 -17 0 -30 -4 -22 -9 -25 -41 -22 -27 3 -37 9 -39 25 -2 15 3 22 20 25 36
7 54 7 60 2z m-122 -35 c0 -11 -3 -20 -7 -21 -64 -8 -80 -2 -69 26 3 9 19 15
41 15 28 0 35 -4 35 -20z m110 -55 c0 -22 -4 -25 -35 -25 -28 0 -35 4 -35 19
0 21 13 29 48 30 17 1 22 -5 22 -24z m-110 -10 c0 -16 -7 -21 -30 -23 -26 -2
-30 1 -30 23 0 22 4 25 30 23 23 -2 30 -7 30 -23z"/>
  <path d="M625 513 c-11 -2 -44 -9 -74 -15 -58 -11 -54 -28 6 -26 18 1 36 -2
40 -5 3 -4 8 -31 11 -61 4 -49 2 -54 -19 -59 -13 -4 -48 -7 -76 -7 -29 0 -53
-4 -53 -10 0 -11 16 -13 95 -14 l50 -1 3 -147 c1 -82 7 -148 12 -148 19 0 25
30 30 165 l5 140 93 3 c68 2 92 6 89 15 -2 8 -34 13 -92 15 l-87 3 4 50 c4 37
2 52 -8 56 -33 12 -9 23 51 23 62 0 84 11 49 24 -17 7 -97 6 -129 -1z"/>
</g>
<g id="part-1" class="char-part">
  <path d="M277 567 l6 -65 -53 -7 c-43 -6 -50 -9 -36 -17 10 -6 33 -8 52 -5 32
5 34 4 34 -24 0 -24 4 -30 18 -27 10 2 18 14 20 30 3 23 10 28 40 34 20 4 44
10 52 14 21 12 -31 24 -61 15 -21 -7 -21 -5 -15 37 7 48 0 60 -41 72 -22 7
-22 6 -16 -57z"/>
</g>
<g id="part-2" class="char-part">
  <path d="M278 245 l-3 -30 -87 -9 c-116 -12 -117 -31 -2 -22 l86 6 -7 -62 c-5
-49 -3 -67 9 -83 16 -20 16 -20 31 -1 10 13 15 43 15 88 l0 68 58 1 c31 1 68
4 82 8 l25 7 -32 11 c-17 6 -33 10 -35 8 -1 -1 -24 -6 -50 -9 l-48 -7 0 30 c0
23 -4 29 -20 28 -14 -1 -20 -10 -22 -32z"/>
</g>
<g id="part-3" class="char-part">
  <path d="M575 505 c-38 -7 -72 -13 -75 -14 -3 -1 3 -6 13 -12 25 -14 259 9
254 25 -5 16 -109 16 -192 1z"/>
</g>
<g id="part-4" class="char-part">
  <path d="M607 419 c7 -70 1 -78 -62 -80 -22 0 -51 -4 -65 -8 -24 -7 -23 -8 12
-14 20 -4 55 -5 77 -1 l41 7 0 -152 c0 -141 6 -171 27 -139 4 7 10 76 13 153
l5 140 90 3 c49 2 94 7 98 11 16 16 -48 28 -116 21 -38 -3 -70 -3 -72 0 -2 3
1 25 5 50 9 48 -4 70 -42 70 -16 0 -17 -7 -11 -61z"/>
</g>
</g>
</svg>