<?xml version="1.0" standalone="no"?>
<!DOCTYPE svg PUBLIC "-//W3C//DTD SVG 20010904//EN"
 "http://www.w3.org/TR/2001/REC-SVG-20010904/DTD/svg10.dtd">
<svg version="1.0" xmlns="http://www.w3.org/2000/svg"
 width="96.000000pt" height="68.000000pt" viewBox="0 0 96.000000 68.000000"
 preserveAspectRatio="xMidYMid meet">
<metadata>
Created by potrace 1.16, written by Peter Selinger 2001-2019
Combined from part_0.svg through part_5.svg with named groups
</metadata>
<g transform="translate(0.000000,68.000000) scale(0.100000,-0.100000)" fill="#000000" stroke="none">
<g id="part-0" class="char-part">
  <path d="M247 553 c-3 -16 -29 -56 -56 -90 -57 -70 -48 -82 22 -29 43 33 107
56 107 39 0 -4 -18 -29 -40 -54 -39 -46 -40 -46 -100 -45 -33 1 -55 -1 -49 -5
6 -3 19 -40 29 -80 9 -40 22 -75 28 -77 7 -2 12 1 12 6 0 15 147 27 163 13 11
-8 18 4 37 57 13 37 25 72 27 79 5 12 -51 46 -60 37 -3 -3 -18 -7 -33 -9 -25
-2 -22 3 36 55 l65 58 -28 13 c-21 9 -36 10 -66 1 -49 -15 -58 -15 -43 0 17
17 15 45 -4 52 -30 11 -42 6 -47 -21z m131 -200 c3 -21 -1 -23 -37 -23 -27 0
-41 4 -41 13 0 41 72 50 78 10z m-117 -5 c12 -20 -10 -38 -47 -38 -29 0 -34 4
-34 23 0 19 6 23 37 25 21 2 40 -2 44 -10z m109 -47 c0 -27 -15 -41 -41 -41
-24 0 -29 4 -29 25 0 22 4 25 35 25 19 0 35 -4 35 -9z m-110 -26 c0 -21 -5
-25 -30 -25 -16 0 -30 2 -30 4 0 2 -3 11 -6 19 -5 15 10 23 49 26 12 1 17 -6
17 -24z"/>
  <path d="M543 525 c-46 -65 -56 -76 -72 -74 -33 3 -56 -1 -45 -9 19 -12 31
-45 38 -102 8 -65 18 -85 40 -77 26 10 20 -33 -13 -84 -15 -25 -46 -60 -67
-78 -41 -36 -21 -35 32 1 37 25 104 121 104 149 0 14 5 19 18 17 14 -3 18 -18
22 -90 7 -118 16 -128 115 -128 115 0 148 30 105 95 l-20 30 0 -25 c-1 -46
-23 -62 -90 -63 -42 -1 -64 3 -69 12 -10 15 -4 80 10 125 6 19 5 33 -2 42 -9
11 -7 14 8 14 10 0 24 -5 29 -10 16 -16 29 5 52 85 11 39 23 78 27 87 12 31
-34 43 -105 28 -69 -15 -70 -25 -2 -25 43 0 47 -2 47 -25 0 -22 -5 -26 -42
-31 -60 -8 -65 -19 -9 -19 47 0 48 0 41 -27 -3 -16 -9 -31 -13 -35 -4 -4 -46
-10 -94 -14 l-88 -7 0 37 c0 24 4 36 13 35 30 -4 57 2 57 12 0 8 -13 9 -39 5
-36 -5 -39 -4 -46 21 -7 30 9 47 78 84 38 20 46 36 25 57 -17 17 -25 15 -45
-13z"/>
  <path d="M360 190 c0 -17 35 -70 48 -70 6 0 12 11 12 24 0 13 -6 28 -12 33
-20 15 -48 23 -48 13z"/>
  <path d="M116 146 c-20 -43 -21 -76 -1 -76 18 0 47 55 43 82 -5 34 -24 31 -42
-6z"/>
  <path d="M210 170 c0 -6 7 -25 16 -42 18 -34 41 -25 29 11 -7 23 -45 49 -45
31z"/>
  <path d="M290 176 c0 -20 22 -56 35 -56 20 0 19 24 -1 44 -14 15 -34 21 -34
12z"/>
</g>
<g id="part-1" class="char-part">
  <path d="M243 533 c-12 -27 -40 -67 -63 -90 -50 -50 -23 -49 37 1 36 31 113
55 113 36 0 -5 -10 -21 -23 -37 -53 -66 -54 -67 -34 -60 22 8 145 109 146 119
1 4 -8 12 -20 18 -15 9 -31 8 -66 -4 -26 -9 -48 -16 -50 -16 -2 0 4 12 14 26
16 25 16 27 -2 40 -27 20 -28 19 -52 -33z"/>
</g>
<g id="part-2" class="char-part">
  <path d="M372 160 c26 -45 48 -52 48 -16 0 25 -32 56 -58 56 -9 0 -6 -12 10
-40z"/>
  <path d="M121 157 c-25 -40 -28 -87 -6 -87 16 0 45 49 45 77 -1 41 -17 46 -39
10z"/>
  <path d="M281 183 c1 -16 35 -66 44 -67 6 0 11 9 13 21 2 16 -5 26 -27 38 -17
8 -31 12 -30 8z"/>
  <path d="M220 140 c21 -40 40 -45 40 -11 0 20 -30 51 -48 51 -8 0 -5 -14 8
-40z"/>
</g>
<g id="part-3" class="char-part">
  <path d="M534 518 c-9 -18 -26 -43 -37 -55 -27 -30 -16 -29 41 4 74 42 75 43
56 64 -25 27 -41 23 -60 -13z"/>
</g>
<g id="part-4" class="char-part">
  <path d="M640 466 c-55 -15 -41 -27 18 -16 46 8 57 0 50 -37 -2 -12 -17 -20
-47 -25 -60 -10 -63 -18 -7 -18 l48 0 -7 -32 c-4 -18 -8 -34 -9 -35 0 0 -43
-4 -93 -8 l-93 -8 0 37 c0 35 1 36 35 36 19 0 35 5 35 11 0 8 -13 9 -40 5
l-40 -6 -6 40 c-6 34 -10 40 -30 40 -28 0 -28 0 -10 -35 8 -15 18 -51 21 -79
9 -62 22 -89 38 -79 17 10 30 12 126 16 l84 3 28 90 c26 82 27 90 12 102 -20
15 -53 14 -113 -2z"/>
</g>
<g id="part-5" class="char-part">
  <path d="M607 263 c-9 -20 -8 -163 2 -163 6 0 11 5 11 10 0 13 0 12 16 72 7
29 14 56 14 60 0 11 -38 29 -43 21z m14 -85 c-3 -21 -6 -26 -9 -15 -3 17 3 47
11 47 2 0 1 -15 -2 -32z"/>
  <path d="M805 123 c-5 -23 -14 -33 -34 -38 -59 -16 -92 -16 -115 -1 -22 14
-36 12 -36 -5 0 -4 19 -10 43 -14 23 -4 51 -9 61 -11 24 -4 93 15 105 30 6 7
4 23 -4 41 l-13 30 -7 -32z"/>
</g>
</g>
</svg>