<?xml version="1.0" standalone="no"?>
<!DOCTYPE svg PUBLIC "-//W3C//DTD SVG 20010904//EN"
 "http://www.w3.org/TR/2001/REC-SVG-20010904/DTD/svg10.dtd">
<svg version="1.0" xmlns="http://www.w3.org/2000/svg"
 width="96.000000pt" height="68.000000pt" viewBox="0 0 96.000000 68.000000"
 preserveAspectRatio="xMidYMid meet">
<metadata>
Created by potrace 1.16, written by Peter Selinger 2001-2019
Combined from part_0.svg through part_5.svg with named groups
</metadata>
<g transform="translate(0.000000,68.000000) scale(0.100000,-0.100000)" fill="#000000" stroke="none">
<g id="part-0" class="char-part">
  <path d="M270 596 c0 -8 5 -18 10 -21 6 -3 10 -39 10 -80 0 -83 6 -78 -107
-91 -35 -3 -63 -10 -63 -14 0 -14 50 -21 100 -14 36 5 50 3 50 -5 0 -18 -86
-135 -126 -173 -41 -39 -42 -47 -7 -40 15 3 56 33 91 68 l65 62 -7 -56 c-17
-142 -17 -167 -2 -186 23 -28 46 -4 46 48 0 22 3 78 7 124 l6 83 27 -26 c30
-29 45 -32 54 -10 9 26 -4 42 -45 54 -34 10 -39 16 -39 41 0 27 4 30 39 36 21
3 44 10 52 15 24 15 -11 30 -55 24 l-38 -6 6 33 c19 110 19 115 -5 132 -29 20
-69 21 -69 2z"/>
  <path d="M665 550 c-3 -6 -33 -28 -65 -50 -53 -36 -64 -40 -100 -34 -43 7 -49
-1 -28 -35 18 -30 -6 -173 -41 -246 -17 -33 -28 -61 -27 -62 2 -2 18 11 36 29
36 36 65 94 75 149 7 39 27 49 95 49 l27 0 6 -112 c4 -62 7 -137 7 -165 0 -53
11 -68 25 -35 7 14 25 226 27 310 0 19 5 22 42 22 48 0 86 9 86 20 0 19 -59
19 -156 0 -144 -27 -144 -27 -144 15 0 19 5 35 11 35 5 0 29 8 52 18 23 10 62
27 87 37 61 25 67 32 44 50 -22 17 -50 19 -59 5z"/>
</g>
<g id="part-1" class="char-part">
  <path d="M287 568 c5 -24 8 -68 8 -98 l0 -55 -82 -9 c-104 -12 -110 -30 -8
-24 41 2 75 0 75 -5 0 -18 -74 -122 -120 -168 -27 -27 -44 -49 -37 -49 24 0
83 42 128 91 l45 50 -9 -83 c-13 -119 -13 -156 0 -169 9 -9 16 -9 28 1 12 10
15 36 15 131 0 66 3 119 6 119 3 0 17 -9 31 -20 31 -24 53 -26 53 -4 0 22 -29
43 -57 44 -20 0 -23 5 -23 35 0 38 3 40 63 50 50 8 37 25 -20 25 l-46 0 7 61
c4 33 10 66 12 74 4 8 -6 20 -25 29 -47 25 -52 21 -44 -26z"/>
</g>
<g id="part-2" class="char-part">
  <path d="M649 539 c-13 -12 -43 -34 -66 -50 -36 -25 -48 -28 -83 -23 -32 5
-40 4 -40 -9 0 -9 5 -19 11 -23 29 -17 -16 -225 -61 -286 -11 -16 -17 -28 -12
-28 14 0 70 57 86 88 21 40 46 143 46 188 l0 39 101 39 c55 22 103 44 106 49
7 12 -25 37 -47 37 -9 0 -28 -9 -41 -21z"/>
</g>
<g id="part-3" class="char-part">
  <path d="M646 387 c-68 -14 -111 -27 -114 -36 -4 -13 26 -12 111 5 12 2 62 9
110 15 52 7 85 15 79 21 -18 18 -79 16 -186 -5z"/>
</g>
<g id="part-4" class="char-part">
  <path d="M647 354 c-6 -6 2 -326 9 -333 2 -3 10 1 16 7 7 7 14 67 18 150 4 77
11 145 15 152 12 20 -40 42 -58 24z"/>
</g>
</g>
</svg>