<?xml version="1.0" standalone="no"?>
<!DOCTYPE svg PUBLIC "-//W3C//DTD SVG 20010904//EN"
 "http://www.w3.org/TR/2001/REC-SVG-20010904/DTD/svg10.dtd">
<svg version="1.0" xmlns="http://www.w3.org/2000/svg"
 width="96.000000pt" height="68.000000pt" viewBox="0 0 96.000000 68.000000"
 preserveAspectRatio="xMidYMid meet">
<metadata>
Created by potrace 1.16, written by Peter Selinger 2001-2019
Combined from part_0.svg through part_5.svg with named groups
</metadata>
<g transform="translate(0.000000,68.000000) scale(0.100000,-0.100000)" fill="#000000" stroke="none">
<g id="part-0" class="char-part">
  <path d="M408 536 c-75 -11 -140 -24 -143 -28 -15 -15 68 -27 118 -17 30 5 54
6 60 0 5 -5 6 -29 2 -54 -8 -54 -8 -54 -182 -63 -68 -4 -123 -11 -123 -15 0
-18 58 -21 167 -9 63 7 116 10 120 7 3 -3 2 -27 -1 -51 -8 -52 -24 -61 -101
-54 -50 4 -52 2 -31 -28 8 -11 21 -45 29 -75 l14 -54 69 2 c122 3 237 15 225
22 -12 8 4 67 31 110 11 20 11 24 -7 37 -16 12 -36 14 -93 9 -40 -3 -80 -9
-88 -12 -13 -5 -14 1 -9 33 14 79 0 73 172 76 110 2 158 7 160 15 7 19 -57 31
-117 22 -30 -4 -85 -8 -122 -8 -75 -1 -81 5 -53 59 14 26 13 30 -1 38 -11 6
11 11 70 14 48 3 90 9 94 13 14 14 -33 35 -77 34 -25 -1 -108 -11 -183 -23z
m179 -337 c-4 -29 -9 -54 -11 -57 -10 -9 -199 -23 -206 -15 -4 4 -12 29 -18
55 l-9 47 66 6 c36 3 75 7 86 9 11 2 38 4 59 5 l39 1 -6 -51z"/>
</g>
<g id="part-1" class="char-part">
  <path d="M433 536 c-84 -12 -155 -25 -159 -29 -12 -12 48 -20 99 -12 29 4 105
12 169 18 64 7 119 15 123 18 6 7 -51 30 -69 28 -6 -1 -79 -11 -163 -23z"/>
</g>
<g id="part-2" class="char-part">
  <path d="M444 455 c0 -30 -3 -57 -6 -61 -4 -3 -72 -11 -152 -17 -142 -11 -174
-20 -120 -33 24 -6 61 -4 208 12 l59 7 -7 -51 c-6 -47 -5 -52 12 -52 15 0 22
12 31 55 l12 55 152 0 c166 0 205 9 146 34 -28 12 -49 13 -100 6 -35 -5 -92
-10 -126 -10 -69 0 -73 5 -48 54 18 35 6 56 -34 56 -25 0 -26 -2 -27 -55z"/>
</g>
<g id="part-3" class="char-part">
  <path d="M475 264 c-44 -7 -109 -13 -145 -14 -36 0 -60 -4 -54 -8 18 -11 37
-53 49 -107 6 -27 16 -50 21 -50 8 1 62 5 232 22 42 3 60 9 54 15 -11 11 5 67
30 107 11 20 11 24 -6 37 -23 16 -71 16 -181 -2z m112 -60 c-2 -25 -9 -50 -15
-56 -14 -14 -191 -33 -202 -22 -4 5 -11 30 -15 56 l-7 46 53 6 c30 3 68 8 84
9 17 2 47 5 69 6 l39 1 -6 -46z"/>
</g>
</g>
</svg>