<?xml version="1.0" standalone="no"?>
<!DOCTYPE svg PUBLIC "-//W3C//DTD SVG 20010904//EN"
 "http://www.w3.org/TR/2001/REC-SVG-20010904/DTD/svg10.dtd">
<svg version="1.0" xmlns="http://www.w3.org/2000/svg"
 width="96.000000pt" height="68.000000pt" viewBox="0 0 96.000000 68.000000"
 preserveAspectRatio="xMidYMid meet">
<metadata>
Created by potrace 1.16, written by Peter Selinger 2001-2019
Combined from part_0.svg through part_5.svg with named groups
</metadata>
<g transform="translate(0.000000,68.000000) scale(0.100000,-0.100000)" fill="#000000" stroke="none">
<g id="part-0" class="char-part">
  <path d="M221 568 c-6 -18 -29 -56 -51 -85 -21 -29 -35 -55 -30 -58 5 -3 29
13 55 35 27 23 57 40 71 40 29 0 30 -3 2 -49 -30 -51 -46 -61 -94 -61 l-42 0
14 -37 c7 -21 13 -52 14 -70 0 -36 14 -50 35 -33 8 7 42 10 85 9 39 -1 75 2
79 7 16 17 52 134 45 145 -8 14 -110 7 -125 -8 -8 -8 3 -9 35 -6 52 6 52 5 35
-63 -9 -34 -17 -46 -36 -50 -13 -4 -29 -2 -34 3 -16 16 1 43 26 43 13 0 27 5
30 10 4 6 -7 10 -25 10 -24 0 -31 4 -27 14 3 8 -2 17 -10 21 -13 4 -4 19 45
68 34 34 62 68 62 74 0 18 -38 22 -86 7 l-47 -14 19 21 c14 15 16 24 8 37 -19
30 -41 26 -53 -10z m17 -210 c-2 -16 -10 -22 -30 -23 -16 0 -28 2 -28 6 0 4
-3 14 -6 23 -5 13 1 16 31 16 32 0 36 -3 33 -22z m2 -63 c0 -20 -5 -25 -25
-25 -20 0 -25 5 -25 25 0 20 5 25 25 25 20 0 25 -5 25 -25z"/>
  <path d="M511 509 c-13 -5 -39 -6 -58 -3 -34 6 -35 6 -27 -17 14 -39 10 -265
-5 -293 -16 -28 -9 -56 13 -56 8 0 41 18 72 40 54 38 58 39 76 23 24 -22 49
-3 32 25 -15 23 -73 56 -82 47 -4 -4 -1 -10 6 -12 22 -8 13 -31 -20 -47 -55
-28 -60 -23 -56 47 l3 62 53 1 c29 1 55 3 57 6 13 12 45 152 40 169 -7 21 -61
25 -104 8z m57 -42 c2 -17 -1 -27 -10 -27 -7 0 -30 -3 -50 -6 -36 -6 -38 -5
-38 19 0 21 7 28 33 36 47 14 62 9 65 -22z m-12 -103 c-4 -9 -21 -14 -50 -14
-43 0 -44 1 -37 28 6 22 14 28 47 32 32 4 40 2 42 -13 2 -10 1 -25 -2 -33z"/>
  <path d="M740 511 c-14 -4 -40 -6 -59 -3 -29 3 -33 1 -27 -13 3 -9 6 -120 6
-246 0 -143 4 -229 10 -229 15 0 19 33 25 249 3 113 8 208 11 213 3 4 23 8 45
8 l39 0 0 -57 c0 -87 -7 -103 -42 -103 l-29 0 18 -25 c44 -60 87 -13 97 109 6
68 5 80 -11 92 -20 15 -44 16 -83 5z"/>
  <path d="M340 223 c0 -5 7 -16 15 -27 18 -24 39 -12 25 15 -10 18 -40 27 -40
12z"/>
  <path d="M270 217 c0 -14 24 -57 32 -57 15 0 8 27 -12 45 -11 10 -20 15 -20
12z"/>
  <path d="M115 180 c-28 -54 -12 -103 19 -58 18 25 22 88 6 88 -5 0 -16 -13
-25 -30z"/>
  <path d="M204 168 c17 -40 36 -48 36 -16 0 26 -17 48 -37 48 -9 0 -9 -7 1 -32z"/>
</g>
<g id="part-1" class="char-part">
  <path d="M230 576 c0 -8 -20 -44 -45 -80 -25 -36 -42 -66 -38 -66 3 0 24 15
47 33 37 30 106 56 106 40 0 -3 -13 -28 -30 -54 -16 -27 -25 -49 -20 -49 17 0
130 122 123 133 -6 9 -54 5 -103 -9 l-25 -8 18 28 c10 14 15 31 12 36 -10 15
-45 12 -45 -4z"/>
</g>
<g id="part-2" class="char-part">
  <path d="M347 210 c18 -31 43 -40 43 -16 0 15 -36 46 -53 46 -4 0 0 -13 10
-30z"/>
  <path d="M115 181 c-18 -40 -18 -72 1 -78 23 -8 47 97 25 111 -4 3 -16 -12
-26 -33z"/>
  <path d="M270 210 c0 -18 20 -50 30 -50 18 0 10 39 -10 50 -14 8 -20 8 -20 0z"/>
  <path d="M203 168 c16 -39 37 -48 37 -16 0 26 -17 48 -37 48 -11 0 -11 -6 0
-32z"/>
</g>
<g id="part-3" class="char-part">
  <path d="M525 513 c-23 -8 -53 -11 -73 -7 -31 6 -34 5 -28 -11 3 -10 9 -51 13
-92 l6 -74 48 2 c27 2 52 0 55 -4 18 -17 34 -4 44 36 6 23 17 62 25 87 21 67
-12 90 -90 63z m40 -47 c0 -26 -3 -28 -47 -32 -41 -3 -48 -1 -48 15 0 21 16
37 45 44 38 9 50 3 50 -27z m-7 -78 c-3 -31 -6 -33 -46 -36 -42 -3 -43 -2 -40
25 3 28 6 30 81 42 5 0 7 -14 5 -31z"/>
</g>
<g id="part-4" class="char-part">
  <path d="M561 235 c33 -48 43 -54 53 -29 8 20 -8 40 -45 60 -41 21 -41 18 -8
-31z"/>
</g>
<g id="part-5" class="char-part">
  <path d="M675 491 c17 -8 18 -10 3 -10 -25 -1 -22 -21 3 -21 27 0 22 34 -6 37
-20 3 -20 3 0 -6z"/>
  <path d="M667 287 c2 -218 2 -231 9 -224 3 3 7 91 9 196 2 140 0 191 -8 191
-9 0 -12 -45 -10 -163z"/>
  <path d="M660 40 c0 -5 5 -10 11 -10 5 0 7 5 4 10 -3 6 -8 10 -11 10 -2 0 -4
-4 -4 -10z"/>
</g>
</g>
</svg>