<?xml version="1.0" standalone="no"?>
<!DOCTYPE svg PUBLIC "-//W3C//DTD SVG 20010904//EN"
 "http://www.w3.org/TR/2001/REC-SVG-20010904/DTD/svg10.dtd">
<svg version="1.0" xmlns="http://www.w3.org/2000/svg"
 width="96.000000pt" height="68.000000pt" viewBox="0 0 96.000000 68.000000"
 preserveAspectRatio="xMidYMid meet">
<metadata>
Created by potrace 1.16, written by Peter Selinger 2001-2019
Combined from part_0.svg through part_5.svg with named groups
</metadata>
<g transform="translate(0.000000,68.000000) scale(0.100000,-0.100000)" fill="#000000" stroke="none">
<g id="part-0" class="char-part">
  <path d="M604 589 c-3 -6 -33 -29 -67 -50 -52 -34 -65 -38 -99 -33 l-39 7 11
-29 c17 -43 -6 -205 -36 -266 -12 -24 -12 -27 1 -22 24 10 58 73 70 133 l11
56 53 8 c30 4 56 5 59 2 7 -7 9 -39 11 -157 2 -168 35 -128 44 53 4 64 1 101
-6 108 -8 8 7 11 55 11 37 0 70 4 73 10 12 20 -53 23 -155 7 -139 -23 -132
-24 -128 19 3 37 4 37 93 71 106 41 117 49 91 69 -24 17 -33 18 -42 3z"/>
  <path d="M170 543 c0 -6 7 -16 15 -23 8 -7 12 -17 8 -24 -3 -6 -2 -8 2 -3 5 4
16 0 26 -9 10 -9 26 -14 36 -12 22 4 29 41 10 56 -18 15 -97 27 -97 15z"/>
  <path d="M173 377 c-35 -11 -63 -25 -63 -30 0 -6 25 -7 61 -4 54 5 60 3 54
-11 -18 -42 -16 -53 9 -79 14 -14 26 -36 26 -48 0 -25 -34 -35 -124 -35 -48 0
-49 0 -31 -20 16 -18 26 -19 104 -14 84 6 91 5 247 -45 89 -28 174 -51 190
-51 39 0 207 51 197 61 -4 4 -89 12 -188 18 -129 7 -206 17 -270 34 -90 24
-90 24 -87 54 2 24 -4 36 -29 57 l-32 27 39 40 c38 39 38 41 20 55 -26 18 -47
17 -123 -9z"/>
</g>
<g id="part-1" class="char-part">
  <path d="M180 536 c0 -20 44 -56 68 -56 28 0 38 18 20 37 -21 20 -88 35 -88
19z"/>
  <path d="M188 376 c-38 -11 -68 -25 -68 -29 0 -5 25 -5 55 -2 59 8 65 2 44
-37 -9 -17 -6 -25 16 -47 14 -16 27 -41 28 -57 l2 -29 -84 -5 c-82 -5 -84 -6
-67 -23 14 -14 26 -16 50 -10 69 18 139 8 287 -40 169 -54 210 -57 319 -23
l75 23 -45 6 c-25 3 -110 10 -190 15 -174 12 -334 47 -324 72 12 28 5 55 -22
76 -22 18 -24 24 -15 43 7 11 23 29 38 38 l25 17 -22 18 c-26 21 -17 21 -102
-6z"/>
</g>
<g id="part-2" class="char-part">
  <path d="M580 573 c-42 -42 -114 -74 -151 -66 -29 6 -31 4 -23 -13 16 -34 5
-164 -21 -237 -19 -57 -21 -66 -7 -55 43 34 69 103 80 215 l7 66 100 37 c54
21 101 42 102 47 3 9 -40 34 -55 32 -4 -1 -18 -12 -32 -26z"/>
</g>
<g id="part-3" class="char-part">
  <path d="M556 423 c-49 -7 -92 -16 -95 -18 -14 -15 19 -17 98 -7 48 7 109 12
134 12 47 0 69 13 41 24 -22 9 -75 5 -178 -11z"/>
</g>
<g id="part-4" class="char-part">
  <path d="M578 278 c2 -68 5 -130 8 -138 12 -35 29 29 34 135 6 111 3 124 -30
125 -13 0 -15 -19 -12 -122z"/>
</g>
</g>
</svg>