<?xml version="1.0" standalone="no"?>
<!DOCTYPE svg PUBLIC "-//W3C//DTD SVG 20010904//EN"
 "http://www.w3.org/TR/2001/REC-SVG-20010904/DTD/svg10.dtd">
<svg version="1.0" xmlns="http://www.w3.org/2000/svg"
 width="96.000000pt" height="68.000000pt" viewBox="0 0 96.000000 68.000000"
 preserveAspectRatio="xMidYMid meet">
<metadata>
Created by potrace 1.16, written by Peter Selinger 2001-2019
Combined from part_0.svg through part_5.svg with named groups
</metadata>
<g transform="translate(0.000000,68.000000) scale(0.100000,-0.100000)" fill="#000000" stroke="none">
<g id="part-0" class="char-part">
  <path d="M626 563 c5 -21 8 -51 9 -68 0 -28 -2 -30 -54 -37 -63 -10 -76 -2
-62 35 11 29 -1 45 -40 49 -26 3 -27 0 -14 -64 7 -35 6 -38 -16 -38 -34 0 -56
-15 -34 -24 9 -3 25 -6 36 -6 18 0 20 -7 17 -107 l-3 -108 -62 -3 c-35 -2 -63
-7 -63 -11 0 -19 55 -21 172 -6 67 8 171 15 230 15 59 0 108 4 108 9 0 19 -64
31 -117 22 l-53 -8 0 101 c0 56 5 108 10 116 10 16 13 17 61 19 27 1 30 3 19
16 -7 8 -28 15 -48 15 l-35 0 7 49 c6 46 5 50 -16 56 -64 18 -60 20 -52 -22z
m12 -161 c3 -29 1 -32 -25 -32 -15 0 -45 -3 -65 -6 -38 -7 -38 -6 -38 28 0 33
1 34 42 37 23 1 45 4 47 7 15 14 36 -5 39 -34z m2 -77 c0 -26 -8 -30 -87 -38
-42 -5 -43 -4 -43 23 0 30 9 34 98 38 28 2 32 -1 32 -23z m-5 -84 c0 -28 -2
-29 -58 -36 -66 -7 -77 -3 -77 29 0 33 7 36 74 36 61 0 61 0 61 -29z"/>
  <path d="M236 543 c4 -10 10 -45 12 -79 l4 -61 -76 -12 c-42 -7 -76 -17 -76
-22 0 -5 32 -9 70 -9 l70 0 -25 -49 c-13 -27 -50 -77 -81 -110 -31 -34 -54
-64 -51 -67 11 -11 74 30 120 80 l49 51 -6 -35 c-16 -105 -17 -175 -3 -195 13
-16 17 -17 31 -6 13 11 16 36 16 144 l0 131 31 -33 c27 -30 32 -32 45 -19 20
20 9 42 -31 61 -49 23 -46 50 6 66 49 15 47 36 -5 35 -40 -1 -42 4 -26 71 8
35 7 42 -11 58 -12 9 -32 17 -46 17 -20 0 -24 -3 -17 -17z"/>
  <path d="M480 146 c0 -13 -58 -75 -105 -111 l-20 -15 20 6 c38 13 165 96 165
109 0 7 -10 15 -22 19 -33 8 -38 8 -38 -8z"/>
  <path d="M677 91 c68 -67 107 -81 94 -34 -8 30 -74 77 -126 89 -28 6 -25 2 32
-55z"/>
</g>
<g id="part-1" class="char-part">
  <path d="M244 538 c3 -13 9 -47 12 -76 8 -65 4 -68 -83 -78 -78 -8 -73 -24 8
-24 32 0 59 -3 59 -7 0 -19 -62 -113 -105 -161 -26 -28 -43 -52 -38 -52 21 0
76 44 114 92 l42 53 -6 -75 c-3 -41 -9 -91 -12 -110 -5 -24 -2 -41 9 -55 16
-20 16 -20 31 -1 12 15 15 49 15 145 l0 126 23 -33 c23 -33 49 -39 55 -11 2 9
-14 24 -38 38 -56 31 -53 62 8 74 42 8 54 20 29 30 -7 3 -26 3 -41 0 l-29 -6
7 65 c7 62 6 65 -19 76 -38 18 -48 15 -41 -10z"/>
</g>
<g id="part-2" class="char-part">
  <path d="M623 578 c14 -54 19 -106 11 -110 -5 -3 -36 -9 -68 -13 -53 -6 -58
-5 -52 10 19 50 17 61 -9 73 -46 21 -57 16 -49 -23 11 -61 10 -69 -11 -73 -43
-7 -51 -12 -35 -22 8 -6 25 -10 38 -10 22 0 23 -1 20 -107 l-3 -108 -62 -3
c-35 -2 -63 -7 -63 -12 0 -18 48 -22 117 -10 37 6 141 14 231 17 89 3 162 9
162 13 0 18 -54 29 -110 23 l-60 -6 0 94 c0 136 2 139 63 139 47 0 49 1 31 15
-10 8 -34 15 -53 15 l-34 0 7 49 c6 48 6 49 -25 60 -45 16 -52 14 -46 -11z
m13 -250 c-3 -61 -7 -112 -9 -114 -1 -1 -30 -6 -64 -9 l-61 -7 5 108 c3 60 7
111 10 113 3 5 73 18 107 20 17 1 18 -6 12 -111z"/>
</g>
<g id="part-3" class="char-part">
  <path d="M543 363 c-40 -5 -44 -23 -5 -23 45 0 102 12 102 21 0 9 -35 9 -97 2z"/>
</g>
<g id="part-4" class="char-part">
  <path d="M480 145 c0 -16 -105 -115 -121 -115 -7 0 -10 -2 -7 -5 13 -14 188
89 188 110 0 7 -13 15 -30 17 -19 3 -30 0 -30 -7z"/>
  <path d="M663 102 c82 -83 137 -101 105 -35 -13 27 -106 82 -138 83 -8 0 6
-21 33 -48z"/>
</g>
</g>
</svg>