<?xml version="1.0" standalone="no"?>
<!DOCTYPE svg PUBLIC "-//W3C//DTD SVG 20010904//EN"
 "http://www.w3.org/TR/2001/REC-SVG-20010904/DTD/svg10.dtd">
<svg version="1.0" xmlns="http://www.w3.org/2000/svg"
 width="96.000000pt" height="68.000000pt" viewBox="0 0 96.000000 68.000000"
 preserveAspectRatio="xMidYMid meet">
<metadata>
Created by potrace 1.16, written by Peter Selinger 2001-2019
Combined from part_0.svg through part_5.svg with named groups
</metadata>
<g transform="translate(0.000000,68.000000) scale(0.100000,-0.100000)" fill="#000000" stroke="none">
<g id="part-0" class="char-part">
  <path d="M444 578 c4 -18 10 -57 13 -85 6 -57 3 -61 -53 -67 -48 -5 -41 -26 9
-26 48 0 46 3 39 -79 -1 -13 -23 -29 -68 -50 -36 -17 -73 -31 -81 -31 -23 0
-9 -24 20 -34 22 -8 33 -4 74 28 l48 38 3 -28 c2 -15 1 -48 -3 -72 -6 -43 -7
-44 -37 -38 -34 7 -32 3 20 -54 l23 -25 20 24 c16 19 19 39 19 121 0 95 1 99
27 119 14 12 23 24 19 28 -3 4 -12 1 -18 -5 -20 -20 -25 -14 -26 28 -2 38 0
40 39 50 49 13 47 36 -3 33 l-35 -2 8 43 c4 23 11 54 14 67 5 21 1 27 -20 37
-46 21 -58 16 -51 -20z"/>
  <path d="M675 557 c-2 -7 -6 -25 -10 -42 -3 -16 -13 -49 -22 -72 -14 -39 -19
-43 -51 -43 -29 0 -33 -2 -22 -15 9 -11 11 -50 9 -137 -4 -111 -2 -123 14
-126 10 -2 17 3 17 11 0 11 16 16 63 19 59 4 63 3 90 -26 l27 -31 26 29 c17
19 24 36 20 50 -3 12 -6 67 -6 123 0 95 -2 104 -22 117 -20 13 -31 13 -87 0
-35 -8 -66 -13 -68 -10 -3 3 16 31 41 64 25 32 46 63 46 69 0 17 -60 35 -65
20z m105 -206 l0 -38 -57 -6 c-32 -4 -68 -10 -80 -13 -21 -6 -23 -3 -23 39 0
51 1 52 113 55 l47 2 0 -39z m-2 -116 l-3 -56 -82 -3 c-91 -3 -90 -4 -77 61 6
28 10 31 67 40 106 17 99 20 95 -42z"/>
  <path d="M245 434 c-22 -8 -60 -14 -85 -14 -64 2 -64 3 -41 -26 11 -14 25 -49
31 -77 15 -74 24 -86 48 -64 12 11 35 17 65 17 46 0 47 1 47 30 0 17 9 49 21
72 17 34 18 43 7 53 -22 21 -51 24 -93 9z m20 -76 c-8 -50 -12 -55 -44 -60
-19 -2 -26 3 -32 22 -18 64 -10 76 54 79 28 1 29 0 22 -41z"/>
</g>
<g id="part-1" class="char-part">
  <path d="M220 424 c-25 -8 -59 -11 -78 -8 l-33 6 20 -33 c10 -19 22 -52 26
-74 8 -55 20 -74 37 -57 6 6 28 12 48 12 44 0 53 7 67 50 6 19 17 50 24 68 12
28 12 34 -1 42 -20 13 -56 11 -110 -6z m50 -56 c0 -54 -8 -66 -47 -74 -29 -6
-31 -4 -42 42 -7 26 -8 50 -4 55 7 6 29 11 81 18 8 0 12 -13 12 -41z"/>
</g>
<g id="part-2" class="char-part">
  <path d="M446 568 c5 -24 9 -63 9 -88 l0 -45 -48 -10 c-57 -12 -52 -25 10 -25
47 0 49 -5 37 -67 -5 -24 -17 -35 -70 -61 -35 -18 -71 -32 -79 -32 -24 0 -17
-18 13 -34 26 -13 30 -12 77 25 l50 39 3 -27 c2 -15 1 -47 -3 -71 l-7 -44 -36
7 -37 6 42 -42 c41 -42 43 -43 63 -24 18 16 20 30 20 124 l0 106 33 24 c29 21
25 22 -18 5 -12 -5 -15 2 -15 35 0 39 2 41 41 51 47 13 48 36 0 34 -27 -2 -31
1 -31 25 0 14 5 44 11 65 10 35 9 42 -7 53 -10 7 -29 13 -42 13 -23 0 -23 -2
-16 -42z"/>
</g>
<g id="part-3" class="char-part">
  <path d="M676 558 c-2 -7 -12 -40 -22 -73 -26 -85 -26 -85 -17 -85 10 0 103
125 103 138 0 8 -43 32 -56 32 -2 0 -6 -6 -8 -12z"/>
</g>
<g id="part-4" class="char-part">
  <path d="M725 414 c-27 -7 -72 -14 -100 -14 l-50 0 0 -137 c0 -123 2 -138 18
-141 10 -2 17 3 17 11 0 10 18 16 68 20 37 3 68 1 70 -4 2 -5 12 -19 22 -31
l19 -23 22 22 c21 20 22 29 20 150 -1 116 -3 130 -22 146 -24 20 -19 19 -84 1z
m55 -68 c0 -38 -2 -43 -19 -39 -10 3 -45 -1 -76 -7 -31 -7 -61 -8 -65 -3 -4 4
-5 25 -3 45 6 42 12 44 106 47 l57 1 0 -44z m-2 -111 l-3 -56 -83 -4 -84 -4 4
47 3 47 65 11 c108 19 101 22 98 -41z"/>
</g>
</g>
</svg>