<?xml version="1.0" standalone="no"?>
<!DOCTYPE svg PUBLIC "-//W3C//DTD SVG 20010904//EN"
 "http://www.w3.org/TR/2001/REC-SVG-20010904/DTD/svg10.dtd">
<svg version="1.0" xmlns="http://www.w3.org/2000/svg"
 width="96.000000pt" height="68.000000pt" viewBox="0 0 96.000000 68.000000"
 preserveAspectRatio="xMidYMid meet">
<metadata>
Created by potrace 1.16, written by Peter Selinger 2001-2019
Combined from part_0.svg through part_5.svg with named groups
</metadata>
<g transform="translate(0.000000,68.000000) scale(0.100000,-0.100000)" fill="#000000" stroke="none">
<g id="part-0" class="char-part">
  <path d="M578 578 c-2 -34 -7 -43 -23 -46 -49 -7 -65 -13 -60 -22 3 -6 20 -10
36 -10 29 0 30 -2 24 -31 -9 -40 11 -36 40 8 18 29 26 32 93 38 39 4 72 11 72
16 0 16 -43 26 -83 21 -38 -4 -39 -4 -27 18 11 20 10 25 -6 37 -10 7 -28 13
-40 13 -20 0 -23 -6 -26 -42z"/>
  <path d="M324 578 c4 -13 10 -30 12 -39 4 -12 -4 -18 -33 -22 -21 -4 -50 -7
-65 -7 -33 0 -36 -15 -7 -31 20 -10 55 -8 105 6 15 5 23 0 32 -19 16 -35 32
-33 32 4 0 26 5 31 30 37 46 9 46 23 1 23 -36 0 -41 3 -41 23 0 30 -18 47 -48
47 -21 0 -23 -3 -18 -22z"/>
  <path d="M323 417 c-6 -13 -27 -34 -47 -47 -58 -40 -51 -54 11 -21 40 22 70
31 103 31 26 0 95 5 154 11 82 8 110 8 122 -1 17 -15 20 -223 3 -283 -10 -38
-12 -39 -46 -32 l-35 6 28 -40 c16 -22 34 -41 39 -41 6 0 22 13 37 30 24 27
27 40 32 137 3 60 8 136 11 170 4 56 2 64 -18 78 -24 17 -73 19 -132 5 -22 -5
-76 -12 -121 -16 -77 -6 -81 -5 -87 15 -7 28 -41 27 -54 -2z"/>
  <path d="M340 352 c0 -5 -16 -27 -36 -50 -19 -23 -34 -42 -32 -42 2 0 22 9 45
19 48 24 83 18 83 -14 0 -21 -6 -23 -115 -35 -63 -7 -115 -17 -115 -21 0 -16
53 -18 127 -4 108 21 103 22 103 -35 0 -36 -4 -50 -14 -50 -7 0 -28 -3 -45 -6
-31 -6 -31 -6 -29 27 3 28 -1 35 -18 37 -18 3 -22 -4 -28 -44 -7 -57 3 -72 39
-56 22 10 179 42 206 42 5 0 9 -7 9 -16 0 -33 35 -8 51 38 18 52 17 58 -18 58
-19 0 -23 -5 -23 -30 0 -25 -4 -30 -35 -36 -48 -9 -69 1 -61 29 3 12 6 32 6
45 0 21 3 22 100 22 55 0 100 4 100 9 0 17 -40 23 -118 19 -72 -3 -77 -2 -80
18 -3 19 3 22 52 28 31 4 58 11 61 16 9 15 -46 17 -108 4 -80 -17 -82 -17 -66
2 10 13 10 17 -2 25 -18 11 -39 12 -39 1z"/>
</g>
<g id="part-1" class="char-part">
  <path d="M590 598 c0 -52 -11 -66 -53 -73 -32 -6 -37 -9 -23 -17 9 -5 26 -6
38 -2 22 7 22 2 3 -51 -4 -12 9 -3 33 23 39 40 44 42 101 42 33 0 63 4 66 10
9 14 -40 23 -85 16 l-40 -6 12 26 c11 23 10 28 -7 40 -28 20 -45 17 -45 -8z"/>
  <path d="M320 596 c0 -2 7 -20 15 -40 18 -43 17 -44 -70 -48 l-60 -3 27 -18
c25 -17 31 -18 78 -4 50 15 50 15 56 -9 9 -34 33 -31 31 3 -2 23 3 29 23 31
14 2 30 8 35 14 7 7 -2 8 -27 4 -36 -7 -37 -6 -43 28 -5 23 -14 36 -28 40 -26
7 -37 7 -37 2z"/>
</g>
<g id="part-2" class="char-part">
  <path d="M321 418 c-7 -13 -33 -38 -57 -56 -25 -19 -43 -36 -40 -39 2 -3 31 9
62 26 44 24 70 31 110 31 29 0 99 5 155 11 135 15 132 18 126 -156 -5 -159 -8
-169 -54 -160 -31 6 -33 4 -24 -12 17 -29 48 -63 58 -63 5 0 20 11 32 24 25
27 36 96 44 274 4 101 3 104 -20 119 -23 15 -35 15 -152 0 -151 -20 -185 -21
-175 -6 7 13 -13 29 -37 29 -9 0 -21 -10 -28 -22z"/>
</g>
<g id="part-3" class="char-part">
  <path d="M340 352 c0 -5 -19 -31 -42 -57 l-42 -47 42 21 c23 11 59 21 80 21
39 0 144 16 172 26 30 12 -31 25 -69 15 -90 -22 -101 -22 -98 2 1 16 -4 23
-20 25 -13 2 -23 -1 -23 -6z"/>
</g>
<g id="part-4" class="char-part">
  <path d="M400 170 c0 -36 -4 -50 -14 -50 -7 0 -28 -3 -45 -6 -31 -6 -31 -6
-29 27 3 29 -1 34 -19 37 -18 3 -23 -1 -22 -20 0 -13 -3 -35 -7 -50 -8 -33 17
-48 47 -30 15 10 170 42 200 42 5 0 9 -7 9 -16 0 -32 35 -8 51 36 18 47 13 60
-23 60 -13 0 -18 -8 -18 -29 0 -31 -18 -41 -74 -41 -28 0 -28 1 -22 45 7 41 5
45 -13 45 -18 0 -21 -6 -21 -50z"/>
</g>
</g>
</svg>