<?xml version="1.0" standalone="no"?>
<!DOCTYPE svg PUBLIC "-//W3C//DTD SVG 20010904//EN"
 "http://www.w3.org/TR/2001/REC-SVG-20010904/DTD/svg10.dtd">
<svg version="1.0" xmlns="http://www.w3.org/2000/svg"
 width="96.000000pt" height="68.000000pt" viewBox="0 0 96.000000 68.000000"
 preserveAspectRatio="xMidYMid meet">
<metadata>
Created by potrace 1.16, written by Peter Selinger 2001-2019
Combined from part_0.svg through part_5.svg with named groups
</metadata>
<g transform="translate(0.000000,68.000000) scale(0.100000,-0.100000)" fill="#000000" stroke="none">
<g id="part-0" class="char-part">
  <path d="M304 556 c-9 -51 -64 -132 -146 -213 -57 -57 -68 -73 -52 -73 23 0
101 53 123 83 27 38 33 3 22 -127 -12 -130 -7 -166 24 -166 20 0 23 22 28 177
4 105 2 135 -9 144 -8 6 -14 14 -14 18 0 3 25 36 55 74 30 37 52 73 49 81 -5
13 -46 36 -64 36 -5 0 -12 -15 -16 -34z"/>
  <path d="M635 540 c-22 -4 -79 -13 -127 -20 -99 -14 -108 -30 -17 -30 32 0 59
-4 59 -9 0 -18 -84 -103 -121 -122 -34 -17 -38 -22 -29 -39 13 -24 8 -24 81
-5 33 9 64 13 69 10 8 -5 15 -84 8 -86 -2 0 -25 -2 -53 -5 -79 -8 -86 -18 -15
-24 l65 -5 0 -40 0 -40 -92 -5 c-98 -6 -117 -12 -84 -30 15 -8 44 -8 103 0 45
5 137 10 203 10 121 0 165 6 165 20 0 18 -73 32 -124 25 -130 -18 -126 -18
-126 18 0 47 9 54 78 62 84 10 79 31 -7 27 l-61 -3 0 35 c0 19 -3 41 -6 49 -4
12 6 17 50 22 52 7 56 6 79 -21 28 -32 47 -25 47 17 0 26 -7 33 -55 56 -54 26
-88 25 -51 -3 15 -10 16 -15 5 -18 -18 -7 -178 -36 -193 -36 -6 0 17 27 52 59
41 39 60 64 56 74 -4 11 4 16 35 21 23 3 59 9 82 12 24 4 38 11 36 17 -4 15
-58 18 -112 7z"/>
</g>
<g id="part-1" class="char-part">
  <path d="M317 582 c-3 -4 -8 -21 -12 -39 -10 -48 -75 -141 -143 -206 -34 -32
-62 -60 -62 -62 0 -13 66 23 104 56 24 21 47 39 50 39 10 0 7 -142 -4 -198 -9
-52 2 -112 21 -112 21 0 30 60 27 185 -2 71 -7 137 -11 146 -5 10 8 36 43 82
27 36 50 71 50 76 0 13 -57 43 -63 33z"/>
</g>
<g id="part-2" class="char-part">
  <path d="M630 540 c-19 -4 -75 -13 -123 -20 -60 -8 -85 -16 -79 -22 12 -12
138 -6 246 11 78 13 94 20 75 32 -17 10 -71 10 -119 -1z"/>
</g>
<g id="part-3" class="char-part">
  <path d="M556 484 c-9 -11 -30 -36 -48 -57 -17 -21 -50 -49 -74 -63 -38 -23
-42 -28 -33 -46 8 -15 17 -18 37 -13 66 17 238 55 250 55 8 0 27 -11 44 -25
16 -14 34 -25 39 -25 11 0 12 50 1 66 -11 17 -84 54 -106 54 -18 0 -19 -1 -1
-20 10 -11 16 -22 14 -24 -4 -5 -177 -36 -194 -36 -5 1 19 27 55 60 60 55 64
60 49 75 -16 16 -18 16 -33 -1z"/>
</g>
<g id="part-4" class="char-part">
  <path d="M565 334 c-6 -2 -9 -23 -7 -45 5 -51 -5 -59 -75 -59 -29 0 -53 -4
-53 -10 0 -6 29 -10 66 -10 l65 0 -3 -42 -3 -43 -94 -7 c-52 -4 -96 -10 -99
-12 -3 -3 7 -10 22 -16 18 -6 49 -7 94 0 37 5 126 10 197 10 131 0 175 5 175
20 0 20 -68 31 -131 20 -109 -17 -119 -15 -119 23 0 46 9 54 65 62 76 10 90
15 74 26 -8 5 -40 6 -71 3 l-57 -6 -3 43 c-3 42 -16 55 -43 43z"/>
</g>
</g>
</svg>