<?xml version="1.0" standalone="no"?>
<!DOCTYPE svg PUBLIC "-//W3C//DTD SVG 20010904//EN"
 "http://www.w3.org/TR/2001/REC-SVG-20010904/DTD/svg10.dtd">
<svg version="1.0" xmlns="http://www.w3.org/2000/svg"
 width="96.000000pt" height="68.000000pt" viewBox="0 0 96.000000 68.000000"
 preserveAspectRatio="xMidYMid meet">
<metadata>
Created by potrace 1.16, written by Peter Selinger 2001-2019
Combined from part_0.svg through part_5.svg with named groups
</metadata>
<g transform="translate(0.000000,68.000000) scale(0.100000,-0.100000)" fill="#000000" stroke="none">
<g id="part-0" class="char-part">
  <path d="M510 615 c0 -14 73 -65 94 -65 7 0 19 7 26 16 19 22 -4 41 -67 52
-40 7 -53 6 -53 -3z"/>
  <path d="M310 606 c0 -3 19 -23 41 -44 l41 -38 -116 -19 c-70 -11 -115 -23
-113 -29 6 -16 70 -12 168 9 l85 19 66 -47 c89 -63 185 -106 258 -114 62 -6
74 2 46 29 -7 8 -20 26 -28 42 l-15 29 -6 -31 c-7 -32 -13 -34 -70 -16 -39 12
-161 73 -186 92 -23 18 -23 20 -5 25 10 4 36 7 57 9 21 1 36 7 34 13 -4 11
-43 12 -103 2 -39 -6 -42 -5 -65 31 -18 28 -32 38 -57 40 -17 2 -32 1 -32 -2z"/>
  <path d="M360 459 c0 -26 -42 -69 -68 -69 l-27 0 1 -106 c1 -58 6 -110 11
-115 5 -5 22 -5 41 1 18 5 63 11 100 15 222 18 217 19 209 -51 -6 -55 -28 -78
-69 -70 -16 3 -28 2 -28 -2 0 -11 50 -62 61 -62 19 0 68 57 74 86 3 16 11 48
19 71 13 42 13 42 -16 54 -29 12 -48 11 -256 -11 -52 -6 -97 -8 -101 -6 -4 3
-5 22 -3 44 l4 39 91 0 91 0 28 53 c15 29 28 54 28 56 0 2 -13 10 -29 18 -20
11 -38 13 -62 6 -19 -4 -52 -11 -74 -14 l-40 -6 24 20 c13 12 31 25 40 30 14
9 14 11 1 20 -20 13 -50 13 -50 -1z m124 -77 c12 -19 -15 -30 -93 -36 -67 -6
-82 -5 -79 6 3 7 33 18 69 24 83 15 97 16 103 6z m-4 -57 c0 -16 -1 -16 -40
-20 -14 -1 -49 -6 -77 -10 -44 -6 -53 -5 -53 8 0 10 17 18 58 25 88 15 112 14
112 -3z"/>
  <path d="M353 243 c-18 -2 -33 -8 -33 -13 0 -10 85 -3 135 10 26 7 23 8 -20 7
-27 0 -65 -2 -82 -4z"/>
  <path d="M490 155 c0 -17 35 -55 51 -55 23 0 24 9 3 38 -13 19 -54 32 -54 17z"/>
  <path d="M200 115 c-23 -37 -21 -65 3 -65 26 0 52 55 40 86 -8 22 -20 17 -43
-21z"/>
  <path d="M404 138 c3 -7 9 -21 12 -30 8 -21 34 -24 34 -4 0 17 -27 46 -42 46
-5 0 -7 -6 -4 -12z"/>
  <path d="M304 128 c3 -7 9 -21 12 -30 3 -9 12 -19 20 -22 18 -7 19 35 2 52
-16 16 -41 15 -34 0z"/>
</g>
<g id="part-1" class="char-part">
  <path d="M513 613 c13 -22 87 -65 102 -59 21 8 19 33 -4 45 -27 15 -105 26
-98 14z"/>
</g>
<g id="part-2" class="char-part">
  <path d="M310 605 c0 -2 18 -21 41 -43 l41 -38 -116 -19 c-71 -11 -115 -23
-113 -29 6 -20 50 -18 152 4 l100 22 82 -55 c92 -62 174 -96 251 -104 50 -6
69 5 41 23 -6 3 -19 24 -29 46 l-17 40 -7 -36 c-6 -33 -9 -36 -34 -30 -63 16
-182 71 -230 107 -20 15 4 27 56 27 23 0 42 5 42 10 0 19 -30 23 -83 12 l-52
-11 -35 40 c-25 28 -43 39 -62 39 -16 0 -28 -2 -28 -5z"/>
</g>
<g id="part-3" class="char-part">
  <path d="M342 430 c-14 -25 -18 -40 -11 -40 10 0 52 27 89 57 7 6 -23 23 -40
23 -8 0 -25 -18 -38 -40z"/>
</g>
<g id="part-4" class="char-part">
  <path d="M435 405 c-27 -7 -78 -14 -113 -14 -43 -1 -61 -4 -56 -12 3 -6 6 -31
6 -56 -1 -26 4 -46 11 -49 7 -2 48 0 92 5 46 5 84 5 90 0 5 -5 12 -9 16 -9 8
0 69 108 69 121 0 6 -60 32 -64 28 -1 -1 -23 -7 -51 -14z m55 -35 c0 -16 -7
-20 -37 -20 -21 0 -62 -3 -90 -6 -43 -6 -53 -4 -53 8 0 11 18 18 63 25 102 17
117 16 117 -7z m-10 -37 c0 -17 -16 -29 -40 -29 -14 -1 -49 -4 -77 -9 -45 -6
-53 -5 -53 8 0 16 17 21 95 30 56 7 75 7 75 0z"/>
</g>
<g id="part-5" class="char-part">
  <path d="M500 153 c0 -5 9 -19 20 -33 18 -23 20 -23 20 -5 0 11 -9 26 -20 33
-11 7 -20 9 -20 5z"/>
  <path d="M220 122 c-45 -54 -45 -53 -30 -62 18 -11 43 8 36 27 -3 7 -2 13 2
13 4 0 8 9 9 20 2 24 1 25 -17 2z"/>
  <path d="M417 120 c10 -11 21 -20 25 -20 4 0 0 9 -9 20 -10 11 -21 20 -25 20
-4 0 0 -9 9 -20z"/>
  <path d="M317 123 c-6 -6 14 -43 23 -43 3 0 6 9 7 19 2 19 -19 35 -30 24z"/>
</g>
</g>
</svg>