<?xml version="1.0" standalone="no"?>
<!DOCTYPE svg PUBLIC "-//W3C//DTD SVG 20010904//EN"
 "http://www.w3.org/TR/2001/REC-SVG-20010904/DTD/svg10.dtd">
<svg version="1.0" xmlns="http://www.w3.org/2000/svg"
 width="96.000000pt" height="68.000000pt" viewBox="0 0 96.000000 68.000000"
 preserveAspectRatio="xMidYMid meet">
<metadata>
Created by potrace 1.16, written by Peter Selinger 2001-2019
Combined from part_0.svg through part_5.svg with named groups
</metadata>
<g transform="translate(0.000000,68.000000) scale(0.100000,-0.100000)" fill="#000000" stroke="none">
<g id="part-0" class="char-part">
  <path d="M620 555 c0 -42 -1 -44 -34 -50 -55 -11 -81 -3 -85 25 -3 26 -17 40
-38 40 -9 0 -8 -9 2 -34 17 -40 13 -44 -39 -48 -21 -1 -40 -6 -42 -10 -5 -8
12 -11 62 -10 27 1 32 -3 40 -36 6 -23 15 -36 24 -35 8 1 41 4 72 8 l56 6 7
40 c6 37 9 39 43 41 63 2 65 3 70 16 4 12 -20 17 -70 13 -27 -2 -27 -1 -18 25
14 36 6 54 -25 54 -23 0 -25 -4 -25 -45z m-10 -89 c0 -30 -5 -33 -58 -42 -42
-6 -42 -6 -42 24 0 28 3 31 38 35 20 2 43 4 50 5 7 1 12 -9 12 -22z"/>
  <path d="M289 496 c-2 -2 -37 -9 -77 -14 -41 -6 -77 -13 -80 -17 -11 -11 22
-25 61 -25 l37 0 0 -55 0 -55 -35 0 c-19 0 -35 -4 -35 -10 0 -5 16 -10 35 -10
l35 0 0 -58 0 -59 -62 -17 c-58 -16 -62 -19 -44 -32 28 -20 39 -18 114 19 37
19 78 39 92 45 22 10 19 10 -18 5 l-43 -6 3 59 c3 56 4 59 31 62 37 5 34 22
-4 22 -31 0 -31 1 -25 38 3 20 6 44 6 53 0 11 12 18 40 23 22 3 40 10 40 15 0
13 -60 27 -71 17z"/>
  <path d="M560 370 c-102 -10 -186 -19 -188 -19 -2 -1 0 -6 4 -12 4 -7 34 -10
83 -8 71 4 76 3 79 -17 3 -18 -4 -22 -35 -27 -21 -4 -50 -7 -65 -7 -26 0 -27
-2 -17 -27 6 -16 14 -46 18 -68 l7 -40 128 1 129 2 25 67 c25 66 25 68 6 82
-14 11 -35 13 -80 9 -54 -4 -63 -3 -67 13 -4 15 3 20 41 25 24 3 80 6 123 6
78 0 97 9 60 30 -23 12 -19 12 -251 -10z m125 -106 c0 -15 -8 -20 -39 -22 -21
-2 -44 -1 -52 2 -25 10 -3 35 34 39 51 5 57 3 57 -19z m-141 -10 c8 -20 8 -20
-29 -27 -37 -7 -60 5 -52 27 9 22 73 22 81 0z m136 -43 c0 -31 -14 -41 -56
-41 -36 0 -44 3 -44 18 0 10 3 22 7 25 10 11 93 8 93 -2z m-130 -20 c0 -11 -9
-21 -22 -25 -41 -10 -58 -7 -58 12 0 26 9 32 47 32 26 0 33 -4 33 -19z"/>
  <path d="M483 103 c-7 -19 -34 -46 -70 -70 -49 -32 -20 -30 40 3 93 53 105 63
87 74 -24 15 -50 12 -57 -7z"/>
  <path d="M682 63 c43 -42 61 -54 69 -46 19 19 0 52 -45 78 -77 45 -87 31 -24
-32z"/>
</g>
<g id="part-1" class="char-part">
  <path d="M250 484 c-30 -7 -70 -13 -87 -13 -18 -1 -33 -6 -33 -12 0 -9 25 -10
88 -6 93 7 132 15 132 27 0 14 -44 16 -100 4z"/>
</g>
<g id="part-2" class="char-part">
  <path d="M227 399 c7 -57 -2 -69 -49 -69 -16 0 -28 -4 -28 -10 0 -5 18 -10 40
-10 l40 0 0 -59 0 -60 -55 -12 c-59 -13 -76 -26 -54 -40 25 -15 45 -10 150 42
57 28 93 48 79 45 -87 -21 -80 -25 -80 37 0 57 8 67 51 67 11 0 17 5 14 10 -3
6 -20 10 -36 10 l-30 0 7 50 7 50 -31 0 -31 0 6 -51z"/>
</g>
<g id="part-3" class="char-part">
  <path d="M618 560 c4 -36 1 -41 -24 -50 -15 -6 -42 -10 -58 -8 -24 2 -32 8
-35 28 -3 26 -17 40 -38 40 -9 0 -10 -7 -3 -26 16 -42 12 -54 -17 -54 -16 0
-34 -4 -42 -9 -19 -12 22 -25 55 -17 21 6 24 3 24 -21 0 -48 8 -51 92 -40 43
5 76 13 73 17 -3 4 -2 21 1 38 6 28 9 30 67 37 69 7 62 25 -10 25 -42 0 -42 0
-32 27 14 36 5 53 -28 53 -27 0 -28 -2 -25 -40z m-10 -97 c-2 -21 -10 -29 -37
-36 -44 -11 -61 -3 -61 27 0 22 5 25 43 29 23 2 46 4 50 5 5 1 7 -10 5 -25z"/>
</g>
<g id="part-4" class="char-part">
  <path d="M570 369 c-96 -9 -184 -18 -195 -19 -19 -1 -19 -1 -1 -12 14 -8 58
-8 161 1 79 6 177 11 219 11 76 0 87 5 64 28 -14 14 -26 14 -248 -9z"/>
</g>
<g id="part-5" class="char-part">
  <path d="M500 110 c-10 -6 -11 -10 -2 -10 6 0 12 -5 12 -11 0 -6 -6 -9 -12 -6
-7 2 -26 -9 -43 -25 -18 -17 -23 -26 -12 -22 9 3 17 9 17 13 0 4 18 15 41 25
22 10 38 23 36 29 -5 15 -20 18 -37 7z"/>
  <path d="M650 112 c0 -4 8 -15 18 -24 9 -9 28 -28 41 -42 25 -28 36 -32 46
-15 9 14 -26 51 -42 44 -8 -2 -12 -1 -9 3 2 4 -9 15 -25 24 -16 10 -29 14 -29
10z"/>
</g>
</g>
</svg>