<?xml version="1.0" standalone="no"?>
<!DOCTYPE svg PUBLIC "-//W3C//DTD SVG 20010904//EN"
 "http://www.w3.org/TR/2001/REC-SVG-20010904/DTD/svg10.dtd">
<svg version="1.0" xmlns="http://www.w3.org/2000/svg"
 width="96.000000pt" height="68.000000pt" viewBox="0 0 96.000000 68.000000"
 preserveAspectRatio="xMidYMid meet">
<metadata>
Created by potrace 1.16, written by Peter Selinger 2001-2019
Combined from part_0.svg through part_5.svg with named groups
</metadata>
<g transform="translate(0.000000,68.000000) scale(0.100000,-0.100000)" fill="#000000" stroke="none">
<g id="part-0" class="char-part">
  <path d="M186 612 c-3 -5 -1 -26 4 -48 5 -21 10 -56 10 -76 0 -40 1 -40 -70
-43 -23 -1 -25 -5 -26 -50 0 -28 -3 -63 -7 -80 -8 -35 6 -66 23 -49 9 9 29
110 30 152 0 6 11 12 25 12 23 0 24 -3 20 -42 -2 -24 -7 -104 -10 -178 -4
-110 -2 -140 9 -155 14 -19 16 -19 32 -3 16 15 18 40 18 204 1 174 2 187 20
190 39 6 46 -5 46 -77 0 -55 -3 -69 -15 -69 -21 0 -19 -13 6 -28 35 -22 48 2
55 100 7 83 6 86 -15 93 -13 4 -39 4 -58 0 l-35 -6 3 67 4 67 -32 14 c-18 7
-34 9 -37 5z"/>
  <path d="M580 578 c-25 -5 -67 -6 -93 -3 -46 6 -47 5 -43 -17 11 -51 15 -194
7 -207 -6 -9 -24 -14 -45 -13 -41 2 -48 -13 -11 -22 16 -4 27 -16 31 -32 7
-28 -1 -154 -12 -191 -10 -35 20 -40 64 -9 20 14 51 37 67 51 l30 25 -52 -20
-53 -20 -2 33 c0 17 -1 39 0 47 1 8 2 38 3 67 l2 52 101 7 c55 4 106 8 111 9
6 1 34 3 63 3 32 1 51 6 47 12 -13 21 -71 26 -164 13 -138 -18 -141 -18 -141
12 0 31 3 32 103 40 42 4 77 11 77 17 0 6 -30 7 -85 3 -80 -7 -85 -6 -85 12 0
17 12 22 86 33 62 9 83 15 75 23 -8 8 -27 8 -69 -1 -86 -18 -92 -17 -92 18 0
25 4 30 25 30 51 0 174 23 169 31 -6 11 -54 10 -114 -3z"/>
  <path d="M652 275 c-37 -40 -54 -43 -84 -15 -12 11 -31 20 -42 19 -19 0 -19
-1 -4 -12 9 -6 59 -51 110 -99 96 -91 106 -96 177 -82 41 9 39 20 -6 34 -47
14 -108 46 -152 79 l-34 25 58 26 c55 24 57 27 41 43 -23 23 -26 22 -64 -18z"/>
</g>
<g id="part-1" class="char-part">
  <path d="M195 448 c0 -90 -2 -213 -5 -275 -5 -115 1 -141 30 -123 23 14 33
529 11 548 -33 27 -36 14 -36 -150z"/>
</g>
<g id="part-2" class="char-part">
  <path d="M211 455 c-41 -7 -83 -10 -94 -7 -18 5 -19 1 -13 -31 4 -19 2 -56 -5
-80 -8 -34 -8 -50 1 -68 l13 -22 13 24 c7 13 13 40 14 60 0 20 3 50 6 66 6 28
10 31 72 40 37 6 73 8 80 5 9 -3 12 -24 10 -71 -3 -63 -4 -66 -27 -63 l-24 2
27 -25 c15 -14 31 -25 35 -25 20 0 32 33 39 109 11 110 7 112 -147 86z"/>
</g>
<g id="part-3" class="char-part">
  <path d="M575 579 c-27 -5 -70 -6 -94 -3 -39 6 -43 5 -38 -12 3 -11 7 -63 9
-116 3 -85 5 -98 21 -98 12 0 17 8 17 25 0 31 3 32 103 40 42 4 77 11 77 17 0
6 -30 7 -85 3 -81 -7 -85 -6 -85 13 0 17 9 20 68 27 37 4 76 10 87 15 39 15
-11 23 -78 11 -35 -6 -67 -11 -70 -11 -4 0 -7 13 -7 29 0 28 1 28 68 35 98 10
133 17 126 27 -6 11 -50 10 -119 -2z"/>
</g>
<g id="part-4" class="char-part">
  <path d="M518 351 c-75 -9 -139 -19 -143 -22 -13 -14 50 -19 128 -10 45 5 130
13 190 16 103 7 131 16 85 29 -33 9 -106 5 -260 -13z"/>
</g>
<g id="part-5" class="char-part">
  <path d="M431 215 c0 -51 -3 -100 -7 -109 -4 -10 -1 -16 7 -16 11 0 11 -3 -1
-10 -12 -8 -11 -10 6 -10 24 0 48 23 36 35 -4 5 -1 5 6 1 7 -4 24 2 38 13 30
24 20 29 -12 7 -32 -23 -47 -5 -46 55 0 30 3 68 6 86 3 24 0 32 -14 36 -17 4
-19 -3 -19 -88z"/>
  <path d="M665 281 c-17 -19 -16 -20 11 -17 16 2 32 4 36 5 12 2 -3 31 -17 31
-6 0 -20 -9 -30 -19z"/>
  <path d="M546 258 c16 -13 40 -36 53 -51 13 -15 30 -26 37 -23 8 3 11 0 7 -10
-4 -10 0 -12 13 -7 11 4 15 3 10 -5 -8 -13 22 -45 63 -66 25 -14 34 -14 68 -1
33 12 31 20 -4 16 -6 -1 -14 3 -18 8 -3 6 -13 7 -22 4 -10 -4 -14 -2 -9 5 3 6
-3 14 -16 17 -13 4 -39 19 -58 34 -19 14 -39 26 -43 26 -4 0 -12 7 -17 15 -5
8 -10 12 -10 8 0 -4 -15 6 -32 23 -18 16 -37 29 -42 29 -5 0 4 -10 20 -22z"/>
</g>
</g>
</svg>