<?xml version="1.0" standalone="no"?>
<!DOCTYPE svg PUBLIC "-//W3C//DTD SVG 20010904//EN"
 "http://www.w3.org/TR/2001/REC-SVG-20010904/DTD/svg10.dtd">
<svg version="1.0" xmlns="http://www.w3.org/2000/svg"
 width="96.000000pt" height="68.000000pt" viewBox="0 0 96.000000 68.000000"
 preserveAspectRatio="xMidYMid meet">
<metadata>
Created by potrace 1.16, written by Peter Selinger 2001-2019
Combined from part_0.svg through part_5.svg with named groups
</metadata>
<g transform="translate(0.000000,68.000000) scale(0.100000,-0.100000)" fill="#000000" stroke="none">
<g id="part-0" class="char-part">
  <path d="M219 568 c0 -2 -1 -77 -2 -168 -2 -187 -15 -231 -84 -302 -42 -43
-39 -57 6 -34 40 21 68 51 93 101 11 22 22 41 23 43 1 1 21 -16 43 -39 46 -45
65 -47 70 -5 3 24 -3 29 -51 50 l-54 24 10 62 c9 57 13 62 48 80 33 17 40 18
52 5 8 -8 16 -12 18 -10 2 2 5 -16 6 -38 4 -56 22 -100 37 -88 18 14 256 26
256 12 0 -6 6 -11 14 -11 7 0 30 37 51 82 36 78 36 82 19 96 -14 10 -37 12
-93 7 l-74 -7 6 24 c4 12 7 30 7 39 0 12 13 16 62 18 71 3 78 5 51 19 -17 10
-106 3 -301 -24 -62 -8 -52 -24 16 -24 41 0 42 -1 42 -34 0 -33 -1 -34 -51
-40 -53 -7 -74 -1 -50 13 10 7 7 13 -14 27 l-27 18 -34 -40 -33 -39 0 40 c0
22 3 57 8 77 6 26 5 40 -3 46 -11 9 -66 25 -67 20z m361 -107 c0 -42 -9 -55
-33 -45 -14 5 -29 69 -18 79 2 3 15 5 28 5 20 0 23 -5 23 -39z m140 -67 c0 -8
-5 -35 -11 -59 l-11 -43 -76 -1 c-43 0 -100 -3 -128 -7 -29 -3 -54 -2 -57 2
-3 5 -8 30 -12 57 l-7 47 36 0 c40 0 40 1 26 -34 -14 -39 7 -33 31 9 23 39 59
48 59 16 0 -32 29 -52 68 -49 49 4 55 28 8 28 -32 0 -36 3 -36 25 0 24 3 25
55 25 43 0 55 -3 55 -16z"/>
  <path d="M109 348 c29 -48 47 -56 68 -35 17 17 17 19 -10 43 -15 13 -40 24
-54 24 l-25 0 21 -32z"/>
  <path d="M537 216 c4 -29 2 -34 -18 -39 -13 -4 -39 -7 -56 -7 -18 0 -33 -4
-33 -10 0 -6 27 -10 60 -10 59 0 60 0 60 -29 0 -28 -1 -29 -67 -35 -38 -4 -90
-9 -118 -13 -45 -5 -48 -7 -25 -15 14 -5 57 -7 95 -4 39 3 144 9 235 12 91 3
167 8 169 10 15 14 -26 19 -131 17 l-119 -2 3 32 c3 31 5 32 66 41 34 5 62 13
62 17 0 5 -27 9 -60 9 -57 0 -60 1 -60 24 0 24 -16 36 -50 36 -16 0 -18 -6
-13 -34z"/>
</g>
<g id="part-1" class="char-part">
  <path d="M228 445 c5 -119 -7 -215 -35 -270 -8 -16 -33 -52 -56 -79 -38 -46
-39 -47 -11 -33 42 22 83 65 108 115 l22 42 39 -40 c44 -45 78 -54 73 -17 -3
19 -52 53 -99 69 -5 2 -6 31 -3 66 l7 63 58 30 c64 32 70 42 38 60 -18 9 -24
8 -31 -5 -5 -9 -20 -28 -34 -44 l-25 -27 3 80 c3 89 -2 105 -36 105 -23 0 -23
0 -18 -115z"/>
  <path d="M100 371 c0 -18 42 -61 61 -61 31 0 24 37 -11 55 -33 17 -50 19 -50
6z"/>
</g>
<g id="part-2" class="char-part">
  <path d="M545 520 c-72 -10 -139 -19 -150 -19 -20 -2 -20 -2 0 -13 14 -8 41
-8 105 0 47 6 123 15 169 18 74 6 82 8 66 20 -22 17 -24 17 -190 -6z"/>
</g>
<g id="part-3" class="char-part">
  <path d="M550 419 c-80 -10 -155 -17 -167 -14 -27 6 -29 -2 -8 -25 8 -9 19
-40 25 -69 12 -64 18 -75 33 -63 18 15 257 26 257 13 0 -24 29 -9 43 22 55
114 59 131 41 144 -22 16 -45 15 -224 -8z m170 -25 c0 -8 -5 -34 -11 -58 l-11
-43 -86 -1 c-48 -1 -106 -5 -128 -8 -48 -7 -49 -5 -58 57 l-7 46 93 10 c153
16 208 16 208 -3z"/>
</g>
<g id="part-4" class="char-part">
  <path d="M537 217 c4 -30 2 -35 -18 -40 -13 -4 -39 -7 -56 -7 -18 0 -33 -4
-33 -10 0 -6 27 -10 60 -10 59 0 60 0 60 -29 0 -33 -21 -40 -119 -42 -31 -1
-69 -5 -86 -9 l-30 -7 25 -7 c14 -4 90 -2 170 3 80 6 187 11 238 11 90 0 119
11 65 25 -15 3 -71 3 -125 -1 l-98 -7 0 36 0 35 65 7 c77 8 77 25 0 25 -51 0
-54 1 -57 28 -2 22 -8 28 -35 30 -31 3 -32 2 -26 -31z"/>
</g>
</g>
</svg>