<?xml version="1.0" standalone="no"?>
<!DOCTYPE svg PUBLIC "-//W3C//DTD SVG 20010904//EN"
 "http://www.w3.org/TR/2001/REC-SVG-20010904/DTD/svg10.dtd">
<svg version="1.0" xmlns="http://www.w3.org/2000/svg"
 width="96.000000pt" height="68.000000pt" viewBox="0 0 96.000000 68.000000"
 preserveAspectRatio="xMidYMid meet">
<metadata>
Created by potrace 1.16, written by Peter Selinger 2001-2019
Combined from part_0.svg through part_5.svg with named groups
</metadata>
<g transform="translate(0.000000,68.000000) scale(0.100000,-0.100000)" fill="#000000" stroke="none">
<g id="part-0" class="char-part">
  <path d="M247 583 c-2 -5 0 -43 6 -86 6 -42 8 -79 5 -82 -2 -2 -28 -8 -58 -12
-68 -10 -66 -27 5 -31 l55 -3 0 -39 0 -40 -90 -45 c-50 -25 -88 -50 -85 -54 3
-5 18 -14 34 -19 25 -9 34 -6 80 29 l51 39 0 -60 c0 -64 -9 -77 -41 -60 -35
20 -32 4 10 -41 39 -43 40 -43 60 -25 19 17 21 31 21 122 l0 103 32 25 c34 26
32 49 -2 28 -28 -17 -30 -16 -30 18 0 27 4 30 40 36 22 4 43 11 47 16 9 15
-19 29 -49 25 -26 -3 -28 -1 -28 34 0 21 4 48 9 62 11 27 5 39 -26 56 -25 13
-40 14 -46 4z"/>
  <path d="M538 538 l-3 -53 -50 -3 c-72 -5 -82 -22 -12 -22 39 0 57 -4 57 -12
0 -23 -15 -35 -55 -46 l-40 -10 38 -1 c39 -1 44 -9 27 -42 -8 -14 -21 -19 -54
-19 -24 0 -48 -6 -54 -12 -8 -10 1 -12 40 -9 l50 3 -18 -32 c-11 -18 -41 -49
-67 -69 -26 -20 -43 -37 -38 -39 13 -4 73 27 86 45 7 9 20 11 43 7 25 -5 32
-12 32 -30 0 -20 -6 -24 -47 -29 -75 -10 -83 -19 -20 -23 31 -2 57 -7 57 -11
0 -10 -50 -56 -90 -83 l-25 -17 31 8 c48 13 68 26 106 71 33 40 39 42 102 47
64 6 82 15 51 26 -8 4 -36 4 -63 0 -47 -5 -49 -4 -54 21 -5 23 -2 26 23 26 15
0 31 5 35 11 5 9 -14 10 -70 4 -52 -4 -76 -3 -76 4 0 6 3 11 8 11 4 0 15 14
24 30 30 52 63 42 159 -46 81 -74 83 -75 123 -68 64 10 63 15 -3 40 -63 24
-105 49 -151 91 l-25 23 78 0 c44 0 77 4 77 10 0 18 -51 23 -137 11 -48 -6
-88 -9 -90 -7 -2 2 1 15 6 30 9 23 16 26 61 26 27 0 50 5 50 10 0 9 -34 14
-72 11 -13 -2 -18 5 -18 22 0 23 5 26 60 32 33 4 60 11 60 16 0 10 -9 11 -67
9 l-42 -1 11 32 c9 28 8 34 -7 46 -34 24 -44 16 -47 -39z"/>
  <path d="M621 83 c39 -46 55 -56 75 -49 23 9 0 43 -46 66 -58 29 -66 25 -29
-17z"/>
</g>
<g id="part-1" class="char-part">
  <path d="M253 493 l2 -87 -55 -11 -55 -10 58 -3 58 -3 -3 -47 -3 -47 -82 -40
c-45 -22 -81 -44 -79 -50 1 -5 14 -14 28 -19 21 -7 34 -2 83 34 l58 43 -6 -68
c-4 -37 -9 -70 -12 -73 -3 -4 -19 -1 -35 5 l-30 11 33 -39 c34 -41 43 -45 67
-29 11 7 16 35 18 117 4 107 4 108 35 135 35 30 30 37 -8 12 l-25 -16 0 40 c0
38 1 40 40 46 22 3 40 11 40 16 0 6 -18 10 -40 10 -45 0 -46 2 -29 81 10 47 9
54 -7 66 -10 7 -26 13 -35 13 -15 0 -17 -11 -16 -87z"/>
</g>
<g id="part-2" class="char-part">
  <path d="M535 538 l0 -53 -53 -6 c-73 -9 -77 -19 -8 -19 54 0 57 -1 54 -22 -2
-18 -13 -25 -48 -32 l-45 -10 38 -4 c21 -2 37 -9 37 -15 0 -7 9 -13 20 -13 11
0 20 6 20 13 0 7 17 15 38 18 20 3 48 9 62 12 l25 6 -30 8 c-16 5 -40 6 -53 2
-21 -5 -23 -2 -20 18 3 21 11 25 61 33 31 4 57 12 57 16 0 14 -27 19 -65 10
l-37 -8 6 38 c5 32 3 41 -13 50 -38 20 -46 13 -46 -42z"/>
</g>
<g id="part-3" class="char-part">
  <path d="M498 349 c-2 -5 -24 -13 -48 -15 -72 -9 -79 -18 -20 -24 l55 -5 -67
-68 c-71 -71 -72 -80 -8 -47 35 18 110 100 110 121 0 5 16 9 36 9 31 0 46 -10
102 -64 79 -75 102 -89 139 -80 57 12 58 16 3 36 -30 11 -84 41 -120 67 l-65
46 70 3 c39 2 74 7 79 12 17 17 -43 22 -131 12 -53 -6 -89 -7 -91 -1 -5 13
-40 11 -44 -2z"/>
</g>
<g id="part-4" class="char-part">
  <path d="M522 195 c3 -14 5 -25 4 -25 0 0 -26 -3 -56 -6 -77 -9 -91 -27 -17
-22 36 2 57 -1 57 -8 0 -14 -46 -57 -90 -83 l-35 -22 30 7 c59 14 106 48 133
99 6 11 19 20 29 21 10 0 42 1 71 2 28 1 52 6 52 11 0 16 -28 20 -79 12 -49
-8 -51 -7 -51 15 0 19 -5 24 -26 24 -23 0 -26 -3 -22 -25z"/>
  <path d="M600 111 c0 -4 18 -24 39 -45 26 -25 45 -37 56 -32 31 12 -17 64 -72
78 -13 4 -23 3 -23 -1z"/>
</g>
</g>
</svg>