<?xml version="1.0" standalone="no"?>
<!DOCTYPE svg PUBLIC "-//W3C//DTD SVG 20010904//EN"
 "http://www.w3.org/TR/2001/REC-SVG-20010904/DTD/svg10.dtd">
<svg version="1.0" xmlns="http://www.w3.org/2000/svg"
 width="96.000000pt" height="68.000000pt" viewBox="0 0 96.000000 68.000000"
 preserveAspectRatio="xMidYMid meet">
<metadata>
Created by potrace 1.16, written by Peter Selinger 2001-2019
Combined from part_0.svg through part_5.svg with named groups
</metadata>
<g transform="translate(0.000000,68.000000) scale(0.100000,-0.100000)" fill="#000000" stroke="none">
<g id="part-0" class="char-part">
  <path d="M552 564 c-3 -35 -19 -70 -34 -73 -5 0 -8 -3 -8 -6 0 -3 0 -45 0 -94
l0 -89 40 10 c30 8 44 7 55 -2 24 -20 30 -4 32 91 2 84 0 91 -20 99 -12 4 -26
4 -31 0 -5 -5 -15 -6 -23 -3 -8 3 -11 9 -6 12 5 3 19 19 31 35 17 22 19 32 11
42 -22 27 -45 16 -47 -22z m46 -116 c2 -20 -1 -28 -12 -28 -8 0 -21 -3 -29 -6
-10 -3 -16 3 -19 18 -7 37 2 49 31 46 20 -2 27 -9 29 -30z m2 -72 c0 -30 -3
-34 -30 -38 -28 -4 -30 -2 -30 28 0 28 4 33 28 37 15 2 28 5 30 6 1 0 2 -14 2
-33z"/>
  <path d="M715 533 c-6 -27 -43 -85 -57 -91 -4 -2 -8 -12 -8 -23 0 -13 7 -19
23 -19 30 0 40 10 27 25 -7 9 0 26 25 58 19 25 35 48 35 51 0 3 -9 10 -19 15
-16 9 -20 6 -26 -16z"/>
  <path d="M404 495 c-7 -19 -14 -38 -14 -43 0 -5 -9 -17 -20 -27 -34 -31 -26
-49 20 -41 45 7 47 6 23 -32 -25 -38 -34 -43 -70 -37 -18 3 -55 -1 -83 -9 -27
-8 -50 -12 -50 -8 0 4 14 34 30 66 17 32 30 67 30 77 0 12 11 19 40 24 40 7
58 20 45 33 -9 9 -95 10 -95 1 0 -4 -25 -10 -57 -14 -31 -4 -62 -9 -70 -12
-24 -9 -2 -23 38 -23 34 0 39 -3 39 -24 0 -36 -21 -87 -33 -79 -5 3 -7 1 -4
-4 4 -6 -14 -37 -39 -69 -51 -66 -44 -81 16 -34 l40 32 0 -27 c0 -40 16 -63
42 -59 75 11 98 16 96 22 -5 21 15 73 27 68 7 -2 36 2 64 11 41 12 55 12 66 3
13 -10 15 -8 15 13 0 16 -8 31 -20 37 -19 10 -25 6 -21 -14 3 -12 -20 -26 -42
-26 -17 0 -17 2 2 28 11 15 31 40 45 56 28 32 33 51 14 62 -6 4 -19 -4 -30
-19 -19 -27 -42 -35 -52 -19 -3 5 10 30 29 57 19 26 32 52 29 56 -12 20 -36 7
-50 -26z m-102 -220 c-8 -61 -11 -65 -47 -65 -34 0 -35 1 -35 39 0 36 3 40 28
44 45 7 57 3 54 -18z"/>
  <path d="M762 455 c-6 -14 -19 -25 -28 -25 -10 0 -14 -6 -11 -14 3 -8 -11 -32
-34 -55 -55 -55 -33 -83 37 -46 33 17 64 20 64 5 0 -5 7 -10 15 -10 21 0 19
33 -3 53 -24 21 -40 22 -38 1 0 -9 -9 -20 -21 -25 -35 -13 -28 10 17 56 43 43
48 56 27 74 -11 8 -16 5 -25 -14z"/>
  <path d="M542 268 c4 -28 -22 -36 -119 -37 -71 -1 -94 -13 -52 -26 12 -4 50
-4 86 0 55 6 64 5 57 -8 -12 -20 -94 -89 -138 -117 -21 -12 -35 -24 -33 -27 8
-7 110 48 153 83 23 19 44 34 47 34 3 0 7 -35 9 -77 2 -61 6 -78 18 -78 12 0
16 18 20 83 l5 83 55 -56 c53 -54 55 -55 112 -55 32 0 58 4 58 9 0 5 -28 19
-62 32 -91 33 -172 88 -156 104 3 3 57 6 122 7 85 1 116 4 116 13 0 20 -43 26
-144 19 -89 -6 -93 -6 -99 15 -3 15 -13 21 -32 21 -21 0 -26 -4 -23 -22z"/>
</g>
<g id="part-1" class="char-part">
  <path d="M205 481 c-75 -15 -77 -16 -37 -19 27 -2 45 -9 49 -18 9 -23 -25 -99
-73 -164 -50 -68 -43 -77 18 -22 42 38 115 173 103 192 -5 9 4 12 73 26 33 7
17 24 -21 23 -18 -1 -68 -9 -112 -18z"/>
</g>
<g id="part-2" class="char-part">
  <path d="M250 306 c-67 -17 -69 -18 -57 -76 l10 -50 41 6 c68 9 87 14 82 22
-3 4 4 26 14 49 28 62 7 74 -90 49z m50 -35 c0 -49 -9 -61 -46 -61 -33 0 -34
1 -34 39 0 37 2 40 33 44 17 2 35 5 40 5 4 1 7 -11 7 -27z"/>
</g>
<g id="part-3" class="char-part">
  <path d="M396 478 c-14 -29 -31 -61 -38 -71 -19 -25 5 -38 44 -23 27 10 28 11
9 14 -11 2 -21 6 -21 8 0 3 16 28 35 56 19 28 32 55 29 60 -13 20 -35 4 -58
-44z"/>
</g>
<g id="part-4" class="char-part">
  <path d="M761 457 c-11 -28 -28 -51 -79 -105 -28 -29 -31 -37 -20 -49 12 -11
20 -10 53 7 43 22 70 25 80 10 10 -16 25 -11 25 8 0 20 -29 52 -47 52 -6 0 -9
-8 -6 -19 3 -14 -2 -20 -22 -25 -46 -12 -43 -6 37 80 28 30 28 31 8 49 -19 17
-20 17 -29 -8z"/>
</g>
<g id="part-5" class="char-part">
  <path d="M550 281 c0 -6 4 -11 8 -11 5 0 9 -7 9 -15 0 -8 -3 -12 -7 -10 -4 3
-15 -4 -25 -15 -16 -18 -16 -20 -2 -20 10 0 17 -5 17 -11 0 -5 -5 -7 -11 -4
-5 4 -34 -16 -64 -44 -30 -28 -50 -51 -45 -51 5 0 15 7 23 15 8 8 18 11 22 7
5 -4 5 -1 1 6 -4 7 -1 12 8 12 8 0 20 8 25 18 5 10 18 18 28 19 18 1 19 -5 16
-72 -3 -73 8 -104 28 -74 10 15 6 121 -6 154 -6 16 -5 17 5 5 9 -13 10 -12 8
5 -1 11 1 26 5 33 5 6 4 12 -1 12 -5 0 -9 10 -8 22 1 14 -6 24 -16 26 -10 2
-18 -1 -18 -7z"/>
  <path d="M663 242 c-18 -2 -33 -8 -33 -13 0 -6 5 -7 11 -4 5 4 51 7 100 7 49
0 87 3 84 7 -7 6 -107 8 -162 3z"/>
  <path d="M393 223 c-23 -9 -14 -20 15 -18 78 5 79 6 57 15 -22 10 -54 11 -72
3z"/>
  <path d="M490 220 c0 -5 5 -10 10 -10 6 0 10 5 10 10 0 6 -4 10 -10 10 -5 0
-10 -4 -10 -10z"/>
  <path d="M662 127 c58 -59 84 -68 133 -47 l20 9 -20 1 c-11 0 -31 7 -45 15
-18 9 -29 10 -38 3 -9 -8 -11 -7 -6 6 4 12 0 16 -15 16 -12 0 -21 5 -21 10 0
6 -5 10 -12 10 -6 0 -21 8 -32 17 -12 9 4 -9 36 -40z"/>
</g>
</g>
</svg>