<?xml version="1.0" standalone="no"?>
<!DOCTYPE svg PUBLIC "-//W3C//DTD SVG 20010904//EN"
 "http://www.w3.org/TR/2001/REC-SVG-20010904/DTD/svg10.dtd">
<svg version="1.0" xmlns="http://www.w3.org/2000/svg"
 width="96.000000pt" height="68.000000pt" viewBox="0 0 96.000000 68.000000"
 preserveAspectRatio="xMidYMid meet">
<metadata>
Created by potrace 1.16, written by Peter Selinger 2001-2019
Combined from part_0.svg through part_5.svg with named groups
</metadata>
<g transform="translate(0.000000,68.000000) scale(0.100000,-0.100000)" fill="#000000" stroke="none">
<g id="part-0" class="char-part">
  <path d="M213 588 c-6 -7 -21 -34 -33 -61 -22 -44 -23 -49 -7 -64 20 -21 41
-6 58 41 l12 33 194 17 c107 10 197 15 200 12 4 -3 -6 -18 -21 -32 -14 -15
-25 -29 -23 -30 2 -2 38 4 80 14 86 19 100 39 47 67 -37 19 -79 19 -298 -1
-161 -15 -177 -15 -188 0 -9 13 -13 14 -21 4z"/>
  <path d="M430 485 c-30 -7 -76 -14 -102 -14 -27 -1 -48 -5 -48 -11 0 -5 21
-10 48 -10 l47 0 -34 -32 c-19 -18 -55 -42 -79 -54 -24 -12 -40 -24 -36 -27 5
-3 27 4 49 14 45 22 90 22 90 -1 0 -25 -76 -70 -110 -65 -16 3 -24 2 -17 -1
21 -10 13 -24 -20 -39 -29 -12 -30 -14 -10 -15 13 0 32 5 42 10 16 9 22 6 34
-17 l14 -28 -76 -32 c-91 -38 -82 -42 21 -10 60 20 75 21 85 10 20 -21 32 -15
32 15 0 20 8 32 29 45 16 9 32 17 35 17 12 0 6 -82 -9 -117 -14 -33 -18 -35
-46 -29 -29 5 -30 5 -18 -12 37 -47 66 -53 90 -19 30 42 42 97 35 164 -8 76
-15 77 107 -24 62 -51 96 -73 115 -73 43 0 102 12 102 20 0 4 -21 13 -47 21
-61 17 -253 115 -253 129 0 3 25 18 55 34 58 30 69 50 34 61 -17 6 -30 -2 -61
-39 -22 -25 -45 -46 -51 -46 -6 0 -35 17 -64 37 l-54 37 23 18 c13 10 26 18
31 18 4 0 7 9 7 20 0 17 7 20 48 21 26 0 56 4 67 8 19 8 19 8 -2 19 -25 14
-29 14 -103 -3z m-13 -181 c7 -18 -43 -74 -66 -74 -22 1 -59 31 -45 36 6 3 26
16 44 29 39 29 58 31 67 9z"/>
</g>
<g id="part-1" class="char-part">
  <path d="M480 584 c-155 -16 -250 -17 -250 -4 0 24 -18 6 -42 -43 -27 -56 -24
-85 7 -73 9 3 24 24 32 46 9 22 19 37 23 35 4 -3 76 2 160 11 84 8 174 14 199
12 l46 -3 -27 -27 c-15 -16 -22 -28 -15 -27 38 2 131 27 134 36 2 6 -11 20
-30 32 -39 24 -56 24 -237 5z"/>
</g>
<g id="part-2" class="char-part">
  <path d="M430 485 c-41 -8 -92 -14 -112 -14 -21 -1 -38 -5 -38 -11 0 -18 248
-5 268 14 19 20 -38 25 -118 11z"/>
</g>
<g id="part-3" class="char-part">
  <path d="M350 426 c-14 -14 -54 -41 -90 -61 -74 -39 -67 -45 17 -14 70 27 146
71 145 84 -3 21 -47 15 -72 -9z"/>
</g>
<g id="part-4" class="char-part">
  <path d="M526 354 c-28 -33 -43 -43 -57 -39 -14 5 -17 2 -13 -9 3 -9 10 -16
14 -16 4 0 51 -36 104 -80 54 -44 105 -80 115 -80 37 0 111 13 111 19 0 4 -33
18 -72 30 -64 21 -227 107 -228 121 0 3 25 18 55 35 56 30 68 48 39 59 -24 9
-27 8 -68 -40z"/>
</g>
</g>
</svg>