<?xml version="1.0" standalone="no"?>
<!DOCTYPE svg PUBLIC "-//W3C//DTD SVG 20010904//EN"
 "http://www.w3.org/TR/2001/REC-SVG-20010904/DTD/svg10.dtd">
<svg version="1.0" xmlns="http://www.w3.org/2000/svg"
 width="96.000000pt" height="68.000000pt" viewBox="0 0 96.000000 68.000000"
 preserveAspectRatio="xMidYMid meet">
<metadata>
Created by potrace 1.16, written by Peter Selinger 2001-2019
Combined from part_0.svg through part_5.svg with named groups
</metadata>
<g transform="translate(0.000000,68.000000) scale(0.100000,-0.100000)" fill="#000000" stroke="none">
<g id="part-0" class="char-part">
  <path d="M346 566 c7 -49 4 -53 -51 -57 -37 -4 -40 -2 -43 24 -3 26 -31 47
-63 47 -14 0 -11 -20 6 -36 26 -26 17 -42 -25 -49 -22 -4 -40 -10 -40 -15 0
-9 35 -20 67 -20 17 0 24 -8 29 -36 6 -33 9 -36 35 -30 24 5 29 2 29 -15 0
-13 4 -18 12 -13 6 4 8 3 4 -4 -3 -6 -38 -14 -77 -18 -39 -4 -66 -10 -60 -13
6 -4 17 -25 24 -46 14 -40 14 -40 61 -37 41 3 46 1 46 -16 0 -25 -12 -29 -112
-38 -43 -3 -78 -10 -78 -14 0 -13 59 -17 117 -8 65 10 78 3 63 -36 -14 -38
-13 -69 5 -92 13 -16 16 -17 25 -4 5 8 10 31 10 51 0 20 3 51 6 68 6 31 7 31
70 31 35 0 64 4 64 9 0 14 -27 21 -81 21 -42 0 -49 3 -49 20 0 11 7 21 15 21
8 1 20 3 25 4 6 1 19 3 30 4 11 0 20 7 20 14 0 8 9 22 20 32 11 10 20 22 20
27 0 16 -46 26 -88 18 -39 -7 -42 -6 -42 16 0 12 -6 25 -12 27 -7 3 3 6 23 6
33 1 36 3 37 32 1 41 8 47 62 51 57 4 58 20 3 32 -43 10 -52 23 -32 43 8 8 3
15 -19 27 -53 27 -62 22 -56 -28z m-8 -108 c-2 -19 -9 -23 -38 -23 -38 0 -56
29 -23 38 47 12 64 8 61 -15z m68 -134 c-3 -9 -6 -19 -6 -24 0 -4 -13 -10 -30
-12 -27 -4 -30 -2 -30 24 0 26 3 28 36 28 29 0 35 -3 30 -16z m-106 -19 c0
-18 -7 -26 -25 -31 -36 -9 -55 2 -55 31 0 23 4 25 40 25 36 0 40 -3 40 -25z"/>
  <path d="M644 498 c-64 -53 -77 -59 -112 -52 l-30 6 9 -38 c12 -50 1 -165 -21
-229 -10 -27 -21 -59 -25 -70 -4 -13 6 -6 28 18 33 36 41 57 62 163 5 21 38
34 90 34 31 0 35 -20 35 -178 0 -100 3 -133 12 -130 19 7 26 53 30 193 3 105
7 130 18 131 8 1 34 2 58 3 23 0 42 5 42 10 0 17 -56 19 -140 5 -125 -20 -140
-19 -140 10 0 31 10 56 22 56 24 0 168 64 168 75 0 7 -13 18 -29 23 -26 9 -34
6 -77 -30z"/>
</g>
<g id="part-1" class="char-part">
  <path d="M356 562 c7 -46 3 -50 -60 -58 -44 -6 -46 -6 -46 18 0 28 -17 48 -42
48 -19 0 -23 -10 -9 -25 5 -6 12 -20 16 -32 6 -21 3 -23 -34 -23 -54 0 -53
-18 1 -22 39 -3 43 -6 49 -36 8 -40 14 -46 31 -36 15 10 19 10 74 12 40 2 42
3 48 42 6 38 8 40 40 40 19 0 41 3 50 6 27 10 7 24 -34 24 -39 0 -39 0 -37 38
2 34 0 37 -26 40 -27 3 -27 2 -21 -36z m-8 -104 c-2 -19 -10 -24 -45 -26 -40
-3 -43 -1 -43 22 0 24 3 26 46 26 41 0 45 -2 42 -22z"/>
</g>
<g id="part-2" class="char-part">
  <path d="M300 231 c0 -22 -16 -27 -118 -37 -40 -3 -75 -10 -77 -14 -9 -14 52
-19 120 -9 37 5 69 8 70 7 2 -2 -2 -27 -8 -56 -11 -54 -5 -81 21 -90 13 -4 18
16 27 101 l6 57 65 0 c64 0 84 12 42 26 -13 4 -42 6 -65 5 -33 -1 -43 2 -43
14 0 8 -9 15 -20 15 -13 0 -20 -7 -20 -19z"/>
</g>
<g id="part-3" class="char-part">
  <path d="M630 490 c-56 -43 -69 -49 -98 -44 -32 6 -33 6 -25 -22 19 -70 -14
-289 -47 -309 -6 -3 -10 -11 -10 -17 0 -18 50 34 70 72 21 41 40 134 40 196 0
23 6 46 13 52 6 5 49 24 95 42 45 17 82 37 82 44 0 10 -41 37 -53 36 -1 0 -31
-23 -67 -50z"/>
</g>
<g id="part-4" class="char-part">
  <path d="M672 360 c-56 -9 -105 -20 -109 -24 -15 -15 10 -16 98 -1 52 8 113
15 137 15 23 0 42 5 42 10 0 6 -6 10 -12 10 -7 0 -22 2 -33 4 -11 2 -66 -4
-123 -14z"/>
</g>
<g id="part-5" class="char-part">
  <path d="M680 319 c0 -7 8 -18 18 -25 15 -12 15 -13 0 -8 -14 5 -16 -8 -17
-128 0 -118 2 -131 14 -114 17 23 20 56 5 56 -5 0 -10 5 -10 11 0 5 5 7 10 4
10 -6 14 36 11 110 -1 22 2 53 8 68 7 18 7 26 1 22 -6 -3 -10 -1 -10 4 0 6 -7
11 -15 11 -8 0 -15 -5 -15 -11z"/>
</g>
</g>
</svg>