<?xml version="1.0" standalone="no"?>
<!DOCTYPE svg PUBLIC "-//W3C//DTD SVG 20010904//EN"
 "http://www.w3.org/TR/2001/REC-SVG-20010904/DTD/svg10.dtd">
<svg version="1.0" xmlns="http://www.w3.org/2000/svg"
 width="96.000000pt" height="68.000000pt" viewBox="0 0 96.000000 68.000000"
 preserveAspectRatio="xMidYMid meet">
<metadata>
Created by potrace 1.16, written by Peter Selinger 2001-2019
Combined from part_0.svg through part_5.svg with named groups
</metadata>
<g transform="translate(0.000000,68.000000) scale(0.100000,-0.100000)" fill="#000000" stroke="none">
<g id="part-0" class="char-part">
  <path d="M540 595 c0 -22 -27 -73 -62 -117 -16 -21 -25 -38 -18 -38 19 0 54
22 73 47 15 19 28 23 70 24 75 1 140 12 144 25 6 18 -40 25 -98 14 -29 -6 -54
-8 -56 -6 -3 2 2 14 9 25 11 18 11 23 -2 31 -24 15 -60 12 -60 -5z"/>
  <path d="M291 553 c-8 -20 -36 -61 -64 -90 -56 -60 -44 -71 24 -21 36 26 60
34 132 44 94 13 103 16 92 33 -8 14 -50 14 -94 1 -42 -12 -50 -6 -26 20 14 16
15 22 5 35 -23 28 -55 18 -69 -22z"/>
  <path d="M570 478 c0 -19 52 -68 72 -68 31 0 23 47 -12 65 -35 18 -60 19 -60
3z"/>
  <path d="M320 462 c0 -14 48 -62 61 -62 17 0 22 31 8 45 -19 18 -69 30 -69 17z"/>
  <path d="M460 410 c-14 -11 -29 -20 -35 -20 -5 0 -28 -9 -50 -19 l-40 -19 50
2 c45 1 50 -1 53 -22 2 -15 -1 -22 -10 -21 -16 3 -169 -9 -218 -18 -32 -6 -33
-6 -11 -15 15 -5 66 -4 128 3 57 7 105 10 107 8 2 -2 5 -40 7 -84 l4 -80 -73
-8 c-95 -12 -87 -32 9 -23 l69 7 0 -30 0 -31 -79 0 c-95 0 -172 -10 -166 -21
7 -10 537 1 549 12 22 20 -51 31 -156 24 l-108 -6 0 30 0 31 85 0 c49 0 85 4
85 10 0 15 -41 22 -106 18 l-59 -3 0 80 0 80 133 9 c72 4 132 12 132 17 0 28
-102 30 -232 3 -25 -5 -28 -3 -28 19 0 14 -6 27 -12 30 -7 2 6 7 29 11 50 9
61 21 34 35 -30 16 -63 13 -91 -9z"/>
  <path d="M580 255 c0 -19 -7 -26 -32 -34 -32 -9 -32 -9 -5 -10 23 -1 27 -5 27
-28 l1 -28 20 28 c17 22 28 27 66 27 52 0 56 23 5 28 -24 2 -32 8 -32 23 0 14
-7 19 -25 19 -20 0 -25 -5 -25 -25z"/>
  <path d="M307 253 c-4 -3 -2 -12 4 -19 16 -20 1 -34 -37 -34 -19 0 -34 -4 -34
-10 0 -5 21 -10 46 -10 37 0 47 -4 51 -20 8 -29 21 -25 25 7 2 22 10 29 33 34
l30 6 -32 8 c-18 4 -33 13 -33 20 0 19 -39 32 -53 18z"/>
</g>
<g id="part-1" class="char-part">
  <path d="M546 586 c-3 -13 -22 -47 -41 -76 -20 -29 -38 -57 -41 -62 -10 -16
50 19 69 40 14 15 37 21 95 26 89 8 112 14 112 27 0 11 -60 11 -117 0 -24 -5
-43 -7 -43 -4 0 2 7 14 16 28 14 22 14 24 -5 34 -29 16 -38 14 -45 -13z"/>
  <path d="M295 553 c-9 -21 -34 -59 -56 -85 -47 -56 -39 -61 22 -15 38 30 54
35 123 40 85 8 96 11 78 29 -8 8 -23 8 -56 -1 -72 -18 -78 -16 -58 18 18 33
17 35 -15 45 -19 6 -25 1 -38 -31z"/>
  <path d="M595 450 c30 -31 65 -40 65 -17 0 22 -34 47 -65 47 l-29 0 29 -30z"/>
  <path d="M330 452 c0 -14 35 -42 53 -42 23 0 21 27 -2 40 -24 12 -51 13 -51 2z"/>
</g>
<g id="part-2" class="char-part">
  <path d="M455 408 c-22 -12 -62 -29 -90 -39 -66 -24 -40 -24 81 1 132 27 134
28 110 46 -27 19 -54 17 -101 -8z"/>
</g>
<g id="part-3" class="char-part">
  <path d="M435 347 c7 -28 -3 -31 -125 -42 -36 -3 -81 -8 -100 -12 -34 -5 -34
-5 -10 -15 16 -6 61 -5 128 2 57 7 105 10 107 8 3 -2 12 -145 14 -220 1 -11 9
-18 21 -18 22 0 23 8 20 143 -2 109 -9 104 140 112 72 4 130 11 130 16 0 29
-64 30 -227 4 -27 -5 -32 -2 -35 17 -2 18 -10 24 -36 26 -30 3 -32 1 -27 -21z"/>
</g>
<g id="part-4" class="char-part">
  <path d="M430 44 c-102 -6 -196 -12 -210 -13 -15 -1 -20 -5 -15 -10 13 -12
555 -1 555 11 0 15 -49 28 -98 26 -26 0 -130 -7 -232 -14z"/>
</g>
</g>
</svg>