<?xml version="1.0" standalone="no"?>
<!DOCTYPE svg PUBLIC "-//W3C//DTD SVG 20010904//EN"
 "http://www.w3.org/TR/2001/REC-SVG-20010904/DTD/svg10.dtd">
<svg version="1.0" xmlns="http://www.w3.org/2000/svg"
 width="96.000000pt" height="68.000000pt" viewBox="0 0 96.000000 68.000000"
 preserveAspectRatio="xMidYMid meet">
<metadata>
Created by potrace 1.16, written by Peter Selinger 2001-2019
Combined from part_0.svg through part_5.svg with named groups
</metadata>
<g transform="translate(0.000000,68.000000) scale(0.100000,-0.100000)" fill="#000000" stroke="none">
<g id="part-0" class="char-part">
  <path d="M300 599 c0 -12 -12 -43 -27 -71 -22 -41 -31 -48 -51 -46 l-25 3 2
-87 2 -88 -28 -1 c-27 -2 -47 -4 -68 -8 -20 -3 30 -31 56 -31 15 0 30 -4 33
-8 10 -16 -12 -81 -42 -126 -35 -52 -26 -61 16 -16 28 28 49 72 68 135 8 24
16 31 44 36 19 3 45 9 58 13 22 7 22 6 22 -81 0 -95 -7 -117 -33 -107 -24 9
-21 -9 6 -34 53 -50 71 -20 69 119 -2 103 -1 111 18 116 25 7 26 23 1 23 -17
0 -18 6 -14 43 2 23 6 51 8 61 2 11 -1 28 -6 39 -10 17 -18 18 -67 12 l-56 -7
48 53 c44 49 46 54 30 66 -29 21 -64 17 -64 -8z m60 -199 c0 -77 -3 -80 -76
-80 l-44 0 0 58 c0 65 8 82 38 85 12 1 22 4 22 7 0 4 14 5 30 2 30 -4 30 -4
30 -72z"/>
  <path d="M270 405 c0 -15 34 -55 46 -55 15 0 18 18 6 36 -8 13 -52 29 -52 19z"/>
  <path d="M570 560 c0 -24 34 -60 56 -60 30 0 31 20 1 48 -24 23 -57 29 -57 12z"/>
  <path d="M600 469 c-97 -17 -106 -17 -117 -2 -11 14 -14 13 -24 -13 -6 -16
-13 -44 -16 -63 -8 -43 15 -39 37 7 13 26 22 32 60 37 25 3 72 10 106 15 33 6
73 10 88 10 28 0 28 0 11 -26 -9 -14 -15 -28 -12 -30 5 -6 117 42 117 50 0 3
-13 12 -30 21 -36 19 -86 17 -220 -6z"/>
  <path d="M520 238 c1 -111 1 -113 28 -133 23 -17 43 -20 137 -20 109 0 155 11
155 38 0 19 -32 97 -40 97 -4 0 -11 -15 -14 -34 -11 -56 -29 -65 -129 -63 -95
2 -107 9 -107 58 0 23 11 32 95 74 96 48 114 68 73 79 -37 9 -46 7 -53 -14 -6
-19 -81 -80 -98 -80 -5 0 -6 20 -2 46 5 34 3 49 -7 55 -34 22 -38 11 -38 -103z"/>
  <path d="M270 261 c0 -13 40 -61 51 -61 15 0 10 37 -7 54 -17 17 -44 22 -44 7z"/>
</g>
<g id="part-1" class="char-part">
  <path d="M310 607 c0 -8 -13 -40 -29 -71 -39 -73 -20 -73 43 0 49 56 50 66 9
79 -17 4 -23 2 -23 -8z"/>
</g>
<g id="part-2" class="char-part">
  <path d="M270 402 c0 -16 32 -52 46 -52 21 0 17 38 -5 50 -23 12 -41 13 -41 2z"/>
  <path d="M360 330 c-25 -5 -93 -11 -152 -15 -60 -5 -108 -12 -108 -16 0 -5 11
-16 25 -25 23 -15 31 -14 132 10 59 13 125 28 146 32 20 3 37 10 37 15 0 10
-15 10 -80 -1z"/>
</g>
<g id="part-3" class="char-part">
  <path d="M570 556 c0 -26 43 -68 63 -61 23 10 22 30 -5 55 -25 23 -58 27 -58
6z"/>
  <path d="M601 469 c-98 -17 -105 -17 -117 -1 -10 14 -14 12 -28 -21 -24 -58
-24 -87 -2 -87 8 0 20 15 27 34 12 33 15 34 85 45 127 19 184 24 184 17 0 -4
-5 -16 -11 -28 -6 -11 -9 -22 -6 -24 6 -6 117 43 117 51 0 13 -71 35 -107 34
-21 -1 -85 -9 -142 -20z"/>
</g>
<g id="part-4" class="char-part">
  <path d="M518 243 c3 -99 6 -110 28 -133 23 -24 30 -25 137 -25 161 0 172 9
135 108 -15 39 -28 40 -28 0 0 -13 -11 -35 -26 -49 -24 -25 -30 -26 -110 -23
-91 4 -104 11 -104 60 0 23 11 32 95 74 96 48 114 68 73 79 -37 10 -44 7 -56
-18 -6 -13 -31 -38 -56 -56 l-46 -31 0 26 c0 15 5 36 11 47 12 23 5 34 -31 43
l-25 6 3 -108z"/>
</g>
</g>
</svg>