<?xml version="1.0" standalone="no"?>
<!DOCTYPE svg PUBLIC "-//W3C//DTD SVG 20010904//EN"
 "http://www.w3.org/TR/2001/REC-SVG-20010904/DTD/svg10.dtd">
<svg version="1.0" xmlns="http://www.w3.org/2000/svg"
 width="96.000000pt" height="68.000000pt" viewBox="0 0 96.000000 68.000000"
 preserveAspectRatio="xMidYMid meet">
<metadata>
Created by potrace 1.16, written by Peter Selinger 2001-2019
Combined from part_0.svg through part_5.svg with named groups
</metadata>
<g transform="translate(0.000000,68.000000) scale(0.100000,-0.100000)" fill="#000000" stroke="none">
<g id="part-0" class="char-part">
  <path d="M410 631 c0 -43 -113 -138 -254 -213 -84 -44 -61 -51 40 -13 64 24
153 82 223 145 18 16 36 30 40 30 3 0 53 -38 111 -85 57 -47 113 -88 123 -91
25 -8 145 5 152 16 3 4 -28 18 -68 30 -91 27 -128 45 -197 91 -30 21 -67 43
-82 50 -15 6 -25 16 -22 21 8 12 -25 37 -48 38 -11 0 -18 -7 -18 -19z"/>
  <path d="M442 515 c-29 -6 -53 -15 -52 -20 1 -11 92 -7 124 5 20 7 20 7 1 17
-13 6 -39 5 -73 -2z"/>
  <path d="M430 451 l-95 -16 19 -39 c19 -38 19 -38 64 -32 25 3 62 6 83 6 26 0
39 5 39 13 0 7 10 24 22 37 21 22 21 23 3 36 -22 16 -13 17 -135 -5z m90 -30
c0 -22 -26 -31 -92 -31 -41 0 -48 3 -48 19 0 20 19 26 103 29 30 2 37 -1 37
-17z"/>
  <path d="M490 338 c-14 -6 -59 -21 -100 -34 l-75 -24 58 6 c48 4 58 3 63 -11
9 -24 -13 -35 -68 -35 -29 0 -48 -4 -48 -11 0 -8 20 -10 65 -7 58 5 65 4 65
-12 0 -25 -18 -30 -142 -37 -66 -4 -105 -10 -100 -15 11 -11 93 -11 180 0 l62
8 0 -37 c0 -43 -20 -63 -55 -57 -32 7 -31 1 2 -34 53 -55 93 -25 93 70 l0 62
116 0 c85 0 115 3 112 12 -7 21 -58 27 -141 18 -44 -5 -82 -9 -83 -7 -1 1 -4
11 -6 22 -3 17 5 21 60 28 83 12 83 32 -1 23 -55 -5 -64 -4 -75 14 -10 17 -10
20 2 20 8 0 38 5 66 11 42 9 49 13 39 25 -13 16 -53 17 -89 2z"/>
</g>
<g id="part-1" class="char-part">
  <path d="M417 644 c-4 -4 -7 -15 -7 -24 0 -38 -129 -144 -247 -204 -29 -14
-53 -28 -53 -30 0 -9 79 18 135 46 55 28 113 69 175 125 14 13 29 23 35 23 14
0 46 -22 135 -96 96 -78 114 -87 159 -80 103 18 103 16 1 50 -105 35 -265 130
-284 168 -12 23 -36 34 -49 22z"/>
</g>
<g id="part-2" class="char-part">
  <path d="M425 509 l-60 -17 60 -1 c64 -1 105 7 105 19 0 16 -47 15 -105 -1z"/>
</g>
<g id="part-3" class="char-part">
  <path d="M430 451 l-95 -16 18 -39 c18 -38 19 -38 64 -32 25 3 63 6 84 6 23 0
39 5 39 12 0 6 10 22 23 36 22 23 22 24 3 38 -11 8 -25 13 -30 13 -6 -1 -54
-9 -106 -18z m90 -26 c0 -20 -41 -35 -96 -35 -38 0 -45 3 -42 17 6 30 138 47
138 18z"/>
</g>
<g id="part-4" class="char-part">
  <path d="M496 338 c-11 -6 -56 -21 -100 -34 l-81 -24 57 6 c48 5 59 3 64 -10
9 -24 1 -29 -61 -34 -30 -2 -55 -9 -55 -15 0 -6 24 -8 65 -5 58 5 65 4 65 -12
0 -25 -15 -29 -140 -36 -60 -4 -107 -10 -105 -14 9 -14 65 -19 117 -11 29 5
70 12 91 15 l37 5 0 -38 c0 -48 -19 -66 -62 -57 l-32 6 34 -35 c60 -62 100
-37 100 63 l0 62 115 0 c63 0 115 4 115 9 0 21 -61 30 -133 21 -96 -13 -94
-13 -100 9 -5 21 -3 21 85 37 60 10 33 27 -31 20 -49 -6 -58 -4 -68 13 -14 22
-1 31 45 31 15 0 37 3 50 6 18 5 20 9 11 20 -14 17 -57 18 -83 2z"/>
</g>
</g>
</svg>