<?xml version="1.0" standalone="no"?>
<!DOCTYPE svg PUBLIC "-//W3C//DTD SVG 20010904//EN"
 "http://www.w3.org/TR/2001/REC-SVG-20010904/DTD/svg10.dtd">
<svg version="1.0" xmlns="http://www.w3.org/2000/svg"
 width="96.000000pt" height="68.000000pt" viewBox="0 0 96.000000 68.000000"
 preserveAspectRatio="xMidYMid meet">
<metadata>
Created by potrace 1.16, written by Peter Selinger 2001-2019
Combined from part_0.svg through part_5.svg with named groups
</metadata>
<g transform="translate(0.000000,68.000000) scale(0.100000,-0.100000)" fill="#000000" stroke="none">
<g id="part-0" class="char-part">
  <path d="M375 385 c-132 -13 -243 -24 -247 -24 -19 -2 -5 -20 26 -35 31 -15
42 -15 123 -1 109 18 359 35 433 28 42 -4 59 -1 68 10 21 25 -13 42 -92 44
-39 1 -179 -9 -311 -22z"/>
</g>
<g id="part-1" class="char-part">
  <path d="M400 383 c-146 -14 -267 -27 -269 -29 -3 -2 4 -11 15 -19 24 -18 59
-18 159 0 44 8 169 17 278 21 108 4 197 11 197 16 0 13 -65 38 -92 37 -13 -1
-142 -13 -288 -26z"/>
</g>
</g>
</svg>