<?xml version="1.0" standalone="no"?>
<!DOCTYPE svg PUBLIC "-//W3C//DTD SVG 20010904//EN"
 "http://www.w3.org/TR/2001/REC-SVG-20010904/DTD/svg10.dtd">
<svg version="1.0" xmlns="http://www.w3.org/2000/svg"
 width="96.000000pt" height="68.000000pt" viewBox="0 0 96.000000 68.000000"
 preserveAspectRatio="xMidYMid meet">
<metadata>
Created by potrace 1.16, written by Peter Selinger 2001-2019
Combined from part_0.svg through part_5.svg with named groups
</metadata>
<g transform="translate(0.000000,68.000000) scale(0.100000,-0.100000)" fill="#000000" stroke="none">
<g id="part-0" class="char-part">
  <path d="M500 570 c0 -52 -61 -187 -95 -212 -5 -4 -6 -8 -1 -8 6 0 19 8 30 19
13 11 43 21 79 24 l57 6 0 -48 c0 -59 -17 -111 -36 -111 -8 0 -14 3 -14 8 0
11 -64 52 -81 52 -9 -1 -7 -5 6 -12 11 -6 36 -27 55 -45 l35 -34 -35 -31 c-19
-16 -57 -41 -85 -54 -29 -14 -42 -24 -30 -24 39 0 93 21 130 50 21 17 39 30
41 30 1 0 29 -22 60 -50 54 -48 60 -50 115 -50 32 0 70 5 86 11 27 11 24 12
-58 33 -76 20 -179 67 -179 82 0 4 12 44 26 91 21 69 23 87 13 94 -19 11 -7
19 37 25 77 10 89 15 73 25 -22 14 -63 11 -155 -12 -46 -12 -87 -19 -90 -17
-3 3 14 36 37 73 45 72 45 97 0 103 -16 3 -21 -2 -21 -18z"/>
  <path d="M319 495 c-3 -2 -38 -9 -79 -15 -115 -16 -126 -20 -109 -31 7 -5 35
-9 61 -9 l47 0 7 -45 c9 -61 2 -75 -40 -75 -19 0 -38 -4 -41 -10 -4 -6 12 -10
40 -10 l46 0 -3 -62 -3 -63 -74 -14 c-66 -13 -72 -15 -56 -28 33 -23 62 -17
200 46 22 10 47 21 55 25 8 3 -7 3 -33 -1 l-48 -5 3 58 c3 58 3 59 36 62 17 2
32 7 32 12 0 5 -15 10 -32 12 -33 3 -33 4 -33 55 l0 51 42 7 c24 3 45 10 48
15 10 16 -52 40 -66 25z"/>
</g>
<g id="part-1" class="char-part">
  <path d="M217 472 c-56 -9 -84 -18 -75 -23 18 -12 83 -11 154 2 88 15 99 19
83 30 -18 11 -55 9 -162 -9z"/>
</g>
<g id="part-2" class="char-part">
  <path d="M249 444 c-13 -4 -15 -13 -8 -56 5 -29 7 -54 5 -56 -3 -2 -23 -6 -45
-9 -60 -8 -61 -23 -2 -23 l51 0 0 -59 0 -60 -75 -16 c-41 -9 -75 -21 -75 -25
0 -4 13 -13 28 -19 25 -11 42 -6 158 44 118 51 123 57 34 39 l-30 -6 0 55 0
55 40 7 c49 8 53 25 6 25 l-35 0 -3 52 c-3 54 -11 62 -49 52z"/>
</g>
<g id="part-3" class="char-part">
  <path d="M495 549 c-4 -24 -27 -80 -50 -126 -44 -85 -46 -101 -6 -59 17 18 36
25 87 29 35 4 81 11 102 16 20 6 54 13 75 16 21 3 35 10 32 16 -10 15 -67 11
-161 -11 -48 -11 -88 -19 -90 -18 -1 2 16 34 38 72 43 73 43 98 0 104 -17 3
-21 -4 -27 -39z"/>
</g>
<g id="part-4" class="char-part">
  <path d="M570 346 c0 -29 -5 -67 -11 -85 l-11 -32 -42 34 c-22 19 -52 37 -66
41 -22 6 -21 4 10 -21 61 -49 81 -75 70 -88 -18 -22 -88 -67 -127 -81 l-38
-15 48 5 c51 6 99 27 133 58 21 19 22 19 79 -31 54 -47 62 -51 110 -51 60 0
115 9 115 19 0 4 -28 13 -62 21 -87 19 -201 77 -195 99 30 97 46 164 42 172
-4 5 -17 9 -31 9 -22 0 -24 -3 -24 -54z"/>
</g>
</g>
</svg>