<?xml version="1.0" standalone="no"?>
<!DOCTYPE svg PUBLIC "-//W3C//DTD SVG 20010904//EN"
 "http://www.w3.org/TR/2001/REC-SVG-20010904/DTD/svg10.dtd">
<svg version="1.0" xmlns="http://www.w3.org/2000/svg"
 width="96.000000pt" height="68.000000pt" viewBox="0 0 96.000000 68.000000"
 preserveAspectRatio="xMidYMid meet">
<metadata>
Created by potrace 1.16, written by Peter Selinger 2001-2019
Combined from part_0.svg through part_5.svg with named groups
</metadata>
<g transform="translate(0.000000,68.000000) scale(0.100000,-0.100000)" fill="#000000" stroke="none">
<g id="part-0" class="char-part">
  <path d="M510 551 c0 -33 -60 -138 -105 -185 -51 -52 -47 -60 11 -18 34 25 63
56 121 131 12 14 23 5 101 -77 85 -91 88 -92 132 -91 25 0 53 4 64 8 15 6 9
11 -34 29 -29 12 -58 22 -66 22 -7 0 -14 3 -16 8 -2 4 -25 25 -53 47 -87 70
-105 88 -105 105 0 9 -11 22 -25 28 -22 10 -25 9 -25 -7z"/>
  <path d="M212 487 c-13 -30 -38 -69 -57 -87 -36 -35 -45 -67 -22 -76 7 -2 33
2 57 11 23 8 45 14 47 12 2 -2 -20 -27 -49 -55 -41 -40 -50 -54 -40 -64 9 -9
26 -7 76 11 37 13 73 20 85 16 26 -8 29 16 5 39 -20 20 -38 21 -30 1 5 -15 -4
-22 -61 -39 -37 -12 -27 7 47 82 71 72 83 95 54 106 -22 8 -21 9 -28 -19 -4
-14 -11 -25 -17 -25 -6 0 -8 -4 -5 -9 6 -8 -73 -26 -81 -17 -2 2 19 30 46 61
53 61 59 73 39 93 -25 25 -44 12 -66 -41z"/>
  <path d="M513 347 c-79 -16 -66 -31 20 -22 79 7 82 9 72 24 -7 12 -19 12 -92
-2z"/>
  <path d="M610 269 c-30 -5 -99 -10 -153 -11 -93 -3 -98 -4 -91 -23 3 -11 8
-53 11 -93 4 -52 9 -72 19 -72 10 0 14 13 14 45 0 43 1 45 30 45 25 0 30 -4
36 -35 3 -19 10 -35 15 -35 5 0 9 16 9 35 0 24 5 35 14 35 8 0 21 3 30 6 13 5
16 -2 16 -35 0 -23 4 -41 9 -41 11 0 21 25 21 50 0 23 7 28 58 36 39 6 42 5
42 -17 0 -54 -11 -71 -41 -67 -35 5 -35 5 -7 -32 44 -61 75 -26 89 99 14 127
11 130 -121 110z m-52 -60 c-2 -18 -9 -24 -28 -24 -20 0 -26 6 -28 27 -3 21 1
27 20 30 30 5 40 -4 36 -33z m130 15 c3 -18 -3 -22 -35 -26 -47 -6 -53 -3 -53
28 0 23 3 25 43 22 34 -2 43 -7 45 -24z m-218 -18 c0 -13 -7 -26 -15 -30 -25
-9 -45 4 -45 30 0 20 5 24 30 24 25 0 30 -4 30 -24z"/>
  <path d="M270 213 c1 -20 41 -55 56 -49 15 6 14 9 -6 31 -22 24 -50 34 -50 18z"/>
  <path d="M210 160 c24 -34 40 -39 40 -12 0 23 -19 42 -43 42 -17 0 -17 -2 3
-30z"/>
  <path d="M100 172 c1 -15 46 -86 58 -90 19 -6 15 42 -5 65 -19 21 -53 37 -53
25z"/>
</g>
<g id="part-1" class="char-part">
  <path d="M216 486 c-9 -24 -34 -62 -56 -86 -47 -51 -44 -75 7 -65 20 3 47 11
62 17 l26 12 -37 5 -37 6 55 64 c44 50 52 66 43 77 -22 27 -46 16 -63 -30z"/>
</g>
<g id="part-2" class="char-part">
  <path d="M270 211 c0 -19 47 -64 58 -57 17 10 15 23 -8 46 -21 21 -50 27 -50
11z"/>
  <path d="M207 160 c19 -33 43 -40 43 -12 0 23 -19 42 -43 42 -17 0 -17 -1 0
-30z"/>
  <path d="M100 169 c0 -21 44 -89 57 -89 22 0 15 49 -12 75 -26 27 -45 32 -45
14z"/>
</g>
<g id="part-3" class="char-part">
  <path d="M505 538 c-9 -43 -65 -134 -110 -181 -22 -23 -30 -37 -21 -37 16 0
120 97 154 145 l22 30 88 -93 c85 -91 88 -92 132 -91 86 1 88 12 8 47 -81 36
-211 137 -216 168 -4 18 -28 44 -43 44 -4 0 -11 -15 -14 -32z"/>
</g>
<g id="part-4" class="char-part">
  <path d="M515 346 c-35 -7 -55 -15 -48 -19 15 -10 142 3 149 14 3 5 1 9 -5 9
-5 0 -15 2 -23 4 -7 2 -40 -2 -73 -8z"/>
</g>
<g id="part-5" class="char-part">
  <path d="M655 269 c-17 -8 -16 -9 7 -6 16 3 26 0 25 -7 -1 -6 4 -10 11 -8 9 1
11 -2 6 -10 -5 -7 -9 -31 -10 -53 -3 -95 -2 -95 -29 -95 -14 0 -25 -5 -25 -11
0 -18 28 -39 43 -33 19 7 41 59 32 73 -3 6 -3 11 2 11 4 0 8 17 8 38 0 20 4
45 10 55 8 14 5 22 -15 37 -28 22 -36 23 -65 9z"/>
  <path d="M371 242 c13 -5 16 -21 14 -77 -1 -74 2 -98 15 -90 4 2 7 42 6 87 -1
81 -2 83 -26 85 -18 2 -20 0 -9 -5z"/>
</g>
</g>
</svg>