<?xml version="1.0" standalone="no"?>
<!DOCTYPE svg PUBLIC "-//W3C//DTD SVG 20010904//EN"
 "http://www.w3.org/TR/2001/REC-SVG-20010904/DTD/svg10.dtd">
<svg version="1.0" xmlns="http://www.w3.org/2000/svg"
 width="96.000000pt" height="68.000000pt" viewBox="0 0 96.000000 68.000000"
 preserveAspectRatio="xMidYMid meet">
<metadata>
Created by potrace 1.16, written by Peter Selinger 2001-2019
Combined from part_0.svg through part_5.svg with named groups
</metadata>
<g transform="translate(0.000000,68.000000) scale(0.100000,-0.100000)" fill="#000000" stroke="none">
<g id="part-0" class="char-part">
  <path d="M590 563 c0 -24 -71 -138 -114 -184 -39 -41 -43 -51 -23 -67 10 -9
49 -2 152 24 l138 34 27 -25 c32 -30 50 -32 50 -5 0 27 -29 70 -46 70 -8 0
-14 4 -14 8 0 8 -57 32 -75 32 -5 0 4 -13 20 -30 16 -16 27 -32 24 -34 -11
-11 -205 -44 -213 -36 -9 9 2 28 85 142 43 59 46 88 9 88 -12 0 -20 -7 -20
-17z"/>
  <path d="M350 551 c-8 -5 -52 -14 -97 -21 -46 -7 -83 -16 -83 -20 0 -12 27
-20 66 -20 29 0 34 -3 34 -23 0 -24 -42 -90 -74 -116 -24 -20 -59 -71 -49 -71
5 0 19 9 31 20 12 11 24 20 27 20 3 0 25 -21 49 -46 l44 -45 -69 -72 c-37 -39
-67 -72 -66 -73 1 -2 23 10 48 25 57 36 124 114 167 194 18 34 40 69 49 79 15
17 15 20 0 35 -15 15 -24 16 -74 5 -31 -6 -59 -10 -61 -8 -2 3 9 22 24 42 16
21 22 34 14 30 -12 -7 -13 -7 -2 5 7 8 34 19 60 24 58 12 65 39 12 42 -19 2
-42 -1 -50 -6z m24 -149 c6 -10 -49 -128 -63 -136 -5 -4 -12 3 -16 14 -4 11
-21 27 -38 36 -18 9 -33 18 -35 19 -2 2 8 15 21 29 21 23 52 34 119 45 4 1 9
-3 12 -7z"/>
  <path d="M650 264 c-41 -8 -103 -13 -137 -11 -58 3 -77 -3 -54 -17 5 -3 17
-37 26 -76 17 -69 28 -89 39 -71 4 5 60 12 126 16 100 6 118 10 109 21 -11 14
1 50 33 96 10 14 9 21 -6 37 -22 24 -33 24 -136 5z m68 -66 c-5 -24 -12 -46
-16 -50 -7 -7 -34 -11 -149 -23 -30 -3 -32 -1 -39 38 -5 23 -8 47 -9 52 0 11
68 21 161 23 l62 2 -10 -42z"/>
</g>
<g id="part-1" class="char-part">
  <path d="M365 551 c-11 -5 -54 -14 -95 -21 -99 -17 -110 -30 -27 -30 69 0 197
26 197 40 0 18 -42 24 -75 11z"/>
</g>
<g id="part-2" class="char-part">
  <path d="M274 483 c-16 -51 -38 -86 -89 -141 -73 -79 -47 -85 30 -8 35 35 66
57 87 61 18 4 41 9 51 11 27 8 21 -20 -25 -109 -28 -54 -66 -105 -109 -150
-37 -37 -65 -67 -62 -67 2 0 21 9 41 19 54 27 133 115 181 201 23 41 47 83 54
93 22 33 -32 47 -102 27 -19 -5 -37 -8 -39 -5 -3 2 7 18 22 35 14 18 24 36 20
41 -10 16 -54 10 -60 -8z"/>
</g>
<g id="part-3" class="char-part">
  <path d="M590 563 c-19 -51 -44 -93 -90 -150 -68 -85 -66 -81 -49 -98 13 -14
29 -11 153 21 l138 35 23 -25 c26 -28 40 -32 50 -15 21 33 -42 98 -110 115
l-30 7 28 -33 c15 -18 26 -35 23 -37 -4 -4 -192 -41 -213 -43 -15 -1 14 44
122 196 7 9 6 20 -1 31 -17 28 -33 26 -44 -4z"/>
</g>
<g id="part-4" class="char-part">
  <path d="M660 263 c-41 -7 -108 -12 -148 -10 -66 4 -71 3 -58 -12 8 -9 22 -45
31 -81 20 -78 23 -84 39 -71 6 5 61 13 121 17 l110 7 1 28 c1 16 13 47 28 69
l26 40 -30 15 c-16 8 -33 15 -37 14 -4 -1 -42 -8 -83 -16z m62 -53 c-6 -56
-17 -68 -70 -75 -26 -3 -64 -8 -85 -10 -33 -5 -39 -2 -47 19 -5 14 -10 37 -12
53 l-3 28 90 11 c129 16 131 16 127 -26z"/>
</g>
</g>
</svg>