<?xml version="1.0" standalone="no"?>
<!DOCTYPE svg PUBLIC "-//W3C//DTD SVG 20010904//EN"
 "http://www.w3.org/TR/2001/REC-SVG-20010904/DTD/svg10.dtd">
<svg version="1.0" xmlns="http://www.w3.org/2000/svg"
 width="96.000000pt" height="68.000000pt" viewBox="0 0 96.000000 68.000000"
 preserveAspectRatio="xMidYMid meet">
<metadata>
Created by potrace 1.16, written by Peter Selinger 2001-2019
Combined from part_0.svg through part_5.svg with named groups
</metadata>
<g transform="translate(0.000000,68.000000) scale(0.100000,-0.100000)" fill="#000000" stroke="none">
<g id="part-0" class="char-part">
  <path d="M315 593 c3 -21 8 -48 11 -60 5 -24 -3 -28 -83 -38 -29 -4 -53 -11
-53 -15 0 -5 30 -10 68 -12 65 -3 67 -4 70 -30 4 -29 3 -30 -137 -62 -75 -17
-81 -22 -55 -41 27 -20 44 -19 120 10 37 14 69 23 71 21 7 -7 -7 -65 -17 -71
-4 -3 -22 0 -39 6 -18 6 -34 9 -37 6 -9 -8 80 -86 98 -87 30 0 48 40 48 107
l0 62 45 20 c25 11 45 23 45 26 0 3 -20 3 -45 -1 -43 -6 -45 -5 -45 19 0 22 6
26 40 32 66 11 61 39 -6 37 -33 -1 -33 -1 -36 51 -3 51 -4 52 -36 55 l-33 3 6
-38z"/>
  <path d="M620 554 c-31 -20 -67 -34 -85 -34 -31 0 -32 -1 -25 -37 9 -54 -8
-121 -42 -172 -16 -24 -27 -45 -25 -48 12 -11 77 62 96 107 20 46 24 50 56 50
28 0 36 -4 39 -22 8 -37 12 -168 6 -168 -4 0 -52 -7 -107 -15 -136 -20 -163
-22 -200 -14 -38 8 -42 0 -13 -26 11 -10 20 -26 20 -35 0 -9 7 -40 16 -69 13
-44 17 -51 30 -40 9 7 63 14 140 17 96 4 124 8 120 17 -2 7 9 39 25 70 28 54
29 59 13 76 -9 10 -13 22 -10 28 4 6 11 46 16 88 7 64 6 80 -6 89 -11 9 2 13
61 19 41 4 75 10 75 15 0 17 -51 19 -131 5 -116 -21 -129 -20 -129 8 0 36 11
44 90 67 41 13 77 25 80 27 7 6 -31 33 -44 32 -6 -1 -36 -16 -66 -35z m-7
-392 c-3 -85 -15 -92 -148 -92 l-73 0 -7 46 c-3 26 -3 50 2 54 11 11 137 28
188 26 39 -1 40 -2 38 -34z"/>
</g>
<g id="part-1" class="char-part">
  <path d="M317 624 c-3 -3 -2 -17 4 -31 5 -13 9 -39 9 -58 l0 -33 -65 -7 c-36
-4 -65 -11 -65 -16 0 -5 29 -9 65 -9 l65 0 0 -33 0 -34 -107 -25 -107 -25 27
-18 c27 -17 29 -17 107 13 l80 30 0 -28 c0 -58 -24 -75 -71 -50 -29 16 -23 -3
14 -38 63 -61 97 -39 97 61 l0 68 46 20 c48 22 56 37 10 19 -44 -16 -56 -13
-56 19 0 25 5 29 42 37 50 11 48 29 -2 29 l-35 0 3 44 c1 24 -3 49 -9 57 -12
14 -41 19 -52 8z"/>
</g>
<g id="part-2" class="char-part">
  <path d="M638 348 c4 -93 10 -120 25 -115 14 4 24 50 29 127 3 55 3 55 -27 58
l-31 3 4 -73z"/>
</g>
<g id="part-3" class="char-part">
  <path d="M525 214 c-49 -7 -121 -13 -158 -13 l-68 -1 19 -25 c11 -14 23 -42
26 -62 4 -21 12 -50 18 -66 8 -22 13 -25 25 -16 8 7 65 14 138 17 106 4 123 7
123 21 -1 17 23 74 44 104 11 16 10 21 -11 38 -26 21 -30 21 -156 3z m89 -22
c4 -7 -11 -102 -18 -109 -2 -2 -49 -6 -104 -10 l-100 -6 -7 47 c-4 26 -4 50
-1 54 19 18 220 40 230 24z"/>
</g>
</g>
</svg>