<?xml version="1.0" standalone="no"?>
<!DOCTYPE svg PUBLIC "-//W3C//DTD SVG 20010904//EN"
 "http://www.w3.org/TR/2001/REC-SVG-20010904/DTD/svg10.dtd">
<svg version="1.0" xmlns="http://www.w3.org/2000/svg"
 width="96.000000pt" height="68.000000pt" viewBox="0 0 96.000000 68.000000"
 preserveAspectRatio="xMidYMid meet">
<metadata>
Created by potrace 1.16, written by Peter Selinger 2001-2019
Combined from part_0.svg through part_5.svg with named groups
</metadata>
<g transform="translate(0.000000,68.000000) scale(0.100000,-0.100000)" fill="#000000" stroke="none">
<g id="part-0" class="char-part">
  <path d="M547 623 c-4 -3 -7 -13 -7 -22 -1 -35 -36 -61 -84 -61 -33 0 -46 4
-46 14 0 16 -42 46 -65 46 -19 0 -19 -4 0 -39 l14 -28 -46 -7 c-25 -3 -63 -6
-84 -6 -22 0 -39 -4 -39 -10 0 -19 54 -23 159 -11 58 6 168 11 243 11 76 0
139 4 143 9 11 19 -37 33 -105 29 l-69 -3 30 31 30 31 -26 11 c-30 14 -39 15
-48 5z"/>
  <path d="M628 424 c4 -70 3 -76 -17 -81 -26 -7 -26 -15 -1 -38 34 -30 48 -4
51 93 3 65 0 85 -11 92 -26 16 -27 12 -22 -66z"/>
  <path d="M380 470 c-14 -4 -42 -8 -62 -9 l-38 -1 -2 -50 c-3 -96 -3 -103 9
-107 6 -2 14 10 18 26 6 28 11 31 43 31 20 0 44 5 52 11 11 8 2 9 -32 4 -38
-5 -48 -3 -48 8 0 15 81 34 98 23 12 -7 2 -76 -12 -77 -6 -1 -17 -1 -23 0 -19
3 -16 -13 5 -32 25 -23 39 -21 56 6 16 23 24 145 12 165 -8 13 -38 14 -76 2z
m38 -30 c2 -11 -10 -16 -49 -17 -56 -3 -66 17 -13 28 41 9 58 6 62 -11z"/>
  <path d="M519 456 c-2 -2 -2 -29 -1 -60 3 -41 8 -56 18 -56 12 0 14 12 12 57
-3 49 -14 73 -29 59z"/>
  <path d="M560 260 l-85 -18 83 -1 c83 -1 88 -3 84 -42 -1 -3 -2 -36 -3 -72
l-2 -67 -40 0 -40 0 43 -31 43 -31 17 22 c26 34 35 230 12 248 -9 6 -18 11
-21 11 -3 -1 -44 -9 -91 -19z"/>
  <path d="M340 250 c-14 -4 -42 -8 -62 -9 -21 -1 -38 -6 -38 -12 0 -7 25 -9 73
-7 l72 3 0 -75 0 -75 -29 -3 -28 -4 28 -29 c34 -36 40 -36 58 -1 19 38 26 210
8 217 -18 7 -52 5 -82 -5z"/>
  <path d="M530 185 c28 -30 50 -32 50 -6 0 11 -9 21 -22 25 -46 12 -52 7 -28
-19z"/>
  <path d="M260 192 c0 -12 34 -42 48 -42 18 0 14 37 -4 44 -22 9 -44 7 -44 -2z"/>
  <path d="M288 121 c-43 -14 -78 -28 -78 -33 0 -4 8 -12 18 -17 14 -7 31 -1 72
25 30 18 60 35 65 37 6 3 8 6 5 8 -3 2 -40 -7 -82 -20z"/>
  <path d="M555 135 c-22 -8 -52 -17 -67 -20 -34 -7 -36 -18 -6 -32 17 -7 32 -3
76 23 30 18 57 36 60 39 9 9 -22 4 -63 -10z"/>
</g>
<g id="part-1" class="char-part">
  <path d="M550 608 c0 -7 -10 -26 -23 -41 -17 -22 -34 -30 -70 -34 -37 -4 -47
-3 -47 9 0 19 -28 44 -57 51 -28 6 -28 3 -3 -33 11 -15 17 -30 13 -34 -3 -3
-42 -6 -85 -6 -43 0 -78 -4 -78 -9 0 -17 56 -22 121 -12 35 6 134 11 219 12
85 0 164 4 175 8 19 8 19 8 -4 21 -17 8 -46 10 -95 6 l-71 -6 35 30 c29 25 32
32 20 40 -21 14 -50 12 -50 -2z"/>
</g>
<g id="part-2" class="char-part">
  <path d="M370 470 c-14 -4 -40 -8 -58 -9 -30 -1 -32 -3 -31 -33 1 -18 -1 -48
-5 -65 -4 -18 -4 -42 0 -55 6 -21 7 -21 20 -3 8 10 14 27 14 37 0 14 8 18 33
18 17 0 42 3 55 6 18 5 22 2 22 -15 0 -17 -6 -21 -32 -21 l-31 0 23 -25 c29
-31 45 -32 64 -2 16 24 25 145 13 165 -9 13 -48 14 -87 2z m50 -24 c0 -13 -41
-26 -82 -26 -30 0 -16 24 18 31 49 11 64 10 64 -5z m0 -51 c0 -8 -8 -15 -19
-15 -10 0 -33 -3 -50 -6 -24 -5 -31 -3 -31 9 0 9 11 17 28 20 57 9 72 7 72 -8z"/>
</g>
<g id="part-3" class="char-part">
  <path d="M620 480 c6 -11 10 -46 8 -77 -3 -50 -6 -58 -26 -63 l-24 -5 26 -24
c40 -37 54 -16 57 87 3 84 -3 101 -39 102 -10 0 -10 -5 -2 -20z"/>
</g>
<g id="part-4" class="char-part">
  <path d="M532 126 c-57 -17 -70 -24 -60 -34 20 -20 46 -14 101 23 59 40 58 41
-41 11z"/>
</g>
</g>
</svg>