<?xml version="1.0" standalone="no"?>
<!DOCTYPE svg PUBLIC "-//W3C//DTD SVG 20010904//EN"
 "http://www.w3.org/TR/2001/REC-SVG-20010904/DTD/svg10.dtd">
<svg version="1.0" xmlns="http://www.w3.org/2000/svg"
 width="96.000000pt" height="68.000000pt" viewBox="0 0 96.000000 68.000000"
 preserveAspectRatio="xMidYMid meet">
<metadata>
Created by potrace 1.16, written by Peter Selinger 2001-2019
Combined from part_0.svg through part_5.svg with named groups
</metadata>
<g transform="translate(0.000000,68.000000) scale(0.100000,-0.100000)" fill="#000000" stroke="none">
<g id="part-0" class="char-part">
  <path d="M552 542 c-94 -12 -128 -13 -142 -4 -16 10 -21 5 -39 -33 -27 -57
-26 -67 1 -63 15 2 25 13 31 34 9 30 12 32 76 38 36 3 98 10 136 15 77 11 93
4 75 -29 -11 -21 -11 -21 37 -15 65 10 74 21 40 51 -32 28 -40 28 -215 6z"/>
  <path d="M245 520 c-11 -5 -44 -9 -74 -9 -51 -1 -53 -2 -45 -23 5 -13 9 -92 9
-177 0 -108 3 -155 12 -158 6 -2 14 1 18 6 10 17 102 14 109 -4 8 -22 34 -18
41 6 10 32 9 339 -1 348 -15 15 -48 20 -69 11z m25 -75 c0 -28 -4 -33 -31 -39
-55 -11 -59 -9 -59 33 0 36 3 40 28 43 49 6 62 -2 62 -37z m8 -103 c2 -21 -1
-32 -10 -32 -7 0 -30 -3 -50 -6 -38 -7 -38 -7 -38 29 0 34 2 36 38 40 54 5 57
4 60 -31z m2 -102 c0 -39 -1 -40 -34 -40 -19 0 -41 -3 -50 -6 -20 -8 -30 17
-22 50 5 21 13 26 49 29 23 2 45 4 50 5 4 1 7 -16 7 -38z"/>
  <path d="M545 444 c-38 -8 -83 -12 -99 -9 -22 4 -27 2 -22 -10 3 -9 11 -45 18
-81 8 -45 16 -63 24 -60 20 8 167 9 185 2 13 -6 19 3 28 41 7 26 17 58 22 71
13 33 12 38 -16 50 -31 14 -48 14 -140 -4z m95 -38 c0 -21 -5 -24 -61 -30
-108 -11 -121 -9 -117 17 2 18 11 23 53 28 110 13 125 11 125 -15z m0 -65 c0
-16 -11 -20 -75 -26 -77 -7 -95 -3 -95 20 0 15 28 21 113 24 50 1 57 -1 57
-18z"/>
  <path d="M534 265 c3 -8 9 -22 12 -30 5 -12 -6 -15 -67 -16 -41 -1 -87 -5
-104 -9 -27 -6 -28 -8 -11 -15 11 -5 66 -3 126 3 58 7 157 12 220 12 106 0
113 1 98 16 -19 19 -45 21 -150 11 -66 -7 -78 -6 -78 7 0 9 -9 20 -19 26 -27
14 -34 13 -27 -5z"/>
  <path d="M422 113 c-58 -60 -47 -62 48 -6 56 34 60 38 44 50 -27 19 -34 16
-92 -44z"/>
  <path d="M671 123 c71 -76 95 -85 87 -32 -3 25 -68 69 -102 69 -17 0 -15 -6
15 -37z"/>
</g>
<g id="part-1" class="char-part">
  <path d="M225 510 c-16 -4 -47 -8 -68 -9 -34 -1 -37 -3 -27 -20 5 -11 10 -67
10 -125 0 -85 3 -106 14 -106 8 0 16 6 18 13 5 14 102 17 130 4 15 -8 17 4 20
110 5 146 -3 157 -97 133z m53 -67 c3 -41 2 -43 -25 -43 -15 0 -38 -3 -50 -6
-21 -6 -23 -3 -23 39 0 50 8 57 65 54 28 -2 30 -5 33 -44z m2 -103 c0 -40 0
-40 -40 -41 -22 -1 -46 -2 -52 -3 -13 -1 -20 45 -9 62 7 11 35 19 74 21 25 1
27 -2 27 -39z"/>
</g>
<g id="part-2" class="char-part">
  <path d="M280 233 c0 -32 -1 -33 -45 -33 -25 0 -48 0 -52 0 -5 0 -9 11 -11 25
-2 17 -9 25 -23 25 -16 0 -19 -7 -19 -44 0 -47 14 -66 33 -47 16 16 92 14 107
-4 31 -37 62 6 53 73 -4 32 -9 40 -24 39 -14 -1 -19 -9 -19 -34z"/>
</g>
<g id="part-3" class="char-part">
  <path d="M560 543 c-79 -10 -123 -12 -141 -5 -25 9 -28 7 -50 -39 -17 -38 -20
-52 -11 -61 14 -14 24 -6 46 37 15 29 18 30 148 46 73 10 136 15 140 13 4 -3
3 -16 -3 -31 -9 -25 -9 -25 28 -19 83 15 89 22 47 55 -30 24 -44 24 -204 4z"/>
</g>
<g id="part-4" class="char-part">
  <path d="M564 446 c-28 -7 -74 -12 -101 -12 l-51 1 13 -25 c7 -14 16 -49 20
-78 6 -46 9 -52 26 -47 10 4 60 7 109 8 l90 2 11 40 c5 22 14 50 19 63 15 34
13 39 -21 51 -38 13 -49 13 -115 -3z m80 -38 c-3 -13 -7 -24 -8 -25 -1 -1 -39
-3 -86 -5 -81 -3 -85 -2 -88 19 -3 20 2 22 50 26 139 9 140 9 132 -15z m-4
-70 c0 -22 -4 -23 -85 -25 -78 -2 -85 -1 -85 17 0 20 21 25 118 28 48 2 52 0
52 -20z"/>
</g>
<g id="part-5" class="char-part">
  <path d="M475 150 c3 -5 3 -10 -2 -10 -4 -1 -23 -14 -42 -30 -18 -16 -26 -28
-18 -26 9 1 24 10 35 19 10 9 22 14 25 10 4 -3 7 -2 7 4 0 6 9 13 21 16 25 7
16 27 -12 27 -11 0 -17 -4 -14 -10z"/>
  <path d="M685 117 c44 -52 63 -64 71 -42 8 19 -14 47 -29 38 -5 -3 -7 -1 -3 5
3 6 2 13 -4 17 -5 3 -10 1 -10 -4 0 -6 -5 -11 -11 -11 -6 0 -9 7 -5 15 3 8 1
15 -3 15 -5 0 -17 3 -27 7 -11 4 -3 -11 21 -40z"/>
</g>
</g>
</svg>