<?xml version="1.0" standalone="no"?>
<!DOCTYPE svg PUBLIC "-//W3C//DTD SVG 20010904//EN"
 "http://www.w3.org/TR/2001/REC-SVG-20010904/DTD/svg10.dtd">
<svg version="1.0" xmlns="http://www.w3.org/2000/svg"
 width="96.000000pt" height="68.000000pt" viewBox="0 0 96.000000 68.000000"
 preserveAspectRatio="xMidYMid meet">
<metadata>
Created by potrace 1.16, written by Peter Selinger 2001-2019
Combined from part_0.svg through part_5.svg with named groups
</metadata>
<g transform="translate(0.000000,68.000000) scale(0.100000,-0.100000)" fill="#000000" stroke="none">
<g id="part-0" class="char-part">
  <path d="M444 638 c-3 -5 6 -24 20 -42 l25 -34 -32 -6 c-18 -3 -71 -8 -120
-12 -91 -7 -107 -13 -82 -34 49 -40 -19 -282 -112 -397 -36 -46 -11 -41 43 9
61 57 108 157 128 278 9 52 20 98 24 102 4 4 39 10 78 14 66 6 71 5 76 -14 8
-28 2 -32 -48 -32 -24 0 -46 -4 -49 -10 -4 -6 15 -10 49 -10 49 0 56 -3 56
-19 0 -17 -10 -20 -90 -27 -50 -3 -90 -11 -90 -17 0 -6 32 -8 90 -4 l90 6 0
-25 c0 -22 -3 -24 -54 -24 -30 0 -58 -4 -61 -10 -4 -6 17 -10 54 -10 46 0 61
-4 61 -14 0 -19 -23 -26 -88 -26 l-57 0 4 -46 c2 -26 -2 -72 -9 -104 -9 -41
-9 -63 -2 -76 10 -17 12 -15 26 18 9 21 16 42 16 48 0 6 24 10 55 10 l55 0 0
-50 c0 -49 12 -66 24 -34 3 9 6 28 6 42 0 39 10 48 60 51 25 1 50 4 55 4 14 3
19 -51 6 -67 -6 -7 -24 -11 -43 -8 l-33 4 35 -31 c41 -35 51 -37 73 -13 13 14
17 39 17 110 0 50 4 102 9 116 8 21 6 27 -15 41 -21 13 -34 14 -81 5 -74 -13
-73 -13 -73 10 0 17 7 20 48 20 52 0 74 10 78 35 6 41 12 45 78 45 67 0 96 15
51 26 -14 3 -41 4 -61 2 -30 -4 -35 -1 -31 14 8 30 -18 40 -90 37 -55 -3 -67
-1 -65 10 2 8 -3 18 -10 22 -7 5 30 9 87 9 115 0 141 9 102 35 -22 14 -38 15
-110 8 -81 -8 -83 -8 -79 12 2 12 -5 28 -15 36 -22 20 -71 30 -79 17z m199
-180 c9 -27 -6 -38 -53 -38 -50 0 -64 7 -52 27 13 21 98 29 105 11z m-13 -65
c-1 -19 -18 -30 -52 -36 -35 -5 -38 -4 -38 19 0 22 4 24 45 24 25 0 45 -3 45
-7z m25 -134 c4 -11 5 -22 3 -24 -1 -1 -29 -6 -60 -9 -57 -7 -58 -7 -58 18 0
20 6 25 33 29 69 8 76 7 82 -14z m-157 -21 c-2 -19 -10 -24 -47 -26 -48 -4
-65 6 -55 31 5 13 19 17 56 17 46 0 49 -2 46 -22z m160 -56 c3 -21 0 -22 -57
-22 -54 0 -61 2 -61 19 0 16 8 21 43 24 64 6 72 4 75 -21z m-160 -9 c-2 -14
-15 -19 -56 -21 -47 -3 -52 -1 -52 17 0 19 6 21 56 21 47 0 55 -3 52 -17z"/>
</g>
<g id="part-1" class="char-part">
  <path d="M450 631 c0 -18 42 -61 60 -61 43 0 34 43 -12 59 -37 13 -48 14 -48
2z"/>
  <path d="M655 574 c-9 -3 -380 -44 -408 -44 -7 0 -4 -5 6 -11 13 -8 17 -24 17
-72 0 -109 -44 -235 -111 -319 -40 -51 -24 -48 30 5 66 63 110 170 126 310 6
49 11 60 31 67 20 8 297 30 374 30 21 0 22 2 10 14 -16 15 -59 26 -75 20z"/>
</g>
<g id="part-2" class="char-part">
  <path d="M492 503 c3 -27 1 -28 -47 -31 -75 -5 -81 -22 -7 -22 55 0 62 -2 62
-19 0 -17 -10 -20 -90 -27 -56 -4 -87 -10 -83 -17 3 -6 39 -8 90 -4 82 5 84 4
81 -17 -3 -18 -10 -21 -60 -24 -76 -4 -75 -22 1 -22 l59 0 0 -141 c1 -78 4
-144 7 -147 18 -19 33 69 34 206 l1 92 43 0 c51 0 89 9 82 20 -3 5 -1 20 5 34
9 24 14 26 75 26 36 0 65 4 65 10 0 14 -46 23 -81 16 -29 -6 -31 -4 -25 19 5
20 2 26 -20 31 -14 4 -53 4 -86 0 -53 -5 -59 -4 -54 11 7 18 -9 33 -37 33 -14
0 -18 -6 -15 -27z m143 -58 c0 -17 -8 -20 -47 -23 -42 -3 -48 -1 -48 17 0 14
8 21 28 24 49 8 67 3 67 -18z m-5 -52 c-1 -19 -18 -31 -51 -37 -31 -5 -37 -3
-42 13 -3 11 0 22 7 25 19 8 86 7 86 -1z"/>
</g>
<g id="part-3" class="char-part">
  <path d="M605 299 c-22 -4 -88 -11 -146 -15 l-105 -7 3 -51 c3 -28 -2 -72 -10
-97 -14 -44 -8 -89 11 -89 5 0 15 20 22 45 l13 45 57 0 c31 0 91 3 133 6 73 7
77 6 77 -14 0 -40 -11 -52 -48 -52 l-36 0 34 -30 c41 -34 51 -36 73 -12 13 14
17 39 17 110 0 50 4 102 10 116 8 23 6 28 -20 41 -16 8 -33 14 -37 14 -4 -1
-26 -5 -48 -10z m53 -45 c3 -23 -1 -24 -192 -40 l-78 -7 7 24 c4 13 8 24 9 25
3 3 205 21 226 20 17 -1 26 -7 28 -22z m-1 -78 c-4 -11 -19 -16 -45 -16 -21 0
-80 -3 -130 -6 -88 -7 -92 -6 -92 14 0 19 8 20 118 27 64 3 122 8 127 9 16 5
28 -11 22 -28z"/>
</g>
</g>
</svg>