<?xml version="1.0" standalone="no"?>
<!DOCTYPE svg PUBLIC "-//W3C//DTD SVG 20010904//EN"
 "http://www.w3.org/TR/2001/REC-SVG-20010904/DTD/svg10.dtd">
<svg version="1.0" xmlns="http://www.w3.org/2000/svg"
 width="96.000000pt" height="68.000000pt" viewBox="0 0 96.000000 68.000000"
 preserveAspectRatio="xMidYMid meet">
<metadata>
Created by potrace 1.16, written by Peter Selinger 2001-2019
Combined from part_0.svg through part_5.svg with named groups
</metadata>
<g transform="translate(0.000000,68.000000) scale(0.100000,-0.100000)" fill="#000000" stroke="none">
<g id="part-0" class="char-part">
  <path d="M579 550 c-14 -10 -54 -30 -90 -45 l-64 -25 51 5 c51 5 52 5 56 -24
5 -35 0 -37 -110 -47 -110 -10 -90 -28 23 -21 l96 7 -3 -103 -3 -102 -62 -9
c-35 -5 -63 -13 -63 -18 0 -4 32 -8 70 -8 67 0 70 -1 70 -24 0 -30 -15 -36
-93 -37 -34 -1 -73 -4 -87 -9 -57 -17 15 -22 172 -12 90 6 187 10 216 9 54 -2
62 2 37 23 -11 9 -41 10 -116 5 l-101 -7 4 28 c3 28 6 29 73 37 39 5 74 12 79
17 11 11 -44 20 -104 17 l-45 -2 0 100 0 100 114 9 c104 8 113 10 95 23 -15
12 -38 13 -113 8 l-94 -7 7 25 c4 18 1 27 -12 32 -15 5 -15 7 -2 14 8 5 32 11
53 15 41 8 47 20 18 36 -27 14 -42 12 -72 -10z"/>
  <path d="M265 540 c-17 -11 -46 -20 -65 -21 l-35 -3 0 -160 c0 -89 -4 -188 -8
-221 -9 -64 2 -100 24 -78 10 10 27 244 29 390 0 40 2 43 37 52 45 13 49 10
28 -23 -16 -24 -15 -27 8 -68 27 -47 26 -68 -4 -68 -28 0 -23 -13 11 -29 24
-10 34 -10 45 -1 19 15 19 44 2 62 -7 7 -21 25 -31 40 l-18 27 46 44 c25 24
46 46 46 49 0 7 -58 28 -74 27 -6 0 -25 -9 -41 -19z"/>
  <path d="M675 377 c-2 -7 -5 -23 -7 -37 -2 -17 -10 -26 -25 -28 -29 -4 -30
-22 -2 -22 19 0 21 -4 16 -30 -8 -40 3 -38 31 5 20 31 27 35 67 35 45 0 60 12
29 24 -9 3 -27 6 -40 6 -14 0 -24 5 -23 13 3 26 -2 35 -22 40 -11 3 -22 0 -24
-6z"/>
  <path d="M400 341 c17 -32 12 -49 -15 -53 -41 -5 -33 -23 11 -26 33 -2 43 -8
48 -25 6 -25 20 -15 21 16 0 15 7 23 23 25 30 5 28 22 -4 22 -19 0 -28 7 -35
30 -8 22 -17 30 -35 30 -21 0 -23 -3 -14 -19z"/>
</g>
<g id="part-1" class="char-part">
  <path d="M253 530 c-24 -11 -43 -22 -43 -25 0 -4 21 -3 46 1 l47 7 -19 -31
c-24 -41 -10 -53 22 -19 14 15 36 35 51 44 24 16 24 17 7 30 -24 18 -61 15
-111 -7z"/>
</g>
<g id="part-2" class="char-part">
  <path d="M162 490 c13 -38 5 -308 -11 -358 -12 -38 1 -82 23 -82 18 0 25 79
29 305 l2 160 -27 3 c-27 3 -27 2 -16 -28z"/>
</g>
<g id="part-3" class="char-part">
  <path d="M594 560 c-6 -6 -46 -26 -90 -45 -65 -29 -73 -35 -48 -35 17 0 57 9
89 20 32 11 68 20 79 20 12 0 28 5 36 10 13 9 12 12 -4 25 -23 17 -48 19 -62
5z"/>
</g>
<g id="part-4" class="char-part">
  <path d="M533 494 c-8 -4 -9 -14 -3 -34 5 -17 5 -32 2 -34 -4 -2 -46 -7 -94
-11 -49 -4 -88 -12 -88 -18 0 -7 32 -8 95 -4 l95 6 0 -107 c0 -129 8 -182 26
-182 11 0 14 30 14 150 l0 150 58 1 c31 1 84 4 117 8 56 6 58 7 37 19 -17 10
-47 12 -114 6 l-91 -7 6 26 c8 31 -21 46 -60 31z"/>
</g>
<g id="part-5" class="char-part">
  <path d="M730 112 c0 -4 -46 -8 -103 -9 -56 -1 -115 -4 -132 -6 -16 -3 -57 -6
-90 -7 -42 -1 -54 -4 -40 -10 11 -4 38 -6 60 -4 63 6 161 10 280 12 94 2 107
4 90 15 -22 14 -65 20 -65 9z m-143 -18 c-3 -3 -12 -4 -19 -1 -8 3 -5 6 6 6
11 1 17 -2 13 -5z"/>
</g>
</g>
</svg>