<?xml version="1.0" standalone="no"?>
<!DOCTYPE svg PUBLIC "-//W3C//DTD SVG 20010904//EN"
 "http://www.w3.org/TR/2001/REC-SVG-20010904/DTD/svg10.dtd">
<svg version="1.0" xmlns="http://www.w3.org/2000/svg"
 width="96.000000pt" height="68.000000pt" viewBox="0 0 96.000000 68.000000"
 preserveAspectRatio="xMidYMid meet">
<metadata>
Created by potrace 1.16, written by Peter Selinger 2001-2019
Combined from part_0.svg through part_5.svg with named groups
</metadata>
<g transform="translate(0.000000,68.000000) scale(0.100000,-0.100000)" fill="#000000" stroke="none">
<g id="part-0" class="char-part">
  <path d="M470 523 c-101 -13 -187 -26 -189 -29 -3 -2 0 -9 6 -15 14 -14 82
-16 146 -5 43 8 47 7 47 -11 0 -33 -58 -110 -133 -176 -101 -88 -160 -134
-190 -148 -15 -7 -24 -15 -22 -20 10 -16 119 31 181 77 17 13 34 22 37 19 4
-3 5 -2 2 2 -3 3 10 17 28 30 29 22 32 22 35 6 10 -67 26 -134 34 -139 5 -3
14 -1 21 4 7 6 72 13 144 17 132 8 133 8 127 31 -4 14 4 45 20 80 14 31 26 58
26 61 0 2 -14 10 -30 17 -21 8 -47 10 -83 4 -28 -4 -85 -11 -125 -14 -40 -4
-75 -11 -78 -15 -2 -4 -11 -6 -18 -3 -10 4 3 28 46 84 34 44 58 85 55 93 -4
11 10 16 61 21 37 3 90 6 119 6 57 0 77 15 48 37 -25 18 -94 15 -315 -14z
m226 -273 c-4 -28 -9 -56 -12 -64 -9 -24 -213 -37 -215 -13 0 6 -4 33 -8 59
l-8 47 41 6 c64 8 107 12 160 13 l49 2 -7 -50z"/>
</g>
<g id="part-1" class="char-part">
  <path d="M493 521 c-111 -14 -205 -29 -208 -33 -14 -14 68 -20 128 -10 34 5
66 6 70 2 13 -12 -27 -90 -70 -137 -50 -55 -169 -154 -229 -193 -26 -16 -41
-30 -33 -30 26 0 133 56 189 100 94 72 215 219 207 250 -6 21 8 24 166 36 48
3 87 9 87 14 0 11 -57 30 -84 29 -12 -1 -112 -13 -223 -28z"/>
</g>
<g id="part-2" class="char-part">
  <path d="M640 325 c-36 -7 -97 -14 -135 -16 -92 -5 -97 -12 -79 -109 15 -76
29 -104 42 -84 4 7 62 14 144 19 l137 7 -5 27 c-3 17 4 44 20 76 14 28 26 54
26 58 0 8 -63 38 -77 36 -4 0 -37 -7 -73 -14z m60 -52 c0 -16 -5 -44 -10 -64
-10 -34 -13 -37 -63 -43 -28 -3 -75 -6 -104 -6 l-52 0 -6 38 c-3 20 -8 47 -11
59 -4 19 1 22 38 27 65 9 108 13 161 14 45 2 47 1 47 -25z"/>
</g>
</g>
</svg>