<?xml version="1.0" standalone="no"?>
<!DOCTYPE svg PUBLIC "-//W3C//DTD SVG 20010904//EN"
 "http://www.w3.org/TR/2001/REC-SVG-20010904/DTD/svg10.dtd">
<svg version="1.0" xmlns="http://www.w3.org/2000/svg"
 width="96.000000pt" height="68.000000pt" viewBox="0 0 96.000000 68.000000"
 preserveAspectRatio="xMidYMid meet">
<metadata>
Created by potrace 1.16, written by Peter Selinger 2001-2019
Combined from part_0.svg through part_5.svg with named groups
</metadata>
<g transform="translate(0.000000,68.000000) scale(0.100000,-0.100000)" fill="#000000" stroke="none">
<g id="part-0" class="char-part">
  <path d="M297 532 c-20 -62 -72 -137 -152 -220 -29 -28 -50 -54 -47 -57 6 -6
60 22 100 53 l33 25 -4 -114 c-3 -63 -8 -129 -12 -147 -7 -29 -5 -32 18 -32
13 0 35 8 48 18 13 11 45 31 70 45 46 27 46 27 64 7 25 -27 35 -25 35 8 0 23
-6 30 -33 40 -43 15 -45 15 -43 -5 1 -11 -15 -22 -49 -35 -27 -10 -53 -18 -57
-18 -5 0 -8 22 -8 49 l0 49 40 7 c22 4 53 4 69 0 28 -6 30 -4 55 62 14 38 26
71 26 75 0 16 -66 28 -100 18 -19 -6 -50 -10 -69 -10 -33 0 -33 0 -17 23 9 12
32 46 52 75 20 28 41 52 47 52 7 0 23 -9 37 -20 33 -26 70 -26 70 -1 0 15 -12
23 -47 33 -34 10 -49 19 -51 33 -4 21 -29 45 -46 45 -6 0 -19 -26 -29 -58z
m93 -211 c0 -25 -4 -27 -69 -35 -46 -6 -52 -4 -47 10 3 8 6 19 6 24 0 11 25
17 73 19 30 1 37 -2 37 -18z m-10 -59 c0 -14 -13 -21 -52 -31 -54 -12 -75 -5
-65 23 4 9 23 16 49 19 24 2 49 4 56 5 6 1 12 -6 12 -16z"/>
  <path d="M590 554 c0 -32 -42 -114 -81 -159 -46 -52 -12 -44 41 10 24 24 46
42 50 40 4 -2 33 2 66 10 32 7 61 11 63 9 8 -8 -29 -71 -55 -95 -25 -24 -31
-39 -14 -39 5 0 44 28 85 63 l75 62 -22 19 c-18 14 -32 17 -68 11 -25 -3 -62
-9 -84 -12 l-38 -6 26 41 c27 43 26 45 -18 61 -24 10 -26 8 -26 -15z"/>
  <path d="M342 420 c-47 -11 -61 -27 -22 -25 74 4 80 6 80 20 0 16 -8 17 -58 5z"/>
  <path d="M550 305 c-14 -26 -63 -51 -79 -41 -5 4 -13 1 -17 -5 -3 -6 -1 -14 5
-18 6 -4 16 -45 22 -91 11 -92 24 -120 43 -96 8 11 37 15 105 17 88 3 95 2
109 -19 8 -12 18 -22 23 -22 18 0 42 54 59 133 9 45 20 89 24 98 12 28 -50 43
-120 30 -32 -6 -59 -11 -61 -11 -2 0 -3 -4 -3 -9 0 -6 24 -7 55 -4 l55 6 0
-32 c0 -26 -4 -31 -24 -31 -38 0 -86 -12 -86 -21 0 -5 25 -9 56 -9 l57 0 -7
-32 c-3 -18 -10 -36 -14 -39 -4 -4 -56 -9 -117 -11 l-110 -3 -3 38 c-3 36 -2
37 30 38 18 0 42 4 53 9 28 11 2 21 -50 18 -38 -3 -40 -1 -43 28 -3 29 0 32
45 46 51 16 62 36 27 49 -17 6 -24 2 -34 -16z"/>
</g>
<g id="part-1" class="char-part">
  <path d="M317 583 c-4 -3 -7 -13 -7 -22 0 -52 -100 -199 -184 -273 -41 -36
-22 -35 36 1 58 37 90 71 145 154 24 37 46 67 49 67 3 0 22 -11 42 -25 42 -29
77 -34 68 -9 -3 9 -6 17 -6 19 0 2 -22 9 -50 16 -39 10 -49 17 -47 32 2 20
-35 52 -46 40z"/>
</g>
<g id="part-2" class="char-part">
  <path d="M370 163 c0 -12 60 -73 71 -73 5 0 9 13 9 28 0 21 -7 32 -25 40 -30
14 -55 16 -55 5z"/>
</g>
<g id="part-3" class="char-part">
  <path d="M597 573 c-4 -3 -7 -15 -7 -25 0 -26 -25 -73 -72 -136 -22 -30 -37
-56 -34 -59 2 -3 29 18 59 46 30 28 56 48 59 45 5 -5 47 4 111 22 28 9 20 -18
-23 -76 -43 -58 -44 -60 -31 -60 7 0 122 89 155 120 4 4 -4 16 -18 26 -24 15
-34 16 -97 4 -39 -6 -73 -9 -76 -6 -4 3 4 20 17 38 l23 31 -23 19 c-24 19 -33
22 -43 11z"/>
</g>
<g id="part-4" class="char-part">
  <path d="M539 293 l-34 -36 27 7 c76 18 95 36 60 55 -15 8 -25 3 -53 -26z"/>
</g>
<g id="part-5" class="char-part">
  <path d="M721 285 c3 -2 19 -5 36 -7 21 -1 33 -8 36 -20 3 -10 1 -18 -4 -18
-5 0 -7 -12 -3 -27 3 -16 2 -23 -3 -17 -4 6 -17 8 -27 4 -19 -6 -19 -7 1 -12
16 -4 20 -11 16 -27 -3 -13 -1 -21 7 -21 7 0 6 -6 -4 -16 -9 -8 -16 -19 -16
-24 0 -5 -20 -7 -45 -5 -25 2 -47 -1 -51 -6 -3 -5 14 -9 36 -9 33 0 43 -4 47
-20 6 -24 10 -25 29 -5 9 8 12 20 8 26 -4 8 -3 9 4 5 16 -10 15 7 0 23 -11 10
-10 11 3 6 13 -5 17 4 23 51 3 31 11 65 17 76 15 28 -14 47 -70 48 -24 0 -42
-2 -40 -5z"/>
  <path d="M678 273 c7 -3 16 -2 19 1 4 3 -2 6 -13 5 -11 0 -14 -3 -6 -6z"/>
  <path d="M475 250 c-3 -5 -3 -16 2 -22 4 -7 8 -29 9 -48 2 -45 13 -113 20
-119 2 -2 10 1 17 8 9 10 8 15 -7 27 -11 8 -15 14 -9 14 11 0 10 41 -2 103 -8
39 -19 54 -30 37z"/>
  <path d="M563 190 c-13 -5 -23 -11 -23 -14 0 -7 40 6 46 15 6 10 6 10 -23 -1z"/>
  <path d="M685 190 c3 -5 12 -10 20 -10 8 0 17 5 20 10 4 6 -5 10 -20 10 -15 0
-24 -4 -20 -10z"/>
  <path d="M550 82 c0 -10 88 -14 93 -5 3 5 -17 9 -44 10 -27 2 -49 -1 -49 -5z"/>
</g>
</g>
</svg>