<?xml version="1.0" standalone="no"?>
<!DOCTYPE svg PUBLIC "-//W3C//DTD SVG 20010904//EN"
 "http://www.w3.org/TR/2001/REC-SVG-20010904/DTD/svg10.dtd">
<svg version="1.0" xmlns="http://www.w3.org/2000/svg"
 width="96.000000pt" height="68.000000pt" viewBox="0 0 96.000000 68.000000"
 preserveAspectRatio="xMidYMid meet">
<metadata>
Created by potrace 1.16, written by Peter Selinger 2001-2019
Combined from part_0.svg through part_5.svg with named groups
</metadata>
<g transform="translate(0.000000,68.000000) scale(0.100000,-0.100000)" fill="#000000" stroke="none">
<g id="part-0" class="char-part">
  <path d="M528 534 l4 -96 -70 4 -70 4 18 -26 c10 -14 21 -44 25 -65 13 -74 12
-74 58 -72 38 2 42 0 45 -24 3 -23 -1 -27 -35 -32 -67 -12 -133 -8 -133 6 0
12 -14 22 -62 45 -16 7 -7 -18 15 -41 31 -33 97 -50 163 -41 l54 6 0 -73 c0
-112 19 -158 36 -87 4 18 9 36 10 41 1 4 2 34 3 67 l1 60 120 0 c117 0 142 7
101 30 -13 6 -57 8 -118 4 l-98 -7 -1 33 -1 32 51 -6 51 -6 36 76 36 75 -29
15 c-27 14 -84 13 -140 -3 -15 -3 -18 2 -18 30 0 34 0 34 55 40 62 6 84 15 65
27 -7 4 -27 4 -44 -1 -17 -5 -42 -9 -55 -9 -22 0 -23 3 -18 35 5 32 3 37 -19
45 -14 6 -29 10 -33 10 -4 0 -5 -43 -3 -96z m162 -114 c0 -11 -6 -22 -12 -24
-20 -6 -211 -27 -213 -24 -2 2 -5 13 -9 24 -6 20 -2 22 81 31 144 16 153 16
153 -7z m-17 -69 c-5 -20 -21 -24 -140 -37 -59 -6 -63 -5 -63 14 0 18 8 21 58
27 31 3 64 8 72 9 8 2 29 4 47 5 26 1 30 -2 26 -18z"/>
  <path d="M254 588 c-5 -7 -18 -33 -30 -58 -11 -25 -38 -61 -58 -81 -43 -42
-40 -65 9 -71 18 -2 31 0 29 4 -3 4 4 8 16 8 17 0 19 -3 10 -19 -5 -11 -27
-33 -47 -50 -29 -24 -35 -33 -25 -43 9 -9 30 -6 94 15 50 17 84 23 86 17 2 -5
12 -10 23 -10 24 0 25 28 2 46 -23 17 -43 18 -43 0 0 -14 -86 -43 -97 -33 -3
4 31 41 75 83 70 65 80 79 71 95 -14 28 -35 23 -49 -11 -16 -39 -28 -48 -79
-56 l-44 -7 57 69 c31 37 55 73 53 78 -2 5 -13 16 -24 23 -17 12 -23 12 -29 1z"/>
  <path d="M220 232 c0 -4 11 -20 24 -37 22 -27 25 -28 32 -11 4 10 3 26 -2 34
-10 16 -54 28 -54 14z"/>
  <path d="M132 169 c32 -61 66 -68 53 -11 -3 18 -16 34 -31 41 -41 18 -45 13
-22 -30z"/>
</g>
<g id="part-1" class="char-part">
  <path d="M236 546 c-9 -24 -35 -65 -57 -89 -59 -67 -51 -85 28 -66 63 15 77
29 30 29 -20 0 -37 3 -37 6 0 3 23 33 52 65 42 49 50 63 41 77 -20 32 -39 25
-57 -22z"/>
</g>
<g id="part-2" class="char-part">
  <path d="M310 250 c9 -18 40 -40 54 -40 11 0 6 36 -6 48 -7 7 -23 12 -35 12
-21 0 -22 -3 -13 -20z"/>
  <path d="M216 228 c12 -22 47 -58 56 -58 12 0 10 44 -4 58 -16 16 -61 16 -52
0z"/>
  <path d="M110 212 c1 -19 48 -87 63 -90 21 -4 24 36 5 59 -15 18 -68 42 -68
31z"/>
</g>
<g id="part-3" class="char-part">
  <path d="M524 608 c3 -13 6 -53 6 -90 0 -60 2 -68 19 -68 19 0 31 18 31 49 0
15 12 19 62 25 34 3 64 9 67 12 9 8 -22 24 -37 19 -8 -3 -32 -8 -54 -12 l-41
-6 6 40 c6 36 4 41 -16 47 -41 11 -50 7 -43 -16z"/>
</g>
<g id="part-4" class="char-part">
  <path d="M590 453 c-47 -7 -110 -12 -141 -9 l-55 4 23 -46 c13 -25 23 -57 23
-71 0 -45 9 -49 90 -39 41 5 95 6 120 3 l45 -5 36 76 36 76 -33 14 c-38 16
-31 16 -144 -3z m100 -22 c0 -28 -14 -41 -47 -41 -19 0 -66 -5 -104 -11 -78
-12 -74 -13 -83 17 -6 21 -2 22 76 32 113 13 158 14 158 3z m-10 -68 c-1 -19
-20 -37 -42 -38 -12 -1 -56 -5 -95 -9 -69 -8 -73 -7 -73 12 0 16 10 21 58 29
81 12 152 15 152 6z"/>
</g>
<g id="part-5" class="char-part">
  <path d="M549 288 c-6 -18 -3 -48 4 -48 5 0 7 9 4 20 -3 11 -1 18 4 14 14 -9
10 -32 -7 -42 -14 -8 -15 -15 -7 -38 6 -16 8 -63 6 -104 -4 -62 -3 -73 8 -62
7 6 13 30 14 52 0 22 4 40 9 40 4 0 6 20 5 44 l-4 44 65 7 c35 4 92 7 125 7
l60 -1 -39 14 c-27 10 -46 11 -64 4 -15 -6 -44 -7 -67 -4 -29 5 -36 3 -25 -4
21 -15 -2 -14 -34 0 -20 9 -23 16 -16 29 7 13 5 20 -6 24 -16 6 -33 8 -35 4z"/>
  <path d="M430 204 c0 -11 6 -14 23 -8 12 4 31 7 42 6 16 -1 17 1 5 8 -25 16
-70 12 -70 -6z"/>
</g>
</g>
</svg>