<?xml version="1.0" standalone="no"?>
<!DOCTYPE svg PUBLIC "-//W3C//DTD SVG 20010904//EN"
 "http://www.w3.org/TR/2001/REC-SVG-20010904/DTD/svg10.dtd">
<svg version="1.0" xmlns="http://www.w3.org/2000/svg"
 width="96.000000pt" height="68.000000pt" viewBox="0 0 96.000000 68.000000"
 preserveAspectRatio="xMidYMid meet">
<metadata>
Created by potrace 1.16, written by Peter Selinger 2001-2019
Combined from part_0.svg through part_5.svg with named groups
</metadata>
<g transform="translate(0.000000,68.000000) scale(0.100000,-0.100000)" fill="#000000" stroke="none">
<g id="part-0" class="char-part">
  <path d="M589 566 c-3 -3 -40 -7 -84 -10 -66 -4 -80 -8 -78 -21 0 -9 4 -53 8
-97 l7 -81 -23 5 c-13 3 -30 7 -38 9 -12 3 -15 -14 -18 -88 -2 -58 1 -94 8
-98 17 -11 22 1 27 79 3 46 9 77 17 80 23 8 285 28 300 22 16 -6 20 -61 8
-129 -6 -38 -7 -39 -44 -35 -22 2 -39 1 -39 -2 1 -11 37 -48 57 -59 19 -10 25
-7 46 21 18 24 28 55 36 118 13 100 5 115 -62 115 -41 0 -42 1 -39 30 1 17 8
52 14 79 8 39 8 50 -3 57 -14 9 -92 13 -100 5z m51 -50 c0 -33 0 -33 -59 -40
l-58 -7 8 -42 c8 -46 1 -57 -39 -57 -22 0 -23 2 -20 83 l3 82 45 6 c25 3 62 7
83 7 36 2 37 1 37 -32z m-4 -72 c-3 -9 -6 -27 -6 -40 0 -21 -5 -24 -35 -24
-33 0 -35 2 -35 33 0 42 5 47 48 47 27 0 33 -3 28 -16z"/>
  <path d="M179 523 c32 -60 102 -83 109 -35 3 18 -4 26 -32 37 -19 8 -47 15
-61 15 -21 0 -24 -3 -16 -17z"/>
  <path d="M157 366 c-65 -25 -65 -36 0 -36 39 0 44 -2 38 -19 -3 -12 4 -33 20
-56 45 -67 31 -85 -67 -85 -49 0 -59 -9 -34 -29 10 -8 37 -10 88 -5 68 6 84 3
245 -45 95 -28 185 -51 200 -51 15 0 51 7 78 15 28 9 67 20 88 26 20 5 37 13
37 18 0 4 -80 12 -177 18 -114 7 -217 19 -285 34 l-108 24 0 32 c0 31 -31 73
-54 73 -5 0 8 18 29 41 39 39 39 41 21 55 -26 18 -48 16 -119 -10z"/>
  <path d="M585 320 c-16 -4 -50 -8 -74 -9 -37 -1 -42 -3 -36 -18 4 -10 10 -31
14 -48 4 -16 11 -30 16 -30 6 0 36 4 68 8 44 7 57 12 57 25 0 10 7 27 15 39
14 20 14 23 -4 33 -11 5 -21 9 -23 9 -2 -1 -16 -5 -33 -9z m21 -42 c-3 -21
-27 -35 -67 -37 -16 -1 -32 42 -21 54 3 3 25 5 49 5 39 0 43 -2 39 -22z"/>
</g>
<g id="part-1" class="char-part">
  <path d="M180 532 c0 -15 70 -74 83 -69 20 6 20 45 0 55 -30 16 -83 25 -83 14z"/>
  <path d="M166 365 c-65 -24 -62 -41 4 -30 43 7 46 5 29 -27 -9 -17 -6 -25 16
-47 14 -16 27 -41 28 -57 l2 -29 -72 -3 c-74 -3 -89 -12 -53 -32 14 -8 36 -8
78 1 55 11 62 10 252 -46 l195 -57 100 28 c114 32 108 41 -30 43 -109 2 -230
16 -348 43 -98 21 -98 22 -92 49 5 22 0 33 -27 58 l-33 31 39 32 39 32 -23 18
c-27 22 -29 22 -104 -7z"/>
</g>
<g id="part-2" class="char-part">
  <path d="M600 568 c-25 -5 -76 -9 -113 -11 l-68 -2 5 -35 c3 -19 8 -61 11 -92
5 -45 10 -58 23 -58 15 0 17 10 14 79 -4 90 -10 84 107 97 l64 7 -6 -82 c-6
-81 -6 -82 16 -79 18 2 23 12 29 56 5 29 13 62 18 73 6 11 8 23 5 28 -11 18
-61 27 -105 19z"/>
</g>
<g id="part-3" class="char-part">
  <path d="M690 394 c-48 -13 -287 -31 -302 -23 -9 5 -19 9 -21 9 -10 0 -1 -194
9 -197 15 -5 24 30 24 98 0 39 4 59 14 62 24 9 284 30 300 24 12 -5 16 -20 15
-59 -2 -91 -9 -103 -57 -102 l-42 1 22 -26 c37 -42 48 -49 67 -44 28 7 50 59
61 148 10 76 10 81 -11 98 -20 16 -45 20 -79 11z"/>
</g>
<g id="part-4" class="char-part">
  <path d="M595 319 c-11 -4 -44 -8 -72 -8 -50 -1 -52 -2 -43 -23 5 -13 11 -36
15 -51 4 -21 10 -27 23 -23 9 3 38 8 65 12 31 4 47 11 47 20 0 8 7 25 16 38 8
13 11 26 7 29 -22 11 -40 14 -58 6z m15 -31 c0 -25 -17 -39 -52 -44 -32 -6
-36 -4 -40 20 -7 33 -3 36 49 36 28 0 43 -4 43 -12z"/>
</g>
</g>
</svg>