<?xml version="1.0" standalone="no"?>
<!DOCTYPE svg PUBLIC "-//W3C//DTD SVG 20010904//EN"
 "http://www.w3.org/TR/2001/REC-SVG-20010904/DTD/svg10.dtd">
<svg version="1.0" xmlns="http://www.w3.org/2000/svg"
 width="96.000000pt" height="68.000000pt" viewBox="0 0 96.000000 68.000000"
 preserveAspectRatio="xMidYMid meet">
<metadata>
Created by potrace 1.16, written by Peter Selinger 2001-2019
Combined from part_0.svg through part_5.svg with named groups
</metadata>
<g transform="translate(0.000000,68.000000) scale(0.100000,-0.100000)" fill="#000000" stroke="none">
<g id="part-0" class="char-part">
  <path d="M550 602 c0 -39 -23 -62 -61 -62 -16 0 -29 -4 -29 -9 0 -11 25 -21
50 -21 13 0 17 -5 13 -20 -7 -27 11 -25 34 3 15 19 31 25 87 30 38 4 71 9 74
12 15 14 -24 30 -69 28 -44 -2 -48 0 -40 15 13 24 2 39 -32 47 -25 7 -27 5
-27 -23z"/>
  <path d="M290 586 c0 -8 5 -18 10 -21 6 -3 10 -13 10 -21 0 -11 -14 -14 -59
-14 -63 0 -81 -10 -56 -30 18 -15 56 -17 101 -6 26 7 32 4 42 -18 16 -35 30
-33 34 7 2 26 8 33 28 35 29 4 52 21 29 23 -7 1 -26 0 -41 -1 -22 -1 -27 3
-30 27 -2 23 -8 29 -35 31 -24 2 -33 -1 -33 -12z"/>
  <path d="M545 462 c-4 -5 -54 -10 -108 -11 l-48 -1 15 -28 c8 -15 17 -44 21
-63 l7 -36 94 1 94 1 21 54 c22 59 20 80 -8 83 -37 3 -85 3 -88 0z m53 -39 c3
-17 -3 -20 -40 -21 -24 -1 -60 -4 -80 -8 -34 -5 -38 -3 -38 15 0 14 6 21 19
21 11 0 22 3 24 8 3 4 29 6 59 6 44 -1 53 -5 56 -21z m2 -53 c0 -14 -7 -20
-22 -20 -13 0 -47 -3 -75 -6 -49 -6 -53 -5 -53 14 0 18 7 21 53 25 28 2 62 4
75 5 16 2 22 -3 22 -18z"/>
  <path d="M253 385 c36 -34 57 -38 57 -11 0 20 -22 35 -61 42 l-34 6 38 -37z"/>
  <path d="M160 324 c0 -15 47 -54 66 -54 8 0 14 10 14 23 0 18 -8 25 -40 34
-31 8 -40 7 -40 -3z"/>
  <path d="M520 289 c-91 -10 -173 -18 -182 -18 -10 -1 -18 -6 -18 -12 0 -6 17
-9 42 -8 57 5 58 -13 4 -53 -55 -40 -60 -57 -8 -28 22 12 51 20 67 18 l29 -3
-49 -48 c-27 -26 -45 -47 -40 -47 23 0 116 67 121 87 4 13 14 23 24 23 10 0
25 3 34 6 11 4 16 0 16 -12 -1 -23 -75 -103 -136 -145 -54 -37 -52 -49 3 -20
80 40 196 143 187 165 -6 16 38 30 65 21 16 -5 17 -12 9 -57 -13 -73 -42 -111
-79 -106 -16 3 -29 2 -29 -1 1 -15 40 -51 55 -51 31 0 72 53 84 108 6 29 18
66 26 82 14 27 14 30 -6 41 -22 11 -113 7 -233 -11 -33 -5 -62 -8 -64 -6 -2 3
6 14 17 25 17 17 41 23 119 31 53 5 125 10 160 10 59 0 80 11 46 24 -23 9 -79
6 -264 -15z"/>
  <path d="M252 207 c-13 -19 -38 -49 -57 -66 -40 -35 -41 -42 -19 -77 16 -23
18 -23 29 -7 6 10 22 45 35 78 13 33 27 65 33 72 5 7 7 18 5 24 -2 7 -14 -4
-26 -24z"/>
</g>
<g id="part-1" class="char-part">
  <path d="M555 608 c-2 -7 -5 -24 -7 -38 -2 -20 -10 -26 -33 -28 -44 -5 -56
-22 -16 -22 31 0 33 -2 26 -27 l-7 -28 30 29 c25 23 41 29 96 33 36 3 66 10
66 14 0 14 -47 22 -85 15 -35 -7 -35 -7 -23 19 10 22 9 28 -3 36 -20 12 -39
11 -44 -3z"/>
  <path d="M297 594 c-3 -4 1 -17 10 -30 9 -14 14 -27 11 -29 -3 -3 -32 -8 -66
-11 -59 -6 -61 -8 -41 -22 20 -14 61 -13 101 3 13 5 20 0 28 -19 13 -34 32
-34 28 1 -3 23 2 28 32 37 l35 10 -37 4 c-28 2 -38 8 -38 21 0 31 -43 55 -63
35z"/>
</g>
<g id="part-2" class="char-part">
  <path d="M220 421 c0 -12 65 -71 78 -71 17 0 15 35 -2 49 -18 15 -76 32 -76
22z"/>
  <path d="M150 331 c0 -13 59 -61 76 -61 20 0 17 38 -3 48 -30 15 -73 23 -73
13z"/>
  <path d="M239 196 c-18 -25 -43 -53 -56 -61 -28 -19 -29 -45 -4 -76 l19 -24
20 45 c10 25 29 69 42 98 12 29 20 55 17 58 -2 3 -20 -15 -38 -40z"/>
</g>
<g id="part-3" class="char-part">
  <path d="M545 460 c-22 -5 -66 -9 -98 -9 l-58 -1 16 -30 c8 -16 15 -39 15 -50
0 -12 5 -30 10 -40 9 -16 14 -17 41 -8 17 6 57 8 89 5 l59 -5 24 61 c13 34 21
66 17 70 -11 13 -72 16 -115 7z m53 -37 c3 -18 -3 -21 -45 -21 -26 -1 -60 -4
-75 -7 -21 -5 -30 -2 -34 10 -9 22 -4 25 67 34 79 10 83 9 87 -16z m0 -50 c-2
-14 -18 -20 -63 -26 -67 -8 -85 -4 -85 17 0 11 14 16 53 19 28 2 62 4 75 5 17
2 23 -3 20 -15z"/>
</g>
<g id="part-4" class="char-part">
  <path d="M561 188 c-11 -28 -101 -116 -156 -152 -22 -14 -33 -26 -24 -26 25 0
133 71 189 123 41 39 49 51 39 63 -17 21 -38 17 -48 -8z"/>
</g>
</g>
</svg>