<?xml version="1.0" standalone="no"?>
<!DOCTYPE svg PUBLIC "-//W3C//DTD SVG 20010904//EN"
 "http://www.w3.org/TR/2001/REC-SVG-20010904/DTD/svg10.dtd">
<svg version="1.0" xmlns="http://www.w3.org/2000/svg"
 width="96.000000pt" height="68.000000pt" viewBox="0 0 96.000000 68.000000"
 preserveAspectRatio="xMidYMid meet">
<metadata>
Created by potrace 1.16, written by Peter Selinger 2001-2019
Combined from part_0.svg through part_5.svg with named groups
</metadata>
<g transform="translate(0.000000,68.000000) scale(0.100000,-0.100000)" fill="#000000" stroke="none">
<g id="part-0" class="char-part">
  <path d="M330 553 c-41 -8 -95 -11 -119 -7 -42 5 -44 5 -37 -18 15 -48 18
-117 7 -166 -16 -74 -8 -86 48 -78 25 4 74 9 107 12 l62 7 -4 -59 c-8 -108
-31 -147 -76 -123 -30 16 -32 5 -3 -30 55 -64 93 -25 119 122 16 87 16 92 0
104 -10 7 -25 13 -33 14 -61 4 -61 4 -61 34 0 10 10 15 34 15 19 0 38 5 41 10
4 6 -10 10 -34 10 -34 0 -41 3 -41 19 0 21 19 31 56 31 13 0 24 5 24 10 0 6
-16 10 -35 10 -30 0 -35 3 -35 24 0 22 6 26 45 32 26 3 45 12 45 19 0 20 -29
22 -110 8z m-32 -70 c-2 -22 -9 -29 -30 -31 -25 -3 -28 0 -28 27 0 28 3 31 31
31 27 0 30 -3 27 -27z m2 -68 c0 -21 -5 -25 -30 -25 -25 0 -30 4 -30 25 0 21
5 25 30 25 25 0 30 -4 30 -25z m1 -67 c-5 -15 -18 -24 -35 -26 -22 -3 -26 0
-26 22 0 23 4 26 35 26 31 0 34 -2 26 -22z"/>
  <path d="M600 422 c-80 -8 -147 -16 -149 -18 -2 -2 2 -10 8 -18 7 -8 18 -56
26 -106 8 -51 15 -93 17 -95 2 -2 39 1 83 5 131 14 153 13 160 -10 3 -11 15
-20 25 -20 22 0 45 54 61 147 6 37 16 74 22 81 5 7 8 14 6 16 -52 40 -46 40
-259 18z m182 -79 c-6 -93 -15 -118 -43 -119 -13 0 -67 -4 -120 -8 l-97 -8 -9
84 c-5 45 -6 86 -3 90 3 4 20 11 38 14 29 6 32 4 32 -19 0 -13 -7 -41 -15 -61
-9 -21 -11 -36 -5 -36 14 0 49 58 57 93 10 46 33 33 33 -19 0 -56 17 -73 73
-74 27 0 37 4 37 16 0 12 -8 15 -34 13 -19 -2 -38 -1 -41 3 -4 3 -3 27 0 52 7
43 9 45 44 48 52 4 58 -3 53 -69z"/>
  <path d="M320 250 c0 -5 5 -10 10 -10 6 0 10 -6 10 -14 0 -8 7 -16 15 -20 18
-7 21 24 3 42 -15 15 -38 16 -38 2z"/>
  <path d="M105 210 c-17 -39 -15 -70 5 -70 22 0 41 92 21 104 -4 3 -16 -12 -26
-34z"/>
  <path d="M250 243 c0 -5 6 -18 14 -29 17 -22 35 -11 20 13 -12 19 -34 29 -34
16z"/>
  <path d="M180 235 c0 -12 24 -55 32 -55 12 0 10 34 -4 48 -12 12 -28 16 -28 7z"/>
</g>
<g id="part-1" class="char-part">
  <path d="M345 550 c-16 -4 -63 -8 -103 -9 -71 -1 -72 -1 -61 -22 7 -14 10 -60
8 -128 l-4 -106 25 1 c34 2 130 14 158 20 12 2 22 9 22 14 0 9 -79 6 -137 -6
-21 -4 -22 -1 -21 95 l0 100 26 5 c15 3 54 8 87 11 75 8 97 14 90 26 -7 10
-46 10 -90 -1z"/>
</g>
<g id="part-2" class="char-part">
  <path d="M320 253 c0 -5 9 -19 20 -33 25 -33 48 -16 24 18 -14 21 -44 31 -44
15z"/>
  <path d="M105 216 c-18 -43 -19 -62 -3 -72 16 -10 38 25 38 62 0 47 -18 52
-35 10z"/>
  <path d="M180 236 c0 -23 18 -56 30 -56 17 0 11 36 -10 55 -19 17 -20 17 -20
1z"/>
  <path d="M255 220 c16 -31 29 -37 40 -20 10 16 -14 50 -36 50 -19 0 -19 -2 -4
-30z"/>
</g>
<g id="part-3" class="char-part">
  <path d="M739 436 c-2 -2 -67 -10 -144 -16 -77 -7 -141 -14 -143 -16 -2 -1 2
-12 8 -24 7 -12 19 -63 27 -113 15 -96 20 -109 31 -90 4 6 52 14 112 18 l106
7 12 -26 c23 -52 63 6 81 119 5 33 13 74 16 91 6 26 3 32 -20 42 -25 12 -77
16 -86 8z m40 -93 c-1 -88 -10 -118 -34 -119 -11 -1 -66 -4 -122 -8 l-101 -7
-7 86 c-4 47 -4 89 -1 93 7 6 124 17 219 20 l47 2 -1 -67z"/>
</g>
<g id="part-4" class="char-part">
  <path d="M580 375 c0 -14 -7 -42 -15 -61 -21 -50 3 -40 33 15 25 43 24 71 -3
71 -9 0 -15 -9 -15 -25z"/>
  <path d="M650 356 c0 -56 20 -78 68 -74 53 4 54 28 1 28 l-42 0 6 45 c6 40 5
45 -13 45 -17 0 -20 -7 -20 -44z"/>
</g>
</g>
</svg>