<?xml version="1.0" standalone="no"?>
<!DOCTYPE svg PUBLIC "-//W3C//DTD SVG 20010904//EN"
 "http://www.w3.org/TR/2001/REC-SVG-20010904/DTD/svg10.dtd">
<svg version="1.0" xmlns="http://www.w3.org/2000/svg"
 width="96.000000pt" height="68.000000pt" viewBox="0 0 96.000000 68.000000"
 preserveAspectRatio="xMidYMid meet">
<metadata>
Created by potrace 1.16, written by Peter Selinger 2001-2019
Combined from part_0.svg through part_5.svg with named groups
</metadata>
<g transform="translate(0.000000,68.000000) scale(0.100000,-0.100000)" fill="#000000" stroke="none">
<g id="part-0" class="char-part">
  <path d="M490 593 c0 -5 11 -20 25 -33 14 -13 25 -27 25 -31 0 -4 -31 -11 -70
-15 -38 -3 -70 -11 -70 -15 0 -5 10 -9 23 -9 32 0 78 -77 52 -86 -9 -4 -36 -4
-60 -1 -42 4 -58 -4 -35 -18 12 -7 13 -116 1 -166 -5 -24 -4 -44 4 -59 20 -37
28 -7 33 112 5 119 2 114 77 120 27 3 30 0 33 -29 3 -30 1 -32 -35 -36 l-38
-4 38 -1 c34 -2 38 -5 35 -24 -2 -18 -9 -23 -30 -23 -32 1 -33 -3 -13 -51 11
-26 19 -34 32 -30 10 3 37 7 60 8 35 3 44 8 59 36 15 29 16 35 3 43 -7 5 -27
8 -44 7 -24 -3 -30 1 -30 17 0 16 8 21 35 23 53 5 62 22 11 22 -34 0 -42 3
-38 15 4 8 1 18 -6 22 -15 9 25 21 80 22 l41 1 6 -57 c7 -60 1 -166 -9 -183
-3 -5 -20 -7 -38 -4 l-32 6 39 -35 c21 -20 45 -33 52 -30 22 8 32 61 37 189 5
120 5 122 -19 135 -18 9 -32 10 -59 2 -27 -9 -35 -8 -35 2 0 7 7 18 15 25 8 7
15 20 15 30 0 11 10 20 30 24 17 3 30 11 30 17 0 8 -22 9 -76 4 -66 -6 -76 -5
-71 8 3 8 -2 22 -11 30 -21 19 -72 33 -72 20z m126 -110 c-2 -10 -7 -28 -11
-39 -3 -14 -17 -24 -37 -28 -49 -10 -58 -7 -58 14 0 11 -9 28 -20 37 -27 24
-9 33 68 33 56 0 63 -2 58 -17z m-13 -219 c3 -4 2 -15 -4 -25 -14 -27 -85 -27
-92 0 -4 16 1 21 27 24 56 7 63 7 69 1z"/>
  <path d="M171 513 c1 -15 83 -74 98 -71 26 5 20 50 -9 65 -27 14 -90 18 -89 6z"/>
  <path d="M173 349 c-80 -25 -84 -44 -8 -35 30 3 55 4 55 2 0 -3 -5 -16 -11
-30 -10 -22 -8 -29 20 -62 20 -22 31 -44 29 -57 -3 -20 -10 -22 -80 -25 -43
-2 -78 -7 -78 -11 0 -24 31 -31 111 -25 81 6 90 4 246 -45 89 -28 174 -51 188
-51 51 0 198 47 190 60 -3 4 -71 11 -152 15 -80 4 -187 16 -237 27 -50 10
-108 22 -128 25 -34 5 -36 7 -26 29 9 18 7 29 -6 49 -10 14 -24 29 -32 32 -21
8 -17 20 19 53 26 24 30 32 21 47 -15 25 -48 25 -121 2z"/>
</g>
<g id="part-1" class="char-part">
  <path d="M180 512 c0 -14 82 -73 95 -69 20 7 16 36 -7 51 -31 20 -88 32 -88
18z"/>
  <path d="M180 345 l-65 -23 57 -1 56 -1 -11 -29 c-9 -25 -7 -33 16 -61 16 -18
27 -44 27 -61 l0 -29 -75 0 c-41 0 -75 -4 -75 -8 0 -24 27 -30 114 -25 88 4
96 3 251 -46 87 -28 165 -51 173 -51 8 0 53 12 101 27 l86 27 -65 7 c-36 5
-117 12 -180 17 -63 6 -158 20 -212 32 l-96 23 5 32 c5 32 -8 53 -45 74 -15 9
-12 15 23 50 24 25 35 44 30 50 -21 19 -53 18 -115 -4z"/>
</g>
<g id="part-2" class="char-part">
  <path d="M490 594 c0 -3 12 -20 26 -39 l25 -34 -70 -7 c-39 -3 -71 -11 -71
-16 0 -11 201 -1 279 14 75 14 46 29 -42 21 -58 -5 -67 -4 -62 9 7 18 -39 58
-66 58 -11 0 -19 -3 -19 -6z"/>
</g>
<g id="part-3" class="char-part">
  <path d="M616 488 c-10 -31 -16 -68 -12 -68 11 0 64 65 60 72 -8 13 -44 9 -48
-4z"/>
  <path d="M450 484 c0 -13 42 -74 51 -74 5 0 9 11 9 25 0 17 -9 29 -30 40 -16
9 -30 13 -30 9z"/>
</g>
<g id="part-4" class="char-part">
  <path d="M610 423 c-41 -8 -112 -15 -158 -16 -69 -2 -81 -4 -75 -17 12 -26 15
-117 6 -162 -5 -24 -7 -51 -5 -60 4 -22 32 -24 33 -3 1 8 3 20 4 25 1 6 3 50
4 99 l1 90 53 10 c28 6 89 13 134 17 l81 6 7 -75 c4 -42 3 -98 -2 -124 -8 -47
-9 -48 -43 -45 l-35 3 40 -35 c36 -33 40 -34 57 -19 21 19 26 45 32 189 4 111
4 112 -20 123 -14 6 -28 11 -32 10 -4 -1 -41 -8 -82 -16z"/>
</g>
</g>
</svg>