<?xml version="1.0" standalone="no"?>
<!DOCTYPE svg PUBLIC "-//W3C//DTD SVG 20010904//EN"
 "http://www.w3.org/TR/2001/REC-SVG-20010904/DTD/svg10.dtd">
<svg version="1.0" xmlns="http://www.w3.org/2000/svg"
 width="96.000000pt" height="68.000000pt" viewBox="0 0 96.000000 68.000000"
 preserveAspectRatio="xMidYMid meet">
<metadata>
Created by potrace 1.16, written by Peter Selinger 2001-2019
Combined from part_0.svg through part_5.svg with named groups
</metadata>
<g transform="translate(0.000000,68.000000) scale(0.100000,-0.100000)" fill="#000000" stroke="none">
<g id="part-0" class="char-part">
  <path d="M200 560 c0 -19 69 -80 90 -80 42 0 36 51 -8 69 -51 20 -82 24 -82
11z"/>
  <path d="M585 543 c-33 -8 -96 -15 -141 -16 -79 -2 -81 -3 -68 -22 7 -11 17
-45 22 -75 17 -89 28 -111 54 -106 57 12 188 16 188 6 0 -5 8 -10 19 -10 20 0
28 17 57 110 9 30 21 59 25 65 16 16 10 30 -18 42 -47 20 -76 21 -138 6z m83
-55 l-3 -33 -75 -7 c-159 -15 -153 -16 -164 14 -5 15 -7 30 -4 33 3 3 34 8 69
12 35 3 66 7 68 9 2 2 29 4 58 4 l54 0 -3 -32z m-12 -74 c-3 -9 -6 -25 -6 -36
0 -16 -5 -19 -26 -15 -14 2 -58 1 -97 -3 -74 -8 -87 -4 -87 31 0 12 17 18 78
26 124 16 145 16 138 -3z"/>
  <path d="M145 380 c41 -42 81 -52 92 -23 10 27 -41 63 -90 63 l-41 0 39 -40z"/>
  <path d="M230 251 c-30 -39 -56 -71 -59 -71 -4 0 -17 -9 -29 -18 -23 -18 -23
-20 -8 -55 8 -20 21 -37 28 -37 15 0 132 223 126 241 -2 6 -28 -21 -58 -60z"/>
  <path d="M517 277 c5 -32 3 -34 -27 -41 -18 -3 -45 -6 -61 -6 -16 0 -29 -4
-29 -10 0 -6 27 -10 60 -10 l60 0 0 -39 0 -39 -110 -7 c-60 -4 -110 -11 -110
-16 0 -17 51 -21 131 -10 45 6 144 11 220 11 167 0 197 8 148 38 -16 10 -40
11 -121 1 -56 -6 -103 -8 -108 -3 -4 5 -6 23 -3 40 5 31 6 31 75 37 39 3 73 9
76 12 13 13 -15 20 -77 18 -67 -2 -67 -2 -66 25 0 23 -4 27 -32 30 -31 3 -32
2 -26 -31z"/>
</g>
<g id="part-1" class="char-part">
  <path d="M235 520 c41 -42 75 -52 75 -22 0 9 -4 22 -8 29 -9 15 -56 33 -85 33
-19 0 -17 -5 18 -40z"/>
  <path d="M155 380 c41 -42 75 -52 75 -22 0 27 -14 42 -51 52 -60 18 -65 12
-24 -30z"/>
  <path d="M241 259 c-19 -28 -53 -66 -75 -85 -36 -31 -39 -37 -30 -61 18 -53
37 -38 94 74 67 131 63 123 53 123 -4 0 -23 -23 -42 -51z"/>
</g>
<g id="part-2" class="char-part">
  <path d="M555 539 c-60 -11 -119 -17 -148 -14 -49 6 -49 6 -33 -16 8 -12 20
-55 27 -94 6 -40 14 -77 18 -83 4 -6 42 -7 111 -1 70 6 106 6 108 -1 2 -5 12
-10 21 -10 13 0 27 26 54 99 20 55 37 102 37 104 0 6 -78 37 -88 36 -4 -1 -52
-10 -107 -20z m113 -51 l-3 -33 -70 -6 c-169 -16 -157 -17 -168 14 -5 16 -7
30 -5 32 5 6 146 22 201 24 l48 1 -3 -32z m-8 -67 c0 -25 -22 -63 -33 -58 -7
3 -49 1 -92 -3 -82 -8 -95 -4 -95 31 0 12 17 18 78 26 106 14 142 15 142 4z"/>
</g>
<g id="part-3" class="char-part">
  <path d="M517 277 l5 -35 -66 -7 c-80 -9 -77 -25 5 -25 l60 0 -3 -37 -3 -38
-115 -10 c-107 -10 -113 -12 -88 -25 23 -11 43 -11 110 -2 46 7 147 12 225 12
137 0 173 4 173 19 0 4 -11 13 -25 19 -19 9 -50 9 -126 0 -54 -6 -101 -9 -104
-6 -2 2 -2 20 1 40 l6 36 79 6 c44 4 79 11 79 16 0 14 -49 21 -100 14 -48 -6
-48 -6 -52 22 -2 24 -8 29 -35 32 -31 3 -32 2 -26 -31z"/>
</g>
</g>
</svg>