<?xml version="1.0" standalone="no"?>
<!DOCTYPE svg PUBLIC "-//W3C//DTD SVG 20010904//EN"
 "http://www.w3.org/TR/2001/REC-SVG-20010904/DTD/svg10.dtd">
<svg version="1.0" xmlns="http://www.w3.org/2000/svg"
 width="96.000000pt" height="68.000000pt" viewBox="0 0 96.000000 68.000000"
 preserveAspectRatio="xMidYMid meet">
<metadata>
Created by potrace 1.16, written by Peter Selinger 2001-2019
Combined from part_0.svg through part_5.svg with named groups
</metadata>
<g transform="translate(0.000000,68.000000) scale(0.100000,-0.100000)" fill="#000000" stroke="none">
<g id="part-0" class="char-part">
  <path d="M250 545 c0 -53 -81 -202 -152 -279 -10 -11 -16 -22 -13 -24 8 -8 84
47 101 73 22 33 54 33 54 0 0 -21 -6 -26 -40 -31 -22 -4 -40 -10 -40 -15 0
-13 36 -20 64 -13 26 6 26 5 26 -49 0 -63 -6 -68 -90 -72 -32 -2 -44 -6 -42
-16 5 -22 35 -41 57 -35 50 11 200 74 197 82 -3 10 -28 11 -58 1 -19 -7 -21
-3 -23 43 l-2 49 46 12 c65 17 54 37 -17 31 -26 -2 -24 45 2 53 11 3 20 11 20
17 0 7 -19 9 -54 5 l-53 -5 30 55 29 55 29 -28 c17 -17 34 -24 44 -20 25 9 14
37 -22 55 -18 9 -33 24 -33 33 0 17 -28 38 -49 38 -6 0 -11 -7 -11 -15z"/>
  <path d="M570 552 c0 -4 4 -12 9 -17 7 -9 32 -127 27 -132 -1 -1 -25 -5 -54
-9 -51 -6 -52 -6 -52 20 0 22 4 26 30 26 21 0 30 5 30 16 0 11 -8 15 -27 12
-26 -3 -28 0 -33 37 -4 31 -10 41 -26 43 -20 3 -21 -1 -16 -46 4 -49 4 -49
-29 -57 l-34 -8 35 -6 c26 -4 35 -11 35 -26 0 -11 -7 -21 -15 -22 -65 -8 -92
-16 -82 -22 17 -11 116 -4 214 15 25 5 28 2 38 -38 6 -24 20 -72 32 -107 l21
-65 -37 -33 c-20 -18 -36 -35 -36 -38 0 -12 19 -3 46 20 16 14 34 25 39 25 6
0 28 -21 49 -46 41 -48 101 -84 114 -68 4 5 1 38 -8 74 l-16 65 -8 -37 c-4
-21 -10 -38 -14 -38 -13 0 -82 75 -82 88 0 7 11 35 25 62 29 57 32 85 9 94
-22 8 -34 -1 -35 -27 0 -12 -6 -38 -13 -57 l-13 -35 -15 35 c-8 19 -18 49 -22
65 -4 17 -9 37 -12 46 -4 14 9 18 78 24 77 6 81 8 58 20 -17 10 -43 12 -82 8
-68 -7 -77 3 -60 75 8 35 7 48 -3 59 -15 14 -65 18 -65 5z"/>
  <path d="M686 531 c-6 -9 48 -61 64 -61 4 0 13 6 19 14 10 12 8 18 -11 29 -33
21 -65 29 -72 18z"/>
  <path d="M515 340 c-11 -5 -44 -9 -73 -9 -47 -1 -51 -3 -42 -18 5 -10 14 -30
20 -45 8 -25 12 -27 35 -18 15 6 44 10 66 10 28 0 39 4 39 15 0 8 6 24 13 35
10 17 9 22 -3 30 -18 12 -28 11 -55 0z m25 -27 c-1 -19 -18 -30 -57 -37 -41
-6 -43 -5 -43 19 0 23 3 25 50 25 28 0 50 -3 50 -7z"/>
  <path d="M322 218 c-15 -40 -10 -44 27 -22 34 20 40 39 15 48 -25 10 -29 8
-42 -26z"/>
  <path d="M526 243 c-4 -4 -31 -16 -59 -25 -29 -9 -41 -16 -27 -15 16 1 26 -4
28 -15 2 -13 -3 -18 -20 -18 -13 0 -30 -5 -38 -10 -11 -7 -5 -10 23 -10 30 0
37 -4 37 -19 0 -26 -11 -32 -65 -33 -49 -1 -58 -12 -22 -29 19 -8 40 -5 102
15 44 14 85 26 92 26 6 0 15 5 19 11 5 8 -6 9 -36 4 -31 -5 -45 -4 -51 6 -12
20 -1 29 32 29 18 0 28 4 24 10 -3 6 -17 10 -31 10 -36 0 -31 29 6 37 17 3 29
11 27 17 -5 14 -30 19 -41 9z"/>
  <path d="M160 214 c0 -12 42 -64 51 -64 19 0 21 31 4 50 -17 18 -55 28 -55 14z"/>
</g>
<g id="part-1" class="char-part">
  <path d="M243 500 c-14 -58 -51 -124 -111 -197 -52 -65 -38 -69 27 -8 50 47
75 56 85 29 13 -35 7 -44 -33 -44 -22 0 -43 -4 -46 -10 -4 -6 12 -10 39 -10
l46 0 0 -59 c0 -58 -1 -59 -31 -65 -17 -3 -47 -6 -65 -6 -40 0 -44 -16 -8 -32
20 -9 33 -9 57 1 18 7 59 22 92 33 76 26 95 42 38 33 l-43 -7 0 55 0 55 40 7
c52 9 52 25 0 25 -36 0 -40 2 -40 26 0 17 6 28 20 31 11 3 17 10 14 15 -6 9
-56 4 -91 -9 -11 -4 -8 8 12 43 45 78 43 77 82 47 28 -22 36 -24 43 -13 11 18
-13 46 -46 54 -14 4 -22 11 -19 17 9 13 -13 39 -34 39 -11 0 -20 -15 -28 -50z"/>
  <path d="M327 214 l-17 -34 29 15 c39 20 45 32 23 44 -16 8 -21 4 -35 -25z"/>
  <path d="M182 185 c11 -24 28 -32 41 -19 11 12 -13 44 -33 44 -17 0 -18 -3 -8
-25z"/>
</g>
<g id="part-2" class="char-part">
  <path d="M458 500 c4 -48 4 -50 -21 -50 -14 0 -29 -4 -32 -10 -4 -6 7 -10 24
-10 24 0 31 -4 31 -20 0 -29 38 -27 42 2 2 17 12 24 33 28 40 7 38 24 -2 28
-31 3 -33 6 -33 43 0 34 -3 39 -24 39 -22 0 -23 -3 -18 -50z"/>
</g>
<g id="part-3" class="char-part">
  <path d="M574 551 c7 -10 36 -145 32 -148 -1 -1 -45 -7 -97 -13 -51 -5 -107
-13 -124 -16 -29 -6 -29 -7 -7 -15 20 -8 123 1 204 17 25 5 28 2 38 -38 6 -24
20 -72 31 -108 l20 -65 -40 -37 c-46 -44 -32 -52 18 -10 l34 28 57 -58 c50
-50 102 -80 115 -66 4 4 0 24 -23 108 -8 29 -10 31 -11 10 -2 -47 -15 -55 -49
-30 -55 41 -60 62 -27 131 31 63 28 90 -9 97 -12 3 -16 -4 -16 -26 0 -16 -5
-44 -11 -62 l-12 -33 -13 24 c-8 13 -18 42 -24 64 -6 22 -13 47 -16 56 -4 14
8 18 71 24 41 4 75 10 75 15 0 14 -43 20 -97 13 -63 -7 -72 4 -55 75 7 33 7
51 0 59 -12 15 -72 18 -64 4z"/>
  <path d="M680 531 c0 -13 59 -61 75 -61 24 0 25 29 2 44 -29 18 -77 29 -77 17z"/>
</g>
<g id="part-4" class="char-part">
  <path d="M483 203 c-7 -2 -13 -11 -13 -18 0 -7 -17 -17 -37 -23 l-38 -10 38
-1 c33 -1 37 -4 37 -26 0 -21 -5 -25 -32 -26 -18 -1 -43 0 -55 1 -30 2 -30
-17 0 -31 18 -8 40 -5 101 15 43 14 84 26 92 26 7 0 16 5 20 11 7 11 -13 9
-68 -7 -14 -4 -18 1 -18 20 0 21 5 26 24 26 14 0 28 5 31 10 4 6 -7 10 -24 10
-21 0 -31 5 -31 15 0 15 -6 17 -27 8z"/>
</g>
</g>
</svg>