<?xml version="1.0" standalone="no"?>
<!DOCTYPE svg PUBLIC "-//W3C//DTD SVG 20010904//EN"
 "http://www.w3.org/TR/2001/REC-SVG-20010904/DTD/svg10.dtd">
<svg version="1.0" xmlns="http://www.w3.org/2000/svg"
 width="96.000000pt" height="68.000000pt" viewBox="0 0 96.000000 68.000000"
 preserveAspectRatio="xMidYMid meet">
<metadata>
Created by potrace 1.16, written by Peter Selinger 2001-2019
Combined from part_0.svg through part_5.svg with named groups
</metadata>
<g transform="translate(0.000000,68.000000) scale(0.100000,-0.100000)" fill="#000000" stroke="none">
<g id="part-0" class="char-part">
  <path d="M305 603 c-9 -21 -19 -40 -23 -43 -4 -3 -29 -29 -57 -58 -57 -61 -43
-70 31 -19 44 30 64 36 199 56 82 12 152 25 155 27 9 9 -25 24 -55 23 -16 0
-70 -8 -120 -18 -49 -10 -92 -16 -95 -14 -3 3 5 13 18 23 29 23 28 34 -3 48
-35 16 -33 17 -50 -25z"/>
  <path d="M425 503 c-33 -6 -73 -12 -89 -13 -23 0 -27 -3 -18 -12 9 -9 32 -8
99 2 99 14 129 25 92 32 -13 2 -51 -2 -84 -9z"/>
  <path d="M455 450 c-60 -10 -138 -18 -172 -19 -64 -1 -84 -15 -38 -27 14 -3
78 1 143 10 65 9 130 16 145 16 l27 0 0 -120 c0 -126 10 -160 62 -216 29 -32
103 -57 146 -51 50 9 55 18 32 62 -11 22 -20 46 -20 54 0 26 -18 -2 -22 -34
-2 -24 -8 -31 -30 -33 -39 -5 -65 13 -99 66 -25 40 -29 55 -29 120 0 53 6 87
22 124 32 75 24 78 -167 48z"/>
  <path d="M320 381 c0 -5 5 -13 10 -16 6 -3 10 -12 10 -19 0 -10 -25 -15 -82
-20 -103 -9 -130 -15 -122 -28 4 -7 37 -8 91 -4 81 7 83 6 72 -12 -6 -10 -25
-27 -40 -38 -53 -35 -31 -55 38 -35 18 5 35 6 38 1 4 -7 -98 -79 -135 -94 -8
-3 -1 -3 15 0 32 6 121 54 157 84 13 11 34 28 48 39 21 16 22 21 11 35 -16 20
-31 21 -31 3 0 -24 -34 -45 -77 -48 -23 -2 -44 -1 -47 2 -3 3 13 16 34 29 22
14 40 33 40 42 0 15 9 18 53 18 62 0 97 8 97 23 0 6 -22 7 -63 3 -58 -6 -63
-5 -72 16 -10 23 -45 38 -45 19z"/>
  <path d="M405 176 c-23 -23 -70 -56 -105 -73 -76 -39 -53 -45 27 -7 59 28 70
27 125 -17 14 -12 31 -18 37 -15 18 12 -1 37 -40 53 -34 13 -53 33 -31 33 4 0
20 11 36 24 28 22 29 24 10 33 -16 8 -26 2 -59 -31z"/>
</g>
<g id="part-1" class="char-part">
  <path d="M309 603 c-6 -19 -37 -61 -70 -94 -32 -32 -55 -59 -51 -59 12 0 99
56 106 69 4 6 19 11 34 11 51 0 272 34 272 42 0 18 -51 18 -144 -2 -129 -26
-135 -26 -106 4 25 28 22 51 -9 59 -16 4 -22 -2 -32 -30z"/>
</g>
<g id="part-2" class="char-part">
  <path d="M549 466 c-7 -7 -238 -36 -285 -36 -24 0 -46 -4 -49 -10 -12 -20 51
-22 170 -6 68 9 134 16 148 16 l25 0 4 -129 c3 -125 4 -131 33 -172 17 -23 48
-52 70 -63 69 -36 180 -23 147 17 -7 8 -18 32 -26 53 -14 40 -18 37 -30 -19
-13 -55 -98 -22 -136 53 -28 55 -27 164 2 232 18 42 19 51 7 59 -14 9 -72 12
-80 5z"/>
</g>
<g id="part-3" class="char-part">
  <path d="M324 365 c9 -13 16 -26 16 -28 0 -3 -33 -7 -72 -11 -104 -10 -139
-17 -132 -27 8 -13 63 -11 168 6 50 8 117 17 149 20 36 4 55 10 51 17 -4 7
-30 8 -71 4 -40 -4 -62 -3 -59 3 9 14 -22 41 -46 41 -19 0 -19 -1 -4 -25z"/>
</g>
<g id="part-4" class="char-part">
  <path d="M273 262 c-24 -25 -43 -50 -43 -55 0 -10 80 -1 114 13 16 7 12 9 -21
8 -58 -2 -61 6 -14 33 23 12 41 29 41 36 0 26 -36 10 -77 -35z"/>
</g>
<g id="part-5" class="char-part">
  <path d="M425 187 c-11 -12 -36 -35 -55 -50 l-35 -28 40 22 c22 13 46 29 53
36 7 7 21 13 30 14 11 0 12 2 4 6 -6 2 -10 9 -6 14 11 18 -11 8 -31 -14z"/>
  <path d="M425 110 c-3 -6 1 -7 10 -4 10 4 15 2 13 -7 -2 -8 3 -13 10 -11 8 1
11 -2 8 -7 -4 -5 -2 -12 3 -15 22 -14 22 18 0 35 -28 21 -35 23 -44 9z"/>
</g>
</g>
</svg>