<?xml version="1.0" standalone="no"?>
<!DOCTYPE svg PUBLIC "-//W3C//DTD SVG 20010904//EN"
 "http://www.w3.org/TR/2001/REC-SVG-20010904/DTD/svg10.dtd">
<svg version="1.0" xmlns="http://www.w3.org/2000/svg"
 width="96.000000pt" height="68.000000pt" viewBox="0 0 96.000000 68.000000"
 preserveAspectRatio="xMidYMid meet">
<metadata>
Created by potrace 1.16, written by Peter Selinger 2001-2019
Combined from part_0.svg through part_5.svg with named groups
</metadata>
<g transform="translate(0.000000,68.000000) scale(0.100000,-0.100000)" fill="#000000" stroke="none">
<g id="part-0" class="char-part">
  <path d="M430 608 c0 -8 11 -25 25 -38 24 -22 24 -25 8 -31 -10 -4 -56 -8
-102 -8 -66 -1 -86 2 -96 15 -10 14 -16 9 -44 -40 -21 -37 -30 -64 -26 -77 10
-29 36 -20 63 22 l23 36 189 18 c104 10 196 15 206 11 16 -6 16 -8 -1 -26 -10
-11 -16 -23 -13 -26 3 -3 35 0 72 7 54 9 66 14 66 30 0 11 -14 28 -32 40 -28
17 -43 19 -108 14 -41 -3 -87 -8 -102 -11 -23 -5 -28 -2 -28 14 0 25 -29 50
-68 58 -24 5 -32 3 -32 -8z"/>
  <path d="M308 402 c-24 -52 -120 -162 -140 -162 -4 0 -8 -4 -8 -10 0 -18 18
-10 69 30 28 23 56 38 61 35 13 -8 13 -86 -1 -141 -13 -49 0 -99 24 -91 19 6
28 216 10 243 -13 20 -10 26 27 69 45 53 48 60 21 75 -30 16 -34 13 -63 -48z"/>
  <path d="M555 410 c-60 -10 -120 -19 -132 -19 -13 -1 -23 -6 -23 -12 0 -7 20
-10 58 -7 l57 3 -3 -35 c-5 -48 -8 -51 -49 -44 -32 5 -35 4 -29 -13 4 -10 10
-60 13 -111 4 -65 10 -92 19 -92 7 0 14 4 16 9 2 6 38 13 81 17 65 6 77 4 77
-8 0 -9 6 -21 14 -27 11 -9 18 -6 34 14 18 23 20 37 17 123 -4 96 -4 97 -32
104 -15 4 -50 4 -78 -1 -60 -11 -73 -5 -47 20 12 11 18 26 15 38 -4 17 3 20
81 26 85 7 107 17 64 29 -27 7 -16 8 -153 -14z m95 -149 c0 -27 -3 -29 -53
-34 -29 -4 -67 -10 -85 -13 -31 -6 -32 -6 -32 29 0 35 1 36 43 40 23 2 61 4
85 5 40 2 42 1 42 -27z m0 -85 c0 -30 -4 -34 -31 -40 -17 -3 -56 -6 -85 -6
-53 0 -54 1 -54 28 0 28 2 29 68 39 107 16 102 17 102 -21z"/>
</g>
<g id="part-1" class="char-part">
  <path d="M439 591 c6 -11 23 -28 38 -40 l28 -20 -41 -1 c-23 0 -75 -3 -117 -6
-67 -6 -77 -5 -77 10 0 29 -18 17 -44 -30 -32 -56 -34 -84 -6 -84 13 0 27 14
40 40 20 39 22 40 74 40 29 0 119 7 200 15 81 9 151 13 156 10 6 -4 2 -18 -10
-36 -12 -16 -18 -29 -13 -28 49 3 128 28 128 39 0 23 -67 62 -96 56 -14 -3
-60 -8 -103 -12 -63 -6 -76 -4 -71 7 9 26 -32 59 -75 59 -17 0 -19 -3 -11 -19z"/>
</g>
<g id="part-2" class="char-part">
  <path d="M316 412 c-13 -30 -46 -73 -93 -121 -40 -40 -73 -75 -73 -77 0 -8 44
18 89 53 41 31 46 32 55 16 6 -11 5 -47 -3 -106 -12 -79 -11 -91 3 -105 26
-26 33 -4 39 111 4 84 2 111 -9 122 -19 18 -19 18 26 67 45 49 48 63 21 78
-31 16 -35 13 -55 -38z"/>
</g>
<g id="part-3" class="char-part">
  <path d="M620 420 c-25 -5 -84 -14 -132 -20 -55 -8 -86 -16 -82 -22 4 -6 27
-8 55 -5 l49 6 0 -39 c0 -22 4 -40 8 -40 16 0 52 59 46 74 -5 13 1 16 27 16
19 0 58 3 88 7 48 5 52 8 36 20 -21 14 -29 15 -95 3z"/>
</g>
<g id="part-4" class="char-part">
  <path d="M550 304 c-36 -7 -78 -11 -94 -8 -25 6 -28 4 -22 -12 4 -11 10 -61
13 -111 6 -91 10 -102 29 -84 5 6 43 13 85 17 73 6 77 5 84 -15 9 -28 42 -27
51 2 5 12 8 63 9 114 0 86 -1 93 -23 103 -28 12 -48 11 -132 -6z m100 -48 c0
-33 -1 -34 -37 -33 -21 1 -59 -2 -85 -6 l-48 -8 0 35 c0 39 6 41 118 44 l52 2
0 -34z m2 -83 l-4 -38 -84 -3 -84 -4 0 30 c0 28 2 30 63 39 113 18 113 18 109
-24z"/>
</g>
</g>
</svg>