<?xml version="1.0" standalone="no"?>
<!DOCTYPE svg PUBLIC "-//W3C//DTD SVG 20010904//EN"
 "http://www.w3.org/TR/2001/REC-SVG-20010904/DTD/svg10.dtd">
<svg version="1.0" xmlns="http://www.w3.org/2000/svg"
 width="96.000000pt" height="68.000000pt" viewBox="0 0 96.000000 68.000000"
 preserveAspectRatio="xMidYMid meet">
<metadata>
Created by potrace 1.16, written by Peter Selinger 2001-2019
Combined from part_0.svg through part_5.svg with named groups
</metadata>
<g transform="translate(0.000000,68.000000) scale(0.100000,-0.100000)" fill="#000000" stroke="none">
<g id="part-0" class="char-part">
  <path d="M288 550 l4 -60 -32 0 c-27 0 -32 3 -27 20 6 23 -16 45 -37 37 -8 -3
-15 -14 -15 -24 -1 -10 -2 -31 -3 -48 -3 -33 6 -35 85 -20 l37 8 0 -41 c0 -42
-10 -52 -56 -52 -21 0 -24 3 -18 25 5 21 3 25 -15 25 -15 0 -21 -6 -21 -22 0
-12 -7 -29 -16 -39 -14 -16 -14 -18 6 -24 12 -4 34 -3 48 3 101 36 168 44 181
23 10 -15 31 -6 31 13 0 7 -11 23 -25 36 l-25 23 0 -21 c0 -18 -6 -22 -30 -22
-28 0 -30 3 -30 35 0 28 5 38 23 44 12 5 26 5 32 0 18 -18 35 -8 50 28 15 35
15 39 -2 50 -24 19 -38 10 -35 -21 2 -23 -1 -26 -29 -26 -32 0 -32 0 -26 43 7
48 -4 67 -37 67 -19 0 -21 -5 -18 -60z"/>
  <path d="M700 573 c-48 -9 -45 -23 6 -23 l49 0 -3 -47 c-5 -78 -10 -93 -34
-93 -20 0 -21 -1 -3 -20 42 -46 61 -17 66 100 l4 85 -30 1 c-16 1 -41 0 -55
-3z"/>
  <path d="M513 553 c-18 -2 -33 -9 -33 -15 0 -7 16 -9 45 -5 l45 7 0 -60 c0
-53 -2 -60 -20 -60 -18 0 -19 -2 -8 -20 32 -50 58 -9 58 89 l0 71 -27 -2 c-16
0 -43 -3 -60 -5z"/>
  <path d="M655 510 c19 -21 45 -27 45 -10 0 6 -12 15 -26 20 -36 14 -39 13 -19
-10z"/>
  <path d="M474 495 c24 -18 39 -20 34 -2 -3 6 -15 13 -29 15 -23 2 -23 2 -5
-13z"/>
  <path d="M669 450 c-44 -15 -57 -40 -21 -40 17 1 80 46 72 52 -3 2 -26 -3 -51
-12z"/>
  <path d="M473 438 c-36 -12 -42 -23 -17 -32 17 -7 44 5 64 28 15 19 3 20 -47
4z"/>
  <path d="M615 370 c-3 -5 -2 -10 4 -10 5 0 13 -9 16 -20 3 -11 15 -20 26 -20
28 0 24 35 -6 48 -31 14 -32 15 -40 2z"/>
  <path d="M510 344 c-6 -14 -10 -28 -10 -32 0 -4 -13 -21 -29 -39 -23 -24 -38
-32 -72 -33 -65 -4 -65 -3 -61 35 5 40 -11 65 -40 65 -16 0 -18 -4 -12 -17 4
-10 8 -36 8 -58 l1 -40 -82 -10 c-45 -5 -84 -13 -88 -17 -13 -13 33 -18 85 -8
29 6 56 7 59 4 7 -7 -61 -68 -111 -100 -44 -28 -49 -38 -13 -24 44 17 82 38
114 66 18 15 34 25 36 22 2 -2 -1 -24 -6 -48 -12 -51 -5 -90 16 -90 18 0 25
23 24 85 -1 28 0 54 0 59 1 4 14 -6 30 -23 33 -36 51 -40 51 -12 0 13 -15 28
-40 42 -58 33 -52 49 18 49 47 0 63 4 78 21 l19 21 6 -30 c3 -16 2 -58 -4 -93
-5 -35 -9 -73 -9 -83 2 -43 42 -46 42 -3 0 18 6 22 33 23 17 0 90 4 161 9 115
7 127 10 110 22 -14 11 -35 13 -81 9 -61 -6 -63 -6 -63 17 0 20 5 23 42 26 47
2 61 8 53 22 -8 12 -52 12 -76 -1 -16 -9 -19 -7 -19 14 0 21 6 25 50 31 60 8
57 28 -3 23 -36 -3 -42 0 -42 17 0 14 8 21 25 23 73 8 92 14 81 25 -8 8 -37 7
-108 -2 -54 -7 -110 -14 -124 -16 -22 -2 -26 1 -22 16 3 10 9 19 14 19 15 0
10 28 -7 34 -23 9 -24 8 -34 -20z m120 -90 c0 -22 -4 -24 -50 -24 -38 0 -52 4
-60 19 -15 29 -15 29 50 30 57 0 60 -1 60 -25z m10 -64 c0 -16 -7 -20 -40 -22
-22 -1 -48 -2 -57 -2 -10 -1 -17 7 -18 22 -2 20 2 22 57 22 51 0 58 -2 58 -20z
m0 -64 c0 -22 -5 -26 -32 -27 -18 -1 -45 -2 -60 -3 -22 -2 -28 2 -28 19 0 30
3 31 65 34 53 2 55 1 55 -23z"/>
  <path d="M386 299 c-8 -13 -14 -24 -13 -26 8 -7 67 23 64 32 -7 19 -35 16 -51
-6z"/>
  <path d="M200 291 c0 -3 7 -17 16 -30 17 -24 42 -15 31 12 -5 15 -47 31 -47
18z"/>
</g>
<g id="part-1" class="char-part">
  <path d="M296 553 l7 -60 -33 -6 c-48 -10 -51 -9 -44 17 4 18 1 27 -15 36 -18
9 -21 8 -21 -9 0 -11 -5 -32 -12 -46 -18 -40 0 -50 59 -32 67 22 153 32 153
18 0 -6 6 -11 14 -11 16 0 41 64 31 80 -12 20 -35 10 -35 -15 0 -21 -5 -25
-30 -25 -29 0 -30 1 -30 50 0 28 -4 50 -9 50 -5 0 -16 3 -25 6 -14 5 -15 -2
-10 -53z"/>
</g>
<g id="part-2" class="char-part">
  <path d="M286 323 c4 -10 9 -34 12 -54 4 -41 2 -43 -105 -55 -60 -6 -76 -15
-53 -29 5 -3 35 -1 67 4 31 6 59 9 61 6 8 -7 -72 -75 -127 -108 l-46 -28 35 7
c46 9 82 27 125 66 20 17 38 29 40 26 3 -2 0 -20 -5 -39 -13 -43 -12 -80 0
-99 19 -29 40 17 40 88 l0 64 29 -31 c34 -37 54 -40 49 -8 -2 13 -17 30 -40
42 -47 25 -44 39 8 43 61 5 66 22 7 22 l-51 0 8 35 c6 26 4 37 -9 50 -25 22
-55 20 -45 -2z"/>
</g>
<g id="part-3" class="char-part">
  <path d="M505 545 l-40 -14 50 2 50 2 3 -53 c3 -47 1 -54 -17 -59 -17 -4 -19
-9 -10 -24 12 -24 35 -24 48 -1 5 10 11 49 12 87 l3 70 -30 2 c-16 1 -47 -4
-69 -12z"/>
</g>
<g id="part-4" class="char-part">
  <path d="M680 455 c-14 -8 -33 -14 -44 -15 -15 0 -16 -3 -6 -15 18 -22 33 -19
65 15 31 32 25 38 -15 15z"/>
</g>
<g id="part-5" class="char-part">
  <path d="M653 204 c3 -4 0 -13 -8 -21 -8 -8 -15 -20 -15 -26 0 -8 3 -7 9 2 6
9 8 4 7 -16 -2 -16 -6 -34 -9 -40 -4 -6 4 -10 18 -10 22 0 24 3 20 28 -6 31
-1 36 39 43 42 8 44 16 3 13 -27 -3 -37 1 -40 15 -3 10 -11 18 -18 18 -7 0
-10 -3 -6 -6z"/>
  <path d="M735 101 c-13 -6 -1 -8 36 -7 32 0 52 4 45 8 -14 10 -55 9 -81 -1z"/>
  <path d="M585 90 c-19 -8 -19 -9 3 -9 12 -1 22 4 22 9 0 6 -1 10 -2 9 -2 0
-12 -4 -23 -9z"/>
  <path d="M545 80 c-3 -5 -1 -10 4 -10 6 0 11 5 11 10 0 6 -2 10 -4 10 -3 0 -8
-4 -11 -10z"/>
</g>
</g>
</svg>