<?xml version="1.0" standalone="no"?>
<!DOCTYPE svg PUBLIC "-//W3C//DTD SVG 20010904//EN"
 "http://www.w3.org/TR/2001/REC-SVG-20010904/DTD/svg10.dtd">
<svg version="1.0" xmlns="http://www.w3.org/2000/svg"
 width="96.000000pt" height="68.000000pt" viewBox="0 0 96.000000 68.000000"
 preserveAspectRatio="xMidYMid meet">
<metadata>
Created by potrace 1.16, written by Peter Selinger 2001-2019
Combined from part_0.svg through part_5.svg with named groups
</metadata>
<g transform="translate(0.000000,68.000000) scale(0.100000,-0.100000)" fill="#000000" stroke="none">
<g id="part-0" class="char-part">
  <path d="M253 513 l2 -68 -32 -3 c-36 -4 -38 0 -23 28 8 16 6 22 -14 36 -29
19 -46 12 -39 -15 3 -11 -2 -34 -11 -52 -14 -28 -14 -35 -3 -47 12 -12 21 -11
63 3 27 9 79 22 116 29 55 11 68 11 68 0 0 -17 20 -28 31 -17 5 5 15 33 23 62
13 52 13 53 -11 62 -39 14 -43 11 -43 -31 0 -39 -1 -40 -36 -40 l-36 0 7 46
c7 52 -5 74 -40 74 -22 0 -23 -3 -22 -67z"/>
  <path d="M600 499 c-25 -4 -63 -8 -85 -8 l-40 -1 2 -123 c0 -67 2 -128 2 -136
1 -9 9 -11 26 -7 67 17 1 -74 -104 -144 -32 -22 -39 -30 -25 -30 49 0 189 124
189 168 0 9 7 17 15 17 11 0 16 -17 21 -70 6 -84 12 -98 46 -116 37 -20 133
-16 166 6 32 20 33 30 10 76 l-17 33 -8 -29 c-11 -41 -33 -55 -89 -55 -63 0
-73 14 -65 91 7 74 15 88 32 64 7 -10 20 -15 27 -12 12 4 16 34 19 134 5 162
3 165 -122 142z m70 -49 c0 -31 -7 -34 -97 -46 l-53 -7 0 36 c0 35 1 36 48 42
26 3 54 7 62 9 28 4 40 -6 40 -34z m0 -82 c0 -26 -2 -28 -44 -28 -24 0 -58 -3
-75 -6 -28 -6 -31 -4 -31 18 0 22 5 25 63 34 89 13 87 14 87 -18z m3 -70 c4
-12 5 -23 4 -25 -2 -1 -40 -5 -85 -9 -67 -6 -82 -4 -82 7 0 28 16 38 65 42 28
2 60 4 71 5 15 1 24 -5 27 -20z"/>
  <path d="M263 376 c-35 -5 -63 -13 -63 -17 0 -12 17 -11 100 2 38 7 67 15 65
20 -6 9 -12 8 -102 -5z"/>
  <path d="M285 319 c-22 -4 -59 -8 -83 -8 -38 -1 -42 -3 -29 -16 8 -7 18 -30
21 -50 7 -35 8 -36 44 -30 117 19 111 22 91 -47 -12 -46 -32 -49 -71 -11 -32
31 -43 27 -29 -11 10 -25 9 -26 -27 -27 -20 -1 -52 0 -69 1 -39 2 -43 -13 -9
-35 23 -15 34 -14 167 19 150 37 185 52 107 44 -53 -6 -62 6 -28 37 15 14 19
26 15 46 -4 18 0 37 10 53 9 14 14 30 10 36 -7 12 -62 11 -120 -1z m70 -36
c-4 -16 -8 -29 -9 -30 -1 -1 -27 -6 -59 -11 -59 -9 -67 -6 -80 30 -5 14 4 18
46 26 29 5 65 10 81 11 26 1 28 -1 21 -26z"/>
</g>
<g id="part-1" class="char-part">
  <path d="M254 563 c3 -8 9 -38 12 -67 l6 -53 -42 -7 c-24 -4 -44 -5 -47 -3 -2
3 2 17 9 31 10 23 9 29 -3 37 -25 16 -39 10 -37 -15 1 -14 -4 -36 -11 -50 -11
-20 -12 -28 -2 -40 11 -14 17 -14 40 -1 15 7 65 21 110 30 79 16 83 16 96 -1
18 -24 29 -12 43 46 12 47 5 60 -28 60 -12 0 -15 -8 -12 -34 4 -30 1 -34 -28
-40 -52 -10 -52 -9 -48 51 l3 57 -33 7 c-27 5 -32 4 -28 -8z"/>
</g>
<g id="part-2" class="char-part">
  <path d="M332 185 c-15 -57 -35 -66 -67 -31 -37 40 -59 31 -35 -15 10 -18 7
-19 -60 -19 -74 0 -86 -9 -45 -36 25 -16 32 -15 153 16 158 40 184 51 120 47
-27 -1 -48 0 -48 3 0 3 9 19 20 35 25 38 25 45 -3 45 -19 0 -25 -8 -35 -45z"/>
</g>
<g id="part-3" class="char-part">
  <path d="M595 499 c-22 -4 -58 -8 -80 -8 l-40 -1 3 -97 c2 -54 6 -100 8 -102
2 -2 14 1 27 7 32 16 157 26 157 13 0 -6 11 -11 24 -11 23 0 24 3 28 93 6 121
-7 131 -127 106z m75 -48 c0 -28 -3 -29 -63 -40 -88 -15 -87 -15 -87 23 0 39
7 42 98 45 51 1 52 0 52 -28z m-2 -106 c-2 -1 -36 -6 -75 -9 -72 -7 -73 -7
-73 17 0 23 5 25 73 33 71 9 72 9 75 -14 2 -13 2 -25 0 -27z"/>
</g>
<g id="part-4" class="char-part">
  <path d="M670 286 c0 -15 -49 -26 -117 -26 -32 0 -43 4 -43 15 0 20 -29 19
-37 -1 -8 -22 16 -72 26 -55 5 8 34 15 67 17 33 2 69 6 82 9 14 4 24 0 28 -10
14 -36 44 -9 44 41 0 19 -5 24 -25 24 -14 0 -25 -6 -25 -14z"/>
</g>
<g id="part-5" class="char-part">
  <path d="M605 165 c3 -82 8 -96 27 -77 9 9 9 15 0 24 -15 15 -16 48 -1 48 5 0
9 8 7 18 -1 9 1 23 6 30 9 16 8 17 -20 26 -21 6 -22 4 -19 -69z"/>
  <path d="M811 133 c0 -7 -1 -16 0 -19 0 -4 -12 -15 -28 -26 -23 -16 -39 -18
-90 -14 -66 5 -84 -7 -37 -24 35 -14 74 -12 74 2 0 9 3 9 12 0 20 -20 48 -14
48 11 0 16 3 18 9 9 4 -8 12 -14 16 -14 13 0 24 26 16 37 -5 5 -11 19 -14 30
-2 11 -5 14 -6 8z m-94 -79 c-3 -3 -12 -4 -19 -1 -8 3 -5 6 6 6 11 1 17 -2 13
-5z"/>
</g>
</g>
</svg>