<?xml version="1.0" standalone="no"?>
<!DOCTYPE svg PUBLIC "-//W3C//DTD SVG 20010904//EN"
 "http://www.w3.org/TR/2001/REC-SVG-20010904/DTD/svg10.dtd">
<svg version="1.0" xmlns="http://www.w3.org/2000/svg"
 width="96.000000pt" height="68.000000pt" viewBox="0 0 96.000000 68.000000"
 preserveAspectRatio="xMidYMid meet">
<metadata>
Created by potrace 1.16, written by Peter Selinger 2001-2019
Combined from part_0.svg through part_5.svg with named groups
</metadata>
<g transform="translate(0.000000,68.000000) scale(0.100000,-0.100000)" fill="#000000" stroke="none">
<g id="part-0" class="char-part">
  <path d="M495 583 c13 -32 18 -100 7 -107 -5 -3 -42 -9 -81 -12 -39 -4 -71
-11 -71 -15 0 -5 37 -9 81 -9 l82 0 -7 -64 c-11 -109 -33 -166 -83 -218 -25
-25 -61 -54 -79 -64 -19 -10 -34 -22 -34 -26 0 -10 55 8 100 33 39 22 110 111
110 138 0 11 5 10 20 -4 11 -10 20 -22 20 -28 0 -5 23 -37 52 -71 29 -33 53
-63 55 -65 6 -8 93 -18 123 -13 29 4 43 22 17 22 -38 0 -146 67 -204 126 l-64
65 7 82 c3 45 8 85 11 90 2 4 19 7 36 7 49 0 130 24 135 40 4 11 -9 12 -66 7
-39 -4 -78 -10 -87 -13 -14 -6 -16 0 -14 43 3 61 -4 73 -43 73 -25 0 -29 -3
-23 -17z"/>
  <path d="M190 562 c0 -20 72 -82 95 -82 26 0 33 22 17 47 -16 25 -112 55 -112
35z"/>
  <path d="M125 396 c37 -55 105 -76 105 -31 0 29 -42 55 -90 55 -30 0 -30 0
-15 -24z"/>
  <path d="M635 393 c-3 -15 -20 -45 -36 -67 -34 -47 -31 -56 9 -27 39 27 45 27
83 -10 21 -21 35 -27 42 -20 16 16 0 39 -38 55 -41 17 -42 22 -14 52 24 26 18
44 -16 44 -17 0 -25 -7 -30 -27z"/>
  <path d="M386 377 c-3 -13 -22 -45 -42 -71 -25 -33 -30 -45 -17 -38 11 6 25
18 33 26 17 21 33 20 55 -4 19 -21 45 -27 45 -10 0 5 -12 17 -27 27 -16 9 -30
18 -32 20 -3 2 6 14 18 27 25 26 21 46 -9 46 -10 0 -20 -9 -24 -23z"/>
  <path d="M239 273 c-18 -27 -52 -67 -77 -90 -43 -41 -43 -43 -32 -77 21 -66
36 -55 100 79 33 68 60 126 60 129 0 19 -23 0 -51 -41z"/>
</g>
<g id="part-1" class="char-part">
  <path d="M200 551 c0 -14 69 -71 85 -71 28 0 17 48 -15 65 -32 17 -70 20 -70
6z"/>
  <path d="M120 411 c0 -13 69 -71 85 -71 45 0 19 55 -33 70 -45 12 -52 12 -52
1z"/>
  <path d="M227 248 c-25 -35 -57 -70 -71 -78 -17 -9 -26 -22 -26 -37 0 -29 17
-63 30 -63 12 0 124 229 117 236 -3 3 -25 -23 -50 -58z"/>
</g>
<g id="part-2" class="char-part">
  <path d="M496 573 c4 -16 8 -44 8 -63 l1 -35 -77 -9 c-43 -5 -78 -13 -78 -18
0 -4 36 -8 80 -8 76 0 80 -1 80 -22 -1 -57 -22 -162 -39 -196 -22 -43 -79 -99
-134 -132 -21 -12 -36 -24 -34 -26 8 -8 85 20 119 45 35 25 98 109 98 130 0
22 16 8 48 -42 19 -29 50 -71 71 -95 l37 -43 75 3 74 3 -77 37 c-57 27 -95 54
-143 104 l-67 67 7 81 c4 45 10 84 14 87 3 3 39 11 80 18 80 13 91 17 91 33 0
11 -90 6 -147 -8 -26 -7 -26 -7 -21 45 6 56 -6 71 -52 71 -19 0 -21 -4 -14
-27z"/>
</g>
<g id="part-3" class="char-part">
  <path d="M381 368 c-6 -18 -25 -48 -42 -66 -40 -43 -30 -53 16 -17 l36 27 20
-21 c20 -22 49 -28 49 -11 0 5 -12 17 -27 27 -16 9 -30 18 -32 20 -3 2 6 14
18 27 25 26 21 46 -9 46 -12 0 -22 -11 -29 -32z"/>
</g>
<g id="part-4" class="char-part">
  <path d="M636 396 c-3 -13 -22 -47 -42 -76 l-36 -52 32 18 c17 11 36 25 42 31
8 10 20 4 51 -22 47 -40 60 -44 55 -14 -3 23 -15 33 -62 49 l-29 11 25 27 c29
31 27 52 -7 52 -16 0 -25 -7 -29 -24z"/>
</g>
</g>
</svg>