<?xml version="1.0" standalone="no"?>
<!DOCTYPE svg PUBLIC "-//W3C//DTD SVG 20010904//EN"
 "http://www.w3.org/TR/2001/REC-SVG-20010904/DTD/svg10.dtd">
<svg version="1.0" xmlns="http://www.w3.org/2000/svg"
 width="96.000000pt" height="68.000000pt" viewBox="0 0 96.000000 68.000000"
 preserveAspectRatio="xMidYMid meet">
<metadata>
Created by potrace 1.16, written by Peter Selinger 2001-2019
Combined from part_0.svg through part_5.svg with named groups
</metadata>
<g transform="translate(0.000000,68.000000) scale(0.100000,-0.100000)" fill="#000000" stroke="none">
<g id="part-0" class="char-part">
  <path d="M281 573 c4 -22 -3 -43 -19 -63 l-19 -23 -41 23 c-55 31 -65 18 -17
-23 l38 -33 -54 -47 c-40 -35 -49 -47 -34 -47 11 0 40 13 64 29 25 17 48 28
52 26 3 -3 9 -16 12 -31 4 -20 -6 -38 -44 -84 -26 -32 -64 -68 -84 -80 -20
-12 -34 -24 -31 -27 8 -8 86 37 126 74 l40 35 0 -48 c0 -27 -5 -66 -11 -88
-10 -38 -11 -38 -50 -33 -21 3 -39 2 -39 -1 1 -17 62 -72 80 -72 12 0 30 15
46 40 25 38 26 43 22 162 -2 92 -8 132 -21 157 l-17 35 42 43 c35 36 41 47 32
61 -11 17 -76 31 -73 15z"/>
  <path d="M670 530 c-95 -17 -115 -21 -119 -26 -2 -2 14 -4 37 -4 45 0 49 -7
51 -96 2 -39 0 -42 -30 -48 -17 -3 -51 -6 -76 -6 -40 0 -43 -2 -34 -19 6 -11
8 -49 4 -92 -10 -125 -9 -144 6 -144 17 0 20 13 27 135 3 52 7 97 9 99 2 2 24
6 50 8 l45 6 0 -124 c0 -98 3 -121 13 -111 7 8 14 55 17 125 l5 112 58 3 58 3
-3 -138 -3 -138 -35 3 -35 4 34 -26 c70 -52 78 -36 82 151 3 110 1 155 -8 164
-9 9 -29 10 -78 3 -45 -7 -65 -7 -66 0 -1 6 -2 39 -3 72 l-1 62 58 7 c32 3 55
10 52 16 -7 10 -50 10 -115 -1z"/>
  <path d="M425 503 c-11 -2 -30 -6 -42 -9 -41 -8 -24 -22 17 -14 22 4 42 4 45
0 2 -4 0 -23 -6 -43 -9 -34 -13 -37 -46 -37 -33 0 -35 -2 -29 -25 4 -16 1 -34
-9 -48 -27 -39 -20 -49 32 -41 l46 7 -6 -77 c-6 -88 -19 -110 -56 -102 -14 3
-20 3 -13 0 6 -3 12 -11 12 -19 0 -7 7 -18 16 -25 13 -11 19 -9 42 13 22 23
28 41 38 119 6 51 10 96 7 101 -2 4 -24 7 -49 7 -24 0 -44 2 -44 5 0 3 7 21
14 40 12 29 20 35 44 35 25 0 30 5 36 32 3 17 13 40 22 49 29 32 -4 47 -71 32z"/>
  <path d="M751 442 c33 -25 79 -43 90 -37 32 21 -21 55 -84 55 l-30 0 24 -18z"/>
  <path d="M535 417 c-11 -17 -21 -35 -23 -39 -4 -8 56 20 76 35 9 7 9 13 1 23
-18 22 -32 17 -54 -19z"/>
  <path d="M730 315 c0 -8 -3 -15 -7 -15 -5 0 -13 -11 -20 -25 -11 -24 -1 -36
12 -15 4 7 13 6 26 -1 26 -14 40 -1 17 15 -12 9 -14 16 -7 23 12 12 4 33 -12
33 -5 0 -9 -7 -9 -15z"/>
  <path d="M572 273 c-24 -38 -24 -54 1 -29 9 9 23 13 38 9 22 -6 23 -5 9 12
-11 14 -12 19 -2 22 6 3 10 9 6 14 -11 18 -29 8 -52 -28z"/>
  <path d="M590 215 c0 -8 -7 -15 -15 -15 -8 0 -15 -4 -15 -9 0 -5 -3 -18 -7
-28 -6 -16 -5 -16 10 -4 15 12 20 11 36 -3 11 -10 22 -13 25 -8 3 5 -1 15 -9
22 -11 9 -12 16 -4 26 11 14 5 34 -12 34 -5 0 -9 -7 -9 -15z"/>
  <path d="M726 215 c-3 -8 -12 -12 -20 -9 -27 10 -7 -30 22 -44 38 -18 48 -15
27 8 -14 16 -16 23 -7 32 16 16 15 28 -2 28 -8 0 -16 -7 -20 -15z"/>
</g>
<g id="part-1" class="char-part">
  <path d="M290 563 c0 -10 -9 -33 -20 -51 l-20 -32 -52 25 -53 26 44 -39 43
-38 -52 -47 c-61 -55 -53 -61 19 -13 48 33 52 34 61 16 13 -24 13 -231 0 -265
-9 -25 -14 -27 -46 -21 -32 7 -34 5 -26 -11 6 -10 20 -27 32 -38 24 -22 41
-16 74 29 37 49 33 243 -8 337 -4 10 7 31 34 61 l40 47 -22 15 c-29 21 -48 20
-48 -1z"/>
</g>
<g id="part-2" class="char-part">
  <path d="M225 310 c-22 -27 -59 -63 -83 -80 -56 -42 -47 -49 16 -15 70 38 114
86 110 118 -3 25 -4 25 -43 -23z"/>
</g>
<g id="part-3" class="char-part">
  <path d="M395 495 l-40 -13 48 -1 c26 -1 47 -3 47 -6 0 -3 -6 -21 -14 -40 -12
-27 -21 -34 -47 -37 -29 -3 -32 -6 -34 -38 -1 -19 -6 -45 -10 -58 -8 -23 -7
-23 39 -17 l46 7 0 -56 c0 -31 -7 -73 -15 -92 -13 -32 -18 -35 -40 -30 l-26 7
22 -31 c27 -36 30 -36 57 -7 29 30 39 68 44 154 l3 68 -47 3 c-27 2 -48 5 -48
6 0 2 7 20 15 40 13 30 20 36 45 36 22 0 30 5 30 18 0 9 9 32 20 50 11 18 18
37 15 43 -8 12 -62 10 -110 -6z"/>
</g>
<g id="part-4" class="char-part">
  <path d="M620 520 c-75 -16 -80 -18 -41 -19 70 -2 225 21 209 30 -19 13 -73 9
-168 -11z"/>
</g>
<g id="part-5" class="char-part">
  <path d="M774 361 c18 -7 20 -17 18 -130 -2 -75 1 -120 7 -117 5 4 3 -7 -6
-24 -12 -24 -19 -30 -36 -25 -21 6 -21 6 -2 -6 11 -7 23 -17 28 -23 5 -7 13
-4 25 10 14 17 18 43 21 133 2 84 -1 111 -9 106 -9 -6 -9 -2 -1 13 25 46 9 73
-42 71 -21 0 -21 -1 -3 -8z"/>
  <path d="M511 315 c5 -16 9 -31 9 -33 0 -2 5 0 11 4 8 4 7 9 -2 15 -12 7 -12
9 0 9 8 0 11 3 7 7 -3 4 4 13 16 19 22 12 21 13 -13 11 -35 -2 -36 -3 -28 -32z"/>
  <path d="M510 259 c0 -5 5 -7 10 -4 6 3 10 8 10 11 0 2 -4 4 -10 4 -5 0 -10
-5 -10 -11z"/>
  <path d="M510 206 c0 -19 -4 -46 -10 -60 -11 -29 -3 -59 12 -50 6 4 5 10 -3
15 -11 7 -11 9 1 9 12 0 15 14 15 60 1 33 -3 60 -7 60 -4 0 -8 -15 -8 -34z"/>
</g>
</g>
</svg>