<?xml version="1.0" standalone="no"?>
<!DOCTYPE svg PUBLIC "-//W3C//DTD SVG 20010904//EN"
 "http://www.w3.org/TR/2001/REC-SVG-20010904/DTD/svg10.dtd">
<svg version="1.0" xmlns="http://www.w3.org/2000/svg"
 width="96.000000pt" height="68.000000pt" viewBox="0 0 96.000000 68.000000"
 preserveAspectRatio="xMidYMid meet">
<metadata>
Created by potrace 1.16, written by Peter Selinger 2001-2019
Combined from part_0.svg through part_5.svg with named groups
</metadata>
<g transform="translate(0.000000,68.000000) scale(0.100000,-0.100000)" fill="#000000" stroke="none">
<g id="part-0" class="char-part">
  <path d="M200 555 c0 -3 12 -23 26 -45 33 -50 74 -57 74 -12 0 20 -8 32 -31
45 -29 16 -69 23 -69 12z"/>
  <path d="M609 553 c0 -5 0 -50 1 -101 1 -51 -2 -92 -7 -91 -28 5 -93 -3 -93
-11 0 -5 16 -12 35 -16 19 -3 35 -11 35 -18 -1 -6 -19 -29 -40 -51 -65 -66
-42 -71 28 -6 18 17 35 31 38 31 3 0 2 -31 -1 -68 -6 -55 -4 -70 9 -81 13 -11
17 -9 27 15 6 16 8 55 5 87 -2 31 -2 57 2 57 4 0 30 -20 59 -45 57 -50 76 -56
71 -22 -2 16 -22 32 -70 57 -38 19 -68 38 -68 42 0 3 24 9 53 13 71 9 88 15
81 27 -4 7 -29 8 -67 4 l-60 -6 5 85 c5 76 4 87 -12 95 -22 12 -30 13 -31 3z"/>
  <path d="M730 469 c-7 -17 -20 -37 -28 -45 -8 -8 -12 -17 -9 -20 2 -3 11 1 19
9 8 8 28 22 46 31 35 18 38 26 20 44 -20 20 -35 14 -48 -19z"/>
  <path d="M211 450 c-119 -20 -135 -25 -111 -40 22 -14 74 -12 170 6 47 9 96
18 110 21 24 4 24 5 6 19 -24 17 -31 17 -175 -6z"/>
  <path d="M520 420 c24 -34 50 -39 50 -10 0 20 -27 40 -55 40 -14 0 -13 -4 5
-30z"/>
  <path d="M396 408 c15 -27 38 -48 51 -48 21 0 15 27 -9 44 -27 19 -52 21 -42
4z"/>
  <path d="M232 360 c-60 -14 -48 -23 22 -17 77 7 117 28 51 26 -22 -1 -55 -5
-73 -9z"/>
  <path d="M436 323 c-4 -5 -24 -13 -44 -19 l-37 -12 38 -1 c41 -1 42 -3 25 -31
-9 -14 -9 -25 -1 -42 26 -54 25 -58 -18 -58 -58 0 -46 -25 12 -26 62 -1 101
-11 193 -51 68 -29 89 -34 131 -30 28 3 66 14 85 24 l35 18 -55 6 c-30 4 -80
7 -111 8 -31 1 -69 5 -85 10 -16 5 -57 17 -92 27 -51 14 -63 21 -59 35 3 10
-2 27 -10 39 -14 20 -13 24 12 50 24 25 26 32 15 45 -14 17 -23 19 -34 8z"/>
  <path d="M225 293 c-11 -3 -24 -10 -30 -15 -7 -7 12 -8 60 -4 84 8 113 27 40
25 -28 -1 -59 -3 -70 -6z"/>
  <path d="M285 230 c-11 -5 -44 -9 -72 -9 -29 -1 -53 -5 -53 -11 0 -5 3 -10 8
-10 4 0 13 -23 20 -52 14 -59 17 -64 34 -51 7 6 34 14 61 17 26 4 45 12 41 17
-3 5 4 26 16 46 11 20 17 39 13 43 -15 14 -48 19 -68 10z m7 -55 c-4 -36 -10
-42 -42 -47 -22 -3 -25 1 -28 34 -3 31 0 37 20 41 44 9 53 3 50 -28z"/>
</g>
<g id="part-1" class="char-part">
  <path d="M227 519 c23 -41 49 -57 64 -42 25 25 -20 73 -67 73 -14 0 -13 -4 3
-31z"/>
  <path d="M185 441 c-93 -15 -98 -18 -76 -30 21 -12 42 -10 152 10 127 23 160
40 71 38 -26 -1 -92 -9 -147 -18z"/>
</g>
<g id="part-2" class="char-part">
  <path d="M280 230 c-14 -4 -46 -8 -72 -9 -47 -1 -57 -7 -39 -26 4 -6 14 -31
21 -57 7 -27 14 -48 16 -48 2 0 13 4 26 9 13 6 40 12 61 16 21 3 35 10 31 16
-3 5 4 26 16 46 21 35 21 38 4 50 -20 14 -27 15 -64 3z m12 -55 c-4 -33 -16
-45 -49 -45 -19 0 -23 5 -23 34 0 36 13 46 55 43 16 -2 19 -8 17 -32z"/>
</g>
<g id="part-3" class="char-part">
  <path d="M390 412 c0 -12 44 -52 58 -52 23 0 12 40 -14 50 -31 12 -44 13 -44
2z"/>
  <path d="M400 310 l-45 -19 37 0 c36 -1 37 -2 26 -26 -8 -19 -8 -31 0 -50 20
-44 15 -55 -24 -55 -24 0 -34 -4 -31 -12 2 -8 24 -13 58 -13 40 -1 81 -12 159
-44 85 -35 113 -42 150 -38 46 5 133 37 115 43 -5 2 -64 8 -130 13 -66 6 -152
20 -193 32 -62 19 -71 25 -66 41 3 12 -1 27 -12 39 -17 19 -16 20 9 47 31 32
34 47 11 56 -9 3 -16 6 -17 5 -1 -1 -22 -9 -47 -19z"/>
</g>
<g id="part-4" class="char-part">
  <path d="M603 545 c4 -9 7 -48 7 -86 0 -61 2 -69 19 -69 17 0 20 9 23 73 4 80
3 82 -31 92 -20 6 -23 4 -18 -10z"/>
  <path d="M730 471 c-6 -16 -20 -38 -31 -50 -27 -28 -19 -27 40 10 56 35 60 43
32 59 -27 14 -27 14 -41 -19z"/>
  <path d="M522 420 c25 -34 48 -39 48 -10 0 20 -27 40 -55 40 -13 0 -12 -5 7
-30z"/>
</g>
<g id="part-5" class="char-part">
  <path d="M624 369 c-5 -8 -3 -10 7 -4 8 5 11 4 7 0 -5 -5 -31 -9 -58 -10 -58
-2 -81 -15 -27 -15 51 0 54 -16 13 -56 -19 -19 -29 -34 -21 -34 8 0 20 8 27
18 21 29 35 33 49 15 9 -11 10 -14 2 -10 -8 5 -12 -1 -12 -20 0 -15 -2 -43 -4
-61 -4 -36 18 -66 29 -38 3 9 0 23 -7 32 -10 12 -10 15 1 12 10 -2 13 8 11 42
-2 25 -5 48 -7 52 -2 4 0 10 6 13 8 5 7 11 -1 21 -10 12 -8 16 9 21 12 3 22
10 22 16 0 6 -3 7 -7 4 -3 -4 -12 -2 -19 4 -8 7 -14 6 -20 -2z m6 -60 c0 -6
-4 -7 -10 -4 -5 3 -10 11 -10 16 0 6 5 7 10 4 6 -3 10 -11 10 -16z m0 -149 c0
-5 -2 -10 -4 -10 -3 0 -8 5 -11 10 -3 6 -1 10 4 10 6 0 11 -4 11 -10z"/>
  <path d="M700 364 l-25 -15 34 5 c18 3 38 6 43 6 5 0 6 5 3 10 -9 14 -26 12
-55 -6z"/>
  <path d="M696 272 c18 -17 32 -23 36 -17 7 9 9 8 12 -14 2 -20 23 -33 31 -20
9 14 -41 63 -56 54 -5 -4 -9 -2 -9 3 0 5 -10 12 -22 15 -19 5 -18 3 8 -21z"/>
</g>
</g>
</svg>