<?xml version="1.0" standalone="no"?>
<!DOCTYPE svg PUBLIC "-//W3C//DTD SVG 20010904//EN"
 "http://www.w3.org/TR/2001/REC-SVG-20010904/DTD/svg10.dtd">
<svg version="1.0" xmlns="http://www.w3.org/2000/svg"
 width="96.000000pt" height="68.000000pt" viewBox="0 0 96.000000 68.000000"
 preserveAspectRatio="xMidYMid meet">
<metadata>
Created by potrace 1.16, written by Peter Selinger 2001-2019
Combined from part_0.svg through part_5.svg with named groups
</metadata>
<g transform="translate(0.000000,68.000000) scale(0.100000,-0.100000)" fill="#000000" stroke="none">
<g id="part-0" class="char-part">
  <path d="M285 570 c-16 -4 -56 -8 -87 -9 -55 -1 -80 -12 -57 -26 7 -5 9 -52 8
-139 -2 -72 0 -137 5 -144 4 -7 16 -10 27 -7 10 4 19 3 19 0 0 -8 -21 -48 -29
-55 -22 -19 -63 -72 -51 -65 37 20 90 68 85 76 -4 5 0 6 8 4 18 -8 53 30 37
40 -9 6 -9 10 1 16 24 15 71 10 85 -8 11 -16 14 -16 28 -3 11 11 15 49 18 158
3 133 1 145 -16 158 -21 15 -35 16 -81 4z m37 -59 c4 -28 2 -29 -51 -40 -73
-15 -71 -16 -71 23 0 38 8 42 81 45 33 1 37 -2 41 -28z m8 -90 c0 -27 -3 -29
-47 -35 -27 -4 -56 -9 -65 -12 -14 -4 -18 1 -18 25 0 28 3 30 48 36 26 4 52 8
57 10 21 7 25 4 25 -24z m0 -90 c0 -37 -1 -37 -77 -46 -61 -7 -63 -6 -63 17 0
37 12 46 65 51 28 2 56 4 63 5 7 1 12 -10 12 -27z"/>
  <path d="M545 558 c-125 -21 -137 -24 -119 -36 33 -21 19 -195 -24 -285 -16
-34 -35 -69 -43 -77 -8 -8 -21 -24 -29 -34 -14 -18 -14 -19 6 -8 12 6 31 21
42 34 61 65 71 84 92 166 10 38 13 41 29 30 25 -18 91 -97 91 -110 0 -17 -42
-48 -108 -80 -35 -17 -61 -32 -59 -35 11 -11 82 12 133 43 31 19 60 34 64 34
5 0 23 -18 41 -40 37 -45 63 -53 134 -42 l50 7 -88 44 c-48 25 -92 50 -97 56
-7 8 4 38 32 93 53 103 49 111 -52 94 -39 -7 -90 -12 -113 -12 l-43 0 4 58 c2
31 5 58 7 60 2 2 58 9 126 17 68 8 126 15 129 15 3 0 -4 7 -14 15 -24 18 -40
18 -191 -7z m115 -182 c0 -18 -37 -106 -45 -106 -6 0 -109 100 -103 100 39 5
84 13 87 16 12 11 61 3 61 -10z"/>
  <path d="M290 231 c0 -6 4 -11 8 -11 5 0 15 -11 22 -25 7 -14 17 -25 21 -25
13 0 16 35 4 47 -18 16 -55 26 -55 14z"/>
</g>
<g id="part-1" class="char-part">
  <path d="M245 558 c-22 -5 -55 -7 -73 -4 -31 5 -32 3 -25 -17 4 -12 7 -77 5
-145 -3 -87 0 -127 9 -138 17 -21 29 0 29 54 0 33 4 42 18 42 9 0 41 3 70 7
l54 6 -3 -46 c-3 -54 13 -80 35 -57 21 22 25 288 5 301 -18 11 -72 10 -124 -3z
m73 -20 c7 -7 12 -24 12 -38 0 -24 -4 -27 -66 -36 -36 -5 -67 -8 -70 -5 -2 2
-4 19 -4 37 0 27 5 35 23 38 12 3 31 7 42 9 37 8 51 7 63 -5z m12 -123 c0 -30
-3 -35 -24 -35 -13 0 -44 -3 -70 -6 l-46 -7 0 36 0 36 53 4 c28 2 60 4 70 5
13 2 17 -6 17 -33z"/>
</g>
<g id="part-2" class="char-part">
  <path d="M197 233 c-8 -15 -34 -47 -58 -70 -24 -24 -38 -43 -33 -43 27 0 166
112 153 124 -2 2 -14 7 -26 10 -17 6 -25 1 -36 -21z"/>
  <path d="M307 205 c30 -38 38 -41 49 -23 8 13 -39 58 -62 58 -11 0 -7 -10 13
-35z"/>
</g>
<g id="part-3" class="char-part">
  <path d="M542 557 c-128 -19 -132 -21 -115 -39 13 -14 16 -36 15 -95 -2 -100
-23 -168 -77 -248 l-44 -66 32 19 c42 26 93 101 112 165 9 29 19 90 22 137 3
47 7 87 9 88 1 2 58 10 126 17 68 7 125 14 128 15 3 0 -4 7 -14 15 -24 18 -27
18 -194 -8z"/>
</g>
<g id="part-4" class="char-part">
  <path d="M620 410 c-19 -5 -56 -10 -82 -11 -36 -2 -48 -7 -51 -21 -3 -10 2
-23 12 -31 10 -6 37 -34 60 -61 l43 -49 -29 -24 c-15 -13 -59 -40 -98 -59 -66
-33 -68 -35 -30 -30 22 3 71 22 110 42 l70 36 31 -36 c39 -45 68 -56 135 -48
l54 7 -87 43 c-48 24 -92 50 -98 58 -10 11 -3 30 30 90 23 41 39 82 36 90 -6
15 -50 17 -106 4z m40 -37 c0 -21 -36 -103 -45 -103 -9 0 -105 92 -105 101 0
8 41 14 113 17 29 2 37 -2 37 -15z"/>
</g>
</g>
</svg>