<?xml version="1.0" standalone="no"?>
<!DOCTYPE svg PUBLIC "-//W3C//DTD SVG 20010904//EN"
 "http://www.w3.org/TR/2001/REC-SVG-20010904/DTD/svg10.dtd">
<svg version="1.0" xmlns="http://www.w3.org/2000/svg"
 width="96.000000pt" height="68.000000pt" viewBox="0 0 96.000000 68.000000"
 preserveAspectRatio="xMidYMid meet">
<metadata>
Created by potrace 1.16, written by Peter Selinger 2001-2019
Combined from part_0.svg through part_5.svg with named groups
</metadata>
<g transform="translate(0.000000,68.000000) scale(0.100000,-0.100000)" fill="#000000" stroke="none">
<g id="part-0" class="char-part">
  <path d="M540 580 c0 -14 46 -60 60 -60 17 0 11 42 -7 56 -22 16 -53 18 -53 4z"/>
  <path d="M260 524 c-19 -7 -51 -11 -72 -8 l-36 5 5 -98 c7 -118 -8 -216 -43
-284 -19 -39 -21 -49 -10 -49 26 0 63 59 90 143 5 15 9 16 26 5 17 -11 23 -9
50 22 l31 35 -5 -40 c-3 -22 -6 -57 -6 -79 l0 -39 -40 7 c-22 3 -40 3 -40 0 0
-14 76 -74 93 -74 11 0 24 13 33 35 8 20 23 44 34 55 11 11 26 35 34 55 8 19
19 35 25 35 5 0 23 12 40 26 l31 26 0 -70 c0 -38 -5 -84 -11 -101 -10 -29 -9
-35 9 -54 l21 -20 5 24 c13 63 16 209 5 227 -10 16 -7 25 22 57 41 45 44 69 8
73 -22 3 -27 -2 -32 -25 -7 -31 -74 -143 -86 -143 -5 0 -2 28 5 63 8 34 16 78
19 98 5 35 7 37 63 47 31 6 99 14 150 17 90 7 114 17 70 28 -19 5 -306 -27
-346 -39 -10 -3 -10 -8 4 -21 14 -14 15 -29 10 -84 -7 -73 -40 -194 -57 -205
-7 -4 -10 49 -8 171 3 209 0 214 -91 179z m40 -74 c0 -43 -3 -45 -59 -34 -26
5 -31 11 -31 34 0 35 6 40 52 40 38 0 38 0 38 -40z m-56 -75 c11 -8 28 -15 38
-15 34 0 21 -34 -24 -63 -46 -29 -62 -23 -54 21 3 20 6 45 6 55 0 21 9 21 34
2z"/>
  <path d="M694 406 c8 -53 10 -51 -76 -61 -86 -10 -74 -29 12 -22 l71 6 -2
-121 -1 -120 -41 6 -41 7 37 -36 c20 -19 42 -35 50 -35 32 0 37 24 37 167 l0
143 43 0 c49 0 79 13 52 24 -9 3 -34 6 -55 6 -38 0 -39 1 -42 38 -2 30 -7 38
-27 40 -23 4 -23 2 -17 -42z"/>
  <path d="M580 262 c0 -15 46 -52 63 -52 26 0 20 35 -8 48 -30 14 -55 15 -55 4z"/>
</g>
<g id="part-1" class="char-part">
  <path d="M265 519 c-16 -5 -48 -8 -70 -5 l-40 5 0 -152 c0 -150 0 -154 -31
-215 -17 -34 -27 -62 -23 -62 17 0 67 71 78 113 12 42 16 46 38 41 19 -5 30 0
53 27 l29 34 0 -75 c1 -94 -6 -106 -48 -92 -43 15 -39 0 10 -39 l42 -33 18 23
c11 13 19 28 19 35 0 6 1 99 2 206 l2 195 -25 2 c-13 1 -37 -3 -54 -8z m35
-70 c0 -43 -2 -50 -17 -45 -10 3 -30 8 -45 12 -24 5 -28 11 -28 39 0 35 8 40
68 44 20 1 22 -3 22 -50z m-64 -64 c10 -8 29 -15 42 -15 19 0 23 -5 20 -27 -2
-20 -14 -34 -43 -50 -22 -13 -43 -23 -47 -23 -5 0 -8 29 -8 65 0 68 4 74 36
50z"/>
</g>
<g id="part-2" class="char-part">
  <path d="M540 581 c0 -6 11 -23 24 -38 23 -27 26 -27 42 -11 17 17 17 18 -1
38 -18 20 -65 28 -65 11z"/>
  <path d="M545 505 c-82 -13 -152 -24 -154 -24 -2 -1 4 -10 14 -21 30 -33 10
-157 -51 -305 -7 -18 -6 -19 11 -5 30 24 73 127 85 203 6 40 13 82 16 94 3 18
14 23 71 32 38 6 108 13 156 17 53 4 85 10 79 16 -18 18 -80 16 -227 -7z"/>
</g>
<g id="part-3" class="char-part">
  <path d="M521 395 c-11 -26 -38 -70 -58 -98 -37 -50 -31 -55 16 -13 l23 21 -5
-85 c-2 -47 -8 -94 -11 -105 -9 -26 19 -67 32 -47 14 21 23 224 11 239 -8 9
-1 25 25 59 39 51 41 67 8 72 -16 3 -25 -7 -41 -43z"/>
</g>
<g id="part-4" class="char-part">
  <path d="M594 241 c31 -32 66 -41 66 -17 0 20 -22 35 -61 42 l-34 7 29 -32z"/>
</g>
</g>
</svg>