<?xml version="1.0" standalone="no"?>
<!DOCTYPE svg PUBLIC "-//W3C//DTD SVG 20010904//EN"
 "http://www.w3.org/TR/2001/REC-SVG-20010904/DTD/svg10.dtd">
<svg version="1.0" xmlns="http://www.w3.org/2000/svg"
 width="96.000000pt" height="68.000000pt" viewBox="0 0 96.000000 68.000000"
 preserveAspectRatio="xMidYMid meet">
<metadata>
Created by potrace 1.16, written by Peter Selinger 2001-2019
Combined from part_0.svg through part_5.svg with named groups
</metadata>
<g transform="translate(0.000000,68.000000) scale(0.100000,-0.100000)" fill="#000000" stroke="none">
<g id="part-0" class="char-part">
  <path d="M300 584 c6 -14 10 -59 10 -100 l0 -74 -35 0 c-40 0 -41 2 -18 37 16
24 16 26 -2 39 -23 17 -55 18 -56 2 -2 -36 -12 -66 -41 -120 -17 -32 -29 -61
-26 -63 10 -10 33 7 63 45 26 34 35 39 73 40 l43 0 -3 -51 -3 -51 -85 -34
c-47 -18 -91 -34 -97 -34 -21 0 -15 -16 11 -30 27 -14 52 -5 129 45 l37 25 0
-37 c0 -21 -4 -52 -8 -68 -10 -36 4 -98 21 -92 25 8 37 53 36 135 -1 45 0 84
2 86 2 1 15 10 29 20 l25 17 -29 -3 c-26 -3 -29 0 -31 27 -3 45 3 53 46 60 50
9 51 28 2 23 -36 -3 -38 -1 -38 27 1 17 4 51 8 76 9 53 -7 79 -48 79 -22 0
-24 -3 -15 -26z"/>
  <path d="M540 577 c0 -23 -66 -163 -96 -204 -20 -28 -5 -30 26 -3 17 15 26 17
36 9 17 -14 1 -44 -57 -109 -22 -24 -37 -46 -34 -48 18 -18 154 119 155 156 0
6 11 12 25 12 73 0 -17 -154 -145 -249 -42 -31 -43 -33 -15 -27 45 11 116 62
155 114 19 26 37 49 40 52 3 3 18 22 34 43 26 36 27 39 12 56 -16 17 -16 19
-1 25 28 10 62 7 74 -8 22 -26 -16 -212 -52 -253 -15 -17 -26 -20 -53 -16
l-35 6 33 -37 c35 -40 57 -40 90 -2 27 30 37 59 60 166 11 52 26 107 34 122
13 24 12 27 -13 44 -24 15 -35 16 -102 5 -154 -23 -191 -28 -195 -24 -2 2 16
37 41 78 37 62 42 77 33 95 -15 28 -50 27 -50 -3z"/>
</g>
<g id="part-1" class="char-part">
  <path d="M200 473 c0 -16 -14 -57 -30 -91 -33 -71 -34 -72 -21 -72 10 0 66 74
97 128 19 33 19 34 0 48 -30 22 -46 17 -46 -13z"/>
</g>
<g id="part-2" class="char-part">
  <path d="M296 593 c4 -10 9 -55 12 -100 l4 -83 -40 0 c-23 0 -44 -4 -47 -10
-4 -6 12 -10 39 -10 l46 0 0 -49 0 -50 -100 -38 c-55 -21 -98 -42 -96 -48 1
-5 14 -14 28 -19 20 -7 37 -2 88 28 34 20 65 35 68 32 3 -3 0 -34 -5 -68 -11
-66 -1 -118 21 -118 23 0 36 50 36 139 0 83 1 88 25 101 14 7 25 17 25 22 0 5
-9 4 -19 -2 -29 -15 -31 -14 -31 34 0 43 0 44 40 50 22 3 40 11 40 16 0 6 -18
10 -40 10 -45 0 -44 -2 -29 90 9 57 8 66 -7 77 -10 7 -29 13 -42 13 -19 0 -23
-4 -16 -17z"/>
</g>
<g id="part-3" class="char-part">
  <path d="M540 578 c0 -26 -43 -122 -84 -186 -27 -43 -24 -53 10 -27 10 8 35
15 55 15 20 0 74 7 118 15 45 9 91 13 103 9 19 -6 20 -11 14 -66 -10 -80 -41
-181 -64 -202 -15 -13 -25 -14 -46 -6 -39 14 -39 14 -8 -30 15 -21 34 -39 43
-40 8 0 30 15 47 33 26 27 37 51 53 123 12 49 27 110 35 136 19 62 18 64 -15
78 -23 9 -49 9 -129 -4 -55 -9 -113 -16 -130 -16 l-31 0 47 76 c49 80 50 105
3 112 -16 3 -21 -2 -21 -20z"/>
</g>
<g id="part-4" class="char-part">
  <path d="M506 346 c-10 -19 -38 -55 -63 -81 -24 -26 -42 -49 -40 -51 10 -10
98 59 130 103 20 28 37 53 37 57 0 3 -10 6 -23 6 -15 0 -28 -11 -41 -34z"/>
</g>
<g id="part-5" class="char-part">
  <path d="M639 385 c-1 -3 -2 -8 -3 -12 -2 -5 -11 -28 -21 -53 -11 -25 -18 -51
-17 -59 2 -7 -1 -10 -7 -6 -6 3 -11 -1 -11 -9 0 -9 -3 -15 -7 -14 -11 4 -53
-39 -46 -46 4 -3 1 -6 -6 -6 -6 0 -17 -5 -24 -10 -7 -6 -27 -22 -46 -35 -19
-14 -30 -25 -24 -25 6 0 16 7 23 15 7 8 18 15 24 15 12 1 86 54 89 65 1 4 17
23 35 42 24 26 31 41 27 57 -4 14 -3 17 3 8 7 -11 15 -6 35 19 23 30 24 34 9
46 -18 13 -31 16 -33 8z"/>
</g>
</g>
</svg>