<?xml version="1.0" standalone="no"?>
<!DOCTYPE svg PUBLIC "-//W3C//DTD SVG 20010904//EN"
 "http://www.w3.org/TR/2001/REC-SVG-20010904/DTD/svg10.dtd">
<svg version="1.0" xmlns="http://www.w3.org/2000/svg"
 width="96.000000pt" height="68.000000pt" viewBox="0 0 96.000000 68.000000"
 preserveAspectRatio="xMidYMid meet">
<metadata>
Created by potrace 1.16, written by Peter Selinger 2001-2019
Combined from part_0.svg through part_5.svg with named groups
</metadata>
<g transform="translate(0.000000,68.000000) scale(0.100000,-0.100000)" fill="#000000" stroke="none">
<g id="part-0" class="char-part">
  <path d="M595 535 c-22 -14 -67 -34 -100 -45 l-60 -21 47 5 c41 5 49 3 59 -15
6 -11 8 -26 5 -34 -4 -12 -75 -24 -158 -27 -21 -1 -38 -5 -38 -9 0 -11 56 -15
125 -8 33 3 64 3 68 -1 4 -4 6 -54 5 -111 l-3 -104 -50 -3 c-81 -6 -90 -21
-12 -22 l67 0 0 -34 c0 -33 -1 -33 -52 -40 -29 -3 -68 -6 -85 -6 -18 0 -33 -4
-33 -9 0 -18 39 -22 97 -12 31 6 114 11 185 11 81 0 128 4 128 10 0 20 -51 30
-126 23 l-75 -6 3 34 3 34 64 5 c55 4 62 7 48 18 -10 8 -35 12 -64 11 l-48 -3
2 103 c1 56 3 104 5 106 2 2 52 7 111 11 59 4 107 10 107 14 0 17 -57 27 -110
19 -94 -13 -100 -12 -100 16 0 14 -7 28 -16 32 -20 8 -4 19 49 33 41 12 47 24
18 40 -24 13 -19 14 -66 -15z"/>
  <path d="M235 470 c-11 -5 -40 -9 -65 -9 l-45 -1 1 -175 c0 -126 4 -179 13
-188 10 -9 14 -8 22 6 15 26 104 24 119 -3 6 -11 17 -20 24 -20 26 0 35 50 37
211 2 147 0 163 -17 176 -20 15 -59 16 -89 3z m49 -46 c3 -9 6 -29 6 -45 0
-27 -3 -29 -39 -29 -22 0 -46 -3 -55 -6 -24 -9 -22 71 2 85 27 16 79 13 86 -5z
m6 -134 c0 -25 -4 -30 -24 -30 -13 0 -38 -3 -55 -6 -29 -6 -31 -5 -31 24 0 33
10 39 73 41 35 1 37 -1 37 -29z m0 -99 l0 -38 -57 -6 c-32 -3 -59 -4 -61 -3
-2 2 0 20 3 39 6 31 11 36 39 40 77 10 76 10 76 -32z"/>
  <path d="M687 363 c-4 -3 -7 -21 -7 -39 0 -29 -4 -33 -37 -42 l-38 -10 32 -7
c29 -7 31 -10 26 -36 -7 -38 1 -37 27 5 18 31 27 35 68 38 56 4 63 22 9 26
-32 3 -37 6 -32 23 9 28 -29 62 -48 42z"/>
  <path d="M415 323 c20 -49 19 -52 -24 -59 -57 -9 -47 -30 13 -26 35 2 46 -1
46 -11 0 -8 7 -20 15 -27 13 -11 15 -7 15 24 0 25 4 36 15 36 8 0 15 5 15 10
0 6 -9 10 -19 10 -14 0 -21 8 -23 28 -2 21 -9 28 -32 30 -24 3 -28 1 -21 -15z"/>
</g>
<g id="part-1" class="char-part">
  <path d="M235 465 c-22 -8 -57 -14 -77 -14 l-37 -1 11 -31 c7 -20 9 -71 5
-135 -6 -98 -5 -104 14 -104 12 0 19 7 19 19 0 23 19 31 76 31 37 0 44 -3 44
-20 0 -20 8 -24 32 -15 10 4 13 35 12 131 0 112 -2 128 -19 140 -22 16 -27 16
-80 -1z m55 -74 l0 -46 -58 -2 -57 -3 3 45 c4 39 7 46 31 51 14 3 31 7 36 8
32 8 45 -7 45 -53z m0 -101 l0 -40 -50 0 c-27 0 -53 0 -57 0 -5 0 -8 15 -8 33
0 30 3 32 40 38 77 12 75 13 75 -31z"/>
</g>
<g id="part-2" class="char-part">
  <path d="M313 192 c-15 -2 -23 -10 -23 -23 0 -14 -7 -19 -29 -19 -16 0 -43 -3
-60 -6 -27 -6 -31 -4 -31 15 0 17 -5 22 -22 19 -28 -4 -36 -44 -13 -73 14 -19
16 -19 26 -2 15 26 100 24 117 -3 27 -45 65 -8 60 58 -3 32 -6 37 -25 34z"/>
</g>
<g id="part-3" class="char-part">
  <path d="M608 544 c-9 -9 -51 -29 -94 -45 l-79 -30 60 6 c60 6 168 34 182 49
9 8 -24 36 -42 36 -6 0 -18 -7 -27 -16z"/>
</g>
<g id="part-4" class="char-part">
  <path d="M541 450 c6 -17 9 -33 7 -35 -2 -2 -48 -7 -101 -11 -53 -4 -97 -10
-97 -14 0 -12 44 -20 77 -15 15 2 49 6 76 9 l47 6 0 -155 c0 -145 1 -155 19
-155 17 0 19 11 23 150 2 82 7 152 10 155 3 3 53 9 112 12 58 3 106 10 106 14
0 16 -52 22 -130 15 l-79 -6 -3 27 c-3 24 -8 28 -40 31 l-37 3 10 -31z"/>
</g>
<g id="part-5" class="char-part">
  <path d="M620 70 c0 -15 38 -21 75 -11 19 5 35 6 35 1 0 -4 11 -7 25 -7 25 0
36 16 13 18 -86 7 -148 7 -148 -1z"/>
  <path d="M540 60 c-13 -8 -13 -10 2 -10 9 0 20 5 23 10 8 13 -5 13 -25 0z"/>
  <path d="M390 50 c0 -12 60 -13 78 -1 8 5 -4 8 -33 9 -25 1 -45 -2 -45 -8z"/>
</g>
</g>
</svg>