<?xml version="1.0" standalone="no"?>
<!DOCTYPE svg PUBLIC "-//W3C//DTD SVG 20010904//EN"
 "http://www.w3.org/TR/2001/REC-SVG-20010904/DTD/svg10.dtd">
<svg version="1.0" xmlns="http://www.w3.org/2000/svg"
 width="96.000000pt" height="68.000000pt" viewBox="0 0 96.000000 68.000000"
 preserveAspectRatio="xMidYMid meet">
<metadata>
Created by potrace 1.16, written by Peter Selinger 2001-2019
Combined from part_0.svg through part_5.svg with named groups
</metadata>
<g transform="translate(0.000000,68.000000) scale(0.100000,-0.100000)" fill="#000000" stroke="none">
<g id="part-0" class="char-part">
  <path d="M235 558 c5 -18 9 -58 9 -88 l1 -55 -50 -9 c-27 -5 -52 -11 -55 -13
-11 -9 28 -23 68 -23 l42 0 0 -58 0 -59 -62 -18 c-77 -22 -84 -28 -63 -49 28
-27 63 -18 180 46 116 63 143 92 55 59 -28 -11 -52 -15 -55 -11 -3 4 -2 29 1
54 5 35 11 46 25 46 10 0 30 5 46 11 27 10 27 11 8 25 -13 9 -30 12 -49 8
l-29 -6 6 75 c6 83 10 77 -57 92 -28 6 -29 6 -21 -27z"/>
  <path d="M530 580 c0 -5 16 -27 35 -49 l35 -39 -32 -6 c-18 -3 -63 -8 -100
-12 -38 -4 -68 -10 -68 -14 0 -12 58 -20 104 -14 l44 7 -9 -44 c-20 -87 -75
-159 -167 -219 -66 -42 -52 -52 20 -13 69 37 123 87 156 143 14 25 27 46 28
48 1 2 29 -2 63 -9 70 -13 71 -17 42 -97 -35 -94 -53 -117 -92 -116 -19 0 -43
4 -53 9 -15 7 -12 -2 13 -38 28 -41 35 -46 59 -41 40 9 78 59 113 149 17 44
35 84 40 90 16 16 10 41 -13 53 -13 6 -52 13 -87 16 -35 3 -66 8 -69 10 -2 2
1 13 7 25 9 16 8 22 -5 29 -11 6 24 11 102 16 65 4 120 9 122 11 3 2 -3 12
-12 21 -14 13 -28 15 -74 10 -31 -4 -66 -9 -79 -12 -20 -5 -23 -2 -23 24 0 24
-7 35 -34 51 -36 22 -66 27 -66 11z"/>
</g>
<g id="part-1" class="char-part">
  <path d="M235 564 c17 -39 28 -111 21 -137 -6 -25 -10 -27 -56 -27 -28 0 -50
-4 -50 -10 0 -5 22 -10 49 -10 56 0 61 -6 61 -81 l0 -48 -70 -22 c-73 -22 -84
-37 -39 -53 20 -7 46 3 142 54 122 64 143 84 61 56 -26 -9 -49 -16 -51 -16 -2
0 -3 25 -3 55 0 50 2 55 25 60 14 3 36 7 50 10 40 8 19 25 -31 25 -43 0 -44 1
-44 33 0 17 4 48 10 67 12 41 5 49 -45 57 -35 6 -38 4 -30 -13z"/>
</g>
<g id="part-2" class="char-part">
  <path d="M530 581 c0 -10 48 -71 64 -83 9 -6 -8 -9 -144 -26 -63 -8 -64 -9
-36 -21 26 -10 81 -9 156 4 8 2 68 6 133 10 64 4 117 11 117 16 0 27 -97 35
-172 13 -14 -4 -18 1 -18 25 0 23 -8 34 -34 50 -35 22 -66 27 -66 12z"/>
</g>
<g id="part-3" class="char-part">
  <path d="M553 453 c-7 -3 -13 -15 -13 -28 0 -68 -90 -190 -178 -241 -65 -38
-37 -42 36 -5 36 18 77 50 104 81 46 53 112 166 103 180 -6 10 -37 18 -52 13z"/>
</g>
<g id="part-4" class="char-part">
  <path d="M590 382 c0 -6 25 -16 56 -22 l56 -12 -5 -35 c-8 -49 -63 -162 -82
-170 -9 -3 -33 -1 -53 5 -20 6 -37 10 -39 8 -7 -7 60 -86 73 -86 36 0 93 75
134 178 40 99 41 104 24 117 -11 8 -31 15 -45 15 -14 0 -47 3 -73 6 -30 4 -46
3 -46 -4z"/>
</g>
</g>
</svg>