<?xml version="1.0" standalone="no"?>
<!DOCTYPE svg PUBLIC "-//W3C//DTD SVG 20010904//EN"
 "http://www.w3.org/TR/2001/REC-SVG-20010904/DTD/svg10.dtd">
<svg version="1.0" xmlns="http://www.w3.org/2000/svg"
 width="96.000000pt" height="68.000000pt" viewBox="0 0 96.000000 68.000000"
 preserveAspectRatio="xMidYMid meet">
<metadata>
Created by potrace 1.16, written by Peter Selinger 2001-2019
Combined from part_0.svg through part_5.svg with named groups
</metadata>
<g transform="translate(0.000000,68.000000) scale(0.100000,-0.100000)" fill="#000000" stroke="none">
<g id="part-0" class="char-part">
  <path d="M610 543 c-63 -7 -133 -17 -155 -22 l-40 -8 28 -11 27 -12 0 -120 0
-120 -39 0 c-48 0 -62 -16 -27 -30 18 -7 43 -5 84 4 31 8 78 17 105 21 l47 6
0 -88 c0 -98 7 -136 24 -130 12 4 12 4 21 130 l7 87 74 0 c56 0 74 3 74 14 0
18 -57 28 -109 20 l-41 -7 0 90 c0 133 5 150 46 158 35 6 38 19 7 27 -10 2
-70 -2 -133 -9z m30 -57 c0 -31 -3 -34 -37 -41 -21 -3 -48 -9 -60 -12 -21 -5
-23 -2 -23 35 0 38 2 41 33 45 85 10 87 10 87 -27z m0 -91 c0 -21 -5 -25 -27
-25 -16 0 -45 -3 -65 -6 -36 -6 -38 -5 -38 19 0 28 13 33 88 36 39 1 42 -1 42
-24z m0 -84 l0 -38 -61 -7 c-34 -3 -64 -4 -68 -2 -4 3 -5 21 -3 40 4 33 6 35
46 39 93 8 86 11 86 -32z"/>
  <path d="M255 530 c-22 -5 -61 -11 -87 -15 -27 -3 -48 -10 -48 -14 0 -12 58
-22 86 -15 13 3 24 5 24 3 1 -2 3 -30 7 -61 l5 -58 -28 0 c-16 0 -40 -3 -52
-7 -33 -8 -8 -23 41 -23 l37 0 0 -59 0 -59 -70 -18 c-67 -17 -69 -18 -53 -36
22 -24 37 -20 170 43 105 51 134 77 48 44 -26 -9 -49 -15 -51 -12 -3 3 -3 30
1 60 7 55 7 55 46 61 49 8 42 30 -7 24 l-34 -4 1 57 2 58 49 6 c30 4 48 11 45
19 -4 14 -78 17 -132 6z"/>
</g>
<g id="part-1" class="char-part">
  <path d="M260 524 c-36 -7 -80 -13 -97 -14 -18 0 -33 -4 -33 -10 0 -13 108
-13 163 -1 23 6 55 13 71 16 23 5 27 8 15 16 -18 11 -38 10 -119 -7z"/>
</g>
<g id="part-2" class="char-part">
  <path d="M248 492 c-13 -3 -15 -13 -11 -63 l6 -59 -29 0 c-16 0 -40 -3 -52 -7
-33 -8 -8 -23 41 -23 l38 0 -3 -57 -3 -58 -73 -21 -74 -21 26 -16 c14 -9 30
-17 36 -17 6 0 65 26 132 57 118 56 144 80 51 49 -25 -9 -48 -14 -51 -12 -2 2
-1 29 3 59 7 55 7 55 46 61 48 8 42 26 -8 26 l-36 0 5 49 c5 52 -4 62 -44 53z"/>
</g>
<g id="part-3" class="char-part">
  <path d="M575 539 c-33 -4 -85 -11 -115 -15 -51 -6 -53 -7 -30 -17 14 -7 28
-16 32 -22 4 -5 8 -58 8 -117 0 -101 1 -108 20 -108 17 0 20 7 20 40 0 37 2
40 28 40 47 0 102 12 102 22 0 7 -24 8 -65 3 -61 -6 -65 -5 -65 14 0 27 29 41
84 41 36 0 46 4 46 16 0 16 -21 16 -97 -3 -21 -5 -23 -2 -23 35 0 39 0 39 46
46 26 3 68 6 94 6 62 0 111 10 104 21 -6 11 -106 10 -189 -2z"/>
</g>
<g id="part-4" class="char-part">
  <path d="M640 493 c1 -16 2 -71 1 -124 l-1 -96 -126 -13 c-69 -8 -127 -17
-130 -22 -12 -20 47 -27 104 -14 31 8 78 17 105 21 53 7 49 13 47 -81 -1 -70
8 -134 20 -134 11 0 17 37 25 140 l6 86 65 -4 c35 -2 72 -1 82 3 15 6 14 8 -8
21 -18 10 -42 12 -84 8 l-59 -6 5 121 4 121 -29 0 c-25 0 -28 -3 -27 -27z"/>
</g>
</g>
</svg>