<?xml version="1.0" standalone="no"?>
<!DOCTYPE svg PUBLIC "-//W3C//DTD SVG 20010904//EN"
 "http://www.w3.org/TR/2001/REC-SVG-20010904/DTD/svg10.dtd">
<svg version="1.0" xmlns="http://www.w3.org/2000/svg"
 width="96.000000pt" height="68.000000pt" viewBox="0 0 96.000000 68.000000"
 preserveAspectRatio="xMidYMid meet">
<metadata>
Created by potrace 1.16, written by Peter Selinger 2001-2019
Combined from part_0.svg through part_5.svg with named groups
</metadata>
<g transform="translate(0.000000,68.000000) scale(0.100000,-0.100000)" fill="#000000" stroke="none">
<g id="part-0" class="char-part">
  <path d="M284 555 c44 -39 86 -47 86 -16 0 28 -38 51 -85 51 l-40 -1 39 -34z"/>
  <path d="M605 580 c-22 -4 -65 -11 -95 -14 l-56 -7 4 -63 c7 -103 -47 -265
-111 -333 -11 -13 -15 -23 -9 -23 17 0 68 59 95 110 14 25 32 76 42 113 15 54
20 65 28 51 5 -9 7 -46 4 -80 -8 -78 2 -81 83 -28 53 34 54 35 20 28 -66 -13
-65 -14 -62 41 2 28 5 51 7 53 2 2 44 6 94 9 90 6 115 17 66 29 -24 6 -166 -9
-198 -22 -11 -4 -19 0 -23 10 -9 23 -1 29 42 31 100 7 164 18 164 27 0 11 -87
6 -167 -8 -25 -5 -33 -3 -33 9 0 28 27 37 129 43 67 5 100 11 98 18 -4 14 -69
17 -122 6z"/>
  <path d="M245 455 c-27 -7 -66 -14 -86 -14 -42 -1 -53 -9 -38 -28 14 -17 41
-17 107 0 28 8 54 12 57 9 7 -7 -87 -116 -141 -163 -45 -38 -63 -59 -51 -59
21 0 86 38 123 72 l44 41 0 -57 c0 -32 -5 -77 -11 -102 -13 -50 -1 -94 25 -94
18 0 25 30 27 105 1 33 4 73 8 89 l6 28 19 -21 c22 -24 42 -27 49 -7 7 18 -20
56 -41 56 -10 1 -1 10 21 21 42 22 46 34 15 50 -18 10 -24 8 -39 -12 -10 -13
-19 -27 -19 -31 0 -11 -30 -10 -30 0 0 5 19 28 42 51 35 34 41 45 32 59 -14
21 -55 24 -119 7z"/>
  <path d="M704 403 l-21 -27 -44 17 c-70 26 -68 21 7 -29 38 -26 76 -52 84 -59
31 -25 50 -26 50 -1 0 16 -11 29 -35 42 -43 23 -44 32 -5 46 33 11 35 32 4 35
-10 1 -28 -10 -40 -24z"/>
  <path d="M663 268 c2 -22 -2 -23 -98 -31 -121 -10 -139 -15 -105 -28 15 -6 48
-6 91 1 124 19 119 22 119 -66 l0 -77 -35 6 c-44 7 -44 -2 1 -32 56 -39 68
-24 74 90 l5 94 63 3 c79 4 81 26 2 30 -29 2 -59 10 -67 18 -23 23 -53 18 -50
-8z"/>
  <path d="M530 173 c1 -16 39 -53 54 -53 27 0 19 39 -10 50 -30 12 -44 13 -44
3z"/>
</g>
<g id="part-1" class="char-part">
  <path d="M290 555 c37 -38 72 -44 78 -13 4 20 -45 48 -84 48 l-28 0 34 -35z"/>
  <path d="M265 454 c-27 -6 -71 -15 -98 -19 -26 -3 -45 -10 -42 -16 9 -13 73
-11 128 6 26 8 47 10 47 5 0 -13 -115 -144 -163 -185 -35 -30 -38 -35 -17 -30
14 4 51 27 83 51 31 24 59 44 62 44 9 0 5 -75 -9 -140 -9 -43 -11 -71 -4 -83
25 -47 46 15 47 141 1 34 5 62 9 62 5 0 19 -11 32 -25 28 -30 40 -32 40 -6 0
11 -12 28 -27 39 l-28 20 37 18 c29 14 35 20 27 31 -17 20 -37 16 -50 -9 -16
-31 -31 -39 -47 -26 -10 9 -4 21 33 58 36 36 43 49 33 57 -24 18 -43 20 -93 7z"/>
</g>
<g id="part-2" class="char-part">
  <path d="M535 571 c-59 -10 -95 -20 -87 -24 15 -10 16 -84 2 -158 -12 -61 -59
-168 -96 -216 -29 -38 -18 -44 19 -9 61 56 108 173 123 307 4 32 12 63 18 68
7 6 54 13 106 16 113 8 131 12 110 25 -20 13 -77 10 -195 -9z"/>
</g>
<g id="part-3" class="char-part">
  <path d="M704 403 l-21 -27 -43 17 c-24 9 -45 15 -47 13 -5 -4 145 -110 169
-119 10 -3 19 0 23 11 7 18 -25 48 -62 58 -33 9 -28 21 13 34 37 12 41 33 8
37 -10 1 -28 -10 -40 -24z"/>
  <path d="M505 346 c0 -41 3 -77 6 -81 4 -3 32 10 64 30 31 20 55 38 53 41 -3
2 -19 -1 -38 -6 -19 -5 -36 -7 -39 -5 -3 3 -4 26 -2 50 2 41 1 45 -21 45 -22
0 -23 -3 -23 -74z"/>
</g>
<g id="part-4" class="char-part">
  <path d="M544 151 c34 -35 56 -40 56 -12 0 23 -4 26 -50 36 l-35 7 29 -31z"/>
</g>
</g>
</svg>