<?xml version="1.0" standalone="no"?>
<!DOCTYPE svg PUBLIC "-//W3C//DTD SVG 20010904//EN"
 "http://www.w3.org/TR/2001/REC-SVG-20010904/DTD/svg10.dtd">
<svg version="1.0" xmlns="http://www.w3.org/2000/svg"
 width="96.000000pt" height="68.000000pt" viewBox="0 0 96.000000 68.000000"
 preserveAspectRatio="xMidYMid meet">
<metadata>
Created by potrace 1.16, written by Peter Selinger 2001-2019
Combined from part_0.svg through part_5.svg with named groups
</metadata>
<g transform="translate(0.000000,68.000000) scale(0.100000,-0.100000)" fill="#000000" stroke="none">
<g id="part-0" class="char-part">
  <path d="M487 555 c-7 -44 -67 -178 -87 -190 -5 -3 -10 -13 -10 -21 0 -10 16
0 42 25 26 26 50 41 66 41 14 0 53 5 88 12 35 6 66 9 70 6 3 -3 -2 -22 -10
-43 -9 -20 -12 -35 -8 -33 63 29 122 61 122 68 0 26 -73 49 -125 38 -100 -20
-136 -25 -140 -18 -2 3 10 34 27 68 26 51 29 64 18 77 -25 30 -47 18 -53 -30z"/>
  <path d="M215 539 c5 -19 9 -59 9 -89 l1 -55 -45 -5 c-59 -7 -58 -24 3 -28
l47 -3 0 -59 0 -59 -37 -10 c-21 -6 -56 -14 -77 -19 l-40 -8 24 -22 c13 -12
34 -22 47 -22 27 0 243 101 243 114 0 8 -26 5 -77 -10 -22 -6 -23 -4 -23 49
l0 55 45 6 c27 5 45 12 45 21 0 16 -38 26 -69 18 l-24 -6 6 71 c3 39 3 74 -1
76 -4 2 -25 7 -46 11 l-39 8 8 -34z"/>
  <path d="M510 325 c0 -49 -24 -110 -55 -138 -46 -41 -66 -57 -73 -57 -12 0
-75 -41 -70 -46 9 -8 104 26 136 50 19 13 47 43 64 65 l30 41 77 -80 78 -80
72 0 c89 0 90 14 5 44 -73 27 -126 58 -180 108 -41 38 -42 39 -31 79 11 44 2
59 -35 59 -15 0 -18 -9 -18 -45z"/>
</g>
<g id="part-1" class="char-part">
  <path d="M218 543 c5 -10 12 -48 14 -84 l6 -67 -50 -6 c-60 -8 -54 -26 8 -26
l45 0 -3 -62 -3 -63 -70 -17 c-38 -9 -72 -17 -74 -17 -2 -1 2 -7 8 -15 27 -33
59 -28 178 29 64 30 114 57 111 60 -3 3 -16 2 -29 -3 -13 -5 -36 -12 -51 -16
l-28 -6 0 59 c0 59 0 59 33 66 56 11 67 16 62 26 -4 5 -26 9 -51 9 -41 0 -44
2 -44 28 0 15 5 43 10 62 12 41 -5 60 -52 60 -24 0 -27 -3 -20 -17z"/>
</g>
<g id="part-2" class="char-part">
  <path d="M490 575 c0 -31 -39 -125 -80 -195 -17 -29 -29 -54 -27 -56 2 -2 23
17 47 41 34 34 52 45 75 45 18 0 57 5 89 11 31 7 59 9 62 7 3 -3 -2 -22 -10
-43 -9 -20 -12 -35 -8 -33 64 29 122 61 122 68 0 16 -53 42 -84 41 -17 0 -65
-7 -106 -15 -41 -8 -76 -13 -78 -11 -2 1 12 32 29 68 27 55 31 68 20 81 -22
26 -51 20 -51 -9z"/>
</g>
<g id="part-3" class="char-part">
  <path d="M510 324 c0 -87 -50 -152 -163 -212 -61 -32 -61 -33 -23 -28 68 9
144 53 182 107 l35 48 77 -80 77 -79 72 0 c39 0 74 4 77 9 3 4 -18 16 -47 25
-67 21 -140 63 -198 115 -46 40 -46 40 -35 81 11 44 2 60 -36 60 -15 0 -18 -9
-18 -46z"/>
</g>
</g>
</svg>