<?xml version="1.0" standalone="no"?>
<!DOCTYPE svg PUBLIC "-//W3C//DTD SVG 20010904//EN"
 "http://www.w3.org/TR/2001/REC-SVG-20010904/DTD/svg10.dtd">
<svg version="1.0" xmlns="http://www.w3.org/2000/svg"
 width="96.000000pt" height="68.000000pt" viewBox="0 0 96.000000 68.000000"
 preserveAspectRatio="xMidYMid meet">
<metadata>
Created by potrace 1.16, written by Peter Selinger 2001-2019
Combined from part_0.svg through part_5.svg with named groups
</metadata>
<g transform="translate(0.000000,68.000000) scale(0.100000,-0.100000)" fill="#000000" stroke="none">
<g id="part-0" class="char-part">
  <path d="M286 556 c-24 -42 -85 -103 -122 -124 -29 -16 -9 -25 29 -13 40 14
167 116 167 135 0 8 -11 21 -24 30 -24 15 -25 15 -50 -28z"/>
  <path d="M545 573 c2 -16 7 -65 10 -110 l5 -83 -39 0 -40 0 -3 58 c-3 54 -4
57 -31 60 -24 3 -26 1 -18 -20 4 -13 11 -42 15 -65 l6 -41 -43 -8 -42 -7 32
-7 c17 -4 57 -3 89 2 71 11 74 8 74 -94 l0 -77 -45 26 c-54 30 -59 37 -43 62
9 15 9 23 -1 35 -19 22 -41 20 -41 -4 0 -30 -31 -91 -64 -127 -46 -51 -25 -49
32 2 50 45 52 46 79 30 15 -8 55 -35 88 -60 87 -66 108 -73 184 -68 71 5 109
18 81 26 -8 3 -44 10 -80 17 -143 25 -156 35 -148 111 3 34 3 34 65 39 34 3
65 8 69 12 13 14 -24 19 -74 10 l-50 -9 -4 42 -3 43 92 4 c84 4 114 10 102 23
-9 8 -83 8 -141 0 l-58 -8 0 46 0 45 60 7 c33 4 60 11 60 15 0 15 -35 20 -70
10 -50 -14 -50 -15 -50 40 0 49 -1 50 -30 50 -27 0 -29 -3 -25 -27z"/>
  <path d="M302 423 c-20 -57 -113 -167 -177 -209 -14 -9 -24 -19 -21 -21 6 -7
80 33 114 62 16 14 33 25 37 25 8 0 0 -127 -10 -170 -8 -32 20 -73 34 -51 15
22 25 222 13 241 -10 17 3 40 53 91 19 20 19 24 -1 43 -22 22 -31 20 -42 -11z"/>
</g>
<g id="part-1" class="char-part">
  <path d="M300 578 c0 -22 -54 -90 -99 -124 -32 -25 -39 -34 -25 -34 25 0 87
41 141 93 40 38 42 42 26 59 -18 20 -43 24 -43 6z"/>
</g>
<g id="part-2" class="char-part">
  <path d="M294 408 c-10 -24 -57 -82 -105 -130 -47 -49 -81 -88 -74 -88 10 0
65 34 124 77 l24 18 -6 -75 c-4 -41 -9 -86 -13 -100 -6 -28 17 -67 33 -57 16
10 28 236 15 249 -8 8 0 25 28 58 45 54 48 65 21 80 -27 14 -26 15 -47 -32z"/>
</g>
<g id="part-3" class="char-part">
  <path d="M543 603 c-9 -3 -9 -12 -2 -29 5 -14 9 -47 9 -73 0 -76 10 -111 31
-111 16 0 19 8 19 44 l0 43 60 7 c33 4 62 11 65 16 9 15 -33 22 -72 11 -55
-16 -55 -15 -51 36 3 42 1 47 -22 53 -14 4 -30 5 -37 3z"/>
</g>
<g id="part-4" class="char-part">
  <path d="M438 435 c9 -36 21 -64 26 -62 6 2 12 28 14 57 3 54 -5 70 -39 70
-15 0 -15 -5 -1 -65z"/>
</g>
<g id="part-5" class="char-part">
  <path d="M434 295 c-3 -8 -3 -19 1 -25 3 -5 1 -10 -4 -10 -6 0 -11 -6 -11 -14
0 -7 -9 -25 -21 -40 -17 -21 -18 -26 -5 -26 9 0 15 6 14 13 -2 6 3 11 10 9 8
-1 11 2 8 7 -3 5 1 11 8 14 8 3 49 -17 91 -46 120 -81 158 -102 163 -89 2 7
11 12 20 12 15 0 15 -2 2 -10 -11 -7 -3 -10 30 -10 49 0 87 15 60 24 -19 6
-171 37 -187 38 -7 1 -13 5 -13 10 0 4 -5 8 -10 8 -6 0 -40 18 -75 41 -35 22
-70 38 -77 34 -7 -4 -5 0 6 9 10 8 15 20 10 27 -4 7 -3 10 3 6 6 -4 13 -1 16
7 3 8 -1 17 -9 20 -22 8 -24 8 -30 -9z m201 -175 c3 -6 -1 -7 -9 -4 -18 7 -21
14 -7 14 6 0 13 -4 16 -10z"/>
  <path d="M355 160 c-3 -6 1 -7 9 -4 18 7 21 14 7 14 -6 0 -13 -4 -16 -10z"/>
</g>
</g>
</svg>