<?xml version="1.0" standalone="no"?>
<!DOCTYPE svg PUBLIC "-//W3C//DTD SVG 20010904//EN"
 "http://www.w3.org/TR/2001/REC-SVG-20010904/DTD/svg10.dtd">
<svg version="1.0" xmlns="http://www.w3.org/2000/svg"
 width="96.000000pt" height="68.000000pt" viewBox="0 0 96.000000 68.000000"
 preserveAspectRatio="xMidYMid meet">
<metadata>
Created by potrace 1.16, written by Peter Selinger 2001-2019
Combined from part_0.svg through part_5.svg with named groups
</metadata>
<g transform="translate(0.000000,68.000000) scale(0.100000,-0.100000)" fill="#000000" stroke="none">
<g id="part-0" class="char-part">
  <path d="M460 613 c-58 -8 -124 -16 -148 -19 -67 -8 -38 -24 44 -24 l74 0 0
-29 c0 -27 -2 -28 -61 -35 -92 -9 -133 -7 -148 7 -11 9 -14 9 -18 0 -2 -7 -16
-29 -29 -49 -47 -69 -13 -100 36 -32 l31 43 90 10 c50 6 93 7 95 3 3 -4 4 -41
2 -83 -2 -75 8 -105 32 -90 7 5 10 37 8 95 -2 49 -1 90 2 93 3 2 56 7 118 10
122 7 130 3 90 -41 l-23 -25 25 7 c14 4 34 8 45 10 37 6 75 18 75 23 0 3 -12
17 -27 30 -26 22 -34 24 -93 18 -212 -20 -209 -20 -207 4 2 29 19 37 91 44 62
6 75 12 60 26 -18 16 -60 17 -164 4z"/>
  <path d="M557 454 c-16 -19 -27 -34 -25 -34 17 0 98 34 98 41 0 7 -33 30 -42
28 -2 0 -16 -16 -31 -35z"/>
  <path d="M300 445 c0 -2 12 -12 26 -21 22 -15 27 -15 34 -3 6 8 4 16 -3 21
-13 8 -57 11 -57 3z"/>
  <path d="M291 371 c-61 -16 -63 -17 -47 -34 24 -23 29 -22 89 18 57 38 52 40
-42 16z"/>
  <path d="M540 370 c31 -26 61 -39 78 -33 32 13 0 37 -63 48 l-40 6 25 -21z"/>
  <path d="M510 289 c-19 -4 -84 -11 -143 -15 -71 -5 -106 -11 -104 -18 4 -13
71 -14 220 -3 l108 8 -3 -28 -3 -28 -220 -11 c-121 -6 -222 -12 -225 -13 -3
-1 2 -5 10 -10 8 -5 107 -6 218 -2 112 3 206 3 209 -2 2 -4 2 -15 -2 -25 -4
-16 -24 -21 -113 -30 -59 -7 -133 -12 -164 -12 -58 0 -76 -13 -37 -25 21 -7
206 0 322 11 50 5 57 8 52 24 -3 10 -3 30 1 44 6 25 9 26 85 26 43 0 79 4 79
10 0 14 -60 27 -103 22 l-39 -4 17 32 c9 17 15 33 13 35 -30 25 -108 32 -178
14z"/>
</g>
<g id="part-1" class="char-part">
  <path d="M529 616 c-2 -2 -59 -10 -126 -17 -67 -6 -120 -16 -117 -20 7 -13
144 -11 244 3 94 12 101 15 80 28 -15 10 -73 14 -81 6z"/>
</g>
<g id="part-2" class="char-part">
  <path d="M659 536 c-2 -2 -96 -12 -208 -21 -168 -15 -207 -16 -224 -5 -15 9
-22 9 -25 2 -2 -6 -14 -27 -28 -47 -26 -39 -30 -60 -13 -70 13 -8 46 21 64 55
13 24 19 26 187 43 95 10 196 20 224 23 61 7 72 -4 43 -40 -23 -29 -14 -33 37
-17 16 5 41 12 57 15 35 8 34 16 -6 44 -29 19 -95 30 -108 18z"/>
</g>
<g id="part-3" class="char-part">
  <path d="M510 289 c-19 -4 -86 -11 -147 -15 -62 -4 -113 -10 -113 -15 0 -18
49 -20 186 -9 80 7 148 10 151 7 6 -7 -7 -110 -16 -125 -4 -7 -73 -16 -169
-24 -89 -6 -162 -15 -162 -19 0 -20 136 -21 348 -3 53 5 61 8 51 20 -14 17 -6
52 27 118 23 46 23 49 7 62 -20 15 -108 17 -163 3z"/>
</g>
<g id="part-4" class="char-part">
  <path d="M630 210 c-41 -4 -166 -11 -278 -15 -186 -7 -235 -14 -198 -28 8 -3
115 -2 238 3 123 5 265 9 316 10 50 0 92 4 92 9 0 11 -56 32 -79 30 -9 -1 -50
-5 -91 -9z"/>
</g>
</g>
</svg>