<?xml version="1.0" standalone="no"?>
<!DOCTYPE svg PUBLIC "-//W3C//DTD SVG 20010904//EN"
 "http://www.w3.org/TR/2001/REC-SVG-20010904/DTD/svg10.dtd">
<svg version="1.0" xmlns="http://www.w3.org/2000/svg"
 width="96.000000pt" height="68.000000pt" viewBox="0 0 96.000000 68.000000"
 preserveAspectRatio="xMidYMid meet">
<metadata>
Created by potrace 1.16, written by Peter Selinger 2001-2019
Combined from part_0.svg through part_5.svg with named groups
</metadata>
<g transform="translate(0.000000,68.000000) scale(0.100000,-0.100000)" fill="#000000" stroke="none">
<g id="part-0" class="char-part">
  <path d="M650 612 c0 -4 16 -16 35 -26 28 -16 38 -17 48 -7 9 10 8 15 -7 27
-21 15 -76 20 -76 6z"/>
  <path d="M557 566 l5 -33 -73 -7 c-59 -6 -70 -10 -55 -18 10 -6 42 -8 72 -5
48 5 54 3 54 -13 0 -16 -11 -20 -69 -26 -53 -5 -68 -10 -64 -20 3 -8 8 -46 12
-86 3 -43 11 -73 19 -76 8 -2 12 8 12 31 0 32 3 35 34 39 44 5 56 0 56 -22 0
-24 10 -50 20 -50 4 0 10 17 14 39 6 37 8 38 52 45 71 9 76 8 72 -16 -2 -18
-8 -22 -28 -20 l-25 4 24 -26 c25 -26 25 -26 44 -7 14 14 22 40 27 93 10 98
-1 109 -92 94 -27 -4 -53 -4 -58 -1 -19 12 10 35 44 35 51 0 106 12 106 22 0
7 -28 8 -76 3 -70 -6 -76 -6 -70 10 8 23 -11 45 -40 45 -20 0 -22 -4 -17 -34z
m159 -107 c10 -17 -16 -29 -68 -29 -37 0 -46 3 -42 14 9 23 97 35 110 15z
m-158 -33 c-1 -2 -22 -6 -46 -10 -38 -6 -43 -4 -40 11 4 23 81 36 86 15 2 -8
2 -15 0 -16z m162 -20 c0 -13 -48 -26 -98 -26 -36 0 -21 24 19 31 59 11 79 10
79 -5z m-160 -21 c0 -11 -12 -15 -45 -15 -33 0 -45 4 -45 15 0 11 12 15 45 15
33 0 45 -4 45 -15z"/>
  <path d="M290 539 c-14 -6 -47 -8 -75 -5 l-50 6 0 -173 0 -172 -32 -67 c-18
-38 -30 -68 -27 -68 31 0 86 76 99 137 5 24 12 33 26 33 11 0 37 12 56 27 l36
28 -6 -55 c-4 -30 -7 -70 -7 -88 0 -33 0 -33 -37 -26 l-38 6 42 -43 43 -44 22
23 c22 22 23 31 29 245 3 122 3 225 0 229 -12 13 -56 17 -81 7z m20 -85 l0
-56 -32 7 c-47 10 -48 12 -48 55 0 40 7 46 58 49 20 1 22 -3 22 -55z m-38
-102 c10 -8 24 -12 33 -9 11 5 15 0 15 -18 0 -19 -7 -26 -37 -34 -58 -16 -63
-14 -63 23 0 66 11 74 52 38z"/>
  <path d="M640 266 c0 -23 -4 -24 -126 -36 -84 -9 -122 -16 -115 -23 6 -6 51
-7 130 -1 l121 9 0 -74 0 -74 -35 6 c-44 7 -44 -1 -1 -35 41 -33 48 -34 70 -9
15 16 16 31 10 105 l-7 86 59 2 c33 0 64 2 69 3 6 2 14 3 19 4 6 0 5 6 -2 13
-6 6 -37 10 -72 9 -48 -1 -60 1 -60 14 0 8 -3 15 -7 16 -5 0 -18 2 -30 5 -19
3 -23 -1 -23 -20z"/>
  <path d="M492 183 c31 -64 48 -80 69 -67 22 13 8 45 -26 60 -39 16 -48 17 -43
7z"/>
</g>
<g id="part-1" class="char-part">
  <path d="M265 529 c-16 -4 -47 -6 -69 -2 -36 6 -39 4 -31 -13 14 -32 18 -188
6 -265 -7 -41 -23 -98 -36 -128 -30 -65 -31 -69 -4 -45 28 26 66 92 74 131 4
21 11 30 20 27 8 -3 31 6 52 20 l38 26 3 -71 c4 -96 1 -103 -46 -96 l-37 6 40
-34 c75 -66 85 -47 85 172 1 92 5 188 10 213 7 37 6 47 -8 58 -18 14 -53 14
-97 1z m53 -83 c2 -56 0 -67 -10 -59 -7 6 -30 14 -50 18 -36 7 -38 9 -38 45 0
39 11 54 45 63 45 11 50 5 53 -67z m-58 -77 c16 -12 36 -19 44 -16 12 5 16 0
16 -24 0 -30 -10 -38 -72 -53 l-28 -6 0 60 c0 33 2 60 5 60 3 0 19 -10 35 -21z"/>
</g>
<g id="part-2" class="char-part">
  <path d="M660 600 c34 -27 60 -34 74 -20 17 17 -20 40 -63 40 l-36 0 25 -20z"/>
</g>
<g id="part-3" class="char-part">
  <path d="M675 490 c-86 -17 -214 -30 -229 -24 -15 6 -16 -2 -10 -87 4 -52 8
-96 10 -98 1 -1 7 0 13 4 6 3 11 39 11 80 0 86 -12 77 131 95 116 14 119 12
117 -66 -1 -61 -3 -64 -27 -64 l-24 0 24 -26 24 -25 22 26 c16 18 23 39 23 69
0 24 3 57 6 73 5 24 2 31 -21 41 -14 7 -27 12 -28 11 -1 -1 -20 -5 -42 -9z"/>
</g>
<g id="part-4" class="char-part">
  <path d="M490 182 c0 -18 57 -75 68 -68 25 15 13 47 -23 62 -40 16 -45 17 -45
6z"/>
</g>
</g>
</svg>