<?xml version="1.0" standalone="no"?>
<!DOCTYPE svg PUBLIC "-//W3C//DTD SVG 20010904//EN"
 "http://www.w3.org/TR/2001/REC-SVG-20010904/DTD/svg10.dtd">
<svg version="1.0" xmlns="http://www.w3.org/2000/svg"
 width="96.000000pt" height="68.000000pt" viewBox="0 0 96.000000 68.000000"
 preserveAspectRatio="xMidYMid meet">
<metadata>
Created by potrace 1.16, written by Peter Selinger 2001-2019
Combined from part_0.svg through part_5.svg with named groups
</metadata>
<g transform="translate(0.000000,68.000000) scale(0.100000,-0.100000)" fill="#000000" stroke="none">
<g id="part-0" class="char-part">
  <path d="M420 588 c-52 -5 -123 -7 -157 -4 -63 5 -76 -1 -48 -24 8 -7 20 -31
27 -54 6 -22 15 -46 19 -51 5 -7 53 -7 151 2 79 8 161 11 183 8 39 -5 41 -3
82 53 41 57 41 57 20 69 -25 14 -138 15 -277 1z m196 -45 c-2 -16 -5 -30 -5
-33 -1 -3 -24 -7 -52 -8 -45 -2 -50 0 -44 15 4 10 10 26 12 36 4 13 16 17 50
17 42 0 44 -1 39 -27z m-130 -5 c-3 -13 -6 -29 -6 -35 0 -8 -14 -13 -35 -13
-21 0 -35 5 -36 13 0 6 -2 22 -5 35 -4 20 0 22 42 22 43 0 46 -2 40 -22z
m-116 -9 c18 -33 5 -49 -38 -49 -35 0 -40 3 -49 35 l-11 35 44 0 c34 0 46 -5
54 -21z"/>
  <path d="M474 433 c-18 -57 -26 -70 -98 -150 -21 -24 -35 -43 -31 -43 9 0 69
42 73 52 22 51 31 -117 11 -197 -8 -31 -8 -49 0 -64 17 -32 30 -25 37 18 l6
39 84 6 c277 20 259 18 238 33 -14 11 -36 12 -91 7 l-73 -6 0 36 c0 34 2 36
33 37 37 1 89 16 67 19 -8 1 -33 3 -55 4 -33 1 -40 5 -40 21 0 16 8 21 47 25
68 8 71 20 5 20 -54 0 -57 1 -57 24 0 19 7 26 30 30 17 3 44 9 60 12 50 10 23
27 -31 20 -44 -6 -49 -5 -49 13 0 12 -11 23 -30 29 -33 12 -48 1 -25 -18 29
-24 16 -37 -41 -44 -31 -4 -58 -5 -60 -3 -2 2 8 15 21 30 30 32 31 43 6 57
-27 14 -31 13 -37 -7z m106 -122 c0 -26 -4 -29 -47 -35 -25 -3 -47 -5 -48 -4
-1 2 -5 17 -8 33 l-5 30 54 2 c53 2 54 2 54 -26z m8 -73 c-3 -20 -10 -23 -55
-26 -46 -3 -53 -1 -53 16 0 28 8 32 62 32 45 0 49 -2 46 -22z m-5 -82 c-3 -36
-1 -35 -56 -42 l-47 -7 0 42 0 42 53 -3 c50 -3 52 -4 50 -32z"/>
  <path d="M256 388 c9 -55 7 -210 -5 -273 -9 -47 1 -95 20 -95 13 0 17 33 24
174 3 72 8 132 10 135 3 2 13 -3 23 -12 25 -23 42 -21 42 5 0 12 -3 19 -6 15
-3 -3 -19 -1 -34 5 -25 8 -28 14 -24 37 5 22 1 29 -21 39 -37 17 -38 17 -29
-30z"/>
  <path d="M162 289 c-25 -47 -28 -79 -8 -79 23 0 46 41 46 82 0 49 -11 48 -38
-3z"/>
</g>
<g id="part-1" class="char-part">
  <path d="M430 584 c-80 -7 -165 -11 -190 -8 -35 4 -41 3 -28 -6 10 -6 25 -36
34 -66 15 -53 16 -54 47 -50 33 5 243 19 308 20 31 1 41 8 73 49 21 27 36 50
34 52 -34 28 -61 29 -278 9z m194 -41 c-4 -16 -9 -31 -13 -35 -5 -5 -241 -28
-296 -28 -16 0 -26 9 -35 30 -7 17 -9 34 -6 38 10 9 123 18 254 20 l102 2 -6
-27z"/>
</g>
<g id="part-2" class="char-part">
  <path d="M486 557 c3 -8 0 -26 -5 -40 -14 -37 8 -36 36 2 16 21 19 31 10 40
-16 16 -48 14 -41 -2z"/>
</g>
<g id="part-3" class="char-part">
  <path d="M258 318 c2 -62 0 -144 -6 -183 -10 -73 -1 -120 21 -113 8 3 14 48
19 152 3 81 9 150 12 153 3 4 15 -2 26 -12 10 -9 26 -15 35 -12 26 11 16 26
-23 37 -35 9 -38 12 -34 40 4 25 0 31 -23 40 -14 5 -27 10 -29 10 -1 0 0 -51
2 -112z"/>
  <path d="M160 290 c-23 -46 -26 -80 -6 -80 23 0 46 41 46 82 0 49 -14 48 -40
-2z"/>
</g>
<g id="part-4" class="char-part">
  <path d="M474 433 c-13 -42 -40 -86 -86 -137 -55 -62 -52 -71 10 -26 40 29 41
29 44 7 4 -26 -7 -158 -16 -202 -6 -28 16 -76 29 -64 14 14 26 126 24 225 -2
108 -2 112 26 149 28 36 28 38 10 51 -25 18 -35 18 -41 -3z"/>
</g>
<g id="part-5" class="char-part">
  <path d="M597 253 c-4 -3 -7 -17 -7 -30 0 -17 -4 -22 -12 -17 -10 6 -10 5 -1
-7 21 -27 20 -79 -2 -79 -8 0 -15 -5 -15 -11 0 -5 4 -8 9 -5 5 3 54 6 110 7
55 0 103 4 105 8 3 4 -36 6 -85 5 -69 -2 -89 0 -82 9 13 18 9 47 -7 58 -12 8
-11 9 5 7 15 -2 19 2 17 17 -6 43 -18 56 -35 38z"/>
  <path d="M660 210 c-13 -9 -13 -10 0 -10 8 0 22 5 30 10 13 9 13 10 0 10 -8 0
-22 -5 -30 -10z"/>
  <path d="M518 193 c7 -3 16 -2 19 1 4 3 -2 6 -13 5 -11 0 -14 -3 -6 -6z"/>
  <path d="M508 93 c6 -2 18 -2 25 0 6 3 1 5 -13 5 -14 0 -19 -2 -12 -5z"/>
</g>
</g>
</svg>