<?xml version="1.0" standalone="no"?>
<!DOCTYPE svg PUBLIC "-//W3C//DTD SVG 20010904//EN"
 "http://www.w3.org/TR/2001/REC-SVG-20010904/DTD/svg10.dtd">
<svg version="1.0" xmlns="http://www.w3.org/2000/svg"
 width="96.000000pt" height="68.000000pt" viewBox="0 0 96.000000 68.000000"
 preserveAspectRatio="xMidYMid meet">
<metadata>
Created by potrace 1.16, written by Peter Selinger 2001-2019
Combined from part_0.svg through part_5.svg with named groups
</metadata>
<g transform="translate(0.000000,68.000000) scale(0.100000,-0.100000)" fill="#000000" stroke="none">
<g id="part-0" class="char-part">
  <path d="M526 536 c-7 -38 -73 -145 -119 -193 -35 -38 -24 -44 19 -11 40 30
80 75 114 126 33 49 18 56 118 -52 29 -31 64 -61 78 -66 27 -11 104 -3 104 10
0 4 -27 18 -61 30 -74 28 -198 125 -198 156 -1 20 -18 34 -41 34 -4 0 -11 -15
-14 -34z"/>
  <path d="M235 520 c-22 -5 -51 -6 -65 -3 l-25 5 2 -142 c2 -147 11 -182 40
-159 7 7 16 9 20 5 3 -3 1 -6 -5 -6 -7 0 -12 -7 -12 -16 0 -19 -36 -71 -70
-101 -14 -12 -20 -23 -14 -23 6 0 40 26 77 57 60 54 64 59 50 76 -15 16 -13
17 33 17 28 0 55 -5 62 -12 24 -24 34 11 42 148 6 120 5 141 -8 152 -17 13
-65 14 -127 2z m73 -56 c3 -29 0 -32 -35 -37 -69 -12 -73 -10 -73 27 0 30 4
35 28 39 61 10 77 4 80 -29z m12 -88 c0 -19 -6 -24 -37 -30 -70 -11 -83 -8
-83 18 0 23 4 25 53 29 28 2 55 4 60 5 4 1 7 -9 7 -22z m0 -86 c0 -22 -5 -30
-17 -30 -10 0 -41 -3 -70 -6 l-52 -7 8 29 c6 26 13 30 57 35 27 3 55 7 62 7 7
1 12 -10 12 -28z"/>
  <path d="M585 355 c-5 -2 -31 -6 -57 -10 -80 -11 -58 -29 25 -21 86 8 109 14
102 27 -6 9 -49 11 -70 4z"/>
  <path d="M689 286 c-2 -2 -56 -9 -119 -15 -63 -7 -128 -14 -144 -18 -50 -9 -4
-24 66 -21 l63 3 3 -54 c5 -81 -3 -104 -33 -97 -32 8 -32 -1 2 -30 l27 -23 23
21 c21 19 23 31 23 110 l0 88 85 0 c51 0 85 4 85 10 0 17 -68 38 -81 26z"/>
  <path d="M310 155 c35 -50 50 -57 50 -21 0 25 -41 66 -67 66 -10 0 -4 -14 17
-45z"/>
  <path d="M427 135 c-27 -30 -44 -55 -40 -55 14 0 96 55 112 74 13 15 13 19 0
27 -21 13 -20 13 -72 -46z"/>
  <path d="M691 140 c56 -66 69 -72 69 -32 0 34 -35 65 -86 78 -29 7 -29 7 17
-46z"/>
</g>
<g id="part-1" class="char-part">
  <path d="M255 518 c-22 -5 -57 -8 -78 -6 -31 3 -36 1 -30 -12 5 -8 7 -61 6
-117 -2 -83 1 -102 13 -107 10 -4 18 1 21 13 8 30 133 45 133 16 0 -8 8 -15
19 -15 16 0 19 11 24 108 6 137 -2 146 -108 120z m63 -59 c3 -33 1 -37 -20
-36 -13 0 -42 -3 -66 -7 l-43 -8 3 38 c3 43 23 54 88 51 33 -2 35 -4 38 -38z
m2 -89 c0 -26 -4 -30 -27 -30 -16 0 -45 -3 -65 -6 -37 -6 -38 -6 -38 24 0 34
10 38 88 41 40 1 42 0 42 -29z"/>
</g>
<g id="part-2" class="char-part">
  <path d="M186 194 c-4 -14 -25 -45 -48 -70 -68 -74 -7 -44 78 39 32 31 36 39
24 47 -27 17 -48 11 -54 -16z"/>
  <path d="M297 173 c40 -66 63 -80 63 -39 0 25 -41 66 -67 66 -11 0 -10 -6 4
-27z"/>
</g>
<g id="part-3" class="char-part">
  <path d="M521 528 c-14 -45 -75 -143 -119 -190 -14 -16 -21 -28 -15 -28 22 0
100 70 137 124 21 31 41 56 45 56 4 0 38 -32 76 -71 39 -39 78 -75 88 -80 19
-11 107 -2 107 11 0 4 -27 18 -60 30 -54 20 -200 127 -190 140 8 11 -22 50
-39 50 -12 0 -22 -13 -30 -42z"/>
</g>
<g id="part-4" class="char-part">
  <path d="M530 346 c-82 -14 -64 -31 23 -22 82 9 108 16 101 27 -7 11 -40 10
-124 -5z"/>
</g>
<g id="part-5" class="char-part">
  <path d="M561 153 c-2 -64 -13 -89 -34 -76 -5 3 -4 -4 2 -16 14 -25 26 -28 17
-3 -6 16 -5 16 7 0 12 -15 14 -15 24 1 16 25 15 161 -1 161 -9 0 -14 -21 -15
-67z"/>
  <path d="M456 164 c-9 -13 -14 -24 -10 -24 3 0 -4 -9 -17 -20 -13 -10 -19 -19
-14 -20 13 0 85 59 85 70 0 20 -30 17 -44 -6z"/>
  <path d="M692 151 c13 -17 28 -28 34 -26 6 2 11 -4 10 -12 0 -9 5 -18 12 -20
7 -3 12 4 12 16 0 12 -15 30 -37 46 -50 33 -60 32 -31 -4z"/>
</g>
</g>
</svg>