<?xml version="1.0" standalone="no"?>
<!DOCTYPE svg PUBLIC "-//W3C//DTD SVG 20010904//EN"
 "http://www.w3.org/TR/2001/REC-SVG-20010904/DTD/svg10.dtd">
<svg version="1.0" xmlns="http://www.w3.org/2000/svg"
 width="96.000000pt" height="68.000000pt" viewBox="0 0 96.000000 68.000000"
 preserveAspectRatio="xMidYMid meet">
<metadata>
Created by potrace 1.16, written by Peter Selinger 2001-2019
Combined from part_0.svg through part_5.svg with named groups
</metadata>
<g transform="translate(0.000000,68.000000) scale(0.100000,-0.100000)" fill="#000000" stroke="none">
<g id="part-0" class="char-part">
  <path d="M685 568 c-2 -7 -5 -24 -7 -38 -2 -20 -10 -26 -33 -28 -43 -5 -56
-22 -17 -22 35 0 37 -2 22 -31 -15 -27 -3 -24 37 11 25 23 44 30 73 30 22 0
40 5 40 10 0 6 -18 10 -40 10 -37 0 -39 2 -29 19 7 10 9 26 6 35 -7 19 -46 22
-52 4z"/>
  <path d="M450 535 c0 -3 7 -17 16 -30 l16 -25 -47 0 c-42 0 -46 -2 -34 -16 9
-12 24 -15 51 -11 31 4 38 2 43 -15 9 -26 31 -17 27 11 -2 15 4 24 20 30 l23
10 -23 0 c-14 1 -26 10 -32 26 -7 18 -17 25 -35 25 -14 0 -25 -2 -25 -5z"/>
  <path d="M306 523 c-4 -4 -37 -8 -74 -8 -54 -1 -66 -4 -63 -15 10 -36 12 -171
3 -236 -10 -69 -42 -157 -62 -169 -13 -8 -13 -25 1 -25 21 0 79 73 94 121 13
39 19 46 36 42 13 -4 30 4 50 23 l29 28 0 -70 c0 -87 -7 -98 -51 -89 l-34 7
40 -41 c45 -47 58 -50 79 -19 13 18 16 54 16 188 0 91 5 181 10 200 9 31 8 37
-11 53 -22 18 -50 22 -63 10z m12 -89 l3 -51 -46 11 c-42 10 -45 13 -45 43 0
36 21 54 60 50 23 -2 25 -7 28 -53z m-18 -94 c38 0 17 -31 -34 -52 l-49 -19 7
38 c3 21 6 44 6 52 0 11 5 10 25 -3 13 -9 34 -16 45 -16z"/>
  <path d="M537 401 c-75 -11 -105 -19 -97 -27 5 -5 18 -34 28 -64 15 -50 20
-54 47 -55 23 0 31 -5 33 -22 3 -20 -2 -22 -83 -28 -61 -5 -83 -11 -76 -18 12
-12 95 -13 129 -3 16 5 22 3 22 -8 0 -26 -53 -78 -105 -102 -56 -27 -40 -32
26 -9 45 16 109 69 109 91 0 29 35 39 159 44 123 5 125 5 96 21 -24 13 -42 15
-85 8 -92 -13 -140 -11 -140 6 0 8 -5 15 -12 15 -6 0 -8 3 -5 7 4 3 28 7 54 8
l48 2 34 63 c32 60 33 64 15 77 -22 16 -57 15 -197 -6z m138 -26 c0 -18 -10
-21 -89 -29 -71 -7 -90 -6 -97 5 -11 19 -7 22 74 35 94 16 112 14 112 -11z
m-11 -68 c-4 -12 -19 -17 -48 -18 -22 0 -55 -2 -72 -4 -25 -4 -33 0 -37 15 -4
17 3 19 62 25 36 4 71 8 76 9 16 5 26 -9 19 -27z"/>
  <path d="M665 123 c106 -99 135 -113 135 -67 0 32 -17 47 -88 80 -78 36 -95
31 -47 -13z"/>
</g>
<g id="part-1" class="char-part">
  <path d="M300 518 c-14 -5 -47 -8 -75 -6 l-50 3 3 -127 c4 -140 -10 -213 -54
-280 -29 -44 -19 -50 19 -11 23 25 50 77 71 137 5 15 9 16 21 6 11 -9 21 -6
50 16 l36 27 -3 -84 c-3 -90 -8 -96 -63 -74 -13 5 -6 -6 20 -34 78 -82 92 -51
96 216 l4 203 -25 9 c-15 5 -35 4 -50 -1z m20 -83 c0 -60 1 -59 -52 -44 -35 9
-38 13 -38 48 0 47 4 51 52 51 l38 0 0 -55z m-69 -71 c10 -9 29 -17 43 -18 19
-1 26 -7 26 -22 0 -16 -11 -26 -43 -38 -23 -9 -46 -16 -50 -16 -4 0 -7 25 -7
55 0 59 4 64 31 39z"/>
</g>
<g id="part-2" class="char-part">
  <path d="M682 549 c-3 -44 -8 -49 -48 -49 -19 0 -34 -4 -34 -10 0 -5 14 -10
30 -10 33 0 35 -3 20 -31 -15 -27 -3 -24 37 11 25 23 43 30 74 30 24 0 38 4
34 10 -3 6 -22 10 -42 10 -35 0 -36 0 -18 20 15 16 15 22 5 35 -7 8 -22 15
-34 15 -17 0 -22 -7 -24 -31z"/>
  <path d="M450 532 c0 -4 7 -18 16 -30 15 -22 15 -22 -32 -22 -41 0 -45 -2 -33
-16 10 -12 23 -14 50 -10 32 5 39 3 44 -15 8 -26 31 -19 27 8 -2 15 5 24 25
31 l28 10 -28 1 c-20 1 -30 8 -37 26 -7 18 -17 25 -35 25 -14 0 -25 -3 -25 -8z"/>
</g>
<g id="part-3" class="char-part">
  <path d="M537 401 c-75 -11 -105 -19 -97 -27 5 -5 18 -35 28 -65 14 -43 22
-54 37 -52 11 1 56 4 100 6 l80 4 34 63 c32 60 33 64 15 77 -22 16 -57 15
-197 -6z m137 -18 c4 -9 3 -20 -1 -24 -14 -12 -183 -22 -183 -10 0 6 -1 14 -2
19 -3 6 107 28 158 31 12 0 25 -7 28 -16z m-11 -73 c-4 -14 -14 -20 -33 -20
-15 0 -47 -3 -72 -6 -40 -6 -46 -4 -50 14 -6 22 7 26 119 30 37 2 41 0 36 -18z"/>
</g>
<g id="part-4" class="char-part">
  <path d="M550 237 c0 -22 -5 -25 -52 -31 -29 -3 -69 -6 -88 -7 l-35 -1 30 -13
c27 -13 68 -12 118 2 10 2 17 -1 17 -10 0 -25 -40 -67 -94 -98 -41 -25 -45
-29 -21 -24 52 11 95 36 125 74 17 19 30 41 30 47 0 19 18 21 145 23 66 1 121
4 124 7 14 14 -24 19 -130 17 -100 -3 -119 -1 -119 12 0 8 -4 15 -9 15 -5 0
-16 3 -25 6 -12 5 -16 0 -16 -19z"/>
  <path d="M650 135 c35 -37 125 -105 139 -105 8 0 11 12 9 32 -3 28 -10 36 -58
59 -30 15 -68 30 -85 34 l-30 7 25 -27z"/>
</g>
</g>
</svg>