<?xml version="1.0" standalone="no"?>
<!DOCTYPE svg PUBLIC "-//W3C//DTD SVG 20010904//EN"
 "http://www.w3.org/TR/2001/REC-SVG-20010904/DTD/svg10.dtd">
<svg version="1.0" xmlns="http://www.w3.org/2000/svg"
 width="96.000000pt" height="68.000000pt" viewBox="0 0 96.000000 68.000000"
 preserveAspectRatio="xMidYMid meet">
<metadata>
Created by potrace 1.16, written by Peter Selinger 2001-2019
Combined from part_0.svg through part_5.svg with named groups
</metadata>
<g transform="translate(0.000000,68.000000) scale(0.100000,-0.100000)" fill="#000000" stroke="none">
<g id="part-0" class="char-part">
  <path d="M475 560 c-33 -4 -93 -8 -133 -9 -72 -1 -73 -2 -65 -23 9 -27 10
-126 0 -151 -5 -14 -20 -17 -91 -17 -86 0 -120 -13 -69 -27 36 -9 39 -9 96 -2
39 4 47 3 42 -9 -3 -7 -5 -17 -5 -22 0 -5 -16 -29 -35 -55 -40 -52 -41 -92 -2
-81 83 21 128 29 134 22 5 -4 -12 -26 -37 -47 -32 -28 -40 -39 -27 -39 27 0
68 24 101 59 28 29 34 31 108 31 85 0 89 -4 59 -55 -19 -31 -32 -34 -86 -20
l-30 8 40 -42 c21 -22 47 -41 56 -41 24 0 78 68 85 108 5 28 9 32 28 26 88
-28 126 -30 126 -4 0 23 -65 60 -105 60 -22 0 -25 4 -25 34 0 18 3 48 6 65 l7
31 93 0 c58 0 94 4 94 10 0 19 -54 32 -120 28 -76 -4 -80 3 -57 82 20 68 8 83
-69 86 -33 1 -86 -2 -119 -6z m113 -102 l-3 -72 -52 -3 c-60 -4 -59 -6 -43 77
8 41 7 56 -2 62 -8 4 12 8 45 8 l58 0 -3 -72z m-148 -7 c0 -46 -4 -70 -12 -73
-25 -8 -98 -9 -98 -1 0 7 10 55 25 121 5 18 12 22 45 22 l40 0 0 -69z m150
-118 c0 -16 -3 -45 -6 -65 l-7 -38 -68 0 c-38 0 -69 3 -69 6 0 3 7 30 16 59
14 51 17 54 52 58 84 9 82 9 82 -20z m-170 -5 c0 -12 -7 -38 -16 -59 -16 -35
-20 -37 -73 -42 -31 -2 -58 -3 -60 -1 -6 6 49 112 61 117 7 3 30 6 51 6 32 1
37 -2 37 -21z"/>
</g>
<g id="part-1" class="char-part">
  <path d="M465 554 c-60 -7 -126 -11 -146 -8 l-36 5 5 -69 c6 -84 -24 -185 -69
-237 -29 -32 -38 -68 -20 -79 5 -3 24 0 42 8 78 31 334 26 457 -9 60 -18 77
-13 60 15 -13 21 -43 35 -97 45 -32 7 -33 9 -28 44 4 20 9 72 12 116 4 44 11
95 17 114 20 65 -23 77 -197 55z m129 -135 c-1 -63 -4 -131 -8 -150 l-6 -36
-158 -6 c-86 -3 -158 -5 -159 -3 -1 1 11 29 27 63 16 33 37 99 47 146 l17 86
71 5 c38 4 86 8 105 10 68 6 65 12 64 -115z"/>
</g>
<g id="part-2" class="char-part">
  <path d="M447 523 c-4 -3 -7 -37 -7 -73 l0 -67 -31 -7 c-18 -3 -97 -9 -176
-13 -92 -4 -142 -10 -140 -17 6 -19 62 -26 132 -16 39 5 101 12 139 16 l68 7
-7 -24 c-18 -62 -61 -132 -113 -184 -53 -53 -55 -56 -27 -49 70 16 131 85 166
185 l23 67 51 6 c27 3 112 6 188 6 100 0 138 3 135 12 -4 10 -83 39 -90 33 -5
-6 -270 -26 -275 -21 -2 2 1 32 7 66 9 51 9 65 -2 71 -16 10 -32 11 -41 2z"/>
</g>
</g>
</svg>