<?xml version="1.0" standalone="no"?>
<!DOCTYPE svg PUBLIC "-//W3C//DTD SVG 20010904//EN"
 "http://www.w3.org/TR/2001/REC-SVG-20010904/DTD/svg10.dtd">
<svg version="1.0" xmlns="http://www.w3.org/2000/svg"
 width="96.000000pt" height="68.000000pt" viewBox="0 0 96.000000 68.000000"
 preserveAspectRatio="xMidYMid meet">
<metadata>
Created by potrace 1.16, written by Peter Selinger 2001-2019
Combined from part_0.svg through part_5.svg with named groups
</metadata>
<g transform="translate(0.000000,68.000000) scale(0.100000,-0.100000)" fill="#000000" stroke="none">
<g id="part-0" class="char-part">
  <path d="M537 583 c-4 -3 -3 -11 3 -18 12 -14 33 -152 27 -169 -3 -8 -23 -17
-44 -22 l-38 -8 50 -6 49 -5 21 -75 c12 -42 25 -81 29 -88 8 -13 -27 -49 -76
-79 -16 -10 -28 -21 -28 -25 0 -10 77 28 101 49 18 15 31 7 61 -36 22 -31 89
-71 119 -71 26 0 27 2 22 37 -3 21 -8 52 -13 68 l-7 30 -10 -35 c-13 -51 -42
-51 -82 -2 -31 40 -39 66 -22 76 5 3 21 27 36 53 27 44 27 47 9 60 -27 20 -44
16 -44 -12 0 -27 -19 -75 -31 -75 -8 0 -36 81 -41 120 -3 22 2 26 46 35 68 15
76 39 10 30 -27 -4 -53 -8 -59 -9 -6 0 -11 33 -13 79 -2 61 -7 83 -19 93 -18
13 -46 16 -56 5z"/>
  <path d="M387 564 c-76 -20 -77 -23 -4 -17 l67 6 0 -77 c0 -76 0 -76 -27 -76
l-27 0 22 -20 c43 -40 62 -16 73 92 11 113 2 121 -104 92z"/>
  <path d="M225 560 c-16 -4 -43 -11 -58 -14 -48 -11 -20 -28 34 -21 l49 7 0
-61 c0 -58 -1 -61 -25 -61 -17 0 -23 4 -19 14 3 8 11 17 17 19 7 2 3 3 -9 1
-38 -6 -95 -35 -89 -44 8 -14 38 -13 52 1 9 9 20 5 43 -14 26 -23 34 -25 51
-14 22 13 25 24 34 114 5 55 4 63 -14 72 -22 12 -24 12 -66 1z"/>
  <path d="M660 521 c0 -3 13 -18 29 -34 36 -33 64 -36 59 -6 -2 16 -15 25 -45
34 -24 7 -43 10 -43 6z"/>
  <path d="M334 509 c-8 -14 15 -39 37 -39 11 0 19 3 19 8 -1 23 -45 49 -56 31z"/>
  <path d="M152 490 c7 -23 36 -36 50 -22 14 14 11 18 -26 28 -21 5 -28 4 -24
-6z"/>
  <path d="M363 442 c-45 -17 -53 -29 -27 -39 10 -4 27 6 47 26 17 17 29 31 27
30 -3 0 -24 -8 -47 -17z"/>
  <path d="M306 363 c-8 -9 12 -40 30 -47 24 -9 36 2 24 23 -9 19 -44 33 -54 24z"/>
  <path d="M202 316 c-11 -24 -37 -62 -57 -85 -39 -43 -35 -55 8 -21 14 11 28
20 33 20 4 0 4 -42 1 -92 -7 -96 2 -139 23 -108 5 8 10 20 10 26 0 6 10 12 23
13 145 6 251 18 247 26 -3 6 -32 10 -65 11 -53 1 -60 4 -63 23 -2 12 2 22 10
22 7 1 20 3 28 4 8 1 25 3 38 4 42 2 12 21 -34 21 -31 0 -44 4 -44 14 0 17 22
26 66 26 21 0 33 4 29 10 -3 6 -26 10 -51 10 -38 0 -45 3 -42 17 2 10 12 19
23 21 11 2 38 8 60 14 32 8 36 12 22 19 -14 9 -66 2 -199 -26 -20 -3 -24 15
-7 32 7 7 2 15 -15 26 -25 17 -25 17 -44 -27z m118 -65 c0 -33 -83 -43 -99
-12 -14 26 -5 31 51 31 40 0 48 -3 48 -19z m0 -61 c0 -21 -32 -34 -71 -28 -37
5 -29 32 11 39 57 10 60 10 60 -11z m10 -65 c0 -18 -39 -35 -81 -35 -21 0 -29
5 -29 18 0 28 9 32 62 32 36 0 48 -4 48 -15z"/>
</g>
<g id="part-1" class="char-part">
  <path d="M191 548 c-24 -5 -40 -13 -35 -18 5 -5 25 -5 44 -1 50 11 60 5 60
-37 0 -59 -10 -82 -33 -82 -21 0 -21 0 1 -22 36 -36 55 -15 69 78 16 100 7
107 -106 82z"/>
</g>
<g id="part-2" class="char-part">
  <path d="M320 191 c0 -19 -25 -31 -67 -31 -13 0 -23 -4 -23 -10 0 -5 23 -10
50 -10 28 0 50 -3 50 -7 -1 -22 -22 -36 -64 -40 -25 -3 -46 -10 -46 -15 0 -9
269 0 280 9 12 11 -31 23 -82 23 -50 0 -58 3 -58 19 0 15 10 20 50 25 65 9 65
26 0 26 -38 0 -50 4 -50 15 0 8 -9 15 -20 15 -13 0 -20 -7 -20 -19z"/>
</g>
<g id="part-3" class="char-part">
  <path d="M543 563 c19 -90 28 -155 24 -167 -3 -7 -23 -17 -44 -22 l-38 -8 49
-6 48 -5 23 -75 c12 -41 24 -81 26 -89 2 -8 -20 -34 -53 -60 -31 -25 -55 -47
-53 -49 5 -5 87 38 108 57 17 15 20 14 34 -4 33 -44 39 -51 71 -78 40 -33 107
-39 99 -9 -3 9 -9 40 -12 67 l-8 50 -11 -32 c-21 -59 -31 -61 -76 -13 -22 24
-40 49 -40 57 0 7 16 36 35 63 39 55 43 75 19 84 -31 12 -44 6 -44 -19 0 -28
-19 -75 -31 -75 -11 0 -51 129 -44 140 3 5 26 12 50 16 43 6 64 19 52 31 -3 3
-27 0 -54 -5 -60 -13 -63 -9 -63 85 0 61 -3 74 -19 83 -37 19 -54 13 -48 -17z"/>
  <path d="M660 522 c0 -3 12 -19 27 -34 33 -35 66 -38 61 -6 -2 16 -14 25 -45
34 -24 7 -43 10 -43 6z"/>
</g>
</g>
</svg>