<?xml version="1.0" standalone="no"?>
<!DOCTYPE svg PUBLIC "-//W3C//DTD SVG 20010904//EN"
 "http://www.w3.org/TR/2001/REC-SVG-20010904/DTD/svg10.dtd">
<svg version="1.0" xmlns="http://www.w3.org/2000/svg"
 width="96.000000pt" height="68.000000pt" viewBox="0 0 96.000000 68.000000"
 preserveAspectRatio="xMidYMid meet">
<metadata>
Created by potrace 1.16, written by Peter Selinger 2001-2019
Combined from part_0.svg through part_5.svg with named groups
</metadata>
<g transform="translate(0.000000,68.000000) scale(0.100000,-0.100000)" fill="#000000" stroke="none">
<g id="part-0" class="char-part">
  <path d="M285 563 c-4 -21 -14 -51 -22 -68 -18 -36 -112 -154 -151 -190 -43
-40 0 -32 59 10 27 19 50 35 52 35 8 0 -6 -226 -15 -237 -11 -14 -1 -53 14
-53 11 0 130 71 139 83 3 4 18 3 32 -4 15 -7 30 -10 33 -6 12 11 -7 44 -32 55
-37 17 -45 15 -38 -12 5 -20 0 -25 -35 -40 -67 -26 -72 -24 -69 37 l3 52 61 1
c34 1 66 4 72 7 5 4 15 28 22 54 6 26 17 54 23 61 9 11 7 17 -8 29 -19 14 -59
14 -138 0 -35 -6 -43 7 -19 31 12 12 41 22 83 27 55 6 61 8 39 17 -14 5 -40 7
-57 3 -39 -7 -40 -3 -12 36 l20 29 43 -25 c49 -29 71 -31 80 -10 7 19 -27 41
-76 50 -21 4 -37 10 -36 14 2 19 -5 29 -27 39 -34 16 -32 17 -40 -25z m95
-213 c0 -23 -6 -26 -73 -35 -47 -6 -48 -6 -45 17 3 23 29 34 91 37 21 1 27 -4
27 -19z m-7 -74 c-5 -22 -11 -25 -60 -28 -30 -1 -56 -1 -58 2 -1 3 1 14 5 26
7 17 18 21 63 23 53 2 54 1 50 -23z"/>
  <path d="M663 569 c-25 -28 -31 -30 -78 -25 -44 5 -47 4 -22 -6 38 -16 34 -32
-13 -53 -59 -26 -41 -30 25 -6 l57 22 55 -21 c64 -24 63 -24 63 -5 0 8 -12 22
-27 32 -16 9 -30 18 -32 20 -3 2 5 10 17 19 11 8 19 21 16 29 -11 27 -34 25
-61 -6z"/>
  <path d="M590 446 c0 -31 -8 -36 -75 -43 -30 -3 -55 -10 -55 -14 0 -9 36 -13
73 -10 9 1 17 -3 17 -9 0 -16 -36 -67 -79 -112 -42 -45 -26 -51 22 -8 19 17
37 30 41 30 12 0 6 -96 -9 -145 -17 -54 -13 -95 9 -95 15 0 36 50 36 86 0 30
6 33 79 40 l61 7 0 -45 c0 -54 -4 -58 -41 -48 -39 12 -37 -2 7 -35 64 -49 84
-14 83 145 0 52 3 103 6 112 11 29 -36 41 -105 27 -84 -16 -95 -11 -65 28 25
31 27 31 135 38 61 4 110 12 110 17 0 18 -50 27 -101 18 -65 -12 -102 -13 -94
-1 7 12 -22 41 -41 41 -8 0 -14 -10 -14 -24z m118 -163 c3 -17 -2 -23 -16 -23
-11 0 -40 -3 -66 -6 -44 -7 -46 -6 -46 19 0 21 5 26 33 30 67 9 92 3 95 -20z
m2 -62 c0 -15 -12 -21 -60 -30 -67 -13 -80 -10 -73 18 4 14 16 21 42 24 84 9
91 8 91 -12z"/>
</g>
<g id="part-1" class="char-part">
  <path d="M285 551 c-8 -49 -44 -106 -126 -201 -64 -75 -58 -85 17 -27 35 27
116 125 154 187 8 13 15 12 49 -7 22 -13 49 -23 61 -23 18 0 19 3 10 20 -6 11
-23 22 -38 26 -54 12 -62 16 -62 29 0 14 -29 35 -48 35 -6 0 -13 -18 -17 -39z"/>
</g>
<g id="part-2" class="char-part">
  <path d="M355 179 c40 -48 75 -65 75 -36 0 20 -30 44 -65 53 l-30 7 20 -24z"/>
</g>
<g id="part-3" class="char-part">
  <path d="M660 570 c-23 -29 -28 -31 -75 -25 -50 6 -50 5 -22 -10 32 -19 29
-28 -21 -55 -48 -25 -26 -25 40 0 l53 20 52 -22 c29 -12 56 -19 59 -15 12 12
-6 38 -37 51 l-30 13 26 17 c26 17 26 18 9 37 -22 25 -25 24 -54 -11z"/>
</g>
<g id="part-4" class="char-part">
  <path d="M595 455 c-3 -8 -7 -21 -9 -29 -5 -14 -49 -26 -103 -26 -20 0 -32 -4
-28 -10 3 -5 29 -10 56 -10 l50 0 -18 -31 c-10 -18 -40 -57 -68 -87 -44 -48
-46 -53 -20 -40 30 16 133 118 151 150 8 14 31 19 122 24 61 4 112 11 112 16
0 19 -50 27 -107 18 -73 -12 -96 -12 -88 -1 6 10 -21 41 -36 41 -5 0 -12 -7
-14 -15z"/>
</g>
<g id="part-5" class="char-part">
  <path d="M685 330 c-19 -8 -19 -9 2 -9 12 -1 25 -6 29 -12 4 -8 9 -7 15 2 7
11 9 10 9 -3 0 -10 5 -18 10 -18 16 0 7 24 -15 37 -23 14 -24 14 -50 3z"/>
  <path d="M558 293 c-10 -12 -14 -39 -14 -80 1 -35 -1 -63 -5 -63 -3 0 -10 -16
-16 -35 -6 -19 -7 -35 -3 -35 5 0 10 -8 13 -17 3 -13 8 -8 20 19 20 44 21 52
6 42 -7 -4 -6 2 2 17 7 13 12 51 12 84 -1 33 4 66 9 73 16 19 -7 14 -24 -5z"/>
  <path d="M714 241 c2 -32 -1 -51 -8 -51 -7 0 -7 -3 -1 -8 12 -8 13 -91 2 -109
-6 -9 -15 -9 -35 -3 -26 10 -26 9 7 -21 31 -29 35 -30 50 -15 24 25 24 249 -1
254 -14 3 -16 -5 -14 -47z"/>
  <path d="M665 250 c-3 -6 1 -7 9 -4 18 7 21 14 7 14 -6 0 -13 -4 -16 -10z"/>
  <path d="M600 240 c-11 -8 -7 -9 15 -4 37 8 45 14 19 14 -10 0 -26 -5 -34 -10z"/>
  <path d="M608 173 c7 -3 16 -2 19 1 4 3 -2 6 -13 5 -11 0 -14 -3 -6 -6z"/>
</g>
</g>
</svg>