<?xml version="1.0" standalone="no"?>
<!DOCTYPE svg PUBLIC "-//W3C//DTD SVG 20010904//EN"
 "http://www.w3.org/TR/2001/REC-SVG-20010904/DTD/svg10.dtd">
<svg version="1.0" xmlns="http://www.w3.org/2000/svg"
 width="96.000000pt" height="68.000000pt" viewBox="0 0 96.000000 68.000000"
 preserveAspectRatio="xMidYMid meet">
<metadata>
Created by potrace 1.16, written by Peter Selinger 2001-2019
Combined from part_0.svg through part_5.svg with named groups
</metadata>
<g transform="translate(0.000000,68.000000) scale(0.100000,-0.100000)" fill="#000000" stroke="none">
<g id="part-0" class="char-part">
  <path d="M480 550 c0 -48 -1 -50 -27 -50 -48 0 -103 -12 -97 -21 3 -5 27 -9
55 -9 27 0 49 -5 49 -10 0 -9 -20 -45 -37 -69 -2 -2 -11 3 -20 12 -20 17 -73
33 -73 21 0 -4 14 -20 31 -35 l31 -27 -24 -15 c-12 -8 -36 -22 -53 -31 -34
-17 -20 -21 21 -6 36 14 51 -1 60 -55 7 -47 25 -71 47 -62 29 11 41 -11 42
-70 0 -57 0 -58 -27 -55 -36 4 -35 0 8 -33 50 -38 62 -23 66 83 l3 84 33 -6
c28 -4 34 -1 42 20 6 14 19 44 29 67 17 36 18 44 6 56 -16 16 -41 17 -154 1
-46 -6 -85 -9 -87 -7 -2 2 15 24 38 48 24 24 48 53 53 63 11 19 12 19 40 0 17
-10 57 -40 90 -65 33 -26 71 -50 83 -54 28 -8 112 2 112 14 0 5 -30 16 -67 25
-36 9 -75 23 -86 31 -19 13 -18 15 17 31 20 10 36 23 36 30 0 19 -41 29 -51
13 -31 -55 -33 -55 -82 -29 -25 14 -46 30 -46 35 -1 6 22 14 51 18 83 14 86
31 4 24 l-68 -6 6 34 c5 27 3 36 -13 44 -35 19 -41 13 -41 -39z m110 -244 c0
-19 -5 -23 -27 -23 -16 1 -54 -3 -85 -7 -49 -7 -59 -6 -64 8 -9 24 1 30 64 37
109 12 112 11 112 -15z m-10 -65 c0 -16 -9 -20 -52 -23 -70 -4 -98 1 -98 17 0
14 30 20 108 23 35 2 42 -1 42 -17z"/>
  <path d="M185 530 c-9 -15 48 -70 73 -70 19 0 23 4 20 27 -2 22 -10 29 -45 39
-24 7 -45 9 -48 4z"/>
  <path d="M113 378 c-8 -14 52 -68 76 -68 24 0 36 30 19 46 -20 19 -87 34 -95
22z"/>
  <path d="M200 213 c-36 -38 -74 -73 -84 -79 -20 -10 -20 -11 0 -44 10 -18 24
-35 30 -37 12 -4 127 203 122 218 -2 5 -32 -21 -68 -58z"/>
  <path d="M350 148 c-5 -13 -22 -39 -37 -58 l-28 -34 31 19 c79 51 99 77 68 89
-23 9 -24 8 -34 -16z"/>
  <path d="M636 128 c62 -69 77 -79 93 -63 12 12 13 18 2 38 -14 27 -69 57 -103
57 -21 0 -20 -2 8 -32z"/>
</g>
<g id="part-1" class="char-part">
  <path d="M210 495 c38 -39 70 -46 70 -15 0 22 -46 50 -81 50 -22 0 -21 -2 11
-35z"/>
  <path d="M120 372 c0 -14 58 -62 76 -62 18 0 18 34 1 49 -20 16 -77 26 -77 13z"/>
  <path d="M220 224 c-19 -24 -52 -56 -72 -69 -21 -14 -38 -33 -38 -43 1 -21 23
-52 38 -52 6 0 35 47 65 105 30 58 51 105 48 105 -3 -1 -22 -21 -41 -46z"/>
</g>
<g id="part-2" class="char-part">
  <path d="M474 553 l1 -48 -63 -10 c-72 -11 -72 -25 0 -25 26 0 48 -2 48 -5 0
-4 -6 -18 -14 -33 -19 -36 -62 -75 -116 -106 -56 -32 -32 -34 35 -2 55 25 120
84 130 116 3 11 10 20 14 20 4 0 49 -31 100 -70 97 -74 116 -80 196 -60 34 8
34 8 -70 41 -38 12 -98 40 -133 61 -34 21 -68 38 -75 39 -24 1 29 17 81 24 64
8 72 26 12 27 -3 1 -24 -2 -48 -6 l-43 -6 7 36 c7 39 -4 54 -42 54 -18 0 -20
-6 -20 -47z"/>
</g>
<g id="part-3" class="char-part">
  <path d="M657 449 c-10 -18 -16 -34 -13 -36 2 -2 23 5 47 18 40 20 42 22 24
35 -28 20 -38 17 -58 -17z"/>
  <path d="M348 400 c32 -30 52 -35 59 -14 6 18 -13 32 -52 39 l-40 6 33 -31z"/>
</g>
<g id="part-4" class="char-part">
  <path d="M488 124 l4 -66 -31 7 c-17 4 -31 5 -31 2 0 -3 16 -17 36 -32 49 -37
61 -23 66 75 3 74 3 75 -23 78 -25 3 -25 3 -21 -64z"/>
  <path d="M331 120 c-18 -27 -37 -50 -43 -50 -6 0 -9 -3 -6 -6 8 -8 38 9 86 49
30 26 38 37 29 46 -20 20 -33 12 -66 -39z"/>
  <path d="M655 110 c51 -52 85 -64 85 -31 0 25 -25 50 -67 67 -64 27 -70 17
-18 -36z"/>
</g>
</g>
</svg>