<?xml version="1.0" standalone="no"?>
<!DOCTYPE svg PUBLIC "-//W3C//DTD SVG 20010904//EN"
 "http://www.w3.org/TR/2001/REC-SVG-20010904/DTD/svg10.dtd">
<svg version="1.0" xmlns="http://www.w3.org/2000/svg"
 width="96.000000pt" height="68.000000pt" viewBox="0 0 96.000000 68.000000"
 preserveAspectRatio="xMidYMid meet">
<metadata>
Created by potrace 1.16, written by Peter Selinger 2001-2019
Combined from part_0.svg through part_5.svg with named groups
</metadata>
<g transform="translate(0.000000,68.000000) scale(0.100000,-0.100000)" fill="#000000" stroke="none">
<g id="part-0" class="char-part">
  <path d="M451 573 c6 -15 15 -33 21 -40 6 -8 9 -15 7 -17 -2 -1 -51 -8 -108
-14 -56 -6 -106 -13 -109 -16 -3 -4 3 -12 13 -20 16 -11 17 -23 12 -85 -7 -88
-54 -192 -122 -268 -46 -52 -43 -69 5 -36 48 32 82 69 112 123 26 46 40 59 87
82 31 15 81 50 113 77 31 28 60 51 65 51 4 -1 42 -32 82 -71 83 -77 100 -84
167 -74 54 8 49 16 -25 40 -70 23 -112 47 -184 107 -45 37 -67 48 -93 48 -21
0 -33 -4 -29 -10 4 -6 10 -8 15 -5 5 3 11 2 14 -3 14 -22 -140 -172 -177 -172
-2 0 3 28 11 63 8 34 19 78 24 98 l8 37 68 6 c37 4 123 11 191 16 68 5 126 11
129 15 3 3 0 11 -7 18 -13 13 -82 16 -155 5 -45 -7 -48 -7 -43 12 6 25 -39 60
-77 60 -24 0 -25 -2 -15 -27z"/>
  <path d="M140 422 c0 -5 15 -28 34 -50 25 -30 36 -38 45 -29 15 15 14 52 -2
66 -20 16 -77 26 -77 13z"/>
  <path d="M198 301 c-14 -11 -43 -26 -66 -33 -23 -7 -42 -18 -42 -23 0 -16 22
-35 41 -35 18 0 109 84 109 100 0 15 -15 12 -42 -9z"/>
  <path d="M580 299 c-19 -4 -68 -11 -107 -14 -83 -8 -96 -22 -26 -27 41 -3 48
-6 54 -30 8 -30 -3 -38 -52 -38 -45 0 -34 -18 14 -22 39 -3 42 -5 42 -33 0
-28 -3 -30 -50 -37 -27 -3 -71 -7 -97 -7 -27 -1 -48 -5 -48 -10 0 -17 54 -22
125 -11 39 5 133 10 210 10 139 1 140 1 117 20 -21 17 -34 18 -121 13 l-97 -6
4 37 c4 35 5 36 46 36 49 0 80 15 53 26 -9 3 -35 4 -58 2 -38 -3 -40 -2 -36
19 2 13 -1 27 -7 31 -6 4 16 12 49 17 51 9 57 13 40 21 -12 7 -34 8 -55 3z"/>
</g>
<g id="part-1" class="char-part">
  <path d="M450 585 c0 -7 10 -24 21 -39 12 -15 20 -29 18 -31 -2 -2 -51 -9
-109 -15 -58 -6 -107 -13 -109 -15 -2 -2 4 -11 13 -20 19 -19 19 -21 6 -104
-14 -83 -55 -172 -113 -244 -52 -63 -52 -71 2 -30 82 63 122 136 154 282 l22
100 80 10 c44 6 131 13 193 17 74 4 112 10 109 17 -6 18 -50 25 -103 16 -79
-13 -94 -11 -94 9 0 11 -8 26 -17 34 -24 20 -73 29 -73 13z"/>
  <path d="M159 398 c25 -42 47 -56 61 -42 16 16 2 43 -31 59 -44 23 -53 18 -30
-17z"/>
  <path d="M196 294 c-21 -14 -53 -30 -72 -35 -36 -11 -38 -33 -2 -45 15 -4 31
4 60 32 34 34 65 74 56 74 -2 0 -21 -12 -42 -26z"/>
</g>
<g id="part-2" class="char-part">
  <path d="M477 447 l22 -12 -32 -41 c-36 -46 -91 -95 -125 -113 -13 -7 -22 -15
-19 -17 11 -11 113 51 164 98 61 58 47 62 162 -39 65 -57 76 -63 114 -62 23 1
53 4 67 9 27 8 25 9 -45 31 -65 19 -128 55 -195 109 -50 39 -71 50 -99 50 -34
-1 -35 -1 -14 -13z"/>
</g>
<g id="part-3" class="char-part">
  <path d="M580 299 c-19 -4 -68 -11 -107 -14 -82 -8 -99 -25 -26 -25 59 0 203
22 203 31 0 12 -34 16 -70 8z"/>
</g>
<g id="part-4" class="char-part">
  <path d="M498 225 c4 -35 4 -35 -36 -35 -23 0 -44 -4 -47 -10 -4 -6 13 -10 44
-10 l51 0 0 -34 c0 -32 -2 -34 -46 -40 -26 -3 -71 -6 -100 -6 -30 0 -54 -4
-54 -9 0 -16 53 -21 115 -11 33 5 124 10 202 10 78 0 144 4 147 9 11 18 -50
28 -140 23 l-90 -4 4 36 c4 34 6 36 41 37 20 0 45 4 56 9 18 7 18 8 -8 15 -15
4 -41 5 -57 3 -27 -4 -30 -2 -30 24 0 24 -4 28 -28 28 -26 0 -28 -2 -24 -35z"/>
</g>
</g>
</svg>