<?xml version="1.0" standalone="no"?>
<!DOCTYPE svg PUBLIC "-//W3C//DTD SVG 20010904//EN"
 "http://www.w3.org/TR/2001/REC-SVG-20010904/DTD/svg10.dtd">
<svg version="1.0" xmlns="http://www.w3.org/2000/svg"
 width="96.000000pt" height="68.000000pt" viewBox="0 0 96.000000 68.000000"
 preserveAspectRatio="xMidYMid meet">
<metadata>
Created by potrace 1.16, written by Peter Selinger 2001-2019
Combined from part_0.svg through part_5.svg with named groups
</metadata>
<g transform="translate(0.000000,68.000000) scale(0.100000,-0.100000)" fill="#000000" stroke="none">
<g id="part-0" class="char-part">
  <path d="M390 602 c0 -6 11 -24 25 -40 14 -17 25 -34 25 -39 0 -6 -62 -16
-137 -22 -158 -15 -171 -17 -156 -32 19 -19 87 -21 193 -5 58 8 183 21 278 28
129 9 172 15 172 25 0 30 -47 37 -153 25 -130 -15 -127 -16 -127 8 0 11 -11
27 -24 35 -30 20 -96 32 -96 17z"/>
  <path d="M515 429 c-110 -18 -184 -25 -202 -18 -27 10 -36 -1 -18 -21 9 -10
21 -40 28 -66 l12 -49 47 3 c59 4 68 -10 68 -109 l0 -72 -42 7 -43 7 42 -43
c41 -41 43 -42 63 -23 18 16 20 30 20 127 0 59 3 108 8 109 84 7 102 14 102
37 0 10 14 31 30 47 17 16 30 33 30 37 0 11 -64 39 -82 37 -7 -1 -35 -5 -63
-10z m47 -59 c-1 -19 -9 -40 -17 -46 -19 -15 -165 -28 -177 -16 -5 5 -11 25
-15 44 l-5 36 58 7 c33 3 68 8 79 9 11 2 34 3 50 2 28 -1 30 -3 27 -36z"/>
  <path d="M654 166 c68 -66 96 -75 96 -31 0 27 -22 48 -80 74 -84 38 -88 26
-16 -43z"/>
  <path d="M259 178 c-18 -24 -42 -51 -53 -60 -35 -28 -9 -32 36 -5 78 47 94 64
82 83 -18 30 -30 26 -65 -18z"/>
</g>
<g id="part-1" class="char-part">
  <path d="M400 599 c0 -6 14 -29 31 -50 19 -24 26 -39 17 -39 -7 0 -71 -7 -143
-15 -72 -8 -136 -15 -143 -15 -7 0 -11 -4 -8 -9 12 -18 71 -20 169 -5 78 11
411 44 460 44 20 0 3 20 -26 29 -26 9 -58 8 -135 -4 -56 -8 -104 -15 -106 -15
-3 0 -6 10 -8 21 -2 12 -14 30 -28 40 -32 22 -80 33 -80 18z"/>
</g>
<g id="part-2" class="char-part">
  <path d="M525 430 c-22 -5 -86 -12 -143 -16 -93 -6 -101 -8 -88 -23 7 -9 21
-42 30 -73 16 -56 28 -69 41 -48 3 6 27 10 53 10 97 0 183 12 178 26 -2 6 11
30 30 52 19 22 34 43 34 46 0 10 -58 36 -77 35 -10 -1 -36 -5 -58 -9z m37 -60
c-1 -19 -7 -39 -11 -43 -12 -12 -173 -29 -182 -20 -4 5 -10 24 -14 44 l-7 36
74 10 c40 6 89 10 108 9 34 -1 35 -2 32 -36z"/>
</g>
<g id="part-3" class="char-part">
  <path d="M441 251 c6 -16 9 -55 7 -87 l-3 -59 -40 2 -40 1 36 -39 c41 -44 49
-47 72 -21 14 15 17 40 17 125 l0 107 -29 0 c-29 0 -29 -1 -20 -29z"/>
  <path d="M654 164 c69 -67 89 -74 94 -35 5 30 -14 50 -73 77 -90 42 -96 31
-21 -42z"/>
  <path d="M280 211 c0 -5 -23 -35 -51 -65 -28 -31 -46 -56 -40 -56 19 0 86 37
120 66 30 25 31 27 15 45 -18 20 -44 26 -44 10z"/>
</g>
</g>
</svg>