<?xml version="1.0" standalone="no"?>
<!DOCTYPE svg PUBLIC "-//W3C//DTD SVG 20010904//EN"
 "http://www.w3.org/TR/2001/REC-SVG-20010904/DTD/svg10.dtd">
<svg version="1.0" xmlns="http://www.w3.org/2000/svg"
 width="96.000000pt" height="68.000000pt" viewBox="0 0 96.000000 68.000000"
 preserveAspectRatio="xMidYMid meet">
<metadata>
Created by potrace 1.16, written by Peter Selinger 2001-2019
Combined from part_0.svg through part_5.svg with named groups
</metadata>
<g transform="translate(0.000000,68.000000) scale(0.100000,-0.100000)" fill="#000000" stroke="none">
<g id="part-0" class="char-part">
  <path d="M420 621 c0 -6 7 -22 15 -35 l16 -24 -91 -7 c-63 -5 -95 -4 -103 4
-6 6 -14 11 -18 11 -13 0 -61 -91 -55 -106 9 -24 40 -16 61 16 22 32 33 36
155 45 41 3 116 10 165 15 50 4 92 6 95 3 2 -2 -2 -13 -9 -24 -7 -12 -11 -23
-9 -25 7 -7 128 18 128 26 0 5 -14 20 -32 35 -30 26 -36 27 -107 21 -42 -4
-87 -9 -101 -12 -21 -4 -26 -1 -27 17 -2 29 -12 37 -51 45 -21 4 -32 3 -32 -5z"/>
  <path d="M495 500 c-27 -5 -77 -9 -111 -9 -60 -1 -61 -2 -70 -33 l-10 -33 -89
-3 c-97 -4 -130 -16 -71 -28 33 -6 82 -3 126 7 11 3 15 -5 15 -31 0 -39 -3
-38 90 -20 33 7 91 10 128 7 l68 -6 15 35 14 34 105 0 c57 0 106 4 109 9 12
19 -53 33 -124 26 -57 -6 -69 -4 -65 6 13 38 -41 54 -130 39z m65 -40 c0 -17
-7 -20 -39 -20 -30 0 -40 4 -44 20 -5 18 0 20 39 20 37 0 44 -3 44 -20z m-132
-7 c-2 -13 -14 -19 -41 -21 -32 -3 -37 0 -37 17 0 18 6 21 41 21 33 0 40 -3
37 -17z m120 -50 c-2 -14 -15 -19 -50 -21 -43 -3 -46 -1 -41 17 4 17 13 21 50
21 37 0 44 -3 41 -17z m-128 -12 c0 -13 -10 -20 -31 -25 -49 -9 -59 -7 -59 12
0 27 9 32 52 32 30 0 38 -4 38 -19z"/>
  <path d="M449 316 c-3 -3 -35 -7 -73 -10 l-68 -4 -3 -79 c-2 -93 1 -106 26
-98 44 14 0 -46 -61 -81 -42 -26 -37 -36 8 -16 75 35 133 75 128 88 -6 16 14
23 81 25 31 2 58 -3 68 -11 25 -21 32 -2 37 92 3 69 1 88 -10 93 -17 6 -127 7
-133 1z m91 -30 c0 -13 -32 -19 -175 -29 -12 -1 -20 4 -20 13 0 16 48 26 143
28 39 2 52 -2 52 -12z m0 -51 c0 -8 -1 -15 -2 -15 -2 -1 -47 -4 -102 -7 -81
-5 -98 -3 -94 8 3 10 30 16 89 20 46 3 90 6 97 7 6 1 12 -5 12 -13z m0 -49 c0
-15 -53 -25 -150 -29 -35 -2 -45 2 -48 15 -3 15 8 18 85 21 48 1 94 4 101 5 6
1 12 -4 12 -12z"/>
  <path d="M565 55 c56 -51 75 -56 75 -20 0 21 -9 30 -42 45 -77 35 -89 25 -33
-25z"/>
</g>
<g id="part-1" class="char-part">
  <path d="M420 622 c0 -5 9 -21 20 -35 11 -14 20 -28 20 -32 0 -3 -52 -5 -116
-4 l-115 2 -20 -32 c-22 -37 -25 -71 -6 -71 16 0 41 27 50 53 4 9 14 17 24 17
10 0 100 7 201 16 101 9 186 14 189 10 3 -3 0 -12 -7 -21 -7 -9 -10 -18 -7
-21 9 -9 111 10 111 21 0 6 -16 20 -35 33 -24 17 -42 22 -63 18 -16 -4 -60 -9
-98 -13 -64 -5 -68 -5 -68 14 0 11 -6 25 -13 31 -18 15 -67 26 -67 14z"/>
</g>
<g id="part-2" class="char-part">
  <path d="M485 499 c-22 -4 -68 -8 -102 -8 l-62 -1 -12 -42 c-6 -24 -17 -55
-24 -69 -20 -38 -5 -55 36 -40 53 19 196 26 213 12 8 -7 20 -10 25 -7 11 7 71
121 71 135 0 12 -48 31 -78 30 -15 -1 -45 -5 -67 -10z m74 -41 c-3 -66 -10
-73 -84 -79 -39 -3 -87 -9 -107 -14 -44 -8 -46 -2 -22 62 16 41 18 42 68 46
139 10 146 9 145 -15z"/>
</g>
<g id="part-3" class="char-part">
  <path d="M427 451 c-4 -17 -20 -19 -156 -26 -83 -4 -154 -11 -157 -16 -8 -14
45 -22 104 -15 159 19 202 19 202 2 0 -22 23 -20 38 4 11 19 23 20 187 20 96
0 175 4 175 9 0 5 -13 14 -28 20 -22 9 -59 9 -148 2 -156 -14 -164 -14 -164 4
0 23 -47 19 -53 -4z"/>
</g>
<g id="part-4" class="char-part">
  <path d="M331 99 c-13 -17 -41 -42 -63 -56 -56 -38 -39 -40 34 -4 80 40 113
65 104 80 -13 20 -51 10 -75 -20z"/>
  <path d="M559 59 c56 -50 75 -59 83 -36 12 30 -20 55 -97 75 l-40 11 54 -50z"/>
</g>
</g>
</svg>