<?xml version="1.0" standalone="no"?>
<!DOCTYPE svg PUBLIC "-//W3C//DTD SVG 20010904//EN"
 "http://www.w3.org/TR/2001/REC-SVG-20010904/DTD/svg10.dtd">
<svg version="1.0" xmlns="http://www.w3.org/2000/svg"
 width="96.000000pt" height="68.000000pt" viewBox="0 0 96.000000 68.000000"
 preserveAspectRatio="xMidYMid meet">
<metadata>
Created by potrace 1.16, written by Peter Selinger 2001-2019
Combined from part_0.svg through part_5.svg with named groups
</metadata>
<g transform="translate(0.000000,68.000000) scale(0.100000,-0.100000)" fill="#000000" stroke="none">
<g id="part-0" class="char-part">
  <path d="M240 554 c6 -14 10 -54 10 -89 l0 -63 -47 -7 c-71 -10 -93 -16 -93
-26 0 -5 29 -9 65 -9 l66 0 -16 -30 c-8 -16 -44 -62 -79 -102 -35 -40 -63 -75
-60 -77 11 -11 71 29 116 78 l51 56 -7 -60 c-18 -155 -18 -170 -2 -190 16 -20
16 -20 36 5 17 22 20 41 20 140 l1 115 19 -23 c23 -28 54 -25 58 4 2 16 -5 23
-38 33 -32 10 -40 16 -40 36 0 19 7 26 28 31 54 12 55 13 41 30 -8 10 -23 14
-41 12 -32 -5 -34 4 -18 82 10 54 -7 80 -51 80 -26 0 -28 -2 -19 -26z"/>
  <path d="M480 560 c0 -11 -8 -38 -17 -60 -13 -29 -24 -40 -40 -41 -13 -1 -27
-3 -33 -4 -5 -1 -12 -3 -15 -4 -3 0 2 -12 10 -25 9 -13 15 -28 14 -32 -2 -8 3
-33 18 -86 2 -10 11 -18 18 -18 8 0 17 -5 20 -11 12 -18 -48 -120 -94 -160
-50 -44 -35 -52 22 -13 45 30 120 141 113 166 -6 23 11 33 29 18 11 -9 15 -36
15 -101 0 -77 3 -91 23 -113 39 -46 186 -57 259 -20 38 19 40 26 21 73 -18 46
-33 54 -33 16 0 -45 -35 -65 -116 -65 -98 0 -116 15 -115 93 0 31 5 66 11 78
8 15 8 24 0 33 -14 18 10 28 48 20 18 -4 32 -1 40 9 12 14 62 134 62 148 0 3
-13 12 -29 19 -23 9 -49 9 -129 -4 -55 -9 -103 -16 -107 -16 -4 0 10 21 31 46
36 44 37 47 19 60 -27 20 -45 17 -45 -6z m187 -127 c-3 -26 -7 -28 -55 -30
-51 -1 -52 -1 -52 28 0 29 1 29 55 29 55 0 56 0 52 -27z m-149 -15 c3 -23 -1
-27 -38 -33 -47 -8 -49 -7 -52 25 -3 21 2 26 32 31 48 9 55 6 58 -23z m134
-54 c-5 -26 -11 -31 -54 -37 -36 -6 -38 -5 -38 23 0 26 4 29 38 33 51 5 57 3
54 -19z m-132 -19 c0 -17 -6 -25 -17 -25 -10 0 -28 -3 -40 -6 -19 -5 -23 -2
-23 18 0 32 7 38 47 38 29 0 33 -3 33 -25z"/>
  <path d="M645 230 c-14 -27 -30 -50 -35 -50 -14 0 -12 -38 2 -42 7 -3 35 2 62
10 38 11 54 12 68 3 36 -23 52 13 20 42 -24 22 -44 22 -40 0 2 -11 -7 -19 -27
-24 -34 -10 -52 2 -33 22 34 35 47 63 36 76 -18 22 -26 15 -53 -37z"/>
</g>
<g id="part-1" class="char-part">
  <path d="M245 558 c4 -13 9 -53 12 -89 6 -75 11 -70 -89 -84 -73 -11 -60 -29
17 -23 l64 6 -20 -39 c-11 -22 -49 -71 -85 -109 -64 -68 -71 -82 -28 -57 36
21 68 51 103 94 19 24 36 41 38 40 2 -2 -3 -55 -12 -117 -14 -110 -10 -150 15
-150 21 0 30 45 30 154 0 64 3 116 8 116 4 0 13 -9 20 -20 15 -24 52 -27 52
-4 0 9 -17 22 -40 32 -35 13 -41 19 -38 41 2 20 11 27 41 34 57 14 45 34 -17
28 -17 -1 -18 4 -12 72 6 72 6 74 -19 85 -39 18 -48 15 -40 -10z"/>
</g>
<g id="part-2" class="char-part">
  <path d="M480 560 c0 -12 -9 -39 -20 -60 -29 -57 -3 -53 46 6 36 44 37 47 19
60 -27 20 -45 17 -45 -6z"/>
</g>
<g id="part-3" class="char-part">
  <path d="M655 243 c-9 -21 -25 -48 -37 -60 -11 -12 -18 -29 -15 -37 5 -13 13
-13 63 1 45 13 60 14 76 4 38 -24 54 17 16 43 -30 21 -47 20 -41 -3 4 -15 -2
-20 -29 -24 -18 -2 -35 -3 -37 -1 -2 2 11 22 28 45 23 32 28 46 20 56 -18 21
-28 16 -44 -24z"/>
</g>
</g>
</svg>