<?xml version="1.0" standalone="no"?>
<!DOCTYPE svg PUBLIC "-//W3C//DTD SVG 20010904//EN"
 "http://www.w3.org/TR/2001/REC-SVG-20010904/DTD/svg10.dtd">
<svg version="1.0" xmlns="http://www.w3.org/2000/svg"
 width="96.000000pt" height="68.000000pt" viewBox="0 0 96.000000 68.000000"
 preserveAspectRatio="xMidYMid meet">
<metadata>
Created by potrace 1.16, written by Peter Selinger 2001-2019
Combined from part_0.svg through part_5.svg with named groups
</metadata>
<g transform="translate(0.000000,68.000000) scale(0.100000,-0.100000)" fill="#000000" stroke="none">
<g id="part-0" class="char-part">
  <path d="M287 540 c6 -65 7 -64 -59 -75 -55 -9 -47 -25 12 -25 46 0 50 -2 50
-24 0 -26 -4 -27 -132 -42 -37 -4 -58 -11 -58 -19 0 -17 37 -26 80 -19 31 5
37 2 52 -25 18 -33 15 -41 -19 -41 -13 0 -23 -5 -23 -11 0 -6 20 -9 53 -7 47
3 52 1 55 -18 3 -24 0 -26 -120 -45 -43 -6 -78 -15 -78 -19 0 -15 52 -17 108
-4 94 22 92 24 92 -55 0 -49 4 -72 15 -81 13 -11 15 -7 17 21 1 19 2 41 4 49
1 8 2 34 3 57 l1 42 53 3 c28 2 51 7 49 13 -2 6 -25 9 -52 7 -47 -2 -50 -1
-50 22 0 21 6 26 35 32 37 7 48 24 15 24 -23 0 -26 13 -7 32 7 7 16 21 20 31
4 10 17 17 32 17 14 0 25 4 25 9 0 15 -39 23 -76 16 -31 -5 -34 -4 -34 19 0
22 6 27 40 32 31 5 40 11 38 23 -3 12 -14 16 -42 15 l-38 -1 7 47 c6 44 5 48
-17 54 -53 14 -57 11 -51 -54z m73 -185 c0 -28 -24 -66 -46 -71 -28 -7 -44 2
-44 25 0 10 -10 23 -22 28 -21 9 -17 11 27 18 28 3 55 8 60 10 20 7 25 5 25
-10z"/>
  <path d="M595 514 c-27 -7 -67 -14 -89 -14 -32 0 -37 -3 -31 -17 13 -31 15
-144 4 -286 -10 -142 -7 -177 16 -177 20 0 25 24 25 136 0 57 4 104 9 104 14
0 92 -92 88 -104 -2 -6 -23 -22 -48 -36 -56 -31 -29 -40 31 -10 l41 21 27 -32
c15 -18 31 -38 35 -45 8 -15 82 -18 126 -5 20 5 11 12 -63 50 -87 44 -99 59
-73 90 8 9 22 38 31 64 25 68 17 73 -86 59 -46 -7 -89 -12 -95 -12 -10 0 -13
24 -13 89 l0 88 44 13 c62 17 82 11 78 -25 -5 -63 -11 -75 -37 -75 -25 0 -25
-1 -9 -25 33 -51 64 -23 97 87 10 35 11 50 3 57 -21 18 -61 20 -111 5z m73
-266 c-14 -64 -23 -67 -68 -23 -22 21 -40 42 -40 46 0 8 35 15 86 18 l32 1
-10 -42z"/>
</g>
<g id="part-1" class="char-part">
  <path d="M284 579 c4 -13 10 -43 13 -66 l5 -41 -56 -7 c-68 -9 -64 -25 5 -25
49 0 50 -1 47 -27 -3 -27 -7 -28 -68 -35 -108 -12 -134 -18 -122 -30 13 -13
342 30 342 44 0 9 -10 10 -67 8 -40 -1 -43 0 -43 24 0 22 6 27 45 37 51 13 51
29 -1 29 l-34 0 0 50 c0 33 -4 50 -12 50 -7 0 -24 3 -37 7 -22 6 -23 4 -17
-18z"/>
</g>
<g id="part-2" class="char-part">
  <path d="M296 236 c6 -27 5 -28 -123 -47 -46 -7 -83 -16 -83 -19 0 -16 59 -18
120 -5 96 21 91 24 88 -54 -2 -45 1 -74 9 -82 19 -19 22 -10 30 77 3 43 11 82
17 86 6 4 27 8 46 8 19 0 41 4 48 9 22 14 -15 23 -65 15 -39 -6 -43 -4 -43 15
0 16 -6 21 -25 21 -22 0 -25 -3 -19 -24z"/>
</g>
<g id="part-3" class="char-part">
  <path d="M580 510 c-47 -13 -60 -19 -47 -25 9 -4 30 -2 46 5 16 6 40 10 53 8
19 -2 23 -8 20 -33 -5 -61 -11 -74 -38 -77 l-26 -3 20 -25 c18 -22 22 -23 45
-11 18 10 29 28 40 70 8 31 18 63 21 72 5 11 -1 19 -19 27 -32 15 -34 14 -115
-8z"/>
</g>
<g id="part-4" class="char-part">
  <path d="M475 483 c15 -38 17 -107 6 -269 -11 -147 -10 -169 3 -182 9 -9 19
-13 23 -8 9 9 25 307 21 401 -3 69 -3 70 -32 73 -24 3 -28 1 -21 -15z"/>
</g>
<g id="part-5" class="char-part">
  <path d="M675 310 c-3 -5 -3 -15 1 -21 4 -8 9 -7 15 2 6 10 8 7 6 -8 0 -12 -4
-20 -8 -17 -9 5 -33 -64 -31 -90 1 -13 -16 -1 -56 39 -54 55 -56 58 -34 66 12
5 22 11 22 14 0 5 -51 -4 -58 -11 -3 -2 13 -22 86 -102 22 -25 28 -36 15 -29
-5 2 -21 -10 -38 -25 l-30 -29 28 12 c15 7 27 16 27 20 0 16 29 2 61 -31 19
-19 27 -30 19 -26 -8 4 -4 -2 10 -13 14 -11 32 -21 40 -21 13 0 13 1 0 10 -8
5 -10 10 -4 10 5 0 16 -6 22 -12 10 -10 14 -10 21 0 4 8 15 10 26 6 13 -5 16
-4 11 5 -5 7 -17 11 -27 8 -12 -3 -19 0 -19 9 0 13 -14 18 -47 17 -7 0 -11 4
-10 9 1 5 -12 18 -29 27 -24 13 -30 21 -23 33 5 8 7 25 4 37 -2 12 0 19 6 16
5 -4 6 -11 3 -17 -4 -7 -2 -8 4 -4 9 5 9 13 1 27 -6 12 -8 23 -5 27 3 3 6 0 6
-6 0 -23 17 -11 33 23 16 33 16 35 -3 45 -24 13 -37 13 -45 0z"/>
  <path d="M615 300 c-3 -5 -2 -10 4 -10 5 0 13 5 16 10 3 6 2 10 -4 10 -5 0
-13 -4 -16 -10z"/>
</g>
</g>
</svg>