<?xml version="1.0" standalone="no"?>
<!DOCTYPE svg PUBLIC "-//W3C//DTD SVG 20010904//EN"
 "http://www.w3.org/TR/2001/REC-SVG-20010904/DTD/svg10.dtd">
<svg version="1.0" xmlns="http://www.w3.org/2000/svg"
 width="96.000000pt" height="68.000000pt" viewBox="0 0 96.000000 68.000000"
 preserveAspectRatio="xMidYMid meet">
<metadata>
Created by potrace 1.16, written by Peter Selinger 2001-2019
Combined from part_0.svg through part_5.svg with named groups
</metadata>
<g transform="translate(0.000000,68.000000) scale(0.100000,-0.100000)" fill="#000000" stroke="none">
<g id="part-0" class="char-part">
  <path d="M337 548 c-4 -29 -9 -64 -13 -78 l-6 -25 26 28 c22 22 35 27 76 27
46 0 71 13 55 28 -3 4 -24 6 -46 6 -36 -1 -38 0 -33 21 4 17 0 26 -14 34 -34
18 -39 13 -45 -41z"/>
  <path d="M193 538 c2 -20 -4 -24 -46 -32 -67 -13 -54 -32 21 -29 45 2 61 -1
66 -12 11 -29 26 -15 26 24 0 57 -8 71 -41 71 -24 0 -28 -4 -26 -22z"/>
  <path d="M565 497 l-80 -9 0 -124 c1 -110 10 -162 22 -126 3 6 9 12 14 12 16
0 10 -30 -16 -70 -25 -40 -25 -40 -88 -39 -34 1 -66 3 -70 6 -18 11 18 33 54
33 22 0 39 5 39 10 0 6 -20 10 -45 10 -33 0 -45 4 -45 15 0 11 11 15 39 15 22
0 43 5 46 10 4 6 -12 10 -39 10 -33 0 -46 4 -46 14 0 16 21 26 55 26 13 0 27
5 31 11 5 8 -6 10 -36 7 -36 -3 -45 0 -57 19 -9 13 -24 23 -35 23 -16 0 -17
-3 -8 -20 14 -26 7 -37 -24 -37 -17 0 -26 6 -30 23 -8 32 -32 31 -40 -2 -4
-14 -30 -48 -59 -76 -52 -51 -52 -51 -13 -29 21 12 41 20 43 17 8 -7 7 -109
-1 -133 -7 -23 8 -63 24 -63 5 0 12 15 15 33 l7 34 87 11 c49 7 104 12 122 12
l34 -1 -23 -19 c-12 -10 -28 -20 -35 -23 -6 -2 -9 -7 -5 -11 7 -8 52 14 83 41
34 29 85 110 85 133 0 13 5 20 13 18 8 -3 14 -36 17 -97 5 -86 7 -95 33 -117
31 -27 101 -32 169 -14 46 13 53 35 29 83 l-19 37 -6 -34 c-4 -19 -13 -39 -20
-45 -23 -19 -83 -25 -116 -11 -27 11 -30 17 -30 55 0 52 20 145 31 145 5 0 12
-8 18 -17 8 -14 12 -15 22 -6 18 18 17 252 -2 264 -16 10 -34 10 -144 -4z
m113 -38 c3 -25 0 -27 -45 -33 -26 -4 -63 -10 -81 -13 -33 -5 -33 -5 -30 28 3
33 5 34 53 40 85 11 100 7 103 -22z m2 -76 c0 -27 -2 -28 -60 -31 -33 -2 -69
-5 -80 -7 -16 -3 -20 2 -20 25 0 29 1 29 63 33 34 2 70 4 80 5 12 1 17 -5 17
-25z m0 -72 l0 -29 -72 -4 c-90 -5 -96 -3 -90 27 4 23 9 24 81 28 42 1 77 4
79 5 1 1 2 -11 2 -27z m-370 -49 c0 -16 -8 -21 -46 -24 -51 -4 -69 3 -61 24 3
9 23 15 56 17 45 2 51 0 51 -17z m0 -56 c0 -7 -14 -16 -31 -20 -50 -10 -59 -7
-59 14 0 17 7 20 45 20 32 0 45 -4 45 -14z m0 -55 c0 -15 -10 -21 -40 -26 -47
-8 -60 -2 -53 25 4 16 14 20 49 20 37 0 44 -3 44 -19z"/>
  <path d="M364 445 l-51 -10 16 -36 c16 -35 16 -35 59 -27 26 6 42 15 42 24 0
8 5 14 10 14 17 0 11 37 -7 42 -10 2 -41 -1 -69 -7z m44 -32 c-2 -11 -14 -19
-31 -21 -22 -3 -27 1 -27 17 0 17 6 21 31 21 24 0 30 -4 27 -17z"/>
  <path d="M184 418 l-41 -10 10 -34 c7 -24 15 -33 26 -30 9 3 33 8 54 12 20 3
37 11 37 18 0 6 3 21 6 34 6 19 3 22 -22 21 -16 -1 -48 -6 -70 -11z m59 -28
c-4 -14 -14 -20 -34 -20 -15 0 -31 5 -34 10 -11 18 5 30 40 30 28 0 32 -3 28
-20z"/>
</g>
<g id="part-1" class="char-part">
  <path d="M340 557 c0 -17 -4 -47 -9 -65 -10 -35 2 -44 18 -13 8 13 27 20 72
25 70 8 70 31 0 24 -43 -4 -46 -2 -31 22 11 18 -5 40 -31 40 -15 0 -19 -7 -19
-33z"/>
  <path d="M190 551 c0 -6 5 -13 10 -16 20 -13 9 -23 -36 -31 -25 -5 -45 -13
-44 -19 1 -11 39 -11 82 0 21 6 27 3 33 -14 3 -12 11 -19 16 -15 13 8 1 86
-15 96 -16 11 -46 10 -46 -1z"/>
</g>
<g id="part-2" class="char-part">
  <path d="M310 205 c0 -9 -14 -16 -37 -20 -59 -10 -62 -13 -10 -14 40 -1 47 -4
47 -20 0 -16 -9 -21 -45 -27 -69 -10 -56 -28 15 -20 33 3 87 9 120 12 33 4 60
10 60 14 0 13 -50 22 -82 15 -25 -6 -29 -4 -26 12 2 13 14 19 46 21 56 4 54
22 -3 22 -25 0 -45 5 -45 10 0 6 -9 10 -20 10 -11 0 -20 -7 -20 -15z"/>
</g>
<g id="part-3" class="char-part">
  <path d="M559 497 l-76 -10 4 -81 c6 -104 10 -117 28 -92 13 17 24 18 109 14
l94 -5 4 81 c3 45 0 87 -5 94 -11 14 -47 13 -158 -1z m115 -23 c13 -34 6 -41
-45 -48 -29 -4 -65 -10 -81 -13 -28 -6 -29 -5 -26 28 3 32 6 34 48 40 81 11
98 10 104 -7z m4 -91 c3 -19 -3 -22 -55 -28 -100 -12 -98 -12 -98 15 0 23 4
25 60 31 83 8 90 7 93 -18z"/>
</g>
<g id="part-4" class="char-part">
  <path d="M680 295 c0 -11 -14 -15 -60 -17 -33 -1 -70 -2 -82 -2 -13 -1 -22 4
-20 12 1 6 -7 12 -18 12 -22 0 -27 -33 -10 -60 8 -12 12 -12 18 -2 6 8 39 15
90 17 68 4 83 2 90 -11 14 -25 32 -7 32 32 0 27 -4 34 -20 34 -11 0 -20 -7
-20 -15z"/>
</g>
<g id="part-5" class="char-part">
  <path d="M617 242 c-2 -4 -4 -43 -5 -87 -3 -101 6 -114 84 -124 61 -9 106 -1
138 24 18 14 18 15 1 41 l-17 27 -15 -31 c-16 -33 -33 -42 -91 -47 -41 -3 -85
26 -75 51 3 8 0 14 -6 14 -6 0 -11 10 -10 23 0 21 1 21 9 2 7 -16 9 -12 10 20
1 22 3 50 6 62 3 20 -21 41 -29 25z"/>
</g>
</g>
</svg>