<?xml version="1.0" standalone="no"?>
<!DOCTYPE svg PUBLIC "-//W3C//DTD SVG 20010904//EN"
 "http://www.w3.org/TR/2001/REC-SVG-20010904/DTD/svg10.dtd">
<svg version="1.0" xmlns="http://www.w3.org/2000/svg"
 width="96.000000pt" height="68.000000pt" viewBox="0 0 96.000000 68.000000"
 preserveAspectRatio="xMidYMid meet">
<metadata>
Created by potrace 1.16, written by Peter Selinger 2001-2019
Combined from part_0.svg through part_5.svg with named groups
</metadata>
<g transform="translate(0.000000,68.000000) scale(0.100000,-0.100000)" fill="#000000" stroke="none">
<g id="part-0" class="char-part">
  <path d="M296 508 c2 -40 6 -94 9 -119 l4 -47 -75 -7 c-50 -4 -74 -11 -71 -18
3 -8 28 -11 76 -9 l73 3 -6 -28 c-3 -15 -8 -71 -11 -123 -5 -71 -3 -99 7 -112
27 -35 36 -5 40 134 2 75 6 139 8 142 5 4 71 14 108 15 7 1 10 6 7 12 -4 6
-30 9 -59 8 -61 -4 -63 1 -47 113 11 81 0 108 -45 108 -22 0 -23 -2 -18 -72z"/>
  <path d="M595 541 c-3 -5 -1 -12 5 -16 6 -4 10 -62 10 -147 l0 -141 -69 5 -70
5 20 -36 c10 -20 19 -46 19 -59 0 -38 28 -95 42 -85 7 4 64 13 127 18 l113 10
3 36 c1 19 9 50 18 69 16 31 16 34 -1 47 -13 10 -36 12 -91 7 -74 -6 -74 -6
-68 18 4 12 7 39 7 59 0 34 1 36 38 37 58 2 112 13 112 23 0 15 -46 21 -86 10
-22 -6 -45 -11 -51 -11 -15 0 -17 47 -4 103 8 35 7 39 -16 48 -31 12 -50 12
-58 0z m157 -323 c3 -7 1 -32 -4 -55 l-9 -42 -67 -6 c-37 -3 -77 -8 -89 -11
-19 -4 -24 2 -33 38 -6 24 -13 49 -15 55 -5 14 18 21 85 26 102 8 128 7 132
-5z"/>
  <path d="M405 455 c-16 -30 -26 -57 -24 -60 9 -9 98 61 99 77 0 14 -27 38 -43
38 -3 0 -17 -25 -32 -55z"/>
  <path d="M189 433 c16 -31 52 -64 64 -60 7 2 13 13 15 24 4 25 -31 53 -66 53
-19 0 -21 -3 -13 -17z"/>
  <path d="M205 234 c-8 -20 -15 -39 -15 -43 0 -4 -14 -23 -31 -44 -17 -20 -26
-37 -20 -37 14 0 86 66 113 102 20 28 20 30 2 43 -28 21 -32 19 -49 -21z"/>
  <path d="M390 265 c0 -12 51 -85 59 -85 5 0 12 8 16 18 4 12 -3 25 -26 45 -31
25 -49 34 -49 22z"/>
</g>
<g id="part-1" class="char-part">
  <path d="M295 563 c4 -10 10 -57 13 -105 3 -67 8 -88 19 -88 18 0 20 9 27 106
6 79 6 81 -19 92 -37 17 -48 15 -40 -5z"/>
  <path d="M408 450 c-14 -27 -23 -50 -21 -50 4 0 67 44 87 62 11 9 -11 38 -29
38 -7 0 -24 -22 -37 -50z"/>
  <path d="M190 444 c0 -3 9 -19 21 -35 30 -42 80 -35 51 7 -14 22 -72 44 -72
28z"/>
</g>
<g id="part-2" class="char-part">
  <path d="M307 356 c-4 -10 -31 -17 -81 -21 -42 -4 -76 -11 -76 -16 0 -16 52
-22 107 -12 l55 10 -6 -41 c-16 -114 -18 -216 -6 -231 10 -12 16 -13 26 -4 10
8 14 39 14 113 0 55 3 118 6 139 6 35 9 37 43 38 20 1 47 4 61 9 22 6 23 8 7
15 -10 4 -38 5 -62 2 -25 -2 -45 -1 -45 4 0 15 -37 10 -43 -5z"/>
  <path d="M380 275 c0 -10 49 -83 60 -90 18 -11 33 10 25 34 -6 19 -85 71 -85
56z"/>
  <path d="M206 238 c-3 -18 -24 -57 -46 -85 -22 -29 -36 -53 -31 -53 13 0 120
99 133 123 8 16 7 23 -8 34 -28 21 -41 16 -48 -19z"/>
</g>
<g id="part-3" class="char-part">
  <path d="M596 534 c5 -10 10 -79 12 -151 3 -121 5 -133 21 -133 19 0 31 35 31
91 0 28 2 29 44 29 61 0 107 11 103 24 -4 13 -54 13 -109 2 l-38 -8 0 40 c0
22 5 53 10 68 13 33 5 43 -45 51 -35 6 -38 5 -29 -13z"/>
</g>
<g id="part-4" class="char-part">
  <path d="M655 248 c-38 -5 -94 -7 -122 -5 -52 4 -66 -6 -43 -29 5 -5 16 -40
24 -77 16 -76 20 -84 38 -69 11 9 205 29 233 24 6 -1 11 15 11 36 0 20 7 52
17 71 16 32 16 35 -1 47 -19 15 -56 16 -157 2z m95 -50 c0 -67 -8 -76 -64 -82
-28 -4 -69 -7 -90 -9 l-39 -2 -12 53 c-12 50 -11 53 9 57 26 6 85 11 149 13
47 2 47 2 47 -30z"/>
</g>
</g>
</svg>