<?xml version="1.0" standalone="no"?>
<!DOCTYPE svg PUBLIC "-//W3C//DTD SVG 20010904//EN"
 "http://www.w3.org/TR/2001/REC-SVG-20010904/DTD/svg10.dtd">
<svg version="1.0" xmlns="http://www.w3.org/2000/svg"
 width="96.000000pt" height="68.000000pt" viewBox="0 0 96.000000 68.000000"
 preserveAspectRatio="xMidYMid meet">
<metadata>
Created by potrace 1.16, written by Peter Selinger 2001-2019
Combined from part_0.svg through part_5.svg with named groups
</metadata>
<g transform="translate(0.000000,68.000000) scale(0.100000,-0.100000)" fill="#000000" stroke="none">
<g id="part-0" class="char-part">
  <path d="M758 323 c2 -153 7 -282 12 -287 17 -17 32 49 36 159 13 391 14 382
-13 394 -13 6 -27 11 -31 11 -4 0 -6 -125 -4 -277z"/>
  <path d="M300 568 c0 -25 37 -78 54 -78 8 0 19 6 25 14 19 22 -5 62 -45 74
-31 9 -34 8 -34 -10z"/>
  <path d="M625 345 c0 -87 5 -159 10 -164 25 -25 33 8 36 152 3 123 1 149 -11
157 -32 21 -35 10 -35 -145z"/>
  <path d="M248 471 c-69 -9 -129 -19 -133 -23 -14 -14 39 -30 84 -25 64 6 275
38 280 42 1 2 0 8 -4 14 -8 14 -71 12 -227 -8z"/>
  <path d="M501 346 c-1 -116 -11 -165 -43 -205 -25 -33 -14 -40 17 -11 48 45
68 105 73 215 l4 102 -24 5 -25 5 -2 -111z"/>
  <path d="M288 386 c-99 -24 -52 -36 55 -15 31 7 57 16 57 20 0 12 -54 9 -112
-5z"/>
  <path d="M290 317 c-46 -9 -50 -12 -25 -15 42 -5 135 8 135 19 0 11 -39 10
-110 -4z"/>
  <path d="M335 250 c-11 -5 -44 -9 -72 -9 -48 -1 -71 -13 -42 -23 6 -2 17 -26
24 -53 10 -40 16 -49 31 -47 11 2 44 6 75 9 53 5 56 7 57 33 0 16 8 41 18 55
15 23 15 28 3 36 -17 11 -67 10 -94 -1z m38 -22 c2 -7 2 -27 0 -45 -5 -28 -9
-31 -45 -35 -41 -4 -52 3 -61 39 -6 28 8 40 53 46 19 2 38 5 41 5 4 1 9 -4 12
-10z"/>
</g>
<g id="part-1" class="char-part">
  <path d="M300 575 c0 -2 8 -20 17 -40 12 -25 23 -35 40 -35 32 0 30 33 -3 59
-24 19 -54 28 -54 16z"/>
  <path d="M279 470 c-164 -21 -172 -23 -138 -40 21 -10 48 -8 149 9 67 12 138
21 156 21 35 0 46 13 18 24 -19 7 -18 7 -185 -14z"/>
</g>
<g id="part-2" class="char-part">
  <path d="M350 254 c-25 -8 -70 -14 -100 -14 -49 -1 -53 -2 -37 -15 10 -7 24
-35 31 -62 14 -53 3 -50 119 -37 41 5 54 10 48 18 -6 8 -3 27 10 55 10 24 17
47 14 51 -9 15 -42 17 -85 4z m22 -60 c-2 -21 -4 -39 -5 -40 -1 -1 -19 -4 -40
-7 -37 -6 -39 -4 -53 30 -8 19 -14 36 -12 38 6 6 93 23 103 20 6 -1 9 -20 7
-41z"/>
</g>
<g id="part-3" class="char-part">
  <path d="M499 453 c0 -5 0 -57 1 -118 1 -114 -4 -132 -55 -209 -19 -29 -19
-29 0 -18 64 34 93 101 103 234 8 99 7 100 -16 109 -28 11 -32 11 -33 2z"/>
</g>
<g id="part-4" class="char-part">
  <path d="M627 352 c1 -81 2 -153 2 -160 1 -8 9 -12 19 -10 15 3 18 21 22 148
6 146 1 170 -29 170 -14 0 -16 -17 -14 -148z"/>
</g>
<g id="part-5" class="char-part">
  <path d="M756 583 c7 -5 10 -85 10 -243 -1 -129 1 -251 4 -270 6 -34 6 -34 15
-10 13 39 15 62 20 278 3 112 7 207 9 211 9 13 -9 29 -39 36 -17 4 -25 3 -19
-2z"/>
</g>
</g>
</svg>