<?xml version="1.0" standalone="no"?>
<!DOCTYPE svg PUBLIC "-//W3C//DTD SVG 20010904//EN"
 "http://www.w3.org/TR/2001/REC-SVG-20010904/DTD/svg10.dtd">
<svg version="1.0" xmlns="http://www.w3.org/2000/svg"
 width="96.000000pt" height="68.000000pt" viewBox="0 0 96.000000 68.000000"
 preserveAspectRatio="xMidYMid meet">
<metadata>
Created by potrace 1.16, written by Peter Selinger 2001-2019
Combined from part_0.svg through part_5.svg with named groups
</metadata>
<g transform="translate(0.000000,68.000000) scale(0.100000,-0.100000)" fill="#000000" stroke="none">
<g id="part-0" class="char-part">
  <path d="M557 633 c-4 -3 -7 -19 -7 -34 0 -28 -15 -39 -56 -39 -13 0 -24 -4
-24 -9 0 -11 25 -21 50 -21 13 0 17 -5 13 -20 -7 -27 9 -25 34 3 16 19 34 25
88 30 37 4 70 9 72 11 14 14 -14 26 -58 26 -42 0 -49 3 -49 20 0 27 -46 51
-63 33z"/>
  <path d="M303 613 c-9 -3 -8 -11 4 -30 21 -31 7 -43 -54 -43 -31 0 -43 -4 -43
-15 0 -21 47 -30 86 -16 36 13 54 8 54 -15 0 -8 7 -14 15 -14 9 0 15 9 15 24
0 19 7 26 30 31 31 7 50 24 28 26 -7 1 -25 0 -40 -1 -24 -1 -28 2 -28 24 0 16
-6 26 -14 26 -8 0 -20 2 -28 4 -7 3 -19 2 -25 -1z"/>
  <path d="M589 486 c-4 -4 -61 -10 -201 -22 -81 -7 -108 -24 -38 -24 33 0 40
-3 40 -20 0 -18 -7 -20 -70 -20 l-71 0 20 -22 c12 -12 24 -30 27 -41 6 -18 12
-19 78 -12 39 4 115 9 169 10 93 2 100 4 128 31 16 15 29 33 29 40 0 17 -60
28 -104 20 -29 -6 -37 -3 -46 14 -10 18 -8 20 22 20 42 0 67 14 43 24 -20 7
-20 7 -26 2z m-89 -56 c0 -16 -7 -20 -35 -20 -22 0 -35 5 -35 13 0 20 10 27
42 27 21 0 28 -5 28 -20z m128 -42 c-3 -20 -10 -23 -50 -26 -27 -2 -48 1 -48
7 0 21 33 41 66 41 31 0 35 -3 32 -22z m-128 -13 c0 -22 -4 -25 -35 -25 -28 0
-35 4 -35 19 0 19 15 27 53 30 12 1 17 -6 17 -24z m-100 -10 c0 -22 -4 -25
-39 -25 -26 0 -41 5 -45 16 -9 23 -9 22 27 27 17 2 38 5 45 5 7 1 12 -9 12
-23z"/>
  <path d="M400 295 c-63 -7 -110 -13 -103 -14 7 0 19 -22 26 -48 l14 -48 50 3
c38 3 52 0 56 -12 3 -8 1 -18 -4 -22 -6 -4 -68 -9 -138 -11 -69 -3 -130 -9
-135 -13 -17 -16 62 -22 164 -11 57 5 107 8 112 5 4 -3 8 -30 8 -60 0 -30 4
-54 10 -54 17 0 32 42 28 81 l-4 39 148 0 c147 0 187 9 131 31 -18 6 -71 8
-149 3 -106 -6 -122 -5 -127 10 -5 14 2 16 52 16 l59 0 26 44 c37 63 28 76
-48 75 -33 -1 -113 -7 -176 -14z m180 -20 c0 -10 -11 -15 -32 -16 -18 0 -70
-4 -115 -7 -62 -6 -83 -4 -83 5 0 11 30 18 120 26 87 9 110 7 110 -8z m0 -49
c0 -10 -11 -15 -39 -14 -21 0 -70 -3 -110 -7 -60 -6 -71 -5 -71 8 0 16 29 21
163 25 44 2 57 -1 57 -12z"/>
</g>
<g id="part-1" class="char-part">
  <path d="M558 601 c-3 -32 -7 -36 -33 -39 -44 -5 -56 -22 -16 -22 28 0 33 -3
28 -20 -7 -27 8 -25 27 2 13 19 28 23 86 26 87 5 93 28 7 26 -52 -1 -56 0 -46
18 13 23 6 34 -25 40 -22 5 -25 1 -28 -31z"/>
  <path d="M314 585 c23 -36 13 -45 -50 -45 -58 0 -70 -13 -29 -32 19 -8 31 -8
50 0 38 18 62 15 68 -8 8 -31 27 -24 27 10 0 25 4 30 24 30 14 0 28 5 32 12 5
8 -3 9 -29 5 -34 -5 -37 -4 -37 18 0 24 -17 35 -52 35 -19 0 -20 -1 -4 -25z"/>
</g>
<g id="part-2" class="char-part">
  <path d="M448 472 c-134 -15 -184 -32 -93 -32 97 0 350 36 273 39 -9 1 -22 3
-30 5 -7 2 -75 -4 -150 -12z"/>
</g>
<g id="part-3" class="char-part">
  <path d="M535 420 c-27 -4 -103 -11 -168 -15 -65 -5 -114 -11 -109 -14 5 -3
17 -21 26 -40 l18 -33 76 7 c42 4 119 9 170 10 87 2 95 4 123 31 16 15 29 33
29 40 0 23 -65 29 -165 14z m93 -32 c-3 -22 -10 -24 -128 -35 -171 -16 -177
-16 -184 3 -4 9 -5 18 -3 20 4 4 245 31 290 33 24 1 28 -3 25 -21z"/>
</g>
<g id="part-4" class="char-part">
  <path d="M443 171 c4 -16 -4 -19 -71 -25 -41 -3 -103 -6 -138 -6 -66 0 -93
-15 -49 -26 24 -6 103 -1 218 13 l47 6 0 -67 c0 -36 4 -66 10 -66 12 0 33 78
27 106 -3 19 1 23 32 27 20 2 86 2 148 0 114 -4 152 6 96 28 -24 9 -183 5
-245 -7 -10 -1 -23 6 -28 17 -14 26 -54 26 -47 0z"/>
</g>
</g>
</svg>