<?xml version="1.0" standalone="no"?>
<!DOCTYPE svg PUBLIC "-//W3C//DTD SVG 20010904//EN"
 "http://www.w3.org/TR/2001/REC-SVG-20010904/DTD/svg10.dtd">
<svg version="1.0" xmlns="http://www.w3.org/2000/svg"
 width="96.000000pt" height="68.000000pt" viewBox="0 0 96.000000 68.000000"
 preserveAspectRatio="xMidYMid meet">
<metadata>
Created by potrace 1.16, written by Peter Selinger 2001-2019
Combined from part_0.svg through part_5.svg with named groups
</metadata>
<g transform="translate(0.000000,68.000000) scale(0.100000,-0.100000)" fill="#000000" stroke="none">
<g id="part-0" class="char-part">
  <path d="M568 613 c-3 -35 -6 -38 -46 -48 -34 -8 -41 -12 -31 -22 7 -7 24 -13
36 -13 20 0 22 -3 13 -19 -13 -26 -13 -31 4 -31 8 0 25 14 39 31 21 27 31 31
92 37 38 4 70 12 72 19 5 14 -68 27 -98 18 -18 -6 -20 -4 -14 14 8 28 -10 51
-41 51 -19 0 -23 -6 -26 -37z"/>
  <path d="M314 608 c4 -13 10 -31 13 -40 5 -16 -2 -18 -60 -18 -73 0 -86 -8
-57 -35 19 -18 31 -17 112 1 23 5 29 2 38 -21 13 -33 36 -27 32 8 -2 22 2 28
25 33 47 11 50 19 8 24 -33 4 -41 9 -44 30 -4 29 -17 40 -50 40 -20 0 -22 -4
-17 -22z"/>
  <path d="M379 437 c-15 -30 -101 -109 -130 -119 -8 -3 -11 -8 -8 -12 7 -7 50
13 101 48 20 13 52 19 120 22 51 2 110 6 132 9 61 9 66 -2 66 -131 0 -66 -5
-124 -12 -139 -11 -24 -15 -26 -52 -20 l-41 7 42 -43 c36 -37 44 -41 58 -29
35 29 48 74 55 195 4 66 8 125 10 130 7 27 -3 44 -33 58 -28 14 -40 14 -97 2
-82 -17 -180 -28 -180 -19 0 3 10 14 22 24 19 15 20 20 9 34 -21 25 -44 19
-62 -17z"/>
  <path d="M342 293 c-52 -3 -63 -7 -58 -19 3 -9 6 -48 6 -88 l0 -72 86 4 c64 3
88 1 94 -9 7 -10 11 -10 24 0 13 11 16 31 14 100 l-3 86 -50 1 c-27 0 -79 -1
-113 -3z m118 -43 c0 -27 -3 -30 -32 -30 -18 0 -50 -3 -71 -7 -38 -6 -39 -5
-35 23 3 32 25 41 96 43 40 1 42 0 42 -29z m8 -75 c0 -19 -6 -25 -22 -25 -11
0 -45 -3 -73 -6 -52 -7 -53 -6 -53 19 0 28 13 32 106 35 38 2 42 0 42 -23z"/>
</g>
<g id="part-1" class="char-part">
  <path d="M574 608 c-8 -40 -11 -43 -46 -46 -45 -4 -51 -22 -7 -22 29 0 30 -2
24 -32 l-6 -33 34 38 c30 33 40 37 83 38 27 1 60 4 74 8 39 11 7 24 -56 23
-51 0 -53 1 -43 20 12 22 12 21 -18 37 -30 15 -28 16 -39 -31z"/>
  <path d="M324 591 c9 -16 16 -32 16 -35 0 -3 -31 -8 -70 -12 -38 -3 -70 -10
-70 -15 0 -16 54 -22 103 -12 46 9 49 9 58 -14 12 -32 29 -29 29 6 0 24 5 30
33 37 l32 8 -37 3 c-31 4 -37 8 -40 31 -2 22 -9 28 -36 30 l-33 3 15 -30z"/>
</g>
<g id="part-2" class="char-part">
  <path d="M380 440 c-13 -30 -83 -96 -130 -120 -15 -8 -20 -15 -12 -18 7 -2 40
12 75 31 56 31 74 35 191 45 93 8 134 8 143 0 16 -13 18 -211 2 -257 -12 -33
-23 -37 -63 -21 -14 5 -26 6 -26 2 1 -10 69 -82 78 -82 12 0 48 41 57 65 4 11
11 76 15 145 4 69 10 133 14 142 6 13 -1 21 -29 36 -36 18 -40 18 -138 1 -56
-10 -113 -18 -126 -19 l-24 0 23 25 c19 20 21 27 10 40 -20 24 -46 18 -60 -15z"/>
</g>
<g id="part-3" class="char-part">
  <path d="M410 299 c-25 -4 -63 -8 -85 -8 l-40 -1 2 -86 c1 -52 6 -91 14 -98 8
-8 13 -8 16 2 3 8 28 12 78 12 50 0 75 -4 78 -12 3 -10 7 -10 20 1 13 11 17
31 17 97 0 72 -3 85 -19 94 -11 5 -23 9 -28 9 -4 -1 -28 -5 -53 -10z m50 -49
c0 -29 -1 -30 -50 -32 -27 -1 -58 -2 -67 -2 -13 -1 -18 7 -18 24 0 27 23 37
93 39 40 1 42 0 42 -29z m0 -75 c0 -20 -5 -25 -24 -25 -13 0 -44 -3 -70 -6
-44 -7 -46 -6 -46 19 0 27 12 32 103 35 33 2 37 0 37 -23z"/>
</g>
</g>
</svg>