<?xml version="1.0" standalone="no"?>
<!DOCTYPE svg PUBLIC "-//W3C//DTD SVG 20010904//EN"
 "http://www.w3.org/TR/2001/REC-SVG-20010904/DTD/svg10.dtd">
<svg version="1.0" xmlns="http://www.w3.org/2000/svg"
 width="96.000000pt" height="68.000000pt" viewBox="0 0 96.000000 68.000000"
 preserveAspectRatio="xMidYMid meet">
<metadata>
Created by potrace 1.16, written by Peter Selinger 2001-2019
Combined from part_0.svg through part_5.svg with named groups
</metadata>
<g transform="translate(0.000000,68.000000) scale(0.100000,-0.100000)" fill="#000000" stroke="none">
<g id="part-0" class="char-part">
  <path d="M580 618 c0 -47 -5 -52 -64 -64 -39 -7 -34 -25 8 -28 27 -1 33 -10
16 -21 -13 -8 -13 -35 1 -35 6 0 25 16 43 35 32 33 37 35 100 35 50 0 66 3 66
14 0 18 -50 30 -90 21 -30 -7 -30 -6 -18 20 11 24 10 29 -7 41 -34 25 -55 18
-55 -18z"/>
  <path d="M300 605 c0 -9 7 -27 16 -40 l16 -25 -38 -2 c-22 0 -51 0 -66 1 -34
3 -47 -18 -22 -36 19 -14 79 -13 116 2 13 5 21 0 29 -19 16 -35 39 -34 39 3 0
25 5 31 30 36 41 9 38 23 -7 27 -33 3 -39 7 -43 33 -4 25 -10 30 -38 33 -24 2
-32 -1 -32 -13z"/>
  <path d="M522 454 c-29 -6 -93 -15 -143 -19 -61 -5 -87 -11 -81 -17 7 -7 54
-7 144 0 73 6 136 8 140 4 4 -4 5 -16 2 -28 -5 -17 -19 -21 -107 -32 -56 -7
-124 -12 -151 -12 -42 0 -47 -2 -41 -17 12 -27 7 -65 -10 -83 -17 -19 -10 -50
10 -50 7 0 34 10 61 21 40 18 69 22 169 23 l120 1 0 -51 c-1 -32 -7 -61 -19
-79 -17 -26 -21 -27 -69 -22 l-50 6 33 -34 c40 -42 62 -44 106 -10 27 20 38
41 59 111 38 126 50 122 -277 98 l-86 -7 7 34 c6 33 9 34 61 41 30 3 92 8 137
10 52 2 83 7 83 14 0 6 11 28 25 47 23 36 24 37 5 47 -30 16 -70 17 -128 4z"/>
</g>
<g id="part-1" class="char-part">
  <path d="M583 609 c-3 -43 -19 -59 -60 -59 -20 0 -32 -4 -28 -10 3 -5 20 -10
36 -10 27 0 29 -2 19 -21 -19 -35 -1 -36 26 -1 24 30 30 32 87 32 65 0 99 11
77 25 -7 4 -34 7 -61 6 -50 -1 -56 3 -39 29 12 19 -6 40 -34 40 -16 0 -21 -7
-23 -31z"/>
  <path d="M300 616 c0 -4 7 -21 16 -38 20 -39 9 -48 -63 -48 -57 0 -68 -13 -29
-31 18 -9 33 -8 57 0 46 16 67 14 74 -9 10 -31 36 -25 33 8 -3 23 1 27 25 30
38 5 34 20 -5 18 -27 -1 -32 3 -40 32 -5 17 -15 32 -22 32 -8 0 -21 3 -30 6
-9 3 -16 3 -16 0z"/>
</g>
<g id="part-2" class="char-part">
  <path d="M515 454 c-38 -7 -108 -16 -154 -20 -61 -5 -79 -9 -66 -17 16 -9 153
-4 253 10 37 5 42 3 42 -15 0 -11 -6 -24 -12 -30 -15 -12 -169 -32 -245 -32
l-52 0 6 -35 c4 -24 0 -43 -11 -61 -19 -28 -15 -54 7 -54 8 0 35 9 61 20 49
22 220 39 270 26 22 -5 26 -12 26 -40 0 -47 -19 -95 -42 -107 -11 -6 -37 -8
-60 -4 l-41 7 29 -36 c60 -74 127 -35 169 100 41 125 49 122 -267 98 l-88 -7
0 24 c0 42 12 48 110 54 139 9 181 15 174 26 -3 5 6 25 20 44 14 18 26 36 26
38 0 7 -60 27 -74 26 -6 -1 -42 -8 -81 -15z"/>
</g>
</g>
</svg>