<?xml version="1.0" standalone="no"?>
<!DOCTYPE svg PUBLIC "-//W3C//DTD SVG 20010904//EN"
 "http://www.w3.org/TR/2001/REC-SVG-20010904/DTD/svg10.dtd">
<svg version="1.0" xmlns="http://www.w3.org/2000/svg"
 width="96.000000pt" height="68.000000pt" viewBox="0 0 96.000000 68.000000"
 preserveAspectRatio="xMidYMid meet">
<metadata>
Created by potrace 1.16, written by Peter Selinger 2001-2019
Combined from part_0.svg through part_5.svg with named groups
</metadata>
<g transform="translate(0.000000,68.000000) scale(0.100000,-0.100000)" fill="#000000" stroke="none">
<g id="part-0" class="char-part">
  <path d="M264 613 c-11 -34 -24 -64 -34 -76 -50 -61 -62 -79 -57 -84 8 -7 44
16 79 52 23 23 45 31 125 45 54 10 124 21 156 25 63 7 74 28 19 33 -28 3 -159
-18 -215 -35 -16 -4 -17 -2 -8 15 7 13 7 22 -1 30 -18 18 -58 14 -64 -5z"/>
  <path d="M365 511 c-66 -13 -74 -16 -45 -19 44 -5 180 18 180 29 0 12 -41 9
-135 -10z"/>
  <path d="M395 454 c-77 -13 -158 -24 -180 -24 -29 0 -36 -3 -27 -12 16 -16 80
-13 221 12 69 11 130 19 137 16 8 -3 13 -41 17 -113 3 -59 7 -115 9 -123 6
-20 44 -91 60 -110 36 -43 119 -69 174 -56 28 8 28 5 1 101 l-14 50 -8 -40
c-5 -22 -9 -44 -9 -50 -1 -13 -31 -18 -59 -11 -63 16 -117 114 -117 213 0 59
18 133 32 133 15 0 9 28 -8 34 -26 10 -83 5 -229 -20z"/>
  <path d="M391 375 c-12 -20 -16 -35 -9 -35 18 0 79 51 73 61 -13 20 -44 7 -64
-26z"/>
  <path d="M269 356 c33 -35 66 -35 43 1 -4 6 -21 15 -37 19 l-30 7 24 -27z"/>
  <path d="M398 325 c-3 -3 -52 -12 -109 -19 l-104 -13 68 -2 c64 -1 67 -2 67
-26 0 -23 -3 -25 -50 -25 -27 0 -50 -4 -50 -10 0 -5 23 -10 50 -10 42 0 50 -3
50 -19 0 -16 -11 -19 -100 -26 -97 -6 -127 -18 -75 -27 14 -3 44 -2 68 3 23 4
57 8 75 9 l32 0 0 -57 c0 -72 14 -100 29 -60 6 16 11 51 11 78 l0 49 58 1 c31
0 75 4 97 8 l40 8 -27 11 c-15 6 -33 10 -40 8 -7 -3 -39 -7 -70 -10 -53 -6
-58 -4 -58 13 0 15 10 20 50 26 63 9 68 30 5 23 -25 -3 -45 -2 -45 2 0 5 -3
15 -6 23 -4 12 8 16 55 22 34 4 61 11 61 16 0 10 -73 13 -82 4z"/>
</g>
<g id="part-1" class="char-part">
  <path d="M262 591 c-7 -21 -30 -62 -53 -90 -22 -28 -38 -51 -35 -51 3 0 29 19
58 43 46 37 65 46 138 60 47 8 108 19 135 22 65 8 89 21 54 30 -13 3 -75 -5
-136 -18 -110 -23 -125 -23 -101 1 8 8 8 15 -2 27 -23 27 -46 18 -58 -24z"/>
</g>
<g id="part-2" class="char-part">
  <path d="M395 454 c-77 -13 -157 -24 -177 -24 -21 0 -38 -4 -38 -9 0 -20 52
-19 180 1 74 12 149 22 165 22 l30 1 6 -115 c7 -131 30 -192 93 -248 37 -32
105 -50 151 -38 30 8 30 13 6 91 l-18 59 -7 -34 c-14 -67 -16 -70 -48 -70
-103 0 -175 197 -119 326 33 74 10 78 -224 38z"/>
</g>
<g id="part-3" class="char-part">
  <path d="M392 378 c-26 -41 -15 -46 32 -16 38 25 42 41 9 46 -14 2 -27 -7 -41
-30z"/>
  <path d="M261 363 c25 -32 59 -45 59 -24 0 17 -31 41 -52 41 -18 0 -19 -2 -7
-17z"/>
  <path d="M365 319 c-27 -4 -79 -12 -115 -17 l-65 -9 73 -2 c81 -1 212 16 227
30 11 11 -49 10 -120 -2z"/>
</g>
<g id="part-4" class="char-part">
  <path d="M314 268 c1 -20 -5 -23 -44 -26 -25 -2 -49 -8 -55 -14 -7 -7 8 -9 48
-6 53 4 57 3 57 -17 0 -20 -7 -23 -61 -29 -34 -3 -79 -6 -100 -6 -21 0 -41 -5
-45 -12 -5 -8 20 -10 99 -5 l107 7 1 -53 c1 -111 28 -112 37 -1 l5 64 61 1
c33 0 79 3 101 7 l40 8 -32 11 c-17 6 -33 10 -35 8 -1 -1 -33 -6 -70 -10 -64
-6 -68 -5 -68 14 0 12 7 22 15 22 8 1 20 3 25 4 6 1 21 3 35 4 14 0 25 6 25
12 0 8 -15 10 -44 7 -37 -5 -45 -2 -49 13 -3 12 -14 19 -29 19 -19 0 -24 -5
-24 -22z"/>
</g>
</g>
</svg>