<?xml version="1.0" standalone="no"?>
<!DOCTYPE svg PUBLIC "-//W3C//DTD SVG 20010904//EN"
 "http://www.w3.org/TR/2001/REC-SVG-20010904/DTD/svg10.dtd">
<svg version="1.0" xmlns="http://www.w3.org/2000/svg"
 width="96.000000pt" height="68.000000pt" viewBox="0 0 96.000000 68.000000"
 preserveAspectRatio="xMidYMid meet">
<metadata>
Created by potrace 1.16, written by Peter Selinger 2001-2019
Combined from part_0.svg through part_5.svg with named groups
</metadata>
<g transform="translate(0.000000,68.000000) scale(0.100000,-0.100000)" fill="#000000" stroke="none">
<g id="part-0" class="char-part">
  <path d="M305 593 c4 -16 9 -54 12 -85 l5 -57 -39 -6 c-71 -12 -84 -16 -78
-25 3 -6 31 -10 61 -10 l54 0 0 -34 0 -34 -105 -13 c-58 -6 -108 -16 -111 -21
-3 -4 7 -13 23 -19 26 -10 99 -2 166 17 17 5 17 4 4 -23 -9 -16 -38 -50 -66
-76 -28 -26 -51 -50 -51 -53 0 -3 7 -12 15 -20 13 -14 22 -13 77 9 137 54 135
53 157 28 21 -24 51 -23 51 1 0 24 -29 56 -61 67 -30 10 -31 10 -25 -13 5 -21
1 -24 -60 -41 -36 -10 -68 -14 -72 -11 -4 4 17 28 46 54 49 44 65 72 41 72 -5
0 -8 4 -5 9 3 5 42 12 86 16 73 6 101 17 86 32 -7 7 -80 6 -117 -2 -28 -6 -29
-5 -29 28 0 32 3 35 38 41 59 11 72 16 72 32 0 12 -12 17 -40 16 -3 0 -20 -3
-39 -7 l-34 -7 6 43 c4 24 9 55 12 70 5 20 2 27 -20 37 -14 7 -35 12 -47 12
-17 0 -19 -4 -13 -27z"/>
  <path d="M624 565 c4 -16 4 -56 1 -91 l-7 -62 -49 -6 c-61 -8 -64 -26 -5 -26
l44 0 -10 -37 c-19 -71 -73 -158 -140 -227 -38 -38 -68 -70 -68 -72 0 -16 108
54 146 94 39 42 87 131 105 197 l16 60 51 3 52 3 0 -40 c0 -46 -15 -126 -36
-193 -17 -52 -37 -64 -78 -48 -39 14 -39 14 -8 -30 59 -86 123 -30 152 135 7
39 18 91 26 117 8 26 14 52 14 58 0 19 -61 39 -88 29 -13 -5 -34 -9 -48 -9
-28 0 -30 13 -12 89 13 57 9 66 -36 77 -28 7 -29 6 -22 -21z"/>
</g>
<g id="part-1" class="char-part">
  <path d="M311 581 c6 -16 9 -53 7 -82 l-3 -54 -53 -8 c-64 -10 -59 -27 9 -27
l49 0 0 -34 c0 -38 -3 -40 -115 -51 -76 -8 -97 -14 -90 -26 9 -14 45 -11 200
12 77 11 155 23 173 25 19 3 30 9 26 16 -4 6 -32 8 -80 3 l-74 -7 0 29 c0 41
10 49 64 57 27 3 52 9 55 12 13 13 -27 24 -66 19 l-43 -6 0 35 c0 19 5 47 11
63 8 23 7 30 -7 40 -10 7 -30 13 -45 13 -26 0 -27 -2 -18 -29z"/>
</g>
<g id="part-2" class="char-part">
  <path d="M294 283 c-10 -15 -40 -50 -68 -76 -40 -40 -48 -52 -39 -66 14 -21
31 -19 132 19 l84 31 23 -22 c24 -22 54 -20 54 3 0 23 -28 55 -60 68 -33 14
-51 7 -32 -12 7 -7 12 -15 12 -19 0 -9 -130 -43 -137 -36 -3 4 17 27 46 53 53
48 62 68 35 78 -25 10 -31 7 -50 -21z"/>
</g>
<g id="part-3" class="char-part">
  <path d="M624 565 c4 -14 4 -54 0 -89 l-7 -64 -53 -7 c-63 -8 -63 -25 1 -25
l43 0 -10 -37 c-22 -79 -71 -158 -140 -225 -71 -69 -71 -89 0 -44 85 54 145
139 182 260 20 62 23 66 51 66 18 0 28 4 24 10 -3 6 -15 10 -26 10 -23 0 -24
17 -7 90 11 48 10 54 -7 66 -10 8 -27 14 -38 14 -16 0 -18 -5 -13 -25z"/>
</g>
<g id="part-4" class="char-part">
  <path d="M717 424 c-10 -11 3 -24 24 -24 16 0 19 -7 19 -42 0 -46 -33 -197
-50 -229 -11 -20 -64 -27 -75 -9 -3 6 -10 10 -15 10 -17 0 45 -79 62 -80 53
-1 83 48 108 180 11 56 25 118 32 137 11 31 11 36 -7 49 -19 14 -86 19 -98 8z"/>
</g>
</g>
</svg>