<?xml version="1.0" standalone="no"?>
<!DOCTYPE svg PUBLIC "-//W3C//DTD SVG 20010904//EN"
 "http://www.w3.org/TR/2001/REC-SVG-20010904/DTD/svg10.dtd">
<svg version="1.0" xmlns="http://www.w3.org/2000/svg"
 width="96.000000pt" height="68.000000pt" viewBox="0 0 96.000000 68.000000"
 preserveAspectRatio="xMidYMid meet">
<metadata>
Created by potrace 1.16, written by Peter Selinger 2001-2019
Combined from part_0.svg through part_5.svg with named groups
</metadata>
<g transform="translate(0.000000,68.000000) scale(0.100000,-0.100000)" fill="#000000" stroke="none">
<g id="part-0" class="char-part">
  <path d="M233 564 c3 -16 9 -57 12 -91 l7 -62 -33 -5 c-19 -3 -47 -7 -63 -8
-16 -2 -31 -9 -34 -15 -3 -10 14 -13 62 -13 l66 0 0 -31 c0 -49 -16 -65 -90
-95 -81 -31 -90 -40 -64 -59 29 -22 55 -17 99 16 l40 30 3 -37 c2 -20 1 -48
-3 -62 -5 -22 -9 -23 -43 -17 l-37 6 50 -51 50 -51 18 22 c14 17 17 41 17 120
0 66 4 101 13 108 57 47 70 60 59 61 -7 0 -26 -7 -42 -15 -30 -15 -30 -15 -30
12 0 37 9 47 48 59 45 12 45 28 0 32 -43 4 -46 13 -27 88 14 54 4 70 -50 80
-33 7 -34 6 -28 -22z"/>
  <path d="M550 571 c-8 -10 -35 -30 -58 -45 -24 -15 -42 -29 -39 -32 5 -6 148
45 161 57 12 11 -12 39 -33 39 -9 0 -23 -9 -31 -19z"/>
  <path d="M656 474 c-20 -24 -35 -44 -33 -44 3 0 30 11 61 25 56 25 62 36 27
54 -14 8 -25 1 -55 -35z"/>
  <path d="M514 479 c-7 -13 24 -49 43 -49 14 0 17 19 5 36 -11 16 -41 24 -48
13z"/>
  <path d="M406 458 c15 -27 38 -48 51 -48 19 0 16 24 -5 43 -22 20 -57 23 -46
5z"/>
  <path d="M615 400 c-11 -4 -58 -13 -105 -20 -66 -10 -79 -15 -61 -22 13 -4 27
-6 32 -2 5 3 9 -8 9 -25 0 -33 -10 -39 -82 -43 -61 -4 -45 -23 18 -22 24 0 44
-2 44 -6 0 -16 -60 -98 -93 -127 -20 -18 -37 -35 -37 -37 0 -11 67 35 99 68
29 30 37 34 55 24 25 -12 66 -49 66 -58 0 -10 -75 -50 -122 -65 -36 -11 -39
-13 -16 -14 28 -1 133 34 156 52 9 7 16 7 20 1 4 -5 26 -24 48 -42 33 -25 51
-32 85 -32 56 0 119 11 119 20 0 3 -29 12 -64 18 -70 13 -166 50 -166 63 0 8
32 48 68 85 7 8 10 19 6 25 -6 11 -52 9 -156 -7 -28 -5 -38 -3 -38 7 1 35 18
40 145 49 70 5 130 12 134 15 3 3 -1 11 -9 16 -14 9 -40 8 -174 -7 -52 -6 -53
-6 -53 19 0 22 5 26 41 32 57 9 76 15 76 25 0 13 -23 18 -45 10z m5 -185 c0
-12 -31 -65 -37 -65 -9 0 -53 42 -53 51 0 4 8 10 18 12 26 7 72 8 72 2z"/>
</g>
<g id="part-1" class="char-part">
  <path d="M236 563 c4 -10 9 -50 12 -89 l4 -71 -68 -8 c-53 -5 -64 -9 -50 -17
10 -6 40 -7 68 -4 l49 7 -3 -53 -3 -52 -65 -27 c-36 -15 -74 -31 -85 -34 -20
-6 -20 -7 -1 -21 29 -21 53 -17 102 17 25 17 47 29 49 27 2 -2 1 -31 -2 -66
l-6 -62 -36 0 -36 0 43 -43 43 -42 20 24 c16 19 19 39 19 122 l0 98 38 27 c34
24 25 28 -21 9 -16 -7 -18 -3 -15 36 3 41 5 44 36 49 43 7 46 24 5 28 -31 3
-33 6 -33 42 0 22 5 51 12 65 10 22 9 27 -8 40 -10 8 -32 15 -48 15 -23 0 -27
-3 -20 -17z"/>
</g>
<g id="part-2" class="char-part">
  <path d="M544 569 c-10 -12 -39 -35 -64 -51 -53 -35 -32 -33 73 5 82 30 86 33
61 52 -27 20 -48 18 -70 -6z"/>
  <path d="M680 510 c0 -5 -14 -25 -31 -45 -17 -19 -28 -35 -25 -35 3 0 31 11
62 25 56 25 57 26 39 45 -19 21 -45 27 -45 10z"/>
  <path d="M510 477 c0 -14 41 -57 53 -57 4 0 7 11 7 23 0 16 -9 28 -25 35 -33
15 -35 15 -35 -1z"/>
  <path d="M410 451 c25 -48 60 -61 60 -24 0 19 -28 42 -53 43 -14 0 -16 -4 -7
-19z"/>
</g>
<g id="part-3" class="char-part">
  <path d="M560 390 c-19 -4 -57 -11 -85 -15 -79 -11 -31 -23 57 -14 101 10 139
18 132 30 -6 11 -54 10 -104 -1z"/>
</g>
<g id="part-4" class="char-part">
  <path d="M595 244 c-27 -8 -62 -14 -77 -14 -44 0 -44 -20 1 -57 22 -19 41 -39
41 -44 0 -10 -68 -46 -124 -65 l-41 -14 42 4 c23 2 67 16 98 30 l57 26 47 -40
c50 -42 83 -49 174 -34 40 7 51 24 14 24 -26 0 -140 32 -179 50 -28 13 -36 34
-19 45 5 3 23 23 40 44 l31 39 -27 9 c-19 7 -44 6 -78 -3z m25 -29 c0 -10 -30
-65 -36 -65 -9 0 -64 44 -64 51 0 4 10 10 23 12 35 7 77 8 77 2z"/>
</g>
</g>
</svg>