<?xml version="1.0" standalone="no"?>
<!DOCTYPE svg PUBLIC "-//W3C//DTD SVG 20010904//EN"
 "http://www.w3.org/TR/2001/REC-SVG-20010904/DTD/svg10.dtd">
<svg version="1.0" xmlns="http://www.w3.org/2000/svg"
 width="96.000000pt" height="68.000000pt" viewBox="0 0 96.000000 68.000000"
 preserveAspectRatio="xMidYMid meet">
<metadata>
Created by potrace 1.16, written by Peter Selinger 2001-2019
Combined from part_0.svg through part_5.svg with named groups
</metadata>
<g transform="translate(0.000000,68.000000) scale(0.100000,-0.100000)" fill="#000000" stroke="none">
<g id="part-0" class="char-part">
  <path d="M220 573 c0 -29 -45 -117 -80 -157 -30 -34 -32 -38 -17 -53 14 -14
22 -15 58 -4 22 7 43 10 46 8 2 -3 -19 -27 -47 -55 -47 -46 -50 -51 -35 -66
15 -14 19 -14 47 0 58 30 111 45 122 34 16 -16 35 -12 32 6 -3 17 -33 44 -49
44 -5 0 -7 -7 -4 -15 8 -18 3 -21 -53 -30 l-45 -8 77 85 c74 81 77 86 59 102
-24 22 -26 21 -46 -24 -17 -37 -21 -40 -57 -40 -43 0 -46 5 -17 40 36 45 69
99 69 114 0 15 -29 36 -49 36 -6 0 -11 -8 -11 -17z"/>
  <path d="M530 576 c0 -4 12 -22 26 -41 l25 -34 -43 -4 c-65 -8 -91 -7 -103 3
-14 12 -69 -66 -61 -87 10 -25 43 -7 66 36 7 14 37 22 135 35 127 18 164 14
130 -14 -24 -20 -17 -31 18 -25 97 16 103 22 56 57 -29 22 -44 23 -116 13 -48
-7 -53 -6 -53 11 0 11 -4 25 -8 31 -9 14 -72 30 -72 19z"/>
  <path d="M427 358 c-15 -29 -40 -68 -57 -87 -38 -41 -31 -55 8 -18 16 15 32
27 36 27 5 0 6 -39 1 -87 -12 -151 -11 -161 21 -149 14 5 16 24 13 146 l-4
139 28 28 c21 23 24 32 15 41 -22 22 -35 13 -61 -40z"/>
  <path d="M710 393 c-8 -2 -55 -9 -104 -16 -95 -14 -131 -37 -57 -37 23 0 41
-5 41 -11 0 -24 -22 -49 -43 -49 -21 0 -22 -3 -21 -93 0 -50 2 -98 2 -104 2
-15 32 -18 32 -4 0 5 30 13 66 17 63 6 68 5 85 -17 31 -41 46 -10 52 104 4 96
4 99 -19 109 -18 8 -39 8 -80 -1 -30 -7 -58 -10 -61 -7 -4 3 4 17 16 30 13 14
20 29 16 35 -4 7 12 11 47 12 65 2 119 13 98 22 -25 9 -54 13 -70 10z m13
-135 c11 -34 -5 -44 -79 -54 l-74 -9 0 32 c0 28 3 32 33 36 71 9 115 7 120 -5z
m-3 -102 l0 -33 -72 -6 c-40 -4 -76 -3 -81 2 -4 4 -5 20 -2 34 6 23 13 26 58
30 29 2 62 4 75 5 19 2 22 -3 22 -32z"/>
  <path d="M270 221 c0 -15 41 -61 50 -56 15 9 -1 42 -26 54 -13 6 -24 7 -24 2z"/>
  <path d="M190 184 c0 -12 42 -64 51 -64 19 0 8 38 -16 54 -26 17 -35 20 -35
10z"/>
  <path d="M97 164 c-9 -9 44 -84 59 -84 15 0 18 18 8 45 -7 18 -58 47 -67 39z"/>
</g>
<g id="part-1" class="char-part">
  <path d="M220 563 c0 -28 -44 -115 -74 -146 -18 -20 -25 -35 -20 -49 6 -21 27
-20 88 7 l31 13 -32 1 c-18 1 -33 4 -33 8 0 4 23 40 51 80 41 60 49 77 39 88
-17 21 -50 19 -50 -2z"/>
</g>
<g id="part-2" class="char-part">
  <path d="M260 223 c1 -18 49 -65 59 -59 16 10 14 23 -9 46 -20 20 -50 27 -50
13z"/>
  <path d="M202 158 c30 -39 48 -46 48 -19 0 21 -34 51 -59 51 -9 0 -6 -10 11
-32z"/>
  <path d="M90 165 c0 -16 53 -85 65 -85 23 0 18 38 -10 65 -21 22 -55 34 -55
20z"/>
</g>
<g id="part-3" class="char-part">
  <path d="M530 574 c0 -3 9 -19 21 -36 12 -16 19 -32 16 -34 -12 -12 -127 -17
-127 -5 0 6 -6 11 -13 11 -16 0 -61 -85 -52 -99 12 -20 35 -11 55 21 17 29 27
34 89 44 142 24 191 27 191 12 0 -8 -5 -19 -12 -26 -6 -6 -9 -14 -7 -17 8 -7
119 16 119 26 0 4 -12 17 -27 29 -25 20 -36 22 -100 16 -73 -6 -73 -6 -73 19
0 18 -8 28 -26 35 -29 11 -54 13 -54 4z"/>
</g>
<g id="part-4" class="char-part">
  <path d="M427 358 c-14 -29 -40 -70 -60 -90 -43 -46 -35 -49 17 -6 l39 32 -6
-90 c-3 -49 -8 -98 -12 -109 -3 -12 0 -28 9 -40 14 -17 17 -18 26 -5 13 19 13
233 0 246 -6 6 1 23 21 47 17 21 28 44 25 52 -11 29 -35 14 -59 -37z"/>
</g>
<g id="part-5" class="char-part">
  <path d="M688 293 c-10 -2 -18 -8 -18 -13 0 -4 8 -6 19 -3 34 9 50 -21 44 -84
-6 -79 -9 -86 -33 -78 -18 6 -18 4 5 -21 20 -22 27 -25 40 -14 21 18 19 35 -2
19 -17 -13 -17 -13 -1 7 13 15 17 37 16 86 0 36 3 71 7 79 5 8 5 11 0 7 -4 -4
-14 -1 -22 7 -15 15 -24 16 -55 8z"/>
  <path d="M598 273 c7 -3 16 -2 19 1 4 3 -2 6 -13 5 -11 0 -14 -3 -6 -6z"/>
  <path d="M535 260 c-3 -6 -3 -20 1 -33 9 -25 7 -75 -3 -91 -22 -34 1 -63 31
-40 12 8 15 14 7 14 -10 0 -12 12 -9 45 3 25 2 45 -3 45 -13 0 -3 51 12 61 11
7 9 9 -8 9 -12 0 -25 -5 -28 -10z"/>
  <path d="M616 191 c-3 -4 6 -6 19 -3 14 2 25 6 25 8 0 8 -39 4 -44 -5z"/>
  <path d="M650 109 c0 -5 5 -7 10 -4 6 3 10 8 10 11 0 2 -4 4 -10 4 -5 0 -10
-5 -10 -11z"/>
</g>
</g>
</svg>