<?xml version="1.0" standalone="no"?>
<!DOCTYPE svg PUBLIC "-//W3C//DTD SVG 20010904//EN"
 "http://www.w3.org/TR/2001/REC-SVG-20010904/DTD/svg10.dtd">
<svg version="1.0" xmlns="http://www.w3.org/2000/svg"
 width="96.000000pt" height="68.000000pt" viewBox="0 0 96.000000 68.000000"
 preserveAspectRatio="xMidYMid meet">
<metadata>
Created by potrace 1.16, written by Peter Selinger 2001-2019
Combined from part_0.svg through part_5.svg with named groups
</metadata>
<g transform="translate(0.000000,68.000000) scale(0.100000,-0.100000)" fill="#000000" stroke="none">
<g id="part-0" class="char-part">
  <path d="M581 563 c7 -10 22 -28 33 -40 23 -27 20 -29 -86 -38 -43 -4 -78 -11
-78 -15 0 -16 38 -21 85 -10 26 6 50 8 53 6 10 -10 -47 -84 -93 -121 -37 -31
-44 -41 -33 -51 10 -10 27 -9 82 2 38 8 71 12 75 9 7 -7 -40 -46 -133 -107
-66 -45 -69 -48 -40 -48 46 0 136 60 232 154 74 73 84 87 73 100 -20 24 -33
19 -66 -27 -29 -39 -35 -43 -94 -50 -34 -5 -65 -6 -69 -2 -4 4 13 23 37 44
100 81 97 77 82 95 -12 14 -6 16 65 16 84 0 124 7 124 21 0 14 -63 21 -108 11
-40 -9 -44 -9 -52 13 -11 29 -48 55 -78 55 -22 0 -23 -2 -11 -17z"/>
  <path d="M307 535 c-27 -7 -71 -16 -98 -20 -49 -7 -63 -20 -33 -32 9 -3 47 0
85 7 38 7 72 10 75 7 4 -3 -12 -24 -34 -45 -22 -22 -37 -43 -33 -48 12 -13 21
-68 13 -81 -7 -10 -92 -43 -112 -43 -5 0 -21 -5 -35 -10 -23 -9 -25 -13 -14
-26 16 -19 81 -14 107 9 9 8 25 17 35 20 15 6 17 -1 17 -56 0 -79 -9 -95 -44
-79 -35 16 -32 4 9 -38 32 -31 37 -33 51 -18 21 21 33 79 34 160 l0 66 60 28
c72 33 71 43 -2 18 -59 -19 -64 -19 -60 2 2 8 -2 14 -7 14 -5 0 -8 10 -6 22 5
26 48 63 92 80 41 15 48 34 20 52 -35 22 -68 25 -120 11z"/>
  <path d="M702 244 c-48 -51 -178 -144 -201 -144 -6 0 -11 -5 -11 -11 0 -24
140 30 169 65 20 24 34 20 82 -24 44 -40 89 -53 89 -26 0 19 -43 52 -86 66
-19 6 -34 14 -34 17 0 3 18 21 40 40 45 39 47 44 21 60 -16 10 -25 4 -69 -43z"/>
</g>
<g id="part-1" class="char-part">
  <path d="M295 525 c-27 -7 -67 -14 -87 -14 -20 -1 -39 -5 -42 -10 -11 -17 40
-20 97 -5 86 22 95 17 58 -33 -17 -24 -26 -43 -20 -43 8 0 108 56 138 77 3 2
-2 10 -10 19 -22 21 -76 25 -134 9z"/>
</g>
<g id="part-2" class="char-part">
  <path d="M265 412 c4 -9 11 -34 15 -55 9 -44 14 -40 -109 -78 -39 -11 -71 -23
-71 -25 0 -2 14 -11 31 -20 30 -15 33 -15 90 15 65 34 62 36 59 -44 -3 -78 -7
-82 -65 -60 -13 5 -7 -6 20 -34 21 -22 44 -41 50 -41 22 0 38 56 43 146 l4 91
59 28 c70 34 70 44 -1 20 -28 -9 -54 -15 -57 -12 -3 4 -8 21 -12 38 -5 25 -13
35 -35 40 -23 7 -27 5 -21 -9z"/>
</g>
<g id="part-3" class="char-part">
  <path d="M570 575 c0 -2 14 -20 30 -39 30 -34 30 -34 8 -39 -13 -3 -53 -9 -90
-12 -38 -4 -68 -11 -68 -15 0 -18 36 -19 123 -5 51 8 119 15 152 16 33 1 74 5
90 9 l30 7 -30 12 c-22 9 -46 10 -87 4 -55 -9 -58 -9 -58 12 0 23 -45 55 -79
55 -12 0 -21 -2 -21 -5z"/>
</g>
<g id="part-4" class="char-part">
  <path d="M580 440 c-7 -17 -40 -55 -73 -84 -54 -49 -58 -55 -41 -64 14 -7 35
-6 74 4 30 8 62 14 72 14 9 0 20 5 24 11 5 9 -12 10 -62 5 l-69 -7 50 43 c106
93 101 87 85 98 -27 18 -47 11 -60 -20z"/>
</g>
<g id="part-5" class="char-part">
  <path d="M732 267 c-27 -28 -27 -34 -4 -34 24 0 52 26 45 43 -7 20 -16 18 -41
-9z"/>
  <path d="M670 199 c-17 -16 -33 -28 -35 -29 -15 0 -54 -34 -49 -42 3 -5 0 -9
-7 -7 -31 4 -43 -1 -32 -12 14 -14 77 17 67 33 -5 8 -1 9 10 5 10 -4 19 -1 22
8 4 8 10 12 15 9 5 -3 6 3 2 13 -6 16 -5 16 10 4 9 -7 18 -11 18 -7 1 3 2 10
3 15 0 5 5 13 10 18 6 5 6 2 1 -7 -8 -13 -7 -13 8 -1 9 7 17 17 17 21 0 16
-31 5 -60 -21z"/>
  <path d="M713 172 c1 -4 21 -26 45 -47 30 -27 46 -35 54 -27 13 13 0 35 -17
28 -7 -2 -12 2 -11 11 0 9 -5 18 -13 21 -9 3 -11 0 -7 -9 4 -8 1 -6 -8 5 -8
10 -19 15 -24 12 -6 -3 -13 -1 -15 4 -3 6 -5 7 -4 2z"/>
</g>
</g>
</svg>