<?xml version="1.0" standalone="no"?>
<!DOCTYPE svg PUBLIC "-//W3C//DTD SVG 20010904//EN"
 "http://www.w3.org/TR/2001/REC-SVG-20010904/DTD/svg10.dtd">
<svg version="1.0" xmlns="http://www.w3.org/2000/svg"
 width="96.000000pt" height="68.000000pt" viewBox="0 0 96.000000 68.000000"
 preserveAspectRatio="xMidYMid meet">
<metadata>
Created by potrace 1.16, written by Peter Selinger 2001-2019
Combined from part_0.svg through part_5.svg with named groups
</metadata>
<g transform="translate(0.000000,68.000000) scale(0.100000,-0.100000)" fill="#000000" stroke="none">
<g id="part-0" class="char-part">
  <path d="M314 623 c-12 -40 -46 -100 -74 -130 -62 -66 -19 -63 51 4 34 32 42
35 168 53 73 10 135 20 138 23 3 3 2 10 -2 16 -9 15 -67 13 -145 -4 -84 -19
-81 -19 -74 10 5 20 1 26 -21 35 -34 13 -35 13 -41 -7z"/>
  <path d="M460 510 c-14 -4 -43 -9 -65 -10 -22 -1 -49 -6 -60 -11 -14 -6 5 -8
60 -5 96 6 145 15 145 27 0 11 -45 10 -80 -1z"/>
  <path d="M410 443 c-200 -28 -218 -33 -174 -43 18 -4 91 1 165 11 74 10 142
19 151 19 14 0 17 -16 20 -122 3 -111 6 -129 31 -180 22 -45 36 -61 71 -77 44
-22 110 -27 135 -12 11 7 9 20 -12 71 l-25 63 -6 -39 c-11 -60 -19 -69 -57
-58 -51 15 -88 70 -100 148 -5 37 -7 77 -3 90 3 12 6 29 8 37 1 8 10 32 20 54
16 38 16 40 0 52 -21 15 -5 16 -224 -14z"/>
  <path d="M333 368 c-98 -13 -98 -33 0 -25 92 9 123 17 105 28 -7 5 -17 8 -23
8 -5 -1 -43 -6 -82 -11z"/>
  <path d="M323 295 l-17 -36 29 -24 c34 -28 45 -31 45 -12 0 8 -11 19 -25 25
-30 14 -31 22 -5 45 12 10 18 22 15 27 -11 19 -25 10 -42 -25z"/>
  <path d="M427 313 c-2 -10 -8 -25 -11 -34 -5 -12 5 -26 32 -48 33 -25 41 -28
46 -16 4 11 -6 23 -31 37 l-36 22 22 17 c11 9 21 22 21 28 0 18 -37 12 -43 -6z"/>
  <path d="M218 285 l-17 -34 34 -25 c38 -30 45 -31 45 -13 0 8 -11 19 -25 25
-30 14 -31 22 -5 45 12 10 18 22 15 27 -12 19 -30 9 -47 -25z"/>
  <path d="M318 187 c-96 -11 -118 -27 -38 -27 41 0 50 -3 50 -17 0 -34 -16 -42
-103 -49 -83 -6 -107 -16 -69 -28 9 -3 35 -1 57 4 22 5 109 13 193 16 83 4
152 10 152 14 0 16 -37 20 -115 14 l-82 -6 5 30 c4 27 8 31 41 34 38 3 51 22
16 24 -11 1 -59 -3 -107 -9z"/>
</g>
<g id="part-1" class="char-part">
  <path d="M310 604 c-6 -14 -10 -29 -10 -34 0 -5 -20 -34 -45 -65 -25 -30 -41
-55 -36 -55 6 0 35 20 65 44 53 44 56 45 174 60 66 9 123 16 126 16 3 0 6 4 6
9 0 20 -40 21 -133 3 -54 -10 -97 -17 -97 -15 0 2 5 13 10 23 8 15 6 21 -9 30
-30 16 -41 12 -51 -16z"/>
</g>
<g id="part-2" class="char-part">
  <path d="M470 450 c-58 -10 -140 -21 -182 -25 -43 -4 -78 -11 -78 -15 0 -19
56 -18 198 1 84 12 155 19 157 17 2 -2 5 -59 6 -127 1 -112 4 -128 28 -174 19
-37 38 -57 70 -74 49 -26 138 -32 146 -10 3 6 -6 39 -20 72 -13 33 -25 53 -25
45 0 -8 -5 -32 -11 -52 -12 -45 -40 -51 -83 -17 -69 54 -91 189 -48 299 21 51
21 56 5 68 -21 15 -31 14 -163 -8z"/>
</g>
<g id="part-3" class="char-part">
  <path d="M328 366 c-96 -16 -98 -30 -3 -23 93 8 127 16 119 28 -6 11 -28 10
-116 -5z"/>
</g>
<g id="part-4" class="char-part">
  <path d="M219 284 l-17 -35 33 -24 c36 -28 45 -31 45 -12 0 8 -11 19 -25 25
-30 14 -31 23 -5 47 11 10 17 22 14 26 -11 18 -30 7 -45 -27z"/>
</g>
<g id="part-5" class="char-part">
  <path d="M405 190 c-3 -5 -2 -10 4 -10 5 0 13 5 16 10 3 6 2 10 -4 10 -5 0
-13 -4 -16 -10z"/>
  <path d="M260 170 c-20 -7 -17 -9 20 -8 25 1 47 -2 48 -8 2 -5 8 -14 13 -21 7
-7 6 -14 -2 -19 -17 -10 16 -23 56 -22 l30 0 -30 7 c-27 6 -30 10 -30 44 0 37
0 37 -40 36 -22 -1 -51 -5 -65 -9z"/>
  <path d="M475 110 c-16 -4 -23 -8 -15 -9 8 -1 35 -4 60 -7 l45 -4 -29 15 c-15
8 -29 14 -30 14 0 -1 -14 -5 -31 -9z"/>
  <path d="M151 80 c8 -5 48 -5 89 0 l75 7 -89 1 c-51 0 -83 -4 -75 -8z"/>
</g>
</g>
</svg>