<?xml version="1.0" standalone="no"?>
<!DOCTYPE svg PUBLIC "-//W3C//DTD SVG 20010904//EN"
 "http://www.w3.org/TR/2001/REC-SVG-20010904/DTD/svg10.dtd">
<svg version="1.0" xmlns="http://www.w3.org/2000/svg"
 width="96.000000pt" height="68.000000pt" viewBox="0 0 96.000000 68.000000"
 preserveAspectRatio="xMidYMid meet">
<metadata>
Created by potrace 1.16, written by Peter Selinger 2001-2019
Combined from part_0.svg through part_5.svg with named groups
</metadata>
<g transform="translate(0.000000,68.000000) scale(0.100000,-0.100000)" fill="#000000" stroke="none">
<g id="part-0" class="char-part">
  <path d="M505 599 c-113 -14 -173 -17 -203 -10 -23 5 -44 5 -47 1 -2 -4 1 -24
7 -46 6 -23 8 -87 6 -154 -6 -133 -25 -195 -83 -266 -42 -51 -41 -63 3 -40 62
32 103 101 125 209 12 59 14 62 42 63 39 1 203 13 282 20 61 5 62 5 69 -21 8
-30 0 -191 -11 -216 -5 -14 -13 -15 -47 -7 -22 5 -42 7 -45 5 -7 -8 94 -87
111 -87 9 0 25 15 36 33 18 29 20 50 20 232 0 110 5 216 10 235 9 31 7 37 -12
52 -28 21 -57 21 -263 -3z m195 -38 c5 -11 10 -52 10 -91 0 -63 -2 -71 -17
-66 -10 3 -51 2 -90 -2 l-73 -8 0 33 c0 31 2 33 38 34 57 2 95 13 100 28 4 11
-5 13 -44 8 -27 -3 -57 -9 -66 -12 -16 -6 -18 -1 -18 38 0 46 0 46 38 50 91 9
111 7 122 -12z m-222 -48 l3 -43 -55 0 c-30 0 -58 -4 -61 -10 -4 -6 17 -10 54
-10 61 0 61 0 61 -29 0 -34 -17 -41 -104 -41 l-59 0 7 38 c3 20 6 56 6 80 0
51 18 62 95 59 l50 -2 3 -42z"/>
  <path d="M525 315 c-22 -8 -66 -14 -97 -14 -32 -1 -58 -5 -58 -11 0 -5 4 -10
9 -10 5 0 12 -17 16 -37 10 -53 24 -77 38 -64 7 5 47 11 90 12 62 3 77 6 77
19 0 8 9 33 21 55 20 37 20 39 3 52 -22 16 -46 15 -99 -2z m40 -57 c-4 -18 -9
-35 -11 -37 -3 -3 -31 -7 -64 -9 -55 -4 -60 -3 -61 17 -1 11 -2 27 -3 34 -1
13 43 23 107 26 38 1 39 1 32 -31z"/>
</g>
<g id="part-1" class="char-part">
  <path d="M560 599 c-85 -12 -176 -17 -220 -15 l-76 5 4 -133 c5 -170 -6 -228
-64 -312 -24 -35 -41 -64 -37 -64 4 0 21 10 38 22 74 50 115 172 115 337 0 54
5 94 13 104 9 14 39 19 137 27 69 5 151 10 183 10 l57 0 0 -217 c0 -120 -4
-224 -9 -231 -6 -9 -20 -12 -47 -7 l-39 7 42 -41 c23 -23 47 -41 52 -41 6 0
19 9 30 21 18 19 20 40 24 243 3 121 8 233 12 249 7 24 4 29 -29 42 -19 8 -37
14 -38 14 -2 -1 -68 -10 -148 -20z"/>
</g>
<g id="part-2" class="char-part">
  <path d="M478 520 l5 -50 -49 0 c-27 0 -56 -5 -64 -10 -11 -7 3 -10 48 -10 62
0 62 0 62 -29 0 -34 -17 -41 -102 -41 -47 0 -58 -3 -58 -16 0 -14 8 -16 48
-10 26 3 112 11 192 17 79 5 147 12 149 15 15 14 -32 22 -101 17 l-78 -6 0 30
c0 29 2 30 58 36 70 8 94 16 86 29 -4 6 -31 7 -70 3 l-64 -7 0 41 c0 40 -1 41
-34 41 l-33 0 5 -50z"/>
</g>
<g id="part-3" class="char-part">
  <path d="M525 315 c-27 -8 -77 -14 -109 -15 -56 0 -58 -1 -43 -17 8 -10 21
-39 27 -65 12 -47 23 -58 35 -38 3 6 30 10 59 10 66 0 117 10 110 21 -2 5 5
27 16 50 12 23 18 45 13 49 -17 17 -59 19 -108 5z m40 -57 c-4 -18 -8 -34 -9
-35 -2 -2 -30 -6 -64 -9 -58 -6 -62 -6 -63 15 -1 11 -2 27 -3 34 -1 13 43 23
107 26 38 1 39 1 32 -31z"/>
</g>
</g>
</svg>