<?xml version="1.0" standalone="no"?>
<!DOCTYPE svg PUBLIC "-//W3C//DTD SVG 20010904//EN"
 "http://www.w3.org/TR/2001/REC-SVG-20010904/DTD/svg10.dtd">
<svg version="1.0" xmlns="http://www.w3.org/2000/svg"
 width="96.000000pt" height="68.000000pt" viewBox="0 0 96.000000 68.000000"
 preserveAspectRatio="xMidYMid meet">
<metadata>
Created by potrace 1.16, written by Peter Selinger 2001-2019
Combined from part_0.svg through part_5.svg with named groups
</metadata>
<g transform="translate(0.000000,68.000000) scale(0.100000,-0.100000)" fill="#000000" stroke="none">
<g id="part-0" class="char-part">
  <path d="M517 558 c2 -24 1 -61 -4 -83 -8 -38 -12 -41 -58 -52 l-50 -11 44 -1
c40 -1 43 -3 37 -23 -3 -13 -6 -26 -6 -30 0 -5 -11 -8 -24 -8 -40 0 -86 -12
-80 -21 3 -5 23 -9 45 -9 l40 0 -21 -27 c-12 -16 -37 -41 -57 -57 l-35 -29 3
158 c3 183 3 184 -81 159 -40 -12 -59 -13 -76 -5 -38 17 -54 5 -43 -32 24 -86
-1 -294 -46 -375 -14 -25 -23 -47 -20 -50 3 -3 25 15 49 40 33 35 45 56 50 92
4 25 10 47 14 50 4 2 29 7 55 11 l48 7 -7 -73 c-3 -41 -8 -77 -11 -81 -2 -4
-15 -3 -30 3 -42 16 -40 1 5 -44 l42 -42 22 23 c17 17 23 36 26 87 2 36 8 65
14 65 22 0 83 51 122 103 36 47 77 50 128 10 19 -16 47 -37 62 -48 16 -11 34
-26 41 -32 14 -13 117 -18 128 -7 4 4 -24 17 -61 30 -68 23 -157 68 -167 85
-4 5 18 9 49 9 31 0 56 4 56 9 0 17 -50 21 -121 10 -39 -6 -73 -8 -76 -5 -4 3
0 17 7 31 10 19 24 26 62 31 67 9 76 28 9 22 -58 -6 -57 -7 -40 72 12 55 2 80
-31 80 -15 0 -17 -7 -13 -42z m-219 -115 c3 -39 1 -43 -20 -43 -13 0 -33 -3
-45 -6 -21 -6 -23 -3 -23 39 0 49 9 57 60 54 22 -2 25 -7 28 -44z m2 -107 c0
-31 -3 -35 -32 -41 -18 -4 -41 -9 -50 -11 -14 -4 -18 1 -18 23 0 40 10 51 50
56 19 2 38 5 43 5 4 1 7 -13 7 -32z"/>
  <path d="M631 515 c-30 -33 -22 -40 26 -25 62 20 69 33 23 44 -19 5 -31 0 -49
-19z"/>
  <path d="M411 492 c17 -27 39 -36 53 -22 13 13 -1 27 -37 36 -27 6 -28 6 -16
-14z"/>
  <path d="M510 263 c0 -41 -13 -54 -58 -60 -46 -6 -47 -23 -1 -23 16 0 29 -4
29 -8 0 -12 -46 -73 -76 -101 -14 -12 -23 -26 -20 -29 11 -10 80 54 116 106
33 48 37 51 79 52 l44 0 -7 -42 c-9 -54 -42 -91 -73 -83 -27 6 -28 2 -7 -30 9
-14 25 -25 35 -25 25 0 67 47 75 84 4 17 14 46 23 64 15 32 15 35 -4 49 -15
10 -33 13 -69 8 -44 -5 -48 -4 -42 12 4 10 8 20 8 23 2 22 -6 30 -27 30 -21 0
-25 -5 -25 -27z"/>
</g>
<g id="part-1" class="char-part">
  <path d="M270 519 c-14 -6 -45 -8 -70 -5 l-45 6 3 -113 c5 -155 -5 -205 -66
-331 -3 -5 7 0 21 10 33 24 63 78 72 127 8 42 10 43 73 50 l42 5 0 -71 c0 -87
-7 -101 -45 -91 l-28 7 19 -26 c32 -43 54 -52 75 -30 16 16 18 42 20 243 l3
225 -24 2 c-14 1 -36 -2 -50 -8z m30 -69 c0 -55 1 -54 -52 -58 -47 -3 -48 -3
-48 25 0 62 9 73 56 73 l44 0 0 -40z m3 -117 c-3 -21 -6 -39 -7 -39 -1 -1 -22
-5 -48 -8 l-48 -7 0 40 c0 43 6 47 77 50 31 1 32 0 26 -36z"/>
</g>
<g id="part-2" class="char-part">
  <path d="M517 562 c6 -45 -21 -160 -53 -223 -12 -25 -46 -67 -75 -93 -28 -25
-45 -46 -38 -46 27 0 88 46 124 92 41 55 60 102 82 207 14 71 14 75 -3 88 -32
23 -43 16 -37 -25z"/>
  <path d="M635 523 c-39 -53 -39 -53 8 -39 24 7 52 18 62 23 17 10 16 12 -13
27 -38 20 -33 21 -57 -11z"/>
  <path d="M412 488 c18 -27 58 -37 58 -14 0 17 -29 36 -56 36 -15 0 -15 -2 -2
-22z"/>
  <path d="M582 335 c3 -3 38 -30 78 -60 67 -50 78 -55 126 -55 68 0 76 14 16
30 -26 6 -81 29 -122 51 -65 34 -115 51 -98 34z"/>
</g>
<g id="part-3" class="char-part">
  <path d="M510 478 c0 -34 -11 -44 -60 -55 l-45 -11 37 -1 c42 -1 49 -8 38 -37
-7 -17 -20 -24 -59 -29 -56 -8 -60 -25 -5 -25 31 0 34 -2 24 -19 -18 -35 9
-34 41 1 30 32 36 33 138 43 95 9 104 12 83 23 -18 11 -38 11 -98 2 -42 -6
-78 -10 -80 -7 -3 2 0 16 7 30 9 20 21 27 60 32 68 10 77 29 10 23 -51 -5 -51
-5 -51 23 0 22 -5 29 -20 29 -14 0 -20 -7 -20 -22z"/>
</g>
<g id="part-4" class="char-part">
  <path d="M580 223 c-39 -7 -51 -25 -15 -23 57 4 58 3 51 -41 -4 -22 -14 -52
-23 -66 -14 -21 -21 -24 -52 -18 l-36 6 32 -32 c30 -30 34 -32 57 -19 27 14
28 15 62 110 22 60 22 66 7 78 -17 12 -36 13 -83 5z"/>
</g>
</g>
</svg>