<?xml version="1.0" standalone="no"?>
<!DOCTYPE svg PUBLIC "-//W3C//DTD SVG 20010904//EN"
 "http://www.w3.org/TR/2001/REC-SVG-20010904/DTD/svg10.dtd">
<svg version="1.0" xmlns="http://www.w3.org/2000/svg"
 width="96.000000pt" height="68.000000pt" viewBox="0 0 96.000000 68.000000"
 preserveAspectRatio="xMidYMid meet">
<metadata>
Created by potrace 1.16, written by Peter Selinger 2001-2019
Combined from part_0.svg through part_5.svg with named groups
</metadata>
<g transform="translate(0.000000,68.000000) scale(0.100000,-0.100000)" fill="#000000" stroke="none">
<g id="part-0" class="char-part">
  <path d="M562 584 c-13 -9 -46 -25 -75 -35 l-52 -20 50 6 c28 3 74 13 104 21
49 14 52 16 35 29 -25 19 -35 18 -62 -1z"/>
  <path d="M235 535 c-16 -8 -41 -14 -55 -15 l-25 0 3 -132 c2 -73 -1 -174 -8
-225 -12 -98 -4 -138 25 -127 12 5 15 29 16 113 1 58 4 160 8 226 l6 119 33 7
c37 8 37 9 17 -39 -13 -31 -14 -38 -2 -47 24 -18 49 -64 43 -80 -4 -11 -13
-14 -33 -9 -28 6 -27 6 5 -15 41 -26 58 -26 72 0 10 17 6 27 -26 65 -34 42
-36 47 -23 71 7 13 26 34 41 45 48 33 32 59 -35 57 -18 0 -45 -7 -62 -14z"/>
  <path d="M644 509 l-29 -31 35 7 c19 4 43 12 53 17 18 9 18 10 0 23 -25 19
-25 19 -59 -16z"/>
  <path d="M490 512 c0 -16 32 -52 46 -52 22 0 17 27 -8 44 -25 17 -38 20 -38 8z"/>
  <path d="M392 478 c18 -26 48 -36 48 -16 0 20 -21 38 -43 38 -18 0 -18 -2 -5
-22z"/>
  <path d="M508 436 c-92 -13 -111 -26 -40 -26 45 0 52 -3 52 -19 0 -17 -10 -21
-71 -27 -53 -5 -67 -9 -54 -16 11 -7 50 -6 110 1 51 6 121 11 154 11 34 0 61
4 61 9 0 16 -32 21 -96 15 -60 -6 -64 -5 -64 13 0 17 9 22 55 28 30 3 53 11
50 16 -7 11 -56 10 -157 -5z"/>
  <path d="M595 329 c-16 -5 -65 -12 -109 -15 -52 -5 -73 -10 -62 -16 9 -5 53
-4 105 2 92 12 111 9 111 -14 0 -10 -23 -16 -77 -20 -101 -9 -237 -27 -242
-32 -13 -13 44 -16 118 -6 167 22 191 24 191 15 -1 -24 -24 -32 -119 -41 -57
-6 -106 -13 -109 -16 -7 -8 217 -7 244 0 16 4 19 12 16 35 l-4 29 77 0 c69 0
76 2 64 16 -8 10 -27 15 -53 14 -67 -3 -70 -2 -56 15 10 12 10 18 0 30 -14 17
-49 18 -95 4z"/>
  <path d="M500 151 c0 -15 59 -53 70 -46 19 12 10 26 -25 41 -40 17 -45 17 -45
5z"/>
  <path d="M697 154 c-8 -8 68 -64 87 -64 8 0 17 7 20 16 4 10 -4 19 -27 28 -51
21 -73 27 -80 20z"/>
  <path d="M312 105 c-23 -47 -20 -78 7 -73 19 4 42 67 34 97 -8 31 -17 26 -41
-24z"/>
  <path d="M410 131 c0 -22 50 -78 85 -95 78 -37 235 -28 243 14 1 9 -12 23 -33
34 -19 11 -35 23 -35 28 0 4 -5 8 -11 8 -7 0 -9 -9 -6 -22 9 -35 -10 -48 -70
-48 -69 0 -116 20 -139 59 -18 30 -34 41 -34 22z"/>
</g>
<g id="part-1" class="char-part">
  <path d="M238 533 c-50 -21 -48 -35 3 -27 l40 7 -15 -38 c-20 -47 -20 -55 -1
-55 8 0 15 6 15 13 0 7 16 28 35 47 41 39 44 55 13 64 -32 8 -48 6 -90 -11z"/>
</g>
<g id="part-2" class="char-part">
  <path d="M158 393 c3 -74 -1 -176 -7 -228 -12 -92 -6 -135 18 -135 16 0 20 42
27 266 l7 221 -24 5 -24 4 3 -133z"/>
</g>
<g id="part-3" class="char-part">
  <path d="M564 586 c-11 -8 -47 -24 -80 -36 l-59 -21 55 5 c30 3 80 12 110 21
50 16 53 18 35 31 -24 18 -35 18 -61 0z"/>
  <path d="M640 505 l-34 -35 54 16 c66 19 66 20 50 39 -19 23 -33 19 -70 -20z"/>
  <path d="M490 512 c0 -16 32 -52 46 -52 24 0 16 36 -11 48 -31 14 -35 15 -35
4z"/>
  <path d="M380 492 c0 -12 34 -42 48 -42 16 0 15 23 0 38 -14 14 -48 16 -48 4z"/>
</g>
<g id="part-4" class="char-part">
  <path d="M513 437 c-91 -11 -111 -27 -34 -27 43 0 49 -2 44 -19 -4 -16 -18
-20 -76 -26 -49 -5 -66 -10 -54 -16 9 -6 51 -5 104 1 48 5 118 10 156 10 37 0
67 4 67 9 0 17 -35 22 -98 15 -59 -6 -64 -5 -60 12 2 14 17 21 56 29 30 5 50
13 46 18 -9 8 -41 7 -151 -6z"/>
</g>
<g id="part-5" class="char-part">
  <path d="M520 141 c0 -12 23 -31 37 -31 21 0 15 14 -12 27 -14 6 -25 8 -25 4z"/>
  <path d="M728 132 c11 -11 30 -25 41 -31 17 -10 20 -9 14 5 -5 13 -3 15 7 9 9
-6 11 -4 5 4 -4 7 -16 11 -26 8 -11 -3 -17 -1 -13 4 3 5 1 9 -5 9 -5 0 -17 3
-27 7 -14 5 -14 3 4 -15z"/>
  <path d="M317 105 c-19 -41 -22 -65 -6 -65 5 0 7 4 4 10 -3 5 0 7 8 4 15 -5
27 22 27 64 0 32 -14 27 -33 -13z"/>
  <path d="M440 88 c0 -15 50 -56 50 -41 0 5 4 3 8 -4 4 -7 24 -14 44 -17 21 -2
46 -7 57 -11 22 -7 141 23 141 35 0 7 -65 50 -75 50 -3 0 -2 -6 0 -12 11 -29
-13 -42 -73 -42 -64 1 -119 17 -139 42 -12 14 -13 14 -13 0z"/>
</g>
</g>
</svg>