<?xml version="1.0" standalone="no"?>
<!DOCTYPE svg PUBLIC "-//W3C//DTD SVG 20010904//EN"
 "http://www.w3.org/TR/2001/REC-SVG-20010904/DTD/svg10.dtd">
<svg version="1.0" xmlns="http://www.w3.org/2000/svg"
 width="96.000000pt" height="68.000000pt" viewBox="0 0 96.000000 68.000000"
 preserveAspectRatio="xMidYMid meet">
<metadata>
Created by potrace 1.16, written by Peter Selinger 2001-2019
Combined from part_0.svg through part_5.svg with named groups
</metadata>
<g transform="translate(0.000000,68.000000) scale(0.100000,-0.100000)" fill="#000000" stroke="none">
<g id="part-0" class="char-part">
  <path d="M585 543 c23 -63 11 -262 -20 -323 -8 -16 -33 -48 -55 -71 -22 -23
-39 -44 -37 -45 2 -2 21 5 43 16 42 21 91 86 101 133 3 15 9 27 12 27 4 0 25
-37 46 -82 22 -45 49 -90 59 -100 21 -19 71 -24 96 -8 16 10 17 9 -30 38 -62
37 -168 161 -155 182 3 5 32 25 65 45 59 36 69 58 30 68 -13 3 -27 -8 -49 -39
-52 -71 -55 -69 -49 50 5 96 4 107 -12 116 -30 16 -53 13 -45 -7z"/>
  <path d="M428 534 c-7 -8 -25 -28 -40 -43 -33 -33 -35 -41 -9 -34 13 3 20 -2
24 -19 14 -50 9 -56 -45 -66 l-53 -10 43 -1 c23 0 42 -6 42 -11 0 -22 -31 -83
-61 -121 -43 -54 -19 -49 37 9 30 31 44 40 41 27 -12 -45 -17 -181 -8 -195 20
-30 34 8 39 110 l5 101 22 -21 c27 -25 35 -25 35 -1 0 11 -12 23 -31 31 -26
11 -30 17 -27 44 3 27 7 31 36 34 45 5 44 32 -2 32 -29 0 -33 3 -29 20 3 12
-2 29 -12 40 -17 19 -17 20 19 35 40 17 43 33 8 46 -15 6 -26 4 -34 -7z"/>
  <path d="M190 500 c-14 -4 -42 -8 -64 -9 -38 -1 -38 -2 -32 -32 3 -17 6 -95 6
-173 0 -133 10 -187 28 -159 4 6 27 13 51 14 38 3 46 0 54 -19 12 -27 28 -28
45 -2 19 32 21 368 2 380 -18 11 -55 11 -90 0z m50 -69 c0 -38 -1 -39 -41 -43
-22 -2 -42 -2 -45 1 -2 2 -4 22 -4 43 l0 38 45 0 45 0 0 -39z m0 -103 c0 -32
-1 -33 -45 -35 l-45 -2 0 34 c0 35 0 35 45 35 44 0 45 -1 45 -32z m4 -92 c10
-51 0 -64 -52 -68 -26 -3 -49 -3 -51 -2 -2 2 0 23 3 48 6 41 10 45 39 49 18 2
37 5 43 5 7 1 15 -13 18 -32z"/>
  <path d="M510 352 c0 -19 26 -62 38 -62 15 0 16 42 0 58 -14 14 -38 16 -38 4z"/>
</g>
<g id="part-1" class="char-part">
  <path d="M210 500 c-14 -4 -46 -8 -72 -9 l-46 -1 10 -37 c6 -22 8 -79 5 -135
-6 -91 -5 -98 13 -98 12 0 20 8 22 23 3 19 10 22 56 25 47 3 52 1 52 -17 0
-22 7 -26 27 -13 14 9 21 238 7 251 -15 15 -48 19 -74 11z m28 -32 c7 -7 12
-27 12 -45 0 -26 -4 -33 -19 -33 -10 0 -33 -3 -50 -6 l-31 -6 0 45 c0 39 3 46
23 50 41 8 53 7 65 -5z m7 -138 c0 -34 -1 -35 -49 -41 -53 -6 -63 3 -52 45 5
19 14 26 39 29 57 7 62 4 62 -33z"/>
</g>
<g id="part-2" class="char-part">
  <path d="M257 232 c-2 -4 -7 -19 -11 -34 -5 -23 -11 -26 -56 -30 l-50 -3 0 32
c0 26 -3 30 -20 26 -16 -4 -20 -14 -20 -47 0 -22 5 -48 10 -56 8 -13 11 -13
22 2 7 9 30 18 52 20 32 4 40 1 49 -19 23 -50 57 -14 57 60 0 30 -5 47 -15 50
-8 4 -16 3 -18 -1z"/>
</g>
<g id="part-3" class="char-part">
  <path d="M388 499 c-44 -46 -45 -49 -20 -43 40 10 122 53 122 64 0 8 -46 33
-53 29 -1 -1 -23 -23 -49 -50z"/>
</g>
<g id="part-4" class="char-part">
  <path d="M405 426 l7 -44 -54 -10 -53 -10 43 -1 c31 -1 42 -5 42 -16 0 -24
-37 -90 -71 -130 -17 -19 -28 -35 -25 -35 16 0 59 36 87 74 30 40 31 41 26 11
-3 -16 -9 -64 -12 -106 -5 -60 -3 -78 8 -88 23 -18 27 -3 34 109 l6 101 22
-21 c27 -25 35 -25 35 -1 0 11 -12 23 -30 31 -24 10 -30 19 -30 42 0 29 3 31
54 43 23 5 27 8 15 16 -7 5 -24 9 -36 9 -19 0 -23 6 -23 29 0 27 -14 41 -41
41 -6 0 -8 -17 -4 -44z"/>
</g>
<g id="part-5" class="char-part">
  <path d="M597 553 c-10 -9 -9 -35 1 -30 12 8 2 -238 -11 -260 -4 -6 -4 -19 0
-30 3 -10 2 -15 -2 -11 -8 8 -43 -39 -41 -55 1 -4 -14 -17 -32 -29 -18 -11
-31 -22 -29 -25 10 -9 76 44 77 62 1 12 4 15 7 7 3 -9 12 -3 25 18 10 18 17
39 14 46 -3 8 -1 14 4 14 6 0 10 7 10 16 0 10 5 14 16 10 10 -4 13 -2 7 7 -4
6 -8 64 -8 127 0 63 -4 116 -9 117 -5 1 -12 6 -16 12 -3 6 -9 8 -13 4z"/>
  <path d="M715 404 c-9 -9 -14 -23 -11 -30 3 -9 -1 -11 -12 -7 -9 3 -14 3 -10
-2 4 -4 0 -14 -10 -22 -9 -8 -2 -7 17 4 19 10 34 23 33 28 0 6 7 18 15 28 20
22 0 23 -22 1z"/>
  <path d="M735 390 c-3 -5 -2 -10 4 -10 5 0 13 5 16 10 3 6 2 10 -4 10 -5 0
-13 -4 -16 -10z"/>
  <path d="M517 354 c7 -3 9 -12 6 -21 -5 -12 -3 -14 7 -8 10 6 12 4 7 -8 -7
-18 8 -24 18 -7 7 11 -25 50 -40 49 -5 0 -5 -3 2 -5z"/>
  <path d="M661 251 c-1 -16 49 -113 64 -123 6 -4 6 -8 1 -8 -6 0 -1 -7 10 -15
24 -18 60 -19 67 -1 6 16 -19 30 -35 19 -6 -3 -8 -2 -5 4 4 6 -9 24 -28 42
-19 17 -35 37 -35 43 0 6 -3 8 -7 4 -4 -3 -12 6 -19 21 -7 16 -13 22 -13 14z"/>
</g>
</g>
</svg>