<?xml version="1.0" standalone="no"?>
<!DOCTYPE svg PUBLIC "-//W3C//DTD SVG 20010904//EN"
 "http://www.w3.org/TR/2001/REC-SVG-20010904/DTD/svg10.dtd">
<svg version="1.0" xmlns="http://www.w3.org/2000/svg"
 width="96.000000pt" height="68.000000pt" viewBox="0 0 96.000000 68.000000"
 preserveAspectRatio="xMidYMid meet">
<metadata>
Created by potrace 1.16, written by Peter Selinger 2001-2019
Combined from part_0.svg through part_5.svg with named groups
</metadata>
<g transform="translate(0.000000,68.000000) scale(0.100000,-0.100000)" fill="#000000" stroke="none">
<g id="part-0" class="char-part">
  <path d="M413 616 c3 -8 9 -42 13 -75 l7 -61 -34 -1 c-19 0 -42 -2 -52 -4 -17
-3 -17 -2 -2 22 15 23 15 26 -1 44 -25 28 -50 24 -57 -10 -3 -15 -26 -58 -52
-95 l-45 -67 37 20 c21 11 49 29 62 42 18 17 36 22 80 23 l56 1 3 -46 3 -46
-93 -7 c-122 -9 -159 -16 -151 -28 4 -7 42 -8 109 -4 57 4 104 3 103 -1 -1
-17 -113 -102 -194 -148 -47 -26 -84 -50 -82 -52 7 -6 138 46 182 72 22 13 55
38 73 56 18 17 36 28 39 25 4 -3 1 -46 -5 -95 -13 -93 -4 -141 24 -141 20 0
26 29 31 148 l6 114 56 -54 c105 -101 116 -108 179 -107 31 1 71 4 87 8 27 6
20 10 -74 45 -56 22 -119 50 -137 63 -19 12 -38 23 -42 23 -15 1 -63 51 -57
60 3 6 45 10 93 11 48 1 98 4 112 8 l25 7 -24 13 c-24 14 -167 10 -205 -5 -13
-5 -16 2 -16 39 l0 44 75 12 c98 16 100 35 4 29 l-71 -5 7 53 c6 51 5 53 -24
68 -37 20 -55 20 -48 2z"/>
</g>
<g id="part-1" class="char-part">
  <path d="M290 535 c0 -22 -27 -73 -62 -117 -16 -21 -27 -38 -23 -38 16 0 93
62 122 98 30 37 31 42 17 56 -20 21 -54 21 -54 1z"/>
</g>
<g id="part-2" class="char-part">
  <path d="M414 608 c3 -13 9 -47 12 -75 l7 -53 -30 0 c-44 0 -93 -11 -93 -21 0
-5 27 -9 60 -9 57 0 60 -1 60 -25 0 -37 38 -35 42 2 3 29 11 32 111 48 20 3
37 11 37 17 0 7 -23 9 -71 6 l-70 -5 6 52 c6 47 5 54 -16 69 -13 9 -32 16 -42
16 -15 0 -18 -5 -13 -22z"/>
</g>
<g id="part-3" class="char-part">
  <path d="M427 381 c-4 -16 -19 -19 -103 -26 -115 -8 -146 -14 -138 -26 6 -11
87 -11 162 0 28 4 52 5 52 1 0 -8 -68 -72 -113 -105 -21 -15 -70 -45 -110 -66
-82 -44 -82 -45 -6 -23 76 23 146 59 202 106 l47 39 0 -26 c0 -14 -5 -56 -11
-93 -12 -73 -2 -122 25 -122 21 0 27 28 35 151 l6 108 59 -57 c97 -94 111
-102 180 -101 34 1 75 4 91 8 28 6 25 8 -40 30 -96 31 -202 83 -249 122 -35
29 -37 34 -20 40 10 4 46 8 79 8 75 1 135 11 135 22 0 15 -69 21 -150 12 -65
-7 -83 -7 -87 4 -8 20 -40 16 -46 -6z"/>
</g>
</g>
</svg>