<?xml version="1.0" standalone="no"?>
<!DOCTYPE svg PUBLIC "-//W3C//DTD SVG 20010904//EN"
 "http://www.w3.org/TR/2001/REC-SVG-20010904/DTD/svg10.dtd">
<svg version="1.0" xmlns="http://www.w3.org/2000/svg"
 width="96.000000pt" height="68.000000pt" viewBox="0 0 96.000000 68.000000"
 preserveAspectRatio="xMidYMid meet">
<metadata>
Created by potrace 1.16, written by Peter Selinger 2001-2019
Combined from part_0.svg through part_5.svg with named groups
</metadata>
<g transform="translate(0.000000,68.000000) scale(0.100000,-0.100000)" fill="#000000" stroke="none">
<g id="part-0" class="char-part">
  <path d="M408 615 c-3 -3 -1 -25 5 -49 15 -66 7 -76 -57 -76 l-54 0 2 32 c1
26 -3 32 -27 39 -27 7 -28 6 -25 -21 1 -15 -4 -40 -12 -54 -12 -23 -12 -29 3
-43 15 -15 21 -15 89 0 40 9 113 22 162 28 79 10 90 9 98 -5 16 -29 35 -17 55
38 23 61 17 76 -28 76 -26 0 -27 -2 -22 -33 5 -34 5 -34 -42 -40 -89 -13 -88
-13 -83 43 4 42 2 53 -13 60 -19 11 -43 13 -51 5z"/>
  <path d="M595 430 c-16 -4 -56 -13 -89 -20 -39 -8 -55 -15 -48 -22 7 -7 31 -5
74 6 96 24 107 20 68 -22 -13 -14 -33 -22 -52 -22 l-31 0 23 -25 c13 -14 22
-27 19 -29 -2 -2 -22 -7 -44 -10 -74 -11 -95 -18 -89 -27 3 -5 13 -8 22 -5 10
3 37 6 61 8 l44 3 4 -72 c3 -65 1 -73 -15 -73 -10 0 -26 6 -36 13 -14 10 -15
18 -7 39 11 29 6 38 -19 38 -12 0 -21 -14 -29 -45 -7 -30 -26 -60 -54 -90 -24
-25 -39 -45 -33 -45 16 0 76 38 76 48 0 19 42 53 53 44 7 -6 52 -33 101 -61
96 -55 137 -62 206 -36 l35 12 -37 7 c-21 3 -53 8 -72 11 -19 3 -58 12 -86 21
-51 15 -51 16 -48 52 3 36 4 37 51 42 59 6 58 26 0 22 l-43 -3 0 45 c0 46 0
46 35 46 28 0 35 -4 35 -20 0 -24 6 -25 56 -4 l39 16 -25 20 c-18 15 -36 19
-79 17 -51 -3 -56 -1 -59 19 -3 17 7 26 47 47 28 14 51 29 51 34 0 9 -46 31
-63 30 -7 0 -25 -4 -42 -9z"/>
  <path d="M203 384 c7 -70 23 -79 123 -78 46 0 87 4 91 7 15 16 -14 22 -95 22
-68 0 -87 3 -87 14 0 8 12 16 30 18 88 9 115 15 115 25 0 10 -55 7 -123 -8
-26 -6 -28 -5 -21 20 5 22 3 26 -16 26 -21 0 -22 -3 -17 -46z"/>
  <path d="M210 276 c0 -8 -12 -28 -26 -45 -18 -22 -22 -31 -11 -31 8 0 20 7 27
16 18 21 65 14 65 -10 0 -26 -19 -34 -99 -41 -49 -5 -65 -10 -57 -18 12 -12
50 -13 104 -3 23 4 37 3 37 -3 0 -18 -64 -83 -95 -98 l-30 -14 43 5 c35 3 50
12 82 47 l39 43 38 -27 c23 -17 41 -23 47 -17 9 9 -9 40 -25 40 -4 0 -20 5
-34 10 -43 16 -15 40 46 40 27 0 49 5 49 10 0 6 -22 10 -50 10 -47 0 -50 2
-50 25 0 22 4 25 35 25 19 0 35 5 35 11 0 8 -19 9 -64 4 -58 -6 -64 -5 -63 12
1 12 -6 19 -20 21 -15 2 -23 -2 -23 -12z"/>
</g>
<g id="part-1" class="char-part">
  <path d="M417 555 l6 -63 -62 -7 c-34 -4 -65 -5 -67 -2 -3 3 -1 14 5 25 9 16
7 24 -5 36 -23 24 -47 21 -39 -5 4 -11 1 -34 -6 -50 -10 -25 -9 -33 2 -44 12
-13 21 -12 64 1 28 8 101 20 163 28 94 10 115 10 119 -1 10 -27 32 -12 47 33
18 53 16 60 -19 67 -25 4 -26 2 -23 -32 l3 -36 -72 -3 -72 -3 2 52 c2 49 0 53
-25 60 l-27 7 6 -63z"/>
</g>
<g id="part-2" class="char-part">
  <path d="M197 398 c2 -18 6 -43 9 -55 6 -31 63 -47 142 -40 69 7 78 10 68 26
-4 6 -38 8 -90 4 -59 -4 -85 -2 -91 6 -10 17 -7 19 70 31 87 14 116 35 35 26
-30 -3 -67 -9 -83 -12 -24 -6 -27 -4 -25 17 2 18 -3 25 -18 27 -18 3 -20 -1
-17 -30z"/>
</g>
<g id="part-3" class="char-part">
  <path d="M270 212 c0 -30 -19 -39 -99 -47 -68 -7 -73 -9 -55 -22 18 -14 53
-13 112 3 14 4 22 2 22 -7 0 -17 -87 -99 -105 -99 -8 0 -15 -4 -15 -10 0 -29
98 16 132 60 l26 33 32 -26 c35 -30 60 -35 60 -13 0 18 -38 46 -62 46 -10 0
-18 6 -18 14 0 16 30 26 78 26 23 0 32 4 29 13 -2 8 -19 11 -49 9 -40 -3 -46
-1 -45 15 1 12 -6 19 -20 21 -17 3 -23 -2 -23 -16z"/>
</g>
<g id="part-4" class="char-part">
  <path d="M453 167 c-8 -27 -30 -64 -60 -97 l-47 -53 34 17 c19 10 51 35 70 57
l35 39 45 -28 c130 -82 152 -92 193 -91 23 0 57 6 76 13 33 12 33 12 -56 28
-49 8 -125 31 -169 50 -76 34 -79 37 -79 69 0 52 -28 50 -42 -4z"/>
</g>
</g>
</svg>