<?xml version="1.0" standalone="no"?>
<!DOCTYPE svg PUBLIC "-//W3C//DTD SVG 20010904//EN"
 "http://www.w3.org/TR/2001/REC-SVG-20010904/DTD/svg10.dtd">
<svg version="1.0" xmlns="http://www.w3.org/2000/svg"
 width="96.000000pt" height="68.000000pt" viewBox="0 0 96.000000 68.000000"
 preserveAspectRatio="xMidYMid meet">
<metadata>
Created by potrace 1.16, written by Peter Selinger 2001-2019
Combined from part_0.svg through part_5.svg with named groups
</metadata>
<g transform="translate(0.000000,68.000000) scale(0.100000,-0.100000)" fill="#000000" stroke="none">
<g id="part-0" class="char-part">
  <path d="M634 588 c-4 -13 -15 -34 -26 -47 -37 -48 -9 -38 62 22 27 23 31 30
19 38 -24 15 -47 10 -55 -13z"/>
  <path d="M210 562 c0 -5 14 -28 31 -51 34 -48 62 -52 67 -9 3 22 -3 32 -30 48
-34 21 -68 26 -68 12z"/>
  <path d="M460 564 c0 -15 43 -64 56 -64 22 0 17 37 -8 54 -23 16 -48 21 -48
10z"/>
  <path d="M625 495 c-33 -8 -88 -17 -122 -20 -35 -4 -63 -11 -63 -16 0 -5 8 -9
19 -9 24 0 45 -25 37 -45 -3 -10 -19 -15 -46 -15 -22 0 -40 -5 -40 -11 0 -6
17 -9 43 -7 36 2 42 0 45 -18 3 -20 -3 -22 -63 -29 -41 -4 -63 -10 -59 -17 4
-6 30 -8 65 -5 57 5 59 4 59 -19 0 -22 -4 -24 -45 -24 -25 0 -45 -4 -45 -10 0
-5 16 -10 35 -10 41 0 41 -3 -20 -74 -22 -26 -53 -55 -70 -63 -17 -9 -25 -18
-17 -20 16 -6 116 60 137 90 15 21 16 17 13 -58 -2 -66 0 -80 12 -80 12 0 17
23 24 108 l9 107 30 0 30 0 -5 -105 c-3 -75 -1 -111 8 -123 21 -29 29 -4 31
105 1 58 4 107 7 110 2 3 26 -23 53 -58 73 -95 80 -101 119 -97 47 4 44 18 -9
45 -25 13 -71 48 -102 78 l-57 53 46 7 c26 4 45 12 44 19 -1 6 2 21 6 34 6 19
14 22 62 22 30 0 54 4 54 9 0 10 -34 21 -68 21 -18 0 -22 4 -18 18 9 26 -29
41 -87 35 -46 -5 -47 -5 -45 21 2 27 8 31 71 42 20 3 37 10 37 15 0 12 -42 10
-115 -6z m-40 -56 c8 -25 6 -28 -26 -31 -20 -3 -25 2 -27 25 -3 23 0 27 22 27
16 0 27 -7 31 -21z m122 -54 c7 -21 2 -25 -41 -32 -34 -5 -36 -4 -36 21 0 23
4 26 35 26 23 0 38 -6 42 -15z m-117 -20 c0 -21 -5 -25 -30 -25 -23 0 -30 5
-30 19 0 18 14 27 48 30 6 0 12 -10 12 -24z m110 -43 c0 -15 -24 -32 -47 -32
-22 0 -31 19 -16 33 9 10 63 9 63 -1z m-110 -21 c0 -19 -18 -31 -46 -31 -8 0
-14 10 -14 25 0 21 5 25 30 25 23 0 30 -5 30 -19z"/>
  <path d="M198 451 c-59 -9 -110 -20 -113 -23 -4 -4 3 -12 15 -18 25 -13 47
-12 202 15 80 14 105 21 101 31 -7 18 -66 16 -205 -5z"/>
  <path d="M248 366 c-70 -17 -72 -30 -3 -22 32 4 70 9 84 13 23 6 24 7 6 14
-25 9 -29 9 -87 -5z"/>
  <path d="M242 298 c-49 -9 -64 -28 -22 -28 38 0 120 22 114 31 -6 11 -20 10
-92 -3z"/>
  <path d="M274 224 c-21 -8 -59 -14 -83 -14 -37 0 -42 -2 -30 -12 9 -7 21 -33
28 -56 11 -38 15 -43 34 -38 12 3 41 6 65 6 36 0 42 3 42 20 0 12 7 32 16 45
31 48 -5 72 -72 49z m26 -48 c0 -35 -13 -46 -51 -46 -12 0 -23 10 -29 26 -15
38 -13 42 23 47 17 2 38 5 45 5 7 1 12 -11 12 -32z"/>
</g>
<g id="part-1" class="char-part">
  <path d="M220 559 c0 -6 10 -27 21 -46 26 -42 66 -44 61 -4 -3 30 0 27 -45 46
-25 10 -37 12 -37 4z"/>
  <path d="M222 450 c-138 -23 -144 -25 -107 -39 23 -10 44 -9 100 3 38 8 93 18
120 22 60 8 72 14 54 25 -18 11 -33 10 -167 -11z"/>
</g>
<g id="part-2" class="char-part">
  <path d="M260 224 c-25 -8 -60 -12 -77 -9 -20 4 -33 2 -33 -5 0 -5 4 -10 9
-10 5 0 14 -15 21 -32 29 -79 31 -81 42 -70 7 7 28 12 48 13 44 1 65 10 67 29
1 8 7 29 14 47 7 18 11 34 9 37 -13 13 -60 13 -100 0z m40 -48 c0 -30 -4 -35
-31 -41 -35 -8 -45 -1 -54 37 -6 24 -4 27 27 31 18 2 39 5 46 5 7 1 12 -11 12
-32z"/>
</g>
<g id="part-3" class="char-part">
  <path d="M618 560 c-16 -28 -24 -50 -19 -50 7 0 72 49 101 77 6 6 -22 23 -40
23 -8 0 -27 -23 -42 -50z"/>
  <path d="M460 564 c0 -15 43 -64 56 -64 20 0 17 34 -4 53 -18 16 -52 23 -52
11z"/>
  <path d="M625 495 c-33 -8 -88 -17 -123 -20 -92 -11 -93 -29 -1 -22 99 7 250
37 243 48 -7 12 -46 10 -119 -6z"/>
</g>
<g id="part-4" class="char-part">
  <path d="M604 462 c-16 -2 -20 -8 -17 -26 4 -18 -1 -25 -19 -29 -36 -10 -38
-9 -38 19 0 19 -4 25 -17 22 -13 -2 -17 -11 -15 -31 3 -26 2 -27 -42 -27 -28
0 -46 -5 -46 -11 0 -8 15 -10 45 -7 41 5 45 4 45 -17 0 -18 -7 -24 -37 -29
-21 -3 -51 -6 -66 -6 -18 0 -26 -4 -21 -11 4 -8 26 -9 65 -5 58 6 59 5 59 -19
0 -23 -4 -25 -45 -25 -25 0 -45 -4 -45 -10 0 -5 21 -10 46 -10 l46 0 -8 -57
c-13 -95 -11 -148 6 -148 12 0 17 22 24 107 l8 108 30 0 30 0 -3 -110 c-2 -72
0 -113 8 -121 25 -25 33 4 33 121 l0 119 50 7 c29 4 49 11 48 18 -1 6 2 21 6
34 6 19 14 22 62 22 30 0 54 4 54 9 0 10 -34 21 -67 21 -16 0 -20 5 -16 19 7
27 -13 35 -79 33 -52 -2 -57 -1 -60 20 -2 17 -9 22 -24 20z m106 -81 c0 -35
-74 -45 -83 -11 -6 22 5 28 51 29 25 1 32 -3 32 -18z m-120 -16 c0 -21 -5 -25
-30 -25 -23 0 -30 5 -30 19 0 18 14 27 48 30 6 0 12 -10 12 -24z m110 -49 c0
-26 -64 -37 -73 -12 -8 20 2 26 40 26 21 0 33 -5 33 -14z m-110 -15 c0 -19
-18 -31 -46 -31 -14 0 -20 31 -7 43 3 4 17 7 30 7 16 0 23 -6 23 -19z"/>
</g>
<g id="part-5" class="char-part">
  <path d="M452 188 c-17 -23 -30 -44 -27 -47 9 -9 59 47 60 69 1 11 1 20 0 20
0 0 -15 -19 -33 -42z"/>
  <path d="M697 175 c10 -13 22 -25 26 -25 5 0 5 -4 2 -10 -4 -6 1 -7 11 -3 10
4 15 2 12 -3 -10 -15 15 -40 47 -47 17 -3 24 -4 18 -1 -20 9 -15 24 5 18 14
-5 14 -4 2 4 -10 8 -18 8 -27 0 -10 -8 -12 -7 -7 5 4 12 -1 20 -17 26 -13 5
-37 21 -52 35 -35 33 -43 33 -20 1z"/>
  <path d="M384 118 c-19 -21 -19 -21 6 -8 33 17 33 17 22 24 -5 3 -18 -4 -28
-16z"/>
</g>
</g>
</svg>