<?xml version="1.0" standalone="no"?>
<!DOCTYPE svg PUBLIC "-//W3C//DTD SVG 20010904//EN"
 "http://www.w3.org/TR/2001/REC-SVG-20010904/DTD/svg10.dtd">
<svg version="1.0" xmlns="http://www.w3.org/2000/svg"
 width="96.000000pt" height="68.000000pt" viewBox="0 0 96.000000 68.000000"
 preserveAspectRatio="xMidYMid meet">
<metadata>
Created by potrace 1.16, written by Peter Selinger 2001-2019
Combined from part_0.svg through part_5.svg with named groups
</metadata>
<g transform="translate(0.000000,68.000000) scale(0.100000,-0.100000)" fill="#000000" stroke="none">
<g id="part-0" class="char-part">
  <path d="M526 546 l6 -54 -51 -7 c-61 -8 -58 -25 5 -25 37 0 44 -3 44 -20 0
-11 -6 -20 -12 -21 -24 -1 -62 -9 -67 -14 -2 -3 14 -5 37 -5 35 0 42 -3 42
-19 0 -22 -25 -29 -103 -33 -27 -1 -50 -5 -53 -10 -9 -14 48 -21 95 -10 51 12
61 9 61 -17 0 -20 -26 -30 -75 -31 -22 0 -26 -3 -15 -9 17 -9 106 -8 130 2 8
4 37 8 64 9 47 3 50 5 58 36 8 29 12 32 51 34 23 0 50 0 60 0 11 -1 17 3 15
10 -3 7 -25 14 -51 16 -51 3 -52 4 -37 33 17 31 -28 43 -96 25 -57 -15 -65
-12 -60 20 2 15 15 21 65 29 34 6 62 15 61 20 -1 12 -53 13 -92 2 -27 -7 -28
-7 -28 37 0 44 -10 56 -46 56 -11 0 -13 -11 -8 -54z m144 -156 c0 -17 -7 -20
-50 -20 -35 0 -50 4 -50 13 0 22 11 27 57 27 36 0 43 -3 43 -20z m-10 -53 c0
-22 -23 -37 -57 -37 -29 0 -33 3 -33 25 0 23 4 25 45 25 30 0 45 -4 45 -13z"/>
  <path d="M257 491 l6 -79 -77 -12 c-42 -7 -76 -17 -76 -21 0 -5 32 -9 70 -9
39 0 70 -4 70 -9 0 -19 -68 -109 -120 -159 -37 -35 -48 -52 -36 -52 30 0 70
27 119 79 l47 50 0 -30 c0 -17 -5 -62 -11 -101 -12 -75 -3 -118 25 -118 21 0
26 24 33 147 6 113 6 113 25 93 24 -25 53 -22 53 5 0 13 -13 26 -37 38 -27 13
-38 25 -38 41 0 18 9 24 50 35 62 16 61 36 -3 35 l-45 0 5 35 c2 20 6 45 8 56
5 25 -22 55 -51 55 -22 0 -22 -2 -17 -79z"/>
  <path d="M496 226 c-5 -22 -13 -25 -81 -31 -89 -9 -93 -29 -4 -23 43 3 59 1
59 -8 0 -7 -4 -16 -10 -19 -20 -12 -9 -24 31 -32 22 -4 42 -12 42 -18 1 -5
-34 -22 -78 -37 -68 -23 -75 -27 -45 -27 40 -1 100 14 148 36 31 15 35 14 91
-16 58 -31 101 -40 101 -22 0 16 -51 51 -92 62 l-39 10 34 47 c18 26 40 48 48
48 8 1 46 2 84 3 65 2 69 3 50 17 -16 12 -35 15 -89 10 -41 -3 -77 -1 -89 6
-16 8 -23 7 -32 -6 -18 -24 -71 -21 -78 4 -7 29 -43 26 -51 -4z m124 -45 c0
-4 -9 -20 -21 -35 -16 -20 -29 -26 -59 -26 -47 0 -57 13 -36 45 14 21 24 25
66 25 28 0 50 -4 50 -9z"/>
</g>
<g id="part-1" class="char-part">
  <path d="M258 564 c-3 -3 -2 -22 3 -42 13 -58 11 -109 -5 -115 -8 -3 -42 -9
-75 -13 -34 -3 -61 -11 -61 -15 0 -5 32 -9 71 -9 l70 0 -23 -42 c-13 -23 -52
-73 -87 -110 -35 -37 -59 -68 -54 -68 18 0 84 50 130 98 39 41 44 44 40 22
-12 -59 -17 -216 -8 -230 9 -13 12 -13 25 0 12 11 15 44 17 138 0 67 4 122 8
122 4 0 18 -11 31 -25 15 -16 27 -22 33 -16 16 16 -1 41 -38 57 -56 23 -46 67
19 77 46 7 54 13 38 29 -9 9 -21 9 -48 0 l-36 -11 7 68 c6 66 6 67 -20 79 -30
14 -30 14 -37 6z"/>
</g>
<g id="part-2" class="char-part">
  <path d="M526 545 c7 -54 6 -55 -18 -55 -14 0 -40 -3 -58 -6 -42 -9 -19 -24
38 -24 23 0 42 -4 42 -10 0 -18 39 -11 49 9 7 13 27 21 66 26 30 3 57 10 60
15 10 16 -43 23 -76 11 -49 -17 -52 -15 -46 29 4 32 2 42 -13 50 -42 23 -51
14 -44 -45z"/>
</g>
<g id="part-3" class="char-part">
  <path d="M627 435 c-27 -7 -49 -9 -53 -4 -7 12 -42 11 -46 -1 -2 -6 -23 -14
-48 -19 l-45 -9 43 -1 c28 -1 45 -6 49 -16 8 -23 1 -26 -77 -35 -39 -4 -74
-10 -77 -13 -13 -13 54 -19 95 -8 48 13 62 9 62 -18 0 -20 -26 -30 -75 -31
-26 -1 -28 -2 -11 -11 10 -6 33 -9 51 -6 18 3 38 0 43 -5 8 -8 13 -7 18 5 5
13 19 17 59 17 59 0 88 8 79 21 -3 5 -2 18 1 29 5 17 15 20 65 20 58 0 85 12
54 24 -9 3 -33 6 -55 6 -37 0 -39 1 -28 21 20 39 -29 55 -104 34z m43 -45 c0
-17 -7 -20 -50 -20 -35 0 -50 4 -50 13 0 22 11 27 57 27 36 0 43 -3 43 -20z
m-10 -53 c0 -22 -23 -37 -57 -37 -25 0 -33 4 -33 18 0 27 9 32 52 32 24 0 38
-5 38 -13z"/>
</g>
<g id="part-4" class="char-part">
  <path d="M497 230 c-5 -24 -12 -28 -53 -34 -26 -3 -61 -6 -78 -6 -27 -1 -29
-2 -12 -11 10 -6 42 -9 72 -7 l53 5 -15 -28 c-15 -30 -17 -29 50 -44 40 -9 24
-22 -65 -51 l-74 -24 56 4 c31 2 80 14 109 27 l52 23 59 -32 c57 -31 99 -41
99 -24 0 16 -38 43 -84 61 l-47 17 36 47 36 47 82 0 c76 1 81 2 62 16 -16 12
-35 14 -92 9 -44 -4 -79 -2 -91 4 -16 8 -21 7 -26 -4 -8 -23 -72 -20 -79 3 -2
11 -13 21 -25 24 -16 4 -21 0 -25 -22z m123 -53 c0 -7 -12 -25 -27 -39 -23
-21 -35 -24 -65 -21 -42 6 -45 13 -22 48 14 21 24 25 65 25 34 0 49 -4 49 -13z"/>
</g>
</g>
</svg>