<?xml version="1.0" standalone="no"?>
<!DOCTYPE svg PUBLIC "-//W3C//DTD SVG 20010904//EN"
 "http://www.w3.org/TR/2001/REC-SVG-20010904/DTD/svg10.dtd">
<svg version="1.0" xmlns="http://www.w3.org/2000/svg"
 width="96.000000pt" height="68.000000pt" viewBox="0 0 96.000000 68.000000"
 preserveAspectRatio="xMidYMid meet">
<metadata>
Created by potrace 1.16, written by Peter Selinger 2001-2019
Combined from part_0.svg through part_5.svg with named groups
</metadata>
<g transform="translate(0.000000,68.000000) scale(0.100000,-0.100000)" fill="#000000" stroke="none">
<g id="part-0" class="char-part">
  <path d="M557 583 c-4 -3 -7 -17 -7 -30 0 -30 -42 -134 -70 -174 -34 -47 -12
-49 29 -2 l36 41 92 7 92 7 7 -27 c10 -40 -3 -226 -17 -259 -12 -26 -17 -28
-56 -23 l-43 4 21 -29 c32 -44 64 -56 90 -32 37 33 47 67 54 179 3 61 8 129
11 152 5 39 3 43 -25 58 -28 14 -37 14 -89 1 -31 -7 -72 -17 -90 -20 -31 -5
-33 -4 -26 16 3 12 17 42 30 66 23 42 23 46 6 58 -19 15 -35 17 -45 7z"/>
  <path d="M275 433 c0 -174 -15 -223 -89 -300 -58 -59 -47 -73 23 -29 45 29 73
62 91 108 8 18 15 35 17 37 1 2 21 -17 44 -43 29 -33 48 -46 63 -44 16 2 20 9
18 28 -5 33 -24 54 -73 75 -60 28 -52 58 31 113 36 24 66 49 68 56 1 7 -9 19
-24 27 -25 13 -28 12 -48 -15 -56 -77 -55 -77 -56 -14 0 31 5 69 12 83 14 31
4 44 -43 51 l-34 6 0 -139z"/>
  <path d="M146 413 c-6 -7 20 -60 42 -85 8 -10 23 -18 34 -18 24 0 25 51 0 73
-21 19 -68 38 -76 30z"/>
  <path d="M510 304 c0 -15 57 -74 73 -74 25 0 22 45 -5 64 -21 15 -68 22 -68
10z"/>
</g>
<g id="part-1" class="char-part">
  <path d="M274 417 c0 -178 -12 -217 -90 -292 -52 -50 -52 -54 4 -26 49 25 86
66 110 119 l19 43 50 -52 c50 -51 73 -57 73 -19 0 21 -44 61 -89 80 -21 8 -30
18 -27 27 4 8 6 21 6 28 0 7 32 34 72 61 l72 47 -23 18 c-28 23 -42 17 -66
-26 -10 -20 -25 -41 -33 -48 -13 -10 -14 -1 -10 79 5 90 5 92 -19 103 -47 22
-48 20 -49 -142z"/>
  <path d="M150 403 c0 -18 53 -93 66 -93 21 0 29 28 14 55 -16 29 -80 60 -80
38z"/>
</g>
<g id="part-2" class="char-part">
  <path d="M557 583 c-4 -3 -7 -18 -7 -33 0 -14 -22 -70 -49 -123 -26 -53 -45
-97 -40 -97 4 0 25 20 46 44 l38 44 92 7 92 7 7 -27 c4 -15 4 -73 2 -129 -6
-111 -27 -172 -55 -162 -8 3 -27 9 -41 13 l-26 6 33 -41 c37 -47 58 -52 88
-19 35 38 41 60 48 172 3 61 8 129 11 152 5 39 3 43 -26 58 -30 15 -37 15
-116 -6 -46 -12 -87 -20 -90 -17 -3 3 9 34 26 69 30 59 31 63 14 76 -20 14
-37 17 -47 6z"/>
</g>
<g id="part-3" class="char-part">
  <path d="M510 303 c1 -20 60 -75 76 -71 27 5 28 25 0 53 -23 23 -77 35 -76 18z"/>
</g>
</g>
</svg>