<?xml version="1.0" standalone="no"?>
<!DOCTYPE svg PUBLIC "-//W3C//DTD SVG 20010904//EN"
 "http://www.w3.org/TR/2001/REC-SVG-20010904/DTD/svg10.dtd">
<svg version="1.0" xmlns="http://www.w3.org/2000/svg"
 width="96.000000pt" height="68.000000pt" viewBox="0 0 96.000000 68.000000"
 preserveAspectRatio="xMidYMid meet">
<metadata>
Created by potrace 1.16, written by Peter Selinger 2001-2019
Combined from part_0.svg through part_5.svg with named groups
</metadata>
<g transform="translate(0.000000,68.000000) scale(0.100000,-0.100000)" fill="#000000" stroke="none">
<g id="part-0" class="char-part">
  <path d="M332 556 c-19 -13 -65 -39 -103 -57 -95 -46 -88 -69 11 -34 23 8 44
15 46 15 2 0 4 -22 4 -49 l0 -48 -71 -7 c-82 -9 -101 -14 -93 -28 4 -6 34 -8
81 -3 l74 7 -13 -24 c-7 -12 -45 -57 -85 -98 -39 -41 -70 -76 -68 -78 10 -10
79 36 120 79 25 27 48 49 50 49 9 0 5 -105 -5 -141 -12 -42 1 -89 24 -89 22 0
26 23 26 141 0 60 4 109 9 109 5 0 19 -11 32 -25 26 -27 59 -33 59 -11 0 18
-17 31 -63 46 -30 9 -38 16 -35 33 3 19 12 23 66 30 34 5 62 13 62 18 0 10
-20 12 -86 9 l-42 -1 8 40 c4 22 3 44 -2 49 -5 5 9 14 36 22 60 17 74 33 44
54 -30 21 -47 20 -86 -8z"/>
  <path d="M575 519 c-27 -4 -70 -5 -95 -3 -38 4 -43 3 -29 -8 9 -7 22 -31 29
-53 16 -52 29 -67 49 -59 27 10 44 12 114 13 51 1 67 4 67 15 0 8 11 28 25 44
29 35 31 48 9 56 -20 8 -105 6 -169 -5z m105 -31 c0 -39 -16 -51 -81 -60 -67
-9 -79 -3 -79 38 0 18 9 24 48 32 26 5 62 10 80 11 27 1 32 -3 32 -21z"/>
  <path d="M620 360 c-25 -10 -66 -24 -92 -30 -54 -14 -66 -33 -15 -23 17 3 37
6 42 7 6 0 10 -15 10 -34 l0 -35 -57 -3 c-77 -4 -75 -22 2 -22 l60 0 0 -40 0
-40 -77 0 c-43 0 -89 -3 -102 -7 -23 -6 -23 -7 -5 -14 25 -10 436 1 448 12 20
18 -49 31 -132 24 l-83 -7 3 39 c3 34 6 38 33 41 105 9 126 32 30 32 l-54 0 1
34 c1 33 4 35 42 41 23 4 50 9 60 12 19 5 19 6 1 19 -25 18 -60 16 -115 -6z"/>
</g>
<g id="part-1" class="char-part">
  <path d="M321 544 c-29 -20 -77 -47 -105 -60 -40 -18 -46 -23 -26 -23 35 -1
240 72 240 85 0 8 -40 34 -53 34 -1 0 -26 -16 -56 -36z"/>
</g>
<g id="part-2" class="char-part">
  <path d="M303 493 c-8 -3 -13 -25 -13 -58 l0 -52 -71 -7 c-39 -4 -81 -11 -93
-16 -20 -7 -20 -8 7 -15 16 -4 55 -4 89 -1 l60 7 -22 -33 c-13 -18 -53 -63
-89 -100 -36 -38 -62 -68 -57 -68 26 0 113 61 142 99 l34 44 0 -56 c0 -31 -5
-68 -11 -84 -13 -35 -3 -92 18 -100 26 -10 33 18 33 135 0 61 4 112 8 112 5 0
19 -11 32 -25 28 -30 60 -33 60 -5 0 14 -13 24 -50 37 -40 14 -50 22 -48 38 2
16 14 21 62 27 32 4 61 10 64 13 13 12 -13 19 -67 17 l-59 -2 8 37 c11 48 -3
70 -37 56z"/>
</g>
<g id="part-3" class="char-part">
  <path d="M600 524 c-47 -8 -103 -11 -125 -8 -39 6 -40 6 -22 -13 9 -11 24 -41
33 -67 14 -41 19 -47 38 -41 11 4 58 9 104 12 52 4 82 10 82 17 0 6 14 28 30
48 l31 37 -30 16 c-34 17 -28 17 -141 -1z m76 -46 c-9 -44 -12 -46 -81 -50
-57 -3 -60 -2 -69 24 -5 15 -7 30 -4 33 7 8 86 23 127 24 33 1 33 0 27 -31z"/>
</g>
<g id="part-4" class="char-part">
  <path d="M555 339 c-116 -41 -108 -42 65 -13 135 23 134 23 120 39 -19 22 -64
16 -185 -26z"/>
</g>
<g id="part-5" class="char-part">
  <path d="M584 306 c-4 -9 -4 -28 -2 -41 5 -21 1 -25 -21 -26 -25 0 -26 0 -3
-9 21 -9 28 -31 22 -70 -3 -24 -21 -30 -98 -30 -47 0 -71 -4 -67 -10 4 -6 30
-8 63 -5 74 7 254 17 312 17 l45 -1 -35 16 c-27 12 -41 13 -70 4 -47 -15 -115
-9 -115 9 0 8 -4 18 -10 22 -6 5 -5 8 3 8 6 0 12 8 12 19 0 15 11 21 58 29
l57 10 -50 -1 c-50 -1 -50 -1 -55 33 -5 37 -35 54 -46 26z"/>
</g>
</g>
</svg>