<?xml version="1.0" standalone="no"?>
<!DOCTYPE svg PUBLIC "-//W3C//DTD SVG 20010904//EN"
 "http://www.w3.org/TR/2001/REC-SVG-20010904/DTD/svg10.dtd">
<svg version="1.0" xmlns="http://www.w3.org/2000/svg"
 width="96.000000pt" height="68.000000pt" viewBox="0 0 96.000000 68.000000"
 preserveAspectRatio="xMidYMid meet">
<metadata>
Created by potrace 1.16, written by Peter Selinger 2001-2019
Combined from part_0.svg through part_5.svg with named groups
</metadata>
<g transform="translate(0.000000,68.000000) scale(0.100000,-0.100000)" fill="#000000" stroke="none">
<g id="part-0" class="char-part">
  <path d="M504 588 l1 -53 -44 -3 -43 -3 6 35 c6 33 4 37 -19 46 -51 19 -56 15
-49 -39 l6 -50 -53 -3 c-69 -4 -70 -22 -1 -26 48 -3 52 -5 52 -28 0 -23 -2
-24 -82 -24 l-81 0 21 -23 c12 -13 22 -32 22 -44 0 -22 19 -84 29 -95 4 -4 22
-4 41 1 58 15 311 23 326 10 7 -6 18 -7 25 -3 12 7 79 145 79 162 0 18 -54 29
-119 24 -61 -4 -63 -4 -52 16 8 14 25 22 61 27 81 11 76 40 -7 36 -44 -1 -45
-1 -38 28 8 36 -15 61 -55 61 -27 0 -28 -1 -26 -52z m6 -94 c0 -3 -5 -14 -10
-25 -15 -28 -90 -28 -90 0 0 20 17 27 73 30 15 0 27 -2 27 -5z m150 -70 c0
-22 -4 -24 -56 -24 -47 0 -55 3 -50 16 3 9 6 20 6 26 0 6 13 8 30 6 17 -3 30
-1 30 3 0 4 9 5 20 2 13 -3 20 -14 20 -29z m-160 -8 c0 -18 -7 -25 -31 -30
-51 -10 -59 -8 -59 18 0 25 8 29 63 34 22 2 27 -2 27 -22z m-140 -21 c0 -22
-4 -25 -39 -25 -30 0 -40 4 -44 19 -7 27 0 31 45 31 34 0 38 -3 38 -25z m288
-37 c-3 -20 -11 -24 -56 -28 -49 -5 -53 -4 -50 14 3 21 32 33 81 35 24 1 28
-3 25 -21z m-160 -33 c-2 -2 -19 -5 -38 -7 -30 -2 -35 0 -38 19 -3 19 2 22 35
25 30 2 39 -1 41 -15 2 -10 2 -20 0 -22z m-128 5 c0 -16 -7 -20 -34 -20 -25 0
-35 5 -39 20 -4 17 0 20 34 20 32 0 39 -3 39 -20z"/>
  <path d="M500 249 c-19 -5 -69 -10 -110 -11 l-75 -3 0 -90 c0 -96 8 -123 30
-105 7 6 55 13 106 17 l94 6 10 -29 11 -29 28 28 c27 27 28 32 22 93 -4 38 -2
72 4 84 8 15 6 22 -12 34 -25 17 -54 19 -108 5z m64 -35 c3 -9 6 -40 6 -70 l0
-54 -33 0 c-19 0 -68 -3 -109 -6 l-75 -7 4 30 5 31 99 7 c54 3 99 11 99 16 0
11 -73 11 -147 0 -53 -7 -53 -7 -53 20 0 26 4 28 48 34 26 3 54 8 62 9 44 10
88 5 94 -10z"/>
</g>
<g id="part-1" class="char-part">
  <path d="M510 585 l0 -55 -51 0 c-54 0 -55 2 -35 51 7 17 -17 29 -56 29 -15 0
-16 -4 -8 -26 21 -53 15 -62 -47 -71 l-58 -8 55 -5 55 -5 3 -92 c2 -85 4 -93
22 -93 18 0 20 7 20 95 l0 95 50 0 50 0 -7 -90 c-5 -78 -4 -90 10 -90 22 0 25
8 38 96 6 44 15 83 20 89 5 5 29 12 54 15 57 6 55 25 -2 24 l-43 0 0 38 c0 32
-4 40 -26 48 -41 16 -44 13 -44 -45z"/>
</g>
<g id="part-2" class="char-part">
  <path d="M649 476 c-2 -2 -31 -6 -64 -10 -33 -3 -100 -11 -150 -16 -49 -5
-123 -10 -163 -10 l-73 0 20 -26 c11 -14 23 -45 27 -69 9 -65 21 -76 69 -66
75 16 307 24 315 10 16 -24 42 2 76 76 18 42 34 80 34 85 0 14 -79 37 -91 26z
m10 -58 c-1 -18 -4 -44 -8 -58 -8 -28 -23 -31 -246 -45 l-110 -8 -11 52 c-8
38 -8 54 0 56 16 6 284 32 334 34 41 1 42 0 41 -31z"/>
</g>
<g id="part-3" class="char-part">
  <path d="M450 244 c-41 -7 -92 -11 -112 -8 l-38 6 12 -32 c6 -19 8 -57 4 -95
-5 -50 -3 -65 10 -76 12 -10 17 -10 23 0 5 7 43 14 97 18 89 6 90 5 107 -20
37 -57 66 -2 65 121 -2 111 -8 115 -168 86z m118 -47 c3 -24 0 -27 -25 -26
-15 1 -63 -2 -105 -6 l-78 -8 0 26 c0 28 11 32 105 40 85 8 100 4 103 -26z m2
-66 c0 -17 -3 -32 -7 -34 -5 -3 -52 -8 -105 -12 l-98 -7 0 31 c0 31 1 31 53
32 28 0 72 4 97 8 25 5 48 9 53 10 4 0 7 -12 7 -28z"/>
</g>
</g>
</svg>