<?xml version="1.0" standalone="no"?>
<!DOCTYPE svg PUBLIC "-//W3C//DTD SVG 20010904//EN"
 "http://www.w3.org/TR/2001/REC-SVG-20010904/DTD/svg10.dtd">
<svg version="1.0" xmlns="http://www.w3.org/2000/svg"
 width="96.000000pt" height="68.000000pt" viewBox="0 0 96.000000 68.000000"
 preserveAspectRatio="xMidYMid meet">
<metadata>
Created by potrace 1.16, written by Peter Selinger 2001-2019
Combined from part_0.svg through part_5.svg with named groups
</metadata>
<g transform="translate(0.000000,68.000000) scale(0.100000,-0.100000)" fill="#000000" stroke="none">
<g id="part-0" class="char-part">
  <path d="M500 603 c-36 -8 -107 -14 -157 -16 -51 -1 -93 -3 -93 -5 0 -1 9 -15
20 -30 11 -15 24 -47 29 -72 6 -25 13 -57 16 -71 6 -23 0 -32 -44 -69 -28 -24
-49 -45 -47 -47 3 -3 24 7 49 21 52 31 137 37 137 10 0 -22 -19 -55 -48 -82
-40 -38 -16 -37 37 2 31 23 52 33 56 26 9 -14 81 -60 95 -60 14 0 12 36 -2 47
-7 6 -29 15 -48 22 -29 9 -35 16 -36 40 -1 27 2 29 50 35 120 14 141 7 144
-49 3 -37 -17 -164 -30 -187 -10 -20 -49 -23 -80 -7 -36 19 -32 0 9 -41 35
-36 43 -40 65 -31 38 14 66 57 73 109 11 90 25 180 30 194 10 26 -51 51 -108
45 -103 -11 -212 -21 -224 -20 -35 2 -38 3 -23 13 13 9 13 12 -3 24 -15 12
-11 14 35 20 76 9 136 7 142 -3 14 -21 45 3 61 47 10 26 26 62 37 81 19 33 19
35 1 45 -32 19 -76 22 -143 9z m70 -49 c0 -21 -4 -25 -17 -20 -9 4 -59 2 -111
-5 -79 -10 -96 -9 -103 2 -16 25 -10 29 44 30 28 1 77 4 107 9 30 4 61 8 68 9
7 0 12 -10 12 -25z m-10 -56 c0 -20 -17 -41 -27 -35 -6 4 -49 3 -97 -1 -77 -7
-86 -6 -86 9 0 13 16 18 88 26 124 14 122 14 122 1z"/>
  <path d="M262 213 l3 -68 163 -3 c129 -2 163 0 160 10 -4 10 -42 14 -147 16
l-142 3 2 42 c3 48 -5 67 -27 67 -12 0 -14 -13 -12 -67z"/>
</g>
<g id="part-1" class="char-part">
  <path d="M460 593 c-43 -8 -102 -12 -137 -9 -35 3 -63 3 -63 0 0 -2 7 -16 16
-30 9 -13 21 -46 25 -71 5 -26 13 -50 17 -54 4 -4 56 -3 117 2 76 5 114 4 123
-3 17 -14 24 -6 52 65 12 31 26 60 31 63 17 10 9 31 -16 42 -32 15 -68 14
-165 -5z m115 -38 c0 -18 -9 -21 -80 -27 -166 -15 -160 -15 -163 9 -3 20 2 22
75 28 43 3 83 8 88 10 6 2 26 3 45 2 28 -2 35 -6 35 -22z m-14 -69 c-9 -23
-16 -26 -58 -26 -27 0 -71 -3 -99 -6 -43 -5 -52 -4 -58 11 -3 10 -5 20 -2 22
4 4 218 30 224 27 1 -1 -2 -13 -7 -28z"/>
</g>
<g id="part-2" class="char-part">
  <path d="M316 396 c-3 -13 -29 -43 -57 -65 -57 -45 -49 -54 15 -17 31 17 63
25 131 30 50 3 120 9 157 12 94 9 102 1 94 -91 -3 -38 -12 -90 -19 -115 -12
-42 -15 -45 -48 -45 -18 1 -45 5 -59 9 -20 7 -16 0 23 -40 46 -48 48 -48 74
-34 47 27 62 59 77 170 8 58 18 115 21 127 6 17 1 25 -24 38 -31 15 -95 13
-300 -10 -39 -4 -42 -3 -30 11 11 14 10 18 -6 30 -27 20 -42 17 -49 -10z"/>
</g>
<g id="part-3" class="char-part">
  <path d="M262 213 l3 -68 163 -3 c129 -2 163 0 160 10 -4 10 -43 14 -148 16
l-143 3 5 44 c5 44 -4 65 -29 65 -11 0 -13 -16 -11 -67z"/>
</g>
<g id="part-4" class="char-part">
  <path d="M410 322 c0 -11 -18 -43 -41 -72 -38 -48 -39 -50 -12 -36 15 8 41 26
58 39 l29 25 45 -34 c51 -39 71 -43 71 -13 0 15 -13 26 -50 42 -38 16 -49 25
-47 41 2 16 -5 22 -25 24 -22 3 -28 -1 -28 -16z"/>
</g>
</g>
</svg>