<?xml version="1.0" standalone="no"?>
<!DOCTYPE svg PUBLIC "-//W3C//DTD SVG 20010904//EN"
 "http://www.w3.org/TR/2001/REC-SVG-20010904/DTD/svg10.dtd">
<svg version="1.0" xmlns="http://www.w3.org/2000/svg"
 width="96.000000pt" height="68.000000pt" viewBox="0 0 96.000000 68.000000"
 preserveAspectRatio="xMidYMid meet">
<metadata>
Created by potrace 1.16, written by Peter Selinger 2001-2019
Combined from part_0.svg through part_5.svg with named groups
</metadata>
<g transform="translate(0.000000,68.000000) scale(0.100000,-0.100000)" fill="#000000" stroke="none">
<g id="part-0" class="char-part">
  <path d="M570 606 c0 -34 -1 -34 -52 -41 -47 -7 -50 -9 -33 -21 10 -8 30 -14
43 -14 17 0 23 -4 19 -15 -11 -26 12 -27 37 -1 19 22 32 26 77 26 60 0 99 8
99 20 0 12 -39 23 -82 23 -33 0 -38 3 -38 22 0 23 -17 35 -51 35 -15 0 -19 -7
-19 -34z"/>
  <path d="M300 601 c0 -11 5 -23 10 -26 25 -16 5 -25 -55 -25 -73 0 -88 -18
-36 -45 25 -12 36 -13 73 -1 44 13 44 13 61 -16 l17 -30 -38 6 -39 5 26 -54
c22 -45 29 -53 46 -48 11 3 61 9 112 12 50 3 93 8 95 11 2 3 14 17 27 32 20
24 22 30 10 44 -11 13 -27 15 -103 9 -50 -3 -98 -9 -108 -11 -13 -4 -16 2 -15
30 1 31 4 35 35 41 39 7 32 22 -13 27 -22 2 -31 9 -35 28 -4 19 -13 26 -38 28
-26 3 -32 0 -32 -17z m250 -165 c0 -21 -6 -24 -62 -30 -35 -4 -77 -9 -95 -12
-26 -5 -32 -2 -38 16 -9 29 -6 31 62 37 32 3 59 6 60 7 1 0 17 2 37 3 31 2 36
-1 36 -21z"/>
  <path d="M510 349 c-30 -4 -89 -10 -130 -14 -116 -9 -146 -15 -129 -26 8 -5
26 -9 41 -9 33 0 40 -20 36 -105 l-3 -60 -82 -3 c-46 -2 -83 -7 -83 -12 0 -10
32 -20 65 -21 20 -1 196 16 273 27 l42 5 0 -45 c0 -93 24 -102 41 -15 l12 60
76 -1 c109 -2 109 -2 87 15 -13 10 -44 15 -93 15 l-73 0 0 54 c0 70 10 117 24
115 6 -1 25 -1 41 0 29 2 29 2 10 17 -20 15 -55 16 -155 3z m30 -51 c0 -22 -5
-23 -84 -26 -80 -3 -84 -2 -79 17 5 20 6 20 136 29 22 2 27 -2 27 -20z m0 -57
c0 -17 -10 -20 -67 -26 -38 -4 -76 -9 -85 -11 -14 -4 -18 1 -18 20 0 24 3 25
63 29 34 2 72 4 85 5 16 1 22 -3 22 -17z m0 -66 c0 -24 -3 -25 -60 -27 -120
-4 -115 -4 -115 17 0 17 9 21 60 26 117 11 115 12 115 -16z"/>
</g>
<g id="part-1" class="char-part">
  <path d="M580 616 c0 -34 -26 -56 -66 -56 -19 0 -34 -4 -34 -10 0 -5 18 -10
41 -10 36 0 40 -2 34 -20 -9 -27 7 -25 33 5 19 22 30 25 92 25 38 0 70 4 70
10 0 13 -64 24 -96 16 -24 -6 -26 -5 -20 18 5 19 1 28 -13 36 -30 16 -41 12
-41 -14z"/>
  <path d="M300 616 c0 -4 7 -20 15 -35 8 -16 11 -31 8 -35 -4 -3 -33 -6 -65 -6
-60 0 -73 -11 -37 -31 20 -10 40 -9 103 7 19 4 26 2 26 -9 0 -8 7 -20 15 -27
13 -11 15 -8 15 19 0 27 4 32 33 38 l32 7 -35 6 c-29 4 -36 10 -38 33 -2 15
-9 27 -15 27 -7 0 -22 3 -34 6 -13 4 -23 3 -23 0z"/>
</g>
<g id="part-2" class="char-part">
  <path d="M430 468 c-36 -5 -81 -7 -101 -4 l-37 4 14 -27 c8 -14 19 -38 24 -54
8 -22 14 -26 32 -22 13 3 64 9 115 14 83 7 94 11 117 37 31 35 31 40 7 54 -23
12 -79 11 -171 -2z m120 -31 c0 -22 -6 -24 -92 -36 -74 -9 -93 -9 -100 1 -21
34 -14 37 132 51 19 2 41 5 48 5 6 1 12 -8 12 -21z"/>
</g>
<g id="part-3" class="char-part">
  <path d="M410 339 c-91 -10 -167 -18 -170 -18 -15 -3 29 -21 51 -21 32 0 39
-19 39 -102 0 -43 4 -58 14 -58 8 0 17 11 20 25 5 21 12 25 45 25 61 0 131 12
131 22 0 6 -33 7 -86 3 -81 -7 -86 -6 -82 11 2 14 13 20 43 22 81 5 125 13
119 23 -4 6 -35 8 -84 3 -76 -6 -79 -6 -73 14 4 18 16 21 96 26 51 4 119 9
151 12 54 6 58 8 41 20 -23 17 -43 16 -255 -7z"/>
</g>
<g id="part-4" class="char-part">
  <path d="M540 237 l0 -83 -142 -12 c-79 -7 -164 -12 -190 -12 -54 0 -62 -12
-20 -29 20 -8 42 -9 73 -2 24 5 80 12 124 15 44 4 97 9 118 12 l37 6 0 -45 c0
-94 24 -103 41 -17 l12 60 91 0 c84 1 89 2 71 16 -15 12 -38 15 -93 12 l-74
-3 4 82 3 83 -27 0 -28 0 0 -83z"/>
</g>
</g>
</svg>