<?xml version="1.0" standalone="no"?>
<!DOCTYPE svg PUBLIC "-//W3C//DTD SVG 20010904//EN"
 "http://www.w3.org/TR/2001/REC-SVG-20010904/DTD/svg10.dtd">
<svg version="1.0" xmlns="http://www.w3.org/2000/svg"
 width="96.000000pt" height="68.000000pt" viewBox="0 0 96.000000 68.000000"
 preserveAspectRatio="xMidYMid meet">
<metadata>
Created by potrace 1.16, written by Peter Selinger 2001-2019
Combined from part_0.svg through part_5.svg with named groups
</metadata>
<g transform="translate(0.000000,68.000000) scale(0.100000,-0.100000)" fill="#000000" stroke="none">
<g id="part-0" class="char-part">
  <path d="M400 609 c0 -17 33 -69 45 -70 5 -1 -1 -5 -15 -9 -37 -12 -180 -12
-180 0 0 25 -27 6 -48 -32 -29 -57 -29 -78 2 -78 17 0 30 10 42 28 16 28 17
29 213 50 108 12 200 22 204 22 5 0 -1 -14 -13 -31 -12 -16 -20 -32 -18 -35 3
-2 37 3 76 12 84 19 90 32 32 69 -37 24 -44 24 -107 15 -107 -15 -133 -13
-133 9 0 11 -13 29 -29 40 -31 23 -71 28 -71 10z"/>
  <path d="M425 432 c-118 -19 -126 -22 -96 -33 17 -7 48 -5 99 6 89 18 92 18
92 3 0 -19 -52 -68 -72 -68 -16 0 -16 -3 -6 -20 8 -13 9 -23 3 -29 -6 -5 -75
-14 -154 -20 -80 -7 -147 -14 -149 -16 -3 -2 8 -9 24 -15 22 -9 55 -7 136 4
58 9 119 16 134 16 l27 0 -6 -76 c-7 -91 -15 -103 -59 -86 l-32 12 39 -40 c22
-22 45 -40 53 -40 23 0 42 66 42 150 l0 80 58 0 c95 0 242 12 242 20 0 4 -13
13 -30 20 -23 9 -55 10 -146 1 -72 -7 -121 -8 -127 -2 -20 20 0 46 61 75 34
17 62 34 62 38 0 12 -57 38 -82 37 -13 -1 -63 -9 -113 -17z"/>
</g>
<g id="part-1" class="char-part">
  <path d="M410 599 c0 -6 11 -25 25 -43 l25 -33 -96 -7 c-81 -5 -100 -4 -114 9
-16 15 -19 12 -42 -32 -14 -26 -23 -54 -21 -60 8 -24 34 -13 54 22 19 32 25
35 68 35 26 0 101 7 166 15 124 15 195 19 195 10 0 -3 -7 -17 -16 -30 -9 -14
-12 -25 -6 -25 21 0 117 24 125 31 5 3 -8 19 -27 34 -34 26 -41 27 -104 21
-37 -4 -83 -9 -103 -12 -34 -6 -36 -4 -42 23 -4 18 -15 34 -32 41 -32 15 -55
15 -55 1z"/>
</g>
<g id="part-2" class="char-part">
  <path d="M450 434 c-36 -7 -82 -13 -102 -14 -38 0 -51 -16 -23 -26 8 -4 56 1
106 11 50 9 94 14 97 11 3 -4 -10 -22 -28 -41 -42 -43 -34 -54 17 -23 21 14
53 30 71 37 40 17 40 26 2 46 -34 17 -52 17 -140 -1z"/>
</g>
<g id="part-3" class="char-part">
  <path d="M438 328 c7 -7 12 -20 12 -29 0 -15 -16 -18 -117 -24 -65 -3 -136
-10 -158 -14 l-40 -8 30 -12 c24 -10 51 -9 137 3 164 24 158 26 157 -36 -2
-89 -11 -113 -39 -112 -14 1 -34 5 -44 9 -11 5 2 -11 27 -34 73 -68 97 -41 97
105 l0 84 68 0 c98 0 232 12 232 20 0 4 -13 13 -30 20 -23 10 -54 10 -137 1
-139 -14 -132 -15 -143 14 -7 18 -17 25 -37 25 -21 0 -24 -3 -15 -12z"/>
</g>
</g>
</svg>