<?xml version="1.0" standalone="no"?>
<!DOCTYPE svg PUBLIC "-//W3C//DTD SVG 20010904//EN"
 "http://www.w3.org/TR/2001/REC-SVG-20010904/DTD/svg10.dtd">
<svg version="1.0" xmlns="http://www.w3.org/2000/svg"
 width="96.000000pt" height="68.000000pt" viewBox="0 0 96.000000 68.000000"
 preserveAspectRatio="xMidYMid meet">
<metadata>
Created by potrace 1.16, written by Peter Selinger 2001-2019
Combined from part_0.svg through part_5.svg with named groups
</metadata>
<g transform="translate(0.000000,68.000000) scale(0.100000,-0.100000)" fill="#000000" stroke="none">
<g id="part-0" class="char-part">
  <path d="M237 522 l6 -90 -62 -7 c-78 -9 -79 -25 -1 -25 l60 0 0 -44 0 -43
-68 -32 c-38 -17 -74 -31 -80 -31 -22 0 -12 -30 13 -42 21 -10 32 -7 76 20 27
18 52 32 55 32 6 0 5 -62 -3 -88 -5 -20 -11 -23 -38 -20 l-33 4 35 -43 c65
-79 92 -52 93 89 l0 96 35 22 c36 22 49 48 18 35 -50 -21 -55 -19 -51 16 3 29
8 34 36 40 58 12 57 30 -1 32 -34 1 -35 2 -30 36 2 20 9 49 15 64 13 34 -2 53
-49 63 l-32 6 6 -90z"/>
  <path d="M561 534 c-46 -48 -87 -67 -128 -61 -30 5 -34 4 -26 -11 11 -24 7
-139 -7 -192 -6 -25 -25 -66 -41 -92 -16 -27 -25 -48 -20 -48 14 0 72 70 86
104 11 28 31 130 38 195 1 17 10 27 27 32 14 3 50 18 80 32 30 13 65 28 78 32
25 7 27 16 10 33 -22 22 -62 13 -97 -24z"/>
  <path d="M518 298 c3 -168 8 -208 26 -208 11 0 15 35 18 168 4 167 1 182 -32
182 -13 0 -15 -21 -12 -142z"/>
  <path d="M600 427 c0 -7 4 -17 9 -22 6 -6 35 -60 65 -122 30 -61 64 -116 75
-122 23 -13 80 -14 98 -3 9 6 -6 22 -47 51 -63 44 -105 94 -142 169 -23 45
-58 75 -58 49z"/>
</g>
<g id="part-1" class="char-part">
  <path d="M235 600 c-3 -5 -1 -20 5 -35 5 -14 10 -50 10 -79 0 -60 -8 -66 -82
-66 -21 0 -38 -4 -38 -10 0 -6 27 -10 61 -10 l60 0 -3 -47 -3 -46 -65 -28
c-36 -15 -74 -30 -84 -33 -16 -4 -17 -7 -6 -20 19 -24 48 -19 102 15 27 17 51
30 53 27 3 -2 1 -31 -3 -64 l-8 -59 -33 3 -34 2 42 -42 c39 -41 42 -42 58 -25
14 14 19 38 21 115 l3 97 37 33 37 32 -37 -15 -38 -15 0 39 c0 36 2 39 35 45
19 4 35 11 35 16 0 6 -16 10 -35 10 -32 0 -35 3 -35 28 1 15 7 45 15 67 8 22
11 43 6 48 -13 13 -70 26 -76 17z"/>
</g>
<g id="part-2" class="char-part">
  <path d="M570 543 c-47 -50 -99 -75 -137 -68 -33 6 -34 5 -26 -17 12 -35 5
-152 -13 -205 -9 -26 -27 -63 -40 -82 -32 -47 -21 -52 21 -11 44 42 64 96 79
205 11 86 11 87 46 100 63 23 163 65 168 70 3 2 -1 11 -8 20 -19 23 -62 18
-90 -12z"/>
</g>
<g id="part-3" class="char-part">
  <path d="M518 288 c3 -172 6 -198 26 -198 11 0 15 34 18 168 4 167 1 181 -32
182 -13 0 -15 -22 -12 -152z"/>
</g>
<g id="part-4" class="char-part">
  <path d="M602 413 c9 -10 39 -64 67 -121 62 -124 79 -142 129 -142 64 0 67 13
13 48 -59 39 -113 97 -142 154 -27 54 -48 78 -67 78 -13 0 -13 -2 0 -17z"/>
</g>
</g>
</svg>