<?xml version="1.0" standalone="no"?>
<!DOCTYPE svg PUBLIC "-//W3C//DTD SVG 20010904//EN"
 "http://www.w3.org/TR/2001/REC-SVG-20010904/DTD/svg10.dtd">
<svg version="1.0" xmlns="http://www.w3.org/2000/svg"
 width="96.000000pt" height="68.000000pt" viewBox="0 0 96.000000 68.000000"
 preserveAspectRatio="xMidYMid meet">
<metadata>
Created by potrace 1.16, written by Peter Selinger 2001-2019
Combined from part_0.svg through part_5.svg with named groups
</metadata>
<g transform="translate(0.000000,68.000000) scale(0.100000,-0.100000)" fill="#000000" stroke="none">
<g id="part-0" class="char-part">
  <path d="M227 521 l6 -88 -52 -7 c-66 -9 -66 -26 0 -26 l50 0 -3 -47 -3 -48
-72 -35 c-39 -19 -72 -39 -72 -44 -1 -12 31 -35 50 -36 8 0 34 16 58 36 l42
36 -3 -58 c-3 -58 -4 -59 -35 -64 l-31 -5 37 -42 c58 -64 81 -32 81 111 l0 95
36 29 c39 33 33 49 -10 27 -27 -14 -27 -14 -24 17 3 28 8 33 36 39 18 4 36 10
40 13 10 10 -19 26 -49 26 -25 0 -26 2 -18 43 4 23 10 52 14 64 6 17 1 25 -24
37 -58 31 -61 26 -54 -73z"/>
  <path d="M652 320 c3 -149 8 -274 12 -277 15 -15 20 18 27 173 4 91 9 168 12
171 3 3 33 -12 66 -32 60 -37 91 -41 91 -11 0 18 -41 41 -90 51 -77 15 -73 9
-67 95 5 82 -1 100 -36 100 -19 0 -20 -7 -15 -270z"/>
  <path d="M454 513 l1 -58 -37 -3 c-51 -4 -49 -22 2 -22 40 0 40 0 40 -39 l0
-39 -55 -7 c-82 -10 -71 -29 13 -21 37 3 96 9 132 12 36 3 69 10 74 15 14 12
-40 22 -84 15 l-40 -6 0 39 c0 37 1 39 40 45 49 8 44 26 -6 26 l-36 0 4 48 c3
44 2 47 -23 50 -26 3 -26 2 -25 -55z"/>
  <path d="M455 281 c6 -28 4 -29 -34 -36 -24 -4 -38 -11 -35 -17 4 -6 22 -8 40
-5 35 6 40 0 35 -48 -2 -27 -19 -35 -73 -35 -52 0 -60 -8 -27 -28 17 -11 33
-9 102 12 45 13 97 27 115 31 17 4 32 11 32 16 0 11 -11 11 -68 0 l-43 -9 3
37 c2 30 7 37 28 39 42 6 47 22 7 22 -33 0 -37 3 -37 25 0 20 -5 25 -26 25
-23 0 -25 -3 -19 -29z"/>
</g>
<g id="part-1" class="char-part">
  <path d="M224 575 c3 -13 9 -51 12 -83 6 -56 5 -59 -17 -65 -13 -4 -36 -7 -51
-7 -15 0 -30 -4 -33 -10 -4 -6 15 -10 50 -10 l56 0 -3 -46 -3 -47 -78 -42
c-78 -42 -79 -43 -56 -59 31 -21 31 -21 79 19 23 19 45 33 49 31 3 -2 4 -31 1
-63 -5 -56 -6 -58 -33 -56 l-28 2 31 -40 c18 -21 36 -39 40 -39 21 0 30 44 30
138 l0 100 36 27 c39 30 38 46 -1 25 -31 -17 -37 -11 -29 27 5 27 12 32 45 37
48 8 42 26 -7 26 -38 0 -39 3 -23 80 13 60 2 80 -43 80 -27 0 -30 -3 -24 -25z"/>
</g>
<g id="part-2" class="char-part">
  <path d="M447 574 c-2 -2 1 -27 7 -55 11 -56 3 -69 -46 -69 -16 0 -28 -4 -28
-10 0 -5 18 -10 40 -10 40 0 40 0 40 -39 l0 -39 -55 -7 c-30 -3 -55 -11 -55
-17 0 -11 19 -10 213 11 76 8 73 26 -3 25 l-60 -1 0 38 c0 36 2 38 40 44 52 9
52 25 -1 25 l-41 0 4 47 c3 43 1 47 -24 54 -15 4 -28 5 -31 3z"/>
</g>
<g id="part-3" class="char-part">
  <path d="M455 281 c6 -28 4 -29 -34 -36 -48 -8 -45 -25 5 -25 32 0 34 -2 34
-34 0 -38 9 -34 -109 -49 -12 -2 -11 -6 4 -20 11 -11 27 -17 39 -14 73 17 213
60 221 68 12 11 -27 11 -77 0 l-38 -9 0 34 c0 29 4 35 28 40 52 11 57 18 15
22 -34 2 -43 7 -43 22 0 17 -18 30 -42 30 -5 0 -7 -12 -3 -29z"/>
</g>
<g id="part-4" class="char-part">
  <path d="M652 314 c4 -152 9 -279 12 -282 15 -15 21 22 27 179 3 93 9 172 12
176 4 3 33 -10 66 -30 67 -42 76 -44 85 -20 11 28 -15 42 -128 67 l-28 7 3 77
c4 85 -2 102 -34 102 l-22 0 7 -276z"/>
</g>
</g>
</svg>