<?xml version="1.0" standalone="no"?>
<!DOCTYPE svg PUBLIC "-//W3C//DTD SVG 20010904//EN"
 "http://www.w3.org/TR/2001/REC-SVG-20010904/DTD/svg10.dtd">
<svg version="1.0" xmlns="http://www.w3.org/2000/svg"
 width="96.000000pt" height="68.000000pt" viewBox="0 0 96.000000 68.000000"
 preserveAspectRatio="xMidYMid meet">
<metadata>
Created by potrace 1.16, written by Peter Selinger 2001-2019
Combined from part_0.svg through part_5.svg with named groups
</metadata>
<g transform="translate(0.000000,68.000000) scale(0.100000,-0.100000)" fill="#000000" stroke="none">
<g id="part-0" class="char-part">
  <path d="M567 633 c-4 -3 -7 -21 -7 -38 0 -39 -14 -52 -60 -57 -47 -4 -45 -22
3 -26 20 -2 37 -5 37 -7 0 -2 -8 -20 -17 -40 -28 -58 -3 -63 34 -6 l32 48 66
6 c37 2 72 10 77 15 15 15 -63 35 -98 26 -24 -6 -26 -5 -20 12 19 46 18 54 -9
64 -31 12 -30 12 -38 3z"/>
  <path d="M273 598 c3 -13 8 -32 12 -44 6 -18 2 -22 -25 -28 -18 -3 -48 -6 -66
-6 -40 0 -43 -13 -9 -36 22 -14 32 -15 64 -5 54 16 58 15 70 -19 5 -17 17 -30
26 -30 13 0 16 8 13 38 -3 34 -1 38 30 47 45 13 43 35 -3 28 -34 -5 -35 -5
-35 26 0 25 -6 34 -26 41 -42 16 -57 13 -51 -12z"/>
  <path d="M410 451 c5 -11 10 -33 10 -49 0 -27 -3 -30 -46 -36 -26 -3 -66 -6
-90 -6 -45 0 -58 -12 -27 -24 10 -4 47 -4 83 0 62 7 64 6 50 -11 -41 -50 -120
-114 -189 -153 -47 -27 -65 -41 -46 -37 50 11 132 56 195 107 33 26 62 48 65
48 7 0 6 -85 -1 -104 -4 -12 -20 -16 -56 -16 -30 0 -47 -4 -43 -10 3 -5 27
-10 52 -10 l46 0 -7 -40 c-4 -24 -2 -50 5 -63 16 -31 16 -31 33 -14 8 8 16 38
18 68 l3 54 55 5 55 6 -30 13 c-16 7 -42 10 -57 7 l-28 -6 0 71 0 70 93 -79
c50 -44 102 -84 115 -91 25 -13 152 -6 152 9 0 4 -39 20 -86 35 -47 15 -108
42 -136 61 -27 19 -53 34 -57 34 -3 0 -24 14 -45 30 l-40 30 40 2 c21 0 44 2
49 3 6 2 32 3 58 4 45 1 47 2 32 17 -14 14 -30 16 -97 10 l-80 -7 7 37 c7 41
-3 54 -43 54 -19 0 -21 -3 -12 -19z"/>
</g>
<g id="part-1" class="char-part">
  <path d="M566 608 c-3 -13 -6 -33 -6 -45 0 -18 -6 -23 -27 -23 -16 0 -39 -3
-51 -7 -30 -7 -10 -23 31 -23 31 0 33 -9 11 -52 -24 -46 4 -31 39 20 l28 42
70 0 c38 0 69 4 69 9 0 14 -27 21 -76 21 -45 0 -53 10 -34 40 5 9 5 19 -2 27
-17 20 -45 15 -52 -9z"/>
  <path d="M270 605 c0 -3 7 -19 15 -36 9 -16 13 -34 10 -39 -3 -6 -36 -10 -72
-10 l-66 0 19 -21 c15 -17 27 -20 59 -15 23 3 48 8 56 11 10 4 20 -5 30 -27
17 -40 35 -35 31 9 -2 28 1 33 35 44 l38 14 -40 5 c-35 4 -41 9 -45 35 -4 25
-10 30 -38 33 -17 2 -32 1 -32 -3z"/>
</g>
<g id="part-2" class="char-part">
  <path d="M410 451 c5 -11 10 -33 10 -49 0 -28 -3 -30 -52 -36 -29 -3 -70 -6
-90 -6 -20 0 -39 -4 -43 -9 -9 -16 33 -23 103 -16 l67 6 -71 -68 c-43 -41
-100 -84 -145 -107 -56 -29 -66 -37 -40 -32 54 10 159 66 212 114 28 25 53 42
56 38 4 -3 2 -54 -4 -113 -11 -103 -6 -153 16 -153 23 0 31 46 31 170 l0 131
88 -76 c117 -102 127 -107 207 -99 36 4 65 10 65 13 0 3 -39 20 -87 36 -55 19
-122 52 -181 91 l-94 61 96 8 c53 4 96 11 96 15 0 15 -59 22 -126 14 l-67 -7
7 38 c8 42 -2 55 -42 55 -19 0 -21 -3 -12 -19z"/>
</g>
<g id="part-3" class="char-part">
  <path d="M403 177 c-140 -15 -117 -31 34 -24 69 4 128 9 131 12 20 20 -51 25
-165 12z"/>
</g>
</g>
</svg>