<?xml version="1.0" standalone="no"?>
<!DOCTYPE svg PUBLIC "-//W3C//DTD SVG 20010904//EN"
 "http://www.w3.org/TR/2001/REC-SVG-20010904/DTD/svg10.dtd">
<svg version="1.0" xmlns="http://www.w3.org/2000/svg"
 width="96.000000pt" height="68.000000pt" viewBox="0 0 96.000000 68.000000"
 preserveAspectRatio="xMidYMid meet">
<metadata>
Created by potrace 1.16, written by Peter Selinger 2001-2019
Combined from part_0.svg through part_5.svg with named groups
</metadata>
<g transform="translate(0.000000,68.000000) scale(0.100000,-0.100000)" fill="#000000" stroke="none">
<g id="part-0" class="char-part">
  <path d="M396 641 c-3 -4 1 -25 7 -48 6 -24 9 -45 6 -48 -3 -3 -39 -9 -80 -13
-41 -4 -73 -11 -72 -17 2 -5 37 -11 78 -13 72 -3 75 -4 75 -27 0 -23 -4 -25
-47 -27 -162 -7 -150 -5 -131 -20 9 -7 26 -46 38 -85 11 -40 25 -73 30 -73 6
0 10 5 10 10 0 6 19 10 42 10 l42 0 -29 -30 c-35 -36 -152 -118 -215 -150 -25
-13 -39 -25 -33 -27 31 -11 202 68 242 111 41 43 49 35 39 -41 -10 -71 -4
-128 13 -139 6 -3 19 2 30 12 16 15 19 31 19 118 l0 100 43 -40 c23 -22 62
-57 86 -77 44 -36 46 -37 125 -36 45 1 92 4 106 8 22 6 21 8 -21 24 -24 9 -50
17 -55 17 -46 0 -284 128 -284 153 0 6 24 8 66 4 l65 -5 25 57 c14 31 29 64
34 73 15 27 12 34 -17 47 -24 11 -106 8 -156 -6 -15 -4 -18 0 -15 18 3 20 12
24 70 34 73 12 84 17 73 36 -6 8 -27 10 -71 6 l-63 -6 -3 42 c-3 38 -6 42 -36
48 -18 4 -34 4 -36 0z m190 -214 c3 -21 -4 -24 -73 -30 -53 -4 -53 -4 -53 25
l0 29 62 -3 c50 -2 62 -6 64 -21z m-176 -16 c0 -28 -2 -29 -52 -33 -53 -4 -68
3 -68 33 0 11 12 16 47 18 26 1 49 4 52 7 12 12 21 1 21 -25z m161 -54 c-6
-17 -19 -23 -55 -27 -52 -7 -56 -5 -56 21 0 18 14 24 70 32 39 5 50 -2 41 -26z
m-173 -38 c-7 -5 -29 -8 -48 -7 -27 2 -36 8 -38 25 -3 20 2 22 45 25 41 3 49
0 51 -16 2 -10 -2 -23 -10 -27z"/>
</g>
<g id="part-1" class="char-part">
  <path d="M407 585 l6 -55 -39 0 c-58 0 -114 -11 -108 -21 3 -5 37 -9 76 -9
l70 0 -4 -106 -3 -106 -53 -47 c-30 -26 -93 -71 -140 -99 -52 -32 -78 -52 -65
-52 31 0 172 74 221 115 l42 37 0 -39 c0 -21 -5 -56 -10 -78 -17 -73 26 -143
50 -81 5 13 6 65 3 115 -3 50 -3 91 1 91 5 0 38 -28 74 -61 95 -87 117 -99
182 -98 30 1 69 4 85 8 l30 6 -30 12 c-16 6 -66 23 -109 39 -44 15 -114 50
-155 78 l-76 51 -2 60 c-1 33 1 83 4 112 l5 52 42 6 c114 18 111 17 90 32 -18
13 -63 12 -118 -4 -16 -4 -17 -1 -11 35 5 34 3 42 -14 51 -42 23 -50 15 -44
-44z"/>
</g>
<g id="part-2" class="char-part">
  <path d="M475 464 c-44 -7 -119 -14 -167 -16 -83 -3 -105 -9 -75 -21 7 -3 23
-39 35 -81 13 -42 25 -76 27 -76 3 0 13 4 23 9 24 13 225 29 237 19 22 -19 38
-4 71 68 19 41 34 79 34 83 0 13 -49 31 -78 30 -15 -1 -63 -8 -107 -15z m105
-38 c0 -22 -4 -24 -50 -24 -28 -1 -55 -4 -60 -7 -13 -8 -24 20 -16 40 4 11 21
15 66 15 57 0 60 -1 60 -24z m-170 -16 l0 -31 -57 3 c-50 3 -58 6 -58 23 0 17
9 21 50 26 28 3 53 7 58 7 4 1 7 -12 7 -28z m156 -55 c-6 -23 -11 -25 -61 -25
-48 0 -55 3 -55 19 0 16 9 21 48 26 26 4 52 8 57 9 16 5 18 -1 11 -29z m-156
-14 c0 -15 -10 -21 -40 -26 -45 -8 -60 -2 -60 26 0 16 7 19 50 19 43 0 50 -3
50 -19z"/>
</g>
</g>
</svg>