<?xml version="1.0" standalone="no"?>
<!DOCTYPE svg PUBLIC "-//W3C//DTD SVG 20010904//EN"
 "http://www.w3.org/TR/2001/REC-SVG-20010904/DTD/svg10.dtd">
<svg version="1.0" xmlns="http://www.w3.org/2000/svg"
 width="96.000000pt" height="68.000000pt" viewBox="0 0 96.000000 68.000000"
 preserveAspectRatio="xMidYMid meet">
<metadata>
Created by potrace 1.16, written by Peter Selinger 2001-2019
Combined from part_0.svg through part_5.svg with named groups
</metadata>
<g transform="translate(0.000000,68.000000) scale(0.100000,-0.100000)" fill="#000000" stroke="none">
<g id="part-0" class="char-part">
  <path d="M259 538 c-17 -66 -72 -149 -151 -229 -21 -21 -38 -40 -38 -43 0 -12
56 17 95 48 50 41 90 44 90 6 0 -22 -5 -26 -44 -30 -65 -7 -66 -30 -2 -30 42
0 51 -3 51 -17 0 -10 3 -34 6 -53 6 -35 5 -36 -40 -48 -26 -6 -66 -12 -91 -12
-50 0 -57 -11 -23 -34 24 -17 78 -21 93 -7 6 5 55 23 110 41 55 17 104 36 109
40 18 17 -19 20 -67 6 l-47 -14 0 33 c0 59 14 82 57 88 49 8 115 71 163 155
19 34 38 62 42 62 4 0 40 -43 80 -95 71 -93 73 -95 113 -94 22 1 51 4 65 8 23
7 17 11 -54 47 -80 39 -202 146 -190 166 8 12 -25 48 -43 48 -7 0 -13 -10 -13
-23 0 -26 -68 -171 -101 -217 -19 -25 -29 -30 -66 -30 -39 0 -43 2 -43 24 0
17 8 25 31 32 17 5 30 14 30 19 -1 11 -43 12 -104 2 -21 -3 -37 -3 -35 1 2 4
19 31 37 60 31 47 51 65 51 44 0 -9 54 -42 69 -42 6 0 11 12 11 26 0 21 -8 29
-40 41 -22 9 -40 22 -40 29 0 13 -30 34 -49 34 -6 0 -15 -19 -22 -42z"/>
  <path d="M543 336 c-60 -16 -63 -26 -7 -25 60 1 96 11 102 27 5 15 -36 14 -95
-2z"/>
  <path d="M363 243 c-3 -10 -13 -26 -21 -36 -26 -29 -5 -31 43 -2 43 25 45 28
28 41 -25 18 -42 17 -50 -3z"/>
  <path d="M605 245 c-27 -7 -71 -14 -97 -14 -38 -1 -46 -4 -42 -16 8 -19 50
-19 127 -1 31 7 60 10 63 5 5 -9 -37 -98 -68 -142 -11 -16 -17 -31 -14 -35 9
-8 80 67 129 135 l36 52 -22 16 c-25 17 -43 17 -112 0z"/>
  <path d="M160 211 c27 -52 70 -68 70 -26 0 26 -25 45 -60 45 -17 0 -19 -3 -10
-19z"/>
</g>
<g id="part-1" class="char-part">
  <path d="M265 540 c-8 -48 -69 -144 -137 -216 -28 -30 -46 -54 -40 -54 5 0 37
20 70 45 33 25 66 45 74 45 21 0 38 -21 38 -46 0 -19 -7 -23 -55 -29 -67 -8
-64 -28 4 -23 l46 3 3 -56 c3 -56 2 -57 -29 -68 -18 -6 -56 -11 -85 -11 -59 0
-68 -11 -29 -36 25 -16 31 -15 153 26 136 46 175 67 105 56 -23 -3 -49 -9 -58
-12 -14 -6 -16 1 -13 52 l3 58 45 12 c40 10 42 12 20 17 -14 4 -34 8 -44 9
-12 2 -20 12 -21 26 -2 25 0 26 50 37 25 6 27 8 13 16 -12 7 -37 5 -79 -6 -34
-9 -63 -14 -66 -12 -5 5 78 137 86 137 4 0 19 -13 34 -30 33 -34 45 -37 54
-13 7 19 -29 53 -58 53 -10 0 -19 6 -19 14 0 14 -36 46 -51 46 -4 0 -10 -18
-14 -40z"/>
  <path d="M358 225 c-20 -40 -16 -43 30 -15 28 17 32 23 22 35 -19 23 -34 17
-52 -20z"/>
  <path d="M160 222 c0 -18 33 -52 51 -52 26 0 24 25 -3 44 -24 17 -48 21 -48 8z"/>
</g>
<g id="part-2" class="char-part">
  <path d="M512 509 c-12 -39 -42 -102 -67 -140 -24 -38 -41 -69 -37 -69 18 0
86 78 124 142 l40 68 65 -87 c79 -107 86 -113 137 -112 90 2 91 11 6 52 -88
43 -203 147 -193 175 6 15 -21 42 -41 42 -6 0 -21 -32 -34 -71z"/>
</g>
<g id="part-3" class="char-part">
  <path d="M538 337 c-59 -13 -62 -27 -5 -27 53 0 119 18 112 31 -7 11 -44 10
-107 -4z"/>
</g>
<g id="part-4" class="char-part">
  <path d="M605 244 c-33 -7 -79 -13 -102 -14 -24 0 -43 -4 -43 -10 0 -19 49
-22 122 -7 40 9 75 14 77 11 6 -6 -39 -100 -67 -142 -13 -19 -20 -37 -17 -40
8 -9 62 47 116 120 l49 67 -22 16 c-26 18 -33 17 -113 -1z"/>
</g>
</g>
</svg>