<?xml version="1.0" standalone="no"?>
<!DOCTYPE svg PUBLIC "-//W3C//DTD SVG 20010904//EN"
 "http://www.w3.org/TR/2001/REC-SVG-20010904/DTD/svg10.dtd">
<svg version="1.0" xmlns="http://www.w3.org/2000/svg"
 width="96.000000pt" height="68.000000pt" viewBox="0 0 96.000000 68.000000"
 preserveAspectRatio="xMidYMid meet">
<metadata>
Created by potrace 1.16, written by Peter Selinger 2001-2019
Combined from part_0.svg through part_5.svg with named groups
</metadata>
<g transform="translate(0.000000,68.000000) scale(0.100000,-0.100000)" fill="#000000" stroke="none">
<g id="part-0" class="char-part">
  <path d="M467 538 c33 -60 58 -73 83 -43 10 12 7 20 -18 45 -19 18 -41 30 -57
30 l-26 0 18 -32z"/>
  <path d="M200 551 c0 -17 71 -71 94 -71 36 0 42 31 11 57 -26 23 -105 33 -105
14z"/>
  <path d="M586 475 c-27 -8 -89 -19 -138 -26 -99 -13 -104 -26 -13 -31 l60 -3
3 -57 3 -58 -38 -1 c-21 0 -47 -4 -58 -9 -19 -7 -19 -8 -2 -15 10 -4 36 -5 57
-2 l40 5 0 -63 0 -63 -42 -6 c-24 -3 -69 -6 -101 -8 -32 -1 -60 -5 -63 -9 -10
-17 53 -22 136 -11 48 7 121 12 161 12 102 0 239 12 239 20 0 15 -69 27 -116
19 -27 -4 -75 -8 -107 -8 l-58 -1 3 63 3 62 68 9 c37 5 67 12 67 16 0 13 -58
19 -91 10 -24 -7 -35 -6 -40 2 -10 16 1 101 14 109 5 4 32 10 61 14 57 7 85
23 64 36 -18 12 -54 10 -112 -6z"/>
  <path d="M117 423 c-11 -10 64 -83 84 -83 46 0 34 65 -13 75 -18 4 -40 8 -49
11 -8 2 -19 1 -22 -3z"/>
  <path d="M229 251 c-37 -36 -76 -74 -88 -84 -19 -16 -20 -20 -8 -50 22 -54 48
-47 85 25 18 35 44 82 58 105 44 74 24 76 -47 4z"/>
</g>
<g id="part-1" class="char-part">
  <path d="M238 519 c47 -44 77 -48 77 -10 0 19 -8 27 -35 37 -19 7 -46 13 -60
13 -24 0 -23 -2 18 -40z"/>
  <path d="M144 385 c39 -34 69 -44 80 -26 17 27 -35 62 -93 61 -26 -1 -25 -1
13 -35z"/>
  <path d="M246 257 c-25 -29 -61 -62 -81 -73 -22 -12 -35 -26 -35 -39 0 -23 26
-65 40 -65 5 0 24 28 43 63 18 34 46 84 62 110 15 26 25 50 22 53 -2 3 -25
-19 -51 -49z"/>
</g>
<g id="part-2" class="char-part">
  <path d="M450 569 c0 -5 12 -28 27 -50 19 -29 32 -39 47 -37 30 4 33 49 5 67
-32 19 -79 32 -79 20z"/>
  <path d="M605 479 c-29 -9 -207 -39 -232 -39 -7 0 -13 -4 -13 -10 0 -16 136
-11 243 9 104 20 120 27 97 41 -18 12 -55 11 -95 -1z"/>
</g>
<g id="part-3" class="char-part">
  <path d="M510 424 c-12 -4 -15 -19 -15 -62 0 -56 0 -57 -30 -60 -87 -8 -98
-32 -14 -32 l49 0 0 -59 0 -58 -37 -7 c-21 -3 -68 -6 -105 -6 -38 0 -68 -4
-68 -10 0 -16 47 -23 103 -16 47 6 341 24 410 25 36 1 35 16 -3 29 -20 7 -49
8 -87 2 -32 -6 -82 -10 -111 -10 l-53 0 3 63 3 62 68 9 c37 4 67 12 67 16 0
14 -49 20 -90 11 -28 -6 -40 -6 -41 3 -1 6 -2 31 -3 56 -1 45 -10 54 -46 44z"/>
</g>
</g>
</svg>