<?xml version="1.0" standalone="no"?>
<!DOCTYPE svg PUBLIC "-//W3C//DTD SVG 20010904//EN"
 "http://www.w3.org/TR/2001/REC-SVG-20010904/DTD/svg10.dtd">
<svg version="1.0" xmlns="http://www.w3.org/2000/svg"
 width="96.000000pt" height="68.000000pt" viewBox="0 0 96.000000 68.000000"
 preserveAspectRatio="xMidYMid meet">
<metadata>
Created by potrace 1.16, written by Peter Selinger 2001-2019
Combined from part_0.svg through part_5.svg with named groups
</metadata>
<g transform="translate(0.000000,68.000000) scale(0.100000,-0.100000)" fill="#000000" stroke="none">
<g id="part-0" class="char-part">
  <path d="M530 595 c0 -22 34 -65 50 -65 31 0 25 37 -10 55 -31 16 -40 18 -40
10z"/>
  <path d="M275 534 c-34 -10 -59 -11 -77 -5 -33 12 -37 3 -29 -69 3 -30 3 -103
0 -162 -6 -99 -9 -111 -44 -173 -20 -37 -35 -68 -32 -71 9 -9 58 39 81 79 14
23 28 59 31 79 6 34 9 36 27 27 15 -8 24 -7 37 5 10 9 22 16 28 16 6 0 14 6
16 13 8 18 8 -114 0 -141 -6 -24 -26 -26 -75 -7 -33 13 -17 -10 34 -49 l51
-39 24 27 c22 26 23 33 23 204 0 97 5 193 10 212 9 31 7 37 -12 52 -26 20 -26
20 -93 2z m41 -38 c3 -7 4 -31 2 -53 l-3 -39 -43 9 c-42 8 -43 9 -40 45 2 29
8 38 28 43 39 11 50 10 56 -5z m-9 -146 c7 0 13 -9 13 -19 0 -13 -13 -24 -40
-35 -22 -9 -45 -16 -50 -16 -6 0 -10 25 -10 55 l0 55 37 -20 c21 -11 43 -20
50 -20z"/>
  <path d="M689 536 c-3 -3 -60 -12 -128 -20 -67 -7 -125 -17 -128 -20 -4 -3 3
-6 14 -6 23 0 37 -14 62 -64 12 -23 15 -36 7 -39 -17 -5 -71 -1 -83 6 -12 7
-53 -54 -53 -79 0 -25 36 -15 50 14 8 15 15 28 16 30 1 2 31 6 66 8 34 3 99 9
143 14 44 6 83 10 88 10 5 0 5 -14 2 -32 -6 -25 -5 -30 8 -25 9 3 32 9 52 13
45 8 44 32 -2 55 -26 13 -43 14 -93 6 -69 -11 -81 -6 -54 24 10 11 19 32 20
47 0 22 6 28 33 32 17 3 32 10 32 15 0 11 -43 20 -52 11z m-59 -70 c0 -17 -7
-42 -16 -54 -20 -28 -54 -29 -54 -2 0 12 -11 31 -25 44 -14 13 -25 26 -25 29
0 3 17 7 38 9 84 7 82 8 82 -26z"/>
  <path d="M545 351 c-6 -11 11 -52 28 -62 5 -4 -19 -10 -54 -13 -96 -10 -122
-17 -112 -27 6 -6 32 -6 67 -1 35 6 59 5 62 0 9 -15 -48 -88 -105 -135 -29
-24 -49 -43 -46 -43 20 0 96 50 140 90 48 46 53 48 93 43 47 -6 50 -14 27 -71
-20 -49 -40 -63 -71 -52 -28 11 -29 8 -8 -25 20 -30 56 -33 82 -5 10 11 31 47
47 81 29 59 29 61 10 75 -10 8 -32 14 -48 14 -35 0 -67 16 -67 34 0 10 24 15
95 18 52 2 97 7 101 11 21 20 -35 27 -121 14 -45 -6 -51 -5 -60 15 -13 28 -51
53 -60 39z"/>
</g>
<g id="part-1" class="char-part">
  <path d="M270 528 c-19 -5 -48 -8 -65 -6 l-30 3 0 -140 c0 -167 -5 -195 -49
-268 -19 -31 -31 -57 -27 -57 28 0 100 107 101 150 0 8 4 21 9 29 8 12 12 13
26 1 14 -11 21 -9 50 20 19 19 37 32 39 29 2 -2 1 -42 -3 -89 l-6 -85 -44 2
-43 2 38 -34 c87 -76 101 -44 105 229 2 171 0 209 -12 217 -17 11 -44 10 -89
-3z m50 -73 l0 -56 -37 6 c-65 11 -66 12 -60 52 7 42 20 53 65 53 l32 0 0 -55z
m-55 -85 c3 -6 17 -10 29 -10 26 0 41 -33 22 -49 -17 -14 -87 -41 -95 -37 -3
2 -4 31 -3 65 3 56 5 60 22 51 11 -6 22 -15 25 -20z"/>
</g>
<g id="part-2" class="char-part">
  <path d="M530 587 c0 -22 30 -57 50 -57 32 0 35 22 6 47 -30 25 -56 30 -56 10z"/>
  <path d="M689 535 c-3 -2 -50 -9 -105 -15 -54 -6 -115 -13 -134 -17 l-35 -6
29 -8 c27 -8 278 15 297 27 15 9 0 24 -25 24 -12 0 -25 -2 -27 -5z"/>
</g>
<g id="part-3" class="char-part">
  <path d="M635 398 c-38 -5 -104 -8 -147 -6 l-76 3 -16 -36 c-21 -47 -20 -59 3
-59 11 0 23 11 30 28 12 28 15 29 124 41 62 6 132 15 156 18 l43 6 -7 -31 -6
-30 43 10 c59 13 69 25 39 49 -26 21 -68 23 -186 7z"/>
</g>
<g id="part-4" class="char-part">
  <path d="M586 221 c-4 -6 8 -13 30 -17 46 -9 52 -26 25 -80 -24 -50 -40 -61
-70 -44 -27 14 -27 2 2 -33 21 -26 25 -28 50 -16 19 8 39 35 64 87 36 72 37
74 18 88 -10 8 -30 14 -44 14 -14 0 -36 3 -47 6 -12 3 -25 1 -28 -5z"/>
</g>
</g>
</svg>