<?xml version="1.0" standalone="no"?>
<!DOCTYPE svg PUBLIC "-//W3C//DTD SVG 20010904//EN"
 "http://www.w3.org/TR/2001/REC-SVG-20010904/DTD/svg10.dtd">
<svg version="1.0" xmlns="http://www.w3.org/2000/svg"
 width="96.000000pt" height="68.000000pt" viewBox="0 0 96.000000 68.000000"
 preserveAspectRatio="xMidYMid meet">
<metadata>
Created by potrace 1.16, written by Peter Selinger 2001-2019
Combined from part_0.svg through part_5.svg with named groups
</metadata>
<g transform="translate(0.000000,68.000000) scale(0.100000,-0.100000)" fill="#000000" stroke="none">
<g id="part-0" class="char-part">
  <path d="M410 606 c0 -8 11 -28 25 -44 l24 -29 -97 -6 c-79 -6 -98 -4 -105 8
-15 28 -36 15 -61 -40 -25 -54 -25 -85 -2 -85 18 0 32 13 49 45 15 30 16 30
139 42 274 26 288 26 288 14 0 -7 -3 -10 -7 -8 -5 3 -9 -6 -9 -20 -2 -21 2
-24 20 -19 11 3 41 8 64 12 55 9 62 26 25 59 -26 24 -33 26 -100 21 -40 -3
-91 -9 -113 -12 -36 -6 -40 -5 -40 15 0 13 -12 29 -32 41 -39 23 -68 26 -68 6z"/>
  <path d="M410 444 c-63 -7 -119 -13 -125 -13 -5 -1 -3 -5 5 -11 10 -6 14 -25
12 -65 -3 -88 -57 -177 -147 -242 -54 -39 -20 -34 43 7 47 30 69 53 93 96 27
48 34 53 42 38 6 -10 7 -57 4 -116 -5 -82 -4 -98 9 -98 17 0 146 81 140 88 -3
2 -26 -3 -51 -11 -41 -15 -47 -15 -52 -1 -6 15 3 143 10 151 2 2 68 9 146 15
77 6 141 15 141 20 0 19 -62 19 -194 1 -77 -11 -145 -16 -149 -12 -5 4 -6 16
-2 28 4 15 15 21 36 21 58 0 219 23 219 32 0 11 -63 10 -155 -3 -42 -6 -78 -9
-80 -7 -2 2 -1 15 2 29 5 25 8 27 91 33 117 9 162 17 162 27 0 12 -57 10 -200
-7z"/>
  <path d="M595 229 c-33 -34 -47 -36 -83 -11 -37 26 -60 33 -67 22 -4 -6 -2
-10 4 -10 5 0 42 -28 83 -61 127 -107 138 -112 211 -105 78 9 104 22 61 31
-131 30 -234 66 -234 84 0 3 23 14 50 24 55 20 61 29 27 44 -19 9 -27 6 -52
-18z"/>
</g>
<g id="part-1" class="char-part">
  <path d="M416 598 c4 -7 15 -25 25 -39 l18 -26 -46 -7 c-87 -12 -155 -7 -168
11 -11 15 -16 11 -39 -35 -33 -64 -34 -84 -3 -80 13 2 28 15 37 34 l15 30 208
23 c115 12 211 20 214 17 3 -3 -2 -17 -11 -31 -16 -24 -16 -25 4 -25 31 0 109
21 116 31 2 4 -13 20 -34 34 -36 24 -41 25 -112 15 -105 -13 -130 -13 -130 4
0 21 -49 56 -77 56 -17 0 -22 -4 -17 -12z"/>
</g>
<g id="part-2" class="char-part">
  <path d="M557 464 c-3 -3 -249 -34 -272 -34 -5 0 -4 -5 3 -12 7 -7 12 -35 12
-62 0 -75 -35 -140 -114 -213 -37 -35 -64 -63 -60 -63 18 0 116 65 140 93 35
41 69 117 84 188 l13 57 81 6 c117 10 166 17 166 26 0 8 -47 20 -53 14z"/>
</g>
<g id="part-3" class="char-part">
  <path d="M420 368 c-66 -9 -78 -13 -67 -24 9 -9 237 18 237 28 0 10 -85 8
-170 -4z"/>
</g>
<g id="part-4" class="char-part">
  <path d="M334 153 c0 -87 2 -113 13 -113 13 0 153 86 153 94 0 3 -25 -4 -57
-15 -31 -10 -58 -19 -61 -19 -2 0 -3 36 0 79 5 79 4 79 -21 83 l-26 4 -1 -113z"/>
  <path d="M440 239 c0 -5 4 -9 10 -9 5 0 49 -33 98 -74 117 -97 122 -99 196
-91 76 8 103 21 60 30 -116 24 -234 67 -234 85 0 5 23 16 50 25 55 18 63 31
24 41 -20 5 -32 0 -59 -26 l-33 -32 -34 24 c-36 27 -78 42 -78 27z"/>
</g>
</g>
</svg>