<?xml version="1.0" standalone="no"?>
<!DOCTYPE svg PUBLIC "-//W3C//DTD SVG 20010904//EN"
 "http://www.w3.org/TR/2001/REC-SVG-20010904/DTD/svg10.dtd">
<svg version="1.0" xmlns="http://www.w3.org/2000/svg"
 width="96.000000pt" height="68.000000pt" viewBox="0 0 96.000000 68.000000"
 preserveAspectRatio="xMidYMid meet">
<metadata>
Created by potrace 1.16, written by Peter Selinger 2001-2019
Combined from part_0.svg through part_5.svg with named groups
</metadata>
<g transform="translate(0.000000,68.000000) scale(0.100000,-0.100000)" fill="#000000" stroke="none">
<g id="part-0" class="char-part">
  <path d="M208 575 c-3 -4 -1 -25 4 -48 10 -40 5 -292 -8 -422 -4 -45 -2 -65 9
-80 30 -39 41 -5 49 153 3 81 7 162 7 180 l1 33 26 -20 c30 -24 56 -17 52 13
-2 15 -14 24 -41 30 l-39 10 7 61 c6 59 5 63 -19 78 -27 18 -39 21 -48 12z"/>
  <path d="M433 525 c-15 -31 -36 -66 -46 -76 -11 -11 -16 -23 -12 -27 4 -4 19
7 34 24 26 28 37 32 124 43 52 7 108 16 123 20 55 16 -3 25 -74 11 -143 -26
-129 -25 -109 -3 21 24 22 37 3 52 -11 10 -19 1 -43 -44z"/>
  <path d="M531 444 c-105 -19 -101 -28 8 -20 99 7 115 11 106 27 -7 11 -20 10
-114 -7z"/>
  <path d="M121 356 c-13 -30 -21 -63 -17 -71 10 -26 37 -16 52 20 18 43 18 66
1 89 -12 17 -16 13 -36 -38z"/>
  <path d="M523 376 c-79 -11 -143 -24 -143 -28 0 -11 60 -9 173 6 l98 13 -8
-56 c-18 -125 -1 -203 54 -251 31 -27 41 -31 86 -28 37 2 53 7 55 18 3 18 -29
100 -34 85 -1 -5 -5 -22 -8 -38 -13 -55 -88 -25 -115 46 -22 59 -5 164 34 206
15 17 15 20 0 35 -19 19 -9 19 -192 -8z"/>
  <path d="M458 267 l4 -54 -48 -7 c-26 -3 -60 -6 -76 -6 -19 0 -27 -4 -22 -11
4 -8 29 -9 76 -4 l70 6 -4 -88 c-2 -73 0 -88 12 -88 12 0 16 18 18 88 l3 87
29 1 c17 1 35 3 40 4 6 1 20 3 33 4 22 2 22 2 2 17 -14 10 -32 13 -61 8 l-42
-6 1 49 c2 41 -1 48 -18 51 -18 3 -20 -2 -17 -51z"/>
  <path d="M559 288 c-7 -13 -17 -26 -23 -30 -20 -14 21 -9 48 6 25 13 26 15 11
30 -21 21 -22 20 -36 -6z"/>
  <path d="M350 282 c0 -10 43 -52 53 -52 19 0 4 38 -18 48 -31 14 -35 15 -35 4z"/>
  <path d="M372 136 c-6 -14 -23 -32 -37 -42 -14 -9 -25 -20 -25 -25 0 -16 57
12 86 42 24 25 26 31 14 39 -22 14 -26 13 -38 -14z"/>
  <path d="M563 115 c42 -39 57 -44 57 -16 0 11 -13 25 -34 35 -54 26 -63 19
-23 -19z"/>
</g>
<g id="part-1" class="char-part">
  <path d="M215 378 c0 -106 -2 -225 -5 -265 -3 -49 -1 -76 7 -84 7 -7 16 -10
19 -6 14 14 23 99 24 235 1 78 5 142 9 142 5 0 16 -9 26 -20 21 -24 41 -26 49
-5 6 16 -39 45 -69 45 -16 0 -16 8 1 102 4 20 0 29 -15 37 -45 25 -46 22 -46
-181z"/>
  <path d="M127 355 c-20 -47 -20 -76 0 -82 23 -8 48 86 30 110 -10 15 -14 12
-30 -28z"/>
</g>
<g id="part-2" class="char-part">
  <path d="M441 547 c-7 -19 -25 -55 -41 -80 -34 -55 -29 -60 16 -16 24 24 43
32 76 34 73 4 188 27 182 37 -8 13 -73 9 -134 -7 -73 -20 -75 -19 -55 12 17
25 17 27 -1 40 -26 19 -31 17 -43 -20z"/>
</g>
<g id="part-3" class="char-part">
  <path d="M555 379 c-60 -10 -127 -18 -147 -18 -22 -1 -38 -6 -38 -12 0 -12 56
-10 218 7 l63 7 -8 -54 c-18 -122 -1 -201 53 -249 29 -25 43 -30 85 -30 59 0
66 11 46 70 -15 44 -20 44 -31 -3 -15 -64 -107 -12 -122 69 -10 53 3 122 31
170 25 42 25 43 6 54 -23 12 -16 12 -156 -11z"/>
</g>
<g id="part-4" class="char-part">
  <path d="M460 226 c0 -13 -59 -26 -122 -26 -19 0 -27 -4 -22 -11 5 -8 29 -10
77 -5 l70 6 -6 -77 c-6 -82 4 -122 23 -93 5 8 10 49 10 92 l0 76 61 7 c74 9
66 29 -11 26 -28 -1 -50 3 -50 9 0 5 -7 10 -15 10 -8 0 -15 -6 -15 -14z"/>
  <path d="M365 131 c-8 -16 -27 -39 -41 -50 -15 -12 -21 -21 -15 -21 20 0 65
27 91 55 21 22 22 28 10 35 -23 15 -28 12 -45 -19z"/>
  <path d="M560 116 c34 -37 60 -47 60 -23 0 20 -30 44 -64 53 l-29 7 33 -37z"/>
</g>
</g>
</svg>