<?xml version="1.0" standalone="no"?>
<!DOCTYPE svg PUBLIC "-//W3C//DTD SVG 20010904//EN"
 "http://www.w3.org/TR/2001/REC-SVG-20010904/DTD/svg10.dtd">
<svg version="1.0" xmlns="http://www.w3.org/2000/svg"
 width="96.000000pt" height="68.000000pt" viewBox="0 0 96.000000 68.000000"
 preserveAspectRatio="xMidYMid meet">
<metadata>
Created by potrace 1.16, written by Peter Selinger 2001-2019
Combined from part_0.svg through part_5.svg with named groups
</metadata>
<g transform="translate(0.000000,68.000000) scale(0.100000,-0.100000)" fill="#000000" stroke="none">
<g id="part-0" class="char-part">
  <path d="M407 613 c-3 -16 -22 -54 -43 -86 -32 -52 -39 -57 -63 -52 l-27 6 4
-102 c3 -55 -1 -134 -7 -174 -10 -59 -10 -77 1 -94 16 -26 24 -26 31 -1 5 18
14 20 80 20 41 0 95 3 120 6 44 6 47 5 64 -25 20 -35 37 -39 60 -15 14 14 17
46 17 204 l1 189 -33 16 c-18 8 -37 13 -42 10 -4 -3 -52 -13 -106 -24 l-98
-18 62 59 c34 33 62 66 62 72 0 13 -41 36 -64 36 -8 0 -16 -12 -19 -27z m175
-149 c4 -3 8 -20 8 -38 l0 -33 -82 -7 c-46 -3 -107 -9 -135 -12 l-53 -7 0 37
c0 20 5 36 11 36 5 0 7 4 4 10 -3 6 1 7 9 4 9 -3 24 -3 34 1 9 4 37 9 62 12
24 2 47 6 50 9 5 6 78 -3 92 -12z m8 -138 l0 -43 -47 0 c-27 0 -87 -3 -135 -8
l-88 -8 0 42 0 41 63 1 c34 0 85 4 112 9 97 15 95 15 95 -34z m0 -88 c0 -66
-6 -73 -63 -73 -29 0 -89 -4 -134 -9 l-83 -9 0 39 c0 22 4 44 8 49 4 6 43 12
87 13 44 2 98 7 120 11 64 14 65 13 65 -21z"/>
</g>
<g id="part-1" class="char-part">
  <path d="M410 612 c0 -10 -16 -44 -35 -77 -20 -32 -33 -60 -31 -63 6 -5 146
119 146 130 0 11 -36 28 -59 28 -14 0 -21 -6 -21 -18z"/>
</g>
<g id="part-2" class="char-part">
  <path d="M495 499 c-44 -11 -114 -20 -156 -21 l-77 -1 10 -29 c6 -16 9 -78 6
-138 -3 -109 -3 -110 19 -110 18 0 23 6 23 26 0 20 4 24 19 19 18 -5 182 10
228 21 21 6 23 3 23 -30 0 -33 3 -36 28 -36 l27 0 -1 146 c0 144 -1 146 -25
160 -29 16 -24 16 -124 -7z m69 -29 c21 -8 26 -16 26 -43 l0 -34 -82 -7 c-46
-3 -107 -9 -135 -12 l-53 -7 0 36 c0 25 5 37 18 41 16 5 108 21 162 30 14 2
28 4 32 5 4 0 18 -3 32 -9z m26 -142 l0 -43 -52 -1 c-29 0 -90 -4 -135 -9
l-83 -8 0 42 0 41 68 1 c37 0 87 4 112 8 89 16 90 16 90 -31z"/>
</g>
<g id="part-3" class="char-part">
  <path d="M266 184 c-10 -26 -7 -59 8 -79 14 -19 14 -19 33 2 16 18 32 22 131
26 l114 6 16 -30 c31 -54 72 -31 75 43 2 40 0 43 -25 46 -18 2 -28 -2 -32 -15
-5 -15 -17 -18 -63 -18 -32 0 -93 -4 -135 -8 l-78 -9 0 26 c0 19 -5 26 -19 26
-10 0 -22 -7 -25 -16z"/>
</g>
</g>
</svg>