<?xml version="1.0" standalone="no"?>
<!DOCTYPE svg PUBLIC "-//W3C//DTD SVG 20010904//EN"
 "http://www.w3.org/TR/2001/REC-SVG-20010904/DTD/svg10.dtd">
<svg version="1.0" xmlns="http://www.w3.org/2000/svg"
 width="96.000000pt" height="68.000000pt" viewBox="0 0 96.000000 68.000000"
 preserveAspectRatio="xMidYMid meet">
<metadata>
Created by potrace 1.16, written by Peter Selinger 2001-2019
Combined from part_0.svg through part_5.svg with named groups
</metadata>
<g transform="translate(0.000000,68.000000) scale(0.100000,-0.100000)" fill="#000000" stroke="none">
<g id="part-0" class="char-part">
  <path d="M330 560 c-19 -17 -57 -42 -85 -56 l-50 -25 50 4 c28 3 57 6 65 8 11
3 16 -5 18 -28 3 -34 3 -34 -141 -58 -21 -3 -35 -10 -32 -16 8 -12 61 -11 108
2 22 6 42 7 45 4 8 -8 -105 -113 -130 -121 -10 -3 -18 -10 -18 -15 0 -13 76
26 123 64 21 16 40 28 42 25 2 -2 -1 -24 -6 -48 -11 -50 -4 -93 14 -87 7 2 13
30 15 75 2 40 7 72 12 72 5 0 20 -11 34 -25 30 -30 56 -33 56 -5 0 15 -11 22
-45 31 -60 15 -63 44 -5 54 49 8 53 25 5 25 -32 0 -35 3 -35 28 0 15 -5 33
-11 39 -8 8 -2 14 20 24 33 15 41 43 15 53 -24 9 -26 8 -64 -24z"/>
  <path d="M567 531 c12 -128 -21 -225 -90 -266 -17 -10 -26 -20 -20 -22 18 -6
70 24 90 52 10 14 26 36 35 48 l17 22 63 -62 c66 -65 88 -76 88 -44 0 22 -48
67 -103 96 -20 11 -37 23 -37 26 0 4 30 26 68 49 84 54 80 49 58 66 -30 21
-38 17 -76 -36 -39 -56 -65 -66 -56 -22 3 15 6 51 8 81 2 53 -6 66 -44 70 -3
1 -4 -26 -1 -58z"/>
  <path d="M470 444 c0 -15 36 -64 45 -61 17 6 17 34 0 51 -16 15 -45 22 -45 10z"/>
  <path d="M661 204 c2 -19 89 -86 104 -80 25 9 17 33 -17 54 -38 24 -88 38 -87
26z"/>
  <path d="M450 193 c0 -17 68 -75 79 -69 15 10 14 41 -1 54 -18 14 -78 25 -78
15z"/>
  <path d="M346 125 c20 -34 38 -50 82 -72 52 -26 67 -28 167 -28 110 0 155 12
155 38 0 7 -12 18 -27 25 -16 6 -43 21 -60 32 -38 22 -42 19 -13 -12 11 -12
20 -25 20 -29 0 -27 -195 -23 -248 5 -18 9 -43 33 -54 52 -31 53 -52 44 -22
-11z"/>
  <path d="M230 137 c-32 -46 -44 -77 -33 -88 25 -25 63 24 63 81 0 35 -9 38
-30 7z"/>
</g>
<g id="part-1" class="char-part">
  <path d="M338 559 c-18 -17 -55 -42 -83 -56 l-50 -25 45 7 c25 3 57 13 73 21
15 7 41 21 57 30 35 18 37 25 11 41 -16 10 -24 8 -53 -18z"/>
</g>
<g id="part-2" class="char-part">
  <path d="M568 508 c6 -116 -9 -162 -69 -220 -50 -49 -50 -59 0 -33 33 17 77
65 86 96 6 19 13 15 75 -46 63 -62 90 -75 90 -40 0 16 -54 64 -103 90 -20 11
-37 23 -37 26 0 4 32 27 70 50 39 24 70 47 70 51 0 8 -34 28 -47 28 -4 -1 -24
-23 -43 -50 -61 -87 -65 -80 -45 81 4 31 2 38 -18 43 -12 3 -25 6 -28 6 -3 0
-3 -37 -1 -82z"/>
  <path d="M479 418 c23 -37 44 -43 49 -14 5 22 -22 46 -51 46 -18 0 -18 -1 2
-32z"/>
</g>
<g id="part-3" class="char-part">
  <path d="M702 165 c31 -32 51 -46 62 -42 40 15 -9 66 -79 82 -30 7 -29 7 17
-40z"/>
  <path d="M466 171 c31 -53 74 -65 74 -22 0 24 -19 39 -60 47 l-33 7 19 -32z"/>
  <path d="M346 129 c23 -42 40 -59 79 -79 45 -22 61 -25 165 -25 172 0 204 26
100 82 -64 35 -72 35 -40 3 11 -11 20 -24 20 -30 0 -27 -192 -25 -244 2 -16 8
-41 32 -55 53 -41 60 -58 56 -25 -6z"/>
  <path d="M221 126 c-32 -52 -37 -71 -22 -80 30 -19 78 63 62 106 -8 22 -10 20
-40 -26z"/>
</g>
</g>
</svg>