<?xml version="1.0" standalone="no"?>
<!DOCTYPE svg PUBLIC "-//W3C//DTD SVG 20010904//EN"
 "http://www.w3.org/TR/2001/REC-SVG-20010904/DTD/svg10.dtd">
<svg version="1.0" xmlns="http://www.w3.org/2000/svg"
 width="96.000000pt" height="68.000000pt" viewBox="0 0 96.000000 68.000000"
 preserveAspectRatio="xMidYMid meet">
<metadata>
Created by potrace 1.16, written by Peter Selinger 2001-2019
Combined from part_0.svg through part_5.svg with named groups
</metadata>
<g transform="translate(0.000000,68.000000) scale(0.100000,-0.100000)" fill="#000000" stroke="none">
<g id="part-0" class="char-part">
  <path d="M324 534 c-5 -2 -53 -10 -105 -17 -98 -13 -123 -30 -52 -35 45 -3 52
-14 45 -64 -4 -25 -8 -28 -42 -28 l-37 0 5 -70 c2 -38 -1 -97 -7 -130 -13 -65
-2 -111 22 -91 7 5 52 13 99 17 82 6 89 5 105 -15 13 -15 22 -18 33 -11 12 7
16 41 20 157 7 170 4 179 -61 170 l-40 -5 3 36 c3 34 6 38 45 47 23 6 45 14
49 18 18 18 -48 35 -82 21z m-54 -84 c0 -16 0 -33 1 -37 0 -5 -7 -9 -15 -11
-17 -4 -22 31 -10 62 10 26 24 18 24 -14z m10 -114 c0 -52 13 -66 61 -66 l37
0 -3 -42 c-2 -24 -4 -52 -4 -64 -1 -19 -7 -20 -107 -22 l-107 -3 7 32 c3 17 6
69 6 115 0 77 2 84 20 84 25 0 27 -32 5 -74 -9 -16 -14 -31 -11 -33 7 -7 43
51 50 82 15 60 46 55 46 -9z m92 14 c5 -50 -2 -63 -33 -58 -21 3 -24 9 -27 51
-3 46 -3 47 26 47 28 0 30 -3 34 -40z"/>
  <path d="M247 210 c-54 -10 -57 -20 -6 -20 59 0 95 10 77 21 -15 10 -18 10
-71 -1z"/>
  <path d="M570 535 c0 -4 7 -20 16 -36 8 -17 14 -33 11 -35 -2 -3 -28 -7 -57
-11 -38 -4 -54 -2 -60 8 -6 9 -15 0 -29 -35 -12 -26 -21 -54 -21 -63 0 -26 34
-9 52 27 17 33 21 36 95 47 144 21 190 14 151 -25 -23 -23 0 -22 51 3 56 29
57 39 5 61 -26 11 -44 12 -76 4 -67 -15 -78 -13 -78 15 0 14 -8 29 -19 35 -21
11 -41 13 -41 5z"/>
  <path d="M515 236 c0 -96 2 -106 23 -129 32 -34 128 -51 203 -37 76 15 83 24
60 85 -16 40 -21 46 -26 30 -24 -75 -66 -95 -162 -75 -57 12 -68 28 -61 85 3
26 10 30 96 57 94 30 117 51 67 64 -19 5 -38 -3 -78 -30 -63 -44 -82 -46 -73
-10 5 18 2 32 -10 45 -33 36 -39 23 -39 -85z"/>
</g>
<g id="part-1" class="char-part">
  <path d="M315 530 c-16 -6 -65 -15 -107 -21 -84 -12 -96 -29 -20 -28 56 0 199
23 209 32 17 17 -41 29 -82 17z"/>
</g>
<g id="part-2" class="char-part">
  <path d="M270 404 c-36 -7 -85 -13 -109 -14 -37 0 -42 -2 -35 -17 14 -32 16
-100 5 -170 -11 -74 -6 -113 15 -113 8 0 14 4 14 9 0 5 39 12 87 16 83 7 87 7
106 -16 14 -18 22 -21 35 -12 14 8 18 34 23 159 7 190 8 189 -141 158z m101
-76 c2 -35 3 -90 1 -123 l-4 -60 -105 -3 -106 -3 7 23 c3 13 6 64 6 115 l0 91
63 10 c34 5 78 10 98 11 l37 1 3 -62z"/>
</g>
<g id="part-3" class="char-part">
  <path d="M570 533 c1 -5 7 -19 15 -33 8 -14 14 -28 15 -31 0 -4 -25 -10 -56
-14 -41 -5 -59 -3 -64 5 -8 13 -50 -69 -50 -97 0 -25 33 -10 50 22 8 17 16 32
17 33 3 6 238 40 243 35 2 -2 -1 -17 -7 -33 -6 -17 -9 -30 -7 -30 13 0 104 52
104 59 0 5 -18 16 -40 25 -31 12 -50 14 -91 6 -69 -13 -69 -13 -69 13 0 13 -5
28 -12 35 -13 13 -48 16 -48 5z"/>
</g>
<g id="part-4" class="char-part">
  <path d="M516 235 c0 -99 2 -108 25 -131 44 -44 181 -53 252 -17 21 10 27 19
22 31 -4 9 -12 29 -17 45 -11 31 -28 36 -28 8 0 -10 -9 -29 -19 -42 -17 -21
-28 -24 -83 -24 -89 0 -118 20 -118 80 0 30 4 45 13 45 13 0 169 49 176 56 7
7 -22 34 -37 34 -8 0 -23 -6 -31 -14 -9 -7 -38 -26 -65 -42 l-49 -28 6 36 c5
35 -13 68 -39 68 -5 0 -9 -47 -8 -105z"/>
</g>
</g>
</svg>