<?xml version="1.0" standalone="no"?>
<!DOCTYPE svg PUBLIC "-//W3C//DTD SVG 20010904//EN"
 "http://www.w3.org/TR/2001/REC-SVG-20010904/DTD/svg10.dtd">
<svg version="1.0" xmlns="http://www.w3.org/2000/svg"
 width="96.000000pt" height="68.000000pt" viewBox="0 0 96.000000 68.000000"
 preserveAspectRatio="xMidYMid meet">
<metadata>
Created by potrace 1.16, written by Peter Selinger 2001-2019
Combined from part_0.svg through part_5.svg with named groups
</metadata>
<g transform="translate(0.000000,68.000000) scale(0.100000,-0.100000)" fill="#000000" stroke="none">
<g id="part-0" class="char-part">
  <path d="M450 608 c0 -2 11 -19 25 -38 14 -19 25 -39 25 -46 0 -6 -27 -17 -60
-25 -33 -7 -60 -17 -60 -21 0 -11 30 -10 90 3 l52 11 44 -46 c52 -54 152 -106
205 -106 49 0 56 13 24 48 -14 16 -32 37 -40 48 -13 18 -14 17 -15 -13 0 -25
-4 -33 -17 -33 -47 1 -173 86 -159 108 3 6 20 13 36 17 56 12 46 27 -15 24
l-58 -4 -12 35 c-9 27 -18 36 -38 38 -15 2 -27 2 -27 0z"/>
  <path d="M303 556 c-14 -28 -48 -65 -98 -107 -42 -35 -72 -65 -66 -67 6 -2 40
13 76 33 71 39 77 36 53 -32 -10 -28 -10 -36 4 -50 14 -13 20 -14 32 -4 24 20
30 -7 24 -104 -3 -45 -3 -88 1 -94 4 -6 22 -9 40 -6 73 9 208 7 228 -3 33 -18
41 3 44 122 3 106 2 109 -20 118 -14 5 -70 2 -140 -6 -65 -8 -128 -12 -140 -9
-21 5 -22 10 -19 77 3 66 5 73 36 101 37 34 39 43 15 61 -31 23 -48 15 -70
-30z m277 -225 c0 -5 3 -16 6 -24 6 -17 -9 -20 -148 -32 l-68 -7 0 31 c0 30 1
30 58 34 119 7 152 7 152 -2z m6 -83 c-3 -21 -10 -24 -100 -31 -106 -10 -129
-6 -124 20 3 19 53 27 175 31 50 2 53 1 49 -20z m-1 -69 c0 -24 -1 -24 -112
-27 l-113 -3 0 25 c0 25 1 25 93 28 132 5 132 5 132 -23z"/>
  <path d="M648 570 c36 -33 62 -39 62 -14 0 24 -30 43 -65 43 l-30 0 33 -29z"/>
  <path d="M382 100 c-7 -11 -38 -37 -68 -56 -31 -20 -54 -38 -51 -40 7 -7 187
85 187 95 0 9 -24 21 -43 21 -7 0 -18 -9 -25 -20z"/>
  <path d="M520 100 c0 -5 4 -10 8 -10 5 0 24 -14 43 -31 51 -47 79 -63 88 -53
19 20 -10 55 -64 79 -61 27 -75 30 -75 15z"/>
</g>
<g id="part-1" class="char-part">
  <path d="M315 570 c-7 -33 -69 -101 -135 -149 -58 -42 -28 -39 44 4 32 19 61
35 63 35 3 0 2 -15 -1 -32 -19 -94 -19 -98 2 -98 16 0 22 9 27 40 4 21 5 57 4
79 -3 36 2 46 35 80 l38 39 -23 16 c-34 23 -47 20 -54 -14z"/>
</g>
<g id="part-2" class="char-part">
  <path d="M450 611 c0 -4 11 -23 25 -43 14 -20 25 -41 25 -46 0 -5 -27 -15 -60
-22 -33 -7 -63 -17 -66 -21 -7 -13 49 -11 102 2 l44 11 43 -45 c52 -56 154
-107 215 -107 53 0 53 11 2 70 l-40 45 0 -32 c0 -24 -5 -33 -17 -33 -29 0 -97
38 -132 74 l-33 34 39 12 c47 15 64 30 37 31 -28 2 -26 2 -65 -5 -34 -6 -36
-5 -51 32 -11 29 -22 41 -42 44 -14 3 -26 2 -26 -1z"/>
</g>
<g id="part-3" class="char-part">
  <path d="M465 355 c-49 -8 -106 -12 -125 -8 -29 4 -33 3 -22 -8 7 -8 12 -41
12 -86 0 -71 0 -72 23 -64 29 11 223 18 233 8 4 -4 17 -7 30 -7 21 0 23 5 26
76 2 42 0 80 -3 86 -10 16 -80 17 -174 3z m119 -31 c13 -35 11 -35 -146 -49
l-68 -6 0 30 c0 29 2 30 53 34 129 9 155 7 161 -9z m4 -76 c-3 -22 -9 -23
-108 -30 -106 -8 -128 -3 -117 26 6 15 20 17 185 24 40 2 43 0 40 -20z"/>
</g>
<g id="part-4" class="char-part">
  <path d="M587 170 c-5 -18 -14 -20 -116 -20 -92 0 -111 3 -111 15 0 8 -9 15
-20 15 -20 0 -25 -15 -15 -42 4 -10 34 -12 136 -9 103 2 134 0 140 -10 8 -11
12 -10 24 5 8 11 15 30 15 43 0 30 -45 33 -53 3z"/>
</g>
<g id="part-5" class="char-part">
  <path d="M414 111 c5 -7 1 -9 -10 -4 -12 4 -15 2 -12 -8 6 -18 43 -18 43 0 0
8 -6 16 -14 19 -8 3 -11 0 -7 -7z"/>
  <path d="M569 72 c49 -46 80 -66 88 -58 12 11 -13 41 -33 41 -11 1 -18 6 -17
13 2 7 -4 9 -14 5 -12 -5 -14 -3 -8 7 5 8 3 11 -6 8 -8 -3 -21 0 -30 6 -8 6 1
-4 20 -22z"/>
  <path d="M360 68 l-25 -21 25 8 c30 9 45 21 33 28 -4 3 -19 -4 -33 -15z"/>
  <path d="M310 35 c-11 -13 -10 -14 4 -9 9 3 16 10 16 15 0 13 -6 11 -20 -6z"/>
</g>
</g>
</svg>