<?xml version="1.0" standalone="no"?>
<!DOCTYPE svg PUBLIC "-//W3C//DTD SVG 20010904//EN"
 "http://www.w3.org/TR/2001/REC-SVG-20010904/DTD/svg10.dtd">
<svg version="1.0" xmlns="http://www.w3.org/2000/svg"
 width="96.000000pt" height="68.000000pt" viewBox="0 0 96.000000 68.000000"
 preserveAspectRatio="xMidYMid meet">
<metadata>
Created by potrace 1.16, written by Peter Selinger 2001-2019
Combined from part_0.svg through part_5.svg with named groups
</metadata>
<g transform="translate(0.000000,68.000000) scale(0.100000,-0.100000)" fill="#000000" stroke="none">
<g id="part-0" class="char-part">
  <path d="M540 605 c-5 -13 -19 -42 -30 -65 -16 -32 -17 -40 -6 -40 16 0 126
87 126 99 0 10 -45 31 -66 31 -8 0 -19 -11 -24 -25z"/>
  <path d="M300 588 c0 -7 18 -32 41 -56 46 -50 74 -52 74 -7 0 22 -7 33 -30 46
-43 24 -85 32 -85 17z"/>
  <path d="M655 503 c-16 -3 -144 -12 -284 -21 -175 -12 -256 -21 -258 -29 -8
-22 69 -34 143 -23 38 6 179 15 313 20 140 5 248 13 254 19 7 7 -1 15 -26 26
-35 14 -79 17 -142 8z"/>
  <path d="M638 275 c5 -175 1 -188 -51 -178 l-32 6 32 -31 c36 -36 67 -41 83
-13 13 25 14 361 1 361 -5 0 -16 2 -23 5 -12 5 -13 -21 -10 -150z"/>
  <path d="M365 390 c-16 -4 -53 -8 -81 -9 l-50 -1 4 -60 c3 -38 -2 -83 -13
-123 -14 -53 -15 -68 -5 -87 12 -22 14 -22 25 -7 7 10 15 35 19 57 6 38 7 39
54 45 26 3 55 8 65 10 14 3 17 -5 17 -46 0 -48 0 -49 -31 -49 l-32 0 34 -30
c19 -16 37 -30 41 -30 23 0 36 63 39 188 4 159 0 164 -86 142z m35 -55 c0 -32
-3 -35 -29 -35 -16 0 -43 -3 -60 -6 -30 -6 -31 -5 -31 29 0 39 7 43 83 46 36
1 37 0 37 -34z m0 -78 c0 -22 -5 -25 -57 -30 -66 -7 -72 -5 -66 25 4 20 11 23
64 26 57 3 59 2 59 -21z"/>
  <path d="M527 278 c9 -137 43 -133 43 5 0 75 -1 77 -24 77 -24 0 -24 -1 -19
-82z"/>
</g>
<g id="part-1" class="char-part">
  <path d="M527 565 c-15 -31 -27 -58 -27 -61 0 -11 62 32 93 64 26 27 29 34 17
42 -35 22 -55 11 -83 -45z"/>
  <path d="M311 573 c56 -75 99 -96 99 -48 0 29 -49 65 -89 65 -21 0 -22 -2 -10
-17z"/>
  <path d="M708 505 c-3 -3 -135 -15 -294 -26 -158 -11 -290 -22 -293 -24 -22
-23 80 -25 299 -7 80 6 200 12 267 12 118 0 146 7 120 28 -15 12 -90 25 -99
17z"/>
</g>
<g id="part-2" class="char-part">
  <path d="M360 390 c-14 -4 -48 -8 -75 -9 l-51 -1 4 -64 c3 -41 -2 -84 -13
-121 -16 -57 -14 -105 5 -105 13 0 27 29 35 72 8 40 8 40 103 51 l32 4 0 -50
0 -50 -37 6 -36 6 33 -34 c41 -42 55 -44 74 -7 21 41 26 290 6 302 -18 11 -45
11 -80 0z m40 -55 c0 -30 -3 -35 -22 -35 -13 0 -40 -3 -60 -6 -37 -6 -38 -6
-38 25 0 36 21 49 83 50 36 1 37 0 37 -34z m0 -80 c0 -22 -4 -25 -34 -25 -18
0 -47 -3 -64 -6 -27 -6 -29 -4 -25 19 5 27 20 32 91 36 28 1 32 -2 32 -24z"/>
</g>
<g id="part-3" class="char-part">
  <path d="M527 283 c3 -49 10 -92 15 -98 17 -18 28 18 28 92 0 61 -3 74 -19 83
-11 5 -22 10 -25 10 -3 0 -2 -39 1 -87z"/>
</g>
<g id="part-4" class="char-part">
  <path d="M638 282 c5 -174 0 -195 -51 -186 l-32 6 39 -35 c72 -67 86 -37 86
181 0 174 -2 182 -39 182 -4 0 -6 -67 -3 -148z"/>
</g>
</g>
</svg>