<?xml version="1.0" standalone="no"?>
<!DOCTYPE svg PUBLIC "-//W3C//DTD SVG 20010904//EN"
 "http://www.w3.org/TR/2001/REC-SVG-20010904/DTD/svg10.dtd">
<svg version="1.0" xmlns="http://www.w3.org/2000/svg"
 width="96.000000pt" height="68.000000pt" viewBox="0 0 96.000000 68.000000"
 preserveAspectRatio="xMidYMid meet">
<metadata>
Created by potrace 1.16, written by Peter Selinger 2001-2019
Combined from part_0.svg through part_5.svg with named groups
</metadata>
<g transform="translate(0.000000,68.000000) scale(0.100000,-0.100000)" fill="#000000" stroke="none">
<g id="part-0" class="char-part">
  <path d="M550 562 c0 -4 5 -13 11 -19 5 -5 9 -34 7 -64 l-3 -54 -47 -3 c-64
-4 -62 -22 2 -22 l50 0 0 -34 c0 -19 -4 -37 -9 -40 -5 -3 -41 -9 -80 -12 -111
-11 -89 -31 27 -24 25 1 42 -3 42 -9 0 -31 -107 -161 -132 -161 -5 0 -4 -10 3
-21 12 -24 11 -24 178 14 l103 25 21 -24 c27 -32 57 -32 57 -1 0 31 -29 63
-76 86 -44 22 -63 17 -40 -8 27 -30 19 -37 -59 -54 -82 -19 -115 -21 -115 -9
1 4 30 38 65 76 36 39 65 77 65 85 0 13 17 17 92 19 95 3 129 14 87 28 -27 8
-72 8 -142 -2 l-48 -6 3 38 c3 38 4 39 55 49 67 13 68 31 2 28 l-51 -3 2 53
c2 28 2 58 1 65 -1 13 -71 18 -71 4z"/>
  <path d="M300 550 c-8 -6 -39 -9 -68 -8 l-53 2 -2 -165 -2 -164 -32 -57 c-18
-31 -29 -59 -24 -62 16 -10 74 63 92 116 15 46 21 53 41 50 14 -2 32 5 43 18
10 11 22 20 27 20 9 0 11 -130 2 -154 -4 -11 -11 -13 -31 -5 -53 20 -59 9 -14
-31 91 -83 109 -49 112 224 2 183 1 200 -16 212 -22 16 -54 18 -75 4z m30 -75
c0 -44 -1 -45 -27 -39 -58 13 -63 16 -63 38 0 25 29 44 68 45 20 1 22 -4 22
-44z m-16 -95 c32 0 18 -39 -20 -55 -56 -23 -64 -20 -64 24 0 65 7 74 40 51
15 -11 35 -20 44 -20z"/>
</g>
<g id="part-1" class="char-part">
  <path d="M295 544 c-24 -9 -54 -12 -76 -9 l-36 6 5 -104 c5 -124 -10 -225 -44
-286 -13 -24 -23 -46 -20 -48 11 -12 67 65 83 113 14 46 20 54 37 50 12 -3 31
4 48 20 16 13 34 24 39 24 11 0 11 -78 1 -135 -8 -38 -9 -40 -42 -37 l-35 3
35 -36 c40 -41 54 -43 74 -12 11 17 15 72 18 234 l3 212 -23 10 c-13 6 -24 11
-25 10 -1 0 -20 -7 -42 -15z m35 -73 l0 -49 -42 10 c-54 14 -62 21 -54 52 6
25 21 33 69 35 26 1 27 -1 27 -48z m-58 -66 c16 -14 38 -25 49 -25 12 0 19 -7
19 -19 0 -13 -15 -25 -49 -40 -27 -11 -52 -21 -55 -21 -3 0 -6 29 -6 65 0 36
3 65 6 65 3 0 19 -11 36 -25z"/>
</g>
<g id="part-2" class="char-part">
  <path d="M550 561 c0 -6 5 -13 10 -16 6 -3 10 -30 10 -59 0 -59 -8 -66 -77
-66 -18 0 -33 -4 -33 -10 0 -5 25 -10 55 -10 l55 0 0 -39 0 -40 -80 -7 c-44
-3 -83 -10 -85 -14 -10 -16 55 -18 175 -4 69 8 151 14 183 14 62 0 74 12 27
28 -20 7 -49 8 -87 2 -93 -16 -95 -15 -91 27 3 37 4 38 56 48 67 13 67 31 0
28 l-51 -3 6 60 c4 46 2 60 -10 64 -23 9 -63 7 -63 -3z"/>
</g>
<g id="part-3" class="char-part">
  <path d="M560 288 c-5 -7 -28 -40 -49 -73 -22 -33 -53 -68 -70 -78 -27 -16
-30 -21 -20 -39 12 -23 7 -23 179 15 l106 24 17 -24 c26 -33 57 -31 57 5 0 33
-17 51 -78 82 -48 25 -65 20 -37 -10 12 -13 15 -24 9 -30 -14 -14 -172 -46
-181 -37 -4 4 23 38 60 75 71 72 84 102 42 102 -13 0 -29 -6 -35 -12z"/>
</g>
</g>
</svg>