<?xml version="1.0" standalone="no"?>
<!DOCTYPE svg PUBLIC "-//W3C//DTD SVG 20010904//EN"
 "http://www.w3.org/TR/2001/REC-SVG-20010904/DTD/svg10.dtd">
<svg version="1.0" xmlns="http://www.w3.org/2000/svg"
 width="96.000000pt" height="68.000000pt" viewBox="0 0 96.000000 68.000000"
 preserveAspectRatio="xMidYMid meet">
<metadata>
Created by potrace 1.16, written by Peter Selinger 2001-2019
Combined from part_0.svg through part_5.svg with named groups
</metadata>
<g transform="translate(0.000000,68.000000) scale(0.100000,-0.100000)" fill="#000000" stroke="none">
<g id="part-0" class="char-part">
  <path d="M580 554 c-83 -9 -135 -11 -158 -4 l-34 9 7 -36 c9 -52 6 -250 -5
-298 -12 -51 -12 -96 0 -115 8 -12 11 -12 27 2 13 12 49 18 133 23 63 3 122 8
131 11 10 3 25 -10 43 -36 29 -45 33 -46 61 -24 19 14 20 27 20 217 0 111 4
210 9 220 7 14 1 20 -28 32 -40 17 -37 17 -206 -1z m161 -44 c4 -14 7 -96 8
-184 l1 -158 -22 6 c-13 3 -83 1 -155 -6 -73 -6 -135 -9 -139 -6 -3 4 -3 85 1
181 l8 175 91 10 c50 5 116 9 146 8 49 -1 55 -3 61 -26z"/>
  <path d="M557 462 c5 -45 4 -49 -18 -55 -13 -4 -34 -7 -46 -7 -13 0 -23 -4
-23 -10 0 -5 18 -10 40 -10 22 0 40 -4 40 -9 0 -21 -34 -88 -58 -113 -14 -15
-22 -31 -19 -35 4 -3 29 16 56 44 l48 50 44 -43 c52 -50 72 -56 67 -17 -2 20
-14 32 -45 49 -24 12 -48 24 -54 26 -6 2 -8 14 -4 30 6 24 13 28 61 34 68 8
71 24 5 24 l-50 0 -3 43 c-2 35 -7 43 -25 45 -21 3 -22 1 -16 -46z"/>
  <path d="M260 474 c-25 -7 -66 -13 -92 -13 -51 -1 -56 -5 -34 -30 7 -9 19 -44
26 -77 16 -79 26 -95 44 -71 9 11 27 17 57 17 55 0 63 7 67 48 1 18 11 49 22
69 11 21 20 41 20 44 0 6 -61 32 -64 28 -1 -1 -21 -7 -46 -15z m23 -76 c-7
-52 -18 -68 -49 -68 -27 0 -30 3 -39 57 -7 45 -2 49 62 52 31 1 31 1 26 -41z"/>
</g>
<g id="part-1" class="char-part">
  <path d="M240 464 c-28 -9 -60 -12 -85 -8 -39 6 -40 6 -23 -13 10 -10 24 -49
32 -87 16 -76 20 -83 40 -67 8 6 37 14 65 18 47 5 51 8 51 32 0 15 9 44 20 66
24 47 25 61 4 69 -23 9 -53 6 -104 -10z m47 -66 c-7 -59 -12 -65 -51 -70 -28
-3 -30 0 -42 47 -7 27 -12 50 -11 51 5 5 74 22 91 23 17 1 18 -4 13 -51z"/>
</g>
<g id="part-2" class="char-part">
  <path d="M685 565 c-27 -11 -237 -23 -261 -16 l-29 8 0 -156 c0 -86 -4 -186
-9 -223 -8 -60 -7 -68 9 -74 11 -5 21 -1 26 8 7 12 35 17 116 22 60 4 120 9
135 12 23 5 30 0 50 -35 25 -44 38 -50 62 -25 21 20 20 8 20 229 1 105 5 198
10 208 7 14 1 20 -28 32 -33 14 -78 18 -101 10z m57 -62 c5 -18 7 -99 6 -179
l-3 -147 -65 -2 c-36 -1 -107 -6 -159 -10 l-93 -8 7 174 c4 96 10 177 14 181
9 9 165 26 230 24 53 -1 55 -2 63 -33z"/>
</g>
<g id="part-3" class="char-part">
  <path d="M550 484 c24 -63 8 -83 -65 -84 -23 0 -27 -3 -15 -10 8 -5 30 -10 48
-10 17 0 32 -2 32 -5 0 -16 -34 -83 -56 -113 -42 -54 -18 -50 34 5 l48 51 46
-44 c53 -49 68 -54 68 -21 0 23 -44 59 -88 72 -18 5 -22 12 -18 28 3 12 6 25
6 28 0 4 25 10 55 14 30 3 57 11 60 16 7 10 -9 12 -68 9 -38 -2 -39 -1 -36 32
4 42 -6 58 -36 58 -22 0 -24 -3 -15 -26z"/>
</g>
</g>
</svg>