<?xml version="1.0" standalone="no"?>
<!DOCTYPE svg PUBLIC "-//W3C//DTD SVG 20010904//EN"
 "http://www.w3.org/TR/2001/REC-SVG-20010904/DTD/svg10.dtd">
<svg version="1.0" xmlns="http://www.w3.org/2000/svg"
 width="96.000000pt" height="68.000000pt" viewBox="0 0 96.000000 68.000000"
 preserveAspectRatio="xMidYMid meet">
<metadata>
Created by potrace 1.16, written by Peter Selinger 2001-2019
Combined from part_0.svg through part_5.svg with named groups
</metadata>
<g transform="translate(0.000000,68.000000) scale(0.100000,-0.100000)" fill="#000000" stroke="none">
<g id="part-0" class="char-part">
  <path d="M607 568 c-4 -29 -9 -63 -13 -75 -9 -31 10 -29 24 2 10 22 18 24 84
27 40 2 73 8 73 13 0 14 -70 18 -94 6 -26 -14 -36 1 -19 29 11 18 10 23 -6 36
-33 24 -43 16 -49 -38z"/>
  <path d="M465 564 c19 -30 9 -44 -32 -44 -29 0 -53 -10 -53 -22 0 -7 20 -8 55
-4 45 5 57 3 61 -9 13 -33 24 -12 24 45 l0 60 -36 0 -36 0 17 -26z"/>
  <path d="M200 541 c0 -16 80 -81 100 -81 21 0 28 33 12 56 -18 28 -112 49
-112 25z"/>
  <path d="M665 460 c-11 -5 -39 -9 -63 -9 -43 -1 -43 -1 -28 -23 9 -12 16 -33
16 -46 0 -20 4 -23 28 -18 15 3 46 7 70 8 27 1 42 7 42 15 0 8 8 25 17 39 14
22 14 27 2 35 -17 11 -57 10 -84 -1z m33 -42 c-2 -19 -10 -24 -45 -26 -37 -3
-43 0 -43 17 0 20 16 28 63 30 24 1 28 -3 25 -21z"/>
  <path d="M450 440 c-14 -4 -39 -8 -57 -9 l-31 -1 20 -41 c16 -34 23 -40 44
-36 13 2 24 0 24 -5 0 -28 -39 -84 -89 -129 -45 -40 -50 -48 -27 -39 15 6 40
19 54 30 42 34 45 27 39 -71 -9 -114 13 -169 39 -101 l11 29 157 6 c87 3 161
8 164 12 16 15 -29 25 -103 23 -74 -2 -80 -1 -80 17 0 16 10 22 53 29 63 12
69 29 9 25 -24 -2 -49 1 -56 6 -22 13 16 35 61 35 21 0 38 5 38 10 0 6 -22 10
-50 10 -42 0 -50 3 -50 19 0 20 34 31 96 31 19 0 34 4 34 9 0 14 -48 22 -86
15 -28 -5 -39 -2 -55 15 -19 20 -49 29 -49 14 0 -3 7 -14 15 -23 13 -15 10
-17 -36 -26 -27 -6 -52 -7 -55 -2 -3 4 0 8 5 8 17 0 13 32 -6 46 -16 12 -16
13 9 14 22 0 29 6 34 28 4 15 12 30 18 35 8 5 6 10 -4 17 -17 11 -54 11 -90 0z
m40 -34 c0 -19 -7 -25 -36 -31 -41 -7 -41 -7 -46 20 -2 15 4 21 27 26 50 11
55 10 55 -15z m80 -155 c0 -29 -74 -40 -101 -15 -10 9 -19 20 -19 24 0 3 27 7
60 8 53 2 60 -1 60 -17z m0 -65 c0 -7 -14 -16 -31 -20 -54 -11 -69 -8 -69 14
0 17 7 20 50 20 36 0 50 -4 50 -14z m-2 -68 c-3 -20 -10 -23 -50 -26 -46 -3
-48 -2 -48 22 0 24 3 26 51 26 47 0 50 -2 47 -22z"/>
  <path d="M140 412 c0 -14 80 -82 96 -82 6 0 17 6 23 14 18 21 -2 52 -37 59
-17 3 -41 9 -56 13 -15 4 -26 2 -26 -4z"/>
  <path d="M267 272 c-26 -33 -62 -71 -80 -83 -41 -29 -45 -35 -39 -64 6 -34 36
-59 50 -43 22 28 123 229 120 240 -2 6 -25 -16 -51 -50z"/>
</g>
<g id="part-1" class="char-part">
  <path d="M210 541 c0 -16 68 -71 88 -71 26 0 30 31 7 50 -17 14 -95 31 -95 21z"/>
  <path d="M180 375 c39 -40 80 -47 80 -14 0 22 -51 49 -92 49 -20 0 -20 -2 12
-35z"/>
  <path d="M267 267 c-25 -35 -61 -74 -81 -88 -20 -13 -36 -29 -36 -36 0 -22 23
-63 35 -63 12 0 140 239 132 247 -3 2 -25 -25 -50 -60z"/>
</g>
<g id="part-2" class="char-part">
  <path d="M610 592 c0 -16 -6 -50 -14 -75 -16 -53 -10 -58 24 -22 20 22 32 25
86 25 63 0 92 13 54 25 -11 3 -40 3 -65 -1 l-46 -6 13 27 c11 24 10 29 -7 41
-30 22 -45 17 -45 -14z"/>
  <path d="M450 594 c0 -3 7 -18 15 -34 l15 -29 -55 -11 c-70 -14 -64 -35 8 -27
43 6 52 3 68 -16 18 -21 18 -21 20 -2 1 23 -2 110 -4 111 -8 5 -67 12 -67 8z"/>
</g>
<g id="part-3" class="char-part">
  <path d="M419 436 c-46 -9 -55 -14 -48 -26 5 -8 13 -27 18 -41 9 -26 11 -26
67 -17 32 5 59 10 59 11 0 1 8 18 17 39 15 32 15 37 2 42 -20 8 -46 6 -115 -8z
m71 -30 c0 -18 -7 -25 -31 -30 -37 -7 -49 -1 -49 24 0 17 10 22 68 29 6 0 12
-10 12 -23z"/>
</g>
<g id="part-4" class="char-part">
  <path d="M583 203 c-7 -2 -13 -11 -13 -18 0 -14 -30 -25 -72 -25 -16 0 -28 -4
-28 -10 0 -5 23 -10 51 -10 47 0 50 -2 47 -22 -3 -20 -10 -23 -50 -26 -27 -2
-48 -7 -48 -13 0 -10 162 -10 275 0 66 6 69 7 46 20 -18 10 -45 12 -103 8 -77
-6 -78 -6 -78 17 0 24 29 36 86 36 13 0 24 5 24 11 0 6 -18 10 -42 9 -61 -3
-68 -1 -65 11 2 13 -13 19 -30 12z"/>
</g>
</g>
</svg>