<?xml version="1.0" standalone="no"?>
<!DOCTYPE svg PUBLIC "-//W3C//DTD SVG 20010904//EN"
 "http://www.w3.org/TR/2001/REC-SVG-20010904/DTD/svg10.dtd">
<svg version="1.0" xmlns="http://www.w3.org/2000/svg"
 width="96.000000pt" height="68.000000pt" viewBox="0 0 96.000000 68.000000"
 preserveAspectRatio="xMidYMid meet">
<metadata>
Created by potrace 1.16, written by Peter Selinger 2001-2019
Combined from part_0.svg through part_5.svg with named groups
</metadata>
<g transform="translate(0.000000,68.000000) scale(0.100000,-0.100000)" fill="#000000" stroke="none">
<g id="part-0" class="char-part">
  <path d="M590 577 c-35 -23 -78 -42 -115 -50 -14 -3 -11 -5 9 -6 26 -1 168 34
189 46 12 7 -13 33 -32 33 -9 0 -32 -10 -51 -23z"/>
  <path d="M305 525 c-33 -7 -81 -16 -107 -20 -27 -3 -48 -10 -48 -14 0 -10 35
-21 68 -21 12 0 22 -5 22 -10 0 -22 -43 -100 -76 -139 -37 -43 -35 -53 4 -25
13 9 24 14 25 12 1 -2 17 -20 36 -40 l34 -38 -77 -75 c-42 -41 -74 -75 -70
-75 7 0 70 37 92 55 58 45 199 242 184 257 -11 11 -48 12 -99 3 l-43 -8 23 44
c28 55 29 56 93 64 60 7 74 19 45 34 -23 13 -26 13 -106 -4z m27 -151 c8 -7
-42 -104 -53 -104 -5 0 -9 4 -9 9 0 5 -14 14 -30 21 -39 16 -45 27 -25 46 22
23 104 42 117 28z"/>
  <path d="M720 530 c0 -5 -16 -28 -36 -50 -20 -22 -34 -40 -30 -40 15 0 136 53
136 60 0 9 -45 40 -60 40 -5 0 -10 -4 -10 -10z"/>
  <path d="M530 483 c1 -18 38 -55 49 -49 17 11 13 34 -8 46 -23 12 -41 13 -41
3z"/>
  <path d="M426 462 c-7 -6 43 -62 56 -62 4 0 8 11 8 24 0 18 -8 27 -29 34 -16
6 -32 8 -35 4z"/>
  <path d="M545 389 c-44 -9 -82 -18 -85 -18 -3 -1 3 -6 12 -12 12 -6 37 -4 83
7 36 9 68 14 71 11 3 -3 -2 -17 -13 -31 -12 -17 -28 -25 -47 -26 -23 0 -27 -3
-18 -12 7 -7 12 -19 12 -29 0 -13 -13 -18 -61 -23 -34 -3 -77 -6 -95 -6 -19 0
-34 -4 -34 -10 0 -18 53 -23 110 -12 96 20 93 22 88 -58 -4 -84 -14 -97 -59
-81 l-33 11 29 -31 c75 -78 98 -60 105 79 l5 97 113 3 c113 3 138 13 85 33
-20 7 -50 7 -101 0 -101 -15 -104 -15 -100 11 2 15 19 30 55 48 57 27 62 36
36 56 -23 17 -58 16 -158 -7z"/>
</g>
<g id="part-1" class="char-part">
  <path d="M317 520 c-15 -5 -57 -12 -92 -15 -36 -4 -65 -11 -65 -16 0 -12 80
-11 160 1 82 13 100 19 100 31 0 11 -64 10 -103 -1z"/>
</g>
<g id="part-2" class="char-part">
  <path d="M240 461 c0 -26 -34 -84 -83 -143 -51 -63 -30 -62 33 1 40 40 59 51
95 56 57 9 58 -2 10 -82 -36 -60 -92 -124 -158 -181 -47 -40 -27 -42 34 -4 63
41 103 84 170 186 52 78 58 92 45 104 -12 12 -22 13 -60 3 -75 -19 -80 -16
-52 26 28 41 26 53 -10 53 -17 0 -24 -5 -24 -19z"/>
</g>
<g id="part-3" class="char-part">
  <path d="M591 578 c-19 -12 -58 -30 -85 -40 -50 -17 -50 -17 -16 -18 41 0 169
35 184 50 8 8 6 14 -4 20 -23 15 -42 12 -79 -12z"/>
  <path d="M709 514 c-7 -14 -26 -37 -42 -50 -16 -13 -24 -24 -18 -24 20 0 141
52 141 60 0 11 -41 40 -56 40 -6 0 -17 -12 -25 -26z"/>
  <path d="M530 481 c0 -18 37 -54 48 -47 18 11 14 34 -7 46 -24 12 -41 13 -41
1z"/>
  <path d="M420 464 c0 -16 53 -62 66 -57 17 6 18 27 1 41 -17 14 -67 26 -67 16z"/>
</g>
<g id="part-4" class="char-part">
  <path d="M575 395 c-22 -8 -57 -14 -77 -14 -21 -1 -38 -5 -38 -10 0 -19 34
-20 96 -5 36 9 67 14 70 11 4 -3 -4 -20 -16 -36 -12 -17 -18 -31 -14 -31 15 0
123 56 123 64 2 33 -73 44 -144 21z"/>
</g>
<g id="part-5" class="char-part">
  <path d="M564 305 c24 -18 13 -33 -37 -53 l-32 -12 38 5 c20 3 38 2 38 -2 8
-41 7 -86 -2 -125 -10 -45 -11 -46 -40 -38 -18 5 -27 5 -24 -1 4 -5 13 -9 21
-9 8 0 13 -4 10 -9 -3 -4 3 -16 14 -26 18 -17 20 -16 39 16 17 28 21 50 20
131 -1 54 -5 95 -10 92 -5 -3 -6 1 -3 9 3 8 -6 18 -23 25 -26 11 -27 11 -9 -3z
m-3 -262 c13 -16 12 -17 -3 -4 -10 7 -18 15 -18 17 0 8 8 3 21 -13z"/>
  <path d="M715 275 c-27 -7 -61 -15 -75 -18 -14 -3 19 -4 72 -4 62 1 99 6 102
13 3 8 -3 10 -16 6 -14 -3 -19 -1 -14 6 9 15 -6 14 -69 -3z"/>
  <path d="M390 240 c0 -16 49 -23 65 -10 8 6 20 8 26 4 8 -4 9 -3 5 4 -9 14
-96 16 -96 2z"/>
</g>
</g>
</svg>