<?xml version="1.0" standalone="no"?>
<!DOCTYPE svg PUBLIC "-//W3C//DTD SVG 20010904//EN"
 "http://www.w3.org/TR/2001/REC-SVG-20010904/DTD/svg10.dtd">
<svg version="1.0" xmlns="http://www.w3.org/2000/svg"
 width="96.000000pt" height="68.000000pt" viewBox="0 0 96.000000 68.000000"
 preserveAspectRatio="xMidYMid meet">
<metadata>
Created by potrace 1.16, written by Peter Selinger 2001-2019
Combined from part_0.svg through part_5.svg with named groups
</metadata>
<g transform="translate(0.000000,68.000000) scale(0.100000,-0.100000)" fill="#000000" stroke="none">
<g id="part-0" class="char-part">
  <path d="M245 533 c-11 -27 -39 -68 -67 -96 -36 -36 -47 -54 -43 -68 8 -23 15
-23 79 -4 l49 15 -19 -22 c-33 -39 -76 -78 -85 -78 -11 0 -11 -11 0 -28 7 -11
24 -9 90 13 64 22 84 25 96 15 14 -11 35 -6 35 9 0 12 -40 51 -51 51 -6 0 -8
-7 -5 -15 6 -18 -16 -28 -79 -39 l-40 -6 83 79 c56 53 83 85 80 98 -6 32 -35
27 -53 -11 -14 -28 -24 -36 -56 -41 -22 -4 -43 -4 -47 -1 -3 4 23 36 58 71 63
63 63 65 45 85 -30 33 -50 25 -70 -27z"/>
  <path d="M575 531 c-11 -4 -55 -14 -97 -21 -76 -12 -111 -35 -45 -28 31 3 32
2 30 -35 -4 -68 -44 -180 -84 -237 -21 -29 -36 -56 -34 -59 10 -9 67 55 104
116 l38 63 25 -28 c47 -51 67 -86 54 -97 -33 -30 -86 -61 -140 -82 -60 -23
-60 -24 -19 -19 23 2 76 21 118 41 l77 37 43 -46 c38 -42 46 -46 87 -46 57 0
108 10 108 21 0 4 -18 13 -39 19 -51 13 -120 45 -149 68 l-24 18 31 46 c17 25
31 49 31 54 0 4 9 17 20 29 28 29 11 50 -40 49 -22 -1 -40 1 -40 5 0 3 14 30
30 60 17 30 29 55 28 56 -30 24 -76 30 -113 16z m35 -37 c0 -29 -23 -109 -34
-116 -6 -4 -26 -8 -45 -8 -34 0 -34 0 -26 38 4 20 8 49 8 64 0 28 11 34 70 37
18 1 27 -4 27 -15z m40 -146 c-1 -26 -39 -98 -52 -98 -12 0 -88 81 -88 94 0 3
17 7 38 9 80 8 102 7 102 -5z"/>
  <path d="M300 242 c0 -5 9 -17 21 -28 17 -15 22 -16 29 -4 5 9 5 19 -2 27 -12
14 -48 18 -48 5z"/>
  <path d="M226 195 c17 -27 44 -34 44 -12 0 19 -21 37 -42 37 -17 0 -17 -1 -2
-25z"/>
  <path d="M105 190 c-7 -12 51 -80 68 -80 4 0 7 12 5 27 -3 31 -61 72 -73 53z"/>
</g>
<g id="part-1" class="char-part">
  <path d="M248 533 c-16 -45 -88 -133 -108 -133 -14 0 -12 -13 3 -34 12 -17 16
-17 51 -2 21 9 47 16 57 16 10 0 21 5 25 12 5 8 -4 9 -34 4 -23 -3 -42 -3 -42
1 0 5 27 37 60 73 33 35 60 70 60 77 0 12 -30 33 -47 33 -5 0 -16 -21 -25 -47z"/>
</g>
<g id="part-2" class="char-part">
  <path d="M300 242 c0 -5 9 -17 20 -27 26 -23 52 -6 30 20 -13 16 -50 21 -50 7z"/>
  <path d="M210 222 c0 -16 32 -52 46 -52 17 0 19 24 2 37 -19 15 -48 23 -48 15z"/>
  <path d="M97 187 c22 -38 57 -77 69 -77 18 0 18 44 0 59 -22 18 -78 33 -69 18z"/>
</g>
<g id="part-3" class="char-part">
  <path d="M498 516 c-54 -11 -98 -24 -98 -28 0 -12 37 -9 105 7 33 8 71 15 84
15 25 0 25 4 4 -102 -10 -49 30 -22 65 45 30 57 31 63 15 75 -22 16 -57 14
-175 -12z"/>
</g>
<g id="part-4" class="char-part">
  <path d="M461 415 c-15 -85 -56 -178 -103 -238 -25 -30 -27 -37 -11 -29 57 31
122 139 154 255 20 72 19 87 -10 87 -13 0 -20 -16 -30 -75z"/>
</g>
<g id="part-5" class="char-part">
  <path d="M640 380 c0 -5 5 -10 10 -10 12 0 14 -33 3 -44 -5 -4 -8 -11 -9 -14
0 -4 -8 -25 -17 -46 -10 -22 -15 -42 -11 -45 9 -9 35 32 30 46 -3 7 0 12 7 10
7 -1 11 8 9 23 -2 18 0 21 6 11 8 -11 12 -9 18 10 4 13 7 28 6 32 -1 5 2 6 7
3 11 -7 26 12 17 21 -10 11 -76 14 -76 3z"/>
  <path d="M580 370 c-12 -8 -11 -10 8 -10 12 0 22 5 22 10 0 13 -11 13 -30 0z"/>
  <path d="M520 366 c0 -9 30 -14 35 -6 4 6 -3 10 -14 10 -12 0 -21 -2 -21 -4z"/>
  <path d="M506 317 c10 -15 23 -27 28 -27 12 0 -18 43 -34 48 -8 3 -6 -5 6 -21z"/>
  <path d="M562 246 c13 -19 27 -31 31 -27 5 5 -3 20 -18 35 -35 35 -40 33 -13
-8z"/>
  <path d="M595 211 c-4 -3 -10 -6 -14 -6 -13 0 -75 -54 -69 -60 3 -3 13 1 21
10 9 9 20 16 24 16 4 1 7 4 6 8 -1 3 11 7 25 8 21 1 34 -8 57 -39 34 -46 59
-58 118 -57 34 0 38 2 22 10 -15 7 -10 8 19 5 22 -3 35 -1 30 3 -9 9 -115 46
-124 44 -3 -1 -12 -4 -20 -7 -9 -4 -24 1 -35 9 -19 15 -19 16 4 5 18 -9 26 -9
35 1 8 9 8 10 0 6 -7 -4 -17 0 -24 8 -16 20 -67 44 -75 36z m132 -77 c-3 -3
-12 -4 -19 -1 -8 3 -5 6 6 6 11 1 17 -2 13 -5z"/>
  <path d="M475 139 c-4 -6 -4 -13 -1 -16 3 -4 6 -1 6 6 0 7 5 9 12 5 7 -4 8 -3
4 4 -9 15 -13 15 -21 1z"/>
</g>
</g>
</svg>