<?xml version="1.0" standalone="no"?>
<!DOCTYPE svg PUBLIC "-//W3C//DTD SVG 20010904//EN"
 "http://www.w3.org/TR/2001/REC-SVG-20010904/DTD/svg10.dtd">
<svg version="1.0" xmlns="http://www.w3.org/2000/svg"
 width="96.000000pt" height="68.000000pt" viewBox="0 0 96.000000 68.000000"
 preserveAspectRatio="xMidYMid meet">
<metadata>
Created by potrace 1.16, written by Peter Selinger 2001-2019
Combined from part_0.svg through part_5.svg with named groups
</metadata>
<g transform="translate(0.000000,68.000000) scale(0.100000,-0.100000)" fill="#000000" stroke="none">
<g id="part-0" class="char-part">
  <path d="M575 554 c-86 -14 -131 -13 -185 1 l-25 6 3 -130 c5 -162 -9 -213
-80 -302 l-50 -61 40 22 c60 34 111 108 125 178 l11 59 66 7 c36 3 104 6 151
6 102 0 98 7 91 -139 l-5 -93 -38 6 c-22 3 -39 3 -38 -1 0 -5 18 -23 40 -40
43 -35 71 -33 83 4 3 10 7 121 8 246 2 191 0 230 -12 238 -20 12 -75 10 -185
-7z m145 -54 c0 -37 -2 -39 -34 -45 -19 -4 -49 -8 -67 -8 -34 -2 -34 -2 -34
46 l-1 47 68 0 68 0 0 -40z m-191 16 c7 -8 11 -30 9 -48 -3 -33 -3 -33 -60
-36 l-58 -3 0 33 c0 42 9 55 40 61 46 8 57 7 69 -7z m191 -111 c0 -17 -6 -25
-17 -26 -10 0 -42 -4 -70 -8 -53 -7 -53 -7 -53 20 0 27 3 28 53 32 28 2 60 4
70 5 12 1 17 -5 17 -23z m-180 -20 c0 -14 -6 -25 -14 -25 -7 0 -34 -3 -60 -6
l-46 -7 0 32 0 31 60 0 c57 0 60 -1 60 -25z"/>
  <path d="M160 522 c0 -18 83 -93 99 -90 27 5 26 54 -2 73 -30 20 -97 32 -97
17z"/>
  <path d="M271 314 c-24 -33 -60 -72 -81 -88 -37 -28 -38 -30 -26 -59 6 -17 17
-32 23 -34 6 -2 26 24 45 59 19 35 47 85 62 111 41 72 26 78 -23 11z"/>
  <path d="M575 283 c-23 -8 -58 -13 -82 -10 -40 4 -56 -4 -34 -17 5 -3 12 -26
16 -52 6 -41 9 -45 28 -40 12 4 50 9 84 13 34 3 60 10 57 15 -3 5 6 27 20 48
l25 38 -31 11 c-36 13 -31 13 -83 -6z m37 -48 c-4 -24 -9 -27 -73 -39 -23 -5
-39 7 -44 32 -3 18 2 22 43 27 26 4 52 8 57 9 18 5 22 -3 17 -29z"/>
</g>
<g id="part-1" class="char-part">
  <path d="M160 525 c0 -3 16 -23 36 -45 23 -25 45 -40 60 -40 29 0 33 30 6 52
-31 26 -102 49 -102 33z"/>
</g>
<g id="part-2" class="char-part">
  <path d="M276 322 c-21 -29 -58 -69 -83 -90 l-45 -39 17 -32 c20 -40 34 -36
60 14 12 22 38 70 59 107 47 85 43 108 -8 40z"/>
</g>
<g id="part-3" class="char-part">
  <path d="M620 559 c-58 -12 -198 -15 -230 -5 l-25 7 0 -143 c0 -84 -5 -160
-12 -183 -7 -22 -36 -69 -64 -105 l-52 -64 44 26 c48 28 102 99 119 156 6 20
14 85 17 144 3 58 9 111 12 117 7 11 156 31 239 31 l52 0 3 -102 c3 -160 -3
-311 -15 -325 -7 -9 -16 -10 -28 -3 -40 21 -42 8 -5 -30 21 -22 43 -40 47 -40
4 0 17 9 28 20 19 19 20 33 20 219 0 113 4 212 10 227 22 57 -38 77 -160 53z"/>
</g>
<g id="part-4" class="char-part">
  <path d="M537 481 l6 -51 -56 0 c-31 0 -59 -4 -62 -10 -4 -6 17 -10 54 -10 58
0 61 -1 61 -24 0 -25 -28 -36 -91 -36 -16 0 -29 -5 -29 -11 0 -9 20 -10 68 -6
37 4 104 7 150 7 66 0 82 3 82 15 0 17 -4 18 -89 15 -56 -2 -63 0 -57 15 3 9
6 21 6 26 0 5 15 9 33 9 60 0 107 12 107 27 0 9 -7 12 -17 9 -10 -2 -42 -8
-71 -11 l-54 -7 4 43 c3 41 1 44 -24 47 -27 3 -27 3 -21 -47z"/>
</g>
<g id="part-5" class="char-part">
  <path d="M580 279 c-20 -7 -18 -8 13 -5 37 4 38 3 32 -25 -5 -22 -3 -29 8 -29
18 0 28 24 21 47 -5 14 -4 15 4 4 7 -9 12 -10 16 -2 4 6 4 12 -1 12 -42 6 -72
5 -93 -2z"/>
  <path d="M466 251 c9 -17 18 -31 20 -31 3 0 2 5 -1 10 -3 6 1 13 9 16 22 8 20
23 -1 19 -10 -1 -24 2 -30 7 -8 6 -7 -2 3 -21z"/>
  <path d="M480 190 c0 -22 5 -23 35 -10 17 7 17 9 3 9 -10 1 -18 6 -18 11 0 6
-4 10 -10 10 -5 0 -10 -9 -10 -20z"/>
  <path d="M595 203 c-41 -10 -39 -23 3 -23 31 0 42 4 42 15 0 15 -9 17 -45 8z"/>
</g>
</g>
</svg>