<?xml version="1.0" standalone="no"?>
<!DOCTYPE svg PUBLIC "-//W3C//DTD SVG 20010904//EN"
 "http://www.w3.org/TR/2001/REC-SVG-20010904/DTD/svg10.dtd">
<svg version="1.0" xmlns="http://www.w3.org/2000/svg"
 width="96.000000pt" height="68.000000pt" viewBox="0 0 96.000000 68.000000"
 preserveAspectRatio="xMidYMid meet">
<metadata>
Created by potrace 1.16, written by Peter Selinger 2001-2019
Combined from part_0.svg through part_5.svg with named groups
</metadata>
<g transform="translate(0.000000,68.000000) scale(0.100000,-0.100000)" fill="#000000" stroke="none">
<g id="part-0" class="char-part">
  <path d="M227 563 c11 -51 7 -317 -5 -384 -17 -88 5 -141 43 -109 12 10 15 43
15 169 l1 156 29 -32 c31 -34 45 -40 55 -23 13 21 -8 58 -42 74 l-36 17 6 73
c5 71 4 74 -19 85 -46 21 -56 15 -47 -26z"/>
  <path d="M526 498 c4 -7 18 -27 31 -44 13 -17 23 -33 23 -36 0 -3 -39 -9 -87
-12 -107 -9 -131 -15 -112 -27 8 -5 26 -9 42 -9 27 0 27 0 27 -72 0 -40 4 -78
8 -84 21 -32 58 -39 195 -38 139 1 176 9 150 35 -9 9 -41 8 -127 -1 -63 -7
-131 -9 -151 -6 -35 7 -35 7 -35 58 0 28 5 67 11 88 11 37 12 37 78 44 36 3
102 6 146 7 44 0 89 4 100 9 18 7 18 9 -9 19 -21 9 -50 9 -108 1 -90 -13 -92
-12 -97 33 0 7 -14 20 -30 30 -34 20 -66 23 -55 5z"/>
  <path d="M126 381 c-31 -63 -29 -91 4 -91 27 0 52 58 48 108 -5 54 -21 49 -52
-17z"/>
</g>
<g id="part-1" class="char-part">
  <path d="M238 466 c2 -73 -1 -186 -7 -249 -12 -113 -7 -157 18 -157 17 0 23
37 28 189 l6 154 26 -32 c31 -37 51 -40 51 -6 0 19 -10 29 -40 45 -43 22 -43
23 -31 108 7 51 7 54 -20 68 -16 8 -30 14 -32 14 -2 0 -2 -60 1 -134z"/>
  <path d="M127 375 c-26 -54 -27 -85 -2 -85 28 0 59 77 48 120 -8 31 -17 24
-46 -35z"/>
</g>
<g id="part-2" class="char-part">
  <path d="M526 498 c4 -7 18 -27 30 -45 13 -17 24 -34 24 -36 0 -5 -189 -22
-202 -19 -5 1 -8 -2 -8 -8 0 -18 49 -22 112 -11 35 6 115 14 178 17 63 3 131
8 150 11 l35 6 -32 13 c-25 11 -48 12 -100 4 -92 -13 -90 -14 -96 20 -4 19
-17 34 -36 45 -37 18 -65 20 -55 3z"/>
</g>
<g id="part-3" class="char-part">
  <path d="M457 373 c-4 -3 -7 -39 -7 -79 0 -52 4 -77 15 -88 35 -35 150 -46
275 -25 72 11 78 15 62 31 -8 8 -43 8 -134 -2 -92 -9 -130 -9 -152 -1 -28 11
-28 13 -24 74 3 34 8 70 13 80 6 13 2 17 -17 17 -14 0 -28 -3 -31 -7z"/>
</g>
</g>
</svg>