<?xml version="1.0" standalone="no"?>
<!DOCTYPE svg PUBLIC "-//W3C//DTD SVG 20010904//EN"
 "http://www.w3.org/TR/2001/REC-SVG-20010904/DTD/svg10.dtd">
<svg version="1.0" xmlns="http://www.w3.org/2000/svg"
 width="96.000000pt" height="68.000000pt" viewBox="0 0 96.000000 68.000000"
 preserveAspectRatio="xMidYMid meet">
<metadata>
Created by potrace 1.16, written by Peter Selinger 2001-2019
Combined from part_0.svg through part_5.svg with named groups
</metadata>
<g transform="translate(0.000000,68.000000) scale(0.100000,-0.100000)" fill="#000000" stroke="none">
<g id="part-0" class="char-part">
  <path d="M660 545 l0 -55 -40 0 c-41 0 -43 2 -52 65 -2 11 -12 21 -22 23 -14
3 -17 0 -13 -11 3 -9 9 -32 13 -51 6 -36 6 -36 -30 -36 -34 0 -35 1 -30 29 5
24 2 29 -18 34 -36 10 -36 10 -31 -33 6 -41 2 -44 -44 -43 -7 1 -13 -3 -13 -8
0 -8 6 -10 50 -13 12 -1 15 -16 15 -68 0 -82 9 -94 58 -73 26 11 72 15 157 15
72 0 120 4 120 10 0 18 -49 22 -166 13 l-116 -8 -10 24 c-5 14 -8 41 -6 60 3
31 7 36 32 39 33 4 46 -10 46 -50 0 -27 1 -27 48 -22 67 8 72 11 72 38 0 50 8
56 72 56 43 0 58 3 55 13 -2 7 -23 12 -55 12 -56 -1 -61 5 -40 50 13 29 1 45
-34 45 -15 0 -18 -9 -18 -55z m-12 -100 c-2 -17 -10 -28 -25 -31 -29 -8 -43 2
-43 32 0 21 5 24 35 24 31 0 35 -3 33 -25z"/>
  <path d="M280 514 c-25 -8 -71 -14 -102 -14 -32 0 -58 -4 -58 -10 0 -5 4 -10
10 -10 5 0 17 -26 26 -57 20 -70 28 -80 49 -63 27 22 35 -4 35 -111 l0 -97
-30 -4 -29 -4 -3 80 c-3 75 -5 81 -25 84 -21 3 -22 2 -16 -88 l6 -92 -29 2
c-46 3 -48 1 -21 -20 27 -21 47 -25 62 -12 6 4 58 23 118 42 59 19 107 38 107
43 0 5 -10 6 -22 3 -80 -23 -78 -23 -78 33 l0 51 39 0 c22 0 43 5 47 11 5 8
-6 10 -35 7 l-41 -4 0 43 c0 41 1 43 30 43 26 0 30 3 25 23 -3 12 3 39 15 62
26 50 25 51 -7 63 -20 6 -42 5 -73 -4z m20 -62 c0 -38 -17 -52 -61 -52 -30 0
-38 4 -43 23 -13 48 -6 54 67 56 34 1 37 -1 37 -27z"/>
  <path d="M569 291 c19 -35 13 -47 -26 -50 -21 -1 -67 -6 -103 -10 -62 -7 -64
-8 -36 -19 21 -9 43 -10 84 -2 32 6 60 6 65 1 9 -9 -77 -88 -139 -127 -22 -13
-33 -24 -25 -24 19 0 118 56 150 86 14 13 29 24 34 24 4 0 6 -33 5 -74 -3 -78
1 -92 27 -83 12 5 15 23 15 82 0 41 3 75 7 75 4 0 28 -20 53 -44 45 -45 64
-51 148 -47 36 2 26 17 -20 31 -78 23 -188 88 -188 111 0 5 45 9 105 9 62 0
105 4 105 10 0 17 -49 23 -125 16 l-74 -7 -3 28 c-2 24 -8 29 -36 31 -31 3
-33 2 -23 -17z"/>
</g>
<g id="part-1" class="char-part">
  <path d="M245 504 c-33 -8 -76 -11 -95 -8 -33 6 -34 5 -18 -13 9 -10 23 -40
31 -68 11 -38 19 -50 33 -49 120 10 152 16 148 29 -3 7 4 34 15 59 19 45 19
46 1 56 -23 12 -38 11 -115 -6z m57 -59 c-2 -22 -5 -41 -5 -41 -1 -1 -23 -4
-48 -8 -45 -7 -47 -6 -53 21 -4 15 -9 36 -12 45 -4 14 3 18 38 21 81 7 83 7
80 -38z"/>
</g>
<g id="part-2" class="char-part">
  <path d="M260 164 c-52 -14 -116 -26 -142 -26 -54 -2 -59 -10 -22 -34 25 -17
30 -16 152 26 186 63 192 80 12 34z"/>
</g>
<g id="part-3" class="char-part">
  <path d="M430 531 c19 -37 12 -58 -22 -65 -28 -6 -30 -8 -16 -17 10 -5 26 -9
35 -7 16 3 18 -6 18 -64 0 -82 9 -94 58 -73 26 11 72 15 158 15 92 0 120 3
116 13 -3 9 -38 11 -144 9 -140 -4 -140 -4 -146 20 -13 48 -8 86 13 93 26 8
26 25 0 25 -17 0 -19 4 -14 26 7 29 -7 44 -44 44 -19 0 -21 -3 -12 -19z"/>
</g>
<g id="part-4" class="char-part">
  <path d="M658 552 l-3 -57 -37 -3 c-36 -3 -37 -2 -45 40 -6 30 -14 44 -27 46
-15 3 -17 0 -12 -14 4 -11 10 -34 13 -51 4 -26 2 -33 -11 -33 -9 0 -16 -4 -16
-10 0 -5 7 -10 15 -10 8 0 17 -12 21 -27 3 -16 7 -33 9 -38 2 -7 23 -9 55 -5
43 4 54 9 56 24 9 65 11 66 74 66 33 0 60 4 60 10 0 14 -46 23 -82 16 -29 -6
-30 -5 -25 22 3 15 8 34 12 43 5 12 -2 19 -24 27 l-30 11 -3 -57z m-8 -106 c0
-24 -16 -36 -51 -36 -14 0 -19 7 -19 30 0 28 3 30 35 30 30 0 35 -3 35 -24z"/>
</g>
<g id="part-5" class="char-part">
  <path d="M580 291 c0 -11 5 -23 10 -26 6 -3 10 -11 10 -16 0 -6 -4 -7 -10 -4
-5 3 -10 3 -10 -2 0 -4 -15 -8 -32 -9 -111 -4 -157 -8 -146 -16 12 -7 82 -3
119 8 9 3 24 -3 33 -11 18 -18 20 -26 7 -23 -5 2 -9 -1 -10 -5 0 -9 -27 -37
-35 -37 -3 0 -26 -16 -52 -35 -25 -19 -42 -35 -37 -35 14 0 116 70 129 88 20
27 29 5 29 -70 0 -50 4 -72 13 -74 7 -1 8 0 2 3 -5 2 -10 9 -10 14 0 6 5 7 11
3 9 -5 10 3 5 29 -4 23 -2 44 6 58 10 17 10 23 1 26 -10 4 -10 7 0 18 7 7 15
11 20 8 4 -2 7 1 7 6 0 6 -4 11 -10 11 -14 0 -12 27 3 33 7 3 5 6 -6 6 -14 1
-16 5 -8 20 8 14 6 22 -8 35 -23 21 -31 20 -31 -3z"/>
  <path d="M693 249 c-4 -4 -17 -9 -28 -12 -11 -3 12 -5 50 -5 39 0 79 3 90 7
18 7 17 9 -10 14 -38 8 -92 6 -102 -4z"/>
  <path d="M646 172 c-2 -4 18 -26 45 -49 43 -36 56 -42 95 -41 24 0 44 4 44 9
0 5 -8 6 -17 2 -10 -3 -15 -2 -10 2 9 10 -63 36 -76 28 -6 -3 -7 -1 -3 5 3 6
-6 13 -24 17 -17 4 -28 11 -25 16 4 5 -2 6 -11 2 -12 -4 -15 -3 -10 5 4 7 5
12 2 12 -3 0 -7 -3 -10 -8z"/>
</g>
</g>
</svg>