<?xml version="1.0" standalone="no"?>
<!DOCTYPE svg PUBLIC "-//W3C//DTD SVG 20010904//EN"
 "http://www.w3.org/TR/2001/REC-SVG-20010904/DTD/svg10.dtd">
<svg version="1.0" xmlns="http://www.w3.org/2000/svg"
 width="96.000000pt" height="68.000000pt" viewBox="0 0 96.000000 68.000000"
 preserveAspectRatio="xMidYMid meet">
<metadata>
Created by potrace 1.16, written by Peter Selinger 2001-2019
Combined from part_0.svg through part_5.svg with named groups
</metadata>
<g transform="translate(0.000000,68.000000) scale(0.100000,-0.100000)" fill="#000000" stroke="none">
<g id="part-0" class="char-part">
  <path d="M490 573 c0 -16 75 -83 93 -83 24 0 21 35 -5 60 -12 11 -27 20 -32
20 -6 0 -21 3 -33 6 -13 4 -23 2 -23 -3z"/>
  <path d="M218 554 c-4 -3 4 -25 17 -47 26 -48 59 -60 70 -27 8 24 -18 70 -39
70 -8 0 -21 2 -28 5 -8 3 -17 3 -20 -1z"/>
  <path d="M200 443 c-113 -16 -134 -25 -101 -43 17 -9 52 -6 161 12 213 35 160
63 -60 31z"/>
  <path d="M495 429 l-60 -19 52 4 c36 2 57 -1 64 -10 15 -19 8 -289 -8 -305
-10 -10 -18 -10 -38 -1 -14 6 -25 8 -25 4 0 -10 63 -72 73 -72 3 0 15 10 27
22 17 19 20 35 20 125 0 57 3 103 6 103 9 0 27 -20 72 -82 l43 -58 58 0 c32 0
61 3 64 6 4 4 -22 20 -56 36 -70 34 -147 93 -147 114 0 8 4 14 9 14 5 0 38 19
72 41 62 41 62 42 38 55 -34 19 -48 17 -58 -8 -13 -32 -77 -92 -90 -83 -7 4
-11 31 -9 68 3 60 2 62 -22 64 -14 1 -52 -7 -85 -18z"/>
  <path d="M275 365 c-5 -2 -27 -6 -48 -10 -21 -3 -35 -10 -31 -16 3 -6 18 -8
32 -5 15 3 46 8 70 11 23 4 40 11 36 16 -5 9 -38 11 -59 4z"/>
  <path d="M465 325 c-5 -2 -27 -6 -49 -10 -26 -4 -35 -10 -29 -16 7 -7 23 -7
47 -1 34 10 36 9 36 -13 0 -21 -67 -119 -94 -137 -7 -5 -4 -8 6 -8 40 0 157
142 144 176 -5 13 -36 17 -61 9z"/>
  <path d="M230 287 c-36 -9 -40 -12 -21 -15 37 -6 132 8 126 19 -8 11 -47 10
-105 -4z"/>
  <path d="M275 220 c-11 -5 -44 -9 -74 -9 -51 -1 -53 -2 -39 -18 8 -10 19 -31
22 -48 12 -46 22 -55 59 -44 18 5 44 9 59 9 20 0 28 5 28 18 0 9 7 30 15 46 9
16 13 36 11 43 -6 14 -50 16 -81 3z m21 -52 c-8 -39 -6 -37 -43 -42 -27 -3
-32 1 -41 30 -11 37 -6 41 57 43 32 1 33 0 27 -31z"/>
</g>
<g id="part-1" class="char-part">
  <path d="M220 546 c0 -20 46 -76 61 -76 27 0 25 45 -3 64 -21 15 -58 22 -58
12z"/>
  <path d="M217 440 c-65 -10 -121 -21 -124 -23 -2 -3 5 -11 17 -17 16 -9 35 -8
83 4 34 8 82 17 107 21 88 12 104 17 89 26 -18 11 -30 10 -172 -11z"/>
</g>
<g id="part-2" class="char-part">
  <path d="M265 220 c-11 -5 -45 -9 -75 -10 -41 0 -51 -3 -38 -10 9 -6 24 -33
33 -61 14 -40 20 -49 34 -43 9 3 36 9 61 11 42 5 47 8 59 42 23 65 20 76 -19
78 -19 1 -44 -2 -55 -7z m35 -32 c-1 -40 -13 -56 -45 -60 -30 -3 -34 -1 -43
29 -11 36 -6 40 56 42 20 1 32 -4 32 -11z"/>
</g>
<g id="part-3" class="char-part">
  <path d="M495 569 c30 -50 60 -79 81 -79 19 0 24 5 24 25 0 28 -30 51 -80 61
-27 6 -32 4 -25 -7z"/>
</g>
<g id="part-4" class="char-part">
  <path d="M485 430 l-60 -18 65 -3 65 -4 3 -37 c2 -29 8 -38 22 -38 14 0 20 11
25 51 10 75 -8 82 -120 49z"/>
</g>
<g id="part-5" class="char-part">
  <path d="M682 359 c-24 -37 -27 -46 -13 -37 11 6 17 16 15 20 -3 4 3 8 14 8
11 0 32 10 46 21 21 17 25 24 14 30 -26 17 -43 7 -76 -42z"/>
  <path d="M488 323 c-13 -3 -16 -13 -14 -38 1 -19 -1 -32 -6 -29 -4 3 -8 0 -8
-7 0 -7 -19 -35 -42 -63 l-43 -51 35 25 c19 13 36 27 38 31 2 4 14 20 27 35
16 19 23 36 19 49 -4 15 -3 16 4 6 8 -11 12 -10 21 7 12 23 -3 41 -31 35z"/>
  <path d="M563 300 c-1 -11 1 -18 5 -16 4 3 8 -4 8 -14 0 -10 -4 -16 -9 -13 -5
3 -7 -29 -6 -71 2 -84 -10 -111 -45 -100 -18 6 -19 5 -7 -9 7 -9 18 -14 24
-10 6 3 7 1 3 -6 -4 -6 0 -14 9 -17 18 -7 47 24 40 44 -3 7 -1 10 5 7 5 -3 8
37 7 100 -2 81 1 104 10 100 7 -2 13 0 13 4 0 10 -24 21 -44 21 -6 0 -12 -9
-13 -20z"/>
  <path d="M630 278 c0 -4 20 -34 45 -67 37 -49 51 -59 84 -65 72 -11 78 4 16
36 -32 16 -60 26 -63 23 -4 -3 0 -11 8 -16 13 -9 13 -10 0 -6 -8 2 -15 12 -15
23 0 10 -8 20 -18 22 -9 2 -15 8 -12 13 4 5 -1 9 -9 9 -8 0 -20 8 -25 18 -6 9
-11 14 -11 10z"/>
</g>
</g>
</svg>