<?xml version="1.0" standalone="no"?>
<!DOCTYPE svg PUBLIC "-//W3C//DTD SVG 20010904//EN"
 "http://www.w3.org/TR/2001/REC-SVG-20010904/DTD/svg10.dtd">
<svg version="1.0" xmlns="http://www.w3.org/2000/svg"
 width="96.000000pt" height="68.000000pt" viewBox="0 0 96.000000 68.000000"
 preserveAspectRatio="xMidYMid meet">
<metadata>
Created by potrace 1.16, written by Peter Selinger 2001-2019
Combined from part_0.svg through part_5.svg with named groups
</metadata>
<g transform="translate(0.000000,68.000000) scale(0.100000,-0.100000)" fill="#000000" stroke="none">
<g id="part-0" class="char-part">
  <path d="M593 530 c-9 -22 -20 -40 -25 -40 -23 0 -3 -42 36 -74 51 -42 56 -43
56 -16 0 17 -34 47 -75 64 -5 3 7 21 28 40 41 40 45 51 21 60 -24 9 -25 9 -41
-34z"/>
  <path d="M725 541 c-3 -16 -15 -37 -26 -47 -10 -9 -19 -22 -19 -28 0 -16 98
-88 110 -81 22 14 7 37 -35 56 -25 11 -45 24 -45 28 0 5 18 25 41 44 43 38 44
57 4 57 -18 0 -25 -7 -30 -29z"/>
  <path d="M455 498 c-11 -29 -21 -56 -23 -61 -4 -9 56 -67 69 -67 18 0 8 28
-16 44 -33 21 -32 34 7 80 25 30 28 40 17 47 -26 16 -34 9 -54 -43z"/>
  <path d="M290 475 c-30 -7 -69 -14 -87 -14 -40 -1 -52 -19 -18 -26 83 -17 76
-11 73 -67 -3 -50 -4 -51 -43 -63 -41 -13 -33 -25 15 -22 24 2 25 -1 28 -59
l3 -62 -66 -13 c-69 -13 -81 -28 -39 -47 22 -11 36 -7 122 39 111 58 136 76
75 55 -24 -8 -44 -12 -47 -8 -2 4 -1 31 1 60 5 49 8 53 35 59 43 8 44 23 2 23
l-37 0 5 51 c6 55 18 69 61 69 34 0 35 17 1 30 -14 6 -26 9 -27 9 -1 -1 -27
-7 -57 -14z"/>
  <path d="M541 340 c-16 -54 -32 -64 -91 -57 l-51 6 15 -27 c8 -15 21 -67 28
-117 12 -81 15 -90 33 -87 11 2 70 6 131 9 107 5 111 5 117 -16 7 -28 41 -27
59 1 8 13 20 61 26 108 6 47 12 93 14 104 2 11 -7 26 -22 37 -24 19 -29 19
-133 3 -59 -9 -111 -14 -115 -10 -4 4 8 20 27 35 l34 28 -30 11 c-30 10 -31 9
-42 -28z m213 -75 c3 -9 3 -49 -1 -89 l-6 -73 -130 -7 c-72 -3 -131 -5 -133
-3 -2 1 -7 36 -12 76 -10 85 -10 85 93 100 104 15 182 13 189 -4z"/>
  <path d="M640 245 c0 -8 -4 -15 -10 -15 -5 0 -10 -7 -10 -15 0 -19 -11 -19
-55 -1 -20 9 -35 11 -35 5 0 -5 11 -14 25 -19 14 -5 25 -16 25 -23 0 -8 -11
-20 -25 -27 -14 -7 -25 -17 -25 -22 0 -12 5 -10 45 14 35 20 38 20 65 5 35
-21 60 -22 60 -2 0 8 -3 15 -7 15 -5 0 -17 7 -27 15 -19 15 -19 15 4 40 21 22
22 28 10 35 -22 14 -40 12 -40 -5z"/>
</g>
<g id="part-1" class="char-part">
  <path d="M251 464 c-41 -7 -76 -16 -79 -19 -8 -7 126 -5 171 3 21 4 39 12 40
17 3 15 -49 15 -132 -1z"/>
</g>
<g id="part-2" class="char-part">
  <path d="M254 378 l1 -62 -44 -9 c-38 -7 -42 -11 -27 -19 10 -6 31 -7 47 -4
l30 6 -3 -62 -3 -61 -45 -13 c-25 -8 -55 -14 -68 -14 -30 0 -24 -21 11 -38 24
-12 34 -8 124 37 108 55 141 76 108 67 -81 -21 -75 -24 -75 37 l0 56 35 7 c51
9 53 24 4 24 l-42 0 6 55 6 55 -33 0 -33 0 1 -62z"/>
</g>
<g id="part-3" class="char-part">
  <path d="M460 510 c-6 -21 -15 -42 -20 -45 -6 -3 -10 -12 -10 -20 0 -19 49
-75 66 -75 22 0 16 27 -11 48 -14 11 -25 23 -25 27 0 3 14 24 31 45 32 40 32
60 -1 60 -14 0 -22 -11 -30 -40z"/>
</g>
<g id="part-4" class="char-part">
  <path d="M725 537 c-8 -19 -21 -39 -29 -47 -25 -20 -19 -33 32 -66 71 -47 72
-48 72 -24 0 15 -12 26 -45 40 -25 11 -45 26 -45 35 0 8 3 15 8 15 16 0 74 59
68 69 -15 23 -47 11 -61 -22z"/>
</g>
<g id="part-5" class="char-part">
  <path d="M730 300 c0 -5 8 -13 18 -19 14 -8 17 -24 17 -88 0 -45 -5 -83 -12
-90 -7 -8 -31 -11 -65 -9 -37 3 -57 -1 -66 -11 -12 -12 -9 -13 22 -8 48 9 82
0 89 -25 8 -29 23 -25 47 15 16 25 21 49 20 92 -1 32 3 73 8 90 9 29 8 35 -11
48 -24 17 -67 20 -67 5z m57 -172 c-3 -8 -6 -5 -6 6 -1 11 2 17 5 13 3 -3 4
-12 1 -19z m-21 -64 c-3 -9 -6 -18 -6 -20 0 -2 -4 -4 -9 -4 -5 0 -7 9 -4 20 3
11 10 20 15 20 6 0 7 -7 4 -16z"/>
  <path d="M620 289 c-20 -6 -18 -7 15 -7 22 0 49 3 60 8 16 6 12 7 -15 7 -19
-1 -46 -4 -60 -8z"/>
  <path d="M428 256 c9 -10 16 -20 15 -22 -2 -2 -3 -5 -2 -6 1 -2 3 -39 5 -82 2
-44 6 -81 7 -83 2 -1 35 4 73 11 66 14 67 15 18 12 -29 -2 -58 -7 -65 -11 -7
-5 -10 -4 -6 1 9 15 -14 178 -27 187 -6 5 -3 6 9 3 11 -3 34 -2 50 3 25 8 19
9 -32 8 -59 -2 -61 -3 -45 -21z"/>
</g>
</g>
</svg>