<?xml version="1.0" standalone="no"?>
<!DOCTYPE svg PUBLIC "-//W3C//DTD SVG 20010904//EN"
 "http://www.w3.org/TR/2001/REC-SVG-20010904/DTD/svg10.dtd">
<svg version="1.0" xmlns="http://www.w3.org/2000/svg"
 width="96.000000pt" height="68.000000pt" viewBox="0 0 96.000000 68.000000"
 preserveAspectRatio="xMidYMid meet">
<metadata>
Created by potrace 1.16, written by Peter Selinger 2001-2019
Combined from part_0.svg through part_5.svg with named groups
</metadata>
<g transform="translate(0.000000,68.000000) scale(0.100000,-0.100000)" fill="#000000" stroke="none">
<g id="part-0" class="char-part">
  <path d="M598 546 l4 -64 -65 -7 c-36 -4 -71 -4 -77 0 -8 5 -10 22 -7 47 5 35
2 40 -20 49 -13 5 -26 9 -29 9 -2 0 -3 -26 -2 -57 l3 -58 -32 -3 c-43 -4 -42
-22 1 -22 l33 0 5 -102 c3 -60 2 -108 -4 -115 -6 -7 -41 -13 -81 -15 -69 -3
-71 -4 -42 -16 24 -11 45 -11 105 -2 41 6 155 14 253 17 97 3 177 9 177 13 0
19 -56 30 -117 24 l-65 -7 8 109 c4 61 12 112 18 116 6 4 21 8 34 8 34 0 26
18 -10 22 -33 3 -33 3 -33 58 0 54 -1 55 -30 58 l-30 3 3 -65z m2 -160 l0 -63
-61 -7 c-33 -4 -67 -10 -75 -13 -10 -4 -14 3 -14 25 0 26 4 30 38 36 20 3 52
6 70 6 17 0 32 5 32 11 0 8 -21 10 -70 5 l-70 -7 0 30 c0 32 -7 29 110 44 14
2 28 1 33 -1 4 -2 7 -32 7 -66z m0 -120 l0 -33 -67 -6 c-38 -3 -71 -3 -75 0
-5 2 -8 17 -8 33 0 27 3 29 48 33 110 8 102 10 102 -27z"/>
  <path d="M189 522 c15 -28 60 -62 81 -62 10 0 21 8 24 17 10 25 -25 54 -74 60
-40 6 -42 5 -31 -15z"/>
  <path d="M120 403 c0 -5 14 -23 31 -40 43 -47 90 -42 74 7 -8 24 -105 55 -105
33z"/>
  <path d="M215 259 c-26 -33 -58 -65 -71 -71 -12 -6 -25 -16 -27 -22 -7 -18 22
-76 38 -76 9 0 37 44 70 110 30 60 55 112 55 115 0 17 -23 -3 -65 -56z"/>
  <path d="M391 130 c-14 -22 -41 -51 -60 -65 -20 -14 -32 -25 -28 -25 12 0 107
50 142 74 16 11 32 22 35 24 8 6 -33 32 -49 32 -9 0 -27 -18 -40 -40z"/>
  <path d="M660 105 c61 -62 80 -68 80 -27 0 24 -8 33 -49 55 -81 45 -93 35 -31
-28z"/>
</g>
<g id="part-1" class="char-part">
  <path d="M190 530 c0 -15 61 -60 81 -60 27 0 24 34 -3 48 -30 14 -78 21 -78
12z"/>
  <path d="M155 370 c34 -35 65 -40 65 -10 0 21 -34 40 -73 40 -19 0 -19 -2 8
-30z"/>
  <path d="M192 231 l-73 -76 15 -33 c9 -18 21 -30 26 -27 11 7 113 205 108 210
-2 1 -36 -32 -76 -74z"/>
</g>
<g id="part-2" class="char-part">
  <path d="M598 547 l4 -64 -66 -7 c-37 -4 -72 -4 -78 0 -6 4 -8 22 -4 45 6 36
4 40 -20 49 -14 6 -28 10 -30 10 -3 0 -4 -26 -2 -57 l3 -58 -38 -3 c-45 -4
-39 -22 7 -22 l33 0 6 -107 c3 -59 4 -109 1 -112 -3 -3 -39 -8 -82 -11 -74 -6
-76 -7 -47 -19 23 -10 46 -10 105 -1 41 6 155 14 253 17 97 3 177 9 177 13 0
19 -57 31 -118 24 l-64 -6 8 108 c4 61 12 112 18 116 6 4 21 8 34 8 12 0 22 4
22 9 0 12 -27 21 -44 15 -12 -5 -16 7 -18 53 -3 57 -4 58 -34 61 l-30 3 4 -64z
m0 -312 c-2 -1 -36 -5 -75 -8 l-73 -6 0 109 0 109 33 5 c17 3 50 7 72 8 l40 3
3 -109 c1 -60 1 -110 0 -111z"/>
</g>
<g id="part-3" class="char-part">
  <path d="M488 383 c-16 -2 -28 -9 -28 -15 0 -6 12 -8 31 -4 17 3 47 6 65 6 19
0 34 5 34 10 0 10 -48 11 -102 3z"/>
</g>
<g id="part-4" class="char-part">
  <path d="M410 156 c0 -7 -24 -36 -54 -65 -30 -28 -53 -51 -50 -51 12 0 137 70
174 98 9 6 -33 32 -52 32 -10 0 -18 -6 -18 -14z"/>
  <path d="M655 111 c64 -65 85 -75 85 -38 0 34 -49 71 -120 92 -20 6 -13 -6 35
-54z"/>
</g>
</g>
</svg>