<?xml version="1.0" standalone="no"?>
<!DOCTYPE svg PUBLIC "-//W3C//DTD SVG 20010904//EN"
 "http://www.w3.org/TR/2001/REC-SVG-20010904/DTD/svg10.dtd">
<svg version="1.0" xmlns="http://www.w3.org/2000/svg"
 width="96.000000pt" height="68.000000pt" viewBox="0 0 96.000000 68.000000"
 preserveAspectRatio="xMidYMid meet">
<metadata>
Created by potrace 1.16, written by Peter Selinger 2001-2019
Combined from part_0.svg through part_5.svg with named groups
</metadata>
<g transform="translate(0.000000,68.000000) scale(0.100000,-0.100000)" fill="#000000" stroke="none">
<g id="part-0" class="char-part">
  <path d="M267 547 l6 -84 -63 -6 c-35 -4 -66 -10 -69 -13 -14 -13 29 -25 77
-20 l52 5 0 -50 c0 -54 -1 -55 -124 -97 -28 -9 -53 -18 -55 -19 -10 -6 34 -43
50 -43 10 0 41 14 67 30 27 17 52 30 56 30 9 0 7 -93 -3 -109 -6 -9 -18 -11
-42 -6 l-34 7 46 -47 c72 -73 89 -54 89 102 l0 91 45 26 c54 32 60 52 9 31
-51 -21 -56 -20 -52 22 3 34 6 38 41 46 45 11 44 31 -1 35 -28 3 -32 7 -32 32
0 16 5 41 12 56 11 23 10 28 -11 45 -13 11 -34 19 -47 19 -23 0 -23 -1 -17
-83z"/>
  <path d="M515 531 c-12 -38 -70 -107 -87 -103 -13 2 -16 -2 -13 -17 3 -12 7
-29 9 -38 2 -10 0 -45 -5 -78 -15 -108 -3 -112 94 -37 64 50 69 64 11 33 -62
-34 -66 -31 -63 52 3 79 7 86 87 141 23 16 42 32 42 36 0 6 -53 30 -66 30 -1
0 -5 -8 -9 -19z"/>
  <path d="M765 468 c-16 -4 -60 -9 -97 -10 l-66 -2 5 -200 c5 -219 7 -236 26
-217 8 8 13 73 17 195 3 102 8 187 11 191 4 3 32 9 63 12 l56 6 0 -45 c0 -25
-3 -60 -6 -77 -6 -27 -11 -31 -40 -31 l-33 0 23 -25 c48 -52 79 -26 101 83 7
37 16 75 20 84 10 25 -40 48 -80 36z"/>
</g>
<g id="part-1" class="char-part">
  <path d="M264 608 c3 -13 9 -51 13 -85 l6 -61 -67 -7 c-36 -4 -66 -11 -66 -16
0 -5 29 -9 66 -9 l65 0 -3 -52 -3 -51 -93 -36 c-83 -31 -92 -37 -76 -48 27
-20 52 -16 111 18 30 17 57 29 60 26 3 -3 1 -34 -4 -69 l-8 -63 -35 3 -35 4
39 -36 c21 -20 44 -36 51 -36 22 0 35 51 35 141 l0 89 47 30 c51 33 46 39 -11
15 l-36 -15 0 45 c0 41 2 45 28 51 53 11 59 15 33 25 -13 5 -32 7 -42 4 -23
-8 -25 13 -5 78 l14 46 -33 15 c-46 22 -59 21 -51 -6z"/>
</g>
<g id="part-2" class="char-part">
  <path d="M511 523 c-7 -15 -26 -44 -42 -65 -22 -27 -26 -38 -16 -38 9 0 22 6
29 13 7 7 34 28 61 47 26 18 47 37 47 42 0 8 -42 28 -59 28 -4 0 -13 -12 -20
-27z"/>
</g>
<g id="part-3" class="char-part">
  <path d="M416 408 c8 -24 8 -116 -1 -158 -3 -14 -1 -31 4 -39 8 -12 16 -10 48
12 87 60 140 122 58 67 -16 -11 -38 -20 -49 -20 -17 0 -18 6 -14 70 5 61 3 72
-13 80 -30 17 -41 12 -33 -12z"/>
</g>
<g id="part-4" class="char-part">
  <path d="M608 248 c2 -117 5 -215 8 -217 2 -3 10 1 16 7 16 16 29 404 14 414
-6 4 -18 8 -26 8 -13 0 -15 -29 -12 -212z"/>
</g>
</g>
</svg>