<?xml version="1.0" standalone="no"?>
<!DOCTYPE svg PUBLIC "-//W3C//DTD SVG 20010904//EN"
 "http://www.w3.org/TR/2001/REC-SVG-20010904/DTD/svg10.dtd">
<svg version="1.0" xmlns="http://www.w3.org/2000/svg"
 width="96.000000pt" height="68.000000pt" viewBox="0 0 96.000000 68.000000"
 preserveAspectRatio="xMidYMid meet">
<metadata>
Created by potrace 1.16, written by Peter Selinger 2001-2019
Combined from part_0.svg through part_5.svg with named groups
</metadata>
<g transform="translate(0.000000,68.000000) scale(0.100000,-0.100000)" fill="#000000" stroke="none">
<g id="part-0" class="char-part">
  <path d="M206 563 c11 -46 8 -211 -6 -355 -11 -111 -3 -158 27 -158 24 0 33
49 33 183 0 73 3 149 6 169 l7 37 25 -19 c26 -21 57 -26 66 -11 13 20 -7 39
-50 50 l-44 11 6 54 c6 48 4 55 -14 65 -11 6 -30 11 -42 11 -20 0 -22 -3 -14
-37z"/>
  <path d="M495 498 c-9 -29 -28 -72 -42 -95 -23 -40 -28 -43 -69 -43 -49 0 -50
-1 -30 -33 7 -12 17 -42 20 -67 4 -25 9 -55 12 -66 5 -20 0 -23 -47 -29 -43
-6 -49 -9 -34 -18 11 -6 56 -7 117 -3 55 3 172 9 261 12 89 4 164 9 167 11 14
13 -40 33 -87 33 -29 0 -53 2 -53 4 0 3 13 41 29 85 41 110 26 120 -140 95
-60 -8 -116 -14 -124 -12 -16 3 -8 15 71 101 39 44 40 45 17 63 -34 26 -50 16
-68 -38z m193 -157 c2 -12 -4 -52 -14 -87 -17 -62 -18 -64 -50 -64 -39 0 -38
-2 -19 70 8 30 15 68 15 83 0 26 3 28 33 25 25 -2 33 -8 35 -27z m-113 -3 c7
-27 -1 -133 -10 -148 -3 -5 -17 -10 -31 -10 -23 0 -24 3 -25 58 0 31 -2 66 -5
77 -6 33 4 45 35 45 23 0 32 -5 36 -22z m-110 -25 c4 -21 10 -58 15 -83 5 -25
8 -46 7 -47 -1 -1 -15 -3 -31 -5 -27 -3 -29 0 -47 62 -23 82 -23 97 -1 103 43
12 51 7 57 -30z"/>
  <path d="M110 373 c-25 -58 -23 -87 7 -91 29 -4 45 34 41 92 -4 56 -23 55 -48
-1z"/>
</g>
<g id="part-1" class="char-part">
  <path d="M207 578 c11 -31 6 -362 -7 -421 -8 -38 -7 -54 5 -77 17 -33 30 -38
38 -15 4 8 9 95 13 195 4 99 9 180 12 180 2 0 20 -10 39 -21 24 -15 38 -18 45
-11 19 19 0 40 -43 47 l-42 7 6 54 c5 47 3 56 -16 69 -12 8 -30 15 -40 15 -15
0 -17 -4 -10 -22z"/>
  <path d="M113 370 c-23 -54 -20 -93 6 -88 21 4 46 77 37 111 -9 39 -19 34 -43
-23z"/>
</g>
<g id="part-2" class="char-part">
  <path d="M500 513 c-7 -21 -25 -62 -42 -92 -16 -29 -27 -56 -24 -59 7 -6 78
65 121 122 28 37 28 39 10 52 -33 24 -53 17 -65 -23z"/>
</g>
<g id="part-3" class="char-part">
  <path d="M555 380 c-72 -10 -152 -19 -179 -19 -47 -1 -48 -2 -33 -19 12 -14
47 -137 47 -168 0 -2 7 -4 15 -4 19 0 19 16 -1 96 -9 36 -14 67 -11 70 5 6
225 33 270 34 23 0 27 -4 27 -27 0 -16 -7 -53 -15 -83 -19 -70 -19 -69 6 -67
12 1 25 11 30 22 51 125 58 150 46 162 -21 21 -66 22 -202 3z"/>
</g>
<g id="part-4" class="char-part">
  <path d="M580 323 c0 -21 -3 -62 -6 -90 -6 -50 -8 -53 -35 -53 -28 0 -29 2
-29 48 0 82 -10 122 -31 122 -23 0 -23 0 -4 -91 9 -40 13 -74 11 -77 -3 -2
-47 -8 -97 -13 -51 -5 -94 -11 -97 -13 -12 -12 59 -18 137 -11 101 8 146 10
304 13 118 2 145 12 90 33 -19 7 -62 8 -130 2 -119 -10 -115 -14 -83 88 15 48
16 65 7 71 -26 17 -37 8 -37 -29z"/>
</g>
</g>
</svg>