<?xml version="1.0" standalone="no"?>
<!DOCTYPE svg PUBLIC "-//W3C//DTD SVG 20010904//EN"
 "http://www.w3.org/TR/2001/REC-SVG-20010904/DTD/svg10.dtd">
<svg version="1.0" xmlns="http://www.w3.org/2000/svg"
 width="96.000000pt" height="68.000000pt" viewBox="0 0 96.000000 68.000000"
 preserveAspectRatio="xMidYMid meet">
<metadata>
Created by potrace 1.16, written by Peter Selinger 2001-2019
Combined from part_0.svg through part_5.svg with named groups
</metadata>
<g transform="translate(0.000000,68.000000) scale(0.100000,-0.100000)" fill="#000000" stroke="none">
<g id="part-0" class="char-part">
  <path d="M447 570 l6 -70 -89 0 -89 0 -1 -83 c-3 -128 -43 -255 -112 -344 -13
-18 -20 -33 -15 -33 17 0 89 85 111 132 24 49 56 171 67 251 5 40 10 47 28 47
12 0 39 3 60 6 33 6 37 4 37 -14 0 -16 -9 -22 -41 -27 -24 -4 -37 -10 -30 -15
7 -4 23 -5 36 -2 16 3 30 -4 46 -22 20 -23 30 -26 93 -26 78 0 116 7 116 22 0
6 -37 6 -95 2 -93 -7 -95 -6 -95 15 0 17 6 21 29 21 43 0 91 11 91 22 0 13
-100 7 -101 -6 -1 -6 -4 0 -8 14 -7 23 -4 25 38 32 26 3 67 7 94 7 46 1 47 0
41 -24 -7 -30 -5 -30 53 -4 38 17 43 23 32 34 -29 27 -72 33 -150 20 -41 -6
-81 -15 -88 -19 -9 -6 -12 -2 -9 15 3 22 10 25 76 32 55 7 72 13 72 24 0 14
-11 15 -70 9 -69 -6 -70 -6 -70 18 0 16 -7 26 -22 30 -46 12 -47 10 -41 -64z"/>
  <path d="M480 335 c-47 -7 -79 -13 -73 -14 7 0 21 -18 31 -38 10 -21 24 -37
31 -35 6 1 46 5 87 9 41 3 72 8 69 11 -2 3 3 18 13 34 29 50 1 56 -158 33z
m108 -27 c-2 -19 -12 -25 -56 -32 -43 -7 -56 -6 -63 5 -17 27 -9 38 34 42 92
8 89 9 85 -15z"/>
  <path d="M360 241 l0 -51 50 0 c42 0 50 -3 50 -19 0 -17 -9 -19 -79 -22 -75
-4 -102 -11 -88 -25 7 -8 90 -7 127 1 17 4 30 2 30 -3 0 -18 -53 -62 -104 -86
-34 -17 -44 -25 -29 -26 40 0 115 40 159 86 l45 46 132 -2 c160 -2 157 -3 133
15 -12 9 -43 15 -79 15 -58 0 -59 1 -43 19 14 16 15 20 2 30 -11 10 -43 11
-128 4 -62 -4 -120 -8 -128 -8 -10 0 -15 10 -15 35 0 25 -5 36 -17 38 -15 3
-18 -4 -18 -47z m258 -53 c-3 -20 -10 -23 -54 -26 -45 -3 -52 -1 -50 15 2 26
15 33 64 33 39 0 43 -2 40 -22z"/>
  <path d="M556 108 c11 -18 127 -88 146 -88 28 0 22 33 -9 52 -35 20 -145 50
-137 36z"/>
</g>
<g id="part-1" class="char-part">
  <path d="M453 593 c4 -21 7 -48 7 -60 0 -16 6 -23 20 -23 15 0 20 7 20 25 0
24 3 25 58 25 63 0 100 14 69 26 -10 3 -37 1 -62 -5 -60 -15 -61 -15 -60 17 0
23 -5 28 -29 30 -28 4 -29 3 -23 -35z"/>
</g>
<g id="part-2" class="char-part">
  <path d="M447 461 c4 -16 -2 -21 -34 -26 -59 -10 -62 -13 -10 -14 26 -1 47 -5
47 -10 0 -29 34 -41 110 -41 82 0 110 6 110 22 0 7 -32 8 -89 3 -65 -5 -91 -4
-96 5 -10 17 10 27 67 35 68 10 62 29 -7 22 -44 -4 -55 -3 -55 9 0 8 -10 14
-24 14 -19 0 -23 -4 -19 -19z"/>
</g>
<g id="part-3" class="char-part">
  <path d="M490 336 l-75 -11 20 -43 c13 -28 24 -41 34 -37 8 3 46 8 85 12 69 6
72 7 87 40 16 32 16 34 -1 43 -22 12 -49 11 -150 -4z m100 -25 c0 -26 -9 -31
-70 -38 -42 -5 -50 -3 -50 11 0 9 0 19 0 24 -1 8 47 19 93 21 21 1 27 -4 27
-18z"/>
</g>
<g id="part-4" class="char-part">
  <path d="M360 241 l0 -51 39 0 c22 0 43 5 46 10 4 6 -6 10 -24 10 -29 0 -30 2
-28 37 1 29 -2 38 -15 41 -15 3 -18 -4 -18 -47z"/>
</g>
<g id="part-5" class="char-part">
  <path d="M473 188 c-6 -7 -14 -29 -18 -48 -4 -19 -14 -43 -23 -53 -24 -27 -8
-30 23 -3 17 15 26 30 22 40 -3 8 -1 18 5 22 7 4 8 3 4 -4 -4 -7 -3 -12 2 -12
6 0 12 7 16 15 3 8 0 15 -6 15 -7 0 -6 5 2 15 7 9 10 18 6 22 -3 3 -6 0 -6 -8
0 -11 -2 -11 -9 -1 -6 11 -10 11 -18 0z"/>
  <path d="M680 160 c-8 -5 -39 -7 -67 -3 -30 3 -53 2 -53 -3 0 -5 41 -11 91
-12 62 -2 89 0 84 7 -9 15 8 14 23 -1 6 -6 15 -8 19 -4 21 21 -67 35 -97 16z"/>
  <path d="M390 139 c10 -6 -2 -7 -39 -3 -40 5 -52 4 -47 -5 8 -13 91 -14 121
-1 22 10 22 10 -20 15 -22 3 -26 2 -15 -6z"/>
  <path d="M605 79 c16 -13 33 -23 37 -22 5 2 17 -6 28 -17 24 -24 37 -26 37 -5
0 8 -4 15 -9 15 -5 0 -7 4 -3 10 3 5 -14 14 -37 20 -24 6 -52 14 -63 17 -15 4
-12 -1 10 -18z"/>
  <path d="M370 40 c-19 -11 -28 -19 -20 -20 9 0 25 7 36 15 12 8 25 11 29 7 5
-4 5 -1 1 6 -4 6 -8 12 -9 12 -1 -1 -18 -9 -37 -20z"/>
</g>
</g>
</svg>