<?xml version="1.0" standalone="no"?>
<!DOCTYPE svg PUBLIC "-//W3C//DTD SVG 20010904//EN"
 "http://www.w3.org/TR/2001/REC-SVG-20010904/DTD/svg10.dtd">
<svg version="1.0" xmlns="http://www.w3.org/2000/svg"
 width="96.000000pt" height="68.000000pt" viewBox="0 0 96.000000 68.000000"
 preserveAspectRatio="xMidYMid meet">
<metadata>
Created by potrace 1.16, written by Peter Selinger 2001-2019
Combined from part_0.svg through part_5.svg with named groups
</metadata>
<g transform="translate(0.000000,68.000000) scale(0.100000,-0.100000)" fill="#000000" stroke="none">
<g id="part-0" class="char-part">
  <path d="M407 603 c-2 -5 -1 -35 4 -68 4 -33 8 -85 8 -115 l1 -55 -67 -5 c-38
-2 -93 -4 -124 -4 l-56 1 13 -45 c8 -25 14 -78 14 -117 0 -54 4 -76 16 -86 27
-22 34 8 28 117 l-7 102 49 6 c75 9 301 26 355 26 l49 0 0 -71 c0 -38 -5 -91
-11 -116 l-12 -45 -43 6 c-24 3 -44 2 -44 -2 0 -5 15 -23 34 -41 64 -62 107
-17 129 134 8 55 17 107 21 115 4 11 -3 21 -25 34 -31 19 -56 18 -212 0 l-49
-6 3 113 4 113 -25 7 c-35 10 -48 10 -53 2z"/>
  <path d="M610 551 c0 -5 -21 -32 -46 -60 -25 -28 -40 -51 -32 -51 30 0 152 58
166 78 13 20 13 22 0 17 -8 -3 -21 1 -28 10 -13 16 -60 21 -60 6z"/>
  <path d="M250 498 c0 -24 51 -78 74 -78 47 0 38 57 -11 79 -31 14 -63 14 -63
-1z"/>
  <path d="M465 290 c-11 -5 -49 -9 -85 -10 -36 -1 -60 -4 -53 -6 6 -3 19 -27
28 -55 17 -49 36 -72 43 -51 2 8 27 12 67 12 62 0 64 1 70 29 3 16 13 35 21
42 43 35 -28 66 -91 39z m33 -52 c-3 -32 -5 -33 -52 -36 -50 -3 -66 6 -66 40
0 17 21 23 88 27 32 1 33 0 30 -31z"/>
</g>
<g id="part-1" class="char-part">
  <path d="M406 583 c5 -10 10 -62 12 -115 3 -94 4 -98 26 -98 22 0 23 4 29 107
7 117 4 123 -47 123 -23 0 -27 -3 -20 -17z"/>
  <path d="M600 525 c-12 -19 -35 -45 -52 -57 -18 -12 -27 -23 -22 -25 14 -5
164 64 164 76 0 10 -44 41 -59 41 -5 0 -19 -16 -31 -35z"/>
  <path d="M263 484 c32 -62 87 -83 87 -35 0 23 -30 46 -73 57 l-29 7 15 -29z"/>
</g>
<g id="part-2" class="char-part">
  <path d="M615 384 c-55 -10 -394 -32 -417 -27 -33 6 -33 6 -13 -40 9 -21 15
-67 15 -111 0 -82 6 -106 25 -106 21 0 25 24 18 129 l-6 99 54 6 c86 10 308
26 355 26 l44 0 0 -76 c0 -102 -16 -154 -46 -154 -12 0 -34 4 -48 10 -14 5
-26 6 -26 2 0 -15 76 -82 92 -82 36 0 65 60 81 165 8 55 18 108 22 117 13 33
-69 56 -150 42z"/>
</g>
<g id="part-3" class="char-part">
  <path d="M465 290 c-11 -5 -49 -9 -85 -10 -36 -1 -59 -4 -53 -7 7 -2 20 -29
29 -59 15 -52 26 -65 39 -44 3 6 34 10 68 10 l62 1 24 51 c19 41 21 52 10 59
-17 11 -68 10 -94 -1z m33 -52 c-3 -32 -4 -33 -55 -36 -29 -2 -53 1 -53 5 0 4
-3 18 -6 30 -5 19 -1 22 28 26 87 10 90 10 86 -25z"/>
</g>
</g>
</svg>