<?xml version="1.0" standalone="no"?>
<!DOCTYPE svg PUBLIC "-//W3C//DTD SVG 20010904//EN"
 "http://www.w3.org/TR/2001/REC-SVG-20010904/DTD/svg10.dtd">
<svg version="1.0" xmlns="http://www.w3.org/2000/svg"
 width="96.000000pt" height="68.000000pt" viewBox="0 0 96.000000 68.000000"
 preserveAspectRatio="xMidYMid meet">
<metadata>
Created by potrace 1.16, written by Peter Selinger 2001-2019
Combined from part_0.svg through part_5.svg with named groups
</metadata>
<g transform="translate(0.000000,68.000000) scale(0.100000,-0.100000)" fill="#000000" stroke="none">
<g id="part-0" class="char-part">
  <path d="M425 588 c-116 -12 -137 -16 -130 -28 3 -6 35 -10 69 -10 57 0 64 -2
69 -22 3 -12 4 -26 0 -30 -3 -5 -52 -8 -110 -7 l-106 3 -18 -35 c-10 -19 -18
-44 -19 -56 0 -47 52 -15 65 40 7 25 11 27 59 27 28 0 68 3 88 6 l37 6 3 -73
c2 -58 6 -74 18 -74 12 0 16 17 20 75 l5 75 99 8 c55 4 101 5 104 2 3 -3 -4
-18 -16 -34 l-21 -29 32 8 c18 4 49 11 70 15 45 7 46 17 5 46 -33 24 -35 24
-185 11 -81 -8 -83 -7 -83 14 0 25 9 29 83 39 48 6 60 18 31 29 -18 7 -48 6
-169 -6z"/>
  <path d="M550 445 c-29 -31 -23 -38 21 -24 44 15 44 16 29 34 -17 20 -23 19
-50 -10z"/>
  <path d="M310 427 c8 -8 26 -18 38 -22 20 -6 23 -4 20 12 -2 12 -14 19 -38 21
-31 3 -33 2 -20 -11z"/>
  <path d="M309 362 c-35 -11 -54 -22 -52 -29 3 -7 9 -13 14 -13 19 0 109 42
109 51 0 11 -3 11 -71 -9z"/>
  <path d="M520 375 c0 -6 68 -35 81 -35 15 0 10 28 -7 34 -19 7 -74 8 -74 1z"/>
  <path d="M505 309 c-27 -4 -85 -11 -128 -14 -46 -4 -75 -11 -71 -17 3 -5 25
-8 48 -6 35 2 41 0 44 -17 5 -40 -13 -50 -95 -52 -69 -2 -78 -4 -74 -20 2 -10
5 -44 8 -76 3 -40 9 -57 19 -57 11 0 14 16 14 64 l0 63 42 6 c23 3 46 3 50 1
4 -3 8 -31 8 -63 0 -45 3 -58 15 -58 11 0 15 12 15 41 0 71 8 86 46 86 l34 0
0 -62 c0 -60 12 -100 25 -86 4 3 9 40 12 82 l6 77 71 -3 71 -3 3 -31 c5 -52
-13 -84 -48 -84 -36 0 -38 -9 -7 -38 29 -27 49 -28 72 -2 19 21 47 143 38 167
-9 22 -49 26 -161 14 -59 -6 -118 -11 -131 -11 l-24 0 21 23 c12 13 22 28 22
34 0 6 33 14 75 18 41 4 75 11 75 16 0 5 -4 9 -9 9 -5 0 -15 2 -23 4 -7 2 -35
0 -63 -5z"/>
</g>
<g id="part-1" class="char-part">
  <path d="M500 589 c-25 -4 -81 -11 -124 -15 -86 -7 -88 -24 -2 -24 65 0 226
22 226 31 0 6 -39 20 -50 18 -3 -1 -25 -5 -50 -10z"/>
</g>
<g id="part-2" class="char-part">
  <path d="M515 505 c-131 -17 -272 -19 -281 -3 -9 14 -53 -68 -54 -100 0 -19 5
-23 22 -20 17 2 27 15 37 44 l14 41 91 6 c50 4 144 11 209 18 65 6 121 8 125
5 3 -4 -5 -20 -18 -38 -20 -28 -21 -31 -4 -24 10 4 41 12 68 17 27 5 52 12 55
15 3 3 -7 17 -22 30 -33 28 -78 30 -242 9z"/>
</g>
<g id="part-3" class="char-part">
  <path d="M500 309 c-25 -4 -80 -11 -123 -14 -82 -7 -97 -25 -21 -25 45 0 46 0
39 -30 -4 -16 -3 -30 2 -30 13 0 53 44 53 57 0 6 33 14 75 18 77 7 102 18 62
29 -25 7 -26 7 -87 -5z"/>
</g>
<g id="part-4" class="char-part">
  <path d="M540 219 c-41 -4 -130 -9 -198 -11 -118 -3 -123 -4 -116 -23 3 -11 8
-46 11 -77 4 -40 10 -58 19 -58 10 0 14 16 14 64 l0 64 68 8 c37 4 125 7 197
8 l130 1 3 -37 c5 -56 -13 -81 -53 -76 l-32 4 21 -33 c42 -65 89 -34 112 74
18 85 19 78 -11 91 -29 13 -54 13 -165 1z"/>
</g>
<g id="part-5" class="char-part">
  <path d="M494 166 c3 -33 16 -46 16 -18 0 12 0 25 1 29 0 4 -4 9 -10 11 -5 2
-9 -8 -7 -22z"/>
  <path d="M490 105 c0 -8 5 -15 10 -15 6 0 10 7 10 15 0 8 -4 15 -10 15 -5 0
-10 -7 -10 -15z"/>
  <path d="M491 64 c0 -11 3 -14 6 -6 3 7 2 16 -1 19 -3 4 -6 -2 -5 -13z"/>
</g>
</g>
</svg>