<?xml version="1.0" standalone="no"?>
<!DOCTYPE svg PUBLIC "-//W3C//DTD SVG 20010904//EN"
 "http://www.w3.org/TR/2001/REC-SVG-20010904/DTD/svg10.dtd">
<svg version="1.0" xmlns="http://www.w3.org/2000/svg"
 width="96.000000pt" height="68.000000pt" viewBox="0 0 96.000000 68.000000"
 preserveAspectRatio="xMidYMid meet">
<metadata>
Created by potrace 1.16, written by Peter Selinger 2001-2019
Combined from part_0.svg through part_5.svg with named groups
</metadata>
<g transform="translate(0.000000,68.000000) scale(0.100000,-0.100000)" fill="#000000" stroke="none">
<g id="part-0" class="char-part">
  <path d="M639 573 c-19 -19 -50 -43 -69 -53 -26 -14 -30 -19 -15 -19 25 0 158
71 157 84 0 5 -9 12 -20 16 -15 6 -28 -1 -53 -28z"/>
  <path d="M380 589 c-19 -5 -54 -6 -78 -3 l-42 5 7 -58 c11 -88 10 -118 -4
-116 -7 2 -13 -2 -13 -8 0 -5 -5 -7 -10 -4 -17 11 -111 -5 -104 -17 4 -7 34
-8 81 -4 l74 7 -17 -26 c-9 -14 -25 -30 -35 -36 -11 -5 -19 -17 -19 -26 0 -17
4 -17 124 16 61 17 81 19 92 10 11 -9 18 -9 26 -1 9 9 7 17 -7 32 -20 23 -55
27 -55 7 0 -14 -61 -37 -95 -37 -17 0 -16 2 4 23 12 14 19 31 16 39 -5 13 7
17 74 23 48 4 78 11 75 17 -4 6 -35 7 -80 3 -48 -5 -74 -4 -74 3 0 13 24 22
60 22 40 0 90 11 90 20 0 15 -26 17 -83 7 -57 -10 -84 -4 -57 13 8 6 34 10 57
10 46 0 73 8 73 21 0 11 -53 11 -102 0 -29 -7 -38 -6 -38 4 0 8 27 17 77 24
84 12 95 17 73 31 -18 11 -43 11 -90 -1z"/>
  <path d="M653 497 c-12 -13 -42 -34 -67 -48 -25 -13 -46 -27 -46 -31 0 -9 90
23 149 52 42 21 44 23 26 36 -26 19 -36 17 -62 -9z"/>
  <path d="M650 400 c-19 -16 -39 -30 -45 -30 -5 -1 -28 -10 -50 -21 l-40 -19
35 6 c45 8 190 65 190 74 0 9 -25 20 -43 20 -7 0 -28 -14 -47 -30z"/>
  <path d="M470 290 c-19 -10 -68 -26 -107 -36 -40 -9 -73 -18 -73 -21 0 -2 26
-3 57 -1 47 2 58 0 61 -14 3 -13 -9 -18 -63 -23 -36 -4 -68 -12 -72 -18 -4 -7
15 -8 60 -4 61 6 67 5 67 -13 0 -23 -13 -27 -114 -36 -44 -4 -91 -10 -105 -14
l-26 -7 29 -8 c17 -5 69 -3 118 4 49 6 93 9 97 6 5 -2 11 -18 14 -34 8 -39 47
-52 178 -58 107 -5 158 3 206 33 l23 14 -28 50 c-30 56 -42 62 -42 24 0 -15
-12 -38 -29 -55 -28 -28 -33 -29 -118 -29 -115 0 -163 13 -163 44 0 26 9 28
168 42 39 4 72 10 72 15 0 17 -40 18 -133 6 -53 -8 -99 -12 -102 -9 -3 3 -5
13 -5 23 0 14 15 20 70 29 39 6 70 17 70 22 0 10 -57 6 -107 -8 -20 -5 -23 -2
-23 19 0 23 5 25 55 32 55 6 74 26 39 39 -24 9 -36 7 -74 -14z"/>
</g>
<g id="part-1" class="char-part">
  <path d="M400 588 c-19 -4 -57 -7 -85 -6 -27 1 -50 -2 -49 -7 0 -6 4 -43 8
-82 7 -62 11 -73 27 -73 12 0 19 7 19 19 0 16 10 20 65 26 36 4 68 12 72 18 6
9 -93 2 -124 -10 -8 -3 -13 2 -13 15 0 16 9 20 62 26 62 6 76 11 65 22 -3 3
-31 0 -62 -6 -38 -8 -60 -9 -67 -2 -17 17 1 32 36 32 52 0 126 12 126 20 0 12
-42 17 -80 8z"/>
</g>
<g id="part-2" class="char-part">
  <path d="M669 413 c-8 -9 -45 -31 -84 -49 -82 -39 -67 -44 31 -10 124 43 146
58 102 70 -32 8 -34 8 -49 -11z"/>
</g>
<g id="part-3" class="char-part">
  <path d="M479 295 c-15 -8 -62 -24 -105 -36 -44 -12 -81 -23 -84 -26 -8 -8
110 7 185 24 78 18 98 29 75 43 -21 13 -40 12 -71 -5z"/>
</g>
<g id="part-4" class="char-part">
  <path d="M416 243 c-3 -4 -6 -14 -6 -23 0 -14 -16 -20 -75 -29 -41 -7 -75 -15
-75 -18 0 -3 31 -3 69 1 56 5 70 3 75 -9 8 -21 -19 -32 -104 -39 -41 -4 -91
-11 -110 -15 l-35 -8 30 -8 c17 -5 66 -3 117 4 48 7 97 9 109 6 13 -4 24 -2
29 5 4 7 55 16 124 22 64 6 116 15 116 19 0 16 -39 19 -106 9 -108 -15 -134
-13 -134 9 0 17 12 21 75 32 44 7 72 16 68 22 -5 9 -62 5 -110 -9 -17 -5 -23
-2 -23 9 0 16 -24 30 -34 20z"/>
</g>
<g id="part-5" class="char-part">
  <path d="M758 123 c17 -7 -50 -72 -75 -74 -138 -11 -225 -1 -241 28 -5 9 -14
13 -21 9 -17 -11 -13 -29 5 -22 11 4 15 2 11 -8 -4 -11 -1 -13 10 -9 12 5 14
3 8 -7 -6 -10 -4 -12 8 -7 9 3 19 1 23 -4 4 -7 21 -8 41 -4 19 3 33 2 30 -2
-5 -7 73 -7 171 -1 6 1 12 6 12 11 0 5 7 7 15 3 8 -3 14 0 12 6 -1 6 4 13 12
16 8 3 11 0 7 -7 -4 -6 -3 -11 2 -11 16 0 23 32 11 46 -9 11 -15 12 -28 2 -13
-10 -14 -10 -3 2 17 20 15 40 -5 39 -12 0 -13 -2 -5 -6z m-51 -89 c-3 -3 -12
-4 -19 -1 -8 3 -5 6 6 6 11 1 17 -2 13 -5z"/>
</g>
</g>
</svg>