<?xml version="1.0" standalone="no"?>
<!DOCTYPE svg PUBLIC "-//W3C//DTD SVG 20010904//EN"
 "http://www.w3.org/TR/2001/REC-SVG-20010904/DTD/svg10.dtd">
<svg version="1.0" xmlns="http://www.w3.org/2000/svg"
 width="96.000000pt" height="68.000000pt" viewBox="0 0 96.000000 68.000000"
 preserveAspectRatio="xMidYMid meet">
<metadata>
Created by potrace 1.16, written by Peter Selinger 2001-2019
Combined from part_0.svg through part_5.svg with named groups
</metadata>
<g transform="translate(0.000000,68.000000) scale(0.100000,-0.100000)" fill="#000000" stroke="none">
<g id="part-0" class="char-part">
  <path d="M370 554 c-6 -15 -24 -44 -41 -65 -37 -47 -23 -51 25 -8 28 24 43 30
71 27 35 -3 35 -4 20 -25 -13 -19 -19 -21 -35 -11 -28 18 -38 -1 -12 -21 21
-15 22 -19 8 -30 -11 -9 -20 -10 -35 -2 -11 6 -28 11 -38 11 -15 -1 -12 -5 11
-24 l29 -24 -28 -23 c-16 -13 -42 -37 -59 -52 l-31 -29 51 29 c69 39 81 49
142 120 l54 63 31 -22 c18 -12 64 -53 104 -90 67 -63 75 -68 115 -67 47 0 87
12 72 21 -5 3 -31 13 -59 22 -27 9 -76 33 -108 55 l-58 38 33 29 c18 16 47 39
63 51 25 19 28 24 15 33 -15 10 -28 10 -117 -5 -57 -10 -55 -25 2 -25 49 0 50
-4 11 -53 -13 -17 -15 -17 -50 0 -19 10 -36 26 -36 35 0 22 -33 32 -77 23 -30
-5 -35 -4 -30 9 4 10 -1 20 -13 26 -17 9 -22 7 -30 -16z"/>
  <path d="M197 554 c-15 -8 -40 -13 -55 -12 -20 2 -26 -1 -23 -12 12 -47 12
-127 2 -270 -10 -127 -10 -164 0 -176 25 -31 32 9 38 217 l6 213 29 7 c37 10
39 8 26 -26 -8 -22 -7 -31 5 -45 8 -9 18 -30 21 -47 5 -27 3 -32 -17 -35 -23
-3 -23 -3 6 -22 20 -13 33 -16 44 -9 25 16 24 40 -3 76 -34 45 -33 61 9 94 19
15 35 33 35 39 0 27 -79 32 -123 8z"/>
  <path d="M470 345 l-55 -13 72 -1 c74 -1 103 5 103 20 0 12 -53 9 -120 -6z"/>
  <path d="M463 268 c-156 -23 -195 -44 -64 -35 l79 5 6 -30 c15 -75 5 -128 -25
-128 -27 0 -24 -17 7 -37 25 -16 27 -16 45 8 15 19 19 42 19 111 l0 87 80 3
c57 2 77 6 72 15 -13 21 -76 21 -219 1z"/>
  <path d="M610 193 c0 -14 82 -93 96 -93 21 0 29 28 13 46 -22 26 -109 64 -109
47z"/>
  <path d="M327 135 c-27 -30 -44 -55 -39 -55 22 0 122 76 120 90 -6 31 -34 18
-81 -35z"/>
</g>
<g id="part-1" class="char-part">
  <path d="M198 552 c-49 -22 -48 -34 2 -26 l40 7 -11 -32 c-6 -18 -9 -34 -7
-36 2 -3 26 15 52 40 l48 45 -26 10 c-35 13 -53 12 -98 -8z"/>
</g>
<g id="part-2" class="char-part">
  <path d="M122 510 c7 -28 7 -96 -1 -224 -11 -182 -9 -220 13 -213 18 6 26 110
24 297 -3 171 -4 175 -25 178 -20 3 -21 1 -11 -38z"/>
</g>
<g id="part-3" class="char-part">
  <path d="M365 550 c-4 -16 -10 -32 -15 -35 -17 -11 -51 -65 -41 -65 6 0 26 14
44 30 25 22 45 30 71 30 34 0 36 -2 26 -20 -9 -17 -18 -20 -48 -15 l-37 6 28
-24 c26 -22 27 -24 10 -39 -15 -14 -20 -14 -31 -2 -7 8 -23 14 -35 14 -21 -1
-21 -1 5 -25 l27 -23 -32 -29 c-18 -15 -46 -38 -62 -51 l-30 -23 39 16 c59 23
110 65 177 145 73 87 73 106 -2 97 -32 -4 -47 -3 -43 4 7 12 -14 39 -31 39 -8
0 -16 -13 -20 -30z"/>
</g>
<g id="part-4" class="char-part">
  <path d="M536 468 c16 -12 61 -52 100 -90 67 -63 75 -68 115 -67 84 1 87 13
11 42 -38 15 -102 52 -143 82 -40 30 -81 55 -92 55 -17 0 -15 -3 9 -22z"/>
</g>
<g id="part-5" class="char-part">
  <path d="M491 170 c1 -43 6 -67 12 -63 5 3 8 0 5 -8 -3 -8 -16 -16 -29 -19
-13 -3 -25 -11 -27 -19 -3 -12 -1 -12 13 -1 13 11 15 11 13 1 -2 -8 5 -15 15
-16 9 -2 15 1 11 6 -3 5 -1 9 5 9 13 0 19 163 6 172 -22 16 -26 5 -24 -62z"/>
  <path d="M364 169 c-9 -10 -13 -19 -8 -19 5 0 -7 -14 -26 -31 -27 -24 -29 -28
-10 -18 14 7 30 19 37 28 7 9 13 12 13 7 0 -11 40 24 40 34 0 18 -30 17 -46
-1z"/>
  <path d="M635 181 c-2 -5 14 -26 36 -46 32 -28 43 -34 50 -24 5 9 -1 22 -19
40 -31 29 -59 42 -67 30z"/>
</g>
</g>
</svg>