<?xml version="1.0" standalone="no"?>
<!DOCTYPE svg PUBLIC "-//W3C//DTD SVG 20010904//EN"
 "http://www.w3.org/TR/2001/REC-SVG-20010904/DTD/svg10.dtd">
<svg version="1.0" xmlns="http://www.w3.org/2000/svg"
 width="96.000000pt" height="68.000000pt" viewBox="0 0 96.000000 68.000000"
 preserveAspectRatio="xMidYMid meet">
<metadata>
Created by potrace 1.16, written by Peter Selinger 2001-2019
Combined from part_0.svg through part_5.svg with named groups
</metadata>
<g transform="translate(0.000000,68.000000) scale(0.100000,-0.100000)" fill="#000000" stroke="none">
<g id="part-0" class="char-part">
  <path d="M436 583 c11 -24 17 -301 9 -381 -6 -60 -8 -63 -28 -57 -72 22 -74
20 -22 -34 93 -96 115 -64 116 171 0 154 7 231 23 270 9 20 -38 48 -80 48 -21
0 -25 -3 -18 -17z"/>
  <path d="M240 353 c-11 -25 -37 -66 -57 -91 -31 -38 -33 -43 -12 -32 29 15
139 121 139 134 0 9 -30 35 -42 36 -4 0 -16 -21 -28 -47z"/>
  <path d="M696 310 c70 -86 104 -103 104 -52 -1 36 -34 74 -92 106 -81 45 -84
32 -12 -54z"/>
</g>
<g id="part-1" class="char-part">
  <path d="M446 569 c10 -39 11 -360 1 -402 -8 -29 -42 -38 -65 -15 -6 6 -14 9
-17 7 -6 -6 85 -99 96 -99 5 0 15 10 23 23 10 16 15 74 19 212 4 107 11 207
18 228 15 45 3 63 -50 73 l-34 7 9 -34z"/>
</g>
<g id="part-2" class="char-part">
  <path d="M250 385 c0 -26 -36 -88 -69 -119 -43 -41 -39 -52 9 -25 40 22 120
108 120 128 0 11 -32 31 -49 31 -6 0 -11 -7 -11 -15z"/>
  <path d="M632 391 c1 -5 31 -43 66 -85 68 -83 102 -99 102 -48 0 44 -62 100
-146 132 -14 6 -24 6 -22 1z"/>
</g>
</g>
</svg>