<?xml version="1.0" standalone="no"?>
<!DOCTYPE svg PUBLIC "-//W3C//DTD SVG 20010904//EN"
 "http://www.w3.org/TR/2001/REC-SVG-20010904/DTD/svg10.dtd">
<svg version="1.0" xmlns="http://www.w3.org/2000/svg"
 width="96.000000pt" height="68.000000pt" viewBox="0 0 96.000000 68.000000"
 preserveAspectRatio="xMidYMid meet">
<metadata>
Created by potrace 1.16, written by Peter Selinger 2001-2019
Combined from part_0.svg through part_5.svg with named groups
</metadata>
<g transform="translate(0.000000,68.000000) scale(0.100000,-0.100000)" fill="#000000" stroke="none">
<g id="part-0" class="char-part">
  <path d="M588 506 l4 -83 -32 -7 c-18 -3 -44 -6 -59 -6 l-26 0 0 -129 c0 -130
5 -155 27 -133 18 18 38 14 38 -7 0 -10 -22 -39 -50 -65 -27 -25 -44 -46 -37
-46 17 0 157 90 157 102 0 5 -7 11 -15 14 -32 13 0 24 67 24 51 0 74 -4 82
-15 25 -34 35 1 40 138 l4 137 -25 6 c-13 4 -49 4 -79 0 l-54 -6 0 34 c0 31 3
34 38 40 20 3 49 6 65 6 18 0 27 5 27 16 0 13 -7 14 -42 8 -74 -13 -83 -11
-83 14 0 22 -19 42 -41 42 -7 0 -9 -28 -6 -84z m137 -126 c0 -24 -3 -25 -80
-32 -44 -4 -90 -9 -102 -11 -20 -4 -23 0 -23 24 0 29 4 32 70 43 14 2 50 3 80
2 52 -1 55 -3 55 -26z m9 -91 c-2 -3 -32 -9 -66 -13 -35 -3 -82 -9 -105 -12
-43 -7 -43 -6 -43 25 0 31 1 31 53 32 28 0 75 4 102 7 44 6 51 5 56 -13 3 -11
4 -23 3 -26z m-4 -53 c0 -33 0 -33 -57 -39 -32 -4 -79 -9 -105 -13 l-48 -7 0
32 c0 29 2 31 38 32 30 1 160 22 170 28 1 0 2 -14 2 -33z"/>
  <path d="M280 542 c0 -17 63 -61 91 -64 18 -2 25 2 27 18 2 11 -3 26 -11 32
-20 17 -107 28 -107 14z"/>
  <path d="M315 413 c-22 -8 -68 -17 -103 -20 -39 -4 -61 -10 -59 -17 6 -19 44
-18 122 4 42 12 79 19 82 16 12 -11 -141 -181 -202 -224 -19 -14 -24 -21 -14
-22 20 0 101 54 137 91 15 16 31 29 36 29 5 0 7 -46 4 -105 -4 -74 -2 -109 7
-121 25 -35 35 -5 35 107 0 108 5 124 30 93 8 -8 22 -20 32 -25 15 -8 18 -6
18 11 0 16 -13 27 -47 42 -27 11 -50 22 -52 25 -3 2 17 26 44 53 41 42 46 51
35 65 -15 18 -51 18 -105 -2z"/>
  <path d="M690 99 c93 -80 138 -95 128 -43 -4 23 -100 74 -137 74 -26 -1 -26
-1 9 -31z"/>
</g>
<g id="part-1" class="char-part">
  <path d="M313 514 c39 -36 82 -44 82 -14 0 18 -61 50 -95 50 -24 -1 -24 -2 13
-36z"/>
</g>
<g id="part-2" class="char-part">
  <path d="M327 347 c-26 -37 -123 -134 -168 -166 -32 -24 -37 -31 -22 -31 21 0
143 76 143 88 0 4 9 13 21 20 20 13 20 12 17 -102 -2 -84 0 -118 10 -128 23
-23 32 11 32 125 0 59 3 107 8 107 4 0 18 -12 31 -26 13 -13 29 -23 35 -21 21
7 11 31 -19 46 -16 9 -41 22 -53 29 l-24 14 22 23 c22 23 22 23 2 34 -16 9
-23 7 -35 -12z"/>
</g>
<g id="part-3" class="char-part">
  <path d="M588 508 c2 -46 6 -84 7 -86 1 -1 10 0 19 4 10 4 16 18 16 39 l0 33
68 8 c37 5 66 14 64 19 -3 11 -42 12 -89 2 -31 -6 -33 -5 -33 22 0 17 -6 31
-16 35 -38 15 -41 9 -36 -76z"/>
</g>
<g id="part-4" class="char-part">
  <path d="M600 424 c-47 -8 -95 -13 -108 -10 -18 3 -22 0 -16 -13 4 -9 6 -58 6
-108 -1 -78 2 -93 14 -93 9 0 18 8 21 18 4 16 21 21 98 30 121 15 126 15 119
-3 -5 -11 1 -15 19 -15 24 0 24 2 30 93 8 127 2 131 -183 101z m128 -46 c3
-25 1 -26 -45 -26 -27 -1 -68 -5 -93 -11 -66 -15 -70 -14 -70 19 0 26 4 30 38
35 20 4 42 8 47 10 6 2 35 3 65 2 52 -2 55 -4 58 -29z m5 -84 c-2 -6 -30 -14
-61 -17 -31 -3 -80 -9 -108 -13 l-51 -6 5 31 c4 30 6 31 56 32 28 0 74 4 101
7 40 6 51 4 56 -8 3 -8 4 -20 2 -26z"/>
</g>
<g id="part-5" class="char-part">
  <path d="M541 124 c-5 -13 -21 -30 -35 -39 -13 -9 -27 -24 -31 -33 -4 -12 0
-10 15 6 12 12 26 19 32 16 7 -4 8 -2 4 4 -6 10 8 18 17 10 6 -6 35 27 30 34
-2 4 4 5 13 1 12 -4 15 -2 12 8 -8 23 -45 19 -57 -7z"/>
  <path d="M694 106 c10 -6 31 -21 46 -33 15 -12 30 -19 34 -15 4 4 6 1 4 -7 -3
-15 29 -24 38 -10 6 11 -45 61 -56 54 -4 -3 -13 1 -19 9 -6 7 -24 13 -39 13
-24 0 -25 -1 -8 -11z"/>
</g>
</g>
</svg>