<?xml version="1.0" standalone="no"?>
<!DOCTYPE svg PUBLIC "-//W3C//DTD SVG 20010904//EN"
 "http://www.w3.org/TR/2001/REC-SVG-20010904/DTD/svg10.dtd">
<svg version="1.0" xmlns="http://www.w3.org/2000/svg"
 width="96.000000pt" height="68.000000pt" viewBox="0 0 96.000000 68.000000"
 preserveAspectRatio="xMidYMid meet">
<metadata>
Created by potrace 1.16, written by Peter Selinger 2001-2019
Combined from part_0.svg through part_5.svg with named groups
</metadata>
<g transform="translate(0.000000,68.000000) scale(0.100000,-0.100000)" fill="#000000" stroke="none">
<g id="part-0" class="char-part">
  <path d="M200 554 c6 -14 10 -57 10 -95 0 -69 0 -69 -27 -69 -40 0 -74 -11
-67 -21 3 -5 25 -9 50 -9 l44 0 0 -63 c0 -71 -2 -73 -90 -97 -41 -11 -41 -12
-24 -31 9 -10 26 -19 37 -19 25 0 237 118 237 132 0 10 -30 3 -72 -18 -15 -8
-29 -14 -33 -14 -3 0 -5 24 -5 54 0 57 7 66 53 66 12 0 29 5 37 10 13 9 13 11
0 20 -8 5 -30 10 -47 10 -32 0 -33 1 -33 43 0 23 4 56 9 73 10 36 -9 54 -59
54 -28 0 -29 -2 -20 -26z"/>
  <path d="M609 566 c-2 -2 -56 -12 -119 -21 -63 -9 -119 -21 -125 -26 -9 -9 19
-14 59 -9 17 2 18 -3 12 -62 -4 -34 -16 -88 -27 -118 -11 -30 -21 -59 -22 -64
-2 -10 -29 -43 -81 -102 -43 -49 -29 -61 19 -15 60 57 94 105 115 164 5 15 16
27 24 27 20 0 77 -51 99 -88 l17 -30 -37 -31 c-21 -17 -69 -45 -108 -61 l-70
-31 49 6 c54 7 146 46 166 70 7 8 16 15 21 15 5 0 33 -25 62 -55 49 -51 56
-55 98 -54 24 1 55 4 69 9 23 7 20 9 -35 34 -76 35 -155 85 -155 99 0 5 18 42
40 80 23 39 39 76 36 84 -3 8 -22 13 -51 13 l-45 0 19 38 c11 21 27 44 35 51
23 19 20 37 -10 60 -25 20 -46 26 -55 17z m-4 -73 c-4 -20 -15 -54 -25 -74
-17 -32 -25 -37 -62 -41 -24 -3 -45 -3 -47 -1 -3 2 3 28 13 59 13 42 15 59 6
69 -12 14 8 20 89 23 33 2 33 2 26 -35z m35 -135 c0 -19 -32 -98 -40 -98 -15
0 -82 82 -74 90 8 8 36 13 97 18 9 1 17 -3 17 -10z"/>
</g>
<g id="part-1" class="char-part">
  <path d="M204 559 c4 -13 9 -56 13 -95 l6 -71 -52 -7 c-63 -8 -67 -26 -6 -26
l45 0 0 -68 0 -69 -60 -19 c-33 -10 -60 -22 -60 -26 0 -13 41 -30 58 -23 41
15 214 119 204 123 -6 2 -24 -4 -41 -12 -59 -31 -69 -20 -55 66 6 35 9 38 50
44 24 3 44 10 44 15 0 12 -46 23 -65 15 -24 -9 -29 20 -17 87 7 34 8 65 4 69
-4 4 -23 11 -41 14 -32 7 -34 6 -27 -17z"/>
</g>
<g id="part-2" class="char-part">
  <path d="M481 546 c-113 -18 -131 -23 -118 -34 13 -11 34 -10 122 4 126 21
135 17 112 -48 -8 -24 -18 -51 -22 -60 -6 -14 -2 -18 18 -18 17 0 28 7 32 20
4 11 22 40 41 65 l34 45 -28 25 c-31 29 -18 29 -191 1z"/>
</g>
<g id="part-3" class="char-part">
  <path d="M458 513 c-13 -3 -18 -14 -18 -36 0 -42 -35 -168 -61 -219 -12 -23
-41 -62 -65 -88 -52 -56 -56 -68 -13 -43 70 40 133 145 178 292 18 61 20 76 9
86 -7 6 -21 10 -30 8z"/>
</g>
<g id="part-4" class="char-part">
  <path d="M559 385 c-107 -19 -124 -32 -71 -55 15 -6 42 -32 61 -58 l34 -46
-38 -33 c-20 -17 -69 -46 -109 -63 l-71 -31 50 6 c49 7 135 43 166 71 8 8 19
14 23 14 4 0 31 -25 60 -55 48 -51 55 -55 96 -54 25 1 56 4 70 8 22 7 17 11
-54 44 -44 21 -94 49 -112 62 l-33 25 33 58 c18 31 39 67 47 80 12 20 12 24
-1 32 -19 12 -67 11 -151 -5z m81 -27 c0 -20 -32 -98 -40 -98 -12 0 -82 81
-76 87 6 6 68 20 99 22 9 0 17 -4 17 -11z"/>
</g>
</g>
</svg>