<?xml version="1.0" standalone="no"?>
<!DOCTYPE svg PUBLIC "-//W3C//DTD SVG 20010904//EN"
 "http://www.w3.org/TR/2001/REC-SVG-20010904/DTD/svg10.dtd">
<svg version="1.0" xmlns="http://www.w3.org/2000/svg"
 width="96.000000pt" height="68.000000pt" viewBox="0 0 96.000000 68.000000"
 preserveAspectRatio="xMidYMid meet">
<metadata>
Created by potrace 1.16, written by Peter Selinger 2001-2019
Combined from part_0.svg through part_5.svg with named groups
</metadata>
<g transform="translate(0.000000,68.000000) scale(0.100000,-0.100000)" fill="#000000" stroke="none">
<g id="part-0" class="char-part">
  <path d="M294 548 c-10 -50 -67 -132 -141 -203 -36 -36 -64 -68 -60 -71 8 -8
66 24 115 63 34 28 43 31 48 19 5 -13 -6 -128 -22 -236 -7 -45 26 -94 48 -72
19 19 31 332 13 351 -11 11 -5 23 36 73 27 32 49 64 49 69 0 8 -58 39 -74 39
-2 0 -8 -15 -12 -32z"/>
  <path d="M594 520 c-11 -4 -55 -14 -97 -21 -43 -7 -77 -17 -77 -21 0 -13 81
-9 140 7 67 18 70 18 70 2 0 -22 -60 -87 -81 -87 -19 0 -27 -15 -11 -22 5 -1
12 -17 15 -34 l6 -32 -62 -6 c-115 -12 -147 -18 -147 -28 0 -7 37 -8 105 -3
l105 7 0 -54 c0 -29 -3 -70 -7 -91 -6 -38 -7 -39 -44 -35 -46 4 -49 -3 -11
-27 15 -10 31 -24 35 -32 13 -21 35 -15 54 14 15 22 18 46 16 129 l-2 103 62
5 c34 3 88 7 120 10 70 5 77 10 42 28 -22 12 -41 12 -122 1 -53 -7 -98 -11
-100 -9 -2 2 -6 19 -9 38 -6 35 -5 35 70 79 42 24 76 46 76 49 0 3 -13 13 -29
23 -31 18 -82 21 -117 7z"/>
</g>
<g id="part-1" class="char-part">
  <path d="M300 554 c0 -37 -66 -136 -135 -203 -40 -39 -69 -71 -63 -71 17 0 73
33 113 67 l40 34 3 -74 c1 -41 -4 -105 -11 -143 -15 -71 -8 -114 19 -114 22 0
26 17 30 133 3 62 6 130 9 152 2 27 -1 45 -12 57 -15 17 -13 22 30 77 52 66
55 76 28 91 -29 15 -51 12 -51 -6z"/>
</g>
<g id="part-2" class="char-part">
  <path d="M590 519 c-14 -5 -61 -15 -105 -22 -73 -12 -78 -15 -57 -26 20 -11
38 -9 109 9 47 12 87 19 91 16 3 -3 -9 -27 -27 -52 -18 -25 -31 -47 -29 -50 6
-6 168 87 168 97 0 15 -58 39 -92 38 -18 0 -44 -5 -58 -10z"/>
</g>
<g id="part-3" class="char-part">
  <path d="M533 383 c8 -10 17 -29 19 -43 3 -24 0 -25 -62 -33 -141 -17 -150
-18 -144 -29 4 -6 42 -7 110 -3 l104 7 0 -53 c0 -30 -3 -71 -7 -93 -6 -38 -6
-38 -44 -33 -22 3 -39 3 -39 1 0 -9 76 -73 87 -74 7 0 21 12 30 27 15 22 18
46 16 130 -1 57 1 103 5 104 4 0 57 4 119 8 109 7 134 13 119 29 -10 9 -127 9
-193 -1 l-51 -7 -7 32 c-9 38 -20 48 -54 48 -22 0 -23 -1 -8 -17z"/>
</g>
</g>
</svg>