<?xml version="1.0" standalone="no"?>
<!DOCTYPE svg PUBLIC "-//W3C//DTD SVG 20010904//EN"
 "http://www.w3.org/TR/2001/REC-SVG-20010904/DTD/svg10.dtd">
<svg version="1.0" xmlns="http://www.w3.org/2000/svg"
 width="96.000000pt" height="68.000000pt" viewBox="0 0 96.000000 68.000000"
 preserveAspectRatio="xMidYMid meet">
<metadata>
Created by potrace 1.16, written by Peter Selinger 2001-2019
Combined from part_0.svg through part_5.svg with named groups
</metadata>
<g transform="translate(0.000000,68.000000) scale(0.100000,-0.100000)" fill="#000000" stroke="none">
<g id="part-0" class="char-part">
  <path d="M550 566 l0 -46 -52 0 c-39 0 -49 -3 -38 -10 8 -6 32 -7 53 -4 38 6
39 5 35 -22 -4 -34 -18 -42 -73 -44 -22 -1 -49 -5 -60 -9 -40 -16 20 -23 102
-12 43 6 133 13 201 17 67 4 122 10 122 15 0 12 -37 21 -83 19 -61 -3 -60 -3
-36 31 29 41 13 52 -63 45 l-57 -6 -3 33 c-2 24 -8 33 -25 35 -21 3 -23 -1
-23 -42z m115 -73 c-8 -32 -21 -43 -52 -43 -27 0 -32 8 -26 43 5 24 10 27 45
27 39 0 40 -1 33 -27z"/>
  <path d="M220 565 c0 -2 10 -25 22 -50 23 -47 46 -57 68 -30 10 12 9 20 -4 40
-19 29 -86 60 -86 40z"/>
  <path d="M200 451 c-58 -9 -105 -20 -105 -25 0 -5 13 -14 29 -19 34 -11 298
32 293 48 -6 16 -103 14 -217 -4z"/>
  <path d="M590 389 c-25 -4 -72 -8 -105 -8 -56 -1 -58 -2 -38 -16 12 -8 24 -28
28 -45 6 -28 8 -29 49 -24 39 6 44 4 49 -17 3 -13 4 -25 1 -28 -2 -3 -31 -7
-63 -9 -52 -4 -58 -6 -53 -24 2 -11 -1 -30 -8 -44 -20 -37 -4 -46 59 -34 30 5
58 10 62 10 5 0 9 -31 9 -70 0 -38 4 -70 10 -70 12 0 30 65 30 108 l0 32 86 0
c64 0 85 3 82 13 -3 8 -32 13 -86 15 -80 3 -82 4 -82 27 0 23 4 25 48 26 26 1
58 4 72 9 22 6 23 8 7 15 -10 4 -40 5 -68 2 -47 -6 -49 -5 -49 18 0 21 6 25
45 31 27 4 45 11 45 20 0 7 10 20 22 28 18 13 19 18 8 31 -14 16 -81 19 -160
4z m98 -31 c-4 -27 -32 -35 -124 -37 -46 -1 -63 3 -67 14 -8 20 4 26 81 35
113 13 114 13 110 -12z m-108 -162 c0 -20 -6 -24 -41 -30 -51 -8 -61 -2 -47
29 9 20 19 25 50 25 33 0 38 -3 38 -24z"/>
  <path d="M258 368 c-51 -11 -65 -28 -23 -28 13 0 48 5 77 11 42 9 49 13 33 20
-24 9 -28 9 -87 -3z"/>
  <path d="M252 298 c-65 -12 -60 -33 7 -23 71 10 91 16 85 26 -6 11 -20 10 -92
-3z"/>
  <path d="M280 223 c-25 -8 -61 -12 -82 -8 -23 3 -38 1 -38 -5 0 -5 7 -10 15
-10 8 0 15 -8 15 -19 0 -10 5 -32 11 -49 10 -30 12 -31 57 -26 82 9 87 11 88
39 1 14 10 35 20 46 32 36 -17 54 -86 32z m35 -45 c-4 -18 -11 -36 -18 -40
-22 -14 -56 -8 -67 11 -18 35 -12 49 23 54 70 9 68 10 62 -25z"/>
</g>
<g id="part-1" class="char-part">
  <path d="M226 548 c26 -45 48 -68 65 -68 27 0 25 44 -3 64 -28 20 -73 22 -62
4z"/>
  <path d="M221 450 c-62 -10 -115 -21 -118 -24 -3 -3 6 -10 20 -15 19 -8 54 -5
129 9 57 11 116 20 131 20 41 0 28 25 -14 27 -19 1 -85 -7 -148 -17z"/>
</g>
<g id="part-2" class="char-part">
  <path d="M280 224 c-28 -9 -62 -12 -90 -8 l-45 6 22 -21 c12 -12 25 -37 29
-56 7 -38 28 -63 39 -45 3 5 26 10 50 10 50 0 82 9 66 19 -7 5 -4 20 9 47 19
37 19 40 3 51 -21 16 -26 15 -83 -3z m33 -22 c3 -4 3 -19 0 -34 -4 -22 -12
-29 -40 -34 -40 -7 -39 -8 -47 33 -7 30 -6 32 26 36 18 2 38 5 45 5 6 1 14 -1
16 -6z"/>
</g>
<g id="part-3" class="char-part">
  <path d="M544 568 l1 -43 -50 -5 c-42 -5 -46 -7 -25 -13 14 -4 36 -6 50 -5 21
3 26 -2 28 -24 5 -38 30 -35 40 5 7 28 13 32 46 35 38 3 39 3 33 -27 -9 -45
21 -41 51 5 30 47 18 57 -60 50 l-57 -6 -3 33 c-2 26 -8 33 -29 35 -24 3 -26
1 -25 -40z"/>
</g>
<g id="part-4" class="char-part">
  <path d="M585 449 c-88 -9 -167 -18 -175 -19 -12 0 -11 -3 3 -11 13 -8 43 -8
100 0 45 6 137 14 205 17 115 7 143 14 106 28 -21 8 -53 6 -239 -15z"/>
</g>
<g id="part-5" class="char-part">
  <path d="M580 275 c0 -7 7 -18 16 -23 11 -6 13 -11 5 -16 -6 -4 -11 -2 -11 4
0 6 -5 8 -10 5 -6 -4 -7 -12 -3 -18 11 -17 10 -51 -2 -60 -6 -4 -3 -13 9 -22
24 -18 37 -19 34 -3 -2 9 13 12 55 9 40 -2 57 1 57 9 0 9 -12 11 -42 7 -54 -7
-77 5 -71 37 4 21 12 25 54 31 27 4 52 12 56 18 4 6 0 8 -10 4 -44 -17 -84
-18 -96 -3 -10 12 -10 16 -2 16 7 0 9 5 6 10 -10 15 -45 12 -45 -5z"/>
  <path d="M464 215 c2 -11 -3 -32 -10 -46 -13 -25 -12 -26 22 -27 18 -1 44 3
56 9 21 9 20 9 -6 5 -31 -4 -61 15 -46 30 4 5 11 18 14 29 5 16 1 21 -14 21
-14 0 -18 -6 -16 -21z"/>
  <path d="M510 230 c0 -5 5 -10 10 -10 6 0 10 5 10 10 0 6 -4 10 -10 10 -5 0
-10 -4 -10 -10z"/>
  <path d="M743 165 c0 -8 4 -15 9 -15 4 0 8 7 8 15 0 8 -4 15 -8 15 -5 0 -9 -7
-9 -15z"/>
  <path d="M580 76 c0 -33 4 -56 11 -56 5 0 7 5 4 10 -3 6 -1 10 5 10 15 0 8 82
-7 88 -9 3 -13 -12 -13 -52z"/>
</g>
</g>
</svg>