<?xml version="1.0" standalone="no"?>
<!DOCTYPE svg PUBLIC "-//W3C//DTD SVG 20010904//EN"
 "http://www.w3.org/TR/2001/REC-SVG-20010904/DTD/svg10.dtd">
<svg version="1.0" xmlns="http://www.w3.org/2000/svg"
 width="96.000000pt" height="68.000000pt" viewBox="0 0 96.000000 68.000000"
 preserveAspectRatio="xMidYMid meet">
<metadata>
Created by potrace 1.16, written by Peter Selinger 2001-2019
Combined from part_0.svg through part_5.svg with named groups
</metadata>
<g transform="translate(0.000000,68.000000) scale(0.100000,-0.100000)" fill="#000000" stroke="none">
<g id="part-0" class="char-part">
  <path d="M530 609 c0 -46 -16 -69 -50 -69 -16 0 -31 -4 -34 -9 -7 -10 16 -21
45 -21 16 0 17 -4 9 -26 -13 -33 -13 -34 5 -34 8 0 15 4 15 9 0 5 13 23 29 40
26 28 35 31 89 31 56 0 84 12 67 28 -3 4 -33 6 -66 6 -42 -1 -57 2 -49 10 18
18 11 46 -16 56 -39 15 -44 13 -44 -21z"/>
  <path d="M265 574 c8 -20 13 -39 10 -42 -2 -3 -33 -8 -67 -11 -67 -6 -77 -18
-35 -39 22 -11 34 -10 73 3 50 17 51 17 69 -17 6 -13 17 -22 23 -21 17 4 4
-21 -19 -38 -67 -46 -81 -59 -68 -59 8 0 27 7 44 16 16 8 37 13 47 11 9 -3 50
1 90 9 81 15 138 18 139 7 0 -5 2 -16 4 -26 4 -24 -22 -126 -37 -145 -11 -13
-21 -13 -63 3 -14 6 -10 -2 14 -28 40 -43 41 -43 68 -20 28 25 38 49 53 123 7
36 17 69 21 75 29 31 -32 59 -98 45 -57 -12 -163 -23 -163 -16 0 3 11 11 25
18 30 16 19 41 -19 41 -14 0 -26 3 -26 7 0 5 -3 15 -6 23 -3 10 5 18 27 26 36
12 32 25 -9 26 -22 0 -28 6 -32 30 -4 26 -10 30 -43 33 l-38 3 16 -37z"/>
  <path d="M340 319 c-19 -5 -53 -8 -74 -7 l-40 3 3 -105 c1 -58 7 -110 12 -116
5 -7 33 -22 62 -34 102 -45 384 -35 461 15 25 17 34 44 19 59 -5 4 -13 24 -19
44 l-11 37 -12 -30 c-18 -48 -26 -59 -62 -80 -30 -18 -52 -20 -194 -20 -134 0
-165 3 -192 18 -28 15 -33 23 -33 56 l0 38 71 7 c39 4 69 10 66 13 -8 7 13 63
24 63 20 0 8 38 -13 44 -26 7 -22 7 -68 -5z m33 -25 c3 -3 1 -18 -4 -34 -7
-20 -19 -30 -41 -34 -55 -11 -60 -9 -56 26 2 25 9 34 28 39 33 9 65 10 73 3z"/>
</g>
<g id="part-1" class="char-part">
  <path d="M528 588 c-3 -39 -6 -42 -43 -54 -36 -11 -31 -18 13 -17 15 1 15 -8
2 -41 -15 -40 6 -32 36 14 24 35 31 40 68 41 22 1 55 5 71 9 l30 7 -26 11
c-16 6 -40 7 -63 2 -38 -8 -45 0 -26 30 12 19 -6 40 -36 40 -20 0 -23 -6 -26
-42z"/>
  <path d="M260 605 c0 -3 6 -21 14 -40 8 -19 12 -37 8 -39 -4 -3 -36 -8 -70
-12 -53 -6 -61 -9 -50 -21 12 -15 21 -15 114 3 28 5 32 3 38 -20 10 -40 36
-34 29 8 -5 31 -3 34 28 41 l34 9 -37 3 c-31 4 -39 9 -45 31 -3 15 -11 30 -17
34 -13 9 -46 11 -46 3z"/>
</g>
<g id="part-2" class="char-part">
  <path d="M338 436 c-15 -18 -48 -48 -75 -66 -47 -32 -30 -34 29 -4 15 8 40 13
55 12 15 -2 70 3 121 11 115 17 119 14 104 -64 -21 -103 -34 -118 -92 -100
-23 6 -22 4 12 -30 56 -58 86 -33 118 102 10 43 21 85 25 94 4 10 -3 19 -20
27 -19 9 -48 8 -126 -4 -110 -16 -140 -14 -96 6 15 7 27 17 27 22 0 6 -41 28
-53 28 -1 0 -14 -15 -29 -34z"/>
</g>
<g id="part-3" class="char-part">
  <path d="M340 319 c-14 -6 -47 -9 -73 -6 l-49 4 6 -30 c3 -16 6 -42 6 -58 0
-26 3 -29 33 -29 17 0 55 3 82 6 41 5 51 10 52 26 1 11 9 28 17 37 42 46 -6
77 -74 50z m30 -41 c0 -35 -11 -45 -58 -53 l-43 -7 3 33 c2 26 9 35 28 40 51
14 70 10 70 -13z"/>
</g>
<g id="part-4" class="char-part">
  <path d="M735 167 c-34 -72 -63 -82 -250 -82 -134 0 -165 3 -192 18 -28 15
-33 23 -33 52 0 24 -5 35 -15 35 -11 0 -15 -12 -15 -44 0 -37 5 -48 27 -64 48
-33 94 -44 208 -49 116 -6 235 11 295 42 35 18 36 24 12 87 l-18 47 -19 -42z"/>
</g>
</g>
</svg>