<?xml version="1.0" standalone="no"?>
<!DOCTYPE svg PUBLIC "-//W3C//DTD SVG 20010904//EN"
 "http://www.w3.org/TR/2001/REC-SVG-20010904/DTD/svg10.dtd">
<svg version="1.0" xmlns="http://www.w3.org/2000/svg"
 width="96.000000pt" height="68.000000pt" viewBox="0 0 96.000000 68.000000"
 preserveAspectRatio="xMidYMid meet">
<metadata>
Created by potrace 1.16, written by Peter Selinger 2001-2019
Combined from part_0.svg through part_5.svg with named groups
</metadata>
<g transform="translate(0.000000,68.000000) scale(0.100000,-0.100000)" fill="#000000" stroke="none">
<g id="part-0" class="char-part">
  <path d="M205 528 c4 -13 10 -51 12 -85 l5 -63 -61 0 c-34 0 -61 -4 -61 -10 0
-5 4 -10 9 -10 11 0 28 -43 36 -92 6 -41 21 -56 38 -39 22 22 35 11 39 -34 l3
-44 -48 -11 c-26 -5 -55 -10 -62 -10 -24 0 -17 -19 10 -32 21 -10 38 -5 121
32 l97 44 17 -22 c24 -29 50 -29 50 1 0 27 -23 51 -59 62 -21 6 -23 5 -18 -14
3 -12 0 -21 -6 -21 -7 0 -22 -3 -34 -6 -21 -6 -23 -3 -23 34 l0 39 49 7 c44 6
49 9 49 32 0 14 9 39 22 56 12 16 19 36 16 43 -7 20 -66 28 -100 15 l-29 -11
6 75 c7 80 4 85 -62 86 -20 0 -22 -3 -16 -22z m120 -195 c-7 -38 -19 -53 -42
-53 -14 0 -17 30 -7 68 5 15 14 22 31 22 24 0 25 -2 18 -37z m-105 -23 c0 -47
-24 -56 -40 -14 -16 41 -12 54 15 54 23 0 25 -4 25 -40z"/>
  <path d="M625 434 c-55 -8 -126 -13 -158 -12 -55 3 -70 -5 -48 -28 6 -5 15
-67 22 -139 13 -132 24 -171 41 -141 7 13 29 16 108 16 95 0 100 -1 116 -25
45 -69 91 6 110 180 3 33 12 75 20 92 12 31 11 34 -13 53 -30 23 -55 24 -198
4z m132 -111 c-3 -54 -9 -112 -13 -129 l-6 -31 -91 -2 c-51 -2 -107 -3 -126
-4 -39 -2 -35 -12 -45 130 l-7 102 33 6 c59 10 172 22 217 24 l44 1 -6 -97z"/>
  <path d="M630 340 c-14 -4 -46 -8 -72 -9 -27 -1 -48 -5 -48 -11 0 -5 4 -10 9
-10 5 0 14 -20 20 -45 10 -40 14 -44 30 -36 10 6 21 8 24 4 3 -3 22 -2 42 1
24 5 35 12 35 24 0 10 7 28 17 41 15 23 15 25 -2 37 -21 15 -20 15 -55 4z m10
-37 c0 -29 -15 -44 -46 -46 -25 -2 -29 2 -32 25 -3 27 0 29 66 37 6 0 12 -7
12 -16z"/>
</g>
<g id="part-1" class="char-part">
  <path d="M218 498 c3 -29 7 -69 7 -88 l0 -35 -58 1 c-32 1 -56 -1 -55 -5 18
-33 29 -63 38 -98 10 -41 11 -42 45 -36 l35 6 0 -42 c0 -35 3 -42 18 -39 12 2
18 15 20 45 3 44 16 53 74 53 20 0 26 4 22 15 -3 8 4 35 16 61 16 32 19 49 12
56 -13 13 -57 15 -96 3 l-29 -8 6 49 c4 27 9 58 12 70 5 15 0 23 -20 32 -49
22 -55 17 -47 -40z m112 -150 c0 -47 -12 -68 -36 -68 -22 0 -24 4 -24 45 0 43
1 45 30 45 24 0 30 -4 30 -22z m-105 -39 c0 -37 -3 -44 -21 -47 -17 -2 -22 5
-31 42 -9 42 -9 45 11 49 36 7 41 2 41 -44z"/>
</g>
<g id="part-2" class="char-part">
  <path d="M330 199 c18 -34 51 -69 67 -69 19 0 16 44 -4 63 -10 8 -31 19 -47
23 -27 6 -28 6 -16 -17z"/>
</g>
<g id="part-3" class="char-part">
  <path d="M630 434 c-52 -7 -124 -13 -159 -13 -56 -1 -62 -3 -56 -18 12 -30 23
-94 30 -183 4 -47 12 -93 17 -103 9 -17 11 -17 27 -3 13 12 40 16 109 16 87 0
92 -1 108 -25 41 -63 84 -4 104 145 6 47 18 102 26 124 8 21 14 39 12 41 -57
40 -64 40 -218 19z m127 -117 c-4 -56 -12 -117 -18 -134 -9 -29 -13 -31 -35
-22 -16 6 -58 5 -116 -1 -66 -8 -93 -8 -98 0 -8 12 -22 221 -16 227 5 6 196
31 245 32 l44 1 -6 -103z"/>
</g>
<g id="part-4" class="char-part">
  <path d="M635 339 c-11 -4 -44 -8 -74 -8 -41 -1 -51 -4 -43 -13 5 -7 13 -28
17 -45 3 -18 11 -35 16 -38 5 -3 35 -3 68 1 45 5 58 10 54 20 -3 8 2 25 11 39
9 14 14 29 12 34 -9 14 -39 19 -61 10z m5 -44 c0 -17 -8 -29 -24 -37 -33 -14
-56 -4 -56 26 0 24 5 27 68 35 7 0 12 -10 12 -24z"/>
</g>
</g>
</svg>