<?xml version="1.0" standalone="no"?>
<!DOCTYPE svg PUBLIC "-//W3C//DTD SVG 20010904//EN"
 "http://www.w3.org/TR/2001/REC-SVG-20010904/DTD/svg10.dtd">
<svg version="1.0" xmlns="http://www.w3.org/2000/svg"
 width="96.000000pt" height="68.000000pt" viewBox="0 0 96.000000 68.000000"
 preserveAspectRatio="xMidYMid meet">
<metadata>
Created by potrace 1.16, written by Peter Selinger 2001-2019
Combined from part_0.svg through part_5.svg with named groups
</metadata>
<g transform="translate(0.000000,68.000000) scale(0.100000,-0.100000)" fill="#000000" stroke="none">
<g id="part-0" class="char-part">
  <path d="M557 633 c-4 -3 -7 -19 -7 -33 0 -24 -5 -28 -40 -34 -46 -7 -45 -26
1 -26 27 0 29 -2 23 -27 l-7 -28 35 33 c31 29 40 32 97 32 54 0 62 2 59 18 -3
13 -14 17 -54 17 -45 -1 -50 1 -46 18 7 27 -41 51 -61 30z"/>
  <path d="M300 602 c0 -10 5 -23 12 -30 17 -17 8 -21 -61 -28 -59 -7 -61 -8
-45 -25 20 -22 47 -24 94 -7 30 10 35 9 48 -10 19 -29 32 -28 32 2 0 19 7 26
30 31 41 9 38 25 -5 25 -30 0 -35 3 -35 24 0 16 -7 26 -22 30 -37 10 -48 7
-48 -12z"/>
  <path d="M440 491 c0 -16 -10 -20 -71 -26 -86 -9 -83 -19 6 -16 59 2 65 0 65
-19 0 -11 -3 -19 -7 -18 -10 3 -185 -11 -241 -19 -25 -3 -40 -9 -35 -14 8 -8
149 1 246 17 32 5 37 3 37 -14 0 -20 -38 -32 -102 -32 -16 0 -28 -5 -28 -11 0
-8 20 -9 65 -4 l65 7 0 -71 0 -71 -34 0 c-18 0 -54 -3 -79 -6 -43 -6 -45 -5
-40 15 4 17 13 21 42 21 45 0 61 14 61 55 0 24 -5 31 -20 32 -16 1 -20 -4 -20
-33 0 -31 -2 -34 -30 -34 -26 0 -30 3 -30 29 0 25 -15 41 -38 41 -4 0 -8 -42
-8 -93 -1 -75 -6 -101 -24 -137 -12 -25 -28 -48 -34 -52 -8 -6 -8 -8 1 -8 15
0 63 50 63 66 0 16 24 24 66 24 34 0 34 0 32 -43 -2 -32 1 -42 12 -42 21 0 38
94 19 106 -8 5 -23 7 -34 3 -11 -3 -33 -8 -48 -11 -24 -5 -28 -3 -25 13 3 16
18 21 86 30 l82 10 0 -83 c0 -66 3 -85 15 -90 9 -3 18 -3 21 -1 2 3 5 44 5 92
l1 86 84 0 c77 0 84 -2 84 -20 0 -18 -7 -20 -60 -20 l-60 0 6 -48 c7 -60 11
-72 24 -72 5 0 10 22 10 50 l0 50 40 0 40 0 -6 -53 c-5 -42 -3 -55 11 -67 29
-24 35 6 32 175 l-2 160 -24 3 c-21 3 -23 1 -19 -27 5 -31 -5 -41 -42 -41 -10
0 -20 10 -24 24 -3 13 -13 26 -21 30 -12 4 -15 -4 -15 -40 l0 -46 38 7 c61 12
67 11 70 -12 4 -25 12 -23 -123 -27 l-40 -1 0 65 0 65 63 3 c51 2 62 6 62 20
0 29 21 42 66 42 64 0 134 12 128 21 -3 5 -41 9 -85 9 -51 0 -78 4 -74 10 3 6
-1 17 -9 26 -13 12 -29 14 -80 9 -53 -6 -64 -4 -69 9 -9 23 -47 21 -47 -3z
m150 -45 c0 -16 -30 -26 -77 -26 -22 0 -33 5 -33 14 0 19 15 24 68 25 29 1 42
-3 42 -13z m-12 -55 c-4 -22 -98 -29 -98 -7 0 15 21 21 73 22 20 1 27 -4 25
-15z"/>
</g>
<g id="part-1" class="char-part">
  <path d="M560 606 c0 -34 -2 -35 -46 -42 -47 -7 -44 -24 5 -24 18 0 22 -4 18
-20 -7 -27 7 -25 27 4 13 21 27 26 86 32 52 5 68 10 60 18 -6 6 -31 10 -56 9
-40 -1 -44 1 -39 18 5 14 0 21 -20 29 -36 14 -35 14 -35 -24z"/>
  <path d="M314 581 c9 -16 12 -31 9 -35 -4 -3 -33 -6 -65 -6 -62 0 -73 -10 -33
-28 17 -8 33 -8 51 -2 38 15 74 12 74 -5 0 -8 7 -15 16 -15 11 0 14 6 9 20 -5
14 -1 22 12 26 52 16 58 23 18 21 -37 -2 -40 0 -43 26 -3 23 -8 27 -33 27 -29
0 -29 0 -15 -29z"/>
</g>
<g id="part-2" class="char-part">
  <path d="M437 491 c4 -17 -3 -20 -64 -26 -97 -9 -100 -13 -10 -14 68 -1 77 -3
77 -20 0 -17 -12 -19 -137 -27 -167 -9 -150 -8 -158 -16 -21 -21 118 -16 263
9 27 4 32 2 32 -15 0 -21 -37 -31 -115 -32 -34 -1 -37 -2 -21 -11 11 -7 41 -9
78 -5 l59 7 -2 -156 c-1 -132 1 -159 14 -173 24 -24 27 -8 30 173 l2 160 61 3
c59 3 62 4 68 32 5 30 7 30 73 31 38 1 82 4 98 8 51 11 10 24 -71 23 -59 -2
-72 1 -68 12 10 25 -33 38 -97 31 -50 -6 -59 -5 -59 9 0 11 -9 16 -29 16 -24
0 -28 -4 -24 -19z m153 -45 c0 -9 -17 -16 -51 -21 -55 -8 -65 -4 -56 20 9 21
107 22 107 1z m-10 -40 c0 -25 -16 -36 -56 -36 -57 0 -62 27 -6 33 20 2 43 4
50 5 6 1 12 0 12 -2z"/>
</g>
<g id="part-3" class="char-part">
  <path d="M642 318 c3 -31 1 -33 -29 -36 -27 -3 -33 0 -33 16 0 18 -26 49 -34
41 -4 -4 -9 -55 -7 -78 1 -14 31 -12 89 5 19 5 22 3 22 -18 0 -24 -3 -25 -87
-32 -49 -3 -128 -10 -178 -15 -97 -10 -107 -8 -98 14 3 10 19 15 42 15 46 0
61 14 61 57 0 26 -4 33 -20 33 -16 0 -20 -7 -20 -35 0 -32 -2 -35 -29 -35 -26
0 -30 4 -33 33 -2 23 -8 33 -23 35 -19 3 -20 -3 -21 -87 0 -81 -4 -97 -31
-151 -38 -73 -26 -78 23 -9 34 46 40 50 73 47 35 -3 36 -4 33 -38 -2 -36 11
-70 24 -57 12 12 24 111 14 121 -5 5 -27 4 -56 -3 -49 -13 -60 -10 -51 12 6
17 66 25 245 34 130 6 132 6 132 -15 0 -20 -5 -22 -61 -22 -59 0 -61 -1 -55
-22 3 -13 6 -40 6 -60 0 -26 4 -38 14 -38 11 0 16 14 18 48 3 47 3 47 42 50
l39 3 -7 -40 c-8 -50 1 -91 20 -91 21 0 25 33 22 195 -3 148 -3 150 -26 153
-21 3 -23 0 -20 -30z"/>
</g>
</g>
</svg>