<?xml version="1.0" standalone="no"?>
<!DOCTYPE svg PUBLIC "-//W3C//DTD SVG 20010904//EN"
 "http://www.w3.org/TR/2001/REC-SVG-20010904/DTD/svg10.dtd">
<svg version="1.0" xmlns="http://www.w3.org/2000/svg"
 width="96.000000pt" height="68.000000pt" viewBox="0 0 96.000000 68.000000"
 preserveAspectRatio="xMidYMid meet">
<metadata>
Created by potrace 1.16, written by Peter Selinger 2001-2019
Combined from part_0.svg through part_5.svg with named groups
</metadata>
<g transform="translate(0.000000,68.000000) scale(0.100000,-0.100000)" fill="#000000" stroke="none">
<g id="part-0" class="char-part">
  <path d="M269 593 c-8 -76 -46 -141 -153 -260 -63 -71 -6 -52 78 26 l38 36 -7
-112 c-4 -62 -10 -125 -14 -140 -8 -28 11 -83 28 -83 22 0 29 36 34 182 5 129
3 158 -9 168 -12 11 -7 22 31 76 25 34 45 67 45 73 0 6 -13 17 -30 26 -33 17
-40 18 -41 8z"/>
  <path d="M423 523 c-32 -34 -47 -43 -63 -38 -23 7 -26 -1 -7 -19 7 -8 21 -50
30 -94 l18 -81 29 6 c28 5 29 4 21 -24 -16 -55 -40 -91 -93 -137 -30 -26 -46
-46 -37 -46 28 0 98 59 144 121 37 50 43 64 35 80 -9 17 -7 19 19 19 35 0 39
-9 40 -103 1 -80 18 -111 68 -128 67 -22 233 7 233 40 0 5 -9 28 -20 52 l-19
44 -7 -32 c-10 -52 -35 -66 -113 -67 -44 -1 -74 4 -84 13 -20 16 -23 82 -6
130 8 24 8 35 -1 46 -10 12 -9 15 9 15 11 0 21 -5 21 -11 0 -6 9 -9 21 -7 16
2 26 19 44 77 13 40 29 79 34 84 37 37 -26 75 -92 56 -17 -5 -45 -9 -61 -9
-16 0 -26 -3 -23 -7 4 -3 32 -5 62 -4 l55 2 0 -30 c0 -27 -4 -31 -27 -31 -16
-1 -41 -7 -58 -15 -30 -15 -30 -15 23 -12 l53 2 -7 -30 c-9 -45 -10 -45 -77
-46 -34 0 -84 -4 -110 -8 -46 -8 -49 -7 -58 17 -15 39 -4 52 40 52 22 0 42 4
45 9 9 14 -15 19 -53 10 -43 -10 -51 -5 -51 30 0 24 9 33 63 61 76 41 75 39
57 50 -28 18 -55 7 -97 -37z"/>
</g>
<g id="part-1" class="char-part">
  <path d="M267 555 c-7 -40 -78 -155 -139 -222 l-43 -47 34 21 c19 12 51 38 73
58 l38 38 0 -96 c0 -53 -5 -118 -11 -146 -11 -53 -1 -91 25 -91 26 0 41 305
17 334 -13 15 -9 25 32 84 43 62 45 68 30 84 -27 30 -50 22 -56 -17z"/>
</g>
<g id="part-2" class="char-part">
  <path d="M460 571 c0 -6 -16 -29 -36 -51 -20 -22 -32 -40 -26 -40 6 0 40 15
77 34 49 25 62 36 53 44 -21 17 -68 26 -68 13z"/>
</g>
<g id="part-3" class="char-part">
  <path d="M612 516 c-67 -14 -58 -26 14 -19 l54 6 0 -30 c0 -28 -3 -31 -42 -37
-70 -11 -81 -26 -20 -26 28 0 52 -2 52 -4 0 -1 -5 -17 -11 -35 -10 -27 -15
-31 -48 -31 -21 0 -72 -3 -113 -6 l-75 -7 -6 29 c-6 33 5 44 48 44 17 0 36 4
43 9 22 13 -32 23 -63 11 -33 -13 -45 -6 -45 25 0 25 -25 45 -56 45 -16 0 -16
-1 0 -19 15 -17 28 -55 50 -154 5 -19 12 -27 21 -23 7 2 60 10 116 16 77 9
104 9 109 0 4 -7 16 -10 26 -8 13 2 25 25 42 78 13 41 27 79 33 85 19 19 9 43
-22 54 -36 12 -34 12 -107 -3z"/>
</g>
<g id="part-4" class="char-part">
  <path d="M560 217 c6 -104 13 -120 67 -138 67 -22 233 7 233 40 0 5 -9 28 -20
52 l-19 44 -7 -32 c-10 -52 -36 -68 -114 -68 -44 0 -73 5 -85 15 -17 14 -17
21 -3 150 3 21 -2 25 -27 28 l-30 3 5 -94z"/>
</g>
</g>
</svg>