<?xml version="1.0" standalone="no"?>
<!DOCTYPE svg PUBLIC "-//W3C//DTD SVG 20010904//EN"
 "http://www.w3.org/TR/2001/REC-SVG-20010904/DTD/svg10.dtd">
<svg version="1.0" xmlns="http://www.w3.org/2000/svg"
 width="96.000000pt" height="68.000000pt" viewBox="0 0 96.000000 68.000000"
 preserveAspectRatio="xMidYMid meet">
<metadata>
Created by potrace 1.16, written by Peter Selinger 2001-2019
Combined from part_0.svg through part_5.svg with named groups
</metadata>
<g transform="translate(0.000000,68.000000) scale(0.100000,-0.100000)" fill="#000000" stroke="none">
<g id="part-0" class="char-part">
  <path d="M518 546 c-80 -11 -150 -24 -154 -28 -4 -5 -3 -8 3 -8 19 0 33 -60
33 -139 0 -81 -14 -225 -25 -253 -11 -29 25 -39 80 -23 32 10 98 15 201 16 85
0 156 3 158 7 2 4 -2 16 -10 27 -14 19 -17 19 -190 1 -97 -9 -178 -15 -181
-12 -6 6 11 364 18 370 2 2 69 10 149 17 80 6 149 16 154 20 11 10 -36 30 -67
28 -12 -1 -88 -11 -169 -23z"/>
  <path d="M225 524 c-27 -8 -65 -14 -84 -14 -30 0 -33 -2 -25 -22 4 -13 8 -95
8 -183 1 -179 -6 -166 79 -149 32 6 40 4 53 -15 19 -26 40 -27 54 -1 6 12 12
94 13 194 l2 175 -25 14 c-21 12 -33 12 -75 1z m43 -81 c3 -41 2 -43 -25 -43
-15 0 -37 -3 -49 -6 -18 -5 -21 -1 -22 27 -1 53 14 71 56 67 36 -3 37 -4 40
-45z m2 -108 c0 -31 -3 -35 -27 -35 -16 0 -38 -3 -50 -6 -21 -6 -23 -3 -23 29
0 31 3 36 28 40 69 10 72 9 72 -28z m0 -104 c0 -44 -10 -51 -71 -51 -42 0 -42
1 -33 48 6 31 16 36 82 41 19 1 22 -4 22 -38z"/>
  <path d="M635 449 c-22 -4 -59 -8 -82 -8 -23 -1 -45 -5 -48 -11 -4 -6 6 -10
22 -10 37 0 53 -16 53 -52 0 -25 -3 -28 -34 -28 -19 0 -38 -4 -41 -10 -5 -8
23 -13 63 -9 9 0 19 -42 14 -62 -3 -12 -20 -19 -59 -24 -36 -4 -52 -10 -45
-17 6 -6 36 -6 86 1 43 6 110 11 149 11 67 1 71 2 52 16 -14 11 -37 14 -79 12
l-60 -3 -3 33 c-4 35 -2 36 61 47 46 8 32 25 -21 25 -30 0 -33 3 -33 29 0 31
14 41 61 41 16 0 29 4 29 9 0 9 -26 22 -38 20 -4 -1 -25 -5 -47 -10z"/>
</g>
<g id="part-1" class="char-part">
  <path d="M200 515 c-25 -7 -52 -11 -60 -9 -13 3 -15 -17 -14 -138 1 -148 8
-171 39 -125 12 19 27 26 61 29 40 3 44 1 44 -19 0 -13 3 -23 8 -24 4 0 15 -2
25 -4 16 -3 17 9 17 139 l0 143 -25 11 c-30 14 -35 14 -95 -3z m70 -71 c0 -29
-4 -44 -12 -44 -7 0 -30 -3 -50 -6 l-38 -7 0 51 c0 50 1 51 33 54 59 6 67 0
67 -48z m6 -88 c9 -36 1 -61 -19 -58 -9 2 -33 -1 -52 -7 l-35 -9 0 43 0 44 43
4 c23 2 45 4 49 5 4 1 10 -9 14 -22z"/>
</g>
<g id="part-2" class="char-part">
  <path d="M127 224 c-4 -4 -7 -21 -7 -39 0 -36 18 -59 35 -45 6 5 29 12 51 15
36 6 41 4 54 -19 7 -14 17 -26 21 -26 16 0 39 46 39 77 0 29 -3 33 -25 33 -15
0 -25 -6 -25 -14 0 -16 -30 -26 -77 -26 -25 0 -32 5 -35 22 -3 22 -19 33 -31
22z"/>
</g>
<g id="part-3" class="char-part">
  <path d="M518 546 c-81 -11 -150 -24 -154 -28 -4 -5 -3 -8 3 -8 19 0 33 -61
32 -144 0 -83 -12 -195 -24 -232 -8 -26 20 -58 44 -49 41 16 128 26 256 28
142 2 169 11 120 37 -21 11 -50 10 -186 -4 -106 -11 -165 -14 -172 -7 -10 10
4 355 15 366 2 3 73 10 156 17 84 6 152 16 152 20 0 11 -46 28 -73 27 -12 -1
-88 -11 -169 -23z"/>
</g>
<g id="part-4" class="char-part">
  <path d="M635 450 c-22 -4 -62 -10 -89 -13 -90 -11 -62 -20 46 -14 110 5 141
12 117 28 -16 10 -19 10 -74 -1z"/>
</g>
<g id="part-5" class="char-part">
  <path d="M585 367 c0 -23 4 -47 8 -54 4 -6 4 -18 1 -27 -3 -9 -1 -16 6 -16 6
0 4 -7 -6 -17 -18 -19 -22 -20 -66 -22 -16 0 -28 -5 -28 -10 0 -6 12 -6 29 -1
16 4 32 6 35 3 3 -3 13 -2 23 2 10 5 22 9 27 9 5 1 10 24 10 51 1 47 2 50 27
48 16 -1 26 4 26 12 0 10 -9 12 -27 8 -25 -5 -27 -3 -23 29 2 24 1 28 -5 14
-8 -18 -9 -18 -15 -3 -11 30 -22 18 -22 -26z m22 -39 c-3 -8 -6 -5 -6 6 -1 11
2 17 5 13 3 -3 4 -12 1 -19z"/>
  <path d="M555 330 c3 -5 8 -10 11 -10 2 0 4 5 4 10 0 6 -5 10 -11 10 -5 0 -7
-4 -4 -10z"/>
  <path d="M518 323 c7 -3 16 -2 19 1 4 3 -2 6 -13 5 -11 0 -14 -3 -6 -6z"/>
  <path d="M687 250 c-57 -11 -53 -17 13 -17 32 0 57 4 54 8 -2 5 -12 5 -21 2
-11 -4 -14 -3 -9 5 4 7 6 11 4 11 -2 -1 -20 -5 -41 -9z"/>
</g>
</g>
</svg>