<?xml version="1.0" standalone="no"?>
<!DOCTYPE svg PUBLIC "-//W3C//DTD SVG 20010904//EN"
 "http://www.w3.org/TR/2001/REC-SVG-20010904/DTD/svg10.dtd">
<svg version="1.0" xmlns="http://www.w3.org/2000/svg"
 width="96.000000pt" height="68.000000pt" viewBox="0 0 96.000000 68.000000"
 preserveAspectRatio="xMidYMid meet">
<metadata>
Created by potrace 1.16, written by Peter Selinger 2001-2019
Combined from part_0.svg through part_5.svg with named groups
</metadata>
<g transform="translate(0.000000,68.000000) scale(0.100000,-0.100000)" fill="#000000" stroke="none">
<g id="part-0" class="char-part">
  <path d="M511 543 c-8 -21 -38 -63 -67 -93 -29 -30 -51 -56 -49 -59 5 -4 78
49 83 61 4 9 102 11 102 2 0 -3 -14 -25 -30 -49 -26 -38 -36 -45 -76 -51 -25
-3 -63 -4 -85 -1 -40 5 -49 -2 -25 -22 7 -6 19 -39 26 -74 18 -93 21 -97 72
-85 24 5 83 8 132 6 l89 -4 18 30 c11 17 19 38 19 46 0 8 11 35 24 60 l24 45
-27 17 c-31 21 -60 22 -129 4 -29 -7 -52 -9 -52 -5 0 5 27 30 59 56 33 26 60
51 60 56 1 4 -11 13 -25 19 -21 10 -35 9 -72 -4 -60 -22 -70 -14 -33 25 24 23
28 34 20 44 -21 24 -44 14 -58 -24z m169 -218 l0 -35 -60 0 c-60 0 -60 0 -60
29 0 28 3 30 43 34 23 2 50 4 60 5 13 2 17 -6 17 -33z m-176 9 c9 -3 16 -17
16 -29 0 -20 -6 -25 -44 -30 -53 -8 -66 -2 -66 30 0 19 6 24 33 28 17 2 35 5
39 5 3 1 13 -1 22 -4z m166 -66 c-1 -48 -12 -58 -61 -58 -45 0 -49 2 -49 25 0
25 6 28 70 38 14 3 28 5 33 6 4 0 7 -5 7 -11z m-150 -38 c0 -29 -2 -30 -45
-30 -41 0 -45 2 -45 24 0 22 5 25 43 29 23 2 43 4 45 5 1 1 2 -11 2 -28z"/>
  <path d="M210 522 c0 -17 71 -73 88 -70 24 5 27 44 5 56 -29 16 -93 26 -93 14z"/>
  <path d="M130 384 c0 -16 65 -64 87 -64 31 0 39 19 17 40 -20 19 -104 38 -104
24z"/>
  <path d="M260 272 c0 -4 -31 -42 -70 -83 -38 -41 -70 -81 -70 -89 0 -18 28
-60 40 -60 7 0 120 223 120 236 0 2 -4 4 -10 4 -5 0 -10 -4 -10 -8z"/>
  <path d="M717 143 c-8 -7 85 -121 99 -122 11 -1 24 20 24 37 0 26 -108 100
-123 85z"/>
  <path d="M326 118 c-30 -47 -40 -78 -28 -90 26 -26 62 21 62 83 0 35 -14 37
-34 7z"/>
  <path d="M440 115 c0 -17 47 -75 59 -73 23 5 23 23 1 51 -18 23 -60 38 -60 22z"/>
  <path d="M590 80 c36 -45 60 -52 60 -17 0 31 -29 57 -64 57 l-28 0 32 -40z"/>
</g>
<g id="part-1" class="char-part">
  <path d="M232 501 c18 -29 68 -55 80 -43 24 24 -21 62 -73 62 -16 0 -17 -3 -7
-19z"/>
  <path d="M168 350 c37 -34 72 -40 72 -12 0 22 -39 42 -78 42 l-27 -1 33 -29z"/>
  <path d="M225 219 c-21 -27 -54 -63 -73 -79 -33 -27 -34 -30 -22 -59 7 -17 18
-31 25 -31 12 0 120 209 112 216 -2 2 -20 -19 -42 -47z"/>
</g>
<g id="part-2" class="char-part">
  <path d="M512 547 c-7 -19 -37 -61 -68 -95 -31 -34 -52 -62 -49 -62 4 0 30 16
56 35 37 26 59 35 89 35 22 0 40 -3 40 -6 0 -3 -14 -25 -30 -50 -17 -24 -27
-44 -21 -44 8 0 58 38 135 103 21 17 21 17 2 32 -25 19 -33 19 -86 0 -24 -8
-45 -13 -48 -10 -3 3 7 18 23 35 23 24 26 32 15 45 -21 25 -45 18 -58 -18z"/>
</g>
<g id="part-3" class="char-part">
  <path d="M649 386 c-11 -11 -218 -38 -256 -33 -45 5 -53 -2 -29 -22 8 -7 20
-43 27 -81 16 -93 17 -93 73 -79 28 7 83 10 135 7 l89 -5 39 92 40 93 -28 16
c-25 15 -80 22 -90 12z m31 -61 l0 -35 -61 0 c-60 0 -60 0 -57 28 3 28 5 28
106 40 7 1 12 -11 12 -33z m-172 3 c26 -26 14 -47 -33 -54 -52 -7 -51 -8 -60
28 -6 25 -5 27 32 31 21 2 40 4 44 5 3 1 10 -3 17 -10z m157 -86 c-6 -28 -10
-30 -56 -34 -48 -3 -49 -2 -49 24 0 29 10 34 75 40 38 4 38 5 30 -30z m-145
-12 c0 -28 -2 -30 -39 -30 -26 0 -41 5 -45 16 -11 28 -7 33 32 37 20 2 40 4
45 5 4 1 7 -11 7 -28z"/>
</g>
<g id="part-4" class="char-part">
  <path d="M721 132 c8 -10 29 -40 48 -65 46 -62 68 -63 61 -3 -2 25 -17 39 -68
65 -51 26 -58 26 -41 3z"/>
  <path d="M316 100 c-30 -45 -33 -68 -10 -77 24 -9 46 20 51 71 7 57 -6 59 -41
6z"/>
  <path d="M560 122 c0 -15 62 -82 76 -82 18 0 18 44 0 59 -18 15 -76 32 -76 23z"/>
  <path d="M440 115 c0 -17 47 -75 59 -73 25 5 23 26 -3 53 -22 22 -56 34 -56
20z"/>
</g>
</g>
</svg>