<?xml version="1.0" standalone="no"?>
<!DOCTYPE svg PUBLIC "-//W3C//DTD SVG 20010904//EN"
 "http://www.w3.org/TR/2001/REC-SVG-20010904/DTD/svg10.dtd">
<svg version="1.0" xmlns="http://www.w3.org/2000/svg"
 width="96.000000pt" height="68.000000pt" viewBox="0 0 96.000000 68.000000"
 preserveAspectRatio="xMidYMid meet">
<metadata>
Created by potrace 1.16, written by Peter Selinger 2001-2019
Combined from part_0.svg through part_5.svg with named groups
</metadata>
<g transform="translate(0.000000,68.000000) scale(0.100000,-0.100000)" fill="#000000" stroke="none">
<g id="part-0" class="char-part">
  <path d="M298 543 c-3 -48 -3 -48 -38 -48 -29 0 -36 4 -38 23 -2 14 -14 27
-29 33 -32 12 -41 4 -25 -21 21 -34 14 -48 -28 -55 -49 -8 -43 -25 10 -25 33
0 39 -3 45 -27 10 -41 25 -56 41 -42 11 9 14 6 14 -15 0 -25 -2 -26 -56 -26
-44 0 -54 -3 -47 -12 6 -7 16 -29 22 -49 12 -36 13 -37 53 -31 36 4 41 3 35
-12 -4 -10 -7 -21 -7 -26 0 -5 -30 -12 -67 -15 -38 -4 -74 -11 -82 -15 -28
-15 27 -21 86 -11 31 6 58 11 59 11 2 0 4 -33 6 -72 2 -57 6 -73 18 -73 12 0
16 17 18 78 l3 77 46 0 46 0 -23 -25 c-17 -18 -19 -25 -9 -25 15 0 67 47 93
85 8 11 17 18 19 15 3 -3 0 -42 -6 -88 -8 -60 -8 -85 0 -93 24 -24 33 4 33
108 l0 107 33 -33 c27 -29 33 -31 36 -15 2 10 -7 26 -20 36 -46 35 -51 40 -42
49 5 5 24 14 42 19 31 9 34 7 44 -20 6 -17 17 -30 24 -30 20 0 16 34 -7 60
-11 13 -20 19 -20 14 0 -5 -18 -8 -40 -6 -40 4 -40 5 -34 37 4 25 2 35 -11 43
-15 8 -10 13 29 32 26 12 45 27 43 34 -8 24 -39 16 -84 -23 -25 -23 -51 -41
-57 -42 -6 -1 0 -4 14 -8 21 -6 25 -13 25 -46 0 -37 -2 -40 -31 -43 -18 -2
-38 3 -46 11 -9 10 -31 14 -60 13 -36 -2 -45 0 -44 13 0 9 12 18 26 21 14 3
25 12 26 20 4 63 2 60 44 60 52 0 55 26 5 36 -25 4 -33 10 -27 18 21 26 -3 66
-40 66 -13 0 -18 -11 -20 -47z m0 -100 c-4 -23 -68 -32 -68 -10 0 20 10 27 42
27 23 0 29 -4 26 -17z m37 -134 c0 -17 -6 -25 -22 -27 -18 -3 -23 1 -23 21 0
29 6 36 28 33 11 -2 17 -12 17 -27z m-80 -9 c0 -21 -5 -26 -31 -28 -27 -3 -32
1 -36 22 -4 19 0 26 16 29 39 8 51 2 51 -23z m185 -29 c-35 -65 -44 -73 -74
-61 -15 5 -38 7 -52 4 -21 -5 -24 -3 -24 20 0 23 4 26 34 26 27 0 36 5 42 23
9 30 17 34 59 29 l34 -4 -19 -37z"/>
  <path d="M639 423 c4 -141 -9 -209 -55 -285 -19 -31 -34 -59 -34 -63 0 -19 72
53 90 91 12 24 25 44 29 44 4 0 18 -19 31 -42 43 -78 70 -108 94 -104 11 3 29
5 39 5 20 1 24 21 4 21 -19 0 -95 67 -128 113 -26 36 -41 100 -21 95 12 -4
112 56 112 68 0 6 -7 18 -16 25 -14 11 -20 8 -45 -21 -16 -19 -29 -38 -29 -41
0 -4 -7 -9 -15 -13 -13 -5 -14 9 -9 103 6 107 6 108 -17 114 -13 4 -26 7 -29
7 -3 0 -3 -53 -1 -117z"/>
</g>
<g id="part-1" class="char-part">
  <path d="M310 541 c0 -44 -1 -46 -47 -56 -30 -6 -33 -4 -47 29 -11 26 -21 36
-37 36 -21 0 -21 -1 -4 -26 23 -36 13 -54 -32 -54 -28 0 -34 -3 -23 -10 8 -5
30 -10 48 -10 26 0 32 -4 32 -22 0 -42 10 -46 73 -35 44 8 57 14 57 28 0 30
12 49 30 49 25 0 50 10 50 21 0 5 -14 9 -30 9 -29 0 -31 2 -28 38 3 32 0 37
-19 40 -21 3 -23 -1 -23 -37z m-12 -98 c-2 -23 -8 -29 -35 -31 -29 -3 -33 0
-33 22 0 26 11 34 48 35 20 1 23 -3 20 -26z"/>
</g>
<g id="part-2" class="char-part">
  <path d="M250 226 c0 -22 -5 -24 -68 -31 -78 -8 -106 -19 -74 -29 19 -6 56 -3
120 10 21 4 22 2 22 -72 0 -66 2 -75 18 -72 14 3 18 17 22 78 l5 75 50 5 c47
5 48 6 24 16 -14 7 -37 10 -52 7 -22 -4 -27 -2 -27 16 0 14 -6 21 -20 21 -14
0 -20 -7 -20 -24z"/>
</g>
<g id="part-3" class="char-part">
  <path d="M474 465 c-32 -30 -56 -55 -51 -55 16 0 147 71 147 80 0 5 -8 14 -18
19 -15 8 -29 0 -78 -44z"/>
</g>
<g id="part-4" class="char-part">
  <path d="M463 383 c2 -47 1 -48 -30 -51 -41 -4 -43 -22 -3 -22 l30 0 -20 -39
c-11 -22 -38 -60 -60 -86 -22 -25 -40 -48 -40 -51 0 -13 43 21 84 67 l46 51
-6 -48 c-3 -27 -9 -63 -14 -79 -8 -36 5 -78 22 -73 9 3 15 39 18 114 l5 109
21 -28 c24 -30 44 -35 44 -12 0 9 -15 25 -34 36 -41 24 -38 47 5 56 38 7 37
23 -1 23 -29 0 -31 2 -28 38 3 31 0 37 -19 40 -20 3 -21 -1 -20 -45z"/>
</g>
<g id="part-5" class="char-part">
  <path d="M638 513 c5 -10 8 -51 8 -91 -1 -40 2 -76 6 -78 4 -3 8 -11 8 -17 0
-7 -4 -6 -10 3 -9 13 -10 13 -10 0 0 -9 6 -22 13 -29 10 -11 9 -12 -2 -6 -9 5
-12 3 -9 -6 3 -8 11 -13 17 -11 7 1 10 -2 6 -8 -3 -6 -11 -7 -17 -4 -8 5 -9 1
-5 -11 5 -11 0 -31 -12 -51 -11 -19 -16 -34 -10 -34 6 0 7 -5 4 -10 -4 -6 -11
-7 -17 -4 -7 4 -8 2 -4 -4 4 -7 11 -12 16 -12 9 0 36 70 31 84 -6 24 32 -22
71 -84 41 -67 45 -70 83 -70 36 0 38 1 20 14 -11 7 -24 13 -28 12 -5 0 -13 7
-18 17 -6 9 -15 14 -21 11 -6 -4 -8 -3 -5 3 3 5 -9 25 -28 43 -19 18 -31 38
-28 43 3 6 1 7 -5 3 -7 -4 -12 -1 -12 8 0 9 -5 16 -10 16 -7 0 -7 6 -2 18 5 9
9 65 8 124 0 58 3 104 7 101 5 -3 7 5 5 18 -2 18 -10 25 -31 27 -25 3 -27 1
-19 -15z m19 -95 c-3 -8 -6 -5 -6 6 -1 11 2 17 5 13 3 -3 4 -12 1 -19z"/>
  <path d="M741 360 c-5 -16 -15 -30 -20 -30 -6 0 -11 -4 -11 -10 0 -10 71 28
82 44 7 11 -9 26 -29 26 -6 0 -16 -13 -22 -30z"/>
  <path d="M580 334 c0 -3 7 -12 15 -21 8 -8 13 -19 10 -24 -4 -5 -1 -9 4 -9 14
0 14 16 1 41 -10 17 -30 27 -30 13z"/>
  <path d="M577 114 c-10 -13 -14 -24 -9 -24 14 0 44 37 35 43 -4 3 -16 -6 -26
-19z"/>
</g>
</g>
</svg>