<?xml version="1.0" standalone="no"?>
<!DOCTYPE svg PUBLIC "-//W3C//DTD SVG 20010904//EN"
 "http://www.w3.org/TR/2001/REC-SVG-20010904/DTD/svg10.dtd">
<svg version="1.0" xmlns="http://www.w3.org/2000/svg"
 width="96.000000pt" height="68.000000pt" viewBox="0 0 96.000000 68.000000"
 preserveAspectRatio="xMidYMid meet">
<metadata>
Created by potrace 1.16, written by Peter Selinger 2001-2019
Combined from part_0.svg through part_5.svg with named groups
</metadata>
<g transform="translate(0.000000,68.000000) scale(0.100000,-0.100000)" fill="#000000" stroke="none">
<g id="part-0" class="char-part">
  <path d="M561 568 c5 -18 9 -59 8 -90 -2 -64 4 -59 -84 -63 -21 -1 -29 -6 -25
-16 3 -8 4 -63 3 -123 -3 -115 7 -153 32 -120 8 12 14 14 19 5 9 -14 -18 -49
-74 -96 -23 -19 -39 -35 -36 -35 14 0 92 44 126 70 19 15 41 29 49 31 11 4 11
8 -2 21 -15 14 -11 16 36 21 63 6 71 3 86 -29 6 -14 17 -24 24 -21 27 8 34 49
31 175 -3 123 -4 127 -27 139 -17 9 -33 10 -58 3 -60 -17 -60 -18 -57 73 l3
82 -32 3 c-32 3 -32 3 -22 -30z m127 -154 c15 -3 22 -12 22 -27 0 -20 -7 -24
-78 -35 -42 -7 -90 -12 -105 -12 -25 0 -28 3 -25 28 3 25 8 28 68 38 83 13 90
14 118 8z m20 -97 c0 -22 -6 -25 -88 -35 -118 -16 -120 -16 -120 11 0 24 17
29 191 45 11 1 17 -6 17 -21z m2 -88 l0 -29 -82 -1 c-46 -1 -92 -2 -103 -3
-24 -1 -34 10 -28 34 4 14 22 19 101 26 53 5 100 8 105 6 4 -2 7 -16 7 -33z"/>
  <path d="M713 553 c-3 -10 -15 -31 -26 -46 -10 -16 -17 -31 -14 -34 4 -4 79
41 107 64 7 6 -31 33 -47 33 -8 0 -16 -8 -20 -17z"/>
  <path d="M452 499 c21 -32 45 -46 58 -33 15 15 -10 43 -44 50 -28 5 -29 4 -14
-17z"/>
  <path d="M300 490 c-19 -4 -61 -11 -92 -15 -72 -8 -75 -23 -5 -27 l52 -3 5
-46 c7 -62 4 -69 -35 -69 -19 0 -37 -4 -40 -10 -4 -6 9 -10 33 -10 36 0 40 -3
46 -31 15 -77 11 -84 -56 -104 -80 -24 -81 -24 -67 -41 19 -23 49 -15 159 42
95 50 101 57 32 38 -22 -6 -23 -5 -20 47 3 51 5 54 36 64 40 12 42 25 2 25
-30 0 -30 1 -30 55 l0 55 33 0 c17 0 39 5 47 10 13 9 13 11 0 20 -17 11 -50
11 -100 0z"/>
  <path d="M664 90 c33 -40 81 -80 95 -80 17 0 13 45 -6 62 -19 16 -88 48 -105
48 -5 0 2 -14 16 -30z"/>
</g>
<g id="part-1" class="char-part">
  <path d="M233 477 c-108 -15 -93 -31 20 -23 108 8 147 15 147 27 0 11 -71 9
-167 -4z"/>
</g>
<g id="part-2" class="char-part">
  <path d="M280 452 c-24 -3 -25 -5 -22 -62 l4 -60 -34 0 c-18 0 -40 -5 -48 -10
-11 -7 -2 -10 31 -10 46 0 46 -1 53 -38 12 -77 11 -79 -51 -97 -90 -25 -87
-23 -73 -40 20 -25 52 -18 159 36 98 49 128 74 60 50 -48 -16 -49 -15 -49 43
l0 53 40 7 c49 8 53 26 5 26 l-35 0 0 49 c0 54 -3 58 -40 53z"/>
</g>
<g id="part-3" class="char-part">
  <path d="M555 583 c4 -10 10 -51 13 -90 2 -40 7 -73 11 -73 20 1 30 23 38 87
10 81 5 93 -40 93 -24 0 -28 -3 -22 -17z"/>
  <path d="M713 553 c-3 -10 -17 -33 -30 -50 -31 -42 -21 -41 50 3 53 33 56 37
40 50 -25 19 -52 17 -60 -3z"/>
  <path d="M440 512 c0 -12 44 -52 58 -52 22 0 22 19 0 39 -22 21 -58 29 -58 13z"/>
</g>
<g id="part-4" class="char-part">
  <path d="M559 421 l-106 -16 9 -25 c6 -14 7 -55 4 -92 -6 -64 -5 -68 15 -68
14 0 19 5 16 14 -4 10 14 15 81 20 48 4 97 10 110 13 17 4 22 1 22 -16 0 -14
6 -21 19 -21 18 0 20 9 23 96 4 128 8 126 -193 95z m135 -7 c9 -3 16 -16 16
-28 0 -20 -8 -24 -77 -34 -122 -19 -133 -17 -133 17 0 28 2 30 63 39 79 12
111 14 131 6z m16 -97 c0 -22 -6 -25 -82 -35 -119 -17 -128 -16 -128 11 0 22
6 24 83 34 131 16 127 16 127 -10z"/>
</g>
<g id="part-5" class="char-part">
  <path d="M519 138 c-7 -13 -31 -40 -53 -61 -38 -36 -35 -35 38 14 64 43 75 54
60 60 -29 12 -32 11 -45 -13z"/>
  <path d="M672 96 c10 -7 14 -17 10 -21 -4 -5 1 -5 10 -2 12 4 15 2 12 -7 -3
-8 5 -21 18 -30 29 -20 35 -20 35 2 0 22 -16 44 -28 36 -5 -3 -9 -1 -9 4 0 6
-15 15 -32 21 -28 9 -30 9 -16 -3z m78 -40 c0 -2 -7 -7 -16 -10 -8 -3 -12 -2
-9 4 6 10 25 14 25 6z"/>
</g>
</g>
</svg>