<?xml version="1.0" standalone="no"?>
<!DOCTYPE svg PUBLIC "-//W3C//DTD SVG 20010904//EN"
 "http://www.w3.org/TR/2001/REC-SVG-20010904/DTD/svg10.dtd">
<svg version="1.0" xmlns="http://www.w3.org/2000/svg"
 width="96.000000pt" height="68.000000pt" viewBox="0 0 96.000000 68.000000"
 preserveAspectRatio="xMidYMid meet">
<metadata>
Created by potrace 1.16, written by Peter Selinger 2001-2019
Combined from part_0.svg through part_5.svg with named groups
</metadata>
<g transform="translate(0.000000,68.000000) scale(0.100000,-0.100000)" fill="#000000" stroke="none">
<g id="part-0" class="char-part">
  <path d="M701 587 c-6 -6 -11 -16 -11 -23 0 -6 -11 -28 -25 -48 -13 -20 -20
-36 -16 -36 13 0 111 79 111 89 0 15 -47 30 -59 18z"/>
  <path d="M499 532 c37 -53 71 -66 71 -27 0 18 -48 55 -72 55 -19 0 -19 -1 1
-28z"/>
  <path d="M310 505 c-30 -7 -81 -14 -113 -14 -55 -1 -56 -2 -39 -19 10 -10 26
-44 36 -76 17 -54 20 -57 44 -51 36 9 42 -7 42 -106 0 -90 -4 -99 -48 -99 -14
0 -17 10 -15 67 2 54 -1 71 -14 81 -25 18 -45 15 -39 -5 2 -10 8 -48 12 -86
l6 -67 -42 0 c-47 0 -50 -15 -9 -39 23 -13 38 -10 162 30 75 23 137 47 137 52
0 9 -24 6 -84 -9 -25 -6 -26 -5 -26 45 l0 51 46 0 c32 0 44 4 42 12 -3 8 -20
11 -48 9 -37 -2 -42 0 -36 14 3 9 6 27 6 40 0 19 6 24 33 27 27 3 31 7 29 26
-2 12 6 38 17 56 28 44 27 52 -10 65 -18 6 -32 10 -33 10 -1 -1 -26 -7 -56
-14z m33 -67 c-8 -40 -18 -48 -65 -48 -32 0 -37 4 -47 31 -6 18 -11 33 -11 35
0 3 53 10 97 12 31 2 32 1 26 -30z"/>
  <path d="M630 454 c-52 -7 -121 -13 -153 -13 -57 -1 -57 -1 -44 -23 8 -13 20
-49 27 -81 l14 -58 45 6 c25 3 93 7 151 9 l105 3 32 74 c30 68 31 75 16 87
-20 14 -65 14 -193 -4z m133 -17 c3 -7 0 -37 -5 -65 l-11 -52 -58 0 -59 0 0
59 0 60 43 4 c23 2 52 4 63 5 12 1 24 -4 27 -11z m-173 -67 l0 -60 -48 0 -48
0 -10 51 c-10 47 -9 51 10 59 12 5 38 9 59 9 l37 1 0 -60z"/>
  <path d="M677 381 c-24 -41 -22 -43 18 -19 36 20 42 40 14 46 -8 1 -22 -11
-32 -27z"/>
  <path d="M526 354 c11 -17 20 -22 27 -15 12 12 -8 41 -29 41 -12 0 -11 -5 2
-26z"/>
  <path d="M625 249 c-22 -4 -60 -8 -85 -8 l-45 -1 0 -93 c0 -95 8 -125 28 -109
7 5 47 12 91 16 65 6 80 4 90 -9 7 -9 18 -13 28 -10 13 5 17 24 20 98 5 125
-12 140 -127 116z m73 -47 c2 -28 2 -28 -79 -38 -44 -5 -82 -7 -84 -4 -2 3 -1
17 2 32 5 29 19 33 113 36 43 2 46 1 48 -26z m2 -86 l0 -33 -71 -2 c-38 -1
-75 -2 -82 -4 -7 -1 -12 10 -12 28 0 28 3 30 45 33 25 2 49 4 54 5 5 2 22 4
37 5 27 2 29 0 29 -32z"/>
</g>
<g id="part-1" class="char-part">
  <path d="M315 500 c-16 -4 -60 -8 -97 -9 l-67 -1 24 -36 c14 -20 25 -46 25
-58 0 -43 9 -45 110 -32 52 6 88 14 80 18 -13 5 -11 14 12 57 25 49 25 52 8
61 -21 11 -51 11 -95 0z m32 -61 c-3 -22 -8 -43 -10 -46 -3 -2 -27 -5 -53 -6
-46 -2 -48 -1 -56 32 -5 18 -6 36 -3 39 5 5 64 16 114 21 10 1 12 -9 8 -40z"/>
</g>
<g id="part-2" class="char-part">
  <path d="M330 159 c-41 -10 -110 -22 -152 -25 -43 -4 -78 -11 -78 -15 0 -17
50 -41 73 -36 83 21 267 82 267 89 0 11 -24 9 -110 -13z"/>
</g>
<g id="part-3" class="char-part">
  <path d="M691 568 c-5 -13 -21 -40 -35 -60 -14 -21 -23 -38 -20 -38 4 0 35 21
70 47 50 36 61 49 53 60 -18 21 -58 16 -68 -9z"/>
  <path d="M480 552 c0 -16 68 -74 79 -68 18 12 12 34 -15 55 -27 21 -64 28 -64
13z"/>
</g>
<g id="part-4" class="char-part">
  <path d="M630 454 c-52 -8 -121 -13 -153 -12 -53 3 -70 -3 -48 -16 5 -3 17
-38 26 -77 l18 -71 46 7 c25 3 93 7 151 10 l105 4 14 33 c8 18 23 51 33 73 18
38 18 41 1 52 -20 16 -67 15 -193 -3z m135 -14 c4 -6 1 -34 -5 -64 l-11 -53
-120 -9 c-67 -5 -124 -7 -128 -4 -8 5 -31 103 -26 108 3 4 209 29 252 31 17 0
35 -4 38 -9z"/>
</g>
<g id="part-5" class="char-part">
  <path d="M676 241 c25 -11 32 -26 30 -63 -1 -16 3 -28 9 -28 6 0 6 -3 -1 -8
-6 -4 -11 -18 -10 -32 1 -21 -5 -25 -37 -31 -20 -3 -40 -9 -43 -12 -4 -3 10
-3 30 0 31 5 40 2 53 -16 23 -34 33 -14 38 78 4 64 2 81 -7 75 -10 -6 -10 -5
0 8 16 20 -1 33 -48 36 -29 1 -31 0 -14 -7z"/>
  <path d="M504 156 c1 -47 -2 -82 -6 -80 -5 3 -8 0 -8 -5 0 -6 5 -11 11 -11 5
0 7 -4 4 -10 -3 -5 -1 -10 6 -10 7 0 10 13 7 35 -2 19 -1 35 3 35 11 0 18 37
9 47 -14 14 1 63 19 63 14 0 14 2 1 10 -10 6 -16 6 -18 0 -2 -6 -8 -10 -13
-10 -6 0 -7 5 -4 10 3 6 2 10 -3 10 -5 0 -9 -37 -8 -84z"/>
  <path d="M650 166 c0 -2 9 -6 20 -9 11 -3 18 -1 14 4 -5 9 -34 13 -34 5z"/>
  <path d="M585 150 l-20 -9 20 0 c11 0 29 4 40 9 l20 9 -20 0 c-11 0 -29 -4
-40 -9z"/>
  <path d="M545 60 c28 -12 47 -12 40 0 -3 6 -18 10 -33 9 -24 0 -25 -1 -7 -9z"/>
</g>
</g>
</svg>