<?xml version="1.0" standalone="no"?>
<!DOCTYPE svg PUBLIC "-//W3C//DTD SVG 20010904//EN"
 "http://www.w3.org/TR/2001/REC-SVG-20010904/DTD/svg10.dtd">
<svg version="1.0" xmlns="http://www.w3.org/2000/svg"
 width="96.000000pt" height="68.000000pt" viewBox="0 0 96.000000 68.000000"
 preserveAspectRatio="xMidYMid meet">
<metadata>
Created by potrace 1.16, written by Peter Selinger 2001-2019
Combined from part_0.svg through part_5.svg with named groups
</metadata>
<g transform="translate(0.000000,68.000000) scale(0.100000,-0.100000)" fill="#000000" stroke="none">
<g id="part-0" class="char-part">
  <path d="M565 590 c-11 -5 -46 -9 -77 -9 l-57 -1 6 -34 c8 -51 -4 -98 -32
-129 -28 -29 -26 -33 8 -16 42 22 58 49 64 103 l6 54 53 7 c30 3 58 3 64 0 6
-4 8 -25 4 -55 -9 -68 13 -97 81 -105 55 -7 111 8 99 26 -4 7 -27 10 -63 7
-31 -3 -62 -3 -68 -1 -16 6 -17 71 -2 110 8 23 7 30 -7 40 -20 15 -49 16 -79
3z"/>
  <path d="M195 539 c4 -13 9 -54 12 -90 5 -63 4 -66 -18 -72 -13 -4 -37 -7 -52
-7 -49 0 -25 -25 27 -28 l47 -3 -3 -57 -3 -56 -55 -17 c-60 -18 -71 -38 -28
-53 23 -8 41 -2 120 38 51 27 100 55 108 63 16 16 13 16 -65 -3 -24 -6 -25 -5
-25 44 l0 50 38 7 c48 8 67 19 57 35 -5 8 -23 11 -52 7 -43 -5 -44 -4 -39 22
12 68 16 120 9 124 -5 3 -26 8 -47 12 -38 8 -39 7 -31 -16z"/>
  <path d="M524 368 l1 -43 -89 -7 c-49 -4 -91 -10 -94 -13 -13 -13 55 -25 99
-17 27 5 51 7 54 4 7 -7 -92 -104 -140 -135 -22 -15 -36 -27 -33 -27 23 0 122
53 155 84 22 20 43 36 47 36 3 0 6 -42 6 -92 0 -94 9 -126 29 -114 7 5 11 45
11 107 0 58 4 99 9 97 5 -1 36 -28 69 -60 33 -31 69 -61 80 -67 24 -13 114 -3
110 11 -2 5 -26 18 -53 27 -59 21 -86 35 -140 76 -93 70 -90 75 45 75 61 0
110 3 110 8 0 4 -9 13 -21 20 -16 10 -37 10 -101 2 -98 -14 -109 -10 -106 32
3 29 0 33 -23 36 -24 3 -26 1 -25 -40z"/>
</g>
<g id="part-1" class="char-part">
  <path d="M196 552 c-2 -4 -1 -14 5 -22 5 -8 9 -48 9 -87 l0 -73 -39 0 c-22 0
-43 -4 -46 -10 -4 -6 12 -10 39 -10 l46 0 0 -64 0 -64 -62 -19 -63 -19 27 -18
c27 -18 27 -18 133 36 108 54 137 78 64 53 -23 -8 -43 -15 -45 -15 -2 0 -4 27
-4 60 0 56 2 60 23 60 33 0 67 11 67 21 0 5 -20 9 -45 9 -44 0 -45 1 -45 33 0
17 4 48 10 67 7 25 7 37 -3 46 -16 15 -64 26 -71 16z"/>
</g>
<g id="part-2" class="char-part">
  <path d="M438 522 c4 -55 2 -61 -28 -95 -36 -42 -29 -48 20 -14 35 23 46 50
52 120 2 39 1 42 -23 45 -25 3 -25 2 -21 -56z"/>
</g>
<g id="part-3" class="char-part">
  <path d="M565 590 c-11 -5 -32 -9 -47 -9 -15 -1 -30 -6 -34 -12 -5 -8 11 -9
55 -4 l61 7 0 -51 c0 -65 16 -97 53 -111 42 -14 100 -13 123 4 18 14 18 15 1
22 -10 3 -37 4 -61 2 -24 -3 -51 -1 -60 4 -19 11 -21 58 -4 105 6 18 9 35 6
38 -11 11 -73 14 -93 5z"/>
</g>
<g id="part-4" class="char-part">
  <path d="M524 368 c1 -41 -1 -43 -29 -46 -16 -1 -59 -5 -95 -8 -64 -7 -64 -7
-35 -20 22 -9 44 -10 79 -3 27 5 51 7 54 5 7 -7 -75 -91 -118 -121 -22 -15
-38 -30 -36 -32 10 -10 94 37 139 76 l47 43 0 -99 c0 -98 8 -131 29 -119 7 5
11 46 11 114 l0 106 68 -66 c37 -36 77 -71 89 -77 22 -11 99 -5 108 9 2 3 -31
21 -73 38 -69 28 -182 106 -190 132 -2 6 41 10 117 10 122 0 153 10 85 29 -22
6 -56 6 -92 0 -102 -16 -109 -15 -108 29 1 33 -2 37 -25 40 -24 3 -26 1 -25
-40z"/>
</g>
</g>
</svg>