<?xml version="1.0" standalone="no"?>
<!DOCTYPE svg PUBLIC "-//W3C//DTD SVG 20010904//EN"
 "http://www.w3.org/TR/2001/REC-SVG-20010904/DTD/svg10.dtd">
<svg version="1.0" xmlns="http://www.w3.org/2000/svg"
 width="96.000000pt" height="68.000000pt" viewBox="0 0 96.000000 68.000000"
 preserveAspectRatio="xMidYMid meet">
<metadata>
Created by potrace 1.16, written by Peter Selinger 2001-2019
Combined from part_0.svg through part_5.svg with named groups
</metadata>
<g transform="translate(0.000000,68.000000) scale(0.100000,-0.100000)" fill="#000000" stroke="none">
<g id="part-0" class="char-part">
  <path d="M370 591 c0 -5 11 -23 25 -39 13 -16 22 -32 18 -36 -11 -10 -183 -7
-183 4 0 21 -26 9 -38 -17 -7 -16 -20 -40 -29 -55 -17 -26 -17 -28 0 -45 22
-22 46 -10 65 33 l14 30 190 23 c104 13 192 20 195 17 4 -3 -4 -17 -17 -31
-13 -14 -21 -28 -18 -31 9 -9 131 17 146 31 12 10 10 16 -9 34 -35 32 -74 38
-161 26 -73 -11 -78 -10 -78 7 0 10 -15 27 -32 38 -34 21 -88 27 -88 11z"/>
  <path d="M393 417 c-108 -15 -91 -31 27 -25 102 5 126 12 100 28 -17 11 -27
11 -127 -3z"/>
  <path d="M425 328 c-207 -28 -205 -28 -205 -40 0 -7 21 -9 60 -6 33 2 60 0 60
-4 0 -42 -84 -134 -158 -172 -38 -20 -44 -40 -7 -26 82 31 126 64 198 149 21
24 26 36 18 44 -19 19 -12 27 23 27 42 0 46 -10 46 -104 0 -111 32 -136 173
-136 59 0 94 6 125 20 47 21 52 38 25 90 l-16 34 -10 -25 c-17 -44 -24 -54
-48 -66 -30 -16 -125 -17 -168 -2 -39 14 -47 41 -32 110 8 36 8 55 1 64 -14
17 9 25 76 25 55 0 72 13 32 25 -42 12 -53 12 -193 -7z"/>
</g>
<g id="part-1" class="char-part">
  <path d="M380 583 c0 -4 14 -21 31 -39 l31 -32 -97 -7 c-67 -5 -100 -4 -108 4
-15 15 -37 14 -37 -1 0 -7 -9 -24 -20 -38 -11 -14 -20 -35 -20 -47 0 -36 37
-29 61 11 l19 33 168 23 c92 12 182 20 201 18 l33 -3 -21 -27 c-28 -35 -27
-38 12 -28 17 4 49 11 70 15 46 7 48 28 5 56 -34 21 -72 21 -187 3 -39 -6 -41
-5 -41 18 0 17 -8 29 -25 36 -29 13 -75 16 -75 5z"/>
</g>
<g id="part-2" class="char-part">
  <path d="M435 420 c-16 -4 -49 -8 -72 -9 -44 -1 -58 -15 -23 -24 19 -5 180 10
188 18 2 2 1 8 -3 14 -7 12 -45 13 -90 1z"/>
</g>
<g id="part-3" class="char-part">
  <path d="M370 320 c-69 -10 -133 -19 -143 -19 -11 -1 -15 -6 -11 -12 4 -7 29
-10 65 -7 69 5 71 -1 31 -59 -28 -43 -60 -72 -127 -116 -44 -30 -28 -36 31
-11 51 21 102 62 148 119 30 36 35 49 26 59 -6 8 -7 16 -3 19 4 3 63 8 131 12
67 4 122 11 122 15 0 25 -94 25 -270 0z"/>
</g>
<g id="part-4" class="char-part">
  <path d="M458 218 c4 -95 18 -123 67 -144 51 -21 180 -18 231 5 23 10 44 23
46 27 3 5 -3 29 -14 54 l-20 45 -12 -32 c-18 -52 -39 -66 -105 -71 -134 -10
-164 15 -143 116 11 51 10 58 -5 70 -9 6 -24 12 -32 12 -14 0 -16 -13 -13 -82z"/>
</g>
</g>
</svg>