<?xml version="1.0" standalone="no"?>
<!DOCTYPE svg PUBLIC "-//W3C//DTD SVG 20010904//EN"
 "http://www.w3.org/TR/2001/REC-SVG-20010904/DTD/svg10.dtd">
<svg version="1.0" xmlns="http://www.w3.org/2000/svg"
 width="96.000000pt" height="68.000000pt" viewBox="0 0 96.000000 68.000000"
 preserveAspectRatio="xMidYMid meet">
<metadata>
Created by potrace 1.16, written by Peter Selinger 2001-2019
Combined from part_0.svg through part_5.svg with named groups
</metadata>
<g transform="translate(0.000000,68.000000) scale(0.100000,-0.100000)" fill="#000000" stroke="none">
<g id="part-0" class="char-part">
  <path d="M525 563 c0 -35 -3 -38 -30 -41 -49 -6 -54 -22 -7 -22 38 0 42 -2 42
-24 0 -22 -6 -25 -62 -35 -59 -9 -55 -10 50 -6 l112 3 0 -34 c0 -31 -3 -34
-30 -34 -16 0 -30 -4 -30 -10 0 -5 16 -10 35 -10 31 0 35 -3 35 -25 0 -20 -5
-25 -27 -26 -16 0 -37 -4 -48 -8 -35 -14 27 -22 85 -11 29 6 70 10 91 10 21 0
40 4 43 9 10 15 -25 22 -72 15 -42 -6 -44 -6 -40 17 2 19 10 25 36 27 17 2 32
7 32 12 0 12 -28 20 -45 14 -11 -5 -15 1 -15 20 0 18 -6 26 -17 27 -10 1 0 7
22 14 l40 13 -28 7 c-15 4 -50 4 -78 1 -47 -6 -49 -6 -49 18 0 22 6 26 45 32
56 8 60 28 5 22 -39 -3 -40 -3 -40 29 0 29 -3 33 -27 33 -26 0 -28 -3 -28 -37z"/>
  <path d="M256 528 c-10 -6 -47 -11 -82 -11 -35 0 -64 -1 -64 -2 0 0 9 -18 20
-40 11 -22 20 -49 20 -60 0 -12 6 -29 13 -39 12 -16 16 -17 35 -5 32 20 39 5
47 -97 l7 -91 -26 -5 c-14 -3 -28 -3 -31 0 -3 3 -5 31 -5 63 0 50 -3 57 -22
62 -12 4 -24 5 -26 3 -2 -2 1 -34 6 -70 9 -72 5 -81 -33 -72 -34 9 -40 -10 -9
-30 25 -17 28 -17 72 0 26 10 79 29 117 43 105 38 110 56 8 27 -22 -6 -23 -3
-23 40 0 43 1 46 28 46 15 0 34 5 42 10 11 7 4 10 -26 10 l-42 0 2 38 c3 32 7
37 30 40 22 3 26 7 21 23 -4 12 2 37 15 60 16 32 18 44 9 55 -14 17 -76 18
-103 2z m34 -63 c0 -29 -5 -37 -26 -45 -43 -17 -71 -12 -78 13 -14 55 -7 61
77 66 25 1 27 -2 27 -34z"/>
  <path d="M420 380 c0 -25 -4 -30 -25 -30 -14 0 -25 -4 -25 -10 0 -5 12 -10 28
-10 22 0 27 -5 28 -25 2 -25 -10 -31 -58 -27 -26 2 -22 -17 5 -23 13 -4 55 5
97 20 62 21 68 25 33 20 -42 -5 -43 -5 -43 25 0 27 3 30 31 30 19 0 28 4 23
11 -3 6 -17 8 -30 5 -21 -6 -24 -3 -24 19 0 18 -5 25 -20 25 -16 0 -20 -7 -20
-30z"/>
  <path d="M575 233 c-90 -15 -120 -19 -163 -21 -36 -3 -15 -22 24 -22 19 0 34
-3 34 -7 -2 -26 -65 -103 -116 -141 -36 -27 -16 -28 35 -2 49 24 121 106 121
135 0 15 8 25 22 28 33 9 38 1 38 -61 0 -31 3 -67 6 -79 13 -49 121 -68 222
-38 58 17 63 30 36 84 -16 32 -34 34 -34 3 0 -10 -7 -28 -16 -40 -13 -19 -24
-22 -82 -22 -37 0 -73 4 -80 9 -10 6 -13 28 -10 78 l3 71 59 7 c58 6 65 19 16
29 -14 2 -65 -2 -115 -11z"/>
</g>
<g id="part-1" class="char-part">
  <path d="M255 523 c-22 -8 -61 -13 -88 -11 -26 2 -47 2 -47 0 0 -2 5 -13 12
-25 6 -12 16 -42 23 -67 6 -25 16 -45 21 -44 5 0 41 4 80 8 69 8 71 9 72 36 0
16 8 43 17 60 29 56 -7 73 -90 43z m45 -27 c0 -37 -14 -76 -29 -80 -74 -21
-78 -20 -89 26 -6 23 -9 44 -6 47 4 5 73 17 107 20 9 0 17 -5 17 -13z"/>
</g>
<g id="part-2" class="char-part">
  <path d="M320 211 c-33 -20 -183 -52 -211 -46 -34 8 -37 -4 -9 -30 13 -11 29
-16 47 -12 36 6 215 76 228 88 12 12 -35 12 -55 0z"/>
</g>
<g id="part-3" class="char-part">
  <path d="M523 566 c2 -39 0 -41 -28 -44 -49 -6 -54 -22 -6 -22 38 0 42 -2 39
-22 -3 -20 -12 -25 -63 -34 -54 -9 -57 -11 -30 -17 17 -4 57 -3 90 3 33 5 83
10 110 11 56 0 95 12 78 22 -16 10 -53 11 -100 3 -41 -7 -43 -7 -43 17 0 22 6
26 45 31 24 4 47 11 50 16 8 13 -29 22 -59 14 -24 -6 -26 -3 -26 24 0 25 -4
30 -29 34 -29 4 -29 3 -28 -36z"/>
</g>
<g id="part-4" class="char-part">
  <path d="M416 381 c5 -25 3 -29 -28 -36 l-33 -8 35 -6 c26 -5 36 -11 38 -28 3
-19 -2 -23 -25 -24 -15 -1 -34 -1 -42 0 -7 2 -11 -4 -9 -11 7 -22 39 -20 113
7 51 18 60 24 32 19 -37 -5 -38 -4 -35 23 2 22 9 29 33 34 28 5 29 6 8 13 -13
4 -27 4 -33 1 -6 -4 -10 5 -10 19 0 21 -5 26 -25 26 -22 0 -24 -3 -19 -29z"/>
</g>
<g id="part-5" class="char-part">
  <path d="M571 163 c-1 -24 3 -43 9 -43 5 0 7 -12 4 -28 -7 -33 20 -62 63 -67
15 -2 44 -6 63 -9 25 -4 31 -3 20 4 -11 7 -3 8 26 4 30 -4 45 -2 56 10 9 8 18
12 22 9 6 -6 8 0 10 30 1 6 -6 12 -14 12 -10 0 -14 9 -13 25 2 21 1 20 -10 -7
-19 -51 -30 -57 -112 -57 -89 0 -112 14 -95 58 5 15 10 43 10 63 0 29 -2 33
-14 24 -11 -9 -15 -9 -19 1 -3 7 -6 -6 -6 -29z"/>
</g>
</g>
</svg>