<?xml version="1.0" standalone="no"?>
<!DOCTYPE svg PUBLIC "-//W3C//DTD SVG 20010904//EN"
 "http://www.w3.org/TR/2001/REC-SVG-20010904/DTD/svg10.dtd">
<svg version="1.0" xmlns="http://www.w3.org/2000/svg"
 width="96.000000pt" height="68.000000pt" viewBox="0 0 96.000000 68.000000"
 preserveAspectRatio="xMidYMid meet">
<metadata>
Created by potrace 1.16, written by Peter Selinger 2001-2019
Combined from part_0.svg through part_5.svg with named groups
</metadata>
<g transform="translate(0.000000,68.000000) scale(0.100000,-0.100000)" fill="#000000" stroke="none">
<g id="part-0" class="char-part">
  <path d="M256 545 c-10 -38 -67 -122 -93 -136 -32 -17 -31 -57 1 -65 14 -3 30
-3 37 1 6 4 27 11 46 16 l36 7 -39 -41 c-22 -23 -49 -50 -61 -61 -21 -18 -22
-21 -7 -37 15 -17 19 -17 44 -4 58 30 122 47 133 36 15 -15 47 -14 47 2 0 18
-28 43 -58 52 -21 6 -23 4 -18 -12 5 -16 -1 -22 -35 -32 -22 -7 -44 -10 -47
-6 -5 5 39 55 116 130 35 36 40 56 16 76 -18 14 -27 6 -45 -43 -9 -22 -18 -27
-60 -33 -28 -4 -52 -5 -54 -3 -2 2 24 34 57 72 50 55 60 71 51 85 -5 9 -21 17
-35 19 -20 2 -27 -2 -32 -23z"/>
  <path d="M595 495 c-27 -8 -65 -14 -82 -15 -18 0 -33 -5 -33 -11 0 -9 25 -10
88 -6 101 7 134 15 129 31 -5 16 -46 17 -102 1z"/>
  <path d="M675 380 c-27 -5 -90 -13 -140 -19 -121 -15 -146 -21 -139 -32 7 -12
56 -11 110 2 25 6 47 9 51 6 8 -9 -53 -101 -95 -143 l-36 -36 22 -19 c17 -13
29 -16 45 -9 28 12 185 50 206 50 9 0 25 -13 34 -30 21 -35 43 -39 52 -10 9
28 -16 64 -65 95 -52 33 -66 32 -41 -4 l21 -29 -27 -6 c-65 -13 -157 -25 -161
-21 -5 5 37 63 75 105 13 14 23 34 23 46 0 20 7 21 102 28 106 7 122 11 98 26
-17 11 -63 11 -135 0z"/>
  <path d="M330 212 c0 -5 10 -18 23 -30 16 -15 26 -18 37 -11 13 8 11 12 -9 29
-24 20 -51 27 -51 12z"/>
  <path d="M230 195 c0 -16 31 -63 45 -69 25 -9 27 -8 23 21 -2 19 -12 30 -35
40 -18 7 -33 11 -33 8z"/>
  <path d="M130 159 c0 -21 41 -79 56 -79 24 0 16 47 -12 69 -30 23 -44 27 -44
10z"/>
</g>
<g id="part-1" class="char-part">
  <path d="M264 553 c-13 -44 -42 -91 -81 -132 -47 -49 -49 -54 -30 -69 10 -8
32 -5 83 11 l69 21 -49 6 -50 5 62 71 c59 68 61 72 43 88 -23 21 -40 20 -47
-1z"/>
</g>
<g id="part-2" class="char-part">
  <path d="M330 213 c1 -19 41 -55 55 -49 21 8 19 22 -7 40 -24 17 -48 21 -48 9z"/>
  <path d="M230 185 c0 -14 45 -65 57 -65 18 0 16 35 -3 54 -14 15 -54 23 -54
11z"/>
  <path d="M139 132 c26 -51 49 -70 57 -48 10 27 -4 62 -31 74 -42 19 -47 14
-26 -26z"/>
</g>
<g id="part-3" class="char-part">
  <path d="M563 492 c-46 -9 -83 -20 -83 -26 0 -5 35 -6 88 -3 101 7 134 15 129
31 -5 16 -42 16 -134 -2z"/>
</g>
<g id="part-4" class="char-part">
  <path d="M605 370 c-71 -11 -150 -22 -174 -25 -32 -5 -40 -10 -32 -18 8 -8 30
-8 83 1 39 7 130 17 202 23 130 11 145 14 133 25 -13 14 -91 11 -212 -6z"/>
</g>
<g id="part-5" class="char-part">
  <path d="M552 305 c-6 -14 -9 -33 -6 -42 4 -14 3 -15 -4 -5 -7 11 -14 7 -30
-16 -12 -16 -19 -32 -17 -36 3 -3 2 -4 -2 -1 -9 7 -53 -35 -53 -51 0 -17 25
-24 40 -11 10 9 11 9 6 0 -4 -7 1 -9 15 -6 16 5 18 8 7 15 -9 6 -3 8 20 5 17
-2 32 0 32 5 0 5 11 6 24 2 14 -3 27 -1 31 6 6 9 -7 11 -54 5 -65 -7 -73 -2
-43 31 49 55 91 112 85 118 -14 14 -41 4 -51 -19z"/>
  <path d="M698 217 c5 -19 62 -87 73 -87 4 0 4 35 0 61 -1 3 -18 15 -40 26
l-39 21 6 -21z m48 -27 c5 1 10 -4 12 -12 2 -9 0 -8 -7 2 -10 13 -11 13 -11 0
0 -13 -1 -13 -10 0 -5 8 -10 20 -10 25 0 6 4 4 9 -3 4 -8 12 -13 17 -12z"/>
  <path d="M640 179 c0 -5 5 -7 10 -4 6 3 10 8 10 11 0 2 -4 4 -10 4 -5 0 -10
-5 -10 -11z"/>
</g>
</g>
</svg>