<?xml version="1.0" standalone="no"?>
<!DOCTYPE svg PUBLIC "-//W3C//DTD SVG 20010904//EN"
 "http://www.w3.org/TR/2001/REC-SVG-20010904/DTD/svg10.dtd">
<svg version="1.0" xmlns="http://www.w3.org/2000/svg"
 width="96.000000pt" height="68.000000pt" viewBox="0 0 96.000000 68.000000"
 preserveAspectRatio="xMidYMid meet">
<metadata>
Created by potrace 1.16, written by Peter Selinger 2001-2019
Combined from part_0.svg through part_5.svg with named groups
</metadata>
<g transform="translate(0.000000,68.000000) scale(0.100000,-0.100000)" fill="#000000" stroke="none">
<g id="part-0" class="char-part">
  <path d="M395 582 c7 -46 -4 -58 -58 -64 -35 -4 -38 -2 -45 26 -7 27 -13 31
-46 34 l-38 3 22 -29 c29 -39 19 -52 -35 -52 -45 0 -67 -13 -39 -24 9 -3 35
-6 58 -6 39 0 43 -2 51 -32 8 -25 16 -33 32 -32 22 0 39 -31 22 -42 -5 -3 -40
-6 -76 -6 -56 0 -64 -2 -50 -13 9 -6 22 -29 29 -51 13 -38 14 -39 56 -36 39 3
42 2 42 -21 0 -26 3 -26 -137 -43 -29 -4 -53 -10 -53 -14 0 -14 37 -18 82 -9
23 4 58 8 76 9 l33 0 -2 -47 c-2 -51 7 -93 20 -93 10 0 21 60 21 118 0 41 1
42 34 42 57 0 126 12 126 22 0 6 -30 7 -80 3 l-80 -7 0 25 c0 19 6 26 31 31
17 3 42 6 55 6 14 0 24 6 24 14 0 7 9 25 20 39 l21 26 -21 11 c-12 6 -44 10
-72 8 -44 -3 -51 0 -59 20 -8 21 -6 22 32 22 27 0 39 4 37 13 -1 6 1 24 5 40
7 24 12 27 52 27 57 0 63 26 9 36 -32 6 -35 9 -29 34 5 24 2 29 -26 39 -48 17
-51 15 -44 -27z m-15 -107 c0 -15 -30 -35 -53 -35 -18 0 -29 37 -13 44 26 11
66 6 66 -9z m60 -133 c0 -26 -20 -42 -52 -42 -24 0 -28 4 -28 30 0 28 2 30 40
30 32 0 40 -4 40 -18z m-117 -4 c2 -7 1 -23 -4 -35 -6 -17 -16 -23 -39 -23
-19 0 -30 5 -30 14 0 8 -3 21 -6 29 -4 11 2 17 18 20 43 8 56 7 61 -5z"/>
  <path d="M634 525 c9 -34 -4 -126 -18 -130 -6 -2 -28 -6 -48 -10 -55 -9 -49
-29 7 -23 25 3 45 2 45 -2 0 -4 -9 -32 -19 -62 -24 -71 -62 -130 -117 -183
-24 -24 -44 -45 -44 -48 0 -15 47 11 91 50 60 54 91 106 119 195 18 59 24 67
51 73 62 14 69 -31 27 -188 -22 -84 -42 -106 -78 -87 -15 8 -20 8 -20 -2 1
-22 37 -58 59 -58 39 0 69 58 101 200 16 74 30 137 30 141 0 16 -50 26 -91 19
-24 -5 -47 -5 -50 -2 -4 4 -1 31 7 61 16 61 8 81 -33 81 -22 0 -24 -3 -19 -25z"/>
</g>
<g id="part-1" class="char-part">
  <path d="M400 565 c0 -36 -3 -45 -17 -45 -10 0 -35 -3 -55 -6 -36 -6 -38 -5
-38 19 0 27 -24 47 -56 47 -15 0 -16 -2 -2 -17 8 -10 18 -28 20 -39 5 -20 0
-23 -51 -29 -49 -7 -53 -8 -31 -17 14 -5 39 -7 57 -3 29 5 33 3 39 -22 10 -42
22 -53 47 -43 12 5 43 12 70 15 26 3 45 10 42 15 -3 5 -3 20 1 34 5 20 14 25
56 31 54 8 54 24 0 28 -27 2 -30 5 -25 25 6 27 -12 52 -38 52 -16 0 -19 -8
-19 -45z m-10 -76 c0 -29 -22 -49 -55 -49 -30 0 -35 3 -35 24 0 20 6 25 33 29
17 2 38 5 45 5 6 1 12 -3 12 -9z"/>
</g>
<g id="part-2" class="char-part">
  <path d="M327 263 c-4 -3 -7 -17 -7 -29 0 -19 -7 -24 -42 -28 -166 -22 -165
-22 -136 -34 20 -8 43 -9 79 -2 99 19 100 18 97 -50 -2 -57 12 -94 29 -77 4 4
9 40 12 80 5 63 9 72 26 74 108 10 135 16 129 25 -4 6 -33 8 -80 3 l-74 -7 0
26 c0 24 -18 35 -33 19z"/>
</g>
<g id="part-3" class="char-part">
  <path d="M635 518 c8 -47 -7 -122 -25 -125 -67 -8 -90 -15 -84 -25 4 -6 25 -8
51 -5 44 5 45 4 38 -22 -16 -67 -75 -169 -130 -224 -57 -56 -60 -70 -7 -43 34
18 115 103 135 142 8 16 24 59 36 96 18 53 27 67 46 72 14 4 25 10 25 15 0 5
-9 7 -20 4 -24 -6 -26 14 -9 84 13 50 5 63 -39 63 -20 0 -22 -4 -17 -32z"/>
</g>
<g id="part-4" class="char-part">
  <path d="M743 413 c-25 -5 -32 -23 -9 -23 18 0 28 -42 20 -88 -9 -57 -35 -144
-51 -175 -12 -24 -18 -27 -44 -22 -33 8 -36 -1 -10 -32 24 -29 52 -29 78 0 30
33 31 36 58 162 14 65 30 126 35 136 9 15 5 21 -19 34 -17 8 -31 14 -33 14 -2
-1 -13 -4 -25 -6z"/>
</g>
</g>
</svg>