<?xml version="1.0" standalone="no"?>
<!DOCTYPE svg PUBLIC "-//W3C//DTD SVG 20010904//EN"
 "http://www.w3.org/TR/2001/REC-SVG-20010904/DTD/svg10.dtd">
<svg version="1.0" xmlns="http://www.w3.org/2000/svg"
 width="96.000000pt" height="68.000000pt" viewBox="0 0 96.000000 68.000000"
 preserveAspectRatio="xMidYMid meet">
<metadata>
Created by potrace 1.16, written by Peter Selinger 2001-2019
Combined from part_0.svg through part_5.svg with named groups
</metadata>
<g transform="translate(0.000000,68.000000) scale(0.100000,-0.100000)" fill="#000000" stroke="none">
<g id="part-0" class="char-part">
  <path d="M530 551 c0 -5 11 -23 25 -39 14 -17 25 -32 25 -35 0 -3 -31 -8 -70
-12 -38 -4 -67 -11 -64 -16 3 -5 9 -7 13 -5 4 3 12 2 18 -2 13 -8 53 -95 53
-115 0 -15 -40 -27 -87 -27 -15 0 -22 -4 -17 -11 4 -8 29 -9 78 -4 39 4 126
10 193 14 67 4 125 10 129 14 16 16 -12 22 -93 20 l-84 -2 31 56 c25 44 29 58
18 64 -9 6 -3 10 20 15 18 4 31 12 29 18 -4 12 -42 14 -98 4 -34 -6 -37 -4
-42 21 -7 33 -77 71 -77 42z m116 -127 c0 -16 -5 -43 -12 -61 -7 -17 -10 -34
-6 -37 3 -3 -11 -6 -31 -6 -34 0 -37 2 -37 30 0 19 -9 38 -27 54 -34 32 -24
44 42 49 69 5 70 4 71 -29z"/>
  <path d="M305 510 c-16 -4 -55 -8 -85 -9 l-55 -1 1 -135 c2 -147 6 -170 30
-161 48 19 30 -28 -40 -102 -28 -29 -34 -41 -21 -36 26 10 145 105 145 117 0
5 -10 11 -22 15 -21 5 -21 6 -2 13 32 13 73 10 99 -7 24 -15 25 -15 34 8 5 13
11 83 12 154 3 128 3 129 -21 141 -27 14 -31 14 -75 3z m35 -64 c0 -32 -2 -34
-46 -40 -73 -10 -74 -9 -74 28 0 37 7 41 88 45 30 1 32 -1 32 -33z m0 -90 c0
-19 -6 -24 -37 -30 -70 -11 -83 -8 -83 18 0 21 5 25 38 29 82 8 82 8 82 -17z
m10 -86 c0 -25 -4 -30 -24 -30 -13 0 -44 -3 -70 -6 l-48 -7 4 29 c3 26 7 30
48 35 90 12 90 12 90 -21z"/>
  <path d="M625 230 c-16 -4 -63 -8 -104 -9 -62 -1 -72 -3 -62 -15 7 -8 20 -43
29 -78 10 -35 22 -63 27 -63 6 1 60 4 122 9 103 7 111 9 101 26 -9 13 -6 28
12 64 22 46 22 48 4 61 -20 15 -80 18 -129 5z m63 -70 c-3 -28 -7 -52 -9 -54
-2 -2 -37 -6 -76 -8 -80 -6 -76 -9 -88 64 l-7 37 53 4 c30 2 71 4 93 5 l39 2
-5 -50z"/>
  <path d="M320 164 c0 -7 52 -77 65 -86 13 -10 24 10 18 33 -8 29 -83 77 -83
53z"/>
</g>
<g id="part-1" class="char-part">
  <path d="M265 498 c-22 -5 -54 -6 -72 -3 l-32 6 11 -32 c7 -20 9 -68 5 -130
-6 -93 -5 -99 13 -99 13 0 20 8 22 28 3 26 5 27 71 30 66 3 67 3 67 -23 0 -18
5 -25 19 -25 17 0 19 11 23 118 5 98 3 119 -10 130 -18 14 -59 14 -117 0z m75
-34 c17 -44 13 -50 -51 -62 -70 -13 -79 -10 -79 21 0 35 15 49 56 57 61 12 64
11 74 -16z m10 -103 c0 -31 0 -32 -98 -46 l-43 -7 3 34 c3 33 4 33 57 35 30 2
57 5 59 8 13 13 22 3 22 -24z"/>
</g>
<g id="part-2" class="char-part">
  <path d="M214 179 c-9 -17 -34 -52 -57 -77 l-42 -45 35 18 c48 24 132 95 127
108 -1 5 -13 14 -25 18 -18 7 -25 3 -38 -22z"/>
  <path d="M317 166 c14 -23 58 -81 67 -88 13 -9 26 0 26 17 0 22 -48 72 -75 77
-16 3 -22 1 -18 -6z"/>
</g>
<g id="part-3" class="char-part">
  <path d="M530 554 c0 -12 35 -64 43 -64 4 0 6 -4 3 -9 -3 -5 -36 -12 -72 -16
-47 -5 -63 -10 -55 -18 7 -7 49 -6 145 6 141 16 161 21 150 39 -6 10 -86 4
-119 -8 -11 -5 -15 1 -15 19 0 15 -9 32 -22 41 -22 16 -58 22 -58 10z"/>
</g>
<g id="part-4" class="char-part">
  <path d="M649 428 c-1 -62 -22 -102 -57 -109 -31 -6 -32 -5 -32 25 0 21 -10
43 -31 65 -16 18 -32 31 -35 28 -3 -2 4 -28 16 -56 11 -28 20 -56 20 -60 0 -5
-25 -12 -56 -16 -38 -4 -53 -10 -46 -17 7 -7 45 -6 118 1 60 6 148 13 197 17
48 3 87 10 87 14 0 16 -42 22 -111 15 -38 -4 -69 -4 -69 -1 0 3 13 27 29 53
31 50 28 73 -10 73 -15 0 -19 -8 -20 -32z"/>
</g>
<g id="part-5" class="char-part">
  <path d="M655 230 c-31 -8 -28 -11 15 -13 24 -2 25 -5 22 -57 -2 -30 -7 -56
-13 -58 -21 -8 -7 -22 22 -22 25 0 29 3 25 18 -3 10 3 35 14 57 11 22 20 45
20 51 0 11 -53 36 -69 33 -3 -1 -19 -5 -36 -9z m85 -26 c0 -8 -19 -13 -24 -6
-3 5 1 9 9 9 8 0 15 -2 15 -3z"/>
  <path d="M457 213 c15 -11 44 -89 36 -97 -4 -3 -1 -6 6 -6 7 0 9 -4 6 -10 -3
-5 -1 -10 5 -10 6 0 9 -4 6 -9 -3 -4 8 -8 23 -7 32 1 32 4 -1 21 -14 6 -22 18
-20 29 2 12 -1 16 -9 10 -9 -5 -10 -2 -6 10 4 10 7 26 7 36 0 13 9 20 28 23
19 3 15 4 -15 6 -23 0 -50 4 -60 7 -12 4 -14 3 -6 -3z"/>
  <path d="M645 90 c3 -5 8 -10 11 -10 2 0 4 5 4 10 0 6 -5 10 -11 10 -5 0 -7
-4 -4 -10z"/>
</g>
</g>
</svg>