<?xml version="1.0" standalone="no"?>
<!DOCTYPE svg PUBLIC "-//W3C//DTD SVG 20010904//EN"
 "http://www.w3.org/TR/2001/REC-SVG-20010904/DTD/svg10.dtd">
<svg version="1.0" xmlns="http://www.w3.org/2000/svg"
 width="96.000000pt" height="68.000000pt" viewBox="0 0 96.000000 68.000000"
 preserveAspectRatio="xMidYMid meet">
<metadata>
Created by potrace 1.16, written by Peter Selinger 2001-2019
Combined from part_0.svg through part_5.svg with named groups
</metadata>
<g transform="translate(0.000000,68.000000) scale(0.100000,-0.100000)" fill="#000000" stroke="none">
<g id="part-0" class="char-part">
  <path d="M419 607 c-1 -7 0 -24 1 -39 2 -28 1 -28 -67 -28 -56 -1 -65 -3 -52
-13 9 -7 24 -27 33 -46 17 -31 20 -33 57 -27 36 6 39 5 39 -18 0 -13 -6 -24
-12 -23 -95 3 -148 -12 -98 -28 18 -6 228 30 239 40 2 3 16 -4 31 -15 36 -26
40 -25 40 5 0 20 -6 25 -37 31 -25 5 -38 3 -41 -5 -5 -16 -72 -14 -72 3 0 16
30 26 78 26 25 0 32 4 32 19 0 10 7 24 15 31 8 7 15 16 15 21 0 12 -41 22 -85
20 -33 -1 -42 2 -50 21 -11 24 -64 44 -66 25z m121 -85 c0 -14 -23 -32 -42
-32 -11 0 -18 7 -18 20 0 16 7 20 30 20 17 0 30 -4 30 -8z m-112 -19 c-4 -22
-47 -30 -59 -11 -15 23 -10 28 27 28 28 0 35 -3 32 -17z"/>
  <path d="M544 389 c-3 -6 -1 -15 6 -19 12 -8 -34 -20 -76 -20 -25 0 -32 -14
-13 -25 6 -4 14 -17 18 -29 6 -16 17 -21 42 -21 27 0 34 -4 34 -20 0 -17 -8
-20 -52 -23 -29 -2 -53 -7 -53 -12 0 -20 53 -21 140 -4 l90 17 25 -23 c21 -20
45 -21 45 -1 0 20 -40 51 -71 56 -19 3 -28 3 -21 -1 21 -10 2 -24 -33 -24 -27
0 -33 4 -32 20 1 15 11 21 44 26 24 3 43 11 43 17 0 6 8 19 17 29 15 17 15 20
3 28 -8 6 -33 10 -55 10 -22 0 -49 7 -59 15 -24 18 -33 19 -42 4z m106 -46
c-1 -23 -45 -50 -55 -33 -10 17 8 40 31 40 13 0 24 -3 24 -7z m-100 -23 c0
-15 -7 -20 -25 -20 -18 0 -25 5 -25 20 0 15 7 20 25 20 18 0 25 -5 25 -20z"/>
  <path d="M279 373 c-1 -5 -2 -15 -3 -23 -1 -11 -17 -17 -56 -21 -30 -3 -50 -6
-43 -7 6 -1 20 -17 31 -36 16 -28 25 -33 46 -29 22 5 26 2 26 -20 0 -28 -20
-37 -87 -37 -24 0 -43 -4 -43 -10 0 -20 49 -20 123 -1 87 24 124 26 129 9 5
-13 28 -2 28 12 0 5 -11 17 -25 26 -22 15 -26 15 -40 0 -22 -22 -45 -20 -45 3
0 22 18 31 63 32 18 0 26 3 19 6 -10 4 -10 9 4 24 24 27 11 51 -28 49 -51 -3
-58 -1 -58 15 0 15 -39 22 -41 8z m86 -53 c8 -13 -13 -40 -31 -40 -8 0 -14 10
-14 25 0 18 5 25 19 25 11 0 23 -5 26 -10z m-85 -20 c0 -25 -29 -38 -41 -19
-15 25 -10 39 16 39 18 0 25 -5 25 -20z"/>
  <path d="M410 169 c-58 -5 -115 -10 -128 -11 l-22 -3 25 -47 c32 -61 32 -68
-7 -68 -60 0 -138 -13 -132 -21 5 -9 635 -2 663 7 11 3 11 7 0 20 -10 12 -30
15 -96 12 -46 -2 -83 1 -83 5 0 12 21 50 37 65 18 18 16 29 -6 42 -22 11 -98
11 -251 -1z m186 -46 c-13 -71 -15 -73 -56 -73 -42 0 -44 8 -12 57 8 13 12 30
8 38 -4 12 3 15 30 15 l36 0 -6 -37z m-108 -20 c-2 -40 -7 -49 -24 -51 -18 -3
-23 5 -33 42 -6 25 -11 47 -11 50 0 3 16 6 36 6 l35 0 -3 -47z m-89 6 c19 -56
15 -69 -23 -69 -36 0 -46 15 -46 73 0 23 4 27 29 27 24 0 31 -6 40 -31z"/>
</g>
<g id="part-1" class="char-part">
  <path d="M424 575 l7 -35 -73 0 c-66 0 -71 -1 -52 -15 12 -8 27 -27 33 -43 12
-28 15 -29 57 -24 40 4 44 3 44 -17 0 -28 28 -27 32 2 3 19 10 22 60 25 42 2
56 6 52 16 -3 7 2 19 11 26 39 32 2 56 -71 45 -42 -6 -44 -5 -44 18 0 24 -16
37 -47 37 -12 0 -14 -7 -9 -35z m124 -57 c-2 -19 -10 -24 -40 -26 -32 -3 -38
0 -38 17 0 19 10 23 68 30 8 0 12 -7 10 -21z m-118 -14 c0 -23 -3 -25 -32 -22
-37 3 -51 33 -21 41 42 11 53 7 53 -19z"/>
</g>
<g id="part-2" class="char-part">
  <path d="M578 419 c33 -29 52 -31 52 -4 0 18 -31 35 -62 35 -22 -1 -21 -2 10
-31z"/>
</g>
<g id="part-3" class="char-part">
  <path d="M273 358 c2 -21 -3 -24 -53 -29 -30 -3 -49 -6 -42 -7 7 -1 20 -18 29
-38 15 -31 21 -35 45 -30 23 5 28 2 28 -14 0 -13 7 -20 20 -20 13 0 20 7 20
19 0 19 25 31 68 31 14 0 21 4 17 11 -4 5 0 18 9 28 15 16 15 20 1 31 -8 7
-30 10 -50 8 -27 -3 -36 0 -41 14 -3 11 -15 18 -30 18 -19 0 -23 -5 -21 -22z
m85 -50 c-4 -29 -38 -38 -38 -10 0 22 8 32 27 32 9 0 13 -8 11 -22z m-78 -13
c0 -30 -25 -34 -39 -6 -12 21 -5 31 21 31 13 0 18 -7 18 -25z"/>
</g>
<g id="part-4" class="char-part">
  <path d="M687 229 c39 -39 63 -45 63 -14 0 16 -60 55 -86 55 -15 0 -10 -9 23
-41z"/>
</g>
<g id="part-5" class="char-part">
  <path d="M504 139 c-7 -12 -14 -79 -8 -79 2 0 11 14 20 31 11 23 12 29 2 23
-11 -6 -11 -5 0 8 8 10 9 19 3 22 -5 4 -13 1 -17 -5z"/>
  <path d="M406 115 c8 -45 24 -67 20 -27 -2 19 -8 38 -14 44 -8 8 -10 3 -6 -17z"/>
  <path d="M660 49 c-25 -3 -59 -6 -77 -5 -17 1 -29 -2 -27 -6 3 -5 62 -8 132
-8 112 0 124 2 102 13 -28 15 -61 16 -130 6z"/>
  <path d="M355 37 c-33 -5 -94 -9 -135 -9 -61 1 -69 -1 -45 -9 17 -5 57 -6 90
-3 33 3 103 7 155 9 120 4 120 4 120 13 0 10 -112 9 -185 -1z"/>
</g>
</g>
</svg>