<?xml version="1.0" standalone="no"?>
<!DOCTYPE svg PUBLIC "-//W3C//DTD SVG 20010904//EN"
 "http://www.w3.org/TR/2001/REC-SVG-20010904/DTD/svg10.dtd">
<svg version="1.0" xmlns="http://www.w3.org/2000/svg"
 width="96.000000pt" height="68.000000pt" viewBox="0 0 96.000000 68.000000"
 preserveAspectRatio="xMidYMid meet">
<metadata>
Created by potrace 1.16, written by Peter Selinger 2001-2019
Combined from part_0.svg through part_5.svg with named groups
</metadata>
<g transform="translate(0.000000,68.000000) scale(0.100000,-0.100000)" fill="#000000" stroke="none">
<g id="part-0" class="char-part">
  <path d="M570 516 c0 -69 -6 -76 -72 -76 -15 0 -30 -4 -33 -10 -4 -6 13 -10
44 -10 l51 0 0 -39 0 -38 -55 -6 c-30 -3 -69 -2 -85 3 -34 10 -34 11 -20 -26
8 -20 8 -54 0 -116 -8 -65 -7 -94 1 -109 20 -38 33 -3 39 109 l5 107 29 0 c23
0 34 -7 49 -32 l19 -33 -26 0 c-40 0 -31 -18 12 -22 56 -5 48 -29 -13 -43 -43
-10 -46 -13 -25 -18 14 -3 36 -5 50 -4 23 2 25 -2 27 -47 1 -27 4 -51 7 -54 9
-8 26 47 26 84 l0 34 60 0 c33 0 60 4 60 10 0 11 -15 13 -72 10 -29 -1 -38 2
-38 14 0 18 38 36 76 36 13 0 24 5 24 11 0 7 -15 10 -40 7 -46 -4 -48 0 -20
30 11 12 19 27 18 34 -3 15 42 23 78 14 23 -6 24 -10 24 -92 0 -100 -19 -161
-47 -149 -54 22 -56 20 -28 -24 29 -43 43 -48 76 -30 29 15 39 50 55 179 14
115 14 115 -8 133 -16 14 -32 17 -58 13 -19 -3 -63 -8 -97 -12 -60 -6 -63 -6
-63 15 0 43 17 58 72 65 29 4 59 11 67 15 24 15 -17 30 -53 20 -66 -19 -81 -3
-54 57 11 23 10 28 -7 40 -10 8 -27 14 -37 14 -15 0 -18 -9 -18 -64z m50 -211
c0 -14 -4 -25 -10 -25 -5 0 -10 -7 -10 -15 0 -8 -9 -15 -20 -15 -11 0 -20 6
-20 13 0 8 -9 22 -21 33 l-21 19 28 6 c61 14 74 11 74 -16z"/>
  <path d="M257 504 c14 -115 18 -108 -65 -118 -87 -11 -92 -30 -9 -34 31 -2 57
-7 57 -13 0 -26 -57 -112 -117 -179 -13 -14 -18 -27 -13 -28 17 -6 83 44 118
90 l32 42 0 -30 c0 -16 -5 -57 -10 -91 -11 -67 -1 -113 24 -113 27 0 36 37 36
144 l0 106 20 -20 c27 -27 52 -26 48 3 -2 13 -15 28 -36 37 -25 12 -32 20 -30
40 3 21 10 26 47 32 84 14 77 54 -7 44 -40 -5 -42 -4 -38 17 20 98 17 109 -37
122 l-27 7 7 -58z"/>
</g>
<g id="part-1" class="char-part">
  <path d="M261 513 c5 -21 9 -57 9 -79 l0 -42 -47 -7 c-27 -3 -59 -9 -71 -12
-42 -10 -1 -23 51 -17 36 5 47 3 47 -7 0 -23 -54 -110 -100 -161 -28 -33 -37
-48 -26 -48 18 0 107 83 124 115 19 35 22 11 10 -82 -12 -96 -6 -143 16 -143
22 0 26 24 26 146 0 63 2 114 5 114 3 0 17 -12 30 -27 17 -20 27 -25 35 -17
16 16 2 41 -31 54 -22 10 -29 19 -29 40 0 25 4 29 47 36 68 13 71 37 3 33
l-52 -4 7 62 c6 55 4 63 -14 72 -39 21 -50 14 -40 -26z"/>
</g>
<g id="part-2" class="char-part">
  <path d="M570 516 c0 -70 -6 -76 -77 -76 -18 0 -33 -4 -33 -10 0 -5 23 -10 50
-10 l50 0 0 -36 c0 -47 28 -43 44 6 11 33 14 35 75 45 75 12 98 39 31 37 -3 0
-25 -3 -49 -7 l-43 -7 7 33 c4 19 11 38 16 44 14 14 11 21 -16 33 -49 23 -55
17 -55 -52z"/>
</g>
<g id="part-3" class="char-part">
  <path d="M600 350 c-80 -10 -160 -15 -178 -12 -32 5 -32 4 -22 -24 8 -20 8
-53 0 -117 -11 -94 -7 -127 15 -127 14 0 22 57 28 180 l2 54 75 13 c41 7 113
14 160 15 l85 3 0 -107 c0 -131 -10 -149 -68 -125 l-35 15 31 -44 c35 -50 58
-55 91 -19 26 28 32 50 42 165 4 41 10 83 15 92 7 12 2 22 -17 37 -31 24 -31
24 -224 1z"/>
</g>
<g id="part-4" class="char-part">
  <path d="M566 204 c5 -20 1 -23 -48 -29 -40 -6 -48 -10 -33 -16 11 -4 35 -5
53 -2 l32 5 0 -58 c0 -72 20 -61 28 15 l5 51 53 0 c29 0 56 5 59 10 4 6 -15
10 -49 10 -49 0 -56 2 -56 20 0 15 -6 19 -25 18 -20 -2 -23 -6 -19 -24z"/>
</g>
</g>
</svg>