<?xml version="1.0" standalone="no"?>
<!DOCTYPE svg PUBLIC "-//W3C//DTD SVG 20010904//EN"
 "http://www.w3.org/TR/2001/REC-SVG-20010904/DTD/svg10.dtd">
<svg version="1.0" xmlns="http://www.w3.org/2000/svg"
 width="96.000000pt" height="68.000000pt" viewBox="0 0 96.000000 68.000000"
 preserveAspectRatio="xMidYMid meet">
<metadata>
Created by potrace 1.16, written by Peter Selinger 2001-2019
Combined from part_0.svg through part_5.svg with named groups
</metadata>
<g transform="translate(0.000000,68.000000) scale(0.100000,-0.100000)" fill="#000000" stroke="none">
<g id="part-0" class="char-part">
  <path d="M650 548 c-30 -5 -70 -11 -89 -14 -42 -7 -32 -18 14 -16 39 2 41 -5
23 -55 -12 -32 -33 -44 -40 -22 -2 6 -12 10 -22 8 -16 -4 -16 -7 7 -30 l26
-26 -29 -34 c-37 -43 -38 -53 -2 -35 44 23 112 137 112 188 0 15 6 19 28 16
34 -4 39 -29 17 -103 -13 -47 -19 -55 -40 -55 -23 0 -24 -2 -13 -25 12 -27 20
-30 47 -15 22 11 34 41 57 133 21 90 7 102 -96 85z"/>
  <path d="M185 515 c29 -37 61 -53 77 -37 26 26 -23 72 -78 72 l-25 0 26 -35z"/>
  <path d="M380 521 c-49 -11 -69 -19 -57 -24 9 -3 24 -4 32 -1 18 7 20 -21 5
-62 -10 -25 -12 -26 -29 -10 -9 9 -26 16 -37 16 -15 -1 -13 -6 15 -30 l34 -29
-27 -36 c-32 -41 -21 -47 16 -7 38 40 81 128 74 150 -5 15 -1 21 16 26 37 10
38 8 38 -48 0 -70 -14 -106 -40 -106 -24 0 -25 -8 -4 -31 21 -23 47 -11 62 28
18 46 41 157 34 165 -16 16 -62 15 -132 -1z"/>
  <path d="M121 371 c18 -29 76 -64 94 -57 19 7 19 40 1 55 -7 6 -34 14 -61 17
-47 7 -47 7 -34 -15z"/>
  <path d="M627 233 c2 -38 5 -80 7 -96 2 -24 0 -27 -30 -27 l-33 0 2 58 c2 52
0 57 -20 60 -22 3 -22 1 -17 -45 3 -26 7 -56 9 -65 2 -14 -4 -18 -26 -19 -41
-2 -46 -3 -54 -11 -15 -15 46 -19 138 -9 53 6 123 11 157 11 33 0 60 4 60 9 0
14 -28 21 -90 21 l-59 0 2 37 c3 35 4 36 47 40 52 5 58 9 42 25 -8 8 -21 9
-47 1 -37 -12 -39 -10 -35 36 2 25 -14 41 -41 41 -14 0 -16 -10 -12 -67z"/>
  <path d="M216 255 c-16 -22 -48 -58 -72 -80 l-44 -40 16 -33 c9 -17 22 -32 30
-32 15 0 106 187 102 209 -2 11 -13 3 -32 -24z"/>
  <path d="M386 195 l7 -85 -32 0 -32 0 2 53 c3 47 1 52 -19 55 -19 3 -21 0 -17
-27 16 -101 19 -91 -25 -91 -29 0 -40 -4 -40 -15 0 -22 43 -28 91 -12 24 8 74
22 112 32 73 20 93 41 27 30 l-40 -7 0 36 c0 35 1 36 36 36 22 0 33 4 29 11
-4 5 -19 9 -33 7 -24 -3 -27 1 -30 30 -3 24 -8 32 -23 32 -19 0 -20 -5 -13
-85z"/>
</g>
<g id="part-1" class="char-part">
  <path d="M170 542 c0 -14 55 -62 72 -62 20 0 25 34 7 46 -17 10 -79 23 -79 16z"/>
  <path d="M120 382 c0 -14 66 -62 84 -62 19 0 21 33 4 47 -18 15 -88 26 -88 15z"/>
  <path d="M211 245 c-13 -19 -41 -51 -62 -70 -22 -19 -39 -41 -39 -49 0 -16 36
-63 43 -56 5 5 54 110 83 178 19 42 5 41 -25 -3z"/>
</g>
<g id="part-2" class="char-part">
  <path d="M380 521 c-52 -12 -69 -19 -55 -24 11 -3 43 0 70 7 28 8 53 12 58 9
9 -5 8 -88 -2 -123 -4 -15 -15 -26 -29 -28 -27 -4 -28 -14 -2 -37 20 -18 21
-18 40 1 11 11 28 56 39 104 19 79 19 86 4 98 -21 15 -29 14 -123 -7z"/>
</g>
<g id="part-3" class="char-part">
  <path d="M520 442 c0 -5 9 -17 20 -27 17 -16 20 -16 26 -2 3 9 3 21 -1 27 -7
12 -45 14 -45 2z"/>
</g>
<g id="part-4" class="char-part">
  <path d="M621 110 c-142 -15 -167 -21 -147 -32 10 -6 41 -8 70 -4 28 3 101 9
161 12 61 4 112 8 115 11 2 2 -2 8 -10 13 -17 11 -82 11 -189 0z"/>
</g>
</g>
</svg>