<?xml version="1.0" standalone="no"?>
<!DOCTYPE svg PUBLIC "-//W3C//DTD SVG 20010904//EN"
 "http://www.w3.org/TR/2001/REC-SVG-20010904/DTD/svg10.dtd">
<svg version="1.0" xmlns="http://www.w3.org/2000/svg"
 width="96.000000pt" height="68.000000pt" viewBox="0 0 96.000000 68.000000"
 preserveAspectRatio="xMidYMid meet">
<metadata>
Created by potrace 1.16, written by Peter Selinger 2001-2019
Combined from part_0.svg through part_5.svg with named groups
</metadata>
<g transform="translate(0.000000,68.000000) scale(0.100000,-0.100000)" fill="#000000" stroke="none">
<g id="part-0" class="char-part">
  <path d="M445 590 c21 -41 60 -59 81 -39 30 30 -11 69 -72 69 -24 0 -24 -1 -9
-30z"/>
  <path d="M629 546 c-2 -2 -38 -6 -79 -10 -41 -3 -115 -11 -165 -17 -49 -5
-100 -11 -112 -12 -30 -4 -40 -15 -19 -23 12 -5 16 -20 16 -70 0 -104 -46
-204 -140 -300 -29 -30 -37 -44 -26 -44 21 0 84 40 113 71 44 49 90 162 113
280 l11 57 57 6 c45 5 323 25 355 26 16 0 5 18 -18 28 -24 11 -96 17 -106 8z"/>
  <path d="M432 437 c-7 -18 -28 -52 -48 -75 -45 -53 -23 -56 30 -4 37 36 42 37
138 47 54 6 101 9 103 6 10 -9 5 -119 -6 -150 -10 -29 -15 -32 -40 -27 -34 6
-36 0 -10 -31 43 -51 81 -14 101 97 6 36 15 74 20 86 19 48 -14 56 -164 40
-77 -8 -78 -8 -67 12 8 16 7 21 -5 26 -30 11 -40 6 -52 -27z"/>
  <path d="M460 319 c-14 -6 -37 -8 -51 -5 l-27 5 -1 -89 c-3 -152 29 -175 239
-175 118 0 141 3 183 22 26 12 47 25 47 28 0 3 -9 23 -20 45 -11 22 -20 47
-20 57 0 26 -15 3 -28 -43 -18 -61 -66 -77 -217 -73 -130 5 -155 17 -155 75 0
31 2 33 44 39 25 4 49 4 54 1 5 -3 12 10 15 29 3 19 13 42 22 51 34 34 -25 57
-85 33z m28 -51 c-3 -29 -7 -33 -35 -36 -27 -3 -33 0 -33 17 0 37 11 51 42 51
27 0 29 -2 26 -32z"/>
</g>
<g id="part-1" class="char-part">
  <path d="M440 610 c0 -4 9 -19 21 -34 25 -32 69 -36 69 -7 0 11 -5 23 -11 27
-19 11 -79 22 -79 14z"/>
  <path d="M510 529 c-303 -34 -272 -27 -249 -50 53 -53 -8 -241 -113 -352 -30
-32 -48 -57 -42 -57 18 0 108 74 131 107 29 40 69 148 83 219 7 34 15 67 20
73 9 15 98 27 273 36 147 9 171 21 77 40 -8 1 -89 -6 -180 -16z"/>
</g>
<g id="part-2" class="char-part">
  <path d="M431 440 c-6 -20 -29 -58 -52 -84 -22 -25 -37 -46 -33 -46 14 0 85
53 94 71 12 22 208 39 220 19 9 -14 3 -74 -12 -134 -9 -37 -11 -38 -44 -33
l-35 6 23 -29 c50 -63 85 -31 111 101 8 41 18 82 22 91 12 30 -35 40 -128 28
-109 -13 -124 -13 -109 2 18 18 15 25 -17 36 -27 10 -29 8 -40 -28z"/>
</g>
<g id="part-3" class="char-part">
  <path d="M461 319 c-14 -5 -37 -7 -53 -4 l-28 7 0 -63 0 -62 53 7 c28 3 60 6
70 6 9 0 17 6 17 13 0 7 9 29 19 48 15 27 17 39 8 48 -13 13 -53 13 -86 0z
m27 -51 c-3 -29 -7 -33 -35 -36 -27 -3 -33 0 -33 17 0 37 11 51 42 51 27 0 29
-2 26 -32z"/>
</g>
<g id="part-4" class="char-part">
  <path d="M790 186 c0 -34 -36 -74 -79 -87 -23 -7 -83 -10 -149 -8 -127 5 -152
17 -152 76 0 24 -4 33 -16 33 -14 0 -16 -8 -11 -41 7 -53 29 -76 90 -94 133
-39 413 3 370 56 -6 8 -16 31 -22 52 -14 42 -31 49 -31 13z"/>
</g>
</g>
</svg>