<?xml version="1.0" standalone="no"?>
<!DOCTYPE svg PUBLIC "-//W3C//DTD SVG 20010904//EN"
 "http://www.w3.org/TR/2001/REC-SVG-20010904/DTD/svg10.dtd">
<svg version="1.0" xmlns="http://www.w3.org/2000/svg"
 width="96.000000pt" height="68.000000pt" viewBox="0 0 96.000000 68.000000"
 preserveAspectRatio="xMidYMid meet">
<metadata>
Created by potrace 1.16, written by Peter Selinger 2001-2019
Combined from part_0.svg through part_5.svg with named groups
</metadata>
<g transform="translate(0.000000,68.000000) scale(0.100000,-0.100000)" fill="#000000" stroke="none">
<g id="part-0" class="char-part">
  <path d="M490 574 c-47 -7 -126 -13 -176 -13 -50 -1 -94 -4 -97 -7 -4 -4 2
-19 12 -33 11 -15 24 -56 31 -91 18 -99 29 -123 54 -115 42 12 221 24 230 14
6 -5 20 -9 31 -9 18 0 30 20 73 121 l50 121 -33 14 c-40 16 -59 16 -175 -2z
m110 -46 c0 -38 -13 -46 -73 -47 -58 0 -58 0 -55 27 4 33 19 40 81 41 42 1 47
-1 47 -21z m-195 -33 c0 -29 -2 -30 -51 -33 -46 -3 -52 -1 -58 20 -3 13 -6 26
-6 30 0 9 38 16 80 14 32 -1 35 -4 35 -31z m170 -77 c-10 -47 -12 -48 -61 -48
-44 0 -44 0 -44 34 0 37 7 40 83 45 27 1 28 -1 22 -31z m-165 -23 c0 -35 0
-35 -45 -35 -38 0 -45 3 -45 19 0 11 -2 25 -5 33 -4 10 8 14 45 15 l50 2 0
-34z"/>
  <path d="M670 301 c0 -17 100 -101 120 -101 26 0 27 31 1 54 -22 20 -121 58
-121 47z"/>
  <path d="M445 235 c44 -38 63 -43 71 -20 9 23 -35 54 -76 54 l-35 0 40 -34z"/>
  <path d="M168 207 c-35 -66 -36 -87 -4 -87 20 0 28 9 41 45 16 41 15 95 -3 95
-4 0 -19 -24 -34 -53z"/>
  <path d="M287 254 c-9 -9 35 -96 61 -122 38 -37 79 -53 165 -62 130 -15 259
16 227 55 -5 6 -32 26 -60 43 l-50 31 6 -38 c5 -34 4 -39 -17 -44 -37 -10
-123 -8 -178 4 -38 8 -58 20 -85 50 -20 21 -36 45 -36 53 0 16 -24 38 -33 30z"/>
</g>
<g id="part-1" class="char-part">
  <path d="M525 574 c-44 -7 -133 -15 -198 -19 l-118 -8 20 -21 c13 -13 27 -53
37 -101 19 -95 31 -120 47 -107 7 6 63 13 126 17 87 6 115 5 121 -5 4 -7 14
-10 22 -7 19 7 110 229 99 240 -18 18 -79 22 -156 11z m73 -60 l-3 -37 -62 -1
-63 -2 0 38 0 38 66 0 65 0 -3 -36z m-194 10 c15 -39 7 -61 -25 -68 -63 -12
-77 -8 -84 25 -8 37 -1 46 45 52 19 2 40 5 46 5 7 1 15 -5 18 -14z m182 -89
c-17 -67 -21 -71 -70 -67 -45 4 -46 5 -46 38 0 31 3 34 38 39 20 4 44 8 52 10
8 1 19 3 24 4 4 0 5 -10 2 -24z m-166 -39 c0 -33 -1 -34 -47 -38 -27 -3 -49
-4 -51 -2 -2 1 -6 18 -9 38 l-6 36 57 0 56 0 0 -34z"/>
</g>
<g id="part-2" class="char-part">
  <path d="M722 245 c56 -55 88 -64 88 -25 0 23 -30 49 -77 66 -67 23 -69 15
-11 -41z"/>
  <path d="M443 234 c39 -36 69 -41 75 -12 4 21 -45 48 -85 48 l-28 -1 38 -35z"/>
  <path d="M161 199 c-29 -53 -31 -63 -19 -75 20 -20 42 -9 61 32 18 37 21 62
11 88 -10 26 -17 19 -53 -45z"/>
  <path d="M285 238 c16 -52 58 -109 98 -133 52 -30 177 -50 251 -40 60 8 116
30 116 44 0 12 -121 103 -128 97 -2 -2 1 -13 7 -24 29 -55 8 -72 -90 -72 -114
0 -174 32 -221 119 -20 36 -43 42 -33 9z"/>
</g>
</g>
</svg>