<?xml version="1.0" standalone="no"?>
<!DOCTYPE svg PUBLIC "-//W3C//DTD SVG 20010904//EN"
 "http://www.w3.org/TR/2001/REC-SVG-20010904/DTD/svg10.dtd">
<svg version="1.0" xmlns="http://www.w3.org/2000/svg"
 width="96.000000pt" height="68.000000pt" viewBox="0 0 96.000000 68.000000"
 preserveAspectRatio="xMidYMid meet">
<metadata>
Created by potrace 1.16, written by Peter Selinger 2001-2019
Combined from part_0.svg through part_5.svg with named groups
</metadata>
<g transform="translate(0.000000,68.000000) scale(0.100000,-0.100000)" fill="#000000" stroke="none">
<g id="part-0" class="char-part">
  <path d="M560 574 c-47 -48 -88 -68 -129 -65 -29 2 -33 0 -27 -16 24 -60 10
-245 -25 -338 -24 -64 -21 -79 9 -38 38 53 64 169 74 327 l3 39 92 41 c95 42
117 67 71 80 -32 8 -29 9 -68 -30z"/>
  <path d="M280 558 c-14 -5 -50 -11 -80 -12 -43 -1 -54 -5 -51 -16 2 -8 6 -50
9 -93 6 -101 -13 -219 -46 -280 -14 -26 -22 -50 -18 -54 13 -13 61 48 82 105
17 44 27 57 43 58 12 1 36 14 53 30 l30 29 -4 -83 c-5 -94 -13 -107 -51 -93
-37 14 -34 2 12 -43 33 -32 42 -36 59 -27 11 6 22 18 26 27 3 8 6 91 6 182 0
92 5 185 10 207 7 29 6 43 -3 51 -19 19 -50 23 -77 12z m20 -79 l0 -41 -37 7
c-48 9 -53 12 -53 34 0 26 20 41 57 41 32 0 33 -1 33 -41z m0 -117 c0 -13 -88
-58 -96 -49 -3 3 -2 27 2 55 l6 50 44 -21 c24 -12 43 -28 44 -35z"/>
  <path d="M626 471 c-28 -42 -71 -65 -95 -51 -11 5 -22 10 -24 10 -2 0 -2 -43
1 -95 2 -52 -1 -123 -7 -158 -12 -67 -8 -97 13 -97 14 0 119 91 112 97 -2 2
-18 -3 -35 -11 -16 -9 -33 -16 -36 -16 -3 0 -4 55 -3 122 l3 121 30 17 c17 9
47 22 67 29 45 15 54 27 38 46 -19 23 -43 18 -64 -14z"/>
  <path d="M663 345 c-20 -21 -39 -32 -48 -29 -21 9 -19 -9 6 -37 11 -13 41 -56
67 -96 l45 -73 46 0 c72 0 79 13 24 41 -52 27 -163 124 -163 143 0 13 41 36
63 36 7 0 18 4 26 9 12 8 12 12 2 25 -19 23 -32 20 -68 -19z"/>
</g>
<g id="part-1" class="char-part">
  <path d="M260 549 c-14 -6 -43 -9 -65 -7 l-40 3 0 -156 c0 -155 0 -156 -32
-217 -17 -34 -28 -62 -23 -62 20 0 69 72 81 119 10 42 16 50 31 45 11 -3 32 5
53 22 l36 27 -3 -89 -3 -89 -40 2 -40 3 39 -36 c79 -73 93 -40 97 224 3 170 1
205 -11 212 -19 12 -48 12 -80 -1z m38 -73 c3 -40 0 -48 -12 -43 -8 3 -31 9
-50 13 -26 4 -36 11 -36 25 0 30 37 61 68 57 25 -3 27 -7 30 -52z m-61 -66
c14 -11 34 -20 44 -20 13 0 19 -7 19 -24 0 -19 -9 -27 -40 -40 -22 -9 -45 -16
-50 -16 -6 0 -10 27 -10 60 0 33 3 60 6 60 3 0 17 -9 31 -20z"/>
</g>
<g id="part-2" class="char-part">
  <path d="M564 579 c-49 -52 -95 -77 -133 -71 -29 4 -32 2 -28 -14 16 -53 17
-77 8 -175 -6 -59 -19 -131 -31 -160 -25 -67 -25 -77 0 -54 40 36 69 158 83
344 2 32 6 35 94 75 50 22 95 45 100 49 10 10 -24 37 -47 37 -9 0 -29 -14 -46
-31z"/>
</g>
<g id="part-3" class="char-part">
  <path d="M603 452 c-24 -24 -43 -46 -43 -47 0 -6 125 47 135 57 11 10 -20 39
-39 37 -6 -1 -30 -22 -53 -47z"/>
</g>
<g id="part-4" class="char-part">
  <path d="M490 421 c0 -6 5 -13 10 -16 13 -8 13 -176 0 -244 -10 -54 -5 -81 14
-81 14 0 119 90 112 97 -2 2 -18 -3 -35 -11 -16 -9 -32 -16 -36 -16 -3 0 -5
58 -5 130 0 118 -2 130 -19 140 -24 13 -41 13 -41 1z"/>
  <path d="M664 345 c-21 -24 -37 -33 -48 -29 -9 3 -16 4 -16 1 0 -5 113 -175
130 -194 12 -14 106 -18 114 -5 3 4 -21 22 -53 40 -48 26 -161 129 -161 146 0
2 24 12 53 22 63 20 63 20 47 39 -19 22 -32 19 -66 -20z"/>
</g>
</g>
</svg>