<?xml version="1.0" standalone="no"?>
<!DOCTYPE svg PUBLIC "-//W3C//DTD SVG 20010904//EN"
 "http://www.w3.org/TR/2001/REC-SVG-20010904/DTD/svg10.dtd">
<svg version="1.0" xmlns="http://www.w3.org/2000/svg"
 width="96.000000pt" height="68.000000pt" viewBox="0 0 96.000000 68.000000"
 preserveAspectRatio="xMidYMid meet">
<metadata>
Created by potrace 1.16, written by Peter Selinger 2001-2019
Combined from part_0.svg through part_5.svg with named groups
</metadata>
<g transform="translate(0.000000,68.000000) scale(0.100000,-0.100000)" fill="#000000" stroke="none">
<g id="part-0" class="char-part">
  <path d="M435 604 c-60 -8 -127 -13 -147 -10 -42 5 -45 0 -24 -30 8 -11 19
-46 25 -79 12 -66 25 -85 42 -68 9 9 9 29 2 75 -6 35 -8 66 -4 70 3 4 60 10
125 14 l119 7 -6 -44 c-4 -24 -10 -61 -13 -81 -6 -35 -5 -38 18 -38 21 0 27 9
47 73 13 39 28 77 33 84 14 17 -30 43 -72 42 -19 -1 -84 -8 -145 -15z"/>
  <path d="M398 533 c-17 -3 -28 -11 -28 -20 0 -13 10 -15 63 -10 71 7 99 15 91
28 -5 9 -73 10 -126 2z"/>
  <path d="M435 475 c-5 -2 -23 -6 -39 -10 -20 -4 -26 -9 -18 -17 16 -16 142 0
142 18 0 10 -11 14 -37 13 -21 0 -42 -2 -48 -4z"/>
  <path d="M639 406 c-2 -2 -44 -6 -94 -10 -178 -11 -400 -29 -405 -33 -10 -8
26 -23 56 -23 l31 0 5 -92 c3 -51 4 -98 1 -105 -3 -8 -22 -13 -47 -13 -54 0
-77 -14 -48 -29 29 -15 40 -14 138 14 47 14 91 25 98 25 7 0 10 -15 8 -43 -6
-73 33 -137 40 -65 3 28 8 33 56 49 29 10 64 27 79 39 l27 21 47 -47 47 -47
61 5 c88 6 97 22 25 43 -32 9 -80 28 -107 41 l-48 25 22 37 c12 20 31 49 41
64 11 16 17 32 14 37 -11 16 -67 21 -99 7 -18 -7 -54 -16 -80 -20 -26 -4 -47
-9 -47 -10 0 -2 23 -27 52 -55 l52 -53 -24 -19 c-60 -46 -101 -72 -106 -66 -6
5 -6 268 0 274 1 1 70 5 152 8 82 3 160 8 174 11 24 5 24 6 6 20 -18 12 -116
20 -127 10z m-259 -78 c0 -33 0 -33 -55 -36 -47 -3 -55 0 -55 15 0 36 16 45
93 52 13 1 17 -7 17 -31z m7 -64 c9 -23 -8 -34 -66 -41 -51 -6 -53 -5 -49 18
2 19 11 25 43 30 64 10 65 10 72 -7z m233 11 c0 -18 -31 -75 -41 -75 -6 0 -24
15 -40 33 l-28 32 27 6 c35 9 82 10 82 4z m-234 -88 c3 -20 -17 -30 -78 -41
-37 -7 -38 -6 -38 23 0 27 3 30 38 34 59 6 75 3 78 -16z"/>
</g>
<g id="part-1" class="char-part">
  <path d="M480 604 c-52 -7 -126 -13 -164 -13 -66 -1 -68 -2 -53 -19 9 -10 21
-41 26 -68 12 -63 21 -84 33 -84 7 0 8 26 4 74 l-7 74 48 6 c26 3 83 8 126 11
l77 7 0 -39 c0 -21 -4 -54 -9 -73 -9 -41 -5 -60 15 -60 8 0 14 2 14 4 0 3 13
41 30 85 l29 81 -29 15 c-16 8 -33 14 -37 14 -4 -1 -51 -7 -103 -15z"/>
  <path d="M417 530 c-58 -11 -56 -20 4 -20 68 0 106 9 87 21 -15 10 -37 10 -91
-1z"/>
  <path d="M420 466 c-40 -11 -42 -13 -21 -19 33 -8 128 12 110 24 -18 11 -33
10 -89 -5z"/>
</g>
<g id="part-2" class="char-part">
  <path d="M385 388 c-137 -12 -252 -23 -254 -25 -10 -7 12 -17 52 -22 32 -5 42
-10 44 -26 1 -11 5 -55 8 -97 5 -58 10 -78 21 -78 9 0 14 11 14 30 0 25 4 30
24 30 39 0 86 12 86 22 0 6 -22 7 -56 2 -55 -6 -56 -6 -52 17 2 18 10 25 33
27 50 4 75 12 75 22 0 6 -21 8 -56 4 l-57 -7 7 29 c4 16 9 30 10 31 3 4 129
12 303 19 164 7 207 14 190 31 -15 14 -142 11 -392 -9z"/>
</g>
<g id="part-3" class="char-part">
  <path d="M387 354 c-4 -4 -7 -49 -7 -99 l0 -92 -52 -12 c-29 -6 -85 -14 -125
-18 -76 -6 -93 -20 -49 -41 19 -8 42 -5 117 19 51 16 97 29 101 29 4 0 8 -24
8 -53 0 -53 21 -100 37 -84 4 5 8 86 8 180 0 147 -2 172 -15 175 -9 1 -19 0
-23 -4z"/>
</g>
<g id="part-4" class="char-part">
  <path d="M560 299 c-36 -10 -73 -16 -82 -13 -29 9 -21 -6 33 -63 27 -29 48
-57 44 -62 -3 -5 -33 -28 -66 -50 -34 -23 -57 -41 -52 -41 21 0 80 24 112 46
l35 23 47 -44 c53 -49 85 -56 164 -34 l40 11 -80 27 c-44 15 -89 32 -100 39
-50 28 -49 26 -6 92 23 34 40 64 39 65 -10 8 -48 25 -55 24 -4 -1 -37 -10 -73
-20z m54 -42 c-3 -12 -13 -32 -20 -45 l-15 -22 -34 37 c-19 20 -33 38 -31 40
1 1 20 5 42 9 21 3 41 8 43 10 10 10 21 -10 15 -29z"/>
</g>
</g>
</svg>