<?xml version="1.0" standalone="no"?>
<!DOCTYPE svg PUBLIC "-//W3C//DTD SVG 20010904//EN"
 "http://www.w3.org/TR/2001/REC-SVG-20010904/DTD/svg10.dtd">
<svg version="1.0" xmlns="http://www.w3.org/2000/svg"
 width="96.000000pt" height="68.000000pt" viewBox="0 0 96.000000 68.000000"
 preserveAspectRatio="xMidYMid meet">
<metadata>
Created by potrace 1.16, written by Peter Selinger 2001-2019
Combined from part_0.svg through part_5.svg with named groups
</metadata>
<g transform="translate(0.000000,68.000000) scale(0.100000,-0.100000)" fill="#000000" stroke="none">
<g id="part-0" class="char-part">
  <path d="M645 579 c-22 -4 -62 -8 -89 -8 -42 -1 -47 -3 -40 -18 4 -10 9 -51
12 -90 3 -51 8 -73 17 -73 7 0 15 4 17 9 2 5 35 11 73 13 l70 3 3 -125 c1 -69
-1 -144 -6 -165 -7 -36 -11 -40 -35 -37 -35 4 -34 -6 6 -40 37 -32 36 -32 62
-12 19 14 20 25 17 217 -1 110 2 226 8 257 9 48 8 57 -7 68 -19 13 -48 14
-108 1z m55 -28 c0 -5 2 -16 6 -24 4 -11 -8 -16 -48 -20 -29 -4 -62 -8 -73 -9
-32 -5 -28 45 5 53 40 10 110 10 110 0z m7 -77 c9 -24 -6 -31 -80 -38 -67 -7
-68 -6 -65 16 2 19 10 23 42 26 22 1 42 5 45 7 11 11 52 4 58 -11z"/>
  <path d="M310 554 c-30 -7 -70 -11 -89 -7 l-33 6 7 -41 c14 -88 10 -245 -10
-319 -15 -58 -16 -77 -7 -98 6 -14 16 -25 21 -25 21 0 30 40 37 168 8 149 5
145 93 141 28 -2 53 0 56 2 2 3 16 39 29 80 19 57 22 77 13 86 -20 19 -59 22
-117 7z m50 -43 c0 -13 -10 -20 -32 -24 -18 -4 -43 -9 -55 -13 -20 -5 -23 -3
-23 19 0 22 5 26 33 30 70 9 77 8 77 -12z m-7 -82 c-6 -6 -32 -14 -57 -16 -38
-5 -46 -3 -46 11 0 15 16 22 70 29 31 4 48 -9 33 -24z"/>
  <path d="M433 372 c22 -24 13 -32 -35 -32 -21 0 -38 -4 -38 -10 0 -5 6 -10 13
-10 7 0 18 -13 24 -30 11 -29 10 -30 -15 -31 -15 -1 -38 -5 -52 -10 -26 -9
110 -5 242 7 77 7 83 27 7 23 -50 -3 -74 6 -45 17 9 3 16 15 16 25 0 10 7 19
15 19 8 0 15 5 15 11 0 7 -16 9 -49 4 -43 -6 -49 -4 -54 14 -4 15 -13 21 -33
21 -26 0 -26 -1 -11 -18z m77 -55 c0 -22 -23 -46 -51 -52 -20 -5 -27 -2 -32
12 -2 10 -8 26 -12 36 -6 15 -1 17 44 17 35 0 51 -4 51 -13z"/>
  <path d="M415 213 l-40 -4 1 -65 c1 -36 4 -67 7 -70 3 -3 14 -1 25 5 29 15
119 14 125 -1 14 -39 35 59 28 130 -1 12 -50 14 -146 5z m105 -28 c0 -9 -14
-16 -37 -20 -21 -4 -46 -9 -55 -12 -13 -3 -18 1 -18 15 0 28 8 32 62 32 35 0
48 -4 48 -15z m7 -52 c4 -12 -7 -16 -79 -28 -33 -5 -38 -3 -38 14 0 15 8 21
38 24 55 6 75 3 79 -10z"/>
</g>
<g id="part-1" class="char-part">
  <path d="M310 548 c-19 -5 -55 -8 -78 -5 -41 4 -43 3 -37 -17 3 -11 9 -49 12
-84 l6 -62 87 2 87 2 22 75 c21 71 21 76 5 88 -21 15 -55 15 -104 1z m57 -29
c5 -25 -11 -36 -64 -44 -52 -7 -53 -6 -53 19 0 21 6 26 38 31 20 4 42 8 47 10
17 6 30 -1 32 -16z m-7 -78 c0 -25 -4 -27 -62 -35 -46 -7 -48 -6 -48 18 0 20
6 25 33 29 71 9 77 8 77 -12z"/>
</g>
<g id="part-2" class="char-part">
  <path d="M709 293 c0 -202 -6 -217 -69 -199 -22 6 -19 2 17 -33 47 -46 50 -47
77 -26 25 19 31 91 21 260 -6 114 -9 125 -26 125 -18 0 -19 -9 -20 -127z"/>
</g>
<g id="part-3" class="char-part">
  <path d="M420 391 c0 -6 5 -13 10 -16 6 -3 10 -13 10 -21 0 -10 -13 -14 -46
-14 -29 0 -43 -4 -39 -11 5 -7 31 -8 74 -4 134 12 161 17 155 27 -4 6 -26 8
-55 4 -41 -6 -49 -4 -49 9 0 8 -12 20 -26 25 -31 12 -34 12 -34 1z"/>
</g>
<g id="part-4" class="char-part">
  <path d="M506 305 c-9 -35 -76 -62 -76 -31 0 16 -26 46 -41 46 -5 0 -3 -13 5
-29 l15 -29 -57 -10 c-49 -9 -41 -10 58 -5 63 3 124 7 135 8 11 1 37 3 58 4
25 1 36 5 31 12 -4 7 -27 10 -60 7 -30 -3 -54 -3 -54 -1 0 3 7 11 15 19 20 21
19 34 -4 34 -12 0 -21 -9 -25 -25z"/>
</g>
<g id="part-5" class="char-part">
  <path d="M520 200 c23 -23 40 -26 40 -6 0 14 -21 26 -46 26 -10 0 -9 -5 6 -20z"/>
  <path d="M386 193 c-6 -22 -2 -100 6 -108 3 -4 9 -1 14 6 5 8 3 10 -6 4 -10
-6 -11 -4 -5 11 11 25 14 94 4 100 -4 2 -10 -4 -13 -13z"/>
  <path d="M530 139 c0 -20 4 -29 13 -27 16 6 17 58 0 58 -8 0 -13 -12 -13 -31z"/>
  <path d="M488 153 c7 -3 16 -2 19 1 4 3 -2 6 -13 5 -11 0 -14 -3 -6 -6z"/>
  <path d="M460 100 c-12 -7 -10 -9 8 -7 12 0 22 5 22 9 0 11 -12 10 -30 -2z"/>
  <path d="M530 90 c0 -5 4 -10 9 -10 6 0 13 5 16 10 3 6 -1 10 -9 10 -9 0 -16
-4 -16 -10z"/>
</g>
</g>
</svg>