<?xml version="1.0" standalone="no"?>
<!DOCTYPE svg PUBLIC "-//W3C//DTD SVG 20010904//EN"
 "http://www.w3.org/TR/2001/REC-SVG-20010904/DTD/svg10.dtd">
<svg version="1.0" xmlns="http://www.w3.org/2000/svg"
 width="96.000000pt" height="68.000000pt" viewBox="0 0 96.000000 68.000000"
 preserveAspectRatio="xMidYMid meet">
<metadata>
Created by potrace 1.16, written by Peter Selinger 2001-2019
Combined from part_0.svg through part_5.svg with named groups
</metadata>
<g transform="translate(0.000000,68.000000) scale(0.100000,-0.100000)" fill="#000000" stroke="none">
<g id="part-0" class="char-part">
  <path d="M573 576 c-84 -11 -121 -26 -65 -26 18 0 32 -4 32 -9 0 -5 -19 -26
-42 -45 -47 -41 -44 -45 10 -16 48 25 72 45 72 58 0 5 32 16 70 22 39 6 70 16
70 21 0 11 -40 10 -147 -5z"/>
  <path d="M263 563 c-99 -16 -123 -33 -48 -33 25 0 45 -4 45 -10 0 -5 -22 -26
-50 -47 -27 -20 -48 -39 -45 -41 11 -11 104 37 137 70 21 22 46 38 60 38 39 0
68 12 68 26 0 18 -42 17 -167 -3z"/>
  <path d="M656 475 c-10 -15 -15 -29 -13 -32 9 -9 68 28 64 40 -7 22 -34 18
-51 -8z"/>
  <path d="M380 481 c0 -6 -10 -19 -22 -31 -26 -24 -13 -26 31 -4 18 9 30 21 28
27 -5 15 -37 22 -37 8z"/>
  <path d="M550 475 c0 -8 -18 -27 -40 -41 -54 -36 -44 -41 19 -10 59 30 61 31
61 12 0 -8 -33 -35 -72 -60 -84 -52 -76 -61 13 -15 34 17 63 28 66 25 12 -12
-15 -61 -36 -66 l-23 -5 27 -25 27 -25 18 23 c11 13 22 43 26 67 6 44 16 56
29 35 10 -16 85 -51 95 -45 16 10 11 34 -8 44 -9 5 -35 13 -57 17 -23 4 -54
20 -73 38 -40 38 -72 52 -72 31z"/>
  <path d="M238 426 c-21 -19 -38 -37 -38 -40 0 -8 31 5 62 26 32 22 38 22 38 2
0 -20 -13 -32 -72 -69 -27 -17 -48 -34 -48 -38 0 -11 112 51 122 67 4 6 8 -3
8 -20 0 -33 -22 -60 -40 -49 -18 11 -11 -11 10 -30 36 -33 70 6 70 81 0 38 6
41 37 19 14 -10 24 -12 28 -5 9 15 -2 27 -31 34 -14 4 -43 18 -65 31 -21 14
-40 25 -41 25 -2 0 -20 -16 -40 -34z"/>
  <path d="M408 278 c7 -7 12 -31 12 -55 0 -37 -6 -49 -41 -84 -23 -23 -64 -51
-93 -63 -111 -49 -105 -46 -66 -39 63 10 156 53 196 89 43 40 53 38 116 -21
86 -82 127 -96 232 -78 38 6 38 6 -42 29 -80 23 -222 90 -222 104 0 4 33 17
73 27 78 21 92 40 43 58 -23 8 -31 6 -45 -10 -21 -26 -66 -55 -86 -55 -15 0
-15 11 1 72 6 20 -23 38 -62 38 -22 0 -25 -3 -16 -12z"/>
  <path d="M250 211 c0 -15 50 -63 63 -58 20 6 21 40 1 54 -20 15 -64 18 -64 4z"/>
</g>
<g id="part-1" class="char-part">
  <path d="M280 560 c-101 -16 -113 -26 -40 -32 l35 -3 -20 -20 c-11 -11 -36
-33 -55 -48 -35 -28 -35 -28 -5 -16 17 7 51 26 77 43 35 21 45 32 38 41 -8 10
5 14 55 20 36 3 65 11 65 16 0 5 -4 9 -9 9 -5 0 -15 2 -23 4 -7 2 -60 -5 -118
-14z"/>
</g>
<g id="part-2" class="char-part">
  <path d="M652 470 c-12 -16 -22 -32 -22 -34 0 -3 20 4 45 16 34 17 42 25 33
35 -16 20 -32 16 -56 -17z"/>
  <path d="M660 393 c30 -24 85 -53 100 -53 17 0 11 39 -7 49 -10 5 -40 12 -68
16 l-50 8 25 -20z"/>
</g>
<g id="part-3" class="char-part">
  <path d="M408 278 c7 -7 12 -30 12 -52 0 -66 -62 -124 -182 -171 -45 -18 -53
-24 -28 -20 75 13 163 50 206 88 l44 39 43 -34 c121 -99 137 -108 187 -108 26
0 62 3 80 7 30 6 26 8 -56 32 -86 26 -184 72 -204 96 -7 9 8 17 58 30 79 21
90 28 72 50 -18 22 -50 19 -79 -9 -41 -37 -78 -58 -85 -47 -4 5 -2 28 3 51 9
39 8 42 -16 51 -13 5 -34 9 -46 9 -16 0 -18 -3 -9 -12z"/>
  <path d="M250 214 c0 -17 44 -64 60 -64 27 0 32 28 10 50 -18 18 -70 28 -70
14z"/>
</g>
</g>
</svg>