<?xml version="1.0" standalone="no"?>
<!DOCTYPE svg PUBLIC "-//W3C//DTD SVG 20010904//EN"
 "http://www.w3.org/TR/2001/REC-SVG-20010904/DTD/svg10.dtd">
<svg version="1.0" xmlns="http://www.w3.org/2000/svg"
 width="96.000000pt" height="68.000000pt" viewBox="0 0 96.000000 68.000000"
 preserveAspectRatio="xMidYMid meet">
<metadata>
Created by potrace 1.16, written by Peter Selinger 2001-2019
Combined from part_0.svg through part_5.svg with named groups
</metadata>
<g transform="translate(0.000000,68.000000) scale(0.100000,-0.100000)" fill="#000000" stroke="none">
<g id="part-0" class="char-part">
  <path d="M280 595 c0 -27 -36 -88 -75 -128 -20 -21 -35 -41 -32 -43 8 -8 58
21 96 55 19 17 42 31 50 31 39 0 184 20 223 31 40 10 41 12 23 26 -13 9 -31
12 -50 8 -16 -4 -64 -12 -107 -19 -74 -13 -76 -12 -65 6 10 16 9 22 -7 34 -26
19 -56 18 -56 -1z"/>
  <path d="M365 476 c-94 -15 -67 -30 31 -17 41 6 80 11 85 11 5 0 9 5 9 10 0
12 -32 11 -125 -4z"/>
  <path d="M440 424 c-58 -7 -136 -15 -174 -18 -38 -4 -73 -9 -79 -13 -20 -12
18 -20 74 -16 l59 5 0 -40 c0 -52 -42 -104 -103 -126 -40 -15 -40 -15 -7 -10
33 6 85 30 121 56 13 9 24 5 55 -16 43 -29 74 -34 74 -10 0 16 -56 44 -90 44
-11 0 -20 5 -20 10 0 6 6 10 13 10 9 0 9 2 -1 8 -7 5 -10 16 -6 26 4 10 -1 25
-11 36 -18 19 -17 20 12 20 16 0 64 3 105 6 l75 7 6 -112 c11 -197 68 -271
210 -271 37 0 67 4 67 9 0 5 -11 33 -24 62 -24 54 -28 54 -40 -2 -3 -15 -12
-29 -20 -32 -27 -11 -90 32 -121 80 -27 43 -30 56 -29 128 0 56 5 90 18 113
13 26 15 37 5 48 -13 16 -25 16 -169 -2z"/>
  <path d="M405 340 c-31 -33 -26 -36 26 -19 44 15 44 16 29 34 -17 21 -22 19
-55 -15z"/>
  <path d="M232 308 c18 -26 33 -27 33 0 0 10 -9 18 -24 20 -24 4 -24 3 -9 -20z"/>
  <path d="M310 185 c0 -69 -43 -114 -140 -146 -18 -7 -12 -7 20 -4 25 3 67 19
93 35 57 35 66 36 98 11 45 -35 107 -62 115 -49 11 18 -39 55 -100 72 l-54 16
9 36 c8 25 7 39 -2 50 -21 26 -39 16 -39 -21z"/>
  <path d="M401 169 c-22 -17 -41 -32 -41 -34 0 -1 27 4 60 12 33 9 60 18 60 22
0 3 -8 11 -19 18 -16 10 -25 7 -60 -18z"/>
  <path d="M210 159 c0 -6 7 -17 16 -26 21 -21 43 -1 24 22 -14 17 -40 20 -40 4z"/>
</g>
<g id="part-1" class="char-part">
  <path d="M271 556 c-10 -25 -38 -65 -61 -90 -24 -25 -40 -46 -36 -46 13 0 82
48 105 74 21 22 33 26 81 26 91 0 214 25 205 41 -8 12 -60 12 -105 0 -19 -5
-60 -13 -90 -16 -54 -7 -55 -7 -38 12 14 15 15 22 6 31 -24 24 -47 13 -67 -32z"/>
</g>
<g id="part-2" class="char-part">
  <path d="M490 430 c-25 -4 -109 -13 -187 -21 -79 -7 -143 -16 -143 -20 0 -15
61 -17 180 -3 69 7 141 14 161 14 l36 0 6 -111 c5 -92 10 -120 32 -165 32 -66
88 -103 167 -110 79 -7 85 1 55 76 -25 64 -26 64 -41 -3 -5 -21 -12 -27 -32
-27 -105 0 -173 157 -126 295 29 86 15 96 -108 75z"/>
</g>
<g id="part-3" class="char-part">
  <path d="M318 339 c4 -36 0 -44 -36 -79 -23 -21 -55 -41 -72 -45 -17 -4 -29
-9 -27 -11 10 -11 101 21 128 44 l30 24 39 -26 c44 -29 80 -34 80 -11 0 18
-24 31 -73 40 -20 4 -37 11 -37 16 0 4 27 16 60 25 63 17 69 24 45 44 -12 10
-21 7 -50 -19 -43 -38 -54 -39 -47 -5 3 16 -1 30 -9 35 -27 17 -35 9 -31 -32z"/>
  <path d="M229 306 c30 -32 43 -33 39 -3 -2 16 -11 23 -33 25 l-30 4 24 -26z"/>
</g>
<g id="part-4" class="char-part">
  <path d="M310 189 c0 -70 -45 -118 -140 -150 -18 -7 -13 -8 19 -4 47 6 94 27
126 56 20 18 22 17 90 -25 62 -40 95 -48 95 -26 0 17 -50 47 -97 60 -26 7 -52
16 -56 20 -5 4 23 15 63 25 58 14 69 20 59 31 -17 20 -36 17 -73 -11 -43 -33
-59 -33 -44 0 8 19 8 28 -2 40 -21 25 -40 18 -40 -16z"/>
  <path d="M216 145 c18 -27 29 -31 39 -15 9 15 -14 40 -36 40 -18 0 -19 -1 -3
-25z"/>
</g>
</g>
</svg>