<?xml version="1.0" standalone="no"?>
<!DOCTYPE svg PUBLIC "-//W3C//DTD SVG 20010904//EN"
 "http://www.w3.org/TR/2001/REC-SVG-20010904/DTD/svg10.dtd">
<svg version="1.0" xmlns="http://www.w3.org/2000/svg"
 width="96.000000pt" height="68.000000pt" viewBox="0 0 96.000000 68.000000"
 preserveAspectRatio="xMidYMid meet">
<metadata>
Created by potrace 1.16, written by Peter Selinger 2001-2019
Combined from part_0.svg through part_5.svg with named groups
</metadata>
<g transform="translate(0.000000,68.000000) scale(0.100000,-0.100000)" fill="#000000" stroke="none">
<g id="part-0" class="char-part">
  <path d="M525 540 c-6 -38 -66 -142 -108 -187 -28 -31 -6 -29 32 3 l31 26 0
-106 c0 -58 -5 -127 -11 -155 -12 -59 2 -101 27 -80 8 6 14 22 14 35 0 19 5
23 28 23 48 -2 287 12 302 17 32 11 -16 24 -88 24 l-73 0 3 35 c2 33 3 34 55
41 29 3 56 10 58 15 6 9 -47 19 -85 16 -21 -2 -25 2 -25 23 0 22 6 26 53 34
68 12 67 26 -3 26 -55 0 -55 0 -49 28 11 49 13 52 46 53 18 1 44 4 58 9 22 6
23 8 7 15 -10 4 -36 5 -57 1 -35 -5 -40 -4 -40 13 0 22 -35 51 -62 51 -23 0
-23 -5 3 -41 24 -34 23 -35 -68 -44 -63 -6 -77 1 -48 25 8 7 21 24 28 39 7 14
20 36 27 48 11 18 12 24 1 37 -25 30 -49 19 -56 -24z m105 -189 l0 -39 -55 -4
-55 -3 0 37 c0 20 -6 39 -12 41 -7 3 17 6 55 6 l67 1 0 -39z m4 -88 c-1 -30
-23 -40 -84 -39 -30 1 -35 4 -36 26 -1 36 0 36 63 39 58 2 59 2 57 -26z m6
-92 c0 -37 -2 -39 -37 -45 -21 -3 -51 -6 -66 -6 -26 0 -28 2 -25 38 l3 37 55
6 c30 3 58 6 63 7 4 1 7 -15 7 -37z"/>
  <path d="M368 475 c-4 -4 -48 -13 -155 -31 -44 -7 -42 -24 2 -24 25 0 35 -4
35 -15 0 -35 -43 -96 -107 -154 -68 -62 -70 -73 -8 -47 18 8 36 12 39 10 3 -2
4 -1 1 3 -5 6 24 32 37 33 3 0 11 -23 18 -51 10 -40 16 -49 29 -44 9 4 41 9
72 12 51 5 57 8 57 29 0 13 9 40 21 60 20 34 21 37 5 49 -12 8 -29 10 -53 4
-20 -4 -37 -8 -38 -9 -2 0 -4 0 -5 -1 -2 0 -17 -2 -35 -3 -21 -2 -30 1 -25 8
3 6 16 26 29 45 13 19 23 42 23 51 0 12 14 21 48 30 73 19 76 20 66 29 -12 12
-49 22 -56 16z m-12 -250 c-6 -30 -10 -33 -47 -37 -45 -4 -49 0 -59 53 l-7 38
56 3 c62 3 67 -2 57 -57z"/>
</g>
<g id="part-1" class="char-part">
  <path d="M273 452 c-85 -16 -110 -32 -48 -32 41 0 42 -5 14 -66 -14 -29 -44
-63 -85 -97 -34 -28 -61 -53 -59 -56 9 -8 54 10 94 39 48 36 124 146 117 172
-3 13 2 18 17 18 37 0 98 21 92 31 -8 12 -41 10 -142 -9z"/>
</g>
<g id="part-2" class="char-part">
  <path d="M303 301 c-84 -22 -87 -26 -73 -96 10 -46 15 -55 28 -50 10 4 45 9
80 12 47 4 60 9 52 18 -7 8 -2 27 16 60 14 26 21 51 17 56 -17 16 -60 16 -120
0z m59 -26 c0 -6 -3 -27 -6 -47 -6 -37 -7 -38 -50 -38 -46 0 -56 11 -56 67 0
19 6 22 48 26 59 4 63 4 64 -8z"/>
</g>
<g id="part-3" class="char-part">
  <path d="M530 563 c0 -29 -48 -123 -91 -180 -43 -57 -39 -68 10 -27 l31 26 0
-106 c0 -58 -5 -127 -11 -155 -10 -50 -1 -91 21 -91 15 0 18 28 25 188 5 107
3 157 -5 167 -8 10 0 30 36 86 36 55 45 76 37 88 -15 24 -53 27 -53 4z"/>
</g>
<g id="part-4" class="char-part">
  <path d="M632 261 c4 -29 4 -30 -54 -36 -79 -9 -77 -29 2 -22 l60 5 0 -38 c0
-35 -2 -38 -37 -44 -21 -3 -50 -6 -65 -6 -16 0 -28 -5 -28 -11 0 -11 263 -5
319 7 46 10 0 24 -76 24 l-73 0 0 34 c0 33 2 35 43 41 23 3 51 9 62 12 18 5
18 6 -5 15 -13 5 -41 6 -62 3 -36 -6 -38 -5 -38 19 0 21 -5 26 -26 26 -23 0
-26 -3 -22 -29z"/>
</g>
</g>
</svg>