<?xml version="1.0" standalone="no"?>
<!DOCTYPE svg PUBLIC "-//W3C//DTD SVG 20010904//EN"
 "http://www.w3.org/TR/2001/REC-SVG-20010904/DTD/svg10.dtd">
<svg version="1.0" xmlns="http://www.w3.org/2000/svg"
 width="96.000000pt" height="68.000000pt" viewBox="0 0 96.000000 68.000000"
 preserveAspectRatio="xMidYMid meet">
<metadata>
Created by potrace 1.16, written by Peter Selinger 2001-2019
Combined from part_0.svg through part_5.svg with named groups
</metadata>
<g transform="translate(0.000000,68.000000) scale(0.100000,-0.100000)" fill="#000000" stroke="none">
<g id="part-0" class="char-part">
  <path d="M514 609 c7 -47 -2 -59 -43 -59 -20 0 -43 -5 -51 -10 -11 -7 -1 -10
36 -10 49 0 51 -1 46 -25 -3 -19 -12 -26 -38 -31 -35 -6 -37 -24 -3 -24 14 0
19 -6 17 -17 -3 -19 -38 -30 -103 -32 -38 -2 -39 -2 -20 -17 14 -10 31 -13 58
-9 22 4 37 3 37 -3 0 -18 -64 -78 -120 -112 -8 -5 -11 -12 -7 -17 18 -18 120
60 164 124 20 29 76 40 106 20 12 -8 53 -44 91 -81 72 -70 95 -78 153 -55 l28
11 -52 18 c-28 10 -84 40 -125 67 l-73 48 73 3 c75 3 85 9 52 30 -15 9 -40 10
-108 2 -112 -13 -112 -13 -112 5 0 18 29 31 93 40 66 10 48 29 -19 20 -50 -6
-54 -5 -54 14 0 22 11 26 83 37 26 3 50 10 52 14 9 15 -29 20 -65 10 -50 -14
-53 -13 -47 20 5 23 2 32 -13 40 -32 17 -42 12 -36 -21z"/>
  <path d="M236 621 c-3 -4 0 -40 6 -79 8 -46 8 -76 2 -82 -5 -5 -34 -13 -63
-17 -73 -11 -70 -27 7 -31 l62 -3 0 -43 0 -42 -85 -39 c-47 -21 -85 -42 -85
-46 0 -5 11 -16 24 -25 24 -15 27 -14 84 25 l60 40 -5 -67 c-6 -77 -13 -88
-41 -73 -44 23 -44 9 -2 -34 24 -25 49 -45 55 -45 23 0 35 53 35 150 0 98 0
99 30 120 31 22 41 47 15 36 -8 -3 -22 -9 -30 -12 -12 -5 -15 2 -15 29 0 34 2
36 43 44 58 12 58 39 0 36 l-42 -2 6 37 c2 20 9 50 14 66 5 17 6 33 1 38 -13
13 -71 27 -76 19z"/>
  <path d="M512 318 c3 -31 1 -33 -32 -36 -53 -5 -62 -22 -12 -22 23 0 42 -4 42
-9 0 -5 3 -16 6 -24 5 -13 -8 -17 -65 -23 -39 -3 -71 -10 -71 -15 0 -15 40
-20 80 -9 22 6 45 8 50 5 6 -3 10 -40 10 -81 0 -71 10 -94 25 -56 3 9 9 47 12
85 l6 67 85 0 c66 0 83 3 74 12 -7 7 -40 11 -87 10 -68 -2 -75 -1 -75 17 0 15
10 22 41 28 49 10 48 28 -1 28 -30 0 -35 3 -32 21 2 15 -4 23 -20 28 -37 9
-40 8 -36 -26z"/>
</g>
<g id="part-1" class="char-part">
  <path d="M247 539 c7 -91 3 -98 -57 -99 -19 0 -42 -5 -50 -10 -11 -7 4 -10 48
-10 l63 0 -3 -52 -3 -53 -82 -35 c-45 -19 -81 -39 -79 -45 1 -5 14 -14 28 -19
20 -7 34 -2 79 28 30 20 56 31 58 25 2 -6 0 -40 -4 -76 l-7 -65 -31 6 -31 6
34 -35 c19 -19 39 -35 46 -35 21 0 31 53 26 145 l-4 90 38 28 c38 26 33 38 -8
16 -27 -14 -31 -7 -23 39 6 37 9 40 46 45 69 9 67 32 -3 30 l-41 -2 6 37 c3
20 8 51 12 68 6 26 3 32 -20 42 -14 7 -30 12 -35 12 -6 0 -7 -34 -3 -81z"/>
</g>
<g id="part-2" class="char-part">
  <path d="M510 595 l0 -45 -37 0 c-21 0 -45 -5 -53 -10 -11 -7 0 -10 39 -10 44
0 52 -3 47 -16 -3 -9 -6 -19 -6 -24 0 -5 -19 -11 -42 -15 -46 -8 -37 -18 26
-29 25 -5 41 -3 46 3 3 6 34 16 68 22 81 15 83 34 2 25 -48 -6 -60 -4 -60 7 0
23 21 34 83 41 31 4 57 11 57 16 0 13 -37 22 -60 16 -11 -3 -30 -9 -41 -12
-19 -6 -21 -3 -15 21 8 31 -7 55 -35 55 -16 0 -19 -8 -19 -45z"/>
</g>
<g id="part-3" class="char-part">
  <path d="M477 426 c-3 -8 -30 -16 -73 -21 -63 -6 -67 -8 -49 -22 14 -10 32
-12 58 -9 35 6 37 5 28 -12 -11 -21 -79 -84 -107 -100 -10 -6 -15 -14 -11 -18
15 -15 98 39 138 90 72 90 94 89 206 -14 88 -81 100 -86 162 -74 40 8 40 21
-1 29 -44 10 -80 29 -152 81 l-60 44 72 0 c72 0 89 10 52 30 -13 7 -49 7 -117
-1 -70 -7 -98 -8 -101 0 -5 16 -39 14 -45 -3z"/>
</g>
<g id="part-4" class="char-part">
  <path d="M510 316 c0 -31 -3 -34 -42 -42 l-43 -8 41 -4 c35 -2 43 -7 46 -26 4
-21 0 -25 -31 -30 -20 -3 -54 -6 -76 -6 -37 0 -38 -1 -22 -17 14 -14 23 -15
67 -5 29 7 56 12 61 12 5 0 9 -36 9 -80 0 -44 4 -80 9 -80 11 0 31 87 31 135
l0 35 86 0 c54 0 83 4 79 10 -3 6 -42 10 -86 10 -78 0 -80 1 -77 23 2 17 11
23 41 27 49 7 44 26 -7 22 -32 -2 -37 0 -32 14 8 21 -11 44 -35 44 -15 0 -19
-7 -19 -34z"/>
</g>
</g>
</svg>