<?xml version="1.0" standalone="no"?>
<!DOCTYPE svg PUBLIC "-//W3C//DTD SVG 20010904//EN"
 "http://www.w3.org/TR/2001/REC-SVG-20010904/DTD/svg10.dtd">
<svg version="1.0" xmlns="http://www.w3.org/2000/svg"
 width="96.000000pt" height="68.000000pt" viewBox="0 0 96.000000 68.000000"
 preserveAspectRatio="xMidYMid meet">
<metadata>
Created by potrace 1.16, written by Peter Selinger 2001-2019
Combined from part_0.svg through part_5.svg with named groups
</metadata>
<g transform="translate(0.000000,68.000000) scale(0.100000,-0.100000)" fill="#000000" stroke="none">
<g id="part-0" class="char-part">
  <path d="M230 545 c0 -13 41 -84 52 -92 8 -5 -14 -12 -56 -18 -68 -10 -93 -27
-49 -33 18 -3 25 -16 41 -85 10 -45 17 -85 15 -89 -2 -5 -26 -8 -54 -8 -53 0
-60 -7 -30 -34 23 -21 18 -22 148 29 107 42 132 62 62 50 -37 -6 -40 -6 -30
12 30 54 49 112 38 117 -9 3 -8 5 1 5 6 1 12 8 12 16 0 8 7 15 15 15 8 0 15 7
15 16 0 14 -8 16 -53 11 l-53 -5 4 27 c3 21 -3 33 -23 50 -26 19 -55 28 -55
16z m99 -152 c0 -10 -6 -47 -13 -83 -10 -53 -16 -66 -33 -68 -17 -3 -21 4 -26
49 -4 28 -13 62 -22 75 -20 30 -19 32 8 37 56 11 87 7 86 -10z"/>
  <path d="M688 507 c-66 -14 -61 -30 6 -22 47 6 55 5 58 -10 1 -10 1 -90 -2
-179 l-5 -161 -25 2 c-50 3 -54 -6 -15 -37 45 -36 47 -36 71 -9 17 19 20 43
24 215 3 107 4 199 2 204 -4 12 -51 11 -114 -3z"/>
  <path d="M498 477 c-64 -14 -61 -28 5 -25 l52 3 1 -135 c1 -158 -3 -176 -40
-172 -14 2 -26 -1 -26 -7 0 -6 6 -11 13 -11 7 0 18 -9 25 -20 16 -27 36 -25
55 4 13 19 16 59 18 197 l2 174 -29 1 c-16 1 -50 -3 -76 -9z"/>
  <path d="M451 383 c25 -32 51 -53 60 -47 20 12 7 36 -26 50 -45 18 -50 18 -34
-3z"/>
  <path d="M665 370 c33 -34 55 -39 55 -12 0 19 -37 42 -67 42 -13 0 -10 -7 12
-30z"/>
  <path d="M486 265 c-27 -13 -58 -26 -70 -29 l-21 -6 22 -15 c22 -15 25 -14 79
29 63 51 61 55 -10 21z"/>
  <path d="M695 270 c-16 -11 -38 -20 -47 -20 -23 0 -24 -29 -2 -37 11 -4 29 7
56 35 43 46 40 53 -7 22z"/>
</g>
<g id="part-1" class="char-part">
  <path d="M240 535 c0 -21 37 -75 52 -75 25 0 23 34 -4 60 -20 18 -48 27 -48
15z"/>
  <path d="M280 443 c-41 -8 -86 -17 -100 -20 -21 -4 -22 -6 -9 -14 18 -9 176 7
217 22 28 11 20 30 -11 28 -12 -1 -56 -8 -97 -16z"/>
</g>
<g id="part-2" class="char-part">
  <path d="M320 338 c-7 -46 -18 -86 -24 -90 -25 -17 -36 -7 -36 30 0 41 -33
122 -50 122 -13 0 -13 0 9 -92 10 -43 16 -80 13 -83 -3 -3 -29 -5 -59 -5 -29
0 -53 -4 -53 -9 0 -11 45 -41 63 -41 13 0 126 48 202 86 l30 15 -42 -5 c-24
-2 -43 -1 -43 3 0 4 11 35 25 69 31 76 31 82 2 82 -22 0 -24 -7 -37 -82z"/>
</g>
<g id="part-3" class="char-part">
  <path d="M488 477 c-66 -14 -62 -31 6 -23 44 5 55 3 60 -10 8 -21 8 -189 0
-248 -6 -43 -9 -46 -37 -46 l-31 0 29 -30 c65 -68 83 -27 86 195 l3 170 -35 1
c-19 1 -55 -3 -81 -9z"/>
</g>
<g id="part-4" class="char-part">
  <path d="M505 274 c-11 -8 -37 -20 -57 -26 -39 -11 -50 -31 -24 -41 15 -6 79
35 105 66 17 21 3 22 -24 1z"/>
</g>
<g id="part-5" class="char-part">
  <path d="M680 255 c-7 -8 -15 -13 -19 -11 -4 3 -13 0 -21 -6 -12 -8 -11 -9 4
-4 14 5 17 2 12 -9 -4 -13 -2 -14 15 -5 11 6 17 15 14 20 -3 4 1 10 7 13 7 2
10 7 7 11 -3 4 -12 0 -19 -9z"/>
</g>
</g>
</svg>