<?xml version="1.0" standalone="no"?>
<!DOCTYPE svg PUBLIC "-//W3C//DTD SVG 20010904//EN"
 "http://www.w3.org/TR/2001/REC-SVG-20010904/DTD/svg10.dtd">
<svg version="1.0" xmlns="http://www.w3.org/2000/svg"
 width="96.000000pt" height="68.000000pt" viewBox="0 0 96.000000 68.000000"
 preserveAspectRatio="xMidYMid meet">
<metadata>
Created by potrace 1.16, written by Peter Selinger 2001-2019
Combined from part_0.svg through part_5.svg with named groups
</metadata>
<g transform="translate(0.000000,68.000000) scale(0.100000,-0.100000)" fill="#000000" stroke="none">
<g id="part-0" class="char-part">
  <path d="M535 598 c2 -13 6 -48 7 -78 l3 -55 -68 0 c-63 0 -80 -6 -58 -20 5
-3 15 -31 21 -63 21 -109 15 -100 65 -94 43 4 45 3 45 -21 0 -30 -18 -36 -123
-38 -43 -1 -80 -5 -83 -10 -9 -16 45 -21 126 -12 44 5 83 7 85 4 3 -2 5 -44 5
-94 0 -66 3 -88 13 -85 16 6 24 47 26 126 l1 62 119 0 c70 0 122 4 126 10 14
23 -55 30 -179 20 -59 -5 -59 -5 -60 22 -2 29 -2 29 68 32 26 1 32 9 63 80 47
106 49 104 -122 93 -25 -2 -30 2 -32 26 -1 15 1 27 5 27 116 9 146 16 118 32
-15 8 -49 6 -98 -8 -13 -4 -17 3 -20 28 -2 28 -7 34 -31 36 -24 3 -27 1 -22
-20z m165 -168 c0 -28 -2 -29 -42 -28 -24 1 -75 -2 -114 -6 l-71 -9 -5 26 c-5
24 -2 27 36 31 23 3 52 7 66 10 14 2 49 4 78 5 51 1 52 1 52 -29z m-15 -68
c-4 -15 -8 -28 -9 -30 -2 -1 -46 -5 -100 -9 l-96 -6 0 25 c0 25 3 26 88 34 48
5 95 10 105 11 16 2 18 -3 12 -25z"/>
  <path d="M247 604 c-3 -3 -2 -18 3 -32 5 -15 11 -50 14 -78 l5 -52 -65 -7
c-86 -9 -82 -30 5 -29 l62 1 -6 -41 c-4 -23 -10 -44 -14 -47 -3 -3 -37 -19
-76 -34 -88 -36 -95 -42 -71 -61 29 -21 50 -17 103 16 47 31 48 31 51 9 2 -12
1 -42 -3 -66 l-6 -45 -42 7 -42 7 45 -46 c24 -25 52 -46 60 -46 28 0 40 46 40
149 l0 99 35 21 c46 27 46 46 -1 26 l-35 -14 3 37 c3 33 6 37 33 40 44 5 53
19 21 32 -15 5 -32 8 -37 4 -13 -8 -11 70 3 101 10 22 9 27 -8 40 -19 14 -66
20 -77 9z"/>
</g>
<g id="part-1" class="char-part">
  <path d="M254 588 c4 -13 10 -51 13 -85 l6 -61 -49 -7 c-86 -11 -96 -24 -21
-24 l68 -1 -3 -47 -3 -48 -89 -36 c-87 -36 -88 -36 -65 -53 32 -22 37 -21 97
20 30 20 56 33 59 30 3 -3 2 -36 -3 -73 -10 -72 -17 -78 -69 -58 -12 4 0 -13
27 -41 46 -46 49 -48 65 -31 15 14 19 39 21 130 l4 112 36 23 c34 21 23 25
-20 7 -15 -6 -18 -1 -18 34 0 34 3 41 19 41 28 0 52 11 45 21 -3 5 -18 9 -35
9 -34 0 -36 13 -15 84 l14 46 -28 15 c-44 23 -64 20 -56 -7z"/>
</g>
<g id="part-2" class="char-part">
  <path d="M533 606 c3 -8 9 -42 13 -75 7 -66 28 -83 39 -32 6 28 10 30 71 36
35 4 64 11 64 15 0 16 -37 21 -80 11 -43 -10 -45 -8 -52 34 -2 14 -12 21 -32
23 -22 3 -27 0 -23 -12z"/>
</g>
<g id="part-3" class="char-part">
  <path d="M600 474 c-47 -8 -109 -13 -138 -11 -45 3 -52 1 -46 -12 15 -36 34
-106 34 -125 0 -39 11 -44 75 -35 33 5 86 9 118 10 l58 1 20 46 c11 26 27 62
36 80 10 22 12 37 6 43 -17 17 -75 18 -163 3z m100 -43 c0 -27 -2 -28 -42 -28
-24 1 -75 -2 -114 -7 l-71 -8 -5 25 c-5 24 -2 27 36 31 23 3 52 7 66 10 14 2
49 4 78 5 51 1 52 0 52 -28z m-11 -53 c-2 -46 -12 -51 -112 -55 l-97 -5 0 25
c0 24 3 25 93 35 50 5 98 10 105 11 6 0 12 -5 11 -11z"/>
</g>
<g id="part-4" class="char-part">
  <path d="M550 265 l0 -32 -97 -2 c-101 -2 -124 -7 -102 -22 8 -5 58 -6 112 -3
l97 7 0 -92 c0 -85 9 -113 24 -74 4 10 10 51 13 93 3 41 7 77 10 80 2 2 55 3
118 2 116 -2 151 8 93 27 -23 7 -59 8 -118 1 -47 -5 -88 -10 -93 -10 -4 0 -5
11 -1 25 3 14 2 26 -2 26 -52 8 -54 7 -54 -26z"/>
</g>
</g>
</svg>