<?xml version="1.0" standalone="no"?>
<!DOCTYPE svg PUBLIC "-//W3C//DTD SVG 20010904//EN"
 "http://www.w3.org/TR/2001/REC-SVG-20010904/DTD/svg10.dtd">
<svg version="1.0" xmlns="http://www.w3.org/2000/svg"
 width="96.000000pt" height="68.000000pt" viewBox="0 0 96.000000 68.000000"
 preserveAspectRatio="xMidYMid meet">
<metadata>
Created by potrace 1.16, written by Peter Selinger 2001-2019
Combined from part_0.svg through part_5.svg with named groups
</metadata>
<g transform="translate(0.000000,68.000000) scale(0.100000,-0.100000)" fill="#000000" stroke="none">
<g id="part-0" class="char-part">
  <path d="M192 539 c5 -21 75 -71 95 -67 10 2 19 13 21 25 4 26 -18 40 -77 49
-33 5 -41 4 -39 -7z"/>
  <path d="M720 457 c-7 -7 -311 -37 -372 -37 -53 0 -54 -1 -33 -33 8 -12 23
-66 33 -120 19 -100 28 -120 40 -100 5 8 50 14 117 18 61 3 123 8 138 10 23 4
31 -1 45 -25 38 -67 82 -15 107 124 8 49 20 95 27 103 9 11 7 18 -8 34 -19 19
-83 36 -94 26z m19 -96 c-1 -90 -19 -147 -45 -142 -10 2 -55 2 -99 0 -44 -2
-107 -3 -140 -3 l-59 -1 -14 83 c-8 46 -12 86 -9 89 3 2 24 7 46 10 55 7 61
-12 27 -78 -32 -63 -32 -63 0 -42 29 19 54 68 54 108 0 21 5 25 30 25 29 0 30
-1 30 -49 0 -61 14 -74 91 -79 49 -4 59 -2 59 12 0 13 -10 16 -49 16 -59 0
-73 13 -62 62 12 53 16 56 81 56 l60 0 -1 -67z"/>
  <path d="M128 373 c31 -44 49 -55 72 -48 23 7 27 37 7 53 -7 6 -33 14 -57 18
l-44 7 22 -30z"/>
  <path d="M226 249 c-21 -28 -49 -55 -62 -61 -13 -6 -25 -16 -27 -22 -7 -18 20
-76 35 -76 12 0 108 178 108 200 0 20 -16 8 -54 -41z"/>
</g>
<g id="part-1" class="char-part">
  <path d="M200 542 c0 -20 59 -64 81 -60 35 5 36 33 2 46 -44 16 -83 23 -83 14z"/>
  <path d="M120 392 c0 -14 55 -62 71 -62 25 0 34 19 17 37 -15 15 -88 36 -88
25z"/>
  <path d="M203 223 c-35 -35 -63 -70 -63 -77 0 -8 8 -24 19 -37 l19 -23 51 102
c28 56 48 101 44 100 -5 -1 -36 -30 -70 -65z"/>
</g>
<g id="part-2" class="char-part">
  <path d="M719 456 c-6 -6 -314 -36 -371 -36 -44 0 -61 -11 -39 -25 13 -8 28
-58 41 -140 13 -85 23 -104 43 -87 7 6 61 14 118 17 57 3 116 8 131 10 22 4
31 -2 45 -25 39 -66 77 -27 104 106 10 55 24 107 29 116 14 25 14 26 -22 48
-30 18 -69 26 -79 16z m5 -32 c19 -7 22 -86 5 -164 -10 -47 -13 -51 -33 -44
-11 4 -57 6 -101 4 -44 -3 -107 -4 -140 -5 l-59 0 -14 83 c-8 46 -11 86 -7 90
5 5 113 19 322 41 6 0 18 -2 27 -5z"/>
</g>
<g id="part-3" class="char-part">
  <path d="M473 403 c-7 -2 -13 -19 -13 -37 0 -19 -11 -49 -25 -70 -29 -43 -17
-47 26 -8 24 21 32 38 36 75 5 45 2 51 -24 40z"/>
  <path d="M560 361 c0 -61 14 -74 91 -79 49 -4 59 -2 59 11 0 12 -13 17 -52 19
l-53 3 1 48 c0 43 -2 47 -23 47 -21 0 -23 -4 -23 -49z"/>
</g>
</g>
</svg>