<?xml version="1.0" standalone="no"?>
<!DOCTYPE svg PUBLIC "-//W3C//DTD SVG 20010904//EN"
 "http://www.w3.org/TR/2001/REC-SVG-20010904/DTD/svg10.dtd">
<svg version="1.0" xmlns="http://www.w3.org/2000/svg"
 width="96.000000pt" height="68.000000pt" viewBox="0 0 96.000000 68.000000"
 preserveAspectRatio="xMidYMid meet">
<metadata>
Created by potrace 1.16, written by Peter Selinger 2001-2019
Combined from part_0.svg through part_5.svg with named groups
</metadata>
<g transform="translate(0.000000,68.000000) scale(0.100000,-0.100000)" fill="#000000" stroke="none">
<g id="part-0" class="char-part">
  <path d="M501 535 c-36 -87 -76 -135 -111 -135 -31 0 -31 0 -26 -47 3 -27 8
-92 12 -146 4 -67 10 -97 17 -94 8 2 13 46 15 130 l3 126 52 10 c80 17 240 31
266 24 23 -6 23 -6 16 -116 -8 -126 -18 -162 -41 -153 -9 3 -27 9 -42 13 l-25
6 33 -41 c18 -23 41 -42 50 -42 40 0 79 81 80 166 0 28 5 77 11 109 10 57 10
60 -12 78 -19 15 -33 18 -69 13 -25 -4 -79 -11 -120 -16 -41 -5 -97 -12 -125
-16 l-50 -7 42 44 c67 70 103 112 103 120 0 9 -33 29 -48 29 -4 0 -18 -25 -31
-55z"/>
  <path d="M175 463 l-50 -4 0 -154 c0 -157 8 -193 35 -160 21 25 75 19 94 -10
18 -27 24 -29 46 -15 12 7 16 42 20 172 4 107 2 166 -5 170 -10 8 -43 8 -140
1z m83 -35 c7 -7 12 -31 12 -55 0 -41 -1 -43 -29 -43 -16 0 -36 -3 -45 -6 -13
-5 -16 3 -16 49 0 50 2 56 23 60 39 8 43 7 55 -5z m10 -180 l-3 -53 -47 -3
-48 -3 0 50 c0 53 3 56 73 60 28 1 28 0 25 -51z"/>
  <path d="M555 330 c-16 -4 -47 -8 -68 -9 -36 -1 -37 -2 -23 -23 8 -13 18 -40
21 -60 7 -37 18 -48 30 -28 3 6 31 10 61 10 37 0 54 4 54 13 0 7 9 30 20 51
10 22 17 43 14 47 -6 11 -67 10 -109 -1z m52 -26 c3 -8 1 -26 -5 -40 -9 -19
-19 -24 -51 -24 -40 0 -51 11 -51 50 0 15 9 20 43 23 23 2 46 4 50 5 4 1 10
-5 14 -14z"/>
</g>
<g id="part-1" class="char-part">
  <path d="M225 460 c-16 -4 -47 -8 -67 -9 -37 -1 -37 -2 -27 -28 10 -26 5 -176
-7 -228 -6 -25 22 -65 33 -48 5 6 25 14 45 18 34 6 38 5 52 -24 20 -37 30 -39
50 -9 11 17 15 59 17 167 1 129 -1 146 -17 158 -19 14 -33 15 -79 3z m43 -82
l3 -58 -51 0 -50 0 0 54 c0 59 7 66 65 63 29 -2 30 -3 33 -59z m2 -128 l0 -60
-56 0 -56 0 6 31 c3 17 6 42 6 55 0 19 6 23 38 27 20 2 43 4 50 5 8 2 12 -16
12 -58z"/>
</g>
<g id="part-2" class="char-part">
  <path d="M510 556 c-6 -19 -29 -62 -50 -95 -22 -34 -36 -61 -31 -61 11 0 151
148 151 160 0 10 -32 30 -49 30 -5 0 -15 -15 -21 -34z"/>
</g>
<g id="part-3" class="char-part">
  <path d="M640 423 c-47 -7 -129 -15 -183 -16 l-97 -2 6 -80 c3 -44 7 -109 8
-145 1 -53 4 -65 19 -68 15 -3 17 8 17 126 l0 130 88 15 c48 9 119 19 158 22
96 9 99 4 90 -126 -8 -116 -19 -154 -42 -145 -9 3 -27 9 -42 13 l-25 6 33 -41
c38 -48 58 -52 87 -20 28 32 33 50 43 158 5 52 12 109 15 127 6 28 4 33 -23
47 -35 18 -37 18 -152 -1z"/>
</g>
<g id="part-4" class="char-part">
  <path d="M550 328 c-19 -5 -49 -8 -67 -6 -38 5 -38 5 -19 -25 8 -12 17 -39 20
-59 4 -21 11 -38 16 -38 6 0 10 5 10 10 0 6 28 10 65 10 53 0 63 3 59 15 -3 8
3 31 15 51 12 19 19 40 16 45 -8 12 -70 10 -115 -3z m60 -22 c0 -8 -4 -26 -10
-40 -8 -22 -16 -26 -49 -26 -40 0 -51 11 -51 50 0 15 9 20 43 23 23 2 48 4 55
5 6 1 12 -4 12 -12z"/>
</g>
</g>
</svg>