<?xml version="1.0" standalone="no"?>
<!DOCTYPE svg PUBLIC "-//W3C//DTD SVG 20010904//EN"
 "http://www.w3.org/TR/2001/REC-SVG-20010904/DTD/svg10.dtd">
<svg version="1.0" xmlns="http://www.w3.org/2000/svg"
 width="96.000000pt" height="68.000000pt" viewBox="0 0 96.000000 68.000000"
 preserveAspectRatio="xMidYMid meet">
<metadata>
Created by potrace 1.16, written by Peter Selinger 2001-2019
Combined from part_0.svg through part_5.svg with named groups
</metadata>
<g transform="translate(0.000000,68.000000) scale(0.100000,-0.100000)" fill="#000000" stroke="none">
<g id="part-0" class="char-part">
  <path d="M560 571 l0 -38 -70 -7 c-38 -4 -70 -11 -70 -17 0 -5 32 -9 70 -9 53
0 70 -3 70 -14 0 -13 -48 -26 -100 -26 -25 0 -25 0 -22 -77 5 -87 23 -130 32
-72 5 32 8 34 47 37 40 3 42 2 45 -29 4 -44 24 -48 32 -6 7 37 24 47 84 47 22
0 32 -5 32 -15 0 -9 -9 -15 -22 -15 l-21 0 23 -25 c13 -14 27 -25 31 -25 15 0
27 36 38 110 13 96 6 104 -91 95 -57 -6 -68 -5 -68 8 0 12 20 19 75 28 42 6
78 16 81 20 3 5 0 9 -7 9 -6 0 -9 8 -6 20 7 26 -19 40 -70 40 l-38 -1 38 -20
c45 -24 47 -35 6 -43 -63 -12 -72 -9 -66 23 4 21 2 31 -9 35 -35 13 -44 7 -44
-33z m150 -125 c0 -8 -15 -16 -37 -20 -62 -10 -73 -8 -73 14 0 18 7 20 55 20
40 0 55 -4 55 -14z m-150 -17 c0 -18 -5 -20 -42 -17 -45 3 -63 24 -26 31 54
10 68 7 68 -14z m150 -36 c0 -15 -9 -18 -52 -18 -56 0 -79 21 -31 28 65 10 83
7 83 -10z m-150 -12 c0 -10 -34 -21 -67 -21 -23 0 -30 10 -16 23 10 10 83 8
83 -2z"/>
  <path d="M277 507 l6 -85 -67 -7 c-36 -4 -69 -11 -72 -16 -8 -14 43 -22 91
-15 l45 7 0 -45 c0 -54 -11 -63 -117 -102 -41 -15 -72 -32 -70 -38 2 -6 16
-17 31 -24 26 -13 31 -11 89 28 69 46 74 43 62 -36 -6 -44 -6 -44 -48 -44
l-42 -1 45 -39 c79 -69 99 -50 100 97 l0 102 30 18 c45 26 35 47 -11 23 -17
-10 -19 -7 -19 25 0 31 4 37 30 47 34 11 35 31 2 36 -25 4 -30 41 -12 88 13
33 0 51 -47 60 l-31 6 5 -85z"/>
  <path d="M640 270 c0 -22 -15 -25 -149 -35 -46 -4 -93 -10 -105 -15 -43 -16
30 -22 134 -11 55 6 108 11 116 11 12 0 14 -13 12 -72 l-3 -73 -40 2 -40 3 40
-35 c22 -19 43 -34 46 -35 3 0 14 9 25 21 16 17 19 37 19 108 l0 86 73 3 c103
4 95 32 -10 32 -31 0 -55 6 -64 15 -22 22 -54 19 -54 -5z"/>
  <path d="M470 184 c0 -17 44 -64 61 -64 34 0 23 39 -16 56 -38 16 -45 17 -45
8z"/>
</g>
<g id="part-1" class="char-part">
  <path d="M275 563 c4 -10 9 -46 12 -80 l6 -61 -49 -7 c-93 -13 -105 -23 -26
-24 l72 -1 0 -49 0 -49 -84 -36 c-47 -20 -89 -36 -95 -36 -17 0 -13 -27 5 -34
29 -11 45 -6 104 34 32 22 62 40 65 40 6 0 0 -68 -11 -119 -4 -20 -10 -23 -39
-19 -19 2 -35 0 -35 -4 0 -4 3 -8 8 -8 4 0 22 -14 40 -31 58 -54 82 -20 82
119 0 86 0 87 32 115 l33 27 -28 -10 c-38 -14 -37 -15 -37 30 0 36 3 40 33 48
l32 9 -30 14 c-16 7 -32 14 -34 15 -2 2 2 26 9 55 12 48 11 53 -6 66 -10 7
-29 13 -42 13 -19 0 -23 -4 -17 -17z"/>
</g>
<g id="part-2" class="char-part">
  <path d="M654 601 c12 -19 78 -43 89 -32 18 18 -12 41 -55 41 -21 0 -37 -4
-34 -9z"/>
</g>
<g id="part-3" class="char-part">
  <path d="M630 479 c-30 -4 -87 -11 -125 -14 l-71 -8 4 -66 c4 -82 10 -111 22
-111 6 0 10 14 10 30 0 17 6 32 13 35 6 2 60 6 120 10 93 6 107 4 107 -9 0 -9
-9 -16 -20 -16 -20 0 -20 -1 -3 -25 37 -50 60 -22 72 87 11 101 3 106 -129 87z
m80 -33 c0 -15 -32 -21 -162 -32 -67 -6 -78 -5 -78 9 0 11 14 18 48 22 26 3
54 8 62 9 8 2 41 4 73 5 42 1 57 -3 57 -13z m0 -50 c0 -9 -18 -15 -57 -19 -32
-4 -87 -9 -122 -13 -52 -6 -63 -4 -59 7 3 9 34 18 94 25 128 16 144 16 144 0z"/>
</g>
<g id="part-4" class="char-part">
  <path d="M470 184 c0 -14 43 -64 55 -64 39 0 26 44 -17 59 -36 13 -38 13 -38
5z"/>
</g>
</g>
</svg>