<?xml version="1.0" standalone="no"?>
<!DOCTYPE svg PUBLIC "-//W3C//DTD SVG 20010904//EN"
 "http://www.w3.org/TR/2001/REC-SVG-20010904/DTD/svg10.dtd">
<svg version="1.0" xmlns="http://www.w3.org/2000/svg"
 width="96.000000pt" height="68.000000pt" viewBox="0 0 96.000000 68.000000"
 preserveAspectRatio="xMidYMid meet">
<metadata>
Created by potrace 1.16, written by Peter Selinger 2001-2019
Combined from part_0.svg through part_5.svg with named groups
</metadata>
<g transform="translate(0.000000,68.000000) scale(0.100000,-0.100000)" fill="#000000" stroke="none">
<g id="part-0" class="char-part">
  <path d="M390 555 c0 -58 -20 -71 -122 -80 -43 -4 -78 -11 -78 -16 0 -14 48
-22 106 -16 l54 6 -20 -29 c-28 -40 -91 -87 -174 -133 l-71 -38 43 6 c24 3 61
14 83 25 21 11 41 20 44 20 3 0 5 -51 5 -112 1 -125 6 -139 60 -156 67 -20
116 -23 258 -13 143 10 171 16 155 32 -11 11 -43 12 -213 2 -85 -5 -160 -5
-182 0 -33 8 -38 13 -39 41 -3 74 4 153 16 182 l13 32 114 8 c62 4 116 9 121
10 4 1 15 2 24 3 13 1 14 4 6 12 -14 14 -72 16 -188 6 -49 -5 -85 -5 -80 0 6
4 29 31 52 58 63 77 81 74 194 -25 115 -101 136 -113 197 -105 102 14 107 25
20 50 -75 22 -123 45 -195 93 -64 42 -57 52 35 52 55 0 63 2 60 17 -5 24 -47
30 -146 19 -46 -5 -85 -6 -89 -3 -3 4 2 19 12 33 17 27 17 28 -5 46 -12 10
-33 18 -46 18 -22 0 -24 -4 -24 -45z"/>
  <path d="M470 288 c-19 -5 -46 -8 -60 -6 l-26 4 15 -43 c14 -38 19 -43 41 -39
14 3 44 8 67 11 23 4 42 10 41 13 -1 4 2 15 6 25 19 43 -12 56 -84 35z m46
-29 c9 -15 -5 -26 -47 -33 -31 -5 -37 -3 -42 13 -3 11 -2 22 1 25 10 11 81 6
88 -5z"/>
  <path d="M598 189 c-8 -4 -34 -10 -57 -11 -32 -2 -40 -6 -35 -18 3 -8 8 -27
11 -42 6 -32 5 -32 73 -17 39 8 50 15 50 30 0 10 5 19 11 19 6 0 9 7 7 16 -4
21 -39 35 -60 23z m12 -43 c0 -18 -7 -25 -32 -30 -36 -7 -33 -8 -42 21 -7 22
-3 24 62 32 6 0 12 -10 12 -23z"/>
  <path d="M395 169 c-16 -4 -41 -6 -55 -2 -24 6 -24 5 -9 -13 9 -10 19 -32 23
-48 6 -23 11 -27 29 -22 12 3 29 6 37 6 16 0 40 43 40 72 0 20 -17 22 -65 7z
m25 -33 c0 -16 -7 -27 -21 -31 -24 -8 -24 -7 -33 22 -5 16 -2 23 11 26 36 9
43 7 43 -17z"/>
</g>
<g id="part-1" class="char-part">
  <path d="M400 565 c0 -19 -5 -45 -11 -59 -11 -23 -19 -25 -100 -32 -49 -3 -89
-10 -89 -14 0 -15 34 -20 93 -14 57 7 59 6 48 -13 -19 -36 -107 -108 -178
-146 -84 -46 -40 -40 62 8 69 32 114 69 163 133 20 26 31 32 61 32 30 0 48
-10 106 -61 121 -106 142 -119 194 -118 25 1 60 4 76 8 l30 6 -45 17 c-25 9
-63 22 -85 28 -22 7 -78 38 -125 69 l-85 56 75 3 c97 3 109 7 87 29 -15 15
-27 16 -124 5 -58 -6 -108 -10 -110 -8 -2 2 4 20 13 40 20 41 19 43 -25 56
-30 8 -31 8 -31 -25z"/>
</g>
<g id="part-2" class="char-part">
  <path d="M410 346 c-154 -16 -150 -12 -150 -156 0 -109 2 -121 21 -139 38 -36
117 -45 288 -33 144 9 198 22 158 38 -19 7 -8 7 -223 -2 -214 -9 -208 -12
-202 115 7 140 4 137 145 146 64 4 126 11 138 15 19 7 18 9 -8 19 -16 6 -36
10 -45 9 -9 0 -64 -6 -122 -12z"/>
</g>
<g id="part-3" class="char-part">
  <path d="M480 289 c-14 -6 -40 -9 -57 -7 -36 4 -39 -2 -22 -50 10 -30 12 -31
57 -26 84 10 89 12 96 45 3 17 3 35 0 40 -7 12 -42 10 -74 -2z m34 -27 c9 -15
-9 -30 -47 -37 -32 -6 -37 -5 -37 12 0 11 3 23 7 26 9 10 71 9 77 -1z"/>
</g>
<g id="part-4" class="char-part">
  <path d="M568 180 c-16 -5 -39 -7 -52 -6 -22 3 -23 2 -10 -23 8 -14 14 -34 14
-44 0 -15 5 -18 30 -13 17 3 43 8 58 11 20 4 31 15 40 37 6 17 9 35 6 39 -6
11 -49 10 -86 -1z m42 -34 c0 -19 -7 -26 -31 -31 -22 -5 -34 -3 -40 6 -15 23
-10 37 14 42 50 10 57 8 57 -17z"/>
</g>
</g>
</svg>