<?xml version="1.0" standalone="no"?>
<!DOCTYPE svg PUBLIC "-//W3C//DTD SVG 20010904//EN"
 "http://www.w3.org/TR/2001/REC-SVG-20010904/DTD/svg10.dtd">
<svg version="1.0" xmlns="http://www.w3.org/2000/svg"
 width="96.000000pt" height="68.000000pt" viewBox="0 0 96.000000 68.000000"
 preserveAspectRatio="xMidYMid meet">
<metadata>
Created by potrace 1.16, written by Peter Selinger 2001-2019
Combined from part_0.svg through part_5.svg with named groups
</metadata>
<g transform="translate(0.000000,68.000000) scale(0.100000,-0.100000)" fill="#000000" stroke="none">
<g id="part-0" class="char-part">
  <path d="M230 571 c0 -4 -16 -26 -36 -50 -28 -32 -41 -40 -56 -35 -15 4 -19 2
-15 -7 7 -16 22 -69 34 -119 7 -27 14 -34 29 -32 10 2 55 6 99 9 44 3 85 9 91
14 6 5 17 30 24 54 7 25 17 48 21 51 19 11 7 33 -23 43 -25 8 -44 7 -76 -2
-50 -15 -47 -28 4 -17 27 6 37 5 41 -6 7 -18 -4 -47 -16 -40 -5 3 -20 2 -33
-3 -21 -9 -21 -10 10 -10 36 -1 35 -1 23 -33 -8 -22 -16 -24 -82 -26 -50 -2
-75 1 -80 10 -14 21 -11 26 21 33 40 9 38 20 -2 20 -25 0 -34 5 -36 20 -2 16
14 28 69 58 44 24 68 42 62 48 -13 13 -73 29 -73 20z"/>
  <path d="M568 527 c-80 -10 -106 -27 -43 -27 35 0 36 -1 34 -39 -3 -37 -5 -39
-43 -47 l-41 -8 37 -4 c36 -3 37 -4 31 -35 -8 -43 -13 -48 -62 -54 -22 -3 -41
-10 -41 -14 0 -11 11 -11 123 1 51 5 127 13 170 16 87 6 95 24 11 24 -30 0
-54 3 -54 8 0 4 7 20 16 37 14 27 14 30 -3 42 -11 9 -32 11 -59 7 l-41 -6 2
39 c2 34 6 38 31 41 51 5 75 12 69 22 -7 11 -30 11 -137 -3z m92 -152 c0 -31
-3 -35 -37 -44 -48 -14 -58 -3 -42 43 11 31 17 36 46 36 31 0 33 -2 33 -35z"/>
  <path d="M245 194 c0 -75 4 -129 10 -131 6 -1 28 13 50 32 38 33 39 35 13 29
-27 -6 -28 -4 -28 30 0 33 2 36 31 36 16 0 28 4 25 9 -3 4 -17 6 -31 3 -21 -4
-25 -1 -25 21 0 19 7 26 33 33 l32 8 -30 3 c-20 3 -34 12 -40 26 -6 12 -17 23
-25 25 -13 2 -15 -17 -15 -124z"/>
  <path d="M366 250 c16 -84 37 -122 84 -154 55 -36 97 -46 211 -47 80 -1 114 3
138 15 30 16 40 39 22 51 -5 3 -12 19 -16 35 -7 34 -25 41 -25 10 0 -12 -11
-32 -25 -45 -22 -23 -32 -25 -114 -25 -106 0 -192 26 -218 67 -9 14 -19 55
-22 91 -5 59 -9 67 -27 70 -22 3 -22 3 -8 -68z"/>
  <path d="M135 186 c0 -63 3 -117 6 -120 3 -3 21 10 40 30 29 31 31 35 12 29
-21 -6 -23 -3 -23 29 0 33 2 35 38 39 l37 4 -38 1 c-34 2 -38 5 -35 25 2 17
11 23 38 27 27 4 31 7 17 13 -11 4 -23 4 -29 1 -5 -3 -16 3 -24 15 -31 44 -39
26 -39 -93z"/>
  <path d="M590 258 c-30 -5 -68 -7 -83 -4 -23 5 -27 3 -23 -12 3 -9 10 -39 17
-65 10 -43 14 -48 33 -42 12 3 56 9 99 12 53 4 77 10 74 17 -3 7 3 28 13 48
28 59 0 68 -130 46z m83 -15 c2 -5 0 -22 -4 -39 -8 -28 -14 -32 -55 -38 -81
-11 -84 -10 -84 29 0 32 3 35 38 40 20 4 44 8 52 10 29 6 49 5 53 -2z"/>
</g>
<g id="part-1" class="char-part">
  <path d="M206 530 c-17 -22 -34 -40 -39 -40 -4 0 -5 -4 -2 -10 5 -7 66 20 129
58 12 7 -23 32 -43 32 -9 0 -29 -18 -45 -40z"/>
</g>
<g id="part-2" class="char-part">
  <path d="M353 303 c3 -10 9 -38 12 -63 15 -95 67 -153 160 -180 62 -18 270
-10 291 12 15 15 15 19 -1 62 -21 53 -30 58 -38 16 -9 -43 -50 -60 -145 -60
-94 0 -159 20 -197 60 -24 25 -29 41 -34 97 -5 62 -8 68 -29 71 -19 3 -23 0
-19 -15z"/>
</g>
<g id="part-3" class="char-part">
  <path d="M563 526 c-111 -17 -101 -30 18 -23 112 7 142 13 133 28 -7 11 -58
10 -151 -5z"/>
</g>
<g id="part-4" class="char-part">
  <path d="M630 330 c-25 -4 -81 -11 -124 -15 -55 -5 -75 -10 -64 -16 10 -5 56
-5 115 1 54 6 133 13 176 16 42 3 75 10 71 15 -6 10 -109 10 -174 -1z"/>
</g>
<g id="part-5" class="char-part">
  <path d="M661 263 c-11 -4 -9 -8 7 -17 19 -10 19 -14 7 -48 -12 -36 -12 -38 9
-38 17 0 18 2 6 10 -12 8 -12 10 -1 10 8 0 11 7 8 20 -3 11 -2 18 3 15 4 -3
14 2 21 11 11 14 10 18 -6 30 -20 15 -31 16 -54 7z m36 -9 c-3 -3 -12 -4 -19
-1 -8 3 -5 6 6 6 11 1 17 -2 13 -5z"/>
  <path d="M608 253 c7 -3 16 -2 19 1 4 3 -2 6 -13 5 -11 0 -14 -3 -6 -6z"/>
  <path d="M499 236 c4 -6 7 -21 5 -33 -3 -17 1 -23 14 -23 12 0 13 3 5 8 -10 6
-9 14 1 34 13 24 12 26 -10 26 -17 0 -22 -4 -15 -12z"/>
  <path d="M510 155 c0 -16 16 -20 24 -6 3 5 -1 11 -9 15 -9 3 -15 0 -15 -9z"/>
  <path d="M613 153 c9 -2 23 -2 30 0 6 3 -1 5 -18 5 -16 0 -22 -2 -12 -5z"/>
</g>
</g>
</svg>