<?xml version="1.0" standalone="no"?>
<!DOCTYPE svg PUBLIC "-//W3C//DTD SVG 20010904//EN"
 "http://www.w3.org/TR/2001/REC-SVG-20010904/DTD/svg10.dtd">
<svg version="1.0" xmlns="http://www.w3.org/2000/svg"
 width="96.000000pt" height="68.000000pt" viewBox="0 0 96.000000 68.000000"
 preserveAspectRatio="xMidYMid meet">
<metadata>
Created by potrace 1.16, written by Peter Selinger 2001-2019
Combined from part_0.svg through part_5.svg with named groups
</metadata>
<g transform="translate(0.000000,68.000000) scale(0.100000,-0.100000)" fill="#000000" stroke="none">
<g id="part-0" class="char-part">
  <path d="M365 571 c-11 -11 -60 -41 -110 -66 l-90 -46 50 6 c110 12 100 15
103 -37 l3 -48 -33 -1 c-18 0 -62 -6 -98 -13 -83 -17 -58 -31 41 -23 38 3 69
4 69 1 0 -15 -84 -125 -120 -158 -23 -20 -39 -40 -36 -43 9 -10 80 41 129 92
l48 50 -6 -55 c-4 -30 -10 -76 -15 -101 -5 -25 -7 -55 -4 -67 6 -21 32 -37 43
-26 3 3 7 66 9 140 2 77 8 134 13 134 5 0 20 -9 32 -20 12 -11 28 -19 37 -18
29 6 15 33 -28 52 -23 11 -41 24 -39 30 2 6 25 12 50 14 62 4 60 22 -2 22
l-49 0 5 40 c4 24 1 46 -7 55 -10 12 -8 16 14 25 15 5 38 13 52 16 31 8 40 22
23 39 -26 25 -62 27 -84 6z"/>
  <path d="M588 474 l5 -117 -55 6 -55 5 5 -72 c3 -47 -1 -93 -12 -135 -22 -85
-21 -123 2 -119 11 2 22 21 31 59 l15 57 60 6 c34 4 78 10 99 13 35 5 37 4 37
-23 0 -16 -3 -39 -6 -52 -6 -20 -11 -22 -43 -16 l-36 6 40 -36 c45 -41 50 -42
73 -19 14 14 17 39 18 142 1 69 4 140 8 157 6 28 4 32 -23 44 -18 7 -45 9 -70
5 l-40 -7 -3 104 c-3 102 -3 103 -29 106 l-25 3 4 -117z m130 -150 c3 -31 2
-31 -50 -37 -29 -4 -72 -10 -95 -13 -43 -7 -43 -6 -43 24 0 17 6 34 13 39 18
11 86 21 132 19 37 -1 40 -3 43 -32z m2 -89 c0 -17 -7 -26 -22 -29 -51 -11
-162 -25 -168 -21 -4 2 -5 18 -2 35 4 28 7 30 51 31 25 0 64 4 86 8 49 9 55 6
55 -24z"/>
  <path d="M753 532 c-5 -4 -20 -26 -33 -49 -13 -24 -28 -43 -34 -43 -5 0 -6 -3
-3 -7 10 -9 127 49 127 63 0 16 -44 44 -57 36z"/>
  <path d="M466 465 c29 -44 74 -56 74 -20 0 19 -39 45 -67 45 -23 0 -23 -1 -7
-25z"/>
</g>
<g id="part-1" class="char-part">
  <path d="M360 562 c-18 -14 -67 -43 -109 -64 -42 -20 -67 -38 -56 -38 21 0
240 72 251 83 9 9 -13 34 -35 40 -11 2 -33 -7 -51 -21z"/>
</g>
<g id="part-2" class="char-part">
  <path d="M313 492 c-8 -5 -9 -13 -3 -22 6 -8 10 -31 10 -51 l0 -36 -92 -12
c-51 -7 -94 -14 -97 -17 -17 -17 58 -24 127 -11 l44 7 -24 -42 c-13 -23 -51
-70 -84 -105 -34 -35 -57 -63 -51 -63 24 0 98 53 137 97 l41 48 -7 -55 c-3
-30 -10 -73 -14 -94 -11 -48 -2 -96 17 -103 26 -10 33 19 33 142 0 120 9 163
26 133 12 -21 59 -49 67 -41 20 19 4 42 -38 59 -25 9 -45 20 -45 24 0 12 28
20 71 20 21 0 39 4 39 9 0 13 -39 21 -73 14 l-30 -6 5 41 c8 53 -23 87 -59 64z"/>
</g>
<g id="part-3" class="char-part">
  <path d="M576 573 c4 -10 10 -58 14 -107 5 -87 12 -104 37 -88 13 8 21 182 9
201 -4 6 -21 11 -38 11 -25 0 -29 -3 -22 -17z"/>
  <path d="M724 490 c-15 -27 -32 -50 -37 -50 -6 0 -8 -3 -5 -6 9 -9 128 48 128
62 0 12 -37 44 -52 44 -4 0 -19 -22 -34 -50z"/>
  <path d="M459 472 c16 -30 50 -55 66 -49 37 15 2 67 -46 67 -25 0 -28 -3 -20
-18z"/>
</g>
<g id="part-4" class="char-part">
  <path d="M640 377 c-25 -6 -70 -11 -101 -11 l-56 0 5 -67 c3 -45 -1 -91 -13
-137 -19 -78 -17 -117 5 -117 10 0 20 20 30 59 15 59 15 60 53 62 20 1 64 4
97 8 l60 7 0 -28 c0 -15 -3 -38 -6 -51 -6 -20 -11 -22 -43 -16 l-36 6 37 -36
c20 -20 44 -36 53 -36 31 0 46 63 43 178 -2 59 1 121 5 138 7 27 5 32 -18 42
-30 14 -54 14 -115 -1z m75 -51 c0 -29 -2 -30 -65 -42 -36 -7 -77 -13 -92 -13
-25 -1 -28 2 -28 33 0 32 2 34 48 44 26 6 67 9 92 9 43 -2 45 -3 45 -31z m5
-85 c0 -28 -3 -30 -52 -40 -29 -5 -72 -12 -95 -15 l-43 -6 0 35 0 35 48 1 c26
0 65 4 87 8 22 5 43 9 48 10 4 0 7 -12 7 -28z"/>
</g>
</g>
</svg>