<?xml version="1.0" standalone="no"?>
<!DOCTYPE svg PUBLIC "-//W3C//DTD SVG 20010904//EN"
 "http://www.w3.org/TR/2001/REC-SVG-20010904/DTD/svg10.dtd">
<svg version="1.0" xmlns="http://www.w3.org/2000/svg"
 width="96.000000pt" height="68.000000pt" viewBox="0 0 96.000000 68.000000"
 preserveAspectRatio="xMidYMid meet">
<metadata>
Created by potrace 1.16, written by Peter Selinger 2001-2019
Combined from part_0.svg through part_5.svg with named groups
</metadata>
<g transform="translate(0.000000,68.000000) scale(0.100000,-0.100000)" fill="#000000" stroke="none">
<g id="part-0" class="char-part">
  <path d="M240 538 c-25 -11 -59 -20 -77 -19 -32 2 -32 1 -21 -30 13 -37 4
-284 -12 -338 -10 -36 4 -83 25 -84 16 -1 23 49 24 188 2 179 9 233 32 240 11
3 28 8 39 11 15 4 20 1 20 -15 0 -11 -4 -23 -10 -26 -17 -11 -11 -45 15 -79
36 -47 34 -70 -7 -64 l-32 5 30 -23 c39 -32 72 -31 80 1 5 19 -2 34 -29 65
-41 49 -40 64 14 116 21 21 39 41 39 44 0 9 -48 30 -68 30 -9 0 -37 -10 -62
-22z"/>
  <path d="M560 520 c-14 -4 -55 -8 -92 -9 l-67 -1 4 -32 c2 -18 7 -97 9 -175
l6 -143 -53 -2 c-70 -2 -72 -2 -74 -13 -3 -10 474 -8 510 1 54 16 -31 47 -101
37 l-44 -6 6 134 c4 74 9 145 12 159 2 14 0 31 -5 38 -10 17 -77 24 -111 12z
m48 -65 l3 -41 -76 -10 -75 -9 0 47 0 47 48 4 c94 8 97 7 100 -38z m2 -114 l0
-39 -47 -2 c-27 -1 -61 -2 -78 -3 -28 -2 -30 0 -30 33 0 19 1 38 2 41 1 3 36
7 78 8 l75 2 0 -40z m0 -116 l0 -55 -81 0 -80 0 3 48 3 47 60 6 c33 3 68 6 78
7 14 2 17 -7 17 -53z"/>
</g>
<g id="part-1" class="char-part">
  <path d="M255 540 c-22 -11 -46 -19 -52 -20 -7 0 -13 -5 -13 -11 0 -7 16 -8
45 -3 49 7 57 -4 30 -40 -8 -11 -15 -26 -15 -33 0 -21 28 -15 41 10 6 12 24
32 40 45 36 29 37 45 4 60 -33 15 -32 15 -80 -8z"/>
</g>
<g id="part-2" class="char-part">
  <path d="M136 523 c-2 -3 0 -18 6 -35 13 -37 4 -275 -12 -332 -13 -42 3 -100
24 -93 16 5 22 66 30 273 l6 182 -25 4 c-13 3 -27 3 -29 1z"/>
</g>
<g id="part-3" class="char-part">
  <path d="M555 520 c-16 -4 -57 -8 -90 -9 l-60 -1 3 -82 c6 -196 13 -268 28
-268 10 0 14 14 14 50 0 57 -2 56 93 64 l67 5 0 -49 c0 -46 2 -50 24 -50 23 0
24 2 30 133 4 72 9 146 12 163 5 25 1 32 -21 42 -28 13 -54 14 -100 2z m53
-67 c3 -39 1 -43 -20 -43 -13 0 -47 -3 -75 -6 l-53 -7 0 41 c0 44 2 46 75 55
63 9 70 5 73 -40z m2 -113 c0 -38 -1 -39 -32 -38 -18 0 -52 -2 -74 -6 -49 -9
-55 -2 -47 47 l6 37 73 0 74 0 0 -40z"/>
</g>
<g id="part-4" class="char-part">
  <path d="M709 186 c-2 -2 -87 -9 -189 -16 -102 -6 -201 -14 -220 -17 -34 -5
-35 -5 -10 -15 15 -6 69 -7 130 -4 58 4 165 7 239 7 133 0 161 4 161 20 0 14
-99 37 -111 25z"/>
</g>
</g>
</svg>