<?xml version="1.0" standalone="no"?>
<!DOCTYPE svg PUBLIC "-//W3C//DTD SVG 20010904//EN"
 "http://www.w3.org/TR/2001/REC-SVG-20010904/DTD/svg10.dtd">
<svg version="1.0" xmlns="http://www.w3.org/2000/svg"
 width="96.000000pt" height="68.000000pt" viewBox="0 0 96.000000 68.000000"
 preserveAspectRatio="xMidYMid meet">
<metadata>
Created by potrace 1.16, written by Peter Selinger 2001-2019
Combined from part_0.svg through part_5.svg with named groups
</metadata>
<g transform="translate(0.000000,68.000000) scale(0.100000,-0.100000)" fill="#000000" stroke="none">
<g id="part-0" class="char-part">
  <path d="M265 528 c-1 -29 -4 -79 -9 -111 -9 -68 -23 -77 -111 -77 -42 0 -53
-3 -49 -14 9 -22 53 -36 94 -30 l39 6 -12 -32 c-11 -29 -10 -34 8 -46 60 -40
59 -37 15 -64 -23 -14 -51 -33 -63 -43 l-22 -18 34 5 c19 3 55 19 80 35 l47
28 37 -29 c40 -32 67 -31 67 2 0 13 -13 28 -34 41 l-35 20 20 32 c10 18 24 49
30 70 6 24 19 42 35 49 24 11 33 28 14 28 -5 0 -19 9 -30 20 -11 11 -32 20
-46 20 -21 0 -24 -3 -19 -21 8 -25 -8 -39 -44 -39 -17 0 -22 4 -18 18 2 9 15
52 28 94 25 86 19 108 -30 108 -25 0 -26 -3 -26 -52z m83 -231 c-6 -19 -18
-44 -27 -56 -15 -20 -20 -21 -44 -10 -21 9 -26 17 -21 33 3 12 8 29 10 38 5
16 25 24 71 27 19 1 20 -2 11 -32z"/>
  <path d="M630 545 c-36 -7 -89 -13 -118 -14 -48 -1 -52 -3 -38 -16 16 -16 18
-23 36 -100 l11 -50 90 1 c50 1 95 6 99 10 10 12 60 137 60 153 0 12 -42 32
-63 30 -7 -1 -41 -7 -77 -14z m70 -43 c0 -27 -3 -29 -47 -32 -126 -7 -128 -7
-131 21 -3 23 0 25 40 28 23 1 44 4 47 7 2 2 24 4 48 4 41 0 43 -2 43 -28z
m-9 -79 c-7 -26 -11 -28 -79 -31 -44 -2 -72 0 -72 6 0 6 -3 17 -6 25 -6 18 17
23 108 26 l56 1 -7 -27z"/>
  <path d="M650 314 c-63 -7 -140 -13 -170 -13 -30 -1 -50 -5 -43 -9 17 -11 40
-69 48 -123 4 -25 10 -50 13 -56 5 -6 43 -6 111 0 l104 9 23 -29 23 -28 21 21
c14 14 27 51 40 115 l20 94 -21 18 c-12 9 -29 16 -38 16 -9 -1 -68 -7 -131
-15z m120 -42 l0 -29 -107 -11 c-154 -17 -160 -17 -165 13 -3 14 0 25 6 26 6
0 47 6 91 14 44 7 101 13 128 14 45 1 47 0 47 -27z m-4 -75 c-3 -12 -5 -29 -5
-37 -1 -12 -22 -15 -121 -17 -66 -2 -120 1 -120 5 0 4 -3 16 -6 27 -5 19 0 21
53 23 32 2 83 6 113 10 92 13 90 13 86 -11z"/>
</g>
<g id="part-1" class="char-part">
  <path d="M264 487 c-1 -50 -6 -104 -12 -119 -11 -27 -15 -28 -82 -28 -75 0
-88 -10 -41 -34 22 -12 37 -13 62 -6 49 14 49 14 33 -25 -17 -42 -15 -48 26
-65 16 -7 30 -16 30 -20 0 -12 -32 -36 -77 -59 -24 -12 -43 -24 -43 -26 0 -12
58 9 103 36 27 16 51 29 54 29 3 0 18 -11 35 -25 32 -27 53 -32 64 -13 7 11
-31 51 -57 60 -9 3 -5 19 13 59 14 30 30 66 36 82 7 15 20 27 29 27 14 1 11 7
-15 30 -42 39 -62 39 -62 1 0 -24 -5 -29 -32 -35 -17 -3 -35 -3 -39 1 -4 5 6
48 22 98 26 83 27 91 12 107 -9 10 -26 18 -37 18 -20 0 -21 -6 -22 -93z m91
-174 c-11 -47 -37 -93 -51 -93 -7 0 -24 5 -38 11 -22 10 -23 14 -14 43 15 45
25 54 61 59 18 2 36 5 41 5 4 1 5 -10 1 -25z"/>
</g>
<g id="part-2" class="char-part">
  <path d="M625 545 c-38 -8 -92 -14 -118 -14 l-48 -1 19 -27 c10 -16 24 -53 30
-83 l12 -55 93 1 92 1 22 44 c33 68 48 118 37 129 -17 17 -67 19 -139 5z m75
-44 c0 -24 -4 -28 -27 -28 -16 1 -53 -3 -85 -7 -52 -8 -56 -7 -63 14 -4 12 -4
24 -1 27 9 9 76 21 129 22 45 1 47 0 47 -28z m-11 -79 c-9 -26 -13 -28 -78
-30 -66 -3 -69 -2 -73 22 -6 28 5 32 104 35 l57 1 -10 -28z"/>
</g>
<g id="part-3" class="char-part">
  <path d="M655 314 c-60 -7 -136 -13 -168 -13 l-58 -1 21 -27 c11 -16 26 -59
33 -98 9 -50 17 -70 27 -69 8 0 59 4 112 8 l98 7 12 -25 c27 -60 63 -16 88
105 11 52 20 97 20 100 0 8 -48 29 -63 28 -7 -1 -61 -7 -122 -15z m115 -46 c0
-33 -1 -33 -47 -33 -27 -1 -88 -5 -136 -9 l-89 -9 4 29 c3 29 4 29 93 40 50 6
109 12 133 13 41 1 42 0 42 -31z m0 -57 c0 -5 -3 -21 -6 -37 l-6 -29 -118 -3
c-114 -3 -118 -2 -123 19 -9 34 -1 39 66 40 34 0 82 4 107 8 64 12 80 12 80 2z"/>
</g>
</g>
</svg>