<?xml version="1.0" standalone="no"?>
<!DOCTYPE svg PUBLIC "-//W3C//DTD SVG 20010904//EN"
 "http://www.w3.org/TR/2001/REC-SVG-20010904/DTD/svg10.dtd">
<svg version="1.0" xmlns="http://www.w3.org/2000/svg"
 width="96.000000pt" height="68.000000pt" viewBox="0 0 96.000000 68.000000"
 preserveAspectRatio="xMidYMid meet">
<metadata>
Created by potrace 1.16, written by Peter Selinger 2001-2019
Combined from part_0.svg through part_5.svg with named groups
</metadata>
<g transform="translate(0.000000,68.000000) scale(0.100000,-0.100000)" fill="#000000" stroke="none">
<g id="part-0" class="char-part">
  <path d="M252 573 c4 -22 64 -63 93 -63 23 0 40 24 30 40 -5 9 -46 23 -98 34
-24 6 -28 4 -25 -11z"/>
  <path d="M609 543 c-65 -48 -134 -83 -161 -83 l-23 0 0 -177 c0 -140 3 -177
14 -181 7 -2 16 -1 20 4 3 5 28 26 54 48 49 39 58 62 13 32 -48 -31 -56 -23
-56 58 l0 75 48 6 c26 4 55 9 65 12 13 3 23 -8 42 -49 44 -96 134 -187 200
-204 27 -7 28 -6 21 22 -4 16 -9 48 -13 72 -7 49 -19 54 -28 12 -4 -17 -12
-30 -19 -30 -28 0 -146 141 -146 176 0 6 23 14 56 17 56 6 72 12 61 23 -5 6
-31 6 -102 1 -28 -2 -30 1 -40 45 -5 25 -14 50 -18 54 -4 5 11 15 33 24 48 19
53 27 24 46 -18 13 -24 12 -45 -3z m-39 -130 c11 -25 20 -47 20 -48 0 -2 -13
-6 -30 -9 -16 -3 -43 -9 -60 -12 -29 -5 -30 -4 -30 28 0 54 10 76 39 86 34 12
37 10 61 -45z"/>
  <path d="M280 435 c-19 -7 -61 -16 -92 -20 -32 -4 -58 -11 -58 -16 0 -19 50
-19 106 -1 32 11 63 16 68 11 12 -11 -31 -67 -125 -161 -42 -43 -73 -78 -68
-78 15 0 81 44 118 79 18 17 36 31 39 31 3 0 2 -44 -1 -97 -6 -104 3 -144 29
-122 10 8 14 37 14 115 0 84 3 104 14 104 8 0 18 -4 21 -10 11 -17 35 -11 35
10 0 14 -9 21 -35 26 -19 3 -37 10 -40 14 -2 4 13 25 35 46 45 44 49 59 21 74
-24 12 -36 11 -81 -5z"/>
  <path d="M555 106 c-65 -16 -43 -30 33 -22 84 10 112 17 112 27 0 12 -83 9
-145 -5z"/>
</g>
<g id="part-1" class="char-part">
  <path d="M266 559 c42 -46 104 -61 104 -24 0 18 -57 45 -96 45 -27 0 -27 0 -8
-21z"/>
</g>
<g id="part-2" class="char-part">
  <path d="M258 333 c-23 -30 -71 -82 -107 -114 -51 -46 -59 -57 -37 -49 35 13
80 43 125 84 l34 31 -6 -101 c-5 -75 -3 -106 7 -119 26 -36 36 -7 36 107 0
101 1 110 18 103 43 -18 52 -18 52 4 0 14 -8 22 -27 27 -57 12 -58 13 -34 37
26 29 26 33 1 40 -14 4 -29 -8 -62 -50z"/>
</g>
<g id="part-3" class="char-part">
  <path d="M552 508 c-45 -28 -80 -54 -77 -57 8 -7 205 62 205 73 0 9 -30 35
-40 35 -3 0 -42 -23 -88 -51z"/>
</g>
<g id="part-4" class="char-part">
  <path d="M556 471 c-4 -5 3 -31 14 -57 24 -55 21 -59 -52 -68 -29 -4 -46 -11
-42 -17 3 -6 19 -8 35 -5 16 3 42 9 59 12 27 5 31 2 59 -54 38 -76 118 -163
170 -187 23 -10 44 -15 48 -12 3 4 1 24 -5 46 -7 21 -12 50 -12 65 0 36 -16
33 -23 -4 -4 -17 -13 -30 -21 -30 -31 0 -146 140 -146 177 0 8 14 13 38 14 20
1 51 4 67 8 l30 7 -32 11 c-22 8 -43 9 -68 2 -45 -13 -52 -8 -60 44 -4 23 -13
45 -19 49 -15 10 -34 10 -40 -1z"/>
</g>
<g id="part-5" class="char-part">
  <path d="M603 109 c-10 -4 -34 -8 -53 -8 -25 -1 -31 -4 -21 -10 17 -11 77 -3
111 15 23 12 23 13 3 11 -12 0 -30 -4 -40 -8z"/>
</g>
</g>
</svg>