<?xml version="1.0" standalone="no"?>
<!DOCTYPE svg PUBLIC "-//W3C//DTD SVG 20010904//EN"
 "http://www.w3.org/TR/2001/REC-SVG-20010904/DTD/svg10.dtd">
<svg version="1.0" xmlns="http://www.w3.org/2000/svg"
 width="96.000000pt" height="68.000000pt" viewBox="0 0 96.000000 68.000000"
 preserveAspectRatio="xMidYMid meet">
<metadata>
Created by potrace 1.16, written by Peter Selinger 2001-2019
Combined from part_0.svg through part_5.svg with named groups
</metadata>
<g transform="translate(0.000000,68.000000) scale(0.100000,-0.100000)" fill="#000000" stroke="none">
<g id="part-0" class="char-part">
  <path d="M736 569 c10 -50 10 -240 -1 -366 l-7 -85 -34 5 c-19 3 -34 4 -34 2
0 -2 18 -23 40 -47 l41 -43 18 22 c15 18 19 49 24 220 3 109 11 222 18 251 12
60 8 69 -40 78 l-33 7 8 -44z"/>
  <path d="M375 569 c-39 -12 -84 -14 -112 -5 -21 7 -22 5 -16 -42 5 -49 -9 -94
-45 -135 -23 -26 -6 -34 25 -11 41 31 63 65 71 114 7 41 10 45 45 53 57 14 66
6 65 -54 -1 -43 3 -55 21 -70 29 -23 116 -27 124 -5 8 20 -19 28 -70 20 -43
-6 -43 -6 -43 25 0 17 7 47 15 67 14 34 14 35 -11 44 -29 11 -29 11 -69 -1z"/>
  <path d="M607 363 c4 -63 10 -103 19 -112 21 -22 25 1 22 110 -3 87 -5 94 -24
97 -21 3 -21 0 -17 -95z"/>
  <path d="M337 394 c-2 -3 -1 -20 3 -39 9 -39 9 -39 -122 -50 -43 -4 -78 -10
-78 -15 0 -16 59 -21 116 -11 32 6 59 9 62 6 11 -10 -32 -56 -98 -105 -38 -29
-70 -54 -70 -57 0 -15 150 73 165 97 3 6 11 10 17 10 7 0 8 -24 3 -73 -5 -60
-4 -76 9 -86 13 -11 17 -10 24 10 5 13 9 56 11 94 1 39 6 73 9 77 4 4 27 -13
51 -37 41 -42 47 -45 97 -45 30 0 54 4 54 8 0 5 -24 16 -53 25 -56 18 -147 71
-147 86 0 5 38 12 85 16 113 9 112 28 -2 24 l-88 -3 -3 27 c-3 25 -33 53 -45
41z"/>
</g>
<g id="part-1" class="char-part">
  <path d="M250 541 c15 -30 3 -82 -32 -137 l-29 -47 33 20 c43 25 69 73 71 130
2 46 1 48 -26 51 -26 3 -28 2 -17 -17z"/>
</g>
<g id="part-2" class="char-part">
  <path d="M330 392 c0 -4 4 -21 9 -39 9 -31 8 -32 -27 -37 -21 -3 -67 -8 -104
-12 -38 -3 -68 -10 -68 -14 0 -20 95 -22 163 -3 9 2 17 -1 17 -6 0 -16 -84
-94 -136 -127 -25 -16 -41 -30 -35 -32 15 -5 106 44 144 78 19 16 38 30 42 30
4 0 4 -33 1 -72 -7 -79 3 -113 26 -90 8 8 15 49 18 103 l5 90 50 -46 c48 -43
53 -45 110 -45 65 0 64 9 -4 30 -51 16 -143 70 -148 87 -3 7 24 13 81 18 79 7
105 16 74 27 -7 3 -44 2 -83 -2 -80 -8 -89 -5 -82 21 3 11 -1 26 -10 34 -15
16 -43 20 -43 7z"/>
</g>
<g id="part-3" class="char-part">
  <path d="M608 368 c2 -51 9 -101 14 -111 18 -35 28 -4 28 93 0 98 -4 110 -40
110 -4 0 -5 -42 -2 -92z"/>
</g>
<g id="part-4" class="char-part">
  <path d="M737 569 c10 -58 10 -229 -1 -353 l-8 -98 -37 5 -37 4 44 -46 43 -46
18 22 c15 18 19 49 24 232 5 137 12 224 21 250 16 47 9 57 -43 67 l-32 7 8
-44z"/>
</g>
</g>
</svg>