<?xml version="1.0" standalone="no"?>
<!DOCTYPE svg PUBLIC "-//W3C//DTD SVG 20010904//EN"
 "http://www.w3.org/TR/2001/REC-SVG-20010904/DTD/svg10.dtd">
<svg version="1.0" xmlns="http://www.w3.org/2000/svg"
 width="96.000000pt" height="68.000000pt" viewBox="0 0 96.000000 68.000000"
 preserveAspectRatio="xMidYMid meet">
<metadata>
Created by potrace 1.16, written by Peter Selinger 2001-2019
Combined from part_0.svg through part_5.svg with named groups
</metadata>
<g transform="translate(0.000000,68.000000) scale(0.100000,-0.100000)" fill="#000000" stroke="none">
<g id="part-0" class="char-part">
  <path d="M620 550 c-14 -11 -47 -27 -75 -37 -37 -13 -44 -18 -28 -21 23 -3 39
-34 28 -52 -3 -5 -25 -10 -48 -11 -23 0 -60 -4 -82 -8 -35 -6 -37 -8 -17 -15
12 -4 52 -4 87 -1 65 7 65 7 65 -18 0 -23 -5 -27 -45 -33 -25 -3 -56 -3 -70 0
-24 6 -35 -7 -15 -19 9 -5 18 -33 34 -106 5 -25 8 -26 56 -21 l50 5 0 -32 c0
-29 -3 -31 -34 -31 -19 0 -41 -3 -50 -6 -28 -11 -6 -24 40 -24 36 0 44 -3 44
-19 0 -15 -11 -19 -61 -25 -34 -3 -77 -6 -95 -6 l-34 0 0 174 c0 105 5 186 12
206 10 30 9 35 -12 52 -19 16 -31 18 -60 11 -19 -4 -57 -7 -85 -6 l-50 1 0
-142 c0 -152 -9 -200 -51 -261 -29 -43 -25 -55 10 -32 30 20 67 79 75 121 6
26 11 31 32 28 15 -2 32 5 44 18 29 32 35 24 35 -42 0 -81 -8 -94 -49 -80 -41
14 -39 4 7 -41 42 -41 53 -44 72 -22 10 12 16 13 26 4 8 -6 14 -8 14 -3 0 5 4
3 9 -5 8 -12 24 -13 105 -3 52 7 147 12 210 12 117 0 145 8 100 29 -18 8 -55
9 -115 5 -85 -7 -89 -6 -89 13 0 23 24 33 78 33 56 0 35 19 -25 22 -54 3 -58
5 -58 28 0 20 6 26 28 28 16 2 34 -2 42 -8 15 -13 40 7 51 43 4 12 18 39 31
61 33 52 22 61 -78 61 -79 -1 -89 4 -69 35 7 11 33 16 95 19 47 1 85 7 85 12
0 14 -63 20 -112 11 -47 -9 -48 -9 -63 21 -8 16 -15 31 -15 33 0 1 17 5 38 9
55 9 69 20 53 39 -18 21 -41 20 -71 -4z m-302 -126 l3 -51 -46 11 c-38 9 -45
14 -45 34 0 43 18 63 53 60 31 -3 32 -5 35 -54z m-18 -94 c11 0 20 -7 20 -15
0 -15 -18 -27 -64 -45 -26 -9 -26 -9 -26 41 l0 51 25 -16 c13 -9 33 -16 45
-16z m400 -6 c0 -9 -13 -15 -35 -15 -19 -1 -41 -2 -47 -3 -7 -1 -14 9 -16 21
-3 19 2 22 35 25 41 3 63 -6 63 -28z m-142 -6 c-2 -19 -10 -24 -45 -26 -40 -3
-43 -1 -43 22 0 24 3 26 46 26 41 0 45 -2 42 -22z m2 -69 c0 -15 -7 -19 -40
-19 -33 0 -40 3 -40 19 0 14 8 21 28 23 38 5 52 -1 52 -23z m120 11 c-11 -21
-64 -28 -75 -10 -11 19 6 30 46 30 37 0 39 -2 29 -20z"/>
</g>
<g id="part-1" class="char-part">
  <path d="M300 508 c-14 -5 -47 -8 -75 -7 -39 2 -49 -1 -46 -12 9 -28 2 -243
-9 -290 -7 -26 -25 -68 -41 -94 -21 -33 -24 -43 -12 -36 44 23 93 103 93 151
0 22 7 25 29 11 10 -7 25 -1 48 16 l33 25 0 -80 c0 -45 -4 -84 -10 -87 -5 -3
-19 -1 -31 5 -32 18 -31 8 4 -33 35 -42 57 -43 75 -3 5 12 11 114 13 226 l4
204 -25 6 c-14 4 -37 3 -50 -2z m20 -84 c0 -30 -3 -54 -6 -54 -4 0 -24 5 -46
12 -38 11 -39 13 -36 52 3 38 5 41 38 47 19 3 38 3 43 1 4 -2 7 -28 7 -58z
m-25 -86 c19 0 25 -6 25 -23 0 -17 -10 -27 -40 -39 -22 -9 -45 -16 -50 -16
-11 0 -14 93 -3 103 3 4 14 0 24 -9 10 -9 30 -16 44 -16z"/>
</g>
<g id="part-2" class="char-part">
  <path d="M610 546 c-19 -13 -55 -30 -80 -39 l-45 -15 36 -1 c31 -1 166 33 178
45 8 7 -22 34 -38 33 -9 0 -32 -10 -51 -23z"/>
</g>
<g id="part-3" class="char-part">
  <path d="M557 493 c-14 -4 -17 -11 -13 -28 7 -28 1 -30 -98 -40 -48 -5 -65
-10 -55 -16 8 -6 46 -7 87 -4 l72 7 0 -27 c0 -23 3 -25 23 -19 23 7 37 22 37
40 0 14 55 24 128 24 28 0 52 4 52 9 0 15 -49 22 -111 15 -50 -6 -59 -4 -59 9
0 14 -31 40 -42 36 -2 -1 -11 -3 -21 -6z"/>
</g>
<g id="part-4" class="char-part">
  <path d="M560 181 c0 -27 -3 -29 -52 -36 -40 -5 -48 -9 -33 -15 11 -4 35 -7
53 -6 26 1 32 -2 32 -20 0 -25 -36 -34 -132 -34 -32 0 -58 -4 -58 -9 0 -16 72
-22 135 -11 33 5 122 10 198 10 78 0 137 4 137 9 0 18 -44 25 -136 22 -83 -2
-92 0 -96 17 -5 16 1 21 24 26 17 3 43 6 59 6 16 0 29 5 29 10 0 6 -27 10 -60
10 -57 0 -60 1 -60 25 0 18 -5 25 -20 25 -15 0 -20 -7 -20 -29z"/>
</g>
</g>
</svg>