<?xml version="1.0" standalone="no"?>
<!DOCTYPE svg PUBLIC "-//W3C//DTD SVG 20010904//EN"
 "http://www.w3.org/TR/2001/REC-SVG-20010904/DTD/svg10.dtd">
<svg version="1.0" xmlns="http://www.w3.org/2000/svg"
 width="96.000000pt" height="68.000000pt" viewBox="0 0 96.000000 68.000000"
 preserveAspectRatio="xMidYMid meet">
<metadata>
Created by potrace 1.16, written by Peter Selinger 2001-2019
Combined from part_0.svg through part_5.svg with named groups
</metadata>
<g transform="translate(0.000000,68.000000) scale(0.100000,-0.100000)" fill="#000000" stroke="none">
<g id="part-0" class="char-part">
  <path d="M515 608 c-4 -13 -17 -36 -29 -53 -39 -53 -41 -58 -17 -50 12 3 33
17 46 31 20 20 34 24 92 25 76 1 115 9 113 24 0 11 -67 13 -123 3 -31 -6 -36
-4 -28 6 7 9 7 16 -1 24 -19 19 -46 14 -53 -10z"/>
  <path d="M266 588 c-7 -18 -35 -55 -61 -81 -25 -27 -44 -51 -41 -54 7 -7 52
21 89 56 23 21 41 27 102 32 41 3 78 9 82 13 14 14 -23 26 -64 20 -38 -6 -41
-4 -37 14 4 14 -1 21 -18 25 -35 10 -37 9 -52 -25z"/>
  <path d="M555 541 c-7 -12 43 -51 66 -51 33 0 23 37 -12 49 -39 13 -46 14 -54
2z"/>
  <path d="M299 496 c31 -33 64 -35 59 -3 -2 18 -10 23 -43 25 l-40 3 24 -25z"/>
  <path d="M404 494 c1 -7 5 -17 9 -20 16 -17 3 -23 -60 -29 -100 -9 -124 -13
-131 -19 -3 -3 0 -6 8 -6 9 0 11 -19 8 -82 -6 -94 -35 -167 -94 -237 -20 -23
-31 -41 -25 -41 21 0 91 78 111 124 l21 45 64 -1 c56 -1 65 -3 65 -19 0 -15
-8 -19 -39 -19 -22 0 -43 -4 -46 -10 -4 -6 9 -10 31 -10 l37 0 -19 -21 c-10
-12 -43 -37 -72 -56 -30 -19 -51 -37 -49 -40 7 -6 84 34 124 64 l32 25 3 -64
c4 -87 22 -75 28 19 5 73 6 77 32 84 16 4 30 3 33 -2 3 -5 4 -41 1 -81 -5 -74
3 -106 23 -94 7 4 11 39 11 86 0 92 1 93 90 25 98 -73 111 -78 174 -71 31 4
54 12 51 17 -4 5 -15 9 -25 9 -36 0 -221 80 -248 107 -11 11 -6 13 28 13 33 0
41 3 36 15 -13 34 4 45 71 45 47 0 64 3 61 13 -3 7 -26 13 -57 15 -46 3 -51 5
-46 22 8 25 -28 35 -90 27 -39 -6 -44 -4 -42 13 1 17 9 20 47 21 25 0 54 4 65
8 19 8 19 8 -3 15 -13 4 -42 4 -65 0 -23 -5 -49 -9 -57 -9 -27 -1 -144 -16
-173 -21 -36 -7 -26 -18 16 -19 49 0 42 -28 -8 -36 l-40 -6 43 -2 c34 -1 42
-5 42 -20 0 -15 -10 -19 -57 -24 -32 -3 -58 -5 -60 -4 -1 2 2 20 8 42 5 22 12
58 15 80 3 22 9 44 14 49 4 4 48 11 97 15 89 7 113 1 91 -26 -8 -10 -7 -13 3
-13 22 1 52 27 44 39 -4 7 4 11 19 12 14 1 31 3 36 4 6 1 19 3 30 4 11 0 20 5
20 11 0 6 -34 8 -90 5 -72 -4 -90 -2 -90 9 0 8 -13 19 -29 24 -23 8 -29 7 -27
-4z m71 -164 c0 -16 -28 -25 -50 -16 -9 3 -12 12 -9 21 8 21 59 16 59 -5z
m113 -42 c2 -12 -7 -17 -37 -20 -34 -3 -41 0 -41 14 0 28 72 35 78 6z m-110
-6 c4 -13 -45 -35 -59 -26 -16 9 -10 24 14 34 26 10 39 8 45 -8z m100 -49 c-2
-10 -16 -20 -36 -24 -28 -6 -32 -4 -32 15 0 17 7 21 36 24 29 2 35 -1 32 -15z
m-100 -10 c-4 -23 -68 -32 -68 -10 0 20 10 27 42 27 23 0 29 -4 26 -17z"/>
  <path d="M369 396 c16 -19 44 -21 39 -3 -3 6 -15 14 -28 15 -21 3 -22 2 -11
-12z"/>
</g>
<g id="part-1" class="char-part">
  <path d="M275 593 c-3 -14 -29 -49 -57 -79 -60 -64 -51 -70 20 -14 28 22 61
40 75 40 50 0 117 13 117 23 0 6 -23 7 -62 3 -60 -6 -61 -6 -43 14 19 21 21
19 -29 34 -9 3 -17 -5 -21 -21z"/>
  <path d="M493 565 c-34 -60 -30 -68 14 -31 23 19 44 24 110 29 89 6 120 15 87
28 -11 4 -40 3 -65 -2 -69 -13 -78 -12 -72 11 4 16 0 20 -18 20 -18 -1 -32
-14 -56 -55z"/>
  <path d="M570 524 c23 -26 51 -37 64 -24 14 15 -18 40 -52 40 -21 0 -23 -2
-12 -16z"/>
  <path d="M296 505 c7 -16 35 -35 53 -35 18 0 12 29 -8 40 -29 15 -51 13 -45
-5z"/>
</g>
<g id="part-2" class="char-part">
  <path d="M403 482 c10 -10 17 -21 17 -24 0 -3 -30 -9 -67 -12 -104 -11 -137
-18 -123 -26 9 -6 11 -29 8 -81 -6 -89 -36 -163 -95 -236 -24 -29 -40 -53 -37
-53 4 0 27 16 51 36 55 45 88 110 119 232 13 53 26 97 27 99 2 1 62 8 133 13
190 16 215 20 208 32 -4 7 -37 8 -95 3 -75 -5 -89 -4 -89 8 0 16 -21 27 -52
27 -20 0 -20 -1 -5 -18z"/>
</g>
<g id="part-3" class="char-part">
  <path d="M490 427 c0 -9 -3 -23 -6 -32 -6 -16 -5 -16 25 0 35 18 37 38 3 43
-14 2 -22 -2 -22 -11z"/>
  <path d="M379 389 c26 -21 37 -19 28 6 -4 8 -17 15 -29 15 l-23 -1 24 -20z"/>
  <path d="M445 369 c-72 -9 -137 -18 -145 -19 -10 -1 -8 -4 6 -10 13 -5 61 -3
120 6 55 7 126 16 158 20 40 4 55 9 45 15 -18 11 -25 10 -184 -12z"/>
</g>
<g id="part-4" class="char-part">
  <path d="M510 183 c0 -7 36 -32 165 -117 41 -26 48 -28 107 -21 l63 8 -85 26
c-47 15 -119 46 -162 69 -79 44 -88 47 -88 35z"/>
  <path d="M344 148 c-10 -11 -46 -39 -79 -60 -33 -22 -49 -36 -35 -32 62 17
150 76 150 100 0 20 -14 17 -36 -8z"/>
</g>
</g>
</svg>