<?xml version="1.0" standalone="no"?>
<!DOCTYPE svg PUBLIC "-//W3C//DTD SVG 20010904//EN"
 "http://www.w3.org/TR/2001/REC-SVG-20010904/DTD/svg10.dtd">
<svg version="1.0" xmlns="http://www.w3.org/2000/svg"
 width="96.000000pt" height="68.000000pt" viewBox="0 0 96.000000 68.000000"
 preserveAspectRatio="xMidYMid meet">
<metadata>
Created by potrace 1.16, written by Peter Selinger 2001-2019
Combined from part_0.svg through part_5.svg with named groups
</metadata>
<g transform="translate(0.000000,68.000000) scale(0.100000,-0.100000)" fill="#000000" stroke="none">
<g id="part-0" class="char-part">
  <path d="M324 583 c2 -10 7 -32 11 -50 6 -31 6 -32 -42 -38 -26 -4 -55 -9 -63
-11 -27 -9 11 -24 63 -24 44 0 48 -2 45 -22 -3 -21 -9 -23 -65 -26 -61 -3 -72
-8 -55 -27 5 -6 14 -29 22 -51 12 -39 14 -41 40 -34 29 8 40 5 40 -13 0 -13
-107 -116 -153 -147 -20 -14 -37 -28 -37 -32 0 -27 93 23 153 81 l48 46 -6
-80 c-5 -61 -3 -84 7 -99 13 -17 15 -17 31 -1 13 13 17 35 17 102 l0 85 53
-51 c58 -56 87 -65 87 -27 0 24 -40 78 -57 77 -4 0 -25 5 -45 11 -29 9 -38 16
-38 33 0 24 30 35 97 35 29 0 34 3 29 17 -4 10 2 25 16 40 20 22 21 25 6 40
-12 12 -33 16 -77 14 -55 -1 -61 0 -61 18 0 15 9 22 38 26 72 12 83 16 79 28
-3 8 -23 11 -56 11 l-51 -2 0 34 c0 36 -20 54 -60 54 -16 0 -20 -5 -16 -17z
m136 -202 c0 -30 -14 -41 -56 -41 -17 0 -24 6 -24 19 0 38 11 51 46 51 31 0
34 -3 34 -29z m-120 -17 c0 -35 -1 -35 -37 -32 -31 3 -37 7 -40 30 -3 24 0 27
29 31 18 2 36 5 41 5 4 1 7 -14 7 -34z"/>
  <path d="M720 583 c0 -5 5 -36 11 -69 7 -39 9 -118 4 -232 l-7 -174 -45 7 -45
7 53 -48 c52 -46 53 -46 69 -26 14 17 18 56 23 234 3 119 11 228 18 246 6 19
8 37 3 42 -13 13 -84 24 -84 13z"/>
  <path d="M608 368 c3 -67 9 -108 18 -117 21 -22 25 1 22 115 -3 92 -5 99 -24
102 -20 3 -21 0 -16 -100z"/>
</g>
<g id="part-1" class="char-part">
  <path d="M333 548 l2 -53 -47 -5 c-68 -8 -71 -20 -5 -20 l57 0 0 -71 c0 -44
-6 -84 -16 -104 -15 -33 -100 -120 -159 -162 -16 -13 -24 -23 -17 -23 25 0 96
42 145 88 l50 47 -6 -31 c-18 -91 -18 -129 -3 -149 16 -20 16 -20 31 -1 10 14
15 44 15 99 l0 79 56 -51 c58 -53 84 -63 84 -33 0 32 -29 60 -85 83 l-55 23 0
92 c0 108 4 124 35 124 35 0 85 12 85 20 0 13 -38 18 -76 10 l-36 -8 6 33 c5
27 3 36 -16 49 -39 28 -48 21 -45 -36z"/>
</g>
<g id="part-2" class="char-part">
  <path d="M340 440 l0 -30 -72 0 c-67 0 -70 -1 -56 -17 8 -10 20 -37 26 -59
l12 -42 45 6 c43 4 45 4 45 -22 0 -19 5 -26 20 -26 15 0 20 7 20 29 0 29 1 30
66 36 53 6 64 10 59 23 -3 9 5 27 21 43 l26 27 -23 12 c-20 11 -68 14 -124 7
-14 -1 -21 5 -23 21 -2 14 -10 22 -23 22 -14 0 -19 -7 -19 -30z m121 -60 c-4
-30 -17 -40 -53 -40 -25 0 -28 3 -28 36 l0 35 43 -3 c38 -3 42 -5 38 -28z
m-121 -15 c0 -33 -2 -35 -34 -35 -26 0 -36 5 -41 21 -8 23 0 35 30 42 41 10
45 7 45 -28z"/>
</g>
<g id="part-3" class="char-part">
  <path d="M607 378 c5 -114 10 -141 26 -135 8 2 12 36 12 113 0 104 -1 109 -21
112 -21 3 -21 0 -17 -90z"/>
</g>
<g id="part-4" class="char-part">
  <path d="M724 569 c13 -49 18 -188 11 -323 l-7 -138 -41 5 -40 6 47 -47 47
-47 18 22 c16 18 19 50 24 235 3 124 11 227 18 246 14 40 6 50 -46 59 -37 6
-38 5 -31 -18z"/>
</g>
</g>
</svg>