<?xml version="1.0" standalone="no"?>
<!DOCTYPE svg PUBLIC "-//W3C//DTD SVG 20010904//EN"
 "http://www.w3.org/TR/2001/REC-SVG-20010904/DTD/svg10.dtd">
<svg version="1.0" xmlns="http://www.w3.org/2000/svg"
 width="96.000000pt" height="68.000000pt" viewBox="0 0 96.000000 68.000000"
 preserveAspectRatio="xMidYMid meet">
<metadata>
Created by potrace 1.16, written by Peter Selinger 2001-2019
Combined from part_0.svg through part_5.svg with named groups
</metadata>
<g transform="translate(0.000000,68.000000) scale(0.100000,-0.100000)" fill="#000000" stroke="none">
<g id="part-0" class="char-part">
  <path d="M460 593 c-47 -7 -109 -12 -138 -11 -28 2 -51 1 -50 -2 11 -21 39
-103 48 -137 l11 -42 49 6 c45 5 49 4 55 -18 3 -13 5 -61 3 -106 l-3 -82 -65
30 c-36 17 -67 33 -69 35 -2 2 4 20 15 40 19 35 19 36 -1 50 -30 22 -49 13
-52 -26 -4 -46 -58 -133 -113 -182 -37 -33 -40 -39 -20 -33 26 7 100 60 112
80 4 7 15 22 25 34 l19 23 44 -24 c25 -14 81 -44 125 -68 44 -24 87 -49 95
-56 34 -29 105 -39 187 -25 43 7 84 16 91 20 7 4 -47 17 -121 29 -73 12 -152
29 -175 39 l-42 16 0 57 0 57 53 7 c28 3 67 6 85 6 23 0 32 4 29 13 -3 8 -27
11 -85 9 l-81 -2 1 44 0 44 64 4 c66 4 88 13 65 27 -11 7 -9 17 7 53 11 25 25
49 31 52 18 12 13 25 -19 41 -34 18 -64 17 -180 -2z m105 -70 c-4 -27 -9 -51
-11 -55 -4 -7 -41 -13 -140 -22 l-51 -5 -12 51 c-6 28 -10 53 -8 55 7 6 120
21 176 22 l53 1 -7 -47z"/>
</g>
<g id="part-1" class="char-part">
  <path d="M495 594 c-44 -7 -113 -13 -152 -13 l-73 -1 20 -32 c11 -18 22 -51
26 -75 8 -55 28 -83 45 -65 8 7 40 12 80 12 36 0 93 3 127 6 53 6 59 9 50 24
-10 15 2 51 40 122 4 9 -52 38 -70 37 -7 -1 -49 -8 -93 -15z m72 -22 c9 -5 9
-20 1 -57 -5 -28 -13 -53 -17 -56 -3 -4 -47 -10 -98 -14 l-92 -7 -10 38 c-21
83 -26 78 74 90 118 15 128 15 142 6z"/>
</g>
<g id="part-2" class="char-part">
  <path d="M438 313 c3 -65 9 -111 16 -115 27 -18 36 -7 36 46 l0 54 85 7 c87 7
115 19 70 31 -24 6 -98 -1 -138 -13 -17 -4 -18 0 -15 44 3 47 2 48 -27 51
l-31 3 4 -108z"/>
</g>
<g id="part-3" class="char-part">
  <path d="M260 338 c0 -48 -37 -115 -98 -175 -41 -42 -49 -53 -31 -48 36 11 73
40 117 90 l40 46 156 -87 c92 -50 173 -88 196 -91 37 -5 161 12 188 26 7 4
-47 17 -120 29 -85 14 -164 34 -218 56 -73 28 -175 74 -190 84 -2 1 5 19 15
38 19 36 19 36 0 50 -34 25 -55 18 -55 -18z"/>
</g>
</g>
</svg>