<?xml version="1.0" standalone="no"?>
<!DOCTYPE svg PUBLIC "-//W3C//DTD SVG 20010904//EN"
 "http://www.w3.org/TR/2001/REC-SVG-20010904/DTD/svg10.dtd">
<svg version="1.0" xmlns="http://www.w3.org/2000/svg"
 width="96.000000pt" height="68.000000pt" viewBox="0 0 96.000000 68.000000"
 preserveAspectRatio="xMidYMid meet">
<metadata>
Created by potrace 1.16, written by Peter Selinger 2001-2019
Combined from part_0.svg through part_5.svg with named groups
</metadata>
<g transform="translate(0.000000,68.000000) scale(0.100000,-0.100000)" fill="#000000" stroke="none">
<g id="part-0" class="char-part">
  <path d="M538 500 c4 -73 3 -80 -14 -81 -11 -1 -30 -3 -44 -4 -36 -4 -40 2
-28 35 11 34 -2 60 -31 60 -14 0 -17 -7 -13 -30 2 -17 -1 -44 -8 -61 -19 -45
-3 -56 57 -41 27 7 89 18 138 25 80 12 91 12 102 -2 16 -22 29 -7 44 51 14 52
14 52 -18 62 -20 6 -22 3 -25 -36 l-3 -43 -59 -3 -59 -3 5 70 c4 55 2 71 -9
75 -37 14 -40 8 -35 -74z"/>
  <path d="M210 520 c0 -23 -34 -96 -57 -122 -8 -9 -20 -15 -26 -12 -9 3 -11
-27 -7 -115 3 -66 8 -123 12 -127 4 -4 14 -1 23 6 8 7 38 13 67 14 46 1 54 -2
63 -21 12 -28 17 -28 40 -3 16 17 18 36 16 133 -3 138 -6 143 -88 129 -32 -5
-60 -8 -62 -7 -2 2 20 27 48 55 28 28 51 55 51 60 0 13 -34 30 -59 30 -14 0
-21 -6 -21 -20z m88 -182 l3 -37 -48 -6 c-92 -13 -88 -15 -89 37 -1 26 2 46 6
43 4 -2 20 -1 36 4 16 4 43 5 59 1 26 -5 30 -11 33 -42z m2 -103 c0 -19 -3
-36 -7 -38 -5 -3 -36 -8 -71 -12 l-63 -7 3 43 3 44 60 5 c33 3 63 4 68 2 4 -2
7 -18 7 -37z"/>
  <path d="M508 346 c-104 -17 -95 -30 17 -22 109 7 145 14 145 27 0 12 -78 9
-162 -5z"/>
  <path d="M580 285 c-36 -7 -89 -13 -119 -14 -45 -1 -52 -3 -42 -15 10 -11 33
-74 67 -176 4 -13 -8 -16 -78 -19 -45 -1 -85 -4 -87 -7 -10 -10 12 -18 47 -17
193 4 452 17 452 23 0 19 -56 30 -116 24 -55 -6 -64 -5 -64 10 0 9 4 16 8 16
5 0 14 12 21 26 10 23 9 26 -10 31 -15 4 -17 8 -8 14 7 4 14 15 15 24 1 9 10
25 18 34 20 22 20 31 -1 47 -20 15 -16 15 -103 -1z m56 -40 c-4 -37 -13 -42
-87 -49 -66 -6 -67 -6 -73 20 -9 34 0 42 49 46 124 10 114 11 111 -17z m-21
-107 c-9 -56 -20 -68 -61 -68 -27 0 -34 4 -34 19 0 10 -9 30 -20 44 -11 14
-20 28 -20 30 0 6 23 9 103 15 l39 3 -7 -43z"/>
</g>
<g id="part-1" class="char-part">
  <path d="M220 526 c0 -8 -14 -40 -30 -71 -17 -32 -28 -60 -25 -63 6 -6 124
108 125 120 0 5 -54 28 -66 28 -2 0 -4 -6 -4 -14z"/>
</g>
<g id="part-2" class="char-part">
  <path d="M235 400 c-16 -4 -50 -8 -75 -9 l-45 -1 3 -117 c3 -119 10 -145 34
-126 7 6 37 13 66 17 49 6 53 5 64 -19 6 -14 17 -25 24 -25 26 0 37 44 38 154
1 138 -10 151 -109 126z m63 -62 l3 -36 -63 -9 c-35 -5 -66 -8 -70 -6 -5 3 -8
22 -8 43 0 44 10 49 90 46 44 -1 45 -2 48 -38z m2 -95 c0 -43 -10 -50 -77 -57
l-63 -7 0 40 c0 45 5 48 88 50 50 1 52 0 52 -26z"/>
</g>
<g id="part-3" class="char-part">
  <path d="M538 501 l5 -81 -29 -2 c-16 0 -36 -1 -45 -2 -20 -1 -22 6 -14 45 7
33 -4 49 -35 49 -11 0 -16 -12 -17 -43 -1 -23 -3 -53 -5 -67 -4 -30 3 -30 170
-4 95 16 114 16 122 5 13 -23 38 -5 49 36 13 47 14 73 2 73 -5 0 -16 3 -25 6
-13 5 -16 -2 -16 -40 l0 -46 -61 0 -61 0 3 73 c4 71 4 72 -22 75 l-26 3 5 -80z"/>
</g>
<g id="part-4" class="char-part">
  <path d="M545 349 c-22 -4 -57 -8 -77 -8 -22 -1 -38 -6 -38 -12 0 -9 23 -10
83 -5 109 8 157 17 157 27 0 11 -70 10 -125 -2z"/>
</g>
<g id="part-5" class="char-part">
  <path d="M635 160 c3 -5 0 -10 -7 -10 -11 0 -10 -2 0 -9 11 -7 11 -9 -2 -14
-16 -7 -23 -37 -8 -37 27 0 58 66 36 74 -22 8 -26 7 -19 -4z"/>
  <path d="M481 114 c11 -20 18 -43 15 -50 -3 -8 -1 -14 5 -14 16 0 22 29 9 45
-7 8 -9 15 -5 15 5 0 0 9 -10 20 -29 32 -36 23 -14 -16z"/>
  <path d="M605 72 c-3 -3 -5 -8 -5 -12 0 -8 198 -6 206 3 9 9 7 9 -103 12 -51
1 -95 0 -98 -3z"/>
  <path d="M530 60 c0 -5 15 -10 33 -9 27 0 29 2 12 9 -28 12 -45 12 -45 0z"/>
  <path d="M345 50 c-3 -5 1 -10 10 -10 9 0 13 5 10 10 -3 6 -8 10 -10 10 -2 0
-7 -4 -10 -10z"/>
  <path d="M392 51 c-9 -5 1 -8 28 -8 27 0 37 3 28 8 -17 11 -39 11 -56 0z"/>
</g>
</g>
</svg>