<?xml version="1.0" standalone="no"?>
<!DOCTYPE svg PUBLIC "-//W3C//DTD SVG 20010904//EN"
 "http://www.w3.org/TR/2001/REC-SVG-20010904/DTD/svg10.dtd">
<svg version="1.0" xmlns="http://www.w3.org/2000/svg"
 width="96.000000pt" height="68.000000pt" viewBox="0 0 96.000000 68.000000"
 preserveAspectRatio="xMidYMid meet">
<metadata>
Created by potrace 1.16, written by Peter Selinger 2001-2019
Combined from part_0.svg through part_5.svg with named groups
</metadata>
<g transform="translate(0.000000,68.000000) scale(0.100000,-0.100000)" fill="#000000" stroke="none">
<g id="part-0" class="char-part">
  <path d="M639 575 c-3 -2 -40 -10 -82 -16 -83 -12 -110 -35 -29 -25 26 3 74 9
107 12 67 6 76 11 55 24 -16 10 -44 13 -51 5z"/>
  <path d="M270 544 c-25 -7 -57 -13 -72 -13 -30 -1 -38 -18 -14 -27 8 -3 40 0
71 6 31 6 58 10 61 8 2 -2 -1 -20 -6 -40 -9 -31 -15 -36 -48 -42 -20 -3 -50
-6 -66 -6 -25 0 -27 -3 -21 -22 7 -24 7 -27 3 -68 -3 -22 1 -25 27 -24 17 0
50 5 74 9 l43 8 -7 -89 c-7 -90 -26 -154 -44 -154 -6 0 -22 5 -36 12 -38 17
-39 5 -2 -36 39 -42 56 -45 84 -13 27 29 40 76 47 172 4 44 9 90 12 102 5 18
1 23 -27 31 -20 5 -52 5 -77 -1 -50 -10 -58 -7 -43 22 8 14 25 22 59 26 63 9
74 13 67 25 -4 6 6 31 21 57 26 44 26 47 8 60 -21 16 -53 15 -114 -3z"/>
  <path d="M610 495 c-30 -7 -84 -14 -119 -14 -49 -1 -61 -4 -53 -13 5 -7 17
-35 24 -62 l15 -50 104 3 c116 3 119 5 156 85 16 37 16 39 -2 52 -22 16 -49
16 -125 -1z m80 -36 c0 -16 -8 -19 -45 -19 -38 0 -45 3 -45 19 0 15 8 21 33
23 44 5 57 -1 57 -23z m-130 -9 c0 -17 -7 -20 -40 -20 -28 0 -40 4 -40 14 0
17 15 24 53 25 21 1 27 -4 27 -19z m110 -45 c0 -9 -10 -16 -25 -16 -14 -1 -31
-2 -37 -3 -7 -1 -14 7 -16 17 -3 14 4 17 37 17 30 0 41 -4 41 -15z m-110 -10
c0 -11 -11 -15 -40 -15 -31 0 -38 3 -34 15 4 9 19 15 40 15 24 0 34 -5 34 -15z"/>
  <path d="M739 336 c-2 -2 -83 -10 -179 -16 -96 -6 -177 -14 -179 -16 -16 -16
102 -23 168 -9 12 2 81 5 152 6 71 0 131 4 134 9 10 16 -81 41 -96 26z"/>
  <path d="M178 260 c4 -25 1 -30 -17 -30 -11 0 -21 -4 -21 -10 0 -5 12 -10 26
-10 21 0 25 -4 22 -22 -2 -17 -13 -25 -40 -32 -44 -11 -49 -23 -13 -32 17 -4
43 2 75 17 50 24 66 43 33 37 -12 -2 -19 4 -21 19 -3 17 3 22 23 25 14 2 25 8
25 13 -1 6 -12 9 -25 7 -18 -3 -24 2 -27 20 -2 14 -11 24 -24 26 -18 3 -20 -1
-16 -28z"/>
  <path d="M600 259 c-25 -4 -71 -8 -102 -8 -52 -1 -80 -12 -60 -25 5 -3 14 -29
21 -58 l13 -54 118 1 119 0 25 65 c24 61 25 66 9 78 -18 13 -73 14 -143 1z
m95 -33 c0 -16 -8 -20 -42 -22 -36 -2 -43 1 -43 16 0 20 20 29 60 27 18 -2 25
-8 25 -21z m-135 -16 c0 -17 -7 -20 -40 -20 -33 0 -40 3 -40 20 0 17 7 20 40
20 33 0 40 -3 40 -20z m130 -29 c0 -30 -14 -41 -51 -41 -31 0 -39 4 -39 18 0
10 3 22 7 25 10 10 83 8 83 -2z m-125 -25 c0 -16 -7 -20 -35 -20 -29 -1 -36 3
-38 22 -3 21 0 23 35 20 30 -2 38 -7 38 -22z"/>
  <path d="M565 74 c-93 -6 -174 -12 -178 -13 -5 -1 -6 -5 -2 -10 7 -12 416 -2
429 10 10 9 -36 30 -62 28 -9 -1 -93 -8 -187 -15z"/>
</g>
<g id="part-1" class="char-part">
  <path d="M310 551 c-8 -5 -37 -13 -65 -16 -87 -12 -88 -27 -1 -20 l79 6 -7
-33 c-9 -44 -13 -47 -84 -59 -56 -10 -60 -13 -49 -29 8 -15 8 -25 -3 -45 -19
-36 -3 -51 41 -36 17 6 47 11 65 11 l34 0 0 -72 c0 -40 -6 -93 -14 -118 -14
-45 -14 -45 -57 -43 l-43 2 36 -35 c32 -33 37 -35 57 -23 11 8 28 28 36 45 15
33 39 250 28 267 -3 6 -33 7 -76 2 -62 -6 -69 -5 -63 10 3 9 6 23 6 31 0 10
13 14 48 14 26 0 54 5 62 10 8 5 11 10 7 10 -5 0 5 25 22 55 17 30 27 56 23
58 -19 12 -69 16 -82 8z"/>
</g>
<g id="part-2" class="char-part">
  <path d="M178 260 c4 -25 1 -30 -16 -30 -12 0 -24 -4 -27 -10 -4 -6 7 -10 24
-10 26 0 31 -4 31 -24 0 -22 -6 -26 -45 -32 -37 -5 -43 -9 -34 -20 6 -8 20
-14 31 -14 19 0 161 60 155 66 -1 2 -19 -1 -40 -5 -35 -8 -37 -7 -37 15 0 18
5 24 23 24 31 0 54 15 34 23 -8 3 -24 3 -35 0 -16 -4 -21 1 -24 19 -2 14 -11
24 -24 26 -18 3 -20 -1 -16 -28z"/>
</g>
<g id="part-3" class="char-part">
  <path d="M560 560 c-64 -11 -89 -19 -77 -25 20 -9 217 14 217 25 0 8 -27 21
-38 19 -4 -1 -50 -10 -102 -19z"/>
</g>
<g id="part-4" class="char-part">
  <path d="M610 495 c-30 -7 -83 -14 -118 -14 -56 -1 -61 -3 -52 -18 6 -10 17
-38 24 -63 7 -25 18 -44 25 -42 6 1 54 2 106 3 l94 1 31 56 c16 30 30 59 30
62 0 10 -48 30 -68 29 -9 -1 -42 -7 -72 -14z m78 -33 c3 -20 -1 -22 -42 -22
-39 0 -46 3 -46 19 0 15 8 21 33 24 46 5 52 3 55 -21z m-128 -12 c0 -17 -7
-20 -40 -20 -33 0 -40 3 -40 20 0 17 7 20 40 20 33 0 40 -3 40 -20z m114 -45
c-4 -8 -11 -15 -18 -16 -6 0 -23 -3 -38 -5 -23 -4 -28 -1 -28 16 0 17 6 20 45
20 35 0 43 -3 39 -15z m-114 -10 c0 -10 -11 -15 -35 -15 -24 0 -35 5 -35 15 0
10 11 15 35 15 24 0 35 -5 35 -15z"/>
</g>
<g id="part-5" class="char-part">
  <path d="M713 83 c-63 -6 -52 -18 17 -20 57 -2 78 8 44 21 -9 3 -16 5 -17 4
-1 -1 -21 -3 -44 -5z"/>
  <path d="M610 70 l-35 -7 38 -2 c20 0 37 4 37 9 0 6 -1 9 -2 9 -2 -1 -19 -5
-38 -9z"/>
  <path d="M450 63 c-14 -3 -29 -9 -35 -15 -7 -7 2 -8 30 -4 22 4 60 8 85 8 41
0 42 1 15 8 -34 9 -58 9 -95 3z"/>
</g>
</g>
</svg>