<?xml version="1.0" standalone="no"?>
<!DOCTYPE svg PUBLIC "-//W3C//DTD SVG 20010904//EN"
 "http://www.w3.org/TR/2001/REC-SVG-20010904/DTD/svg10.dtd">
<svg version="1.0" xmlns="http://www.w3.org/2000/svg"
 width="96.000000pt" height="68.000000pt" viewBox="0 0 96.000000 68.000000"
 preserveAspectRatio="xMidYMid meet">
<metadata>
Created by potrace 1.16, written by Peter Selinger 2001-2019
Combined from part_0.svg through part_5.svg with named groups
</metadata>
<g transform="translate(0.000000,68.000000) scale(0.100000,-0.100000)" fill="#000000" stroke="none">
<g id="part-0" class="char-part">
  <path d="M588 547 c-33 -32 -121 -79 -155 -84 l-38 -5 0 -96 c0 -75 -6 -114
-24 -169 -13 -40 -27 -73 -31 -73 -4 0 -10 -7 -14 -15 -4 -12 -2 -13 13 -5 45
23 91 144 91 236 0 107 -1 106 116 143 58 19 107 38 110 43 7 10 -24 37 -43
38 -6 0 -18 -6 -25 -13z"/>
  <path d="M267 520 c-15 -5 -57 -12 -93 -15 -41 -5 -64 -12 -61 -19 6 -18 50
-18 117 -1 34 9 65 14 68 11 7 -7 -47 -84 -66 -95 -11 -6 -12 -12 -3 -30 24
-44 11 -63 -62 -91 -38 -14 -69 -30 -70 -35 -1 -5 10 -14 24 -19 21 -7 34 -3
67 19 24 15 45 25 48 22 4 -3 3 -36 -1 -72 -6 -64 -7 -65 -36 -65 l-30 0 34
-30 c19 -16 38 -30 41 -30 18 0 36 76 36 149 l0 79 37 23 c38 23 31 39 -8 19
-15 -9 -24 -9 -32 -1 -6 6 -7 11 -3 11 5 0 3 7 -4 15 -14 17 7 40 85 94 l49
33 -23 19 c-24 20 -67 23 -114 9z"/>
  <path d="M486 431 c-3 -5 -1 -23 5 -41 15 -41 6 -244 -11 -264 -15 -19 -4 -56
17 -56 8 0 35 18 60 40 52 46 58 47 75 20 18 -28 38 -25 38 5 0 18 -11 32 -40
51 -41 28 -63 27 -40 -1 15 -18 15 -17 -27 -39 l-33 -17 1 63 c0 35 4 98 8
141 6 73 5 78 -16 92 -26 17 -30 18 -37 6z"/>
  <path d="M610 394 c16 -26 30 -51 30 -55 0 -15 84 -184 94 -191 16 -11 116
-10 116 2 0 5 -10 15 -22 21 -64 34 -132 108 -174 189 -23 44 -46 76 -57 78
-14 3 -12 -5 13 -44z"/>
</g>
<g id="part-1" class="char-part">
  <path d="M265 515 c-27 -7 -69 -14 -92 -14 -23 -1 -45 -6 -48 -11 -12 -20 27
-23 86 -6 61 17 99 21 99 10 0 -3 -14 -24 -31 -46 -17 -21 -29 -42 -26 -45 9
-8 136 79 137 94 0 10 -53 35 -69 32 -3 -1 -28 -7 -56 -14z"/>
</g>
<g id="part-2" class="char-part">
  <path d="M225 388 c22 -70 20 -75 -31 -98 -27 -12 -61 -24 -76 -27 -31 -6 -34
-13 -16 -31 19 -19 50 -14 91 14 21 14 41 23 44 20 3 -3 2 -35 -2 -72 l-7 -66
-34 5 -34 6 34 -35 c18 -19 38 -34 45 -34 22 0 41 68 41 149 l0 80 40 23 c22
13 40 26 40 31 0 10 -12 8 -40 -8 -35 -20 -38 -19 -45 15 -4 17 -15 35 -25 40
-28 15 -33 12 -25 -12z"/>
</g>
<g id="part-3" class="char-part">
  <path d="M525 509 c-45 -28 -92 -49 -108 -49 -27 0 -28 0 -21 -50 9 -69 -13
-196 -45 -264 -31 -62 -26 -72 13 -26 33 40 66 147 66 215 0 108 0 108 108
140 54 15 106 33 116 38 19 9 19 10 -3 28 -13 11 -28 19 -35 18 -6 -1 -47 -23
-91 -50z"/>
</g>
<g id="part-4" class="char-part">
  <path d="M485 430 c-3 -5 -1 -19 6 -31 16 -30 9 -251 -9 -272 -17 -20 -6 -57
17 -57 9 0 37 21 61 46 28 29 37 44 25 39 -55 -21 -55 -21 -54 36 0 30 4 91 8
137 4 53 3 86 -4 91 -19 15 -44 20 -50 11z"/>
</g>
<g id="part-5" class="char-part">
  <path d="M610 412 c0 -7 10 -23 21 -35 19 -19 20 -20 11 -2 -22 39 -32 51 -32
37z"/>
  <path d="M640 342 c0 -5 14 -29 30 -55 17 -26 30 -51 30 -54 0 -4 8 -15 18
-26 9 -11 11 -17 5 -13 -7 4 -13 2 -13 -3 0 -6 8 -11 18 -12 11 0 13 -2 4 -6
-26 -10 41 -35 77 -28 l35 7 -35 21 c-19 12 -45 32 -58 44 -14 12 -29 19 -35
16 -6 -3 -8 -3 -4 2 4 4 -1 20 -12 35 -11 16 -20 32 -20 37 0 5 -9 16 -20 26
-11 9 -20 13 -20 9z"/>
</g>
</g>
</svg>