<?xml version="1.0" standalone="no"?>
<!DOCTYPE svg PUBLIC "-//W3C//DTD SVG 20010904//EN"
 "http://www.w3.org/TR/2001/REC-SVG-20010904/DTD/svg10.dtd">
<svg version="1.0" xmlns="http://www.w3.org/2000/svg"
 width="96.000000pt" height="68.000000pt" viewBox="0 0 96.000000 68.000000"
 preserveAspectRatio="xMidYMid meet">
<metadata>
Created by potrace 1.16, written by Peter Selinger 2001-2019
Combined from part_0.svg through part_5.svg with named groups
</metadata>
<g transform="translate(0.000000,68.000000) scale(0.100000,-0.100000)" fill="#000000" stroke="none">
<g id="part-0" class="char-part">
  <path d="M462 607 c-5 -7 -17 -34 -27 -62 -10 -27 -27 -62 -37 -77 -22 -32
-14 -37 15 -11 18 17 196 58 206 47 3 -2 0 -18 -6 -34 -6 -17 -8 -30 -5 -30
17 0 92 46 92 57 0 7 -17 17 -38 24 -31 9 -54 8 -117 -5 -43 -9 -80 -14 -82
-12 -3 2 5 22 16 45 12 22 21 44 21 50 0 15 -28 21 -38 8z"/>
  <path d="M223 501 c-34 -9 -65 -20 -68 -23 -15 -14 41 -19 103 -8 75 12 98 22
88 39 -9 14 -47 12 -123 -8z"/>
  <path d="M476 421 c-4 -30 -17 -49 -51 -79 -24 -21 -59 -44 -77 -49 -33 -11
-33 -11 -5 -12 38 -1 112 35 142 71 21 25 28 27 45 18 25 -13 91 -56 106 -69
6 -5 28 -14 48 -19 34 -10 36 -9 36 12 0 28 -49 57 -138 81 -53 15 -62 21 -56
37 6 21 -11 48 -31 48 -7 0 -15 -18 -19 -39z"/>
  <path d="M225 370 l-70 -19 85 3 c89 4 124 12 114 27 -8 13 -51 10 -129 -11z"/>
  <path d="M446 228 c37 -44 74 -53 74 -18 0 23 -28 40 -66 40 -27 0 -27 0 -8
-22z"/>
  <path d="M700 191 c60 -45 85 -51 87 -22 2 20 -39 41 -107 56 -35 7 -34 7 20
-34z"/>
  <path d="M315 183 c28 -66 72 -107 132 -122 53 -14 177 -14 226 0 53 14 47 38
-18 76 -51 29 -67 27 -46 -6 20 -31 1 -41 -78 -41 -101 1 -150 22 -186 84 -32
55 -51 61 -30 9z"/>
  <path d="M186 166 c-31 -53 -34 -86 -8 -86 23 0 52 49 52 88 0 47 -16 46 -44
-2z"/>
</g>
<g id="part-1" class="char-part">
  <path d="M245 502 c-86 -21 -94 -25 -60 -30 38 -5 126 6 145 18 13 9 13 11 0
20 -8 5 -17 9 -20 9 -3 -1 -32 -8 -65 -17z"/>
</g>
<g id="part-2" class="char-part">
  <path d="M477 437 c9 -44 -57 -115 -133 -142 l-39 -14 35 0 c48 -1 110 29 143
69 l27 32 73 -46 c87 -54 124 -69 132 -56 20 33 -37 72 -149 102 -38 10 -45
15 -40 31 7 22 -12 47 -36 47 -12 0 -16 -6 -13 -23z"/>
</g>
<g id="part-3" class="char-part">
  <path d="M430 239 c24 -44 90 -66 90 -30 0 24 -12 32 -61 41 -35 7 -37 6 -29
-11z"/>
  <path d="M701 190 c55 -41 73 -48 84 -29 12 19 -26 48 -76 58 -28 6 -52 11
-55 11 -4 0 18 -18 47 -40z"/>
  <path d="M300 215 c0 -3 11 -27 24 -53 42 -82 104 -112 236 -112 93 0 150 15
150 38 0 10 -24 30 -61 50 l-60 33 16 -32 c14 -26 15 -33 3 -40 -19 -12 -141
-11 -175 2 -37 14 -79 54 -93 90 -7 16 -19 29 -26 29 -8 0 -14 -2 -14 -5z"/>
  <path d="M186 167 c-32 -54 -34 -87 -6 -87 24 0 50 47 50 89 0 46 -16 46 -44
-2z"/>
</g>
</g>
</svg>