<?xml version="1.0" standalone="no"?>
<!DOCTYPE svg PUBLIC "-//W3C//DTD SVG 20010904//EN"
 "http://www.w3.org/TR/2001/REC-SVG-20010904/DTD/svg10.dtd">
<svg version="1.0" xmlns="http://www.w3.org/2000/svg"
 width="96.000000pt" height="68.000000pt" viewBox="0 0 96.000000 68.000000"
 preserveAspectRatio="xMidYMid meet">
<metadata>
Created by potrace 1.16, written by Peter Selinger 2001-2019
Combined from part_0.svg through part_5.svg with named groups
</metadata>
<g transform="translate(0.000000,68.000000) scale(0.100000,-0.100000)" fill="#000000" stroke="none">
<g id="part-0" class="char-part">
  <path d="M564 601 c9 -14 -78 -114 -107 -124 -7 -2 6 -19 27 -38 42 -36 48
-38 52 -15 1 8 -11 20 -27 26 -27 12 -40 30 -20 30 4 0 24 11 44 24 26 18 52
25 99 27 76 4 78 -5 11 -65 -56 -50 -73 -62 -137 -98 -53 -29 -45 -37 15 -16
84 28 274 182 247 199 -26 18 -59 21 -103 10 -62 -16 -71 -14 -51 8 17 19 17
20 -3 30 -24 13 -54 14 -47 2z"/>
  <path d="M328 588 c7 -7 12 -40 12 -79 0 -72 -6 -79 -69 -79 -22 0 -23 2 -17
48 6 45 4 49 -19 60 -39 18 -43 15 -41 -30 0 -24 -3 -57 -7 -74 -6 -24 -4 -36
8 -48 14 -14 20 -14 43 -2 15 8 44 17 65 21 l37 7 0 -45 c0 -44 -1 -44 -37
-51 -21 -3 -62 -6 -90 -6 -60 0 -67 -12 -23 -35 27 -14 28 -18 19 -43 -6 -15
-28 -48 -50 -74 -46 -55 -40 -61 18 -19 42 30 97 116 89 137 -4 10 34 24 65
24 12 0 11 -69 -2 -129 -11 -53 -1 -91 25 -91 22 0 26 39 25 227 0 98 3 201 6
229 7 48 6 51 -16 57 -40 11 -55 9 -41 -5z"/>
  <path d="M540 495 c0 -2 11 -12 25 -21 30 -19 58 -8 30 13 -18 12 -55 18 -55
8z"/>
  <path d="M626 361 c7 -33 -9 -40 -91 -41 -27 -1 -68 -5 -90 -9 -73 -14 -11
-24 95 -14 l100 9 0 -87 c0 -95 -6 -105 -58 -93 l-27 7 25 -28 c42 -45 57 -49
86 -20 24 24 25 30 23 123 l-2 97 73 5 c64 4 71 7 57 19 -12 9 -34 12 -71 9
-53 -4 -54 -4 -60 24 -5 23 -11 28 -35 28 -28 0 -30 -2 -25 -29z"/>
  <path d="M460 255 c0 -6 11 -20 38 -50 7 -8 20 -15 28 -15 21 0 29 29 13 45
-15 14 -79 31 -79 20z"/>
</g>
<g id="part-1" class="char-part">
  <path d="M196 468 c-3 -39 -3 -75 2 -80 5 -5 39 1 78 14 l69 23 -52 3 -52 3 6
45 c4 34 2 48 -8 55 -29 18 -36 8 -43 -63z"/>
</g>
<g id="part-2" class="char-part">
  <path d="M227 313 c-71 -4 -84 -17 -39 -38 34 -15 27 -47 -24 -109 -25 -31
-41 -56 -37 -56 38 0 158 135 147 165 -3 8 8 15 31 19 34 7 41 28 7 24 -9 -1
-48 -3 -85 -5z"/>
</g>
<g id="part-3" class="char-part">
  <path d="M561 587 c-5 -13 -35 -47 -66 -75 -31 -29 -50 -52 -42 -52 7 0 26
-14 41 -31 20 -22 31 -28 39 -20 12 12 -18 51 -40 51 -17 0 -8 16 16 30 14 7
25 4 45 -11 15 -12 33 -18 41 -15 24 9 17 24 -15 31 -35 8 -39 23 -7 29 47 10
118 13 122 6 9 -14 -125 -130 -185 -160 -33 -17 -60 -32 -60 -35 0 -2 24 3 53
12 59 17 158 81 232 149 47 44 49 47 30 61 -20 14 -82 13 -145 -4 -25 -6 -25
-6 -7 15 18 20 18 21 -2 31 -29 16 -41 14 -50 -12z"/>
</g>
<g id="part-4" class="char-part">
  <path d="M620 386 c0 -3 4 -16 9 -29 9 -23 7 -25 -27 -31 -20 -3 -59 -6 -87
-7 -27 -1 -63 -5 -80 -9 -60 -14 3 -22 105 -13 67 6 100 5 101 -2 3 -41 -2
-158 -7 -166 -4 -7 -21 -8 -43 -4 l-36 7 33 -35 c23 -24 40 -33 53 -30 38 10
49 42 49 145 l0 98 70 0 c39 0 70 4 70 10 0 12 -56 22 -100 18 -19 -2 -35 -1
-36 2 -4 25 -29 50 -49 50 -14 0 -25 -2 -25 -4z"/>
</g>
<g id="part-5" class="char-part">
  <path d="M482 240 c7 -10 15 -17 19 -14 4 2 9 -6 12 -18 7 -24 13 -23 19 5 2
13 -7 23 -29 32 -31 13 -32 13 -21 -5z"/>
</g>
</g>
</svg>