<?xml version="1.0" standalone="no"?>
<!DOCTYPE svg PUBLIC "-//W3C//DTD SVG 20010904//EN"
 "http://www.w3.org/TR/2001/REC-SVG-20010904/DTD/svg10.dtd">
<svg version="1.0" xmlns="http://www.w3.org/2000/svg"
 width="96.000000pt" height="68.000000pt" viewBox="0 0 96.000000 68.000000"
 preserveAspectRatio="xMidYMid meet">
<metadata>
Created by potrace 1.16, written by Peter Selinger 2001-2019
Combined from part_0.svg through part_5.svg with named groups
</metadata>
<g transform="translate(0.000000,68.000000) scale(0.100000,-0.100000)" fill="#000000" stroke="none">
<g id="part-0" class="char-part">
  <path d="M390 603 c0 -5 9 -22 20 -40 23 -38 23 -38 -82 -48 -66 -6 -84 -17
-52 -29 9 -3 27 -6 40 -6 16 0 24 -6 24 -17 0 -10 9 -31 19 -47 25 -38 20 -46
-32 -47 -23 0 -60 -4 -82 -8 -36 -6 -38 -8 -17 -15 13 -4 55 -5 93 -1 l69 7 0
-35 c0 -33 -2 -35 -42 -41 -24 -3 -85 -6 -136 -7 -64 -1 -92 -5 -89 -13 3 -7
41 -10 120 -9 65 1 117 0 117 -3 0 -2 -7 -16 -16 -30 -24 -36 -12 -44 84 -53
45 -4 -65 -66 -140 -77 -36 -6 -64 -24 -37 -24 43 0 152 26 193 47 l48 24 79
-45 c86 -51 109 -56 109 -26 0 27 -35 56 -89 76 -25 10 -50 21 -54 25 -5 3 7
29 25 55 l35 49 119 5 119 5 -37 17 c-30 15 -50 16 -118 10 -61 -6 -88 -5
-107 5 -22 11 -27 11 -37 -1 -11 -15 -73 -29 -88 -20 -4 3 -3 14 3 25 7 15 7
24 -2 35 -10 12 -4 14 37 14 97 0 244 13 244 22 0 22 -48 29 -120 19 -41 -5
-76 -8 -78 -6 -2 2 5 17 17 33 11 16 25 41 31 56 7 18 17 26 34 26 30 0 44 18
25 32 -14 9 -102 4 -133 -8 -11 -4 -16 0 -16 14 0 26 -45 62 -76 62 -13 0 -24
-3 -24 -7z m130 -138 c0 -59 -35 -91 -91 -83 -16 2 -23 11 -26 33 -2 17 -13
38 -24 47 -19 16 -19 17 3 21 13 2 49 5 81 6 54 1 57 0 57 -24z m10 -210 c0
-17 -26 -55 -46 -65 -20 -11 -88 -9 -101 4 -2 2 3 18 12 35 15 29 19 31 75 31
33 0 60 -2 60 -5z"/>
</g>
<g id="part-1" class="char-part">
  <path d="M400 596 c0 -7 9 -25 20 -39 11 -14 20 -27 20 -30 0 -3 -38 -8 -85
-12 -47 -4 -87 -11 -90 -15 -10 -16 66 -18 205 -4 162 16 183 21 174 36 -5 7
-34 8 -85 4 -78 -6 -79 -6 -79 17 0 14 -10 29 -29 40 -35 21 -51 22 -51 3z"/>
</g>
<g id="part-2" class="char-part">
  <path d="M538 503 c-11 -3 -18 -14 -18 -28 0 -30 -18 -77 -33 -87 -7 -4 -28
-8 -47 -8 -32 0 -35 3 -37 31 -3 37 -28 69 -55 69 -17 0 -17 -2 -2 -37 31 -72
31 -73 -17 -74 -24 0 -64 -4 -89 -8 -43 -7 -44 -8 -17 -16 16 -4 81 -3 145 4
65 6 172 14 240 17 67 4 122 11 122 15 0 28 -67 33 -174 12 l-28 -5 27 47 c24
39 26 48 14 59 -8 7 -22 11 -31 9z"/>
</g>
<g id="part-3" class="char-part">
  <path d="M403 353 c-7 -3 -13 -14 -13 -26 0 -47 -12 -51 -145 -55 -87 -3 -125
-8 -122 -16 3 -7 41 -10 120 -9 65 1 117 -2 117 -6 0 -5 -7 -14 -15 -21 -8 -7
-15 -18 -15 -26 0 -13 57 -34 93 -34 9 0 17 -4 17 -9 0 -11 -104 -57 -150 -66
-58 -12 -70 -24 -25 -25 51 0 128 21 184 49 l43 22 80 -46 c83 -48 112 -52
106 -13 -2 17 -21 32 -75 58 l-73 36 35 52 35 51 118 3 c117 3 117 3 86 20
-27 15 -45 16 -120 9 -68 -6 -95 -5 -116 6 -23 11 -28 11 -35 -1 -4 -7 -28
-17 -52 -21 -40 -7 -43 -6 -36 11 4 11 8 25 9 33 1 15 -32 30 -51 24z m127
-100 c0 -4 -10 -22 -22 -40 -24 -34 -52 -41 -105 -27 -28 8 -29 14 -2 48 18
22 28 26 75 26 30 0 54 -3 54 -7z"/>
</g>
</g>
</svg>