<?xml version="1.0" standalone="no"?>
<!DOCTYPE svg PUBLIC "-//W3C//DTD SVG 20010904//EN"
 "http://www.w3.org/TR/2001/REC-SVG-20010904/DTD/svg10.dtd">
<svg version="1.0" xmlns="http://www.w3.org/2000/svg"
 width="96.000000pt" height="68.000000pt" viewBox="0 0 96.000000 68.000000"
 preserveAspectRatio="xMidYMid meet">
<metadata>
Created by potrace 1.16, written by Peter Selinger 2001-2019
Combined from part_0.svg through part_5.svg with named groups
</metadata>
<g transform="translate(0.000000,68.000000) scale(0.100000,-0.100000)" fill="#000000" stroke="none">
<g id="part-0" class="char-part">
  <path d="M328 573 l-3 -58 -85 -5 -85 -5 23 -23 c24 -24 57 -25 109 -5 12 5
14 1 9 -15 -6 -17 -2 -24 19 -34 38 -17 26 -30 -46 -53 l-64 -20 44 -3 c24 -2
66 4 94 13 35 12 53 13 60 6 6 -6 19 -11 30 -11 22 0 14 -9 -46 -54 -49 -38
-37 -52 33 -37 29 6 55 9 58 7 5 -6 -48 -39 -100 -64 -23 -10 -37 -23 -35 -32
3 -16 25 -18 99 -6 46 8 47 8 50 -20 2 -16 1 -46 -1 -68 -3 -37 -4 -38 -34
-32 l-30 6 31 -30 c18 -16 38 -30 47 -30 20 0 37 69 34 138 -2 48 0 56 16 58
10 2 29 5 42 9 16 4 33 -1 50 -15 28 -22 43 -19 43 9 0 23 -22 42 -68 58 -41
14 -51 10 -32 -12 7 -9 11 -17 8 -20 -6 -6 -190 -27 -195 -22 -2 2 46 27 107
56 60 28 110 55 110 59 0 13 -23 32 -37 32 -8 0 -24 -11 -36 -24 -16 -17 -36
-26 -74 -30 -29 -3 -53 -1 -53 4 0 4 23 22 51 39 28 18 49 37 46 44 -6 19 -46
21 -53 2 -5 -13 -9 -11 -20 11 -13 25 -12 30 16 72 33 50 36 62 18 80 -18 18
-45 14 -51 -8 -3 -12 -14 -20 -26 -20 -20 0 -20 1 -4 35 15 31 15 37 2 50 -7
7 -26 17 -41 20 -27 7 -27 6 -30 -52z m92 -81 c0 -17 -32 -52 -49 -52 -25 0
-32 10 -21 31 9 15 19 20 63 28 4 0 7 -2 7 -7z"/>
  <path d="M665 538 c-38 -5 -89 -8 -112 -6 -42 3 -57 -5 -29 -15 8 -3 20 -31
27 -62 11 -50 15 -56 33 -50 12 3 51 9 89 12 51 4 67 9 67 21 0 8 11 30 25 48
l25 33 -27 14 c-21 10 -45 11 -98 5z m48 -50 c-8 -43 -9 -44 -69 -52 -47 -6
-51 -5 -62 19 -24 53 -15 60 90 64 l48 1 -7 -32z"/>
  <path d="M610 151 c0 -4 24 -31 54 -60 36 -36 60 -52 70 -48 21 8 20 30 -1 55
-18 21 -123 66 -123 53z"/>
  <path d="M329 108 c-6 -13 -23 -35 -37 -50 -35 -37 -15 -35 44 5 52 34 63 60
27 65 -14 2 -26 -4 -34 -20z"/>
</g>
<g id="part-1" class="char-part">
  <path d="M340 578 c0 -24 -4 -49 -8 -55 -5 -8 -41 -16 -85 -19 -66 -6 -75 -9
-65 -22 10 -11 26 -13 71 -8 54 5 57 5 48 -13 -9 -16 -6 -21 19 -31 17 -7 30
-16 30 -20 0 -9 -37 -28 -90 -44 l-45 -14 37 -1 c21 -1 61 8 89 19 46 17 54
18 73 5 11 -8 24 -15 28 -15 14 0 9 23 -9 42 -15 17 -15 20 4 41 11 12 28 36
37 54 15 31 15 33 -6 47 -30 21 -38 20 -38 -4 0 -15 -7 -20 -25 -20 -29 0 -31
11 -8 47 16 24 16 26 -2 39 -10 8 -27 14 -37 14 -15 0 -18 -8 -18 -42z m73
-109 c-22 -38 -35 -44 -62 -29 -18 9 -19 14 -9 30 13 20 28 27 66 29 23 1 23
1 5 -30z"/>
</g>
<g id="part-2" class="char-part">
  <path d="M660 538 c-30 -5 -76 -8 -103 -6 -44 3 -63 -5 -35 -14 7 -3 20 -29
28 -59 13 -43 20 -53 36 -51 10 2 49 6 87 9 51 4 67 9 67 21 0 8 11 30 25 48
l25 33 -22 15 c-25 18 -29 18 -108 4z m56 -38 c-3 -11 -8 -28 -11 -39 -4 -14
-19 -20 -57 -24 -59 -7 -63 -5 -73 40 -6 30 -5 32 27 36 18 2 52 5 76 5 39 2
43 0 38 -18z"/>
</g>
<g id="part-3" class="char-part">
  <path d="M435 356 c-27 -28 -58 -55 -67 -61 -12 -7 -15 -14 -9 -24 7 -11 20
-12 75 -1 73 14 107 38 38 27 -59 -10 -60 7 -2 42 54 33 60 45 33 59 -14 8
-28 -1 -68 -42z"/>
</g>
<g id="part-4" class="char-part">
  <path d="M560 341 c-8 -16 -120 -96 -206 -147 -15 -10 -16 -15 -7 -25 10 -10
23 -10 65 0 29 7 89 19 132 27 70 12 82 12 96 -1 26 -23 52 -19 48 8 -2 15
-18 29 -51 46 -52 25 -70 22 -43 -8 18 -20 13 -21 -149 -37 l-50 -4 110 55
c60 31 111 58 114 60 5 6 -29 45 -40 45 -5 0 -13 -9 -19 -19z"/>
</g>
<g id="part-5" class="char-part">
  <path d="M500 164 c0 -8 5 -12 10 -9 6 3 10 1 10 -4 0 -6 -5 -11 -11 -11 -7 0
-10 -17 -7 -45 2 -36 0 -46 -14 -51 -10 -3 -23 -2 -30 2 -10 6 -10 4 0 -8 16
-20 50 -29 58 -16 4 6 7 31 8 57 1 25 5 52 9 59 5 7 6 19 3 27 -7 20 -36 19
-36 -1z"/>
  <path d="M630 135 c8 -11 28 -31 44 -44 15 -14 34 -30 41 -38 11 -10 15 -10
25 2 10 12 6 20 -18 45 -21 20 -36 28 -48 23 -13 -5 -15 -3 -9 7 6 10 4 12 -7
7 -9 -3 -22 0 -29 6 -8 8 -8 5 1 -8z m76 -45 c0 -12 -4 -16 -9 -11 -5 5 -6 14
-3 20 10 15 12 14 12 -9z"/>
  <path d="M345 116 c-6 -8 -20 -28 -33 -44 l-22 -31 28 15 c37 18 66 50 57 63
-9 15 -18 14 -30 -3z"/>
</g>
</g>
</svg>