<?xml version="1.0" standalone="no"?>
<!DOCTYPE svg PUBLIC "-//W3C//DTD SVG 20010904//EN"
 "http://www.w3.org/TR/2001/REC-SVG-20010904/DTD/svg10.dtd">
<svg version="1.0" xmlns="http://www.w3.org/2000/svg"
 width="96.000000pt" height="68.000000pt" viewBox="0 0 96.000000 68.000000"
 preserveAspectRatio="xMidYMid meet">
<metadata>
Created by potrace 1.16, written by Peter Selinger 2001-2019
Combined from part_0.svg through part_5.svg with named groups
</metadata>
<g transform="translate(0.000000,68.000000) scale(0.100000,-0.100000)" fill="#000000" stroke="none">
<g id="part-0" class="char-part">
  <path d="M586 543 c5 -10 10 -82 12 -159 l3 -142 -25 -6 c-14 -3 -45 -3 -68 0
-36 6 -41 5 -32 -7 6 -8 20 -49 30 -92 16 -70 20 -78 38 -73 12 2 68 8 126 12
105 6 105 7 106 33 1 14 11 46 23 71 21 44 21 44 1 64 -18 18 -25 19 -82 9
-35 -6 -66 -8 -70 -6 -5 2 -8 31 -8 64 0 59 0 59 29 59 39 0 131 22 131 31 0
13 -65 17 -107 6 -23 -6 -45 -9 -48 -6 -3 3 -1 35 4 70 10 74 3 89 -41 89 -25
0 -29 -3 -22 -17z m152 -337 c2 -10 -1 -37 -8 -61 l-12 -42 -76 -6 c-78 -6
-94 -1 -98 30 -2 10 -5 32 -9 49 -6 37 -1 39 90 43 33 2 62 5 65 7 11 11 45
-3 48 -20z"/>
  <path d="M315 509 c-22 -5 -58 -8 -80 -8 -57 1 -59 1 -46 -15 8 -10 11 -55 10
-139 -1 -68 1 -129 5 -136 4 -6 16 -9 27 -6 32 11 22 -20 -26 -80 -25 -30 -41
-55 -36 -55 11 0 125 93 136 110 3 5 -1 13 -9 16 -9 3 -13 10 -10 15 7 12 104
11 104 -1 0 -5 9 -10 19 -10 21 0 28 44 33 215 3 76 2 80 -22 92 -28 14 -47
15 -105 2z m63 -60 c3 -23 -2 -26 -48 -37 -76 -18 -80 -17 -80 22 0 39 11 45
80 43 40 -2 45 -5 48 -28z m2 -88 c0 -15 -10 -21 -42 -26 -24 -3 -55 -8 -70
-11 -23 -5 -28 -2 -28 15 0 28 26 40 88 41 45 0 52 -3 52 -19z m3 -83 c4 -12
5 -24 3 -26 -2 -2 -34 -8 -72 -13 -74 -10 -84 -5 -76 37 4 23 8 24 72 24 61 0
68 -2 73 -22z"/>
  <path d="M350 173 c0 -5 18 -28 40 -53 31 -37 41 -43 52 -32 16 16 3 39 -42
70 -34 23 -50 28 -50 15z"/>
</g>
<g id="part-1" class="char-part">
  <path d="M318 504 c-3 -3 -33 -5 -66 -6 l-60 -1 10 -26 c5 -15 7 -63 3 -118
-7 -90 -7 -93 14 -93 14 0 21 6 21 20 0 14 7 20 23 20 12 0 46 3 75 6 48 6 52
5 52 -15 0 -14 6 -21 19 -21 17 0 19 11 23 113 3 75 1 114 -6 119 -13 9 -100
11 -108 2z m65 -47 c5 -16 5 -33 1 -37 -5 -5 -39 -12 -76 -16 l-68 -7 0 36 c0
38 1 39 70 51 48 7 63 2 73 -27z m7 -97 c0 -26 -3 -30 -29 -30 -15 0 -49 -3
-75 -6 l-46 -7 0 31 c0 30 2 31 48 35 109 8 102 10 102 -23z"/>
</g>
<g id="part-2" class="char-part">
  <path d="M242 180 c-8 -16 -33 -50 -57 -75 -25 -25 -41 -45 -36 -45 12 0 83
50 127 89 36 32 37 34 19 47 -28 21 -39 17 -53 -16z"/>
  <path d="M367 152 c41 -64 52 -75 67 -69 31 12 14 47 -36 80 -40 25 -53 21
-31 -11z"/>
</g>
<g id="part-3" class="char-part">
  <path d="M586 543 c4 -10 10 -82 12 -160 4 -133 5 -143 23 -143 17 0 19 8 19
64 l0 64 67 7 c73 8 93 13 93 25 0 14 -64 18 -107 7 -23 -6 -44 -9 -46 -6 -3
2 0 35 5 73 10 77 6 86 -46 86 -23 0 -27 -3 -20 -17z"/>
</g>
<g id="part-4" class="char-part">
  <path d="M695 249 c-16 -5 -73 -10 -127 -11 -90 -3 -95 -4 -86 -21 5 -11 17
-49 26 -85 l17 -67 50 4 c28 2 59 5 70 6 11 1 45 3 77 4 50 1 56 3 51 20 -3
10 7 43 21 72 23 49 24 55 9 71 -17 19 -59 22 -108 7z m38 -73 c-1 -27 -7 -54
-15 -61 -7 -7 -47 -16 -90 -20 l-76 -7 -12 57 c-6 31 -10 58 -8 60 7 7 132 23
168 21 l35 -1 -2 -49z"/>
</g>
</g>
</svg>