<?xml version="1.0" standalone="no"?>
<!DOCTYPE svg PUBLIC "-//W3C//DTD SVG 20010904//EN"
 "http://www.w3.org/TR/2001/REC-SVG-20010904/DTD/svg10.dtd">
<svg version="1.0" xmlns="http://www.w3.org/2000/svg"
 width="96.000000pt" height="68.000000pt" viewBox="0 0 96.000000 68.000000"
 preserveAspectRatio="xMidYMid meet">
<metadata>
Created by potrace 1.16, written by Peter Selinger 2001-2019
Combined from part_0.svg through part_5.svg with named groups
</metadata>
<g transform="translate(0.000000,68.000000) scale(0.100000,-0.100000)" fill="#000000" stroke="none">
<g id="part-0" class="char-part">
  <path d="M521 595 c-16 -14 -58 -36 -93 -50 -53 -20 -58 -24 -33 -25 37 0 197
52 202 66 2 6 -8 16 -21 22 -22 10 -29 8 -55 -13z"/>
  <path d="M200 555 c0 -16 60 -75 76 -75 18 0 35 26 28 43 -10 26 -104 55 -104
32z"/>
  <path d="M625 516 c-9 -19 -23 -40 -31 -47 -8 -6 -14 -16 -14 -21 0 -7 99 50
119 68 7 7 -12 21 -36 28 -18 6 -25 1 -38 -28z"/>
  <path d="M460 503 c0 -13 39 -53 51 -53 14 0 23 30 13 40 -14 13 -64 23 -64
13z"/>
  <path d="M350 482 c0 -5 11 -19 26 -32 21 -21 27 -22 34 -10 7 11 4 20 -11 33
-22 18 -49 23 -49 9z"/>
  <path d="M575 424 c-33 -8 -97 -17 -142 -20 -93 -8 -102 -24 -13 -24 60 0 76
-12 64 -45 -5 -11 -23 -15 -73 -16 -36 -1 -77 -5 -91 -9 l-25 -8 25 -2 c14 -2
58 -2 98 0 71 2 72 2 72 -24 0 -19 -6 -27 -22 -30 -13 -3 -45 -9 -73 -15 l-50
-10 73 2 72 2 0 -62 c0 -60 -1 -63 -24 -63 -14 0 -36 4 -50 10 -19 7 -24 6
-20 -3 6 -15 87 -67 103 -67 24 0 42 68 35 129 l-6 58 47 6 c26 4 61 7 76 7
19 0 27 4 24 13 -7 18 10 72 23 73 7 1 40 2 75 3 58 2 61 3 42 17 -14 11 -34
14 -63 11 -46 -5 -61 5 -41 29 10 12 10 18 -2 29 -21 22 -67 25 -134 9z m65
-54 c0 -27 -3 -30 -32 -31 -18 -1 -43 -3 -56 -4 -19 -2 -23 2 -20 24 4 30 19
39 71 40 35 1 37 -1 37 -29z m-10 -68 c0 -26 -17 -39 -62 -47 -38 -7 -38 -7
-38 26 0 34 1 34 50 37 44 3 50 1 50 -16z"/>
  <path d="M110 423 c0 -5 15 -24 34 -42 23 -22 41 -32 57 -29 33 4 32 39 -2 55
-37 18 -89 27 -89 16z"/>
  <path d="M236 274 c-21 -32 -51 -69 -67 -82 -34 -27 -37 -60 -11 -92 22 -27
37 -21 47 17 3 16 22 63 41 106 46 102 41 129 -10 51z"/>
</g>
<g id="part-1" class="char-part">
  <path d="M225 526 c24 -32 57 -50 69 -38 25 24 -24 72 -74 72 -20 0 -20 -1 5
-34z"/>
  <path d="M120 412 c0 -18 68 -65 85 -58 19 7 19 30 1 45 -20 17 -86 26 -86 13z"/>
  <path d="M245 279 c-15 -23 -45 -61 -67 -85 -39 -42 -39 -43 -23 -73 8 -17 19
-31 23 -31 7 0 75 150 92 203 12 37 7 34 -25 -14z"/>
</g>
<g id="part-2" class="char-part">
  <path d="M529 604 c-14 -17 -73 -49 -128 -69 l-36 -14 33 0 c35 -1 179 44 197
61 7 6 3 14 -9 24 -25 18 -40 18 -57 -2z"/>
  <path d="M624 515 c-9 -19 -19 -35 -23 -35 -3 0 -12 -9 -18 -20 -11 -17 -10
-18 5 -13 9 4 41 22 71 41 54 35 54 35 30 48 -37 20 -47 17 -65 -21z"/>
  <path d="M460 502 c0 -12 39 -52 51 -52 20 0 22 33 4 46 -21 15 -55 19 -55 6z"/>
  <path d="M350 480 c0 -13 37 -50 49 -50 22 0 23 24 1 42 -24 20 -50 24 -50 8z"/>
</g>
<g id="part-3" class="char-part">
  <path d="M585 424 c-33 -7 -100 -16 -148 -20 -60 -5 -85 -10 -78 -17 7 -7 53
-6 141 2 73 7 134 10 137 8 3 -3 2 -33 -2 -66 -8 -71 4 -64 -164 -86 -62 -8
-116 -17 -120 -21 -6 -7 187 2 276 12 36 5 50 10 47 19 -6 14 17 100 35 134 9
16 7 23 -11 35 -26 18 -33 18 -113 0z"/>
</g>
<g id="part-4" class="char-part">
  <path d="M486 361 c7 -32 -8 -40 -86 -42 -25 -1 -58 -4 -75 -8 l-30 -7 33 -7
c19 -4 44 -5 55 -3 12 3 41 7 65 10 l42 6 0 -106 0 -107 -52 7 -53 7 50 -35
c27 -20 55 -36 62 -36 26 0 37 46 37 160 l1 115 45 3 c251 16 256 17 233 30
-22 12 -77 9 -235 -14 l-48 -7 0 32 c0 26 -4 31 -25 31 -22 0 -24 -3 -19 -29z"/>
</g>
</g>
</svg>