<?xml version="1.0" standalone="no"?>
<!DOCTYPE svg PUBLIC "-//W3C//DTD SVG 20010904//EN"
 "http://www.w3.org/TR/2001/REC-SVG-20010904/DTD/svg10.dtd">
<svg version="1.0" xmlns="http://www.w3.org/2000/svg"
 width="96.000000pt" height="68.000000pt" viewBox="0 0 96.000000 68.000000"
 preserveAspectRatio="xMidYMid meet">
<metadata>
Created by potrace 1.16, written by Peter Selinger 2001-2019
Combined from part_0.svg through part_5.svg with named groups
</metadata>
<g transform="translate(0.000000,68.000000) scale(0.100000,-0.100000)" fill="#000000" stroke="none">
<g id="part-0" class="char-part">
  <path d="M490 593 c0 -5 4 -13 9 -18 8 -8 37 -122 67 -266 5 -24 2 -28 -27
-34 -168 -34 -204 -49 -126 -50 30 0 32 -2 29 -30 -2 -16 -19 -49 -38 -72 -48
-59 -24 -54 34 6 43 45 49 48 67 35 24 -18 45 -18 45 0 0 8 -13 19 -30 25 -20
6 -30 17 -30 30 0 24 5 27 51 36 36 7 36 6 63 -49 15 -31 24 -61 20 -67 -3 -6
-22 -17 -40 -25 -19 -8 -34 -19 -34 -24 0 -10 46 6 65 22 18 16 38 8 85 -35
44 -40 123 -77 135 -65 3 3 3 36 -1 74 l-8 69 -13 -47 c-12 -39 -17 -46 -33
-40 -26 10 -90 65 -90 77 0 6 16 26 35 45 31 31 33 34 17 46 -27 21 -40 16
-52 -21 -14 -43 -30 -44 -52 -4 -29 50 -24 59 32 59 39 0 50 3 50 16 0 13 -10
15 -62 12 l-63 -3 -17 80 c-10 44 -21 112 -25 150 -8 67 -9 70 -35 73 -16 2
-28 -1 -28 -5z"/>
  <path d="M245 553 c14 -32 18 -142 6 -157 -6 -8 -36 -17 -67 -21 -74 -9 -67
-30 9 -30 32 0 57 -2 57 -5 0 -17 -55 -91 -105 -141 -42 -42 -54 -59 -41 -59
25 0 74 34 119 84 l39 41 -6 -30 c-15 -88 -17 -181 -3 -199 12 -17 14 -17 30
-1 14 14 17 37 17 137 0 117 1 120 18 105 10 -10 26 -17 34 -17 27 0 13 33
-20 50 -41 20 -42 46 -1 54 35 7 35 29 -1 34 -22 4 -23 6 -17 77 6 81 -1 95
-46 95 -24 0 -28 -3 -22 -17z"/>
  <path d="M640 524 c-6 -14 -10 -29 -10 -33 0 -4 -9 -16 -20 -26 -11 -10 -20
-27 -20 -38 0 -17 5 -19 42 -13 l42 7 -24 -28 c-14 -15 -32 -33 -40 -39 -26
-21 12 -27 56 -9 31 13 43 14 61 4 13 -7 26 -9 30 -5 12 12 -12 41 -37 44 -12
2 -20 -1 -16 -6 5 -9 -42 -27 -50 -19 -2 2 17 24 42 50 30 29 44 52 41 62 -9
21 -21 19 -32 -7 -6 -15 -21 -24 -38 -26 l-29 -3 26 43 c20 34 23 47 14 56
-18 18 -27 15 -38 -14z"/>
  <path d="M430 499 c0 -6 -11 -34 -25 -61 -29 -58 -25 -72 17 -63 l31 7 -29
-36 c-16 -20 -32 -36 -36 -36 -5 0 -8 -7 -8 -15 0 -19 23 -19 66 1 19 9 43 14
54 11 25 -6 36 9 20 28 -16 19 -40 19 -40 1 0 -12 -47 -32 -56 -23 -2 2 19 25
46 51 40 38 48 51 39 62 -16 19 -26 17 -32 -6 -3 -12 -14 -20 -26 -20 l-21 0
20 41 c12 23 19 47 16 55 -6 17 -36 19 -36 3z"/>
  <path d="M740 311 c0 -15 59 -53 70 -46 19 12 10 26 -25 41 -40 17 -45 17 -45
5z"/>
</g>
<g id="part-1" class="char-part">
  <path d="M257 528 c4 -24 8 -65 8 -93 l0 -50 -57 -10 c-79 -14 -83 -25 -9 -25
l61 0 -21 -42 c-12 -24 -50 -71 -84 -105 -35 -35 -61 -63 -57 -63 18 0 96 56
127 92 l36 43 -7 -90 c-9 -113 -9 -134 5 -148 23 -23 32 12 38 137 l6 127 22
-21 c26 -24 35 -25 35 -5 0 9 -13 24 -30 33 -39 22 -39 51 0 59 39 7 38 20 -1
28 l-31 7 7 73 c6 67 5 74 -14 84 -36 20 -42 14 -34 -31z"/>
</g>
<g id="part-2" class="char-part">
  <path d="M419 473 c-7 -21 -18 -48 -26 -60 -26 -39 12 -59 53 -28 17 13 17 14
1 15 -16 0 -16 3 3 40 25 49 25 70 1 70 -14 0 -23 -11 -32 -37z"/>
</g>
<g id="part-3" class="char-part">
  <path d="M490 592 c0 -4 4 -12 9 -17 10 -11 74 -285 69 -291 -2 -2 -42 -11
-88 -20 -104 -20 -122 -29 -86 -38 17 -4 57 2 103 14 41 12 76 20 78 18 14
-16 54 -111 50 -118 -3 -5 -22 -17 -41 -26 -49 -23 -34 -30 21 -9 l46 18 37
-35 c42 -41 107 -78 136 -78 17 0 18 5 12 46 -3 26 -6 59 -7 73 0 22 -3 19
-16 -16 -9 -28 -21 -43 -32 -43 -21 0 -91 57 -91 74 0 7 16 28 36 46 35 31 36
34 19 47 -27 19 -43 16 -51 -9 -4 -13 -12 -31 -20 -42 -11 -17 -14 -15 -33 22
-12 23 -21 46 -21 51 0 5 20 11 45 13 63 4 52 23 -12 21 l-53 -2 -11 42 c-23
86 -40 182 -38 212 2 17 0 36 -5 43 -8 13 -56 17 -56 4z"/>
  <path d="M740 312 c0 -14 49 -52 66 -52 17 0 18 24 1 38 -19 16 -67 26 -67 14z"/>
</g>
<g id="part-4" class="char-part">
  <path d="M490 180 c0 -10 32 -30 49 -30 17 0 13 27 -5 34 -23 9 -44 7 -44 -4z"/>
</g>
</g>
</svg>