<?xml version="1.0" standalone="no"?>
<!DOCTYPE svg PUBLIC "-//W3C//DTD SVG 20010904//EN"
 "http://www.w3.org/TR/2001/REC-SVG-20010904/DTD/svg10.dtd">
<svg version="1.0" xmlns="http://www.w3.org/2000/svg"
 width="96.000000pt" height="68.000000pt" viewBox="0 0 96.000000 68.000000"
 preserveAspectRatio="xMidYMid meet">
<metadata>
Created by potrace 1.16, written by Peter Selinger 2001-2019
Combined from part_0.svg through part_5.svg with named groups
</metadata>
<g transform="translate(0.000000,68.000000) scale(0.100000,-0.100000)" fill="#000000" stroke="none">
<g id="part-0" class="char-part">
  <path d="M525 625 c97 -80 135 -91 135 -41 0 21 -9 28 -55 45 -31 12 -68 21
-83 21 l-27 0 30 -25z"/>
  <path d="M322 616 c-6 -14 -35 -42 -63 -63 -59 -42 -52 -55 13 -22 124 62 157
101 92 107 -24 2 -33 -2 -42 -22z"/>
  <path d="M495 587 c-4 -12 -16 -32 -27 -44 -16 -17 -25 -20 -45 -12 -33 12
-113 12 -93 -1 8 -5 32 -12 52 -15 21 -4 38 -10 38 -13 0 -14 -130 -83 -280
-150 -24 -11 -24 -11 5 -5 75 15 222 77 277 117 l27 19 43 -29 c24 -16 45 -32
48 -35 3 -3 32 -22 65 -42 54 -33 67 -37 125 -36 36 0 74 4 85 8 17 7 12 10
-25 20 -109 28 -184 56 -240 89 -33 20 -60 39 -60 43 0 4 16 21 36 39 38 33
38 34 -8 60 -13 8 -18 5 -23 -13z"/>
  <path d="M362 384 c-24 -24 -50 -44 -57 -44 -8 0 -17 -5 -21 -11 -4 -8 3 -9
23 -5 23 5 33 2 50 -18 25 -29 21 -35 -50 -65 -61 -26 -60 -34 2 -15 53 15
125 53 156 81 11 10 37 31 59 47 l39 29 -28 14 c-26 14 -39 14 -77 -2 -14 -5
-18 -2 -18 14 0 33 -30 24 -78 -25z m118 -15 c0 -14 -67 -79 -81 -79 -5 0 -9
7 -9 16 0 9 -9 18 -20 21 -39 10 -20 32 40 44 54 10 70 10 70 -2z"/>
  <path d="M468 276 c-15 -18 -55 -53 -90 -76 -62 -41 -62 -42 -25 -35 25 5 37
4 37 -4 0 -7 12 -23 26 -36 l26 -24 -39 -17 c-21 -9 -72 -27 -113 -40 -75 -23
-75 -23 -30 -23 86 -1 193 39 275 103 55 43 115 98 115 106 0 16 -53 29 -98
24 -45 -5 -46 -5 -27 11 20 16 20 16 1 31 -27 19 -27 19 -58 -20z m102 -55 c0
-11 -98 -101 -111 -101 -5 0 -9 8 -9 18 0 11 -12 24 -27 31 l-27 13 24 18 c14
11 39 21 55 23 59 8 95 7 95 -2z"/>
</g>
<g id="part-1" class="char-part">
  <path d="M558 605 c62 -46 85 -54 97 -34 12 18 -26 49 -78 64 -81 24 -85 18
-19 -30z"/>
  <path d="M321 608 c-14 -17 -42 -43 -64 -59 -75 -54 15 -21 106 39 36 24 37
27 21 39 -26 19 -36 16 -63 -19z"/>
</g>
<g id="part-2" class="char-part">
  <path d="M495 588 c-12 -40 -45 -69 -66 -58 -19 11 -116 14 -107 4 4 -3 28
-11 55 -18 l48 -12 -40 -26 c-49 -31 -150 -82 -225 -115 -54 -23 -54 -24 -15
-18 58 10 179 58 247 100 l58 36 78 -54 c114 -80 132 -87 209 -86 37 0 77 4
88 9 11 5 17 9 14 9 -3 1 -43 10 -88 21 -91 23 -164 53 -230 94 l-43 27 41 31
c47 34 49 41 19 62 -30 21 -35 20 -43 -6z"/>
</g>
<g id="part-3" class="char-part">
  <path d="M371 395 c-18 -20 -47 -43 -65 -52 -17 -9 -25 -18 -18 -20 7 -3 31 6
55 20 52 30 137 44 137 22 0 -19 -78 -76 -157 -116 -35 -18 -63 -33 -63 -35 0
-2 24 4 53 12 51 15 196 104 231 143 17 19 17 20 -4 31 -22 12 -47 10 -84 -5
-14 -6 -17 -5 -11 4 8 13 -10 31 -30 31 -6 0 -26 -16 -44 -35z"/>
</g>
<g id="part-4" class="char-part">
  <path d="M336 328 c14 -23 38 -48 46 -48 16 0 7 40 -11 50 -26 14 -44 13 -35
-2z"/>
</g>
<g id="part-5" class="char-part">
  <path d="M487 278 c-15 -11 -24 -25 -21 -30 4 -7 2 -8 -4 -4 -6 4 -20 -2 -32
-14 -11 -11 -23 -20 -27 -21 -14 -2 -38 -18 -27 -19 6 0 14 3 18 8 4 4 11 7
14 8 14 1 67 29 74 38 4 6 4 14 2 18 -3 4 1 6 8 3 19 -7 45 12 33 24 -7 6 -20
3 -38 -11z"/>
  <path d="M510 240 c-23 -7 -23 -8 -3 -9 12 -1 25 4 28 9 3 6 5 10 3 9 -2 -1
-14 -5 -28 -9z"/>
  <path d="M567 228 c4 -19 -6 -34 -44 -69 -26 -24 -47 -48 -45 -52 1 -5 -1 -6
-6 -3 -5 3 -30 -5 -56 -18 -36 -17 -43 -24 -29 -28 27 -7 137 57 202 118 31
28 54 54 51 57 -3 3 -21 8 -41 12 -35 6 -36 5 -32 -17z m33 -12 c0 -3 -4 -8
-10 -11 -5 -3 -10 -1 -10 4 0 6 5 11 10 11 6 0 10 -2 10 -4z"/>
  <path d="M326 51 c-15 -6 -16 -10 -7 -15 8 -5 20 -2 29 8 17 17 9 19 -22 7z"/>
  <path d="M265 30 c-8 -13 5 -13 25 0 13 8 13 10 -2 10 -9 0 -20 -4 -23 -10z"/>
</g>
</g>
</svg>