<?xml version="1.0" standalone="no"?>
<!DOCTYPE svg PUBLIC "-//W3C//DTD SVG 20010904//EN"
 "http://www.w3.org/TR/2001/REC-SVG-20010904/DTD/svg10.dtd">
<svg version="1.0" xmlns="http://www.w3.org/2000/svg"
 width="96.000000pt" height="68.000000pt" viewBox="0 0 96.000000 68.000000"
 preserveAspectRatio="xMidYMid meet">
<metadata>
Created by potrace 1.16, written by Peter Selinger 2001-2019
Combined from part_0.svg through part_5.svg with named groups
</metadata>
<g transform="translate(0.000000,68.000000) scale(0.100000,-0.100000)" fill="#000000" stroke="none">
<g id="part-0" class="char-part">
  <path d="M487 573 c-16 -40 -46 -76 -92 -107 -24 -16 -25 -20 -12 -33 12 -13
21 -13 47 -5 30 11 31 10 24 -11 -9 -30 -41 -74 -62 -87 -16 -9 -15 -9 2 -10
25 0 106 82 106 108 0 12 9 22 23 26 36 9 37 8 37 -38 0 -60 17 -71 104 -71
89 0 99 19 12 23 -78 3 -92 16 -79 69 7 30 14 39 34 41 15 2 32 -5 44 -18 26
-29 47 -26 43 7 -2 20 -14 34 -43 50 -47 27 -74 31 -55 8 15 -19 5 -35 -23
-35 -13 0 -46 -6 -75 -14 -29 -7 -55 -10 -57 -5 -3 4 15 29 40 56 48 51 54 67
29 77 -27 10 -31 7 -47 -31z"/>
  <path d="M226 563 c12 -53 9 -291 -5 -396 -10 -78 -10 -92 4 -113 38 -58 55
-11 55 155 0 71 3 143 6 160 l7 32 28 -27 c21 -20 32 -25 40 -17 19 19 5 48
-34 66 l-38 18 7 68 6 68 -32 12 c-50 17 -53 15 -44 -26z"/>
  <path d="M125 367 c-29 -50 -33 -92 -9 -101 22 -9 41 9 54 50 12 35 5 94 -10
94 -5 0 -21 -20 -35 -43z"/>
  <path d="M480 314 c-7 -20 -32 -60 -56 -90 -43 -53 -44 -74 -2 -34 12 11 24
20 27 20 10 0 71 -57 71 -66 0 -11 -83 -51 -123 -60 -30 -7 -47 -24 -23 -24
19 0 99 26 144 47 31 15 33 15 76 -21 42 -34 48 -36 113 -35 78 2 136 13 113
22 -8 3 -35 10 -60 16 -129 28 -181 52 -165 74 6 8 25 36 43 62 18 27 31 54
27 63 -5 15 -24 14 -125 -4 l-35 -7 23 26 c24 25 24 25 4 36 -32 17 -40 14
-52 -25z m110 -60 c0 -25 -31 -84 -44 -84 -6 0 -26 13 -45 29 -38 31 -35 51 7
51 15 0 34 5 42 10 23 15 40 12 40 -6z"/>
</g>
<g id="part-1" class="char-part">
  <path d="M225 590 c-3 -5 -1 -20 6 -32 14 -26 6 -372 -10 -426 -12 -41 4 -94
28 -90 21 4 29 65 30 236 1 72 4 132 7 132 3 0 15 -11 26 -25 20 -26 42 -32
53 -15 9 15 -13 39 -52 55 -27 12 -33 18 -28 37 3 13 6 43 7 67 3 41 1 45 -29
57 -20 9 -34 10 -38 4z"/>
  <path d="M132 368 c-31 -49 -38 -86 -18 -94 22 -9 44 12 55 52 10 35 5 74 -9
74 -5 0 -17 -15 -28 -32z"/>
</g>
<g id="part-2" class="char-part">
  <path d="M485 570 c-17 -39 -75 -100 -94 -100 -13 0 -20 -25 -11 -39 5 -10 37
-5 138 20 l132 33 23 -22 c27 -25 47 -29 47 -8 0 30 -14 47 -51 66 -50 26 -63
26 -49 0 12 -23 13 -23 -74 -39 -90 -17 -94 -15 -60 22 56 61 65 74 58 91 -11
30 -40 18 -59 -24z"/>
</g>
<g id="part-3" class="char-part">
  <path d="M573 463 c-8 -3 -13 -23 -13 -49 0 -61 25 -76 116 -72 87 4 86 21 0
28 -80 6 -91 15 -78 64 11 37 6 42 -25 29z"/>
  <path d="M452 413 c-5 -16 -24 -43 -43 -60 -27 -28 -30 -33 -13 -33 31 1 104
75 104 106 0 26 -38 15 -48 -13z"/>
</g>
<g id="part-4" class="char-part">
  <path d="M556 286 c-27 -7 -51 -17 -54 -24 -5 -15 1 -15 49 0 22 6 42 9 45 6
6 -7 -37 -98 -47 -98 -3 0 -23 11 -44 25 -49 34 -57 24 -15 -19 l33 -35 -34
-20 c-19 -12 -50 -26 -69 -32 -60 -18 -63 -19 -59 -23 8 -8 99 14 143 34 l45
22 47 -36 c41 -32 54 -36 103 -35 68 0 142 14 121 22 -8 3 -46 12 -85 21 -79
19 -145 45 -145 58 0 5 18 34 41 64 60 82 43 98 -75 70z"/>
</g>
</g>
</svg>