<?xml version="1.0" standalone="no"?>
<!DOCTYPE svg PUBLIC "-//W3C//DTD SVG 20010904//EN"
 "http://www.w3.org/TR/2001/REC-SVG-20010904/DTD/svg10.dtd">
<svg version="1.0" xmlns="http://www.w3.org/2000/svg"
 width="96.000000pt" height="68.000000pt" viewBox="0 0 96.000000 68.000000"
 preserveAspectRatio="xMidYMid meet">
<metadata>
Created by potrace 1.16, written by Peter Selinger 2001-2019
Combined from part_0.svg through part_5.svg with named groups
</metadata>
<g transform="translate(0.000000,68.000000) scale(0.100000,-0.100000)" fill="#000000" stroke="none">
<g id="part-0" class="char-part">
  <path d="M640 574 c0 -27 -5 -37 -20 -41 -23 -6 -27 -23 -6 -23 12 0 13 -6 4
-31 -15 -45 -4 -45 25 0 25 37 30 40 79 43 60 3 64 23 5 23 -34 0 -37 2 -32
22 4 16 -1 25 -14 33 -33 17 -41 12 -41 -26z"/>
  <path d="M440 561 c0 -6 5 -13 10 -16 6 -3 10 -15 10 -26 0 -16 -7 -19 -47
-19 -45 -1 -47 -2 -28 -15 13 -10 30 -13 53 -9 29 6 38 3 53 -17 l19 -24 0 33
c0 26 4 32 21 32 11 0 18 4 15 9 -3 5 -15 7 -26 4 -16 -4 -20 0 -20 20 0 24
-16 37 -46 37 -8 0 -14 -4 -14 -9z"/>
  <path d="M265 530 c-11 -5 -48 -9 -83 -9 -35 -1 -62 -4 -60 -8 18 -38 29 -65
40 -103 12 -43 15 -45 46 -42 29 3 32 1 32 -25 0 -15 3 -58 6 -94 6 -66 6 -66
-21 -73 -15 -4 -30 -5 -32 -2 -3 3 -6 33 -7 68 -1 61 -2 63 -28 66 -20 2 -26
-1 -23 -10 3 -7 9 -41 13 -75 l9 -63 -38 0 c-30 0 -37 -3 -33 -15 9 -22 65
-35 89 -20 11 6 62 27 113 45 87 31 136 60 81 48 -13 -3 -39 -9 -56 -13 l-33
-7 0 45 c0 47 9 57 55 57 13 0 27 5 30 10 7 11 -3 13 -53 10 -32 -2 -33 0 -30
32 4 28 9 34 32 36 20 3 26 8 22 19 -3 8 3 35 14 60 15 35 17 49 9 59 -13 15
-63 17 -94 4z m25 -69 c0 -32 -4 -40 -22 -45 -52 -14 -65 -8 -76 33 -9 38 -9
40 17 44 76 12 81 10 81 -32z"/>
  <path d="M549 444 c-1 -5 0 -21 1 -36 1 -25 -2 -28 -28 -28 -58 0 -70 -15 -17
-20 45 -5 50 -8 53 -32 3 -29 2 -29 -138 -44 -56 -6 -62 -8 -42 -17 17 -8 48
-7 109 2 47 6 87 11 88 9 8 -7 -139 -99 -219 -137 -48 -24 -86 -45 -83 -47 5
-6 119 37 180 68 20 10 38 15 38 11 1 -5 2 -37 3 -73 1 -53 4 -64 16 -60 8 2
43 6 77 8 54 3 63 1 75 -17 16 -26 44 -27 57 -3 5 10 7 55 4 100 -7 102 -17
110 -105 92 -32 -7 -61 -10 -64 -8 -3 3 21 22 53 42 48 30 66 36 114 36 66 0
119 9 119 21 0 12 -39 15 -90 8 -25 -4 -48 -4 -53 0 -4 4 13 22 38 41 47 35
53 48 33 68 -16 16 -48 15 -48 -1 0 -7 -6 -22 -14 -32 -12 -16 -16 -17 -30 -6
-10 8 -28 11 -46 7 -27 -5 -30 -3 -30 19 0 14 -4 25 -9 25 -5 0 -16 3 -25 6
-9 3 -16 2 -17 -2z m97 -109 c-42 -37 -56 -37 -56 0 0 24 15 31 70 33 24 1 23
-1 -14 -33z m26 -145 c4 -30 1 -35 -22 -36 -14 0 -46 -4 -72 -9 -47 -7 -48 -7
-48 18 0 20 6 27 28 30 55 8 112 7 114 -3z m6 -91 c-3 -22 -9 -24 -76 -29 -41
-3 -76 -2 -77 1 -2 3 -2 15 1 26 5 17 18 22 72 30 74 10 85 6 80 -28z"/>
</g>
<g id="part-1" class="char-part">
  <path d="M255 524 c-27 -8 -69 -13 -92 -12 -47 3 -49 2 -29 -21 8 -9 20 -38
28 -66 7 -27 18 -50 23 -50 6 1 40 5 78 9 61 8 67 10 67 32 0 13 8 40 17 60
17 35 17 36 -2 50 -22 17 -25 16 -90 -2z m43 -50 c4 -39 -15 -61 -60 -69 -36
-7 -37 -7 -48 35 -6 23 -9 45 -5 48 6 7 85 20 100 17 6 -1 11 -15 13 -31z"/>
</g>
<g id="part-2" class="char-part">
  <path d="M265 189 c-55 -16 -119 -29 -142 -29 -33 0 -41 -3 -37 -14 10 -26 62
-37 94 -21 16 8 68 29 115 46 47 17 88 35 91 40 8 14 -12 10 -121 -22z"/>
</g>
<g id="part-3" class="char-part">
  <path d="M640 574 c0 -27 -5 -37 -20 -41 -21 -6 -28 -23 -9 -23 8 0 9 -13 4
-37 l-6 -38 31 42 c29 39 35 42 83 45 63 4 69 22 9 26 -37 3 -42 6 -37 22 4
13 -1 22 -14 29 -33 18 -41 13 -41 -25z"/>
  <path d="M440 561 c0 -5 5 -13 10 -16 6 -3 10 -15 10 -26 0 -16 -7 -19 -47
-19 -45 -1 -47 -2 -28 -16 14 -10 31 -13 57 -9 31 6 37 3 43 -14 10 -31 25
-25 25 9 0 24 4 30 23 31 21 1 21 1 -3 8 -15 4 -27 16 -30 31 -4 18 -14 26
-33 28 -15 2 -27 -1 -27 -7z"/>
</g>
<g id="part-4" class="char-part">
  <path d="M549 442 c-1 -4 0 -19 1 -33 1 -24 -3 -27 -47 -35 l-48 -8 50 -6 c46
-5 50 -7 53 -32 5 -38 32 -37 32 1 0 31 14 41 61 41 16 0 29 4 29 9 0 14 -29
22 -56 15 -14 -4 -25 -2 -25 5 -1 6 -2 16 -3 22 -1 13 -45 32 -47 21z"/>
</g>
<g id="part-5" class="char-part">
  <path d="M659 214 c-9 -11 -8 -14 4 -14 19 0 28 -22 17 -40 -5 -8 -6 -19 -2
-25 10 -15 12 -38 6 -57 -4 -14 -15 -16 -64 -13 -33 2 -61 1 -64 -3 -2 -4 19
-8 47 -9 70 -2 67 -1 67 -19 0 -8 5 -12 10 -9 6 3 10 1 10 -6 0 -8 4 -8 15 1
22 18 20 99 -2 116 -14 11 -15 13 -2 9 12 -5 16 1 16 28 0 39 -37 66 -58 41z"/>
  <path d="M620 210 c-13 -8 -12 -10 3 -10 9 0 17 5 17 10 0 12 -1 12 -20 0z"/>
  <path d="M506 165 c-3 -8 -1 -15 4 -15 6 0 10 7 10 15 0 8 -2 15 -4 15 -2 0
-6 -7 -10 -15z"/>
  <path d="M600 140 c-13 -9 -13 -10 0 -10 8 0 22 5 30 10 13 9 13 10 0 10 -8 0
-22 -5 -30 -10z"/>
  <path d="M500 120 c0 -11 5 -20 11 -20 6 0 8 7 5 16 -3 8 -2 12 4 9 6 -3 10
-1 10 4 0 6 -7 11 -15 11 -8 0 -15 -9 -15 -20z"/>
  <path d="M545 130 c-3 -5 -1 -10 4 -10 6 0 11 5 11 10 0 6 -2 10 -4 10 -3 0
-8 -4 -11 -10z"/>
  <path d="M498 83 c7 -3 16 -2 19 1 4 3 -2 6 -13 5 -11 0 -14 -3 -6 -6z"/>
  <path d="M506 55 c-3 -8 -1 -15 4 -15 6 0 10 7 10 15 0 8 -2 15 -4 15 -2 0 -6
-7 -10 -15z"/>
</g>
</g>
</svg>