<?xml version="1.0" standalone="no"?>
<!DOCTYPE svg PUBLIC "-//W3C//DTD SVG 20010904//EN"
 "http://www.w3.org/TR/2001/REC-SVG-20010904/DTD/svg10.dtd">
<svg version="1.0" xmlns="http://www.w3.org/2000/svg"
 width="96.000000pt" height="68.000000pt" viewBox="0 0 96.000000 68.000000"
 preserveAspectRatio="xMidYMid meet">
<metadata>
Created by potrace 1.16, written by Peter Selinger 2001-2019
Combined from part_0.svg through part_5.svg with named groups
</metadata>
<g transform="translate(0.000000,68.000000) scale(0.100000,-0.100000)" fill="#000000" stroke="none">
<g id="part-0" class="char-part">
  <path d="M577 577 c5 -67 -7 -92 -44 -85 -14 3 -17 11 -15 46 3 32 0 42 -11
42 -9 0 -23 3 -33 7 -15 5 -16 0 -12 -45 5 -55 0 -62 -48 -62 -15 0 -23 -4
-19 -11 4 -6 21 -9 38 -7 30 3 32 1 35 -34 l3 -37 -58 -3 -58 -3 3 -36 c3 -27
-2 -42 -18 -57 -18 -17 -19 -20 -5 -32 12 -10 24 -10 60 0 25 7 48 10 52 6 12
-12 -18 -85 -53 -132 -19 -25 -34 -48 -32 -49 2 -2 18 8 36 22 42 32 79 90 87
137 7 35 9 36 51 36 l44 0 0 -121 c0 -92 3 -120 13 -117 15 6 25 70 26 171 l1
77 33 1 c17 1 46 3 63 4 50 5 60 -7 45 -54 -12 -42 -17 -45 -61 -41 -22 2 -23
0 -10 -16 37 -46 45 -54 53 -54 14 0 57 52 57 69 0 9 9 34 20 56 25 49 25 49
-5 63 -16 8 -48 8 -102 2 -43 -5 -82 -5 -86 -1 -5 5 -7 21 -5 37 3 28 6 29 63
34 55 5 60 7 64 30 1 14 12 37 22 52 19 27 19 27 -1 38 -12 6 -44 8 -85 4
l-65 -7 6 60 c6 57 5 60 -17 66 -13 4 -27 7 -30 7 -4 0 -4 -28 -2 -63z m143
-104 c-1 -30 -24 -51 -60 -55 -31 -3 -35 0 -37 22 -3 43 4 50 52 50 36 0 45
-3 45 -17z m-142 -39 c-3 -25 -7 -29 -33 -29 -26 0 -30 4 -33 32 -3 28 0 32
25 35 37 5 45 -3 41 -38z m2 -89 c0 -19 -3 -35 -7 -36 -5 0 -20 -2 -35 -4 -34
-4 -40 4 -32 44 6 27 11 31 40 31 32 0 34 -2 34 -35z m-116 -2 c-10 -49 -13
-53 -38 -53 -31 0 -35 7 -29 48 5 29 9 32 39 32 32 0 34 -2 28 -27z"/>
  <path d="M284 564 c-19 -61 -49 -106 -132 -202 -30 -34 -52 -65 -49 -69 8 -8
50 20 105 71 l45 41 -7 -110 c-3 -60 -8 -128 -11 -150 -6 -48 15 -85 38 -67
19 16 34 342 16 353 -9 5 1 28 34 80 44 68 46 74 30 91 -30 33 -50 23 -69 -38z"/>
</g>
<g id="part-1" class="char-part">
  <path d="M290 568 c-18 -61 -50 -113 -120 -191 -33 -37 -60 -70 -60 -73 0 -11
47 22 92 64 36 33 49 41 53 30 3 -8 1 -66 -6 -129 -14 -145 -14 -168 0 -182
26 -26 36 13 42 171 5 120 3 160 -7 171 -10 11 -4 26 33 82 38 57 44 71 33 84
-23 28 -46 18 -60 -27z"/>
</g>
<g id="part-2" class="char-part">
  <path d="M454 573 c13 -49 17 -187 6 -258 -14 -93 -37 -149 -80 -199 -47 -53
-14 -44 40 12 59 61 78 122 90 282 5 69 12 133 16 143 4 12 -1 19 -21 27 -40
15 -57 13 -51 -7z"/>
</g>
<g id="part-3" class="char-part">
  <path d="M578 344 c1 -164 5 -300 8 -303 10 -11 23 23 28 78 3 31 7 160 8 286
l3 230 -25 3 -25 3 3 -297z"/>
</g>
<g id="part-4" class="char-part">
  <path d="M625 505 c-44 -7 -115 -16 -159 -20 -49 -4 -75 -10 -69 -16 6 -6 59
-4 142 6 171 19 181 19 181 -3 0 -42 -21 -52 -145 -67 -65 -8 -143 -15 -171
-15 l-52 0 5 -38 c4 -28 1 -43 -12 -55 -25 -25 -12 -51 23 -43 146 32 366 53
391 37 10 -6 12 -19 7 -44 -8 -45 -26 -60 -62 -51 l-27 7 29 -37 c16 -20 32
-36 35 -36 19 0 49 41 64 87 9 29 21 55 26 58 5 4 9 12 9 20 0 29 -53 32 -249
13 -107 -10 -196 -16 -198 -14 -2 2 -1 20 2 39 7 34 8 34 68 41 34 3 112 9
174 13 62 3 110 10 107 15 -3 5 6 29 20 54 l25 45 -25 9 c-29 12 -33 11 -139
-5z"/>
</g>
</g>
</svg>