<?xml version="1.0" standalone="no"?>
<!DOCTYPE svg PUBLIC "-//W3C//DTD SVG 20010904//EN"
 "http://www.w3.org/TR/2001/REC-SVG-20010904/DTD/svg10.dtd">
<svg version="1.0" xmlns="http://www.w3.org/2000/svg"
 width="96.000000pt" height="68.000000pt" viewBox="0 0 96.000000 68.000000"
 preserveAspectRatio="xMidYMid meet">
<metadata>
Created by potrace 1.16, written by Peter Selinger 2001-2019
Combined from part_0.svg through part_5.svg with named groups
</metadata>
<g transform="translate(0.000000,68.000000) scale(0.100000,-0.100000)" fill="#000000" stroke="none">
<g id="part-0" class="char-part">
  <path d="M609 623 c0 -5 0 -34 1 -65 1 -52 -1 -58 -18 -58 -11 0 -27 -3 -36
-6 -13 -5 -16 1 -16 30 0 29 -5 38 -22 45 -31 12 -39 5 -28 -25 16 -41 12 -51
-22 -60 l-33 -8 33 -3 c29 -4 32 -7 32 -38 0 -37 -12 -45 -66 -45 -32 0 -33
-1 -27 -30 4 -21 -1 -42 -13 -66 -16 -29 -17 -36 -5 -43 8 -6 25 -5 38 0 14 5
33 9 43 9 16 0 17 -4 11 -28 -11 -38 -47 -107 -66 -126 -14 -14 -15 -16 -1
-16 22 0 82 83 101 141 16 48 18 49 56 49 l39 0 0 -124 c0 -73 4 -127 10 -131
16 -10 22 18 29 143 l6 117 58 3 58 3 -3 -38 c-3 -36 -5 -38 -42 -41 l-38 -3
28 -30 c30 -31 55 -37 71 -16 12 15 56 138 51 141 -22 19 -55 24 -116 19 l-72
-6 0 37 0 36 50 0 c44 0 50 2 50 21 0 11 9 34 21 51 21 28 21 30 3 44 -14 10
-33 13 -66 9 l-48 -6 0 49 c0 26 -5 53 -12 60 -13 13 -38 16 -39 5z m111 -152
c0 -36 -12 -51 -40 -51 -29 0 -30 3 -21 63 0 4 15 7 31 7 23 0 30 -5 30 -19z
m-112 -27 c3 -26 -1 -33 -20 -38 -42 -11 -48 -7 -48 28 0 36 11 46 45 43 15
-1 21 -10 23 -33z m-110 -100 c3 -34 -19 -60 -43 -50 -15 5 -14 26 1 74 8 26
39 8 42 -24z m110 2 c1 -31 -2 -35 -28 -41 -35 -8 -50 0 -50 25 0 37 12 50 44
50 30 0 33 -3 34 -34z"/>
  <path d="M264 578 c3 -24 8 -64 11 -89 l6 -47 -61 -7 c-77 -9 -75 -29 3 -33
48 -3 57 -6 57 -22 0 -28 -18 -70 -30 -70 -24 0 -160 -65 -157 -75 8 -22 57
-30 85 -14 15 9 38 22 52 30 14 8 28 19 32 24 11 14 9 -97 -1 -114 -6 -9 -18
-11 -35 -7 -36 9 -33 -4 15 -49 l40 -40 20 24 c16 19 19 39 19 121 l0 98 38
24 c27 16 32 24 20 26 -9 2 -26 -2 -38 -8 -20 -11 -21 -9 -18 27 3 35 6 38 41
44 20 3 40 9 44 13 11 11 -18 26 -51 26 -27 0 -28 2 -23 38 3 20 8 49 12 64 6
23 3 29 -23 42 -53 27 -64 22 -58 -26z"/>
</g>
<g id="part-1" class="char-part">
  <path d="M265 593 c4 -10 9 -47 12 -82 7 -70 0 -80 -52 -81 -16 0 -37 -5 -45
-10 -11 -7 2 -10 43 -10 l58 0 -3 -47 -3 -47 -87 -34 c-49 -19 -88 -38 -88
-43 0 -5 11 -14 24 -20 23 -11 51 1 128 54 26 17 30 5 22 -62 -6 -59 -7 -61
-36 -61 l-30 0 29 -34 c57 -69 83 -35 83 109 0 52 3 95 8 95 4 0 18 10 32 21
24 20 19 20 -22 4 -15 -6 -18 -1 -18 33 0 38 1 40 40 46 64 10 50 32 -17 26
-28 -2 -30 24 -8 85 19 52 19 50 -10 63 -40 18 -69 16 -60 -5z"/>
</g>
<g id="part-2" class="char-part">
  <path d="M486 563 c13 -32 16 -224 4 -287 -12 -63 -48 -142 -76 -170 -9 -9
-14 -20 -10 -23 3 -4 24 12 45 35 58 61 79 126 89 289 9 131 8 139 -11 156
-10 9 -26 17 -34 17 -11 0 -13 -5 -7 -17z"/>
</g>
<g id="part-3" class="char-part">
  <path d="M608 338 c1 -161 4 -299 7 -306 3 -7 9 -11 14 -8 13 8 20 113 26 355
3 112 7 207 10 211 7 12 -23 40 -43 40 -16 0 -17 -24 -14 -292z"/>
</g>
<g id="part-4" class="char-part">
  <path d="M630 505 c-41 -8 -95 -14 -120 -15 -25 0 -52 -5 -60 -10 -21 -13 50
-13 163 1 108 13 120 10 106 -29 -9 -28 -12 -29 -132 -45 -67 -10 -140 -17
-162 -17 -30 0 -36 -3 -27 -12 18 -18 14 -62 -8 -91 -16 -21 -17 -27 -6 -36
10 -8 21 -9 42 0 50 18 125 30 237 36 l107 6 0 -27 c0 -15 -4 -36 -10 -46 -8
-16 -15 -17 -42 -9 -18 5 -35 9 -37 9 -3 0 10 -16 29 -35 55 -57 74 -47 112
60 22 64 23 61 -11 73 -26 9 -88 5 -324 -23 l-48 -6 7 38 c4 21 11 41 17 45 6
3 67 9 136 13 138 7 164 12 155 26 -3 5 4 26 16 46 12 21 17 40 12 45 -16 16
-75 17 -152 3z"/>
</g>
</g>
</svg>