<?xml version="1.0" standalone="no"?>
<!DOCTYPE svg PUBLIC "-//W3C//DTD SVG 20010904//EN"
 "http://www.w3.org/TR/2001/REC-SVG-20010904/DTD/svg10.dtd">
<svg version="1.0" xmlns="http://www.w3.org/2000/svg"
 width="96.000000pt" height="68.000000pt" viewBox="0 0 96.000000 68.000000"
 preserveAspectRatio="xMidYMid meet">
<metadata>
Created by potrace 1.16, written by Peter Selinger 2001-2019
Combined from part_0.svg through part_5.svg with named groups
</metadata>
<g transform="translate(0.000000,68.000000) scale(0.100000,-0.100000)" fill="#000000" stroke="none">
<g id="part-0" class="char-part">
  <path d="M295 554 c-25 -9 -55 -12 -80 -8 l-41 6 4 -114 c5 -131 -8 -212 -44
-281 -29 -57 -25 -71 12 -36 28 26 57 78 68 121 4 19 11 25 24 21 11 -2 31 6
49 21 17 14 34 26 37 26 8 0 8 -65 0 -124 l-7 -46 -41 6 -41 5 45 -40 c52 -46
50 -46 76 -27 17 13 19 32 25 233 6 208 5 219 -14 236 -22 20 -20 20 -72 1z
m25 -75 l0 -41 -37 7 c-48 9 -53 12 -53 35 0 23 26 39 63 40 25 0 27 -3 27
-41z m-46 -80 c15 -11 33 -18 41 -15 10 4 15 -1 15 -15 0 -14 -13 -25 -46 -39
-25 -11 -48 -20 -50 -20 -2 0 -4 25 -4 55 0 30 4 55 9 55 4 0 20 -9 35 -21z"/>
  <path d="M645 519 c-27 -5 -92 -10 -142 -11 -93 -3 -105 -8 -79 -33 7 -7 20
-53 29 -101 9 -47 19 -89 22 -92 3 -4 15 -1 25 6 11 7 30 12 43 12 22 0 25 -5
31 -61 3 -34 6 -97 6 -140 0 -44 4 -79 10 -79 17 0 30 74 30 178 l0 102 50 0
c28 0 50 -4 50 -10 0 -18 29 -10 41 12 6 11 25 62 41 112 27 85 28 91 12 103
-20 14 -93 15 -169 2z m105 -49 c0 -40 0 -40 -40 -42 -22 -1 -48 -2 -57 -2
-13 -1 -18 7 -18 27 0 15 -7 32 -15 37 -10 6 -1 10 30 13 107 9 100 11 100
-33z m-180 -19 c0 -38 -1 -39 -41 -43 -36 -3 -42 -1 -50 20 -19 48 -10 57 64
61 25 1 27 -2 27 -38z m167 -77 c-3 -20 -7 -38 -9 -39 -2 -2 -25 -5 -53 -6
l-50 -3 0 34 c0 32 3 36 35 41 79 14 83 13 77 -27z m-167 -22 l0 -39 -37 6
c-34 6 -38 10 -41 39 -3 31 -2 32 37 32 41 0 41 0 41 -38z"/>
</g>
<g id="part-1" class="char-part">
  <path d="M290 549 c-14 -6 -44 -9 -68 -8 l-43 3 -2 -160 c-2 -153 -3 -162 -30
-213 -31 -60 -27 -80 8 -39 19 22 44 78 61 136 2 8 11 11 24 7 13 -4 31 3 55
21 l35 26 0 -85 c0 -91 -9 -111 -45 -96 -38 15 -39 9 -5 -26 41 -42 65 -44 84
-7 21 41 26 430 5 443 -18 11 -47 10 -79 -2z m40 -70 c0 -40 -3 -50 -14 -46
-8 3 -31 9 -50 13 -31 5 -36 10 -36 34 0 30 26 48 73 49 26 1 27 -1 27 -50z
m-21 -86 c18 4 21 0 21 -23 0 -23 -7 -31 -40 -44 -72 -29 -80 -20 -63 77 l6
38 28 -27 c19 -18 35 -25 48 -21z"/>
</g>
<g id="part-2" class="char-part">
  <path d="M749 536 c-10 -10 -285 -36 -316 -30 l-34 6 24 -45 c14 -25 28 -72
32 -104 4 -32 11 -66 16 -75 8 -15 12 -15 37 -2 34 18 208 20 214 2 11 -31 38
10 72 108 30 88 35 109 24 119 -14 13 -62 27 -69 21z m-1 -68 c3 -38 3 -38
-35 -38 -21 0 -49 -3 -62 -7 -23 -6 -24 -4 -18 26 5 25 3 33 -11 39 -12 5 -3
9 28 13 85 12 95 8 98 -33z m-178 -17 l0 -39 -45 -4 c-25 -2 -45 0 -45 3 0 4
-3 20 -6 37 -7 32 2 37 69 41 25 1 27 -2 27 -38z m165 -78 c-9 -50 -7 -49 -62
-48 -46 1 -48 2 -51 33 -3 26 1 32 20 36 103 22 101 23 93 -21z m-165 -18 c0
-33 -2 -35 -34 -35 -35 0 -46 13 -46 51 0 16 7 19 40 19 39 0 40 -1 40 -35z"/>
</g>
<g id="part-3" class="char-part">
  <path d="M578 288 c-8 -21 4 -268 12 -268 16 0 23 39 28 158 4 117 4 122 -16
122 -11 0 -22 -6 -24 -12z"/>
</g>
</g>
</svg>