<?xml version="1.0" standalone="no"?>
<!DOCTYPE svg PUBLIC "-//W3C//DTD SVG 20010904//EN"
 "http://www.w3.org/TR/2001/REC-SVG-20010904/DTD/svg10.dtd">
<svg version="1.0" xmlns="http://www.w3.org/2000/svg"
 width="96.000000pt" height="68.000000pt" viewBox="0 0 96.000000 68.000000"
 preserveAspectRatio="xMidYMid meet">
<metadata>
Created by potrace 1.16, written by Peter Selinger 2001-2019
Combined from part_0.svg through part_5.svg with named groups
</metadata>
<g transform="translate(0.000000,68.000000) scale(0.100000,-0.100000)" fill="#000000" stroke="none">
<g id="part-0" class="char-part">
  <path d="M441 558 c5 -18 9 -45 9 -60 0 -23 -5 -27 -40 -33 -52 -9 -52 -25 1
-25 38 0 40 -1 37 -27 -3 -27 -6 -28 -61 -31 -47 -2 -56 -6 -48 -16 6 -7 17
-31 25 -52 11 -34 17 -39 40 -36 44 6 30 -20 -44 -79 -25 -20 -63 -46 -85 -57
-22 -12 -33 -21 -25 -21 21 -1 91 32 137 63 21 14 41 26 45 26 4 0 4 -31 1
-70 -6 -76 7 -111 33 -89 10 8 14 37 14 95 0 46 3 84 6 84 3 0 21 -12 40 -27
25 -19 38 -23 46 -15 19 19 1 39 -46 51 -34 8 -46 16 -46 30 0 15 10 20 50 25
30 4 50 12 50 19 0 7 10 24 22 37 21 22 21 23 2 37 -11 8 -38 13 -66 12 -26
-2 -48 0 -48 4 -1 44 1 46 38 52 79 14 83 29 7 27 l-45 -2 6 39 c7 44 -5 64
-43 69 -20 3 -21 1 -12 -30z m109 -203 c0 -18 -7 -28 -27 -36 -33 -12 -48 1
-39 35 5 21 13 26 36 26 25 0 30 -4 30 -25z m-102 -17 c-2 -28 -8 -34 -30 -36
-20 -2 -28 1 -28 12 0 8 -3 21 -6 29 -5 15 10 23 49 26 15 1 18 -5 15 -31z"/>
  <path d="M758 365 c2 -119 1 -227 -2 -242 -6 -23 -11 -25 -41 -20 -19 3 -35 3
-34 -1 0 -4 21 -24 45 -45 l43 -39 20 34 c18 29 20 44 15 128 -5 89 7 293 21
350 6 22 2 27 -27 38 -19 6 -36 12 -39 12 -2 0 -2 -97 -1 -215z"/>
  <path d="M220 444 c-25 -7 -60 -13 -78 -13 l-33 -1 15 -29 c9 -16 18 -47 22
-70 8 -48 30 -82 41 -64 5 6 32 15 61 19 42 5 52 10 52 25 0 10 9 41 19 69
l19 50 -21 15 c-25 17 -35 17 -97 -1z m40 -63 c0 -40 -20 -71 -45 -71 -18 0
-23 9 -31 58 -6 40 -6 41 27 45 19 2 37 5 42 5 4 1 7 -16 7 -37z"/>
  <path d="M660 321 c0 -63 4 -102 11 -107 20 -12 29 20 29 114 0 85 -1 92 -20
92 -19 0 -20 -7 -20 -99z"/>
</g>
<g id="part-1" class="char-part">
  <path d="M230 440 c-14 -4 -46 -8 -73 -9 -47 -1 -47 -1 -33 -24 9 -12 20 -46
26 -75 12 -52 27 -74 39 -54 3 6 28 12 55 14 44 3 49 6 53 28 1 14 10 45 19
69 14 36 14 45 3 52 -17 10 -55 10 -89 -1z m34 -67 c-7 -51 -16 -63 -50 -63
-17 0 -24 9 -33 47 -14 54 -7 63 52 63 l38 0 -7 -47z"/>
</g>
<g id="part-2" class="char-part">
  <path d="M434 573 c4 -9 10 -36 13 -59 l5 -41 -48 -8 c-53 -8 -44 -25 14 -25
l32 0 0 -60 c0 -33 -6 -75 -13 -93 -18 -41 -82 -99 -148 -132 -28 -15 -48 -29
-45 -32 9 -10 93 27 147 63 l50 35 -8 -53 c-9 -69 -8 -95 7 -113 10 -12 16
-13 26 -4 10 8 14 37 14 95 0 46 3 84 6 84 3 0 19 -11 36 -25 35 -30 58 -32
58 -5 0 14 -13 24 -50 37 -56 20 -57 23 -44 151 6 58 8 61 38 67 17 4 39 9 50
12 33 9 -5 23 -47 16 l-38 -6 7 42 c8 48 -6 71 -43 71 -20 0 -24 -4 -19 -17z"/>
</g>
<g id="part-3" class="char-part">
  <path d="M450 410 c0 -30 0 -30 -60 -30 l-59 0 15 -27 c8 -16 19 -40 24 -55 8
-24 13 -27 40 -22 23 5 30 3 30 -10 0 -23 37 -20 43 4 4 14 14 20 34 20 43 0
72 11 67 24 -3 7 4 21 16 31 11 10 20 22 20 26 0 17 -46 32 -87 30 -37 -2 -43
1 -43 19 0 13 -7 20 -20 20 -16 0 -20 -7 -20 -30z m100 -44 c0 -32 -13 -46
-41 -46 -24 0 -29 4 -29 23 0 31 7 37 42 37 17 0 28 -5 28 -14z m-102 -28 c-2
-25 -8 -34 -25 -36 -17 -3 -26 4 -33 24 -12 31 -1 44 38 44 20 0 23 -4 20 -32z"/>
</g>
<g id="part-4" class="char-part">
  <path d="M755 343 l0 -238 -37 0 -37 0 41 -42 c23 -24 45 -43 49 -43 21 0 30
73 34 262 3 165 7 212 20 237 l16 32 -35 14 c-20 8 -39 15 -43 15 -4 0 -8
-107 -8 -237z"/>
</g>
</g>
</svg>