<?xml version="1.0" standalone="no"?>
<!DOCTYPE svg PUBLIC "-//W3C//DTD SVG 20010904//EN"
 "http://www.w3.org/TR/2001/REC-SVG-20010904/DTD/svg10.dtd">
<svg version="1.0" xmlns="http://www.w3.org/2000/svg"
 width="96.000000pt" height="68.000000pt" viewBox="0 0 96.000000 68.000000"
 preserveAspectRatio="xMidYMid meet">
<metadata>
Created by potrace 1.16, written by Peter Selinger 2001-2019
Combined from part_0.svg through part_5.svg with named groups
</metadata>
<g transform="translate(0.000000,68.000000) scale(0.100000,-0.100000)" fill="#000000" stroke="none">
<g id="part-0" class="char-part">
  <path d="M495 588 l0 -53 -53 -3 c-66 -4 -59 -22 9 -22 45 0 49 -2 49 -24 0
-23 -5 -25 -65 -31 -35 -4 -71 -5 -80 -1 -19 7 -19 -1 -1 -20 8 -7 21 -43 29
-80 17 -72 24 -85 36 -65 12 19 75 10 79 -12 7 -35 -17 -47 -92 -48 -89 0
-159 -13 -134 -23 24 -11 81 -11 161 -2 l67 9 0 -91 c0 -84 9 -118 25 -92 4 6
10 50 13 98 l7 87 133 3 c132 3 160 12 105 33 -17 6 -65 8 -128 3 -55 -4 -102
-6 -105 -5 -3 0 -5 13 -5 29 0 26 2 27 54 27 60 0 68 7 106 108 16 42 16 50 4
58 -19 12 -101 11 -133 -1 -24 -9 -26 -7 -26 19 0 27 3 29 55 36 72 9 72 28 0
23 l-55 -3 0 41 c0 40 -12 53 -50 54 -3 0 -6 -24 -5 -52z m153 -155 c-3 -26
-6 -28 -52 -28 -40 0 -50 3 -52 18 -3 21 26 35 74 36 31 1 33 -1 30 -26z
m-150 -15 c-3 -20 -10 -23 -50 -26 -41 -3 -48 -1 -48 16 0 27 8 32 57 32 40 0
44 -2 41 -22z m138 -50 c-3 -13 -6 -27 -6 -31 0 -5 -19 -7 -42 -5 -35 2 -43 7
-43 23 0 15 9 22 35 26 61 11 63 11 56 -13z m-138 -20 c-2 -18 -10 -24 -39
-26 -32 -3 -37 0 -41 22 -5 25 -3 26 39 26 40 0 44 -2 41 -22z"/>
  <path d="M225 542 c-16 -8 -44 -15 -61 -14 -32 1 -32 1 -23 -28 7 -19 8 -82 1
-187 -9 -157 -4 -209 21 -201 9 3 13 55 17 191 3 102 8 187 10 189 12 9 63 28
66 25 2 -2 -2 -17 -8 -34 -10 -26 -8 -34 10 -61 29 -40 29 -72 0 -72 l-23 -1
24 -19 c31 -26 60 -25 70 2 7 18 1 31 -25 64 -19 23 -34 45 -34 51 0 5 19 27
41 48 39 36 41 39 23 52 -23 17 -71 15 -109 -5z"/>
</g>
<g id="part-1" class="char-part">
  <path d="M228 540 c-49 -26 -48 -33 3 -25 l41 7 -16 -30 c-29 -57 -15 -57 44
-1 25 24 39 44 33 50 -19 19 -68 19 -105 -1z"/>
</g>
<g id="part-2" class="char-part">
  <path d="M142 491 c7 -27 7 -90 0 -190 -11 -164 -8 -194 17 -189 14 3 17 30
24 197 4 107 6 200 3 208 -3 7 -16 13 -30 13 -23 0 -23 -2 -14 -39z"/>
</g>
<g id="part-3" class="char-part">
  <path d="M495 596 c6 -38 4 -46 -13 -55 -12 -6 -37 -11 -57 -11 -22 0 -34 -4
-30 -10 3 -5 28 -10 56 -10 46 0 49 -1 49 -26 0 -20 4 -25 16 -20 9 3 20 6 25
6 5 0 9 11 9 24 0 21 5 24 63 30 57 7 60 9 42 22 -14 10 -32 13 -62 8 l-43 -6
0 40 c0 40 -11 52 -46 52 -12 0 -14 -9 -9 -44z"/>
</g>
<g id="part-4" class="char-part">
  <path d="M585 475 c-38 -8 -109 -17 -157 -21 -73 -6 -84 -9 -73 -20 7 -8 20
-43 28 -80 17 -71 24 -85 35 -67 5 8 49 13 120 16 62 2 116 8 121 13 9 11 61
132 61 144 0 6 -60 34 -64 29 -1 -1 -32 -7 -71 -14z m65 -44 c0 -27 -2 -28
-49 -29 -44 -1 -49 1 -53 23 -6 28 2 33 60 34 40 1 42 0 42 -28z m-150 -17 c0
-21 -4 -24 -40 -24 -22 0 -43 0 -47 0 -5 0 -8 10 -8 23 0 18 7 23 40 27 50 7
55 5 55 -26z m136 -46 c-3 -13 -6 -26 -6 -30 0 -5 -20 -8 -45 -8 -41 0 -45 2
-45 24 0 21 5 25 38 29 20 2 43 4 51 5 9 1 11 -5 7 -20z m-136 -23 c0 -22 -4
-25 -39 -25 -30 0 -40 4 -44 19 -7 27 0 31 45 31 34 0 38 -3 38 -25z"/>
</g>
<g id="part-5" class="char-part">
  <path d="M506 285 c-3 -9 -6 -25 -6 -36 0 -11 -7 -20 -17 -20 -40 -3 -82 -5
-148 -7 -49 -2 -66 -5 -55 -12 19 -12 117 -13 125 -1 3 5 25 9 50 8 42 -2 45
-4 45 -29 0 -15 4 -38 10 -53 5 -14 6 -24 1 -21 -11 7 -9 -70 2 -80 6 -6 10 7
9 26 -2 37 19 155 29 161 10 7 11 11 3 17 -7 4 -14 18 -15 31 -5 29 -24 38
-33 16z"/>
  <path d="M653 248 c-40 -6 -73 -13 -73 -17 0 -8 187 -12 215 -4 15 5 10 9 -25
19 -25 8 -45 13 -45 13 0 -1 -33 -6 -72 -11z"/>
</g>
</g>
</svg>