<?xml version="1.0" standalone="no"?>
<!DOCTYPE svg PUBLIC "-//W3C//DTD SVG 20010904//EN"
 "http://www.w3.org/TR/2001/REC-SVG-20010904/DTD/svg10.dtd">
<svg version="1.0" xmlns="http://www.w3.org/2000/svg"
 width="96.000000pt" height="68.000000pt" viewBox="0 0 96.000000 68.000000"
 preserveAspectRatio="xMidYMid meet">
<metadata>
Created by potrace 1.16, written by Peter Selinger 2001-2019
Combined from part_0.svg through part_5.svg with named groups
</metadata>
<g transform="translate(0.000000,68.000000) scale(0.100000,-0.100000)" fill="#000000" stroke="none">
<g id="part-0" class="char-part">
  <path d="M439 572 c0 -4 0 -95 1 -202 1 -216 6 -235 60 -263 29 -15 52 -18
135 -14 91 4 155 20 155 37 0 4 -4 20 -9 36 -5 16 -12 43 -16 59 -7 30 -7 30
-26 -22 -11 -28 -27 -54 -36 -57 -9 -4 -48 -9 -87 -12 -119 -9 -148 21 -139
144 5 65 8 72 27 72 29 0 126 26 174 46 l37 15 -23 20 c-24 18 -24 18 -56 -6
-38 -29 -114 -64 -138 -65 -15 0 -17 7 -13 43 17 163 18 154 -15 166 -17 5
-30 7 -31 3z"/>
  <path d="M157 473 c11 -40 5 -305 -7 -317 -17 -17 -11 -50 11 -64 17 -11 28
-9 77 20 181 102 198 129 57 84 -44 -14 -81 -23 -83 -21 -2 2 -1 36 3 74 l7
71 57 1 c68 1 103 10 109 28 4 11 -8 13 -59 8 -35 -3 -73 -8 -83 -13 -17 -7
-18 -3 -14 42 3 27 9 57 13 66 5 12 -1 21 -24 32 -16 9 -39 16 -51 16 -17 0
-19 -4 -13 -27z"/>
</g>
<g id="part-1" class="char-part">
  <path d="M156 483 c14 -29 10 -304 -4 -330 -15 -27 -1 -63 24 -63 9 0 59 26
112 57 114 67 106 62 101 68 -3 2 -41 -7 -84 -20 -107 -33 -106 -33 -100 17
16 116 7 104 86 112 39 3 79 10 88 16 30 16 -15 23 -76 11 -87 -17 -87 -17
-79 32 4 23 9 52 12 64 5 17 -1 25 -25 37 -42 22 -66 21 -55 -1z"/>
</g>
<g id="part-2" class="char-part">
  <path d="M438 370 c4 -227 7 -241 67 -266 58 -24 263 -12 280 16 5 8 -20 118
-28 127 -2 2 -9 -14 -15 -35 -19 -64 -40 -75 -137 -76 -73 -1 -87 2 -106 20
-21 22 -24 41 -21 132 1 32 7 54 15 56 6 2 58 16 115 31 102 28 122 43 80 62
-17 7 -30 3 -67 -21 -47 -32 -127 -63 -136 -54 -3 3 -1 47 5 97 6 51 8 96 5
101 -2 4 -17 10 -32 12 l-28 4 3 -206z"/>
</g>
</g>
</svg>