<?xml version="1.0" standalone="no"?>
<!DOCTYPE svg PUBLIC "-//W3C//DTD SVG 20010904//EN"
 "http://www.w3.org/TR/2001/REC-SVG-20010904/DTD/svg10.dtd">
<svg version="1.0" xmlns="http://www.w3.org/2000/svg"
 width="96.000000pt" height="68.000000pt" viewBox="0 0 96.000000 68.000000"
 preserveAspectRatio="xMidYMid meet">
<metadata>
Created by potrace 1.16, written by Peter Selinger 2001-2019
Combined from part_0.svg through part_5.svg with named groups
</metadata>
<g transform="translate(0.000000,68.000000) scale(0.100000,-0.100000)" fill="#000000" stroke="none">
<g id="part-0" class="char-part">
  <path d="M534 598 c-9 -18 -30 -48 -47 -65 -17 -18 -28 -35 -26 -38 7 -7 152
70 157 83 4 14 -34 52 -53 52 -8 0 -22 -15 -31 -32z"/>
  <path d="M300 578 c0 -7 16 -30 36 -50 50 -53 77 -51 67 5 -4 20 -15 32 -40
42 -43 18 -63 19 -63 3z"/>
  <path d="M417 470 c-71 -10 -131 -20 -134 -23 -15 -16 15 -27 71 -27 54 0 64
-3 69 -19 8 -30 -4 -38 -70 -46 -80 -9 -72 -27 10 -23 l62 3 3 -37 3 -36 -88
-7 c-108 -8 -125 -12 -100 -26 12 -7 47 -7 107 1 50 6 147 13 218 17 143 6
169 13 123 33 -23 9 -51 10 -118 2 -49 -6 -92 -7 -96 -2 -13 12 -4 52 13 61 8
4 36 11 63 14 69 9 59 27 -13 23 l-61 -3 3 30 c3 29 5 30 73 40 51 7 70 14 70
25 0 21 -55 21 -208 0z"/>
  <path d="M183 130 c-38 -57 -43 -90 -13 -90 21 0 70 64 70 92 0 21 -10 48 -19
47 -3 0 -21 -22 -38 -49z"/>
  <path d="M500 170 c0 -20 51 -90 65 -90 28 0 18 56 -14 79 -32 23 -51 27 -51
11z"/>
  <path d="M666 158 c47 -58 99 -108 111 -108 17 0 17 41 1 62 -21 25 -91 68
-112 68 -19 0 -19 0 0 -22z"/>
  <path d="M359 123 c13 -34 25 -49 40 -51 15 -3 21 2 21 17 0 46 -30 80 -72 81
-4 0 1 -21 11 -47z"/>
</g>
<g id="part-1" class="char-part">
  <path d="M526 575 c-15 -25 -38 -52 -49 -60 -35 -25 -9 -17 60 18 72 35 86 53
58 73 -29 21 -38 17 -69 -31z"/>
  <path d="M310 575 c0 -19 53 -75 71 -75 23 0 27 41 6 59 -17 14 -77 26 -77 16z"/>
  <path d="M525 481 c-16 -5 -78 -14 -137 -21 -60 -7 -108 -17 -108 -22 0 -18
329 8 349 27 16 17 -60 28 -104 16z"/>
</g>
<g id="part-2" class="char-part">
  <path d="M420 396 l0 -34 -72 -7 c-87 -9 -71 -28 20 -23 56 3 57 3 60 -26 2
-16 0 -32 -5 -37 -4 -4 -50 -11 -100 -15 -51 -4 -93 -10 -93 -15 0 -16 41 -20
118 -10 44 6 140 13 213 17 148 7 176 14 139 34 -22 12 -88 10 -192 -7 -37 -5
-38 -4 -38 23 0 43 9 50 74 58 63 7 74 11 62 23 -8 8 -78 7 -107 -2 -16 -5
-19 -2 -19 24 0 28 -3 31 -30 31 -27 0 -30 -3 -30 -34z"/>
</g>
<g id="part-3" class="char-part">
  <path d="M183 130 c-38 -57 -43 -90 -14 -90 38 0 80 76 66 119 -9 30 -16 26
-52 -29z"/>
  <path d="M506 148 c21 -42 55 -79 65 -72 5 3 9 18 9 34 0 32 -39 70 -72 70
-18 0 -18 -2 -2 -32z"/>
  <path d="M702 115 c54 -68 88 -84 88 -42 0 34 -28 67 -74 88 -67 30 -69 23
-14 -46z"/>
  <path d="M340 166 c0 -2 9 -24 20 -50 15 -32 27 -46 40 -46 31 0 21 69 -14 92
-11 8 -46 11 -46 4z"/>
</g>
</g>
</svg>