<?xml version="1.0" standalone="no"?>
<!DOCTYPE svg PUBLIC "-//W3C//DTD SVG 20010904//EN"
 "http://www.w3.org/TR/2001/REC-SVG-20010904/DTD/svg10.dtd">
<svg version="1.0" xmlns="http://www.w3.org/2000/svg"
 width="96.000000pt" height="68.000000pt" viewBox="0 0 96.000000 68.000000"
 preserveAspectRatio="xMidYMid meet">
<metadata>
Created by potrace 1.16, written by Peter Selinger 2001-2019
Combined from part_0.svg through part_5.svg with named groups
</metadata>
<g transform="translate(0.000000,68.000000) scale(0.100000,-0.100000)" fill="#000000" stroke="none">
<g id="part-0" class="char-part">
  <path d="M140 558 c0 -22 66 -80 86 -76 28 5 30 44 2 61 -36 23 -88 32 -88 15z"/>
  <path d="M525 514 c-55 -7 -124 -13 -152 -13 -29 -1 -53 -5 -53 -11 0 -5 4
-10 9 -10 9 0 24 -68 42 -184 12 -82 15 -89 37 -77 9 4 69 11 133 14 116 5
117 5 128 -19 6 -13 18 -24 26 -24 25 0 42 56 58 190 13 112 13 126 -1 138
-19 15 -95 14 -227 -4z m175 -116 c0 -62 -4 -119 -9 -126 -5 -9 -17 -11 -34
-7 -15 4 -74 2 -132 -5 -59 -7 -108 -10 -110 -8 -6 6 -37 219 -33 223 3 3 247
31 291 34 l27 1 0 -112z"/>
  <path d="M500 416 c-38 -7 -60 -15 -53 -19 7 -4 17 -25 23 -46 10 -38 11 -39
47 -31 20 5 39 8 42 8 37 -3 49 5 59 41 7 21 12 43 12 50 0 13 -41 12 -130 -3z
m80 -36 c0 -23 -5 -31 -24 -36 -40 -10 -61 -1 -64 28 -3 23 1 27 30 31 18 2
39 5 46 5 7 1 12 -10 12 -28z"/>
  <path d="M170 394 c-36 -13 -67 -24 -70 -24 -3 0 2 -5 10 -10 8 -6 36 -8 62
-4 l48 6 -11 -30 c-9 -27 -7 -36 15 -69 40 -58 36 -63 -49 -63 -59 0 -77 -3
-82 -15 -3 -9 -2 -19 1 -23 4 -4 60 -7 124 -8 112 0 123 -2 254 -47 156 -53
189 -56 297 -24 117 35 103 43 -81 51 -212 9 -412 49 -404 80 6 22 -10 57 -30
69 -21 12 -17 22 18 63 l32 36 -23 19 c-28 23 -28 23 -111 -7z"/>
</g>
<g id="part-1" class="char-part">
  <path d="M150 552 c0 -4 16 -23 35 -42 34 -33 36 -33 53 -16 16 16 16 18 -11
42 -27 23 -77 33 -77 16z"/>
  <path d="M170 388 c-74 -27 -75 -31 -7 -26 l59 5 -7 -33 c-4 -23 0 -42 15 -66
11 -18 20 -43 20 -55 0 -22 -4 -23 -82 -23 l-82 0 21 -21 c19 -19 25 -20 76
-9 68 14 94 9 277 -48 167 -52 213 -55 318 -22 40 13 71 24 69 26 -1 1 -79 8
-172 14 -112 7 -210 19 -285 36 l-116 26 4 32 c3 23 -3 37 -22 55 l-26 24 35
43 c34 41 35 44 16 54 -27 14 -46 12 -111 -12z"/>
</g>
<g id="part-2" class="char-part">
  <path d="M520 514 c-52 -7 -119 -13 -147 -13 -29 -1 -53 -3 -53 -4 0 -2 7 -18
15 -34 8 -17 21 -78 29 -136 15 -117 23 -138 40 -115 8 11 42 16 132 21 121 6
121 6 134 -19 34 -62 64 -8 79 141 7 61 14 118 17 128 15 49 -53 58 -246 31z
m180 -116 c0 -62 -4 -117 -8 -123 -4 -5 -32 -10 -62 -10 -30 0 -91 -4 -136 -8
l-81 -8 -17 106 c-10 59 -15 110 -11 113 5 6 220 35 298 41 15 1 17 -10 17
-111z"/>
</g>
<g id="part-3" class="char-part">
  <path d="M502 416 c-42 -7 -60 -14 -53 -21 5 -6 14 -26 19 -45 5 -19 15 -34
21 -32 7 1 38 5 69 8 61 7 58 4 65 74 2 21 -2 25 -28 26 -16 1 -58 -4 -93 -10z
m78 -36 c0 -23 -5 -31 -24 -36 -40 -10 -61 -1 -64 28 -3 23 1 27 30 31 18 2
39 5 46 5 7 1 12 -10 12 -28z"/>
</g>
</g>
</svg>