<?xml version="1.0" standalone="no"?>
<!DOCTYPE svg PUBLIC "-//W3C//DTD SVG 20010904//EN"
 "http://www.w3.org/TR/2001/REC-SVG-20010904/DTD/svg10.dtd">
<svg version="1.0" xmlns="http://www.w3.org/2000/svg"
 width="96.000000pt" height="68.000000pt" viewBox="0 0 96.000000 68.000000"
 preserveAspectRatio="xMidYMid meet">
<metadata>
Created by potrace 1.16, written by Peter Selinger 2001-2019
Combined from part_0.svg through part_5.svg with named groups
</metadata>
<g transform="translate(0.000000,68.000000) scale(0.100000,-0.100000)" fill="#000000" stroke="none">
<g id="part-0" class="char-part">
  <path d="M314 575 c-9 -20 -44 -63 -78 -96 -52 -52 -57 -60 -36 -57 14 2 27 5
30 8 3 3 21 17 40 32 57 43 120 105 120 117 0 9 -39 31 -55 31 -2 0 -12 -16
-21 -35z"/>
  <path d="M520 596 c0 -12 138 -136 151 -136 33 0 33 50 0 78 -35 29 -151 74
-151 58z"/>
  <path d="M424 493 c-3 -10 -10 -30 -16 -45 -17 -46 -149 -158 -241 -204 -27
-14 -46 -28 -43 -31 18 -18 208 100 281 176 28 28 55 51 61 51 6 0 60 -45 119
-100 105 -96 111 -100 154 -100 50 0 91 9 91 19 0 3 -37 19 -82 34 -94 33
-268 149 -268 179 0 9 -9 22 -19 28 -27 14 -31 13 -37 -7z"/>
  <path d="M470 269 c-25 -4 -75 -8 -112 -8 -38 -1 -68 -4 -68 -7 0 -3 5 -15 12
-27 6 -12 17 -47 23 -77 9 -45 15 -55 31 -53 10 1 66 5 124 9 101 6 105 7 106
30 1 13 12 44 24 69 22 45 22 47 4 60 -21 16 -73 17 -144 4z m90 -30 c0 -5 -5
-30 -11 -54 l-11 -44 -57 -6 c-31 -3 -70 -7 -88 -10 -31 -3 -32 -2 -42 46 -6
28 -11 54 -11 59 0 5 33 11 73 13 39 1 89 4 110 5 20 1 37 -3 37 -9z"/>
</g>
<g id="part-1" class="char-part">
  <path d="M315 566 c-9 -19 -43 -60 -75 -90 -32 -31 -55 -56 -51 -56 15 0 99
60 151 108 45 42 52 53 40 62 -28 18 -49 11 -65 -24z"/>
  <path d="M585 536 c72 -68 105 -82 105 -46 0 37 -72 89 -149 106 -21 5 -11 -8
44 -60z"/>
</g>
<g id="part-2" class="char-part">
  <path d="M420 488 c0 -13 -8 -37 -19 -54 -23 -37 -154 -144 -229 -187 -31 -17
-51 -32 -45 -34 32 -11 188 86 276 171 32 31 61 56 65 56 4 0 56 -45 117 -100
119 -108 122 -109 220 -92 47 9 43 12 -48 42 -38 12 -101 45 -140 72 -40 27
-87 59 -104 70 -22 13 -33 28 -33 43 0 22 -17 35 -46 35 -8 0 -14 -10 -14 -22z"/>
</g>
<g id="part-3" class="char-part">
  <path d="M470 269 c-25 -4 -78 -8 -118 -8 l-73 -1 17 -32 c10 -18 22 -55 29
-83 9 -40 15 -50 30 -48 11 1 68 5 127 9 59 4 105 10 103 14 -7 11 15 70 37
102 18 26 18 27 -4 42 -24 17 -74 19 -148 5z m85 -28 c3 -5 0 -30 -7 -54 -10
-41 -15 -46 -47 -51 -20 -3 -59 -6 -87 -6 l-52 0 -11 44 c-6 25 -11 49 -11 55
0 6 30 12 68 14 37 2 84 4 104 5 20 1 39 -2 43 -7z"/>
</g>
</g>
</svg>