<?xml version="1.0" standalone="no"?>
<!DOCTYPE svg PUBLIC "-//W3C//DTD SVG 20010904//EN"
 "http://www.w3.org/TR/2001/REC-SVG-20010904/DTD/svg10.dtd">
<svg version="1.0" xmlns="http://www.w3.org/2000/svg"
 width="96.000000pt" height="68.000000pt" viewBox="0 0 96.000000 68.000000"
 preserveAspectRatio="xMidYMid meet">
<metadata>
Created by potrace 1.16, written by Peter Selinger 2001-2019
Combined from part_0.svg through part_5.svg with named groups
</metadata>
<g transform="translate(0.000000,68.000000) scale(0.100000,-0.100000)" fill="#000000" stroke="none">
<g id="part-0" class="char-part">
  <path d="M728 480 c5 -150 11 -142 -106 -153 l-63 -7 7 58 c5 31 9 75 9 97 0
34 -3 40 -22 43 -22 3 -23 0 -23 -56 0 -33 -7 -79 -15 -102 -19 -55 -19 -67 3
-79 12 -6 27 -5 47 4 37 16 144 37 156 29 5 -3 9 -68 9 -144 0 -77 4 -141 10
-145 18 -11 30 73 31 225 1 85 4 198 8 250 8 99 4 110 -34 110 -20 0 -21 -5
-17 -130z"/>
  <path d="M309 573 c-24 -62 -43 -93 -80 -131 -60 -59 -38 -87 50 -62 19 5 36
8 38 6 3 -2 -21 -30 -53 -61 -43 -44 -53 -59 -43 -66 19 -12 18 -12 93 16 71
27 106 31 106 14 0 -5 4 -7 10 -4 20 12 10 45 -16 55 -34 13 -37 13 -31 -4 4
-10 -8 -19 -40 -30 -25 -9 -50 -13 -55 -10 -5 3 28 41 74 84 72 68 81 81 72
97 -19 31 -39 26 -54 -14 -8 -21 -14 -40 -13 -43 1 -3 -23 -5 -52 -6 l-54 -1
29 36 c16 20 43 52 60 71 35 41 36 48 13 66 -27 20 -42 17 -54 -13z"/>
  <path d="M380 255 c0 -18 44 -65 61 -65 40 0 12 54 -33 66 -16 3 -28 3 -28 -1z"/>
  <path d="M291 208 c27 -51 59 -64 59 -24 0 27 -13 39 -48 44 -21 3 -22 1 -11
-20z"/>
  <path d="M160 199 c0 -19 39 -76 57 -83 24 -10 35 7 24 35 -7 21 -23 33 -73
57 -5 2 -8 -2 -8 -9z"/>
</g>
<g id="part-1" class="char-part">
  <path d="M305 543 c-10 -25 -38 -66 -62 -90 -69 -70 -54 -96 38 -67 72 23 84
36 26 28 -26 -4 -47 -4 -47 0 0 4 27 39 61 77 48 57 58 73 48 85 -23 27 -46
16 -64 -33z"/>
</g>
<g id="part-2" class="char-part">
  <path d="M380 253 c0 -19 57 -76 68 -69 16 9 15 41 -1 54 -17 15 -67 26 -67
15z"/>
  <path d="M280 233 c0 -15 43 -73 55 -73 18 0 28 30 15 45 -12 15 -70 38 -70
28z"/>
  <path d="M150 204 c0 -16 63 -94 76 -94 20 0 28 24 14 49 -15 29 -90 66 -90
45z"/>
</g>
<g id="part-3" class="char-part">
  <path d="M530 464 c0 -31 -8 -82 -17 -112 -16 -51 -16 -55 0 -67 14 -10 30 -9
85 6 37 10 79 21 95 24 39 8 35 29 -5 22 -18 -3 -55 -9 -82 -13 l-48 -7 8 54
c5 30 9 74 9 99 0 39 -3 45 -22 48 -22 3 -23 0 -23 -54z"/>
</g>
<g id="part-4" class="char-part">
  <path d="M724 598 c3 -13 6 -148 6 -300 0 -157 4 -278 9 -278 19 0 24 44 31
280 4 135 11 257 15 271 7 29 4 33 -39 43 -26 6 -28 5 -22 -16z"/>
</g>
</g>
</svg>