<?xml version="1.0" standalone="no"?>
<!DOCTYPE svg PUBLIC "-//W3C//DTD SVG 20010904//EN"
 "http://www.w3.org/TR/2001/REC-SVG-20010904/DTD/svg10.dtd">
<svg version="1.0" xmlns="http://www.w3.org/2000/svg"
 width="96.000000pt" height="68.000000pt" viewBox="0 0 96.000000 68.000000"
 preserveAspectRatio="xMidYMid meet">
<metadata>
Created by potrace 1.16, written by Peter Selinger 2001-2019
Combined from part_0.svg through part_5.svg with named groups
</metadata>
<g transform="translate(0.000000,68.000000) scale(0.100000,-0.100000)" fill="#000000" stroke="none">
<g id="part-0" class="char-part">
  <path d="M450 603 c0 -11 4 -23 9 -28 4 -6 13 -25 19 -42 13 -39 19 -37 -143
-54 -119 -12 -154 -22 -120 -35 31 -12 36 -25 29 -79 -7 -58 -28 -115 -62
-168 -41 -67 -17 -55 48 22 18 22 49 111 65 188 l6 31 92 9 c62 6 96 6 103 -2
6 -5 26 -53 44 -105 18 -52 39 -106 47 -118 13 -22 13 -26 -8 -45 -24 -22 -12
-35 18 -19 14 8 23 1 53 -42 35 -51 118 -116 147 -116 13 0 14 8 9 42 -4 24
-10 64 -13 90 -3 27 -9 48 -14 48 -4 0 -14 -20 -21 -45 -12 -43 -14 -45 -34
-31 -11 8 -32 32 -47 54 l-28 39 36 53 c57 85 57 119 -1 120 -18 0 -22 -7 -27
-46 -2 -25 -12 -53 -20 -62 -15 -14 -18 -11 -35 29 -28 64 -54 158 -47 169 3
6 18 10 33 10 41 0 72 11 72 25 0 19 -28 26 -75 19 -38 -5 -43 -4 -48 18 -4
12 -7 33 -7 45 0 25 -4 28 -47 38 -28 6 -33 4 -33 -12z"/>
  <path d="M596 589 c10 -12 32 -30 48 -42 27 -19 29 -19 42 -3 7 10 10 24 8 31
-7 18 -49 35 -86 35 -31 0 -31 0 -12 -21z"/>
  <path d="M356 379 c-64 -15 -56 -22 20 -17 84 6 137 28 64 27 -25 -1 -63 -5
-84 -10z"/>
  <path d="M410 314 c-25 -7 -60 -13 -78 -13 -31 -1 -32 -2 -18 -23 7 -13 16
-35 20 -50 5 -23 10 -27 34 -23 15 2 43 7 63 10 30 4 38 11 44 33 3 15 14 35
22 44 14 16 14 18 -1 23 -34 11 -42 11 -86 -1z m30 -33 c0 -40 -11 -51 -51
-51 -36 0 -39 2 -39 29 0 26 4 30 33 34 17 2 38 5 45 5 6 1 12 -7 12 -17z"/>
  <path d="M480 172 c0 -11 69 -77 74 -71 2 2 6 13 8 24 2 14 -7 24 -32 37 -40
19 -50 21 -50 10z"/>
  <path d="M372 140 c15 -24 38 -34 50 -22 12 12 -18 42 -43 42 -17 0 -18 -3 -7
-20z"/>
  <path d="M240 125 c-7 -14 -17 -25 -22 -25 -11 0 -10 -37 1 -44 13 -8 40 27
47 62 8 38 -7 42 -26 7z"/>
  <path d="M309 113 c30 -60 54 -76 121 -81 68 -5 110 3 110 21 0 6 -16 25 -37
41 l-36 29 6 -31 7 -32 -54 0 c-60 0 -100 23 -110 65 -4 14 -11 25 -16 25 -6
0 -2 -17 9 -37z"/>
</g>
<g id="part-1" class="char-part">
  <path d="M450 605 c0 -3 6 -16 14 -28 8 -12 17 -36 20 -53 l7 -31 -108 -12
c-152 -17 -174 -22 -166 -33 6 -10 88 -8 228 8 l61 6 18 -58 c10 -33 31 -92
47 -133 27 -69 28 -75 14 -97 -16 -25 -8 -32 14 -12 10 11 16 8 29 -11 52 -76
158 -159 178 -139 2 3 0 25 -6 49 -5 24 -13 62 -16 84 l-7 40 -11 -44 c-6 -25
-17 -46 -23 -48 -12 -4 -65 48 -84 83 -10 19 -6 30 25 81 39 63 45 97 20 107
-27 10 -34 7 -34 -16 0 -25 -35 -108 -45 -108 -9 0 -50 99 -63 151 -7 26 -14
53 -17 61 -5 12 5 16 45 21 57 7 73 14 64 29 -3 5 -31 8 -63 6 l-56 -3 -3 45
c-2 24 -9 48 -15 52 -14 9 -67 11 -67 3z"/>
  <path d="M619 576 c38 -39 71 -48 71 -17 0 25 -18 38 -65 46 l-40 7 34 -36z"/>
</g>
<g id="part-2" class="char-part">
  <path d="M405 313 c-27 -7 -62 -12 -77 -10 -28 3 -37 -6 -18 -18 5 -3 14 -24
20 -45 10 -35 13 -39 38 -35 15 2 43 7 63 10 28 4 38 11 43 30 3 13 12 30 20
38 33 33 -18 50 -89 30z m35 -36 c0 -13 -5 -28 -12 -35 -17 -17 -65 -15 -72 4
-13 33 -6 43 32 47 20 2 40 4 45 5 4 1 7 -8 7 -21z"/>
</g>
<g id="part-3" class="char-part">
  <path d="M508 138 c33 -34 44 -40 51 -29 17 27 -7 50 -69 66 -22 6 -20 2 18
-37z"/>
  <path d="M370 139 c14 -26 38 -35 53 -20 9 10 8 16 -7 27 -11 8 -28 14 -38 14
-16 0 -17 -3 -8 -21z"/>
  <path d="M232 120 c-26 -35 -30 -75 -6 -66 9 3 17 6 19 6 2 0 9 16 15 36 16
49 0 63 -28 24z"/>
  <path d="M290 147 c-1 -18 31 -66 60 -91 27 -22 41 -26 99 -26 40 0 75 5 85
13 17 12 15 15 -17 40 -44 33 -49 34 -41 2 6 -24 5 -25 -50 -25 -59 0 -72 8
-118 71 -9 13 -17 20 -18 16z"/>
</g>
</g>
</svg>