<?xml version="1.0" standalone="no"?>
<!DOCTYPE svg PUBLIC "-//W3C//DTD SVG 20010904//EN"
 "http://www.w3.org/TR/2001/REC-SVG-20010904/DTD/svg10.dtd">
<svg version="1.0" xmlns="http://www.w3.org/2000/svg"
 width="96.000000pt" height="68.000000pt" viewBox="0 0 96.000000 68.000000"
 preserveAspectRatio="xMidYMid meet">
<metadata>
Created by potrace 1.16, written by Peter Selinger 2001-2019
Combined from part_0.svg through part_5.svg with named groups
</metadata>
<g transform="translate(0.000000,68.000000) scale(0.100000,-0.100000)" fill="#000000" stroke="none">
<g id="part-0" class="char-part">
  <path d="M663 563 c-3 -10 -17 -33 -30 -51 -14 -18 -23 -35 -21 -37 7 -7 107
59 113 74 3 8 0 18 -7 23 -22 13 -48 9 -55 -9z"/>
  <path d="M470 532 c0 -15 60 -73 70 -67 23 14 10 46 -25 61 -39 16 -45 17 -45
6z"/>
  <path d="M265 493 c-24 -9 -56 -12 -82 -9 -43 6 -52 -1 -32 -21 6 -6 17 -35
24 -65 12 -53 12 -53 48 -50 21 2 37 -1 38 -5 14 -184 13 -188 -36 -195 -18
-3 -20 2 -18 61 3 64 -4 80 -35 81 -11 0 -12 -17 -7 -78 l7 -78 -35 4 c-47 5
-53 -10 -12 -32 32 -18 36 -18 70 -2 19 9 74 29 122 44 48 15 88 33 91 40 2 8
-9 8 -44 -3 -26 -8 -51 -12 -56 -9 -4 3 -8 23 -8 44 0 34 3 40 25 45 14 3 36
7 50 10 46 10 28 28 -20 21 l-45 -7 2 36 c2 28 8 37 26 41 12 4 22 14 22 23 0
9 9 35 20 56 19 38 19 41 3 52 -22 16 -67 15 -118 -4z m50 -55 c-9 -41 -7 -39
-54 -48 -35 -6 -40 -5 -45 14 -12 45 -7 55 32 59 79 8 74 10 67 -25z"/>
  <path d="M597 450 c-65 -10 -120 -20 -123 -22 -8 -9 46 -19 66 -13 13 4 20 0
25 -14 9 -31 -2 -41 -46 -41 -21 0 -39 -4 -39 -10 0 -5 20 -10 45 -10 41 0 45
-2 45 -24 0 -26 -21 -36 -80 -36 -48 0 -71 -15 -37 -24 14 -3 33 -3 41 0 22 9
20 -8 -6 -42 -31 -40 -52 -58 -112 -96 -63 -40 -60 -37 -55 -43 7 -6 111 44
134 66 22 19 39 23 93 21 33 -2 33 -3 30 -44 l-3 -43 -84 -9 c-77 -8 -83 -10
-65 -23 12 -9 32 -12 54 -9 72 11 257 24 359 26 2 0 -3 7 -10 16 -11 13 -28
15 -112 9 l-100 -7 7 32 c3 18 6 39 6 46 0 9 12 14 33 14 17 0 39 4 47 10 30
19 -2 23 -86 11 -47 -7 -89 -10 -92 -6 -3 3 4 15 17 26 16 15 19 24 12 33 -17
20 -2 26 63 27 34 1 86 4 116 8 53 7 54 8 28 19 -18 7 -49 9 -93 3 l-65 -7 0
27 c0 26 3 28 55 34 70 9 74 29 5 23 -49 -5 -50 -5 -50 23 0 25 4 29 29 29 41
0 91 11 91 20 0 16 -29 16 -143 0z"/>
</g>
<g id="part-1" class="char-part">
  <path d="M291 494 c-22 -10 -56 -14 -93 -12 -32 2 -58 0 -58 -4 0 -5 4 -8 10
-8 5 0 17 -26 26 -57 18 -64 31 -84 42 -67 4 6 37 15 75 18 37 4 65 12 62 16
-3 5 4 30 16 55 13 27 18 50 13 55 -18 17 -60 19 -93 4z m26 -89 c-6 -14 -87
-29 -98 -18 -4 4 -10 22 -13 39 l-7 32 58 8 58 9 3 -28 c2 -16 1 -35 -1 -42z"/>
</g>
<g id="part-2" class="char-part">
  <path d="M300 170 c-52 -16 -121 -29 -152 -29 -32 -1 -58 -5 -58 -9 0 -5 15
-17 34 -27 33 -18 35 -18 82 2 27 11 86 33 132 48 45 14 82 31 82 36 0 13 -12
11 -120 -21z"/>
</g>
<g id="part-3" class="char-part">
  <path d="M658 553 c-8 -16 -23 -41 -34 -58 -22 -33 -18 -32 64 23 48 33 52 37
36 49 -28 20 -51 15 -66 -14z"/>
  <path d="M470 531 c0 -16 59 -73 70 -66 20 12 10 45 -20 60 -33 17 -50 19 -50
6z"/>
  <path d="M595 449 c-60 -9 -117 -18 -125 -19 -8 -1 -2 -6 15 -11 19 -5 66 -3
134 6 57 8 108 15 113 15 15 0 8 18 -9 22 -10 2 -67 -4 -128 -13z"/>
</g>
<g id="part-4" class="char-part">
  <path d="M575 412 c-5 -4 -10 -16 -10 -27 0 -16 -8 -21 -35 -23 -55 -5 -61
-22 -7 -22 43 0 47 -2 47 -24 0 -28 -16 -36 -73 -37 -23 0 -51 -4 -62 -8 -16
-7 -14 -9 13 -14 17 -4 39 -4 47 -1 9 4 15 1 15 -8 0 -19 -84 -99 -150 -143
-32 -21 -44 -34 -30 -30 85 25 259 152 231 170 -27 16 -3 23 106 29 65 4 119
9 122 12 18 17 -82 24 -149 9 -28 -6 -30 -5 -30 24 0 29 2 31 50 37 69 9 79
28 12 22 -46 -4 -51 -3 -54 16 -3 22 -26 31 -43 18z"/>
</g>
<g id="part-5" class="char-part">
  <path d="M665 185 c-39 -17 -21 -18 25 0 19 7 28 14 20 14 -8 0 -28 -6 -45
-14z"/>
  <path d="M550 173 c36 -7 55 -24 38 -34 -7 -5 -8 -9 -2 -9 6 0 9 -12 6 -29 -4
-27 -8 -30 -56 -37 -28 -4 -67 -6 -86 -6 -32 2 -33 1 -17 -12 14 -11 26 -11
60 -3 23 6 61 11 85 10 29 0 42 4 42 13 0 8 -5 14 -11 14 -5 0 -7 5 -4 10 4 6
8 24 10 40 3 21 0 30 -10 30 -8 0 -15 5 -15 10 0 6 -15 9 -32 9 -28 -2 -29 -2
-8 -6z"/>
  <path d="M608 173 c7 -3 16 -2 19 1 4 3 -2 6 -13 5 -11 0 -14 -3 -6 -6z"/>
  <path d="M756 81 c-5 -7 -28 -9 -65 -6 -47 5 -58 3 -58 -9 0 -8 3 -13 7 -11 3
2 50 5 103 6 94 2 114 12 50 25 -18 4 -33 2 -37 -5z"/>
</g>
</g>
</svg>