<?xml version="1.0" standalone="no"?>
<!DOCTYPE svg PUBLIC "-//W3C//DTD SVG 20010904//EN"
 "http://www.w3.org/TR/2001/REC-SVG-20010904/DTD/svg10.dtd">
<svg version="1.0" xmlns="http://www.w3.org/2000/svg"
 width="96.000000pt" height="68.000000pt" viewBox="0 0 96.000000 68.000000"
 preserveAspectRatio="xMidYMid meet">
<metadata>
Created by potrace 1.16, written by Peter Selinger 2001-2019
Combined from part_0.svg through part_5.svg with named groups
</metadata>
<g transform="translate(0.000000,68.000000) scale(0.100000,-0.100000)" fill="#000000" stroke="none">
<g id="part-0" class="char-part">
  <path d="M425 598 c12 -36 17 -202 6 -217 -6 -9 -15 -11 -27 -6 -24 10 -44 14
-44 9 0 -11 74 -84 85 -84 27 0 45 36 45 94 l0 57 48 -27 c26 -15 66 -40 90
-56 49 -32 82 -36 82 -11 0 29 -30 51 -106 79 -41 15 -74 30 -74 34 0 4 27 15
60 24 65 18 78 29 60 51 -15 18 -54 19 -72 2 -7 -7 -30 -25 -50 -41 l-38 -28
0 60 c0 50 -3 63 -19 72 -35 18 -54 13 -46 -12z"/>
  <path d="M287 507 c-61 -13 -56 -33 8 -29 l48 4 -33 -42 c-18 -23 -54 -55 -79
-71 -35 -21 -41 -29 -25 -29 35 0 117 52 168 107 45 49 46 52 27 62 -23 13
-48 12 -114 -2z"/>
  <path d="M568 193 l5 -126 -33 6 -32 7 29 -34 c15 -19 35 -34 43 -33 25 4 41
48 36 99 -3 26 -2 50 3 52 4 3 31 -22 60 -55 52 -58 53 -59 107 -59 62 0 70
13 18 30 -57 19 -175 94 -163 103 2 2 30 14 62 26 59 24 69 34 41 45 -30 11
-45 6 -71 -24 -13 -16 -34 -30 -45 -30 -17 0 -19 6 -18 43 3 72 2 77 -23 77
-23 0 -23 0 -19 -127z"/>
  <path d="M288 190 c5 -120 -1 -140 -37 -121 -28 16 -26 9 8 -28 47 -50 71 -27
71 72 l0 48 37 -26 c42 -28 59 -31 66 -11 4 9 -7 17 -33 25 -22 6 -42 16 -45
21 -3 5 18 21 46 36 39 19 49 28 38 35 -25 15 -48 10 -65 -16 -9 -14 -24 -30
-33 -35 -14 -7 -16 -1 -16 48 0 50 -3 57 -21 60 -20 3 -20 0 -16 -108z"/>
  <path d="M480 208 c-47 -13 -66 -32 -22 -23 28 6 32 4 32 -14 0 -11 -8 -28
-17 -38 -10 -10 -31 -33 -48 -52 l-30 -34 34 19 c35 20 121 113 121 132 0 8
-26 25 -33 21 -1 0 -18 -5 -37 -11z"/>
  <path d="M173 199 c-43 -13 -42 -19 2 -12 48 8 45 -7 -12 -69 -45 -48 -46 -50
-15 -32 43 25 115 101 107 114 -7 12 -38 12 -82 -1z"/>
</g>
<g id="part-1" class="char-part">
  <path d="M439 489 l3 -121 -36 4 -37 4 40 -40 c54 -54 71 -41 71 55 0 38 2 69
5 69 2 0 45 -25 95 -55 88 -53 110 -62 123 -49 14 15 -16 44 -65 62 -29 11
-71 28 -93 37 l-39 17 78 25 c76 24 77 25 60 44 -25 27 -40 24 -91 -21 -64
-56 -77 -54 -70 12 7 54 -3 78 -32 78 -14 0 -16 -14 -12 -121z"/>
  <path d="M302 505 c-72 -18 -79 -29 -14 -22 36 4 52 3 52 -6 0 -6 -29 -39 -64
-73 -63 -62 -57 -71 19 -24 44 28 119 110 109 119 -18 17 -50 18 -102 6z"/>
</g>
<g id="part-2" class="char-part">
  <path d="M284 183 c1 -73 -3 -117 -9 -117 -5 1 -21 5 -35 9 -24 7 -23 5 9 -29
19 -20 41 -36 48 -36 19 0 33 43 33 101 l0 50 37 -26 c42 -28 63 -32 63 -12 0
7 -19 22 -42 34 l-43 20 53 27 c55 28 60 46 14 46 -19 0 -32 -8 -44 -30 -25
-44 -37 -37 -40 23 -3 44 -6 52 -24 55 -20 3 -21 -1 -20 -115z"/>
  <path d="M175 198 l-50 -18 43 5 c23 3 42 1 42 -3 0 -16 -80 -101 -101 -107
-11 -4 -18 -9 -16 -12 3 -2 22 5 44 15 43 23 139 117 126 124 -25 14 -43 13
-88 -4z"/>
</g>
<g id="part-3" class="char-part">
  <path d="M568 193 l5 -126 -36 6 -35 5 35 -34 c20 -20 41 -33 49 -30 23 9 36
57 29 108 -4 27 -5 48 -2 48 3 0 31 -27 63 -60 52 -55 61 -60 100 -60 76 0 82
11 18 37 -89 36 -182 103 -143 103 10 0 100 38 109 47 7 7 -23 23 -43 23 -10
0 -30 -13 -44 -30 -13 -16 -34 -30 -45 -30 -19 0 -20 5 -16 50 5 51 -4 70 -32
70 -14 0 -15 -16 -12 -127z"/>
  <path d="M473 206 c-57 -15 -67 -28 -14 -20 43 7 43 7 31 -17 -7 -13 -29 -43
-48 -66 -19 -24 -29 -43 -22 -43 16 0 130 117 130 134 0 11 -26 30 -33 25 -1
-1 -21 -7 -44 -13z"/>
</g>
</g>
</svg>