<?xml version="1.0" standalone="no"?>
<!DOCTYPE svg PUBLIC "-//W3C//DTD SVG 20010904//EN"
 "http://www.w3.org/TR/2001/REC-SVG-20010904/DTD/svg10.dtd">
<svg version="1.0" xmlns="http://www.w3.org/2000/svg"
 width="96.000000pt" height="68.000000pt" viewBox="0 0 96.000000 68.000000"
 preserveAspectRatio="xMidYMid meet">
<metadata>
Created by potrace 1.16, written by Peter Selinger 2001-2019
Combined from part_0.svg through part_5.svg with named groups
</metadata>
<g transform="translate(0.000000,68.000000) scale(0.100000,-0.100000)" fill="#000000" stroke="none">
<g id="part-0" class="char-part">
  <path d="M538 635 c-3 -3 -3 -25 -1 -50 l5 -43 -58 -7 c-33 -3 -73 -8 -91 -11
-30 -4 -32 -2 -38 30 -5 26 -14 37 -37 47 -41 17 -54 1 -31 -40 16 -28 16 -33
3 -41 -8 -5 -36 -10 -62 -10 -26 0 -49 -4 -53 -9 -8 -14 54 -31 99 -28 l39 2
11 -65 c15 -85 18 -89 66 -83 32 5 40 2 41 -11 4 -55 14 -50 -131 -59 -74 -5
-137 -11 -139 -13 -12 -11 37 -34 64 -29 17 2 64 8 105 11 l75 7 -19 -22 c-11
-11 -23 -21 -28 -21 -4 0 -26 -13 -47 -28 -22 -16 -60 -37 -85 -46 -25 -10
-46 -22 -46 -28 0 -27 169 44 211 88 40 42 48 32 42 -55 -4 -56 -2 -80 7 -86
22 -14 32 13 31 89 0 42 2 76 5 76 2 0 34 -22 70 -50 36 -27 74 -55 86 -61 23
-13 152 -3 143 11 -3 5 -28 13 -57 19 -53 12 -146 53 -208 93 l-35 22 45 7
c25 4 88 5 141 2 99 -6 124 2 92 28 -19 16 -74 17 -191 5 l-84 -8 5 30 c4 23
1 32 -11 36 -10 3 7 3 35 1 62 -5 69 3 79 88 4 30 10 60 13 66 4 6 37 14 74
18 44 4 67 10 67 18 0 18 -24 25 -82 25 -48 0 -50 1 -46 25 3 14 0 31 -6 39
-12 16 -58 30 -68 21z m0 -162 c-3 -24 -7 -28 -33 -25 -16 1 -54 -2 -82 -6
l-53 -9 0 28 c0 26 3 28 48 32 125 10 124 10 120 -20z m-10 -65 c-3 -25 -31
-36 -99 -37 -34 -1 -49 3 -53 15 -11 29 -6 33 42 37 114 9 114 9 110 -15z"/>
</g>
<g id="part-1" class="char-part">
  <path d="M540 580 l0 -50 -34 0 c-18 0 -60 -3 -94 -6 l-61 -7 -3 34 c-2 26 -9
36 -30 43 -36 13 -45 3 -24 -28 26 -40 21 -56 -18 -56 -18 0 -48 -3 -67 -7
-28 -5 -30 -7 -14 -14 11 -4 43 -8 71 -8 l52 -1 10 -71 c6 -39 12 -72 14 -74
2 -2 39 1 83 6 44 5 92 7 107 3 33 -7 37 0 51 89 l13 72 59 3 c84 4 97 10 61
29 -20 10 -42 13 -73 8 l-44 -6 7 36 c7 41 -4 55 -43 55 -21 0 -23 -5 -23 -50z
m-3 -131 c-3 -34 -9 -65 -14 -69 -4 -4 -40 -11 -79 -14 l-71 -7 -7 62 c-3 34
-5 64 -3 65 2 2 121 19 166 23 11 1 13 -12 8 -60z"/>
</g>
<g id="part-2" class="char-part">
  <path d="M413 443 c-50 -5 -58 -23 -10 -23 60 0 137 13 131 21 -5 9 -38 9
-121 2z"/>
</g>
<g id="part-3" class="char-part">
  <path d="M433 305 c7 -42 9 -41 -155 -50 -71 -4 -128 -11 -128 -15 0 -21 59
-31 116 -21 67 13 124 14 124 4 0 -12 -91 -72 -167 -110 l-68 -34 45 6 c56 7
132 42 184 84 21 17 42 31 46 31 4 0 7 -37 6 -82 -1 -68 2 -83 14 -83 12 0 16
17 18 83 2 45 5 82 8 82 2 0 37 -25 77 -55 39 -31 82 -58 95 -61 12 -4 53 -3
90 1 52 6 62 9 42 15 -132 40 -175 57 -235 93 l-70 42 45 6 c25 4 92 5 149 2
87 -5 103 -4 99 8 -10 32 -52 40 -164 29 -58 -5 -111 -7 -116 -4 -5 3 -8 13
-6 22 4 25 -10 42 -34 42 -18 0 -20 -4 -15 -35z"/>
</g>
</g>
</svg>