<?xml version="1.0" standalone="no"?>
<!DOCTYPE svg PUBLIC "-//W3C//DTD SVG 20010904//EN"
 "http://www.w3.org/TR/2001/REC-SVG-20010904/DTD/svg10.dtd">
<svg version="1.0" xmlns="http://www.w3.org/2000/svg"
 width="96.000000pt" height="68.000000pt" viewBox="0 0 96.000000 68.000000"
 preserveAspectRatio="xMidYMid meet">
<metadata>
Created by potrace 1.16, written by Peter Selinger 2001-2019
Combined from part_0.svg through part_5.svg with named groups
</metadata>
<g transform="translate(0.000000,68.000000) scale(0.100000,-0.100000)" fill="#000000" stroke="none">
<g id="part-0" class="char-part">
  <path d="M556 567 c-14 -29 -31 -60 -38 -69 -7 -9 -9 -20 -6 -23 7 -8 36 8
101 54 63 46 62 62 -3 81 -28 8 -30 6 -54 -43z"/>
  <path d="M308 553 c30 -43 70 -83 81 -83 19 0 33 38 22 59 -10 19 -78 51 -107
51 -13 0 -12 -4 4 -27z"/>
  <path d="M570 469 c-41 -4 -104 -10 -140 -13 -223 -18 -258 -26 -206 -46 18
-6 51 -8 81 -5 64 8 62 13 64 -159 l2 -126 -73 -1 c-40 -1 -102 -4 -138 -8
l-65 -7 35 -16 c30 -14 48 -15 115 -6 44 5 196 11 337 12 261 1 290 6 233 36
-18 10 -53 11 -139 7 -128 -8 -127 -9 -115 63 4 25 13 87 20 138 l12 92 61 0
c77 0 97 11 65 34 -25 17 -34 18 -149 5z m-51 -193 l-2 -144 -51 -5 c-28 -3
-52 -4 -53 -3 0 0 1 67 4 149 l6 147 49 0 49 0 -2 -144z"/>
  <path d="M649 298 c-12 -24 -28 -51 -37 -61 -24 -27 -7 -31 30 -5 18 12 35 26
38 29 3 3 15 11 28 18 27 14 29 37 3 51 -32 16 -39 12 -62 -32z"/>
  <path d="M240 289 c0 -18 60 -89 76 -89 35 0 3 75 -39 90 -37 12 -37 12 -37
-1z"/>
</g>
<g id="part-1" class="char-part">
  <path d="M565 574 c-8 -19 -24 -48 -35 -64 -26 -36 -25 -44 3 -29 34 19 127
90 127 99 0 9 -46 30 -65 30 -8 0 -21 -16 -30 -36z"/>
  <path d="M300 575 c0 -18 75 -95 92 -95 32 0 20 50 -17 71 -36 20 -75 33 -75
24z"/>
  <path d="M414 450 c-94 -10 -180 -20 -190 -22 -19 -5 -19 -5 0 -13 11 -5 83
-3 160 3 78 6 187 15 244 18 85 6 100 9 91 20 -15 18 -85 16 -305 -6z"/>
</g>
<g id="part-2" class="char-part">
  <path d="M520 286 c0 -80 -3 -147 -7 -149 -5 -3 -28 -7 -53 -8 l-45 -4 1 40
c1 22 2 87 4 145 l3 105 -31 3 -31 3 6 -150 6 -151 -74 -1 c-41 -1 -105 -5
-144 -8 l-70 -7 38 -17 c34 -16 48 -16 120 -6 45 6 198 12 340 14 142 1 260 5
263 8 3 3 -6 13 -21 23 -23 15 -42 16 -146 11 l-119 -7 0 33 c0 17 7 82 15
142 8 61 15 113 15 118 0 4 -16 7 -35 7 l-35 0 0 -144z"/>
</g>
<g id="part-3" class="char-part">
  <path d="M654 308 c-9 -18 -27 -48 -41 -65 -13 -18 -21 -33 -17 -33 17 0 134
84 134 96 0 13 -30 34 -49 34 -6 0 -18 -15 -27 -32z"/>
  <path d="M237 287 c40 -63 61 -87 76 -87 34 0 11 71 -30 89 -33 15 -56 14 -46
-2z"/>
</g>
</g>
</svg>