<?xml version="1.0" standalone="no"?>
<!DOCTYPE svg PUBLIC "-//W3C//DTD SVG 20010904//EN"
 "http://www.w3.org/TR/2001/REC-SVG-20010904/DTD/svg10.dtd">
<svg version="1.0" xmlns="http://www.w3.org/2000/svg"
 width="96.000000pt" height="68.000000pt" viewBox="0 0 96.000000 68.000000"
 preserveAspectRatio="xMidYMid meet">
<metadata>
Created by potrace 1.16, written by Peter Selinger 2001-2019
Combined from part_0.svg through part_5.svg with named groups
</metadata>
<g transform="translate(0.000000,68.000000) scale(0.100000,-0.100000)" fill="#000000" stroke="none">
<g id="part-0" class="char-part">
  <path d="M540 565 c0 -51 -16 -65 -76 -65 -48 0 -33 -17 18 -22 l36 -3 -14
-34 c-14 -33 -14 -33 -40 -17 -14 10 -32 16 -41 14 -12 -2 -11 -8 8 -32 l23
-29 -35 -30 -34 -29 32 7 c37 7 42 1 57 -74 11 -55 12 -56 43 -53 31 3 31 3
35 -50 5 -71 0 -91 -23 -85 -11 3 -19 2 -19 -2 0 -15 49 -53 59 -47 28 17 42
160 19 185 -11 11 -6 12 28 7 l41 -6 23 62 c35 97 31 99 -150 83 l-85 -8 28
23 c15 12 43 45 62 73 l35 51 82 -82 c78 -79 83 -82 127 -82 76 0 79 14 9 40
-99 36 -107 47 -52 74 l37 17 -23 16 c-22 16 -24 15 -44 -10 -12 -15 -27 -27
-33 -27 -6 0 -28 16 -49 35 -22 20 -32 35 -24 34 26 -4 90 13 90 23 0 7 -20 9
-50 6 l-50 -5 6 33 c5 26 2 34 -14 43 -35 19 -42 13 -42 -34z m100 -254 c0
-14 -10 -20 -46 -25 -80 -10 -101 -8 -107 13 -5 21 11 25 111 29 35 2 42 -1
42 -17z m-2 -58 c-6 -32 -133 -45 -133 -13 0 15 29 24 98 28 32 2 38 0 35 -15z"/>
  <path d="M250 551 c0 -49 -132 -271 -161 -271 -5 0 -9 -4 -9 -10 0 -22 30 -8
79 36 53 48 84 54 89 18 3 -19 -3 -23 -43 -28 -57 -9 -56 -32 1 -30 21 1 42
-3 46 -10 12 -17 9 -84 -3 -92 -6 -3 -40 -9 -75 -12 -70 -5 -85 -23 -38 -44
20 -9 33 -9 57 1 18 7 68 24 112 38 44 14 87 32 95 40 13 13 11 15 -24 11
l-38 -4 26 19 c31 23 33 33 6 47 -18 10 -22 6 -40 -35 -11 -25 -22 -45 -25
-45 -3 0 -5 22 -5 49 l0 50 45 7 c57 8 54 29 -3 28 -37 -1 -41 2 -40 22 2 17
10 23 40 28 21 4 38 10 38 15 0 17 -34 22 -88 10 -29 -6 -55 -9 -57 -7 -5 5
59 108 68 108 4 0 19 -11 33 -25 29 -29 42 -31 51 -8 7 18 -38 63 -63 63 -8 0
-14 7 -14 15 0 14 -29 35 -49 35 -6 0 -11 -8 -11 -19z"/>
  <path d="M160 227 c0 -16 41 -57 57 -57 19 0 22 28 5 43 -26 23 -62 31 -62 14z"/>
  <path d="M440 150 c0 -5 -16 -28 -36 -50 -40 -44 -33 -50 25 -21 46 24 65 46
57 66 -6 17 -46 21 -46 5z"/>
  <path d="M660 156 c0 -13 73 -86 86 -86 32 0 27 35 -10 62 -25 18 -76 34 -76
24z"/>
</g>
<g id="part-1" class="char-part">
  <path d="M250 538 c0 -50 -65 -162 -139 -240 -48 -52 -24 -48 43 7 60 49 91
56 101 25 9 -30 -2 -40 -45 -40 -21 0 -42 -4 -45 -10 -4 -6 13 -10 44 -10 l51
0 0 -54 0 -54 -44 -11 c-25 -6 -60 -11 -78 -11 -28 0 -30 -2 -18 -14 8 -8 22
-16 30 -18 20 -4 250 75 250 86 0 4 -10 6 -22 3 -85 -22 -78 -25 -78 31 0 53
8 62 55 62 13 0 27 5 30 10 7 11 -13 14 -57 11 -24 -2 -28 2 -28 23 0 21 6 26
35 32 19 3 35 10 35 15 0 12 -42 11 -96 -2 -25 -6 -47 -9 -50 -6 -4 4 54 106
72 126 2 3 17 -8 32 -22 32 -31 65 -36 60 -9 -2 9 -20 26 -41 37 -20 11 -40
28 -43 38 -3 10 -15 17 -30 17 -18 0 -24 -5 -24 -22z"/>
  <path d="M340 234 c-14 -36 -13 -36 20 -19 33 17 38 30 14 39 -23 9 -24 8 -34
-20z"/>
  <path d="M175 206 c21 -32 44 -40 52 -19 7 18 -21 43 -49 43 -17 0 -17 -2 -3
-24z"/>
</g>
<g id="part-2" class="char-part">
  <path d="M540 573 c0 -52 -10 -64 -59 -70 -53 -7 -53 -23 -1 -23 l41 0 -17
-32 c-9 -17 -39 -53 -66 -80 -56 -55 -41 -65 24 -15 37 29 69 66 98 117 7 12
26 -2 92 -67 77 -77 86 -83 123 -82 79 1 84 13 16 38 -64 25 -195 116 -186
130 2 5 25 12 50 15 62 10 48 30 -16 24 l-49 -5 6 33 c5 26 2 34 -14 43 -34
18 -42 13 -42 -26z"/>
</g>
<g id="part-3" class="char-part">
  <path d="M700 450 c-24 -33 -16 -37 37 -18 38 14 41 23 14 38 -27 14 -27 14
-51 -20z"/>
  <path d="M410 432 c0 -12 34 -42 48 -42 16 0 15 23 0 38 -14 14 -48 16 -48 4z"/>
</g>
<g id="part-4" class="char-part">
  <path d="M552 133 c1 -68 1 -68 -26 -66 l-27 2 23 -29 c44 -56 69 -27 71 83 2
67 1 72 -20 75 -21 3 -22 0 -21 -65z"/>
  <path d="M440 150 c0 -5 -17 -29 -37 -52 l-38 -41 30 7 c37 9 95 52 95 70 0 8
-7 17 -16 20 -23 9 -34 7 -34 -4z"/>
  <path d="M693 115 c30 -33 49 -46 61 -42 40 16 -9 70 -74 84 l-32 6 45 -48z"/>
</g>
</g>
</svg>