<?xml version="1.0" standalone="no"?>
<!DOCTYPE svg PUBLIC "-//W3C//DTD SVG 20010904//EN"
 "http://www.w3.org/TR/2001/REC-SVG-20010904/DTD/svg10.dtd">
<svg version="1.0" xmlns="http://www.w3.org/2000/svg"
 width="96.000000pt" height="68.000000pt" viewBox="0 0 96.000000 68.000000"
 preserveAspectRatio="xMidYMid meet">
<metadata>
Created by potrace 1.16, written by Peter Selinger 2001-2019
Combined from part_0.svg through part_5.svg with named groups
</metadata>
<g transform="translate(0.000000,68.000000) scale(0.100000,-0.100000)" fill="#000000" stroke="none">
<g id="part-0" class="char-part">
  <path d="M237 565 c19 -26 72 -57 85 -49 4 3 8 16 8 29 0 25 -39 45 -87 45
-24 0 -24 0 -6 -25z"/>
  <path d="M600 524 c-47 -7 -111 -15 -142 -16 -32 -1 -58 -5 -58 -10 0 -4 4 -8
9 -8 6 0 17 -26 27 -57 29 -101 26 -98 72 -94 35 2 42 0 42 -16 0 -34 -15 -41
-85 -44 -38 -2 -75 -6 -80 -10 -6 -4 -21 0 -34 10 l-24 18 32 11 c33 12 41 36
15 46 -26 10 -32 7 -46 -21 -7 -16 -20 -28 -27 -28 -29 0 -21 23 24 68 25 25
45 51 45 57 0 6 -11 15 -24 21 -19 9 -41 7 -103 -10 -44 -11 -93 -21 -111 -21
-40 0 -50 -17 -18 -31 20 -9 40 -8 101 9 l75 21 -17 -30 c-20 -35 -124 -144
-167 -177 -16 -12 -26 -25 -23 -28 10 -11 45 7 107 52 l60 44 0 -48 c0 -26 -5
-67 -11 -91 -13 -56 -4 -101 21 -101 25 0 30 19 30 119 0 48 3 90 6 94 4 3 19
-3 34 -15 28 -20 50 -18 50 5 0 8 25 13 76 15 72 2 76 1 63 -15 -23 -31 -82
-84 -126 -115 -24 -16 -43 -31 -43 -34 0 -19 129 56 164 95 33 36 39 26 32
-57 -7 -82 -2 -112 19 -112 20 0 25 24 25 128 l0 97 68 -73 67 -73 63 1 c70 0
80 13 25 31 -67 21 -213 112 -213 132 0 2 44 7 97 11 53 4 99 9 102 11 13 13
-18 20 -77 17 -147 -8 -137 -9 -137 18 0 24 2 25 56 23 l57 -2 27 77 c16 42
30 82 32 88 4 10 -49 36 -66 33 -3 -1 -44 -7 -91 -15z m80 -44 c0 -24 -4 -30
-22 -30 -13 0 -33 -3 -44 -6 -19 -5 -22 -1 -26 30 l-4 36 48 0 c47 0 48 -1 48
-30z m-132 -17 c-3 -24 -8 -28 -40 -31 -29 -2 -39 1 -48 18 -16 30 -5 40 46
40 44 0 45 -1 42 -27z m128 -55 c-3 -13 -6 -26 -6 -30 0 -9 -74 -11 -82 -2
-14 13 6 43 31 47 60 9 64 8 57 -15z m-126 -24 c0 -23 -3 -25 -32 -22 -25 2
-34 8 -36 26 -3 19 1 22 32 22 32 0 36 -3 36 -26z"/>
</g>
<g id="part-1" class="char-part">
  <path d="M230 582 c0 -16 60 -62 81 -62 24 0 26 36 2 48 -30 16 -83 24 -83 14z"/>
  <path d="M274 446 c-17 -8 -51 -17 -75 -20 -82 -13 -99 -18 -93 -27 8 -14 59
-11 120 7 30 8 59 14 65 12 13 -4 -83 -120 -150 -180 -29 -27 -47 -48 -39 -48
16 0 82 43 121 79 l29 26 -6 -90 c-10 -139 -10 -145 3 -158 10 -9 16 -8 27 7
10 14 14 48 14 118 0 54 4 98 8 98 5 0 17 -9 27 -20 21 -23 55 -27 55 -5 0 8
-14 22 -32 31 l-32 17 39 20 c37 18 38 20 20 33 -26 19 -28 18 -47 -16 -17
-30 -41 -39 -53 -20 -3 5 17 34 45 64 l51 54 -23 16 c-27 19 -34 19 -74 2z"/>
</g>
<g id="part-2" class="char-part">
  <path d="M560 520 c-63 -11 -125 -17 -137 -14 -26 5 -30 -8 -9 -25 8 -7 22
-43 31 -82 15 -60 20 -69 36 -64 10 3 63 7 118 8 l100 2 29 80 c43 116 25 126
-168 95z m120 -42 c0 -32 -1 -33 -45 -33 -44 -1 -45 0 -45 32 0 32 1 33 45 33
44 0 45 -1 45 -32z m-135 -8 c9 -29 -2 -40 -41 -40 -28 0 -36 5 -44 26 -6 14
-10 27 -10 30 0 2 20 4 44 4 36 0 46 -4 51 -20z m131 -62 c-3 -13 -6 -26 -6
-30 0 -5 -18 -8 -40 -8 -36 0 -40 3 -40 24 0 19 6 26 28 29 61 9 65 8 58 -15z
m-128 -20 c-2 -18 -10 -23 -33 -23 -23 0 -31 5 -33 23 -3 19 1 22 33 22 32 0
36 -3 33 -22z"/>
</g>
<g id="part-3" class="char-part">
  <path d="M548 313 c-3 -25 -8 -28 -43 -31 -22 -1 -60 -5 -84 -8 -71 -9 -27
-25 49 -18 l65 6 -50 -52 c-27 -29 -72 -68 -100 -87 -33 -23 -42 -32 -25 -28
49 14 110 49 141 82 18 18 37 33 42 33 4 0 5 -31 1 -69 -7 -78 0 -121 20 -121
21 0 26 23 26 128 l0 97 66 -72 66 -73 63 0 c35 0 66 4 69 9 4 5 -18 17 -46
26 -63 21 -154 74 -187 109 l-24 26 64 1 c35 0 84 4 109 8 l45 8 -29 12 c-22
9 -48 9 -103 1 -97 -13 -93 -14 -93 15 0 37 -38 35 -42 -2z"/>
</g>
</g>
</svg>