<?xml version="1.0" standalone="no"?>
<!DOCTYPE svg PUBLIC "-//W3C//DTD SVG 20010904//EN"
 "http://www.w3.org/TR/2001/REC-SVG-20010904/DTD/svg10.dtd">
<svg version="1.0" xmlns="http://www.w3.org/2000/svg"
 width="96.000000pt" height="68.000000pt" viewBox="0 0 96.000000 68.000000"
 preserveAspectRatio="xMidYMid meet">
<metadata>
Created by potrace 1.16, written by Peter Selinger 2001-2019
Combined from part_0.svg through part_5.svg with named groups
</metadata>
<g transform="translate(0.000000,68.000000) scale(0.100000,-0.100000)" fill="#000000" stroke="none">
<g id="part-0" class="char-part">
  <path d="M305 549 c-16 -5 -55 -8 -85 -7 -45 2 -54 0 -51 -12 3 -8 6 -50 9
-92 6 -110 -13 -205 -54 -274 -19 -31 -32 -59 -29 -62 12 -12 79 55 101 102
21 45 27 51 51 48 21 -2 39 7 67 34 l39 36 -6 -82 c-3 -45 -10 -87 -15 -92
-12 -12 -55 -1 -47 12 3 4 -4 6 -15 3 -18 -5 -16 -10 24 -51 47 -48 64 -50 90
-10 22 35 28 435 6 448 -18 12 -45 11 -85 -1z m45 -78 c0 -50 0 -50 -27 -41
-16 4 -40 11 -55 14 -23 5 -28 12 -28 35 0 31 11 37 78 40 32 1 32 1 32 -48z
m-90 -66 c7 -8 30 -20 51 -25 22 -6 39 -16 39 -23 0 -13 -42 -38 -92 -56 l-28
-11 0 65 c0 66 7 77 30 50z"/>
  <path d="M667 464 c-4 -4 -49 -12 -102 -18 -103 -12 -124 -28 -48 -36 l48 -5
5 -85 c3 -47 5 -88 3 -91 -1 -4 -37 -10 -78 -14 -41 -4 -75 -11 -75 -16 0 -17
47 -20 124 -10 43 6 126 11 186 11 101 0 135 8 115 28 -4 4 -53 6 -110 6 -120
-2 -113 -10 -105 116 l5 75 55 8 c63 10 70 14 50 27 -17 11 -64 13 -73 4z"/>
</g>
<g id="part-1" class="char-part">
  <path d="M305 545 c-22 -8 -60 -11 -85 -8 l-45 5 3 -114 c5 -135 -7 -197 -53
-272 -24 -40 -28 -53 -16 -46 31 16 78 76 91 115 11 32 15 36 37 30 19 -4 35
2 69 30 l44 36 0 -78 c0 -94 -14 -122 -49 -103 -13 6 -24 10 -26 8 -9 -8 58
-68 75 -68 40 0 48 43 51 255 2 183 1 199 -16 211 -22 16 -27 16 -80 -1z m45
-80 l0 -54 -35 15 c-19 7 -46 14 -60 14 -19 0 -25 5 -25 23 0 12 4 28 9 36 9
14 88 31 104 24 4 -3 7 -28 7 -58z m-22 -85 c18 0 23 -5 20 -22 -3 -23 -77
-67 -112 -68 -15 0 -17 5 -12 31 3 17 6 49 6 71 l0 39 37 -26 c21 -14 48 -25
61 -25z"/>
</g>
<g id="part-2" class="char-part">
  <path d="M669 465 c-3 -2 -41 -9 -85 -15 -43 -6 -89 -13 -102 -16 -37 -8 -14
-24 34 -24 27 0 46 -5 49 -12 2 -7 6 -50 10 -95 l6 -81 -85 -7 c-47 -4 -86
-11 -86 -16 0 -17 55 -22 129 -10 42 6 129 11 194 11 116 0 139 7 95 31 -15 8
-50 9 -109 5 -102 -8 -97 -13 -89 109 l5 80 54 8 c61 8 66 11 56 26 -6 11 -67
16 -76 6z"/>
</g>
</g>
</svg>