<?xml version="1.0" standalone="no"?>
<!DOCTYPE svg PUBLIC "-//W3C//DTD SVG 20010904//EN"
 "http://www.w3.org/TR/2001/REC-SVG-20010904/DTD/svg10.dtd">
<svg version="1.0" xmlns="http://www.w3.org/2000/svg"
 width="96.000000pt" height="68.000000pt" viewBox="0 0 96.000000 68.000000"
 preserveAspectRatio="xMidYMid meet">
<metadata>
Created by potrace 1.16, written by Peter Selinger 2001-2019
Combined from part_0.svg through part_5.svg with named groups
</metadata>
<g transform="translate(0.000000,68.000000) scale(0.100000,-0.100000)" fill="#000000" stroke="none">
<g id="part-0" class="char-part">
  <path d="M310 579 c0 -6 -13 -38 -29 -69 -16 -32 -27 -61 -23 -65 4 -4 -5 -1
-21 6 -34 15 -40 9 -27 -25 5 -15 10 -52 10 -82 l0 -54 -54 0 c-30 0 -57 -4
-61 -9 -9 -16 36 -34 71 -28 33 6 34 5 34 -27 0 -36 -46 -135 -66 -143 -15 -6
-19 -23 -5 -23 15 0 62 53 82 91 10 21 21 55 25 78 6 37 9 41 43 46 20 4 49 9
64 12 l28 5 -2 -89 c-2 -97 -10 -116 -45 -107 -33 8 -30 -8 6 -34 37 -28 45
-27 64 0 12 17 16 49 16 130 0 101 1 108 20 108 11 0 20 5 20 10 0 6 -9 10
-21 10 -20 0 -21 4 -18 73 l4 72 -27 0 c-16 -1 -28 3 -28 8 0 4 -10 1 -22 -7
-12 -9 -31 -16 -42 -16 -18 0 -17 3 9 30 15 16 33 27 38 23 6 -4 7 -1 2 6 -4
8 1 18 14 27 27 20 27 28 -4 42 -33 15 -55 15 -55 1z m70 -203 c0 -63 0 -64
-31 -70 -17 -3 -45 -6 -61 -6 l-29 0 3 62 c3 68 11 75 86 77 l32 1 0 -64z"/>
  <path d="M290 382 c0 -9 25 -33 48 -46 13 -8 16 12 4 30 -9 15 -52 28 -52 16z"/>
  <path d="M685 474 c-237 -38 -229 -36 -210 -47 13 -7 49 -6 117 3 83 11 101
11 108 0 14 -23 23 -167 15 -256 -6 -75 -9 -84 -27 -84 -10 0 -28 5 -39 10
-29 16 -23 -3 14 -38 37 -36 71 -41 87 -13 6 12 10 98 10 210 l0 191 40 0 c22
0 40 5 40 10 0 10 -43 31 -58 29 -4 -1 -47 -7 -97 -15z"/>
  <path d="M537 353 c-44 -3 -56 -7 -49 -16 5 -7 15 -34 22 -60 10 -37 16 -47
29 -42 9 4 38 9 64 12 37 5 47 9 42 21 -3 8 2 23 11 33 9 9 14 26 12 36 -3 20
-28 23 -131 16z m76 -21 c3 -4 3 -19 0 -34 -4 -20 -13 -29 -35 -34 -34 -7 -48
6 -48 43 0 21 6 24 67 32 6 0 14 -2 16 -7z"/>
  <path d="M298 210 c17 -30 36 -38 47 -20 7 12 -30 50 -50 50 -12 0 -11 -5 3
-30z"/>
</g>
<g id="part-1" class="char-part">
  <path d="M310 564 c-6 -14 -10 -28 -10 -32 0 -4 -11 -24 -25 -45 -39 -56 -9
-46 55 18 29 30 52 56 49 58 -7 7 -47 27 -54 27 -3 0 -10 -12 -15 -26z"/>
</g>
<g id="part-2" class="char-part">
  <path d="M302 360 c25 -34 36 -37 45 -14 7 19 -21 44 -49 44 -17 0 -17 -2 4
-30z"/>
  <path d="M365 310 c-60 -12 -143 -19 -207 -20 -62 0 -75 -13 -32 -32 21 -10
49 -7 147 12 148 28 197 39 197 45 0 7 -58 4 -105 -5z"/>
</g>
<g id="part-3" class="char-part">
  <path d="M665 470 c-60 -9 -132 -21 -160 -25 -42 -6 -46 -8 -30 -18 14 -7 44
-7 105 1 47 6 123 14 170 18 99 7 111 12 79 30 -29 16 -27 16 -164 -6z"/>
</g>
<g id="part-4" class="char-part">
  <path d="M722 442 c-17 -3 -22 -8 -17 -20 12 -31 18 -177 10 -255 -6 -68 -9
-77 -27 -77 -10 0 -28 5 -39 10 -32 18 -21 -6 21 -44 35 -31 43 -34 59 -24 11
7 22 21 25 33 9 31 7 373 -1 377 -5 2 -18 2 -31 0z"/>
</g>
<g id="part-5" class="char-part">
  <path d="M626 325 c4 -25 3 -35 -7 -35 -7 0 -9 -3 -5 -7 3 -4 -4 -13 -16 -20
-23 -12 -23 -12 -2 -13 26 0 46 22 48 54 0 13 4 22 8 20 12 -8 16 11 4 21 -27
23 -37 16 -30 -20z"/>
  <path d="M500 324 c0 -8 5 -12 10 -9 6 3 10 10 10 16 0 5 -4 9 -10 9 -5 0 -10
-7 -10 -16z"/>
  <path d="M515 300 c-3 -5 -1 -10 4 -10 6 0 11 5 11 10 0 6 -2 10 -4 10 -3 0
-8 -4 -11 -10z"/>
  <path d="M521 263 c7 -10 15 -20 16 -22 2 -2 3 3 3 11 0 9 -7 19 -16 22 -15 6
-15 4 -3 -11z"/>
</g>
</g>
</svg>