<?xml version="1.0" standalone="no"?>
<!DOCTYPE svg PUBLIC "-//W3C//DTD SVG 20010904//EN"
 "http://www.w3.org/TR/2001/REC-SVG-20010904/DTD/svg10.dtd">
<svg version="1.0" xmlns="http://www.w3.org/2000/svg"
 width="96.000000pt" height="68.000000pt" viewBox="0 0 96.000000 68.000000"
 preserveAspectRatio="xMidYMid meet">
<metadata>
Created by potrace 1.16, written by Peter Selinger 2001-2019
Combined from part_0.svg through part_5.svg with named groups
</metadata>
<g transform="translate(0.000000,68.000000) scale(0.100000,-0.100000)" fill="#000000" stroke="none">
<g id="part-0" class="char-part">
  <path d="M578 608 c-3 -40 -5 -43 -43 -52 -22 -5 -42 -11 -45 -13 -8 -7 24
-23 48 -23 22 0 22 -1 8 -35 -8 -19 -11 -37 -6 -40 8 -5 44 33 66 71 8 14 26
19 82 22 40 2 72 8 72 13 0 16 -53 31 -87 25 -36 -5 -38 -4 -22 25 14 27 -5
49 -42 49 -26 0 -28 -3 -31 -42z"/>
  <path d="M280 620 c0 -6 7 -25 16 -41 8 -17 14 -33 11 -35 -2 -3 -31 -6 -63
-8 -42 -3 -58 -7 -56 -17 6 -23 36 -39 62 -33 78 17 77 18 88 -16 15 -43 38
-34 34 13 -3 34 -1 37 38 47 56 15 53 34 -5 26 -44 -7 -45 -7 -45 21 0 16 -5
34 -12 41 -15 15 -68 16 -68 2z"/>
  <path d="M455 420 c-110 -11 -208 -19 -218 -19 -10 -1 -15 -5 -12 -11 3 -5 37
-10 76 -10 l69 0 0 -45 0 -45 -91 0 -91 0 20 -32 c10 -18 25 -66 31 -105 13
-75 23 -92 44 -75 7 5 85 13 174 16 l162 8 7 -26 c14 -58 76 -10 89 69 4 22
14 64 23 94 15 51 15 54 -4 68 -15 11 -39 12 -113 7 l-94 -7 6 33 c4 18 7 39
7 46 0 11 19 14 79 14 85 0 107 10 65 29 -14 6 -26 10 -27 10 -1 -1 -92 -9
-202 -19z m37 -106 c-3 -12 -68 -24 -77 -15 -3 2 -5 24 -5 47 0 42 1 43 38 46
35 3 37 2 42 -32 3 -19 4 -40 2 -46z m187 -66 c0 -24 -6 -60 -12 -81 l-12 -39
-125 -6 c-69 -4 -152 -7 -185 -7 l-60 0 -13 65 c-7 35 -10 70 -8 77 4 8 24 13
55 13 l51 0 -11 -27 c-5 -14 -17 -32 -27 -39 -9 -7 -14 -16 -10 -20 12 -11 52
21 73 60 17 31 24 36 56 36 33 0 37 -3 49 -40 7 -21 17 -37 21 -35 4 3 10 1
14 -5 9 -15 118 -13 113 3 -3 6 -26 14 -53 17 -50 5 -73 25 -62 54 5 13 21 16
77 16 l70 0 -1 -42z"/>
</g>
<g id="part-1" class="char-part">
  <path d="M599 647 c0 -1 -6 -22 -12 -47 -12 -44 -13 -45 -55 -48 -48 -4 -48
-22 0 -22 26 0 30 -3 25 -22 -2 -13 -8 -31 -12 -40 -14 -35 12 -17 39 27 l29
45 69 0 c51 0 69 3 66 13 -3 7 -27 13 -61 15 -54 3 -57 4 -46 23 14 26 6 45
-20 52 -12 3 -21 4 -22 4z"/>
  <path d="M290 616 c0 -2 7 -19 15 -39 14 -33 13 -35 -8 -41 -12 -3 -41 -6 -64
-6 -48 0 -56 -15 -18 -32 19 -8 35 -8 64 0 50 16 47 17 61 -18 17 -41 33 -38
28 5 -4 33 -2 36 34 47 50 15 48 25 -4 24 -41 -1 -43 0 -46 32 -3 28 -7 32
-33 32 -16 0 -29 -2 -29 -4z"/>
</g>
<g id="part-2" class="char-part">
  <path d="M450 420 c-107 -11 -203 -19 -213 -19 -11 -1 -15 -6 -11 -12 4 -8 38
-9 108 -5 55 3 162 9 236 12 74 4 137 8 139 10 8 8 -14 23 -39 27 -14 3 -113
-3 -220 -13z"/>
</g>
<g id="part-3" class="char-part">
  <path d="M494 385 c-4 -8 -4 -47 -2 -86 5 -90 25 -111 101 -107 68 4 77 28 10
28 -27 0 -54 5 -61 12 -14 14 -16 80 -3 125 7 25 6 33 -6 37 -23 9 -33 7 -39
-9z"/>
  <path d="M368 319 c-4 -52 -11 -79 -28 -101 -26 -36 -20 -47 14 -24 35 22 52
60 59 128 4 45 2 58 -10 62 -28 11 -30 6 -35 -65z"/>
</g>
<g id="part-4" class="char-part">
  <path d="M520 304 c-69 -7 -171 -13 -227 -13 -57 -1 -103 -4 -103 -8 0 -3 7
-14 15 -23 8 -9 22 -52 31 -96 18 -89 30 -112 48 -90 8 10 52 15 172 20 l162
7 6 -25 c8 -34 40 -34 63 0 9 14 25 60 34 103 10 42 21 85 24 97 5 15 0 23
-20 32 -30 14 -38 14 -205 -4z m161 -31 c2 -29 -1 -55 -12 -103 l-10 -45 -112
-4 c-62 -3 -146 -5 -187 -5 l-75 -1 -13 68 c-8 38 -11 72 -7 75 8 9 234 29
338 31 67 1 77 -1 78 -16z"/>
</g>
</g>
</svg>