<?xml version="1.0" standalone="no"?>
<!DOCTYPE svg PUBLIC "-//W3C//DTD SVG 20010904//EN"
 "http://www.w3.org/TR/2001/REC-SVG-20010904/DTD/svg10.dtd">
<svg version="1.0" xmlns="http://www.w3.org/2000/svg"
 width="96.000000pt" height="68.000000pt" viewBox="0 0 96.000000 68.000000"
 preserveAspectRatio="xMidYMid meet">
<metadata>
Created by potrace 1.16, written by Peter Selinger 2001-2019
Combined from part_0.svg through part_5.svg with named groups
</metadata>
<g transform="translate(0.000000,68.000000) scale(0.100000,-0.100000)" fill="#000000" stroke="none">
<g id="part-0" class="char-part">
  <path d="M258 535 c5 -73 -1 -85 -50 -85 -33 0 -58 -9 -58 -21 0 -5 24 -9 54
-9 47 0 54 -3 60 -22 15 -57 10 -65 -49 -73 -30 -3 -55 -10 -55 -14 0 -4 29
-24 65 -44 36 -21 65 -42 65 -47 0 -23 -112 -85 -185 -103 -11 -2 2 -3 28 0
50 4 147 44 168 69 17 21 25 18 108 -35 95 -61 156 -92 201 -102 38 -10 230 9
230 22 0 4 -33 13 -72 19 -154 25 -246 50 -330 89 -49 22 -88 43 -88 48 0 10
52 86 68 99 25 19 -12 38 -59 30 l-40 -6 3 41 c3 40 5 43 43 53 55 16 54 41
-2 40 l-42 -1 -3 56 c-3 55 -4 56 -34 59 l-32 3 6 -66z m88 -236 c-10 -54 -27
-61 -77 -35 -24 13 -45 28 -46 33 -4 10 62 30 106 32 21 1 23 -2 17 -30z"/>
  <path d="M665 516 l-40 -14 48 -1 47 -1 0 -117 c0 -154 -3 -164 -44 -156 l-31
6 29 -32 c35 -36 46 -38 71 -11 17 18 19 40 19 178 l1 157 -30 2 c-16 1 -48
-4 -70 -11z"/>
  <path d="M490 495 c-50 -14 -46 -18 18 -15 l42 2 0 -107 c0 -116 -10 -150 -41
-140 -25 8 -24 1 3 -30 50 -57 66 -20 71 163 l3 142 -25 -1 c-14 -1 -46 -7
-71 -14z"/>
  <path d="M619 432 c17 -32 50 -47 57 -27 8 20 -3 32 -40 41 -26 6 -27 5 -17
-14z"/>
  <path d="M450 420 c9 -18 40 -40 54 -40 18 0 2 39 -19 48 -38 17 -47 15 -35
-8z"/>
  <path d="M461 314 c-42 -19 -51 -28 -40 -35 7 -5 20 -9 27 -9 15 0 82 51 82
63 0 11 -9 8 -69 -19z"/>
  <path d="M633 323 c-37 -19 -41 -28 -16 -37 11 -5 27 3 47 24 34 33 21 39 -31
13z"/>
</g>
<g id="part-1" class="char-part">
  <path d="M258 568 c4 -18 7 -51 7 -73 l0 -40 -52 -8 c-69 -11 -68 -27 2 -27
l55 0 0 -40 c0 -33 3 -40 19 -40 17 0 20 8 23 47 3 46 4 48 42 58 22 7 41 16
43 22 6 17 -33 26 -57 13 -19 -10 -20 -8 -20 49 0 61 -7 71 -51 71 -16 0 -17
-5 -11 -32z"/>
</g>
<g id="part-2" class="char-part">
  <path d="M308 345 c-25 -7 -71 -16 -102 -19 -31 -4 -54 -11 -51 -16 3 -5 34
-25 70 -45 36 -20 65 -40 65 -44 0 -22 -71 -63 -160 -93 l-55 -19 54 6 c62 7
110 25 163 61 l36 25 79 -49 c99 -62 169 -98 209 -106 30 -7 191 9 224 21 8 3
-55 19 -140 35 -126 24 -172 37 -252 75 -54 25 -98 49 -98 52 0 3 18 29 39 57
55 73 31 90 -81 59z m42 -33 c0 -23 -28 -62 -45 -62 -24 0 -100 49 -85 54 84
29 130 32 130 8z"/>
</g>
<g id="part-3" class="char-part">
  <path d="M485 495 l-40 -13 53 -1 52 -1 0 -94 c0 -51 -3 -108 -6 -125 -6 -28
-10 -32 -30 -27 -30 8 -30 -4 -1 -32 53 -50 64 -24 69 161 l4 147 -30 -1 c-17
-1 -49 -7 -71 -14z"/>
</g>
<g id="part-4" class="char-part">
  <path d="M470 317 c-30 -11 -57 -22 -60 -24 -7 -6 23 -23 40 -23 15 1 85 58
78 65 -1 1 -28 -7 -58 -18z"/>
</g>
<g id="part-5" class="char-part">
  <path d="M635 315 l-30 -14 26 -1 c15 0 29 7 33 15 3 8 4 15 3 14 -1 0 -15 -7
-32 -14z"/>
</g>
</g>
</svg>