<?xml version="1.0" standalone="no"?>
<!DOCTYPE svg PUBLIC "-//W3C//DTD SVG 20010904//EN"
 "http://www.w3.org/TR/2001/REC-SVG-20010904/DTD/svg10.dtd">
<svg version="1.0" xmlns="http://www.w3.org/2000/svg"
 width="96.000000pt" height="68.000000pt" viewBox="0 0 96.000000 68.000000"
 preserveAspectRatio="xMidYMid meet">
<metadata>
Created by potrace 1.16, written by Peter Selinger 2001-2019
Combined from part_0.svg through part_5.svg with named groups
</metadata>
<g transform="translate(0.000000,68.000000) scale(0.100000,-0.100000)" fill="#000000" stroke="none">
<g id="part-0" class="char-part">
  <path d="M296 552 l6 -40 -51 -7 c-28 -4 -51 -11 -51 -16 0 -13 46 -22 75 -15
20 5 25 3 25 -13 0 -20 -13 -23 -138 -37 -69 -7 -84 -17 -52 -34 17 -9 46 -8
123 5 56 9 109 18 117 21 13 3 15 -3 12 -31 -4 -31 -8 -35 -32 -35 -19 0 -29
6 -33 20 -3 12 -14 20 -26 20 -19 0 -20 -3 -10 -21 13 -24 4 -35 -31 -42 -14
-2 -5 -5 23 -6 43 -1 47 -3 47 -25 0 -22 -5 -25 -57 -31 -89 -11 -101 -27 -17
-21 l72 5 6 -40 c8 -51 28 -47 38 7 8 37 10 39 49 41 69 3 68 28 -1 26 -36 -1
-40 2 -40 23 0 19 5 24 28 24 42 0 60 16 28 24 -25 6 -26 8 -11 23 9 8 14 22
11 30 -4 9 4 16 24 20 60 12 26 35 -39 26 -32 -4 -41 -2 -41 10 0 16 20 27 48
27 9 0 24 5 32 10 13 9 13 11 0 20 -8 5 -27 10 -42 10 -22 0 -27 5 -30 28 -2
22 -8 28 -36 30 l-32 3 6 -39z"/>
  <path d="M514 508 c1 -68 0 -73 -21 -76 -31 -5 -29 -22 2 -22 18 0 25 -5 25
-20 0 -14 -7 -20 -22 -20 -21 0 -21 -1 -3 -14 18 -13 18 -14 1 -42 -10 -16
-30 -41 -44 -57 -18 -18 -23 -30 -16 -37 6 -6 9 -24 6 -40 -4 -29 -7 -30 -53
-30 -69 0 -71 -18 -2 -22 57 -3 58 -4 61 -34 3 -29 0 -32 -35 -37 -21 -4 -77
-7 -125 -7 -48 0 -89 -4 -93 -9 -10 -18 63 -23 165 -12 55 6 168 11 250 11
149 0 181 8 117 29 -23 8 -61 8 -128 1 -51 -5 -98 -10 -102 -10 -5 0 -7 17 -5
38 l3 37 59 7 c32 4 62 10 65 13 13 14 -28 25 -71 19 -46 -5 -48 -4 -48 19 0
14 -7 30 -15 37 -13 11 -11 16 15 41 16 16 30 34 30 40 0 6 13 7 35 3 29 -5
35 -3 35 11 0 9 -9 19 -20 22 -15 4 -20 14 -20 39 0 37 3 41 45 45 l30 4 0
-79 c0 -80 0 -80 34 -103 26 -18 48 -23 96 -23 34 0 65 3 68 6 4 4 0 19 -7 33
-8 14 -18 37 -23 51 -10 24 -10 23 -17 -14 l-7 -38 -42 5 c-59 8 -78 34 -65
89 5 24 16 50 23 58 30 33 -38 54 -99 30 -29 -10 -30 -7 -26 72 1 27 -4 39
-19 47 -34 19 -37 13 -37 -61z"/>
</g>
<g id="part-1" class="char-part">
  <path d="M302 554 c12 -45 2 -54 -59 -54 -24 0 -43 -4 -43 -10 0 -5 25 -10 55
-10 48 0 55 -3 55 -19 0 -21 -14 -25 -105 -36 -82 -10 -105 -16 -99 -26 8 -14
45 -11 201 13 146 23 183 38 93 38 -42 0 -50 3 -50 19 0 19 25 31 69 31 20 0
22 3 13 12 -7 7 -28 11 -47 10 -34 -3 -35 -1 -29 24 7 29 -7 44 -43 44 -20 0
-21 -3 -11 -36z"/>
</g>
<g id="part-2" class="char-part">
  <path d="M520 340 c50 -33 83 -39 78 -14 -2 10 -22 22 -48 30 -70 21 -79 16
-30 -16z"/>
</g>
<g id="part-3" class="char-part">
  <path d="M438 195 l5 -45 -57 0 c-74 0 -73 -18 2 -22 56 -3 57 -4 60 -34 l3
-31 -68 -6 c-37 -4 -96 -7 -130 -7 -35 0 -63 -4 -63 -10 0 -17 68 -22 170 -11
55 6 168 11 250 11 85 0 150 4 150 9 0 21 -66 31 -155 22 -49 -4 -96 -6 -103
-3 -8 3 -12 17 -10 36 3 30 5 31 61 37 32 4 61 9 64 13 13 13 -11 21 -63 20
-53 -2 -54 -1 -54 26 0 20 -6 29 -22 34 -43 11 -46 8 -40 -39z"/>
</g>
</g>
</svg>