<?xml version="1.0" standalone="no"?>
<!DOCTYPE svg PUBLIC "-//W3C//DTD SVG 20010904//EN"
 "http://www.w3.org/TR/2001/REC-SVG-20010904/DTD/svg10.dtd">
<svg version="1.0" xmlns="http://www.w3.org/2000/svg"
 width="96.000000pt" height="68.000000pt" viewBox="0 0 96.000000 68.000000"
 preserveAspectRatio="xMidYMid meet">
<metadata>
Created by potrace 1.16, written by Peter Selinger 2001-2019
Combined from part_0.svg through part_5.svg with named groups
</metadata>
<g transform="translate(0.000000,68.000000) scale(0.100000,-0.100000)" fill="#000000" stroke="none">
<g id="part-0" class="char-part">
  <path d="M292 576 c-13 -35 -89 -111 -143 -143 -37 -22 -37 -35 -1 -27 26 6
41 14 98 51 l25 16 -3 -66 c-1 -43 2 -71 10 -79 6 -6 12 -20 12 -30 0 -9 5
-28 11 -41 10 -22 15 -24 48 -16 56 13 71 11 71 -10 0 -22 -19 -31 -66 -31
-19 0 -34 -5 -34 -11 0 -8 17 -10 50 -7 43 4 50 3 50 -12 0 -21 -28 -30 -97
-30 -33 0 -53 -4 -53 -11 0 -8 39 -10 138 -5 165 8 232 15 232 26 0 13 -55 19
-113 11 -59 -8 -67 -6 -67 15 0 8 19 16 50 20 28 4 50 10 50 15 0 5 -22 9 -50
9 -38 0 -50 4 -50 15 0 15 13 18 85 19 37 1 40 3 59 51 12 28 25 53 31 57 6 4
2 13 -10 23 -15 11 -32 14 -65 9 -25 -4 -93 -12 -151 -18 l-105 -11 7 40 c5
22 8 56 9 74 0 24 9 44 27 63 22 23 25 32 17 46 -6 9 -22 18 -35 20 -20 2 -27
-4 -37 -32z m278 -226 c0 -34 -22 -70 -44 -70 -12 0 -31 -3 -43 -6 -21 -6 -23
-3 -23 39 0 49 4 53 78 56 26 1 32 -3 32 -19z m-155 -41 l0 -44 -46 -3 c-32
-2 -46 1 -46 10 -1 7 -4 27 -8 45 -7 32 -7 32 36 36 63 5 64 5 64 -44z"/>
  <path d="M496 324 c-4 -9 -5 -19 -2 -21 7 -7 46 17 46 27 0 17 -37 11 -44 -6z"/>
  <path d="M352 308 c18 -26 38 -35 38 -16 0 18 -20 38 -38 38 -12 0 -12 -3 0
-22z"/>
  <path d="M412 601 c-10 -6 -4 -15 22 -35 20 -15 40 -35 46 -46 9 -17 4 -20
-48 -31 -58 -12 -91 -29 -57 -29 10 0 46 5 81 11 67 12 73 10 154 -52 64 -48
198 -86 214 -60 4 5 -6 28 -21 51 l-28 43 -9 -27 c-6 -14 -15 -26 -22 -26 -26
0 -98 32 -140 62 l-45 32 33 12 c18 6 32 15 30 20 -3 9 -24 8 -68 -1 -16 -4
-29 5 -50 33 -40 54 -61 63 -92 43z"/>
  <path d="M610 589 c0 -11 50 -49 66 -49 25 0 27 23 4 40 -24 18 -70 24 -70 9z"/>
  <path d="M188 81 c-16 -22 -28 -46 -28 -55 0 -22 33 -20 53 2 17 18 24 92 10
92 -5 0 -20 -18 -35 -39z"/>
  <path d="M481 112 c2 -22 46 -87 60 -90 23 -4 32 27 15 53 -14 21 -77 52 -75
37z"/>
  <path d="M640 102 c5 -9 25 -34 44 -56 33 -38 56 -41 56 -8 -1 28 -25 51 -69
67 -38 13 -41 13 -31 -3z"/>
  <path d="M337 104 c-9 -9 36 -84 50 -84 8 0 13 12 13 30 0 22 -7 33 -29 44
-16 9 -31 13 -34 10z"/>
</g>
<g id="part-1" class="char-part">
  <path d="M300 584 c-18 -46 -51 -85 -113 -130 -71 -53 -54 -58 27 -9 32 19 61
35 64 35 2 0 2 -20 0 -44 -6 -47 3 -73 21 -62 6 4 11 36 11 75 0 62 2 70 31
97 l30 29 -22 17 c-29 24 -38 23 -49 -8z"/>
</g>
<g id="part-2" class="char-part">
  <path d="M406 601 c-3 -5 14 -27 39 -49 25 -22 45 -42 45 -44 0 -3 -24 -10
-52 -17 -112 -25 -90 -43 25 -20 55 11 56 11 104 -24 71 -51 148 -87 202 -94
54 -6 73 8 47 35 -8 10 -22 33 -30 52 -14 32 -15 33 -16 10 -1 -45 -14 -55
-55 -43 -41 13 -145 73 -145 84 0 4 14 12 32 18 45 16 24 33 -27 21 -36 -9
-42 -7 -55 13 -29 43 -59 67 -84 67 -14 0 -27 -4 -30 -9z"/>
</g>
<g id="part-3" class="char-part">
  <path d="M549 396 c-5 -6 -181 -26 -245 -28 l-51 -2 18 -31 c11 -16 19 -35 19
-42 0 -6 4 -23 9 -36 9 -23 12 -24 66 -15 31 4 92 10 137 11 l80 2 28 63 c28
59 28 62 10 72 -19 10 -63 14 -71 6z m21 -46 c0 -10 -5 -30 -11 -43 -10 -22
-21 -26 -98 -36 -140 -18 -135 -19 -146 40 l-7 36 99 10 c158 16 163 16 163
-7z"/>
</g>
<g id="part-4" class="char-part">
  <path d="M420 231 c0 -20 -25 -31 -73 -31 -18 0 -26 -4 -21 -11 4 -7 23 -9 50
-5 38 5 44 3 44 -13 0 -21 -35 -31 -112 -31 -33 0 -47 -4 -42 -11 7 -11 190
-5 319 10 58 7 59 8 32 19 -16 7 -38 10 -50 8 -12 -3 -41 -7 -64 -10 -38 -6
-43 -4 -43 14 0 16 9 21 50 26 28 4 50 10 50 15 0 5 -22 9 -50 9 -38 0 -50 4
-50 15 0 8 -9 15 -20 15 -13 0 -20 -7 -20 -19z"/>
</g>
<g id="part-5" class="char-part">
  <path d="M490 106 c0 -11 43 -76 50 -76 4 0 10 7 14 15 3 8 0 15 -6 15 -6 0
-8 3 -5 7 11 11 -14 32 -30 26 -11 -4 -14 -2 -9 5 4 7 2 12 -3 12 -6 0 -11 -2
-11 -4z"/>
  <path d="M655 95 c11 -9 19 -19 18 -23 -1 -4 1 -9 4 -12 4 -3 3 0 -1 7 -4 8 1
11 13 10 14 -1 17 -5 11 -12 -6 -8 -4 -19 5 -31 12 -16 16 -17 24 -5 9 14 -16
67 -27 56 -3 -2 -10 -1 -16 4 -6 4 -20 11 -31 14 l-20 7 20 -15z"/>
  <path d="M191 74 c-25 -32 -26 -40 -4 -48 21 -8 33 8 38 52 3 29 -9 28 -34 -4z"/>
  <path d="M340 90 c0 -6 6 -13 14 -16 8 -3 13 -11 10 -18 -3 -7 2 -19 11 -26 8
-7 15 -11 16 -9 1 2 2 16 3 31 2 20 -1 25 -12 20 -9 -3 -13 -1 -9 5 4 6 0 14
-9 17 -21 8 -24 8 -24 -4z"/>
</g>
</g>
</svg>