<?xml version="1.0" standalone="no"?>
<!DOCTYPE svg PUBLIC "-//W3C//DTD SVG 20010904//EN"
 "http://www.w3.org/TR/2001/REC-SVG-20010904/DTD/svg10.dtd">
<svg version="1.0" xmlns="http://www.w3.org/2000/svg"
 width="96.000000pt" height="68.000000pt" viewBox="0 0 96.000000 68.000000"
 preserveAspectRatio="xMidYMid meet">
<metadata>
Created by potrace 1.16, written by Peter Selinger 2001-2019
Combined from part_0.svg through part_5.svg with named groups
</metadata>
<g transform="translate(0.000000,68.000000) scale(0.100000,-0.100000)" fill="#000000" stroke="none">
<g id="part-0" class="char-part">
  <path d="M566 547 c7 -63 5 -65 -66 -74 -30 -3 -50 -11 -50 -18 0 -13 29 -13
86 0 27 6 32 4 37 -17 12 -42 8 -47 -43 -54 -27 -4 -50 -10 -50 -15 0 -11 64
-11 112 0 39 9 48 2 48 -39 0 -23 -9 -25 -137 -40 -131 -16 -138 -35 -10 -27
50 4 107 9 125 13 l32 6 0 -96 c0 -106 -8 -119 -57 -97 -41 19 -38 6 8 -37 76
-70 104 -31 93 130 l-7 96 82 7 c44 4 81 11 81 15 0 16 -61 29 -108 23 l-49
-5 0 31 c0 27 4 31 29 31 15 0 28 4 28 10 0 16 -48 23 -90 12 l-40 -10 0 38
c0 37 1 37 46 44 26 3 64 6 85 6 44 0 52 16 14 26 -25 6 -74 1 -122 -12 -20
-6 -22 -2 -25 47 -3 51 -5 54 -31 57 l-27 3 6 -54z"/>
  <path d="M210 563 c0 -5 12 -25 26 -46 20 -30 31 -38 51 -35 35 4 39 21 11 51
-22 25 -88 47 -88 30z"/>
  <path d="M218 456 c-121 -22 -143 -31 -118 -46 23 -15 66 -12 175 11 55 12
111 23 125 26 24 4 24 5 6 19 -25 18 -45 17 -188 -10z"/>
  <path d="M235 365 l-50 -13 51 -1 c64 -1 115 9 108 20 -7 12 -48 9 -109 -6z"/>
  <path d="M240 297 c-45 -8 -50 -11 -30 -17 30 -7 140 9 140 21 0 11 -39 10
-110 -4z"/>
  <path d="M285 230 c-11 -5 -45 -9 -75 -9 -31 -1 -50 -5 -43 -9 7 -5 20 -32 29
-61 12 -42 19 -51 32 -46 9 3 38 9 63 12 44 5 46 7 63 54 9 27 14 54 11 59 -7
12 -52 12 -80 0z m26 -52 c-5 -24 -15 -36 -34 -42 -31 -11 -42 -4 -52 36 -6
23 -4 27 22 31 70 10 71 10 64 -25z"/>
  <path d="M470 219 c0 -20 44 -69 62 -69 21 0 25 32 5 48 -22 18 -67 33 -67 21z"/>
</g>
<g id="part-1" class="char-part">
  <path d="M240 520 c33 -42 62 -49 68 -17 5 24 -36 56 -71 57 l-29 0 32 -40z"/>
  <path d="M232 455 c-151 -29 -154 -30 -119 -44 23 -9 54 -6 163 16 74 15 134
30 134 35 0 4 -6 8 -14 8 -8 0 -20 2 -28 4 -7 2 -68 -6 -136 -19z"/>
</g>
<g id="part-2" class="char-part">
  <path d="M285 230 c-11 -5 -47 -9 -79 -9 -51 -1 -57 -3 -43 -14 10 -7 24 -32
31 -57 15 -49 10 -47 101 -32 32 5 49 13 47 21 -1 7 6 27 17 45 16 25 18 35 9
44 -14 14 -54 15 -83 2z m23 -52 c-2 -26 -9 -33 -33 -40 -34 -9 -41 -4 -50 34
-7 28 2 33 63 37 20 1 23 -3 20 -31z"/>
</g>
<g id="part-3" class="char-part">
  <path d="M561 571 c6 -16 9 -42 7 -58 -3 -26 -7 -29 -65 -37 -65 -9 -79 -20
-42 -31 19 -6 43 -3 92 11 14 4 17 -1 17 -29 0 -36 -15 -47 -67 -47 -13 0 -23
-5 -23 -11 0 -9 19 -10 68 -5 37 4 96 10 132 13 36 3 67 7 70 10 13 13 -31 23
-77 18 l-53 -6 0 34 c0 33 1 34 46 41 26 3 64 6 85 6 22 0 39 4 39 9 0 17 -41
23 -99 16 -31 -4 -58 -5 -61 -4 -3 2 -5 20 -6 40 -1 47 -10 59 -44 59 -28 0
-29 -1 -19 -29z"/>
</g>
<g id="part-4" class="char-part">
  <path d="M640 344 c6 -15 9 -29 6 -31 -4 -5 -197 -32 -228 -33 -10 0 -18 -5
-18 -12 0 -11 147 -6 218 8 l32 7 0 -97 c0 -106 -8 -119 -57 -97 -41 19 -38 6
8 -37 75 -70 101 -34 92 126 l-5 99 32 7 c18 3 54 6 81 6 27 0 49 4 49 9 0 17
-55 29 -109 23 -51 -5 -53 -4 -49 19 3 21 -2 24 -29 27 -32 3 -33 2 -23 -24z"/>
</g>
<g id="part-5" class="char-part">
  <path d="M479 202 c11 -22 41 -48 41 -37 0 4 6 2 13 -4 11 -8 13 -6 12 10 -1
21 -37 48 -63 49 -9 0 -10 -5 -3 -18z"/>
</g>
</g>
</svg>