<?xml version="1.0" standalone="no"?>
<!DOCTYPE svg PUBLIC "-//W3C//DTD SVG 20010904//EN"
 "http://www.w3.org/TR/2001/REC-SVG-20010904/DTD/svg10.dtd">
<svg version="1.0" xmlns="http://www.w3.org/2000/svg"
 width="96.000000pt" height="68.000000pt" viewBox="0 0 96.000000 68.000000"
 preserveAspectRatio="xMidYMid meet">
<metadata>
Created by potrace 1.16, written by Peter Selinger 2001-2019
Combined from part_0.svg through part_5.svg with named groups
</metadata>
<g transform="translate(0.000000,68.000000) scale(0.100000,-0.100000)" fill="#000000" stroke="none">
<g id="part-0" class="char-part">
  <path d="M520 596 c0 -8 7 -21 15 -30 23 -23 19 -26 -32 -27 -27 0 -57 -4 -68
-8 -16 -7 -14 -9 13 -14 23 -5 32 -12 32 -26 0 -11 5 -23 10 -26 6 -3 10 -12
10 -19 0 -9 -22 -16 -70 -20 -38 -4 -70 -11 -70 -16 0 -15 49 -20 92 -10 24 6
113 13 198 16 181 6 192 9 162 30 -18 12 -38 14 -104 8 l-81 -7 22 31 c12 18
20 36 17 41 -4 5 7 12 24 16 57 13 33 28 -35 23 -48 -4 -65 -2 -65 7 0 17 -33
45 -53 45 -9 0 -17 -6 -17 -14z m100 -90 c0 -8 -4 -26 -10 -40 -8 -21 -16 -26
-43 -26 -30 0 -36 4 -50 40 l-15 40 59 0 c45 0 59 -3 59 -14z"/>
  <path d="M236 513 c-49 -7 -92 -16 -95 -18 -9 -10 10 -19 52 -24 l42 -6 0 -50
0 -50 -37 -3 c-51 -4 -48 -20 4 -24 l43 -3 3 -51 3 -51 -66 -18 -67 -18 24
-19 c12 -9 26 -18 30 -18 14 0 219 102 214 107 -3 3 -19 0 -37 -6 -54 -19 -59
-16 -59 39 l0 50 40 6 c45 7 44 24 -1 24 -21 0 -29 5 -30 18 0 9 -2 31 -3 47
-3 35 8 45 51 45 41 0 52 17 18 30 -14 6 -29 9 -33 9 -4 -1 -47 -8 -96 -16z"/>
  <path d="M535 372 l-111 -17 13 -25 c7 -14 13 -34 13 -45 1 -53 10 -63 50 -58
33 5 39 2 45 -17 4 -12 4 -25 0 -28 -3 -4 -46 -12 -93 -17 -83 -10 -86 -12
-60 -24 22 -11 39 -12 84 -3 31 7 60 9 65 6 5 -3 9 -34 9 -69 0 -35 5 -67 10
-70 15 -9 30 39 30 96 0 56 -8 53 140 54 60 0 75 3 75 15 0 13 -17 15 -102 12
-85 -2 -103 0 -103 12 0 8 -3 22 -7 32 -6 15 -1 16 40 11 44 -6 47 -5 53 18 3
14 9 25 13 25 11 0 32 83 23 92 -16 16 -77 16 -187 0z m135 -31 c0 -16 -12
-19 -96 -25 -64 -5 -100 -4 -107 3 -24 24 16 35 151 39 45 2 52 -1 52 -17z
m-10 -55 c0 -21 -6 -23 -97 -31 -79 -7 -83 -6 -83 13 0 17 8 22 43 25 103 9
137 7 137 -7z"/>
</g>
<g id="part-1" class="char-part">
  <path d="M233 506 c-88 -14 -104 -26 -33 -26 71 0 181 20 174 31 -6 11 -46 10
-141 -5z"/>
</g>
<g id="part-2" class="char-part">
  <path d="M238 429 c5 -57 -3 -69 -50 -69 -16 0 -28 -4 -28 -10 0 -5 18 -10 39
-10 44 0 51 -10 51 -70 0 -36 -1 -38 -47 -50 -97 -25 -90 -20 -64 -41 13 -11
29 -19 35 -19 7 0 62 25 122 56 102 52 104 57 17 37 -22 -5 -23 -2 -23 45 l0
50 40 7 c49 8 53 25 5 25 l-35 0 0 50 0 50 -34 0 -33 0 5 -51z"/>
</g>
<g id="part-3" class="char-part">
  <path d="M520 597 c0 -7 7 -23 16 -35 15 -22 15 -22 -33 -23 -26 0 -57 -4 -68
-8 -36 -14 33 -20 130 -10 124 12 155 18 155 31 0 7 -22 9 -65 6 -54 -5 -65
-3 -65 10 0 18 -29 41 -52 42 -10 0 -18 -6 -18 -13z"/>
</g>
<g id="part-4" class="char-part">
  <path d="M614 488 c-8 -40 -12 -43 -44 -46 -33 -3 -37 0 -48 33 -15 39 -48 50
-39 13 2 -13 7 -30 11 -39 6 -14 -5 -18 -66 -25 -67 -9 -71 -10 -50 -22 18
-11 34 -11 75 -2 29 6 125 14 215 17 89 3 162 9 162 14 0 17 -68 28 -132 20
-38 -4 -68 -5 -68 -4 0 2 10 17 21 32 23 31 19 51 -10 51 -12 0 -20 -12 -27
-42z"/>
</g>
<g id="part-5" class="char-part">
  <path d="M560 210 c0 -5 1 -11 2 -12 1 -2 -4 -13 -11 -25 -6 -13 -8 -23 -4
-23 4 0 6 -25 5 -55 -3 -37 0 -55 8 -55 6 0 8 -5 4 -12 -4 -7 -3 -8 4 -4 6 4
11 20 12 36 0 17 0 44 0 60 1 38 33 53 99 46 l46 -5 -40 10 c-22 5 -49 8 -60
5 -25 -6 -53 8 -36 18 6 4 9 12 6 17 -8 12 -35 12 -35 -1z"/>
  <path d="M726 175 c4 -8 13 -15 21 -15 8 0 12 4 8 9 -3 5 3 12 12 14 10 3 4 5
-14 6 -25 1 -31 -2 -27 -14z"/>
  <path d="M505 160 c-3 -5 1 -10 10 -10 9 0 13 5 10 10 -3 6 -8 10 -10 10 -2 0
-7 -4 -10 -10z"/>
  <path d="M778 163 c7 -3 16 -2 19 1 4 3 -2 6 -13 5 -11 0 -14 -3 -6 -6z"/>
  <path d="M383 154 c3 -3 30 -8 59 -9 41 -3 46 -2 23 4 -36 10 -91 13 -82 5z"/>
</g>
</g>
</svg>