<?xml version="1.0" standalone="no"?>
<!DOCTYPE svg PUBLIC "-//W3C//DTD SVG 20010904//EN"
 "http://www.w3.org/TR/2001/REC-SVG-20010904/DTD/svg10.dtd">
<svg version="1.0" xmlns="http://www.w3.org/2000/svg"
 width="96.000000pt" height="68.000000pt" viewBox="0 0 96.000000 68.000000"
 preserveAspectRatio="xMidYMid meet">
<metadata>
Created by potrace 1.16, written by Peter Selinger 2001-2019
Combined from part_0.svg through part_5.svg with named groups
</metadata>
<g transform="translate(0.000000,68.000000) scale(0.100000,-0.100000)" fill="#000000" stroke="none">
<g id="part-0" class="char-part">
  <path d="M534 603 c-13 -43 -38 -90 -66 -125 -38 -48 -17 -51 38 -4 36 31 45
33 127 38 93 6 124 18 90 36 -13 7 -40 6 -86 -2 l-67 -13 16 25 c16 24 16 26
-6 44 -28 23 -39 23 -46 1z"/>
  <path d="M300 579 c0 -25 -36 -87 -73 -126 -23 -24 -38 -45 -35 -49 10 -9 60
21 92 55 24 25 38 31 75 32 65 2 104 12 109 28 4 11 -7 13 -56 8 -60 -5 -61
-5 -51 16 9 16 8 23 -7 34 -22 16 -54 17 -54 2z"/>
  <path d="M578 492 c-26 -5 -22 -17 13 -47 35 -29 64 -30 64 -1 0 22 -51 54
-77 48z"/>
  <path d="M330 450 c25 -35 60 -41 60 -10 0 20 -33 40 -66 40 -12 0 -11 -6 6
-30z"/>
  <path d="M536 398 c-3 -18 -20 -60 -36 -92 -17 -33 -28 -61 -26 -63 2 -2 17
11 32 30 25 29 39 35 102 46 40 7 75 11 78 8 2 -2 0 -16 -5 -31 -12 -29 -1
-34 23 -11 8 9 17 15 18 14 8 -5 48 14 48 22 0 6 -17 17 -37 25 -28 12 -45 13
-77 5 -105 -26 -112 -24 -79 26 16 24 16 26 -2 39 -27 20 -32 18 -39 -18z"/>
  <path d="M286 393 c4 -16 9 -30 11 -33 3 -3 -15 -10 -39 -16 l-43 -12 43 -1
c34 -1 42 -5 42 -20 0 -19 -34 -31 -87 -31 -20 0 -24 -4 -18 -17 3 -10 9 -30
12 -45 4 -23 11 -28 34 -28 16 0 29 -4 29 -8 0 -13 -93 -97 -123 -112 -16 -8
-24 -16 -19 -18 14 -4 83 32 121 64 18 14 34 25 36 22 3 -2 0 -21 -6 -43 -8
-27 -8 -45 0 -62 19 -43 36 -21 39 50 2 37 5 67 8 67 3 0 17 -9 31 -20 30 -23
63 -26 63 -5 0 9 -19 20 -47 28 -62 18 -72 46 -16 48 21 1 41 1 46 0 4 0 7 4
7 10 0 6 9 24 21 41 12 16 20 30 18 32 -21 17 -47 22 -77 15 -43 -9 -52 -5
-45 21 4 14 14 20 33 20 35 0 60 9 60 22 0 5 -19 8 -42 6 -32 -2 -42 0 -40 11
4 19 -17 41 -39 41 -16 0 -18 -5 -13 -27z m102 -140 c-2 -23 -8 -29 -35 -31
-29 -3 -33 0 -33 21 0 31 7 37 42 37 26 0 29 -3 26 -27z m-90 -10 c-6 -50 -67
-41 -68 10 0 13 8 17 36 17 33 0 35 -2 32 -27z"/>
  <path d="M560 250 c0 -78 -46 -151 -119 -190 -31 -16 -33 -19 -13 -20 45 0
105 46 149 116 14 21 9 25 104 -88 35 -42 45 -48 77 -47 20 0 46 4 57 8 17 7
10 13 -43 39 -35 18 -88 53 -118 78 -48 41 -54 51 -54 84 0 29 -4 39 -20 43
-16 4 -20 0 -20 -23z"/>
</g>
<g id="part-1" class="char-part">
  <path d="M530 575 c-7 -20 -27 -56 -46 -81 -19 -24 -34 -46 -34 -49 0 -7 48
23 75 46 12 10 47 19 90 24 91 9 116 15 109 27 -6 10 -62 6 -137 -9 l-30 -6
19 32 c16 28 17 33 4 41 -26 17 -38 11 -50 -25z"/>
  <path d="M295 550 c-4 -17 -27 -55 -51 -85 -25 -30 -41 -55 -37 -55 12 0 53
28 88 61 25 24 40 28 95 31 39 2 63 7 60 13 -6 12 -41 12 -90 1 -35 -8 -35 -8
-16 12 23 26 14 52 -18 52 -19 0 -26 -7 -31 -30z"/>
  <path d="M590 455 c25 -27 60 -34 60 -12 0 22 -22 37 -54 37 l-29 0 23 -25z"/>
  <path d="M340 445 c26 -28 50 -33 50 -10 0 16 -30 35 -56 35 -15 0 -14 -4 6
-25z"/>
</g>
<g id="part-2" class="char-part">
  <path d="M280 417 c0 -1 4 -16 9 -34 9 -31 9 -31 -37 -39 l-47 -8 45 -6 45 -5
2 -49 c4 -71 -40 -132 -142 -200 -22 -14 -33 -26 -25 -26 22 0 91 38 122 68
35 32 43 25 27 -27 -10 -33 -10 -47 0 -68 12 -27 13 -27 27 -8 8 11 14 43 14
77 0 32 3 58 6 58 3 0 21 -12 39 -26 34 -25 55 -25 55 0 0 14 -37 32 -75 38
-24 4 -29 31 -20 114 l6 62 50 6 c30 4 47 11 43 17 -3 6 -24 7 -50 3 -38 -5
-43 -4 -38 10 8 21 -13 46 -37 46 -11 0 -19 -1 -19 -3z"/>
</g>
<g id="part-3" class="char-part">
  <path d="M300 311 c0 -19 -34 -31 -92 -31 -23 0 -28 -3 -20 -12 5 -7 13 -28
17 -45 8 -41 14 -45 54 -33 29 8 31 7 31 -16 0 -15 6 -24 15 -24 9 0 15 9 15
25 0 23 4 25 45 25 25 0 45 5 45 10 0 6 10 24 22 41 19 26 20 31 8 40 -8 5
-36 8 -62 6 -42 -4 -48 -2 -48 14 0 11 -7 19 -15 19 -8 0 -15 -8 -15 -19z m90
-45 c0 -32 -13 -46 -41 -46 -24 0 -29 4 -29 23 0 31 7 37 42 37 17 0 28 -5 28
-14z m-95 -26 c0 -19 -6 -26 -24 -28 -25 -4 -41 12 -41 41 0 15 7 18 33 15 27
-2 32 -7 32 -28z"/>
</g>
<g id="part-4" class="char-part">
  <path d="M560 236 c0 -68 -51 -140 -125 -179 -35 -19 -25 -21 25 -7 38 10 89
57 112 103 l15 29 63 -76 c35 -41 70 -78 78 -81 8 -3 37 -2 65 1 l50 7 -71 34
c-39 18 -95 56 -126 84 -50 46 -54 52 -49 84 5 31 3 35 -16 35 -17 0 -21 -6
-21 -34z"/>
</g>
</g>
</svg>