<?xml version="1.0" standalone="no"?>
<!DOCTYPE svg PUBLIC "-//W3C//DTD SVG 20010904//EN"
 "http://www.w3.org/TR/2001/REC-SVG-20010904/DTD/svg10.dtd">
<svg version="1.0" xmlns="http://www.w3.org/2000/svg"
 width="96.000000pt" height="68.000000pt" viewBox="0 0 96.000000 68.000000"
 preserveAspectRatio="xMidYMid meet">
<metadata>
Created by potrace 1.16, written by Peter Selinger 2001-2019
Combined from part_0.svg through part_5.svg with named groups
</metadata>
<g transform="translate(0.000000,68.000000) scale(0.100000,-0.100000)" fill="#000000" stroke="none">
<g id="part-0" class="char-part">
  <path d="M508 461 l4 -100 -31 -15 c-43 -23 -51 -20 -51 19 0 19 -4 36 -10 37
-32 4 -34 2 -31 -47 l2 -50 -53 -19 c-47 -17 -51 -20 -30 -27 13 -5 33 -4 48
1 14 6 27 10 30 10 2 0 4 -25 4 -56 0 -48 4 -60 28 -84 39 -39 101 -55 208
-54 98 0 165 15 203 43 l24 19 -21 36 c-12 21 -22 47 -22 59 0 30 -14 10 -28
-39 -17 -58 -48 -69 -188 -69 -149 0 -161 7 -166 92 -3 75 -2 78 35 92 42 16
48 14 46 -16 -7 -92 15 -130 26 -45 13 98 13 97 66 120 63 26 70 15 41 -63
-22 -62 -18 -68 20 -28 43 48 80 124 67 139 -17 21 -63 17 -115 -11 -26 -14
-51 -25 -57 -25 -6 0 -8 30 -3 84 5 71 4 85 -10 90 -37 14 -39 8 -36 -93z"/>
  <path d="M260 502 c-13 -49 -79 -145 -138 -199 -38 -36 -42 -43 -24 -43 12 0
46 20 77 45 l55 45 0 -72 c0 -39 -5 -98 -12 -129 -13 -63 -2 -109 26 -109 22
0 27 26 33 182 5 129 4 148 -10 154 -13 5 -8 17 28 67 42 57 44 62 28 79 -27
30 -51 23 -63 -20z"/>
</g>
<g id="part-1" class="char-part">
  <path d="M266 509 c-9 -47 -61 -127 -124 -191 -81 -83 -38 -71 54 15 22 20 34
25 39 17 8 -14 -2 -154 -16 -217 -13 -63 16 -120 40 -76 15 29 18 297 4 315
-10 12 -5 24 27 69 45 62 48 74 21 89 -31 16 -38 12 -45 -21z"/>
</g>
<g id="part-2" class="char-part">
  <path d="M387 360 c6 -54 9 -52 -82 -84 -19 -7 -19 -8 -2 -18 18 -10 33 -8 70
7 15 6 17 1 17 -50 0 -49 4 -60 29 -85 43 -44 127 -64 231 -56 92 7 171 28
191 52 10 12 8 22 -9 53 -12 21 -22 47 -22 57 0 25 -13 8 -25 -33 -17 -60 -50
-77 -166 -81 -77 -3 -110 -1 -144 13 l-45 17 0 73 c0 69 1 73 25 79 14 4 25
13 25 21 0 11 -7 14 -25 9 -23 -6 -25 -4 -25 29 0 32 -13 47 -40 47 -5 0 -6
-22 -3 -50z"/>
</g>
<g id="part-3" class="char-part">
  <path d="M508 460 c4 -86 2 -100 -12 -106 -20 -8 -21 -34 -1 -34 9 0 15 -6 14
-12 -4 -37 2 -108 10 -108 6 0 13 21 16 48 11 85 16 100 33 105 9 3 35 12 56
22 l39 16 -6 -36 c-3 -19 -13 -50 -21 -67 -35 -69 19 -33 62 42 14 25 32 53
40 62 13 16 12 19 -12 28 -41 15 -67 12 -115 -15 -23 -14 -48 -25 -53 -25 -7
0 -9 28 -4 84 5 71 4 85 -10 90 -39 15 -41 10 -36 -94z"/>
</g>
</g>
</svg>