<?xml version="1.0" standalone="no"?>
<!DOCTYPE svg PUBLIC "-//W3C//DTD SVG 20010904//EN"
 "http://www.w3.org/TR/2001/REC-SVG-20010904/DTD/svg10.dtd">
<svg version="1.0" xmlns="http://www.w3.org/2000/svg"
 width="96.000000pt" height="68.000000pt" viewBox="0 0 96.000000 68.000000"
 preserveAspectRatio="xMidYMid meet">
<metadata>
Created by potrace 1.16, written by Peter Selinger 2001-2019
Combined from part_0.svg through part_5.svg with named groups
</metadata>
<g transform="translate(0.000000,68.000000) scale(0.100000,-0.100000)" fill="#000000" stroke="none">
<g id="part-0" class="char-part">
  <path d="M543 553 l2 -58 -48 -3 c-59 -4 -52 -22 9 -22 40 0 44 -2 44 -25 0
-21 -5 -25 -32 -26 -18 0 -42 -4 -53 -9 -15 -6 -6 -9 33 -9 49 -1 52 -3 52
-26 0 -22 -5 -25 -35 -26 -19 -1 -39 -3 -45 -4 -5 -1 -19 -3 -30 -4 -11 0 -20
-6 -20 -12 0 -7 21 -8 65 -4 61 7 65 6 65 -13 0 -21 -24 -32 -73 -32 -16 0
-26 -4 -22 -10 3 -5 26 -10 50 -10 42 0 43 0 46 -37 2 -21 3 -48 1 -59 -3 -20
-6 -21 -38 -11 -29 9 -34 14 -30 33 7 25 -16 49 -39 40 -8 -3 -15 -13 -15 -23
-1 -23 -37 -83 -79 -128 -17 -19 -28 -35 -25 -35 11 0 74 50 106 84 l29 30 52
-27 c29 -15 81 -42 116 -62 67 -37 105 -42 162 -24 19 6 40 13 48 15 24 8 9
12 -79 24 -47 6 -104 18 -128 27 -38 14 -42 19 -40 46 3 37 9 40 111 45 15 1
27 6 27 11 0 17 -36 22 -81 12 -49 -11 -61 -5 -53 26 5 18 16 22 65 28 48 6
59 10 59 25 0 40 11 50 57 50 55 0 55 23 0 28 -34 3 -35 5 -27 28 9 22 6 26
-17 35 -19 7 -41 7 -70 0 -58 -15 -63 -14 -63 14 0 20 6 25 38 30 70 11 82 15
82 27 0 7 -18 9 -58 5 l-57 -6 3 43 c3 38 1 44 -20 49 -45 12 -47 10 -45 -50z
m154 -149 c8 -21 -5 -31 -54 -39 -41 -6 -43 -6 -43 18 0 20 6 27 28 30 53 8
63 7 69 -9z m-7 -71 c-1 -19 -18 -31 -52 -35 -34 -4 -38 -2 -38 19 0 21 5 23
45 23 25 0 45 -3 45 -7z"/>
  <path d="M225 482 c0 -42 -3 -89 -8 -104 -7 -27 -10 -28 -67 -28 -43 0 -60 -4
-60 -13 0 -21 45 -40 80 -34 28 6 30 5 20 -13 -18 -34 -11 -55 25 -74 56 -30
52 -37 -68 -110 -16 -10 -26 -20 -24 -23 11 -11 69 10 116 42 l48 33 21 -20
c23 -24 52 -18 52 10 0 10 -9 27 -20 37 -17 15 -18 20 -6 44 7 14 21 50 30 79
10 29 24 52 31 52 32 0 23 22 -16 39 -47 21 -59 20 -59 -8 0 -12 -9 -20 -27
-24 -16 -3 -30 -4 -31 -2 -2 2 8 39 22 82 l25 78 -20 18 c-12 9 -31 17 -43 17
-20 0 -21 -5 -21 -78z m95 -162 c0 -21 -19 -69 -35 -86 -6 -8 -17 -6 -37 5
-31 18 -32 20 -18 55 6 16 21 29 42 35 47 13 48 13 48 -9z"/>
</g>
<g id="part-1" class="char-part">
  <path d="M235 519 c4 -22 1 -68 -6 -104 -14 -69 -21 -75 -108 -75 l-36 -1 25
-20 c18 -16 32 -19 58 -14 31 6 34 4 27 -12 -19 -45 -17 -51 24 -74 23 -13 40
-28 38 -33 -3 -10 -52 -50 -107 -88 l-25 -17 34 9 c36 10 74 32 107 61 20 19
21 19 39 -1 10 -11 24 -20 32 -20 18 0 16 30 -3 51 -15 16 -14 23 10 83 14 35
26 69 26 75 0 6 10 15 21 22 21 11 21 12 -10 31 -31 20 -68 18 -55 -3 9 -15
-14 -29 -48 -29 l-26 0 24 78 c30 96 30 96 -1 110 -42 19 -47 16 -40 -29z m80
-240 c-20 -59 -32 -66 -73 -45 -28 15 -30 18 -22 47 5 18 12 34 15 38 11 11
90 27 93 19 2 -4 -4 -31 -13 -59z"/>
</g>
<g id="part-2" class="char-part">
  <path d="M538 605 c-3 -3 -1 -23 5 -44 15 -57 6 -71 -48 -71 -25 0 -45 -4 -45
-10 0 -5 23 -10 50 -10 28 0 50 -4 50 -10 0 -16 40 -12 46 5 3 8 22 17 42 20
69 11 82 15 82 27 0 7 -18 9 -58 5 l-57 -6 3 43 c3 38 1 44 -20 49 -28 8 -43
9 -50 2z"/>
</g>
<g id="part-3" class="char-part">
  <path d="M550 435 c0 -10 -11 -15 -32 -16 -18 0 -42 -4 -53 -9 -15 -6 -6 -9
33 -9 45 -1 52 -4 52 -21 0 -24 -6 -26 -84 -35 -42 -5 -55 -10 -45 -16 8 -5
40 -7 72 -3 53 6 57 5 57 -15 0 -12 -7 -22 -15 -22 -8 -1 -19 -3 -25 -4 -5 -1
-22 -3 -36 -4 -41 -2 -17 -21 27 -21 22 0 49 -4 59 -10 13 -7 22 -6 33 4 7 8
39 17 69 21 54 7 56 8 63 41 6 33 8 34 50 34 45 0 67 13 39 24 -9 3 -27 6 -41
6 -22 0 -24 3 -19 25 9 37 -30 50 -98 34 -37 -9 -51 -9 -54 0 -6 17 -52 14
-52 -4z m147 -31 c8 -21 -5 -31 -54 -39 -41 -6 -43 -6 -43 18 0 19 6 27 23 30
46 9 68 6 74 -9z m-7 -71 c-1 -19 -18 -30 -52 -36 -35 -5 -38 -4 -38 19 0 22
4 24 45 24 25 0 45 -3 45 -7z"/>
</g>
<g id="part-4" class="char-part">
  <path d="M434 213 c-15 -49 -38 -87 -75 -128 -60 -65 -31 -55 44 14 l63 59
104 -59 c57 -33 117 -63 133 -66 29 -6 134 14 142 27 3 4 -37 13 -88 20 -117
15 -272 75 -272 105 0 42 -40 63 -51 28z"/>
</g>
</g>
</svg>