<?xml version="1.0" standalone="no"?>
<!DOCTYPE svg PUBLIC "-//W3C//DTD SVG 20010904//EN"
 "http://www.w3.org/TR/2001/REC-SVG-20010904/DTD/svg10.dtd">
<svg version="1.0" xmlns="http://www.w3.org/2000/svg"
 width="96.000000pt" height="68.000000pt" viewBox="0 0 96.000000 68.000000"
 preserveAspectRatio="xMidYMid meet">
<metadata>
Created by potrace 1.16, written by Peter Selinger 2001-2019
Combined from part_0.svg through part_5.svg with named groups
</metadata>
<g transform="translate(0.000000,68.000000) scale(0.100000,-0.100000)" fill="#000000" stroke="none">
<g id="part-0" class="char-part">
  <path d="M582 582 c-5 -9 -12 -31 -15 -49 -7 -34 -42 -111 -72 -157 l-19 -29
23 12 c12 7 26 10 29 6 11 -10 3 -216 -10 -268 -10 -41 -10 -50 4 -63 23 -23
38 -9 38 35 0 38 0 38 48 44 26 4 84 10 130 13 45 4 82 10 82 15 0 14 -39 20
-86 13 l-45 -6 3 38 c3 36 5 39 41 45 20 3 40 9 44 12 7 7 -2 9 -52 11 -25 1
-30 5 -30 26 0 21 7 27 38 34 47 12 48 26 2 26 -33 0 -35 2 -35 34 0 32 2 35
40 41 26 4 40 12 40 22 0 12 -8 15 -41 10 -32 -4 -39 -2 -35 9 6 15 -20 46
-47 57 -21 8 -21 6 0 -38 10 -22 13 -39 7 -44 -8 -7 -104 -22 -104 -16 0 1 16
32 35 69 41 78 42 87 15 103 -16 11 -21 10 -28 -5z m66 -190 c13 -9 12 -38 -1
-59 -5 -7 -25 -13 -45 -13 -35 0 -37 2 -37 33 0 19 6 35 15 39 21 9 53 9 68 0z
m10 -123 c3 -22 -2 -27 -29 -33 -55 -11 -59 -8 -59 30 l0 35 43 -3 c37 -3 42
-6 45 -29z m-3 -89 c0 -35 0 -35 -47 -38 l-48 -3 0 35 c0 32 3 35 33 39 57 7
62 4 62 -33z"/>
  <path d="M150 548 c0 -22 66 -80 86 -76 28 5 30 44 2 61 -36 23 -88 32 -88 15z"/>
  <path d="M380 499 c-14 -6 -42 -9 -62 -7 -34 3 -37 2 -30 -17 4 -11 6 -95 4
-187 -2 -118 0 -168 9 -173 6 -4 15 -2 19 4 4 7 25 15 48 18 34 5 41 2 47 -16
8 -28 32 -27 41 1 4 13 7 101 7 196 0 138 -3 176 -14 183 -18 11 -37 10 -69
-2z m42 -31 c9 -23 -4 -88 -17 -88 -7 0 -27 -3 -44 -6 l-31 -6 0 50 c0 40 4
52 18 55 35 9 70 7 74 -5z m-2 -148 c0 -27 -4 -40 -14 -40 -7 0 -28 -3 -45 -6
-31 -6 -31 -6 -31 33 0 49 4 53 52 53 38 0 38 0 38 -40z m2 -92 c6 -57 0 -66
-45 -70 -23 -3 -44 -4 -47 -2 -3 1 -4 23 -2 48 4 42 6 45 35 49 18 2 37 5 43
5 7 1 14 -13 16 -30z"/>
  <path d="M100 403 c0 -3 11 -21 26 -40 28 -37 74 -47 74 -15 0 9 -4 22 -8 29
-13 21 -92 44 -92 26z"/>
  <path d="M212 271 c-12 -21 -42 -61 -66 -88 -43 -48 -44 -49 -30 -82 23 -54
43 -37 90 79 24 58 43 111 43 118 1 24 -16 12 -37 -27z"/>
</g>
<g id="part-1" class="char-part">
  <path d="M185 510 c43 -44 59 -49 70 -23 9 25 -38 63 -78 63 l-31 0 39 -40z"/>
  <path d="M100 402 c0 -12 64 -72 77 -72 17 0 23 26 10 44 -19 24 -87 46 -87
28z"/>
  <path d="M202 246 c-23 -35 -53 -71 -67 -80 -14 -9 -25 -23 -25 -31 0 -23 22
-65 34 -65 11 0 111 228 103 236 -2 2 -23 -24 -45 -60z"/>
</g>
<g id="part-2" class="char-part">
  <path d="M375 500 c-11 -5 -37 -9 -57 -9 l-37 -1 11 -31 c7 -20 9 -71 5 -135
-6 -98 -5 -104 14 -104 10 0 19 6 19 14 0 9 15 15 45 18 31 2 45 -1 45 -9 0
-7 9 -13 19 -13 17 0 19 10 23 128 4 105 2 129 -11 140 -17 14 -47 15 -76 2z
m45 -65 c0 -42 -1 -44 -37 -54 -54 -15 -53 -16 -53 38 0 53 5 59 58 60 31 1
32 0 32 -44z m0 -115 c0 -27 -4 -40 -14 -40 -7 0 -28 -3 -45 -6 -31 -6 -31 -6
-31 34 0 43 7 48 63 51 25 1 27 -2 27 -39z"/>
</g>
<g id="part-3" class="char-part">
  <path d="M420 196 c0 -33 -1 -34 -45 -38 -43 -3 -44 -2 -47 27 -2 19 -9 31
-20 33 -15 3 -18 -4 -18 -47 0 -47 15 -75 29 -53 3 6 22 13 42 17 31 6 38 3
53 -20 14 -21 20 -24 31 -15 34 28 29 130 -6 130 -15 0 -19 -7 -19 -34z"/>
</g>
<g id="part-4" class="char-part">
  <path d="M673 303 c-7 -3 -13 -18 -13 -33 0 -26 -4 -29 -45 -36 -53 -7 -51
-19 3 -19 35 0 37 -2 40 -36 l3 -37 -50 -7 c-28 -4 -51 -12 -51 -17 0 -7 15
-8 38 -5 20 3 82 9 136 13 88 6 97 9 80 21 -14 10 -34 12 -72 7 l-53 -6 3 38
c3 36 5 39 41 45 53 8 58 19 9 19 -33 0 -42 4 -42 18 0 24 -13 40 -27 35z"/>
</g>
</g>
</svg>