<?xml version="1.0" standalone="no"?>
<!DOCTYPE svg PUBLIC "-//W3C//DTD SVG 20010904//EN"
 "http://www.w3.org/TR/2001/REC-SVG-20010904/DTD/svg10.dtd">
<svg version="1.0" xmlns="http://www.w3.org/2000/svg"
 width="96.000000pt" height="68.000000pt" viewBox="0 0 96.000000 68.000000"
 preserveAspectRatio="xMidYMid meet">
<metadata>
Created by potrace 1.16, written by Peter Selinger 2001-2019
Combined from part_0.svg through part_5.svg with named groups
</metadata>
<g transform="translate(0.000000,68.000000) scale(0.100000,-0.100000)" fill="#000000" stroke="none">
<g id="part-0" class="char-part">
  <path d="M261 578 c5 -18 9 -58 9 -90 0 -64 2 -63 -92 -74 -32 -3 -58 -10 -58
-15 0 -15 49 -22 101 -15 27 4 49 4 49 0 0 -21 -67 -118 -115 -165 -30 -29
-55 -57 -55 -62 0 -18 73 26 119 72 57 57 57 57 40 -59 -12 -82 -2 -130 26
-130 25 0 35 44 35 156 l0 105 22 -15 c34 -24 60 -21 56 6 -2 17 -13 25 -41
31 -35 9 -38 12 -35 41 3 27 8 32 41 40 20 5 37 15 37 22 0 16 -34 27 -60 19
-14 -4 -19 -2 -16 7 2 7 7 39 10 70 6 56 5 58 -23 73 -49 25 -61 20 -50 -17z"/>
  <path d="M539 553 c5 -10 22 -31 37 -47 32 -33 25 -41 -48 -50 -33 -5 -55 -3
-64 5 -11 9 -17 5 -29 -24 -18 -43 -20 -80 -3 -75 12 4 23 21 31 49 4 12 34
20 129 33 67 9 131 16 141 16 21 0 22 -14 1 -35 -27 -27 -10 -27 52 1 l58 26
-24 19 c-27 20 -89 24 -153 10 -35 -8 -37 -8 -32 10 8 25 -9 46 -53 65 -45 19
-55 18 -43 -3z"/>
  <path d="M500 367 c0 -2 -2 -56 -5 -122 -6 -133 -2 -144 64 -167 54 -18 219
-15 258 5 l32 17 -16 47 c-22 66 -28 70 -42 23 -17 -58 -58 -74 -158 -65 -85
8 -103 21 -103 73 1 36 2 38 78 72 42 19 86 43 96 52 11 10 23 18 28 18 16 0
8 19 -12 30 -18 9 -27 4 -68 -38 -27 -27 -58 -53 -70 -56 -12 -4 -22 -12 -22
-17 0 -5 -5 -9 -11 -9 -8 0 -10 18 -5 59 6 53 5 61 -13 70 -20 11 -31 14 -31
8z"/>
</g>
<g id="part-1" class="char-part">
  <path d="M266 584 c5 -16 9 -58 9 -94 l0 -64 -72 -11 c-40 -6 -76 -14 -79 -18
-4 -4 30 -7 75 -7 l82 0 -28 -52 c-15 -29 -55 -81 -88 -115 -34 -35 -56 -63
-49 -63 17 0 100 66 124 100 12 16 25 30 29 30 7 0 -3 -136 -13 -168 -8 -25
10 -72 28 -72 22 0 26 23 26 147 l0 115 35 -22 c33 -20 55 -20 55 1 0 5 -20
18 -45 29 -47 20 -48 22 -39 57 4 16 18 26 45 33 47 13 42 30 -7 30 l-35 0 6
68 c8 73 3 82 -44 97 -22 7 -23 5 -15 -21z"/>
</g>
<g id="part-2" class="char-part">
  <path d="M530 564 c0 -3 16 -26 36 -50 20 -24 34 -44 32 -44 -2 0 -30 -5 -62
-11 -42 -7 -61 -7 -71 1 -11 9 -18 2 -34 -35 -12 -26 -18 -51 -15 -56 12 -19
33 -7 44 25 l11 34 134 18 c74 10 138 15 141 11 4 -4 0 -15 -8 -24 -32 -38
-26 -40 37 -14 36 14 65 29 65 34 0 4 -16 15 -35 24 -29 14 -46 15 -104 7
l-70 -9 6 27 c5 25 1 30 -38 48 -44 20 -69 25 -69 14z"/>
</g>
<g id="part-3" class="char-part">
  <path d="M495 247 c0 -138 4 -148 63 -169 54 -18 208 -16 254 4 l37 17 -18 50
c-10 28 -20 53 -23 56 -3 3 -10 -13 -17 -35 -16 -53 -40 -64 -137 -65 -96 0
-124 16 -124 71 0 31 5 35 103 87 103 54 120 73 80 88 -17 6 -26 2 -47 -25
-25 -33 -123 -103 -132 -94 -2 3 1 29 8 58 11 48 10 54 -7 66 -37 27 -40 18
-40 -109z"/>
</g>
</g>
</svg>