<?xml version="1.0" standalone="no"?>
<!DOCTYPE svg PUBLIC "-//W3C//DTD SVG 20010904//EN"
 "http://www.w3.org/TR/2001/REC-SVG-20010904/DTD/svg10.dtd">
<svg version="1.0" xmlns="http://www.w3.org/2000/svg"
 width="96.000000pt" height="68.000000pt" viewBox="0 0 96.000000 68.000000"
 preserveAspectRatio="xMidYMid meet">
<metadata>
Created by potrace 1.16, written by Peter Selinger 2001-2019
Combined from part_0.svg through part_5.svg with named groups
</metadata>
<g transform="translate(0.000000,68.000000) scale(0.100000,-0.100000)" fill="#000000" stroke="none">
<g id="part-0" class="char-part">
  <path d="M567 552 l5 -39 -48 -11 -49 -10 48 -1 c43 -1 47 -3 47 -26 0 -23 -4
-25 -47 -26 -27 0 -68 -4 -93 -8 -39 -6 -42 -8 -22 -15 13 -4 55 -5 93 -1 65
7 69 6 69 -13 0 -17 -9 -22 -55 -27 -68 -9 -62 -29 6 -23 l49 5 0 -74 0 -73
-45 -1 c-25 -1 -53 -2 -62 -3 -10 0 -19 7 -21 17 -3 13 3 17 25 17 39 0 52 11
59 48 6 28 4 32 -15 32 -18 0 -21 -5 -19 -27 2 -22 -2 -29 -19 -31 -19 -3 -23
1 -23 26 0 27 -14 42 -40 42 -4 0 -6 -30 -4 -68 2 -37 0 -72 -4 -78 -4 -6 -28
-14 -54 -18 l-48 -7 0 55 0 56 40 6 c55 9 59 22 10 30 -30 5 -40 11 -40 26 0
11 10 22 25 28 14 5 25 14 25 20 0 13 -45 13 -93 -1 -22 -6 -40 -9 -42 -7 -2
2 14 31 34 65 l38 61 34 -29 c36 -31 52 -33 57 -5 5 24 -14 44 -49 51 -20 5
-29 12 -25 20 6 16 -9 30 -41 39 -20 6 -23 4 -23 -21 0 -49 -70 -172 -138
-245 -20 -21 -33 -40 -29 -44 6 -7 57 26 98 64 23 20 30 22 49 12 28 -15 22
-44 -10 -48 -83 -9 -97 -32 -20 -32 l50 0 0 -54 c0 -30 -4 -57 -10 -61 -5 -3
-39 -8 -75 -12 -36 -3 -65 -10 -65 -15 0 -4 14 -17 32 -28 29 -18 34 -18 67
-3 59 25 184 64 189 58 3 -3 -3 -22 -13 -43 -30 -58 -29 -60 13 -14 27 28 48
42 65 42 23 0 26 -4 29 -42 4 -60 23 -58 36 4 12 62 5 70 -50 61 -33 -5 -38
-3 -38 13 0 17 9 19 71 21 l70 2 -7 -69 c-5 -50 -3 -74 6 -85 22 -27 30 -5 30
81 l0 84 44 0 c24 0 58 3 75 6 26 6 31 4 31 -14 0 -22 -24 -32 -79 -32 -30 0
-33 -2 -27 -22 3 -13 6 -40 6 -60 0 -27 4 -38 15 -38 11 0 15 12 15 45 0 40 3
47 26 55 44 17 47 14 40 -44 -4 -41 -2 -56 9 -66 9 -7 19 -10 23 -6 4 4 9 75
12 158 4 134 3 151 -12 159 -31 17 -41 11 -34 -21 5 -27 3 -30 -19 -30 -14 0
-28 0 -32 -1 -5 0 -10 10 -13 22 -9 37 -27 32 -33 -8 -8 -44 3 -59 31 -44 35
19 72 14 72 -9 0 -16 -7 -20 -37 -20 -21 0 -55 -3 -75 -6 l-38 -7 0 71 0 71
59 7 c58 6 59 7 66 40 l6 34 59 0 c33 0 60 4 60 9 0 13 -26 21 -67 21 -27 0
-34 3 -29 15 11 31 -23 47 -85 40 l-58 -7 -3 34 c-2 25 -8 34 -25 36 -19 3
-21 0 -16 -36z m123 -56 c0 -2 2 -11 6 -19 4 -10 -6 -16 -36 -21 -49 -8 -60
-3 -53 24 4 16 14 20 44 20 22 0 39 -2 39 -4z m-3 -71 c6 -19 -12 -33 -47 -36
-30 -3 -35 -1 -38 18 -2 16 3 23 20 26 34 7 61 3 65 -8z"/>
  <path d="M335 220 c-10 -22 -15 -43 -12 -46 8 -9 78 47 71 57 -3 5 -13 13 -23
19 -15 8 -21 3 -36 -30z"/>
  <path d="M150 221 c0 -5 12 -23 26 -41 20 -23 29 -28 40 -20 15 13 8 39 -14
58 -18 14 -52 16 -52 3z"/>
</g>
<g id="part-1" class="char-part">
  <path d="M257 564 c-4 -4 -7 -19 -7 -33 0 -34 -76 -163 -129 -220 -23 -24 -41
-46 -41 -48 0 -9 45 21 80 54 47 42 83 43 88 2 3 -25 0 -27 -48 -34 -62 -8
-54 -29 8 -23 39 3 40 2 46 -32 12 -73 9 -87 -25 -94 -17 -3 -51 -6 -75 -6
-50 0 -56 -12 -18 -37 22 -14 31 -15 58 -4 17 7 65 24 106 38 106 36 120 57
18 27 -16 -5 -18 2 -18 59 l0 64 41 7 c48 8 48 13 -1 18 -30 4 -35 8 -35 30
-1 21 5 27 29 32 22 5 27 9 18 18 -9 9 -25 8 -67 -2 -30 -7 -58 -10 -61 -7 -7
6 66 127 77 127 3 0 16 -11 29 -25 26 -27 45 -32 52 -12 8 21 -2 36 -35 46
-18 6 -37 21 -42 33 -10 23 -35 34 -48 22z"/>
  <path d="M339 218 c-7 -18 -15 -37 -17 -42 -4 -7 35 16 67 41 6 4 -20 33 -29
33 -5 0 -14 -15 -21 -32z"/>
  <path d="M160 212 c0 -12 39 -52 50 -52 14 0 12 34 -2 48 -14 14 -48 16 -48 4z"/>
</g>
<g id="part-2" class="char-part">
  <path d="M567 551 c5 -39 5 -40 -33 -46 -68 -11 -70 -13 -16 -14 49 -1 52 -3
52 -26 0 -22 -4 -25 -37 -25 -69 0 -143 -12 -136 -23 3 -6 37 -7 89 -3 79 7
84 6 84 -12 0 -20 -33 -32 -87 -32 -14 0 -21 -4 -18 -10 3 -5 29 -10 57 -10
l51 0 -6 -153 c-6 -158 0 -199 27 -165 10 14 12 52 8 166 -3 103 -1 151 6 156
7 4 34 10 61 13 46 5 50 7 56 39 l6 34 59 0 c33 0 60 4 60 9 0 13 -26 21 -66
21 -30 0 -34 3 -29 19 9 30 -27 44 -93 36 l-55 -7 7 28 c8 29 -5 44 -36 44
-13 0 -15 -7 -11 -39z m128 -71 c0 -9 -15 -18 -43 -24 -49 -10 -53 -8 -45 22
5 20 11 23 47 20 28 -2 41 -8 41 -18z m-11 -49 c10 -15 -18 -39 -49 -43 -24
-2 -31 1 -33 19 -3 21 1 24 65 32 6 0 14 -3 17 -8z"/>
</g>
<g id="part-3" class="char-part">
  <path d="M745 340 c-3 -6 -3 -19 0 -30 5 -16 2 -20 -19 -20 -14 0 -29 0 -33
-1 -5 0 -10 10 -13 22 -9 35 -30 35 -31 0 -1 -17 -2 -37 -3 -43 -1 -13 10 -13
72 -2 27 6 32 4 32 -13 0 -18 -12 -21 -127 -32 -70 -7 -140 -15 -155 -18 -24
-5 -28 -2 -28 16 0 17 6 21 29 21 36 0 61 23 61 56 0 17 -5 24 -20 24 -17 0
-20 -6 -18 -27 2 -22 -2 -29 -19 -31 -19 -3 -23 1 -23 26 0 26 -14 42 -38 42
-4 0 -7 -37 -7 -82 0 -74 -3 -89 -32 -141 -17 -31 -29 -57 -26 -57 16 0 45 25
58 50 12 23 22 30 45 30 27 0 29 -3 32 -42 2 -23 8 -43 14 -45 14 -5 36 98 24
111 -5 5 -26 4 -50 -2 -39 -10 -41 -9 -38 11 2 17 10 22 33 23 45 1 205 14
248 19 31 5 37 2 37 -14 0 -20 -25 -31 -78 -31 l-32 0 6 -57 c8 -65 9 -68 23
-58 6 3 11 26 11 49 0 37 4 45 23 50 47 12 50 9 44 -46 -7 -58 2 -84 26 -75
13 5 16 32 19 157 3 134 1 153 -14 161 -21 11 -25 11 -33 -1z"/>
</g>
</g>
</svg>