<?xml version="1.0" standalone="no"?>
<!DOCTYPE svg PUBLIC "-//W3C//DTD SVG 20010904//EN"
 "http://www.w3.org/TR/2001/REC-SVG-20010904/DTD/svg10.dtd">
<svg version="1.0" xmlns="http://www.w3.org/2000/svg"
 width="96.000000pt" height="68.000000pt" viewBox="0 0 96.000000 68.000000"
 preserveAspectRatio="xMidYMid meet">
<metadata>
Created by potrace 1.16, written by Peter Selinger 2001-2019
Combined from part_0.svg through part_5.svg with named groups
</metadata>
<g transform="translate(0.000000,68.000000) scale(0.100000,-0.100000)" fill="#000000" stroke="none">
<g id="part-0" class="char-part">
  <path d="M626 533 c-3 -21 -22 -69 -41 -107 -37 -72 -41 -90 -10 -56 12 13 31
20 57 20 l38 0 0 -49 c0 -26 -5 -63 -11 -81 l-12 -32 -33 36 c-18 20 -38 36
-43 36 -17 0 -13 -8 14 -38 28 -29 41 -65 30 -82 -3 -5 -27 -22 -53 -36 l-47
-25 40 5 c21 3 51 14 66 25 l26 20 37 -35 c33 -32 41 -34 102 -34 36 0 63 4
60 9 -3 4 -27 16 -53 26 -70 27 -114 57 -109 75 38 125 45 175 24 183 -7 2 8
8 35 12 26 4 50 11 53 16 10 18 -50 21 -104 6 -31 -8 -60 -13 -64 -11 -4 3 6
26 22 53 29 47 39 91 21 91 -5 0 -16 2 -24 6 -10 4 -16 -5 -21 -33z"/>
  <path d="M460 540 c-14 -4 -42 -8 -62 -9 -47 -1 -59 -19 -16 -23 30 -3 33 -6
31 -36 0 -18 -3 -35 -5 -37 -1 -1 -23 -5 -48 -8 -25 -3 -46 -6 -47 -6 -7 -2
-2 -21 5 -20 30 5 32 -3 32 -111 0 -109 0 -110 -25 -116 -28 -7 -32 -19 -9
-28 26 -10 47 -6 99 18 l50 24 5 -72 c4 -54 9 -71 20 -71 13 0 15 28 18 179 3
185 7 206 44 206 12 0 16 4 12 11 -4 8 -26 10 -61 6 l-54 -6 3 37 c3 34 6 37
36 40 20 2 32 8 29 15 -5 15 -25 18 -57 7z m12 -155 c-2 -16 -5 -31 -6 -32 -6
-6 -75 -7 -76 0 -2 58 6 67 60 64 22 -2 25 -6 22 -32z m-4 -100 c-2 -1 -22 -6
-46 -10 -43 -7 -44 -7 -40 21 3 26 8 30 43 34 36 5 40 3 43 -18 2 -13 2 -25 0
-27z m5 -44 c7 -29 -5 -39 -51 -47 -42 -7 -42 -6 -42 24 0 32 10 39 61 41 18
1 28 -5 32 -18z"/>
  <path d="M185 500 c-11 -5 -37 -9 -59 -9 -37 -1 -38 -2 -30 -28 5 -16 9 -89
10 -163 0 -74 1 -141 2 -147 2 -15 32 -18 32 -3 0 6 18 10 39 10 31 0 41 -4
46 -20 8 -26 31 -26 45 0 14 26 19 347 6 360 -12 12 -63 12 -91 0z m49 -46 c3
-9 6 -27 6 -40 0 -21 -5 -24 -35 -24 -19 0 -38 0 -42 0 -10 -1 -16 47 -9 66 8
20 72 19 80 -2z m6 -122 c0 -26 -5 -30 -45 -39 l-45 -10 0 33 c0 34 8 39 68
43 18 1 22 -4 22 -27z m0 -101 c0 -38 0 -38 -50 -48 -47 -10 -50 -9 -50 11 0
52 11 65 54 69 22 2 42 4 44 5 1 1 2 -15 2 -37z"/>
</g>
<g id="part-1" class="char-part">
  <path d="M176 495 c-26 -7 -55 -11 -64 -8 -12 5 -14 1 -9 -27 4 -18 7 -77 7
-131 0 -81 3 -99 15 -99 8 0 15 7 15 15 0 8 8 15 19 15 10 0 33 3 50 6 24 5
31 3 31 -10 0 -9 8 -16 19 -16 17 0 19 10 23 123 5 155 0 161 -106 132z m48
-21 c21 -8 23 -84 2 -84 -7 0 -28 -3 -45 -6 l-31 -6 0 45 c0 35 4 47 18 50 27
7 39 7 56 1z m16 -144 c0 -37 -2 -40 -27 -40 -16 0 -38 -3 -51 -6 -22 -6 -23
-4 -20 32 3 37 5 39 43 45 22 3 43 7 48 8 4 0 7 -17 7 -39z"/>
</g>
<g id="part-2" class="char-part">
  <path d="M240 215 c0 -14 -6 -25 -12 -25 -7 0 -30 -3 -50 -6 -36 -6 -38 -5
-38 20 0 19 -5 26 -20 26 -16 0 -20 -7 -20 -31 0 -17 5 -39 10 -49 9 -17 13
-17 38 -4 39 20 69 18 77 -6 3 -11 12 -20 19 -20 24 0 36 25 36 72 0 41 -3 48
-20 48 -15 0 -20 -7 -20 -25z"/>
</g>
<g id="part-3" class="char-part">
  <path d="M417 536 c-37 -7 -70 -16 -74 -19 -6 -6 27 -11 53 -8 16 2 25 -26 18
-55 -5 -19 -13 -24 -38 -25 -17 -1 -42 -4 -56 -9 l-25 -7 28 -8 c15 -4 47 -2
72 4 24 6 68 11 97 11 60 0 95 14 65 26 -10 3 -38 4 -63 0 -40 -5 -44 -4 -44
15 0 34 19 59 45 59 29 0 41 15 19 24 -9 3 -19 5 -22 5 -4 -1 -37 -7 -75 -13z"/>
</g>
<g id="part-4" class="char-part">
  <path d="M470 338 c2 -150 12 -133 -85 -153 -51 -11 -84 -23 -82 -29 7 -20 52
-17 109 8 l57 25 3 -71 c3 -67 18 -99 31 -64 3 8 7 92 8 188 2 171 2 173 -20
176 -22 3 -22 1 -21 -80z"/>
</g>
<g id="part-5" class="char-part">
  <path d="M680 343 c0 -55 -19 -113 -36 -113 -7 0 -22 12 -33 26 -12 15 -21 23
-21 18 0 -5 9 -20 20 -34 26 -33 25 -44 -5 -75 -14 -14 -22 -25 -16 -25 5 0
17 7 25 16 9 8 16 12 16 8 0 -5 5 -3 12 4 8 8 19 2 44 -25 31 -33 40 -37 96
-41 49 -3 60 -1 52 8 -7 7 -23 13 -37 13 -14 1 -23 6 -20 11 4 5 -7 6 -23 2
-16 -4 -24 -3 -18 1 8 5 -1 16 -25 31 -34 22 -53 62 -29 62 5 0 8 7 4 15 -3 8
-2 15 2 15 4 0 13 26 20 57 9 45 9 59 -1 65 -23 14 -27 8 -27 -39z"/>
</g>
</g>
</svg>