<?xml version="1.0" standalone="no"?>
<!DOCTYPE svg PUBLIC "-//W3C//DTD SVG 20010904//EN"
 "http://www.w3.org/TR/2001/REC-SVG-20010904/DTD/svg10.dtd">
<svg version="1.0" xmlns="http://www.w3.org/2000/svg"
 width="96.000000pt" height="68.000000pt" viewBox="0 0 96.000000 68.000000"
 preserveAspectRatio="xMidYMid meet">
<metadata>
Created by potrace 1.16, written by Peter Selinger 2001-2019
Combined from part_0.svg through part_5.svg with named groups
</metadata>
<g transform="translate(0.000000,68.000000) scale(0.100000,-0.100000)" fill="#000000" stroke="none">
<g id="part-0" class="char-part">
  <path d="M476 599 c8 -48 -2 -59 -58 -59 -21 0 -38 -4 -38 -10 0 -5 23 -10 51
-10 47 0 50 -2 47 -22 -3 -20 -10 -23 -55 -26 -70 -4 -68 -22 2 -22 48 0 55
-3 55 -19 0 -20 -25 -27 -123 -33 -20 -2 -36 -7 -35 -13 3 -12 43 -12 111 -2
46 6 48 6 45 -16 -2 -18 -10 -22 -48 -25 -67 -5 -75 -22 -9 -22 30 0 60 -5 67
-12 9 -9 13 -7 18 5 4 10 17 17 34 17 15 0 48 3 74 6 35 5 46 10 42 21 -3 8
-1 23 4 34 9 15 22 19 65 19 30 0 55 4 55 9 0 13 -26 21 -66 21 -31 0 -33 2
-22 20 7 10 9 23 4 27 -7 8 -94 8 -145 1 -13 -2 -25 2 -27 7 -7 20 13 36 52
41 68 9 84 14 84 26 0 7 -20 9 -65 5 l-65 -6 0 33 c0 33 -13 46 -46 46 -11 0
-13 -9 -8 -41z m154 -141 c0 -26 -16 -36 -60 -39 -37 -3 -45 0 -48 15 -5 25
14 36 66 36 27 0 42 -4 42 -12z m-10 -65 c-1 -21 -19 -32 -64 -38 -28 -5 -47
-4 -44 1 3 5 8 17 11 27 5 13 18 17 52 17 25 0 45 -3 45 -7z"/>
  <path d="M204 517 c42 -55 86 -62 86 -12 0 29 -6 34 -66 42 l-47 6 27 -36z"/>
  <path d="M110 411 c0 -19 61 -71 84 -71 33 0 36 34 4 51 -29 15 -88 29 -88 20z"/>
  <path d="M219 263 c-24 -32 -56 -69 -72 -82 -23 -19 -27 -29 -22 -50 10 -40
30 -57 49 -41 9 7 16 17 16 23 0 5 20 52 45 105 25 52 45 96 45 98 0 16 -25
-5 -61 -53z"/>
  <path d="M440 275 c0 -34 -24 -44 -114 -46 -56 -1 -74 -5 -66 -13 6 -6 41 -10
80 -10 66 2 69 1 59 -18 -13 -24 -12 -26 41 -41 l43 -12 -25 -17 c-15 -10 -59
-26 -100 -37 -67 -18 -70 -19 -32 -20 42 -1 126 20 180 45 29 14 34 13 109
-26 88 -45 105 -49 105 -20 0 24 -43 53 -106 70 -25 7 -43 16 -42 19 2 3 14
23 28 43 l25 38 97 0 c53 0 99 4 102 8 2 4 -9 14 -25 21 -21 9 -47 10 -98 4
-53 -7 -73 -6 -87 4 -23 17 -45 17 -38 -1 4 -9 -7 -15 -38 -19 -44 -6 -68 0
-49 13 19 11 1 40 -25 40 -19 0 -24 -5 -24 -25z m130 -51 c0 -3 -9 -19 -21
-35 -17 -24 -27 -29 -64 -29 -24 0 -47 5 -50 10 -8 13 13 39 40 50 23 10 95
13 95 4z"/>
</g>
<g id="part-1" class="char-part">
  <path d="M190 543 c0 -18 58 -65 76 -61 30 5 29 37 -1 48 -46 17 -75 22 -75
13z"/>
  <path d="M139 376 c38 -39 71 -48 71 -17 0 26 -21 41 -67 48 l-38 6 34 -37z"/>
  <path d="M216 252 c-25 -33 -58 -69 -73 -80 -27 -20 -28 -21 -11 -49 25 -42
41 -39 62 14 11 27 32 75 48 107 15 33 26 61 24 63 -2 2 -25 -23 -50 -55z"/>
</g>
<g id="part-2" class="char-part">
  <path d="M476 596 c6 -39 4 -44 -17 -49 -13 -4 -36 -7 -51 -7 -16 0 -28 -4
-28 -10 0 -5 23 -10 50 -10 43 0 50 -3 50 -20 0 -15 7 -20 25 -20 20 0 25 5
25 24 0 22 6 25 70 36 90 15 84 35 -8 27 l-64 -6 6 29 c4 23 1 32 -14 40 -40
21 -50 13 -44 -34z"/>
</g>
<g id="part-3" class="char-part">
  <path d="M478 498 c-3 -20 -10 -23 -60 -26 -77 -4 -75 -22 2 -22 52 0 60 -3
60 -19 0 -19 -39 -31 -110 -31 -19 0 -42 -4 -49 -9 -25 -16 27 -22 89 -12 58
10 77 3 67 -23 -5 -12 -20 -16 -57 -16 -27 0 -50 -4 -50 -10 0 -5 24 -10 53
-10 29 0 58 -5 65 -12 9 -9 13 -7 18 5 4 10 17 17 34 17 15 0 48 3 74 6 35 5
46 10 42 21 -3 8 -1 23 4 34 9 15 22 19 65 19 30 0 55 4 55 10 0 13 -44 23
-75 18 -29 -6 -29 -5 -12 22 10 17 9 22 -3 31 -15 10 -111 6 -142 -6 -14 -5
-18 -2 -18 14 0 31 -47 30 -52 -1z m152 -37 c0 -32 -14 -41 -61 -41 -42 0 -49
3 -49 19 0 11 8 22 18 24 32 9 92 7 92 -2z m-17 -81 c-3 -12 -14 -20 -27 -20
-11 0 -31 -3 -43 -6 -18 -5 -23 -2 -23 14 0 24 12 30 62 31 31 1 35 -2 31 -19z"/>
</g>
<g id="part-4" class="char-part">
  <path d="M440 275 c0 -33 -31 -45 -116 -45 -35 0 -64 -4 -64 -9 0 -15 48 -22
102 -15 49 7 50 6 39 -15 -16 -29 -6 -41 32 -41 86 -1 46 -35 -83 -71 l-65
-19 60 4 c34 2 90 15 128 30 l66 27 81 -41 c85 -44 120 -47 100 -9 -11 19 -86
59 -113 59 -7 0 -18 4 -26 9 -11 7 -8 17 15 50 l29 41 97 0 c53 0 99 4 103 10
11 18 -67 32 -127 22 -42 -6 -62 -5 -80 4 -30 17 -38 17 -38 -1 0 -10 -10 -15
-27 -15 -16 0 -39 -3 -52 -7 -21 -5 -22 -4 -13 14 13 23 -1 43 -30 43 -13 0
-18 -8 -18 -25z m130 -51 c0 -3 -9 -19 -21 -35 -16 -23 -28 -29 -57 -29 -52 0
-70 13 -52 35 8 10 23 21 35 25 23 10 95 13 95 4z"/>
</g>
</g>
</svg>