<?xml version="1.0" standalone="no"?>
<!DOCTYPE svg PUBLIC "-//W3C//DTD SVG 20010904//EN"
 "http://www.w3.org/TR/2001/REC-SVG-20010904/DTD/svg10.dtd">
<svg version="1.0" xmlns="http://www.w3.org/2000/svg"
 width="96.000000pt" height="68.000000pt" viewBox="0 0 96.000000 68.000000"
 preserveAspectRatio="xMidYMid meet">
<metadata>
Created by potrace 1.16, written by Peter Selinger 2001-2019
Combined from part_0.svg through part_5.svg with named groups
</metadata>
<g transform="translate(0.000000,68.000000) scale(0.100000,-0.100000)" fill="#000000" stroke="none">
<g id="part-0" class="char-part">
  <path d="M530 572 c0 -17 51 -61 65 -56 22 9 18 30 -7 48 -23 17 -58 21 -58 8z"/>
  <path d="M195 541 c-3 -6 -1 -19 5 -30 5 -11 10 -38 10 -60 l0 -41 -60 0 c-60
0 -72 -8 -46 -29 7 -6 16 -28 20 -49 6 -43 34 -85 42 -64 3 6 14 12 25 12 16
0 19 -7 19 -45 0 -40 -3 -45 -27 -51 -15 -4 -40 -7 -55 -7 -35 0 -36 -20 -4
-35 21 -9 37 -6 104 23 93 41 97 41 115 15 16 -23 27 -17 27 16 0 22 -33 54
-56 54 -7 0 -11 -7 -10 -16 0 -9 -9 -20 -21 -25 -22 -8 -23 -6 -23 36 l0 44
48 3 c39 3 47 6 48 24 1 11 8 31 17 45 15 22 20 68 7 67 -3 0 -29 0 -58 1
l-54 1 7 49 c4 27 3 51 -2 54 -20 12 -72 17 -78 8z m119 -149 c10 -16 -10 -67
-27 -70 -14 -3 -17 5 -17 37 0 34 3 41 19 41 11 0 22 -4 25 -8z m-104 -42 c0
-33 -4 -40 -19 -40 -11 0 -21 9 -25 23 -10 37 -7 45 17 50 12 2 23 5 25 6 1 0
2 -17 2 -39z"/>
  <path d="M655 509 c-22 -6 -82 -16 -134 -24 -52 -8 -95 -16 -97 -18 -2 -2 1
-18 7 -35 21 -60 -36 -277 -88 -334 -9 -10 -13 -21 -10 -25 18 -17 100 108
118 180 l11 47 55 0 c51 0 54 -2 51 -22 -2 -19 -10 -24 -40 -26 -21 -2 -38 -8
-38 -14 0 -6 16 -9 39 -6 37 3 40 1 45 -26 8 -38 -7 -48 -67 -43 -33 3 -44 1
-38 -7 5 -6 16 -33 24 -61 14 -49 15 -50 53 -48 98 4 184 16 184 24 0 5 11 27
25 49 l25 40 -27 11 c-16 6 -55 9 -91 5 l-63 -5 6 32 c10 46 11 47 66 47 47 0
49 1 49 28 0 40 17 52 72 52 47 0 63 12 32 24 -9 3 -29 6 -45 6 -24 0 -29 4
-29 24 0 29 -31 39 -91 30 -40 -7 -42 -6 -37 14 4 12 2 25 -3 28 -22 14 -4 22
61 26 65 5 90 12 79 22 -11 10 -69 13 -104 5z m-87 -76 c3 -28 0 -33 -25 -39
-48 -10 -49 -12 -10 -13 36 -1 38 -3 35 -28 -3 -26 -7 -28 -50 -31 -54 -3 -54
-4 -40 88 6 36 12 45 32 51 42 12 55 6 58 -28z m130 -65 c-2 -19 -10 -24 -40
-26 -35 -3 -38 -1 -38 22 0 24 4 26 41 26 36 0 40 -2 37 -22z m-20 -70 c-2
-18 -11 -24 -34 -26 -28 -3 -31 -1 -27 20 3 18 12 24 34 26 26 2 30 -1 27 -20z
m14 -150 c2 -6 2 -23 0 -38 -4 -25 -9 -28 -55 -34 -96 -11 -105 -9 -112 25 -4
17 -5 32 -2 35 4 5 106 21 144 23 12 0 23 -4 25 -11z"/>
</g>
<g id="part-1" class="char-part">
  <path d="M205 523 c4 -10 10 -39 12 -64 l5 -46 -37 -7 c-20 -4 -51 -4 -68 0
-29 6 -31 5 -17 -11 8 -10 22 -41 30 -69 16 -51 16 -51 54 -48 l38 4 -3 -41
c-2 -22 0 -41 4 -41 36 -1 37 1 37 44 0 47 11 56 72 56 20 0 26 4 22 15 -3 8
4 29 17 46 l22 32 -23 19 c-18 15 -32 17 -67 12 -48 -7 -50 -3 -33 56 8 29 7
37 -7 48 -9 6 -28 12 -41 12 -19 0 -23 -4 -17 -17z m115 -147 c0 -40 -11 -56
-36 -56 -21 0 -24 4 -24 40 0 38 2 40 30 40 25 0 30 -4 30 -24z m-102 -28 c-2
-35 -7 -44 -24 -46 -16 -2 -23 5 -32 35 -13 41 -5 53 36 53 21 0 23 -4 20 -42z"/>
</g>
<g id="part-2" class="char-part">
  <path d="M300 250 c0 -15 51 -90 62 -90 15 0 20 28 8 49 -12 24 -70 57 -70 41z"/>
</g>
<g id="part-3" class="char-part">
  <path d="M530 571 c0 -11 47 -61 58 -61 5 0 15 6 21 14 10 11 7 19 -10 35 -22
21 -69 29 -69 12z"/>
  <path d="M595 500 c-49 -10 -112 -21 -138 -25 -42 -5 -47 -9 -36 -22 32 -37 5
-197 -51 -309 -40 -79 -39 -91 2 -46 50 53 90 161 103 278 4 33 10 65 13 71 7
10 82 24 215 38 31 4 57 10 57 14 0 8 -53 23 -69 20 -3 -1 -46 -9 -96 -19z"/>
</g>
<g id="part-4" class="char-part">
  <path d="M568 432 c4 -36 2 -38 -29 -40 -46 -4 -50 -12 -6 -12 32 0 37 -3 37
-24 0 -27 -16 -36 -66 -36 -19 0 -34 -4 -34 -10 0 -5 23 -10 50 -10 47 0 50
-2 50 -25 0 -22 -4 -25 -40 -25 -23 0 -40 -5 -40 -11 0 -7 15 -10 40 -7 36 3
40 1 45 -24 9 -37 23 -35 33 5 8 30 11 32 60 35 34 2 52 7 50 15 -1 7 1 24 5
40 7 26 10 27 70 27 57 1 61 2 42 16 -14 10 -31 13 -57 9 -40 -7 -44 -4 -28
24 14 26 -27 42 -87 34 -44 -6 -46 -5 -40 16 3 14 -1 24 -13 31 -36 19 -46 12
-42 -28z m132 -51 c0 -28 -14 -41 -46 -41 -30 0 -34 3 -34 25 0 23 4 25 40 25
22 0 40 -4 40 -9z m-22 -83 c-3 -27 -46 -38 -59 -16 -10 16 15 38 44 38 13 0
18 -6 15 -22z"/>
</g>
<g id="part-5" class="char-part">
  <path d="M692 163 c9 -10 14 -29 13 -43 -2 -14 -4 -28 -4 -32 -1 -5 -10 -8
-21 -8 -32 0 -23 -17 10 -18 17 0 28 4 25 9 -4 5 -1 9 5 9 7 0 9 8 5 21 -5 14
-3 19 3 15 16 -10 26 15 11 26 -10 7 -7 7 9 3 12 -4 22 -2 22 4 0 5 -17 15
-37 20 -52 15 -58 14 -41 -6z"/>
  <path d="M593 163 c9 -2 23 -2 30 0 6 3 -1 5 -18 5 -16 0 -22 -2 -12 -5z"/>
  <path d="M492 130 c5 -14 11 -38 14 -54 4 -36 5 -36 33 -29 16 4 19 8 10 14
-8 5 -17 3 -21 -4 -5 -7 -8 -1 -8 16 0 16 -5 37 -10 48 -8 15 -7 19 4 19 8 0
17 4 21 10 3 5 -7 8 -23 7 -27 -2 -29 -4 -20 -27z"/>
  <path d="M640 72 c0 -6 -7 -9 -15 -6 -8 4 -15 1 -15 -5 0 -6 6 -11 14 -11 17
0 31 18 22 27 -3 4 -6 1 -6 -5z"/>
</g>
</g>
</svg>