<?xml version="1.0" standalone="no"?>
<!DOCTYPE svg PUBLIC "-//W3C//DTD SVG 20010904//EN"
 "http://www.w3.org/TR/2001/REC-SVG-20010904/DTD/svg10.dtd">
<svg version="1.0" xmlns="http://www.w3.org/2000/svg"
 width="96.000000pt" height="68.000000pt" viewBox="0 0 96.000000 68.000000"
 preserveAspectRatio="xMidYMid meet">
<metadata>
Created by potrace 1.16, written by Peter Selinger 2001-2019
Combined from part_0.svg through part_5.svg with named groups
</metadata>
<g transform="translate(0.000000,68.000000) scale(0.100000,-0.100000)" fill="#000000" stroke="none">
<g id="part-0" class="char-part">
  <path d="M331 611 c-8 -5 -41 -13 -73 -16 -38 -5 -58 -11 -55 -19 4 -13 54
-14 109 -3 32 7 37 5 32 -8 -4 -9 -19 -18 -34 -22 -21 -4 -26 -10 -23 -23 4
-16 -4 -19 -51 -25 -31 -4 -56 -12 -56 -17 0 -11 60 -6 94 8 42 16 8 -23 -57
-66 -37 -25 -63 -46 -58 -48 13 -4 89 35 134 70 34 27 37 28 37 10 0 -35 -11
-51 -28 -44 -15 5 -15 4 1 -18 31 -45 39 -74 35 -145 l-3 -70 30 0 c17 -1 51
2 76 6 25 4 90 10 143 14 l96 7 0 -43 c0 -65 -19 -94 -58 -93 -38 2 -40 -6 -9
-42 17 -20 29 -25 45 -20 28 9 58 61 67 116 4 25 12 51 18 58 26 33 -44 51
-153 40 -87 -10 -109 -5 -90 17 8 9 30 15 56 15 24 0 44 5 44 10 0 6 -25 10
-55 10 -44 0 -53 3 -49 15 4 10 20 15 49 15 24 0 47 5 50 10 4 6 -13 10 -44
10 -44 0 -51 3 -51 20 0 17 7 20 48 20 26 0 54 4 62 10 30 19 -15 21 -104 5
-49 -8 -105 -15 -125 -15 l-36 0 0 70 0 70 32 0 c27 0 30 -3 26 -21 -5 -18 -3
-20 13 -11 10 6 27 13 38 16 18 6 18 7 0 27 -16 17 -26 20 -68 15 -41 -6 -47
-4 -37 8 6 7 25 19 41 26 32 13 38 28 18 48 -14 14 -57 16 -77 3z m119 -281
c0 -16 -7 -20 -35 -20 -37 0 -50 25 -17 33 38 10 52 7 52 -13z m10 -49 c0 -14
-15 -21 -50 -26 -24 -3 -30 0 -30 16 0 16 7 19 40 19 22 0 40 -4 40 -9z m-5
-61 c0 -10 -13 -16 -42 -18 -32 -2 -43 1 -43 11 0 22 12 28 50 25 23 -2 35 -8
35 -18z"/>
  <path d="M530 596 c0 -7 -12 -30 -26 -51 -20 -31 -22 -36 -7 -30 10 5 37 10
61 13 l43 4 -3 -33 c-3 -36 -10 -38 -63 -25 -14 4 -25 2 -25 -3 0 -5 10 -11
22 -13 37 -5 31 -25 -14 -41 -38 -14 -40 -16 -15 -16 15 -1 41 6 57 14 28 14
32 14 77 -15 48 -30 103 -38 148 -21 15 6 8 11 -35 21 -59 14 -130 39 -130 47
0 2 7 18 16 34 8 17 13 37 10 45 -4 11 4 14 35 14 28 0 39 4 36 13 -4 13 -35
14 -117 2 -54 -8 -55 -8 -37 12 24 27 21 43 -8 43 -14 0 -25 -6 -25 -14z"/>
  <path d="M236 133 c-29 -43 -31 -78 -6 -78 23 0 54 72 43 98 -9 20 -11 19 -37
-20z"/>
  <path d="M540 157 c0 -8 11 -24 25 -37 19 -17 28 -21 36 -13 8 8 5 18 -14 37
-29 28 -47 33 -47 13z"/>
  <path d="M440 147 c0 -6 9 -23 20 -37 14 -18 22 -22 30 -14 15 15 3 39 -26 52
-18 9 -24 9 -24 -1z"/>
  <path d="M340 132 c0 -17 36 -55 48 -51 8 3 8 11 -1 29 -12 24 -47 41 -47 22z"/>
</g>
<g id="part-1" class="char-part">
  <path d="M310 600 c-14 -4 -42 -8 -62 -9 -21 -1 -38 -6 -38 -12 0 -13 98 -7
136 8 18 7 19 6 1 -21 -10 -15 -17 -29 -15 -32 3 -3 68 36 88 53 2 2 -2 8 -10
13 -18 11 -65 11 -100 0z"/>
</g>
<g id="part-2" class="char-part">
  <path d="M599 533 c-1 -5 -1 -17 0 -28 2 -36 -12 -46 -47 -34 -17 6 -37 9 -44
6 -13 -5 -7 -8 38 -22 23 -7 1 -32 -37 -40 -16 -4 -31 -10 -34 -15 -6 -10 70
7 96 21 15 8 29 3 63 -21 46 -31 98 -38 156 -20 23 6 22 8 -15 14 -48 9 -125
33 -143 45 -12 7 -11 14 3 41 9 17 14 38 11 46 -6 14 -45 20 -47 7z"/>
</g>
<g id="part-3" class="char-part">
  <path d="M500 375 c-36 -7 -87 -13 -115 -14 l-50 -1 0 -90 c1 -49 4 -92 7 -95
3 -4 39 -2 80 4 40 5 112 13 161 16 50 4 87 11 87 17 0 11 -88 8 -237 -8 l-63
-7 7 69 c3 38 7 70 7 71 1 1 45 7 97 13 106 12 129 17 129 31 0 11 -26 10
-110 -6z"/>
</g>
<g id="part-4" class="char-part">
  <path d="M453 330 c-4 -15 -14 -20 -39 -20 -19 0 -34 -4 -34 -10 0 -5 18 -10
40 -10 55 0 54 -25 -2 -36 l-43 -8 43 -4 c28 -2 42 -8 42 -18 0 -8 9 -14 21
-14 14 0 19 5 16 14 -7 18 13 26 64 26 21 0 39 5 39 10 0 6 -22 10 -50 10 -38
0 -50 4 -50 15 0 11 12 15 44 15 25 0 48 5 51 10 7 11 -9 13 -62 10 -24 -1
-33 3 -33 14 0 24 -41 20 -47 -4z"/>
</g>
<g id="part-5" class="char-part">
  <path d="M555 144 c10 -8 15 -14 9 -14 -5 0 -1 -5 9 -11 21 -12 32 -6 24 14
-3 8 -18 17 -33 20 -27 5 -27 4 -9 -9z"/>
  <path d="M251 144 c-1 -5 -10 -20 -22 -33 -22 -23 -19 -51 5 -51 13 0 29 23
31 45 0 6 4 16 9 24 6 9 5 12 -2 7 -5 -3 -13 0 -15 6 -3 7 -6 8 -6 2z"/>
  <path d="M450 145 c0 -14 21 -45 30 -45 18 0 10 29 -10 40 -11 6 -20 8 -20 5z"/>
  <path d="M360 110 c12 -16 23 -30 24 -30 9 0 -3 43 -15 51 -27 17 -30 9 -9
-21z"/>
</g>
</g>
</svg>