<?xml version="1.0" standalone="no"?>
<!DOCTYPE svg PUBLIC "-//W3C//DTD SVG 20010904//EN"
 "http://www.w3.org/TR/2001/REC-SVG-20010904/DTD/svg10.dtd">
<svg version="1.0" xmlns="http://www.w3.org/2000/svg"
 width="96.000000pt" height="68.000000pt" viewBox="0 0 96.000000 68.000000"
 preserveAspectRatio="xMidYMid meet">
<metadata>
Created by potrace 1.16, written by Peter Selinger 2001-2019
Combined from part_0.svg through part_5.svg with named groups
</metadata>
<g transform="translate(0.000000,68.000000) scale(0.100000,-0.100000)" fill="#000000" stroke="none">
<g id="part-0" class="char-part">
  <path d="M450 611 c0 -19 30 -71 40 -71 6 0 10 -4 10 -8 0 -5 -48 -14 -107
-21 -126 -15 -153 -20 -153 -31 0 -4 10 -10 21 -13 21 -6 22 -10 16 -70 -11
-118 -57 -215 -143 -300 -43 -43 -42 -54 4 -29 89 47 151 148 183 296 11 50
23 94 27 97 10 9 150 27 275 35 59 3 107 10 107 14 0 25 -34 33 -120 27 -88
-7 -90 -6 -78 13 11 17 10 23 -7 39 -24 24 -75 38 -75 22z"/>
  <path d="M580 295 l0 -145 29 -32 c29 -32 32 -33 109 -33 85 1 133 17 131 44
0 9 -9 34 -18 56 l-19 40 -7 -38 c-4 -21 -17 -44 -28 -52 -28 -20 -107 -19
-135 1 -19 13 -22 24 -22 83 l0 68 85 18 c47 10 85 22 85 26 0 5 -9 13 -20 19
-16 8 -30 5 -67 -15 -56 -29 -88 -33 -79 -9 3 9 9 33 12 55 6 35 4 39 -20 49
-15 5 -29 10 -32 10 -2 0 -4 -65 -4 -145z"/>
  <path d="M140 417 c0 -7 13 -28 28 -47 30 -35 62 -37 62 -3 0 25 -10 36 -43
51 -36 15 -47 15 -47 -1z"/>
  <path d="M424 383 c2 -10 8 -63 11 -119 7 -100 7 -101 -17 -107 -42 -12 -43
-9 -40 63 4 69 3 70 -22 70 -16 0 -24 -5 -21 -12 2 -7 6 -41 10 -75 l6 -63
-41 0 c-46 0 -53 -14 -13 -27 20 -7 54 -1 142 25 64 19 118 36 120 38 12 11
-9 12 -39 4 -41 -12 -46 -5 -42 54 4 45 5 46 43 52 52 9 51 28 -1 21 l-40 -5
0 43 c0 30 -5 45 -16 49 -29 11 -46 7 -40 -11z"/>
  <path d="M195 295 c-21 -13 -52 -27 -67 -30 -15 -4 -30 -10 -33 -15 -9 -14 6
-39 28 -46 16 -5 31 4 69 46 26 29 48 57 48 61 0 12 1 12 -45 -16z"/>
</g>
<g id="part-1" class="char-part">
  <path d="M467 578 c21 -36 57 -48 67 -23 8 21 -28 55 -60 55 l-26 0 19 -32z"/>
  <path d="M428 512 c-166 -23 -185 -27 -168 -39 41 -29 16 -186 -47 -286 -14
-23 -44 -61 -66 -84 -51 -53 -35 -56 30 -5 75 60 114 144 157 343 7 33 15 35
181 49 72 6 150 13 175 16 41 5 43 7 25 20 -25 18 -63 16 -287 -14z"/>
  <path d="M140 425 c0 -12 46 -75 58 -80 27 -10 41 15 24 42 -8 13 -82 47 -82
38z"/>
  <path d="M196 291 c-15 -10 -45 -24 -66 -31 -34 -11 -38 -16 -29 -31 16 -30
42 -22 89 26 48 48 51 65 6 36z"/>
</g>
<g id="part-2" class="char-part">
  <path d="M424 373 c2 -16 8 -67 11 -115 6 -78 9 -88 26 -88 16 0 19 8 19 54 0
57 7 66 56 66 13 0 24 5 24 11 0 8 -14 10 -40 6 l-40 -5 0 43 c0 43 -10 55
-47 55 -11 0 -13 -7 -9 -27z"/>
</g>
<g id="part-3" class="char-part">
  <path d="M440 165 c-52 -13 -112 -24 -132 -24 -42 -1 -49 -14 -18 -31 16 -8
47 -3 145 26 69 21 125 41 125 46 0 11 -8 9 -120 -17z"/>
</g>
<g id="part-4" class="char-part">
  <path d="M582 291 c3 -112 7 -153 18 -167 26 -30 76 -45 133 -39 119 13 125
18 98 91 l-18 47 -7 -36 c-4 -20 -17 -43 -29 -52 -28 -20 -106 -19 -135 1 -19
13 -22 24 -22 83 l0 68 85 18 c47 10 85 22 85 26 0 5 -9 13 -20 19 -15 8 -30
5 -69 -15 -60 -30 -85 -32 -77 -7 3 9 8 34 12 54 6 34 4 39 -21 48 -14 5 -29
10 -31 10 -3 0 -4 -67 -2 -149z"/>
</g>
</g>
</svg>