<?xml version="1.0" standalone="no"?>
<!DOCTYPE svg PUBLIC "-//W3C//DTD SVG 20010904//EN"
 "http://www.w3.org/TR/2001/REC-SVG-20010904/DTD/svg10.dtd">
<svg version="1.0" xmlns="http://www.w3.org/2000/svg"
 width="96.000000pt" height="68.000000pt" viewBox="0 0 96.000000 68.000000"
 preserveAspectRatio="xMidYMid meet">
<metadata>
Created by potrace 1.16, written by Peter Selinger 2001-2019
Combined from part_0.svg through part_5.svg with named groups
</metadata>
<g transform="translate(0.000000,68.000000) scale(0.100000,-0.100000)" fill="#000000" stroke="none">
<g id="part-0" class="char-part">
  <path d="M275 541 c-112 -17 -141 -33 -70 -39 53 -5 227 16 239 28 27 27 -38
31 -169 11z"/>
  <path d="M605 549 c-3 -5 -1 -17 5 -28 5 -11 10 -44 10 -74 0 -61 -7 -67 -88
-67 -42 0 -42 0 -28 -22 8 -13 18 -40 21 -61 9 -44 19 -52 63 -48 l33 3 -3
-54 -3 -53 -52 -5 c-62 -7 -71 -13 -39 -29 21 -12 37 -9 127 20 71 24 104 30
106 22 8 -23 45 -64 56 -60 35 11 -1 84 -55 111 -42 22 -55 20 -33 -4 22 -24
20 -26 -27 -35 l-38 -7 0 46 c0 51 4 54 64 59 33 2 40 6 41 25 1 12 12 37 25
54 l23 31 -23 19 c-18 15 -32 17 -73 12 l-50 -7 7 72 c4 39 6 71 4 71 -2 0
-18 4 -35 9 -20 6 -35 6 -38 0z m127 -209 c-3 -39 -7 -45 -39 -55 -22 -6 -23
-4 -23 45 l0 51 33 -3 c30 -3 32 -5 29 -38z m-114 -18 c-2 -36 -7 -48 -22 -50
-24 -5 -32 5 -40 50 -7 38 -4 41 47 45 15 2 18 -5 15 -45z"/>
  <path d="M310 464 c-30 -8 -75 -12 -98 -10 -33 4 -41 2 -34 -7 6 -7 15 -32 22
-55 9 -35 15 -42 28 -37 9 3 54 9 100 12 65 5 82 9 78 20 -3 8 2 26 11 40 16
24 16 26 -2 39 -22 16 -32 16 -105 -2z m57 -35 c5 -28 -14 -38 -72 -41 -58 -3
-60 -2 -63 23 -3 24 0 25 50 28 29 1 55 4 57 7 8 8 26 -2 28 -17z"/>
  <path d="M345 324 c-49 -7 -120 -13 -157 -13 l-66 -1 5 -57 c3 -32 0 -76 -5
-97 -8 -27 -8 -45 -1 -58 17 -32 34 -14 36 38 6 116 14 154 32 154 19 0 69
-79 52 -81 -6 -1 -15 -3 -21 -4 -5 -1 -16 -4 -22 -5 -7 -2 7 -6 32 -9 l45 -6
3 -47 c2 -34 7 -48 18 -48 9 0 14 10 14 29 0 16 4 41 10 55 8 21 16 26 45 26
19 0 35 5 35 10 0 6 -17 10 -37 10 l-37 0 33 34 c18 19 30 39 27 45 -5 7 2 11
17 11 14 0 28 -7 31 -16 8 -21 8 -113 0 -154 -7 -30 -9 -31 -41 -25 -27 5 -33
3 -27 -7 33 -58 73 -64 97 -16 8 18 20 73 25 123 14 124 6 130 -143 109z m-5
-34 c0 -5 -8 -25 -17 -45 -19 -39 -53 -49 -53 -15 0 11 -9 29 -20 40 -11 11
-20 22 -20 25 0 3 25 5 55 5 30 0 55 -4 55 -10z"/>
</g>
<g id="part-1" class="char-part">
  <path d="M275 535 c-44 -8 -87 -14 -95 -15 -12 0 -12 -2 2 -10 10 -7 50 -7
113 0 112 12 145 19 145 31 0 12 -68 9 -165 -6z"/>
</g>
<g id="part-2" class="char-part">
  <path d="M340 324 c-52 -7 -126 -13 -163 -13 -64 -1 -67 -2 -57 -20 13 -25 13
-86 -1 -134 -12 -45 -4 -79 19 -75 14 3 18 21 23 100 3 54 8 100 11 103 7 7
250 25 260 19 10 -6 11 -118 2 -164 -6 -30 -9 -31 -41 -25 -31 6 -33 4 -25
-12 21 -38 49 -55 70 -44 25 13 38 55 46 139 3 34 8 73 12 87 5 19 0 26 -25
39 -16 9 -31 15 -33 15 -2 -1 -46 -7 -98 -15z"/>
</g>
<g id="part-3" class="char-part">
  <path d="M605 537 c4 -12 9 -49 12 -83 5 -58 4 -61 -18 -67 -13 -4 -43 -7 -66
-7 l-42 0 14 -27 c8 -16 20 -47 25 -70 10 -41 10 -41 50 -36 l40 6 0 -52 c0
-28 3 -51 8 -51 20 1 31 20 34 60 l3 45 53 3 c46 3 52 6 47 21 -3 10 6 34 21
56 l26 39 -21 18 c-17 13 -33 16 -71 11 l-50 -6 0 34 c0 19 4 49 9 66 11 37 7
42 -46 53 -33 8 -34 7 -28 -13z m132 -194 c-6 -37 -28 -63 -54 -63 -9 0 -13
15 -13 50 l0 50 36 0 37 0 -6 -37z m-119 -20 c3 -35 0 -42 -18 -48 -27 -9 -36
0 -44 47 -5 30 -3 37 11 41 38 10 48 3 51 -40z"/>
</g>
<g id="part-4" class="char-part">
  <path d="M630 153 c-41 -8 -88 -18 -105 -22 l-30 -8 27 -13 c23 -11 38 -8 122
20 132 44 128 51 -14 23z"/>
</g>
<g id="part-5" class="char-part">
  <path d="M735 191 c9 -18 20 -29 25 -26 6 4 7 -2 3 -12 -6 -16 -5 -17 12 -3
10 8 16 9 11 3 -8 -14 10 -53 24 -53 6 0 10 9 10 21 0 11 -4 17 -10 14 -5 -3
-7 0 -4 9 3 9 -11 25 -41 46 l-47 32 17 -31z"/>
</g>
</g>
</svg>