<?xml version="1.0" standalone="no"?>
<!DOCTYPE svg PUBLIC "-//W3C//DTD SVG 20010904//EN"
 "http://www.w3.org/TR/2001/REC-SVG-20010904/DTD/svg10.dtd">
<svg version="1.0" xmlns="http://www.w3.org/2000/svg"
 width="96.000000pt" height="68.000000pt" viewBox="0 0 96.000000 68.000000"
 preserveAspectRatio="xMidYMid meet">
<metadata>
Created by potrace 1.16, written by Peter Selinger 2001-2019
Combined from part_0.svg through part_5.svg with named groups
</metadata>
<g transform="translate(0.000000,68.000000) scale(0.100000,-0.100000)" fill="#000000" stroke="none">
<g id="part-0" class="char-part">
  <path d="M557 623 c-4 -3 -7 -15 -7 -26 0 -11 -31 -50 -70 -88 -65 -64 -80
-88 -36 -54 29 22 49 18 81 -15 34 -35 33 -37 -58 -84 -44 -23 -60 -36 -46
-36 43 0 178 82 249 153 39 38 70 73 70 78 0 16 -48 21 -101 10 -59 -13 -73
-8 -40 15 21 15 21 17 5 35 -18 19 -36 24 -47 12z m113 -92 c0 -6 -17 -29 -38
-53 l-38 -44 -41 20 c-47 23 -50 30 -27 53 24 25 144 44 144 24z"/>
  <path d="M257 474 c-21 -11 -42 -14 -78 -9 -52 7 -58 1 -34 -31 8 -10 20 -45
26 -77 12 -58 12 -59 43 -53 17 3 54 8 81 11 76 10 84 14 61 31 -19 14 -19 15
4 70 19 47 20 58 9 65 -22 14 -81 10 -112 -7z m39 -46 c-3 -13 -6 -35 -6 -49
0 -22 -5 -28 -32 -32 -41 -6 -46 -1 -50 47 -3 35 0 41 22 47 14 4 36 7 49 8
19 1 22 -3 17 -21z"/>
  <path d="M582 348 c-33 -48 -80 -93 -132 -125 -41 -27 -26 -30 25 -6 l35 17
37 -37 37 -37 -28 -23 c-15 -12 -64 -41 -109 -65 -61 -33 -73 -42 -47 -37 52
11 194 84 248 128 92 76 153 139 148 153 -8 21 -52 27 -101 15 -62 -16 -71
-14 -51 7 15 18 15 20 -2 35 -10 10 -21 17 -25 17 -3 0 -19 -19 -35 -42z m128
-55 c0 -12 -80 -103 -90 -103 -5 0 -27 12 -50 27 l-41 27 23 19 c13 10 31 21
40 25 26 10 118 14 118 5z"/>
</g>
<g id="part-1" class="char-part">
  <path d="M260 474 c-19 -9 -52 -14 -77 -12 -41 3 -54 -4 -33 -17 5 -3 14 -32
21 -64 15 -78 19 -84 53 -71 15 5 46 10 69 10 50 0 82 15 55 25 -15 6 -15 12
5 66 11 32 18 61 15 64 -13 14 -76 13 -108 -1z m40 -64 c0 -53 -15 -70 -63
-70 -19 0 -26 6 -31 31 -13 66 -4 75 87 88 4 1 7 -21 7 -49z"/>
</g>
<g id="part-2" class="char-part">
  <path d="M540 585 c-12 -25 -47 -67 -78 -95 -31 -27 -53 -50 -48 -50 12 0 99
50 121 70 20 18 135 39 135 25 0 -34 -137 -151 -224 -191 -31 -14 -56 -27 -56
-29 0 -1 15 0 33 5 68 15 178 83 253 156 72 70 74 73 53 85 -21 11 -71 8 -129
-7 l-25 -7 25 27 c24 27 25 28 6 42 -31 22 -43 17 -66 -31z"/>
</g>
<g id="part-3" class="char-part">
  <path d="M520 445 c33 -34 50 -37 50 -10 0 15 -49 45 -71 45 -7 0 2 -16 21
-35z"/>
</g>
<g id="part-4" class="char-part">
  <path d="M596 377 c-8 -33 -84 -116 -135 -149 -25 -15 -39 -28 -33 -28 17 0
90 37 127 65 17 12 50 25 75 28 25 3 54 9 63 13 40 15 13 -33 -56 -100 -53
-52 -99 -85 -172 -123 -112 -59 -111 -68 1 -23 100 40 164 82 259 172 65 62
78 79 67 89 -14 15 -66 17 -132 5 -44 -8 -44 -8 -22 9 19 14 21 20 11 31 -7 9
-20 19 -30 24 -13 8 -18 5 -23 -13z"/>
</g>
</g>
</svg>