<?xml version="1.0" standalone="no"?>
<!DOCTYPE svg PUBLIC "-//W3C//DTD SVG 20010904//EN"
 "http://www.w3.org/TR/2001/REC-SVG-20010904/DTD/svg10.dtd">
<svg version="1.0" xmlns="http://www.w3.org/2000/svg"
 width="96.000000pt" height="68.000000pt" viewBox="0 0 96.000000 68.000000"
 preserveAspectRatio="xMidYMid meet">
<metadata>
Created by potrace 1.16, written by Peter Selinger 2001-2019
Combined from part_0.svg through part_5.svg with named groups
</metadata>
<g transform="translate(0.000000,68.000000) scale(0.100000,-0.100000)" fill="#000000" stroke="none">
<g id="part-0" class="char-part">
  <path d="M566 527 l6 -63 -61 -10 -61 -10 0 42 c0 40 -12 53 -51 54 -3 0 -4
-22 -1 -50 l5 -50 -42 0 c-22 0 -41 -4 -41 -10 0 -5 18 -10 40 -10 45 0 46 -1
54 -116 l5 -72 -62 -6 c-87 -8 -87 -8 -81 -18 3 -4 21 -8 40 -8 l34 0 0 -60
c0 -74 18 -95 86 -106 64 -9 304 2 317 15 24 24 7 26 -201 15 -154 -7 -162 -4
-162 63 0 60 14 83 50 83 17 0 30 -5 30 -11 0 -14 -32 -72 -45 -81 -6 -5 -3
-8 7 -8 20 0 78 68 78 92 0 13 8 18 25 18 21 0 25 -5 25 -28 0 -54 20 -67 101
-67 49 0 74 4 76 13 4 9 -13 12 -61 12 -74 0 -88 12 -68 56 11 23 16 24 101
24 92 0 121 11 79 31 -16 7 -46 7 -92 1 -50 -6 -69 -6 -72 3 -3 6 -4 50 -2 96
l3 84 52 5 c41 4 51 8 44 19 -6 9 -22 12 -50 9 l-41 -4 0 48 c0 43 -3 50 -26
58 -43 17 -45 14 -38 -53z m4 -111 c0 -20 -7 -25 -37 -31 -21 -3 -48 -9 -60
-12 -20 -4 -23 -1 -23 25 0 28 3 31 38 35 82 8 82 8 82 -17z m0 -71 c0 -14 -6
-25 -14 -25 -7 0 -34 -3 -60 -6 -46 -7 -48 -6 -44 17 3 24 8 26 106 37 7 1 12
-9 12 -23z m5 -75 c0 -24 -3 -25 -62 -28 -61 -3 -63 -2 -63 22 0 21 5 25 38
29 73 8 87 4 87 -23z"/>
  <path d="M180 504 c0 -18 63 -64 88 -64 26 0 30 31 7 50 -24 20 -95 30 -95 14z"/>
  <path d="M100 373 c0 -19 79 -86 94 -80 22 9 20 40 -3 61 -21 19 -91 34 -91
19z"/>
  <path d="M211 209 c-19 -28 -45 -58 -58 -66 -38 -25 -46 -48 -28 -83 9 -16 22
-30 29 -30 12 0 106 196 106 220 0 21 -17 7 -49 -41z"/>
</g>
<g id="part-1" class="char-part">
  <path d="M212 475 c45 -41 68 -45 68 -11 0 18 -8 27 -31 35 -18 6 -41 11 -53
11 -18 -1 -16 -5 16 -35z"/>
  <path d="M110 370 c0 -18 53 -70 72 -70 15 0 19 6 16 27 -2 22 -10 29 -45 39
-24 7 -43 9 -43 4z"/>
  <path d="M219 213 c-18 -27 -47 -62 -66 -79 -38 -36 -41 -52 -14 -85 l19 -24
45 97 c69 148 74 177 16 91z"/>
</g>
<g id="part-2" class="char-part">
  <path d="M557 583 c-3 -5 -2 -15 4 -23 5 -8 9 -34 9 -56 l0 -41 -46 -7 c-74
-10 -74 -10 -74 33 0 38 -11 51 -45 51 -11 0 -13 -11 -8 -50 l6 -50 -34 0
c-48 0 -69 -15 -34 -24 15 -4 35 -4 45 -1 24 7 28 -9 31 -105 l2 -75 -71 -8
c-46 -6 -70 -13 -66 -19 7 -11 96 -7 284 12 52 5 130 10 173 10 76 0 90 7 63
29 -10 8 -34 9 -87 2 -41 -5 -78 -5 -82 -1 -4 4 -7 47 -5 96 l3 89 53 3 c28 2
52 7 52 12 0 12 -65 24 -85 16 -12 -4 -15 5 -15 49 0 37 -4 55 -12 55 -7 0
-23 3 -34 6 -12 3 -24 2 -27 -3z m16 -235 c3 -64 1 -95 -7 -100 -6 -4 -35 -8
-63 -8 l-53 0 0 94 0 95 38 4 c87 9 79 17 85 -85z"/>
</g>
<g id="part-3" class="char-part">
  <path d="M485 375 c-39 -13 -39 -19 0 -16 48 3 85 13 85 21 0 13 -37 11 -85
-5z"/>
</g>
<g id="part-4" class="char-part">
  <path d="M350 143 c1 -68 11 -85 65 -103 46 -15 321 -8 338 9 24 24 13 24
-193 15 -172 -8 -175 -6 -168 81 4 52 3 55 -19 55 -21 0 -23 -4 -23 -57z"/>
</g>
</g>
</svg>