<?xml version="1.0" standalone="no"?>
<!DOCTYPE svg PUBLIC "-//W3C//DTD SVG 20010904//EN"
 "http://www.w3.org/TR/2001/REC-SVG-20010904/DTD/svg10.dtd">
<svg version="1.0" xmlns="http://www.w3.org/2000/svg"
 width="96.000000pt" height="68.000000pt" viewBox="0 0 96.000000 68.000000"
 preserveAspectRatio="xMidYMid meet">
<metadata>
Created by potrace 1.16, written by Peter Selinger 2001-2019
Combined from part_0.svg through part_5.svg with named groups
</metadata>
<g transform="translate(0.000000,68.000000) scale(0.100000,-0.100000)" fill="#000000" stroke="none">
<g id="part-0" class="char-part">
  <path d="M316 576 c-7 -26 -67 -94 -120 -134 -37 -29 -28 -37 18 -18 42 17 97
56 146 104 28 27 32 36 24 50 -6 9 -22 18 -36 20 -20 2 -27 -2 -32 -22z"/>
  <path d="M530 554 c0 -3 11 -20 25 -38 14 -18 25 -35 25 -38 0 -3 -34 -11 -76
-18 -82 -14 -85 -35 -2 -24 50 6 51 5 62 -59 8 -46 -1 -55 -65 -62 -74 -9 -67
-25 12 -25 l59 0 0 -59 c0 -68 -3 -70 -105 -72 -70 -1 -118 -13 -95 -22 27
-11 463 7 467 19 8 25 -54 37 -134 26 -43 -5 -82 -6 -86 -2 -5 4 -7 31 -5 61
l3 54 63 8 c94 13 80 34 -19 28 -45 -3 -51 5 -38 54 8 29 8 40 -3 46 -7 5 -10
9 -5 10 4 1 10 2 15 3 4 1 33 5 65 10 31 4 57 11 57 16 0 15 -54 21 -90 10
-19 -5 -36 -10 -37 -10 -2 0 -3 14 -3 31 0 25 -6 32 -35 45 -36 15 -55 18 -55
8z"/>
  <path d="M322 418 c-25 -57 -153 -178 -188 -178 -8 0 -14 -4 -14 -10 0 -18 25
-11 84 25 32 19 62 35 67 35 12 0 11 -66 -2 -134 -9 -43 -9 -63 0 -83 21 -47
36 -10 43 110 3 64 2 113 -3 115 -18 7 -8 28 36 75 51 54 53 62 26 77 -28 14
-28 14 -49 -32z"/>
</g>
<g id="part-1" class="char-part">
  <path d="M317 572 c-3 -16 -32 -53 -70 -90 -36 -34 -59 -62 -52 -62 19 0 125
74 165 115 34 35 34 37 16 51 -31 22 -53 17 -59 -14z"/>
</g>
<g id="part-2" class="char-part">
  <path d="M326 428 c-7 -38 -97 -130 -172 -177 -69 -43 -27 -40 52 3 34 19 65
32 68 29 10 -11 7 -76 -7 -130 -13 -50 -9 -85 13 -98 6 -4 14 -4 18 0 12 11
20 229 10 249 -8 15 -1 27 36 65 51 52 55 65 27 81 -31 16 -38 12 -45 -22z"/>
</g>
<g id="part-3" class="char-part">
  <path d="M544 532 c8 -16 22 -35 31 -42 16 -13 16 -15 -2 -21 -10 -4 -40 -8
-68 -8 -57 -1 -88 -14 -60 -25 31 -11 315 20 315 35 0 15 -49 22 -90 11 -44
-11 -50 -8 -50 24 0 24 -42 54 -75 54 -14 0 -14 -3 -1 -28z"/>
</g>
<g id="part-4" class="char-part">
  <path d="M564 390 c12 -62 6 -69 -67 -77 -73 -7 -63 -23 14 -23 l59 0 0 -59
c0 -67 -4 -71 -83 -72 -29 0 -70 -4 -92 -8 -73 -13 -3 -24 114 -17 58 4 151 7
206 8 104 1 125 4 125 19 0 18 -76 29 -130 19 -100 -19 -100 -19 -100 54 l0
64 65 7 c36 3 65 11 65 16 0 5 -29 9 -65 9 -36 0 -65 3 -65 8 0 4 5 24 11 46
12 44 3 56 -42 56 -25 0 -25 0 -15 -50z"/>
</g>
</g>
</svg>