<?xml version="1.0" standalone="no"?>
<!DOCTYPE svg PUBLIC "-//W3C//DTD SVG 20010904//EN"
 "http://www.w3.org/TR/2001/REC-SVG-20010904/DTD/svg10.dtd">
<svg version="1.0" xmlns="http://www.w3.org/2000/svg"
 width="96.000000pt" height="68.000000pt" viewBox="0 0 96.000000 68.000000"
 preserveAspectRatio="xMidYMid meet">
<metadata>
Created by potrace 1.16, written by Peter Selinger 2001-2019
Combined from part_0.svg through part_5.svg with named groups
</metadata>
<g transform="translate(0.000000,68.000000) scale(0.100000,-0.100000)" fill="#000000" stroke="none">
<g id="part-0" class="char-part">
  <path d="M470 601 c0 -19 23 -61 33 -61 6 0 8 -2 5 -5 -3 -3 -58 -12 -124 -21
-128 -16 -154 -27 -109 -44 28 -11 28 -11 21 -78 -11 -117 -38 -187 -112 -285
-24 -31 -44 -60 -44 -62 0 -13 60 27 94 62 58 60 99 165 121 315 4 26 12 49
19 51 11 4 102 15 294 33 35 4 52 10 52 19 0 21 -35 28 -101 20 -50 -6 -59 -5
-59 9 0 17 -31 40 -67 51 -14 4 -23 2 -23 -4z"/>
  <path d="M536 459 c-11 -7 -42 -12 -70 -13 l-51 0 3 -48 c3 -31 -1 -54 -12
-70 -20 -28 -20 -39 -1 -31 20 7 55 75 55 106 0 20 6 25 38 31 71 11 72 11 72
-42 0 -65 19 -82 91 -82 59 0 86 11 74 30 -5 8 -28 11 -69 8 -60 -3 -61 -2
-64 24 -2 15 4 38 14 53 9 14 14 28 12 31 -12 11 -74 14 -92 3z"/>
  <path d="M140 432 c0 -15 66 -72 82 -72 39 0 33 50 -8 68 -29 14 -74 16 -74 4z"/>
  <path d="M173 286 c-40 -22 -73 -46 -73 -52 0 -6 14 -17 30 -24 30 -12 32 -11
85 46 82 89 72 96 -42 30z"/>
  <path d="M525 275 c-33 -8 -75 -14 -92 -14 -40 -1 -42 -15 -5 -30 40 -17 95
-70 88 -86 -7 -18 -55 -43 -136 -71 -36 -12 -55 -23 -43 -23 29 -1 180 47 188
59 10 17 35 11 73 -17 20 -16 39 -31 42 -35 12 -16 64 -19 130 -8 38 6 70 15
70 20 0 4 -19 10 -42 14 -62 10 -170 43 -192 59 -18 13 -18 15 -1 43 10 16 30
42 44 57 22 24 23 29 11 37 -20 13 -63 11 -135 -5z m58 -21 c8 -9 -25 -74 -37
-74 -6 0 -27 14 -46 30 -37 30 -35 34 20 43 42 7 56 7 63 1z"/>
</g>
<g id="part-1" class="char-part">
  <path d="M489 566 c12 -18 21 -36 21 -38 0 -3 -54 -11 -120 -18 -119 -13 -149
-22 -110 -35 17 -5 20 -15 20 -64 0 -109 -44 -225 -118 -312 -19 -22 -32 -42
-30 -45 3 -2 28 13 56 35 73 58 113 154 146 352 l6 36 78 11 c42 6 121 14 175
18 94 7 126 17 92 31 -24 9 -63 9 -112 0 -41 -7 -43 -6 -43 16 0 24 -33 47
-66 47 -13 0 -12 -6 5 -34z"/>
  <path d="M149 422 c14 -26 59 -62 77 -62 20 0 17 48 -3 58 -10 6 -33 13 -51
17 -32 7 -33 6 -23 -13z"/>
  <path d="M183 287 c-40 -24 -75 -46 -79 -49 -3 -4 8 -14 24 -22 l31 -16 50 57
c43 48 61 75 49 73 -2 -1 -35 -20 -75 -43z"/>
</g>
<g id="part-2" class="char-part">
  <path d="M420 404 c0 -31 -7 -61 -20 -81 -27 -46 -6 -43 32 3 19 22 41 114 28
114 -5 0 -15 3 -24 6 -13 5 -16 -2 -16 -42z"/>
</g>
<g id="part-3" class="char-part">
  <path d="M511 455 c-63 -21 -64 -27 -1 -23 l55 3 3 -47 c4 -59 27 -78 93 -78
58 0 79 7 79 27 0 12 -13 14 -67 12 -65 -4 -68 -3 -71 19 -2 13 4 35 13 49 10
14 13 29 8 34 -16 16 -68 18 -112 4z"/>
</g>
<g id="part-4" class="char-part">
  <path d="M525 274 c-38 -7 -86 -13 -105 -14 -31 -1 -33 -3 -16 -13 10 -7 43
-30 72 -51 44 -32 52 -42 42 -53 -17 -21 -64 -43 -143 -69 -44 -15 -60 -23
-44 -24 33 0 141 34 188 59 l34 18 46 -34 c25 -20 56 -39 69 -44 25 -10 175 9
167 21 -2 4 -33 13 -67 19 -35 6 -91 23 -125 37 l-63 26 22 32 c12 17 33 44
47 59 22 24 23 29 11 37 -19 12 -48 11 -135 -6z m65 -25 c0 -18 -33 -69 -45
-69 -6 0 -26 13 -45 29 -37 31 -35 35 20 44 48 8 70 7 70 -4z"/>
</g>
</g>
</svg>