<?xml version="1.0" standalone="no"?>
<!DOCTYPE svg PUBLIC "-//W3C//DTD SVG 20010904//EN"
 "http://www.w3.org/TR/2001/REC-SVG-20010904/DTD/svg10.dtd">
<svg version="1.0" xmlns="http://www.w3.org/2000/svg"
 width="96.000000pt" height="68.000000pt" viewBox="0 0 96.000000 68.000000"
 preserveAspectRatio="xMidYMid meet">
<metadata>
Created by potrace 1.16, written by Peter Selinger 2001-2019
Combined from part_0.svg through part_5.svg with named groups
</metadata>
<g transform="translate(0.000000,68.000000) scale(0.100000,-0.100000)" fill="#000000" stroke="none">
<g id="part-0" class="char-part">
  <path d="M420 622 c0 -4 7 -17 15 -29 14 -20 13 -21 -28 -27 -23 -3 -76 -8
-117 -12 -95 -8 -116 -18 -75 -34 23 -9 53 -8 135 4 58 9 163 19 233 22 70 4
130 10 132 14 9 14 -25 32 -62 33 -21 1 -64 -2 -95 -7 -54 -8 -58 -7 -58 12 0
11 -7 23 -16 26 -22 9 -64 7 -64 -2z"/>
  <path d="M585 514 c-23 -9 -54 -12 -72 -9 -18 3 -33 5 -33 3 0 -2 7 -21 15
-43 22 -62 19 -101 -7 -109 -47 -12 -78 -7 -78 13 0 23 -39 36 -46 16 -3 -8
-3 -18 0 -23 6 -11 -26 -22 -62 -22 -14 0 -21 -4 -17 -11 4 -6 21 -10 39 -9
49 3 56 1 50 -14 -3 -8 -22 -18 -42 -22 l-37 -8 40 -5 c26 -4 41 -12 43 -23 3
-18 -34 -27 -121 -30 -79 -2 -64 -18 17 -18 41 0 78 -5 81 -10 3 -6 2 -10 -4
-10 -5 0 -30 -14 -55 -30 -25 -17 -68 -40 -95 -52 -28 -11 -51 -25 -51 -29 0
-10 124 35 158 57 13 9 26 13 30 10 3 -3 4 -35 3 -71 -3 -80 4 -81 88 -23 63
43 75 61 22 34 -16 -9 -40 -16 -51 -16 -19 0 -21 5 -19 38 2 21 0 43 -5 50 -4
7 4 21 21 36 30 27 54 31 233 41 57 4 107 8 109 11 13 12 -19 19 -92 19 -93 0
-115 15 -44 30 55 12 52 25 -5 25 -59 0 -50 26 12 35 60 8 57 25 -4 25 -35 0
-45 4 -49 20 -3 11 -12 20 -21 20 -9 0 -16 5 -16 10 0 6 28 10 63 10 l62 0 13
41 c19 62 4 71 -73 43z m45 -22 c0 -17 -26 -41 -45 -42 -48 -5 -65 0 -65 19 0
20 18 27 78 30 17 0 32 -3 32 -7z m-113 -176 c-5 -17 -108 -21 -105 -4 2 7 21
15 43 18 47 7 67 2 62 -14z m1 -58 c2 -13 -7 -18 -42 -23 -48 -8 -66 -2 -66
20 0 26 103 29 108 3z"/>
  <path d="M375 500 c-11 -5 -41 -9 -66 -9 l-47 -1 21 -45 c13 -28 26 -44 34
-41 7 3 35 8 63 12 43 6 50 10 50 28 0 12 5 27 12 34 6 6 10 14 7 16 -10 10
-56 14 -74 6z m22 -57 c-3 -2 -24 -7 -46 -10 -37 -5 -41 -3 -41 15 0 21 9 26
65 34 13 2 21 -3 23 -15 2 -10 1 -21 -1 -24z"/>
  <path d="M582 180 c-26 -35 -38 -37 -72 -10 -27 21 -60 26 -60 10 0 -5 6 -10
13 -10 6 0 53 -29 104 -65 88 -62 94 -65 150 -64 63 0 109 13 83 22 -8 3 -40
11 -70 17 -64 13 -160 49 -160 60 0 4 18 13 40 20 44 15 49 24 21 40 -26 13
-24 14 -49 -20z"/>
</g>
<g id="part-1" class="char-part">
  <path d="M430 617 c0 -7 5 -18 11 -24 21 -21 0 -30 -78 -37 -121 -10 -163 -17
-157 -27 7 -12 74 -11 149 1 33 5 125 14 204 19 79 6 146 13 150 16 22 23
-138 30 -194 9 -10 -4 -15 0 -15 15 0 14 -9 25 -26 31 -34 13 -44 13 -44 -3z"/>
</g>
<g id="part-2" class="char-part">
  <path d="M375 500 c-11 -5 -41 -9 -67 -9 l-46 -1 21 -50 c13 -32 24 -46 31
-41 6 5 34 12 61 16 47 6 51 9 62 43 15 49 -8 65 -62 42z m25 -34 c0 -24 -21
-36 -67 -36 -35 0 -31 38 5 46 15 3 32 7 37 9 21 7 25 4 25 -19z"/>
</g>
<g id="part-3" class="char-part">
  <path d="M576 515 c-27 -8 -63 -11 -79 -8 -26 5 -28 4 -18 -13 6 -10 16 -32
21 -48 7 -19 15 -26 26 -22 9 3 40 6 70 6 45 0 54 3 54 18 0 10 7 28 16 41 14
19 14 25 3 32 -18 11 -33 10 -93 -6z m54 -23 c0 -26 -28 -43 -65 -40 -46 4
-63 33 -23 41 41 8 88 7 88 -1z"/>
</g>
<g id="part-4" class="char-part">
  <path d="M578 177 l-27 -32 -40 23 c-22 12 -48 22 -58 22 -13 -1 -9 -6 12 -17
17 -9 66 -42 111 -74 70 -51 87 -59 126 -59 54 0 108 10 108 19 0 4 -32 12
-71 19 -73 13 -169 48 -169 63 0 4 18 14 40 20 44 13 50 23 21 39 -25 13 -21
14 -53 -23z"/>
  <path d="M353 148 c-5 -7 -11 -33 -12 -58 -1 -25 -3 -54 -4 -65 -3 -33 28 -28
91 16 34 24 60 44 58 46 -1 2 -19 -4 -39 -12 -60 -25 -70 -21 -64 25 5 43 -12
71 -30 48z"/>
</g>
</g>
</svg>