<?xml version="1.0" standalone="no"?>
<!DOCTYPE svg PUBLIC "-//W3C//DTD SVG 20010904//EN"
 "http://www.w3.org/TR/2001/REC-SVG-20010904/DTD/svg10.dtd">
<svg version="1.0" xmlns="http://www.w3.org/2000/svg"
 width="96.000000pt" height="68.000000pt" viewBox="0 0 96.000000 68.000000"
 preserveAspectRatio="xMidYMid meet">
<metadata>
Created by potrace 1.16, written by Peter Selinger 2001-2019
Combined from part_0.svg through part_5.svg with named groups
</metadata>
<g transform="translate(0.000000,68.000000) scale(0.100000,-0.100000)" fill="#000000" stroke="none">
<g id="part-0" class="char-part">
  <path d="M225 568 c4 -13 9 -51 12 -84 l5 -61 -66 -8 c-36 -3 -66 -10 -66 -15
0 -15 40 -22 86 -15 l44 6 0 -44 c0 -45 0 -45 -52 -65 -29 -12 -65 -24 -80
-28 -37 -8 -36 -28 2 -44 26 -11 34 -9 76 15 25 15 48 25 50 22 2 -2 1 -30 -2
-61 l-7 -58 -33 7 c-19 3 -34 2 -34 -3 0 -12 74 -82 88 -82 25 0 42 58 42 147
l0 88 53 30 c57 32 45 47 -18 21 l-36 -15 3 37 c2 28 8 38 23 40 51 7 65 14
65 28 0 13 -9 15 -46 12 l-46 -3 7 40 c3 22 10 44 16 50 18 18 9 36 -26 51
-51 21 -69 19 -60 -8z"/>
  <path d="M490 461 c0 -5 10 -11 22 -13 22 -3 34 -20 62 -88 7 -19 24 -60 36
-90 50 -126 76 -145 188 -138 l54 3 -58 30 c-66 34 -129 94 -159 152 -44 84
-85 141 -107 147 -32 8 -38 8 -38 -3z"/>
  <path d="M420 336 c0 -48 -66 -176 -91 -176 -5 0 -9 -4 -9 -10 0 -12 28 -2 53
19 21 18 76 101 94 143 11 24 10 29 -7 38 -29 16 -40 12 -40 -14z"/>
</g>
<g id="part-1" class="char-part">
  <path d="M238 504 c5 -87 1 -94 -65 -94 -23 0 -45 -4 -48 -10 -4 -6 17 -10 54
-10 l61 0 0 -45 c0 -50 -8 -57 -98 -85 -60 -19 -68 -31 -28 -45 23 -8 37 -5
77 18 l49 27 0 -58 c0 -72 -8 -85 -46 -76 l-29 7 35 -39 c19 -21 37 -41 38
-44 2 -3 12 6 23 19 16 19 19 40 19 120 l0 96 51 28 c57 33 60 45 6 22 -52
-22 -57 -19 -57 24 l0 39 50 7 c28 4 50 11 50 15 0 14 -36 21 -64 14 -24 -6
-26 -3 -26 23 0 17 5 45 12 63 9 29 9 35 -7 47 -11 7 -29 13 -40 13 -21 0 -22
-3 -17 -76z"/>
</g>
<g id="part-2" class="char-part">
  <path d="M480 466 c0 -3 15 -12 33 -20 29 -12 38 -27 85 -144 30 -72 63 -139
74 -149 15 -14 40 -19 102 -21 l81 -3 -58 32 c-80 44 -125 92 -181 193 -26 47
-54 90 -60 96 -15 12 -76 25 -76 16z"/>
  <path d="M416 319 c-8 -51 -27 -88 -68 -134 -17 -20 -29 -38 -26 -40 13 -14
76 48 115 114 43 70 44 75 27 88 -30 22 -41 15 -48 -28z"/>
</g>
</g>
</svg>