<?xml version="1.0" standalone="no"?>
<!DOCTYPE svg PUBLIC "-//W3C//DTD SVG 20010904//EN"
 "http://www.w3.org/TR/2001/REC-SVG-20010904/DTD/svg10.dtd">
<svg version="1.0" xmlns="http://www.w3.org/2000/svg"
 width="96.000000pt" height="68.000000pt" viewBox="0 0 96.000000 68.000000"
 preserveAspectRatio="xMidYMid meet">
<metadata>
Created by potrace 1.16, written by Peter Selinger 2001-2019
Combined from part_0.svg through part_5.svg with named groups
</metadata>
<g transform="translate(0.000000,68.000000) scale(0.100000,-0.100000)" fill="#000000" stroke="none">
<g id="part-0" class="char-part">
  <path d="M245 568 c-2 -7 -9 -31 -14 -53 -13 -47 -67 -145 -81 -145 -6 0 -10
-6 -10 -12 0 -7 -14 -28 -30 -47 -34 -39 -35 -41 -16 -41 8 0 35 18 60 39 53
46 86 46 86 1 0 -25 -4 -28 -50 -34 -27 -4 -50 -11 -50 -16 0 -6 23 -10 50
-10 48 0 50 -1 50 -29 0 -16 3 -42 6 -58 5 -27 3 -30 -34 -41 -22 -7 -60 -12
-86 -12 -25 0 -46 -3 -46 -7 0 -14 15 -30 39 -43 21 -11 31 -9 80 14 31 14 83
36 115 49 33 12 62 29 64 36 3 10 -2 12 -19 7 -75 -20 -69 -24 -69 38 0 53 1
56 28 62 45 10 52 13 52 24 0 5 -18 10 -40 10 -36 0 -40 3 -40 25 0 20 6 25
35 31 20 3 35 12 35 20 0 16 -28 17 -89 3 -24 -5 -45 -8 -47 -7 -2 2 13 32 32
66 l36 63 35 -31 c38 -34 56 -35 61 -2 3 17 -5 26 -35 39 -21 10 -44 26 -51
35 -20 28 -51 42 -57 26z"/>
  <path d="M695 474 c-16 -14 -50 -36 -75 -49 l-45 -24 40 2 40 2 0 -40 c0 -37
-2 -40 -40 -51 l-40 -12 40 -3 c40 -4 40 -4 43 -51 l3 -47 -51 -7 c-83 -11
-36 -24 65 -18 50 3 105 7 124 10 51 8 19 24 -47 24 l-53 0 3 48 3 47 43 3
c23 2 42 7 42 12 0 13 -22 18 -57 12 l-31 -4 5 41 c3 25 1 46 -6 55 -10 12 -6
15 18 21 42 9 58 31 32 44 -25 14 -21 15 -56 -15z"/>
  <path d="M430 429 l-35 -20 43 7 c36 5 42 3 42 -13 0 -10 -14 -38 -30 -63 -16
-25 -30 -48 -30 -52 0 -5 16 -8 35 -8 19 0 35 -2 35 -4 0 -1 -5 -17 -11 -35
-9 -26 -16 -31 -43 -31 -20 0 -35 7 -44 20 -7 11 -18 20 -26 20 -14 0 -61 -69
-52 -77 2 -2 21 4 43 15 37 18 69 19 86 2 11 -10 -6 -43 -50 -91 -39 -43 -32
-52 13 -17 31 24 53 47 69 72 9 14 23 8 108 -44 l97 -60 85 0 c47 0 85 4 85 9
0 5 -26 15 -57 21 -69 14 -196 56 -238 78 -57 31 -57 31 -30 76 14 24 25 46
25 50 0 13 -45 24 -62 15 -34 -18 -29 13 12 67 23 31 39 62 36 70 -8 20 -64
17 -106 -7z"/>
  <path d="M140 206 c0 -16 45 -66 59 -66 5 0 13 5 16 10 12 19 -6 48 -37 59
-39 14 -38 14 -38 -3z"/>
</g>
<g id="part-1" class="char-part">
  <path d="M246 558 c-2 -7 -9 -33 -16 -58 -12 -45 -67 -133 -122 -195 -41 -48
-17 -44 43 6 55 46 78 47 92 6 11 -35 8 -38 -48 -44 -61 -7 -57 -23 5 -23 l51
0 -3 -61 -3 -62 -49 -14 c-28 -8 -62 -13 -78 -11 -36 6 -38 -18 -3 -34 17 -8
34 -8 49 -2 12 5 67 27 121 48 94 38 117 58 42 38 -35 -10 -35 -10 -39 25 -2
19 -2 48 0 63 3 24 10 29 45 34 36 6 39 9 24 18 -11 5 -30 8 -43 5 -23 -4 -25
-2 -22 27 2 22 9 32 23 34 42 7 51 14 30 22 -11 4 -45 1 -75 -6 -30 -7 -56
-11 -58 -10 -6 6 74 136 84 136 6 0 21 -11 34 -25 28 -29 63 -34 58 -7 -2 9
-22 26 -45 37 -24 11 -43 25 -43 32 0 7 -9 17 -19 23 -25 13 -31 13 -35 -2z"/>
  <path d="M344 228 c-4 -7 -14 -23 -22 -36 l-15 -23 46 22 c36 18 44 26 35 36
-13 16 -35 17 -44 1z"/>
  <path d="M150 202 c0 -18 33 -52 51 -52 24 0 24 15 -1 40 -20 20 -50 27 -50
12z"/>
</g>
<g id="part-2" class="char-part">
  <path d="M445 435 l-50 -25 43 6 c28 4 42 2 42 -6 0 -15 -38 -87 -50 -95 -15
-9 -12 -35 5 -35 8 0 20 10 26 23 6 12 29 46 51 75 22 30 36 57 32 62 -22 20
-52 18 -99 -5z"/>
</g>
<g id="part-3" class="char-part">
  <path d="M504 302 c-5 -4 -16 -26 -22 -49 -12 -40 -15 -43 -50 -44 -21 -1 -28
-3 -17 -6 46 -11 39 -37 -26 -108 -16 -16 -26 -31 -24 -34 8 -7 83 50 100 75
8 13 20 24 27 24 6 0 50 -25 98 -55 86 -54 88 -55 161 -54 120 1 124 12 14 38
-98 22 -255 86 -255 103 0 5 9 26 20 48 11 22 20 41 20 44 0 10 -36 24 -46 18z"/>
</g>
<g id="part-4" class="char-part">
  <path d="M664 424 c-7 -3 -9 -23 -6 -52 l4 -48 -48 -11 -49 -10 48 -2 47 -1 0
-50 0 -49 -51 -7 c-80 -11 -37 -25 56 -19 124 9 166 15 160 26 -4 5 -34 9 -69
9 l-62 0 6 48 5 47 43 3 c23 2 42 7 42 13 0 10 -20 13 -64 10 -29 -3 -29 -2
-23 42 5 35 3 46 -9 51 -9 3 -16 6 -17 5 -1 0 -7 -3 -13 -5z"/>
</g>
</g>
</svg>