<?xml version="1.0" standalone="no"?>
<!DOCTYPE svg PUBLIC "-//W3C//DTD SVG 20010904//EN"
 "http://www.w3.org/TR/2001/REC-SVG-20010904/DTD/svg10.dtd">
<svg version="1.0" xmlns="http://www.w3.org/2000/svg"
 width="96.000000pt" height="68.000000pt" viewBox="0 0 96.000000 68.000000"
 preserveAspectRatio="xMidYMid meet">
<metadata>
Created by potrace 1.16, written by Peter Selinger 2001-2019
Combined from part_0.svg through part_5.svg with named groups
</metadata>
<g transform="translate(0.000000,68.000000) scale(0.100000,-0.100000)" fill="#000000" stroke="none">
<g id="part-0" class="char-part">
  <path d="M246 543 c5 -10 10 -66 12 -126 4 -147 -11 -197 -85 -277 -30 -33
-54 -62 -52 -65 9 -8 85 34 115 63 17 17 39 49 49 71 10 23 21 41 24 41 3 0
17 -16 30 -36 40 -58 81 -69 81 -20 0 27 -32 58 -78 76 -32 12 -33 15 -27 49
6 32 28 60 48 61 5 0 21 8 35 19 27 18 62 24 62 10 0 -4 23 -5 50 -3 l51 5
-16 -30 c-8 -17 -35 -47 -60 -68 -44 -36 -54 -56 -36 -68 5 -3 44 4 86 16 42
11 79 19 81 16 7 -7 -106 -105 -148 -129 -21 -12 -38 -25 -38 -29 0 -16 34
-40 49 -35 9 3 66 19 126 35 l110 31 31 -35 c38 -42 54 -44 54 -6 0 33 -42 81
-89 100 -37 16 -50 9 -27 -14 25 -26 19 -33 -31 -40 -27 -4 -65 -11 -86 -15
-36 -8 -62 4 -39 19 43 27 201 158 202 168 0 17 -29 43 -43 37 -7 -2 -18 -17
-25 -33 -11 -26 -19 -30 -73 -36 -33 -4 -62 -5 -65 -2 -2 2 16 26 41 53 24 27
45 54 45 60 0 17 35 24 115 24 77 0 111 13 85 30 -22 14 -70 12 -205 -10 -66
-11 -130 -22 -142 -24 -17 -2 -22 1 -20 17 2 24 -53 52 -60 30 -2 -7 -18 -28
-34 -49 l-29 -37 0 46 c0 25 5 58 12 73 11 23 10 28 -7 40 -10 8 -34 14 -53
14 -29 0 -33 -3 -26 -17z"/>
  <path d="M540 551 c0 -24 48 -76 73 -79 36 -4 36 22 0 60 -25 26 -73 39 -73
19z"/>
  <path d="M158 423 c-35 -5 -35 -17 2 -75 30 -48 56 -61 66 -33 8 20 -14 72
-33 79 -8 4 -13 13 -9 21 3 8 4 14 3 14 -1 -1 -14 -4 -29 -6z"/>
</g>
<g id="part-1" class="char-part">
  <path d="M256 533 c5 -16 9 -75 9 -133 0 -134 -19 -191 -87 -265 -57 -63 -51
-70 18 -22 33 23 56 50 78 91 l30 58 39 -46 c43 -51 67 -59 67 -23 0 27 -19
47 -67 71 -28 14 -33 22 -33 52 0 32 5 38 65 75 36 23 65 46 65 53 0 6 -10 17
-22 25 -20 12 -23 12 -33 -4 -5 -10 -23 -32 -38 -49 l-29 -31 6 77 c5 69 4 79
-13 88 -11 5 -29 10 -41 10 -20 0 -21 -3 -14 -27z"/>
  <path d="M140 398 c0 -16 38 -80 53 -90 6 -3 17 -4 24 -1 32 13 -20 103 -59
103 -10 0 -18 -6 -18 -12z"/>
</g>
<g id="part-2" class="char-part">
  <path d="M540 551 c0 -24 48 -76 73 -79 38 -5 36 29 -4 62 -29 25 -69 35 -69
17z"/>
  <path d="M573 446 c-72 -11 -134 -24 -138 -28 -15 -15 57 -17 140 -3 50 8 119
15 155 15 72 0 106 13 80 30 -22 14 -87 10 -237 -14z"/>
</g>
<g id="part-3" class="char-part">
  <path d="M545 383 c-11 -21 -39 -51 -62 -68 -40 -29 -54 -57 -33 -70 11 -7
170 34 185 48 6 5 -14 6 -55 2 l-65 -7 20 23 c11 13 32 38 48 56 16 17 26 36
23 42 -14 22 -41 10 -61 -26z"/>
</g>
<g id="part-4" class="char-part">
  <path d="M667 338 c-16 -39 -139 -157 -197 -190 -22 -13 -40 -26 -40 -30 0
-15 34 -39 49 -35 9 3 65 20 126 37 l110 32 30 -36 c36 -43 55 -46 55 -8 0 34
-13 53 -64 86 -53 35 -74 35 -46 -1 12 -15 18 -29 13 -30 -30 -9 -184 -29
-187 -24 -2 3 16 22 41 41 25 19 71 56 102 82 31 26 59 48 64 48 13 0 8 28 -9
44 -23 23 -32 20 -47 -16z"/>
</g>
</g>
</svg>