<?xml version="1.0" standalone="no"?>
<!DOCTYPE svg PUBLIC "-//W3C//DTD SVG 20010904//EN"
 "http://www.w3.org/TR/2001/REC-SVG-20010904/DTD/svg10.dtd">
<svg version="1.0" xmlns="http://www.w3.org/2000/svg"
 width="96.000000pt" height="68.000000pt" viewBox="0 0 96.000000 68.000000"
 preserveAspectRatio="xMidYMid meet">
<metadata>
Created by potrace 1.16, written by Peter Selinger 2001-2019
Combined from part_0.svg through part_5.svg with named groups
</metadata>
<g transform="translate(0.000000,68.000000) scale(0.100000,-0.100000)" fill="#000000" stroke="none">
<g id="part-0" class="char-part">
  <path d="M262 556 c-14 -37 -88 -116 -110 -116 -19 0 -25 -25 -12 -50 8 -15
17 -19 28 -15 9 4 60 18 112 30 94 23 95 23 116 4 24 -23 40 -24 48 -4 10 27
-11 61 -49 79 -41 20 -51 17 -36 -11 7 -14 7 -20 -2 -20 -7 -1 -39 -4 -72 -8
l-60 -7 55 56 c45 47 53 59 44 74 -20 31 -48 26 -62 -12z"/>
  <path d="M480 586 c-3 -2 -3 -45 0 -95 8 -128 18 -137 147 -134 97 3 128 12
105 35 -8 8 -29 8 -86 -2 -90 -15 -122 -9 -128 25 -7 36 8 49 94 80 80 29 88
39 39 50 -22 5 -35 1 -50 -14 -11 -11 -34 -27 -51 -36 l-32 -17 4 54 c3 47 1
53 -17 56 -12 2 -23 1 -25 -2z"/>
  <path d="M300 358 c-19 -5 -56 -8 -82 -6 -44 3 -47 1 -40 -17 4 -11 6 -55 5
-98 -1 -63 -7 -87 -28 -124 -14 -25 -23 -48 -20 -51 11 -12 55 43 71 89 l18
49 68 0 c64 0 68 -1 68 -22 0 -47 -12 -70 -31 -64 -11 3 -29 9 -41 13 -16 4
-10 -4 19 -30 45 -41 68 -46 81 -19 5 9 12 74 15 145 4 116 3 128 -13 137 -22
12 -44 11 -90 -2z m50 -42 c0 -28 -16 -36 -76 -36 -40 0 -44 2 -44 24 0 27 13
33 78 35 38 1 42 -1 42 -23z m10 -65 c0 -21 -26 -31 -87 -31 -72 0 -66 36 7
43 25 2 53 4 63 5 11 1 17 -5 17 -17z"/>
  <path d="M474 233 c8 -117 16 -136 62 -158 56 -26 261 -14 280 16 3 5 -2 31
-11 57 -10 26 -20 54 -22 62 -4 9 -10 -2 -15 -25 -5 -21 -18 -50 -30 -62 -19
-20 -31 -23 -99 -23 -87 0 -116 15 -121 64 -3 29 -1 30 91 61 52 18 97 37 99
43 2 6 -13 14 -34 18 -28 5 -39 3 -46 -9 -11 -21 -95 -70 -106 -63 -6 3 -6 25
-1 52 10 54 8 60 -27 67 l-27 5 7 -105z"/>
</g>
<g id="part-1" class="char-part">
  <path d="M265 553 c-19 -44 -58 -89 -97 -109 -20 -10 -28 -22 -28 -40 0 -22 4
-26 23 -21 12 2 66 15 119 27 91 22 99 22 116 7 26 -24 42 -21 42 7 0 15 -11
33 -26 45 -34 27 -57 28 -49 2 6 -21 -2 -24 -100 -37 l-50 -7 58 61 c50 53 57
64 47 82 -16 31 -38 24 -55 -17z"/>
</g>
<g id="part-2" class="char-part">
  <path d="M300 358 c-19 -5 -56 -8 -82 -6 -46 3 -47 2 -40 -22 19 -66 2 -182
-33 -234 -13 -20 -20 -36 -14 -36 21 0 67 57 79 97 l12 40 69 2 69 2 0 -29 c0
-15 -6 -36 -13 -46 -11 -16 -17 -17 -36 -6 -37 19 -33 6 9 -35 38 -37 41 -38
58 -22 14 14 18 43 23 150 4 82 3 137 -4 145 -11 14 -48 14 -97 0z m50 -42 c0
-19 -6 -24 -37 -30 -70 -11 -83 -8 -83 18 0 26 14 32 83 35 33 1 37 -2 37 -23z
m8 -68 c3 -17 -35 -28 -94 -28 -27 0 -34 4 -34 19 0 17 8 21 53 24 67 4 71 3
75 -15z"/>
</g>
<g id="part-3" class="char-part">
  <path d="M477 518 c7 -157 15 -164 157 -160 91 2 120 12 99 33 -9 9 -32 9 -91
-1 -97 -15 -122 -6 -122 43 0 31 2 33 78 57 43 14 79 30 81 35 1 6 -11 14 -29
19 -25 8 -34 6 -51 -12 -11 -12 -33 -29 -50 -38 l-31 -15 4 53 c3 50 2 53 -22
56 -26 3 -26 3 -23 -70z"/>
</g>
<g id="part-4" class="char-part">
  <path d="M475 228 c4 -57 11 -110 16 -119 22 -44 166 -64 273 -40 56 14 60 21
38 85 -23 67 -32 79 -32 42 0 -31 -16 -65 -39 -83 -9 -7 -48 -12 -92 -13 -88
0 -118 16 -122 64 -2 29 1 30 97 63 55 18 101 35 104 37 2 3 -14 10 -37 17
-37 11 -42 10 -58 -8 -19 -22 -100 -69 -107 -62 -2 2 0 27 4 54 8 53 2 65 -33
65 -17 0 -18 -7 -12 -102z"/>
</g>
</g>
</svg>