<?xml version="1.0" standalone="no"?>
<!DOCTYPE svg PUBLIC "-//W3C//DTD SVG 20010904//EN"
 "http://www.w3.org/TR/2001/REC-SVG-20010904/DTD/svg10.dtd">
<svg version="1.0" xmlns="http://www.w3.org/2000/svg"
 width="96.000000pt" height="68.000000pt" viewBox="0 0 96.000000 68.000000"
 preserveAspectRatio="xMidYMid meet">
<metadata>
Created by potrace 1.16, written by Peter Selinger 2001-2019
Combined from part_0.svg through part_5.svg with named groups
</metadata>
<g transform="translate(0.000000,68.000000) scale(0.100000,-0.100000)" fill="#000000" stroke="none">
<g id="part-0" class="char-part">
  <path d="M626 570 c-22 -17 -43 -30 -48 -30 -4 0 -22 -9 -40 -21 -18 -11 -24
-18 -13 -15 77 20 75 20 75 -13 0 -27 -3 -31 -29 -31 -15 0 -50 -3 -76 -7 -45
-6 -48 -5 -43 15 7 24 -15 47 -54 57 -16 4 -29 16 -32 31 -4 13 -13 25 -21 26
-8 0 -20 1 -26 2 -6 1 -19 -24 -29 -55 -19 -62 -55 -119 -125 -197 -26 -29
-45 -55 -42 -58 8 -8 46 14 92 53 47 40 79 41 83 2 3 -25 0 -27 -47 -34 -28
-4 -51 -10 -51 -15 0 -12 40 -20 71 -13 l29 5 0 -59 0 -60 -57 -12 c-32 -6
-67 -10 -77 -9 -30 5 -30 -20 1 -35 26 -14 37 -12 171 31 169 56 191 81 39 46
l-28 -7 3 54 c3 57 0 54 78 76 13 4 13 5 0 13 -8 6 -27 10 -41 10 -20 0 -28 6
-31 25 -5 21 -1 25 28 31 19 3 34 10 34 15 0 17 -23 20 -70 9 -27 -7 -54 -10
-59 -8 -13 4 57 114 71 110 5 -1 17 -9 25 -18 37 -36 94 -56 144 -49 31 4 49
3 49 -3 0 -14 -49 -65 -83 -87 -15 -10 -26 -20 -23 -22 6 -7 59 23 95 53 l31
26 0 -29 c0 -15 3 -38 6 -49 5 -20 0 -23 -65 -34 -72 -12 -88 -30 -25 -30 42
0 43 -12 10 -79 -23 -45 -40 -64 -96 -111 l-25 -21 41 20 c64 31 164 161 150
196 -3 9 0 15 8 15 7 0 28 3 45 6 37 8 42 -10 11 -49 -33 -42 -27 -50 35 -42
l55 6 0 -33 c0 -38 -43 -108 -66 -108 -8 0 -24 5 -34 10 -31 17 -31 -5 -1 -34
48 -46 90 -17 136 93 26 62 26 65 8 79 -13 9 -33 12 -73 7 l-55 -7 38 39 c20
21 37 44 37 51 0 15 -43 26 -75 18 -24 -6 -25 -5 -25 44 0 27 4 50 9 50 4 0
23 -10 42 -23 68 -46 139 -71 139 -49 0 24 -69 58 -157 77 -23 5 -33 12 -33
26 0 17 8 19 80 19 44 0 80 4 80 9 0 16 -32 21 -96 15 -59 -6 -64 -5 -64 13 0
10 -5 24 -11 30 -7 7 4 14 35 23 50 14 57 24 27 40 -25 13 -19 14 -65 -20z"/>
  <path d="M391 234 c-24 -40 -25 -44 -10 -44 15 0 69 39 69 50 0 5 -9 14 -19
20 -16 8 -22 4 -40 -26z"/>
  <path d="M200 231 c0 -21 47 -64 63 -58 20 8 21 18 5 39 -15 18 -68 33 -68 19z"/>
</g>
<g id="part-1" class="char-part">
  <path d="M296 529 c-21 -63 -50 -110 -122 -195 -51 -59 -53 -64 -24 -49 17 9
49 32 70 51 46 42 74 42 78 0 4 -34 -10 -46 -55 -46 -18 0 -33 -4 -33 -10 0
-5 20 -10 44 -10 50 0 56 -8 56 -75 0 -50 -5 -53 -97 -62 -35 -3 -63 -9 -63
-12 0 -13 24 -31 40 -31 14 0 270 79 279 87 15 11 -13 11 -60 -1 -30 -8 -57
-12 -60 -8 -3 4 -3 32 0 62 6 52 8 55 36 58 17 2 34 7 38 12 10 9 -39 23 -52
15 -9 -5 -21 52 -13 60 3 3 16 5 29 5 22 0 30 10 18 22 -3 3 -33 -1 -66 -9
-34 -8 -63 -13 -64 -11 -2 2 15 34 37 71 l41 68 31 -30 c36 -35 66 -40 66 -12
0 13 -14 25 -43 37 -24 10 -48 27 -53 38 -17 40 -40 30 -58 -25z"/>
  <path d="M389 225 c-19 -41 -17 -42 28 -14 36 22 39 42 7 46 -13 2 -24 -8 -35
-32z"/>
  <path d="M220 200 c24 -34 50 -39 50 -10 0 20 -27 40 -55 40 -14 0 -13 -4 5
-30z"/>
</g>
<g id="part-2" class="char-part">
  <path d="M636 579 c-15 -12 -53 -35 -84 -51 -48 -26 -52 -29 -24 -24 60 11
182 58 182 71 0 12 -21 25 -39 25 -5 0 -21 -10 -35 -21z"/>
</g>
<g id="part-3" class="char-part">
  <path d="M600 501 c0 -33 -5 -36 -93 -46 -36 -4 -55 -10 -51 -17 4 -7 29 -8
65 -4 33 3 59 2 59 -3 0 -5 -26 -32 -57 -60 -65 -58 -51 -68 23 -16 42 30 49
33 52 18 8 -50 14 -63 27 -63 11 0 15 13 15 51 l0 50 74 -40 c73 -41 122 -53
114 -28 -8 23 -66 54 -127 67 -101 21 -75 50 47 50 61 0 82 12 41 25 -12 4
-50 4 -84 0 -61 -6 -64 -6 -67 17 -2 12 -11 24 -20 26 -14 3 -18 -3 -18 -27z"/>
</g>
<g id="part-4" class="char-part">
  <path d="M564 262 c-6 -4 -16 -23 -23 -42 -18 -54 -57 -107 -103 -140 -22 -17
-38 -30 -34 -30 17 0 84 40 109 65 29 30 87 125 87 144 0 12 -19 14 -36 3z"/>
</g>
</g>
</svg>