<?xml version="1.0" standalone="no"?>
<!DOCTYPE svg PUBLIC "-//W3C//DTD SVG 20010904//EN"
 "http://www.w3.org/TR/2001/REC-SVG-20010904/DTD/svg10.dtd">
<svg version="1.0" xmlns="http://www.w3.org/2000/svg"
 width="96.000000pt" height="68.000000pt" viewBox="0 0 96.000000 68.000000"
 preserveAspectRatio="xMidYMid meet">
<metadata>
Created by potrace 1.16, written by Peter Selinger 2001-2019
Combined from part_0.svg through part_5.svg with named groups
</metadata>
<g transform="translate(0.000000,68.000000) scale(0.100000,-0.100000)" fill="#000000" stroke="none">
<g id="part-0" class="char-part">
  <path d="M416 566 l6 -43 -71 -7 c-39 -4 -71 -11 -71 -17 0 -5 34 -9 75 -9 67
0 75 -2 75 -19 0 -17 -12 -19 -129 -26 -71 -4 -144 -10 -163 -15 l-33 -7 27
-13 c22 -10 50 -11 141 -1 153 15 157 15 157 -9 0 -16 -7 -20 -37 -20 -57 0
-113 -11 -107 -21 3 -5 37 -9 76 -9 l71 0 -6 -66 c-4 -37 -8 -68 -9 -69 -2 -2
-35 -6 -74 -10 -66 -6 -72 -5 -77 14 -4 16 0 21 16 21 44 0 66 12 76 42 12 33
7 48 -15 48 -9 0 -14 -11 -14 -35 0 -33 -2 -35 -34 -35 -30 0 -33 2 -29 24 4
17 -1 27 -16 35 -12 7 -21 10 -21 9 -1 -2 -2 -46 -5 -99 -3 -96 -16 -140 -53
-181 -10 -12 -11 -18 -3 -18 13 0 46 31 71 66 8 12 30 24 48 28 l32 5 0 -49
c0 -34 4 -50 13 -50 15 0 39 101 27 114 -4 4 -29 4 -54 -2 -45 -9 -46 -9 -46
14 0 19 5 24 28 24 15 0 51 3 81 7 l54 6 -7 -76 c-7 -79 2 -117 28 -117 21 0
26 23 26 110 0 89 -4 85 98 89 55 2 62 0 62 -17 0 -16 -10 -21 -55 -27 l-55
-6 0 -55 c0 -41 4 -54 15 -54 10 0 16 16 21 50 6 49 7 50 40 50 l34 0 0 -65
c0 -50 4 -67 15 -72 9 -3 18 -4 20 -2 2 3 5 83 7 179 3 173 3 175 -19 178 -19
3 -22 -2 -25 -35 -3 -35 -5 -38 -35 -39 -30 -2 -33 1 -33 27 0 22 -5 29 -19
29 -16 0 -19 -7 -17 -42 1 -47 1 -47 74 -32 29 6 32 4 32 -17 0 -23 -3 -24
-80 -26 l-80 -3 0 70 0 70 71 0 c61 0 70 2 68 18 -2 9 1 27 5 40 7 21 13 22
106 22 54 0 101 4 105 9 11 18 -34 31 -109 31 -63 0 -74 2 -70 15 4 8 0 23 -7
31 -11 14 -26 15 -87 10 l-74 -6 6 26 c9 33 -9 54 -45 54 -28 0 -28 -1 -23
-44z m154 -81 c0 -8 -6 -15 -14 -15 -7 0 -28 -3 -45 -6 -27 -6 -31 -4 -31 15
0 18 6 21 45 21 33 0 45 -4 45 -15z m-10 -69 c0 -14 -29 -26 -67 -26 -16 0
-23 6 -23 20 0 17 7 20 45 20 32 0 45 -4 45 -14z"/>
</g>
<g id="part-1" class="char-part">
  <path d="M426 566 c6 -39 4 -44 -17 -49 -13 -4 -45 -7 -71 -7 -29 0 -48 -5
-48 -11 0 -8 23 -10 70 -7 66 3 70 2 70 -18 0 -24 -15 -27 -212 -40 -62 -4
-95 -10 -91 -17 6 -10 190 -4 266 9 35 6 37 5 37 -19 0 -29 -20 -37 -93 -37
-33 0 -46 -4 -41 -11 4 -8 28 -9 72 -5 l65 7 -8 -143 c-10 -190 -10 -197 4
-211 25 -25 31 12 32 181 l0 172 32 0 c77 0 103 10 113 44 l9 31 105 11 c98
10 103 11 75 23 -20 8 -52 10 -98 6 -69 -7 -69 -7 -57 15 19 35 -1 45 -86 42
l-74 -2 0 34 c0 26 -5 35 -22 40 -37 9 -38 8 -32 -38z m149 -81 c0 -17 -8 -20
-52 -23 -47 -3 -53 -1 -53 17 0 22 19 30 70 28 28 -2 35 -6 35 -22z m-5 -58
c0 -23 -23 -37 -62 -37 -31 0 -38 4 -38 19 0 20 17 27 73 30 16 0 27 -4 27
-12z"/>
</g>
<g id="part-2" class="char-part">
  <path d="M627 326 c4 -29 2 -34 -18 -39 -42 -11 -49 -8 -49 22 0 23 -14 41
-34 41 -1 0 -3 -23 -4 -51 -2 -49 -1 -51 20 -45 13 4 38 9 56 13 29 5 32 3 32
-18 0 -22 -4 -25 -42 -24 -45 0 -190 -11 -271 -22 -43 -5 -47 -4 -47 16 0 18
6 21 40 21 43 0 47 5 52 55 2 24 -1 31 -17 33 -17 2 -20 -3 -20 -30 0 -29 -4
-33 -27 -36 -24 -3 -28 0 -28 20 0 28 -17 48 -42 48 -15 0 -16 -4 -7 -27 22
-57 -7 -210 -48 -255 -14 -16 -14 -18 0 -18 14 0 54 40 74 74 5 7 22 16 40 19
l32 6 3 -51 c2 -28 8 -53 14 -55 13 -4 35 108 24 121 -4 4 -29 4 -54 -2 -44
-9 -46 -9 -46 13 0 24 11 26 258 41 108 7 112 6 112 -13 0 -18 -9 -22 -55 -28
l-55 -6 0 -44 c0 -87 25 -97 36 -15 6 49 8 50 40 50 l33 0 3 -67 c2 -54 6 -68
19 -71 15 -3 17 16 21 170 4 175 1 188 -34 188 -13 0 -16 -7 -11 -34z"/>
</g>
</g>
</svg>