<?xml version="1.0" standalone="no"?>
<!DOCTYPE svg PUBLIC "-//W3C//DTD SVG 20010904//EN"
 "http://www.w3.org/TR/2001/REC-SVG-20010904/DTD/svg10.dtd">
<svg version="1.0" xmlns="http://www.w3.org/2000/svg"
 width="96.000000pt" height="68.000000pt" viewBox="0 0 96.000000 68.000000"
 preserveAspectRatio="xMidYMid meet">
<metadata>
Created by potrace 1.16, written by Peter Selinger 2001-2019
Combined from part_0.svg through part_5.svg with named groups
</metadata>
<g transform="translate(0.000000,68.000000) scale(0.100000,-0.100000)" fill="#000000" stroke="none">
<g id="part-0" class="char-part">
  <path d="M578 598 c-3 -41 -5 -43 -43 -52 -22 -5 -42 -11 -45 -13 -8 -7 24
-23 47 -23 20 0 22 -4 17 -32 l-5 -33 38 43 c37 40 41 42 98 42 33 0 67 5 75
10 26 17 -8 31 -68 28 l-53 -3 7 29 c7 31 -6 46 -43 46 -19 0 -22 -6 -25 -42z"/>
  <path d="M295 600 c-4 -6 0 -22 9 -35 9 -13 16 -27 16 -30 0 -3 -31 -5 -69 -5
-78 0 -94 -11 -56 -36 25 -16 58 -16 122 2 18 5 25 0 34 -20 16 -35 39 -34 39
3 0 24 6 31 33 42 l32 12 -40 6 c-32 5 -41 11 -43 29 -5 31 -63 55 -77 32z"/>
  <path d="M555 429 c-22 -4 -102 -11 -177 -15 l-136 -7 9 -24 c12 -33 11 -122
-2 -222 -10 -72 -9 -85 4 -99 12 -11 19 -12 29 -4 8 6 86 14 183 18 l171 7 12
-27 c14 -32 26 -33 46 -4 13 18 16 52 16 160 0 83 5 147 12 162 25 57 -46 80
-167 55z m99 -35 c3 -9 6 -75 6 -148 l0 -132 -182 -10 c-101 -6 -185 -9 -187
-7 -2 1 0 67 5 145 l9 143 130 11 c195 17 212 16 219 -2z"/>
  <path d="M446 356 c7 -30 -3 -67 -19 -65 -7 1 -32 1 -57 0 -36 -1 -41 -4 -28
-12 10 -5 36 -7 58 -4 57 9 51 -24 -19 -99 l-36 -38 31 15 c16 9 44 30 62 48
l31 32 40 -36 c57 -51 80 -62 88 -41 10 26 -10 47 -66 69 -74 29 -70 51 14 60
81 8 87 27 8 24 -56 -3 -58 -2 -59 22 0 33 -11 49 -35 49 -16 0 -18 -5 -13
-24z"/>
</g>
<g id="part-1" class="char-part">
  <path d="M590 616 c0 -14 -4 -36 -10 -50 -8 -21 -16 -26 -45 -26 -19 0 -35 -4
-35 -10 0 -5 16 -10 35 -10 33 0 34 -1 25 -26 -16 -41 -11 -41 23 -1 32 37 36
38 110 44 42 3 77 9 77 13 0 14 -51 21 -96 14 -48 -7 -50 -4 -31 27 10 17 9
22 -7 35 -29 21 -46 17 -46 -10z"/>
  <path d="M309 566 c26 -41 19 -46 -70 -46 -64 0 -75 -11 -31 -29 19 -8 37 -8
62 -1 56 16 76 13 89 -16 14 -31 26 -24 26 14 0 19 6 28 20 30 38 7 40 22 2
22 -32 0 -37 3 -37 24 0 26 -16 36 -57 36 l-25 0 21 -34z"/>
</g>
<g id="part-2" class="char-part">
  <path d="M550 430 c-25 -5 -104 -12 -176 -16 l-132 -7 10 -30 c10 -28 7 -129
-7 -252 -7 -60 5 -86 33 -69 10 7 91 15 188 19 l169 7 14 -26 c17 -32 25 -32
45 -4 13 18 16 51 16 154 0 73 5 146 12 164 10 30 9 35 -12 52 -24 19 -78 22
-160 8z m104 -36 c3 -9 6 -75 6 -148 l0 -133 -152 -7 c-84 -4 -168 -10 -187
-13 l-33 -6 7 144 c4 79 9 146 12 149 5 5 226 26 299 29 30 1 44 -4 48 -15z"/>
</g>
<g id="part-3" class="char-part">
  <path d="M440 361 c19 -37 12 -58 -21 -65 -17 -3 -46 -6 -63 -6 -27 -1 -29 -2
-12 -11 10 -6 35 -8 57 -5 29 5 39 3 39 -7 0 -19 -53 -91 -82 -111 -12 -9 -18
-16 -12 -16 16 0 86 49 106 73 l16 21 46 -42 c49 -45 86 -55 86 -23 0 22 -33
46 -88 63 -29 9 -38 16 -35 29 4 13 21 19 69 24 35 4 64 11 64 16 0 10 -18 13
-79 9 -44 -2 -44 -2 -38 28 6 32 -4 42 -44 42 -16 0 -18 -3 -9 -19z"/>
</g>
</g>
</svg>