<?xml version="1.0" standalone="no"?>
<!DOCTYPE svg PUBLIC "-//W3C//DTD SVG 20010904//EN"
 "http://www.w3.org/TR/2001/REC-SVG-20010904/DTD/svg10.dtd">
<svg version="1.0" xmlns="http://www.w3.org/2000/svg"
 width="96.000000pt" height="68.000000pt" viewBox="0 0 96.000000 68.000000"
 preserveAspectRatio="xMidYMid meet">
<metadata>
Created by potrace 1.16, written by Peter Selinger 2001-2019
Combined from part_0.svg through part_5.svg with named groups
</metadata>
<g transform="translate(0.000000,68.000000) scale(0.100000,-0.100000)" fill="#000000" stroke="none">
<g id="part-0" class="char-part">
  <path d="M599 633 c0 -5 0 -42 1 -83 l1 -75 -78 -3 c-43 -2 -80 -5 -82 -8 -2
-2 2 -11 10 -20 8 -9 21 -51 29 -93 16 -81 14 -80 81 -66 l36 7 6 -128 c4 -70
9 -129 12 -132 15 -15 24 24 30 128 8 133 14 143 77 129 49 -12 60 0 77 76 6
27 18 63 26 79 23 43 8 51 -90 49 l-83 -2 5 59 c4 40 2 65 -7 75 -13 15 -49
21 -51 8z m163 -170 c8 -36 -3 -53 -36 -53 -17 0 -41 -3 -53 -6 -21 -6 -23 -3
-23 29 0 35 1 36 43 40 23 2 47 4 54 5 6 1 13 -6 15 -15z m-162 -37 c0 -33 -1
-34 -46 -38 -35 -2 -48 1 -55 14 -17 32 -10 47 24 51 77 9 77 10 77 -27z m155
-46 c3 -5 -1 -22 -9 -38 -13 -25 -19 -27 -55 -24 -30 3 -41 9 -41 21 0 34 12
40 87 50 6 0 15 -3 18 -9z m-155 -40 c0 -28 -2 -30 -40 -30 -22 0 -40 4 -40 9
0 5 -3 16 -6 24 -6 15 12 23 64 26 18 1 22 -4 22 -29z"/>
  <path d="M345 555 c-5 -3 -45 -9 -88 -14 -43 -5 -81 -12 -85 -16 -10 -10 20
-25 51 -25 21 0 27 -5 27 -21 0 -30 -51 -120 -63 -112 -6 3 -7 1 -3 -6 5 -7
-13 -36 -44 -71 -41 -47 -48 -60 -33 -60 10 0 44 22 75 50 31 28 59 50 62 50
3 0 6 -8 6 -19 0 -10 5 -32 11 -49 10 -28 12 -30 42 -21 18 5 49 9 70 9 27 0
37 4 34 13 -2 6 4 35 14 62 11 28 19 51 19 53 0 1 -11 7 -24 12 -16 6 -42 4
-77 -6 -81 -21 -82 -20 -49 39 16 30 30 61 30 70 0 11 12 18 38 22 81 14 93
17 89 28 -3 12 -81 20 -102 12z m26 -230 c-4 -52 -6 -55 -46 -55 -28 0 -34 4
-39 28 -4 15 -9 35 -12 44 -4 13 3 18 33 21 66 7 68 5 64 -38z"/>
</g>
<g id="part-1" class="char-part">
  <path d="M315 544 c-33 -7 -77 -13 -97 -14 -21 0 -38 -4 -38 -10 0 -5 15 -10
34 -10 22 0 36 -6 40 -16 12 -30 -58 -157 -128 -233 l-31 -33 30 15 c17 8 51
37 76 64 48 51 121 174 117 194 -2 9 17 16 56 21 66 9 77 15 56 28 -19 12 -41
11 -115 -6z"/>
</g>
<g id="part-2" class="char-part">
  <path d="M313 381 c-34 -9 -65 -19 -68 -22 -8 -9 20 -124 31 -123 65 4 134 19
131 28 -3 6 4 34 14 61 18 47 18 51 2 63 -20 15 -30 14 -110 -7z m61 -29 c-1
-6 -2 -28 -2 -47 -2 -34 -3 -35 -42 -35 -33 0 -40 4 -45 23 -12 59 -11 62 25
68 47 9 65 6 64 -9z"/>
</g>
<g id="part-3" class="char-part">
  <path d="M594 624 c3 -9 6 -45 6 -80 0 -45 4 -64 13 -64 29 1 39 20 44 82 5
62 4 65 -18 71 -39 11 -52 8 -45 -9z"/>
</g>
<g id="part-4" class="char-part">
  <path d="M670 489 c-25 -4 -85 -11 -135 -15 -49 -4 -91 -8 -93 -9 -2 -2 3 -14
11 -27 9 -12 21 -52 28 -88 13 -74 22 -88 42 -72 9 8 54 11 130 9 l117 -2 13
35 c8 19 20 56 27 83 7 26 17 50 21 53 16 9 10 20 -16 32 -29 13 -77 14 -145
1z m93 -22 c3 -7 3 -24 0 -38 -4 -22 -10 -24 -59 -25 l-54 -2 0 34 c0 31 2 33
43 37 23 2 47 4 53 5 7 1 14 -4 17 -11z m-163 -41 c0 -33 -1 -34 -46 -38 -41
-3 -47 -1 -55 20 -14 35 -11 40 19 45 76 11 82 9 82 -27z m147 -72 c-3 -20 -7
-37 -9 -39 -2 -1 -22 0 -46 3 -40 4 -43 6 -40 31 2 21 10 27 38 32 64 12 63
12 57 -27z m-147 -14 c0 -28 -2 -30 -39 -30 -31 0 -41 4 -46 20 -9 29 -2 35
44 37 39 2 41 1 41 -27z"/>
</g>
<g id="part-5" class="char-part">
  <path d="M612 153 c0 -68 4 -123 9 -123 5 0 8 3 7 7 -1 5 1 24 5 43 3 19 9 72
12 117 6 76 5 82 -13 80 -18 -1 -19 -10 -20 -124z m15 -55 c-3 -8 -6 -5 -6 6
-1 11 2 17 5 13 3 -3 4 -12 1 -19z"/>
</g>
</g>
</svg>