<?xml version="1.0" standalone="no"?>
<!DOCTYPE svg PUBLIC "-//W3C//DTD SVG 20010904//EN"
 "http://www.w3.org/TR/2001/REC-SVG-20010904/DTD/svg10.dtd">
<svg version="1.0" xmlns="http://www.w3.org/2000/svg"
 width="96.000000pt" height="68.000000pt" viewBox="0 0 96.000000 68.000000"
 preserveAspectRatio="xMidYMid meet">
<metadata>
Created by potrace 1.16, written by Peter Selinger 2001-2019
Combined from part_0.svg through part_5.svg with named groups
</metadata>
<g transform="translate(0.000000,68.000000) scale(0.100000,-0.100000)" fill="#000000" stroke="none">
<g id="part-0" class="char-part">
  <path d="M248 511 l5 -89 -49 -7 c-63 -8 -74 -12 -74 -25 0 -5 22 -10 50 -10
28 0 50 -2 50 -4 0 -16 -63 -110 -100 -148 -30 -31 -41 -48 -30 -48 21 0 55
24 108 74 49 47 48 47 31 -83 -12 -92 -3 -135 29 -129 19 4 29 62 31 188 l2
75 19 -24 c22 -26 50 -22 50 7 0 11 -14 27 -35 38 -25 13 -35 25 -33 39 3 18
15 24 77 42 25 7 -5 26 -39 26 l-32 0 2 61 c1 34 2 66 1 72 -1 10 -43 34 -60
34 -5 0 -6 -40 -3 -89z"/>
  <path d="M451 535 c29 -30 70 -33 47 -4 -7 9 -26 20 -43 23 l-30 7 26 -26z"/>
  <path d="M635 541 c-54 -10 -85 -20 -77 -25 7 -4 27 -6 45 -4 39 4 45 -14 23
-67 l-16 -38 -26 27 c-33 32 -60 36 -44 6 6 -11 20 -26 30 -33 29 -17 25 -32
-17 -66 -21 -17 -31 -31 -24 -31 28 0 82 53 122 120 34 58 39 73 29 85 -11 13
-8 15 20 15 l33 0 -7 -67 c-10 -108 -13 -115 -51 -111 -32 4 -32 3 -16 -19 21
-29 40 -36 58 -21 21 17 43 64 43 92 0 14 5 28 10 31 6 4 8 11 5 16 -3 5 -2
24 3 42 11 39 -4 68 -34 66 -10 -1 -59 -9 -109 -18z"/>
  <path d="M400 470 c0 -14 48 -43 60 -35 17 10 12 21 -15 33 -32 15 -45 15 -45
2z"/>
  <path d="M780 432 c0 -12 44 -52 58 -52 21 0 13 27 -13 44 -27 17 -45 21 -45
8z"/>
  <path d="M456 379 c-21 -16 -45 -29 -52 -29 -19 0 -17 -39 2 -47 16 -6 34 11
85 80 26 35 14 33 -35 -4z"/>
  <path d="M568 278 l-3 -33 -92 -3 c-77 -2 -93 -5 -93 -19 0 -13 12 -15 80 -11
47 3 80 1 80 -5 0 -11 -56 -67 -115 -114 -36 -29 -37 -32 -12 -23 31 11 100
56 134 89 l22 21 3 -72 c2 -59 6 -73 20 -76 15 -3 18 7 20 74 l3 77 54 -50
c54 -50 92 -65 144 -55 30 6 18 17 -45 41 -73 28 -148 76 -148 95 0 10 23 14
100 14 56 0 104 3 108 6 17 18 -30 27 -115 22 l-93 -4 0 24 c0 13 -4 24 -9 24
-5 0 -16 3 -24 6 -12 4 -16 -3 -19 -28z"/>
</g>
<g id="part-1" class="char-part">
  <path d="M247 563 c5 -16 8 -55 8 -88 l0 -60 -64 -9 c-51 -6 -61 -10 -47 -18
10 -6 36 -7 57 -4 21 3 39 3 39 0 0 -16 -73 -124 -105 -155 -42 -41 -45 -55
-7 -35 30 16 112 94 112 108 0 4 3 8 8 8 4 0 4 -42 -1 -92 -12 -129 -12 -145
3 -163 10 -12 16 -13 26 -4 11 9 14 44 14 143 l1 131 29 -35 c21 -25 32 -32
40 -24 16 16 2 41 -35 63 -45 26 -38 57 16 71 47 13 42 30 -8 30 l-35 0 7 69
c6 63 5 70 -13 80 -38 20 -53 14 -45 -16z"/>
</g>
<g id="part-2" class="char-part">
  <path d="M430 552 c0 -13 45 -42 65 -42 23 0 18 28 -7 35 -13 4 -31 9 -40 11
-10 3 -18 1 -18 -4z"/>
  <path d="M413 455 c32 -28 57 -32 57 -10 0 16 -38 35 -68 35 -13 -1 -10 -6 11
-25z"/>
  <path d="M465 385 c-27 -19 -56 -34 -62 -35 -18 0 -16 -39 2 -47 15 -5 60 39
103 99 18 24 15 23 -43 -17z"/>
</g>
<g id="part-3" class="char-part">
  <path d="M792 418 c27 -35 58 -49 58 -25 0 18 -17 33 -54 47 l-29 11 25 -33z"/>
</g>
<g id="part-4" class="char-part">
  <path d="M570 281 c0 -36 -12 -41 -103 -41 -81 0 -120 -14 -73 -26 15 -3 54
-4 87 -1 32 3 59 2 59 -3 0 -17 -46 -64 -104 -107 -38 -28 -52 -42 -36 -38 32
9 107 56 143 90 16 15 27 21 28 13 0 -7 1 -40 2 -73 2 -47 6 -60 19 -63 15 -3
18 7 20 72 l3 75 55 -49 c51 -45 59 -49 108 -50 28 0 52 5 52 10 0 6 -6 10
-12 10 -38 0 -208 99 -208 121 0 5 53 9 118 9 108 1 115 2 97 16 -16 13 -37
15 -112 10 l-93 -6 0 24 c0 22 -16 36 -41 36 -5 0 -9 -13 -9 -29z"/>
</g>
</g>
</svg>