<?xml version="1.0" standalone="no"?>
<!DOCTYPE svg PUBLIC "-//W3C//DTD SVG 20010904//EN"
 "http://www.w3.org/TR/2001/REC-SVG-20010904/DTD/svg10.dtd">
<svg version="1.0" xmlns="http://www.w3.org/2000/svg"
 width="96.000000pt" height="68.000000pt" viewBox="0 0 96.000000 68.000000"
 preserveAspectRatio="xMidYMid meet">
<metadata>
Created by potrace 1.16, written by Peter Selinger 2001-2019
Combined from part_0.svg through part_5.svg with named groups
</metadata>
<g transform="translate(0.000000,68.000000) scale(0.100000,-0.100000)" fill="#000000" stroke="none">
<g id="part-0" class="char-part">
  <path d="M515 583 c4 -10 9 -32 12 -49 6 -37 -9 -44 -94 -44 l-53 0 21 -21
c28 -28 20 -43 -24 -47 -52 -5 -46 -22 8 -22 38 0 45 -3 50 -23 5 -20 12 -24
48 -23 31 1 42 -3 45 -16 4 -19 -60 -33 -108 -23 l-30 7 25 -44 c22 -39 27
-42 60 -39 33 2 36 1 33 -21 -3 -21 -10 -24 -98 -33 -107 -11 -109 -29 -2 -27
63 1 64 1 47 -18 -17 -19 -17 -20 0 -26 9 -4 31 -10 49 -14 l31 -6 -32 -17
c-18 -10 -59 -24 -90 -32 l-58 -15 63 5 c34 3 85 14 112 26 l49 21 55 -26 c87
-41 104 -47 112 -34 9 15 -32 45 -81 60 -22 6 -43 14 -47 18 -4 3 6 22 23 43
l30 37 85 0 c46 0 84 4 84 8 0 20 -49 30 -111 23 -40 -5 -73 -4 -87 2 -17 8
-25 8 -30 0 -7 -11 -25 -16 -54 -14 -14 1 -14 5 -5 26 11 23 17 25 80 25 50 0
67 3 67 14 0 7 7 19 15 26 39 32 -3 53 -84 42 -54 -8 -61 -7 -61 9 0 22 24 31
64 23 29 -5 33 -2 46 30 13 35 15 36 67 36 40 0 53 4 53 15 0 11 -12 15 -44
15 -40 0 -43 2 -39 24 4 20 0 25 -27 31 -17 4 -52 4 -77 0 l-46 -7 6 35 c6 40
-6 57 -41 57 -19 0 -23 -4 -17 -17z m142 -113 c-1 -12 -9 -20 -22 -21 -11 -1
-30 -3 -42 -4 -18 -2 -23 3 -23 21 0 22 4 24 44 24 39 0 45 -3 43 -20z m-127
-10 c0 -34 -81 -42 -88 -8 -3 16 15 24 66 27 16 1 22 -5 22 -19z m108 -52 c-4
-30 -68 -37 -68 -8 0 17 15 24 58 29 8 0 12 -7 10 -21z m-112 -23 c-8 -22 -60
-16 -64 7 -2 12 5 18 25 20 34 4 48 -5 39 -27z m144 -84 c0 -16 -24 -27 -62
-30 -33 -2 -38 0 -38 18 0 18 6 21 50 21 28 0 50 -4 50 -9z m-140 -21 c0 -17
-7 -20 -40 -20 -42 0 -58 24 -22 33 42 11 62 7 62 -13z m70 -114 c0 -7 -9 -22
-21 -34 -17 -19 -27 -21 -57 -16 -20 4 -39 9 -42 11 -12 11 21 39 51 43 60 9
69 9 69 -4z"/>
  <path d="M286 557 c-20 -63 -31 -87 -70 -140 -24 -34 -63 -81 -87 -104 -23
-24 -40 -45 -37 -49 9 -8 58 20 95 55 18 17 35 31 39 31 7 0 -1 -177 -12 -245
-5 -33 -2 -44 16 -60 18 -16 23 -17 30 -5 6 8 10 31 11 50 0 19 4 87 8 150 7
95 6 118 -7 132 -13 16 -10 23 32 80 25 34 46 67 46 74 0 24 -58 52 -64 31z"/>
</g>
<g id="part-1" class="char-part">
  <path d="M281 523 c-13 -47 -63 -121 -131 -196 -69 -76 -38 -72 45 5 17 15 34
28 39 28 11 0 0 -182 -14 -230 -12 -39 3 -90 26 -90 16 0 21 33 29 189 5 103
3 127 -10 140 -13 16 -11 23 28 77 60 82 59 81 41 98 -25 26 -43 19 -53 -21z"/>
</g>
<g id="part-2" class="char-part">
  <path d="M515 583 c4 -10 9 -33 12 -51 8 -45 35 -39 46 12 11 42 1 56 -42 56
-18 0 -22 -4 -16 -17z"/>
</g>
<g id="part-3" class="char-part">
  <path d="M550 505 c-36 -7 -89 -13 -117 -14 l-53 -1 21 -21 c29 -29 19 -43
-30 -47 -54 -4 -43 -22 14 -22 38 0 44 -3 49 -26 6 -22 11 -25 34 -19 15 3 66
6 114 7 l88 2 11 33 c10 30 14 32 62 35 63 4 69 22 9 26 -38 3 -41 5 -32 22
21 40 -44 49 -170 25z m106 -26 c9 -16 -6 -26 -48 -34 -36 -7 -38 -6 -38 19 0
24 4 26 39 26 22 0 43 -5 47 -11z m-126 -18 c0 -24 -68 -40 -81 -19 -13 20
-11 26 14 31 52 10 67 7 67 -12z m110 -50 c0 -17 -25 -31 -57 -31 -23 0 -14
38 10 43 42 8 47 7 47 -12z m-112 -18 c-2 -12 -13 -18 -33 -18 -20 0 -31 6
-33 18 -3 14 4 17 33 17 29 0 36 -3 33 -17z"/>
</g>
<g id="part-4" class="char-part">
  <path d="M506 216 c-5 -19 -14 -24 -58 -30 -29 -3 -70 -6 -91 -6 -21 0 -36 -4
-33 -9 9 -15 69 -21 109 -12 41 10 45 6 21 -21 -18 -19 -21 -18 46 -35 l35 -9
-32 -17 c-18 -10 -59 -24 -90 -32 l-58 -15 63 5 c34 3 85 14 111 26 l49 20 63
-29 c75 -35 100 -41 106 -26 5 15 -54 52 -96 60 -17 4 -33 10 -36 14 -2 3 9
23 26 43 l30 36 92 3 92 3 -31 17 c-26 14 -42 15 -98 7 -47 -6 -73 -6 -88 2
-14 8 -23 8 -27 1 -8 -14 -59 -23 -66 -12 -3 5 -1 11 5 15 18 11 11 25 -14 25
-17 0 -26 -7 -30 -24z m104 -45 c0 -4 -11 -20 -25 -35 -22 -24 -31 -27 -67
-22 -51 7 -51 7 -33 33 9 13 29 23 48 25 17 2 42 4 55 5 12 2 22 -1 22 -6z"/>
</g>
</g>
</svg>