<?xml version="1.0" standalone="no"?>
<!DOCTYPE svg PUBLIC "-//W3C//DTD SVG 20010904//EN"
 "http://www.w3.org/TR/2001/REC-SVG-20010904/DTD/svg10.dtd">
<svg version="1.0" xmlns="http://www.w3.org/2000/svg"
 width="96.000000pt" height="68.000000pt" viewBox="0 0 96.000000 68.000000"
 preserveAspectRatio="xMidYMid meet">
<metadata>
Created by potrace 1.16, written by Peter Selinger 2001-2019
Combined from part_0.svg through part_5.svg with named groups
</metadata>
<g transform="translate(0.000000,68.000000) scale(0.100000,-0.100000)" fill="#000000" stroke="none">
<g id="part-0" class="char-part">
  <path d="M527 623 c-4 -3 -7 -24 -7 -45 0 -33 -3 -38 -22 -38 -13 0 -33 -3
-46 -6 -18 -5 -20 -9 -11 -20 6 -8 22 -14 35 -14 27 0 27 0 14 -34 -14 -37 3
-32 38 9 26 32 34 36 96 42 36 3 69 10 72 14 9 15 -48 31 -83 24 -37 -7 -37
-6 -24 28 8 21 6 26 -15 36 -29 13 -38 14 -47 4z"/>
  <path d="M264 578 c4 -13 10 -30 12 -39 6 -17 -30 -29 -87 -29 -35 0 -37 -12
-5 -34 22 -14 29 -14 67 -1 42 15 58 10 59 -17 0 -5 7 -8 15 -8 9 0 15 10 15
26 0 19 7 28 30 35 40 14 38 31 -2 27 -29 -3 -33 0 -37 22 -4 29 -17 40 -50
40 -20 0 -22 -4 -17 -22z"/>
  <path d="M371 478 c-48 -60 -76 -79 -108 -75 -38 4 -37 4 -19 -31 7 -15 17
-45 21 -67 10 -57 18 -63 72 -55 27 4 62 7 78 6 l30 -1 5 -97 c7 -128 16 -139
129 -146 77 -4 165 10 176 29 7 10 -26 79 -37 79 -4 0 -8 -7 -8 -15 0 -9 -11
-27 -25 -40 -20 -21 -34 -25 -87 -25 -79 0 -108 17 -108 64 0 32 1 32 101 66
90 30 99 35 83 47 -23 17 -70 17 -77 0 -6 -15 -93 -64 -101 -56 -3 2 -1 21 4
42 6 30 5 39 -9 48 -12 8 -6 9 26 5 47 -7 60 5 82 76 7 20 19 42 27 49 11 9
12 15 2 26 -25 30 -58 34 -147 18 -47 -8 -98 -17 -113 -20 -44 -7 -33 12 22
40 56 28 62 40 24 48 -18 3 -31 -1 -43 -15z m63 -112 c-5 -12 -14 -16 -30 -12
-13 3 -36 8 -51 11 -24 5 -23 4 7 -10 l35 -16 -27 -23 c-40 -31 -34 -38 13
-17 33 15 46 16 70 8 41 -16 25 -24 -67 -31 l-81 -6 -6 37 c-3 21 -8 45 -12
54 -5 14 5 18 67 26 78 10 92 6 82 -21z m126 18 c0 -8 -5 -35 -11 -60 -10 -37
-15 -44 -35 -44 -17 0 -24 6 -24 20 0 10 -8 23 -17 29 -16 8 -15 11 7 30 21
18 23 22 10 31 -11 7 -4 10 28 10 31 0 42 -4 42 -16z"/>
  <path d="M226 243 c-2 -3 0 -18 6 -35 12 -34 3 -129 -14 -158 -10 -15 -10 -22
-1 -31 16 -16 49 -6 112 35 30 20 59 37 65 39 6 3 8 7 5 11 -3 3 -25 -1 -49
-9 -67 -24 -80 -21 -80 19 l0 34 70 7 c39 4 70 12 70 17 0 7 -24 8 -71 4 -70
-7 -70 -7 -59 14 6 12 9 27 7 34 -5 13 -52 27 -61 19z"/>
</g>
<g id="part-1" class="char-part">
  <path d="M530 596 c0 -43 -11 -56 -51 -62 -48 -8 -51 -24 -4 -24 33 0 34 -1
25 -26 -12 -32 -12 -34 0 -34 5 0 20 16 32 35 22 32 26 34 88 37 79 4 83 22 6
26 -55 3 -55 3 -44 28 10 20 9 27 -3 35 -27 17 -49 10 -49 -15z"/>
  <path d="M260 596 c0 -2 7 -20 15 -40 15 -34 14 -36 -7 -41 -13 -2 -43 -6 -68
-7 l-45 -3 28 -19 c25 -17 32 -18 69 -5 36 12 42 11 53 -4 18 -25 35 -21 35 8
0 18 7 26 25 31 35 9 31 21 -5 16 -25 -4 -30 -1 -30 16 0 26 -26 52 -51 52
-10 0 -19 -2 -19 -4z"/>
</g>
<g id="part-2" class="char-part">
  <path d="M342 450 c-24 -28 -39 -50 -33 -50 6 0 38 18 72 39 57 36 60 40 41
50 -30 16 -33 15 -80 -39z"/>
</g>
<g id="part-3" class="char-part">
  <path d="M440 419 c-64 -12 -128 -18 -163 -15 l-58 4 15 -24 c9 -13 23 -49 31
-80 8 -31 16 -58 17 -59 2 -2 30 1 63 7 33 5 95 8 138 5 86 -4 87 -4 113 63 9
25 23 52 31 61 11 13 10 18 -5 32 -29 26 -69 28 -182 6z m116 -20 c4 -6 1 -35
-6 -64 l-12 -52 -87 -3 c-47 -1 -99 -3 -115 -3 -30 -2 -30 -2 -49 74 l-7 26
118 12 c64 7 122 14 127 16 18 6 24 5 31 -6z"/>
</g>
<g id="part-4" class="char-part">
  <path d="M450 169 c0 -101 7 -122 50 -144 57 -29 261 -12 260 22 0 4 -12 26
-25 48 -21 34 -25 36 -25 17 0 -13 -11 -34 -25 -47 -20 -21 -34 -25 -84 -25
-86 0 -111 14 -111 61 l0 38 100 33 c88 28 99 34 84 45 -28 21 -60 15 -93 -16
-17 -16 -45 -34 -61 -40 -34 -11 -38 -3 -19 46 8 23 7 30 -7 40 -38 28 -44 17
-44 -78z"/>
</g>
</g>
</svg>