<?xml version="1.0" standalone="no"?>
<!DOCTYPE svg PUBLIC "-//W3C//DTD SVG 20010904//EN"
 "http://www.w3.org/TR/2001/REC-SVG-20010904/DTD/svg10.dtd">
<svg version="1.0" xmlns="http://www.w3.org/2000/svg"
 width="96.000000pt" height="68.000000pt" viewBox="0 0 96.000000 68.000000"
 preserveAspectRatio="xMidYMid meet">
<metadata>
Created by potrace 1.16, written by Peter Selinger 2001-2019
Combined from part_0.svg through part_5.svg with named groups
</metadata>
<g transform="translate(0.000000,68.000000) scale(0.100000,-0.100000)" fill="#000000" stroke="none">
<g id="part-0" class="char-part">
  <path d="M456 568 c10 -30 17 -208 8 -208 -3 0 -21 9 -40 20 -18 12 -35 17
-37 13 -6 -10 48 -73 62 -73 18 0 20 -17 7 -61 -26 -85 -40 -109 -97 -170 -20
-22 -35 -39 -32 -39 13 0 71 36 87 54 78 89 92 132 102 326 6 133 6 138 -14
149 -36 19 -55 14 -46 -11z"/>
  <path d="M660 508 c-98 -14 -111 -18 -105 -28 3 -6 21 -10 40 -10 39 0 45 -11
45 -81 l0 -49 -45 0 c-57 0 -59 -18 -2 -22 l42 -3 3 -66 c3 -76 0 -79 -90 -79
-27 0 -48 -4 -48 -9 0 -16 48 -21 117 -11 37 5 103 10 146 10 42 0 77 4 77 9
0 15 -28 21 -96 21 l-65 0 2 63 c1 34 7 65 13 69 6 4 28 8 49 8 52 0 47 17 -8
26 l-45 6 0 58 c0 62 8 70 68 70 32 0 23 25 -9 26 -13 1 -53 -3 -89 -8z"/>
  <path d="M230 493 c-47 -9 -87 -17 -90 -20 -10 -9 27 -23 61 -23 l36 0 -1 -52
-1 -53 -37 -3 c-50 -4 -49 -22 1 -22 37 0 39 -2 44 -37 11 -64 1 -81 -52 -92
-25 -5 -57 -14 -71 -19 l-25 -10 34 -15 c33 -14 37 -13 145 35 61 27 112 51
115 53 9 9 -24 4 -61 -9 l-38 -14 0 59 0 58 35 7 c51 9 53 24 4 24 l-42 0 5
45 c4 28 1 46 -6 48 -6 3 10 8 37 12 50 8 68 22 46 36 -17 11 -33 10 -139 -8z"/>
</g>
<g id="part-1" class="char-part">
  <path d="M223 487 c-109 -15 -92 -31 25 -24 102 6 136 13 126 28 -6 11 -54 10
-151 -4z"/>
</g>
<g id="part-2" class="char-part">
  <path d="M237 410 c7 -58 -2 -70 -49 -70 -15 0 -30 -4 -33 -10 -4 -6 11 -10
38 -10 44 0 45 -1 50 -37 11 -68 3 -79 -75 -99 l-71 -17 24 -18 c13 -10 27
-19 31 -19 10 0 178 73 213 94 l30 17 -27 -5 c-16 -4 -39 -9 -53 -12 -24 -6
-25 -5 -25 49 l0 55 40 7 c48 8 44 25 -6 25 l-35 0 3 48 c3 46 3 47 -29 50
l-32 3 6 -51z"/>
</g>
<g id="part-3" class="char-part">
  <path d="M380 393 c1 -5 14 -23 30 -42 19 -23 34 -32 45 -27 23 8 14 27 -25
54 -34 23 -50 28 -50 15z"/>
</g>
<g id="part-4" class="char-part">
  <path d="M456 568 c13 -40 16 -230 4 -288 -16 -74 -66 -165 -109 -201 -42 -34
-31 -37 23 -6 78 44 135 163 137 281 0 34 4 94 8 134 6 67 5 75 -13 88 -11 8
-29 14 -39 14 -16 0 -18 -4 -11 -22z"/>
</g>
<g id="part-5" class="char-part">
  <path d="M647 458 c-2 -8 -4 -39 -3 -70 0 -31 -3 -54 -8 -51 -4 3 -5 -4 -2
-15 4 -12 8 -45 8 -74 1 -29 5 -56 10 -59 13 -9 -81 -31 -94 -23 -7 5 -8 2 -3
-6 6 -9 2 -10 -16 -5 -19 6 -21 5 -12 -5 9 -9 22 -9 63 3 28 8 65 14 81 12 30
-4 40 9 15 18 -11 4 -13 22 -10 73 2 36 5 68 7 70 2 2 21 6 43 10 54 8 59 17
7 12 -47 -4 -45 -7 -47 87 -1 31 -29 48 -39 23z"/>
  <path d="M754 179 c-3 -6 -15 -9 -25 -6 -11 3 -19 1 -19 -4 0 -5 28 -9 61 -8
55 2 60 4 44 16 -23 16 -51 17 -61 2z"/>
</g>
</g>
</svg>