<?xml version="1.0" standalone="no"?>
<!DOCTYPE svg PUBLIC "-//W3C//DTD SVG 20010904//EN"
 "http://www.w3.org/TR/2001/REC-SVG-20010904/DTD/svg10.dtd">
<svg version="1.0" xmlns="http://www.w3.org/2000/svg"
 width="96.000000pt" height="68.000000pt" viewBox="0 0 96.000000 68.000000"
 preserveAspectRatio="xMidYMid meet">
<metadata>
Created by potrace 1.16, written by Peter Selinger 2001-2019
Combined from part_0.svg through part_5.svg with named groups
</metadata>
<g transform="translate(0.000000,68.000000) scale(0.100000,-0.100000)" fill="#000000" stroke="none">
<g id="part-0" class="char-part">
  <path d="M525 614 c-44 -7 -116 -14 -160 -15 l-80 -2 1 -161 c1 -89 2 -167 3
-174 1 -9 12 -10 41 -6 35 6 40 4 40 -13 0 -21 -95 -115 -142 -139 -43 -22
-27 -29 19 -8 56 27 203 123 203 133 0 5 -12 14 -27 19 l-28 10 30 2 c17 0 63
3 104 7 65 5 76 3 88 -13 11 -15 17 -16 31 -8 22 14 29 60 33 223 l4 135 -30
12 c-34 15 -26 15 -130 -2z m69 -40 c9 -8 16 -26 16 -38 0 -22 -5 -24 -113
-35 -161 -16 -157 -16 -157 18 0 17 6 33 13 38 10 6 88 18 214 32 6 0 19 -6
27 -15z m16 -128 l0 -34 -107 -6 c-60 -4 -120 -9 -135 -12 -26 -5 -28 -3 -28
30 l0 36 68 1 c57 1 192 13 200 17 1 1 2 -13 2 -32z m0 -110 l0 -33 -107 -8
c-104 -7 -164 -8 -170 -1 -2 1 0 17 3 34 6 30 8 31 68 35 33 2 94 4 134 5 l72
2 0 -34z"/>
  <path d="M530 226 c0 -13 148 -146 162 -146 26 0 22 33 -6 67 -31 36 -156 100
-156 79z"/>
</g>
<g id="part-1" class="char-part">
  <path d="M520 608 c-25 -5 -89 -10 -142 -11 -93 -2 -97 -3 -90 -22 4 -11 6
-73 5 -137 -2 -111 -1 -118 17 -118 13 0 20 7 20 20 0 27 3 27 152 34 l127 5
3 -26 c2 -20 9 -27 29 -29 l26 -2 6 136 c4 117 2 139 -11 150 -18 14 -76 14
-142 0z m88 -64 l3 -41 -106 -7 c-58 -4 -119 -9 -135 -13 -30 -5 -30 -5 -30
40 l0 45 88 10 c48 5 107 9 132 8 l45 -1 3 -41z m2 -101 c0 -33 -3 -38 -22
-38 -13 -1 -74 -4 -135 -8 l-113 -8 0 34 0 35 108 9 c177 16 162 19 162 -24z"/>
</g>
<g id="part-2" class="char-part">
  <path d="M287 323 c-4 -3 -7 -19 -7 -33 0 -30 27 -61 38 -43 4 5 69 13 147 17
134 6 140 5 156 -15 15 -20 17 -20 32 -4 10 9 17 32 17 52 0 32 -2 35 -22 29
-13 -3 -26 -6 -30 -6 -5 0 -8 -6 -8 -12 0 -10 -37 -14 -140 -16 -137 -4 -140
-3 -140 17 0 20 -28 30 -43 14z"/>
</g>
<g id="part-3" class="char-part">
  <path d="M366 235 c-6 -23 -102 -111 -149 -136 -41 -23 1 -20 45 2 64 32 188
118 188 130 0 10 -42 29 -65 29 -7 0 -16 -11 -19 -25z"/>
  <path d="M530 225 c0 -14 147 -145 162 -145 30 0 21 43 -14 77 -40 39 -148 88
-148 68z"/>
</g>
</g>
</svg>