<?xml version="1.0" standalone="no"?>
<!DOCTYPE svg PUBLIC "-//W3C//DTD SVG 20010904//EN"
 "http://www.w3.org/TR/2001/REC-SVG-20010904/DTD/svg10.dtd">
<svg version="1.0" xmlns="http://www.w3.org/2000/svg"
 width="96.000000pt" height="68.000000pt" viewBox="0 0 96.000000 68.000000"
 preserveAspectRatio="xMidYMid meet">
<metadata>
Created by potrace 1.16, written by Peter Selinger 2001-2019
Combined from part_0.svg through part_5.svg with named groups
</metadata>
<g transform="translate(0.000000,68.000000) scale(0.100000,-0.100000)" fill="#000000" stroke="none">
<g id="part-0" class="char-part">
  <path d="M500 563 c-16 -49 -56 -107 -111 -160 -24 -24 -37 -43 -29 -43 25 0
123 84 154 133 10 15 25 27 33 27 8 0 51 -36 95 -80 75 -75 83 -80 122 -79 22
1 52 4 66 9 28 8 30 6 -62 40 -31 12 -87 43 -125 70 -37 28 -71 50 -75 50 -3
0 -8 10 -10 21 -2 12 -13 28 -25 36 -20 13 -22 12 -33 -24z"/>
  <path d="M245 489 c-27 -6 -65 -12 -82 -15 -18 -3 -33 -9 -33 -13 0 -10 35
-21 68 -21 20 0 22 -5 22 -55 l0 -55 -35 0 c-19 0 -35 -4 -35 -10 0 -5 16 -10
35 -10 l35 0 0 -54 0 -53 -60 -13 c-60 -13 -69 -24 -38 -44 12 -7 36 -1 95 27
43 20 82 37 87 37 4 0 14 7 23 15 14 14 13 15 -13 9 -16 -4 -33 -7 -39 -8 -5
0 -10 22 -10 49 0 49 1 50 33 53 41 4 42 22 1 22 l-30 0 3 53 c3 51 4 52 38
57 22 3 35 10 35 20 0 18 -33 21 -100 9z"/>
  <path d="M538 416 c-69 -14 -85 -26 -32 -26 60 0 115 12 111 23 -5 15 -15 16
-79 3z"/>
  <path d="M678 210 l4 -130 -31 0 c-17 0 -31 -2 -31 -5 0 -12 50 -55 63 -55 29
0 35 27 37 160 2 171 4 160 -23 160 -23 0 -23 0 -19 -130z"/>
  <path d="M440 320 c-14 -4 -36 -5 -49 -2 -23 5 -24 3 -18 -35 6 -35 -2 -111
-18 -168 -3 -11 -1 -27 5 -35 9 -13 11 -13 20 0 6 8 13 32 16 53 5 30 11 37
29 37 13 0 30 3 38 6 18 7 31 -27 22 -56 -4 -13 -15 -20 -32 -20 l-25 0 31
-32 c29 -29 33 -31 47 -16 13 13 16 36 16 108 -1 50 4 103 9 118 17 43 -25 63
-91 42z m34 -16 c17 -6 23 -44 7 -44 -5 0 -22 -3 -38 -6 -25 -5 -31 -2 -36 15
-4 15 2 22 22 30 14 5 27 10 28 10 1 1 8 -2 17 -5z m11 -89 c0 -16 -8 -21 -41
-23 -39 -3 -41 -2 -37 21 4 20 10 24 41 23 30 -1 37 -5 37 -21z"/>
  <path d="M580 231 c0 -55 3 -71 14 -71 10 0 17 15 21 43 9 60 3 91 -17 95 -16
3 -18 -5 -18 -67z"/>
</g>
<g id="part-1" class="char-part">
  <path d="M208 477 c-97 -15 -87 -31 15 -24 86 6 117 13 117 28 0 11 -42 9
-132 -4z"/>
</g>
<g id="part-2" class="char-part">
  <path d="M215 393 l0 -58 -37 -3 c-51 -4 -49 -22 2 -22 l40 0 0 -54 0 -54 -65
-13 c-36 -7 -65 -16 -65 -20 0 -3 14 -12 31 -19 29 -12 37 -10 130 35 101 50
117 64 56 47 -34 -10 -35 -9 -40 22 -7 46 8 76 37 76 14 0 28 5 31 10 4 6 -9
10 -31 10 l-37 0 5 50 5 50 -31 0 -32 0 1 -57z"/>
</g>
<g id="part-3" class="char-part">
  <path d="M504 583 c-14 -49 -54 -113 -103 -165 -30 -32 -47 -58 -39 -58 23 0
100 65 142 120 45 58 28 64 149 -52 66 -64 72 -68 116 -67 54 1 95 14 71 23
-8 3 -41 15 -72 26 -62 23 -208 124 -208 144 0 13 -31 46 -44 46 -3 0 -9 -8
-12 -17z"/>
</g>
<g id="part-4" class="char-part">
  <path d="M533 416 c-80 -17 -77 -29 6 -23 40 3 76 9 79 12 6 6 -18 26 -28 23
-3 0 -28 -6 -57 -12z"/>
</g>
<g id="part-5" class="char-part">
  <path d="M676 308 c13 -90 19 -196 10 -191 -5 4 -7 -3 -4 -15 4 -13 1 -23 -5
-24 -7 0 -16 -2 -22 -3 -5 -2 -14 -3 -20 -4 -5 0 3 -12 19 -26 23 -20 32 -22
43 -13 8 6 12 20 10 30 -3 10 0 18 6 18 8 0 7 4 -2 9 -9 6 -10 11 -3 15 12 7
12 226 0 226 -3 0 -13 3 -22 6 -12 5 -14 -1 -10 -28z"/>
</g>
</g>
</svg>