<?xml version="1.0" standalone="no"?>
<!DOCTYPE svg PUBLIC "-//W3C//DTD SVG 20010904//EN"
 "http://www.w3.org/TR/2001/REC-SVG-20010904/DTD/svg10.dtd">
<svg version="1.0" xmlns="http://www.w3.org/2000/svg"
 width="96.000000pt" height="68.000000pt" viewBox="0 0 96.000000 68.000000"
 preserveAspectRatio="xMidYMid meet">
<metadata>
Created by potrace 1.16, written by Peter Selinger 2001-2019
Combined from part_0.svg through part_5.svg with named groups
</metadata>
<g transform="translate(0.000000,68.000000) scale(0.100000,-0.100000)" fill="#000000" stroke="none">
<g id="part-0" class="char-part">
  <path d="M397 603 c-3 -5 -2 -15 4 -23 5 -8 9 -36 9 -62 l0 -47 -42 -5 c-24
-3 -53 -7 -66 -8 -50 -6 -24 -23 39 -26 66 -3 67 -3 73 -34 3 -17 4 -33 1 -36
-3 -3 -54 -10 -115 -15 -60 -5 -110 -13 -110 -18 0 -14 23 -22 64 -21 49 0
334 19 426 28 l65 6 -25 20 c-23 19 -34 20 -123 14 -54 -4 -104 -9 -112 -13
-12 -4 -15 4 -15 36 0 40 1 41 35 41 54 0 136 21 132 33 -5 16 -66 27 -94 16
-54 -20 -63 -14 -63 45 0 30 -3 57 -7 59 -19 11 -72 17 -76 10z"/>
  <path d="M410 296 c0 -10 3 -15 8 -12 4 2 6 -13 4 -34 l-4 -39 -64 -6 c-35 -4
-64 -11 -64 -16 0 -4 30 -9 68 -11 66 -3 67 -4 70 -32 5 -38 -10 -46 -83 -46
-82 0 -195 -11 -195 -19 0 -17 64 -29 113 -21 46 7 330 26 487 33 l55 2 -33
18 c-29 16 -44 17 -158 7 -69 -5 -130 -7 -135 -4 -11 6 -12 45 -1 60 4 6 36
16 71 22 64 11 79 17 69 27 -8 8 -70 9 -105 1 l-33 -8 0 41 c0 26 -5 41 -12
41 -7 0 -23 3 -35 6 -17 5 -23 2 -23 -10z"/>
</g>
<g id="part-1" class="char-part">
  <path d="M407 573 c4 -16 7 -46 7 -68 1 -35 -2 -40 -24 -43 -92 -9 -113 -14
-99 -23 8 -5 40 -9 72 -9 l57 0 0 -39 0 -39 -97 -7 c-118 -8 -136 -12 -110
-27 13 -7 94 -5 265 7 136 10 249 19 251 22 3 2 0 8 -6 14 -14 14 -77 16 -175
6 l-78 -9 0 41 c0 44 -7 41 113 56 26 4 47 10 47 15 0 17 -40 21 -97 11 -31
-6 -59 -11 -61 -11 -2 0 -1 25 3 56 8 63 1 74 -48 74 -25 0 -27 -2 -20 -27z"/>
</g>
<g id="part-2" class="char-part">
  <path d="M417 261 l6 -49 -72 -7 c-39 -4 -71 -11 -71 -16 0 -4 33 -9 73 -11
l72 -3 3 -32 c4 -36 20 -31 -198 -51 l-95 -8 36 -17 c30 -13 48 -15 95 -7 55
8 344 28 479 33 l60 2 -32 18 c-29 15 -46 16 -160 8 -70 -6 -132 -6 -136 -2
-5 5 -7 21 -5 37 3 30 -1 29 123 49 34 6 37 8 21 17 -11 6 -45 8 -77 5 l-59
-5 0 38 c0 31 -4 39 -22 44 -45 12 -47 9 -41 -43z"/>
</g>
</g>
</svg>