<?xml version="1.0" standalone="no"?>
<!DOCTYPE svg PUBLIC "-//W3C//DTD SVG 20010904//EN"
 "http://www.w3.org/TR/2001/REC-SVG-20010904/DTD/svg10.dtd">
<svg version="1.0" xmlns="http://www.w3.org/2000/svg"
 width="96.000000pt" height="68.000000pt" viewBox="0 0 96.000000 68.000000"
 preserveAspectRatio="xMidYMid meet">
<metadata>
Created by potrace 1.16, written by Peter Selinger 2001-2019
Combined from part_0.svg through part_5.svg with named groups
</metadata>
<g transform="translate(0.000000,68.000000) scale(0.100000,-0.100000)" fill="#000000" stroke="none">
<g id="part-0" class="char-part">
  <path d="M206 573 c12 -38 8 -345 -5 -416 -15 -81 10 -132 47 -95 7 7 12 43
12 93 0 45 3 123 6 173 l7 92 33 -21 c36 -22 54 -19 54 11 0 13 -13 23 -42 33
l-43 14 3 61 c3 52 1 62 -16 71 -12 6 -30 11 -42 11 -20 0 -21 -3 -14 -27z"/>
  <path d="M460 548 c0 -65 -5 -73 -52 -82 -48 -9 -49 -26 -2 -26 35 0 35 -1 29
-32 -11 -54 -74 -174 -111 -209 -41 -40 -44 -56 -6 -32 35 21 102 94 102 111
0 20 17 14 38 -13 24 -30 42 -32 42 -6 0 12 -11 23 -31 30 -24 8 -30 15 -25
28 4 10 17 44 29 75 l22 57 50 5 c195 20 202 21 170 35 -23 9 -48 10 -109 2
-44 -6 -83 -11 -87 -11 -4 0 -7 26 -6 58 2 55 1 57 -25 60 -27 3 -28 2 -28
-50z"/>
  <path d="M122 376 c-24 -55 -23 -96 2 -96 20 0 36 24 43 64 6 37 -2 86 -15 86
-4 0 -18 -25 -30 -54z"/>
  <path d="M546 356 c10 -82 -16 -154 -74 -211 -26 -26 -60 -53 -75 -62 -16 -8
-27 -17 -24 -20 3 -3 32 9 65 27 56 30 122 95 122 120 0 24 29 3 80 -59 29
-34 67 -69 84 -76 30 -12 92 -10 101 4 2 4 -31 24 -73 43 -84 40 -176 120
-168 147 3 9 6 40 8 70 3 52 2 55 -24 62 l-28 7 6 -52z"/>
  <path d="M673 343 c-3 -10 -21 -37 -40 -60 -37 -46 -34 -55 7 -23 14 11 29 20
33 20 5 0 23 10 39 22 l31 21 -23 19 c-28 23 -39 23 -47 1z"/>
</g>
<g id="part-1" class="char-part">
  <path d="M212 569 c10 -30 5 -350 -8 -444 -4 -27 0 -47 10 -60 31 -42 45 25
46 218 0 81 3 147 6 147 3 0 19 -9 35 -21 30 -21 64 -19 57 4 -4 10 -22 18
-77 34 -10 2 -12 16 -7 62 6 54 5 61 -16 75 -12 9 -30 16 -40 16 -15 0 -16 -4
-6 -31z"/>
  <path d="M127 376 c-21 -50 -19 -91 3 -91 17 0 43 81 35 113 -8 33 -18 27 -38
-22z"/>
</g>
<g id="part-2" class="char-part">
  <path d="M467 603 c-4 -3 -7 -25 -7 -47 0 -73 -7 -84 -56 -92 -50 -7 -49 -24
2 -24 19 0 34 -4 34 -8 0 -45 -75 -188 -128 -244 -37 -40 -22 -43 27 -8 50 37
86 91 126 190 33 82 44 90 133 91 31 0 77 4 102 8 l45 7 -28 14 c-23 11 -44
11 -114 2 -48 -6 -89 -10 -91 -7 -3 2 0 23 6 45 9 36 8 44 -9 61 -20 20 -31
23 -42 12z"/>
</g>
<g id="part-3" class="char-part">
  <path d="M546 355 c14 -95 -30 -184 -123 -251 -29 -21 -51 -39 -49 -41 6 -6
81 30 114 55 19 15 47 46 62 70 l27 43 26 -38 c31 -46 80 -98 112 -119 17 -11
36 -14 69 -9 26 4 48 10 50 14 3 3 -26 19 -63 34 -37 15 -91 49 -120 74 -47
41 -51 47 -34 56 10 6 42 25 71 44 43 27 51 37 43 47 -24 29 -51 26 -67 -7
-20 -39 -54 -77 -69 -77 -8 0 -9 20 -4 68 7 69 2 82 -33 82 -15 0 -17 -7 -12
-45z"/>
  <path d="M440 295 c0 -15 34 -55 46 -55 25 0 16 40 -12 50 -29 11 -34 12 -34
5z"/>
</g>
</g>
</svg>