<?xml version="1.0" standalone="no"?>
<!DOCTYPE svg PUBLIC "-//W3C//DTD SVG 20010904//EN"
 "http://www.w3.org/TR/2001/REC-SVG-20010904/DTD/svg10.dtd">
<svg version="1.0" xmlns="http://www.w3.org/2000/svg"
 width="96.000000pt" height="68.000000pt" viewBox="0 0 96.000000 68.000000"
 preserveAspectRatio="xMidYMid meet">
<metadata>
Created by potrace 1.16, written by Peter Selinger 2001-2019
Combined from part_0.svg through part_5.svg with named groups
</metadata>
<g transform="translate(0.000000,68.000000) scale(0.100000,-0.100000)" fill="#000000" stroke="none">
<g id="part-0" class="char-part">
  <path d="M620 542 l0 -47 -59 -3 c-59 -3 -59 -3 -66 27 -5 24 -12 31 -31 31
-24 0 -24 -1 -10 -22 27 -38 20 -48 -29 -48 -25 0 -45 -4 -45 -10 0 -10 32
-14 77 -10 18 1 22 -5 25 -32 2 -27 8 -34 30 -36 26 -3 48 -36 33 -50 -3 -3
-37 -7 -75 -7 -39 0 -70 -1 -70 -2 0 -2 9 -24 21 -50 l21 -48 55 3 c52 4 55 3
51 -20 -3 -20 -9 -23 -55 -26 -70 -4 -68 -22 2 -22 48 0 55 -2 55 -20 0 -15
-7 -20 -27 -20 -16 0 -39 -4 -53 -8 -21 -6 -16 -8 25 -12 42 -4 50 -8 50 -25
0 -17 -7 -20 -45 -22 -25 -2 -70 -6 -100 -9 -43 -5 -50 -8 -36 -16 11 -6 51
-8 100 -4 44 4 145 7 224 8 105 1 142 4 142 13 0 21 -49 27 -146 20 -67 -5
-93 -4 -99 5 -12 19 12 33 62 38 74 6 77 22 5 22 -55 0 -62 2 -62 20 0 17 7
20 48 21 26 0 56 4 67 9 18 7 19 8 3 15 -10 4 -40 4 -68 1 -48 -6 -50 -5 -50
19 0 24 2 25 65 25 62 0 66 2 76 27 5 14 17 32 27 39 14 10 14 14 2 29 -12 14
-25 16 -87 10 l-73 -7 0 26 c0 19 5 26 20 26 13 0 22 9 26 28 3 15 7 33 10 40
2 8 26 12 75 12 52 0 70 3 66 13 -2 7 -25 12 -63 13 l-59 1 3 30 c3 26 -1 32
-27 41 l-31 11 0 -47z m-10 -92 c0 -25 -4 -30 -35 -36 -46 -8 -65 0 -65 30 0
20 6 25 33 29 68 8 67 9 67 -23z m90 -132 c0 -27 -19 -40 -63 -45 -46 -5 -46
-5 -43 23 2 16 4 30 5 32 0 1 24 2 51 2 33 0 50 -4 50 -12z m-153 -25 c-2 -24
-7 -28 -36 -31 -47 -5 -59 2 -54 30 4 21 11 25 48 27 42 2 44 1 42 -26z"/>
  <path d="M226 528 c12 -39 45 -79 63 -76 9 2 17 15 19 30 4 34 -28 68 -64 68
-22 0 -24 -3 -18 -22z"/>
  <path d="M215 430 c-66 -10 -122 -18 -124 -19 -2 0 3 -8 10 -17 14 -18 22 -17
213 9 88 12 118 29 74 41 -29 7 -28 7 -173 -14z"/>
  <path d="M258 346 c-79 -13 -75 -31 5 -22 61 7 91 19 65 28 -7 2 -39 -1 -70
-6z"/>
  <path d="M253 277 c-55 -11 -72 -27 -28 -27 13 0 48 5 77 11 42 9 49 13 33 20
-11 4 -22 7 -25 7 -3 -1 -29 -6 -57 -11z"/>
  <path d="M288 204 c-4 -3 -30 -7 -60 -9 -56 -3 -61 -7 -47 -42 5 -13 14 -35
19 -49 8 -21 15 -25 33 -20 12 3 39 6 60 6 27 0 39 5 43 18 3 9 12 31 21 49 8
17 12 36 9 42 -7 11 -68 15 -78 5z m22 -50 c0 -24 -5 -33 -22 -38 -43 -11 -56
-6 -63 22 -9 37 -10 36 27 42 56 9 58 8 58 -26z"/>
</g>
<g id="part-1" class="char-part">
  <path d="M220 544 c0 -2 11 -22 25 -44 16 -25 33 -40 45 -40 23 0 27 27 8 53
-12 15 -78 42 -78 31z"/>
  <path d="M196 424 c-54 -7 -101 -15 -103 -18 -3 -2 5 -10 17 -16 17 -9 41 -8
108 3 48 9 108 18 135 22 26 3 47 10 47 16 0 12 -84 10 -204 -7z"/>
</g>
<g id="part-2" class="char-part">
  <path d="M276 203 c-28 -8 -67 -13 -87 -11 -33 3 -36 2 -25 -12 8 -8 19 -33
26 -55 16 -51 26 -63 42 -47 7 7 31 12 55 12 38 0 45 3 53 28 6 15 15 35 20
44 13 22 13 48 1 48 -5 0 -15 2 -23 4 -7 3 -35 -2 -62 -11z m34 -43 c0 -54
-71 -70 -88 -20 -10 27 -9 30 11 35 53 11 62 13 70 14 4 0 7 -12 7 -29z"/>
</g>
<g id="part-3" class="char-part">
  <path d="M620 545 c0 -47 -11 -55 -82 -55 -32 0 -37 3 -43 29 -4 20 -13 30
-31 34 -28 5 -29 0 -9 -27 26 -35 19 -46 -30 -46 -25 0 -45 -4 -45 -9 0 -11
56 -25 68 -17 13 8 26 -6 37 -39 6 -16 14 -29 18 -29 4 1 39 5 77 8 39 4 68
11 65 15 -2 5 0 23 6 40 11 31 11 31 85 31 42 0 74 4 74 10 0 14 -43 23 -94
19 l-45 -4 2 34 c2 29 -2 35 -25 42 -27 7 -28 6 -28 -36z m-10 -95 c0 -25 -4
-30 -35 -36 -46 -8 -65 0 -65 30 0 21 5 25 38 29 20 2 43 4 50 5 7 1 12 -10
12 -28z"/>
</g>
<g id="part-4" class="char-part">
  <path d="M546 366 c5 -22 2 -25 -30 -31 -19 -4 -54 -5 -76 -3 -22 2 -40 3 -40
3 0 0 9 -22 19 -50 l19 -50 56 3 c51 4 56 2 56 -17 0 -14 6 -21 20 -21 15 0
20 7 20 25 0 22 5 25 33 25 53 0 107 12 107 23 0 6 10 21 23 35 22 23 22 24 3
38 -22 16 -39 16 -108 5 -46 -7 -48 -7 -48 16 0 19 -5 23 -30 23 -27 0 -30 -3
-24 -24z m154 -45 c0 -31 -28 -51 -71 -51 -38 0 -40 2 -37 28 3 24 8 28 48 33
25 3 48 7 53 7 4 1 7 -7 7 -17z m-150 -31 c0 -29 -2 -30 -45 -30 -41 0 -45 2
-45 24 0 27 11 34 58 35 29 1 32 -2 32 -29z"/>
</g>
<g id="part-5" class="char-part">
  <path d="M700 71 c-36 -4 -48 -8 -35 -13 31 -10 156 -7 149 3 -3 5 -9 7 -14 4
-5 -3 -11 -1 -15 5 -3 5 -12 9 -18 8 -7 -1 -37 -4 -67 -7z"/>
  <path d="M605 63 c-11 -3 -24 -9 -29 -14 -5 -5 5 -4 24 1 51 15 55 25 5 13z"/>
  <path d="M415 50 c-16 -3 -25 -8 -20 -12 13 -8 108 2 99 11 -7 8 -40 8 -79 1z"/>
  <path d="M510 50 c0 -5 11 -10 25 -10 14 0 25 5 25 10 0 6 -11 10 -25 10 -14
0 -25 -4 -25 -10z"/>
</g>
</g>
</svg>