<?xml version="1.0" standalone="no"?>
<!DOCTYPE svg PUBLIC "-//W3C//DTD SVG 20010904//EN"
 "http://www.w3.org/TR/2001/REC-SVG-20010904/DTD/svg10.dtd">
<svg version="1.0" xmlns="http://www.w3.org/2000/svg"
 width="96.000000pt" height="68.000000pt" viewBox="0 0 96.000000 68.000000"
 preserveAspectRatio="xMidYMid meet">
<metadata>
Created by potrace 1.16, written by Peter Selinger 2001-2019
Combined from part_0.svg through part_5.svg with named groups
</metadata>
<g transform="translate(0.000000,68.000000) scale(0.100000,-0.100000)" fill="#000000" stroke="none">
<g id="part-0" class="char-part">
  <path d="M357 578 c4 -18 7 -46 8 -63 0 -26 -4 -30 -37 -36 -39 -6 -46 -1 -26
19 16 16 -7 42 -38 42 -18 0 -24 -6 -24 -22 0 -13 -7 -43 -16 -67 -18 -54 -12
-62 24 -29 29 28 38 31 90 29 27 -1 32 -5 32 -25 0 -14 -4 -27 -9 -30 -5 -3
-55 -11 -112 -17 -57 -6 -108 -15 -113 -19 -16 -15 61 -22 115 -11 97 20 103
21 110 10 3 -6 4 -22 1 -35 -4 -25 -7 -26 -66 -22 -56 3 -61 1 -58 -17 1 -11
3 -47 5 -80 2 -48 6 -60 20 -63 15 -3 17 5 17 66 l0 70 31 6 c53 10 52 12 43
-76 -10 -107 -9 -137 4 -150 8 -8 15 -8 27 2 12 10 15 36 15 126 l0 114 39 0
c42 0 51 -11 51 -60 0 -42 -10 -60 -33 -60 l-21 0 21 -21 c40 -40 66 -9 75 89
7 72 -6 85 -78 76 l-54 -6 0 31 c0 28 3 31 33 31 61 0 137 13 137 23 0 6 -30
8 -85 3 l-85 -6 2 30 c2 24 8 32 28 36 70 16 80 20 80 29 -1 10 -38 12 -75 4
-18 -4 -20 1 -20 45 0 40 -4 50 -20 57 -39 15 -45 11 -38 -23z"/>
  <path d="M737 558 c11 -41 13 -89 7 -213 -5 -137 -8 -175 -13 -216 -1 -8 -62
4 -80 15 -6 4 -11 2 -11 -3 0 -6 4 -11 9 -11 5 0 28 -18 50 -40 78 -77 88 -53
94 220 3 124 9 217 16 235 11 26 10 32 -9 47 -12 10 -35 18 -50 18 l-27 0 14
-52z"/>
  <path d="M618 358 c2 -57 8 -107 12 -112 20 -21 28 10 27 107 -2 95 -3 102
-23 105 -20 3 -21 0 -16 -100z"/>
</g>
<g id="part-1" class="char-part">
  <path d="M244 523 c3 -10 -3 -42 -13 -71 -18 -52 -18 -52 2 -35 10 10 32 37
48 60 28 41 29 42 10 53 -31 16 -53 13 -47 -7z"/>
</g>
<g id="part-2" class="char-part">
  <path d="M395 314 c-38 -8 -92 -13 -118 -10 l-48 5 6 -31 c4 -18 8 -55 9 -84
1 -29 5 -56 8 -59 17 -17 28 12 28 75 l0 69 47 7 c27 4 73 7 103 8 l55 1 3
-37 c4 -48 -13 -82 -39 -75 -18 5 -18 4 -1 -19 39 -53 77 -16 85 84 4 53 3 64
-13 72 -23 12 -38 12 -125 -6z"/>
</g>
<g id="part-3" class="char-part">
  <path d="M606 449 c4 -7 10 -56 13 -109 5 -75 9 -95 21 -95 12 0 15 18 15 105
l0 105 -29 3 c-21 3 -26 0 -20 -9z"/>
</g>
<g id="part-4" class="char-part">
  <path d="M734 578 c17 -79 18 -107 11 -274 l-7 -177 -50 6 -50 6 27 -21 c15
-12 38 -32 51 -45 58 -58 74 -17 74 190 0 147 9 247 25 303 5 15 0 23 -20 32
-14 7 -35 12 -47 12 -18 0 -20 -4 -14 -32z"/>
</g>
</g>
</svg>