<?xml version="1.0" standalone="no"?>
<!DOCTYPE svg PUBLIC "-//W3C//DTD SVG 20010904//EN"
 "http://www.w3.org/TR/2001/REC-SVG-20010904/DTD/svg10.dtd">
<svg version="1.0" xmlns="http://www.w3.org/2000/svg"
 width="96.000000pt" height="68.000000pt" viewBox="0 0 96.000000 68.000000"
 preserveAspectRatio="xMidYMid meet">
<metadata>
Created by potrace 1.16, written by Peter Selinger 2001-2019
Combined from part_0.svg through part_5.svg with named groups
</metadata>
<g transform="translate(0.000000,68.000000) scale(0.100000,-0.100000)" fill="#000000" stroke="none">
<g id="part-0" class="char-part">
  <path d="M410 602 c0 -5 7 -17 15 -28 29 -39 20 -44 -74 -44 -50 0 -93 5 -96
10 -12 19 -23 10 -53 -42 -31 -54 -30 -88 3 -88 12 0 45 41 57 71 4 9 397 44
404 36 3 -3 0 -15 -6 -27 -6 -12 -10 -23 -8 -25 2 -1 32 3 68 9 75 14 82 28
30 64 -32 21 -42 23 -105 17 -38 -3 -85 -8 -102 -12 -28 -4 -33 -2 -33 15 0
12 -10 28 -22 36 -23 17 -78 22 -78 8z"/>
  <path d="M465 465 c-55 -7 -121 -14 -147 -14 -47 -1 -48 -1 -29 -20 10 -10 22
-34 26 -52 18 -91 21 -94 70 -91 42 4 45 3 45 -21 0 -23 -4 -25 -67 -32 -52
-5 -75 -3 -97 9 -30 15 -51 13 -41 -5 6 -9 -7 -13 -32 -10 -25 3 -22 -19 4
-25 15 -3 34 -7 40 -10 9 -2 13 -25 13 -66 0 -68 10 -95 30 -83 9 6 11 28 6
85 l-6 77 46 7 c98 13 114 7 114 -44 0 -15 -10 -20 -45 -26 -25 -3 -52 -4 -60
0 -23 8 -18 -12 6 -25 24 -12 61 -7 150 21 l60 20 30 -22 c33 -25 44 -20 35
16 -5 22 -64 66 -67 51 -1 -3 -2 -10 -3 -17 -1 -13 -54 -30 -68 -22 -4 3 -8
18 -8 35 0 27 3 29 38 31 20 0 65 2 99 4 70 3 84 -6 79 -51 -2 -17 -4 -42 -5
-57 -2 -38 -26 -59 -61 -51 -37 7 -37 3 0 -37 22 -24 35 -30 50 -25 31 10 60
64 60 109 0 22 6 55 12 74 12 32 11 35 -16 57 -23 19 -34 21 -65 15 -20 -5
-71 -12 -114 -15 -77 -7 -77 -7 -74 16 4 22 9 24 55 24 28 1 53 3 54 5 2 3 18
37 35 77 43 101 26 111 -152 88z m109 -23 c3 -5 3 -17 0 -28 -4 -16 -12 -18
-49 -16 -36 3 -44 8 -48 28 -4 23 -2 24 44 24 26 0 50 -4 53 -8z m-151 -24 c8
-30 4 -34 -43 -36 -29 -2 -42 2 -46 13 -12 29 4 45 45 45 31 0 40 -4 44 -22z
m139 -43 c3 -3 3 -17 0 -30 -4 -22 -10 -25 -43 -25 -35 0 -39 3 -39 24 0 24
13 32 56 35 11 0 23 -1 26 -4z m-132 -40 c0 -22 -4 -25 -35 -25 -19 0 -35 4
-35 9 0 5 -3 16 -6 25 -5 13 2 16 35 16 37 0 41 -2 41 -25z"/>
</g>
<g id="part-1" class="char-part">
  <path d="M416 598 c4 -7 15 -25 25 -39 l18 -26 -95 -7 c-83 -6 -98 -5 -115 10
-10 9 -19 13 -19 7 0 -6 -11 -27 -26 -48 -28 -42 -28 -70 1 -70 13 0 27 13 40
37 19 37 22 38 75 38 30 0 120 7 199 15 79 8 148 12 153 9 5 -3 2 -16 -7 -30
-19 -29 -13 -30 65 -13 59 13 60 25 4 55 -34 19 -47 20 -99 14 -98 -13 -135
-12 -129 4 3 7 -7 23 -22 35 -29 23 -80 30 -68 9z"/>
</g>
<g id="part-2" class="char-part">
  <path d="M465 464 c-55 -7 -122 -13 -149 -13 -43 -1 -47 -3 -32 -14 9 -7 25
-44 34 -82 15 -59 20 -70 37 -68 11 1 67 4 124 6 l103 4 34 78 c19 43 33 79
31 80 -1 1 -12 7 -24 14 -25 13 -23 13 -158 -5z m109 -22 c3 -5 3 -17 0 -28
-4 -16 -12 -18 -49 -16 -36 3 -44 8 -48 28 -4 23 -2 24 44 24 26 0 50 -4 53
-8z m-151 -24 c9 -31 1 -38 -43 -38 -31 0 -40 4 -45 21 -9 26 8 39 51 39 24 0
33 -5 37 -22z m147 -42 c0 -3 -4 -16 -10 -30 -8 -21 -16 -26 -45 -26 -30 0
-35 3 -35 24 0 15 7 26 18 29 23 6 72 8 72 3z m-140 -41 c0 -22 -4 -25 -35
-25 -19 0 -35 4 -35 9 0 5 -3 16 -6 25 -5 13 2 16 35 16 37 0 41 -2 41 -25z"/>
</g>
<g id="part-3" class="char-part">
  <path d="M430 248 c0 -56 9 -88 25 -88 8 0 15 17 17 43 6 61 -1 87 -23 87 -16
0 -19 -7 -19 -42z"/>
</g>
<g id="part-4" class="char-part">
  <path d="M639 266 c-2 -2 -81 -11 -174 -20 -155 -16 -173 -16 -200 -2 -38 20
-49 20 -41 1 4 -11 -2 -15 -24 -15 -38 0 -39 -18 -2 -26 15 -3 33 -7 39 -10 9
-2 13 -25 13 -66 0 -68 10 -95 30 -83 9 6 11 28 6 85 l-6 77 92 11 c51 6 138
14 193 18 122 8 131 2 121 -78 -11 -77 -20 -90 -62 -82 -18 3 -34 4 -34 1 0
-2 13 -19 29 -38 27 -30 31 -32 56 -21 30 14 55 66 55 115 0 19 5 49 12 67 10
30 9 35 -12 52 -19 16 -79 25 -91 14z"/>
</g>
</g>
</svg>