<?xml version="1.0" standalone="no"?>
<!DOCTYPE svg PUBLIC "-//W3C//DTD SVG 20010904//EN"
 "http://www.w3.org/TR/2001/REC-SVG-20010904/DTD/svg10.dtd">
<svg version="1.0" xmlns="http://www.w3.org/2000/svg"
 width="96.000000pt" height="68.000000pt" viewBox="0 0 96.000000 68.000000"
 preserveAspectRatio="xMidYMid meet">
<metadata>
Created by potrace 1.16, written by Peter Selinger 2001-2019
Combined from part_0.svg through part_5.svg with named groups
</metadata>
<g transform="translate(0.000000,68.000000) scale(0.100000,-0.100000)" fill="#000000" stroke="none">
<g id="part-0" class="char-part">
  <path d="M665 571 c-16 -5 -61 -9 -99 -10 -61 -1 -67 -3 -61 -18 5 -10 13 -38
20 -63 14 -51 1 -48 158 -35 73 6 77 8 77 31 0 13 4 24 8 24 15 0 34 52 23 63
-13 13 -89 17 -126 8z m59 -58 c-4 -21 -7 -39 -8 -39 0 -1 -36 -5 -78 -9 l-78
-7 0 25 c0 14 -3 32 -6 41 -6 15 -4 16 129 24 l48 3 -7 -38z"/>
  <path d="M380 563 c0 -5 -9 -22 -20 -40 l-19 -32 -53 29 c-28 16 -56 26 -60
24 -5 -3 10 -23 34 -44 49 -43 48 -49 -33 -100 -27 -18 -49 -36 -49 -41 0 -11
75 16 110 41 37 26 48 25 56 -5 9 -36 -25 -84 -102 -144 -37 -28 -71 -51 -75
-51 -5 0 -9 -5 -9 -11 0 -22 107 34 169 90 13 11 26 21 29 21 7 0 -10 -144
-20 -164 -8 -15 -17 -17 -55 -12 l-45 6 41 -40 c22 -22 47 -40 55 -40 25 0 65
58 72 106 10 69 -1 213 -20 258 l-17 40 42 42 c36 37 40 45 29 59 -13 15 -60
21 -60 8z"/>
  <path d="M711 401 c-18 -11 -121 -24 -174 -22 -35 1 -38 -1 -31 -22 12 -37 7
-129 -10 -187 -20 -66 -20 -94 -2 -109 18 -15 22 -8 40 60 l13 54 94 12 c52 6
98 12 103 12 9 1 3 -96 -8 -106 -3 -3 -17 -1 -30 5 -37 17 -38 3 -1 -29 37
-33 60 -37 74 -11 5 9 10 88 12 175 3 132 2 159 -11 167 -19 12 -51 12 -69 1z
m39 -61 c0 -26 -3 -28 -69 -39 -39 -6 -84 -11 -102 -11 -30 0 -31 1 -25 32 3
17 7 33 9 34 6 6 153 19 170 16 11 -3 17 -14 17 -32z m0 -84 c0 -26 -6 -28
-100 -41 -25 -3 -57 -8 -72 -11 -26 -5 -28 -3 -28 24 0 30 1 30 73 40 121 16
127 15 127 -12z"/>
</g>
<g id="part-1" class="char-part">
  <path d="M371 534 c-7 -19 -18 -37 -25 -40 -7 -3 -32 7 -57 20 -63 37 -71 31
-19 -14 l45 -40 -25 -20 c-14 -12 -45 -35 -70 -51 -41 -28 -42 -30 -15 -24 17
3 52 20 78 37 57 37 62 33 73 -51 7 -55 0 -184 -12 -214 -8 -23 -36 -29 -70
-17 -28 10 -27 9 13 -31 45 -46 61 -47 89 -3 37 56 37 271 0 343 -15 29 -15
30 24 65 45 41 48 51 21 66 -30 16 -36 13 -50 -26z"/>
</g>
<g id="part-2" class="char-part">
  <path d="M306 314 c-27 -30 -73 -72 -103 -92 -66 -43 -53 -54 20 -18 74 36
137 99 137 136 0 17 -1 30 -2 30 -2 0 -25 -25 -52 -56z"/>
</g>
<g id="part-3" class="char-part">
  <path d="M645 570 c-27 -5 -72 -9 -99 -9 -42 -1 -47 -3 -41 -18 5 -10 13 -37
19 -60 14 -49 30 -71 40 -54 4 6 26 11 49 11 84 0 147 12 147 28 0 8 10 30 22
50 21 34 21 35 3 48 -20 15 -61 16 -140 4z m85 -29 c0 -5 -3 -22 -6 -39 -6
-29 -8 -30 -76 -37 -39 -3 -74 -3 -78 2 -4 4 -11 22 -15 40 l-6 32 48 4 c96 7
133 7 133 -2z"/>
</g>
<g id="part-4" class="char-part">
  <path d="M680 394 c-30 -8 -83 -14 -117 -15 l-63 -1 7 -26 c12 -43 7 -122 -12
-189 -16 -58 -15 -113 3 -113 13 0 42 68 42 99 0 28 2 28 68 35 37 4 84 9 105
13 l37 6 0 -44 c0 -63 -10 -74 -51 -60 l-33 11 34 -35 c38 -39 64 -44 80 -16
5 11 10 77 10 146 0 69 5 135 10 145 8 15 5 23 -12 40 -25 23 -32 23 -108 4z
m68 -51 c3 -30 3 -30 -67 -41 -108 -18 -131 -16 -131 11 0 39 14 47 96 56 43
4 84 7 89 6 6 -1 11 -15 13 -32z m2 -87 c0 -19 -7 -26 -27 -30 -34 -7 -155
-26 -165 -26 -5 0 -8 15 -8 33 0 28 3 33 24 32 14 -1 44 2 68 6 24 3 58 7 76
8 28 1 32 -2 32 -23z"/>
</g>
</g>
</svg>