<?xml version="1.0" standalone="no"?>
<!DOCTYPE svg PUBLIC "-//W3C//DTD SVG 20010904//EN"
 "http://www.w3.org/TR/2001/REC-SVG-20010904/DTD/svg10.dtd">
<svg version="1.0" xmlns="http://www.w3.org/2000/svg"
 width="96.000000pt" height="68.000000pt" viewBox="0 0 96.000000 68.000000"
 preserveAspectRatio="xMidYMid meet">
<metadata>
Created by potrace 1.16, written by Peter Selinger 2001-2019
Combined from part_0.svg through part_5.svg with named groups
</metadata>
<g transform="translate(0.000000,68.000000) scale(0.100000,-0.100000)" fill="#000000" stroke="none">
<g id="part-0" class="char-part">
  <path d="M391 525 c-128 -13 -236 -26 -239 -30 -3 -3 4 -12 15 -20 21 -14 21
-20 16 -169 l-6 -154 27 -25 c46 -43 107 -51 341 -43 228 7 261 11 269 32 11
27 -42 37 -130 25 -107 -15 -385 -14 -419 1 -25 11 -25 13 -25 117 0 58 6 129
13 156 13 49 14 50 59 59 68 13 78 6 78 -58 0 -60 -26 -131 -59 -160 -30 -27
-26 -39 7 -22 56 30 93 105 96 195 l1 61 43 0 42 0 0 -109 c0 -107 1 -109 27
-126 21 -14 40 -16 95 -13 71 6 96 17 83 38 -5 9 -30 10 -86 5 l-79 -7 0 48
c0 45 7 80 25 141 5 16 2 22 -12 26 -10 3 24 5 75 6 50 0 92 4 92 9 -1 42 -69
45 -349 17z"/>
</g>
<g id="part-1" class="char-part">
  <path d="M370 518 c-113 -11 -207 -22 -209 -24 -3 -2 3 -10 12 -17 14 -10 17
-37 19 -176 3 -162 3 -164 28 -182 43 -33 174 -43 379 -31 100 6 188 15 197
20 14 8 14 10 0 21 -19 16 -58 17 -166 2 -106 -14 -303 -14 -352 0 -28 7 -40
17 -44 36 -9 34 3 205 18 266 l12 47 45 1 c25 1 57 3 71 5 14 3 93 7 175 10
174 6 189 9 161 30 -25 18 -87 17 -346 -8z"/>
</g>
<g id="part-2" class="char-part">
  <path d="M520 387 c0 -141 1 -142 111 -142 88 0 119 15 84 41 -11 8 -29 12
-40 9 -11 -4 -42 -9 -69 -12 l-49 -6 6 74 c3 41 11 86 18 102 14 32 13 35 -29
43 l-32 7 0 -116z"/>
  <path d="M388 435 c5 -66 -16 -131 -60 -181 -35 -40 -19 -45 28 -9 41 32 72
95 80 168 7 61 0 76 -37 77 -13 0 -15 -10 -11 -55z"/>
</g>
</g>
</svg>