<?xml version="1.0" standalone="no"?>
<!DOCTYPE svg PUBLIC "-//W3C//DTD SVG 20010904//EN"
 "http://www.w3.org/TR/2001/REC-SVG-20010904/DTD/svg10.dtd">
<svg version="1.0" xmlns="http://www.w3.org/2000/svg"
 width="96.000000pt" height="68.000000pt" viewBox="0 0 96.000000 68.000000"
 preserveAspectRatio="xMidYMid meet">
<metadata>
Created by potrace 1.16, written by Peter Selinger 2001-2019
Combined from part_0.svg through part_5.svg with named groups
</metadata>
<g transform="translate(0.000000,68.000000) scale(0.100000,-0.100000)" fill="#000000" stroke="none">
<g id="part-0" class="char-part">
  <path d="M480 615 c0 -3 9 -23 20 -44 l19 -39 -47 -5 c-26 -4 -80 -9 -120 -13
-75 -7 -98 -18 -61 -29 20 -7 21 -12 16 -89 -3 -48 -14 -106 -27 -141 -23 -59
-92 -178 -101 -173 -2 2 -3 1 -2 -1 2 -2 -2 -10 -8 -18 -20 -24 7 -14 46 17
78 62 116 140 144 299 20 114 4 106 246 122 94 6 174 14 178 18 14 13 -21 33
-58 33 -19 0 -62 -3 -96 -7 -41 -5 -59 -4 -55 3 3 6 3 17 0 25 -8 23 -94 60
-94 42z"/>
  <path d="M150 430 c0 -19 68 -82 83 -77 20 6 19 42 -1 60 -24 22 -82 34 -82
17z"/>
  <path d="M590 390 c-74 -10 -146 -19 -160 -19 -20 -1 -22 -3 -10 -12 9 -6 44
-7 87 -4 l72 7 6 -34 c3 -18 5 -76 3 -128 l-3 -95 -44 3 -43 3 43 -41 c24 -22
46 -40 49 -40 4 0 16 10 28 23 21 22 22 33 22 170 l0 147 73 0 c92 0 122 7
106 26 -15 18 -59 16 -229 -6z"/>
  <path d="M183 287 c-70 -30 -90 -51 -58 -63 26 -10 58 5 110 51 58 52 47 54
-52 12z"/>
</g>
<g id="part-1" class="char-part">
  <path d="M505 571 c29 -47 31 -46 -90 -56 -44 -3 -92 -8 -107 -11 -26 -5 -26
-6 -7 -25 22 -22 23 -39 8 -129 -12 -75 -59 -186 -106 -247 -40 -52 -31 -55
25 -7 57 49 99 141 126 278 l22 111 99 12 c55 6 141 12 190 12 99 1 126 10
100 31 -11 9 -35 11 -88 6 -39 -4 -80 -9 -89 -12 -14 -4 -18 1 -18 20 0 28
-33 56 -67 56 l-23 0 25 -39z"/>
  <path d="M160 423 c0 -15 55 -63 72 -63 19 0 23 17 10 36 -16 24 -82 46 -82
27z"/>
  <path d="M240 305 c-14 -8 -47 -22 -75 -31 -61 -20 -61 -20 -45 -39 20 -24 38
-18 94 27 28 23 53 43 55 45 2 2 2 5 0 7 -2 2 -15 -2 -29 -9z"/>
</g>
<g id="part-2" class="char-part">
  <path d="M585 390 c-77 -10 -151 -19 -165 -19 -23 -1 -23 -3 -7 -12 18 -10 93
-7 367 17 58 6 63 7 45 20 -23 17 -63 16 -240 -6z"/>
</g>
<g id="part-3" class="char-part">
  <path d="M585 233 l0 -128 -45 3 -45 2 43 -40 c24 -22 47 -40 51 -40 4 0 17
10 29 23 20 22 22 33 22 165 l0 142 -27 0 -28 0 0 -127z"/>
</g>
</g>
</svg>