<?xml version="1.0" standalone="no"?>
<!DOCTYPE svg PUBLIC "-//W3C//DTD SVG 20010904//EN"
 "http://www.w3.org/TR/2001/REC-SVG-20010904/DTD/svg10.dtd">
<svg version="1.0" xmlns="http://www.w3.org/2000/svg"
 width="96.000000pt" height="68.000000pt" viewBox="0 0 96.000000 68.000000"
 preserveAspectRatio="xMidYMid meet">
<metadata>
Created by potrace 1.16, written by Peter Selinger 2001-2019
Combined from part_0.svg through part_5.svg with named groups
</metadata>
<g transform="translate(0.000000,68.000000) scale(0.100000,-0.100000)" fill="#000000" stroke="none">
<g id="part-0" class="char-part">
  <path d="M533 586 c-87 -12 -120 -26 -60 -26 32 0 37 -3 37 -24 0 -28 -29 -39
-87 -31 -35 5 -37 4 -19 -10 11 -8 20 -23 22 -32 7 -51 16 -65 41 -58 14 3 82
8 151 10 110 4 129 7 142 23 30 39 45 63 45 74 0 17 -54 30 -98 23 -23 -3 -36
-2 -33 4 4 5 1 13 -5 17 -16 10 9 24 44 24 16 0 26 4 22 10 -8 12 -93 11 -202
-4z m87 -41 c0 -21 -5 -25 -30 -25 -25 0 -30 4 -30 25 0 21 5 25 30 25 25 0
30 -4 30 -25z m110 -47 c-1 -43 -13 -58 -46 -58 -36 0 -43 14 -24 51 12 22 70
27 70 7z m-110 -27 c0 -28 -14 -41 -46 -41 -9 0 -14 11 -14 35 0 32 2 35 30
35 26 0 30 -3 30 -29z m-98 -10 c4 -26 1 -30 -25 -34 -23 -3 -30 1 -38 21 -11
28 1 42 37 42 16 0 23 -7 26 -29z"/>
  <path d="M210 575 c0 -2 9 -22 21 -44 20 -39 49 -58 69 -46 32 20 -18 95 -64
95 -14 0 -26 -2 -26 -5z"/>
  <path d="M329 476 c-2 -2 -24 -6 -49 -9 -87 -10 -180 -29 -185 -37 -9 -15 53
-29 87 -20 18 5 73 14 123 21 95 13 120 23 95 39 -15 10 -63 14 -71 6z"/>
  <path d="M585 373 c-60 -7 -116 -10 -123 -8 -8 3 -12 0 -8 -7 2 -7 12 -36 21
-64 l16 -52 39 5 c37 5 40 4 40 -19 0 -23 -5 -26 -52 -32 -29 -3 -70 -6 -91
-6 -27 0 -37 -4 -34 -12 4 -15 69 -17 135 -5 l42 7 0 -54 c0 -64 9 -116 21
-116 11 0 18 29 27 110 l7 64 65 -2 c36 -1 85 1 110 4 l45 6 -28 15 c-22 11
-46 13 -103 8 -93 -9 -89 -10 -91 20 -2 25 0 26 40 23 41 -3 42 -2 65 46 39
81 25 88 -143 69z m105 -28 c0 -10 -10 -15 -32 -15 -18 0 -63 -3 -100 -7 -58
-5 -68 -4 -68 10 0 12 13 17 53 20 127 9 147 7 147 -8z m-9 -49 c-18 -21 -160
-33 -172 -15 -10 17 27 26 120 28 54 1 62 -1 52 -13z"/>
  <path d="M240 365 c-41 -9 -49 -13 -30 -16 34 -6 140 12 140 22 0 12 -41 9
-110 -6z"/>
  <path d="M243 301 c-95 -16 -41 -29 61 -15 25 4 46 11 46 15 0 10 -45 10 -107
0z"/>
  <path d="M285 230 c-11 -5 -45 -9 -75 -9 -32 -1 -50 -5 -42 -9 7 -5 21 -31 32
-58 14 -37 23 -48 37 -46 10 2 38 7 63 10 38 6 46 11 48 32 2 14 11 33 19 42
32 35 -26 62 -82 38z m31 -42 c-3 -13 -6 -28 -6 -34 0 -7 -16 -14 -35 -16 -31
-3 -36 -1 -45 26 -5 16 -10 30 -10 32 0 5 35 12 69 13 30 1 33 -1 27 -21z"/>
</g>
<g id="part-1" class="char-part">
  <path d="M220 564 c0 -20 44 -74 61 -74 27 0 25 45 -3 64 -22 16 -58 22 -58
10z"/>
  <path d="M203 452 c-57 -9 -103 -19 -103 -24 0 -19 57 -18 167 1 65 12 121 21
126 21 4 0 7 5 7 10 0 14 -75 11 -197 -8z"/>
</g>
<g id="part-2" class="char-part">
  <path d="M285 230 c-11 -5 -45 -9 -75 -9 -30 -1 -50 -5 -43 -9 6 -4 20 -30 30
-57 15 -39 23 -49 39 -47 10 2 40 6 67 9 38 4 47 9 47 25 0 11 8 33 17 49 16
26 16 31 3 39 -18 12 -58 12 -85 0z m31 -42 c-3 -13 -6 -29 -6 -35 0 -8 -14
-13 -35 -13 -29 0 -37 5 -45 26 -6 14 -10 27 -10 29 0 6 33 13 69 14 30 1 33
-1 27 -21z"/>
</g>
<g id="part-3" class="char-part">
  <path d="M568 590 c-69 -8 -130 -19 -135 -24 -8 -9 163 -2 259 10 47 6 56 18
21 26 -10 2 -75 -3 -145 -12z"/>
</g>
<g id="part-4" class="char-part">
  <path d="M665 530 c-105 -18 -239 -30 -259 -24 -20 6 -20 6 -5 -12 9 -11 22
-36 29 -57 9 -30 16 -37 30 -32 10 3 78 8 152 10 l133 4 34 46 c20 27 30 50
25 55 -14 14 -84 19 -139 10z m65 -42 c0 -43 -11 -47 -141 -54 l-126 -7 -6 24
c-3 13 -4 25 -1 28 5 5 183 27 242 30 27 1 32 -2 32 -21z"/>
</g>
<g id="part-5" class="char-part">
  <path d="M590 233 c0 -15 -2 -16 -10 -3 -5 8 -10 11 -10 5 0 -5 4 -16 9 -23 6
-11 11 -10 25 3 9 9 14 21 11 26 -10 15 -25 10 -25 -8z"/>
  <path d="M759 216 c-3 -3 -29 -8 -59 -11 -30 -4 -56 -8 -58 -10 -2 -2 41 -3
95 -4 59 0 92 3 83 8 -22 13 -56 22 -61 17z"/>
  <path d="M608 204 c-6 -5 -74 -15 -138 -19 -53 -3 -55 -4 -43 -16 7 -7 29 -6
73 6 34 9 64 14 66 12 8 -7 13 -49 15 -109 1 -32 5 -58 10 -58 9 0 20 64 18
112 -1 20 3 44 10 52 11 13 1 32 -11 20z"/>
</g>
</g>
</svg>