<?xml version="1.0" standalone="no"?>
<!DOCTYPE svg PUBLIC "-//W3C//DTD SVG 20010904//EN"
 "http://www.w3.org/TR/2001/REC-SVG-20010904/DTD/svg10.dtd">
<svg version="1.0" xmlns="http://www.w3.org/2000/svg"
 width="96.000000pt" height="68.000000pt" viewBox="0 0 96.000000 68.000000"
 preserveAspectRatio="xMidYMid meet">
<metadata>
Created by potrace 1.16, written by Peter Selinger 2001-2019
Combined from part_0.svg through part_5.svg with named groups
</metadata>
<g transform="translate(0.000000,68.000000) scale(0.100000,-0.100000)" fill="#000000" stroke="none">
<g id="part-0" class="char-part">
  <path d="M400 634 c0 -12 34 -64 42 -64 4 0 8 -5 8 -11 0 -7 -35 -10 -110 -8
l-111 4 -25 -43 c-14 -24 -23 -50 -20 -58 9 -24 49 -12 64 19 15 31 19 33 80
40 57 7 56 -14 -4 -70 -56 -51 -43 -56 29 -10 59 38 79 59 75 78 -2 10 10 15
40 17 42 3 42 3 42 -32 0 -57 37 -80 121 -74 31 2 44 7 44 18 0 12 -11 14 -56
12 -65 -4 -85 10 -70 51 5 14 8 27 5 30 -3 2 23 7 57 11 33 4 63 5 65 3 2 -2
-5 -16 -17 -31 -12 -15 -19 -29 -17 -32 3 -2 31 2 64 9 71 16 83 41 34 71 -32
18 -78 18 -202 0 -34 -5 -38 -3 -38 15 0 11 -10 27 -22 35 -26 16 -78 29 -78
20z"/>
  <path d="M505 390 c-22 -4 -80 -11 -130 -15 -49 -5 -84 -10 -77 -12 19 -7 14
-52 -8 -80 -38 -49 -23 -63 50 -44 71 18 120 22 120 9 -1 -19 -79 -73 -180
-125 -50 -26 -89 -48 -87 -49 6 -7 104 24 147 46 25 12 71 40 103 62 l59 39
-4 -63 -3 -63 -39 2 -40 3 30 -31 c42 -45 60 -52 78 -33 13 12 16 38 16 120
l0 104 90 0 c89 0 104 6 75 30 -11 9 -36 10 -91 5 l-75 -7 3 39 c3 36 5 38 41
43 21 3 39 10 40 15 3 13 -66 16 -118 5z m-15 -69 l0 -38 -82 -11 c-46 -6 -84
-9 -86 -7 -2 1 6 20 17 41 19 35 26 40 69 45 87 11 82 13 82 -30z"/>
</g>
<g id="part-1" class="char-part">
  <path d="M410 623 c0 -3 11 -21 25 -38 l24 -32 -101 -8 c-78 -5 -103 -4 -109
6 -9 15 -8 16 -37 -34 -42 -73 -12 -110 33 -41 19 30 24 32 145 49 161 22 290
30 290 19 0 -5 -7 -18 -15 -28 -24 -32 -18 -35 43 -17 65 20 72 36 26 63 -27
16 -40 17 -100 8 -101 -14 -145 -13 -138 4 6 16 -41 56 -67 56 -11 0 -19 -3
-19 -7z"/>
</g>
<g id="part-2" class="char-part">
  <path d="M510 494 c0 -42 2 -46 35 -60 52 -21 135 -17 135 7 0 5 -24 9 -53 9
-68 0 -92 16 -78 52 11 29 6 38 -21 38 -15 0 -18 -8 -18 -46z"/>
  <path d="M370 504 c0 -8 -23 -38 -51 -65 -28 -27 -46 -49 -41 -49 13 0 125 74
140 93 18 21 7 37 -24 37 -15 0 -24 -6 -24 -16z"/>
</g>
<g id="part-3" class="char-part">
  <path d="M415 380 c-106 -13 -124 -18 -100 -25 29 -8 288 10 307 21 18 11 -5
24 -40 23 -20 -1 -95 -9 -167 -19z"/>
</g>
<g id="part-4" class="char-part">
  <path d="M310 329 c0 -12 -12 -35 -26 -51 -35 -43 -20 -55 48 -39 29 8 128 16
221 18 128 4 167 9 167 19 0 7 -9 15 -20 19 -20 6 -190 -7 -310 -25 -35 -5
-66 -7 -68 -5 -2 2 5 19 17 38 27 44 26 47 -4 47 -19 0 -25 -5 -25 -21z"/>
</g>
<g id="part-5" class="char-part">
  <path d="M445 217 c-21 -20 -43 -33 -49 -30 -6 3 -8 3 -4 -1 6 -7 -38 -35
-142 -87 -19 -10 -32 -18 -28 -19 10 0 92 32 98 39 3 3 12 7 20 9 46 10 155
92 148 112 -3 9 -16 2 -43 -23z"/>
</g>
</g>
</svg>