<?xml version="1.0" standalone="no"?>
<!DOCTYPE svg PUBLIC "-//W3C//DTD SVG 20010904//EN"
 "http://www.w3.org/TR/2001/REC-SVG-20010904/DTD/svg10.dtd">
<svg version="1.0" xmlns="http://www.w3.org/2000/svg"
 width="96.000000pt" height="68.000000pt" viewBox="0 0 96.000000 68.000000"
 preserveAspectRatio="xMidYMid meet">
<metadata>
Created by potrace 1.16, written by Peter Selinger 2001-2019
Combined from part_0.svg through part_5.svg with named groups
</metadata>
<g transform="translate(0.000000,68.000000) scale(0.100000,-0.100000)" fill="#000000" stroke="none">
<g id="part-0" class="char-part">
  <path d="M595 549 c-16 -11 -55 -27 -85 -35 -71 -21 -80 -30 -25 -26 33 3 45
0 45 -9 0 -8 3 -24 6 -35 5 -20 1 -22 -90 -29 -53 -4 -96 -10 -96 -15 0 -13
61 -18 125 -10 33 4 63 5 68 3 4 -2 7 -51 7 -107 0 -117 1 -116 -87 -116 -23
0 -45 -4 -48 -10 -4 -6 20 -10 64 -10 l71 0 0 -34 0 -33 -91 -8 c-94 -7 -113
-25 -28 -27 86 -1 369 15 369 22 0 4 -11 12 -24 19 -17 10 -46 11 -105 6 l-81
-7 0 35 0 35 76 7 c58 5 73 10 65 18 -7 7 -38 11 -77 9 l-64 -2 0 87 c0 133 0
133 75 133 34 0 83 3 109 6 39 6 44 9 34 21 -10 12 -27 14 -83 8 -38 -3 -80
-9 -92 -12 -19 -4 -23 -1 -23 21 0 19 -6 27 -25 32 -37 9 -31 21 14 28 22 3
52 11 68 17 27 10 27 11 9 25 -26 18 -44 17 -81 -7z"/>
  <path d="M240 435 c-19 -8 -58 -14 -87 -14 l-52 -1 15 -27 c7 -16 19 -54 25
-86 11 -56 33 -83 48 -59 3 5 31 13 62 17 l56 7 0 39 c0 21 8 50 17 63 17 27
21 52 9 59 -23 13 -62 13 -93 2z m15 -82 c-4 -27 -8 -48 -8 -49 -1 -1 -14 -4
-29 -8 -25 -6 -28 -3 -37 31 -18 64 -14 69 53 72 28 1 28 1 21 -46z"/>
  <path d="M699 368 c-2 -43 -4 -49 -19 -58 -8 -5 -27 -10 -42 -10 -16 0 -28 -4
-28 -10 0 -5 18 -10 40 -10 39 0 39 0 33 -32 -7 -38 9 -32 32 12 13 25 23 30
65 36 72 10 64 32 -9 25 -19 -2 -23 2 -19 17 7 25 -1 37 -29 46 -19 6 -23 3
-24 -16z"/>
  <path d="M405 336 c3 -12 9 -28 11 -37 5 -13 -4 -18 -42 -24 -40 -6 -45 -9
-30 -17 10 -5 34 -8 53 -6 32 4 37 1 47 -24 15 -39 30 -35 23 7 -5 30 -3 35
13 35 10 0 22 5 25 10 3 6 -1 10 -9 10 -28 0 -31 3 -41 33 -7 21 -17 31 -33
32 -19 1 -22 -2 -17 -19z"/>
</g>
<g id="part-1" class="char-part">
  <path d="M210 424 c-26 -9 -59 -12 -80 -8 -33 6 -34 5 -18 -13 9 -10 24 -51
33 -91 16 -67 28 -88 37 -60 2 6 31 13 65 16 53 4 60 7 56 23 -3 10 3 44 13
74 15 49 15 58 3 66 -19 12 -56 10 -109 -7z m50 -62 c0 -55 -12 -72 -51 -72
-25 0 -28 4 -34 43 -4 23 -7 46 -8 52 -1 5 12 13 28 16 64 14 65 13 65 -39z"/>
</g>
<g id="part-2" class="char-part">
  <path d="M570 539 c-30 -16 -73 -32 -95 -38 l-40 -9 45 -1 c39 -1 178 30 202
45 15 9 -13 34 -36 33 -11 -1 -46 -15 -76 -30z"/>
</g>
<g id="part-3" class="char-part">
  <path d="M535 490 c-4 -6 -5 -23 -3 -38 l3 -27 -92 -9 c-51 -5 -93 -12 -93
-16 0 -14 55 -19 120 -11 36 5 68 6 73 4 4 -2 7 -71 7 -154 0 -142 1 -149 20
-149 19 0 20 7 20 138 0 190 -3 182 84 182 39 0 88 3 109 6 31 6 35 9 25 21
-10 12 -27 14 -88 8 -41 -3 -83 -9 -92 -11 -14 -4 -18 1 -18 19 0 19 -8 28
-31 36 -39 13 -36 13 -44 1z"/>
</g>
<g id="part-4" class="char-part">
  <path d="M660 93 c-19 -1 -93 -8 -163 -14 -82 -8 -125 -15 -119 -21 12 -12 46
-13 255 -3 92 5 167 12 167 17 0 5 -12 13 -26 18 -25 10 -42 10 -114 3z"/>
</g>
</g>
</svg>