<?xml version="1.0" standalone="no"?>
<!DOCTYPE svg PUBLIC "-//W3C//DTD SVG 20010904//EN"
 "http://www.w3.org/TR/2001/REC-SVG-20010904/DTD/svg10.dtd">
<svg version="1.0" xmlns="http://www.w3.org/2000/svg"
 width="96.000000pt" height="68.000000pt" viewBox="0 0 96.000000 68.000000"
 preserveAspectRatio="xMidYMid meet">
<metadata>
Created by potrace 1.16, written by Peter Selinger 2001-2019
Combined from part_0.svg through part_5.svg with named groups
</metadata>
<g transform="translate(0.000000,68.000000) scale(0.100000,-0.100000)" fill="#000000" stroke="none">
<g id="part-0" class="char-part">
  <path d="M570 590 c-25 -5 -85 -14 -133 -20 -99 -14 -108 -25 -16 -22 59 3 60
2 54 -20 -10 -31 -10 -31 -51 -32 -30 -1 -34 -4 -29 -21 4 -11 9 -55 12 -98 4
-58 9 -77 19 -73 7 3 51 8 98 12 64 5 90 3 101 -6 29 -24 43 7 46 103 3 77 1
90 -15 99 -17 10 -71 6 -150 -9 l-31 -6 35 33 c32 30 41 33 117 38 80 5 101
13 67 26 -20 8 -66 6 -124 -4z m40 -94 c0 -2 2 -11 6 -19 4 -11 -8 -16 -53
-20 -32 -4 -75 -10 -95 -13 -32 -6 -36 -4 -34 12 2 15 17 21 72 30 80 13 104
16 104 10z m10 -75 c0 -15 -11 -19 -62 -25 -35 -3 -75 -9 -90 -12 -23 -5 -28
-3 -28 14 0 17 10 22 63 30 101 15 117 15 117 -7z m0 -61 c0 -17 -6 -20 -37
-19 -21 1 -62 -1 -90 -6 -49 -6 -53 -5 -53 14 0 18 7 20 63 24 34 2 74 4 90 5
21 2 27 -2 27 -18z"/>
  <path d="M260 450 c-14 -4 -53 -8 -88 -9 l-64 -1 20 -32 c11 -18 23 -51 27
-73 4 -22 9 -48 12 -57 5 -19 29 -25 35 -8 2 5 31 13 66 16 58 6 63 9 58 28
-3 11 4 40 14 64 11 25 20 50 20 57 0 24 -49 31 -100 15z m20 -67 c0 -48 -8
-58 -47 -66 -31 -6 -33 -5 -40 31 -11 55 -11 56 22 63 61 13 65 12 65 -28z"/>
  <path d="M705 350 c-7 -12 54 -60 76 -60 24 0 25 22 2 42 -21 18 -71 29 -78
18z"/>
  <path d="M450 287 c0 -8 7 -20 15 -27 27 -22 16 -28 -65 -35 -44 -4 -82 -11
-85 -15 -10 -16 51 -20 113 -6 l64 13 33 -46 c33 -45 33 -45 12 -60 -11 -8
-55 -30 -96 -48 -64 -28 -70 -33 -36 -27 22 3 67 17 101 30 73 29 79 29 112 5
47 -33 115 -61 146 -61 52 0 57 9 38 67 -19 58 -32 76 -32 46 0 -12 -8 -31
-19 -44 -18 -23 -18 -23 -64 -5 -71 27 -76 40 -27 71 23 14 40 31 37 38 -7 23
-39 19 -67 -8 -16 -15 -35 -25 -43 -22 -11 4 -47 59 -47 72 0 2 45 6 100 10
55 4 100 11 100 16 0 14 -51 31 -69 24 -9 -4 -43 -11 -76 -16 -53 -7 -62 -6
-75 11 -20 25 -70 38 -70 17z"/>
</g>
<g id="part-1" class="char-part">
  <path d="M255 444 c-28 -8 -69 -12 -92 -10 -24 3 -43 4 -43 1 0 -2 9 -19 20
-37 11 -18 20 -45 20 -60 0 -15 5 -39 11 -55 10 -26 12 -27 23 -10 9 11 27 17
52 17 65 0 82 8 76 36 -2 13 5 42 17 65 31 60 3 77 -84 53z m31 -46 c-3 -13
-6 -35 -6 -50 0 -23 -5 -28 -36 -34 -43 -8 -50 -1 -59 53 -7 46 -3 50 69 52
35 1 38 -1 32 -21z"/>
</g>
<g id="part-2" class="char-part">
  <path d="M490 579 c-69 -10 -132 -19 -140 -19 -10 -1 -9 -4 5 -10 11 -5 44 -6
73 -3 55 6 58 4 41 -29 -6 -11 -7 -19 -2 -16 47 22 63 33 63 43 0 13 65 25
136 25 44 0 58 12 28 24 -23 9 -66 6 -204 -15z"/>
</g>
<g id="part-3" class="char-part">
  <path d="M618 350 c-2 -6 -48 -11 -105 -12 -95 -1 -103 -3 -103 -21 0 -15 5
-18 23 -13 55 15 177 19 192 6 12 -10 18 -10 30 0 24 20 19 50 -9 50 -13 0
-26 -4 -28 -10z"/>
</g>
<g id="part-4" class="char-part">
  <path d="M710 341 c0 -13 49 -51 66 -51 25 0 27 23 4 42 -23 19 -70 25 -70 9z"/>
  <path d="M455 290 c-3 -6 1 -17 9 -26 24 -23 13 -31 -54 -38 -34 -4 -71 -11
-83 -15 -44 -16 29 -21 100 -7 37 8 68 14 69 13 0 -1 14 -23 31 -48 l31 -47
-50 -27 c-27 -15 -73 -36 -101 -46 l-52 -20 43 6 c41 5 75 16 150 46 28 12 36
11 60 -4 76 -50 191 -83 205 -60 4 6 -2 33 -12 62 -19 56 -31 74 -31 48 0 -32
-23 -67 -44 -67 -24 0 -98 40 -103 55 -1 6 14 19 35 30 20 11 37 27 37 35 0
26 -36 23 -65 -5 -17 -16 -35 -25 -44 -22 -15 6 -51 65 -44 73 2 2 48 6 101
10 53 4 97 11 97 16 0 21 -49 26 -121 12 -93 -18 -99 -17 -99 1 0 9 -12 20
-26 25 -31 12 -31 12 -39 0z"/>
</g>
</g>
</svg>