<?xml version="1.0" standalone="no"?>
<!DOCTYPE svg PUBLIC "-//W3C//DTD SVG 20010904//EN"
 "http://www.w3.org/TR/2001/REC-SVG-20010904/DTD/svg10.dtd">
<svg version="1.0" xmlns="http://www.w3.org/2000/svg"
 width="96.000000pt" height="68.000000pt" viewBox="0 0 96.000000 68.000000"
 preserveAspectRatio="xMidYMid meet">
<metadata>
Created by potrace 1.16, written by Peter Selinger 2001-2019
Combined from part_0.svg through part_5.svg with named groups
</metadata>
<g transform="translate(0.000000,68.000000) scale(0.100000,-0.100000)" fill="#000000" stroke="none">
<g id="part-0" class="char-part">
  <path d="M364 573 c-3 -10 -14 -37 -25 -60 -10 -24 -16 -43 -13 -43 4 0 28 16
55 35 50 37 54 56 18 75 -24 14 -29 13 -35 -7z"/>
  <path d="M598 551 c-112 -15 -116 -17 -102 -35 8 -11 14 -28 14 -38 0 -10 9
-27 20 -38 l21 -21 -21 -29 c-11 -16 -32 -38 -45 -48 -35 -28 -17 -36 19 -9
25 18 54 26 140 35 142 15 140 17 132 -108 -9 -135 -15 -168 -33 -174 -9 -4
-22 -1 -30 5 -24 21 -23 4 2 -34 29 -42 45 -40 76 10 15 24 24 61 29 117 5 44
11 106 15 138 7 52 5 57 -17 72 -22 15 -34 15 -124 1 -125 -19 -135 -19 -110
0 10 7 15 18 12 24 -10 16 8 21 90 25 l78 5 34 46 c57 80 27 88 -200 56z m162
-32 c-11 -38 -8 -34 -44 -43 -26 -6 -28 -5 -22 16 3 13 6 31 6 41 0 13 8 17
34 17 34 0 34 -1 26 -31z m-90 -14 c0 -23 -6 -38 -15 -42 -20 -7 -22 -5 -30
40 -7 35 -6 37 19 37 23 0 26 -4 26 -35z m-78 1 c14 -33 5 -54 -23 -52 -16 1
-25 9 -30 30 -5 16 -6 33 -3 38 11 17 45 7 56 -16z"/>
  <path d="M180 545 c0 -19 53 -75 71 -75 28 0 35 28 13 51 -20 19 -84 38 -84
24z"/>
  <path d="M357 459 c-15 -4 -65 -10 -112 -14 -57 -5 -85 -11 -82 -19 3 -7 35
-11 96 -10 119 2 181 12 181 28 0 17 -47 25 -83 15z"/>
  <path d="M187 339 c-27 -27 -44 -49 -38 -49 6 0 37 17 69 38 47 30 56 40 46
50 -19 17 -24 15 -77 -39z"/>
  <path d="M365 360 c33 -34 55 -39 55 -12 0 19 -37 42 -67 42 -13 0 -10 -7 12
-30z"/>
  <path d="M567 316 c5 -26 -15 -36 -76 -36 -32 0 -33 -1 -18 -18 8 -9 20 -29
25 -43 9 -22 15 -25 41 -21 28 4 31 2 31 -21 0 -19 -6 -26 -31 -31 -17 -3 -42
-6 -55 -6 -32 0 -30 -18 2 -26 17 -4 58 2 107 16 73 21 80 22 89 7 12 -23 38
-22 38 1 0 22 -40 62 -62 62 -9 0 -15 -8 -14 -17 0 -12 -7 -19 -22 -21 -18 -3
-21 1 -19 20 3 19 11 24 45 26 27 2 42 8 42 17 0 7 7 21 16 30 25 24 1 45 -52
45 -37 0 -44 3 -44 20 0 14 -7 20 -24 20 -19 0 -22 -4 -19 -24z m97 -51 c4
-11 -3 -19 -20 -25 -34 -13 -34 -13 -34 15 0 20 5 25 24 25 13 0 27 -7 30 -15z
m-94 -20 c0 -20 -5 -25 -24 -25 -27 0 -44 29 -24 42 26 16 48 9 48 -17z"/>
  <path d="M285 274 c-44 -7 -95 -13 -114 -13 -28 -1 -32 -4 -26 -18 15 -37 33
-113 27 -114 -4 -1 -19 0 -34 1 -32 2 -43 -13 -23 -30 18 -15 34 -12 207 36
133 38 167 54 112 54 -21 0 -25 4 -19 18 19 49 17 69 -7 75 -12 4 -27 6 -33 5
-5 0 -46 -7 -90 -14z m94 -50 c-3 -46 -18 -64 -53 -64 -15 0 -15 3 -1 36 8 20
15 45 15 55 0 12 7 19 20 19 18 0 21 -6 19 -46z m-74 -16 c-8 -61 -9 -62 -30
-55 -11 5 -15 21 -15 57 0 47 1 50 26 50 25 0 26 -1 19 -52z m-75 35 c1 -5 5
-27 9 -51 7 -37 6 -44 -10 -53 -16 -8 -21 -5 -30 18 -12 33 -18 75 -12 86 2 4
13 7 24 7 10 0 19 -3 19 -7z"/>
</g>
<g id="part-1" class="char-part">
  <path d="M353 530 c-12 -27 -18 -50 -15 -50 4 1 25 16 46 35 34 29 38 35 27
49 -22 27 -36 18 -58 -34z"/>
  <path d="M190 531 c0 -13 51 -61 66 -61 20 0 17 40 -3 56 -20 15 -63 19 -63 5z"/>
  <path d="M305 448 c-27 -4 -72 -10 -100 -14 -39 -5 -46 -8 -32 -16 12 -6 56
-6 130 2 121 13 160 24 117 34 -26 6 -35 6 -115 -6z"/>
</g>
<g id="part-2" class="char-part">
  <path d="M316 262 c-3 -5 -8 -32 -12 -60 -10 -78 -44 -67 -44 14 0 24 -5 34
-15 34 -12 0 -14 -9 -9 -42 3 -24 7 -48 9 -54 4 -14 -40 -24 -101 -24 -23 0
-45 -4 -49 -9 -9 -15 34 -34 64 -28 71 14 301 81 301 88 0 12 -17 11 -80 -6
-30 -8 -58 -15 -62 -15 -4 0 2 21 12 46 19 44 19 64 0 64 -5 0 -11 -4 -14 -8z"/>
</g>
<g id="part-3" class="char-part">
  <path d="M620 554 c-47 -8 -97 -13 -113 -11 -15 2 -26 1 -24 -2 6 -11 29 -66
38 -90 9 -22 13 -23 67 -16 31 4 84 9 117 10 58 3 61 5 92 47 17 24 32 48 32
54 2 28 -72 30 -209 8z m140 -26 c0 -36 -11 -44 -75 -56 -137 -26 -132 -26
-144 9 -6 18 -9 35 -5 38 6 7 142 28 192 30 27 1 32 -2 32 -21z"/>
</g>
<g id="part-4" class="char-part">
  <path d="M670 505 c0 -19 2 -35 5 -35 9 0 34 57 28 64 -17 17 -33 4 -33 -29z"/>
</g>
<g id="part-5" class="char-part">
  <path d="M667 171 c12 -10 20 -21 17 -23 -2 -3 3 -11 13 -19 9 -8 14 -9 10 -2
-4 6 -1 14 5 16 10 4 10 6 0 6 -7 1 -10 6 -7 11 6 9 -8 14 -27 11 -5 0 -8 4
-8 9 0 6 -6 10 -12 10 -7 -1 -3 -9 9 -19z"/>
</g>
</g>
</svg>