<?xml version="1.0" standalone="no"?>
<!DOCTYPE svg PUBLIC "-//W3C//DTD SVG 20010904//EN"
 "http://www.w3.org/TR/2001/REC-SVG-20010904/DTD/svg10.dtd">
<svg version="1.0" xmlns="http://www.w3.org/2000/svg"
 width="96.000000pt" height="68.000000pt" viewBox="0 0 96.000000 68.000000"
 preserveAspectRatio="xMidYMid meet">
<metadata>
Created by potrace 1.16, written by Peter Selinger 2001-2019
Combined from part_0.svg through part_5.svg with named groups
</metadata>
<g transform="translate(0.000000,68.000000) scale(0.100000,-0.100000)" fill="#000000" stroke="none">
<g id="part-0" class="char-part">
  <path d="M276 583 c4 -10 9 -39 12 -65 4 -45 3 -47 -25 -54 -86 -19 -90 -22
-30 -23 49 -1 57 -4 57 -20 0 -14 -10 -20 -41 -24 -22 -3 -44 -8 -47 -12 -12
-12 23 -26 55 -21 22 3 33 0 37 -11 10 -24 7 -33 -11 -33 -9 0 -45 -5 -80 -11
-80 -14 -74 -34 8 -26 33 3 59 2 59 -2 0 -17 -72 -99 -115 -131 -26 -19 -42
-36 -36 -38 18 -6 74 27 120 69 24 22 46 38 49 35 3 -3 0 -37 -7 -75 -8 -53
-8 -76 1 -96 13 -29 21 -31 37 -11 8 10 11 48 9 115 -2 56 -1 101 2 101 3 0
17 -13 32 -30 29 -33 43 -37 52 -15 6 16 -45 55 -71 55 -19 0 -16 37 3 44 9 3
29 6 45 6 16 0 29 5 29 10 0 6 -21 10 -46 10 -38 0 -45 3 -40 16 3 9 6 19 6
24 0 4 18 10 40 14 22 3 40 10 40 15 0 12 -56 24 -71 16 -7 -5 -10 1 -7 16 2
18 13 26 45 34 52 12 60 20 43 41 -13 15 -35 15 -71 0 -12 -5 -14 0 -11 30 5
42 -14 64 -56 64 -19 0 -23 -3 -16 -17z"/>
  <path d="M550 560 c-52 -10 -89 -18 -83 -19 32 -3 22 -133 -16 -212 -12 -23
-18 -45 -15 -48 9 -9 43 41 61 92 26 70 43 61 43 -23 0 -50 4 -70 13 -70 19 1
95 70 76 70 -8 0 -20 -5 -26 -11 -19 -19 -30 -1 -29 43 l2 43 76 10 c42 6 80
14 85 19 8 9 -166 0 -200 -10 -15 -5 -18 -1 -15 16 2 18 11 23 47 25 87 7 141
17 141 27 0 7 -17 8 -45 4 -25 -3 -65 -9 -90 -12 -41 -6 -45 -5 -45 14 0 18 8
21 68 27 110 10 142 16 136 26 -8 13 -76 9 -184 -11z"/>
  <path d="M728 413 c-25 -25 -31 -26 -59 -16 -25 10 -29 10 -19 -2 16 -19 129
-85 146 -85 32 0 8 35 -34 50 -50 17 -53 27 -9 38 17 4 32 15 32 22 0 25 -29
21 -57 -7z"/>
  <path d="M663 291 c7 -36 4 -37 -115 -47 -55 -4 -85 -10 -82 -16 4 -7 43 -8
105 -3 l99 7 0 -50 c0 -27 -3 -64 -6 -82 -7 -30 -9 -32 -42 -26 l-35 5 24 -25
c38 -41 58 -48 79 -29 16 14 20 35 22 114 l3 96 65 5 c60 5 63 6 41 18 -13 8
-42 12 -67 10 -42 -3 -44 -2 -44 24 0 24 -4 28 -26 28 -24 0 -26 -3 -21 -29z"/>
  <path d="M510 182 c0 -17 51 -61 66 -55 17 6 18 27 1 41 -18 15 -67 26 -67 14z"/>
</g>
<g id="part-1" class="char-part">
  <path d="M285 563 c4 -21 9 -50 11 -65 5 -25 2 -28 -38 -38 -66 -17 -67 -18
-10 -19 45 -1 52 -4 52 -20 0 -16 -9 -21 -45 -27 -58 -8 -58 -24 -1 -24 26 0
46 -5 50 -12 3 -10 8 -9 18 4 8 9 31 19 51 23 47 9 48 25 2 25 -31 0 -35 3
-35 25 0 21 6 26 39 31 52 8 71 21 51 34 -20 13 -57 13 -65 0 -15 -24 -24 -7
-19 33 6 39 4 44 -20 55 -42 19 -47 15 -41 -25z"/>
</g>
<g id="part-2" class="char-part">
  <path d="M305 343 c-14 -15 -42 -24 -95 -32 -41 -7 -76 -14 -78 -16 -10 -9 53
-17 94 -11 30 4 44 2 44 -6 0 -6 -38 -49 -85 -95 -47 -46 -84 -83 -82 -83 24
0 90 41 135 83 l54 52 -8 -65 c-11 -88 -10 -128 5 -143 10 -9 15 -8 27 7 10
14 14 49 14 120 l0 101 26 -32 c26 -33 48 -42 59 -23 9 15 -15 41 -52 57 -57
23 -38 53 33 53 19 0 34 4 34 9 0 13 -46 22 -74 15 -18 -4 -25 -1 -28 12 -3
17 -5 17 -23 -3z"/>
</g>
<g id="part-3" class="char-part">
  <path d="M620 574 c-36 -7 -86 -15 -113 -19 -42 -6 -46 -8 -32 -21 8 -9 15
-23 15 -33 0 -44 -24 -140 -47 -186 l-25 -50 31 29 c35 34 59 90 75 179 l11
62 65 8 c36 4 85 10 109 13 24 3 39 9 35 14 -18 15 -60 17 -124 4z"/>
</g>
<g id="part-4" class="char-part">
  <path d="M730 415 c-26 -28 -22 -30 35 -14 37 10 38 12 20 25 -25 19 -28 18
-55 -11z"/>
  <path d="M538 360 c-4 -83 2 -90 52 -55 46 32 64 53 34 41 -54 -23 -56 -22
-52 25 2 34 0 44 -14 47 -13 3 -17 -7 -20 -58z"/>
  <path d="M708 356 c78 -48 102 -56 102 -31 0 16 -85 58 -141 70 -28 6 -21 -1
39 -39z"/>
</g>
<g id="part-5" class="char-part">
  <path d="M527 164 c3 -8 12 -13 20 -10 8 3 11 1 8 -4 -3 -6 1 -10 9 -10 25 0
19 20 -10 30 -33 13 -34 13 -27 -6z"/>
</g>
</g>
</svg>