<?xml version="1.0" standalone="no"?>
<!DOCTYPE svg PUBLIC "-//W3C//DTD SVG 20010904//EN"
 "http://www.w3.org/TR/2001/REC-SVG-20010904/DTD/svg10.dtd">
<svg version="1.0" xmlns="http://www.w3.org/2000/svg"
 width="96.000000pt" height="68.000000pt" viewBox="0 0 96.000000 68.000000"
 preserveAspectRatio="xMidYMid meet">
<metadata>
Created by potrace 1.16, written by Peter Selinger 2001-2019
Combined from part_0.svg through part_5.svg with named groups
</metadata>
<g transform="translate(0.000000,68.000000) scale(0.100000,-0.100000)" fill="#000000" stroke="none">
<g id="part-0" class="char-part">
  <path d="M415 588 c-22 -5 -64 -7 -93 -4 l-54 6 6 -52 c4 -29 9 -70 12 -90 6
-37 5 -38 -24 -38 -54 0 -122 -13 -122 -23 0 -6 29 -8 79 -4 85 5 97 -4 45
-38 -25 -16 -33 -45 -11 -44 6 0 53 11 102 24 79 20 93 21 112 9 29 -18 33
-18 33 6 0 26 -47 50 -59 31 -9 -13 -74 -30 -120 -31 l-25 0 22 20 c12 12 22
25 22 29 0 5 26 12 58 15 94 11 122 18 122 28 0 11 -130 1 -165 -12 -16 -6
-21 -4 -22 10 -2 19 1 20 120 36 26 3 47 11 47 17 0 6 -29 8 -85 3 -101 -7
-116 9 -17 18 82 9 102 14 102 28 0 11 -91 6 -145 -8 -18 -4 -25 -2 -25 9 0
11 22 17 90 24 95 11 114 18 90 33 -18 12 -42 11 -95 -2z"/>
  <path d="M683 576 c-30 -30 -43 -39 -87 -59 -62 -29 -35 -29 35 -1 109 44 144
65 128 75 -23 14 -52 8 -76 -15z"/>
  <path d="M709 503 c-8 -9 -45 -32 -84 -51 -84 -41 -44 -35 72 11 46 17 83 38
83 45 0 18 -55 15 -71 -5z"/>
  <path d="M723 424 c-12 -9 -48 -27 -80 -40 -73 -30 -38 -32 56 -4 78 24 96 34
87 49 -10 15 -37 13 -63 -5z"/>
  <path d="M548 353 c6 -2 18 -2 25 0 6 3 1 5 -13 5 -14 0 -19 -2 -12 -5z"/>
  <path d="M688 335 c-3 -3 -38 -7 -79 -10 l-74 -4 3 -43 c2 -24 -5 -85 -14
-136 -14 -74 -15 -95 -5 -105 16 -16 40 15 42 55 1 15 2 34 3 40 1 15 43 25
109 27 46 1 47 0 47 -28 0 -52 -9 -62 -46 -55 -19 3 -34 4 -34 2 0 -14 81 -67
94 -62 26 10 38 77 30 168 -4 53 -3 90 4 103 9 16 8 24 -7 37 -17 15 -62 22
-73 11z m32 -50 c0 -14 -3 -25 -7 -26 -16 -1 -99 -10 -113 -12 -16 -2 -20 3
-20 32 0 22 18 28 93 30 44 1 47 -1 47 -24z m0 -69 c0 -21 -7 -25 -66 -36 -70
-13 -89 -7 -82 26 2 15 15 20 63 25 33 3 66 6 73 7 6 1 12 -9 12 -22z"/>
  <path d="M338 283 c-2 -18 -9 -27 -23 -29 -11 -1 -53 -5 -92 -9 -69 -7 -91
-19 -59 -31 8 -3 48 1 90 9 42 7 76 10 76 6 0 -4 -5 -20 -10 -35 -10 -24 -14
-26 -51 -21 -34 4 -39 3 -35 -10 4 -9 11 -35 17 -59 11 -41 26 -54 43 -36 8 7
18 9 86 11 23 0 40 6 40 13 0 6 12 26 26 45 14 19 23 37 20 40 -3 3 -28 8 -56
11 -27 2 -50 7 -50 11 0 4 7 17 16 29 12 18 25 22 65 22 27 0 49 5 49 10 0 6
-23 10 -51 10 -27 0 -48 4 -45 9 3 4 -6 13 -20 20 -33 15 -32 15 -36 -16z m62
-144 c-12 -40 -10 -38 -49 -43 -52 -6 -68 2 -67 32 1 28 23 38 93 41 31 1 31
0 23 -30z"/>
</g>
<g id="part-1" class="char-part">
  <path d="M410 584 c-48 -9 -74 -10 -98 -2 -18 5 -35 8 -37 6 -1 -1 2 -40 8
-85 9 -69 14 -83 29 -83 11 0 18 7 18 19 0 16 11 19 80 25 45 4 80 12 80 18 0
10 -80 5 -137 -9 -18 -4 -23 -1 -23 16 0 19 6 21 58 22 31 1 68 4 82 9 43 13
-1 22 -51 11 -69 -16 -101 -14 -97 7 3 14 19 18 92 24 48 3 91 9 94 13 6 6
-17 26 -28 24 -3 -1 -34 -7 -70 -15z"/>
</g>
<g id="part-2" class="char-part">
  <path d="M690 409 c-31 -17 -78 -36 -105 -44 l-50 -15 55 6 c80 9 195 47 195
64 0 25 -37 20 -95 -11z"/>
</g>
<g id="part-3" class="char-part">
  <path d="M340 286 c0 -28 -11 -31 -118 -42 -40 -3 -75 -10 -78 -15 -9 -16 43
-21 102 -10 82 16 85 15 78 -14 -5 -20 -3 -25 14 -25 13 0 22 9 26 25 7 29 40
45 91 45 19 0 37 5 40 10 4 6 -12 10 -40 10 -32 0 -55 7 -72 20 -33 26 -43 25
-43 -4z"/>
</g>
<g id="part-4" class="char-part">
  <path d="M335 179 c-27 -5 -63 -7 -79 -4 -24 4 -27 2 -21 -13 4 -9 11 -33 17
-52 17 -65 16 -64 34 -49 17 14 20 15 97 17 31 1 46 6 42 12 -4 6 6 27 20 47
22 28 25 37 14 44 -17 10 -57 10 -124 -2z m75 -13 c0 -24 -26 -66 -41 -67 -84
-4 -83 -4 -86 29 -4 29 -2 31 34 35 60 6 93 7 93 3z"/>
</g>
<g id="part-5" class="char-part">
  <path d="M655 320 c-5 -8 5 -10 33 -7 40 5 40 5 35 -26 -3 -18 -10 -35 -15
-38 -6 -4 -1 -10 11 -14 11 -3 21 -11 21 -16 0 -6 -5 -7 -11 -3 -8 4 -9 0 -4
-15 4 -13 2 -21 -5 -21 -7 0 -8 -6 -2 -17 5 -10 7 -24 4 -32 -3 -8 0 -11 6 -7
6 3 14 1 18 -5 4 -7 3 -9 -4 -5 -13 8 -21 -5 -24 -38 -2 -23 -18 -39 -18 -18
0 4 -9 8 -21 8 -19 0 -18 -2 7 -23 16 -13 34 -23 41 -23 22 0 33 65 30 185
l-2 120 -47 3 c-26 2 -49 -2 -53 -8z"/>
  <path d="M544 308 c-3 -4 -4 -24 -3 -45 1 -21 -2 -63 -6 -93 -5 -30 -8 -59 -7
-63 1 -4 -2 -16 -8 -27 -7 -13 -7 -21 0 -25 6 -4 8 -11 5 -16 -4 -5 -2 -9 3
-9 22 0 34 71 41 252 1 9 13 21 29 26 26 10 25 11 -11 9 -22 -1 -41 -5 -43 -9z"/>
  <path d="M610 240 c-13 -8 -12 -10 3 -10 9 0 17 5 17 10 0 12 -1 12 -20 0z"/>
  <path d="M650 240 c0 -5 5 -10 10 -10 6 0 10 5 10 10 0 6 -4 10 -10 10 -5 0
-10 -4 -10 -10z"/>
  <path d="M665 170 c-19 -8 -19 -9 3 -9 12 -1 22 4 22 9 0 6 -1 10 -2 9 -2 0
-12 -4 -23 -9z"/>
</g>
</g>
</svg>