<?xml version="1.0" standalone="no"?>
<!DOCTYPE svg PUBLIC "-//W3C//DTD SVG 20010904//EN"
 "http://www.w3.org/TR/2001/REC-SVG-20010904/DTD/svg10.dtd">
<svg version="1.0" xmlns="http://www.w3.org/2000/svg"
 width="96.000000pt" height="68.000000pt" viewBox="0 0 96.000000 68.000000"
 preserveAspectRatio="xMidYMid meet">
<metadata>
Created by potrace 1.16, written by Peter Selinger 2001-2019
Combined from part_0.svg through part_5.svg with named groups
</metadata>
<g transform="translate(0.000000,68.000000) scale(0.100000,-0.100000)" fill="#000000" stroke="none">
<g id="part-0" class="char-part">
  <path d="M318 604 c-3 -3 -4 -22 -1 -43 l5 -38 -46 -7 c-57 -9 -51 -26 10 -26
39 0 44 -2 44 -23 0 -23 -5 -24 -115 -37 -63 -7 -118 -16 -121 -21 -13 -21 44
-31 108 -20 88 15 88 15 88 -20 0 -30 -27 -89 -41 -89 -4 0 -9 -7 -13 -15 -4
-12 -2 -13 12 -6 37 20 71 67 79 111 5 28 15 46 24 48 13 2 16 -10 18 -69 2
-75 6 -89 22 -89 5 0 9 25 9 55 0 30 3 55 6 55 4 0 22 -9 40 -21 33 -20 34
-20 34 -1 0 13 -10 22 -32 28 -49 14 -48 41 1 49 27 4 41 12 41 22 0 13 -10
15 -55 11 -39 -3 -55 -1 -55 7 0 18 20 32 58 40 43 9 36 29 -11 33 -33 3 -37
6 -37 32 0 28 -15 40 -49 40 -10 0 -20 -3 -23 -6z"/>
  <path d="M569 573 c-26 -73 -33 -89 -47 -106 -24 -28 -8 -29 24 -2 29 25 94
35 94 15 0 -5 -7 -28 -16 -50 -16 -38 -36 -51 -49 -30 -3 6 -15 10 -26 10 -18
0 -17 -3 8 -24 l28 -25 -25 -18 c-13 -10 -38 -23 -55 -30 l-30 -11 35 -1 c19
-1 50 8 68 19 l33 21 37 -29 c59 -46 77 -53 124 -46 70 11 73 20 11 33 -63 15
-143 48 -143 61 0 5 12 31 26 59 21 39 24 54 15 65 -9 11 -4 15 29 20 22 3 40
11 40 18 0 11 -66 7 -134 -8 l-29 -7 23 38 c19 30 20 39 9 46 -24 15 -39 10
-50 -18z"/>
  <path d="M198 335 c-10 -19 -14 -35 -10 -35 17 1 64 49 58 59 -13 20 -31 11
-48 -24z"/>
  <path d="M420 284 c0 -3 4 -14 10 -24 9 -17 5 -19 -45 -25 -30 -4 -68 -5 -85
-3 -31 5 -40 -5 -16 -19 7 -4 19 -24 25 -45 l12 -36 59 5 60 6 0 -35 c0 -35 0
-35 -52 -42 -29 -3 -83 -6 -120 -6 -38 0 -68 -3 -68 -7 1 -19 53 -45 78 -39
15 3 95 19 177 35 l150 29 35 -34 c38 -36 56 -42 63 -21 11 34 -40 81 -103 94
-31 6 -33 4 -22 -9 10 -13 7 -16 -25 -22 -67 -11 -73 -9 -73 23 0 29 1 29 70
36 51 5 70 11 70 21 0 8 7 26 16 39 14 21 14 28 3 41 -10 13 -25 14 -80 9 -62
-6 -67 -5 -72 14 -4 16 -13 21 -36 21 -17 0 -31 -3 -31 -6z m160 -79 l0 -35
-48 0 c-48 0 -48 0 -44 29 4 26 9 30 41 34 20 2 39 4 44 5 4 1 7 -14 7 -33z
m-148 -15 c-4 -27 -8 -30 -43 -30 -32 0 -41 4 -48 23 -7 19 -5 23 18 28 14 4
38 7 52 8 23 1 25 -2 21 -29z"/>
</g>
<g id="part-1" class="char-part">
  <path d="M316 602 c-4 -6 -2 -13 4 -17 5 -3 10 -19 10 -35 0 -30 -14 -40 -61
-40 -16 0 -29 -4 -29 -10 0 -5 20 -10 45 -10 41 0 45 -2 45 -25 0 -14 -2 -25
-4 -25 -8 0 -161 -20 -194 -26 -18 -3 -30 -9 -27 -15 9 -14 69 -11 189 11 60
11 126 20 147 20 21 0 41 5 44 10 7 11 -8 13 -67 10 -34 -1 -38 1 -38 23 0 22
6 26 40 32 22 4 40 10 40 15 0 13 -30 20 -56 14 -22 -6 -24 -4 -19 17 3 13 2
29 -3 36 -10 16 -58 27 -66 15z"/>
</g>
<g id="part-2" class="char-part">
  <path d="M640 478 c0 -7 -9 -33 -20 -57 -19 -41 -21 -43 -38 -27 -10 9 -29 16
-43 16 -22 0 -22 -1 9 -20 29 -18 32 -23 20 -37 -7 -9 -31 -24 -53 -34 l-40
-19 30 0 c17 0 48 9 70 20 l39 20 36 -28 c58 -47 77 -54 128 -46 69 10 82 20
36 28 -63 12 -140 36 -159 50 -17 12 -17 16 9 69 15 31 25 61 21 66 -9 15 -45
14 -45 -1z"/>
</g>
<g id="part-3" class="char-part">
  <path d="M426 266 c5 -20 1 -24 -27 -30 -17 -3 -54 -6 -82 -6 -47 0 -49 -1
-35 -17 9 -10 23 -35 32 -57 13 -32 19 -36 30 -27 8 7 32 11 53 9 33 -3 39 -7
43 -32 3 -17 8 -29 13 -28 4 1 12 2 17 2 6 0 10 13 10 29 0 25 4 29 38 35 20
3 52 6 70 6 19 0 31 4 27 10 -3 5 4 24 17 41 23 30 23 31 3 46 -15 11 -35 13
-82 8 -52 -5 -63 -4 -63 8 0 16 -21 27 -51 27 -15 0 -18 -5 -13 -24z m152 -58
c-3 -31 -6 -33 -45 -36 -42 -3 -43 -2 -43 27 0 27 3 30 38 34 20 2 41 4 45 5
5 1 7 -13 5 -30z m-148 -18 c0 -28 -2 -30 -40 -30 -33 0 -42 4 -49 23 -9 24 7
34 62 36 24 1 27 -3 27 -29z"/>
</g>
<g id="part-4" class="char-part">
  <path d="M450 74 c-52 -7 -130 -13 -172 -13 -84 -1 -96 -11 -47 -36 28 -15 36
-15 91 -1 33 8 109 23 169 32 60 10 109 22 109 26 0 10 -31 9 -150 -8z"/>
</g>
<g id="part-5" class="char-part">
  <path d="M598 99 c12 -11 27 -17 32 -14 5 3 7 0 4 -8 -6 -16 32 -57 53 -57 20
0 16 27 -7 48 -12 11 -39 27 -62 36 l-42 16 22 -21z"/>
</g>
</g>
</svg>