<?xml version="1.0" standalone="no"?>
<!DOCTYPE svg PUBLIC "-//W3C//DTD SVG 20010904//EN"
 "http://www.w3.org/TR/2001/REC-SVG-20010904/DTD/svg10.dtd">
<svg version="1.0" xmlns="http://www.w3.org/2000/svg"
 width="96.000000pt" height="68.000000pt" viewBox="0 0 96.000000 68.000000"
 preserveAspectRatio="xMidYMid meet">
<metadata>
Created by potrace 1.16, written by Peter Selinger 2001-2019
Combined from part_0.svg through part_5.svg with named groups
</metadata>
<g transform="translate(0.000000,68.000000) scale(0.100000,-0.100000)" fill="#000000" stroke="none">
<g id="part-0" class="char-part">
  <path d="M324 613 c-14 -44 -25 -63 -54 -97 -18 -20 -37 -33 -44 -29 -6 3 -8
3 -4 -2 4 -4 3 -14 -3 -22 -23 -27 26 -13 66 20 40 33 61 38 253 68 45 7 71
16 69 23 -6 19 -78 18 -157 -2 -41 -11 -76 -18 -78 -17 -2 2 3 13 10 25 11 18
11 23 -6 36 -26 19 -45 18 -52 -3z"/>
  <path d="M460 500 c-14 -5 -47 -12 -75 -15 -39 -6 -46 -9 -29 -15 22 -9 183
17 199 31 12 11 -61 10 -95 -1z"/>
  <path d="M540 450 c-19 -5 -97 -17 -172 -27 -137 -17 -181 -33 -90 -33 26 1
101 9 167 19 66 10 123 16 128 14 4 -2 7 -52 7 -110 0 -149 21 -204 98 -255
29 -19 152 -26 152 -8 0 5 -9 24 -20 42 -11 18 -20 41 -20 51 0 33 -18 17 -25
-23 -6 -35 -10 -40 -34 -40 -33 0 -83 50 -100 99 -17 52 -13 135 10 203 16 49
18 63 7 69 -16 11 -61 10 -108 -1z"/>
  <path d="M345 350 c17 -18 16 -19 -6 -24 -13 -3 -37 -7 -52 -11 -17 -3 -35 -1
-43 6 -11 9 -14 8 -14 -2 0 -8 -7 -27 -15 -43 -24 -45 -1 -57 25 -14 20 34 23
35 113 48 50 7 97 13 102 14 11 1 11 -8 -1 -37 -6 -18 -4 -17 35 2 47 24 49
31 20 49 -14 9 -37 11 -68 7 -37 -5 -50 -3 -60 9 -8 9 -23 16 -34 16 -19 0
-19 -1 -2 -20z"/>
  <path d="M316 250 l-6 -37 -61 -7 c-34 -3 -77 -6 -95 -6 -19 0 -34 -4 -34 -9
0 -21 74 -23 143 -4 13 3 16 -1 15 -19 -2 -18 4 -25 32 -34 19 -6 35 -15 35
-19 0 -4 -15 -16 -34 -26 -74 -40 -66 -52 9 -14 27 14 55 25 61 25 7 0 34 -14
61 -31 36 -24 52 -29 60 -21 16 16 -15 48 -58 62 -19 7 -34 16 -34 20 0 5 14
25 31 45 24 27 39 35 65 35 19 0 34 4 34 9 0 12 -113 21 -124 10 -12 -11 -66
-12 -66 -1 0 4 5 13 11 19 14 14 5 29 -20 36 -15 4 -20 -2 -25 -33z m94 -58
c0 -4 -7 -18 -16 -30 -16 -23 -58 -29 -84 -12 -13 9 -12 13 9 30 22 19 91 28
91 12z"/>
</g>
<g id="part-1" class="char-part">
  <path d="M317 581 c-10 -21 -36 -59 -58 -85 -50 -57 -38 -59 29 -6 27 22 58
40 68 40 41 0 244 35 244 42 0 18 -54 18 -134 -1 -109 -26 -112 -26 -93 3 12
17 13 26 4 35 -21 21 -43 11 -60 -28z"/>
</g>
<g id="part-2" class="char-part">
  <path d="M500 444 c-41 -8 -122 -20 -180 -28 -92 -11 -102 -14 -79 -24 21 -8
61 -5 178 12 83 13 153 21 156 18 3 -3 5 -56 5 -118 0 -103 2 -116 28 -165 38
-73 79 -99 153 -99 32 0 60 4 63 9 3 4 -3 27 -14 49 -11 23 -20 46 -20 52 0 5
-4 10 -10 10 -5 0 -10 -11 -10 -24 0 -41 -11 -56 -39 -56 -33 0 -73 39 -95 92
-23 53 -20 146 5 214 30 80 14 87 -141 58z"/>
</g>
<g id="part-3" class="char-part">
  <path d="M340 351 c13 -25 4 -30 -59 -32 -49 -2 -53 -4 -67 -37 -19 -46 -3
-65 22 -26 10 16 19 31 21 33 4 6 144 30 180 30 30 1 32 -1 23 -24 l-9 -24 45
22 45 22 -23 18 c-22 18 -66 19 -112 1 -10 -4 -16 -1 -16 9 0 15 -20 27 -46
27 -11 0 -12 -4 -4 -19z"/>
</g>
<g id="part-4" class="char-part">
  <path d="M320 258 c0 -41 -13 -47 -108 -54 -50 -4 -92 -11 -92 -15 0 -15 67
-21 106 -10 53 15 72 15 56 -1 -21 -21 -13 -35 29 -47 48 -14 44 -21 -27 -57
-36 -18 -41 -23 -19 -18 17 4 47 15 67 25 49 25 52 24 111 -12 34 -21 53 -27
60 -20 15 15 -17 47 -59 61 -19 7 -34 14 -34 17 0 3 14 23 31 44 25 32 37 39
65 39 19 0 34 4 34 9 0 12 -113 21 -124 10 -6 -5 -26 -9 -45 -9 -33 0 -34 1
-17 19 21 23 14 41 -15 41 -13 0 -19 -7 -19 -22z m90 -66 c0 -4 -7 -18 -16
-30 -15 -22 -43 -27 -78 -13 -19 7 -19 8 2 29 21 21 92 32 92 14z"/>
</g>
</g>
</svg>