<?xml version="1.0" standalone="no"?>
<!DOCTYPE svg PUBLIC "-//W3C//DTD SVG 20010904//EN"
 "http://www.w3.org/TR/2001/REC-SVG-20010904/DTD/svg10.dtd">
<svg version="1.0" xmlns="http://www.w3.org/2000/svg"
 width="96.000000pt" height="68.000000pt" viewBox="0 0 96.000000 68.000000"
 preserveAspectRatio="xMidYMid meet">
<metadata>
Created by potrace 1.16, written by Peter Selinger 2001-2019
Combined from part_0.svg through part_5.svg with named groups
</metadata>
<g transform="translate(0.000000,68.000000) scale(0.100000,-0.100000)" fill="#000000" stroke="none">
<g id="part-0" class="char-part">
  <path d="M577 613 c-4 -3 -7 -16 -7 -27 0 -29 -50 -132 -95 -195 -20 -29 -34
-55 -32 -57 2 -3 28 17 57 43 29 26 58 48 64 48 15 0 20 -244 6 -309 -9 -41
-8 -53 6 -74 24 -36 35 -16 41 78 3 45 11 84 17 86 6 2 49 7 96 11 48 5 84 12
82 18 -3 12 -78 12 -144 1 l-48 -8 0 41 c0 48 1 49 98 59 40 4 72 12 72 17 0
10 -65 12 -130 4 -34 -4 -35 -3 -36 33 -1 20 2 41 5 46 3 5 49 14 101 21 52 7
99 16 103 20 19 19 -60 19 -149 1 -53 -11 -100 -20 -105 -20 -5 0 8 32 28 70
37 69 38 71 19 85 -21 16 -39 19 -49 8z"/>
  <path d="M234 553 c3 -16 8 -47 11 -70 l7 -43 -66 0 c-62 0 -87 -13 -52 -26 8
-3 20 -28 26 -56 12 -50 32 -70 52 -50 20 20 38 1 38 -38 0 -22 -4 -41 -9 -44
-5 -4 -37 -9 -70 -13 -60 -6 -61 -6 -44 -25 20 -22 22 -22 148 21 107 37 112
37 136 9 15 -19 20 -21 28 -9 13 20 -1 44 -40 71 -32 24 -50 21 -29 -5 10 -12
9 -16 -6 -21 -11 -3 -29 -10 -41 -15 -22 -8 -23 -6 -23 35 l0 44 51 7 c35 5
49 11 45 20 -2 7 9 28 24 46 16 19 29 37 30 41 1 20 -57 36 -99 28 l-43 -8 6
54 c5 46 4 55 -13 64 -11 5 -32 10 -46 10 -24 0 -26 -3 -21 -27z m129 -129 c3
-3 1 -19 -5 -35 -13 -39 -58 -42 -58 -4 0 30 44 58 63 39z m-113 -49 c0 -28
-4 -35 -20 -35 -11 0 -20 1 -20 3 0 1 -4 17 -9 35 -9 31 -9 32 20 32 27 0 29
-3 29 -35z"/>
</g>
<g id="part-1" class="char-part">
  <path d="M235 563 c4 -10 10 -41 12 -69 5 -51 5 -52 -25 -59 -17 -3 -48 -3
-69 1 -38 7 -38 7 -20 -14 10 -11 24 -40 32 -64 12 -41 14 -43 49 -40 l36 3 0
-46 c0 -33 4 -45 15 -45 18 0 34 28 28 51 -8 31 15 49 63 49 35 0 42 3 38 15
-4 8 6 31 22 52 26 35 27 36 8 50 -14 11 -34 13 -73 9 l-54 -6 7 39 c3 22 8
46 11 53 6 16 -33 38 -67 38 -15 0 -18 -4 -13 -17z m131 -160 c-7 -29 -31 -53
-53 -53 -9 0 -13 14 -13 40 0 39 1 40 36 40 34 0 36 -1 30 -27z m-116 -23 c0
-36 -2 -40 -25 -40 -14 0 -25 6 -25 13 0 6 -3 22 -6 34 -4 15 -1 22 13 26 39
10 43 7 43 -33z"/>
</g>
<g id="part-2" class="char-part">
  <path d="M388 245 c26 -43 50 -55 59 -28 6 16 -50 73 -71 73 -12 0 -10 -9 12
-45z"/>
</g>
<g id="part-3" class="char-part">
  <path d="M570 600 c0 -37 -41 -127 -90 -198 -27 -40 -46 -72 -41 -72 13 0 67
44 97 79 16 19 48 66 71 105 42 71 42 71 21 89 -28 23 -58 22 -58 -3z"/>
</g>
<g id="part-4" class="char-part">
  <path d="M680 469 c-119 -23 -127 -26 -112 -41 14 -14 16 -262 3 -318 -9 -41
2 -80 22 -80 17 0 27 43 27 116 0 29 4 55 9 58 5 4 50 9 100 13 50 3 91 10 91
14 0 16 -46 20 -110 10 -93 -15 -90 -17 -90 33 l0 44 78 7 c42 4 84 11 92 15
28 16 -39 23 -97 11 -31 -6 -60 -11 -65 -11 -4 0 -7 22 -6 49 l2 49 46 5 c25
4 71 9 103 13 31 3 57 10 57 14 0 7 -38 21 -50 19 -3 -1 -48 -10 -100 -20z"/>
</g>
</g>
</svg>