<?xml version="1.0" standalone="no"?>
<!DOCTYPE svg PUBLIC "-//W3C//DTD SVG 20010904//EN"
 "http://www.w3.org/TR/2001/REC-SVG-20010904/DTD/svg10.dtd">
<svg version="1.0" xmlns="http://www.w3.org/2000/svg"
 width="96.000000pt" height="68.000000pt" viewBox="0 0 96.000000 68.000000"
 preserveAspectRatio="xMidYMid meet">
<metadata>
Created by potrace 1.16, written by Peter Selinger 2001-2019
Combined from part_0.svg through part_5.svg with named groups
</metadata>
<g transform="translate(0.000000,68.000000) scale(0.100000,-0.100000)" fill="#000000" stroke="none">
<g id="part-0" class="char-part">
  <path d="M470 604 c0 -4 9 -22 21 -40 15 -25 17 -34 7 -34 -7 0 -70 -5 -140
-11 -95 -9 -128 -15 -128 -26 0 -7 9 -13 20 -13 18 0 20 -7 20 -64 0 -114 -62
-260 -148 -348 -23 -25 -31 -38 -21 -38 15 0 89 58 121 95 32 36 66 115 84
190 19 83 38 100 66 63 10 -13 22 -28 28 -35 19 -23 10 -33 -34 -33 l-44 0 16
-35 c14 -30 21 -35 49 -35 50 0 43 -27 -9 -36 -24 -4 -38 -8 -33 -10 6 -1 22
-5 38 -8 15 -4 27 -11 27 -16 0 -9 -26 -15 -100 -24 -19 -2 -37 -5 -40 -5 -3
-1 2 -6 10 -11 8 -5 34 -6 57 -3 28 4 43 2 43 -5 0 -14 -55 -53 -94 -69 -23
-8 -26 -12 -11 -12 34 -1 99 34 129 69 24 29 35 34 82 38 68 6 71 22 4 22 -62
0 -65 16 -5 26 52 7 51 24 -1 24 -47 0 -40 24 7 28 28 2 37 9 48 34 17 37 4
49 -46 41 -21 -4 -33 -2 -33 6 0 6 0 14 0 19 0 4 5 7 12 7 7 0 15 11 18 25 4
18 14 26 33 28 34 4 35 18 1 26 -19 5 -24 11 -20 23 6 15 -8 32 -26 33 -5 0
-8 -16 -8 -35 0 -33 -2 -35 -35 -35 -24 0 -35 5 -35 14 0 15 -37 32 -47 22 -3
-3 -1 -12 5 -19 13 -15 6 -27 -15 -27 -14 0 -18 37 -5 57 12 19 90 30 260 38
84 4 155 11 157 16 13 20 -39 31 -116 24 l-79 -7 0 25 c0 19 -7 28 -31 36 -36
12 -59 14 -59 5z m0 -214 c0 -13 -41 -29 -57 -23 -28 11 -13 33 22 33 19 0 35
-5 35 -10z m33 -86 c12 -12 -6 -34 -29 -34 -26 0 -27 1 -18 24 6 16 35 22 47
10z m-83 -24 c0 -14 -7 -20 -24 -20 -23 0 -41 22 -29 34 4 3 17 6 30 6 16 0
23 -6 23 -20z"/>
  <path d="M610 460 c-11 -22 -36 -56 -54 -75 -19 -19 -30 -37 -26 -40 5 -3 11
-1 15 5 3 5 13 10 21 10 11 0 14 -18 13 -92 0 -51 -4 -120 -8 -153 -8 -62 1
-99 22 -92 7 2 14 19 17 38 l5 34 113 9 c73 6 111 13 109 20 -2 6 -25 12 -50
14 -42 3 -47 6 -47 27 0 21 6 26 40 31 47 8 43 24 -6 24 -29 0 -34 3 -34 24 0
19 7 26 30 31 35 8 31 25 -7 25 -19 0 -24 4 -19 16 4 9 1 22 -4 30 -9 10 -2
14 35 19 53 8 56 30 4 30 -26 0 -34 5 -37 20 -5 22 -19 35 -41 35 -9 0 -11 -6
-6 -17 20 -49 19 -51 -30 -59 -66 -9 -77 10 -30 54 38 35 44 56 19 66 -23 9
-22 10 -44 -34z m82 -141 c5 -30 -6 -39 -48 -39 -21 0 -24 4 -24 38 0 37 1 38
34 34 29 -3 35 -9 38 -33z m3 -69 c3 -6 3 -19 0 -30 -5 -15 -15 -20 -41 -20
-31 0 -34 2 -34 30 0 28 3 30 34 30 19 0 38 -5 41 -10z m5 -89 c0 -30 -18 -41
-67 -41 -18 0 -23 6 -23 25 0 27 25 43 68 44 18 1 22 -4 22 -28z"/>
  <path d="M151 394 c38 -41 59 -49 78 -29 15 15 14 18 -8 36 -13 11 -38 19 -59
19 l-35 0 24 -26z"/>
  <path d="M172 289 c-23 -16 -51 -31 -62 -32 -28 -2 -23 -41 6 -45 14 -2 34 12
62 42 22 24 43 41 47 38 3 -4 3 1 -1 11 -3 9 -7 17 -8 17 -1 0 -21 -14 -44
-31z"/>
  <path d="M470 111 c0 -18 53 -52 64 -41 7 7 6 14 -4 24 -20 18 -60 30 -60 17z"/>
</g>
<g id="part-1" class="char-part">
  <path d="M480 594 c0 -3 9 -19 20 -34 l20 -28 -27 -6 c-16 -2 -64 -7 -108 -11
-44 -3 -98 -8 -119 -12 l-40 -5 27 -15 c21 -10 27 -21 27 -46 0 -112 -66 -278
-140 -355 -23 -24 -40 -45 -37 -48 10 -11 106 78 133 123 45 74 54 99 78 218
l22 110 50 7 c27 4 118 12 203 17 84 6 156 12 159 15 2 3 -7 10 -22 16 -25 9
-54 8 -138 -5 -24 -4 -28 -1 -28 20 0 14 -8 29 -19 35 -21 11 -61 14 -61 4z"/>
  <path d="M150 400 c21 -39 80 -54 80 -21 0 12 -11 23 -31 30 -49 17 -62 15
-49 -9z"/>
  <path d="M200 304 c-8 -8 -36 -27 -63 -40 -40 -21 -46 -28 -37 -40 7 -7 18
-14 25 -14 13 0 100 99 93 106 -3 2 -11 -3 -18 -12z"/>
</g>
<g id="part-2" class="char-part">
  <path d="M470 455 c0 -33 -2 -35 -35 -35 -23 0 -35 5 -35 14 0 13 -20 26 -41
26 -5 0 -7 -11 -3 -25 5 -21 3 -25 -17 -26 -23 -1 -23 -2 4 -12 15 -6 30 -21
33 -34 6 -24 21 -27 79 -14 20 4 31 14 35 31 4 17 14 26 30 28 37 5 49 22 17
22 -22 0 -27 5 -27 24 0 20 -16 36 -36 36 -2 0 -4 -16 -4 -35z m-6 -70 c-6
-16 -64 -22 -64 -7 0 15 13 22 41 22 21 0 27 -4 23 -15z"/>
</g>
<g id="part-3" class="char-part">
  <path d="M470 112 c0 -4 11 -19 25 -32 20 -18 28 -21 37 -12 9 9 9 15 -2 26
-19 18 -60 30 -60 18z"/>
</g>
<g id="part-4" class="char-part">
  <path d="M698 238 c-3 -30 -6 -33 -40 -36 -21 -2 -38 -7 -38 -12 0 -4 18 -6
40 -3 39 6 40 5 40 -25 0 -32 -14 -42 -56 -42 -13 0 -24 -5 -24 -10 0 -11 185
-5 220 6 26 9 -10 24 -57 24 -47 0 -54 6 -43 35 7 20 10 21 58 24 21 1 24 3
12 11 -8 5 -27 10 -42 10 -23 0 -28 4 -28 25 0 18 -5 25 -19 25 -15 0 -21 -8
-23 -32z"/>
</g>
</g>
</svg>