<?xml version="1.0" standalone="no"?>
<!DOCTYPE svg PUBLIC "-//W3C//DTD SVG 20010904//EN"
 "http://www.w3.org/TR/2001/REC-SVG-20010904/DTD/svg10.dtd">
<svg version="1.0" xmlns="http://www.w3.org/2000/svg"
 width="96.000000pt" height="68.000000pt" viewBox="0 0 96.000000 68.000000"
 preserveAspectRatio="xMidYMid meet">
<metadata>
Created by potrace 1.16, written by Peter Selinger 2001-2019
Combined from part_0.svg through part_5.svg with named groups
</metadata>
<g transform="translate(0.000000,68.000000) scale(0.100000,-0.100000)" fill="#000000" stroke="none">
<g id="part-0" class="char-part">
  <path d="M539 586 c-3 -3 -55 -10 -117 -17 -62 -7 -112 -16 -112 -20 0 -12 29
-19 80 -19 41 0 49 -3 54 -22 13 -51 9 -56 -56 -62 -150 -16 -168 -19 -168
-29 0 -7 38 -8 116 -3 l115 7 -3 -43 c-3 -40 -5 -43 -30 -43 -16 1 -28 -2 -28
-5 0 -13 51 -50 69 -50 25 0 31 19 31 91 l0 59 68 1 c37 0 90 4 117 8 49 6 49
7 26 20 -19 10 -48 12 -118 7 l-93 -6 0 40 c0 22 1 40 3 40 13 0 124 23 131
27 14 9 -17 23 -50 23 -17 0 -33 -2 -35 -4z"/>
  <path d="M599 276 c-6 -5 -110 -14 -256 -22 -108 -6 -146 -15 -113 -26 13 -4
51 -126 41 -132 -4 -3 -35 -6 -70 -7 -34 -1 -64 -6 -67 -10 -8 -14 66 -22 139
-14 40 4 175 10 301 14 169 4 230 9 234 18 6 21 -44 33 -108 26 -33 -3 -60 -3
-60 1 0 4 16 32 36 63 l36 57 -22 18 c-19 16 -79 25 -91 14z m-101 -156 c10 0
42 88 42 113 0 13 9 17 41 17 l41 0 -7 -47 c-14 -93 -14 -93 -110 -93 l-85 0
-1 43 c0 23 -2 52 -5 64 -3 19 1 22 34 25 l37 3 3 -62 c2 -35 6 -63 10 -63z
m-119 73 c26 -101 29 -93 -23 -93 -37 0 -46 3 -46 18 -1 9 -7 35 -15 57 -16
45 -9 55 42 55 29 0 33 -4 42 -37z"/>
</g>
<g id="part-1" class="char-part">
  <path d="M530 580 c-19 -5 -69 -12 -110 -16 -108 -9 -122 -23 -24 -24 74 0
177 13 214 27 12 4 11 7 -5 13 -24 10 -30 10 -75 0z"/>
</g>
<g id="part-2" class="char-part">
  <path d="M445 496 l7 -44 -64 -6 c-150 -16 -168 -19 -168 -29 0 -7 38 -8 115
-3 l115 6 0 -40 c0 -45 -16 -58 -49 -40 -12 6 -21 7 -21 2 0 -12 64 -72 78
-72 20 0 32 37 32 98 l0 59 112 6 c61 4 114 9 117 12 17 18 -33 26 -126 20
l-103 -6 0 41 c0 36 -2 40 -26 40 -24 0 -25 -2 -19 -44z"/>
</g>
<g id="part-3" class="char-part">
  <path d="M475 264 c-72 -7 -158 -13 -193 -13 -62 -1 -62 -1 -48 -23 8 -13 20
-45 27 -71 11 -44 31 -68 46 -54 3 3 0 29 -7 57 -7 28 -9 54 -6 57 9 9 107 22
225 29 l104 7 -7 -44 c-4 -24 -9 -54 -13 -66 -9 -38 33 -30 53 10 10 17 27 45
38 60 l21 29 -24 19 c-26 21 -33 21 -216 3z"/>
</g>
<g id="part-4" class="char-part">
  <path d="M504 242 c-6 -4 -12 -34 -13 -67 -2 -33 -3 -61 -4 -62 -1 0 -15 -3
-32 -5 -29 -3 -30 -2 -33 42 -4 75 -9 89 -32 83 -11 -3 -20 -6 -20 -7 0 0 7
-26 15 -56 8 -30 15 -58 15 -62 0 -6 -233 -24 -257 -19 -7 1 -13 -3 -13 -8 0
-19 72 -24 184 -12 62 6 195 11 297 11 196 0 233 7 182 33 -25 13 -46 14 -137
6 -59 -6 -118 -9 -131 -7 l-23 3 23 57 c16 40 20 59 12 67 -13 13 -18 13 -33
3z"/>
</g>
</g>
</svg>