<?xml version="1.0" standalone="no"?>
<!DOCTYPE svg PUBLIC "-//W3C//DTD SVG 20010904//EN"
 "http://www.w3.org/TR/2001/REC-SVG-20010904/DTD/svg10.dtd">
<svg version="1.0" xmlns="http://www.w3.org/2000/svg"
 width="96.000000pt" height="68.000000pt" viewBox="0 0 96.000000 68.000000"
 preserveAspectRatio="xMidYMid meet">
<metadata>
Created by potrace 1.16, written by Peter Selinger 2001-2019
Combined from part_0.svg through part_5.svg with named groups
</metadata>
<g transform="translate(0.000000,68.000000) scale(0.100000,-0.100000)" fill="#000000" stroke="none">
<g id="part-0" class="char-part">
  <path d="M665 590 c-16 -5 -52 -10 -80 -12 l-50 -3 4 -75 c1 -41 5 -78 7 -81
2 -3 39 -4 84 -1 l80 5 0 -151 c0 -176 -6 -202 -47 -195 l-28 5 39 -38 39 -37
18 24 c15 21 18 53 21 284 4 303 4 300 -87 275z m40 -50 c0 -20 -5 -25 -25
-26 -14 -1 -43 -3 -65 -5 -37 -4 -40 -2 -43 23 -4 30 13 37 88 34 41 -1 45 -3
45 -26z m5 -69 c0 -14 -10 -20 -37 -25 -67 -11 -90 -7 -96 13 -7 28 -1 31 70
31 55 0 63 -2 63 -19z"/>
  <path d="M305 563 c-27 -7 -67 -12 -87 -9 l-38 4 8 -56 c10 -83 7 -309 -7
-370 -12 -56 -3 -92 23 -92 13 0 26 115 26 244 0 94 5 103 56 110 45 6 74 0
74 -15 0 -4 -13 -24 -30 -42 -39 -45 -39 -58 3 -50 l32 6 -35 -28 c-19 -16
-37 -30 -39 -32 -3 -2 1 -9 7 -15 9 -9 17 -9 34 0 37 18 88 25 88 12 0 -6 5
-8 10 -5 13 8 13 42 -1 50 -6 4 -16 0 -22 -8 -13 -15 -77 -32 -77 -19 0 4 16
16 35 26 45 24 77 55 70 67 -9 14 -35 11 -35 -5 0 -16 -21 -26 -53 -26 -19 0
-16 4 16 31 20 17 35 35 31 40 -3 5 -10 7 -15 4 -11 -8 -12 -13 11 75 11 41
20 80 20 86 0 9 -46 37 -53 33 -1 -1 -24 -8 -52 -16z m45 -48 c0 -17 -6 -25
-17 -25 -10 0 -35 -3 -55 -6 -36 -6 -38 -5 -38 19 0 23 5 26 43 30 23 2 48 4
55 5 7 1 12 -9 12 -23z m-12 -81 c-3 -2 -26 -7 -51 -10 -39 -6 -47 -4 -47 9 0
16 18 23 70 29 22 3 40 -15 28 -28z"/>
  <path d="M506 350 c-29 -44 -33 -65 -12 -57 23 9 27 -5 6 -20 -23 -16 -27 -43
-7 -43 8 0 35 6 62 14 36 11 52 12 66 3 24 -15 33 -4 19 22 -11 21 -40 29 -40
12 0 -10 -58 -26 -66 -19 -2 3 16 19 41 37 25 18 45 39 45 47 0 18 -36 18 -43
0 -7 -19 -44 -39 -51 -28 -3 5 4 18 14 30 23 25 26 42 6 42 -7 0 -25 -18 -40
-40z"/>
  <path d="M398 185 c4 -33 3 -35 -26 -35 -26 0 -29 3 -24 25 3 18 0 25 -12 25
-10 0 -16 -9 -16 -25 0 -14 -4 -25 -10 -25 -13 0 -13 -27 0 -35 5 -3 19 -1 30
5 12 6 31 10 43 8 21 -3 21 -3 -4 -28 -14 -14 -36 -33 -49 -42 l-25 -17 30 10
c38 13 65 36 88 76 21 39 22 79 1 87 -27 10 -30 7 -26 -29z"/>
  <path d="M510 217 c-5 -52 -3 -180 4 -184 13 -9 26 19 26 59 0 36 1 37 42 40
38 3 43 6 51 37 6 25 5 36 -5 42 -23 15 -28 10 -28 -26 0 -32 -2 -35 -30 -35
-26 0 -30 3 -30 29 0 16 -6 31 -15 35 -8 3 -15 4 -15 3z"/>
</g>
<g id="part-1" class="char-part">
  <path d="M310 560 c-14 -4 -49 -8 -79 -9 -46 -1 -52 -3 -46 -18 4 -10 9 -45
12 -79 l5 -61 85 1 c81 1 84 2 89 26 3 14 12 47 19 75 20 71 -6 90 -85 65z
m40 -50 c0 -20 -4 -28 -13 -24 -8 3 -32 1 -55 -5 -42 -9 -42 -9 -42 19 0 30
11 36 78 39 29 1 32 -2 32 -29z m0 -60 c0 -23 -6 -26 -67 -34 -41 -6 -43 -5
-43 18 0 20 6 25 33 29 72 9 77 8 77 -13z"/>
</g>
<g id="part-2" class="char-part">
  <path d="M715 418 c-2 -7 -6 -84 -7 -170 -2 -96 -7 -161 -14 -168 -8 -8 -19
-8 -40 0 -28 11 -28 10 11 -29 21 -23 40 -41 42 -41 1 0 11 10 23 22 19 20 20
34 20 210 0 162 -2 188 -15 188 -9 0 -18 -6 -20 -12z"/>
</g>
<g id="part-3" class="char-part">
  <path d="M360 379 c0 -7 -16 -27 -36 -45 -39 -37 -37 -58 4 -48 35 9 52 24 26
24 -16 1 -13 6 16 31 29 24 32 31 20 39 -20 13 -30 12 -30 -1z"/>
</g>
<g id="part-4" class="char-part">
  <path d="M570 332 c-14 -15 -41 -39 -60 -54 -48 -37 -32 -54 36 -36 l49 12
-35 6 -35 5 48 34 c44 32 54 50 31 58 -5 2 -21 -9 -34 -25z"/>
  <path d="M602 283 c2 -10 8 -24 15 -30 17 -18 36 -16 29 3 -3 9 -6 17 -6 19 0
3 -9 9 -21 15 -17 10 -20 9 -17 -7z"/>
</g>
<g id="part-5" class="char-part">
  <path d="M400 210 c0 -5 7 -10 15 -10 8 0 15 -7 15 -16 0 -8 -4 -12 -10 -9 -5
3 -10 -1 -10 -9 0 -9 -4 -16 -10 -16 -5 0 -7 -7 -3 -16 3 -8 -4 -25 -17 -40
-27 -28 -22 -32 7 -7 21 20 53 78 53 99 0 7 -9 18 -20 24 -14 7 -20 7 -20 0z"/>
  <path d="M606 205 c-9 -24 -7 -65 3 -65 12 0 21 52 12 69 -6 10 -9 10 -15 -4z"/>
  <path d="M525 200 c3 -5 8 -10 11 -10 2 0 4 5 4 10 0 6 -5 10 -11 10 -5 0 -7
-4 -4 -10z"/>
  <path d="M323 178 c-1 -10 3 -18 9 -16 18 6 21 25 5 31 -8 3 -13 -3 -14 -15z"/>
  <path d="M512 119 c0 -38 3 -69 8 -69 5 0 6 16 3 35 -5 30 -2 36 17 43 21 8
21 9 6 15 -10 4 -16 13 -13 21 3 8 0 17 -7 19 -9 4 -13 -13 -14 -64z"/>
  <path d="M315 141 c-7 -12 12 -24 25 -16 11 7 4 25 -10 25 -5 0 -11 -4 -15 -9z"/>
</g>
</g>
</svg>