<?xml version="1.0" standalone="no"?>
<!DOCTYPE svg PUBLIC "-//W3C//DTD SVG 20010904//EN"
 "http://www.w3.org/TR/2001/REC-SVG-20010904/DTD/svg10.dtd">
<svg version="1.0" xmlns="http://www.w3.org/2000/svg"
 width="96.000000pt" height="68.000000pt" viewBox="0 0 96.000000 68.000000"
 preserveAspectRatio="xMidYMid meet">
<metadata>
Created by potrace 1.16, written by Peter Selinger 2001-2019
Combined from part_0.svg through part_5.svg with named groups
</metadata>
<g transform="translate(0.000000,68.000000) scale(0.100000,-0.100000)" fill="#000000" stroke="none">
<g id="part-0" class="char-part">
  <path d="M638 495 c-2 -3 -31 -5 -64 -6 l-59 -1 3 -89 c4 -98 7 -94 -67 -102
l-43 -5 7 93 c8 110 11 108 -105 87 -41 -7 -92 -11 -112 -8 -43 5 -44 3 -22
-50 9 -22 24 -101 34 -177 18 -141 31 -176 53 -146 9 12 37 18 112 22 55 4
134 10 175 13 75 6 76 6 88 -20 12 -28 23 -31 51 -17 29 16 49 80 66 211 9 69
19 139 22 156 4 26 1 32 -19 37 -27 8 -113 9 -120 2z m70 -132 c-3 -65 -12
-136 -19 -158 l-14 -40 -165 -7 c-91 -3 -182 -9 -202 -12 -21 -4 -38 -3 -38 2
0 4 -7 62 -15 127 -21 173 -28 157 67 170 l47 6 3 -88 c3 -102 0 -100 126 -88
54 5 70 10 63 19 -6 7 -6 37 -1 81 5 39 9 75 10 82 0 13 30 19 99 22 l43 1 -4
-117z"/>
</g>
<g id="part-1" class="char-part">
  <path d="M310 470 c-14 -4 -53 -8 -87 -9 -58 -1 -78 -11 -53 -26 15 -9 29 -73
46 -206 15 -123 29 -165 46 -136 5 11 36 17 108 22 78 6 100 10 100 22 0 12
-18 14 -102 11 l-102 -3 -17 140 c-9 77 -14 143 -10 147 3 4 33 10 65 15 33 4
61 14 64 21 4 13 -19 14 -58 2z"/>
</g>
<g id="part-2" class="char-part">
  <path d="M705 504 c-5 -1 -36 -5 -67 -9 -32 -4 -58 -11 -58 -16 0 -6 26 -7 66
-3 l67 7 -5 -124 c-3 -81 -11 -137 -21 -162 l-16 -37 -69 0 c-87 0 -132 -9
-132 -25 0 -10 17 -12 74 -8 71 6 74 5 91 -21 48 -73 97 4 119 191 9 72 20
143 26 157 6 16 6 27 -1 31 -15 10 -63 22 -74 19z"/>
</g>
<g id="part-3" class="char-part">
  <path d="M374 478 c-8 -12 -5 -182 3 -203 3 -9 15 -13 31 -10 15 2 58 7 95 10
52 5 66 10 58 19 -9 11 -1 107 14 174 5 19 1 22 -27 22 l-33 0 3 -89 c4 -99 9
-92 -72 -106 l-39 -6 7 73 c3 40 7 81 9 92 2 21 -38 42 -49 24z"/>
</g>
</g>
</svg>