<?xml version="1.0" standalone="no"?>
<!DOCTYPE svg PUBLIC "-//W3C//DTD SVG 20010904//EN"
 "http://www.w3.org/TR/2001/REC-SVG-20010904/DTD/svg10.dtd">
<svg version="1.0" xmlns="http://www.w3.org/2000/svg"
 width="96.000000pt" height="68.000000pt" viewBox="0 0 96.000000 68.000000"
 preserveAspectRatio="xMidYMid meet">
<metadata>
Created by potrace 1.16, written by Peter Selinger 2001-2019
Combined from part_0.svg through part_5.svg with named groups
</metadata>
<g transform="translate(0.000000,68.000000) scale(0.100000,-0.100000)" fill="#000000" stroke="none">
<g id="part-0" class="char-part">
  <path d="M425 603 c-40 -63 -67 -83 -112 -83 l-43 0 0 -122 c0 -128 7 -155 34
-145 13 5 16 25 16 121 l0 114 88 16 c115 21 198 21 206 0 3 -9 6 -58 6 -110
0 -87 -1 -94 -20 -94 -25 0 -25 -8 1 -39 l20 -24 21 21 c19 19 21 33 22 147 1
156 4 153 -128 136 -50 -7 -102 -15 -114 -17 -15 -3 -21 -1 -17 6 3 5 10 10
15 10 16 0 90 54 90 66 0 13 -22 24 -50 24 -10 0 -26 -12 -35 -27z"/>
  <path d="M435 479 c-36 -17 -38 -19 -14 -19 26 0 39 -16 39 -45 0 -10 -17 -17
-50 -21 -27 -4 -50 -11 -50 -16 0 -5 13 -7 30 -3 41 9 40 -16 -1 -45 -41 -30
-29 -38 16 -11 20 11 38 21 40 21 2 0 5 -15 7 -32 4 -45 22 -42 26 5 2 20 7
37 13 37 5 0 9 -3 9 -8 0 -10 41 -35 48 -28 9 10 -30 46 -50 46 -10 0 -18 7
-18 15 0 11 12 15 50 15 28 0 50 5 50 10 0 6 -22 10 -50 10 -49 0 -50 1 -50
30 0 26 4 30 26 30 22 0 25 2 14 15 -16 19 -35 18 -85 -6z"/>
  <path d="M521 444 c-12 -14 -10 -15 15 -12 16 2 28 8 27 13 -3 16 -27 16 -42
-1z"/>
  <path d="M376 425 c4 -8 12 -15 20 -15 8 0 11 6 8 15 -4 8 -12 15 -20 15 -8 0
-11 -6 -8 -15z"/>
  <path d="M400 236 c0 -29 -20 -35 -110 -37 -83 -1 -158 -12 -144 -21 18 -12
91 -13 177 -4 43 5 77 5 77 0 0 -5 -9 -23 -20 -41 -21 -35 -74 -72 -132 -94
-44 -15 -51 -33 -10 -23 108 26 180 75 208 141 l14 33 170 0 c142 0 170 2 170
15 0 21 -58 33 -120 24 -30 -4 -85 -8 -122 -8 -55 -1 -72 3 -88 19 -11 11 -31
20 -45 20 -20 0 -25 -5 -25 -24z"/>
  <path d="M600 90 c110 -92 138 -101 125 -41 -5 25 -18 36 -68 61 -34 16 -78
33 -97 37 -33 6 -32 3 40 -57z"/>
</g>
<g id="part-1" class="char-part">
  <path d="M440 621 c0 -6 -19 -32 -41 -56 -23 -25 -36 -45 -28 -45 21 0 141 82
132 91 -15 14 -63 22 -63 10z"/>
</g>
<g id="part-2" class="char-part">
  <path d="M550 544 c-30 -8 -106 -16 -169 -19 l-113 -5 1 -127 c2 -130 11 -164
37 -142 10 8 14 41 14 124 l0 112 89 17 c117 21 197 21 205 0 3 -9 6 -59 6
-111 l0 -95 -31 6 -31 6 28 -33 c15 -17 31 -32 35 -31 5 1 13 2 19 3 17 2 28
71 23 145 -3 41 -1 87 5 104 9 27 8 30 -24 46 -19 9 -36 16 -37 15 -1 -1 -27
-8 -57 -15z"/>
</g>
<g id="part-3" class="char-part">
  <path d="M400 236 c0 -29 -20 -35 -115 -36 -38 -1 -88 -5 -110 -9 -39 -8 -38
-10 11 -26 8 -3 58 0 110 7 52 6 97 8 100 5 11 -11 -36 -76 -72 -98 -19 -12
-56 -30 -82 -40 l-47 -18 40 0 c77 -1 198 81 220 148 6 20 12 21 175 21 165 0
203 7 160 30 -26 14 -49 14 -186 5 -106 -8 -112 -7 -133 14 -11 11 -32 21 -46
21 -20 0 -25 -5 -25 -24z"/>
  <path d="M531 152 c0 -4 29 -32 65 -62 100 -84 134 -99 134 -57 0 24 -28 56
-68 77 -39 19 -132 50 -131 42z"/>
</g>
</g>
</svg>