<?xml version="1.0" standalone="no"?>
<!DOCTYPE svg PUBLIC "-//W3C//DTD SVG 20010904//EN"
 "http://www.w3.org/TR/2001/REC-SVG-20010904/DTD/svg10.dtd">
<svg version="1.0" xmlns="http://www.w3.org/2000/svg"
 width="96.000000pt" height="68.000000pt" viewBox="0 0 96.000000 68.000000"
 preserveAspectRatio="xMidYMid meet">
<metadata>
Created by potrace 1.16, written by Peter Selinger 2001-2019
Combined from part_0.svg through part_5.svg with named groups
</metadata>
<g transform="translate(0.000000,68.000000) scale(0.100000,-0.100000)" fill="#000000" stroke="none">
<g id="part-0" class="char-part">
  <path d="M650 589 c-14 -6 -51 -11 -83 -11 -49 -1 -57 -4 -51 -17 4 -9 9 -53
12 -99 4 -77 16 -108 31 -84 3 5 35 12 71 14 l65 3 0 -152 c0 -83 -3 -155 -7
-159 -5 -4 -19 -2 -33 4 -14 6 -25 8 -25 3 0 -16 58 -71 74 -71 39 0 44 35 48
302 l3 257 -23 11 c-28 12 -49 12 -82 -1z m48 -50 c3 -25 0 -27 -61 -38 -35
-6 -67 -11 -70 -11 -4 0 -7 15 -7 34 0 32 3 35 33 39 17 2 48 4 67 3 30 -1 35
-5 38 -27z m2 -84 l0 -35 -50 -2 c-27 -1 -58 -2 -67 -2 -12 -1 -19 8 -21 26
-3 25 0 27 60 36 35 5 66 10 71 11 4 0 7 -15 7 -34z"/>
  <path d="M310 559 c-19 -5 -53 -8 -75 -7 -38 2 -40 1 -38 -27 8 -144 3 -316
-11 -368 -17 -63 -8 -97 26 -97 13 0 17 15 23 88 10 143 15 196 20 201 3 2 32
5 65 5 56 1 61 3 67 26 3 14 14 57 24 95 16 64 16 71 1 83 -18 14 -51 14 -102
1z m48 -59 c-2 -17 -11 -24 -30 -26 -16 -1 -37 -5 -48 -9 -17 -5 -20 -2 -20
24 0 24 5 32 23 35 71 16 81 12 75 -24z m-6 -75 c-3 -17 -13 -27 -31 -31 -14
-3 -34 -8 -44 -11 -15 -4 -18 0 -15 24 3 25 8 29 48 34 25 3 46 7 46 7 1 1 -1
-9 -4 -23z"/>
  <path d="M450 290 c23 -32 35 -37 46 -18 8 13 -30 48 -53 48 -11 0 -9 -7 7
-30z"/>
  <path d="M570 303 c0 -15 63 -61 77 -56 22 9 15 32 -17 48 -31 16 -60 20 -60
8z"/>
  <path d="M307 248 c-23 -48 -22 -81 0 -76 22 4 39 61 26 90 -9 20 -10 19 -26
-14z"/>
  <path d="M380 254 c19 -48 31 -64 60 -79 51 -27 190 -16 190 14 0 9 -65 51
-79 51 -4 0 -7 -10 -7 -22 1 -20 -5 -23 -42 -26 -52 -4 -84 14 -102 57 -15 37
-34 42 -20 5z"/>
</g>
<g id="part-1" class="char-part">
  <path d="M335 559 c-16 -6 -56 -10 -88 -10 -56 -1 -58 -2 -52 -22 4 -12 10
-56 13 -97 l7 -75 80 2 80 1 24 93 c23 89 23 93 5 106 -20 15 -27 15 -69 2z
m32 -56 c1 -28 -2 -33 -20 -33 -12 0 -39 -3 -60 -7 l-38 -6 3 34 c3 30 7 35
38 40 63 12 75 7 77 -28z m-7 -77 c0 -30 -6 -35 -64 -42 l-46 -7 0 31 c0 29 3
31 43 35 23 2 48 4 55 5 7 1 12 -9 12 -22z"/>
</g>
<g id="part-2" class="char-part">
  <path d="M700 271 c0 -71 -3 -143 -6 -160 -7 -34 -14 -35 -71 -14 -10 4 -1
-11 22 -35 45 -47 67 -52 89 -20 13 18 16 55 16 190 l0 168 -25 0 -25 0 0
-129z"/>
</g>
<g id="part-3" class="char-part">
  <path d="M439 302 c18 -33 40 -47 54 -33 9 10 7 17 -12 32 -31 25 -55 26 -42
1z"/>
  <path d="M600 274 c38 -35 60 -38 60 -9 0 17 -50 45 -80 45 -17 0 -14 -6 20
-36z"/>
  <path d="M302 241 c-22 -47 -19 -74 6 -69 22 4 38 62 25 91 -10 21 -12 20 -31
-22z"/>
  <path d="M370 275 c0 -22 46 -87 70 -100 38 -20 149 -20 176 -1 19 15 19 15
-1 30 -11 8 -32 22 -47 31 l-28 16 6 -31 7 -30 -52 0 c-43 0 -56 4 -76 26 -13
14 -27 35 -30 45 -6 17 -25 27 -25 14z"/>
</g>
</g>
</svg>