<?xml version="1.0" standalone="no"?>
<!DOCTYPE svg PUBLIC "-//W3C//DTD SVG 20010904//EN"
 "http://www.w3.org/TR/2001/REC-SVG-20010904/DTD/svg10.dtd">
<svg version="1.0" xmlns="http://www.w3.org/2000/svg"
 width="96.000000pt" height="68.000000pt" viewBox="0 0 96.000000 68.000000"
 preserveAspectRatio="xMidYMid meet">
<metadata>
Created by potrace 1.16, written by Peter Selinger 2001-2019
Combined from part_0.svg through part_5.svg with named groups
</metadata>
<g transform="translate(0.000000,68.000000) scale(0.100000,-0.100000)" fill="#000000" stroke="none">
<g id="part-0" class="char-part">
  <path d="M536 561 l6 -50 -51 -7 c-66 -9 -66 -24 0 -24 49 0 50 -1 47 -27 -3
-26 -6 -28 -58 -31 -30 -2 -84 -1 -119 3 l-63 7 6 57 c7 64 1 74 -48 87 -28 7
-29 6 -22 -22 3 -16 9 -54 12 -85 7 -64 15 -58 -94 -74 -63 -10 -48 -30 22
-29 53 1 56 0 50 -20 -13 -43 -35 -76 -90 -136 -58 -62 -65 -84 -18 -60 31 17
59 43 100 92 l30 38 -8 -73 c-14 -119 -13 -156 5 -175 32 -31 42 -1 45 133 4
122 10 145 32 105 16 -29 50 -26 50 4 0 19 -9 29 -40 43 -29 13 -40 24 -40 41
0 16 6 22 23 22 13 0 32 7 43 15 38 29 42 22 69 -111 4 -19 10 -21 50 -16 29
3 45 1 45 -6 0 -15 -121 -132 -136 -132 -6 0 -17 -7 -24 -15 -29 -35 46 -6
105 40 71 56 69 57 61 -24 -7 -80 -1 -121 20 -121 27 0 36 39 29 136 -8 114
-1 118 72 41 27 -30 60 -61 74 -70 25 -18 80 -21 114 -7 l20 8 -20 7 c-67 23
-87 34 -157 79 -102 66 -107 79 -27 74 l61 -3 20 50 c11 28 26 57 34 66 21 23
17 35 -16 49 -27 11 -97 10 -150 -2 -10 -2 -16 6 -18 24 -3 24 1 28 35 33 59
10 73 15 73 27 0 7 -18 9 -54 4 l-55 -6 2 42 c2 40 0 43 -26 46 l-28 3 7 -50z
m162 -164 c3 -27 3 -27 -62 -27 -58 0 -66 2 -66 19 0 16 11 21 53 29 67 12 71
11 75 -21z m-158 -16 c0 -31 -93 -44 -104 -15 -11 29 -6 33 42 36 57 4 62 2
62 -21z m150 -37 c0 -3 -5 -14 -10 -25 -8 -15 -22 -19 -60 -19 -43 0 -50 3
-50 19 0 15 8 21 38 24 67 7 82 7 82 1z m-155 -29 c0 -17 -7 -20 -40 -20 -32
0 -41 4 -43 20 -2 17 3 20 40 20 36 0 43 -3 43 -20z"/>
</g>
<g id="part-1" class="char-part">
  <path d="M241 541 c6 -16 9 -53 7 -82 l-3 -54 -67 -9 c-38 -5 -68 -13 -68 -17
0 -5 29 -9 65 -11 l66 -3 -25 -50 c-14 -28 -49 -76 -77 -108 -28 -31 -48 -57
-44 -57 28 0 98 60 139 120 17 24 18 23 10 -55 -11 -98 -11 -171 -2 -180 4 -4
14 -5 23 -2 12 5 15 24 15 95 0 49 3 110 6 134 l6 46 29 -32 c21 -24 30 -28
40 -19 18 18 3 42 -36 59 -26 11 -35 20 -35 39 0 20 7 26 40 35 22 6 40 15 40
19 0 14 -29 22 -56 15 -23 -6 -23 -6 -17 61 7 72 0 85 -44 85 -20 0 -21 -3
-12 -29z"/>
</g>
<g id="part-2" class="char-part">
  <path d="M536 562 l6 -49 -32 -7 c-18 -3 -43 -6 -57 -6 -14 0 -21 -4 -18 -10
3 -5 28 -10 56 -10 l49 0 -1 -92 c0 -51 -3 -101 -7 -110 -12 -29 -104 -119
-155 -151 -26 -16 -46 -31 -44 -34 9 -9 95 32 146 70 l54 40 -6 -80 c-5 -62
-3 -85 8 -99 15 -19 15 -19 31 1 13 17 15 37 10 123 l-7 104 28 -20 c15 -12
52 -46 82 -76 49 -51 58 -56 95 -55 23 0 50 4 61 8 18 7 16 10 -16 23 -20 9
-47 19 -60 23 -13 4 -59 32 -101 62 -82 59 -88 70 -84 148 1 22 3 59 4 82 2
40 4 42 40 48 20 4 48 10 62 14 l25 8 -22 11 c-15 9 -30 9 -48 2 -45 -17 -52
-13 -51 33 1 39 -1 42 -27 45 l-28 3 7 -49z"/>
</g>
<g id="part-3" class="char-part">
  <path d="M605 439 c-44 -9 -116 -18 -160 -18 -56 -1 -75 -4 -64 -11 10 -6 24
-40 34 -80 15 -63 19 -69 39 -65 11 3 74 7 138 8 l117 2 33 69 c18 39 34 73
36 77 3 7 -73 40 -86 38 -4 -1 -43 -10 -87 -20z m95 -44 c0 -24 -3 -25 -55
-25 -30 0 -58 0 -62 0 -5 -1 -9 8 -11 19 -4 21 13 27 86 30 39 1 42 -1 42 -24z
m-160 -15 c0 -13 -7 -20 -19 -20 -10 0 -33 -3 -50 -6 -28 -6 -31 -4 -31 20 0
25 3 26 50 26 43 0 50 -3 50 -20z m141 -52 c-7 -20 -16 -23 -57 -23 -38 0 -49
4 -52 17 -2 13 6 18 35 21 85 9 83 9 74 -15z m-143 -12 c-2 -17 -10 -21 -43
-21 -32 0 -41 4 -43 20 -2 17 3 20 43 21 42 1 46 -1 43 -20z"/>
</g>
</g>
</svg>