<?xml version="1.0" standalone="no"?>
<!DOCTYPE svg PUBLIC "-//W3C//DTD SVG 20010904//EN"
 "http://www.w3.org/TR/2001/REC-SVG-20010904/DTD/svg10.dtd">
<svg version="1.0" xmlns="http://www.w3.org/2000/svg"
 width="96.000000pt" height="68.000000pt" viewBox="0 0 96.000000 68.000000"
 preserveAspectRatio="xMidYMid meet">
<metadata>
Created by potrace 1.16, written by Peter Selinger 2001-2019
Combined from part_0.svg through part_5.svg with named groups
</metadata>
<g transform="translate(0.000000,68.000000) scale(0.100000,-0.100000)" fill="#000000" stroke="none">
<g id="part-0" class="char-part">
  <path d="M310 568 c0 -36 -59 -131 -128 -208 -70 -78 -62 -92 17 -30 l51 40 0
-71 c0 -40 -5 -101 -11 -137 -12 -68 -3 -112 25 -112 23 0 28 28 34 177 3 106
1 147 -8 158 -10 12 -9 19 4 37 41 57 86 128 86 137 0 12 -33 31 -54 31 -10 0
-16 -9 -16 -22z"/>
  <path d="M625 504 c-44 -7 -115 -14 -158 -16 -64 -2 -76 -6 -70 -18 13 -29 15
-166 3 -220 -7 -30 -13 -73 -14 -95 -1 -34 2 -40 19 -40 18 0 21 9 28 100 4
55 10 132 13 171 l5 72 37 6 c20 3 88 8 150 12 100 6 112 5 112 -9 0 -9 2 -72
5 -139 3 -68 2 -143 -1 -167 -7 -43 -7 -43 -41 -38 l-34 6 23 -29 c13 -15 33
-34 46 -41 19 -11 25 -10 40 4 24 25 36 412 14 440 -18 20 -59 20 -177 1z"/>
  <path d="M553 397 c-38 -9 -60 -27 -33 -27 31 0 150 25 150 32 0 11 -65 8
-117 -5z"/>
  <path d="M605 330 c-11 -5 -41 -9 -66 -9 l-46 -1 19 -60 c16 -47 24 -60 36
-56 10 3 38 8 65 12 39 5 47 10 47 28 0 12 7 32 17 45 15 23 15 25 -2 37 -21
16 -41 17 -70 4z m17 -55 c-4 -35 0 -31 -39 -40 -30 -6 -33 -4 -41 27 -8 31
-7 33 22 39 52 11 61 6 58 -26z"/>
</g>
<g id="part-1" class="char-part">
  <path d="M308 542 c-23 -63 -61 -119 -131 -191 -63 -64 -48 -74 21 -15 22 19
45 34 51 34 13 0 5 -170 -10 -232 -11 -42 2 -78 26 -78 19 0 23 21 29 181 5
115 3 139 -9 149 -14 12 -14 15 3 34 69 79 105 156 72 156 -5 0 -14 2 -22 5
-9 4 -19 -11 -30 -43z"/>
</g>
<g id="part-2" class="char-part">
  <path d="M685 513 c-38 -8 -119 -17 -180 -21 -90 -6 -109 -10 -106 -22 11 -39
12 -171 1 -220 -7 -30 -13 -73 -14 -95 -1 -34 2 -40 19 -40 21 0 19 -18 41
271 l5 72 37 6 c20 3 87 8 148 12 l111 7 7 -145 c8 -154 2 -218 -19 -218 -8 0
-26 5 -42 11 l-28 10 25 -28 c46 -52 59 -63 74 -63 33 0 41 42 46 245 7 245 8
243 -125 218z"/>
</g>
<g id="part-3" class="char-part">
  <path d="M540 395 c-41 -11 -43 -13 -20 -19 23 -6 145 16 158 28 10 11 -92 4
-138 -9z"/>
</g>
<g id="part-4" class="char-part">
  <path d="M590 324 c-25 -7 -58 -10 -73 -7 -25 4 -27 3 -18 -14 6 -10 15 -38
21 -61 8 -33 15 -42 26 -38 9 3 40 9 69 12 45 6 52 9 48 25 -3 11 3 31 12 46
17 25 17 27 -1 40 -21 15 -23 15 -84 -3z m36 -46 c-7 -38 -4 -34 -43 -43 -30
-6 -33 -4 -41 27 -7 29 -6 34 12 40 12 3 34 6 50 7 27 1 28 -1 22 -31z"/>
</g>
</g>
</svg>