<?xml version="1.0" standalone="no"?>
<!DOCTYPE svg PUBLIC "-//W3C//DTD SVG 20010904//EN"
 "http://www.w3.org/TR/2001/REC-SVG-20010904/DTD/svg10.dtd">
<svg version="1.0" xmlns="http://www.w3.org/2000/svg"
 width="96.000000pt" height="68.000000pt" viewBox="0 0 96.000000 68.000000"
 preserveAspectRatio="xMidYMid meet">
<metadata>
Created by potrace 1.16, written by Peter Selinger 2001-2019
Combined from part_0.svg through part_5.svg with named groups
</metadata>
<g transform="translate(0.000000,68.000000) scale(0.100000,-0.100000)" fill="#000000" stroke="none">
<g id="part-0" class="char-part">
  <path d="M218 441 c3 -77 -1 -191 -7 -254 -9 -88 -8 -122 0 -141 13 -28 17
-30 38 -17 10 7 15 52 19 190 3 99 8 181 11 181 3 0 17 -12 30 -25 27 -29 34
-30 50 -11 19 23 1 46 -46 58 -38 9 -44 14 -39 32 20 86 19 94 -13 110 -16 9
-34 16 -38 16 -5 0 -7 -63 -5 -139z"/>
  <path d="M535 514 c-60 -8 -120 -12 -132 -9 -25 6 -30 -4 -12 -22 6 -6 18 -42
27 -79 l17 -69 120 1 120 1 28 83 c16 48 24 87 19 92 -16 16 -75 17 -187 2z
m135 -32 c0 -9 -6 -40 -12 -69 -12 -50 -14 -53 -44 -53 -17 0 -58 -3 -91 -6
l-60 -7 -16 64 c-9 35 -13 67 -9 71 4 3 25 8 47 10 51 4 58 -19 20 -67 -20
-27 -22 -35 -11 -35 9 0 21 9 28 20 16 26 24 25 60 -5 28 -24 48 -26 48 -4 0
5 -15 17 -34 26 -27 12 -34 21 -33 42 2 22 8 27 42 31 50 7 65 2 65 -18z"/>
  <path d="M118 355 c-27 -54 -28 -95 -2 -95 35 0 70 114 42 137 -10 9 -19 1
-40 -42z"/>
  <path d="M580 269 c-30 -4 -92 -7 -138 -8 l-82 -1 16 -25 c9 -14 20 -43 24
-63 4 -20 9 -44 11 -52 3 -12 -9 -16 -56 -20 -54 -5 -58 -6 -38 -18 17 -9 53
-10 160 -2 76 5 189 10 251 10 63 0 112 4 112 9 0 15 -14 20 -59 25 -23 2 -44
6 -48 9 -3 4 7 32 22 63 27 55 27 57 9 71 -20 14 -78 15 -184 2z m123 -48 c0
-18 -4 -48 -8 -67 -6 -32 -8 -34 -45 -34 -44 0 -48 9 -25 54 8 15 15 39 15 51
0 25 12 33 45 31 16 -1 20 -8 18 -35z m-107 -33 c-9 -73 -11 -78 -36 -78 -25
0 -26 4 -34 78 l-7 62 42 0 42 0 -7 -62z m-107 30 c5 -13 12 -42 15 -64 7 -39
6 -42 -18 -46 -13 -3 -31 -1 -38 3 -7 5 -10 9 -6 9 4 0 1 21 -7 48 -21 66 -19
72 15 72 22 0 33 -6 39 -22z"/>
</g>
<g id="part-1" class="char-part">
  <path d="M217 543 c10 -36 7 -308 -5 -398 -9 -65 -1 -115 18 -115 24 0 30 33
31 164 0 78 3 158 7 179 l7 39 24 -26 c29 -31 61 -34 61 -7 0 17 -14 26 -73
45 -17 5 -18 13 -12 65 6 53 5 60 -13 70 -38 20 -53 14 -45 -16z"/>
  <path d="M122 355 c-27 -57 -28 -85 -3 -85 25 0 58 81 45 114 -10 25 -18 19
-42 -29z"/>
</g>
<g id="part-2" class="char-part">
  <path d="M540 515 c-58 -8 -120 -11 -139 -8 l-33 6 18 -28 c11 -16 26 -58 34
-94 13 -55 19 -66 35 -63 11 1 65 4 120 6 l100 4 28 82 c16 48 24 87 19 92
-16 16 -75 17 -182 3z m125 -16 c4 -6 2 -39 -5 -75 -12 -63 -13 -64 -45 -64
-17 0 -59 -3 -93 -6 l-60 -7 -13 59 c-8 33 -14 64 -14 69 0 6 43 15 95 21 129
15 128 15 135 3z"/>
</g>
<g id="part-3" class="char-part">
  <path d="M525 463 c-9 -21 -23 -45 -32 -55 -27 -30 -8 -31 26 -2 l32 27 28
-27 c32 -30 51 -33 51 -8 0 11 -13 23 -35 31 -29 10 -33 15 -25 30 6 12 5 22
-2 29 -19 19 -27 14 -43 -25z"/>
</g>
<g id="part-4" class="char-part">
  <path d="M596 179 c-7 -69 -8 -70 -34 -67 -15 2 -28 10 -29 18 -14 110 -14
110 -34 110 -16 0 -18 -4 -11 -17 5 -10 12 -39 16 -64 l7 -46 -47 -7 c-26 -3
-71 -6 -100 -6 -30 0 -54 -4 -54 -9 0 -17 55 -21 155 -11 55 5 162 10 238 10
75 0 137 4 137 9 0 20 -60 29 -141 22 -46 -5 -87 -6 -90 -5 -4 2 4 30 16 61
25 61 24 73 -4 73 -15 0 -20 -12 -25 -71z"/>
</g>
</g>
</svg>