<?xml version="1.0" standalone="no"?>
<!DOCTYPE svg PUBLIC "-//W3C//DTD SVG 20010904//EN"
 "http://www.w3.org/TR/2001/REC-SVG-20010904/DTD/svg10.dtd">
<svg version="1.0" xmlns="http://www.w3.org/2000/svg"
 width="96.000000pt" height="68.000000pt" viewBox="0 0 96.000000 68.000000"
 preserveAspectRatio="xMidYMid meet">
<metadata>
Created by potrace 1.16, written by Peter Selinger 2001-2019
Combined from part_0.svg through part_5.svg with named groups
</metadata>
<g transform="translate(0.000000,68.000000) scale(0.100000,-0.100000)" fill="#000000" stroke="none">
<g id="part-0" class="char-part">
  <path d="M535 578 c-3 -7 -11 -32 -20 -56 -8 -24 -24 -57 -36 -73 -16 -23 -18
-33 -10 -43 10 -12 20 -12 67 1 68 17 77 15 61 -17 -11 -23 -21 -26 -105 -34
-112 -11 -123 -30 -15 -25 l78 4 6 -30 c9 -40 10 -174 2 -203 -5 -21 -10 -23
-42 -17 -20 4 -31 3 -26 -2 6 -4 24 -21 42 -37 l31 -28 21 21 c20 20 21 31 20
162 0 77 1 142 3 144 2 1 48 6 103 10 55 4 102 9 104 11 19 18 -65 23 -151 10
-51 -8 -58 -1 -30 30 9 10 32 38 51 62 45 58 34 69 -56 55 -37 -6 -69 -9 -71
-8 -2 2 2 12 9 23 10 17 10 23 0 36 -16 19 -30 20 -36 4z m105 -83 c0 -2 -5
-15 -11 -29 -9 -19 -22 -27 -55 -32 -61 -9 -67 -4 -44 34 18 28 25 32 65 32
25 0 45 -2 45 -5z"/>
  <path d="M266 515 c-10 -25 -37 -66 -60 -93 -64 -71 -48 -98 39 -67 22 8 42
15 45 15 2 0 -21 -25 -53 -55 -78 -75 -66 -92 40 -58 43 14 58 15 73 5 26 -16
30 -15 30 7 0 20 -14 34 -43 44 -13 5 -17 2 -15 -11 2 -13 -5 -18 -37 -20
l-40 -3 74 73 c55 55 71 76 64 87 -16 25 -28 23 -46 -9 -18 -31 -49 -44 -86
-38 -18 3 -14 10 34 63 60 66 65 79 36 95 -30 16 -35 13 -55 -35z"/>
  <path d="M673 280 c-18 -20 -33 -40 -33 -43 0 -4 22 5 49 18 27 14 54 25 60
25 14 0 14 13 -1 28 -20 20 -41 12 -75 -28z"/>
  <path d="M445 291 c-8 -14 40 -65 53 -57 21 12 13 42 -13 54 -31 14 -32 14
-40 3z"/>
  <path d="M320 222 c0 -5 11 -19 25 -32 22 -21 25 -21 31 -6 4 11 0 22 -12 31
-21 16 -44 19 -44 7z"/>
  <path d="M448 177 c-73 -30 -92 -47 -67 -62 19 -12 54 4 104 50 28 24 48 44
45 44 -3 0 -40 -15 -82 -32z"/>
  <path d="M640 206 c0 -9 140 -106 154 -106 17 0 21 26 7 48 -11 19 -161 73
-161 58z"/>
  <path d="M230 192 c0 -16 32 -52 46 -52 19 0 18 25 -2 44 -16 17 -44 22 -44 8z"/>
  <path d="M120 171 c0 -6 9 -26 21 -45 26 -44 49 -47 49 -6 0 23 -7 33 -30 45
-34 18 -40 18 -40 6z"/>
</g>
<g id="part-1" class="char-part">
  <path d="M276 523 c-9 -33 -61 -110 -87 -126 -21 -13 -25 -32 -9 -42 13 -8
108 13 116 26 3 6 -12 7 -38 3 l-43 -7 33 39 c73 87 84 104 78 119 -9 25 -43
18 -50 -12z"/>
</g>
<g id="part-2" class="char-part">
  <path d="M335 200 c33 -35 45 -38 45 -10 0 21 -27 40 -56 40 -14 0 -12 -6 11
-30z"/>
  <path d="M240 170 c24 -34 50 -39 50 -10 0 20 -27 40 -55 40 -14 0 -13 -4 5
-30z"/>
  <path d="M110 184 c0 -17 54 -94 66 -94 23 0 28 28 11 54 -14 21 -77 54 -77
40z"/>
</g>
<g id="part-3" class="char-part">
  <path d="M522 547 c-6 -24 -23 -60 -37 -81 -26 -39 -31 -61 -16 -71 12 -7 141
25 141 35 0 4 -23 5 -52 2 l-51 -5 24 44 c14 24 31 54 39 66 11 18 12 24 1 37
-22 27 -38 18 -49 -27z"/>
</g>
<g id="part-4" class="char-part">
  <path d="M595 515 l-50 -13 48 -1 c45 -1 48 -2 41 -23 -3 -13 -15 -40 -25 -60
-21 -42 -23 -48 -10 -48 15 0 122 139 116 150 -8 13 -58 11 -120 -5z"/>
</g>
<g id="part-5" class="char-part">
  <path d="M566 325 c-3 -8 -2 -15 3 -15 14 0 20 -39 7 -44 -7 -3 -6 -8 4 -15
10 -7 11 -11 3 -11 -9 0 -12 -22 -10 -74 2 -80 0 -86 -31 -89 l-20 -1 20 -29
c20 -28 22 -29 35 -11 7 10 13 14 14 8 0 -5 4 0 8 11 7 19 5 199 -3 237 -2 9
1 19 8 22 7 3 6 8 -4 15 -20 14 -27 14 -34 -4z"/>
  <path d="M682 280 l-23 -30 41 18 c46 19 56 36 25 39 -12 2 -29 -9 -43 -27z"/>
  <path d="M450 295 c0 -5 9 -21 20 -35 16 -21 21 -23 32 -12 11 11 9 15 -7 25
-11 6 -22 10 -24 8 -2 -1 -8 3 -12 11 -5 7 -9 9 -9 3z"/>
  <path d="M684 182 c17 -12 34 -18 39 -15 6 3 7 1 4 -4 -9 -15 62 -68 74 -56
17 17 -1 44 -25 38 -15 -5 -17 -4 -7 3 15 11 9 16 -39 30 -19 5 -44 13 -55 17
-12 4 -8 -2 9 -13z"/>
  <path d="M457 173 c-9 -2 -14 -9 -10 -15 4 -7 0 -9 -10 -5 -10 4 -28 1 -42 -5
-22 -10 -23 -12 -8 -23 21 -16 46 -8 39 12 -3 8 -1 11 4 8 6 -4 22 3 36 14 27
21 25 23 -9 14z"/>
</g>
</g>
</svg>