<?xml version="1.0" standalone="no"?>
<!DOCTYPE svg PUBLIC "-//W3C//DTD SVG 20010904//EN"
 "http://www.w3.org/TR/2001/REC-SVG-20010904/DTD/svg10.dtd">
<svg version="1.0" xmlns="http://www.w3.org/2000/svg"
 width="96.000000pt" height="68.000000pt" viewBox="0 0 96.000000 68.000000"
 preserveAspectRatio="xMidYMid meet">
<metadata>
Created by potrace 1.16, written by Peter Selinger 2001-2019
Combined from part_0.svg through part_5.svg with named groups
</metadata>
<g transform="translate(0.000000,68.000000) scale(0.100000,-0.100000)" fill="#000000" stroke="none">
<g id="part-0" class="char-part">
  <path d="M263 543 l2 -48 -48 -5 c-62 -7 -61 -24 3 -28 71 -4 66 -42 -5 -42
-13 0 -27 -4 -30 -10 -4 -6 12 -10 39 -10 38 0 46 -3 46 -19 0 -16 -11 -20
-77 -26 -43 -4 -82 -10 -88 -13 -21 -14 64 -17 155 -5 52 6 110 13 129 15 19
2 37 10 39 18 4 10 -7 12 -52 6 -52 -6 -57 -5 -54 11 2 12 15 20 41 23 52 7
51 24 0 28 -62 4 -57 28 7 39 64 10 65 26 3 33 -46 5 -48 6 -45 34 4 31 -10
46 -45 46 -21 0 -23 -4 -20 -47z"/>
  <path d="M585 519 c-22 -4 -58 -8 -80 -8 l-40 -1 -1 -135 c-1 -137 3 -153 35
-123 11 11 12 5 7 -32 -8 -51 -47 -124 -77 -143 -22 -14 -25 -27 -6 -27 37 0
148 162 126 185 -15 15 -10 25 11 25 18 0 20 -7 20 -88 0 -82 2 -90 26 -113
23 -21 35 -24 103 -24 80 0 131 16 131 41 0 7 -11 29 -24 48 l-24 35 -5 -27
c-11 -51 -29 -66 -83 -64 -78 3 -84 8 -84 55 0 23 4 59 9 80 7 30 6 39 -8 47
-13 8 -11 9 12 10 15 0 27 -4 27 -10 0 -5 8 -10 19 -10 17 0 19 11 23 133 3
77 1 137 -5 145 -10 13 -51 14 -112 1z m51 -17 c15 -10 27 -49 17 -55 -5 -3
-41 -9 -81 -12 l-72 -8 0 31 c0 28 2 30 58 40 31 5 59 10 62 11 3 0 10 -3 16
-7z m24 -110 c0 -26 -3 -28 -32 -28 -18 0 -54 -4 -80 -8 l-48 -8 0 30 c0 30 2
31 48 35 116 9 112 10 112 -21z m0 -71 c0 -26 -3 -29 -46 -35 -26 -3 -62 -6
-80 -6 -29 0 -34 3 -34 24 0 21 6 24 73 33 39 6 75 11 80 12 4 0 7 -12 7 -28z"/>
  <path d="M315 309 c-16 -5 -52 -11 -80 -13 l-50 -4 3 -37 c2 -20 -2 -67 -9
-105 -6 -37 -9 -76 -5 -86 6 -16 7 -16 21 2 8 10 15 31 15 46 0 35 25 48 89
48 53 0 61 -9 53 -57 -3 -18 -11 -23 -36 -23 l-31 -1 28 -24 c59 -52 73 -30
79 127 4 115 4 117 -19 127 -13 6 -25 11 -26 10 -1 0 -15 -5 -32 -10z m38 -39
c6 -25 5 -26 -71 -34 -62 -7 -63 -7 -60 16 2 17 11 24 38 29 69 12 87 10 93
-11z m0 -65 c8 -19 3 -22 -70 -30 -58 -6 -63 -5 -63 12 0 29 8 33 71 33 41 0
58 -4 62 -15z"/>
</g>
<g id="part-1" class="char-part">
  <path d="M268 541 l4 -48 -53 -9 -54 -8 53 -4 c48 -3 52 -5 52 -28 0 -20 -5
-24 -29 -24 -17 0 -33 -4 -36 -10 -4 -6 10 -10 34 -10 30 0 41 -4 41 -15 0
-21 27 -19 33 4 3 12 18 20 48 25 37 6 41 9 26 18 -11 5 -30 8 -43 5 -18 -3
-24 0 -24 14 0 12 9 21 25 24 84 17 81 16 62 26 -10 6 -32 9 -50 7 -30 -3 -32
-1 -32 31 0 25 -5 36 -20 42 -38 15 -42 11 -37 -40z"/>
</g>
<g id="part-2" class="char-part">
  <path d="M285 304 c-27 -8 -61 -12 -75 -9 -25 5 -25 5 -28 -72 -1 -43 -4 -96
-5 -118 -3 -55 15 -56 31 -2 14 49 27 57 100 57 l42 0 0 -40 c0 -39 -1 -40
-36 -40 l-36 0 30 -25 c64 -54 79 -31 83 128 5 147 2 151 -106 121z m65 -39
c0 -21 -5 -25 -27 -25 -16 0 -45 -3 -66 -7 -37 -6 -39 -5 -35 18 3 24 30 34
101 38 23 1 27 -3 27 -24z m0 -65 c0 -13 -7 -20 -19 -20 -10 0 -39 -3 -65 -6
-41 -6 -46 -5 -46 13 0 29 8 33 72 33 51 0 58 -2 58 -20z"/>
</g>
<g id="part-3" class="char-part">
  <path d="M575 518 c-22 -5 -57 -8 -78 -6 -34 3 -38 2 -33 -17 3 -11 6 -57 6
-102 0 -65 3 -83 14 -83 8 0 16 4 18 9 4 12 148 30 154 19 3 -4 13 -8 23 -8
16 0 19 11 23 88 3 50 1 92 -5 100 -11 14 -64 14 -122 0z m75 -34 c15 -39 14
-41 -47 -47 -32 -4 -67 -8 -78 -9 -16 -2 -20 3 -20 27 0 28 4 31 50 41 75 18
84 17 95 -12z m10 -92 c0 -25 -4 -29 -32 -29 -18 0 -54 -3 -80 -8 l-48 -8 0
31 c0 30 2 31 48 35 116 9 112 10 112 -21z"/>
</g>
<g id="part-4" class="char-part">
  <path d="M660 311 c0 -16 -10 -21 -57 -26 -103 -11 -108 -11 -108 5 0 8 -8 16
-17 18 -15 3 -18 -4 -18 -32 0 -24 5 -36 14 -36 8 0 16 4 18 9 2 5 38 11 81
12 65 2 80 -1 91 -16 20 -27 36 -9 36 41 0 37 -3 44 -20 44 -13 0 -20 -7 -20
-19z"/>
</g>
<g id="part-5" class="char-part">
  <path d="M593 214 c5 -29 4 -35 -4 -24 -8 11 -9 7 -4 -17 3 -17 7 -45 7 -62 1
-18 5 -28 11 -24 6 4 8 0 4 -10 -4 -11 -1 -17 9 -17 8 0 12 -4 9 -10 -4 -6 9
-11 32 -12 76 -3 106 0 114 13 15 25 10 32 -13 17 -37 -24 -109 -14 -136 18
-13 15 -20 30 -15 33 4 3 9 20 10 36 1 17 4 43 5 60 2 22 -2 30 -16 33 -17 4
-18 0 -13 -34z"/>
  <path d="M787 122 c-3 -4 -5 -23 -4 -43 1 -36 1 -36 29 -22 24 12 26 18 17 34
-5 11 -14 17 -19 14 -6 -3 -7 1 -4 9 6 16 -11 23 -19 8z"/>
</g>
</g>
</svg>