<?xml version="1.0" standalone="no"?>
<!DOCTYPE svg PUBLIC "-//W3C//DTD SVG 20010904//EN"
 "http://www.w3.org/TR/2001/REC-SVG-20010904/DTD/svg10.dtd">
<svg version="1.0" xmlns="http://www.w3.org/2000/svg"
 width="96.000000pt" height="68.000000pt" viewBox="0 0 96.000000 68.000000"
 preserveAspectRatio="xMidYMid meet">
<metadata>
Created by potrace 1.16, written by Peter Selinger 2001-2019
Combined from part_0.svg through part_5.svg with named groups
</metadata>
<g transform="translate(0.000000,68.000000) scale(0.100000,-0.100000)" fill="#000000" stroke="none">
<g id="part-0" class="char-part">
  <path d="M427 614 c-3 -3 -2 -17 4 -31 5 -13 9 -35 9 -48 0 -22 -4 -24 -90
-31 -49 -3 -90 -11 -90 -16 0 -6 36 -7 91 -2 l92 7 -5 -34 c-3 -19 -2 -41 3
-50 7 -14 1 -17 -38 -23 -25 -3 -64 -6 -86 -6 -35 0 -39 -2 -24 -13 10 -7 24
-32 31 -57 15 -50 1 -47 161 -40 39 1 77 0 86 -4 15 -7 19 -2 65 110 11 26
-92 39 -155 18 -10 -3 -12 2 -7 18 3 13 6 38 6 56 l0 32 101 0 c76 0 100 3 96
13 -4 14 -123 18 -171 5 l-29 -7 6 48 c5 39 3 51 -9 55 -20 8 -39 8 -47 0z
m148 -254 c0 -11 -13 -16 -47 -18 -37 -2 -48 0 -48 12 0 17 22 25 65 23 19 -1
30 -7 30 -17z m-140 -10 c0 -20 -74 -27 -86 -9 -13 22 1 30 44 27 29 -2 42 -8
42 -18z m125 -40 c0 -17 -7 -20 -40 -20 -50 0 -57 27 -7 33 17 2 35 5 40 5 4
1 7 -7 7 -18z m-130 -10 c0 -16 -7 -20 -35 -20 -46 0 -48 27 -2 33 17 2 33 5
35 5 1 1 2 -7 2 -18z"/>
  <path d="M545 564 c-35 -31 -37 -35 -15 -29 77 18 101 29 98 44 -6 28 -42 22
-83 -15z"/>
  <path d="M300 570 c0 -15 42 -50 62 -50 24 0 24 36 -1 50 -25 13 -61 13 -61 0z"/>
  <path d="M545 464 c32 -25 112 -64 119 -57 24 25 -19 54 -99 67 -38 6 -39 6
-20 -10z"/>
  <path d="M342 457 c-6 -7 -32 -23 -57 -36 -68 -34 -46 -38 35 -7 71 28 83 39
54 50 -21 8 -20 8 -32 -7z"/>
  <path d="M512 238 c3 -21 -2 -23 -57 -29 -33 -3 -67 -2 -75 2 -8 5 -10 9 -5 9
6 0 3 5 -5 10 -8 5 -24 9 -35 9 -11 0 -14 -3 -7 -6 27 -11 12 -33 -23 -33 -19
0 -35 -4 -35 -10 0 -5 20 -10 45 -10 41 0 45 -2 45 -25 0 -23 -3 -25 -52 -26
-29 -1 -78 -4 -108 -8 l-55 -7 37 -11 c28 -9 63 -8 143 3 58 7 109 13 113 13
37 -6 362 3 362 9 0 23 -56 33 -151 26 -87 -6 -99 -5 -99 9 0 22 31 37 74 37
20 0 36 5 36 10 0 6 -21 10 -46 10 -37 0 -47 4 -51 20 -4 13 -14 20 -30 20
-19 0 -24 -4 -21 -22z m-2 -73 c0 -24 -3 -25 -60 -25 -53 0 -60 2 -60 19 0 15
8 21 38 24 83 8 82 9 82 -18z"/>
  <path d="M577 55 c48 -44 93 -59 93 -30 0 22 -36 51 -79 63 -63 19 -65 14 -14
-33z"/>
  <path d="M330 72 c-8 -10 -28 -27 -44 -37 -16 -11 -24 -21 -18 -23 16 -5 132
52 129 63 -6 18 -51 16 -67 -3z"/>
</g>
<g id="part-1" class="char-part">
  <path d="M430 608 c0 -32 14 -58 30 -58 26 0 33 48 9 60 -24 14 -39 12 -39 -2z"/>
  <path d="M555 568 l-30 -31 27 6 c65 17 81 27 68 42 -18 22 -31 18 -65 -17z"/>
  <path d="M300 571 c0 -14 41 -41 62 -41 18 0 25 25 11 33 -20 12 -73 18 -73 8z"/>
</g>
<g id="part-2" class="char-part">
  <path d="M440 531 c0 -15 -11 -19 -61 -25 -34 -3 -77 -6 -96 -6 -23 0 -32 -4
-27 -11 5 -8 34 -9 97 -4 l90 7 -6 -35 c-7 -43 16 -82 33 -57 5 8 10 34 10 58
l0 42 99 0 c55 0 102 4 106 9 10 17 -35 23 -121 16 -74 -6 -84 -5 -84 9 0 9
-8 16 -20 16 -13 0 -20 -7 -20 -19z"/>
  <path d="M545 464 c21 -16 110 -64 120 -64 3 0 5 8 5 18 0 21 -25 36 -85 51
-54 15 -64 13 -40 -5z"/>
  <path d="M345 460 c-3 -6 -32 -24 -63 -40 -43 -22 -51 -29 -33 -30 32 0 143
50 138 64 -5 15 -34 19 -42 6z"/>
</g>
<g id="part-3" class="char-part">
  <path d="M465 394 c-49 -7 -109 -13 -131 -13 l-42 -1 19 -37 c10 -21 19 -45
19 -55 0 -28 21 -31 128 -20 67 7 101 7 110 0 7 -6 14 -9 16 -7 7 7 56 122 54
124 -2 1 -13 7 -25 14 -25 13 -27 13 -148 -5z m105 -34 c0 -17 -7 -20 -45 -20
-32 0 -45 4 -45 14 0 16 19 23 63 25 21 1 27 -4 27 -19z m-140 -10 c0 -17 -7
-20 -39 -20 -24 0 -41 5 -44 14 -8 20 2 26 45 26 31 0 38 -3 38 -20z m133 -26
c15 -16 -8 -34 -44 -34 -50 0 -55 27 -6 33 17 2 35 5 38 5 3 1 8 -1 12 -4z
m-133 -24 c0 -16 -7 -20 -35 -20 -40 0 -50 26 -12 33 42 8 47 7 47 -13z"/>
</g>
<g id="part-4" class="char-part">
  <path d="M514 235 c6 -23 4 -25 -26 -25 -18 0 -50 -3 -70 -6 -30 -5 -38 -3
-38 9 0 15 -20 27 -48 27 -12 0 -13 -3 -4 -12 21 -21 13 -28 -30 -28 -53 0
-39 -17 17 -22 33 -2 41 -7 43 -25 3 -22 0 -23 -55 -24 -32 0 -80 -4 -108 -8
l-50 -6 33 -12 c26 -10 55 -9 139 2 62 9 183 15 294 15 104 1 189 5 189 9 0
20 -65 30 -156 24 -90 -6 -94 -5 -94 14 0 25 18 33 71 33 21 0 39 5 39 10 0 6
-22 10 -50 10 -36 0 -50 4 -50 14 0 13 -20 26 -42 26 -6 0 -8 -10 -4 -25z m-2
-70 c-4 -22 -10 -25 -48 -26 -24 -1 -50 -2 -56 -3 -7 -1 -14 9 -16 21 -3 23
12 28 89 32 34 1 36 -1 31 -24z"/>
</g>
<g id="part-5" class="char-part">
  <path d="M575 66 c54 -49 72 -59 78 -43 6 16 -12 41 -36 50 -12 5 -16 3 -12
-6 4 -6 -1 -3 -9 7 -9 11 -19 17 -22 13 -4 -4 -14 -2 -23 5 -9 6 2 -6 24 -26z"/>
  <path d="M321 56 c-28 -29 -30 -34 -12 -29 11 3 21 10 21 15 0 5 5 6 12 2 6
-4 8 -3 4 4 -3 6 -2 13 4 17 5 3 10 1 10 -4 0 -7 7 -7 20 1 18 12 19 13 2 20
-26 10 -26 10 -61 -26z"/>
</g>
</g>
</svg>