<?xml version="1.0" standalone="no"?>
<!DOCTYPE svg PUBLIC "-//W3C//DTD SVG 20010904//EN"
 "http://www.w3.org/TR/2001/REC-SVG-20010904/DTD/svg10.dtd">
<svg version="1.0" xmlns="http://www.w3.org/2000/svg"
 width="96.000000pt" height="68.000000pt" viewBox="0 0 96.000000 68.000000"
 preserveAspectRatio="xMidYMid meet">
<metadata>
Created by potrace 1.16, written by Peter Selinger 2001-2019
Combined from part_0.svg through part_5.svg with named groups
</metadata>
<g transform="translate(0.000000,68.000000) scale(0.100000,-0.100000)" fill="#000000" stroke="none">
<g id="part-0" class="char-part">
  <path d="M670 565 l-35 -13 30 -1 c45 -1 105 11 105 20 0 13 -60 9 -100 -6z"/>
  <path d="M470 545 l-45 -13 52 -1 c55 -1 83 6 83 20 0 12 -36 10 -90 -6z"/>
  <path d="M325 530 c-16 -4 -63 -8 -104 -9 -66 -1 -72 -3 -65 -18 5 -10 9 -65
9 -123 l0 -105 25 1 c14 1 55 5 93 9 l67 8 0 -57 c0 -31 -7 -73 -15 -92 -14
-33 -17 -35 -47 -29 l-33 7 32 -33 32 -33 24 22 c13 12 24 28 25 35 1 6 8 46
16 87 9 41 15 83 16 92 0 18 -40 34 -72 29 -15 -2 -16 2 -9 21 5 15 18 24 35
26 36 5 33 22 -4 22 -23 0 -30 4 -30 20 0 15 7 20 24 20 35 0 42 18 9 22 -42
5 -38 40 5 49 33 7 49 16 41 23 -11 10 -47 13 -74 6z m-45 -65 c0 -20 -5 -25
-24 -25 -14 0 -28 -4 -31 -10 -4 -6 6 -10 24 -10 53 0 49 -32 -6 -44 l-32 -7
0 60 1 61 34 0 c30 0 34 -3 34 -25z m-2 -127 c-2 -18 -11 -24 -35 -26 -30 -3
-33 -1 -33 22 0 23 4 26 36 26 31 0 35 -3 32 -22z"/>
  <path d="M681 511 c-39 -5 -46 -10 -53 -36 -4 -16 -5 -39 -2 -51 5 -21 3 -22
-23 -15 -28 8 -29 12 -17 62 5 21 2 27 -16 32 -11 3 -35 1 -53 -4 -17 -5 -44
-9 -59 -9 -27 0 -28 -2 -28 -50 0 -49 12 -66 24 -34 3 9 6 28 6 44 0 24 5 28
37 33 48 8 54 3 48 -43 -5 -38 7 -61 20 -40 5 8 11 7 21 -1 23 -19 16 -29 -20
-29 -18 0 -61 -3 -95 -6 -55 -6 -60 -8 -47 -23 21 -25 3 -149 -34 -222 -24
-48 -26 -57 -11 -50 10 6 32 40 50 76 18 36 38 64 44 62 8 -3 11 -31 10 -86
-1 -45 3 -81 8 -81 11 0 89 50 89 57 0 2 -12 3 -27 1 -30 -3 -33 0 -33 32 0
16 7 20 34 20 19 0 38 5 42 12 5 8 -4 10 -34 6 -36 -5 -41 -4 -45 18 -5 26 -6
25 78 28 l40 1 3 -70 c2 -57 6 -73 23 -87 38 -32 199 -19 199 16 0 6 -8 23
-18 38 l-18 28 -13 -35 c-12 -34 -14 -35 -64 -35 -74 0 -80 7 -79 79 0 33 3
65 6 69 3 5 19 8 37 7 20 -1 33 3 36 14 4 9 12 23 20 32 21 25 -16 53 -61 46
-30 -5 -35 -3 -39 19 -4 23 -3 24 59 24 35 0 64 4 64 9 0 15 -42 21 -99 14
l-54 -6 7 29 c5 16 10 40 13 54 5 31 19 40 61 40 34 0 36 -5 33 -62 -2 -44 22
-33 40 16 24 66 10 73 -110 57z m-53 -179 c2 -14 -2 -22 -11 -22 -9 0 -23 -3
-32 -6 -11 -5 -18 0 -22 15 -3 11 -10 22 -17 22 -6 1 5 5 24 9 47 10 54 7 58
-18z m-98 -28 c0 -15 -48 -13 -54 3 -3 7 2 20 11 29 15 15 18 15 30 -2 7 -10
13 -23 13 -30z m90 -39 c0 -20 -5 -25 -25 -25 -18 0 -25 5 -25 18 0 24 8 32
32 32 13 0 18 -7 18 -25z m100 18 c0 -17 -16 -30 -42 -37 -23 -5 -28 -3 -28
12 0 10 3 22 7 25 9 9 63 9 63 0z m-182 -31 c3 -20 -1 -22 -38 -22 -34 0 -41
3 -36 16 3 9 6 19 6 24 0 4 15 7 33 6 25 -1 33 -6 35 -24z"/>
  <path d="M680 461 c0 -6 10 -17 22 -26 26 -17 37 -3 18 20 -14 17 -40 20 -40
6z"/>
  <path d="M484 444 c3 -9 6 -18 6 -20 0 -2 7 -4 15 -4 18 0 19 12 3 28 -17 17
-31 15 -24 -4z"/>
  <path d="M280 254 c0 -13 21 -42 35 -48 20 -7 20 18 -1 38 -15 16 -34 21 -34
10z"/>
  <path d="M210 245 c0 -14 33 -54 41 -50 10 7 0 37 -15 47 -13 9 -26 10 -26 3z"/>
  <path d="M92 210 c-16 -36 -12 -65 8 -65 16 0 29 47 22 78 -6 25 -15 21 -30
-13z"/>
  <path d="M156 231 c-7 -11 23 -53 34 -46 12 7 1 43 -16 49 -7 3 -16 2 -18 -3z"/>
  <path d="M730 190 c0 -6 -11 -16 -25 -22 -14 -6 -25 -15 -25 -20 0 -10 24 -4
80 19 27 11 32 16 20 23 -20 13 -50 13 -50 0z"/>
</g>
<g id="part-1" class="char-part">
  <path d="M290 518 c-25 -5 -63 -7 -85 -5 l-40 4 1 -119 c0 -65 3 -121 7 -124
3 -3 21 -1 39 5 18 5 57 13 86 17 28 4 52 11 52 17 0 10 -92 3 -124 -9 -14 -5
-16 6 -16 89 l0 95 28 6 c15 2 57 8 95 11 37 4 65 11 62 16 -7 11 -44 10 -105
-3z"/>
</g>
<g id="part-2" class="char-part">
  <path d="M280 240 c15 -27 47 -44 56 -28 8 13 -30 48 -52 48 -12 0 -12 -4 -4
-20z"/>
  <path d="M217 233 c14 -39 43 -58 43 -29 0 16 -26 46 -40 46 -5 0 -7 -8 -3
-17z"/>
  <path d="M90 201 c-12 -38 -8 -61 11 -61 15 0 31 51 24 77 -8 34 -20 28 -35
-16z"/>
  <path d="M150 235 c0 -12 24 -55 31 -55 18 0 20 23 3 41 -16 17 -34 25 -34 14z"/>
</g>
<g id="part-3" class="char-part">
  <path d="M465 544 l-40 -13 64 2 c41 1 66 7 69 15 5 16 -40 14 -93 -4z"/>
</g>
<g id="part-4" class="char-part">
  <path d="M665 565 l-40 -13 41 -1 c52 -1 104 9 104 20 0 13 -59 10 -105 -6z"/>
</g>
<g id="part-5" class="char-part">
  <path d="M645 148 c0 -46 5 -68 17 -82 10 -11 18 -16 18 -10 0 5 5 2 10 -6 8
-13 10 -12 10 3 0 9 -6 17 -14 17 -19 0 -29 33 -27 92 0 26 -3 48 -7 48 -4 0
-8 -28 -7 -62z"/>
  <path d="M733 184 c-19 -20 -16 -23 14 -18 32 6 44 14 21 14 -9 0 -18 4 -20 9
-1 5 -9 3 -15 -5z"/>
  <path d="M822 115 c5 -30 -24 -53 -67 -51 -23 1 -40 -4 -42 -12 -8 -21 79 -12
99 10 12 14 17 15 21 6 3 -9 7 -8 12 4 4 10 0 26 -10 40 -15 21 -16 21 -13 3z
m-75 -61 c-3 -3 -12 -4 -19 -1 -8 3 -5 6 6 6 11 1 17 -2 13 -5z"/>
</g>
</g>
</svg>