<?xml version="1.0" standalone="no"?>
<!DOCTYPE svg PUBLIC "-//W3C//DTD SVG 20010904//EN"
 "http://www.w3.org/TR/2001/REC-SVG-20010904/DTD/svg10.dtd">
<svg version="1.0" xmlns="http://www.w3.org/2000/svg"
 width="96.000000pt" height="68.000000pt" viewBox="0 0 96.000000 68.000000"
 preserveAspectRatio="xMidYMid meet">
<metadata>
Created by potrace 1.16, written by Peter Selinger 2001-2019
Combined from part_0.svg through part_5.svg with named groups
</metadata>
<g transform="translate(0.000000,68.000000) scale(0.100000,-0.100000)" fill="#000000" stroke="none">
<g id="part-0" class="char-part">
  <path d="M560 570 c12 -16 18 -34 15 -40 -3 -5 -31 -10 -61 -10 -30 0 -54 -4
-54 -10 0 -5 7 -10 15 -10 14 0 55 -76 55 -102 0 -7 -15 -9 -40 -5 -39 5 -41
4 -61 -35 -21 -42 -19 -71 4 -62 18 6 39 52 31 65 -4 6 16 9 53 7 55 -3 58 -4
61 -30 3 -29 -6 -33 -78 -29 -25 2 -25 1 -25 -81 0 -71 3 -83 18 -86 14 -3 17
5 17 53 0 69 13 95 45 95 l25 0 0 -135 c0 -125 8 -161 25 -117 3 9 9 72 12
140 l6 122 39 0 38 0 0 -66 c0 -66 0 -66 -25 -60 -31 8 -32 0 -2 -25 46 -39
62 -19 72 93 l7 77 -35 6 c-20 4 -48 4 -64 1 -28 -6 -29 -5 -29 28 l0 34 64 7
c35 4 66 4 69 2 2 -3 0 -15 -7 -26 -12 -24 -4 -26 63 -15 45 8 47 24 6 48 -25
15 -42 17 -96 11 l-65 -7 26 44 c14 23 25 48 25 53 0 6 10 11 21 13 26 4 20
27 -6 26 -10 -1 -38 -5 -61 -9 -42 -7 -43 -7 -43 19 0 19 -7 29 -26 36 -48 19
-58 13 -34 -20z m100 -75 c0 -8 -6 -33 -12 -55 -12 -37 -15 -40 -50 -40 -32 0
-38 3 -38 20 0 12 -12 33 -27 48 l-27 27 49 6 c91 11 105 10 105 -6z"/>
  <path d="M275 489 c-100 -16 -115 -20 -115 -29 0 -6 13 -10 29 -10 17 0 32 -4
35 -9 9 -14 -53 -125 -101 -180 -52 -60 -37 -68 31 -16 49 37 47 38 61 -32 6
-31 25 -56 25 -34 0 7 22 11 53 11 l52 0 23 66 c13 36 21 69 18 72 -8 7 -61 6
-114 -4 l-44 -7 32 52 c18 28 30 58 27 65 -6 16 13 26 49 26 32 0 66 18 59 31
-7 11 -49 10 -120 -2z m55 -191 c0 -7 -3 -30 -6 -50 -6 -36 -8 -38 -45 -38
-24 0 -39 5 -40 13 -1 6 -3 26 -5 44 -3 26 0 32 19 36 46 9 77 7 77 -5z"/>
</g>
<g id="part-1" class="char-part">
  <path d="M257 481 c-92 -15 -120 -31 -55 -31 19 0 28 -5 28 -15 0 -25 -36 -88
-89 -159 -44 -58 -47 -64 -23 -52 60 32 179 187 167 218 -5 12 6 17 49 22 56
7 70 18 40 30 -9 3 -16 6 -17 5 -1 -1 -46 -9 -100 -18z"/>
</g>
<g id="part-2" class="char-part">
  <path d="M310 330 c-14 -4 -39 -8 -56 -9 -49 -2 -57 -19 -43 -90 11 -58 21
-73 34 -51 3 6 31 10 60 10 43 0 53 3 49 14 -3 8 4 32 15 55 25 48 26 67 5 75
-19 7 -31 7 -64 -4z m16 -62 c-4 -22 -9 -45 -12 -50 -9 -14 -74 -9 -74 6 0 7
-3 27 -6 44 -7 33 2 37 70 41 28 1 28 0 22 -41z"/>
</g>
<g id="part-3" class="char-part">
  <path d="M546 588 c4 -7 14 -21 23 -31 13 -16 13 -19 1 -27 -8 -6 -36 -10 -62
-10 -45 0 -64 -12 -35 -22 20 -8 269 20 279 30 16 16 -26 24 -73 13 -60 -14
-59 -14 -59 14 0 26 -25 45 -60 45 -14 0 -19 -4 -14 -12z"/>
</g>
<g id="part-4" class="char-part">
  <path d="M680 409 c-25 -4 -88 -10 -140 -13 l-94 -6 -20 -41 c-16 -34 -17 -42
-5 -50 10 -6 19 2 33 31 17 34 25 40 50 40 17 0 72 7 121 15 50 8 101 15 114
15 23 0 23 0 5 -46 -4 -8 11 -8 51 -1 62 12 69 25 26 50 -31 18 -67 20 -141 6z"/>
</g>
<g id="part-5" class="char-part">
  <path d="M672 319 c-13 -5 -28 -7 -33 -3 -5 3 -9 0 -9 -7 0 -7 11 -9 34 -5 29
6 37 3 46 -15 9 -15 9 -24 1 -32 -16 -16 -14 -48 5 -68 12 -13 12 -19 3 -25
-7 -4 -10 -3 -5 4 3 6 2 13 -4 17 -5 3 -10 2 -10 -4 0 -5 -8 -11 -17 -13 -15
-3 -15 -4 1 -21 17 -17 19 -17 36 3 12 14 18 36 17 68 0 26 3 57 7 70 7 21 -1
27 -26 23 -5 0 -8 4 -8 9 0 12 -7 12 -38 -1z"/>
  <path d="M588 303 c6 -2 18 -2 25 0 6 3 1 5 -13 5 -14 0 -19 -2 -12 -5z"/>
  <path d="M498 293 c7 -3 16 -2 19 1 4 3 -2 6 -13 5 -11 0 -14 -3 -6 -6z"/>
  <path d="M492 248 c0 -18 -3 -46 -5 -63 -5 -36 2 -53 14 -34 11 18 12 129 1
129 -5 0 -9 -15 -10 -32z"/>
</g>
</g>
</svg>