<?xml version="1.0" standalone="no"?>
<!DOCTYPE svg PUBLIC "-//W3C//DTD SVG 20010904//EN"
 "http://www.w3.org/TR/2001/REC-SVG-20010904/DTD/svg10.dtd">
<svg version="1.0" xmlns="http://www.w3.org/2000/svg"
 width="96.000000pt" height="68.000000pt" viewBox="0 0 96.000000 68.000000"
 preserveAspectRatio="xMidYMid meet">
<metadata>
Created by potrace 1.16, written by Peter Selinger 2001-2019
Combined from part_0.svg through part_5.svg with named groups
</metadata>
<g transform="translate(0.000000,68.000000) scale(0.100000,-0.100000)" fill="#000000" stroke="none">
<g id="part-0" class="char-part">
  <path d="M650 546 c-16 -25 -30 -47 -30 -50 0 -5 97 49 109 60 5 5 -30 33 -41
34 -4 0 -21 -20 -38 -44z"/>
  <path d="M255 541 c-3 -16 -23 -53 -44 -83 -53 -76 -54 -78 -38 -78 7 0 31 15
53 33 21 19 51 37 66 40 l27 7 -32 -56 -32 -55 -63 3 c-59 3 -63 2 -57 -17 4
-11 14 -49 22 -85 7 -35 15 -65 16 -67 2 -1 34 2 72 8 38 5 87 6 109 3 53 -9
94 -9 308 1 155 7 176 10 166 23 -10 11 -29 13 -90 9 -43 -3 -78 -3 -78 0 0 3
11 14 25 25 19 15 23 23 15 32 -14 18 -2 26 37 26 23 0 32 4 27 11 -4 8 -29 9
-75 5 -68 -7 -69 -7 -69 17 0 28 16 37 66 37 19 0 34 5 34 11 0 7 -18 10 -50
7 -46 -3 -50 -1 -50 20 0 25 5 28 73 37 50 7 65 25 20 25 -15 0 -78 -8 -140
-17 -113 -17 -144 -37 -49 -32 45 3 51 1 54 -18 3 -22 -19 -33 -70 -33 -16 0
-28 -4 -28 -10 0 -5 23 -10 51 -10 47 0 50 -2 47 -22 -3 -20 -11 -24 -67 -30
-63 -7 -92 -17 -55 -19 10 -1 23 -1 27 0 9 1 41 -69 34 -75 -9 -9 -137 -16
-137 -8 0 5 9 39 19 76 l18 66 -23 12 c-13 7 -36 10 -54 7 l-31 -7 21 30 c11
16 34 39 50 50 17 12 30 30 30 40 0 23 -40 33 -75 20 -36 -14 -36 -13 -23 15
8 19 8 28 -2 40 -21 25 -48 18 -55 -14z m105 -227 c0 -22 -4 -25 -32 -22 -25
2 -34 8 -36 25 -3 17 3 22 25 25 37 5 43 1 43 -28z m-112 -6 c3 -22 -1 -26
-28 -30 -35 -5 -40 -2 -40 28 0 16 7 24 23 27 34 6 42 2 45 -25z m407 -18 c4
-6 1 -23 -6 -39 -11 -24 -20 -30 -52 -33 -36 -3 -40 -1 -53 30 -8 19 -14 36
-14 38 0 1 21 5 48 7 26 2 52 4 59 5 6 1 15 -3 18 -8z m-305 -45 c0 -21 -5
-25 -28 -25 -35 0 -41 6 -35 31 4 13 14 19 34 19 24 0 29 -4 29 -25z m-100
-10 c0 -20 -5 -25 -24 -25 -22 0 -36 16 -36 41 0 5 14 9 30 9 25 0 30 -4 30
-25z"/>
  <path d="M480 555 c0 -12 54 -65 67 -65 27 0 13 38 -21 54 -36 17 -46 19 -46
11z"/>
  <path d="M360 157 c0 -2 9 -14 20 -27 22 -26 41 -19 24 8 -10 15 -44 30 -44
19z"/>
  <path d="M450 153 c0 -4 9 -33 19 -63 21 -62 6 -58 173 -45 60 5 76 10 71 20
-2 8 8 26 23 40 50 46 6 58 -176 45 -36 -2 -75 -1 -87 4 -13 4 -23 4 -23 -1z
m223 -47 c-1 -16 -4 -30 -5 -32 -2 -1 -38 -6 -79 -10 l-76 -7 -5 27 c-7 34 7
44 67 49 93 7 100 5 98 -27z"/>
  <path d="M290 120 c16 -23 25 -29 34 -20 15 15 -5 44 -34 48 l-23 4 23 -32z"/>
  <path d="M118 115 c-21 -28 -24 -79 -5 -73 17 6 47 67 40 84 -7 20 -15 17 -35
-11z"/>
  <path d="M200 132 c0 -5 10 -19 21 -31 20 -22 23 -22 32 -6 7 14 5 21 -9 32
-20 15 -44 17 -44 5z"/>
</g>
<g id="part-1" class="char-part">
  <path d="M257 532 c-3 -15 -26 -56 -52 -90 -42 -58 -43 -62 -18 -48 16 8 39
26 52 40 15 16 35 26 53 26 l28 0 -25 -50 c-35 -68 -14 -65 60 10 49 50 57 62
45 70 -20 13 -57 12 -82 -1 -27 -14 -35 -4 -15 19 21 23 22 38 1 46 -30 11
-42 6 -47 -22z"/>
</g>
<g id="part-2" class="char-part">
  <path d="M372 138 c8 -12 20 -24 26 -26 18 -6 14 35 -4 42 -30 11 -37 6 -22
-16z"/>
  <path d="M122 121 c-26 -35 -30 -81 -7 -81 8 0 15 2 15 4 0 2 6 19 14 37 7 19
11 42 7 52 -6 16 -9 14 -29 -12z"/>
  <path d="M200 136 c0 -8 9 -24 19 -37 16 -20 22 -22 33 -11 16 16 2 42 -30 53
-16 6 -22 5 -22 -5z"/>
  <path d="M290 120 c15 -20 26 -28 32 -22 19 19 4 47 -26 50 l-28 4 22 -32z"/>
</g>
<g id="part-3" class="char-part">
  <path d="M643 539 c-17 -27 -28 -49 -25 -49 15 0 112 61 112 70 0 10 -33 30
-47 29 -4 0 -22 -22 -40 -50z"/>
  <path d="M480 553 c0 -13 53 -63 67 -63 27 0 13 38 -21 54 -38 18 -46 19 -46
9z"/>
  <path d="M645 475 c-5 -2 -50 -9 -98 -15 -64 -9 -86 -15 -78 -23 16 -16 271
16 271 34 0 9 -74 11 -95 4z"/>
</g>
<g id="part-4" class="char-part">
  <path d="M577 419 c7 -27 -11 -39 -60 -39 -23 0 -36 -4 -32 -10 3 -5 26 -10
51 -10 41 0 45 -2 42 -22 -3 -20 -11 -24 -67 -30 -35 -4 -66 -10 -70 -14 -7
-8 221 4 289 15 38 6 42 8 22 15 -12 4 -47 4 -77 1 -54 -7 -55 -7 -55 18 0 26
20 37 73 37 15 0 27 5 27 10 0 6 -22 10 -50 10 -43 0 -50 3 -50 20 0 14 -7 20
-24 20 -20 0 -23 -4 -19 -21z"/>
</g>
<g id="part-5" class="char-part">
  <path d="M670 150 c-13 -8 -13 -10 1 -10 11 0 16 -9 16 -30 0 -16 -4 -27 -8
-25 -4 3 -9 -1 -12 -9 -3 -8 1 -17 9 -20 8 -3 14 0 14 7 0 8 4 7 11 -3 9 -13
10 -12 5 3 -4 12 3 26 19 41 14 13 25 26 25 29 0 4 -57 28 -64 27 -1 0 -8 -5
-16 -10z"/>
  <path d="M460 142 c0 -12 15 -27 28 -29 21 -5 13 24 -8 30 -11 3 -20 2 -20 -1z"/>
  <path d="M490 91 c10 -7 11 -11 3 -11 -10 0 -10 -6 -2 -24 7 -15 17 -22 26
-19 8 3 10 8 5 12 -5 3 -11 15 -13 25 -2 11 -11 21 -19 23 -13 4 -13 3 0 -6z"/>
  <path d="M590 50 c0 -13 11 -13 30 0 12 8 11 10 -7 10 -13 0 -23 -4 -23 -10z"/>
  <path d="M548 43 c6 -2 18 -2 25 0 6 3 1 5 -13 5 -14 0 -19 -2 -12 -5z"/>
</g>
</g>
</svg>