<?xml version="1.0" standalone="no"?>
<!DOCTYPE svg PUBLIC "-//W3C//DTD SVG 20010904//EN"
 "http://www.w3.org/TR/2001/REC-SVG-20010904/DTD/svg10.dtd">
<svg version="1.0" xmlns="http://www.w3.org/2000/svg"
 width="96.000000pt" height="68.000000pt" viewBox="0 0 96.000000 68.000000"
 preserveAspectRatio="xMidYMid meet">
<metadata>
Created by potrace 1.16, written by Peter Selinger 2001-2019
Combined from part_0.svg through part_5.svg with named groups
</metadata>
<g transform="translate(0.000000,68.000000) scale(0.100000,-0.100000)" fill="#000000" stroke="none">
<g id="part-0" class="char-part">
  <path d="M490 543 c-30 -7 -91 -15 -135 -16 l-80 -2 0 -110 c0 -103 -2 -114
-32 -177 -19 -40 -53 -89 -83 -119 -28 -28 -49 -53 -47 -56 8 -7 80 34 114 65
32 30 71 99 92 164 11 33 15 37 32 28 10 -6 29 -20 42 -33 12 -12 63 -58 112
-102 48 -44 94 -86 102 -93 20 -20 67 -31 115 -26 122 14 132 22 51 44 -101
28 -188 72 -300 152 -113 80 -116 83 -87 89 16 4 66 7 111 8 75 1 112 12 81
24 -9 3 -2 26 24 76 l37 71 -29 15 c-34 18 -47 17 -120 -2z m50 -53 c0 -11 -6
-36 -14 -54 -15 -36 -44 -46 -138 -46 l-48 0 0 38 c0 20 4 42 8 49 7 11 99 29
165 32 21 1 27 -4 27 -19z"/>
</g>
<g id="part-1" class="char-part">
  <path d="M510 544 c-25 -8 -89 -17 -143 -21 -84 -5 -97 -8 -92 -22 16 -40 16
-120 1 -179 -22 -85 -49 -136 -109 -199 -57 -61 -51 -68 19 -20 57 39 108 116
131 200 l16 57 62 0 c84 0 189 12 176 19 -7 5 1 31 21 71 18 36 34 68 36 73 3
6 -61 39 -70 36 -2 -1 -23 -7 -48 -15z m35 -66 c-16 -78 -22 -82 -114 -91 -48
-4 -89 -3 -94 2 -5 5 -5 29 -2 55 7 41 10 46 39 51 71 11 83 12 129 14 l49 1
-7 -32z"/>
</g>
<g id="part-2" class="char-part">
  <path d="M330 341 c0 -5 10 -15 23 -24 12 -8 76 -65 142 -126 137 -127 155
-135 264 -122 40 5 75 11 77 14 2 2 -33 16 -78 31 -117 40 -189 77 -287 150
-108 80 -141 98 -141 77z"/>
</g>
</g>
</svg>