<?xml version="1.0" standalone="no"?>
<!DOCTYPE svg PUBLIC "-//W3C//DTD SVG 20010904//EN"
 "http://www.w3.org/TR/2001/REC-SVG-20010904/DTD/svg10.dtd">
<svg version="1.0" xmlns="http://www.w3.org/2000/svg"
 width="96.000000pt" height="68.000000pt" viewBox="0 0 96.000000 68.000000"
 preserveAspectRatio="xMidYMid meet">
<metadata>
Created by potrace 1.16, written by Peter Selinger 2001-2019
Combined from part_0.svg through part_5.svg with named groups
</metadata>
<g transform="translate(0.000000,68.000000) scale(0.100000,-0.100000)" fill="#000000" stroke="none">
<g id="part-0" class="char-part">
  <path d="M580 535 c-16 -26 -29 -35 -48 -35 l-26 0 24 -17 c14 -9 62 -51 106
-95 85 -81 105 -90 172 -72 32 9 27 18 -15 33 -50 18 -107 43 -113 51 -3 4
-16 13 -29 20 l-24 12 24 18 c13 10 36 21 51 24 33 6 36 21 8 36 -17 9 -25 6
-54 -25 -18 -19 -38 -35 -43 -35 -15 0 -49 42 -38 47 6 1 26 13 45 24 32 20
33 22 15 35 -27 20 -31 18 -55 -21z"/>
  <path d="M190 529 c0 -16 57 -69 75 -69 29 0 30 32 1 57 -28 24 -76 32 -76 12z"/>
  <path d="M380 525 l-45 -13 48 -1 c26 -1 47 -3 47 -6 0 -14 -41 -85 -49 -85
-5 0 -14 7 -21 15 -7 8 -22 15 -33 15 -19 0 -19 -2 7 -29 l27 -28 -26 -31
c-14 -17 -35 -34 -45 -37 -11 -4 -20 -11 -20 -16 0 -26 103 49 155 113 92 112
80 139 -45 103z"/>
  <path d="M128 373 c27 -38 42 -49 67 -49 24 1 32 37 12 54 -7 6 -33 14 -57 18
l-44 7 22 -30z"/>
  <path d="M450 365 l-55 -13 60 -1 c74 -1 136 9 129 20 -7 12 -68 9 -134 -6z"/>
  <path d="M515 300 c-27 -5 -76 -9 -108 -9 -53 -1 -57 -3 -43 -16 17 -17 38
-84 30 -96 -3 -5 4 -26 15 -47 11 -22 17 -42 14 -46 -4 -3 -23 -6 -43 -6 -57
0 -104 -11 -89 -21 11 -7 125 -6 409 4 30 1 56 7 57 12 4 17 -49 26 -114 20
-68 -7 -75 -1 -43 33 17 17 19 30 14 58 -6 30 -2 40 22 65 28 30 28 31 10 45
-21 15 -52 16 -131 4z m60 -47 c-9 -39 -11 -40 -87 -48 l-68 -7 0 26 c0 14 0
29 -1 34 -1 11 41 20 105 21 l58 1 -7 -27z m-13 -113 c-2 -24 -4 -45 -5 -46
-1 -1 -23 -4 -49 -6 -44 -5 -48 -4 -48 17 0 12 -9 30 -20 40 -36 33 -21 41 75
40 l50 0 -3 -45z"/>
  <path d="M213 223 c-29 -33 -66 -66 -83 -73 -34 -14 -41 -51 -16 -85 18 -25
41 -14 63 29 10 19 35 62 56 95 56 90 45 109 -20 34z"/>
</g>
<g id="part-1" class="char-part">
  <path d="M215 500 c30 -31 59 -39 71 -18 11 17 -34 48 -69 48 l-31 0 29 -30z"/>
  <path d="M120 392 c0 -17 59 -64 76 -60 27 5 28 25 2 41 -29 18 -78 30 -78 19z"/>
  <path d="M200 207 c-36 -34 -74 -67 -85 -73 -17 -9 -18 -14 -6 -42 17 -40 43
-41 62 -2 8 16 34 61 58 100 24 39 42 72 40 75 -3 2 -34 -24 -69 -58z"/>
</g>
<g id="part-2" class="char-part">
  <path d="M380 525 l-45 -12 48 -4 47 -4 -20 -40 c-22 -43 -76 -106 -125 -143
-29 -22 -29 -23 -5 -17 49 13 99 55 159 133 77 101 63 122 -59 87z"/>
</g>
<g id="part-3" class="char-part">
  <path d="M510 500 c0 -5 4 -10 10 -10 5 0 53 -40 104 -90 101 -96 110 -100
191 -81 l30 8 -30 13 c-16 7 -54 23 -83 36 -29 13 -78 43 -110 67 -80 61 -112
78 -112 57z"/>
</g>
<g id="part-4" class="char-part">
  <path d="M566 140 c-6 -43 -10 -50 -29 -51 -12 0 -34 -2 -49 -3 -21 -1 -28 3
-28 17 0 19 -57 83 -66 74 -3 -3 4 -23 15 -46 12 -22 21 -43 21 -46 0 -3 -24
-5 -52 -6 -29 -1 -64 -4 -78 -9 l-25 -7 28 -8 c16 -4 55 -4 89 -1 33 4 129 7
214 7 84 0 156 4 159 9 10 17 -65 32 -125 25 -33 -4 -60 -4 -60 -1 0 4 10 20
21 36 24 32 20 60 -9 60 -16 0 -21 -10 -26 -50z"/>
</g>
</g>
</svg>