<?xml version="1.0" standalone="no"?>
<!DOCTYPE svg PUBLIC "-//W3C//DTD SVG 20010904//EN"
 "http://www.w3.org/TR/2001/REC-SVG-20010904/DTD/svg10.dtd">
<svg version="1.0" xmlns="http://www.w3.org/2000/svg"
 width="96.000000pt" height="68.000000pt" viewBox="0 0 96.000000 68.000000"
 preserveAspectRatio="xMidYMid meet">
<metadata>
Created by potrace 1.16, written by Peter Selinger 2001-2019
Combined from part_0.svg through part_5.svg with named groups
</metadata>
<g transform="translate(0.000000,68.000000) scale(0.100000,-0.100000)" fill="#000000" stroke="none">
<g id="part-0" class="char-part">
  <path d="M373 558 c2 -49 -1 -63 -13 -65 -8 -1 -45 -5 -82 -8 -38 -4 -68 -11
-68 -16 0 -5 7 -9 16 -9 13 0 14 -11 9 -82 -4 -46 -14 -105 -22 -133 -18 -59
-64 -155 -75 -155 -4 0 -8 -5 -8 -12 0 -23 68 54 93 105 15 30 35 102 48 170
l21 118 37 -3 c28 -2 36 -7 36 -23 0 -12 -9 -22 -25 -26 -22 -6 -22 -7 -4 -8
11 -1 29 -10 39 -21 15 -17 31 -20 92 -20 95 0 97 22 3 24 -76 1 -93 17 -32
30 56 13 55 30 -2 22 -40 -6 -44 -5 -39 12 3 15 18 22 62 29 69 11 87 7 70
-13 -17 -21 -7 -26 32 -13 50 17 54 25 24 45 -22 15 -35 16 -91 7 -58 -8 -64
-8 -64 9 0 13 11 19 49 24 61 8 82 20 61 34 -14 10 -37 8 -87 -6 -18 -5 -23
-2 -23 14 0 17 -23 31 -52 32 -3 0 -6 -28 -5 -62z"/>
  <path d="M758 408 c1 -90 -1 -199 -5 -243 l-8 -80 -35 3 -35 3 43 -43 43 -43
20 24 c16 20 19 39 19 145 1 156 9 293 21 330 13 40 12 41 -16 54 -51 23 -51
24 -47 -150z"/>
  <path d="M636 342 c0 -54 4 -103 8 -110 19 -31 26 -4 26 98 0 98 -2 110 -17
110 -16 0 -18 -11 -17 -98z"/>
  <path d="M393 327 c-78 -11 -98 -27 -35 -27 l37 -1 -27 -24 c-16 -13 -36 -28
-45 -34 -35 -19 -6 -20 32 -1 21 11 42 17 47 14 14 -9 -31 -53 -82 -80 -25
-12 -38 -23 -29 -24 8 0 41 16 73 35 64 39 76 42 76 21 0 -19 -52 -61 -111
-92 -27 -13 -49 -26 -49 -28 0 -11 69 17 113 44 27 16 50 30 52 30 7 0 -8 -75
-18 -87 -5 -7 -19 -13 -30 -13 -19 0 -19 -1 3 -20 29 -25 33 -25 56 1 12 14
19 40 22 85 2 35 6 64 9 64 3 0 17 -9 32 -19 32 -23 81 -37 81 -24 0 19 -36
41 -87 53 -29 6 -53 17 -53 24 0 6 -11 20 -24 30 -36 27 -16 54 46 62 26 4 45
10 42 15 -6 10 -32 10 -131 -4z"/>
  <path d="M513 260 c-25 -47 -21 -49 30 -14 31 21 36 28 26 40 -19 23 -33 16
-56 -26z"/>
</g>
<g id="part-1" class="char-part">
  <path d="M376 578 c11 -69 15 -78 29 -78 9 0 15 9 15 24 0 21 5 24 56 29 62 6
99 27 48 27 -16 0 -43 -4 -61 -9 -28 -8 -32 -7 -35 12 -2 16 -11 23 -30 25
-26 3 -27 1 -22 -30z"/>
</g>
<g id="part-2" class="char-part">
  <path d="M508 254 c-16 -25 -28 -49 -28 -54 0 -4 20 -20 44 -34 44 -25 76 -33
76 -18 -1 20 -21 34 -66 46 l-49 12 45 29 c25 15 47 29 49 31 7 6 -21 34 -33
34 -6 0 -23 -21 -38 -46z"/>
</g>
<g id="part-3" class="char-part">
  <path d="M636 341 c1 -55 5 -104 8 -110 19 -30 26 -2 26 99 0 98 -2 110 -18
110 -15 0 -17 -11 -16 -99z"/>
</g>
<g id="part-4" class="char-part">
  <path d="M755 335 c0 -259 -1 -265 -55 -246 l-32 11 38 -44 c78 -88 90 -62 97
209 4 119 11 224 18 243 10 29 9 35 -7 47 -11 8 -28 15 -39 15 -19 0 -20 -7
-20 -235z"/>
</g>
</g>
</svg>