<?xml version="1.0" standalone="no"?>
<!DOCTYPE svg PUBLIC "-//W3C//DTD SVG 20010904//EN"
 "http://www.w3.org/TR/2001/REC-SVG-20010904/DTD/svg10.dtd">
<svg version="1.0" xmlns="http://www.w3.org/2000/svg"
 width="96.000000pt" height="68.000000pt" viewBox="0 0 96.000000 68.000000"
 preserveAspectRatio="xMidYMid meet">
<metadata>
Created by potrace 1.16, written by Peter Selinger 2001-2019
Combined from part_0.svg through part_5.svg with named groups
</metadata>
<g transform="translate(0.000000,68.000000) scale(0.100000,-0.100000)" fill="#000000" stroke="none">
<g id="part-0" class="char-part">
  <path d="M521 583 c37 -46 43 -51 55 -46 33 13 -7 63 -49 63 -17 0 -18 -2 -6
-17z"/>
  <path d="M595 524 c-49 -8 -112 -13 -139 -11 -47 4 -49 3 -62 -29 -28 -66 -4
-90 26 -26 10 22 22 32 38 32 20 0 22 -4 16 -22 -3 -12 -13 -28 -21 -36 -8 -8
-11 -17 -8 -20 7 -8 75 59 75 74 0 6 14 14 30 16 27 4 30 2 30 -23 0 -18 7
-32 19 -39 25 -13 111 -13 111 0 0 6 -22 10 -50 10 -46 0 -50 2 -50 24 0 31 4
33 64 41 47 5 48 5 42 -18 -5 -23 -4 -24 39 -17 58 9 62 13 29 39 -31 24 -58
25 -189 5z"/>
  <path d="M280 510 c-14 -4 -51 -8 -82 -9 -41 -1 -58 -5 -58 -14 0 -8 3 -17 8
-21 4 -4 14 -31 23 -59 14 -47 18 -52 42 -49 l27 3 1 -88 c1 -83 0 -115 -5
-120 -1 -2 -13 -4 -27 -5 -24 -3 -24 -2 -24 71 0 65 -2 75 -20 81 -11 4 -23 6
-26 4 -3 -1 -2 -29 2 -61 13 -104 13 -103 -27 -103 -41 0 -42 -17 -1 -40 22
-12 31 -13 59 -1 18 7 72 27 121 44 48 17 87 35 87 40 0 5 -12 6 -27 2 -82
-19 -75 -23 -71 31 3 48 3 49 41 54 21 3 36 10 35 15 -3 10 -7 11 -43 4 -17
-3 -20 2 -23 39 -3 41 -2 42 28 42 25 0 30 3 26 18 -3 9 3 34 14 55 11 20 20
43 20 51 0 25 -48 33 -100 16z m24 -57 c-3 -16 -7 -33 -9 -39 -2 -6 -18 -14
-36 -18 -37 -7 -49 4 -49 46 0 28 12 34 73 37 25 1 27 -1 21 -26z"/>
  <path d="M480 405 c-13 -14 -32 -25 -42 -25 -15 0 -17 -3 -8 -19 5 -11 10 -26
10 -35 0 -8 5 -27 10 -41 8 -21 13 -25 24 -16 7 6 54 12 103 12 l90 2 16 54
c10 30 15 59 12 64 -7 10 -67 10 -110 -1 -27 -7 -25 -8 18 -9 35 -1 47 -5 47
-16 0 -11 -11 -15 -39 -15 -22 0 -43 -4 -46 -10 -4 -6 10 -10 34 -10 28 0 41
-4 41 -14 0 -10 -21 -16 -75 -21 -94 -8 -89 -9 -93 9 -2 9 8 17 29 21 22 5 28
10 18 15 -7 5 -21 4 -30 -1 -10 -5 -20 -5 -23 -1 -8 13 7 30 38 41 15 6 26 16
24 23 -7 21 -24 19 -48 -7z"/>
  <path d="M650 242 c1 -118 68 -210 165 -228 34 -6 38 9 16 53 -10 21 -21 45
-24 53 -3 8 -6 0 -6 -17 -1 -43 -27 -44 -66 -3 -23 24 -30 41 -33 89 -4 50 -8
60 -28 70 -22 10 -24 8 -24 -17z"/>
  <path d="M529 178 c0 -46 -1 -96 -2 -113 -2 -33 21 -45 44 -23 8 8 29 24 47
37 41 28 35 39 -9 17 -37 -18 -49 -10 -41 30 3 16 11 24 26 24 11 0 28 5 36
10 11 7 4 10 -28 10 -40 0 -42 1 -32 20 6 12 21 20 35 20 14 0 25 5 25 10 0 6
-13 10 -29 10 -16 0 -31 6 -35 15 -3 8 -12 15 -21 15 -13 0 -16 -15 -16 -82z"/>
  <path d="M415 168 c0 -46 -2 -94 -5 -107 -7 -35 12 -36 48 -1 37 35 40 44 12
35 -17 -5 -20 -2 -20 24 0 28 3 31 30 31 17 0 30 5 30 11 0 7 -11 8 -30 4 -23
-5 -30 -3 -30 9 0 9 13 18 35 22 19 3 32 11 29 16 -3 5 -16 7 -29 4 -17 -4
-24 -1 -28 14 -3 11 -13 20 -24 20 -16 0 -18 -9 -18 -82z"/>
</g>
<g id="part-1" class="char-part">
  <path d="M260 500 c-14 -4 -46 -8 -72 -9 l-47 -1 14 -27 c8 -16 20 -47 25 -70
11 -42 23 -53 35 -33 3 6 23 10 43 10 52 0 82 10 82 27 0 7 9 32 20 54 12 22
18 44 15 49 -7 12 -79 11 -115 0z m45 -57 c-8 -44 -18 -53 -62 -53 -25 0 -33
4 -33 18 0 9 -3 27 -6 39 -7 24 6 30 70 32 l38 1 -7 -37z"/>
</g>
<g id="part-2" class="char-part">
  <path d="M270 165 c-47 -13 -109 -24 -137 -24 -57 -1 -64 -8 -33 -36 13 -11
29 -16 47 -12 45 8 243 81 243 90 0 11 -28 7 -120 -18z"/>
</g>
<g id="part-3" class="char-part">
  <path d="M526 570 c28 -46 64 -51 64 -9 0 19 -34 39 -66 39 -13 0 -12 -5 2
-30z"/>
  <path d="M566 522 c-84 -10 -125 -11 -136 -4 -14 8 -20 3 -38 -32 -13 -29 -17
-47 -11 -57 8 -11 13 -10 29 10 11 13 20 29 20 35 0 10 146 34 258 42 35 2 36
1 22 -27 -10 -18 -8 -18 37 -13 63 8 70 17 37 43 -31 24 -48 25 -218 3z"/>
</g>
<g id="part-4" class="char-part">
  <path d="M587 503 c-14 -13 -6 -53 12 -63 25 -13 111 -13 111 -1 0 6 -21 11
-47 13 -45 3 -48 4 -46 31 2 25 -14 36 -30 20z"/>
  <path d="M480 476 c0 -8 -6 -21 -12 -28 -7 -7 -20 -22 -28 -33 -14 -19 -14
-19 5 -6 35 26 75 64 75 73 0 4 -9 8 -20 8 -11 0 -20 -6 -20 -14z"/>
</g>
<g id="part-5" class="char-part">
  <path d="M653 241 c2 -10 9 -27 17 -37 9 -11 10 -15 3 -10 -7 4 -13 3 -13 -3
0 -5 5 -13 10 -16 6 -3 10 -17 10 -31 0 -31 27 -74 47 -74 8 0 12 -4 9 -8 -3
-5 11 -16 30 -25 57 -28 97 -19 59 13 -8 7 -13 15 -11 19 2 3 0 15 -5 26 -6
16 -8 14 -8 -13 l-1 -34 -36 21 c-19 12 -39 19 -44 16 -4 -3 -6 3 -3 14 3 10
0 22 -6 25 -6 4 -11 27 -11 52 0 27 -4 43 -10 39 -6 -4 -7 1 -3 10 3 10 0 21
-8 26 -22 14 -29 11 -26 -10z"/>
</g>
</g>
</svg>