<?xml version="1.0" standalone="no"?>
<!DOCTYPE svg PUBLIC "-//W3C//DTD SVG 20010904//EN"
 "http://www.w3.org/TR/2001/REC-SVG-20010904/DTD/svg10.dtd">
<svg version="1.0" xmlns="http://www.w3.org/2000/svg"
 width="96.000000pt" height="68.000000pt" viewBox="0 0 96.000000 68.000000"
 preserveAspectRatio="xMidYMid meet">
<metadata>
Created by potrace 1.16, written by Peter Selinger 2001-2019
Combined from part_0.svg through part_5.svg with named groups
</metadata>
<g transform="translate(0.000000,68.000000) scale(0.100000,-0.100000)" fill="#000000" stroke="none">
<g id="part-0" class="char-part">
  <path d="M467 613 c-4 -3 -7 -15 -7 -26 0 -34 -61 -136 -123 -203 -65 -71 -70
-92 -10 -48 48 35 95 87 131 141 15 24 31 43 36 43 5 0 40 -31 77 -68 129
-131 134 -134 193 -127 28 4 54 10 59 14 4 4 -17 15 -45 25 -66 24 -105 46
-196 116 -66 50 -72 58 -67 84 6 35 -28 70 -48 49z"/>
  <path d="M130 524 c0 -3 19 -23 42 -45 50 -46 88 -52 88 -14 0 21 -9 30 -42
45 -41 19 -88 26 -88 14z"/>
  <path d="M460 373 c-14 -2 -36 -6 -50 -10 l-25 -6 30 -8 c34 -10 155 8 155 22
0 9 -61 10 -110 2z"/>
  <path d="M221 324 c-14 -20 -46 -56 -72 -81 -47 -45 -48 -46 -33 -74 8 -16 19
-29 24 -29 11 0 113 197 108 211 -2 5 -14 -7 -27 -27z"/>
  <path d="M495 275 c-27 -7 -78 -14 -112 -14 -35 -1 -63 -5 -63 -11 0 -19 48
-21 134 -5 116 22 126 18 86 -40 -37 -54 -62 -70 -89 -55 -52 27 -49 6 6 -45
32 -30 64 -55 71 -55 24 0 25 31 2 55 -28 30 -22 39 66 97 35 22 64 44 64 49
0 4 -10 15 -22 23 -26 19 -73 19 -143 1z"/>
</g>
<g id="part-1" class="char-part">
  <path d="M150 515 c0 -16 69 -75 88 -75 21 0 26 29 8 49 -23 25 -96 44 -96 26z"/>
</g>
<g id="part-2" class="char-part">
  <path d="M211 317 c-22 -30 -57 -69 -78 -86 -37 -31 -38 -32 -23 -59 9 -15 22
-27 30 -27 14 0 126 212 117 222 -3 2 -23 -20 -46 -50z"/>
</g>
<g id="part-3" class="char-part">
  <path d="M458 582 c-7 -48 -58 -128 -137 -214 -58 -63 -60 -67 -31 -56 38 13
127 97 163 155 14 23 31 44 38 48 6 5 50 -32 108 -91 l96 -99 59 2 c84 2 88
16 14 43 -78 29 -95 39 -186 114 -63 51 -72 63 -67 84 4 17 0 28 -12 38 -29
22 -40 16 -45 -24z"/>
</g>
<g id="part-4" class="char-part">
  <path d="M485 377 c-22 -4 -51 -10 -65 -13 -21 -5 -22 -7 -8 -15 11 -6 40 -6
80 1 35 5 66 10 71 10 4 0 7 4 7 9 0 14 -41 18 -85 8z"/>
</g>
<g id="part-5" class="char-part">
  <path d="M415 148 c11 -6 26 -20 33 -30 7 -10 20 -18 28 -18 26 0 14 20 -26
40 -41 21 -69 28 -35 8z"/>
  <path d="M495 100 c-5 -15 -2 -26 6 -31 33 -21 49 5 21 33 l-20 20 -7 -22z
m26 -17 c13 -16 12 -17 -3 -4 -17 13 -22 21 -14 21 2 0 10 -8 17 -17z"/>
</g>
</g>
</svg>