<?xml version="1.0" standalone="no"?>
<!DOCTYPE svg PUBLIC "-//W3C//DTD SVG 20010904//EN"
 "http://www.w3.org/TR/2001/REC-SVG-20010904/DTD/svg10.dtd">
<svg version="1.0" xmlns="http://www.w3.org/2000/svg"
 width="96.000000pt" height="68.000000pt" viewBox="0 0 96.000000 68.000000"
 preserveAspectRatio="xMidYMid meet">
<metadata>
Created by potrace 1.16, written by Peter Selinger 2001-2019
Combined from part_0.svg through part_5.svg with named groups
</metadata>
<g transform="translate(0.000000,68.000000) scale(0.100000,-0.100000)" fill="#000000" stroke="none">
<g id="part-0" class="char-part">
  <path d="M710 591 c0 -5 -17 -9 -37 -9 -42 1 -119 -10 -143 -20 -9 -3 2 -8 25
-11 31 -5 40 -10 40 -26 0 -15 -8 -21 -32 -23 -44 -4 -42 -22 2 -22 28 0 35
-4 35 -19 0 -22 -19 -31 -63 -31 -22 0 -28 -3 -20 -11 8 -8 36 -8 102 0 51 7
96 9 101 6 10 -6 13 -262 4 -312 -5 -28 -11 -33 -28 -31 -12 2 -20 9 -19 18 1
8 -6 26 -17 40 l-20 25 -6 -23 c-8 -27 -39 -37 -116 -37 -103 0 -90 34 14 36
65 2 67 2 78 33 7 17 17 41 23 54 18 38 -22 53 -90 33 -35 -10 -44 -6 -36 15
3 8 19 14 38 14 24 0 37 7 48 24 24 37 3 50 -58 36 -56 -13 -72 -5 -27 12 18
7 32 16 32 21 0 15 -32 19 -56 7 -19 -11 -27 -11 -36 -2 -16 16 -48 15 -48 -1
0 -7 -18 -23 -39 -36 -30 -19 -36 -27 -27 -37 36 -41 36 -43 18 -53 -10 -7
-12 -11 -4 -11 7 0 10 -4 7 -10 -3 -5 -24 -10 -46 -10 -22 0 -39 -5 -39 -11 0
-8 15 -10 45 -7 25 3 45 2 45 -3 0 -5 -11 -9 -24 -9 -14 0 -28 -4 -31 -10 -3
-6 4 -10 17 -9 24 1 79 16 64 18 -5 1 -3 8 4 16 7 8 16 12 21 9 12 -7 11 -74
-1 -74 -5 0 -10 5 -10 10 0 13 -70 13 -90 0 -11 -7 -5 -10 25 -11 39 -1 39 -1
-15 -13 -40 -8 -50 -14 -37 -19 10 -4 30 -4 44 -1 18 5 24 3 19 -5 -4 -6 -16
-11 -27 -11 -10 0 -19 -5 -19 -11 0 -6 7 -8 16 -5 9 3 27 6 40 6 17 0 24 6 24
20 0 13 7 20 20 20 11 0 20 -6 20 -13 0 -28 45 -39 146 -36 l98 4 33 -35 c27
-29 35 -33 50 -24 17 10 18 33 21 280 2 244 1 270 -15 282 -20 14 -43 16 -43
3z m10 -63 c0 -24 3 -52 6 -63 5 -18 1 -20 -40 -17 -41 4 -46 7 -46 28 0 20 5
24 30 24 17 0 30 5 30 10 0 6 -13 10 -29 10 -40 0 -51 37 -12 43 61 9 61 10
61 -35z m-269 -178 c-13 -12 -38 -20 -59 -20 -43 0 -40 3 18 23 60 21 70 20
41 -3z m19 -60 c0 -22 -4 -40 -10 -40 -5 0 -10 18 -10 40 0 22 5 40 10 40 6 0
10 -18 10 -40z m90 30 c0 -5 -14 -10 -31 -10 -17 0 -28 4 -24 10 3 6 17 10 31
10 13 0 24 -4 24 -10z m-146 -9 c7 -11 -22 -23 -35 -15 -5 3 -7 10 -4 15 8 12
32 12 39 0z m6 -39 c0 -14 -11 -21 -26 -15 -21 8 -17 23 6 23 11 0 20 -4 20
-8z m165 -58 c-7 -50 -11 -54 -51 -54 -21 0 -33 4 -29 10 3 6 19 10 35 10 25
0 29 3 27 28 -1 15 -6 26 -10 24 -4 -1 -14 -5 -22 -8 -8 -4 -15 -12 -15 -20 0
-8 -4 -14 -10 -14 -5 0 -10 11 -10 24 0 19 6 26 28 29 64 10 64 10 57 -29z
m-113 -12 c5 -36 0 -52 -17 -52 -9 0 -12 9 -10 28 2 15 4 33 4 40 2 24 19 12
23 -16z"/>
  <path d="M340 559 c-19 -5 -64 -8 -100 -7 -60 2 -65 1 -61 -17 11 -49 5 -296
-8 -363 -16 -81 -6 -126 27 -120 20 4 30 56 31 168 1 41 4 98 7 126 6 47 8 50
33 46 14 -2 58 6 96 17 69 19 69 20 27 20 -39 1 -43 3 -40 24 2 16 11 23 31
25 32 4 37 22 4 22 -12 0 -27 8 -34 19 -11 17 -8 19 28 25 22 4 37 11 34 16
-7 12 -27 11 -75 -1z m-33 -44 c7 -20 3 -23 -35 -31 -29 -6 -32 -4 -32 20 0
22 4 26 30 26 18 0 33 -6 37 -15z m11 -72 c2 -13 -1 -23 -6 -23 -5 0 -24 -3
-41 -6 -30 -6 -31 -5 -31 25 0 31 1 32 38 29 30 -2 38 -7 40 -25z"/>
  <path d="M308 243 c7 -3 16 -2 19 1 4 3 -2 6 -13 5 -11 0 -14 -3 -6 -6z"/>
</g>
<g id="part-1" class="char-part">
  <path d="M188 398 c3 -113 0 -170 -12 -220 -11 -47 -13 -75 -6 -93 12 -31 38
-33 45 -2 8 35 25 448 19 458 -3 5 -15 9 -27 9 -22 0 -22 -1 -19 -152z"/>
</g>
<g id="part-2" class="char-part">
  <path d="M714 573 c11 -43 19 -395 12 -448 -7 -43 -10 -47 -32 -42 -32 6 -30
-3 6 -38 25 -24 34 -27 48 -19 15 10 18 40 22 275 5 248 4 265 -14 282 -29 27
-50 22 -42 -10z"/>
</g>
<g id="part-3" class="char-part">
  <path d="M370 362 l-45 -43 45 19 c25 10 58 22 74 26 26 6 28 5 17 -8 -17 -21
-12 -20 44 4 25 11 43 24 40 30 -8 12 -45 13 -64 1 -9 -6 -24 -5 -40 2 -24 11
-30 9 -71 -31z"/>
</g>
<g id="part-4" class="char-part">
  <path d="M465 339 c-27 -4 -67 -9 -87 -11 -40 -2 -44 -8 -28 -38 8 -15 17 -18
40 -13 26 5 30 2 30 -16 0 -11 -4 -21 -10 -21 -5 0 -10 5 -10 10 0 6 -15 10
-32 9 -18 0 -27 -3 -20 -6 27 -11 10 -23 -32 -23 -25 0 -48 -5 -52 -11 -5 -9
8 -10 45 -7 58 6 70 -8 16 -18 -52 -9 -35 -17 20 -9 25 4 44 10 41 13 -7 6 13
32 25 32 10 0 12 -73 2 -83 -3 -4 -11 1 -18 10 -10 13 -19 14 -61 6 l-49 -11
40 -2 c32 -1 36 -3 20 -10 -11 -5 -36 -9 -55 -10 -28 -1 -31 -3 -15 -10 11 -4
32 -5 48 -3 15 3 27 1 27 -4 0 -6 -14 -13 -32 -17 -45 -9 -30 -16 20 -9 31 4
42 10 42 23 0 15 13 19 83 26 45 5 94 8 110 7 15 0 27 0 27 1 0 1 9 26 20 56
23 63 16 74 -40 65 -68 -11 -75 -10 -75 5 0 10 12 16 34 18 30 3 70 33 71 55
0 9 -80 7 -145 -4z m95 -13 c0 -7 -11 -16 -25 -18 -26 -5 -36 16 -12 25 23 10
37 7 37 -7z m-90 -36 c0 -22 -4 -40 -10 -40 -5 0 -10 11 -10 24 0 13 -3 31 -6
40 -4 11 -1 16 10 16 12 0 16 -10 16 -40z m-50 21 c0 -11 -39 -25 -47 -18 -3
3 -2 10 2 16 8 13 45 15 45 2z m165 -98 c-9 -51 -11 -53 -53 -53 -33 0 -34 1
-17 14 13 9 26 11 36 6 13 -7 16 -3 16 21 0 16 -4 29 -8 29 -17 0 -39 -13 -34
-20 3 -4 -2 -13 -10 -20 -13 -11 -15 -8 -15 18 0 32 10 37 69 41 22 1 23 -2
16 -36z m-112 -16 c-2 -45 -2 -47 -19 -47 -12 0 -15 6 -10 23 3 12 6 30 6 40
0 10 5 17 12 15 7 -3 12 -16 11 -31z"/>
  <path d="M308 243 c7 -3 16 -2 19 1 4 3 -2 6 -13 5 -11 0 -14 -3 -6 -6z"/>
</g>
<g id="part-5" class="char-part">
  <path d="M623 117 c-26 -37 -25 -41 11 -28 26 11 32 26 18 48 -5 7 -15 1 -29
-20z"/>
  <path d="M436 111 c16 -17 36 -24 82 -28 37 -3 62 0 67 6 4 7 -15 11 -57 11
-42 0 -72 6 -88 16 l-25 17 21 -22z"/>
</g>
</g>
</svg>