<?xml version="1.0" standalone="no"?>
<!DOCTYPE svg PUBLIC "-//W3C//DTD SVG 20010904//EN"
 "http://www.w3.org/TR/2001/REC-SVG-20010904/DTD/svg10.dtd">
<svg version="1.0" xmlns="http://www.w3.org/2000/svg"
 width="96.000000pt" height="68.000000pt" viewBox="0 0 96.000000 68.000000"
 preserveAspectRatio="xMidYMid meet">
<metadata>
Created by potrace 1.16, written by Peter Selinger 2001-2019
Combined from part_0.svg through part_5.svg with named groups
</metadata>
<g transform="translate(0.000000,68.000000) scale(0.100000,-0.100000)" fill="#000000" stroke="none">
<g id="part-0" class="char-part">
  <path d="M416 611 c-4 -5 -1 -16 6 -23 7 -7 22 -24 33 -37 l20 -23 -121 4
-121 3 -26 -48 c-31 -54 -34 -75 -12 -83 20 -8 43 12 60 53 13 31 17 33 62 33
26 0 117 7 202 15 85 8 157 13 159 10 2 -2 -6 -18 -18 -35 l-22 -31 38 5 c102
13 139 31 109 56 -8 7 -12 17 -8 23 3 6 1 7 -6 3 -6 -4 -19 -2 -27 5 -11 9
-43 10 -119 6 -100 -6 -105 -6 -105 13 0 31 -90 75 -104 51z"/>
  <path d="M427 473 c-3 -5 -8 -23 -12 -41 -10 -49 -29 -62 -91 -62 -34 0 -53
-4 -49 -10 3 -5 26 -10 51 -10 24 0 44 -3 44 -7 -1 -15 -55 -78 -133 -156 -43
-42 -74 -77 -69 -77 5 0 31 15 58 32 54 36 116 98 172 171 34 45 39 47 87 48
78 1 148 13 152 25 6 19 -32 22 -101 9 -36 -6 -68 -10 -71 -7 -2 2 2 14 10 26
21 29 19 41 -10 54 -31 14 -32 14 -38 5z"/>
  <path d="M481 273 c-10 -21 -47 -66 -81 -101 -51 -52 -60 -65 -50 -77 17 -21
31 -19 161 15 107 28 115 29 126 12 35 -49 63 -58 63 -18 0 29 -33 72 -70 91
-42 22 -53 19 -34 -10 9 -14 15 -28 12 -30 -10 -10 -120 -26 -154 -23 l-36 3
65 70 c61 65 64 71 50 88 -23 25 -30 22 -52 -20z"/>
</g>
<g id="part-1" class="char-part">
  <path d="M420 603 c0 -4 14 -21 31 -39 l31 -32 -105 -7 c-58 -4 -114 -4 -124
-1 -25 8 -84 -97 -65 -116 9 -9 17 -7 36 11 13 13 27 33 30 45 5 21 14 23 198
39 106 10 201 17 211 17 21 0 22 -23 2 -40 -8 -7 -15 -16 -15 -20 0 -8 130 16
139 26 3 3 -10 19 -29 36 -35 29 -36 29 -125 23 -49 -4 -98 -9 -108 -12 -15
-4 -18 -1 -13 15 9 27 -29 62 -66 62 -15 0 -28 -3 -28 -7z"/>
</g>
<g id="part-2" class="char-part">
  <path d="M415 442 c-9 -57 -17 -63 -84 -69 -69 -6 -70 -20 -2 -25 l44 -3 -44
-55 c-24 -30 -75 -86 -114 -124 -38 -38 -62 -66 -52 -63 51 18 135 88 202 167
l74 88 94 7 c51 3 100 10 107 15 26 16 -30 28 -85 19 -27 -4 -60 -8 -73 -8
-22 -1 -22 0 -5 25 16 26 16 27 -6 45 -35 28 -49 23 -56 -19z"/>
</g>
<g id="part-3" class="char-part">
  <path d="M477 272 c-17 -36 -88 -118 -127 -145 -20 -14 -20 -14 3 -35 22 -21
26 -21 68 -8 24 8 80 24 123 36 l79 21 24 -30 c29 -37 53 -40 53 -7 0 32 -34
72 -81 96 -42 22 -52 11 -22 -22 14 -16 15 -21 3 -28 -14 -9 -168 -25 -175
-18 -3 2 24 36 60 75 61 67 63 71 46 87 -26 23 -34 20 -54 -22z"/>
</g>
</g>
</svg>