<?xml version="1.0" standalone="no"?>
<!DOCTYPE svg PUBLIC "-//W3C//DTD SVG 20010904//EN"
 "http://www.w3.org/TR/2001/REC-SVG-20010904/DTD/svg10.dtd">
<svg version="1.0" xmlns="http://www.w3.org/2000/svg"
 width="96.000000pt" height="68.000000pt" viewBox="0 0 96.000000 68.000000"
 preserveAspectRatio="xMidYMid meet">
<metadata>
Created by potrace 1.16, written by Peter Selinger 2001-2019
Combined from part_0.svg through part_5.svg with named groups
</metadata>
<g transform="translate(0.000000,68.000000) scale(0.100000,-0.100000)" fill="#000000" stroke="none">
<g id="part-0" class="char-part">
  <path d="M410 603 c0 -6 11 -27 25 -48 l26 -37 -130 3 -131 4 -20 -47 c-24
-57 -25 -87 -4 -95 20 -7 50 29 59 70 6 25 11 27 53 27 26 0 108 7 182 15 74
8 152 15 174 15 33 0 37 -2 26 -15 -7 -8 -17 -12 -24 -8 -6 3 -8 3 -4 -2 4 -4
3 -14 -4 -22 -16 -20 -6 -24 37 -12 21 6 48 9 61 6 13 -2 21 -1 19 3 -3 4 4
10 15 13 29 7 25 22 -15 53 -37 28 -50 29 -202 8 -38 -6 -43 -4 -43 13 0 11
-8 27 -18 36 -22 20 -82 34 -82 20z"/>
  <path d="M502 428 c-9 -9 -44 -13 -100 -13 l-87 0 3 -116 c2 -63 0 -131 -5
-150 -12 -43 -2 -83 20 -87 9 -2 17 1 17 7 0 7 29 11 79 11 106 0 173 10 167
25 -2 6 7 33 20 59 13 26 24 52 24 57 0 21 -48 28 -106 15 -33 -8 -85 -16
-116 -20 l-58 -6 0 34 0 34 96 8 96 9 13 38 c7 21 21 47 31 59 18 19 18 20 -1
34 -23 17 -77 18 -93 2z m30 -63 c-2 -16 -10 -35 -18 -41 -18 -15 -135 -27
-147 -15 -5 5 -7 24 -5 42 3 31 6 35 43 40 22 4 60 6 85 5 44 -1 45 -2 42 -31z
m28 -194 c0 -22 -5 -43 -10 -46 -12 -7 -181 -26 -189 -20 -12 7 1 94 12 89 7
-2 46 0 87 5 41 4 81 9 88 10 8 1 12 -13 12 -38z"/>
</g>
<g id="part-1" class="char-part">
  <path d="M410 603 c0 -3 11 -21 25 -39 14 -18 25 -35 25 -37 0 -3 -48 -8 -107
-12 -77 -6 -112 -4 -126 4 -10 7 -20 11 -21 9 -14 -18 -46 -119 -41 -127 14
-23 37 -9 56 34 15 34 26 45 42 45 12 0 108 9 212 20 105 10 194 15 198 11 4
-4 -2 -20 -15 -36 l-22 -28 27 7 c15 3 47 9 72 13 52 7 56 24 14 55 -31 23
-43 24 -163 13 -62 -6 -87 -5 -82 3 11 18 -4 40 -39 56 -35 17 -55 20 -55 9z"/>
</g>
<g id="part-2" class="char-part">
  <path d="M475 423 c-27 -10 -60 -13 -104 -9 -62 5 -63 5 -57 -17 3 -12 6 -44
6 -71 l0 -49 113 8 c61 4 117 8 122 8 6 0 10 13 11 28 1 14 11 41 24 59 23 32
23 33 5 46 -23 17 -68 16 -120 -3z m55 -58 c0 -42 -13 -49 -107 -60 -61 -7
-63 -6 -63 17 0 54 10 67 54 71 117 10 116 11 116 -28z"/>
</g>
<g id="part-3" class="char-part">
  <path d="M327 273 c-4 -3 -7 -19 -7 -35 0 -21 5 -28 20 -28 16 0 20 7 20 35 0
33 -16 46 -33 28z"/>
</g>
<g id="part-4" class="char-part">
  <path d="M530 234 c-30 -7 -89 -16 -131 -20 l-76 -7 -10 -51 c-12 -56 -3 -96
22 -96 8 0 15 5 15 10 0 6 28 10 63 10 108 0 198 12 188 24 -6 7 -1 29 15 61
13 28 24 53 24 57 0 18 -58 24 -110 12z m30 -64 c0 -49 -11 -55 -117 -64 l-83
-6 0 44 0 44 68 7 c37 3 74 8 82 9 45 10 50 7 50 -34z"/>
</g>
</g>
</svg>