<?xml version="1.0" standalone="no"?>
<!DOCTYPE svg PUBLIC "-//W3C//DTD SVG 20010904//EN"
 "http://www.w3.org/TR/2001/REC-SVG-20010904/DTD/svg10.dtd">
<svg version="1.0" xmlns="http://www.w3.org/2000/svg"
 width="96.000000pt" height="68.000000pt" viewBox="0 0 96.000000 68.000000"
 preserveAspectRatio="xMidYMid meet">
<metadata>
Created by potrace 1.16, written by Peter Selinger 2001-2019
Combined from part_0.svg through part_5.svg with named groups
</metadata>
<g transform="translate(0.000000,68.000000) scale(0.100000,-0.100000)" fill="#000000" stroke="none">
<g id="part-0" class="char-part">
  <path d="M680 587 c0 -7 -12 -30 -26 -50 -14 -21 -24 -41 -21 -44 3 -2 32 15
66 40 46 33 58 46 49 55 -16 16 -68 15 -68 -1z"/>
  <path d="M220 565 c0 -3 12 -23 26 -45 31 -47 74 -57 74 -17 0 28 -9 41 -37
56 -22 11 -63 15 -63 6z"/>
  <path d="M470 567 c0 -13 33 -67 50 -82 26 -23 45 -8 36 29 -4 17 -18 31 -42
41 -38 16 -44 17 -44 12z"/>
  <path d="M228 456 c-70 -11 -129 -24 -133 -27 -3 -4 8 -12 25 -19 26 -11 46
-9 131 9 55 11 113 21 129 21 39 0 48 18 15 30 -14 6 -29 9 -33 9 -4 -1 -64
-11 -134 -23z"/>
  <path d="M693 469 c-11 -4 -68 -13 -124 -20 -120 -14 -152 -29 -61 -29 l62 0
0 -35 c0 -34 -1 -35 -37 -35 -47 0 -76 -15 -50 -26 9 -3 33 -4 52 -2 36 4 36
4 35 -49 0 -12 -50 -23 -112 -24 -64 -2 -73 -10 -29 -29 21 -8 39 -9 67 -1 83
23 82 24 83 -96 1 -59 4 -109 6 -111 12 -13 30 56 33 134 l4 92 106 1 c59 1
109 4 112 7 3 3 -4 12 -15 20 -16 12 -39 14 -112 8 l-93 -6 0 30 c0 33 13 42
63 43 18 0 41 4 52 9 18 7 18 8 -8 15 -15 4 -44 5 -63 2 -35 -6 -35 -5 -32 26
3 31 5 32 66 42 35 6 63 15 62 20 -1 15 -42 23 -67 14z"/>
  <path d="M235 366 c-44 -11 -47 -13 -25 -19 29 -8 140 11 140 24 0 12 -54 9
-115 -5z"/>
  <path d="M251 299 c-58 -11 -64 -19 -15 -19 56 0 114 11 114 21 0 11 -39 10
-99 -2z"/>
  <path d="M285 230 c-11 -5 -45 -9 -75 -9 -31 -1 -50 -5 -43 -9 7 -5 20 -32 29
-61 14 -49 17 -52 42 -47 15 3 46 8 69 11 29 5 40 11 37 20 -3 7 2 28 11 45 9
17 14 38 11 46 -6 15 -49 18 -81 4z m27 -51 c-3 -37 -15 -49 -50 -49 -15 0
-26 8 -32 26 -15 38 -13 41 28 52 51 13 57 10 54 -29z"/>
</g>
<g id="part-1" class="char-part">
  <path d="M230 563 c0 -16 41 -74 56 -80 22 -8 37 11 29 37 -8 25 -85 64 -85
43z"/>
  <path d="M215 450 c-60 -10 -112 -19 -115 -20 -3 0 2 -5 10 -10 21 -14 66 -12
151 4 41 8 91 17 112 21 21 3 35 10 32 16 -9 13 -63 10 -190 -11z"/>
</g>
<g id="part-2" class="char-part">
  <path d="M270 228 c-19 -5 -51 -8 -72 -6 -21 2 -38 3 -38 3 0 0 9 -18 20 -40
11 -22 20 -47 20 -56 0 -22 26 -44 35 -29 3 5 21 10 38 10 50 0 76 10 70 26
-3 8 4 29 15 48 31 53 -1 69 -88 44z m44 -45 c-9 -36 -14 -41 -50 -49 -27 -5
-32 -3 -37 18 -13 48 -7 54 61 57 30 1 32 -1 26 -26z"/>
</g>
<g id="part-3" class="char-part">
  <path d="M680 586 c0 -7 -16 -34 -35 -60 -20 -25 -33 -46 -29 -46 4 0 38 21
76 47 62 43 67 49 52 60 -23 17 -64 17 -64 -1z"/>
  <path d="M470 562 c0 -14 59 -92 69 -92 16 0 23 20 17 46 -8 29 -86 71 -86 46z"/>
  <path d="M585 453 c-55 -7 -111 -17 -125 -20 l-25 -6 30 -8 c46 -13 295 17
298 36 3 15 -66 14 -178 -2z"/>
</g>
<g id="part-4" class="char-part">
  <path d="M575 411 c-3 -6 -4 -15 -1 -20 13 -20 -7 -41 -38 -42 -17 0 -40 -4
-51 -9 -19 -7 -18 -8 5 -13 14 -3 38 -5 54 -4 26 2 29 -1 30 -30 1 -29 -2 -33
-34 -38 -19 -3 -56 -6 -83 -7 -26 0 -50 -4 -52 -8 -10 -15 53 -29 87 -19 18 5
45 9 60 9 l28 0 0 -110 c0 -61 4 -110 9 -110 14 0 31 92 31 165 l0 65 110 0
c68 0 110 4 110 10 0 21 -53 30 -136 24 l-84 -7 0 31 c0 34 4 36 85 47 41 6
46 9 31 17 -10 6 -41 8 -68 5 -44 -6 -49 -4 -43 11 3 9 7 22 8 27 3 14 -50 19
-58 6z"/>
</g>
</g>
</svg>