<?xml version="1.0" standalone="no"?>
<!DOCTYPE svg PUBLIC "-//W3C//DTD SVG 20010904//EN"
 "http://www.w3.org/TR/2001/REC-SVG-20010904/DTD/svg10.dtd">
<svg version="1.0" xmlns="http://www.w3.org/2000/svg"
 width="96.000000pt" height="68.000000pt" viewBox="0 0 96.000000 68.000000"
 preserveAspectRatio="xMidYMid meet">
<metadata>
Created by potrace 1.16, written by Peter Selinger 2001-2019
Combined from part_0.svg through part_5.svg with named groups
</metadata>
<g transform="translate(0.000000,68.000000) scale(0.100000,-0.100000)" fill="#000000" stroke="none">
<g id="part-0" class="char-part">
  <path d="M550 591 c0 -4 10 -20 21 -35 12 -15 19 -29 17 -32 -8 -7 -123 -7
-147 1 -13 4 -21 2 -21 -5 0 -7 -10 -25 -21 -42 -13 -18 -18 -33 -12 -39 11
-11 53 17 53 37 0 8 6 14 14 14 8 0 74 7 147 15 136 16 172 14 151 -7 -22 -22
-12 -28 31 -22 58 9 68 21 37 45 -22 18 -35 19 -107 14 -78 -6 -83 -5 -83 13
0 11 -11 27 -25 36 -26 17 -55 21 -55 7z"/>
  <path d="M238 512 c2 -27 -1 -73 -7 -104 -13 -62 -22 -68 -100 -68 -43 0 -44
0 -26 -20 12 -13 31 -20 57 -20 36 0 50 -12 28 -25 -25 -15 -9 -46 35 -67 l45
-22 -22 -23 c-12 -13 -44 -37 -70 -54 -27 -18 -46 -34 -44 -37 10 -9 100 31
135 59 l34 28 38 -29 c20 -17 41 -30 47 -30 8 0 22 22 22 35 0 11 -53 55 -65
55 -19 0 -19 -2 4 46 10 21 22 54 26 72 3 17 10 32 13 32 4 0 14 4 22 10 12 7
9 13 -14 35 -34 32 -72 31 -68 -1 2 -17 -4 -23 -29 -28 -18 -3 -34 -5 -36 -3
-2 2 11 42 27 88 l31 84 -22 18 c-12 9 -31 17 -44 17 -20 0 -22 -4 -17 -48z
m86 -209 c-19 -78 -32 -90 -75 -73 -33 14 -33 13 -17 56 11 32 22 37 81 43 14
1 16 -4 11 -26z"/>
  <path d="M595 465 c-5 -2 -32 -7 -60 -11 l-50 -8 49 -6 49 -5 2 -43 c2 -48 -1
-51 -130 -96 l-70 -25 53 6 52 6 0 -83 0 -82 25 6 c14 4 25 4 25 1 0 -16 -36
-57 -67 -76 -57 -36 -29 -32 45 5 82 41 92 53 60 65 -20 9 -18 10 17 12 22 1
54 3 70 4 19 2 38 -5 53 -18 32 -30 42 -11 42 85 0 42 3 83 6 92 11 28 -37 41
-114 29 -37 -6 -69 -9 -70 -7 -2 1 37 21 87 45 92 42 107 60 71 79 -16 8 -23
6 -37 -11 -15 -17 -54 -43 -79 -52 -4 -1 -7 15 -8 36 -1 36 0 37 37 37 20 0
37 5 37 10 0 9 -72 13 -95 5z m125 -180 c0 -10 -10 -15 -34 -15 -18 0 -61 -3
-95 -6 -51 -6 -61 -4 -61 9 0 19 23 24 118 26 58 1 72 -2 72 -14z m0 -49 c0
-9 -20 -15 -61 -20 -98 -10 -129 -8 -129 9 0 14 17 16 153 23 25 1 37 -2 37
-12z m0 -56 c0 -15 -14 -18 -92 -23 -64 -3 -95 -1 -100 6 -15 24 0 27 165 33
19 1 27 -4 27 -16z"/>
  <path d="M500 411 c0 -5 -11 -20 -25 -35 -13 -14 -19 -26 -14 -26 21 0 79 39
79 53 0 3 -9 7 -20 10 -11 3 -20 2 -20 -2z"/>
  <path d="M686 78 c16 -13 40 -33 54 -45 36 -33 69 -27 55 9 -8 20 -81 58 -112
58 l-26 0 29 -22z"/>
</g>
<g id="part-1" class="char-part">
  <path d="M243 517 c5 -37 2 -66 -18 -154 -5 -21 -11 -23 -65 -23 -33 0 -60 -4
-60 -9 0 -15 56 -32 83 -26 l27 7 -15 -36 -16 -37 31 -17 c66 -36 67 -38 45
-62 -11 -12 -39 -33 -62 -47 -24 -14 -43 -27 -43 -30 0 -13 59 12 102 43 27
19 51 34 54 34 3 0 19 -11 36 -25 16 -14 36 -25 44 -25 26 0 14 38 -18 61 -18
12 -35 24 -37 26 -2 2 1 13 8 26 6 12 18 42 25 67 8 29 22 49 37 57 13 7 18
13 12 13 -7 0 -13 6 -13 13 0 13 -40 37 -62 37 -6 0 -8 -11 -6 -24 6 -28 -7
-36 -51 -36 l-28 0 28 81 c35 98 35 103 4 117 -43 20 -48 16 -42 -31z m75
-247 c-11 -33 -22 -60 -24 -60 -20 0 -74 32 -74 44 0 38 23 65 64 74 23 5 44
7 48 5 4 -2 -3 -30 -14 -63z"/>
</g>
<g id="part-2" class="char-part">
  <path d="M550 591 c0 -4 9 -20 20 -34 11 -14 20 -28 20 -32 0 -4 -38 -5 -84
-4 l-83 4 -23 -39 c-15 -27 -19 -41 -11 -49 12 -12 51 18 51 40 0 7 5 13 10
13 6 0 74 7 151 15 144 16 169 14 148 -11 -18 -22 -6 -26 43 -17 52 10 56 29
11 53 -25 13 -43 15 -80 9 -79 -13 -93 -11 -93 10 0 11 -10 27 -22 35 -24 17
-58 21 -58 7z"/>
</g>
<g id="part-3" class="char-part">
  <path d="M551 459 c-79 -15 -69 -19 34 -14 55 3 104 10 109 15 12 12 -80 11
-143 -1z"/>
</g>
<g id="part-4" class="char-part">
  <path d="M527 101 c-9 -16 -33 -39 -53 -51 -19 -12 -33 -24 -31 -26 7 -7 60
16 111 48 44 29 47 33 30 45 -27 19 -38 16 -57 -16z"/>
  <path d="M713 56 c60 -49 99 -57 77 -16 -15 28 -48 47 -95 56 l-40 7 58 -47z"/>
</g>
</g>
</svg>