<?xml version="1.0" standalone="no"?>
<!DOCTYPE svg PUBLIC "-//W3C//DTD SVG 20010904//EN"
 "http://www.w3.org/TR/2001/REC-SVG-20010904/DTD/svg10.dtd">
<svg version="1.0" xmlns="http://www.w3.org/2000/svg"
 width="96.000000pt" height="68.000000pt" viewBox="0 0 96.000000 68.000000"
 preserveAspectRatio="xMidYMid meet">
<metadata>
Created by potrace 1.16, written by Peter Selinger 2001-2019
Combined from part_0.svg through part_5.svg with named groups
</metadata>
<g transform="translate(0.000000,68.000000) scale(0.100000,-0.100000)" fill="#000000" stroke="none">
<g id="part-0" class="char-part">
  <path d="M360 605 c-47 -7 -111 -15 -143 -19 -69 -9 -72 -29 -6 -36 l44 -5 3
-91 c3 -101 1 -104 -70 -104 -33 0 -36 -10 -8 -28 17 -10 30 -9 78 9 105 38
124 42 133 27 8 -11 13 -87 7 -89 -2 0 -66 -6 -143 -13 -128 -11 -138 -13
-110 -25 24 -10 50 -11 128 -1 55 6 102 8 105 5 4 -4 -3 -15 -15 -25 -31 -25
-29 -37 10 -45 17 -4 40 -12 51 -17 17 -9 15 -12 -15 -30 -18 -11 -64 -28
-103 -39 l-71 -19 70 3 c50 2 87 11 131 31 l62 28 60 -41 c66 -45 92 -51 92
-21 0 26 -32 54 -80 70 -22 7 -40 16 -39 19 0 3 15 26 33 51 l33 45 104 3
c115 3 138 7 122 23 -19 19 -77 26 -143 18 -49 -6 -71 -4 -93 8 -27 13 -30 13
-48 -6 -12 -12 -32 -21 -50 -21 -26 0 -29 3 -24 20 5 15 0 22 -20 30 -22 8
-26 15 -21 38 3 15 7 71 8 124 l3 98 43 0 c45 0 55 13 23 30 -23 12 -28 12
-141 -5z m30 -60 c0 -23 -4 -25 -45 -25 -37 0 -45 3 -45 18 0 27 9 32 52 32
34 0 38 -3 38 -25z m6 -60 c-3 -20 -5 -21 -53 -29 -38 -5 -43 -4 -43 13 0 14
8 21 28 24 57 9 70 7 68 -8z m-3 -74 c-5 -20 -30 -31 -70 -31 -18 0 -23 6 -23
25 0 23 3 25 49 25 43 0 49 -2 44 -19z m140 -178 c-10 -30 -54 -71 -71 -67
-82 15 -87 22 -50 61 17 18 32 23 74 23 47 0 53 -2 47 -17z"/>
  <path d="M628 569 c-9 -5 -43 -14 -75 -20 -32 -6 -62 -13 -66 -16 -5 -3 19
-23 53 -45 71 -45 70 -51 -13 -93 -42 -20 -46 -25 -25 -25 14 0 50 13 80 29
l55 28 44 -33 c53 -40 78 -48 86 -28 6 16 -52 73 -75 74 -27 0 -24 32 7 70 17
21 31 41 31 43 0 6 -59 27 -74 27 -6 0 -19 -5 -28 -11z m24 -59 c-20 -36 -26
-36 -88 -8 l-49 23 40 6 c22 3 57 7 77 8 l37 1 -17 -30z"/>
</g>
<g id="part-1" class="char-part">
  <path d="M285 590 c-141 -21 -135 -19 -110 -30 11 -5 35 -6 53 -3 l32 5 0 -96
c0 -89 1 -96 20 -96 15 0 20 7 20 29 0 28 3 30 45 37 25 3 43 10 40 14 -3 5
-23 6 -45 3 -35 -5 -40 -3 -40 15 0 22 18 32 61 32 16 0 29 5 29 11 0 7 -16 8
-45 3 -45 -6 -45 -6 -45 24 0 26 4 30 38 36 20 3 67 6 104 6 65 0 94 12 62 24
-24 9 -86 5 -219 -14z"/>
</g>
<g id="part-2" class="char-part">
  <path d="M614 566 c-17 -7 -51 -17 -75 -21 -24 -4 -48 -10 -53 -12 -4 -3 19
-23 53 -45 72 -45 71 -51 -12 -93 -41 -20 -46 -25 -25 -25 14 0 50 13 80 28
l56 28 56 -39 c31 -21 61 -35 66 -32 21 13 8 36 -40 67 -27 18 -50 37 -50 42
0 4 14 26 31 48 21 25 28 43 22 49 -17 17 -77 20 -109 5z m36 -56 c-14 -35
-23 -35 -96 -3 l-39 17 60 8 c33 4 64 10 70 12 17 6 18 -2 5 -34z"/>
</g>
<g id="part-3" class="char-part">
  <path d="M400 301 c0 -33 -21 -40 -119 -42 -31 -1 -81 -4 -111 -8 l-55 -7 30
-13 c24 -11 50 -11 129 -2 55 6 101 9 103 7 3 -2 -5 -14 -17 -26 -25 -25 -20
-50 9 -50 11 0 32 -5 48 -11 l28 -11 -40 -21 c-22 -11 -69 -29 -105 -39 l-65
-18 70 3 c51 2 86 10 129 30 l59 27 64 -40 c65 -41 87 -48 98 -30 11 19 -21
53 -73 76 l-52 24 36 50 36 50 115 0 c87 0 114 3 111 13 -9 25 -72 36 -147 25
-61 -9 -74 -8 -96 6 -30 20 -45 20 -45 2 0 -16 -21 -26 -56 -26 -21 0 -24 4
-19 19 4 14 0 23 -14 30 -35 19 -51 13 -51 -18z m130 -66 c0 -8 -12 -28 -27
-45 -28 -29 -29 -30 -75 -17 l-47 12 25 33 c23 28 31 32 75 32 37 0 49 -4 49
-15z"/>
</g>
</g>
</svg>