<?xml version="1.0" standalone="no"?>
<!DOCTYPE svg PUBLIC "-//W3C//DTD SVG 20010904//EN"
 "http://www.w3.org/TR/2001/REC-SVG-20010904/DTD/svg10.dtd">
<svg version="1.0" xmlns="http://www.w3.org/2000/svg"
 width="96.000000pt" height="68.000000pt" viewBox="0 0 96.000000 68.000000"
 preserveAspectRatio="xMidYMid meet">
<metadata>
Created by potrace 1.16, written by Peter Selinger 2001-2019
Combined from part_0.svg through part_5.svg with named groups
</metadata>
<g transform="translate(0.000000,68.000000) scale(0.100000,-0.100000)" fill="#000000" stroke="none">
<g id="part-0" class="char-part">
  <path d="M537 581 l5 -48 -73 -9 -74 -8 70 -6 c61 -4 70 -8 70 -24 0 -16 -11
-23 -50 -32 l-50 -12 53 -1 c48 -1 52 -3 52 -25 0 -19 -6 -24 -37 -30 -21 -3
-66 -6 -100 -6 -35 0 -63 -4 -63 -10 0 -17 47 -22 122 -11 40 6 142 13 226 17
83 4 152 10 152 15 0 16 -46 21 -152 14 l-110 -7 4 23 c2 20 10 25 43 27 59 5
69 22 12 22 -43 0 -47 2 -47 24 0 21 5 24 55 29 66 7 87 17 58 28 -11 4 -38 4
-59 -1 -46 -11 -56 -6 -54 28 3 47 1 52 -30 52 -29 0 -29 0 -23 -49z"/>
  <path d="M296 576 c-9 -46 -76 -147 -149 -223 -33 -35 -55 -63 -48 -63 17 0
82 44 110 74 14 14 28 26 33 26 12 0 10 -123 -4 -212 -12 -83 -3 -128 27 -128
20 0 23 20 30 191 5 113 4 152 -7 168 -9 14 -10 26 -3 36 6 8 28 40 49 70 42
60 40 74 -10 89 -19 6 -23 2 -28 -28z"/>
  <path d="M620 329 c-19 -4 -69 -11 -110 -13 l-75 -5 3 -58 c2 -33 -4 -80 -12
-108 -18 -58 -19 -74 -6 -95 8 -13 11 -12 24 5 8 11 18 37 21 58 8 44 6 43
108 52 l77 6 0 -34 c0 -43 -19 -60 -57 -51 l-28 7 25 -28 c40 -43 57 -48 80
-25 17 17 20 33 20 124 0 59 4 108 10 111 19 12 10 42 -15 53 -14 7 -27 12
-28 11 -1 -1 -18 -5 -37 -10z m28 -45 c3 -19 -3 -22 -51 -27 -29 -4 -68 -10
-86 -13 -31 -7 -32 -6 -29 22 3 26 8 30 48 35 81 11 115 7 118 -17z m2 -68 c0
-22 -4 -24 -80 -30 -88 -8 -100 -5 -93 24 4 15 16 20 62 23 31 2 68 4 84 5 22
2 27 -2 27 -22z"/>
</g>
<g id="part-1" class="char-part">
  <path d="M307 603 c-3 -5 -8 -22 -12 -40 -9 -46 -73 -140 -139 -206 -31 -31
-56 -59 -56 -62 0 -10 39 15 95 61 l55 44 0 -100 c0 -56 -5 -121 -11 -146 -13
-50 -1 -94 25 -94 19 0 24 33 29 202 4 113 2 139 -11 152 -14 13 -10 22 35 84
28 38 48 74 44 79 -10 15 -49 34 -54 26z"/>
</g>
<g id="part-2" class="char-part">
  <path d="M529 611 c6 -11 11 -33 11 -50 0 -28 -3 -31 -32 -31 -18 0 -51 -4
-73 -8 -38 -7 -36 -7 30 -12 63 -5 70 -7 73 -27 3 -21 -1 -23 -40 -23 -24 0
-50 -5 -58 -10 -11 -7 2 -10 43 -10 54 0 57 -1 57 -24 0 -19 4 -23 19 -19 11
3 21 15 23 27 2 17 12 22 50 26 66 8 72 20 10 20 -48 0 -52 2 -52 24 0 21 5
24 62 30 68 7 80 12 58 27 -14 9 -59 6 -103 -7 -16 -5 -18 -1 -15 38 l3 43
-38 3 c-36 3 -38 2 -28 -17z"/>
</g>
<g id="part-3" class="char-part">
  <path d="M685 408 c-44 -4 -116 -12 -161 -18 -44 -5 -103 -10 -132 -10 -29 0
-52 -4 -52 -10 0 -18 50 -22 125 -11 40 6 144 14 230 17 123 6 153 10 143 19
-20 19 -64 22 -153 13z"/>
</g>
<g id="part-4" class="char-part">
  <path d="M615 329 c-16 -6 -64 -11 -105 -12 l-76 -2 4 -57 c3 -37 -2 -76 -12
-107 -18 -57 -20 -80 -6 -101 9 -13 12 -13 24 3 8 10 17 38 21 62 l6 45 43 0
c24 0 64 3 90 6 l46 7 0 -35 c0 -44 -19 -61 -57 -52 l-28 6 37 -36 c20 -20 39
-36 42 -36 3 0 14 10 26 22 17 19 20 35 20 121 0 54 5 108 11 119 10 18 8 25
-11 40 -25 20 -31 21 -75 7z m33 -45 c3 -19 -3 -22 -51 -27 -29 -4 -67 -9 -84
-13 -21 -4 -32 -2 -36 8 -13 35 39 58 123 55 37 -2 46 -6 48 -23z m2 -68 c0
-22 -4 -24 -86 -31 -47 -4 -87 -5 -89 -3 -2 2 -2 14 1 25 5 19 15 23 63 26 31
2 68 4 84 5 22 2 27 -2 27 -22z"/>
</g>
</g>
</svg>