<?xml version="1.0" standalone="no"?>
<!DOCTYPE svg PUBLIC "-//W3C//DTD SVG 20010904//EN"
 "http://www.w3.org/TR/2001/REC-SVG-20010904/DTD/svg10.dtd">
<svg version="1.0" xmlns="http://www.w3.org/2000/svg"
 width="96.000000pt" height="68.000000pt" viewBox="0 0 96.000000 68.000000"
 preserveAspectRatio="xMidYMid meet">
<metadata>
Created by potrace 1.16, written by Peter Selinger 2001-2019
Combined from part_0.svg through part_5.svg with named groups
</metadata>
<g transform="translate(0.000000,68.000000) scale(0.100000,-0.100000)" fill="#000000" stroke="none">
<g id="part-0" class="char-part">
  <path d="M300 574 c-6 -14 -10 -31 -10 -38 0 -24 -77 -131 -139 -193 -72 -73
-59 -84 28 -23 67 47 111 53 111 16 0 -25 -21 -36 -72 -36 -18 0 -28 -5 -28
-15 0 -12 13 -15 55 -15 l55 0 0 -49 c0 -48 -1 -50 -37 -62 -21 -7 -62 -13
-91 -13 -59 0 -68 -19 -21 -45 24 -13 36 -11 160 28 74 23 140 44 147 46 6 3
12 10 12 16 0 12 -47 8 -97 -7 -22 -6 -23 -4 -23 49 l0 55 45 6 c24 4 47 11
50 16 8 13 -40 24 -70 16 -18 -5 -25 -2 -25 8 0 20 28 46 50 46 10 0 22 5 25
10 11 18 -26 23 -88 12 -34 -6 -63 -9 -65 -7 -5 5 68 115 76 115 2 0 18 -12
35 -26 21 -17 37 -24 53 -20 24 6 34 -13 49 -94 4 -19 11 -50 17 -68 10 -33
10 -34 59 -27 l49 7 0 -125 c0 -119 9 -159 25 -119 4 9 10 67 13 129 l4 111
32 5 c17 2 41 0 54 -6 30 -14 35 -7 70 88 16 44 32 88 37 97 14 33 -37 42
-158 28 -205 -23 -222 -22 -245 10 -11 15 -34 30 -51 33 -21 4 -29 11 -25 20
3 8 -6 21 -20 31 -33 21 -35 21 -46 -10z m468 -137 l3 -37 -55 0 c-53 0 -56 1
-56 24 0 14 -6 28 -12 33 -8 5 9 10 42 14 74 8 75 8 78 -34z m-164 7 c8 -22 8
-54 -1 -55 -5 0 -27 -2 -49 -5 -37 -5 -42 -3 -47 18 -15 52 -10 58 42 58 35 0
51 -4 55 -16z m152 -96 c-8 -43 -13 -46 -63 -40 -39 4 -43 6 -43 32 0 30 10
35 84 39 27 1 28 -1 22 -31z m-146 -17 c0 -26 -4 -29 -36 -33 -26 -3 -38 0
-45 13 -20 38 -11 49 36 49 43 0 45 -1 45 -29z"/>
  <path d="M377 235 c-23 -47 -22 -48 16 -29 51 26 59 35 46 50 -20 24 -45 15
-62 -21z"/>
  <path d="M202 205 c26 -39 68 -49 68 -16 0 24 -36 51 -67 51 l-23 0 22 -35z"/>
</g>
<g id="part-1" class="char-part">
  <path d="M305 578 c-2 -7 -9 -30 -15 -51 -14 -45 -62 -111 -138 -189 -31 -32
-52 -58 -47 -58 12 0 81 45 111 72 14 12 33 18 50 16 25 -3 29 -7 29 -33 0
-28 -3 -30 -48 -37 -69 -9 -70 -18 -4 -18 l57 0 0 -59 c0 -69 0 -69 -114 -80
l-71 -7 35 -22 c19 -12 40 -20 45 -18 6 3 67 23 138 46 70 23 127 45 127 51 0
11 -12 12 -42 0 -13 -4 -35 -11 -50 -15 -27 -6 -28 -5 -28 38 0 64 7 75 51 82
69 11 58 30 -13 25 -25 -2 -28 1 -28 28 0 25 4 31 23 31 12 0 28 4 35 9 27 17
-16 20 -80 7 -35 -7 -65 -12 -67 -10 -2 2 16 33 40 68 l44 64 32 -24 c38 -29
63 -31 63 -6 0 18 -37 42 -65 42 -8 0 -15 8 -15 18 0 34 -46 58 -55 30z"/>
  <path d="M386 238 c-21 -41 -21 -40 19 -21 37 18 45 37 19 47 -22 8 -21 9 -38
-26z"/>
  <path d="M204 211 c13 -24 34 -41 52 -41 14 0 0 42 -18 54 -37 26 -51 21 -34
-13z"/>
</g>
<g id="part-2" class="char-part">
  <path d="M695 495 c-38 -7 -112 -16 -164 -20 -51 -4 -89 -10 -84 -14 16 -10
30 -43 37 -86 16 -91 26 -117 44 -110 38 15 194 24 213 12 26 -16 35 -4 68 89
16 43 32 87 36 96 14 35 -55 50 -150 33z m75 -55 l0 -40 -55 0 c-52 0 -55 1
-55 24 0 14 -6 28 -12 33 -8 5 9 10 42 14 30 3 61 6 68 7 8 1 12 -12 12 -38z
m-165 -11 c4 -17 5 -32 3 -34 -1 -1 -22 -6 -45 -10 -40 -6 -43 -5 -53 21 -16
42 -6 54 44 54 41 0 45 -2 51 -31z m150 -81 c-9 -44 -13 -46 -62 -40 -39 4
-43 6 -43 32 0 30 10 35 83 39 27 1 28 -1 22 -31z m-145 -18 c0 -28 -2 -30
-40 -30 -22 0 -40 3 -40 8 0 4 -3 17 -6 30 -6 20 -3 22 40 22 44 0 46 -1 46
-30z"/>
</g>
<g id="part-3" class="char-part">
  <path d="M610 156 c0 -69 4 -127 9 -131 17 -10 31 66 31 163 0 85 -1 92 -20
92 -19 0 -20 -7 -20 -124z"/>
</g>
</g>
</svg>