<?xml version="1.0" standalone="no"?>
<!DOCTYPE svg PUBLIC "-//W3C//DTD SVG 20010904//EN"
 "http://www.w3.org/TR/2001/REC-SVG-20010904/DTD/svg10.dtd">
<svg version="1.0" xmlns="http://www.w3.org/2000/svg"
 width="96.000000pt" height="68.000000pt" viewBox="0 0 96.000000 68.000000"
 preserveAspectRatio="xMidYMid meet">
<metadata>
Created by potrace 1.16, written by Peter Selinger 2001-2019
Combined from part_0.svg through part_5.svg with named groups
</metadata>
<g transform="translate(0.000000,68.000000) scale(0.100000,-0.100000)" fill="#000000" stroke="none">
<g id="part-0" class="char-part">
  <path d="M587 556 l6 -46 -37 0 c-20 0 -39 0 -43 0 -5 0 -9 10 -11 24 -2 16
-11 26 -29 31 -33 8 -36 4 -23 -29 11 -29 3 -36 -43 -41 -36 -4 -34 -8 8 -14
34 -5 40 -10 43 -33 l3 -28 -71 0 -70 0 17 -26 c9 -15 22 -52 28 -83 l11 -55
90 4 c49 3 126 5 171 5 l81 0 36 73 c20 40 36 79 36 87 0 18 -58 29 -116 21
-42 -5 -44 -4 -44 19 0 25 11 31 70 37 40 5 23 23 -20 21 -38 -2 -39 -1 -42
35 -3 32 -7 37 -29 40 -26 3 -27 2 -22 -42z m-5 -92 c-5 -25 -21 -35 -52 -32
-17 2 -26 10 -28 25 -3 18 3 22 30 26 46 5 53 3 50 -19z m116 -40 c16 -5 22
-13 20 -28 -2 -11 -9 -21 -15 -20 -7 1 -29 2 -48 3 -27 1 -35 5 -35 20 0 28
31 37 78 25z m-118 -29 c0 -14 -3 -26 -7 -26 -58 -9 -63 -8 -63 16 0 18 6 25
28 28 15 2 30 5 35 6 4 0 7 -10 7 -24z m-112 -17 c-3 -20 -9 -23 -43 -23 -34
0 -40 3 -43 23 -3 20 1 22 43 22 42 0 46 -2 43 -22z m235 -24 c3 -3 1 -17 -5
-30 -9 -19 -19 -24 -50 -24 -34 0 -38 3 -38 24 0 20 6 25 33 29 17 2 37 5 43
5 6 1 13 -1 17 -4z m-225 -47 c3 -27 2 -28 -35 -25 -33 3 -38 6 -41 31 -3 27
-2 28 35 25 33 -3 38 -6 41 -31z m100 11 c-2 -18 -11 -24 -35 -26 -30 -3 -33
-1 -33 22 0 23 4 26 36 26 31 0 35 -3 32 -22z"/>
  <path d="M202 524 c2 -10 22 -32 46 -48 39 -28 44 -29 59 -14 30 31 5 55 -75
73 -29 6 -33 5 -30 -11z"/>
  <path d="M130 383 c0 -5 15 -24 34 -42 38 -37 69 -38 74 -3 3 16 -4 25 -25 33
-44 17 -83 22 -83 12z"/>
  <path d="M260 259 c-27 -43 -88 -109 -102 -109 -4 0 -8 -13 -8 -29 0 -31 38
-87 50 -74 14 14 100 217 100 235 0 28 -13 21 -40 -23z"/>
  <path d="M550 224 c-41 -8 -86 -12 -100 -10 l-25 4 -2 -88 c-1 -64 2 -92 12
-100 10 -8 15 -8 22 3 5 9 33 16 77 20 65 5 70 3 93 -21 l25 -27 19 24 c15 19
19 39 19 107 0 81 -1 85 -26 94 -14 6 -28 10 -32 9 -4 -1 -41 -8 -82 -15z m90
-43 c0 -24 -4 -29 -22 -28 -13 1 -51 -2 -85 -6 -63 -8 -63 -8 -63 17 0 21 6
26 38 31 20 4 42 8 47 10 6 2 27 4 48 4 34 1 37 -1 37 -28z m0 -70 c0 -27 -2
-28 -61 -35 -108 -11 -119 -9 -119 18 0 23 5 25 83 34 45 5 85 10 90 11 4 0 7
-12 7 -28z"/>
</g>
<g id="part-1" class="char-part">
  <path d="M234 495 c45 -40 76 -46 76 -14 0 22 -52 49 -92 49 -21 -1 -19 -4 16
-35z"/>
  <path d="M140 374 c40 -53 90 -72 90 -34 0 20 -20 32 -78 47 -25 6 -26 5 -12
-13z"/>
  <path d="M264 253 c-15 -21 -47 -59 -72 -84 l-43 -46 15 -37 c14 -33 46 -51
46 -25 0 6 21 58 46 116 25 58 43 107 41 110 -3 2 -18 -13 -33 -34z"/>
</g>
<g id="part-2" class="char-part">
  <path d="M587 560 c6 -43 5 -44 -54 -54 -30 -5 -32 -3 -35 27 -2 27 -8 33 -30
35 -16 2 -28 2 -28 0 0 -2 4 -18 9 -36 9 -29 8 -32 -12 -32 -12 0 -33 -4 -47
-8 -21 -6 -19 -8 20 -12 39 -4 45 -8 48 -31 2 -21 7 -25 26 -22 18 4 22 10 18
29 -4 20 0 24 21 24 14 0 32 3 41 6 12 5 16 0 16 -20 0 -21 5 -26 25 -26 20 0
25 5 25 25 0 25 10 31 70 37 41 5 23 23 -21 22 -39 -1 -41 0 -35 26 6 32 -9
50 -40 50 -20 0 -22 -4 -17 -40z"/>
</g>
<g id="part-3" class="char-part">
  <path d="M640 444 c-47 -7 -137 -16 -201 -20 l-117 -7 18 -31 c10 -17 21 -51
25 -76 8 -49 24 -78 35 -61 3 7 69 13 160 16 84 2 157 8 162 13 20 20 76 152
67 158 -27 16 -72 19 -149 8z m76 -27 c3 -8 -3 -37 -13 -66 l-18 -53 -55 -3
c-30 -1 -94 -6 -141 -10 l-86 -8 -6 39 c-3 22 -9 48 -12 60 -6 20 -2 21 72 28
43 4 103 11 133 15 88 13 120 12 126 -2z"/>
</g>
<g id="part-4" class="char-part">
  <path d="M550 223 c-36 -8 -78 -12 -95 -10 l-30 5 0 -87 c0 -47 4 -92 8 -98
11 -17 27 -16 27 1 0 9 21 15 72 19 70 6 74 5 95 -21 21 -26 22 -26 39 -9 14
13 19 37 22 104 5 120 -5 126 -138 96z m93 -32 c7 -27 -4 -39 -33 -38 -14 0
-50 -3 -81 -7 -55 -8 -56 -7 -61 18 -5 23 -1 26 36 35 23 5 62 9 87 10 38 1
48 -3 52 -18z m-1 -69 c11 -39 -3 -47 -94 -50 -88 -3 -88 -3 -88 21 0 24 4 25
83 35 45 5 85 10 88 11 4 0 9 -7 11 -17z"/>
</g>
</g>
</svg>