<?xml version="1.0" standalone="no"?>
<!DOCTYPE svg PUBLIC "-//W3C//DTD SVG 20010904//EN"
 "http://www.w3.org/TR/2001/REC-SVG-20010904/DTD/svg10.dtd">
<svg version="1.0" xmlns="http://www.w3.org/2000/svg"
 width="96.000000pt" height="68.000000pt" viewBox="0 0 96.000000 68.000000"
 preserveAspectRatio="xMidYMid meet">
<metadata>
Created by potrace 1.16, written by Peter Selinger 2001-2019
Combined from part_0.svg through part_5.svg with named groups
</metadata>
<g transform="translate(0.000000,68.000000) scale(0.100000,-0.100000)" fill="#000000" stroke="none">
<g id="part-0" class="char-part">
  <path d="M390 495 c0 -5 11 -23 25 -41 14 -18 25 -35 25 -37 0 -2 -28 -10 -62
-17 -53 -12 -59 -15 -36 -21 14 -4 47 -2 72 4 25 6 48 8 51 5 3 -3 0 -29 -7
-57 l-13 -51 -39 21 c-51 27 -56 18 -11 -19 44 -36 40 -48 -31 -111 -26 -23
-42 -41 -37 -41 16 0 101 60 107 75 8 22 21 18 54 -15 37 -36 52 -38 52 -6 0
15 -12 34 -31 50 l-31 27 21 49 c26 61 26 69 -1 80 -19 7 -16 9 20 9 23 1 42
5 42 11 0 11 -36 21 -65 17 -14 -1 -21 5 -23 20 -2 12 -9 26 -15 31 -16 14
-67 26 -67 17z"/>
  <path d="M607 486 c-80 -11 -95 -26 -26 -26 44 0 49 -9 49 -91 l0 -59 -40 0
c-22 0 -40 -4 -40 -10 0 -5 18 -10 40 -10 l40 0 2 -55 c1 -30 2 -63 2 -72 1
-15 -9 -18 -59 -21 -83 -4 -97 -10 -58 -27 23 -10 42 -11 65 -4 18 5 84 9 145
9 71 0 113 4 113 10 0 19 -54 32 -108 27 l-53 -6 3 72 3 72 38 5 c52 7 51 24
-1 28 l-44 3 4 67 c3 58 6 67 23 70 47 7 65 13 65 22 0 12 -61 11 -163 -4z"/>
  <path d="M255 481 c-11 -5 -48 -12 -83 -16 -72 -8 -80 -28 -14 -33 l42 -3 0
-58 0 -58 -40 -7 c-50 -8 -43 -28 8 -24 l37 3 3 -66 3 -67 -51 -12 c-60 -14
-70 -26 -36 -42 29 -12 32 -11 126 43 30 18 66 38 80 46 24 14 24 14 -10 8
-19 -4 -40 -11 -46 -16 -18 -14 -24 1 -24 62 0 59 7 69 51 69 10 0 19 5 19 10
0 6 -13 10 -30 10 -32 0 -33 2 -30 65 2 44 12 55 53 55 16 0 27 5 27 14 0 24
-45 33 -85 17z"/>
</g>
<g id="part-1" class="char-part">
  <path d="M240 474 c-25 -7 -58 -13 -75 -13 -16 -1 -37 -5 -44 -10 -28 -18 37
-24 117 -11 98 15 117 25 79 39 -16 6 -29 10 -30 10 -1 -1 -22 -7 -47 -15z"/>
</g>
<g id="part-2" class="char-part">
  <path d="M207 433 c-4 -3 -7 -33 -7 -65 0 -56 -1 -58 -27 -59 -16 0 -37 -4
-48 -9 -19 -7 -19 -8 5 -14 14 -4 36 -5 50 -4 24 3 25 1 25 -61 l0 -64 -50
-17 c-55 -18 -62 -30 -23 -44 20 -7 41 0 121 45 103 57 124 78 56 54 -23 -8
-45 -15 -50 -15 -5 0 -9 27 -9 60 l0 59 35 7 c48 9 52 20 10 28 -34 7 -35 8
-35 56 0 46 -2 50 -23 50 -13 0 -27 -3 -30 -7z"/>
</g>
<g id="part-3" class="char-part">
  <path d="M390 491 c0 -5 11 -23 25 -39 14 -17 25 -32 25 -35 0 -2 -28 -10 -62
-17 -52 -11 -59 -14 -38 -20 21 -6 206 17 220 28 13 9 -29 22 -57 17 -30 -5
-33 -4 -33 19 0 14 -9 31 -22 40 -25 18 -58 21 -58 7z"/>
</g>
<g id="part-4" class="char-part">
  <path d="M461 335 c-7 -30 -15 -55 -19 -55 -4 0 -20 9 -37 20 -47 31 -54 23
-11 -15 l38 -34 -21 -30 c-12 -17 -38 -44 -59 -61 -20 -16 -32 -30 -27 -30 17
0 79 41 100 66 26 31 31 30 65 -6 34 -36 50 -38 50 -6 0 15 -12 34 -31 50
l-31 26 23 56 c20 47 21 57 9 64 -28 18 -37 10 -49 -45z"/>
</g>
<g id="part-5" class="char-part">
  <path d="M634 328 c3 -79 9 -134 16 -136 5 -2 10 -8 10 -13 0 -6 -4 -7 -10 -4
-5 3 -10 3 -10 -2 0 -4 -3 -19 -6 -33 -5 -20 -4 -23 6 -13 7 6 18 9 24 7 9 -4
12 17 12 78 l-1 83 28 3 c15 2 27 8 27 14 0 6 -11 8 -25 6 -14 -3 -25 0 -26 6
-1 6 -2 38 -3 70 -1 53 -3 59 -24 63 l-23 3 5 -132z m33 40 c-3 -8 -6 -5 -6 6
-1 11 2 17 5 13 3 -3 4 -12 1 -19z"/>
  <path d="M600 299 c0 -5 5 -7 10 -4 6 3 10 8 10 11 0 2 -4 4 -10 4 -5 0 -10
-5 -10 -11z"/>
  <path d="M568 293 c7 -3 16 -2 19 1 4 3 -2 6 -13 5 -11 0 -14 -3 -6 -6z"/>
  <path d="M700 142 c0 -5 25 -10 55 -11 33 -1 55 2 55 8 0 7 -23 11 -55 11 -30
0 -55 -4 -55 -8z"/>
  <path d="M526 131 c-18 -7 -18 -8 -2 -14 20 -8 96 2 96 12 0 9 -71 10 -94 2z"/>
</g>
</g>
</svg>