<?xml version="1.0" standalone="no"?>
<!DOCTYPE svg PUBLIC "-//W3C//DTD SVG 20010904//EN"
 "http://www.w3.org/TR/2001/REC-SVG-20010904/DTD/svg10.dtd">
<svg version="1.0" xmlns="http://www.w3.org/2000/svg"
 width="96.000000pt" height="68.000000pt" viewBox="0 0 96.000000 68.000000"
 preserveAspectRatio="xMidYMid meet">
<metadata>
Created by potrace 1.16, written by Peter Selinger 2001-2019
Combined from part_0.svg through part_5.svg with named groups
</metadata>
<g transform="translate(0.000000,68.000000) scale(0.100000,-0.100000)" fill="#000000" stroke="none">
<g id="part-0" class="char-part">
  <path d="M280 572 c0 -5 9 -21 20 -35 l20 -25 -27 -6 c-16 -3 -63 -8 -105 -12
-54 -4 -78 -10 -78 -19 0 -15 51 -29 77 -21 10 3 83 13 163 21 79 9 147 18
149 21 14 14 -24 26 -73 22 -47 -2 -56 0 -56 13 0 9 -6 21 -12 27 -19 14 -78
25 -78 14z"/>
  <path d="M665 510 c-22 -4 -66 -11 -98 -15 -63 -7 -68 -25 -6 -25 31 0 39 -4
39 -17 -1 -29 -35 -67 -56 -61 -18 4 -19 -3 -19 -111 0 -115 8 -158 26 -130 4
7 11 10 15 7 9 -10 -31 -71 -68 -101 -18 -16 -26 -27 -17 -27 16 0 78 40 126
80 29 26 30 29 15 44 -15 15 -11 16 47 16 49 0 67 -4 76 -17 11 -15 15 -15 29
-4 13 11 16 35 16 131 l0 118 -27 9 c-16 6 -50 6 -81 1 -72 -11 -82 -7 -49 22
19 16 24 27 17 35 -8 9 9 14 67 19 82 6 89 9 78 25 -7 12 -70 13 -130 1z m69
-136 c13 -34 7 -44 -26 -43 -18 1 -58 -2 -90 -6 -56 -8 -56 -8 -55 19 2 22 8
27 37 32 19 3 42 7 50 9 42 8 78 4 84 -11z m6 -78 c0 -22 -5 -24 -67 -32 -103
-12 -108 -11 -111 12 -3 19 4 22 80 31 46 6 86 11 91 12 4 0 7 -10 7 -23z m0
-73 l0 -28 -91 -2 c-88 -3 -90 -2 -87 19 3 19 11 22 58 26 30 2 57 6 59 8 2 2
17 4 33 4 24 0 28 -4 28 -27z"/>
  <path d="M320 435 c-41 -6 -94 -11 -117 -10 -24 1 -43 -2 -43 -7 0 -4 4 -8 8
-8 9 0 42 -92 42 -117 0 -11 7 -13 28 -9 15 4 66 7 113 8 l87 2 29 63 30 64
-21 14 c-23 17 -50 17 -156 0z m103 -41 c-6 -76 -6 -76 -126 -89 l-57 -6 -6
30 c-4 17 -11 34 -15 37 -5 3 -9 14 -9 25 0 16 7 19 48 20 26 0 70 4 97 8 66
11 70 9 68 -25z"/>
  <path d="M349 393 c-1 -5 -2 -17 -3 -28 -1 -14 -8 -20 -26 -20 -30 0 -40 31
-13 38 10 3 3 5 -14 6 -38 1 -43 -15 -15 -47 26 -30 85 -20 99 18 9 23 8 30
-4 34 -19 8 -23 7 -24 -1z"/>
  <path d="M345 260 c-16 -4 -54 -8 -82 -9 -50 -1 -63 -8 -45 -25 4 -4 12 -29
18 -54 7 -34 14 -46 25 -42 7 3 42 5 76 5 l62 0 21 55 c20 52 20 55 4 67 -19
14 -33 15 -79 3z m45 -37 c0 -15 -11 -18 -70 -20 -52 -2 -70 1 -70 10 0 23 11
27 77 27 53 0 63 -3 63 -17z m-6 -47 c-6 -15 -96 -32 -114 -21 -30 19 -2 32
72 34 37 1 46 -2 42 -13z"/>
  <path d="M690 130 c0 -5 4 -10 10 -10 5 0 28 -20 51 -45 43 -46 66 -56 75 -31
9 24 -27 62 -77 79 -55 20 -59 20 -59 7z"/>
  <path d="M345 104 c-72 -11 -149 -19 -234 -24 -2 0 4 -9 15 -21 15 -16 27 -20
54 -16 52 8 303 67 309 72 7 8 -47 4 -144 -11z"/>
</g>
<g id="part-1" class="char-part">
  <path d="M299 541 c12 -16 21 -31 21 -34 0 -3 -39 -8 -87 -12 -49 -4 -97 -11
-108 -15 -19 -8 -19 -8 -1 -15 21 -9 366 25 366 36 0 14 -33 19 -81 13 -45 -6
-49 -5 -49 14 0 23 -27 42 -60 42 l-21 0 20 -29z"/>
</g>
<g id="part-2" class="char-part">
  <path d="M305 99 c-72 -11 -145 -18 -162 -16 -40 4 -43 -14 -8 -33 23 -12 44
-10 178 20 237 52 234 64 -8 29z"/>
</g>
<g id="part-3" class="char-part">
  <path d="M695 515 c-5 -2 -49 -9 -97 -15 -88 -12 -111 -30 -37 -30 42 0 45 -4
29 -46 -6 -15 -9 -29 -6 -31 8 -9 75 59 70 71 -4 10 15 15 76 20 69 6 79 10
69 22 -10 13 -77 18 -104 9z"/>
</g>
<g id="part-4" class="char-part">
  <path d="M665 404 c-44 -7 -97 -13 -119 -13 -33 -1 -37 -3 -26 -16 8 -10 11
-41 8 -95 -3 -71 -1 -80 14 -80 11 0 18 7 18 18 0 14 10 18 53 21 111 7 132 6
130 -6 -2 -8 7 -13 21 -13 24 0 25 2 25 75 0 42 3 80 6 85 3 5 -7 15 -22 23
-23 11 -42 11 -108 1z m73 -47 c3 -26 1 -28 -30 -26 -18 1 -59 -2 -90 -6 -33
-4 -58 -4 -58 1 0 20 13 53 19 50 3 -2 24 0 46 4 22 5 56 7 75 7 30 -2 35 -6
38 -30z m5 -50 c9 -25 -7 -34 -88 -45 -86 -12 -95 -10 -95 17 0 15 13 20 78
28 42 5 82 11 88 11 7 1 14 -4 17 -11z"/>
</g>
<g id="part-5" class="char-part">
  <path d="M580 150 c0 -5 6 -11 13 -13 8 -4 6 -6 -4 -6 -19 -1 -52 -35 -42 -44
3 -4 1 -7 -5 -7 -7 0 -12 -5 -12 -11 0 -6 22 7 49 28 27 21 47 41 45 44 -6 10
-44 18 -44 9z"/>
  <path d="M755 80 c29 -29 53 -46 58 -41 15 15 -3 51 -29 57 -13 3 -24 10 -24
15 0 5 -7 5 -17 2 -11 -4 -14 -3 -9 5 4 8 0 12 -11 12 -12 0 -3 -14 32 -50z"/>
</g>
</g>
</svg>