<?xml version="1.0" standalone="no"?>
<!DOCTYPE svg PUBLIC "-//W3C//DTD SVG 20010904//EN"
 "http://www.w3.org/TR/2001/REC-SVG-20010904/DTD/svg10.dtd">
<svg version="1.0" xmlns="http://www.w3.org/2000/svg"
 width="96.000000pt" height="68.000000pt" viewBox="0 0 96.000000 68.000000"
 preserveAspectRatio="xMidYMid meet">
<metadata>
Created by potrace 1.16, written by Peter Selinger 2001-2019
Combined from part_0.svg through part_5.svg with named groups
</metadata>
<g transform="translate(0.000000,68.000000) scale(0.100000,-0.100000)" fill="#000000" stroke="none">
<g id="part-0" class="char-part">
  <path d="M573 573 c-7 -2 -13 -12 -13 -21 -1 -9 -13 -35 -29 -57 -24 -35 -32
-40 -64 -39 -31 1 -35 -1 -25 -13 6 -8 19 -45 28 -81 l17 -67 39 1 c167 4 203
13 204 54 0 8 11 34 25 58 l24 43 -35 16 c-30 15 -44 15 -103 5 -37 -6 -75
-14 -84 -18 -34 -13 -16 15 33 51 28 20 50 40 50 44 0 7 -46 33 -53 30 -1 0
-8 -3 -14 -6z m127 -142 c0 -11 -3 -22 -7 -24 -5 -3 -52 -8 -105 -12 -95 -7
-98 -7 -98 13 0 17 8 22 43 26 23 3 53 7 67 10 14 2 42 4 63 5 30 1 37 -2 37
-18z m-17 -74 c-4 -21 -12 -25 -61 -32 -105 -13 -107 -13 -107 15 0 21 5 25
35 27 19 2 55 7 80 11 55 10 59 9 53 -21z"/>
  <path d="M254 553 c-12 -38 -28 -63 -71 -112 -60 -68 -41 -68 58 1 13 9 39 19
58 23 l34 7 -21 -28 c-44 -62 -66 -75 -130 -77 -53 -2 -59 -4 -47 -17 7 -8 19
-37 26 -65 17 -70 27 -89 43 -76 7 6 51 12 99 13 l86 3 24 73 24 73 -29 15
c-25 13 -35 13 -59 3 -16 -6 -32 -9 -36 -5 -3 3 -4 7 -2 9 50 35 119 92 119
98 0 5 -11 14 -24 20 -19 9 -35 8 -72 -5 -45 -15 -46 -15 -30 2 21 24 20 39
-3 52 -28 14 -41 13 -47 -7z m126 -208 c0 -22 -4 -25 -35 -25 -27 0 -35 4 -35
18 0 25 9 32 42 32 23 0 28 -4 28 -25z m-115 -15 c0 -19 -6 -24 -34 -28 -21
-2 -37 2 -42 10 -15 24 -9 37 19 40 47 6 57 2 57 -22z m111 -46 c-3 -9 -6 -19
-6 -24 0 -14 -59 -17 -64 -3 -10 26 6 43 41 43 28 0 34 -3 29 -16z m-106 -19
c0 -22 -4 -25 -35 -25 -31 0 -35 3 -35 25 0 22 4 25 35 25 31 0 35 -3 35 -25z"/>
  <path d="M625 254 c-11 -2 -50 -6 -87 -9 -76 -7 -93 -25 -24 -25 31 0 46 -5
50 -16 13 -35 6 -43 -41 -46 -61 -4 -58 -21 4 -28 43 -4 48 -8 51 -31 3 -25 1
-26 -59 -33 -34 -3 -77 -6 -95 -6 -19 0 -34 -4 -34 -9 0 -16 47 -21 99 -11 28
5 118 10 201 11 120 0 150 4 150 14 0 21 -57 28 -143 18 l-77 -9 0 32 c0 32 1
33 55 39 30 4 55 11 55 16 0 8 -63 14 -97 10 -8 -1 -13 10 -13 29 0 28 2 30
39 30 44 0 71 8 71 21 0 8 -60 10 -105 3z"/>
  <path d="M360 156 c0 -8 10 -27 23 -42 20 -22 25 -24 30 -11 3 9 -3 27 -14 41
-23 29 -39 34 -39 12z"/>
  <path d="M121 127 c-26 -43 -28 -77 -3 -77 31 0 53 67 33 98 -6 10 -14 5 -30
-21z"/>
  <path d="M280 152 c0 -13 30 -52 41 -52 17 0 9 39 -10 50 -23 12 -31 13 -31 2z"/>
  <path d="M207 133 c14 -42 43 -58 43 -25 0 21 -18 42 -37 42 -7 0 -10 -7 -6
-17z"/>
</g>
<g id="part-1" class="char-part">
  <path d="M248 522 c-10 -21 -39 -60 -65 -86 -28 -27 -40 -44 -28 -40 26 10 92
51 98 62 7 11 77 15 77 4 0 -5 -12 -19 -26 -33 -14 -13 -30 -32 -36 -42 -9
-17 -8 -17 19 -3 15 8 55 36 87 62 51 40 56 48 42 56 -18 10 -60 7 -106 -8
-24 -7 -24 -7 -8 18 12 19 14 28 5 37 -20 20 -42 11 -59 -27z"/>
</g>
<g id="part-2" class="char-part">
  <path d="M371 131 c13 -24 27 -37 35 -34 21 8 17 27 -9 51 -38 36 -51 27 -26
-17z"/>
  <path d="M120 128 c-26 -42 -26 -78 -2 -78 21 0 42 38 42 75 0 38 -18 39 -40
3z"/>
  <path d="M288 130 c19 -33 42 -40 42 -12 0 23 -19 42 -42 42 -16 0 -16 -2 0
-30z"/>
  <path d="M207 133 c14 -42 43 -58 43 -25 0 21 -18 42 -37 42 -7 0 -10 -7 -6
-17z"/>
</g>
<g id="part-3" class="char-part">
  <path d="M570 572 c0 -5 -15 -34 -34 -65 -19 -31 -31 -57 -27 -57 12 0 131 90
131 99 0 8 -44 31 -60 31 -6 0 -10 -4 -10 -8z"/>
</g>
<g id="part-4" class="char-part">
  <path d="M595 464 c-38 -8 -91 -13 -116 -10 l-47 5 18 -37 c10 -20 21 -53 25
-72 13 -63 20 -69 65 -59 22 5 70 10 106 12 l66 2 20 55 c11 30 27 62 34 71
20 22 18 26 -17 38 -40 14 -66 13 -154 -5z m103 -36 c-3 -21 -11 -24 -101 -33
-54 -6 -100 -8 -103 -6 -2 2 -4 12 -4 22 0 14 11 19 48 24 26 4 52 8 57 10 6
2 32 4 58 4 45 1 48 -1 45 -21z m-8 -45 c-1 -40 -13 -51 -68 -57 -109 -13
-107 -14 -110 17 -3 26 -1 27 40 28 24 0 61 4 83 8 55 12 55 12 55 4z"/>
</g>
<g id="part-5" class="char-part">
  <path d="M573 208 c1 -35 -5 -48 -20 -48 -15 0 -16 -2 -3 -9 8 -6 18 -7 22 -5
4 3 8 -6 8 -20 0 -18 4 -24 15 -20 8 4 15 11 15 18 0 18 39 38 61 31 11 -4 19
-2 19 5 0 7 -14 10 -37 8 -31 -2 -38 0 -38 15 0 10 -7 22 -15 27 -20 13 -28
12 -27 -2z"/>
  <path d="M493 143 c9 -2 23 -2 30 0 6 3 -1 5 -18 5 -16 0 -22 -2 -12 -5z"/>
  <path d="M589 93 c-1 -5 -1 -11 0 -15 0 -4 -11 -10 -27 -14 -47 -10 -48 -12
-5 -13 24 -1 43 4 46 12 4 9 8 9 15 -2 5 -7 15 -11 20 -7 6 4 54 7 106 8 88 1
93 2 68 15 -21 11 -36 12 -69 4 -62 -16 -122 -14 -129 4 -6 16 -23 21 -25 8z"/>
  <path d="M410 50 c-11 -7 1 -9 40 -9 42 1 49 3 30 9 -35 11 -53 11 -70 0z"/>
</g>
</g>
</svg>