<?xml version="1.0" standalone="no"?>
<!DOCTYPE svg PUBLIC "-//W3C//DTD SVG 20010904//EN"
 "http://www.w3.org/TR/2001/REC-SVG-20010904/DTD/svg10.dtd">
<svg version="1.0" xmlns="http://www.w3.org/2000/svg"
 width="96.000000pt" height="68.000000pt" viewBox="0 0 96.000000 68.000000"
 preserveAspectRatio="xMidYMid meet">
<metadata>
Created by potrace 1.16, written by Peter Selinger 2001-2019
Combined from part_0.svg through part_5.svg with named groups
</metadata>
<g transform="translate(0.000000,68.000000) scale(0.100000,-0.100000)" fill="#000000" stroke="none">
<g id="part-0" class="char-part">
  <path d="M224 558 c4 -18 10 -57 13 -87 l6 -54 -66 6 c-67 6 -80 0 -53 -23 8
-6 20 -36 27 -66 14 -62 30 -82 49 -59 25 30 40 18 40 -33 0 -46 -1 -47 -40
-60 -22 -6 -47 -12 -55 -12 -18 0 -19 -12 -3 -28 19 -19 36 -15 124 28 93 45
97 46 114 25 15 -18 36 -19 43 -2 7 20 -24 55 -57 63 -25 6 -27 4 -22 -12 5
-15 -1 -22 -24 -31 l-30 -11 0 43 0 44 55 6 c52 7 70 18 43 27 -9 3 -5 20 14
56 27 52 27 52 6 63 -20 11 -68 8 -100 -6 -15 -6 -18 -2 -18 21 0 16 5 47 11
68 10 35 9 42 -7 53 -10 7 -31 13 -47 13 -28 0 -29 -2 -23 -32z m116 -183 c0
-24 -6 -37 -19 -45 -30 -15 -31 -14 -31 35 0 41 2 45 25 45 22 0 25 -4 25 -35z
m-100 -14 c0 -22 -5 -43 -11 -47 -14 -9 -36 15 -44 48 -7 27 -7 27 48 37 4 0
7 -17 7 -38z"/>
  <path d="M550 565 c0 -3 9 -18 20 -33 11 -15 21 -38 22 -52 3 -24 1 -25 -68
-28 l-70 -3 4 -86 c3 -47 -1 -117 -8 -156 -11 -61 -10 -71 4 -85 8 -9 18 -13
21 -10 3 3 9 38 12 77 6 71 6 72 42 87 20 8 50 31 68 51 l32 35 15 -36 c15
-37 46 -56 92 -56 23 0 24 -3 24 -61 l0 -62 -47 7 -48 6 40 -39 c77 -76 105
-47 105 109 0 59 5 132 11 164 9 52 8 59 -8 72 -18 15 -76 14 -150 -1 -29 -7
-32 -5 -51 38 -11 25 -30 50 -41 56 -12 7 -21 9 -21 6z m208 -198 l3 -78 -25
16 c-22 15 -96 114 -96 128 0 9 34 15 75 14 l40 -2 3 -78z m-154 64 c7 -11 -8
-54 -26 -77 -33 -42 -79 -86 -84 -81 -3 3 -3 39 1 81 l7 75 37 4 c20 2 41 4
48 5 6 1 14 -2 17 -7z"/>
</g>
<g id="part-1" class="char-part">
  <path d="M225 568 c4 -13 10 -51 12 -85 5 -61 5 -61 -25 -68 -17 -3 -47 -3
-68 1 l-38 7 21 -27 c12 -14 26 -49 33 -76 13 -55 13 -55 39 -38 32 19 51 3
51 -43 0 -33 3 -40 16 -35 9 3 18 6 20 6 2 0 4 20 4 45 l0 45 49 0 c28 0 53 5
56 10 3 6 1 10 -4 10 -17 0 -13 21 10 64 14 26 17 42 10 49 -12 12 -56 13 -93
3 -27 -8 -28 -7 -28 32 0 23 4 52 10 66 8 21 6 28 -13 41 -12 8 -32 15 -45 15
-21 0 -23 -3 -17 -22z m125 -184 c0 -36 -17 -64 -40 -64 -17 0 -20 7 -20 45 0
43 1 45 30 45 26 0 30 -4 30 -26z m-110 -29 c0 -41 -2 -45 -24 -45 -19 0 -25
7 -34 40 -11 45 -9 50 30 50 27 0 28 -2 28 -45z"/>
</g>
<g id="part-2" class="char-part">
  <path d="M350 239 c31 -59 70 -79 70 -35 0 28 -14 42 -54 52 -27 6 -28 6 -16
-17z"/>
</g>
<g id="part-3" class="char-part">
  <path d="M540 562 c0 -4 9 -13 19 -19 11 -7 27 -37 35 -67 16 -54 16 -57 -4
-96 -12 -23 -37 -59 -56 -80 l-36 -40 31 11 c17 6 47 29 65 51 l35 40 15 -36
c9 -22 25 -40 41 -46 29 -11 75 -13 75 -4 0 4 -18 24 -41 46 -26 26 -56 73
-84 133 -24 52 -53 98 -64 104 -23 13 -31 14 -31 3z"/>
</g>
<g id="part-4" class="char-part">
  <path d="M660 465 c-36 -7 -96 -13 -135 -14 l-70 -1 0 -117 c0 -65 -4 -134 -8
-153 -6 -25 -4 -40 7 -55 8 -11 17 -17 21 -14 3 4 10 73 14 153 4 81 12 151
17 155 10 10 158 31 216 31 37 0 38 -1 39 -37 1 -35 0 -184 -1 -242 0 -22 -3
-23 -47 -18 l-48 5 44 -39 c80 -71 94 -53 102 135 3 78 9 155 13 172 7 26 4
32 -19 42 -31 14 -57 14 -145 -3z"/>
</g>
</g>
</svg>