<?xml version="1.0" standalone="no"?>
<!DOCTYPE svg PUBLIC "-//W3C//DTD SVG 20010904//EN"
 "http://www.w3.org/TR/2001/REC-SVG-20010904/DTD/svg10.dtd">
<svg version="1.0" xmlns="http://www.w3.org/2000/svg"
 width="96.000000pt" height="68.000000pt" viewBox="0 0 96.000000 68.000000"
 preserveAspectRatio="xMidYMid meet">
<metadata>
Created by potrace 1.16, written by Peter Selinger 2001-2019
Combined from part_0.svg through part_5.svg with named groups
</metadata>
<g transform="translate(0.000000,68.000000) scale(0.100000,-0.100000)" fill="#000000" stroke="none">
<g id="part-0" class="char-part">
  <path d="M596 613 c-3 -4 -6 -21 -6 -39 0 -34 -13 -44 -58 -44 -23 -1 -25 -2
-9 -11 9 -5 21 -8 26 -4 5 3 13 0 16 -6 4 -6 -8 -26 -26 -45 -36 -37 -27 -46
14 -14 34 27 37 26 37 -15 0 -19 4 -35 10 -35 5 0 12 16 16 35 3 19 8 35 11
35 2 0 19 -11 37 -25 39 -30 56 -32 56 -7 0 12 -16 25 -51 40 -28 11 -48 25
-45 31 4 5 27 13 51 17 46 6 59 19 28 26 -10 2 -30 1 -45 -3 -26 -7 -28 -6
-28 26 0 30 -19 52 -34 38z"/>
  <path d="M255 561 l7 -49 -57 -8 c-64 -10 -74 -29 -15 -28 22 0 40 -1 40 -4 0
-3 -23 -27 -51 -53 -39 -39 -46 -49 -30 -49 11 0 40 16 65 35 l46 35 0 -41 c0
-51 21 -48 33 4 8 32 11 35 28 26 22 -11 39 -5 39 15 0 8 -13 16 -30 20 -39 7
-38 22 1 30 38 7 34 31 -5 31 -27 -1 -28 1 -22 36 6 38 -3 49 -41 49 -12 0
-14 -9 -8 -49z"/>
  <path d="M445 578 c-8 -18 -17 -22 -40 -20 -29 3 -29 3 -10 -12 20 -14 20 -15
-4 -35 -29 -25 -20 -28 15 -5 20 14 30 15 50 5 35 -16 49 -4 22 19 l-23 19 23
16 c12 9 20 21 17 26 -11 17 -40 9 -50 -13z"/>
  <path d="M436 464 c-5 -12 -13 -14 -33 -9 -22 5 -25 4 -14 -8 9 -12 8 -18 -4
-31 -13 -12 -13 -16 -3 -16 8 0 19 5 26 12 9 9 20 7 46 -7 42 -23 56 -15 27
14 -21 21 -28 43 -12 39 5 -2 11 2 13 7 6 18 -39 17 -46 -1z"/>
  <path d="M350 371 c0 -15 -10 -20 -45 -25 -150 -20 -141 -18 -115 -28 14 -5
49 -7 78 -3 32 4 52 3 52 -4 0 -18 -83 -80 -151 -112 -38 -18 -67 -34 -65 -36
2 -2 32 6 67 18 72 25 128 60 178 112 29 31 42 37 96 42 l62 7 99 -71 c97 -70
99 -71 161 -71 34 0 64 4 67 8 2 4 -30 18 -73 31 -84 25 -192 79 -199 98 -2 8
17 13 65 15 l68 3 -33 16 c-29 14 -44 14 -137 1 -94 -12 -106 -12 -121 2 -22
22 -54 21 -54 -3z"/>
  <path d="M420 285 c-51 -22 -52 -23 -25 -27 47 -5 39 -32 -10 -36 -22 -2 -44
-8 -50 -14 -7 -7 8 -9 45 -6 49 3 55 1 55 -17 0 -18 -9 -21 -95 -28 -52 -5
-97 -11 -100 -13 -2 -3 2 -10 10 -15 14 -9 70 -6 148 7 32 6 32 6 32 -36 0
-41 0 -42 -30 -35 -19 4 -30 3 -30 -4 0 -6 4 -11 9 -11 4 0 20 -12 35 -27 25
-25 27 -25 40 -7 8 10 17 44 20 76 l7 58 90 0 c68 0 90 3 86 13 -3 8 -30 12
-90 12 -47 0 -89 4 -94 9 -12 12 27 36 59 36 15 0 28 5 28 10 0 6 -19 10 -43
10 -57 0 -79 21 -37 35 16 5 31 15 32 20 5 18 -36 14 -92 -10z"/>
</g>
<g id="part-1" class="char-part">
  <path d="M260 561 c0 -54 2 -53 -80 -68 l-45 -8 55 -5 55 -5 -54 -53 c-62 -60
-55 -67 18 -17 l51 35 0 -34 c0 -38 14 -55 24 -30 3 9 6 29 6 45 0 26 2 29 19
19 25 -13 51 -13 51 0 0 5 -14 13 -32 18 -44 11 -46 28 -3 36 45 9 46 26 1 26
-34 0 -35 1 -29 36 4 25 2 39 -8 45 -25 16 -29 10 -29 -40z"/>
</g>
<g id="part-2" class="char-part">
  <path d="M590 581 c0 -40 -1 -41 -40 -47 -42 -7 -45 -24 -4 -24 34 0 30 -12
-16 -54 -46 -42 -39 -47 14 -11 20 14 39 25 41 25 3 0 5 -16 5 -35 0 -19 4
-35 9 -35 11 0 21 25 21 51 0 25 6 24 42 -6 29 -25 49 -31 61 -19 14 15 -15
42 -58 54 -56 16 -53 32 6 44 24 5 46 11 49 13 12 10 -28 22 -57 17 -30 -6
-32 -4 -35 27 -2 23 -9 35 -20 37 -15 3 -18 -4 -18 -37z"/>
</g>
<g id="part-3" class="char-part">
  <path d="M350 370 c0 -20 -9 -23 -125 -36 -52 -6 -57 -8 -35 -16 14 -5 49 -7
78 -3 31 4 52 3 52 -3 0 -16 -102 -89 -170 -121 -74 -35 -69 -40 11 -12 85 29
130 56 178 105 40 41 49 45 106 51 l62 7 99 -71 c94 -68 101 -71 154 -71 91 0
89 14 -7 43 -89 27 -193 79 -193 97 0 6 30 10 67 10 62 0 66 1 51 16 -19 19
-64 20 -177 4 -69 -11 -83 -10 -103 4 -30 21 -48 20 -48 -4z"/>
</g>
<g id="part-4" class="char-part">
  <path d="M453 299 c-6 -6 -28 -17 -49 -24 -35 -13 -36 -14 -12 -15 54 0 43
-39 -12 -40 -14 0 -32 -5 -40 -11 -11 -7 -4 -10 30 -8 63 2 70 1 70 -15 0 -19
-17 -23 -117 -31 -46 -4 -83 -11 -83 -16 0 -16 49 -21 100 -10 89 19 96 17 92
-29 -4 -40 -4 -40 -40 -34 l-35 7 42 -39 c41 -37 44 -37 57 -19 8 10 14 31 14
46 0 14 3 41 6 58 l7 31 96 0 c88 1 94 2 76 16 -15 12 -39 15 -100 12 -69 -3
-80 -1 -83 14 -3 14 6 19 38 24 56 9 61 24 7 24 -26 0 -49 6 -56 14 -10 12 -5
16 25 26 27 9 33 15 23 21 -19 12 -43 11 -56 -2z"/>
</g>
</g>
</svg>