<?xml version="1.0" standalone="no"?>
<!DOCTYPE svg PUBLIC "-//W3C//DTD SVG 20010904//EN"
 "http://www.w3.org/TR/2001/REC-SVG-20010904/DTD/svg10.dtd">
<svg version="1.0" xmlns="http://www.w3.org/2000/svg"
 width="96.000000pt" height="68.000000pt" viewBox="0 0 96.000000 68.000000"
 preserveAspectRatio="xMidYMid meet">
<metadata>
Created by potrace 1.16, written by Peter Selinger 2001-2019
Combined from part_0.svg through part_5.svg with named groups
</metadata>
<g transform="translate(0.000000,68.000000) scale(0.100000,-0.100000)" fill="#000000" stroke="none">
<g id="part-0" class="char-part">
  <path d="M314 588 c4 -13 9 -53 13 -89 l6 -66 -72 -9 c-39 -5 -73 -13 -74 -19
-1 -6 26 -11 61 -13 34 -2 62 -6 62 -11 0 -20 -69 -107 -127 -161 -36 -33 -59
-60 -51 -60 23 0 109 59 151 104 l38 41 -6 -80 c-3 -44 -8 -91 -11 -105 -4
-18 1 -34 15 -50 21 -25 21 -25 36 -6 11 15 15 47 15 128 0 59 4 108 8 108 5
0 17 -9 27 -20 25 -28 57 -27 53 2 -2 16 -17 30 -45 43 -34 16 -42 25 -43 47
0 28 6 32 73 44 55 9 40 29 -22 29 l-52 -1 5 31 c20 109 20 110 -9 123 -42 19
-58 16 -51 -10z"/>
  <path d="M587 603 c-4 -3 -7 -16 -7 -28 0 -24 -42 -137 -65 -172 -8 -12 -22
-34 -31 -48 -23 -35 -11 -31 37 13 38 34 49 38 126 48 117 14 118 13 116 -115
-1 -102 -13 -161 -37 -181 -10 -7 -27 -8 -55 -1 -22 5 -41 7 -41 5 0 -2 18
-22 41 -43 34 -34 44 -38 62 -30 12 6 33 26 47 46 22 33 25 50 32 182 6 139 6
147 -14 164 -25 21 -37 21 -108 2 -62 -17 -120 -20 -120 -6 0 5 3 11 8 13 11
5 62 104 62 122 0 8 -9 20 -19 26 -23 12 -26 12 -34 3z"/>
  <path d="M526 302 c-9 -8 55 -72 71 -72 15 0 18 46 3 55 -19 12 -68 23 -74 17z"/>
</g>
<g id="part-1" class="char-part">
  <path d="M317 603 c-3 -3 -2 -16 4 -30 5 -13 9 -51 9 -83 l0 -59 -35 -6 c-107
-16 -113 -20 -42 -23 44 -2 67 -7 67 -15 0 -22 -89 -131 -146 -179 -30 -27
-53 -48 -49 -48 24 0 100 52 149 104 l59 61 -7 -70 c-4 -38 -9 -92 -12 -120
-5 -55 5 -81 30 -72 13 5 16 25 16 125 0 65 3 121 6 125 3 3 20 -8 36 -24 33
-31 43 -35 52 -20 12 19 -7 41 -50 57 -31 12 -43 22 -39 31 3 8 5 23 5 33 0
14 11 20 50 25 65 9 62 31 -4 28 -44 -3 -46 -2 -46 25 0 15 4 43 9 63 5 21 6
42 2 47 -8 13 -57 33 -64 25z"/>
</g>
<g id="part-2" class="char-part">
  <path d="M587 603 c-2 -5 -8 -26 -12 -48 -7 -40 -43 -119 -83 -185 -35 -56
-26 -58 26 -7 l48 47 94 3 93 2 10 -35 c12 -49 -5 -212 -27 -246 -14 -20 -23
-24 -42 -20 -13 3 -36 9 -51 13 -25 6 -25 4 14 -35 23 -23 50 -42 61 -42 15 0
69 47 83 73 1 1 5 60 9 132 5 72 10 138 12 149 2 11 -8 26 -24 39 -27 20 -29
20 -100 4 -40 -10 -85 -17 -101 -17 l-28 0 41 74 41 74 -23 16 c-25 18 -35 20
-41 9z"/>
</g>
<g id="part-3" class="char-part">
  <path d="M520 302 c0 -12 64 -72 77 -72 17 0 23 26 10 44 -19 24 -87 46 -87
28z"/>
</g>
</g>
</svg>