<?xml version="1.0" standalone="no"?>
<!DOCTYPE svg PUBLIC "-//W3C//DTD SVG 20010904//EN"
 "http://www.w3.org/TR/2001/REC-SVG-20010904/DTD/svg10.dtd">
<svg version="1.0" xmlns="http://www.w3.org/2000/svg"
 width="96.000000pt" height="68.000000pt" viewBox="0 0 96.000000 68.000000"
 preserveAspectRatio="xMidYMid meet">
<metadata>
Created by potrace 1.16, written by Peter Selinger 2001-2019
Combined from part_0.svg through part_5.svg with named groups
</metadata>
<g transform="translate(0.000000,68.000000) scale(0.100000,-0.100000)" fill="#000000" stroke="none">
<g id="part-0" class="char-part">
  <path d="M590 560 c-14 -4 -44 -8 -67 -9 -41 -1 -42 -2 -37 -29 7 -34 -12
-109 -32 -129 -23 -24 -16 -35 12 -17 31 21 64 83 64 123 0 28 3 30 44 36 25
4 49 4 55 0 6 -3 11 -34 11 -69 0 -58 2 -64 25 -74 31 -14 141 -16 150 -3 10
17 -19 26 -80 26 l-60 0 3 45 c2 25 7 49 12 54 39 39 -27 69 -100 46z"/>
  <path d="M285 523 c-26 -9 -57 -13 -87 -9 -43 5 -62 -4 -39 -18 4 -3 16 -33
25 -66 l17 -61 34 7 33 6 -1 -104 -2 -103 -27 -3 c-29 -3 -34 9 -40 98 -3 28
-8 36 -27 38 -18 3 -22 0 -18 -11 3 -9 9 -43 13 -76 l7 -61 -37 0 c-40 0 -45
-6 -18 -26 22 -17 53 -17 99 0 21 8 71 24 110 36 40 12 70 26 68 30 -3 5 -20
4 -38 -1 -48 -14 -48 -13 -45 38 3 47 4 48 41 54 42 7 60 18 31 20 -66 3 -64
2 -64 44 0 20 6 27 30 32 24 4 29 10 25 24 -3 10 4 37 15 60 13 25 18 45 12
51 -16 16 -76 17 -117 1z m40 -60 c-8 -44 -18 -53 -62 -53 -27 0 -32 4 -38 31
-8 37 -1 46 45 52 19 2 41 5 49 5 10 2 12 -7 6 -35z"/>
  <path d="M558 364 c-4 -3 -2 -19 2 -35 5 -16 5 -31 2 -33 -4 -2 -42 -7 -85
-11 -91 -9 -93 -29 -2 -29 30 0 55 -2 55 -6 0 -10 -94 -95 -139 -125 -24 -16
-39 -31 -33 -33 16 -5 71 26 139 79 35 27 65 49 68 49 3 0 2 -36 -1 -80 -5
-60 -4 -84 7 -96 22 -27 39 10 39 88 0 79 1 79 74 11 45 -44 64 -49 125 -37
31 6 34 24 4 24 -26 0 -155 67 -186 95 -15 14 -25 30 -22 36 4 5 49 9 101 9
52 0 94 4 94 9 0 16 -37 22 -112 20 l-73 -2 -3 29 c-5 36 -35 58 -54 38z"/>
</g>
<g id="part-1" class="char-part">
  <path d="M295 520 c-11 -5 -49 -9 -85 -9 -39 -1 -60 -5 -52 -10 7 -4 21 -34
30 -65 9 -31 20 -57 25 -58 4 0 41 3 83 7 64 6 74 9 69 24 -3 9 4 34 16 55 11
21 18 45 15 52 -6 16 -68 18 -101 4z m35 -52 c0 -45 -9 -54 -57 -62 -47 -7
-48 -6 -57 46 -6 36 -6 37 26 41 86 10 88 10 88 -25z"/>
</g>
<g id="part-2" class="char-part">
  <path d="M325 194 c-27 -8 -92 -20 -143 -26 -92 -12 -94 -13 -72 -30 25 -20
57 -23 92 -8 13 5 62 21 111 35 48 14 87 30 87 35 0 12 -12 11 -75 -6z"/>
</g>
<g id="part-3" class="char-part">
  <path d="M485 503 c0 -30 -9 -65 -22 -92 -12 -25 -21 -46 -19 -48 2 -2 17 8
34 22 30 25 49 67 53 115 2 44 0 50 -23 50 -21 0 -23 -5 -23 -47z"/>
</g>
<g id="part-4" class="char-part">
  <path d="M573 557 c-59 -14 -54 -27 10 -24 l52 2 3 -62 c4 -79 20 -93 109 -93
49 0 63 3 63 15 0 17 -6 19 -80 19 l-55 1 2 44 c1 24 7 49 13 55 17 17 11 43
-12 50 -29 7 -53 6 -105 -7z"/>
</g>
<g id="part-5" class="char-part">
  <path d="M560 345 c0 -9 5 -13 11 -9 8 4 9 -1 4 -17 -4 -13 -14 -27 -21 -32
-7 -4 -11 -14 -8 -22 4 -8 11 -12 18 -8 6 4 5 -1 -3 -10 -7 -9 -19 -17 -27
-17 -7 0 -22 -14 -34 -30 -12 -17 -27 -27 -33 -24 -7 4 -9 4 -5 0 9 -11 -14
-36 -26 -28 -5 3 -6 0 -1 -7 7 -12 40 11 80 55 6 6 20 16 32 22 23 13 32 3 27
-33 -11 -92 -12 -121 -2 -132 16 -19 28 -6 28 32 0 28 -3 33 -17 29 -16 -5
-16 -4 1 10 14 12 17 23 13 51 -5 30 -3 35 14 35 10 0 19 -4 19 -10 0 -5 8
-10 18 -10 11 0 6 7 -16 21 -22 15 -32 28 -30 41 3 18 12 21 86 23 46 2 86 6
89 9 12 12 -52 18 -92 9 -57 -13 -87 -1 -81 32 3 14 1 25 -4 25 -5 0 -15 3
-24 6 -11 4 -16 1 -16 -11z m30 -275 c0 -5 -2 -10 -4 -10 -3 0 -8 5 -11 10 -3
6 -1 10 4 10 6 0 11 -4 11 -10z"/>
  <path d="M412 274 c10 -9 87 -13 93 -4 2 3 -19 8 -48 9 -28 1 -48 -1 -45 -5z"/>
  <path d="M687 149 c29 -29 40 -33 90 -36 43 -1 53 1 40 8 -9 6 -21 8 -26 5 -5
-4 -20 -2 -33 3 -13 6 -17 10 -8 11 15 1 -27 22 -71 35 -23 7 -22 5 8 -26z"/>
  <path d="M400 125 c-9 -10 -9 -15 -1 -15 6 0 11 5 11 11 0 5 5 7 12 3 7 -4 8
-3 4 4 -9 15 -11 15 -26 -3z"/>
</g>
</g>
</svg>