<?xml version="1.0" standalone="no"?>
<!DOCTYPE svg PUBLIC "-//W3C//DTD SVG 20010904//EN"
 "http://www.w3.org/TR/2001/REC-SVG-20010904/DTD/svg10.dtd">
<svg version="1.0" xmlns="http://www.w3.org/2000/svg"
 width="96.000000pt" height="68.000000pt" viewBox="0 0 96.000000 68.000000"
 preserveAspectRatio="xMidYMid meet">
<metadata>
Created by potrace 1.16, written by Peter Selinger 2001-2019
Combined from part_0.svg through part_5.svg with named groups
</metadata>
<g transform="translate(0.000000,68.000000) scale(0.100000,-0.100000)" fill="#000000" stroke="none">
<g id="part-0" class="char-part">
  <path d="M558 613 c-3 -36 -5 -38 -50 -48 -25 -5 -50 -13 -53 -17 -10 -10 41
-21 66 -15 20 5 20 -1 2 -50 -10 -25 16 -13 44 21 24 30 36 35 91 41 34 4 62
11 62 16 0 15 -52 31 -78 24 -20 -5 -23 -3 -17 15 8 27 -11 50 -41 50 -19 0
-23 -6 -26 -37z"/>
  <path d="M270 611 c0 -9 7 -25 15 -35 24 -32 18 -36 -45 -36 -47 0 -60 -3 -60
-15 0 -27 45 -40 91 -26 22 7 42 11 44 9 1 -2 8 -13 14 -25 6 -13 19 -23 27
-23 13 0 15 7 10 34 -6 30 -4 34 25 42 39 12 34 30 -8 26 -28 -3 -32 0 -35 25
-3 24 -9 29 -40 34 -31 5 -38 3 -38 -10z"/>
  <path d="M470 448 c-25 -3 -70 -7 -100 -9 -67 -3 -99 -12 -81 -23 11 -7 264 9
321 21 21 4 22 6 9 14 -17 9 -74 8 -149 -3z"/>
  <path d="M299 374 c-7 -9 -18 -24 -24 -34 -5 -10 -15 -26 -22 -37 -11 -18 -7
-23 33 -51 50 -36 64 -39 64 -16 0 9 -17 23 -40 32 -22 9 -40 23 -40 29 0 7
18 25 40 39 32 21 38 30 29 40 -15 18 -24 18 -40 -2z"/>
  <path d="M419 346 c-24 -49 -24 -48 35 -94 22 -17 31 -20 37 -10 10 16 -18 48
-43 48 -26 0 -22 27 9 54 15 13 23 28 19 34 -14 23 -35 11 -57 -32z"/>
  <path d="M573 384 c4 -4 -2 -19 -13 -34 -11 -16 -20 -34 -19 -42 0 -15 95 -79
103 -70 16 15 1 35 -39 52 -25 11 -45 23 -45 27 0 4 16 19 35 32 38 26 38 41
-2 41 -15 0 -23 -3 -20 -6z"/>
  <path d="M475 199 c-22 -4 -70 -8 -107 -8 -88 -1 -88 -19 0 -23 l67 -3 3 -37
3 -36 -68 -6 c-196 -18 -210 -20 -184 -35 19 -11 45 -11 135 -2 95 9 303 20
414 21 37 0 41 10 11 28 -16 11 -44 11 -140 1 -66 -6 -123 -9 -126 -6 -10 10
9 87 20 85 7 -1 37 1 67 6 39 5 50 10 40 16 -18 11 -79 11 -135 -1z"/>
</g>
<g id="part-1" class="char-part">
  <path d="M569 638 c-1 -7 -1 -16 0 -20 0 -4 -4 -19 -9 -33 -8 -22 -16 -25 -55
-25 -25 0 -45 -4 -45 -10 0 -5 20 -10 45 -10 42 0 45 -2 35 -19 -26 -50 -2
-55 31 -6 22 32 28 34 84 37 74 4 79 21 8 28 -44 4 -51 8 -43 20 14 22 13 26
-15 38 -32 15 -35 15 -36 0z"/>
  <path d="M270 616 c0 -3 9 -21 21 -40 l20 -35 -43 -5 c-24 -3 -54 -7 -68 -8
l-25 -3 27 -19 c26 -17 30 -17 70 -2 42 18 57 12 58 -21 0 -7 7 -13 15 -13 10
0 15 10 15 30 0 24 6 33 33 45 l32 15 -37 -4 c-32 -4 -38 -2 -38 14 0 26 -27
50 -56 50 -13 0 -24 -2 -24 -4z"/>
</g>
<g id="part-2" class="char-part">
  <path d="M420 444 c-63 -7 -124 -13 -135 -14 -19 -1 -19 -1 -2 -11 13 -8 60
-8 160 0 171 14 197 19 176 32 -18 11 -54 10 -199 -7z"/>
</g>
<g id="part-3" class="char-part">
  <path d="M284 358 c-9 -18 -23 -41 -32 -51 -14 -16 -13 -20 19 -47 36 -31 67
-46 76 -36 12 11 -7 34 -41 50 -32 15 -48 35 -28 36 4 1 23 14 42 31 29 24 32
31 20 39 -26 16 -39 11 -56 -22z"/>
</g>
<g id="part-4" class="char-part">
  <path d="M495 200 c-16 -4 -65 -8 -107 -9 -42 0 -80 -5 -83 -11 -4 -6 20 -10
64 -10 l71 0 0 -39 c0 -38 -1 -39 -37 -45 -21 -3 -85 -8 -142 -12 -100 -6
-103 -7 -77 -21 23 -12 46 -13 134 -4 134 13 262 20 375 21 91 0 108 8 56 27
-23 9 -61 9 -150 1 -66 -6 -122 -9 -124 -7 -2 2 2 23 8 47 11 41 12 42 52 42
56 0 91 10 73 21 -16 10 -71 10 -113 -1z"/>
</g>
</g>
</svg>