<?xml version="1.0" standalone="no"?>
<!DOCTYPE svg PUBLIC "-//W3C//DTD SVG 20010904//EN"
 "http://www.w3.org/TR/2001/REC-SVG-20010904/DTD/svg10.dtd">
<svg version="1.0" xmlns="http://www.w3.org/2000/svg"
 width="96.000000pt" height="68.000000pt" viewBox="0 0 96.000000 68.000000"
 preserveAspectRatio="xMidYMid meet">
<metadata>
Created by potrace 1.16, written by Peter Selinger 2001-2019
Combined from part_0.svg through part_5.svg with named groups
</metadata>
<g transform="translate(0.000000,68.000000) scale(0.100000,-0.100000)" fill="#000000" stroke="none">
<g id="part-0" class="char-part">
  <path d="M450 601 c-25 -15 -70 -36 -100 -46 -90 -31 -29 -30 97 1 113 28 134
42 94 64 -29 15 -41 12 -91 -19z"/>
  <path d="M590 561 c0 -5 -16 -31 -36 -56 -19 -26 -34 -49 -32 -50 8 -8 148 71
148 83 0 13 -39 32 -66 32 -8 0 -14 -4 -14 -9z"/>
  <path d="M407 534 c-12 -13 33 -84 53 -84 30 0 26 44 -6 69 -28 22 -37 25 -47
15z"/>
  <path d="M280 502 c0 -10 31 -55 44 -64 21 -15 36 -8 36 16 0 14 -10 32 -22
40 -24 17 -58 21 -58 8z"/>
  <path d="M699 456 c-2 -3 -42 -7 -89 -11 -47 -3 -132 -10 -190 -15 -135 -13
-220 -13 -220 0 0 6 -3 10 -7 10 -9 0 -53 -99 -53 -118 0 -26 35 -7 52 28 10
19 24 35 30 36 82 4 247 18 342 29 65 8 122 12 127 9 13 -8 11 -21 -7 -39 -9
-9 -15 -17 -13 -19 2 -2 32 1 67 7 77 12 84 35 19 66 -45 22 -51 24 -58 17z"/>
  <path d="M560 340 l0 -50 -54 0 c-50 0 -53 -1 -49 -23 3 -13 -2 -41 -11 -62
-9 -20 -16 -42 -16 -47 0 -6 25 -7 65 -3 l65 7 2 -63 c2 -91 2 -92 15 -96 12
-4 20 37 25 122 l3 40 75 5 c43 3 74 9 73 15 -2 6 -37 11 -79 13 -63 2 -75 5
-70 18 3 9 6 27 6 40 0 23 3 24 58 24 53 1 56 2 37 16 -14 11 -32 14 -59 9
-38 -6 -38 -5 -34 25 5 31 -3 42 -34 53 -16 6 -18 0 -18 -43z m-2 -112 c-3
-42 -4 -43 -41 -46 -37 -3 -38 -3 -31 25 11 48 24 63 50 63 23 0 25 -3 22 -42z"/>
  <path d="M276 346 c-3 -13 -27 -47 -53 -76 -37 -41 -42 -51 -25 -46 18 6 30 0
58 -26 l35 -34 -29 -25 c-15 -14 -46 -38 -67 -53 -39 -27 -39 -28 -10 -21 55
12 126 69 198 158 68 83 63 98 -25 87 -26 -4 -48 -5 -48 -3 0 2 6 12 13 23 10
17 9 22 -3 30 -24 16 -37 12 -44 -14z m94 -66 c0 -18 -45 -80 -57 -80 -7 0
-13 4 -13 9 0 5 -16 15 -36 21 -32 11 -34 14 -21 27 25 25 127 43 127 23z"/>
</g>
<g id="part-1" class="char-part">
  <path d="M480 613 c-13 -9 -58 -32 -99 -50 -86 -37 -79 -42 23 -14 39 11 90
25 114 31 48 12 53 22 17 38 -32 15 -26 15 -55 -5z"/>
  <path d="M590 550 c0 -5 -16 -28 -36 -50 -20 -22 -31 -40 -26 -40 6 0 41 16
78 37 61 33 65 37 48 50 -21 15 -64 18 -64 3z"/>
  <path d="M410 523 c0 -19 42 -74 53 -70 20 6 19 35 -2 56 -21 21 -51 28 -51
14z"/>
  <path d="M295 479 c18 -33 41 -47 56 -32 14 14 1 39 -27 52 -39 18 -46 13 -29
-20z"/>
</g>
<g id="part-2" class="char-part">
  <path d="M690 454 c-25 -6 -392 -34 -443 -34 -26 0 -47 5 -47 10 0 24 -17 6
-38 -39 -27 -60 -28 -81 -3 -81 13 0 25 13 37 40 l18 40 60 0 c34 0 140 9 236
19 105 12 179 16 184 10 6 -5 0 -19 -15 -35 l-24 -27 25 6 c14 3 46 9 73 12
55 8 64 17 40 41 -15 14 -77 46 -85 43 -2 -1 -10 -3 -18 -5z"/>
</g>
<g id="part-3" class="char-part">
  <path d="M267 335 c-9 -19 -33 -52 -53 -75 -43 -47 -34 -52 22 -11 45 33 134
53 134 29 0 -22 -91 -125 -150 -169 -70 -52 -71 -53 -35 -45 54 13 120 64 189
148 64 76 67 82 50 95 -12 9 -34 11 -69 7 -47 -5 -49 -4 -30 11 20 16 20 16 1
31 -30 21 -41 17 -59 -21z"/>
</g>
<g id="part-4" class="char-part">
  <path d="M559 382 c0 -4 -1 -25 -2 -47 l-2 -40 -51 -3 c-50 -3 -50 -3 -46 -32
2 -18 -3 -40 -12 -55 -32 -49 -23 -57 49 -50 l65 7 1 -43 c4 -148 31 -168 38
-28 l3 79 79 0 c43 0 79 4 79 9 0 16 -38 23 -98 19 l-57 -3 1 40 1 40 51 3
c29 2 52 7 52 11 0 15 -31 22 -66 15 -32 -6 -33 -5 -36 31 -2 28 -9 40 -25 46
-13 5 -23 5 -24 1z m-1 -154 c-3 -42 -4 -43 -41 -46 -34 -3 -38 -1 -33 15 3
10 8 30 12 46 5 22 12 27 36 27 28 0 29 -1 26 -42z"/>
</g>
</g>
</svg>