<?xml version="1.0" standalone="no"?>
<!DOCTYPE svg PUBLIC "-//W3C//DTD SVG 20010904//EN"
 "http://www.w3.org/TR/2001/REC-SVG-20010904/DTD/svg10.dtd">
<svg version="1.0" xmlns="http://www.w3.org/2000/svg"
 width="96.000000pt" height="68.000000pt" viewBox="0 0 96.000000 68.000000"
 preserveAspectRatio="xMidYMid meet">
<metadata>
Created by potrace 1.16, written by Peter Selinger 2001-2019
Combined from part_0.svg through part_5.svg with named groups
</metadata>
<g transform="translate(0.000000,68.000000) scale(0.100000,-0.100000)" fill="#000000" stroke="none">
<g id="part-0" class="char-part">
  <path d="M515 619 c-16 -6 -67 -11 -112 -12 -80 -2 -97 -9 -73 -33 8 -8 40
-155 40 -183 0 -2 -6 -1 -14 2 -9 4 -20 -9 -32 -35 -10 -22 -38 -57 -63 -79
-56 -48 -43 -50 27 -6 40 25 61 32 87 29 19 -2 35 -8 35 -12 0 -9 -71 -75
-115 -107 -24 -18 -26 -22 -11 -23 38 0 176 106 176 137 0 8 12 13 30 13 25 0
30 -4 30 -23 0 -47 -99 -147 -202 -204 -53 -29 -58 -34 -30 -29 62 11 179 80
222 133 53 64 72 96 67 114 -4 16 0 19 26 19 56 0 61 -10 48 -81 -6 -34 -21
-83 -33 -108 -24 -48 -39 -54 -86 -39 -25 8 -23 2 7 -35 31 -36 49 -40 82 -16
34 24 41 39 74 159 12 47 26 94 29 105 6 16 1 24 -18 35 -22 11 -48 11 -176
-4 -83 -10 -154 -15 -157 -12 -4 3 1 14 11 25 9 10 16 25 14 32 -5 21 115 36
147 19 14 -7 27 -11 30 -8 3 2 18 51 34 107 l28 102 -21 14 c-23 17 -57 18
-101 4z m43 -60 c3 -25 0 -26 -58 -32 -33 -4 -72 -10 -85 -13 -23 -6 -25 -3
-25 29 l0 36 68 4 c96 5 97 5 100 -24z m-8 -76 c0 -33 -15 -41 -82 -48 l-68
-7 0 25 c0 27 -1 26 90 40 52 8 60 7 60 -10z"/>
</g>
<g id="part-1" class="char-part">
  <path d="M515 614 c-33 -7 -91 -13 -129 -14 -58 0 -67 -2 -57 -14 7 -8 20 -54
30 -103 15 -77 20 -88 37 -84 63 12 147 12 155 -1 5 -8 11 -9 18 -3 8 9 61
187 61 207 0 18 -59 24 -115 12z m45 -60 c0 -31 -3 -35 -22 -33 -13 2 -49 -1
-82 -5 -63 -8 -76 -2 -76 41 0 24 17 28 128 31 l52 2 0 -36z m-9 -86 l-7 -33
-72 -3 c-58 -2 -72 0 -72 12 0 8 -3 21 -6 30 -6 15 12 18 127 24 36 2 36 2 30
-30z"/>
</g>
<g id="part-2" class="char-part">
  <path d="M330 370 c-7 -16 -36 -52 -65 -80 -60 -55 -53 -65 16 -22 40 26 57
29 203 40 108 9 162 10 169 3 14 -14 -5 -114 -32 -177 l-21 -47 -49 6 -48 6
35 -40 c19 -21 41 -39 48 -39 8 0 28 13 45 28 26 23 37 47 59 133 16 57 31
113 35 125 5 17 1 23 -23 33 -24 10 -56 9 -165 -3 -75 -9 -146 -16 -159 -16
l-23 1 23 18 c29 25 28 35 -3 49 -33 15 -31 17 -45 -18z"/>
</g>
<g id="part-3" class="char-part">
  <path d="M397 276 c-9 -13 -43 -45 -77 -72 -33 -26 -58 -49 -56 -51 17 -18
196 109 196 138 0 20 -48 8 -63 -15z"/>
</g>
<g id="part-4" class="char-part">
  <path d="M520 288 c0 -53 -115 -162 -225 -214 -62 -30 -29 -33 46 -5 66 26
152 93 202 158 42 57 43 83 2 83 -19 0 -25 -5 -25 -22z"/>
</g>
</g>
</svg>