<?xml version="1.0" standalone="no"?>
<!DOCTYPE svg PUBLIC "-//W3C//DTD SVG 20010904//EN"
 "http://www.w3.org/TR/2001/REC-SVG-20010904/DTD/svg10.dtd">
<svg version="1.0" xmlns="http://www.w3.org/2000/svg"
 width="96.000000pt" height="68.000000pt" viewBox="0 0 96.000000 68.000000"
 preserveAspectRatio="xMidYMid meet">
<metadata>
Created by potrace 1.16, written by Peter Selinger 2001-2019
Combined from part_0.svg through part_5.svg with named groups
</metadata>
<g transform="translate(0.000000,68.000000) scale(0.100000,-0.100000)" fill="#000000" stroke="none">
<g id="part-0" class="char-part">
  <path d="M610 530 c-25 -4 -71 -11 -102 -14 -66 -8 -77 -23 -20 -28 l37 -3 3
-56 3 -56 -36 -6 c-19 -3 -51 -3 -70 0 -38 6 -41 3 -23 -30 6 -12 17 -64 24
-116 7 -51 16 -97 21 -101 4 -4 66 -1 138 7 l129 13 21 -27 c37 -45 67 -2 84
118 6 42 15 88 20 102 21 55 -15 74 -120 62 l-59 -7 2 61 c3 53 5 61 23 61 11
0 31 3 43 7 18 4 20 8 10 14 -15 10 -65 10 -128 -1z m8 -93 c3 -55 2 -57 -23
-57 -24 0 -25 3 -25 53 0 58 5 69 30 65 11 -2 16 -18 18 -61z m149 -154 c-8
-119 -8 -120 -65 -119 -26 1 -88 -3 -138 -7 l-91 -9 -12 91 c-7 49 -10 94 -8
99 3 4 22 9 42 10 37 3 37 3 30 -30 -4 -18 -14 -45 -21 -60 -8 -16 -10 -28 -5
-28 14 0 61 64 61 83 0 31 13 47 37 47 22 0 24 -3 19 -25 -4 -16 0 -40 10 -60
15 -33 19 -35 65 -35 27 0 49 4 49 9 0 10 -34 21 -67 21 -20 0 -23 5 -23 44 0
50 5 54 74 55 l49 1 -6 -87z"/>
  <path d="M230 474 c-41 -7 -76 -13 -77 -13 -2 -1 -3 -5 -3 -11 0 -5 18 -10 41
-10 40 0 41 -1 34 -27 -9 -40 -49 -105 -96 -160 -48 -55 -36 -70 19 -26 56 44
59 45 54 15 -6 -41 14 -86 36 -77 9 3 37 9 62 12 46 5 46 5 67 66 12 34 20 64
17 66 -7 7 -74 6 -116 -2 -21 -4 -38 -5 -38 -2 0 2 13 24 30 47 16 24 31 54
33 68 3 20 12 27 45 34 24 5 42 15 42 22 0 17 -46 17 -150 -2z m93 -231 c-5
-38 -8 -42 -41 -48 -36 -7 -51 3 -53 35 0 8 -2 23 -4 33 -2 9 2 17 8 18 27 2
72 11 76 15 12 12 19 -15 14 -53z"/>
</g>
<g id="part-1" class="char-part">
  <path d="M319 485 c-3 -2 -40 -10 -82 -16 -79 -12 -104 -29 -42 -29 30 0 35
-3 35 -22 0 -30 -48 -112 -100 -170 -52 -60 -39 -61 32 -4 60 50 131 160 122
188 -3 11 0 18 8 18 30 0 88 22 83 31 -6 9 -48 13 -56 4z"/>
</g>
<g id="part-2" class="char-part">
  <path d="M269 306 c-69 -17 -78 -27 -68 -83 5 -26 13 -50 17 -54 4 -4 36 -1
72 5 58 10 65 14 68 36 2 14 11 40 19 58 14 29 14 35 2 43 -18 11 -52 10 -110
-5z m55 -53 c-8 -47 -12 -51 -51 -59 -33 -6 -33 -6 -47 58 -7 29 3 34 72 37
33 1 33 1 26 -36z"/>
</g>
<g id="part-3" class="char-part">
  <path d="M610 530 c-25 -4 -71 -11 -102 -14 -32 -4 -58 -12 -58 -17 0 -12 94
-11 190 1 90 12 112 18 105 31 -7 10 -69 10 -135 -1z"/>
</g>
<g id="part-4" class="char-part">
  <path d="M618 405 c-3 -102 3 -143 24 -156 17 -12 98 -11 98 0 0 10 -35 21
-69 21 -24 0 -24 0 -16 88 12 143 12 137 -12 140 -21 3 -22 -1 -25 -93z"/>
  <path d="M530 403 c0 -65 -5 -99 -20 -131 -20 -45 -14 -54 14 -23 29 32 45 92
46 169 0 65 -2 72 -20 72 -18 0 -20 -7 -20 -87z"/>
</g>
<g id="part-5" class="char-part">
  <path d="M750 391 l-25 -8 25 -4 c22 -4 26 -10 30 -56 3 -29 2 -54 -2 -55 -4
-2 -8 -23 -9 -48 -2 -25 -8 -49 -13 -55 -6 -5 -42 -10 -81 -11 -38 0 -100 -3
-136 -7 -64 -6 -67 -5 -72 16 -8 34 -22 160 -19 179 1 13 -5 17 -22 16 -19 -2
-22 -6 -16 -23 13 -34 28 -118 29 -158 1 -44 7 -58 24 -52 23 8 153 18 207 17
43 -1 58 -6 71 -23 17 -23 44 -18 35 7 -3 8 1 14 11 14 13 0 13 3 3 16 -11 12
-11 15 0 12 7 -2 15 3 18 11 3 8 0 11 -6 7 -7 -4 -5 8 3 28 8 20 15 48 15 63
0 15 6 40 14 54 15 30 6 55 -18 46 -9 -4 -15 -1 -13 5 3 15 -21 18 -53 9z"/>
  <path d="M590 372 c0 -4 9 -8 20 -9 11 -1 20 2 20 8 0 5 -9 9 -20 9 -11 0 -20
-4 -20 -8z"/>
  <path d="M668 373 c7 -3 16 -2 19 1 4 3 -2 6 -13 5 -11 0 -14 -3 -6 -6z"/>
  <path d="M525 360 c-3 -5 -2 -10 4 -10 5 0 13 5 16 10 3 6 2 10 -4 10 -5 0
-13 -4 -16 -10z"/>
</g>
</g>
</svg>