<?xml version="1.0" standalone="no"?>
<!DOCTYPE svg PUBLIC "-//W3C//DTD SVG 20010904//EN"
 "http://www.w3.org/TR/2001/REC-SVG-20010904/DTD/svg10.dtd">
<svg version="1.0" xmlns="http://www.w3.org/2000/svg"
 width="96.000000pt" height="68.000000pt" viewBox="0 0 96.000000 68.000000"
 preserveAspectRatio="xMidYMid meet">
<metadata>
Created by potrace 1.16, written by Peter Selinger 2001-2019
Combined from part_0.svg through part_5.svg with named groups
</metadata>
<g transform="translate(0.000000,68.000000) scale(0.100000,-0.100000)" fill="#000000" stroke="none">
<g id="part-0" class="char-part">
  <path d="M310 558 c-74 -11 -137 -22 -139 -24 -2 -2 5 -11 14 -21 15 -15 17
-29 12 -103 -8 -110 -29 -189 -72 -274 -19 -38 -32 -72 -29 -75 3 -3 23 12 43
35 46 48 75 123 98 247 l17 92 37 1 c28 1 39 -4 47 -20 10 -20 11 -20 11 6 1
15 9 32 19 37 16 10 16 10 0 11 -10 0 -18 7 -18 15 0 9 -9 15 -25 15 -27 0
-32 -9 -13 -28 9 -9 4 -12 -26 -12 -37 0 -38 1 -31 27 4 16 8 29 10 31 1 2 61
8 131 14 130 11 162 20 134 38 -21 13 -64 11 -220 -12z"/>
  <path d="M669 473 c-2 -95 -8 -108 -57 -111 -50 -4 -46 -22 4 -22 35 0 35 -1
29 -32 -8 -38 -64 -179 -76 -192 -13 -14 -11 61 1 84 8 16 6 22 -14 35 -20 13
-32 14 -63 6 -62 -17 -93 -14 -93 9 0 19 21 25 71 21 15 -2 84 118 73 128 -8
9 -92 6 -149 -3 -61 -11 -82 -13 -119 -15 -22 -1 -26 -4 -18 -14 6 -7 16 -34
23 -60 11 -46 12 -47 48 -45 32 3 36 1 36 -22 0 -21 -5 -25 -42 -28 -34 -3
-43 0 -43 12 0 9 -8 16 -19 16 -14 0 -18 -5 -14 -20 4 -15 0 -20 -16 -20 -11
0 -21 -5 -21 -11 0 -7 9 -9 21 -6 20 5 21 3 14 -57 -5 -52 -4 -64 9 -69 16 -6
23 18 28 98 3 39 4 40 46 43 41 3 42 2 42 -27 0 -29 -3 -31 -35 -31 -19 0 -35
-4 -35 -10 0 -20 47 -20 100 0 66 24 70 24 70 5 0 -19 16 -20 23 -1 3 8 -5 23
-17 35 -26 24 -36 26 -36 7 0 -7 -9 -16 -20 -19 -16 -4 -20 0 -20 23 0 23 5
29 31 34 17 3 44 6 60 6 29 0 29 -1 29 -59 0 -68 -18 -96 -54 -85 -20 6 -20 5
3 -20 14 -14 29 -26 35 -26 6 0 35 25 63 56 55 59 89 120 119 217 18 57 18 57
57 57 l39 0 -7 -77 c-4 -43 -14 -100 -23 -128 -16 -47 -19 -50 -54 -53 l-38
-3 22 -30 c57 -77 115 3 144 201 3 25 10 53 15 62 21 39 -24 71 -80 56 -18 -5
-37 -6 -41 -1 -4 4 -2 32 6 62 16 61 8 81 -32 81 -22 0 -24 -4 -25 -57z m-184
-103 c0 -10 -12 -16 -37 -18 -28 -2 -38 1 -38 12 0 18 17 25 50 23 15 -1 25
-8 25 -17z m-115 -14 c0 -15 -21 -26 -51 -26 -12 0 -19 7 -19 20 0 16 7 20 35
20 23 0 35 -5 35 -14z m105 -45 c-9 -29 -65 -30 -65 -2 0 15 8 21 33 23 40 4
40 4 32 -21z m-107 -8 c-2 -12 -12 -18 -28 -18 -16 0 -26 6 -28 18 -3 13 3 17
28 17 25 0 31 -4 28 -17z"/>
  <path d="M440 502 c0 -10 -3 -22 -7 -25 -8 -9 -13 -57 -6 -57 3 0 11 7 17 16
7 9 36 19 66 23 55 8 52 17 -5 23 -22 2 -29 8 -27 21 2 11 -4 17 -18 17 -13 0
-20 -7 -20 -18z"/>
</g>
<g id="part-1" class="char-part">
  <path d="M330 557 c-80 -11 -147 -22 -149 -24 -3 -2 1 -9 7 -15 19 -19 14
-155 -8 -244 -11 -43 -35 -109 -53 -146 -33 -68 -26 -72 25 -13 39 45 82 193
94 326 8 86 8 85 171 99 64 5 118 11 121 14 5 6 -44 27 -56 25 -4 -1 -72 -11
-152 -22z"/>
</g>
<g id="part-2" class="char-part">
  <path d="M485 240 c-16 -5 -66 -14 -109 -20 -70 -11 -81 -10 -92 4 -17 24 -47
21 -39 -4 5 -16 2 -20 -14 -20 -12 0 -21 -4 -21 -10 0 -5 9 -10 21 -10 20 0
21 -4 14 -59 -5 -41 -3 -61 5 -66 19 -12 30 15 30 77 0 45 3 58 18 62 37 11
202 27 212 21 5 -3 10 -29 10 -57 0 -64 -20 -91 -56 -77 -25 9 -25 9 -7 -16
28 -38 53 -42 80 -11 18 21 23 39 23 80 0 28 6 58 13 65 10 10 7 16 -12 32
-25 21 -30 21 -76 9z"/>
</g>
<g id="part-3" class="char-part">
  <path d="M668 454 c-6 -83 -13 -94 -66 -94 -20 0 -31 -4 -27 -10 3 -5 22 -10
41 -10 29 0 34 -3 30 -17 -3 -10 -10 -38 -16 -62 -6 -24 -25 -71 -41 -104 -16
-33 -28 -61 -26 -63 5 -5 44 32 61 58 10 15 33 67 50 115 29 78 36 88 59 91
15 2 27 9 27 16 0 9 -9 12 -26 8 -22 -4 -25 -2 -21 14 32 110 29 134 -18 134
-21 0 -23 -5 -27 -76z"/>
</g>
<g id="part-4" class="char-part">
  <path d="M695 374 c-33 -7 -75 -13 -93 -14 -22 0 -31 -4 -26 -11 4 -7 24 -9
58 -5 28 4 73 9 100 13 l49 6 -6 -74 c-8 -91 -32 -175 -54 -187 -9 -6 -29 -6
-46 -1 l-30 9 29 -33 c16 -17 30 -34 31 -36 1 -2 14 0 28 3 34 9 58 63 79 176
9 47 21 98 28 114 10 25 9 31 -7 42 -23 17 -60 16 -140 -2z"/>
</g>
</g>
</svg>