<?xml version="1.0" standalone="no"?>
<!DOCTYPE svg PUBLIC "-//W3C//DTD SVG 20010904//EN"
 "http://www.w3.org/TR/2001/REC-SVG-20010904/DTD/svg10.dtd">
<svg version="1.0" xmlns="http://www.w3.org/2000/svg"
 width="96.000000pt" height="68.000000pt" viewBox="0 0 96.000000 68.000000"
 preserveAspectRatio="xMidYMid meet">
<metadata>
Created by potrace 1.16, written by Peter Selinger 2001-2019
Combined from part_0.svg through part_5.svg with named groups
</metadata>
<g transform="translate(0.000000,68.000000) scale(0.100000,-0.100000)" fill="#000000" stroke="none">
<g id="part-0" class="char-part">
  <path d="M440 582 c0 -22 -69 -132 -105 -168 -35 -35 -31 -39 13 -14 l39 22
41 -21 c23 -12 42 -25 42 -30 0 -14 -58 -60 -111 -86 -48 -25 -76 -50 -42 -39
45 15 92 39 136 70 26 19 49 34 52 34 3 0 36 -20 73 -45 64 -43 69 -45 142
-45 41 0 81 4 89 9 16 10 17 10 -99 37 -41 9 -99 28 -129 41 l-54 23 19 23
c10 12 36 40 56 61 21 22 38 45 38 52 0 20 -46 25 -109 10 -33 -8 -62 -12 -65
-9 -3 3 3 18 13 32 16 22 17 29 6 44 -16 23 -45 22 -45 -1z m130 -95 c0 -17
-50 -84 -68 -91 -13 -6 -102 33 -102 44 0 20 50 49 90 53 25 2 53 4 63 5 9 1
17 -4 17 -11z"/>
  <path d="M196 553 c-11 -12 57 -73 81 -73 32 0 33 47 1 59 -41 15 -75 21 -82
14z"/>
  <path d="M113 417 c-9 -14 62 -77 87 -77 24 0 28 41 5 60 -22 18 -84 30 -92
17z"/>
  <path d="M210 250 c-23 -27 -55 -58 -71 -67 -18 -11 -29 -26 -29 -39 0 -29 35
-72 48 -59 11 11 112 200 112 210 0 16 -23 -1 -60 -45z"/>
  <path d="M505 240 c-27 -5 -79 -9 -114 -9 -60 -1 -63 -2 -48 -18 8 -10 21 -43
29 -73 12 -52 15 -55 43 -53 193 13 203 14 198 33 -3 10 6 38 20 63 l25 45
-24 11 c-27 12 -54 12 -129 1z m71 -37 c-2 -10 -7 -33 -11 -50 -5 -25 -12 -33
-28 -33 -12 0 -45 -3 -73 -6 l-51 -6 -12 45 c-6 25 -11 48 -11 51 0 5 60 11
143 14 42 2 48 0 43 -15z"/>
</g>
<g id="part-1" class="char-part">
  <path d="M205 539 c8 -21 72 -62 84 -54 15 8 14 30 -1 43 -7 6 -30 13 -51 17
-29 6 -36 4 -32 -6z"/>
  <path d="M140 385 c33 -34 80 -48 80 -22 -1 30 -41 57 -86 57 l-28 0 34 -35z"/>
  <path d="M251 295 c-2 -13 -90 -105 -119 -125 -21 -14 -22 -18 -11 -47 6 -18
17 -33 24 -33 16 0 118 186 111 203 -2 7 -5 8 -5 2z"/>
</g>
<g id="part-2" class="char-part">
  <path d="M435 573 c-8 -34 -44 -91 -99 -157 l-40 -49 32 17 c36 19 109 92 149
150 26 37 27 39 8 52 -28 21 -42 17 -50 -13z"/>
</g>
<g id="part-3" class="char-part">
  <path d="M545 520 c-11 -5 -34 -9 -52 -9 -17 -1 -35 -6 -39 -13 -5 -8 9 -10
54 -5 75 6 78 -3 25 -62 l-38 -41 -43 21 c-58 27 -77 19 -24 -11 23 -13 42
-27 42 -30 0 -12 -33 -37 -110 -85 -51 -32 -66 -44 -45 -39 42 10 116 48 153
79 35 29 40 28 132 -34 40 -27 53 -31 115 -30 117 1 122 13 15 39 -52 13 -119
34 -149 47 l-54 24 24 27 c13 15 41 46 63 69 l39 42 -27 11 c-32 12 -53 12
-81 0z"/>
</g>
<g id="part-4" class="char-part">
  <path d="M500 239 c-25 -4 -74 -8 -109 -8 -60 -1 -63 -2 -48 -18 8 -10 22 -43
30 -73 11 -44 18 -55 33 -53 10 0 63 4 116 8 79 6 96 9 91 21 -6 17 25 94 39
94 17 0 7 17 -17 28 -29 13 -67 14 -135 1z m80 -25 c0 -3 -5 -25 -11 -48 -10
-42 -12 -44 -56 -50 -91 -12 -99 -10 -111 33 -17 56 -16 59 31 64 73 6 147 7
147 1z"/>
</g>
</g>
</svg>