<?xml version="1.0" standalone="no"?>
<!DOCTYPE svg PUBLIC "-//W3C//DTD SVG 20010904//EN"
 "http://www.w3.org/TR/2001/REC-SVG-20010904/DTD/svg10.dtd">
<svg version="1.0" xmlns="http://www.w3.org/2000/svg"
 width="96.000000pt" height="68.000000pt" viewBox="0 0 96.000000 68.000000"
 preserveAspectRatio="xMidYMid meet">
<metadata>
Created by potrace 1.16, written by Peter Selinger 2001-2019
Combined from part_0.svg through part_5.svg with named groups
</metadata>
<g transform="translate(0.000000,68.000000) scale(0.100000,-0.100000)" fill="#000000" stroke="none">
<g id="part-0" class="char-part">
  <path d="M518 500 l4 -69 -41 -7 c-47 -7 -46 -25 2 -21 26 2 32 -2 37 -23 11
-42 2 -50 -59 -50 -31 0 -63 -4 -71 -10 -27 -17 15 -22 89 -11 38 6 76 11 83
11 19 0 -103 -111 -161 -145 -48 -28 -63 -45 -41 -45 10 0 63 28 107 57 l26
17 -6 -76 c-4 -58 -2 -80 8 -88 10 -8 15 -8 22 3 5 9 34 17 74 21 61 6 67 5
72 -14 6 -24 29 -26 47 -5 13 16 21 187 9 207 -9 13 -55 15 -119 4 l-45 -8 43
43 42 44 93 3 c50 2 96 7 100 12 15 13 -51 23 -109 15 -30 -3 -54 -3 -54 2 0
4 16 25 35 45 40 42 43 58 16 75 -21 13 -32 6 -44 -29 -5 -14 -18 -18 -57 -18
l-50 0 0 59 c0 52 -2 59 -22 65 -13 3 -25 6 -28 6 -3 0 -4 -31 -2 -70z m132
-90 c0 -5 -4 -10 -10 -10 -5 0 -10 -5 -10 -11 0 -16 -42 -48 -56 -42 -7 2 -11
12 -9 21 2 9 4 22 4 29 1 10 17 15 69 22 6 0 12 -3 12 -9z m14 -176 c9 -3 16
-16 16 -29 0 -25 -11 -29 -97 -41 -52 -6 -53 -6 -53 20 0 14 -1 29 -2 33 -2 5
20 9 47 11 42 2 58 5 72 11 1 1 8 -2 17 -5z m16 -113 c0 -28 -1 -29 -71 -35
-77 -8 -95 -1 -85 32 7 21 27 26 119 30 35 2 37 0 37 -27z"/>
  <path d="M235 491 c-16 -35 -46 -77 -71 -101 -38 -36 -43 -44 -33 -62 8 -14
17 -18 32 -14 12 4 36 9 52 13 30 6 30 5 -17 -44 -27 -27 -48 -52 -48 -56 0
-13 39 -7 101 13 48 17 64 18 75 9 10 -8 18 -9 25 -2 14 14 0 43 -28 54 -37
14 -46 11 -27 -8 16 -17 15 -18 -30 -31 -26 -8 -50 -11 -53 -8 -4 3 28 40 70
82 73 73 84 95 51 108 -9 3 -19 -6 -28 -29 -8 -18 -23 -38 -34 -44 -26 -14
-75 -14 -67 -1 4 6 11 7 17 4 7 -4 8 -2 4 5 -4 6 15 36 45 72 43 49 51 63 43
77 -6 9 -20 18 -32 20 -16 3 -26 -8 -47 -57z"/>
  <path d="M300 214 c0 -9 41 -44 52 -44 16 0 8 29 -11 40 -22 11 -41 13 -41 4z"/>
  <path d="M210 183 c1 -13 38 -53 49 -53 19 0 12 39 -8 50 -23 12 -41 13 -41 3z"/>
  <path d="M110 155 c0 -12 51 -85 60 -85 15 0 22 19 15 40 -7 23 -75 64 -75 45z"/>
</g>
<g id="part-1" class="char-part">
  <path d="M231 475 c-18 -35 -48 -78 -68 -94 -47 -39 -40 -67 13 -56 20 3 48
11 63 18 26 11 26 11 -12 15 l-37 3 65 76 c50 59 62 79 54 90 -24 28 -46 14
-78 -52z"/>
</g>
<g id="part-2" class="char-part">
  <path d="M300 212 c0 -12 34 -42 48 -42 16 0 15 23 0 38 -14 14 -48 16 -48 4z"/>
  <path d="M210 183 c1 -21 39 -56 54 -50 17 7 12 36 -8 49 -14 10 -46 10 -46 1z"/>
  <path d="M110 155 c0 -16 52 -85 65 -85 21 0 19 43 -2 62 -19 17 -63 33 -63
23z"/>
</g>
<g id="part-3" class="char-part">
  <path d="M510 544 c6 -14 10 -45 10 -70 0 -43 0 -44 -40 -50 -22 -4 -40 -10
-40 -15 0 -5 18 -9 40 -9 38 0 40 -2 40 -31 0 -26 3 -30 23 -27 17 2 23 11 25
35 3 29 7 32 48 39 57 8 57 24 -1 24 l-45 0 0 59 c0 61 -7 71 -51 71 -16 0
-17 -4 -9 -26z"/>
</g>
<g id="part-4" class="char-part">
  <path d="M681 469 c-10 -29 -65 -106 -85 -121 -5 -3 -48 -10 -95 -14 -46 -3
-96 -10 -110 -14 l-26 -7 25 -7 c14 -4 60 -1 103 7 42 7 77 10 77 7 0 -14 -98
-99 -168 -145 -40 -26 -72 -49 -72 -51 0 -2 15 2 32 8 61 21 153 83 218 145
l65 63 92 0 c91 0 127 12 76 25 -14 3 -56 3 -92 -1 l-66 -6 30 33 c17 19 36
37 43 42 17 11 15 31 -6 50 -25 23 -28 22 -41 -14z"/>
</g>
<g id="part-5" class="char-part">
  <path d="M647 263 c-20 -5 -13 -23 9 -23 8 0 12 5 9 10 -3 6 -1 10 4 10 6 0
11 -10 12 -22 1 -13 2 -41 3 -63 5 -75 -3 -95 -38 -96 -29 -2 -30 -2 -4 -6 16
-3 30 -12 34 -25 6 -19 7 -19 22 -4 11 11 17 38 19 87 1 40 4 78 7 85 5 12
-39 56 -53 53 -3 -1 -14 -3 -24 -6z"/>
  <path d="M505 202 c-13 -9 -15 -42 -3 -42 5 0 6 -5 2 -12 -11 -17 -16 -78 -9
-97 6 -14 7 -14 16 1 6 10 16 14 31 10 14 -3 19 -2 14 6 -4 7 -14 12 -23 12
-12 0 -15 8 -10 39 2 21 1 45 -4 52 -4 8 -4 16 3 20 6 4 6 9 1 12 -5 3 -13 3
-18 -1z"/>
  <path d="M605 160 c-16 -7 -14 -8 12 -7 17 1 29 5 26 10 -5 9 -12 8 -38 -3z"/>
</g>
</g>
</svg>