<?xml version="1.0" standalone="no"?>
<!DOCTYPE svg PUBLIC "-//W3C//DTD SVG 20010904//EN"
 "http://www.w3.org/TR/2001/REC-SVG-20010904/DTD/svg10.dtd">
<svg version="1.0" xmlns="http://www.w3.org/2000/svg"
 width="96.000000pt" height="68.000000pt" viewBox="0 0 96.000000 68.000000"
 preserveAspectRatio="xMidYMid meet">
<metadata>
Created by potrace 1.16, written by Peter Selinger 2001-2019
Combined from part_0.svg through part_5.svg with named groups
</metadata>
<g transform="translate(0.000000,68.000000) scale(0.100000,-0.100000)" fill="#000000" stroke="none">
<g id="part-0" class="char-part">
  <path d="M520 603 c0 -15 45 -53 63 -53 23 0 32 20 16 35 -17 16 -79 30 -79
18z"/>
  <path d="M195 560 c-3 -5 -1 -18 5 -29 5 -11 10 -49 10 -85 0 -71 1 -70 -69
-78 -14 -2 -26 -9 -29 -15 -2 -9 11 -13 47 -13 l51 0 0 -55 0 -54 -52 -16
c-28 -8 -57 -15 -65 -15 -20 0 -4 -26 23 -39 23 -10 36 -6 110 31 46 24 94 51
106 61 l23 19 -30 -5 c-16 -3 -38 -9 -47 -12 -15 -6 -18 -1 -18 33 0 46 20 72
55 72 13 0 27 5 31 11 10 17 -17 30 -50 24 l-28 -5 4 58 c3 31 9 65 13 75 6
13 0 20 -29 32 -42 18 -53 19 -61 5z"/>
  <path d="M565 535 c-211 -27 -208 -26 -187 -47 14 -14 15 -83 2 -158 -18 -109
-31 -148 -74 -226 -20 -35 -32 -64 -28 -64 15 0 78 85 96 130 33 81 35 89 42
138 l6 49 52 7 c84 10 96 8 96 -14 0 -17 -7 -20 -44 -20 -25 0 -48 -4 -51 -10
-4 -6 13 -10 45 -10 48 0 51 -2 48 -22 -3 -21 -9 -23 -65 -26 l-63 -3 0 -48
c0 -27 -7 -68 -15 -91 -8 -24 -13 -52 -9 -62 9 -30 33 -20 43 20 10 36 11 37
58 37 l48 0 5 -43 c7 -57 24 -58 30 -2 l5 45 58 3 c55 3 57 2 57 -23 0 -25 -7
-29 -42 -26 -24 3 -23 -5 7 -34 54 -55 82 -14 86 126 2 52 -1 101 -6 108 -6
11 -25 12 -81 7 -68 -5 -74 -4 -74 13 0 16 10 21 55 26 33 5 54 12 53 19 -1 6
3 21 10 34 11 19 21 22 67 22 30 0 55 4 55 9 0 13 -48 23 -72 15 -16 -5 -20
-3 -15 9 10 25 -15 37 -80 37 -47 0 -63 3 -63 14 0 14 -21 26 -44 26 -9 0 -12
-9 -9 -25 5 -25 1 -28 -67 -38 -14 -3 -4 -5 23 -6 39 -1 47 -4 47 -20 0 -15
-10 -19 -67 -24 -38 -3 -70 -3 -72 -1 -2 2 0 27 5 56 l9 53 45 6 c25 4 95 10
155 14 110 7 123 10 112 21 -12 12 -87 12 -192 -1z m135 -109 c0 -17 -22 -26
-61 -26 -27 0 -39 17 -22 33 13 14 83 8 83 -7z m-10 -50 c0 -23 -17 -36 -46
-36 -32 0 -45 16 -27 33 7 8 73 10 73 3z m28 -143 c3 -20 -1 -23 -30 -23 -18
0 -43 -3 -55 -6 -20 -5 -23 -2 -23 19 0 21 5 26 33 30 57 7 72 3 75 -20z
m-151 -30 c-3 -2 -24 -7 -46 -10 -39 -5 -41 -4 -41 20 0 23 4 26 43 29 34 2
43 0 45 -15 2 -10 1 -21 -1 -24z m153 -38 c0 -24 -3 -25 -55 -25 -48 0 -55 3
-55 19 0 15 8 21 33 24 74 9 77 8 77 -18z m-150 -15 c0 -17 -7 -20 -50 -20
-43 0 -50 3 -50 20 0 17 7 20 50 20 43 0 50 -3 50 -20z"/>
</g>
<g id="part-1" class="char-part">
  <path d="M200 539 c7 -11 14 -54 17 -94 l6 -72 -59 -9 -59 -8 55 -6 55 -5 3
-56 3 -57 -47 -16 c-26 -9 -56 -16 -66 -16 -27 0 -22 -19 8 -32 23 -11 35 -7
108 30 45 23 90 48 101 56 18 14 17 15 -15 6 -51 -15 -51 -14 -48 42 3 51 4
52 41 61 49 12 47 27 -3 27 -46 0 -47 3 -30 91 9 47 8 56 -7 66 -9 7 -30 13
-45 13 -26 0 -28 -2 -18 -21z"/>
</g>
<g id="part-2" class="char-part">
  <path d="M534 581 c30 -32 59 -40 72 -20 10 17 -19 39 -62 46 l-39 6 29 -32z"/>
  <path d="M565 534 c-55 -7 -124 -16 -153 -19 -51 -6 -52 -7 -37 -28 40 -57 -6
-281 -85 -409 -22 -35 -27 -48 -14 -38 83 64 117 139 148 325 l22 130 44 7
c25 3 98 9 163 13 113 8 142 16 95 29 -30 8 -63 6 -183 -10z"/>
</g>
<g id="part-3" class="char-part">
  <path d="M567 476 c5 -24 -12 -34 -67 -37 -14 -1 -5 -5 19 -8 43 -6 66 -27 39
-35 -7 -3 -39 -7 -71 -11 -34 -4 -55 -11 -51 -16 4 -7 31 -8 70 -4 61 7 64 6
64 -14 0 -16 -6 -21 -27 -21 -16 0 -39 -4 -53 -8 -21 -6 -16 -8 25 -12 l50 -5
2 -120 c3 -137 9 -173 25 -157 6 6 13 70 16 145 l5 135 30 6 c16 3 41 6 55 6
14 0 23 3 19 6 -3 4 0 19 9 35 13 27 19 29 69 29 30 0 55 4 55 9 0 10 -34 21
-66 21 -13 0 -24 8 -27 20 -4 17 -14 20 -70 20 -56 0 -65 3 -70 20 -3 13 -14
20 -30 20 -20 0 -23 -4 -20 -24z m133 -50 c0 -14 -29 -26 -67 -26 -22 0 -31
19 -16 33 13 14 83 8 83 -7z m-10 -50 c0 -23 -17 -36 -46 -36 -32 0 -45 16
-27 33 7 8 73 10 73 3z"/>
</g>
<g id="part-4" class="char-part">
  <path d="M690 279 c-19 -4 -83 -11 -142 -15 l-108 -7 0 -56 c-1 -31 -7 -74
-15 -95 -10 -29 -11 -45 -3 -60 10 -19 11 -19 24 -1 8 10 14 29 14 42 0 21 5
23 48 23 26 0 84 3 130 7 l84 6 -4 -29 c-3 -26 -6 -29 -38 -26 l-34 3 34 -31
c36 -32 39 -34 56 -22 23 15 32 50 33 130 1 45 4 88 7 96 10 27 -36 46 -86 35z
m28 -45 c3 -20 -4 -22 -98 -33 -145 -16 -148 -16 -143 13 5 23 11 25 82 31 42
4 81 8 86 10 6 2 24 3 40 2 22 -1 31 -8 33 -23z m2 -69 c0 -23 -3 -25 -48 -25
-27 0 -83 -3 -125 -6 -73 -7 -77 -6 -77 14 0 18 8 21 63 26 34 3 78 8 97 9 88
9 90 9 90 -18z"/>
</g>
</g>
</svg>