<?xml version="1.0" standalone="no"?>
<!DOCTYPE svg PUBLIC "-//W3C//DTD SVG 20010904//EN"
 "http://www.w3.org/TR/2001/REC-SVG-20010904/DTD/svg10.dtd">
<svg version="1.0" xmlns="http://www.w3.org/2000/svg"
 width="96.000000pt" height="68.000000pt" viewBox="0 0 96.000000 68.000000"
 preserveAspectRatio="xMidYMid meet">
<metadata>
Created by potrace 1.16, written by Peter Selinger 2001-2019
Combined from part_0.svg through part_5.svg with named groups
</metadata>
<g transform="translate(0.000000,68.000000) scale(0.100000,-0.100000)" fill="#000000" stroke="none">
<g id="part-0" class="char-part">
  <path d="M540 570 l0 -40 -49 0 c-28 0 -53 -4 -56 -10 -4 -6 16 -10 53 -10 58
0 59 0 58 -27 -1 -39 27 -37 34 2 5 28 8 30 68 38 38 6 60 13 56 19 -4 7 -28
8 -62 4 -51 -6 -54 -5 -49 14 6 22 -16 50 -39 50 -10 0 -14 -12 -14 -40z"/>
  <path d="M226 518 c3 -35 7 -71 9 -80 1 -10 -3 -99 -11 -198 -10 -135 -10
-187 -2 -206 13 -28 21 -30 39 -8 10 12 15 63 19 181 l5 165 27 -21 c31 -25
56 -27 64 -6 9 22 -12 42 -53 50 l-36 6 5 75 c5 67 3 76 -16 89 -11 8 -28 15
-38 15 -16 0 -17 -7 -12 -62z"/>
  <path d="M650 471 c0 -27 -3 -29 -52 -35 -90 -10 -109 -8 -115 14 -4 13 -14
20 -30 20 -20 0 -22 -3 -14 -19 14 -25 5 -31 -46 -31 -24 0 -43 -4 -43 -10 0
-11 15 -13 73 -10 31 1 39 -2 44 -19 7 -29 23 -26 23 4 0 21 5 25 29 25 15 0
49 3 75 6 43 6 46 5 46 -16 l0 -23 23 21 c19 18 35 22 90 22 37 0 67 4 67 9 0
13 -27 21 -71 21 -28 0 -39 4 -39 15 0 9 -12 20 -26 25 -34 13 -34 14 -34 -19z"/>
  <path d="M136 358 c-22 -60 -21 -98 3 -98 24 0 43 46 39 95 -4 53 -22 54 -42
3z"/>
  <path d="M555 344 c-55 -7 -109 -10 -119 -7 -16 4 -17 2 -10 -13 5 -11 8 -59
6 -108 -3 -88 -3 -88 20 -83 53 13 206 11 222 -2 9 -8 20 -11 24 -7 4 4 9 53
12 109 4 83 2 104 -10 114 -18 14 -16 15 -145 -3z m105 -30 c0 -8 1 -17 3 -20
1 -3 -42 -8 -96 -10 -92 -5 -99 -4 -95 13 3 14 19 20 83 28 88 12 105 10 105
-11z m0 -68 c0 -19 -4 -22 -27 -19 -16 3 -58 0 -95 -5 l-68 -9 0 26 c0 26 0
26 95 28 93 2 95 1 95 -21z m0 -58 c0 -22 -3 -23 -93 -23 -50 0 -93 3 -94 8
-8 21 3 26 65 30 37 2 79 4 95 5 22 2 27 -2 27 -20z"/>
  <path d="M465 102 c-10 -16 -37 -41 -61 -56 -66 -42 -46 -43 33 -2 96 50 112
63 93 76 -26 17 -48 11 -65 -18z"/>
  <path d="M645 74 c66 -58 84 -69 98 -55 8 8 9 16 1 29 -15 24 -84 62 -114 62
-24 0 -23 -2 15 -36z"/>
</g>
<g id="part-1" class="char-part">
  <path d="M226 553 c12 -36 8 -305 -4 -407 -11 -81 -2 -126 24 -126 19 0 24 25
24 134 0 57 3 131 6 165 l7 61 33 -25 c40 -31 56 -32 52 -2 -2 16 -15 26 -46
37 l-44 15 7 75 c7 75 6 76 -20 88 -41 19 -48 16 -39 -15z"/>
  <path d="M138 347 c-23 -55 -24 -90 -1 -85 22 4 47 70 39 103 -9 35 -18 31
-38 -18z"/>
</g>
<g id="part-2" class="char-part">
  <path d="M540 570 l0 -40 -55 0 c-30 0 -55 -4 -55 -10 0 -5 24 -10 54 -10 52
0 55 -1 58 -27 4 -39 26 -40 36 -1 6 25 14 34 33 36 100 10 113 14 95 24 -11
6 -40 7 -68 4 -49 -7 -50 -6 -45 15 7 27 -8 49 -34 49 -15 0 -19 -8 -19 -40z"/>
</g>
<g id="part-3" class="char-part">
  <path d="M650 471 c0 -27 -3 -29 -52 -35 -89 -10 -109 -8 -115 13 -6 22 -53
36 -53 15 0 -7 5 -16 10 -19 20 -13 -2 -25 -46 -25 -24 0 -44 -4 -44 -10 0 -5
24 -10 54 -10 46 0 56 -3 61 -20 9 -28 25 -25 25 5 0 21 5 25 29 25 15 0 50 3
76 7 l48 6 -7 -29 -8 -29 29 28 c26 24 37 27 96 27 37 0 67 4 67 9 0 13 -27
21 -71 21 -28 0 -39 4 -39 15 0 14 -29 35 -49 35 -6 0 -11 -13 -11 -29z"/>
</g>
<g id="part-4" class="char-part">
  <path d="M466 106 c-8 -13 -36 -39 -61 -57 -25 -18 -43 -34 -41 -37 5 -5 155
73 171 89 6 7 5 13 -5 19 -25 16 -47 11 -64 -14z"/>
  <path d="M611 106 c48 -44 116 -96 126 -96 19 0 16 34 -5 53 -21 20 -85 47
-108 47 -10 0 -15 -2 -13 -4z"/>
</g>
</g>
</svg>