<?xml version="1.0" standalone="no"?>
<!DOCTYPE svg PUBLIC "-//W3C//DTD SVG 20010904//EN"
 "http://www.w3.org/TR/2001/REC-SVG-20010904/DTD/svg10.dtd">
<svg version="1.0" xmlns="http://www.w3.org/2000/svg"
 width="96.000000pt" height="68.000000pt" viewBox="0 0 96.000000 68.000000"
 preserveAspectRatio="xMidYMid meet">
<metadata>
Created by potrace 1.16, written by Peter Selinger 2001-2019
Combined from part_0.svg through part_5.svg with named groups
</metadata>
<g transform="translate(0.000000,68.000000) scale(0.100000,-0.100000)" fill="#000000" stroke="none">
<g id="part-0" class="char-part">
  <path d="M215 562 c-10 -11 59 -72 82 -72 23 0 31 22 15 47 -8 13 -88 34 -97
25z"/>
  <path d="M707 554 c-9 -9 -212 -33 -282 -34 l-60 0 4 -112 c2 -62 -3 -150 -10
-196 -11 -73 -11 -85 3 -99 15 -14 17 -14 26 3 5 11 13 98 17 194 4 96 10 178
14 181 10 9 291 33 298 25 4 -4 7 -88 7 -187 0 -195 -3 -206 -52 -188 -38 15
-37 4 5 -35 82 -76 96 -48 103 209 3 110 4 205 2 211 -2 6 -14 16 -28 23 -28
13 -38 14 -47 5z"/>
  <path d="M523 437 c-106 -15 -93 -31 17 -23 98 7 123 13 114 27 -6 10 -31 10
-131 -4z"/>
  <path d="M140 413 c0 -14 76 -73 90 -71 25 5 24 44 -2 62 -22 16 -88 23 -88 9z"/>
  <path d="M560 349 c-14 -6 -44 -8 -68 -5 -42 6 -42 5 -28 -17 7 -12 17 -39 21
-61 6 -36 8 -38 37 -32 17 3 50 6 74 6 34 0 42 3 38 15 -3 8 3 30 14 49 15 25
17 37 9 45 -13 13 -63 13 -97 0z m36 -75 c-3 -9 -20 -14 -45 -14 -34 0 -40 3
-45 26 -9 34 0 42 49 46 35 3 40 0 43 -20 2 -13 1 -30 -2 -38z"/>
  <path d="M271 279 c-19 -28 -52 -65 -73 -83 -21 -18 -38 -39 -38 -47 0 -20 29
-59 43 -59 12 0 117 208 117 230 0 21 -16 7 -49 -41z"/>
</g>
<g id="part-1" class="char-part">
  <path d="M226 548 c16 -29 49 -58 65 -58 39 0 34 40 -7 59 -34 15 -67 15 -58
-1z"/>
  <path d="M150 412 c0 -16 60 -62 81 -62 24 0 26 36 2 48 -30 16 -83 24 -83 14z"/>
  <path d="M281 283 c-19 -26 -54 -66 -77 -89 l-42 -40 15 -32 c16 -33 30 -37
45 -11 32 58 98 204 96 211 -2 5 -19 -12 -37 -39z"/>
</g>
<g id="part-2" class="char-part">
  <path d="M650 544 c-36 -7 -115 -16 -175 -20 l-110 -7 4 -111 c2 -62 -2 -148
-9 -194 -12 -74 -12 -85 3 -99 9 -9 20 -14 24 -10 8 9 21 188 22 304 1 96 -14
86 156 103 169 16 151 26 159 -90 4 -54 4 -140 0 -191 l-7 -91 -43 6 c-24 3
-44 4 -44 2 0 -2 23 -23 50 -46 41 -35 53 -40 65 -30 26 22 34 80 36 274 l3
188 -24 14 c-29 16 -26 16 -110 -2z"/>
</g>
<g id="part-3" class="char-part">
  <path d="M528 436 c-101 -17 -96 -30 10 -22 100 7 125 13 116 27 -6 11 -38 10
-126 -5z"/>
</g>
<g id="part-4" class="char-part">
  <path d="M555 348 c-22 -5 -55 -6 -73 -3 -33 6 -33 6 -18 -17 8 -13 18 -40 21
-61 6 -28 11 -37 22 -33 8 3 41 6 74 6 48 0 57 3 53 15 -3 8 3 31 15 50 20 34
20 35 1 45 -22 12 -40 11 -95 -2z m43 -50 c-3 -29 -7 -33 -41 -39 -34 -5 -40
-3 -48 18 -18 47 -13 53 42 53 l50 0 -3 -32z"/>
</g>
</g>
</svg>