<?xml version="1.0" standalone="no"?>
<!DOCTYPE svg PUBLIC "-//W3C//DTD SVG 20010904//EN"
 "http://www.w3.org/TR/2001/REC-SVG-20010904/DTD/svg10.dtd">
<svg version="1.0" xmlns="http://www.w3.org/2000/svg"
 width="96.000000pt" height="68.000000pt" viewBox="0 0 96.000000 68.000000"
 preserveAspectRatio="xMidYMid meet">
<metadata>
Created by potrace 1.16, written by Peter Selinger 2001-2019
Combined from part_0.svg through part_5.svg with named groups
</metadata>
<g transform="translate(0.000000,68.000000) scale(0.100000,-0.100000)" fill="#000000" stroke="none">
<g id="part-0" class="char-part">
  <path d="M465 578 c12 -38 16 -247 8 -363 l-8 -110 -32 1 c-18 1 -33 1 -33 -1
0 -10 66 -75 77 -75 7 0 20 11 28 24 13 20 16 51 15 153 -1 70 -1 132 -1 137
1 5 11 -4 23 -20 12 -16 25 -31 28 -34 3 -3 22 -27 41 -55 53 -77 77 -94 129
-95 53 0 90 9 90 21 0 5 -4 9 -9 9 -48 0 -267 146 -259 172 2 6 22 20 43 32
22 11 57 32 79 45 36 23 37 25 20 38 -30 22 -50 15 -79 -27 -31 -45 -70 -74
-91 -66 -17 7 -18 56 -3 144 11 59 10 67 -7 79 -10 7 -29 13 -42 13 -21 0 -23
-3 -17 -22z"/>
  <path d="M130 480 c0 -18 68 -80 88 -80 43 0 32 58 -15 79 -30 14 -73 14 -73
1z"/>
  <path d="M353 397 c-80 -12 -85 -32 -7 -22 l57 7 -7 -28 c-10 -39 -56 -102
-111 -153 -52 -48 -54 -64 -3 -33 82 51 214 232 169 232 -5 0 -15 2 -23 4 -7
2 -41 -1 -75 -7z"/>
  <path d="M217 267 c-14 -19 -47 -48 -72 -63 -47 -30 -54 -48 -32 -78 13 -18
47 -13 47 8 0 6 21 41 46 78 48 71 58 116 11 55z"/>
</g>
<g id="part-1" class="char-part">
  <path d="M150 459 c42 -58 90 -73 90 -29 0 23 -32 45 -78 54 l-33 6 21 -31z"/>
</g>
<g id="part-2" class="char-part">
  <path d="M195 252 c-33 -31 -69 -62 -79 -68 -15 -8 -18 -16 -12 -37 7 -29 37
-49 43 -30 2 6 28 48 58 94 48 71 62 100 53 99 -2 0 -30 -26 -63 -58z"/>
</g>
<g id="part-3" class="char-part">
  <path d="M467 563 c10 -45 8 -400 -1 -438 -6 -24 -10 -27 -38 -21 l-31 6 25
-32 c39 -51 56 -57 79 -29 17 20 19 40 19 164 l0 140 51 -69 c29 -38 68 -86
87 -106 33 -35 41 -38 87 -37 27 1 61 4 75 9 l25 7 -28 12 c-102 41 -243 134
-254 167 -2 6 33 32 77 58 84 50 92 68 34 79 -19 3 -27 -1 -34 -17 -14 -36
-87 -99 -106 -92 -15 6 -16 16 -11 82 4 41 12 85 18 96 10 18 8 25 -11 40 -12
10 -33 18 -47 18 -22 0 -23 -2 -16 -37z"/>
  <path d="M348 397 c-85 -13 -92 -32 -8 -23 48 6 60 4 60 -7 0 -26 -77 -134
-124 -172 -25 -22 -44 -40 -42 -42 2 -3 19 2 37 10 37 15 101 82 163 167 36
50 37 55 20 67 -10 7 -23 12 -28 11 -6 0 -41 -6 -78 -11z"/>
</g>
</g>
</svg>