<?xml version="1.0" standalone="no"?>
<!DOCTYPE svg PUBLIC "-//W3C//DTD SVG 20010904//EN"
 "http://www.w3.org/TR/2001/REC-SVG-20010904/DTD/svg10.dtd">
<svg version="1.0" xmlns="http://www.w3.org/2000/svg"
 width="96.000000pt" height="68.000000pt" viewBox="0 0 96.000000 68.000000"
 preserveAspectRatio="xMidYMid meet">
<metadata>
Created by potrace 1.16, written by Peter Selinger 2001-2019
Combined from part_0.svg through part_5.svg with named groups
</metadata>
<g transform="translate(0.000000,68.000000) scale(0.100000,-0.100000)" fill="#000000" stroke="none">
<g id="part-0" class="char-part">
  <path d="M510 574 c0 -11 23 -49 34 -56 37 -25 51 20 14 46 -22 16 -48 21 -48
10z"/>
  <path d="M276 523 c-3 -4 -32 -7 -64 -8 -44 -1 -56 -5 -53 -16 2 -8 6 -46 8
-84 7 -96 -12 -208 -47 -278 -20 -40 -24 -57 -15 -57 22 0 63 57 81 114 15 47
19 52 41 48 16 -3 32 3 49 18 l24 23 0 -69 c0 -88 -8 -100 -49 -86 -41 14 -39
3 5 -38 33 -29 38 -31 60 -20 13 7 26 20 28 29 3 9 6 105 8 214 2 166 0 200
-12 207 -18 11 -54 13 -64 3z m24 -84 c0 -48 -1 -51 -22 -45 -13 3 -31 6 -40
6 -14 0 -18 9 -18 39 0 42 8 49 53 50 26 1 27 -1 27 -50z m0 -117 c0 -12 -15
-20 -67 -36 -21 -7 -23 -4 -23 32 0 21 3 41 6 44 9 10 84 -26 84 -40z"/>
  <path d="M537 497 c-89 -13 -146 -25 -144 -32 2 -5 13 -11 25 -13 12 -2 22 -8
22 -13 0 -17 -27 -63 -49 -83 -37 -34 -23 -64 23 -46 38 14 34 -6 -10 -51 -51
-53 -27 -80 37 -42 62 37 44 -11 -35 -96 -35 -37 -43 -50 -26 -41 43 23 68 46
115 108 48 64 55 86 29 96 -27 10 -34 7 -34 -19 0 -22 -4 -25 -34 -25 l-33 0
53 58 c55 58 66 85 39 96 -10 3 -20 -5 -30 -24 -14 -27 -50 -48 -62 -37 -3 3
9 26 27 52 17 25 29 52 27 59 -4 9 6 16 31 20 70 11 92 8 92 -14 0 -26 -31
-88 -59 -117 -24 -25 -11 -42 13 -17 15 14 16 8 16 -74 0 -49 -5 -103 -11
-121 -13 -37 -5 -81 15 -81 15 0 26 21 26 50 0 15 11 19 68 25 145 13 172 17
172 26 0 5 -27 9 -60 9 -57 0 -60 1 -60 25 0 21 6 26 41 31 45 7 35 24 -13 24
-41 0 -39 38 2 47 36 7 40 23 5 23 -38 0 -34 36 5 45 41 9 38 25 -5 25 -28 0
-35 4 -35 20 0 13 -9 22 -25 26 -36 9 -42 -2 -16 -30 l22 -23 -47 -7 c-26 -3
-49 -4 -52 -2 -5 5 37 67 53 78 7 5 6 14 -3 28 -11 19 -10 20 25 21 21 1 49 4
63 8 l25 7 -22 12 c-26 14 -21 15 -206 -11z m143 -186 c0 -11 -9 -21 -22 -25
-38 -10 -45 -7 -50 19 -5 23 -2 25 33 25 32 0 39 -4 39 -19z m-2 -68 c-2 -22
-9 -27 -35 -30 -29 -4 -33 -1 -33 21 0 24 12 32 53 35 14 1 18 -5 15 -26z m2
-73 c0 -28 -2 -30 -40 -30 -36 0 -39 2 -36 23 3 12 5 25 5 30 1 4 17 7 36 7
32 0 35 -2 35 -30z"/>
</g>
<g id="part-1" class="char-part">
  <path d="M275 520 c-11 -5 -40 -9 -65 -9 l-45 -1 0 -138 c0 -146 -9 -188 -51
-254 -13 -21 -20 -38 -15 -38 20 0 72 74 86 125 15 50 18 53 35 43 16 -11 24
-8 50 17 l30 29 0 -76 c0 -101 -3 -109 -43 -97 l-32 9 38 -38 38 -37 20 24
c17 21 19 40 19 185 0 88 5 177 10 196 9 31 8 37 -11 53 -23 19 -34 20 -64 7z
m25 -79 l0 -58 -45 10 c-42 10 -45 12 -45 43 0 37 29 64 67 64 21 0 23 -4 23
-59z m-60 -76 c7 -8 23 -15 36 -15 18 0 24 -5 24 -23 0 -17 -9 -26 -33 -35
-47 -17 -71 -16 -63 4 3 9 6 31 6 50 0 37 10 43 30 19z"/>
</g>
<g id="part-2" class="char-part">
  <path d="M506 568 c15 -26 48 -58 61 -58 21 0 15 37 -9 54 -27 19 -62 21 -52
4z"/>
  <path d="M543 496 c-83 -11 -155 -24 -158 -28 -14 -14 39 -19 108 -9 39 6 97
13 127 16 30 3 77 8 104 11 48 6 49 7 25 20 -29 16 -19 17 -206 -10z"/>
</g>
<g id="part-3" class="char-part">
  <path d="M427 412 c-9 -21 -26 -48 -37 -59 -39 -42 -16 -63 41 -39 28 12 30
15 12 16 -29 0 -29 2 7 52 34 47 38 68 12 68 -11 0 -24 -14 -35 -38z"/>
</g>
<g id="part-4" class="char-part">
  <path d="M680 245 c0 -19 -7 -26 -27 -31 -48 -10 -49 -12 -10 -13 34 -1 37 -3
37 -31 0 -28 -2 -30 -40 -30 -40 0 -53 -13 -25 -23 13 -6 37 -5 155 7 25 3 51
5 58 5 7 1 10 6 7 11 -3 6 -31 10 -61 10 -54 0 -55 0 -52 28 3 23 8 28 43 32
30 4 35 7 22 13 -10 4 -30 7 -43 7 -17 0 -24 6 -24 20 0 13 -7 20 -20 20 -15
0 -20 -7 -20 -25z"/>
</g>
</g>
</svg>