<?xml version="1.0" standalone="no"?>
<!DOCTYPE svg PUBLIC "-//W3C//DTD SVG 20010904//EN"
 "http://www.w3.org/TR/2001/REC-SVG-20010904/DTD/svg10.dtd">
<svg version="1.0" xmlns="http://www.w3.org/2000/svg"
 width="96.000000pt" height="68.000000pt" viewBox="0 0 96.000000 68.000000"
 preserveAspectRatio="xMidYMid meet">
<metadata>
Created by potrace 1.16, written by Peter Selinger 2001-2019
Combined from part_0.svg through part_5.svg with named groups
</metadata>
<g transform="translate(0.000000,68.000000) scale(0.100000,-0.100000)" fill="#000000" stroke="none">
<g id="part-0" class="char-part">
  <path d="M633 570 c-15 -40 -35 -46 -95 -26 -65 21 -72 15 -13 -13 25 -12 43
-26 40 -31 -4 -6 -30 -27 -58 -46 -29 -20 -43 -33 -32 -29 11 4 33 12 48 17
37 14 42 6 22 -35 -17 -36 -42 -47 -111 -47 -19 0 -34 -4 -34 -9 0 -11 67 -24
80 -16 6 3 10 1 10 -5 0 -6 -28 -38 -62 -72 -59 -56 -52 -63 15 -15 16 10 31
17 34 13 3 -3 5 -35 4 -71 -1 -51 1 -65 13 -65 11 0 17 18 22 69 6 67 7 69 37
75 17 3 33 4 36 1 3 -3 7 -62 9 -130 4 -119 12 -151 26 -103 3 13 9 74 13 135
l6 113 32 0 c45 0 58 -19 50 -74 -6 -40 -11 -46 -31 -46 l-23 0 23 -25 c46
-49 70 -27 85 77 8 55 7 65 -9 82 -16 17 -25 18 -69 9 l-51 -10 0 28 c0 20 -5
29 -17 29 -9 0 -13 3 -10 6 4 4 52 8 108 10 55 1 103 5 106 8 3 3 -6 11 -21
17 -20 10 -48 9 -126 -1 -55 -7 -103 -10 -106 -7 -4 3 1 13 10 22 19 19 20 37
4 53 -9 9 -9 15 -1 23 8 8 26 3 66 -20 62 -35 87 -39 87 -13 0 20 -39 45 -85
56 l-29 7 33 30 c37 32 36 59 -1 59 -17 0 -27 -9 -35 -30z m-43 -250 c0 -30
-15 -40 -61 -40 l-30 0 32 39 c35 44 59 44 59 1z"/>
  <path d="M313 546 c-21 -21 -74 -51 -138 -77 -30 -12 -30 -13 -5 -17 13 -2 41
1 62 8 47 14 66 0 58 -45 -3 -21 -11 -31 -25 -32 -132 -13 -168 -24 -124 -38
19 -6 69 -1 113 12 48 14 -25 -102 -119 -189 -22 -21 -25 -26 -10 -21 35 12
103 62 135 100 l31 38 -5 -60 c-3 -33 -9 -83 -12 -111 -5 -40 -2 -53 11 -64
33 -27 45 11 44 133 0 60 2 111 4 114 3 2 20 -6 37 -18 26 -20 32 -21 40 -9
11 19 -1 32 -43 46 -40 13 -49 48 -15 58 13 3 33 6 46 6 13 0 20 4 17 10 -3 6
-22 10 -41 10 -35 0 -35 1 -32 35 1 22 -3 39 -11 44 -9 6 2 14 38 26 53 17 65
37 32 55 -30 15 -64 10 -88 -14z"/>
</g>
<g id="part-1" class="char-part">
  <path d="M300 530 c-30 -22 -71 -45 -90 -51 -40 -13 -62 -29 -39 -29 14 0 240
70 249 78 7 5 -40 42 -54 41 -6 0 -36 -18 -66 -39z"/>
</g>
<g id="part-2" class="char-part">
  <path d="M294 484 c-7 -3 -10 -21 -7 -48 l5 -44 -73 -12 c-101 -17 -107 -19
-89 -30 19 -12 66 -13 108 -1 24 7 32 7 32 -4 0 -20 -82 -127 -130 -168 -52
-44 -33 -49 31 -8 46 29 88 71 107 106 11 20 11 20 12 -1 0 -11 -5 -58 -11
-103 -12 -89 -7 -131 16 -131 26 0 35 38 35 156 l0 118 28 -27 c33 -32 62 -35
62 -8 0 17 -15 26 -72 45 -10 3 -18 14 -18 25 0 15 10 20 45 26 52 7 51 25 -2
25 -35 0 -36 0 -30 35 5 28 2 37 -13 45 -20 11 -19 11 -36 4z"/>
</g>
<g id="part-3" class="char-part">
  <path d="M640 588 c0 -7 -9 -24 -19 -37 l-19 -25 -58 16 c-32 9 -60 15 -62 13
-2 -2 17 -13 43 -24 26 -12 44 -25 40 -31 -4 -6 -30 -26 -58 -46 -61 -42 -30
-37 51 7 l52 29 53 -30 c59 -33 82 -37 90 -16 7 17 -41 49 -88 61 l-30 7 38
30 c30 24 35 33 26 44 -14 17 -59 18 -59 2z"/>
</g>
<g id="part-4" class="char-part">
  <path d="M560 443 c-26 -72 -43 -83 -128 -83 -51 0 -26 -22 27 -24 39 -1 39
-1 23 -20 -29 -33 -57 -60 -91 -88 -18 -16 -28 -28 -23 -28 21 0 130 80 162
118 l35 42 144 7 c135 6 142 7 115 21 -25 13 -41 13 -110 4 -44 -7 -92 -12
-108 -12 l-27 0 17 29 c15 25 15 32 5 45 -19 23 -30 20 -41 -11z"/>
</g>
<g id="part-5" class="char-part">
  <path d="M655 293 c-66 -7 -59 -18 13 -18 l66 0 0 -50 c0 -41 -4 -52 -21 -60
-19 -10 -20 -12 -6 -30 14 -17 15 -18 9 -2 -3 10 -2 16 3 12 5 -3 12 1 15 7 3
7 3 0 -1 -17 l-6 -30 22 25 c13 15 18 26 11 28 -7 3 -7 8 -2 15 6 7 14 33 20
60 10 47 3 65 -20 51 -7 -4 -8 -3 -4 4 7 12 -14 13 -99 5z m107 -65 c-7 -7
-12 -8 -12 -2 0 14 12 26 19 19 2 -3 -1 -11 -7 -17z"/>
  <path d="M497 273 c-13 -12 -7 -33 9 -33 8 0 12 5 9 10 -3 6 -1 10 5 10 6 0 8
5 5 10 -7 12 -19 13 -28 3z"/>
  <path d="M495 220 c4 -6 11 -8 16 -5 14 9 11 15 -7 15 -8 0 -12 -5 -9 -10z"/>
  <path d="M492 188 c-16 -16 -15 -30 2 -54 14 -17 15 -16 14 24 0 47 0 46 -16
30z"/>
</g>
</g>
</svg>