<?xml version="1.0" standalone="no"?>
<!DOCTYPE svg PUBLIC "-//W3C//DTD SVG 20010904//EN"
 "http://www.w3.org/TR/2001/REC-SVG-20010904/DTD/svg10.dtd">
<svg version="1.0" xmlns="http://www.w3.org/2000/svg"
 width="96.000000pt" height="68.000000pt" viewBox="0 0 96.000000 68.000000"
 preserveAspectRatio="xMidYMid meet">
<metadata>
Created by potrace 1.16, written by Peter Selinger 2001-2019
Combined from part_0.svg through part_5.svg with named groups
</metadata>
<g transform="translate(0.000000,68.000000) scale(0.100000,-0.100000)" fill="#000000" stroke="none">
<g id="part-0" class="char-part">
  <path d="M410 619 c0 -6 9 -23 20 -39 l19 -27 -91 -7 c-74 -6 -93 -4 -108 9
-9 8 -19 15 -23 15 -10 0 -58 -114 -53 -127 10 -26 42 -13 65 27 21 38 25 40
69 40 26 0 116 7 201 15 85 8 156 13 158 12 2 -2 -7 -17 -19 -32 l-22 -28 55
7 c108 14 118 22 75 60 -35 31 -42 32 -168 21 -83 -7 -88 -6 -88 12 0 20 -46
53 -74 53 -9 0 -16 -5 -16 -11z"/>
  <path d="M420 496 c0 -7 7 -19 15 -26 26 -21 17 -28 -42 -35 -73 -9 -126 -22
-98 -25 11 -1 27 -2 36 -1 15 2 55 -77 44 -87 -3 -3 -52 -7 -110 -10 -101 -4
-132 -15 -81 -28 14 -3 56 -1 95 5 38 6 88 11 110 11 41 0 41 0 41 -38 l0 -39
-69 -2 c-37 -1 -81 -6 -97 -10 l-29 -8 29 -8 c15 -4 59 -5 97 -1 l69 6 0 -54
c0 -64 9 -116 21 -116 12 0 29 69 29 121 0 56 6 59 123 59 42 0 77 4 77 9 0
16 -53 22 -127 16 l-73 -7 2 41 1 41 159 0 c110 0 157 3 153 11 -15 23 -58 29
-163 20 -59 -5 -109 -8 -111 -5 -3 3 7 16 22 30 19 18 26 32 22 45 -6 17 -1
19 34 19 23 0 41 4 41 9 0 14 -51 20 -102 12 -45 -7 -48 -7 -48 15 0 16 -9 25
-31 33 -40 14 -39 14 -39 -3z m90 -90 c0 -32 -23 -76 -40 -76 -10 0 -25 -3
-34 -6 -12 -5 -18 2 -22 25 -4 18 -16 37 -28 44 -20 11 -18 12 19 18 72 11
105 10 105 -5z"/>
</g>
<g id="part-1" class="char-part">
  <path d="M419 602 c5 -10 17 -25 26 -32 16 -13 16 -15 -2 -21 -28 -12 -203
-11 -203 1 0 24 -18 6 -40 -39 -36 -78 -6 -113 34 -40 l19 36 181 16 c100 10
193 17 209 17 31 0 37 -23 10 -39 -10 -5 -16 -12 -13 -14 9 -9 134 18 134 28
0 6 -16 20 -35 33 -35 25 -60 25 -208 5 -40 -5 -43 -4 -37 15 8 24 -25 52 -62
52 -19 0 -21 -3 -13 -18z"/>
</g>
<g id="part-2" class="char-part">
  <path d="M410 505 c0 -4 9 -20 20 -35 l20 -28 -63 -7 c-34 -3 -75 -9 -92 -12
-30 -6 -30 -6 -5 -13 29 -8 350 20 350 31 0 11 -52 18 -102 12 -44 -5 -48 -4
-48 15 0 13 -8 23 -22 27 -13 4 -31 9 -40 11 -10 3 -18 2 -18 -1z"/>
</g>
<g id="part-3" class="char-part">
  <path d="M502 375 c-11 -42 -14 -45 -46 -45 -28 0 -35 4 -40 25 -6 25 -50 54
-62 43 -3 -4 2 -20 11 -38 9 -18 15 -34 13 -36 -3 -2 -56 -7 -119 -12 -105 -7
-112 -9 -87 -21 22 -11 43 -12 115 -2 48 7 181 15 296 18 114 3 207 10 207 15
0 21 -54 27 -156 17 -58 -6 -108 -8 -112 -5 -3 4 7 19 22 35 31 32 28 51 -8
51 -18 0 -24 -9 -34 -45z"/>
</g>
<g id="part-4" class="char-part">
  <path d="M430 267 c0 -40 -12 -46 -95 -48 -27 -1 -63 -5 -80 -9 l-30 -7 27 -7
c15 -4 61 -6 103 -4 l76 3 2 -77 c2 -74 9 -99 24 -84 4 4 12 44 18 89 l10 82
105 5 c95 5 103 6 81 19 -18 10 -45 11 -108 6 l-85 -7 4 34 c3 30 0 33 -24 36
-26 3 -28 1 -28 -31z"/>
</g>
</g>
</svg>