<?xml version="1.0" standalone="no"?>
<!DOCTYPE svg PUBLIC "-//W3C//DTD SVG 20010904//EN"
 "http://www.w3.org/TR/2001/REC-SVG-20010904/DTD/svg10.dtd">
<svg version="1.0" xmlns="http://www.w3.org/2000/svg"
 width="96.000000pt" height="68.000000pt" viewBox="0 0 96.000000 68.000000"
 preserveAspectRatio="xMidYMid meet">
<metadata>
Created by potrace 1.16, written by Peter Selinger 2001-2019
Combined from part_0.svg through part_5.svg with named groups
</metadata>
<g transform="translate(0.000000,68.000000) scale(0.100000,-0.100000)" fill="#000000" stroke="none">
<g id="part-0" class="char-part">
  <path d="M304 563 c-4 -20 -16 -53 -27 -72 -29 -52 -125 -168 -161 -196 -23
-19 -27 -25 -13 -25 44 0 150 92 208 183 l31 48 32 -26 c59 -48 96 -54 96 -14
0 16 7 19 50 19 l50 0 0 -161 0 -162 -42 7 -42 7 39 -35 c22 -19 45 -35 51
-36 24 -1 33 51 37 205 2 88 7 168 11 177 15 32 -24 39 -97 18 -65 -18 -67
-18 -106 1 -22 10 -45 19 -51 19 -12 0 -13 10 0 30 11 18 -15 50 -41 50 -13 0
-20 -11 -25 -37z"/>
  <path d="M735 525 c-80 -19 -85 -25 -17 -22 l62 3 1 -45 c2 -135 -3 -307 -10
-314 -4 -4 -20 -3 -34 2 -35 13 -34 4 3 -37 35 -38 53 -40 74 -10 13 18 16 54
16 190 0 91 5 179 10 194 7 19 7 30 -1 40 -13 16 -36 16 -104 -1z"/>
  <path d="M660 422 c0 -15 50 -52 70 -52 32 0 23 26 -14 44 -38 18 -56 20 -56
8z"/>
  <path d="M475 376 c20 -30 46 -41 57 -24 4 7 8 16 8 19 0 8 -47 29 -66 29 -12
0 -12 -3 1 -24z"/>
  <path d="M285 374 c-29 -14 -29 -14 29 -10 32 3 64 10 69 15 17 17 -62 13 -98
-5z"/>
  <path d="M692 293 c-51 -29 -60 -38 -51 -49 20 -25 46 -15 84 32 20 25 36 47
34 48 -2 2 -32 -12 -67 -31z"/>
  <path d="M315 304 c-27 -8 -67 -14 -88 -16 -25 -1 -34 -5 -27 -12 7 -7 29 -6
68 2 82 17 85 16 78 -14 -4 -14 -14 -37 -23 -51 -13 -20 -22 -24 -45 -19 -15
3 -28 4 -28 2 0 -7 84 -87 100 -96 39 -21 41 30 3 59 l-28 20 53 54 c41 42 50
56 40 64 -23 18 -52 20 -103 7z"/>
  <path d="M483 272 c-53 -27 -59 -38 -31 -55 12 -8 25 0 57 33 59 61 55 64 -26
22z"/>
</g>
<g id="part-1" class="char-part">
  <path d="M310 574 c0 -43 -59 -141 -133 -220 -38 -41 -65 -74 -60 -74 24 0
110 69 147 118 23 30 50 66 62 80 l20 25 44 -32 c49 -35 70 -39 70 -12 0 18
-34 39 -87 55 -20 6 -21 10 -10 33 9 21 8 27 -8 39 -29 21 -45 17 -45 -12z"/>
</g>
<g id="part-2" class="char-part">
  <path d="M295 145 c62 -57 78 -63 83 -28 4 24 -32 53 -87 71 -58 20 -58 13 4
-43z"/>
</g>
<g id="part-3" class="char-part">
  <path d="M525 502 l-60 -17 53 -3 52 -3 0 -155 c0 -168 -2 -174 -53 -155 -15
6 -27 8 -27 5 0 -8 74 -74 84 -74 28 0 35 39 36 180 0 80 5 161 10 180 8 29 7
37 -7 48 -9 6 -19 12 -22 11 -3 -1 -33 -8 -66 -17z"/>
</g>
<g id="part-4" class="char-part">
  <path d="M495 278 c-33 -18 -62 -34 -64 -35 -3 -2 3 -11 12 -20 16 -17 20 -14
70 35 28 28 50 52 47 52 -3 0 -32 -15 -65 -32z"/>
</g>
<g id="part-5" class="char-part">
  <path d="M710 290 c-11 -11 -26 -20 -34 -20 -7 0 -19 -6 -25 -14 -9 -11 -7
-15 8 -19 18 -4 27 3 70 56 19 23 5 21 -19 -3z"/>
</g>
</g>
</svg>