<?xml version="1.0" standalone="no"?>
<!DOCTYPE svg PUBLIC "-//W3C//DTD SVG 20010904//EN"
 "http://www.w3.org/TR/2001/REC-SVG-20010904/DTD/svg10.dtd">
<svg version="1.0" xmlns="http://www.w3.org/2000/svg"
 width="96.000000pt" height="68.000000pt" viewBox="0 0 96.000000 68.000000"
 preserveAspectRatio="xMidYMid meet">
<metadata>
Created by potrace 1.16, written by Peter Selinger 2001-2019
Combined from part_0.svg through part_5.svg with named groups
</metadata>
<g transform="translate(0.000000,68.000000) scale(0.100000,-0.100000)" fill="#000000" stroke="none">
<g id="part-0" class="char-part">
  <path d="M378 535 c2 -31 -1 -83 -8 -115 l-13 -60 -38 0 c-22 0 -39 -3 -39 -6
0 -11 29 -34 44 -34 12 0 14 -7 10 -28 -5 -25 -1 -32 30 -50 54 -32 48 -46
-40 -101 -33 -22 -42 -31 -28 -31 20 0 114 54 126 73 4 6 16 2 33 -12 15 -11
34 -21 41 -21 21 0 17 38 -6 50 -21 11 -26 39 -12 55 5 6 15 29 22 53 8 24 23
50 34 58 11 8 15 14 8 14 -8 0 -10 8 -6 24 4 18 1 27 -14 35 -40 22 -52 14
-46 -28 l5 -39 -45 -4 c-25 -2 -46 -1 -46 2 0 3 11 41 25 85 14 44 25 87 25
95 0 13 -41 40 -60 40 -4 0 -5 -25 -2 -55z m92 -198 c0 -16 -38 -97 -46 -97
-13 0 -64 31 -64 40 0 26 22 59 42 63 46 9 68 7 68 -6z"/>
  <path d="M195 434 c-22 -8 -53 -14 -70 -13 -46 2 -47 1 -31 -28 7 -16 19 -54
26 -85 11 -57 26 -80 39 -60 3 6 30 14 59 18 46 6 53 9 49 26 -3 10 2 43 10
74 10 32 12 58 7 63 -18 17 -50 19 -89 5z m25 -74 c0 -44 -3 -52 -25 -62 -14
-6 -27 -9 -29 -7 -3 2 -8 28 -12 56 l-6 52 33 4 c19 2 35 5 37 5 1 1 2 -21 2
-48z"/>
  <path d="M665 440 c-16 -4 -47 -8 -67 -9 -42 -1 -47 -12 -19 -42 10 -11 31
-49 46 -85 l28 -65 -29 -31 c-16 -17 -49 -44 -74 -60 l-45 -30 34 6 c18 3 56
22 84 42 35 25 52 33 55 24 3 -7 16 -26 31 -42 24 -27 30 -29 91 -26 l65 3
-72 48 c-40 27 -75 53 -79 59 -6 10 7 48 53 147 19 43 22 56 11 62 -16 10 -71
10 -113 -1z m35 -94 l-21 -68 -34 54 c-19 29 -35 58 -35 64 0 12 91 33 103 24
4 -4 -2 -37 -13 -74z"/>
</g>
<g id="part-1" class="char-part">
  <path d="M205 430 c-11 -5 -41 -9 -67 -9 -44 -1 -61 -12 -39 -25 5 -3 14 -35
21 -71 7 -36 16 -67 20 -70 4 -2 20 0 36 5 16 5 41 12 57 15 21 4 27 11 27 30
0 13 7 45 16 71 13 39 13 48 2 55 -16 11 -47 10 -73 -1z m17 -72 c-5 -54 -14
-68 -44 -68 -12 0 -19 11 -23 38 -4 20 -9 45 -11 54 -5 16 11 23 62 27 19 1
21 -3 16 -51z"/>
</g>
<g id="part-2" class="char-part">
  <path d="M375 523 c0 -38 -4 -89 -8 -115 l-8 -48 -47 0 -47 -1 24 -19 c13 -11
29 -20 37 -20 10 0 12 -8 8 -28 -5 -25 -1 -32 30 -50 20 -12 36 -25 36 -30 0
-12 -49 -57 -90 -81 -27 -16 -30 -21 -15 -21 22 0 119 53 130 71 5 7 17 1 35
-16 16 -15 33 -24 39 -21 18 11 13 45 -9 58 -21 13 -26 37 -12 53 5 6 15 29
22 53 8 24 23 50 34 58 11 8 15 14 8 14 -8 0 -10 8 -6 24 4 18 1 27 -14 35
-38 20 -49 14 -48 -26 1 -38 1 -38 -42 -41 -42 -3 -43 -2 -36 20 4 13 17 55
30 95 l22 72 -24 15 c-42 28 -49 22 -49 -51z m95 -185 c-1 -17 -38 -98 -45
-98 -12 0 -65 31 -65 38 1 31 16 53 44 61 45 13 66 13 66 -1z"/>
</g>
<g id="part-3" class="char-part">
  <path d="M685 443 c-28 -7 -67 -13 -87 -13 -42 0 -47 -11 -19 -41 10 -11 31
-49 46 -85 l28 -65 -38 -39 c-21 -22 -57 -48 -79 -59 -33 -16 -36 -20 -18 -21
25 0 93 32 131 62 24 18 24 18 41 -9 29 -48 43 -54 112 -51 l63 3 -72 48 c-40
27 -75 53 -79 59 -6 10 7 48 52 146 13 29 22 57 19 61 -9 16 -50 17 -100 4z
m19 -84 c-9 -29 -20 -58 -24 -63 -8 -8 -69 79 -70 100 0 13 91 34 103 24 4 -3
0 -31 -9 -61z"/>
</g>
</g>
</svg>