<?xml version="1.0" standalone="no"?>
<!DOCTYPE svg PUBLIC "-//W3C//DTD SVG 20010904//EN"
 "http://www.w3.org/TR/2001/REC-SVG-20010904/DTD/svg10.dtd">
<svg version="1.0" xmlns="http://www.w3.org/2000/svg"
 width="96.000000pt" height="68.000000pt" viewBox="0 0 96.000000 68.000000"
 preserveAspectRatio="xMidYMid meet">
<metadata>
Created by potrace 1.16, written by Peter Selinger 2001-2019
Combined from part_0.svg through part_5.svg with named groups
</metadata>
<g transform="translate(0.000000,68.000000) scale(0.100000,-0.100000)" fill="#000000" stroke="none">
<g id="part-0" class="char-part">
  <path d="M680 557 c0 -47 -11 -57 -67 -57 -13 0 -23 -4 -23 -10 0 -5 16 -10
35 -10 19 0 35 -5 35 -10 0 -6 -21 -33 -46 -60 -26 -28 -42 -50 -37 -50 12 0
75 46 91 67 10 14 12 9 12 -34 0 -28 3 -58 6 -67 5 -12 0 -16 -22 -16 -54 0
-184 -23 -184 -33 0 -10 124 -4 187 9 36 7 49 40 44 107 -1 20 0 37 4 37 4 0
26 -14 50 -31 46 -33 73 -32 55 1 -5 10 -32 26 -60 35 -65 22 -70 50 -10 60
50 9 52 23 3 27 -35 3 -38 5 -35 30 2 19 -4 30 -18 38 -19 10 -20 8 -20 -33z"/>
  <path d="M257 559 c32 -54 83 -62 83 -13 0 26 -31 44 -76 44 l-25 0 18 -31z"/>
  <path d="M485 536 c6 -43 5 -45 -22 -51 -15 -4 -39 -11 -53 -15 -21 -7 -18 -9
19 -9 l43 -1 -17 -27 c-10 -16 -29 -40 -43 -55 -37 -41 -7 -34 35 7 20 19 37
35 38 35 1 0 1 -21 1 -47 -1 -36 3 -48 14 -48 11 0 16 13 18 48 3 52 4 52 32
35 10 -7 22 -9 26 -6 10 10 -5 28 -32 38 -30 12 -31 24 -1 37 l22 10 -22 7
c-16 5 -23 16 -25 44 -2 26 -8 38 -21 40 -16 3 -17 -2 -12 -42z"/>
  <path d="M250 464 c-25 -7 -62 -13 -82 -13 -27 -1 -38 -5 -38 -16 0 -18 71
-21 118 -4 17 6 37 9 43 7 13 -4 -105 -157 -155 -200 -17 -15 -25 -27 -18 -28
19 0 51 18 100 58 l42 34 0 -68 c0 -38 -5 -85 -10 -104 -11 -39 3 -90 25 -90
18 0 25 34 25 125 0 87 12 115 37 89 15 -14 63 -20 63 -6 0 16 -17 32 -49 45
l-33 14 31 13 c36 14 39 25 11 40 -16 9 -22 6 -36 -15 -15 -23 -34 -26 -34 -5
0 4 21 31 46 59 38 42 44 54 34 66 -15 18 -57 17 -120 -1z"/>
  <path d="M675 245 c-55 -7 -142 -16 -192 -20 -116 -9 -115 -29 1 -24 l81 4 3
-69 3 -69 -31 6 c-32 7 -37 2 -17 -16 37 -36 45 -39 66 -25 17 10 21 23 21 69
0 31 3 70 6 87 l6 30 98 4 c54 1 102 6 106 11 21 21 -39 26 -151 12z"/>
  <path d="M423 124 c-18 -24 -28 -44 -22 -44 31 0 105 62 95 79 -14 22 -42 9
-73 -35z"/>
  <path d="M680 163 c1 -15 93 -81 106 -76 24 9 15 42 -13 57 -36 18 -93 30 -93
19z"/>
</g>
<g id="part-1" class="char-part">
  <path d="M261 559 c29 -38 66 -50 75 -24 9 23 -16 45 -62 52 l-39 6 26 -34z"/>
  <path d="M280 470 c-8 -5 -45 -14 -82 -21 -37 -7 -65 -16 -62 -21 8 -12 46
-10 110 7 32 8 59 13 61 11 6 -6 -94 -135 -145 -188 -59 -61 -26 -55 47 9 29
25 55 43 58 40 3 -4 0 -55 -6 -115 -11 -110 -8 -146 13 -139 16 5 23 50 25
145 0 45 4 82 9 82 4 0 18 -9 32 -20 30 -24 50 -25 50 -5 0 9 -18 24 -42 34
l-41 17 32 13 c32 14 37 34 9 39 -9 2 -19 -6 -23 -17 -3 -12 -13 -21 -21 -21
-28 0 -13 39 32 85 25 26 44 48 42 50 -28 23 -74 31 -98 15z"/>
</g>
<g id="part-2" class="char-part">
  <path d="M486 536 c6 -43 6 -45 -22 -51 -16 -4 -40 -11 -54 -15 -22 -8 -21 -9
13 -9 20 -1 37 -4 37 -7 0 -12 -24 -51 -48 -76 -37 -40 -10 -34 34 7 20 19 38
35 40 35 1 0 2 -21 1 -47 -2 -37 2 -48 13 -48 11 0 16 13 18 48 3 45 13 59 27
37 9 -15 35 -12 35 4 0 7 -13 19 -30 26 -36 15 -38 23 -7 38 l22 11 -22 6
c-16 5 -23 16 -25 43 -2 26 -8 38 -20 40 -16 3 -17 -2 -12 -42z"/>
</g>
<g id="part-3" class="char-part">
  <path d="M680 550 c0 -22 -4 -41 -10 -41 -5 -1 -14 -3 -20 -4 -5 -1 -21 -3
-35 -4 -39 -2 -30 -21 10 -21 19 0 35 -4 35 -9 0 -5 -21 -32 -46 -60 -53 -59
-45 -66 20 -16 l46 35 0 -55 c0 -42 3 -55 15 -55 12 0 15 13 15 55 0 30 3 55
6 55 3 0 23 -13 44 -30 38 -30 70 -39 70 -20 0 19 -39 49 -79 60 -30 8 -41 16
-41 30 0 15 9 21 40 26 59 10 53 29 -7 24 -20 -1 -23 3 -23 34 0 29 -4 36 -20
36 -17 0 -20 -7 -20 -40z"/>
</g>
<g id="part-4" class="char-part">
  <path d="M568 139 l4 -72 -32 5 -31 5 30 -31 c31 -30 31 -30 50 -11 14 15 20
39 23 98 l5 77 -26 0 c-26 0 -26 0 -23 -71z"/>
  <path d="M450 161 c0 -6 -14 -26 -31 -46 -21 -23 -26 -35 -17 -35 23 0 100 59
95 73 -5 15 -47 22 -47 8z"/>
  <path d="M722 125 c56 -47 71 -51 76 -18 2 16 -7 26 -41 42 -24 11 -54 21 -66
21 -19 0 -15 -7 31 -45z"/>
</g>
</g>
</svg>