<?xml version="1.0" standalone="no"?>
<!DOCTYPE svg PUBLIC "-//W3C//DTD SVG 20010904//EN"
 "http://www.w3.org/TR/2001/REC-SVG-20010904/DTD/svg10.dtd">
<svg version="1.0" xmlns="http://www.w3.org/2000/svg"
 width="96.000000pt" height="68.000000pt" viewBox="0 0 96.000000 68.000000"
 preserveAspectRatio="xMidYMid meet">
<metadata>
Created by potrace 1.16, written by Peter Selinger 2001-2019
Combined from part_0.svg through part_5.svg with named groups
</metadata>
<g transform="translate(0.000000,68.000000) scale(0.100000,-0.100000)" fill="#000000" stroke="none">
<g id="part-0" class="char-part">
  <path d="M605 621 c-11 -5 -50 -12 -88 -15 -37 -4 -65 -12 -62 -17 4 -5 15 -9
26 -9 14 0 19 -7 19 -26 0 -21 -4 -25 -20 -21 -25 6 -26 -1 -2 -19 16 -13 15
-16 -10 -37 -16 -12 -28 -26 -28 -30 0 -8 37 12 58 31 9 8 26 10 49 6 28 -5
35 -4 31 7 -2 8 -14 18 -25 24 -18 7 -21 15 -16 40 3 16 6 31 7 32 1 0 17 3
36 5 l35 3 1 -54 c1 -44 6 -58 28 -78 29 -27 88 -40 131 -29 28 7 28 13 2 76
l-10 25 -9 -32 c-7 -26 -14 -33 -33 -33 -73 0 -102 45 -66 105 20 34 20 35 1
45 -22 12 -28 12 -55 1z"/>
  <path d="M293 583 c-51 -9 -93 -19 -93 -23 0 -11 48 -22 68 -16 27 9 44 -9 40
-40 -4 -33 -25 -41 -105 -43 -59 -1 -71 -18 -28 -41 21 -11 37 -9 118 14 51
14 100 26 108 26 8 0 24 7 35 16 18 14 15 15 -33 11 -52 -4 -53 -4 -47 22 10
48 13 51 43 51 16 0 32 4 36 9 6 10 -26 32 -42 30 -4 -1 -50 -8 -100 -16z"/>
  <path d="M510 436 c0 -30 -3 -32 -61 -40 -40 -6 -47 -4 -51 11 -3 11 -15 19
-31 21 -28 2 -36 -11 -15 -24 16 -10 -17 -22 -60 -23 -22 -1 -31 -5 -26 -12 4
-7 24 -9 51 -6 42 4 44 3 58 -28 10 -27 18 -32 34 -28 14 4 21 1 21 -10 0 -20
-22 -27 -89 -27 l-58 0 21 -45 21 -46 53 7 c47 6 52 5 52 -14 0 -24 -24 -31
-110 -33 -36 0 -87 -4 -115 -8 l-50 -7 40 -12 c28 -8 58 -9 100 -2 144 22 135
23 135 -14 0 -46 11 -96 21 -96 4 0 11 17 14 38 4 20 9 49 11 64 l6 28 141 0
c141 0 188 9 157 30 -23 15 -42 15 -207 2 -85 -7 -93 -6 -93 10 0 13 8 18 28
18 49 0 102 12 96 22 -3 5 4 20 16 33 22 23 22 23 2 34 -12 6 -45 11 -75 11
-37 0 -59 5 -67 16 -8 8 -9 14 -4 13 5 -1 22 -1 37 0 21 1 28 6 26 19 -3 37 2
41 71 48 39 3 70 10 70 15 0 14 -47 22 -84 15 -28 -5 -36 -3 -50 19 -21 32
-36 32 -36 1z m-10 -75 c0 -13 -10 -20 -31 -25 -53 -10 -69 -7 -69 13 0 23 13
29 63 30 30 1 37 -3 37 -18z m60 -116 c0 -22 -4 -25 -40 -25 -36 0 -40 3 -40
25 0 23 4 25 40 25 36 0 40 -2 40 -25z m-130 -9 c0 -19 -6 -24 -37 -29 -38 -7
-63 5 -63 29 0 13 23 20 73 23 22 1 27 -3 27 -23z"/>
</g>
<g id="part-1" class="char-part">
  <path d="M283 577 c-84 -11 -97 -27 -23 -27 l50 0 0 -39 c0 -45 -4 -48 -95
-57 -53 -6 -63 -9 -54 -20 16 -20 40 -18 167 13 111 27 153 50 67 37 l-45 -6
3 40 c2 38 4 40 40 46 20 4 37 11 37 16 0 12 -48 11 -147 -3z"/>
</g>
<g id="part-2" class="char-part">
  <path d="M598 620 c-14 -4 -54 -11 -87 -15 -38 -4 -59 -11 -55 -17 7 -11 94
-5 143 8 23 7 24 5 19 -32 -3 -21 -3 -50 1 -64 10 -36 66 -70 115 -70 60 0 67
7 53 58 -13 50 -23 53 -32 12 -7 -33 -33 -39 -80 -18 -43 20 -42 81 3 114 14
10 13 13 -6 23 -23 12 -36 13 -74 1z"/>
</g>
<g id="part-3" class="char-part">
  <path d="M507 430 c-5 -25 -11 -30 -34 -30 -16 0 -38 -3 -50 -6 -19 -5 -23 -2
-23 15 0 17 -6 21 -31 21 -25 0 -29 -3 -24 -19 6 -20 -16 -31 -63 -31 -13 0
-20 -4 -17 -10 3 -5 28 -10 54 -10 46 0 49 -1 55 -31 4 -20 11 -29 19 -26 8 3
44 8 80 12 65 7 67 8 67 35 0 25 4 28 46 34 26 3 60 6 75 6 16 0 29 4 29 9 0
14 -49 22 -94 16 -36 -6 -42 -4 -51 16 -15 34 -32 34 -38 -1z m-7 -69 c0 -18
-34 -31 -81 -31 -28 0 -25 38 4 43 55 11 77 7 77 -12z"/>
</g>
<g id="part-4" class="char-part">
  <path d="M424 293 c1 -15 -11 -19 -79 -24 -44 -3 -74 -6 -67 -7 7 -1 19 -19
28 -41 l15 -38 82 2 c113 3 208 16 201 27 -3 5 4 20 16 33 l22 23 -22 12 c-12
6 -46 10 -76 8 -36 -2 -55 1 -59 10 -2 6 -18 12 -34 12 -21 0 -28 -5 -27 -17z
m138 -29 c3 -3 4 -14 1 -25 -4 -15 -14 -19 -44 -19 -35 0 -39 3 -39 25 0 22 4
25 38 25 21 0 41 -3 44 -6z m-132 -28 c0 -19 -6 -24 -37 -30 -29 -4 -41 -2
-50 11 -19 25 -16 31 15 36 65 10 72 8 72 -17z"/>
</g>
<g id="part-5" class="char-part">
  <path d="M438 163 c6 -2 12 -9 12 -14 0 -6 -4 -8 -8 -5 -4 2 -14 1 -22 -5 -13
-7 -13 -9 1 -9 14 0 19 -21 22 -102 1 -10 4 -18 8 -18 8 0 19 53 19 95 0 19 6
36 13 38 7 3 5 6 -5 6 -10 1 -18 6 -18 11 0 6 -8 10 -17 9 -11 0 -13 -3 -5 -6z"/>
  <path d="M627 159 c-10 -6 -28 -8 -41 -5 -12 3 -35 2 -51 -3 l-30 -8 28 -5
c15 -3 27 -1 27 5 0 5 7 4 15 -3 8 -6 19 -8 26 -4 6 3 49 7 95 7 82 0 107 8
62 21 -36 9 -111 6 -131 -5z m40 -5 c-3 -3 -12 -4 -19 -1 -8 3 -5 6 6 6 11 1
17 -2 13 -5z"/>
  <path d="M310 130 c-25 -4 -59 -5 -76 -3 -18 2 -35 0 -39 -6 -7 -13 133 -7
180 8 27 8 28 9 5 9 -14 0 -45 -4 -70 -8z"/>
</g>
</g>
</svg>