<?xml version="1.0" standalone="no"?>
<!DOCTYPE svg PUBLIC "-//W3C//DTD SVG 20010904//EN"
 "http://www.w3.org/TR/2001/REC-SVG-20010904/DTD/svg10.dtd">
<svg version="1.0" xmlns="http://www.w3.org/2000/svg"
 width="96.000000pt" height="68.000000pt" viewBox="0 0 96.000000 68.000000"
 preserveAspectRatio="xMidYMid meet">
<metadata>
Created by potrace 1.16, written by Peter Selinger 2001-2019
Combined from part_0.svg through part_5.svg with named groups
</metadata>
<g transform="translate(0.000000,68.000000) scale(0.100000,-0.100000)" fill="#000000" stroke="none">
<g id="part-0" class="char-part">
  <path d="M535 610 c-7 -11 -121 -45 -185 -55 -84 -13 -80 -26 7 -22 86 4 93 0
93 -42 0 -16 -13 -19 -98 -24 -130 -9 -192 -18 -192 -28 0 -19 55 -20 159 -5
60 9 114 16 120 16 7 0 12 -71 13 -207 2 -147 6 -207 15 -210 18 -6 33 140 33
324 l0 101 147 1 c81 1 150 4 153 7 3 3 -4 12 -15 20 -15 11 -36 14 -82 9 -35
-3 -92 -8 -128 -11 l-65 -6 0 30 c0 17 -6 32 -12 35 -13 4 78 27 107 27 23 0
29 22 10 37 -22 15 -71 17 -80 3z"/>
  <path d="M569 403 c0 -5 -1 -46 0 -93 0 -109 11 -120 115 -120 84 0 116 7 116
26 0 20 -44 28 -81 15 -47 -16 -108 -14 -115 4 -14 35 6 60 71 89 36 16 65 35
65 42 0 23 -26 16 -75 -18 -24 -17 -48 -29 -51 -25 -3 3 -1 20 4 37 10 28 9
32 -14 40 -30 12 -34 12 -35 3z"/>
  <path d="M317 362 l5 -38 -52 -12 c-28 -7 -63 -12 -78 -12 -19 0 -23 -3 -15
-11 9 -9 29 -9 75 -2 35 6 66 9 71 6 4 -2 7 -17 7 -33 0 -34 -15 -41 -110 -49
l-65 -6 28 -19 c27 -18 29 -18 95 3 87 28 133 49 110 50 -15 1 -18 11 -18 71
0 58 -3 71 -19 80 -33 17 -39 12 -34 -28z"/>
</g>
<g id="part-1" class="char-part">
  <path d="M506 593 c-32 -13 -92 -31 -134 -39 -100 -19 -105 -27 -12 -19 86 8
248 39 258 50 8 8 -26 36 -42 34 -6 -1 -37 -12 -70 -26z"/>
</g>
<g id="part-2" class="char-part">
  <path d="M443 513 l2 -38 -125 -12 c-69 -6 -136 -12 -149 -12 -20 -1 -21 -3
-11 -16 14 -17 73 -19 135 -6 22 5 66 12 98 16 l57 6 0 -205 c0 -200 8 -250
30 -192 5 14 13 111 16 216 l7 190 149 0 c146 0 172 6 127 31 -16 8 -50 8
-133 0 -62 -6 -117 -11 -124 -11 -7 0 -12 13 -12 29 0 21 -6 30 -22 35 -43 11
-47 8 -45 -31z"/>
</g>
<g id="part-3" class="char-part">
  <path d="M317 393 c-2 -4 0 -41 6 -80 8 -61 13 -73 28 -73 17 0 19 9 19 75 0
41 -4 75 -9 75 -5 0 -16 3 -24 6 -8 3 -17 2 -20 -3z"/>
</g>
<g id="part-4" class="char-part">
  <path d="M569 403 c0 -4 0 -46 1 -93 1 -107 12 -120 105 -120 80 0 125 9 125
26 0 20 -34 26 -82 14 -25 -7 -60 -10 -79 -8 -30 3 -34 7 -37 35 -3 30 0 33
73 68 41 20 73 40 70 46 -11 16 -33 10 -79 -22 -53 -38 -72 -36 -51 5 9 16 12
33 8 37 -13 12 -53 21 -54 12z"/>
</g>
</g>
</svg>