<?xml version="1.0" standalone="no"?>
<!DOCTYPE svg PUBLIC "-//W3C//DTD SVG 20010904//EN"
 "http://www.w3.org/TR/2001/REC-SVG-20010904/DTD/svg10.dtd">
<svg version="1.0" xmlns="http://www.w3.org/2000/svg"
 width="96.000000pt" height="68.000000pt" viewBox="0 0 96.000000 68.000000"
 preserveAspectRatio="xMidYMid meet">
<metadata>
Created by potrace 1.16, written by Peter Selinger 2001-2019
Combined from part_0.svg through part_5.svg with named groups
</metadata>
<g transform="translate(0.000000,68.000000) scale(0.100000,-0.100000)" fill="#000000" stroke="none">
<g id="part-0" class="char-part">
  <path d="M452 595 c6 -13 22 -28 37 -33 19 -6 -9 -12 -109 -21 -161 -15 -180
-19 -159 -35 26 -19 30 -46 18 -135 -13 -100 -54 -214 -103 -286 -19 -27 -32
-54 -29 -58 8 -14 88 70 116 122 27 49 57 158 77 279 l12 72 39 0 c28 0 41 -5
49 -19 17 -32 12 -39 -32 -49 -24 -6 -33 -10 -21 -11 40 -2 38 -23 -6 -63 -24
-21 -40 -38 -36 -38 13 0 51 23 78 48 l27 26 -6 -48 c-6 -39 -4 -48 7 -44 8 3
15 21 17 42 3 31 6 36 20 31 9 -4 25 -10 34 -12 10 -3 15 -9 13 -14 -10 -16
53 12 71 32 26 29 36 23 32 -23 -2 -34 1 -43 15 -46 14 -3 17 4 17 44 l0 48
28 -26 c39 -37 65 -48 111 -48 55 0 60 17 9 29 -51 13 -130 53 -136 69 -2 8 9
12 31 12 42 0 67 8 67 22 0 7 -21 8 -56 3 -55 -7 -57 -6 -51 15 4 14 0 23 -11
27 -24 10 13 21 71 22 26 1 47 6 47 11 0 21 -55 32 -128 26 -64 -6 -73 -5 -79
11 -10 26 -34 42 -65 43 -26 0 -27 -2 -16 -25z m142 -97 c10 -39 7 -48 -16
-48 -13 0 -30 -5 -38 -10 -12 -8 -11 -10 8 -10 28 0 28 -4 -5 -40 l-26 -30
-22 20 c-12 11 -29 20 -38 20 -9 0 -17 7 -17 15 0 10 10 15 30 15 17 0 30 5
30 10 0 6 -13 10 -30 10 -24 0 -30 4 -30 21 0 13 -8 23 -22 27 -19 6 -16 8 17
13 22 3 65 7 96 8 51 1 57 -1 63 -21z"/>
  <path d="M488 251 c5 -67 1 -70 -103 -72 -33 0 -71 -4 -85 -9 -46 -14 5 -23
88 -16 44 4 73 3 67 -1 -19 -17 -84 -63 -88 -63 -2 0 -28 -14 -58 -31 -50 -28
-51 -30 -19 -23 37 7 103 37 160 72 l35 22 5 -63 c4 -46 9 -62 20 -62 12 0 16
15 18 68 2 38 7 67 13 67 6 0 35 -21 65 -46 59 -51 100 -64 169 -56 58 6 48
16 -35 37 -65 17 -180 71 -180 85 0 5 47 11 105 15 100 7 131 18 82 30 -12 3
-56 2 -97 -3 -118 -14 -115 -15 -112 44 2 46 0 52 -20 58 -13 3 -26 6 -29 6
-3 0 -3 -26 -1 -59z"/>
  <path d="M610 268 c-35 -38 -29 -44 25 -25 46 16 54 31 25 47 -17 9 -25 6 -50
-22z"/>
  <path d="M389 230 c24 -23 36 -29 44 -21 15 15 -9 38 -48 46 l-30 7 34 -32z"/>
</g>
<g id="part-1" class="char-part">
  <path d="M450 613 c0 -15 39 -53 55 -53 21 0 29 20 14 35 -17 17 -69 30 -69
18z"/>
  <path d="M450 544 c-107 -12 -203 -23 -213 -23 -17 -1 -17 -2 -3 -17 46 -46
-9 -295 -93 -420 -17 -25 -31 -47 -31 -50 0 -3 17 8 38 24 67 54 111 158 140
333 17 98 19 103 45 110 37 10 261 29 338 29 62 0 77 14 33 30 -30 12 -12 13
-254 -16z"/>
</g>
<g id="part-2" class="char-part">
  <path d="M585 503 c19 -46 18 -53 -6 -53 -13 0 -31 -5 -39 -10 -12 -8 -11 -10
8 -10 31 0 28 -7 -20 -52 -37 -34 -39 -38 -18 -33 14 4 34 15 45 25 42 36 47
35 43 -11 -2 -35 0 -44 15 -47 14 -3 17 4 17 43 l0 47 35 -30 c40 -36 86 -47
135 -35 l34 9 -49 13 c-56 16 -145 60 -145 73 0 4 12 8 28 8 39 0 72 11 72 23
0 6 -20 7 -56 3 -52 -6 -55 -5 -49 13 4 14 0 23 -14 30 -30 16 -44 14 -36 -6z"/>
</g>
<g id="part-3" class="char-part">
  <path d="M484 294 c3 -9 6 -31 6 -50 0 -27 4 -34 19 -34 25 0 41 77 20 91 -24
15 -52 11 -45 -7z"/>
  <path d="M600 260 l-31 -39 48 16 c63 21 73 31 49 49 -28 20 -31 19 -66 -26z"/>
  <path d="M377 235 c28 -38 63 -44 63 -11 0 14 -41 36 -66 36 -12 0 -12 -4 3
-25z"/>
</g>
<g id="part-4" class="char-part">
  <path d="M488 199 c-3 -10 -112 -26 -191 -28 -11 -1 -15 -6 -11 -12 4 -8 33
-9 92 -4 l86 7 -33 -28 c-18 -15 -65 -45 -105 -66 -39 -20 -63 -38 -54 -38 27
0 108 33 163 68 l50 31 5 -62 c4 -46 9 -62 20 -62 12 0 16 16 18 73 2 62 13
90 24 64 9 -22 127 -102 153 -103 52 -4 115 1 115 9 0 4 -38 17 -83 29 -70 18
-196 78 -185 88 4 4 125 14 183 15 47 1 49 2 30 16 -15 12 -33 14 -75 9 -153
-17 -160 -17 -160 -6 0 14 -37 14 -42 0z"/>
</g>
</g>
</svg>