<?xml version="1.0" standalone="no"?>
<!DOCTYPE svg PUBLIC "-//W3C//DTD SVG 20010904//EN"
 "http://www.w3.org/TR/2001/REC-SVG-20010904/DTD/svg10.dtd">
<svg version="1.0" xmlns="http://www.w3.org/2000/svg"
 width="96.000000pt" height="68.000000pt" viewBox="0 0 96.000000 68.000000"
 preserveAspectRatio="xMidYMid meet">
<metadata>
Created by potrace 1.16, written by Peter Selinger 2001-2019
Combined from part_0.svg through part_5.svg with named groups
</metadata>
<g transform="translate(0.000000,68.000000) scale(0.100000,-0.100000)" fill="#000000" stroke="none">
<g id="part-0" class="char-part">
  <path d="M225 569 c-4 -5 -3 -18 0 -29 8 -25 -12 -128 -31 -157 -12 -19 -24
-23 -64 -23 -28 0 -50 -4 -50 -8 0 -18 26 -32 62 -32 37 0 38 -1 27 -22 -10
-18 -8 -24 11 -40 13 -10 30 -23 39 -27 13 -8 13 -12 2 -25 -7 -9 -18 -13 -24
-9 -5 3 -7 1 -4 -4 4 -6 -12 -23 -36 -39 -30 -20 -37 -29 -25 -32 20 -4 74 22
106 51 l22 21 33 -32 c18 -18 36 -29 40 -26 14 14 7 48 -15 71 -21 23 -21 23
-3 85 10 35 25 68 32 75 19 15 0 53 -27 53 -34 0 -35 -1 -33 -21 2 -13 -3 -19
-17 -19 -25 0 -25 -1 4 90 13 41 22 78 20 81 -8 14 -64 28 -69 18z m50 -267
c-17 -56 -20 -59 -47 -38 -22 16 -23 35 -3 63 12 17 50 34 62 28 2 -1 -4 -25
-12 -53z"/>
  <path d="M446 548 c-10 -6 -33 -12 -50 -13 -20 -2 -30 -8 -27 -17 5 -18 3
-316 -3 -356 -6 -39 1 -62 19 -62 12 0 25 182 25 351 0 60 2 67 22 72 33 9 39
-1 21 -38 -15 -31 -15 -36 0 -59 24 -36 22 -66 -4 -66 -21 0 -21 -1 4 -20 33
-26 53 -25 62 3 6 19 8 17 22 -21 10 -28 20 -42 28 -38 8 3 30 8 49 12 31 5
36 10 36 35 0 16 5 29 10 29 17 0 11 38 -8 44 -9 3 -33 1 -52 -4 -61 -17 -97
-13 -119 16 -28 36 -27 41 15 81 22 20 34 39 30 48 -6 17 -53 19 -80 3z m172
-200 c-2 -27 -7 -33 -27 -33 -18 0 -26 7 -32 27 -8 29 0 36 39 37 20 1 23 -3
20 -31z"/>
  <path d="M675 514 c-49 -7 -103 -16 -120 -18 -16 -3 -37 -5 -45 -6 -8 -1 -2
-6 14 -10 17 -5 60 -4 107 3 43 6 82 8 86 3 10 -10 17 -285 9 -331 -7 -35 -8
-36 -44 -29 l-37 7 40 -36 c22 -20 43 -36 46 -37 3 0 14 9 23 19 15 16 17 43
16 211 0 106 -3 196 -6 201 -3 5 15 9 40 9 46 0 61 12 30 24 -21 8 -53 6 -159
-10z"/>
</g>
<g id="part-1" class="char-part">
  <path d="M227 503 c-3 -38 -11 -85 -17 -105 -11 -38 -11 -38 -65 -38 -30 0
-55 -4 -55 -10 0 -16 41 -32 70 -26 27 5 28 5 16 -26 -9 -25 -8 -32 2 -36 7
-2 25 -14 39 -26 l26 -22 -44 -34 c-63 -48 -65 -50 -47 -50 9 0 38 15 66 34
l49 35 22 -30 c22 -29 41 -34 48 -12 2 6 -8 24 -22 41 l-25 30 22 69 c12 37
26 70 30 71 12 6 10 19 -8 36 -21 22 -44 20 -44 -3 0 -19 -35 -39 -47 -28 -3
3 7 43 22 88 27 79 27 83 9 96 -33 24 -41 15 -47 -54z m60 -170 c-16 -79 -34
-96 -71 -68 -35 26 9 92 63 94 9 1 12 -7 8 -26z"/>
</g>
<g id="part-2" class="char-part">
  <path d="M433 546 c-33 -16 -28 -29 7 -21 35 8 36 5 14 -36 -8 -17 -13 -33
-11 -36 9 -8 99 86 92 97 -8 13 -73 11 -102 -4z"/>
</g>
<g id="part-3" class="char-part">
  <path d="M365 325 c1 -142 5 -219 12 -226 6 -6 13 -7 16 -2 3 5 9 103 13 217
7 213 6 225 -31 226 -6 0 -10 -78 -10 -215z"/>
</g>
<g id="part-4" class="char-part">
  <path d="M600 400 c-8 -5 -30 -10 -47 -10 -18 0 -33 -4 -33 -8 0 -9 31 -102
33 -102 1 1 25 7 52 15 28 7 47 14 43 14 -4 1 0 19 9 42 13 35 14 42 2 50 -18
11 -40 11 -59 -1z m18 -52 c-4 -44 -43 -53 -58 -13 -13 34 -6 45 31 45 28 0
30 -2 27 -32z"/>
</g>
</g>
</svg>