<?xml version="1.0" standalone="no"?>
<!DOCTYPE svg PUBLIC "-//W3C//DTD SVG 20010904//EN"
 "http://www.w3.org/TR/2001/REC-SVG-20010904/DTD/svg10.dtd">
<svg version="1.0" xmlns="http://www.w3.org/2000/svg"
 width="96.000000pt" height="68.000000pt" viewBox="0 0 96.000000 68.000000"
 preserveAspectRatio="xMidYMid meet">
<metadata>
Created by potrace 1.16, written by Peter Selinger 2001-2019
Combined from part_0.svg through part_5.svg with named groups
</metadata>
<g transform="translate(0.000000,68.000000) scale(0.100000,-0.100000)" fill="#000000" stroke="none">
<g id="part-0" class="char-part">
  <path d="M563 555 c-29 -19 -57 -35 -63 -35 -5 0 -10 -4 -10 -10 0 -12 -2 -12
38 -1 29 9 33 7 38 -13 3 -13 4 -40 2 -62 l-3 -39 -77 -9 c-95 -11 -106 -31
-13 -24 36 3 65 2 65 -3 0 -9 -91 -79 -128 -99 -13 -6 -21 -14 -19 -17 8 -7
96 34 134 63 l33 25 0 -40 c0 -34 3 -41 20 -41 17 0 20 7 20 50 0 28 2 50 5
50 3 0 49 -20 102 -45 89 -43 128 -52 128 -31 0 21 -58 49 -141 67 -128 29
-129 35 -1 45 57 5 86 11 84 18 -4 13 -72 14 -136 3 l-44 -8 7 60 c5 44 4 60
-6 63 -7 3 4 10 25 17 38 13 49 34 21 45 -24 9 -26 9 -81 -29z"/>
  <path d="M672 483 c-12 -19 -21 -37 -19 -39 4 -5 65 24 85 39 9 8 8 13 -5 23
-27 20 -36 17 -61 -23z"/>
  <path d="M315 495 c-5 -2 -49 -9 -97 -15 -99 -13 -117 -30 -33 -30 49 0 55 -2
61 -24 3 -13 4 -38 2 -57 -3 -31 -7 -34 -45 -42 -24 -4 -43 -12 -43 -18 0 -5
19 -8 43 -7 l42 3 3 -53 c2 -30 -2 -59 -8 -66 -5 -8 -37 -19 -70 -26 -63 -13
-72 -28 -27 -43 21 -7 44 1 132 44 98 48 134 73 71 49 -47 -18 -56 -13 -56 28
0 64 9 80 46 87 45 8 44 25 -2 25 l-35 0 3 52 3 53 48 9 c55 10 59 30 6 33
-19 1 -38 0 -44 -2z"/>
  <path d="M430 461 c0 -11 48 -51 61 -51 16 0 10 32 -8 46 -21 15 -53 18 -53 5z"/>
  <path d="M590 233 c-52 -7 -114 -11 -137 -8 -42 5 -52 -2 -33 -21 5 -5 15 -44
21 -87 7 -50 16 -77 24 -77 8 0 15 4 17 8 2 5 42 12 91 16 86 6 87 6 99 -19 6
-14 19 -25 29 -25 28 0 47 38 58 112 5 37 12 72 16 77 7 12 -47 42 -72 40 -10
-1 -61 -8 -113 -16z m118 -39 c3 -19 -3 -22 -45 -26 -26 -3 -48 -4 -49 -4 -1
1 -4 14 -8 29 l-7 28 53 -3 c45 -3 53 -6 56 -24z m-164 10 c9 -3 16 -17 16
-30 0 -22 -4 -24 -45 -24 -41 0 -45 2 -45 24 0 18 7 26 23 29 12 2 25 5 29 6
3 0 13 -2 22 -5z m166 -76 c0 -37 -12 -44 -62 -40 -42 4 -48 7 -48 27 0 25 14
31 78 34 27 1 32 -2 32 -21z m-148 -23 c-4 -21 -10 -25 -42 -25 -29 0 -39 5
-43 19 -7 27 0 31 48 31 40 0 42 -2 37 -25z"/>
</g>
<g id="part-1" class="char-part">
  <path d="M243 482 c-57 -9 -103 -19 -103 -24 0 -17 187 -4 250 18 13 4 13 6 0
14 -18 11 -16 11 -147 -8z"/>
</g>
<g id="part-2" class="char-part">
  <path d="M239 431 c15 -27 14 -91 -1 -96 -7 -2 -30 -6 -51 -10 -50 -8 -37 -27
17 -23 l41 3 3 -62 c2 -35 -1 -63 -5 -63 -4 0 -39 -9 -78 -19 l-70 -19 37 -18
38 -18 110 54 c60 30 108 56 106 58 -2 2 -23 -2 -46 -8 -23 -6 -44 -9 -47 -6
-2 2 -2 29 2 59 7 55 7 55 46 61 48 8 42 26 -7 26 l-35 0 3 48 3 47 -38 3
c-36 3 -38 2 -28 -17z"/>
</g>
<g id="part-3" class="char-part">
  <path d="M542 547 c-35 -23 -59 -43 -53 -45 14 -5 169 47 176 58 6 10 -27 30
-47 29 -7 0 -41 -19 -76 -42z"/>
</g>
<g id="part-4" class="char-part">
  <path d="M565 458 l0 -63 -85 -11 c-58 -7 -79 -13 -67 -19 10 -4 43 -5 73 -1
30 3 54 2 54 -3 0 -10 -92 -82 -128 -101 -13 -6 -22 -14 -19 -16 7 -8 74 22
123 55 l44 30 0 -39 c0 -41 16 -62 31 -39 5 8 9 33 9 57 0 23 5 42 10 42 6 0
51 -20 100 -45 95 -48 120 -54 120 -30 0 24 -40 43 -138 66 -50 11 -92 24 -92
29 0 10 62 20 127 20 55 0 78 14 42 25 -20 7 -75 2 -143 -12 l-29 -5 6 61 c6
58 6 61 -16 61 -20 0 -22 -4 -22 -62z"/>
</g>
<g id="part-5" class="char-part">
  <path d="M675 233 c-35 -12 -36 -13 -8 -8 23 3 35 0 41 -11 5 -9 13 -15 18
-14 5 1 10 -4 12 -12 2 -9 0 -8 -7 2 -9 13 -11 13 -15 0 -3 -8 -4 -33 -3 -55
3 -51 -9 -65 -45 -53 -15 6 -33 8 -40 5 -7 -3 -2 -6 10 -6 15 -1 26 -9 29 -21
4 -15 12 -19 32 -15 25 4 25 3 7 -10 -11 -8 -15 -15 -9 -15 13 0 53 52 53 70
0 6 -4 9 -8 6 -5 -3 -6 9 -4 27 4 27 6 29 13 12 6 -17 8 -15 8 10 1 17 4 40 7
52 5 17 0 25 -23 36 -24 12 -34 12 -68 0z"/>
  <path d="M426 203 c4 -15 11 -32 15 -38 5 -5 9 -23 9 -40 0 -69 5 -72 72 -63
71 9 73 11 73 46 1 20 7 28 25 32 l25 6 -25 8 c-14 5 -28 9 -32 10 -3 0 -10 5
-15 10 -4 5 -3 6 4 2 18 -10 25 11 8 28 -14 13 -12 15 17 19 28 4 27 4 -6 3
-38 -1 -39 -1 -40 -43 -1 -22 2 -39 7 -36 4 2 7 -2 7 -9 0 -7 3 -23 6 -35 6
-22 4 -23 -49 -23 -47 0 -57 3 -62 20 -3 11 -4 29 0 39 3 11 1 22 -5 26 -16
10 6 43 32 48 13 2 10 3 -7 2 -16 -2 -38 2 -48 7 -15 8 -17 6 -11 -19z"/>
</g>
</g>
</svg>