<?xml version="1.0" standalone="no"?>
<!DOCTYPE svg PUBLIC "-//W3C//DTD SVG 20010904//EN"
 "http://www.w3.org/TR/2001/REC-SVG-20010904/DTD/svg10.dtd">
<svg version="1.0" xmlns="http://www.w3.org/2000/svg"
 width="96.000000pt" height="68.000000pt" viewBox="0 0 96.000000 68.000000"
 preserveAspectRatio="xMidYMid meet">
<metadata>
Created by potrace 1.16, written by Peter Selinger 2001-2019
Combined from part_0.svg through part_5.svg with named groups
</metadata>
<g transform="translate(0.000000,68.000000) scale(0.100000,-0.100000)" fill="#000000" stroke="none">
<g id="part-0" class="char-part">
  <path d="M264 578 c9 -28 25 -211 20 -219 -2 -4 -34 -10 -71 -14 -36 -4 -76
-11 -87 -15 -19 -7 -20 -9 -3 -15 18 -7 58 -4 126 11 l34 7 -9 -94 c-16 -172
-8 -221 30 -184 13 14 16 40 16 149 l0 133 50 7 c58 8 68 28 13 26 -21 -1 -43
-2 -48 -1 -7 1 -8 33 -3 99 8 92 7 98 -13 115 -12 9 -30 17 -41 17 -16 0 -19
-4 -14 -22z"/>
  <path d="M527 527 c-10 -39 -29 -96 -42 -124 -26 -59 -19 -69 17 -24 17 22 33
30 63 32 l40 4 -2 -65 c0 -36 -6 -78 -12 -94 l-11 -28 -40 36 c-42 38 -55 43
-65 26 -3 -5 -1 -10 5 -10 7 0 27 -16 47 -36 l35 -36 -29 -30 c-28 -30 -87
-64 -133 -79 -24 -7 -23 -7 7 -8 38 -1 136 34 153 54 20 24 37 18 87 -36 l48
-51 68 5 c98 7 104 21 22 46 -37 12 -90 33 -117 48 -55 30 -54 18 -18 150 22
79 22 84 6 102 -17 18 -15 19 44 26 39 5 60 11 57 19 -6 18 -47 17 -127 -2
-89 -22 -93 -18 -55 61 28 59 25 87 -9 87 -18 0 -24 -11 -39 -73z"/>
  <path d="M385 464 c-21 -25 -35 -47 -32 -50 9 -9 117 45 117 59 0 8 -11 19
-24 25 -22 10 -28 7 -61 -34z"/>
  <path d="M160 462 c0 -4 13 -23 29 -42 25 -30 31 -33 45 -21 21 18 20 27 -4
51 -19 19 -70 28 -70 12z"/>
  <path d="M373 253 c27 -43 57 -56 57 -24 0 21 -43 61 -66 61 -10 0 -8 -10 9
-37z"/>
  <path d="M200 268 c0 -7 -25 -41 -56 -75 -31 -35 -51 -63 -45 -63 37 0 160
118 146 140 -9 14 -45 12 -45 -2z"/>
</g>
<g id="part-1" class="char-part">
  <path d="M275 558 c4 -17 10 -62 14 -99 8 -90 26 -79 40 25 10 71 9 80 -6 92
-10 7 -26 14 -36 14 -16 0 -17 -5 -12 -32z"/>
  <path d="M387 460 c-14 -22 -24 -40 -22 -40 13 0 95 41 95 48 0 12 -22 32 -35
32 -6 0 -23 -18 -38 -40z"/>
  <path d="M178 439 c24 -39 62 -52 62 -21 0 24 -16 38 -55 48 l-29 7 22 -34z"/>
</g>
<g id="part-2" class="char-part">
  <path d="M293 380 c-6 -23 -17 -27 -98 -35 -78 -9 -97 -14 -89 -27 7 -11 104
-5 153 8 l24 7 -9 -99 c-11 -134 -10 -172 5 -186 10 -11 15 -9 27 6 10 15 14
53 14 152 l0 133 55 6 c66 9 63 25 -6 25 -37 0 -49 4 -49 15 0 22 -21 18 -27
-5z"/>
  <path d="M356 278 c39 -68 74 -89 74 -45 0 14 -10 29 -29 40 -34 20 -55 22
-45 5z"/>
  <path d="M180 239 c-14 -23 -42 -56 -63 -75 -45 -41 -27 -44 34 -6 49 31 104
96 94 112 -13 21 -41 8 -65 -31z"/>
</g>
<g id="part-3" class="char-part">
  <path d="M546 598 c-2 -7 -11 -41 -20 -75 -10 -35 -28 -87 -41 -118 -27 -60
-20 -71 17 -27 21 26 35 30 138 47 63 10 119 21 124 26 22 19 -51 20 -132 1
-48 -11 -88 -19 -89 -18 -1 1 11 31 28 66 32 68 32 82 -1 100 -15 8 -21 8 -24
-2z"/>
</g>
<g id="part-4" class="char-part">
  <path d="M607 353 c-3 -38 -10 -81 -16 -97 l-11 -28 -40 36 c-38 34 -70 47
-70 28 0 -5 11 -14 24 -21 13 -7 33 -26 45 -42 l21 -28 -27 -26 c-30 -28 -91
-63 -133 -76 -24 -7 -23 -7 7 -8 38 -1 127 31 162 58 l25 19 50 -55 50 -55 69
5 c92 6 101 19 30 41 -57 18 -146 59 -170 78 -9 7 -7 21 7 56 31 83 44 151 30
167 -7 8 -20 15 -30 15 -14 0 -18 -12 -23 -67z"/>
</g>
</g>
</svg>