<?xml version="1.0" standalone="no"?>
<!DOCTYPE svg PUBLIC "-//W3C//DTD SVG 20010904//EN"
 "http://www.w3.org/TR/2001/REC-SVG-20010904/DTD/svg10.dtd">
<svg version="1.0" xmlns="http://www.w3.org/2000/svg"
 width="96.000000pt" height="68.000000pt" viewBox="0 0 96.000000 68.000000"
 preserveAspectRatio="xMidYMid meet">
<metadata>
Created by potrace 1.16, written by Peter Selinger 2001-2019
Combined from part_0.svg through part_5.svg with named groups
</metadata>
<g transform="translate(0.000000,68.000000) scale(0.100000,-0.100000)" fill="#000000" stroke="none">
<g id="part-0" class="char-part">
  <path d="M254 573 c-18 -58 -53 -119 -86 -151 -39 -38 -49 -76 -24 -85 7 -3
33 1 56 9 23 8 45 12 48 10 3 -3 -16 -26 -42 -51 -68 -65 -45 -85 51 -44 32
13 58 18 80 14 17 -3 34 -2 37 3 8 13 -15 39 -41 47 -18 5 -22 3 -17 -9 6 -15
-5 -22 -63 -40 -34 -11 -28 3 22 58 25 26 42 53 38 59 -3 5 -1 7 4 4 15 -9 45
28 41 50 -2 10 -11 18 -21 18 -9 0 -16 -2 -15 -5 2 -3 -7 -20 -20 -37 -20 -28
-30 -33 -64 -33 l-40 0 51 63 c67 81 78 102 61 122 -17 20 -49 19 -56 -2z"/>
  <path d="M554 522 c-77 -70 -80 -72 -120 -72 -31 0 -35 -3 -29 -17 15 -35 17
-167 5 -235 -17 -99 4 -111 84 -50 20 15 46 35 58 44 22 16 20 17 -30 2 -29
-8 -58 -14 -65 -11 -7 2 -10 25 -8 63 1 32 3 60 4 61 1 0 31 4 67 8 l65 6 29
-65 c39 -89 140 -196 185 -196 30 0 44 21 22 35 -5 3 -13 31 -17 63 l-7 57
-14 -39 c-7 -22 -15 -42 -18 -45 -3 -2 -21 11 -41 30 -43 41 -110 157 -98 169
5 4 28 12 52 17 24 4 43 13 42 18 0 12 -77 13 -101 1 -14 -6 -18 1 -24 42 -5
40 -11 51 -28 57 -19 5 -15 9 31 33 53 27 61 39 40 60 -19 19 -30 15 -84 -36z
m-8 -107 c20 -50 18 -62 -17 -74 -51 -18 -69 -14 -69 13 0 46 12 85 29 89 35
10 43 6 57 -28z"/>
  <path d="M315 230 c-6 -10 29 -50 45 -50 6 0 10 8 10 18 0 21 -46 47 -55 32z"/>
  <path d="M230 195 c0 -18 40 -56 52 -49 15 9 8 33 -14 48 -28 20 -38 20 -38 1z"/>
  <path d="M120 173 c0 -4 10 -22 23 -40 14 -22 29 -32 41 -31 30 5 30 25 0 53
-25 23 -64 34 -64 18z"/>
</g>
<g id="part-1" class="char-part">
  <path d="M260 577 c0 -29 -63 -137 -96 -167 -26 -22 -34 -36 -29 -50 8 -24 12
-24 81 -4 64 18 71 34 12 27 -49 -7 -49 -9 35 95 57 71 59 74 42 93 -21 22
-45 25 -45 6z"/>
</g>
<g id="part-2" class="char-part">
  <path d="M310 235 c0 -15 34 -55 46 -55 24 0 15 36 -11 48 -29 13 -35 14 -35
7z"/>
  <path d="M220 203 c0 -18 48 -66 58 -59 19 11 14 33 -10 50 -24 17 -48 21 -48
9z"/>
  <path d="M136 140 c29 -43 74 -57 74 -22 0 33 -38 62 -79 62 -21 0 -20 -1 5
-40z"/>
</g>
<g id="part-3" class="char-part">
  <path d="M579 544 c-13 -14 -46 -42 -73 -62 -69 -51 -39 -52 60 -2 83 42 95
55 72 78 -18 18 -32 15 -59 -14z"/>
</g>
<g id="part-4" class="char-part">
  <path d="M407 428 c9 -25 10 -181 3 -263 -7 -68 13 -69 95 -9 36 26 65 49 65
50 0 2 -23 -4 -51 -12 -28 -8 -56 -14 -62 -12 -10 2 -10 31 -1 128 12 133 10
140 -34 140 -20 0 -22 -3 -15 -22z"/>
</g>
<g id="part-5" class="char-part">
  <path d="M567 443 c6 -16 5 -16 -10 -4 -9 7 -17 11 -17 8 0 -16 35 -77 43 -77
6 0 -2 -11 -17 -25 -15 -14 -23 -25 -17 -25 5 0 13 5 17 11 6 11 41 -32 44
-56 1 -5 11 -27 21 -47 14 -28 23 -36 37 -31 14 6 15 4 5 -8 -10 -12 -8 -18 8
-32 11 -10 25 -14 32 -10 7 4 7 0 -2 -10 -12 -15 -11 -17 3 -17 10 0 15 -4 12
-9 -3 -5 2 -12 12 -15 9 -3 28 -13 42 -21 14 -8 28 -11 33 -6 11 11 -3 42 -17
34 -8 -5 -8 -3 0 8 6 8 8 28 4 44 -6 28 -7 29 -14 8 -4 -13 -5 -27 -1 -32 3
-6 -4 -8 -15 -6 -21 4 -89 58 -91 72 -3 17 -37 52 -44 45 -5 -4 -5 1 -2 11 4
11 0 29 -11 45 -32 47 -38 59 -21 46 11 -9 25 -8 59 7 30 12 38 18 23 18 -12
1 -33 -3 -46 -8 -20 -8 -29 -6 -41 8 -9 10 -13 20 -10 24 8 8 -6 67 -16 67 -5
0 -6 -8 -3 -17z"/>
</g>
</g>
</svg>