<?xml version="1.0" standalone="no"?>
<!DOCTYPE svg PUBLIC "-//W3C//DTD SVG 20010904//EN"
 "http://www.w3.org/TR/2001/REC-SVG-20010904/DTD/svg10.dtd">
<svg version="1.0" xmlns="http://www.w3.org/2000/svg"
 width="96.000000pt" height="68.000000pt" viewBox="0 0 96.000000 68.000000"
 preserveAspectRatio="xMidYMid meet">
<metadata>
Created by potrace 1.16, written by Peter Selinger 2001-2019
Combined from part_0.svg through part_5.svg with named groups
</metadata>
<g transform="translate(0.000000,68.000000) scale(0.100000,-0.100000)" fill="#000000" stroke="none">
<g id="part-0" class="char-part">
  <path d="M600 556 c-19 -13 -59 -36 -88 -51 -61 -32 -61 -45 -1 -25 34 12 42
12 49 0 16 -26 -2 -38 -63 -45 -34 -4 -71 -11 -82 -15 -17 -6 -16 -8 13 -14
29 -7 65 -3 115 10 13 4 17 -1 17 -24 0 -25 -5 -30 -30 -35 -16 -4 -53 -4 -81
-1 l-52 6 22 -27 c11 -15 21 -35 22 -44 0 -9 5 -32 12 -51 12 -33 13 -34 60
-31 45 2 47 1 47 -23 0 -24 -3 -26 -44 -26 -25 0 -48 -4 -51 -10 -4 -6 13 -10
44 -10 50 0 51 -1 51 -30 0 -29 -1 -30 -52 -31 -29 0 -71 -4 -93 -8 -66 -13
-15 -25 68 -16 109 11 123 12 252 13 95 2 116 4 106 15 -9 8 -44 11 -122 9
l-109 -2 0 24 c0 27 21 36 88 36 23 0 42 5 42 10 0 6 -28 10 -65 10 -63 0 -65
1 -65 26 0 25 2 25 57 23 53 -3 59 -1 70 22 34 65 52 113 47 120 -7 12 -79 30
-95 25 -8 -2 -26 -7 -41 -10 -26 -6 -28 -4 -28 24 0 27 3 30 34 30 18 0 61 3
96 7 56 5 61 8 45 20 -21 15 -73 17 -128 4 -35 -8 -39 -7 -47 14 -5 13 -17 25
-27 27 -11 3 5 12 40 22 56 17 73 38 41 50 -26 10 -38 7 -74 -18z m118 -222
c3 -20 -2 -22 -47 -25 -47 -4 -51 -2 -51 18 0 26 14 33 60 30 27 -2 36 -7 38
-23z m-158 -19 c0 -23 -4 -25 -45 -25 -41 0 -45 2 -45 25 0 23 4 25 45 25 41
0 45 -2 45 -25z m150 -32 c-1 -20 -18 -31 -55 -34 -31 -3 -40 0 -43 13 -2 9 5
18 15 21 30 8 83 7 83 0z m-152 -32 c3 -20 0 -22 -35 -19 -48 4 -60 34 -16 41
41 6 48 3 51 -22z"/>
  <path d="M336 561 c-8 -12 -135 -86 -171 -99 l-30 -10 35 -1 c19 -1 50 3 67 8
20 6 35 6 39 0 7 -12 9 -68 2 -74 -3 -3 -42 -11 -86 -17 -84 -12 -101 -23 -57
-34 24 -6 49 -3 109 12 48 12 30 -23 -57 -111 -46 -47 -80 -85 -75 -85 22 0
88 42 127 82 l43 43 -6 -65 c-3 -36 -9 -88 -12 -115 -5 -40 -3 -54 10 -64 9
-8 19 -11 23 -7 11 10 21 104 23 196 l1 85 27 -33 c31 -36 52 -42 52 -12 0 13
-14 27 -41 40 -31 16 -40 26 -37 43 2 17 11 23 41 27 51 7 52 24 1 28 -39 3
-40 4 -36 33 2 16 -1 36 -8 44 -10 12 -4 16 34 26 60 15 74 32 44 53 -25 18
-54 21 -62 7z"/>
</g>
<g id="part-1" class="char-part">
  <path d="M306 533 c-27 -19 -72 -46 -100 -59 -63 -28 -32 -31 44 -3 30 11 76
26 102 35 26 8 50 19 53 24 5 8 -31 40 -45 40 -3 0 -27 -17 -54 -37z"/>
</g>
<g id="part-2" class="char-part">
  <path d="M284 484 c-7 -3 -9 -23 -6 -53 l4 -49 -86 -12 c-48 -8 -89 -17 -92
-21 -10 -16 51 -22 105 -11 30 7 57 10 59 7 9 -9 -32 -61 -104 -133 -41 -39
-71 -72 -68 -72 21 0 131 70 156 99 l30 36 -6 -65 c-3 -36 -8 -85 -11 -110 -7
-45 14 -95 31 -78 12 13 23 98 24 193 l0 90 26 -32 c30 -39 57 -44 52 -10 -2
14 -17 29 -41 41 -29 14 -37 23 -35 40 2 17 11 22 46 24 54 4 52 27 -2 27 -37
0 -38 1 -33 32 4 22 0 36 -12 47 -18 17 -20 17 -37 10z"/>
</g>
<g id="part-3" class="char-part">
  <path d="M609 565 c-8 -9 -49 -33 -90 -55 -89 -48 -64 -54 44 -12 40 16 84 32
100 36 45 11 29 46 -22 46 -9 0 -24 -7 -32 -15z"/>
</g>
<g id="part-4" class="char-part">
  <path d="M560 471 c0 -28 -3 -29 -52 -36 -97 -11 -113 -16 -95 -27 10 -5 45
-6 79 -2 74 8 74 8 71 -17 -2 -15 3 -19 27 -19 26 0 30 3 30 29 l0 29 97 7
c89 7 96 8 78 22 -20 15 -87 13 -142 -3 -18 -5 -25 -1 -33 20 -7 19 -17 26
-35 26 -21 0 -25 -5 -25 -29z"/>
</g>
<g id="part-5" class="char-part">
  <path d="M585 202 c-6 -4 -11 -25 -12 -47 -1 -22 -2 -48 -2 -57 -1 -13 -13
-18 -53 -21 -42 -3 -38 -4 19 -4 l72 0 -3 41 -2 42 55 -3 c41 -3 52 -1 41 7
-8 6 -28 10 -45 9 -48 -2 -55 0 -49 15 6 16 -8 28 -21 18z"/>
  <path d="M515 150 c-4 -6 5 -10 20 -10 15 0 24 4 20 10 -3 6 -12 10 -20 10 -8
0 -17 -4 -20 -10z"/>
  <path d="M710 89 c-25 -5 -55 -7 -67 -4 -13 3 -23 1 -23 -4 0 -5 50 -8 110 -8
92 1 108 4 94 14 -13 9 -20 10 -25 2 -5 -8 -8 -8 -13 0 -8 12 -13 12 -76 0z"/>
  <path d="M405 60 c24 -10 71 -13 62 -3 -4 3 -24 8 -45 9 -28 2 -32 1 -17 -6z"/>
</g>
</g>
</svg>