<?xml version="1.0" standalone="no"?>
<!DOCTYPE svg PUBLIC "-//W3C//DTD SVG 20010904//EN"
 "http://www.w3.org/TR/2001/REC-SVG-20010904/DTD/svg10.dtd">
<svg version="1.0" xmlns="http://www.w3.org/2000/svg"
 width="96.000000pt" height="68.000000pt" viewBox="0 0 96.000000 68.000000"
 preserveAspectRatio="xMidYMid meet">
<metadata>
Created by potrace 1.16, written by Peter Selinger 2001-2019
Combined from part_0.svg through part_5.svg with named groups
</metadata>
<g transform="translate(0.000000,68.000000) scale(0.100000,-0.100000)" fill="#000000" stroke="none">
<g id="part-0" class="char-part">
  <path d="M550 572 c-8 -10 -33 -31 -55 -46 l-40 -28 33 6 c37 6 116 55 116 71
1 18 -39 16 -54 -3z"/>
  <path d="M260 573 l-65 -4 3 -104 4 -105 -31 0 c-34 0 -42 -15 -13 -22 10 -3
41 -2 70 2 29 3 54 4 57 2 3 -3 5 -36 5 -74 0 -53 3 -68 15 -68 19 0 28 37 23
100 l-3 50 68 0 c69 0 90 13 37 25 l-30 7 7 71 c11 132 14 122 -37 123 -25 0
-74 -1 -110 -3z m100 -36 c0 -9 -13 -14 -36 -15 -20 -1 -45 -4 -55 -7 -22 -7
-27 20 -6 28 28 12 97 7 97 -6z m0 -50 c0 -8 -18 -13 -55 -15 -30 -1 -55 2
-55 7 0 9 17 12 93 19 9 1 17 -4 17 -11z m0 -52 c0 -12 -13 -15 -60 -15 -55 0
-70 6 -53 23 3 4 30 7 60 7 40 0 53 -4 53 -15z m0 -45 c0 -16 -7 -20 -37 -20
-21 0 -48 -3 -60 -6 -19 -5 -23 -2 -23 14 0 17 7 22 43 25 23 2 50 4 60 5 11
1 17 -5 17 -18z"/>
  <path d="M586 515 c-16 -20 -44 -42 -63 -50 -20 -9 -33 -20 -30 -27 4 -14 23
-15 77 -4 34 7 34 7 -16 -26 -27 -18 -51 -37 -52 -43 -1 -5 20 -10 46 -10 l47
0 1 -65 c2 -89 2 -90 19 -90 12 0 15 15 15 78 0 42 4 82 8 88 12 18 51 23 66
8 18 -18 36 -18 36 -1 0 16 -32 47 -47 47 -6 0 -13 -5 -15 -12 -2 -6 -31 -13
-64 -15 l-59 -5 71 35 c80 39 90 49 69 67 -13 11 -19 9 -35 -8 -19 -20 -104
-41 -116 -29 -4 3 22 20 56 37 60 30 73 52 34 58 -12 1 -30 -12 -48 -33z"/>
  <path d="M510 307 c0 -8 -10 -26 -21 -41 -12 -15 -19 -29 -17 -31 8 -8 89 57
85 69 -6 17 -47 20 -47 3z"/>
  <path d="M680 313 c0 -13 53 -63 67 -63 7 0 13 9 13 21 0 13 -11 25 -35 35
-39 16 -45 17 -45 7z"/>
  <path d="M196 282 c-9 -17 -21 -32 -28 -35 -7 -2 -10 -8 -5 -12 8 -10 81 46
79 60 -2 23 -32 14 -46 -13z"/>
  <path d="M399 278 c24 -26 33 -30 42 -21 17 17 -16 53 -48 53 l-24 0 30 -32z"/>
  <path d="M441 183 c51 -68 79 -81 79 -38 0 25 -41 55 -76 55 -14 0 -15 -3 -3
-17z"/>
  <path d="M681 183 c0 -15 82 -74 97 -71 26 5 24 25 -5 46 -30 21 -93 39 -92
25z"/>
  <path d="M310 161 c0 -5 15 -29 33 -53 59 -77 192 -108 327 -77 75 17 78 28
18 65 -64 40 -74 42 -52 9 9 -14 13 -29 9 -33 -3 -4 -52 -7 -108 -7 -117 0
-152 13 -187 70 -21 33 -40 46 -40 26z"/>
  <path d="M202 113 c-38 -48 -42 -76 -11 -71 35 5 63 50 52 83 l-9 28 -32 -40z"/>
</g>
<g id="part-1" class="char-part">
  <path d="M305 568 c-22 -5 -54 -8 -70 -6 l-31 3 4 -100 c2 -55 6 -102 9 -105
9 -9 23 26 23 58 0 31 1 32 44 32 24 0 51 3 60 6 13 5 16 -2 16 -39 0 -40 2
-45 20 -40 16 4 20 14 20 47 1 22 5 61 10 86 13 67 -11 81 -105 58z m55 -27
c0 -15 -10 -20 -56 -26 -61 -7 -67 -5 -58 18 5 14 19 18 97 25 11 1 17 -5 17
-17z m0 -55 c0 -9 -19 -15 -56 -20 -62 -7 -69 -5 -61 19 8 20 117 22 117 1z"/>
</g>
<g id="part-2" class="char-part">
  <path d="M597 293 c1 -43 2 -81 2 -85 1 -5 8 -8 16 -8 12 0 15 16 15 85 0 74
-2 85 -17 85 -16 0 -18 -10 -16 -77z"/>
  <path d="M510 307 c0 -8 -10 -26 -21 -41 -12 -15 -19 -29 -17 -31 8 -8 89 57
85 69 -6 17 -47 20 -47 3z"/>
  <path d="M700 285 c38 -40 60 -45 60 -14 0 13 -11 25 -35 35 -54 22 -62 17
-25 -21z"/>
</g>
<g id="part-3" class="char-part">
  <path d="M438 184 c18 -33 60 -67 76 -61 9 4 16 11 16 16 0 20 -37 51 -69 57
-30 6 -32 5 -23 -12z"/>
  <path d="M710 152 c43 -40 79 -50 87 -26 6 18 -52 54 -94 61 l-38 6 45 -41z"/>
  <path d="M310 163 c0 -15 42 -76 63 -94 34 -29 114 -49 191 -49 78 0 168 20
173 37 4 10 -56 48 -110 72 -5 2 -1 -9 8 -23 10 -15 15 -30 11 -34 -14 -13
-157 -14 -202 -2 -33 10 -56 25 -82 57 -34 40 -52 53 -52 36z"/>
  <path d="M198 111 c-30 -41 -35 -66 -17 -76 11 -8 45 19 61 48 10 19 3 67 -10
67 -4 0 -19 -18 -34 -39z"/>
</g>
</g>
</svg>