<?xml version="1.0" standalone="no"?>
<!DOCTYPE svg PUBLIC "-//W3C//DTD SVG 20010904//EN"
 "http://www.w3.org/TR/2001/REC-SVG-20010904/DTD/svg10.dtd">
<svg version="1.0" xmlns="http://www.w3.org/2000/svg"
 width="96.000000pt" height="68.000000pt" viewBox="0 0 96.000000 68.000000"
 preserveAspectRatio="xMidYMid meet">
<metadata>
Created by potrace 1.16, written by Peter Selinger 2001-2019
Combined from part_0.svg through part_5.svg with named groups
</metadata>
<g transform="translate(0.000000,68.000000) scale(0.100000,-0.100000)" fill="#000000" stroke="none">
<g id="part-0" class="char-part">
  <path d="M490 607 c0 -7 -21 -47 -46 -89 -44 -74 -46 -77 -72 -67 -15 6 -42 7
-60 4 l-34 -6 3 68 4 68 -37 9 c-21 5 -40 7 -42 5 -3 -3 0 -34 6 -70 16 -93
10 -103 -57 -95 -56 6 -75 -3 -50 -24 8 -6 21 -36 30 -66 15 -52 27 -65 40
-44 3 6 15 10 26 10 16 0 19 -7 19 -50 0 -28 -3 -49 -7 -48 -14 3 -123 -25
-123 -32 0 -4 10 -12 23 -17 19 -9 40 -4 118 28 107 44 105 44 125 24 19 -19
30 -19 38 0 9 24 -2 41 -39 61 -37 19 -56 14 -36 -10 10 -12 7 -17 -16 -29
l-28 -15 3 49 c4 53 7 55 91 51 29 -2 122 40 168 75 l34 26 60 -41 c54 -38 66
-42 117 -41 31 1 68 4 82 8 29 9 29 9 -83 36 -37 9 -88 26 -113 39 l-45 23 41
42 c24 24 39 49 36 57 -8 20 -51 28 -87 15 -18 -6 -41 -11 -52 -11 -20 0 -20
0 1 23 17 18 19 26 10 35 -16 16 -48 15 -48 -1z m104 -76 c8 -12 -32 -61 -49
-61 -8 0 -26 5 -40 12 -40 18 -28 42 25 49 25 3 48 7 52 7 4 1 9 -2 12 -7z
m-94 -66 c17 -9 30 -19 30 -23 0 -9 -66 -62 -113 -91 -48 -29 -66 -18 -47 28
7 17 16 31 21 31 5 0 9 5 9 12 0 17 41 58 57 58 8 0 27 -7 43 -15z m-180 -70
c0 -14 -8 -29 -20 -35 -18 -10 -20 -8 -20 25 0 28 4 35 20 35 15 0 20 -7 20
-25z m-100 -21 c0 -26 -4 -34 -18 -34 -20 0 -47 57 -30 62 37 13 48 6 48 -28z"/>
  <path d="M528 340 c4 -30 4 -30 -42 -30 -27 0 -46 -5 -46 -11 0 -7 17 -10 45
-7 41 3 45 1 45 -19 0 -21 -5 -23 -45 -23 -25 0 -45 -4 -45 -10 0 -5 20 -10
45 -10 37 0 45 -3 45 -19 0 -23 -19 -31 -73 -31 -58 0 -93 -10 -75 -21 17 -11
75 -11 116 0 29 9 32 8 33 -12 3 -155 28 -189 38 -54 l6 72 113 3 c103 2 111
4 97 19 -13 13 -33 15 -111 11 -52 -3 -97 -2 -99 2 -12 20 10 40 51 46 60 9
56 24 -7 24 -65 0 -62 21 4 34 57 11 61 26 7 26 -29 0 -42 5 -50 20 -6 11 -21
20 -34 20 -19 0 -22 -4 -18 -30z"/>
</g>
<g id="part-1" class="char-part">
  <path d="M205 583 c4 -10 10 -48 12 -85 l6 -68 -62 0 c-61 0 -61 0 -47 -22 8
-13 20 -43 26 -66 12 -45 15 -47 61 -28 18 8 29 -17 29 -68 0 -21 4 -27 16
-22 9 3 18 6 20 6 2 0 4 20 4 44 0 48 9 56 62 56 19 0 28 4 25 13 -2 6 4 29
15 50 10 21 16 43 12 48 -4 7 -28 9 -61 7 l-55 -5 5 46 c3 25 9 56 12 68 7 22
5 23 -59 38 -25 5 -28 4 -21 -12z m113 -199 c-2 -21 -9 -30 -25 -32 -20 -3
-23 1 -23 32 0 25 5 36 18 39 25 5 34 -6 30 -39z m-98 -9 c0 -31 -3 -35 -25
-35 -14 0 -25 6 -25 13 0 6 -3 22 -6 35 -6 19 -3 22 25 22 29 0 31 -2 31 -35z"/>
</g>
<g id="part-2" class="char-part">
  <path d="M310 286 c0 -14 43 -75 57 -80 45 -18 39 45 -7 69 -29 15 -50 19 -50
11z"/>
</g>
<g id="part-3" class="char-part">
  <path d="M486 598 c-3 -13 -23 -51 -46 -85 -22 -34 -40 -65 -40 -68 0 -15 67
47 106 98 47 61 48 77 9 77 -15 0 -25 -7 -29 -22z"/>
</g>
<g id="part-4" class="char-part">
  <path d="M553 556 c-60 -16 -66 -30 -10 -24 39 5 47 3 47 -11 -1 -9 -9 -26
-20 -39 -18 -22 -21 -22 -49 -8 -17 9 -38 16 -48 16 -11 -1 -4 -8 20 -21 20
-11 37 -23 37 -28 0 -11 -72 -68 -123 -97 -23 -13 -37 -24 -30 -24 21 0 121
48 158 76 l35 26 63 -41 c56 -36 70 -41 118 -40 30 1 65 4 79 8 20 6 9 11 -60
29 -47 11 -106 30 -133 42 l-47 21 31 39 c17 21 39 42 48 45 14 6 13 9 -8 26
-26 21 -45 22 -108 5z"/>
</g>
<g id="part-5" class="char-part">
  <path d="M540 215 c-7 -8 -9 -22 -6 -31 5 -14 -1 -15 -49 -10 -32 3 -57 1 -60
-5 -4 -5 -16 -7 -28 -4 -17 5 -19 4 -7 -4 9 -6 44 -8 88 -4 53 4 72 3 72 -6 0
-7 -4 -10 -8 -7 -5 3 -5 -17 -1 -45 4 -27 6 -58 3 -67 -3 -9 2 -4 11 12 11 19
16 45 13 77 -3 43 -1 49 17 50 11 0 29 4 40 9 15 6 10 8 -20 7 -36 -2 -40 0
-38 21 3 25 -9 29 -27 7z"/>
  <path d="M660 190 c-16 -11 -14 -11 45 -15 22 -1 34 0 27 2 -6 3 -10 9 -6 14
7 12 -47 11 -66 -1z"/>
  <path d="M756 186 c10 -8 21 -12 24 -10 5 6 -21 24 -34 24 -6 0 -1 -6 10 -14z"/>
</g>
</g>
</svg>