<?xml version="1.0" standalone="no"?>
<!DOCTYPE svg PUBLIC "-//W3C//DTD SVG 20010904//EN"
 "http://www.w3.org/TR/2001/REC-SVG-20010904/DTD/svg10.dtd">
<svg version="1.0" xmlns="http://www.w3.org/2000/svg"
 width="96.000000pt" height="68.000000pt" viewBox="0 0 96.000000 68.000000"
 preserveAspectRatio="xMidYMid meet">
<metadata>
Created by potrace 1.16, written by Peter Selinger 2001-2019
Combined from part_0.svg through part_5.svg with named groups
</metadata>
<g transform="translate(0.000000,68.000000) scale(0.100000,-0.100000)" fill="#000000" stroke="none">
<g id="part-0" class="char-part">
  <path d="M230 569 c0 -17 60 -69 79 -69 33 0 38 29 10 50 -23 18 -89 32 -89
19z"/>
  <path d="M588 348 c2 -134 7 -223 14 -240 23 -51 104 -77 185 -57 60 15 78 30
65 55 -5 11 -13 37 -17 59 l-8 40 -11 -41 c-15 -57 -36 -74 -89 -74 -60 0 -75
7 -92 41 -15 29 -21 139 -7 139 4 0 29 -18 56 -40 55 -46 76 -50 76 -17 0 25
-49 58 -103 71 l-28 7 5 91 c3 50 8 106 12 124 5 30 3 35 -21 44 -14 5 -29 10
-33 10 -4 0 -6 -96 -4 -212z"/>
  <path d="M488 392 c4 -95 -5 -142 -28 -142 -4 0 -30 -9 -57 -21 -45 -19 -47
-21 -29 -34 16 -12 22 -11 50 9 54 40 58 41 50 9 -8 -31 -52 -103 -64 -103 -4
0 -10 -7 -14 -15 -20 -54 81 36 105 93 16 38 47 277 37 287 -2 2 -15 6 -29 10
l-26 6 5 -99z"/>
  <path d="M300 450 c-8 -4 -42 -13 -75 -20 -91 -18 -93 -20 -71 -32 13 -8 35
-6 83 7 35 10 66 16 68 13 8 -8 -121 -153 -162 -183 -23 -16 -42 -33 -42 -38
-1 -12 75 31 112 63 19 16 37 27 41 23 10 -11 7 -128 -5 -162 -9 -25 -9 -38 1
-57 8 -13 16 -24 20 -24 18 0 30 60 30 147 0 92 1 95 18 80 23 -21 42 -22 42
-2 0 16 -5 19 -52 29 -39 9 -35 26 18 81 46 48 53 82 14 72 -10 -3 -20 -1 -22
3 -2 5 -10 5 -18 0z"/>
  <path d="M685 400 c-8 -16 -23 -33 -32 -39 -10 -5 -15 -12 -12 -15 7 -8 119
42 119 53 0 13 -24 31 -42 31 -10 0 -24 -13 -33 -30z"/>
  <path d="M401 350 c23 -35 46 -47 61 -32 16 16 -5 38 -47 48 -29 7 -29 7 -14
-16z"/>
</g>
<g id="part-1" class="char-part">
  <path d="M240 562 c0 -12 57 -62 71 -62 17 0 22 31 8 46 -18 17 -79 30 -79 16z"/>
</g>
<g id="part-2" class="char-part">
  <path d="M220 308 c-17 -21 -54 -57 -82 -78 -27 -22 -43 -40 -35 -40 15 0 73
37 122 78 l30 25 3 -53 c2 -29 -2 -74 -7 -101 -16 -73 12 -130 39 -80 5 11 10
63 10 115 0 94 4 108 27 85 7 -7 19 -9 28 -5 24 9 1 36 -30 36 -25 0 -50 24
-41 38 3 6 -3 12 -13 15 -14 3 -29 -7 -51 -35z"/>
</g>
<g id="part-3" class="char-part">
  <path d="M485 368 c0 -140 -12 -181 -73 -256 l-37 -45 30 16 c84 44 113 106
126 271 9 124 7 135 -31 136 -13 0 -15 -20 -15 -122z"/>
</g>
<g id="part-4" class="char-part">
  <path d="M420 237 c-69 -26 -69 -26 -46 -42 17 -13 23 -11 60 17 23 18 43 33
45 35 2 2 2 5 0 7 -2 2 -29 -6 -59 -17z"/>
</g>
<g id="part-5" class="char-part">
  <path d="M704 405 c-3 -14 -12 -25 -19 -25 -7 0 -15 -7 -18 -15 -5 -11 4 -9
34 6 49 26 55 35 30 49 -18 9 -21 7 -27 -15z"/>
  <path d="M675 246 c52 -48 77 -63 68 -40 -4 12 -3 15 6 10 9 -6 9 -3 -1 13 -7
12 -26 25 -43 30 -16 5 -39 12 -50 16 -12 5 -3 -8 20 -29z"/>
</g>
</g>
</svg>