<?xml version="1.0" standalone="no"?>
<!DOCTYPE svg PUBLIC "-//W3C//DTD SVG 20010904//EN"
 "http://www.w3.org/TR/2001/REC-SVG-20010904/DTD/svg10.dtd">
<svg version="1.0" xmlns="http://www.w3.org/2000/svg"
 width="96.000000pt" height="68.000000pt" viewBox="0 0 96.000000 68.000000"
 preserveAspectRatio="xMidYMid meet">
<metadata>
Created by potrace 1.16, written by Peter Selinger 2001-2019
Combined from part_0.svg through part_5.svg with named groups
</metadata>
<g transform="translate(0.000000,68.000000) scale(0.100000,-0.100000)" fill="#000000" stroke="none">
<g id="part-0" class="char-part">
  <path d="M569 616 c-1 -6 -2 -18 -3 -26 -2 -8 -3 -25 -4 -36 -2 -17 -11 -23
-44 -28 -40 -7 -42 -8 -24 -22 11 -8 29 -11 39 -8 17 5 19 3 12 -12 -15 -38
-17 -54 -7 -54 6 0 14 5 17 10 4 6 12 7 18 4 7 -4 9 -4 5 1 -4 4 0 21 9 36 17
28 21 29 90 29 42 0 75 5 79 11 12 20 -20 30 -78 25 -62 -6 -64 -5 -47 25 7
15 7 24 -1 34 -14 17 -60 26 -61 11z"/>
  <path d="M290 587 c0 -8 7 -28 15 -43 14 -28 14 -29 -13 -35 -15 -4 -48 -7
-74 -8 -53 -1 -60 -12 -24 -36 22 -15 29 -15 77 -1 29 9 54 16 56 16 1 0 10
-14 18 -30 19 -36 35 -31 35 11 0 25 5 30 30 36 43 8 37 23 -9 23 -39 0 -40 1
-43 38 -3 34 -6 37 -35 40 -24 2 -33 -1 -33 -11z"/>
  <path d="M428 424 c-3 -3 -2 -21 4 -40 5 -19 8 -47 6 -62 -3 -26 -6 -27 -68
-33 -36 -3 -67 -4 -69 -2 -3 2 0 22 6 44 9 35 8 41 -8 49 -31 17 -40 11 -37
-23 1 -19 -4 -48 -12 -66 -11 -27 -11 -34 1 -46 12 -11 26 -10 89 6 41 11 80
17 87 14 9 -3 13 -28 13 -78 l0 -74 -77 -6 c-42 -3 -80 -4 -84 -1 -4 2 -2 17
4 33 8 23 8 33 -2 45 -25 29 -41 19 -41 -26 0 -24 -7 -49 -16 -60 -14 -15 -15
-20 -3 -34 14 -17 17 -16 129 9 36 8 94 18 130 21 36 4 86 9 113 12 45 6 47 5
47 -19 0 -14 5 -29 10 -32 19 -12 38 15 45 63 4 26 11 54 16 63 11 21 -8 39
-42 39 -26 0 -26 -2 -21 -45 l5 -45 -44 0 c-24 -1 -61 -3 -81 -6 l-38 -6 0 81
0 81 33 0 c17 0 48 3 68 6 31 5 37 3 42 -16 10 -38 31 -16 43 44 7 31 15 60
18 63 10 11 -16 33 -38 33 -19 0 -21 -5 -18 -37 1 -21 -1 -43 -5 -50 -5 -7
-39 -15 -76 -19 l-67 -7 0 61 c0 45 -4 61 -16 66 -20 8 -39 8 -46 0z"/>
</g>
<g id="part-1" class="char-part">
  <path d="M570 582 c0 -47 -14 -62 -58 -62 -19 0 -31 -4 -27 -10 3 -5 19 -10
36 -10 31 0 35 -9 18 -42 -18 -34 13 -17 36 20 17 26 27 31 60 32 22 1 60 5
85 9 42 6 44 7 23 19 -15 8 -41 10 -80 5 l-57 -6 18 27 c17 27 17 28 -1 42
-35 26 -53 18 -53 -24z"/>
  <path d="M290 593 c0 -6 7 -25 16 -43 21 -41 10 -50 -68 -50 -59 0 -70 -8 -43
-30 10 -8 28 -10 53 -5 20 4 48 9 63 12 20 4 27 -1 37 -22 16 -34 35 -22 27
16 -6 26 -4 29 17 29 13 0 30 5 38 11 11 7 5 9 -25 7 -38 -3 -39 -2 -48 35 -5
20 -15 37 -22 37 -7 0 -20 3 -29 6 -9 3 -16 2 -16 -3z"/>
</g>
<g id="part-2" class="char-part">
  <path d="M427 408 c4 -13 8 -43 8 -68 l0 -45 -67 -3 c-72 -3 -75 -1 -57 45 8
23 7 30 -7 40 -30 22 -47 16 -41 -14 3 -15 -2 -45 -10 -66 -14 -33 -14 -41 -2
-52 12 -12 23 -11 69 1 44 11 267 44 302 44 4 0 8 -9 8 -21 0 -35 33 -18 42
21 4 19 13 50 19 69 12 37 3 51 -37 51 -19 0 -21 -4 -17 -44 3 -24 1 -46 -4
-49 -5 -3 -40 -9 -76 -13 l-67 -7 0 61 c0 62 -7 72 -51 72 -17 0 -19 -4 -12
-22z"/>
</g>
<g id="part-3" class="char-part">
  <path d="M438 193 l-3 -78 -75 -7 c-41 -3 -77 -4 -80 -2 -2 3 1 18 7 34 9 24
8 33 -4 45 -26 27 -43 18 -43 -22 0 -20 -8 -45 -17 -55 -13 -15 -15 -23 -6
-36 12 -19 46 -20 108 -3 22 5 85 15 140 21 55 6 117 13 138 16 35 5 37 4 37
-20 0 -24 24 -46 36 -33 3 3 13 37 23 76 19 77 15 91 -30 91 -26 0 -26 -2 -21
-45 l5 -45 -35 0 c-20 0 -56 -3 -82 -6 l-46 -7 0 77 c0 74 -1 76 -25 76 -23 0
-24 -3 -27 -77z"/>
</g>
</g>
</svg>