<?xml version="1.0" standalone="no"?>
<!DOCTYPE svg PUBLIC "-//W3C//DTD SVG 20010904//EN"
 "http://www.w3.org/TR/2001/REC-SVG-20010904/DTD/svg10.dtd">
<svg version="1.0" xmlns="http://www.w3.org/2000/svg"
 width="96.000000pt" height="68.000000pt" viewBox="0 0 96.000000 68.000000"
 preserveAspectRatio="xMidYMid meet">
<metadata>
Created by potrace 1.16, written by Peter Selinger 2001-2019
Combined from part_0.svg through part_5.svg with named groups
</metadata>
<g transform="translate(0.000000,68.000000) scale(0.100000,-0.100000)" fill="#000000" stroke="none">
<g id="part-0" class="char-part">
  <path d="M250 605 c0 -22 -60 -86 -74 -78 -6 3 -8 3 -4 -2 4 -4 3 -14 -3 -22
-19 -22 6 -16 58 16 39 23 64 30 133 35 80 6 112 17 97 32 -8 9 -51 8 -106 -1
-32 -6 -42 -5 -37 3 4 8 -3 16 -19 22 -36 14 -45 13 -45 -5z"/>
  <path d="M555 583 c-3 -15 -16 -40 -27 -55 -21 -31 -20 -49 2 -23 17 21 89 20
97 -1 9 -23 -10 -69 -28 -67 -7 1 -27 5 -44 8 -30 6 -30 6 -6 -7 39 -21 36
-37 -11 -57 -51 -23 -23 -27 37 -6 22 8 41 15 42 15 1 0 8 -6 15 -13 43 -42
78 -57 132 -57 66 0 73 15 14 30 -43 11 -138 50 -138 57 0 2 9 22 21 45 11 22
18 49 16 59 -4 16 1 19 28 19 33 0 54 15 40 28 -3 3 -43 -1 -88 -10 -44 -10
-83 -15 -86 -13 -2 3 6 16 18 29 25 26 21 46 -9 46 -11 0 -20 -10 -25 -27z"/>
  <path d="M369 525 c-3 -2 -32 -5 -65 -6 l-61 -2 1 -36 c1 -24 -4 -36 -14 -38
-8 -1 -36 -5 -63 -8 -29 -4 -45 -10 -41 -17 4 -6 25 -8 55 -4 53 7 55 6 37
-24 -18 -28 -8 -31 53 -18 66 14 117 5 99 -17 -7 -8 -19 -15 -27 -15 -13 0
-13 -3 -3 -15 18 -21 29 -19 42 10 8 17 18 25 32 23 38 -6 27 -26 -28 -53 -31
-15 -53 -31 -50 -36 3 -5 25 -9 50 -9 46 0 59 -14 22 -23 -12 -4 -20 -9 -17
-11 9 -10 199 59 199 71 0 7 -8 16 -17 22 -14 7 -26 2 -53 -20 -35 -30 -81
-38 -110 -19 -11 7 -3 14 33 29 26 11 47 23 47 26 0 10 -54 54 -67 55 -7 0
-13 6 -13 13 0 22 16 38 46 47 28 8 28 9 7 15 -15 5 -23 15 -23 30 0 13 -7 26
-16 29 -19 7 -49 8 -55 1z m29 -37 c4 -22 -33 -38 -87 -38 -35 0 -38 2 -34 24
4 20 12 26 42 29 58 6 76 3 79 -15z m-11 -68 c-2 -23 -42 -28 -50 -6 -7 18 1
26 29 26 17 0 22 -5 21 -20z m-83 4 c24 -9 19 -21 -9 -28 -33 -9 -50 1 -34 20
13 16 20 17 43 8z"/>
  <path d="M325 480 c3 -5 13 -10 21 -10 8 0 14 5 14 10 0 6 -9 10 -21 10 -11 0
-17 -4 -14 -10z"/>
  <path d="M570 230 c8 -5 12 -11 9 -14 -2 -3 -51 -8 -108 -12 -76 -5 -102 -4
-97 4 4 8 -6 7 -31 -2 -52 -18 -50 -41 2 -40 22 0 56 2 75 5 l35 4 3 -62 c3
-62 3 -63 -24 -63 l-27 0 27 -27 c22 -21 31 -25 44 -16 13 8 18 28 20 96 l3
86 44 7 c36 5 49 2 71 -15 29 -23 44 -20 44 9 0 22 -47 50 -82 50 -18 0 -20
-2 -8 -10z"/>
  <path d="M611 89 c53 -62 89 -76 89 -35 0 29 -52 69 -105 82 l-30 7 46 -54z"/>
  <path d="M310 101 c-6 -16 -20 -37 -31 -47 -10 -9 -19 -21 -19 -26 0 -12 48
15 85 47 29 26 29 27 11 41 -27 20 -32 18 -46 -15z"/>
</g>
<g id="part-1" class="char-part">
  <path d="M240 575 c-12 -19 -36 -46 -53 -60 -37 -30 -10 -23 43 11 24 15 59
24 110 29 95 8 121 15 114 27 -7 10 -95 5 -128 -8 -10 -4 -16 -1 -16 9 0 14
-20 27 -40 27 -5 0 -18 -16 -30 -35z"/>
</g>
<g id="part-2" class="char-part">
  <path d="M630 492 c0 -16 -6 -36 -13 -46 -11 -15 -17 -16 -35 -7 -11 6 -29 11
-39 11 -14 0 -12 -3 7 -13 37 -19 30 -39 -20 -59 -56 -21 -20 -24 40 -3 42 15
42 15 90 -20 41 -30 55 -35 104 -35 31 0 56 4 56 9 0 4 -21 14 -47 21 -39 11
-118 44 -131 55 -1 1 8 24 22 51 27 54 26 64 -10 64 -20 0 -24 -5 -24 -28z"/>
</g>
<g id="part-3" class="char-part">
  <path d="M434 339 c-10 -12 -39 -30 -63 -41 -53 -22 -45 -34 27 -40 58 -6 80
6 31 16 -38 7 -30 22 21 37 41 13 52 32 24 43 -21 8 -18 9 -40 -15z"/>
</g>
<g id="part-4" class="char-part">
  <path d="M520 299 c-30 -25 -140 -81 -193 -99 -36 -11 -37 -13 -22 -30 15 -16
21 -17 73 -5 31 7 92 18 135 25 69 12 79 11 95 -4 22 -19 52 -21 52 -3 0 20
-32 46 -69 57 -28 8 -30 7 -21 -9 8 -16 3 -19 -58 -25 -85 -8 -147 -8 -139 0
3 3 52 23 109 43 65 24 103 43 103 52 0 22 -37 21 -65 -2z"/>
</g>
<g id="part-5" class="char-part">
  <path d="M460 143 c0 -22 2 -25 10 -13 5 8 10 11 10 5 0 -5 4 -3 9 5 12 17 5
30 -15 30 -9 0 -14 -10 -14 -27z"/>
  <path d="M617 90 c41 -53 61 -66 77 -50 12 12 -26 67 -43 63 -6 -2 -11 2 -11
8 0 6 -7 9 -15 5 -8 -3 -15 -1 -15 3 0 5 -7 12 -16 15 -8 3 2 -16 23 -44z m73
-40 c0 -5 -5 -10 -11 -10 -5 0 -7 5 -4 10 3 6 8 10 11 10 2 0 4 -4 4 -10z"/>
  <path d="M324 123 c3 -3 -4 -19 -16 -35 -16 -23 -18 -32 -9 -41 9 -9 11 -8 5
6 -5 14 -2 16 12 10 13 -5 16 -3 12 9 -4 10 -1 15 10 14 25 -2 26 30 1 37 -11
3 -18 3 -15 0z"/>
  <path d="M470 110 c-8 -5 -10 -10 -4 -10 14 0 11 -34 -5 -54 -7 -9 -18 -13
-25 -9 -6 3 -2 -4 9 -16 l20 -23 17 22 c10 13 18 39 18 61 0 41 -5 45 -30 29z"/>
</g>
</g>
</svg>