<?xml version="1.0" standalone="no"?>
<!DOCTYPE svg PUBLIC "-//W3C//DTD SVG 20010904//EN"
 "http://www.w3.org/TR/2001/REC-SVG-20010904/DTD/svg10.dtd">
<svg version="1.0" xmlns="http://www.w3.org/2000/svg"
 width="96.000000pt" height="68.000000pt" viewBox="0 0 96.000000 68.000000"
 preserveAspectRatio="xMidYMid meet">
<metadata>
Created by potrace 1.16, written by Peter Selinger 2001-2019
Combined from part_0.svg through part_5.svg with named groups
</metadata>
<g transform="translate(0.000000,68.000000) scale(0.100000,-0.100000)" fill="#000000" stroke="none">
<g id="part-0" class="char-part">
  <path d="M260 572 c0 -25 -50 -102 -91 -140 -32 -30 -32 -32 -11 -32 12 0 22
5 22 10 0 6 6 10 13 10 19 0 137 121 137 141 0 9 -10 19 -22 23 -37 10 -48 7
-48 -12z"/>
  <path d="M641 525 c-13 -30 -36 -69 -52 -86 -40 -43 -29 -49 19 -10 22 17 43
31 47 31 5 0 23 -12 42 -26 35 -26 67 -26 57 0 -3 8 -21 20 -40 26 -45 15 -49
25 -25 56 25 32 27 50 5 58 -27 10 -30 8 -53 -49z"/>
  <path d="M450 545 c0 -25 -36 -89 -74 -132 -29 -34 1 -30 36 4 29 27 29 28 59
10 17 -9 35 -15 39 -12 15 9 -1 35 -20 35 -31 0 -33 19 -6 55 30 39 32 51 10
59 -31 12 -44 6 -44 -19z"/>
  <path d="M270 413 c-21 -57 -37 -80 -100 -145 -36 -38 -62 -68 -58 -68 14 0
61 31 96 64 l33 31 -3 -112 c-3 -111 2 -137 24 -115 16 16 22 196 8 223 -10
18 -7 28 19 64 37 51 37 56 11 73 -18 11 -21 9 -30 -15z"/>
  <path d="M524 358 c11 -52 17 -158 9 -158 -7 0 -82 37 -91 45 -2 2 4 17 12 34
15 28 15 31 -3 41 -26 13 -41 13 -41 -2 0 -35 -24 -92 -56 -134 -19 -25 -33
-48 -30 -51 3 -3 28 18 57 47 l52 52 28 -21 c15 -12 31 -21 34 -21 4 0 25 -13
48 -29 23 -15 70 -43 104 -61 62 -32 63 -32 133 -20 38 6 72 15 75 20 2 4 -30
13 -73 19 -93 15 -173 37 -195 54 -12 9 -14 23 -10 60 l6 47 46 0 c56 0 91 9
91 22 0 7 -25 8 -69 4 l-70 -7 -3 38 c-3 33 -6 38 -31 41 -24 3 -27 1 -23 -20z"/>
</g>
<g id="part-1" class="char-part">
  <path d="M256 545 c-10 -24 -38 -68 -64 -97 l-47 -52 43 24 c43 24 132 118
132 139 0 9 -30 31 -43 31 -2 0 -12 -20 -21 -45z"/>
</g>
<g id="part-2" class="char-part">
  <path d="M256 388 c-12 -34 -38 -70 -91 -123 -40 -41 -72 -75 -69 -75 15 0 70
36 106 68 l41 37 -5 -105 c-3 -58 -4 -111 -1 -117 8 -21 30 -15 37 10 10 38 7
202 -5 214 -7 7 -1 24 22 56 33 47 34 71 2 79 -16 4 -23 -4 -37 -44z"/>
</g>
<g id="part-3" class="char-part">
  <path d="M446 536 c-4 -18 -19 -51 -35 -73 -15 -21 -33 -49 -40 -62 -11 -20
-11 -22 6 -13 10 6 27 20 37 31 23 25 34 26 57 5 19 -17 49 -13 49 6 0 5 -14
16 -30 22 l-30 13 26 38 c29 43 26 67 -10 67 -19 0 -25 -6 -30 -34z"/>
</g>
<g id="part-4" class="char-part">
  <path d="M646 534 c-10 -26 -34 -66 -52 -90 -40 -52 -36 -55 16 -14 21 17 41
30 45 30 3 0 21 -11 39 -25 32 -24 66 -33 66 -17 -1 17 -18 32 -53 47 -20 8
-37 18 -37 21 0 3 12 20 26 37 24 29 25 32 8 44 -29 21 -38 16 -58 -33z"/>
</g>
<g id="part-5" class="char-part">
  <path d="M414 305 c-4 -8 -7 -26 -8 -40 0 -14 -5 -25 -10 -25 -6 0 -4 -6 3
-12 11 -11 14 -10 18 0 3 6 10 9 15 6 7 -4 8 -2 4 4 -4 6 1 23 10 38 15 22 15
27 3 35 -20 13 -29 11 -35 -6z m26 -9 c0 -3 -4 -8 -10 -11 -5 -3 -10 -1 -10 4
0 6 5 11 10 11 6 0 10 -2 10 -4z"/>
  <path d="M377 207 c-3 -8 1 -14 9 -14 16 0 19 13 5 21 -5 3 -11 0 -14 -7z"/>
  <path d="M530 176 c19 -13 41 -21 49 -18 10 4 1 12 -25 23 -55 25 -64 23 -24
-5z"/>
  <path d="M359 163 c-13 -16 -12 -17 4 -4 16 13 21 21 13 21 -2 0 -10 -8 -17
-17z"/>
  <path d="M593 152 c-9 -6 -3 -14 20 -27 17 -11 35 -19 40 -17 4 1 7 -3 7 -9 0
-6 7 -8 16 -5 8 3 13 2 10 -3 -3 -4 22 -8 54 -8 33 -1 60 3 60 8 0 4 8 6 18 4
9 -3 1 2 -17 11 -19 8 -47 14 -62 12 -16 -3 -26 -1 -23 4 5 7 -25 12 -63 11
-7 -1 -13 4 -13 9 0 5 -10 6 -21 3 -15 -5 -19 -4 -15 4 8 13 6 14 -11 3z"/>
</g>
</g>
</svg>