<?xml version="1.0" standalone="no"?>
<!DOCTYPE svg PUBLIC "-//W3C//DTD SVG 20010904//EN"
 "http://www.w3.org/TR/2001/REC-SVG-20010904/DTD/svg10.dtd">
<svg version="1.0" xmlns="http://www.w3.org/2000/svg"
 width="96.000000pt" height="68.000000pt" viewBox="0 0 96.000000 68.000000"
 preserveAspectRatio="xMidYMid meet">
<metadata>
Created by potrace 1.16, written by Peter Selinger 2001-2019
Combined from part_0.svg through part_5.svg with named groups
</metadata>
<g transform="translate(0.000000,68.000000) scale(0.100000,-0.100000)" fill="#000000" stroke="none">
<g id="part-0" class="char-part">
  <path d="M548 603 c-3 -36 -5 -38 -42 -43 -50 -6 -59 -28 -14 -32 25 -2 32 -7
30 -20 -4 -24 20 -23 35 1 10 16 29 21 93 27 50 4 79 11 77 17 -5 16 -55 27
-88 20 -24 -5 -27 -3 -22 16 7 27 -13 51 -43 51 -19 0 -23 -6 -26 -37z"/>
  <path d="M293 603 c2 -10 8 -26 12 -35 7 -17 -3 -19 -104 -30 -24 -3 -24 -3
-6 -22 14 -14 28 -17 59 -13 23 3 48 8 56 11 11 5 19 -3 27 -24 6 -16 7 -30 2
-30 -5 0 -6 -13 -2 -30 5 -30 5 -30 -43 -32 l-49 -1 50 -6 c45 -5 50 -8 50
-31 0 -23 -4 -25 -50 -28 -71 -4 -78 -7 -64 -33 9 -17 7 -28 -7 -55 -10 -18
-15 -36 -11 -40 4 -4 32 -3 62 3 47 8 55 7 55 -5 0 -25 -48 -98 -77 -121 -37
-27 -10 -27 34 0 35 22 83 87 83 113 0 21 32 36 74 36 l36 0 0 -92 c0 -87 10
-131 26 -116 3 4 11 49 15 100 5 51 11 99 14 106 5 14 140 18 149 4 3 -5 -3
-24 -12 -43 -15 -30 -21 -34 -51 -31 l-33 4 28 -36 c16 -20 32 -36 35 -36 18
0 58 44 64 70 3 16 15 40 26 54 l20 25 -26 17 c-22 14 -40 16 -115 10 l-90 -7
0 36 0 35 50 0 c35 0 48 4 45 13 -3 6 6 25 21 40 22 24 24 30 13 44 -11 12
-26 14 -70 9 l-56 -5 5 26 c3 18 1 24 -7 19 -6 -4 -11 -3 -11 2 0 5 -11 10
-24 10 -22 0 -24 -4 -19 -33 5 -30 3 -33 -27 -39 -47 -9 -50 -8 -50 15 0 13
-8 23 -21 26 -12 4 -18 11 -15 20 3 8 6 23 6 34 0 12 10 21 33 27 40 10 39 28
-2 24 -25 -3 -31 0 -31 15 0 27 -20 43 -53 43 -23 0 -28 -4 -24 -17z m301
-209 c9 -23 -2 -34 -35 -34 -24 0 -29 4 -29 23 0 18 6 23 29 25 19 1 31 -3 35
-14z m-116 -21 c-3 -25 -7 -28 -46 -31 -40 -3 -43 -2 -40 19 3 22 28 36 71 38
14 1 18 -5 15 -26z m2 -86 c0 -32 -1 -33 -45 -35 l-45 -2 0 35 c0 35 0 35 45
35 44 0 45 -1 45 -33z m-130 -1 c0 -30 -22 -49 -52 -44 -18 2 -24 10 -26 36
-3 31 -2 32 37 32 36 0 41 -3 41 -24z"/>
</g>
<g id="part-1" class="char-part">
  <path d="M557 633 c-4 -3 -7 -21 -7 -39 0 -31 -2 -33 -46 -40 -49 -7 -43 -24
9 -24 25 0 27 -2 17 -20 -15 -29 4 -25 28 5 18 23 27 25 92 25 53 0 71 3 68
13 -3 7 -29 14 -61 17 -47 4 -55 7 -47 20 14 22 13 26 -15 38 -30 14 -30 14
-38 5z"/>
  <path d="M302 593 c14 -49 16 -48 -49 -51 -68 -3 -77 -11 -38 -32 20 -11 32
-11 64 0 41 13 61 8 61 -16 0 -8 7 -14 15 -14 10 0 15 10 15 30 0 25 4 30 24
30 14 0 28 5 31 10 4 6 -8 10 -29 10 -28 0 -35 4 -38 23 -2 16 -11 23 -32 25
-24 3 -28 0 -24 -15z"/>
</g>
<g id="part-2" class="char-part">
  <path d="M336 443 c5 -15 8 -71 8 -123 0 -112 -23 -175 -79 -223 -46 -39 -45
-52 3 -28 81 41 117 120 125 273 3 59 3 109 -1 111 -4 3 -20 7 -36 11 -27 7
-28 6 -20 -21z"/>
</g>
<g id="part-3" class="char-part">
  <path d="M478 278 c2 -218 6 -258 21 -258 17 0 24 62 30 260 7 202 6 210 -34
210 -19 0 -20 -6 -17 -212z"/>
</g>
<g id="part-4" class="char-part">
  <path d="M528 429 c-26 -5 -101 -15 -165 -23 -116 -13 -117 -13 -45 -15 40 0
116 4 169 10 69 7 99 7 107 -1 17 -17 -6 -43 -40 -45 -16 -1 -81 -7 -144 -14
-63 -6 -132 -12 -153 -13 -41 -2 -41 -2 -27 -29 8 -15 7 -27 -7 -49 -26 -45
-9 -56 62 -42 73 15 308 34 360 30 36 -3 40 -5 37 -28 -6 -40 -28 -57 -64 -52
l-33 4 30 -33 c17 -19 31 -35 32 -37 1 -2 11 2 23 8 12 6 32 36 45 65 13 29
29 56 34 60 20 11 11 23 -24 35 -32 11 -239 2 -402 -17 l-52 -6 1 35 1 35 179
13 c145 11 178 16 174 27 -3 8 5 25 19 39 14 14 25 29 25 33 0 22 -59 26 -142
10z"/>
</g>
</g>
</svg>