<?xml version="1.0" standalone="no"?>
<!DOCTYPE svg PUBLIC "-//W3C//DTD SVG 20010904//EN"
 "http://www.w3.org/TR/2001/REC-SVG-20010904/DTD/svg10.dtd">
<svg version="1.0" xmlns="http://www.w3.org/2000/svg"
 width="96.000000pt" height="68.000000pt" viewBox="0 0 96.000000 68.000000"
 preserveAspectRatio="xMidYMid meet">
<metadata>
Created by potrace 1.16, written by Peter Selinger 2001-2019
Combined from part_0.svg through part_5.svg with named groups
</metadata>
<g transform="translate(0.000000,68.000000) scale(0.100000,-0.100000)" fill="#000000" stroke="none">
<g id="part-0" class="char-part">
  <path d="M626 559 c-3 -8 -10 -32 -16 -54 -7 -22 -23 -59 -36 -82 -34 -59 -30
-63 16 -18 38 37 47 41 121 50 44 6 78 14 77 20 -3 11 -49 10 -112 -1 l-39 -7
21 31 c23 31 29 62 13 62 -5 0 -16 3 -25 6 -9 3 -18 0 -20 -7z"/>
  <path d="M403 500 c-7 -27 -26 -70 -43 -95 -37 -54 -27 -59 20 -10 24 25 43
35 64 35 46 0 106 12 106 20 0 16 -30 18 -74 5 -51 -15 -55 -11 -30 36 18 35
13 59 -13 59 -14 0 -21 -13 -30 -50z"/>
  <path d="M225 430 c-11 -5 -49 -9 -84 -9 l-64 -1 20 -22 c19 -21 28 -45 47
-130 7 -29 36 -39 36 -13 0 12 13 15 60 15 59 0 60 1 54 24 -3 14 3 44 17 76
19 43 20 53 8 61 -17 11 -67 10 -94 -1z m26 -77 c-6 -47 -7 -48 -41 -48 -32 0
-35 3 -46 40 l-11 40 46 11 c25 6 48 10 52 8 3 -1 3 -24 0 -51z"/>
  <path d="M650 414 c0 -13 43 -44 62 -44 17 0 26 24 11 33 -16 9 -73 18 -73 11z"/>
  <path d="M453 363 c20 -21 29 -25 38 -16 17 17 -7 43 -39 43 l-27 0 28 -27z"/>
  <path d="M570 320 c-30 -4 -85 -11 -123 -15 -43 -4 -65 -10 -61 -17 4 -7 29
-8 65 -4 50 5 60 3 68 -12 10 -18 19 -178 11 -185 -3 -3 -61 -9 -130 -14 -109
-8 -122 -10 -98 -21 20 -8 48 -9 100 -2 40 5 152 10 248 10 179 0 222 7 180
30 -15 8 -55 10 -138 5 l-117 -7 3 106 3 106 28 0 c50 0 121 13 121 21 0 11
-82 10 -160 -1z"/>
  <path d="M666 235 c-3 -13 -20 -40 -37 -60 -34 -39 -26 -47 14 -14 29 22 50
17 95 -24 16 -15 25 -18 33 -10 18 18 3 40 -30 48 -40 8 -47 22 -26 45 21 23
12 40 -20 40 -16 0 -25 -7 -29 -25z"/>
  <path d="M400 225 c0 -9 -19 -36 -41 -60 -45 -49 -39 -61 9 -20 17 14 34 25
39 25 5 0 20 -11 33 -25 27 -29 45 -32 54 -10 4 12 -7 22 -42 37 -30 13 -42
22 -32 26 19 6 30 23 24 34 -9 14 -44 8 -44 -7z"/>
</g>
<g id="part-1" class="char-part">
  <path d="M210 424 c-25 -8 -58 -14 -75 -13 -45 2 -47 1 -27 -19 10 -10 24 -46
31 -80 12 -63 27 -85 37 -58 4 10 18 16 38 16 41 0 77 10 71 20 -3 4 5 36 17
70 19 53 20 62 8 70 -20 13 -46 11 -100 -6z m46 -66 c-4 -29 -8 -54 -10 -55
-1 -2 -17 -6 -34 -9 -28 -6 -33 -3 -43 22 -6 16 -13 41 -16 56 -5 25 -3 27 33
31 84 8 77 13 70 -45z"/>
</g>
<g id="part-2" class="char-part">
  <path d="M625 558 c-2 -7 -9 -31 -15 -53 -7 -22 -25 -61 -41 -87 -35 -58 -26
-61 25 -9 34 35 43 39 108 45 39 3 78 10 87 15 31 18 -34 23 -93 8 l-57 -15
20 34 c25 42 26 60 5 68 -24 9 -34 7 -39 -6z"/>
  <path d="M407 512 c-4 -20 -22 -63 -41 -95 -39 -65 -35 -72 14 -22 24 25 43
35 64 35 46 0 106 12 106 20 0 14 -40 18 -75 7 -43 -13 -53 -5 -31 27 20 32
20 52 0 60 -27 10 -31 7 -37 -32z"/>
  <path d="M650 411 c0 -14 41 -41 62 -41 27 0 22 25 -7 38 -31 14 -55 15 -55 3z"/>
  <path d="M430 395 c0 -18 35 -55 52 -55 31 0 18 32 -19 47 -18 7 -33 11 -33 8z"/>
</g>
<g id="part-3" class="char-part">
  <path d="M679 336 c-2 -3 -51 -9 -109 -16 -169 -17 -194 -22 -179 -31 8 -5 38
-8 67 -7 38 2 56 -2 62 -12 6 -8 10 -54 10 -101 l0 -87 -125 -7 c-69 -4 -125
-11 -125 -15 0 -16 48 -19 131 -10 46 5 158 10 249 10 171 0 212 8 170 30 -17
9 -54 10 -137 5 l-114 -7 2 105 2 104 71 7 c86 8 98 15 50 30 -11 3 -22 4 -25
2z"/>
</g>
<g id="part-4" class="char-part">
  <path d="M670 236 c-5 -13 -23 -40 -40 -60 -35 -40 -25 -48 19 -15 l29 21 42
-31 c23 -17 46 -28 51 -25 21 13 6 34 -36 50 l-46 17 22 23 c23 25 18 44 -12
44 -11 0 -23 -10 -29 -24z"/>
</g>
</g>
</svg>