<?xml version="1.0" standalone="no"?>
<!DOCTYPE svg PUBLIC "-//W3C//DTD SVG 20010904//EN"
 "http://www.w3.org/TR/2001/REC-SVG-20010904/DTD/svg10.dtd">
<svg version="1.0" xmlns="http://www.w3.org/2000/svg"
 width="96.000000pt" height="68.000000pt" viewBox="0 0 96.000000 68.000000"
 preserveAspectRatio="xMidYMid meet">
<metadata>
Created by potrace 1.16, written by Peter Selinger 2001-2019
Combined from part_0.svg through part_5.svg with named groups
</metadata>
<g transform="translate(0.000000,68.000000) scale(0.100000,-0.100000)" fill="#000000" stroke="none">
<g id="part-0" class="char-part">
  <path d="M576 579 c11 -19 5 -112 -8 -121 -7 -4 -28 -8 -46 -8 -20 0 -31 -4
-27 -10 3 -5 26 -10 51 -10 l45 0 -3 -35 c-2 -33 -3 -34 -56 -41 -44 -5 -55
-3 -66 11 -11 15 -23 17 -70 12 -54 -5 -56 -5 -56 18 0 19 8 25 46 34 57 15
54 36 -5 35 l-41 -1 6 48 c6 46 5 49 -20 58 -40 16 -56 5 -45 -29 6 -16 9 -43
7 -62 -3 -31 -6 -33 -43 -36 -22 -1 -47 -5 -55 -8 -25 -9 10 -24 58 -24 38 0
42 -2 42 -24 0 -27 -11 -31 -106 -42 -73 -8 -97 -19 -74 -34 14 -10 70 -7 118
6 19 6 22 3 22 -25 0 -60 -22 -122 -56 -158 -19 -20 -34 -37 -34 -39 0 -13 25
1 58 34 41 40 56 75 67 155 5 41 9 47 31 47 24 0 24 0 24 -104 0 -58 -4 -108
-10 -111 -5 -3 -19 -1 -30 5 -29 16 -24 -2 10 -35 28 -27 31 -28 47 -12 13 12
18 37 20 88 1 39 4 73 6 75 2 2 12 -5 22 -16 23 -25 35 -25 35 -1 0 18 -33 38
-52 33 -5 -1 -8 18 -8 42 0 46 13 57 65 55 l20 0 -20 -9 c-18 -8 -18 -9 5 -10
14 -1 40 -1 58 0 l32 2 0 -84 c0 -72 -3 -89 -22 -114 -31 -42 -55 -64 -67 -64
-6 0 -11 -4 -11 -10 0 -18 24 -10 71 24 53 39 68 78 72 188 2 66 3 68 28 68
23 0 27 -5 33 -37 8 -49 8 -197 0 -217 -4 -11 -14 -14 -33 -10 l-26 7 29 -32
c60 -64 70 -45 76 149 l5 155 73 3 c52 2 72 6 69 15 -4 14 -76 15 -155 3 l-53
-8 3 38 c3 37 5 39 48 47 25 5 49 13 54 18 16 14 -20 21 -58 11 l-36 -10 0 59
0 59 -36 0 c-23 0 -33 -4 -28 -11z"/>
  <path d="M180 251 c0 -4 -11 -25 -25 -45 -15 -23 -20 -36 -12 -36 19 0 80 67
73 79 -8 13 -36 15 -36 2z"/>
  <path d="M486 244 c-9 -8 -16 -21 -16 -28 0 -7 -9 -21 -20 -31 -21 -19 -26
-35 -11 -35 13 0 81 73 81 87 0 20 -17 24 -34 7z"/>
  <path d="M736 239 c12 -13 34 -39 49 -56 34 -39 55 -42 55 -8 0 26 -47 64
-100 80 l-25 7 21 -23z"/>
</g>
<g id="part-1" class="char-part">
  <path d="M288 505 l4 -65 -33 -1 c-19 0 -43 -4 -54 -9 -18 -7 -18 -8 7 -15 16
-4 39 -4 53 -1 20 5 26 2 31 -18 7 -31 -1 -46 -26 -46 -48 0 -170 -23 -170
-33 0 -13 118 -3 215 18 39 8 84 15 102 15 17 0 34 4 37 9 9 15 -21 21 -70 14
-46 -6 -46 -6 -42 23 2 23 9 30 36 35 18 4 36 10 40 13 13 13 -21 24 -49 16
l-28 -8 -3 56 c-3 53 -5 57 -29 60 -25 3 -25 3 -21 -63z"/>
</g>
<g id="part-2" class="char-part">
  <path d="M166 226 c-8 -18 -19 -37 -25 -40 -6 -4 -11 -12 -11 -18 0 -25 89 53
90 80 0 27 -40 11 -54 -22z"/>
  <path d="M380 252 c0 -10 43 -52 53 -52 4 0 7 9 7 20 0 13 -10 24 -26 30 -31
12 -34 12 -34 2z"/>
</g>
<g id="part-3" class="char-part">
  <path d="M578 526 l4 -65 -46 -6 c-61 -10 -59 -25 4 -25 l50 0 0 -34 0 -35
-57 -6 c-32 -4 -67 -9 -77 -12 -17 -5 -18 -6 -3 -15 11 -6 49 -3 110 7 50 9
134 19 185 22 60 4 91 10 89 17 -4 13 -91 14 -159 3 l-48 -8 0 35 c0 32 3 36
38 45 20 6 45 11 55 11 9 0 17 7 17 16 0 14 -8 16 -50 10 l-50 -7 0 56 0 55
-32 0 -33 0 3 -64z"/>
</g>
<g id="part-4" class="char-part">
  <path d="M540 249 c0 -91 -16 -128 -73 -174 -43 -33 -17 -32 34 2 59 39 68 62
84 201 6 51 5 52 -20 52 -25 0 -25 -1 -25 -81z"/>
</g>
<g id="part-5" class="char-part">
  <path d="M485 242 c6 -6 -25 -65 -39 -74 -7 -5 -7 -8 -1 -8 12 0 38 28 54 59
14 26 14 28 -4 28 -8 0 -13 -2 -10 -5z"/>
  <path d="M740 246 c0 -2 16 -21 35 -42 19 -21 35 -32 35 -25 0 7 4 10 10 6 5
-3 6 -13 3 -22 -4 -11 -3 -14 5 -9 7 4 12 13 12 20 0 17 -35 48 -43 39 -4 -3
-7 -1 -7 5 0 7 -7 12 -15 12 -8 0 -15 5 -15 10 0 6 -4 10 -10 10 -5 0 -10 -2
-10 -4z"/>
</g>
</g>
</svg>