<?xml version="1.0" standalone="no"?>
<!DOCTYPE svg PUBLIC "-//W3C//DTD SVG 20010904//EN"
 "http://www.w3.org/TR/2001/REC-SVG-20010904/DTD/svg10.dtd">
<svg version="1.0" xmlns="http://www.w3.org/2000/svg"
 width="96.000000pt" height="68.000000pt" viewBox="0 0 96.000000 68.000000"
 preserveAspectRatio="xMidYMid meet">
<metadata>
Created by potrace 1.16, written by Peter Selinger 2001-2019
Combined from part_0.svg through part_5.svg with named groups
</metadata>
<g transform="translate(0.000000,68.000000) scale(0.100000,-0.100000)" fill="#000000" stroke="none">
<g id="part-0" class="char-part">
  <path d="M304 518 c3 -18 8 -58 11 -89 6 -53 5 -57 -17 -63 -37 -9 -38 -8 -38
42 0 48 -12 72 -37 72 -10 0 -11 -14 -7 -59 l7 -59 -44 -6 c-24 -3 -55 -7 -69
-9 l-25 -2 23 -13 c16 -9 36 -10 72 -4 46 8 50 8 50 -10 0 -10 -8 -31 -17 -46
l-17 -27 26 23 c22 20 26 21 38 7 16 -19 30 -19 30 0 0 8 -7 15 -15 15 -22 0
-14 44 10 52 11 3 31 6 44 7 21 1 23 -2 17 -31 -3 -18 -12 -36 -19 -40 -8 -5
-8 -8 -1 -8 6 0 17 7 24 15 10 12 15 12 36 -2 25 -16 41 -13 29 6 -3 6 -13 11
-22 11 -10 0 -13 6 -9 16 3 9 6 22 6 30 0 10 14 14 54 14 30 0 58 5 62 11 5 8
-15 10 -70 7 l-76 -3 0 32 c0 32 1 33 43 33 51 0 77 14 60 31 -9 9 -23 9 -52
2 l-40 -11 -3 42 c-3 38 -5 41 -36 44 -32 3 -33 3 -28 -30z"/>
  <path d="M625 439 c-22 -4 -52 -6 -67 -3 -16 3 -28 2 -28 -3 0 -4 5 -75 10
-157 11 -161 10 -166 -39 -166 -24 0 -24 1 -18 79 3 43 7 85 9 92 2 8 -7 15
-19 17 -22 3 -23 0 -23 -70 0 -122 8 -115 -141 -123 -72 -4 -132 -5 -134 -3
-2 2 -6 40 -7 83 -3 80 -3 80 -32 83 -25 3 -28 1 -20 -15 4 -10 10 -56 12
-103 2 -47 7 -89 11 -93 5 -5 33 -2 62 7 30 8 86 18 124 21 39 3 80 8 93 11
17 3 22 0 22 -16 0 -11 5 -20 10 -20 6 0 10 6 10 14 0 21 15 27 40 18 11 -4
58 -2 103 5 45 6 117 12 160 12 42 1 77 5 77 10 0 13 -27 21 -71 21 l-39 0 6
78 c3 42 10 108 15 146 8 54 7 71 -3 78 -16 10 -69 9 -123 -3z m75 -59 c0 -37
-2 -40 -28 -40 -15 0 -42 -4 -60 -9 l-32 -10 0 44 c0 48 5 52 78 54 l42 1 0
-40z m0 -94 c0 -30 -3 -34 -32 -40 -18 -3 -45 -9 -60 -12 -27 -6 -28 -5 -28
33 0 39 1 40 36 41 20 1 39 4 42 7 3 3 14 5 24 5 14 0 18 -8 18 -34z m0 -106
c0 -48 -1 -50 -29 -50 -16 0 -43 -3 -60 -6 l-31 -6 0 45 0 45 53 10 c28 5 55
10 60 11 4 0 7 -21 7 -49z"/>
  <path d="M275 234 l-80 -11 60 -2 c77 -1 165 9 165 20 0 10 -40 8 -145 -7z"/>
  <path d="M341 174 c-27 -45 -26 -50 4 -30 23 15 27 15 41 1 9 -8 20 -13 25
-10 15 10 10 22 -13 28 -17 5 -19 9 -9 20 9 12 8 16 -5 21 -22 8 -20 10 -43
-30z"/>
  <path d="M230 184 c0 -10 -7 -26 -17 -36 -21 -23 -10 -36 12 -14 20 20 29 20
45 1 7 -8 17 -12 23 -8 6 4 3 11 -9 20 -10 7 -19 21 -19 31 0 9 -8 18 -17 20
-12 2 -18 -3 -18 -14z"/>
</g>
<g id="part-1" class="char-part">
  <path d="M305 528 c5 -13 10 -53 12 -90 4 -59 7 -68 24 -68 15 0 19 7 19 34 0
34 0 35 55 41 30 4 55 12 55 18 0 6 -20 7 -56 3 l-56 -6 4 35 c3 38 -11 55
-46 55 -15 0 -17 -4 -11 -22z"/>
</g>
<g id="part-2" class="char-part">
  <path d="M448 211 c-1 -49 -5 -91 -8 -94 -3 -2 -65 -8 -137 -12 l-133 -7 0 81
c0 78 -1 81 -25 87 -34 8 -38 3 -25 -32 6 -16 10 -61 8 -101 -1 -40 1 -75 5
-80 4 -4 29 -1 55 6 26 7 92 18 146 25 93 12 99 11 104 -6 2 -10 8 -18 12 -18
15 0 20 27 42 209 2 21 -4 31 -21 31 -17 0 -19 -9 -23 -89z"/>
</g>
<g id="part-3" class="char-part">
  <path d="M645 444 c-27 -8 -65 -12 -83 -9 l-33 6 5 -73 c3 -40 8 -112 12 -160
4 -66 9 -88 20 -88 10 0 14 13 14 44 l0 44 53 9 c28 5 55 8 60 6 4 -2 7 -22 7
-44 0 -27 4 -39 14 -39 10 0 16 16 20 52 3 29 9 94 15 143 9 85 9 91 -11 108
-23 19 -25 19 -93 1z m55 -63 c0 -38 -1 -38 -42 -44 -24 -2 -51 -8 -60 -12
-16 -6 -18 -1 -18 38 0 50 4 53 83 56 37 1 37 1 37 -38z m0 -100 c0 -35 -2
-38 -27 -38 -16 0 -43 -3 -61 -8 l-33 -8 3 39 c3 37 5 39 43 45 77 12 75 12
75 -30z"/>
</g>
<g id="part-4" class="char-part">
  <path d="M643 129 c-40 -5 -94 -12 -120 -17 -45 -8 -46 -10 -23 -19 18 -7 47
-6 100 3 41 7 116 14 165 14 81 1 88 2 71 15 -22 16 -77 17 -193 4z"/>
</g>
</g>
</svg>