<?xml version="1.0" standalone="no"?>
<!DOCTYPE svg PUBLIC "-//W3C//DTD SVG 20010904//EN"
 "http://www.w3.org/TR/2001/REC-SVG-20010904/DTD/svg10.dtd">
<svg version="1.0" xmlns="http://www.w3.org/2000/svg"
 width="96.000000pt" height="68.000000pt" viewBox="0 0 96.000000 68.000000"
 preserveAspectRatio="xMidYMid meet">
<metadata>
Created by potrace 1.16, written by Peter Selinger 2001-2019
Combined from part_0.svg through part_5.svg with named groups
</metadata>
<g transform="translate(0.000000,68.000000) scale(0.100000,-0.100000)" fill="#000000" stroke="none">
<g id="part-0" class="char-part">
  <path d="M614 573 c-71 -50 -112 -65 -160 -59 l-40 5 4 -87 c2 -49 -1 -113 -7
-142 -13 -65 -54 -155 -84 -190 l-22 -24 25 15 c48 30 99 110 115 181 8 37 15
83 15 102 0 34 2 36 33 36 17 1 61 7 97 15 36 8 83 15 105 15 48 0 85 9 85 20
0 19 -59 19 -156 0 -144 -28 -156 -27 -152 7 3 26 9 29 118 59 92 25 115 34
115 49 0 36 -39 36 -91 -2z"/>
  <path d="M234 563 c3 -16 9 -53 12 -84 l7 -56 -72 -7 c-104 -11 -105 -36 0
-36 l49 0 -19 -38 c-31 -61 -100 -143 -114 -136 -7 4 -9 4 -5 -1 4 -4 3 -14
-3 -22 -9 -10 -8 -13 0 -13 25 0 70 31 110 76 l41 47 0 -34 c0 -19 -5 -62 -10
-96 -11 -67 -1 -113 24 -113 28 0 36 38 36 161 l0 123 29 -34 c22 -27 32 -32
41 -24 20 20 6 48 -33 67 -50 23 -52 57 -4 57 35 0 77 23 65 36 -4 3 -26 7
-49 7 l-42 0 7 58 c6 57 5 59 -24 74 -43 22 -53 19 -46 -12z"/>
  <path d="M670 369 c-30 -5 -82 -10 -115 -10 l-60 -2 3 -106 c6 -155 29 -182
166 -189 82 -4 147 7 180 31 17 12 17 17 5 53 -15 46 -29 65 -29 41 0 -29 -22
-65 -47 -76 -39 -18 -170 -14 -204 6 -26 16 -29 22 -29 70 l0 53 74 0 c86 0
138 9 130 22 -3 5 6 28 20 52 l26 44 -32 11 c-17 6 -31 10 -32 10 -1 -1 -26
-5 -56 -10z m45 -51 c-10 -46 -12 -48 -46 -48 -31 0 -32 2 -23 49 6 28 10 31
41 31 34 0 34 -1 28 -32z m-107 -20 c3 -37 3 -38 -32 -38 -33 0 -36 3 -36 28
0 34 18 54 45 50 15 -2 21 -12 23 -40z"/>
</g>
<g id="part-1" class="char-part">
  <path d="M241 548 c5 -18 9 -54 9 -80 l0 -47 -47 -6 c-90 -12 -102 -20 -35
-23 40 -2 62 -7 62 -15 0 -22 -57 -112 -102 -159 -24 -27 -42 -48 -38 -48 20
0 99 63 124 98 16 23 31 41 33 38 2 -2 -2 -53 -8 -114 -10 -90 -10 -114 1
-127 10 -12 16 -13 26 -4 11 9 14 44 14 140 0 71 3 129 7 129 4 0 20 -12 35
-27 21 -20 31 -24 40 -15 15 15 -13 47 -48 56 -17 5 -24 13 -24 31 0 20 6 25
38 30 55 9 64 14 57 26 -4 6 -26 9 -49 7 l-41 -3 3 62 c3 53 1 63 -16 72 -39
21 -52 14 -41 -21z"/>
</g>
<g id="part-2" class="char-part">
  <path d="M636 591 c-9 -10 -44 -33 -78 -51 -48 -26 -69 -31 -102 -28 l-41 5 0
-116 c0 -132 -15 -189 -70 -272 l-34 -50 30 18 c65 39 111 154 127 322 l7 75
119 33 c65 18 121 35 123 37 7 7 -36 46 -50 46 -8 0 -22 -9 -31 -19z"/>
</g>
<g id="part-3" class="char-part">
  <path d="M591 456 c-63 -12 -116 -27 -119 -34 -5 -15 36 -15 98 -1 25 6 80 14
123 19 83 8 101 15 77 30 -21 13 -49 11 -179 -14z"/>
</g>
<g id="part-4" class="char-part">
  <path d="M500 186 c0 -91 79 -134 225 -123 75 5 136 28 134 50 0 6 -9 30 -19
52 -15 32 -19 36 -19 17 -1 -13 -14 -37 -30 -53 -28 -27 -34 -29 -111 -29 -87
0 -139 18 -141 48 -1 9 0 32 1 50 1 26 -2 32 -19 32 -18 0 -21 -6 -21 -44z"/>
</g>
</g>
</svg>