<?xml version="1.0" standalone="no"?>
<!DOCTYPE svg PUBLIC "-//W3C//DTD SVG 20010904//EN"
 "http://www.w3.org/TR/2001/REC-SVG-20010904/DTD/svg10.dtd">
<svg version="1.0" xmlns="http://www.w3.org/2000/svg"
 width="96.000000pt" height="68.000000pt" viewBox="0 0 96.000000 68.000000"
 preserveAspectRatio="xMidYMid meet">
<metadata>
Created by potrace 1.16, written by Peter Selinger 2001-2019
Combined from part_0.svg through part_5.svg with named groups
</metadata>
<g transform="translate(0.000000,68.000000) scale(0.100000,-0.100000)" fill="#000000" stroke="none">
<g id="part-0" class="char-part">
  <path d="M390 621 c0 -5 13 -23 30 -39 l30 -30 -68 -7 c-166 -16 -193 -21
-195 -29 -4 -18 57 -25 127 -16 39 5 152 14 251 21 99 6 182 13 185 16 3 3 -4
11 -15 20 -16 12 -41 13 -139 8 -80 -5 -117 -4 -112 3 11 18 -5 40 -36 51 -38
13 -58 14 -58 2z"/>
  <path d="M489 477 c-14 -28 -52 -52 -48 -30 4 21 -3 31 -26 41 -44 20 -48 13
-16 -27 26 -32 31 -48 31 -90 0 -41 -3 -51 -17 -51 -14 0 -13 -3 6 -21 31 -29
53 -10 50 45 -3 74 0 96 16 96 8 0 15 4 15 8 0 5 12 14 27 21 27 12 27 13 8
27 -26 19 -28 18 -46 -19z"/>
  <path d="M638 483 c-9 -21 -70 -61 -85 -57 -17 5 -19 -3 -20 -70 -1 -60 2 -76
13 -76 8 0 17 7 20 15 4 8 12 15 19 15 7 0 16 7 19 16 4 12 1 14 -14 9 -18 -6
-20 -2 -20 33 0 28 5 42 16 46 19 7 31 -1 92 -66 41 -45 48 -48 93 -48 27 0
49 4 49 9 0 5 -27 19 -60 31 -32 12 -76 37 -97 55 l-37 32 24 8 c40 12 52 25
39 41 -12 15 -45 19 -51 7z"/>
  <path d="M253 431 c-93 -14 -124 -31 -58 -31 l34 0 -19 -32 c-11 -18 -33 -48
-49 -65 -52 -57 -6 -37 54 23 41 41 54 61 50 75 -5 16 -1 19 30 19 22 0 38 -6
41 -15 9 -22 -29 -80 -54 -83 -18 -3 -20 -6 -9 -23 24 -38 68 -13 83 46 4 17
13 39 21 51 11 17 11 23 1 31 -24 18 -33 19 -125 4z"/>
  <path d="M618 148 c3 -127 11 -164 31 -143 9 11 21 241 14 263 -3 6 -14 12
-26 12 -22 0 -22 -2 -19 -132z"/>
  <path d="M275 190 c-1 -62 -4 -74 -34 -116 l-33 -47 33 19 c42 25 66 66 81
138 9 48 9 59 -3 67 -36 22 -44 11 -44 -61z"/>
  <path d="M442 248 c-39 -6 -60 -14 -55 -19 12 -12 144 3 144 16 0 14 -16 14
-89 3z"/>
  <path d="M433 187 c-81 -12 -97 -27 -28 -27 l45 0 0 -55 c0 -42 -3 -55 -15
-55 -21 0 -19 -13 6 -28 33 -21 44 0 44 78 l0 70 47 0 c48 0 71 13 42 24 -19
7 -47 6 -141 -7z"/>
  <path d="M347 94 c-16 -19 -23 -34 -16 -34 19 0 80 50 74 61 -11 17 -30 8 -58
-27z"/>
  <path d="M530 123 c1 -16 39 -53 54 -53 22 0 20 19 -6 41 -21 19 -48 25 -48
12z"/>
</g>
<g id="part-1" class="char-part">
  <path d="M400 612 c0 -15 46 -52 63 -52 24 0 22 37 -2 50 -23 12 -61 13 -61 2z"/>
  <path d="M425 544 c-116 -12 -217 -23 -224 -23 -12 -1 -12 -4 -3 -13 9 -9 44
-9 149 0 76 7 181 14 233 17 52 3 111 8 130 11 33 5 34 7 15 20 -23 17 -38 17
-300 -12z"/>
</g>
<g id="part-2" class="char-part">
  <path d="M487 474 c-10 -19 -23 -34 -30 -31 -6 2 -11 9 -10 16 3 12 -53 44
-68 39 -5 -2 4 -19 20 -38 25 -29 30 -44 31 -87 0 -48 -2 -53 -21 -53 -20 0
-20 -1 5 -21 40 -32 56 -12 56 67 0 63 0 64 40 90 44 29 48 39 24 48 -26 10
-30 8 -47 -30z"/>
  <path d="M607 454 c-24 -22 -44 -33 -55 -30 -15 5 -18 -3 -18 -69 0 -41 2 -75
6 -75 6 0 73 50 90 66 2 3 -8 0 -23 -5 -39 -15 -38 -16 -35 31 4 62 25 60 93
-11 55 -58 60 -61 107 -61 26 0 48 3 48 8 0 4 -27 18 -60 31 -33 13 -77 39
-98 56 l-37 33 39 16 c32 13 37 18 26 31 -19 23 -42 18 -83 -21z"/>
  <path d="M227 426 c-75 -10 -96 -26 -35 -26 15 0 28 -4 28 -8 0 -14 -60 -95
-84 -114 -35 -29 -2 -20 40 11 66 48 97 86 89 110 -6 19 -2 21 35 21 41 0 42
-1 35 -27 -12 -49 -34 -75 -60 -71 -22 5 -23 4 -8 -19 18 -27 45 -30 64 -7 7
8 23 41 36 72 31 78 23 82 -140 58z"/>
  <path d="M614 267 c3 -12 6 -75 6 -140 0 -97 3 -119 15 -124 9 -3 17 -4 19 -2
2 2 5 64 7 138 l4 134 -29 8 c-25 7 -27 6 -22 -14z"/>
  <path d="M275 192 c0 -59 -4 -72 -33 -114 -35 -51 -31 -61 12 -27 35 27 62 82
71 143 7 50 -1 66 -35 66 -12 0 -15 -14 -15 -68z"/>
  <path d="M495 255 c-5 -2 -37 -7 -70 -10 -47 -6 -55 -9 -41 -17 17 -9 105 -4
150 9 15 4 16 7 5 14 -14 9 -26 10 -44 4z"/>
  <path d="M448 186 c-116 -17 -107 -29 17 -21 117 8 135 12 114 26 -17 10 -31
10 -131 -5z"/>
</g>
<g id="part-3" class="char-part">
  <path d="M450 111 c0 -54 -2 -60 -22 -63 -22 -3 -22 -4 6 -23 28 -19 29 -19
43 1 21 29 14 138 -9 142 -16 3 -18 -5 -18 -57z"/>
  <path d="M348 96 c-35 -44 -35 -50 1 -31 38 19 63 44 56 56 -11 17 -30 9 -57
-25z"/>
  <path d="M544 101 c13 -24 34 -41 52 -41 14 0 0 42 -18 54 -37 26 -51 21 -34
-13z"/>
</g>
</g>
</svg>