<?xml version="1.0" standalone="no"?>
<!DOCTYPE svg PUBLIC "-//W3C//DTD SVG 20010904//EN"
 "http://www.w3.org/TR/2001/REC-SVG-20010904/DTD/svg10.dtd">
<svg version="1.0" xmlns="http://www.w3.org/2000/svg"
 width="96.000000pt" height="68.000000pt" viewBox="0 0 96.000000 68.000000"
 preserveAspectRatio="xMidYMid meet">
<metadata>
Created by potrace 1.16, written by Peter Selinger 2001-2019
Combined from part_0.svg through part_5.svg with named groups
</metadata>
<g transform="translate(0.000000,68.000000) scale(0.100000,-0.100000)" fill="#000000" stroke="none">
<g id="part-0" class="char-part">
  <path d="M258 541 c5 -55 -13 -152 -31 -163 -7 -4 -40 -8 -74 -8 -67 0 -75 -6
-43 -35 17 -16 27 -17 65 -8 47 11 53 6 35 -27 -9 -17 -4 -24 36 -48 l46 -29
-33 -28 c-19 -15 -53 -37 -76 -48 -24 -12 -43 -25 -43 -29 0 -21 78 3 137 44
23 15 44 28 48 28 3 0 18 -13 32 -30 15 -18 34 -30 49 -30 38 0 32 42 -12 77
l-35 28 24 55 c14 30 27 63 30 72 4 10 18 20 32 24 30 7 33 24 5 24 -11 0 -20
6 -20 14 0 16 -57 42 -68 31 -4 -4 -7 -19 -7 -33 0 -23 -5 -27 -36 -33 l-37
-6 15 50 c8 28 19 61 24 74 22 57 7 83 -45 83 -21 0 -23 -3 -18 -49z m92 -212
c-5 -19 -16 -43 -24 -54 -12 -16 -17 -17 -45 -6 -34 15 -35 18 -22 55 8 18 21
27 53 34 24 5 44 8 45 7 1 -1 -2 -17 -7 -36z"/>
  <path d="M610 555 c-19 -7 -61 -16 -92 -20 -32 -4 -58 -11 -58 -16 0 -14 58
-11 120 6 91 25 97 20 54 -45 -19 -29 -34 -40 -52 -40 -23 0 -24 -1 -10 -17 9
-10 18 -30 20 -45 5 -25 2 -28 -36 -33 -23 -3 -60 -7 -83 -8 -23 -2 -45 -6
-49 -10 -12 -12 49 -20 112 -14 l64 6 0 -63 c0 -35 -3 -78 -6 -96 -7 -31 -9
-32 -43 -26 l-36 5 37 -34 c21 -19 44 -35 51 -35 29 0 42 50 40 155 l-2 102
61 7 c34 3 78 6 99 6 44 0 51 16 13 30 -17 7 -49 6 -96 -1 -78 -12 -88 -7 -88
43 0 21 13 36 65 74 36 26 65 49 65 51 0 1 -13 9 -30 18 -34 18 -71 18 -120 0z"/>
</g>
<g id="part-1" class="char-part">
  <path d="M260 518 c0 -40 -5 -89 -10 -109 -9 -34 -14 -37 -56 -43 -26 -3 -61
-6 -78 -6 -30 -1 -30 -1 -11 -16 15 -12 33 -14 72 -10 l53 6 -12 -26 c-11 -24
-10 -29 10 -43 13 -9 33 -24 45 -34 l22 -17 -30 -26 c-16 -14 -47 -34 -68 -45
-22 -11 -37 -23 -34 -26 12 -11 69 11 112 44 l47 35 38 -37 c25 -24 44 -35 54
-32 26 10 18 34 -23 68 l-38 33 27 60 c15 34 30 69 34 79 3 9 15 17 26 17 11
0 20 5 20 10 0 6 -4 10 -10 10 -5 0 -19 9 -30 20 -11 11 -29 20 -41 20 -16 0
-20 -5 -17 -27 3 -24 -1 -28 -35 -36 -21 -5 -40 -7 -43 -4 -3 3 6 43 20 89
l26 83 -21 18 c-40 33 -49 23 -49 -55z m100 -165 c0 -10 -9 -37 -20 -60 -18
-41 -20 -42 -49 -32 -44 16 -51 29 -36 66 11 25 21 32 47 36 18 2 39 5 46 5 6
1 12 -6 12 -15z"/>
</g>
<g id="part-2" class="char-part">
  <path d="M611 555 c-25 -8 -69 -17 -98 -21 -29 -3 -53 -10 -53 -15 0 -14 58
-11 120 6 93 25 98 20 50 -51 -17 -24 -26 -44 -21 -44 10 0 151 99 151 106 0
2 -13 10 -30 19 -35 18 -61 18 -119 0z"/>
</g>
<g id="part-3" class="char-part">
  <path d="M569 426 c7 -8 16 -28 20 -44 l9 -30 -61 -7 c-34 -3 -75 -9 -91 -12
-26 -5 -27 -7 -11 -15 10 -6 47 -8 91 -4 l74 7 0 -64 c0 -36 -3 -79 -6 -97 -7
-30 -9 -32 -42 -26 l-35 5 34 -35 c45 -47 69 -42 87 16 9 31 11 70 6 126 l-6
81 62 6 c35 4 80 7 101 7 45 0 51 16 13 31 -18 6 -45 6 -82 -1 -83 -15 -90
-14 -97 20 -7 31 -30 50 -61 50 -13 0 -14 -3 -5 -14z"/>
</g>
</g>
</svg>