<?xml version="1.0" standalone="no"?>
<!DOCTYPE svg PUBLIC "-//W3C//DTD SVG 20010904//EN"
 "http://www.w3.org/TR/2001/REC-SVG-20010904/DTD/svg10.dtd">
<svg version="1.0" xmlns="http://www.w3.org/2000/svg"
 width="96.000000pt" height="68.000000pt" viewBox="0 0 96.000000 68.000000"
 preserveAspectRatio="xMidYMid meet">
<metadata>
Created by potrace 1.16, written by Peter Selinger 2001-2019
Combined from part_0.svg through part_5.svg with named groups
</metadata>
<g transform="translate(0.000000,68.000000) scale(0.100000,-0.100000)" fill="#000000" stroke="none">
<g id="part-0" class="char-part">
  <path d="M665 578 c-22 -5 -58 -10 -80 -11 -30 -1 -39 -6 -36 -17 1 -8 5 -42
7 -75 l3 -60 76 3 75 3 0 -133 c-1 -73 -4 -152 -7 -175 -5 -40 -6 -42 -34 -36
-39 7 -36 -6 8 -40 34 -25 38 -26 54 -11 16 14 18 43 21 277 4 308 7 298 -87
275z m40 -43 c0 -16 -10 -22 -55 -31 -65 -12 -70 -10 -70 21 0 26 19 34 85 31
33 -1 40 -5 40 -21z m5 -64 c0 -14 -10 -21 -37 -26 -21 -3 -48 -9 -60 -12 -19
-4 -23 -1 -23 20 0 22 5 26 38 30 79 8 82 8 82 -12z"/>
  <path d="M310 550 c-14 -4 -47 -8 -73 -9 l-49 -1 8 -42 c11 -66 8 -297 -5
-352 -13 -55 -6 -106 14 -106 20 0 23 18 31 174 4 84 11 149 17 153 6 4 36 7
66 8 61 2 57 -2 87 98 11 38 14 61 7 68 -14 14 -73 19 -103 9z m40 -45 c0 -14
-6 -25 -12 -25 -7 0 -30 -3 -50 -6 -34 -6 -38 -4 -38 15 0 13 8 22 23 25 49
11 62 14 70 15 4 0 7 -10 7 -24z m0 -70 c0 -13 -55 -35 -87 -35 -14 0 -18 32
-6 43 3 4 26 7 50 7 31 0 43 -4 43 -15z"/>
  <path d="M520 372 c0 -6 5 -14 10 -17 19 -12 10 -24 -22 -28 -22 -2 -16 -4 20
-5 l53 -2 -3 -32 c-2 -25 -8 -34 -24 -36 -17 -2 -23 4 -27 27 -4 17 -12 31
-18 31 -7 0 -9 -12 -5 -35 6 -32 5 -35 -17 -35 -13 0 -27 -3 -30 -7 -4 -3 -22
-8 -39 -9 -18 -2 -48 -6 -67 -9 -28 -5 -33 -4 -27 10 3 9 6 20 6 25 0 9 37 19
86 22 24 2 32 7 32 23 0 11 3 30 7 43 6 19 4 22 -21 22 -16 0 -40 -3 -54 -7
-25 -7 -25 -7 5 -13 23 -4 29 -10 27 -25 -5 -24 -20 -35 -51 -35 -21 0 -23 3
-17 30 5 27 3 30 -20 30 -20 0 -25 -4 -20 -17 10 -25 -13 -124 -36 -156 -11
-16 -18 -30 -16 -32 6 -6 35 20 48 45 14 25 14 25 25 -20 8 -31 16 -44 26 -41
8 2 30 6 51 9 34 4 36 6 43 48 l6 44 45 0 c40 0 44 -2 44 -25 0 -23 -4 -25
-42 -25 -32 0 -39 -3 -28 -10 8 -5 27 -10 43 -10 26 0 27 -2 27 -55 0 -30 4
-55 9 -55 13 0 21 27 21 71 0 41 10 51 56 53 13 1 26 5 29 8 10 10 -33 20 -54
13 -14 -4 -20 0 -23 19 -5 22 -1 25 49 31 33 4 51 10 47 17 -4 6 -23 8 -47 4
l-40 -7 17 26 c10 15 15 33 12 41 -3 9 1 14 14 14 11 0 20 5 20 11 0 7 -14 10
-35 7 -24 -3 -35 0 -35 9 0 7 -6 13 -14 13 -8 0 -21 3 -30 6 -9 3 -16 1 -16
-4z m-110 -192 c0 -23 -5 -31 -25 -36 -30 -8 -31 -7 -40 28 -6 23 -4 27 22 31
15 2 31 5 36 6 4 0 7 -12 7 -29z"/>
</g>
<g id="part-1" class="char-part">
  <path d="M290 545 c-30 -7 -66 -10 -79 -7 -21 4 -23 2 -17 -14 5 -10 11 -49
13 -86 l6 -68 51 6 c28 3 64 6 80 7 28 2 31 7 53 77 12 41 23 76 23 77 0 3
-63 23 -69 22 -3 -1 -31 -7 -61 -14z m70 -40 c0 -28 -4 -30 -67 -39 -42 -6
-43 -6 -43 23 0 31 9 36 83 40 23 1 27 -3 27 -24z m-10 -69 c0 -18 -7 -25 -31
-30 -57 -11 -69 -8 -69 18 0 20 6 25 33 29 66 8 67 8 67 -17z"/>
</g>
<g id="part-2" class="char-part">
  <path d="M708 255 c-2 -97 -8 -169 -14 -175 -8 -8 -19 -8 -39 0 -15 6 -29 9
-30 8 -2 -2 17 -20 41 -42 43 -37 46 -38 64 -21 19 17 20 32 20 207 0 177 -1
188 -19 188 -17 0 -19 -12 -23 -165z"/>
</g>
<g id="part-3" class="char-part">
  <path d="M347 347 c-43 -9 -48 -13 -43 -32 8 -31 -20 -131 -46 -169 -20 -28
-20 -30 -3 -16 34 25 55 54 65 92 10 34 14 37 58 43 62 9 74 13 67 25 -3 5 1
20 10 33 8 13 12 27 8 30 -9 9 -57 7 -116 -6z m65 -32 c-5 -24 -19 -35 -49
-35 -28 0 -32 34 -5 49 28 17 58 9 54 -14z"/>
</g>
<g id="part-4" class="char-part">
  <path d="M405 224 c-5 -1 -27 -5 -49 -9 l-38 -6 6 -42 c8 -46 20 -65 30 -48 4
6 24 11 44 11 36 0 38 2 48 45 6 25 8 45 5 46 -3 0 -13 2 -21 3 -8 2 -19 2
-25 0z m8 -26 c12 -38 -43 -79 -64 -47 -16 25 -10 47 14 52 40 8 45 7 50 -5z"/>
</g>
<g id="part-5" class="char-part">
  <path d="M542 141 c-1 -52 2 -82 9 -87 9 -5 10 1 5 20 -5 20 -4 26 5 20 8 -5
10 1 7 20 -4 17 0 33 11 43 15 15 14 16 -8 10 -18 -4 -21 -3 -12 6 15 15 14
47 -1 47 -9 0 -14 -24 -16 -79z"/>
  <path d="M608 173 c7 -3 16 -2 19 1 4 3 -2 6 -13 5 -11 0 -14 -3 -6 -6z"/>
</g>
</g>
</svg>