<?xml version="1.0" standalone="no"?>
<!DOCTYPE svg PUBLIC "-//W3C//DTD SVG 20010904//EN"
 "http://www.w3.org/TR/2001/REC-SVG-20010904/DTD/svg10.dtd">
<svg version="1.0" xmlns="http://www.w3.org/2000/svg"
 width="96.000000pt" height="68.000000pt" viewBox="0 0 96.000000 68.000000"
 preserveAspectRatio="xMidYMid meet">
<metadata>
Created by potrace 1.16, written by Peter Selinger 2001-2019
Combined from part_0.svg through part_5.svg with named groups
</metadata>
<g transform="translate(0.000000,68.000000) scale(0.100000,-0.100000)" fill="#000000" stroke="none">
<g id="part-0" class="char-part">
  <path d="M266 549 c5 -24 8 -62 9 -84 l0 -40 -62 -9 c-35 -5 -63 -12 -63 -17
0 -12 66 -22 95 -15 24 6 25 4 25 -38 0 -42 -1 -44 -47 -64 -27 -11 -60 -23
-76 -27 -37 -10 -42 -21 -15 -39 31 -22 47 -20 90 9 20 14 39 25 42 25 4 0 6
-30 6 -66 l0 -67 -42 7 -43 7 45 -46 c24 -25 50 -45 57 -45 24 0 33 39 33 139
l0 101 50 28 c72 40 63 59 -14 27 l-36 -15 0 34 c0 36 2 38 68 51 46 9 34 30
-16 30 -37 0 -42 3 -42 22 0 28 18 76 32 84 14 9 -29 37 -71 45 l-33 7 8 -44z"/>
  <path d="M552 486 c-101 -21 -126 -36 -80 -46 13 -3 25 -14 27 -25 10 -53 -54
-224 -104 -277 -36 -39 -7 -36 32 3 69 67 141 248 115 289 -14 22 -3 27 75 37
l55 6 -7 -34 c-4 -19 -14 -47 -22 -62 -25 -49 -12 -60 57 -52 l60 7 0 -31 c0
-43 -39 -156 -62 -180 -21 -23 -35 -25 -72 -11 -33 12 -32 3 3 -40 l29 -35 34
17 c40 19 89 103 108 188 7 30 17 61 23 69 9 10 7 17 -8 27 -21 15 -29 17 -92
14 -24 -1 -43 0 -43 3 0 2 13 28 30 58 59 106 40 115 -158 75z"/>
</g>
<g id="part-1" class="char-part">
  <path d="M276 504 c8 -87 4 -94 -63 -94 -23 0 -45 -4 -48 -10 -4 -6 17 -10 55
-10 l61 0 -3 -46 -3 -46 -60 -23 c-33 -13 -69 -26 -80 -30 -20 -6 -20 -7 -1
-21 28 -20 51 -18 96 11 22 14 42 25 46 25 11 0 -1 -129 -14 -142 -9 -9 -18
-9 -38 0 -24 12 -23 9 11 -33 21 -25 41 -45 46 -45 4 0 15 10 23 22 12 17 16
48 16 123 l0 101 40 23 c52 29 62 46 15 27 -52 -22 -55 -21 -55 23 0 38 0 39
46 46 58 8 55 31 -5 27 -48 -4 -50 2 -25 74 14 43 14 47 -3 60 -10 7 -28 14
-41 14 -22 0 -23 -1 -16 -76z"/>
</g>
<g id="part-2" class="char-part">
  <path d="M575 489 c-44 -9 -93 -18 -108 -18 -18 -1 -27 -6 -24 -13 5 -16 59
-15 150 2 37 7 70 10 74 6 4 -4 -1 -28 -11 -54 -27 -70 -26 -86 6 -90 22 -3
27 0 22 12 -3 8 10 46 30 83 34 63 35 69 19 81 -21 15 -58 14 -158 -9z"/>
</g>
<g id="part-3" class="char-part">
  <path d="M493 366 c-12 -77 -54 -172 -102 -235 l-26 -34 24 13 c54 29 109 114
146 225 26 81 23 105 -14 105 -13 0 -19 -17 -28 -74z"/>
</g>
<g id="part-4" class="char-part">
  <path d="M728 352 c-48 -4 -50 -22 -3 -22 32 0 35 -3 35 -28 0 -45 -30 -134
-57 -170 -26 -35 -42 -37 -98 -16 -17 7 -15 2 9 -27 40 -47 51 -52 85 -35 41
22 81 108 122 265 5 19 -47 37 -93 33z"/>
</g>
</g>
</svg>