<?xml version="1.0" standalone="no"?>
<!DOCTYPE svg PUBLIC "-//W3C//DTD SVG 20010904//EN"
 "http://www.w3.org/TR/2001/REC-SVG-20010904/DTD/svg10.dtd">
<svg version="1.0" xmlns="http://www.w3.org/2000/svg"
 width="96.000000pt" height="68.000000pt" viewBox="0 0 96.000000 68.000000"
 preserveAspectRatio="xMidYMid meet">
<metadata>
Created by potrace 1.16, written by Peter Selinger 2001-2019
Combined from part_0.svg through part_5.svg with named groups
</metadata>
<g transform="translate(0.000000,68.000000) scale(0.100000,-0.100000)" fill="#000000" stroke="none">
<g id="part-0" class="char-part">
  <path d="M212 508 c-17 -35 -45 -77 -62 -95 -24 -24 -30 -38 -25 -53 5 -17 12
-20 31 -16 13 3 36 9 51 13 l27 6 -23 -31 c-12 -17 -34 -40 -48 -52 -23 -18
-25 -23 -12 -35 12 -13 22 -11 78 11 45 19 66 23 74 15 16 -16 27 -13 27 7 0
18 -29 52 -44 52 -4 0 -5 -9 -1 -19 5 -16 -1 -22 -32 -30 -66 -19 -69 -12 -15
42 29 29 49 56 46 60 -4 4 -1 7 7 7 8 0 22 12 32 26 15 20 16 28 7 39 -19 23
-28 18 -41 -19 -9 -26 -20 -36 -42 -40 -59 -12 -60 -7 -10 57 65 82 66 83 47
101 -26 27 -40 18 -72 -46z"/>
  <path d="M511 535 c-68 -6 -135 -10 -150 -7 -24 5 -25 4 -11 -13 17 -20 40
-82 40 -108 0 -16 6 -18 40 -14 38 4 40 3 40 -23 0 -26 -3 -28 -59 -34 l-59
-7 5 -77 c6 -100 7 -104 38 -97 14 3 36 7 50 10 21 5 25 2 25 -18 0 -33 26
-65 67 -82 76 -32 303 -11 303 28 0 16 -34 86 -42 87 -3 0 -9 -14 -13 -31 -10
-45 -57 -62 -160 -57 -123 5 -118 -6 -114 230 l4 198 27 0 28 0 2 -177 c3
-152 5 -177 18 -174 8 1 41 5 72 8 l58 6 11 41 c5 22 15 56 20 74 19 57 8 66
-71 58 l-70 -6 0 30 c0 25 4 30 24 30 51 0 86 12 86 30 0 10 12 33 27 50 26
31 26 33 8 46 -22 16 -71 16 -244 -1z m176 -21 c3 -9 -1 -31 -10 -50 -13 -25
-23 -34 -42 -34 -23 0 -25 4 -25 43 0 24 3 47 7 50 13 14 64 7 70 -9z m-217
-55 c0 -49 -1 -50 -27 -47 -16 2 -28 8 -28 13 -1 6 -4 23 -8 38 -10 36 -5 42
32 45 31 2 31 2 31 -49z m240 -136 c0 -29 -13 -38 -57 -41 -42 -4 -43 -3 -43
26 0 28 2 29 50 31 42 1 50 -2 50 -16z m-240 -27 c0 -32 -2 -34 -40 -38 -27
-2 -40 1 -41 9 -5 46 -3 48 31 54 19 4 38 7 43 8 4 0 7 -14 7 -33z m228 -58
c-3 -31 -6 -33 -45 -36 -38 -3 -43 -1 -43 17 0 12 0 24 0 29 -1 6 39 17 78 21
9 1 12 -9 10 -31z m-228 -24 c0 -35 -1 -35 -37 -32 -33 3 -38 7 -41 30 -3 23
1 27 30 31 18 2 36 5 41 5 4 1 7 -14 7 -34z"/>
  <path d="M280 225 c0 -11 35 -45 47 -45 19 0 16 21 -4 36 -18 13 -43 19 -43 9z"/>
  <path d="M200 202 c0 -16 32 -52 46 -52 22 0 17 27 -8 44 -25 17 -38 20 -38 8z"/>
  <path d="M100 184 c0 -17 45 -84 56 -84 37 0 25 54 -16 75 -32 16 -40 18 -40
9z"/>
</g>
<g id="part-1" class="char-part">
  <path d="M243 558 c-4 -7 -17 -34 -29 -59 -12 -25 -36 -62 -54 -82 -42 -48
-35 -72 17 -62 21 4 47 12 58 18 18 11 17 12 -13 17 l-34 5 51 67 c28 37 51
72 51 77 0 18 -38 33 -47 19z"/>
</g>
<g id="part-2" class="char-part">
  <path d="M280 222 c0 -12 34 -42 48 -42 18 0 14 21 -5 36 -20 15 -43 18 -43 6z"/>
  <path d="M200 201 c0 -13 40 -61 51 -61 5 0 9 11 9 23 0 16 -9 28 -25 35 -31
14 -35 15 -35 3z"/>
  <path d="M117 145 c28 -51 40 -62 55 -47 17 17 0 61 -32 77 -46 24 -50 18 -23
-30z"/>
</g>
<g id="part-3" class="char-part">
  <path d="M353 511 c8 -9 18 -32 22 -51 17 -78 16 -78 82 -65 l58 11 3 43 c5
66 -14 80 -105 79 -67 0 -73 -2 -60 -17z m117 -51 c0 -46 -2 -50 -24 -50 -24
0 -27 5 -40 62 -6 27 2 34 47 37 14 1 17 -8 17 -49z"/>
</g>
<g id="part-4" class="char-part">
  <path d="M563 541 c-72 -7 -95 -21 -35 -21 l42 0 2 -177 c3 -153 5 -177 18
-174 8 2 40 6 71 9 l57 4 22 78 c12 43 19 84 15 90 -6 9 -28 11 -79 6 l-72 -6
1 26 c0 30 0 30 67 39 26 3 47 9 47 13 -3 19 3 33 28 62 26 31 26 33 8 46 -19
14 -78 16 -192 5z m124 -48 c-7 -41 -29 -63 -61 -63 -19 0 -21 5 -18 50 l4 50
40 0 41 0 -6 -37z m21 -180 c-3 -26 -7 -28 -50 -31 -47 -3 -48 -3 -48 28 0 29
1 30 51 30 49 0 50 -1 47 -27z m-10 -75 c-3 -30 -6 -33 -44 -36 -39 -3 -42 -2
-46 27 -4 28 -2 30 31 34 20 2 42 4 49 5 9 1 12 -8 10 -30z"/>
  <path d="M470 370 c0 -16 -3 -29 -7 -28 -5 1 -32 -1 -61 -5 l-52 -8 6 -57 c8
-86 12 -114 16 -117 2 -1 33 2 71 7 l67 10 0 114 c0 107 -1 114 -20 114 -16 0
-20 -7 -20 -30z m0 -74 c0 -29 -4 -34 -28 -38 -42 -6 -52 0 -52 32 0 29 4 31
68 39 7 0 12 -12 12 -33z m0 -81 c0 -34 -1 -35 -40 -35 -38 0 -40 2 -40 29 0
26 4 30 33 34 17 2 35 5 40 5 4 1 7 -14 7 -33z"/>
</g>
<g id="part-5" class="char-part">
  <path d="M480 140 c0 -27 39 -69 70 -76 47 -10 180 -12 173 -2 -3 6 6 8 25 3
18 -3 33 -2 37 5 3 5 10 8 14 5 5 -2 17 3 27 11 15 13 16 15 2 10 -17 -5 -33
20 -18 29 10 6 2 35 -10 35 -4 0 -11 -11 -14 -25 -10 -38 -50 -52 -143 -50
-44 2 -86 6 -92 9 -6 4 -15 5 -20 1 -5 -3 -12 4 -16 15 -3 11 -11 20 -16 20
-6 0 -8 4 -4 9 3 5 1 12 -5 16 -5 3 -10 -3 -10 -15z"/>
</g>
</g>
</svg>