<?xml version="1.0" standalone="no"?>
<!DOCTYPE svg PUBLIC "-//W3C//DTD SVG 20010904//EN"
 "http://www.w3.org/TR/2001/REC-SVG-20010904/DTD/svg10.dtd">
<svg version="1.0" xmlns="http://www.w3.org/2000/svg"
 width="96.000000pt" height="68.000000pt" viewBox="0 0 96.000000 68.000000"
 preserveAspectRatio="xMidYMid meet">
<metadata>
Created by potrace 1.16, written by Peter Selinger 2001-2019
Combined from part_0.svg through part_5.svg with named groups
</metadata>
<g transform="translate(0.000000,68.000000) scale(0.100000,-0.100000)" fill="#000000" stroke="none">
<g id="part-0" class="char-part">
  <path d="M420 585 c-63 -7 -121 -13 -128 -14 -7 -1 -10 -5 -7 -11 3 -5 37 -10
76 -10 67 0 69 -1 69 -25 0 -27 -9 -28 -173 -30 -43 0 -49 -4 -73 -37 -22 -31
-25 -40 -14 -53 16 -20 44 -5 59 33 12 28 17 29 104 40 50 6 93 9 95 7 3 -2 5
-35 6 -72 1 -53 4 -68 16 -68 12 0 16 17 18 78 l3 77 37 0 c20 0 67 3 105 7
75 7 84 -2 45 -45 l-23 -24 30 8 c17 4 40 11 53 15 12 5 28 8 35 6 23 -4 12
37 -13 51 -25 13 -130 11 -222 -4 -34 -6 -38 -4 -38 14 0 25 18 32 80 32 27 0
52 5 55 10 7 11 -37 31 -63 29 -9 -1 -69 -8 -132 -14z"/>
  <path d="M551 455 c-26 -28 -15 -32 38 -14 25 9 29 14 20 25 -16 20 -31 17
-58 -11z"/>
  <path d="M315 435 c38 -18 58 -19 53 -2 -3 6 -22 13 -44 14 l-39 2 30 -14z"/>
  <path d="M345 390 c-11 -5 -39 -9 -62 -9 -45 -1 -53 -10 -29 -30 15 -13 64 2
108 34 24 16 15 19 -17 5z"/>
  <path d="M520 391 c0 -9 71 -41 90 -41 20 0 9 27 -15 38 -31 14 -75 16 -75 3z"/>
  <path d="M317 321 c-6 -28 -64 -98 -102 -120 l-20 -12 20 4 c11 3 28 8 38 12
15 6 17 0 17 -63 0 -68 1 -71 33 -94 31 -22 40 -23 217 -23 166 0 188 2 218
20 37 22 39 36 12 85 l-18 35 -8 -30 c-16 -65 -50 -75 -249 -75 -160 0 -175 4
-175 47 0 28 7 31 79 36 47 3 55 6 56 25 1 12 10 31 20 42 16 18 17 23 5 30
-20 13 -35 12 -95 -4 -55 -15 -77 -7 -51 20 17 16 151 43 224 44 30 0 32 -2
32 -37 0 -21 -9 -53 -20 -71 -18 -28 -25 -33 -46 -28 l-26 7 19 -25 c24 -34
35 -37 61 -16 26 22 78 168 64 182 -12 12 -82 11 -172 -1 -62 -8 -66 -8 -83
15 -25 32 -43 30 -50 -5z m87 -110 c13 -20 -8 -41 -47 -49 -47 -10 -61 -4 -51
22 11 29 85 49 98 27z"/>
</g>
<g id="part-1" class="char-part">
  <path d="M475 585 c-5 -2 -50 -7 -99 -10 -67 -5 -85 -10 -72 -17 11 -6 61 -7
129 -4 133 8 179 15 171 27 -5 8 -107 12 -129 4z"/>
</g>
<g id="part-2" class="char-part">
  <path d="M600 525 c-151 -24 -360 -38 -374 -25 -11 8 -20 1 -40 -34 -27 -46
-26 -79 3 -74 9 2 25 19 35 39 l19 35 136 17 c197 25 301 32 301 20 0 -6 -10
-23 -22 -39 -19 -24 -20 -27 -4 -21 10 4 36 10 59 13 54 9 72 21 55 41 -13 16
-62 44 -75 42 -4 -1 -46 -7 -93 -14z"/>
</g>
<g id="part-3" class="char-part">
  <path d="M315 323 c-3 -16 -29 -52 -58 -80 -28 -29 -48 -53 -45 -53 19 0 67
27 98 56 28 25 47 33 93 38 31 3 82 9 113 13 l57 6 -5 -46 c-8 -65 -32 -101
-65 -92 l-25 6 22 -31 c25 -34 28 -35 57 -15 19 13 81 171 71 181 -16 15 -63
18 -146 8 -97 -12 -97 -12 -115 12 -25 32 -43 30 -52 -3z"/>
</g>
<g id="part-4" class="char-part">
  <path d="M385 240 c-11 -5 -34 -9 -52 -9 -55 -2 -63 -9 -63 -58 l0 -44 63 6
c88 9 109 14 101 26 -3 6 4 25 16 41 18 25 20 32 9 39 -17 11 -48 10 -74 -1z
m21 -36 c-3 -9 -6 -19 -6 -24 0 -11 -83 -31 -93 -21 -12 12 3 42 27 51 12 5
34 9 50 9 22 1 27 -3 22 -15z"/>
</g>
<g id="part-5" class="char-part">
  <path d="M726 134 c-4 -10 -1 -21 6 -26 10 -6 8 -8 -4 -8 -10 0 -18 -4 -18 -9
0 -25 -89 -40 -241 -42 -123 -2 -174 11 -174 43 0 9 -4 20 -9 25 -5 4 -6 3 -3
-4 4 -6 1 -13 -5 -16 -15 -5 31 -54 45 -49 5 1 16 -3 23 -9 17 -14 240 -18
324 -6 30 4 65 16 78 25 l22 17 -18 39 c-16 31 -20 35 -26 20z m-19 -80 c-3
-3 -12 -4 -19 -1 -8 3 -5 6 6 6 11 1 17 -2 13 -5z"/>
</g>
</g>
</svg>