<?xml version="1.0" standalone="no"?>
<!DOCTYPE svg PUBLIC "-//W3C//DTD SVG 20010904//EN"
 "http://www.w3.org/TR/2001/REC-SVG-20010904/DTD/svg10.dtd">
<svg version="1.0" xmlns="http://www.w3.org/2000/svg"
 width="96.000000pt" height="68.000000pt" viewBox="0 0 96.000000 68.000000"
 preserveAspectRatio="xMidYMid meet">
<metadata>
Created by potrace 1.16, written by Peter Selinger 2001-2019
Combined from part_0.svg through part_5.svg with named groups
</metadata>
<g transform="translate(0.000000,68.000000) scale(0.100000,-0.100000)" fill="#000000" stroke="none">
<g id="part-0" class="char-part">
  <path d="M610 589 c0 -49 -16 -69 -55 -69 -46 0 -54 -17 -10 -26 38 -7 40 -10
25 -48 -15 -42 13 -32 44 14 25 38 29 40 79 40 73 0 101 9 86 26 -7 9 -32 14
-65 14 -53 0 -54 0 -42 25 14 30 -3 55 -38 55 -20 0 -24 -5 -24 -31z"/>
  <path d="M327 584 c-3 -4 0 -19 8 -35 8 -15 15 -30 15 -34 0 -3 -27 -5 -61 -5
-52 0 -60 -2 -57 -17 5 -26 53 -47 77 -33 32 17 57 12 69 -15 17 -38 40 -32
44 12 2 30 8 38 27 43 14 3 27 12 29 19 4 11 -4 13 -32 8 -31 -5 -36 -3 -36
13 0 36 -60 67 -83 44z"/>
  <path d="M460 462 c0 -5 9 -17 20 -27 11 -10 17 -21 15 -25 -3 -4 -44 -11 -92
-15 -101 -8 -109 -11 -88 -31 19 -19 19 -42 0 -123 -13 -55 -44 -122 -64 -141
-4 -3 -19 -20 -36 -39 l-30 -33 31 15 c39 20 92 79 112 126 8 20 25 72 37 116
l21 80 65 7 c35 3 113 9 172 13 75 5 107 11 104 18 -3 8 -35 11 -101 10 -83
-2 -96 0 -96 14 0 9 -8 22 -17 29 -20 15 -53 18 -53 6z"/>
  <path d="M475 331 c-3 -16 -22 -47 -41 -70 -41 -47 -35 -52 18 -16 20 14 49
25 63 25 25 0 26 -3 23 -42 l-3 -43 -87 -9 c-49 -4 -88 -12 -88 -16 0 -13 54
-19 100 -10 25 5 48 5 52 1 14 -13 -49 -76 -101 -101 -28 -14 -51 -28 -51 -33
0 -19 116 27 155 61 11 9 27 31 35 47 21 42 26 45 110 46 41 1 89 5 105 9 l30
7 -28 11 c-17 8 -55 9 -102 5 l-74 -6 3 39 c4 38 4 39 50 44 26 3 45 10 44 15
-3 11 -36 11 -125 -2 -35 -6 -63 -7 -63 -5 0 3 7 14 16 24 14 14 14 20 4 33
-19 23 -38 18 -45 -14z"/>
  <path d="M220 310 c22 -31 60 -41 60 -16 0 18 -38 46 -63 46 -17 0 -17 -2 3
-30z"/>
  <path d="M235 209 c-22 -10 -48 -19 -57 -19 -21 0 -23 -11 -6 -28 18 -18 29
-14 78 28 49 44 46 48 -15 19z"/>
  <path d="M670 68 c73 -63 98 -74 107 -51 3 8 2 23 -3 32 -13 22 -112 71 -142
71 -21 0 -15 -7 38 -52z"/>
</g>
<g id="part-1" class="char-part">
  <path d="M615 608 c-2 -7 -6 -29 -7 -48 -3 -32 -6 -35 -41 -41 -51 -8 -56 -16
-12 -25 25 -4 35 -11 31 -20 -3 -8 -9 -21 -12 -29 -12 -29 16 -15 38 19 23 35
56 45 142 46 30 1 30 1 11 16 -14 11 -34 14 -63 11 -46 -5 -47 -3 -28 44 5 11
-1 19 -19 27 -32 15 -35 15 -40 0z"/>
  <path d="M335 580 c-3 -5 1 -23 9 -39 15 -28 15 -29 -16 -35 -17 -3 -46 -6
-64 -6 -40 0 -44 -11 -9 -30 20 -10 33 -11 64 -2 51 16 50 16 61 -13 14 -36
30 -31 30 9 0 31 3 34 35 40 48 9 44 25 -5 19 -38 -5 -40 -4 -40 21 0 19 -7
29 -26 36 -31 12 -31 12 -39 0z"/>
</g>
<g id="part-2" class="char-part">
  <path d="M473 442 c15 -15 27 -31 27 -34 0 -3 -45 -9 -100 -13 -55 -4 -103
-11 -106 -16 -3 -5 2 -9 10 -9 23 0 29 -41 16 -107 -16 -74 -48 -137 -97 -190
-53 -57 -29 -55 35 2 54 49 81 101 108 210 9 39 20 73 23 77 3 4 84 12 178 19
150 11 171 14 161 27 -10 12 -30 13 -105 8 -89 -6 -93 -6 -93 14 0 20 -33 40
-68 40 -12 0 -9 -7 11 -28z"/>
  <path d="M206 328 c16 -29 38 -48 56 -48 23 0 24 29 1 46 -23 18 -67 19 -57 2z"/>
  <path d="M256 220 c-16 -10 -44 -21 -62 -25 -36 -6 -41 -14 -22 -33 21 -21 43
-13 83 28 43 44 44 59 1 30z"/>
</g>
<g id="part-3" class="char-part">
  <path d="M471 324 c-7 -20 -30 -55 -50 -77 -31 -34 -32 -38 -11 -27 14 7 36
21 50 30 17 12 56 19 124 24 103 7 146 18 110 30 -10 3 -58 0 -107 -8 l-87
-13 16 25 c16 24 15 26 -2 39 -26 19 -28 17 -43 -23z"/>
</g>
<g id="part-4" class="char-part">
  <path d="M553 262 c-6 -4 -13 -23 -15 -42 l-3 -35 -87 -9 c-49 -5 -88 -12 -88
-16 0 -13 45 -17 101 -10 30 4 56 6 58 4 12 -10 -62 -82 -110 -107 -66 -35
-72 -40 -34 -32 96 22 160 65 185 125 12 30 13 30 94 31 44 1 95 5 111 9 l30
7 -30 12 c-28 12 -70 10 -148 -5 -27 -6 -28 -5 -25 32 3 39 -12 53 -39 36z"/>
  <path d="M662 74 c29 -25 65 -52 81 -60 24 -13 28 -13 33 1 11 27 -23 63 -81
84 -84 32 -92 26 -33 -25z"/>
</g>
</g>
</svg>