<?xml version="1.0" standalone="no"?>
<!DOCTYPE svg PUBLIC "-//W3C//DTD SVG 20010904//EN"
 "http://www.w3.org/TR/2001/REC-SVG-20010904/DTD/svg10.dtd">
<svg version="1.0" xmlns="http://www.w3.org/2000/svg"
 width="96.000000pt" height="68.000000pt" viewBox="0 0 96.000000 68.000000"
 preserveAspectRatio="xMidYMid meet">
<metadata>
Created by potrace 1.16, written by Peter Selinger 2001-2019
Combined from part_0.svg through part_5.svg with named groups
</metadata>
<g transform="translate(0.000000,68.000000) scale(0.100000,-0.100000)" fill="#000000" stroke="none">
<g id="part-0" class="char-part">
  <path d="M510 596 c0 -7 7 -20 17 -27 14 -12 12 -15 -23 -21 -21 -4 -58 -7
-81 -7 -25 -1 -43 -6 -43 -12 0 -8 21 -10 73 -5 39 4 117 9 172 12 119 6 141
12 105 26 -14 5 -53 7 -87 3 -52 -5 -63 -4 -63 8 0 8 -14 20 -31 26 -40 14
-39 14 -39 -3z"/>
  <path d="M206 543 c4 -10 10 -46 12 -80 l4 -62 -39 -6 c-55 -9 -65 -14 -58
-25 3 -5 26 -10 51 -10 l45 0 -3 -62 -3 -63 -65 -17 c-36 -9 -67 -17 -70 -18
-12 -2 44 -40 60 -40 24 0 220 92 220 104 0 7 -25 4 -72 -10 -16 -5 -18 2 -18
54 l0 60 35 6 c60 12 60 40 0 40 -27 0 -34 4 -31 16 2 8 7 37 11 64 8 56 0 66
-54 66 -28 0 -32 -3 -25 -17z"/>
  <path d="M523 497 c-46 -6 -83 -14 -83 -19 0 -4 4 -8 9 -8 5 0 14 -13 19 -29
10 -27 11 -28 58 -21 27 4 63 6 80 3 26 -4 35 0 53 25 45 63 29 69 -136 49z
m97 -32 c0 -24 -2 -25 -64 -25 -58 0 -88 11 -72 27 6 6 62 17 109 21 23 2 27
-2 27 -23z"/>
  <path d="M670 399 c-133 -19 -265 -27 -273 -15 -9 13 -35 -17 -44 -52 -10 -42
14 -49 36 -10 l21 34 150 13 c83 8 154 10 158 7 3 -4 1 -15 -5 -25 -17 -27 -8
-30 39 -16 51 14 59 32 27 56 -26 20 -28 20 -109 8z"/>
  <path d="M518 327 c-38 -5 -68 -13 -68 -18 0 -5 7 -9 16 -9 28 0 9 -24 -42
-52 -56 -32 -43 -38 16 -8 91 47 91 14 0 -48 -75 -50 -81 -55 -55 -46 50 16
112 48 133 67 17 16 25 18 34 9 15 -15 -15 -40 -126 -106 -46 -27 -69 -45 -53
-42 36 9 123 49 166 77 l34 23 -7 -44 c-9 -57 -23 -73 -58 -68 -34 5 -34 5 -6
-27 47 -54 98 -11 107 89 l6 65 42 -39 c57 -51 99 -65 155 -49 36 10 40 13 23
20 -11 4 -31 8 -45 9 -30 1 -153 60 -158 76 -1 6 16 19 38 28 24 9 40 22 37
29 -8 24 -37 18 -63 -12 -31 -38 -41 -38 -92 -5 -38 25 -39 27 -22 44 9 9 38
20 64 24 25 4 46 11 46 17 0 11 -30 10 -122 -4z"/>
</g>
<g id="part-1" class="char-part">
  <path d="M218 475 l5 -85 -31 0 c-58 0 -71 -15 -17 -20 l50 -5 0 -65 0 -65
-67 -19 c-38 -11 -68 -23 -68 -27 0 -3 13 -12 28 -18 26 -11 38 -7 122 34 105
50 133 70 79 55 -18 -6 -37 -10 -41 -10 -5 0 -8 29 -8 65 0 62 1 65 24 65 33
0 57 10 50 21 -3 5 -21 9 -41 9 l-36 0 6 48 c3 26 8 54 12 63 5 12 -2 20 -26
28 -18 6 -35 11 -39 11 -3 0 -4 -38 -2 -85z"/>
</g>
<g id="part-2" class="char-part">
  <path d="M510 598 c0 -6 7 -19 16 -29 15 -16 11 -18 -65 -25 -45 -3 -81 -11
-81 -17 0 -6 26 -8 73 -3 39 4 123 9 185 13 61 3 112 10 112 14 0 15 -41 20
-105 14 -55 -6 -65 -5 -65 8 0 8 -14 20 -31 26 -39 14 -39 14 -39 -1z"/>
</g>
<g id="part-3" class="char-part">
  <path d="M523 496 l-81 -11 19 -38 c11 -21 24 -35 28 -32 5 3 41 6 80 6 66 1
73 3 91 29 44 61 24 68 -137 46z m97 -30 c0 -22 -4 -23 -64 -25 -48 -1 -65 2
-69 13 -5 11 4 17 31 21 20 4 44 8 52 10 40 8 50 5 50 -19z"/>
</g>
<g id="part-4" class="char-part">
  <path d="M647 254 c-11 -14 -27 -28 -38 -32 -23 -9 -17 -18 53 -74 66 -54 99
-64 153 -45 l40 14 -35 7 c-87 18 -199 67 -200 86 0 3 19 13 43 21 44 17 56
42 22 46 -12 2 -27 -7 -38 -23z"/>
</g>
</g>
</svg>