<?xml version="1.0" standalone="no"?>
<!DOCTYPE svg PUBLIC "-//W3C//DTD SVG 20010904//EN"
 "http://www.w3.org/TR/2001/REC-SVG-20010904/DTD/svg10.dtd">
<svg version="1.0" xmlns="http://www.w3.org/2000/svg"
 width="96.000000pt" height="68.000000pt" viewBox="0 0 96.000000 68.000000"
 preserveAspectRatio="xMidYMid meet">
<metadata>
Created by potrace 1.16, written by Peter Selinger 2001-2019
Combined from part_0.svg through part_5.svg with named groups
</metadata>
<g transform="translate(0.000000,68.000000) scale(0.100000,-0.100000)" fill="#000000" stroke="none">
<g id="part-0" class="char-part">
  <path d="M311 563 c-15 -54 -73 -136 -149 -210 -36 -35 -63 -65 -60 -68 8 -8
84 35 127 71 l41 36 0 -61 c0 -33 -5 -94 -11 -136 -12 -82 -3 -125 26 -125 20
0 24 22 33 179 6 106 5 137 -6 153 -12 17 -10 25 24 74 21 30 44 60 51 66 29
23 2 58 -46 58 -15 0 -23 -10 -30 -37z"/>
  <path d="M568 560 c2 -23 1 -65 -3 -94 l-6 -54 -82 -8 c-45 -4 -90 -6 -99 -5
-10 1 -18 -2 -18 -8 0 -16 52 -22 120 -12 36 5 68 7 71 5 6 -4 -9 -105 -17
-113 -2 -3 -31 -4 -63 -3 l-60 2 25 -43 c13 -23 24 -55 24 -70 0 -41 18 -71
35 -57 7 6 44 13 81 16 38 3 80 7 94 9 14 2 33 4 42 4 11 1 15 6 12 16 -3 8
10 36 30 64 l37 50 -26 17 c-21 13 -39 15 -101 9 l-77 -7 8 49 c4 26 11 53 16
59 5 6 46 12 93 13 46 1 96 6 112 10 l29 8 -27 13 c-21 10 -46 11 -110 3 -46
-6 -86 -9 -89 -7 -4 2 2 36 13 76 18 69 18 73 2 85 -10 7 -29 13 -44 13 -24 0
-25 -3 -22 -40z m118 -353 l-7 -54 -61 -7 c-105 -11 -128 -8 -128 13 0 10 -3
32 -6 48 -6 29 -5 30 53 41 54 11 143 20 152 15 2 -1 0 -26 -3 -56z"/>
</g>
<g id="part-1" class="char-part">
  <path d="M316 567 c-9 -48 -54 -114 -137 -201 -39 -42 -67 -76 -62 -76 14 0
96 55 117 78 11 12 23 22 28 22 12 0 10 -173 -4 -224 -10 -38 -9 -48 6 -71 30
-45 39 -17 48 141 6 119 5 150 -7 167 -13 18 -9 26 40 93 l55 73 -22 16 c-36
24 -55 19 -62 -18z"/>
</g>
<g id="part-2" class="char-part">
  <path d="M568 548 c2 -35 0 -79 -5 -98 l-9 -35 -96 -10 c-53 -5 -100 -13 -103
-17 -13 -13 62 -19 129 -10 l68 9 -6 -52 c-6 -57 -3 -65 24 -58 12 3 20 18 24
46 10 67 15 70 113 74 48 2 99 6 113 9 25 6 25 6 5 21 -16 11 -37 13 -99 8
-43 -4 -85 -9 -94 -12 -12 -5 -14 1 -7 43 4 27 14 62 22 77 13 26 13 30 -4 43
-10 7 -26 14 -35 14 -9 0 -23 2 -30 5 -11 5 -13 -7 -10 -57z"/>
</g>
<g id="part-3" class="char-part">
  <path d="M680 289 c-19 -4 -87 -11 -152 -14 l-116 -7 24 -46 c13 -25 24 -57
24 -72 0 -33 26 -70 38 -53 4 6 43 15 87 18 120 9 145 14 139 28 -2 7 11 35
30 62 25 35 32 52 25 61 -17 21 -62 31 -99 23z m10 -53 c0 -12 -5 -37 -10 -53
-10 -28 -15 -31 -72 -37 -105 -11 -106 -10 -117 32 -6 20 -11 42 -11 48 0 13
84 31 158 33 48 1 52 -1 52 -23z"/>
</g>
</g>
</svg>