<?xml version="1.0" standalone="no"?>
<!DOCTYPE svg PUBLIC "-//W3C//DTD SVG 20010904//EN"
 "http://www.w3.org/TR/2001/REC-SVG-20010904/DTD/svg10.dtd">
<svg version="1.0" xmlns="http://www.w3.org/2000/svg"
 width="96.000000pt" height="68.000000pt" viewBox="0 0 96.000000 68.000000"
 preserveAspectRatio="xMidYMid meet">
<metadata>
Created by potrace 1.16, written by Peter Selinger 2001-2019
Combined from part_0.svg through part_5.svg with named groups
</metadata>
<g transform="translate(0.000000,68.000000) scale(0.100000,-0.100000)" fill="#000000" stroke="none">
<g id="part-0" class="char-part">
  <path d="M504 603 c-4 -16 -18 -45 -31 -65 -12 -21 -23 -42 -23 -48 0 -13 51
12 69 33 8 10 41 18 95 22 92 8 121 18 96 35 -14 10 -80 6 -122 -6 -14 -4 -16
-1 -11 12 4 11 -1 22 -12 30 -30 22 -54 17 -61 -13z"/>
  <path d="M270 594 c-6 -14 -10 -28 -10 -32 0 -4 -18 -29 -40 -57 -49 -61 -30
-75 29 -22 34 31 45 35 119 41 65 6 82 11 82 23 0 13 -10 15 -67 9 -55 -6 -66
-5 -55 5 20 21 14 36 -18 48 -28 9 -32 8 -40 -15z"/>
  <path d="M550 522 c0 -17 47 -52 68 -52 28 0 30 35 3 50 -23 12 -71 13 -71 2z"/>
  <path d="M297 475 c19 -26 63 -34 63 -12 0 21 -22 37 -52 37 -29 0 -29 0 -11
-25z"/>
  <path d="M400 460 c0 -5 8 -14 18 -19 29 -17 -2 -28 -100 -36 -48 -4 -91 -12
-94 -17 -5 -7 17 -9 62 -5 38 3 134 10 214 17 164 12 188 17 150 32 -14 5 -57
6 -100 2 -75 -7 -82 -7 -77 -1 1 2 -4 11 -12 20 -14 18 -61 23 -61 7z"/>
  <path d="M422 356 c-35 -7 -76 -11 -90 -9 -23 4 -25 2 -12 -9 8 -7 20 -26 25
-43 6 -16 14 -29 18 -28 4 0 45 4 92 8 64 6 85 11 85 22 0 8 7 21 15 29 21 21
19 31 -7 38 -30 8 -51 6 -126 -8z m78 -31 c0 -18 -7 -24 -37 -29 -60 -9 -90
-7 -96 8 -8 20 11 32 58 35 22 2 41 4 43 5 11 11 32 -1 32 -19z"/>
  <path d="M450 239 c-96 -11 -197 -17 -224 -14 -47 6 -48 5 -41 -17 4 -13 10
-58 13 -100 4 -42 10 -80 14 -83 18 -18 28 13 28 89 l0 83 123 11 c67 7 164
15 215 18 l92 7 0 -75 c0 -87 -11 -105 -55 -88 -15 6 -29 9 -31 7 -2 -2 10
-20 27 -40 58 -68 104 -36 119 81 4 37 11 77 15 89 6 17 1 25 -24 37 -36 19
-49 19 -271 -5z"/>
  <path d="M405 175 c-49 -7 -85 -13 -79 -14 6 0 18 -19 27 -41 l15 -40 49 6
c96 10 111 15 117 32 3 9 11 25 18 34 7 9 10 19 7 22 -12 13 -69 13 -154 1z
m93 -37 c-3 -20 -10 -23 -60 -26 -56 -3 -58 -2 -58 23 0 24 2 25 61 25 57 0
60 -1 57 -22z"/>
</g>
<g id="part-1" class="char-part">
  <path d="M510 613 c0 -10 -13 -42 -29 -70 -33 -60 -27 -66 21 -24 29 25 43 29
122 34 86 6 106 11 93 23 -8 9 -44 8 -105 -1 -48 -7 -52 -6 -46 10 5 12 1 23
-11 31 -26 19 -45 17 -45 -3z"/>
  <path d="M274 584 c-4 -15 -27 -51 -51 -80 -24 -30 -41 -54 -38 -54 8 0 56 31
88 57 22 18 42 23 85 24 31 0 66 4 76 8 36 14 -9 21 -65 11 -29 -6 -53 -10
-55 -10 -2 0 2 12 8 26 10 21 9 27 -3 35 -24 15 -38 10 -45 -17z"/>
  <path d="M565 510 c29 -32 55 -44 68 -31 16 16 -9 37 -53 46 l-35 7 20 -22z"/>
  <path d="M290 492 c0 -12 34 -42 48 -42 22 0 13 37 -10 44 -31 8 -38 7 -38 -2z"/>
</g>
<g id="part-2" class="char-part">
  <path d="M400 461 c0 -5 7 -14 15 -21 24 -20 4 -27 -101 -35 -52 -4 -94 -11
-94 -17 0 -10 21 -9 288 12 155 13 187 21 141 35 -20 7 -125 -1 -161 -11 -13
-4 -18 0 -18 14 0 11 -7 23 -16 26 -23 9 -54 7 -54 -3z"/>
</g>
<g id="part-3" class="char-part">
  <path d="M435 359 c-22 -4 -58 -8 -81 -8 l-41 -1 21 -45 c13 -27 26 -43 34
-40 7 2 48 8 92 11 67 6 80 10 80 24 0 10 7 23 16 31 14 12 14 14 -2 26 -20
14 -58 15 -119 2z m65 -38 c0 -14 -10 -20 -37 -25 -69 -11 -93 -8 -93 12 0 28
8 32 72 32 50 0 58 -3 58 -19z"/>
</g>
<g id="part-4" class="char-part">
  <path d="M455 239 c-93 -11 -194 -17 -224 -14 l-53 5 7 -27 c5 -16 11 -62 14
-103 5 -57 10 -75 21 -75 12 0 16 17 18 86 l3 85 112 12 c62 7 158 15 215 19
l102 6 0 -82 c0 -90 -6 -99 -55 -81 -15 6 -29 9 -31 7 -9 -8 60 -77 77 -77 27
0 57 46 64 98 3 26 9 65 15 87 8 35 6 42 -13 57 -27 21 -53 21 -272 -3z"/>
</g>
</g>
</svg>