<?xml version="1.0" standalone="no"?>
<!DOCTYPE svg PUBLIC "-//W3C//DTD SVG 20010904//EN"
 "http://www.w3.org/TR/2001/REC-SVG-20010904/DTD/svg10.dtd">
<svg version="1.0" xmlns="http://www.w3.org/2000/svg"
 width="96.000000pt" height="68.000000pt" viewBox="0 0 96.000000 68.000000"
 preserveAspectRatio="xMidYMid meet">
<metadata>
Created by potrace 1.16, written by Peter Selinger 2001-2019
Combined from part_0.svg through part_5.svg with named groups
</metadata>
<g transform="translate(0.000000,68.000000) scale(0.100000,-0.100000)" fill="#000000" stroke="none">
<g id="part-0" class="char-part">
  <path d="M305 570 c21 -22 47 -40 56 -40 19 0 33 26 23 42 -9 14 -69 38 -96
38 -20 0 -19 -4 17 -40z"/>
  <path d="M598 530 c2 -32 1 -75 -2 -95 -6 -33 -9 -35 -44 -35 -61 0 -142 -12
-142 -21 0 -14 63 -20 112 -11 25 5 51 6 58 2 11 -7 3 -120 -9 -118 -3 0 -30
0 -60 -1 -42 -1 -51 -4 -43 -14 6 -7 18 -46 26 -86 17 -83 20 -88 38 -73 7 6
61 14 120 17 l107 8 -5 26 c-4 18 3 38 20 64 14 21 26 42 26 46 0 20 -60 33
-121 26 l-61 -7 7 53 c4 30 11 58 15 63 4 4 48 10 97 13 113 6 123 9 94 29
-22 16 -34 16 -154 -2 l-39 -6 7 48 c4 27 11 62 17 78 10 24 9 31 -7 42 -10 8
-28 14 -40 14 -20 0 -21 -4 -17 -60z m116 -322 c-11 -82 -20 -88 -135 -88
l-47 0 -7 46 c-3 26 -3 50 2 54 10 11 52 17 130 19 l61 1 -4 -32z"/>
  <path d="M285 464 c-27 -7 -68 -16 -90 -19 -34 -6 -37 -8 -20 -17 18 -11 70
-4 154 19 23 6 23 5 10 -14 -37 -53 -148 -168 -188 -196 -25 -17 -40 -32 -34
-34 15 -5 116 59 153 97 16 16 31 26 34 22 2 -4 0 -56 -5 -115 -9 -110 -2
-153 24 -144 8 2 13 42 15 121 l3 118 27 -7 c44 -11 47 -11 47 4 0 16 -18 27
-57 36 -39 8 -35 26 18 75 44 40 46 44 29 57 -23 16 -53 15 -120 -3z"/>
</g>
<g id="part-1" class="char-part">
  <path d="M305 570 c33 -34 75 -41 75 -12 0 21 -38 42 -77 42 l-27 0 29 -30z"/>
</g>
<g id="part-2" class="char-part">
  <path d="M341 438 c-41 -56 -155 -173 -206 -211 -37 -28 -38 -29 -12 -23 26 6
104 50 117 65 3 3 18 17 34 31 l29 25 -6 -121 c-5 -97 -3 -126 8 -140 25 -33
35 2 35 122 0 61 3 114 6 117 4 3 16 0 28 -8 28 -20 46 -19 46 4 0 19 -6 23
-62 35 -16 4 -28 12 -28 18 0 6 21 31 46 55 37 36 43 47 34 59 -20 23 -36 16
-69 -28z"/>
</g>
<g id="part-3" class="char-part">
  <path d="M598 523 c2 -38 -1 -80 -6 -94 -10 -24 -16 -26 -93 -33 -46 -4 -85
-9 -88 -11 -17 -18 59 -26 139 -15 l35 5 -3 -58 c-3 -51 -1 -57 16 -57 16 0
21 10 28 57 10 67 16 70 140 72 79 1 93 8 63 29 -20 14 -78 12 -163 -4 l-28
-6 7 43 c3 24 11 59 17 78 9 29 8 36 -8 48 -10 7 -27 13 -39 13 -19 0 -20 -5
-17 -67z"/>
</g>
<g id="part-4" class="char-part">
  <path d="M572 256 c-79 -8 -110 -14 -103 -21 6 -6 16 -38 22 -70 12 -67 28
-103 38 -87 3 5 57 13 119 17 61 4 112 11 112 16 0 5 -5 9 -10 9 -12 0 14 67
35 90 21 23 19 35 -10 48 -29 13 -44 13 -203 -2z m148 -21 c0 -2 -5 -26 -11
-54 l-10 -50 -55 -7 c-65 -8 -103 -8 -110 -2 -2 3 -7 28 -11 56 l-6 51 39 4
c59 6 164 8 164 2z"/>
</g>
</g>
</svg>