<?xml version="1.0" standalone="no"?>
<!DOCTYPE svg PUBLIC "-//W3C//DTD SVG 20010904//EN"
 "http://www.w3.org/TR/2001/REC-SVG-20010904/DTD/svg10.dtd">
<svg version="1.0" xmlns="http://www.w3.org/2000/svg"
 width="96.000000pt" height="68.000000pt" viewBox="0 0 96.000000 68.000000"
 preserveAspectRatio="xMidYMid meet">
<metadata>
Created by potrace 1.16, written by Peter Selinger 2001-2019
Combined from part_0.svg through part_5.svg with named groups
</metadata>
<g transform="translate(0.000000,68.000000) scale(0.100000,-0.100000)" fill="#000000" stroke="none">
<g id="part-0" class="char-part">
  <path d="M681 584 c-84 -18 -87 -24 -11 -17 l61 6 -3 -69 c-3 -63 -5 -69 -25
-72 -28 -4 -29 -10 -5 -28 44 -34 67 -1 75 108 4 60 -4 90 -22 87 -4 -1 -35
-7 -70 -15z"/>
  <path d="M450 555 l-55 -13 68 5 67 6 0 -62 c0 -53 -3 -63 -21 -69 l-20 -8 21
-19 c19 -18 22 -18 38 -2 20 21 35 157 18 169 -15 10 -51 8 -116 -7z"/>
  <path d="M268 540 c-9 -6 -44 -13 -77 -16 -62 -7 -71 -13 -48 -33 8 -6 19 -36
26 -66 12 -54 14 -56 40 -50 27 6 28 4 35 -41 3 -26 6 -71 6 -100 0 -47 -2
-54 -20 -54 -11 0 -23 0 -27 0 -5 0 -10 28 -13 62 -5 57 -7 63 -29 66 -19 3
-23 0 -17 -14 4 -9 9 -44 13 -76 l6 -58 -37 0 c-20 0 -36 -4 -36 -8 0 -15 24
-32 44 -32 27 0 236 83 236 94 0 4 -7 5 -16 2 -60 -23 -64 -21 -64 32 l0 49
40 7 c23 3 38 11 35 16 -3 5 -21 6 -40 3 -35 -6 -35 -5 -35 31 0 33 2 36 28
36 25 0 29 4 29 30 0 16 8 45 18 64 16 29 17 37 6 50 -15 18 -76 21 -103 6z
m30 -72 c-3 -40 -5 -43 -41 -51 -21 -5 -40 -8 -41 -6 -2 2 -7 23 -11 46 -7 45
-3 48 68 52 27 1 28 -1 25 -41z"/>
  <path d="M630 520 c0 -15 38 -32 45 -20 3 5 3 15 0 20 -8 13 -45 13 -45 0z"/>
  <path d="M430 495 c7 -8 19 -15 26 -15 8 0 14 7 14 15 0 10 -10 15 -26 15 -22
0 -25 -2 -14 -15z"/>
  <path d="M685 480 c-3 -5 -24 -15 -45 -21 -43 -13 -50 -23 -24 -33 17 -7 84
37 84 55 0 12 -7 12 -15 -1z"/>
  <path d="M480 462 c0 -5 -18 -14 -40 -21 -22 -6 -40 -16 -40 -20 0 -15 30 -21
49 -11 22 11 55 60 41 60 -5 0 -10 -4 -10 -8z"/>
  <path d="M590 393 c1 -15 26 -40 46 -47 31 -10 39 19 11 39 -22 16 -57 20 -57
8z"/>
  <path d="M450 335 c-11 -19 -35 -46 -52 -60 -39 -33 -29 -44 15 -16 19 11 37
21 41 21 10 0 7 -138 -5 -185 -8 -31 -8 -49 0 -64 17 -30 28 -26 35 13 l6 34
148 7 c146 6 202 12 211 21 13 13 -21 19 -100 17 l-89 -2 0 30 c0 18 5 29 13
28 6 -1 29 -1 50 0 56 2 45 21 -13 21 -42 0 -50 3 -50 19 0 19 25 31 68 31 12
0 22 5 22 10 0 6 -20 10 -44 10 -66 0 -69 26 -5 39 28 6 57 11 64 11 18 0 20
17 4 22 -7 2 -69 -4 -138 -14 -69 -9 -130 -17 -135 -18 -5 0 -1 9 10 21 16 17
16 22 4 29 -25 16 -38 11 -60 -25z m160 -56 c0 -11 -3 -19 -7 -20 -5 0 -27 -2
-51 -6 -35 -4 -46 -1 -57 13 -8 11 -15 21 -15 24 0 3 29 6 65 6 57 1 65 -1 65
-17z m3 -68 c-3 -14 -18 -20 -55 -25 -55 -8 -60 -5 -65 24 -3 18 3 20 61 20
58 0 64 -2 59 -19z m-3 -71 c0 -28 -3 -30 -40 -32 -22 -1 -48 -2 -57 -2 -12
-1 -18 7 -20 26 -2 24 2 27 35 31 84 9 82 9 82 -23z"/>
</g>
<g id="part-1" class="char-part">
  <path d="M265 534 c-27 -7 -67 -14 -87 -14 -36 0 -49 -12 -29 -25 5 -3 15 -30
21 -60 6 -30 15 -57 19 -59 6 -4 46 2 129 20 12 2 22 11 22 19 0 8 7 36 16 62
15 44 15 48 -2 60 -21 15 -24 15 -89 -3z m45 -51 c0 -51 -8 -60 -58 -71 -39
-9 -43 -8 -48 13 -3 12 -4 36 -2 51 2 24 9 30 38 35 69 12 70 12 70 -28z"/>
</g>
<g id="part-2" class="char-part">
  <path d="M270 193 c-41 -14 -101 -27 -133 -30 -49 -5 -55 -8 -45 -20 25 -31
54 -33 105 -9 26 13 76 34 111 47 34 13 62 27 62 31 0 12 -18 8 -100 -19z"/>
</g>
<g id="part-3" class="char-part">
  <path d="M450 555 l-55 -14 68 6 67 5 0 -62 c0 -53 -3 -63 -20 -67 -16 -4 -18
-9 -9 -24 5 -10 16 -19 24 -19 26 0 43 43 47 115 l3 70 -35 2 c-19 0 -60 -5
-90 -12z"/>
</g>
<g id="part-4" class="char-part">
  <path d="M685 480 c-3 -5 -24 -15 -45 -21 -43 -13 -50 -23 -24 -33 9 -3 28 3
43 13 36 26 57 51 43 51 -6 0 -14 -4 -17 -10z"/>
</g>
<g id="part-5" class="char-part">
  <path d="M630 220 c-8 -5 -11 -12 -7 -16 4 -5 -3 -14 -15 -22 l-23 -13 23 5
c18 3 22 1 18 -11 -3 -8 -6 -25 -6 -38 0 -20 -5 -22 -39 -21 -39 1 -60 -8 -48
-20 3 -3 11 -2 18 2 7 4 36 7 63 5 37 -1 47 1 36 8 -12 9 -11 11 7 11 12 0 23
-4 25 -10 2 -6 22 -7 55 -1 29 4 65 7 82 6 17 -1 28 2 25 6 -2 4 -43 7 -90 7
-47 0 -87 2 -88 3 -2 2 -7 14 -10 26 -6 19 -2 25 20 33 15 6 33 9 39 6 7 -2
18 0 26 5 19 12 -42 12 -74 0 -19 -8 -27 -6 -31 4 -3 8 0 17 6 21 7 4 8 3 4
-4 -4 -7 -2 -12 3 -12 6 0 11 7 11 15 0 17 -9 19 -30 5z m20 -80 c0 -5 -5 -10
-11 -10 -5 0 -7 5 -4 10 3 6 8 10 11 10 2 0 4 -4 4 -10z"/>
  <path d="M548 173 c7 -3 16 -2 19 1 4 3 -2 6 -13 5 -11 0 -14 -3 -6 -6z"/>
  <path d="M500 90 c0 -5 5 -10 11 -10 5 0 7 5 4 10 -3 6 -8 10 -11 10 -2 0 -4
-4 -4 -10z"/>
</g>
</g>
</svg>