<?xml version="1.0" standalone="no"?>
<!DOCTYPE svg PUBLIC "-//W3C//DTD SVG 20010904//EN"
 "http://www.w3.org/TR/2001/REC-SVG-20010904/DTD/svg10.dtd">
<svg version="1.0" xmlns="http://www.w3.org/2000/svg"
 width="96.000000pt" height="68.000000pt" viewBox="0 0 96.000000 68.000000"
 preserveAspectRatio="xMidYMid meet">
<metadata>
Created by potrace 1.16, written by Peter Selinger 2001-2019
Combined from part_0.svg through part_5.svg with named groups
</metadata>
<g transform="translate(0.000000,68.000000) scale(0.100000,-0.100000)" fill="#000000" stroke="none">
<g id="part-0" class="char-part">
  <path d="M517 633 c-4 -3 -7 -16 -7 -28 0 -12 -18 -50 -39 -86 -21 -35 -38
-65 -36 -67 6 -6 49 20 76 44 19 18 44 26 100 33 108 14 133 28 91 50 -17 9
-54 5 -109 -13 -21 -7 -22 -5 -17 22 5 24 2 32 -14 41 -24 13 -36 14 -45 4z"/>
  <path d="M256 595 c-8 -31 -85 -144 -108 -159 -10 -6 -18 -15 -18 -19 0 -17
46 6 95 48 46 38 58 43 138 54 58 9 87 17 87 26 0 19 -39 25 -85 15 -55 -13
-57 -13 -43 9 9 15 9 23 -1 35 -21 25 -58 20 -65 -9z"/>
  <path d="M560 502 c0 -14 66 -72 82 -72 35 0 29 60 -8 74 -23 9 -74 7 -74 -2z"/>
  <path d="M290 492 c0 -18 59 -64 74 -59 23 9 20 33 -6 51 -24 17 -68 22 -68 8z"/>
  <path d="M401 412 c5 -39 -7 -52 -49 -52 -65 0 -142 -12 -142 -23 0 -6 33 -8
85 -5 47 2 85 1 85 -4 0 -17 -115 -118 -176 -153 -36 -21 -62 -40 -59 -43 7
-7 94 27 135 54 19 12 55 41 80 63 l45 42 3 -42 c5 -59 -1 -66 -57 -74 -63 -9
-57 -25 9 -25 l50 0 -6 -42 c-4 -31 -1 -49 10 -63 15 -19 17 -19 30 -3 9 12
11 34 8 67 l-4 50 61 7 c79 9 77 29 -3 28 l-56 -1 0 64 c0 36 4 63 9 61 9 -3
82 -65 161 -137 37 -34 51 -41 86 -41 49 0 104 10 104 19 0 3 -33 16 -74 29
-69 21 -264 134 -265 155 -1 4 38 7 87 7 96 0 129 10 93 29 -14 8 -50 10 -110
5 l-89 -7 5 25 c4 20 0 27 -19 31 -37 10 -40 9 -37 -21z"/>
</g>
<g id="part-1" class="char-part">
  <path d="M516 607 c-3 -19 -22 -60 -41 -92 -20 -32 -33 -60 -31 -62 2 -3 24
13 48 35 39 36 49 40 116 46 41 3 84 11 95 18 l22 11 -24 10 c-17 8 -38 7 -82
-5 -48 -13 -59 -13 -59 -3 0 8 5 17 10 20 18 11 11 32 -15 43 -34 16 -32 17
-39 -21z"/>
  <path d="M260 594 c-6 -14 -10 -28 -10 -31 0 -8 -72 -104 -95 -126 -9 -10 -12
-17 -7 -17 12 0 82 52 106 79 12 13 31 21 50 21 70 0 136 13 136 26 0 16 -37
18 -95 4 -47 -11 -54 -7 -32 18 16 18 16 20 -1 35 -26 24 -41 21 -52 -9z"/>
  <path d="M569 491 c12 -22 55 -51 76 -51 31 0 16 40 -20 56 -49 20 -68 19 -56
-5z"/>
  <path d="M312 468 c20 -30 58 -37 58 -10 0 21 -18 32 -52 32 -19 0 -19 -2 -6
-22z"/>
</g>
<g id="part-2" class="char-part">
  <path d="M403 405 c7 -41 7 -41 -117 -50 -112 -9 -94 -29 20 -23 41 2 74 1 74
-2 0 -14 -122 -122 -180 -160 -49 -31 -58 -40 -35 -35 53 12 133 57 191 109
l57 50 -6 -116 c-4 -89 -2 -121 8 -135 11 -15 16 -16 27 -5 9 9 12 47 10 147
-2 74 0 135 3 135 4 0 53 -41 109 -90 101 -88 104 -90 152 -89 27 1 63 5 79 9
34 8 35 7 -72 43 -63 22 -233 123 -249 148 -3 5 38 9 90 9 95 0 124 10 86 30
-13 7 -51 8 -109 4 -90 -7 -90 -7 -84 16 6 24 -9 40 -41 40 -16 0 -18 -5 -13
-35z"/>
</g>
<g id="part-3" class="char-part">
  <path d="M392 183 c-95 -16 -109 -33 -27 -33 71 0 206 22 202 34 -5 16 -70 16
-175 -1z"/>
</g>
</g>
</svg>