<?xml version="1.0" standalone="no"?>
<!DOCTYPE svg PUBLIC "-//W3C//DTD SVG 20010904//EN"
 "http://www.w3.org/TR/2001/REC-SVG-20010904/DTD/svg10.dtd">
<svg version="1.0" xmlns="http://www.w3.org/2000/svg"
 width="96.000000pt" height="68.000000pt" viewBox="0 0 96.000000 68.000000"
 preserveAspectRatio="xMidYMid meet">
<metadata>
Created by potrace 1.16, written by Peter Selinger 2001-2019
Combined from part_0.svg through part_5.svg with named groups
</metadata>
<g transform="translate(0.000000,68.000000) scale(0.100000,-0.100000)" fill="#000000" stroke="none">
<g id="part-0" class="char-part">
  <path d="M586 563 c-3 -3 6 -23 20 -44 29 -47 24 -51 -70 -53 l-63 -1 0 -70
c0 -92 -19 -177 -54 -247 -34 -68 -36 -77 -9 -53 51 46 110 206 110 296 0 21
4 40 9 44 12 7 47 12 186 26 60 6 112 13 115 15 14 15 -33 24 -97 19 -66 -5
-71 -4 -67 13 3 10 -3 25 -13 33 -19 17 -59 30 -67 22z"/>
  <path d="M295 514 c-33 -8 -74 -12 -91 -9 -37 6 -49 -3 -30 -24 8 -9 21 -41
29 -71 13 -53 15 -55 45 -53 l31 3 3 -93 c2 -50 2 -97 0 -103 -2 -7 -17 -14
-33 -16 l-29 -5 0 73 c0 52 -4 75 -15 84 -9 7 -18 10 -22 7 -3 -4 -5 -45 -4
-93 l2 -86 -33 2 c-18 1 -37 1 -43 1 -14 -2 37 -41 54 -41 7 0 64 18 125 40
61 23 117 43 124 45 7 3 11 9 7 14 -3 6 -19 4 -40 -5 -49 -20 -55 -18 -55 20
0 57 8 66 56 66 25 0 44 5 44 11 0 6 -17 9 -42 7 l-43 -3 -1 43 c-1 42 -1 42
33 42 28 0 34 3 29 16 -3 8 3 33 14 54 25 49 25 67 1 80 -24 12 -38 11 -116
-6z m61 -46 c-3 -7 -7 -25 -10 -40 -4 -17 -12 -26 -24 -26 -9 1 -29 -1 -44 -5
-24 -6 -28 -4 -34 20 -3 16 -7 33 -9 40 -5 16 11 21 72 22 38 1 51 -3 49 -11z"/>
  <path d="M628 325 l4 -105 -34 -2 c-29 -1 -45 -3 -82 -7 -5 -1 -4 -7 2 -14 6
-7 18 -43 28 -80 16 -64 26 -79 39 -57 3 6 27 10 53 10 90 0 152 12 152 28 0
8 12 36 26 60 l27 45 -22 18 c-18 15 -34 17 -87 12 l-65 -6 3 44 3 44 67 5
c36 3 70 9 74 13 11 11 -17 28 -36 22 -8 -2 -35 -7 -60 -10 l-45 -7 0 44 c0
38 -3 43 -25 46 l-25 3 3 -106z m128 -162 c-3 -26 -10 -50 -14 -54 -4 -4 -41
-9 -84 -13 l-76 -7 -10 48 c-6 26 -9 49 -7 51 4 4 122 19 164 21 l34 1 -7 -47z"/>
</g>
<g id="part-1" class="char-part">
  <path d="M325 513 c-28 -7 -73 -13 -102 -13 l-52 0 15 -27 c7 -16 14 -34 14
-41 0 -7 7 -29 15 -49 12 -28 18 -34 27 -25 7 7 35 12 64 12 62 0 84 7 84 26
0 8 9 33 21 55 11 23 18 47 16 54 -8 19 -47 23 -102 8z m31 -65 c-4 -23 -8
-44 -10 -45 -2 -2 -26 -6 -55 -10 -42 -5 -51 -3 -51 9 0 9 -3 29 -6 46 -6 30
-5 31 37 35 100 9 92 12 85 -35z"/>
</g>
<g id="part-2" class="char-part">
  <path d="M270 159 c-66 -18 -118 -26 -139 -23 -39 6 -39 -13 1 -35 23 -13 36
-11 157 30 123 41 160 61 109 58 -13 -1 -70 -15 -128 -30z"/>
</g>
<g id="part-3" class="char-part">
  <path d="M580 563 c0 -5 11 -25 25 -45 14 -20 21 -39 16 -42 -5 -3 -39 -7 -77
-8 l-69 -3 -2 -82 c-1 -93 -22 -174 -63 -251 -34 -62 -19 -64 27 -3 34 44 71
146 79 221 11 91 7 87 81 99 38 5 108 13 158 17 82 6 88 7 70 21 -15 11 -36
13 -87 9 -63 -6 -68 -5 -68 14 0 20 -28 43 -67 55 -13 3 -23 3 -23 -2z"/>
</g>
<g id="part-4" class="char-part">
  <path d="M628 328 c2 -57 5 -104 7 -106 1 -1 10 0 19 4 11 4 16 19 16 50 l0
44 44 0 c58 0 106 10 106 22 0 7 -27 8 -72 4 l-73 -7 0 43 c0 38 -3 43 -25 46
l-25 3 3 -103z"/>
</g>
<g id="part-5" class="char-part">
  <path d="M730 219 c-11 -8 -7 -9 20 -6 19 3 30 3 24 1 -7 -3 -10 -13 -7 -23 6
-24 -16 -103 -27 -96 -4 3 -19 1 -32 -4 -18 -8 -12 -10 32 -10 30 1 49 3 42 6
-10 4 -10 8 -1 19 6 8 8 14 4 14 -5 0 -1 8 8 18 8 9 20 29 26 44 9 23 7 29 -9
38 -24 13 -61 13 -80 -1z"/>
  <path d="M545 170 c4 -19 7 -43 7 -52 -1 -10 4 -20 9 -23 5 -4 7 -11 4 -16 -4
-5 3 -9 14 -9 12 0 21 5 21 11 0 5 -4 8 -9 5 -5 -3 -12 2 -16 12 -11 26 -18
105 -8 99 4 -2 17 -1 28 4 15 6 10 8 -18 6 -39 -1 -39 -1 -32 -37z"/>
  <path d="M630 83 c0 -5 11 -9 25 -9 14 -1 22 2 19 7 -6 11 -44 12 -44 2z"/>
</g>
</g>
</svg>