<?xml version="1.0" standalone="no"?>
<!DOCTYPE svg PUBLIC "-//W3C//DTD SVG 20010904//EN"
 "http://www.w3.org/TR/2001/REC-SVG-20010904/DTD/svg10.dtd">
<svg version="1.0" xmlns="http://www.w3.org/2000/svg"
 width="96.000000pt" height="68.000000pt" viewBox="0 0 96.000000 68.000000"
 preserveAspectRatio="xMidYMid meet">
<metadata>
Created by potrace 1.16, written by Peter Selinger 2001-2019
Combined from part_0.svg through part_5.svg with named groups
</metadata>
<g transform="translate(0.000000,68.000000) scale(0.100000,-0.100000)" fill="#000000" stroke="none">
<g id="part-0" class="char-part">
  <path d="M557 623 c-3 -5 -2 -15 4 -23 5 -8 9 -29 9 -46 0 -35 -16 -44 -77
-44 -18 0 -33 -4 -33 -10 0 -5 25 -10 55 -10 47 0 55 -3 55 -19 0 -19 -25 -31
-67 -31 -13 0 -23 -4 -23 -10 0 -5 21 -10 46 -10 41 0 45 -2 42 -22 -3 -21 -9
-23 -78 -26 -41 -2 -79 -7 -84 -12 -16 -16 61 -22 131 -11 37 6 119 12 181 14
61 2 115 7 118 10 16 16 -47 25 -112 17 -102 -14 -104 -13 -104 14 0 27 16 36
66 36 19 0 34 5 34 10 0 6 -22 10 -50 10 -43 0 -50 3 -50 19 0 15 10 20 48 26
26 3 54 10 62 15 23 14 -37 24 -76 12 l-34 -10 0 49 c0 36 -4 49 -14 49 -8 0
-21 3 -29 6 -8 3 -17 1 -20 -3z"/>
  <path d="M216 563 c4 -10 10 -44 12 -75 l4 -58 -57 0 c-50 0 -56 -2 -50 -17 4
-10 10 -40 14 -66 9 -56 25 -77 43 -59 7 7 20 12 30 12 15 0 18 -8 18 -48 l0
-48 -45 -12 c-25 -7 -54 -12 -65 -12 -25 0 -25 -9 -2 -26 25 -19 52 -17 108
10 27 13 67 29 88 36 37 12 41 11 58 -10 10 -13 24 -20 33 -16 30 11 12 48
-38 81 -30 20 -47 14 -27 -10 10 -12 8 -16 -16 -25 -35 -14 -45 -3 -37 43 4
29 10 37 27 37 34 0 66 12 60 21 -7 12 15 51 37 67 10 7 16 18 13 25 -8 22
-63 39 -99 33 -19 -4 -35 -5 -35 -3 0 2 5 28 10 57 12 65 3 80 -52 80 -35 0
-39 -2 -32 -17z m124 -162 c0 -24 -21 -61 -35 -61 -11 0 -15 10 -15 35 0 31 3
35 25 35 14 0 25 -4 25 -9z m-110 -36 c0 -28 -4 -35 -20 -35 -16 0 -20 7 -20
35 0 28 4 35 20 35 16 0 20 -7 20 -35z"/>
  <path d="M615 310 c-16 -4 -58 -8 -92 -9 l-62 -1 10 -30 c8 -21 7 -49 -1 -97
-18 -99 -18 -138 0 -138 9 0 20 20 30 52 9 29 18 54 20 57 3 2 39 6 80 7 l75
4 2 -30 c3 -38 -13 -56 -43 -49 -42 11 -29 -8 34 -53 21 -15 24 -15 39 0 13
13 17 39 18 129 0 62 4 120 8 129 15 30 -50 46 -118 29z m62 -36 c9 -24 -6
-31 -84 -38 -73 -7 -73 -7 -73 18 0 20 6 25 33 29 79 10 118 7 124 -9z m0 -69
c3 -9 3 -18 1 -21 -10 -9 -168 -17 -168 -8 1 23 19 33 65 37 28 2 60 4 73 5
12 1 25 -5 29 -13z"/>
</g>
<g id="part-1" class="char-part">
  <path d="M225 558 c4 -13 9 -46 12 -74 l5 -51 -35 -7 c-20 -4 -48 -4 -63 0
-24 6 -26 5 -19 -12 4 -10 13 -43 21 -72 13 -57 24 -75 31 -54 3 6 18 12 34
12 28 0 29 -2 29 -45 0 -38 3 -45 19 -45 17 0 20 8 23 48 l3 47 50 6 c28 3 44
7 37 7 -15 2 7 50 33 72 14 12 14 14 -1 31 -12 14 -31 19 -67 19 l-50 0 6 43
c3 24 9 50 12 59 5 11 -3 19 -26 27 -50 17 -62 15 -54 -11z m15 -193 c0 -43
-1 -45 -30 -45 -28 0 -30 2 -30 39 0 36 3 40 28 44 15 2 28 5 30 6 1 0 2 -19
2 -44z m110 40 c0 -3 -7 -22 -15 -41 -10 -25 -20 -35 -32 -32 -10 2 -18 9 -17
16 1 6 2 23 3 37 1 21 6 25 31 25 17 0 30 -2 30 -5z"/>
</g>
<g id="part-2" class="char-part">
  <path d="M334 254 c15 -39 52 -84 69 -84 42 0 -1 81 -52 95 -21 6 -23 5 -17
-11z"/>
</g>
<g id="part-3" class="char-part">
  <path d="M554 614 c5 -10 10 -35 13 -55 5 -34 3 -36 -27 -43 -18 -3 -43 -6
-56 -6 -13 0 -24 -4 -24 -10 0 -5 25 -10 55 -10 47 0 55 -3 55 -19 0 -19 -25
-31 -67 -31 -13 0 -23 -4 -23 -10 0 -5 20 -10 45 -10 38 0 45 -3 45 -20 0 -15
7 -20 25 -20 20 0 25 5 25 24 0 27 16 36 66 36 19 0 34 5 34 10 0 6 -22 10
-50 10 -43 0 -50 3 -50 19 0 16 10 21 48 27 26 3 54 10 62 14 22 13 -32 24
-75 16 l-35 -7 0 46 c0 29 -4 45 -12 45 -7 0 -24 3 -37 7 -21 5 -23 4 -17 -13z"/>
</g>
<g id="part-4" class="char-part">
  <path d="M770 396 c-3 -2 -77 -9 -165 -16 -88 -6 -171 -14 -185 -17 l-25 -5
25 -10 c17 -7 56 -6 120 1 121 14 192 20 255 21 30 0 45 4 40 9 -12 12 -59 24
-65 17z"/>
</g>
<g id="part-5" class="char-part">
  <path d="M660 317 c0 -2 7 -19 16 -37 12 -24 14 -34 5 -39 -8 -6 -9 -15 -2
-34 9 -24 8 -27 -9 -27 -11 0 -20 -4 -20 -10 0 -5 7 -7 15 -4 10 4 15 0 16
-12 0 -11 2 -28 4 -38 7 -34 -29 -65 -51 -43 -4 4 -12 7 -17 7 -5 0 7 -13 28
-30 21 -16 41 -30 46 -30 15 0 29 38 29 80 0 23 -5 50 -10 61 -6 10 -7 19 -2
19 5 0 10 17 11 38 1 20 3 46 5 57 2 12 -5 25 -18 32 -20 12 -46 17 -46 10z
m50 -27 c0 -5 -2 -10 -4 -10 -3 0 -8 5 -11 10 -3 6 -1 10 4 10 6 0 11 -4 11
-10z"/>
  <path d="M605 300 c-16 -7 -14 -8 12 -7 17 1 29 5 26 10 -5 9 -12 8 -38 -3z"/>
  <path d="M482 231 c-1 -37 -7 -81 -13 -97 -14 -37 -19 -95 -8 -88 5 3 9 -1 10
-8 1 -15 28 41 29 60 0 6 -8 12 -17 13 -14 0 -15 2 -3 6 26 10 38 36 30 59 -5
13 -4 26 3 33 6 6 7 14 3 18 -4 4 -12 1 -17 -7 -9 -12 -10 -12 -5 3 3 10 6 21
6 23 0 3 5 2 11 -2 8 -4 9 0 4 15 -5 18 -2 21 21 21 35 0 28 6 -17 14 l-36 6
-1 -69z"/>
  <path d="M605 230 l-30 -8 33 -1 c17 0 32 4 32 9 0 6 -1 9 -2 9 -2 -1 -16 -5
-33 -9z"/>
  <path d="M600 160 c0 -13 11 -13 30 0 12 8 11 10 -7 10 -13 0 -23 -4 -23 -10z"/>
  <path d="M558 153 c7 -3 16 -2 19 1 4 3 -2 6 -13 5 -11 0 -14 -3 -6 -6z"/>
</g>
</g>
</svg>