<?xml version="1.0" standalone="no"?>
<!DOCTYPE svg PUBLIC "-//W3C//DTD SVG 20010904//EN"
 "http://www.w3.org/TR/2001/REC-SVG-20010904/DTD/svg10.dtd">
<svg version="1.0" xmlns="http://www.w3.org/2000/svg"
 width="96.000000pt" height="68.000000pt" viewBox="0 0 96.000000 68.000000"
 preserveAspectRatio="xMidYMid meet">
<metadata>
Created by potrace 1.16, written by Peter Selinger 2001-2019
Combined from part_0.svg through part_5.svg with named groups
</metadata>
<g transform="translate(0.000000,68.000000) scale(0.100000,-0.100000)" fill="#000000" stroke="none">
<g id="part-0" class="char-part">
  <path d="M510 435 c0 -173 8 -217 36 -194 8 6 14 26 14 44 0 39 14 45 113 45
55 0 67 3 67 16 0 15 -9 16 -74 11 -40 -4 -80 -9 -90 -13 -13 -5 -16 1 -16 32
l0 39 73 3 c39 2 76 7 81 12 15 15 -29 20 -84 10 -71 -14 -70 -14 -70 19 0 29
2 30 58 36 82 9 102 14 102 27 0 11 -111 5 -145 -8 -12 -5 -15 2 -15 35 0 23
-4 41 -9 41 -5 0 -16 3 -25 6 -14 5 -16 -13 -16 -161z"/>
  <path d="M363 577 c-3 -5 0 -14 6 -20 6 -6 11 -19 11 -28 0 -18 -14 -23 -102
-35 -27 -3 -45 -10 -42 -16 6 -9 84 -4 127 8 13 4 17 -1 17 -25 0 -17 -3 -30
-7 -29 -16 3 -108 -15 -123 -24 -10 -6 10 -7 57 -4 72 6 72 6 64 -16 -9 -26
-68 -46 -138 -47 -45 -1 -53 -10 -28 -31 11 -9 27 -7 76 10 34 11 64 19 66 16
8 -8 -16 -43 -48 -70 -24 -21 -27 -26 -12 -26 28 0 91 47 110 83 17 33 43 208
36 238 -5 19 -60 31 -70 16z"/>
  <path d="M660 233 c0 -5 23 -28 50 -51 42 -36 53 -42 65 -32 24 20 18 35 -22
57 -43 23 -93 37 -93 26z"/>
  <path d="M472 184 c38 -39 71 -42 61 -6 -5 22 -42 42 -76 42 -20 0 -18 -3 15
-36z"/>
  <path d="M230 188 c0 -6 -12 -26 -26 -45 -28 -36 -29 -76 -3 -81 23 -4 63 80
55 113 -6 25 -26 35 -26 13z"/>
  <path d="M327 149 c47 -94 141 -137 279 -126 78 6 129 24 129 46 0 8 -28 31
-62 52 -35 21 -63 36 -63 35 0 -2 7 -18 16 -36 24 -48 10 -54 -115 -50 -76 2
-120 26 -156 82 -40 64 -60 62 -28 -3z"/>
</g>
<g id="part-1" class="char-part">
  <path d="M375 560 c4 -11 7 -53 7 -93 0 -87 -28 -163 -74 -202 -41 -35 -20
-31 30 5 57 41 72 76 84 192 11 106 8 117 -35 118 -14 0 -17 -5 -12 -20z"/>
</g>
<g id="part-2" class="char-part">
  <path d="M510 331 c0 -53 4 -82 13 -90 19 -15 37 6 37 45 0 38 14 44 113 44
51 0 68 3 64 13 -4 13 -78 16 -139 5 -38 -7 -38 -7 -38 28 0 30 -3 34 -25 34
-25 0 -25 -1 -25 -79z"/>
</g>
<g id="part-3" class="char-part">
  <path d="M685 205 c62 -56 84 -70 96 -58 29 29 -25 76 -104 89 l-32 5 40 -36z"/>
  <path d="M440 221 c0 -17 70 -73 84 -68 19 8 20 18 3 41 -12 17 -87 40 -87 27z"/>
  <path d="M208 154 c-39 -63 -36 -104 6 -88 32 12 58 135 28 134 -4 0 -19 -21
-34 -46z"/>
  <path d="M310 190 c0 -23 41 -89 70 -114 48 -40 130 -60 220 -53 129 9 172 37
113 73 -16 10 -44 27 -62 40 -19 13 -36 22 -38 20 -2 -2 3 -19 12 -38 18 -45
12 -48 -89 -48 -94 0 -151 27 -184 88 -22 40 -42 55 -42 32z"/>
</g>
</g>
</svg>