<?xml version="1.0" standalone="no"?>
<!DOCTYPE svg PUBLIC "-//W3C//DTD SVG 20010904//EN"
 "http://www.w3.org/TR/2001/REC-SVG-20010904/DTD/svg10.dtd">
<svg version="1.0" xmlns="http://www.w3.org/2000/svg"
 width="96.000000pt" height="68.000000pt" viewBox="0 0 96.000000 68.000000"
 preserveAspectRatio="xMidYMid meet">
<metadata>
Created by potrace 1.16, written by Peter Selinger 2001-2019
Combined from part_0.svg through part_5.svg with named groups
</metadata>
<g transform="translate(0.000000,68.000000) scale(0.100000,-0.100000)" fill="#000000" stroke="none">
<g id="part-0" class="char-part">
  <path d="M516 562 l7 -59 -52 -7 c-63 -8 -60 -24 4 -20 44 2 45 2 45 -27 0
-28 -2 -29 -45 -29 -25 0 -45 -4 -45 -10 0 -5 20 -10 44 -10 34 0 45 -4 49
-19 8 -31 -5 -39 -63 -42 -30 -1 -61 -4 -68 -7 -28 -10 12 -21 55 -15 54 7 55
-4 6 -53 -72 -70 -99 -87 -122 -74 -22 11 -27 25 -12 35 5 3 19 34 31 70 14
43 28 66 41 70 20 7 27 25 9 25 -6 0 -19 9 -30 20 -11 11 -30 20 -41 20 -17 0
-20 -5 -17 -24 3 -16 0 -27 -9 -30 -15 -6 -53 -8 -53 -3 0 1 12 34 25 72 31
88 31 99 0 113 -50 23 -52 19 -57 -88 -2 -54 -7 -102 -11 -106 -4 -4 -34 -10
-67 -12 -33 -2 -60 -8 -60 -13 0 -19 51 -41 81 -35 27 5 30 4 24 -12 -17 -40
-15 -48 20 -71 19 -13 35 -27 35 -32 0 -7 -48 -46 -106 -87 -17 -11 -15 -12
16 -7 19 3 54 19 78 35 23 17 46 30 51 30 4 0 18 -11 31 -25 13 -14 32 -25 43
-25 17 0 19 5 14 35 -5 33 -4 35 40 55 25 11 50 17 55 13 7 -4 8 -36 4 -89 -5
-65 -3 -84 7 -84 13 0 52 24 76 48 8 7 25 20 38 29 37 25 18 28 -21 3 -50 -30
-61 -23 -57 34 2 35 -2 53 -16 68 -17 19 -17 21 19 50 20 16 35 35 32 42 -6
16 56 26 162 26 42 0 74 4 74 10 0 17 -49 22 -125 13 -42 -5 -78 -7 -80 -4 -3
2 -5 14 -5 27 0 19 7 23 55 29 71 8 73 28 3 23 -48 -3 -53 -1 -56 19 -3 23 9
29 72 35 16 2 32 9 34 17 4 11 -6 13 -51 8 l-56 -7 -3 52 c-3 49 -5 53 -30 56
l-28 3 6 -59z m-206 -230 c0 -21 -33 -102 -42 -102 -8 0 -46 17 -56 25 -1 1 4
18 13 38 14 33 26 41 73 46 6 0 12 -3 12 -7z"/>
  <path d="M664 275 c-26 -40 -49 -48 -79 -29 -39 26 -51 11 -13 -18 19 -14 61
-51 93 -82 55 -52 63 -56 106 -56 52 0 79 7 79 21 0 5 -10 9 -21 9 -31 0 -189
80 -189 96 0 7 10 16 23 19 12 4 32 14 45 21 20 13 21 17 8 29 -21 21 -33 19
-52 -10z"/>
</g>
<g id="part-1" class="char-part">
  <path d="M230 568 c0 -2 -2 -42 -4 -89 -5 -119 -12 -129 -88 -129 l-61 0 19
-21 c15 -17 27 -20 60 -16 l42 4 -14 -33 c-15 -35 -11 -41 50 -79 14 -9 13
-12 -3 -32 -10 -12 -40 -35 -66 -52 -27 -17 -43 -31 -37 -31 22 0 85 30 120
56 l34 26 33 -32 c33 -32 55 -33 55 -4 0 8 -14 28 -31 44 l-32 29 18 38 c10
21 24 56 30 78 9 28 19 41 36 46 22 6 23 7 5 14 -11 5 -28 17 -38 27 -25 25
-44 18 -40 -14 2 -22 -2 -26 -30 -31 -18 -2 -35 -3 -37 -1 -4 4 27 110 46 161
3 6 -9 19 -26 27 -28 15 -41 19 -41 14z m88 -230 c-3 -7 -13 -37 -22 -65 -10
-29 -20 -53 -22 -53 -12 0 -64 31 -64 39 0 34 25 72 53 80 46 13 60 13 55 -1z"/>
</g>
<g id="part-2" class="char-part">
  <path d="M517 561 l6 -58 -58 -8 c-66 -8 -58 -25 13 -25 38 0 42 -2 42 -25 0
-23 -4 -25 -44 -25 -25 0 -48 -4 -51 -10 -4 -6 13 -10 44 -10 48 0 51 -2 51
-25 0 -20 5 -25 25 -25 21 0 25 5 25 29 0 28 2 29 60 36 77 9 79 28 3 23 -53
-3 -58 -1 -61 19 -3 23 0 25 81 38 64 10 44 28 -24 21 l-61 -7 3 43 c3 53 -5
68 -36 68 -22 0 -23 -2 -18 -59z"/>
</g>
<g id="part-3" class="char-part">
  <path d="M555 353 c-190 -23 -192 -23 -172 -34 11 -6 57 -4 134 6 64 8 150 15
190 15 69 0 93 10 57 24 -22 8 -69 6 -209 -11z"/>
</g>
<g id="part-4" class="char-part">
  <path d="M654 264 l-29 -37 -32 17 c-61 31 -65 16 -7 -28 33 -24 77 -62 99
-85 36 -37 43 -41 90 -41 58 0 92 15 60 25 -66 22 -126 49 -164 74 l-44 29 38
16 c55 23 68 36 54 52 -18 22 -33 17 -65 -22z"/>
  <path d="M464 135 c-1 -114 2 -115 87 -48 63 49 72 69 16 34 -58 -36 -67 -30
-64 42 2 55 0 62 -18 65 -19 3 -20 -3 -21 -93z"/>
</g>
</g>
</svg>