<?xml version="1.0" standalone="no"?>
<!DOCTYPE svg PUBLIC "-//W3C//DTD SVG 20010904//EN"
 "http://www.w3.org/TR/2001/REC-SVG-20010904/DTD/svg10.dtd">
<svg version="1.0" xmlns="http://www.w3.org/2000/svg"
 width="96.000000pt" height="68.000000pt" viewBox="0 0 96.000000 68.000000"
 preserveAspectRatio="xMidYMid meet">
<metadata>
Created by potrace 1.16, written by Peter Selinger 2001-2019
Combined from part_0.svg through part_5.svg with named groups
</metadata>
<g transform="translate(0.000000,68.000000) scale(0.100000,-0.100000)" fill="#000000" stroke="none">
<g id="part-0" class="char-part">
  <path d="M558 530 l4 -80 -43 0 c-24 0 -51 -5 -59 -10 -11 -7 2 -10 43 -10
l57 0 0 -39 c0 -35 -3 -39 -31 -45 -17 -3 -51 -6 -75 -6 -43 0 -59 -15 -29
-27 9 -3 57 0 108 6 51 6 127 12 170 13 43 1 83 6 90 10 25 16 -9 23 -100 21
l-95 -3 6 38 c3 20 5 38 6 40 0 1 11 2 24 2 46 0 86 13 86 27 0 12 -11 13 -57
7 l-56 -7 6 66 c6 68 2 77 -41 77 -15 0 -17 -10 -14 -80z"/>
  <path d="M247 588 c-2 -7 -1 -22 4 -33 4 -11 8 -45 8 -77 l1 -56 -75 -7 c-54
-5 -75 -11 -75 -21 0 -11 16 -14 65 -14 36 0 65 -4 65 -8 0 -17 -79 -128 -118
-167 -23 -22 -41 -43 -42 -47 -1 -33 115 51 151 108 12 19 23 34 24 32 1 -2
-2 -51 -7 -110 -12 -121 -7 -158 21 -158 26 0 31 19 31 120 0 48 3 102 6 119
l7 32 28 -27 c21 -20 32 -25 40 -17 19 19 5 47 -34 68 -29 16 -37 26 -37 48 0
22 4 27 24 27 14 0 37 5 52 10 38 15 16 35 -36 33 l-39 -2 6 63 c5 58 4 64
-18 80 -28 19 -45 21 -52 4z"/>
  <path d="M557 261 l6 -41 -42 -1 c-54 -2 -58 -3 -67 -11 -4 -5 18 -8 49 -8 56
0 56 0 63 -34 3 -19 3 -39 0 -44 -3 -5 -49 -13 -101 -17 -52 -4 -95 -11 -95
-15 0 -14 66 -23 108 -15 20 4 111 10 201 14 166 6 206 17 142 39 -16 6 -31 9
-33 7 -1 -1 -42 -6 -90 -10 l-88 -7 0 40 c0 43 12 51 75 52 17 0 37 5 45 10
23 15 -8 32 -45 24 -54 -12 -59 -10 -65 21 -4 25 -10 31 -37 33 -31 3 -31 3
-26 -37z"/>
</g>
<g id="part-1" class="char-part">
  <path d="M257 506 l6 -84 -44 -7 c-114 -17 -118 -20 -41 -25 l73 -5 -25 -50
c-14 -27 -53 -80 -87 -117 -33 -38 -56 -68 -51 -68 20 0 93 62 133 112 l42 53
-9 -95 c-11 -127 -10 -168 5 -182 10 -11 15 -9 27 6 10 15 14 53 14 150 l0
131 31 -32 c31 -34 44 -40 53 -24 11 18 -6 39 -45 56 -31 15 -39 23 -39 45 0
24 5 28 46 36 56 11 58 29 2 28 l-41 -1 7 68 c5 61 4 69 -13 79 -45 23 -49 16
-44 -74z"/>
</g>
<g id="part-2" class="char-part">
  <path d="M555 533 l0 -78 -45 -3 c-69 -5 -74 -22 -7 -22 l57 0 0 -39 0 -40
-57 -6 c-32 -4 -69 -10 -83 -15 l-25 -8 27 -7 c15 -4 64 -2 109 4 45 6 112 12
148 12 36 1 80 4 96 8 l30 7 -23 13 c-17 9 -46 10 -103 5 -73 -6 -79 -5 -79
12 1 51 10 61 68 70 71 11 66 30 -7 26 l-53 -3 3 68 4 68 -30 3 -30 3 0 -78z"/>
</g>
<g id="part-3" class="char-part">
  <path d="M557 261 l6 -41 -57 0 c-31 0 -56 -4 -56 -10 0 -5 25 -10 55 -10 49
0 55 -2 61 -24 13 -55 6 -60 -96 -69 -52 -5 -97 -11 -99 -13 -11 -11 16 -19
62 -18 122 3 384 16 407 20 25 6 25 6 5 21 -16 12 -40 14 -127 8 l-108 -6 0
40 c0 39 1 40 38 46 77 13 92 17 92 25 0 15 -27 19 -66 9 -54 -12 -52 -13 -56
24 -3 28 -7 32 -35 35 -31 3 -31 3 -26 -37z"/>
</g>
</g>
</svg>