<?xml version="1.0" standalone="no"?>
<!DOCTYPE svg PUBLIC "-//W3C//DTD SVG 20010904//EN"
 "http://www.w3.org/TR/2001/REC-SVG-20010904/DTD/svg10.dtd">
<svg version="1.0" xmlns="http://www.w3.org/2000/svg"
 width="96.000000pt" height="68.000000pt" viewBox="0 0 96.000000 68.000000"
 preserveAspectRatio="xMidYMid meet">
<metadata>
Created by potrace 1.16, written by Peter Selinger 2001-2019
Combined from part_0.svg through part_5.svg with named groups
</metadata>
<g transform="translate(0.000000,68.000000) scale(0.100000,-0.100000)" fill="#000000" stroke="none">
<g id="part-0" class="char-part">
  <path d="M595 575 c-16 -14 -34 -25 -40 -26 -5 0 -28 -9 -50 -19 l-40 -19 40
5 c36 5 154 41 164 50 7 6 -21 34 -33 34 -6 -1 -24 -12 -41 -25z"/>
  <path d="M206 533 c4 -10 10 -45 12 -77 l4 -59 -61 6 c-56 5 -85 -3 -62 -18 6
-3 18 -31 27 -63 21 -68 30 -80 46 -64 7 7 20 12 30 12 15 0 18 -8 18 -49 l0
-49 -66 -7 -66 -8 21 -20 c19 -19 24 -20 53 -8 18 7 66 24 106 38 l73 25 15
-21 c20 -29 44 -27 44 3 0 15 -11 33 -26 45 -31 25 -56 28 -48 6 4 -10 -3 -18
-21 -25 -36 -14 -35 -15 -35 30 0 42 4 45 69 52 15 2 25 10 27 22 1 10 14 31
29 46 l26 27 -28 23 c-23 18 -35 20 -70 15 -40 -6 -43 -5 -43 17 0 13 5 39 10
58 12 42 -5 60 -58 60 -29 0 -33 -3 -26 -17z m124 -165 c-1 -38 -13 -58 -37
-58 -21 0 -24 4 -19 23 3 12 6 28 6 35 0 6 11 12 25 12 14 0 25 -6 25 -12z
m-110 -34 c0 -31 -3 -35 -22 -32 -16 2 -24 12 -29 36 -6 30 -5 32 22 32 27 0
29 -3 29 -36z"/>
  <path d="M705 503 c-10 -16 -27 -36 -39 -45 -20 -17 -21 -18 -1 -18 11 0 45
12 75 26 l55 25 -25 19 c-34 26 -45 25 -65 -7z"/>
  <path d="M545 481 c-8 -14 36 -54 47 -43 6 6 8 17 5 25 -6 16 -44 29 -52 18z"/>
  <path d="M446 463 c-10 -10 26 -53 45 -53 21 0 25 23 7 37 -19 14 -45 23 -52
16z"/>
  <path d="M595 394 c-27 -7 -63 -14 -80 -15 -16 0 -39 -4 -50 -8 -19 -8 -19 -8
0 -18 15 -7 40 -5 94 8 41 11 76 17 79 15 2 -3 -6 -19 -18 -36 -18 -25 -27
-30 -46 -26 -27 7 -29 4 -12 -24 7 -10 9 -22 5 -26 -4 -4 -43 -9 -87 -12 -44
-2 -80 -8 -80 -12 0 -4 13 -13 28 -19 22 -9 41 -9 90 3 l62 14 0 -63 c0 -80
-6 -95 -38 -95 l-26 0 29 -30 c55 -57 73 -34 76 98 l3 92 36 0 c70 0 190 13
190 20 0 21 -59 27 -143 16 -80 -11 -87 -11 -87 5 0 19 41 52 84 69 30 11 33
25 9 38 -35 18 -69 20 -118 6z"/>
</g>
<g id="part-1" class="char-part">
  <path d="M200 542 c0 -4 4 -12 10 -18 5 -5 12 -35 16 -67 l7 -57 -67 0 -67 0
15 -27 c8 -16 19 -47 25 -70 11 -41 12 -42 46 -36 l35 6 0 -41 c0 -22 4 -43 9
-47 17 -10 41 26 41 61 0 32 2 34 38 35 20 1 40 1 45 0 4 0 7 8 7 18 0 11 11
33 25 49 14 17 25 32 25 36 0 16 -60 35 -95 29 l-38 -6 6 61 c6 54 4 63 -13
72 -22 12 -70 13 -70 2z m128 -161 c20 -13 4 -61 -25 -72 -34 -13 -33 -13 -33
30 0 45 25 63 58 42z m-103 -46 c0 -36 -3 -40 -27 -43 -16 -2 -28 1 -28 6 0 5
-3 23 -6 40 -5 24 -2 31 12 35 40 10 49 3 49 -38z"/>
</g>
<g id="part-2" class="char-part">
  <path d="M320 240 c0 -20 50 -90 65 -90 21 0 19 43 -2 62 -29 25 -63 40 -63
28z"/>
</g>
<g id="part-3" class="char-part">
  <path d="M590 575 c-19 -14 -50 -30 -70 -36 -19 -6 -39 -16 -45 -21 -15 -14
70 2 144 27 60 20 63 22 47 38 -23 22 -34 21 -76 -8z"/>
  <path d="M687 485 c-44 -51 -35 -56 42 -24 54 23 64 41 32 59 -29 15 -33 13
-74 -35z"/>
  <path d="M540 482 c0 -15 41 -53 51 -47 15 10 10 34 -10 45 -24 12 -41 13 -41
2z"/>
  <path d="M440 463 c0 -19 32 -53 51 -53 21 0 26 22 7 38 -19 14 -58 25 -58 15z"/>
</g>
<g id="part-4" class="char-part">
  <path d="M590 395 c-30 -8 -76 -17 -103 -20 -26 -4 -45 -10 -42 -16 9 -13 59
-11 127 7 33 8 62 13 65 10 3 -3 -4 -18 -16 -34 -11 -16 -18 -32 -15 -35 7 -7
124 55 124 66 0 8 -63 38 -77 36 -4 -1 -33 -7 -63 -14z"/>
</g>
<g id="part-5" class="char-part">
  <path d="M572 297 c27 -22 0 -52 -49 -53 -93 -2 -108 -4 -93 -14 16 -10 115
-3 141 10 14 8 16 0 14 -68 -3 -115 -2 -111 -27 -105 -21 4 -22 3 -5 -10 9 -8
17 -19 17 -26 0 -6 7 -11 15 -11 8 0 15 9 15 20 0 11 4 20 10 20 5 0 8 38 7
90 -2 73 0 91 13 95 8 4 52 6 97 6 57 0 82 3 86 12 6 16 -68 23 -78 7 -3 -6
-10 -8 -15 -5 -4 3 -29 1 -54 -4 -28 -5 -46 -5 -46 1 0 5 -5 6 -11 2 -8 -4 -9
0 -4 15 3 12 2 21 -4 21 -5 0 -18 3 -28 6 -17 5 -17 5 -1 -9z"/>
</g>
</g>
</svg>