<?xml version="1.0" standalone="no"?>
<!DOCTYPE svg PUBLIC "-//W3C//DTD SVG 20010904//EN"
 "http://www.w3.org/TR/2001/REC-SVG-20010904/DTD/svg10.dtd">
<svg version="1.0" xmlns="http://www.w3.org/2000/svg"
 width="96.000000pt" height="68.000000pt" viewBox="0 0 96.000000 68.000000"
 preserveAspectRatio="xMidYMid meet">
<metadata>
Created by potrace 1.16, written by Peter Selinger 2001-2019
Combined from part_0.svg through part_5.svg with named groups
</metadata>
<g transform="translate(0.000000,68.000000) scale(0.100000,-0.100000)" fill="#000000" stroke="none">
<g id="part-0" class="char-part">
  <path d="M470 519 c0 -54 -3 -69 -15 -70 -8 -1 -19 -3 -25 -4 -5 -1 -23 -3
-40 -4 -54 -2 -31 -21 25 -21 l55 0 0 -69 c0 -68 0 -69 -31 -80 -18 -6 -41
-11 -51 -11 -17 0 -19 5 -13 39 6 34 3 41 -15 51 -12 6 -23 10 -24 8 -2 -2 -6
-31 -9 -66 -8 -73 3 -84 56 -59 69 32 74 31 81 -10 3 -21 6 -52 6 -69 0 -78
132 -115 293 -83 77 16 82 24 59 100 -20 64 -25 66 -36 13 -11 -51 -38 -68
-117 -72 -87 -5 -136 4 -148 27 -6 10 -13 41 -17 69 -7 57 -5 60 75 77 33 7
34 6 29 -20 -4 -18 -1 -28 9 -32 19 -7 29 8 49 77 15 51 15 55 -2 67 -10 7
-26 13 -35 13 -14 0 -16 -7 -12 -38 l5 -39 -52 -10 c-42 -8 -53 -8 -57 3 -9
23 8 125 20 129 7 1 34 7 61 11 69 12 77 39 10 31 -27 -3 -56 -7 -64 -9 -11
-2 -14 4 -11 22 12 68 8 84 -26 91 l-33 6 0 -68z"/>
  <path d="M180 512 c0 -15 51 -62 75 -68 59 -15 74 24 23 56 -32 19 -98 28 -98
12z"/>
  <path d="M110 361 c14 -27 59 -61 81 -61 11 0 19 2 19 4 0 2 3 11 6 20 7 19
-50 56 -89 56 -24 0 -26 -2 -17 -19z"/>
  <path d="M226 256 c-19 -30 -49 -65 -65 -77 -17 -13 -31 -30 -31 -38 0 -24 39
-83 52 -79 6 2 21 33 33 68 12 36 31 88 43 117 29 71 11 76 -32 9z"/>
</g>
<g id="part-1" class="char-part">
  <path d="M217 481 c48 -46 83 -54 83 -18 0 28 -26 45 -82 53 l-43 6 42 -41z"/>
  <path d="M110 372 c0 -18 69 -74 84 -69 31 12 18 44 -24 61 -45 18 -60 20 -60
8z"/>
  <path d="M212 231 c-28 -39 -56 -71 -62 -71 -13 0 -13 -33 2 -65 17 -39 35
-30 54 27 9 29 28 77 41 107 13 29 22 58 21 63 -2 6 -27 -22 -56 -61z"/>
</g>
<g id="part-2" class="char-part">
  <path d="M468 522 l4 -70 -56 -7 c-77 -10 -81 -25 -6 -25 l61 0 -3 -139 c-3
-128 -1 -141 18 -167 31 -42 90 -56 204 -51 52 3 108 11 123 18 31 14 32 19 4
114 l-14 50 -13 -45 c-7 -25 -24 -55 -37 -68 -21 -19 -35 -22 -113 -22 -133 0
-146 21 -130 206 5 59 12 109 14 112 3 2 31 10 62 16 58 12 80 30 47 38 -10 3
-27 1 -38 -3 -11 -4 -32 -8 -46 -8 -26 -1 -26 -1 -17 45 11 52 6 61 -38 70
l-30 6 4 -70z"/>
</g>
<g id="part-3" class="char-part">
  <path d="M613 353 c2 -32 -2 -38 -23 -44 -42 -12 -204 -49 -213 -49 -5 0 -6
18 -2 39 5 33 3 41 -14 50 -29 16 -34 14 -28 -15 2 -14 0 -41 -6 -60 -8 -25
-7 -37 3 -49 12 -14 15 -14 36 0 13 8 63 24 111 35 48 11 98 22 111 25 20 5
22 2 20 -22 -2 -22 1 -28 17 -28 16 0 23 13 37 65 17 61 17 66 1 78 -9 6 -25
12 -35 12 -14 0 -17 -7 -15 -37z"/>
</g>
</g>
</svg>