<?xml version="1.0" standalone="no"?>
<!DOCTYPE svg PUBLIC "-//W3C//DTD SVG 20010904//EN"
 "http://www.w3.org/TR/2001/REC-SVG-20010904/DTD/svg10.dtd">
<svg version="1.0" xmlns="http://www.w3.org/2000/svg"
 width="96.000000pt" height="68.000000pt" viewBox="0 0 96.000000 68.000000"
 preserveAspectRatio="xMidYMid meet">
<metadata>
Created by potrace 1.16, written by Peter Selinger 2001-2019
Combined from part_0.svg through part_5.svg with named groups
</metadata>
<g transform="translate(0.000000,68.000000) scale(0.100000,-0.100000)" fill="#000000" stroke="none">
<g id="part-0" class="char-part">
  <path d="M390 588 c0 -7 9 -24 20 -38 11 -14 20 -29 20 -33 0 -5 -48 -7 -107
-6 l-106 3 -25 -52 c-13 -29 -21 -59 -18 -68 10 -26 40 -11 61 32 l20 40 165
17 c161 17 240 21 240 13 0 -2 -7 -16 -15 -32 -8 -15 -13 -29 -11 -31 8 -8
136 33 136 44 0 7 -16 24 -35 39 l-35 26 -101 -12 c-55 -6 -102 -10 -103 -8
-1 2 -8 15 -15 30 -8 15 -24 30 -35 34 -12 3 -29 8 -38 10 -11 3 -18 0 -18 -8z"/>
  <path d="M393 407 c-97 -11 -126 -27 -48 -27 26 0 45 -5 45 -11 0 -17 -61 -70
-92 -81 -30 -11 -37 -35 -14 -44 8 -3 40 0 71 6 31 6 59 10 61 7 3 -3 6 -20 7
-38 2 -33 2 -33 -58 -44 -66 -13 -57 -26 15 -22 l45 2 0 -35 0 -35 -114 -8
c-63 -4 -117 -9 -119 -12 -12 -12 13 -20 56 -19 83 1 505 24 509 28 2 2 -8 11
-22 20 -24 15 -38 16 -132 7 -142 -15 -133 -16 -133 23 0 34 1 35 48 41 26 3
53 7 60 8 7 1 13 7 12 12 0 6 -26 10 -58 10 l-57 0 3 33 c2 21 -1 32 -10 32
-25 1 16 17 59 24 36 5 44 3 53 -14 6 -11 20 -20 31 -20 16 0 20 5 17 27 -2
22 -13 33 -48 49 -48 23 -69 22 -49 -2 6 -8 10 -16 8 -18 -8 -7 -179 -21 -179
-15 0 4 16 17 36 29 19 13 40 33 44 46 8 21 16 24 57 24 56 0 93 9 93 21 0 11
-72 9 -197 -4z"/>
</g>
<g id="part-1" class="char-part">
  <path d="M414 556 c14 -19 26 -37 26 -39 0 -3 -43 -8 -96 -12 -77 -6 -98 -5
-106 6 -7 11 -11 11 -15 1 -2 -7 -15 -32 -28 -56 -24 -45 -20 -74 9 -63 9 4
23 22 33 41 19 40 8 38 250 61 90 9 167 14 173 10 6 -4 5 -17 -5 -36 -18 -33
-17 -33 50 -16 60 16 67 41 18 67 -31 17 -68 16 -205 -5 -35 -5 -38 -3 -38 19
0 29 -33 56 -68 56 l-24 0 26 -34z"/>
</g>
<g id="part-2" class="char-part">
  <path d="M470 414 c-8 -1 -50 -6 -92 -9 -45 -4 -78 -11 -78 -17 0 -8 36 -9
114 -5 127 8 176 15 176 28 0 8 -86 11 -120 3z"/>
</g>
<g id="part-3" class="char-part">
  <path d="M372 349 c-13 -16 -41 -40 -63 -52 -43 -25 -53 -57 -16 -57 12 0 78
11 147 25 124 24 125 24 139 5 20 -29 51 -26 51 5 0 19 -10 29 -40 45 -49 25
-79 27 -60 5 7 -9 11 -17 9 -20 -2 -2 -45 -7 -94 -10 l-90 -7 47 33 c51 36 56
53 17 56 -16 2 -31 -7 -47 -28z"/>
</g>
<g id="part-4" class="char-part">
  <path d="M439 263 c-13 -3 -16 -12 -12 -42 l5 -38 -68 -8 c-57 -6 -65 -9 -45
-17 14 -5 44 -6 68 -2 l43 6 0 -41 0 -41 -67 -1 c-38 -1 -95 -4 -128 -8 -58
-7 -59 -8 -31 -19 22 -10 54 -10 130 -3 85 9 297 20 399 21 39 0 33 15 -10 28
-27 8 -65 8 -128 2 -131 -14 -125 -15 -125 24 0 37 15 46 82 46 20 0 39 4 43
9 9 15 -31 23 -81 15 l-47 -7 6 31 c7 33 -7 51 -34 45z"/>
</g>
</g>
</svg>