<?xml version="1.0" standalone="no"?>
<!DOCTYPE svg PUBLIC "-//W3C//DTD SVG 20010904//EN"
 "http://www.w3.org/TR/2001/REC-SVG-20010904/DTD/svg10.dtd">
<svg version="1.0" xmlns="http://www.w3.org/2000/svg"
 width="96.000000pt" height="68.000000pt" viewBox="0 0 96.000000 68.000000"
 preserveAspectRatio="xMidYMid meet">
<metadata>
Created by potrace 1.16, written by Peter Selinger 2001-2019
Combined from part_0.svg through part_5.svg with named groups
</metadata>
<g transform="translate(0.000000,68.000000) scale(0.100000,-0.100000)" fill="#000000" stroke="none">
<g id="part-0" class="char-part">
  <path d="M248 574 c-4 -3 -2 -20 3 -37 5 -18 9 -48 9 -68 0 -39 -12 -49 -56
-49 -23 0 -24 3 -18 36 7 39 -4 54 -41 54 -18 0 -20 -8 -22 -70 -2 -60 0 -70
17 -75 10 -3 32 0 47 8 15 8 61 20 101 27 60 11 77 11 97 0 14 -7 27 -11 30
-8 3 3 13 31 22 63 17 61 12 74 -29 75 -15 0 -18 -9 -18 -45 l0 -45 -41 0 -41
0 4 60 c2 46 -1 63 -12 70 -17 11 -44 13 -52 4z"/>
  <path d="M611 479 c-38 -14 -57 -17 -64 -10 -6 6 -20 11 -31 11 -20 0 -21 -6
-21 -118 0 -111 -19 -242 -35 -242 -4 0 -10 -9 -13 -21 -10 -37 17 -15 46 38
25 48 57 198 57 275 0 31 2 33 53 42 l39 7 -7 -148 c-8 -165 0 -206 49 -239
31 -20 120 -14 144 10 13 13 13 19 -2 49 -9 19 -16 42 -16 50 0 35 -18 24 -23
-15 -7 -56 -26 -72 -71 -64 -20 4 -34 11 -31 17 4 5 1 9 -6 9 -17 0 -5 232 16
289 18 53 18 46 -1 65 -18 19 -15 19 -83 -5z"/>
  <path d="M257 351 c-43 -9 -75 -19 -71 -23 7 -8 52 -4 144 14 43 8 51 12 35
19 -24 9 -14 10 -108 -10z"/>
  <path d="M295 290 c-27 -5 -75 -9 -105 -9 -30 -1 -50 -5 -43 -9 16 -10 43 -75
43 -102 0 -11 7 -32 16 -45 22 -34 10 -45 -52 -45 -59 0 -68 -9 -30 -30 22
-11 41 -9 147 19 146 39 183 53 122 47 -39 -4 -42 -2 -33 14 6 11 15 22 21 25
7 5 6 11 -2 21 -8 10 -6 24 11 60 32 65 20 71 -95 54z m55 -39 c0 -31 1 -31
-94 -47 -41 -7 -56 3 -56 42 0 18 7 21 52 23 29 1 55 4 57 7 2 2 13 4 23 4 13
0 18 -8 18 -29z m-18 -67 c5 -5 -6 -72 -14 -78 -1 -2 -19 -6 -38 -10 -31 -5
-36 -4 -37 15 -1 12 -9 29 -17 38 -9 10 -16 20 -16 24 0 10 113 21 122 11z"/>
</g>
<g id="part-1" class="char-part">
  <path d="M258 502 l4 -79 -37 -6 c-50 -8 -55 -3 -44 36 7 26 6 34 -8 45 -28
20 -44 15 -37 -13 3 -13 1 -38 -5 -55 -20 -59 1 -71 75 -45 23 7 71 19 108 26
61 10 68 10 80 -7 13 -17 14 -17 25 4 16 31 26 112 13 112 -6 0 -17 3 -26 6
-13 5 -16 -2 -16 -39 0 -42 -2 -45 -31 -51 -62 -12 -62 -12 -54 59 6 64 6 65
-20 75 -14 5 -28 10 -29 10 -1 0 -1 -35 2 -78z"/>
</g>
<g id="part-2" class="char-part">
  <path d="M332 159 c-1 -39 -15 -56 -52 -61 -21 -3 -30 0 -30 9 0 16 -44 63
-60 63 -6 0 -2 -17 10 -39 23 -46 17 -51 -56 -51 -49 0 -57 -14 -19 -32 20 -9
47 -5 147 21 129 35 183 56 116 47 l-38 -5 22 30 c19 26 20 31 8 39 -30 19
-47 11 -48 -21z"/>
</g>
<g id="part-3" class="char-part">
  <path d="M494 347 c-1 -116 -4 -140 -27 -202 -14 -38 -24 -71 -22 -73 7 -7 54
72 70 118 18 50 40 251 31 275 -3 8 -16 15 -28 15 -23 0 -23 -2 -24 -133z"/>
</g>
<g id="part-4" class="char-part">
  <path d="M617 481 c-64 -24 -83 -43 -31 -30 22 4 43 9 48 9 5 0 6 -62 2 -145
-8 -161 -1 -202 41 -235 30 -24 80 -26 128 -6 39 17 41 22 21 63 -8 15 -19 39
-25 53 -9 24 -10 24 -10 -10 -1 -48 -25 -80 -60 -80 -47 0 -64 29 -62 111 2
87 18 204 31 229 13 24 13 26 -6 44 -18 19 -16 19 -77 -3z"/>
</g>
</g>
</svg>