<?xml version="1.0" standalone="no"?>
<!DOCTYPE svg PUBLIC "-//W3C//DTD SVG 20010904//EN"
 "http://www.w3.org/TR/2001/REC-SVG-20010904/DTD/svg10.dtd">
<svg version="1.0" xmlns="http://www.w3.org/2000/svg"
 width="96.000000pt" height="68.000000pt" viewBox="0 0 96.000000 68.000000"
 preserveAspectRatio="xMidYMid meet">
<metadata>
Created by potrace 1.16, written by Peter Selinger 2001-2019
Combined from part_0.svg through part_5.svg with named groups
</metadata>
<g transform="translate(0.000000,68.000000) scale(0.100000,-0.100000)" fill="#000000" stroke="none">
<g id="part-0" class="char-part">
  <path d="M419 624 c0 -5 0 -32 1 -59 2 -63 -24 -95 -99 -121 -53 -19 -68 -36
-28 -31 20 2 22 -2 21 -47 0 -45 -4 -53 -39 -83 -21 -18 -32 -33 -24 -33 18 0
66 32 83 56 14 18 15 18 33 1 21 -18 53 -23 53 -8 0 12 -22 28 -45 33 -16 3
-20 10 -18 38 1 19 -3 38 -9 41 -6 4 9 16 33 26 24 11 50 27 57 35 12 15 19
14 75 -9 60 -24 92 -43 72 -43 -6 0 -10 -13 -11 -29 -2 -46 -24 -90 -53 -106
-17 -9 -20 -14 -10 -15 9 0 33 11 53 25 l38 26 33 -21 c33 -20 65 -26 65 -12
0 15 -24 32 -45 32 -12 0 -30 6 -41 14 -18 14 -18 15 6 20 20 4 65 11 108 16
2 0 2 5 0 12 -5 14 -39 20 -53 8 -6 -5 -22 -13 -36 -19 -24 -9 -26 -8 -25 20
1 20 6 29 19 29 10 0 17 8 17 19 0 23 -34 38 -114 51 -32 5 -61 11 -63 14 -2
2 29 12 69 21 101 24 105 27 77 54 -30 28 -35 27 -80 -14 -57 -51 -89 -42 -58
17 6 11 7 24 2 28 -12 13 -63 23 -64 14z"/>
  <path d="M300 557 c0 -19 57 -70 69 -63 20 13 11 42 -18 59 -35 20 -51 22 -51
4z"/>
  <path d="M400 385 l-23 -24 34 9 c19 6 35 10 36 10 2 0 3 7 3 15 0 23 -24 18
-50 -10z"/>
  <path d="M227 365 c17 -23 53 -35 53 -17 0 15 -35 42 -54 42 -16 0 -16 -2 1
-25z"/>
  <path d="M494 369 c-8 -14 21 -43 35 -35 8 5 8 13 1 27 -12 21 -25 25 -36 8z"/>
  <path d="M435 251 c5 -16 -3 -19 -71 -25 -42 -3 -100 -6 -128 -7 -28 -1 -62
-4 -76 -8 l-25 -7 23 -13 c17 -9 45 -9 127 -1 58 7 110 10 117 8 20 -7 -99
-85 -173 -114 -38 -15 -67 -29 -65 -31 9 -9 152 40 213 73 l64 34 -3 -68 c-2
-76 6 -100 28 -81 9 8 14 33 14 75 0 37 4 64 10 64 6 0 41 -20 78 -45 66 -45
68 -45 151 -45 94 0 97 10 8 29 -62 13 -186 61 -225 87 -22 15 -22 36 1 33 45
-5 297 3 297 10 0 20 -60 33 -127 27 -181 -17 -183 -17 -183 4 0 16 -7 20 -31
20 -25 0 -29 -3 -24 -19z"/>
</g>
<g id="part-1" class="char-part">
  <path d="M427 578 c6 -60 -23 -103 -90 -133 -28 -13 -44 -24 -35 -24 25 -1
117 35 138 54 17 15 23 14 90 -14 72 -31 120 -39 120 -21 0 16 -52 37 -110 45
-105 14 -99 23 38 54 53 11 58 16 42 36 -16 19 -44 19 -61 -1 -7 -8 -30 -24
-52 -35 l-39 -20 4 48 c3 45 2 48 -23 51 -26 3 -27 2 -22 -40z"/>
  <path d="M300 561 c0 -11 47 -61 58 -61 16 0 21 13 12 30 -10 19 -70 45 -70
31z"/>
</g>
<g id="part-2" class="char-part">
  <path d="M316 383 c6 -47 -11 -80 -55 -110 -22 -15 -28 -23 -17 -23 26 0 58
19 83 48 21 25 23 25 41 9 23 -21 52 -22 52 -2 0 9 -12 18 -30 22 -49 9 -44
21 15 39 49 16 54 20 41 32 -13 13 -19 11 -48 -13 l-33 -28 -5 29 c-4 20 -12
30 -27 32 -19 3 -21 -1 -17 -35z"/>
  <path d="M222 368 c18 -26 58 -37 58 -15 0 7 -11 19 -25 25 -39 18 -49 15 -33
-10z"/>
</g>
<g id="part-3" class="char-part">
  <path d="M573 410 c9 -34 -12 -87 -44 -114 -39 -33 -14 -34 35 -1 l36 25 33
-20 c38 -24 67 -26 67 -5 0 9 -17 19 -45 26 -64 16 -57 35 15 43 58 7 77 20
44 33 -9 3 -29 -1 -44 -11 -37 -21 -48 -20 -52 5 -2 12 -14 26 -27 31 -20 7
-23 6 -18 -12z"/>
  <path d="M490 366 c0 -7 7 -19 15 -26 13 -10 18 -11 28 -1 9 10 8 15 -7 27
-25 18 -36 18 -36 0z"/>
</g>
<g id="part-4" class="char-part">
  <path d="M435 251 c5 -16 -2 -19 -56 -25 -34 -3 -87 -6 -118 -7 -31 0 -74 -3
-96 -7 l-40 -8 32 -11 c23 -8 58 -9 120 -3 125 14 138 13 124 -4 -24 -28 -90
-67 -172 -101 -46 -19 -77 -35 -69 -35 32 0 172 49 226 79 l56 32 -2 -63 c-4
-86 -2 -98 14 -98 19 0 23 14 25 90 1 35 3 66 4 67 2 1 37 -20 78 -48 l76 -50
89 3 89 3 -94 24 c-97 25 -232 86 -239 109 -3 9 33 12 157 12 89 0 161 4 161
9 0 5 -13 14 -29 20 -21 9 -56 10 -142 2 -145 -14 -136 -14 -142 9 -3 14 -14
20 -32 20 -21 0 -25 -4 -20 -19z"/>
</g>
</g>
</svg>