<?xml version="1.0" standalone="no"?>
<!DOCTYPE svg PUBLIC "-//W3C//DTD SVG 20010904//EN"
 "http://www.w3.org/TR/2001/REC-SVG-20010904/DTD/svg10.dtd">
<svg version="1.0" xmlns="http://www.w3.org/2000/svg"
 width="96.000000pt" height="68.000000pt" viewBox="0 0 96.000000 68.000000"
 preserveAspectRatio="xMidYMid meet">
<metadata>
Created by potrace 1.16, written by Peter Selinger 2001-2019
Combined from part_0.svg through part_5.svg with named groups
</metadata>
<g transform="translate(0.000000,68.000000) scale(0.100000,-0.100000)" fill="#000000" stroke="none">
<g id="part-0" class="char-part">
  <path d="M644 574 c4 -15 4 -39 1 -55 -6 -25 -11 -29 -40 -29 -32 0 -34 2 -37
38 -2 30 -7 38 -25 40 -22 3 -22 1 -17 -42 l7 -46 -32 0 c-28 0 -31 2 -25 25
5 20 1 26 -21 35 -37 14 -36 15 -29 -30 6 -38 5 -40 -20 -40 -35 0 -34 -18 2
-22 26 -3 27 -5 27 -68 0 -64 1 -65 25 -62 14 2 87 6 163 9 75 2 137 9 137 13
0 15 -41 32 -63 26 -12 -3 -64 -8 -116 -12 -106 -8 -111 -5 -111 64 0 41 0 42
35 42 30 0 35 -3 35 -24 0 -43 10 -55 38 -51 15 2 44 7 65 10 28 5 36 9 29 18
-6 7 -6 21 -1 34 6 18 19 23 68 29 76 8 80 24 6 24 -60 0 -64 5 -45 56 12 31
1 44 -39 44 -20 0 -22 -3 -17 -26z m-8 -120 c-3 -9 -6 -22 -6 -30 0 -9 -11
-14 -30 -14 -27 0 -30 3 -30 30 0 28 3 30 36 30 29 0 35 -3 30 -16z"/>
  <path d="M196 543 c4 -16 8 -50 9 -78 l0 -50 -57 -3 c-32 -2 -58 -5 -58 -8 0
-3 7 -12 15 -20 8 -9 18 -33 21 -55 8 -47 31 -76 47 -60 6 6 17 11 24 11 16 0
18 -76 3 -85 -6 -4 -36 -9 -66 -12 l-56 -6 23 -18 c31 -24 41 -23 91 2 22 11
60 27 85 34 41 12 45 12 63 -7 10 -11 23 -17 29 -13 21 12 10 40 -24 62 -42
28 -55 29 -48 4 3 -12 -2 -20 -16 -24 -19 -5 -21 -1 -21 33 l0 39 48 3 c41 3
47 6 44 23 -1 11 9 36 23 55 24 32 24 36 8 47 -9 7 -39 13 -66 13 l-50 0 6 60
c6 66 -4 80 -58 80 -25 0 -26 -2 -19 -27z m114 -155 c0 -31 -13 -57 -31 -61
-15 -4 -19 0 -19 22 0 29 16 51 37 51 7 0 13 -6 13 -12z m-100 -43 c0 -28 -4
-35 -20 -35 -11 0 -20 6 -20 13 0 6 -3 22 -6 35 -5 19 -2 22 20 22 23 0 26 -4
26 -35z"/>
  <path d="M562 293 c3 -25 0 -28 -32 -30 -92 -7 -140 -15 -140 -25 0 -6 26 -9
70 -6 46 2 70 0 70 -7 0 -17 -56 -70 -116 -110 -31 -21 -53 -39 -51 -42 6 -5
105 44 123 61 6 6 20 18 31 26 10 8 27 21 36 29 17 13 18 9 11 -76 -5 -65 -3
-92 5 -97 25 -16 40 15 43 91 l3 76 55 -51 c54 -51 56 -52 118 -52 34 0 62 4
62 8 0 5 -19 15 -42 22 -83 24 -198 95 -198 121 0 5 45 9 100 9 99 0 121 8 79
30 -13 7 -48 9 -101 4 -56 -5 -79 -4 -74 4 11 18 -6 42 -30 42 -21 0 -24 -4
-22 -27z"/>
</g>
<g id="part-1" class="char-part">
  <path d="M207 492 l6 -80 -30 -6 c-17 -4 -42 -4 -57 0 -30 7 -32 2 -12 -29 8
-12 17 -39 20 -59 8 -45 16 -51 50 -38 25 9 26 8 26 -29 0 -42 6 -52 26 -44 9
3 14 20 14 44 l0 38 51 7 c34 5 49 11 45 19 -2 7 7 29 21 50 32 47 21 60 -53
59 -61 -2 -63 2 -44 81 10 45 7 50 -37 60 l-31 6 5 -79z m109 -112 c-3 -11 -9
-29 -12 -40 -3 -11 -14 -20 -25 -20 -16 0 -19 7 -19 40 0 38 2 40 31 40 26 0
29 -3 25 -20z m-106 -29 c0 -27 -5 -41 -16 -45 -22 -8 -24 -6 -31 37 -5 35 -1
40 40 46 4 0 7 -17 7 -38z"/>
</g>
<g id="part-2" class="char-part">
  <path d="M321 215 c33 -46 43 -53 54 -35 11 18 -4 45 -34 63 -48 28 -54 20
-20 -28z"/>
</g>
<g id="part-3" class="char-part">
  <path d="M425 523 c3 -15 7 -32 8 -37 1 -6 -14 -13 -33 -16 -35 -7 -29 -15 15
-22 18 -3 20 -11 20 -68 l0 -65 30 3 c17 2 90 6 163 9 72 2 132 8 132 13 0 22
-40 27 -153 17 -134 -12 -137 -11 -137 56 0 31 4 40 20 44 25 7 26 19 1 26
-14 3 -18 11 -14 26 4 16 -1 23 -22 31 -37 14 -38 13 -30 -17z"/>
</g>
<g id="part-4" class="char-part">
  <path d="M646 570 c4 -16 3 -41 0 -55 -5 -21 -12 -25 -41 -25 -32 0 -34 2 -37
38 -3 32 -7 37 -31 40 -26 3 -27 2 -18 -17 14 -25 14 -71 1 -71 -5 0 -10 -4
-10 -10 0 -5 7 -10 15 -10 10 0 15 -10 15 -27 0 -46 10 -52 65 -42 28 4 57 8
65 8 10 1 11 4 3 12 -5 5 -8 21 -5 34 4 21 11 24 68 30 74 8 76 25 3 25 -53 0
-59 8 -37 55 13 30 1 45 -39 45 -20 0 -22 -4 -17 -30z m-10 -116 c-3 -9 -6
-22 -6 -30 0 -9 -11 -14 -30 -14 -27 0 -30 3 -30 30 0 28 3 30 36 30 29 0 35
-3 30 -16z"/>
</g>
<g id="part-5" class="char-part">
  <path d="M565 310 c4 -6 8 -22 9 -34 3 -21 -1 -23 -38 -23 -80 1 -117 -3 -112
-12 6 -9 55 -8 72 1 5 2 23 1 39 -3 17 -3 24 -7 16 -8 -7 0 -11 -7 -8 -16 4
-8 2 -17 -3 -20 -6 -4 -10 0 -10 7 0 7 -8 2 -16 -12 -9 -14 -42 -43 -74 -65
-33 -21 -57 -41 -55 -43 2 -3 23 10 47 27 23 17 46 31 50 31 5 0 19 9 31 21
33 31 57 42 57 27 0 -9 3 -9 10 2 5 8 10 10 10 4 0 -6 -3 -14 -7 -18 -11 -11
-14 -156 -4 -156 18 0 24 23 23 84 -1 75 10 100 31 72 9 -13 16 -15 21 -8 7
11 -32 38 -48 34 -5 -2 -6 4 -3 13 4 8 1 15 -6 15 -7 0 -4 5 7 11 10 6 59 11
110 11 87 -1 89 0 58 13 -21 9 -40 11 -55 6 -31 -12 -106 -6 -120 9 -9 10 -9
11 1 5 10 -5 13 -2 10 11 -2 11 -13 20 -27 22 -15 3 -21 0 -16 -8z"/>
  <path d="M667 163 c-12 -12 -7 -25 7 -20 10 4 13 1 10 -7 -8 -20 57 -56 100
-56 20 0 36 3 36 8 0 4 -26 18 -58 31 -31 14 -64 30 -73 38 -9 7 -19 10 -22 6z"/>
</g>
</g>
</svg>