<?xml version="1.0" standalone="no"?>
<!DOCTYPE svg PUBLIC "-//W3C//DTD SVG 20010904//EN"
 "http://www.w3.org/TR/2001/REC-SVG-20010904/DTD/svg10.dtd">
<svg version="1.0" xmlns="http://www.w3.org/2000/svg"
 width="96.000000pt" height="68.000000pt" viewBox="0 0 96.000000 68.000000"
 preserveAspectRatio="xMidYMid meet">
<metadata>
Created by potrace 1.16, written by Peter Selinger 2001-2019
Combined from part_0.svg through part_5.svg with named groups
</metadata>
<g transform="translate(0.000000,68.000000) scale(0.100000,-0.100000)" fill="#000000" stroke="none">
<g id="part-0" class="char-part">
  <path d="M587 493 c0 -43 1 -86 2 -95 2 -30 54 -48 136 -48 60 0 75 3 75 15 0
12 -14 15 -66 15 -101 0 -106 5 -102 103 3 81 3 82 -22 85 -25 3 -25 2 -23
-75z"/>
  <path d="M230 542 c0 -4 14 -22 30 -40 35 -39 73 -41 78 -4 3 18 -4 26 -32 37
-38 16 -76 20 -76 7z"/>
  <path d="M435 466 c0 -57 -4 -71 -33 -111 -17 -25 -32 -48 -32 -51 0 -2 13 2
29 10 39 21 59 54 77 132 16 70 12 83 -26 84 -12 0 -15 -14 -15 -64z"/>
  <path d="M130 411 c0 -23 64 -72 90 -69 35 4 39 41 6 56 -41 18 -96 26 -96 13z"/>
  <path d="M283 306 c-10 -14 -30 -42 -46 -63 -15 -21 -41 -47 -57 -58 -17 -11
-30 -29 -30 -40 0 -23 26 -65 41 -65 8 0 96 167 120 228 11 30 -5 28 -28 -2z"/>
  <path d="M590 264 c-47 -7 -116 -13 -154 -13 -65 -1 -68 -2 -54 -18 8 -10 23
-46 33 -80 l18 -62 76 5 c167 11 179 13 174 34 -3 11 7 40 21 66 14 26 26 48
26 50 0 2 -12 9 -27 17 -23 11 -43 11 -113 1z m56 -66 c-4 -24 -12 -48 -19
-54 -7 -7 -46 -14 -88 -17 l-76 -5 -12 38 c-22 74 -22 74 138 78 l64 2 -7 -42z"/>
</g>
<g id="part-1" class="char-part">
  <path d="M240 531 c15 -29 59 -61 76 -54 27 10 16 43 -21 59 -50 20 -68 19
-55 -5z"/>
  <path d="M163 374 c43 -40 72 -42 72 -4 0 26 -23 37 -80 39 l-30 0 38 -35z"/>
  <path d="M270 280 c-18 -28 -53 -68 -78 -90 l-45 -41 16 -34 c9 -19 20 -35 25
-35 10 0 127 238 120 245 -3 3 -20 -17 -38 -45z"/>
</g>
<g id="part-2" class="char-part">
  <path d="M586 487 c1 -45 2 -88 3 -94 2 -27 60 -44 136 -41 98 4 101 22 5 28
-41 3 -81 9 -87 13 -15 9 -16 65 -4 119 10 41 0 58 -33 58 -20 0 -21 -6 -20
-83z"/>
  <path d="M436 500 c9 -44 -13 -120 -47 -162 -33 -42 -32 -45 11 -23 38 19 65
67 80 139 13 62 7 75 -32 76 -14 0 -16 -6 -12 -30z"/>
</g>
<g id="part-3" class="char-part">
  <path d="M580 263 c-47 -7 -113 -12 -148 -11 -63 3 -70 0 -52 -18 6 -6 21 -42
33 -80 19 -57 26 -69 42 -66 26 3 207 21 222 22 6 0 9 8 7 17 -3 10 6 40 20
67 14 27 23 53 21 57 -13 20 -65 24 -145 12z m70 -43 c0 -11 -7 -36 -14 -55
-14 -32 -18 -35 -58 -35 -24 0 -59 -3 -79 -6 -34 -6 -36 -5 -47 34 -23 76 -25
75 141 80 51 2 57 0 57 -18z"/>
</g>
</g>
</svg>