<?xml version="1.0" standalone="no"?>
<!DOCTYPE svg PUBLIC "-//W3C//DTD SVG 20010904//EN"
 "http://www.w3.org/TR/2001/REC-SVG-20010904/DTD/svg10.dtd">
<svg version="1.0" xmlns="http://www.w3.org/2000/svg"
 width="96.000000pt" height="68.000000pt" viewBox="0 0 96.000000 68.000000"
 preserveAspectRatio="xMidYMid meet">
<metadata>
Created by potrace 1.16, written by Peter Selinger 2001-2019
Combined from part_0.svg through part_5.svg with named groups
</metadata>
<g transform="translate(0.000000,68.000000) scale(0.100000,-0.100000)" fill="#000000" stroke="none">
<g id="part-0" class="char-part">
  <path d="M503 533 l2 -68 -64 -8 c-50 -7 -61 -11 -47 -19 9 -5 38 -8 64 -6
l47 3 -3 -80 c-2 -46 -9 -83 -15 -87 -7 -4 -27 -8 -44 -8 -35 0 -40 10 -24 53
11 28 3 44 -24 49 -16 2 -19 -3 -20 -32 0 -19 -4 -50 -9 -68 -10 -42 8 -49 71
-28 61 21 63 21 63 -12 0 -113 60 -151 221 -140 69 5 125 30 113 49 -3 6 -14
34 -25 62 -10 29 -18 44 -19 34 0 -36 -31 -85 -61 -97 -17 -7 -55 -11 -90 -8
-75 5 -99 28 -99 93 0 41 1 43 38 49 56 9 65 8 58 -9 -3 -9 0 -15 10 -15 17 0
41 50 50 108 5 35 4 40 -17 45 -13 4 -27 7 -30 7 -4 0 -7 -23 -7 -51 0 -59 -9
-69 -66 -69 l-39 0 7 61 c3 34 6 73 6 85 0 18 6 24 23 24 12 0 39 5 60 11 54
15 36 33 -26 26 l-50 -6 6 49 c6 53 6 54 -35 64 l-27 6 2 -67z"/>
  <path d="M220 519 c-14 -6 -45 -11 -70 -13 -34 -1 -44 -5 -40 -16 3 -8 5 -91
5 -183 0 -138 3 -169 15 -177 10 -6 16 -5 19 3 6 19 23 27 63 27 27 0 41 -6
50 -20 7 -11 18 -20 24 -20 29 0 34 31 36 205 1 162 0 179 -17 191 -22 16 -50
17 -85 3z m48 -70 c3 -34 1 -37 -30 -42 -18 -3 -41 -8 -50 -12 -15 -6 -18 -1
-18 32 0 49 15 65 60 61 32 -3 35 -6 38 -39z m2 -107 c0 -36 -2 -39 -30 -40
-17 0 -39 -4 -50 -7 -18 -6 -20 -2 -20 34 l0 40 48 4 c26 2 48 4 50 5 1 1 2
-15 2 -36z m2 -99 c8 -56 1 -63 -57 -63 -30 0 -56 3 -58 8 -2 4 0 21 5 39 8
32 21 39 79 42 22 1 27 -4 31 -26z"/>
</g>
<g id="part-1" class="char-part">
  <path d="M220 514 c-25 -7 -60 -13 -78 -13 -30 -1 -33 -3 -25 -23 4 -13 7 -74
5 -135 -3 -108 -2 -113 18 -113 13 0 20 7 20 20 0 16 7 20 33 20 17 0 42 3 55
6 19 5 22 2 22 -20 0 -21 5 -26 25 -26 l25 0 0 138 0 139 -25 11 c-14 7 -27
11 -28 11 -1 -1 -22 -7 -47 -15z m34 -20 c11 -4 16 -19 16 -50 0 -41 -2 -44
-27 -44 -16 0 -38 -3 -50 -6 -22 -6 -23 -3 -23 44 0 48 2 51 28 55 15 2 30 5
34 6 3 0 13 -2 22 -5z m16 -154 c0 -31 -4 -40 -17 -40 -10 0 -35 -3 -55 -6
l-38 -7 0 41 c0 41 0 41 43 45 23 2 48 4 55 5 8 1 12 -12 12 -38z"/>
</g>
<g id="part-2" class="char-part">
  <path d="M114 205 c-8 -34 3 -75 21 -75 8 0 15 4 15 9 0 5 21 12 46 16 43 6
49 4 69 -21 l21 -27 23 29 c14 17 20 36 17 49 -3 11 -6 26 -6 33 0 6 -11 12
-25 12 -20 0 -25 -5 -25 -25 0 -24 -3 -25 -55 -25 -52 0 -55 1 -55 25 0 18 -5
25 -20 25 -13 0 -22 -9 -26 -25z"/>
</g>
<g id="part-3" class="char-part">
  <path d="M501 571 c6 -16 9 -46 7 -68 -3 -32 -7 -38 -28 -41 -65 -7 -90 -14
-84 -23 3 -6 29 -9 58 -7 l51 3 -3 -125 c-3 -148 7 -184 58 -212 29 -16 51
-19 131 -16 69 3 103 8 122 21 l26 17 -22 60 c-12 33 -23 54 -25 47 -14 -55
-37 -87 -69 -98 -55 -18 -142 -7 -165 21 -20 24 -24 104 -11 233 5 59 8 67 27
67 12 0 38 5 59 11 54 15 36 33 -26 26 l-50 -6 6 50 c6 47 5 50 -19 59 -45 18
-54 13 -43 -19z"/>
</g>
<g id="part-4" class="char-part">
  <path d="M645 350 c0 -57 -11 -70 -64 -70 -18 0 -62 -5 -97 -12 -35 -6 -67 -8
-71 -5 -3 4 -2 23 4 42 11 35 5 49 -26 57 -9 2 -14 -9 -16 -37 -1 -22 -6 -52
-10 -67 -10 -38 14 -46 74 -25 41 14 159 37 189 37 7 0 11 -5 10 -11 -5 -20
20 -21 30 -2 12 22 36 123 31 128 -2 2 -15 6 -29 10 -24 6 -25 4 -25 -45z"/>
</g>
</g>
</svg>