<?xml version="1.0" standalone="no"?>
<!DOCTYPE svg PUBLIC "-//W3C//DTD SVG 20010904//EN"
 "http://www.w3.org/TR/2001/REC-SVG-20010904/DTD/svg10.dtd">
<svg version="1.0" xmlns="http://www.w3.org/2000/svg"
 width="96.000000pt" height="68.000000pt" viewBox="0 0 96.000000 68.000000"
 preserveAspectRatio="xMidYMid meet">
<metadata>
Created by potrace 1.16, written by Peter Selinger 2001-2019
Combined from part_0.svg through part_5.svg with named groups
</metadata>
<g transform="translate(0.000000,68.000000) scale(0.100000,-0.100000)" fill="#000000" stroke="none">
<g id="part-0" class="char-part">
  <path d="M600 592 c0 -5 -14 -30 -31 -55 -23 -35 -37 -47 -55 -47 -22 0 -23
-2 -13 -21 7 -14 9 -48 4 -98 -12 -148 -15 -136 25 -134 19 1 81 5 138 9 l102
7 0 -44 c0 -100 -36 -153 -86 -130 -32 14 -30 3 7 -36 29 -32 31 -33 59 -18
37 19 59 62 71 134 4 31 11 66 15 78 11 39 -31 47 -170 34 -115 -11 -147 -7
-132 17 3 5 46 13 96 16 53 5 90 12 90 18 0 7 -29 9 -90 4 -86 -6 -90 -6 -90
14 0 21 12 23 134 25 28 0 42 6 50 20 6 10 21 36 34 57 12 21 22 40 22 43 0 3
-15 11 -32 18 -27 11 -42 12 -88 1 -30 -7 -66 -13 -78 -14 -21 0 -19 4 20 40
23 22 47 40 52 40 5 0 3 7 -4 15 -13 16 -50 21 -50 7z m103 -121 c4 -16 -3
-19 -42 -24 -25 -3 -61 -9 -78 -13 -29 -6 -33 -4 -33 14 0 17 8 22 48 27 26 3
54 8 62 9 32 7 38 5 43 -13z m-9 -49 c12 -19 -14 -31 -82 -37 -60 -6 -72 -5
-72 7 0 11 18 18 63 25 86 14 85 14 91 5z"/>
  <path d="M285 498 c-82 -12 -106 -18 -87 -25 19 -7 14 -64 -8 -98 -11 -16 -20
-34 -20 -38 0 -5 32 -5 70 -1 39 3 70 3 70 -1 0 -20 -69 -90 -126 -127 -36
-24 -60 -44 -54 -46 15 -5 109 51 154 92 21 20 40 36 42 36 2 0 4 -39 4 -86
l0 -87 -42 7 -43 7 40 -35 c46 -41 48 -41 69 -20 19 19 20 22 21 158 l0 109
39 1 c69 2 48 35 -22 36 -21 0 -23 4 -21 44 3 43 4 44 41 50 40 6 49 20 22 30
-19 7 -58 6 -149 -6z m39 -60 c3 -13 6 -35 6 -50 0 -27 -2 -28 -55 -28 l-55 0
16 38 c9 20 18 43 21 50 3 6 18 12 33 12 20 0 29 -6 34 -22z"/>
  <path d="M670 209 c0 -6 12 -22 26 -36 21 -21 28 -23 35 -12 5 8 2 20 -7 30
-18 20 -54 31 -54 18z"/>
  <path d="M580 203 c1 -13 38 -53 49 -53 17 0 13 25 -7 43 -19 18 -42 23 -42
10z"/>
  <path d="M426 160 c-14 -29 -16 -44 -9 -51 15 -15 32 -3 44 28 9 25 4 63 -9
63 -4 0 -16 -18 -26 -40z"/>
  <path d="M518 165 c17 -36 40 -42 34 -9 -5 25 -21 44 -37 44 -9 0 -9 -9 3 -35z"/>
</g>
<g id="part-1" class="char-part">
  <path d="M291 493 c-72 -12 -90 -18 -76 -26 17 -9 212 6 224 18 20 20 -48 24
-148 8z"/>
</g>
<g id="part-2" class="char-part">
  <path d="M250 270 c-36 -37 -83 -76 -105 -88 -55 -29 -22 -27 42 2 68 32 143
101 143 132 0 13 -3 23 -7 23 -5 -1 -37 -32 -73 -69z"/>
</g>
<g id="part-3" class="char-part">
  <path d="M600 592 c0 -5 -13 -29 -29 -53 -17 -24 -28 -45 -26 -48 4 -3 37 20
99 71 18 15 19 19 6 28 -18 12 -50 13 -50 2z"/>
</g>
<g id="part-4" class="char-part">
  <path d="M650 501 c-14 -5 -56 -9 -93 -10 -64 -1 -67 -2 -57 -20 5 -11 10 -43
10 -71 l0 -52 32 7 c17 4 63 8 101 9 l70 2 34 59 c22 37 31 61 24 68 -13 13
-90 18 -121 8z m50 -33 c0 -19 -6 -23 -32 -24 -18 0 -52 -4 -75 -9 -39 -7 -43
-6 -43 13 0 17 8 22 48 27 26 4 52 8 57 10 29 10 45 4 45 -17z m0 -45 c-1 -23
-22 -32 -88 -38 -60 -6 -72 -5 -72 7 0 11 18 18 63 25 83 14 97 14 97 6z"/>
</g>
<g id="part-5" class="char-part">
  <path d="M591 198 c-1 -10 6 -18 14 -18 8 0 15 -4 15 -10 0 -5 5 -10 10 -10 7
0 7 7 0 20 -6 11 -15 18 -20 15 -4 -3 -11 1 -13 7 -3 8 -6 6 -6 -4z"/>
  <path d="M680 203 c0 -11 33 -43 43 -43 4 0 7 5 7 11 0 5 -5 7 -12 3 -8 -5 -9
-2 -4 12 4 10 4 15 0 11 -4 -4 -13 -2 -21 4 -7 7 -13 7 -13 2z"/>
  <path d="M517 181 c2 -10 10 -18 18 -18 16 0 9 23 -10 30 -8 4 -11 -1 -8 -12z"/>
  <path d="M432 160 c-25 -40 -19 -70 8 -45 22 20 30 48 20 66 -6 9 -14 3 -28
-21z"/>
</g>
</g>
</svg>