<?xml version="1.0" standalone="no"?>
<!DOCTYPE svg PUBLIC "-//W3C//DTD SVG 20010904//EN"
 "http://www.w3.org/TR/2001/REC-SVG-20010904/DTD/svg10.dtd">
<svg version="1.0" xmlns="http://www.w3.org/2000/svg"
 width="96.000000pt" height="68.000000pt" viewBox="0 0 96.000000 68.000000"
 preserveAspectRatio="xMidYMid meet">
<metadata>
Created by potrace 1.16, written by Peter Selinger 2001-2019
Combined from part_0.svg through part_5.svg with named groups
</metadata>
<g transform="translate(0.000000,68.000000) scale(0.100000,-0.100000)" fill="#000000" stroke="none">
<g id="part-0" class="char-part">
  <path d="M555 555 c-93 -13 -171 -24 -173 -24 -2 -1 0 -6 4 -12 7 -11 115 -7
171 7 77 20 -46 -159 -180 -260 -21 -16 -35 -31 -33 -33 8 -9 119 65 169 112
27 25 53 45 58 45 6 0 9 -46 8 -114 l-3 -114 -44 -6 c-25 -3 -64 -6 -88 -6
-46 0 -60 -16 -21 -25 12 -3 56 -1 97 4 41 4 120 9 175 10 55 1 101 4 104 7 2
2 -4 11 -15 19 -14 10 -37 12 -92 8 l-73 -6 2 101 c2 64 7 102 13 102 6 0 40
-23 76 -50 88 -69 129 -79 117 -27 -7 27 -58 58 -138 82 -31 10 -66 25 -78 35
l-23 16 26 39 c29 42 32 55 14 55 -9 0 -8 4 2 10 8 5 50 10 93 10 42 0 77 4
77 9 0 8 -56 32 -69 30 -3 -1 -82 -12 -176 -24z"/>
  <path d="M240 464 c-22 -8 -53 -11 -82 -8 -49 6 -61 -3 -34 -25 8 -7 20 -35
26 -64 25 -111 31 -127 45 -127 8 0 15 7 15 15 0 12 14 15 64 15 64 0 65 0 64
28 -1 32 9 84 25 130 9 27 9 35 -3 42 -21 13 -78 10 -120 -6z m50 -68 c0 -69
-14 -96 -49 -96 -28 0 -32 4 -47 56 -17 60 -14 70 26 77 67 12 70 10 70 -37z"/>
</g>
<g id="part-1" class="char-part">
  <path d="M260 464 c-19 -7 -58 -13 -87 -13 l-51 -1 18 -37 c10 -21 21 -58 25
-83 4 -25 12 -56 17 -70 9 -23 10 -24 22 -7 7 9 25 17 38 17 14 0 39 3 56 6
27 6 30 10 36 57 4 28 13 65 21 84 24 57 -16 77 -95 47z m35 -91 c-4 -38 -8
-69 -9 -70 -1 -1 -19 -3 -40 -5 l-39 -3 -18 65 c-10 36 -18 66 -19 67 0 3 54
10 93 12 l39 1 -7 -67z"/>
</g>
<g id="part-2" class="char-part">
  <path d="M552 555 c-95 -12 -176 -25 -179 -28 -14 -14 56 -19 135 -8 48 6 133
14 190 17 56 4 102 11 102 16 0 9 -45 29 -63 27 -7 -1 -90 -12 -185 -24z"/>
</g>
<g id="part-3" class="char-part">
  <path d="M580 512 c0 -44 -140 -206 -227 -263 -16 -11 -22 -19 -13 -19 25 0
105 52 164 108 31 28 61 52 67 52 7 0 10 -35 8 -99 -3 -71 0 -103 10 -115 23
-28 31 -7 31 82 0 125 4 127 93 59 78 -60 117 -72 117 -37 0 31 -46 65 -123
90 -40 13 -82 30 -95 38 -20 13 -21 17 -9 36 42 65 43 66 27 76 -25 16 -50 12
-50 -8z"/>
</g>
<g id="part-4" class="char-part">
  <path d="M729 176 c-4 -4 -90 -12 -237 -23 -51 -3 -95 -10 -98 -14 -7 -12 60
-22 88 -13 12 4 93 10 178 14 l155 6 -37 17 c-40 18 -43 19 -49 13z"/>
</g>
</g>
</svg>