<?xml version="1.0" standalone="no"?>
<!DOCTYPE svg PUBLIC "-//W3C//DTD SVG 20010904//EN"
 "http://www.w3.org/TR/2001/REC-SVG-20010904/DTD/svg10.dtd">
<svg version="1.0" xmlns="http://www.w3.org/2000/svg"
 width="96.000000pt" height="68.000000pt" viewBox="0 0 96.000000 68.000000"
 preserveAspectRatio="xMidYMid meet">
<metadata>
Created by potrace 1.16, written by Peter Selinger 2001-2019
Combined from part_0.svg through part_5.svg with named groups
</metadata>
<g transform="translate(0.000000,68.000000) scale(0.100000,-0.100000)" fill="#000000" stroke="none">
<g id="part-0" class="char-part">
  <path d="M696 553 c4 -10 9 -52 12 -94 l4 -77 -43 -6 c-83 -13 -99 -18 -93
-28 4 -6 31 -7 71 -2 l64 6 -2 -78 c-1 -44 -4 -96 -7 -118 -4 -38 -5 -38 -42
-33 l-37 5 45 -44 c25 -24 48 -44 52 -44 20 0 30 62 30 184 l0 134 56 7 c66 8
61 28 -8 30 -51 1 -54 9 -34 85 14 53 14 56 -7 72 -12 10 -33 18 -46 18 -18 0
-22 -4 -15 -17z"/>
  <path d="M335 539 c-16 -5 -63 -10 -102 -12 -49 -1 -73 -6 -73 -14 0 -6 5 -15
10 -18 13 -8 13 -126 0 -161 -6 -15 -8 -35 -4 -46 5 -16 12 -19 37 -14 18 4
68 9 111 13 l79 6 -6 -63 c-9 -83 -29 -114 -68 -106 -29 5 -29 5 -13 -19 22
-33 51 -41 74 -20 24 21 27 31 44 131 9 50 11 83 5 90 -7 8 2 18 26 33 20 11
38 21 41 21 9 0 4 -126 -8 -181 -9 -47 -9 -63 1 -86 l14 -28 12 30 c7 17 15
83 19 147 5 105 4 118 -11 127 -16 9 -15 13 13 43 51 54 70 94 55 112 -18 21
-41 20 -41 -1 0 -25 -60 -120 -107 -172 -17 -19 -34 -25 -73 -28 -48 -3 -51
-1 -48 20 2 17 11 23 38 25 55 5 61 22 8 22 -43 0 -45 1 -40 25 4 21 10 25 38
25 39 0 57 19 20 21 -43 2 -46 3 -56 19 -7 11 2 17 43 27 58 15 62 18 52 32
-7 13 -48 13 -90 0z m-50 -74 c0 -14 -8 -21 -27 -23 -24 -3 -28 0 -28 23 0 23
4 26 28 23 19 -2 27 -9 27 -23z m5 -65 c0 -16 -7 -20 -30 -20 -23 0 -30 4 -30
20 0 16 7 20 30 20 23 0 30 -4 30 -20z m0 -60 c0 -11 -6 -20 -12 -20 -7 0 -23
-3 -35 -6 -20 -5 -23 -2 -23 20 0 23 4 26 35 26 28 0 35 -4 35 -20z"/>
  <path d="M580 273 c0 -13 44 -53 58 -53 18 0 21 14 8 32 -14 19 -66 35 -66 21z"/>
  <path d="M300 253 c1 -14 27 -43 39 -43 16 0 14 16 -5 34 -16 17 -34 21 -34 9z"/>
  <path d="M166 242 c-7 -12 13 -62 26 -62 13 0 9 34 -5 55 -9 11 -16 14 -21 7z"/>
  <path d="M230 241 c0 -3 7 -17 16 -30 17 -24 39 -16 29 11 -6 16 -45 32 -45
19z"/>
  <path d="M94 195 c-8 -54 7 -80 26 -46 14 27 10 83 -7 88 -7 3 -14 -13 -19
-42z"/>
</g>
<g id="part-1" class="char-part">
  <path d="M330 534 c-36 -7 -86 -13 -113 -14 -47 0 -47 0 -40 -27 5 -16 7 -55
5 -88 -8 -139 -9 -130 13 -127 150 22 185 28 192 36 5 5 -29 6 -80 2 l-88 -6
3 92 3 93 67 7 c86 8 128 17 128 28 0 15 -25 16 -90 4z"/>
</g>
<g id="part-2" class="char-part">
  <path d="M300 251 c0 -5 9 -19 19 -32 18 -22 20 -22 26 -6 4 9 2 24 -5 32 -14
16 -40 20 -40 6z"/>
  <path d="M101 227 c-16 -41 -14 -97 3 -97 23 0 35 80 16 110 -7 11 -11 9 -19
-13z"/>
  <path d="M230 245 c0 -16 26 -55 37 -55 20 0 16 38 -6 50 -21 11 -31 13 -31 5z"/>
  <path d="M172 210 c12 -37 28 -48 28 -21 0 30 -11 51 -26 51 -10 0 -11 -6 -2
-30z"/>
</g>
<g id="part-3" class="char-part">
  <path d="M545 513 c-8 -35 -54 -107 -99 -155 -39 -43 -36 -47 12 -18 18 11 35
20 37 20 10 0 5 -140 -7 -189 -9 -39 -9 -57 1 -77 21 -47 33 -12 42 127 7 112
7 135 -6 149 -14 15 -13 19 6 36 12 10 34 38 50 60 27 40 27 42 10 58 -25 23
-38 20 -46 -11z"/>
</g>
<g id="part-4" class="char-part">
  <path d="M695 553 c4 -10 10 -52 12 -95 l5 -76 -77 -13 c-65 -10 -74 -14 -54
-21 22 -8 66 -5 112 8 15 5 17 -3 17 -78 0 -46 -3 -100 -7 -122 -6 -37 -7 -38
-43 -33 l-36 5 45 -44 c68 -63 75 -52 81 134 4 107 8 147 18 148 6 1 31 2 55
3 40 2 41 2 22 17 -14 11 -32 14 -58 9 l-39 -6 7 53 c4 29 12 62 17 72 9 16 6
23 -12 38 -30 24 -75 25 -65 1z"/>
</g>
<g id="part-5" class="char-part">
  <path d="M595 260 c10 -11 22 -17 28 -13 5 3 7 1 3 -5 -3 -6 -2 -13 3 -16 5
-4 13 -2 16 4 10 16 -14 40 -32 33 -11 -4 -14 -2 -9 5 4 7 1 12 -10 12 -16 0
-16 -1 1 -20z"/>
</g>
</g>
</svg>