<?xml version="1.0" standalone="no"?>
<!DOCTYPE svg PUBLIC "-//W3C//DTD SVG 20010904//EN"
 "http://www.w3.org/TR/2001/REC-SVG-20010904/DTD/svg10.dtd">
<svg version="1.0" xmlns="http://www.w3.org/2000/svg"
 width="96.000000pt" height="68.000000pt" viewBox="0 0 96.000000 68.000000"
 preserveAspectRatio="xMidYMid meet">
<metadata>
Created by potrace 1.16, written by Peter Selinger 2001-2019
Combined from part_0.svg through part_5.svg with named groups
</metadata>
<g transform="translate(0.000000,68.000000) scale(0.100000,-0.100000)" fill="#000000" stroke="none">
<g id="part-0" class="char-part">
  <path d="M617 520 c32 -45 63 -53 63 -16 0 17 -9 28 -34 40 -53 25 -60 19 -29
-24z"/>
  <path d="M310 533 c-41 -8 -96 -12 -122 -9 -52 5 -68 -6 -45 -32 8 -9 18 -39
22 -66 11 -76 10 -75 71 -69 53 6 54 5 54 -21 0 -21 -5 -26 -27 -27 -16 -1
-34 -1 -42 0 -7 2 -10 -2 -6 -8 3 -6 21 -8 41 -5 32 5 34 4 34 -24 0 -26 -4
-30 -37 -36 -21 -3 -50 -6 -65 -6 -16 0 -28 -5 -28 -11 0 -10 60 -9 238 7 98
9 77 30 -25 24 -41 -2 -52 5 -46 29 3 13 17 21 45 25 48 8 43 20 -7 18 -31 -1
-35 1 -35 24 0 25 2 26 51 22 l51 -3 20 55 c11 30 24 59 29 65 17 18 9 46 -17
55 -32 12 -59 11 -154 -7z m110 -40 c0 -21 -3 -24 -12 -15 -19 19 -34 14 -46
-13 -17 -37 -15 -39 14 -20 31 20 37 16 29 -18 -6 -22 -12 -25 -41 -24 l-34 2
0 52 c0 46 3 52 23 56 57 11 67 8 67 -20z m-135 -48 l0 -50 -37 -3 c-31 -3
-38 0 -38 15 0 10 -3 35 -7 56 l-6 38 44 -3 44 -3 0 -50z"/>
  <path d="M226 462 c-8 -13 10 -52 24 -52 14 0 12 23 -3 45 -10 12 -16 14 -21
7z"/>
  <path d="M620 464 c-126 -17 -142 -22 -119 -34 14 -8 151 0 299 17 41 5 43 6
25 19 -23 17 -65 16 -205 -2z"/>
  <path d="M680 374 c-25 -7 -71 -13 -104 -13 -45 -1 -56 -4 -48 -13 5 -7 14
-33 19 -58 8 -44 10 -45 42 -42 44 5 51 -8 51 -90 l0 -68 -32 0 -33 -1 32 -29
c57 -52 73 -28 73 113 0 48 3 86 8 86 4 -1 22 -1 40 0 26 1 32 5 32 24 0 12 9
35 20 52 l19 30 -22 12 c-26 15 -38 14 -97 -3z m41 -26 c3 -28 -4 -53 -14 -60
-7 -4 -36 -10 -66 -14 -57 -7 -71 1 -71 43 0 18 7 23 48 28 26 3 54 8 62 9 31
7 40 6 41 -6z"/>
  <path d="M530 171 c-6 -16 -20 -37 -31 -47 -28 -25 -23 -37 9 -20 28 15 72 60
72 75 0 7 -23 21 -35 21 -1 0 -8 -13 -15 -29z"/>
  <path d="M768 145 c38 -56 55 -64 60 -28 2 14 -9 31 -35 52 -57 47 -67 37 -25
-24z"/>
  <path d="M400 178 c1 -17 35 -58 49 -58 18 0 13 35 -7 53 -22 20 -42 22 -42 5z"/>
  <path d="M316 148 c14 -48 44 -65 44 -25 0 26 -17 47 -38 47 -9 0 -11 -7 -6
-22z"/>
  <path d="M133 121 c-24 -41 -22 -71 4 -71 18 0 46 66 38 91 -9 28 -17 24 -42
-20z"/>
  <path d="M234 124 c9 -37 23 -51 36 -38 11 11 -9 55 -29 62 -11 4 -12 -2 -7
-24z"/>
</g>
<g id="part-1" class="char-part">
  <path d="M345 535 c-38 -8 -103 -14 -143 -14 -66 -1 -72 -3 -58 -16 8 -8 18
-37 22 -63 14 -94 8 -90 124 -75 70 9 107 10 115 3 16 -13 28 2 45 55 7 22 19
52 26 66 25 49 -23 64 -131 44z m75 -49 c0 -18 -5 -46 -10 -62 -9 -26 -15 -29
-43 -26 -18 2 -59 -1 -92 -7 -32 -6 -60 -9 -62 -7 -3 2 -8 29 -12 60 l-8 55
56 6 c31 3 63 8 71 9 8 2 34 4 58 5 41 1 42 0 42 -33z"/>
</g>
<g id="part-2" class="char-part">
  <path d="M399 173 c31 -53 61 -70 61 -35 0 23 -30 52 -54 52 -13 0 -15 -4 -7
-17z"/>
  <path d="M310 163 c0 -22 27 -63 41 -63 19 0 4 53 -18 68 -21 13 -23 13 -23
-5z"/>
  <path d="M129 115 c-18 -34 -21 -47 -12 -56 28 -28 70 30 58 78 -8 34 -19 28
-46 -22z"/>
  <path d="M230 130 c12 -40 19 -50 37 -50 30 0 -7 78 -39 80 -4 0 -3 -13 2 -30z"/>
</g>
<g id="part-3" class="char-part">
  <path d="M616 520 c31 -46 64 -54 64 -15 0 17 -9 29 -30 40 -53 27 -63 20 -34
-25z"/>
  <path d="M608 461 c-59 -9 -109 -19 -113 -23 -14 -14 39 -19 110 -9 42 6 98
11 124 11 27 0 63 3 80 6 25 5 29 9 20 20 -15 18 -80 16 -221 -5z"/>
</g>
<g id="part-4" class="char-part">
  <path d="M680 374 c-25 -7 -71 -13 -104 -13 -45 -1 -56 -4 -48 -13 5 -7 14
-33 19 -58 5 -25 12 -44 16 -44 4 1 50 5 102 9 64 5 95 11 93 18 -4 17 23 77
33 77 5 0 9 4 9 9 0 8 -56 33 -69 30 -3 -1 -26 -7 -51 -15z m50 -26 c-1 -55
-37 -78 -122 -78 -37 0 -38 1 -38 34 0 34 1 35 48 41 26 3 54 8 62 9 34 8 50
5 50 -6z"/>
</g>
<g id="part-5" class="char-part">
  <path d="M649 228 c-1 -13 0 -32 1 -42 1 -11 -1 -39 -5 -63 -5 -35 -10 -43
-27 -43 -17 0 -18 -2 -8 -15 11 -13 15 -13 21 -3 7 10 9 9 9 -4 0 -22 16 -23
24 -2 9 23 7 36 -4 29 -5 -3 -10 1 -10 9 0 8 5 18 10 21 14 9 12 82 -2 88 -10
4 -10 6 0 6 14 1 16 27 2 36 -5 3 -11 -4 -11 -17z"/>
  <path d="M542 173 c-6 -2 -10 -9 -6 -14 3 -5 0 -9 -7 -9 -7 0 -9 -3 -6 -7 4
-3 -1 -12 -11 -19 -9 -7 -12 -14 -7 -14 6 0 25 16 44 35 30 32 27 42 -7 28z"/>
  <path d="M761 167 c8 -8 19 -14 24 -14 6 1 9 -7 7 -18 -2 -17 -1 -18 8 -5 10
12 11 11 7 -7 -3 -13 -1 -23 4 -23 13 0 11 32 -4 51 -7 9 -23 20 -36 24 -21 6
-22 5 -10 -8z"/>
</g>
</g>
</svg>