<?xml version="1.0" standalone="no"?>
<!DOCTYPE svg PUBLIC "-//W3C//DTD SVG 20010904//EN"
 "http://www.w3.org/TR/2001/REC-SVG-20010904/DTD/svg10.dtd">
<svg version="1.0" xmlns="http://www.w3.org/2000/svg"
 width="96.000000pt" height="68.000000pt" viewBox="0 0 96.000000 68.000000"
 preserveAspectRatio="xMidYMid meet">
<metadata>
Created by potrace 1.16, written by Peter Selinger 2001-2019
Combined from part_0.svg through part_5.svg with named groups
</metadata>
<g transform="translate(0.000000,68.000000) scale(0.100000,-0.100000)" fill="#000000" stroke="none">
<g id="part-0" class="char-part">
  <path d="M500 584 c17 -44 12 -53 -30 -60 -22 -4 -37 -11 -34 -16 4 -5 22 -7
41 -3 33 6 34 5 31 -22 -3 -25 -7 -28 -48 -31 -25 -2 -49 -8 -55 -14 -7 -7 23
-9 95 -6 l105 3 0 -30 c0 -27 -4 -30 -35 -34 l-35 -5 40 -5 c34 -5 40 -9 40
-31 0 -21 -6 -26 -38 -31 -20 -3 -40 -9 -44 -12 -9 -10 36 -8 142 5 98 12 122
32 31 26 -46 -3 -51 -1 -54 18 -3 18 4 23 32 28 44 8 47 26 6 26 -23 0 -30 4
-30 20 0 11 -4 20 -10 20 -5 0 -10 5 -10 10 0 6 15 10 33 10 29 1 30 2 14 14
-13 10 -36 12 -78 9 -60 -6 -61 -5 -57 18 2 15 11 25 23 27 48 7 65 13 65 23
0 7 -16 8 -46 3 -44 -6 -46 -6 -43 17 5 33 -8 49 -36 49 -22 0 -24 -3 -15 -26z"/>
  <path d="M205 428 c0 -144 -2 -168 -21 -208 -11 -25 -27 -52 -35 -61 -8 -8
-27 -29 -43 -47 -28 -31 -29 -32 -8 -32 29 0 98 64 124 113 l20 39 27 -26 c35
-34 61 -34 61 -1 0 14 -7 28 -15 31 -8 4 -13 10 -10 14 3 4 -1 8 -8 7 -42 -1
-45 2 -40 51 7 83 9 86 68 115 30 15 55 31 55 37 0 6 -12 16 -26 22 -24 11
-29 9 -56 -22 l-30 -35 6 72 c4 64 3 74 -14 83 -10 5 -27 10 -37 10 -17 0 -18
-12 -18 -162z"/>
  <path d="M392 388 c2 -28 -1 -34 -19 -36 -13 -2 -23 -8 -23 -13 0 -5 11 -7 25
-3 23 6 25 3 25 -25 0 -27 -4 -31 -27 -32 -16 -1 -34 -1 -40 0 -8 1 -10 -5 -7
-14 3 -8 14 -15 23 -15 28 0 161 42 161 52 0 4 -12 5 -27 2 -46 -11 -48 -10
-48 16 0 19 6 26 25 28 42 6 48 22 7 22 -27 0 -35 4 -31 14 3 8 -3 19 -15 25
-30 16 -33 14 -29 -21z"/>
  <path d="M90 403 c0 -21 53 -84 68 -81 24 4 26 41 5 60 -20 17 -73 32 -73 21z"/>
  <path d="M530 235 c-47 -7 -102 -15 -123 -18 -21 -3 -41 -8 -44 -11 -7 -7 -8
-7 35 -11 19 -2 36 -5 38 -7 1 -2 -8 -23 -23 -47 -16 -27 -47 -57 -86 -82 -46
-30 -55 -39 -37 -39 51 0 174 102 189 156 5 19 15 30 29 32 25 4 31 -13 34
-103 3 -55 5 -61 32 -74 68 -32 210 -25 250 12 l22 22 -23 45 c-13 24 -23 37
-23 28 0 -30 -22 -66 -47 -77 -26 -12 -113 -15 -150 -5 -28 8 -32 27 -18 89 6
28 10 56 7 63 -2 8 13 12 53 12 41 0 56 3 53 13 -6 16 -66 17 -168 2z"/>
</g>
<g id="part-1" class="char-part">
  <path d="M208 585 c-3 -4 -1 -25 4 -48 6 -23 7 -90 4 -148 -7 -131 -30 -199
-90 -263 -45 -48 -39 -62 10 -24 40 31 61 56 85 101 l20 38 36 -31 c24 -21 39
-28 46 -21 16 16 0 41 -39 57 -36 15 -36 16 -30 61 3 25 6 56 6 68 0 16 14 28
60 50 33 16 60 32 60 36 0 5 -10 14 -22 20 -19 10 -25 8 -51 -25 -16 -20 -34
-36 -39 -36 -10 0 -5 78 8 126 4 15 -1 23 -21 32 -29 13 -39 15 -47 7z"/>
  <path d="M99 384 c21 -37 38 -54 55 -54 17 0 21 26 8 47 -4 7 -23 16 -41 19
-31 6 -32 5 -22 -12z"/>
</g>
<g id="part-2" class="char-part">
  <path d="M501 575 c6 -20 8 -39 6 -42 -3 -2 -24 -7 -46 -10 -23 -3 -38 -10
-35 -15 4 -6 24 -7 46 -4 38 6 39 6 36 -21 -3 -25 -7 -28 -48 -31 -25 -2 -49
-7 -54 -13 -13 -12 72 -10 199 5 88 10 97 13 78 24 -16 9 -38 10 -78 4 -53 -9
-55 -8 -55 14 0 24 1 24 78 40 12 2 22 9 22 15 0 7 -17 9 -51 4 l-51 -7 4 33
c3 32 1 34 -29 37 l-32 3 10 -36z"/>
</g>
<g id="part-3" class="char-part">
  <path d="M392 389 c3 -30 0 -34 -27 -40 -22 -4 -26 -8 -14 -13 9 -4 22 -6 30
-4 9 2 15 -7 17 -24 3 -27 1 -28 -38 -28 -29 0 -40 -4 -38 -12 7 -22 45 -21
116 3 85 27 101 41 38 33 -46 -7 -48 -6 -44 16 2 17 13 27 38 34 l35 10 -38 4
c-32 3 -37 6 -32 23 4 10 2 19 -4 19 -5 0 -17 3 -26 6 -14 6 -16 1 -13 -27z"/>
</g>
<g id="part-4" class="char-part">
  <path d="M538 133 c2 -43 9 -83 15 -89 46 -44 231 -44 275 0 13 13 13 20 -6
63 -12 26 -21 40 -22 31 0 -30 -22 -66 -47 -77 -26 -12 -114 -15 -150 -5 -31
8 -35 31 -20 91 15 55 11 63 -32 63 -14 0 -16 -10 -13 -77z"/>
</g>
</g>
</svg>