<?xml version="1.0" standalone="no"?>
<!DOCTYPE svg PUBLIC "-//W3C//DTD SVG 20010904//EN"
 "http://www.w3.org/TR/2001/REC-SVG-20010904/DTD/svg10.dtd">
<svg version="1.0" xmlns="http://www.w3.org/2000/svg"
 width="96.000000pt" height="68.000000pt" viewBox="0 0 96.000000 68.000000"
 preserveAspectRatio="xMidYMid meet">
<metadata>
Created by potrace 1.16, written by Peter Selinger 2001-2019
Combined from part_0.svg through part_5.svg with named groups
</metadata>
<g transform="translate(0.000000,68.000000) scale(0.100000,-0.100000)" fill="#000000" stroke="none">
<g id="part-0" class="char-part">
  <path d="M768 359 c2 -117 1 -223 -3 -236 -5 -23 -9 -24 -43 -18 l-37 7 30
-34 c38 -42 46 -48 67 -48 24 0 41 93 33 173 -6 56 7 256 21 318 4 20 1 27
-21 37 -51 23 -50 27 -47 -199z"/>
  <path d="M206 510 c4 -21 4 -51 0 -65 -6 -23 -11 -25 -62 -25 -51 0 -55 -2
-43 -16 8 -9 21 -37 30 -63 15 -43 18 -46 48 -43 31 3 31 3 31 -43 0 -50 -10
-59 -67 -59 -39 0 -42 -10 -10 -31 22 -14 29 -13 100 20 77 36 107 43 107 25
0 -13 27 -13 35 -1 9 16 -16 58 -42 70 -24 11 -25 10 -19 -13 4 -17 1 -26 -10
-30 -29 -11 -34 -6 -34 34 0 35 3 40 23 40 45 0 68 12 62 31 -4 11 2 26 14 38
42 42 10 78 -60 66 -43 -7 -44 -6 -29 44 12 44 -1 61 -46 61 -34 0 -34 0 -28
-40z m102 -131 c-1 -13 -11 -25 -20 -27 -14 -3 -18 3 -18 26 0 30 17 46 33 32
5 -4 7 -18 5 -31z m-98 -14 c0 -28 -4 -35 -19 -35 -22 0 -36 50 -18 62 25 16
37 8 37 -27z"/>
  <path d="M537 530 c-14 -11 -45 -32 -69 -46 -33 -20 -37 -24 -17 -20 33 7 52
-13 47 -51 -3 -26 -8 -29 -62 -38 -53 -9 -57 -12 -42 -24 14 -12 26 -13 57 -4
28 7 39 7 39 -1 0 -19 -44 -83 -88 -131 -45 -46 -45 -58 -2 -28 26 18 53 45
76 77 22 32 25 13 13 -83 -9 -72 -9 -94 1 -106 24 -29 37 2 42 100 3 53 8 98
12 102 3 4 17 -4 30 -16 24 -23 46 -21 46 3 0 14 -41 36 -65 36 -10 0 -15 11
-15 34 0 32 2 35 43 41 23 4 46 10 51 12 17 11 -20 22 -53 16 -33 -6 -34 -5
-29 21 4 20 0 31 -13 39 -28 18 -24 24 31 42 42 14 49 19 39 31 -16 20 -42 17
-72 -6z"/>
  <path d="M666 331 c2 -91 9 -131 24 -131 15 0 20 31 20 120 0 86 -5 100 -38
100 -4 0 -6 -40 -6 -89z"/>
</g>
<g id="part-1" class="char-part">
  <path d="M205 533 c4 -10 10 -39 12 -64 l5 -46 -44 -6 c-24 -3 -55 -4 -69 -1
-22 5 -23 4 -6 -9 10 -8 23 -34 30 -58 13 -43 14 -44 50 -41 l37 4 0 -52 c0
-43 3 -51 16 -46 9 3 18 6 20 6 2 0 4 20 4 44 0 47 11 56 74 56 23 0 26 3 17
14 -9 11 -6 20 14 44 41 49 30 62 -52 62 l-45 0 6 44 c6 38 4 46 -13 55 -11 6
-29 11 -41 11 -17 0 -20 -4 -15 -17z m111 -126 c9 -24 -14 -67 -36 -67 -16 0
-20 7 -20 34 0 19 6 37 13 39 22 10 38 7 43 -6z m-96 -42 c0 -30 -3 -35 -24
-35 -24 0 -36 16 -36 51 0 14 7 19 30 19 28 0 30 -3 30 -35z"/>
</g>
<g id="part-2" class="char-part">
  <path d="M322 244 c22 -43 40 -55 54 -33 11 18 -17 57 -47 68 l-28 10 21 -45z"/>
</g>
<g id="part-3" class="char-part">
  <path d="M542 535 c-13 -12 -47 -34 -75 -49 -84 -43 -45 -35 142 30 10 3 11 7
2 18 -20 23 -45 24 -69 1z"/>
</g>
<g id="part-4" class="char-part">
  <path d="M487 472 c-3 -4 -2 -14 4 -22 5 -8 9 -27 9 -41 0 -24 -4 -27 -62 -36
-61 -9 -62 -9 -36 -22 20 -10 34 -11 57 -3 17 6 31 7 31 3 0 -20 -36 -76 -82
-126 -27 -30 -46 -55 -40 -55 13 0 73 49 105 85 31 35 32 29 16 -77 -8 -53 -8
-77 1 -96 9 -22 13 -23 25 -11 9 9 15 47 17 116 2 57 5 103 7 103 3 0 18 -12
33 -27 21 -20 31 -24 39 -16 16 16 3 33 -37 49 -28 12 -34 20 -34 44 0 24 5
31 25 35 80 16 79 16 64 26 -7 5 -29 6 -48 2 -32 -5 -34 -5 -29 21 3 14 0 30
-6 35 -18 14 -54 22 -59 13z"/>
</g>
<g id="part-5" class="char-part">
  <path d="M768 558 c13 -13 17 -250 6 -381 -7 -74 -7 -76 -35 -79 l-29 -3 30
-32 c25 -27 33 -31 44 -20 12 10 10 13 -8 19 -19 5 -18 6 6 7 l26 1 0 147 c-1
164 6 256 21 296 11 29 8 34 -41 48 -24 7 -29 6 -20 -3z m19 -390 c-3 -7 -5
-2 -5 12 0 14 2 19 5 13 2 -7 2 -19 0 -25z m-10 -84 c-3 -3 -12 -4 -19 -1 -8
3 -5 6 6 6 11 1 17 -2 13 -5z"/>
</g>
</g>
</svg>