<?xml version="1.0" standalone="no"?>
<!DOCTYPE svg PUBLIC "-//W3C//DTD SVG 20010904//EN"
 "http://www.w3.org/TR/2001/REC-SVG-20010904/DTD/svg10.dtd">
<svg version="1.0" xmlns="http://www.w3.org/2000/svg"
 width="96.000000pt" height="68.000000pt" viewBox="0 0 96.000000 68.000000"
 preserveAspectRatio="xMidYMid meet">
<metadata>
Created by potrace 1.16, written by Peter Selinger 2001-2019
Combined from part_0.svg through part_5.svg with named groups
</metadata>
<g transform="translate(0.000000,68.000000) scale(0.100000,-0.100000)" fill="#000000" stroke="none">
<g id="part-0" class="char-part">
  <path d="M465 538 c-38 -10 -114 -21 -167 -25 -74 -4 -98 -9 -98 -20 0 -7 15
-16 33 -20 22 -4 56 -30 110 -83 42 -43 77 -81 77 -86 -1 -24 -126 -98 -234
-140 -47 -18 -55 -23 -34 -24 56 0 231 71 275 112 l23 21 80 -76 80 -77 74 0
c79 0 136 8 136 20 0 4 -46 24 -102 45 -107 39 -216 98 -225 121 -3 7 21 53
54 101 80 121 80 121 38 139 -19 8 -38 13 -42 13 -4 -1 -39 -10 -78 -21z m41
-59 c-3 -17 -12 -45 -20 -62 -8 -18 -16 -40 -20 -49 -8 -27 -27 -22 -71 20
-22 21 -53 48 -69 60 -16 12 -23 22 -15 23 8 0 52 9 99 19 47 10 89 18 94 19
5 1 6 -13 2 -30z"/>
</g>
<g id="part-1" class="char-part">
  <path d="M440 529 c-47 -10 -121 -22 -164 -25 -69 -6 -77 -9 -61 -21 25 -18
49 -17 182 8 63 12 117 19 120 15 3 -3 -4 -31 -16 -62 -35 -93 2 -100 57 -11
18 28 38 60 45 70 10 15 9 21 -7 33 -24 17 -48 16 -156 -7z"/>
</g>
<g id="part-2" class="char-part">
  <path d="M275 452 c17 -11 56 -47 88 -82 47 -51 55 -65 45 -77 -25 -30 -106
-79 -193 -115 -71 -29 -83 -37 -59 -38 58 0 224 68 271 112 l23 21 80 -76 80
-77 74 0 c79 0 136 8 136 20 0 4 -52 26 -115 50 -108 40 -215 102 -215 125 0
6 7 20 15 32 13 19 13 21 -9 25 -15 3 -27 -2 -35 -14 -11 -18 -17 -14 -83 46
-56 52 -77 66 -102 66 l-31 0 30 -18z"/>
</g>
</g>
</svg>