<?xml version="1.0" standalone="no"?>
<!DOCTYPE svg PUBLIC "-//W3C//DTD SVG 20010904//EN"
 "http://www.w3.org/TR/2001/REC-SVG-20010904/DTD/svg10.dtd">
<svg version="1.0" xmlns="http://www.w3.org/2000/svg"
 width="96.000000pt" height="68.000000pt" viewBox="0 0 96.000000 68.000000"
 preserveAspectRatio="xMidYMid meet">
<metadata>
Created by potrace 1.16, written by Peter Selinger 2001-2019
Combined from part_0.svg through part_5.svg with named groups
</metadata>
<g transform="translate(0.000000,68.000000) scale(0.100000,-0.100000)" fill="#000000" stroke="none">
<g id="part-0" class="char-part">
  <path d="M480 510 l0 -70 -37 -2 c-21 -1 -50 -2 -65 -1 -22 1 -30 -7 -48 -44
-32 -69 -5 -92 29 -24 17 33 26 39 62 45 23 4 44 5 46 2 7 -7 -25 -103 -50
-151 -12 -22 -50 -68 -85 -102 -64 -64 -67 -76 -9 -47 41 22 97 78 126 128 27
48 61 135 61 158 0 22 5 24 74 33 l59 7 -7 -34 -6 -34 55 25 c30 14 55 29 55
32 0 3 -18 14 -40 24 -38 17 -74 17 -147 -2 -19 -4 -23 -1 -23 20 0 14 5 38
10 53 13 32 -2 54 -36 54 -23 0 -24 -3 -24 -70z"/>
  <path d="M180 522 c0 -11 31 -55 50 -69 24 -19 60 -16 60 5 0 27 -21 48 -59
61 -40 13 -51 14 -51 3z"/>
  <path d="M100 381 c0 -17 61 -71 81 -71 25 0 30 26 11 50 -19 23 -92 40 -92
21z"/>
  <path d="M510 322 c0 -6 5 -14 10 -17 7 -4 8 -33 4 -80 -9 -94 -1 -121 39
-142 44 -23 189 -23 234 0 45 24 47 32 22 84 l-23 47 -11 -40 c-14 -50 -41
-64 -127 -64 -87 0 -102 13 -93 84 3 28 11 64 17 79 7 17 7 32 2 37 -15 15
-74 24 -74 12z"/>
  <path d="M223 258 c-21 -29 -51 -64 -67 -79 -29 -26 -30 -27 -15 -65 21 -56
46 -52 71 11 58 149 67 175 59 180 -5 3 -27 -18 -48 -47z"/>
</g>
<g id="part-1" class="char-part">
  <path d="M210 480 c30 -38 62 -51 74 -31 16 26 -38 71 -84 71 -20 0 -20 -2 10
-40z"/>
  <path d="M110 372 c0 -18 59 -64 74 -59 23 9 20 33 -6 51 -24 17 -68 22 -68 8z"/>
  <path d="M228 257 c-15 -23 -40 -55 -57 -71 -35 -34 -39 -64 -13 -96 14 -18
20 -20 28 -9 10 13 84 202 84 214 0 16 -18 0 -42 -38z"/>
</g>
<g id="part-2" class="char-part">
  <path d="M480 517 c0 -134 -49 -253 -144 -350 -36 -37 -66 -69 -66 -72 0 -13
63 22 103 58 82 74 117 150 166 361 13 54 6 66 -36 66 -21 0 -23 -4 -23 -63z"/>
</g>
<g id="part-3" class="char-part">
  <path d="M545 455 c-105 -19 -165 -24 -171 -14 -3 5 -9 9 -13 9 -12 0 -55
-109 -47 -118 12 -11 41 14 50 45 9 30 9 30 137 47 71 10 133 15 139 11 6 -4
5 -16 -5 -36 -9 -16 -13 -29 -10 -29 11 0 115 55 115 61 0 12 -68 39 -97 38
-15 -1 -59 -7 -98 -14z"/>
</g>
<g id="part-4" class="char-part">
  <path d="M521 309 c7 -14 8 -45 4 -88 -12 -121 21 -156 145 -155 82 2 141 16
160 39 9 11 7 24 -10 61 l-23 46 -13 -38 c-19 -54 -37 -64 -119 -64 -101 0
-112 10 -98 91 6 35 14 74 18 85 5 18 1 23 -26 33 -45 16 -51 14 -38 -10z"/>
</g>
</g>
</svg>