<?xml version="1.0" standalone="no"?>
<!DOCTYPE svg PUBLIC "-//W3C//DTD SVG 20010904//EN"
 "http://www.w3.org/TR/2001/REC-SVG-20010904/DTD/svg10.dtd">
<svg version="1.0" xmlns="http://www.w3.org/2000/svg"
 width="96.000000pt" height="68.000000pt" viewBox="0 0 96.000000 68.000000"
 preserveAspectRatio="xMidYMid meet">
<metadata>
Created by potrace 1.16, written by Peter Selinger 2001-2019
Combined from part_0.svg through part_5.svg with named groups
</metadata>
<g transform="translate(0.000000,68.000000) scale(0.100000,-0.100000)" fill="#000000" stroke="none">
<g id="part-0" class="char-part">
  <path d="M544 528 l1 -63 -83 -9 c-64 -6 -80 -11 -72 -20 14 -18 18 -80 9
-173 -8 -80 -30 -137 -75 -201 -29 -40 4 -23 39 21 38 46 77 156 77 216 0 20
3 60 6 89 l7 52 43 0 c40 0 44 -2 44 -25 0 -21 -5 -25 -31 -25 -16 0 -28 -4
-25 -9 3 -5 14 -7 25 -4 11 3 28 -5 44 -21 23 -23 35 -26 90 -26 43 0 68 5 76
14 9 11 6 15 -15 19 -15 3 -40 0 -56 -5 -30 -11 -78 -4 -78 12 0 5 20 12 45
16 60 9 68 24 12 24 -35 0 -46 4 -50 19 -4 15 2 20 32 25 52 8 121 7 121 -2 0
-4 -5 -13 -12 -20 -18 -18 -7 -21 46 -11 62 11 66 15 36 37 -38 27 -47 28
-127 19 -60 -8 -77 -7 -83 4 -14 21 -4 26 65 34 36 3 65 11 65 17 0 7 -22 9
-66 4 -60 -6 -66 -5 -60 10 8 20 -10 44 -34 44 -14 0 -17 -10 -16 -62z"/>
  <path d="M224 558 c3 -13 9 -51 12 -84 l7 -61 -59 -8 c-33 -4 -63 -10 -68 -13
-14 -8 24 -20 67 -21 24 -1 37 -6 37 -15 0 -18 -64 -112 -108 -158 -20 -21
-33 -40 -30 -44 11 -11 64 24 107 71 l44 48 -7 -109 c-6 -89 -4 -113 8 -129
29 -40 41 -4 44 137 3 118 5 128 18 109 20 -27 54 -28 54 -1 0 13 -12 26 -35
37 -49 23 -43 73 10 73 11 0 27 5 35 10 13 9 13 11 0 20 -8 5 -28 10 -43 10
l-29 0 7 60 c8 70 -2 90 -47 90 -27 0 -30 -3 -24 -22z"/>
  <path d="M620 310 c-14 -4 -54 -8 -89 -9 -49 -1 -61 -4 -53 -13 6 -7 13 -30
17 -51 4 -20 11 -40 17 -43 5 -3 51 -3 102 1 l93 7 22 46 c22 44 22 47 5 59
-19 14 -75 16 -114 3z m-40 -43 c0 -7 -13 -14 -30 -15 -36 -3 -43 25 -7 30 27
5 37 1 37 -15z m110 7 c0 -12 -6 -15 -22 -10 -13 3 -29 6 -35 6 -7 0 -13 5
-13 10 0 6 16 10 35 10 26 0 35 -4 35 -16z m-10 -38 c0 -16 -48 -28 -57 -14
-3 6 1 14 8 19 21 13 49 11 49 -5z m-100 -10 c0 -7 -11 -16 -25 -18 -19 -4
-25 -1 -25 13 0 14 7 19 25 19 15 0 25 -6 25 -14z"/>
  <path d="M605 169 c-44 -5 -101 -9 -126 -10 l-46 -1 19 -36 c30 -59 25 -72
-27 -72 -44 0 -60 -12 -30 -24 8 -3 52 -1 97 4 46 6 145 10 221 10 75 0 137 4
137 9 0 14 -27 21 -76 21 -49 0 -52 4 -24 40 25 32 25 47 1 60 -22 11 -30 11
-146 -1z m96 -21 c5 -57 -12 -88 -47 -88 -22 0 -23 1 -8 35 8 20 12 40 9 45
-3 4 1 11 7 13 23 9 38 7 39 -5z m-81 -43 c0 -38 -3 -45 -20 -45 -11 0 -20 6
-20 14 0 7 -3 28 -6 45 -6 28 -4 31 20 31 24 0 26 -3 26 -45z m-76 4 c10 -51
8 -57 -18 -52 -23 5 -36 27 -36 66 0 11 8 17 24 17 18 0 25 -7 30 -31z"/>
</g>
<g id="part-1" class="char-part">
  <path d="M237 499 c7 -93 3 -99 -64 -99 -24 0 -43 -4 -43 -10 0 -10 32 -14 78
-10 13 1 22 -4 22 -13 0 -19 -70 -126 -115 -176 -21 -23 -33 -41 -28 -41 18 0
94 65 120 103 14 20 28 35 30 33 3 -3 0 -52 -6 -110 -9 -78 -9 -111 -1 -126
24 -45 35 -14 44 119 l8 132 22 -20 c28 -26 46 -27 46 -2 0 13 -11 24 -35 33
-32 11 -36 16 -33 43 3 26 9 31 41 39 20 5 37 13 37 17 0 12 -35 20 -55 13
-17 -7 -18 -2 -13 60 5 60 4 68 -15 81 -41 29 -45 20 -40 -66z"/>
</g>
<g id="part-2" class="char-part">
  <path d="M536 573 c4 -10 9 -39 12 -64 3 -40 6 -46 23 -42 10 3 19 13 19 23 0
15 12 20 65 25 36 4 65 12 65 18 0 6 -23 7 -66 3 -64 -7 -65 -6 -59 15 8 25
-8 39 -44 39 -18 0 -22 -4 -15 -17z"/>
</g>
<g id="part-3" class="char-part">
  <path d="M547 443 c-4 -3 -7 -14 -7 -24 0 -12 -11 -22 -32 -28 l-33 -9 29 -1
c17 -1 38 -11 52 -26 19 -21 32 -25 78 -25 57 0 86 7 86 20 0 16 -34 20 -67 9
-35 -11 -83 -5 -83 11 0 5 20 12 45 16 60 9 68 24 12 24 -36 0 -46 4 -50 20
-5 20 -18 26 -30 13z"/>
</g>
<g id="part-4" class="char-part">
  <path d="M620 105 c0 -38 -3 -45 -20 -45 -15 0 -21 9 -26 40 -4 24 -12 40 -20
40 -10 0 -12 -9 -7 -32 3 -18 6 -37 7 -42 0 -5 -35 -11 -79 -13 -44 -2 -87 -7
-95 -10 -28 -11 43 -19 110 -11 36 4 131 7 213 7 84 1 147 5 147 10 0 18 -42
23 -131 16 -49 -4 -89 -4 -89 -1 0 4 7 20 15 37 17 32 13 49 -11 49 -10 0 -14
-12 -14 -45z"/>
</g>
</g>
</svg>