<?xml version="1.0" standalone="no"?>
<!DOCTYPE svg PUBLIC "-//W3C//DTD SVG 20010904//EN"
 "http://www.w3.org/TR/2001/REC-SVG-20010904/DTD/svg10.dtd">
<svg version="1.0" xmlns="http://www.w3.org/2000/svg"
 width="96.000000pt" height="68.000000pt" viewBox="0 0 96.000000 68.000000"
 preserveAspectRatio="xMidYMid meet">
<metadata>
Created by potrace 1.16, written by Peter Selinger 2001-2019
Combined from part_0.svg through part_5.svg with named groups
</metadata>
<g transform="translate(0.000000,68.000000) scale(0.100000,-0.100000)" fill="#000000" stroke="none">
<g id="part-0" class="char-part">
  <path d="M320 596 c0 -18 -39 -86 -50 -86 -4 0 -28 12 -54 26 -56 31 -65 12
-11 -25 19 -13 35 -27 35 -31 0 -12 -76 -70 -84 -65 -3 3 -4 2 -1 -2 3 -3 -3
-12 -13 -19 -37 -29 15 -14 71 20 l57 35 6 -24 c3 -13 3 -33 -1 -44 -7 -23
-101 -116 -146 -145 -17 -10 -28 -20 -26 -23 14 -13 137 62 175 107 11 12 12
0 6 -70 -7 -100 -16 -114 -64 -100 -18 5 -36 7 -39 5 -5 -6 79 -85 91 -85 15
0 49 46 59 81 16 53 7 256 -13 294 l-16 31 44 44 c49 49 52 57 27 76 -24 18
-53 18 -53 0z"/>
  <path d="M764 596 c-3 -8 -3 -20 1 -26 9 -14 6 -343 -3 -395 -7 -36 -10 -40
-36 -38 -25 2 -26 0 -15 -15 31 -41 53 -62 65 -62 30 0 38 45 40 215 1 94 7
199 14 234 12 70 8 82 -38 96 -15 4 -24 2 -28 -9z"/>
  <path d="M530 559 c-14 -11 -43 -29 -65 -40 l-40 -19 32 3 c35 4 43 -6 43 -53
0 -27 -2 -28 -60 -35 -36 -4 -60 -12 -60 -19 0 -15 35 -18 78 -6 20 5 32 5 32
-1 0 -22 -44 -94 -82 -135 -59 -64 -26 -54 38 11 30 31 54 52 54 48 0 -5 -5
-46 -10 -92 -11 -87 -7 -121 15 -121 19 0 25 23 25 95 0 34 3 77 6 94 l7 32
23 -22 c14 -13 29 -19 40 -15 16 6 16 8 0 25 -10 11 -29 22 -42 25 -21 6 -25
12 -22 39 3 30 7 33 53 43 37 8 45 13 32 19 -9 4 -31 5 -48 3 -27 -4 -30 -2
-27 19 2 16 -5 30 -21 42 l-23 18 46 13 c51 14 66 28 45 41 -22 14 -42 10 -69
-12z"/>
  <path d="M673 406 c7 -30 7 -61 1 -88 -12 -51 -8 -78 11 -78 17 0 25 41 28
135 2 69 2 70 -24 73 -26 3 -26 3 -16 -42z"/>
</g>
<g id="part-1" class="char-part">
  <path d="M326 603 c-3 -4 -6 -13 -6 -21 0 -8 -11 -30 -25 -48 l-25 -33 -43 24
c-60 35 -67 31 -19 -11 l42 -36 -49 -41 c-27 -23 -48 -43 -46 -45 2 -2 29 10
59 28 l56 31 10 -26 c11 -29 12 -202 1 -250 -6 -28 -10 -30 -49 -29 l-43 1 33
-34 c42 -43 67 -40 93 12 27 54 28 249 2 309 -19 43 -17 48 40 103 18 18 33
34 33 37 0 10 -57 35 -64 29z"/>
</g>
<g id="part-2" class="char-part">
  <path d="M241 338 c-25 -28 -66 -67 -93 -86 -26 -20 -46 -38 -43 -40 2 -2 28
7 57 21 71 33 128 90 128 128 0 16 -1 29 -2 29 -2 -1 -23 -24 -47 -52z"/>
</g>
<g id="part-3" class="char-part">
  <path d="M544 570 c-5 -5 -34 -23 -64 -39 -30 -17 -47 -31 -37 -31 34 0 167
45 167 56 0 21 -48 32 -66 14z"/>
</g>
<g id="part-4" class="char-part">
  <path d="M496 466 l6 -44 -61 -7 c-33 -4 -63 -11 -66 -16 -9 -14 40 -21 79
-11 23 7 36 7 36 1 0 -22 -44 -94 -82 -135 -59 -64 -26 -54 38 11 61 63 62 62
43 -57 -8 -53 -8 -77 1 -96 9 -22 13 -23 25 -11 9 9 14 43 16 104 2 118 5 123
41 88 24 -23 30 -25 38 -13 7 11 3 21 -18 37 -15 13 -33 23 -39 23 -8 0 -13
14 -13 35 0 34 1 34 50 41 58 8 57 28 -2 22 -37 -3 -39 -2 -35 20 5 27 -16 52
-44 52 -16 0 -18 -5 -13 -44z"/>
</g>
<g id="part-5" class="char-part">
  <path d="M772 570 c5 -14 9 -92 7 -175 -1 -82 -1 -173 -1 -201 0 -40 -4 -53
-20 -63 -15 -9 -23 -9 -34 0 -25 20 -15 3 19 -36 31 -34 34 -36 47 -19 12 13
15 51 16 163 1 132 13 258 30 319 5 16 2 22 -10 22 -9 0 -16 4 -16 9 0 5 -11
8 -24 7 -21 -1 -23 -4 -14 -26z m48 -41 c0 -6 -4 -7 -10 -4 -5 3 -10 11 -10
16 0 6 5 7 10 4 6 -3 10 -11 10 -16z"/>
</g>
</g>
</svg>