<?xml version="1.0" standalone="no"?>
<!DOCTYPE svg PUBLIC "-//W3C//DTD SVG 20010904//EN"
 "http://www.w3.org/TR/2001/REC-SVG-20010904/DTD/svg10.dtd">
<svg version="1.0" xmlns="http://www.w3.org/2000/svg"
 width="96.000000pt" height="68.000000pt" viewBox="0 0 96.000000 68.000000"
 preserveAspectRatio="xMidYMid meet">
<metadata>
Created by potrace 1.16, written by Peter Selinger 2001-2019
Combined from part_0.svg through part_5.svg with named groups
</metadata>
<g transform="translate(0.000000,68.000000) scale(0.100000,-0.100000)" fill="#000000" stroke="none">
<g id="part-0" class="char-part">
  <path d="M246 581 c-4 -5 -2 -21 4 -36 5 -14 10 -50 10 -80 l0 -54 -57 -7
c-32 -3 -62 -9 -67 -11 -17 -11 21 -23 72 -23 l52 0 0 -44 0 -43 -80 -37 c-43
-20 -84 -36 -90 -36 -23 0 -4 -34 23 -43 24 -8 35 -4 82 32 30 23 57 41 61 41
8 0 -2 -126 -11 -139 -3 -5 -21 -5 -40 -1 -19 4 -35 5 -35 1 0 -3 22 -25 50
-49 l49 -42 20 22 c19 19 21 35 21 132 l0 111 40 28 c55 39 55 63 0 32 -36
-21 -42 -19 -38 17 3 30 7 33 46 41 37 7 41 11 31 24 -8 9 -25 13 -45 11 -32
-4 -32 -4 -26 37 2 22 9 48 13 57 15 29 10 39 -26 54 -40 16 -52 17 -59 5z"/>
  <path d="M600 538 c-41 -5 -103 -10 -138 -11 -51 -2 -61 -5 -56 -17 12 -30 23
-84 29 -155 4 -40 10 -77 14 -82 4 -7 40 -8 110 -1 98 9 104 8 117 -11 35 -50
70 15 84 154 13 144 13 144 -160 123z m110 -115 c0 -54 -4 -103 -8 -108 -7
-10 -83 -18 -182 -19 -44 -1 -44 -1 -51 39 -4 22 -9 67 -13 101 l-7 61 68 10
c37 5 96 11 131 11 l62 2 0 -97z"/>
  <path d="M557 466 c6 -36 5 -36 -31 -36 -22 0 -35 -4 -31 -10 3 -5 17 -10 31
-10 31 0 31 -20 -2 -59 -33 -40 -11 -41 26 -1 15 17 32 30 36 30 4 0 20 -12
36 -27 29 -27 45 -26 34 2 -3 9 -20 22 -36 28 -42 16 -37 33 10 41 49 8 53 26
5 26 -28 0 -35 4 -35 20 0 11 -4 20 -9 20 -5 0 -16 3 -25 6 -12 5 -14 -1 -9
-30z"/>
  <path d="M572 185 c22 -33 47 -42 55 -19 6 17 -32 54 -56 54 l-21 0 22 -35z"/>
  <path d="M757 213 c-3 -3 8 -25 26 -49 35 -48 67 -58 67 -21 0 12 -8 29 -17
37 -24 20 -70 40 -76 33z"/>
  <path d="M377 167 c-9 -18 -22 -39 -29 -48 -14 -20 -4 -49 16 -49 20 0 46 51
46 89 0 42 -14 46 -33 8z"/>
  <path d="M450 196 c0 -2 7 -23 15 -47 33 -93 109 -136 225 -126 110 9 143 40
78 73 -18 9 -43 26 -55 37 -25 22 -29 13 -14 -27 15 -38 -7 -50 -78 -43 -73 6
-104 27 -133 90 -12 26 -25 47 -30 47 -4 0 -8 -2 -8 -4z"/>
</g>
<g id="part-1" class="char-part">
  <path d="M254 555 c3 -13 9 -51 12 -84 l7 -60 -39 -6 c-22 -3 -52 -10 -69 -14
-24 -7 -17 -9 38 -10 l68 -1 -3 -47 c-3 -48 -3 -48 -64 -79 -34 -17 -76 -36
-94 -42 -27 -10 -31 -14 -20 -27 21 -25 54 -17 114 26 32 23 59 39 60 38 2 -2
0 -38 -3 -79 l-6 -75 -40 1 -39 2 42 -39 c22 -22 46 -39 51 -39 25 0 41 60 41
157 l0 97 43 39 42 38 -42 -20 c-36 -18 -42 -19 -47 -5 -13 35 4 61 45 68 63
10 47 33 -18 27 -27 -2 -29 16 -11 86 10 41 9 47 -7 59 -11 8 -30 14 -43 14
-21 0 -23 -4 -18 -25z"/>
</g>
<g id="part-2" class="char-part">
  <path d="M590 539 c-63 -10 -134 -16 -157 -13 l-42 5 15 -30 c8 -17 20 -74 26
-128 10 -93 24 -135 37 -115 3 5 49 12 101 15 87 6 97 5 108 -13 27 -45 67 15
76 115 4 39 9 89 12 112 6 39 4 43 -24 57 -17 9 -32 15 -34 15 -2 -1 -55 -10
-118 -20z m120 -116 c0 -54 -4 -104 -8 -111 -5 -6 -19 -11 -33 -10 -13 1 -63
-2 -110 -6 l-86 -8 -7 74 c-4 40 -9 87 -12 104 l-6 31 74 10 c40 6 99 11 131
12 l57 1 0 -97z"/>
</g>
<g id="part-3" class="char-part">
  <path d="M553 468 c2 -30 -1 -33 -30 -36 -41 -4 -43 -22 -3 -22 37 0 37 -7 4
-55 l-25 -37 32 18 c18 11 39 33 48 51 13 25 24 32 59 38 49 7 47 25 -3 25
-27 0 -34 4 -37 23 -2 14 -11 23 -25 25 -18 3 -21 -1 -20 -30z"/>
  <path d="M590 385 c0 -8 53 -54 63 -55 16 0 6 30 -15 44 -22 16 -48 21 -48 11z"/>
</g>
<g id="part-4" class="char-part">
  <path d="M559 202 c23 -43 71 -64 71 -31 0 17 -40 49 -60 49 -17 0 -19 -3 -11
-18z"/>
  <path d="M750 213 c0 -16 82 -103 91 -97 14 8 11 50 -4 63 -20 16 -87 42 -87
34z"/>
  <path d="M380 170 c-7 -16 -18 -35 -26 -41 -22 -18 -18 -59 7 -59 22 0 49 51
49 94 0 37 -16 40 -30 6z"/>
  <path d="M450 196 c0 -2 7 -23 15 -47 30 -85 98 -129 200 -128 120 0 170 40
98 78 -21 12 -48 29 -61 38 l-23 16 17 -36 c10 -20 14 -40 10 -44 -4 -5 -38
-8 -76 -8 -63 0 -71 3 -100 30 -18 17 -39 47 -47 68 -8 20 -19 37 -24 37 -5 0
-9 -2 -9 -4z"/>
</g>
</g>
</svg>