<?xml version="1.0" standalone="no"?>
<!DOCTYPE svg PUBLIC "-//W3C//DTD SVG 20010904//EN"
 "http://www.w3.org/TR/2001/REC-SVG-20010904/DTD/svg10.dtd">
<svg version="1.0" xmlns="http://www.w3.org/2000/svg"
 width="96.000000pt" height="68.000000pt" viewBox="0 0 96.000000 68.000000"
 preserveAspectRatio="xMidYMid meet">
<metadata>
Created by potrace 1.16, written by Peter Selinger 2001-2019
Combined from part_0.svg through part_5.svg with named groups
</metadata>
<g transform="translate(0.000000,68.000000) scale(0.100000,-0.100000)" fill="#000000" stroke="none">
<g id="part-0" class="char-part">
  <path d="M183 494 c8 -108 20 -118 137 -112 96 4 118 12 99 34 -9 12 -30 13
-100 8 -86 -7 -89 -6 -89 15 0 17 6 21 35 21 55 0 136 21 132 33 -4 14 -62 15
-125 3 l-43 -8 6 36 c6 29 4 36 -8 36 -8 0 -23 3 -33 7 -16 6 -17 0 -11 -73z"/>
  <path d="M550 510 c-52 -10 -97 -19 -100 -20 -3 -1 6 -5 18 -11 16 -6 44 -4
89 6 35 8 66 15 69 15 12 0 1 -23 -27 -55 -24 -27 -36 -34 -55 -29 -31 8 -30
-1 1 -30 14 -13 25 -26 25 -28 0 -3 -34 -11 -76 -18 -86 -13 -89 -32 -4 -20
30 4 57 6 60 3 7 -6 18 -136 13 -150 -4 -10 -11 -9 -35 3 -26 13 -29 19 -23
46 5 21 3 33 -6 39 -25 16 -39 9 -39 -17 0 -31 -42 -121 -70 -152 -12 -13 -16
-22 -8 -22 6 0 34 23 60 52 l49 51 32 -17 c18 -9 68 -39 111 -66 80 -51 107
-57 175 -44 42 9 39 20 -6 29 -21 4 -72 18 -115 31 -64 20 -79 29 -84 49 -12
48 -2 59 59 69 74 11 75 29 1 24 l-57 -3 0 45 0 45 47 3 c45 3 46 2 40 -22
l-6 -25 45 17 c24 9 46 22 48 27 2 6 -12 18 -32 28 -31 15 -44 16 -84 7 -34
-8 -51 -8 -59 0 -5 5 -6 10 -2 10 5 0 3 6 -3 14 -10 12 -6 18 21 32 18 9 35
20 38 23 3 3 17 12 33 20 15 8 27 18 27 23 0 8 -65 40 -72 37 -2 -1 -46 -10
-98 -19z"/>
  <path d="M205 336 c-9 -19 -25 -42 -36 -52 -30 -27 -22 -37 10 -13 17 13 39
19 57 17 25 -3 29 -7 29 -33 0 -30 0 -30 -77 -40 -42 -5 -80 -13 -84 -17 -15
-15 28 -20 88 -9 34 6 64 9 66 6 10 -10 -45 -76 -83 -102 -22 -14 -34 -28 -28
-30 20 -7 87 35 108 68 24 36 41 37 71 4 25 -28 54 -33 54 -11 0 18 -38 46
-62 46 -22 0 -34 20 -18 30 7 4 39 11 71 14 33 4 57 11 54 16 -3 5 -29 6 -57
3 -51 -6 -51 -6 -46 20 3 15 1 27 -3 27 -5 0 -9 5 -9 10 0 6 15 10 34 10 19 0
37 4 40 9 9 14 -41 19 -90 9 -46 -10 -70 -4 -45 12 17 10 7 40 -13 40 -8 0
-22 -15 -31 -34z"/>
</g>
<g id="part-1" class="char-part">
  <path d="M186 503 c8 -95 11 -100 50 -113 52 -17 184 -3 184 20 0 17 -38 21
-98 9 -67 -14 -94 -7 -100 24 -3 15 2 17 121 32 26 3 47 10 47 15 0 15 -32 20
-69 11 -100 -25 -94 -26 -89 13 4 35 -5 46 -37 46 -10 0 -12 -14 -9 -57z"/>
</g>
<g id="part-2" class="char-part">
  <path d="M268 258 c-3 -33 -4 -33 -68 -41 -36 -5 -76 -11 -90 -14 l-25 -5 23
-11 c16 -7 41 -7 84 1 34 6 64 10 66 8 10 -10 -53 -84 -93 -109 -25 -16 -45
-30 -45 -32 0 -1 12 0 28 3 34 6 85 40 112 75 27 34 43 34 64 2 19 -30 56 -34
56 -7 0 18 -24 35 -67 47 -37 10 -16 35 31 36 22 1 52 4 66 8 23 6 23 8 6 14
-11 4 -39 5 -63 1 -43 -6 -43 -6 -34 19 11 29 6 37 -25 37 -18 0 -23 -6 -26
-32z"/>
</g>
<g id="part-3" class="char-part">
  <path d="M575 514 c-33 -7 -75 -13 -92 -14 -18 0 -33 -4 -33 -9 0 -18 46 -20
109 -5 35 8 66 12 69 9 3 -2 -8 -21 -23 -40 -15 -20 -25 -39 -21 -42 7 -7 136
68 136 80 0 8 -63 38 -77 36 -4 -1 -35 -7 -68 -15z"/>
</g>
<g id="part-4" class="char-part">
  <path d="M531 403 c21 -29 42 -43 61 -43 31 0 20 30 -17 46 -47 19 -61 18 -44
-3z"/>
</g>
<g id="part-5" class="char-part">
  <path d="M486 245 c18 -14 18 -14 -3 -8 -18 4 -23 1 -24 -16 -2 -29 -3 -33
-17 -58 -7 -12 -8 -24 -3 -27 13 -8 29 16 26 41 -1 18 1 20 12 11 7 -6 16 -8
20 -4 3 3 1 6 -6 6 -7 0 -6 9 5 26 15 22 15 27 3 35 -23 14 -34 10 -13 -6z"/>
  <path d="M559 149 c13 -5 29 -16 35 -25 7 -8 20 -17 31 -18 11 -2 19 -9 18
-14 -2 -7 4 -9 14 -5 10 4 14 2 9 -5 -5 -9 14 -20 49 -28 6 -1 18 -5 28 -9 9
-4 17 -3 17 3 0 6 8 8 19 5 10 -3 21 0 25 5 3 5 -30 18 -74 28 -44 11 -80 22
-80 27 0 4 -7 7 -16 7 -9 0 -27 9 -41 20 -14 11 -33 20 -42 19 -10 0 -7 -4 8
-10z m178 -75 c-3 -3 -12 -4 -19 -1 -8 3 -5 6 6 6 11 1 17 -2 13 -5z"/>
  <path d="M411 107 c-13 -21 -12 -21 5 -5 10 10 16 20 13 22 -3 3 -11 -5 -18
-17z"/>
</g>
</g>
</svg>