<?xml version="1.0" standalone="no"?>
<!DOCTYPE svg PUBLIC "-//W3C//DTD SVG 20010904//EN"
 "http://www.w3.org/TR/2001/REC-SVG-20010904/DTD/svg10.dtd">
<svg version="1.0" xmlns="http://www.w3.org/2000/svg"
 width="96.000000pt" height="68.000000pt" viewBox="0 0 96.000000 68.000000"
 preserveAspectRatio="xMidYMid meet">
<metadata>
Created by potrace 1.16, written by Peter Selinger 2001-2019
Combined from part_0.svg through part_5.svg with named groups
</metadata>
<g transform="translate(0.000000,68.000000) scale(0.100000,-0.100000)" fill="#000000" stroke="none">
<g id="part-0" class="char-part">
  <path d="M515 613 c-33 -7 -104 -14 -157 -15 -54 -2 -98 -5 -98 -7 0 -3 7 -12
16 -22 8 -9 22 -43 31 -76 17 -66 30 -87 47 -74 21 16 181 24 205 10 25 -16
31 -10 55 51 10 25 25 60 34 78 11 23 12 36 5 43 -20 20 -78 25 -138 12z m55
-42 c0 -20 -19 -25 -151 -37 -65 -5 -77 -4 -82 10 -4 9 -1 16 6 17 14 1 208
25 220 28 4 0 7 -7 7 -18z m-6 -73 c-3 -13 -7 -24 -8 -24 0 -1 -44 -4 -97 -8
-91 -6 -97 -5 -102 14 -5 18 0 20 41 21 26 0 67 4 92 8 78 14 82 14 74 -11z"/>
  <path d="M378 394 c-8 -9 -42 -29 -74 -44 -57 -28 -49 -43 11 -20 22 9 27 7
35 -15 17 -45 5 -55 -74 -56 -39 0 -80 -4 -91 -9 l-20 -8 20 -8 c23 -10 89
-10 128 0 22 5 27 3 27 -13 0 -29 -46 -78 -104 -111 -63 -37 -44 -39 27 -4 59
30 97 61 97 81 0 7 5 13 10 13 6 0 10 7 10 15 0 22 42 35 111 35 l59 0 1 -62
c0 -83 6 -148 13 -156 18 -17 31 27 34 118 l4 100 79 0 c72 0 102 10 84 28 -4
4 -40 7 -81 7 l-74 0 0 52 c0 41 -4 54 -19 63 -36 19 -41 12 -41 -54 l0 -63
-46 -7 c-26 -3 -60 -6 -77 -6 -27 0 -29 2 -24 30 4 16 2 32 -3 35 -18 11 -10
25 14 25 33 0 43 18 20 35 -25 19 -36 18 -56 -1z"/>
</g>
<g id="part-1" class="char-part">
  <path d="M490 605 c-30 -8 -92 -14 -138 -15 l-82 0 14 -22 c8 -13 21 -49 30
-81 8 -33 16 -61 18 -62 2 -2 24 1 48 6 25 6 82 9 127 7 l82 -4 22 55 c13 31
29 65 36 77 11 18 11 23 -2 34 -23 19 -93 21 -155 5z m90 -38 c0 -22 -5 -23
-117 -35 -92 -9 -119 -9 -125 1 -18 28 -5 34 90 44 157 16 152 16 152 -10z
m-10 -59 c-1 -31 -19 -38 -118 -44 -98 -7 -102 -6 -102 13 0 18 10 22 73 30
107 15 147 15 147 1z"/>
</g>
<g id="part-2" class="char-part">
  <path d="M375 394 c-11 -9 -47 -29 -80 -45 -73 -35 -47 -39 63 -7 92 25 104
34 78 54 -25 18 -36 17 -61 -2z"/>
</g>
<g id="part-3" class="char-part">
  <path d="M550 346 l0 -63 -46 -7 c-26 -3 -60 -6 -77 -6 -28 0 -29 2 -24 34 4
25 1 36 -9 40 -28 11 -44 -5 -44 -45 l0 -39 -72 -1 c-40 0 -82 -4 -93 -9 l-20
-8 20 -8 c24 -10 98 -10 138 0 l28 7 -20 -38 c-22 -43 -38 -59 -101 -97 -39
-24 -41 -27 -15 -21 66 15 124 62 170 139 7 13 30 19 88 23 l77 6 0 -89 c0
-49 3 -99 6 -111 17 -62 44 11 44 118 l0 78 82 3 c50 2 83 7 85 15 7 20 -90
33 -139 17 -16 -5 -18 2 -18 51 0 50 -2 56 -26 65 -14 6 -27 10 -30 10 -2 0
-4 -29 -4 -64z"/>
</g>
</g>
</svg>