<?xml version="1.0" standalone="no"?>
<!DOCTYPE svg PUBLIC "-//W3C//DTD SVG 20010904//EN"
 "http://www.w3.org/TR/2001/REC-SVG-20010904/DTD/svg10.dtd">
<svg version="1.0" xmlns="http://www.w3.org/2000/svg"
 width="96.000000pt" height="68.000000pt" viewBox="0 0 96.000000 68.000000"
 preserveAspectRatio="xMidYMid meet">
<metadata>
Created by potrace 1.16, written by Peter Selinger 2001-2019
Combined from part_0.svg through part_5.svg with named groups
</metadata>
<g transform="translate(0.000000,68.000000) scale(0.100000,-0.100000)" fill="#000000" stroke="none">
<g id="part-0" class="char-part">
  <path d="M577 553 c7 -55 -2 -63 -74 -63 -29 0 -53 -4 -53 -10 0 -6 28 -10 65
-10 50 0 65 -3 65 -14 0 -10 -16 -17 -47 -22 -37 -5 -43 -9 -28 -14 11 -4 32
-5 48 -3 24 5 27 2 27 -21 0 -23 -4 -26 -32 -26 -61 0 -138 -13 -138 -22 0 -6
23 -8 53 -5 28 2 125 10 215 17 89 7 162 17 162 21 0 16 -71 21 -133 10 -86
-15 -89 -14 -85 11 2 15 10 23 23 24 63 3 75 5 75 14 0 6 -20 10 -45 10 -69 0
-60 25 13 36 71 11 67 30 -7 26 l-53 -3 6 35 c4 20 6 36 4 36 -2 0 -18 4 -35
9 l-32 9 6 -45z"/>
  <path d="M320 540 c-14 -11 -56 -32 -95 -47 -60 -24 -66 -28 -42 -31 16 -2 42
1 60 7 38 14 46 6 50 -44 l2 -40 -88 -11 c-49 -7 -91 -15 -94 -17 -11 -12 65
-17 112 -8 27 5 52 8 54 5 2 -2 -14 -29 -35 -60 -32 -46 -63 -76 -123 -121 -2
-2 -2 -6 1 -9 10 -10 61 22 112 70 28 25 53 46 56 46 3 0 2 -33 -2 -72 -14
-118 -14 -156 0 -170 26 -26 37 9 40 137 2 69 6 125 10 125 3 0 18 -12 33 -26
17 -16 34 -24 43 -21 29 11 17 28 -34 49 -35 14 -50 26 -50 40 0 20 6 23 63
33 48 8 38 25 -15 25 l-40 0 4 38 c3 26 0 40 -11 48 -12 9 -5 13 37 19 58 8
74 22 47 42 -26 19 -66 16 -95 -7z"/>
  <path d="M630 329 c-25 -4 -69 -8 -98 -8 l-53 -1 6 -47 c3 -26 0 -62 -6 -80
-14 -43 4 -81 29 -61 14 11 15 11 9 -5 -4 -10 -7 -20 -7 -22 0 -2 -21 -20 -46
-40 -60 -45 -40 -45 43 0 91 49 88 47 69 60 -14 11 -8 14 45 20 43 5 68 3 85
-6 13 -7 27 -9 31 -5 5 4 10 46 12 94 4 114 -5 122 -119 101z m60 -37 c0 -16
-9 -19 -62 -20 -35 -1 -72 -3 -83 -4 -11 -2 -21 4 -23 14 -3 18 19 23 121 26
39 2 47 -1 47 -16z m5 -47 c0 -5 -35 -16 -79 -24 -66 -11 -80 -11 -87 0 -13
21 1 28 66 32 82 5 100 4 100 -8z m1 -46 c12 -19 -10 -27 -93 -35 -71 -6 -83
-4 -83 9 0 14 36 22 157 36 6 0 15 -4 19 -10z"/>
  <path d="M675 89 c22 -19 45 -40 51 -48 12 -15 45 -12 51 6 6 17 -57 60 -102
69 l-39 7 39 -34z"/>
</g>
<g id="part-1" class="char-part">
  <path d="M328 539 c-15 -11 -53 -31 -85 -45 -57 -24 -57 -25 -18 -20 46 6 185
43 194 52 8 8 -29 34 -48 34 -9 0 -28 -10 -43 -21z"/>
</g>
<g id="part-2" class="char-part">
  <path d="M284 473 c15 -56 16 -81 3 -86 -7 -3 -45 -8 -83 -12 -38 -4 -76 -11
-84 -15 -27 -15 39 -23 99 -13 31 6 58 9 60 7 8 -8 -55 -87 -111 -140 -33 -29
-56 -54 -53 -54 23 0 84 37 128 79 l53 50 -10 -82 c-13 -112 -12 -155 3 -169
10 -11 15 -9 27 6 10 15 14 51 14 138 0 65 2 118 4 118 3 0 17 -11 32 -25 29
-27 54 -29 62 -7 2 8 -16 21 -47 35 -41 17 -51 26 -49 41 2 16 15 23 58 31 59
11 50 25 -16 25 -35 0 -35 0 -28 36 7 40 -4 54 -44 54 -17 0 -22 -4 -18 -17z"/>
</g>
<g id="part-3" class="char-part">
  <path d="M568 579 c18 -19 15 -76 -4 -83 -9 -3 -38 -6 -65 -6 -27 0 -49 -4
-49 -10 0 -6 28 -10 65 -10 50 0 65 -3 65 -15 0 -9 -14 -16 -37 -20 -67 -11
-69 -13 -15 -14 45 -1 52 -4 52 -21 0 -13 7 -20 20 -20 13 0 20 7 20 20 0 16
9 21 50 26 62 8 66 24 5 24 -63 0 -62 25 1 35 60 9 75 15 68 27 -3 5 -29 6
-60 2 l-54 -6 3 38 c2 39 2 39 -38 42 -32 3 -38 1 -27 -9z"/>
</g>
<g id="part-4" class="char-part">
  <path d="M700 390 c-30 -4 -108 -13 -173 -20 -84 -9 -115 -16 -108 -23 8 -8
39 -7 108 1 54 7 145 15 203 18 58 4 107 8 110 11 2 2 -2 8 -10 13 -17 11 -51
11 -130 0z"/>
</g>
<g id="part-5" class="char-part">
  <path d="M546 118 c5 -7 2 -9 -8 -6 -8 3 -19 -2 -25 -11 -8 -13 -7 -17 8 -17
9 0 15 5 12 10 -4 5 1 7 10 3 16 -6 41 15 30 26 -11 12 -35 8 -27 -5z"/>
  <path d="M666 98 c3 -5 10 -6 15 -3 13 9 11 12 -6 12 -8 0 -12 -4 -9 -9z"/>
  <path d="M694 89 c-3 -5 2 -12 10 -15 9 -3 13 -11 9 -18 -3 -6 -3 -8 2 -4 4 4
14 0 22 -8 8 -8 20 -11 26 -7 8 5 8 8 0 10 -7 3 -9 12 -6 20 5 13 2 15 -11 10
-9 -4 -15 -3 -12 2 3 5 -3 11 -14 14 -11 3 -23 1 -26 -4z"/>
  <path d="M459 53 c-13 -16 -12 -17 4 -4 16 13 21 21 13 21 -2 0 -10 -8 -17
-17z"/>
</g>
</g>
</svg>