<?xml version="1.0" standalone="no"?>
<!DOCTYPE svg PUBLIC "-//W3C//DTD SVG 20010904//EN"
 "http://www.w3.org/TR/2001/REC-SVG-20010904/DTD/svg10.dtd">
<svg version="1.0" xmlns="http://www.w3.org/2000/svg"
 width="96.000000pt" height="68.000000pt" viewBox="0 0 96.000000 68.000000"
 preserveAspectRatio="xMidYMid meet">
<metadata>
Created by potrace 1.16, written by Peter Selinger 2001-2019
Combined from part_0.svg through part_5.svg with named groups
</metadata>
<g transform="translate(0.000000,68.000000) scale(0.100000,-0.100000)" fill="#000000" stroke="none">
<g id="part-0" class="char-part">
  <path d="M300 574 c0 -40 -56 -137 -127 -217 -84 -96 -56 -106 43 -15 l44 41
0 -80 c0 -44 -5 -104 -11 -134 -12 -60 0 -109 25 -109 27 0 34 34 37 182 2
108 -1 150 -10 162 -11 13 -9 20 9 43 11 15 34 48 50 73 27 41 28 46 13 62 -9
10 -29 18 -45 18 -24 0 -28 -4 -28 -26z"/>
  <path d="M620 504 c-69 -7 -151 -13 -183 -15 -36 -1 -56 -6 -54 -13 3 -7 35
-10 91 -8 98 2 98 2 58 -75 -15 -30 -21 -33 -60 -33 -38 0 -43 -2 -37 -17 4
-10 12 -63 17 -118 11 -109 22 -150 38 -140 6 4 8 11 5 16 -4 5 9 9 27 9 18 0
56 3 83 6 49 5 51 5 69 -28 l18 -33 28 33 c23 28 28 45 34 115 3 45 9 99 12
119 9 53 -19 65 -126 52 -44 -5 -80 -6 -80 -1 0 4 16 22 36 39 24 21 34 37 31
50 -5 16 3 18 81 19 48 0 96 4 107 8 19 8 19 8 -2 19 -25 14 -24 14 -193 -4z
m75 -198 c0 -37 -1 -38 -35 -41 -19 -1 -65 -6 -102 -10 l-68 -7 0 45 c0 45 0
46 38 50 20 2 66 4 102 3 l65 -1 0 -39z m3 -113 l-3 -47 -101 -4 -101 -4 -1
46 -2 45 77 4 c43 1 91 4 106 5 27 2 28 1 25 -45z"/>
</g>
<g id="part-1" class="char-part">
  <path d="M306 568 c-10 -50 -72 -153 -131 -217 -30 -32 -55 -62 -55 -65 0 -11
42 15 92 56 25 21 49 34 53 29 3 -6 0 -72 -6 -147 -10 -121 -9 -138 5 -152 8
-9 19 -12 23 -8 13 12 21 319 10 337 -8 13 0 32 36 88 26 38 47 75 47 80 0 12
-33 31 -53 31 -8 0 -17 -14 -21 -32z"/>
</g>
<g id="part-2" class="char-part">
  <path d="M562 500 c-101 -10 -186 -20 -189 -23 -12 -13 52 -19 119 -13 l71 7
-7 -27 c-4 -15 -16 -40 -27 -56 -17 -24 -18 -28 -4 -28 26 0 107 81 102 102
-5 16 3 18 83 18 103 0 126 6 109 26 -14 17 -25 17 -257 -6z"/>
</g>
<g id="part-3" class="char-part">
  <path d="M615 370 c-27 -5 -81 -9 -119 -9 -61 -1 -67 -3 -61 -18 4 -10 13 -71
20 -136 7 -65 16 -121 19 -124 3 -4 12 1 19 9 8 11 37 18 87 22 l75 7 18 -32
c15 -26 20 -29 33 -18 28 23 36 51 50 167 14 107 13 115 -3 128 -20 15 -60 16
-138 4z m80 -65 c0 -39 -1 -40 -35 -41 -19 0 -66 -4 -103 -9 l-68 -8 3 44 c3
42 5 44 38 50 19 4 64 6 100 5 l65 -1 0 -40z m4 -97 c-1 -60 -6 -63 -105 -67
l-91 -3 -7 32 c-11 59 -12 59 72 63 42 1 89 4 105 5 24 2 27 -1 26 -30z"/>
</g>
</g>
</svg>