<?xml version="1.0" standalone="no"?>
<!DOCTYPE svg PUBLIC "-//W3C//DTD SVG 20010904//EN"
 "http://www.w3.org/TR/2001/REC-SVG-20010904/DTD/svg10.dtd">
<svg version="1.0" xmlns="http://www.w3.org/2000/svg"
 width="96.000000pt" height="68.000000pt" viewBox="0 0 96.000000 68.000000"
 preserveAspectRatio="xMidYMid meet">
<metadata>
Created by potrace 1.16, written by Peter Selinger 2001-2019
Combined from part_0.svg through part_5.svg with named groups
</metadata>
<g transform="translate(0.000000,68.000000) scale(0.100000,-0.100000)" fill="#000000" stroke="none">
<g id="part-0" class="char-part">
  <path d="M284 604 c4 -20 4 -49 1 -65 l-7 -29 -78 0 c-43 0 -81 -4 -84 -9 -3
-4 3 -16 14 -26 17 -16 28 -17 74 -9 47 9 53 8 49 -7 -3 -11 5 -20 26 -27 17
-6 31 -14 31 -17 0 -10 -108 -55 -131 -55 -12 0 -17 -4 -13 -11 9 -16 84 -4
142 21 39 17 50 19 69 9 34 -18 28 -27 -19 -32 -24 -2 5 -4 65 -5 86 -2 107
-5 107 -16 0 -23 -11 -26 -127 -37 l-109 -12 4 -34 c3 -22 -1 -40 -12 -52 -15
-16 -15 -19 -1 -31 13 -11 22 -10 55 5 29 13 67 18 142 19 l103 1 3 -36 c2
-24 -3 -43 -16 -60 -18 -22 -23 -23 -61 -13 -23 6 -41 9 -41 7 0 -3 14 -20 31
-38 29 -30 34 -32 58 -22 45 19 59 37 80 103 12 35 21 65 21 67 0 3 -13 10
-30 17 -23 10 -57 10 -156 1 -70 -6 -129 -9 -132 -7 -2 3 -2 16 2 29 6 24 10
25 116 32 92 6 110 10 110 24 0 9 7 25 15 35 21 28 19 35 -12 47 -17 6 -42 7
-71 0 -39 -8 -45 -7 -49 9 -3 10 -18 24 -34 30 -16 7 -29 14 -29 16 0 3 12 22
26 43 17 26 35 41 55 45 17 3 28 10 24 16 -8 13 1 13 28 -1 28 -15 67 -50 67
-61 0 -5 -28 -23 -62 -39 l-63 -31 44 6 c24 4 53 13 64 21 32 22 47 19 87 -19
38 -37 43 -39 113 -37 57 1 61 15 10 31 -51 16 -122 50 -129 61 -3 5 9 30 26
56 30 44 31 48 14 60 -22 16 -21 16 -91 -2 -31 -8 -72 -15 -90 -15 -18 0 -33
-4 -33 -10 0 -5 -9 -10 -19 -10 -11 0 -23 5 -26 10 -11 17 -42 11 -48 -10 -4
-15 -14 -20 -37 -20 -22 0 -30 4 -27 13 3 6 12 29 21 49 15 35 15 38 -3 48
-11 5 -29 10 -41 10 -20 0 -22 -4 -16 -36z m356 -58 c0 -8 -8 -23 -17 -35
l-18 -22 -34 25 -34 25 29 6 c16 4 34 8 39 10 22 8 35 4 35 -9z m-260 -51 c0
-3 -7 -17 -16 -30 -17 -26 -39 -31 -63 -16 -20 13 2 38 37 44 15 2 30 5 35 6
4 0 7 -1 7 -4z"/>
</g>
<g id="part-1" class="char-part">
  <path d="M290 588 c0 -76 -7 -82 -94 -86 -42 -2 -76 -8 -76 -13 0 -15 48 -22
97 -14 40 6 45 5 39 -10 -4 -12 3 -20 29 -31 19 -8 35 -16 35 -19 0 -7 -60
-37 -105 -52 l-40 -13 52 4 c28 3 69 14 91 25 38 19 39 19 68 0 36 -24 54 -24
54 -1 0 10 -13 25 -30 33 l-29 14 27 42 c18 27 37 44 57 49 29 7 30 7 5 11
-14 3 -33 12 -42 20 -18 16 -38 10 -38 -11 0 -14 -58 -31 -69 -21 -3 3 3 27
12 53 17 44 17 47 0 59 -33 25 -43 16 -43 -39z m90 -97 c0 -5 -8 -19 -18 -31
-14 -18 -25 -22 -45 -16 -33 8 -35 33 -4 46 29 12 67 12 67 1z"/>
</g>
<g id="part-2" class="char-part">
  <path d="M600 575 c-30 -7 -70 -14 -87 -14 -44 -1 -42 -13 6 -34 21 -9 47 -27
57 -38 19 -21 19 -22 -5 -38 -13 -9 -45 -24 -70 -34 l-46 -17 45 4 c25 3 59
12 75 20 41 22 47 21 85 -19 32 -33 37 -35 102 -35 39 0 68 4 68 10 0 6 -7 10
-16 10 -19 0 -164 66 -164 75 0 4 14 26 30 50 34 50 36 60 14 69 -19 7 -24 7
-94 -9z m40 -25 c0 -14 -22 -60 -30 -60 -3 0 -21 11 -39 24 l-34 25 29 6 c16
4 34 8 39 10 20 7 35 5 35 -5z"/>
</g>
<g id="part-3" class="char-part">
  <path d="M425 360 l-110 -18 113 -1 c61 0 112 -4 112 -8 -1 -24 -26 -32 -132
-43 l-116 -13 5 -34 c4 -23 1 -39 -10 -51 -11 -12 -13 -22 -7 -32 8 -13 14
-13 42 -1 45 18 149 33 211 29 50 -3 52 -4 55 -35 6 -61 -39 -99 -88 -73 -37
20 -36 1 2 -36 34 -35 36 -36 65 -21 41 22 50 35 74 108 20 60 20 64 3 76 -22
16 -64 16 -194 2 -55 -7 -103 -9 -106 -6 -4 3 -4 17 0 30 5 23 10 25 116 32
86 5 110 10 110 21 0 8 7 26 16 40 33 49 -10 58 -161 34z"/>
</g>
</g>
</svg>