<?xml version="1.0" standalone="no"?>
<!DOCTYPE svg PUBLIC "-//W3C//DTD SVG 20010904//EN"
 "http://www.w3.org/TR/2001/REC-SVG-20010904/DTD/svg10.dtd">
<svg version="1.0" xmlns="http://www.w3.org/2000/svg"
 width="96.000000pt" height="68.000000pt" viewBox="0 0 96.000000 68.000000"
 preserveAspectRatio="xMidYMid meet">
<metadata>
Created by potrace 1.16, written by Peter Selinger 2001-2019
Combined from part_0.svg through part_5.svg with named groups
</metadata>
<g transform="translate(0.000000,68.000000) scale(0.100000,-0.100000)" fill="#000000" stroke="none">
<g id="part-0" class="char-part">
  <path d="M390 518 c-96 -10 -176 -21 -178 -23 -2 -2 -1 -9 3 -16 6 -8 34 -10
96 -7 62 4 89 2 90 -6 2 -22 -3 -62 -12 -98 -8 -32 -14 -38 -37 -38 -49 0
-102 -12 -96 -22 3 -5 18 -9 32 -8 67 5 84 1 77 -17 -4 -10 -18 -47 -30 -83
-12 -36 -29 -66 -36 -67 -8 -1 -53 -5 -101 -8 -49 -4 -88 -10 -88 -14 0 -10
68 -33 78 -27 12 7 458 36 567 36 l90 1 -25 21 c-23 19 -33 20 -137 15 -62 -4
-113 -5 -113 -3 0 2 18 42 39 89 41 88 41 95 -2 110 -10 4 -50 2 -89 -3 -39
-6 -73 -8 -76 -6 -2 3 5 29 17 59 12 29 19 61 15 70 -5 15 4 17 92 18 55 0
108 4 118 8 18 7 18 8 -5 24 -29 21 -63 20 -289 -5z m173 -232 c-1 -16 -15
-55 -30 -85 l-28 -56 -72 -3 c-40 -2 -73 -1 -73 2 0 3 4 15 9 28 5 13 19 49
31 80 24 62 32 67 120 64 43 -1 45 -2 43 -30z"/>
</g>
<g id="part-1" class="char-part">
  <path d="M418 516 c-109 -10 -198 -23 -198 -27 0 -4 7 -10 16 -13 15 -6 445
23 453 30 8 7 -7 16 -41 23 -18 4 -122 -2 -230 -13z"/>
</g>
<g id="part-2" class="char-part">
  <path d="M413 483 c-7 -3 -13 -18 -13 -34 0 -17 -5 -50 -11 -75 -11 -42 -13
-44 -49 -44 -21 0 -52 -3 -70 -6 -46 -10 -18 -24 47 -24 l53 0 -30 -81 -29
-80 26 3 c22 3 29 14 55 85 l29 82 43 6 c23 4 55 5 72 3 25 -3 29 -7 27 -31
-1 -15 -13 -52 -27 -82 l-25 -55 30 0 c19 0 32 6 36 18 3 9 21 50 39 90 l33
72 -32 16 c-27 14 -40 15 -100 4 -37 -7 -71 -10 -74 -7 -3 4 5 31 18 62 24 58
21 72 -17 79 -10 2 -25 1 -31 -1z"/>
</g>
<g id="part-3" class="char-part">
  <path d="M639 156 c-2 -2 -101 -9 -219 -16 -118 -6 -240 -15 -270 -19 l-55 -8
39 -17 c21 -10 50 -15 65 -12 42 9 456 36 555 36 l91 1 -24 19 c-19 16 -38 20
-100 20 -43 0 -80 -2 -82 -4z"/>
</g>
</g>
</svg>