<?xml version="1.0" standalone="no"?>
<!DOCTYPE svg PUBLIC "-//W3C//DTD SVG 20010904//EN"
 "http://www.w3.org/TR/2001/REC-SVG-20010904/DTD/svg10.dtd">
<svg version="1.0" xmlns="http://www.w3.org/2000/svg"
 width="96.000000pt" height="68.000000pt" viewBox="0 0 96.000000 68.000000"
 preserveAspectRatio="xMidYMid meet">
<metadata>
Created by potrace 1.16, written by Peter Selinger 2001-2019
Combined from part_0.svg through part_5.svg with named groups
</metadata>
<g transform="translate(0.000000,68.000000) scale(0.100000,-0.100000)" fill="#000000" stroke="none">
<g id="part-0" class="char-part">
  <path d="M236 543 c-17 -9 -41 -16 -55 -15 l-26 1 0 -127 c0 -70 -2 -172 -5
-227 -4 -84 -3 -100 10 -100 20 0 27 64 32 266 l3 158 34 6 c41 8 45 4 30 -29
-10 -20 -10 -35 -2 -59 25 -74 26 -77 4 -77 -29 0 -26 -18 3 -32 54 -24 72 15
36 74 -29 49 -25 69 22 110 32 27 40 40 32 48 -19 19 -86 20 -118 3z"/>
  <path d="M528 517 c-88 -11 -104 -27 -28 -27 57 0 68 -12 52 -57 -8 -27 -12
-28 -71 -28 -58 0 -62 -1 -56 -20 3 -11 9 -57 12 -102 4 -60 10 -83 19 -83 11
0 14 21 14 90 0 79 2 90 18 91 9 0 25 2 35 4 23 4 22 -22 -4 -64 -27 -45 -14
-54 20 -13 15 17 31 32 36 32 5 0 21 -12 36 -26 18 -17 34 -24 44 -20 25 9 13
40 -20 50 -61 18 -65 20 -56 35 6 9 32 16 70 19 l61 4 0 -70 c0 -76 -11 -95
-48 -85 -28 7 -28 -7 -2 -35 48 -51 83 -15 100 104 10 75 10 80 -11 96 -11 10
-31 16 -43 13 -11 -2 -41 -6 -66 -7 -44 -3 -45 -3 -42 26 2 16 -2 32 -8 36
-15 9 3 15 72 25 26 3 50 10 53 16 8 11 -82 9 -187 -4z"/>
  <path d="M346 313 c5 -10 9 -57 9 -105 0 -48 5 -91 10 -97 7 -7 30 -8 70 -1
33 5 129 10 213 10 152 0 181 7 127 32 -19 8 -63 8 -177 0 -84 -7 -166 -12
-182 -12 l-28 0 3 93 4 92 -29 3 c-25 3 -28 1 -20 -15z"/>
</g>
<g id="part-1" class="char-part">
  <path d="M243 539 c-47 -22 -60 -45 -16 -28 43 16 57 5 38 -30 -18 -36 -19
-41 -2 -40 19 1 91 89 81 99 -19 18 -60 18 -101 -1z"/>
</g>
<g id="part-2" class="char-part">
  <path d="M151 509 c13 -25 6 -291 -10 -359 -9 -41 2 -80 23 -80 17 0 24 74 28
300 l3 155 -28 3 c-27 3 -28 2 -16 -19z"/>
</g>
<g id="part-3" class="char-part">
  <path d="M620 530 c-19 -5 -65 -12 -102 -15 -38 -4 -68 -11 -68 -16 0 -13 104
-11 196 2 69 11 75 13 59 25 -21 15 -33 16 -85 4z"/>
</g>
<g id="part-4" class="char-part">
  <path d="M620 413 c-52 -7 -119 -11 -148 -9 l-54 5 8 -27 c4 -15 10 -60 13
-101 4 -46 11 -76 19 -79 9 -3 12 19 12 86 0 105 -11 96 143 107 l97 7 0 -70
c0 -76 -11 -95 -48 -85 -29 7 -28 -8 1 -35 50 -47 77 -17 95 103 12 77 12 81
-9 98 -12 9 -24 16 -28 16 -3 -1 -49 -8 -101 -16z"/>
</g>
<g id="part-5" class="char-part">
  <path d="M357 303 c4 -11 8 -13 11 -5 2 7 8 10 13 6 5 -3 9 0 9 5 0 6 -9 11
-20 11 -14 0 -18 -5 -13 -17z"/>
  <path d="M375 282 c-12 -8 -16 -92 -5 -92 5 0 10 23 12 50 1 28 3 50 3 50 0 0
-5 -4 -10 -8z"/>
  <path d="M359 160 c-1 -11 -2 -26 -3 -32 -1 -7 7 -12 17 -12 9 1 17 -3 17 -9
0 -7 4 -7 12 1 7 7 44 12 98 12 47 0 99 4 117 9 20 6 47 5 74 -2 32 -8 44 -7
47 1 2 7 8 12 13 12 6 0 7 -4 4 -10 -8 -12 5 -13 24 -1 19 12 -15 29 -49 25
-14 -1 -60 -4 -102 -5 -42 -1 -75 -5 -73 -8 2 -4 -36 -6 -83 -5 -81 1 -87 2
-90 22 -4 28 -21 29 -23 2z"/>
</g>
</g>
</svg>