<?xml version="1.0" standalone="no"?>
<!DOCTYPE svg PUBLIC "-//W3C//DTD SVG 20010904//EN"
 "http://www.w3.org/TR/2001/REC-SVG-20010904/DTD/svg10.dtd">
<svg version="1.0" xmlns="http://www.w3.org/2000/svg"
 width="96.000000pt" height="68.000000pt" viewBox="0 0 96.000000 68.000000"
 preserveAspectRatio="xMidYMid meet">
<metadata>
Created by potrace 1.16, written by Peter Selinger 2001-2019
Combined from part_0.svg through part_5.svg with named groups
</metadata>
<g transform="translate(0.000000,68.000000) scale(0.100000,-0.100000)" fill="#000000" stroke="none">
<g id="part-0" class="char-part">
  <path d="M290 578 c0 -39 -54 -140 -119 -220 -33 -43 -57 -78 -52 -78 10 0 55
34 99 74 l32 30 -1 -90 c0 -49 -4 -109 -8 -134 -11 -72 23 -138 48 -92 14 26
16 313 3 338 -9 17 -4 32 29 85 42 69 48 93 23 103 -33 13 -54 7 -54 -16z"/>
  <path d="M590 569 c-30 -5 -77 -9 -105 -10 l-50 -1 -1 -81 c-2 -127 -36 -253
-90 -333 l-26 -38 24 16 c31 21 74 83 95 141 17 46 18 47 59 47 23 0 56 3 73
6 31 6 31 6 31 -35 0 -48 -8 -54 -81 -55 -54 -1 -55 -2 -34 -30 8 -10 17 -38
20 -61 8 -52 21 -75 33 -57 5 8 44 15 106 19 73 5 96 9 92 19 -3 7 6 29 20 49
13 20 24 40 24 45 0 18 -43 32 -91 28 -47 -3 -49 -2 -49 22 1 66 5 69 99 72
110 4 111 23 0 22 l-80 -1 6 25 c7 28 -7 42 -43 42 -20 0 -23 -4 -18 -27 3
-16 2 -34 -2 -41 -8 -12 -142 -30 -142 -19 0 3 5 28 11 56 l10 49 120 7 c111
7 119 9 119 28 0 12 12 34 28 50 26 28 27 29 8 43 -22 15 -80 16 -166 3z m95
-46 c-4 -21 -8 -38 -8 -39 -4 -2 -172 -24 -184 -24 -15 0 -17 38 -3 60 9 15
103 36 169 39 33 1 33 1 26 -36z m17 -343 c-2 -19 -8 -39 -13 -45 -6 -5 -42
-10 -81 -10 l-72 0 -8 34 c-5 18 -7 35 -5 37 5 5 138 22 162 20 17 -1 19 -7
17 -36z"/>
</g>
<g id="part-1" class="char-part">
  <path d="M295 568 c-15 -69 -75 -167 -154 -250 -53 -57 -23 -45 47 18 51 46
63 53 68 39 4 -9 2 -75 -5 -146 -12 -131 -6 -176 22 -166 18 6 28 327 11 346
-10 11 -4 26 32 82 24 38 44 74 44 79 0 10 -32 30 -49 30 -5 0 -13 -15 -16
-32z"/>
</g>
<g id="part-2" class="char-part">
  <path d="M660 579 c-19 -4 -78 -11 -131 -15 l-97 -7 5 -38 c13 -92 -41 -301
-98 -381 -33 -45 -16 -43 26 3 48 53 82 129 99 219 8 39 16 73 18 75 2 2 56 7
121 11 103 6 117 9 117 25 0 9 11 31 25 47 14 17 25 33 25 36 0 6 -65 38 -72
35 -2 -1 -19 -5 -38 -10z m26 -32 c3 -8 1 -25 -5 -39 -8 -22 -18 -26 -95 -37
-91 -13 -106 -10 -106 17 0 33 19 46 87 58 91 16 113 16 119 1z"/>
</g>
<g id="part-3" class="char-part">
  <path d="M603 383 l2 -38 -75 -11 c-88 -13 -73 -31 17 -20 l56 6 -5 -45 c-5
-39 -3 -45 13 -45 18 0 22 9 34 67 l6 32 85 3 c108 4 112 23 4 22 l-80 -1 3
31 c2 28 -1 31 -30 34 -32 3 -32 2 -30 -35z"/>
</g>
<g id="part-4" class="char-part">
  <path d="M600 228 c-36 -4 -83 -6 -104 -3 -38 6 -39 5 -24 -12 9 -10 24 -45
33 -78 20 -68 23 -74 33 -58 5 7 48 15 105 19 74 5 97 10 93 20 -3 7 6 29 20
49 29 43 30 51 5 65 -23 12 -69 11 -161 -2z m102 -53 c-2 -22 -5 -41 -6 -42
-1 -2 -37 -6 -79 -11 l-77 -8 -11 39 c-6 21 -7 42 -4 45 8 8 108 20 150 18 29
-1 30 -3 27 -41z"/>
</g>
</g>
</svg>