<?xml version="1.0" standalone="no"?>
<!DOCTYPE svg PUBLIC "-//W3C//DTD SVG 20010904//EN"
 "http://www.w3.org/TR/2001/REC-SVG-20010904/DTD/svg10.dtd">
<svg version="1.0" xmlns="http://www.w3.org/2000/svg"
 width="96.000000pt" height="68.000000pt" viewBox="0 0 96.000000 68.000000"
 preserveAspectRatio="xMidYMid meet">
<metadata>
Created by potrace 1.16, written by Peter Selinger 2001-2019
Combined from part_0.svg through part_5.svg with named groups
</metadata>
<g transform="translate(0.000000,68.000000) scale(0.100000,-0.100000)" fill="#000000" stroke="none">
<g id="part-0" class="char-part">
  <path d="M410 622 c0 -5 9 -17 20 -27 11 -10 20 -21 20 -25 0 -4 -59 -13 -130
-20 -72 -7 -133 -16 -135 -21 -10 -15 21 -23 87 -21 38 1 68 -2 68 -6 0 -18
-36 -56 -78 -83 -47 -29 -45 -37 4 -19 34 13 50 0 75 -57 10 -24 23 -43 29
-43 49 0 -61 -84 -172 -132 -103 -43 -67 -42 56 3 l79 29 -6 -81 c-4 -64 -2
-81 9 -86 12 -4 154 80 154 92 0 2 -21 -2 -47 -10 -27 -8 -51 -15 -55 -15 -5
0 -8 23 -8 50 0 28 -4 50 -10 50 -22 0 -8 19 36 48 27 17 42 32 35 36 -26 17
-7 26 54 26 39 0 68 5 74 13 68 81 66 78 46 93 -24 17 -35 17 -175 -1 -69 -9
-118 -11 -123 -6 -6 6 7 20 32 36 42 28 49 43 30 62 -7 7 11 12 62 17 77 8 89
3 89 -41 0 -17 9 -25 38 -33 46 -14 144 -9 149 7 3 9 -18 13 -74 15 -76 3 -78
4 -78 28 0 21 6 26 40 32 22 4 61 7 87 7 58 1 69 15 28 36 -26 13 -43 14 -106
5 -109 -15 -112 -14 -116 17 -3 24 -8 28 -45 31 -24 2 -43 -1 -43 -6z m143
-254 c-5 -25 -9 -26 -86 -33 -71 -7 -82 -5 -94 11 -26 35 -16 42 80 51 50 5
95 6 99 3 3 -3 4 -17 1 -32z"/>
  <path d="M616 282 c-4 -11 -17 -29 -31 -42 l-24 -22 -44 21 c-24 11 -46 21
-50 21 -14 0 -6 -19 11 -24 9 -3 33 -21 52 -39 19 -18 60 -52 90 -76 54 -43
54 -43 126 -39 110 5 116 22 14 39 -62 10 -161 51 -180 74 -7 8 6 20 45 40 30
15 55 30 55 33 0 8 -34 31 -47 32 -6 0 -14 -8 -17 -18z"/>
</g>
<g id="part-1" class="char-part">
  <path d="M433 597 c22 -29 25 -37 13 -38 -9 -1 -19 -2 -23 -3 -5 -2 -53 -6
-108 -10 -109 -9 -143 -19 -106 -31 20 -6 153 1 206 11 11 2 83 7 160 10 153
7 183 14 145 34 -23 12 -102 10 -203 -7 -38 -6 -39 -5 -26 15 17 28 5 41 -47
49 l-39 6 28 -36z"/>
</g>
<g id="part-2" class="char-part">
  <path d="M524 525 c-2 -5 0 -23 4 -40 6 -22 16 -31 41 -37 45 -12 143 -6 148
9 3 9 -18 13 -74 15 l-78 3 2 30 c2 25 -1 31 -18 31 -12 0 -23 -5 -25 -11z"/>
  <path d="M340 506 c0 -24 -41 -66 -88 -91 -39 -20 -43 -24 -23 -25 31 0 96 31
140 68 32 26 33 29 17 45 -21 20 -46 22 -46 3z"/>
</g>
<g id="part-3" class="char-part">
  <path d="M432 415 c-46 -6 -95 -10 -108 -9 l-24 3 19 -25 c11 -14 23 -39 26
-55 l7 -31 76 7 c123 9 163 16 157 25 -3 4 7 23 22 40 26 31 26 33 8 46 -22
16 -67 16 -183 -1z m122 -42 c-4 -16 -8 -29 -9 -31 -1 -1 -41 -6 -89 -9 -74
-5 -86 -4 -86 10 0 8 -3 22 -6 31 -6 16 21 21 139 24 l57 2 -6 -27z"/>
</g>
<g id="part-4" class="char-part">
  <path d="M380 289 c0 -24 -92 -83 -195 -126 -104 -43 -80 -42 51 2 93 31 214
96 214 115 0 4 -7 11 -16 14 -25 10 -54 7 -54 -5z"/>
</g>
<g id="part-5" class="char-part">
  <path d="M596 247 c-27 -39 -14 -38 22 3 8 8 11 9 7 3 -8 -16 5 -16 26 0 9 7
14 18 12 25 -9 24 -38 11 -67 -31z"/>
  <path d="M485 238 c11 -7 25 -16 32 -22 34 -32 100 -84 136 -109 35 -24 49
-28 90 -24 74 7 80 31 8 32 -22 0 -37 3 -34 8 4 6 -15 11 -44 10 -7 -1 -13 4
-13 9 0 6 -8 4 -17 -3 -10 -9 -14 -9 -10 -2 5 7 -3 19 -20 30 -15 9 -48 32
-72 50 -24 18 -51 33 -60 33 -13 -1 -12 -3 4 -12z"/>
  <path d="M339 193 c-7 -34 -4 -143 3 -143 5 0 6 -6 2 -12 -5 -9 -3 -9 9 1 9 7
14 17 11 22 -3 5 2 6 10 3 9 -3 28 4 43 16 15 12 21 21 13 20 -49 -7 -62 -1
-59 33 3 52 0 67 -16 67 -8 0 -16 -3 -16 -7z m8 -45 c-3 -8 -6 -5 -6 6 -1 11
2 17 5 13 3 -3 4 -12 1 -19z"/>
  <path d="M455 110 c-3 -6 1 -7 9 -4 18 7 21 14 7 14 -6 0 -13 -4 -16 -10z"/>
</g>
</g>
</svg>