<?xml version="1.0" standalone="no"?>
<!DOCTYPE svg PUBLIC "-//W3C//DTD SVG 20010904//EN"
 "http://www.w3.org/TR/2001/REC-SVG-20010904/DTD/svg10.dtd">
<svg version="1.0" xmlns="http://www.w3.org/2000/svg"
 width="96.000000pt" height="68.000000pt" viewBox="0 0 96.000000 68.000000"
 preserveAspectRatio="xMidYMid meet">
<metadata>
Created by potrace 1.16, written by Peter Selinger 2001-2019
Combined from part_0.svg through part_5.svg with named groups
</metadata>
<g transform="translate(0.000000,68.000000) scale(0.100000,-0.100000)" fill="#000000" stroke="none">
<g id="part-0" class="char-part">
  <path d="M390 629 c-25 -4 -66 -8 -91 -8 l-46 -1 5 -70 5 -70 -44 -1 c-24 -1
-55 -4 -69 -8 l-25 -7 25 -7 c14 -4 49 -4 78 0 28 3 52 2 52 -2 0 -4 -16 -22
-37 -39 -22 -20 -32 -36 -25 -40 6 -3 55 5 109 19 61 16 99 22 101 15 5 -15
32 -12 32 4 0 17 -37 46 -58 46 -11 0 -12 -3 -3 -14 10 -12 3 -16 -39 -25 -78
-17 -88 -15 -62 10 12 11 20 24 17 29 -6 9 21 16 110 25 37 4 54 10 45 15 -8
4 -40 4 -70 0 -83 -13 -100 -12 -100 5 0 11 18 15 78 17 45 2 76 7 74 13 -2 6
-33 9 -77 7 -47 -2 -75 1 -75 7 0 6 33 11 78 13 45 2 76 7 74 13 -2 6 -34 9
-80 7 -100 -5 -87 9 18 18 73 6 100 14 89 24 -11 10 -49 12 -89 5z"/>
  <path d="M605 608 c-11 -11 -38 -29 -60 -39 -37 -18 -37 -19 -10 -15 45 7 147
55 140 66 -10 17 -49 10 -70 -12z"/>
  <path d="M628 546 c-10 -13 -38 -34 -63 -46 -25 -12 -44 -25 -41 -27 7 -7 164
56 172 68 3 5 -7 14 -21 19 -32 12 -27 14 -47 -14z"/>
  <path d="M660 481 c0 -8 -77 -46 -125 -62 -53 -18 19 -6 99 15 96 27 101 29
91 45 -7 13 -65 15 -65 2z"/>
  <path d="M512 393 c-18 -2 -30 -7 -28 -11 2 -4 -12 -7 -32 -7 -21 -1 -69 -2
-109 -3 l-71 -2 21 -42 c12 -24 23 -45 24 -47 2 -2 8 1 15 6 7 6 20 10 28 11
8 0 65 1 126 2 l111 2 27 35 c19 24 25 38 18 45 -12 12 -82 18 -130 11z m78
-37 c0 -22 -20 -32 -55 -28 -29 3 -33 7 -24 18 6 8 8 14 3 15 -5 1 2 4 16 8
31 9 60 3 60 -13z m-110 0 c0 -22 -17 -36 -41 -36 -22 0 -29 5 -29 20 0 16 7
20 35 20 19 0 35 -2 35 -4z m-92 -29 c3 -15 -2 -18 -30 -15 -22 2 -34 9 -36
21 -3 15 2 18 30 15 22 -2 34 -9 36 -21z"/>
  <path d="M600 284 c-14 -1 -95 -8 -180 -14 -201 -14 -246 -20 -229 -31 19 -12
95 -11 158 1 41 8 247 18 391 20 11 1 10 4 -4 15 -18 14 -67 17 -136 9z"/>
  <path d="M485 230 c-27 -5 -81 -9 -118 -9 -61 -1 -67 -3 -53 -16 8 -8 18 -24
21 -35 3 -11 15 -20 26 -20 54 0 -16 -46 -146 -96 -82 -32 -34 -31 57 1 39 14
73 25 75 25 7 0 2 -43 -7 -61 -10 -17 -7 -19 20 -19 16 0 30 5 30 10 0 6 4 10
9 10 12 0 103 52 98 56 -2 2 -27 -5 -55 -15 -29 -11 -54 -16 -56 -13 -10 19 2
58 22 67 11 5 23 17 25 27 4 15 16 18 66 18 45 0 61 4 61 14 0 8 7 16 15 20
22 8 18 21 -10 34 -14 7 -27 11 -28 11 -1 -1 -24 -5 -52 -9z m43 -32 c-9 -25
-173 -37 -173 -13 0 13 46 22 118 24 43 1 58 -2 55 -11z"/>
  <path d="M580 133 c-29 -24 -35 -25 -64 -15 -49 18 -66 14 -26 -6 19 -10 55
-32 79 -50 24 -18 50 -32 58 -32 7 0 13 -4 13 -10 0 -14 88 -11 130 4 l35 13
-60 8 c-33 4 -89 17 -125 28 l-65 20 30 13 c17 7 37 13 46 14 23 0 30 11 18
27 -17 19 -34 16 -69 -14z"/>
</g>
<g id="part-1" class="char-part">
  <path d="M360 620 c-30 -4 -68 -5 -84 -2 -24 4 -27 2 -23 -14 3 -10 9 -40 13
-66 4 -31 11 -48 20 -48 8 0 14 7 14 15 0 11 13 15 53 16 52 1 116 15 87 19
-21 3 -18 3 -82 -4 -48 -5 -58 -4 -58 9 0 11 11 15 44 15 58 0 107 10 100 21
-3 5 -15 7 -27 5 -12 -3 -43 -8 -69 -11 -40 -5 -48 -3 -48 9 0 11 10 16 33 16
57 0 137 13 137 21 0 10 -29 10 -110 -1z"/>
</g>
<g id="part-2" class="char-part">
  <path d="M649 474 c-9 -8 -45 -26 -80 -39 -84 -31 -47 -32 65 -1 96 27 101 29
91 45 -10 16 -59 13 -76 -5z"/>
</g>
<g id="part-3" class="char-part">
  <path d="M520 389 c-19 -5 -83 -12 -141 -15 l-105 -7 17 -35 c10 -19 20 -38
21 -43 2 -4 22 -4 44 1 23 5 87 10 142 12 l100 2 28 34 c26 33 26 36 9 48 -21
16 -62 16 -115 3z m65 -19 c21 -34 -39 -49 -225 -54 -25 -1 -35 4 -38 17 -3
13 4 17 30 18 18 0 69 6 113 13 106 17 113 18 120 6z"/>
</g>
<g id="part-4" class="char-part">
  <path d="M480 350 c-8 -16 -8 -20 3 -20 18 0 39 24 30 33 -11 12 -22 8 -33
-13z"/>
</g>
<g id="part-5" class="char-part">
  <path d="M595 140 c-23 -26 -18 -29 23 -18 28 7 32 11 22 23 -16 20 -23 19
-45 -5z m35 0 c0 -5 -5 -10 -11 -10 -5 0 -7 5 -4 10 3 6 8 10 11 10 2 0 4 -4
4 -10z"/>
  <path d="M500 116 c0 -14 152 -97 177 -97 46 1 92 7 99 13 5 6 -117 24 -143
21 -7 0 -10 4 -7 9 4 6 -2 7 -16 3 -17 -5 -21 -4 -15 6 5 8 4 11 0 7 -5 -5
-28 3 -52 17 -23 14 -43 24 -43 21z"/>
  <path d="M364 84 c-6 -3 -9 -15 -7 -28 3 -13 0 -27 -6 -30 -18 -11 -13 -26 9
-26 10 0 23 7 28 16 5 9 11 15 13 13 2 -1 18 5 34 14 17 9 25 16 19 17 -5 0
-19 -6 -29 -14 -26 -19 -55 -4 -48 24 6 21 5 21 -13 14z"/>
</g>
</g>
</svg>