<?xml version="1.0" standalone="no"?>
<!DOCTYPE svg PUBLIC "-//W3C//DTD SVG 20010904//EN"
 "http://www.w3.org/TR/2001/REC-SVG-20010904/DTD/svg10.dtd">
<svg version="1.0" xmlns="http://www.w3.org/2000/svg"
 width="96.000000pt" height="68.000000pt" viewBox="0 0 96.000000 68.000000"
 preserveAspectRatio="xMidYMid meet">
<metadata>
Created by potrace 1.16, written by Peter Selinger 2001-2019
Combined from part_0.svg through part_5.svg with named groups
</metadata>
<g transform="translate(0.000000,68.000000) scale(0.100000,-0.100000)" fill="#000000" stroke="none">
<g id="part-0" class="char-part">
  <path d="M495 590 c-27 -5 -77 -9 -110 -9 -49 -1 -57 -4 -44 -14 9 -7 19 -32
23 -57 10 -68 12 -69 86 -58 36 5 81 7 101 4 36 -6 37 -5 74 56 34 58 35 63
19 75 -19 14 -70 15 -149 3z m93 -31 c2 -13 -12 -18 -80 -25 -112 -11 -112
-11 -116 7 -3 14 11 19 80 27 102 12 112 11 116 -9z m-15 -59 c-3 -12 -14 -20
-28 -20 -12 0 -50 -3 -84 -6 -57 -6 -61 -6 -61 14 0 19 7 21 63 25 34 2 74 4
89 5 22 2 25 -1 21 -18z"/>
  <path d="M160 562 c0 -17 67 -72 88 -72 17 0 22 6 22 26 0 19 -8 28 -35 40
-38 15 -75 19 -75 6z"/>
  <path d="M546 442 c-3 -3 -6 -16 -6 -29 0 -12 -6 -23 -12 -23 -7 -1 -30 -3
-50 -6 -34 -5 -38 -3 -38 15 0 12 -4 21 -9 21 -5 0 -17 3 -27 7 -14 5 -16 2
-10 -20 5 -22 3 -27 -13 -27 -11 0 -23 -4 -26 -10 -4 -6 5 -10 19 -10 19 0 27
-7 32 -25 4 -14 4 -28 2 -31 -3 -2 -29 -7 -57 -11 -66 -8 -73 -19 -13 -22 25
-1 48 -4 50 -6 5 -5 -80 -89 -124 -123 -31 -24 -27 -25 21 -2 66 32 165 114
165 137 0 9 14 13 44 13 38 0 55 -8 127 -60 96 -69 112 -75 175 -65 56 8 48
18 -26 34 -58 12 -171 69 -178 89 -3 9 17 12 67 12 70 0 100 13 60 25 -12 4
-50 4 -86 0 -64 -7 -65 -6 -61 17 2 18 13 26 48 35 25 6 47 12 50 13 3 1 -5 5
-18 10 -12 5 -28 7 -36 4 -8 -3 -15 3 -18 14 -5 19 -41 35 -52 24z m-6 -97 c0
-28 -9 -34 -60 -37 -31 -3 -35 0 -38 24 -3 22 1 27 25 31 67 10 73 8 73 -18z"/>
  <path d="M130 385 c38 -39 67 -52 82 -37 28 28 -23 72 -84 72 l-32 0 34 -35z"/>
  <path d="M210 270 c-29 -39 -65 -77 -81 -86 -20 -10 -29 -22 -29 -38 0 -29 33
-72 47 -63 6 4 25 35 42 70 16 34 41 80 54 102 62 103 40 113 -33 15z"/>
  <path d="M475 158 l0 -93 -29 2 -29 2 28 -29 c56 -59 75 -32 75 109 0 98 -1
101 -23 101 -22 0 -22 -3 -22 -92z"/>
  <path d="M571 194 c-31 -39 -26 -44 19 -22 33 16 38 23 29 34 -16 20 -25 18
-48 -12z"/>
  <path d="M390 175 c0 -12 28 -35 44 -35 14 0 4 30 -13 40 -26 13 -31 13 -31
-5z"/>
  <path d="M605 96 c57 -51 118 -47 63 4 -12 11 -29 20 -37 20 -9 0 -27 3 -41 6
-22 5 -20 1 15 -30z"/>
  <path d="M373 102 c-30 -8 -53 -21 -53 -28 0 -26 46 -13 99 27 27 22 24 22
-46 1z"/>
</g>
<g id="part-1" class="char-part">
  <path d="M176 545 c8 -20 71 -58 84 -50 30 19 -13 65 -62 65 -20 0 -26 -4 -22
-15z"/>
  <path d="M110 411 c0 -15 60 -61 81 -61 34 0 23 39 -16 56 -39 16 -65 18 -65
5z"/>
  <path d="M236 294 c-16 -22 -54 -62 -84 -91 -53 -51 -54 -53 -42 -83 7 -16 18
-30 26 -30 7 0 28 28 47 63 18 34 46 83 61 109 35 61 29 83 -8 32z"/>
</g>
<g id="part-2" class="char-part">
  <path d="M495 590 c-27 -5 -77 -9 -109 -9 -56 -1 -58 -2 -43 -19 9 -10 19 -36
23 -58 9 -62 11 -63 84 -52 36 5 82 7 102 5 36 -5 38 -3 73 56 34 57 35 62 19
74 -19 14 -70 15 -149 3z m90 -30 c0 -11 -23 -17 -90 -26 -93 -13 -105 -12
-105 10 0 9 25 17 78 24 97 12 117 11 117 -8z m-12 -60 c-4 -16 -15 -20 -54
-22 -106 -4 -114 -3 -114 12 0 11 16 17 60 21 115 11 114 11 108 -11z"/>
</g>
<g id="part-3" class="char-part">
  <path d="M540 425 c0 -27 -4 -30 -62 -40 -33 -5 -38 -3 -38 13 0 19 -18 32
-42 32 -6 0 -8 -11 -6 -25 4 -21 1 -25 -18 -25 -13 0 -24 -4 -24 -10 0 -5 11
-10 24 -10 23 0 36 -16 36 -45 0 -10 -19 -16 -60 -21 -87 -10 -65 -28 24 -20
39 4 135 12 213 19 78 7 144 15 148 19 13 13 -39 20 -101 13 -41 -4 -64 -3
-64 3 0 28 16 43 51 48 50 8 58 20 18 29 -17 4 -40 16 -50 26 -27 27 -49 24
-49 -6z m-2 -82 c-3 -26 -7 -28 -50 -31 -45 -3 -48 -2 -48 22 0 21 5 25 38 29
20 2 43 4 50 5 9 1 12 -7 10 -25z"/>
</g>
<g id="part-4" class="char-part">
  <path d="M476 218 c9 -40 8 -133 -1 -149 -4 -6 -18 -8 -34 -4 l-26 7 29 -31
c57 -60 76 -33 76 108 l0 101 -26 0 c-24 0 -25 -2 -18 -32z"/>
  <path d="M570 190 c-25 -34 -21 -36 23 -14 43 22 44 24 27 34 -22 14 -27 13
-50 -20z"/>
  <path d="M386 175 c7 -18 43 -39 52 -30 11 10 -14 40 -36 43 -17 3 -20 -1 -16
-13z"/>
  <path d="M595 106 c39 -34 81 -57 89 -49 23 23 -16 54 -84 68 l-35 7 30 -26z"/>
  <path d="M390 105 c-19 -7 -45 -14 -58 -14 -14 -1 -22 -6 -20 -13 8 -23 46
-20 87 7 59 37 55 45 -9 20z"/>
</g>
</g>
</svg>