<?xml version="1.0" standalone="no"?>
<!DOCTYPE svg PUBLIC "-//W3C//DTD SVG 20010904//EN"
 "http://www.w3.org/TR/2001/REC-SVG-20010904/DTD/svg10.dtd">
<svg version="1.0" xmlns="http://www.w3.org/2000/svg"
 width="96.000000pt" height="68.000000pt" viewBox="0 0 96.000000 68.000000"
 preserveAspectRatio="xMidYMid meet">
<metadata>
Created by potrace 1.16, written by Peter Selinger 2001-2019
Combined from part_0.svg through part_5.svg with named groups
</metadata>
<g transform="translate(0.000000,68.000000) scale(0.100000,-0.100000)" fill="#000000" stroke="none">
<g id="part-0" class="char-part">
  <path d="M390 574 c-73 -58 -117 -77 -165 -70 -24 3 -45 3 -48 0 -3 -3 5 -24
18 -47 13 -24 28 -77 35 -126 13 -96 11 -101 -57 -101 -48 0 -55 -10 -19 -30
29 -15 52 -12 226 35 141 38 193 63 108 51 -55 -8 -54 -10 -34 74 10 44 17 56
37 61 22 6 22 7 5 14 -11 5 -52 2 -95 -5 -42 -8 -89 -14 -106 -14 -27 -1 -30
3 -33 32 -3 27 0 32 18 32 12 0 56 14 98 31 42 17 87 35 100 40 28 11 28 24 0
43 -31 22 -37 21 -88 -20z m10 -238 c0 -36 -4 -67 -9 -70 -5 -4 -30 -9 -55
-12 -50 -7 -49 -9 -60 86 -5 45 -5 46 26 48 18 2 34 5 37 7 2 3 17 5 33 5 28
0 28 0 28 -64z"/>
  <path d="M695 555 c-16 -8 -52 -14 -80 -15 l-50 0 3 -252 c2 -139 5 -254 8
-257 19 -19 27 40 34 248 4 128 10 234 13 237 2 3 30 8 60 11 l55 6 -21 -60
c-20 -58 -20 -61 -3 -78 25 -26 43 -56 50 -89 l7 -29 -49 5 -49 5 50 -34 c58
-39 78 -39 91 -1 16 44 -8 104 -54 136 -22 15 -39 32 -40 37 0 6 20 33 45 60
24 28 45 53 45 57 0 12 -37 28 -62 27 -13 0 -36 -7 -53 -14z"/>
</g>
<g id="part-1" class="char-part">
  <path d="M405 581 c-11 -11 -46 -36 -79 -55 -51 -31 -64 -34 -102 -29 -50 6
-52 3 -24 -35 12 -17 24 -61 32 -122 11 -76 17 -95 31 -98 13 -3 17 3 17 25 0
30 -14 126 -26 181 -6 28 -4 32 15 32 20 0 205 71 218 83 10 11 -18 37 -41 37
-12 0 -30 -9 -41 -19z"/>
</g>
<g id="part-2" class="char-part">
  <path d="M348 423 c-102 -18 -110 -39 -11 -28 l64 7 -3 -69 -3 -68 -95 -17
c-52 -9 -112 -17 -132 -17 -45 -1 -49 -15 -10 -35 27 -14 39 -12 167 24 76 22
153 43 172 46 52 10 40 27 -13 19 -45 -6 -46 -6 -41 17 3 13 9 42 13 66 6 37
11 44 36 49 21 4 26 8 16 14 -18 12 -56 9 -160 -8z"/>
</g>
<g id="part-3" class="char-part">
  <path d="M678 552 c-62 -20 -61 -33 2 -25 56 6 58 4 35 -50 -8 -20 -15 -42
-15 -48 0 -15 41 22 83 75 29 37 30 39 12 52 -23 17 -55 16 -117 -4z"/>
</g>
<g id="part-4" class="char-part">
  <path d="M568 291 c2 -141 5 -258 8 -261 21 -20 31 74 37 337 l4 171 -26 4
-26 4 3 -255z"/>
</g>
</g>
</svg>