<?xml version="1.0" standalone="no"?>
<!DOCTYPE svg PUBLIC "-//W3C//DTD SVG 20010904//EN"
 "http://www.w3.org/TR/2001/REC-SVG-20010904/DTD/svg10.dtd">
<svg version="1.0" xmlns="http://www.w3.org/2000/svg"
 width="96.000000pt" height="68.000000pt" viewBox="0 0 96.000000 68.000000"
 preserveAspectRatio="xMidYMid meet">
<metadata>
Created by potrace 1.16, written by Peter Selinger 2001-2019
Combined from part_0.svg through part_5.svg with named groups
</metadata>
<g transform="translate(0.000000,68.000000) scale(0.100000,-0.100000)" fill="#000000" stroke="none">
<g id="part-0" class="char-part">
  <path d="M645 544 c-38 -7 -106 -15 -150 -17 -44 -3 -82 -6 -85 -6 -2 -1 1 -6
8 -13 7 -7 12 -43 12 -90 l0 -78 -30 0 c-16 0 -30 -4 -30 -9 0 -5 14 -11 30
-14 34 -7 35 -12 20 -105 -11 -68 -7 -102 14 -102 13 0 26 86 26 173 0 36 1
37 36 37 l37 0 -6 -84 c-6 -67 -4 -86 8 -96 20 -17 24 -4 27 100 3 83 4 85 28
85 25 0 25 -1 25 -90 0 -77 2 -90 17 -93 15 -3 18 8 20 95 l3 98 38 3 37 3 0
-90 c0 -107 -4 -121 -38 -121 l-26 0 29 -30 c34 -36 46 -37 65 -7 11 16 14 50
12 134 l-2 113 40 6 c46 8 45 19 -5 28 -39 8 -39 10 -26 104 7 47 5 55 -13 68
-23 16 -26 16 -121 -2z m83 -96 l3 -78 -41 0 c-39 0 -40 1 -40 34 0 18 3 54 6
80 7 45 8 47 38 44 l31 -3 3 -77z m-118 70 c1 -2 3 -38 7 -80 l5 -78 -31 0
c-30 0 -31 1 -31 49 0 76 10 111 31 111 11 0 19 -1 19 -2z m-90 -34 c6 -14 10
-50 10 -80 0 -47 -3 -54 -19 -54 -11 0 -27 -3 -36 -6 -15 -6 -17 1 -14 67 1
41 7 80 12 87 15 20 37 14 47 -14z"/>
  <path d="M280 514 c-25 -7 -69 -14 -97 -14 -52 0 -53 0 -34 -19 11 -11 25 -39
32 -63 17 -58 28 -72 46 -57 25 22 34 -5 31 -97 -3 -88 -3 -89 -30 -92 -27 -3
-27 -3 -30 65 -3 63 -5 68 -27 71 -20 3 -23 0 -18 -20 3 -12 9 -47 13 -76 l7
-52 -43 0 c-38 0 -41 -2 -29 -16 23 -28 51 -32 99 -13 25 10 78 28 118 39 40
12 70 25 67 30 -3 5 -11 7 -18 5 -7 -2 -24 -6 -39 -9 -27 -6 -28 -5 -28 39 0
43 1 45 29 45 17 0 33 5 37 11 4 7 -5 10 -27 7 -33 -3 -34 -2 -34 32 0 19 -4
38 -8 41 -5 3 10 9 33 13 35 5 40 9 30 21 -10 12 -8 22 9 50 27 46 26 49 -4
63 -31 14 -28 14 -85 -4z m34 -56 c-11 -60 -76 -82 -94 -32 -20 51 -14 56 77
62 20 2 22 -1 17 -30z"/>
</g>
<g id="part-1" class="char-part">
  <path d="M255 504 c-27 -8 -65 -12 -83 -9 l-33 6 20 -28 c11 -15 25 -48 31
-71 9 -35 15 -42 28 -37 20 8 36 11 95 20 37 6 44 10 40 25 -3 10 3 32 13 48
35 60 -3 76 -111 46z m65 -31 c0 -34 -12 -62 -29 -67 -9 -2 -26 -7 -39 -11
-19 -5 -25 -1 -37 29 -8 19 -15 40 -15 45 0 11 28 18 83 20 29 1 37 -3 37 -16z"/>
</g>
<g id="part-2" class="char-part">
  <path d="M305 189 c-38 -10 -103 -21 -142 -25 -40 -4 -73 -11 -73 -15 0 -5 12
-15 28 -22 25 -13 37 -11 150 25 67 22 122 44 122 49 0 11 0 11 -85 -12z"/>
</g>
<g id="part-3" class="char-part">
  <path d="M640 544 c-36 -7 -101 -15 -145 -17 -62 -4 -79 -8 -75 -18 10 -31 11
-219 0 -290 -6 -42 -8 -83 -4 -92 8 -22 34 -22 35 1 5 154 17 363 21 367 9 9
111 24 183 27 l70 3 0 -195 0 -195 -29 -3 -28 -4 28 -29 c63 -66 76 -33 79
205 1 105 5 200 9 212 6 16 2 23 -19 32 -31 14 -39 14 -125 -4z"/>
</g>
<g id="part-4" class="char-part">
  <path d="M618 442 c4 -66 2 -80 -12 -85 -38 -15 -48 2 -44 77 3 66 1 71 -18
74 -20 3 -21 0 -16 -76 l4 -79 -28 -5 c-16 -3 -51 -6 -79 -7 -27 -1 -54 -6
-58 -10 -13 -13 74 -21 116 -11 48 10 52 3 44 -95 -5 -54 -3 -76 7 -84 22 -18
26 -2 26 95 0 89 1 92 25 96 22 5 25 1 31 -39 3 -24 4 -61 0 -83 -7 -44 0 -70
20 -70 10 0 14 23 16 98 l3 97 55 2 c95 5 143 14 132 25 -11 11 -62 14 -137 8
l-50 -4 1 77 c1 73 0 77 -21 77 -21 0 -22 -3 -17 -78z"/>
</g>
</g>
</svg>