<?xml version="1.0" standalone="no"?>
<!DOCTYPE svg PUBLIC "-//W3C//DTD SVG 20010904//EN"
 "http://www.w3.org/TR/2001/REC-SVG-20010904/DTD/svg10.dtd">
<svg version="1.0" xmlns="http://www.w3.org/2000/svg"
 width="96.000000pt" height="68.000000pt" viewBox="0 0 96.000000 68.000000"
 preserveAspectRatio="xMidYMid meet">
<metadata>
Created by potrace 1.16, written by Peter Selinger 2001-2019
Combined from part_0.svg through part_5.svg with named groups
</metadata>
<g transform="translate(0.000000,68.000000) scale(0.100000,-0.100000)" fill="#000000" stroke="none">
<g id="part-0" class="char-part">
  <path d="M590 590 c-112 -16 -340 -31 -376 -24 -35 6 -37 6 -31 -17 16 -66 18
-119 8 -295 -7 -105 -9 -198 -5 -207 7 -18 40 -23 46 -8 1 5 93 15 203 22
l199 12 27 -32 c29 -35 53 -34 66 2 4 12 7 136 7 275 l1 252 -32 15 c-34 16
-33 16 -113 5z m72 -85 c4 -22 7 -123 7 -224 l1 -183 -22 6 c-13 3 -36 6 -52
6 -25 0 -27 2 -15 16 11 14 10 19 -10 35 -13 11 -29 19 -36 19 -7 0 -22 3 -32
6 -11 4 -3 -9 20 -33 l38 -40 -38 -6 c-21 -3 -93 -9 -160 -13 l-123 -7 0 94
c0 52 3 151 7 220 l6 126 111 10 c61 6 151 10 201 9 l90 -1 7 -40z"/>
  <path d="M415 509 c-27 -5 -61 -7 -75 -4 -14 3 -20 2 -13 -2 6 -5 19 -27 28
-50 14 -35 21 -42 39 -38 11 2 47 7 79 10 31 4 55 10 52 14 -2 5 4 16 15 26
53 48 1 66 -125 44z m80 -19 c12 -19 -15 -39 -62 -46 -45 -7 -68 5 -60 31 7
21 111 33 122 15z"/>
  <path d="M415 389 c-33 -5 -67 -8 -75 -6 -13 3 -15 -12 -15 -92 l0 -96 28 3
c15 1 27 -1 27 -6 0 -11 -61 -67 -81 -75 -11 -4 -11 -6 0 -6 17 -1 131 59 131
70 0 4 -8 13 -17 18 -14 8 0 10 53 11 41 0 75 -5 82 -12 21 -21 30 4 33 102
l4 95 -55 1 c-30 1 -82 -2 -115 -7z m125 -29 c0 -17 -6 -20 -32 -19 -18 1 -59
-2 -90 -6 -49 -7 -58 -5 -58 8 0 16 68 33 143 36 31 1 37 -2 37 -19z m0 -54
c0 -19 -4 -22 -22 -19 -13 2 -48 0 -78 -5 -62 -9 -80 -7 -80 12 0 12 28 17
168 34 6 1 12 -9 12 -22z m0 -53 c0 -15 -11 -19 -63 -21 -34 -2 -73 -5 -87 -5
-15 -1 -26 4 -28 14 -2 13 8 16 55 18 31 1 59 4 62 6 2 3 17 5 33 5 20 0 28
-5 28 -17z"/>
</g>
<g id="part-1" class="char-part">
  <path d="M550 580 c-30 -4 -126 -11 -212 -15 -154 -8 -157 -8 -146 -28 7 -14
8 -83 4 -221 -4 -111 -8 -216 -9 -234 -1 -43 19 -64 37 -40 11 14 29 18 87 18
41 0 130 5 199 10 l125 9 25 -29 c14 -17 30 -30 37 -30 30 0 35 43 32 259 -2
119 0 230 4 248 8 29 6 33 -22 47 -32 17 -70 18 -161 6z m111 -47 c15 -39 25
-443 11 -443 -6 0 -21 4 -34 9 -15 5 -95 4 -208 -5 -101 -7 -186 -11 -189 -9
-5 5 -2 438 3 443 5 4 288 29 349 31 54 1 58 -1 68 -26z"/>
</g>
<g id="part-2" class="char-part">
  <path d="M420 509 c-25 -4 -58 -5 -75 -2 -29 5 -29 5 -14 -13 9 -11 21 -32 26
-49 11 -33 8 -32 116 -20 32 4 56 9 53 13 -4 3 5 18 20 33 26 27 26 27 6 38
-23 12 -65 12 -132 0z m75 -19 c12 -19 -15 -39 -61 -46 -50 -7 -49 -8 -58 23
-6 18 -2 22 21 26 55 8 92 7 98 -3z"/>
</g>
<g id="part-3" class="char-part">
  <path d="M455 393 c-44 -8 -91 -11 -105 -9 -25 4 -25 4 -25 -70 0 -62 3 -74
17 -74 9 0 18 5 20 10 2 6 49 11 110 13 l106 2 6 58 c4 31 5 61 2 66 -10 16
-50 17 -131 4z m85 -33 c0 -15 -6 -19 -27 -18 -16 1 -56 -2 -90 -7 -53 -6 -63
-5 -63 8 0 16 66 34 138 36 35 1 42 -2 42 -19z m0 -49 c0 -16 -11 -20 -77 -27
-43 -4 -82 -8 -88 -9 -5 0 -11 7 -13 16 -3 15 9 18 166 37 6 1 12 -6 12 -17z"/>
</g>
<g id="part-4" class="char-part">
  <path d="M342 153 c-23 -23 -40 -43 -36 -43 13 0 124 63 124 70 0 8 -27 21
-38 18 -4 0 -26 -21 -50 -45z"/>
  <path d="M522 155 c24 -25 42 -36 53 -32 22 9 4 43 -27 52 -63 18 -64 18 -26
-20z"/>
</g>
</g>
</svg>