<?xml version="1.0" standalone="no"?>
<!DOCTYPE svg PUBLIC "-//W3C//DTD SVG 20010904//EN"
 "http://www.w3.org/TR/2001/REC-SVG-20010904/DTD/svg10.dtd">
<svg version="1.0" xmlns="http://www.w3.org/2000/svg"
 width="96.000000pt" height="68.000000pt" viewBox="0 0 96.000000 68.000000"
 preserveAspectRatio="xMidYMid meet">
<metadata>
Created by potrace 1.16, written by Peter Selinger 2001-2019
Combined from part_0.svg through part_5.svg with named groups
</metadata>
<g transform="translate(0.000000,68.000000) scale(0.100000,-0.100000)" fill="#000000" stroke="none">
<g id="part-0" class="char-part">
  <path d="M400 622 c0 -6 5 -14 10 -17 6 -3 10 -39 10 -78 l0 -72 -51 -2 c-44
-1 -50 1 -44 15 17 40 15 48 -8 61 -33 17 -43 10 -49 -36 -5 -31 -22 -79 -46
-125 -10 -21 21 -4 52 27 29 28 43 35 75 35 22 0 46 3 55 6 13 5 16 -2 16 -44
l0 -50 -135 -12 c-74 -7 -135 -17 -135 -22 0 -21 50 -27 105 -13 72 19 85 19
85 -2 0 -49 -111 -172 -190 -210 -19 -9 -30 -18 -23 -20 6 -2 40 9 75 25 64
30 131 88 175 154 21 31 23 40 13 53 -16 20 -13 22 35 27 l40 3 5 -106 c5
-114 11 -129 64 -156 49 -26 188 -23 249 4 26 12 47 25 47 29 0 15 -35 104
-41 104 -4 0 -9 -13 -12 -28 -12 -58 -34 -72 -127 -79 -74 -5 -88 -3 -108 14
-33 26 -41 100 -17 153 15 32 15 42 5 55 -11 13 -1 15 89 15 103 0 122 7 74
29 -25 11 -55 11 -180 -5 l-43 -5 0 50 0 50 48 6 c26 3 60 9 76 12 54 10 0 26
-65 19 -66 -6 -67 -6 -49 69 7 29 6 43 -3 52 -17 17 -77 29 -77 15z"/>
</g>
<g id="part-1" class="char-part">
  <path d="M270 496 c0 -19 -9 -55 -20 -81 -11 -26 -20 -49 -20 -52 0 -13 43 34
76 84 39 59 35 83 -12 83 -21 0 -24 -5 -24 -34z"/>
</g>
<g id="part-2" class="char-part">
  <path d="M406 613 c4 -10 10 -48 12 -84 l4 -66 -32 -7 c-18 -3 -43 -6 -56 -6
-12 0 -26 -5 -30 -11 -5 -8 11 -10 55 -7 l61 4 0 -46 0 -47 -135 -13 c-74 -7
-135 -17 -135 -21 0 -21 43 -31 85 -20 39 10 231 41 244 39 42 -4 241 4 241
11 0 23 -57 32 -145 21 -50 -5 -93 -10 -97 -10 -5 0 -8 22 -8 49 l0 50 48 6
c83 11 104 17 95 26 -12 12 -60 13 -107 4 l-39 -8 6 34 c3 19 9 49 13 66 6 29
3 34 -20 43 -44 16 -70 13 -60 -7z"/>
</g>
<g id="part-3" class="char-part">
  <path d="M332 271 c-16 -52 -81 -123 -154 -168 -79 -49 -56 -55 37 -9 55 27
84 50 120 93 61 74 74 101 54 114 -29 18 -46 9 -57 -30z"/>
</g>
<g id="part-4" class="char-part">
  <path d="M470 222 c0 -108 9 -130 63 -159 49 -25 194 -21 252 7 48 23 51 29
33 63 -6 12 -14 36 -18 52 l-7 30 -11 -41 c-19 -64 -40 -77 -137 -82 -79 -4
-85 -3 -109 21 -31 31 -35 87 -11 144 20 47 13 63 -25 63 l-30 0 0 -98z"/>
</g>
</g>
</svg>