<?xml version="1.0" standalone="no"?>
<!DOCTYPE svg PUBLIC "-//W3C//DTD SVG 20010904//EN"
 "http://www.w3.org/TR/2001/REC-SVG-20010904/DTD/svg10.dtd">
<svg version="1.0" xmlns="http://www.w3.org/2000/svg"
 width="96.000000pt" height="68.000000pt" viewBox="0 0 96.000000 68.000000"
 preserveAspectRatio="xMidYMid meet">
<metadata>
Created by potrace 1.16, written by Peter Selinger 2001-2019
Combined from part_0.svg through part_5.svg with named groups
</metadata>
<g transform="translate(0.000000,68.000000) scale(0.100000,-0.100000)" fill="#000000" stroke="none">
<g id="part-0" class="char-part">
  <path d="M308 556 c-38 -36 -52 -42 -75 -38 -24 4 -26 3 -16 -10 7 -8 20 -47
29 -87 l16 -71 36 6 c20 4 87 7 149 8 l113 1 27 65 c15 36 31 71 37 79 7 10 5
17 -9 28 -16 11 -37 13 -95 9 -41 -3 -79 -11 -85 -17 -7 -8 8 -9 56 -4 l66 6
-4 -25 c-4 -21 -12 -26 -52 -32 -75 -11 -85 -25 -14 -21 l62 3 -6 -25 c-3 -14
-8 -29 -12 -32 -3 -4 -58 -9 -123 -12 -99 -5 -117 -4 -122 9 -13 34 -6 44 28
44 65 0 75 15 13 20 -31 3 -57 9 -56 14 0 5 -5 13 -13 17 -10 7 -9 9 5 9 35 0
147 54 147 71 0 16 -20 29 -43 29 -7 -1 -33 -20 -59 -44z"/>
  <path d="M540 338 c0 -2 7 -38 15 -82 27 -139 62 -190 159 -230 43 -18 55 -19
73 -8 9 6 8 22 -6 67 l-19 60 -7 -33 c-10 -45 -28 -49 -75 -17 -52 36 -80 95
-80 168 0 45 -4 58 -19 67 -18 9 -41 14 -41 8z"/>
  <path d="M207 220 c1 -59 -3 -111 -9 -126 -9 -20 -9 -28 4 -41 15 -14 20 -12
65 23 65 52 72 58 50 50 -62 -21 -67 -20 -67 16 0 26 4 35 18 35 59 -1 92 4
92 14 0 7 -18 8 -55 4 -54 -7 -55 -7 -55 19 0 24 4 26 39 26 22 0 42 4 45 9 9
14 -16 19 -42 9 -28 -10 -44 -2 -40 20 4 23 -10 42 -30 42 -15 0 -17 -12 -15
-100z"/>
  <path d="M375 191 c0 -71 3 -132 7 -136 4 -4 35 11 70 34 34 22 67 43 73 45 5
2 7 6 4 10 -3 4 -27 -3 -53 -14 -27 -11 -52 -18 -57 -14 -5 3 -9 21 -9 40 0
33 1 34 43 34 23 0 49 5 57 11 11 8 1 9 -37 6 -52 -4 -53 -4 -53 23 0 25 4 28
53 34 42 6 49 9 34 17 -12 7 -28 7 -49 0 -39 -14 -36 -15 -40 12 -2 13 -11 23
-23 25 -19 3 -20 -3 -20 -127z"/>
</g>
<g id="part-1" class="char-part">
  <path d="M310 550 c-30 -28 -52 -50 -48 -50 11 0 132 53 143 62 9 9 -19 39
-34 38 -3 -1 -31 -23 -61 -50z"/>
</g>
<g id="part-2" class="char-part">
  <path d="M493 546 c-82 -12 -84 -31 -3 -22 59 7 60 6 60 -17 0 -19 -7 -26 -31
-31 -17 -3 -42 -6 -55 -6 -12 0 -26 -5 -29 -11 -5 -7 10 -10 46 -9 30 1 57 1
61 1 4 -1 2 -14 -3 -30 -10 -28 -12 -29 -82 -30 -40 0 -92 -3 -116 -7 -45 -7
-61 3 -61 39 0 14 9 17 44 17 25 0 48 5 51 11 5 7 -10 10 -46 8 -51 -3 -54 -2
-58 21 -4 29 -17 40 -49 40 -21 0 -22 -2 -9 -15 8 -8 22 -46 32 -85 17 -69 18
-71 44 -65 15 3 83 7 151 9 119 4 125 5 134 28 5 12 20 47 33 77 13 30 20 58
15 63 -17 17 -69 23 -129 14z"/>
</g>
<g id="part-3" class="char-part">
  <path d="M208 247 c2 -41 -1 -98 -7 -127 -10 -45 -9 -56 3 -68 13 -13 22 -9
78 33 61 46 61 48 -11 29 l-23 -7 3 94 c4 99 -1 119 -30 119 -16 0 -17 -8 -13
-73z"/>
</g>
<g id="part-4" class="char-part">
  <path d="M285 255 l-40 -13 40 -1 c44 -1 77 12 53 21 -7 3 -31 -1 -53 -7z"/>
  <path d="M283 193 c-18 -2 -33 -9 -33 -15 0 -6 12 -8 31 -4 17 3 42 6 55 6 13
0 24 5 24 10 0 10 -15 10 -77 3z"/>
</g>
<g id="part-5" class="char-part">
  <path d="M554 323 c13 -3 15 -7 7 -12 -9 -6 -9 -19 -1 -52 6 -24 12 -51 15
-61 2 -9 10 -29 19 -46 8 -16 13 -32 11 -34 -9 -9 60 -65 74 -60 9 3 11 0 6
-8 -6 -10 -4 -12 8 -7 10 3 17 2 17 -3 0 -6 12 -10 26 -10 14 0 23 -4 19 -10
-7 -12 -3 -12 19 -4 9 3 16 13 16 21 0 8 -4 12 -9 9 -5 -3 -9 0 -8 7 1 44 -4
71 -12 58 -5 -7 -7 -21 -4 -30 5 -19 -33 -26 -54 -10 -6 6 -18 7 -24 3 -7 -4
-10 -3 -7 2 2 5 -7 20 -20 33 -16 15 -23 18 -19 7 4 -9 4 -16 1 -16 -8 0 -27
54 -31 90 -2 19 -9 38 -16 42 -9 6 -9 8 1 8 7 0 12 13 12 31 0 25 -3 30 -17
25 -17 -6 -17 -5 0 8 16 12 16 14 1 20 -8 3 -23 5 -32 5 -14 -1 -13 -2 2 -6z"/>
</g>
</g>
</svg>