<?xml version="1.0" standalone="no"?>
<!DOCTYPE svg PUBLIC "-//W3C//DTD SVG 20010904//EN"
 "http://www.w3.org/TR/2001/REC-SVG-20010904/DTD/svg10.dtd">
<svg version="1.0" xmlns="http://www.w3.org/2000/svg"
 width="96.000000pt" height="68.000000pt" viewBox="0 0 96.000000 68.000000"
 preserveAspectRatio="xMidYMid meet">
<metadata>
Created by potrace 1.16, written by Peter Selinger 2001-2019
Combined from part_0.svg through part_5.svg with named groups
</metadata>
<g transform="translate(0.000000,68.000000) scale(0.100000,-0.100000)" fill="#000000" stroke="none">
<g id="part-0" class="char-part">
  <path d="M500 581 c0 -4 9 -20 20 -34 11 -14 17 -28 13 -30 -5 -3 -36 -8 -70
-12 -35 -4 -60 -11 -57 -16 3 -5 13 -9 22 -9 18 -1 56 -66 47 -81 -4 -5 -35
-9 -71 -9 -41 0 -64 -4 -64 -11 0 -9 53 -10 203 -5 216 7 277 13 277 27 0 16
-52 22 -138 15 l-87 -7 23 23 c24 27 29 54 10 61 -7 2 4 8 25 12 58 11 44 27
-20 23 -50 -3 -58 -1 -55 14 1 9 -8 24 -20 32 -24 17 -58 21 -58 7z m90 -121
c0 -35 -23 -60 -56 -60 -17 0 -24 6 -24 20 0 10 -10 28 -22 39 -24 23 -17 28
47 33 52 4 55 2 55 -32z"/>
  <path d="M230 490 c-14 -4 -47 -8 -74 -9 -42 -1 -47 -3 -40 -18 5 -10 9 -89
10 -175 0 -87 3 -161 7 -164 4 -4 13 -2 20 5 8 6 34 14 59 17 40 6 46 4 51
-15 6 -24 29 -28 45 -8 7 8 13 83 15 185 4 159 3 173 -14 182 -20 11 -43 11
-79 0z m40 -70 c0 -35 -3 -40 -22 -40 -13 0 -33 -3 -45 -6 -21 -6 -23 -3 -23
34 0 44 7 50 58 51 31 1 32 0 32 -39z m0 -105 c0 -31 -3 -35 -27 -35 -16 0
-38 -3 -51 -6 -22 -6 -23 -4 -20 27 2 29 8 35 33 40 61 13 65 12 65 -26z m8
-103 l3 -39 -61 0 c-55 -1 -60 1 -60 21 0 40 20 52 86 55 28 1 30 -1 32 -37z"/>
  <path d="M605 340 c-22 -5 -79 -10 -127 -11 -49 -2 -88 -5 -88 -7 0 -1 6 -13
14 -25 12 -19 27 -77 30 -112 1 -6 22 -9 49 -7 46 4 48 3 45 -20 -2 -19 -11
-24 -45 -29 -61 -8 -62 -16 -3 -24 39 -5 50 -11 48 -23 -4 -21 -38 -30 -121
-31 -50 -1 -68 -4 -64 -13 4 -14 12 -14 255 -3 89 5 162 11 162 16 0 13 -32
19 -111 19 -75 0 -79 1 -79 23 0 20 6 22 52 25 29 2 55 5 57 8 11 11 -13 17
-59 16 -47 -1 -50 1 -50 24 0 25 2 26 52 22 57 -3 51 -9 97 90 l19 44 -34 14
c-36 15 -40 15 -99 4z m59 -36 c10 -27 7 -29 -39 -26 -36 3 -45 8 -45 23 0 15
7 19 39 19 26 0 41 -5 45 -16z m-136 -16 c-2 -18 -11 -24 -37 -26 -33 -3 -51
9 -51 36 0 8 16 12 46 12 41 0 45 -2 42 -22z m132 -37 c0 -29 -14 -41 -49 -41
-29 0 -37 4 -38 19 -1 16 6 21 35 24 20 2 40 4 45 5 4 1 7 -2 7 -7z m-132 -28
c-2 -12 -14 -19 -36 -21 -27 -3 -32 0 -32 17 0 17 6 21 36 21 28 0 35 -3 32
-17z"/>
</g>
<g id="part-1" class="char-part">
  <path d="M220 483 c-30 -7 -65 -11 -78 -8 -20 5 -22 3 -15 -22 5 -16 8 -74 7
-130 -1 -94 1 -103 18 -103 10 0 18 7 18 15 0 11 11 15 39 15 22 0 46 3 55 6
11 4 16 1 16 -10 0 -9 8 -16 19 -16 18 0 20 10 23 118 2 64 0 122 -5 128 -13
19 -39 21 -97 7z m55 -67 c0 -36 -2 -39 -30 -41 -17 -1 -41 -6 -53 -9 -20 -7
-22 -4 -22 37 0 51 7 57 65 54 39 -2 40 -3 40 -41z m5 -96 c0 -31 -4 -40 -17
-40 -10 0 -35 -3 -55 -6 l-38 -7 0 41 0 41 48 4 c26 2 50 4 55 5 4 1 7 -16 7
-38z"/>
</g>
<g id="part-2" class="char-part">
  <path d="M280 202 c0 -27 -1 -27 -60 -29 -57 -1 -60 0 -60 23 0 29 -26 32 -35
4 -7 -23 3 -80 14 -80 4 0 11 4 17 9 5 5 30 12 56 16 41 6 47 5 53 -14 3 -12
12 -21 19 -21 24 0 36 25 36 72 0 41 -3 48 -20 48 -15 0 -20 -7 -20 -28z"/>
</g>
<g id="part-3" class="char-part">
  <path d="M500 581 c0 -4 9 -20 21 -35 24 -30 22 -31 -65 -41 -41 -5 -55 -10
-48 -17 12 -12 235 6 276 22 19 7 20 9 3 15 -10 4 -38 5 -62 2 -39 -4 -45 -2
-45 14 0 10 -10 25 -22 33 -24 17 -58 21 -58 7z"/>
</g>
<g id="part-4" class="char-part">
  <path d="M597 493 c-4 -3 -7 -19 -7 -34 0 -46 -10 -59 -45 -59 -27 0 -34 5
-40 27 -7 28 -31 52 -53 53 -9 0 -6 -12 8 -40 24 -46 24 -48 8 -47 -66 2 -128
-5 -128 -15 0 -11 257 -6 413 8 58 6 65 9 55 22 -10 12 -30 13 -111 8 l-99 -7
21 27 c25 32 27 50 5 58 -19 7 -19 7 -27 -1z"/>
</g>
<g id="part-5" class="char-part">
  <path d="M540 165 c-10 -13 -9 -15 8 -15 15 0 20 5 16 15 -4 8 -7 15 -9 15 -1
0 -8 -7 -15 -15z"/>
  <path d="M505 124 c-16 -7 -21 -11 -9 -9 12 3 26 -1 33 -9 19 -23 -3 -54 -42
-59 -17 -2 -2 -4 36 -4 50 0 67 3 67 13 0 8 -5 13 -12 11 -7 -1 -12 3 -13 8 0
6 -4 17 -9 25 -5 8 -6 12 -1 8 4 -4 14 -1 22 7 9 9 26 13 46 9 25 -3 27 -2 12
5 -31 13 -96 11 -130 -5z m62 0 c-3 -3 -12 -4 -19 -1 -8 3 -5 6 6 6 11 1 17
-2 13 -5z"/>
  <path d="M623 55 c4 -12 127 -15 127 -3 0 4 -12 9 -27 9 -80 5 -103 3 -100 -6z"/>
  <path d="M363 35 c9 -8 23 -12 31 -9 25 10 19 20 -15 22 -28 2 -29 1 -16 -13z"/>
</g>
</g>
</svg>