<?xml version="1.0" standalone="no"?>
<!DOCTYPE svg PUBLIC "-//W3C//DTD SVG 20010904//EN"
 "http://www.w3.org/TR/2001/REC-SVG-20010904/DTD/svg10.dtd">
<svg version="1.0" xmlns="http://www.w3.org/2000/svg"
 width="96.000000pt" height="68.000000pt" viewBox="0 0 96.000000 68.000000"
 preserveAspectRatio="xMidYMid meet">
<metadata>
Created by potrace 1.16, written by Peter Selinger 2001-2019
Combined from part_0.svg through part_5.svg with named groups
</metadata>
<g transform="translate(0.000000,68.000000) scale(0.100000,-0.100000)" fill="#000000" stroke="none">
<g id="part-0" class="char-part">
  <path d="M215 559 c48 -58 87 -75 99 -42 10 25 -25 54 -75 60 l-44 6 20 -24z"/>
  <path d="M503 551 c-45 -9 -85 -19 -89 -23 -11 -12 124 -8 193 5 34 7 64 17
65 22 5 16 -80 14 -169 -4z"/>
  <path d="M560 451 c-69 -10 -151 -21 -182 -25 -86 -11 -75 -30 12 -22 69 6 70
6 70 -18 0 -13 -9 -35 -20 -49 -39 -49 -25 -61 50 -41 30 8 74 14 99 14 l44 0
-6 -60 c-7 -66 -29 -118 -54 -127 -9 -4 -30 -1 -46 5 -45 17 -45 7 -3 -37 26
-27 44 -37 55 -33 31 13 61 37 61 49 0 6 4 13 8 15 8 3 52 161 52 184 0 24
-51 34 -137 27 -91 -7 -93 -5 -55 39 8 10 12 24 9 33 -5 11 1 15 26 16 82 1
247 16 253 22 27 27 -79 30 -236 8z"/>
  <path d="M130 442 c0 -18 73 -72 97 -72 31 0 31 34 1 54 -29 17 -98 30 -98 18z"/>
  <path d="M271 296 c-24 -38 -105 -116 -121 -116 -13 0 -13 -33 2 -65 21 -46
41 -30 101 85 31 60 57 114 57 120 0 20 -19 9 -39 -24z"/>
</g>
<g id="part-1" class="char-part">
  <path d="M216 571 c-8 -13 51 -61 75 -61 33 0 23 36 -15 54 -39 18 -52 20 -60
7z"/>
  <path d="M165 410 c16 -16 37 -33 48 -36 21 -7 38 11 30 32 -5 14 -55 34 -86
34 -19 0 -18 -3 8 -30z"/>
  <path d="M290 310 c0 -5 -33 -43 -74 -83 l-74 -73 14 -33 c8 -18 19 -31 25
-29 16 5 133 228 119 228 -5 0 -10 -4 -10 -10z"/>
</g>
<g id="part-2" class="char-part">
  <path d="M545 559 c-44 -9 -92 -18 -107 -18 -16 -1 -28 -6 -28 -12 0 -15 175
-6 235 12 37 10 38 12 20 25 -22 16 -16 16 -120 -7z"/>
</g>
<g id="part-3" class="char-part">
  <path d="M518 445 c-97 -13 -184 -25 -195 -28 -17 -4 -17 -4 1 -12 12 -5 85
-2 175 8 86 10 183 17 216 17 59 0 96 12 82 26 -15 15 -111 12 -279 -11z"/>
</g>
<g id="part-4" class="char-part">
  <path d="M543 333 c-37 -3 -53 -8 -53 -18 0 -11 14 -13 72 -8 l71 6 -6 -61
c-7 -82 -33 -127 -73 -126 -16 1 -40 5 -54 10 -24 7 -23 5 10 -33 43 -51 75
-55 114 -14 24 25 44 79 73 197 6 28 -31 55 -72 52 -16 -1 -54 -3 -82 -5z"/>
</g>
</g>
</svg>