<?xml version="1.0" standalone="no"?>
<!DOCTYPE svg PUBLIC "-//W3C//DTD SVG 20010904//EN"
 "http://www.w3.org/TR/2001/REC-SVG-20010904/DTD/svg10.dtd">
<svg version="1.0" xmlns="http://www.w3.org/2000/svg"
 width="96.000000pt" height="68.000000pt" viewBox="0 0 96.000000 68.000000"
 preserveAspectRatio="xMidYMid meet">
<metadata>
Created by potrace 1.16, written by Peter Selinger 2001-2019
Combined from part_0.svg through part_5.svg with named groups
</metadata>
<g transform="translate(0.000000,68.000000) scale(0.100000,-0.100000)" fill="#000000" stroke="none">
<g id="part-0" class="char-part">
  <path d="M547 528 c10 -18 22 -36 27 -40 5 -3 -19 -8 -53 -10 -35 -1 -65 0
-68 5 -9 15 -19 6 -42 -37 -27 -49 -21 -78 10 -50 10 9 21 24 24 33 4 13 28
20 108 30 56 6 114 15 130 17 30 6 34 -4 16 -38 -11 -20 -9 -21 21 -14 18 3
43 6 56 6 35 0 31 32 -6 53 -25 15 -43 17 -99 11 -67 -6 -70 -6 -65 14 6 22
-28 52 -59 52 -18 0 -18 -1 0 -32z"/>
  <path d="M280 470 c-19 -4 -56 -11 -83 -15 -44 -6 -58 -25 -19 -25 34 0 43
-14 31 -48 -6 -18 -15 -32 -20 -32 -5 0 -8 -3 -7 -7 4 -10 -29 -64 -72 -120
-40 -53 -20 -57 37 -8 23 20 44 32 46 28 3 -5 8 -25 12 -46 4 -20 10 -39 14
-40 3 -2 33 -1 65 2 53 5 59 9 63 30 2 13 11 39 20 58 9 20 12 38 7 43 -13 13
-61 13 -107 2 -20 -6 -39 -6 -42 -2 -3 5 8 30 25 56 16 26 30 56 30 65 0 12
14 20 50 29 51 12 62 23 34 34 -19 7 -38 6 -84 -4z m40 -209 c0 -10 -3 -33 -6
-50 -6 -28 -10 -31 -44 -31 -34 0 -38 3 -44 31 -10 51 -7 57 22 62 61 9 72 7
72 -12z"/>
  <path d="M585 370 c-16 -4 -52 -8 -78 -9 -58 -1 -55 -21 3 -21 l39 0 3 -86 c2
-47 0 -88 -4 -91 -6 -3 -37 10 -77 35 -2 1 2 14 10 28 12 23 11 27 -5 40 -21
15 -46 3 -46 -23 0 -20 -28 -72 -62 -115 -40 -52 -21 -48 41 8 l51 46 62 -38
c35 -20 70 -43 78 -50 63 -52 138 -66 210 -39 40 15 44 13 -89 40 -114 23
-126 32 -126 85 l0 45 63 5 c34 3 62 10 62 15 1 14 -43 18 -84 6 l-36 -9 0 54
c0 52 1 54 28 54 39 0 73 11 66 21 -6 11 -66 10 -109 -1z"/>
</g>
<g id="part-1" class="char-part">
  <path d="M280 464 c-30 -7 -70 -13 -87 -14 -18 0 -33 -4 -33 -10 0 -5 14 -10
30 -10 25 0 30 -4 30 -23 0 -27 -61 -133 -108 -188 -19 -22 -30 -39 -26 -39
10 0 75 50 97 75 37 42 97 154 91 169 -5 12 1 16 22 16 37 0 74 10 74 20 0 15
-36 16 -90 4z"/>
</g>
<g id="part-2" class="char-part">
  <path d="M295 300 c-11 -5 -34 -9 -51 -9 -47 -1 -57 -19 -44 -77 16 -74 19
-79 32 -66 7 7 36 12 65 12 51 0 53 1 53 28 0 15 7 40 15 56 21 39 19 53 -7
60 -29 7 -38 7 -63 -4z m22 -61 c-6 -46 -19 -59 -58 -59 -22 0 -28 6 -33 31
-12 59 -8 62 73 68 22 1 23 -2 18 -40z"/>
</g>
<g id="part-3" class="char-part">
  <path d="M530 557 c0 -7 9 -23 20 -37 11 -14 20 -29 20 -33 0 -5 -32 -7 -71
-6 l-71 4 -20 -39 c-32 -63 -2 -89 33 -28 15 27 23 29 120 41 57 8 113 14 124
15 20 1 24 -13 10 -46 -6 -15 -2 -16 27 -8 18 4 45 11 60 14 33 8 29 25 -12
50 -25 14 -43 16 -98 11 l-68 -7 1 27 c0 23 -6 30 -37 41 -29 10 -38 10 -38 1z"/>
</g>
<g id="part-4" class="char-part">
  <path d="M585 369 c-22 -4 -59 -8 -82 -8 -26 -1 -43 -6 -43 -13 0 -8 26 -9 93
-4 116 8 154 16 135 27 -16 10 -48 10 -103 -2z"/>
</g>
<g id="part-5" class="char-part">
  <path d="M439 237 c-7 -17 -25 -51 -41 -74 -34 -51 -35 -59 -4 -30 13 12 23
26 22 31 -2 15 45 27 60 15 9 -7 14 -8 14 -1 0 5 -6 12 -14 15 -7 3 -13 17
-13 32 0 18 4 25 13 21 21 -8 17 2 -5 13 -16 9 -21 6 -32 -22z"/>
  <path d="M525 150 c3 -5 8 -10 11 -10 2 0 4 5 4 10 0 6 -5 10 -11 10 -5 0 -7
-4 -4 -10z"/>
  <path d="M571 127 c13 -12 48 -37 79 -55 48 -29 61 -33 100 -28 89 12 74 38
-25 40 -35 0 -59 3 -55 6 4 3 -21 17 -57 32 -62 25 -64 26 -42 5z m157 -56
c11 -6 10 -10 -4 -15 -9 -3 -19 -4 -22 -1 -3 3 1 5 9 5 11 0 11 2 -1 10 -8 5
-10 10 -5 10 6 0 16 -4 23 -9z"/>
</g>
</g>
</svg>