<?xml version="1.0" standalone="no"?>
<!DOCTYPE svg PUBLIC "-//W3C//DTD SVG 20010904//EN"
 "http://www.w3.org/TR/2001/REC-SVG-20010904/DTD/svg10.dtd">
<svg version="1.0" xmlns="http://www.w3.org/2000/svg"
 width="96.000000pt" height="68.000000pt" viewBox="0 0 96.000000 68.000000"
 preserveAspectRatio="xMidYMid meet">
<metadata>
Created by potrace 1.16, written by Peter Selinger 2001-2019
Combined from part_0.svg through part_5.svg with named groups
</metadata>
<g transform="translate(0.000000,68.000000) scale(0.100000,-0.100000)" fill="#000000" stroke="none">
<g id="part-0" class="char-part">
  <path d="M627 573 c-3 -21 -8 -51 -12 -68 l-6 -30 19 22 c14 16 36 24 81 29
69 7 84 26 19 24 -60 -3 -62 -2 -47 16 11 14 10 18 -6 30 -30 22 -43 16 -48
-23z"/>
  <path d="M450 583 c0 -3 7 -15 17 -25 20 -23 15 -28 -36 -35 -23 -3 -41 -10
-41 -15 0 -7 21 -8 55 -3 46 5 55 4 55 -9 0 -9 5 -16 11 -16 12 0 6 80 -7 101
-6 10 -54 12 -54 2z"/>
  <path d="M290 531 c0 -10 -9 -29 -19 -42 l-20 -24 -46 24 c-73 38 -67 13 9
-42 11 -7 -22 -41 -80 -81 -62 -44 20 -22 94 25 20 12 24 12 32 -1 12 -19 13
-56 0 -79 -5 -10 -43 -44 -85 -76 -41 -32 -74 -60 -72 -62 9 -9 105 41 134 69
18 18 36 29 39 25 7 -7 -10 -155 -19 -164 -9 -8 -50 -8 -77 1 -21 7 -17 0 21
-39 42 -42 49 -46 69 -35 60 32 82 225 40 351 -23 67 -25 61 38 105 26 19 27
27 6 48 -22 23 -64 21 -64 -3z"/>
  <path d="M540 473 c0 -2 4 -12 10 -22 8 -16 5 -20 -22 -25 -51 -10 -62 -8 -48
9 6 8 9 19 5 25 -11 18 -43 11 -50 -11 -4 -12 -25 -42 -47 -65 -44 -48 -43
-56 3 -23 26 18 30 19 35 4 4 -9 3 -35 -1 -58 -12 -73 -6 -119 13 -91 8 11
180 34 254 34 26 0 49 4 52 9 9 15 -43 23 -100 15 -44 -5 -54 -4 -54 9 0 19
21 27 71 27 21 0 39 5 39 10 0 6 -25 10 -56 10 -67 0 -72 23 -6 28 23 2 42 7
42 13 0 9 -19 13 -57 9 -17 -1 -23 4 -23 19 0 18 6 21 48 21 26 0 53 4 61 9
22 14 -24 24 -75 16 -32 -4 -44 -3 -42 6 2 6 -9 15 -24 20 -16 4 -28 5 -28 2z
m10 -82 c0 -22 -19 -31 -66 -31 -27 0 -34 4 -34 19 0 20 10 24 67 28 27 3 33
-1 33 -16z m0 -55 c0 -17 -22 -26 -66 -26 -52 0 -45 28 9 33 23 2 45 4 50 5 4
1 7 -4 7 -12z m0 -60 c0 -7 -14 -16 -31 -20 -54 -11 -69 -8 -69 14 0 17 7 20
50 20 36 0 50 -4 50 -14z"/>
  <path d="M617 210 c-15 -5 -61 -11 -102 -15 -41 -4 -75 -10 -75 -14 0 -4 15
-12 33 -19 17 -6 45 -24 61 -38 l29 -27 -39 -21 c-22 -11 -61 -28 -89 -37
l-50 -18 42 0 c24 -1 67 10 101 25 l59 25 49 -30 c39 -26 58 -31 103 -30 66 1
114 13 91 22 -8 3 -40 10 -70 16 -61 11 -130 37 -130 49 0 4 18 26 40 47 22
21 40 42 40 45 0 7 -47 31 -58 29 -4 0 -19 -4 -35 -9z m23 -28 c0 -5 -14 -21
-30 -37 l-30 -29 -27 20 c-50 38 -40 47 60 52 15 1 27 -2 27 -6z"/>
</g>
<g id="part-1" class="char-part">
  <path d="M296 528 c-3 -13 -15 -34 -26 -46 l-20 -24 -45 25 c-54 31 -59 20 -8
-18 l36 -28 -24 -20 c-89 -72 -86 -69 -59 -61 14 4 42 18 64 31 31 20 40 22
47 11 16 -25 21 -78 17 -177 -4 -120 -14 -136 -72 -126 l-41 6 35 -36 c21 -22
42 -35 54 -33 33 5 64 62 71 131 8 81 -8 210 -30 244 l-18 27 41 37 c47 41 49
46 25 65 -26 19 -40 17 -47 -8z"/>
</g>
<g id="part-2" class="char-part">
  <path d="M240 293 c-19 -20 -62 -56 -95 -79 -65 -49 -57 -57 20 -19 75 36 117
77 113 109 l-3 26 -35 -37z"/>
</g>
<g id="part-3" class="char-part">
  <path d="M627 573 c-3 -21 -8 -51 -12 -68 l-6 -30 18 21 c14 16 37 24 81 29
60 7 77 17 48 28 -8 3 -32 3 -53 0 -36 -6 -37 -5 -23 11 13 16 12 20 -5 32
-30 22 -43 16 -48 -23z"/>
  <path d="M450 585 c0 -3 7 -16 15 -29 16 -23 15 -24 -30 -30 -25 -4 -45 -12
-45 -18 0 -7 17 -8 51 -4 43 6 53 4 65 -11 13 -17 13 -17 14 2 0 11 -3 37 -6
58 -6 33 -10 37 -35 37 -16 0 -29 -2 -29 -5z"/>
</g>
<g id="part-4" class="char-part">
  <path d="M432 446 c-6 -14 -28 -43 -48 -65 -39 -43 -36 -54 6 -21 14 11 28 20
33 20 11 0 9 -63 -4 -98 -8 -22 -7 -36 1 -53 10 -18 14 -19 20 -8 11 18 16
157 6 166 -3 4 6 20 21 35 23 24 25 30 13 38 -24 15 -36 12 -48 -14z"/>
</g>
<g id="part-5" class="char-part">
  <path d="M640 180 c5 -18 5 -28 0 -25 -5 3 -15 -3 -22 -15 -14 -22 -38 -25
-71 -9 -22 10 -22 10 1 -10 l22 -20 -20 -14 c-16 -11 -18 -16 -7 -20 8 -3 20
0 26 6 9 9 16 9 31 -1 10 -6 27 -9 37 -6 13 4 15 3 5 -4 -11 -7 -6 -14 22 -31
35 -22 63 -21 50 1 -4 7 -2 8 5 4 6 -4 9 -12 6 -17 -4 -5 10 -9 29 -9 23 0 36
5 36 13 0 16 -83 39 -106 30 -11 -4 -15 -3 -11 4 4 7 -5 14 -23 18 -43 9 -44
20 -8 54 26 24 30 32 19 44 -9 12 -9 17 0 23 7 4 9 3 5 -4 -8 -13 10 -26 24
-17 17 10 -9 35 -36 35 -20 0 -22 -3 -14 -30z m0 -40 c0 -5 -5 -10 -11 -10 -5
0 -7 5 -4 10 3 6 8 10 11 10 2 0 4 -4 4 -10z"/>
  <path d="M583 193 c9 -2 23 -2 30 0 6 3 -1 5 -18 5 -16 0 -22 -2 -12 -5z"/>
  <path d="M495 180 c-3 -5 -13 -7 -23 -4 -14 5 -14 4 -2 -4 8 -6 18 -8 22 -6 4
3 8 0 8 -5 0 -6 5 -11 11 -11 8 0 8 4 0 14 -9 11 -9 15 1 19 9 4 9 6 1 6 -6 1
-14 -3 -18 -9z"/>
  <path d="M513 55 c0 -7 6 -11 14 -8 7 3 13 6 13 8 0 2 -6 5 -13 8 -8 3 -14 -1
-14 -8z"/>
  <path d="M475 40 c3 -5 8 -10 11 -10 2 0 4 5 4 10 0 6 -5 10 -11 10 -5 0 -7
-4 -4 -10z"/>
  <path d="M425 30 c-8 -13 5 -13 25 0 13 8 13 10 -2 10 -9 0 -20 -4 -23 -10z"/>
  <path d="M800 29 c0 -5 9 -9 20 -9 11 0 20 2 20 4 0 2 -9 6 -20 9 -11 3 -20 1
-20 -4z"/>
</g>
</g>
</svg>