<?xml version="1.0" standalone="no"?>
<!DOCTYPE svg PUBLIC "-//W3C//DTD SVG 20010904//EN"
 "http://www.w3.org/TR/2001/REC-SVG-20010904/DTD/svg10.dtd">
<svg version="1.0" xmlns="http://www.w3.org/2000/svg"
 width="96.000000pt" height="68.000000pt" viewBox="0 0 96.000000 68.000000"
 preserveAspectRatio="xMidYMid meet">
<metadata>
Created by potrace 1.16, written by Peter Selinger 2001-2019
Combined from part_0.svg through part_5.svg with named groups
</metadata>
<g transform="translate(0.000000,68.000000) scale(0.100000,-0.100000)" fill="#000000" stroke="none">
<g id="part-0" class="char-part">
  <path d="M600 619 c-19 -4 -55 -13 -80 -18 -38 -9 -31 -9 43 -5 l87 5 0 -97 0
-96 -30 6 c-16 3 -30 4 -30 2 0 -11 56 -66 67 -66 25 0 41 55 44 155 4 98 4
100 -21 112 -28 14 -30 14 -80 2z"/>
  <path d="M340 600 c-19 -4 -56 -11 -83 -15 -29 -4 -45 -10 -41 -17 4 -7 34 -8
85 -4 77 7 78 7 84 -16 4 -13 5 -49 3 -79 l-3 -54 -34 3 -33 2 28 -34 c52 -63
84 -40 84 61 0 32 5 74 10 93 9 31 8 37 -11 53 -23 18 -35 19 -89 7z"/>
  <path d="M505 549 c-3 -4 4 -10 15 -14 11 -3 20 -11 20 -16 0 -5 11 -9 25 -9
45 0 24 33 -28 42 -15 3 -30 2 -32 -3z"/>
  <path d="M268 510 c38 -35 52 -38 52 -10 0 13 -9 22 -27 26 -16 3 -35 8 -43
10 -8 2 0 -9 18 -26z"/>
  <path d="M594 486 c-12 -8 -42 -20 -67 -27 -50 -12 -59 -24 -29 -34 25 -7 97
31 116 63 9 16 5 15 -20 -2z"/>
  <path d="M345 468 c-11 -6 -44 -19 -74 -29 -58 -17 -73 -32 -45 -43 15 -6 126
53 139 75 8 12 5 11 -20 -3z"/>
  <path d="M564 325 l7 -35 -39 0 c-22 0 -60 -3 -86 -6 -44 -6 -46 -6 -46 19 0
20 -6 27 -31 32 -38 9 -45 2 -31 -29 9 -21 8 -25 -11 -30 -12 -3 -53 -6 -92
-6 -80 0 -105 -9 -81 -30 15 -12 119 -8 169 6 40 12 7 -85 -48 -141 -49 -48
-19 -45 38 5 30 27 51 56 63 89 20 55 32 61 135 61 l59 0 0 -115 c0 -72 4
-115 10 -115 18 0 31 50 37 148 l6 94 88 -7 c55 -4 89 -3 93 4 12 19 -36 33
-105 32 -62 -1 -69 1 -69 18 0 22 -4 26 -44 35 -28 7 -28 6 -22 -29z"/>
</g>
<g id="part-1" class="char-part">
  <path d="M308 591 c-101 -16 -121 -36 -25 -25 111 13 102 19 105 -70 3 -84 -6
-103 -40 -85 -26 14 -22 2 12 -34 l31 -32 19 24 c15 17 20 38 20 85 0 33 3 77
6 96 9 52 -16 60 -128 41z"/>
</g>
<g id="part-2" class="char-part">
  <path d="M548 471 c-61 -21 -75 -30 -66 -39 19 -19 42 -14 89 19 45 32 67 50
59 48 -3 -1 -40 -13 -82 -28z"/>
</g>
<g id="part-3" class="char-part">
  <path d="M564 325 c7 -34 6 -35 -26 -35 -18 0 -57 -3 -85 -6 -52 -7 -53 -6
-53 19 0 25 -16 37 -51 37 -21 0 -24 -12 -9 -39 8 -16 5 -20 -22 -25 -17 -3
-52 -6 -78 -6 -26 0 -62 -3 -79 -6 -31 -6 -31 -7 -11 -21 16 -12 39 -13 105
-8 74 6 85 5 85 -8 0 -31 -24 -73 -69 -119 -49 -52 -46 -60 9 -27 48 30 77 65
96 120 16 44 19 47 62 53 25 3 64 6 88 6 l44 0 0 -115 c0 -72 4 -115 10 -115
18 0 31 50 37 148 l6 95 94 -7 c61 -5 93 -4 93 3 0 20 -40 31 -113 31 -70 0
-75 1 -70 20 4 15 -2 22 -22 30 -43 16 -48 13 -41 -25z"/>
</g>
</g>
</svg>