<?xml version="1.0" standalone="no"?>
<!DOCTYPE svg PUBLIC "-//W3C//DTD SVG 20010904//EN"
 "http://www.w3.org/TR/2001/REC-SVG-20010904/DTD/svg10.dtd">
<svg version="1.0" xmlns="http://www.w3.org/2000/svg"
 width="96.000000pt" height="68.000000pt" viewBox="0 0 96.000000 68.000000"
 preserveAspectRatio="xMidYMid meet">
<metadata>
Created by potrace 1.16, written by Peter Selinger 2001-2019
Combined from part_0.svg through part_5.svg with named groups
</metadata>
<g transform="translate(0.000000,68.000000) scale(0.100000,-0.100000)" fill="#000000" stroke="none">
<g id="part-0" class="char-part">
  <path d="M397 596 c-54 -6 -99 -15 -100 -21 -1 -6 25 -11 61 -13 55 -3 62 -5
62 -23 0 -20 -5 -21 -114 -17 l-115 3 -15 -27 c-9 -14 -16 -33 -16 -42 0 -25
35 -19 49 8 12 21 22 25 95 31 44 3 89 9 98 11 14 4 17 -3 20 -38 4 -55 22
-56 26 -2 l3 41 67 7 c37 3 87 6 111 6 l43 0 -17 -26 -17 -26 44 7 c83 13 84
14 53 43 -31 28 -40 29 -182 18 -67 -5 -103 -5 -103 2 0 18 25 29 78 34 57 5
68 11 57 27 -7 13 -54 12 -188 -3z"/>
  <path d="M521 480 l-23 -20 35 0 c39 0 58 17 36 31 -19 12 -20 11 -48 -11z"/>
  <path d="M286 472 c-6 -11 62 -27 72 -18 8 9 1 13 -35 20 -17 4 -34 3 -37 -2z"/>
  <path d="M510 432 c0 -5 14 -15 31 -21 42 -14 49 -14 49 4 0 8 -8 15 -17 15
-10 0 -28 3 -40 6 -13 4 -23 2 -23 -4z"/>
  <path d="M298 423 c-21 -2 -38 -8 -38 -13 0 -16 31 -19 65 -4 35 14 46 26 23
22 -7 -1 -30 -3 -50 -5z"/>
  <path d="M400 400 c0 -5 5 -10 10 -10 6 0 10 -4 10 -9 0 -5 -52 -12 -115 -16
-63 -4 -115 -12 -115 -17 0 -6 51 -7 140 -3 82 5 140 4 140 -1 0 -14 -30 -54
-40 -54 -5 0 -11 9 -15 19 -6 21 -31 35 -39 22 -3 -5 6 -21 19 -35 28 -30 35
-82 10 -72 -13 4 -14 2 -5 -14 21 -38 38 -24 42 35 2 30 8 42 30 54 29 17 37
40 16 42 -36 4 58 17 125 18 77 1 101 13 51 25 -25 7 -142 0 -190 -9 -15 -4
-23 1 -27 15 -5 20 -47 29 -47 10z"/>
  <path d="M581 320 c-13 -11 -35 -20 -50 -20 -24 0 -26 -3 -28 -50 0 -28 2 -50
5 -50 4 0 21 11 37 25 29 24 30 24 6 25 -17 0 -22 4 -17 16 3 9 6 18 6 20 0
16 54 -3 111 -41 67 -44 108 -55 139 -35 13 8 13 9 0 13 -87 26 -111 35 -150
54 -41 20 -43 23 -22 29 26 7 30 34 5 34 -10 -1 -29 -10 -42 -20z"/>
  <path d="M299 309 c-8 -5 -32 -9 -54 -10 -22 0 -51 -5 -65 -9 -22 -7 -21 -8
13 -9 49 -1 48 -20 -5 -66 -35 -31 -39 -36 -18 -30 24 7 62 35 87 64 9 11 10
18 2 28 -9 10 -4 13 25 13 29 0 36 -4 36 -19 0 -32 -11 -50 -26 -44 -19 7 -18
-11 2 -28 14 -11 19 -9 34 11 19 25 33 76 25 90 -8 13 -42 18 -56 9z"/>
  <path d="M560 195 c0 -11 -11 -15 -37 -16 -21 0 -47 -3 -58 -5 -38 -8 -150 -9
-173 -1 -20 8 -22 6 -18 -17 6 -35 -11 -93 -35 -117 -12 -12 -18 -23 -15 -26
8 -8 54 24 65 46 9 15 26 20 93 25 46 4 105 9 131 12 49 6 49 6 46 -22 -3 -33
8 -74 21 -74 15 0 20 31 20 115 0 66 -3 84 -16 89 -22 9 -24 8 -24 -9z m8 -56
c2 -13 -10 -18 -70 -23 -40 -4 -99 -9 -130 -13 -53 -5 -58 -4 -58 14 0 19 10
22 98 31 127 13 156 11 160 -9z"/>
</g>
<g id="part-1" class="char-part">
  <path d="M460 599 c-25 -4 -72 -11 -104 -14 -68 -8 -59 -25 13 -25 64 0 221
21 221 30 0 19 -56 23 -130 9z"/>
</g>
<g id="part-2" class="char-part">
  <path d="M590 538 c-36 -5 -140 -10 -232 -11 l-166 -2 -16 -27 c-9 -14 -16
-33 -16 -42 0 -24 35 -19 49 8 12 21 23 24 129 35 65 6 166 14 227 18 l109 6
-17 -26 c-20 -31 -18 -31 55 -16 l52 12 -32 28 c-34 31 -41 32 -142 17z"/>
</g>
<g id="part-3" class="char-part">
  <path d="M400 400 c0 -5 7 -13 16 -18 11 -6 -23 -12 -105 -17 -74 -4 -121 -11
-121 -17 0 -8 37 -9 118 -5 64 4 177 10 250 13 72 4 132 10 132 14 0 15 -47
19 -141 13 -83 -5 -97 -4 -102 11 -7 17 -47 23 -47 6z"/>
</g>
<g id="part-4" class="char-part">
  <path d="M370 331 c0 -5 11 -19 25 -32 28 -27 36 -85 10 -75 -19 7 -19 -8 0
-24 21 -18 33 -5 41 46 5 36 12 48 36 60 16 8 26 19 23 24 -11 17 -32 11 -49
-15 -17 -26 -36 -33 -36 -14 0 12 -29 38 -42 39 -5 0 -8 -4 -8 -9z"/>
  <path d="M580 320 c-14 -11 -36 -20 -50 -20 -23 0 -25 -4 -26 -50 0 -28 2 -50
5 -50 3 1 20 12 36 25 29 24 29 25 7 25 -17 0 -23 5 -20 18 6 30 46 25 102
-12 79 -52 99 -60 143 -51 l38 8 -70 22 c-38 12 -88 31 -110 42 l-40 21 28 11
c16 6 25 15 22 21 -10 16 -38 11 -65 -10z"/>
  <path d="M298 298 c30 -15 27 -60 -5 -68 -20 -5 -20 -7 -7 -25 20 -28 44 -10
65 48 19 52 14 58 -44 56 -31 0 -31 -1 -9 -11z"/>
  <path d="M180 290 c-22 -7 -21 -8 13 -9 20 -1 37 -6 37 -12 0 -6 -17 -29 -39
-50 -45 -46 -43 -48 15 -14 48 28 71 59 53 71 -8 4 -7 9 2 15 18 11 -46 10
-81 -1z"/>
  <path d="M560 196 c0 -18 -221 -41 -250 -26 -31 16 -43 12 -36 -13 8 -33 -10
-90 -39 -121 -19 -20 -20 -26 -8 -26 9 0 30 16 48 34 32 35 34 35 155 46 67 5
126 8 130 5 5 -3 5 -16 1 -28 -8 -22 5 -67 20 -67 14 0 19 32 19 115 0 66 -3
84 -16 89 -22 8 -24 8 -24 -8z m10 -55 c0 -21 -10 -23 -182 -37 -73 -5 -78 -4
-78 14 0 18 10 21 103 29 159 15 157 16 157 -6z"/>
</g>
</g>
</svg>