<?xml version="1.0" standalone="no"?>
<!DOCTYPE svg PUBLIC "-//W3C//DTD SVG 20010904//EN"
 "http://www.w3.org/TR/2001/REC-SVG-20010904/DTD/svg10.dtd">
<svg version="1.0" xmlns="http://www.w3.org/2000/svg"
 width="96.000000pt" height="68.000000pt" viewBox="0 0 96.000000 68.000000"
 preserveAspectRatio="xMidYMid meet">
<metadata>
Created by potrace 1.16, written by Peter Selinger 2001-2019
Combined from part_0.svg through part_5.svg with named groups
</metadata>
<g transform="translate(0.000000,68.000000) scale(0.100000,-0.100000)" fill="#000000" stroke="none">
<g id="part-0" class="char-part">
  <path d="M531 565 c-11 -25 -32 -60 -47 -80 -14 -19 -23 -35 -19 -35 16 0 76
43 85 61 9 15 22 19 69 19 75 0 123 10 118 24 -4 12 -65 14 -115 3 -29 -6 -33
-5 -27 11 4 13 -2 22 -20 30 -23 11 -25 9 -44 -33z"/>
  <path d="M305 560 c-10 -21 -38 -58 -62 -81 -24 -23 -42 -43 -39 -46 6 -7 88
41 104 59 6 8 30 15 54 16 66 3 118 13 118 22 0 14 -30 20 -76 13 -44 -6 -46
-5 -36 14 8 14 8 23 0 31 -22 22 -45 12 -63 -28z"/>
  <path d="M599 491 c12 -22 56 -52 65 -44 3 4 6 16 6 28 0 17 -8 24 -31 29 -47
9 -51 8 -40 -13z"/>
  <path d="M340 490 c0 -15 38 -50 54 -50 24 0 26 29 3 45 -24 17 -57 20 -57 5z"/>
  <path d="M536 446 c-3 -13 -22 -43 -41 -66 -45 -54 -35 -67 36 -46 61 19 69
19 69 7 0 -25 -34 -39 -114 -46 -49 -4 -86 -11 -86 -17 0 -7 26 -9 79 -4 94 8
91 12 91 -121 l0 -95 -32 7 -33 7 19 -21 c11 -12 25 -20 32 -17 8 3 11 -1 7
-10 -8 -21 24 -18 36 4 5 10 11 73 12 140 l2 122 61 1 c34 1 72 4 86 9 l25 7
-27 11 c-15 6 -33 10 -40 8 -31 -10 -98 -16 -98 -9 0 5 18 27 41 50 22 24 37
48 33 54 -7 12 -73 8 -108 -6 -15 -7 -17 -5 -12 11 4 13 -1 23 -13 31 -16 10
-20 9 -25 -11z m94 -55 c0 -18 -27 -30 -80 -37 l-55 -7 24 27 c19 20 34 26 68
26 24 0 43 -4 43 -9z"/>
  <path d="M280 431 c0 -26 -65 -111 -111 -146 -46 -34 -44 -45 3 -19 19 11 47
18 66 16 26 -3 32 -8 32 -26 0 -19 -8 -24 -47 -34 l-48 -10 48 2 47 3 1 -36
c2 -42 -1 -74 -7 -80 -2 -2 -29 -6 -59 -9 -63 -5 -77 -17 -41 -34 21 -9 33 -8
63 5 21 9 66 26 101 38 92 32 96 52 5 24 -22 -7 -23 -5 -23 49 0 55 0 56 29
56 17 0 33 5 36 10 4 6 -8 10 -29 10 -29 0 -36 4 -36 20 0 13 7 20 19 20 11 0
23 5 27 12 7 11 -41 7 -103 -9 -33 -8 -28 8 16 51 l39 38 30 -21 c38 -27 62
-28 55 -2 -3 12 -17 23 -34 26 -22 5 -29 12 -29 30 0 21 -17 35 -41 35 -5 0
-9 -8 -9 -19z"/>
  <path d="M683 235 l-22 -35 37 16 c49 20 61 32 42 44 -24 15 -34 11 -57 -25z"/>
  <path d="M450 231 c0 -15 30 -41 46 -41 23 0 16 37 -8 44 -31 8 -38 7 -38 -3z"/>
  <path d="M356 193 c-3 -10 -9 -24 -12 -32 -5 -10 3 -8 25 5 35 21 38 29 15 38
-21 8 -21 8 -28 -11z"/>
  <path d="M190 172 c0 -15 38 -44 49 -37 18 10 13 21 -14 33 -31 14 -35 15 -35
4z"/>
  <path d="M504 155 c-10 -8 -40 -22 -66 -30 -52 -18 -60 -30 -28 -40 21 -7 39
2 95 49 31 27 31 45 -1 21z"/>
  <path d="M703 115 c63 -59 90 -70 85 -32 -2 15 -21 32 -63 54 -33 18 -64 32
-70 32 -5 1 16 -24 48 -54z"/>
</g>
<g id="part-1" class="char-part">
  <path d="M311 565 c-6 -19 -32 -55 -57 -80 -54 -53 -44 -59 20 -10 39 29 55
35 120 41 42 4 76 11 76 17 0 6 -24 8 -66 4 -64 -6 -66 -6 -50 12 20 22 20 37
0 45 -26 10 -29 8 -43 -29z"/>
  <path d="M535 564 c-9 -21 -27 -53 -41 -71 -33 -43 -14 -42 35 2 28 26 47 35
73 35 54 0 128 12 128 20 0 16 -29 18 -88 5 l-60 -12 1 26 c3 42 -29 39 -48
-5z"/>
  <path d="M615 480 c21 -23 55 -27 55 -6 0 15 -21 26 -52 26 -20 0 -21 -1 -3
-20z"/>
  <path d="M355 470 c21 -23 55 -27 55 -6 0 15 -21 26 -52 26 -20 0 -21 -1 -3
-20z"/>
</g>
<g id="part-2" class="char-part">
  <path d="M276 419 c-4 -20 -31 -55 -83 -106 -73 -71 -76 -75 -36 -54 23 11 58
21 78 21 32 0 36 -3 33 -22 -2 -18 -13 -25 -53 -35 l-50 -12 53 2 52 2 0 -53
c0 -47 -3 -53 -26 -62 -14 -6 -43 -10 -65 -10 -44 0 -51 -15 -14 -32 20 -9 33
-8 62 5 21 8 66 25 101 37 67 24 96 47 46 37 -16 -3 -37 -9 -46 -12 -16 -6
-18 0 -18 48 l0 54 43 9 42 8 -42 4 c-35 2 -43 7 -43 23 0 12 7 19 19 19 11 0
23 5 26 10 8 13 -18 12 -74 -1 -24 -5 -45 -8 -48 -6 -2 3 15 23 38 45 l41 41
28 -21 c17 -12 36 -18 45 -14 25 9 13 29 -24 40 -21 6 -31 15 -29 25 8 47 -46
57 -56 10z"/>
  <path d="M348 180 c-9 -17 -15 -30 -12 -30 13 0 64 31 64 39 0 7 -23 21 -33
21 -1 0 -10 -14 -19 -30z"/>
  <path d="M196 155 c17 -26 54 -34 54 -12 0 13 -40 37 -61 37 -5 0 -2 -11 7
-25z"/>
</g>
<g id="part-3" class="char-part">
  <path d="M532 436 c-6 -13 -25 -40 -43 -60 -44 -50 -30 -61 52 -40 81 20 90
28 22 19 -30 -4 -53 -3 -53 2 0 5 16 24 35 43 26 26 32 37 24 47 -16 19 -24
16 -37 -11z"/>
</g>
<g id="part-4" class="char-part">
  <path d="M566 255 c8 -31 8 -31 6 -123 l-2 -74 -32 7 -33 7 33 -33 c26 -28 35
-32 50 -23 14 9 17 30 20 138 l3 126 -26 0 c-22 0 -25 -3 -19 -25z"/>
  <path d="M683 235 l-23 -34 26 9 c55 21 66 30 53 46 -18 22 -32 17 -56 -21z"/>
  <path d="M450 231 c0 -15 30 -41 46 -41 23 0 16 37 -8 44 -31 8 -38 7 -38 -3z"/>
  <path d="M515 160 c-3 -5 -33 -19 -66 -31 -60 -22 -73 -42 -28 -46 16 -2 40
11 74 42 27 25 44 45 38 45 -7 0 -14 -4 -18 -10z"/>
  <path d="M705 116 c66 -61 85 -68 85 -33 0 23 -22 38 -110 74 -32 13 -31 10
25 -41z"/>
</g>
</g>
</svg>