<?xml version="1.0" standalone="no"?>
<!DOCTYPE svg PUBLIC "-//W3C//DTD SVG 20010904//EN"
 "http://www.w3.org/TR/2001/REC-SVG-20010904/DTD/svg10.dtd">
<svg version="1.0" xmlns="http://www.w3.org/2000/svg"
 width="96.000000pt" height="68.000000pt" viewBox="0 0 96.000000 68.000000"
 preserveAspectRatio="xMidYMid meet">
<metadata>
Created by potrace 1.16, written by Peter Selinger 2001-2019
Combined from part_0.svg through part_5.svg with named groups
</metadata>
<g transform="translate(0.000000,68.000000) scale(0.100000,-0.100000)" fill="#000000" stroke="none">
<g id="part-0" class="char-part">
  <path d="M291 536 c-15 -37 -43 -74 -90 -120 -54 -51 -64 -66 -48 -66 11 0 44
18 73 40 l53 40 -3 -58 c-2 -31 -6 -75 -10 -97 -9 -48 13 -89 36 -67 18 18 27
209 10 233 -11 16 -8 23 23 57 37 42 43 60 23 80 -25 25 -44 12 -67 -42z"/>
  <path d="M565 568 c-33 -5 -79 -7 -102 -5 -24 3 -43 1 -43 -4 0 -5 4 -9 9 -9
5 0 17 -24 27 -52 9 -29 18 -54 19 -56 1 -1 14 2 28 7 19 8 28 6 37 -4 23 -28
4 -45 -52 -46 -29 -1 -66 -5 -83 -9 -48 -11 -5 -24 55 -16 31 4 50 3 50 -3 0
-5 -25 -28 -57 -50 -34 -25 -49 -41 -38 -41 19 0 78 34 110 63 20 18 20 18 23
-20 4 -60 11 -83 27 -83 15 0 23 21 27 77 l3 33 44 -35 c32 -26 54 -35 81 -35
20 0 40 3 43 7 7 6 -38 33 -56 33 -18 0 -117 52 -117 62 0 4 46 8 101 8 93 0
100 1 88 16 -11 14 -28 16 -99 12 -83 -5 -86 -4 -97 18 -10 21 -9 24 10 24 35
0 67 11 67 23 0 6 12 24 27 39 26 27 26 28 7 43 -21 16 -51 17 -139 3z m75
-30 c0 -39 -15 -49 -80 -55 -65 -6 -80 1 -80 39 0 12 15 19 63 26 96 15 97 15
97 -10z"/>
  <path d="M459 231 c28 -52 8 -71 -76 -71 -24 0 -43 -4 -43 -10 0 -10 27 -13
91 -10 34 1 37 -1 42 -32 2 -18 4 -34 3 -35 -1 -1 -59 -5 -129 -9 -70 -4 -130
-11 -133 -15 -8 -13 65 -22 130 -15 33 3 151 9 261 12 110 4 202 9 205 11 3 3
-4 11 -15 19 -16 13 -41 14 -135 9 -63 -4 -119 -8 -125 -9 -5 0 -11 16 -13 37
l-3 37 43 1 c24 1 57 4 73 8 48 10 11 25 -56 22 l-58 -2 -3 33 c-3 29 -7 33
-36 36 -31 3 -33 2 -23 -17z"/>
</g>
<g id="part-1" class="char-part">
  <path d="M297 539 c-14 -37 -38 -70 -87 -120 -38 -38 -66 -69 -62 -69 12 0 99
56 106 69 4 6 11 11 17 11 11 0 12 -105 0 -145 -10 -35 3 -79 21 -73 19 6 32
196 17 225 -10 19 -8 27 17 59 51 63 51 64 30 80 -31 23 -40 17 -59 -37z"/>
</g>
<g id="part-2" class="char-part">
  <path d="M543 432 c2 -20 -3 -27 -18 -29 -11 -1 -51 -5 -89 -8 -55 -6 -66 -9
-52 -17 11 -6 44 -8 79 -4 70 7 68 0 -19 -60 -29 -20 -52 -39 -50 -41 7 -7 79
27 112 52 18 14 35 25 38 25 3 0 6 -18 6 -39 0 -48 8 -71 25 -71 17 0 25 23
25 71 l0 40 46 -36 c34 -25 57 -35 83 -35 66 0 63 15 -8 39 -38 13 -81 34 -97
47 l-29 23 98 1 c56 0 97 4 97 10 0 16 -48 23 -121 16 -58 -6 -69 -5 -69 8 0
17 -11 25 -39 31 -16 3 -19 -2 -18 -23z"/>
</g>
<g id="part-3" class="char-part">
  <path d="M464 254 c-9 -4 -9 -14 -1 -39 6 -19 7 -38 3 -42 -3 -4 -33 -9 -66
-11 -80 -6 -77 -22 4 -22 63 0 64 0 68 -30 3 -17 2 -33 -2 -35 -3 -2 -63 -7
-133 -11 -70 -4 -127 -10 -127 -15 0 -17 66 -19 241 -9 101 5 223 10 272 10
86 0 106 9 67 30 -14 7 -62 9 -145 4 l-125 -7 0 37 0 36 48 1 c26 1 58 4 72 8
42 12 3 25 -64 23 l-59 -3 6 29 c5 24 2 31 -19 41 -14 6 -26 11 -27 10 -1 0
-7 -3 -13 -5z"/>
</g>
</g>
</svg>