<?xml version="1.0" standalone="no"?>
<!DOCTYPE svg PUBLIC "-//W3C//DTD SVG 20010904//EN"
 "http://www.w3.org/TR/2001/REC-SVG-20010904/DTD/svg10.dtd">
<svg version="1.0" xmlns="http://www.w3.org/2000/svg"
 width="96.000000pt" height="68.000000pt" viewBox="0 0 96.000000 68.000000"
 preserveAspectRatio="xMidYMid meet">
<metadata>
Created by potrace 1.16, written by Peter Selinger 2001-2019
Combined from part_0.svg through part_5.svg with named groups
</metadata>
<g transform="translate(0.000000,68.000000) scale(0.100000,-0.100000)" fill="#000000" stroke="none">
<g id="part-0" class="char-part">
  <path d="M530 598 c0 -62 -9 -75 -51 -82 -21 -3 -39 -10 -39 -15 0 -12 48 -23
62 -15 8 5 9 1 3 -12 -4 -10 -10 -30 -12 -44 -4 -22 1 -19 39 21 41 45 46 47
111 52 73 5 83 9 72 27 -5 8 -28 11 -67 8 -50 -4 -58 -2 -52 11 18 42 15 57
-11 69 -43 20 -55 15 -55 -20z"/>
  <path d="M250 580 c0 -6 7 -24 15 -40 18 -35 9 -40 -76 -40 -64 0 -73 -10 -34
-36 22 -14 32 -15 64 -5 59 17 80 14 87 -13 6 -27 30 -41 39 -25 4 5 4 22 0
38 -5 25 -3 29 25 34 41 9 38 27 -5 27 -32 0 -35 3 -35 29 0 17 -6 31 -16 35
-25 10 -64 7 -64 -4z"/>
  <path d="M366 388 c4 -7 16 -23 26 -34 l19 -22 -63 -10 c-35 -6 -80 -14 -100
-17 -42 -7 -50 -20 -17 -28 22 -6 78 2 192 26 37 8 69 12 71 8 3 -4 -23 -25
-57 -47 -125 -82 -148 -92 -236 -99 -79 -7 -82 -9 -64 -25 16 -15 26 -16 88
-7 l70 10 165 -56 c91 -32 173 -57 183 -57 22 0 158 47 170 59 9 9 -109 21
-203 21 -32 0 -102 10 -156 21 -55 12 -107 22 -116 22 -26 2 -22 16 7 27 50
19 252 124 269 141 19 17 -56 38 -104 29 -25 -5 -48 -9 -51 -10 -3 0 -11 12
-18 26 -8 19 -17 25 -31 21 -11 -3 -18 -1 -14 4 3 5 -4 9 -16 9 -14 0 -19 -4
-14 -12z"/>
</g>
<g id="part-1" class="char-part">
  <path d="M536 578 c-9 -53 -21 -68 -57 -68 -16 0 -29 -4 -29 -10 0 -5 14 -10
31 -10 32 0 34 -5 14 -52 -13 -33 14 -19 40 21 28 42 51 51 139 51 48 1 50 2
31 16 -15 12 -33 14 -73 9 l-53 -7 16 32 c15 30 15 33 -2 46 -33 25 -50 17
-57 -28z"/>
  <path d="M255 581 c-3 -6 1 -21 9 -33 27 -38 20 -45 -55 -52 -62 -6 -69 -9
-58 -23 13 -15 56 -14 122 3 20 4 26 0 37 -25 17 -41 30 -39 30 4 0 31 3 36
30 42 42 8 38 23 -4 16 -33 -5 -35 -4 -41 31 -4 20 -13 36 -20 36 -7 0 -20 3
-28 6 -8 3 -18 1 -22 -5z"/>
</g>
<g id="part-2" class="char-part">
  <path d="M369 383 c24 -44 38 -55 59 -49 12 4 22 14 22 21 0 19 -39 45 -68 45
-19 0 -21 -3 -13 -17z"/>
</g>
<g id="part-3" class="char-part">
  <path d="M529 355 c-3 -2 -77 -16 -164 -30 -88 -14 -161 -28 -163 -30 -3 -3 8
-9 23 -15 20 -8 53 -5 136 11 60 11 116 19 124 17 17 -3 -52 -52 -150 -105
-69 -37 -48 -46 34 -14 49 20 228 116 245 132 6 5 -5 15 -27 24 -38 16 -51 18
-58 10z"/>
</g>
<g id="part-4" class="char-part">
  <path d="M161 160 c-43 -5 -43 -5 -23 -23 17 -16 26 -17 59 -8 66 19 104 12
276 -46 l168 -57 85 28 c91 31 112 46 67 47 -148 3 -313 20 -403 42 -103 26
-141 28 -229 17z"/>
</g>
</g>
</svg>