<?xml version="1.0" standalone="no"?>
<!DOCTYPE svg PUBLIC "-//W3C//DTD SVG 20010904//EN"
 "http://www.w3.org/TR/2001/REC-SVG-20010904/DTD/svg10.dtd">
<svg version="1.0" xmlns="http://www.w3.org/2000/svg"
 width="96.000000pt" height="68.000000pt" viewBox="0 0 96.000000 68.000000"
 preserveAspectRatio="xMidYMid meet">
<metadata>
Created by potrace 1.16, written by Peter Selinger 2001-2019
Combined from part_0.svg through part_5.svg with named groups
</metadata>
<g transform="translate(0.000000,68.000000) scale(0.100000,-0.100000)" fill="#000000" stroke="none">
<g id="part-0" class="char-part">
  <path d="M430 583 c-74 -7 -154 -12 -177 -10 -24 3 -43 3 -43 1 0 -1 9 -18 19
-36 10 -18 22 -49 26 -68 10 -47 22 -62 43 -50 24 13 295 29 307 19 19 -18 36
-7 70 45 19 30 39 57 45 61 18 11 11 31 -15 43 -32 15 -101 14 -275 -5z m210
-30 c0 -4 -5 -22 -12 -40 -12 -32 -14 -33 -66 -33 l-54 0 21 33 c11 19 18 37
14 40 -3 4 17 7 45 7 29 0 52 -3 52 -7z m-264 -38 c21 -51 18 -55 -30 -55 -38
0 -45 3 -50 24 -3 13 -9 31 -12 39 -4 12 3 17 28 20 18 2 37 5 41 5 4 1 15
-14 23 -33z m117 28 c3 -5 2 -23 0 -40 -5 -30 -9 -33 -39 -33 -37 0 -39 2 -49
48 l-7 32 46 0 c24 0 47 -3 49 -7z"/>
  <path d="M508 236 c1 -105 5 -197 7 -205 11 -29 34 11 37 62 l3 52 115 6 c140
8 133 7 124 20 -5 9 -40 10 -120 5 -104 -6 -113 -5 -119 13 -12 39 3 49 86 56
53 5 79 11 76 19 -4 12 -75 15 -124 4 -33 -7 -33 -7 -33 32 l0 39 83 3 c50 2
80 7 77 13 -3 6 -38 9 -84 7 -74 -3 -78 -2 -74 16 7 26 -2 40 -32 45 l-25 5 3
-192z"/>
  <path d="M365 381 c6 -30 6 -31 -32 -32 -21 0 -60 -7 -88 -14 l-50 -13 85 0
c84 1 85 1 88 -24 3 -25 1 -26 -72 -33 -42 -4 -76 -11 -76 -17 0 -7 26 -8 75
-3 41 4 75 4 75 2 0 -3 -4 -17 -9 -30 -8 -19 -23 -28 -75 -41 -36 -9 -81 -16
-101 -16 -41 0 -46 -15 -11 -32 20 -9 37 -6 91 16 36 14 71 24 76 21 13 -9
-39 -78 -79 -105 -43 -30 -34 -37 16 -11 93 47 127 120 134 281 l3 75 -28 3
c-27 3 -29 2 -22 -27z"/>
</g>
<g id="part-1" class="char-part">
  <path d="M495 584 c-72 -7 -166 -13 -209 -13 l-79 -1 20 -22 c11 -13 26 -47
33 -76 10 -43 16 -52 29 -47 26 10 283 27 317 20 29 -5 35 -1 70 47 60 81 59
77 20 93 -19 8 -43 14 -53 14 -10 -1 -76 -8 -148 -15z m147 -20 c4 -3 0 -25
-8 -48 l-15 -43 -156 -8 c-85 -4 -159 -3 -163 2 -5 4 -11 24 -15 44 l-7 37
129 7 c70 3 135 8 143 9 27 6 87 6 92 0z"/>
</g>
<g id="part-2" class="char-part">
  <path d="M500 546 c0 -7 -3 -28 -6 -45 -8 -40 6 -40 29 0 22 40 22 59 -3 59
-11 0 -20 -6 -20 -14z"/>
</g>
<g id="part-3" class="char-part">
  <path d="M365 313 c0 -126 -18 -176 -87 -238 -55 -50 -55 -54 0 -26 44 23 83
63 107 110 17 33 39 226 29 243 -3 5 -15 8 -27 8 -21 0 -22 -4 -22 -97z"/>
</g>
<g id="part-4" class="char-part">
  <path d="M270 174 c-25 -7 -62 -13 -82 -13 -43 -1 -50 -16 -15 -32 19 -9 39
-5 100 16 106 38 104 60 -3 29z"/>
</g>
<g id="part-5" class="char-part">
  <path d="M519 221 c-5 -94 -3 -171 4 -171 4 0 5 -6 1 -12 -5 -10 -4 -10 5 -2
8 7 14 49 17 106 3 79 2 95 -11 95 -8 0 -15 -7 -16 -16z"/>
  <path d="M698 175 c-3 -3 -22 -6 -42 -7 -28 -1 -33 -4 -22 -10 9 -5 35 -7 59
-4 23 2 53 5 66 5 13 1 21 4 18 8 -9 8 -72 15 -79 8z"/>
  <path d="M568 153 c7 -3 16 -2 19 1 4 3 -2 6 -13 5 -11 0 -14 -3 -6 -6z"/>
</g>
</g>
</svg>