<?xml version="1.0" standalone="no"?>
<!DOCTYPE svg PUBLIC "-//W3C//DTD SVG 20010904//EN"
 "http://www.w3.org/TR/2001/REC-SVG-20010904/DTD/svg10.dtd">
<svg version="1.0" xmlns="http://www.w3.org/2000/svg"
 width="96.000000pt" height="68.000000pt" viewBox="0 0 96.000000 68.000000"
 preserveAspectRatio="xMidYMid meet">
<metadata>
Created by potrace 1.16, written by Peter Selinger 2001-2019
Combined from part_0.svg through part_5.svg with named groups
</metadata>
<g transform="translate(0.000000,68.000000) scale(0.100000,-0.100000)" fill="#000000" stroke="none">
<g id="part-0" class="char-part">
  <path d="M437 582 c-2 -4 -4 -19 -5 -34 -3 -41 -37 -108 -78 -150 -19 -21 -29
-38 -22 -38 15 0 81 60 118 107 21 27 34 33 82 39 70 8 81 -6 46 -61 -19 -30
-27 -35 -50 -31 -16 3 -28 2 -28 -2 1 -15 39 -52 53 -52 20 0 63 52 89 107 20
43 20 44 2 59 -17 13 -67 13 -148 0 -6 0 -10 10 -10 23 -1 22 -41 50 -49 33z"/>
  <path d="M204 528 c9 -14 32 -34 52 -44 30 -17 36 -17 44 -4 13 20 12 23 -3
44 -8 11 -31 20 -61 23 l-48 6 16 -25z"/>
  <path d="M110 411 c0 -16 70 -71 90 -71 11 0 20 2 20 4 0 2 3 11 6 20 4 10 -5
22 -28 36 -34 20 -88 27 -88 11z"/>
  <path d="M510 325 c-30 -7 -76 -14 -102 -14 -53 -1 -60 -9 -24 -31 13 -8 43
-33 67 -54 l42 -39 -28 -23 c-15 -12 -69 -36 -119 -53 -50 -16 -80 -30 -66
-31 34 0 170 38 197 56 34 22 54 17 103 -26 43 -38 48 -40 111 -40 118 0 172
22 87 35 -83 13 -218 61 -218 78 0 10 55 80 86 112 13 12 14 19 4 30 -15 18
-62 17 -140 0z m50 -39 c0 -20 -33 -76 -45 -76 -5 0 -28 15 -50 34 l-40 34 45
10 c66 15 90 14 90 -2z"/>
  <path d="M194 225 l-81 -81 16 -32 c20 -43 44 -41 64 5 8 21 34 70 57 110 22
39 37 73 33 75 -4 2 -44 -33 -89 -77z"/>
</g>
<g id="part-1" class="char-part">
  <path d="M209 532 c25 -46 91 -70 91 -33 0 25 -17 38 -64 46 -36 7 -38 7 -27
-13z"/>
  <path d="M120 410 c0 -18 51 -60 75 -60 28 0 33 21 10 40 -18 15 -85 31 -85
20z"/>
  <path d="M215 237 c-33 -34 -69 -67 -79 -73 -18 -9 -19 -14 -7 -42 8 -18 19
-32 26 -32 12 0 131 198 123 205 -2 2 -30 -24 -63 -58z"/>
</g>
<g id="part-2" class="char-part">
  <path d="M437 583 c-4 -3 -7 -19 -7 -34 0 -41 -18 -77 -68 -136 -24 -29 -39
-53 -34 -53 22 0 79 49 107 92 29 44 33 46 88 53 75 9 86 -1 60 -52 -19 -34
-24 -38 -57 -36 l-36 2 22 -29 c12 -17 27 -30 34 -30 23 0 62 41 89 95 28 54
28 56 9 70 -15 11 -36 13 -92 8 -67 -5 -72 -4 -66 12 10 25 -31 56 -49 38z"/>
</g>
<g id="part-3" class="char-part">
  <path d="M500 325 c-36 -7 -82 -13 -102 -14 -42 -1 -49 -14 -17 -32 36 -19
109 -91 103 -100 -10 -16 -86 -51 -153 -70 -35 -10 -66 -21 -70 -25 -13 -14
104 8 167 32 37 14 75 28 84 31 11 3 35 -10 66 -36 46 -39 52 -41 114 -41 72
0 128 9 128 20 0 4 -31 12 -69 19 -69 12 -191 63 -191 79 0 4 23 34 51 65 42
47 49 60 39 72 -15 18 -58 17 -150 0z m63 -42 c-9 -25 -43 -73 -51 -73 -4 1
-25 16 -46 34 l-40 34 45 10 c73 16 99 15 92 -5z"/>
</g>
</g>
</svg>