<?xml version="1.0" standalone="no"?>
<!DOCTYPE svg PUBLIC "-//W3C//DTD SVG 20010904//EN"
 "http://www.w3.org/TR/2001/REC-SVG-20010904/DTD/svg10.dtd">
<svg version="1.0" xmlns="http://www.w3.org/2000/svg"
 width="96.000000pt" height="68.000000pt" viewBox="0 0 96.000000 68.000000"
 preserveAspectRatio="xMidYMid meet">
<metadata>
Created by potrace 1.16, written by Peter Selinger 2001-2019
Combined from part_0.svg through part_5.svg with named groups
</metadata>
<g transform="translate(0.000000,68.000000) scale(0.100000,-0.100000)" fill="#000000" stroke="none">
<g id="part-0" class="char-part">
  <path d="M610 569 c-41 -5 -99 -11 -128 -15 -69 -7 -57 -24 19 -24 66 0 71 -8
44 -60 -10 -20 -23 -30 -38 -30 -22 0 -22 -2 -22 -129 0 -71 3 -133 7 -137 4
-4 14 -1 23 6 12 10 15 10 15 -2 0 -8 -25 -41 -55 -73 -30 -33 -55 -61 -55
-62 0 -2 17 5 38 16 63 32 142 100 142 121 0 18 7 20 56 20 42 0 60 -4 70 -17
11 -16 14 -16 28 -3 11 11 15 46 18 137 3 119 2 122 -20 133 -29 13 -68 13
-132 -1 -28 -6 -54 -8 -58 -5 -3 4 10 21 29 39 19 19 34 38 32 44 -3 7 29 12
86 15 93 4 108 9 96 27 -7 13 -86 12 -195 0z m103 -160 c3 -11 0 -22 -6 -24
-23 -7 -171 -24 -178 -20 -3 3 -4 16 -2 29 5 26 19 30 134 34 40 2 48 -1 52
-19z m5 -75 c-3 -25 -6 -27 -63 -29 -33 -2 -77 -6 -98 -10 -38 -7 -38 -7 -35
20 3 26 6 27 63 32 32 2 61 6 64 8 2 3 20 5 38 5 31 0 34 -2 31 -26z m-2 -74
l-1 -31 -82 -4 c-45 -3 -88 -6 -95 -7 -7 -2 -14 8 -16 23 -3 26 -2 27 85 36
48 6 93 11 99 12 5 0 10 -13 10 -29z"/>
  <path d="M255 498 c-71 -11 -132 -21 -134 -24 -12 -12 18 -19 82 -19 72 0 72
0 78 -30 4 -16 7 -73 8 -126 1 -103 -7 -123 -44 -108 -11 4 -27 8 -35 8 -17 1
18 -34 62 -63 26 -17 27 -17 43 7 13 21 16 50 13 176 l-3 150 63 7 c34 3 62
10 62 14 0 6 -60 33 -64 29 -1 0 -59 -10 -131 -21z"/>
  <path d="M670 164 c0 -3 28 -33 62 -65 56 -54 64 -58 75 -43 10 13 9 22 -2 43
-14 28 -36 42 -94 60 -40 13 -41 13 -41 5z"/>
</g>
<g id="part-1" class="char-part">
  <path d="M235 490 c-140 -21 -117 -38 29 -22 56 7 118 12 138 12 42 0 58 15
25 24 -32 8 -67 6 -192 -14z"/>
</g>
<g id="part-2" class="char-part">
  <path d="M275 453 c11 -26 19 -207 11 -238 -7 -26 -9 -27 -49 -21 l-41 7 29
-31 c47 -48 63 -55 86 -34 17 15 19 32 19 176 l0 158 -31 0 c-26 0 -30 -3 -24
-17z"/>
</g>
<g id="part-3" class="char-part">
  <path d="M605 569 c-38 -5 -94 -11 -124 -15 -71 -8 -53 -28 24 -25 62 2 67 -7
40 -59 -9 -17 -12 -30 -7 -30 17 0 93 73 88 85 -3 9 21 14 90 17 97 5 119 12
94 28 -18 11 -107 11 -205 -1z"/>
</g>
<g id="part-4" class="char-part">
  <path d="M620 449 c-25 -4 -65 -8 -90 -8 l-45 -1 0 -100 c0 -55 3 -100 7 -100
4 0 13 6 20 14 8 7 41 16 73 20 33 4 77 9 98 12 29 5 37 3 37 -10 0 -10 9 -16
25 -16 24 0 25 2 25 74 0 41 2 81 5 88 12 32 -60 44 -155 27z m84 -25 c32 -31
19 -41 -61 -50 -116 -13 -117 -13 -117 16 -1 24 4 26 79 36 44 6 81 12 82 13
1 0 9 -6 17 -15z m14 -95 c-2 -19 -9 -23 -43 -24 -22 -1 -66 -5 -97 -10 l-58
-7 0 32 c0 25 3 30 18 26 9 -3 51 0 92 8 41 7 79 10 83 6 5 -4 7 -18 5 -31z"/>
</g>
<g id="part-5" class="char-part">
  <path d="M555 180 c-4 -6 -11 -8 -16 -5 -5 4 -12 -7 -15 -24 -4 -17 -10 -28
-15 -25 -5 3 -9 -2 -9 -10 0 -9 -5 -16 -11 -16 -11 0 -39 -24 -39 -34 0 -5 50
26 99 62 13 9 28 20 34 23 12 8 2 39 -12 39 -5 0 -13 -5 -16 -10z"/>
  <path d="M710 127 c24 -26 50 -47 57 -47 7 0 13 -4 13 -10 0 -5 8 -10 18 -10
13 0 14 2 3 9 -7 5 -10 14 -6 20 9 16 -15 43 -32 37 -8 -3 -12 -2 -9 3 6 8
-30 25 -48 22 -4 -1 -16 4 -25 11 -9 6 4 -9 29 -35z m20 3 c6 -11 8 -20 6 -20
-3 0 -10 9 -16 20 -6 11 -8 20 -6 20 3 0 10 -9 16 -20z"/>
</g>
</g>
</svg>