<?xml version="1.0" standalone="no"?>
<!DOCTYPE svg PUBLIC "-//W3C//DTD SVG 20010904//EN"
 "http://www.w3.org/TR/2001/REC-SVG-20010904/DTD/svg10.dtd">
<svg version="1.0" xmlns="http://www.w3.org/2000/svg"
 width="96.000000pt" height="68.000000pt" viewBox="0 0 96.000000 68.000000"
 preserveAspectRatio="xMidYMid meet">
<metadata>
Created by potrace 1.16, written by Peter Selinger 2001-2019
Combined from part_0.svg through part_5.svg with named groups
</metadata>
<g transform="translate(0.000000,68.000000) scale(0.100000,-0.100000)" fill="#000000" stroke="none">
<g id="part-0" class="char-part">
  <path d="M480 595 c0 -23 -72 -97 -137 -142 -47 -32 -52 -39 -34 -41 33 -5
143 56 211 116 13 12 28 22 32 22 15 0 8 27 -10 43 -23 21 -62 22 -62 2z"/>
  <path d="M525 438 c-25 -41 -119 -116 -215 -174 -87 -52 -58 -51 59 2 41 19
76 34 79 34 5 0 -4 -133 -14 -190 -7 -44 17 -83 38 -62 16 16 27 217 13 250
-8 21 -4 28 35 60 24 21 56 47 69 58 l25 21 -31 17 c-18 9 -33 16 -35 16 -2
-1 -12 -15 -23 -32z"/>
</g>
<g id="part-1" class="char-part">
  <path d="M482 586 c-18 -40 -71 -94 -134 -136 -69 -46 -51 -56 28 -14 39 21
133 86 177 125 10 8 -31 49 -48 49 -7 0 -17 -11 -23 -24z"/>
</g>
<g id="part-2" class="char-part">
  <path d="M519 433 c-27 -42 -146 -137 -229 -183 -50 -28 -52 -30 -20 -24 19 3
65 22 102 40 37 19 70 34 73 34 10 0 5 -120 -7 -164 -17 -66 14 -127 41 -78
11 21 17 230 7 253 -5 11 11 29 59 66 l66 51 -22 21 c-31 29 -42 27 -70 -16z"/>
</g>
</g>
</svg>