<?xml version="1.0" standalone="no"?>
<!DOCTYPE svg PUBLIC "-//W3C//DTD SVG 20010904//EN"
 "http://www.w3.org/TR/2001/REC-SVG-20010904/DTD/svg10.dtd">
<svg version="1.0" xmlns="http://www.w3.org/2000/svg"
 width="96.000000pt" height="68.000000pt" viewBox="0 0 96.000000 68.000000"
 preserveAspectRatio="xMidYMid meet">
<metadata>
Created by potrace 1.16, written by Peter Selinger 2001-2019
Combined from part_0.svg through part_5.svg with named groups
</metadata>
<g transform="translate(0.000000,68.000000) scale(0.100000,-0.100000)" fill="#000000" stroke="none">
<g id="part-0" class="char-part">
  <path d="M534 588 c-3 -5 -1 -15 5 -21 6 -6 11 -28 11 -48 0 -41 -13 -49 -82
-49 -21 0 -38 -4 -38 -10 0 -6 27 -10 60 -10 57 0 60 -1 60 -25 0 -22 -4 -25
-39 -25 -40 0 -69 -19 -34 -21 10 -1 25 -3 33 -4 8 -1 21 -3 28 -4 6 0 12 -9
12 -20 0 -20 -39 -31 -112 -31 -21 0 -38 -5 -38 -11 0 -7 17 -10 45 -7 27 2
46 -1 49 -8 11 -30 -86 -143 -108 -125 -6 5 -20 5 -31 0 -47 -19 -55 -12 -55
45 l0 53 41 9 c53 12 55 28 3 32 -36 3 -41 6 -41 27 0 19 6 25 33 30 34 6 43
18 24 30 -6 4 -35 1 -66 -5 -62 -13 -75 -9 -51 18 10 10 17 22 17 26 0 4 7 18
16 32 l17 25 27 -26 c32 -30 65 -30 65 0 0 12 -12 25 -32 35 -17 8 -41 27 -53
43 -32 40 -46 34 -66 -29 -17 -54 -76 -146 -132 -206 -14 -15 -23 -30 -20 -34
9 -8 58 20 91 51 35 34 77 28 77 -9 0 -21 -6 -25 -50 -31 -27 -4 -50 -11 -50
-16 0 -5 23 -9 50 -9 l50 0 0 -59 c0 -58 -1 -59 -31 -65 -17 -3 -51 -6 -75 -6
-54 0 -59 -21 -13 -46 29 -14 35 -14 68 -1 43 19 150 57 157 57 3 0 2 -4 -1
-10 -3 -5 -3 -10 0 -10 11 0 70 32 87 48 16 13 18 13 24 -2 4 -9 3 -43 0 -76
-4 -32 -3 -61 2 -64 9 -6 126 66 137 84 9 15 -1 12 -46 -11 -23 -11 -42 -19
-44 -17 -2 2 -5 32 -6 68 -3 55 0 70 19 97 12 17 20 38 17 46 -5 11 10 15 71
20 42 4 96 7 120 7 24 0 45 4 48 9 11 17 -29 22 -115 15 l-87 -6 5 26 c4 21
11 26 37 27 17 0 40 4 50 8 32 12 1 24 -44 16 -38 -6 -40 -5 -40 19 0 26 7 29
88 38 43 5 17 23 -33 23 l-50 0 0 44 c0 40 -3 45 -27 52 -16 4 -30 3 -34 -3z"/>
  <path d="M683 268 c-10 -13 -28 -31 -40 -41 -21 -19 -22 -18 -44 2 -31 29 -38
17 -8 -16 113 -128 132 -143 173 -142 23 1 52 4 66 9 25 7 25 8 -10 21 -70 26
-175 85 -175 98 0 11 82 47 115 51 8 1 -41 40 -50 40 -5 0 -17 -10 -27 -22z"/>
  <path d="M330 210 c-23 -44 -21 -47 18 -25 54 29 57 32 43 49 -22 26 -39 19
-61 -24z"/>
  <path d="M147 214 c-10 -10 36 -64 55 -64 26 0 23 35 -4 54 -24 17 -41 20 -51
10z"/>
</g>
<g id="part-1" class="char-part">
  <path d="M250 558 c0 -53 -46 -137 -134 -242 l-40 -49 31 16 c17 9 45 28 62
42 38 32 75 31 79 -4 4 -29 -12 -41 -55 -41 -18 0 -33 -4 -33 -10 0 -5 20 -10
45 -10 l45 0 0 -60 0 -59 -37 -10 c-21 -6 -56 -11 -78 -11 l-40 -1 25 -20 c29
-24 40 -23 172 23 94 32 133 58 66 43 -18 -4 -40 -8 -48 -8 -18 -2 -24 32 -15
79 4 26 12 35 33 40 15 3 36 8 47 12 18 5 18 6 -5 13 -14 3 -35 4 -46 2 -18
-4 -22 1 -26 26 -4 28 -2 31 29 37 18 3 33 11 33 17 0 9 -57 5 -123 -9 l-28
-6 41 61 41 61 33 -25 c41 -31 58 -32 54 -3 -2 15 -16 29 -41 41 -21 10 -36
21 -33 25 3 5 -8 16 -25 26 -22 13 -29 14 -29 4z"/>
  <path d="M337 215 c-23 -47 -22 -48 18 -23 37 21 44 50 14 56 -9 2 -22 -11
-32 -33z"/>
  <path d="M156 198 c15 -27 38 -48 51 -48 19 0 16 24 -5 43 -22 20 -57 23 -46
5z"/>
</g>
<g id="part-2" class="char-part">
  <path d="M535 573 c5 -10 10 -34 13 -54 4 -41 -9 -49 -80 -49 -21 0 -38 -4
-38 -10 0 -6 27 -10 60 -10 57 0 60 -1 60 -25 0 -22 -4 -25 -34 -25 -61 0 -76
-14 -21 -20 42 -4 51 -9 53 -26 4 -31 42 -20 42 12 0 20 5 24 33 25 17 0 41 4
52 8 19 8 19 8 -3 15 -12 4 -36 5 -52 1 -27 -6 -30 -4 -30 19 0 22 5 25 48 31
64 9 74 13 66 26 -4 8 -25 9 -61 5 l-55 -6 7 27 c16 59 13 68 -29 71 -34 3
-38 1 -31 -15z"/>
</g>
<g id="part-3" class="char-part">
  <path d="M660 345 c-8 -2 -70 -9 -137 -16 -142 -15 -171 -36 -35 -25 48 3 135
9 195 13 101 6 127 13 91 27 -16 6 -86 6 -114 1z"/>
</g>
<g id="part-4" class="char-part">
  <path d="M687 270 c-7 -11 -26 -29 -41 -41 l-27 -21 -25 23 c-13 12 -24 18
-24 12 0 -5 35 -47 78 -91 72 -77 79 -82 117 -81 22 1 51 4 65 9 l25 7 -30 12
c-105 41 -134 55 -164 80 l-34 28 58 20 c67 22 77 35 41 51 -22 10 -27 8 -39
-8z"/>
  <path d="M483 197 c-6 -6 -13 -46 -16 -89 -5 -59 -4 -77 7 -81 13 -5 140 82
132 90 -2 2 -22 -5 -45 -16 -22 -12 -43 -21 -46 -21 -3 0 -5 27 -5 59 0 61
-10 81 -27 58z"/>
</g>
</g>
</svg>