<?xml version="1.0" standalone="no"?>
<!DOCTYPE svg PUBLIC "-//W3C//DTD SVG 20010904//EN"
 "http://www.w3.org/TR/2001/REC-SVG-20010904/DTD/svg10.dtd">
<svg version="1.0" xmlns="http://www.w3.org/2000/svg"
 width="96.000000pt" height="68.000000pt" viewBox="0 0 96.000000 68.000000"
 preserveAspectRatio="xMidYMid meet">
<metadata>
Created by potrace 1.16, written by Peter Selinger 2001-2019
Combined from part_0.svg through part_5.svg with named groups
</metadata>
<g transform="translate(0.000000,68.000000) scale(0.100000,-0.100000)" fill="#000000" stroke="none">
<g id="part-0" class="char-part">
  <path d="M565 617 c-2 -6 -6 -28 -7 -47 -3 -31 -6 -35 -47 -45 -38 -9 -42 -12
-27 -24 9 -7 25 -11 36 -8 18 5 19 1 14 -36 l-6 -42 32 35 c17 19 35 41 41 48
5 7 32 12 62 12 57 0 84 11 72 30 -5 8 -25 11 -61 8 -58 -5 -58 -5 -45 21 12
22 3 37 -32 50 -21 8 -29 8 -32 -2z"/>
  <path d="M297 594 c-3 -4 1 -20 9 -37 20 -38 9 -47 -63 -47 -40 0 -53 -4 -53
-15 0 -19 34 -27 96 -23 35 2 48 -1 47 -9 -2 -7 2 -13 8 -13 5 0 8 -4 5 -9 -3
-5 1 -12 9 -15 19 -7 29 16 21 48 -5 21 -2 24 35 30 25 4 37 10 33 17 -4 7
-21 9 -40 6 -32 -5 -34 -4 -34 23 0 37 -50 67 -73 44z"/>
  <path d="M615 418 c-22 -5 -63 -8 -92 -5 l-51 3 -1 -110 c-2 -135 -12 -172
-66 -230 -24 -26 -36 -46 -28 -46 23 0 98 83 109 120 l10 35 87 10 c49 6 90 9
93 6 2 -2 4 -31 4 -63 0 -68 -15 -82 -62 -55 -15 9 -28 12 -28 8 0 -11 85 -81
99 -81 30 0 39 46 43 222 3 177 3 177 -20 187 -27 13 -42 13 -97 -1z m63 -59
l3 -36 -73 -9 c-40 -4 -77 -8 -83 -8 -13 -1 -18 45 -6 62 11 18 65 31 116 29
38 -2 40 -3 43 -38z m0 -96 c-3 -32 -6 -36 -33 -38 -16 -1 -54 -5 -82 -10
l-53 -8 0 35 c0 34 1 35 58 45 31 6 70 11 85 12 27 1 28 -1 25 -36z"/>
  <path d="M252 373 c-55 -4 -63 -6 -57 -21 4 -9 7 -53 6 -97 -1 -44 2 -85 6
-91 6 -8 29 -10 75 -5 54 6 71 4 83 -8 25 -25 33 -2 36 114 l4 110 -45 1 c-25
0 -74 -1 -108 -3z m106 -55 c3 -34 1 -38 -20 -38 -13 0 -40 -3 -60 -6 l-38 -7
0 41 c0 45 11 51 80 48 33 -1 35 -3 38 -38z m2 -98 l0 -40 -60 0 -60 0 0 34
c0 38 8 42 83 45 37 1 37 1 37 -39z"/>
</g>
<g id="part-1" class="char-part">
  <path d="M564 573 c-9 -46 -10 -48 -46 -51 -48 -4 -50 -22 -2 -22 37 0 38 -2
17 -58 -11 -26 25 0 42 33 17 31 22 33 81 37 35 2 66 7 70 11 15 14 -9 22 -61
20 l-54 -2 12 26 c9 21 8 27 -8 39 -31 23 -41 16 -51 -33z"/>
  <path d="M305 573 c4 -10 10 -28 12 -40 5 -21 1 -23 -33 -25 -22 -1 -51 -1
-66 0 -34 3 -36 -15 -4 -29 16 -8 38 -8 71 -1 47 10 48 10 58 -19 15 -39 27
-37 27 6 0 31 3 35 38 42 l37 7 -40 6 c-37 5 -40 8 -43 38 -3 28 -7 32 -34 32
-25 0 -29 -3 -23 -17z"/>
</g>
<g id="part-2" class="char-part">
  <path d="M250 373 l-55 -4 3 -102 c3 -71 8 -106 18 -117 10 -10 14 -10 14 -2
0 16 122 16 138 0 22 -22 30 5 34 114 4 86 2 108 -9 113 -14 5 -34 5 -143 -2z
m104 -29 c3 -9 6 -27 6 -40 0 -18 -5 -24 -22 -24 -13 0 -40 -3 -60 -6 l-38 -7
0 41 c0 37 3 41 28 45 59 9 80 7 86 -9z m6 -124 l0 -40 -60 0 -60 0 0 34 c0
37 7 41 88 45 31 1 32 0 32 -39z"/>
</g>
<g id="part-3" class="char-part">
  <path d="M610 418 c-19 -6 -59 -8 -87 -5 l-53 6 0 -108 c0 -126 -13 -174 -66
-238 -19 -23 -31 -43 -25 -43 23 0 91 73 106 114 l17 44 81 7 c45 4 84 8 87 8
8 3 12 -65 5 -100 -7 -37 -20 -41 -68 -17 -28 13 -25 9 21 -37 l54 -52 21 22
c21 20 22 34 28 204 4 155 3 184 -10 195 -17 14 -62 14 -111 0z m65 -58 c0
-35 -1 -35 -50 -41 -27 -4 -65 -10 -83 -14 l-34 -7 7 38 c3 21 9 42 13 45 11
11 52 17 102 15 45 -1 45 -1 45 -36z m3 -97 c-3 -32 -6 -36 -33 -38 -16 -1
-54 -5 -82 -10 l-53 -8 0 35 0 35 63 10 c110 18 109 18 105 -24z"/>
</g>
</g>
</svg>