<?xml version="1.0" standalone="no"?>
<!DOCTYPE svg PUBLIC "-//W3C//DTD SVG 20010904//EN"
 "http://www.w3.org/TR/2001/REC-SVG-20010904/DTD/svg10.dtd">
<svg version="1.0" xmlns="http://www.w3.org/2000/svg"
 width="96.000000pt" height="68.000000pt" viewBox="0 0 96.000000 68.000000"
 preserveAspectRatio="xMidYMid meet">
<metadata>
Created by potrace 1.16, written by Peter Selinger 2001-2019
Combined from part_0.svg through part_5.svg with named groups
</metadata>
<g transform="translate(0.000000,68.000000) scale(0.100000,-0.100000)" fill="#000000" stroke="none">
<g id="part-0" class="char-part">
  <path d="M475 540 c-9 -43 -29 -77 -74 -135 -41 -51 -47 -72 -11 -40 40 36 45
10 32 -147 -10 -123 -9 -145 3 -157 8 -8 18 -11 22 -7 14 13 16 307 3 331 -10
19 -5 30 39 89 56 73 59 81 35 90 -30 12 -42 6 -49 -24z"/>
  <path d="M337 553 c-4 -3 -7 -14 -7 -23 0 -9 -11 -27 -24 -39 l-25 -23 -34 21
c-52 32 -65 25 -28 -13 18 -19 30 -39 26 -46 -4 -6 -25 -23 -48 -37 -52 -33
-34 -41 29 -14 26 12 48 21 49 21 2 0 6 -14 10 -31 6 -26 2 -36 -26 -66 -19
-19 -60 -52 -93 -74 -32 -21 -52 -39 -45 -39 22 1 100 39 136 66 l33 25 0 -49
c0 -27 -5 -64 -11 -82 -11 -30 -14 -32 -50 -27 -22 3 -39 4 -39 2 0 -2 15 -21
34 -41 43 -47 75 -42 102 13 24 49 25 225 1 291 l-15 42 49 43 c49 43 51 55
12 76 -25 13 -27 13 -36 4z"/>
  <path d="M600 515 l-45 -13 58 -1 c55 -1 57 -2 57 -28 0 -43 -10 -50 -89 -57
-72 -6 -90 -11 -80 -21 6 -5 297 15 319 22 30 10 -34 24 -79 18 l-44 -7 22 38
c12 20 20 43 17 50 -7 18 -74 17 -136 -1z"/>
  <path d="M538 320 c-27 -47 -25 -68 2 -35 20 24 77 19 85 -6 4 -12 3 -25 -2
-29 -7 -8 -75 -18 -131 -19 -15 -1 -21 -5 -16 -12 4 -8 29 -10 71 -6 l65 5 -7
-27 c-9 -34 -30 -58 -84 -93 -31 -19 -39 -28 -25 -28 39 0 99 45 137 103 l38
57 87 0 c69 0 83 3 74 12 -9 9 -38 12 -87 10 -69 -3 -75 -1 -75 17 0 11 -7 24
-16 29 -12 7 1 11 45 16 35 4 59 11 56 17 -8 12 -66 11 -121 -2 -25 -6 -48 -8
-52 -4 -4 4 -1 10 6 12 18 7 14 33 -5 33 -11 0 -29 -20 -45 -50z"/>
  <path d="M711 163 c8 -10 16 -20 20 -23 3 -3 18 -22 33 -42 32 -43 56 -49 56
-15 0 26 -40 67 -83 85 -38 16 -42 15 -26 -5z"/>
</g>
<g id="part-1" class="char-part">
  <path d="M327 518 c-8 -18 -21 -39 -30 -47 -15 -12 -22 -10 -53 14 -47 36 -56
24 -15 -19 l33 -34 -53 -37 c-55 -38 -38 -40 33 -4 44 22 44 23 52 -86 7 -82
-6 -174 -25 -185 -7 -5 -27 -6 -44 -3 l-30 5 36 -37 c32 -33 39 -36 59 -25 12
6 28 27 36 45 20 48 18 207 -2 276 l-16 54 48 42 c40 36 45 44 34 57 -21 26
-48 19 -63 -16z"/>
</g>
<g id="part-2" class="char-part">
  <path d="M257 303 c-16 -18 -56 -51 -90 -74 -49 -33 -56 -40 -32 -35 17 4 48
16 70 28 67 34 98 69 86 99 -5 12 -12 8 -34 -18z"/>
</g>
<g id="part-3" class="char-part">
  <path d="M480 557 c0 -26 -60 -132 -95 -169 -35 -37 -30 -54 6 -22 10 9 23 13
28 9 14 -8 14 -87 0 -195 -5 -46 -8 -94 -4 -107 6 -26 30 -31 39 -7 11 30 7
309 -6 322 -8 8 1 28 40 82 57 77 60 85 36 94 -26 10 -44 7 -44 -7z"/>
</g>
<g id="part-4" class="char-part">
  <path d="M620 519 l-65 -18 58 2 59 2 -4 -37 c-3 -31 0 -38 15 -38 9 0 21 8
24 18 4 9 15 28 25 41 15 19 16 26 6 32 -31 16 -57 16 -118 -2z"/>
</g>
<g id="part-5" class="char-part">
  <path d="M635 265 c4 -33 3 -34 -24 -29 -17 4 -32 1 -36 -6 -5 -7 2 -10 21 -8
38 4 40 -32 2 -67 -15 -15 -28 -31 -28 -36 0 -6 -4 -8 -9 -4 -5 3 -12 1 -16
-5 -9 -14 17 -12 35 3 24 19 56 69 64 100 5 23 10 27 34 22 21 -4 20 -2 -8 9
-19 8 -27 15 -17 15 20 1 22 12 5 29 -21 21 -28 13 -23 -23z"/>
  <path d="M721 245 c3 -2 29 -7 59 -10 29 -3 50 -2 46 2 -3 4 -30 8 -58 10 -28
2 -49 1 -47 -2z"/>
  <path d="M487 218 c2 -5 17 -8 33 -8 16 0 31 3 33 8 3 4 -12 7 -33 7 -21 0
-36 -3 -33 -7z"/>
  <path d="M720 164 c0 -3 7 -12 15 -20 8 -8 22 -25 30 -37 13 -19 17 -20 26 -7
8 12 9 10 4 -7 -5 -17 -2 -23 9 -23 31 0 11 37 -31 57 -15 7 -20 11 -10 8 30
-8 19 12 -13 24 -16 5 -30 8 -30 5z"/>
</g>
</g>
</svg>