<?xml version="1.0" standalone="no"?>
<!DOCTYPE svg PUBLIC "-//W3C//DTD SVG 20010904//EN"
 "http://www.w3.org/TR/2001/REC-SVG-20010904/DTD/svg10.dtd">
<svg version="1.0" xmlns="http://www.w3.org/2000/svg"
 width="96.000000pt" height="68.000000pt" viewBox="0 0 96.000000 68.000000"
 preserveAspectRatio="xMidYMid meet">
<metadata>
Created by potrace 1.16, written by Peter Selinger 2001-2019
Combined from part_0.svg through part_5.svg with named groups
</metadata>
<g transform="translate(0.000000,68.000000) scale(0.100000,-0.100000)" fill="#000000" stroke="none">
<g id="part-0" class="char-part">
  <path d="M310 581 c0 -16 -64 -79 -84 -83 -15 -2 -19 -14 -22 -63 -6 -85 -31
-180 -65 -249 -45 -92 -17 -85 32 7 11 22 23 36 26 33 4 -3 7 -30 9 -58 3 -78
3 -78 19 -78 12 0 15 13 15 60 0 53 2 60 20 60 16 0 20 -7 20 -35 0 -24 5 -35
15 -35 10 0 15 10 15 34 0 25 5 35 20 39 18 5 20 0 20 -39 0 -44 12 -58 24
-28 3 9 6 29 6 45 0 25 4 29 28 29 26 0 28 -2 25 -37 -8 -76 -12 -86 -38 -80
-30 5 -31 0 -6 -32 12 -16 24 -22 35 -18 22 9 46 67 46 111 0 31 2 34 30 32
24 -1 35 6 53 34 l22 35 -47 -28 c-26 -15 -49 -23 -52 -19 -3 5 0 26 5 47 10
34 9 41 -8 53 -18 14 -37 13 -197 -4 -58 -7 -58 -7 -51 17 11 36 13 37 110 46
70 6 90 11 90 23 0 22 26 80 36 80 18 0 8 21 -14 31 -17 8 -39 7 -82 -5 -33
-8 -61 -13 -63 -11 -2 2 15 16 37 31 48 31 50 41 15 54 -32 13 -44 13 -44 1z
m85 -128 c-3 -20 -7 -39 -10 -41 -8 -8 -130 -20 -137 -13 -4 4 -4 20 0 36 7
26 15 31 63 41 90 19 91 19 84 -23z m-45 -189 c0 -27 -4 -34 -20 -34 -15 0
-18 6 -15 30 7 60 35 64 35 4z m80 21 c0 -14 0 -28 0 -32 0 -5 -10 -8 -22 -8
-16 0 -23 6 -22 18 1 9 2 24 3 32 0 8 10 15 21 15 15 0 20 -7 20 -25z m-150
-29 c0 -29 -3 -33 -20 -29 -14 4 -20 14 -20 34 0 22 5 29 20 29 16 0 20 -7 20
-34z"/>
  <path d="M745 487 c-69 -16 -72 -22 -13 -25 l57 -3 0 -117 c0 -64 -3 -144 -7
-177 -8 -63 -11 -66 -62 -50 -22 6 -19 1 17 -36 l43 -44 22 23 c22 21 23 32
28 220 3 108 3 200 0 203 -10 13 -46 16 -85 6z"/>
  <path d="M545 462 l-60 -17 58 -3 57 -3 0 -133 c0 -74 -3 -148 -6 -166 -7 -30
-9 -31 -43 -26 l-36 7 37 -36 c71 -66 86 -32 89 200 1 141 -1 179 -12 186 -16
10 -9 11 -84 -9z"/>
  <path d="M680 382 c0 -11 39 -52 50 -52 21 0 22 25 0 42 -23 19 -50 24 -50 10z"/>
  <path d="M502 345 c21 -24 58 -34 58 -16 0 14 -41 41 -62 41 -16 0 -16 -3 4
-25z"/>
  <path d="M703 252 c-45 -28 -50 -45 -16 -50 15 -2 27 6 39 27 10 17 22 31 26
31 4 0 8 5 8 10 0 15 -11 12 -57 -18z"/>
</g>
<g id="part-1" class="char-part">
  <path d="M310 570 c0 -5 -15 -26 -32 -46 -31 -36 -32 -37 -8 -29 20 5 73 36
110 63 2 2 -2 7 -10 12 -20 13 -60 13 -60 0z"/>
</g>
<g id="part-2" class="char-part">
  <path d="M298 317 c-74 -9 -78 -10 -87 -41 -12 -35 -10 -164 2 -184 18 -28 27
4 27 98 l0 99 58 6 c31 3 71 8 89 11 19 3 34 0 39 -8 9 -13 7 -129 -2 -172 -5
-25 -9 -27 -36 -22 l-29 6 21 -31 c13 -17 29 -29 39 -27 25 5 51 67 51 123 0
28 5 67 11 88 19 69 -7 77 -183 54z"/>
</g>
<g id="part-3" class="char-part">
  <path d="M540 460 l-55 -18 58 -1 57 -1 -1 -137 c-1 -174 -5 -189 -48 -186
l-33 1 33 -34 c18 -19 38 -34 45 -34 33 0 39 33 44 224 3 105 5 192 5 193 0 1
-11 4 -25 6 -14 3 -50 -3 -80 -13z"/>
</g>
<g id="part-4" class="char-part">
  <path d="M522 234 c-23 -14 -40 -30 -37 -35 12 -19 41 -8 68 26 33 42 27 44
-31 9z"/>
</g>
<g id="part-5" class="char-part">
  <path d="M693 237 c-25 -11 -29 -22 -12 -33 13 -7 43 19 38 34 -3 6 -12 6 -26
-1z"/>
</g>
</g>
</svg>