<?xml version="1.0" standalone="no"?>
<!DOCTYPE svg PUBLIC "-//W3C//DTD SVG 20010904//EN"
 "http://www.w3.org/TR/2001/REC-SVG-20010904/DTD/svg10.dtd">
<svg version="1.0" xmlns="http://www.w3.org/2000/svg"
 width="96.000000pt" height="68.000000pt" viewBox="0 0 96.000000 68.000000"
 preserveAspectRatio="xMidYMid meet">
<metadata>
Created by potrace 1.16, written by Peter Selinger 2001-2019
Combined from part_0.svg through part_5.svg with named groups
</metadata>
<g transform="translate(0.000000,68.000000) scale(0.100000,-0.100000)" fill="#000000" stroke="none">
<g id="part-0" class="char-part">
  <path d="M286 562 l7 -60 -69 -7 c-38 -3 -78 -10 -89 -15 -18 -7 -18 -9 10
-20 21 -8 47 -9 88 -3 l57 10 0 -29 c0 -24 -4 -28 -27 -29 -40 -1 -70 -14 -54
-23 14 -9 230 4 236 14 10 16 -26 32 -65 28 -35 -3 -40 -1 -40 18 0 24 31 34
106 34 32 0 44 4 44 15 0 20 -41 29 -102 22 l-49 -6 3 52 3 52 -32 3 -33 3 6
-59z"/>
  <path d="M570 556 c0 -31 -53 -162 -76 -187 -24 -27 -12 -33 19 -9 14 12 40
20 61 20 l36 0 -1 -57 c0 -32 -4 -66 -7 -76 -7 -15 -11 -14 -40 13 -18 16 -43
30 -54 30 -17 0 -12 -8 26 -41 l47 -42 -23 -24 c-13 -14 -47 -37 -77 -51 -30
-14 -49 -28 -44 -29 20 -7 120 28 138 47 10 11 21 20 25 20 3 0 31 -21 60 -46
54 -46 55 -46 113 -41 69 6 95 23 51 32 -43 9 -156 54 -178 70 -18 13 -17 16
4 84 21 69 20 110 -3 112 -24 2 39 17 76 18 20 1 37 5 37 11 0 19 -47 21 -114
6 -104 -25 -103 -27 -46 70 37 63 39 70 23 82 -28 20 -53 15 -53 -12z"/>
  <path d="M305 350 c10 -11 16 -22 13 -25 -5 -5 -187 -35 -210 -35 -5 0 -6 -5
-2 -11 5 -8 31 -10 85 -5 74 6 79 5 79 -13 0 -22 -72 -100 -122 -132 l-33 -21
30 7 c39 9 120 69 142 106 12 20 25 29 44 29 42 0 53 -22 37 -71 -18 -53 -40
-69 -69 -51 -11 7 -23 12 -24 10 -7 -7 47 -68 59 -68 22 0 60 52 83 112 25 65
23 69 -49 82 -45 8 -61 36 -20 36 45 0 102 12 102 21 0 5 -22 9 -50 9 -36 0
-50 4 -50 14 0 15 -21 26 -47 26 -14 0 -14 -3 2 -20z"/>
</g>
<g id="part-1" class="char-part">
  <path d="M287 578 c2 -24 6 -51 8 -60 3 -18 -9 -22 -108 -33 -36 -4 -55 -10
-51 -17 5 -7 34 -8 85 -4 l79 6 0 -29 c0 -28 -3 -30 -46 -37 -32 -5 -42 -10
-35 -17 8 -8 31 -8 81 1 39 7 86 12 105 12 19 0 35 4 35 9 0 15 -31 22 -66 15
-33 -6 -34 -5 -34 25 l0 31 69 0 c39 0 73 5 76 10 11 17 -47 32 -98 25 l-49
-7 3 47 c3 48 -8 65 -43 65 -13 0 -15 -8 -11 -42z"/>
</g>
<g id="part-2" class="char-part">
  <path d="M326 261 c-3 -5 8 -11 24 -15 36 -7 38 -23 10 -85 -20 -44 -25 -46
-73 -26 -16 7 -15 4 4 -29 25 -42 47 -45 79 -11 25 27 72 134 64 146 -5 8 -70
29 -91 29 -6 0 -14 -4 -17 -9z"/>
</g>
<g id="part-3" class="char-part">
  <path d="M567 540 c-3 -22 -24 -76 -46 -120 -39 -77 -42 -100 -7 -61 11 12 37
20 79 25 130 13 167 19 167 27 0 18 -49 20 -114 5 -95 -22 -103 -22 -82 7 26
36 66 115 66 131 0 14 -20 26 -45 26 -7 0 -15 -17 -18 -40z"/>
</g>
<g id="part-4" class="char-part">
  <path d="M623 382 c-6 -4 -12 -37 -15 -74 -2 -37 -7 -70 -11 -74 -4 -4 -21 7
-38 24 -17 18 -40 32 -52 32 -16 0 -10 -9 27 -41 l47 -42 -23 -25 c-13 -13
-50 -38 -83 -54 -59 -29 -59 -30 -20 -23 22 3 67 19 100 35 l60 29 28 -30 c52
-54 70 -62 137 -54 33 4 62 11 65 15 3 4 -17 13 -43 20 -65 16 -172 68 -172
84 0 7 9 39 20 71 11 32 20 65 20 74 0 19 -33 42 -47 33z"/>
</g>
</g>
</svg>