<?xml version="1.0" standalone="no"?>
<!DOCTYPE svg PUBLIC "-//W3C//DTD SVG 20010904//EN"
 "http://www.w3.org/TR/2001/REC-SVG-20010904/DTD/svg10.dtd">
<svg version="1.0" xmlns="http://www.w3.org/2000/svg"
 width="96.000000pt" height="68.000000pt" viewBox="0 0 96.000000 68.000000"
 preserveAspectRatio="xMidYMid meet">
<metadata>
Created by potrace 1.16, written by Peter Selinger 2001-2019
Combined from part_0.svg through part_5.svg with named groups
</metadata>
<g transform="translate(0.000000,68.000000) scale(0.100000,-0.100000)" fill="#000000" stroke="none">
<g id="part-0" class="char-part">
  <path d="M445 524 c-55 -7 -128 -14 -162 -15 -66 -1 -76 -10 -44 -37 11 -10
28 -46 39 -82 17 -61 20 -65 45 -62 19 2 27 -2 27 -13 0 -27 -59 -108 -106
-145 -24 -19 -50 -40 -57 -46 -7 -6 -24 -17 -37 -24 -42 -22 -4 -23 45 -1 89
39 220 174 213 218 -2 14 5 19 35 21 l38 3 -3 -93 c-3 -103 7 -137 54 -171 50
-37 217 -31 273 9 19 14 19 15 1 67 -25 71 -33 76 -41 27 -11 -67 -32 -80
-123 -80 -70 0 -81 3 -101 24 -21 22 -22 31 -17 98 11 139 7 128 45 128 28 0
33 3 28 20 -5 19 37 89 62 105 35 21 -22 66 -81 64 -18 -1 -78 -7 -133 -15z
m110 -56 c-17 -78 -26 -85 -120 -92 -47 -4 -89 -5 -94 -2 -5 4 -16 26 -24 51
-15 44 -15 45 6 50 27 7 160 22 205 24 33 1 33 0 27 -31z"/>
</g>
<g id="part-1" class="char-part">
  <path d="M435 519 c-77 -11 -157 -17 -178 -15 -41 5 -47 -5 -17 -25 12 -9 28
-40 39 -79 10 -36 22 -65 27 -65 136 7 305 26 287 32 -16 6 -3 32 44 90 l34
43 -33 20 c-18 11 -40 19 -48 19 -8 -1 -78 -10 -155 -20z m122 -51 c-13 -78
-20 -86 -89 -93 -35 -4 -81 -5 -102 -3 -37 3 -40 6 -52 48 -7 25 -10 48 -6 52
11 10 119 25 191 27 l64 1 -6 -32z"/>
</g>
<g id="part-2" class="char-part">
  <path d="M346 305 c-9 -44 -87 -131 -168 -185 -73 -48 -50 -54 40 -9 60 30
151 117 181 173 18 32 8 56 -23 56 -19 0 -25 -6 -30 -35z"/>
</g>
<g id="part-3" class="char-part">
  <path d="M475 246 c1 -119 12 -145 76 -179 62 -33 269 -5 269 36 0 8 -6 30
-14 48 -7 19 -16 43 -21 54 -6 17 -9 13 -20 -23 -22 -72 -37 -82 -120 -82 -59
0 -77 4 -100 22 -26 20 -27 23 -22 97 3 42 7 87 9 101 3 21 -1 25 -27 28 l-30
3 0 -105z"/>
</g>
</g>
</svg>