<?xml version="1.0" standalone="no"?>
<!DOCTYPE svg PUBLIC "-//W3C//DTD SVG 20010904//EN"
 "http://www.w3.org/TR/2001/REC-SVG-20010904/DTD/svg10.dtd">
<svg version="1.0" xmlns="http://www.w3.org/2000/svg"
 width="96.000000pt" height="68.000000pt" viewBox="0 0 96.000000 68.000000"
 preserveAspectRatio="xMidYMid meet">
<metadata>
Created by potrace 1.16, written by Peter Selinger 2001-2019
Combined from part_0.svg through part_5.svg with named groups
</metadata>
<g transform="translate(0.000000,68.000000) scale(0.100000,-0.100000)" fill="#000000" stroke="none">
<g id="part-0" class="char-part">
  <path d="M538 553 l-3 -48 -77 -9 c-105 -12 -103 -31 2 -22 75 6 80 5 80 -13
0 -36 -29 -54 -78 -47 l-44 6 6 -33 c3 -17 6 -72 7 -122 l2 -90 -56 -3 c-32
-2 -57 -7 -57 -11 0 -16 49 -21 117 -11 37 5 139 10 225 10 88 0 159 4 163 9
10 17 -31 31 -86 31 l-52 0 7 88 c4 48 10 97 12 108 8 30 -46 48 -96 34 -19
-6 -36 -10 -37 -10 -5 0 -3 39 3 54 5 12 22 16 73 17 36 0 75 4 86 8 19 8 19
8 0 18 -13 7 -44 7 -85 3 -36 -5 -67 -7 -69 -4 -2 2 2 15 9 29 15 28 1 55 -31
55 -14 0 -19 -9 -21 -47z m107 -168 c0 -12 -6 -19 -14 -17 -8 2 -45 -2 -83 -9
-84 -15 -92 -35 -10 -25 105 13 107 13 107 -9 0 -15 -7 -20 -30 -21 -16 0 -56
-4 -87 -8 l-58 -8 0 43 c0 59 7 67 60 72 88 8 115 4 115 -18z m3 -112 c-3 -15
-20 -20 -91 -29 -83 -9 -112 -4 -91 16 5 5 41 13 79 18 105 14 107 14 103 -5z
m-8 -62 c0 -15 -11 -19 -61 -25 -102 -10 -121 -8 -117 12 3 14 17 18 78 23 41
3 81 6 88 7 6 1 12 -6 12 -17z"/>
  <path d="M228 413 c2 -87 -1 -200 -7 -251 -11 -103 -3 -146 27 -140 15 3 18
20 23 118 4 63 7 146 8 184 l1 68 34 -26 c41 -30 52 -32 60 -9 8 20 -25 49
-67 59 l-28 6 6 63 c6 57 5 64 -13 74 -46 25 -47 21 -44 -146z"/>
  <path d="M130 356 c-25 -63 -23 -90 6 -94 17 -2 23 5 34 41 12 44 6 107 -10
107 -4 0 -18 -24 -30 -54z"/>
  <path d="M445 111 c-3 -12 -27 -35 -51 -53 -25 -18 -41 -34 -35 -36 8 -3 128
57 150 75 7 5 -12 20 -36 27 -16 5 -23 2 -28 -13z"/>
  <path d="M652 86 c49 -47 85 -69 98 -61 28 17 -10 64 -69 84 -60 20 -68 13
-29 -23z"/>
</g>
<g id="part-1" class="char-part">
  <path d="M226 561 c-3 -5 -1 -23 6 -41 11 -32 7 -194 -8 -397 -6 -73 -5 -83
11 -89 10 -4 21 -1 26 7 5 8 9 92 9 187 0 94 3 172 6 172 3 0 19 -11 36 -25
33 -28 58 -32 58 -11 0 20 -39 46 -67 46 -30 0 -32 7 -22 70 8 50 7 57 -12 73
-24 19 -35 21 -43 8z"/>
  <path d="M136 360 c-22 -55 -21 -103 1 -98 31 6 53 138 23 138 -4 0 -15 -18
-24 -40z"/>
</g>
<g id="part-2" class="char-part">
  <path d="M538 551 l4 -49 -86 -7 c-54 -5 -83 -11 -79 -17 3 -7 35 -8 84 -4
l79 6 -7 -31 c-5 -26 -3 -31 12 -27 11 2 22 16 27 36 8 31 10 32 66 33 31 1
71 4 87 8 29 7 29 7 9 19 -16 8 -38 9 -80 2 -33 -6 -61 -10 -63 -10 -2 0 -1
14 3 31 7 37 -7 59 -38 59 -19 0 -21 -5 -18 -49z"/>
</g>
<g id="part-3" class="char-part">
  <path d="M600 429 c-19 -5 -68 -10 -108 -11 l-73 -3 5 -29 c3 -16 6 -68 6
-117 0 -71 3 -89 14 -89 10 0 17 16 21 44 l7 45 57 6 c123 14 116 16 113 -38
-4 -46 -3 -48 20 -45 21 3 24 10 30 73 3 39 9 88 12 111 5 37 3 42 -20 53 -28
12 -35 13 -84 0z m45 -43 c0 -15 -8 -19 -35 -21 -19 -1 -59 -5 -87 -10 -44 -6
-53 -5 -53 7 0 32 48 47 140 44 27 -1 35 -5 35 -20z m0 -60 c0 -15 -8 -19 -35
-21 -19 -1 -59 -5 -87 -10 -49 -7 -53 -6 -53 12 0 17 10 22 73 30 92 13 102
12 102 -11z"/>
</g>
<g id="part-4" class="char-part">
  <path d="M445 111 c-3 -11 -28 -36 -56 -56 -27 -20 -49 -38 -49 -40 0 -9 140
59 169 82 7 5 -12 20 -36 27 -16 5 -23 2 -28 -13z"/>
  <path d="M670 71 c58 -53 90 -64 90 -33 0 32 -40 59 -115 76 -28 6 -26 3 25
-43z"/>
</g>
</g>
</svg>