<?xml version="1.0" standalone="no"?>
<!DOCTYPE svg PUBLIC "-//W3C//DTD SVG 20010904//EN"
 "http://www.w3.org/TR/2001/REC-SVG-20010904/DTD/svg10.dtd">
<svg version="1.0" xmlns="http://www.w3.org/2000/svg"
 width="96.000000pt" height="68.000000pt" viewBox="0 0 96.000000 68.000000"
 preserveAspectRatio="xMidYMid meet">
<metadata>
Created by potrace 1.16, written by Peter Selinger 2001-2019
Combined from part_0.svg through part_5.svg with named groups
</metadata>
<g transform="translate(0.000000,68.000000) scale(0.100000,-0.100000)" fill="#000000" stroke="none">
<g id="part-0" class="char-part">
  <path d="M430 620 c0 -15 71 -59 86 -53 24 9 16 43 -12 53 -33 13 -74 13 -74
0z"/>
  <path d="M246 613 c-3 -4 14 -25 39 -48 25 -23 45 -47 45 -52 0 -6 -25 -21
-55 -33 -96 -39 -58 -52 56 -20 43 13 48 12 74 -8 l27 -21 -46 -23 c-25 -12
-46 -26 -46 -30 0 -11 -1 -11 62 11 l55 19 74 -36 c75 -36 180 -55 193 -34 6
10 -34 102 -45 102 -4 0 -9 -13 -12 -30 -8 -38 -32 -39 -106 -5 l-55 26 52 35
c29 19 52 39 52 45 0 5 -15 16 -32 24 -32 13 -33 13 -48 -18 -8 -17 -27 -38
-41 -46 -24 -13 -28 -13 -44 2 -9 9 -22 17 -28 17 -7 1 3 7 21 15 17 8 32 18
32 24 0 16 -37 23 -59 12 -30 -17 -36 -14 -59 28 -12 21 -29 42 -38 45 -21 8
-59 8 -68 -1z"/>
  <path d="M230 401 c0 -5 6 -16 13 -23 20 -21 57 -75 57 -85 0 -4 -12 -14 -27
-20 -16 -7 -46 -20 -68 -30 -61 -26 -14 -29 60 -3 l60 21 32 -38 c18 -21 32
-42 30 -48 -1 -5 -54 -36 -117 -68 -63 -31 -112 -57 -109 -57 20 0 123 37 182
66 66 32 107 37 107 13 0 -5 5 -9 11 -9 6 0 25 -10 42 -23 49 -36 115 -58 195
-64 83 -7 87 -1 52 67 -11 22 -20 46 -20 55 0 30 -19 14 -31 -25 -11 -37 -15
-40 -50 -40 -20 0 -66 13 -101 29 -101 47 -100 45 -44 95 42 38 48 47 37 60
-19 23 -49 20 -56 -6 -8 -25 -44 -68 -56 -68 -9 0 -69 62 -69 71 0 3 16 11 35
19 51 20 44 34 -14 26 l-49 -6 -12 37 c-7 21 -17 44 -23 51 -11 14 -67 17 -67
3z"/>
  <path d="M433 366 c2 -5 15 -19 30 -30 20 -15 30 -17 39 -8 8 8 8 15 -1 25
-14 17 -73 29 -68 13z"/>
</g>
<g id="part-1" class="char-part">
  <path d="M458 600 c35 -33 65 -36 70 -8 3 17 -7 22 -68 33 l-35 6 33 -31z"/>
  <path d="M250 600 c0 -5 4 -10 8 -10 11 0 82 -70 82 -81 0 -3 -25 -17 -55 -29
-30 -12 -55 -26 -55 -31 0 -14 20 -11 87 13 l63 22 25 -24 c14 -13 25 -26 25
-30 0 -3 -16 -14 -36 -24 -50 -23 -38 -29 22 -9 l50 15 73 -37 c46 -23 95 -39
127 -42 50 -5 54 -4 54 15 0 11 -4 23 -9 27 -5 3 -13 20 -17 38 l-7 32 -14
-32 c-9 -24 -19 -33 -37 -33 -28 0 -83 18 -113 38 -23 14 -23 14 22 44 56 37
63 48 40 65 -24 17 -45 17 -45 0 0 -7 -15 -28 -34 -46 l-34 -33 -32 22 -31 22
33 21 33 22 -27 3 c-15 2 -36 -1 -46 -7 -21 -11 -32 -3 -65 52 -14 21 -25 27
-52 27 -19 0 -35 -4 -35 -10z"/>
</g>
<g id="part-2" class="char-part">
  <path d="M220 405 c0 -3 10 -16 21 -28 22 -23 59 -78 59 -88 0 -3 -33 -19 -72
-35 -57 -22 -67 -30 -48 -32 14 -2 53 6 86 16 l61 19 33 -39 c18 -23 29 -43
24 -48 -5 -5 -57 -34 -116 -64 -60 -31 -103 -56 -98 -56 21 0 135 42 192 71
l59 30 32 -25 c66 -51 165 -89 243 -94 87 -5 88 -5 45 89 l-29 64 -9 -45 c-8
-44 -10 -45 -49 -48 -43 -3 -141 33 -176 65 -18 16 -16 19 29 58 42 37 46 44
34 59 -17 21 -51 21 -51 0 0 -8 -14 -30 -31 -47 l-31 -31 -35 38 -35 38 41 19
c22 10 41 21 41 25 0 4 -25 4 -55 1 l-55 -6 -12 42 c-7 23 -17 45 -23 49 -12
9 -75 11 -75 3z"/>
  <path d="M430 370 c0 -10 49 -50 62 -50 11 0 23 29 15 36 -10 10 -77 22 -77
14z"/>
</g>
</g>
</svg>