<?xml version="1.0" standalone="no"?>
<!DOCTYPE svg PUBLIC "-//W3C//DTD SVG 20010904//EN"
 "http://www.w3.org/TR/2001/REC-SVG-20010904/DTD/svg10.dtd">
<svg version="1.0" xmlns="http://www.w3.org/2000/svg"
 width="96.000000pt" height="68.000000pt" viewBox="0 0 96.000000 68.000000"
 preserveAspectRatio="xMidYMid meet">
<metadata>
Created by potrace 1.16, written by Peter Selinger 2001-2019
Combined from part_0.svg through part_5.svg with named groups
</metadata>
<g transform="translate(0.000000,68.000000) scale(0.100000,-0.100000)" fill="#000000" stroke="none">
<g id="part-0" class="char-part">
  <path d="M215 521 c-16 -4 -43 -6 -60 -3 l-30 4 0 -186 c1 -138 4 -189 14
-198 10 -11 15 -10 25 5 20 26 89 23 108 -4 17 -26 53 -19 63 12 4 11 7 94 7
186 0 149 -2 168 -18 180 -19 14 -60 15 -109 4z m65 -96 c0 -64 0 -65 -27 -65
-16 0 -38 -3 -50 -6 -22 -6 -23 -4 -23 58 0 36 3 68 7 71 3 4 26 7 50 7 l43 0
0 -65z m0 -162 l0 -68 -50 -1 -50 0 0 62 c0 68 2 71 68 73 l32 1 0 -67z"/>
  <path d="M515 515 c-49 -7 -98 -14 -108 -14 -10 -1 -15 -5 -12 -11 3 -5 33
-10 65 -10 59 0 59 0 65 -33 4 -18 5 -51 3 -72 -3 -39 -4 -40 -43 -43 -66 -5
-74 -16 -15 -22 l55 -5 3 -72 c3 -84 5 -82 -106 -84 -40 -1 -72 -5 -72 -9 0
-11 60 -31 72 -24 6 4 96 9 201 13 130 4 192 10 194 18 8 22 -59 34 -133 23
-111 -16 -104 -19 -104 58 0 37 4 72 8 78 4 6 31 15 60 19 28 4 52 11 52 16 0
12 -38 20 -80 17 l-35 -3 3 53 c1 30 -2 60 -8 67 -8 10 0 14 37 19 82 11 103
17 97 27 -7 12 -88 9 -199 -6z"/>
</g>
<g id="part-1" class="char-part">
  <path d="M230 519 c-19 -5 -51 -8 -70 -7 -30 2 -34 0 -30 -17 6 -23 6 -194 1
-278 -5 -66 8 -89 34 -63 27 27 85 21 111 -11 22 -27 23 -27 41 -10 16 16 18
37 18 197 0 177 0 179 -23 190 -26 11 -33 11 -82 -1z m50 -45 c6 -14 10 -45
10 -68 l0 -43 -46 -7 c-73 -10 -74 -9 -74 27 0 69 12 106 34 110 52 10 66 7
76 -19z m5 -210 l0 -69 -58 -3 -58 -3 3 68 3 68 45 6 c25 3 50 5 55 4 6 -1 10
-33 10 -71z"/>
</g>
<g id="part-2" class="char-part">
  <path d="M649 536 c-4 -4 -229 -36 -252 -36 -4 0 -5 -4 -2 -10 3 -5 32 -10 63
-10 68 1 249 24 258 33 4 4 -5 11 -20 17 -30 11 -40 12 -47 6z"/>
</g>
<g id="part-3" class="char-part">
  <path d="M533 481 c-17 -5 -20 -10 -13 -21 5 -8 10 -38 10 -66 0 -57 -8 -64
-77 -64 -54 0 -37 -19 20 -22 l52 -3 3 -71 c3 -83 3 -84 -110 -84 -38 0 -68
-4 -68 -9 0 -20 59 -30 122 -21 35 5 120 10 190 10 125 0 158 4 158 20 0 20
-68 30 -136 20 -113 -16 -105 -21 -102 68 l3 77 58 9 c31 4 57 12 57 17 0 10
-56 21 -90 17 -24 -3 -25 -2 -22 54 4 62 -11 81 -55 69z"/>
</g>
</g>
</svg>