<?xml version="1.0" standalone="no"?>
<!DOCTYPE svg PUBLIC "-//W3C//DTD SVG 20010904//EN"
 "http://www.w3.org/TR/2001/REC-SVG-20010904/DTD/svg10.dtd">
<svg version="1.0" xmlns="http://www.w3.org/2000/svg"
 width="96.000000pt" height="68.000000pt" viewBox="0 0 96.000000 68.000000"
 preserveAspectRatio="xMidYMid meet">
<metadata>
Created by potrace 1.16, written by Peter Selinger 2001-2019
Combined from part_0.svg through part_5.svg with named groups
</metadata>
<g transform="translate(0.000000,68.000000) scale(0.100000,-0.100000)" fill="#000000" stroke="none">
<g id="part-0" class="char-part">
  <path d="M204 563 c4 -16 10 -56 13 -90 5 -62 5 -63 -20 -63 -39 0 -87 -12
-87 -21 0 -5 20 -9 45 -9 32 0 45 -4 45 -14 0 -18 -73 -127 -105 -158 -31 -29
-32 -41 -2 -33 27 9 73 50 99 90 l20 30 -7 -120 c-6 -124 -2 -155 20 -155 21
0 26 27 32 163 6 124 7 127 25 110 13 -12 21 -14 30 -5 15 15 3 41 -27 52 -33
12 -35 50 -2 50 12 0 29 5 37 10 13 9 13 11 0 20 -8 5 -25 10 -36 10 -21 0
-21 4 -16 67 4 56 2 68 -13 80 -11 7 -27 13 -38 13 -16 0 -18 -5 -13 -27z"/>
  <path d="M370 542 c0 -5 9 -20 19 -33 16 -20 22 -22 33 -11 9 9 10 17 2 30
-12 18 -54 29 -54 14z"/>
  <path d="M630 517 l-85 -10 0 -116 c0 -82 4 -122 14 -137 12 -18 11 -25 -4
-58 -10 -20 -31 -51 -47 -68 -31 -34 -31 -46 1 -29 28 15 83 97 91 135 3 18
12 31 20 31 12 0 15 -18 16 -88 1 -107 9 -116 101 -117 65 0 113 15 113 35 0
7 -7 27 -16 44 l-16 33 -19 -41 c-18 -41 -18 -41 -74 -41 -37 0 -55 4 -56 13
-3 35 3 85 13 111 10 24 9 31 -7 42 -18 13 -18 14 2 14 11 0 24 -8 27 -17 6
-14 9 -15 20 -2 22 22 27 258 6 268 -8 3 -53 3 -100 -2z m70 -47 c0 -26 -3
-30 -29 -30 -16 0 -43 -3 -60 -6 -29 -6 -31 -5 -31 24 0 34 10 39 78 41 40 1
42 0 42 -29z m0 -75 c0 -22 -4 -25 -37 -26 -21 0 -48 -2 -60 -5 -19 -3 -23 1
-23 20 0 26 14 31 88 35 28 1 32 -2 32 -24z m0 -69 l0 -34 -60 -4 -60 -3 0 32
c0 28 3 32 21 30 16 -3 83 6 97 12 1 0 2 -14 2 -33z"/>
  <path d="M393 471 c-72 -16 -96 -26 -68 -29 33 -4 42 -4 89 4 l48 7 -7 -44
c-7 -40 -18 -58 -37 -59 -4 0 -12 18 -18 40 -6 24 -17 40 -25 40 -18 0 -18 -2
0 -46 11 -27 11 -36 2 -39 -38 -11 -39 -13 -9 -14 27 -1 32 -5 32 -25 0 -25
-16 -36 -56 -36 -13 0 -24 -5 -24 -11 0 -7 15 -10 40 -7 l40 4 0 -73 0 -73
-31 0 -31 0 23 -25 c28 -29 42 -31 63 -9 12 12 16 36 16 100 l0 84 40 6 c47 8
43 24 -6 24 -29 0 -33 3 -30 23 2 17 11 23 34 25 38 4 43 22 7 22 -25 0 -25 1
-11 28 8 15 16 36 18 47 1 11 8 23 13 28 6 4 4 11 -5 17 -18 12 -16 12 -107
-9z"/>
  <path d="M470 220 c0 -4 9 -18 19 -31 15 -19 22 -21 32 -12 9 9 9 15 0 26 -13
17 -51 29 -51 17z"/>
  <path d="M313 174 c-18 -24 -29 -44 -25 -44 16 0 83 70 77 80 -10 17 -18 11
-52 -36z"/>
</g>
<g id="part-1" class="char-part">
  <path d="M210 554 c6 -14 10 -51 10 -83 0 -57 -1 -59 -31 -65 -17 -3 -42 -6
-55 -6 -13 0 -24 -4 -24 -10 0 -5 23 -10 50 -10 28 0 50 -2 50 -5 0 -16 -46
-91 -85 -140 -25 -30 -42 -55 -37 -55 16 0 54 34 92 82 39 48 40 49 40 21 0
-15 -5 -68 -11 -118 -11 -97 -7 -135 15 -135 22 0 26 24 26 161 0 71 4 129 9
129 5 0 14 -7 21 -15 16 -20 40 -19 40 1 0 8 -16 22 -36 30 -44 18 -42 45 4
59 17 5 32 12 32 16 0 12 -38 21 -51 13 -9 -5 -10 10 -5 60 8 75 -1 96 -40 96
-21 0 -23 -3 -14 -26z"/>
</g>
<g id="part-2" class="char-part">
  <path d="M370 545 c0 -19 27 -55 42 -55 21 0 25 29 6 48 -11 11 -48 17 -48 7z"/>
  <path d="M387 473 c-54 -11 -75 -19 -68 -26 7 -7 38 -6 97 1 93 12 100 15 89
31 -8 13 -18 13 -118 -6z"/>
</g>
<g id="part-3" class="char-part">
  <path d="M400 306 c0 -24 -21 -36 -68 -36 -13 0 -20 -4 -17 -10 3 -5 24 -10
46 -10 l39 0 0 -71 0 -72 -37 6 -36 6 28 -29 c58 -61 85 -32 85 89 l0 81 40 6
c47 8 44 24 -5 24 -28 0 -32 3 -28 20 4 16 0 20 -21 20 -21 0 -26 -5 -26 -24z"/>
  <path d="M480 200 c23 -32 35 -37 46 -18 8 13 -30 48 -53 48 -11 0 -9 -7 7
-30z"/>
  <path d="M312 175 c-18 -25 -28 -45 -22 -45 19 0 83 66 76 78 -11 19 -19 14
-54 -33z"/>
</g>
<g id="part-4" class="char-part">
  <path d="M640 208 c-4 -102 -3 -108 16 -129 24 -27 141 -28 175 0 l23 18 -21
42 -21 41 -6 -34 c-9 -47 -26 -58 -88 -54 l-53 3 3 54 c1 29 8 63 14 74 8 16
7 23 -8 34 -29 21 -32 17 -34 -49z"/>
</g>
</g>
</svg>