<?xml version="1.0" standalone="no"?>
<!DOCTYPE svg PUBLIC "-//W3C//DTD SVG 20010904//EN"
 "http://www.w3.org/TR/2001/REC-SVG-20010904/DTD/svg10.dtd">
<svg version="1.0" xmlns="http://www.w3.org/2000/svg"
 width="96.000000pt" height="68.000000pt" viewBox="0 0 96.000000 68.000000"
 preserveAspectRatio="xMidYMid meet">
<metadata>
Created by potrace 1.16, written by Peter Selinger 2001-2019
Combined from part_0.svg through part_5.svg with named groups
</metadata>
<g transform="translate(0.000000,68.000000) scale(0.100000,-0.100000)" fill="#000000" stroke="none">
<g id="part-0" class="char-part">
  <path d="M550 595 c-8 -2 -91 -11 -185 -20 -93 -9 -180 -18 -192 -21 -26 -5
-31 -24 -8 -24 9 0 20 -12 25 -26 12 -31 12 -264 1 -319 -5 -22 -12 -54 -16
-70 -6 -26 -3 -33 18 -44 21 -11 36 -10 98 4 56 13 126 17 283 19 220 1 245 7
191 42 -24 16 -40 16 -193 5 -92 -7 -202 -15 -244 -18 l-78 -6 0 95 c0 52 3
143 7 201 5 90 9 107 24 112 10 3 108 12 219 20 202 13 250 24 196 45 -25 9
-110 12 -146 5z"/>
  <path d="M520 489 c-25 -5 -84 -10 -131 -12 l-85 -2 17 -30 c9 -16 20 -50 23
-75 8 -54 30 -98 40 -81 4 6 23 11 42 11 l34 0 0 -75 c0 -57 3 -75 14 -75 15
0 26 43 26 105 0 41 1 43 36 50 22 4 41 2 47 -4 12 -12 48 -15 45 -3 0 4 3 16
7 27 4 11 17 42 27 70 11 27 24 56 30 63 18 22 -7 35 -69 38 -32 2 -78 -1
-103 -7z m98 -41 c-3 -32 -4 -33 -54 -36 -50 -3 -52 -2 -56 27 -4 27 -1 30 26
34 85 11 88 10 84 -25z m-158 -18 c0 -29 -2 -30 -45 -30 -32 0 -45 4 -45 14 0
8 -3 21 -6 30 -5 13 2 16 45 16 50 0 51 -1 51 -30z m150 -42 c-1 -44 -12 -56
-56 -60 -45 -3 -45 -3 -42 27 3 26 8 31 38 36 56 10 60 10 60 -3z m-150 -38
c0 -28 -3 -30 -35 -30 -24 0 -35 5 -35 14 0 8 -3 21 -6 30 -5 13 2 16 35 16
39 0 41 -2 41 -30z"/>
</g>
<g id="part-1" class="char-part">
  <path d="M395 575 c-116 -13 -216 -24 -222 -24 -18 -1 -16 -21 1 -21 7 0 19
-20 26 -46 15 -53 8 -257 -12 -343 -11 -49 -10 -54 7 -67 11 -8 26 -12 35 -9
45 18 127 26 328 32 122 3 222 10 222 14 0 5 -11 16 -24 24 -22 14 -45 14
-262 -4 -134 -11 -243 -16 -248 -11 -9 9 7 396 17 406 3 3 104 13 224 21 120
9 220 17 222 20 3 2 0 8 -5 13 -20 20 -103 18 -309 -5z"/>
</g>
<g id="part-2" class="char-part">
  <path d="M550 493 c-36 -7 -107 -14 -157 -15 -51 -2 -93 -4 -93 -6 0 -2 6 -10
14 -18 8 -7 22 -46 31 -86 19 -84 23 -92 38 -80 17 14 193 22 206 9 19 -19 39
2 60 66 12 35 28 73 36 83 20 26 19 30 -12 42 -49 18 -57 18 -123 5z m70 -48
l0 -35 -56 0 c-51 0 -56 2 -51 20 3 11 0 23 -6 27 -7 5 5 11 28 14 84 13 85
12 85 -26z m-162 -17 c3 -27 1 -28 -41 -28 -37 0 -46 4 -50 22 -9 32 0 39 46
36 37 -3 42 -6 45 -30z m148 -50 c-3 -13 -6 -29 -6 -35 0 -9 -16 -13 -46 -13
-44 0 -45 1 -42 28 2 22 9 28 38 33 61 11 63 11 56 -13z m-146 -28 c0 -28 -3
-30 -35 -30 -19 0 -35 3 -35 8 0 4 -3 17 -6 30 -6 20 -3 22 35 22 39 0 41 -2
41 -30z"/>
</g>
<g id="part-3" class="char-part">
  <path d="M460 233 c0 -81 13 -112 29 -70 6 16 11 53 11 83 0 47 -2 54 -20 54
-18 0 -20 -7 -20 -67z"/>
</g>
</g>
</svg>