<?xml version="1.0" standalone="no"?>
<!DOCTYPE svg PUBLIC "-//W3C//DTD SVG 20010904//EN"
 "http://www.w3.org/TR/2001/REC-SVG-20010904/DTD/svg10.dtd">
<svg version="1.0" xmlns="http://www.w3.org/2000/svg"
 width="96.000000pt" height="68.000000pt" viewBox="0 0 96.000000 68.000000"
 preserveAspectRatio="xMidYMid meet">
<metadata>
Created by potrace 1.16, written by Peter Selinger 2001-2019
Combined from part_0.svg through part_5.svg with named groups
</metadata>
<g transform="translate(0.000000,68.000000) scale(0.100000,-0.100000)" fill="#000000" stroke="none">
<g id="part-0" class="char-part">
  <path d="M636 533 c-65 -16 -69 -23 -12 -23 l47 0 -3 -37 c-3 -37 -4 -38 -55
-47 -53 -9 -73 -26 -30 -26 60 0 128 14 124 24 -3 7 4 30 14 51 11 22 17 45
15 51 -7 18 -46 21 -100 7z"/>
  <path d="M430 530 c-14 -4 -41 -8 -60 -9 l-35 -1 0 -190 c0 -164 -2 -189 -15
-186 -8 2 -26 7 -41 10 -22 5 -25 10 -21 39 3 28 -2 38 -27 60 l-31 26 35 27
c42 31 44 51 9 64 -19 8 -37 5 -72 -9 -26 -11 -55 -22 -65 -25 -36 -12 -6 -28
39 -21 44 6 44 6 33 -18 -10 -22 -8 -30 15 -60 14 -18 26 -44 26 -55 0 -20 -5
-22 -70 -22 -72 0 -82 -7 -53 -35 11 -11 25 -15 42 -11 85 20 98 18 299 -40
l201 -58 83 21 c94 24 143 41 136 49 -3 2 -90 9 -194 15 -171 9 -303 26 -306
39 -1 3 2 24 5 46 l7 42 65 7 c36 3 65 11 65 17 0 7 -22 9 -65 4 l-65 -7 0 29
c0 28 2 30 60 36 33 4 60 12 60 17 0 7 -20 9 -60 4 l-60 -7 0 30 c0 25 5 30
31 36 17 3 47 6 66 6 23 0 33 4 30 13 -2 6 5 32 15 56 10 25 17 50 14 58 -6
14 -56 16 -96 3z m43 -57 c-7 -48 -9 -49 -60 -58 -42 -7 -43 -6 -43 22 0 63 8
73 61 73 l48 0 -6 -37z"/>
  <path d="M130 512 c0 -20 63 -82 85 -82 24 0 38 21 29 44 -11 28 -114 62 -114
38z"/>
  <path d="M616 349 c-38 -10 -71 -21 -74 -24 -5 -5 25 -34 63 -61 27 -20 12
-42 -55 -76 -44 -24 -48 -28 -26 -28 15 0 49 11 76 25 27 14 53 25 58 25 5 0
23 -13 40 -30 18 -17 39 -30 47 -30 27 0 16 39 -20 67 -19 15 -35 33 -35 38 0
6 13 27 30 47 23 27 27 38 17 46 -23 19 -53 19 -121 1z m54 -53 c-6 -16 -16
-26 -23 -23 -38 16 -67 33 -67 38 0 9 84 26 93 19 4 -4 3 -19 -3 -34z"/>
</g>
<g id="part-1" class="char-part">
  <path d="M139 502 c15 -28 71 -74 85 -69 6 2 12 13 14 25 4 24 -26 47 -76 57
-31 6 -33 6 -23 -13z"/>
  <path d="M170 355 c-14 -8 -33 -14 -42 -15 -9 0 -20 -5 -24 -11 -5 -9 6 -10
40 -7 47 6 53 0 36 -31 -7 -14 -5 -23 10 -36 21 -19 46 -83 36 -93 -4 -3 -36
-8 -72 -10 -42 -3 -64 -8 -61 -16 3 -7 31 -10 84 -8 73 4 98 -1 256 -47 96
-28 192 -51 214 -51 42 0 182 36 197 51 6 5 -16 9 -60 9 -123 1 -306 18 -426
41 -115 22 -116 23 -107 46 12 32 13 28 -21 66 l-29 34 29 28 c33 32 38 50 14
59 -24 9 -47 7 -74 -9z"/>
</g>
<g id="part-2" class="char-part">
  <path d="M425 529 c-16 -5 -47 -7 -69 -4 -34 5 -37 4 -30 -12 4 -10 10 -42 12
-70 4 -52 4 -53 37 -53 18 0 53 3 79 6 36 5 46 11 46 26 0 10 9 37 21 60 17
33 18 42 7 49 -17 11 -65 10 -103 -2z m45 -59 c-4 -23 -9 -42 -11 -44 -2 -2
-23 -6 -46 -10 -42 -6 -43 -5 -43 21 0 63 9 73 60 73 l47 0 -7 -40z"/>
</g>
<g id="part-3" class="char-part">
  <path d="M336 284 c-3 -9 -6 -37 -6 -64 0 -53 7 -80 21 -80 5 0 9 10 9 23 0
57 8 64 76 72 35 4 64 11 64 17 0 7 -22 9 -65 5 -64 -6 -65 -6 -65 18 0 28
-24 34 -34 9z"/>
</g>
<g id="part-4" class="char-part">
  <path d="M615 349 c-38 -11 -74 -20 -79 -22 -5 -2 14 -20 43 -42 49 -37 50
-40 33 -58 -9 -11 -39 -30 -67 -43 -45 -22 -47 -24 -21 -24 16 0 53 13 82 30
l52 29 38 -34 c21 -19 44 -35 51 -35 26 0 12 39 -22 66 -19 14 -35 32 -35 38
0 6 13 28 30 48 23 27 27 38 17 46 -23 19 -53 19 -122 1z m65 -25 c0 -5 -19
-45 -25 -52 -2 -2 -23 7 -47 19 l-43 23 30 7 c39 9 85 11 85 3z"/>
</g>
</g>
</svg>