<?xml version="1.0" standalone="no"?>
<!DOCTYPE svg PUBLIC "-//W3C//DTD SVG 20010904//EN"
 "http://www.w3.org/TR/2001/REC-SVG-20010904/DTD/svg10.dtd">
<svg version="1.0" xmlns="http://www.w3.org/2000/svg"
 width="96.000000pt" height="68.000000pt" viewBox="0 0 96.000000 68.000000"
 preserveAspectRatio="xMidYMid meet">
<metadata>
Created by potrace 1.16, written by Peter Selinger 2001-2019
Combined from part_0.svg through part_5.svg with named groups
</metadata>
<g transform="translate(0.000000,68.000000) scale(0.100000,-0.100000)" fill="#000000" stroke="none">
<g id="part-0" class="char-part">
  <path d="M568 535 c4 -55 4 -55 -24 -56 -16 0 -38 -4 -49 -9 -15 -6 -8 -9 28
-9 45 -1 47 -2 47 -30 0 -25 -4 -29 -37 -35 -21 -3 -51 -6 -66 -6 -16 0 -26
-4 -22 -10 3 -5 17 -10 31 -10 34 0 31 -27 -8 -67 -44 -46 -14 -43 40 3 24 20
41 43 40 52 -2 14 7 18 45 20 l47 3 0 -35 c0 -48 28 -66 102 -66 45 0 58 3 58
15 0 12 -13 15 -59 15 -33 0 -63 5 -66 10 -10 16 18 71 35 69 40 -4 90 2 90
10 0 14 -51 20 -122 12 l-68 -7 0 27 c0 28 15 39 55 39 31 0 55 10 55 22 0 7
-20 9 -55 5 l-55 -6 6 39 c5 32 3 40 -14 49 -35 18 -39 13 -34 -44z"/>
  <path d="M236 536 c-9 -24 -39 -67 -66 -95 -27 -28 -44 -51 -39 -51 18 0 84
38 103 59 19 21 76 30 76 12 0 -5 -17 -27 -38 -51 -36 -41 -38 -42 -101 -42
-35 0 -59 -3 -54 -6 16 -11 30 -44 43 -104 14 -60 18 -66 37 -47 6 6 51 12 99
14 l87 2 23 69 c18 56 20 72 10 82 -16 16 -65 21 -89 9 -41 -19 -24 3 37 53
52 42 63 56 55 67 -14 16 -72 17 -101 2 -26 -14 -33 -6 -16 20 11 18 10 23 -7
35 -31 24 -41 19 -59 -28z m134 -191 c0 -18 -5 -25 -19 -25 -11 0 -26 -3 -35
-6 -12 -5 -16 0 -16 19 0 26 7 32 46 35 19 1 24 -3 24 -23z m-110 -16 c0 -27
-2 -29 -40 -29 -29 0 -40 4 -40 15 0 8 0 18 -1 23 0 7 31 17 64 19 13 1 17 -6
17 -28z m105 -55 c0 -14 -8 -20 -32 -22 -27 -3 -33 0 -33 17 0 19 19 29 50 26
8 -1 15 -10 15 -21z m-105 -11 c0 -20 -5 -23 -35 -23 -31 0 -35 3 -35 25 0 22
4 24 35 23 30 -1 35 -5 35 -25z"/>
  <path d="M554 293 c-10 -38 -51 -102 -87 -136 -39 -36 -30 -43 16 -12 45 31
48 31 78 -1 23 -25 23 -26 5 -37 -11 -7 -49 -24 -85 -40 -64 -27 -65 -27 -24
-23 23 2 67 15 98 30 l56 25 45 -34 c39 -30 53 -35 97 -34 29 1 63 4 77 8 22
7 18 10 -35 25 -33 10 -81 27 -107 38 l-47 20 31 47 c18 25 35 48 40 49 16 7
8 31 -13 37 -11 4 -44 4 -72 0 -43 -6 -50 -5 -39 6 18 19 15 37 -8 49 -17 9
-20 7 -26 -17z m96 -73 c0 -21 -31 -70 -43 -70 -6 1 -25 11 -40 24 -22 18 -25
25 -15 33 23 19 98 29 98 13z"/>
  <path d="M280 162 c0 -18 29 -52 43 -52 18 0 4 40 -18 54 -24 16 -25 15 -25
-2z"/>
  <path d="M350 172 c0 -5 11 -19 24 -31 20 -18 24 -20 29 -7 4 9 -1 22 -9 31
-16 16 -44 20 -44 7z"/>
  <path d="M110 138 c-34 -56 -20 -98 20 -58 21 21 29 90 10 90 -6 0 -19 -15
-30 -32z"/>
  <path d="M200 157 c0 -17 29 -57 41 -57 16 0 10 36 -9 53 -22 20 -32 21 -32 4z"/>
</g>
<g id="part-1" class="char-part">
  <path d="M241 535 c-7 -19 -35 -60 -63 -90 -27 -30 -42 -52 -32 -48 29 10 94
55 94 63 0 10 79 24 87 17 2 -3 -14 -25 -36 -50 -74 -81 -49 -78 54 5 69 56
74 64 59 75 -23 17 -37 16 -81 -2 -51 -21 -57 -19 -33 12 20 26 20 28 4 40
-28 20 -39 16 -53 -22z"/>
</g>
<g id="part-2" class="char-part">
  <path d="M349 173 c6 -10 18 -27 26 -38 14 -17 17 -18 25 -5 15 23 12 28 -20
45 -37 19 -43 19 -31 -2z"/>
  <path d="M112 140 c-25 -45 -29 -80 -8 -80 33 0 59 74 38 107 -5 8 -15 -2 -30
-27z"/>
  <path d="M270 174 c0 -15 36 -64 47 -64 21 0 15 38 -9 54 -23 17 -38 20 -38
10z"/>
  <path d="M192 163 c23 -49 33 -63 45 -63 19 0 16 34 -5 53 -19 17 -46 23 -40
10z"/>
</g>
<g id="part-3" class="char-part">
  <path d="M567 536 l6 -56 -34 0 c-19 0 -41 -5 -49 -10 -11 -7 -2 -10 33 -10
45 0 47 -1 47 -29 0 -29 -1 -30 -66 -36 -43 -5 -62 -11 -56 -17 7 -7 59 -7
155 1 80 6 158 11 173 11 22 0 25 3 16 12 -9 9 -40 12 -97 10 -84 -3 -85 -3
-85 21 0 27 16 37 58 37 15 0 34 4 42 10 22 14 -12 24 -55 17 l-35 -6 0 45 c0
31 -4 44 -14 44 -8 0 -21 3 -30 6 -12 5 -14 -3 -9 -50z"/>
</g>
<g id="part-4" class="char-part">
  <path d="M640 346 c0 -18 7 -39 15 -46 30 -25 165 -25 150 0 -3 6 -33 10 -66
10 -45 0 -61 4 -66 16 -3 8 -1 20 6 27 18 18 13 27 -14 27 -22 0 -25 -4 -25
-34z"/>
  <path d="M500 353 c0 -9 -14 -32 -32 -50 -25 -26 -28 -33 -15 -33 25 0 102 74
93 88 -11 19 -46 14 -46 -5z"/>
</g>
<g id="part-5" class="char-part">
  <path d="M615 244 l-40 -14 37 5 c20 3 38 2 41 -2 6 -12 -12 -73 -23 -73 -5 0
-6 -8 -3 -17 6 -16 5 -17 -12 -3 -17 14 -18 13 -12 -5 4 -12 -4 -6 -22 15 -16
19 -32 32 -35 29 -3 -3 5 -16 19 -29 14 -13 25 -27 25 -32 0 -4 -17 -16 -37
-27 -43 -23 -41 -26 6 -10 17 6 31 15 31 20 0 20 16 11 78 -41 7 -6 17 -8 22
-5 6 4 9 1 8 -6 -2 -9 9 -13 34 -13 20 -1 34 2 32 6 -3 4 12 5 33 3 25 -3 33
-2 24 4 -8 5 -20 7 -27 4 -6 -2 -15 0 -18 6 -4 6 -14 7 -23 4 -11 -4 -14 -3
-9 5 10 16 -6 15 -23 0 -10 -10 -12 -10 -7 -1 4 8 -8 20 -34 33 -22 11 -40 26
-39 33 1 21 14 48 24 50 6 1 10 13 10 26 0 13 6 25 13 27 7 1 8 0 2 -3 -5 -2
-10 -12 -10 -20 0 -14 3 -13 20 2 37 33 -20 52 -85 29z"/>
</g>
</g>
</svg>