<?xml version="1.0" standalone="no"?>
<!DOCTYPE svg PUBLIC "-//W3C//DTD SVG 20010904//EN"
 "http://www.w3.org/TR/2001/REC-SVG-20010904/DTD/svg10.dtd">
<svg version="1.0" xmlns="http://www.w3.org/2000/svg"
 width="96.000000pt" height="68.000000pt" viewBox="0 0 96.000000 68.000000"
 preserveAspectRatio="xMidYMid meet">
<metadata>
Created by potrace 1.16, written by Peter Selinger 2001-2019
Combined from part_0.svg through part_5.svg with named groups
</metadata>
<g transform="translate(0.000000,68.000000) scale(0.100000,-0.100000)" fill="#000000" stroke="none">
<g id="part-0" class="char-part">
  <path d="M235 560 c8 -47 -12 -177 -28 -187 -6 -4 -34 -7 -62 -8 -47 0 -55 -4
-55 -23 0 -16 50 -32 82 -25 33 6 34 1 14 -48 -5 -11 5 -24 34 -43 22 -15 38
-31 35 -36 -3 -5 -33 -25 -66 -45 -33 -21 -58 -39 -56 -42 9 -9 85 17 121 42
l37 25 33 -25 c43 -32 66 -33 66 0 0 15 -11 32 -29 46 l-29 21 28 62 c15 33
30 69 34 79 3 9 15 17 26 17 11 0 20 2 20 5 0 11 -42 46 -66 55 -33 13 -47 4
-40 -26 6 -22 4 -24 -33 -24 l-40 0 21 73 c32 113 33 119 13 134 -11 7 -30 13
-43 13 -22 0 -23 -3 -17 -40z m95 -227 c0 -10 -9 -37 -20 -61 l-19 -43 -31 16
c-48 25 -36 88 20 98 46 8 50 7 50 -10z"/>
  <path d="M624 500 c-11 -4 -51 -11 -87 -15 -75 -8 -100 -25 -38 -25 46 0 47
-3 35 -94 l-7 -46 -56 0 c-31 0 -62 -4 -70 -9 -22 -14 5 -23 62 -19 58 3 56 6
45 -76 -7 -47 -15 -55 -57 -61 -18 -2 -35 -6 -38 -9 -14 -14 60 -17 172 -7 69
6 153 11 186 11 53 0 60 2 49 15 -7 8 -34 15 -69 17 l-57 3 13 63 c14 62 14
62 51 63 20 1 51 5 67 9 l30 7 -28 11 c-16 7 -44 12 -63 12 -39 0 -40 2 -18
78 16 53 15 56 -2 69 -20 14 -87 16 -120 3z m56 -85 c0 -61 -2 -66 -26 -75
-30 -12 -84 -13 -84 -2 0 4 7 28 14 54 13 40 13 47 0 52 -25 9 -15 25 19 29
82 10 77 14 77 -58z m-14 -121 c-3 -9 -9 -40 -12 -70 l-7 -54 -57 0 -58 0 9
38 c5 20 12 49 15 64 5 21 13 28 38 30 17 2 42 4 55 5 17 2 22 -1 17 -13z"/>
</g>
<g id="part-1" class="char-part">
  <path d="M234 507 c0 -50 -6 -104 -12 -119 -11 -26 -15 -28 -72 -28 -33 0 -60
-4 -60 -8 0 -18 50 -35 85 -29 30 5 36 3 31 -9 -21 -54 -19 -63 18 -85 20 -11
36 -24 36 -28 0 -12 -42 -47 -78 -66 -19 -9 -31 -19 -29 -22 9 -8 70 15 107
41 l35 24 33 -29 c38 -34 47 -36 57 -12 4 13 -3 27 -26 47 l-32 28 26 57 c14
31 29 65 32 77 3 11 17 25 33 31 25 10 25 11 5 12 -13 1 -23 7 -23 15 0 8 -7
17 -16 20 -30 12 -44 6 -44 -18 0 -19 -7 -25 -36 -31 -20 -3 -38 -4 -41 -1 -3
3 6 48 20 100 l25 96 -21 15 c-45 32 -52 22 -53 -78z m86 -221 c-12 -31 -26
-56 -31 -56 -16 0 -69 30 -69 39 0 4 5 22 11 39 9 26 17 31 57 39 26 5 48 6
50 2 1 -3 -7 -32 -18 -63z"/>
</g>
<g id="part-2" class="char-part">
  <path d="M615 499 c-44 -10 -97 -18 -117 -18 -20 -1 -40 -6 -44 -13 -5 -8 14
-10 77 -5 46 3 99 9 117 13 l32 7 0 -54 c-1 -30 -7 -90 -15 -134 -20 -111 -20
-124 5 -118 21 6 28 25 54 153 8 41 20 90 27 108 23 68 -17 86 -136 61z"/>
</g>
<g id="part-3" class="char-part">
  <path d="M534 393 c-8 -62 -11 -68 -34 -71 -92 -9 -113 -14 -99 -23 8 -5 38
-9 67 -9 53 0 54 0 48 -27 -3 -16 -8 -45 -12 -65 -6 -34 -9 -38 -38 -38 -17 0
-38 -4 -45 -9 -28 -18 33 -23 150 -12 63 6 147 11 188 11 66 0 72 2 60 16 -12
14 -31 15 -152 9 -132 -7 -139 -6 -133 12 3 10 10 39 16 64 11 45 13 47 57 53
25 3 73 6 107 7 34 0 79 4 101 8 l40 8 -28 13 c-23 11 -47 11 -138 1 -61 -7
-112 -11 -114 -9 -3 2 2 27 9 56 13 49 13 53 -4 62 -32 17 -37 12 -46 -57z"/>
</g>
</g>
</svg>