<?xml version="1.0" standalone="no"?>
<!DOCTYPE svg PUBLIC "-//W3C//DTD SVG 20010904//EN"
 "http://www.w3.org/TR/2001/REC-SVG-20010904/DTD/svg10.dtd">
<svg version="1.0" xmlns="http://www.w3.org/2000/svg"
 width="96.000000pt" height="68.000000pt" viewBox="0 0 96.000000 68.000000"
 preserveAspectRatio="xMidYMid meet">
<metadata>
Created by potrace 1.16, written by Peter Selinger 2001-2019
Combined from part_0.svg through part_5.svg with named groups
</metadata>
<g transform="translate(0.000000,68.000000) scale(0.100000,-0.100000)" fill="#000000" stroke="none">
<g id="part-0" class="char-part">
  <path d="M607 633 c-4 -3 -7 -25 -7 -49 l0 -42 -55 -7 c-74 -9 -70 -35 5 -35
l29 0 -15 -36 c-8 -20 -13 -39 -10 -42 8 -7 44 27 64 60 15 26 21 28 77 28 37
0 69 6 80 14 18 13 17 15 -22 25 -23 6 -54 9 -69 5 l-26 -7 16 31 c16 31 16
32 -13 47 -33 17 -44 18 -54 8z"/>
  <path d="M300 582 c0 -10 5 -23 11 -29 21 -21 -2 -33 -67 -33 -49 0 -64 -3
-64 -15 0 -33 62 -42 135 -20 17 5 24 -1 35 -26 23 -50 40 -49 40 4 0 43 1 45
35 51 48 9 44 26 -5 26 -36 0 -40 3 -40 24 0 25 -16 36 -56 36 -16 0 -24 -6
-24 -18z"/>
  <path d="M480 384 c-58 -7 -115 -13 -127 -13 -13 -1 -23 -6 -23 -13 0 -8 36
-9 136 -4 155 8 194 19 134 38 -8 2 -62 -1 -120 -8z"/>
  <path d="M630 294 c-8 -2 -116 -10 -240 -19 -123 -9 -227 -18 -229 -21 -23
-23 87 -27 202 -8 28 5 37 3 37 -7 0 -14 -87 -107 -124 -132 -18 -13 -18 -14
5 -35 13 -12 30 -20 39 -17 16 5 111 23 247 47 l62 11 30 -32 c34 -37 51 -34
51 9 0 31 -36 68 -89 90 -40 16 -49 8 -21 -22 l21 -23 -33 -7 c-18 -4 -80 -10
-138 -13 l-105 -6 58 53 c40 36 56 58 52 69 -5 14 7 17 77 22 46 4 125 7 176
7 50 0 92 3 92 8 0 23 -109 40 -170 26z"/>
</g>
<g id="part-1" class="char-part">
  <path d="M610 598 c0 -48 -12 -60 -64 -65 -57 -7 -61 -23 -5 -23 35 0 40 -3
36 -17 -21 -67 -19 -69 25 -20 42 47 44 47 105 47 63 0 91 13 50 24 -12 3 -39
6 -59 6 -42 0 -43 2 -27 32 9 18 8 24 -7 35 -33 24 -54 16 -54 -19z"/>
  <path d="M300 588 c0 -7 7 -22 15 -32 8 -11 15 -23 15 -27 0 -4 -31 -11 -70
-15 -38 -3 -70 -10 -70 -14 0 -3 11 -13 24 -20 21 -11 33 -10 73 3 26 9 49 13
51 9 11 -29 29 -56 41 -60 10 -3 12 4 6 37 -5 31 -3 41 7 41 7 1 27 7 43 15
l30 14 -45 -2 c-41 -2 -45 0 -49 23 -1 14 -8 28 -15 32 -18 12 -56 9 -56 -4z"/>
</g>
<g id="part-2" class="char-part">
  <path d="M458 381 c-173 -19 -167 -36 9 -27 155 8 194 19 133 37 -8 3 -72 -2
-142 -10z"/>
</g>
<g id="part-3" class="char-part">
  <path d="M475 284 c-339 -25 -332 -24 -310 -41 15 -11 36 -13 90 -9 158 14
356 25 450 26 l100 1 -24 19 c-27 23 -42 23 -306 4z"/>
</g>
<g id="part-4" class="char-part">
  <path d="M395 231 c-7 -22 -91 -111 -119 -127 -19 -10 -19 -11 3 -33 16 -16
29 -21 44 -17 12 4 86 19 165 33 l143 27 30 -32 c34 -36 49 -34 49 8 0 31 -36
68 -89 90 -40 16 -49 8 -22 -22 21 -22 21 -22 2 -30 -11 -4 -73 -10 -138 -13
l-118 -6 59 55 c50 47 57 58 46 71 -17 21 -47 19 -55 -4z"/>
</g>
</g>
</svg>