<?xml version="1.0" standalone="no"?>
<!DOCTYPE svg PUBLIC "-//W3C//DTD SVG 20010904//EN"
 "http://www.w3.org/TR/2001/REC-SVG-20010904/DTD/svg10.dtd">
<svg version="1.0" xmlns="http://www.w3.org/2000/svg"
 width="96.000000pt" height="68.000000pt" viewBox="0 0 96.000000 68.000000"
 preserveAspectRatio="xMidYMid meet">
<metadata>
Created by potrace 1.16, written by Peter Selinger 2001-2019
Combined from part_0.svg through part_5.svg with named groups
</metadata>
<g transform="translate(0.000000,68.000000) scale(0.100000,-0.100000)" fill="#000000" stroke="none">
<g id="part-0" class="char-part">
  <path d="M257 505 c7 -94 11 -88 -84 -100 -29 -4 -53 -11 -53 -15 0 -14 55
-22 96 -14 l38 7 -29 -49 c-27 -48 -46 -74 -101 -143 l-27 -33 24 7 c31 10 80
51 109 93 13 18 25 31 27 28 2 -2 -1 -49 -7 -104 -12 -104 -6 -142 24 -142 21
0 27 25 33 153 l6 118 22 -21 c26 -24 41 -25 49 -4 8 22 -1 34 -40 50 -49 21
-46 50 6 59 22 4 43 11 46 17 10 16 -18 29 -53 24 l-32 -5 5 47 c3 26 7 52 9
59 5 14 -23 39 -52 46 -22 5 -22 4 -16 -78z"/>
  <path d="M550 568 c0 -16 51 -68 67 -68 14 0 17 28 5 46 -8 13 -46 34 -61 34
-6 0 -11 -5 -11 -12z"/>
  <path d="M581 482 c-81 -13 -106 -13 -109 -4 -5 17 -32 15 -32 -2 0 -7 -7 -27
-15 -42 -20 -38 -19 -54 3 -54 9 0 23 13 30 30 8 17 23 32 35 34 68 14 243 32
249 27 4 -4 1 -19 -7 -34 -7 -15 -13 -27 -11 -27 11 0 106 52 106 58 0 15 -55
32 -99 31 -26 -1 -93 -9 -150 -17z"/>
  <path d="M615 380 c-16 -4 -49 -8 -72 -9 -23 0 -45 -6 -49 -13 -5 -8 20 -10
101 -5 60 4 110 9 113 11 2 3 1 9 -3 15 -7 12 -45 13 -90 1z"/>
  <path d="M735 304 c-11 -2 -91 -10 -177 -20 -170 -18 -218 -40 -72 -32 71 4
87 2 93 -11 10 -22 13 -88 5 -124 -5 -25 -10 -28 -35 -25 -34 5 -36 -1 -8 -36
25 -31 42 -33 69 -6 17 17 20 33 20 98 0 125 -2 122 94 122 44 0 88 4 95 9 15
9 11 11 -54 25 -5 1 -19 1 -30 0z"/>
  <path d="M480 186 c0 -8 -24 -35 -52 -60 -60 -53 -57 -57 19 -19 55 26 90 63
78 83 -9 15 -45 12 -45 -4z"/>
  <path d="M736 145 c47 -56 79 -68 79 -30 0 23 -78 85 -107 85 -16 0 -12 -9 28
-55z"/>
</g>
<g id="part-1" class="char-part">
  <path d="M257 538 c4 -24 8 -61 8 -83 l0 -40 -67 -9 c-38 -5 -68 -13 -68 -18
0 -4 27 -8 60 -8 33 0 60 -3 60 -6 0 -16 -64 -115 -101 -157 -22 -26 -36 -47
-29 -47 19 0 82 53 113 95 l30 40 -8 -90 c-11 -126 -10 -154 4 -168 10 -9 15
-8 27 7 10 15 14 53 14 150 l0 130 28 -27 c33 -32 52 -35 52 -8 0 13 -13 24
-40 35 -22 9 -40 22 -40 29 0 19 21 37 45 37 11 0 27 5 35 10 13 9 13 11 0 20
-8 5 -28 7 -44 4 l-29 -6 7 66 c6 65 6 66 -19 76 -42 16 -46 13 -38 -32z"/>
</g>
<g id="part-2" class="char-part">
  <path d="M550 572 c0 -10 31 -55 44 -64 21 -15 36 -8 36 17 0 17 -9 29 -30 40
-32 17 -50 19 -50 7z"/>
  <path d="M441 475 c-6 -16 -16 -38 -21 -47 -16 -27 -12 -48 9 -48 11 0 23 12
31 30 7 17 13 30 14 31 7 4 268 34 271 31 2 -3 -2 -17 -11 -33 -8 -16 -13 -29
-10 -29 8 0 116 52 116 55 0 11 -63 35 -92 35 -18 0 -86 -8 -150 -17 -116 -17
-118 -17 -132 2 -14 19 -15 19 -25 -10z"/>
</g>
<g id="part-3" class="char-part">
  <path d="M615 380 c-16 -4 -51 -8 -77 -9 -29 -1 -48 -6 -48 -13 0 -8 29 -9
105 -5 110 6 137 13 114 28 -16 10 -52 10 -94 -1z"/>
</g>
<g id="part-4" class="char-part">
  <path d="M587 211 c3 -27 3 -65 -1 -85 -6 -33 -9 -36 -43 -36 l-37 0 29 -30
c62 -65 95 -27 95 107 0 92 0 93 -25 93 -23 0 -24 -2 -18 -49z"/>
  <path d="M731 153 c50 -55 78 -71 86 -47 6 19 -35 61 -82 83 -24 11 -48 21
-51 21 -3 0 18 -26 47 -57z"/>
  <path d="M436 138 c-44 -45 -53 -58 -35 -53 86 27 163 106 108 111 -8 1 -41
-25 -73 -58z"/>
</g>
</g>
</svg>