<?xml version="1.0" standalone="no"?>
<!DOCTYPE svg PUBLIC "-//W3C//DTD SVG 20010904//EN"
 "http://www.w3.org/TR/2001/REC-SVG-20010904/DTD/svg10.dtd">
<svg version="1.0" xmlns="http://www.w3.org/2000/svg"
 width="96.000000pt" height="68.000000pt" viewBox="0 0 96.000000 68.000000"
 preserveAspectRatio="xMidYMid meet">
<metadata>
Created by potrace 1.16, written by Peter Selinger 2001-2019
Combined from part_0.svg through part_5.svg with named groups
</metadata>
<g transform="translate(0.000000,68.000000) scale(0.100000,-0.100000)" fill="#000000" stroke="none">
<g id="part-0" class="char-part">
  <path d="M537 623 c-4 -3 -7 -15 -7 -25 0 -23 -42 -103 -76 -145 -17 -21 -22
-33 -13 -33 18 0 88 50 99 70 7 13 29 19 80 24 95 10 134 24 119 42 -14 18
-41 18 -107 0 l-52 -13 16 25 c16 24 16 26 -6 44 -23 19 -42 23 -53 11z"/>
  <path d="M280 597 c0 -21 -40 -90 -82 -140 -22 -27 -38 -50 -35 -53 9 -9 61
23 96 60 29 29 42 36 75 36 47 1 124 14 133 24 4 3 1 12 -5 18 -9 9 -28 9 -72
2 -33 -6 -60 -8 -60 -6 0 2 5 13 11 24 9 18 8 24 -7 35 -23 17 -54 17 -54 0z"/>
  <path d="M584 489 c-7 -12 59 -79 79 -79 22 0 31 36 14 60 -7 11 -16 18 -19
15 -2 -3 -19 -1 -36 4 -20 6 -34 6 -38 0z"/>
  <path d="M310 473 c0 -13 54 -63 67 -63 22 0 27 29 8 50 -17 19 -75 29 -75 13z"/>
  <path d="M549 406 c-2 -2 -31 -7 -64 -10 -33 -4 -67 -9 -75 -11 -8 -2 -39 -6
-69 -10 -30 -3 -56 -7 -59 -9 -8 -9 71 -18 113 -14 43 5 43 5 50 -28 3 -19 2
-40 -2 -47 -9 -14 -8 -14 -171 -23 -67 -4 -125 -11 -128 -15 -11 -18 57 -21
173 -8 l123 15 0 -37 c0 -71 13 -189 21 -189 14 0 29 72 29 137 0 98 -9 93
161 93 122 0 149 3 149 14 0 22 -53 29 -163 20 -56 -5 -109 -9 -117 -9 -11 0
-15 12 -16 42 -1 46 -7 42 90 59 36 6 38 8 21 20 -18 13 -56 19 -66 10z"/>
</g>
<g id="part-1" class="char-part">
  <path d="M532 582 c-7 -21 -30 -66 -52 -101 -45 -69 -31 -70 40 -2 37 35 46
39 113 44 75 6 107 14 107 27 0 17 -47 19 -98 4 -60 -18 -69 -15 -52 16 16 29
6 50 -23 50 -19 0 -26 -8 -35 -38z"/>
  <path d="M280 589 c0 -28 -15 -53 -73 -128 -50 -63 -50 -63 -18 -46 18 9 52
34 75 54 32 30 50 38 81 39 67 2 116 13 112 25 -4 14 -32 14 -96 3 l-45 -8 17
25 c15 23 15 26 -2 41 -25 23 -51 20 -51 -5z"/>
  <path d="M610 455 c40 -42 70 -46 70 -11 0 18 -8 27 -31 35 -18 6 -41 11 -52
11 -19 0 -17 -4 13 -35z"/>
  <path d="M320 472 c0 -12 44 -52 58 -52 19 0 14 38 -7 50 -24 12 -51 13 -51 2z"/>
</g>
<g id="part-2" class="char-part">
  <path d="M549 405 c-3 -2 -63 -11 -133 -19 -71 -9 -131 -18 -134 -20 -20 -20
142 -18 273 4 33 5 65 10 70 10 6 0 1 7 -9 15 -19 14 -58 20 -67 10z"/>
</g>
<g id="part-3" class="char-part">
  <path d="M442 318 c3 -38 1 -42 -26 -49 -16 -5 -85 -11 -153 -15 -68 -4 -123
-11 -123 -15 0 -18 59 -22 160 -11 58 7 113 12 122 12 12 0 16 -19 22 -102 4
-57 11 -107 15 -111 13 -13 31 50 31 108 0 29 3 67 6 84 l7 31 148 0 c155 0
180 8 115 35 -25 11 -48 12 -92 5 -33 -5 -84 -10 -114 -12 l-55 -3 2 43 c2 42
2 42 -33 42 -35 0 -35 0 -32 -42z"/>
</g>
</g>
</svg>