<?xml version="1.0" standalone="no"?>
<!DOCTYPE svg PUBLIC "-//W3C//DTD SVG 20010904//EN"
 "http://www.w3.org/TR/2001/REC-SVG-20010904/DTD/svg10.dtd">
<svg version="1.0" xmlns="http://www.w3.org/2000/svg"
 width="96.000000pt" height="68.000000pt" viewBox="0 0 96.000000 68.000000"
 preserveAspectRatio="xMidYMid meet">
<metadata>
Created by potrace 1.16, written by Peter Selinger 2001-2019
Combined from part_0.svg through part_5.svg with named groups
</metadata>
<g transform="translate(0.000000,68.000000) scale(0.100000,-0.100000)" fill="#000000" stroke="none">
<g id="part-0" class="char-part">
  <path d="M245 521 c-13 -28 -30 -54 -37 -58 -7 -5 -26 -23 -42 -41 -41 -44
-14 -43 53 3 31 21 62 35 81 35 l31 0 -23 -41 c-32 -57 -40 -61 -118 -63 -38
0 -70 -2 -70 -4 0 -1 6 -13 14 -25 8 -12 17 -42 21 -67 10 -62 18 -70 63 -59
20 5 67 9 104 10 l67 1 17 47 c10 25 24 55 31 66 7 11 13 24 13 31 0 18 -67
33 -102 23 l-32 -9 44 45 c24 25 50 45 57 45 19 0 16 37 -3 44 -24 9 -73 7
-94 -4 -19 -10 -19 -9 -2 20 15 27 15 32 2 40 -31 20 -50 10 -75 -39z m143
-188 c-3 -25 -7 -28 -41 -28 -45 0 -48 2 -36 33 6 17 16 22 44 22 34 0 36 -2
33 -27z m-123 -18 c0 -16 -8 -21 -42 -23 -40 -3 -43 -2 -43 23 0 25 3 26 43
23 34 -2 42 -7 42 -23z m109 -34 c9 -13 -17 -38 -46 -45 -25 -6 -28 -3 -28 18
0 18 6 26 23 29 38 7 46 7 51 -2z m-106 -35 c-4 -27 -65 -37 -74 -12 -11 30 2
42 41 38 30 -4 36 -8 33 -26z"/>
  <path d="M570 536 c-6 -18 -31 -62 -55 -97 -46 -66 -51 -87 -12 -52 12 11 42
23 67 26 25 3 69 9 99 13 l54 7 -7 -72 c-8 -88 -19 -111 -51 -111 -29 0 -30
-3 -9 -35 9 -14 25 -25 35 -25 29 0 49 41 73 149 l23 100 -26 7 c-14 4 -28 7
-31 6 -65 -10 -164 -22 -166 -19 -2 1 15 25 36 54 37 48 38 51 21 67 -26 24
-38 20 -51 -18z"/>
  <path d="M560 340 c-8 -5 -33 -10 -56 -10 l-41 0 4 -106 c6 -156 25 -174 185
-182 86 -4 101 -2 143 19 53 27 61 35 47 52 -5 7 -15 30 -23 52 l-13 40 -8
-41 c-14 -69 -34 -79 -153 -79 -124 0 -145 12 -145 80 l0 43 45 6 c41 7 46 10
68 59 22 47 23 53 9 65 -19 14 -41 15 -62 2z m12 -60 c-6 -39 -16 -50 -49 -50
-18 0 -23 6 -23 28 0 42 20 61 62 59 13 -1 15 -8 10 -37z"/>
  <path d="M380 185 c0 -12 23 -50 34 -57 18 -13 26 -9 26 12 0 12 -12 26 -30
35 -16 9 -30 13 -30 10z"/>
  <path d="M112 131 c-28 -49 -28 -71 -2 -71 22 0 40 34 40 75 0 39 -15 37 -38
-4z"/>
  <path d="M280 164 c0 -3 11 -19 24 -35 20 -23 26 -26 36 -14 9 11 7 18 -9 34
-20 20 -51 29 -51 15z"/>
  <path d="M200 153 c0 -18 41 -73 50 -68 16 10 12 33 -10 55 -20 20 -40 26 -40
13z"/>
</g>
<g id="part-1" class="char-part">
  <path d="M261 537 c-6 -18 -32 -56 -57 -85 -53 -60 -45 -67 20 -17 32 25 57
35 81 35 19 0 35 -3 35 -6 0 -3 -14 -25 -30 -50 -43 -62 -18 -55 60 15 l65 59
-27 12 c-20 10 -34 10 -59 1 -54 -19 -66 -14 -38 15 24 25 24 26 5 40 -30 22
-43 17 -55 -19z"/>
</g>
<g id="part-2" class="char-part">
  <path d="M388 159 c24 -39 52 -50 52 -21 0 22 -15 36 -49 47 l-25 7 22 -33z"/>
  <path d="M110 131 c-23 -45 -25 -67 -9 -77 18 -11 40 20 46 63 7 56 -12 63
-37 14z"/>
  <path d="M297 138 c21 -37 38 -45 47 -23 7 18 -27 55 -50 55 -14 0 -14 -4 3
-32z"/>
  <path d="M213 124 c24 -39 40 -45 45 -19 5 21 -26 55 -50 55 -17 0 -17 -2 5
-36z"/>
</g>
<g id="part-3" class="char-part">
  <path d="M577 563 c-4 -3 -7 -14 -7 -24 0 -18 -64 -118 -100 -156 -27 -29 -19
-29 28 1 39 24 192 53 213 40 13 -8 4 -126 -12 -155 -5 -11 -21 -19 -35 -19
-24 0 -24 -1 -9 -30 34 -66 79 -27 105 92 11 46 22 93 25 104 9 29 -37 46 -92
34 -21 -4 -60 -11 -87 -15 l-48 -7 41 59 c39 53 41 59 25 70 -20 14 -37 17
-47 6z"/>
</g>
<g id="part-4" class="char-part">
  <path d="M565 340 c-11 -5 -39 -9 -62 -9 -42 -1 -43 -1 -39 -33 3 -18 5 -45 5
-60 1 -24 5 -28 29 -28 63 0 100 12 105 34 3 11 11 36 18 54 12 28 12 34 -1
42 -18 12 -28 11 -55 0z m3 -62 c-3 -41 -4 -43 -39 -46 -35 -3 -35 -3 -31 33
3 25 11 39 26 45 41 17 47 12 44 -32z"/>
</g>
<g id="part-5" class="char-part">
  <path d="M472 168 c2 -47 27 -85 66 -104 53 -25 162 -28 228 -5 53 18 103 51
76 51 -7 0 -12 7 -12 16 0 8 -4 12 -10 9 -5 -3 -10 4 -11 17 -1 20 -2 20 -9
-6 -5 -15 -16 -36 -24 -45 -9 -10 -14 -20 -11 -23 3 -3 -50 -3 -117 -1 -93 3
-124 7 -130 18 -5 8 -15 21 -24 29 -10 11 -12 21 -6 33 10 20 5 43 -9 43 -5 0
-8 -15 -7 -32z m338 -52 c0 -2 -8 -10 -17 -17 -16 -13 -17 -12 -4 4 13 16 21
21 21 13z m-223 -52 c-3 -3 -12 -4 -19 -1 -8 3 -5 6 6 6 11 1 17 -2 13 -5z
m163 2 c0 -2 -7 -7 -16 -10 -8 -3 -12 -2 -9 4 6 10 25 14 25 6z"/>
</g>
</g>
</svg>