<?xml version="1.0" standalone="no"?>
<!DOCTYPE svg PUBLIC "-//W3C//DTD SVG 20010904//EN"
 "http://www.w3.org/TR/2001/REC-SVG-20010904/DTD/svg10.dtd">
<svg version="1.0" xmlns="http://www.w3.org/2000/svg"
 width="96.000000pt" height="68.000000pt" viewBox="0 0 96.000000 68.000000"
 preserveAspectRatio="xMidYMid meet">
<metadata>
Created by potrace 1.16, written by Peter Selinger 2001-2019
Combined from part_0.svg through part_5.svg with named groups
</metadata>
<g transform="translate(0.000000,68.000000) scale(0.100000,-0.100000)" fill="#000000" stroke="none">
<g id="part-0" class="char-part">
  <path d="M535 543 c-9 -21 -29 -55 -45 -75 -37 -46 -37 -51 -2 -32 21 13 33
14 55 5 40 -15 34 -32 -27 -71 -30 -19 -53 -36 -51 -38 6 -6 104 40 116 54 17
21 30 18 105 -26 68 -39 104 -50 104 -30 0 14 -86 67 -121 75 -38 9 -37 21 7
66 50 51 39 63 -44 55 -66 -7 -66 -7 -48 13 18 20 18 21 0 27 -11 4 -22 9 -26
11 -4 2 -14 -13 -23 -34z m89 -78 c-15 -23 -23 -26 -52 -21 -43 7 -49 12 -36
34 11 18 83 33 97 21 5 -4 1 -19 -9 -34z"/>
  <path d="M220 519 c-12 -45 -47 -106 -74 -128 -9 -7 -16 -25 -16 -38 0 -25 1
-25 55 -18 l56 7 -51 -48 c-43 -40 -49 -50 -37 -61 11 -11 23 -9 72 13 47 22
62 25 76 15 25 -15 29 -14 29 8 0 10 -12 27 -26 36 -26 17 -27 17 -22 -3 4
-16 -2 -22 -32 -31 -20 -6 -40 -11 -44 -11 -4 0 25 38 65 85 59 71 69 88 59
100 -19 23 -29 18 -46 -24 -12 -32 -21 -40 -47 -44 -18 -2 -34 -3 -36 -1 -3 2
17 36 44 75 51 75 53 100 7 107 -17 3 -23 -5 -32 -39z"/>
  <path d="M365 411 c-8 -14 43 -54 59 -48 19 8 20 21 4 34 -18 14 -57 23 -63
14z"/>
  <path d="M580 341 c0 -29 -3 -31 -34 -31 -19 0 -38 -4 -41 -10 -4 -6 10 -10
35 -10 34 0 41 -3 38 -17 -2 -12 -16 -20 -38 -24 l-35 -6 38 -2 c30 -1 37 -5
37 -21 0 -17 -7 -20 -50 -20 -28 0 -50 -5 -50 -10 0 -18 30 -23 65 -13 34 11
34 11 40 -28 9 -50 21 -50 29 1 l6 40 66 0 c41 0 63 4 59 10 -3 6 -33 10 -66
10 -44 0 -59 4 -59 14 0 15 21 26 51 26 10 0 19 5 19 11 0 8 -12 10 -36 6 -29
-5 -35 -3 -32 10 2 9 20 21 41 27 44 12 39 26 -9 26 -24 0 -31 4 -30 17 0 12
-7 19 -21 21 -20 3 -23 -1 -23 -27z"/>
  <path d="M383 294 c-40 -17 -42 -23 -7 -19 23 2 24 0 19 -26 -4 -19 -1 -36 9
-51 9 -12 16 -33 16 -45 0 -21 -4 -23 -55 -23 -44 0 -53 -3 -49 -15 5 -11 22
-14 72 -13 54 2 90 -5 184 -36 111 -36 120 -37 168 -26 27 7 53 16 56 21 3 5
15 9 27 9 13 0 17 4 11 9 -5 6 -54 11 -110 12 -55 1 -134 8 -175 16 -41 9 -82
15 -91 15 -14 -1 -18 8 -18 39 0 26 -5 42 -15 45 -22 9 -18 24 12 56 23 24 25
30 13 38 -19 12 -28 12 -67 -6z"/>
  <path d="M282 201 c13 -22 37 -35 47 -26 10 11 -16 40 -38 43 -20 3 -21 2 -9
-17z"/>
  <path d="M190 192 c0 -10 43 -52 53 -52 16 0 5 30 -15 44 -25 18 -38 20 -38 8z"/>
  <path d="M100 167 c0 -17 44 -77 56 -77 15 0 19 37 6 57 -7 12 -62 29 -62 20z"/>
</g>
<g id="part-1" class="char-part">
  <path d="M230 534 c0 -24 -48 -115 -76 -145 -15 -16 -22 -32 -18 -42 7 -20 6
-20 58 -5 55 15 67 28 28 28 -18 0 -32 2 -32 4 0 3 22 37 50 77 38 56 47 75
39 86 -16 18 -49 16 -49 -3z"/>
</g>
<g id="part-2" class="char-part">
  <path d="M286 195 c17 -27 44 -34 44 -12 0 19 -21 37 -42 37 -17 0 -17 -1 -2
-25z"/>
  <path d="M190 192 c0 -12 39 -52 50 -52 18 0 10 29 -12 44 -25 18 -38 20 -38
8z"/>
  <path d="M100 164 c0 -20 44 -75 59 -72 24 5 25 34 2 57 -19 19 -61 29 -61 15z"/>
</g>
<g id="part-3" class="char-part">
  <path d="M370 394 c22 -25 51 -37 63 -25 16 16 -11 41 -45 41 -26 0 -29 -2
-18 -16z"/>
  <path d="M388 298 c-32 -11 -38 -33 -7 -25 18 5 20 2 14 -24 -4 -19 -1 -36 9
-51 9 -12 16 -33 16 -45 0 -21 -4 -23 -56 -23 -40 0 -54 -3 -51 -12 2 -9 27
-13 73 -14 42 -1 96 -10 139 -24 39 -12 89 -28 113 -36 23 -8 51 -14 60 -14
26 0 142 40 142 50 0 4 -62 10 -137 13 -76 4 -165 12 -198 20 -58 12 -60 14
-63 47 -2 19 -11 43 -19 53 -15 16 -14 20 13 48 24 25 26 31 14 39 -18 12 -27
11 -62 -2z"/>
</g>
<g id="part-4" class="char-part">
  <path d="M532 542 c-6 -21 -28 -57 -48 -80 -56 -65 -20 -49 54 24 63 62 65 67
47 80 -30 22 -41 17 -53 -24z"/>
</g>
<g id="part-5" class="char-part">
  <path d="M593 222 c-7 -4 -10 -16 -8 -27 2 -11 4 -31 5 -45 l1 -25 10 25 c13
32 20 80 11 80 -4 0 -12 -4 -19 -8z"/>
  <path d="M695 200 c-29 -8 -29 -8 7 -7 20 1 34 5 32 9 -3 4 -6 7 -7 7 -1 -1
-15 -5 -32 -9z"/>
  <path d="M540 190 c0 -5 4 -10 9 -10 6 0 13 5 16 10 3 6 -1 10 -9 10 -9 0 -16
-4 -16 -10z"/>
  <path d="M490 186 c0 -2 7 -7 16 -10 8 -3 12 -2 9 4 -6 10 -25 14 -25 6z"/>
</g>
</g>
</svg>