<?xml version="1.0" standalone="no"?>
<!DOCTYPE svg PUBLIC "-//W3C//DTD SVG 20010904//EN"
 "http://www.w3.org/TR/2001/REC-SVG-20010904/DTD/svg10.dtd">
<svg version="1.0" xmlns="http://www.w3.org/2000/svg"
 width="96.000000pt" height="68.000000pt" viewBox="0 0 96.000000 68.000000"
 preserveAspectRatio="xMidYMid meet">
<metadata>
Created by potrace 1.16, written by Peter Selinger 2001-2019
Combined from part_0.svg through part_5.svg with named groups
</metadata>
<g transform="translate(0.000000,68.000000) scale(0.100000,-0.100000)" fill="#000000" stroke="none">
<g id="part-0" class="char-part">
  <path d="M224 558 c4 -18 9 -59 13 -90 l6 -56 -47 -7 c-25 -4 -55 -5 -66 -2
-23 6 -26 -9 -7 -32 7 -9 19 -38 26 -66 14 -59 26 -74 43 -57 7 7 20 12 30 12
15 0 18 -8 18 -49 0 -56 -8 -61 -97 -61 -56 0 -65 -17 -19 -38 19 -9 46 -3
141 30 108 37 119 40 130 24 18 -24 35 -20 35 8 0 14 -10 32 -22 40 -29 21
-52 21 -44 1 4 -11 -3 -19 -20 -25 -47 -18 -54 -13 -54 34 0 48 11 56 78 56
29 0 32 3 27 20 -6 19 9 59 28 71 16 11 0 39 -30 50 -15 5 -45 7 -67 3 l-39
-6 7 43 c4 24 9 58 12 75 5 25 1 32 -21 42 -14 7 -35 12 -47 12 -18 0 -20 -4
-14 -32z m121 -205 c-7 -38 -19 -53 -42 -53 -9 0 -13 16 -13 45 0 44 1 45 31
45 31 0 31 -1 24 -37z m-105 -18 c0 -41 -2 -45 -25 -45 -14 0 -25 4 -25 9 0 5
-3 22 -6 39 -5 24 -2 31 12 35 41 10 44 8 44 -38z"/>
  <path d="M540 534 c0 -4 11 -26 25 -50 14 -24 22 -45 18 -47 -5 -3 -34 -8 -65
-12 -71 -9 -76 -25 -8 -25 48 0 49 -1 54 -32 10 -72 8 -75 -40 -83 -57 -8 -57
-25 1 -25 40 0 45 -3 46 -22 0 -13 1 -39 2 -58 l2 -35 -102 -9 c-57 -5 -103
-13 -103 -17 0 -16 61 -20 160 -10 56 6 151 11 211 11 108 0 130 8 88 31 -14
7 -52 8 -115 4 l-94 -7 0 60 c0 67 -2 65 78 77 66 10 52 28 -19 23 l-60 -4 4
50 c3 47 5 51 35 58 18 5 46 11 63 16 50 12 29 27 -33 24 -56 -3 -58 -2 -58
22 0 16 -9 31 -22 40 -29 18 -68 30 -68 20z"/>
</g>
<g id="part-1" class="char-part">
  <path d="M231 551 c6 -16 9 -55 7 -87 l-3 -59 -64 -3 c-59 -3 -62 -4 -48 -20
8 -9 21 -42 29 -72 l13 -55 38 3 37 4 0 -46 c0 -39 3 -46 20 -46 19 0 25 15
20 49 -1 7 1 24 4 37 6 21 12 24 57 24 43 0 50 3 45 16 -3 9 4 33 16 55 29 52
15 69 -58 69 l-54 0 0 33 c0 17 4 49 9 70 8 31 6 39 -9 47 -10 6 -30 10 -44
10 -23 0 -24 -2 -15 -29z m115 -159 c7 -5 7 -21 2 -49 -8 -39 -12 -43 -39 -43
-31 0 -31 0 -24 43 7 40 19 57 40 57 6 0 15 -4 21 -8z m-106 -62 c0 -46 -2
-50 -24 -50 -18 0 -25 7 -30 28 -4 15 -9 35 -12 44 -5 16 10 24 49 27 14 1 17
-8 17 -49z"/>
</g>
<g id="part-2" class="char-part">
  <path d="M350 233 c0 -16 54 -83 66 -83 18 0 18 44 1 58 -18 15 -67 33 -67 25z"/>
</g>
<g id="part-3" class="char-part">
  <path d="M540 519 c7 -13 21 -36 32 -51 10 -15 15 -29 11 -31 -5 -3 -36 -8
-70 -12 -40 -4 -61 -11 -57 -17 9 -14 179 -4 249 14 67 17 59 34 -16 31 -51
-3 -60 0 -55 12 8 22 -34 64 -73 71 -33 7 -33 6 -21 -17z"/>
</g>
<g id="part-4" class="char-part">
  <path d="M589 402 c-25 -3 -25 -5 -21 -57 l4 -53 -46 -7 c-59 -9 -61 -28 -2
-23 42 3 45 1 50 -26 3 -16 6 -43 6 -61 0 -32 0 -32 -61 -39 -34 -3 -82 -6
-105 -6 -47 0 -59 -16 -21 -25 13 -4 69 -1 126 4 57 6 154 11 217 11 112 0
136 8 94 30 -14 7 -53 9 -116 4 l-95 -7 3 64 3 64 58 9 c57 8 78 25 35 27 -31
2 -29 2 -67 -6 l-34 -7 5 51 c6 57 5 58 -33 53z"/>
</g>
</g>
</svg>