<?xml version="1.0" standalone="no"?>
<!DOCTYPE svg PUBLIC "-//W3C//DTD SVG 20010904//EN"
 "http://www.w3.org/TR/2001/REC-SVG-20010904/DTD/svg10.dtd">
<svg version="1.0" xmlns="http://www.w3.org/2000/svg"
 width="96.000000pt" height="68.000000pt" viewBox="0 0 96.000000 68.000000"
 preserveAspectRatio="xMidYMid meet">
<metadata>
Created by potrace 1.16, written by Peter Selinger 2001-2019
Combined from part_0.svg through part_5.svg with named groups
</metadata>
<g transform="translate(0.000000,68.000000) scale(0.100000,-0.100000)" fill="#000000" stroke="none">
<g id="part-0" class="char-part">
  <path d="M747 583 c-3 -2 -1 -19 4 -36 10 -37 12 -275 2 -367 l-6 -62 -43 5
-42 4 46 -43 c26 -24 52 -44 58 -44 24 0 33 62 37 261 3 137 8 213 17 229 11
20 10 24 -6 34 -25 15 -62 25 -67 19z"/>
  <path d="M510 545 c-30 -7 -72 -14 -92 -14 -34 -1 -65 -20 -36 -22 7 -1 24 -2
38 -2 21 -2 25 -6 22 -31 -3 -27 -28 -71 -57 -102 -65 -70 -75 -92 -27 -59 21
15 23 14 54 -21 18 -21 33 -41 33 -45 0 -14 -89 -112 -120 -130 -17 -11 -23
-19 -14 -19 23 0 99 52 140 96 21 22 54 66 74 99 21 33 47 70 59 83 21 24 21
24 1 39 -19 14 -68 13 -109 -3 -23 -9 -20 7 9 40 17 20 22 33 15 41 -7 8 7 15
52 23 68 13 79 19 58 32 -18 12 -29 11 -100 -5z m10 -160 c0 -16 -25 -70 -42
-92 -6 -8 -15 -5 -32 11 -12 13 -28 25 -36 28 -22 7 17 56 48 61 53 8 62 7 62
-8z"/>
  <path d="M240 480 c-8 -5 -41 -10 -72 -10 -32 0 -58 -2 -58 -5 0 -3 6 -16 14
-28 8 -12 17 -43 20 -69 8 -51 19 -66 39 -49 7 5 37 11 67 13 38 2 54 7 52 16
-1 7 7 35 19 62 12 27 19 56 15 65 -6 17 -72 21 -96 5z m18 -72 c-3 -42 -4
-43 -40 -46 -35 -3 -38 -1 -38 22 0 13 -3 31 -6 39 -4 11 2 17 23 20 66 10 64
10 61 -35z"/>
  <path d="M637 454 c-4 -4 -2 -13 5 -21 7 -9 9 -38 5 -87 -5 -54 -3 -78 7 -92
8 -10 18 -15 22 -11 13 13 18 207 6 207 -6 0 -17 2 -24 5 -8 3 -17 3 -21 -1z"/>
</g>
<g id="part-1" class="char-part">
  <path d="M235 475 c-22 -8 -56 -14 -76 -14 l-37 -1 14 -37 c7 -21 13 -50 14
-65 0 -15 3 -29 8 -31 4 -3 37 0 75 5 51 8 67 14 67 27 0 9 10 36 21 61 19 42
19 45 3 57 -21 16 -36 15 -89 -2z m29 -72 c-6 -37 -10 -42 -41 -48 -19 -3 -37
-5 -39 -2 -2 2 -7 24 -10 50 l-7 46 44 3 c24 2 48 0 52 -3 4 -3 5 -24 1 -46z"/>
</g>
<g id="part-2" class="char-part">
  <path d="M500 545 c-30 -7 -69 -14 -87 -14 -44 -1 -51 -19 -11 -26 31 -6 216
20 228 31 8 9 -25 24 -50 22 -14 0 -50 -6 -80 -13z"/>
</g>
<g id="part-3" class="char-part">
  <path d="M464 502 c-6 -4 -20 -27 -31 -52 -11 -25 -41 -69 -67 -97 -27 -29
-44 -53 -39 -53 12 0 53 28 89 62 17 16 47 31 67 35 32 5 37 3 37 -14 0 -45
-114 -198 -199 -267 -31 -24 -32 -27 -11 -21 70 22 152 100 224 212 26 40 51
75 56 78 37 23 -28 51 -84 36 -22 -5 -42 -9 -43 -7 -2 1 8 17 22 36 19 25 22
37 14 47 -13 15 -19 16 -35 5z"/>
</g>
<g id="part-4" class="char-part">
  <path d="M752 543 c6 -22 9 -114 6 -226 -4 -206 -6 -212 -62 -196 -17 5 -32 9
-34 9 -10 0 94 -89 104 -90 24 0 33 62 37 260 3 152 8 212 18 229 12 20 12 24
-5 37 -11 8 -32 14 -47 14 -27 0 -27 -1 -17 -37z"/>
</g>
</g>
</svg>