<?xml version="1.0" standalone="no"?>
<!DOCTYPE svg PUBLIC "-//W3C//DTD SVG 20010904//EN"
 "http://www.w3.org/TR/2001/REC-SVG-20010904/DTD/svg10.dtd">
<svg version="1.0" xmlns="http://www.w3.org/2000/svg"
 width="96.000000pt" height="68.000000pt" viewBox="0 0 96.000000 68.000000"
 preserveAspectRatio="xMidYMid meet">
<metadata>
Created by potrace 1.16, written by Peter Selinger 2001-2019
Combined from part_0.svg through part_5.svg with named groups
</metadata>
<g transform="translate(0.000000,68.000000) scale(0.100000,-0.100000)" fill="#000000" stroke="none">
<g id="part-0" class="char-part">
  <path d="M570 614 c-14 -8 -50 -25 -80 -39 l-55 -24 46 6 c42 5 47 3 52 -18 9
-34 -1 -39 -81 -46 -43 -3 -69 -10 -65 -16 3 -5 31 -7 64 -4 33 3 59 1 59 -3
0 -12 -78 -72 -119 -92 -21 -10 -29 -17 -18 -18 27 0 78 24 113 53 18 15 34
27 37 27 3 0 7 -20 9 -44 3 -42 1 -45 -26 -50 -16 -3 -39 -6 -52 -6 -13 0 -24
-4 -24 -10 0 -13 52 -12 109 1 63 14 80 5 51 -26 -13 -14 -29 -25 -37 -25 -7
0 -13 -4 -13 -10 0 -5 5 -10 10 -10 6 0 10 -8 10 -19 0 -15 -11 -19 -61 -25
-34 -3 -79 -6 -100 -6 -21 0 -40 -4 -44 -9 -10 -17 57 -23 125 -12 36 6 69 11
73 11 4 0 7 -24 5 -52 l-3 -53 -38 0 -38 0 37 -32 c20 -18 42 -33 50 -33 22 0
34 35 34 103 0 77 -1 77 134 77 81 0 87 1 75 16 -12 14 -28 16 -109 10 -94 -6
-95 -6 -106 18 -11 23 -9 26 37 45 26 12 50 25 53 30 11 17 -27 35 -69 33
l-43 -1 -4 49 c-2 29 1 50 7 50 6 0 40 -20 77 -45 73 -49 108 -57 108 -26 0
23 -59 53 -137 71 -66 15 -59 30 15 31 31 1 71 5 87 9 53 12 1 23 -79 17 l-73
-6 0 34 c0 30 4 35 31 41 43 9 49 14 35 30 -14 17 -36 17 -69 -2z"/>
  <path d="M225 588 c14 -46 17 -227 5 -355 -13 -146 -10 -183 19 -183 24 0 31
19 31 89 0 32 3 112 6 178 l7 121 34 -21 c29 -17 36 -18 44 -6 15 24 11 29
-37 49 l-45 20 6 55 c7 53 6 55 -20 65 -44 17 -58 13 -50 -12z"/>
  <path d="M135 381 c-16 -33 -25 -66 -21 -76 9 -24 48 -15 63 15 17 33 16 95 0
109 -11 8 -20 -2 -42 -48z"/>
</g>
<g id="part-1" class="char-part">
  <path d="M235 413 c0 -109 -3 -230 -5 -270 -4 -50 -1 -76 8 -84 29 -30 37 7
40 201 2 105 7 190 11 190 4 0 16 -9 26 -20 23 -25 55 -26 55 -2 0 13 -12 23
-41 31 -40 12 -40 13 -39 59 2 68 2 68 -25 80 -14 7 -27 12 -28 12 -1 0 -2
-89 -2 -197z"/>
  <path d="M142 385 c-24 -50 -28 -80 -12 -90 27 -17 67 64 56 111 -9 35 -19 30
-44 -21z"/>
</g>
<g id="part-2" class="char-part">
  <path d="M565 614 c-11 -8 -46 -24 -78 -36 -31 -11 -55 -23 -53 -25 10 -10
216 41 216 53 0 26 -54 31 -85 8z"/>
</g>
<g id="part-3" class="char-part">
  <path d="M530 537 l0 -35 -75 -7 c-93 -9 -102 -29 -10 -23 36 2 65 2 65 1 0
-9 -78 -71 -119 -95 -25 -15 -43 -28 -40 -28 21 0 97 34 133 60 l41 31 5 -38
c3 -26 11 -39 23 -41 14 -3 17 4 17 47 0 28 3 51 8 51 4 0 40 -22 80 -49 48
-32 81 -47 93 -44 13 4 18 11 15 20 -3 8 -6 16 -6 19 0 9 -80 42 -133 53 -70
15 -65 31 11 32 31 1 71 4 87 8 29 7 29 7 9 19 -16 8 -38 9 -80 2 -33 -6 -62
-10 -66 -10 -4 0 -8 12 -10 28 -2 19 -9 28 -25 30 -20 3 -23 -1 -23 -31z"/>
</g>
<g id="part-4" class="char-part">
  <path d="M548 268 c7 -7 12 -19 12 -29 0 -13 -13 -18 -61 -23 -34 -3 -82 -6
-105 -6 -48 0 -59 -16 -19 -26 23 -6 67 -2 153 13 l32 5 0 -49 c0 -59 -13 -75
-48 -62 -37 14 -37 5 3 -30 41 -35 48 -37 69 -15 12 11 16 36 16 90 l0 74 113
0 c103 1 110 2 92 16 -16 12 -37 14 -106 9 -84 -7 -87 -6 -112 19 -14 14 -32
26 -39 26 -9 0 -9 -3 0 -12z"/>
</g>
</g>
</svg>