<?xml version="1.0" standalone="no"?>
<!DOCTYPE svg PUBLIC "-//W3C//DTD SVG 20010904//EN"
 "http://www.w3.org/TR/2001/REC-SVG-20010904/DTD/svg10.dtd">
<svg version="1.0" xmlns="http://www.w3.org/2000/svg"
 width="96.000000pt" height="68.000000pt" viewBox="0 0 96.000000 68.000000"
 preserveAspectRatio="xMidYMid meet">
<metadata>
Created by potrace 1.16, written by Peter Selinger 2001-2019
Combined from part_0.svg through part_5.svg with named groups
</metadata>
<g transform="translate(0.000000,68.000000) scale(0.100000,-0.100000)" fill="#000000" stroke="none">
<g id="part-0" class="char-part">
  <path d="M237 538 c4 -24 8 -65 8 -93 l0 -50 -54 -7 c-30 -5 -57 -11 -60 -14
-13 -13 28 -24 72 -19 l47 6 0 -39 c0 -46 -4 -50 -92 -88 -38 -15 -68 -33 -68
-40 0 -6 12 -16 26 -23 21 -9 31 -9 48 2 11 8 33 22 49 32 l27 17 0 -57 0 -58
-42 6 -41 6 46 -47 c39 -39 50 -45 65 -36 14 9 17 29 20 117 l3 106 40 29 c24
18 36 33 29 37 -6 4 -16 3 -23 -3 -7 -5 -20 -12 -29 -15 -15 -5 -18 0 -18 28
0 31 3 34 33 37 40 4 44 32 5 36 -24 3 -28 8 -28 36 0 18 5 48 12 66 10 30 9
35 -12 52 -12 10 -33 18 -46 18 -23 0 -24 -2 -17 -42z"/>
  <path d="M620 554 c0 -33 -17 -64 -35 -64 -8 0 -15 -4 -15 -10 0 -5 7 -10 15
-10 12 0 14 -7 9 -27 l-6 -28 27 33 c21 25 34 32 63 33 20 0 46 4 57 8 19 8
19 8 -2 19 -12 7 -35 9 -53 5 -31 -6 -32 -5 -20 16 15 29 6 51 -20 51 -15 0
-20 -7 -20 -26z"/>
  <path d="M400 536 c0 -2 7 -16 15 -32 17 -34 7 -44 -42 -44 -18 0 -33 -4 -33
-9 0 -15 37 -23 70 -16 22 5 32 3 36 -9 9 -25 24 -19 24 9 0 18 7 28 25 35 35
13 31 23 -5 15 -27 -6 -30 -4 -30 18 0 17 -7 27 -22 31 -27 7 -38 7 -38 2z"/>
  <path d="M497 403 c-4 -3 -7 -15 -7 -25 0 -24 -89 -119 -135 -144 -19 -10 -37
-24 -39 -31 -10 -24 108 45 167 97 39 36 61 49 70 43 6 -5 44 -34 82 -65 42
-34 84 -59 105 -62 40 -7 97 6 90 20 -2 5 -38 19 -78 32 -81 26 -176 81 -205
118 -18 24 -37 30 -50 17z"/>
  <path d="M495 263 c-51 -8 -53 -23 -3 -23 58 0 108 10 108 21 0 9 -49 10 -105
2z"/>
  <path d="M525 185 c-49 -7 -98 -14 -109 -14 -13 -1 -16 -4 -9 -13 6 -7 16 -37
23 -66 13 -55 26 -73 36 -48 5 13 24 16 95 16 76 0 89 2 89 16 0 9 10 32 22
52 l21 35 -22 18 c-26 21 -23 21 -146 4z m92 -51 c-3 -20 -8 -38 -10 -41 -3
-2 -36 -7 -74 -10 l-70 -6 -7 33 c-3 18 -4 35 -2 37 6 6 95 20 135 22 33 1 34
1 28 -35z"/>
</g>
<g id="part-1" class="char-part">
  <path d="M247 485 l6 -93 -49 -7 c-78 -10 -84 -19 -16 -23 l62 -3 0 -43 0 -44
-75 -33 c-78 -35 -93 -54 -51 -65 18 -4 37 3 70 25 24 17 47 31 50 31 8 0 7
-79 0 -108 -6 -20 -11 -22 -43 -16 l-36 7 45 -41 c25 -23 48 -41 51 -42 17 -1
29 61 29 145 l0 93 37 23 c21 13 31 25 24 27 -7 2 -18 -1 -24 -7 -21 -21 -37
-12 -37 23 0 35 13 46 51 46 10 0 19 4 19 9 0 13 -30 22 -51 16 -24 -8 -25 21
-4 91 16 54 13 60 -32 73 l-31 9 5 -93z"/>
</g>
<g id="part-2" class="char-part">
  <path d="M616 536 c-6 -36 -11 -46 -26 -46 -10 0 -22 -4 -25 -10 -3 -5 3 -10
14 -10 18 0 19 -3 11 -25 -13 -34 1 -31 28 5 17 22 31 30 55 31 18 1 43 4 57
8 l25 7 -22 12 c-13 7 -34 10 -47 6 -22 -5 -24 -3 -23 28 2 27 -2 34 -19 36
-19 3 -23 -3 -28 -42z"/>
  <path d="M400 535 c0 -4 7 -19 15 -34 14 -27 13 -29 -8 -35 -12 -3 -35 -6 -51
-6 -24 0 -27 -2 -16 -15 14 -17 53 -20 79 -5 15 7 21 4 32 -18 l13 -27 4 31
c2 23 11 35 35 48 l32 16 -37 -5 c-35 -5 -38 -4 -38 18 0 17 -7 27 -22 31 -29
7 -38 7 -38 1z"/>
</g>
<g id="part-3" class="char-part">
  <path d="M485 373 c-20 -47 -65 -94 -129 -136 -27 -17 -45 -32 -39 -34 22 -8
107 41 163 94 l61 56 38 -29 c21 -16 62 -48 91 -72 52 -42 55 -43 104 -37 81
11 86 21 20 39 -80 21 -200 84 -239 124 -18 17 -37 32 -43 32 -7 0 -19 -17
-27 -37z"/>
</g>
<g id="part-4" class="char-part">
  <path d="M530 184 c-52 -8 -105 -13 -117 -11 -25 5 -31 -8 -9 -16 8 -3 19 -31
26 -61 12 -58 26 -78 36 -52 5 13 24 16 101 16 78 0 93 2 85 13 -9 10 -5 23
15 52 l26 38 -23 19 c-12 10 -27 18 -34 17 -6 -1 -54 -8 -106 -15z m90 -41 c0
-48 -13 -57 -88 -61 l-70 -4 -7 32 c-4 17 -5 33 -2 36 7 7 89 22 130 23 34 1
37 -1 37 -26z"/>
</g>
</g>
</svg>