<?xml version="1.0" standalone="no"?>
<!DOCTYPE svg PUBLIC "-//W3C//DTD SVG 20010904//EN"
 "http://www.w3.org/TR/2001/REC-SVG-20010904/DTD/svg10.dtd">
<svg version="1.0" xmlns="http://www.w3.org/2000/svg"
 width="96.000000pt" height="68.000000pt" viewBox="0 0 96.000000 68.000000"
 preserveAspectRatio="xMidYMid meet">
<metadata>
Created by potrace 1.16, written by Peter Selinger 2001-2019
Combined from part_0.svg through part_5.svg with named groups
</metadata>
<g transform="translate(0.000000,68.000000) scale(0.100000,-0.100000)" fill="#000000" stroke="none">
<g id="part-0" class="char-part">
  <path d="M234 578 c3 -13 9 -48 12 -79 l7 -56 -58 -8 c-32 -4 -65 -9 -72 -12
-28 -11 9 -23 70 -23 l57 0 0 -38 c0 -37 -1 -38 -85 -81 -47 -25 -85 -48 -85
-52 0 -10 34 -29 53 -29 8 0 35 16 61 35 l46 36 0 -82 0 -81 -35 6 c-19 4 -35
4 -35 1 0 -12 73 -75 86 -75 25 0 34 39 34 152 l0 113 37 33 c37 33 31 38 -20
17 -16 -7 -18 -3 -15 26 3 31 6 34 43 39 55 7 56 35 2 35 l-39 0 5 40 c2 22 8
49 11 61 6 16 2 23 -19 32 -14 7 -35 12 -47 12 -16 0 -19 -4 -14 -22z"/>
  <path d="M530 580 c-63 -10 -117 -18 -120 -19 -3 -1 6 -7 20 -14 21 -11 26
-22 32 -76 4 -36 5 -68 2 -73 -3 -4 -22 -8 -42 -8 -27 0 -33 -3 -24 -12 8 -8
31 -8 94 0 110 16 108 16 108 -16 0 -27 0 -28 -67 -27 -70 0 -205 -13 -213
-21 -2 -3 5 -7 17 -10 22 -6 33 -44 33 -121 0 -44 -6 -49 -50 -43 -12 1 -12
-2 2 -16 17 -18 38 -16 126 11 21 7 22 5 22 -44 0 -39 4 -51 15 -51 8 0 16 10
17 23 1 12 3 31 4 42 1 11 2 64 3 118 1 96 1 97 26 97 14 0 29 -8 35 -19 15
-29 13 -151 -2 -152 -7 -1 -17 -2 -23 -4 -5 -1 -14 -3 -20 -4 -5 -1 0 -6 12
-11 12 -5 48 -5 84 0 35 5 65 7 67 5 2 -2 5 -28 6 -59 2 -31 5 -59 9 -62 14
-14 27 10 27 49 0 76 7 87 50 81 22 -3 47 -1 57 4 16 10 16 11 -7 20 -14 5
-40 7 -58 4 l-33 -4 3 76 c2 75 3 76 30 76 15 0 29 4 33 9 12 20 -31 28 -99
20 -38 -5 -72 -7 -74 -4 -2 2 -2 16 2 30 6 23 11 25 61 25 30 0 55 4 55 10 0
12 -64 24 -90 17 -18 -5 -20 0 -20 53 0 78 6 90 44 90 29 1 30 1 12 15 -23 18
-19 18 -166 -5z m70 -35 c0 -8 -16 -19 -37 -24 -55 -16 -63 -14 -63 14 0 23 3
25 50 25 37 0 50 -4 50 -15z m0 -54 c0 -13 -10 -20 -31 -25 -54 -10 -69 -7
-69 13 0 19 10 23 83 29 11 1 17 -5 17 -17z m0 -55 c0 -20 -8 -23 -55 -27 -31
-3 -40 0 -43 13 -2 12 5 18 25 21 58 8 73 7 73 -7z m90 -141 c0 -17 -6 -25
-17 -25 -10 0 -28 -3 -40 -6 -19 -5 -23 -2 -23 18 0 32 7 38 47 38 29 0 33 -3
33 -25z m-217 -5 c4 -14 0 -20 -11 -20 -10 0 -27 -3 -39 -6 -20 -5 -23 -2 -23
20 0 23 4 26 34 26 25 0 35 -5 39 -20z m3 -51 c9 -15 -14 -29 -48 -29 -21 0
-28 5 -28 20 0 16 7 20 34 20 19 0 38 -5 42 -11z m224 2 c0 -13 -9 -17 -52
-25 -34 -6 -38 -5 -38 14 0 17 6 20 45 20 25 0 45 -4 45 -9z m-224 -52 c9 -15
-6 -28 -44 -35 -27 -6 -32 -4 -32 13 0 11 3 23 7 26 10 11 61 8 69 -4z m222
-6 c-2 -13 -16 -20 -46 -24 -39 -5 -42 -4 -42 18 0 21 5 23 46 23 38 0 45 -3
42 -17z"/>
</g>
<g id="part-1" class="char-part">
  <path d="M247 521 c6 -78 5 -80 -18 -85 -13 -2 -44 -9 -69 -14 l-45 -10 68 -1
68 -1 -3 -47 -3 -47 -83 -42 -83 -43 26 -17 c18 -12 31 -14 40 -8 7 5 33 24
59 42 l46 33 -1 -58 c-2 -70 -12 -118 -25 -117 -5 1 -20 5 -34 9 -22 6 -20 2
17 -36 41 -42 44 -43 60 -26 15 15 18 37 18 137 l0 120 38 26 c43 32 42 43 -2
19 l-31 -16 0 39 c0 38 1 40 40 46 52 8 52 26 -1 26 -46 0 -45 -4 -24 96 6 26
3 32 -20 42 -14 7 -30 12 -35 12 -6 0 -7 -33 -3 -79z"/>
</g>
<g id="part-2" class="char-part">
  <path d="M523 581 c-61 -9 -114 -19 -118 -22 -3 -4 7 -11 23 -17 27 -9 30 -15
37 -76 5 -47 11 -66 21 -66 8 0 14 9 14 20 0 16 9 21 50 26 28 4 50 11 50 16
0 6 -20 7 -50 3 -42 -6 -50 -4 -50 9 0 9 11 18 25 21 14 3 37 7 51 11 18 3 23
9 17 15 -6 6 -19 6 -37 -1 -40 -15 -56 -12 -56 9 0 11 4 22 8 25 4 2 50 8 102
11 102 8 113 11 90 25 -19 12 -39 11 -177 -9z"/>
</g>
<g id="part-3" class="char-part">
  <path d="M605 562 c-5 -4 -10 -38 -10 -77 l0 -70 -109 -14 c-79 -10 -104 -16
-92 -23 11 -6 47 -6 98 1 109 15 108 15 108 -14 0 -34 16 -31 29 5 9 28 13 30
65 30 31 0 56 4 56 10 0 14 -46 23 -81 16 l-31 -6 4 72 c2 59 0 73 -12 75 -8
2 -19 0 -25 -5z"/>
</g>
<g id="part-4" class="char-part">
  <path d="M698 242 l4 -80 -86 -7 c-47 -4 -88 -11 -91 -15 -9 -14 36 -19 93 -9
83 13 83 13 81 -23 -8 -107 21 -137 32 -34 4 31 9 59 12 62 3 3 23 5 45 6 22
0 45 4 52 8 20 13 -8 23 -57 21 l-45 -1 4 72 c3 72 3 73 -23 76 l-26 3 5 -79z"/>
</g>
</g>
</svg>