<?xml version="1.0" standalone="no"?>
<!DOCTYPE svg PUBLIC "-//W3C//DTD SVG 20010904//EN"
 "http://www.w3.org/TR/2001/REC-SVG-20010904/DTD/svg10.dtd">
<svg version="1.0" xmlns="http://www.w3.org/2000/svg"
 width="96.000000pt" height="68.000000pt" viewBox="0 0 96.000000 68.000000"
 preserveAspectRatio="xMidYMid meet">
<metadata>
Created by potrace 1.16, written by Peter Selinger 2001-2019
Combined from part_0.svg through part_5.svg with named groups
</metadata>
<g transform="translate(0.000000,68.000000) scale(0.100000,-0.100000)" fill="#000000" stroke="none">
<g id="part-0" class="char-part">
  <path d="M306 565 c-10 -25 -38 -68 -63 -95 -25 -28 -43 -53 -40 -56 7 -7 45
15 80 46 28 25 44 29 250 64 43 7 80 16 84 19 3 4 -7 11 -22 17 -22 8 -51 5
-134 -13 -58 -13 -108 -23 -110 -21 -3 2 6 16 20 30 24 25 24 26 5 40 -33 24
-50 16 -70 -31z"/>
  <path d="M475 474 c-5 -2 -46 -10 -90 -18 l-80 -14 54 -1 c67 -1 181 18 181
30 0 9 -46 11 -65 3z"/>
  <path d="M450 409 c-63 -10 -142 -21 -175 -25 -46 -5 -55 -8 -41 -16 12 -7 49
-6 114 2 54 7 125 16 160 19 l62 6 0 -96 c0 -53 6 -116 14 -141 28 -95 96
-148 189 -148 57 0 69 13 52 54 -7 17 -17 42 -23 56 -9 24 -10 23 -22 -22 -9
-37 -17 -48 -32 -48 -46 0 -109 58 -129 118 -15 46 -6 170 16 211 8 17 13 36
10 41 -9 14 -62 11 -195 -11z"/>
  <path d="M365 329 c-22 -4 -63 -8 -92 -8 l-51 -1 19 -51 c11 -27 17 -54 14
-58 -2 -5 2 -14 9 -20 10 -9 16 -9 21 -1 4 7 33 10 74 9 38 -1 73 1 79 5 6 4
19 32 29 62 15 48 15 57 3 65 -17 10 -49 10 -105 -2z m59 -18 c3 -5 3 -29 0
-52 l-6 -44 -66 0 -67 0 -12 38 c-15 46 -11 57 23 57 26 0 31 -18 13 -51 -9
-18 -8 -19 10 -7 16 10 23 10 33 0 14 -14 48 -16 48 -2 0 5 -11 12 -25 16 -26
7 -35 38 -12 47 20 9 55 8 61 -2z"/>
  <path d="M350 163 c-63 -7 -127 -11 -142 -8 -16 2 -28 0 -28 -5 0 -6 4 -10 9
-10 5 0 15 -16 21 -36 15 -45 5 -53 -60 -54 -37 -1 -42 -2 -26 -11 13 -8 51
-8 136 0 65 6 163 11 218 11 128 0 151 23 33 32 l-33 3 22 28 c17 21 19 31 11
41 -18 22 -39 23 -161 9z m20 -59 c0 -30 -3 -34 -25 -34 -22 0 -25 4 -25 34 0
25 5 36 18 39 26 6 32 -1 32 -39z m90 25 c0 -35 -19 -59 -46 -59 -24 0 -25 3
-19 33 10 44 13 47 41 47 18 0 24 -5 24 -21z m-170 -9 c5 -8 10 -25 10 -37 0
-18 -6 -23 -24 -23 -23 0 -36 21 -36 61 0 21 37 20 50 -1z"/>
</g>
<g id="part-1" class="char-part">
  <path d="M320 595 c0 -25 -29 -75 -72 -127 -46 -56 -38 -62 18 -15 33 28 55
36 154 55 63 12 132 24 153 27 21 3 35 10 32 16 -10 14 -60 11 -156 -12 -49
-11 -94 -19 -100 -17 -6 2 -1 16 12 32 22 28 22 29 4 42 -25 18 -45 18 -45 -1z"/>
</g>
<g id="part-2" class="char-part">
  <path d="M440 409 c-69 -11 -147 -22 -175 -25 -46 -6 -48 -7 -26 -17 18 -9 58
-6 169 10 81 12 150 19 154 17 4 -3 8 -47 8 -98 0 -148 35 -231 114 -267 42
-19 141 -26 150 -10 3 5 -5 37 -18 72 l-23 62 -13 -51 c-10 -42 -16 -52 -33
-52 -29 0 -79 37 -108 78 -21 31 -24 47 -24 121 0 64 5 96 19 124 31 64 15 67
-194 36z"/>
</g>
<g id="part-3" class="char-part">
  <path d="M365 330 c-16 -4 -58 -8 -93 -9 -57 -1 -62 -3 -48 -16 8 -8 18 -35
21 -58 10 -62 17 -72 45 -57 14 7 48 11 86 8 l62 -4 25 63 c24 61 25 64 7 73
-21 11 -61 11 -105 0z m59 -57 c-3 -27 -7 -49 -8 -49 0 -1 -30 -3 -65 -5 l-64
-4 -13 39 c-8 22 -12 41 -10 44 5 5 99 19 139 21 28 1 28 1 21 -46z"/>
</g>
<g id="part-4" class="char-part">
  <path d="M320 293 c0 -10 -7 -29 -16 -42 l-17 -23 26 17 c20 13 30 14 46 6 25
-14 41 -14 41 -1 0 5 -11 12 -25 16 -16 4 -24 12 -23 22 2 9 -5 18 -14 20 -12
2 -18 -3 -18 -15z"/>
</g>
<g id="part-5" class="char-part">
  <path d="M370 109 c0 -19 4 -28 11 -23 6 3 9 15 6 25 -3 11 -1 17 4 13 5 -3 9
0 9 5 0 6 -7 11 -15 11 -10 0 -15 -10 -15 -31z"/>
  <path d="M295 121 c-3 -5 -1 -12 4 -15 5 -3 11 1 15 9 6 16 -9 21 -19 6z"/>
  <path d="M309 77 c6 -8 8 -17 4 -20 -3 -4 4 -7 17 -7 l24 0 -22 20 c-24 23
-40 27 -23 7z"/>
  <path d="M465 70 c-43 -6 -39 -7 33 -7 50 0 79 3 70 8 -14 9 -27 9 -103 -1z"/>
  <path d="M390 59 c0 -5 5 -7 10 -4 6 3 10 8 10 11 0 2 -4 4 -10 4 -5 0 -10 -5
-10 -11z"/>
  <path d="M180 44 l-45 -13 45 6 c25 3 55 6 68 5 12 -1 22 2 22 6 0 12 -42 10
-90 -4z"/>
</g>
</g>
</svg>