<?xml version="1.0" standalone="no"?>
<!DOCTYPE svg PUBLIC "-//W3C//DTD SVG 20010904//EN"
 "http://www.w3.org/TR/2001/REC-SVG-20010904/DTD/svg10.dtd">
<svg version="1.0" xmlns="http://www.w3.org/2000/svg"
 width="96.000000pt" height="68.000000pt" viewBox="0 0 96.000000 68.000000"
 preserveAspectRatio="xMidYMid meet">
<metadata>
Created by potrace 1.16, written by Peter Selinger 2001-2019
Combined from part_0.svg through part_5.svg with named groups
</metadata>
<g transform="translate(0.000000,68.000000) scale(0.100000,-0.100000)" fill="#000000" stroke="none">
<g id="part-0" class="char-part">
  <path d="M547 593 c-4 -3 -7 -19 -7 -35 0 -22 -4 -28 -22 -28 -36 0 -68 -11
-62 -21 3 -5 21 -9 41 -9 34 0 35 -1 30 -30 -9 -40 8 -38 35 5 20 31 28 35 68
36 25 0 56 4 69 8 40 11 0 34 -52 30 -39 -4 -43 -2 -39 15 7 26 -41 50 -61 29z"/>
  <path d="M290 561 c0 -11 5 -23 10 -26 25 -16 5 -25 -55 -25 -49 0 -65 -3 -65
-14 0 -25 56 -40 99 -27 50 14 48 15 55 -14 9 -36 36 -32 36 4 0 25 5 31 30
36 40 9 38 25 -4 25 -29 0 -34 4 -39 30 -6 25 -11 30 -37 30 -23 0 -30 -4 -30
-19z"/>
  <path d="M629 436 c-2 -3 -38 -7 -79 -10 -41 -4 -93 -9 -115 -11 -22 -3 -58
-7 -80 -9 -162 -16 -177 -19 -161 -28 38 -21 7 -210 -49 -293 -37 -53 -22 -56
23 -6 43 48 80 147 97 259 6 37 10 42 33 43 15 1 47 3 72 5 25 2 105 7 178 12
120 9 154 15 141 26 -7 6 -56 16 -60 12z"/>
  <path d="M422 358 c1 -7 -4 -29 -12 -49 -13 -35 -16 -37 -72 -43 -60 -7 -72
-26 -17 -26 29 0 30 -1 27 -42 -3 -38 -6 -43 -30 -46 -26 -3 -27 -1 -22 27 6
27 4 31 -14 31 -14 0 -20 -5 -16 -14 3 -8 0 -24 -6 -36 -6 -12 -9 -28 -6 -36
5 -12 11 -11 41 3 19 9 37 14 41 11 11 -12 -8 -49 -43 -83 -41 -39 -35 -46 12
-14 30 21 75 79 75 98 0 5 14 11 30 13 24 4 30 1 30 -15 0 -10 5 -17 12 -15
15 5 40 78 33 96 -7 18 -40 11 -41 -8 -2 -34 -5 -38 -30 -43 -24 -4 -25 -3
-23 37 3 47 12 56 56 56 45 0 51 18 7 22 l-36 3 30 30 c22 22 28 33 20 42 -14
17 -50 17 -46 1z"/>
  <path d="M550 336 c-6 -19 -20 -47 -32 -61 -23 -30 -17 -46 9 -23 18 15 132
42 141 33 3 -3 0 -16 -6 -30 -14 -31 -9 -31 46 1 l45 26 -32 21 c-34 21 -28
21 -135 -10 -18 -5 -18 -3 2 29 23 37 20 48 -9 48 -11 0 -22 -13 -29 -34z"/>
  <path d="M300 335 c0 -12 33 -55 41 -55 17 0 9 39 -10 50 -22 11 -31 13 -31 5z"/>
  <path d="M560 208 c-1 -39 -37 -107 -81 -149 -22 -21 -37 -39 -32 -39 19 0 73
41 104 79 18 23 36 41 40 41 4 0 33 -27 65 -60 56 -59 59 -60 111 -60 29 0 53
4 53 9 0 5 -19 17 -43 26 -24 9 -72 38 -107 64 -52 40 -64 54 -65 77 0 22 -5
30 -22 32 -18 3 -23 -2 -23 -20z"/>
</g>
<g id="part-1" class="char-part">
  <path d="M550 566 c0 -36 -15 -45 -70 -46 -20 0 -22 -2 -10 -10 8 -5 27 -10
43 -10 31 0 30 0 17 -34 -14 -37 4 -32 28 8 20 34 50 46 118 46 19 0 34 4 34
9 0 14 -49 23 -82 15 -27 -5 -29 -4 -24 14 5 15 1 24 -13 31 -32 18 -41 13
-41 -23z"/>
  <path d="M295 570 c-4 -6 0 -22 9 -35 14 -21 14 -24 0 -29 -9 -3 -38 -6 -66
-6 -45 0 -49 -2 -37 -16 11 -13 25 -15 72 -10 55 5 58 5 67 -20 12 -31 32 -22
26 12 -4 21 0 26 25 31 45 9 50 27 5 20 -34 -5 -37 -4 -43 24 -3 16 -9 29 -13
29 -5 0 -15 3 -23 6 -8 3 -18 0 -22 -6z"/>
</g>
<g id="part-2" class="char-part">
  <path d="M420 414 c-118 -13 -222 -23 -230 -24 -12 0 -11 -3 3 -11 43 -25 6
-219 -58 -304 -40 -52 -35 -57 16 -15 48 39 82 114 103 226 l18 92 67 5 c36 4
113 9 171 12 139 8 194 15 184 25 -19 17 -68 16 -274 -6z"/>
</g>
<g id="part-3" class="char-part">
  <path d="M420 350 c0 -12 -7 -34 -15 -49 -12 -25 -22 -30 -72 -36 -47 -6 -54
-9 -38 -17 20 -12 182 9 191 24 5 8 -17 12 -43 9 -19 -3 -16 8 12 41 28 34 25
48 -11 48 -18 0 -24 -5 -24 -20z"/>
  <path d="M315 310 c15 -30 29 -38 39 -22 8 13 -23 52 -40 52 -13 0 -12 -4 1
-30z"/>
</g>
<g id="part-4" class="char-part">
  <path d="M560 208 c-1 -38 -36 -104 -79 -147 -46 -46 -45 -50 8 -20 32 18 65
54 91 98 6 10 23 -3 70 -53 62 -66 63 -66 116 -66 62 0 70 13 19 30 -38 12
-116 63 -159 103 -18 16 -24 30 -20 42 4 10 1 21 -7 26 -24 15 -39 10 -39 -13z"/>
</g>
</g>
</svg>