<?xml version="1.0" standalone="no"?>
<!DOCTYPE svg PUBLIC "-//W3C//DTD SVG 20010904//EN"
 "http://www.w3.org/TR/2001/REC-SVG-20010904/DTD/svg10.dtd">
<svg version="1.0" xmlns="http://www.w3.org/2000/svg"
 width="96.000000pt" height="68.000000pt" viewBox="0 0 96.000000 68.000000"
 preserveAspectRatio="xMidYMid meet">
<metadata>
Created by potrace 1.16, written by Peter Selinger 2001-2019
Combined from part_0.svg through part_5.svg with named groups
</metadata>
<g transform="translate(0.000000,68.000000) scale(0.100000,-0.100000)" fill="#000000" stroke="none">
<g id="part-0" class="char-part">
  <path d="M243 523 l2 -98 -58 -9 c-75 -11 -71 -31 7 -30 l56 1 0 -43 c0 -42
-1 -44 -47 -64 -27 -12 -65 -27 -85 -33 -42 -13 -49 -31 -19 -47 31 -16 48
-12 93 20 22 17 45 30 50 30 11 0 1 -100 -11 -112 -4 -4 -21 -4 -39 1 -32 10
-47 -4 -17 -15 8 -4 12 -11 8 -17 -3 -5 -2 -7 4 -4 6 4 22 -7 36 -23 50 -55
77 -13 77 119 l0 88 36 25 c36 26 32 48 -5 28 -29 -15 -31 -13 -31 24 0 32 2
35 41 41 49 9 47 29 -5 33 l-37 3 7 47 c3 26 10 55 15 64 14 27 11 37 -21 53
-56 29 -59 25 -57 -82z"/>
  <path d="M495 569 c4 -8 19 -29 32 -47 28 -37 27 -37 -62 -49 -59 -8 -80 -29
-27 -27 46 1 286 26 302 31 12 4 11 7 -5 19 -15 12 -35 14 -87 9 -62 -6 -68
-5 -68 11 -1 29 -22 51 -59 59 -27 6 -32 4 -26 -6z"/>
  <path d="M565 354 c-26 -10 -55 -13 -82 -9 l-43 6 11 -28 c17 -45 -6 -132 -47
-176 -23 -26 -28 -37 -17 -37 41 0 113 122 113 191 0 13 12 20 43 26 l42 9 5
-91 c3 -49 9 -98 14 -107 21 -44 164 -65 226 -33 35 18 35 17 13 66 -19 41
-33 50 -33 21 0 -10 -7 -28 -16 -40 -13 -18 -25 -22 -73 -22 -79 0 -96 19 -88
95 3 30 11 71 18 90 11 31 11 37 -1 45 -20 13 -37 11 -85 -6z"/>
</g>
<g id="part-1" class="char-part">
  <path d="M244 588 c4 -13 9 -55 13 -95 l6 -72 -62 -7 c-78 -9 -79 -24 0 -24
l60 0 -3 -46 -3 -47 -87 -35 c-65 -27 -85 -39 -77 -48 20 -25 49 -22 101 12
l53 33 3 -41 c2 -23 1 -52 -3 -66 -5 -22 -10 -24 -42 -19 l-36 6 38 -39 c46
-47 57 -49 79 -15 12 18 16 49 16 119 l0 94 33 21 c32 21 22 30 -14 11 -17
-10 -19 -7 -19 29 0 40 11 51 52 51 11 0 18 5 15 13 -2 6 -18 12 -35 12 -30 0
-32 2 -32 34 0 18 5 52 12 74 11 35 10 41 -7 53 -10 8 -30 14 -43 14 -20 0
-23 -4 -18 -22z"/>
</g>
<g id="part-2" class="char-part">
  <path d="M490 573 c0 -3 11 -21 25 -39 29 -38 32 -54 8 -54 -9 0 -46 -5 -82
-11 -56 -10 -62 -13 -42 -21 16 -5 64 -3 135 7 61 8 134 15 163 15 59 0 77 15
36 31 -25 10 -95 5 -129 -8 -10 -3 -16 5 -21 27 -4 24 -14 36 -39 46 -36 15
-54 18 -54 7z"/>
</g>
<g id="part-3" class="char-part">
  <path d="M451 323 c17 -47 -7 -129 -53 -179 -45 -48 -39 -56 13 -21 44 29 78
92 86 157 6 54 -2 70 -39 70 -15 0 -16 -4 -7 -27z"/>
</g>
<g id="part-4" class="char-part">
  <path d="M553 351 c-65 -19 -69 -33 -8 -24 l45 6 0 -81 c0 -96 11 -126 55
-147 71 -33 227 -9 209 33 -3 9 -12 33 -19 52 l-13 35 -7 -30 c-13 -52 -32
-65 -95 -65 -78 0 -95 18 -87 98 2 32 12 73 21 90 15 30 15 32 -3 42 -24 12
-33 12 -98 -9z"/>
</g>
</g>
</svg>