<?xml version="1.0" standalone="no"?>
<!DOCTYPE svg PUBLIC "-//W3C//DTD SVG 20010904//EN"
 "http://www.w3.org/TR/2001/REC-SVG-20010904/DTD/svg10.dtd">
<svg version="1.0" xmlns="http://www.w3.org/2000/svg"
 width="96.000000pt" height="68.000000pt" viewBox="0 0 96.000000 68.000000"
 preserveAspectRatio="xMidYMid meet">
<metadata>
Created by potrace 1.16, written by Peter Selinger 2001-2019
Combined from part_0.svg through part_5.svg with named groups
</metadata>
<g transform="translate(0.000000,68.000000) scale(0.100000,-0.100000)" fill="#000000" stroke="none">
<g id="part-0" class="char-part">
  <path d="M247 497 l6 -84 -77 -12 c-89 -15 -91 -31 -5 -31 58 0 60 -1 53 -22
-8 -29 -85 -137 -113 -160 -12 -10 -21 -22 -21 -27 0 -21 47 6 101 59 l58 57
-7 -66 c-12 -112 -9 -152 11 -165 28 -18 37 8 38 114 0 52 4 106 8 118 l6 24
19 -21 c23 -25 42 -27 50 -5 8 21 2 29 -39 48 -22 11 -35 24 -35 36 0 19 8 23
68 35 17 4 32 11 32 16 0 12 -45 22 -74 17 -25 -5 -25 -5 -19 64 6 75 0 88
-43 88 -21 0 -22 -3 -17 -83z"/>
  <path d="M600 534 c-52 -7 -123 -14 -158 -15 -61 -1 -63 -2 -47 -19 9 -10 18
-24 19 -32 13 -66 31 -102 47 -93 4 3 65 7 136 9 l128 4 32 59 c39 71 39 77 8
91 -30 14 -40 14 -165 -4z m0 -68 c0 -45 -3 -54 -20 -59 -25 -6 -26 -4 -35 55
-7 45 -6 47 21 51 16 2 30 5 32 6 1 0 2 -23 2 -53z m110 22 c-1 -39 -16 -62
-46 -70 -36 -9 -47 5 -29 38 8 16 15 37 15 47 0 12 8 17 30 17 27 0 30 -3 30
-32z m-200 0 c0 -7 3 -30 6 -50 6 -36 5 -38 -20 -38 -17 0 -29 7 -32 18 -3 9
-10 27 -16 39 -6 11 -7 26 -4 32 10 15 66 14 66 -1z"/>
  <path d="M550 367 c0 -2 9 -15 21 -28 l21 -24 -24 -6 c-13 -4 -48 -8 -78 -9
-30 -1 -66 -5 -80 -9 -46 -13 7 -23 82 -15 50 5 68 3 68 -5 0 -7 -38 -50 -83
-96 -57 -57 -76 -80 -58 -73 27 10 108 69 148 107 24 23 48 26 87 11 32 -12
33 -39 4 -91 -24 -44 -55 -57 -88 -39 -31 17 -32 9 -4 -28 42 -53 96 -35 133
45 7 15 21 45 31 65 17 35 17 38 1 52 -10 9 -35 16 -57 16 -44 0 -58 7 -62 31
-3 19 57 29 171 29 37 0 67 4 67 9 0 17 -53 22 -142 15 -77 -6 -88 -5 -88 9 0
18 -29 37 -54 37 -9 0 -16 -2 -16 -3z"/>
</g>
<g id="part-1" class="char-part">
  <path d="M244 558 c4 -13 10 -50 13 -84 6 -69 10 -66 -94 -80 -74 -9 -56 -28
19 -20 58 6 59 5 52 -17 -10 -32 -67 -116 -108 -160 -61 -65 -10 -42 61 27
l66 65 -8 -82 c-11 -114 -10 -146 4 -160 10 -9 15 -8 27 7 10 15 14 51 14 138
0 65 3 118 8 118 4 0 15 -9 25 -20 21 -25 50 -27 45 -3 -2 10 -20 26 -41 37
-29 14 -37 23 -35 40 2 16 13 23 51 30 26 4 47 12 47 16 0 14 -36 21 -66 14
l-27 -7 7 70 c7 68 6 70 -19 81 -38 18 -48 15 -41 -10z"/>
</g>
<g id="part-2" class="char-part">
  <path d="M595 535 c-49 -7 -119 -14 -154 -14 -60 -1 -63 -2 -48 -18 8 -10 23
-44 32 -76 16 -56 18 -58 44 -52 16 3 79 8 141 9 l114 4 35 66 c27 49 33 68
24 77 -17 17 -88 19 -188 4z m112 -56 c-3 -23 -9 -45 -14 -49 -10 -10 -200
-33 -217 -27 -11 5 -27 48 -30 82 -1 11 108 28 208 33 l59 3 -6 -42z"/>
</g>
<g id="part-3" class="char-part">
  <path d="M607 513 c-10 -10 -8 -103 2 -103 10 0 41 72 41 95 0 15 -31 21 -43
8z"/>
</g>
<g id="part-4" class="char-part">
  <path d="M605 239 c-3 -4 13 -10 35 -14 35 -6 40 -10 40 -33 0 -45 -41 -107
-73 -110 -16 -2 -35 2 -43 9 -27 22 -26 1 2 -30 52 -59 99 -33 149 84 24 57
26 68 14 80 -16 14 -117 26 -124 14z"/>
</g>
</g>
</svg>