<?xml version="1.0" standalone="no"?>
<!DOCTYPE svg PUBLIC "-//W3C//DTD SVG 20010904//EN"
 "http://www.w3.org/TR/2001/REC-SVG-20010904/DTD/svg10.dtd">
<svg version="1.0" xmlns="http://www.w3.org/2000/svg"
 width="96.000000pt" height="68.000000pt" viewBox="0 0 96.000000 68.000000"
 preserveAspectRatio="xMidYMid meet">
<metadata>
Created by potrace 1.16, written by Peter Selinger 2001-2019
Combined from part_0.svg through part_5.svg with named groups
</metadata>
<g transform="translate(0.000000,68.000000) scale(0.100000,-0.100000)" fill="#000000" stroke="none">
<g id="part-0" class="char-part">
  <path d="M560 596 c0 -16 27 -46 41 -46 16 0 22 29 9 45 -16 19 -50 19 -50 1z"/>
  <path d="M208 584 c-4 -3 -2 -20 3 -37 5 -18 9 -51 9 -73 0 -48 -9 -54 -75
-54 l-43 0 19 -37 c10 -21 19 -44 19 -53 0 -25 25 -55 34 -42 4 7 16 12 27 12
16 0 19 -7 19 -44 0 -50 -8 -56 -76 -56 -49 0 -60 -19 -20 -38 19 -8 39 -4
110 24 98 39 103 40 127 18 19 -17 39 -12 39 10 0 17 -39 52 -67 61 -19 5 -22
3 -16 -10 3 -10 0 -21 -8 -26 -28 -18 -39 -10 -39 30 l0 39 50 7 c32 4 49 11
47 19 -2 6 2 23 9 38 13 25 19 27 72 26 69 0 382 28 389 36 14 13 -44 21 -105
15 -37 -4 -69 -5 -71 -3 -3 2 6 15 18 28 13 14 20 29 17 34 -3 6 6 13 19 16
15 4 23 11 19 18 -4 7 -27 8 -68 4 -33 -4 -83 -9 -111 -12 -27 -2 -61 -7 -74
-10 -20 -4 -21 -7 -9 -17 19 -15 54 -75 47 -81 -2 -2 -29 -5 -59 -7 -39 -2
-63 3 -81 15 -20 12 -37 15 -69 10 -38 -6 -42 -5 -37 12 3 10 8 40 12 67 6 44
5 48 -20 57 -30 11 -49 13 -57 4z m432 -93 c0 -39 -24 -61 -66 -61 -31 0 -34
3 -34 30 0 17 -4 30 -10 30 -5 0 -10 4 -10 10 0 5 26 11 58 13 31 2 58 4 60 5
1 1 2 -11 2 -27z m-326 -108 c-7 -27 -20 -43 -36 -43 -5 0 -8 16 -8 35 0 31 3
35 25 35 23 0 25 -3 19 -27z m-94 -18 c0 -28 -4 -35 -20 -35 -11 0 -20 6 -20
13 0 6 -3 22 -6 35 -5 19 -2 22 20 22 23 0 26 -4 26 -35z"/>
  <path d="M635 380 c-16 -6 -69 -11 -117 -12 -49 -2 -88 -4 -88 -5 0 -1 6 -8
14 -16 8 -8 21 -36 29 -63 14 -48 16 -49 50 -46 24 2 36 -2 41 -14 9 -24 -2
-34 -38 -34 -56 0 -126 -12 -126 -22 0 -5 36 -8 85 -6 l85 3 0 -77 c0 -42 5
-80 10 -83 14 -9 32 40 38 105 2 30 10 58 16 62 6 4 55 8 109 8 53 0 97 4 97
9 0 16 -58 23 -135 16 -65 -6 -75 -5 -75 9 0 9 -1 19 -2 23 -5 11 36 12 49 1
14 -12 43 5 43 26 0 6 12 29 26 50 23 34 24 40 11 53 -18 18 -83 25 -122 13z
m60 -62 c-4 -24 -9 -45 -11 -47 -2 -2 -29 -5 -61 -8 -32 -2 -67 -6 -77 -8 -20
-4 -46 10 -46 25 0 5 38 11 85 15 122 10 120 27 -1 23 -83 -2 -99 -1 -99 12 0
15 53 23 173 28 l44 2 -7 -42z"/>
</g>
<g id="part-1" class="char-part">
  <path d="M217 538 c4 -24 8 -59 8 -78 l0 -35 -64 -5 c-54 -4 -62 -7 -49 -18 9
-7 21 -33 28 -57 14 -49 28 -65 40 -45 4 6 16 10 26 8 15 -2 20 -14 22 -50 4
-63 28 -55 37 13 l7 49 44 0 c33 0 44 4 44 15 0 9 7 30 16 46 23 45 4 63 -58
56 -55 -7 -57 -2 -37 82 11 50 4 61 -44 61 -27 0 -27 -1 -20 -42z m101 -155
c-2 -31 -7 -39 -25 -41 -21 -3 -23 1 -23 37 0 37 2 41 26 41 23 0 25 -3 22
-37z m-94 11 c3 -9 6 -27 6 -40 0 -19 -5 -24 -24 -24 -24 0 -36 16 -36 50 0
16 11 23 41 29 4 0 10 -6 13 -15z"/>
</g>
<g id="part-2" class="char-part">
  <path d="M324 252 c21 -41 54 -68 68 -54 16 16 3 39 -34 62 -44 27 -51 25 -34
-8z"/>
</g>
<g id="part-3" class="char-part">
  <path d="M560 596 c0 -19 27 -46 46 -46 17 0 19 31 2 48 -17 17 -48 15 -48 -2z"/>
  <path d="M585 538 c-134 -17 -143 -19 -119 -28 21 -8 220 5 257 16 29 9 8 24
-31 23 -20 -1 -68 -6 -107 -11z"/>
</g>
<g id="part-4" class="char-part">
  <path d="M658 513 c-10 -2 -18 -13 -18 -24 0 -41 -19 -59 -60 -59 -34 0 -39 3
-42 26 -3 27 -31 54 -43 42 -4 -3 1 -20 9 -37 21 -41 21 -41 -21 -42 -21 -1
-49 -4 -63 -8 -58 -17 23 -19 167 -4 81 8 172 17 201 19 33 4 50 9 46 16 -5 7
-37 9 -97 4 l-91 -6 28 29 c16 16 25 34 22 40 -7 11 -10 12 -38 4z"/>
</g>
<g id="part-5" class="char-part">
  <path d="M575 211 c5 -17 -1 -21 -42 -27 -26 -5 -64 -8 -83 -7 l-35 1 28 -10
c20 -7 42 -7 73 1 25 6 49 9 54 6 5 -3 6 -35 3 -70 -3 -43 -2 -65 6 -65 6 0 8
-8 5 -18 -4 -12 -3 -14 4 -4 5 7 7 25 5 40 -3 19 -2 23 5 13 7 -9 11 -4 14 20
3 19 3 36 -1 39 -8 7 -9 50 0 45 12 -8 17 33 6 44 -6 6 -19 11 -30 11 -14 0
-17 -5 -12 -19z"/>
  <path d="M688 203 c-99 -7 -66 -24 43 -22 61 1 97 5 91 11 -12 12 -63 16 -134
11z"/>
</g>
</g>
</svg>