<?xml version="1.0" standalone="no"?>
<!DOCTYPE svg PUBLIC "-//W3C//DTD SVG 20010904//EN"
 "http://www.w3.org/TR/2001/REC-SVG-20010904/DTD/svg10.dtd">
<svg version="1.0" xmlns="http://www.w3.org/2000/svg"
 width="96.000000pt" height="68.000000pt" viewBox="0 0 96.000000 68.000000"
 preserveAspectRatio="xMidYMid meet">
<metadata>
Created by potrace 1.16, written by Peter Selinger 2001-2019
Combined from part_0.svg through part_5.svg with named groups
</metadata>
<g transform="translate(0.000000,68.000000) scale(0.100000,-0.100000)" fill="#000000" stroke="none">
<g id="part-0" class="char-part">
  <path d="M254 549 c8 -40 -11 -171 -27 -181 -6 -4 -40 -8 -74 -8 -66 0 -75 -7
-46 -35 13 -14 28 -16 65 -12 l48 6 -14 -34 c-16 -38 -14 -41 42 -69 32 -16
33 -19 17 -36 -9 -10 -43 -32 -76 -50 -33 -17 -58 -34 -56 -36 10 -10 97 19
137 46 l44 29 29 -25 c33 -28 51 -27 55 3 2 13 -7 28 -23 41 l-25 20 30 63
c16 35 30 70 30 76 0 7 12 16 26 19 l26 7 -32 28 c-17 16 -43 29 -57 29 -21 0
-25 -4 -21 -24 4 -21 0 -25 -30 -31 -19 -3 -36 -4 -39 -1 -3 2 8 43 23 90 28
85 28 86 9 101 -11 8 -31 15 -44 15 -21 0 -23 -3 -17 -31z m81 -265 c-9 -24
-20 -46 -25 -49 -13 -8 -70 16 -70 31 0 37 24 64 64 72 23 4 43 4 45 -1 2 -5
-4 -28 -14 -53z"/>
  <path d="M585 548 c12 -39 18 -139 9 -148 -5 -5 -22 -10 -39 -12 -26 -3 -29 0
-30 27 0 19 -6 31 -17 33 -12 2 -20 -11 -33 -55 -9 -32 -21 -63 -27 -70 -5 -7
-8 -18 -6 -24 2 -7 18 6 36 28 29 37 36 41 75 39 l42 -1 0 -45 c0 -45 0 -45
-42 -54 -56 -12 -55 -26 2 -26 l45 0 0 -49 0 -49 -77 -7 c-123 -10 -122 -10
-89 -23 21 -9 49 -10 109 -2 45 5 130 10 189 10 109 0 135 10 81 31 -17 6 -57
8 -100 3 l-73 -6 0 50 c0 53 8 62 55 62 13 0 27 4 30 10 7 11 -33 23 -61 18
-16 -3 -19 3 -19 42 0 32 4 45 15 47 63 8 90 15 90 25 0 7 -18 9 -51 6 l-52
-5 7 73 c6 66 5 74 -13 83 -11 6 -30 11 -42 11 -18 0 -20 -4 -14 -22z"/>
</g>
<g id="part-1" class="char-part">
  <path d="M258 527 c2 -29 -1 -79 -8 -110 l-11 -57 -70 0 c-49 0 -69 -4 -69
-13 0 -23 38 -38 82 -31 45 8 43 13 22 -56 -4 -11 -2 -20 2 -20 5 0 24 -9 43
-21 l33 -20 -23 -26 c-13 -14 -44 -36 -69 -49 l-45 -25 35 6 c19 3 57 19 83
35 l49 30 29 -21 c29 -20 59 -20 59 0 0 12 -40 51 -52 51 -5 0 2 21 15 48 14
26 30 64 36 85 9 26 18 37 32 37 10 0 19 5 19 10 0 6 -5 10 -11 10 -7 0 -17 7
-23 15 -6 8 -22 16 -36 17 -22 3 -25 0 -22 -24 3 -27 1 -28 -42 -28 l-44 0 23
73 c13 39 26 79 30 88 7 19 -10 35 -46 44 -26 6 -26 6 -21 -48z m97 -199 c-4
-13 -15 -42 -26 -66 l-18 -42 -33 13 c-38 15 -45 36 -28 77 9 21 20 30 43 33
69 8 69 8 62 -15z"/>
</g>
<g id="part-2" class="char-part">
  <path d="M470 383 c-11 -38 -24 -75 -27 -83 -12 -30 46 33 68 74 23 44 21 76
-5 76 -9 0 -22 -26 -36 -67z"/>
</g>
<g id="part-3" class="char-part">
  <path d="M587 538 c4 -18 8 -58 8 -88 0 -54 -1 -55 -30 -58 -54 -5 -62 -16
-15 -21 l45 -6 0 -45 0 -45 -48 -10 c-57 -12 -52 -25 10 -25 l43 0 0 -50 c0
-43 3 -50 20 -50 18 0 20 7 20 54 0 57 7 66 55 66 13 0 27 4 30 10 7 11 -33
23 -61 18 -16 -2 -20 4 -22 36 -4 43 7 56 50 56 34 0 58 9 58 22 0 7 -20 9
-51 6 l-52 -5 7 70 c7 79 -1 97 -46 97 -28 0 -29 -1 -21 -32z"/>
</g>
<g id="part-4" class="char-part">
  <path d="M715 153 c-16 -3 -93 -10 -170 -17 -125 -11 -137 -14 -111 -25 22 -9
48 -9 105 -1 42 6 129 11 194 11 116 -1 145 9 91 29 -26 10 -54 11 -109 3z"/>
</g>
</g>
</svg>