<?xml version="1.0" standalone="no"?>
<!DOCTYPE svg PUBLIC "-//W3C//DTD SVG 20010904//EN"
 "http://www.w3.org/TR/2001/REC-SVG-20010904/DTD/svg10.dtd">
<svg version="1.0" xmlns="http://www.w3.org/2000/svg"
 width="96.000000pt" height="68.000000pt" viewBox="0 0 96.000000 68.000000"
 preserveAspectRatio="xMidYMid meet">
<metadata>
Created by potrace 1.16, written by Peter Selinger 2001-2019
Combined from part_0.svg through part_5.svg with named groups
</metadata>
<g transform="translate(0.000000,68.000000) scale(0.100000,-0.100000)" fill="#000000" stroke="none">
<g id="part-0" class="char-part">
  <path d="M310 603 c0 -43 -50 -116 -142 -210 -54 -55 -30 -56 47 -2 l58 40 -7
-74 c-7 -79 -2 -107 19 -107 21 0 27 35 23 135 l-3 94 38 51 c37 50 38 52 21
71 -21 24 -54 25 -54 2z"/>
  <path d="M480 604 c0 -20 -56 -101 -94 -136 -17 -16 -26 -28 -20 -28 11 0 56
29 65 43 7 10 68 22 175 32 l67 7 -7 -26 c-3 -14 -4 -26 -1 -26 13 0 85 36 85
42 0 4 -14 15 -32 24 -29 15 -38 15 -130 -1 -55 -9 -102 -15 -105 -12 -3 4 9
20 26 38 18 17 30 38 27 45 -8 20 -56 18 -56 -2z"/>
  <path d="M538 420 c6 -83 -2 -110 -33 -110 -31 0 -31 -6 -2 -31 55 -46 77 -16
77 105 0 94 -1 96 -23 96 -22 0 -23 -3 -19 -60z"/>
  <path d="M440 399 c0 -6 -9 -24 -21 -40 -32 -46 -17 -55 23 -14 20 21 34 44
31 51 -6 17 -33 19 -33 3z"/>
  <path d="M641 403 c0 -4 21 -26 45 -47 41 -36 46 -38 61 -24 8 9 13 20 9 26
-11 19 -117 60 -115 45z"/>
  <path d="M710 225 c30 -32 77 -58 90 -50 17 10 11 44 -9 54 -10 6 -38 13 -62
17 l-44 7 25 -28z"/>
  <path d="M480 230 c0 -14 52 -60 62 -54 14 9 9 30 -10 47 -20 18 -52 23 -52 7z"/>
  <path d="M355 193 c37 -88 95 -128 203 -139 116 -13 242 28 188 60 -10 6 -34
21 -53 34 -45 29 -57 28 -37 -4 25 -38 7 -48 -84 -47 -105 1 -144 19 -184 83
-36 58 -55 66 -33 13z"/>
  <path d="M226 174 c-31 -56 -33 -74 -6 -74 31 0 56 51 51 108 -2 24 -20 11
-45 -34z"/>
</g>
<g id="part-1" class="char-part">
  <path d="M310 587 c0 -32 -50 -108 -118 -180 -50 -53 -53 -58 -25 -43 18 9 49
30 68 48 20 17 39 28 42 24 4 -4 2 -38 -5 -77 -9 -53 -9 -75 -1 -91 11 -21 12
-21 25 -3 17 23 19 176 4 191 -8 8 3 29 34 70 40 53 43 60 29 72 -27 20 -53
15 -53 -11z"/>
</g>
<g id="part-2" class="char-part">
  <path d="M537 421 c3 -33 3 -71 -1 -86 -6 -23 -11 -27 -37 -23 l-29 5 27 -29
c56 -59 82 -28 83 100 0 91 0 92 -24 92 -23 0 -24 -2 -19 -59z"/>
  <path d="M418 360 c-16 -28 -24 -50 -20 -50 16 0 84 78 78 89 -14 22 -32 10
-58 -39z"/>
  <path d="M679 365 c52 -49 65 -54 75 -28 8 20 -11 37 -61 59 -58 25 -63 15
-14 -31z"/>
</g>
<g id="part-3" class="char-part">
  <path d="M470 243 c0 -11 63 -73 73 -73 14 0 7 37 -10 52 -22 19 -63 33 -63
21z"/>
  <path d="M711 224 c29 -31 76 -57 89 -49 6 3 10 15 10 26 0 23 -52 49 -96 49
l-27 0 24 -26z"/>
  <path d="M340 227 c0 -16 33 -79 55 -105 49 -58 171 -85 289 -62 96 18 100 30
24 79 -34 22 -64 38 -66 36 -2 -2 4 -15 14 -30 25 -38 8 -48 -83 -49 -100 -1
-147 21 -183 83 -21 37 -50 65 -50 48z"/>
  <path d="M226 176 c-28 -48 -32 -71 -16 -81 26 -16 74 63 63 103 -8 32 -18 27
-47 -22z"/>
</g>
</g>
</svg>