<?xml version="1.0" standalone="no"?>
<!DOCTYPE svg PUBLIC "-//W3C//DTD SVG 20010904//EN"
 "http://www.w3.org/TR/2001/REC-SVG-20010904/DTD/svg10.dtd">
<svg version="1.0" xmlns="http://www.w3.org/2000/svg"
 width="96.000000pt" height="68.000000pt" viewBox="0 0 96.000000 68.000000"
 preserveAspectRatio="xMidYMid meet">
<metadata>
Created by potrace 1.16, written by Peter Selinger 2001-2019
Combined from part_0.svg through part_5.svg with named groups
</metadata>
<g transform="translate(0.000000,68.000000) scale(0.100000,-0.100000)" fill="#000000" stroke="none">
<g id="part-0" class="char-part">
  <path d="M420 541 c0 -37 -71 -168 -101 -186 -5 -4 -9 -13 -9 -22 0 -13 5 -12
25 7 14 13 28 20 32 16 10 -10 5 -185 -6 -224 -9 -30 10 -92 27 -92 16 0 22
28 22 100 l0 67 33 -6 c17 -4 52 -4 76 1 24 4 46 6 48 4 8 -7 -16 -52 -41 -77
-15 -15 -41 -34 -59 -44 l-32 -16 35 6 c50 8 107 49 129 94 11 21 27 41 36 45
9 3 57 6 106 6 49 0 89 4 89 9 0 15 -37 19 -119 14 l-78 -6 -5 34 c-3 19 -5
35 -4 36 1 2 26 6 55 10 28 5 52 13 51 18 0 11 -24 10 -130 -1 l-65 -7 18 21
c11 11 16 25 13 30 -7 12 32 19 157 28 53 3 99 10 102 14 8 13 -43 21 -95 14
-56 -7 -61 -1 -29 40 42 54 6 68 -105 41 -33 -8 -63 -12 -67 -9 -4 2 -11 -1
-15 -7 -5 -9 11 -11 66 -6 l72 6 -6 -31 c-3 -17 -6 -34 -6 -39 0 -5 -11 -9
-25 -9 -13 0 -58 -5 -100 -11 -76 -12 -88 -25 -28 -31 l32 -3 -15 -31 c-9 -18
-24 -41 -35 -53 -25 -27 -10 -27 24 -1 14 11 36 20 50 20 20 0 27 -6 32 -31 4
-17 3 -35 -3 -41 -5 -5 -44 -12 -87 -15 l-78 -6 5 71 c4 54 2 75 -8 83 -18 15
-18 21 4 45 10 10 31 43 48 72 25 45 27 54 14 62 -25 16 -50 12 -50 -9z"/>
  <path d="M220 450 c-14 -4 -49 -8 -79 -9 -47 -1 -52 -3 -46 -18 13 -29 35
-116 35 -135 0 -23 15 -31 37 -19 10 6 38 13 63 16 41 5 45 8 46 34 1 15 8 43
17 61 35 69 7 96 -73 70z m10 -69 c0 -23 -7 -46 -16 -55 -18 -19 -54 -21 -54
-3 0 6 -3 29 -6 49 -7 39 -8 38 64 47 8 0 12 -13 12 -38z"/>
  <path d="M735 111 c59 -60 84 -67 72 -19 -7 27 -58 64 -102 74 -28 6 -26 3 30
-55z"/>
</g>
<g id="part-1" class="char-part">
  <path d="M185 438 c-22 -5 -52 -7 -67 -5 -26 3 -26 2 -13 -22 7 -15 16 -47 20
-72 9 -63 17 -74 43 -60 11 6 39 11 62 11 23 0 39 4 36 9 -6 8 11 59 36 108 6
11 7 26 4 32 -8 13 -65 13 -121 -1z m50 -65 c-9 -61 -10 -63 -45 -63 -31 0
-30 -1 -46 77 -4 23 9 29 70 32 28 1 28 1 21 -46z"/>
</g>
<g id="part-2" class="char-part">
  <path d="M425 557 c-2 -7 -9 -29 -15 -50 -7 -21 -32 -69 -57 -105 -25 -37 -47
-71 -50 -75 -3 -5 4 -4 15 2 12 6 24 16 27 21 10 16 22 12 28 -10 3 -10 1 -66
-5 -122 -5 -57 -10 -114 -10 -127 0 -26 27 -59 39 -47 5 4 11 76 14 159 4 115
2 156 -7 167 -11 13 -5 28 36 89 36 53 47 78 39 87 -14 17 -50 24 -54 11z"/>
</g>
<g id="part-3" class="char-part">
  <path d="M603 519 c-98 -27 -100 -29 -25 -24 l74 5 -7 -39 c-6 -36 -5 -39 14
-34 11 3 23 13 26 23 3 9 14 25 25 35 42 38 -20 58 -107 34z"/>
</g>
<g id="part-4" class="char-part">
  <path d="M578 268 c-3 -37 -22 -45 -105 -47 -51 -1 -76 -19 -30 -23 33 -2 38
-2 85 6 34 6 42 5 42 -8 0 -22 -57 -84 -99 -106 -44 -23 -17 -27 37 -5 47 20
77 49 93 88 7 18 18 35 23 39 6 4 56 8 111 8 88 1 98 2 82 15 -14 10 -40 12
-106 8 l-87 -6 1 29 c0 22 -5 30 -22 32 -18 3 -22 -2 -25 -30z"/>
  <path d="M729 116 c65 -65 81 -72 81 -35 0 28 -43 65 -98 84 l-47 15 64 -64z"/>
</g>
</g>
</svg>