<?xml version="1.0" standalone="no"?>
<!DOCTYPE svg PUBLIC "-//W3C//DTD SVG 20010904//EN"
 "http://www.w3.org/TR/2001/REC-SVG-20010904/DTD/svg10.dtd">
<svg version="1.0" xmlns="http://www.w3.org/2000/svg"
 width="96.000000pt" height="68.000000pt" viewBox="0 0 96.000000 68.000000"
 preserveAspectRatio="xMidYMid meet">
<metadata>
Created by potrace 1.16, written by Peter Selinger 2001-2019
Combined from part_0.svg through part_5.svg with named groups
</metadata>
<g transform="translate(0.000000,68.000000) scale(0.100000,-0.100000)" fill="#000000" stroke="none">
<g id="part-0" class="char-part">
  <path d="M236 592 c-2 -4 -1 -26 4 -48 5 -21 10 -60 10 -86 l0 -46 -42 -7
c-79 -12 -98 -17 -98 -26 0 -5 29 -9 65 -9 36 0 65 -2 65 -5 0 -23 -62 -119
-106 -165 -30 -31 -54 -59 -54 -62 0 -18 49 12 101 62 l59 57 -1 -41 c0 -23
-4 -63 -8 -91 -7 -37 -5 -57 5 -78 34 -65 54 -17 54 129 l0 117 23 -21 c26
-24 42 -28 52 -11 9 13 -23 48 -53 60 -16 6 -22 16 -20 30 3 24 18 35 61 44
39 8 29 29 -16 33 -33 3 -37 6 -37 30 0 15 4 44 9 64 7 29 5 40 -8 51 -21 19
-58 30 -65 19z"/>
  <path d="M528 535 l4 -54 -41 -7 c-53 -8 -54 -27 -1 -22 39 3 40 3 40 -28 0
-36 -15 -43 -90 -45 -25 0 -54 -4 -65 -9 l-20 -9 20 -2 c11 -1 35 -2 53 -1 46
2 42 -22 -13 -75 -53 -50 -47 -55 17 -14 51 33 79 67 71 87 -4 11 7 14 46 14
l51 0 0 -35 c0 -24 6 -37 20 -45 28 -15 142 -23 159 -12 24 17 3 30 -41 25
-24 -2 -57 -1 -74 2 -29 5 -31 8 -25 38 4 17 13 33 21 34 8 1 41 5 73 8 35 4
55 10 51 17 -6 9 -147 6 -196 -4 -8 -2 -14 9 -16 28 -3 31 -2 32 47 39 28 4
53 11 57 16 5 9 -4 10 -71 13 -29 1 -30 3 -27 40 4 40 -7 56 -39 56 -13 0 -15
-10 -11 -55z"/>
  <path d="M497 260 c-4 -20 -29 -53 -69 -92 -53 -52 -57 -58 -27 -43 19 10 46
26 61 36 26 19 27 19 55 -5 l28 -24 -25 -21 c-14 -11 -50 -30 -80 -42 -55 -22
-83 -39 -64 -39 28 0 120 32 158 54 l44 26 28 -23 c16 -12 38 -30 48 -39 15
-13 37 -18 85 -18 119 0 124 10 25 41 -95 29 -164 56 -164 64 0 7 41 55 68 78
12 12 22 24 22 28 0 14 -72 22 -106 11 -30 -9 -33 -8 -36 12 -2 12 -11 22 -24
24 -17 2 -23 -4 -27 -28z m113 -50 c0 -11 -9 -29 -20 -40 l-20 -20 -34 22
c-50 33 -34 53 47 57 21 1 27 -4 27 -19z"/>
</g>
<g id="part-1" class="char-part">
  <path d="M248 504 c6 -100 6 -100 -82 -110 -45 -5 -55 -9 -41 -17 10 -5 39 -7
65 -4 26 3 51 3 54 0 11 -11 -59 -126 -109 -179 -31 -33 -45 -54 -35 -54 8 0
46 32 84 72 l69 72 -7 -69 c-4 -39 -9 -88 -12 -110 -4 -27 -1 -46 10 -60 26
-36 37 -5 43 129 l6 127 28 -27 c26 -25 29 -26 35 -9 8 20 -26 55 -53 55 -10
0 -13 9 -11 32 3 29 7 33 46 41 23 4 42 12 42 17 0 14 -36 21 -64 14 -30 -7
-29 -10 -16 75 10 56 9 65 -7 77 -10 7 -25 14 -34 14 -15 0 -16 -11 -11 -86z"/>
</g>
<g id="part-2" class="char-part">
  <path d="M528 536 l4 -55 -52 -7 c-58 -8 -50 -24 13 -24 34 0 37 -2 37 -29 0
-24 -5 -29 -31 -35 -17 -3 -48 -6 -68 -7 -20 0 -45 -4 -56 -9 -36 -14 27 -23
87 -12 29 6 105 14 168 17 131 7 162 13 154 27 -4 7 -44 8 -110 3 l-104 -7 0
31 c0 23 5 31 18 31 9 0 35 5 57 11 34 10 37 13 20 20 -11 4 -35 5 -52 2 -24
-4 -33 -1 -34 8 0 8 -1 30 -2 49 -2 30 -6 35 -28 38 -25 3 -26 2 -21 -52z"/>
</g>
<g id="part-3" class="char-part">
  <path d="M600 335 c0 -43 19 -54 103 -61 63 -5 95 5 83 25 -5 7 -26 9 -60 5
-69 -8 -99 6 -86 41 9 22 7 25 -15 25 -22 0 -25 -4 -25 -35z"/>
  <path d="M454 335 c-3 -14 -25 -41 -47 -60 -49 -42 -37 -46 24 -7 77 50 99 92
49 92 -13 0 -22 -9 -26 -25z"/>
</g>
<g id="part-4" class="char-part">
  <path d="M563 247 c-45 -15 -41 -23 7 -19 34 4 40 1 40 -15 0 -11 -9 -29 -21
-42 -19 -21 -22 -21 -42 -6 -31 22 -47 28 -54 21 -3 -3 6 -15 20 -27 15 -11
27 -25 27 -30 0 -14 -57 -46 -124 -71 -33 -12 -54 -24 -48 -26 19 -6 123 27
170 54 l42 25 48 -41 c46 -38 52 -40 113 -40 117 0 122 10 22 40 -50 14 -107
34 -127 44 l-37 17 22 32 c13 18 34 42 48 54 22 19 24 24 11 33 -19 12 -74 11
-117 -3z"/>
</g>
</g>
</svg>