<?xml version="1.0" standalone="no"?>
<!DOCTYPE svg PUBLIC "-//W3C//DTD SVG 20010904//EN"
 "http://www.w3.org/TR/2001/REC-SVG-20010904/DTD/svg10.dtd">
<svg version="1.0" xmlns="http://www.w3.org/2000/svg"
 width="96.000000pt" height="68.000000pt" viewBox="0 0 96.000000 68.000000"
 preserveAspectRatio="xMidYMid meet">
<metadata>
Created by potrace 1.16, written by Peter Selinger 2001-2019
Combined from part_0.svg through part_5.svg with named groups
</metadata>
<g transform="translate(0.000000,68.000000) scale(0.100000,-0.100000)" fill="#000000" stroke="none">
<g id="part-0" class="char-part">
  <path d="M405 606 c7 -42 6 -43 -25 -50 -18 -3 -48 -6 -67 -6 -23 0 -33 -4
-31 -12 3 -8 28 -14 66 -16 l62 -3 0 -54 c0 -54 0 -54 -64 -110 -65 -58 -153
-116 -215 -142 -57 -24 -25 -27 40 -3 86 31 128 59 238 158 34 31 57 24 140
-42 138 -110 158 -117 264 -100 44 8 48 20 10 27 -55 10 -178 49 -193 62 -8 6
-39 25 -67 40 -29 16 -53 31 -53 34 0 4 16 15 35 25 34 19 50 16 75 -15 6 -7
47 -29 54 -29 11 0 6 38 -6 48 -7 6 -28 14 -47 19 l-35 9 30 27 c24 23 27 29
14 37 -26 17 -45 11 -58 -20 -7 -16 -27 -44 -43 -61 -23 -25 -34 -30 -55 -25
-24 6 -26 10 -20 44 3 20 6 47 6 58 0 20 7 23 70 29 39 4 70 11 70 16 0 17
-45 27 -93 22 l-47 -6 6 31 c6 28 3 33 -20 42 -44 16 -48 13 -41 -34z"/>
  <path d="M259 468 c-7 -18 -29 -50 -47 -70 -42 -46 -25 -50 30 -7 l39 32 29
-28 c26 -25 30 -26 36 -11 7 18 -20 45 -45 46 -10 0 -10 6 4 26 14 22 15 28 4
35 -24 15 -36 10 -50 -23z"/>
  <path d="M399 303 c-6 -16 -38 -54 -72 -87 l-62 -58 43 22 44 21 39 -25 c21
-15 39 -30 39 -34 -1 -11 -84 -74 -131 -99 -23 -13 -35 -23 -25 -23 21 0 87
33 144 72 33 23 49 28 72 23 33 -7 36 -4 18 25 -11 17 -7 25 35 68 37 38 45
51 35 59 -23 18 -42 20 -87 6 -45 -13 -77 -8 -47 9 20 11 21 34 0 42 -27 10
-34 7 -45 -21z m111 -61 c0 -6 -14 -30 -35 -60 -5 -6 -96 21 -101 30 -11 18
31 37 84 38 28 0 52 -3 52 -8z"/>
</g>
<g id="part-1" class="char-part">
  <path d="M410 595 l0 -45 -37 -1 c-21 -1 -51 -5 -68 -9 -23 -6 -15 -8 37 -9
l67 -1 3 -47 c2 -35 7 -48 18 -48 9 0 16 11 18 25 7 65 10 69 60 75 26 3 58 8
72 11 23 5 23 6 6 16 -11 6 -41 8 -73 4 l-55 -6 3 27 c4 35 -7 53 -32 53 -16
0 -19 -7 -19 -45z"/>
</g>
<g id="part-2" class="char-part">
  <path d="M404 414 c-28 -43 -145 -132 -234 -180 -57 -30 -75 -44 -55 -40 91
14 177 65 295 173 14 13 29 23 33 23 16 0 53 -24 148 -97 90 -68 99 -73 145
-72 27 0 67 4 89 8 l40 7 -75 23 c-41 12 -88 26 -105 32 -16 5 -68 31 -113 59
-46 27 -92 52 -103 55 -10 4 -19 10 -19 15 0 21 -31 17 -46 -6z"/>
</g>
<g id="part-3" class="char-part">
  <path d="M403 313 c-10 -29 -41 -65 -94 -110 -28 -24 -48 -43 -44 -43 15 0
102 50 119 69 15 16 31 21 73 21 29 0 53 -4 53 -9 0 -33 -133 -157 -215 -199
-24 -13 -33 -21 -22 -22 24 0 113 46 160 82 45 36 144 139 148 153 5 23 -42
33 -94 19 -58 -15 -71 -11 -38 12 17 13 20 19 10 30 -16 19 -48 18 -56 -3z"/>
</g>
<g id="part-4" class="char-part">
  <path d="M310 224 c0 -2 17 -13 38 -24 20 -11 62 -36 92 -55 56 -36 80 -43 80
-25 0 21 -50 56 -107 75 -88 29 -103 34 -103 29z"/>
</g>
</g>
</svg>