<?xml version="1.0" standalone="no"?>
<!DOCTYPE svg PUBLIC "-//W3C//DTD SVG 20010904//EN"
 "http://www.w3.org/TR/2001/REC-SVG-20010904/DTD/svg10.dtd">
<svg version="1.0" xmlns="http://www.w3.org/2000/svg"
 width="96.000000pt" height="68.000000pt" viewBox="0 0 96.000000 68.000000"
 preserveAspectRatio="xMidYMid meet">
<metadata>
Created by potrace 1.16, written by Peter Selinger 2001-2019
Combined from part_0.svg through part_5.svg with named groups
</metadata>
<g transform="translate(0.000000,68.000000) scale(0.100000,-0.100000)" fill="#000000" stroke="none">
<g id="part-0" class="char-part">
  <path d="M490 536 c0 -35 -7 -86 -16 -114 -18 -55 -31 -62 -123 -62 -33 0 -42
-3 -31 -10 8 -5 39 -10 68 -10 28 0 52 -3 52 -7 0 -5 -9 -19 -20 -33 -34 -43
-29 -50 47 -65 67 -13 49 -41 -62 -97 -58 -29 -59 -30 -21 -24 21 3 65 21 98
41 33 19 67 35 77 35 10 0 56 -25 102 -55 88 -58 109 -65 109 -39 0 41 -26 61
-142 108 -42 17 -47 33 -19 62 10 11 22 31 26 45 13 43 25 49 93 49 63 0 65 1
49 17 -11 11 -32 17 -57 17 -27 -1 -40 3 -40 12 0 16 -31 34 -59 34 -17 0 -21
-6 -21 -30 0 -30 -1 -30 -55 -30 -50 0 -54 2 -45 18 23 39 68 156 64 166 -4
11 -51 36 -66 36 -4 0 -8 -29 -8 -64z m85 -251 c-28 -48 -37 -51 -98 -34 -33
9 -37 13 -31 32 17 54 33 66 92 69 69 4 74 -5 37 -67z"/>
  <path d="M227 544 c-10 -11 63 -84 84 -84 29 0 34 38 7 60 -13 11 -27 20 -33
20 -5 0 -19 3 -30 6 -11 3 -24 2 -28 -2z"/>
  <path d="M140 408 c0 -25 83 -80 106 -71 18 7 18 37 0 52 -13 11 -106 28 -106
19z"/>
  <path d="M250 254 c-29 -31 -66 -62 -82 -70 -33 -17 -35 -27 -8 -65 24 -33 41
-30 63 14 17 31 38 68 78 134 32 52 7 45 -51 -13z"/>
</g>
<g id="part-1" class="char-part">
  <path d="M230 531 c0 -15 74 -69 88 -64 23 8 13 42 -18 58 -32 17 -70 20 -70
6z"/>
  <path d="M150 402 c0 -16 60 -62 81 -62 24 0 26 36 2 48 -30 16 -83 24 -83 14z"/>
  <path d="M245 242 c-33 -31 -69 -62 -80 -68 -17 -9 -18 -14 -6 -42 8 -18 19
-32 25 -32 12 0 131 188 124 195 -2 2 -30 -22 -63 -53z"/>
</g>
<g id="part-2" class="char-part">
  <path d="M490 543 c0 -51 -21 -157 -33 -170 -3 -2 -37 -7 -76 -10 -84 -7 -85
-23 0 -23 l61 0 -21 -34 c-28 -44 -26 -54 7 -62 42 -9 82 -26 82 -34 0 -12
-90 -65 -142 -85 -27 -10 -48 -19 -48 -21 0 -13 90 15 157 49 l83 41 42 -24
c24 -12 65 -38 91 -57 47 -33 77 -39 84 -17 8 24 -41 64 -117 95 l-79 32 18
26 c10 14 28 45 40 69 l21 42 65 0 c36 0 65 4 65 9 0 15 -58 34 -85 27 -18 -5
-25 -2 -25 9 0 17 -56 49 -70 40 -6 -3 -10 -19 -10 -35 0 -27 -3 -28 -50 -32
-28 -1 -50 0 -50 4 0 4 16 46 35 92 19 47 35 87 35 90 0 7 -56 36 -70 36 -6 0
-10 -24 -10 -57z m106 -219 c-9 -36 -47 -84 -65 -84 -22 0 -91 20 -91 26 0 3
9 23 20 44 20 40 20 40 81 40 61 0 61 0 55 -26z"/>
</g>
</g>
</svg>