<?xml version="1.0" standalone="no"?>
<!DOCTYPE svg PUBLIC "-//W3C//DTD SVG 20010904//EN"
 "http://www.w3.org/TR/2001/REC-SVG-20010904/DTD/svg10.dtd">
<svg version="1.0" xmlns="http://www.w3.org/2000/svg"
 width="96.000000pt" height="68.000000pt" viewBox="0 0 96.000000 68.000000"
 preserveAspectRatio="xMidYMid meet">
<metadata>
Created by potrace 1.16, written by Peter Selinger 2001-2019
Combined from part_0.svg through part_5.svg with named groups
</metadata>
<g transform="translate(0.000000,68.000000) scale(0.100000,-0.100000)" fill="#000000" stroke="none">
<g id="part-0" class="char-part">
  <path d="M496 548 c3 -24 1 -63 -3 -88 -8 -40 -13 -46 -43 -57 -28 -9 -31 -13
-17 -18 9 -4 24 -5 32 -1 17 6 18 -5 9 -53 -6 -28 -10 -31 -45 -31 l-38 0 15
-27 c7 -16 14 -36 14 -46 0 -10 5 -27 11 -38 10 -19 12 -19 27 -6 19 17 17 17
72 17 34 0 40 3 40 21 0 11 8 34 17 50 21 35 13 44 -38 44 -41 0 -45 6 -33 53
5 16 16 24 45 28 60 10 47 31 -15 24 -17 -1 -18 3 -11 47 4 26 11 56 16 65 15
27 11 35 -22 47 -18 6 -33 11 -35 11 -2 0 -1 -19 2 -42z m44 -270 c-1 -50 -27
-72 -70 -61 -26 7 -28 59 -2 66 36 10 72 7 72 -5z"/>
  <path d="M207 553 c-3 -5 -2 -15 4 -23 5 -8 9 -39 9 -67 l0 -53 -55 0 c-51 0
-69 -10 -45 -25 5 -3 17 -31 26 -61 14 -51 34 -68 49 -44 14 23 25 7 25 -35 0
-25 -3 -44 -7 -44 -31 5 -113 -3 -113 -11 0 -16 54 -39 70 -30 8 4 47 19 87
33 70 25 72 25 89 6 21 -23 30 -24 37 -4 8 18 -21 51 -52 60 -20 6 -23 4 -18
-9 5 -11 1 -16 -12 -16 -11 0 -22 -6 -25 -12 -3 -7 -4 7 -3 32 2 44 3 45 40
48 20 2 37 7 37 11 0 5 12 26 26 47 l26 38 -23 19 c-18 14 -33 17 -61 13 l-38
-6 0 36 c0 19 4 43 9 53 5 9 7 22 3 28 -9 15 -78 27 -85 16z m103 -193 c0 -23
-4 -30 -20 -30 -14 0 -20 7 -20 23 0 27 7 37 27 37 8 0 13 -12 13 -30z m-92
-12 c-4 -40 -24 -47 -31 -11 -6 33 -1 43 19 43 11 0 14 -9 12 -32z"/>
  <path d="M725 493 c-27 -7 -60 -11 -71 -8 -21 5 -22 2 -22 -103 0 -62 -8 -147
-18 -200 -16 -86 -16 -94 -1 -109 15 -15 17 -14 27 12 6 16 14 60 18 99 l7 70
43 9 c70 14 74 9 68 -78 -3 -42 -8 -81 -12 -86 -3 -6 -20 -7 -37 -4 l-32 7 34
-36 c19 -20 42 -36 52 -36 39 0 44 25 45 224 1 105 3 200 5 210 6 31 -45 45
-106 29z m46 -30 c7 -53 3 -67 -21 -74 -14 -4 -37 -7 -52 -8 -25 -1 -28 2 -28
32 0 18 5 38 12 45 13 13 87 17 89 5z m9 -128 c0 -38 -3 -40 -67 -49 l-43 -6
0 39 c0 43 -6 40 93 49 13 2 17 -6 17 -33z"/>
</g>
<g id="part-1" class="char-part">
  <path d="M214 539 c3 -13 9 -46 13 -72 7 -58 -2 -67 -65 -67 l-43 0 15 -27 c7
-16 17 -43 21 -60 7 -35 26 -55 33 -35 2 7 10 12 18 12 10 0 14 -12 14 -40 0
-22 3 -40 8 -40 18 1 30 18 36 53 6 34 10 37 41 37 29 0 36 6 59 47 24 42 25
48 12 62 -10 10 -31 14 -62 12 l-47 -2 7 38 c3 21 9 48 12 60 4 16 1 23 -18
28 -64 18 -61 19 -54 -6z m106 -163 c-1 -31 -14 -56 -31 -56 -15 0 -19 7 -19
34 0 34 13 47 38 38 6 -2 12 -9 12 -16z m-94 -42 c-11 -44 -46 -24 -46 26 0
12 8 20 23 22 25 3 32 -11 23 -48z"/>
</g>
<g id="part-2" class="char-part">
  <path d="M311 243 c26 -35 53 -63 60 -63 4 0 10 7 13 17 9 22 -31 63 -62 63
-22 0 -23 -2 -11 -17z"/>
</g>
<g id="part-3" class="char-part">
  <path d="M499 586 c0 0 -2 -36 -4 -78 -2 -43 -6 -82 -9 -87 -4 -5 -20 -12 -36
-16 -35 -8 -31 -25 6 -25 23 0 24 -3 18 -39 -6 -36 -5 -39 14 -35 14 4 22 17
26 44 5 35 9 39 46 45 22 4 40 10 40 15 0 12 -26 19 -49 13 -26 -7 -27 12 -6
85 9 29 14 56 11 61 -5 7 -54 22 -57 17z"/>
</g>
<g id="part-4" class="char-part">
  <path d="M505 309 c-16 -5 -49 -10 -71 -10 l-42 -1 14 -26 c8 -15 14 -32 14
-39 0 -6 4 -23 10 -37 9 -24 11 -25 37 -11 15 8 48 15 73 15 25 0 40 4 33 8
-10 6 -7 18 8 50 12 24 19 45 17 47 -11 11 -65 13 -93 4z m35 -41 c0 -36 -14
-50 -51 -51 -31 -2 -34 1 -37 30 -3 33 5 40 61 42 22 1 27 -3 27 -21z"/>
</g>
<g id="part-5" class="char-part">
  <path d="M770 489 c0 -7 10 -20 22 -30 16 -14 17 -19 6 -19 -17 0 -31 -57 -17
-66 4 -2 6 -21 4 -42 -2 -20 -4 -40 -4 -44 -1 -3 -10 -4 -21 -1 -12 3 -20 0
-20 -7 0 -7 6 -10 14 -7 25 10 33 -15 31 -90 -2 -46 -8 -79 -19 -94 -9 -13
-16 -18 -16 -12 0 6 -10 13 -22 16 -18 5 -15 -1 16 -31 l37 -37 20 24 c19 23
20 36 16 200 -2 97 0 187 5 200 6 18 4 27 -9 37 -22 16 -43 18 -43 3z m40
-405 c0 -8 -19 -13 -24 -6 -3 5 1 9 9 9 8 0 15 -2 15 -3z m-30 -34 c0 -5 -2
-10 -4 -10 -3 0 -8 5 -11 10 -3 6 -1 10 4 10 6 0 11 -4 11 -10z"/>
  <path d="M738 483 c7 -3 16 -2 19 1 4 3 -2 6 -13 5 -11 0 -14 -3 -6 -6z"/>
  <path d="M645 471 c3 -5 1 -12 -5 -16 -13 -8 -3 -25 16 -25 8 0 14 9 14 19 0
11 8 22 18 24 9 3 2 5 -16 6 -18 0 -31 -3 -27 -8z"/>
  <path d="M648 413 c7 -3 16 -2 19 1 4 3 -2 6 -13 5 -11 0 -14 -3 -6 -6z"/>
  <path d="M640 390 c0 -5 5 -10 10 -10 6 0 10 -5 10 -11 0 -5 -4 -7 -10 -4 -5
3 -10 1 -10 -4 0 -6 6 -11 13 -11 9 0 9 -2 0 -8 -12 -7 -25 -83 -27 -154 -1
-14 -5 -24 -10 -21 -5 4 -6 -5 -2 -20 3 -14 2 -29 -4 -32 -5 -3 -10 -11 -10
-16 0 -6 5 -7 10 -4 6 3 10 -2 10 -12 1 -14 4 -13 15 7 10 19 10 27 2 32 -9 6
-9 8 0 8 6 0 12 8 11 18 0 9 5 44 11 77 8 45 8 61 -2 67 -9 6 -9 8 1 8 6 0 11
3 11 8 -4 26 3 62 11 57 13 -8 80 5 80 15 0 5 -13 5 -30 0 -32 -9 -70 -3 -70
11 0 5 -4 9 -10 9 -5 0 -10 -4 -10 -10z"/>
</g>
</g>
</svg>