<?xml version="1.0" standalone="no"?>
<!DOCTYPE svg PUBLIC "-//W3C//DTD SVG 20010904//EN"
 "http://www.w3.org/TR/2001/REC-SVG-20010904/DTD/svg10.dtd">
<svg version="1.0" xmlns="http://www.w3.org/2000/svg"
 width="96.000000pt" height="68.000000pt" viewBox="0 0 96.000000 68.000000"
 preserveAspectRatio="xMidYMid meet">
<metadata>
Created by potrace 1.16, written by Peter Selinger 2001-2019
Combined from part_0.svg through part_5.svg with named groups
</metadata>
<g transform="translate(0.000000,68.000000) scale(0.100000,-0.100000)" fill="#000000" stroke="none">
<g id="part-0" class="char-part">
  <path d="M527 573 c4 -16 8 -46 8 -68 l0 -40 -55 -7 c-45 -6 -89 -13 -108 -17
-2 -1 4 -8 12 -17 9 -8 16 -31 16 -50 0 -65 -31 -189 -61 -241 -35 -63 -36
-73 -8 -47 32 28 66 86 85 143 9 28 21 51 26 51 13 0 118 -101 118 -114 0 -13
-81 -66 -101 -66 -8 -1 -25 -7 -39 -16 -24 -14 -24 -14 15 -8 22 3 66 18 99
34 l59 28 34 -32 c19 -17 46 -34 60 -38 33 -9 144 -1 157 12 7 7 5 10 -6 10
-8 0 -59 14 -112 31 -67 22 -96 36 -96 47 0 9 19 44 42 79 30 47 38 67 30 75
-13 13 -54 15 -95 4 l-27 -6 0 64 c0 69 6 76 73 76 27 0 27 0 12 -30 -9 -16
-12 -30 -9 -30 11 0 114 50 114 55 0 2 -14 12 -32 21 -24 13 -46 15 -95 10
-70 -7 -72 -4 -55 59 13 43 5 55 -34 55 -33 0 -34 -1 -27 -27z m11 -196 l-3
-62 -45 -6 c-25 -4 -47 -5 -48 -4 -2 2 -1 32 3 68 7 63 8 64 37 65 17 0 32 3
35 6 15 15 23 -12 21 -67z m82 -131 c-20 -61 -32 -62 -89 -11 -29 25 -50 46
-49 46 2 1 35 6 73 13 79 12 84 9 65 -48z"/>
  <path d="M200 463 c-46 -7 -86 -16 -89 -19 -12 -12 27 -24 62 -19 41 6 43 4
51 -62 6 -45 -2 -53 -55 -53 -16 0 -29 -4 -29 -10 0 -5 20 -10 45 -10 l45 0 0
-55 0 -54 -37 -10 c-21 -5 -50 -13 -66 -17 -34 -8 -35 -22 -2 -34 28 -11 54
-2 170 56 48 24 60 33 40 30 -16 -2 -38 -8 -47 -11 -16 -6 -18 -1 -18 42 0 56
12 73 52 73 15 0 28 5 28 10 0 6 -15 10 -34 10 l-34 0 -4 55 c-3 49 -1 55 17
55 36 0 65 12 65 26 0 17 -44 17 -160 -3z"/>
</g>
<g id="part-1" class="char-part">
  <path d="M213 462 c-51 -9 -93 -19 -93 -24 0 -12 92 -10 169 4 76 13 81 16 61
28 -18 11 -18 11 -137 -8z"/>
</g>
<g id="part-2" class="char-part">
  <path d="M230 433 c-13 -3 -15 -14 -10 -58 l6 -55 -35 -6 c-63 -10 -68 -18
-13 -22 l52 -3 0 -54 c0 -59 6 -54 -87 -75 -29 -7 -53 -16 -53 -20 0 -4 14
-13 30 -20 29 -12 39 -9 135 35 58 26 105 50 105 53 0 5 -46 -3 -72 -13 -16
-6 -18 0 -18 49 l0 56 40 6 c49 8 53 24 5 24 l-35 0 0 49 c0 35 -4 51 -16 55
-9 3 -16 5 -17 5 -1 -1 -9 -3 -17 -6z"/>
</g>
<g id="part-3" class="char-part">
  <path d="M517 603 c-4 -3 -3 -11 2 -17 12 -16 20 -91 11 -106 -4 -7 -25 -16
-45 -19 -53 -8 -44 -27 10 -23 l45 4 0 -61 c0 -54 2 -61 20 -61 18 0 20 7 20
64 0 69 5 76 61 76 31 0 35 -10 19 -41 -13 -24 -4 -24 45 1 22 11 45 20 52 20
26 0 12 21 -24 37 -27 11 -54 14 -97 9 l-58 -6 5 29 c3 16 9 40 12 53 5 19 1
27 -20 36 -29 13 -48 15 -58 5z"/>
</g>
<g id="part-4" class="char-part">
  <path d="M376 442 c-3 -5 1 -15 9 -22 30 -25 7 -178 -42 -278 -15 -32 -29 -61
-31 -67 -3 -5 10 4 28 20 56 52 98 169 103 290 l2 60 -32 3 c-17 2 -34 -1 -37
-6z"/>
</g>
<g id="part-5" class="char-part">
  <path d="M636 318 c3 -4 9 -8 15 -8 5 0 9 4 9 8 0 5 -7 9 -15 9 -8 0 -12 -4
-9 -9z"/>
  <path d="M657 308 c-10 -11 -19 -35 -20 -53 -1 -18 -5 -33 -8 -32 -4 1 -15 -9
-26 -22 l-19 -23 -34 28 c-32 26 -33 26 -15 4 11 -14 24 -28 30 -32 12 -9 -22
-47 -52 -59 -13 -5 -23 -14 -23 -20 0 -6 21 1 46 15 26 14 51 26 56 26 5 0 26
-16 46 -35 48 -45 81 -46 73 -2 -1 5 3 6 8 2 6 -3 8 -12 4 -20 -4 -12 5 -15
42 -15 25 0 44 4 41 9 -3 4 -18 7 -33 5 -16 -2 -20 -1 -9 2 14 5 0 14 -53 34
-75 30 -101 45 -101 63 0 6 3 7 6 4 4 -4 22 17 40 46 21 33 29 54 22 58 -7 4
-4 8 7 10 15 3 16 6 4 15 -11 8 -18 6 -32 -8z"/>
  <path d="M565 310 c-3 -5 1 -10 9 -10 9 0 16 5 16 10 0 6 -4 10 -9 10 -6 0
-13 -4 -16 -10z"/>
  <path d="M460 280 c6 -11 15 -20 21 -20 6 0 7 5 3 11 -3 6 0 15 7 20 10 6 6 9
-14 9 -25 0 -27 -2 -17 -20z"/>
  <path d="M450 90 c-9 -6 -10 -10 -3 -10 6 0 15 5 18 10 8 12 4 12 -15 0z"/>
</g>
</g>
</svg>