<?xml version="1.0" standalone="no"?>
<!DOCTYPE svg PUBLIC "-//W3C//DTD SVG 20010904//EN"
 "http://www.w3.org/TR/2001/REC-SVG-20010904/DTD/svg10.dtd">
<svg version="1.0" xmlns="http://www.w3.org/2000/svg"
 width="96.000000pt" height="68.000000pt" viewBox="0 0 96.000000 68.000000"
 preserveAspectRatio="xMidYMid meet">
<metadata>
Created by potrace 1.16, written by Peter Selinger 2001-2019
Combined from part_0.svg through part_5.svg with named groups
</metadata>
<g transform="translate(0.000000,68.000000) scale(0.100000,-0.100000)" fill="#000000" stroke="none">
<g id="part-0" class="char-part">
  <path d="M653 557 l-63 -10 3 -86 c3 -69 6 -85 18 -82 40 11 122 21 128 15 7
-6 3 -283 -5 -295 -2 -4 -21 -3 -41 1 l-38 9 40 -35 c82 -70 92 -45 96 249 3
247 3 248 -51 245 -14 -1 -53 -6 -87 -11z m87 -83 l0 -65 -57 3 -57 3 -1 58
c-2 51 0 58 19 62 33 7 80 11 89 7 4 -2 7 -32 7 -68z"/>
  <path d="M675 483 c-27 -7 -44 -23 -23 -23 31 0 78 13 78 21 0 9 -21 10 -55 2z"/>
  <path d="M200 527 c0 -18 50 -63 75 -69 17 -4 21 0 23 22 2 23 -4 31 -32 44
-41 19 -66 21 -66 3z"/>
  <path d="M417 524 c-3 -4 -25 -6 -47 -6 l-41 1 8 -32 c10 -42 6 -235 -8 -320
-8 -53 -8 -71 2 -83 7 -8 16 -11 20 -7 5 5 11 70 15 146 4 76 11 140 15 143 5
2 29 5 54 6 25 0 45 1 45 2 0 0 9 32 20 71 15 53 17 71 7 77 -14 9 -81 11 -90
2z m47 -13 c3 -4 3 -31 -1 -59 -4 -40 -10 -52 -30 -61 -40 -18 -53 -14 -53 19
0 16 3 29 8 29 25 -4 62 3 62 11 0 7 -13 8 -35 4 -34 -6 -35 -5 -35 24 0 24 5
32 23 35 39 8 56 7 61 -2z"/>
  <path d="M130 406 c0 -17 57 -76 73 -76 41 1 38 48 -5 71 -32 17 -68 20 -68 5z"/>
  <path d="M513 327 l-53 -10 0 -83 0 -83 30 4 c17 3 44 7 62 10 21 3 37 0 49
-11 24 -21 26 -14 32 89 5 102 -2 107 -120 84z m77 -37 c0 -28 -2 -30 -39 -30
-22 0 -43 -4 -46 -10 -4 -6 12 -9 42 -7 44 2 47 0 48 -23 0 -22 -5 -25 -54
-32 -30 -5 -56 -7 -58 -5 -1 2 0 31 3 65 7 65 10 67 77 71 24 1 27 -3 27 -29z"/>
  <path d="M242 273 c-19 -29 -51 -70 -73 -91 -36 -35 -39 -41 -29 -66 5 -15 8
-31 6 -35 -3 -4 7 -8 20 -9 16 -1 27 5 31 16 3 9 24 59 45 110 48 112 47 149
0 75z"/>
</g>
<g id="part-1" class="char-part">
  <path d="M233 493 c34 -35 38 -36 53 -21 15 15 14 18 -5 37 -13 13 -34 21 -53
21 l-33 0 38 -37z"/>
  <path d="M139 392 c26 -49 82 -68 89 -30 4 19 -44 48 -78 48 -17 0 -19 -3 -11
-18z"/>
  <path d="M237 257 c-20 -29 -50 -66 -67 -82 -34 -32 -37 -51 -14 -83 19 -28
31 -28 40 1 3 12 24 64 46 115 22 52 38 95 36 98 -3 2 -21 -20 -41 -49z"/>
</g>
<g id="part-2" class="char-part">
  <path d="M430 530 c-14 -4 -41 -8 -61 -9 l-37 -1 5 -67 c2 -38 6 -73 8 -80 5
-14 122 -10 136 4 13 14 41 135 32 144 -13 13 -57 18 -83 9z m30 -69 c0 -51
-3 -60 -20 -65 -11 -3 -29 -9 -40 -12 -16 -4 -20 -1 -20 19 0 25 16 37 51 37
10 0 19 5 19 11 0 7 -12 9 -35 5 -34 -7 -35 -6 -35 23 0 26 4 30 33 34 17 2
35 5 40 5 4 1 7 -25 7 -57z"/>
</g>
<g id="part-3" class="char-part">
  <path d="M747 393 c-4 -3 -7 -65 -7 -137 0 -72 -4 -137 -9 -145 -6 -10 -19
-12 -47 -7 l-38 8 43 -36 c50 -42 64 -44 85 -14 13 18 16 54 16 180 0 147 -1
158 -18 158 -10 0 -22 -3 -25 -7z"/>
</g>
<g id="part-4" class="char-part">
  <path d="M530 329 c-25 -5 -52 -8 -60 -6 -12 3 -15 -10 -14 -80 0 -46 3 -85 5
-87 2 -2 31 0 64 5 49 6 63 5 77 -8 10 -9 20 -14 22 -12 2 2 6 45 8 96 7 112
5 113 -102 92z m60 -39 c0 -26 -4 -30 -27 -30 -16 0 -38 -3 -50 -6 -20 -6 -23
-3 -23 24 0 32 10 38 73 41 24 1 27 -3 27 -29z m6 -67 c-3 -24 -9 -29 -42 -35
-68 -12 -71 -11 -66 21 4 31 15 36 84 40 23 1 26 -2 24 -26z"/>
</g>
</g>
</svg>