<?xml version="1.0" standalone="no"?>
<!DOCTYPE svg PUBLIC "-//W3C//DTD SVG 20010904//EN"
 "http://www.w3.org/TR/2001/REC-SVG-20010904/DTD/svg10.dtd">
<svg version="1.0" xmlns="http://www.w3.org/2000/svg"
 width="96.000000pt" height="68.000000pt" viewBox="0 0 96.000000 68.000000"
 preserveAspectRatio="xMidYMid meet">
<metadata>
Created by potrace 1.16, written by Peter Selinger 2001-2019
Combined from part_0.svg through part_5.svg with named groups
</metadata>
<g transform="translate(0.000000,68.000000) scale(0.100000,-0.100000)" fill="#000000" stroke="none">
<g id="part-0" class="char-part">
  <path d="M327 546 c5 -68 3 -84 -8 -84 -8 1 -38 0 -68 0 l-53 -2 6 -35 c13
-69 -38 -264 -85 -323 -28 -36 -14 -41 20 -8 43 41 82 139 100 248 16 95 16
97 46 101 39 6 47 -3 43 -44 -2 -29 -8 -35 -33 -40 l-30 -7 28 -1 c20 -1 30
-8 37 -26 11 -29 45 -45 95 -45 41 0 85 16 85 31 0 7 -22 9 -75 4 -70 -7 -75
-6 -75 12 0 16 11 22 55 32 30 7 55 17 55 22 0 13 -57 11 -82 -2 -19 -10 -20
-9 -16 25 2 21 0 36 -7 36 -30 1 28 19 70 22 49 3 50 3 47 -25 l-3 -27 45 22
c25 12 46 25 46 28 0 12 -49 33 -77 33 -15 0 -47 -3 -70 -8 -42 -7 -43 -7 -43
18 0 23 5 26 48 32 68 9 84 15 79 28 -4 14 -46 15 -95 3 -31 -7 -33 -7 -27 17
5 19 2 28 -13 36 -46 24 -50 17 -45 -73z"/>
  <path d="M682 537 c-7 -18 -37 -60 -67 -92 -30 -33 -55 -60 -55 -61 0 -1 9 0
21 3 12 3 53 37 92 74 61 58 70 71 61 86 -19 30 -39 26 -52 -10z"/>
  <path d="M720 428 c0 -20 -56 -85 -114 -130 -36 -29 -44 -39 -26 -33 35 10
112 60 157 101 31 28 36 38 27 52 -14 21 -44 28 -44 10z"/>
  <path d="M723 283 c-24 -39 -90 -100 -142 -131 -24 -14 -39 -28 -33 -30 22 -7
158 72 225 131 l27 25 -25 16 c-32 21 -32 21 -52 -11z"/>
  <path d="M300 216 c0 -33 -34 -106 -49 -106 -3 0 -12 -9 -19 -20 -18 -30 3
-24 43 12 46 40 89 120 72 137 -6 6 -19 11 -29 11 -14 0 -18 -8 -18 -34z"/>
  <path d="M414 235 c3 -9 6 -47 6 -85 l0 -68 38 -18 c54 -26 266 -26 340 -1 60
21 63 31 27 97 l-24 45 -1 -32 c0 -22 -9 -40 -27 -57 -32 -30 -129 -42 -243
-29 l-75 8 0 75 c-1 71 -2 75 -24 78 -19 3 -22 0 -17 -13z"/>
</g>
<g id="part-1" class="char-part">
  <path d="M328 558 c2 -35 5 -69 7 -75 7 -22 32 -3 39 28 4 24 11 29 33 29 45
0 103 12 103 21 0 14 -34 15 -82 3 l-47 -12 -3 32 c-2 25 -8 32 -29 34 -25 3
-25 3 -21 -60z"/>
</g>
<g id="part-2" class="char-part">
  <path d="M414 238 c3 -13 6 -54 6 -91 0 -67 0 -68 33 -82 77 -32 296 -28 373
7 24 11 33 42 15 53 -5 3 -12 19 -16 35 -8 39 -18 38 -30 -2 -19 -61 -51 -73
-189 -73 -154 1 -159 3 -154 93 3 60 1 65 -21 73 -21 8 -23 7 -17 -13z"/>
</g>
<g id="part-3" class="char-part">
  <path d="M681 538 c-6 -18 -35 -60 -65 -93 -30 -33 -53 -62 -51 -63 7 -7 91
57 135 102 37 38 43 49 34 64 -19 30 -41 26 -53 -10z"/>
</g>
<g id="part-4" class="char-part">
  <path d="M720 427 c0 -19 -57 -84 -112 -128 -51 -40 -47 -51 9 -21 46 25 153
115 153 129 0 7 -9 17 -19 23 -26 13 -31 13 -31 -3z"/>
</g>
<g id="part-5" class="char-part">
  <path d="M700 244 c-25 -29 -62 -63 -83 -74 -22 -12 -36 -24 -33 -27 12 -13
195 111 196 133 0 9 -25 27 -33 23 -1 0 -22 -25 -47 -55z"/>
</g>
</g>
</svg>