<?xml version="1.0" standalone="no"?>
<!DOCTYPE svg PUBLIC "-//W3C//DTD SVG 20010904//EN"
 "http://www.w3.org/TR/2001/REC-SVG-20010904/DTD/svg10.dtd">
<svg version="1.0" xmlns="http://www.w3.org/2000/svg"
 width="96.000000pt" height="68.000000pt" viewBox="0 0 96.000000 68.000000"
 preserveAspectRatio="xMidYMid meet">
<metadata>
Created by potrace 1.16, written by Peter Selinger 2001-2019
Combined from part_0.svg through part_5.svg with named groups
</metadata>
<g transform="translate(0.000000,68.000000) scale(0.100000,-0.100000)" fill="#000000" stroke="none">
<g id="part-0" class="char-part">
  <path d="M264 579 c3 -13 9 -52 13 -86 l6 -61 -67 -7 c-85 -9 -83 -29 3 -33
l62 -3 -3 -37 c-3 -36 -4 -38 -95 -76 -80 -35 -90 -42 -82 -58 15 -29 64 -22
121 17 29 19 53 33 54 32 1 -1 -1 -35 -3 -75 l-6 -73 -41 6 -41 7 47 -48 c46
-47 47 -48 68 -29 18 16 20 30 20 131 l0 114 35 22 c33 22 48 45 23 35 -61
-22 -66 -20 -48 27 7 20 17 26 39 26 16 0 32 4 35 9 10 15 -23 34 -49 29 -22
-5 -25 -2 -25 26 0 17 6 43 14 58 12 24 12 28 -3 42 -10 9 -32 19 -51 22 -31
7 -33 6 -26 -17z"/>
  <path d="M625 559 c-27 -5 -79 -10 -114 -12 l-63 -4 -3 -79 c-3 -95 -37 -225
-71 -277 -32 -49 -23 -60 13 -19 27 30 30 31 86 25 31 -3 57 -9 57 -13 0 -4
-16 -31 -35 -59 -20 -28 -31 -51 -26 -51 16 0 67 57 84 93 18 38 33 47 78 47
l29 0 0 -84 c0 -77 10 -110 27 -92 4 3 8 43 11 88 3 46 10 86 16 90 6 4 38 8
71 8 56 1 59 2 40 16 -13 10 -37 14 -70 12 -53 -2 -51 -4 -47 52 2 14 9 20 26
20 14 0 27 4 30 9 8 12 -48 24 -73 16 -33 -10 -31 10 4 34 39 27 37 54 -4 49
-17 -2 -27 -10 -30 -23 -2 -11 -12 -32 -22 -47 -17 -23 -29 -28 -89 -34 -38
-3 -67 -10 -64 -15 3 -5 13 -9 23 -9 19 0 30 -30 23 -62 -3 -15 -14 -18 -58
-18 l-54 0 19 48 c10 26 22 67 26 92 12 79 13 81 53 78 20 -1 72 2 115 6 63 6
77 11 77 25 0 9 9 27 20 39 11 12 20 23 20 26 0 7 -57 36 -67 35 -4 -1 -30 -5
-58 -10z m45 -48 c0 -27 -4 -30 -50 -40 -28 -6 -71 -11 -96 -11 -42 0 -44 1
-40 26 3 15 7 28 8 30 6 6 103 22 141 23 35 1 37 -1 37 -28z m-12 -238 c3 -27
-1 -33 -22 -39 -41 -10 -61 -1 -58 25 1 13 -3 30 -10 38 -10 12 -4 14 38 11
47 -3 49 -4 52 -35z"/>
  <path d="M521 390 c23 -35 46 -47 61 -32 16 16 -5 38 -47 48 -29 7 -29 7 -14
-16z"/>
</g>
<g id="part-1" class="char-part">
  <path d="M277 514 c7 -85 2 -93 -57 -95 -19 0 -44 -4 -55 -8 -19 -8 -19 -8 3
-16 13 -4 44 -4 68 0 l44 6 0 -44 0 -45 -90 -38 c-49 -22 -88 -43 -86 -49 1
-5 14 -14 28 -19 21 -7 35 -2 86 33 l62 42 0 -49 c0 -27 -3 -64 -6 -81 -6 -27
-11 -31 -39 -31 l-32 0 33 -35 c64 -68 84 -41 84 114 l0 109 36 22 c42 27 39
38 -5 15 l-31 -16 0 39 c0 38 1 40 40 46 49 8 53 26 5 26 -33 0 -35 2 -35 34
0 19 5 47 10 62 9 21 7 29 -7 40 -10 7 -28 14 -40 14 -21 0 -21 -3 -16 -76z"/>
</g>
<g id="part-2" class="char-part">
  <path d="M575 555 c-49 -7 -99 -11 -110 -9 -19 5 -20 -1 -21 -68 -2 -101 -20
-180 -62 -268 -20 -41 -38 -79 -40 -85 -3 -5 9 3 26 19 41 38 69 99 94 207
l21 89 61 0 c33 0 85 3 114 6 42 6 52 10 52 25 0 11 9 28 20 39 26 26 25 34
-5 48 -29 14 -28 14 -150 -3z m95 -44 c0 -34 -11 -38 -119 -48 l-74 -6 7 29
c4 16 9 30 10 31 4 5 111 21 144 22 29 1 32 -2 32 -28z"/>
</g>
<g id="part-3" class="char-part">
  <path d="M650 382 l-25 -47 -75 -11 c-52 -7 -69 -13 -57 -19 10 -4 35 -5 56
-1 22 3 79 9 128 12 48 3 90 8 93 10 12 13 -30 24 -70 20 l-45 -5 40 35 c32
28 37 37 25 44 -29 18 -45 9 -70 -38z"/>
  <path d="M522 388 c23 -34 45 -45 60 -30 11 11 9 17 -11 33 -13 10 -32 19 -43
19 -19 0 -19 -2 -6 -22z"/>
</g>
<g id="part-4" class="char-part">
  <path d="M660 276 c0 -37 -12 -46 -61 -46 -27 0 -29 3 -27 32 3 28 -1 34 -19
36 -21 3 -23 -1 -23 -37 l0 -41 -50 0 c-49 0 -66 -12 -34 -24 9 -3 31 -6 50
-6 19 0 34 -3 34 -7 0 -16 -52 -93 -72 -108 -30 -20 -10 -18 26 4 17 9 44 42
60 74 30 55 32 57 74 57 l42 0 0 -82 c0 -85 10 -122 25 -97 5 7 11 51 14 98
l6 86 70 5 c65 5 68 6 46 19 -16 9 -40 11 -74 8 l-49 -6 6 34 c6 33 5 35 -19
35 -22 0 -25 -4 -25 -34z"/>
</g>
</g>
</svg>