<?xml version="1.0" standalone="no"?>
<!DOCTYPE svg PUBLIC "-//W3C//DTD SVG 20010904//EN"
 "http://www.w3.org/TR/2001/REC-SVG-20010904/DTD/svg10.dtd">
<svg version="1.0" xmlns="http://www.w3.org/2000/svg"
 width="96.000000pt" height="68.000000pt" viewBox="0 0 96.000000 68.000000"
 preserveAspectRatio="xMidYMid meet">
<metadata>
Created by potrace 1.16, written by Peter Selinger 2001-2019
Combined from part_0.svg through part_5.svg with named groups
</metadata>
<g transform="translate(0.000000,68.000000) scale(0.100000,-0.100000)" fill="#000000" stroke="none">
<g id="part-0" class="char-part">
  <path d="M656 541 c-3 -4 -8 -31 -12 -59 -6 -49 -8 -52 -36 -52 -17 0 -27 -4
-23 -10 3 -5 15 -10 26 -10 20 0 26 -15 10 -24 -12 -8 -21 -46 -11 -46 4 0 17
16 29 35 23 40 25 41 104 50 72 8 75 27 5 25 -29 -1 -56 -1 -61 -1 -4 1 0 15
8 32 9 17 14 37 12 44 -6 14 -45 27 -51 16z"/>
  <path d="M415 511 c-2 -5 4 -25 15 -47 23 -43 17 -55 -29 -56 -34 -1 -39 -9
-16 -28 12 -10 21 -10 41 -1 33 15 33 15 46 -16 l12 -28 4 33 c2 23 11 36 28
44 33 15 30 25 -6 20 -26 -4 -30 -1 -30 20 0 41 -48 85 -65 59z"/>
  <path d="M240 470 c-14 -4 -47 -8 -74 -9 -42 -1 -47 -3 -40 -18 5 -10 9 -84 9
-165 0 -112 3 -150 14 -160 11 -10 14 -10 18 0 3 7 23 12 53 12 38 0 51 -4 63
-23 l15 -22 22 21 c19 19 21 33 25 185 2 103 -1 169 -7 177 -11 13 -59 14 -98
2z m50 -70 c0 -37 -2 -40 -27 -40 -16 0 -38 -3 -50 -6 -21 -6 -23 -3 -23 33 0
22 3 43 7 46 3 4 26 7 50 7 l43 0 0 -40z m0 -102 l0 -33 -56 -2 c-54 -2 -56
-2 -50 20 3 12 6 25 6 29 0 9 27 15 68 17 30 1 32 -1 32 -31z m2 -80 c8 -46
-1 -58 -42 -58 -21 0 -46 -3 -55 -6 -14 -6 -16 0 -13 32 3 36 6 39 38 45 61
11 68 10 72 -13z"/>
  <path d="M630 303 c-52 -7 -134 -14 -181 -15 l-86 -3 13 -30 c6 -16 17 -63 23
-104 13 -84 18 -96 34 -82 7 5 59 11 115 13 98 3 105 2 122 -20 10 -12 23 -22
29 -22 18 0 49 59 56 109 4 25 14 65 22 89 25 74 1 84 -147 65z m88 -55 l3
-38 -43 0 c-24 0 -53 -3 -65 -6 -21 -6 -23 -3 -23 34 0 37 3 41 28 45 15 2 43
4 62 3 33 -1 35 -3 38 -38z m-178 -12 c0 -39 -12 -46 -74 -46 -41 0 -42 1 -44
34 -3 39 5 43 76 45 41 1 42 1 42 -33z m174 -54 c2 -4 -2 -22 -9 -40 -13 -31
-16 -32 -69 -32 l-56 0 4 33 c3 31 5 32 57 38 30 3 57 6 61 7 4 1 9 -1 12 -6z
m-166 -41 c5 -30 -12 -41 -65 -41 -43 0 -43 0 -43 36 l0 35 53 -3 c46 -3 52
-6 55 -27z"/>
</g>
<g id="part-1" class="char-part">
  <path d="M260 470 c-14 -4 -49 -8 -79 -9 l-53 -1 8 -27 c5 -16 8 -76 7 -135
-3 -102 -2 -108 17 -108 13 0 20 7 20 19 0 21 26 31 83 31 30 0 37 -4 37 -20
0 -13 7 -20 19 -20 18 0 20 10 23 123 4 110 2 124 -15 140 -21 18 -29 19 -67
7z m28 -29 c8 -5 12 -22 10 -46 l-3 -39 -57 -3 -58 -3 0 32 c0 37 8 52 30 61
23 8 63 8 78 -2z m12 -141 c0 -40 0 -40 -37 -40 -21 0 -48 -3 -61 -6 -22 -6
-23 -4 -20 32 3 37 5 39 43 45 77 12 75 13 75 -31z"/>
</g>
<g id="part-2" class="char-part">
  <path d="M293 180 c-4 -16 -14 -20 -43 -20 -21 0 -45 -3 -54 -6 -12 -4 -16 0
-16 15 0 16 -6 21 -25 21 -21 0 -25 -5 -25 -29 0 -31 30 -66 37 -43 3 7 23 12
53 12 38 0 50 -4 63 -23 14 -22 15 -22 36 -3 14 13 21 31 21 58 0 32 -3 38
-21 38 -12 0 -23 -8 -26 -20z"/>
</g>
<g id="part-3" class="char-part">
  <path d="M655 538 c-2 -7 -8 -33 -12 -58 -7 -39 -12 -45 -36 -48 -31 -4 -37
-22 -7 -22 23 0 24 -8 10 -44 -15 -40 6 -32 35 14 23 36 30 40 68 41 60 2 105
13 90 22 -16 10 -73 12 -100 3 -28 -9 -28 -7 -6 40 17 35 17 36 -2 50 -23 17
-34 18 -40 2z"/>
  <path d="M410 508 c1 -7 7 -24 15 -38 26 -45 20 -60 -25 -60 -30 0 -38 -3 -34
-15 8 -20 37 -27 66 -16 22 8 27 6 39 -17 l13 -27 5 33 c4 22 15 39 31 48 l25
13 -31 1 c-29 0 -32 3 -38 39 -6 37 -20 51 -52 51 -8 0 -14 -6 -14 -12z"/>
</g>
<g id="part-4" class="char-part">
  <path d="M718 315 c-8 -9 -311 -35 -334 -29 -28 7 -29 2 -10 -29 8 -12 18 -55
24 -96 6 -41 14 -77 19 -81 4 -4 58 -3 118 1 110 8 110 8 131 -18 18 -21 25
-23 42 -14 11 6 23 18 27 28 7 16 43 168 48 202 2 13 -56 45 -65 36z m0 -67
c3 -37 2 -38 -31 -38 -19 0 -49 -3 -66 -6 -31 -6 -31 -6 -31 34 0 45 10 51 85
48 39 -1 40 -2 43 -38z m-180 -15 c-3 -38 -3 -38 -52 -41 -52 -3 -66 6 -66 45
0 24 15 30 78 32 l43 1 -3 -37z m170 -83 l-10 -40 -60 0 c-58 0 -60 1 -54 23
3 12 6 27 6 34 0 7 20 13 48 16 26 2 54 4 63 5 15 2 16 -3 7 -38z m-160 -12
c-3 -32 -4 -33 -54 -36 -51 -3 -52 -2 -56 28 -3 16 -2 32 0 35 3 3 30 5 59 5
l54 0 -3 -32z"/>
</g>
</g>
</svg>