<?xml version="1.0" standalone="no"?>
<!DOCTYPE svg PUBLIC "-//W3C//DTD SVG 20010904//EN"
 "http://www.w3.org/TR/2001/REC-SVG-20010904/DTD/svg10.dtd">
<svg version="1.0" xmlns="http://www.w3.org/2000/svg"
 width="96.000000pt" height="68.000000pt" viewBox="0 0 96.000000 68.000000"
 preserveAspectRatio="xMidYMid meet">
<metadata>
Created by potrace 1.16, written by Peter Selinger 2001-2019
Combined from part_0.svg through part_5.svg with named groups
</metadata>
<g transform="translate(0.000000,68.000000) scale(0.100000,-0.100000)" fill="#000000" stroke="none">
<g id="part-0" class="char-part">
  <path d="M415 560 c-11 -5 -39 -9 -63 -9 l-43 -1 16 -30 c8 -16 15 -41 15 -55
0 -24 3 -26 28 -21 15 3 42 7 60 8 24 2 32 7 32 21 0 10 8 32 17 48 9 15 15
30 12 33 -10 10 -56 14 -74 6z m19 -29 c4 -5 2 -21 -4 -35 -7 -20 -16 -26 -40
-26 -26 0 -30 3 -30 28 0 16 3 32 7 35 10 10 61 8 67 -2z"/>
  <path d="M568 564 c-4 -3 -3 -17 3 -31 5 -13 9 -67 9 -119 l0 -94 -37 0 c-21
0 -45 -5 -53 -10 -11 -7 -1 -10 34 -10 l49 0 -7 -42 c-8 -52 -38 -103 -85
-145 -40 -37 -37 -52 7 -29 42 22 89 79 103 126 7 22 15 40 18 40 3 0 24 -28
46 -62 21 -33 54 -76 71 -95 30 -32 36 -34 76 -28 51 8 70 21 42 31 -67 25
-224 158 -224 190 0 7 21 15 48 19 94 13 90 43 -4 32 l-46 -5 7 114 c6 99 5
114 -8 114 -8 0 -22 2 -29 5 -8 3 -17 3 -20 -1z"/>
  <path d="M205 540 c-11 -5 -37 -9 -57 -9 -21 -1 -38 -3 -38 -6 0 -2 9 -19 20
-37 11 -18 20 -44 20 -57 0 -19 4 -22 23 -18 12 3 42 8 67 12 42 6 45 9 47 38
1 18 3 43 5 57 3 22 -1 25 -32 27 -19 1 -44 -2 -55 -7z m35 -39 c0 -39 -51
-68 -64 -35 -10 26 -7 34 17 44 35 14 47 12 47 -9z"/>
  <path d="M670 456 c0 -7 76 -56 88 -56 22 0 12 37 -13 48 -24 11 -75 17 -75 8z"/>
  <path d="M325 404 c-33 -7 -88 -14 -122 -16 -35 -1 -63 -2 -63 -3 0 0 9 -18
20 -40 11 -22 20 -48 20 -60 0 -30 18 -53 28 -37 6 8 42 13 115 15 l107 2 11
35 c7 19 18 44 25 55 23 32 17 52 -17 59 -39 7 -49 7 -124 -10z m95 -29 c0
-23 -3 -25 -50 -25 -27 0 -50 3 -50 8 0 16 16 30 40 35 54 10 60 8 60 -18z
m-132 -16 c5 -26 -78 -36 -96 -12 -12 16 -10 19 20 24 49 10 72 6 76 -12z
m122 -31 c0 -24 -15 -34 -52 -37 -32 -2 -36 0 -31 18 7 26 83 43 83 19z m-120
-28 c0 -17 -7 -20 -40 -20 -22 0 -40 2 -40 4 0 2 -3 11 -6 20 -5 13 2 16 40
16 39 0 46 -3 46 -20z"/>
  <path d="M350 235 c-8 -2 -70 -9 -137 -16 -74 -7 -120 -16 -116 -22 6 -10 122
-5 288 13 50 5 93 10 98 10 4 0 7 5 7 10 0 9 -102 12 -140 5z"/>
  <path d="M305 174 c-44 -7 -96 -13 -115 -14 -27 0 -31 -3 -19 -10 10 -6 22
-33 29 -61 11 -45 15 -50 34 -43 11 4 54 9 94 11 71 5 73 5 86 38 8 18 19 36
25 39 21 13 11 34 -20 45 -18 6 -32 10 -33 10 -1 -1 -37 -8 -81 -15z m79 -41
c-4 -16 -10 -32 -14 -37 -11 -11 -140 -21 -141 -10 0 5 -3 21 -5 36 -5 32 4
35 99 37 l67 1 -6 -27z"/>
</g>
<g id="part-1" class="char-part">
  <path d="M217 539 c-9 -5 -35 -11 -57 -12 -32 -1 -39 -4 -34 -17 4 -8 14 -34
22 -57 13 -39 32 -58 32 -34 0 6 21 11 48 13 31 2 46 7 44 16 -1 7 4 28 12 46
10 25 11 37 3 45 -14 14 -46 14 -70 0z m21 -51 c-3 -29 -7 -33 -35 -36 -24 -2
-33 1 -33 12 0 8 -3 21 -6 29 -6 16 11 24 54 26 20 1 23 -3 20 -31z"/>
</g>
<g id="part-2" class="char-part">
  <path d="M270 171 c-63 -9 -108 -20 -99 -23 9 -3 22 -28 29 -55 17 -62 19 -66
35 -53 7 6 37 13 66 16 95 9 120 15 113 25 -3 6 3 24 15 40 26 35 26 45 2 59
-23 12 -12 12 -161 -9z m108 -43 c-3 -37 -22 -45 -100 -47 -35 -1 -48 3 -48
13 0 8 -3 21 -6 30 -8 22 27 35 99 35 l58 1 -3 -32z"/>
</g>
<g id="part-3" class="char-part">
  <path d="M681 444 c14 -17 62 -44 79 -44 5 0 10 9 10 20 0 22 -34 40 -77 40
-22 0 -24 -2 -12 -16z"/>
</g>
<g id="part-4" class="char-part">
  <path d="M568 564 c-4 -3 -3 -17 3 -31 14 -38 12 -203 -3 -208 -7 -2 -31 -7
-53 -12 l-40 -8 48 -3 c44 -3 47 -5 47 -30 -1 -44 -35 -107 -85 -156 -47 -47
-46 -57 4 -32 40 21 87 78 101 123 7 21 15 42 17 46 3 5 21 -19 41 -53 20 -34
53 -79 72 -100 34 -36 38 -38 80 -33 25 3 48 9 53 13 4 3 -16 19 -45 35 -76
41 -113 71 -159 129 -45 56 -41 64 31 65 19 1 42 5 50 11 23 15 -13 24 -67 16
l-46 -6 7 115 c6 98 5 115 -7 115 -9 0 -22 2 -29 5 -8 3 -17 3 -20 -1z"/>
</g>
</g>
</svg>