<?xml version="1.0" standalone="no"?>
<!DOCTYPE svg PUBLIC "-//W3C//DTD SVG 20010904//EN"
 "http://www.w3.org/TR/2001/REC-SVG-20010904/DTD/svg10.dtd">
<svg version="1.0" xmlns="http://www.w3.org/2000/svg"
 width="96.000000pt" height="68.000000pt" viewBox="0 0 96.000000 68.000000"
 preserveAspectRatio="xMidYMid meet">
<metadata>
Created by potrace 1.16, written by Peter Selinger 2001-2019
Combined from part_0.svg through part_5.svg with named groups
</metadata>
<g transform="translate(0.000000,68.000000) scale(0.100000,-0.100000)" fill="#000000" stroke="none">
<g id="part-0" class="char-part">
  <path d="M410 610 c0 -27 -76 -99 -150 -141 -95 -55 -76 -68 27 -20 35 17 65
26 68 20 4 -5 19 -9 36 -9 43 0 40 -30 -3 -31 -18 0 -42 -4 -53 -8 -19 -8 -19
-8 2 -15 13 -4 37 -8 53 -8 27 -1 31 -4 28 -27 -3 -29 -37 -43 -34 -15 0 11
-9 20 -26 25 -34 9 -43 1 -22 -22 15 -17 13 -18 -35 -25 -51 -7 -64 -17 -36
-28 35 -13 -3 -73 -82 -127 -54 -37 -50 -48 6 -20 43 22 81 27 81 11 0 -5 0
-13 0 -17 0 -5 -15 -13 -33 -20 l-32 -11 38 -1 c34 -1 37 -3 37 -31 0 -36 -27
-50 -96 -50 -50 0 -57 -12 -16 -29 19 -8 36 -9 53 -2 14 5 57 17 95 26 83 21
108 38 41 29 l-47 -7 0 36 c0 32 3 36 38 45 37 10 37 10 6 11 -17 1 -33 4 -37
7 -13 13 7 34 31 34 19 0 23 3 15 11 -8 8 -25 8 -59 1 -27 -6 -51 -9 -53 -6
-2 2 14 20 38 40 29 25 40 42 36 54 -5 15 6 18 101 24 58 4 108 5 112 2 12
-13 -21 -58 -72 -98 -59 -45 -66 -59 -19 -35 39 20 103 11 103 -14 0 -14 -7
-19 -27 -19 -16 0 -35 -5 -43 -10 -11 -7 -4 -10 28 -10 l42 0 0 -39 c0 -45
-11 -51 -100 -51 -36 0 -51 -3 -44 -10 6 -6 75 -8 193 -3 162 5 182 8 165 21
-14 10 -38 13 -97 8 l-78 -5 3 42 c3 36 6 42 28 45 49 6 56 16 15 21 -53 8
-54 32 -1 43 30 6 43 5 56 -7 11 -10 37 -15 74 -15 65 0 67 14 4 24 -52 8
-172 75 -176 99 -3 13 4 17 32 17 38 0 57 17 35 31 -8 5 -36 9 -64 10 -27 0
-44 3 -37 6 17 7 15 32 -4 40 -9 3 -28 -7 -50 -28 l-34 -33 0 31 c0 29 3 31
45 37 24 4 47 11 50 16 7 11 -50 23 -75 15 -14 -5 -20 -2 -20 9 0 9 8 16 18
16 9 0 29 6 44 14 24 13 30 12 65 -13 32 -22 48 -26 106 -25 37 0 72 5 78 11
13 13 8 14 -91 37 -90 20 -220 83 -220 106 0 18 -19 30 -46 30 -8 0 -14 -9
-14 -20z m87 -75 c23 -14 43 -27 43 -28 0 -1 -17 -2 -37 -2 -21 0 -60 -4 -88
-8 l-50 -7 39 35 c22 19 42 35 44 35 3 0 25 -11 49 -25z m119 -287 l28 -23
-29 -6 c-17 -4 -49 -7 -73 -8 l-42 -1 32 30 c40 36 47 36 84 8z"/>
  <path d="M330 265 c0 -12 42 -45 56 -45 19 0 26 16 11 28 -16 14 -67 26 -67
17z"/>
  <path d="M350 100 c-11 -21 -4 -25 24 -14 8 3 12 12 9 20 -7 20 -20 17 -33 -6z"/>
  <path d="M640 107 c0 -9 -6 -17 -12 -20 -25 -9 -1 -16 28 -8 34 9 39 35 7 39
-15 2 -23 -2 -23 -11z"/>
  <path d="M202 80 c7 -11 18 -20 25 -20 18 0 16 27 -3 34 -28 11 -34 6 -22 -14z"/>
  <path d="M470 91 c0 -14 28 -33 39 -27 16 10 1 36 -20 36 -10 0 -19 -4 -19 -9z"/>
</g>
<g id="part-1" class="char-part">
  <path d="M415 610 c-12 -36 -59 -83 -134 -132 -40 -26 -67 -48 -60 -48 28 0
116 48 169 93 l54 45 36 -18 c19 -11 62 -37 95 -59 54 -37 66 -41 120 -41 93
0 99 15 14 34 -87 19 -245 91 -241 108 3 12 -24 38 -39 38 -4 0 -11 -9 -14
-20z"/>
  <path d="M435 498 c-27 -6 -59 -14 -70 -18 -16 -7 -12 -9 18 -9 30 -1 37 -5
37 -20 0 -16 -9 -21 -45 -27 -55 -8 -51 -16 7 -18 42 -1 43 -2 40 -31 -2 -16
-5 -31 -6 -33 -2 -1 -40 -5 -84 -9 -49 -3 -79 -10 -75 -16 3 -6 44 -7 107 -3
55 4 146 9 201 12 55 3 101 7 104 9 2 3 -8 9 -23 15 -18 7 -53 7 -99 1 -40 -4
-75 -7 -79 -4 -5 2 -8 17 -8 33 0 26 4 30 38 35 64 11 69 19 15 23 -74 4 -71
42 3 42 27 0 32 15 8 24 -18 7 -21 7 -89 -6z"/>
  <path d="M516 385 c-18 -27 -12 -30 29 -15 23 9 25 13 15 25 -17 21 -25 19
-44 -10z"/>
  <path d="M330 371 c0 -11 39 -25 47 -18 3 3 2 10 -2 16 -8 13 -45 15 -45 2z"/>
</g>
<g id="part-2" class="char-part">
  <path d="M280 290 c0 -24 -65 -91 -128 -131 -53 -34 -41 -39 20 -8 23 12 54
23 70 26 23 3 28 0 28 -15 0 -14 -10 -22 -32 -28 l-33 -8 38 -3 c34 -4 37 -7
37 -34 0 -35 -27 -49 -96 -49 -48 0 -58 -14 -21 -31 18 -8 47 -3 131 20 124
35 144 45 68 35 l-52 -7 0 36 c0 33 2 36 41 42 46 8 45 18 -1 17 -24 0 -30 3
-28 16 2 9 14 19 28 23 22 5 23 7 7 14 -9 4 -36 3 -59 -3 -23 -6 -44 -10 -45
-8 -1 1 13 17 31 35 l34 33 30 -21 c37 -26 65 -28 60 -4 -2 9 -18 21 -38 26
-19 5 -40 17 -48 28 -17 25 -42 24 -42 -1z"/>
  <path d="M347 96 l-16 -24 30 11 c16 6 28 16 26 21 -7 20 -25 16 -40 -8z"/>
  <path d="M205 80 c10 -11 22 -20 27 -20 15 0 9 28 -8 34 -30 11 -37 6 -19 -14z"/>
</g>
<g id="part-3" class="char-part">
  <path d="M530 287 c-8 -17 -39 -50 -68 -71 -55 -41 -63 -57 -15 -33 39 20 103
11 103 -14 0 -14 -7 -19 -27 -19 -16 0 -35 -5 -43 -10 -11 -7 -4 -10 28 -10
l42 0 0 -39 c0 -45 -11 -51 -99 -51 -37 0 -52 -3 -45 -10 12 -12 374 -1 374
11 0 14 -42 21 -113 17 l-72 -3 0 40 c0 37 2 40 30 43 54 5 62 16 15 21 -56 7
-61 32 -10 42 24 6 42 3 58 -7 15 -10 43 -14 85 -12 l62 3 -70 22 c-85 27
-175 78 -175 98 0 30 -44 16 -60 -18z m83 -39 l32 -23 -40 -7 c-22 -4 -53 -7
-69 -7 l-30 -1 29 30 c34 36 38 36 78 8z"/>
  <path d="M635 94 l-17 -27 28 7 c35 9 48 21 40 35 -12 19 -33 12 -51 -15z"/>
  <path d="M472 88 c19 -28 48 -36 48 -13 0 8 -12 20 -26 25 -36 14 -38 13 -22
-12z"/>
</g>
</g>
</svg>