<?xml version="1.0" standalone="no"?>
<!DOCTYPE svg PUBLIC "-//W3C//DTD SVG 20010904//EN"
 "http://www.w3.org/TR/2001/REC-SVG-20010904/DTD/svg10.dtd">
<svg version="1.0" xmlns="http://www.w3.org/2000/svg"
 width="96.000000pt" height="68.000000pt" viewBox="0 0 96.000000 68.000000"
 preserveAspectRatio="xMidYMid meet">
<metadata>
Created by potrace 1.16, written by Peter Selinger 2001-2019
Combined from part_0.svg through part_5.svg with named groups
</metadata>
<g transform="translate(0.000000,68.000000) scale(0.100000,-0.100000)" fill="#000000" stroke="none">
<g id="part-0" class="char-part">
  <path d="M588 593 c-3 -37 -4 -38 -58 -49 -50 -9 -53 -11 -33 -22 12 -7 30
-12 41 -12 27 0 33 -9 19 -31 -22 -35 4 -33 36 3 30 34 36 37 99 40 37 2 70 7
74 11 16 15 -18 31 -66 30 -52 -1 -56 2 -40 27 13 21 -7 40 -41 40 -25 0 -28
-4 -31 -37z"/>
  <path d="M307 593 c3 -10 10 -23 15 -30 18 -22 -3 -33 -63 -33 -34 0 -59 -4
-59 -10 0 -18 62 -39 82 -29 29 16 67 10 78 -11 16 -29 30 -24 30 10 0 23 5
30 19 30 27 0 51 10 51 22 0 5 -17 8 -37 6 -34 -3 -38 0 -42 22 -4 30 -17 40
-53 40 -22 0 -26 -4 -21 -17z"/>
  <path d="M650 433 c-11 -25 -18 -48 -16 -51 7 -7 86 60 86 74 0 11 -21 24 -40
24 -5 0 -18 -21 -30 -47z"/>
  <path d="M294 462 c8 -13 -27 -60 -64 -87 -41 -30 -28 -33 18 -5 37 23 102 27
102 7 0 -8 -10 -23 -23 -35 -18 -17 -37 -22 -85 -23 -34 -1 -62 -4 -62 -6 0
-2 5 -13 11 -24 5 -11 13 -39 17 -62 l8 -42 89 4 c50 2 93 5 96 7 4 2 19 29
33 60 31 65 27 75 -35 83 l-42 6 37 26 c32 23 35 28 21 39 -11 9 -25 10 -57 2
-23 -6 -44 -9 -46 -7 -2 1 7 13 20 24 19 19 20 23 8 31 -18 12 -53 13 -46 2z
m101 -167 c0 -29 -50 -33 -64 -6 -9 17 -7 20 12 24 38 8 52 3 52 -18z m-102
-9 c8 -19 -1 -26 -34 -26 -25 0 -45 21 -32 34 12 12 61 6 66 -8z m97 -41 c0
-15 -17 -28 -39 -32 -23 -3 -32 7 -22 25 11 21 61 26 61 7z m-95 -25 c0 -19
-45 -26 -56 -8 -15 23 -10 29 24 26 20 -2 32 -8 32 -18z"/>
  <path d="M500 422 c0 -16 48 -54 59 -47 19 11 12 35 -15 45 -31 12 -44 13 -44
2z"/>
  <path d="M659 366 c-6 -6 -71 -14 -121 -15 -41 -1 -54 -21 -14 -21 37 0 56
-10 56 -30 0 -20 -19 -30 -56 -30 -13 0 -24 -4 -24 -10 0 -5 18 -10 41 -10 36
0 40 -2 37 -22 -2 -13 -10 -24 -18 -25 -8 -1 -41 -5 -73 -8 -35 -4 -55 -10
-51 -17 4 -6 32 -7 75 -3 l69 7 0 -85 c0 -47 4 -88 9 -92 13 -7 18 15 26 106
l6 76 52 7 c29 3 73 6 99 6 51 0 72 14 37 25 -21 7 -136 -1 -171 -11 -14 -4
-18 1 -18 19 0 28 16 37 66 37 19 0 34 5 34 11 0 7 -17 10 -45 7 -38 -3 -45 0
-45 14 0 10 -5 18 -12 18 -29 0 6 13 52 19 28 3 52 11 53 16 2 10 -55 20 -64
11z"/>
  <path d="M380 151 c0 -19 47 -64 58 -57 17 10 15 23 -8 46 -21 21 -50 27 -50
11z"/>
  <path d="M220 141 c0 -7 5 -21 10 -32 13 -23 43 -26 38 -3 -4 21 -48 52 -48
35z"/>
  <path d="M312 125 c12 -27 23 -31 33 -15 8 13 -13 40 -31 40 -11 0 -11 -5 -2
-25z"/>
  <path d="M139 102 c-27 -38 -28 -62 -4 -62 20 0 45 40 45 72 0 37 -10 35 -41
-10z"/>
</g>
<g id="part-1" class="char-part">
  <path d="M600 604 c0 -48 -17 -64 -65 -64 -25 0 -45 -4 -45 -10 0 -5 19 -10
41 -10 41 0 41 0 35 -32 l-6 -33 34 36 c32 33 39 36 97 38 35 1 65 4 68 7 13
13 -28 25 -71 21 -53 -4 -53 -5 -37 25 9 18 8 24 -7 35 -28 20 -44 16 -44 -13z"/>
  <path d="M315 600 c-3 -5 1 -20 9 -32 9 -12 16 -26 16 -30 0 -5 -29 -8 -65 -8
-66 0 -81 -10 -44 -31 16 -8 33 -8 67 1 41 10 48 9 59 -6 7 -10 13 -22 13 -27
0 -4 5 -5 10 -2 6 3 10 17 10 31 0 19 6 26 30 31 42 8 38 20 -5 15 -29 -3 -35
-1 -35 14 0 11 -4 24 -8 30 -11 17 -49 26 -57 14z"/>
</g>
<g id="part-2" class="char-part">
  <path d="M295 451 c-3 -11 -26 -38 -50 -60 -48 -44 -45 -53 7 -21 36 22 98 27
98 8 0 -6 -7 -20 -17 -30 -12 -13 -13 -18 -3 -18 14 0 99 61 100 72 0 14 -41
19 -77 9 -43 -12 -53 -8 -24 11 25 15 27 33 5 42 -25 10 -32 7 -39 -13z"/>
</g>
<g id="part-3" class="char-part">
  <path d="M380 154 c0 -11 23 -49 34 -56 37 -25 51 20 14 46 -22 16 -48 21 -48
10z"/>
  <path d="M300 144 c0 -16 23 -44 35 -44 18 0 20 21 3 38 -12 12 -38 17 -38 6z"/>
  <path d="M138 104 c-28 -37 -27 -67 0 -62 22 4 54 62 46 82 -9 23 -15 20 -46
-20z"/>
  <path d="M220 134 c0 -16 23 -44 35 -44 18 0 20 21 3 38 -12 12 -38 17 -38 6z"/>
</g>
<g id="part-4" class="char-part">
  <path d="M587 323 c-4 -3 -7 -14 -7 -24 0 -19 -19 -29 -56 -29 -13 0 -24 -4
-24 -10 0 -5 18 -10 41 -10 36 0 40 -2 37 -22 -2 -13 -10 -24 -18 -25 -8 -1
-42 -5 -74 -8 -41 -5 -55 -10 -45 -16 8 -5 42 -6 77 -3 l62 6 0 -85 c0 -47 4
-89 10 -92 11 -7 17 17 25 110 3 38 7 71 9 73 2 1 49 5 105 9 98 6 123 15 80
28 -20 7 -100 1 -161 -11 -25 -5 -28 -3 -28 20 0 21 6 26 38 31 64 11 69 19
14 23 -34 2 -50 7 -46 14 10 16 -25 35 -39 21z"/>
</g>
</g>
</svg>