<?xml version="1.0" standalone="no"?>
<!DOCTYPE svg PUBLIC "-//W3C//DTD SVG 20010904//EN"
 "http://www.w3.org/TR/2001/REC-SVG-20010904/DTD/svg10.dtd">
<svg version="1.0" xmlns="http://www.w3.org/2000/svg"
 width="96.000000pt" height="68.000000pt" viewBox="0 0 96.000000 68.000000"
 preserveAspectRatio="xMidYMid meet">
<metadata>
Created by potrace 1.16, written by Peter Selinger 2001-2019
Combined from part_0.svg through part_5.svg with named groups
</metadata>
<g transform="translate(0.000000,68.000000) scale(0.100000,-0.100000)" fill="#000000" stroke="none">
<g id="part-0" class="char-part">
  <path d="M545 503 l0 -88 -43 -3 c-44 -3 -44 -3 -42 30 3 51 1 55 -20 61 -17
4 -20 0 -20 -28 0 -19 -5 -46 -10 -61 -14 -36 10 -65 38 -47 10 6 54 18 98 26
143 28 143 28 152 10 15 -25 28 -8 41 52 14 63 15 60 -16 69 -22 7 -23 4 -23
-37 0 -51 -8 -57 -72 -57 l-40 0 3 78 c4 76 4 77 -21 80 l-26 3 1 -88z"/>
  <path d="M329 495 c-3 -2 -43 -11 -89 -18 -93 -14 -121 -37 -46 -37 40 0 46
-3 52 -24 3 -13 4 -37 2 -52 -2 -25 -8 -29 -35 -32 -44 -4 -42 -22 2 -22 l35
0 0 -53 0 -54 -65 -18 c-36 -11 -65 -22 -65 -25 0 -4 11 -12 24 -20 22 -11 34
-8 120 36 52 27 98 46 101 42 4 -3 9 -40 12 -82 4 -54 10 -76 19 -76 8 0 15 8
15 18 1 9 2 22 4 27 1 6 3 26 3 47 2 35 3 36 40 35 l37 -2 5 -54 c5 -57 23
-78 35 -41 4 12 4 42 0 66 -6 42 -5 44 19 44 13 0 31 3 40 6 13 5 16 -6 18
-68 2 -40 8 -73 13 -73 8 0 24 67 34 138 1 4 25 7 54 5 l52 -3 3 -41 c2 -22
-2 -52 -7 -68 -10 -25 -14 -26 -48 -20 l-37 7 25 -31 c31 -40 47 -46 75 -27
22 14 29 38 49 157 5 33 3 39 -22 51 -24 12 -45 12 -143 1 -165 -18 -161 -19
-126 11 16 14 26 30 23 39 -4 10 6 16 41 20 94 14 112 18 106 28 -4 7 -29 8
-63 4 -31 -3 -81 -9 -111 -12 -74 -7 -93 -16 -55 -23 36 -7 42 -30 19 -67 -16
-24 -22 -26 -67 -21 -27 2 -53 10 -57 17 -6 10 -15 10 -40 1 -18 -6 -35 -9
-39 -7 -3 2 -5 25 -3 50 4 43 6 46 38 52 37 7 37 24 -1 24 -32 0 -38 13 -30
60 6 35 10 39 46 45 24 4 39 12 39 21 0 8 -4 14 -9 14 -5 0 -16 2 -23 5 -8 3
-16 3 -19 0z"/>
</g>
<g id="part-1" class="char-part">
  <path d="M280 480 c-19 -4 -56 -11 -83 -15 -26 -3 -45 -10 -42 -16 14 -22 204
3 213 29 4 14 -32 15 -88 2z"/>
</g>
<g id="part-2" class="char-part">
  <path d="M254 444 c-7 -3 -10 -22 -6 -50 5 -51 -4 -64 -50 -64 -16 0 -28 -4
-28 -10 0 -5 18 -10 40 -10 l40 0 0 -54 0 -54 -71 -19 c-70 -18 -70 -18 -49
-35 12 -10 29 -18 37 -18 14 0 150 71 188 98 19 13 19 14 -7 8 -14 -3 -33 -9
-42 -12 -13 -5 -16 2 -16 44 0 50 0 51 35 58 43 8 46 24 5 24 -31 0 -33 3 -34
60 -1 34 -15 45 -42 34z"/>
</g>
<g id="part-3" class="char-part">
  <path d="M530 581 c0 -5 5 -13 10 -16 6 -3 10 -37 10 -75 0 -74 -5 -80 -62
-80 -29 0 -30 1 -23 39 5 33 3 41 -14 50 -29 16 -31 14 -31 -23 0 -19 -5 -47
-10 -62 -8 -21 -8 -31 4 -42 12 -13 20 -12 58 2 23 8 81 22 127 31 77 14 85
14 96 -1 18 -26 32 -10 46 52 11 47 10 57 -2 65 -29 18 -39 10 -39 -35 0 -49
-8 -56 -72 -56 l-40 0 3 78 4 77 -32 3 c-18 2 -33 -1 -33 -7z"/>
</g>
<g id="part-4" class="char-part">
  <path d="M537 325 c-95 -14 -123 -25 -64 -25 33 0 37 -3 37 -24 0 -14 -4 -28
-10 -31 -5 -3 -10 -14 -10 -23 0 -12 11 -6 38 21 28 29 34 40 23 46 -8 6 3 11
35 15 92 13 114 18 114 27 0 12 -54 10 -163 -6z"/>
</g>
<g id="part-5" class="char-part">
  <path d="M660 230 l-45 -7 53 -1 c29 -1 52 2 52 8 0 6 -3 9 -7 8 -5 0 -28 -4
-53 -8z"/>
  <path d="M730 230 c0 -5 7 -10 15 -10 32 0 41 -91 15 -141 -12 -22 -11 -22
-45 -9 l-26 10 18 -25 c43 -59 98 -28 98 56 0 26 3 45 8 42 11 -7 9 15 -5 40
-10 20 -10 21 5 8 25 -20 21 -5 -5 19 -22 21 -78 28 -78 10z"/>
  <path d="M381 168 c0 -72 8 -113 21 -100 6 6 6 18 -3 33 -9 17 -9 24 0 27 6 2
11 12 11 22 0 25 11 51 19 46 4 -3 13 -1 21 5 12 7 10 9 -7 9 -12 0 -30 -8
-39 -17 -17 -17 -17 -17 -11 -1 3 10 2 20 -3 23 -5 3 -9 -18 -9 -47z"/>
  <path d="M545 210 c-13 -6 -15 -9 -5 -9 8 0 22 4 30 9 18 12 2 12 -25 0z"/>
  <path d="M476 201 c-4 -5 3 -7 14 -4 23 6 26 13 6 13 -8 0 -17 -4 -20 -9z"/>
</g>
</g>
</svg>