<?xml version="1.0" standalone="no"?>
<!DOCTYPE svg PUBLIC "-//W3C//DTD SVG 20010904//EN"
 "http://www.w3.org/TR/2001/REC-SVG-20010904/DTD/svg10.dtd">
<svg version="1.0" xmlns="http://www.w3.org/2000/svg"
 width="96.000000pt" height="68.000000pt" viewBox="0 0 96.000000 68.000000"
 preserveAspectRatio="xMidYMid meet">
<metadata>
Created by potrace 1.16, written by Peter Selinger 2001-2019
Combined from part_0.svg through part_5.svg with named groups
</metadata>
<g transform="translate(0.000000,68.000000) scale(0.100000,-0.100000)" fill="#000000" stroke="none">
<g id="part-0" class="char-part">
  <path d="M330 565 c0 -55 -68 -159 -172 -262 -32 -32 -47 -53 -37 -53 17 0
103 52 113 69 16 26 23 6 25 -66 1 -43 -3 -102 -9 -132 -13 -69 -1 -90 39 -64
114 75 120 77 140 59 20 -19 41 -14 41 8 0 7 -8 20 -17 29 -23 20 -73 33 -73
18 0 -6 5 -11 10 -11 23 0 7 -21 -26 -35 -64 -27 -74 -22 -74 35 0 56 -4 53
104 55 36 0 40 3 52 40 8 22 20 51 28 65 30 52 -18 67 -148 45 l-50 -8 21 28
c17 24 28 28 78 31 33 2 64 9 70 15 7 8 -6 10 -47 7 -32 -2 -58 -2 -58 1 0 3
9 21 20 38 20 34 25 34 80 6 30 -16 57 -17 65 -3 11 18 -13 37 -60 49 -28 7
-45 17 -45 26 0 16 -30 35 -54 35 -10 0 -16 -9 -16 -25z m95 -236 c0 -16 -5
-23 -16 -21 -8 1 -36 -2 -62 -7 -41 -7 -47 -6 -47 9 0 25 20 38 65 42 56 6 60
4 60 -23z m-5 -58 c0 -26 -4 -28 -73 -36 -58 -7 -59 -7 -55 16 3 21 10 25 53
30 28 3 56 7 63 7 6 1 12 -7 12 -17z"/>
  <path d="M675 514 c-38 -7 -88 -16 -110 -20 -37 -6 -38 -7 -17 -17 16 -7 41
-7 86 1 35 7 77 12 93 12 27 0 31 -4 37 -37 9 -60 7 -319 -4 -347 -8 -23 -12
-24 -41 -16 -27 8 -53 6 -38 -2 2 -2 21 -18 41 -36 30 -29 39 -32 56 -23 34
18 41 66 43 268 2 207 -1 217 -52 227 -13 2 -55 -2 -94 -10z"/>
  <path d="M563 407 c-84 -16 -65 -31 29 -23 88 7 113 15 82 27 -24 10 -46 9
-111 -4z"/>
  <path d="M584 320 c-17 -4 -44 -6 -59 -4 -22 2 -25 0 -20 -14 4 -9 12 -36 18
-59 9 -39 13 -42 35 -36 26 6 52 10 90 12 13 0 20 5 17 11 -3 5 3 27 14 49 18
34 19 40 5 45 -20 8 -60 6 -100 -4z m56 -39 c0 -33 -2 -35 -42 -45 -30 -7 -58
14 -58 44 0 14 9 20 38 23 20 2 43 4 50 5 7 1 12 -10 12 -27z"/>
</g>
<g id="part-1" class="char-part">
  <path d="M331 544 c-16 -62 -70 -145 -150 -227 -41 -43 -57 -65 -43 -60 49 18
135 100 189 179 l56 83 49 -26 c38 -20 52 -23 61 -14 16 17 -15 40 -66 48 -25
4 -36 10 -33 18 5 14 -24 45 -41 45 -6 0 -16 -21 -22 -46z"/>
</g>
<g id="part-2" class="char-part">
  <path d="M380 175 c0 -12 64 -75 76 -75 15 0 19 27 6 47 -11 18 -82 42 -82 28z"/>
</g>
<g id="part-3" class="char-part">
  <path d="M695 515 c-27 -7 -70 -14 -95 -15 -25 -1 -54 -5 -65 -10 -38 -15 33
-24 100 -11 34 6 76 11 92 11 28 0 31 -3 37 -46 8 -60 8 -268 -1 -318 l-6 -38
-44 5 -44 5 43 -37 c51 -44 67 -45 89 -6 15 25 18 62 21 238 l3 207 -32 15
c-35 17 -31 17 -98 0z"/>
</g>
<g id="part-4" class="char-part">
  <path d="M568 408 c-85 -15 -74 -32 16 -25 87 8 114 16 94 28 -16 10 -34 10
-110 -3z"/>
</g>
<g id="part-5" class="char-part">
  <path d="M630 320 c0 -4 7 -10 15 -14 16 -6 21 -46 6 -46 -16 0 -20 -28 -5
-34 9 -3 14 -1 12 7 -1 6 3 22 10 35 7 12 10 28 6 34 -4 7 -3 8 4 4 7 -4 12
-2 12 3 0 6 -6 11 -12 12 -7 0 -21 2 -30 4 -10 2 -18 0 -18 -5z"/>
  <path d="M517 299 c6 -6 9 -17 7 -24 -3 -7 0 -16 6 -20 7 -4 9 2 6 19 -2 14 1
27 7 30 7 2 1 5 -12 5 -19 1 -22 -2 -14 -10z"/>
  <path d="M530 219 c0 -5 5 -7 10 -4 6 3 10 8 10 11 0 2 -4 4 -10 4 -5 0 -10
-5 -10 -11z"/>
</g>
</g>
</svg>