<?xml version="1.0" standalone="no"?>
<!DOCTYPE svg PUBLIC "-//W3C//DTD SVG 20010904//EN"
 "http://www.w3.org/TR/2001/REC-SVG-20010904/DTD/svg10.dtd">
<svg version="1.0" xmlns="http://www.w3.org/2000/svg"
 width="96.000000pt" height="68.000000pt" viewBox="0 0 96.000000 68.000000"
 preserveAspectRatio="xMidYMid meet">
<metadata>
Created by potrace 1.16, written by Peter Selinger 2001-2019
Combined from part_0.svg through part_5.svg with named groups
</metadata>
<g transform="translate(0.000000,68.000000) scale(0.100000,-0.100000)" fill="#000000" stroke="none">
<g id="part-0" class="char-part">
  <path d="M240 565 c0 -21 57 -75 79 -75 25 0 29 41 6 60 -23 19 -85 30 -85 15z"/>
  <path d="M587 439 c7 -114 4 -119 -61 -119 -52 0 -35 -18 20 -22 l41 -3 -15
-53 c-9 -32 -30 -69 -54 -97 -41 -47 -38 -56 12 -30 19 10 39 37 61 80 17 36
35 65 38 65 4 0 21 -26 39 -57 47 -83 56 -97 67 -105 13 -10 115 -10 115 0 0
4 -20 18 -45 31 -78 41 -189 161 -169 181 5 5 35 10 67 12 76 4 69 23 -8 23
l-60 0 4 89 c3 92 -2 105 -41 106 -14 0 -15 -11 -11 -101z"/>
  <path d="M473 483 c-7 -3 -13 -12 -13 -21 0 -9 -11 -35 -25 -57 -43 -71 -58
-100 -44 -87 7 6 19 12 26 12 16 0 18 -127 2 -184 -12 -44 -5 -86 15 -86 19 0
26 45 26 164 0 63 -4 106 -11 113 -9 9 -1 25 30 64 22 28 41 54 41 58 0 11
-34 28 -47 24z"/>
  <path d="M690 481 c0 -17 50 -61 70 -61 34 0 25 36 -14 54 -38 18 -56 20 -56
7z"/>
  <path d="M264 430 c-12 -5 -54 -12 -93 -16 -75 -7 -89 -18 -44 -35 26 -10 35
-9 136 18 35 9 14 -21 -82 -119 -89 -89 -97 -100 -69 -94 16 3 53 24 82 47
l51 41 3 -38 c2 -22 -1 -65 -8 -96 -12 -61 -3 -98 24 -98 18 0 26 43 27 144 1
44 3 74 6 65 5 -20 53 -43 65 -31 13 13 0 38 -25 50 -22 10 -22 10 5 22 22 11
25 16 17 31 -14 27 -37 24 -51 -6 -12 -28 -28 -33 -28 -10 0 8 18 33 40 55 45
45 48 55 21 70 -23 12 -48 12 -77 0z"/>
</g>
<g id="part-1" class="char-part">
  <path d="M250 551 c15 -29 59 -61 76 -54 29 11 13 46 -29 62 -45 17 -60 14
-47 -8z"/>
  <path d="M255 425 c-22 -8 -56 -14 -75 -14 -53 -2 -85 -12 -68 -22 19 -13 66
-11 126 5 28 8 52 11 52 7 0 -13 -125 -156 -166 -189 -21 -18 -35 -32 -31 -32
16 0 73 33 113 66 36 29 43 31 48 17 8 -19 -2 -116 -15 -151 -9 -22 7 -72 22
-72 12 0 17 27 24 128 l7 94 27 -26 c33 -32 43 -33 39 -4 -2 12 -14 28 -27 35
l-25 12 27 12 c31 14 33 21 12 39 -12 10 -18 6 -33 -19 -17 -28 -21 -30 -32
-16 -11 14 -6 23 35 65 27 27 47 51 44 53 -10 9 -48 27 -56 26 -4 -1 -26 -7
-48 -14z"/>
</g>
<g id="part-2" class="char-part">
  <path d="M464 473 c-13 -43 -38 -90 -65 -124 -35 -44 -37 -56 -7 -35 12 9 26
16 30 16 12 0 10 -111 -3 -170 -12 -57 -6 -100 15 -100 8 0 16 10 19 23 11 42
10 234 -2 254 -8 16 -7 24 3 32 7 6 26 29 41 51 27 39 28 41 9 55 -25 19 -34
19 -40 -2z"/>
</g>
<g id="part-3" class="char-part">
  <path d="M690 481 c0 -17 50 -61 70 -61 31 0 25 37 -10 55 -32 17 -60 20 -60
6z"/>
</g>
<g id="part-4" class="char-part">
  <path d="M588 436 c4 -102 4 -103 -19 -109 -13 -4 -37 -7 -52 -7 -17 0 -26 -4
-22 -11 4 -6 26 -9 49 -7 40 2 41 2 38 -27 -6 -49 -28 -91 -73 -139 -44 -49
-44 -55 -1 -32 40 21 68 55 95 115 l23 53 44 -73 c62 -107 65 -109 127 -109
29 0 53 3 53 8 0 4 -21 18 -46 32 -26 13 -69 47 -97 75 -91 91 -96 114 -24
116 23 1 56 4 72 8 l30 7 -32 8 c-18 4 -53 4 -78 0 l-46 -6 6 92 c7 96 3 109
-36 110 -14 0 -15 -14 -11 -104z"/>
</g>
</g>
</svg>