<?xml version="1.0" standalone="no"?>
<!DOCTYPE svg PUBLIC "-//W3C//DTD SVG 20010904//EN"
 "http://www.w3.org/TR/2001/REC-SVG-20010904/DTD/svg10.dtd">
<svg version="1.0" xmlns="http://www.w3.org/2000/svg"
 width="96.000000pt" height="68.000000pt" viewBox="0 0 96.000000 68.000000"
 preserveAspectRatio="xMidYMid meet">
<metadata>
Created by potrace 1.16, written by Peter Selinger 2001-2019
Combined from part_0.svg through part_5.svg with named groups
</metadata>
<g transform="translate(0.000000,68.000000) scale(0.100000,-0.100000)" fill="#000000" stroke="none">
<g id="part-0" class="char-part">
  <path d="M259 623 c0 -5 0 -29 1 -55 2 -58 -13 -68 -99 -68 -66 0 -76 -10 -36
-36 21 -13 33 -14 66 -6 l40 10 -16 -24 c-15 -23 -15 -25 12 -34 15 -6 35 -13
43 -17 18 -7 -93 -62 -127 -63 -12 0 -25 -4 -28 -10 -13 -20 87 -10 151 16 59
24 67 24 88 11 12 -9 34 -17 49 -19 25 -3 25 -4 12 -34 -12 -30 -16 -32 -86
-38 -50 -5 -68 -10 -58 -17 8 -5 38 -6 68 -3 38 5 52 3 50 -5 -11 -31 -81
-103 -133 -136 -32 -20 -55 -39 -52 -42 3 -3 34 8 69 25 58 29 117 81 179 160
14 17 29 22 68 24 27 0 56 1 63 2 19 2 14 -74 -9 -119 -17 -37 -22 -40 -56
-39 -21 1 -38 -2 -38 -5 0 -4 13 -20 30 -36 26 -25 33 -27 54 -17 30 13 51 51
71 128 8 32 19 62 25 68 17 17 11 26 -23 41 -24 10 -44 11 -73 5 -21 -5 -52
-10 -67 -10 -24 0 -26 2 -17 19 16 30 12 40 -17 47 -16 4 -41 17 -58 28 -16
12 -32 22 -33 23 -9 4 53 96 75 110 l24 16 -42 18 c-52 24 -63 24 -56 -1 4
-17 0 -20 -24 -20 -32 0 -37 15 -14 46 20 27 19 31 -15 49 -31 16 -59 20 -61
8z m105 -145 c-32 -57 -46 -68 -72 -62 -36 9 -36 9 -17 38 17 25 32 33 73 35
16 1 21 -3 16 -11z"/>
  <path d="M583 558 c-82 -19 -100 -31 -65 -42 9 -3 32 -20 50 -37 40 -37 37
-41 -53 -89 -58 -31 -59 -32 -22 -27 21 3 61 17 90 30 l52 24 25 -25 c36 -34
66 -43 121 -36 55 7 56 17 1 35 -58 18 -122 49 -122 58 0 4 16 29 36 55 29 38
33 50 24 61 -16 19 -35 18 -137 -7z m77 -18 c0 -14 -29 -70 -35 -70 -3 0 -24
12 -47 27 l-41 28 44 11 c57 16 79 16 79 4z"/>
</g>
<g id="part-1" class="char-part">
  <path d="M264 576 c-1 -29 -4 -58 -8 -65 -4 -6 -37 -11 -82 -11 -41 0 -74 -4
-74 -8 0 -20 49 -34 95 -28 l46 7 -16 -25 c-17 -25 -16 -26 10 -36 14 -5 31
-10 36 -10 5 0 9 -4 9 -10 0 -11 -49 -38 -105 -57 l-40 -13 56 4 c31 2 75 14
98 26 l42 21 28 -21 c16 -11 36 -20 45 -20 25 0 19 28 -11 47 -16 9 -29 18
-31 19 -8 5 69 112 85 118 14 6 10 11 -22 25 -43 19 -57 18 -49 -3 3 -9 -6
-15 -27 -20 -18 -3 -34 -4 -36 -2 -2 2 3 21 11 41 9 21 16 39 16 41 0 5 -57
34 -67 34 -5 0 -9 -24 -9 -54z m106 -90 c0 -21 -49 -76 -68 -76 -10 0 -23 4
-30 9 -20 13 6 60 37 67 14 3 31 7 36 9 20 7 25 5 25 -9z"/>
</g>
<g id="part-2" class="char-part">
  <path d="M570 556 l-84 -22 35 -21 c19 -12 45 -33 57 -46 l23 -25 -33 -20
c-18 -11 -51 -29 -73 -41 -31 -16 -35 -21 -18 -21 31 0 115 29 134 46 14 13
21 10 60 -22 40 -33 47 -36 88 -30 24 3 50 6 57 6 25 0 14 17 -14 23 -42 8
-142 54 -142 65 0 5 16 31 37 57 34 46 35 49 18 61 -24 18 -42 17 -145 -10z
m90 -19 c0 -10 -14 -36 -36 -65 -1 -2 -21 9 -44 24 l-43 28 49 12 c67 16 74
16 74 1z"/>
</g>
<g id="part-3" class="char-part">
  <path d="M420 329 c0 -51 -16 -69 -63 -70 -23 -1 -55 -4 -72 -8 -28 -7 -29 -8
-8 -15 13 -4 43 -4 68 0 27 4 45 2 45 -3 0 -21 -87 -108 -144 -145 -67 -43
-57 -50 21 -13 58 27 142 100 174 151 14 24 28 34 45 34 13 0 24 5 24 10 0 6
-10 10 -22 10 -17 0 -19 3 -10 12 22 22 13 46 -19 57 -18 6 -34 11 -35 11 -2
0 -4 -14 -4 -31z"/>
</g>
<g id="part-4" class="char-part">
  <path d="M558 287 c-59 -11 -63 -26 -8 -25 23 0 44 -2 47 -6 9 -9 -16 -109
-34 -135 -13 -20 -21 -22 -57 -17 l-41 7 37 -38 c35 -35 38 -36 63 -23 31 17
60 69 70 125 4 22 14 50 22 63 7 12 11 26 8 31 -11 19 -61 27 -107 18z"/>
</g>
</g>
</svg>