<?xml version="1.0" standalone="no"?>
<!DOCTYPE svg PUBLIC "-//W3C//DTD SVG 20010904//EN"
 "http://www.w3.org/TR/2001/REC-SVG-20010904/DTD/svg10.dtd">
<svg version="1.0" xmlns="http://www.w3.org/2000/svg"
 width="96.000000pt" height="68.000000pt" viewBox="0 0 96.000000 68.000000"
 preserveAspectRatio="xMidYMid meet">
<metadata>
Created by potrace 1.16, written by Peter Selinger 2001-2019
Combined from part_0.svg through part_5.svg with named groups
</metadata>
<g transform="translate(0.000000,68.000000) scale(0.100000,-0.100000)" fill="#000000" stroke="none">
<g id="part-0" class="char-part">
  <path d="M498 547 l4 -63 -47 -3 -47 -2 4 43 c3 38 0 43 -23 52 -38 13 -63 2
-49 -23 5 -11 10 -34 10 -52 l0 -32 -71 7 c-67 7 -71 6 -64 -11 5 -13 45 -196
45 -209 0 -1 -38 -5 -86 -9 -55 -4 -84 -11 -81 -18 7 -22 70 -29 147 -17 68
10 412 29 553 30 42 0 57 4 57 14 0 23 -66 39 -131 32 -33 -4 -59 -4 -59 -1 0
9 38 139 48 167 10 24 8 28 -21 41 -22 10 -48 13 -81 10 l-48 -6 7 42 c8 49
-5 71 -44 71 -26 0 -26 -1 -23 -63z m134 -112 c-2 -22 -4 -41 -5 -42 -2 -1
-21 1 -43 4 -37 5 -40 7 -37 32 8 49 11 52 50 49 38 -3 38 -3 35 -43z m-135
-2 c-7 -40 -20 -53 -54 -53 -20 0 -23 5 -23 39 0 36 3 40 28 44 56 8 55 9 49
-30z m-143 1 c3 -9 6 -27 6 -40 0 -23 -4 -25 -40 -22 -38 2 -40 4 -40 33 0 18
3 35 7 38 13 13 61 7 67 -9z m263 -105 c-6 -46 -19 -59 -59 -59 -30 0 -32 7
-22 58 5 24 13 32 33 35 55 9 54 10 48 -34z m-127 -6 c0 -37 -9 -49 -42 -57
-27 -6 -28 -5 -28 39 0 45 0 45 35 45 32 0 35 -3 35 -27z m-126 1 c3 -9 6 -27
6 -40 0 -21 -5 -24 -34 -24 -31 0 -34 3 -38 35 -2 20 -2 38 1 40 11 12 59 4
65 -11z"/>
  <path d="M311 149 c-19 -22 -54 -52 -78 -66 -83 -48 -32 -37 72 17 102 52 122
71 89 84 -31 12 -49 4 -83 -35z"/>
  <path d="M545 180 c-3 -6 -2 -10 2 -10 5 0 31 -20 58 -45 27 -24 64 -52 83
-62 28 -15 34 -16 42 -4 11 18 -12 66 -37 76 -99 40 -143 53 -148 45z"/>
</g>
<g id="part-1" class="char-part">
  <path d="M498 498 l-3 -113 -42 -3 -42 -3 -3 93 -3 93 -34 3 c-29 3 -33 1 -26
-15 5 -10 10 -55 13 -100 l4 -83 -36 0 c-48 0 -46 -18 2 -22 36 -3 37 -4 40
-49 l3 -46 -83 -6 c-46 -4 -110 -7 -143 -7 -56 -1 -59 -2 -40 -16 21 -17 45
-16 310 6 61 5 181 9 267 9 163 1 197 10 136 35 -27 12 -55 13 -133 6 -160
-15 -155 -15 -155 24 0 56 8 66 51 66 21 0 39 5 39 10 0 6 -18 10 -40 10 -46
0 -46 -2 -25 110 13 72 13 76 -7 93 -42 35 -47 25 -50 -95z m-10 -185 c-3 -45
-5 -48 -32 -51 -34 -4 -46 10 -46 55 0 32 10 39 58 42 21 1 23 -2 20 -46z"/>
</g>
<g id="part-2" class="char-part">
  <path d="M610 504 c-210 -32 -252 -36 -324 -30 -73 6 -78 5 -72 -11 6 -15 46
-197 46 -209 0 -2 10 -4 21 -4 23 0 23 13 3 146 -5 35 -3 43 12 47 44 13 326
39 334 31 5 -5 3 -48 -4 -99 -8 -50 -12 -93 -10 -97 2 -3 12 -4 22 -1 13 3 27
32 49 104 l30 100 -28 14 c-28 15 -33 15 -79 9z"/>
</g>
<g id="part-3" class="char-part">
  <path d="M318 156 c-15 -19 -50 -49 -78 -67 -80 -52 -48 -47 65 10 101 51 123
72 89 85 -31 12 -50 5 -76 -28z"/>
  <path d="M550 180 c0 -15 143 -130 161 -130 22 0 32 26 18 52 -16 29 -179 100
-179 78z"/>
</g>
</g>
</svg>