<?xml version="1.0" standalone="no"?>
<!DOCTYPE svg PUBLIC "-//W3C//DTD SVG 20010904//EN"
 "http://www.w3.org/TR/2001/REC-SVG-20010904/DTD/svg10.dtd">
<svg version="1.0" xmlns="http://www.w3.org/2000/svg"
 width="96.000000pt" height="68.000000pt" viewBox="0 0 96.000000 68.000000"
 preserveAspectRatio="xMidYMid meet">
<metadata>
Created by potrace 1.16, written by Peter Selinger 2001-2019
Combined from part_0.svg through part_5.svg with named groups
</metadata>
<g transform="translate(0.000000,68.000000) scale(0.100000,-0.100000)" fill="#000000" stroke="none">
<g id="part-0" class="char-part">
  <path d="M505 589 c-22 -4 -84 -9 -137 -11 -54 -1 -98 -4 -98 -6 0 -2 9 -15
20 -29 11 -14 20 -34 20 -45 0 -10 7 -32 15 -47 l14 -28 133 2 133 3 36 71
c36 72 36 72 15 86 -22 16 -87 18 -151 4z m85 -44 c0 -11 -11 -15 -37 -15 -21
0 -76 -3 -122 -7 -70 -5 -83 -4 -79 8 5 14 68 24 181 27 45 2 57 -1 57 -13z
m-10 -54 c0 -17 -17 -21 -112 -30 -90 -8 -107 -5 -108 21 0 6 49 11 173 16 26
1 47 -2 47 -7z"/>
  <path d="M635 406 c-5 -2 -102 -9 -215 -16 -113 -7 -221 -16 -240 -20 l-35 -7
29 -12 c22 -9 54 -8 144 4 67 9 193 15 298 15 172 0 211 6 189 28 -7 7 -153
14 -170 8z"/>
  <path d="M480 335 c-58 -8 -128 -14 -156 -14 l-52 -1 18 -36 c10 -19 21 -53
25 -75 l7 -39 65 0 c61 0 64 -1 61 -22 -3 -20 -10 -23 -55 -26 -63 -4 -72 -24
-10 -22 63 3 67 2 67 -19 0 -25 -9 -27 -120 -30 -95 -3 -135 -14 -88 -26 14
-4 85 -2 158 4 74 6 187 11 253 11 88 0 118 3 115 12 -8 23 -62 29 -162 18
-102 -12 -125 -7 -113 24 5 12 21 16 59 17 29 0 62 4 72 8 34 13 0 23 -66 19
-56 -3 -61 -1 -64 18 -3 19 2 23 39 26 23 3 50 1 59 -4 9 -4 23 -5 31 -2 19 7
72 143 60 155 -16 16 -96 18 -203 4z m124 -21 c9 -3 16 -15 16 -25 0 -17 -8
-19 -60 -19 -53 0 -60 2 -60 19 0 16 8 21 43 24 23 2 43 4 44 5 1 1 8 -1 17
-4z m-154 -36 c0 -21 -5 -23 -52 -25 -51 -2 -68 6 -68 35 0 8 19 12 60 12 56
0 60 -2 60 -22z m150 -48 c0 -16 -7 -20 -34 -20 -19 0 -41 -3 -50 -6 -11 -4
-16 0 -16 14 0 22 16 29 68 31 26 1 32 -3 32 -19z m-150 -9 c0 -22 -19 -31
-66 -31 -30 0 -34 3 -34 25 0 23 3 25 50 25 42 0 50 -3 50 -19z"/>
</g>
<g id="part-1" class="char-part">
  <path d="M485 584 c-44 -8 -108 -13 -143 -12 -58 3 -75 -3 -53 -17 5 -3 15
-22 21 -43 28 -90 28 -90 73 -86 23 3 82 5 131 7 l89 2 34 65 c18 36 33 68 33
72 0 9 -59 28 -84 27 -12 -1 -57 -8 -101 -15z m105 -33 c0 -16 -14 -19 -116
-30 -117 -12 -134 -10 -134 14 0 10 24 15 88 20 48 3 92 8 97 10 6 2 22 4 38
4 20 1 27 -4 27 -18z m-6 -64 c-3 -12 -7 -23 -8 -23 0 -1 -49 -5 -108 -9 -104
-7 -108 -6 -108 13 0 21 17 24 160 35 19 1 43 3 53 4 14 1 17 -3 11 -20z"/>
</g>
<g id="part-2" class="char-part">
  <path d="M729 415 c-3 -2 -132 -13 -288 -24 -155 -10 -285 -21 -288 -24 -3 -4
7 -11 23 -18 22 -8 57 -7 149 5 69 9 191 16 287 16 91 0 173 3 182 6 23 9 20
21 -8 28 -13 3 -30 8 -38 11 -8 3 -16 3 -19 0z"/>
</g>
<g id="part-3" class="char-part">
  <path d="M475 334 c-60 -6 -132 -13 -159 -13 -42 -1 -47 -3 -36 -16 7 -9 21
-44 30 -78 l17 -62 67 3 c37 2 93 7 124 12 35 4 66 3 80 -3 14 -6 26 -7 31 -1
9 9 61 132 61 144 0 12 -50 30 -78 29 -15 -1 -76 -8 -137 -15z m140 -39 c0
-17 -8 -20 -57 -23 -52 -3 -58 -1 -58 17 0 15 8 21 38 24 63 7 77 4 77 -18z
m-165 -15 c0 -12 -7 -20 -17 -20 -10 0 -34 -3 -54 -6 -28 -5 -37 -2 -43 11
-10 28 2 35 60 35 47 0 54 -2 54 -20z m152 -51 c-7 -17 -18 -21 -55 -23 -39
-1 -47 1 -47 15 0 18 20 25 77 28 29 1 32 -1 25 -20z m-152 -9 c0 -39 -93 -41
-98 -2 -3 20 0 22 47 22 44 0 51 -3 51 -20z"/>
</g>
<g id="part-4" class="char-part">
  <path d="M450 145 c0 -14 -3 -24 -7 -24 -28 5 -115 -2 -109 -8 9 -9 13 -10 71
-12 37 -1 45 -4 45 -20 0 -24 -35 -31 -146 -31 -81 0 -119 -13 -70 -26 13 -3
87 -1 163 5 77 6 192 11 256 11 64 0 117 4 117 9 0 21 -61 29 -152 21 -51 -5
-99 -10 -105 -10 -7 0 -13 11 -13 25 0 23 3 25 53 26 28 0 61 4 72 9 18 7 18
8 -8 15 -15 4 -47 4 -72 1 -41 -7 -45 -5 -45 13 0 16 -6 21 -25 21 -20 0 -25
-5 -25 -25z"/>
</g>
</g>
</svg>