<?xml version="1.0" standalone="no"?>
<!DOCTYPE svg PUBLIC "-//W3C//DTD SVG 20010904//EN"
 "http://www.w3.org/TR/2001/REC-SVG-20010904/DTD/svg10.dtd">
<svg version="1.0" xmlns="http://www.w3.org/2000/svg"
 width="96.000000pt" height="68.000000pt" viewBox="0 0 96.000000 68.000000"
 preserveAspectRatio="xMidYMid meet">
<metadata>
Created by potrace 1.16, written by Peter Selinger 2001-2019
Combined from part_0.svg through part_5.svg with named groups
</metadata>
<g transform="translate(0.000000,68.000000) scale(0.100000,-0.100000)" fill="#000000" stroke="none">
<g id="part-0" class="char-part">
  <path d="M327 612 c-2 -4 -7 -20 -11 -37 -13 -52 -57 -118 -134 -197 -42 -43
-69 -78 -60 -78 19 0 124 75 132 95 3 8 11 15 17 15 14 0 6 -203 -10 -256 -17
-59 36 -130 55 -72 3 11 9 89 13 172 7 136 5 153 -10 171 -18 20 -17 22 26 80
25 33 45 65 45 72 0 15 -57 47 -63 35z"/>
  <path d="M600 540 c-69 -10 -143 -16 -164 -13 -36 6 -39 4 -32 -13 16 -38 17
-92 7 -209 -6 -66 -13 -131 -16 -145 -4 -15 0 -33 8 -45 12 -16 17 -17 30 -7
9 8 71 18 148 24 l132 11 28 -34 29 -34 20 24 c11 13 20 37 20 55 0 17 1 108
1 201 1 94 -2 178 -6 188 -9 21 -35 21 -205 -3z m160 -195 l0 -172 -127 -8
c-71 -4 -141 -8 -158 -9 -27 -1 -30 2 -29 29 1 17 3 92 4 168 2 87 7 140 14
145 14 9 243 29 274 24 22 -4 22 -6 22 -177z"/>
  <path d="M580 456 l0 -43 -52 -10 -53 -10 48 -2 48 -1 -3 -37 c-3 -37 -4 -38
-40 -37 -36 1 -49 -8 -29 -21 6 -3 13 -26 17 -51 6 -40 9 -45 28 -40 12 3 47
8 78 12 49 6 57 10 63 31 3 14 13 32 21 41 14 14 14 16 -2 25 -10 6 -37 10
-61 9 -44 0 -48 4 -37 45 5 17 16 23 55 28 27 4 49 11 49 15 0 12 -34 22 -53
14 -26 -10 -39 4 -26 28 9 18 8 24 -7 35 -33 24 -44 16 -44 -31z m68 -183 c-2
-23 -9 -29 -43 -35 -52 -11 -65 -5 -65 32 0 30 0 30 56 30 54 0 55 0 52 -27z"/>
</g>
<g id="part-1" class="char-part">
  <path d="M325 598 c-2 -7 -9 -30 -15 -50 -14 -47 -58 -108 -134 -187 -54 -56
-57 -61 -27 -46 19 9 56 37 82 62 l48 45 7 -37 c7 -38 0 -123 -17 -216 -12
-60 -2 -99 26 -99 18 0 23 32 29 201 4 111 2 140 -10 158 -14 20 -12 25 32 83
l47 62 -23 18 c-26 21 -39 23 -45 6z"/>
</g>
<g id="part-2" class="char-part">
  <path d="M635 544 c-44 -7 -115 -14 -157 -16 l-77 -2 7 -26 c9 -32 4 -245 -7
-306 -5 -28 -5 -57 0 -71 9 -24 35 -31 41 -11 3 7 52 15 137 21 l132 10 29
-34 29 -34 21 21 c21 21 22 30 23 234 0 172 -3 214 -14 221 -18 11 -65 9 -164
-7z m125 -199 l0 -175 -62 0 c-35 0 -103 -5 -152 -10 -49 -6 -92 -7 -96 -3 -8
10 3 329 11 338 10 9 126 22 217 24 l82 1 0 -175z"/>
</g>
<g id="part-3" class="char-part">
  <path d="M580 456 l0 -43 -52 -10 -53 -10 48 -2 c47 -1 47 -1 47 -36 0 -47 27
-48 36 0 6 33 9 35 55 41 27 4 52 10 54 15 8 12 -30 21 -60 13 -26 -6 -27 -6
-20 26 8 34 -4 50 -37 50 -15 0 -18 -9 -18 -44z"/>
</g>
<g id="part-4" class="char-part">
  <path d="M595 319 c-33 -5 -70 -7 -83 -4 -20 5 -22 3 -14 -12 5 -10 13 -37 17
-61 4 -28 11 -42 19 -39 7 3 43 8 80 12 37 4 65 10 62 13 -3 2 3 17 14 32 26
37 25 49 -6 60 -14 6 -26 9 -27 9 -1 -1 -29 -5 -62 -10z m55 -38 c0 -36 -2
-37 -62 -46 l-48 -7 0 35 c0 38 -3 37 83 45 24 2 27 -1 27 -27z"/>
</g>
</g>
</svg>