<?xml version="1.0" standalone="no"?>
<!DOCTYPE svg PUBLIC "-//W3C//DTD SVG 20010904//EN"
 "http://www.w3.org/TR/2001/REC-SVG-20010904/DTD/svg10.dtd">
<svg version="1.0" xmlns="http://www.w3.org/2000/svg"
 width="96.000000pt" height="68.000000pt" viewBox="0 0 96.000000 68.000000"
 preserveAspectRatio="xMidYMid meet">
<metadata>
Created by potrace 1.16, written by Peter Selinger 2001-2019
Combined from part_0.svg through part_5.svg with named groups
</metadata>
<g transform="translate(0.000000,68.000000) scale(0.100000,-0.100000)" fill="#000000" stroke="none">
<g id="part-0" class="char-part">
  <path d="M630 584 c-58 -8 -126 -13 -153 -12 -42 3 -62 -5 -38 -14 4 -1 15
-23 23 -48 l15 -45 45 3 c38 3 46 0 51 -17 7 -27 0 -31 -46 -31 -50 0 -41 -12
10 -14 31 -1 38 -5 38 -21 0 -18 -8 -20 -72 -23 -56 -2 -73 -6 -73 -17 0 -11
12 -15 43 -15 37 0 45 -4 60 -30 l18 -29 -28 -7 c-49 -10 -49 -12 -2 -13 33
-1 49 -6 53 -17 10 -27 -3 -34 -70 -34 -48 0 -65 -3 -61 -12 3 -9 24 -12 70
-10 l67 4 0 -86 c0 -81 9 -111 27 -84 4 7 10 49 13 93 l5 80 45 2 c99 6 150
15 144 25 -4 7 -39 9 -95 6 -88 -5 -89 -5 -89 18 0 21 4 24 43 24 48 0 89 19
47 21 -14 1 -35 1 -47 0 l-23 -2 23 35 c22 35 23 35 96 36 67 0 72 1 60 16
-12 14 -28 16 -111 11 -91 -6 -98 -5 -98 12 0 15 10 21 50 26 62 9 66 25 5 25
-39 0 -45 3 -45 21 0 20 4 21 56 17 l55 -5 30 43 c16 23 29 47 29 52 0 8 -59
36 -64 31 -1 -1 -48 -8 -106 -15z m100 -36 c0 -35 -12 -44 -50 -44 -26 1 -34
5 -32 16 2 8 8 17 13 18 5 2 9 10 9 18 0 9 11 14 30 14 24 0 30 -4 30 -22z
m-198 0 c9 -7 19 -23 23 -35 5 -20 3 -23 -22 -23 -22 0 -31 6 -40 30 -8 21 -8
30 1 34 18 7 21 7 38 -6z m98 -4 c0 -24 -19 -54 -35 -54 -9 0 -15 9 -15 23 0
13 -5 28 -12 35 -9 9 -4 12 25 12 27 0 37 -4 37 -16z m5 -227 c-13 -57 -40
-61 -72 -12 l-21 34 26 3 c79 9 74 11 67 -25z"/>
  <path d="M310 560 c-14 -4 -53 -8 -87 -9 -58 -1 -78 -11 -53 -26 13 -8 13
-146 0 -181 -13 -34 4 -58 34 -49 12 4 54 10 95 14 l73 7 -5 -61 c-2 -33 -11
-73 -18 -88 -11 -24 -17 -28 -41 -23 -32 6 -35 0 -12 -32 37 -53 86 -5 108
103 7 39 16 78 20 87 10 22 -25 40 -76 40 -21 -1 -38 3 -38 8 0 27 15 40 46
40 19 0 34 5 34 10 0 6 -16 10 -35 10 -31 0 -35 3 -35 25 0 22 4 25 35 25 19
0 35 5 35 10 0 6 -16 10 -36 10 -31 0 -35 3 -32 22 2 18 12 24 41 29 42 7 52
13 42 28 -7 13 -58 13 -95 1z m-30 -65 c0 -20 -5 -25 -25 -25 -20 0 -25 5 -25
25 0 20 5 25 25 25 20 0 25 -5 25 -25z m0 -70 c0 -20 -5 -25 -25 -25 -20 0
-25 5 -25 25 0 20 5 25 25 25 20 0 25 -5 25 -25z m0 -66 c0 -12 -10 -21 -25
-25 -32 -8 -39 -2 -31 29 5 20 11 23 31 19 16 -3 25 -11 25 -23z"/>
  <path d="M310 272 c0 -17 38 -44 45 -32 4 6 -1 18 -11 25 -22 16 -34 19 -34 7z"/>
  <path d="M116 235 c-19 -44 -17 -70 4 -70 19 0 35 68 22 91 -9 16 -12 13 -26
-21z"/>
  <path d="M240 262 c0 -10 33 -42 43 -42 15 0 6 30 -12 40 -24 12 -31 13 -31 2z"/>
  <path d="M191 226 c15 -32 32 -34 27 -4 -2 13 -11 24 -21 26 -15 3 -16 0 -6
-22z"/>
</g>
<g id="part-1" class="char-part">
  <path d="M330 559 c-14 -6 -55 -11 -92 -12 -37 -1 -68 -5 -68 -8 0 -3 5 -20
11 -38 8 -24 8 -52 0 -108 -14 -97 -8 -106 56 -87 25 8 63 14 85 14 21 0 38 5
38 11 0 8 -21 9 -70 4 l-70 -7 0 94 0 94 85 11 c94 13 115 21 94 34 -18 11
-38 10 -69 -2z"/>
</g>
<g id="part-2" class="char-part">
  <path d="M306 265 c9 -22 41 -38 49 -25 9 15 -14 40 -36 40 -12 0 -16 -5 -13
-15z"/>
  <path d="M110 224 c-13 -45 -4 -74 18 -60 13 8 24 69 16 90 -10 27 -21 18 -34
-30z"/>
  <path d="M240 263 c1 -14 27 -43 39 -43 18 0 13 28 -8 40 -23 12 -31 13 -31 3z"/>
  <path d="M180 249 c0 -17 20 -49 30 -49 14 0 12 34 -2 48 -15 15 -28 15 -28 1z"/>
</g>
<g id="part-3" class="char-part">
  <path d="M620 584 c-52 -8 -119 -13 -148 -12 -37 2 -48 0 -39 -7 8 -5 21 -30
29 -55 13 -38 19 -45 39 -43 13 1 73 4 133 6 l110 5 33 47 34 46 -35 14 c-20
8 -41 14 -48 14 -7 -1 -56 -8 -108 -15z m110 -36 c0 -30 -10 -43 -35 -45 -182
-17 -192 -16 -198 8 -13 47 -11 48 81 52 48 1 102 4 120 5 27 2 32 -1 32 -20z"/>
</g>
<g id="part-4" class="char-part">
  <path d="M628 530 c-5 -36 4 -38 26 -5 20 31 20 35 -3 35 -13 0 -20 -9 -23
-30z"/>
</g>
<g id="part-5" class="char-part">
  <path d="M584 238 c-4 -6 0 -14 7 -19 8 -5 9 -9 4 -9 -7 0 -11 -38 -12 -100
-1 -93 6 -122 21 -84 4 10 2 13 -7 8 -9 -6 -9 -4 -1 7 20 25 26 71 12 81 -11
6 -10 10 1 17 8 5 12 18 9 29 -8 28 10 33 117 33 55 1 82 4 70 9 -20 8 -157 3
-185 -6 -12 -4 -13 -3 -2 7 6 7 12 18 12 24 0 14 -38 17 -46 3z"/>
  <path d="M508 193 c12 -2 30 -2 40 0 9 3 -1 5 -23 4 -22 0 -30 -2 -17 -4z"/>
  <path d="M448 183 c7 -3 16 -2 19 1 4 3 -2 6 -13 5 -11 0 -14 -3 -6 -6z"/>
</g>
</g>
</svg>