<?xml version="1.0" standalone="no"?>
<!DOCTYPE svg PUBLIC "-//W3C//DTD SVG 20010904//EN"
 "http://www.w3.org/TR/2001/REC-SVG-20010904/DTD/svg10.dtd">
<svg version="1.0" xmlns="http://www.w3.org/2000/svg"
 width="96.000000pt" height="68.000000pt" viewBox="0 0 96.000000 68.000000"
 preserveAspectRatio="xMidYMid meet">
<metadata>
Created by potrace 1.16, written by Peter Selinger 2001-2019
Combined from part_0.svg through part_5.svg with named groups
</metadata>
<g transform="translate(0.000000,68.000000) scale(0.100000,-0.100000)" fill="#000000" stroke="none">
<g id="part-0" class="char-part">
  <path d="M605 554 c-33 -7 -90 -13 -127 -14 -38 0 -68 -2 -68 -5 0 -3 6 -16
14 -28 8 -12 17 -44 21 -72 10 -75 19 -85 56 -75 41 12 47 8 41 -30 -4 -28 -7
-30 -46 -31 -22 0 -59 -4 -81 -8 -35 -6 -37 -8 -17 -15 12 -4 47 -4 77 -1 36
5 55 4 55 -3 0 -13 -95 -96 -146 -128 -22 -13 -33 -24 -25 -24 21 0 106 46
141 77 18 15 35 27 38 25 4 -1 7 -44 7 -94 0 -80 2 -93 18 -96 15 -3 17 7 17
103 0 61 4 105 9 103 5 -1 38 -30 72 -62 54 -52 68 -60 109 -64 26 -2 56 0 65
6 15 8 12 11 -21 22 -45 14 -141 65 -162 87 -8 8 -25 21 -38 30 -37 24 -19 33
64 34 42 1 88 4 102 9 l25 7 -29 8 c-15 4 -66 5 -112 1 l-84 -6 0 31 0 32 48
-7 48 -6 29 75 c16 42 32 78 37 81 13 8 9 21 -9 29 -47 19 -73 20 -128 9z m65
-39 c0 -13 -5 -47 -11 -75 -11 -49 -12 -51 -42 -48 -24 2 -33 8 -35 25 -3 18
3 23 32 29 46 8 47 24 2 24 -32 0 -35 2 -33 28 2 33 13 42 55 42 27 0 32 -3
32 -25z m-130 -4 c21 -40 13 -52 -32 -49 -38 3 -43 6 -46 30 -2 19 2 28 15 31
37 10 53 6 63 -12z m6 -98 c1 -15 -6 -23 -23 -28 -31 -8 -43 1 -43 31 0 22 4
25 33 22 25 -2 32 -8 33 -25z"/>
  <path d="M295 550 c-3 -5 -40 -33 -82 -62 -57 -40 -70 -54 -55 -56 11 -2 37 4
57 12 21 9 39 16 41 16 2 0 4 -18 4 -39 0 -43 10 -39 -124 -57 -47 -7 -48 -7
-25 -20 20 -10 35 -10 82 1 39 9 57 10 57 3 0 -18 -49 -80 -104 -130 -28 -27
-46 -48 -40 -48 19 0 87 50 122 88 l33 37 -6 -115 c-6 -125 2 -161 29 -125 11
15 15 48 14 123 0 57 2 106 5 109 4 3 13 -2 22 -11 22 -21 47 -21 43 1 -2 9
-18 21 -36 25 -27 7 -32 13 -32 38 0 26 4 29 45 36 26 3 42 10 39 16 -4 6 -24
8 -46 5 l-39 -5 7 35 c5 25 3 38 -7 44 -10 6 -3 13 29 25 23 9 42 23 42 30 0
25 -62 45 -75 24z"/>
</g>
<g id="part-1" class="char-part">
  <path d="M279 534 c-13 -14 -46 -40 -73 -57 -72 -47 -32 -47 70 0 85 39 99 54
65 73 -28 15 -35 13 -62 -16z"/>
</g>
<g id="part-2" class="char-part">
  <path d="M265 474 c-6 -2 -9 -24 -7 -48 l4 -44 -59 -7 c-32 -4 -71 -10 -88
-15 l-30 -7 28 -12 c22 -9 41 -8 83 3 30 8 54 11 54 7 0 -16 -59 -88 -113
-138 -31 -29 -53 -53 -49 -53 21 0 114 64 142 97 l32 38 -7 -95 c-10 -122 -10
-140 5 -154 8 -8 15 -6 26 8 10 14 14 50 14 127 l0 108 29 -17 c16 -9 33 -14
37 -10 13 14 -5 36 -35 43 -26 5 -31 11 -31 36 0 26 3 29 33 30 17 0 41 4 52
9 19 7 18 8 -6 15 -15 3 -37 5 -50 3 -22 -3 -24 0 -21 31 4 39 -13 58 -43 45z"/>
</g>
<g id="part-3" class="char-part">
  <path d="M635 559 c-16 -5 -74 -12 -127 -15 -96 -7 -107 -11 -89 -30 6 -5 17
-42 25 -83 9 -41 17 -75 19 -77 2 -2 21 1 43 7 21 6 69 9 106 7 l67 -5 22 61
c12 33 28 71 36 84 13 21 13 25 -4 38 -10 7 -23 14 -30 14 -6 0 -17 2 -25 4
-7 2 -26 0 -43 -5z m35 -54 c0 -35 0 -35 -44 -35 -41 0 -44 2 -39 23 10 44 13
47 48 47 33 0 35 -2 35 -35z m-130 -1 c13 -34 6 -44 -34 -44 -26 0 -35 5 -40
23 -9 33 -8 35 17 40 43 8 48 7 57 -19z m120 -61 c0 -5 -3 -18 -6 -31 -5 -19
-12 -23 -38 -20 -23 2 -32 9 -34 25 -2 14 3 23 15 26 30 8 63 7 63 0z m-120
-27 c0 -16 -7 -27 -20 -31 -27 -9 -40 1 -40 31 0 20 5 24 30 24 25 0 30 -4 30
-24z"/>
</g>
<g id="part-4" class="char-part">
  <path d="M548 363 c0 -5 -1 -19 -2 -33 -1 -24 -5 -25 -85 -34 -65 -6 -80 -11
-66 -18 10 -6 42 -7 77 -4 57 7 59 6 49 -12 -12 -22 -89 -88 -141 -122 l-35
-22 30 7 c35 8 86 38 132 78 18 16 34 25 35 21 1 -5 2 -49 2 -99 1 -77 3 -90
19 -93 15 -3 17 7 17 102 0 58 4 106 8 106 4 0 24 -16 43 -36 65 -69 108 -94
160 -94 54 0 74 16 32 26 -65 15 -233 123 -233 149 0 3 37 5 83 6 45 1 93 4
107 8 l25 7 -24 8 c-13 5 -64 5 -113 1 l-88 -7 0 31 c0 21 -5 31 -15 31 -8 0
-16 -3 -17 -7z"/>
</g>
</g>
</svg>