<?xml version="1.0" standalone="no"?>
<!DOCTYPE svg PUBLIC "-//W3C//DTD SVG 20010904//EN"
 "http://www.w3.org/TR/2001/REC-SVG-20010904/DTD/svg10.dtd">
<svg version="1.0" xmlns="http://www.w3.org/2000/svg"
 width="96.000000pt" height="68.000000pt" viewBox="0 0 96.000000 68.000000"
 preserveAspectRatio="xMidYMid meet">
<metadata>
Created by potrace 1.16, written by Peter Selinger 2001-2019
Combined from part_0.svg through part_5.svg with named groups
</metadata>
<g transform="translate(0.000000,68.000000) scale(0.100000,-0.100000)" fill="#000000" stroke="none">
<g id="part-0" class="char-part">
  <path d="M485 585 c-33 -8 -89 -16 -125 -19 -67 -4 -90 -21 -46 -32 23 -6 172
10 221 23 17 4 15 0 -9 -26 -26 -27 -35 -30 -63 -25 -37 7 -40 3 -17 -21 9 -9
14 -19 10 -22 -3 -3 -54 -9 -113 -12 -64 -4 -107 -10 -105 -16 3 -12 63 -13
147 -2 l60 7 -25 -20 c-14 -11 -62 -39 -107 -61 -46 -23 -83 -43 -83 -45 0 -5
78 16 112 30 20 9 60 29 88 46 l51 30 -3 -42 c-2 -35 -7 -43 -27 -48 l-24 -5
33 -28 c42 -36 53 -26 58 56 3 50 1 67 -13 80 -9 9 -13 17 -8 18 4 0 41 2 81
5 71 5 86 -2 57 -26 -28 -23 -4 -30 35 -10 22 11 46 20 55 20 23 0 18 25 -9
40 -24 12 -144 8 -182 -7 -8 -3 -14 -1 -14 5 0 5 32 23 70 41 39 17 70 35 70
39 0 12 -68 42 -93 41 -12 -1 -49 -7 -82 -14z"/>
  <path d="M598 295 l4 -35 -43 -2 c-24 0 -55 0 -69 1 -23 2 -23 1 -8 -16 8 -10
22 -35 29 -56 13 -37 14 -38 52 -32 l38 7 -3 -44 -3 -43 -55 -3 c-73 -4 -76
-5 -55 -26 21 -21 41 -19 167 15 l87 23 21 -27 c26 -33 50 -35 50 -4 0 27 -33
61 -74 77 -31 12 -49 5 -26 -11 13 -8 13 -10 0 -19 -8 -5 -28 -10 -43 -10 -26
0 -28 2 -25 37 2 25 8 38 18 39 8 1 32 2 53 2 27 2 37 6 37 19 0 9 10 27 22
40 32 34 12 49 -62 46 -57 -2 -59 -2 -62 25 -2 20 -9 28 -29 30 -23 3 -25 1
-21 -33z m112 -63 c0 -25 -20 -42 -48 -42 -18 0 -23 4 -18 16 3 9 6 22 6 30 0
9 11 14 30 14 22 0 30 -5 30 -18z m-110 -22 c0 -26 -3 -30 -29 -30 -28 0 -41
14 -41 46 0 9 11 14 35 14 32 0 35 -2 35 -30z"/>
  <path d="M289 303 c-1 -4 0 -23 1 -41 1 -18 -2 -32 -7 -31 -4 1 -35 1 -67 0
-54 -1 -58 -2 -41 -15 11 -8 24 -29 31 -47 10 -31 14 -34 48 -31 35 3 36 3 36
-31 0 -39 -14 -47 -91 -47 -54 0 -64 -7 -42 -28 13 -13 22 -14 62 -3 57 16 62
17 134 33 53 11 60 11 68 -5 14 -25 29 -21 29 7 0 14 -10 32 -22 40 -28 20
-49 21 -42 1 4 -9 0 -15 -9 -15 -9 0 -23 -3 -32 -6 -14 -6 -16 -1 -13 27 3 30
7 34 41 40 20 3 39 8 40 10 38 49 44 65 30 77 -8 8 -31 12 -55 10 -38 -2 -43
0 -48 22 -3 14 -10 25 -15 25 -6 0 -16 4 -22 8 -7 5 -13 5 -14 0z m101 -103
c0 -27 -3 -30 -30 -30 -25 0 -30 4 -30 24 0 25 11 34 43 35 12 1 17 -7 17 -29z
m-100 -10 c0 -26 -4 -30 -29 -30 -23 0 -30 5 -33 25 -6 30 -7 30 31 32 28 2
31 -1 31 -27z"/>
</g>
<g id="part-1" class="char-part">
  <path d="M475 578 c-49 -9 -109 -17 -132 -18 -24 0 -43 -4 -43 -9 0 -18 48
-20 135 -6 133 22 135 22 95 -20 -19 -19 -29 -35 -23 -35 6 0 43 15 84 33 71
33 73 34 50 47 -47 24 -77 26 -166 8z"/>
</g>
<g id="part-2" class="char-part">
  <path d="M416 419 c-14 -11 -66 -41 -114 -66 -81 -42 -80 -46 8 -23 44 12 162
81 168 98 6 19 -33 14 -62 -9z"/>
</g>
<g id="part-3" class="char-part">
  <path d="M286 274 c9 -34 -7 -44 -75 -44 -46 0 -52 -2 -38 -12 9 -7 23 -30 32
-50 14 -35 17 -36 50 -31 34 5 35 5 35 -26 0 -24 4 -31 19 -31 15 0 21 8 23
33 3 30 6 32 46 35 23 2 42 8 42 14 0 5 9 23 20 38 l21 29 -21 11 c-12 6 -38
10 -58 8 -34 -3 -37 -1 -40 25 -3 23 -8 27 -33 27 -27 0 -29 -2 -23 -26z m99
-75 c0 -19 -6 -25 -27 -27 -22 -3 -28 1 -28 17 0 20 27 43 45 37 6 -1 10 -14
10 -27z m-95 -9 c0 -25 -4 -30 -25 -30 -35 0 -52 42 -21 52 39 12 46 9 46 -22z"/>
</g>
<g id="part-4" class="char-part">
  <path d="M386 108 c19 -33 49 -68 56 -68 18 0 7 50 -14 64 -27 19 -52 21 -42
4z"/>
</g>
<g id="part-5" class="char-part">
  <path d="M727 117 c24 -42 68 -86 76 -78 13 13 -1 49 -24 56 -10 4 -19 10 -19
15 0 4 -9 10 -20 13 -13 3 -18 1 -13 -6z"/>
</g>
</g>
</svg>