<?xml version="1.0" standalone="no"?>
<!DOCTYPE svg PUBLIC "-//W3C//DTD SVG 20010904//EN"
 "http://www.w3.org/TR/2001/REC-SVG-20010904/DTD/svg10.dtd">
<svg version="1.0" xmlns="http://www.w3.org/2000/svg"
 width="96.000000pt" height="68.000000pt" viewBox="0 0 96.000000 68.000000"
 preserveAspectRatio="xMidYMid meet">
<metadata>
Created by potrace 1.16, written by Peter Selinger 2001-2019
Combined from part_0.svg through part_5.svg with named groups
</metadata>
<g transform="translate(0.000000,68.000000) scale(0.100000,-0.100000)" fill="#000000" stroke="none">
<g id="part-0" class="char-part">
  <path d="M277 533 c4 -50 -9 -169 -21 -180 -2 -2 -33 -6 -70 -10 -72 -6 -87
-24 -36 -42 22 -7 38 -7 55 1 31 14 38 8 26 -24 -12 -32 -5 -43 47 -63 l43
-18 -23 -24 c-13 -14 -48 -39 -78 -56 -39 -22 -50 -33 -37 -35 26 -5 94 24
139 59 l38 31 29 -21 c38 -27 71 -28 71 -1 0 13 -13 29 -35 41 -24 15 -33 25
-26 33 5 6 21 46 36 89 31 86 27 103 -25 109 -20 2 -24 -1 -22 -18 2 -18 -5
-23 -40 -32 -23 -6 -43 -10 -44 -9 -1 1 9 36 22 77 31 98 31 124 -1 138 -48
22 -54 17 -48 -45z m108 -215 c-4 -18 -15 -46 -23 -61 -14 -23 -21 -27 -47
-21 -43 9 -49 18 -35 58 11 34 34 46 103 55 5 1 5 -14 2 -31z"/>
  <path d="M615 564 c-44 -7 -89 -11 -99 -8 -15 5 -18 3 -11 -12 4 -11 12 -39
19 -64 6 -25 16 -45 21 -45 6 0 58 4 118 9 102 8 107 9 107 30 0 13 9 31 20
41 25 23 25 41 1 55 -25 13 -76 11 -176 -6z m112 -12 c9 -6 10 -17 3 -44 l-10
-36 -76 -7 c-83 -8 -94 -2 -94 43 0 27 7 30 91 41 35 5 66 9 69 10 3 0 11 -3
17 -7z"/>
  <path d="M695 394 c-27 -8 -79 -14 -115 -15 l-65 -1 0 -81 c0 -52 -7 -105 -19
-144 -15 -51 -17 -65 -6 -78 7 -8 16 -15 20 -15 10 0 40 75 40 99 0 16 11 19
83 25 45 4 90 9 100 12 16 5 18 0 15 -43 l-3 -48 -35 3 -35 3 35 -36 c69 -71
89 -43 90 128 0 73 5 137 11 149 23 42 -37 64 -116 42z m55 -54 c0 -26 -3 -28
-52 -34 -29 -4 -72 -9 -95 -12 -43 -6 -43 -6 -43 24 0 27 4 32 33 37 147 26
157 25 157 -15z m0 -90 c0 -29 -2 -30 -47 -31 -27 0 -69 -4 -95 -8 l-48 -8 0
33 0 33 63 4 c34 2 77 4 95 5 29 2 32 0 32 -28z"/>
</g>
<g id="part-1" class="char-part">
  <path d="M284 555 c4 -20 2 -72 -5 -116 -13 -91 -21 -99 -98 -99 -55 0 -66
-14 -27 -31 18 -9 33 -8 57 0 38 13 44 10 30 -17 -19 -36 -12 -51 34 -71 25
-11 45 -24 45 -29 0 -13 -40 -46 -93 -77 -26 -15 -46 -29 -44 -31 9 -10 82 21
124 53 l47 36 41 -23 c23 -13 47 -20 54 -16 21 13 11 36 -24 53 -35 17 -43 31
-26 48 5 6 20 44 35 85 23 69 24 76 9 88 -27 19 -56 16 -50 -7 4 -15 -4 -21
-39 -31 -25 -7 -47 -10 -50 -7 -3 3 7 44 21 92 15 47 24 92 22 99 -3 8 -20 18
-37 25 l-32 11 6 -35z m107 -232 c-5 -16 -17 -45 -27 -66 -19 -39 -20 -39 -82
-16 -18 7 -22 14 -17 32 18 57 37 70 112 76 19 1 21 -2 14 -26z"/>
</g>
<g id="part-2" class="char-part">
  <path d="M675 574 c-38 -7 -96 -15 -127 -16 -59 -2 -66 -6 -48 -24 6 -6 16
-30 23 -55 7 -24 17 -44 22 -44 128 6 226 19 221 30 -2 7 9 28 24 46 16 19 29
38 30 42 0 7 -65 39 -72 36 -2 -1 -34 -8 -73 -15z m55 -53 c0 -40 -14 -48 -97
-56 -72 -7 -72 -7 -79 19 -11 45 0 54 73 61 37 4 73 8 78 9 18 6 25 -4 25 -33z"/>
</g>
<g id="part-3" class="char-part">
  <path d="M695 394 c-27 -8 -79 -15 -115 -15 l-65 -1 0 -82 c0 -52 -7 -100 -18
-135 -19 -57 -16 -101 7 -101 15 0 46 68 46 99 0 16 11 19 83 25 45 4 90 9
100 12 16 5 18 0 15 -43 l-3 -48 -35 3 -35 3 35 -36 c69 -71 89 -41 92 140 2
72 7 138 12 148 7 14 1 20 -28 32 -19 8 -37 15 -38 14 -2 0 -25 -7 -53 -15z
m39 -20 c9 -4 16 -18 16 -34 0 -27 -1 -28 -86 -38 -94 -13 -104 -11 -104 18 0
25 8 29 88 45 37 7 68 14 69 14 1 1 8 -2 17 -5z m16 -123 c0 -28 0 -28 -80
-35 -44 -3 -86 -9 -95 -12 -12 -5 -15 2 -15 29 l0 36 58 4 c141 9 132 10 132
-22z"/>
</g>
</g>
</svg>