<?xml version="1.0" standalone="no"?>
<!DOCTYPE svg PUBLIC "-//W3C//DTD SVG 20010904//EN"
 "http://www.w3.org/TR/2001/REC-SVG-20010904/DTD/svg10.dtd">
<svg version="1.0" xmlns="http://www.w3.org/2000/svg"
 width="96.000000pt" height="68.000000pt" viewBox="0 0 96.000000 68.000000"
 preserveAspectRatio="xMidYMid meet">
<metadata>
Created by potrace 1.16, written by Peter Selinger 2001-2019
Combined from part_0.svg through part_5.svg with named groups
</metadata>
<g transform="translate(0.000000,68.000000) scale(0.100000,-0.100000)" fill="#000000" stroke="none">
<g id="part-0" class="char-part">
  <path d="M580 604 c0 -54 -15 -74 -55 -74 -18 0 -36 -4 -39 -9 -7 -11 17 -21
50 -21 27 0 27 0 14 -34 -15 -40 16 -34 41 8 22 38 41 46 116 46 28 0 54 4 58
9 11 19 -37 33 -86 27 -46 -6 -65 3 -39 19 19 12 10 42 -15 53 -39 18 -45 15
-45 -24z"/>
  <path d="M290 587 c0 -7 7 -23 16 -35 9 -13 14 -25 12 -28 -3 -2 -33 -5 -68
-7 -69 -3 -88 -19 -45 -39 20 -9 37 -9 76 1 28 7 51 12 52 10 29 -55 53 -61
50 -14 -2 27 2 32 30 40 44 14 40 31 -5 27 -32 -3 -38 0 -38 15 0 11 -5 24
-12 31 -16 16 -68 15 -68 -1z"/>
  <path d="M436 426 l6 -34 -46 -7 c-26 -4 -65 -5 -87 -1 -45 7 -43 17 -14 -96
l12 -48 -83 0 c-45 0 -85 -4 -88 -9 -12 -19 52 -30 121 -21 178 22 181 22 141
-35 -25 -38 -72 -71 -142 -103 l-51 -23 45 7 c91 13 178 72 206 140 l14 34
118 1 c64 1 124 3 132 4 8 1 34 3 58 4 23 0 42 5 42 11 0 16 -68 29 -126 23
-56 -6 -56 -6 -49 18 4 13 16 39 26 57 10 18 19 35 19 36 0 2 -13 9 -30 16
-20 8 -51 10 -95 5 -62 -6 -65 -5 -65 14 0 14 -9 25 -26 31 -40 16 -45 13 -38
-24z m169 -82 c-14 -78 -20 -84 -76 -84 l-52 0 7 52 c4 28 9 55 12 60 3 4 30
8 61 8 l55 0 -7 -36z m-167 -31 l-3 -58 -44 -3 c-52 -4 -61 6 -61 65 0 46 6
51 68 52 l43 1 -3 -57z"/>
  <path d="M540 181 c0 -5 15 -20 33 -34 17 -14 41 -33 52 -44 38 -35 85 -64 95
-58 17 10 11 51 -9 69 -15 14 -152 76 -167 76 -2 0 -4 -4 -4 -9z"/>
</g>
<g id="part-1" class="char-part">
  <path d="M578 583 c-2 -39 -7 -48 -23 -51 -11 -1 -31 -5 -45 -8 l-25 -6 24 -9
c14 -6 31 -7 39 -4 12 4 14 -2 9 -32 l-6 -38 23 27 c13 15 26 32 28 39 2 7 39
17 84 24 70 10 76 13 53 22 -15 7 -42 8 -70 3 -24 -5 -46 -7 -48 -4 -2 2 4 15
13 28 14 23 14 26 0 40 -8 9 -24 16 -34 16 -15 0 -19 -9 -22 -47z"/>
  <path d="M290 594 c0 -3 8 -19 17 -35 9 -15 14 -31 11 -35 -4 -3 -34 -8 -67
-11 -64 -6 -75 -15 -41 -33 15 -8 33 -7 72 5 28 8 53 15 54 15 1 0 7 -13 13
-30 14 -43 35 -39 28 5 -5 33 -4 36 24 42 16 3 32 10 36 16 4 6 -7 7 -31 3
-34 -7 -37 -5 -42 23 -4 18 -14 31 -28 35 -27 7 -46 7 -46 0z"/>
</g>
<g id="part-2" class="char-part">
  <path d="M434 428 c8 -40 8 -40 40 -32 34 8 35 41 0 54 -41 16 -47 13 -40 -22z"/>
</g>
<g id="part-3" class="char-part">
  <path d="M500 397 c-36 -5 -102 -10 -147 -11 -46 0 -83 -2 -83 -3 0 -6 33
-129 36 -135 3 -4 11 -5 19 -2 10 4 12 19 8 58 -7 64 -12 61 161 72 l119 7 -6
-32 c-4 -17 -10 -44 -13 -61 -6 -26 -4 -30 15 -30 16 0 28 14 48 58 15 31 28
60 30 63 7 11 -48 29 -85 28 -20 -1 -66 -6 -102 -12z"/>
</g>
<g id="part-4" class="char-part">
  <path d="M438 313 l-3 -58 -65 -7 c-36 -4 -102 -7 -147 -8 -46 -1 -85 -6 -88
-10 -11 -17 55 -29 112 -20 32 4 84 11 116 14 52 6 57 4 57 -13 0 -27 -95
-109 -160 -138 l-55 -24 45 7 c93 13 181 73 210 144 12 28 16 30 74 31 33 1
81 2 106 3 25 1 76 3 115 4 63 2 68 3 54 18 -19 18 -44 19 -208 9 l-124 -8 7
56 c6 56 6 57 -18 57 -23 0 -25 -4 -28 -57z"/>
  <path d="M540 177 c8 -8 44 -40 80 -71 69 -59 110 -73 110 -36 0 41 -62 80
-180 115 -22 6 -23 5 -10 -8z"/>
</g>
</g>
</svg>