<?xml version="1.0" standalone="no"?>
<!DOCTYPE svg PUBLIC "-//W3C//DTD SVG 20010904//EN"
 "http://www.w3.org/TR/2001/REC-SVG-20010904/DTD/svg10.dtd">
<svg version="1.0" xmlns="http://www.w3.org/2000/svg"
 width="96.000000pt" height="68.000000pt" viewBox="0 0 96.000000 68.000000"
 preserveAspectRatio="xMidYMid meet">
<metadata>
Created by potrace 1.16, written by Peter Selinger 2001-2019
Combined from part_0.svg through part_5.svg with named groups
</metadata>
<g transform="translate(0.000000,68.000000) scale(0.100000,-0.100000)" fill="#000000" stroke="none">
<g id="part-0" class="char-part">
  <path d="M566 568 c-2 -7 -9 -40 -15 -73 -6 -33 -21 -84 -34 -112 -21 -51 -23
-53 -64 -53 -38 0 -41 2 -38 23 14 94 16 140 5 147 -8 5 -1 10 19 15 17 3 33
11 37 16 10 16 -39 26 -81 17 -22 -5 -82 -15 -133 -21 -124 -16 -115 -33 16
-30 l102 3 0 -89 0 -88 -145 -13 c-137 -13 -170 -21 -125 -33 18 -5 58 -1 196
18 l51 7 7 -32 c3 -18 6 -68 6 -112 l0 -80 -30 4 c-37 6 -38 -1 -2 -35 33 -32
56 -28 70 11 11 33 3 232 -9 232 -5 0 -9 5 -9 10 0 6 21 10 47 10 40 0 53 5
83 34 31 30 43 35 108 41 67 7 72 6 66 -11 -4 -11 -12 -25 -17 -32 -19 -24 -1
-22 51 6 29 15 50 32 49 37 -10 31 -97 45 -155 24 -58 -20 -63 -10 -32 56 35
71 37 91 11 105 -25 13 -31 13 -35 -2z"/>
  <path d="M265 450 c-11 -5 -36 -9 -56 -9 l-37 -1 17 -45 c15 -42 18 -45 44
-39 16 3 44 6 62 6 26 0 32 3 28 18 -3 10 1 28 7 40 19 35 -17 51 -65 30z m23
-42 c-4 -31 -54 -44 -69 -17 -14 27 -3 39 37 39 31 0 35 -3 32 -22z"/>
  <path d="M558 277 c-6 -76 -35 -134 -85 -176 -26 -22 -32 -31 -20 -31 22 0
104 74 123 112 15 30 34 37 34 14 0 -20 99 -126 129 -137 13 -6 45 -7 70 -3
l46 7 -70 32 c-68 31 -156 99 -175 135 -6 11 -6 30 0 51 8 28 7 36 -7 47 -32
23 -40 14 -45 -51z"/>
  <path d="M260 250 c-14 -4 -42 -8 -64 -9 -32 -1 -37 -4 -31 -18 4 -10 12 -30
17 -45 10 -29 19 -32 81 -22 22 4 37 12 37 21 0 7 8 25 17 39 14 22 14 27 2
35 -16 10 -25 10 -59 -1z m20 -40 c0 -20 -33 -40 -64 -40 -14 0 -28 45 -18 55
3 3 23 5 44 5 31 0 38 -3 38 -20z"/>
</g>
<g id="part-1" class="char-part">
  <path d="M399 545 c-3 -3 -55 -12 -114 -20 -60 -9 -111 -18 -113 -20 -14 -13
39 -16 130 -6 117 13 156 22 160 36 3 11 -54 20 -63 10z"/>
</g>
<g id="part-2" class="char-part">
  <path d="M240 248 c-19 -5 -47 -8 -62 -6 -32 5 -34 1 -13 -26 8 -11 15 -29 15
-41 0 -12 2 -24 5 -27 10 -9 126 15 122 26 -2 6 2 24 10 39 8 16 13 30 11 32
-10 10 -58 12 -88 3z m40 -38 c0 -13 -10 -24 -26 -30 -40 -16 -54 -12 -54 13
0 31 7 37 47 37 26 0 33 -4 33 -20z"/>
</g>
<g id="part-3" class="char-part">
  <path d="M567 573 c-3 -5 -8 -30 -12 -58 -4 -27 -19 -83 -35 -122 -15 -40 -26
-73 -24 -73 1 0 16 13 31 29 24 25 38 30 101 36 l73 7 -15 -36 c-8 -20 -13
-36 -10 -36 15 0 104 57 104 67 0 7 -18 18 -41 24 -32 10 -53 10 -101 0 -33
-7 -63 -10 -66 -7 -2 3 7 32 22 65 14 32 26 65 26 73 0 27 -41 51 -53 31z"/>
</g>
<g id="part-4" class="char-part">
  <path d="M558 277 c-6 -76 -35 -134 -85 -176 -26 -22 -32 -31 -20 -31 22 0 90
62 118 107 l22 36 21 -29 c11 -16 40 -50 64 -76 46 -50 91 -65 145 -50 27 7
24 9 -50 44 -52 24 -95 54 -127 87 -49 50 -49 51 -38 88 13 41 3 63 -28 63
-14 0 -18 -12 -22 -63z"/>
</g>
</g>
</svg>