<?xml version="1.0" standalone="no"?>
<!DOCTYPE svg PUBLIC "-//W3C//DTD SVG 20010904//EN"
 "http://www.w3.org/TR/2001/REC-SVG-20010904/DTD/svg10.dtd">
<svg version="1.0" xmlns="http://www.w3.org/2000/svg"
 width="96.000000pt" height="68.000000pt" viewBox="0 0 96.000000 68.000000"
 preserveAspectRatio="xMidYMid meet">
<metadata>
Created by potrace 1.16, written by Peter Selinger 2001-2019
Combined from part_0.svg through part_5.svg with named groups
</metadata>
<g transform="translate(0.000000,68.000000) scale(0.100000,-0.100000)" fill="#000000" stroke="none">
<g id="part-0" class="char-part">
  <path d="M524 585 c-24 -38 -33 -45 -60 -45 -24 0 -34 5 -39 20 -8 24 -58 52
-87 48 -19 -3 -19 -4 5 -39 l25 -37 -37 -6 c-20 -3 -58 -6 -86 -6 -27 0 -57
-4 -65 -10 -23 -14 14 -25 82 -24 52 1 56 -1 48 -16 -5 -10 -23 -29 -40 -43
-35 -30 -41 -63 -10 -53 11 3 29 9 40 12 34 11 22 -11 -20 -35 -75 -42 -39
-64 53 -32 61 21 62 21 19 18 -45 -3 -52 11 -14 28 12 5 22 13 22 17 0 5 6 8
13 8 6 0 23 9 37 20 24 18 24 20 8 36 -16 17 -18 16 -38 -9 -20 -25 -83 -47
-97 -33 -3 3 7 16 23 28 16 13 37 32 48 42 14 14 42 21 109 27 50 5 93 7 95 4
3 -2 -14 -23 -37 -46 -22 -23 -41 -45 -41 -50 0 -12 47 -11 70 1 10 6 21 6 24
2 2 -4 -15 -18 -40 -31 -47 -25 -49 -28 -35 -50 8 -12 20 -10 80 9 l72 23 23
-22 c12 -11 28 -21 34 -21 22 0 12 38 -14 59 -31 24 -56 28 -48 7 4 -11 -4
-17 -29 -21 -69 -13 -75 -2 -17 31 62 35 85 58 75 74 -8 13 -35 13 -35 0 0
-15 -42 -37 -85 -44 l-40 -6 50 45 c48 43 53 45 113 45 46 0 62 4 62 14 0 20
-23 26 -108 26 l-77 0 39 26 c37 25 38 28 21 40 -35 26 -60 17 -91 -31z"/>
  <path d="M400 363 c0 -22 18 -43 38 -43 20 0 10 30 -15 48 -21 13 -23 13 -23
-5z"/>
  <path d="M410 280 c-120 -22 -97 -39 27 -20 46 7 87 9 90 6 9 -9 -28 -35 -59
-42 -23 -5 -27 -10 -22 -30 6 -23 4 -24 -47 -25 -127 -3 -249 -15 -249 -24 0
-12 91 -13 213 -2 l87 7 0 -45 c0 -50 -15 -64 -49 -45 -28 15 -26 8 8 -29 52
-56 81 -33 81 63 l0 56 93 2 c50 1 103 3 117 4 14 1 46 3 73 3 26 1 47 5 47
11 0 21 -77 30 -171 20 -131 -14 -159 -13 -159 4 0 18 8 23 73 46 60 21 67 32
32 48 -33 15 -66 13 -185 -8z"/>
</g>
<g id="part-1" class="char-part">
  <path d="M545 610 c-14 -43 -55 -80 -91 -80 -26 0 -34 4 -34 18 0 24 -27 48
-62 57 -35 9 -36 -4 -3 -43 14 -17 25 -33 25 -36 0 -3 -26 -6 -57 -7 -32 0
-78 -4 -103 -8 -44 -7 -44 -8 -16 -16 16 -4 67 -5 115 -1 47 4 160 11 250 16
90 5 166 12 169 15 14 14 -60 26 -125 21 -40 -4 -73 -5 -73 -3 0 3 19 17 42
32 39 26 40 28 23 41 -27 20 -53 17 -60 -6z"/>
</g>
<g id="part-2" class="char-part">
  <path d="M277 438 c-58 -61 -52 -76 22 -52 60 19 66 27 14 19 l-38 -6 43 39
c46 44 51 52 25 51 -10 0 -40 -23 -66 -51z"/>
</g>
<g id="part-3" class="char-part">
  <path d="M605 438 c-22 -22 -57 -50 -77 -61 -38 -22 -49 -44 -25 -52 6 -3 43
4 81 15 70 20 70 20 91 0 27 -25 45 -26 45 -2 0 22 -26 47 -59 57 -20 6 -23 4
-18 -9 7 -18 -24 -29 -69 -24 -27 3 -24 6 39 43 43 25 67 45 65 55 -5 26 -32
18 -73 -22z"/>
</g>
<g id="part-4" class="char-part">
  <path d="M438 208 c30 -30 12 -36 -135 -44 -82 -4 -151 -8 -155 -8 -3 -1 -9
-4 -13 -8 -17 -16 56 -20 169 -9 67 6 127 11 134 11 7 0 12 -14 12 -37 0 -54
-10 -66 -44 -53 -15 5 -29 10 -30 10 -2 0 11 -16 30 -35 56 -59 76 -46 84 53
l5 63 90 3 c50 2 123 4 163 5 39 0 72 5 72 11 0 22 -73 29 -194 18 -120 -11
-123 -11 -144 10 -12 12 -30 22 -39 22 -13 0 -14 -3 -5 -12z"/>
</g>
</g>
</svg>