<?xml version="1.0" standalone="no"?>
<!DOCTYPE svg PUBLIC "-//W3C//DTD SVG 20010904//EN"
 "http://www.w3.org/TR/2001/REC-SVG-20010904/DTD/svg10.dtd">
<svg version="1.0" xmlns="http://www.w3.org/2000/svg"
 width="96.000000pt" height="68.000000pt" viewBox="0 0 96.000000 68.000000"
 preserveAspectRatio="xMidYMid meet">
<metadata>
Created by potrace 1.16, written by Peter Selinger 2001-2019
Combined from part_0.svg through part_5.svg with named groups
</metadata>
<g transform="translate(0.000000,68.000000) scale(0.100000,-0.100000)" fill="#000000" stroke="none">
<g id="part-0" class="char-part">
  <path d="M375 588 c-16 -12 -65 -37 -109 -55 l-81 -33 45 0 c39 0 49 -5 72
-33 l26 -34 -81 -39 c-97 -46 -92 -43 -85 -49 3 -4 33 3 67 15 66 22 91 25 91
11 0 -13 -76 -74 -118 -95 -19 -10 -31 -20 -29 -23 7 -7 109 40 148 67 26 19
30 20 35 5 14 -35 -40 -88 -150 -147 -28 -15 -46 -27 -39 -28 19 0 117 45 159
74 20 14 41 23 45 20 11 -7 -1 -75 -18 -103 -13 -20 -21 -23 -56 -18 l-40 6
37 -37 c35 -36 37 -36 64 -22 37 21 62 75 62 136 0 77 -16 116 -69 169 l-24
23 92 46 c50 26 91 49 91 52 0 6 -65 34 -79 34 -5 0 -11 -8 -13 -18 -7 -26
-68 -69 -68 -48 0 8 -9 21 -21 30 -20 14 -19 15 26 35 26 12 50 21 54 21 4 0
17 7 29 16 18 13 21 19 11 30 -16 20 -42 17 -74 -8z"/>
  <path d="M561 549 c-6 -28 -8 -55 -5 -61 4 -7 2 -8 -4 -4 -7 4 -12 3 -12 -3 0
-5 -20 -40 -45 -77 -25 -37 -43 -70 -39 -73 3 -3 25 14 47 39 38 41 49 47 108
58 91 17 117 15 123 -6 3 -10 7 -61 7 -114 1 -81 -2 -104 -21 -143 l-23 -47
-51 7 -51 6 25 -27 c14 -16 30 -34 37 -41 15 -17 29 -16 63 3 50 30 63 66 71
208 4 72 10 139 14 148 5 12 -2 21 -26 34 -31 15 -37 15 -109 -1 -112 -26
-117 -22 -75 49 34 55 35 59 19 77 -28 31 -42 22 -53 -32z"/>
  <path d="M196 435 c30 -39 54 -46 54 -14 0 26 -27 48 -58 49 l-23 0 27 -35z"/>
  <path d="M500 302 c0 -17 59 -74 72 -70 18 6 21 43 5 56 -19 16 -77 27 -77 14z"/>
</g>
<g id="part-1" class="char-part">
  <path d="M364 579 c-22 -17 -69 -41 -105 -55 -59 -22 -61 -24 -25 -21 34 3 44
-1 67 -27 20 -23 31 -28 39 -20 14 14 -12 44 -38 44 -26 0 -2 14 76 45 39 15
72 31 72 35 0 10 -23 30 -34 29 -6 0 -29 -14 -52 -30z"/>
  <path d="M420 506 c0 -18 -87 -76 -181 -121 -41 -19 -67 -35 -59 -35 27 1 134
45 230 94 87 44 93 49 75 62 -25 18 -65 18 -65 0z"/>
  <path d="M186 458 c15 -27 38 -48 51 -48 19 0 16 24 -5 43 -22 20 -57 23 -46
5z"/>
</g>
<g id="part-2" class="char-part">
  <path d="M310 249 c-25 -22 -72 -53 -104 -69 -77 -39 -45 -39 39 -1 86 39 125
68 125 92 0 27 -9 24 -60 -22z"/>
</g>
<g id="part-3" class="char-part">
  <path d="M564 563 c-7 -39 -42 -114 -89 -190 -34 -55 -19 -55 32 0 35 38 48
44 105 55 130 24 128 26 130 -125 1 -83 -2 -105 -21 -142 l-23 -43 -50 6 -50
7 33 -41 c18 -22 40 -40 50 -40 30 0 88 58 98 98 5 21 12 87 15 148 3 61 8
118 11 127 4 10 -3 22 -20 33 -26 17 -31 17 -115 0 -48 -10 -93 -17 -99 -15
-7 3 3 26 24 59 40 64 40 64 19 84 -26 26 -43 19 -50 -21z"/>
</g>
<g id="part-4" class="char-part">
  <path d="M520 270 c35 -44 63 -49 68 -12 3 18 -4 26 -32 37 -62 26 -71 20 -36
-25z"/>
</g>
</g>
</svg>