<?xml version="1.0" standalone="no"?>
<!DOCTYPE svg PUBLIC "-//W3C//DTD SVG 20010904//EN"
 "http://www.w3.org/TR/2001/REC-SVG-20010904/DTD/svg10.dtd">
<svg version="1.0" xmlns="http://www.w3.org/2000/svg"
 width="96.000000pt" height="68.000000pt" viewBox="0 0 96.000000 68.000000"
 preserveAspectRatio="xMidYMid meet">
<metadata>
Created by potrace 1.16, written by Peter Selinger 2001-2019
Combined from part_0.svg through part_5.svg with named groups
</metadata>
<g transform="translate(0.000000,68.000000) scale(0.100000,-0.100000)" fill="#000000" stroke="none">
<g id="part-0" class="char-part">
  <path d="M445 584 c-33 -7 -95 -15 -137 -19 -57 -5 -75 -10 -72 -20 9 -23 50
-26 150 -10 53 9 99 14 101 11 10 -9 -79 -95 -93 -89 -18 7 -18 -2 1 -30 19
-29 29 -122 18 -172 -8 -36 -12 -40 -42 -43 l-33 -3 31 -30 c39 -37 57 -37 77
3 12 24 15 50 12 110 -3 43 -1 78 4 78 6 0 78 -58 98 -80 3 -3 31 -27 63 -53
54 -43 63 -47 110 -46 61 1 110 13 87 22 -8 2 -44 15 -80 27 -66 23 -168 79
-189 104 -9 11 -3 15 31 20 56 9 118 28 118 35 0 4 -14 15 -31 25 -31 18 -31
18 -67 -11 -67 -54 -78 -57 -115 -32 -17 13 -33 23 -33 23 -1 1 -5 11 -8 23
-7 20 2 27 78 65 89 44 108 69 64 83 -64 19 -88 20 -143 9z"/>
  <path d="M265 386 c-22 -8 -67 -17 -100 -21 -53 -7 -57 -9 -37 -18 17 -8 40
-7 81 1 67 14 81 15 81 5 -1 -13 -103 -121 -138 -147 -18 -13 -29 -26 -24 -29
13 -9 89 46 169 122 l73 70 -29 16 c-17 8 -31 15 -33 15 -2 -1 -21 -7 -43 -14z"/>
  <path d="M380 134 c-85 -7 -166 -13 -180 -14 l-25 -1 29 -15 c20 -11 43 -14
80 -10 28 3 119 8 201 11 83 3 161 8 175 11 l25 6 -25 13 c-29 17 -70 16 -280
-1z"/>
</g>
<g id="part-1" class="char-part">
  <path d="M420 574 c-36 -7 -91 -13 -123 -14 -42 0 -57 -3 -54 -12 4 -15 89
-17 185 -4 73 10 77 3 31 -49 -18 -20 -29 -38 -26 -41 5 -5 177 84 177 92 0 2
-15 13 -32 24 -37 23 -65 23 -158 4z"/>
</g>
<g id="part-2" class="char-part">
  <path d="M380 455 c0 -3 7 -16 15 -28 19 -30 29 -122 18 -172 -9 -38 -11 -40
-46 -40 l-36 0 31 -33 c40 -40 63 -41 84 0 12 24 15 50 12 110 -3 43 -1 78 3
78 5 0 54 -40 111 -90 l103 -90 55 1 c30 1 66 4 80 9 28 8 32 6 -80 46 -41 15
-102 45 -135 67 l-60 41 83 19 c45 10 82 23 82 27 0 5 -14 17 -30 25 -30 15
-32 15 -86 -24 l-56 -40 -39 22 c-21 12 -39 29 -39 38 0 22 -20 39 -47 39 -13
0 -23 -2 -23 -5z"/>
  <path d="M250 385 c-25 -7 -66 -16 -93 -20 -26 -3 -45 -10 -42 -16 8 -13 66
-11 120 3 24 7 47 9 51 6 9 -10 -98 -129 -145 -161 -14 -9 -22 -19 -18 -23 12
-12 99 48 173 119 59 57 72 73 62 83 -21 20 -60 23 -108 9z"/>
</g>
<g id="part-3" class="char-part">
  <path d="M362 134 c-90 -7 -169 -15 -175 -17 -7 -3 2 -10 18 -17 23 -9 51 -9
122 -1 50 6 148 11 217 11 123 0 149 7 107 30 -24 12 -79 11 -289 -6z"/>
</g>
</g>
</svg>