<?xml version="1.0" standalone="no"?>
<!DOCTYPE svg PUBLIC "-//W3C//DTD SVG 20010904//EN"
 "http://www.w3.org/TR/2001/REC-SVG-20010904/DTD/svg10.dtd">
<svg version="1.0" xmlns="http://www.w3.org/2000/svg"
 width="96.000000pt" height="68.000000pt" viewBox="0 0 96.000000 68.000000"
 preserveAspectRatio="xMidYMid meet">
<metadata>
Created by potrace 1.16, written by Peter Selinger 2001-2019
Combined from part_0.svg through part_5.svg with named groups
</metadata>
<g transform="translate(0.000000,68.000000) scale(0.100000,-0.100000)" fill="#000000" stroke="none">
<g id="part-0" class="char-part">
  <path d="M556 618 c-3 -7 -7 -26 -10 -43 -4 -16 -14 -47 -24 -67 -15 -33 -21
-37 -67 -43 -95 -12 -110 -16 -91 -27 11 -6 34 -6 64 1 26 5 50 7 54 3 13 -13
-172 -242 -195 -242 -6 0 -7 39 -2 104 5 71 3 106 -4 110 -7 5 8 35 39 81 28
41 50 78 50 83 0 14 -35 42 -53 42 -10 0 -17 -8 -17 -19 0 -52 -62 -153 -154
-248 -33 -35 -57 -63 -53 -63 19 0 86 41 116 72 l33 33 -6 -113 c-4 -63 -11
-124 -16 -136 -9 -24 12 -86 29 -86 18 0 31 37 31 84 0 32 4 46 13 46 8 0 32
13 53 28 36 26 50 29 194 41 85 7 171 15 191 18 47 7 54 -11 33 -90 -21 -82
-38 -100 -84 -92 l-35 7 24 -26 c14 -14 20 -26 15 -26 -5 0 -1 -5 8 -10 42
-25 97 33 118 124 6 26 17 64 25 83 22 52 2 65 -87 59 -38 -3 -68 -1 -68 3 0
4 9 16 20 26 19 17 19 20 4 36 -9 10 -27 19 -40 21 l-24 3 25 27 c14 15 25 31
25 36 0 17 -49 34 -84 30 -30 -3 -36 -1 -36 14 0 10 4 18 8 18 5 0 17 18 27
40 15 32 15 42 5 55 -15 18 -49 20 -54 3z m50 -195 c-13 -39 -33 -50 -88 -52
l-28 -1 28 45 c24 40 31 45 64 45 l37 0 -13 -37z m44 -73 c0 -5 -5 -20 -11
-33 -10 -22 -19 -25 -93 -31 -44 -4 -91 -10 -103 -13 -30 -7 -29 11 2 44 17
19 39 29 72 34 75 10 133 10 133 -1z"/>
  <path d="M429 548 c20 -34 61 -51 61 -26 0 19 -12 33 -37 47 -38 20 -46 13
-24 -21z"/>
  <path d="M640 224 c0 -15 43 -64 56 -64 20 0 17 34 -4 53 -18 16 -52 23 -52
11z"/>
  <path d="M560 194 c0 -24 19 -54 35 -54 20 0 19 34 -1 54 -20 20 -34 20 -34 0z"/>
  <path d="M381 172 c-22 -32 -27 -57 -12 -67 23 -14 59 53 43 81 -8 14 -12 12
-31 -14z"/>
  <path d="M470 185 c0 -14 32 -65 40 -65 14 0 12 44 -2 58 -12 12 -38 17 -38 7z"/>
</g>
<g id="part-1" class="char-part">
  <path d="M305 598 c-2 -7 -9 -30 -15 -50 -12 -39 -89 -149 -148 -210 -20 -21
-32 -38 -28 -38 11 0 65 38 99 68 l27 26 0 -93 c0 -51 -5 -111 -11 -134 -12
-48 1 -97 25 -97 9 0 16 17 20 53 8 77 10 269 1 289 -4 11 10 41 45 93 49 72
51 77 33 90 -23 18 -42 19 -48 3z"/>
</g>
<g id="part-2" class="char-part">
  <path d="M410 572 c0 -18 57 -75 68 -68 18 11 14 34 -8 56 -20 20 -60 28 -60
12z"/>
</g>
<g id="part-3" class="char-part">
  <path d="M547 590 c-3 -21 -13 -56 -23 -77 -18 -35 -23 -39 -74 -46 -101 -15
-107 -17 -87 -29 12 -6 34 -6 68 1 27 6 52 11 55 11 3 0 -5 -17 -17 -37 -21
-36 -50 -72 -150 -187 l-42 -48 40 20 c48 25 152 136 196 209 26 44 36 53 60
53 19 0 27 4 24 13 -2 6 -10 11 -16 10 -18 -5 -13 14 18 64 28 44 29 49 14 65
-9 10 -26 18 -38 18 -18 0 -23 -7 -28 -40z"/>
</g>
<g id="part-4" class="char-part">
  <path d="M652 198 c30 -39 58 -48 58 -20 0 25 -31 52 -60 52 l-23 0 25 -32z"/>
  <path d="M567 178 c24 -41 43 -47 43 -14 0 15 -8 30 -19 36 -36 19 -44 12 -24
-22z"/>
  <path d="M381 172 c-24 -34 -28 -72 -7 -72 27 0 53 62 37 89 -6 10 -14 5 -30
-17z"/>
  <path d="M470 190 c0 -18 23 -59 36 -64 15 -6 20 31 6 50 -10 14 -42 25 -42
14z"/>
</g>
</g>
</svg>