<?xml version="1.0" standalone="no"?>
<!DOCTYPE svg PUBLIC "-//W3C//DTD SVG 20010904//EN"
 "http://www.w3.org/TR/2001/REC-SVG-20010904/DTD/svg10.dtd">
<svg version="1.0" xmlns="http://www.w3.org/2000/svg"
 width="96.000000pt" height="68.000000pt" viewBox="0 0 96.000000 68.000000"
 preserveAspectRatio="xMidYMid meet">
<metadata>
Created by potrace 1.16, written by Peter Selinger 2001-2019
Combined from part_0.svg through part_5.svg with named groups
</metadata>
<g transform="translate(0.000000,68.000000) scale(0.100000,-0.100000)" fill="#000000" stroke="none">
<g id="part-0" class="char-part">
  <path d="M530 582 c-5 -21 -23 -59 -40 -85 -16 -26 -26 -47 -21 -47 4 0 27 14
50 31 27 19 53 29 69 28 39 -3 151 12 157 21 3 4 -2 13 -10 20 -14 12 -33 11
-117 -6 -26 -5 -27 -4 -22 24 5 26 2 31 -25 40 -30 11 -31 10 -41 -26z"/>
  <path d="M280 575 c0 -26 -29 -74 -71 -120 l-39 -42 22 -19 c19 -16 20 -16 9
-1 -7 9 -9 17 -4 17 6 0 31 18 56 40 42 37 50 40 104 40 70 0 105 9 100 24 -4
12 -55 14 -105 3 l-32 -7 16 25 c13 20 14 28 4 40 -17 20 -60 20 -60 0z"/>
  <path d="M570 472 c0 -11 28 -36 59 -52 19 -10 26 -9 40 5 15 15 14 18 -8 36
-23 19 -91 27 -91 11z"/>
  <path d="M300 452 c0 -14 45 -52 63 -52 25 0 31 19 11 41 -17 19 -74 27 -74
11z"/>
  <path d="M430 422 c0 -4 7 -17 15 -29 22 -31 8 -35 -102 -32 -77 2 -98 0 -101
-11 -3 -8 -13 -27 -23 -42 -22 -31 -25 -58 -6 -58 17 0 39 26 55 63 10 24 17
27 62 27 45 0 50 -2 50 -22 0 -13 -21 -43 -56 -76 -40 -39 -49 -52 -32 -47 63
19 151 106 129 128 -19 19 -12 24 32 23 l42 -1 3 -53 c3 -50 5 -54 37 -68 35
-14 111 -19 139 -8 35 14 12 24 -53 24 -44 0 -73 4 -77 12 -5 7 -8 34 -9 60
l0 48 73 0 c39 0 72 -3 72 -8 0 -4 -7 -18 -16 -30 -14 -21 -14 -22 5 -22 31 0
111 23 111 32 0 4 -12 15 -27 25 -16 10 -31 21 -34 26 -3 4 -44 3 -90 -2 -122
-16 -139 -15 -139 9 0 10 -9 24 -19 30 -23 12 -41 13 -41 2z"/>
  <path d="M408 167 c-98 -11 -118 -27 -33 -27 49 0 55 -2 61 -24 3 -13 4 -35 2
-47 -3 -23 -7 -24 -113 -30 -150 -9 -143 -8 -121 -21 13 -7 67 -9 170 -4 83 3
204 7 269 7 64 1 120 5 123 10 12 21 -52 29 -169 23 l-120 -7 6 33 c4 18 7 41
7 51 0 16 8 19 43 19 53 0 88 10 81 21 -6 11 -89 9 -206 -4z"/>
</g>
<g id="part-1" class="char-part">
  <path d="M527 560 c-10 -27 -29 -63 -43 -80 -32 -38 -19 -39 26 -1 30 24 48
29 115 35 94 8 115 14 115 28 0 11 -100 5 -150 -9 l-25 -7 19 29 c18 27 18 29
0 42 -29 21 -38 16 -57 -37z"/>
  <path d="M273 543 c-12 -27 -38 -67 -58 -90 -45 -53 -32 -55 32 -5 43 34 57
39 123 46 79 7 89 11 73 27 -7 7 -24 7 -54 0 -24 -6 -53 -11 -63 -11 -18 0
-18 2 5 26 24 25 24 26 5 40 -31 22 -40 17 -63 -33z"/>
  <path d="M598 451 c34 -32 72 -41 72 -17 0 21 -24 36 -67 42 l-38 6 33 -31z"/>
  <path d="M311 441 c25 -39 69 -50 69 -17 0 14 -41 36 -66 36 -11 0 -12 -4 -3
-19z"/>
</g>
<g id="part-2" class="char-part">
  <path d="M434 405 c29 -44 23 -47 -85 -44 l-100 3 -29 -49 c-30 -52 -30 -65 0
-65 12 0 26 15 39 44 l21 43 103 7 c56 3 146 9 200 12 56 4 97 3 97 -2 0 -5
-7 -20 -16 -32 -9 -13 -14 -24 -13 -26 10 -7 129 27 129 37 0 7 -16 22 -35 35
-34 21 -40 22 -118 12 -120 -15 -137 -14 -137 10 0 20 -27 40 -55 40 -16 0
-16 -2 -1 -25z"/>
</g>
<g id="part-3" class="char-part">
  <path d="M500 296 c0 -34 5 -58 14 -65 18 -15 115 -26 150 -17 49 12 26 26
-43 26 -81 0 -94 10 -82 62 10 41 6 48 -21 48 -15 0 -18 -8 -18 -54z"/>
  <path d="M377 307 c-8 -18 -36 -52 -62 -75 -52 -46 -47 -53 16 -22 50 26 104
97 88 116 -18 21 -28 17 -42 -19z"/>
</g>
<g id="part-4" class="char-part">
  <path d="M423 167 c-57 -5 -103 -13 -103 -18 0 -4 26 -9 58 -11 l57 -3 3 -47
3 -48 -88 -1 c-48 -1 -92 -2 -98 -4 -5 -1 -26 -3 -45 -4 -31 -1 -33 -3 -16
-13 13 -7 64 -9 160 -4 78 3 203 6 279 7 77 1 137 5 137 10 0 22 -57 29 -173
23 l-120 -7 6 39 c4 21 7 45 7 52 0 7 13 12 34 12 49 0 96 11 90 21 -6 11 -51
10 -191 -4z"/>
</g>
</g>
</svg>