<?xml version="1.0" standalone="no"?>
<!DOCTYPE svg PUBLIC "-//W3C//DTD SVG 20010904//EN"
 "http://www.w3.org/TR/2001/REC-SVG-20010904/DTD/svg10.dtd">
<svg version="1.0" xmlns="http://www.w3.org/2000/svg"
 width="96.000000pt" height="68.000000pt" viewBox="0 0 96.000000 68.000000"
 preserveAspectRatio="xMidYMid meet">
<metadata>
Created by potrace 1.16, written by Peter Selinger 2001-2019
Combined from part_0.svg through part_5.svg with named groups
</metadata>
<g transform="translate(0.000000,68.000000) scale(0.100000,-0.100000)" fill="#000000" stroke="none">
<g id="part-0" class="char-part">
  <path d="M327 583 c-4 -3 -7 -14 -7 -23 0 -38 -66 -139 -138 -212 -51 -52 -71
-78 -59 -78 22 0 82 37 126 79 l34 31 -7 -112 c-3 -62 -9 -131 -12 -154 -7
-47 17 -84 41 -64 25 21 39 335 16 350 -15 9 -13 14 41 86 45 60 47 77 13 92
-30 14 -39 15 -48 5z"/>
  <path d="M652 510 c-12 -5 -64 -17 -114 -25 -51 -9 -96 -19 -101 -22 -14 -9
15 -23 47 -23 28 0 28 -1 24 -47 -6 -60 -48 -151 -105 -225 -54 -71 -38 -76
28 -9 76 76 156 253 130 285 -16 19 -5 24 63 32 51 6 56 5 56 -12 0 -11 -12
-41 -25 -69 -35 -70 -33 -79 13 -71 20 3 48 9 61 13 24 6 24 6 19 -58 -6 -68
-32 -131 -67 -163 -18 -16 -25 -17 -47 -7 -38 17 -41 7 -10 -34 32 -42 54 -44
91 -8 35 36 52 70 86 173 25 80 26 86 11 104 -14 15 -26 17 -75 11 l-58 -6 12
23 c7 13 27 45 46 72 20 30 30 53 25 58 -14 14 -84 19 -110 8z"/>
</g>
<g id="part-1" class="char-part">
  <path d="M330 577 c0 -38 -73 -159 -139 -229 -61 -65 -68 -76 -44 -67 16 5 52
30 80 54 48 42 52 44 58 25 8 -24 -1 -129 -16 -211 -12 -61 -2 -99 26 -99 20
0 23 21 29 191 5 123 4 149 -9 159 -13 11 -8 21 36 77 28 35 48 70 46 78 -8
18 -67 38 -67 22z"/>
</g>
<g id="part-2" class="char-part">
  <path d="M655 511 c-11 -5 -67 -17 -123 -27 -56 -9 -102 -21 -102 -25 0 -18
57 -18 127 1 91 24 123 25 123 6 0 -21 -36 -103 -49 -111 -8 -4 -8 -12 -1 -25
12 -23 50 -15 50 11 0 10 21 48 46 84 31 45 43 70 36 77 -13 13 -83 20 -107 9z"/>
</g>
<g id="part-3" class="char-part">
  <path d="M507 396 c-6 -63 -57 -169 -116 -244 -46 -58 -44 -65 6 -26 51 39
107 121 143 210 35 88 35 114 -3 114 -22 0 -25 -5 -30 -54z"/>
</g>
<g id="part-4" class="char-part">
  <path d="M713 353 c-18 -2 -33 -9 -33 -14 0 -6 15 -7 36 -3 l37 7 -5 -64 c-6
-69 -31 -134 -63 -161 -19 -17 -31 -18 -67 -3 -26 10 -22 -6 10 -45 27 -32 31
-33 58 -22 39 17 77 80 113 188 26 81 28 91 13 107 -15 16 -31 18 -99 10z"/>
</g>
</g>
</svg>