<?xml version="1.0" standalone="no"?>
<!DOCTYPE svg PUBLIC "-//W3C//DTD SVG 20010904//EN"
 "http://www.w3.org/TR/2001/REC-SVG-20010904/DTD/svg10.dtd">
<svg version="1.0" xmlns="http://www.w3.org/2000/svg"
 width="96.000000pt" height="68.000000pt" viewBox="0 0 96.000000 68.000000"
 preserveAspectRatio="xMidYMid meet">
<metadata>
Created by potrace 1.16, written by Peter Selinger 2001-2019
Combined from part_0.svg through part_5.svg with named groups
</metadata>
<g transform="translate(0.000000,68.000000) scale(0.100000,-0.100000)" fill="#000000" stroke="none">
<g id="part-0" class="char-part">
  <path d="M619 543 c0 -27 -6 -66 -13 -88 -11 -38 -14 -40 -56 -45 -54 -6 -51
-26 3 -23 44 2 44 1 -3 -104 -31 -68 -64 -117 -119 -176 -50 -53 -17 -47 47 9
64 56 90 95 126 192 35 90 48 104 95 100 l36 -3 0 -70 c-1 -77 -27 -180 -49
-188 -7 -3 -30 -2 -49 3 l-36 8 31 -39 c35 -43 52 -47 84 -21 32 27 49 69 64
152 7 41 19 95 27 118 20 62 3 75 -89 67 l-66 -6 9 38 c26 106 23 122 -23 123
-15 0 -18 -9 -19 -47z"/>
  <path d="M330 519 c-14 -6 -50 -8 -83 -4 l-59 6 6 -28 c3 -15 8 -92 12 -170
l7 -143 -47 0 c-55 0 -59 -14 -11 -37 27 -13 40 -14 57 -6 13 7 34 14 48 17
122 25 293 92 202 78 -29 -4 -29 -4 -26 45 2 26 6 80 8 118 3 39 8 79 11 91
11 36 -66 57 -125 33z m50 -69 c0 -37 -2 -40 -29 -40 -16 0 -43 -3 -60 -6 -31
-6 -31 -6 -31 34 0 44 6 48 83 51 37 1 37 1 37 -39z m0 -94 c0 -32 -2 -34 -43
-39 -24 -3 -51 -9 -60 -13 -14 -5 -17 0 -17 28 0 34 1 35 58 45 31 6 58 11 60
12 1 0 2 -14 2 -33z m0 -105 c0 -37 -2 -39 -37 -46 -21 -3 -48 -9 -60 -12 -21
-5 -23 -2 -23 40 0 46 0 46 38 50 86 9 82 11 82 -32z"/>
</g>
<g id="part-1" class="char-part">
  <path d="M326 514 c-33 -9 -62 -11 -87 -5 l-37 8 4 -136 c3 -75 7 -151 10
-169 7 -48 28 -34 32 20 l3 45 62 11 c34 5 65 8 70 5 4 -2 7 -20 7 -39 0 -26
4 -34 18 -34 17 0 20 15 29 143 6 78 8 145 4 149 -13 15 -67 16 -115 2z m60
-38 c13 -53 3 -67 -51 -71 -28 -2 -57 -5 -65 -7 -12 -2 -15 8 -15 42 l0 45 50
6 c28 3 56 7 62 7 7 1 15 -9 19 -22z m2 -123 c-3 -32 -6 -36 -33 -38 -16 -2
-47 -6 -67 -10 l-38 -8 0 35 c0 33 1 35 53 45 90 17 89 18 85 -24z"/>
</g>
<g id="part-2" class="char-part">
  <path d="M450 230 c-185 -39 -245 -50 -284 -50 -52 0 -58 -10 -20 -35 31 -20
9 -25 287 56 37 11 67 24 67 29 0 11 0 11 -50 0z"/>
</g>
<g id="part-3" class="char-part">
  <path d="M620 553 c-1 -52 -19 -126 -33 -135 -7 -4 -29 -8 -49 -8 -20 0 -39
-4 -43 -9 -8 -14 31 -23 64 -16 27 6 29 4 24 -17 -15 -60 -75 -170 -127 -231
-69 -82 -50 -91 31 -14 54 51 87 106 133 220 19 48 28 59 51 64 36 7 38 23 3
23 -19 0 -24 4 -20 18 18 60 27 114 22 127 -3 8 -17 15 -31 15 -22 0 -25 -4
-25 -37z"/>
</g>
<g id="part-4" class="char-part">
  <path d="M707 433 c-13 -12 -7 -23 13 -23 17 0 20 -7 20 -52 0 -72 -30 -197
-50 -208 -9 -5 -33 -5 -53 0 l-37 8 23 -28 c12 -16 32 -34 45 -41 20 -11 26
-9 52 16 34 32 43 57 64 171 8 44 20 93 27 108 11 23 10 28 -7 41 -19 15 -85
20 -97 8z"/>
</g>
</g>
</svg>