<?xml version="1.0" standalone="no"?>
<!DOCTYPE svg PUBLIC "-//W3C//DTD SVG 20010904//EN"
 "http://www.w3.org/TR/2001/REC-SVG-20010904/DTD/svg10.dtd">
<svg version="1.0" xmlns="http://www.w3.org/2000/svg"
 width="96.000000pt" height="68.000000pt" viewBox="0 0 96.000000 68.000000"
 preserveAspectRatio="xMidYMid meet">
<metadata>
Created by potrace 1.16, written by Peter Selinger 2001-2019
Combined from part_0.svg through part_5.svg with named groups
</metadata>
<g transform="translate(0.000000,68.000000) scale(0.100000,-0.100000)" fill="#000000" stroke="none">
<g id="part-0" class="char-part">
  <path d="M255 608 c3 -13 9 -57 12 -99 l5 -77 -61 -8 c-74 -11 -80 -28 -11
-32 28 -2 50 -8 50 -14 0 -18 -79 -120 -129 -165 -34 -32 -41 -43 -27 -43 28
0 81 36 126 87 l40 46 0 -40 c0 -22 -5 -64 -10 -94 -15 -79 12 -133 48 -97 8
8 12 53 12 137 l0 125 28 -27 c31 -30 57 -35 65 -13 8 19 -12 40 -50 56 -24 9
-33 19 -33 35 0 19 7 23 41 28 22 3 43 8 46 10 13 13 -12 27 -48 27 -36 0 -39
2 -39 28 1 15 5 47 10 72 8 40 6 47 -13 62 -12 10 -33 18 -46 18 -20 0 -22 -4
-16 -22z"/>
  <path d="M660 560 c-19 -5 -77 -14 -127 -21 -100 -13 -124 -29 -44 -29 l50 0
-11 -30 c-5 -17 -34 -52 -64 -77 -58 -50 -58 -51 -45 -71 7 -12 18 -11 65 4
65 21 76 15 76 -42 0 -35 -13 -44 -66 -44 -19 0 -34 -4 -34 -10 0 -5 23 -10
50 -10 l50 0 0 -45 0 -45 -47 -1 c-75 -1 -140 -13 -125 -23 18 -11 59 -11 181
3 57 6 143 11 192 11 49 0 89 4 89 9 0 18 -63 31 -105 21 -22 -5 -61 -10 -87
-10 l-48 0 0 44 0 45 58 6 c89 10 94 20 13 23 l-73 3 5 34 c3 19 1 37 -4 41
-19 11 3 23 57 30 49 6 58 4 79 -16 27 -25 45 -20 45 13 0 34 -63 77 -113 77
-21 0 -20 -2 7 -23 l29 -24 -59 -11 c-85 -16 -164 -25 -164 -19 0 3 20 27 45
54 27 29 44 56 43 67 -3 17 7 21 80 32 78 11 101 18 91 28 -10 11 -57 14 -89
6z"/>
</g>
<g id="part-1" class="char-part">
  <path d="M255 614 c5 -10 10 -56 13 -101 5 -92 14 -80 -83 -100 l-40 -8 58 -3
c36 -2 57 -7 57 -15 -1 -20 -64 -106 -120 -163 -29 -30 -50 -54 -45 -54 20 0
79 46 126 98 l51 57 -6 -60 c-18 -160 -18 -170 -3 -189 8 -10 19 -16 24 -13 6
4 14 65 18 137 l7 130 30 -25 c33 -28 53 -28 53 0 0 19 -13 29 -57 45 -20 7
-28 16 -28 34 0 21 6 25 46 31 56 8 54 31 -3 28 l-39 -1 8 76 c9 84 4 95 -46
108 -26 6 -28 5 -21 -12z"/>
</g>
<g id="part-2" class="char-part">
  <path d="M668 560 c-14 -4 -74 -13 -132 -20 -115 -14 -141 -30 -48 -30 62 1
251 25 260 34 15 16 -44 28 -80 16z"/>
</g>
<g id="part-3" class="char-part">
  <path d="M513 461 c-17 -27 -47 -60 -67 -73 -58 -37 -42 -82 20 -58 16 7 52
16 79 21 28 5 77 15 111 22 59 13 61 13 88 -10 31 -26 46 -23 46 12 0 26 -35
55 -89 74 -43 14 -51 7 -21 -21 22 -20 22 -22 4 -28 -27 -10 -184 -33 -189
-29 -2 3 16 26 41 52 45 47 54 79 23 85 -10 2 -27 -16 -46 -47z"/>
</g>
<g id="part-4" class="char-part">
  <path d="M564 354 c-7 -3 -10 -21 -7 -48 5 -39 3 -44 -18 -49 -13 -4 -36 -7
-51 -7 -16 0 -28 -4 -28 -10 0 -5 22 -10 49 -10 55 0 68 -15 55 -64 -5 -23
-11 -26 -53 -27 -25 0 -66 -4 -91 -8 l-45 -7 31 -11 c21 -7 47 -8 80 -2 66 13
118 17 252 18 61 0 112 5 112 10 0 18 -55 28 -110 20 -30 -4 -72 -8 -92 -8
l-38 -1 0 44 c0 42 1 44 38 50 20 3 52 6 70 6 17 0 32 5 32 10 0 6 -30 10 -71
10 l-72 0 7 40 c3 23 2 40 -3 40 -5 0 -15 2 -23 4 -7 3 -18 2 -24 0z"/>
</g>
</g>
</svg>