<?xml version="1.0" standalone="no"?>
<!DOCTYPE svg PUBLIC "-//W3C//DTD SVG 20010904//EN"
 "http://www.w3.org/TR/2001/REC-SVG-20010904/DTD/svg10.dtd">
<svg version="1.0" xmlns="http://www.w3.org/2000/svg"
 width="96.000000pt" height="68.000000pt" viewBox="0 0 96.000000 68.000000"
 preserveAspectRatio="xMidYMid meet">
<metadata>
Created by potrace 1.16, written by Peter Selinger 2001-2019
Combined from part_0.svg through part_5.svg with named groups
</metadata>
<g transform="translate(0.000000,68.000000) scale(0.100000,-0.100000)" fill="#000000" stroke="none">
<g id="part-0" class="char-part">
  <path d="M540 565 c0 -16 52 -85 64 -85 15 0 25 27 18 48 -6 20 -82 54 -82 37z"/>
  <path d="M316 553 c-4 -4 -37 -8 -74 -8 -54 -1 -66 -4 -63 -15 11 -40 12 -168
1 -244 -9 -63 -20 -97 -41 -131 -34 -54 -34 -54 -10 -52 11 0 17 5 15 9 -3 4
-1 8 5 8 12 0 51 62 67 109 10 29 17 35 36 33 14 -2 31 5 43 18 10 11 22 20
28 20 11 0 5 -135 -6 -147 -4 -4 -21 -2 -37 4 -39 15 -38 6 5 -39 39 -44 57
-47 79 -16 13 18 16 54 16 188 0 91 5 181 10 200 9 31 8 37 -11 53 -22 18 -50
22 -63 10z m14 -89 c0 -50 -2 -55 -17 -49 -10 4 -30 10 -45 13 -24 4 -28 9
-28 36 0 41 16 56 57 56 l33 0 0 -56z m-15 -94 c8 0 15 -7 15 -15 0 -17 -50
-45 -81 -45 -19 0 -21 4 -15 31 3 17 6 38 6 46 0 11 5 11 30 -2 16 -8 36 -15
45 -15z"/>
  <path d="M568 467 c-164 -21 -217 -43 -83 -35 l75 5 0 -26 c0 -46 -84 -204
-136 -256 -9 -9 -13 -19 -10 -23 10 -9 110 99 141 152 24 41 29 44 81 51 31 4
58 4 61 1 11 -10 -20 -155 -39 -187 -17 -28 -23 -31 -58 -27 -22 2 -40 1 -40
-1 0 -13 56 -61 71 -61 39 0 73 54 100 156 14 54 29 107 33 116 12 28 -35 41
-106 30 -52 -8 -58 -7 -58 9 0 10 5 21 10 24 6 4 8 15 5 26 -4 10 -3 19 2 19
95 6 205 18 210 24 13 12 -21 26 -62 25 -22 -1 -111 -11 -197 -22z"/>
</g>
<g id="part-1" class="char-part">
  <path d="M245 543 l-60 -4 3 -119 c4 -140 -8 -211 -48 -274 -33 -52 -27 -60
13 -19 28 30 66 107 67 136 0 20 11 22 27 6 8 -8 21 -4 47 16 l36 27 0 -73 c0
-91 -8 -108 -45 -91 -41 19 -42 15 0 -28 78 -80 92 -49 96 211 2 107 -1 200
-5 207 -4 7 -22 11 -39 10 -18 -1 -59 -3 -92 -5z m85 -84 c0 -53 -2 -58 -17
-50 -10 6 -31 12 -46 16 -26 5 -28 9 -25 48 3 40 5 42 38 48 19 3 38 3 43 1 4
-2 7 -30 7 -63z m-27 -79 c22 0 27 -5 27 -24 0 -19 -9 -27 -40 -40 -22 -9 -45
-16 -50 -16 -11 0 -14 93 -3 103 3 4 14 0 23 -8 9 -8 29 -15 43 -15z"/>
</g>
<g id="part-2" class="char-part">
  <path d="M540 562 c0 -16 52 -82 65 -82 19 0 27 16 20 40 -9 28 -85 66 -85 42z"/>
  <path d="M595 470 c-66 -10 -138 -19 -160 -19 -29 -1 -36 -4 -28 -12 15 -15
40 -15 198 0 252 23 242 21 220 37 -24 18 -79 16 -230 -6z"/>
</g>
<g id="part-3" class="char-part">
  <path d="M567 433 c-4 -3 -7 -15 -7 -26 0 -30 -64 -155 -110 -216 -23 -29 -39
-55 -37 -58 3 -2 24 13 48 34 67 60 171 236 155 262 -8 12 -39 15 -49 4z"/>
</g>
<g id="part-4" class="char-part">
  <path d="M655 364 c-11 -3 -30 -7 -42 -10 -13 -2 -23 -9 -23 -15 0 -7 19 -8
57 -3 l56 7 -6 -54 c-10 -81 -26 -129 -52 -155 -19 -19 -28 -22 -54 -14 -19 5
-31 5 -31 -1 0 -5 4 -9 8 -9 5 0 15 -11 22 -25 31 -58 99 -14 125 81 9 33 24
86 35 119 10 33 15 64 10 68 -9 10 -78 17 -105 11z"/>
</g>
</g>
</svg>