<?xml version="1.0" standalone="no"?>
<!DOCTYPE svg PUBLIC "-//W3C//DTD SVG 20010904//EN"
 "http://www.w3.org/TR/2001/REC-SVG-20010904/DTD/svg10.dtd">
<svg version="1.0" xmlns="http://www.w3.org/2000/svg"
 width="96.000000pt" height="68.000000pt" viewBox="0 0 96.000000 68.000000"
 preserveAspectRatio="xMidYMid meet">
<metadata>
Created by potrace 1.16, written by Peter Selinger 2001-2019
Combined from part_0.svg through part_5.svg with named groups
</metadata>
<g transform="translate(0.000000,68.000000) scale(0.100000,-0.100000)" fill="#000000" stroke="none">
<g id="part-0" class="char-part">
  <path d="M497 603 c-4 -3 -7 -14 -7 -24 0 -9 -16 -40 -35 -69 -19 -29 -35 -54
-35 -56 0 -11 21 -1 61 30 39 30 53 34 129 40 80 7 112 17 97 33 -10 9 -63 9
-114 0 -36 -6 -42 -5 -37 8 11 29 -37 60 -59 38z"/>
  <path d="M263 576 c-6 -8 -9 -16 -6 -19 6 -7 -30 -61 -71 -104 -27 -30 -28
-33 -9 -33 11 0 40 17 64 39 40 34 51 39 112 43 73 6 83 10 72 28 -5 8 -25 10
-63 5 -53 -7 -55 -6 -38 11 17 17 17 18 0 31 -23 17 -46 16 -61 -1z"/>
  <path d="M555 470 c33 -35 65 -40 65 -10 0 23 -28 40 -66 40 l-28 0 29 -30z"/>
  <path d="M280 473 c0 -12 53 -63 66 -63 10 0 24 21 24 36 0 2 -13 10 -30 19
-30 16 -60 20 -60 8z"/>
  <path d="M445 411 l6 -29 -99 -12 c-55 -6 -112 -13 -126 -13 -31 -2 -32 -5 -8
-23 43 -31 1 -200 -62 -249 -20 -16 -25 -25 -15 -25 8 0 34 16 56 35 43 36 71
93 77 155 8 78 14 88 62 94 147 20 130 22 144 -20 7 -21 28 -63 46 -95 19 -32
34 -62 34 -68 0 -5 -20 -24 -45 -42 -25 -18 -45 -36 -45 -40 0 -12 50 9 85 36
l31 23 44 -40 c52 -45 141 -91 167 -86 14 3 17 11 14 48 -4 63 -14 77 -31 46
-20 -38 -46 -42 -83 -13 -48 37 -77 64 -77 71 0 3 16 28 35 55 19 26 35 53 35
58 0 12 -50 36 -58 28 -3 -3 -7 -16 -9 -28 -4 -29 -24 -77 -32 -77 -3 0 -21
30 -38 68 -32 65 -41 103 -25 101 4 -1 31 -1 61 0 48 1 52 3 40 17 -10 13 -24
14 -66 9 -45 -5 -53 -4 -53 10 0 8 -12 20 -26 25 -40 16 -46 13 -39 -19z"/>
  <path d="M659 396 c33 -35 61 -40 61 -11 0 23 -22 35 -64 35 -18 0 -18 -1 3
-24z"/>
  <path d="M348 286 c-97 -23 -50 -37 53 -15 36 8 47 14 38 20 -17 11 -30 10
-91 -5z"/>
  <path d="M405 219 c-11 -4 -44 -8 -72 -8 -29 -1 -53 -2 -53 -3 1 -2 9 -27 19
-56 18 -53 31 -75 31 -54 0 6 26 14 59 18 43 5 58 10 54 19 -2 8 3 25 12 39 9
14 14 29 11 34 -9 14 -39 20 -61 11z m15 -35 c0 -34 -20 -54 -54 -54 -30 0
-34 4 -38 30 -5 31 3 36 65 39 18 1 27 -4 27 -15z"/>
</g>
<g id="part-1" class="char-part">
  <path d="M500 595 c0 -21 -35 -88 -54 -104 -17 -14 -21 -31 -8 -31 5 0 27 16
49 35 36 30 48 35 95 35 73 0 129 11 121 22 -3 7 -36 8 -86 3 -75 -6 -80 -6
-67 10 12 15 12 19 -5 31 -25 18 -45 18 -45 -1z"/>
  <path d="M257 547 c-10 -24 -36 -62 -58 -85 -22 -23 -37 -42 -34 -42 11 0 50
23 85 51 27 21 51 29 103 34 37 4 70 11 73 16 8 14 -32 16 -93 4 l-38 -7 20
22 c19 22 19 22 0 36 -29 22 -39 17 -58 -29z"/>
  <path d="M555 477 c25 -39 65 -47 65 -12 0 17 -6 21 -48 30 l-34 7 17 -25z"/>
  <path d="M310 445 c26 -28 50 -33 50 -10 0 16 -30 35 -56 35 -15 0 -14 -4 6
-25z"/>
</g>
<g id="part-2" class="char-part">
  <path d="M433 427 c4 -10 10 -23 13 -31 4 -10 -7 -15 -38 -19 -24 -4 -64 -9
-90 -13 -27 -3 -48 -11 -48 -17 0 -9 20 -8 150 8 l45 6 30 -68 c16 -37 40 -82
52 -100 l22 -33 -56 -42 c-82 -62 -47 -61 54 3 18 11 27 7 79 -36 64 -52 109
-75 149 -75 27 0 28 7 9 100 l-5 24 -21 -32 c-11 -18 -26 -32 -32 -32 -15 0
-83 49 -109 78 -18 20 -17 21 17 70 40 55 43 67 20 76 -36 14 -54 7 -54 -21
-1 -16 -6 -38 -14 -51 -15 -29 -24 -20 -60 58 -39 84 -37 90 34 90 33 0 60 4
60 10 0 13 -63 23 -91 15 -16 -5 -26 -2 -38 14 -9 11 -31 24 -50 27 -29 6 -33
5 -28 -9z"/>
  <path d="M668 389 c33 -29 52 -33 59 -12 7 19 -27 43 -60 43 l-32 -1 33 -30z"/>
</g>
<g id="part-3" class="char-part">
  <path d="M210 351 c-24 -7 -24 -8 -3 -15 28 -9 35 -42 23 -105 -12 -66 -23
-87 -73 -139 -46 -47 -43 -52 15 -20 52 29 85 87 103 179 19 101 7 120 -65
100z"/>
</g>
<g id="part-4" class="char-part">
  <path d="M402 219 c-13 -5 -45 -9 -73 -10 -41 -2 -49 -5 -43 -18 5 -15 19 -56
30 -90 3 -9 8 -10 17 -3 6 5 36 13 65 17 30 4 49 11 46 17 -3 5 2 25 12 43 10
19 16 36 14 38 -13 11 -47 15 -68 6z m18 -35 c0 -34 -20 -54 -54 -54 -30 0
-34 4 -38 30 -4 25 -1 30 21 33 57 9 71 7 71 -9z"/>
</g>
</g>
</svg>