<?xml version="1.0" standalone="no"?>
<!DOCTYPE svg PUBLIC "-//W3C//DTD SVG 20010904//EN"
 "http://www.w3.org/TR/2001/REC-SVG-20010904/DTD/svg10.dtd">
<svg version="1.0" xmlns="http://www.w3.org/2000/svg"
 width="96.000000pt" height="68.000000pt" viewBox="0 0 96.000000 68.000000"
 preserveAspectRatio="xMidYMid meet">
<metadata>
Created by potrace 1.16, written by Peter Selinger 2001-2019
Combined from part_0.svg through part_5.svg with named groups
</metadata>
<g transform="translate(0.000000,68.000000) scale(0.100000,-0.100000)" fill="#000000" stroke="none">
<g id="part-0" class="char-part">
  <path d="M357 609 c-16 -38 -73 -98 -129 -136 -50 -34 -52 -53 -3 -34 14 6 25
1 43 -21 30 -36 75 -39 70 -6 -2 16 -14 25 -42 33 l-38 11 23 16 c23 15 26 14
59 -13 39 -33 55 -36 64 -13 8 22 -21 43 -59 44 -55 1 -1 27 72 35 37 4 72 9
80 12 51 20 -57 -98 -128 -139 -24 -14 -78 -36 -119 -48 -41 -12 -79 -27 -85
-32 -14 -15 119 -3 173 15 l42 15 0 -38 c0 -48 -22 -111 -54 -153 -26 -34
-124 -107 -144 -107 -6 0 -14 -5 -18 -11 -10 -17 60 -2 106 21 43 22 106 83
115 110 4 11 11 20 16 20 6 0 51 -35 101 -77 84 -71 95 -77 144 -81 29 -2 75
-1 101 3 l48 7 -95 29 c-116 36 -204 78 -256 123 l-39 34 18 49 c18 49 15 83
-6 83 -6 0 5 11 24 25 45 33 159 145 159 156 0 27 -131 35 -197 12 -10 -3 -3
7 15 23 37 33 32 50 -15 60 -29 6 -33 3 -46 -27z"/>
  <path d="M526 310 c-10 -17 -35 -42 -57 -57 -71 -47 -41 -44 56 4 93 47 111
65 79 77 -35 13 -60 6 -78 -24z"/>
  <path d="M220 271 c0 -19 52 -71 71 -71 35 0 24 45 -15 64 -38 18 -56 20 -56
7z"/>
</g>
<g id="part-1" class="char-part">
  <path d="M360 600 c-12 -29 -76 -94 -135 -137 -16 -12 -25 -23 -19 -23 14 0
45 16 99 52 28 19 63 30 118 37 95 13 87 13 87 1 0 -20 -92 -109 -139 -136
-25 -14 -77 -36 -116 -49 l-70 -24 46 0 c60 -1 144 24 194 59 51 35 165 146
165 160 0 22 -53 32 -116 21 -86 -15 -93 -14 -60 13 36 29 30 56 -12 56 -23 0
-32 -6 -42 -30z"/>
  <path d="M343 466 c31 -29 57 -34 57 -12 0 18 -6 22 -50 30 l-35 7 28 -25z"/>
  <path d="M274 421 c31 -32 50 -39 62 -20 10 16 -17 38 -56 45 l-35 7 29 -32z"/>
</g>
<g id="part-2" class="char-part">
  <path d="M380 313 c0 -98 -76 -204 -180 -251 -61 -29 -52 -40 17 -23 62 16
128 63 155 111 13 22 27 40 31 40 4 0 51 -36 103 -80 l94 -80 73 1 c39 1 83 4
97 8 21 6 14 10 -45 26 -77 20 -212 79 -268 117 l-35 24 105 53 c108 55 114
64 55 80 -28 9 -34 7 -45 -14 -12 -23 -105 -105 -119 -105 -11 0 -10 6 9 67
18 58 12 72 -29 73 -15 0 -18 -9 -18 -47z"/>
  <path d="M220 271 c0 -19 52 -71 71 -71 32 0 25 47 -11 65 -33 17 -60 20 -60
6z"/>
</g>
</g>
</svg>