<?xml version="1.0" standalone="no"?>
<!DOCTYPE svg PUBLIC "-//W3C//DTD SVG 20010904//EN"
 "http://www.w3.org/TR/2001/REC-SVG-20010904/DTD/svg10.dtd">
<svg version="1.0" xmlns="http://www.w3.org/2000/svg"
 width="96.000000pt" height="68.000000pt" viewBox="0 0 96.000000 68.000000"
 preserveAspectRatio="xMidYMid meet">
<metadata>
Created by potrace 1.16, written by Peter Selinger 2001-2019
Combined from part_0.svg through part_5.svg with named groups
</metadata>
<g transform="translate(0.000000,68.000000) scale(0.100000,-0.100000)" fill="#000000" stroke="none">
<g id="part-0" class="char-part">
  <path d="M625 580 c-100 -21 -221 -30 -254 -20 -19 5 -36 8 -38 6 -3 -2 1 -31
8 -64 25 -121 -27 -281 -124 -379 -28 -29 -48 -53 -45 -53 3 0 26 8 50 19 73
31 129 108 162 223 l17 56 47 5 c26 4 92 9 147 12 122 8 131 10 115 30 -11 13
-3 37 48 138 4 8 -61 38 -80 36 -7 -1 -31 -5 -53 -9z m35 -51 c0 -5 -5 -29
-11 -53 l-11 -43 -114 -13 c-63 -7 -116 -11 -118 -9 -1 2 0 27 2 56 l4 51 71
10 c102 13 177 14 177 1z"/>
</g>
<g id="part-1" class="char-part">
  <path d="M555 563 c-48 -8 -109 -12 -152 -9 l-72 6 9 -26 c14 -37 12 -151 -4
-210 -20 -74 -73 -169 -118 -209 -46 -43 -27 -46 29 -6 69 50 110 117 138 221
l11 45 153 12 c152 12 177 17 154 31 -13 8 16 83 43 113 14 15 13 19 -8 33
-27 19 -74 19 -183 -1z m109 -21 c5 -9 -13 -93 -23 -105 -4 -4 -45 -12 -92
-17 -46 -6 -99 -12 -116 -15 l-33 -6 0 48 c0 26 4 55 9 62 14 22 244 51 255
33z"/>
</g>
</g>
</svg>