<?xml version="1.0" standalone="no"?>
<!DOCTYPE svg PUBLIC "-//W3C//DTD SVG 20010904//EN"
 "http://www.w3.org/TR/2001/REC-SVG-20010904/DTD/svg10.dtd">
<svg version="1.0" xmlns="http://www.w3.org/2000/svg"
 width="96.000000pt" height="68.000000pt" viewBox="0 0 96.000000 68.000000"
 preserveAspectRatio="xMidYMid meet">
<metadata>
Created by potrace 1.16, written by Peter Selinger 2001-2019
Combined from part_0.svg through part_5.svg with named groups
</metadata>
<g transform="translate(0.000000,68.000000) scale(0.100000,-0.100000)" fill="#000000" stroke="none">
<g id="part-0" class="char-part">
  <path d="M540 601 c0 -38 -1 -39 -40 -46 -47 -8 -52 -23 -10 -31 17 -4 30 -13
30 -20 0 -18 9 -18 31 2 11 10 46 18 90 22 43 4 74 12 76 19 6 16 -37 26 -82
21 -36 -4 -45 8 -22 31 10 10 8 15 -7 27 -11 8 -30 14 -43 14 -20 0 -23 -5
-23 -39z"/>
  <path d="M287 614 c-3 -4 0 -19 8 -35 8 -15 15 -30 15 -34 0 -3 -29 -5 -65 -5
-72 0 -85 -15 -40 -44 22 -14 31 -15 66 -4 32 9 45 9 60 0 21 -14 39 -8 39 11
0 7 14 18 31 24 38 15 31 31 -11 25 -28 -4 -30 -2 -30 27 0 24 -4 31 -19 31
-11 0 -26 2 -33 5 -8 3 -17 3 -21 -1z"/>
  <path d="M466 493 c-3 -3 16 -20 42 -37 26 -17 72 -50 103 -73 47 -36 63 -43
100 -42 24 1 55 4 69 8 23 7 22 9 -20 20 -108 31 -189 66 -240 106 -20 16 -47
25 -54 18z"/>
  <path d="M330 456 c0 -17 -59 -68 -104 -90 -17 -9 -24 -16 -16 -16 23 0 153
64 169 84 16 20 12 25 -23 32 -18 3 -26 0 -26 -10z"/>
  <path d="M392 402 c-17 -22 -44 -45 -61 -52 -42 -17 -44 -55 -3 -47 174 37
203 39 221 23 13 -12 20 -13 29 -4 21 21 13 39 -23 54 -45 19 -61 19 -46 0 16
-19 7 -23 -71 -31 -73 -8 -90 3 -38 25 37 16 52 33 44 54 -9 24 -17 20 -52
-22z"/>
  <path d="M578 294 c-21 -7 -53 -14 -73 -16 -68 -4 -34 -20 38 -16 l72 3 0
-100 0 -100 -32 3 c-41 4 -41 -5 2 -41 l34 -28 20 20 c16 16 21 34 22 73 0 29
2 87 4 129 4 73 3 77 -18 83 -26 7 -22 7 -69 -10z"/>
  <path d="M310 274 c-25 -7 -55 -14 -67 -14 -13 0 -23 -5 -23 -10 0 -6 25 -8
70 -4 l71 7 -3 -89 -3 -89 -39 -5 -39 -5 34 -27 c18 -16 38 -28 45 -28 27 0
41 46 46 153 4 96 3 109 -13 118 -22 11 -23 11 -79 -7z"/>
  <path d="M470 222 c0 -12 34 -42 48 -42 19 0 14 28 -7 40 -24 12 -41 13 -41 2z"/>
  <path d="M210 211 c0 -15 42 -51 52 -45 18 12 2 38 -29 48 -14 4 -23 3 -23 -3z"/>
  <path d="M550 150 c-19 -11 -54 -22 -77 -26 -46 -7 -52 -14 -28 -34 9 -8 22
-9 37 -3 38 14 107 57 113 71 6 15 -2 14 -45 -8z"/>
  <path d="M230 132 c-41 -14 -77 -27 -79 -28 -12 -10 25 -35 44 -30 27 7 124
68 124 79 1 9 0 9 -89 -21z"/>
</g>
<g id="part-1" class="char-part">
  <path d="M550 618 c0 -53 -11 -68 -46 -68 -19 0 -34 -4 -34 -10 0 -5 14 -10
31 -10 26 0 30 -3 26 -20 -4 -17 -2 -18 13 -10 11 6 22 15 25 20 3 6 30 10 58
11 29 1 63 4 77 9 l25 7 -25 10 c-14 5 -44 8 -67 5 -47 -4 -49 -2 -30 29 10
17 9 22 -7 35 -28 20 -46 17 -46 -8z"/>
  <path d="M290 605 c0 -2 5 -16 12 -30 16 -35 0 -45 -71 -45 -53 0 -54 0 -36
-20 20 -23 47 -25 94 -9 24 9 35 9 44 0 15 -15 27 -14 27 3 0 8 15 20 33 27
l32 13 -32 3 c-23 3 -33 9 -33 22 0 24 -20 41 -47 41 -13 0 -23 -2 -23 -5z"/>
</g>
<g id="part-2" class="char-part">
  <path d="M487 471 c17 -11 64 -45 104 -75 76 -59 103 -66 184 -47 l30 8 -45
12 c-90 26 -130 42 -198 81 -70 41 -139 59 -75 21z"/>
  <path d="M319 441 c-9 -15 -42 -43 -73 -60 -31 -18 -56 -34 -56 -37 0 -10 137
49 167 72 27 21 32 29 22 40 -18 22 -43 16 -60 -15z"/>
</g>
<g id="part-3" class="char-part">
  <path d="M397 405 c-15 -19 -46 -44 -68 -56 -22 -11 -38 -25 -36 -32 5 -16 42
-14 150 8 83 16 89 16 107 0 21 -19 40 -13 40 14 0 11 -14 25 -34 35 -44 21
-63 21 -47 2 16 -19 8 -22 -71 -31 -46 -4 -68 -3 -68 4 0 6 6 11 13 11 24 0
71 46 64 63 -9 25 -19 21 -50 -18z"/>
</g>
<g id="part-4" class="char-part">
  <path d="M570 156 c-14 -7 -50 -19 -80 -27 -30 -7 -57 -14 -59 -16 -8 -5 22
-33 35 -33 14 0 144 78 144 86 0 7 -14 4 -40 -10z"/>
</g>
</g>
</svg>