<?xml version="1.0" standalone="no"?>
<!DOCTYPE svg PUBLIC "-//W3C//DTD SVG 20010904//EN"
 "http://www.w3.org/TR/2001/REC-SVG-20010904/DTD/svg10.dtd">
<svg version="1.0" xmlns="http://www.w3.org/2000/svg"
 width="96.000000pt" height="68.000000pt" viewBox="0 0 96.000000 68.000000"
 preserveAspectRatio="xMidYMid meet">
<metadata>
Created by potrace 1.16, written by Peter Selinger 2001-2019
Combined from part_0.svg through part_5.svg with named groups
</metadata>
<g transform="translate(0.000000,68.000000) scale(0.100000,-0.100000)" fill="#000000" stroke="none">
<g id="part-0" class="char-part">
  <path d="M258 516 l5 -94 -59 -7 c-74 -8 -87 -12 -79 -25 3 -5 33 -10 66 -10
34 0 59 -4 59 -10 0 -24 -70 -118 -121 -164 -51 -46 -52 -48 -24 -45 32 4 55
20 119 82 l39 38 -7 -63 c-3 -35 -9 -81 -12 -103 -7 -51 15 -86 43 -69 16 10
18 28 21 138 1 69 6 126 11 126 5 0 14 -7 21 -15 18 -21 47 -19 53 5 6 22 -8
32 -55 44 -46 11 -37 43 15 53 58 12 58 38 0 38 -39 0 -41 2 -38 25 15 99 15
123 -2 136 -10 7 -27 14 -39 14 -20 0 -21 -3 -16 -94z"/>
  <path d="M601 589 c-19 -11 -55 -29 -80 -39 -63 -26 -24 -25 77 1 79 21 102
39 66 53 -23 9 -26 8 -63 -15z"/>
  <path d="M660 483 c-24 -26 -38 -44 -30 -41 8 3 40 13 70 23 70 22 79 31 54
50 -30 23 -46 18 -94 -32z"/>
  <path d="M520 500 c0 -5 9 -19 20 -30 11 -11 25 -20 30 -20 15 0 12 29 -4 46
-17 16 -46 19 -46 4z"/>
  <path d="M410 484 c0 -15 43 -64 56 -64 25 0 16 46 -11 58 -28 13 -45 15 -45
6z"/>
  <path d="M575 405 c-27 -7 -72 -16 -99 -20 -35 -5 -45 -10 -37 -18 8 -8 33 -6
93 6 46 8 86 12 90 9 4 -4 -3 -20 -16 -35 -19 -22 -29 -27 -50 -21 -29 7 -32
-2 -11 -30 8 -11 15 -25 15 -32 0 -13 -57 -24 -143 -25 -55 -2 -78 -11 -58
-23 14 -9 50 -9 129 -1 l73 8 -3 -64 c-3 -63 -3 -64 -30 -62 l-28 2 28 -35
c49 -62 70 -41 74 76 l3 85 123 3 c67 1 122 6 122 11 0 27 -32 33 -130 26 -55
-4 -103 -8 -107 -9 -5 0 -9 13 -11 31 -3 30 0 33 57 59 34 16 61 32 61 37 0
10 -64 38 -82 36 -7 -1 -35 -7 -63 -14z"/>
</g>
<g id="part-1" class="char-part">
  <path d="M255 593 c4 -10 10 -52 12 -94 l5 -77 -28 -5 c-16 -3 -48 -9 -72 -12
-67 -10 -40 -28 34 -22 l63 5 -29 -52 c-16 -28 -57 -79 -91 -114 -58 -57 -60
-61 -30 -51 18 6 60 37 93 68 40 36 59 49 55 36 -3 -11 -8 -63 -12 -116 -6
-82 -4 -97 10 -109 28 -23 35 5 35 137 0 67 4 124 9 127 5 3 21 -4 36 -15 19
-15 30 -18 37 -11 18 18 1 41 -36 48 -31 5 -36 10 -36 34 0 24 4 28 41 33 69
9 67 32 -2 31 l-40 -1 7 78 7 79 -27 10 c-39 14 -49 13 -41 -7z"/>
</g>
<g id="part-2" class="char-part">
  <path d="M551 568 c-84 -43 -91 -48 -64 -43 75 15 203 50 203 57 0 10 -35 28
-52 27 -7 -1 -47 -19 -87 -41z"/>
  <path d="M693 516 c-4 -8 -25 -28 -47 -45 -46 -37 -43 -37 51 -9 76 23 85 32
56 54 -24 18 -50 17 -60 0z"/>
  <path d="M530 480 c24 -33 50 -40 50 -12 0 25 -19 42 -48 42 l-23 0 21 -30z"/>
  <path d="M410 484 c0 -15 43 -64 56 -64 21 0 17 47 -5 60 -21 11 -51 14 -51 4z"/>
</g>
<g id="part-3" class="char-part">
  <path d="M580 404 c-25 -7 -61 -13 -80 -14 -19 -1 -44 -5 -55 -10 -63 -25 92
-19 163 8 19 7 14 -23 -8 -43 -37 -33 -9 -35 55 -3 36 18 65 36 65 40 0 11
-56 38 -77 37 -10 -1 -38 -7 -63 -15z"/>
</g>
<g id="part-4" class="char-part">
  <path d="M530 323 c0 -4 7 -17 15 -27 8 -11 15 -25 15 -32 0 -13 -58 -23 -152
-26 -32 -1 -58 -5 -58 -9 0 -15 57 -25 100 -18 25 4 60 8 78 8 l33 1 -3 -62
c-3 -62 -4 -63 -30 -61 l-28 2 28 -35 c49 -62 70 -41 74 76 l3 85 123 3 c120
3 143 10 101 33 -21 11 -166 6 -211 -7 -14 -4 -18 1 -18 19 0 14 -6 29 -12 35
-19 14 -58 25 -58 15z"/>
</g>
</g>
</svg>