<?xml version="1.0" standalone="no"?>
<!DOCTYPE svg PUBLIC "-//W3C//DTD SVG 20010904//EN"
 "http://www.w3.org/TR/2001/REC-SVG-20010904/DTD/svg10.dtd">
<svg version="1.0" xmlns="http://www.w3.org/2000/svg"
 width="96.000000pt" height="68.000000pt" viewBox="0 0 96.000000 68.000000"
 preserveAspectRatio="xMidYMid meet">
<metadata>
Created by potrace 1.16, written by Peter Selinger 2001-2019
Combined from part_0.svg through part_5.svg with named groups
</metadata>
<g transform="translate(0.000000,68.000000) scale(0.100000,-0.100000)" fill="#000000" stroke="none">
<g id="part-0" class="char-part">
  <path d="M330 550 c-14 -11 -56 -32 -93 -47 -37 -14 -71 -31 -74 -36 -6 -9 48
-4 104 9 19 5 23 1 28 -30 9 -46 1 -66 -26 -66 -12 0 -51 -5 -86 -11 -88 -15
-72 -33 23 -25 41 4 74 3 74 -2 0 -4 -8 -17 -18 -28 -9 -10 -25 -32 -35 -47
-10 -15 -40 -44 -68 -64 -27 -19 -48 -37 -45 -40 9 -9 84 37 123 76 22 23 44
41 47 41 3 0 4 -48 1 -107 -7 -119 3 -155 30 -119 11 15 15 50 15 143 0 68 3
123 6 123 3 0 15 -11 26 -25 11 -14 28 -25 38 -25 26 0 47 -35 55 -90 10 -71
24 -101 44 -91 9 5 60 11 113 15 90 6 97 5 103 -13 9 -31 37 -35 57 -9 19 25
20 26 41 133 8 39 16 76 18 84 2 9 -8 21 -25 29 -23 11 -36 12 -66 3 -21 -6
-51 -11 -69 -11 -17 0 -31 -5 -31 -11 0 -7 23 -9 63 -7 l62 3 0 -30 c0 -28 -3
-30 -52 -38 -69 -11 -71 -32 -3 -23 45 6 50 5 50 -13 0 -11 -4 -31 -9 -44 -9
-23 -15 -24 -127 -30 -65 -4 -119 -5 -120 -4 -1 1 -5 19 -9 40 l-7 37 45 0
c25 0 48 4 51 9 9 14 -33 21 -61 10 -38 -14 -44 -11 -41 22 3 28 8 34 44 44
59 17 67 24 53 41 -18 22 -37 17 -76 -21 -21 -20 -43 -33 -51 -30 -7 3 -20 5
-28 5 -8 0 -14 7 -14 15 0 8 -18 22 -40 31 -60 24 -55 36 23 49 52 8 46 25 -9
25 l-47 0 7 39 c5 31 2 42 -10 49 -12 7 -6 10 26 15 51 7 78 28 58 45 -27 22
-62 23 -88 2z"/>
  <path d="M617 548 c-16 -11 -54 -31 -85 -44 -91 -37 -39 -31 151 17 43 11 47
21 12 37 -35 16 -45 15 -78 -10z"/>
  <path d="M749 468 c-7 -13 -23 -36 -36 -52 -13 -16 -22 -30 -20 -32 7 -8 117
58 117 70 0 16 -21 36 -37 36 -7 0 -18 -10 -24 -22z"/>
  <path d="M583 423 c30 -48 47 -53 47 -15 0 21 -7 32 -25 40 -42 19 -47 14 -22
-25z"/>
  <path d="M450 425 c0 -9 34 -59 44 -67 14 -10 26 0 26 21 0 10 -11 26 -25 35
-24 16 -45 21 -45 11z"/>
</g>
<g id="part-1" class="char-part">
  <path d="M271 514 c-118 -61 -118 -61 24 -24 39 11 82 22 98 25 46 9 28 47
-21 44 -9 -1 -55 -21 -101 -45z"/>
</g>
<g id="part-2" class="char-part">
  <path d="M299 493 c-14 -3 -15 -11 -8 -50 5 -25 7 -49 4 -53 -3 -4 -35 -11
-72 -15 -88 -9 -114 -15 -107 -26 7 -11 77 -11 127 0 20 5 37 7 37 4 0 -18
-51 -81 -107 -133 -36 -33 -63 -60 -59 -60 24 0 102 49 137 87 l42 46 -8 -89
c-11 -118 -10 -143 4 -157 10 -9 16 -8 27 7 10 15 14 52 14 145 l0 125 28 -27
c34 -32 52 -34 52 -6 0 13 -11 25 -35 35 -42 17 -47 44 -7 44 39 0 73 11 66
21 -3 5 -26 9 -50 9 l-46 0 7 39 c5 32 3 41 -12 48 -10 5 -25 8 -34 6z"/>
</g>
<g id="part-3" class="char-part">
  <path d="M607 544 c-20 -13 -59 -33 -85 -44 -60 -24 -26 -27 62 -4 125 31 136
35 136 43 0 9 -45 31 -63 30 -7 0 -29 -11 -50 -25z"/>
  <path d="M721 429 l-43 -61 48 27 c102 58 98 54 78 76 -9 10 -22 19 -29 19 -6
0 -30 -27 -54 -61z"/>
  <path d="M583 420 c25 -44 40 -47 45 -7 3 21 -2 29 -23 37 -42 16 -45 12 -22
-30z"/>
  <path d="M450 426 c0 -10 33 -60 44 -68 22 -15 35 22 18 49 -8 13 -62 29 -62
19z"/>
</g>
<g id="part-4" class="char-part">
  <path d="M506 310 c-44 -44 -42 -46 29 -22 55 19 60 28 30 48 -18 12 -24 9
-59 -26z"/>
</g>
<g id="part-5" class="char-part">
  <path d="M736 318 c3 -4 12 -8 20 -8 8 0 14 -4 14 -9 0 -5 7 -17 16 -25 14
-15 14 -16 -1 -16 -9 0 -13 -4 -10 -10 3 -5 2 -10 -2 -10 -5 0 -9 -21 -9 -46
0 -53 -18 -73 -62 -68 -15 2 -20 1 -11 -2 9 -3 21 -16 27 -29 7 -14 18 -25 26
-25 20 0 41 39 38 70 -2 20 -1 22 8 10 9 -12 11 -7 8 22 -2 20 0 34 4 31 5 -2
6 7 2 21 -4 18 -2 26 7 26 7 0 10 3 6 6 -3 3 -2 17 3 30 8 19 5 26 -10 34 -22
12 -81 10 -74 -2z m69 -9 c11 -16 1 -19 -13 -3 -7 8 -8 14 -3 14 5 0 13 -5 16
-11z"/>
  <path d="M650 310 c8 -5 22 -10 30 -10 13 0 13 1 0 10 -8 5 -22 10 -30 10 -13
0 -13 -1 0 -10z"/>
  <path d="M454 229 c9 -93 17 -119 40 -120 11 -1 36 -2 54 -4 17 -1 32 1 32 6
0 5 -16 8 -36 7 -44 -2 -64 20 -59 63 2 16 0 27 -5 24 -4 -3 -6 3 -4 12 3 10
-2 27 -10 38 -14 19 -15 17 -12 -26z"/>
  <path d="M525 210 c-19 -8 -19 -9 2 -9 12 -1 25 4 28 9 7 12 -2 12 -30 0z"/>
  <path d="M625 120 c3 -5 16 -10 28 -9 21 0 21 1 2 9 -28 12 -37 12 -30 0z"/>
</g>
</g>
</svg>