<?xml version="1.0" standalone="no"?>
<!DOCTYPE svg PUBLIC "-//W3C//DTD SVG 20010904//EN"
 "http://www.w3.org/TR/2001/REC-SVG-20010904/DTD/svg10.dtd">
<svg version="1.0" xmlns="http://www.w3.org/2000/svg"
 width="96.000000pt" height="68.000000pt" viewBox="0 0 96.000000 68.000000"
 preserveAspectRatio="xMidYMid meet">
<metadata>
Created by potrace 1.16, written by Peter Selinger 2001-2019
Combined from part_0.svg through part_5.svg with named groups
</metadata>
<g transform="translate(0.000000,68.000000) scale(0.100000,-0.100000)" fill="#000000" stroke="none">
<g id="part-0" class="char-part">
  <path d="M523 562 c-112 -14 -203 -29 -203 -33 0 -15 62 -16 170 -3 167 21
157 23 167 -37 11 -70 1 -315 -14 -330 -9 -9 -19 -9 -44 0 -18 6 -34 9 -37 7
-4 -5 74 -79 89 -84 5 -2 22 10 38 26 l29 29 -3 206 -4 207 64 0 c65 0 75 6
53 28 -16 16 -70 14 -305 -16z"/>
  <path d="M220 484 c-28 -9 -61 -13 -87 -9 -46 7 -52 1 -27 -26 9 -10 23 -49
30 -86 17 -80 27 -93 52 -70 10 9 28 17 39 17 45 0 83 12 74 24 -9 10 6 64 33
128 6 14 2 20 -19 28 -32 12 -38 12 -95 -6z m34 -76 c-7 -56 -16 -68 -50 -68
-17 0 -23 8 -28 36 -4 19 -10 42 -12 49 -4 9 6 17 28 24 67 19 69 17 62 -41z"/>
  <path d="M500 459 c-19 -5 -56 -9 -81 -10 l-46 -2 13 -26 c8 -14 14 -36 14
-48 0 -12 4 -33 10 -48 8 -20 13 -24 27 -16 10 6 39 13 65 16 39 5 47 10 53
32 3 15 15 39 26 54 l20 28 -30 16 c-17 8 -31 15 -33 14 -2 -1 -19 -5 -38 -10z
m20 -63 c0 -41 -2 -44 -31 -50 -51 -10 -56 -8 -63 32 -7 44 10 62 61 62 32 0
33 -1 33 -44z"/>
</g>
<g id="part-1" class="char-part">
  <path d="M235 482 c-22 -7 -61 -12 -88 -10 -26 2 -47 2 -47 0 0 -1 6 -13 14
-25 8 -12 17 -38 21 -57 14 -72 26 -110 35 -110 6 0 10 7 10 15 0 10 17 16 58
21 56 6 57 7 58 38 0 17 9 48 18 68 10 21 16 44 13 52 -8 20 -47 24 -92 8z
m22 -78 c-3 -31 -7 -57 -9 -59 -2 -1 -17 -5 -34 -8 -31 -6 -32 -4 -43 38 -19
76 -16 80 63 84 l29 1 -6 -56z"/>
</g>
<g id="part-2" class="char-part">
  <path d="M545 564 c-259 -32 -234 -27 -208 -42 18 -10 54 -9 194 8 94 11 202
20 239 20 71 0 95 11 61 29 -27 15 -65 13 -286 -15z"/>
</g>
<g id="part-3" class="char-part">
  <path d="M659 543 c0 -4 0 -87 1 -183 1 -209 -2 -220 -68 -197 -23 8 -42 13
-42 10 0 -7 94 -93 102 -93 4 0 20 11 35 24 l28 24 -2 209 -2 208 -25 3 c-14
2 -26 0 -27 -5z"/>
</g>
<g id="part-4" class="char-part">
  <path d="M510 460 c-14 -4 -51 -8 -84 -9 -49 -1 -57 -3 -47 -15 6 -8 16 -40
21 -71 11 -65 15 -74 32 -57 7 7 24 12 39 12 43 0 89 12 83 21 -3 5 6 29 19
54 18 32 22 47 14 53 -20 16 -51 20 -77 12z m12 -65 c-2 -22 -5 -41 -7 -43 -2
-2 -22 -6 -44 -9 -32 -4 -41 -2 -41 9 0 9 -3 29 -6 46 -7 34 5 41 66 39 34 -2
35 -3 32 -42z"/>
</g>
</g>
</svg>