<?xml version="1.0" standalone="no"?>
<!DOCTYPE svg PUBLIC "-//W3C//DTD SVG 20010904//EN"
 "http://www.w3.org/TR/2001/REC-SVG-20010904/DTD/svg10.dtd">
<svg version="1.0" xmlns="http://www.w3.org/2000/svg"
 width="96.000000pt" height="68.000000pt" viewBox="0 0 96.000000 68.000000"
 preserveAspectRatio="xMidYMid meet">
<metadata>
Created by potrace 1.16, written by Peter Selinger 2001-2019
Combined from part_0.svg through part_5.svg with named groups
</metadata>
<g transform="translate(0.000000,68.000000) scale(0.100000,-0.100000)" fill="#000000" stroke="none">
<g id="part-0" class="char-part">
  <path d="M570 597 c0 -44 -10 -55 -50 -59 -44 -4 -46 -22 -3 -26 30 -3 32 -5
27 -35 l-5 -32 31 38 c30 35 36 37 88 37 32 0 64 5 72 10 25 17 -8 31 -63 28
-26 -2 -47 -2 -47 0 0 2 4 12 10 22 11 20 -1 34 -37 43 -20 4 -23 1 -23 -26z"/>
  <path d="M315 583 c21 -53 21 -53 -43 -53 -69 0 -84 -12 -47 -36 21 -14 32
-15 71 -5 26 7 48 11 49 9 1 -2 8 -13 14 -25 16 -32 31 -29 31 6 0 25 5 31 30
36 46 10 46 25 1 25 -37 0 -41 3 -41 24 0 25 -16 36 -52 36 -15 0 -18 -4 -13
-17z"/>
  <path d="M658 409 c3 -36 1 -54 -8 -59 -7 -5 -49 -11 -92 -15 -110 -10 -101
-28 12 -23 l90 3 0 -102 c0 -123 -3 -133 -43 -133 l-31 0 34 -35 c64 -67 80
-42 80 129 0 68 3 131 6 140 5 12 21 16 66 16 80 0 75 24 -6 28 -47 2 -57 6
-52 18 20 52 18 61 -15 73 -46 16 -47 16 -41 -40z"/>
  <path d="M375 433 c-33 -7 -81 -12 -106 -10 l-46 4 5 -44 c8 -72 -35 -196 -90
-258 -34 -39 -30 -45 11 -16 40 29 80 92 101 158 l18 58 91 9 c71 7 91 13 91
24 0 9 10 26 22 39 38 41 -6 57 -97 36z m41 -51 c-7 -20 -48 -32 -113 -32 -27
0 -31 3 -28 21 6 29 4 28 71 37 65 9 79 4 70 -26z"/>
  <path d="M320 277 c-36 -9 -40 -12 -21 -15 36 -6 131 8 131 19 0 12 -52 10
-110 -4z"/>
  <path d="M530 248 c0 -22 46 -72 58 -64 18 11 14 25 -14 51 -30 28 -44 32 -44
13z"/>
  <path d="M345 219 c-111 -14 -130 -22 -65 -29 l55 -5 0 -55 c0 -53 -1 -55 -29
-58 l-28 -4 23 -24 c43 -46 64 -24 72 75 7 82 13 91 70 91 20 0 37 5 37 10 0
11 -35 11 -135 -1z"/>
  <path d="M240 141 c0 -5 -12 -23 -26 -40 -33 -39 -9 -43 35 -5 35 29 40 54 11
54 -11 0 -20 -4 -20 -9z"/>
  <path d="M436 121 c21 -42 42 -58 50 -37 7 19 -31 66 -52 66 -10 0 -9 -7 2
-29z"/>
</g>
<g id="part-1" class="char-part">
  <path d="M570 581 c0 -40 0 -40 -46 -47 -37 -5 -43 -9 -30 -16 10 -6 27 -8 38
-5 17 5 19 2 15 -19 -6 -31 6 -31 30 1 15 21 29 26 86 32 37 3 67 9 67 14 0
14 -40 21 -81 14 -40 -7 -40 -6 -29 15 14 25 -1 50 -31 50 -15 0 -19 -8 -19
-39z"/>
  <path d="M320 583 c0 -10 5 -25 10 -33 12 -20 -10 -28 -74 -29 -43 -1 -47 -3
-35 -17 11 -13 25 -15 71 -10 51 6 58 5 68 -14 15 -29 32 -25 28 8 -2 22 1 28
22 30 14 2 30 8 35 14 7 7 -2 8 -27 4 -36 -7 -38 -5 -38 19 0 18 -7 28 -26 35
-33 13 -34 13 -34 -7z"/>
</g>
<g id="part-2" class="char-part">
  <path d="M375 434 c-29 -9 -72 -13 -103 -10 l-53 5 7 -34 c13 -72 -33 -207
-97 -280 -37 -42 -29 -45 19 -9 44 34 87 103 107 169 l15 53 90 7 c72 6 90 10
90 23 0 9 10 26 22 39 38 41 -15 61 -97 37z m45 -36 c0 -28 -18 -37 -83 -44
-68 -7 -80 0 -59 32 14 23 142 33 142 12z"/>
</g>
<g id="part-3" class="char-part">
  <path d="M338 138 l-3 -63 -33 2 -34 1 28 -29 c51 -53 69 -36 78 74 5 72 4 77
-14 77 -16 0 -19 -8 -22 -62z"/>
  <path d="M217 105 c-21 -25 -36 -45 -32 -45 26 0 108 67 99 82 -11 17 -30 6
-67 -37z"/>
  <path d="M426 138 c21 -36 46 -68 55 -68 20 0 8 48 -16 64 -29 19 -49 21 -39
4z"/>
</g>
<g id="part-4" class="char-part">
  <path d="M527 246 c18 -32 45 -66 53 -66 21 0 18 33 -5 54 -25 23 -59 32 -48
12z"/>
</g>
</g>
</svg>