<?xml version="1.0" standalone="no"?>
<!DOCTYPE svg PUBLIC "-//W3C//DTD SVG 20010904//EN"
 "http://www.w3.org/TR/2001/REC-SVG-20010904/DTD/svg10.dtd">
<svg version="1.0" xmlns="http://www.w3.org/2000/svg"
 width="96.000000pt" height="68.000000pt" viewBox="0 0 96.000000 68.000000"
 preserveAspectRatio="xMidYMid meet">
<metadata>
Created by potrace 1.16, written by Peter Selinger 2001-2019
Combined from part_0.svg through part_5.svg with named groups
</metadata>
<g transform="translate(0.000000,68.000000) scale(0.100000,-0.100000)" fill="#000000" stroke="none">
<g id="part-0" class="char-part">
  <path d="M415 617 c7 -34 6 -36 -27 -41 -18 -3 -55 -7 -83 -8 -81 -5 -58 -23
33 -26 62 -2 82 -6 82 -17 0 -10 -18 -16 -60 -21 -83 -9 -86 -24 -5 -24 50 0
67 -4 72 -15 3 -9 3 -18 0 -21 -4 -4 -207 -22 -265 -24 -7 0 -11 -4 -8 -9 11
-17 71 -18 171 -5 55 7 157 14 226 14 142 0 249 9 249 21 0 10 -58 23 -95 20
-16 -1 -74 -5 -127 -9 -88 -7 -98 -6 -98 9 0 22 20 29 78 29 47 0 82 13 70 26
-4 3 -39 6 -78 5 -54 -1 -70 2 -70 12 0 10 25 18 85 25 93 12 109 18 99 34 -5
7 -35 8 -90 4 -80 -7 -84 -6 -84 13 0 23 -4 26 -48 36 l-33 7 6 -35z"/>
  <path d="M475 380 c-33 -4 -88 -8 -123 -9 -61 -1 -62 -2 -51 -22 6 -13 9 -54
7 -103 l-3 -81 29 0 c16 -1 31 -6 33 -12 5 -14 -40 -56 -94 -89 -64 -39 -18
-27 78 21 80 41 104 65 63 65 -8 0 -14 5 -14 10 0 6 38 10 95 10 57 0 95 -4
95 -10 0 -5 7 -10 15 -10 18 0 23 23 28 132 3 83 2 87 -20 97 -26 12 -46 12
-138 1z m98 -32 c4 -12 5 -23 4 -24 -3 -3 -192 -24 -217 -24 -16 0 -21 5 -18
23 3 20 11 23 88 33 131 17 137 17 143 -8z m7 -67 c0 -20 -17 -24 -163 -37
-79 -7 -79 -7 -75 17 3 22 9 24 73 30 147 12 165 11 165 -10z m0 -65 c0 -23
-2 -23 -117 -29 -65 -2 -121 -3 -125 -1 -3 2 -4 13 -1 24 4 17 16 20 82 23 42
1 95 4 119 5 38 2 42 0 42 -22z"/>
  <path d="M567 92 c66 -55 93 -65 93 -32 0 25 -62 66 -115 76 l-40 7 62 -51z"/>
</g>
<g id="part-1" class="char-part">
  <path d="M417 606 l5 -33 -83 -7 c-56 -5 -78 -11 -68 -17 8 -5 44 -6 81 -3 58
6 69 4 74 -11 9 -24 -12 -35 -68 -35 -27 0 -48 -4 -48 -10 0 -6 27 -10 60 -10
54 0 60 -2 60 -21 0 -29 44 -22 48 7 3 19 12 22 73 28 93 10 92 30 -1 24 -67
-3 -71 -2 -68 17 3 17 13 21 78 28 96 10 111 15 87 28 -12 7 -40 7 -87 0 -38
-6 -72 -11 -75 -11 -4 0 -4 11 -1 24 6 26 -7 36 -49 36 -21 0 -23 -3 -18 -34z"/>
</g>
<g id="part-2" class="char-part">
  <path d="M645 459 c-38 -4 -131 -13 -205 -18 -335 -26 -309 -22 -272 -38 28
-12 50 -11 150 2 64 8 177 15 252 16 74 1 160 4 190 8 47 5 52 8 35 17 -32 18
-75 22 -150 13z"/>
</g>
<g id="part-3" class="char-part">
  <path d="M470 380 c-30 -5 -83 -8 -118 -9 -61 -1 -62 -2 -51 -22 6 -13 9 -47
7 -80 -4 -51 -2 -59 13 -59 10 0 19 4 21 9 5 12 238 24 238 11 0 -5 11 -10 24
-10 22 0 24 4 28 73 6 100 -8 108 -162 87z m104 -32 c5 -9 8 -19 5 -22 -8 -9
-218 -28 -229 -21 -6 4 -10 14 -8 23 3 13 23 20 88 28 108 14 130 13 144 -8z
m6 -67 c0 -22 -18 -26 -158 -37 l-84 -6 4 23 c3 22 9 24 78 30 152 11 160 11
160 -10z"/>
</g>
<g id="part-4" class="char-part">
  <path d="M580 205 c0 -12 -16 -15 -82 -15 -46 0 -100 -3 -120 -6 -31 -5 -38
-4 -38 10 0 9 -8 16 -20 16 -12 0 -20 -7 -20 -17 0 -35 13 -42 60 -33 72 14
228 12 233 -2 6 -21 37 11 37 38 0 19 -5 24 -25 24 -16 0 -25 -6 -25 -15z"/>
</g>
<g id="part-5" class="char-part">
  <path d="M357 119 c-16 -17 -26 -33 -23 -36 9 -9 26 8 20 19 -5 7 -2 9 8 6 8
-4 27 2 42 12 23 14 25 18 11 24 -25 9 -28 8 -58 -25z"/>
  <path d="M580 92 c61 -57 70 -61 70 -32 0 14 -11 25 -30 34 -17 7 -27 16 -23
21 5 4 0 5 -9 2 -11 -4 -18 -2 -18 5 0 6 -3 8 -7 5 -3 -4 -13 -1 -22 5 -9 7 9
-11 39 -40z"/>
</g>
</g>
</svg>