<?xml version="1.0" standalone="no"?>
<!DOCTYPE svg PUBLIC "-//W3C//DTD SVG 20010904//EN"
 "http://www.w3.org/TR/2001/REC-SVG-20010904/DTD/svg10.dtd">
<svg version="1.0" xmlns="http://www.w3.org/2000/svg"
 width="96.000000pt" height="68.000000pt" viewBox="0 0 96.000000 68.000000"
 preserveAspectRatio="xMidYMid meet">
<metadata>
Created by potrace 1.16, written by Peter Selinger 2001-2019
Combined from part_0.svg through part_5.svg with named groups
</metadata>
<g transform="translate(0.000000,68.000000) scale(0.100000,-0.100000)" fill="#000000" stroke="none">
<g id="part-0" class="char-part">
  <path d="M537 536 l5 -61 -34 -13 c-19 -6 -42 -12 -51 -12 -9 0 -19 -5 -22
-10 -4 -7 13 -8 49 -4 55 7 56 6 56 -18 0 -27 -20 -38 -72 -38 -15 0 -30 -4
-33 -10 -4 -6 15 -10 49 -10 52 0 56 -2 56 -24 0 -22 -5 -24 -75 -31 -41 -4
-75 -11 -75 -17 0 -7 23 -9 65 -5 l66 5 -17 -27 c-26 -41 -64 -79 -129 -128
-33 -25 -50 -43 -38 -39 46 15 112 58 147 96 42 47 60 51 52 12 -9 -42 -10
-135 -2 -159 9 -27 31 -30 40 -6 4 10 6 59 5 111 -1 51 0 95 3 97 3 3 16 -9
29 -27 13 -18 44 -52 68 -75 42 -41 48 -43 98 -42 62 2 77 14 36 30 -75 28
-133 64 -182 112 l-53 52 86 6 c95 7 112 13 73 28 -17 7 -47 7 -87 0 -68 -11
-80 -8 -73 20 4 14 17 21 52 26 77 10 85 25 14 25 -60 0 -63 1 -63 25 0 22 7
27 60 42 65 20 74 33 34 52 -22 9 -31 9 -50 -4 -35 -23 -41 -19 -40 27 1 37
-2 42 -26 49 l-27 7 6 -62z"/>
  <path d="M205 561 c-9 -15 55 -92 73 -89 22 4 28 51 8 67 -20 17 -75 31 -81
22z"/>
  <path d="M215 450 c-60 -10 -117 -19 -125 -20 -29 -2 22 -30 54 -30 37 0 245
36 253 43 3 3 2 10 -2 16 -8 15 -49 12 -180 -9z"/>
  <path d="M225 354 l-40 -14 68 5 c37 2 75 9 85 14 27 16 -65 12 -113 -5z"/>
  <path d="M218 293 c-16 -2 -28 -9 -28 -15 0 -13 130 -2 145 13 9 9 -61 10
-117 2z"/>
  <path d="M265 220 c-11 -5 -42 -9 -69 -9 -46 -1 -48 -2 -34 -18 8 -10 20 -37
27 -60 11 -42 20 -51 35 -36 3 4 14 7 24 8 59 6 77 16 90 53 22 62 20 67 -18
69 -19 1 -44 -2 -55 -7z m31 -52 c-8 -38 -5 -36 -43 -42 -29 -6 -32 -3 -38 25
-8 37 4 49 54 49 32 0 33 -1 27 -32z"/>
</g>
<g id="part-1" class="char-part">
  <path d="M210 551 c0 -19 52 -71 71 -71 28 0 24 35 -7 59 -27 22 -64 28 -64
12z"/>
  <path d="M240 449 c-63 -10 -124 -20 -135 -21 -19 -3 -18 -4 4 -17 20 -11 43
-10 157 10 74 12 134 26 134 31 0 4 -4 8 -9 8 -5 0 -15 2 -23 4 -7 2 -65 -5
-128 -15z"/>
</g>
<g id="part-2" class="char-part">
  <path d="M260 220 c-14 -4 -46 -8 -72 -9 -48 -1 -48 -1 -28 -21 11 -11 20 -27
20 -35 0 -25 31 -79 39 -68 3 6 22 14 41 17 61 13 70 17 70 34 0 10 7 28 16
40 9 13 13 29 10 37 -6 16 -54 19 -96 5z m40 -38 c0 -43 -62 -76 -80 -42 -22
42 -10 56 53 59 20 1 27 -4 27 -17z"/>
</g>
<g id="part-3" class="char-part">
  <path d="M537 536 l6 -63 -62 -17 c-33 -9 -61 -19 -61 -22 0 -3 27 -2 60 2 60
7 60 6 60 -19 0 -24 -5 -27 -50 -33 -70 -9 -73 -24 -6 -24 31 0 56 -4 56 -10
0 -5 9 -10 20 -10 11 0 20 6 20 14 0 10 16 17 48 22 58 8 89 23 52 25 -14 0
-42 0 -62 -1 -35 -1 -38 1 -38 24 0 23 7 28 60 43 65 18 77 37 34 54 -20 7
-32 6 -50 -6 -32 -21 -32 -20 -36 27 -3 36 -7 43 -30 49 l-27 7 6 -62z"/>
</g>
<g id="part-4" class="char-part">
  <path d="M540 326 c0 -10 -20 -16 -75 -21 -46 -5 -72 -11 -68 -17 3 -7 29 -8
65 -4 45 4 57 3 52 -7 -26 -45 -56 -76 -121 -128 -41 -32 -72 -59 -69 -59 25
0 111 54 155 97 30 29 57 53 59 53 2 0 0 -33 -4 -72 -13 -123 -3 -167 31 -138
14 12 16 32 13 122 -1 59 -2 108 -2 108 1 0 27 -30 59 -67 68 -80 87 -92 140
-92 49 0 88 14 65 23 -8 3 -41 15 -74 27 -42 15 -77 39 -125 85 l-66 63 70 2
c39 1 84 4 100 8 l30 7 -30 11 c-21 7 -50 7 -94 1 -44 -7 -67 -6 -74 1 -16 16
-37 14 -37 -3z"/>
</g>
</g>
</svg>