<?xml version="1.0" standalone="no"?>
<!DOCTYPE svg PUBLIC "-//W3C//DTD SVG 20010904//EN"
 "http://www.w3.org/TR/2001/REC-SVG-20010904/DTD/svg10.dtd">
<svg version="1.0" xmlns="http://www.w3.org/2000/svg"
 width="96.000000pt" height="68.000000pt" viewBox="0 0 96.000000 68.000000"
 preserveAspectRatio="xMidYMid meet">
<metadata>
Created by potrace 1.16, written by Peter Selinger 2001-2019
Combined from part_0.svg through part_5.svg with named groups
</metadata>
<g transform="translate(0.000000,68.000000) scale(0.100000,-0.100000)" fill="#000000" stroke="none">
<g id="part-0" class="char-part">
  <path d="M510 599 c-30 -5 -110 -10 -177 -12 -68 -1 -123 -4 -123 -6 0 -2 11
-14 25 -27 14 -13 27 -39 31 -63 4 -22 12 -45 18 -50 6 -5 58 -5 126 1 63 5
138 7 167 5 56 -6 62 -2 92 55 9 18 23 43 31 55 12 18 12 25 2 35 -15 15 -120
19 -192 7z m-18 -74 c-4 -42 -6 -45 -32 -45 -22 0 -30 6 -39 31 -16 45 -15 47
22 52 17 2 37 5 42 5 6 1 9 -16 7 -43z m132 18 c-12 -49 -19 -55 -72 -58 l-51
-4 22 44 c21 42 24 44 65 45 41 0 42 -1 36 -27z m-250 11 c9 -3 16 -15 16 -26
0 -11 5 -28 10 -39 10 -17 7 -19 -34 -19 -42 0 -45 2 -56 36 -10 30 -10 38 1
45 16 10 41 11 63 3z"/>
  <path d="M430 380 c-74 -9 -139 -15 -145 -12 -5 3 -4 -1 3 -9 8 -9 34 -12 82
-11 l70 3 0 -114 0 -115 -46 -7 c-26 -3 -50 -3 -55 2 -4 4 -9 37 -11 73 -3 57
-6 65 -24 68 -20 3 -21 0 -16 -77 l5 -80 -64 -3 c-63 -3 -63 -4 -34 -16 23
-11 45 -11 100 -3 39 6 161 13 273 17 111 4 202 10 202 15 0 23 -45 29 -160
23 l-120 -7 0 29 c0 66 5 71 87 78 77 6 92 10 80 22 -9 9 -52 9 -109 -1 l-47
-8 1 55 1 56 74 4 c77 5 97 13 73 28 -20 13 -58 11 -220 -10z"/>
</g>
<g id="part-1" class="char-part">
  <path d="M505 594 c-49 -7 -134 -13 -188 -13 -97 -1 -98 -1 -79 -21 10 -11 26
-45 36 -75 13 -43 21 -55 34 -51 39 11 104 16 214 18 l117 2 25 52 c14 29 30
55 35 59 20 12 11 22 -28 33 -44 14 -45 14 -166 -4z m125 -39 c0 -13 -5 -35
-11 -48 -10 -22 -18 -25 -107 -31 -54 -3 -120 -6 -147 -6 -50 0 -50 0 -63 41
-7 23 -12 43 -10 44 3 3 233 21 296 23 38 2 42 0 42 -23z"/>
</g>
<g id="part-2" class="char-part">
  <path d="M499 568 c0 -2 -2 -14 -5 -28 -2 -14 -6 -35 -9 -47 -8 -35 19 -19 38
23 22 45 21 54 -3 54 -11 0 -20 -1 -21 -2z"/>
</g>
<g id="part-3" class="char-part">
  <path d="M559 396 c-2 -2 -62 -9 -134 -16 -72 -7 -134 -15 -140 -18 -23 -14
53 -19 176 -10 162 11 199 16 199 27 0 15 -88 29 -101 17z"/>
</g>
<g id="part-4" class="char-part">
  <path d="M438 235 c3 -100 5 -116 18 -111 9 3 20 6 25 6 5 0 9 22 9 49 l0 48
81 6 c81 7 98 11 86 23 -9 9 -52 9 -111 -1 l-48 -8 3 49 4 49 -35 3 -35 3 3
-116z"/>
</g>
<g id="part-5" class="char-part">
  <path d="M625 129 c-44 -4 -100 -8 -125 -9 -73 -3 -120 -12 -120 -22 0 -5 10
-6 23 -2 12 4 96 8 187 10 91 1 167 3 170 3 9 3 -34 31 -44 30 -6 -1 -47 -5
-91 -10z"/>
  <path d="M250 100 c-67 -5 -72 -7 -49 -17 21 -9 40 -8 95 7 73 19 71 20 -46
10z"/>
</g>
</g>
</svg>