<?xml version="1.0" standalone="no"?>
<!DOCTYPE svg PUBLIC "-//W3C//DTD SVG 20010904//EN"
 "http://www.w3.org/TR/2001/REC-SVG-20010904/DTD/svg10.dtd">
<svg version="1.0" xmlns="http://www.w3.org/2000/svg"
 width="96.000000pt" height="68.000000pt" viewBox="0 0 96.000000 68.000000"
 preserveAspectRatio="xMidYMid meet">
<metadata>
Created by potrace 1.16, written by Peter Selinger 2001-2019
Combined from part_0.svg through part_5.svg with named groups
</metadata>
<g transform="translate(0.000000,68.000000) scale(0.100000,-0.100000)" fill="#000000" stroke="none">
<g id="part-0" class="char-part">
  <path d="M537 570 c-15 -5 -61 -11 -102 -15 -41 -4 -75 -11 -75 -15 0 -13 57
-22 90 -15 18 4 30 3 30 -4 0 -13 -75 -74 -118 -95 -19 -10 -31 -20 -28 -23 3
-4 27 4 51 16 82 41 102 5 31 -53 -45 -37 -73 -45 -94 -24 -9 9 -12 9 -12 1 0
-7 5 -15 10 -18 17 -11 11 -24 -17 -39 -34 -19 -7 -22 32 -4 22 10 29 9 47 -9
11 -12 18 -26 14 -31 -3 -6 -36 -27 -72 -47 -36 -20 -64 -39 -61 -41 5 -6 74
19 123 44 34 18 42 18 59 6 29 -21 38 -17 33 16 -3 22 2 36 19 52 12 12 26 18
30 15 10 -10 -13 -156 -28 -173 -9 -11 -22 -14 -46 -9 -20 4 -33 2 -33 -5 0
-5 3 -10 8 -10 4 0 20 -12 36 -27 33 -31 50 -25 81 27 14 24 20 58 23 122 3
48 7 88 11 88 3 0 26 -23 50 -51 59 -67 88 -81 151 -73 28 4 50 9 50 13 0 3
-15 12 -32 20 -88 37 -157 75 -193 106 -21 19 -37 36 -35 39 10 9 128 66 138
66 19 0 21 30 2 40 -31 17 -46 12 -78 -24 -16 -19 -41 -41 -54 -50 -24 -16
-26 -15 -62 19 -21 19 -42 35 -47 35 -22 0 -6 22 34 48 24 15 42 33 39 40 -2
8 11 12 45 13 81 1 111 12 83 29 -18 12 -95 11 -133 0z m-23 -206 c8 -21 -7
-47 -38 -64 -14 -7 -26 -17 -26 -22 0 -5 -14 -1 -31 7 -17 9 -29 18 -27 20 22
22 96 75 104 75 7 0 15 -7 18 -16z"/>
  <path d="M198 530 c28 -27 50 -40 64 -38 59 9 13 68 -57 75 l-50 5 43 -42z"/>
  <path d="M100 440 c0 -14 59 -68 83 -76 43 -14 46 49 4 65 -46 18 -87 23 -87
11z"/>
  <path d="M205 295 c-21 -33 -55 -77 -76 -97 -40 -39 -42 -64 -11 -100 20 -24
29 -23 37 5 4 12 27 68 52 125 24 57 43 108 40 115 -2 7 -21 -15 -42 -48z"/>
</g>
<g id="part-1" class="char-part">
  <path d="M170 563 c0 -15 66 -63 87 -63 38 0 30 38 -12 56 -36 15 -75 19 -75
7z"/>
  <path d="M132 406 c41 -40 78 -48 78 -17 0 26 -19 39 -70 46 l-45 7 37 -36z"/>
  <path d="M195 273 c-21 -32 -50 -68 -66 -81 -16 -13 -29 -33 -29 -45 1 -24 22
-57 36 -57 10 1 108 229 102 236 -3 2 -22 -22 -43 -53z"/>
</g>
<g id="part-2" class="char-part">
  <path d="M473 562 c-62 -8 -113 -19 -113 -23 0 -12 57 -21 90 -14 59 13 7 -43
-93 -101 -23 -13 -36 -24 -29 -24 42 0 226 106 218 126 -4 11 7 14 42 15 26 1
61 4 77 8 29 7 30 7 8 19 -27 15 -56 14 -200 -6z"/>
</g>
<g id="part-3" class="char-part">
  <path d="M477 407 c33 -36 41 -53 47 -99 8 -59 -8 -174 -27 -196 -7 -9 -23
-11 -51 -6 l-41 7 43 -37 c51 -42 53 -42 76 -17 30 33 45 92 46 179 0 98 -13
135 -64 180 -56 49 -77 41 -29 -11z"/>
</g>
<g id="part-4" class="char-part">
  <path d="M616 421 c-51 -51 -56 -61 -50 -86 10 -41 123 -155 154 -157 51 -3
110 2 110 10 0 4 -35 22 -77 40 -67 27 -172 98 -181 122 -2 4 33 25 78 45 44
21 80 42 80 46 0 5 -13 15 -28 23 -28 15 -29 14 -86 -43z"/>
</g>
</g>
</svg>