<?xml version="1.0" standalone="no"?>
<!DOCTYPE svg PUBLIC "-//W3C//DTD SVG 20010904//EN"
 "http://www.w3.org/TR/2001/REC-SVG-20010904/DTD/svg10.dtd">
<svg version="1.0" xmlns="http://www.w3.org/2000/svg"
 width="96.000000pt" height="68.000000pt" viewBox="0 0 96.000000 68.000000"
 preserveAspectRatio="xMidYMid meet">
<metadata>
Created by potrace 1.16, written by Peter Selinger 2001-2019
Combined from part_0.svg through part_5.svg with named groups
</metadata>
<g transform="translate(0.000000,68.000000) scale(0.100000,-0.100000)" fill="#000000" stroke="none">
<g id="part-0" class="char-part">
  <path d="M438 562 l-3 -67 -135 -10 c-134 -10 -135 -10 -109 -28 22 -14 34
-16 70 -8 24 5 74 12 112 16 l67 7 0 -45 c0 -53 -8 -57 -113 -57 -43 0 -66 -4
-62 -10 16 -27 16 -137 -1 -192 -16 -54 -16 -59 0 -83 23 -35 32 -25 41 40 l6
55 65 0 c44 0 64 -4 65 -12 1 -7 3 -35 4 -61 1 -26 5 -50 8 -54 9 -8 24 34 30
87 3 25 6 46 6 48 1 2 36 2 79 0 l77 -3 -3 -40 c-4 -52 -15 -62 -52 -48 -17 6
-30 8 -30 4 0 -10 71 -81 80 -81 5 0 18 12 29 26 18 23 21 41 21 125 0 53 5
121 12 149 17 72 1 84 -102 77 -41 -3 -82 -7 -90 -9 -11 -2 -16 8 -18 45 l-3
47 128 1 c70 1 136 1 146 0 28 -3 19 19 -14 33 -21 9 -45 10 -73 5 -22 -4 -72
-9 -111 -11 l-69 -3 3 51 c2 49 1 52 -28 62 l-30 11 -3 -67z m202 -227 l0 -35
-75 0 -75 0 0 35 0 35 75 0 75 0 0 -35z m-200 -12 l0 -38 -57 -2 c-61 -3 -73
5 -65 42 4 25 20 31 85 34 36 1 37 0 37 -36z m210 -68 c0 -30 -4 -32 -92 -39
l-68 -5 0 29 c0 31 9 34 118 38 39 2 42 0 42 -23z m-210 -18 l0 -32 -66 -3
-65 -3 3 28 c3 26 6 28 63 34 33 3 61 6 63 7 1 1 2 -13 2 -31z"/>
  <path d="M581 593 c42 -52 73 -69 98 -54 36 23 -23 71 -87 71 -22 0 -23 -2
-11 -17z"/>
</g>
<g id="part-1" class="char-part">
  <path d="M580 602 c0 -16 60 -62 81 -62 24 0 26 36 2 48 -30 16 -83 24 -83 14z"/>
</g>
<g id="part-2" class="char-part">
  <path d="M439 623 c0 -5 0 -33 1 -65 2 -66 8 -63 -162 -74 -60 -3 -108 -10
-108 -14 0 -18 52 -30 93 -21 23 5 72 12 110 16 l67 7 0 -199 c0 -174 7 -239
24 -222 13 13 26 149 26 282 l0 147 145 0 c142 0 169 6 125 30 -14 8 -57 9
-133 3 -62 -4 -116 -8 -122 -8 -6 0 -9 22 -7 52 4 49 2 53 -23 63 -32 12 -35
12 -36 3z"/>
</g>
<g id="part-3" class="char-part">
  <path d="M555 394 c-38 -7 -121 -15 -183 -16 -95 -3 -111 -5 -106 -18 16 -42
16 -124 -1 -186 -14 -52 -15 -71 -6 -90 21 -47 48 -12 50 64 l1 32 78 1 c42 0
116 4 164 7 98 8 101 6 91 -53 -7 -43 -19 -50 -58 -35 -15 6 -29 9 -31 7 -5
-5 77 -87 87 -87 5 0 17 9 28 21 16 17 20 40 24 147 3 70 9 141 12 159 6 28 4
33 -23 47 -35 18 -32 18 -127 0z m85 -57 l0 -34 -112 -6 c-62 -4 -134 -9 -160
-13 l-48 -7 0 36 c0 36 0 36 53 41 82 9 127 13 200 14 l67 2 0 -33z m10 -85
l0 -29 -102 -6 c-57 -4 -133 -10 -170 -13 -64 -7 -68 -6 -68 14 0 43 7 47 88
46 42 -1 97 2 122 6 25 4 64 8 88 9 40 1 42 0 42 -27z"/>
</g>
</g>
</svg>