<?xml version="1.0" standalone="no"?>
<!DOCTYPE svg PUBLIC "-//W3C//DTD SVG 20010904//EN"
 "http://www.w3.org/TR/2001/REC-SVG-20010904/DTD/svg10.dtd">
<svg version="1.0" xmlns="http://www.w3.org/2000/svg"
 width="96.000000pt" height="68.000000pt" viewBox="0 0 96.000000 68.000000"
 preserveAspectRatio="xMidYMid meet">
<metadata>
Created by potrace 1.16, written by Peter Selinger 2001-2019
Combined from part_0.svg through part_5.svg with named groups
</metadata>
<g transform="translate(0.000000,68.000000) scale(0.100000,-0.100000)" fill="#000000" stroke="none">
<g id="part-0" class="char-part">
  <path d="M237 584 c-3 -3 -2 -17 4 -31 19 -52 13 -61 -46 -68 -30 -4 -55 -11
-55 -15 0 -14 40 -22 76 -15 32 6 34 5 34 -24 0 -26 -4 -30 -40 -36 -21 -4
-49 -3 -61 0 -19 6 -21 4 -14 -11 4 -11 14 -45 22 -76 l15 -58 39 6 c38 6 39
6 39 -24 0 -33 9 -30 -125 -48 -74 -10 -28 -24 56 -17 l67 6 -5 -70 c-4 -48
-2 -73 6 -78 22 -13 40 28 41 93 l0 62 33 1 c17 0 50 4 72 8 39 8 39 8 15 18
-15 6 -45 8 -73 3 -54 -8 -57 -6 -50 31 4 24 8 26 42 22 l38 -4 24 63 c13 35
25 66 27 70 2 4 -10 14 -27 22 -22 12 -36 13 -56 6 -20 -8 -27 -7 -31 5 -11
28 4 42 51 49 40 6 45 9 34 23 -10 11 -23 13 -52 9 -38 -6 -39 -6 -32 23 4 20
1 33 -10 45 -16 16 -46 21 -58 10z m123 -194 c0 -5 -5 -32 -11 -60 -9 -42 -14
-50 -33 -50 -29 0 -35 7 -29 31 3 10 14 19 24 19 10 0 21 5 24 10 4 6 -5 10
-19 10 -21 0 -26 5 -26 23 0 20 5 24 35 25 19 1 35 -3 35 -8z m-101 -44 c-2
-2 -20 -6 -39 -8 -30 -2 -35 0 -38 19 -3 18 2 22 30 25 24 2 36 -2 42 -15 5
-9 7 -19 5 -21z m-1 -48 c-3 -25 -43 -37 -60 -20 -19 19 0 42 32 42 27 0 31
-3 28 -22z"/>
  <path d="M553 573 c-7 -2 -13 -14 -13 -26 0 -24 -30 -79 -63 -114 -35 -39 0
-25 43 16 32 30 49 39 76 39 19 0 34 -4 34 -10 0 -5 -14 -29 -31 -53 -31 -43
-34 -44 -99 -51 l-67 -6 13 -37 c7 -20 13 -43 14 -52 0 -19 30 -48 30 -30 0 6
11 11 25 11 29 0 30 -6 11 -51 -21 -50 -60 -98 -101 -126 -47 -32 -39 -40 13
-14 51 26 119 103 134 152 6 22 15 39 20 39 10 0 9 7 14 -70 6 -87 10 -102 34
-128 17 -18 31 -22 86 -22 62 0 134 20 134 37 0 13 -26 82 -33 89 -4 4 -7 -5
-7 -20 0 -16 -11 -38 -26 -53 -22 -22 -32 -25 -74 -21 -27 3 -56 11 -65 18
-17 14 -19 65 -6 123 5 21 5 37 0 37 -5 0 -9 4 -9 9 0 6 19 11 43 13 29 2 42
8 42 18 1 21 26 70 37 70 16 0 8 20 -15 35 -19 12 -34 13 -77 5 -29 -6 -55 -8
-58 -6 -5 5 90 96 101 96 14 0 7 19 -11 29 -13 7 -33 6 -65 -4 -42 -12 -73 -6
-47 10 16 10 12 42 -6 49 -9 3 -16 6 -17 5 -1 0 -8 -3 -14 -6z m140 -225 c-7
-42 -10 -45 -56 -53 l-38 -7 3 38 c3 34 7 40 33 45 62 13 65 12 58 -23z m-143
-26 c0 -35 -2 -38 -29 -40 -32 -2 -35 0 -45 40 -5 22 -2 27 16 31 55 10 58 9
58 -31z"/>
</g>
<g id="part-1" class="char-part">
  <path d="M244 538 l1 -53 -47 -3 c-64 -4 -61 -20 5 -24 45 -3 52 -6 55 -25 5
-32 30 -29 34 5 3 24 9 28 51 36 71 14 61 31 -15 26 -26 -1 -28 2 -28 34 0 25
-6 38 -19 46 -34 17 -39 12 -37 -42z"/>
</g>
<g id="part-2" class="char-part">
  <path d="M250 231 c0 -29 -2 -30 -57 -36 -85 -9 -105 -14 -97 -26 4 -7 31 -9
79 -4 l72 6 -5 -69 c-3 -50 -1 -71 8 -77 23 -14 40 25 40 92 l0 63 38 1 c20 0
55 4 77 8 l40 8 -27 11 c-16 6 -49 9 -78 5 -49 -6 -50 -5 -50 21 0 19 -5 26
-20 26 -15 0 -20 -7 -20 -29z"/>
</g>
<g id="part-3" class="char-part">
  <path d="M541 545 c-5 -19 -26 -58 -46 -85 -44 -59 -31 -65 28 -12 28 26 53
39 75 40 39 3 39 -3 7 -50 -28 -42 -30 -48 -13 -48 10 0 119 96 126 112 2 4
-6 12 -17 18 -16 8 -33 7 -71 -4 -54 -16 -56 -15 -38 13 9 15 9 23 -1 35 -21
26 -39 19 -50 -19z"/>
</g>
<g id="part-4" class="char-part">
  <path d="M605 389 c-55 -10 -117 -18 -137 -18 -35 -1 -37 -3 -28 -23 5 -13 14
-42 20 -65 6 -24 15 -43 20 -43 6 0 10 4 10 9 0 5 44 12 98 16 118 8 142 13
136 29 -2 6 7 27 21 46 l26 35 -22 18 c-12 9 -26 16 -33 16 -6 -1 -56 -10
-111 -20z m89 -46 c-4 -21 -7 -39 -8 -40 -1 -1 -21 -5 -44 -9 l-43 -7 3 39 c3
41 16 50 76 53 21 1 22 -2 16 -36z m-144 -23 c0 -38 -2 -40 -29 -40 -33 0 -35
2 -45 42 -5 22 -2 27 16 31 55 11 58 9 58 -33z"/>
</g>
<g id="part-5" class="char-part">
  <path d="M610 244 c0 -8 4 -12 10 -9 7 4 7 -3 0 -20 -12 -33 -13 -95 -1 -95 5
0 7 -9 4 -19 -12 -45 104 -75 182 -47 32 11 40 19 40 39 1 14 -5 34 -13 44
-14 17 -14 17 -9 -5 7 -29 -34 -62 -77 -62 -24 0 -27 -3 -16 -10 13 -8 12 -10
-2 -10 -10 0 -18 5 -18 11 0 6 -8 8 -20 4 -12 -4 -25 1 -36 13 -19 23 -26 106
-11 139 9 19 8 26 -4 34 -21 13 -29 11 -29 -7z m220 -164 c0 -5 -5 -10 -11
-10 -5 0 -7 5 -4 10 3 6 8 10 11 10 2 0 4 -4 4 -10z"/>
</g>
</g>
</svg>