<?xml version="1.0" standalone="no"?>
<!DOCTYPE svg PUBLIC "-//W3C//DTD SVG 20010904//EN"
 "http://www.w3.org/TR/2001/REC-SVG-20010904/DTD/svg10.dtd">
<svg version="1.0" xmlns="http://www.w3.org/2000/svg"
 width="96.000000pt" height="68.000000pt" viewBox="0 0 96.000000 68.000000"
 preserveAspectRatio="xMidYMid meet">
<metadata>
Created by potrace 1.16, written by Peter Selinger 2001-2019
Combined from part_0.svg through part_5.svg with named groups
</metadata>
<g transform="translate(0.000000,68.000000) scale(0.100000,-0.100000)" fill="#000000" stroke="none">
<g id="part-0" class="char-part">
  <path d="M325 545 c-22 -7 -69 -14 -104 -14 -60 -1 -63 -2 -49 -18 8 -10 23
-40 32 -66 16 -42 21 -48 40 -43 11 3 54 9 94 13 46 4 71 10 68 17 -2 6 7 31
21 54 14 24 21 48 17 52 -17 16 -79 18 -119 5z m45 -47 c0 -36 -12 -45 -68
-51 -50 -6 -53 -5 -63 20 -5 14 -7 28 -5 30 4 4 80 17 124 22 6 0 12 -9 12
-21z"/>
  <path d="M680 530 c-25 -5 -71 -11 -104 -15 -40 -5 -55 -10 -48 -17 7 -7 38
-8 99 -1 52 6 95 6 106 1 15 -8 17 -26 16 -181 -1 -170 -7 -224 -25 -220 -5 1
-23 5 -39 8 -30 7 -30 7 13 -34 34 -33 46 -39 60 -32 36 19 41 52 44 267 l3
212 -31 11 c-34 12 -30 12 -94 1z"/>
  <path d="M585 416 c-72 -14 -59 -30 17 -21 75 9 86 14 68 25 -8 6 -17 9 -20 9
-3 -1 -32 -6 -65 -13z"/>
  <path d="M380 369 c-19 -5 -83 -10 -142 -11 -103 -3 -107 -4 -101 -23 7 -23 5
-124 -3 -173 -6 -33 10 -67 27 -56 5 3 9 31 9 63 0 56 1 59 27 64 37 7 39 4
47 -43 8 -54 26 -51 26 4 0 41 2 44 30 48 30 5 30 4 30 -44 0 -36 4 -48 15
-48 11 0 15 12 15 44 0 49 1 51 48 61 l32 7 0 -50 c0 -66 -7 -82 -37 -82 l-24
0 30 -32 c30 -33 31 -33 50 -13 16 17 20 39 23 147 l4 127 -30 11 c-16 5 -32
10 -35 9 -3 -1 -22 -5 -41 -10z m-50 -65 c0 -23 -5 -34 -15 -35 -8 -1 -21 -2
-27 -3 -7 -1 -15 16 -19 36 -5 34 -4 37 20 40 37 5 41 1 41 -38z m104 8 c11
-40 6 -46 -33 -37 -26 5 -31 12 -31 34 0 34 8 43 34 39 13 -2 24 -15 30 -36z
m-201 -14 c6 -41 2 -48 -29 -48 -21 0 -24 4 -24 40 0 35 3 40 24 40 19 0 25
-6 29 -32z"/>
  <path d="M600 320 c-14 -4 -40 -8 -59 -9 -25 -1 -31 -4 -24 -13 5 -7 15 -31
21 -54 l12 -41 55 10 c35 7 55 15 55 24 0 8 7 28 16 45 13 25 14 32 2 39 -16
10 -44 10 -78 -1z m34 -47 c-4 -16 -7 -29 -8 -30 -1 -1 -14 -3 -30 -5 -24 -2
-30 1 -37 24 -8 30 -1 36 49 37 30 1 32 -1 26 -26z"/>
</g>
<g id="part-1" class="char-part">
  <path d="M330 539 c-14 -6 -58 -11 -97 -11 -55 -1 -69 -4 -59 -12 7 -6 22 -35
32 -63 18 -52 27 -62 39 -43 3 6 34 10 68 10 34 0 67 4 72 8 6 4 21 29 34 55
21 41 22 50 10 58 -18 11 -67 10 -99 -2z m40 -41 c0 -38 -15 -49 -72 -55 -52
-5 -55 -4 -61 18 -14 49 -13 50 106 57 22 2 27 -2 27 -20z"/>
</g>
<g id="part-2" class="char-part">
  <path d="M370 369 c-25 -5 -88 -11 -140 -12 l-95 -2 0 -122 c1 -67 4 -125 7
-129 18 -17 27 15 33 115 l7 108 62 7 c181 20 175 21 186 -9 12 -32 13 -165 1
-184 -5 -8 -18 -12 -30 -8 -29 7 -26 -4 9 -38 29 -28 30 -28 50 -10 17 16 20
31 20 117 0 55 5 109 11 120 22 41 -38 65 -121 47z"/>
</g>
<g id="part-3" class="char-part">
  <path d="M675 530 c-22 -5 -66 -12 -98 -15 -36 -4 -55 -10 -51 -17 6 -10 149
-3 179 8 7 3 20 -2 29 -11 13 -14 16 -42 16 -174 0 -87 -3 -173 -6 -191 -7
-31 -8 -32 -48 -26 l-41 6 42 -40 c45 -43 62 -44 87 -6 12 19 15 67 17 236 2
197 1 214 -16 227 -21 14 -49 15 -110 3z"/>
</g>
<g id="part-4" class="char-part">
  <path d="M580 416 c-80 -14 -59 -26 33 -19 65 6 83 15 51 27 -9 3 -16 5 -17 5
-1 -1 -31 -7 -67 -13z"/>
</g>
<g id="part-5" class="char-part">
  <path d="M635 309 c9 -13 13 -69 6 -65 -4 2 -15 0 -26 -5 -16 -6 -14 -8 14 -8
31 -1 33 1 27 25 -5 17 -3 23 4 19 5 -3 10 -2 10 4 0 5 3 16 6 25 5 12 0 16
-21 16 -16 0 -24 -4 -20 -11z"/>
  <path d="M525 300 c3 -5 12 -7 20 -3 21 7 19 13 -6 13 -11 0 -18 -4 -14 -10z"/>
  <path d="M578 303 c7 -3 16 -2 19 1 4 3 -2 6 -13 5 -11 0 -14 -3 -6 -6z"/>
  <path d="M541 251 c8 -22 17 -31 32 -30 17 1 18 2 5 6 -10 2 -18 10 -18 18 0
7 -7 18 -15 25 -13 11 -13 8 -4 -19z"/>
</g>
</g>
</svg>