<?xml version="1.0" standalone="no"?>
<!DOCTYPE svg PUBLIC "-//W3C//DTD SVG 20010904//EN"
 "http://www.w3.org/TR/2001/REC-SVG-20010904/DTD/svg10.dtd">
<svg version="1.0" xmlns="http://www.w3.org/2000/svg"
 width="96.000000pt" height="68.000000pt" viewBox="0 0 96.000000 68.000000"
 preserveAspectRatio="xMidYMid meet">
<metadata>
Created by potrace 1.16, written by Peter Selinger 2001-2019
Combined from part_0.svg through part_5.svg with named groups
</metadata>
<g transform="translate(0.000000,68.000000) scale(0.100000,-0.100000)" fill="#000000" stroke="none">
<g id="part-0" class="char-part">
  <path d="M277 593 c-3 -5 -8 -24 -12 -43 -10 -49 -47 -110 -116 -191 -33 -38
-54 -69 -46 -69 8 0 39 18 70 40 65 47 87 51 87 15 0 -22 -5 -25 -50 -31 -27
-4 -50 -10 -50 -14 0 -13 54 -22 84 -14 26 6 26 6 26 -54 0 -59 0 -60 -31 -66
-17 -3 -49 -6 -71 -6 -47 0 -47 -16 0 -43 26 -15 35 -16 54 -6 13 7 63 27 113
45 49 17 91 37 93 44 5 13 -13 12 -82 -6 l-27 -6 3 53 c3 53 4 54 41 63 48 12
47 24 -2 32 -31 5 -39 11 -38 25 1 13 12 21 35 25 56 11 31 29 -37 27 -33 -2
-61 0 -61 3 0 2 15 26 33 53 l32 48 29 -29 c31 -32 61 -34 61 -3 0 13 -13 26
-37 38 -23 11 -38 26 -38 36 0 10 -11 23 -25 29 -31 14 -32 14 -38 5z"/>
  <path d="M630 565 c-36 -7 -95 -13 -132 -14 l-66 -1 19 -52 c10 -29 19 -53 19
-53 0 0 24 0 52 0 42 0 53 -4 56 -17 3 -15 -4 -18 -37 -18 -23 0 -41 -4 -41
-10 0 -5 18 -10 40 -10 33 0 40 -3 40 -20 0 -16 -7 -20 -34 -20 -18 0 -55 -3
-82 -7 -36 -5 -43 -8 -29 -14 11 -4 34 -5 51 -2 24 4 32 1 36 -14 3 -10 9 -26
13 -36 6 -14 2 -17 -24 -17 -17 0 -31 -4 -31 -10 0 -5 23 -10 50 -10 46 0 50
-2 50 -24 0 -23 -4 -25 -80 -32 -44 -3 -83 -11 -87 -17 -4 -7 22 -8 80 -4 l87
6 0 -59 c0 -32 5 -71 11 -87 l12 -28 8 30 c4 17 11 57 16 90 l8 60 92 5 c50 3
94 8 98 11 12 13 -51 20 -119 14 -71 -7 -71 -7 -71 18 0 22 5 26 48 31 49 7
66 26 22 26 -30 0 -29 -1 -10 38 11 20 21 29 31 25 24 -9 128 7 116 19 -13 13
-71 15 -154 5 -63 -8 -68 -7 -68 10 0 12 8 19 23 20 42 4 68 14 61 24 -4 7
-23 9 -44 6 -31 -4 -39 -1 -43 13 -4 14 3 19 36 23 22 3 50 2 62 -3 19 -7 27
-2 54 35 38 53 38 63 5 75 -31 12 -59 11 -144 -5z m102 -45 c-4 -33 -12 -39
-43 -33 -25 5 -26 7 -15 34 8 24 16 29 36 27 20 -2 24 -8 22 -28z m-95 -7 c-3
-23 -9 -29 -35 -31 -30 -3 -32 -1 -32 27 0 29 3 31 35 31 33 0 35 -2 32 -27z
m-93 1 c13 -34 6 -44 -28 -44 -30 0 -34 3 -38 30 -4 28 -2 30 28 30 20 0 34
-6 38 -16z m104 -206 c-3 -31 -6 -33 -45 -36 -34 -3 -42 0 -37 11 3 9 -4 22
-17 30 -21 15 -21 16 12 20 88 10 91 10 87 -25z"/>
  <path d="M354 245 c-19 -47 -19 -47 21 -24 37 22 45 43 19 53 -23 9 -24 9 -40
-29z"/>
  <path d="M169 233 c21 -36 39 -53 54 -53 37 0 31 41 -9 59 -38 17 -57 15 -45
-6z"/>
</g>
<g id="part-1" class="char-part">
  <path d="M262 527 c-20 -57 -53 -104 -151 -221 -15 -18 -15 -18 9 -6 14 7 45
29 69 48 46 37 72 36 79 -3 5 -22 -14 -35 -55 -35 -17 0 -35 -4 -38 -10 -4 -6
13 -10 44 -10 l51 0 0 -37 c0 -21 3 -48 6 -60 5 -18 1 -24 -22 -30 -16 -4 -51
-7 -77 -6 l-49 1 24 -25 c28 -30 38 -28 171 22 104 40 130 62 46 40 -58 -16
-62 -12 -57 55 3 45 11 53 63 67 29 7 29 7 -11 11 -35 3 -43 7 -47 27 -5 30
-1 35 29 35 13 0 26 5 29 10 11 18 -24 23 -71 11 -26 -7 -49 -10 -52 -7 -3 3
12 31 32 62 l38 56 27 -26 c30 -28 61 -34 61 -12 0 18 -38 46 -63 46 -14 0
-17 5 -12 19 4 14 0 23 -14 30 -32 17 -35 14 -59 -52z"/>
  <path d="M357 244 c-20 -40 -13 -43 27 -10 29 23 29 24 10 34 -18 10 -23 7
-37 -24z"/>
  <path d="M170 241 c0 -19 47 -64 58 -57 16 9 15 31 0 44 -20 16 -58 24 -58 13z"/>
</g>
<g id="part-2" class="char-part">
  <path d="M625 563 c-44 -7 -107 -12 -141 -10 l-60 3 22 -55 23 -55 53 3 c29 1
82 7 117 12 44 7 67 7 75 -1 5 -5 13 -10 17 -10 7 0 79 95 79 104 0 7 -63 26
-84 25 -12 -1 -57 -8 -101 -16z m115 -30 c0 -34 -18 -47 -62 -48 -24 -1 -78
-5 -120 -10 -68 -7 -78 -6 -78 8 0 8 -2 22 -6 30 -4 11 15 16 98 24 163 16
168 15 168 -4z"/>
</g>
<g id="part-3" class="char-part">
  <path d="M640 515 c0 -30 15 -33 30 -6 14 27 13 31 -10 31 -15 0 -20 -7 -20
-25z"/>
</g>
<g id="part-4" class="char-part">
  <path d="M580 216 c0 -24 -3 -25 -80 -32 -44 -3 -80 -11 -80 -17 0 -6 29 -8
80 -4 89 6 83 12 81 -78 -1 -54 12 -87 27 -70 5 6 12 44 16 85 3 41 6 76 6 78
0 1 33 3 73 3 39 1 86 4 102 8 29 7 29 7 7 15 -13 4 -60 5 -104 1 -74 -7 -79
-6 -76 11 2 14 -4 20 -24 22 -24 3 -28 0 -28 -22z"/>
</g>
</g>
</svg>