<?xml version="1.0" standalone="no"?>
<!DOCTYPE svg PUBLIC "-//W3C//DTD SVG 20010904//EN"
 "http://www.w3.org/TR/2001/REC-SVG-20010904/DTD/svg10.dtd">
<svg version="1.0" xmlns="http://www.w3.org/2000/svg"
 width="96.000000pt" height="68.000000pt" viewBox="0 0 96.000000 68.000000"
 preserveAspectRatio="xMidYMid meet">
<metadata>
Created by potrace 1.16, written by Peter Selinger 2001-2019
Combined from part_0.svg through part_5.svg with named groups
</metadata>
<g transform="translate(0.000000,68.000000) scale(0.100000,-0.100000)" fill="#000000" stroke="none">
<g id="part-0" class="char-part">
  <path d="M410 627 c0 -17 37 -57 53 -57 7 0 6 -4 -3 -9 -8 -5 -53 -12 -100
-15 -47 -4 -100 -10 -119 -13 -32 -5 -33 -7 -16 -19 14 -10 37 -12 88 -7 91 8
99 -5 66 -115 -12 -37 -11 -44 1 -52 22 -14 37 23 45 108 l7 72 43 0 c50 0 55
-8 55 -81 0 -53 -17 -72 -45 -49 -22 19 -17 -1 8 -32 16 -20 28 -26 45 -21 28
7 35 33 30 122 l-3 71 83 0 c67 0 82 3 82 15 0 13 -49 32 -70 28 -3 0 -41 -4
-86 -7 l-81 -7 5 29 c3 26 0 31 -29 41 -42 14 -59 14 -59 -2z"/>
  <path d="M620 455 c0 -7 72 -75 92 -86 13 -7 18 -4 23 11 9 27 -1 39 -49 61
-40 18 -66 24 -66 14z"/>
  <path d="M263 433 c-3 -10 -17 -33 -30 -51 -14 -18 -23 -35 -21 -37 6 -7 97
59 103 74 6 15 -11 31 -33 31 -7 0 -15 -8 -19 -17z"/>
  <path d="M544 290 l6 -30 -75 0 c-61 0 -75 3 -75 15 0 17 -46 39 -61 30 -5 -3
-3 -14 3 -25 7 -11 9 -22 6 -26 -4 -3 -54 -9 -112 -11 -58 -3 -106 -10 -106
-14 0 -14 70 -22 141 -15 79 7 83 2 49 -64 -13 -25 -37 -49 -65 -66 -60 -35
-51 -42 12 -11 58 30 96 69 117 120 l15 37 75 0 76 0 0 -100 c0 -93 8 -118 26
-88 4 6 10 53 13 102 l6 91 65 2 c36 1 86 2 113 2 54 1 61 13 17 31 -21 9 -55
10 -110 6 -75 -7 -80 -6 -80 12 0 12 -9 22 -22 26 -37 10 -41 7 -34 -24z"/>
</g>
<g id="part-1" class="char-part">
  <path d="M416 616 c7 -19 48 -46 69 -46 22 0 18 27 -7 44 -29 21 -69 21 -62 2z"/>
  <path d="M440 549 c-96 -10 -188 -18 -205 -19 -30 -1 -30 -2 -7 -13 18 -8 55
-8 145 1 67 7 156 12 197 13 41 0 95 4 120 8 l45 8 -28 11 c-35 15 -48 14
-267 -9z"/>
</g>
<g id="part-2" class="char-part">
  <path d="M656 416 c52 -54 79 -62 79 -26 0 18 -10 30 -40 47 -22 12 -49 23
-61 23 -18 0 -15 -6 22 -44z"/>
  <path d="M260 432 c0 -9 -14 -34 -31 -55 -33 -40 -32 -44 9 -23 38 20 86 72
78 85 -12 19 -56 13 -56 -7z"/>
</g>
<g id="part-3" class="char-part">
  <path d="M542 293 l3 -28 -72 -3 c-61 -2 -73 0 -73 13 0 14 -36 35 -60 35 -5
0 -7 -13 -4 -28 6 -28 5 -29 -48 -35 -29 -4 -77 -7 -105 -7 -29 0 -53 -4 -53
-10 0 -17 49 -23 131 -16 68 6 79 4 79 -9 0 -31 -31 -76 -81 -115 -58 -46 -57
-47 3 -21 56 25 96 64 120 118 l19 43 74 0 75 0 0 -100 c0 -93 8 -118 26 -88
4 6 10 53 13 102 l6 91 113 3 c61 1 112 6 112 11 0 22 -62 33 -140 27 -75 -7
-80 -6 -80 12 0 20 -18 32 -47 32 -10 0 -13 -8 -11 -27z"/>
</g>
</g>
</svg>