<?xml version="1.0" standalone="no"?>
<!DOCTYPE svg PUBLIC "-//W3C//DTD SVG 20010904//EN"
 "http://www.w3.org/TR/2001/REC-SVG-20010904/DTD/svg10.dtd">
<svg version="1.0" xmlns="http://www.w3.org/2000/svg"
 width="96.000000pt" height="68.000000pt" viewBox="0 0 96.000000 68.000000"
 preserveAspectRatio="xMidYMid meet">
<metadata>
Created by potrace 1.16, written by Peter Selinger 2001-2019
Combined from part_0.svg through part_5.svg with named groups
</metadata>
<g transform="translate(0.000000,68.000000) scale(0.100000,-0.100000)" fill="#000000" stroke="none">
<g id="part-0" class="char-part">
  <path d="M382 607 c2 -60 -14 -75 -89 -82 -88 -8 -100 -12 -85 -27 7 -7 38
-11 72 -10 l60 2 -15 -30 c-17 -33 -107 -108 -164 -137 -20 -10 -42 -24 -51
-32 -44 -42 138 29 192 74 16 14 34 23 39 19 5 -3 9 -45 9 -93 l0 -88 -92 -2
c-96 -2 -108 -5 -92 -21 13 -13 67 -15 138 -6 55 8 58 8 48 -10 -14 -26 -52
-66 -80 -84 -30 -19 -21 -55 12 -45 53 15 182 47 223 54 43 8 47 7 70 -20 33
-39 55 -38 51 2 -3 27 -11 36 -60 63 -59 31 -84 31 -52 -1 17 -17 14 -19 -72
-35 -130 -25 -135 -24 -80 18 34 28 45 42 41 55 -6 18 3 19 154 19 130 0 161
3 161 14 0 19 -66 33 -120 25 -25 -3 -82 -9 -127 -13 -78 -7 -83 -6 -83 12 0
17 11 21 77 31 42 6 79 13 81 16 13 12 -34 16 -85 7 -62 -11 -78 -6 -67 21 4
12 19 17 53 18 25 1 60 5 76 9 l30 7 -26 7 c-14 4 -49 3 -78 -2 -50 -9 -51 -9
-51 14 0 21 5 24 38 25 57 2 95 13 100 28 4 11 -4 12 -39 6 -24 -4 -68 -9 -97
-10 l-53 -3 17 26 c63 97 70 96 204 -19 57 -49 115 -92 129 -96 32 -8 137 9
132 22 -2 6 -42 24 -90 40 -66 24 -187 92 -229 129 -1 2 26 4 60 5 75 2 100 9
95 24 -7 21 -62 27 -141 16 -43 -5 -80 -8 -83 -5 -3 3 2 17 11 30 22 34 20 41
-9 54 -47 22 -65 16 -63 -21z"/>
</g>
<g id="part-1" class="char-part">
  <path d="M387 594 c-2 -25 -9 -50 -15 -56 -5 -5 -47 -15 -92 -20 -62 -8 -78
-13 -65 -21 9 -5 44 -7 76 -5 33 2 59 1 59 -3 0 -21 -116 -129 -174 -163 -37
-21 -65 -41 -63 -43 3 -2 29 6 59 17 78 29 156 88 203 154 27 38 47 56 62 56
13 0 65 -38 132 -95 62 -52 117 -95 124 -96 30 -2 99 3 124 10 24 6 18 10 -57
34 -58 18 -113 45 -174 86 l-89 59 82 7 c44 4 81 11 81 16 0 17 -54 22 -136
13 -90 -10 -97 -7 -73 38 12 23 -1 41 -37 52 -19 6 -22 2 -27 -40z"/>
</g>
<g id="part-2" class="char-part">
  <path d="M450 408 c-19 -5 -52 -8 -72 -5 -37 5 -59 -5 -38 -18 5 -3 10 -44 10
-91 0 -77 2 -84 20 -84 13 0 20 7 20 18 0 16 14 21 87 32 64 9 82 15 69 22
-16 9 -52 6 -129 -9 -26 -4 -28 -2 -25 19 2 17 10 24 33 26 82 7 115 14 109
24 -4 6 -30 8 -70 3 -59 -6 -64 -5 -64 13 0 16 10 20 61 26 71 8 91 15 83 27
-7 11 -49 10 -94 -3z"/>
</g>
<g id="part-3" class="char-part">
  <path d="M490 219 c-52 -5 -149 -13 -215 -17 -72 -4 -119 -11 -117 -17 5 -18
57 -25 112 -14 30 6 144 13 253 16 148 4 197 9 197 18 0 27 -51 30 -230 14z"/>
</g>
<g id="part-4" class="char-part">
  <path d="M334 140 c-16 -21 -42 -45 -57 -51 -20 -9 -27 -18 -25 -33 4 -26 10
-26 170 13 l126 31 30 -30 c38 -38 52 -38 52 0 0 25 -8 34 -52 60 -63 36 -90
40 -63 10 10 -11 16 -22 14 -24 -4 -5 -177 -36 -194 -36 -5 1 10 18 34 39 25
22 41 44 37 50 -14 22 -43 10 -72 -29z"/>
</g>
</g>
</svg>