<?xml version="1.0" standalone="no"?>
<!DOCTYPE svg PUBLIC "-//W3C//DTD SVG 20010904//EN"
 "http://www.w3.org/TR/2001/REC-SVG-20010904/DTD/svg10.dtd">
<svg version="1.0" xmlns="http://www.w3.org/2000/svg"
 width="96.000000pt" height="68.000000pt" viewBox="0 0 96.000000 68.000000"
 preserveAspectRatio="xMidYMid meet">
<metadata>
Created by potrace 1.16, written by Peter Selinger 2001-2019
Combined from part_0.svg through part_5.svg with named groups
</metadata>
<g transform="translate(0.000000,68.000000) scale(0.100000,-0.100000)" fill="#000000" stroke="none">
<g id="part-0" class="char-part">
  <path d="M550 609 c0 -26 -3 -28 -42 -31 -51 -4 -53 -22 -4 -26 27 -2 33 -7
29 -21 -5 -21 -29 -26 -166 -37 -49 -4 -84 -10 -78 -13 5 -4 19 -28 30 -54 11
-26 26 -46 32 -45 6 2 13 -2 16 -8 5 -15 -44 -24 -133 -24 -59 0 -74 -3 -74
-15 0 -18 37 -19 124 -5 33 5 62 8 64 6 10 -11 -81 -80 -152 -116 -45 -21 -76
-40 -70 -40 27 0 114 32 157 60 l48 30 -2 -60 c-1 -33 0 -63 4 -66 3 -3 45 -1
94 5 48 6 112 11 141 11 51 0 52 -1 52 -29 0 -16 -5 -42 -10 -57 -9 -23 -15
-26 -40 -20 -38 7 -38 -7 0 -34 25 -17 32 -19 49 -8 24 15 38 47 46 109 7 44
6 47 -21 53 -15 4 -61 6 -103 5 -87 -3 -109 15 -31 26 62 8 58 25 -5 17 -27
-3 -45 -1 -45 6 0 12 24 22 55 22 13 0 27 5 30 10 4 6 -12 10 -40 10 -28 0
-44 4 -40 10 3 6 22 10 41 10 33 0 46 13 21 23 -6 2 -41 0 -75 -5 -35 -5 -67
-7 -70 -3 -13 13 40 45 75 45 48 0 85 -20 171 -90 73 -59 74 -60 138 -60 35 0
64 4 64 9 0 5 -24 15 -52 21 -57 14 -120 43 -194 90 l-47 29 94 3 c94 3 94 3
64 20 -19 10 -44 15 -65 12 -93 -12 -206 -20 -217 -16 -7 2 -13 8 -13 12 0 11
105 24 125 16 17 -6 49 24 72 68 15 30 7 45 -24 46 -18 0 -16 14 5 33 13 12
37 17 76 17 71 0 74 23 4 28 -34 2 -47 8 -51 21 -2 10 -16 20 -31 23 -23 5
-26 2 -26 -23z m-10 -132 c0 -13 -147 -36 -184 -29 -35 7 -7 27 45 33 101 11
139 10 139 -4z m-10 -41 c0 -14 -66 -26 -142 -26 -57 0 -46 18 15 24 70 8 110
13 120 15 4 0 7 -5 7 -13z m-106 -171 c-7 -16 -49 -21 -58 -6 -8 13 5 21 35
21 21 0 27 -4 23 -15z m-4 -40 c0 -10 -10 -15 -30 -15 -20 0 -30 5 -30 15 0
10 10 15 30 15 20 0 30 -5 30 -15z m0 -40 c0 -8 -9 -15 -20 -15 -11 0 -23 0
-27 -1 -5 0 -9 6 -11 13 -1 8 9 14 28 15 21 2 30 -2 30 -12z"/>
  <path d="M310 616 c0 -3 4 -16 10 -30 l10 -26 -61 0 c-52 0 -60 -2 -57 -17 3
-15 14 -18 71 -16 38 1 67 -2 67 -7 0 -19 28 -10 33 10 3 12 14 20 25 20 12 0
24 5 27 10 4 6 -8 10 -29 10 -29 0 -36 4 -36 19 0 19 -18 31 -46 31 -8 0 -14
-2 -14 -4z"/>
  <path d="M390 122 c0 -5 11 -19 24 -31 30 -28 45 -10 16 19 -21 21 -40 26 -40
12z"/>
  <path d="M480 120 c0 -5 11 -17 26 -26 34 -23 56 -4 23 20 -26 18 -49 21 -49
6z"/>
  <path d="M213 85 c-13 -27 -14 -38 -5 -47 18 -18 42 9 42 48 0 44 -16 43 -37
-1z"/>
  <path d="M300 115 c0 -12 33 -55 41 -55 17 0 9 39 -10 50 -22 11 -31 13 -31 5z"/>
</g>
<g id="part-1" class="char-part">
  <path d="M557 623 c-4 -3 -7 -14 -7 -24 0 -20 -19 -29 -63 -30 -31 0 -31 -1
-8 -10 13 -5 32 -7 42 -4 14 5 19 1 19 -14 0 -27 16 -27 30 -1 9 17 21 20 70
20 32 0 61 4 64 9 9 13 -46 23 -79 15 -23 -6 -27 -4 -22 8 9 25 -27 50 -46 31z"/>
  <path d="M322 590 c18 -28 -2 -40 -67 -40 -46 0 -48 -1 -32 -17 15 -15 22 -15
68 -4 46 12 53 12 61 -3 12 -22 28 -20 28 3 0 12 12 22 33 29 l32 12 -37 -6
c-35 -5 -38 -3 -38 21 0 21 -5 25 -30 25 -28 0 -29 -2 -18 -20z"/>
</g>
<g id="part-2" class="char-part">
  <path d="M495 510 c-22 -5 -80 -12 -128 -15 -80 -7 -86 -9 -74 -24 8 -9 20
-33 27 -54 11 -35 15 -38 39 -32 15 3 65 7 112 9 l84 3 29 47 c18 29 26 50 20
56 -15 15 -65 19 -109 10z m45 -34 c0 -11 -23 -16 -95 -21 -91 -7 -117 -4
-101 12 8 8 88 19 154 22 30 1 42 -3 42 -13z m-10 -40 c0 -14 -66 -26 -142
-26 -59 0 -45 18 20 25 31 3 66 7 77 9 41 6 45 6 45 -8z"/>
</g>
<g id="part-3" class="char-part">
  <path d="M370 376 c0 -17 -44 -26 -131 -26 -37 0 -71 -5 -74 -10 -12 -19 28
-24 104 -13 42 6 77 10 78 9 11 -10 -76 -74 -151 -112 -76 -39 -85 -45 -51
-40 65 12 158 60 219 115 49 45 62 51 99 51 46 0 55 -5 165 -92 70 -56 76 -58
132 -58 32 0 61 4 64 8 3 5 -23 17 -57 26 -34 10 -100 38 -146 64 l-84 47 87
3 c88 3 108 14 59 33 -19 7 -46 7 -89 0 -77 -14 -181 -14 -189 -1 -9 15 -35
12 -35 -4z"/>
</g>
<g id="part-4" class="char-part">
  <path d="M216 96 c-18 -34 -17 -66 2 -66 22 0 36 36 33 83 -2 27 -15 20 -35
-17z"/>
  <path d="M390 122 c0 -5 11 -19 24 -31 30 -28 45 -10 16 19 -21 21 -40 26 -40
12z"/>
  <path d="M480 121 c0 -18 50 -45 61 -34 6 6 5 13 -3 20 -21 17 -58 26 -58 14z"/>
  <path d="M315 90 c9 -16 20 -30 25 -30 18 0 10 39 -9 50 -30 16 -33 12 -16
-20z"/>
</g>
</g>
</svg>