<?xml version="1.0" standalone="no"?>
<!DOCTYPE svg PUBLIC "-//W3C//DTD SVG 20010904//EN"
 "http://www.w3.org/TR/2001/REC-SVG-20010904/DTD/svg10.dtd">
<svg version="1.0" xmlns="http://www.w3.org/2000/svg"
 width="96.000000pt" height="68.000000pt" viewBox="0 0 96.000000 68.000000"
 preserveAspectRatio="xMidYMid meet">
<metadata>
Created by potrace 1.16, written by Peter Selinger 2001-2019
Combined from part_0.svg through part_5.svg with named groups
</metadata>
<g transform="translate(0.000000,68.000000) scale(0.100000,-0.100000)" fill="#000000" stroke="none">
<g id="part-0" class="char-part">
  <path d="M255 533 c-16 -9 -44 -16 -61 -15 l-31 1 5 -130 c3 -75 -1 -169 -8
-220 -12 -92 -8 -129 15 -129 17 0 22 49 30 275 4 93 8 171 10 173 8 9 75 19
75 12 0 -4 -6 -20 -14 -34 -14 -27 -11 -66 4 -66 12 0 32 -63 23 -71 -5 -4
-17 -9 -28 -11 -17 -3 -15 -7 13 -22 63 -33 84 22 32 83 -27 32 -28 36 -14 62
8 16 28 39 44 51 17 12 30 27 30 34 0 28 -78 32 -125 7z"/>
  <path d="M590 540 c-25 -4 -72 -11 -105 -15 -52 -7 -57 -9 -37 -18 15 -7 56
-7 131 0 116 12 149 21 115 34 -23 9 -45 9 -104 -1z"/>
  <path d="M580 461 c-19 -5 -61 -12 -92 -16 -50 -5 -56 -9 -48 -23 4 -9 14 -32
21 -50 10 -27 16 -32 33 -28 12 3 56 6 99 7 52 1 76 5 74 13 -3 6 7 26 20 44
17 22 22 37 15 44 -14 14 -81 19 -122 9z m54 -48 c-4 -16 -8 -29 -8 -30 -1 -1
-35 -6 -74 -9 l-72 -7 0 31 c0 33 5 35 123 40 36 2 37 1 31 -25z"/>
  <path d="M680 319 c-91 -18 -273 -39 -294 -33 -20 5 -21 1 -21 -58 0 -35 -3
-79 -8 -98 -7 -35 12 -84 28 -69 3 4 11 49 17 100 6 52 16 97 22 101 18 12 46
9 46 -5 0 -8 9 -25 21 -38 l21 -24 -31 -3 c-50 -5 -35 -22 19 -22 l50 0 0 -50
c0 -38 4 -50 15 -50 9 0 16 10 17 28 1 15 2 35 3 44 1 25 10 30 57 35 49 4 76
22 38 25 -14 0 -33 1 -42 0 -28 -3 -21 15 12 35 34 20 37 28 14 37 -27 11 -33
7 -54 -34 -16 -30 -26 -40 -45 -40 -18 0 -25 5 -25 20 0 12 -10 25 -25 32 -14
6 -25 14 -25 18 0 7 133 20 213 20 l47 0 0 -82 c0 -100 -8 -117 -45 -100 -21
10 -25 10 -19 0 41 -71 73 -86 95 -46 7 12 13 72 15 134 3 110 3 111 -22 123
-28 12 -31 12 -94 0z"/>
</g>
<g id="part-1" class="char-part">
  <path d="M253 532 c-56 -21 -55 -35 3 -26 l45 6 -15 -37 c-9 -21 -14 -40 -11
-43 7 -8 95 79 95 94 0 12 -33 25 -60 23 -8 -1 -34 -9 -57 -17z"/>
</g>
<g id="part-2" class="char-part">
  <path d="M160 501 c13 -26 13 -255 -1 -341 -13 -74 -7 -120 15 -120 19 0 24
41 32 278 l6 202 -31 0 c-28 0 -31 -2 -21 -19z"/>
</g>
<g id="part-3" class="char-part">
  <path d="M575 539 c-33 -4 -79 -11 -103 -14 -26 -4 -40 -10 -36 -17 7 -11 149
-5 237 9 30 4 35 8 26 19 -13 15 -34 16 -124 3z"/>
</g>
<g id="part-4" class="char-part">
  <path d="M615 465 c-5 -2 -50 -9 -98 -15 -63 -9 -85 -15 -79 -24 5 -6 14 -31
21 -55 9 -32 15 -41 24 -32 6 6 43 11 82 12 38 0 79 4 90 9 11 5 16 9 11 9 -4
1 4 17 19 37 15 19 25 37 24 38 -24 21 -68 30 -94 21z m20 -52 c-4 -16 -8 -29
-10 -31 -1 -2 -35 -6 -74 -9 l-71 -6 0 26 c0 27 6 30 70 40 14 3 40 5 59 6 31
1 33 0 26 -26z"/>
</g>
<g id="part-5" class="char-part">
  <path d="M665 310 l-40 -7 35 -3 c72 -5 85 -7 101 -14 10 -5 16 -2 16 9 0 8
-3 16 -6 16 -20 5 -72 4 -106 -1z"/>
  <path d="M545 290 c-7 -12 12 -12 40 0 18 8 17 9 -7 9 -15 1 -30 -3 -33 -9z"/>
  <path d="M786 284 c-3 -9 -12 -14 -19 -11 -10 4 -13 -16 -15 -81 -2 -87 -10
-106 -41 -94 -14 5 -14 4 -1 -14 55 -74 71 -57 75 83 2 50 6 101 10 112 7 25
0 28 -9 5z"/>
  <path d="M375 223 c2 -37 -1 -73 -7 -83 -6 -10 -8 -29 -3 -46 l7 -29 10 25 c6
14 12 43 14 65 2 22 6 59 8 82 4 34 1 42 -15 46 -17 5 -18 0 -14 -60z"/>
  <path d="M493 283 c9 -2 23 -2 30 0 6 3 -1 5 -18 5 -16 0 -22 -2 -12 -5z"/>
</g>
</g>
</svg>