<?xml version="1.0" standalone="no"?>
<!DOCTYPE svg PUBLIC "-//W3C//DTD SVG 20010904//EN"
 "http://www.w3.org/TR/2001/REC-SVG-20010904/DTD/svg10.dtd">
<svg version="1.0" xmlns="http://www.w3.org/2000/svg"
 width="96.000000pt" height="68.000000pt" viewBox="0 0 96.000000 68.000000"
 preserveAspectRatio="xMidYMid meet">
<metadata>
Created by potrace 1.16, written by Peter Selinger 2001-2019
Combined from part_0.svg through part_5.svg with named groups
</metadata>
<g transform="translate(0.000000,68.000000) scale(0.100000,-0.100000)" fill="#000000" stroke="none">
<g id="part-0" class="char-part">
  <path d="M415 610 c-3 -5 7 -22 21 -40 15 -17 25 -32 23 -34 -2 -2 -43 -6 -91
-9 -81 -4 -88 -3 -101 17 -14 21 -15 20 -33 -19 -10 -22 -24 -47 -31 -56 -8
-9 -11 -24 -7 -33 10 -27 43 -18 65 18 17 30 25 34 72 39 28 2 53 3 55 2 8 -7
-32 -56 -61 -74 -26 -17 -28 -21 -12 -21 25 0 84 35 91 55 4 8 12 15 20 15 8
0 14 9 14 20 0 17 7 20 40 20 39 0 40 -1 40 -35 0 -29 5 -37 27 -46 36 -13
145 -8 151 9 3 9 -15 12 -67 12 l-71 0 0 30 c0 35 27 50 86 50 39 0 40 -2 17
-37 l-17 -25 45 7 c93 16 110 34 63 69 -22 16 -37 18 -98 13 -39 -4 -88 -9
-108 -13 -34 -6 -38 -4 -38 13 0 12 -6 26 -14 32 -20 17 -75 31 -81 21z"/>
  <path d="M510 386 c0 -28 -24 -56 -48 -56 -9 0 -25 14 -34 30 -11 19 -25 30
-39 30 -21 0 -21 -1 -4 -26 9 -14 14 -28 11 -31 -3 -3 -25 -8 -51 -10 -62 -8
-57 -25 8 -23 95 3 99 2 95 -22 -3 -20 -10 -24 -60 -28 -80 -7 -84 -20 -5 -20
64 0 67 -1 67 -24 0 -21 -5 -24 -61 -30 -34 -3 -82 -6 -105 -6 -47 0 -59 -14
-21 -23 12 -4 76 -2 142 3 66 5 170 10 230 10 l110 1 -25 20 c-20 17 -33 20
-80 15 -135 -14 -145 -13 -145 13 0 17 6 25 20 26 55 5 105 18 105 27 0 7 -21
9 -60 5 -58 -7 -60 -6 -60 17 0 22 5 25 70 33 83 10 93 29 15 27 -30 -1 -55 1
-55 3 0 3 10 13 22 22 25 21 17 41 -18 41 -19 0 -24 -5 -24 -24z"/>
  <path d="M217 79 c-30 -42 -30 -69 1 -69 29 0 58 69 39 94 -10 13 -16 10 -40
-25z"/>
  <path d="M690 70 c23 -27 48 -50 56 -50 15 0 19 37 6 55 -13 19 -61 45 -83 45
-19 0 -16 -5 21 -50z"/>
  <path d="M360 106 c0 -11 43 -76 50 -76 26 0 18 55 -8 64 -10 3 -23 9 -29 12
-7 3 -13 3 -13 0z"/>
  <path d="M500 102 c0 -18 57 -75 68 -68 19 12 14 44 -10 60 -24 17 -58 21 -58
8z"/>
</g>
<g id="part-1" class="char-part">
  <path d="M420 603 c0 -3 11 -21 24 -38 l25 -32 -61 -7 c-98 -10 -130 -8 -143
11 -11 15 -16 11 -39 -35 -14 -28 -26 -59 -26 -67 0 -26 32 -13 55 21 20 31
22 32 175 53 155 21 260 27 260 14 0 -4 -10 -18 -22 -31 l-23 -25 30 7 c118
28 123 32 74 67 -29 21 -35 21 -112 10 -99 -13 -140 -14 -133 -2 11 17 -6 40
-36 50 -36 13 -48 14 -48 4z"/>
</g>
<g id="part-2" class="char-part">
  <path d="M538 523 c-14 -3 -18 -15 -18 -44 0 -33 4 -41 26 -49 39 -15 157 -13
152 3 -3 7 -29 13 -69 15 -73 3 -86 11 -69 42 13 25 4 39 -22 33z"/>
  <path d="M354 451 c-55 -53 -58 -58 -31 -50 51 14 117 68 117 94 0 28 -26 15
-86 -44z"/>
</g>
<g id="part-3" class="char-part">
  <path d="M510 386 c0 -51 -62 -77 -74 -31 -4 15 -16 27 -32 31 -34 9 -41 -2
-19 -27 17 -17 17 -22 5 -29 -8 -6 -34 -10 -58 -10 -26 0 -41 -4 -37 -10 13
-21 346 3 345 25 0 6 -23 11 -51 13 -49 3 -50 4 -34 22 21 23 12 40 -21 40
-19 0 -24 -5 -24 -24z"/>
</g>
<g id="part-4" class="char-part">
  <path d="M464 302 c-7 -4 -13 -16 -15 -27 -4 -16 -14 -21 -61 -25 -80 -7 -84
-20 -5 -20 65 0 67 -1 67 -25 0 -14 -1 -25 -2 -25 -2 0 -48 -3 -103 -6 -103
-7 -113 -9 -101 -21 9 -9 33 -9 294 2 184 7 202 10 187 24 -12 12 -34 15 -108
13 -50 -2 -100 -5 -109 -8 -14 -4 -18 1 -18 20 0 27 7 31 89 41 24 2 46 7 48
9 10 10 -43 17 -83 11 -42 -6 -44 -5 -44 19 0 26 -14 33 -36 18z"/>
</g>
<g id="part-5" class="char-part">
  <path d="M666 106 c3 -9 10 -13 15 -10 5 3 9 0 9 -6 0 -6 4 -8 10 -5 6 3 7 -1
4 -9 -3 -9 -1 -16 6 -16 6 0 9 -4 6 -8 -2 -4 4 -13 14 -19 15 -10 19 -9 23 8
3 10 1 19 -4 19 -5 0 -9 6 -9 14 0 8 -15 20 -32 27 -18 7 -36 14 -41 17 -4 2
-4 -3 -1 -12z"/>
  <path d="M226 91 c-7 -11 3 -41 14 -41 5 0 12 5 15 10 3 6 1 10 -4 10 -6 0
-11 5 -11 11 0 5 5 7 10 4 6 -3 10 -1 10 4 0 13 -27 15 -34 2z"/>
  <path d="M377 80 c3 -10 12 -25 19 -31 12 -10 13 -8 8 7 -5 18 -5 18 10 0 9
-11 16 -15 16 -10 0 11 -42 54 -52 54 -3 0 -4 -9 -1 -20z"/>
  <path d="M526 85 c-3 -9 1 -18 9 -21 8 -4 12 -10 9 -15 -3 -5 4 -9 15 -9 12 0
21 5 21 11 0 5 -5 7 -12 3 -7 -4 -8 -3 -4 5 8 12 -10 41 -24 41 -4 0 -11 -7
-14 -15z"/>
  <path d="M201 53 c-12 -24 0 -46 22 -37 20 7 21 13 2 37 -13 18 -14 18 -24 0z"/>
</g>
</g>
</svg>