<?xml version="1.0" standalone="no"?>
<!DOCTYPE svg PUBLIC "-//W3C//DTD SVG 20010904//EN"
 "http://www.w3.org/TR/2001/REC-SVG-20010904/DTD/svg10.dtd">
<svg version="1.0" xmlns="http://www.w3.org/2000/svg"
 width="96.000000pt" height="68.000000pt" viewBox="0 0 96.000000 68.000000"
 preserveAspectRatio="xMidYMid meet">
<metadata>
Created by potrace 1.16, written by Peter Selinger 2001-2019
Combined from part_0.svg through part_5.svg with named groups
</metadata>
<g transform="translate(0.000000,68.000000) scale(0.100000,-0.100000)" fill="#000000" stroke="none">
<g id="part-0" class="char-part">
  <path d="M548 592 c-3 -34 -6 -37 -48 -48 -43 -11 -44 -12 -20 -21 14 -6 31
-8 39 -5 10 4 12 -2 6 -26 -8 -40 11 -36 40 8 19 28 24 30 82 30 34 0 64 4 68
9 9 16 -35 34 -71 28 -30 -5 -33 -3 -36 21 -2 18 -11 28 -30 33 -25 7 -27 5
-30 -29z"/>
  <path d="M290 588 c0 -8 7 -23 15 -35 14 -19 13 -21 -17 -27 -17 -3 -46 -6
-64 -6 -36 0 -42 -8 -22 -28 14 -14 67 -16 101 -3 21 8 26 6 36 -15 15 -33 31
-30 31 6 0 25 5 31 33 38 40 10 33 28 -10 24 -28 -2 -32 0 -35 25 -2 23 -8 29
-35 31 -23 2 -33 -1 -33 -10z"/>
  <path d="M526 436 c-16 -19 -47 -44 -70 -57 -56 -31 -28 -36 31 -6 54 28 153
44 153 24 0 -7 -15 -22 -33 -34 -34 -24 -52 -30 -43 -14 6 10 -16 21 -42 21
-12 0 -9 -6 12 -23 l28 -23 -39 -18 c-22 -10 -53 -27 -69 -38 -28 -19 -28 -19
-4 -13 73 20 275 143 275 168 0 13 -68 15 -125 3 -30 -6 -32 -6 -15 5 30 18
31 19 15 29 -26 17 -44 11 -74 -24z"/>
  <path d="M317 390 c5 -54 4 -57 -18 -63 -49 -13 -56 -9 -55 30 1 27 -3 38 -15
41 -12 2 -18 -6 -22 -30 -3 -18 -8 -43 -12 -55 -10 -31 16 -40 59 -19 53 25
68 22 64 -16 -3 -33 -3 -33 -83 -47 -44 -8 -82 -16 -85 -18 -8 -7 25 -23 37
-18 36 13 14 -55 -35 -107 -14 -15 -23 -31 -19 -34 8 -8 117 100 119 118 0 7
1 20 2 28 1 9 13 16 35 18 l33 3 -6 -88 c-7 -99 2 -131 27 -92 13 19 16 62 18
209 l2 184 -25 7 -26 7 5 -58z"/>
  <path d="M452 328 c6 -17 36 -34 45 -24 4 4 -1 14 -11 22 -24 17 -39 18 -34 2z"/>
  <path d="M624 282 l7 -29 -102 -12 c-55 -7 -111 -16 -123 -21 -21 -8 -20 -8 4
-14 14 -4 55 -2 90 3 36 6 82 11 103 11 l37 0 0 -80 c0 -79 0 -80 -26 -80 -14
0 -34 5 -44 10 -16 8 -18 8 -14 -5 4 -8 11 -15 17 -15 6 0 23 -11 37 -25 30
-29 55 -25 64 8 3 12 6 61 6 110 0 76 2 87 18 88 9 1 22 2 27 4 6 1 30 3 54 3
39 2 42 4 30 18 -10 12 -26 15 -71 12 -52 -4 -57 -2 -60 16 -2 15 -12 22 -31
24 -27 3 -29 2 -23 -26z"/>
  <path d="M470 173 c1 -16 39 -53 54 -53 27 0 19 39 -10 50 -30 12 -44 13 -44
3z"/>
</g>
<g id="part-1" class="char-part">
  <path d="M555 608 c-2 -7 -5 -24 -7 -38 -3 -21 -9 -25 -41 -28 -43 -4 -40 -22
4 -22 27 0 29 -2 23 -27 l-6 -28 29 32 c24 27 37 32 91 38 34 4 62 11 62 16 0
10 -19 13 -73 10 -30 -2 -36 0 -31 13 7 19 -12 46 -33 46 -7 0 -16 -6 -18 -12z"/>
  <path d="M303 593 c-10 -4 -9 -10 2 -26 24 -35 19 -47 -22 -48 -21 -1 -51 -4
-67 -8 l-29 -6 26 -14 c22 -11 34 -12 66 -3 52 16 58 15 64 -8 7 -28 29 -25
25 3 -3 17 5 26 32 39 l35 17 -37 0 c-29 1 -37 5 -40 22 -3 22 -33 39 -55 32z"/>
</g>
<g id="part-2" class="char-part">
  <path d="M204 368 c-1 -18 -4 -42 -8 -53 -12 -38 6 -47 49 -25 22 11 47 20 57
20 10 0 18 5 18 11 0 7 -14 8 -40 4 -41 -7 -44 -4 -31 30 10 23 -4 45 -28 45
-11 0 -16 -10 -17 -32z"/>
</g>
<g id="part-3" class="char-part">
  <path d="M220 232 c-41 -8 -77 -17 -80 -19 -8 -7 24 -23 47 -23 20 0 21 -3 12
-27 -6 -15 -26 -47 -46 -71 l-36 -44 31 16 c36 19 105 97 112 128 3 13 16 25
30 28 25 6 41 31 18 29 -7 -1 -47 -8 -88 -17z"/>
</g>
<g id="part-4" class="char-part">
  <path d="M470 173 c0 -10 52 -63 62 -63 4 0 8 11 8 24 0 18 -8 27 -31 35 -38
13 -39 13 -39 4z"/>
</g>
</g>
</svg>