<?xml version="1.0" standalone="no"?>
<!DOCTYPE svg PUBLIC "-//W3C//DTD SVG 20010904//EN"
 "http://www.w3.org/TR/2001/REC-SVG-20010904/DTD/svg10.dtd">
<svg version="1.0" xmlns="http://www.w3.org/2000/svg"
 width="96.000000pt" height="68.000000pt" viewBox="0 0 96.000000 68.000000"
 preserveAspectRatio="xMidYMid meet">
<metadata>
Created by potrace 1.16, written by Peter Selinger 2001-2019
Combined from part_0.svg through part_5.svg with named groups
</metadata>
<g transform="translate(0.000000,68.000000) scale(0.100000,-0.100000)" fill="#000000" stroke="none">
<g id="part-0" class="char-part">
  <path d="M496 611 c-3 -4 2 -27 10 -51 26 -75 20 -85 -59 -88 -61 -3 -67 -5
-55 -19 7 -8 22 -52 34 -97 17 -68 24 -81 40 -79 10 2 37 6 59 9 l40 6 24 -56
c13 -32 22 -58 20 -60 -11 -10 -110 -61 -149 -77 l-45 -20 52 5 c29 3 77 18
110 35 l59 29 46 -44 c48 -46 101 -74 139 -74 17 0 20 4 14 23 -3 12 -12 42
-20 67 -13 43 -13 44 -14 12 -1 -19 -7 -35 -16 -38 -22 -9 -105 53 -105 78 0
5 16 16 35 25 26 13 35 23 33 37 -4 31 -36 31 -59 2 -28 -35 -42 -33 -59 12
-8 20 -16 40 -18 45 -5 11 46 8 53 -3 15 -25 26 -9 80 114 24 56 24 60 8 78
-15 16 -26 18 -104 12 l-88 -7 -3 58 c-3 54 -5 59 -30 66 -16 4 -30 4 -32 0z
m201 -166 c-4 -32 -3 -31 -68 -39 l-57 -7 -4 30 c-3 17 -2 33 0 36 3 3 34 5
69 5 62 0 64 -1 60 -25z m-163 -21 c4 -15 6 -28 4 -29 -9 -8 -88 -15 -88 -8 0
4 -3 18 -6 30 -6 23 6 30 57 32 21 1 28 -5 33 -25z m148 -59 c-6 -40 -12 -45
-52 -45 -38 0 -40 2 -40 29 0 25 5 30 28 34 51 8 67 3 64 -18z m-132 -11 c0
-7 3 -19 6 -27 4 -11 -5 -16 -38 -19 -24 -3 -46 0 -50 6 -14 20 -8 44 10 48
36 8 72 4 72 -8z"/>
  <path d="M256 558 c5 -24 9 -63 9 -88 l0 -45 -62 -8 c-46 -7 -63 -13 -63 -24
0 -13 12 -15 65 -11 l65 4 0 -42 0 -41 -75 -32 c-41 -17 -79 -31 -85 -31 -20
0 -10 -27 15 -40 27 -14 41 -10 103 31 l33 21 -3 -58 -3 -59 -34 -3 -34 -3 39
-40 c66 -68 84 -47 84 98 l0 98 40 25 c22 14 40 28 40 32 0 11 -2 10 -44 -7
-36 -15 -36 -15 -36 9 0 39 11 56 35 56 30 0 52 25 29 34 -8 3 -25 6 -36 6
-22 0 -22 2 -2 106 5 28 3 32 -27 43 -56 19 -62 16 -53 -31z"/>
</g>
<g id="part-1" class="char-part">
  <path d="M261 558 c5 -18 9 -56 9 -84 0 -56 -8 -63 -75 -64 -16 0 -37 -5 -45
-10 -11 -7 5 -10 53 -10 l67 0 0 -50 c0 -30 -4 -50 -11 -50 -6 0 -37 -11 -68
-24 -31 -13 -64 -27 -75 -30 -15 -5 -16 -9 -6 -21 19 -23 57 -18 105 15 24 17
47 30 51 30 8 0 -3 -116 -12 -132 -3 -5 -17 -7 -31 -3 -24 6 -24 5 8 -35 37
-46 40 -47 62 -22 14 15 17 40 17 121 l0 102 37 21 c36 22 32 39 -6 19 -29
-16 -31 -15 -31 28 0 36 2 39 35 45 19 4 35 11 35 16 0 10 -33 22 -51 18 -16
-3 -14 58 3 101 11 31 -10 51 -53 51 -26 0 -27 -1 -18 -32z"/>
</g>
<g id="part-2" class="char-part">
  <path d="M493 598 c29 -110 32 -118 49 -118 15 0 18 9 18 59 0 64 0 65 -44 75
-26 6 -28 5 -23 -16z"/>
</g>
<g id="part-3" class="char-part">
  <path d="M580 485 c-47 -7 -111 -14 -144 -14 -52 -1 -57 -3 -45 -17 7 -9 22
-53 34 -97 18 -69 24 -82 40 -80 11 1 58 7 104 12 59 7 88 7 97 0 20 -16 31
-4 54 58 12 31 29 69 38 85 15 25 15 28 -3 48 -21 23 -49 24 -175 5z m120 -32
c0 -31 -14 -40 -71 -46 -56 -7 -57 -6 -62 21 -7 35 5 42 76 42 48 0 57 -3 57
-17z m-166 -29 c4 -15 6 -28 4 -29 -9 -8 -88 -15 -88 -8 0 4 -3 18 -6 30 -6
23 6 30 57 32 21 1 28 -5 33 -25z m145 -66 c-5 -18 -9 -34 -9 -35 0 -2 -18 -3
-40 -3 -33 0 -40 3 -40 20 0 11 0 23 0 28 -1 6 43 18 82 21 14 1 15 -4 7 -31z
m-128 -14 c5 -15 8 -28 7 -29 -2 -1 -22 -5 -45 -8 -36 -4 -42 -2 -47 17 -10
36 -10 36 62 45 7 0 17 -11 23 -25z"/>
</g>
<g id="part-4" class="char-part">
  <path d="M570 286 c0 -2 9 -25 20 -51 11 -26 20 -50 20 -55 0 -6 -126 -72
-180 -94 -8 -3 6 -4 32 -2 25 2 76 17 111 34 l65 30 29 -30 c43 -45 113 -88
145 -88 15 0 28 1 28 3 -1 1 -9 31 -19 67 l-18 65 -7 -38 c-8 -44 -18 -46 -65
-10 -62 46 -63 54 -15 83 21 14 34 29 32 39 -5 26 -37 25 -59 -3 -28 -36 -43
-33 -64 14 -12 26 -25 40 -37 40 -10 0 -18 -2 -18 -4z"/>
</g>
</g>
</svg>