<?xml version="1.0" standalone="no"?>
<!DOCTYPE svg PUBLIC "-//W3C//DTD SVG 20010904//EN"
 "http://www.w3.org/TR/2001/REC-SVG-20010904/DTD/svg10.dtd">
<svg version="1.0" xmlns="http://www.w3.org/2000/svg"
 width="96.000000pt" height="68.000000pt" viewBox="0 0 96.000000 68.000000"
 preserveAspectRatio="xMidYMid meet">
<metadata>
Created by potrace 1.16, written by Peter Selinger 2001-2019
Combined from part_0.svg through part_5.svg with named groups
</metadata>
<g transform="translate(0.000000,68.000000) scale(0.100000,-0.100000)" fill="#000000" stroke="none">
<g id="part-0" class="char-part">
  <path d="M648 548 c-3 -52 -4 -53 -35 -56 -42 -4 -43 -20 -2 -24 l32 -3 -48
-52 c-50 -56 -41 -73 12 -23 40 38 47 38 39 -1 -6 -34 7 -59 30 -59 10 0 14
13 14 45 0 25 2 45 5 45 3 0 14 -9 25 -20 23 -23 50 -26 50 -6 0 18 -19 33
-53 41 -40 10 -31 37 16 48 48 12 48 29 0 26 l-38 -3 2 47 c3 44 1 47 -22 47
-22 0 -24 -4 -27 -52z"/>
  <path d="M438 536 l4 -53 -42 -7 c-45 -7 -48 -18 -5 -20 14 -1 25 -5 25 -9 0
-4 0 -11 0 -15 0 -5 -18 -28 -41 -50 -22 -23 -38 -42 -34 -42 12 0 50 23 74
44 l24 21 -6 -35 c-6 -42 7 -72 28 -64 10 4 15 21 15 55 0 53 4 57 31 33 10
-9 23 -13 28 -9 20 11 12 24 -24 36 -42 16 -43 42 -2 47 37 4 35 22 -3 22 -29
0 -30 1 -30 50 0 46 -2 50 -23 50 -22 0 -23 -3 -19 -54z"/>
  <path d="M265 467 c-124 -21 -155 -29 -150 -38 4 -5 19 -9 36 -9 16 0 29 -4
29 -8 0 -27 -34 -116 -65 -166 -20 -33 -34 -64 -32 -70 2 -5 25 10 52 35 27
24 45 38 41 31 -9 -14 12 -112 23 -112 4 0 11 3 15 7 9 9 13 10 66 12 28 1 40
5 40 16 0 8 7 35 16 61 23 68 16 70 -118 48 -16 -3 -28 -4 -28 -2 0 3 32 84
52 129 9 20 22 28 56 35 47 9 66 28 35 36 -10 2 -40 0 -68 -5z m18 -287 c-4
-4 -20 -10 -36 -14 -31 -7 -43 11 -42 62 0 24 5 28 40 32 l40 5 3 -39 c2 -21
0 -42 -5 -46z"/>
  <path d="M565 300 c-66 -11 -135 -20 -152 -22 -18 -1 -33 -6 -33 -11 0 -5 35
-8 78 -6 l77 4 3 -72 3 -72 -48 16 c-26 9 -49 17 -51 19 -2 1 4 14 13 27 15
24 15 26 -4 36 -31 17 -38 13 -46 -25 -4 -23 -23 -54 -52 -85 -25 -27 -42 -49
-37 -49 12 0 52 27 86 58 l27 25 103 -53 c164 -84 160 -83 286 -55 26 6 21 24
-6 23 -22 -1 -147 20 -195 33 -35 9 -38 13 -35 41 3 30 6 32 48 35 63 4 90 12
90 25 0 10 -70 8 -120 -4 -12 -2 -15 8 -15 44 l0 48 57 0 c54 0 80 -11 58 -25
-5 -3 -10 -10 -10 -15 0 -8 83 20 95 32 10 9 -37 37 -71 42 -16 2 -83 -4 -149
-14z"/>
</g>
<g id="part-1" class="char-part">
  <path d="M197 451 c-73 -15 -94 -31 -40 -31 16 0 23 -6 23 -20 0 -35 -31 -113
-66 -164 -18 -27 -32 -52 -30 -54 13 -12 106 87 106 113 0 3 11 28 25 57 14
28 25 57 25 64 0 6 17 15 38 18 65 12 76 17 61 27 -18 12 -48 9 -142 -10z"/>
</g>
<g id="part-2" class="char-part">
  <path d="M265 285 c-16 -8 -44 -14 -61 -15 -18 0 -34 -6 -37 -14 -5 -13 16
-112 26 -122 2 -3 16 0 31 6 15 5 45 10 66 10 29 0 38 4 34 13 -3 8 2 34 10
58 9 24 16 47 16 50 0 5 -47 30 -53 28 -1 0 -15 -7 -32 -14z m21 -101 c-3 -8
-20 -14 -41 -14 -37 0 -36 -1 -39 68 -1 13 9 18 39 22 39 5 40 4 43 -29 2 -18
1 -39 -2 -47z"/>
</g>
<g id="part-3" class="char-part">
  <path d="M438 537 l4 -54 -37 -7 c-39 -8 -37 -22 4 -28 23 -3 22 -5 -25 -57
-41 -46 -45 -53 -24 -46 14 4 38 19 54 34 l29 26 -6 -37 c-6 -39 12 -76 31
-64 7 4 12 30 12 57 l0 49 26 -16 c34 -23 56 -4 23 20 -13 9 -29 16 -36 16
-26 0 -12 29 17 35 17 4 30 10 30 15 0 12 -28 20 -46 13 -14 -5 -16 1 -13 43
4 46 2 49 -21 52 -24 3 -25 1 -22 -51z"/>
</g>
<g id="part-4" class="char-part">
  <path d="M648 545 l4 -55 -36 0 c-45 0 -48 -18 -3 -22 l32 -3 -51 -52 c-57
-60 -45 -72 16 -17 l40 37 -2 -48 c-1 -30 3 -50 12 -55 22 -14 30 -2 30 46 0
49 8 54 35 24 22 -24 45 -26 45 -4 0 9 -17 22 -40 31 -25 10 -40 22 -40 33 0
13 11 19 40 24 52 8 52 26 -1 26 l-41 0 6 45 c7 44 7 45 -21 45 -28 0 -28 -1
-25 -55z"/>
</g>
<g id="part-5" class="char-part">
  <path d="M414 205 c4 -16 2 -25 -5 -25 -8 0 -8 -4 1 -15 7 -8 17 -15 23 -15 6
0 7 3 4 7 -4 3 0 14 8 23 14 16 14 19 0 34 -24 24 -38 20 -31 -9z"/>
  <path d="M364 114 c-22 -24 -37 -44 -33 -44 12 0 79 69 79 80 0 14 0 14 -46
-36z"/>
  <path d="M485 120 c11 -5 29 -9 40 -9 l20 0 -20 9 c-11 5 -29 9 -40 9 l-20 0
20 -9z"/>
  <path d="M541 90 c10 -7 49 -2 49 5 0 2 -14 3 -31 3 -17 -1 -25 -4 -18 -8z"/>
  <path d="M590 80 c-13 -8 -12 -10 3 -10 9 0 17 -4 17 -9 0 -12 80 -40 114 -39
39 1 92 23 77 32 -6 4 -45 9 -87 10 -41 1 -80 8 -86 14 -14 14 -19 15 -38 2z
m127 -26 c-3 -3 -12 -4 -19 -1 -8 3 -5 6 6 6 11 1 17 -2 13 -5z"/>
</g>
</g>
</svg>