<?xml version="1.0" standalone="no"?>
<!DOCTYPE svg PUBLIC "-//W3C//DTD SVG 20010904//EN"
 "http://www.w3.org/TR/2001/REC-SVG-20010904/DTD/svg10.dtd">
<svg version="1.0" xmlns="http://www.w3.org/2000/svg"
 width="96.000000pt" height="68.000000pt" viewBox="0 0 96.000000 68.000000"
 preserveAspectRatio="xMidYMid meet">
<metadata>
Created by potrace 1.16, written by Peter Selinger 2001-2019
Combined from part_0.svg through part_5.svg with named groups
</metadata>
<g transform="translate(0.000000,68.000000) scale(0.100000,-0.100000)" fill="#000000" stroke="none">
<g id="part-0" class="char-part">
  <path d="M620 555 l0 -46 -52 3 c-49 3 -53 5 -56 31 -2 15 -7 27 -12 27 -5 0
-15 3 -24 6 -11 4 -16 0 -16 -14 0 -12 5 -24 10 -27 6 -3 10 -13 10 -21 0 -10
-12 -14 -40 -14 -22 0 -40 -4 -40 -10 0 -5 20 -10 44 -10 44 0 44 0 51 -40 6
-34 11 -40 31 -40 17 0 24 -6 24 -19 0 -22 -37 -34 -92 -31 -47 3 -52 1 -41
-12 6 -7 16 -31 23 -53 7 -22 14 -43 16 -46 2 -3 24 -3 49 1 44 7 45 6 45 -22
l0 -28 -72 0 c-40 0 -79 -4 -87 -9 -26 -17 9 -23 91 -16 58 5 79 4 74 -4 -4
-6 -4 -43 0 -83 6 -60 9 -69 19 -54 7 9 16 48 19 86 l7 70 100 0 c100 0 125
11 73 30 -17 7 -47 7 -87 0 -88 -14 -89 -14 -85 17 3 27 6 28 61 31 39 2 57 7
57 16 0 7 12 26 26 41 25 27 25 29 8 42 -10 7 -44 13 -80 13 -53 0 -62 3 -67
19 -3 15 1 21 17 23 13 2 20 9 18 19 -1 9 2 29 8 43 9 24 14 26 65 26 56 0 73
13 33 24 -13 3 -35 6 -51 6 -24 0 -27 3 -25 33 3 28 0 32 -24 35 -27 3 -28 2
-28 -43z m-5 -87 c-9 -30 -14 -34 -52 -41 -29 -6 -34 -3 -39 18 -9 35 2 45 52
45 42 0 45 -1 39 -22z m73 -139 c4 -24 -25 -49 -59 -49 -27 0 -29 3 -29 36 l0
35 42 -3 c30 -2 44 -8 46 -19z m-136 -24 c-5 -36 -2 -34 -38 -41 -26 -5 -32
-2 -42 21 -17 37 -15 43 16 48 57 9 67 4 64 -28z"/>
  <path d="M260 545 c-5 -14 -10 -30 -10 -35 0 -5 -25 -35 -56 -67 -44 -45 -54
-60 -46 -73 10 -15 25 -16 77 -4 l29 7 -24 -31 c-14 -16 -35 -36 -47 -43 -25
-14 -30 -37 -10 -45 8 -3 47 7 87 22 49 18 75 23 78 15 2 -6 10 -11 18 -11 23
0 16 36 -11 54 -31 21 -38 20 -31 -2 5 -15 -2 -21 -33 -30 -66 -20 -66 -14 0
51 89 85 94 93 79 112 -19 23 -29 18 -47 -19 -16 -34 -36 -46 -83 -46 -22 0
-18 7 40 65 54 55 63 68 54 83 -18 29 -53 27 -64 -3z"/>
  <path d="M320 253 c1 -4 9 -18 19 -30 27 -32 55 -29 33 3 -10 15 -52 37 -52
27z"/>
  <path d="M240 225 c0 -15 34 -55 46 -55 20 0 17 24 -4 43 -18 16 -42 23 -42
12z"/>
  <path d="M150 197 c0 -14 28 -58 44 -69 16 -11 29 7 21 31 -8 26 -65 59 -65
38z"/>
</g>
<g id="part-1" class="char-part">
  <path d="M256 526 c-9 -24 -37 -64 -61 -89 -54 -54 -60 -82 -15 -73 17 3 44 9
60 12 17 4 30 10 30 15 0 5 -13 6 -30 2 -16 -3 -30 -2 -30 2 0 5 27 39 60 76
l60 68 -22 15 c-31 22 -33 21 -52 -28z"/>
</g>
<g id="part-2" class="char-part">
  <path d="M320 252 c0 -16 32 -52 46 -52 22 0 17 27 -8 44 -25 17 -38 20 -38 8z"/>
  <path d="M240 225 c0 -15 34 -55 46 -55 19 0 18 25 -2 44 -15 15 -44 22 -44
11z"/>
  <path d="M150 198 c0 -23 40 -80 53 -75 23 7 19 37 -9 62 -30 28 -44 32 -44
13z"/>
</g>
<g id="part-3" class="char-part">
  <path d="M618 558 l-3 -43 -47 -3 c-44 -3 -46 -2 -53 27 -4 18 -15 33 -26 36
-28 9 -33 1 -21 -34 13 -36 8 -41 -40 -41 -55 0 -47 -18 9 -22 46 -3 48 -4 56
-40 10 -42 16 -44 106 -30 35 6 45 11 46 27 5 57 14 65 71 65 55 0 72 13 32
24 -13 3 -36 6 -52 6 -26 0 -28 2 -22 27 8 28 -5 43 -36 43 -13 0 -18 -10 -20
-42z m2 -81 c0 -23 -24 -45 -57 -52 -29 -6 -33 -4 -39 19 -3 14 -3 30 1 35 9
16 95 14 95 -2z"/>
</g>
<g id="part-4" class="char-part">
  <path d="M563 403 c-7 -2 -13 -13 -13 -23 0 -23 -19 -30 -86 -30 -49 0 -53 -2
-44 -17 6 -10 16 -36 24 -58 l13 -40 69 4 c37 1 79 7 92 12 13 5 41 9 63 9 28
0 39 4 39 15 0 9 12 28 26 42 25 25 26 27 8 40 -10 7 -44 13 -80 13 -53 0 -62
3 -67 20 -5 19 -19 24 -44 13z m127 -78 c0 -27 -25 -45 -64 -45 -23 0 -26 4
-26 35 0 35 0 35 45 35 41 0 45 -2 45 -25z m-135 -17 c0 -38 -10 -48 -47 -48
-30 0 -32 3 -42 42 -5 23 -3 27 21 31 66 10 68 9 68 -25z"/>
</g>
<g id="part-5" class="char-part">
  <path d="M563 126 c2 -116 18 -129 23 -19 2 48 7 71 19 79 14 11 14 12 0 18
-9 3 -13 10 -10 16 3 5 -3 10 -14 10 -20 0 -21 -5 -18 -104z"/>
  <path d="M655 200 c-25 -7 -20 -8 25 -8 30 0 60 -1 65 -2 6 -1 19 -2 30 -1 17
1 18 3 5 11 -17 11 -82 11 -125 0z"/>
  <path d="M465 183 c-57 -6 -63 -19 -7 -15 26 2 51 8 57 13 6 6 6 8 0 7 -6 -1
-28 -3 -50 -5z"/>
</g>
</g>
</svg>