<?xml version="1.0" standalone="no"?>
<!DOCTYPE svg PUBLIC "-//W3C//DTD SVG 20010904//EN"
 "http://www.w3.org/TR/2001/REC-SVG-20010904/DTD/svg10.dtd">
<svg version="1.0" xmlns="http://www.w3.org/2000/svg"
 width="96.000000pt" height="68.000000pt" viewBox="0 0 96.000000 68.000000"
 preserveAspectRatio="xMidYMid meet">
<metadata>
Created by potrace 1.16, written by Peter Selinger 2001-2019
Combined from part_0.svg through part_5.svg with named groups
</metadata>
<g transform="translate(0.000000,68.000000) scale(0.100000,-0.100000)" fill="#000000" stroke="none">
<g id="part-0" class="char-part">
  <path d="M400 614 c0 -9 9 -28 21 -42 l21 -27 -39 -7 c-70 -13 -140 -9 -147 7
-10 26 -23 16 -55 -40 -35 -62 -38 -83 -14 -92 15 -6 39 15 68 60 8 11 55 20
194 36 102 11 188 18 193 15 4 -3 0 -16 -8 -30 -9 -13 -15 -27 -12 -29 3 -3
34 0 69 7 77 16 88 36 37 68 -28 17 -47 20 -120 18 -48 -2 -88 -6 -88 -10 0
-21 -18 -4 -23 21 -6 27 -17 35 -79 55 -12 3 -18 0 -18 -10z"/>
  <path d="M534 385 l6 -85 -30 0 c-41 0 -38 -12 10 -44 22 -14 40 -31 40 -36 0
-6 -20 -20 -45 -32 -25 -12 -45 -25 -45 -29 0 -10 47 4 88 25 40 21 42 21 76
-9 32 -27 51 -31 62 -13 4 7 -8 24 -30 43 l-37 31 26 29 c38 45 33 55 -30 55
-51 0 -55 2 -55 24 0 21 7 26 50 36 65 16 64 31 -2 23 l-51 -6 6 31 c4 22 2
32 -9 36 -35 13 -37 7 -30 -79z m96 -93 c0 -5 -6 -17 -14 -27 -12 -17 -17 -18
-55 -5 -66 21 -57 28 52 38 9 1 17 -2 17 -6z"/>
  <path d="M318 407 c-82 -14 -74 -31 10 -23 83 8 113 16 106 27 -6 11 -39 10
-116 -4z"/>
  <path d="M263 322 c-57 -8 -103 -18 -103 -22 0 -13 39 -19 77 -13 34 6 35 5
28 -18 -16 -50 -39 -86 -86 -131 -27 -26 -49 -50 -49 -53 0 -3 17 3 38 14 45
23 89 70 128 137 22 37 24 48 14 54 -10 6 -7 10 13 16 16 3 30 4 33 1 3 -3 5
-36 5 -74 -1 -143 26 -165 215 -171 92 -3 136 0 177 12 73 21 81 32 59 84 -9
23 -19 42 -22 42 -3 0 -12 -15 -20 -33 -23 -50 -69 -67 -180 -67 -97 0 -169
13 -183 34 -4 6 -6 50 -5 99 l2 87 33 0 c18 0 33 5 33 10 0 14 -84 11 -207 -8z"/>
</g>
<g id="part-1" class="char-part">
  <path d="M400 612 c0 -4 13 -24 30 -43 l29 -36 -97 -6 c-76 -4 -99 -2 -105 9
-4 8 -12 14 -17 14 -9 0 -70 -104 -70 -121 0 -24 46 -2 69 34 21 31 30 37 60
37 20 0 105 8 188 17 84 9 156 13 160 9 4 -3 -1 -21 -12 -38 -14 -24 -15 -30
-4 -26 8 3 40 11 72 18 31 6 57 16 57 21 0 5 -17 20 -39 34 -37 25 -41 26
-122 15 -111 -13 -109 -14 -109 16 0 19 -8 28 -35 40 -38 16 -55 18 -55 6z"/>
</g>
<g id="part-2" class="char-part">
  <path d="M313 407 c-80 -15 -66 -31 21 -24 79 7 106 14 106 28 0 11 -59 10
-127 -4z"/>
</g>
<g id="part-3" class="char-part">
  <path d="M360 228 c0 -106 12 -128 75 -150 95 -32 326 -20 375 20 l21 17 -25
55 c-21 47 -25 51 -25 27 -1 -47 -47 -84 -116 -92 -84 -11 -211 0 -241 20 -25
16 -26 20 -22 96 3 78 -1 89 -33 89 -5 0 -9 -37 -9 -82z"/>
</g>
<g id="part-4" class="char-part">
  <path d="M560 310 c-41 -9 -74 -20 -73 -24 1 -4 21 -21 43 -37 23 -17 40 -32
37 -35 -2 -2 -26 -15 -53 -29 -36 -17 -43 -24 -27 -24 12 -1 42 9 67 20 l44
22 36 -28 c33 -25 66 -28 66 -6 0 10 -43 47 -63 54 -8 3 0 19 20 45 l33 40
-28 9 c-18 6 -52 4 -102 -7z m70 -18 c0 -4 -7 -17 -15 -29 -15 -21 -16 -21
-55 -5 -61 26 -56 30 53 40 9 1 17 -1 17 -6z"/>
</g>
</g>
</svg>