<?xml version="1.0" standalone="no"?>
<!DOCTYPE svg PUBLIC "-//W3C//DTD SVG 20010904//EN"
 "http://www.w3.org/TR/2001/REC-SVG-20010904/DTD/svg10.dtd">
<svg version="1.0" xmlns="http://www.w3.org/2000/svg"
 width="96.000000pt" height="68.000000pt" viewBox="0 0 96.000000 68.000000"
 preserveAspectRatio="xMidYMid meet">
<metadata>
Created by potrace 1.16, written by Peter Selinger 2001-2019
Combined from part_0.svg through part_5.svg with named groups
</metadata>
<g transform="translate(0.000000,68.000000) scale(0.100000,-0.100000)" fill="#000000" stroke="none">
<g id="part-0" class="char-part">
  <path d="M245 496 c0 -115 -6 -124 -87 -128 l-60 -3 20 -22 c14 -16 30 -23 57
-23 31 0 36 -3 30 -17 -18 -45 -17 -52 19 -75 20 -13 36 -26 36 -30 0 -4 -27
-24 -60 -45 -58 -37 -73 -53 -47 -53 13 0 103 43 129 62 15 11 22 8 49 -20 36
-37 53 -37 57 0 2 19 -5 31 -27 47 l-29 21 23 43 c12 23 28 59 35 80 8 26 19
39 36 43 24 6 34 24 13 24 -6 0 -22 9 -36 20 -14 11 -36 20 -48 20 -19 0 -22
-4 -18 -21 7 -24 -10 -39 -44 -39 -22 0 -22 0 9 91 29 87 30 91 12 104 -11 8
-30 14 -44 15 -25 0 -25 0 -25 -94z m76 -211 c-21 -48 -41 -56 -74 -31 -17 13
-17 17 -4 49 12 27 23 36 53 44 48 11 53 1 25 -62z"/>
  <path d="M568 516 c-109 -9 -126 -13 -118 -26 15 -23 12 -217 -4 -285 -17 -72
-2 -116 29 -86 6 5 69 12 141 16 129 7 132 7 139 -14 7 -24 37 -28 54 -7 8 9
12 67 11 177 0 90 2 173 5 185 4 13 0 27 -10 38 -19 18 -54 19 -247 2z m192
-23 c3 -3 7 -76 8 -164 l4 -159 -55 0 c-29 0 -94 -3 -143 -6 l-89 -7 3 84 c1
46 3 120 5 164 l2 80 100 11 c91 10 152 9 165 -3z"/>
  <path d="M585 460 c-3 -5 -1 -10 4 -10 6 0 11 -18 11 -39 0 -38 -1 -39 -47
-49 l-48 -10 44 -1 44 -1 -7 -42 c-5 -28 -18 -54 -38 -75 -20 -21 -26 -33 -17
-33 19 1 53 29 74 63 l18 28 41 -40 c49 -48 58 -51 54 -13 -2 21 -13 32 -45
47 -65 30 -57 75 12 75 13 0 27 4 30 10 7 11 -29 21 -60 17 -17 -2 -20 4 -19
33 0 35 -10 50 -33 50 -6 0 -15 -4 -18 -10z"/>
</g>
<g id="part-1" class="char-part">
  <path d="M256 551 c3 -21 1 -70 -6 -109 -11 -66 -13 -70 -42 -76 -17 -3 -47
-6 -67 -6 l-36 -1 25 -20 c18 -15 33 -19 57 -16 l33 6 -16 -37 c-15 -36 -14
-38 7 -52 68 -45 68 -43 -2 -88 -78 -51 -51 -58 32 -8 l57 34 28 -29 c15 -16
36 -29 46 -29 28 0 22 35 -13 64 l-30 26 29 62 c17 35 33 73 37 86 4 13 14 22
26 22 10 0 19 5 19 10 0 6 -5 10 -11 10 -6 0 -17 7 -25 15 -9 8 -26 15 -40 15
-19 0 -23 -5 -21 -22 2 -20 -3 -23 -35 -26 -21 -2 -38 -1 -38 1 0 2 11 37 25
77 30 88 31 106 6 120 -40 21 -52 13 -45 -29z m89 -213 c-4 -13 -16 -42 -26
-66 -16 -38 -22 -43 -41 -37 -49 15 -57 34 -36 80 11 24 48 42 91 44 14 1 17
-4 12 -21z"/>
</g>
<g id="part-2" class="char-part">
  <path d="M630 520 c-36 -4 -93 -8 -127 -9 l-63 -1 10 -26 c15 -39 12 -213 -5
-278 -11 -41 -12 -63 -5 -77 12 -21 21 -24 36 -9 5 5 68 12 139 16 l131 7 12
-27 c14 -31 23 -32 45 -9 22 26 28 400 6 414 -16 10 -82 10 -179 -1z m130 -27
c3 -3 6 -76 8 -164 l3 -159 -28 1 c-15 1 -80 -1 -143 -6 l-115 -7 3 118 c3
146 10 204 25 210 47 17 231 22 247 7z"/>
</g>
<g id="part-3" class="char-part">
  <path d="M580 461 c0 -6 5 -13 10 -16 6 -3 10 -21 10 -39 0 -31 -3 -34 -42
-43 l-43 -11 38 -1 c33 -1 37 -4 37 -27 0 -31 -15 -61 -48 -96 -18 -20 -21
-28 -11 -28 23 0 58 29 75 62 l16 31 40 -42 c42 -42 53 -48 63 -31 11 18 -14
48 -55 66 -29 13 -40 24 -40 40 0 24 17 34 61 34 16 0 29 4 29 10 0 11 -36 21
-65 17 -17 -2 -20 3 -18 33 1 19 -4 38 -10 42 -17 11 -47 10 -47 -1z"/>
</g>
</g>
</svg>