<?xml version="1.0" standalone="no"?>
<!DOCTYPE svg PUBLIC "-//W3C//DTD SVG 20010904//EN"
 "http://www.w3.org/TR/2001/REC-SVG-20010904/DTD/svg10.dtd">
<svg version="1.0" xmlns="http://www.w3.org/2000/svg"
 width="96.000000pt" height="68.000000pt" viewBox="0 0 96.000000 68.000000"
 preserveAspectRatio="xMidYMid meet">
<metadata>
Created by potrace 1.16, written by Peter Selinger 2001-2019
Combined from part_0.svg through part_5.svg with named groups
</metadata>
<g transform="translate(0.000000,68.000000) scale(0.100000,-0.100000)" fill="#000000" stroke="none">
<g id="part-0" class="char-part">
  <path d="M640 549 c-19 -5 -68 -14 -109 -20 -55 -8 -70 -14 -58 -21 11 -6 46
-5 95 1 42 6 99 14 127 17 32 4 44 9 35 14 -28 15 -55 17 -90 9z"/>
  <path d="M280 524 c-24 -8 -59 -11 -76 -8 l-31 6 5 -109 c5 -128 -14 -231 -52
-292 -19 -29 -22 -41 -12 -41 20 0 64 48 78 86 7 19 15 34 19 34 4 0 6 8 5 18
-1 12 6 17 23 17 13 0 38 15 57 35 l34 34 0 -69 c0 -39 -3 -81 -7 -94 -5 -21
-10 -23 -52 -17 l-46 6 40 -35 c52 -45 84 -54 99 -29 6 11 13 98 16 214 3 107
9 203 14 212 6 13 0 20 -23 32 -35 18 -32 18 -91 0z m50 -78 l0 -43 -47 12
c-26 7 -49 17 -51 23 -7 23 18 51 51 54 45 5 47 2 47 -46z m-60 -71 c19 -14
40 -23 47 -21 7 3 13 -1 13 -8 0 -15 -35 -41 -75 -56 -25 -9 -25 -9 -25 50 0
33 1 60 3 60 2 0 18 -11 37 -25z"/>
  <path d="M715 433 c-3 -16 -18 -40 -33 -55 -14 -16 -20 -28 -14 -28 7 0 29
-16 51 -35 45 -41 54 -43 49 -13 -2 15 -16 29 -40 40 l-37 18 35 36 c38 41 44
64 15 64 -12 0 -21 -10 -26 -27z"/>
  <path d="M457 443 c-4 -3 -7 -13 -7 -20 0 -8 -9 -26 -20 -41 l-21 -28 39 -42
c35 -38 52 -44 52 -20 0 5 -14 22 -32 38 l-32 30 33 34 c18 19 30 39 27 45 -8
12 -29 15 -39 4z"/>
  <path d="M580 431 c0 -11 -11 -32 -23 -47 l-24 -27 37 -39 c21 -21 40 -38 44
-38 15 0 4 28 -19 50 -32 30 -32 38 7 70 33 28 32 50 -3 50 -12 0 -19 -7 -19
-19z"/>
  <path d="M563 247 c-89 -10 -112 -27 -39 -27 l44 0 7 -51 c8 -58 0 -69 -50
-69 -63 0 -134 -13 -128 -23 3 -6 47 -7 117 -3 61 3 157 7 214 7 56 1 105 5
108 10 12 19 -52 31 -135 24 l-84 -7 7 47 c3 26 6 54 6 61 0 9 11 14 29 14 35
0 61 9 61 21 0 11 -45 10 -157 -4z"/>
</g>
<g id="part-1" class="char-part">
  <path d="M280 519 c-14 -6 -43 -9 -65 -6 l-40 4 0 -151 c0 -147 -1 -153 -30
-211 -16 -33 -31 -64 -33 -68 -2 -5 8 -1 23 9 28 18 75 104 75 137 0 13 6 16
23 12 16 -4 32 4 60 30 20 20 37 33 38 28 5 -35 -4 -180 -12 -187 -5 -6 -23
-5 -46 2 l-38 11 45 -40 c51 -44 50 -44 76 -25 17 13 19 32 24 228 5 181 4
215 -9 226 -18 14 -56 15 -91 1z m48 -73 c3 -40 0 -48 -12 -43 -8 3 -31 9 -50
13 -31 5 -36 10 -36 35 0 33 23 50 65 46 28 -2 30 -5 33 -51z m-16 -83 c14 4
18 0 18 -18 0 -17 -11 -28 -43 -44 -24 -12 -49 -21 -55 -21 -13 0 -18 111 -6
123 4 4 20 -5 37 -19 18 -15 38 -23 49 -21z"/>
</g>
<g id="part-2" class="char-part">
  <path d="M645 548 c-22 -4 -73 -13 -114 -19 -55 -8 -70 -14 -58 -21 11 -6 46
-5 95 1 42 6 98 13 125 17 26 3 45 9 42 13 -8 14 -47 17 -90 9z"/>
</g>
<g id="part-3" class="char-part">
  <path d="M457 443 c-4 -3 -7 -14 -7 -23 0 -9 -11 -27 -25 -40 l-24 -23 44 -43
c49 -49 55 -52 55 -25 0 11 -14 31 -31 46 l-32 26 33 34 c18 18 29 38 26 44
-8 12 -29 15 -39 4z"/>
</g>
<g id="part-4" class="char-part">
  <path d="M573 246 c-104 -13 -132 -26 -56 -26 57 0 63 -7 63 -70 0 -45 -1 -45
-114 -55 -50 -4 -74 -10 -65 -15 17 -11 421 -1 433 11 20 18 -49 30 -132 23
l-83 -6 3 60 3 60 48 6 c27 4 45 11 42 16 -7 12 -20 11 -142 -4z"/>
</g>
</g>
</svg>