<?xml version="1.0" standalone="no"?>
<!DOCTYPE svg PUBLIC "-//W3C//DTD SVG 20010904//EN"
 "http://www.w3.org/TR/2001/REC-SVG-20010904/DTD/svg10.dtd">
<svg version="1.0" xmlns="http://www.w3.org/2000/svg"
 width="96.000000pt" height="68.000000pt" viewBox="0 0 96.000000 68.000000"
 preserveAspectRatio="xMidYMid meet">
<metadata>
Created by potrace 1.16, written by Peter Selinger 2001-2019
Combined from part_0.svg through part_5.svg with named groups
</metadata>
<g transform="translate(0.000000,68.000000) scale(0.100000,-0.100000)" fill="#000000" stroke="none">
<g id="part-0" class="char-part">
  <path d="M416 612 c-2 -4 -1 -14 5 -22 5 -8 9 -38 9 -66 l0 -52 -77 -6 c-113
-10 -153 -17 -153 -27 0 -16 50 -22 128 -15 l76 7 -19 -21 c-37 -41 -122 -97
-235 -157 l-25 -13 30 0 c58 0 134 33 213 92 30 22 56 38 58 35 3 -3 1 -30 -5
-61 -11 -61 0 -116 25 -116 23 0 34 36 34 114 l0 76 58 -30 c31 -17 84 -46
117 -65 75 -43 98 -45 93 -7 -4 34 -62 67 -182 102 -66 19 -86 29 -86 42 0 14
9 18 38 20 20 0 63 2 95 4 93 4 114 20 53 42 -26 10 -50 10 -98 2 -94 -15 -89
-18 -81 50 6 58 5 60 -21 70 -33 12 -43 13 -50 2z"/>
  <path d="M196 130 c-40 -55 -47 -90 -18 -90 31 0 64 45 69 94 7 60 -6 59 -51
-4z"/>
  <path d="M670 173 c1 -19 108 -126 118 -119 36 22 -5 83 -74 112 -38 16 -44
17 -44 7z"/>
  <path d="M350 154 c0 -19 52 -94 65 -94 21 0 19 53 -2 72 -21 18 -63 33 -63
22z"/>
  <path d="M510 152 c0 -21 62 -92 80 -92 31 0 27 53 -6 79 -27 21 -74 29 -74
13z"/>
</g>
<g id="part-1" class="char-part">
  <path d="M427 583 c9 -31 8 -101 -1 -110 -3 -3 -52 -10 -108 -15 -57 -6 -105
-12 -107 -14 -20 -18 72 -25 157 -11 23 4 42 4 42 0 0 -16 -123 -110 -197
-150 -86 -47 -85 -52 6 -24 71 22 136 58 170 95 38 40 44 33 36 -43 -8 -76 -1
-111 20 -111 26 0 37 38 30 105 -4 35 -4 68 -1 74 6 9 73 -21 111 -49 6 -4 41
-24 78 -45 72 -39 100 -38 78 4 -15 28 -69 54 -180 87 -80 24 -92 31 -89 48 3
19 12 21 110 26 59 3 110 9 114 13 17 17 -55 28 -135 22 l-84 -7 7 60 c7 63 2
72 -45 72 -16 0 -18 -4 -12 -27z"/>
</g>
<g id="part-2" class="char-part">
  <path d="M198 135 c-42 -59 -49 -95 -20 -95 33 0 64 45 70 100 2 27 1 50 -4
50 -5 -1 -26 -25 -46 -55z"/>
  <path d="M711 119 c67 -76 92 -87 87 -38 -2 26 -12 39 -43 61 -22 15 -53 30
-70 34 -29 7 -28 5 26 -57z"/>
  <path d="M371 110 c31 -51 52 -62 63 -34 12 30 -37 84 -76 84 -15 0 -13 -7 13
-50z"/>
  <path d="M510 152 c0 -21 62 -92 80 -92 31 0 27 53 -6 79 -27 21 -74 29 -74
13z"/>
</g>
</g>
</svg>