<?xml version="1.0" standalone="no"?>
<!DOCTYPE svg PUBLIC "-//W3C//DTD SVG 20010904//EN"
 "http://www.w3.org/TR/2001/REC-SVG-20010904/DTD/svg10.dtd">
<svg version="1.0" xmlns="http://www.w3.org/2000/svg"
 width="96.000000pt" height="68.000000pt" viewBox="0 0 96.000000 68.000000"
 preserveAspectRatio="xMidYMid meet">
<metadata>
Created by potrace 1.16, written by Peter Selinger 2001-2019
Combined from part_0.svg through part_5.svg with named groups
</metadata>
<g transform="translate(0.000000,68.000000) scale(0.100000,-0.100000)" fill="#000000" stroke="none">
<g id="part-0" class="char-part">
  <path d="M288 615 c-3 -3 -1 -26 3 -53 4 -26 8 -73 8 -105 l1 -58 -52 3 -53 4
0 -91 c-1 -59 -7 -108 -18 -142 -15 -42 -16 -56 -6 -74 11 -21 12 -22 25 -5 7
10 18 39 24 66 l12 49 56 6 c32 3 74 8 95 10 28 4 39 1 44 -11 8 -22 -10 -109
-22 -107 -6 1 -23 5 -39 9 -29 7 -29 6 11 -29 79 -72 98 -44 98 138 0 72 4
142 8 156 7 21 4 27 -17 37 -14 6 -43 9 -65 6 -46 -5 -43 -13 -41 103 1 70 0
73 -25 83 -30 11 -39 12 -47 5z m136 -230 c2 -7 3 -21 2 -31 -3 -19 -5 -20
-138 -37 l-48 -7 0 35 c0 36 -2 35 90 49 45 6 89 2 94 -9z m4 -102 c-3 -26 -7
-28 -78 -39 -112 -18 -120 -18 -120 9 0 45 8 48 163 55 36 2 38 0 35 -25z"/>
  <path d="M694 578 c16 -72 18 -143 11 -292 l-7 -156 -42 0 -41 0 48 -46 48
-46 17 23 c14 20 18 60 22 239 4 142 10 222 18 237 18 32 15 41 -18 58 -48 25
-64 20 -56 -17z"/>
  <path d="M418 517 c-21 -28 -36 -53 -34 -54 8 -8 136 62 136 74 0 14 -31 33
-52 32 -7 0 -30 -23 -50 -52z"/>
  <path d="M160 520 c0 -6 15 -27 33 -47 23 -25 39 -34 50 -30 28 11 20 46 -15
67 -36 22 -68 26 -68 10z"/>
  <path d="M567 368 c6 -108 10 -128 29 -128 12 0 14 16 12 103 -3 96 -4 102
-25 105 -21 3 -21 1 -16 -80z"/>
</g>
<g id="part-1" class="char-part">
  <path d="M297 543 c7 -113 12 -135 31 -131 14 3 18 20 24 93 7 95 4 105 -38
105 -20 0 -21 -4 -17 -67z"/>
  <path d="M445 543 c-10 -16 -29 -41 -44 -57 -30 -33 -27 -33 58 13 l63 35 -22
18 c-29 24 -35 23 -55 -9z"/>
  <path d="M187 485 c28 -35 56 -45 69 -23 10 16 -42 58 -72 58 l-25 0 28 -35z"/>
</g>
<g id="part-2" class="char-part">
  <path d="M330 414 c-41 -8 -88 -12 -105 -9 l-30 5 0 -93 c0 -66 -5 -106 -19
-140 -14 -39 -16 -54 -7 -73 17 -38 27 -29 46 40 l18 65 66 6 c36 3 79 8 94
10 35 6 42 -10 32 -71 l-7 -46 -41 6 -42 6 45 -40 c25 -22 48 -40 52 -40 4 0
16 12 25 27 15 23 18 50 18 163 0 74 4 144 8 156 7 16 3 23 -18 32 -31 14 -38
14 -135 -4z m92 -48 l4 -34 -79 -7 c-44 -3 -86 -9 -93 -12 -10 -4 -14 4 -14
30 0 39 4 41 100 50 80 8 78 9 82 -27z m8 -85 c0 -27 -2 -28 -59 -34 -33 -4
-78 -9 -100 -13 -38 -6 -41 -5 -41 17 0 47 0 47 168 57 29 2 32 -1 32 -27z"/>
</g>
<g id="part-3" class="char-part">
  <path d="M567 363 c5 -115 7 -123 28 -123 12 0 15 17 15 105 0 58 -4 105 -9
105 -5 0 -16 3 -24 6 -13 5 -15 -8 -10 -93z"/>
</g>
<g id="part-4" class="char-part">
  <path d="M694 578 c16 -73 18 -143 11 -293 l-7 -157 -45 5 -45 5 39 -40 c58
-60 69 -64 88 -29 12 24 15 70 15 223 1 142 5 204 15 233 19 53 19 52 -15 70
-48 25 -64 20 -56 -17z"/>
</g>
</g>
</svg>