<?xml version="1.0" standalone="no"?>
<!DOCTYPE svg PUBLIC "-//W3C//DTD SVG 20010904//EN"
 "http://www.w3.org/TR/2001/REC-SVG-20010904/DTD/svg10.dtd">
<svg version="1.0" xmlns="http://www.w3.org/2000/svg"
 width="96.000000pt" height="68.000000pt" viewBox="0 0 96.000000 68.000000"
 preserveAspectRatio="xMidYMid meet">
<metadata>
Created by potrace 1.16, written by Peter Selinger 2001-2019
Combined from part_0.svg through part_5.svg with named groups
</metadata>
<g transform="translate(0.000000,68.000000) scale(0.100000,-0.100000)" fill="#000000" stroke="none">
<g id="part-0" class="char-part">
  <path d="M265 581 c-3 -5 -1 -12 5 -16 5 -3 10 -31 10 -61 0 -49 -2 -54 -22
-54 -33 0 -68 -11 -68 -21 0 -4 21 -9 48 -11 42 -3 47 -6 50 -29 3 -25 2 -26
-98 -38 -55 -8 -103 -17 -106 -22 -3 -5 7 -14 23 -20 21 -8 45 -7 101 5 40 9
76 16 81 16 4 0 9 -29 10 -65 1 -36 0 -65 -3 -65 -3 0 -16 4 -31 10 -20 8 -25
16 -23 37 2 22 -2 29 -17 31 -16 2 -24 -7 -38 -47 -9 -27 -33 -68 -52 -91 -19
-23 -35 -44 -35 -47 0 -13 66 45 89 78 14 21 29 38 33 39 4 0 85 -38 180 -85
95 -47 192 -88 216 -92 49 -7 231 17 210 27 -7 4 -69 15 -138 24 -83 11 -163
30 -239 56 -62 21 -115 40 -117 42 -2 2 -1 21 3 41 5 34 8 37 39 37 34 0 53
14 31 23 -7 3 -25 3 -39 0 -22 -4 -26 -1 -30 25 -4 27 -1 31 25 36 16 3 42 6
58 6 19 0 29 5 29 15 0 16 -11 18 -72 15 -34 -1 -38 1 -38 23 0 21 7 26 45 36
55 14 59 31 6 31 -34 0 -39 3 -44 29 -3 15 -3 38 0 51 4 13 1 25 -8 31 -19 12
-66 11 -74 0z"/>
  <path d="M505 522 c-79 -14 -87 -17 -63 -26 26 -9 27 -13 24 -63 -2 -29 0 -53
5 -53 5 0 6 -7 2 -16 -3 -9 -6 -39 -7 -67 -1 -49 -2 -52 -31 -58 l-30 -6 27
-12 c23 -12 33 -10 79 12 30 14 57 23 61 21 3 -2 2 -21 -4 -41 -10 -37 1 -83
21 -83 15 0 20 46 23 217 l3 162 28 7 c15 3 25 10 21 15 -7 12 -50 9 -159 -9z
m75 -56 c0 -34 -15 -46 -63 -46 -16 0 -17 5 -12 33 10 45 12 47 46 47 26 0 29
-3 29 -34z m0 -86 c0 -28 -2 -30 -40 -30 -36 0 -40 3 -40 24 0 18 7 26 23 29
52 10 57 8 57 -23z m0 -73 c0 -16 -9 -28 -25 -35 -44 -20 -55 -15 -55 23 0 34
1 35 40 35 35 0 40 -3 40 -23z"/>
  <path d="M690 417 c-30 -5 -57 -11 -59 -13 -2 -2 17 -26 43 -54 l47 -51 -23
-25 c-13 -14 -36 -34 -53 -45 -22 -14 -25 -19 -12 -19 23 0 55 17 85 43 l22
21 33 -32 c58 -57 81 -30 27 31 -35 41 -36 51 -11 103 11 21 17 42 14 46 -5
10 -43 8 -113 -5z m55 -39 c-4 -18 -8 -34 -10 -36 -4 -5 -75 37 -75 44 0 4 59
22 78 23 8 1 11 -9 7 -31z"/>
</g>
<g id="part-1" class="char-part">
  <path d="M275 573 c4 -10 9 -41 12 -70 l6 -52 -52 -7 c-65 -8 -66 -24 -1 -24
49 0 50 -1 50 -30 0 -16 -3 -30 -6 -30 -10 0 -149 -21 -172 -26 -13 -2 -20 -9
-17 -14 9 -15 61 -12 165 9 52 11 117 23 145 26 39 5 46 9 32 17 -10 5 -34 8
-55 6 -39 -3 -42 -1 -42 36 0 20 6 24 40 30 49 8 44 26 -7 26 l-36 0 5 51 c5
46 3 51 -19 60 -39 15 -56 12 -48 -8z"/>
</g>
<g id="part-2" class="char-part">
  <path d="M200 272 c-1 -28 -35 -96 -70 -135 -56 -64 -23 -54 40 11 l59 63 171
-86 c101 -51 189 -88 215 -92 54 -7 248 17 219 27 -10 4 -59 13 -109 19 -150
20 -215 37 -353 91 -123 49 -132 54 -130 77 2 18 -3 28 -19 34 -18 7 -23 5
-23 -9z"/>
</g>
<g id="part-3" class="char-part">
  <path d="M565 533 c-38 -7 -88 -17 -110 -21 l-40 -9 28 -11 27 -12 0 -115 c0
-93 3 -115 14 -115 10 0 16 13 18 38 3 33 6 37 33 40 17 2 35 8 40 14 7 7 -3
9 -32 5 -40 -5 -43 -3 -43 19 0 25 25 44 59 44 12 0 21 5 21 10 0 6 -16 8 -41
4 l-41 -7 7 34 c10 48 12 49 53 50 20 0 55 6 77 13 36 11 38 13 20 22 -14 8
-40 7 -90 -3z"/>
</g>
<g id="part-4" class="char-part">
  <path d="M593 503 c-9 -3 -13 -35 -13 -113 l0 -108 -27 -10 c-40 -15 -94 -30
-123 -35 l-25 -3 26 -13 c22 -11 31 -10 58 3 17 9 43 21 57 27 l27 10 -7 -47
c-9 -67 25 -119 38 -56 7 34 12 340 6 345 -3 2 -11 2 -17 0z"/>
</g>
<g id="part-5" class="char-part">
  <path d="M755 400 c3 -19 1 -30 -7 -30 -6 0 -8 -3 -5 -7 4 -3 2 -12 -4 -20
-10 -11 -18 -9 -48 13 l-36 27 34 -36 c31 -32 33 -39 23 -61 -7 -15 -8 -28 -2
-31 5 -3 12 6 16 20 l6 25 22 -25 c26 -30 32 -31 40 -8 4 10 4 14 0 10 -10 -9
-33 24 -34 48 0 11 9 33 20 50 14 21 16 33 8 42 -20 25 -39 15 -33 -17z m25 5
c0 -8 -2 -15 -4 -15 -2 0 -6 7 -10 15 -3 8 -1 15 4 15 6 0 10 -7 10 -15z"/>
  <path d="M665 400 c-13 -6 -15 -9 -5 -9 8 0 22 4 30 9 18 12 2 12 -25 0z"/>
  <path d="M795 250 c-8 -14 9 -34 23 -29 7 3 6 11 -3 22 -9 13 -15 15 -20 7z"/>
  <path d="M669 233 c-13 -15 -12 -15 9 -4 23 12 28 21 13 21 -5 0 -15 -7 -22
-17z"/>
</g>
</g>
</svg>