<?xml version="1.0" standalone="no"?>
<!DOCTYPE svg PUBLIC "-//W3C//DTD SVG 20010904//EN"
 "http://www.w3.org/TR/2001/REC-SVG-20010904/DTD/svg10.dtd">
<svg version="1.0" xmlns="http://www.w3.org/2000/svg"
 width="96.000000pt" height="68.000000pt" viewBox="0 0 96.000000 68.000000"
 preserveAspectRatio="xMidYMid meet">
<metadata>
Created by potrace 1.16, written by Peter Selinger 2001-2019
Combined from part_0.svg through part_5.svg with named groups
</metadata>
<g transform="translate(0.000000,68.000000) scale(0.100000,-0.100000)" fill="#000000" stroke="none">
<g id="part-0" class="char-part">
  <path d="M560 574 c-30 -7 -83 -14 -117 -15 -35 -1 -63 -4 -63 -6 0 -2 7 -17
15 -33 9 -16 17 -44 19 -61 2 -17 9 -36 15 -42 18 -18 13 -42 -15 -66 -25 -22
-27 -44 -2 -24 7 6 28 13 46 15 28 4 32 2 32 -17 0 -12 -16 -38 -37 -58 -44
-45 -32 -48 25 -6 l42 30 26 -26 c15 -15 33 -24 41 -21 23 9 10 30 -25 40 -33
9 -40 20 -22 31 8 5 8 11 0 20 -8 9 -2 14 27 19 21 3 54 6 74 6 32 0 37 -4 42
-27 6 -34 -3 -132 -15 -155 -6 -13 -16 -16 -39 -11 -29 5 -30 4 -20 -13 23
-40 40 -56 57 -52 32 6 54 51 64 130 5 42 12 88 16 102 5 20 0 27 -26 41 -25
13 -41 14 -83 6 -98 -18 -170 -24 -162 -11 4 6 1 18 -6 26 -11 14 -3 15 71 13
78 -2 83 -1 96 22 7 13 13 31 14 39 0 8 7 28 15 44 22 41 19 53 -16 65 -18 6
-32 11 -33 10 -1 0 -26 -7 -56 -15z m55 -43 c0 -20 -6 -24 -30 -26 -16 -1 -58
-6 -92 -10 -63 -8 -63 -8 -63 18 0 24 4 26 58 32 31 4 62 8 67 10 6 2 21 3 35
2 19 -2 25 -8 25 -26z m-5 -53 c0 -28 -19 -38 -88 -44 -63 -6 -72 -5 -72 10 0
9 0 19 0 22 0 4 30 9 67 11 38 3 70 7 72 9 9 8 21 4 21 -8z"/>
  <path d="M180 511 c0 -16 70 -71 90 -71 15 0 20 7 20 26 0 19 -8 28 -35 40
-39 16 -75 18 -75 5z"/>
  <path d="M188 356 c-32 -11 -58 -25 -58 -30 0 -5 22 -6 50 -4 28 3 50 4 50 2
0 -2 -5 -14 -11 -28 -10 -22 -8 -30 15 -60 14 -19 26 -44 26 -55 0 -19 -6 -21
-75 -21 -61 0 -75 -3 -75 -15 0 -23 39 -34 80 -22 54 15 120 2 268 -52 76 -27
147 -52 160 -56 36 -11 238 43 222 59 -3 2 -77 9 -165 15 -146 10 -211 22
-367 68 -13 4 -16 12 -12 32 5 22 -1 34 -25 58 l-31 31 35 27 c39 29 44 49 16
65 -25 13 -34 12 -103 -14z"/>
  <path d="M358 245 c5 -53 18 -63 82 -60 25 1 80 2 123 3 58 2 78 5 74 15 -3 9
-36 12 -123 12 l-119 0 3 33 c1 17 -2 32 -7 32 -5 0 -15 2 -23 5 -10 4 -12 -5
-10 -40z"/>
</g>
<g id="part-1" class="char-part">
  <path d="M190 506 c0 -10 66 -66 78 -66 24 0 26 32 3 52 -20 16 -81 26 -81 14z"/>
  <path d="M215 359 c-22 -10 -50 -18 -62 -18 -13 -1 -23 -6 -23 -12 0 -8 17 -9
56 -4 l55 7 -14 -29 c-14 -26 -13 -31 9 -63 13 -19 24 -45 24 -57 0 -22 -4
-23 -75 -23 -41 0 -75 -4 -75 -8 0 -24 27 -30 109 -25 85 5 88 4 239 -51 84
-31 169 -56 190 -56 41 0 182 39 182 50 0 4 -62 10 -137 14 -144 7 -219 19
-338 55 -71 22 -71 22 -67 55 3 27 -1 37 -24 55 l-27 22 36 37 c20 21 37 41
37 44 0 3 -12 10 -27 16 -21 7 -38 5 -68 -9z"/>
</g>
<g id="part-2" class="char-part">
  <path d="M550 575 c-30 -7 -83 -14 -117 -14 l-61 -1 18 -37 c10 -21 23 -56 29
-78 l10 -40 98 1 98 2 32 76 31 76 -28 15 c-33 17 -35 17 -110 0z m70 -38 c0
-22 -6 -25 -86 -37 -72 -10 -88 -10 -95 1 -18 29 -8 37 64 47 116 15 117 15
117 -11z m-10 -54 c-1 -42 -11 -48 -84 -51 -61 -2 -75 0 -80 14 -4 9 -5 18 -4
19 2 2 37 7 78 13 41 5 78 10 83 11 4 0 7 -2 7 -6z"/>
</g>
<g id="part-3" class="char-part">
  <path d="M435 381 c-3 -11 -20 -32 -36 -46 -35 -29 -33 -31 13 -11 33 14 177
36 236 36 39 0 48 -24 37 -108 -10 -80 -18 -93 -56 -85 -29 5 -30 4 -20 -13
23 -40 40 -56 57 -52 32 6 56 53 64 129 5 41 12 88 15 105 10 48 -28 58 -153
39 -121 -19 -120 -19 -118 2 2 25 -31 28 -39 4z"/>
</g>
<g id="part-4" class="char-part">
  <path d="M358 244 c4 -38 8 -47 30 -55 35 -14 267 0 252 15 -6 6 -55 9 -131 7
l-121 -3 4 32 c2 19 -3 34 -12 40 -24 15 -25 13 -22 -36z"/>
</g>
</g>
</svg>