<?xml version="1.0" standalone="no"?>
<!DOCTYPE svg PUBLIC "-//W3C//DTD SVG 20010904//EN"
 "http://www.w3.org/TR/2001/REC-SVG-20010904/DTD/svg10.dtd">
<svg version="1.0" xmlns="http://www.w3.org/2000/svg"
 width="96.000000pt" height="68.000000pt" viewBox="0 0 96.000000 68.000000"
 preserveAspectRatio="xMidYMid meet">
<metadata>
Created by potrace 1.16, written by Peter Selinger 2001-2019
Combined from part_0.svg through part_5.svg with named groups
</metadata>
<g transform="translate(0.000000,68.000000) scale(0.100000,-0.100000)" fill="#000000" stroke="none">
<g id="part-0" class="char-part">
  <path d="M564 549 c-3 -6 -1 -16 5 -22 6 -6 11 -37 11 -68 l0 -57 -67 -7 c-89
-9 -108 -14 -95 -27 9 -9 103 -7 142 3 11 3 16 -6 18 -35 4 -46 -7 -56 -60
-56 -22 0 -38 -5 -38 -11 0 -9 26 -10 93 -5 145 10 207 18 207 26 0 13 -44 17
-99 10 l-52 -7 3 46 3 46 105 10 105 10 -29 19 c-25 17 -33 18 -72 8 -24 -7
-61 -12 -80 -12 l-36 0 4 61 c4 57 3 61 -19 70 -31 12 -40 11 -49 -2z"/>
  <path d="M240 535 c0 -24 46 -80 68 -83 18 -3 22 1 22 26 0 16 -8 36 -17 44
-24 20 -73 29 -73 13z"/>
  <path d="M290 439 c-200 -32 -195 -31 -175 -45 10 -8 35 -14 54 -14 41 0 251
37 260 46 10 9 -23 24 -54 23 -16 -1 -55 -5 -85 -10z"/>
  <path d="M250 338 c-25 -6 -39 -13 -32 -15 21 -8 142 8 142 18 0 11 -52 10
-110 -3z"/>
  <path d="M300 279 c-14 -4 -40 -7 -57 -8 -18 -1 -33 -6 -33 -12 0 -13 122 -4
148 10 20 12 -25 19 -58 10z"/>
  <path d="M605 204 c-49 -8 -105 -13 -122 -11 -35 3 -41 -4 -19 -22 8 -7 17
-28 21 -49 11 -58 22 -72 53 -67 15 2 65 7 112 10 l85 6 19 45 c10 24 22 44
27 44 21 0 7 31 -21 45 -33 17 -34 17 -155 -1z m100 -25 c12 -18 -5 -78 -23
-83 -9 -3 -46 -6 -81 -8 l-65 -3 -8 34 c-12 44 -3 52 69 61 87 11 101 11 108
-1z"/>
  <path d="M295 200 c-11 -5 -45 -9 -75 -9 -36 -1 -50 -4 -41 -10 8 -5 22 -31
31 -57 11 -33 22 -48 31 -45 8 3 38 7 67 9 34 2 52 8 49 15 -2 7 4 29 15 50
10 21 16 42 13 47 -7 12 -62 12 -90 0z m32 -46 c-7 -43 -4 -40 -44 -47 -28 -6
-32 -3 -42 25 -13 38 -7 45 39 51 19 2 39 5 44 5 5 1 6 -14 3 -34z"/>
</g>
<g id="part-1" class="char-part">
  <path d="M262 498 c26 -48 61 -59 66 -22 4 25 -40 64 -70 64 -19 0 -18 -2 4
-42z"/>
  <path d="M260 429 c-63 -10 -124 -20 -135 -22 -18 -3 -17 -5 8 -17 24 -12 44
-10 155 10 70 12 129 25 132 27 6 5 -22 23 -35 22 -5 -1 -62 -9 -125 -20z"/>
</g>
<g id="part-2" class="char-part">
  <path d="M295 200 c-11 -5 -45 -9 -75 -9 -30 -1 -50 -5 -43 -9 6 -4 20 -30 31
-57 15 -38 25 -49 39 -47 10 2 40 6 66 9 32 4 47 10 43 18 -2 7 5 27 15 45 11
18 18 39 15 46 -6 16 -59 18 -91 4z m35 -39 c0 -25 -21 -48 -52 -55 -23 -5
-28 -2 -37 26 -13 38 -7 45 39 50 43 4 50 1 50 -21z"/>
</g>
<g id="part-3" class="char-part">
  <path d="M560 547 c0 -7 5 -18 11 -24 5 -5 9 -34 7 -64 l-3 -54 -55 -7 c-83
-12 -102 -17 -94 -30 5 -7 31 -9 80 -4 l74 6 0 -39 c0 -43 -10 -51 -66 -51
-19 0 -34 -4 -34 -10 0 -5 14 -10 32 -10 44 0 262 21 267 26 13 12 -18 18 -80
16 l-70 -2 3 43 3 42 98 9 c53 5 97 13 97 17 0 22 -51 28 -121 15 -82 -15 -84
-14 -77 65 5 46 3 51 -19 60 -34 13 -53 11 -53 -4z"/>
</g>
<g id="part-4" class="char-part">
  <path d="M615 203 c-49 -8 -107 -13 -127 -11 -42 4 -44 2 -24 -21 8 -9 20 -38
28 -66 l14 -50 57 3 c32 2 66 5 75 7 9 2 37 4 61 4 24 1 42 4 38 7 -7 7 28 80
43 89 17 11 11 24 -20 40 -33 17 -26 17 -145 -2z m91 -55 c-4 -23 -12 -45 -17
-49 -17 -10 -143 -20 -150 -11 -4 4 -10 23 -14 43 l-7 36 59 10 c32 6 75 11
97 12 l39 1 -7 -42z"/>
</g>
</g>
</svg>