<?xml version="1.0" standalone="no"?>
<!DOCTYPE svg PUBLIC "-//W3C//DTD SVG 20010904//EN"
 "http://www.w3.org/TR/2001/REC-SVG-20010904/DTD/svg10.dtd">
<svg version="1.0" xmlns="http://www.w3.org/2000/svg"
 width="96.000000pt" height="68.000000pt" viewBox="0 0 96.000000 68.000000"
 preserveAspectRatio="xMidYMid meet">
<metadata>
Created by potrace 1.16, written by Peter Selinger 2001-2019
Combined from part_0.svg through part_5.svg with named groups
</metadata>
<g transform="translate(0.000000,68.000000) scale(0.100000,-0.100000)" fill="#000000" stroke="none">
<g id="part-0" class="char-part">
  <path d="M520 585 c0 -3 7 -17 16 -30 22 -34 46 -33 42 3 -2 21 -9 28 -30 30
-16 2 -28 1 -28 -3z"/>
  <path d="M256 534 c-27 -7 -61 -10 -76 -8 l-26 6 4 -128 c5 -141 -6 -210 -45
-287 -28 -57 -24 -70 13 -36 30 28 59 80 68 125 5 24 12 31 24 27 10 -2 26 5
36 16 11 12 23 21 28 21 5 0 8 -33 6 -72 l-3 -73 -32 3 c-42 3 -41 -6 1 -47
41 -40 70 -36 85 12 12 35 18 417 8 434 -11 18 -40 20 -91 7z m32 -78 l3 -48
-38 7 c-21 4 -40 8 -42 10 -10 11 12 74 27 78 39 11 47 3 50 -47z m2 -129 c0
-15 -51 -47 -75 -47 -3 0 -5 24 -5 54 l0 54 40 -21 c24 -13 40 -29 40 -40z"/>
  <path d="M600 525 c-58 -8 -129 -17 -157 -20 -29 -4 -53 -11 -53 -17 0 -10
134 -4 188 9 26 6 29 -9 10 -50 -14 -30 -28 -35 -28 -12 0 16 -46 42 -56 32
-4 -3 5 -20 20 -37 20 -25 26 -42 26 -82 0 -40 -3 -49 -15 -44 -21 8 -19 -6 4
-26 30 -26 41 -7 42 69 1 67 3 73 34 103 18 18 31 38 29 44 -3 9 15 13 62 14
66 2 83 6 72 17 -13 13 -80 13 -178 0z"/>
  <path d="M698 447 c-14 -11 -38 -19 -52 -19 -25 0 -26 -1 -20 -54 5 -36 3 -59
-6 -68 -12 -15 -6 -36 10 -36 5 0 23 12 41 27 31 27 32 28 10 33 -12 3 -22 8
-22 13 1 4 1 18 1 32 0 14 3 25 8 25 11 0 72 -57 72 -68 0 -14 46 -42 69 -42
34 0 33 18 -1 34 -44 21 -119 86 -112 97 3 5 18 9 35 9 18 0 29 5 29 14 0 22
-33 24 -62 3z"/>
  <path d="M418 417 c-45 -10 -66 -27 -33 -27 8 0 15 -7 15 -15 0 -17 -20 -57
-35 -67 -5 -4 -6 -10 -2 -14 12 -13 79 67 74 88 -6 22 21 38 32 20 13 -22 0
-84 -20 -89 -15 -4 -16 -8 -6 -24 24 -38 46 -16 67 69 8 33 8 47 -1 58 -13 16
-23 16 -91 1z"/>
  <path d="M667 256 c4 -20 1 -24 -19 -23 -12 0 -56 -3 -95 -8 -62 -6 -73 -5
-73 8 0 14 -20 27 -42 27 -5 0 -7 -12 -3 -28 9 -41 -12 -121 -41 -159 -14 -18
-21 -33 -17 -33 13 1 50 34 67 62 16 25 23 27 117 34 54 3 102 6 106 5 4 -1 6
-25 4 -55 -2 -57 9 -76 34 -56 12 10 15 39 15 131 l0 119 -29 0 c-24 0 -28 -3
-24 -24z m13 -70 c0 -21 -5 -23 -52 -24 -29 -1 -77 -4 -107 -8 -53 -6 -53 -6
-46 17 4 13 8 25 9 25 4 4 182 19 189 16 4 -2 7 -14 7 -26z"/>
</g>
<g id="part-1" class="char-part">
  <path d="M255 529 c-16 -5 -45 -8 -63 -7 l-32 3 -3 -165 c-2 -162 -2 -166 -34
-232 l-32 -68 26 17 c28 19 73 104 73 141 0 18 6 22 28 22 16 0 37 9 47 20 10
11 22 20 27 20 11 0 10 -113 -2 -145 -8 -21 -14 -24 -37 -19 -28 6 -28 6 10
-32 l38 -39 20 24 c17 21 19 40 19 205 0 99 4 195 9 212 8 28 6 33 -15 43 -29
13 -38 13 -79 0z m45 -75 c0 -48 -2 -55 -17 -51 -10 3 -30 8 -45 11 -24 5 -28
12 -28 39 0 42 15 57 57 57 l33 0 0 -56z m-56 -79 c11 -8 28 -15 38 -15 12 0
18 -8 18 -25 0 -26 -41 -55 -80 -55 -18 0 -20 6 -20 55 0 59 9 67 44 40z"/>
</g>
<g id="part-2" class="char-part">
  <path d="M520 583 c0 -17 32 -53 46 -53 11 0 14 8 12 28 -2 21 -9 28 -30 30
-16 2 -28 0 -28 -5z"/>
  <path d="M590 524 c-58 -7 -130 -16 -160 -19 -43 -6 -50 -9 -36 -17 12 -7 62
-5 157 6 77 9 159 16 184 16 48 0 60 14 23 24 -28 7 -38 7 -168 -10z"/>
</g>
<g id="part-3" class="char-part">
  <path d="M600 482 c0 -10 -8 -28 -17 -41 l-16 -24 -8 22 c-9 22 -47 43 -62 34
-5 -3 5 -20 22 -37 27 -28 31 -39 31 -85 0 -50 -1 -53 -22 -48 -21 6 -21 4 5
-19 16 -13 33 -22 38 -19 5 4 9 39 9 79 0 69 1 73 35 106 36 35 37 50 4 50
-12 0 -19 -7 -19 -18z"/>
  <path d="M701 449 c-13 -10 -36 -19 -51 -19 -26 0 -27 -1 -22 -49 2 -27 -1
-58 -8 -71 -21 -39 4 -47 47 -14 37 29 38 29 13 32 -23 3 -25 7 -22 37 6 51
16 47 76 -27 39 -48 71 -60 104 -39 10 6 7 11 -15 18 -15 6 -52 29 -82 53 -55
44 -56 59 -3 60 26 0 29 16 4 29 -12 7 -24 4 -41 -10z"/>
  <path d="M418 418 c-45 -10 -67 -28 -33 -28 8 0 15 -7 15 -15 0 -19 -27 -65
-49 -82 -9 -8 -10 -13 -3 -13 23 0 92 79 92 106 0 43 25 21 28 -25 3 -36 0
-43 -17 -48 -17 -4 -19 -9 -10 -24 12 -24 36 -24 47 -1 21 40 33 114 21 128
-13 16 -24 16 -91 2z"/>
  <path d="M667 256 c4 -20 1 -23 -24 -23 -15 1 -59 -3 -96 -7 -64 -8 -68 -7
-65 10 2 15 -4 20 -30 22 -31 3 -33 2 -22 -18 15 -29 -4 -118 -36 -165 -21
-31 -22 -36 -7 -33 9 2 31 22 48 44 30 41 31 41 110 48 44 4 90 10 103 13 21
5 22 2 22 -56 0 -46 4 -63 15 -68 9 -3 19 -2 23 2 11 11 19 228 9 243 -5 6
-20 12 -32 12 -18 0 -21 -4 -18 -24z m11 -62 c-3 -23 -8 -27 -43 -30 -22 -1
-68 -6 -102 -9 -49 -5 -63 -4 -63 7 1 33 8 35 198 57 9 0 12 -8 10 -25z"/>
</g>
</g>
</svg>