<?xml version="1.0" standalone="no"?>
<!DOCTYPE svg PUBLIC "-//W3C//DTD SVG 20010904//EN"
 "http://www.w3.org/TR/2001/REC-SVG-20010904/DTD/svg10.dtd">
<svg version="1.0" xmlns="http://www.w3.org/2000/svg"
 width="96.000000pt" height="68.000000pt" viewBox="0 0 96.000000 68.000000"
 preserveAspectRatio="xMidYMid meet">
<metadata>
Created by potrace 1.16, written by Peter Selinger 2001-2019
Combined from part_0.svg through part_5.svg with named groups
</metadata>
<g transform="translate(0.000000,68.000000) scale(0.100000,-0.100000)" fill="#000000" stroke="none">
<g id="part-0" class="char-part">
  <path d="M540 529 c-25 -4 -85 -8 -134 -8 -86 -1 -88 -2 -67 -18 14 -11 29
-45 40 -89 22 -85 29 -98 44 -86 16 13 166 21 173 11 3 -5 13 -9 23 -9 14 0
25 17 41 63 13 34 32 77 42 94 l20 33 -27 10 c-30 11 -89 11 -155 -1z m100
-32 c0 -13 -7 -46 -15 -74 l-15 -50 -52 -7 c-29 -3 -69 -6 -88 -6 -35 0 -36 1
-57 65 -24 73 -20 80 41 84 l39 3 -7 -34 c-3 -18 -15 -45 -26 -60 -25 -34 -15
-36 17 -6 20 19 27 20 43 10 11 -7 29 -17 40 -24 10 -7 22 -9 26 -6 13 14 -7
39 -36 45 -24 4 -29 10 -24 22 4 9 8 25 9 36 2 11 4 21 4 23 1 1 24 2 51 2 46
0 50 -2 50 -23z"/>
  <path d="M191 513 c31 -39 63 -63 84 -63 30 0 35 8 23 35 -11 25 -54 45 -96
45 -22 0 -23 -2 -11 -17z"/>
  <path d="M123 392 c-32 -5 -29 -16 14 -51 39 -33 58 -38 68 -20 22 34 -30 79
-82 71z"/>
  <path d="M231 256 c-12 -18 -41 -52 -66 -75 -48 -44 -52 -55 -33 -96 22 -48
42 -31 91 80 26 58 47 110 47 115 0 20 -19 9 -39 -24z"/>
  <path d="M520 274 c-69 -8 -145 -11 -170 -8 -45 6 -45 6 -26 -15 14 -16 44
-114 46 -153 0 -5 -29 -8 -65 -8 -36 0 -65 -4 -65 -10 0 -16 63 -22 120 -12
29 5 145 10 259 11 113 1 210 6 214 10 15 15 -52 34 -98 29 -39 -5 -45 -3 -45
14 0 10 12 42 26 70 l26 52 -22 18 c-25 20 -30 21 -200 2z m24 -86 c-3 -40
-10 -77 -15 -82 -16 -18 -39 3 -39 36 0 18 -3 49 -6 70 -7 38 0 44 49 47 17 1
18 -5 11 -71z m116 55 c0 -9 -5 -43 -12 -75 l-12 -58 -38 0 c-21 0 -38 2 -38
5 0 2 9 27 20 55 11 28 20 60 20 70 0 16 7 20 30 20 21 0 30 -5 30 -17z m-205
-60 c4 -31 9 -62 11 -68 3 -7 -6 -14 -20 -17 -28 -6 -51 5 -42 20 3 5 -1 29
-9 52 -20 57 -19 68 8 72 38 6 45 -1 52 -59z"/>
</g>
<g id="part-1" class="char-part">
  <path d="M190 522 c0 -14 68 -72 85 -72 27 0 18 49 -10 60 -47 18 -75 22 -75
12z"/>
  <path d="M110 381 c0 -16 62 -62 79 -59 28 6 24 36 -8 52 -33 18 -71 21 -71 7z"/>
  <path d="M245 269 c-4 -12 -34 -48 -67 -81 l-61 -61 17 -33 c8 -19 20 -34 26
-34 5 0 26 35 46 77 47 101 65 153 54 153 -5 0 -12 -9 -15 -21z"/>
</g>
<g id="part-2" class="char-part">
  <path d="M555 533 c-44 -6 -116 -12 -159 -12 l-80 -1 26 -27 c16 -17 30 -49
37 -81 14 -69 29 -96 44 -84 16 13 177 23 177 11 0 -5 9 -9 19 -9 15 0 26 17
47 73 15 39 34 80 42 90 34 39 -37 58 -153 40z m83 -37 c2 -11 -4 -45 -13 -75
l-17 -56 -87 -3 -87 -3 -22 68 c-12 37 -20 68 -18 70 6 6 152 21 196 19 36 -1
46 -5 48 -20z"/>
</g>
<g id="part-3" class="char-part">
  <path d="M497 503 c-4 -3 -7 -14 -7 -23 0 -9 -14 -36 -30 -58 -34 -48 -26 -55
14 -15 23 23 30 25 44 15 31 -22 62 -35 68 -29 13 13 -7 38 -36 43 -31 7 -38
22 -19 41 6 6 8 16 5 22 -8 12 -29 15 -39 4z"/>
</g>
<g id="part-4" class="char-part">
  <path d="M550 218 c0 -24 -3 -60 -6 -81 -6 -31 -11 -37 -30 -37 -21 0 -24 5
-24 38 0 73 -11 112 -31 112 -15 0 -18 -5 -14 -22 12 -50 23 -123 20 -127 -2
-2 -53 -6 -112 -8 -59 -3 -110 -7 -112 -9 -11 -10 14 -18 52 -17 23 1 156 5
295 8 173 5 252 11 249 18 -6 20 -64 27 -163 18 -54 -4 -102 -5 -107 -1 -4 3
2 33 13 65 23 66 20 85 -10 85 -17 0 -20 -6 -20 -42z"/>
</g>
</g>
</svg>