<?xml version="1.0" standalone="no"?>
<!DOCTYPE svg PUBLIC "-//W3C//DTD SVG 20010904//EN"
 "http://www.w3.org/TR/2001/REC-SVG-20010904/DTD/svg10.dtd">
<svg version="1.0" xmlns="http://www.w3.org/2000/svg"
 width="96.000000pt" height="68.000000pt" viewBox="0 0 96.000000 68.000000"
 preserveAspectRatio="xMidYMid meet">
<metadata>
Created by potrace 1.16, written by Peter Selinger 2001-2019
Combined from part_0.svg through part_5.svg with named groups
</metadata>
<g transform="translate(0.000000,68.000000) scale(0.100000,-0.100000)" fill="#000000" stroke="none">
<g id="part-0" class="char-part">
  <path d="M612 590 c-12 -5 -47 -10 -76 -11 -47 -2 -53 -4 -45 -18 5 -9 12 -32
17 -51 l8 -35 58 3 c87 6 90 7 98 39 4 17 15 36 23 43 35 29 -28 52 -83 30z
m28 -39 c0 -32 -29 -52 -69 -49 -31 3 -36 7 -39 30 -3 23 1 27 30 31 72 9 78
8 78 -12z"/>
  <path d="M335 570 c-11 -5 -41 -9 -67 -9 -27 -1 -48 -3 -48 -6 0 -2 9 -19 20
-37 11 -18 20 -41 20 -50 0 -22 19 -33 33 -19 6 6 27 11 47 11 55 0 82 10 75
28 -3 8 2 26 11 39 23 36 12 53 -33 52 -21 0 -47 -4 -58 -9z m35 -50 c0 -25
-67 -40 -81 -19 -14 22 -5 34 32 40 42 6 49 3 49 -21z"/>
  <path d="M405 427 c-104 -10 -192 -21 -194 -23 -2 -2 4 -11 14 -20 39 -39 -15
-219 -90 -303 -46 -51 -33 -53 24 -5 37 32 91 117 91 143 0 5 5 22 12 38 6 15
12 40 13 55 6 65 13 75 57 82 24 3 72 8 108 10 205 14 250 19 250 26 0 8 -53
21 -79 19 -9 -1 -101 -11 -206 -22z"/>
  <path d="M560 367 c0 -12 -9 -40 -20 -62 -22 -43 -19 -56 7 -33 10 9 35 18 57
20 l38 4 -6 -40 c-5 -35 -12 -75 -15 -83 -1 -2 -16 6 -33 17 -47 29 -53 25
-16 -9 33 -29 33 -30 13 -46 -11 -9 -33 -22 -50 -30 l-30 -14 30 0 c17 0 41 6
55 14 35 20 40 19 80 -16 19 -17 45 -35 57 -40 24 -9 123 -1 123 11 0 3 -24
12 -52 19 -64 16 -138 49 -144 65 -3 7 3 29 11 50 9 21 15 55 13 75 -3 35 -2
36 35 39 20 2 37 7 37 13 0 12 -47 11 -110 -2 -28 -6 -54 -8 -57 -5 -3 3 1 16
10 29 12 18 13 27 4 36 -18 18 -37 13 -37 -12z"/>
  <path d="M399 366 c-2 -2 -22 -7 -43 -10 -51 -8 -59 -16 -17 -16 28 0 32 -3
29 -22 -2 -17 -11 -24 -33 -26 -47 -5 -59 -11 -48 -25 6 -6 11 -43 12 -82 2
-38 4 -72 7 -76 5 -8 -51 -29 -77 -29 -27 0 -23 -19 4 -25 14 -4 53 6 100 24
43 17 79 31 82 31 2 0 5 -20 7 -45 2 -25 8 -45 13 -45 6 0 12 53 15 128 6 134
11 155 35 145 8 -3 15 0 15 7 0 9 -12 11 -44 7 -38 -6 -45 -4 -49 13 -4 17 1
21 35 26 27 5 35 10 26 15 -13 9 -61 12 -69 5z m21 -105 c0 -13 -10 -20 -31
-25 -51 -10 -59 -8 -59 19 0 23 4 25 45 25 37 0 45 -3 45 -19z m0 -61 c0 -14
-7 -20 -22 -20 -13 0 -33 -3 -45 -6 -18 -5 -23 -2 -23 14 0 20 16 28 68 31 16
1 22 -5 22 -19z m0 -54 c0 -18 -7 -25 -27 -29 -16 -3 -36 -9 -45 -12 -15 -6
-18 -2 -18 23 0 29 3 31 43 35 23 2 43 4 45 5 1 1 2 -9 2 -22z"/>
</g>
<g id="part-1" class="char-part">
  <path d="M315 564 c-27 -8 -58 -11 -67 -8 -19 6 -24 -6 -9 -21 5 -6 14 -27 21
-48 9 -28 16 -37 28 -32 8 3 41 8 73 12 41 4 56 9 52 18 -2 7 3 28 12 45 14
27 15 34 3 41 -18 12 -53 9 -113 -7z m59 -41 c-8 -34 -2 -29 -47 -36 -34 -5
-39 -3 -47 19 -6 14 -10 27 -10 29 0 4 43 11 83 14 25 1 27 -1 21 -26z"/>
</g>
<g id="part-2" class="char-part">
  <path d="M605 590 c-11 -5 -43 -9 -71 -9 l-51 -1 20 -60 c14 -43 23 -58 31
-50 5 5 28 10 51 10 57 0 85 10 85 29 0 9 9 27 20 41 13 18 16 28 8 37 -12 15
-63 16 -93 3z m35 -37 c0 -33 -17 -46 -62 -47 -40 -1 -43 1 -46 26 -3 22 1 27
25 31 65 10 83 7 83 -10z"/>
</g>
<g id="part-3" class="char-part">
  <path d="M430 430 c-96 -10 -188 -19 -204 -19 l-30 -1 22 -20 c25 -24 26 -38
11 -112 -17 -78 -41 -128 -94 -192 -46 -56 -46 -58 -15 -40 79 46 132 140 160
285 11 57 11 57 53 63 23 3 112 11 197 16 150 11 170 14 157 26 -13 13 -92 11
-257 -6z"/>
</g>
<g id="part-4" class="char-part">
  <path d="M360 355 c-46 -11 -50 -13 -22 -14 29 -1 33 -4 30 -23 -3 -20 -10
-23 -50 -26 -27 -2 -48 -7 -48 -13 0 -11 5 -11 110 1 112 14 118 15 127 24 4
5 -15 6 -44 3 -29 -3 -55 -2 -58 3 -9 14 25 40 53 40 21 0 24 2 12 10 -19 12
-40 11 -110 -5z"/>
</g>
<g id="part-5" class="char-part">
  <path d="M638 243 c-3 -27 -7 -54 -9 -62 -2 -7 2 -16 10 -19 10 -3 13 1 8 17
-3 11 -1 19 3 16 11 -7 31 62 23 81 -12 31 -31 13 -35 -33z"/>
  <path d="M600 162 c0 -12 36 -43 42 -37 3 3 13 -6 22 -19 9 -14 29 -32 46 -41
31 -16 101 -18 122 -3 8 6 5 7 -11 3 -14 -4 -21 -3 -18 2 4 5 1 10 -6 10 -43
2 -117 32 -147 60 -35 33 -50 40 -50 25z"/>
  <path d="M590 125 c-14 -16 -3 -20 19 -6 8 5 9 11 3 15 -5 3 -15 -1 -22 -9z"/>
</g>
</g>
</svg>