<?xml version="1.0" standalone="no"?>
<!DOCTYPE svg PUBLIC "-//W3C//DTD SVG 20010904//EN"
 "http://www.w3.org/TR/2001/REC-SVG-20010904/DTD/svg10.dtd">
<svg version="1.0" xmlns="http://www.w3.org/2000/svg"
 width="96.000000pt" height="68.000000pt" viewBox="0 0 96.000000 68.000000"
 preserveAspectRatio="xMidYMid meet">
<metadata>
Created by potrace 1.16, written by Peter Selinger 2001-2019
Combined from part_0.svg through part_5.svg with named groups
</metadata>
<g transform="translate(0.000000,68.000000) scale(0.100000,-0.100000)" fill="#000000" stroke="none">
<g id="part-0" class="char-part">
  <path d="M526 586 l6 -54 -41 -6 c-22 -3 -59 -9 -81 -12 -22 -3 -40 -11 -40
-16 0 -7 26 -9 80 -5 l80 6 0 -38 0 -38 -51 -7 c-36 -5 -49 -10 -42 -17 7 -7
34 -7 84 0 41 5 103 13 138 17 59 6 63 8 45 21 -14 10 -33 12 -71 7 l-53 -6 0
36 0 36 58 1 c31 1 68 4 81 8 21 6 22 8 7 20 -12 10 -33 12 -81 6 l-66 -7 3
42 c2 43 -10 60 -45 60 -15 0 -16 -7 -11 -54z"/>
  <path d="M205 521 c-16 -4 -45 -5 -64 -3 -31 5 -33 3 -26 -14 15 -33 17 -133
5 -215 -8 -57 -8 -84 0 -99 11 -20 36 -27 42 -12 2 5 22 12 45 16 36 5 44 3
53 -14 13 -25 46 -26 58 -3 10 20 8 326 -3 342 -7 12 -63 13 -110 2z m63 -86
l3 -60 -46 -2 -45 -2 0 59 c0 53 2 59 23 63 56 11 62 6 65 -58z m2 -150 c0
-53 -1 -55 -27 -55 -16 0 -38 -3 -50 -6 -22 -6 -23 -3 -23 48 0 30 3 58 7 61
3 4 26 7 50 7 l43 0 0 -55z"/>
  <path d="M603 361 c7 -34 17 -31 -153 -51 -52 -6 -96 -13 -99 -15 -13 -14 45
-17 133 -7 56 7 107 12 114 12 10 0 12 -24 10 -102 l-3 -103 -45 3 -45 3 25
-24 c14 -13 37 -31 52 -41 25 -17 26 -16 48 11 21 26 22 36 17 126 -7 139 -8
137 72 137 78 0 105 12 72 30 -15 7 -44 9 -85 5 -61 -7 -63 -6 -62 17 1 18 -5
24 -28 26 -27 3 -28 2 -23 -27z"/>
  <path d="M420 234 c0 -14 59 -66 69 -60 18 11 13 34 -11 50 -22 15 -58 22 -58
10z"/>
</g>
<g id="part-1" class="char-part">
  <path d="M220 518 c-19 -5 -48 -8 -65 -5 l-30 5 0 -168 c0 -93 4 -172 8 -177
5 -4 14 0 21 10 20 26 93 23 116 -5 17 -21 20 -21 34 -8 12 12 15 46 17 179 1
194 -1 198 -101 169z m58 -85 l3 -63 -33 0 c-18 0 -43 -3 -55 -6 -22 -6 -23
-4 -23 59 0 73 4 77 65 74 l40 -2 3 -62z m0 -145 l-3 -63 -59 -3 -59 -3 7 32
c3 17 6 44 6 60 0 24 4 28 33 32 83 10 78 14 75 -55z"/>
</g>
<g id="part-2" class="char-part">
  <path d="M515 631 c-3 -5 -1 -12 5 -16 5 -3 10 -24 10 -45 0 -37 -1 -38 -40
-44 -22 -3 -58 -9 -80 -12 -24 -3 -38 -10 -34 -16 5 -7 33 -8 80 -4 l74 6 0
-40 c0 -38 -1 -40 -32 -41 -18 -1 -44 -4 -58 -9 -50 -15 10 -24 84 -12 39 6
100 14 135 18 58 6 62 8 45 21 -14 10 -34 12 -71 7 l-53 -6 0 35 0 34 75 5
c42 3 79 8 82 12 17 17 -26 27 -91 21 l-69 -5 6 40 c4 32 2 42 -13 50 -23 13
-47 13 -55 1z"/>
</g>
<g id="part-3" class="char-part">
  <path d="M603 365 c6 -33 -9 -41 -103 -49 -117 -11 -150 -18 -143 -29 6 -10
102 -6 206 9 l48 7 -3 -104 -3 -104 -45 3 -45 3 45 -40 c25 -22 48 -40 52 -41
4 0 16 12 28 28 20 24 22 37 20 127 -4 148 -11 135 74 135 41 0 78 5 81 10 11
18 -46 31 -102 24 -49 -6 -53 -5 -53 14 0 20 -18 32 -47 32 -11 0 -14 -7 -10
-25z"/>
</g>
<g id="part-4" class="char-part">
  <path d="M428 224 c25 -47 72 -67 72 -30 0 18 -19 33 -54 42 -25 6 -27 5 -18
-12z"/>
</g>
</g>
</svg>