<?xml version="1.0" standalone="no"?>
<!DOCTYPE svg PUBLIC "-//W3C//DTD SVG 20010904//EN"
 "http://www.w3.org/TR/2001/REC-SVG-20010904/DTD/svg10.dtd">
<svg version="1.0" xmlns="http://www.w3.org/2000/svg"
 width="96.000000pt" height="68.000000pt" viewBox="0 0 96.000000 68.000000"
 preserveAspectRatio="xMidYMid meet">
<metadata>
Created by potrace 1.16, written by Peter Selinger 2001-2019
Combined from part_0.svg through part_5.svg with named groups
</metadata>
<g transform="translate(0.000000,68.000000) scale(0.100000,-0.100000)" fill="#000000" stroke="none">
<g id="part-0" class="char-part">
  <path d="M569 583 c3 -39 1 -43 -20 -43 -13 0 -35 -3 -47 -7 -29 -7 -11 -23
27 -23 20 0 22 -4 17 -25 -9 -34 9 -32 36 5 20 28 26 30 91 30 60 0 68 2 65
18 -3 14 -14 17 -59 17 -55 0 -56 0 -46 22 12 28 8 33 -35 42 l-33 8 4 -44z"/>
  <path d="M317 594 c-3 -4 0 -19 9 -35 16 -32 18 -31 -78 -33 -38 -1 -43 -12
-14 -31 25 -17 55 -17 98 0 13 5 21 0 29 -19 16 -35 39 -34 39 3 0 25 5 31 30
36 40 9 38 25 -3 25 -27 0 -35 5 -44 30 -8 22 -18 30 -35 30 -14 0 -27 -3 -31
-6z"/>
  <path d="M636 450 c11 -52 -2 -77 -40 -82 -34 -4 -35 -3 -38 32 -2 28 -8 36
-27 38 -22 3 -23 1 -16 -36 6 -38 5 -39 -27 -47 l-33 -9 33 -3 c31 -4 33 -6
30 -41 -3 -35 -5 -37 -43 -43 -32 -4 -36 -7 -21 -14 10 -4 58 -3 110 3 50 7
131 15 179 18 64 5 85 10 77 18 -6 6 -40 10 -84 8 l-73 -3 5 30 c4 26 10 31
45 38 54 11 61 33 10 33 l-39 0 4 39 c3 33 1 39 -20 44 -36 10 -38 9 -32 -23z
m-4 -140 c-2 -16 -9 -30 -16 -30 -6 0 -21 -3 -33 -6 -21 -6 -23 -3 -23 30 0
35 1 36 38 36 37 0 38 -1 34 -30z"/>
  <path d="M284 423 c1 -37 0 -38 -44 -51 l-45 -12 48 5 c45 4 47 3 47 -20 0
-22 -4 -25 -40 -25 -22 0 -40 -4 -40 -10 0 -5 18 -10 40 -10 32 0 40 -4 40
-19 0 -16 -13 -21 -80 -32 -44 -7 -80 -16 -80 -20 0 -13 45 -18 85 -9 22 5 46
10 54 10 15 0 -101 -120 -134 -138 -18 -11 -19 -11 -2 -12 22 0 67 29 121 79
l38 36 -6 -88 c-6 -75 -5 -88 9 -93 26 -10 30 3 32 94 1 48 3 89 3 91 0 2 16
-13 35 -33 35 -38 55 -40 55 -7 0 17 -52 51 -78 51 -12 0 -23 26 -15 34 3 3
28 9 54 12 59 8 55 24 -6 24 -28 0 -45 5 -49 15 -4 11 6 16 44 21 29 4 47 11
44 16 -4 6 -24 8 -45 5 -33 -4 -39 -2 -39 13 0 24 18 37 63 45 20 4 37 11 37
15 0 13 -42 20 -61 9 -25 -13 -29 -12 -29 11 0 11 -6 20 -14 20 -8 0 -21 3
-29 6 -11 4 -14 -3 -13 -33z"/>
  <path d="M630 219 c-14 -6 -52 -11 -85 -11 l-60 -1 2 -79 c1 -91 8 -115 26
-100 6 5 44 12 83 15 68 5 72 5 82 -19 29 -61 61 2 54 106 -2 41 -9 81 -14 88
-12 14 -53 15 -88 1z m58 -45 c3 -19 -5 -22 -67 -32 -93 -16 -91 -16 -91 17 0
26 4 30 33 34 17 2 52 4 77 3 38 -1 45 -4 48 -22z m2 -79 c0 -14 -6 -25 -12
-26 -7 0 -39 -3 -71 -5 -70 -7 -87 -2 -80 25 4 16 15 21 52 24 113 9 111 9
111 -18z"/>
</g>
<g id="part-1" class="char-part">
  <path d="M580 591 c0 -38 -23 -61 -63 -61 -24 0 -28 -3 -17 -10 8 -5 25 -10
36 -10 18 0 20 -5 17 -27 l-4 -28 28 33 c22 26 36 32 68 33 22 1 54 5 70 9
l30 7 -27 11 c-15 6 -43 8 -62 5 -39 -6 -42 -3 -26 28 9 16 7 21 -15 29 -36
14 -35 14 -35 -19z"/>
  <path d="M324 589 c-3 -5 0 -18 6 -29 17 -31 4 -40 -58 -40 l-57 -1 24 -20
c14 -11 31 -17 40 -14 9 4 30 9 46 12 26 4 33 1 45 -24 l14 -28 5 35 c5 29 11
36 34 38 38 5 34 20 -5 18 -29 -1 -33 3 -36 25 -2 19 -10 28 -28 32 -13 2 -27
1 -30 -4z"/>
</g>
<g id="part-2" class="char-part">
  <path d="M283 423 c2 -35 0 -37 -43 -50 l-45 -13 48 5 c45 4 47 3 47 -20 0
-21 -5 -25 -32 -25 -64 0 -61 -17 4 -23 34 -3 65 -2 68 3 3 5 25 12 48 16 52
8 44 27 -9 22 -34 -3 -39 -1 -39 17 0 17 10 24 50 34 28 7 50 17 50 22 0 15
-47 21 -71 9 -19 -11 -21 -10 -16 4 5 12 -1 19 -19 26 -39 15 -44 13 -41 -27z"/>
</g>
<g id="part-3" class="char-part">
  <path d="M290 276 c0 -9 -25 -17 -80 -26 -44 -7 -80 -16 -80 -21 0 -16 43 -21
86 -9 25 7 47 10 51 6 8 -8 -38 -57 -100 -107 -27 -22 -44 -39 -37 -39 19 0
73 31 118 67 l43 35 -3 -83 c-3 -70 0 -84 13 -87 21 -4 29 25 29 112 l0 68 36
-31 c37 -33 54 -33 54 0 0 14 -13 26 -45 40 -60 27 -58 45 6 54 61 9 52 29
-10 23 -23 -2 -41 0 -41 4 0 5 -9 8 -20 8 -11 0 -20 -6 -20 -14z"/>
</g>
<g id="part-4" class="char-part">
  <path d="M635 219 c-16 -5 -57 -10 -91 -12 l-60 -2 6 -40 c3 -22 3 -57 -1 -78
-6 -40 13 -83 28 -61 5 6 40 14 79 17 69 5 72 5 82 -19 13 -28 24 -30 43 -8 9
11 13 44 12 102 -1 110 -17 126 -98 101z m55 -43 c0 -27 -11 -31 -107 -42
l-62 -6 8 28 c8 32 31 41 114 43 43 1 47 -1 47 -23z m-2 -83 c-3 -25 -5 -26
-85 -30 l-83 -5 0 26 c0 23 4 25 48 29 124 9 124 10 120 -20z"/>
</g>
</g>
</svg>