<?xml version="1.0" standalone="no"?>
<!DOCTYPE svg PUBLIC "-//W3C//DTD SVG 20010904//EN"
 "http://www.w3.org/TR/2001/REC-SVG-20010904/DTD/svg10.dtd">
<svg version="1.0" xmlns="http://www.w3.org/2000/svg"
 width="96.000000pt" height="68.000000pt" viewBox="0 0 96.000000 68.000000"
 preserveAspectRatio="xMidYMid meet">
<metadata>
Created by potrace 1.16, written by Peter Selinger 2001-2019
Combined from part_0.svg through part_5.svg with named groups
</metadata>
<g transform="translate(0.000000,68.000000) scale(0.100000,-0.100000)" fill="#000000" stroke="none">
<g id="part-0" class="char-part">
  <path d="M245 593 c4 -10 9 -34 12 -54 5 -32 2 -37 -18 -42 -13 -4 -34 -7 -46
-7 -13 0 -23 -4 -23 -9 0 -12 26 -21 61 -21 22 0 29 -5 29 -20 0 -17 -7 -20
-47 -21 -27 -1 -54 0 -62 1 -9 1 -12 -4 -7 -16 4 -9 14 -46 22 -80 l16 -64 39
6 c38 6 39 6 39 -23 0 -30 -1 -31 -80 -43 -89 -14 -113 -37 -27 -26 28 3 63 9
76 13 24 6 24 6 17 -58 -5 -48 -3 -69 7 -84 13 -16 17 -17 31 -6 12 10 16 32
16 87 l0 73 63 3 c79 4 77 23 -3 22 -59 -1 -60 -1 -60 28 0 29 6 32 60 29 22
-2 27 5 48 68 12 38 22 71 22 74 0 15 -59 27 -84 17 -36 -13 -36 -13 -36 10 0
13 9 22 28 26 47 10 54 14 50 27 -3 6 -19 13 -36 15 -29 3 -32 6 -32 37 0 37
-20 55 -60 55 -17 0 -21 -4 -15 -17z m125 -182 c0 -5 3 -16 6 -25 5 -13 -2
-16 -35 -16 -34 0 -41 3 -41 19 0 11 6 22 13 24 21 9 57 7 57 -2z m-105 -27
c0 -15 -8 -20 -37 -22 -32 -3 -38 0 -38 17 0 14 8 21 28 24 39 6 47 3 47 -19z
m101 -49 c-3 -11 -6 -23 -6 -27 0 -5 -10 -6 -22 -4 -13 3 -26 5 -30 5 -16 2
-7 40 10 44 38 9 53 3 48 -18z m-106 -20 c0 -21 -5 -25 -30 -25 -25 0 -30 4
-30 25 0 21 5 25 30 25 25 0 30 -4 30 -25z"/>
  <path d="M555 566 c-51 -6 -85 -15 -78 -19 7 -4 18 -26 24 -47 10 -32 16 -39
33 -35 12 2 51 7 89 10 38 4 67 11 67 18 0 6 10 21 23 35 22 23 22 24 3 38
-22 16 -34 16 -161 0z m105 -35 c0 -27 -4 -30 -43 -36 -69 -11 -92 -4 -92 25
0 22 5 26 45 31 89 12 90 12 90 -20z"/>
  <path d="M665 428 c-167 -21 -224 -31 -219 -39 3 -5 16 -9 28 -9 20 0 24 -6
30 -46 3 -26 6 -68 6 -94 0 -45 -2 -48 -31 -54 -17 -3 -44 -6 -60 -6 -16 0
-29 -4 -29 -9 0 -17 53 -19 129 -5 42 7 90 13 107 14 l31 0 6 -76 c9 -118 24
-118 35 1 l7 79 67 -3 c38 -1 69 2 73 8 11 18 -46 33 -99 25 l-49 -6 7 93 c4
51 9 96 12 101 3 4 16 8 30 8 13 0 24 4 24 9 0 14 -40 17 -105 9z m-5 -56 c0
-16 -5 -29 -12 -29 -7 0 -32 -3 -55 -7 -43 -8 -43 -8 -43 22 0 27 4 31 33 35
76 9 77 9 77 -21z m0 -71 c0 -18 -39 -31 -97 -31 -28 0 -20 37 11 43 57 11 86
7 86 -12z m0 -71 l0 -30 -60 0 c-41 0 -60 4 -60 13 0 26 17 36 65 40 28 2 51
4 53 5 1 1 2 -11 2 -28z"/>
</g>
<g id="part-1" class="char-part">
  <path d="M257 545 l6 -55 -34 0 c-19 0 -41 -5 -49 -10 -11 -7 -2 -10 33 -10
40 0 47 -3 47 -20 0 -15 7 -20 25 -20 20 0 25 5 25 24 0 20 6 24 43 30 39 7
41 8 23 21 -11 9 -29 12 -44 8 -23 -5 -24 -4 -17 26 8 38 -7 61 -41 61 -21 0
-22 -3 -17 -55z"/>
</g>
<g id="part-2" class="char-part">
  <path d="M267 273 c-4 -3 -7 -17 -7 -29 0 -30 -4 -32 -94 -45 -46 -7 -73 -15
-70 -21 6 -10 83 -5 131 8 22 6 22 4 20 -69 -1 -52 2 -80 11 -89 24 -24 42 18
42 98 l0 73 63 3 c79 4 74 23 -5 22 -57 -1 -58 -1 -58 28 0 26 -17 38 -33 21z"/>
</g>
<g id="part-3" class="char-part">
  <path d="M550 566 c-48 -6 -80 -15 -73 -19 7 -4 17 -26 23 -47 10 -35 13 -39
38 -35 15 2 57 7 95 10 37 4 65 10 62 15 -2 4 5 20 16 34 17 21 19 29 9 41
-14 17 -46 17 -170 1z m110 -35 c0 -24 -5 -29 -31 -35 -63 -12 -97 -7 -104 15
-9 27 -3 31 48 40 82 13 87 12 87 -20z"/>
</g>
<g id="part-4" class="char-part">
  <path d="M600 420 c-25 -4 -71 -11 -103 -14 -54 -7 -72 -26 -23 -26 20 0 24
-6 30 -46 3 -26 6 -69 6 -95 0 -55 16 -64 31 -19 10 27 15 30 52 30 42 0 77
14 65 25 -3 3 -29 2 -56 -3 -48 -8 -50 -8 -55 14 -3 18 2 23 26 28 16 3 42 6
58 6 16 0 29 5 29 11 0 8 -17 10 -54 5 -54 -6 -54 -6 -58 23 -5 33 -9 32 161
47 48 4 69 9 60 15 -16 10 -105 10 -169 -1z"/>
</g>
<g id="part-5" class="char-part">
  <path d="M665 344 c0 -30 4 -54 10 -54 5 0 3 -5 -5 -10 -12 -7 -13 -13 -4 -27
17 -27 -2 -61 -31 -56 -12 3 -26 0 -29 -6 -5 -7 5 -11 29 -11 22 0 34 -4 30
-10 -3 -5 2 -10 12 -10 15 0 16 -2 3 -10 -13 -8 -13 -10 1 -10 11 0 18 11 22
33 2 17 2 33 -2 34 -3 2 -3 40 0 85 5 82 1 100 -23 104 -9 1 -13 -15 -13 -52z"/>
  <path d="M753 209 c-49 -14 -40 -20 27 -18 33 1 57 6 54 11 -3 5 -12 7 -20 4
-8 -3 -14 -1 -14 4 0 12 -4 11 -47 -1z"/>
  <path d="M420 168 c13 -5 37 -7 53 -4 51 8 42 15 -18 14 -44 -1 -52 -4 -35
-10z"/>
  <path d="M681 130 c-2 -3 -4 -27 -6 -55 -2 -40 -1 -45 7 -25 7 20 6 96 -1 80z"/>
</g>
</g>
</svg>