<?xml version="1.0" standalone="no"?>
<!DOCTYPE svg PUBLIC "-//W3C//DTD SVG 20010904//EN"
 "http://www.w3.org/TR/2001/REC-SVG-20010904/DTD/svg10.dtd">
<svg version="1.0" xmlns="http://www.w3.org/2000/svg"
 width="96.000000pt" height="68.000000pt" viewBox="0 0 96.000000 68.000000"
 preserveAspectRatio="xMidYMid meet">
<metadata>
Created by potrace 1.16, written by Peter Selinger 2001-2019
Combined from part_0.svg through part_5.svg with named groups
</metadata>
<g transform="translate(0.000000,68.000000) scale(0.100000,-0.100000)" fill="#000000" stroke="none">
<g id="part-0" class="char-part">
  <path d="M550 596 c0 -36 -12 -46 -55 -46 -13 0 -26 -4 -29 -9 -7 -10 17 -21
46 -21 17 0 20 -4 15 -30 -8 -40 6 -38 40 5 26 33 32 35 85 35 31 0 59 4 63 9
8 15 -29 31 -69 31 -29 0 -34 3 -29 16 7 19 -21 44 -49 44 -14 0 -18 -8 -18
-34z"/>
  <path d="M270 603 c0 -5 7 -18 15 -29 23 -30 18 -34 -39 -34 -60 0 -80 -15
-50 -37 13 -10 34 -13 70 -9 47 5 52 4 62 -20 15 -31 32 -23 32 15 0 24 5 30
31 35 37 7 29 26 -11 26 -24 0 -29 5 -32 28 -3 23 -8 27 -40 30 -21 2 -38 -1
-38 -5z"/>
  <path d="M419 518 c0 -2 -2 -12 -4 -23 -6 -32 -124 -137 -200 -177 -70 -37
-75 -51 -9 -23 40 16 74 4 74 -27 0 -36 22 -68 44 -63 12 3 72 7 134 9 l113 3
30 47 c23 38 33 46 47 40 26 -12 143 -17 154 -6 6 6 -9 14 -39 22 -112 30
-293 132 -293 165 0 16 -47 46 -51 33z m119 -129 c45 -33 82 -62 82 -64 0 -3
-10 -1 -23 4 -14 6 -63 4 -128 -5 -57 -7 -125 -14 -151 -14 -50 0 -64 14 -25
26 19 6 93 61 135 101 7 7 17 13 21 13 4 0 45 -27 89 -61z m22 -101 c0 -36
-12 -44 -62 -47 l-48 -2 0 36 0 35 55 0 c50 0 55 -2 55 -22z m-150 -23 c0 -35
0 -35 -45 -35 -40 0 -47 3 -56 27 -12 33 0 43 59 43 41 0 42 0 42 -35z"/>
  <path d="M459 375 c-3 -2 -22 -5 -43 -7 -53 -3 -56 -18 -4 -18 61 0 119 11
112 21 -5 9 -57 13 -65 4z"/>
  <path d="M492 280 c-10 -16 -10 -20 0 -20 22 0 41 17 34 29 -10 16 -20 14 -34
-9z"/>
  <path d="M355 260 c20 -22 31 -20 22 5 -4 8 -14 15 -23 15 -16 0 -16 -2 1 -20z"/>
  <path d="M435 179 c-22 -4 -56 -8 -75 -8 l-35 -1 0 -68 c1 -69 11 -105 25 -82
4 6 34 14 68 17 54 5 61 3 71 -16 16 -30 49 -27 57 5 11 42 11 138 1 152 -10
13 -51 14 -112 1z m70 -32 c0 -15 -9 -19 -45 -22 -25 -2 -58 -6 -73 -10 -26
-7 -28 -5 -25 16 2 20 10 25 48 30 72 10 95 6 95 -14z m5 -62 c0 -23 -4 -25
-44 -25 -24 0 -58 -3 -76 -6 -29 -6 -31 -5 -28 17 3 21 9 25 63 30 33 3 66 6
73 7 7 1 12 -9 12 -23z"/>
</g>
<g id="part-1" class="char-part">
  <path d="M563 623 c-7 -3 -13 -20 -13 -39 0 -30 -3 -34 -27 -34 -16 0 -34 -4
-42 -9 -11 -7 -10 -10 6 -15 11 -4 28 -4 37 0 18 7 20 -4 6 -40 -14 -37 5 -32
29 8 23 37 44 46 109 46 23 0 42 4 42 9 0 12 -63 23 -85 15 -13 -5 -16 -2 -13
16 3 24 -28 51 -49 43z"/>
  <path d="M280 596 c0 -8 5 -18 10 -21 6 -3 10 -15 10 -26 0 -17 -7 -19 -62
-19 l-63 -1 25 -20 c24 -20 36 -21 96 -4 15 5 23 0 32 -20 14 -30 32 -25 32
10 0 18 7 27 28 32 l27 7 -35 6 c-28 4 -36 10 -39 30 -1 14 -8 28 -15 32 -19
13 -46 9 -46 -6z"/>
</g>
<g id="part-2" class="char-part">
  <path d="M417 513 c-4 -3 -7 -14 -7 -24 0 -25 -100 -112 -189 -165 -51 -31
-66 -43 -46 -39 48 10 152 65 198 104 81 70 64 71 188 -18 l111 -81 69 0 c70
0 91 13 42 24 -108 26 -313 138 -313 171 0 8 -9 19 -19 25 -23 12 -26 12 -34
3z"/>
</g>
<g id="part-3" class="char-part">
  <path d="M415 373 c-50 -7 -53 -23 -4 -23 62 0 120 11 113 21 -5 9 -53 10
-109 2z"/>
</g>
<g id="part-4" class="char-part">
  <path d="M445 180 c-16 -4 -50 -8 -75 -9 l-45 -1 0 -68 c1 -68 11 -105 25 -83
3 7 33 14 65 17 53 6 60 4 76 -17 15 -20 22 -22 36 -13 25 16 37 153 14 172
-16 13 -49 14 -96 2z m63 -36 c2 -17 -2 -20 -30 -20 -18 0 -52 -3 -76 -8 -42
-8 -44 -7 -40 15 3 26 28 34 103 34 33 0 41 -4 43 -21z m2 -59 c0 -23 -3 -25
-52 -25 -29 0 -64 -3 -76 -7 -21 -5 -23 -3 -20 18 3 21 10 25 53 30 95 11 95
11 95 -16z"/>
</g>
</g>
</svg>