<?xml version="1.0" standalone="no"?>
<!DOCTYPE svg PUBLIC "-//W3C//DTD SVG 20010904//EN"
 "http://www.w3.org/TR/2001/REC-SVG-20010904/DTD/svg10.dtd">
<svg version="1.0" xmlns="http://www.w3.org/2000/svg"
 width="96.000000pt" height="68.000000pt" viewBox="0 0 96.000000 68.000000"
 preserveAspectRatio="xMidYMid meet">
<metadata>
Created by potrace 1.16, written by Peter Selinger 2001-2019
Combined from part_0.svg through part_5.svg with named groups
</metadata>
<g transform="translate(0.000000,68.000000) scale(0.100000,-0.100000)" fill="#000000" stroke="none">
<g id="part-0" class="char-part">
  <path d="M525 573 c29 -107 61 -289 53 -294 -6 -4 -40 -9 -77 -13 -97 -10
-132 -17 -125 -27 3 -5 25 -9 49 -9 l44 0 -11 -30 c-5 -17 -30 -51 -55 -75
-24 -25 -42 -45 -38 -45 14 0 52 25 85 56 l35 33 34 -35 c22 -23 38 -31 44
-25 14 14 1 40 -32 58 -23 14 -28 23 -26 47 2 25 8 32 31 37 57 13 60 11 93
-55 17 -35 31 -66 31 -70 0 -4 -28 -25 -62 -47 -66 -43 -45 -44 33 -2 l46 25
51 -37 c58 -41 130 -60 119 -31 -4 10 -10 35 -13 57 -6 39 -24 45 -24 8 0 -25
-30 -25 -64 2 -33 26 -33 39 4 74 37 35 37 39 4 54 -31 14 -28 16 -40 -28 -5
-19 -14 -36 -20 -38 -12 -4 -62 83 -53 92 3 3 33 9 65 14 56 7 58 8 32 19 -15
6 -33 10 -40 8 -7 -3 -27 -7 -45 -10 -31 -5 -33 -3 -43 33 -19 71 -31 146 -31
201 -1 55 -16 79 -48 80 -10 0 -11 -7 -6 -27z"/>
  <path d="M210 558 c0 -25 45 -78 68 -78 29 0 30 42 2 70 -22 22 -70 27 -70 8z"/>
  <path d="M675 533 c-3 -15 -20 -44 -36 -65 -43 -53 -30 -66 39 -41 20 8 13
-10 -18 -46 -49 -56 -36 -71 36 -41 33 14 51 17 58 10 15 -15 36 -12 36 5 0 8
-9 19 -21 25 -17 9 -23 8 -33 -5 -7 -10 -22 -15 -34 -13 -20 3 -19 7 23 53 50
55 51 57 30 75 -12 10 -17 7 -26 -14 -12 -25 -46 -42 -69 -34 -6 2 5 22 26 46
21 25 34 49 30 57 -9 24 -33 17 -41 -12z"/>
  <path d="M441 488 c-10 -24 -28 -53 -40 -65 -36 -38 -19 -55 33 -34 18 7 18 8
2 14 -15 6 -13 13 19 52 22 26 35 51 31 60 -10 26 -26 16 -45 -27z"/>
  <path d="M202 460 c-119 -19 -136 -25 -112 -40 21 -14 64 -12 153 5 43 8 94
15 113 15 36 0 48 22 18 34 -22 8 -42 7 -172 -14z"/>
  <path d="M492 435 c-6 -14 -16 -25 -22 -25 -5 0 -10 -6 -10 -13 0 -7 -16 -28
-35 -47 -19 -19 -35 -38 -35 -42 0 -13 42 -9 75 7 l30 15 -35 -6 -35 -6 30 33
c17 19 32 36 35 39 34 35 40 48 27 58 -11 9 -16 7 -25 -13z"/>
  <path d="M238 377 c-65 -11 -78 -28 -20 -26 53 2 96 12 95 24 -2 13 -10 13
-75 2z"/>
  <path d="M500 342 c0 -19 18 -42 32 -42 12 0 9 35 -4 48 -17 17 -28 15 -28 -6z"/>
  <path d="M770 312 c0 -5 11 -19 25 -32 20 -19 28 -21 38 -11 9 10 7 16 -12 32
-24 20 -51 25 -51 11z"/>
  <path d="M225 303 c-58 -9 -53 -26 5 -19 30 3 63 6 73 6 9 0 17 5 17 10 0 10
-37 11 -95 3z"/>
  <path d="M250 230 c-8 -6 -34 -9 -57 -8 -23 1 -45 -1 -49 -5 -4 -4 -2 -7 4 -7
6 0 17 -19 23 -42 17 -60 26 -69 55 -57 14 5 43 9 64 9 33 0 37 3 33 19 -3 11
2 34 11 52 9 17 13 35 10 40 -7 12 -75 11 -94 -1z m31 -23 c-1 -4 -1 -20 -1
-36 0 -22 -5 -30 -24 -33 -33 -7 -45 2 -52 39 -6 30 -4 32 27 36 42 5 51 4 50
-6z"/>
</g>
<g id="part-1" class="char-part">
  <path d="M210 562 c0 -16 51 -82 64 -82 17 0 27 25 20 44 -11 29 -84 62 -84
38z"/>
  <path d="M195 454 c-124 -19 -124 -19 -91 -33 24 -10 52 -8 157 10 195 34 136
54 -66 23z"/>
</g>
<g id="part-2" class="char-part">
  <path d="M240 229 c-14 -6 -42 -9 -62 -7 -41 4 -47 -2 -23 -22 8 -7 17 -27 21
-46 8 -46 23 -56 65 -44 18 6 46 10 60 10 22 0 26 4 22 19 -3 10 3 33 12 51
14 27 15 34 3 41 -17 11 -67 10 -98 -2z m40 -49 c0 -22 -3 -40 -7 -40 -5 0
-17 -3 -29 -6 -15 -4 -23 1 -32 21 -19 41 -15 53 21 58 17 2 35 5 40 5 4 1 7
-16 7 -38z"/>
</g>
<g id="part-3" class="char-part">
  <path d="M437 486 c-10 -24 -27 -52 -38 -62 -26 -23 -24 -44 4 -44 23 0 62 20
40 20 -21 0 -15 20 18 61 17 22 28 46 25 54 -10 28 -31 15 -49 -29z"/>
</g>
<g id="part-4" class="char-part">
  <path d="M520 597 c0 -2 16 -72 35 -156 19 -84 33 -156 30 -161 -2 -4 -37 -11
-77 -14 -40 -4 -89 -11 -108 -15 -29 -7 -32 -10 -17 -16 11 -4 60 -1 111 9 51
9 95 16 98 16 6 0 68 -123 68 -134 0 -4 -28 -24 -62 -46 -76 -48 -68 -51 24
-8 61 28 70 30 81 15 40 -51 159 -93 143 -50 -4 9 -10 37 -13 62 l-6 46 -12
-35 c-6 -18 -16 -35 -23 -38 -6 -2 -27 12 -47 30 l-36 33 36 37 36 37 -26 17
c-30 19 -29 20 -41 -25 -5 -19 -14 -36 -20 -38 -6 -2 -23 19 -37 46 l-27 50
57 6 c77 9 82 11 52 23 -15 6 -43 7 -70 2 -24 -5 -45 -7 -47 -5 -12 12 -34
126 -39 203 -6 87 -8 94 -30 103 -26 10 -33 11 -33 6z"/>
  <path d="M770 312 c0 -14 35 -42 53 -42 24 0 21 16 -5 34 -24 17 -48 21 -48 8z"/>
</g>
<g id="part-5" class="char-part">
  <path d="M500 170 c0 -17 49 -62 61 -55 7 5 6 11 -2 21 -6 7 -16 11 -22 7 -6
-3 -7 -1 -3 5 3 6 -3 16 -14 22 -14 8 -20 8 -20 0z"/>
</g>
</g>
</svg>