<?xml version="1.0" standalone="no"?>
<!DOCTYPE svg PUBLIC "-//W3C//DTD SVG 20010904//EN"
 "http://www.w3.org/TR/2001/REC-SVG-20010904/DTD/svg10.dtd">
<svg version="1.0" xmlns="http://www.w3.org/2000/svg"
 width="96.000000pt" height="68.000000pt" viewBox="0 0 96.000000 68.000000"
 preserveAspectRatio="xMidYMid meet">
<metadata>
Created by potrace 1.16, written by Peter Selinger 2001-2019
Combined from part_0.svg through part_5.svg with named groups
</metadata>
<g transform="translate(0.000000,68.000000) scale(0.100000,-0.100000)" fill="#000000" stroke="none">
<g id="part-0" class="char-part">
  <path d="M324 533 c-33 -84 -52 -111 -133 -191 -45 -46 -80 -86 -77 -89 10
-10 66 21 116 62 35 29 45 34 50 21 6 -18 -4 -177 -15 -221 -5 -24 -2 -37 14
-55 20 -23 22 -24 34 -8 21 27 31 307 12 328 -12 13 -7 24 36 79 27 35 49 67
49 70 0 6 -17 17 -63 39 -4 2 -14 -14 -23 -35z"/>
  <path d="M700 481 c-14 -4 -77 -14 -140 -21 -152 -17 -175 -33 -50 -34 53 -1
55 -2 52 -26 -5 -46 -8 -55 -19 -74 -10 -18 -14 -18 -57 -6 -26 7 -49 11 -51
8 -3 -3 13 -18 35 -33 22 -15 40 -33 40 -40 0 -16 -54 -76 -104 -115 -21 -16
-32 -30 -24 -30 25 0 105 57 134 96 16 22 32 41 36 44 19 15 69 147 64 171 -5
26 -4 26 61 33 41 4 70 3 76 -3 15 -15 -6 -178 -33 -263 -19 -62 -23 -68 -48
-68 -16 0 -33 5 -40 12 -17 17 -26 2 -11 -17 32 -37 60 -65 68 -65 17 0 62 59
75 100 8 25 22 88 31 140 9 52 21 105 26 118 13 34 11 53 -8 68 -20 15 -73 17
-113 5z"/>
</g>
<g id="part-1" class="char-part">
  <path d="M321 521 c-17 -59 -85 -154 -153 -216 -34 -30 -57 -55 -51 -55 14 0
126 75 143 95 7 8 16 15 21 15 19 0 7 -193 -16 -251 -3 -9 3 -26 14 -40 33
-40 42 -14 50 142 5 114 4 149 -7 166 -12 20 -10 26 32 80 25 32 46 63 46 69
0 10 -41 34 -59 34 -4 0 -13 -18 -20 -39z"/>
</g>
<g id="part-2" class="char-part">
  <path d="M665 474 c-38 -7 -107 -16 -152 -20 -46 -4 -83 -11 -83 -15 0 -18 51
-20 127 -5 125 24 161 28 184 21 20 -7 21 -11 15 -84 -8 -84 -20 -145 -43
-209 -17 -45 -30 -50 -79 -32 -15 6 -28 9 -29 8 -2 -2 14 -22 36 -46 46 -52
63 -50 101 10 20 32 33 79 52 182 14 76 31 145 38 154 10 12 8 18 -11 33 -26
21 -55 22 -156 3z"/>
</g>
<g id="part-3" class="char-part">
  <path d="M564 431 c8 -13 -20 -113 -46 -162 -12 -24 -49 -70 -83 -102 -33 -31
-55 -57 -48 -57 24 0 109 68 145 115 49 65 103 196 86 207 -17 11 -61 10 -54
-1z"/>
</g>
<g id="part-4" class="char-part">
  <path d="M460 300 c37 -31 63 -35 68 -10 3 16 -47 40 -83 40 -15 0 -12 -6 15
-30z"/>
</g>
</g>
</svg>