<?xml version="1.0" standalone="no"?>
<!DOCTYPE svg PUBLIC "-//W3C//DTD SVG 20010904//EN"
 "http://www.w3.org/TR/2001/REC-SVG-20010904/DTD/svg10.dtd">
<svg version="1.0" xmlns="http://www.w3.org/2000/svg"
 width="96.000000pt" height="68.000000pt" viewBox="0 0 96.000000 68.000000"
 preserveAspectRatio="xMidYMid meet">
<metadata>
Created by potrace 1.16, written by Peter Selinger 2001-2019
Combined from part_0.svg through part_5.svg with named groups
</metadata>
<g transform="translate(0.000000,68.000000) scale(0.100000,-0.100000)" fill="#000000" stroke="none">
<g id="part-0" class="char-part">
  <path d="M736 573 c11 -61 8 -368 -4 -408 -9 -31 -21 -34 -72 -19 -20 6 -15
-2 24 -39 56 -53 68 -56 90 -25 13 18 16 54 17 178 0 148 9 260 24 307 7 23
-7 35 -59 47 l-28 7 8 -48z"/>
  <path d="M399 591 c-13 -10 -57 -35 -98 -55 -40 -21 -71 -40 -68 -43 3 -2 31
1 62 7 31 6 59 9 62 7 9 -10 13 -87 5 -87 -15 0 -176 -21 -200 -26 -13 -3 -20
-9 -16 -16 7 -11 131 -5 182 8 19 5 21 3 15 -12 -15 -40 -104 -132 -164 -170
-21 -13 -39 -26 -39 -29 0 -27 113 45 178 113 23 25 45 43 48 40 3 -3 1 -41
-5 -83 -19 -136 -12 -185 24 -155 11 10 15 37 15 116 0 56 4 105 9 108 4 3 16
-3 26 -14 20 -23 65 -27 65 -7 0 18 -29 43 -60 52 -31 9 -39 21 -33 46 5 16
15 19 64 19 59 0 86 13 49 25 -11 3 -40 3 -66 -1 l-45 -6 6 36 c5 23 3 41 -4
50 -14 16 -8 21 37 31 39 8 43 37 7 53 -32 15 -28 15 -56 -7z"/>
  <path d="M610 413 c0 -43 -3 -87 -6 -98 -3 -11 2 -29 10 -40 26 -35 36 -5 39
106 2 101 1 104 -20 107 -22 3 -23 1 -23 -75z"/>
</g>
<g id="part-1" class="char-part">
  <path d="M387 580 c-14 -11 -54 -33 -89 -50 -50 -24 -57 -30 -36 -30 15 0 62
11 104 25 42 14 82 25 90 25 22 0 28 22 9 37 -26 18 -48 16 -78 -7z"/>
</g>
<g id="part-2" class="char-part">
  <path d="M363 522 c-8 -5 -9 -13 -3 -22 12 -18 13 -80 2 -80 -17 0 -178 -21
-200 -25 -13 -3 -20 -10 -16 -17 7 -11 115 -6 178 8 27 7 28 6 15 -17 -20 -37
-118 -136 -167 -169 -31 -21 -39 -30 -26 -30 33 0 119 57 168 111 25 28 49 50
51 47 5 -5 -13 -177 -20 -189 -9 -13 14 -59 29 -59 22 0 26 23 26 136 0 57 3
104 6 104 3 0 19 -11 36 -25 35 -30 58 -32 58 -6 0 26 -23 48 -60 56 -23 5
-30 12 -30 30 0 26 22 35 88 35 31 0 42 4 39 13 -3 8 -24 11 -66 10 l-63 -3 7
39 c5 33 3 41 -14 50 -23 13 -23 13 -38 3z"/>
</g>
<g id="part-3" class="char-part">
  <path d="M606 387 c1 -107 5 -127 29 -127 16 0 28 96 23 175 -3 45 -6 50 -28
53 l-25 3 1 -104z"/>
</g>
<g id="part-4" class="char-part">
  <path d="M737 578 c9 -49 9 -385 -1 -424 -7 -27 -12 -28 -75 -8 -17 5 -11 -5
26 -40 28 -25 55 -46 61 -46 6 0 18 10 26 22 13 18 16 56 17 198 0 161 6 229
24 288 6 19 2 24 -29 37 -55 23 -59 21 -49 -27z"/>
</g>
</g>
</svg>