<?xml version="1.0" standalone="no"?>
<!DOCTYPE svg PUBLIC "-//W3C//DTD SVG 20010904//EN"
 "http://www.w3.org/TR/2001/REC-SVG-20010904/DTD/svg10.dtd">
<svg version="1.0" xmlns="http://www.w3.org/2000/svg"
 width="96.000000pt" height="68.000000pt" viewBox="0 0 96.000000 68.000000"
 preserveAspectRatio="xMidYMid meet">
<metadata>
Created by potrace 1.16, written by Peter Selinger 2001-2019
Combined from part_0.svg through part_5.svg with named groups
</metadata>
<g transform="translate(0.000000,68.000000) scale(0.100000,-0.100000)" fill="#000000" stroke="none">
<g id="part-0" class="char-part">
  <path d="M610 555 c0 -36 -3 -45 -17 -45 -10 0 -28 -3 -40 -6 -17 -5 -22 0
-28 25 -5 22 -12 31 -26 31 -15 0 -19 -7 -19 -35 0 -32 -2 -35 -31 -35 -19 0
-28 -4 -24 -11 4 -5 19 -9 33 -7 34 4 45 -30 13 -39 -27 -7 -27 -23 -1 -23 15
0 20 -7 20 -25 0 -24 -3 -25 -56 -25 -38 0 -53 -3 -48 -11 4 -7 34 -10 83 -8
75 4 76 4 76 -21 0 -23 -3 -25 -54 -26 l-55 -1 3 -61 2 -61 -38 -3 -38 -4 33
-13 c33 -13 33 -14 27 -61 -4 -29 -3 -50 4 -54 13 -9 31 26 31 61 0 49 12 56
107 63 99 7 123 0 123 -36 0 -47 -18 -66 -53 -59 l-32 7 37 -38 37 -38 26 24
c22 20 25 32 25 87 l0 63 52 -3 c31 -1 53 2 55 9 4 13 -28 24 -75 24 l-33 0 7
45 c9 66 -4 78 -78 70 -58 -7 -58 -7 -58 19 l0 26 100 0 c86 0 100 2 100 16 0
15 -10 16 -81 11 -79 -6 -80 -6 -77 16 2 17 11 23 38 25 43 4 65 21 30 23 -50
2 -55 4 -55 19 0 9 16 19 42 25 23 6 45 13 48 17 9 9 -36 21 -61 16 -16 -3
-19 2 -16 35 3 35 2 37 -27 37 -30 0 -31 -1 -31 -45z m0 -95 c0 -14 -7 -20
-22 -21 -13 0 -31 -2 -40 -4 -21 -4 -32 10 -24 30 3 10 20 15 46 15 33 0 40
-3 40 -20z m-2 -62 c-2 -19 -10 -24 -45 -26 -37 -3 -43 0 -43 17 0 20 16 28
63 30 24 1 28 -3 25 -21z m75 -123 c8 -18 0 -23 -51 -31 -37 -6 -42 -4 -42 13
0 28 8 33 51 33 23 0 39 -5 42 -15z m-133 -14 c0 -21 -57 -38 -73 -22 -19 19
1 41 38 41 28 0 35 -4 35 -19z m134 -39 c10 -17 -11 -30 -53 -33 -50 -4 -68
15 -29 30 29 12 75 14 82 3z m-134 -22 c0 -11 -4 -20 -9 -20 -5 0 -23 -3 -40
-6 -26 -6 -31 -4 -31 13 0 27 8 33 47 33 26 0 33 -4 33 -20z"/>
  <path d="M214 544 c9 -36 44 -74 68 -74 13 0 18 8 18 30 0 31 -21 51 -69 65
-22 7 -23 5 -17 -21z"/>
  <path d="M216 449 c-71 -11 -132 -21 -135 -24 -10 -11 18 -26 50 -28 43 -1
251 34 264 45 12 10 -12 28 -35 27 -8 -1 -73 -10 -144 -20z"/>
  <path d="M222 358 c-61 -13 -44 -26 25 -17 32 4 66 8 76 8 9 1 17 6 17 11 0
12 -60 11 -118 -2z"/>
  <path d="M225 285 l-50 -13 45 -1 c58 -1 120 9 120 20 0 12 -56 10 -115 -6z"/>
  <path d="M275 220 c-11 -5 -47 -9 -79 -9 -50 -1 -57 -3 -43 -13 9 -7 23 -33
30 -58 7 -25 17 -45 22 -44 6 0 38 4 71 8 52 7 61 11 57 26 -3 10 3 32 12 50
14 27 15 34 3 41 -16 11 -47 10 -73 -1z m25 -42 c0 -34 -12 -46 -47 -52 -28
-5 -32 -3 -42 26 -6 17 -11 32 -11 34 0 5 35 12 68 13 27 1 32 -3 32 -21z"/>
</g>
<g id="part-1" class="char-part">
  <path d="M232 519 c25 -45 43 -58 60 -41 27 27 -19 82 -68 82 -12 0 -11 -8 8
-41z"/>
  <path d="M193 441 c-56 -9 -105 -19 -108 -23 -16 -16 71 -19 147 -5 46 9 102
19 126 22 23 4 40 11 36 16 -7 13 -81 9 -201 -10z"/>
</g>
<g id="part-2" class="char-part">
  <path d="M275 220 c-11 -5 -47 -9 -79 -9 -56 -1 -58 -2 -43 -19 9 -10 23 -36
30 -58 8 -21 18 -39 23 -38 5 0 37 4 71 8 47 7 60 12 56 23 -3 8 3 30 13 49
17 30 17 36 4 44 -18 12 -48 12 -75 0z m25 -42 c0 -32 -11 -44 -43 -50 -25 -5
-31 -1 -42 26 -15 36 -6 44 53 45 27 1 32 -3 32 -21z"/>
</g>
<g id="part-3" class="char-part">
  <path d="M610 555 c0 -36 -3 -45 -17 -45 -10 0 -28 -3 -40 -6 -18 -5 -22 -1
-25 23 -2 20 -9 29 -25 31 -20 3 -23 -1 -23 -32 0 -34 -2 -36 -32 -36 -36 0
-28 -16 12 -22 31 -4 41 -38 11 -38 -12 0 -21 -4 -21 -10 0 -5 13 -10 30 -10
60 0 235 22 245 31 9 9 2 10 -50 13 -29 1 -33 36 -3 36 13 1 37 7 53 14 l30
13 -25 7 c-14 3 -34 5 -45 3 -17 -2 -19 3 -16 36 2 35 1 37 -28 37 -30 0 -31
-1 -31 -45z m-2 -92 c-4 -19 -75 -37 -84 -21 -14 22 7 38 46 38 34 0 41 -3 38
-17z"/>
</g>
<g id="part-4" class="char-part">
  <path d="M608 398 c-2 -19 -10 -24 -45 -26 -38 -3 -43 -1 -43 18 0 28 -24 21
-28 -8 -3 -19 -10 -22 -52 -22 -27 0 -52 -5 -56 -12 -5 -8 16 -9 82 -4 49 3
141 9 204 12 134 6 154 10 126 26 -11 6 -45 8 -87 4 -65 -7 -69 -6 -69 13 0
28 -28 27 -32 -1z"/>
</g>
<g id="part-5" class="char-part">
  <path d="M650 310 c-21 -7 -22 -8 -5 -9 44 -3 48 -14 47 -122 -1 -87 -4 -104
-21 -120 -14 -13 -21 -15 -24 -6 -3 7 -6 8 -6 1 -1 -6 8 -19 18 -28 16 -14 23
-15 41 -6 12 7 19 18 16 25 -3 8 -1 17 4 20 6 4 10 15 10 26 0 13 -4 18 -12
13 -7 -5 -8 -3 -2 7 5 8 9 43 10 79 1 36 3 70 4 75 6 25 -2 35 -27 35 -22 0
-25 2 -13 10 13 9 13 10 0 9 -8 -1 -26 -5 -40 -9z"/>
  <path d="M444 265 c3 -13 9 -31 13 -41 4 -11 3 -15 -4 -11 -8 5 -11 -6 -11
-30 1 -21 -2 -45 -5 -53 -12 -33 -18 -92 -8 -86 17 11 30 68 34 147 2 42 6 80
10 85 3 6 -3 11 -15 11 -16 2 -19 -2 -14 -22z"/>
</g>
</g>
</svg>