<?xml version="1.0" standalone="no"?>
<!DOCTYPE svg PUBLIC "-//W3C//DTD SVG 20010904//EN"
 "http://www.w3.org/TR/2001/REC-SVG-20010904/DTD/svg10.dtd">
<svg version="1.0" xmlns="http://www.w3.org/2000/svg"
 width="96.000000pt" height="68.000000pt" viewBox="0 0 96.000000 68.000000"
 preserveAspectRatio="xMidYMid meet">
<metadata>
Created by potrace 1.16, written by Peter Selinger 2001-2019
Combined from part_0.svg through part_5.svg with named groups
</metadata>
<g transform="translate(0.000000,68.000000) scale(0.100000,-0.100000)" fill="#000000" stroke="none">
<g id="part-0" class="char-part">
  <path d="M250 582 c0 -5 11 -31 25 -57 14 -26 24 -49 23 -50 -2 -1 -41 -7 -87
-13 -46 -7 -87 -14 -90 -18 -10 -10 24 -24 59 -24 44 1 249 36 258 45 13 12
-23 26 -59 22 -33 -4 -35 -3 -31 22 2 18 -4 33 -21 49 -25 23 -77 39 -77 24z"/>
  <path d="M630 570 c-30 -5 -80 -8 -111 -9 -31 -1 -58 -4 -62 -7 -3 -4 1 -20 9
-36 9 -17 13 -32 11 -34 -3 -3 1 -26 8 -52 9 -37 16 -47 31 -45 10 1 69 4 129
6 l110 5 32 78 c22 56 28 83 21 92 -11 13 -88 14 -178 2z m118 -37 c-3 -26 -7
-28 -55 -31 -50 -3 -53 -2 -53 22 0 29 10 34 68 35 42 1 43 0 40 -26z m-150
-14 c3 -24 -1 -27 -40 -32 -44 -6 -60 4 -55 33 2 14 46 29 77 26 8 0 16 -13
18 -27z m136 -61 c-8 -28 -2 -25 -51 -33 -41 -6 -43 -5 -43 17 0 34 7 38 57
38 41 0 44 -2 37 -22z m-134 -18 c0 -28 -2 -30 -39 -30 -40 0 -51 11 -43 43 3
12 15 17 43 17 37 0 39 -2 39 -30z"/>
  <path d="M260 375 l-45 -13 45 -1 c59 -1 120 9 120 20 0 13 -67 9 -120 -6z"/>
  <path d="M645 350 c-16 -4 -57 -8 -91 -9 l-61 -1 5 -52 c2 -29 -2 -80 -8 -113
-17 -80 -18 -127 -2 -132 15 -6 42 55 42 95 l0 30 83 7 c107 8 100 10 102 -27
3 -50 -10 -69 -39 -58 -37 14 -38 1 -1 -32 41 -35 71 -31 79 10 9 47 11 266 3
280 -9 13 -64 14 -112 2z m65 -46 c0 -18 -4 -24 -13 -21 -8 3 -44 -1 -81 -8
-57 -10 -69 -10 -73 1 -14 38 11 49 120 52 44 2 47 1 47 -24z m7 -66 c-3 -19
-14 -24 -73 -34 -106 -19 -112 -18 -106 11 2 14 5 25 6 26 0 0 28 3 61 5 33 3
62 7 64 10 2 2 15 4 28 4 18 0 22 -5 20 -22z"/>
  <path d="M275 313 c-39 -6 -57 -23 -25 -23 52 0 130 13 130 21 0 9 -49 10
-105 2z"/>
  <path d="M305 240 c-11 -5 -39 -9 -62 -9 -24 -1 -43 -3 -43 -5 0 -2 7 -17 15
-32 8 -16 15 -39 15 -51 0 -12 4 -24 8 -27 11 -6 155 18 147 25 -3 3 2 23 10
44 9 20 14 44 11 51 -6 16 -68 18 -101 4z m47 -45 c-4 -36 -26 -55 -63 -55
-23 0 -27 5 -31 35 -4 32 -1 36 21 41 15 3 31 7 36 9 27 9 40 -1 37 -30z"/>
</g>
<g id="part-1" class="char-part">
  <path d="M274 538 c30 -51 66 -64 66 -24 0 28 -42 66 -72 66 -18 0 -18 -3 6
-42z"/>
  <path d="M233 462 c-57 -8 -103 -19 -103 -23 0 -18 54 -20 132 -5 46 8 104 18
131 22 26 3 47 10 47 15 0 13 -88 9 -207 -9z"/>
</g>
<g id="part-2" class="char-part">
  <path d="M320 244 c-25 -7 -62 -14 -82 -14 -44 0 -43 1 -23 -36 8 -16 15 -38
15 -49 0 -32 16 -51 32 -38 7 6 39 14 70 18 36 5 55 11 52 19 -2 6 5 29 16 51
11 21 17 42 12 46 -16 15 -50 17 -92 3z m30 -49 c0 -29 -5 -37 -27 -46 -43
-16 -58 -8 -58 31 0 31 4 36 30 41 53 12 55 11 55 -26z"/>
</g>
<g id="part-3" class="char-part">
  <path d="M660 574 c-47 -7 -113 -13 -147 -13 -48 -1 -63 -4 -63 -15 0 -8 4
-17 9 -21 6 -3 13 -27 16 -53 9 -69 22 -94 44 -87 10 3 67 7 127 9 l109 5 33
78 33 78 -22 17 c-24 20 -22 20 -139 2z m85 -24 c3 -6 4 -18 0 -29 -4 -14 -17
-18 -55 -20 -47 -1 -50 0 -50 23 0 13 6 27 13 29 22 10 86 7 92 -3z m-151 -26
c8 -32 11 -30 -41 -38 -39 -6 -43 -4 -43 14 0 11 0 23 0 28 -1 4 14 10 32 13
18 4 36 7 39 8 4 0 10 -11 13 -25z m140 -66 c-8 -28 -2 -25 -51 -33 -41 -6
-43 -5 -43 17 0 34 7 38 57 38 41 0 44 -2 37 -22z m-134 -18 c0 -28 -2 -30
-40 -30 -38 0 -40 2 -40 30 0 28 2 30 40 30 38 0 40 -2 40 -30z"/>
</g>
<g id="part-4" class="char-part">
  <path d="M645 349 c-22 -4 -65 -8 -95 -8 l-56 -1 4 -63 c3 -39 -2 -88 -12
-126 -19 -74 -20 -97 -4 -107 17 -11 37 24 44 76 l6 47 62 6 c33 3 76 9 95 13
l34 7 -6 -53 c-4 -29 -9 -55 -11 -58 -3 -2 -20 1 -38 7 l-32 11 34 -35 c38
-40 50 -42 73 -17 12 13 16 48 19 155 4 168 1 171 -117 146z m65 -34 c0 -8 1
-18 3 -22 1 -5 -9 -9 -23 -10 -14 -1 -53 -5 -87 -9 -63 -7 -63 -7 -63 19 0 28
13 32 118 35 40 2 52 -1 52 -13z m10 -79 c0 -21 -6 -24 -52 -29 -29 -4 -70 -9
-91 -13 -38 -7 -39 -6 -35 21 3 26 6 28 58 32 30 2 56 6 59 8 2 3 17 5 33 5
23 0 28 -4 28 -24z"/>
</g>
</g>
</svg>