<?xml version="1.0" standalone="no"?>
<!DOCTYPE svg PUBLIC "-//W3C//DTD SVG 20010904//EN"
 "http://www.w3.org/TR/2001/REC-SVG-20010904/DTD/svg10.dtd">
<svg version="1.0" xmlns="http://www.w3.org/2000/svg"
 width="96.000000pt" height="68.000000pt" viewBox="0 0 96.000000 68.000000"
 preserveAspectRatio="xMidYMid meet">
<metadata>
Created by potrace 1.16, written by Peter Selinger 2001-2019
Combined from part_0.svg through part_5.svg with named groups
</metadata>
<g transform="translate(0.000000,68.000000) scale(0.100000,-0.100000)" fill="#000000" stroke="none">
<g id="part-0" class="char-part">
  <path d="M245 580 c-3 -5 -1 -27 4 -47 6 -21 11 -52 11 -70 0 -30 -2 -32 -47
-38 -80 -10 -103 -16 -103 -25 0 -15 38 -21 85 -14 25 3 45 4 45 1 0 -19 -54
-100 -99 -149 -29 -32 -51 -61 -48 -64 12 -12 48 9 101 61 l56 53 0 -42 c0
-24 -4 -66 -10 -95 -14 -75 13 -124 48 -89 8 8 12 52 12 130 0 65 4 118 9 118
5 0 14 -7 21 -15 15 -17 36 -20 45 -4 9 14 -22 47 -49 51 -15 2 -22 11 -24 30
-3 25 0 28 36 34 22 3 45 10 53 15 22 14 -9 30 -49 26 l-33 -3 3 60 c3 58 3
59 -29 72 -20 9 -34 10 -38 4z"/>
  <path d="M570 570 c-14 -4 -51 -8 -82 -9 -53 -1 -72 -11 -49 -25 5 -3 12 -23
16 -43 14 -80 27 -113 41 -102 7 6 46 11 88 12 l75 1 12 46 c7 25 18 58 26 73
13 26 13 30 -4 43 -20 15 -83 17 -123 4z m70 -39 c0 -27 -2 -28 -61 -35 -96
-10 -96 -9 -95 22 1 29 -8 26 139 40 12 2 17 -5 17 -27z m-10 -70 c0 -26 -4
-28 -72 -36 -57 -7 -58 -7 -58 18 0 22 5 26 33 30 81 10 97 8 97 -12z"/>
  <path d="M715 375 c-9 -3 -262 -33 -325 -38 -20 -1 -20 -2 -4 -14 11 -8 31
-10 56 -7 53 9 49 -7 -19 -72 -65 -61 -62 -68 8 -23 31 20 58 29 76 27 l28 -3
-30 -31 c-16 -17 -49 -43 -72 -58 -53 -33 -55 -41 -5 -21 66 28 157 100 146
116 -3 5 9 9 25 9 17 0 31 -5 31 -11 0 -20 -115 -125 -174 -159 -81 -46 -54
-51 31 -6 66 35 180 131 200 170 7 13 16 17 28 12 15 -5 17 -14 12 -51 -8 -52
-42 -124 -60 -126 -6 -1 -22 -1 -34 -1 -27 1 -28 -1 -7 -33 21 -33 58 -32 89
1 21 23 39 68 60 157 4 15 11 30 16 33 17 10 9 31 -16 42 -18 8 -46 9 -97 2
-40 -5 -94 -10 -121 -10 -46 0 -47 1 -35 23 7 12 14 23 15 25 1 2 67 7 148 12
137 7 166 12 153 26 -7 7 -110 15 -123 9z"/>
</g>
<g id="part-1" class="char-part">
  <path d="M251 551 c6 -16 9 -51 7 -77 l-3 -49 -72 -9 c-94 -11 -95 -29 -3 -24
39 2 70 1 70 -2 0 -13 -93 -147 -123 -178 -17 -17 -28 -32 -23 -32 21 0 69 35
111 82 l47 53 -5 -60 c-4 -33 -9 -85 -12 -115 -5 -40 -3 -60 7 -74 13 -17 15
-17 31 -1 14 14 17 38 17 143 l0 126 28 -27 c33 -32 42 -34 42 -8 0 13 -11 24
-35 33 -32 11 -36 16 -33 42 3 27 8 31 46 39 68 13 52 34 -21 28 -27 -2 -29
-1 -23 28 3 17 8 44 11 59 5 23 1 30 -20 40 -44 20 -55 16 -44 -17z"/>
</g>
<g id="part-2" class="char-part">
  <path d="M565 570 c-16 -4 -57 -8 -89 -9 -56 -1 -58 -2 -43 -18 8 -10 21 -45
27 -79 14 -72 26 -95 38 -76 6 8 35 13 84 14 l76 2 13 45 c7 25 19 59 27 75
13 27 13 31 -4 43 -19 14 -80 15 -129 3z m75 -39 c0 -28 -1 -29 -71 -35 -75
-8 -92 -1 -86 34 2 14 11 16 140 28 12 2 17 -5 17 -27z m-10 -70 c0 -25 -4
-27 -72 -35 -57 -7 -58 -7 -58 18 0 20 6 25 33 29 81 10 97 8 97 -12z"/>
</g>
<g id="part-3" class="char-part">
  <path d="M685 370 c-33 -4 -117 -13 -187 -21 -71 -7 -128 -16 -128 -20 0 -11
39 -18 76 -12 19 3 34 2 34 -3 -1 -12 -36 -51 -83 -91 -21 -18 -33 -33 -27
-33 27 0 91 44 134 91 l46 51 146 8 c80 5 148 11 151 14 9 8 -45 26 -75 25
-15 -1 -54 -5 -87 -9z"/>
</g>
<g id="part-4" class="char-part">
  <path d="M630 251 c0 -21 -90 -107 -159 -153 -76 -50 -66 -56 20 -12 56 28
150 104 179 144 l21 30 -30 0 c-17 0 -31 -4 -31 -9z"/>
</g>
</g>
</svg>