<?xml version="1.0" standalone="no"?>
<!DOCTYPE svg PUBLIC "-//W3C//DTD SVG 20010904//EN"
 "http://www.w3.org/TR/2001/REC-SVG-20010904/DTD/svg10.dtd">
<svg version="1.0" xmlns="http://www.w3.org/2000/svg"
 width="96.000000pt" height="68.000000pt" viewBox="0 0 96.000000 68.000000"
 preserveAspectRatio="xMidYMid meet">
<metadata>
Created by potrace 1.16, written by Peter Selinger 2001-2019
Combined from part_0.svg through part_5.svg with named groups
</metadata>
<g transform="translate(0.000000,68.000000) scale(0.100000,-0.100000)" fill="#000000" stroke="none">
<g id="part-0" class="char-part">
  <path d="M225 588 c16 -45 17 -262 2 -374 -16 -118 -14 -156 10 -175 11 -9 17
-9 26 0 13 13 24 145 26 298 l1 92 25 -24 c31 -32 55 -32 55 -2 0 19 -9 28
-40 40 -34 13 -40 19 -36 39 18 86 17 95 -8 112 -14 9 -35 16 -47 16 -18 0
-20 -4 -14 -22z"/>
  <path d="M556 565 c-57 -39 -133 -68 -141 -54 -16 25 -22 2 -20 -73 1 -46 -2
-96 -6 -113 -11 -36 -3 -65 17 -65 40 0 55 -57 35 -128 -14 -47 14 -105 34
-72 3 5 44 10 90 10 70 0 84 -3 90 -17 6 -16 8 -16 26 6 16 19 19 39 19 111
l0 88 -30 11 c-21 7 -47 7 -82 1 -57 -11 -158 -13 -158 -4 0 4 20 24 45 46 47
41 55 63 13 34 -30 -21 -62 -21 -54 0 3 9 6 26 6 38 0 13 6 23 13 23 6 0 35 3
63 6 50 7 51 7 90 -35 51 -55 87 -80 146 -103 56 -21 84 -15 68 14 -5 11 -10
31 -10 45 0 35 -15 40 -28 11 -7 -14 -19 -25 -28 -25 -36 0 -157 90 -142 106
4 3 25 8 47 11 22 3 46 12 53 21 11 13 7 14 -37 9 -28 -3 -59 -7 -69 -9 -14
-2 -21 4 -26 21 -3 13 -14 27 -25 31 -15 6 -6 11 43 26 65 19 73 28 45 50 -25
19 -32 17 -87 -21z m-19 -95 c12 -24 10 -25 -30 -37 -62 -19 -67 -17 -67 21 0
38 10 46 55 43 20 -1 33 -10 42 -27z m111 -257 c3 -29 0 -33 -21 -33 -13 0
-52 -3 -86 -6 -61 -7 -61 -7 -57 17 3 13 5 29 5 36 1 13 50 21 116 19 38 -1
40 -3 43 -33z m2 -83 l0 -40 -85 0 -85 0 0 28 c0 28 1 29 83 39 45 5 83 10 85
11 1 1 2 -16 2 -38z"/>
  <path d="M127 371 c-30 -63 -28 -91 7 -91 29 0 46 36 46 94 0 65 -21 64 -53
-3z"/>
</g>
<g id="part-1" class="char-part">
  <path d="M227 603 c-4 -3 -1 -15 6 -27 15 -26 13 -252 -3 -379 -13 -97 -7
-157 15 -157 26 0 30 24 35 202 3 97 8 180 13 184 4 4 14 -2 23 -14 17 -24 54
-30 54 -8 0 18 -19 33 -53 41 -28 7 -28 9 -25 73 3 65 3 65 -28 78 -18 7 -34
10 -37 7z"/>
  <path d="M131 371 c-25 -54 -25 -84 2 -89 24 -5 51 60 42 105 -3 18 -9 33 -13
33 -4 0 -18 -22 -31 -49z"/>
</g>
<g id="part-2" class="char-part">
  <path d="M570 574 c-19 -14 -56 -34 -82 -46 -27 -11 -48 -24 -48 -29 0 -14 33
-5 220 57 12 4 10 9 -9 25 -30 24 -38 24 -81 -7z"/>
</g>
<g id="part-3" class="char-part">
  <path d="M525 493 c19 -47 18 -49 -37 -66 l-53 -16 64 3 63 2 56 -53 c61 -58
119 -91 178 -100 33 -5 37 -4 30 12 -3 10 -12 38 -18 64 l-12 46 -13 -33 c-8
-20 -20 -32 -32 -32 -23 0 -109 58 -128 87 -14 21 -12 22 41 33 31 6 56 16 56
21 0 12 -56 12 -97 0 -29 -9 -32 -7 -42 20 -8 22 -16 29 -37 29 -21 0 -25 -3
-19 -17z"/>
</g>
<g id="part-4" class="char-part">
  <path d="M590 269 c-30 -5 -78 -9 -106 -10 l-52 0 11 -29 c8 -21 8 -44 0 -82
-13 -66 9 -126 32 -88 3 5 44 10 90 10 68 0 84 -3 89 -17 6 -15 8 -15 23 0 12
12 17 38 19 96 1 44 5 84 8 89 7 12 -12 28 -39 34 -11 3 -45 1 -75 -3z m58
-56 c3 -29 0 -33 -20 -32 -13 1 -51 -2 -85 -6 -62 -8 -63 -7 -63 16 0 48 21
58 110 56 54 -2 55 -2 58 -34z m2 -86 l0 -33 -85 -3 -85 -2 0 30 c0 28 2 30
48 34 126 10 122 11 122 -26z"/>
</g>
</g>
</svg>