<?xml version="1.0" standalone="no"?>
<!DOCTYPE svg PUBLIC "-//W3C//DTD SVG 20010904//EN"
 "http://www.w3.org/TR/2001/REC-SVG-20010904/DTD/svg10.dtd">
<svg version="1.0" xmlns="http://www.w3.org/2000/svg"
 width="96.000000pt" height="68.000000pt" viewBox="0 0 96.000000 68.000000"
 preserveAspectRatio="xMidYMid meet">
<metadata>
Created by potrace 1.16, written by Peter Selinger 2001-2019
Combined from part_0.svg through part_5.svg with named groups
</metadata>
<g transform="translate(0.000000,68.000000) scale(0.100000,-0.100000)" fill="#000000" stroke="none">
<g id="part-0" class="char-part">
  <path d="M318 614 c-3 -3 -2 -21 4 -41 11 -39 1 -53 -38 -53 -37 0 -84 -12
-84 -21 0 -5 29 -9 65 -9 57 0 65 -2 65 -19 0 -21 -62 -41 -129 -41 -42 0 -53
-14 -29 -38 17 -17 50 -15 101 7 46 20 57 19 57 -6 0 -8 -12 -13 -32 -13 l-32
0 34 -35 c19 -19 39 -35 46 -35 19 0 37 56 30 93 -6 32 -5 34 31 43 51 13 59
39 9 31 -49 -8 -49 18 0 30 47 11 48 27 2 31 -35 3 -38 6 -38 32 0 35 -42 64
-62 44z"/>
  <path d="M592 573 c-42 -28 -59 -34 -88 -30 -28 4 -33 2 -24 -8 13 -16 8 -85
-9 -129 -6 -16 -9 -31 -6 -34 9 -9 44 34 51 62 4 19 15 27 39 32 19 3 38 4 43
0 5 -3 10 -31 11 -62 2 -61 6 -74 22 -74 5 0 9 34 9 75 l0 75 54 0 c50 0 77
12 62 28 -7 6 -182 -13 -210 -24 -12 -4 -16 0 -16 15 0 23 51 51 118 66 36 7
41 20 14 34 -14 7 -30 1 -70 -26z"/>
  <path d="M427 340 c7 -26 29 -44 48 -36 19 7 19 21 -1 40 -23 23 -53 21 -47
-4z"/>
  <path d="M475 290 c-99 -10 -212 -19 -252 -19 -39 -1 -75 -5 -78 -11 -11 -18
46 -22 153 -11 59 7 196 15 305 18 109 3 200 10 203 15 9 14 -44 28 -99 27
-29 -1 -133 -10 -232 -19z"/>
  <path d="M418 231 c-92 -8 -97 -21 -7 -21 94 0 179 10 179 21 0 10 -64 9 -172
0z"/>
  <path d="M525 185 c-5 -2 -49 -7 -97 -10 -130 -10 -109 -26 25 -19 127 6 153
12 122 24 -22 9 -34 10 -50 5z"/>
  <path d="M500 120 c-36 -4 -93 -8 -126 -9 l-62 -1 19 -37 c10 -21 19 -44 19
-52 0 -11 12 -13 61 -7 34 3 91 6 125 6 47 0 64 4 64 13 0 8 9 22 20 32 25 22
25 34 3 51 -19 14 -25 15 -123 4z m65 -30 c3 -6 3 -19 0 -30 -6 -18 -15 -20
-101 -20 -52 0 -94 4 -94 9 0 5 -3 16 -6 25 -4 12 4 16 43 19 101 8 152 7 158
-3z"/>
</g>
<g id="part-1" class="char-part">
  <path d="M326 566 l6 -44 -66 -7 c-36 -4 -66 -11 -66 -16 0 -5 32 -9 70 -9 62
0 70 -2 70 -19 0 -15 -14 -22 -62 -35 -35 -9 -76 -17 -93 -18 l-30 -3 26 -18
c26 -17 28 -17 78 3 66 26 71 25 71 -5 0 -22 -3 -24 -32 -18 l-32 6 38 -39
c36 -37 38 -38 52 -20 8 11 14 41 14 68 0 47 1 47 40 59 22 7 37 16 32 21 -4
4 -22 4 -40 -1 -28 -8 -32 -7 -32 10 0 12 9 21 28 25 55 12 59 14 39 25 -9 6
-27 9 -40 7 -19 -3 -22 1 -19 24 2 18 -4 30 -17 37 -35 19 -41 13 -35 -33z"/>
</g>
<g id="part-2" class="char-part">
  <path d="M607 413 c6 -70 9 -83 23 -83 6 0 10 29 10 70 0 62 -2 70 -19 70 -18
0 -19 -6 -14 -57z"/>
</g>
<g id="part-3" class="char-part">
  <path d="M420 352 c0 -18 33 -52 51 -52 24 0 25 28 2 46 -20 15 -53 19 -53 6z"/>
  <path d="M475 289 c-99 -9 -212 -18 -252 -18 -39 -1 -75 -5 -78 -11 -11 -18
49 -23 158 -11 61 7 194 14 296 17 211 6 225 9 197 30 -25 18 -89 17 -321 -7z"/>
</g>
<g id="part-4" class="char-part">
  <path d="M422 230 c-108 -10 -116 -20 -16 -20 99 0 184 10 184 21 0 10 -45 10
-168 -1z"/>
</g>
<g id="part-5" class="char-part">
  <path d="M545 122 c-22 -2 -44 -8 -50 -13 -7 -7 -1 -8 17 -4 34 9 71 -3 65
-20 -3 -7 0 -18 6 -25 9 -10 9 -11 -2 -5 -10 6 -13 4 -9 -6 4 -11 -6 -14 -56
-12 -33 1 -77 -2 -96 -7 -25 -6 -7 -8 67 -7 l101 2 18 33 c9 17 21 32 26 32
13 0 -14 25 -32 31 -8 2 -33 3 -55 1z"/>
  <path d="M333 79 c6 -16 15 -29 20 -29 4 0 6 -4 3 -8 -2 -4 -1 -14 5 -22 7
-12 9 -11 8 5 0 11 -4 29 -8 40 -5 13 -3 24 7 31 12 9 9 11 -15 12 -30 1 -30
0 -20 -29z"/>
</g>
</g>
</svg>