<?xml version="1.0" standalone="no"?>
<!DOCTYPE svg PUBLIC "-//W3C//DTD SVG 20010904//EN"
 "http://www.w3.org/TR/2001/REC-SVG-20010904/DTD/svg10.dtd">
<svg version="1.0" xmlns="http://www.w3.org/2000/svg"
 width="96.000000pt" height="68.000000pt" viewBox="0 0 96.000000 68.000000"
 preserveAspectRatio="xMidYMid meet">
<metadata>
Created by potrace 1.16, written by Peter Selinger 2001-2019
Combined from part_0.svg through part_5.svg with named groups
</metadata>
<g transform="translate(0.000000,68.000000) scale(0.100000,-0.100000)" fill="#000000" stroke="none">
<g id="part-0" class="char-part">
  <path d="M326 553 c3 -32 7 -67 9 -79 4 -17 -3 -22 -52 -32 -31 -6 -58 -11
-59 -9 -2 1 1 20 6 42 10 44 -7 75 -41 75 -15 0 -18 -8 -17 -49 0 -27 -5 -58
-11 -70 -20 -37 16 -79 45 -52 12 12 114 42 123 36 4 -2 5 -23 2 -47 -7 -47
-3 -46 -143 -63 -54 -6 -82 -25 -38 -25 16 0 20 -7 20 -37 0 -39 -35 -123 -51
-123 -6 0 -7 -5 -3 -11 17 -29 124 129 111 165 -4 11 7 16 44 21 28 4 53 4 56
1 3 -3 1 -45 -5 -93 -13 -98 -8 -133 18 -133 21 0 29 71 31 265 0 72 4 156 8
188 6 52 5 60 -13 73 -39 27 -47 19 -40 -43z"/>
  <path d="M532 508 c-4 -135 -17 -157 -97 -158 -16 0 -37 -4 -45 -10 -22 -14
12 -24 61 -17 47 6 60 -10 35 -45 -24 -35 -20 -45 29 -64 25 -9 45 -23 45 -31
0 -8 -30 -28 -67 -46 -42 -19 -61 -33 -50 -35 24 -5 111 25 142 50 l26 20 66
-45 c68 -46 83 -50 83 -18 0 23 -35 54 -80 71 -19 7 -36 14 -37 15 -2 1 10 27
26 57 15 31 31 66 34 77 5 19 13 21 74 21 62 1 66 2 49 15 -11 8 -38 15 -59
15 -23 0 -45 6 -51 14 -6 8 -24 18 -39 22 -26 6 -28 5 -22 -19 6 -23 3 -25
-40 -31 -26 -4 -49 -5 -52 -2 -3 2 4 32 16 65 11 33 23 78 27 99 6 37 5 40
-26 51 -18 6 -36 11 -39 11 -4 0 -8 -37 -9 -82z m108 -219 c-7 -21 -23 -48
-35 -59 -20 -19 -24 -19 -58 -5 l-37 15 15 37 c9 20 20 42 26 49 12 15 92 23
98 10 2 -4 -2 -26 -9 -47z"/>
</g>
<g id="part-1" class="char-part">
  <path d="M178 515 c2 -14 -1 -46 -8 -71 -11 -40 -11 -47 3 -61 15 -15 18 -15
34 -1 10 9 39 22 66 28 70 18 72 34 3 26 l-57 -8 7 47 c7 49 -2 65 -37 65 -12
0 -15 -7 -11 -25z"/>
</g>
<g id="part-2" class="char-part">
  <path d="M305 325 c-5 -2 -49 -9 -97 -15 -49 -7 -85 -16 -82 -21 3 -5 14 -9
26 -9 19 0 20 -5 16 -48 -3 -30 -15 -63 -31 -87 -32 -47 -28 -54 12 -26 30 22
81 115 81 149 0 14 11 21 47 28 25 5 48 15 51 22 4 12 -3 14 -23 7z"/>
</g>
<g id="part-3" class="char-part">
  <path d="M530 513 c0 -43 -5 -95 -10 -115 -9 -32 -16 -38 -45 -43 -116 -18
-112 -16 -85 -27 14 -5 44 -8 68 -6 47 4 49 0 26 -43 -21 -41 -14 -53 35 -68
60 -18 52 -37 -31 -76 -71 -33 -72 -34 -36 -35 23 0 61 13 102 34 l65 34 62
-44 c63 -44 79 -47 79 -14 0 22 -35 52 -82 70 -18 8 -34 14 -36 15 -1 1 10 26
26 56 16 30 31 64 34 77 6 20 12 22 72 22 65 0 87 12 44 24 -13 3 -40 6 -60 6
-21 0 -38 4 -38 8 0 9 -44 32 -61 32 -5 0 -7 -11 -3 -24 5 -22 2 -25 -35 -31
-50 -8 -63 -1 -52 28 5 12 18 55 29 95 l21 72 -29 15 c-55 28 -60 23 -60 -62z
m120 -188 c0 -19 -39 -98 -52 -106 -15 -9 -78 12 -78 26 0 15 25 77 36 88 4 4
27 7 51 7 32 0 43 -4 43 -15z"/>
</g>
</g>
</svg>