<?xml version="1.0" standalone="no"?>
<!DOCTYPE svg PUBLIC "-//W3C//DTD SVG 20010904//EN"
 "http://www.w3.org/TR/2001/REC-SVG-20010904/DTD/svg10.dtd">
<svg version="1.0" xmlns="http://www.w3.org/2000/svg"
 width="96.000000pt" height="68.000000pt" viewBox="0 0 96.000000 68.000000"
 preserveAspectRatio="xMidYMid meet">
<metadata>
Created by potrace 1.16, written by Peter Selinger 2001-2019
Combined from part_0.svg through part_5.svg with named groups
</metadata>
<g transform="translate(0.000000,68.000000) scale(0.100000,-0.100000)" fill="#000000" stroke="none">
<g id="part-0" class="char-part">
  <path d="M513 543 l2 -78 -78 -10 c-94 -12 -91 -25 5 -25 l68 0 0 -44 c0 -42
-1 -44 -37 -50 -21 -3 -50 -6 -65 -6 -31 0 -38 -16 -10 -24 20 -7 132 -111
132 -124 0 -11 -59 -40 -140 -68 -36 -12 -56 -23 -45 -23 22 -1 118 28 178 53
l37 16 46 -42 47 -43 90 2 c119 2 130 16 30 38 -43 9 -82 21 -88 26 -5 5 -16
9 -25 9 -8 0 -27 8 -43 18 l-27 18 45 60 c25 32 52 68 60 79 22 28 19 33 -20
41 -34 6 -53 4 -102 -11 -20 -7 -22 -4 -18 35 2 23 6 44 8 47 3 2 38 11 79 20
40 8 77 19 82 23 18 17 -27 23 -84 12 -31 -7 -60 -12 -66 -12 -5 0 -7 26 -5
57 2 46 0 59 -15 70 -37 27 -43 17 -41 -64z m107 -224 c0 -24 -50 -109 -64
-109 -5 0 -29 17 -54 38 -25 20 -50 40 -56 44 -17 11 -2 18 70 32 98 20 104
19 104 -5z"/>
  <path d="M274 573 c-23 -77 -74 -153 -157 -236 -21 -21 -36 -41 -33 -44 7 -7
87 40 110 66 11 12 23 21 29 21 9 0 4 -155 -8 -245 -4 -27 -1 -46 10 -60 30
-38 42 -2 53 160 8 127 7 153 -6 167 -13 15 -11 22 19 60 19 24 39 49 46 56
19 20 16 39 -9 56 -29 21 -47 20 -54 -1z"/>
</g>
<g id="part-1" class="char-part">
  <path d="M256 515 c-19 -45 -51 -89 -98 -140 -78 -84 -72 -98 14 -30 53 41 57
43 63 24 8 -23 -3 -158 -16 -211 -10 -40 4 -88 27 -88 16 0 22 34 28 189 5
102 3 127 -9 141 -13 15 -10 23 37 84 50 65 52 69 33 82 -35 26 -49 17 -79
-51z"/>
</g>
<g id="part-2" class="char-part">
  <path d="M505 543 l0 -78 -72 -8 c-40 -5 -73 -13 -73 -18 0 -5 34 -9 75 -9
l75 0 0 -40 c0 -33 4 -40 19 -40 21 0 31 19 31 60 0 24 5 29 33 35 118 23 137
29 137 43 0 12 -10 14 -52 8 -29 -3 -65 -9 -80 -12 l-28 -6 0 65 c0 67 -6 77
-48 77 -14 0 -17 -12 -17 -77z"/>
</g>
<g id="part-3" class="char-part">
  <path d="M560 355 c-25 -7 -78 -16 -117 -20 -40 -4 -73 -10 -73 -14 0 -4 15
-15 34 -25 18 -10 55 -39 81 -66 l47 -47 -36 -23 c-20 -12 -69 -32 -109 -45
-43 -14 -62 -23 -47 -24 30 -1 146 31 185 52 28 14 30 14 78 -27 l49 -41 90 1
c121 1 130 15 26 43 -90 24 -168 55 -168 68 0 4 25 41 55 81 30 40 55 77 55
81 0 24 -77 26 -150 6z m56 -45 c-6 -30 -52 -100 -65 -100 -4 0 -31 22 -61 48
l-54 49 74 15 c112 24 114 23 106 -12z"/>
</g>
</g>
</svg>