<?xml version="1.0" standalone="no"?>
<!DOCTYPE svg PUBLIC "-//W3C//DTD SVG 20010904//EN"
 "http://www.w3.org/TR/2001/REC-SVG-20010904/DTD/svg10.dtd">
<svg version="1.0" xmlns="http://www.w3.org/2000/svg"
 width="96.000000pt" height="68.000000pt" viewBox="0 0 96.000000 68.000000"
 preserveAspectRatio="xMidYMid meet">
<metadata>
Created by potrace 1.16, written by Peter Selinger 2001-2019
Combined from part_0.svg through part_5.svg with named groups
</metadata>
<g transform="translate(0.000000,68.000000) scale(0.100000,-0.100000)" fill="#000000" stroke="none">
<g id="part-0" class="char-part">
  <path d="M230 569 c0 -24 52 -89 70 -89 53 0 19 79 -38 91 -18 4 -32 2 -32 -2z"/>
  <path d="M635 533 c-49 -8 -113 -12 -141 -9 l-51 4 5 -126 c5 -146 -11 -233
-54 -290 -33 -42 -23 -54 14 -18 40 37 69 101 77 167 l7 56 86 7 c48 4 111 10
140 13 l54 6 -4 -121 c-1 -66 -6 -124 -10 -128 -5 -4 -19 -2 -33 4 -34 16 -31
2 8 -36 39 -38 59 -35 78 9 9 23 10 72 5 188 -4 104 -3 176 5 210 10 47 9 54
-8 66 -22 18 -62 17 -178 -2z m133 -53 l3 -35 -62 -2 c-59 -1 -61 -1 -56 23 2
14 0 27 -5 30 -22 14 9 25 60 22 l57 -3 3 -35z m-174 18 c20 -63 19 -66 -34
-73 -27 -4 -53 -4 -58 -1 -4 2 -6 21 -4 40 3 29 9 36 31 39 51 8 62 7 65 -5z
m174 -104 l-3 -36 -53 -2 c-58 -2 -73 8 -62 39 7 19 40 30 98 34 21 1 23 -3
20 -35z m-160 -16 c3 -25 0 -27 -42 -33 -60 -9 -75 -3 -69 29 4 20 12 26 42
29 58 6 66 3 69 -25z"/>
  <path d="M233 458 c-68 -11 -123 -24 -123 -29 0 -5 12 -14 27 -20 21 -8 56 -5
148 12 149 27 151 27 139 39 -19 19 -70 18 -191 -2z"/>
  <path d="M255 366 c-38 -9 -45 -13 -29 -18 27 -7 134 11 134 23 0 12 -43 10
-105 -5z"/>
  <path d="M261 299 c-59 -11 -63 -19 -10 -19 60 0 119 11 119 21 0 11 -49 10
-109 -2z"/>
  <path d="M645 280 c-16 -4 -53 -8 -81 -9 l-51 -1 24 -50 24 -51 62 7 c67 7 80
11 72 23 -2 5 2 17 10 27 16 21 20 54 6 54 -5 0 -15 2 -23 4 -7 2 -26 0 -43
-4z m27 -45 c-2 -11 -9 -23 -15 -27 -17 -11 -87 -10 -87 1 0 5 -3 16 -6 24 -6
17 25 25 81 23 24 -1 29 -5 27 -21z"/>
  <path d="M285 225 c-22 -7 -58 -11 -80 -9 -34 4 -37 2 -24 -8 9 -7 22 -33 30
-58 9 -26 20 -44 28 -42 7 1 38 5 70 8 55 6 57 7 53 34 -2 16 3 33 13 44 14
13 15 19 5 31 -15 18 -40 18 -95 0z m41 -47 c-7 -35 -20 -48 -53 -48 -15 0
-24 9 -32 31 -6 18 -11 33 -11 35 0 4 41 11 74 13 27 1 28 -1 22 -31z"/>
</g>
<g id="part-1" class="char-part">
  <path d="M240 559 c0 -19 49 -79 66 -79 20 0 18 44 -3 62 -25 22 -63 32 -63
17z"/>
  <path d="M230 453 c-118 -17 -130 -21 -110 -33 21 -14 67 -12 151 4 41 8 91
17 112 21 20 3 37 10 37 15 0 13 -75 11 -190 -7z"/>
</g>
<g id="part-2" class="char-part">
  <path d="M270 225 c-25 -7 -58 -10 -75 -7 -28 5 -29 4 -15 -13 8 -10 22 -36
30 -59 9 -23 20 -41 25 -40 6 0 38 4 71 8 53 7 61 11 57 26 -3 10 3 33 13 50
16 27 17 32 4 40 -19 12 -53 11 -110 -5z m60 -33 c0 -26 -21 -50 -51 -57 -23
-6 -28 -2 -38 26 -14 40 -15 37 12 42 54 10 77 7 77 -11z"/>
</g>
<g id="part-3" class="char-part">
  <path d="M665 538 c-57 -10 -126 -17 -161 -14 l-61 3 5 -127 c4 -110 2 -138
-16 -196 -12 -38 -33 -84 -47 -103 -30 -41 -31 -45 -7 -32 22 12 67 60 81 88
18 35 32 119 39 233 l7 104 39 8 c22 5 81 9 130 11 l91 2 3 -170 c2 -93 0
-190 -3 -213 -7 -46 -8 -46 -60 -27 -13 5 -6 -7 21 -34 27 -28 46 -40 56 -36
33 13 40 59 37 227 -2 90 0 186 4 215 9 51 8 52 -22 67 -16 9 -31 15 -33 15
-2 -1 -48 -10 -103 -21z"/>
</g>
<g id="part-4" class="char-part">
  <path d="M594 502 c3 -5 8 -22 10 -39 5 -28 3 -31 -25 -37 -17 -3 -42 -6 -55
-6 -13 0 -24 -5 -24 -11 0 -6 20 -9 53 -7 50 3 52 2 55 -23 3 -22 -2 -27 -29
-33 -17 -3 -42 -6 -55 -6 -13 0 -24 -5 -24 -11 0 -10 39 -8 199 7 42 4 59 10
50 15 -8 5 -35 7 -61 3 -41 -5 -48 -3 -48 11 0 34 20 55 53 55 18 0 43 3 56 7
23 6 23 7 5 14 -10 4 -39 5 -63 1 -44 -5 -44 -5 -37 22 5 22 2 28 -19 36 -32
12 -48 13 -41 2z"/>
</g>
<g id="part-5" class="char-part">
  <path d="M630 270 c-9 -6 -10 -10 -3 -10 6 0 15 5 18 10 8 12 4 12 -15 0z"/>
  <path d="M675 264 c11 -8 12 -14 5 -19 -5 -3 -8 -10 -6 -14 9 -15 -12 -32 -44
-36 -18 -3 -35 -7 -39 -10 -3 -4 14 -4 39 -1 25 2 49 5 53 5 5 1 6 5 3 9 -3 5
4 21 15 38 25 38 24 39 -12 39 -26 1 -28 -1 -14 -11z"/>
  <path d="M528 253 c17 -32 32 -37 32 -12 0 12 -3 19 -7 16 -3 -4 -13 -1 -21 6
-13 10 -14 9 -4 -10z"/>
  <path d="M550 203 c0 -5 5 -15 10 -23 8 -12 10 -11 10 8 0 12 -4 22 -10 22 -5
0 -10 -3 -10 -7z"/>
</g>
</g>
</svg>