<?xml version="1.0" standalone="no"?>
<!DOCTYPE svg PUBLIC "-//W3C//DTD SVG 20010904//EN"
 "http://www.w3.org/TR/2001/REC-SVG-20010904/DTD/svg10.dtd">
<svg version="1.0" xmlns="http://www.w3.org/2000/svg"
 width="96.000000pt" height="68.000000pt" viewBox="0 0 96.000000 68.000000"
 preserveAspectRatio="xMidYMid meet">
<metadata>
Created by potrace 1.16, written by Peter Selinger 2001-2019
Combined from part_0.svg through part_5.svg with named groups
</metadata>
<g transform="translate(0.000000,68.000000) scale(0.100000,-0.100000)" fill="#000000" stroke="none">
<g id="part-0" class="char-part">
  <path d="M270 553 c0 -16 -9 -44 -19 -63 -11 -19 -24 -44 -29 -55 -6 -11 -37
-53 -71 -92 -70 -83 -60 -96 23 -28 67 54 96 59 96 15 0 -24 -4 -30 -22 -30
-33 0 -68 -11 -68 -21 0 -4 21 -9 48 -11 l47 -3 3 -57 c2 -48 0 -58 -13 -58
-9 0 -13 5 -10 10 12 20 -6 48 -37 59 -17 6 -33 9 -36 6 -2 -2 5 -20 17 -40
11 -20 21 -38 21 -41 0 -2 -18 -3 -40 -1 -22 2 -45 0 -51 -3 -13 -9 36 -50 60
-50 31 0 241 75 238 85 -1 6 -4 9 -7 9 -3 -1 -24 -5 -47 -9 l-43 -7 0 56 c0
53 2 56 28 62 61 13 65 16 51 25 -8 5 -29 9 -46 9 -28 0 -33 4 -33 24 0 19 7
26 31 31 16 4 28 12 26 18 -4 14 -70 16 -104 4 -19 -7 -22 -6 -16 10 4 10 19
37 33 59 l26 42 33 -30 c36 -33 54 -32 59 1 3 17 -5 25 -37 39 -23 9 -41 22
-41 29 0 14 -31 33 -54 33 -11 0 -16 -9 -16 -27z"/>
  <path d="M595 547 c-71 -5 -131 -11 -133 -12 -2 -2 1 -11 7 -22 16 -28 41 -94
41 -108 0 -7 -18 -30 -40 -51 -21 -21 -37 -40 -35 -42 2 -2 21 8 42 22 36 25
44 26 172 26 l134 0 -7 -112 c-3 -62 -9 -126 -13 -141 -5 -27 -8 -29 -49 -25
-24 2 -44 1 -44 -2 0 -3 16 -20 35 -38 30 -26 39 -30 55 -22 34 18 51 69 65
194 7 67 14 126 15 131 10 47 -25 56 -171 40 -68 -7 -126 -11 -128 -9 -2 2 1
4 7 4 18 0 14 28 -5 38 -20 12 162 28 195 18 16 -5 27 4 56 44 42 59 43 66 14
74 -26 7 -35 6 -213 -7z m165 -21 c0 -37 -19 -63 -44 -63 -35 0 -40 11 -24 47
10 23 19 30 40 30 18 0 28 -5 28 -14z m-102 -28 c-4 -42 -42 -53 -52 -16 -11
41 -7 48 25 48 28 0 30 -2 27 -32z m-84 6 c14 -37 7 -54 -24 -54 -17 0 -30 5
-30 13 0 6 -3 22 -6 35 -6 19 -3 22 24 22 18 0 32 -6 36 -16z"/>
  <path d="M526 311 c6 -26 3 -31 -20 -37 -15 -3 -37 -4 -51 -2 -23 5 -24 4 -9
-23 7 -15 14 -37 14 -48 0 -17 5 -19 35 -14 34 5 35 5 35 -26 0 -31 0 -31 -55
-31 -58 0 -71 -13 -32 -31 18 -8 43 -5 112 15 79 23 90 24 105 11 31 -28 48
-12 26 23 -13 21 -49 31 -61 17 -5 -7 -20 -16 -32 -20 -20 -6 -23 -3 -23 24 0
30 1 31 45 31 34 0 45 4 45 15 0 9 7 27 16 40 16 24 15 25 -11 35 -15 6 -42 8
-60 4 -30 -5 -34 -3 -37 18 -2 15 -11 24 -25 26 -20 3 -22 0 -17 -27z m92 -63
c-2 -15 -11 -24 -25 -26 -19 -3 -23 1 -23 22 0 21 5 26 26 26 21 0 25 -4 22
-22z m-88 -13 c0 -20 -5 -25 -25 -25 -20 0 -25 5 -25 25 0 20 5 25 25 25 20 0
25 -5 25 -25z"/>
  <path d="M357 220 c-18 -47 -6 -52 36 -14 24 20 27 27 17 39 -20 25 -36 17
-53 -25z"/>
</g>
<g id="part-1" class="char-part">
  <path d="M270 530 c-12 -52 -84 -163 -139 -214 -17 -17 -31 -34 -31 -38 0 -13
51 17 88 51 49 45 92 39 92 -14 0 -7 -18 -15 -45 -19 -58 -9 -58 -26 -1 -26
l43 0 6 -52 c4 -30 2 -57 -3 -62 -6 -6 -42 -12 -80 -14 -61 -4 -69 -6 -58 -19
27 -33 53 -32 166 6 116 38 155 59 87 46 -72 -14 -70 -15 -73 48 -3 60 -4 59
51 71 36 8 24 29 -13 24 -25 -4 -29 -1 -32 24 -5 33 -2 38 28 38 13 0 26 4 29
10 10 15 -42 23 -76 11 -56 -20 -63 -15 -39 27 11 20 29 48 40 62 l19 25 30
-29 c19 -18 36 -26 46 -22 26 10 13 29 -33 51 -23 11 -42 25 -42 32 0 11 -29
33 -43 33 -3 0 -10 -22 -17 -50z"/>
  <path d="M361 224 c-6 -15 -10 -29 -7 -31 8 -8 57 29 53 41 -7 22 -34 16 -46
-10z"/>
  <path d="M198 198 c26 -40 55 -51 50 -17 -2 15 -15 27 -37 36 l-34 14 21 -33z"/>
</g>
<g id="part-2" class="char-part">
  <path d="M640 550 c-30 -5 -86 -8 -123 -9 l-68 -1 19 -25 c11 -14 23 -41 26
-61 7 -33 9 -35 34 -29 15 4 74 8 131 10 l105 4 38 50 c36 48 37 51 19 61 -22
11 -97 11 -181 0z m119 -27 c-1 -44 -14 -55 -64 -57 -28 -2 -77 -6 -111 -11
l-61 -7 -7 32 c-3 18 -5 34 -4 36 3 2 175 20 221 23 20 1 27 -4 26 -16z"/>
</g>
<g id="part-3" class="char-part">
  <path d="M660 500 c0 -37 13 -39 28 -5 16 34 15 35 -8 35 -16 0 -20 -7 -20
-30z"/>
</g>
<g id="part-4" class="char-part">
  <path d="M630 170 c0 -5 11 -22 24 -37 20 -22 27 -25 37 -16 10 10 9 16 -5 32
-19 21 -56 34 -56 21z"/>
</g>
</g>
</svg>