<?xml version="1.0" standalone="no"?>
<!DOCTYPE svg PUBLIC "-//W3C//DTD SVG 20010904//EN"
 "http://www.w3.org/TR/2001/REC-SVG-20010904/DTD/svg10.dtd">
<svg version="1.0" xmlns="http://www.w3.org/2000/svg"
 width="96.000000pt" height="68.000000pt" viewBox="0 0 96.000000 68.000000"
 preserveAspectRatio="xMidYMid meet">
<metadata>
Created by potrace 1.16, written by Peter Selinger 2001-2019
Combined from part_0.svg through part_5.svg with named groups
</metadata>
<g transform="translate(0.000000,68.000000) scale(0.100000,-0.100000)" fill="#000000" stroke="none">
<g id="part-0" class="char-part">
  <path d="M490 595 c0 -9 13 -29 28 -44 l28 -28 -116 -12 c-140 -15 -151 -18
-129 -34 24 -18 30 -61 19 -135 -13 -82 -52 -167 -114 -248 -25 -34 -46 -65
-46 -68 0 -16 62 28 103 74 60 67 95 160 122 331 5 33 9 37 43 43 90 15 102 7
102 -64 l0 -38 -67 -7 -68 -7 0 -76 c0 -42 -6 -97 -14 -122 -14 -43 -56 -111
-73 -118 -5 -2 -5 -8 -2 -14 3 -5 24 9 45 32 39 42 69 117 84 210 11 77 13 80
51 80 29 0 34 -3 34 -24 0 -18 -7 -25 -32 -32 l-33 -8 38 -3 c28 -3 37 -9 37
-23 0 -11 11 -22 30 -28 32 -12 140 -4 140 9 0 11 -9 12 -83 9 -52 -2 -58 0
-55 16 2 14 18 22 58 30 41 8 50 13 37 19 -10 4 -36 5 -57 1 -38 -6 -40 -5
-40 19 0 23 4 25 43 25 23 0 60 3 81 7 37 6 39 5 33 -16 -5 -20 -3 -22 16 -16
12 4 32 9 45 12 67 16 -20 54 -98 43 -97 -15 -120 -13 -120 10 0 15 7 20 28
20 49 0 102 12 96 22 -4 6 -28 7 -60 3 -50 -6 -54 -5 -54 14 0 11 -8 21 -17
23 -10 2 33 8 95 12 61 4 112 11 112 16 0 25 -33 33 -110 26 -64 -5 -79 -4
-74 7 7 18 -27 54 -59 62 -21 6 -27 4 -27 -10z"/>
  <path d="M177 379 c38 -64 83 -77 83 -25 0 30 -34 56 -73 56 l-28 0 18 -31z"/>
  <path d="M221 274 c-13 -9 -44 -25 -70 -34 -52 -20 -59 -40 -19 -54 23 -8 32
-4 75 33 26 24 52 49 56 57 11 19 -13 18 -42 -2z"/>
  <path d="M630 199 c-30 -4 -80 -10 -110 -13 -53 -4 -55 -5 -52 -31 4 -31 -11
-45 -48 -45 -20 0 -22 -2 -10 -10 8 -5 25 -10 38 -10 18 0 23 -5 22 -22 -4
-49 -3 -50 53 -43 28 4 97 11 152 14 86 5 97 8 79 18 -17 10 -48 10 -134 2
-88 -8 -115 -8 -121 2 -19 31 2 37 152 44 123 6 149 10 149 23 0 13 -15 14
-107 8 -58 -4 -126 -10 -150 -13 -39 -5 -43 -4 -43 15 0 25 12 29 129 36 46 3
87 8 90 11 5 6 -19 26 -29 24 -3 -1 -30 -5 -60 -10z"/>
</g>
<g id="part-1" class="char-part">
  <path d="M509 568 c23 -38 48 -47 58 -22 8 20 -29 54 -59 54 -20 0 -20 0 1
-32z"/>
  <path d="M495 514 c-99 -12 -187 -23 -195 -23 -10 -1 -7 -6 8 -17 18 -12 22
-25 22 -67 0 -108 -45 -223 -125 -322 -25 -30 -41 -55 -37 -55 23 0 104 75
130 122 35 60 68 171 78 259 6 56 8 59 38 64 117 18 184 25 248 25 85 0 112
11 73 28 -31 14 -18 15 -240 -14z"/>
  <path d="M170 404 c0 -19 47 -74 63 -74 20 0 24 42 4 58 -16 14 -67 26 -67 16z"/>
  <path d="M205 259 c-27 -16 -58 -29 -67 -29 -23 0 -32 -18 -18 -35 20 -24 33
-18 96 40 66 60 63 67 -11 24z"/>
</g>
<g id="part-2" class="char-part">
  <path d="M524 464 c3 -9 6 -33 6 -55 0 -43 26 -57 32 -17 2 13 10 24 18 25 8
1 36 5 63 8 72 9 60 29 -13 22 -55 -6 -60 -5 -60 13 0 15 -7 20 -26 20 -20 0
-25 -4 -20 -16z"/>
</g>
<g id="part-3" class="char-part">
  <path d="M520 326 c0 -18 -7 -25 -32 -32 l-33 -8 36 -3 c26 -3 38 -10 42 -23
7 -28 50 -41 113 -34 79 10 65 30 -18 26 -44 -3 -68 0 -73 8 -10 17 10 27 67
35 68 10 62 29 -7 22 -50 -5 -55 -4 -55 14 0 12 -7 19 -20 19 -14 0 -20 -7
-20 -24z"/>
</g>
<g id="part-4" class="char-part">
  <path d="M560 124 c-69 -7 -136 -13 -150 -14 l-25 -1 25 -10 c17 -7 63 -7 142
0 64 6 146 11 182 11 63 0 92 12 60 24 -22 8 -87 6 -234 -10z"/>
</g>
</g>
</svg>