<?xml version="1.0" standalone="no"?>
<!DOCTYPE svg PUBLIC "-//W3C//DTD SVG 20010904//EN"
 "http://www.w3.org/TR/2001/REC-SVG-20010904/DTD/svg10.dtd">
<svg version="1.0" xmlns="http://www.w3.org/2000/svg"
 width="96.000000pt" height="68.000000pt" viewBox="0 0 96.000000 68.000000"
 preserveAspectRatio="xMidYMid meet">
<metadata>
Created by potrace 1.16, written by Peter Selinger 2001-2019
Combined from part_0.svg through part_5.svg with named groups
</metadata>
<g transform="translate(0.000000,68.000000) scale(0.100000,-0.100000)" fill="#000000" stroke="none">
<g id="part-0" class="char-part">
  <path d="M570 605 c0 -45 0 -45 -40 -51 -45 -7 -49 -27 -7 -32 23 -3 26 -7 21
-28 -9 -34 10 -30 39 7 22 29 31 32 96 37 39 2 74 9 77 13 9 15 -49 31 -88 25
-37 -6 -37 -6 -32 23 5 23 2 32 -14 40 -41 22 -52 14 -52 -34z"/>
  <path d="M310 608 c0 -7 7 -22 15 -32 8 -11 15 -23 15 -28 0 -4 -31 -8 -69 -8
-78 0 -94 -11 -55 -36 23 -16 33 -16 83 -6 31 7 57 8 59 3 15 -45 59 -51 48
-6 -5 20 -1 24 24 30 40 9 38 25 -3 25 -28 0 -34 4 -42 33 -8 26 -16 33 -42
35 -22 2 -33 -1 -33 -10z"/>
  <path d="M565 469 c-19 -30 -206 -84 -236 -68 -10 5 -27 9 -39 9 -17 0 -20 -4
-14 -17 33 -78 0 -222 -69 -300 -30 -33 -8 -28 36 8 42 35 65 73 82 139 l11
45 80 7 c55 4 81 3 86 -5 4 -7 8 -69 8 -139 0 -81 4 -128 10 -128 17 0 27 40
34 145 10 154 3 145 107 145 92 0 120 12 72 31 -22 9 -68 6 -203 -10 -96 -12
-179 -21 -183 -21 -5 0 -7 14 -5 32 l3 32 115 22 c144 28 176 39 161 58 -15
17 -49 27 -56 15z"/>
</g>
<g id="part-1" class="char-part">
  <path d="M580 619 c0 -46 -16 -69 -50 -69 -41 0 -47 -18 -8 -22 33 -3 35 -6
23 -43 -4 -13 5 -7 28 18 29 31 41 37 78 38 65 2 107 13 90 23 -16 10 -97 10
-113 0 -8 -5 -9 -1 -4 12 19 46 18 54 -9 64 -36 14 -35 14 -35 -21z"/>
  <path d="M320 598 c0 -7 7 -22 16 -33 13 -18 13 -20 -3 -27 -10 -3 -44 -7 -75
-7 -62 -1 -72 -10 -35 -30 19 -10 34 -10 81 2 l58 16 10 -30 c14 -40 28 -37
28 6 0 31 3 35 25 35 14 0 25 5 25 11 0 7 -11 8 -30 4 -27 -6 -30 -4 -38 27
-6 26 -14 34 -35 36 -17 2 -27 -1 -27 -10z"/>
</g>
<g id="part-2" class="char-part">
  <path d="M530 451 c-65 -35 -176 -64 -199 -52 -11 6 -29 11 -41 11 -17 0 -20
-4 -14 -17 31 -70 4 -201 -57 -281 -37 -50 -38 -52 -12 -38 70 36 111 108 128
221 l11 80 47 7 c78 11 237 49 237 57 0 14 -24 31 -44 31 -12 -1 -37 -9 -56
-19z"/>
</g>
<g id="part-3" class="char-part">
  <path d="M501 329 c-84 -10 -156 -21 -159 -24 -16 -16 22 -17 151 -7 78 7 168
12 199 12 63 0 84 15 43 30 -33 12 -44 12 -234 -11z"/>
</g>
<g id="part-4" class="char-part">
  <path d="M508 173 c3 -141 7 -162 24 -145 6 6 14 61 18 124 5 62 10 120 12
128 2 10 -6 16 -27 18 l-30 3 3 -128z"/>
</g>
</g>
</svg>