<?xml version="1.0" standalone="no"?>
<!DOCTYPE svg PUBLIC "-//W3C//DTD SVG 20010904//EN"
 "http://www.w3.org/TR/2001/REC-SVG-20010904/DTD/svg10.dtd">
<svg version="1.0" xmlns="http://www.w3.org/2000/svg"
 width="96.000000pt" height="68.000000pt" viewBox="0 0 96.000000 68.000000"
 preserveAspectRatio="xMidYMid meet">
<metadata>
Created by potrace 1.16, written by Peter Selinger 2001-2019
Combined from part_0.svg through part_5.svg with named groups
</metadata>
<g transform="translate(0.000000,68.000000) scale(0.100000,-0.100000)" fill="#000000" stroke="none">
<g id="part-0" class="char-part">
  <path d="M260 590 c0 -39 -48 -127 -113 -208 -42 -51 -61 -82 -51 -82 36 0
126 84 173 163 12 20 25 37 27 37 2 0 29 -20 60 -45 60 -49 79 -53 79 -15 0
27 -52 68 -97 77 -32 6 -31 4 -16 38 10 22 9 27 -8 40 -28 21 -54 19 -54 -5z"/>
  <path d="M555 547 c-70 -13 -118 -26 -115 -32 3 -5 17 -9 33 -9 24 2 27 -1 27
-31 0 -18 -9 -93 -20 -167 -11 -73 -20 -137 -20 -141 0 -4 -17 -15 -37 -24
-35 -14 -36 -16 -18 -29 29 -21 41 -18 121 32 91 57 101 71 33 45 -29 -11 -55
-18 -60 -16 -4 3 0 32 9 65 13 47 20 59 32 54 8 -4 29 -11 45 -18 17 -6 32
-11 33 -13 2 -1 8 -20 13 -44 19 -83 74 -129 157 -129 60 0 73 16 60 70 -17
70 -21 78 -25 50 -8 -50 -24 -70 -60 -70 -62 0 -93 51 -93 152 0 44 6 70 21
95 33 53 -5 72 -79 41 -61 -25 -65 -24 -57 21 4 24 2 42 -4 46 -25 15 -7 24
72 34 45 6 95 12 110 14 15 1 29 7 30 12 4 17 -84 14 -208 -8z m75 -198 l0
-50 -47 7 c-27 3 -50 8 -52 10 -2 2 0 19 3 38 7 35 17 41 74 45 20 1 22 -3 22
-50z"/>
  <path d="M281 388 c-25 -4 -49 -13 -55 -19 -13 -14 122 -5 136 9 14 14 -30 19
-81 10z"/>
  <path d="M301 300 c-13 -6 -54 -14 -90 -18 -58 -7 -64 -9 -44 -20 17 -9 31 -9
70 3 26 8 60 15 75 15 25 0 26 -2 17 -29 -6 -15 -19 -38 -30 -50 -16 -17 -24
-19 -40 -10 -44 23 -36 2 17 -44 32 -29 61 -47 69 -43 19 7 9 35 -19 58 l-21
17 25 19 c79 63 92 78 77 91 -21 17 -77 23 -106 11z"/>
</g>
<g id="part-1" class="char-part">
  <path d="M267 603 c-4 -3 -7 -16 -7 -27 -1 -37 -38 -106 -106 -192 -36 -46
-62 -84 -58 -84 24 0 118 89 155 145 28 43 46 62 53 56 109 -85 136 -97 136
-61 0 23 -45 54 -101 71 -35 11 -36 13 -26 40 10 24 8 31 -8 44 -23 16 -29 18
-38 8z"/>
</g>
<g id="part-2" class="char-part">
  <path d="M270 150 c58 -52 90 -63 90 -32 0 26 -27 48 -79 67 -68 24 -70 18
-11 -35z"/>
</g>
<g id="part-3" class="char-part">
  <path d="M565 548 c-136 -23 -146 -26 -125 -38 10 -5 59 -1 125 10 61 11 131
20 157 20 48 0 71 13 42 24 -25 10 -81 5 -199 -16z"/>
</g>
<g id="part-4" class="char-part">
  <path d="M500 478 c0 -18 -10 -99 -22 -180 l-22 -148 -33 -6 c-38 -7 -39 -25
-2 -38 20 -7 38 0 102 39 42 27 76 50 74 52 -2 2 -23 -4 -47 -12 -24 -8 -45
-13 -48 -10 -3 3 9 73 26 157 33 158 32 178 -9 178 -15 0 -19 -7 -19 -32z"/>
</g>
<g id="part-5" class="char-part">
  <path d="M626 431 c-15 -6 -16 -9 -5 -13 11 -4 14 -27 13 -102 -1 -53 3 -99 8
-102 4 -3 6 -10 3 -15 -4 -5 -1 -9 4 -9 6 0 11 -6 11 -13 0 -20 30 -52 67 -71
37 -19 57 -21 47 -5 -4 8 -1 8 12 1 12 -6 28 -6 42 -1 20 8 23 13 17 41 -4 18
-11 42 -16 53 -7 19 -8 19 -8 -1 -1 -12 -7 -33 -14 -47 -11 -20 -16 -24 -26
-14 -8 8 -19 8 -41 0 -21 -8 -32 -8 -37 -1 -3 6 -1 8 5 4 6 -3 13 -2 17 4 3 5
-6 12 -20 16 -14 3 -25 10 -25 15 0 12 0 13 -16 65 -9 30 -11 51 -4 59 5 6 7
20 4 32 -3 11 -1 24 5 27 8 5 8 13 1 26 -8 15 -7 18 3 14 8 -3 17 2 20 10 10
25 -30 41 -67 27z"/>
</g>
</g>
</svg>