<?xml version="1.0" standalone="no"?>
<!DOCTYPE svg PUBLIC "-//W3C//DTD SVG 20010904//EN"
 "http://www.w3.org/TR/2001/REC-SVG-20010904/DTD/svg10.dtd">
<svg version="1.0" xmlns="http://www.w3.org/2000/svg"
 width="96.000000pt" height="68.000000pt" viewBox="0 0 96.000000 68.000000"
 preserveAspectRatio="xMidYMid meet">
<metadata>
Created by potrace 1.16, written by Peter Selinger 2001-2019
Combined from part_0.svg through part_5.svg with named groups
</metadata>
<g transform="translate(0.000000,68.000000) scale(0.100000,-0.100000)" fill="#000000" stroke="none">
<g id="part-0" class="char-part">
  <path d="M629 549 c5 -73 -6 -115 -41 -154 -41 -47 -12 -47 38 0 20 19 40 35
44 35 3 0 17 -11 30 -25 30 -32 52 -33 48 -2 -2 15 -14 25 -38 33 -19 7 -35
17 -35 24 0 7 24 22 52 34 58 23 64 31 32 41 -14 5 -28 -1 -46 -19 -38 -38
-46 -33 -38 23 6 45 5 49 -17 55 -13 3 -25 6 -28 6 -3 0 -3 -23 -1 -51z"/>
  <path d="M425 481 c0 -73 -3 -93 -19 -110 -31 -34 -11 -35 23 -1 l31 31 22
-21 c22 -21 38 -23 41 -5 1 6 -13 17 -31 25 l-33 15 3 75 c3 68 1 75 -17 78
-19 3 -20 -3 -20 -87z"/>
  <path d="M560 496 c0 -16 28 -42 36 -33 3 3 3 15 -1 26 -7 23 -35 29 -35 7z"/>
  <path d="M487 470 c-10 -16 -15 -30 -12 -30 16 0 65 35 62 45 -8 22 -33 14
-50 -15z"/>
  <path d="M360 471 c0 -21 13 -41 26 -41 17 0 18 22 2 38 -14 14 -28 16 -28 3z"/>
  <path d="M226 438 c-11 -6 -46 -11 -78 -11 -58 1 -67 -4 -47 -24 6 -6 17 -42
25 -79 17 -79 28 -96 46 -71 8 11 33 20 64 23 47 6 50 8 46 31 -2 13 3 44 13
70 17 44 17 47 0 60 -23 16 -43 16 -69 1z m10 -75 c-3 -26 -12 -50 -19 -55
-19 -12 -47 -9 -47 5 0 6 -3 28 -6 49 -6 32 -4 37 17 41 61 11 62 11 55 -40z"/>
  <path d="M618 349 c-136 -20 -252 -28 -259 -18 -12 20 -55 -61 -45 -86 5 -14
9 -15 21 -5 8 7 21 24 28 38 6 14 20 26 29 28 68 9 350 25 356 20 3 -4 1 -16
-6 -26 -10 -17 -10 -20 5 -20 10 0 31 7 47 15 15 8 35 15 42 15 24 0 15 19
-16 35 -32 16 -108 18 -202 4z"/>
  <path d="M521 293 c1 -5 1 -20 0 -35 -1 -25 -5 -28 -51 -34 -60 -8 -66 -24
-10 -24 22 0 40 -4 40 -9 0 -19 -57 -80 -119 -128 -15 -11 -15 -12 0 -13 30 0
105 60 143 114 30 44 43 55 70 58 49 5 56 0 56 -38 0 -72 -40 -127 -83 -116
-15 4 -18 2 -12 -9 43 -74 94 -47 128 68 9 28 21 62 27 74 20 36 -11 52 -84
45 -51 -5 -57 -4 -46 9 10 12 10 18 0 30 -13 15 -61 21 -59 8z"/>
</g>
<g id="part-1" class="char-part">
  <path d="M215 430 c-11 -5 -44 -9 -74 -9 -52 -1 -53 -2 -38 -19 10 -10 22 -45
28 -78 12 -68 25 -88 40 -61 7 12 23 17 59 17 38 0 48 3 44 14 -3 7 4 40 15
72 11 32 17 62 15 66 -7 10 -63 9 -89 -2z m29 -53 c-13 -76 -13 -77 -44 -77
-24 0 -31 5 -35 25 -16 80 -18 73 27 83 54 11 59 8 52 -31z"/>
</g>
<g id="part-2" class="char-part">
  <path d="M425 488 c0 -60 -5 -92 -18 -115 -22 -41 -6 -43 25 -3 l24 31 24 -21
c26 -22 45 -22 45 1 0 8 -14 18 -32 23 l-32 10 2 75 c1 68 -1 76 -18 79 -18 2
-20 -4 -20 -80z"/>
  <path d="M486 475 c-10 -15 -16 -28 -14 -30 8 -8 68 29 65 39 -7 21 -34 17
-51 -9z"/>
  <path d="M357 463 c14 -42 43 -58 43 -25 0 21 -18 42 -37 42 -7 0 -10 -7 -6
-17z"/>
</g>
<g id="part-3" class="char-part">
  <path d="M629 549 c5 -73 -6 -115 -41 -154 -44 -50 -9 -46 42 5 l39 39 25 -29
c30 -36 59 -40 54 -7 -2 15 -14 25 -38 33 -19 7 -35 17 -35 24 0 7 24 22 53
33 52 20 64 39 26 45 -11 2 -30 -8 -44 -23 -34 -37 -43 -32 -35 21 7 48 -2 63
-35 64 -12 0 -14 -11 -11 -51z"/>
  <path d="M561 486 c15 -33 42 -35 37 -3 -2 14 -11 23 -26 25 -20 3 -21 1 -11
-22z"/>
</g>
<g id="part-4" class="char-part">
  <path d="M598 243 c-39 -6 -35 -24 5 -21 18 1 38 -1 44 -5 13 -8 3 -68 -18
-112 -12 -25 -20 -30 -51 -30 -39 0 -39 -12 0 -48 36 -33 77 6 105 100 9 29
21 62 27 74 22 40 -21 56 -112 42z"/>
</g>
</g>
</svg>