<?xml version="1.0" standalone="no"?>
<!DOCTYPE svg PUBLIC "-//W3C//DTD SVG 20010904//EN"
 "http://www.w3.org/TR/2001/REC-SVG-20010904/DTD/svg10.dtd">
<svg version="1.0" xmlns="http://www.w3.org/2000/svg"
 width="96.000000pt" height="68.000000pt" viewBox="0 0 96.000000 68.000000"
 preserveAspectRatio="xMidYMid meet">
<metadata>
Created by potrace 1.16, written by Peter Selinger 2001-2019
Combined from part_0.svg through part_5.svg with named groups
</metadata>
<g transform="translate(0.000000,68.000000) scale(0.100000,-0.100000)" fill="#000000" stroke="none">
<g id="part-0" class="char-part">
  <path d="M420 574 c-96 -8 -166 -10 -168 -5 -2 5 -11 7 -20 4 -15 -4 -17 -19
-14 -151 3 -108 0 -165 -12 -214 -15 -65 -14 -89 6 -115 12 -15 38 -6 38 13 0
11 26 14 133 14 72 0 155 3 183 6 49 6 53 5 79 -25 16 -17 35 -31 44 -31 34 0
39 33 42 270 3 224 2 234 -16 241 -28 11 -103 9 -295 -7z m232 -51 c6 -16 11
-99 12 -192 l1 -164 -203 -4 -204 -5 8 179 c3 98 9 180 11 183 6 6 220 27 301
29 59 1 63 0 74 -26z"/>
  <path d="M420 500 c6 -11 10 -35 8 -53 -3 -31 -5 -32 -58 -37 -68 -6 -65 -25
4 -25 29 0 51 -5 53 -12 9 -27 -65 -133 -94 -133 -7 0 -13 -4 -13 -10 0 -37
100 27 136 86 9 16 17 11 69 -39 32 -32 63 -56 69 -54 40 13 -14 89 -79 109
-28 9 -41 19 -43 35 -3 22 1 24 96 39 62 9 37 29 -33 26 l-54 -2 -3 42 c-3 41
-5 43 -36 46 -31 3 -33 2 -22 -18z"/>
</g>
<g id="part-1" class="char-part">
  <path d="M550 579 c-36 -5 -127 -10 -203 -12 -117 -2 -136 -4 -131 -17 17 -45
11 -242 -12 -390 -3 -23 0 -42 10 -55 14 -19 16 -19 28 -3 11 15 41 18 199 24
l186 7 24 -32 c28 -37 43 -39 65 -6 14 21 15 52 12 212 -1 103 1 203 5 221 8
31 7 33 -27 47 -39 16 -59 17 -156 4z m112 -79 c3 -25 7 -112 7 -195 l1 -150
-207 0 -207 0 2 100 c1 55 5 139 8 186 l6 87 97 10 c53 5 139 9 191 8 l95 -1
7 -45z"/>
</g>
<g id="part-2" class="char-part">
  <path d="M416 503 c4 -10 9 -35 12 -55 l4 -38 -48 -1 c-27 0 -58 -4 -69 -8
-17 -7 -16 -9 13 -15 17 -4 45 -5 61 -1 17 3 32 2 36 -4 12 -20 -32 -96 -73
-126 -49 -36 -53 -47 -12 -35 43 12 88 47 105 81 9 16 17 29 18 29 1 0 29 -25
60 -56 58 -55 79 -63 85 -30 5 25 -42 71 -94 91 -55 21 -61 51 -11 59 17 3 49
8 70 11 54 9 48 28 -8 28 -5 0 -27 -2 -47 -6 l-38 -6 0 44 c0 44 -10 55 -52
55 -15 0 -18 -4 -12 -17z"/>
</g>
</g>
</svg>