<?xml version="1.0" standalone="no"?>
<!DOCTYPE svg PUBLIC "-//W3C//DTD SVG 20010904//EN"
 "http://www.w3.org/TR/2001/REC-SVG-20010904/DTD/svg10.dtd">
<svg version="1.0" xmlns="http://www.w3.org/2000/svg"
 width="96.000000pt" height="68.000000pt" viewBox="0 0 96.000000 68.000000"
 preserveAspectRatio="xMidYMid meet">
<metadata>
Created by potrace 1.16, written by Peter Selinger 2001-2019
Combined from part_0.svg through part_5.svg with named groups
</metadata>
<g transform="translate(0.000000,68.000000) scale(0.100000,-0.100000)" fill="#000000" stroke="none">
<g id="part-0" class="char-part">
  <path d="M576 562 c-3 -5 8 -25 24 -44 l29 -36 -31 -6 c-17 -3 -50 -6 -74 -6
-62 0 -55 -18 8 -22 70 -4 72 -20 13 -93 -40 -49 -45 -59 -33 -71 10 -11 22
-12 44 -5 16 5 42 12 57 16 l28 6 -27 -35 c-15 -18 -51 -53 -81 -76 -29 -24
-51 -45 -48 -48 22 -23 270 201 263 237 -2 9 -16 17 -31 19 -21 3 -27 -1 -27
-16 0 -36 -33 -64 -83 -69 -29 -4 -47 -2 -47 5 0 6 17 32 38 59 21 26 41 55
44 64 5 12 25 18 77 22 39 3 79 10 88 16 17 9 17 10 0 17 -10 3 -45 3 -77 0
-56 -7 -60 -6 -60 13 0 30 -80 75 -94 53z"/>
  <path d="M345 540 c-11 -5 -53 -9 -92 -9 l-73 -1 10 -26 c13 -34 13 -139 -1
-187 -12 -46 1 -68 34 -60 75 17 107 22 150 23 l48 0 -6 -57 c-14 -109 -37
-139 -87 -112 -16 9 -19 8 -13 -3 17 -29 49 -58 66 -58 26 0 59 62 65 122 3
29 10 66 16 81 14 36 -10 56 -69 57 -39 0 -43 2 -43 25 0 21 6 26 40 31 22 4
40 10 40 15 0 5 -18 9 -40 9 -33 0 -40 4 -40 19 0 20 18 31 51 31 10 0 19 5
19 10 0 6 -16 10 -36 10 -31 0 -35 3 -32 22 2 18 12 24 47 30 49 8 56 12 46
27 -7 13 -71 13 -100 1z m-39 -77 c-3 -11 -16 -20 -31 -21 -20 -1 -25 3 -25
22 0 18 6 26 23 28 29 5 40 -5 33 -29z m6 -68 c-4 -21 -10 -25 -38 -25 -34 0
-39 6 -28 34 4 10 18 16 39 16 29 0 32 -2 27 -25z m-7 -66 c0 -20 -6 -25 -32
-27 -30 -3 -33 -1 -33 25 0 25 3 28 32 27 28 -1 33 -5 33 -25z"/>
  <path d="M727 283 c-4 -3 -7 -13 -7 -21 0 -23 -63 -94 -111 -127 -24 -17 -45
-33 -47 -37 -2 -5 -9 -8 -17 -8 -7 0 -19 -7 -26 -16 -12 -15 -11 -16 11 -9 14
4 56 28 94 52 l68 44 56 -56 c56 -56 74 -63 80 -31 5 24 -21 51 -74 76 -49 22
-49 29 -2 68 33 28 36 47 9 62 -23 12 -26 12 -34 3z"/>
  <path d="M347 244 c-9 -9 16 -44 30 -44 20 0 15 28 -6 39 -10 6 -21 8 -24 5z"/>
  <path d="M270 217 c0 -7 5 -18 12 -25 14 -14 38 -16 38 -3 0 5 -7 17 -16 25
-19 19 -34 21 -34 3z"/>
  <path d="M131 189 c-15 -43 -14 -69 3 -69 17 0 26 22 26 66 0 43 -15 44 -29 3z"/>
  <path d="M200 215 c0 -3 7 -20 16 -37 11 -21 19 -27 26 -20 14 14 4 38 -21 52
-12 6 -21 8 -21 5z"/>
</g>
<g id="part-1" class="char-part">
  <path d="M365 540 c-16 -6 -62 -13 -101 -16 l-71 -6 9 -55 c5 -34 5 -77 -2
-111 -16 -90 -15 -95 23 -89 17 4 67 12 110 18 92 14 104 32 15 22 -106 -12
-113 -11 -112 15 0 12 1 58 2 102 l2 80 36 0 c59 0 165 23 161 34 -5 15 -35
17 -72 6z"/>
</g>
<g id="part-2" class="char-part">
  <path d="M340 242 c0 -13 30 -52 41 -52 13 0 11 34 -3 48 -13 13 -38 16 -38 4z"/>
  <path d="M132 196 c-16 -44 -15 -76 2 -76 17 0 26 22 26 65 0 46 -14 51 -28
11z"/>
  <path d="M270 224 c0 -16 23 -44 35 -44 22 0 18 28 -4 40 -22 11 -31 13 -31 4z"/>
  <path d="M200 215 c0 -17 32 -65 40 -60 15 10 12 30 -8 48 -19 17 -32 22 -32
12z"/>
</g>
<g id="part-3" class="char-part">
  <path d="M570 561 c0 -5 14 -26 31 -46 19 -21 26 -35 18 -35 -34 -1 -134 -13
-138 -16 -28 -26 230 -16 322 12 9 3 14 10 11 16 -4 7 -31 8 -75 4 -64 -6 -69
-5 -69 14 0 11 -10 26 -22 34 -32 20 -78 31 -78 17z"/>
</g>
<g id="part-4" class="char-part">
  <path d="M582 417 c-7 -18 -28 -53 -48 -76 -31 -36 -35 -44 -23 -56 12 -12 23
-11 68 1 71 18 82 30 26 26 -25 -2 -45 0 -45 6 0 5 18 32 41 61 40 50 43 71
10 71 -10 0 -22 -13 -29 -33z"/>
</g>
<g id="part-5" class="char-part">
  <path d="M725 270 c-3 -5 -4 -14 0 -19 3 -5 0 -13 -6 -16 -5 -4 -8 -14 -5 -22
3 -8 1 -11 -5 -8 -5 4 -20 -4 -32 -17 -12 -12 -42 -38 -67 -57 -65 -50 -70
-57 -22 -31 23 13 42 28 42 32 0 5 4 6 10 3 5 -3 15 3 21 14 7 10 19 17 26 14
8 -3 13 3 13 17 0 11 4 19 9 16 5 -3 16 5 25 19 9 14 23 25 31 25 20 0 19 10
-2 26 -22 16 -30 17 -38 4z m26 -13 c-1 -12 -15 -9 -19 4 -3 6 1 10 8 8 6 -3
11 -8 11 -12z"/>
  <path d="M725 148 c11 -7 21 -20 23 -28 4 -20 51 -62 65 -57 6 2 12 10 15 18
3 12 2 12 -6 0 -8 -11 -11 -10 -14 9 -3 25 -39 55 -78 65 -24 5 -24 5 -5 -7z"/>
</g>
</g>
</svg>