<?xml version="1.0" standalone="no"?>
<!DOCTYPE svg PUBLIC "-//W3C//DTD SVG 20010904//EN"
 "http://www.w3.org/TR/2001/REC-SVG-20010904/DTD/svg10.dtd">
<svg version="1.0" xmlns="http://www.w3.org/2000/svg"
 width="96.000000pt" height="68.000000pt" viewBox="0 0 96.000000 68.000000"
 preserveAspectRatio="xMidYMid meet">
<metadata>
Created by potrace 1.16, written by Peter Selinger 2001-2019
Combined from part_0.svg through part_5.svg with named groups
</metadata>
<g transform="translate(0.000000,68.000000) scale(0.100000,-0.100000)" fill="#000000" stroke="none">
<g id="part-0" class="char-part">
  <path d="M532 573 c-12 -24 -18 -43 -14 -41 89 43 100 57 59 75 -21 10 -25 7
-45 -34z"/>
  <path d="M234 578 c3 -13 9 -48 12 -79 l7 -57 -52 -11 c-29 -6 -61 -11 -71
-11 -11 0 -20 -4 -20 -10 0 -6 30 -10 70 -10 l70 0 0 -39 0 -38 -85 -39 c-47
-22 -83 -43 -82 -49 2 -5 15 -16 30 -23 25 -12 30 -10 73 22 26 20 50 36 53
36 10 0 0 -133 -10 -144 -5 -6 -19 -5 -35 3 -15 6 -29 9 -32 7 -7 -7 80 -85
95 -86 24 0 33 40 33 149 l0 110 35 27 c42 31 33 57 -9 29 l-26 -17 0 30 c0
25 5 30 32 36 17 3 33 4 36 1 2 -2 7 -36 10 -75 l5 -70 37 6 c41 7 55 -4 45
-36 -4 -13 -15 -20 -33 -20 -15 0 -45 -3 -67 -7 -36 -6 -38 -7 -15 -14 14 -4
42 -4 63 -2 20 3 37 3 37 -1 0 -20 -38 -60 -74 -78 -54 -28 -33 -34 27 -9 31
13 55 33 73 60 24 38 30 41 73 42 25 1 57 4 71 9 l25 7 -27 11 c-15 6 -33 10
-40 8 -60 -19 -67 -17 -66 15 1 31 1 31 49 27 57 -6 59 -3 59 87 0 70 -12 82
-64 69 -23 -5 -26 -3 -26 20 0 22 5 26 28 26 15 0 34 4 42 10 27 17 0 23 -52
12 -29 -7 -81 -15 -116 -18 -71 -8 -94 -24 -33 -24 37 0 41 -2 41 -25 0 -22
-4 -25 -34 -25 -21 0 -36 6 -40 15 -3 8 -17 15 -31 15 -22 0 -25 4 -25 34 0
19 4 46 10 60 12 33 -9 56 -52 56 -27 0 -30 -3 -24 -22z m256 -123 c0 -16 -6
-25 -15 -25 -9 0 -15 9 -15 25 0 16 6 25 15 25 9 0 15 -9 15 -25z m70 -35 c17
-10 14 -15 -17 -24 -19 -6 -23 -3 -23 13 0 22 16 27 40 11z m-65 -22 c8 -18
18 -23 43 -22 29 2 32 -1 32 -25 0 -26 -4 -28 -64 -39 -105 -20 -105 -20 -104
38 0 28 4 53 10 56 16 10 20 -3 8 -26 -10 -18 -9 -21 2 -18 7 2 19 17 26 31
16 33 34 35 47 5z"/>
  <path d="M478 352 c-21 -2 -38 -7 -38 -13 0 -11 56 -11 84 0 27 10 2 17 -46
13z"/>
  <path d="M405 556 c23 -34 55 -43 55 -15 0 15 -32 39 -51 39 -18 0 -19 -1 -4
-24z"/>
  <path d="M760 470 c-14 -4 -45 -8 -70 -9 l-45 -1 5 -224 c3 -124 9 -228 13
-232 17 -18 27 63 27 231 0 202 4 215 61 215 36 0 36 -5 3 -54 l-26 -38 25
-26 c58 -63 61 -100 10 -104 l-37 -3 42 -29 c46 -32 68 -29 78 9 10 41 -5 77
-51 122 l-44 42 47 40 c26 23 51 41 56 41 5 0 3 7 -4 15 -13 16 -49 18 -90 5z"/>
  <path d="M510 185 c0 -13 73 -84 81 -79 20 12 7 43 -27 63 -35 21 -54 26 -54
16z"/>
</g>
<g id="part-1" class="char-part">
  <path d="M244 518 l1 -83 -62 -9 c-35 -5 -63 -13 -63 -18 0 -4 29 -8 65 -8
l65 0 0 -40 0 -41 -77 -35 c-91 -41 -89 -39 -73 -59 19 -23 43 -18 93 20 25
19 48 35 51 35 8 0 7 -76 -1 -124 -6 -37 -7 -38 -42 -32 l-35 5 42 -42 c40
-40 43 -41 59 -24 15 15 18 36 18 134 l0 115 35 31 c33 28 31 29 -13 12 -16
-7 -18 -3 -15 26 3 29 7 34 31 37 35 4 30 26 -6 30 -31 4 -34 21 -15 85 11 35
10 41 -7 53 -10 8 -26 14 -35 14 -15 0 -17 -12 -16 -82z"/>
</g>
<g id="part-2" class="char-part">
  <path d="M545 595 c-8 -14 -22 -37 -31 -51 l-16 -26 51 28 c55 31 63 47 31 64
-16 9 -22 6 -35 -15z"/>
  <path d="M390 580 c0 -15 42 -60 56 -60 17 0 18 21 2 42 -14 17 -58 31 -58 18z"/>
  <path d="M457 500 c-55 -10 -102 -22 -105 -26 -9 -9 125 2 207 17 42 8 59 14
50 20 -18 11 -35 10 -152 -11z"/>
</g>
<g id="part-3" class="char-part">
  <path d="M451 268 c5 -40 -1 -48 -38 -49 -21 -1 -49 -4 -63 -8 -22 -6 -23 -8
-7 -14 10 -4 36 -4 58 -1 21 4 39 3 39 -1 0 -17 -45 -62 -83 -82 -30 -16 -36
-22 -22 -23 37 0 109 44 134 83 19 29 31 37 55 37 46 0 106 12 106 20 0 14
-44 19 -88 11 -40 -8 -43 -7 -40 13 2 16 -3 22 -25 24 -19 2 -28 -1 -26 -10z"/>
  <path d="M535 151 c42 -44 65 -52 65 -22 0 21 -34 47 -76 57 l-29 7 40 -42z"/>
</g>
<g id="part-4" class="char-part">
  <path d="M652 234 c4 -124 9 -229 12 -232 3 -3 9 -2 13 2 8 8 22 422 15 444
-2 6 -14 12 -26 12 l-21 0 7 -226z"/>
</g>
</g>
</svg>