<?xml version="1.0" standalone="no"?>
<!DOCTYPE svg PUBLIC "-//W3C//DTD SVG 20010904//EN"
 "http://www.w3.org/TR/2001/REC-SVG-20010904/DTD/svg10.dtd">
<svg version="1.0" xmlns="http://www.w3.org/2000/svg"
 width="96.000000pt" height="68.000000pt" viewBox="0 0 96.000000 68.000000"
 preserveAspectRatio="xMidYMid meet">
<metadata>
Created by potrace 1.16, written by Peter Selinger 2001-2019
Combined from part_0.svg through part_5.svg with named groups
</metadata>
<g transform="translate(0.000000,68.000000) scale(0.100000,-0.100000)" fill="#000000" stroke="none">
<g id="part-0" class="char-part">
  <path d="M555 561 c-7 -24 -70 -88 -109 -112 -42 -26 -13 -24 39 2 l41 21 36
-24 c34 -23 35 -25 16 -37 -15 -9 -22 -9 -33 3 -19 18 -54 30 -63 21 -4 -4 0
-10 8 -15 8 -5 23 -15 34 -23 17 -13 16 -15 -20 -34 -22 -11 -56 -26 -77 -32
-51 -17 -40 -25 13 -11 23 6 44 9 47 7 6 -7 -15 -47 -40 -74 -28 -31 -7 -29
29 2 19 17 41 25 65 25 31 0 38 -4 43 -26 7 -25 2 -38 -12 -40 -4 0 -47 -4
-95 -8 -53 -5 -85 -12 -79 -18 12 -12 54 -13 130 -3 l63 8 -3 -54 -3 -53 -43
-4 -43 -4 3 34 c3 29 0 33 -23 36 -23 3 -26 0 -26 -30 0 -18 -3 -43 -7 -55
-11 -29 21 -38 70 -19 52 20 136 36 184 36 33 0 40 -3 40 -20 0 -27 19 -25 29
3 19 48 21 95 6 107 -23 19 -43 6 -37 -25 6 -34 -10 -45 -65 -45 l-43 0 0 49
0 48 97 7 c53 4 99 9 102 11 13 14 -20 20 -101 18 l-89 -2 3 32 c3 31 5 32 53
35 59 4 80 18 41 28 -23 6 -59 1 -176 -22 -23 -4 -26 -1 -25 21 0 16 8 31 20
37 40 22 151 98 184 126 l35 30 -33 16 c-26 14 -39 15 -63 7 -40 -14 -71 -14
-63 -1 9 15 -14 40 -36 40 -10 0 -20 -8 -24 -19z m125 -59 c0 -5 -14 -21 -31
-38 -27 -26 -32 -27 -42 -13 -7 9 -24 19 -39 23 -40 9 -35 24 10 29 71 7 102
7 102 -1z"/>
  <path d="M245 482 c-112 -18 -118 -20 -110 -32 3 -5 26 -10 50 -10 39 0 45 -3
51 -24 3 -13 4 -38 2 -57 -3 -31 -6 -34 -40 -37 -50 -4 -49 -22 1 -22 42 0 51
-13 51 -76 0 -38 -10 -47 -75 -64 -67 -18 -70 -20 -45 -37 28 -20 70 -11 129
26 25 16 63 37 84 47 20 10 37 21 37 26 0 11 -3 10 -36 -7 -50 -26 -55 -21
-52 42 3 55 4 58 32 63 43 7 47 33 5 28 l-34 -3 0 52 c-1 53 -1 53 35 59 53 8
64 14 54 23 -18 17 -50 18 -139 3z"/>
</g>
<g id="part-1" class="char-part">
  <path d="M270 480 c-19 -4 -56 -11 -83 -15 -30 -4 -45 -10 -41 -17 12 -19 234
12 234 33 0 11 -60 10 -110 -1z"/>
</g>
<g id="part-2" class="char-part">
  <path d="M239 445 c-3 -3 -4 -28 -1 -56 5 -56 -4 -69 -50 -69 -15 0 -30 -4
-33 -10 -4 -6 11 -10 38 -10 l44 0 7 -52 c9 -62 3 -68 -79 -88 -59 -14 -67
-23 -36 -40 30 -15 56 -12 98 11 21 12 66 37 101 57 71 39 76 50 12 27 -23 -8
-44 -15 -46 -15 -2 0 -4 25 -4 55 l0 54 42 11 c31 9 38 14 27 21 -8 5 -27 9
-42 9 -28 0 -29 1 -25 48 3 44 1 47 -22 50 -14 2 -28 0 -31 -3z"/>
</g>
<g id="part-3" class="char-part">
  <path d="M560 571 c0 -16 -51 -72 -103 -112 -48 -39 -54 -49 -16 -28 16 8 27
5 59 -19 l39 -28 -52 -26 c-29 -14 -62 -29 -75 -33 -13 -4 -21 -9 -18 -12 7
-8 115 26 167 52 26 13 84 52 129 86 73 56 80 63 66 77 -17 17 -63 20 -115 7
-26 -6 -32 -5 -27 4 4 6 2 18 -4 26 -14 16 -50 20 -50 6z m120 -70 c0 -15 -64
-64 -68 -53 -2 6 -19 16 -39 23 -19 6 -31 15 -26 19 16 16 133 25 133 11z
m-115 -55 c35 -24 36 -25 14 -37 -18 -9 -24 -8 -31 4 -4 9 -22 19 -40 22 -30
7 -31 8 -13 21 25 18 28 18 70 -10z"/>
</g>
<g id="part-4" class="char-part">
  <path d="M484 308 c-9 -18 -26 -44 -38 -57 l-21 -24 32 17 c17 9 34 20 37 25
3 5 59 14 123 21 131 14 165 24 120 35 -24 7 -61 2 -178 -21 -21 -4 -27 -1
-25 13 2 32 -32 26 -50 -9z"/>
</g>
<g id="part-5" class="char-part">
  <path d="M605 180 c-4 -7 -8 -31 -9 -54 -1 -37 -4 -41 -33 -47 -18 -3 -44 -4
-57 -2 -21 4 -24 8 -16 23 14 27 12 37 -8 42 -14 4 -18 -1 -20 -26 -1 -17 -3
-40 -4 -51 -3 -21 23 -28 53 -14 24 12 70 22 102 22 27 0 36 11 18 22 -6 3 -9
18 -7 33 5 37 -8 70 -19 52z"/>
  <path d="M749 162 c8 -6 9 -11 3 -13 -7 -3 -8 -17 -3 -41 6 -25 5 -38 -3 -41
-8 -3 -8 -8 2 -18 10 -11 12 -11 13 2 0 7 2 28 5 44 10 66 9 69 -11 73 -15 2
-17 1 -6 -6z"/>
  <path d="M665 90 l-20 -9 20 0 c11 0 29 4 40 9 l20 9 -20 0 c-11 0 -29 -4 -40
-9z"/>
</g>
</g>
</svg>