<?xml version="1.0" standalone="no"?>
<!DOCTYPE svg PUBLIC "-//W3C//DTD SVG 20010904//EN"
 "http://www.w3.org/TR/2001/REC-SVG-20010904/DTD/svg10.dtd">
<svg version="1.0" xmlns="http://www.w3.org/2000/svg"
 width="96.000000pt" height="68.000000pt" viewBox="0 0 96.000000 68.000000"
 preserveAspectRatio="xMidYMid meet">
<metadata>
Created by potrace 1.16, written by Peter Selinger 2001-2019
Combined from part_0.svg through part_5.svg with named groups
</metadata>
<g transform="translate(0.000000,68.000000) scale(0.100000,-0.100000)" fill="#000000" stroke="none">
<g id="part-0" class="char-part">
  <path d="M505 518 c-82 -10 -169 -21 -193 -24 -72 -9 -46 -29 39 -30 l74 0 -2
-40 c-6 -92 -107 -232 -219 -304 -42 -26 -44 -30 -19 -24 39 9 69 25 129 67
56 41 103 102 157 209 35 69 37 77 22 90 -14 11 -10 14 33 20 91 12 154 9 160
-7 9 -24 -22 -185 -48 -250 -27 -65 -31 -67 -112 -51 l-38 7 42 -50 c32 -37
50 -51 69 -51 66 0 101 59 136 232 14 68 32 138 41 157 8 18 14 34 12 36 -59
41 -62 41 -283 13z"/>
</g>
<g id="part-1" class="char-part">
  <path d="M642 530 c-18 -4 -107 -16 -197 -26 -91 -10 -165 -21 -165 -26 0 -18
57 -19 167 -5 151 20 215 26 231 20 39 -15 -27 -312 -74 -330 -9 -3 -36 -1
-60 4 -50 11 -49 10 10 -54 36 -40 55 -41 94 -8 39 32 55 75 86 224 15 68 31
131 36 141 16 30 12 40 -25 56 -37 15 -53 16 -103 4z"/>
</g>
<g id="part-2" class="char-part">
  <path d="M443 472 c-6 -4 -14 -25 -18 -47 -21 -111 -104 -226 -220 -303 -61
-40 -37 -42 43 -2 98 49 178 142 236 274 l25 56 -22 15 c-24 17 -27 18 -44 7z"/>
</g>
</g>
</svg>