<?xml version="1.0" standalone="no"?>
<!DOCTYPE svg PUBLIC "-//W3C//DTD SVG 20010904//EN"
 "http://www.w3.org/TR/2001/REC-SVG-20010904/DTD/svg10.dtd">
<svg version="1.0" xmlns="http://www.w3.org/2000/svg"
 width="96.000000pt" height="68.000000pt" viewBox="0 0 96.000000 68.000000"
 preserveAspectRatio="xMidYMid meet">
<metadata>
Created by potrace 1.16, written by Peter Selinger 2001-2019
Combined from part_0.svg through part_5.svg with named groups
</metadata>
<g transform="translate(0.000000,68.000000) scale(0.100000,-0.100000)" fill="#000000" stroke="none">
<g id="part-0" class="char-part">
  <path d="M256 538 c-8 -52 -58 -134 -127 -211 -28 -32 -49 -60 -46 -64 7 -7
63 28 98 60 35 33 73 31 77 -5 3 -26 0 -28 -47 -34 -28 -4 -51 -10 -51 -15 0
-13 39 -21 70 -14 l30 7 0 -56 c0 -30 -5 -58 -11 -62 -6 -3 -41 -8 -78 -10
-68 -4 -78 -14 -43 -41 25 -18 40 -16 153 22 57 19 105 32 108 29 2 -2 -4 -17
-15 -32 -34 -46 -37 -52 -19 -46 39 15 125 189 125 253 0 17 3 31 8 32 4 0 22
2 40 3 29 3 32 1 32 -25 0 -37 7 -40 78 -33 l60 7 6 38 c6 39 7 39 51 39 33 0
45 4 45 15 0 11 -11 15 -41 15 -25 0 -38 4 -34 10 10 15 -14 40 -37 40 -16 0
-19 -5 -15 -22 9 -32 -10 -48 -54 -48 -32 0 -39 4 -39 19 0 16 -18 31 -37 31
-3 0 -3 -13 1 -30 5 -28 3 -30 -24 -30 -29 0 -30 1 -24 38 3 20 7 39 9 40 4 4
116 18 229 28 51 4 65 9 57 17 -12 12 -72 14 -114 3 -21 -5 -27 -1 -35 23 -11
31 -45 56 -62 46 -6 -4 -2 -18 10 -35 28 -39 25 -50 -12 -50 -18 0 -56 -3 -84
-6 l-50 -6 4 -58 c4 -53 -4 -111 -28 -201 -9 -32 -15 -38 -54 -48 -25 -6 -48
-11 -51 -11 -3 0 -5 24 -3 52 l3 53 43 9 c55 13 56 36 2 36 -36 0 -40 3 -40
24 0 19 7 25 36 31 32 6 35 8 22 21 -13 13 -22 13 -78 0 -35 -8 -66 -14 -67
-12 -2 2 15 31 38 65 l41 61 35 -31 c32 -28 37 -29 51 -15 14 14 14 18 -8 41
-13 14 -34 25 -46 25 -16 0 -21 5 -17 18 3 12 -4 22 -22 30 -39 18 -42 16 -49
-30z m414 -180 c0 -23 -15 -36 -45 -39 -23 -3 -30 0 -33 15 -2 10 2 22 10 27
20 13 68 11 68 -3z"/>
  <path d="M640 254 c-36 -7 -79 -13 -97 -14 l-32 0 51 -51 51 -51 -24 -19 c-13
-10 -49 -28 -79 -39 l-55 -20 48 5 c26 2 65 14 87 25 l41 21 42 -37 c40 -34
44 -36 101 -31 94 8 96 24 6 42 -40 8 -110 42 -110 53 0 4 18 30 41 57 38 46
39 50 23 62 -10 7 -20 12 -23 12 -3 -1 -35 -7 -71 -15z m27 -31 c4 -9 1 -19
-5 -21 -7 -2 -10 -7 -7 -12 3 -4 -2 -13 -10 -20 -13 -11 -20 -9 -40 10 -32 30
-32 34 8 47 46 15 47 15 54 -4z"/>
  <path d="M342 218 c-11 -24 -18 -45 -16 -47 2 -2 22 8 45 23 39 26 40 28 23
47 -24 27 -31 24 -52 -23z"/>
  <path d="M160 216 c0 -8 14 -26 32 -41 26 -22 33 -24 40 -12 12 22 -1 47 -29
58 -33 12 -43 11 -43 -5z"/>
</g>
<g id="part-1" class="char-part">
  <path d="M270 565 c0 -41 -47 -129 -110 -207 -39 -49 -66 -88 -61 -88 5 0 32
18 60 40 60 47 97 53 107 15 8 -33 4 -36 -51 -42 -65 -8 -66 -23 -1 -23 l56 0
0 -59 0 -58 -37 -7 c-21 -3 -57 -6 -80 -6 -50 0 -54 -10 -16 -35 23 -15 31
-16 57 -6 17 7 67 24 111 38 44 14 84 29 90 34 12 12 -11 12 -53 0 l-32 -10 0
60 c0 56 1 59 28 65 65 14 67 15 48 26 -10 5 -28 7 -41 4 -19 -5 -23 -1 -27
23 -4 27 -1 30 29 36 18 3 33 11 33 17 0 10 -24 9 -123 -8 l-38 -7 42 67 c24
36 46 66 49 66 4 0 17 -11 30 -25 29 -31 60 -33 60 -4 0 14 -12 25 -40 37 -23
10 -40 24 -40 33 0 9 -11 21 -25 27 -20 9 -25 9 -25 -3z"/>
  <path d="M347 214 c-10 -20 -14 -34 -10 -32 49 24 63 33 63 44 0 9 -20 24 -34
24 -1 0 -10 -16 -19 -36z"/>
  <path d="M166 208 c26 -46 64 -64 64 -30 0 25 -19 42 -48 42 -16 0 -21 -4 -16
-12z"/>
</g>
<g id="part-2" class="char-part">
  <path d="M570 576 c0 -3 9 -20 20 -40 25 -41 25 -41 -87 -52 -70 -6 -86 -14
-62 -30 17 -10 5 -146 -20 -226 -12 -36 -37 -90 -56 -119 -20 -28 -34 -54 -31
-56 10 -10 79 70 102 121 24 53 64 215 64 263 0 26 14 30 174 43 65 5 121 11
124 14 12 13 -48 23 -93 16 -52 -8 -69 -5 -60 11 8 12 -40 59 -60 59 -8 0 -15
-2 -15 -4z"/>
</g>
<g id="part-3" class="char-part">
  <path d="M670 431 c0 -31 -14 -41 -61 -41 -22 0 -29 5 -29 19 0 10 -7 22 -16
25 -28 11 -35 7 -24 -13 16 -30 12 -39 -15 -43 -34 -4 -32 -23 3 -23 21 0 28
-5 30 -25 6 -39 20 -50 48 -39 14 5 40 9 58 9 31 0 34 3 40 40 6 40 6 40 52
40 55 0 57 23 2 28 -29 2 -35 7 -31 21 3 13 -2 20 -19 24 -36 10 -38 9 -38
-22z m-2 -83 c-4 -27 -66 -45 -75 -22 -10 27 6 44 42 44 32 0 36 -3 33 -22z"/>
</g>
<g id="part-4" class="char-part">
  <path d="M672 259 c-13 -5 -54 -12 -92 -15 l-67 -7 51 -49 51 -49 -25 -19
c-14 -11 -50 -29 -80 -40 -55 -20 -55 -20 -13 -15 23 3 63 14 89 25 l47 21 26
-24 c44 -41 69 -50 127 -42 30 3 56 10 59 15 3 5 -18 13 -45 19 -55 12 -130
46 -130 60 0 4 19 29 41 55 24 27 38 51 33 55 -16 15 -49 20 -72 10z m-2 -36
c0 -10 -9 -29 -20 -43 l-19 -25 -25 24 c-14 14 -26 28 -26 32 0 4 19 12 43 17
23 6 43 10 45 11 1 1 2 -7 2 -16z"/>
</g>
</g>
</svg>