<?xml version="1.0" standalone="no"?>
<!DOCTYPE svg PUBLIC "-//W3C//DTD SVG 20010904//EN"
 "http://www.w3.org/TR/2001/REC-SVG-20010904/DTD/svg10.dtd">
<svg version="1.0" xmlns="http://www.w3.org/2000/svg"
 width="96.000000pt" height="68.000000pt" viewBox="0 0 96.000000 68.000000"
 preserveAspectRatio="xMidYMid meet">
<metadata>
Created by potrace 1.16, written by Peter Selinger 2001-2019
Combined from part_0.svg through part_5.svg with named groups
</metadata>
<g transform="translate(0.000000,68.000000) scale(0.100000,-0.100000)" fill="#000000" stroke="none">
<g id="part-0" class="char-part">
  <path d="M568 549 c13 -14 18 -180 5 -178 -31 5 -73 -3 -68 -12 4 -6 21 -9 38
-7 30 3 32 1 35 -33 l3 -36 -71 -7 c-85 -9 -84 -26 1 -26 58 0 60 -1 53 -22
-8 -28 -72 -108 -85 -108 -11 0 -12 -37 -1 -44 4 -2 25 0 47 5 22 5 76 18 120
29 l79 19 26 -31 c27 -32 50 -32 50 0 0 28 -28 60 -76 88 -49 29 -70 25 -36
-6 12 -12 22 -25 22 -29 0 -5 -30 -12 -67 -16 -36 -4 -73 -9 -81 -12 -19 -8
-3 22 32 59 28 29 33 54 14 61 -31 11 9 20 116 26 64 4 118 10 122 13 3 4 -4
12 -16 18 -16 9 -42 9 -103 1 -44 -6 -84 -11 -89 -11 -4 0 -8 15 -8 34 0 34 1
35 55 46 70 15 73 34 4 28 -62 -6 -66 0 -50 83 7 34 10 63 8 66 -3 2 -25 7
-49 10 -35 5 -41 3 -30 -8z"/>
  <path d="M420 475 c36 -37 55 -43 63 -22 10 26 -31 57 -74 57 -22 0 -21 -2 11
-35z"/>
  <path d="M230 465 c-30 -7 -70 -14 -87 -14 -22 -1 -33 -6 -33 -16 0 -11 12
-15 49 -15 l49 0 4 -45 c4 -54 -5 -65 -49 -65 -18 0 -33 -4 -33 -10 0 -5 18
-10 40 -10 l40 0 0 -45 c0 -25 1 -48 3 -52 1 -5 -25 -15 -58 -24 -65 -17 -74
-28 -35 -42 21 -8 44 -1 123 38 100 49 116 62 56 45 -50 -15 -50 -14 -47 43 3
51 4 52 36 55 17 2 32 7 32 12 0 5 -15 10 -32 12 -18 2 -32 6 -30 11 1 4 2 25
2 47 0 37 2 39 38 46 48 9 52 12 45 29 -6 17 -36 17 -113 0z"/>
  <path d="M366 356 c9 -22 55 -49 65 -39 14 14 1 40 -24 47 -35 9 -47 7 -41 -8z"/>
  <path d="M395 220 c-16 -16 -45 -41 -66 -56 -38 -26 -38 -27 -23 -55 18 -36
32 -37 45 -1 6 15 26 51 46 80 40 61 39 75 -2 32z"/>
</g>
<g id="part-1" class="char-part">
  <path d="M225 460 c-22 -5 -58 -11 -80 -15 -34 -6 -37 -8 -21 -17 27 -15 216
13 216 33 0 11 -59 10 -115 -1z"/>
</g>
<g id="part-2" class="char-part">
  <path d="M210 377 c0 -59 -7 -67 -61 -67 -16 0 -29 -4 -29 -10 0 -5 20 -10 45
-10 l45 0 0 -54 0 -54 -56 -13 c-60 -15 -71 -29 -33 -43 21 -7 45 1 130 43 94
46 99 53 24 35 -24 -6 -25 -5 -25 45 0 47 2 51 28 57 51 11 58 18 19 22 l-38
3 3 47 c2 45 1 47 -25 50 -26 3 -27 2 -27 -51z"/>
</g>
<g id="part-3" class="char-part">
  <path d="M420 475 c34 -35 54 -43 64 -26 16 25 -30 61 -76 61 -20 0 -19 -3 12
-35z"/>
  <path d="M360 362 c0 -15 46 -52 63 -52 24 0 22 37 -2 50 -23 12 -61 13 -61 2z"/>
  <path d="M382 212 c-23 -23 -52 -48 -65 -57 -27 -17 -27 -45 1 -67 12 -11 16
-10 24 2 5 8 27 46 49 83 22 38 38 71 36 74 -3 2 -23 -13 -45 -35z"/>
</g>
<g id="part-4" class="char-part">
  <path d="M569 542 c6 -11 11 -52 11 -90 l0 -70 -40 -7 c-47 -8 -44 -25 6 -25
32 0 34 -2 34 -34 l0 -34 -72 -9 c-64 -8 -69 -10 -43 -18 18 -5 68 -4 125 3
52 7 122 13 155 13 33 1 71 4 85 8 l25 7 -23 13 c-17 9 -40 10 -98 1 -107 -14
-104 -15 -104 24 0 37 3 39 73 51 60 10 46 29 -18 22 -53 -5 -55 -5 -55 18 0
13 5 47 11 75 6 28 9 54 6 57 -3 2 -24 7 -47 10 -40 6 -42 5 -31 -15z"/>
</g>
<g id="part-5" class="char-part">
  <path d="M570 240 c0 -5 5 -10 10 -10 6 0 10 5 10 10 0 6 -4 10 -10 10 -5 0
-10 -4 -10 -10z"/>
  <path d="M583 225 c-13 -6 -20 -15 -16 -18 3 -4 2 -7 -4 -7 -14 0 -24 -26 -17
-45 5 -11 13 -5 31 23 14 20 30 40 35 43 19 12 -7 16 -29 4z"/>
  <path d="M699 180 c13 -11 20 -20 16 -20 -4 0 8 -18 25 -40 17 -22 37 -40 43
-40 8 0 7 4 -2 9 -11 7 -11 10 3 12 15 4 13 9 -10 37 -15 17 -32 32 -39 32 -7
0 -18 7 -25 15 -7 8 -18 15 -24 15 -6 -1 0 -10 13 -20z m51 -30 c0 -5 -2 -10
-4 -10 -3 0 -8 5 -11 10 -3 6 -1 10 4 10 6 0 11 -4 11 -10z"/>
  <path d="M502 132 c-27 -23 -31 -31 -19 -40 8 -7 29 -9 52 -5 33 5 36 8 20 15
-15 6 -12 7 11 4 34 -5 74 2 74 14 0 4 -19 5 -43 3 -37 -4 -44 -2 -52 16 -10
21 -10 21 -43 -7z"/>
  <path d="M665 130 c-18 -8 -17 -9 8 -9 15 -1 27 4 27 9 0 12 -8 12 -35 0z"/>
</g>
</g>
</svg>