<?xml version="1.0" standalone="no"?>
<!DOCTYPE svg PUBLIC "-//W3C//DTD SVG 20010904//EN"
 "http://www.w3.org/TR/2001/REC-SVG-20010904/DTD/svg10.dtd">
<svg version="1.0" xmlns="http://www.w3.org/2000/svg"
 width="96.000000pt" height="68.000000pt" viewBox="0 0 96.000000 68.000000"
 preserveAspectRatio="xMidYMid meet">
<metadata>
Created by potrace 1.16, written by Peter Selinger 2001-2019
Combined from part_0.svg through part_5.svg with named groups
</metadata>
<g transform="translate(0.000000,68.000000) scale(0.100000,-0.100000)" fill="#000000" stroke="none">
<g id="part-0" class="char-part">
  <path d="M287 573 c-2 -5 -7 -24 -11 -44 -7 -42 -94 -177 -148 -231 -21 -21
-38 -40 -38 -43 0 -13 23 -1 76 41 l59 45 3 -102 c2 -62 -2 -114 -9 -131 -13
-31 -6 -58 14 -58 8 0 40 19 71 41 51 37 61 40 82 30 33 -15 44 -14 44 3 0 17
-47 56 -67 56 -8 0 -13 -8 -11 -17 3 -17 -21 -33 -69 -48 -22 -6 -23 -4 -23
49 l0 56 33 2 c17 1 44 1 58 0 23 -1 29 5 43 46 10 26 23 57 29 70 9 19 8 25
-3 32 -19 12 -74 12 -122 1 -20 -5 -39 -6 -42 -4 -9 9 14 43 29 43 35 0 115
23 109 31 -3 6 -13 8 -22 5 -10 -2 -32 -8 -50 -11 l-33 -7 21 42 21 41 33 -20
c18 -12 43 -21 55 -21 29 0 40 -33 35 -107 -3 -38 -1 -64 6 -68 6 -4 31 10 56
30 34 28 48 35 57 26 16 -16 27 -13 27 7 0 11 -11 24 -25 30 -34 16 -40 15
-25 -3 10 -12 8 -16 -15 -25 -42 -16 -45 -13 -45 48 l0 59 56 27 57 28 -23 21
-22 22 -16 -25 c-48 -72 -93 -94 -105 -50 -2 10 -21 23 -43 30 -21 7 -47 24
-57 37 -18 23 -42 30 -50 16z m83 -237 c0 -21 -5 -24 -47 -28 -58 -5 -63 -4
-56 21 5 20 24 27 76 30 22 1 27 -3 27 -23z m-8 -61 c-5 -26 -1 -24 -56 -31
-46 -7 -48 -6 -44 17 2 19 11 25 38 30 52 10 65 6 62 -16z"/>
  <path d="M667 491 c-87 -16 -106 -31 -40 -31 26 0 33 -4 33 -20 0 -27 -36
-101 -61 -129 -35 -37 -11 -37 27 0 39 37 84 117 84 149 0 17 6 20 39 20 l39
0 -5 -37 c-7 -59 -35 -98 -66 -96 -34 2 -34 -10 0 -36 23 -19 29 -20 47 -7 21
13 30 33 60 131 24 81 8 87 -157 56z"/>
  <path d="M610 265 c-69 -7 -135 -11 -147 -8 -16 4 -23 1 -23 -10 0 -9 4 -18 9
-21 4 -3 14 -40 21 -83 15 -91 18 -97 34 -84 15 13 209 18 213 5 9 -24 21 -34
35 -29 17 7 33 50 53 145 13 62 13 66 -7 83 -23 19 -17 19 -188 2z m141 -32
c2 -26 1 -33 -6 -85 l-6 -48 -55 0 c-51 0 -54 1 -54 25 0 28 25 45 69 45 17 0
31 5 31 10 0 6 -20 10 -45 10 -43 0 -45 1 -45 30 0 30 1 30 55 30 45 0 55 -3
56 -17z m-161 -25 c0 -32 -2 -33 -44 -36 -41 -2 -44 0 -49 25 -6 34 6 43 56
43 35 0 37 -2 37 -32z m2 -78 c6 -38 3 -40 -44 -40 -35 0 -38 2 -38 29 0 30 6
34 56 39 17 1 23 -5 26 -28z"/>
</g>
<g id="part-1" class="char-part">
  <path d="M282 535 c-16 -59 -70 -149 -132 -217 -28 -32 -48 -58 -43 -58 4 0
29 16 55 35 47 34 110 111 141 172 24 45 31 47 76 21 22 -12 43 -20 47 -16 14
15 -7 37 -44 48 -24 6 -42 17 -45 29 -2 10 -13 20 -24 23 -16 4 -22 -2 -31
-37z"/>
</g>
<g id="part-2" class="char-part">
  <path d="M350 171 c0 -16 51 -71 66 -71 15 0 19 28 6 46 -16 24 -72 44 -72 25z"/>
</g>
<g id="part-3" class="char-part">
  <path d="M530 530 c-7 -17 -22 -37 -33 -45 -41 -29 -9 -24 47 6 55 30 57 32
40 50 -24 27 -40 24 -54 -11z"/>
</g>
<g id="part-4" class="char-part">
  <path d="M657 431 c-2 -21 -21 -64 -41 -95 -20 -31 -32 -56 -28 -56 16 0 81
76 101 119 27 57 26 71 -3 71 -20 0 -24 -6 -29 -39z"/>
</g>
<g id="part-5" class="char-part">
  <path d="M720 270 l-35 -7 32 -2 c17 0 34 -5 37 -10 9 -15 10 -54 2 -80 -6
-16 -5 -21 3 -17 15 10 13 -5 -4 -28 -8 -11 -15 -25 -15 -30 0 -6 4 -5 9 2 6
11 10 10 15 -4 4 -10 4 -15 0 -11 -4 4 -13 -1 -21 -11 -8 -9 -11 -11 -7 -3 10
21 -17 32 -62 25 -48 -7 -54 -1 -47 44 4 24 11 32 27 33 17 1 17 2 4 6 -18 4
-23 19 -20 58 2 17 -4 21 -27 20 -20 0 -27 -3 -20 -11 5 -6 7 -26 5 -45 -2
-19 0 -42 5 -51 5 -10 5 -27 -1 -43 l-10 -27 61 4 c56 3 62 1 74 -22 7 -14 16
-25 20 -25 13 0 34 50 28 69 -3 11 -1 16 5 12 6 -4 8 2 5 14 -3 11 -2 28 2 37
5 10 9 23 10 29 2 6 6 20 9 31 5 15 0 25 -18 37 -14 9 -27 15 -28 15 -2 -1
-19 -5 -38 -9z m74 -35 c-4 -8 -10 -15 -15 -15 -4 0 -6 7 -3 15 4 8 10 15 15
15 4 0 6 -7 3 -15z m-177 -87 c-3 -8 -6 -5 -6 6 -1 11 2 17 5 13 3 -3 4 -12 1
-19z"/>
  <path d="M440 250 c0 -6 7 -13 15 -16 8 -4 12 -10 9 -15 -8 -14 6 -50 17 -43
6 3 9 18 7 32 -3 25 0 27 40 30 23 2 42 8 42 13 0 6 -8 8 -17 5 -30 -9 -88
-10 -101 -2 -7 4 -12 2 -12 -4z"/>
  <path d="M690 180 c-9 -6 -10 -10 -3 -10 6 0 15 5 18 10 8 12 4 12 -15 0z"/>
  <path d="M488 158 c-5 -41 -3 -76 4 -72 4 3 8 -2 8 -11 0 -13 4 -14 20 -5 11
6 24 9 28 6 4 -3 14 -1 21 3 7 5 0 8 -21 9 -38 1 -57 22 -50 57 2 14 2 25 -2
25 -3 0 -7 -6 -8 -12z"/>
  <path d="M543 163 c9 -2 23 -2 30 0 6 3 -1 5 -18 5 -16 0 -22 -2 -12 -5z"/>
</g>
</g>
</svg>