<?xml version="1.0" standalone="no"?>
<!DOCTYPE svg PUBLIC "-//W3C//DTD SVG 20010904//EN"
 "http://www.w3.org/TR/2001/REC-SVG-20010904/DTD/svg10.dtd">
<svg version="1.0" xmlns="http://www.w3.org/2000/svg"
 width="96.000000pt" height="68.000000pt" viewBox="0 0 96.000000 68.000000"
 preserveAspectRatio="xMidYMid meet">
<metadata>
Created by potrace 1.16, written by Peter Selinger 2001-2019
Combined from part_0.svg through part_5.svg with named groups
</metadata>
<g transform="translate(0.000000,68.000000) scale(0.100000,-0.100000)" fill="#000000" stroke="none">
<g id="part-0" class="char-part">
  <path d="M489 604 c12 -20 21 -38 19 -39 -2 -1 -59 -8 -128 -14 -69 -7 -127
-14 -129 -16 -2 -2 4 -12 14 -22 15 -14 17 -29 12 -88 -4 -38 -12 -86 -18
-105 -18 -50 -67 -129 -106 -171 -47 -49 -27 -57 32 -13 59 45 100 109 126
197 l21 67 39 2 c21 1 47 2 56 2 12 1 20 -11 26 -36 8 -33 12 -37 32 -32 17 4
24 0 28 -18 9 -33 -3 -39 -74 -39 l-64 0 0 -82 c0 -66 3 -82 15 -82 16 0 27
37 29 97 1 34 3 37 41 43 21 4 43 4 47 2 5 -3 10 -56 12 -119 1 -62 5 -115 7
-117 2 -3 10 1 16 7 7 7 13 58 16 127 l5 115 59 0 59 0 -3 -57 c-3 -57 -3 -58
-32 -56 l-29 2 28 -29 c16 -17 34 -30 41 -30 24 0 42 29 48 77 4 26 9 60 12
75 4 22 0 29 -26 43 -26 14 -40 14 -86 5 -31 -7 -57 -10 -59 -8 -2 1 -5 14 -7
28 -3 22 2 26 30 30 18 3 32 8 31 13 -1 4 1 21 5 37 l6 30 77 0 c87 0 113 9
89 29 -11 10 -35 11 -85 6 l-69 -7 -4 29 c-2 22 -9 29 -30 31 -25 3 -27 1 -21
-31 5 -33 4 -34 -33 -40 -73 -12 -92 -9 -96 16 -2 14 -11 23 -27 25 -18 3 -22
0 -17 -12 3 -9 9 -23 12 -31 4 -11 -1 -15 -17 -16 -13 0 -36 -3 -51 -5 -26 -4
-28 -2 -28 28 0 18 4 38 8 45 10 16 109 30 270 39 73 3 135 11 138 16 18 29
-68 42 -159 24 -25 -5 -37 -4 -33 2 11 18 -5 40 -36 51 -56 20 -62 15 -39 -25z
m99 -206 c-2 -17 -13 -25 -41 -31 -48 -12 -67 -4 -67 28 0 24 3 25 56 25 51 0
55 -2 52 -22z"/>
</g>
<g id="part-1" class="char-part">
  <path d="M480 634 c0 -4 9 -21 20 -39 l20 -32 -47 -6 c-27 -4 -85 -10 -130
-13 -46 -4 -83 -10 -83 -14 0 -4 7 -13 16 -21 29 -24 -4 -198 -55 -279 -8 -14
-33 -46 -54 -72 -51 -62 -33 -61 36 2 66 60 99 129 124 260 l19 95 55 7 c29 4
119 11 197 17 79 5 147 12 150 16 17 17 -30 26 -105 21 -79 -6 -83 -5 -83 14
0 14 -11 26 -35 36 -38 16 -45 17 -45 8z"/>
</g>
<g id="part-2" class="char-part">
  <path d="M597 487 c5 -34 5 -34 -42 -40 -75 -11 -83 -9 -87 16 -2 16 -11 23
-32 25 -28 3 -28 3 -12 -19 23 -33 20 -39 -16 -39 -43 0 -78 -10 -78 -22 0 -5
26 -8 57 -7 l58 3 8 -37 c7 -28 13 -36 26 -33 9 3 46 8 83 11 46 5 65 11 62
19 -3 7 0 25 5 39 10 26 13 27 88 27 89 0 119 11 83 30 -15 8 -43 10 -88 5
l-65 -7 7 25 c6 26 -7 37 -44 37 -16 0 -18 -6 -13 -33z m-7 -86 c0 -25 -7 -29
-58 -37 -33 -5 -43 -3 -48 10 -13 33 3 46 56 46 43 0 50 -3 50 -19z"/>
</g>
<g id="part-3" class="char-part">
  <path d="M516 183 c3 -87 10 -162 14 -167 15 -15 28 64 33 197 l5 127 -29 0
-29 0 6 -157z"/>
</g>
<g id="part-4" class="char-part">
  <path d="M669 305 c-7 -6 -184 -26 -245 -26 l-51 -1 1 -52 c0 -28 -3 -58 -7
-66 -4 -9 -1 -24 8 -35 13 -17 16 -18 25 -5 5 8 12 41 16 72 8 67 4 65 154 74
68 5 104 4 108 -3 4 -6 5 -34 3 -63 l-3 -52 -31 6 -31 6 29 -30 c50 -52 76
-37 89 50 4 25 9 57 12 73 5 24 1 29 -30 42 -39 17 -41 17 -47 10z"/>
</g>
</g>
</svg>