<?xml version="1.0" standalone="no"?>
<!DOCTYPE svg PUBLIC "-//W3C//DTD SVG 20010904//EN"
 "http://www.w3.org/TR/2001/REC-SVG-20010904/DTD/svg10.dtd">
<svg version="1.0" xmlns="http://www.w3.org/2000/svg"
 width="96.000000pt" height="68.000000pt" viewBox="0 0 96.000000 68.000000"
 preserveAspectRatio="xMidYMid meet">
<metadata>
Created by potrace 1.16, written by Peter Selinger 2001-2019
Combined from part_0.svg through part_5.svg with named groups
</metadata>
<g transform="translate(0.000000,68.000000) scale(0.100000,-0.100000)" fill="#000000" stroke="none">
<g id="part-0" class="char-part">
  <path d="M241 531 c-12 -27 -42 -68 -67 -91 -52 -48 -55 -75 -9 -75 17 1 40 4
53 9 34 12 26 -7 -25 -57 -66 -65 -50 -76 56 -41 62 20 85 24 94 15 17 -17 27
-13 27 9 0 11 -12 26 -30 35 -37 19 -46 19 -30 0 14 -16 -4 -26 -70 -39 -34
-7 -33 -5 48 74 83 80 94 102 56 117 -16 6 -36 -16 -40 -46 -2 -7 -6 -17 -11
-21 -12 -12 -93 -23 -93 -13 0 5 27 35 60 68 61 60 73 88 44 99 -31 12 -41 5
-63 -43z"/>
  <path d="M674 538 c3 -18 3 -54 0 -80 -6 -45 -7 -46 -45 -50 -43 -4 -49 5 -49
78 0 33 -4 43 -20 47 -28 7 -32 -4 -19 -63 14 -67 8 -80 -36 -80 l-37 0 3 42
c3 38 1 42 -24 51 -16 5 -30 7 -32 5 -2 -2 0 -23 6 -46 11 -53 7 -62 -32 -62
-18 0 -28 -4 -24 -10 3 -5 20 -10 37 -10 l30 0 -2 -107 c-2 -60 -2 -114 -1
-120 1 -17 43 -17 60 0 8 8 53 12 157 11 123 -1 144 1 140 13 -4 8 -6 17 -6
19 0 8 -88 4 -191 -8 -85 -9 -102 -9 -110 3 -5 8 -9 55 -9 105 l0 92 35 4 c20
2 38 2 40 -1 3 -2 5 -30 5 -62 0 -62 9 -76 37 -60 10 6 45 13 77 16 35 4 54
10 46 15 -9 5 -10 22 -5 59 l7 51 48 0 c49 0 73 13 44 24 -9 3 -31 6 -50 6
-38 0 -41 11 -25 82 7 30 5 40 -8 53 -10 8 -25 15 -35 15 -14 0 -16 -6 -12
-32z m-11 -195 c-7 -51 -16 -63 -49 -63 -19 0 -23 7 -26 46 -4 50 8 62 59 63
21 1 22 -2 16 -46z"/>
  <path d="M307 254 c-8 -8 34 -54 50 -54 24 0 14 29 -16 44 -16 9 -31 13 -34
10z"/>
  <path d="M227 224 c-11 -11 25 -54 44 -54 20 0 23 8 11 26 -10 16 -48 34 -55
28z"/>
  <path d="M130 189 c0 -23 35 -69 52 -69 24 0 23 31 -1 58 -19 23 -51 30 -51
11z"/>
</g>
<g id="part-1" class="char-part">
  <path d="M245 525 c-16 -33 -45 -70 -73 -94 -41 -36 -45 -42 -32 -55 13 -13
22 -13 73 1 67 19 74 30 15 25 l-43 -4 68 69 c37 38 67 74 67 80 0 11 -30 33
-44 33 -3 0 -17 -25 -31 -55z"/>
</g>
<g id="part-2" class="char-part">
  <path d="M306 248 c15 -27 38 -48 51 -48 21 0 15 27 -9 44 -27 19 -52 21 -42
4z"/>
  <path d="M220 220 c0 -17 49 -62 60 -55 17 10 11 33 -12 49 -26 18 -48 21 -48
6z"/>
  <path d="M140 160 c22 -44 60 -56 60 -20 0 26 -34 60 -60 60 l-20 0 20 -40z"/>
</g>
<g id="part-3" class="char-part">
  <path d="M416 455 c12 -68 12 -70 -31 -75 -30 -4 -35 -7 -22 -13 10 -4 30 -7
44 -7 l25 0 -3 -117 c-4 -117 -4 -118 19 -121 13 -2 30 2 39 10 12 9 54 13
156 13 101 0 141 3 144 12 8 22 -46 26 -172 13 -68 -6 -129 -9 -134 -5 -7 4
-11 47 -11 106 0 81 3 99 15 99 8 0 15 5 15 10 0 6 -7 10 -16 10 -14 0 -16 7
-11 41 5 36 3 41 -20 50 -40 15 -44 12 -37 -26z"/>
</g>
<g id="part-4" class="char-part">
  <path d="M675 496 c0 -41 -2 -76 -5 -79 -3 -2 -22 -7 -42 -10 l-37 -6 -6 64
c-6 52 -11 66 -27 71 -29 9 -31 1 -18 -61 13 -62 9 -85 -15 -85 -8 0 -15 -4
-15 -9 0 -5 9 -7 20 -4 18 5 20 0 20 -60 0 -66 10 -87 33 -69 7 6 38 13 69 17
43 5 55 11 51 21 -3 8 -2 34 1 59 l7 45 49 0 c49 0 73 13 44 24 -9 3 -31 6
-50 6 -38 0 -41 11 -24 85 8 33 6 42 -7 53 -39 28 -48 16 -48 -62z m-11 -153
c-7 -51 -16 -63 -51 -63 -18 0 -22 6 -25 51 -1 28 -2 52 -1 53 1 1 21 3 43 4
l41 3 -7 -48z"/>
</g>
</g>
</svg>