<?xml version="1.0" standalone="no"?>
<!DOCTYPE svg PUBLIC "-//W3C//DTD SVG 20010904//EN"
 "http://www.w3.org/TR/2001/REC-SVG-20010904/DTD/svg10.dtd">
<svg version="1.0" xmlns="http://www.w3.org/2000/svg"
 width="96.000000pt" height="68.000000pt" viewBox="0 0 96.000000 68.000000"
 preserveAspectRatio="xMidYMid meet">
<metadata>
Created by potrace 1.16, written by Peter Selinger 2001-2019
Combined from part_0.svg through part_5.svg with named groups
</metadata>
<g transform="translate(0.000000,68.000000) scale(0.100000,-0.100000)" fill="#000000" stroke="none">
<g id="part-0" class="char-part">
  <path d="M400 620 c0 -8 7 -22 17 -32 9 -10 13 -21 9 -25 -3 -4 -52 -8 -108
-9 l-102 -3 -23 -45 c-23 -45 -22 -76 2 -76 17 0 42 31 50 63 7 25 11 27 56
27 59 0 65 -17 18 -50 -46 -33 -26 -36 28 -5 49 29 65 44 58 56 -5 8 76 20 87
13 4 -3 8 -16 8 -29 0 -32 27 -45 89 -45 39 0 51 4 51 15 0 12 -13 15 -56 15
-52 0 -55 1 -52 23 3 19 11 23 66 30 35 5 66 6 69 3 4 -3 1 -17 -5 -31 -15
-32 -7 -35 56 -17 59 16 64 31 25 62 -26 20 -35 21 -123 15 -52 -3 -103 -9
-112 -11 -13 -4 -18 0 -18 14 0 25 -19 40 -58 48 -23 5 -32 3 -32 -6z"/>
  <path d="M411 439 l-55 -29 37 0 c35 0 37 -1 37 -35 0 -38 0 -38 -135 -50 -38
-3 -72 -8 -74 -11 -11 -10 25 -24 49 -19 14 3 48 8 75 11 46 6 49 5 34 -10 -8
-9 -49 -34 -90 -56 -101 -54 -64 -50 49 5 l92 44 0 -48 c0 -53 7 -66 27 -50 8
7 13 33 13 69 l0 57 53 7 c28 3 76 6 105 6 37 0 51 3 46 11 -5 8 -37 10 -104
6 l-98 -5 -4 40 c-3 35 -1 41 22 50 24 9 24 10 6 24 -24 17 -18 18 -85 -17z"/>
  <path d="M540 400 c-24 -34 -24 -34 19 -19 33 12 41 33 16 42 -9 4 -22 -5 -35
-23z"/>
  <path d="M306 383 c-8 -9 14 -33 30 -33 8 0 14 4 14 10 0 12 -35 31 -44 23z"/>
  <path d="M520 283 c8 -3 45 -24 82 -45 68 -40 103 -44 96 -11 -3 17 -132 63
-173 62 -14 0 -16 -2 -5 -6z"/>
  <path d="M430 163 c0 -15 40 -53 55 -53 18 0 20 24 3 38 -19 14 -58 25 -58 15z"/>
  <path d="M660 160 c0 -14 91 -91 100 -85 14 9 12 41 -3 53 -18 15 -97 41 -97
32z"/>
  <path d="M312 125 c24 -77 132 -131 249 -123 67 5 119 24 126 45 3 9 -85 63
-103 63 -2 0 -2 -12 -1 -27 2 -28 2 -28 -68 -31 -90 -4 -136 15 -171 68 -33
49 -46 51 -32 5z"/>
  <path d="M201 114 c-26 -44 -27 -74 -3 -74 22 0 42 39 42 80 0 40 -13 38 -39
-6z"/>
</g>
<g id="part-1" class="char-part">
  <path d="M400 621 c0 -3 9 -17 20 -31 11 -14 20 -28 20 -32 0 -4 -50 -7 -111
-7 l-111 1 -19 -42 c-22 -48 -24 -66 -9 -75 17 -10 39 14 51 54 7 24 17 37 28
37 9 -1 103 5 209 13 105 8 195 12 198 8 3 -3 0 -15 -6 -27 -16 -30 -9 -33 42
-19 59 17 62 22 34 48 -27 26 -66 28 -193 15 -59 -6 -63 -5 -63 14 0 12 -5 24
-11 28 -17 10 -79 23 -79 15z"/>
</g>
<g id="part-2" class="char-part">
  <path d="M497 508 c3 -18 8 -35 10 -38 2 -2 33 -6 68 -8 55 -4 65 -2 65 12 0
13 -11 16 -56 16 -55 0 -56 1 -50 25 6 22 3 25 -19 25 -22 0 -24 -3 -18 -32z"/>
  <path d="M350 510 c0 -11 -16 -30 -37 -46 -37 -26 -37 -26 -9 -19 30 6 85 40
98 59 10 15 -1 26 -28 26 -17 0 -24 -5 -24 -20z"/>
</g>
<g id="part-3" class="char-part">
  <path d="M411 439 l-53 -29 34 0 c37 0 96 17 113 32 6 6 5 12 -5 18 -21 14
-28 12 -89 -21z"/>
</g>
<g id="part-4" class="char-part">
  <path d="M435 408 c-2 -7 -5 -26 -7 -43 -3 -29 -4 -30 -63 -33 -33 -2 -82 -7
-110 -11 -49 -8 -49 -8 -22 -19 21 -9 42 -8 92 2 36 7 65 10 65 6 0 -10 -84
-64 -140 -89 -25 -11 -40 -21 -35 -21 27 0 96 26 148 56 32 19 60 34 63 34 2
0 4 -22 4 -49 0 -51 15 -75 31 -50 5 8 9 40 9 72 0 54 1 57 25 58 14 1 30 3
35 4 6 1 45 3 88 4 61 1 73 4 58 13 -13 7 -51 9 -112 4 l-93 -6 -3 37 c-3 36
-24 57 -33 31z"/>
  <path d="M500 297 c12 -13 171 -97 185 -97 8 0 15 8 15 19 0 20 -20 30 -112
56 -32 8 -65 18 -75 22 -10 3 -16 3 -13 0z"/>
</g>
<g id="part-5" class="char-part">
  <path d="M450 144 c8 -11 19 -22 25 -26 12 -9 27 1 19 13 -3 5 -10 7 -15 3 -5
-3 -8 0 -7 7 2 7 -6 15 -17 17 -18 4 -18 3 -5 -14z"/>
  <path d="M698 130 c18 -17 30 -30 25 -30 -4 0 0 -5 11 -11 14 -9 20 -8 27 2
11 19 -18 47 -61 59 l-34 10 32 -30z"/>
  <path d="M215 131 c-3 -6 -3 -11 1 -11 4 0 0 -8 -8 -17 -24 -29 -33 -47 -18
-38 10 6 12 4 7 -8 -11 -28 12 -19 27 11 14 28 16 55 4 67 -3 4 -9 2 -13 -4z"/>
  <path d="M324 115 c3 -19 57 -76 67 -70 4 3 9 1 11 -5 1 -5 40 -16 86 -24 76
-13 87 -13 134 3 60 20 69 33 33 49 -42 19 -68 16 -62 -8 3 -11 2 -18 -2 -15
-5 2 -30 1 -58 -4 -34 -5 -65 -3 -94 5 -24 7 -45 12 -47 10 -5 -6 -58 48 -55
56 2 4 -1 9 -6 12 -5 4 -8 -1 -7 -9z m263 -91 c-3 -3 -12 -4 -19 -1 -8 3 -5 6
6 6 11 1 17 -2 13 -5z"/>
</g>
</g>
</svg>