<?xml version="1.0" standalone="no"?>
<!DOCTYPE svg PUBLIC "-//W3C//DTD SVG 20010904//EN"
 "http://www.w3.org/TR/2001/REC-SVG-20010904/DTD/svg10.dtd">
<svg version="1.0" xmlns="http://www.w3.org/2000/svg"
 width="96.000000pt" height="68.000000pt" viewBox="0 0 96.000000 68.000000"
 preserveAspectRatio="xMidYMid meet">
<metadata>
Created by potrace 1.16, written by Peter Selinger 2001-2019
Combined from part_0.svg through part_5.svg with named groups
</metadata>
<g transform="translate(0.000000,68.000000) scale(0.100000,-0.100000)" fill="#000000" stroke="none">
<g id="part-0" class="char-part">
  <path d="M304 598 c4 -13 9 -37 13 -55 5 -30 3 -32 -28 -37 -19 -3 -47 -7 -63
-8 -16 -2 -31 -9 -34 -15 -3 -10 14 -13 63 -13 62 0 66 -1 63 -21 -2 -18 -18
-26 -82 -45 -44 -13 -91 -24 -104 -24 l-25 0 27 -25 c34 -32 41 -31 118 5 53
25 64 28 66 14 8 -34 -6 -47 -46 -39 l-37 7 25 -28 c14 -16 30 -34 37 -41 35
-38 73 4 73 80 0 56 1 58 35 74 53 25 46 44 -9 23 -22 -8 -26 -7 -26 10 0 14
10 21 41 27 53 11 54 27 2 31 l-43 3 0 44 c0 44 -10 55 -52 55 -16 0 -19 -4
-14 -22z"/>
  <path d="M634 572 c-25 -23 -90 -63 -95 -58 -2 2 -15 6 -29 9 -25 6 -25 5 -25
-56 0 -45 -6 -74 -22 -104 -13 -24 -18 -43 -13 -43 12 0 59 52 74 82 9 18 21
24 59 26 l47 3 0 -65 c0 -74 6 -97 25 -90 8 4 16 34 20 85 l7 79 67 0 c61 1
65 2 46 16 -14 11 -33 14 -65 10 -25 -3 -78 -8 -117 -12 l-73 -7 0 26 c0 22 7
27 58 43 31 10 73 24 92 32 33 13 33 15 15 28 -25 19 -47 18 -71 -4z"/>
  <path d="M437 293 c-4 -3 -2 -13 5 -20 23 -28 -22 -39 -127 -34 -48 3 -49 2
-34 -15 9 -11 22 -35 29 -54 18 -47 27 -57 42 -42 7 7 31 12 54 12 31 0 43 -4
46 -17 12 -52 -15 -63 -154 -63 -43 0 -78 -3 -78 -6 0 -4 10 -15 22 -26 25
-22 23 -22 193 12 193 38 191 38 231 -1 35 -34 60 -31 52 6 -4 24 -66 72 -103
81 -27 7 -29 6 -16 -10 18 -22 15 -23 -47 -32 l-52 -7 0 37 0 36 53 1 c28 1
58 1 65 0 6 -1 12 6 12 16 0 9 11 29 26 44 l25 26 -30 12 c-16 7 -55 11 -88 9
-34 -2 -58 1 -58 7 -1 29 -48 49 -68 28z m156 -72 c8 -33 -11 -51 -53 -51 -38
0 -40 2 -40 29 0 27 4 30 38 34 20 2 40 4 43 5 4 1 9 -6 12 -17z m-143 -26 l0
-35 -49 0 c-41 0 -51 3 -56 21 -4 11 -5 23 -2 25 3 4 66 18 100 23 4 1 7 -15
7 -34z"/>
</g>
<g id="part-1" class="char-part">
  <path d="M317 555 l6 -55 -44 -1 c-24 -1 -55 -4 -69 -9 l-25 -7 28 -8 c15 -4
46 -5 67 -1 39 6 40 5 40 -23 0 -23 -5 -30 -27 -35 -16 -4 -59 -16 -96 -27
-57 -17 -66 -23 -56 -35 17 -20 49 -17 113 11 31 14 59 25 62 25 3 0 4 -15 2
-32 -3 -29 -6 -33 -30 -31 -27 2 -27 1 -11 -23 44 -67 83 -45 83 47 0 58 1 60
35 76 40 19 48 37 9 23 -38 -15 -46 -12 -42 12 2 18 12 24 46 31 52 10 46 27
-10 27 l-40 0 7 36 c7 39 -3 54 -37 54 -14 0 -16 -8 -11 -55z"/>
</g>
<g id="part-2" class="char-part">
  <path d="M653 432 c-21 -3 -23 -9 -23 -70 0 -71 13 -108 29 -84 7 12 24 155
18 157 -1 0 -12 -1 -24 -3z"/>
</g>
<g id="part-3" class="char-part">
  <path d="M435 283 c3 -10 7 -22 8 -28 1 -6 -35 -11 -87 -13 -82 -3 -87 -4 -74
-20 8 -9 21 -33 28 -52 18 -47 27 -57 42 -42 7 7 31 12 55 12 41 0 43 -1 43
-30 0 -25 4 -30 24 -30 21 0 25 6 28 32 3 33 3 33 66 36 53 3 62 6 62 22 0 10
12 28 27 39 25 21 26 22 7 36 -16 12 -34 17 -64 17 -3 1 -24 -2 -47 -6 -39 -6
-43 -4 -49 19 -5 21 -12 25 -41 25 -29 0 -34 -3 -28 -17z m15 -94 c0 -28 -1
-29 -49 -29 -44 0 -49 2 -53 25 -5 22 -1 25 31 31 20 3 41 7 46 8 18 6 25 -5
25 -35z m142 16 c-5 -26 -4 -26 -51 -32 -41 -6 -41 -5 -41 26 0 32 0 32 48 29
41 -3 47 -6 44 -23z"/>
</g>
<g id="part-4" class="char-part">
  <path d="M465 74 c-55 -7 -133 -13 -173 -13 -79 -1 -90 -12 -40 -40 23 -13 34
-13 94 2 38 9 115 24 172 33 56 9 102 21 102 26 0 10 -31 9 -155 -8z"/>
</g>
<g id="part-5" class="char-part">
  <path d="M621 98 c6 -11 17 -17 24 -14 9 3 12 0 8 -10 -5 -14 12 -20 20 -6 2
4 2 1 0 -7 -4 -14 14 -41 28 -41 14 0 -1 54 -19 68 -9 7 -25 11 -35 8 -12 -3
-17 0 -14 8 3 7 -1 13 -8 13 -11 0 -11 -5 -4 -19z"/>
</g>
</g>
</svg>