<?xml version="1.0" standalone="no"?>
<!DOCTYPE svg PUBLIC "-//W3C//DTD SVG 20010904//EN"
 "http://www.w3.org/TR/2001/REC-SVG-20010904/DTD/svg10.dtd">
<svg version="1.0" xmlns="http://www.w3.org/2000/svg"
 width="96.000000pt" height="68.000000pt" viewBox="0 0 96.000000 68.000000"
 preserveAspectRatio="xMidYMid meet">
<metadata>
Created by potrace 1.16, written by Peter Selinger 2001-2019
Combined from part_0.svg through part_5.svg with named groups
</metadata>
<g transform="translate(0.000000,68.000000) scale(0.100000,-0.100000)" fill="#000000" stroke="none">
<g id="part-0" class="char-part">
  <path d="M620 564 c-36 -8 -102 -15 -147 -16 -80 -2 -98 -8 -69 -25 9 -5 23
-48 34 -103 20 -103 14 -97 84 -86 25 4 26 2 30 -40 l3 -44 -35 -1 c-19 0 -44
-4 -54 -8 -18 -7 -18 -8 5 -14 13 -4 38 -7 55 -7 30 0 31 -1 25 -38 -6 -36 -8
-37 -50 -39 -91 -4 -151 -10 -157 -16 -15 -14 69 -24 138 -16 40 4 135 8 210
9 136 0 169 8 126 31 -15 8 -52 10 -120 5 l-98 -6 0 39 c0 42 13 51 78 51 17
0 32 5 32 10 0 11 -18 14 -72 11 l-38 -3 0 41 c0 26 5 41 13 42 6 0 20 2 31 4
10 2 27 -1 36 -8 28 -17 45 4 69 91 12 42 26 85 31 94 14 26 13 28 -25 44 -41
17 -51 17 -135 -2z m88 -51 l-3 -38 -52 -2 -52 -2 6 29 c4 21 2 30 -8 31 -22
2 43 17 79 18 32 1 33 0 30 -36z m-164 1 c12 -31 6 -52 -16 -58 -49 -13 -64
-7 -75 28 -6 19 -8 37 -5 40 3 3 24 6 48 6 29 0 44 -5 48 -16z m150 -91 c-13
-60 -12 -59 -54 -55 -38 4 -40 6 -40 37 0 35 9 40 73 44 25 1 27 -1 21 -26z
m-144 -28 c0 -33 -2 -35 -34 -35 -26 0 -35 5 -40 23 -11 42 -7 47 34 47 39 0
40 -1 40 -35z"/>
  <path d="M305 525 c-5 -3 -45 -9 -88 -14 -108 -13 -119 -27 -30 -39 l48 -7 3
-51 3 -52 -46 -6 c-58 -9 -59 -26 -1 -26 l44 0 4 -51 c1 -28 1 -55 -2 -60 -3
-4 -30 -13 -60 -19 -84 -17 -86 -18 -64 -35 29 -22 55 -18 148 19 118 48 133
58 73 50 l-48 -6 3 57 c3 58 3 58 41 69 43 12 40 26 -5 26 -35 0 -41 14 -30
65 5 28 14 41 27 43 11 1 31 5 45 8 24 5 24 6 6 20 -19 13 -49 17 -71 9z"/>
</g>
<g id="part-1" class="char-part">
  <path d="M213 508 c-118 -14 -98 -32 26 -25 106 7 144 15 135 28 -6 11 -49 10
-161 -3z"/>
</g>
<g id="part-2" class="char-part">
  <path d="M238 421 l4 -58 -46 -7 c-59 -9 -60 -26 -1 -26 l45 0 0 -59 0 -59
-44 -11 c-25 -6 -56 -11 -70 -11 -31 0 -34 -15 -7 -30 33 -17 57 -12 174 36
115 47 141 61 97 51 -14 -3 -42 -9 -63 -13 l-38 -6 3 57 c3 58 3 58 41 69 43
12 40 26 -5 26 -27 0 -28 2 -28 50 0 50 0 50 -33 50 l-33 0 4 -59z"/>
</g>
<g id="part-3" class="char-part">
  <path d="M610 564 c-36 -7 -100 -14 -142 -15 -43 -1 -78 -4 -78 -7 0 -3 7 -13
15 -22 8 -9 23 -57 33 -106 16 -77 21 -89 38 -87 112 15 189 17 221 8 20 -6
24 0 51 87 17 51 33 101 37 110 5 12 -2 21 -24 32 -35 19 -62 19 -151 0z m95
-54 c0 -35 0 -35 -47 -38 -47 -3 -48 -3 -48 27 0 17 -6 32 -12 32 -19 3 64 17
87 15 16 -1 20 -8 20 -36z m-167 8 c7 -7 12 -22 12 -34 0 -31 -68 -45 -87 -18
-14 19 -17 47 -6 57 11 12 68 8 81 -5z m156 -95 c-11 -51 -13 -53 -54 -53 -39
0 -40 1 -40 34 0 37 8 41 73 45 25 1 27 -1 21 -26z m-144 -28 c0 -33 -2 -35
-34 -35 -26 0 -35 5 -40 23 -11 42 -7 47 34 47 39 0 40 -1 40 -35z"/>
</g>
<g id="part-4" class="char-part">
  <path d="M568 333 c-13 -3 -18 -15 -18 -42 l0 -38 -52 -7 c-44 -6 -50 -9 -35
-18 10 -5 34 -8 53 -6 l34 4 0 -43 0 -43 -72 -1 c-40 -1 -85 -1 -100 0 -39 2
-43 -15 -7 -28 20 -7 53 -7 102 -1 40 5 122 10 182 10 61 1 128 4 150 9 40 7
40 7 16 20 -19 10 -49 12 -123 7 l-98 -7 0 39 c0 43 12 52 78 52 17 0 32 4 32
9 0 13 -37 20 -76 14 l-34 -6 0 42 c0 22 -3 40 -7 40 -5 -1 -16 -3 -25 -6z"/>
</g>
</g>
</svg>