<?xml version="1.0" standalone="no"?>
<!DOCTYPE svg PUBLIC "-//W3C//DTD SVG 20010904//EN"
 "http://www.w3.org/TR/2001/REC-SVG-20010904/DTD/svg10.dtd">
<svg version="1.0" xmlns="http://www.w3.org/2000/svg"
 width="96.000000pt" height="68.000000pt" viewBox="0 0 96.000000 68.000000"
 preserveAspectRatio="xMidYMid meet">
<metadata>
Created by potrace 1.16, written by Peter Selinger 2001-2019
Combined from part_0.svg through part_5.svg with named groups
</metadata>
<g transform="translate(0.000000,68.000000) scale(0.100000,-0.100000)" fill="#000000" stroke="none">
<g id="part-0" class="char-part">
  <path d="M568 520 l4 -70 -31 0 c-24 0 -31 4 -31 20 0 15 7 20 25 20 14 0 25
3 25 8 0 4 -22 5 -50 4 -47 -4 -62 -13 -40 -27 24 -15 9 -35 -27 -35 -64 0
-32 -12 50 -19 4 -1 6 -4 6 -8 -6 -34 2 -42 36 -36 31 5 35 3 35 -16 0 -18 -6
-21 -47 -22 -27 -1 -53 -1 -60 0 -8 1 -7 -11 4 -39 14 -34 21 -41 42 -40 14 1
35 2 46 1 17 -1 17 -3 5 -11 -8 -5 -16 -14 -16 -20 -1 -5 -2 -14 -3 -20 0 -5
-20 -11 -43 -11 -24 -1 -56 -4 -73 -8 -28 -7 -29 -8 -8 -15 12 -4 39 -4 59 0
33 6 36 5 30 -13 -5 -16 1 -22 34 -32 22 -6 40 -15 40 -20 0 -9 -49 -31 -120
-55 -33 -11 -39 -15 -20 -15 34 -1 126 24 154 42 21 14 26 13 72 -13 90 -53
94 -54 105 -43 15 15 -28 58 -80 82 l-40 17 25 32 c24 31 28 32 97 32 57 0 68
2 58 13 -8 8 -47 12 -126 11 l-113 -1 2 26 c3 24 8 27 65 35 33 5 61 13 61 18
0 5 7 17 16 26 15 14 15 17 -2 30 -14 9 -34 12 -71 7 -50 -6 -53 -5 -53 16 0
19 4 21 38 15 35 -5 39 -3 49 23 9 25 17 29 67 35 63 8 66 26 4 26 -30 0 -39
3 -35 14 9 23 -15 36 -65 36 -46 0 -48 1 -48 29 0 26 -17 40 -50 41 -3 0 -4
-31 -2 -70z m102 -40 c0 -15 -7 -20 -29 -20 -24 0 -28 3 -24 20 3 13 14 20 29
20 17 0 24 -6 24 -20z m-2 -52 c-7 -20 -58 -23 -58 -4 0 11 10 16 31 16 20 0
29 -4 27 -12z m-98 -13 c0 -9 -9 -15 -25 -15 -16 0 -25 6 -25 15 0 9 9 15 25
15 16 0 25 -6 25 -15z m116 -86 c9 -15 -6 -28 -44 -35 -28 -6 -32 -4 -32 14 0
27 61 44 76 21z m-116 -24 c0 -22 -4 -25 -35 -25 -28 0 -35 4 -35 19 0 15 8
21 33 24 17 2 33 5 35 5 1 1 2 -9 2 -23z m65 -135 c0 -22 -30 -33 -69 -26 -30
6 -35 10 -26 21 6 8 26 16 43 18 43 5 52 3 52 -13z"/>
  <path d="M290 555 c-25 -8 -62 -11 -82 -9 -21 3 -38 4 -38 2 0 -1 7 -38 15
-81 8 -43 15 -83 15 -88 0 -5 -17 -9 -38 -9 -34 0 -39 -4 -50 -33 -17 -46 -15
-57 8 -57 14 0 21 9 26 35 6 32 9 35 53 41 25 3 80 12 123 18 l76 12 -9 -24
c-5 -13 -9 -25 -9 -26 0 -2 19 6 41 17 l42 21 -23 18 c-13 11 -32 17 -42 15
-22 -6 -22 -4 -2 73 9 35 12 66 7 71 -16 16 -67 17 -113 4z m56 -41 c-3 -9 -6
-19 -6 -24 0 -5 -17 -7 -38 -6 l-38 3 4 -54 c4 -43 2 -53 -11 -53 -11 0 -17
16 -22 61 -8 65 -4 75 35 82 58 10 82 8 76 -9z m-6 -73 c0 -41 -9 -61 -26 -54
-9 3 -14 20 -14 44 0 32 3 39 20 39 15 0 20 -7 20 -29z"/>
  <path d="M308 315 c-3 -4 -29 -8 -58 -10 l-52 -3 -3 -79 c-1 -43 -6 -101 -10
-129 -5 -33 -4 -54 3 -58 13 -8 32 24 32 56 0 38 15 50 70 56 l51 5 -3 -39
c-3 -34 -6 -39 -26 -37 -19 2 -21 0 -13 -15 6 -10 17 -25 26 -32 13 -11 19
-11 33 3 13 13 17 39 19 115 1 53 5 109 7 124 4 20 0 30 -14 38 -20 11 -53 13
-62 5z m32 -44 c0 -27 -3 -30 -51 -36 -27 -4 -53 -4 -56 -1 -14 14 17 55 44
59 61 9 63 8 63 -22z m0 -76 c0 -20 -5 -25 -24 -25 -13 0 -38 -3 -55 -6 -28
-6 -31 -4 -31 19 0 22 5 26 33 30 74 9 77 8 77 -18z"/>
</g>
<g id="part-1" class="char-part">
  <path d="M295 550 c-11 -5 -42 -9 -69 -9 -48 -1 -48 -1 -43 -30 3 -15 9 -51
13 -80 4 -33 11 -51 20 -51 11 0 14 17 14 69 l0 69 50 11 c76 16 74 19 66 -59
-5 -58 -4 -70 9 -70 8 0 19 17 25 43 6 23 15 54 20 68 5 17 4 31 -3 38 -13 13
-73 13 -102 1z"/>
</g>
<g id="part-2" class="char-part">
  <path d="M275 308 c-22 -5 -50 -7 -62 -5 -21 4 -22 1 -17 -34 4 -20 1 -76 -6
-123 -7 -47 -9 -94 -5 -104 6 -16 7 -16 21 2 8 11 14 31 14 45 0 41 13 51 69
58 l52 6 -3 -39 c-3 -34 -6 -39 -26 -37 -24 3 -23 -6 6 -39 22 -26 31 -22 47
15 14 35 23 235 11 255 -8 14 -44 14 -101 0z m60 -38 c0 -22 -6 -26 -47 -34
-27 -5 -51 -6 -55 -3 -14 14 16 56 44 60 48 7 58 3 58 -23z m5 -75 c0 -22 -5
-25 -32 -25 -18 0 -43 -3 -55 -6 -20 -5 -23 -2 -23 19 0 27 -1 26 93 35 12 2
17 -5 17 -23z"/>
</g>
<g id="part-3" class="char-part">
  <path d="M564 574 c3 -9 6 -27 6 -40 0 -19 5 -24 25 -24 22 0 25 4 25 34 0 34
-13 46 -47 46 -10 0 -13 -6 -9 -16z"/>
</g>
<g id="part-4" class="char-part">
  <path d="M595 509 c-22 -4 -64 -8 -94 -8 -52 -1 -53 -2 -38 -19 26 -29 20 -40
-20 -44 l-38 -4 41 -8 c29 -6 45 -15 52 -30 10 -22 14 -22 78 -14 38 4 77 5
86 2 12 -3 22 4 33 25 8 17 22 32 30 32 8 1 20 3 25 4 6 1 24 3 41 4 45 2 25
21 -23 21 -31 0 -39 3 -34 15 12 31 -52 43 -139 24z m75 -29 c0 -16 -7 -20
-30 -20 -32 0 -33 1 -24 24 9 24 54 21 54 -4z m-100 -10 c0 -16 -7 -20 -30
-20 -23 0 -30 4 -30 20 0 16 7 20 30 20 23 0 30 -4 30 -20z m98 -42 c-7 -20
-58 -23 -58 -4 0 11 10 16 31 16 20 0 29 -4 27 -12z m-98 -13 c0 -9 -9 -15
-25 -15 -16 0 -25 6 -25 15 0 9 9 15 25 15 16 0 25 -6 25 -15z"/>
</g>
<g id="part-5" class="char-part">
  <path d="M550 231 c0 -14 5 -18 20 -14 24 6 26 19 4 27 -23 9 -24 8 -24 -13z"/>
  <path d="M512 198 c-18 -5 -32 -11 -32 -14 0 -3 9 -2 20 1 14 5 20 2 20 -9 0
-9 -5 -16 -11 -16 -5 0 -7 -4 -4 -10 3 -5 11 -10 16 -10 6 0 8 3 5 8 -11 18
22 40 64 43 44 3 45 3 46 -26 0 -17 -4 -33 -10 -37 -6 -4 -5 -12 3 -22 15 -18
35 -11 27 10 -6 15 24 74 37 74 5 0 5 5 2 10 -9 14 -45 12 -45 -2 0 -8 -3 -9
-8 -3 -9 12 -87 14 -130 3z"/>
  <path d="M735 200 c3 -5 21 -10 38 -10 24 0 28 3 17 10 -20 13 -63 13 -55 0z"/>
  <path d="M810 199 c0 -5 5 -7 10 -4 6 3 10 8 10 11 0 2 -4 4 -10 4 -5 0 -10
-5 -10 -11z"/>
  <path d="M589 133 c-1 -5 -1 -12 0 -16 2 -13 -26 -37 -43 -37 -8 0 -18 -4 -21
-10 -8 -13 -5 -12 34 1 17 6 31 15 31 20 0 5 8 9 18 10 11 0 12 2 4 6 -10 4
-10 8 -1 19 9 11 8 14 -5 14 -9 0 -17 -3 -17 -7z"/>
  <path d="M665 100 c-9 -15 5 -32 21 -26 8 3 13 0 11 -7 -2 -10 63 -51 70 -43
9 9 -13 37 -48 60 -44 29 -45 30 -54 16z"/>
</g>
</g>
</svg>