<?xml version="1.0" standalone="no"?>
<!DOCTYPE svg PUBLIC "-//W3C//DTD SVG 20010904//EN"
 "http://www.w3.org/TR/2001/REC-SVG-20010904/DTD/svg10.dtd">
<svg version="1.0" xmlns="http://www.w3.org/2000/svg"
 width="96.000000pt" height="68.000000pt" viewBox="0 0 96.000000 68.000000"
 preserveAspectRatio="xMidYMid meet">
<metadata>
Created by potrace 1.16, written by Peter Selinger 2001-2019
Combined from part_0.svg through part_5.svg with named groups
</metadata>
<g transform="translate(0.000000,68.000000) scale(0.100000,-0.100000)" fill="#000000" stroke="none">
<g id="part-0" class="char-part">
  <path d="M276 567 l6 -45 -66 -7 c-36 -4 -66 -11 -66 -16 0 -4 28 -9 62 -11
38 -2 63 -8 66 -15 4 -13 -3 -17 -50 -27 -16 -4 -28 -11 -28 -17 0 -8 17 -9
53 -5 28 4 76 9 105 13 72 8 65 33 -10 33 -43 0 -30 23 18 32 67 14 72 17 49
34 -13 10 -31 13 -52 9 -30 -5 -32 -4 -35 27 -2 28 -8 34 -30 36 -27 3 -28 3
-22 -41z"/>
  <path d="M565 579 c-16 -5 -50 -10 -74 -10 -23 -1 -39 -4 -33 -8 13 -8 7 -88
-8 -107 -10 -11 -9 -14 4 -14 20 0 44 36 49 73 4 33 21 47 59 47 23 0 27 -5
33 -40 8 -49 29 -62 92 -58 69 5 69 28 -1 28 -30 0 -58 5 -61 10 -4 6 0 24 9
41 14 29 14 30 -10 39 -14 6 -26 10 -27 9 -1 0 -15 -5 -32 -10z"/>
  <path d="M538 431 c-43 -8 -78 -19 -78 -23 0 -5 6 -8 13 -8 20 -1 71 -50 61
-60 -5 -5 -31 -18 -59 -29 -57 -23 -31 -28 30 -6 55 20 59 20 118 -20 44 -30
60 -35 107 -35 64 0 102 9 94 21 -3 5 -16 9 -29 9 -34 0 -183 48 -191 62 -4 6
9 26 30 46 58 53 24 68 -96 43z m66 -20 c3 -4 -3 -16 -14 -26 -17 -15 -24 -16
-45 -7 -44 20 -33 31 42 41 6 0 14 -3 17 -8z"/>
  <path d="M295 409 c-22 -4 -59 -8 -82 -8 l-42 -1 6 -35 c7 -44 -12 -115 -43
-156 -13 -18 -22 -35 -19 -38 10 -10 65 53 82 95 17 41 19 42 73 48 108 12
131 18 127 29 -3 7 5 22 17 35 17 20 18 24 6 32 -18 11 -69 11 -125 -1z m75
-28 c0 -24 -25 -45 -45 -37 -15 5 -21 37 -8 49 3 4 17 7 30 7 16 0 23 -6 23
-19z m-90 -21 c0 -27 -3 -30 -30 -30 -16 0 -30 5 -30 11 0 23 22 49 40 49 16
0 20 -7 20 -30z"/>
  <path d="M293 239 c-33 -52 -31 -61 9 -30 38 30 117 17 118 -21 0 -6 -46 -13
-167 -24 -40 -3 -73 -10 -73 -14 0 -16 39 -21 77 -11 21 5 66 12 100 16 l62 7
6 -35 c4 -20 4 -40 1 -46 -7 -11 -114 -26 -123 -17 -3 3 0 12 7 21 10 12 10
18 0 30 -20 24 -43 19 -37 -7 4 -13 0 -29 -10 -40 -8 -9 -13 -25 -9 -34 7 -18
22 -17 131 9 33 8 91 17 128 21 l68 8 -5 -26 c-3 -14 0 -29 6 -32 24 -15 63
102 42 123 -23 23 -44 15 -44 -16 0 -27 -3 -29 -51 -35 -29 -4 -56 -3 -60 1
-5 5 -6 25 -2 46 l6 37 120 0 c107 0 118 2 106 16 -11 13 -29 14 -119 9 -103
-7 -107 -7 -112 13 -5 17 0 22 26 27 65 13 71 16 52 27 -11 6 -43 4 -96 -7
-82 -17 -110 -14 -91 9 6 7 8 16 4 19 -16 17 -41 2 -70 -44z"/>
</g>
<g id="part-1" class="char-part">
  <path d="M280 566 c0 -48 -9 -56 -63 -56 -18 0 -39 -5 -47 -10 -11 -7 3 -10
48 -10 55 0 62 -2 62 -20 0 -15 -9 -21 -41 -26 -31 -5 -37 -9 -25 -16 14 -8
41 -5 165 19 20 3 22 6 10 14 -7 5 -26 6 -41 3 -23 -5 -28 -2 -28 14 0 16 11
23 50 32 65 16 66 35 1 26 -48 -6 -48 -6 -43 20 3 19 -1 31 -13 41 -30 21 -35
16 -35 -31z"/>
</g>
<g id="part-2" class="char-part">
  <path d="M598 445 c-3 -4 -38 -12 -78 -19 l-71 -12 47 -33 c54 -38 51 -45 -28
-71 -66 -23 -35 -26 43 -4 l57 16 53 -36 c48 -32 61 -36 114 -35 33 1 71 4 85
8 21 6 13 10 -45 23 -38 9 -97 26 -129 39 l-60 22 43 40 c24 21 39 43 34 47
-12 12 -57 22 -65 15z m3 -43 c-19 -36 -34 -42 -60 -21 -24 19 -22 22 24 32
41 9 46 8 36 -11z"/>
</g>
<g id="part-3" class="char-part">
  <path d="M293 239 c-34 -53 -31 -61 11 -28 17 14 33 18 47 14 23 -8 174 12
199 26 33 17 -19 20 -100 5 -101 -20 -106 -20 -90 -1 6 8 9 19 5 25 -14 22
-41 7 -72 -41z"/>
</g>
<g id="part-4" class="char-part">
  <path d="M416 206 c6 -27 18 -24 -176 -44 -69 -7 -73 -9 -52 -21 18 -9 35 -10
70 -2 26 5 73 13 105 16 48 5 57 4 57 -9 0 -10 9 -16 25 -16 18 0 25 5 25 20
0 19 7 20 120 20 66 0 120 4 120 9 0 16 -49 21 -144 15 -89 -6 -93 -6 -99 15
-3 15 -13 21 -31 21 -23 0 -26 -3 -20 -24z"/>
</g>
<g id="part-5" class="char-part">
  <path d="M589 133 c0 -5 -2 -20 -4 -36 -3 -19 0 -25 8 -20 9 5 9 3 1 -8 -14
-18 -14 -51 0 -46 6 2 12 9 12 15 1 7 3 14 4 17 1 3 3 8 5 13 1 4 5 15 9 25
11 22 1 47 -19 47 -8 0 -15 -3 -16 -7z"/>
  <path d="M443 124 c-6 -3 -10 -16 -7 -29 3 -20 -1 -24 -23 -28 -24 -3 -23 -4
8 -6 41 -1 53 7 38 25 -6 8 -9 21 -5 29 3 8 4 15 3 14 -1 0 -7 -3 -14 -5z"/>
  <path d="M279 111 c7 -5 11 -13 7 -19 -3 -6 -2 -13 4 -17 5 -3 10 -2 10 4 0 5
2 16 5 23 4 9 -2 14 -17 15 -16 2 -19 0 -9 -6z"/>
  <path d="M486 71 c-3 -4 6 -6 19 -3 14 2 25 6 25 8 0 8 -39 4 -44 -5z"/>
  <path d="M260 55 c-7 -9 -6 -16 5 -25 12 -10 21 -10 45 2 l30 15 -35 10 c-26
8 -37 8 -45 -2z m30 -15 c0 -5 -5 -10 -11 -10 -5 0 -7 5 -4 10 3 6 8 10 11 10
2 0 4 -4 4 -10z"/>
  <path d="M355 50 c-3 -5 -2 -10 4 -10 5 0 13 5 16 10 3 6 2 10 -4 10 -5 0 -13
-4 -16 -10z"/>
</g>
</g>
</svg>