<?xml version="1.0" standalone="no"?>
<!DOCTYPE svg PUBLIC "-//W3C//DTD SVG 20010904//EN"
 "http://www.w3.org/TR/2001/REC-SVG-20010904/DTD/svg10.dtd">
<svg version="1.0" xmlns="http://www.w3.org/2000/svg"
 width="96.000000pt" height="68.000000pt" viewBox="0 0 96.000000 68.000000"
 preserveAspectRatio="xMidYMid meet">
<metadata>
Created by potrace 1.16, written by Peter Selinger 2001-2019
Combined from part_0.svg through part_5.svg with named groups
</metadata>
<g transform="translate(0.000000,68.000000) scale(0.100000,-0.100000)" fill="#000000" stroke="none">
<g id="part-0" class="char-part">
  <path d="M280 534 c-19 -7 -65 -13 -102 -13 l-68 -1 11 -27 c18 -47 23 -196
10 -279 -14 -81 -6 -109 23 -89 8 6 46 32 86 59 l71 48 29 -27 c25 -24 30 -26
36 -12 9 25 -2 45 -38 67 -37 23 -70 28 -50 8 7 -7 12 -16 12 -20 0 -8 -105
-58 -122 -58 -5 0 -8 29 -7 64 l2 64 58 7 c32 4 67 4 77 0 26 -7 28 -3 58 102
24 83 25 87 7 97 -34 20 -58 23 -93 10z m28 -49 c2 -17 -6 -23 -43 -33 -62
-16 -75 -15 -75 7 0 23 11 31 54 42 45 10 61 6 64 -16z m-8 -95 c0 -28 -3 -30
-37 -30 -21 0 -47 -3 -59 -6 -18 -5 -20 -2 -16 25 4 31 3 31 95 39 13 2 17 -5
17 -28z"/>
  <path d="M525 530 c-55 -10 -94 -18 -87 -19 17 -1 15 -57 -5 -114 -22 -61 -12
-73 46 -56 23 7 44 9 48 6 9 -10 -24 -89 -49 -117 -30 -34 -98 -86 -131 -101
-40 -18 -33 -29 11 -17 53 14 136 80 177 141 19 28 35 50 36 47 0 -3 1 -41 2
-86 2 -89 9 -103 64 -129 51 -24 157 -13 178 19 13 19 13 26 -3 59 -20 43 -42
48 -42 11 0 -36 -26 -53 -77 -54 -31 0 -49 6 -64 21 -22 22 -22 40 -4 126 7
29 4 34 -21 45 -39 16 -38 16 -24 33 9 11 33 15 92 15 59 0 79 3 75 13 -3 8
-26 12 -76 11 -79 -2 -82 2 -60 65 10 28 9 34 -7 46 -17 12 -14 14 34 21 28 3
52 10 52 15 0 5 -6 9 -12 9 -7 0 -22 2 -33 4 -11 2 -65 -4 -120 -14z m27 -57
c2 -16 1 -44 0 -64 -4 -33 -7 -37 -40 -43 -20 -3 -37 -4 -39 -2 -2 2 5 33 14
69 15 57 21 67 40 67 16 0 22 -7 25 -27z"/>
</g>
<g id="part-1" class="char-part">
  <path d="M245 524 c-29 -8 -66 -12 -89 -8 -35 6 -38 4 -31 -12 4 -11 10 -54
13 -97 l5 -78 96 3 96 3 24 88 c24 86 24 88 5 102 -23 17 -53 17 -119 -1z m65
-43 c0 -26 -4 -29 -43 -34 -24 -3 -51 -9 -60 -13 -14 -5 -17 0 -17 29 0 38 7
42 88 46 29 1 32 -2 32 -28z m-5 -88 c-4 -16 -7 -29 -8 -30 -1 0 -28 -4 -59
-8 l-58 -7 0 30 c0 35 9 39 84 41 48 1 48 1 41 -26z"/>
</g>
<g id="part-2" class="char-part">
  <path d="M289 263 c22 -40 72 -86 83 -75 17 17 5 45 -31 69 -42 28 -66 31 -52
6z"/>
</g>
<g id="part-3" class="char-part">
  <path d="M619 546 c-3 -3 -46 -10 -97 -17 -100 -13 -114 -29 -25 -29 51 0 182
18 193 27 2 2 -2 8 -10 13 -16 10 -53 13 -61 6z"/>
</g>
<g id="part-4" class="char-part">
  <path d="M450 468 c0 -18 -9 -52 -19 -75 -25 -54 -12 -70 46 -53 21 6 91 13
156 17 112 6 138 13 100 27 -20 8 -121 0 -201 -16 -30 -5 -56 -8 -58 -5 -3 3
2 31 11 62 14 48 15 59 4 66 -27 17 -39 9 -39 -23z"/>
</g>
<g id="part-5" class="char-part">
  <path d="M593 298 c13 -10 14 -17 6 -28 -9 -13 -10 -12 -5 3 3 9 1 17 -3 17
-12 0 -19 -100 -8 -107 5 -3 7 -13 4 -23 -6 -23 19 -60 39 -60 8 0 14 -5 14
-11 0 -13 132 -4 161 11 23 13 23 9 4 54 -15 35 -29 49 -23 23 2 -7 -6 -24
-17 -37 -19 -24 -38 -28 -106 -22 -30 3 -58 37 -52 62 4 15 2 21 -5 16 -12 -7
-2 37 17 72 9 18 8 23 -8 32 -27 14 -38 13 -18 -2z m32 -186 c-3 -3 -11 0 -18
7 -9 10 -8 11 6 5 10 -3 15 -9 12 -12z"/>
</g>
</g>
</svg>