<?xml version="1.0" standalone="no"?>
<!DOCTYPE svg PUBLIC "-//W3C//DTD SVG 20010904//EN"
 "http://www.w3.org/TR/2001/REC-SVG-20010904/DTD/svg10.dtd">
<svg version="1.0" xmlns="http://www.w3.org/2000/svg"
 width="96.000000pt" height="68.000000pt" viewBox="0 0 96.000000 68.000000"
 preserveAspectRatio="xMidYMid meet">
<metadata>
Created by potrace 1.16, written by Peter Selinger 2001-2019
Combined from part_0.svg through part_5.svg with named groups
</metadata>
<g transform="translate(0.000000,68.000000) scale(0.100000,-0.100000)" fill="#000000" stroke="none">
<g id="part-0" class="char-part">
  <path d="M450 599 c-69 -35 -80 -37 -134 -32 -56 6 -59 5 -51 -13 4 -10 18
-66 31 -124 13 -58 26 -114 28 -125 5 -19 -1 -20 -102 -23 -59 -2 -109 -6
-111 -8 -2 -2 9 -9 23 -16 22 -9 55 -9 169 5 88 11 215 17 335 17 161 0 192 2
192 15 0 22 -63 29 -163 19 -49 -5 -90 -7 -92 -3 -3 3 4 28 15 56 20 52 14 72
-19 74 -36 1 27 18 71 18 48 1 70 14 42 25 -27 10 -85 5 -209 -18 l-120 -22
-6 35 c-4 20 -5 39 -3 42 2 3 67 19 144 34 83 16 140 32 140 39 0 17 -54 46
-82 44 -12 0 -57 -18 -98 -39z m84 -165 c10 -27 6 -110 -6 -122 -7 -7 -40 -12
-79 -12 -75 0 -73 -3 -85 83 l-6 47 43 1 c24 1 58 5 74 9 46 12 52 11 59 -6z"/>
  <path d="M350 222 c0 -17 -75 -84 -123 -110 -27 -14 -45 -28 -39 -30 10 -3
174 76 220 106 23 15 23 16 6 29 -20 14 -64 18 -64 5z"/>
  <path d="M586 168 c101 -94 134 -108 134 -59 0 36 -31 62 -106 91 -85 31 -91
25 -28 -32z"/>
</g>
<g id="part-1" class="char-part">
  <path d="M500 615 c-93 -50 -144 -65 -184 -53 -20 6 -38 9 -41 6 -3 -3 1 -32
9 -64 8 -32 22 -94 31 -136 14 -64 20 -78 36 -78 23 0 23 6 3 132 -9 55 -14
102 -11 104 2 2 65 17 140 32 76 15 137 32 137 37 0 11 -52 45 -67 45 -4 -1
-28 -12 -53 -25z"/>
</g>
<g id="part-2" class="char-part">
  <path d="M495 470 c-49 -10 -102 -19 -117 -19 -16 -1 -28 -5 -28 -11 0 -13 72
-12 129 1 52 12 61 4 61 -56 0 -83 3 -81 -133 -90 -294 -18 -305 -19 -274 -35
24 -11 43 -12 130 0 56 7 208 16 337 19 233 6 272 13 198 37 -23 7 -60 8 -125
1 -51 -6 -95 -8 -98 -6 -2 3 5 29 16 59 21 55 17 68 -21 71 -28 2 35 17 77 18
44 1 64 15 37 25 -27 10 -95 5 -189 -14z"/>
</g>
<g id="part-3" class="char-part">
  <path d="M320 188 c-19 -22 -59 -54 -89 -71 -30 -17 -49 -33 -43 -35 15 -5 84
27 173 78 67 39 71 44 54 56 -31 23 -58 15 -95 -28z"/>
  <path d="M586 168 c69 -64 110 -92 124 -83 16 10 12 50 -8 68 -25 23 -123 67
-150 67 -20 0 -16 -7 34 -52z"/>
</g>
</g>
</svg>