<?xml version="1.0" standalone="no"?>
<!DOCTYPE svg PUBLIC "-//W3C//DTD SVG 20010904//EN"
 "http://www.w3.org/TR/2001/REC-SVG-20010904/DTD/svg10.dtd">
<svg version="1.0" xmlns="http://www.w3.org/2000/svg"
 width="96.000000pt" height="68.000000pt" viewBox="0 0 96.000000 68.000000"
 preserveAspectRatio="xMidYMid meet">
<metadata>
Created by potrace 1.16, written by Peter Selinger 2001-2019
Combined from part_0.svg through part_5.svg with named groups
</metadata>
<g transform="translate(0.000000,68.000000) scale(0.100000,-0.100000)" fill="#000000" stroke="none">
<g id="part-0" class="char-part">
  <path d="M314 613 c-15 -50 -46 -94 -114 -161 -79 -78 -71 -91 19 -29 l44 30
-6 -89 c-7 -93 0 -121 28 -111 14 6 16 23 14 119 l-1 112 41 53 c47 60 49 68
22 83 -28 14 -41 12 -47 -7z"/>
  <path d="M577 570 c-15 -5 -58 -12 -95 -15 -37 -4 -71 -10 -76 -12 -16 -10 19
-23 62 -23 l42 0 0 -39 0 -39 -67 -7 c-86 -8 -105 -14 -78 -25 11 -4 31 -6 45
-4 14 2 42 5 63 8 l37 4 0 -49 0 -48 -60 -7 c-33 -4 -60 -11 -60 -17 0 -6 21
-7 58 -3 31 3 105 9 165 13 98 5 105 7 86 21 -16 11 -35 13 -80 8 l-59 -7 0
44 c0 53 6 57 93 58 34 1 75 4 91 8 26 5 28 7 12 20 -16 13 -56 12 -154 -6
l-33 -5 3 43 3 44 48 3 c50 3 60 15 28 32 -23 12 -35 12 -74 0z"/>
  <path d="M690 251 c0 -12 95 -101 108 -101 26 0 12 49 -20 73 -32 23 -88 41
-88 28z"/>
  <path d="M440 234 c0 -15 61 -64 80 -64 35 0 25 39 -15 56 -36 15 -65 18 -65
8z"/>
  <path d="M310 226 c0 -4 11 -28 25 -55 47 -95 110 -124 260 -125 92 0 156 19
155 47 -1 6 -28 29 -61 49 l-59 37 6 -39 c6 -36 4 -39 -21 -46 -14 -4 -58 -4
-96 -2 -83 6 -137 37 -165 94 -17 33 -44 58 -44 40z"/>
  <path d="M207 172 c-27 -49 -27 -92 -1 -92 23 0 44 43 44 92 0 27 -4 48 -8 48
-5 0 -21 -22 -35 -48z"/>
</g>
<g id="part-1" class="char-part">
  <path d="M310 588 c-8 -28 -36 -65 -90 -119 -74 -76 -76 -98 -3 -43 17 13 35
24 39 24 4 0 4 -38 1 -84 -4 -64 -3 -88 8 -102 13 -17 16 -17 25 -4 12 19 13
193 0 206 -6 6 9 30 41 67 53 60 55 78 10 90 -15 3 -21 -4 -31 -35z"/>
</g>
<g id="part-2" class="char-part">
  <path d="M510 486 l0 -44 -57 -6 c-32 -4 -71 -9 -88 -13 l-30 -6 25 -9 c23 -9
89 -4 133 8 15 5 17 -2 17 -45 l0 -49 -66 -7 c-39 -5 -62 -11 -56 -17 10 -10
322 12 322 23 0 13 -61 21 -106 14 l-45 -6 3 48 3 48 99 7 c54 4 101 10 104
13 23 23 -94 29 -175 8 -21 -5 -23 -2 -23 36 0 39 -2 41 -30 41 -29 0 -30 -2
-30 -44z"/>
</g>
<g id="part-3" class="char-part">
  <path d="M730 206 c59 -61 80 -69 80 -32 0 24 -50 76 -73 76 -7 0 -23 3 -37 6
-21 6 -16 -3 30 -50z"/>
  <path d="M462 205 c43 -40 78 -46 78 -14 0 22 -51 49 -92 49 -21 -1 -20 -3 14
-35z"/>
  <path d="M310 226 c0 -4 11 -28 25 -55 47 -94 109 -125 250 -125 100 -1 165
16 165 42 0 10 -26 33 -60 54 -62 38 -67 38 -50 -6 13 -35 -10 -46 -95 -46
-88 0 -154 32 -187 91 -20 37 -48 63 -48 45z"/>
  <path d="M205 175 c-18 -32 -25 -54 -21 -71 14 -53 65 -8 68 60 2 59 -16 64
-47 11z"/>
</g>
</g>
</svg>