<?xml version="1.0" standalone="no"?>
<!DOCTYPE svg PUBLIC "-//W3C//DTD SVG 20010904//EN"
 "http://www.w3.org/TR/2001/REC-SVG-20010904/DTD/svg10.dtd">
<svg version="1.0" xmlns="http://www.w3.org/2000/svg"
 width="96.000000pt" height="68.000000pt" viewBox="0 0 96.000000 68.000000"
 preserveAspectRatio="xMidYMid meet">
<metadata>
Created by potrace 1.16, written by Peter Selinger 2001-2019
Combined from part_0.svg through part_5.svg with named groups
</metadata>
<g transform="translate(0.000000,68.000000) scale(0.100000,-0.100000)" fill="#000000" stroke="none">
<g id="part-0" class="char-part">
  <path d="M460 586 c0 -7 9 -25 20 -38 l20 -26 -38 -5 c-20 -4 -71 -9 -112 -13
-100 -8 -111 -11 -85 -30 17 -13 20 -25 18 -87 -3 -96 -32 -187 -88 -272 -26
-38 -49 -73 -51 -77 -3 -5 -1 -8 5 -8 19 0 108 94 129 135 26 53 48 131 63
226 l11 77 52 6 c65 8 291 25 334 26 42 0 43 26 1 35 -17 4 -64 4 -104 0 -69
-6 -74 -5 -80 15 -4 12 -22 28 -41 36 -42 18 -54 18 -54 0z"/>
  <path d="M623 453 l-41 -4 4 -57 c3 -31 7 -73 9 -92 3 -22 -1 -40 -12 -52 -9
-10 -13 -21 -10 -24 10 -10 77 45 77 63 0 12 8 14 39 9 l38 -6 6 78 c2 42 3
80 0 85 -4 7 -30 7 -110 0z m65 -28 c1 -5 -8 -12 -20 -13 -41 -6 -44 -22 -5
-22 41 0 50 -14 15 -24 -50 -13 -58 -8 -58 33 0 37 1 38 33 37 17 -1 33 -5 35
-11z m12 -90 c0 -11 -11 -15 -40 -15 -62 0 -50 27 13 29 18 1 27 -4 27 -14z"/>
  <path d="M428 443 c-45 -4 -47 -5 -43 -31 16 -102 14 -149 -5 -170 -11 -12
-20 -24 -20 -27 0 -15 23 -1 65 41 43 41 50 44 75 36 l28 -10 4 76 c3 43 4 78
3 79 -4 6 -65 10 -107 6z m62 -27 c0 -14 -48 -28 -63 -19 -4 3 -3 11 4 19 15
18 59 18 59 0z m0 -41 c0 -8 -12 -18 -27 -22 l-28 -7 30 -6 c41 -7 38 -24 -6
-28 -36 -3 -37 -2 -34 30 2 27 7 34 31 39 16 4 30 7 32 8 1 0 2 -6 2 -14z"/>
  <path d="M130 413 c0 -30 78 -91 100 -78 18 11 10 44 -13 60 -28 18 -87 31
-87 18z"/>
  <path d="M195 284 c-22 -13 -57 -29 -77 -34 -40 -11 -43 -31 -7 -50 14 -8 30
0 78 40 34 28 61 55 61 60 0 14 -10 11 -55 -16z"/>
  <path d="M686 272 c-7 -6 23 -42 36 -42 4 0 8 8 8 19 0 18 -33 35 -44 23z"/>
  <path d="M490 251 c13 -26 43 -28 38 -3 -2 9 -14 18 -26 20 -21 3 -22 1 -12
-17z"/>
  <path d="M490 206 c0 -26 -26 -35 -108 -37 -45 -1 -82 -6 -82 -11 0 -13 51
-30 69 -23 9 4 32 9 52 11 35 5 36 4 32 -20 -5 -23 -2 -26 36 -32 23 -4 41
-10 41 -14 0 -4 -21 -15 -47 -24 -88 -32 -92 -35 -51 -35 20 -1 62 9 93 21
l56 21 58 -28 c54 -26 81 -27 81 -5 0 6 -22 21 -50 35 -27 14 -50 29 -50 34 0
5 14 23 30 41 l31 33 84 -7 c87 -7 105 0 60 24 -17 9 -43 11 -88 6 -39 -4 -76
-2 -93 4 -22 9 -29 8 -36 -5 -11 -19 -68 -20 -68 -1 0 13 -20 26 -41 26 -5 0
-9 -6 -9 -14z m110 -54 c0 -4 -7 -18 -16 -30 -13 -19 -21 -21 -57 -16 -53 8
-54 10 -32 34 13 14 31 20 62 20 23 0 43 -3 43 -8z"/>
</g>
<g id="part-1" class="char-part">
  <path d="M470 583 c1 -5 7 -19 15 -33 8 -14 14 -28 15 -31 0 -3 -35 -9 -77
-13 -43 -3 -97 -9 -121 -12 -41 -6 -42 -7 -26 -25 14 -16 16 -32 11 -96 -7
-100 -38 -189 -93 -269 -24 -35 -40 -64 -36 -64 4 0 28 19 51 42 58 55 96 143
120 274 10 58 24 110 31 114 15 9 97 17 250 25 63 4 126 9 140 11 l25 6 -29
15 c-28 15 -65 14 -163 -3 -28 -5 -33 -3 -33 14 0 12 -10 28 -22 36 -23 17
-58 22 -58 9z"/>
  <path d="M140 403 c0 -15 55 -63 72 -63 29 0 23 44 -7 58 -29 13 -65 16 -65 5z"/>
  <path d="M195 279 c-16 -11 -47 -24 -67 -31 -41 -12 -46 -19 -23 -38 21 -17
45 -6 95 45 47 48 45 56 -5 24z"/>
</g>
<g id="part-2" class="char-part">
  <path d="M422 443 c-34 -3 -42 -8 -38 -19 3 -9 6 -38 6 -65 l0 -50 31 16 c21
11 43 14 69 10 l37 -6 5 53 c7 71 7 71 -110 61z m68 -28 c0 -8 -6 -15 -12 -15
-7 0 -23 -3 -35 -6 -17 -5 -23 -2 -23 9 0 17 14 25 48 26 13 1 22 -5 22 -14z
m-11 -56 c-8 -5 -24 -9 -37 -9 -33 0 -22 24 14 30 31 6 45 -7 23 -21z"/>
</g>
<g id="part-3" class="char-part">
  <path d="M620 293 c-20 -6 -63 -73 -47 -73 22 0 83 57 72 67 -5 5 -17 8 -25 6z"/>
  <path d="M692 258 c19 -28 41 -36 36 -13 -1 10 -14 22 -27 27 -23 8 -23 7 -9
-14z"/>
</g>
<g id="part-4" class="char-part">
  <path d="M485 198 c-8 -19 -19 -23 -65 -25 -30 -2 -71 -6 -90 -9 l-35 -6 25
-13 c19 -10 38 -11 79 -3 58 10 70 6 52 -16 -14 -17 -8 -21 42 -30 20 -4 37
-11 37 -15 0 -5 -21 -16 -47 -25 -86 -31 -92 -37 -36 -31 29 3 72 14 95 24
l43 18 53 -29 c29 -17 59 -27 67 -24 31 12 20 22 -83 73 -2 1 7 20 20 43 l23
42 95 -6 c89 -5 93 -5 77 12 -14 13 -36 17 -100 18 -45 0 -92 4 -104 8 -18 7
-23 5 -23 -8 0 -12 -9 -16 -35 -16 -23 0 -35 5 -35 14 0 12 -20 26 -38 26 -4
0 -12 -10 -17 -22z m119 -39 c3 -3 -5 -18 -17 -33 -21 -26 -27 -28 -65 -21
-46 7 -51 14 -24 38 21 19 92 30 106 16z"/>
</g>
</g>
</svg>