<?xml version="1.0" standalone="no"?>
<!DOCTYPE svg PUBLIC "-//W3C//DTD SVG 20010904//EN"
 "http://www.w3.org/TR/2001/REC-SVG-20010904/DTD/svg10.dtd">
<svg version="1.0" xmlns="http://www.w3.org/2000/svg"
 width="96.000000pt" height="68.000000pt" viewBox="0 0 96.000000 68.000000"
 preserveAspectRatio="xMidYMid meet">
<metadata>
Created by potrace 1.16, written by Peter Selinger 2001-2019
Combined from part_0.svg through part_5.svg with named groups
</metadata>
<g transform="translate(0.000000,68.000000) scale(0.100000,-0.100000)" fill="#000000" stroke="none">
<g id="part-0" class="char-part">
  <path d="M708 580 c-45 -13 -264 -31 -293 -24 -26 6 -27 5 -22 -18 12 -46 9
-266 -4 -305 -16 -48 -45 -102 -72 -130 -14 -15 -16 -23 -7 -23 19 0 83 71
104 115 10 20 21 58 25 84 l6 46 95 7 c52 4 121 9 153 11 l57 5 0 -113 c0
-117 -9 -144 -40 -125 -8 6 -22 10 -31 10 -12 0 -6 -12 21 -40 43 -45 69 -50
90 -17 11 17 14 58 12 197 -1 96 2 200 7 230 9 53 9 56 -17 77 -29 24 -41 26
-84 13z m42 -73 l0 -43 -66 -2 -66 -2 4 30 c2 16 0 31 -6 33 -5 2 -6 9 -2 15
4 7 33 12 72 12 l64 0 0 -43z m-186 17 c11 -30 6 -72 -10 -78 -9 -3 -36 -6
-60 -6 l-45 0 3 43 c3 42 3 42 48 48 25 3 48 7 51 7 4 1 10 -5 13 -14z m186
-121 l0 -38 -70 0 -70 -1 0 33 c0 34 8 37 103 41 36 2 37 1 37 -35z m-224 17
c45 0 45 0 42 -32 -3 -33 -4 -33 -60 -36 l-58 -3 0 42 c0 33 3 40 16 35 9 -3
36 -6 60 -6z"/>
  <path d="M270 465 c-19 -7 -61 -14 -93 -14 -57 -1 -57 -1 -46 -23 7 -13 20
-48 29 -78 13 -44 20 -54 36 -52 10 1 47 5 82 9 55 5 62 8 56 25 -3 10 4 39
16 63 23 47 21 75 -4 75 -8 0 -20 2 -28 4 -7 3 -29 -2 -48 -9z m20 -49 c0 -7
-3 -28 -6 -45 -6 -28 -10 -31 -45 -31 -22 0 -39 4 -39 9 0 5 -3 22 -6 39 -5
26 -3 31 17 35 51 9 79 7 79 -7z"/>
  <path d="M615 290 c-16 -4 -54 -8 -82 -9 -29 0 -53 -5 -53 -11 0 -5 5 -10 10
-10 6 0 10 -10 10 -23 0 -26 21 -77 33 -77 4 0 7 5 7 10 0 6 28 10 65 10 53 0
65 3 65 16 0 9 9 32 20 50 21 33 21 33 1 43 -22 12 -32 12 -76 1z m25 -43 c0
-34 -19 -47 -67 -47 -41 0 -43 1 -43 29 0 32 10 37 78 40 27 1 32 -2 32 -22z"/>
</g>
<g id="part-1" class="char-part">
  <path d="M245 454 c-27 -8 -65 -12 -82 -9 -32 6 -41 -2 -24 -20 4 -6 14 -32
20 -60 14 -54 30 -82 40 -66 4 5 34 11 67 12 57 2 62 4 62 25 0 12 10 43 22
69 12 25 20 48 17 51 -12 12 -76 11 -122 -2z m47 -59 c-4 -45 -23 -65 -63 -65
-23 0 -28 6 -37 42 -6 23 -9 44 -7 46 7 8 70 20 90 19 17 -2 20 -8 17 -42z"/>
</g>
<g id="part-2" class="char-part">
  <path d="M660 574 c-47 -8 -128 -15 -182 -17 -86 -2 -95 -4 -87 -19 5 -9 9
-77 9 -150 0 -125 -2 -136 -28 -193 -16 -33 -41 -75 -56 -92 -37 -44 -16 -42
35 4 71 64 99 150 99 302 0 125 -8 117 140 131 71 7 136 10 145 7 13 -6 15
-36 15 -214 0 -114 -4 -214 -8 -221 -7 -10 -16 -9 -45 3 -54 22 -54 19 -6 -30
49 -50 77 -56 99 -23 11 18 14 59 12 198 -2 96 2 200 8 230 10 53 10 56 -15
78 -14 12 -31 21 -38 21 -7 -1 -50 -8 -97 -15z"/>
</g>
<g id="part-3" class="char-part">
  <path d="M567 496 c5 -39 3 -44 -18 -49 -13 -4 -39 -7 -56 -7 -18 0 -33 -4
-33 -10 0 -5 25 -10 56 -10 l55 0 -3 -32 c-3 -33 -4 -33 -60 -36 -33 -2 -58
-8 -58 -14 0 -7 35 -9 118 -4 140 8 182 15 182 29 0 6 -25 8 -70 4 l-70 -6 0
33 c0 31 3 34 38 40 20 3 52 6 70 6 32 0 44 14 20 23 -7 2 -37 2 -66 -1 l-54
-5 4 32 c3 33 -12 51 -43 51 -14 0 -16 -8 -12 -44z"/>
</g>
<g id="part-4" class="char-part">
  <path d="M615 289 c-16 -5 -53 -10 -80 -11 l-51 -1 19 -59 c10 -32 23 -58 28
-58 5 0 9 5 9 10 0 6 28 10 65 10 53 0 65 3 65 16 0 9 9 32 20 50 21 33 21 33
1 43 -23 13 -35 13 -76 0z m27 -25 c3 -3 3 -17 -1 -32 -7 -25 -12 -27 -57 -27
-46 0 -49 2 -52 27 -3 21 2 27 20 31 36 7 84 8 90 1z"/>
</g>
</g>
</svg>