<?xml version="1.0" standalone="no"?>
<!DOCTYPE svg PUBLIC "-//W3C//DTD SVG 20010904//EN"
 "http://www.w3.org/TR/2001/REC-SVG-20010904/DTD/svg10.dtd">
<svg version="1.0" xmlns="http://www.w3.org/2000/svg"
 width="96.000000pt" height="68.000000pt" viewBox="0 0 96.000000 68.000000"
 preserveAspectRatio="xMidYMid meet">
<metadata>
Created by potrace 1.16, written by Peter Selinger 2001-2019
Combined from part_0.svg through part_5.svg with named groups
</metadata>
<g transform="translate(0.000000,68.000000) scale(0.100000,-0.100000)" fill="#000000" stroke="none">
<g id="part-0" class="char-part">
  <path d="M230 530 c32 -62 80 -78 80 -25 0 28 -43 65 -77 65 l-23 0 20 -40z"/>
  <path d="M628 541 c-60 -52 -131 -91 -165 -91 -30 0 -33 -2 -23 -20 23 -43 12
-244 -16 -287 -12 -19 -12 -24 2 -37 8 -9 19 -16 23 -16 8 0 56 38 104 83 16
15 34 27 40 27 6 0 8 3 4 6 -3 4 -27 -5 -53 -20 -25 -14 -51 -26 -57 -26 -9 0
-4 136 5 145 2 2 31 7 65 10 l61 7 28 -57 c32 -69 43 -84 107 -148 34 -34 55
-47 70 -45 13 2 21 9 19 18 -2 8 -6 39 -9 68 -6 58 -19 67 -34 22 -19 -54 -47
-35 -98 66 -43 86 -42 91 24 99 30 4 55 11 55 16 0 15 -53 22 -92 12 -37 -10
-38 -9 -38 16 0 44 -11 70 -32 77 -25 8 -15 17 45 39 50 19 60 38 28 55 -27
14 -26 14 -63 -19z m-41 -132 c26 -52 19 -64 -44 -74 l-43 -7 0 55 c0 46 3 56
23 65 32 15 40 11 64 -39z"/>
  <path d="M265 460 c-27 -5 -81 -14 -118 -21 -61 -10 -66 -12 -50 -25 24 -18
75 -17 165 1 40 8 90 17 111 20 23 4 37 11 34 18 -4 15 -75 18 -142 7z"/>
  <path d="M240 363 c-19 -3 -39 -9 -45 -15 -7 -7 10 -9 58 -5 78 7 128 27 62
25 -22 -1 -56 -3 -75 -5z"/>
  <path d="M223 293 c-13 -2 -23 -9 -23 -15 0 -12 115 -2 140 12 16 10 -73 12
-117 3z"/>
  <path d="M285 224 c-22 -7 -60 -13 -85 -13 -25 -1 -40 -5 -34 -9 6 -4 14 -18
18 -32 17 -60 29 -80 40 -71 6 5 34 11 61 13 35 2 49 7 47 16 -1 7 7 27 19 43
36 51 7 75 -66 53z m23 -43 c4 -28 -11 -47 -43 -53 -31 -6 -45 8 -45 46 0 16
3 27 6 24 3 -3 17 -2 32 2 37 11 46 7 50 -19z"/>
  <path d="M555 95 c-39 -10 -46 -14 -31 -20 23 -10 188 14 180 26 -7 12 -89 9
-149 -6z"/>
</g>
<g id="part-1" class="char-part">
  <path d="M220 563 c0 -16 41 -74 56 -80 14 -5 33 11 34 28 0 4 -12 18 -26 33
-25 24 -64 36 -64 19z"/>
  <path d="M234 450 c-157 -25 -155 -24 -119 -39 25 -10 48 -9 140 8 60 12 121
21 135 21 24 1 24 1 6 15 -23 17 -19 18 -162 -5z"/>
</g>
<g id="part-2" class="char-part">
  <path d="M275 224 c-22 -9 -59 -14 -82 -12 -36 3 -40 1 -29 -12 7 -8 20 -36
30 -62 16 -43 36 -64 36 -38 0 6 25 10 55 10 49 0 55 2 55 21 0 11 8 34 17 50
27 46 -14 68 -82 43z m35 -35 c0 -36 -19 -59 -49 -59 -23 0 -31 6 -39 30 -10
27 -9 30 11 35 53 11 62 13 70 14 4 0 7 -8 7 -20z"/>
</g>
<g id="part-3" class="char-part">
  <path d="M629 544 c-13 -14 -48 -40 -76 -56 -52 -30 -73 -48 -55 -48 16 0 203
77 214 88 6 6 2 15 -13 26 -32 22 -41 20 -70 -10z"/>
</g>
<g id="part-4" class="char-part">
  <path d="M568 465 c-3 -3 5 -27 18 -53 13 -26 24 -50 24 -54 0 -4 -25 -12 -55
-18 -81 -17 -83 -34 -2 -26 l65 7 34 -67 c41 -84 136 -184 174 -184 20 0 24 4
20 18 -3 9 -10 41 -16 71 -6 30 -11 56 -13 57 -2 2 -9 -12 -16 -31 -7 -19 -19
-35 -26 -35 -18 0 -73 80 -96 140 l-18 48 62 7 c58 6 61 8 42 22 -14 10 -33
13 -67 8 -46 -5 -48 -5 -48 19 0 49 -17 76 -48 76 -16 0 -31 -2 -34 -5z"/>
</g>
<g id="part-5" class="char-part">
  <path d="M636 99 c4 -7 -3 -10 -17 -8 -13 1 -35 -3 -49 -10 l-25 -11 25 4 c14
3 49 8 78 12 35 4 49 10 40 15 -19 13 -60 11 -52 -2z"/>
</g>
</g>
</svg>