<?xml version="1.0" standalone="no"?>
<!DOCTYPE svg PUBLIC "-//W3C//DTD SVG 20010904//EN"
 "http://www.w3.org/TR/2001/REC-SVG-20010904/DTD/svg10.dtd">
<svg version="1.0" xmlns="http://www.w3.org/2000/svg"
 width="96.000000pt" height="68.000000pt" viewBox="0 0 96.000000 68.000000"
 preserveAspectRatio="xMidYMid meet">
<metadata>
Created by potrace 1.16, written by Peter Selinger 2001-2019
Combined from part_0.svg through part_5.svg with named groups
</metadata>
<g transform="translate(0.000000,68.000000) scale(0.100000,-0.100000)" fill="#000000" stroke="none">
<g id="part-0" class="char-part">
  <path d="M170 552 c0 -17 81 -83 98 -80 24 5 26 41 3 62 -22 20 -101 34 -101
18z"/>
  <path d="M669 555 c-8 -7 -260 -37 -310 -36 l-45 1 19 -61 20 -61 44 4 c41 3
43 2 43 -24 0 -30 -26 -42 -86 -41 l-32 1 6 -87 c2 -47 6 -87 7 -89 2 -2 26 1
54 6 51 9 51 9 51 -17 0 -32 41 -78 78 -88 34 -10 185 -9 232 0 19 4 43 14 53
21 16 12 17 19 6 61 l-12 48 -16 -34 c-23 -49 -52 -59 -167 -59 -137 0 -134
-5 -134 182 0 80 3 166 6 192 6 40 10 46 30 46 21 0 24 -5 25 -37 1 -21 1 -41
1 -44 -1 -4 -2 -61 -3 -128 -2 -130 7 -159 41 -141 26 14 87 12 94 -2 3 -9 8
-8 16 4 6 10 11 19 10 20 0 2 9 36 20 75 11 40 20 77 20 82 0 18 -55 32 -84
21 -15 -5 -38 -10 -52 -10 -20 0 -24 5 -24 29 0 27 2 29 60 35 33 4 58 11 55
15 -2 5 6 25 20 45 14 20 25 39 25 41 0 4 -55 35 -63 35 -2 0 -6 -2 -8 -5z
m-3 -57 c-8 -40 -12 -44 -53 -53 -33 -7 -33 -6 -33 33 0 48 4 52 53 52 39 0
39 0 33 -32z m-226 -33 c0 -40 -1 -41 -35 -43 -23 -2 -35 2 -35 10 0 7 -3 22
-6 33 -4 16 1 23 23 31 47 17 53 14 53 -31z m238 -146 c3 -22 -2 -27 -29 -33
-59 -12 -69 -8 -69 23 0 26 4 30 33 34 53 7 62 3 65 -24z m-238 -18 c0 -24 -5
-29 -32 -35 -17 -3 -36 -2 -41 3 -15 15 2 49 26 54 44 9 47 7 47 -22z m228
-68 c-3 -25 -7 -28 -45 -31 -42 -3 -43 -2 -43 27 0 30 1 31 46 31 44 0 45 -1
42 -27z m-228 -11 c0 -26 -3 -28 -41 -31 -35 -2 -40 1 -35 14 3 9 6 22 6 29 0
7 16 13 35 14 32 2 35 0 35 -26z"/>
  <path d="M100 412 c0 -17 81 -83 98 -80 28 5 27 45 -1 63 -30 20 -97 32 -97
17z"/>
  <path d="M245 289 c-9 -16 -43 -57 -76 -90 -49 -49 -58 -63 -53 -84 6 -26 31
-52 40 -42 13 13 115 203 120 225 9 33 -13 27 -31 -9z"/>
</g>
<g id="part-1" class="char-part">
  <path d="M205 520 c40 -41 80 -51 80 -20 0 20 -62 60 -94 60 -25 0 -24 -1 14
-40z"/>
  <path d="M121 393 c38 -48 80 -66 95 -41 11 18 -43 58 -78 58 -27 0 -29 -2
-17 -17z"/>
  <path d="M226 256 c-30 -44 -69 -82 -114 -111 -8 -5 22 -65 33 -65 15 0 128
205 123 221 -2 6 -21 -14 -42 -45z"/>
</g>
<g id="part-2" class="char-part">
  <path d="M380 523 l-66 -4 20 -64 c15 -48 25 -64 36 -60 8 2 36 7 62 10 46 7
46 7 53 53 6 38 4 48 -11 59 -10 7 -20 12 -23 11 -3 -1 -35 -3 -71 -5z m60
-57 c0 -30 -4 -35 -31 -41 -36 -8 -34 -9 -42 32 -7 33 0 39 51 42 19 1 22 -4
22 -33z"/>
</g>
<g id="part-3" class="char-part">
  <path d="M635 550 c-22 -4 -71 -11 -108 -15 -69 -7 -84 -19 -24 -20 l32 0 5
-172 c3 -94 8 -175 13 -179 4 -4 13 -2 19 4 16 16 95 16 101 0 2 -7 8 -10 12
-6 7 7 54 164 55 184 0 19 -48 34 -76 24 -14 -6 -39 -10 -55 -10 -25 0 -29 4
-29 29 0 27 2 29 60 35 33 4 58 11 55 15 -2 5 6 25 20 45 14 20 25 41 25 45 0
7 -60 35 -64 30 -1 -1 -19 -5 -41 -9z m31 -52 c-8 -40 -14 -46 -54 -54 l-32
-6 0 46 0 46 46 0 47 0 -7 -32z m12 -179 c3 -22 -2 -27 -29 -33 -59 -12 -69
-8 -69 23 0 26 4 30 33 34 53 7 62 3 65 -24z m-8 -83 c0 -26 -16 -36 -61 -36
-26 0 -29 4 -29 30 0 29 2 30 45 30 41 0 45 -2 45 -24z"/>
  <path d="M447 403 c-4 -3 -7 -17 -7 -29 0 -18 -8 -25 -37 -33 -20 -6 -48 -8
-61 -4 -24 6 -25 5 -19 -33 4 -21 7 -63 7 -92 l0 -52 38 6 c20 3 53 6 72 7
l35 2 3 118 c2 93 0 117 -11 117 -8 0 -17 -3 -20 -7z m-7 -103 c0 -17 -5 -30
-12 -30 -7 0 -23 -3 -35 -6 -20 -6 -23 -3 -23 24 0 24 5 32 23 35 44 9 47 7
47 -23z m0 -74 c0 -24 -16 -36 -51 -36 -13 0 -19 7 -19 24 0 26 11 34 48 35
17 1 22 -5 22 -23z"/>
</g>
<g id="part-4" class="char-part">
  <path d="M786 175 c-16 -63 -48 -77 -165 -76 -114 2 -131 7 -138 42 -4 20 -12
29 -24 29 -22 0 -23 -6 -8 -48 16 -47 66 -66 174 -66 91 -1 183 18 191 38 2 6
-2 34 -9 61 -13 49 -14 49 -21 20z"/>
</g>
</g>
</svg>