<?xml version="1.0" standalone="no"?>
<!DOCTYPE svg PUBLIC "-//W3C//DTD SVG 20010904//EN"
 "http://www.w3.org/TR/2001/REC-SVG-20010904/DTD/svg10.dtd">
<svg version="1.0" xmlns="http://www.w3.org/2000/svg"
 width="96.000000pt" height="68.000000pt" viewBox="0 0 96.000000 68.000000"
 preserveAspectRatio="xMidYMid meet">
<metadata>
Created by potrace 1.16, written by Peter Selinger 2001-2019
Combined from part_0.svg through part_5.svg with named groups
</metadata>
<g transform="translate(0.000000,68.000000) scale(0.100000,-0.100000)" fill="#000000" stroke="none">
<g id="part-0" class="char-part">
  <path d="M410 614 c0 -4 9 -21 20 -39 l20 -32 -81 -7 c-67 -5 -85 -4 -99 9
-19 17 -21 15 -53 -42 -9 -17 -17 -41 -17 -52 0 -33 37 -26 60 12 22 35 9 33
330 63 l74 7 -17 -26 c-9 -14 -17 -30 -17 -36 0 -10 119 17 134 30 12 10 -21
49 -41 49 -8 0 -12 4 -9 8 6 9 -20 9 -136 -3 -65 -6 -78 -5 -78 7 0 21 -43 58
-68 58 -12 0 -22 -3 -22 -6z"/>
  <path d="M403 477 c-73 -11 -83 -27 -18 -27 l45 0 0 -40 c0 -25 5 -40 12 -40
30 0 -36 -31 -147 -69 -120 -41 -137 -53 -36 -26 30 8 58 12 62 9 5 -2 6 -41
3 -86 l-5 -80 36 6 c58 11 42 -21 -35 -71 -35 -24 -61 -43 -58 -43 21 0 188
83 188 93 0 4 -10 12 -22 17 -18 7 -10 9 37 10 33 1 75 3 93 5 18 1 35 -1 38
-6 11 -18 42 -9 48 14 9 34 7 185 -3 191 -13 9 -61 9 -131 2 l-65 -7 92 43
c50 24 92 48 93 53 2 6 -7 15 -19 21 -19 10 -26 7 -53 -18 -37 -34 -83 -60
-92 -51 -3 4 -6 24 -6 45 0 33 3 38 24 38 38 0 86 12 86 21 0 11 -86 9 -167
-4z m187 -175 c0 -15 -16 -20 -111 -31 -93 -11 -113 -11 -120 1 -22 34 -16 36
194 46 30 2 37 -2 37 -16z m5 -62 c0 -12 -19 -17 -80 -22 -44 -4 -97 -9 -117
-11 -32 -4 -38 -2 -38 13 0 20 26 26 135 33 81 6 100 3 100 -13z m5 -59 c0
-15 -11 -19 -77 -25 -135 -11 -163 -9 -163 14 0 17 8 20 73 23 175 8 167 8
167 -12z"/>
  <path d="M291 379 c-22 -26 -28 -39 -19 -39 23 0 83 44 83 60 0 28 -30 18 -64
-21z"/>
  <path d="M544 97 c10 -7 39 -29 63 -49 45 -39 73 -48 73 -25 0 26 -31 56 -77
71 -57 19 -88 21 -59 3z"/>
</g>
<g id="part-1" class="char-part">
  <path d="M420 606 c0 -7 9 -25 20 -39 l20 -25 -23 -6 c-37 -10 -167 -7 -167 4
0 6 -4 10 -9 10 -15 0 -63 -90 -57 -106 9 -25 36 -15 52 19 l16 33 190 22
c105 12 194 19 199 16 5 -3 0 -19 -12 -36 -21 -28 -21 -30 -3 -25 10 3 38 9
61 12 56 9 63 23 28 53 -27 23 -34 24 -104 18 -42 -4 -91 -9 -109 -13 -25 -4
-33 -2 -32 8 4 29 -1 39 -30 54 -36 18 -40 19 -40 1z"/>
</g>
<g id="part-2" class="char-part">
  <path d="M408 477 c-109 -14 -101 -32 10 -24 104 8 152 16 152 28 0 11 -59 9
-162 -4z"/>
</g>
<g id="part-3" class="char-part">
  <path d="M290 378 c-33 -39 -34 -41 -10 -34 35 11 75 41 75 57 0 28 -31 17
-65 -23z"/>
</g>
<g id="part-4" class="char-part">
  <path d="M363 85 c-18 -18 -51 -42 -75 -55 -73 -37 5 -14 89 27 73 36 88 57
42 59 -15 1 -36 -10 -56 -31z"/>
  <path d="M590 60 c63 -51 90 -61 90 -36 0 23 -33 53 -78 70 -73 28 -77 18 -12
-34z"/>
</g>
</g>
</svg>