<?xml version="1.0" standalone="no"?>
<!DOCTYPE svg PUBLIC "-//W3C//DTD SVG 20010904//EN"
 "http://www.w3.org/TR/2001/REC-SVG-20010904/DTD/svg10.dtd">
<svg version="1.0" xmlns="http://www.w3.org/2000/svg"
 width="96.000000pt" height="68.000000pt" viewBox="0 0 96.000000 68.000000"
 preserveAspectRatio="xMidYMid meet">
<metadata>
Created by potrace 1.16, written by Peter Selinger 2001-2019
Combined from part_0.svg through part_5.svg with named groups
</metadata>
<g transform="translate(0.000000,68.000000) scale(0.100000,-0.100000)" fill="#000000" stroke="none">
<g id="part-0" class="char-part">
  <path d="M534 598 c4 -13 13 -61 22 -108 8 -47 17 -93 20 -102 4 -14 -4 -18
-45 -24 -69 -9 -67 -28 2 -21 l54 5 12 -48 c22 -87 65 -163 120 -212 77 -69
145 -77 121 -14 -5 15 -10 44 -10 64 -1 35 -2 36 -15 18 -8 -11 -15 -28 -15
-38 0 -30 -36 -21 -70 19 -36 41 -86 140 -96 190 -7 34 -8 33 106 45 14 2 25
8 25 13 0 14 -58 18 -100 6 -33 -9 -37 -8 -44 12 -5 13 -12 62 -16 111 -7 80
-9 88 -32 97 -38 14 -46 11 -39 -13z"/>
  <path d="M433 488 c-7 -24 -26 -64 -43 -90 -28 -43 -34 -46 -56 -38 -14 6 -36
10 -49 10 -22 0 -24 4 -22 49 l1 49 43 7 c49 7 62 20 34 34 -13 8 -40 6 -92
-4 -41 -8 -91 -17 -113 -21 -49 -7 -36 -22 24 -26 l45 -3 3 -51 3 -52 -46 -6
c-28 -5 -43 -11 -39 -18 4 -6 22 -8 44 -4 36 6 38 4 44 -25 3 -17 6 -46 6 -64
0 -28 -4 -33 -39 -43 -21 -7 -48 -12 -60 -12 -24 0 -27 -10 -9 -28 21 -21 57
-13 146 34 115 61 116 63 25 38 -22 -6 -23 -4 -23 54 l0 59 42 6 c52 7 57 3
32 -24 l-19 -22 31 16 c17 9 34 23 37 32 4 8 13 15 22 15 13 0 15 -12 10 -83
-4 -45 -11 -101 -17 -123 -10 -43 1 -84 23 -84 16 0 19 18 28 155 7 101 6 135
-4 151 -12 19 -6 47 14 64 3 3 14 20 25 39 15 28 16 35 5 42 -29 18 -45 9 -56
-33z"/>
  <path d="M640 515 c0 -2 17 -16 37 -29 27 -19 40 -23 50 -14 21 17 15 26 -24
37 -41 12 -63 14 -63 6z"/>
</g>
<g id="part-1" class="char-part">
  <path d="M202 491 c-97 -17 -113 -31 -33 -31 65 1 176 23 174 35 -4 15 -39 14
-141 -4z"/>
</g>
<g id="part-2" class="char-part">
  <path d="M220 464 c-12 -4 -14 -17 -12 -59 4 -54 4 -55 -25 -56 -15 0 -37 -4
-48 -8 -20 -8 -20 -8 2 -15 12 -4 33 -4 46 -1 24 6 26 4 33 -51 8 -67 -1 -78
-71 -89 -51 -7 -64 -20 -36 -34 34 -19 63 -11 161 40 79 41 89 49 57 44 -21
-4 -45 -9 -53 -12 -13 -5 -15 5 -12 53 l3 58 44 9 c50 10 39 27 -17 27 l-34 0
7 41 c5 30 3 44 -6 50 -8 5 -16 8 -19 8 -3 -1 -12 -3 -20 -5z"/>
</g>
<g id="part-3" class="char-part">
  <path d="M435 501 c-4 -24 -29 -74 -61 -121 -40 -61 -48 -78 -31 -69 12 6 32
21 44 32 13 11 26 18 29 14 6 -6 -10 -176 -22 -227 -6 -30 19 -70 35 -55 21
21 33 283 14 306 -9 11 -3 27 25 72 36 59 36 69 -5 81 -19 6 -22 2 -28 -33z"/>
</g>
<g id="part-4" class="char-part">
  <path d="M663 495 c26 -23 77 -35 77 -17 -1 19 -19 30 -60 36 l-45 7 28 -26z"/>
</g>
<g id="part-5" class="char-part">
  <path d="M544 593 c3 -10 7 -36 10 -58 19 -129 79 -345 97 -345 5 0 9 -7 9
-16 0 -10 6 -14 15 -11 8 4 17 1 21 -5 4 -6 3 -8 -4 -4 -22 13 -19 -10 5 -34
19 -20 22 -21 17 -6 -6 15 -4 17 6 11 15 -9 -27 55 -43 66 -5 3 -8 8 -6 10 4
8 -25 79 -33 79 -4 0 -5 7 -2 15 4 8 1 15 -5 15 -20 0 -12 38 11 54 13 9 44
16 73 16 32 0 45 3 36 9 -7 5 -30 6 -50 3 -90 -14 -92 -13 -98 53 -4 33 -6 81
-6 107 1 32 -3 48 -13 52 -9 3 -12 1 -9 -4 3 -6 1 -10 -4 -10 -6 0 -11 5 -11
10 0 6 -5 10 -11 10 -6 0 -8 -8 -5 -17z m48 -138 c3 -13 1 -22 -3 -19 -9 5
-13 44 -5 44 2 0 6 -11 8 -25z"/>
  <path d="M520 350 c-12 -8 -11 -10 8 -10 12 0 22 5 22 10 0 13 -11 13 -30 0z"/>
  <path d="M810 125 c-6 -8 -9 -19 -5 -25 4 -6 -4 -10 -19 -10 -14 0 -28 5 -31
10 -9 15 -25 12 -25 -4 0 -18 47 -49 62 -40 6 4 8 3 5 -3 -4 -6 2 -13 13 -16
26 -7 32 5 20 38 -6 15 -8 36 -5 46 8 23 2 24 -15 4z"/>
</g>
</g>
</svg>