<?xml version="1.0" standalone="no"?>
<!DOCTYPE svg PUBLIC "-//W3C//DTD SVG 20010904//EN"
 "http://www.w3.org/TR/2001/REC-SVG-20010904/DTD/svg10.dtd">
<svg version="1.0" xmlns="http://www.w3.org/2000/svg"
 width="96.000000pt" height="68.000000pt" viewBox="0 0 96.000000 68.000000"
 preserveAspectRatio="xMidYMid meet">
<metadata>
Created by potrace 1.16, written by Peter Selinger 2001-2019
Combined from part_0.svg through part_5.svg with named groups
</metadata>
<g transform="translate(0.000000,68.000000) scale(0.100000,-0.100000)" fill="#000000" stroke="none">
<g id="part-0" class="char-part">
  <path d="M507 603 c-9 -8 -9 -256 -1 -277 13 -35 44 -11 44 34 0 16 12 19 95
25 60 5 92 11 88 18 -4 6 -39 7 -99 3 l-93 -6 2 62 2 63 74 7 c41 4 76 10 79
13 15 14 -15 18 -78 9 l-70 -10 0 27 c0 15 -7 29 -16 33 -19 7 -19 7 -27 -1z"/>
  <path d="M333 571 c7 -34 -3 -41 -71 -42 -26 -1 -58 -4 -72 -9 -48 -14 7 -23
81 -13 67 9 69 9 69 -13 0 -17 -8 -23 -37 -28 -21 -3 -52 -6 -70 -6 -17 0 -35
-4 -38 -10 -10 -16 38 -22 89 -10 27 6 51 9 53 7 2 -3 1 -16 -2 -30 -6 -23
-14 -27 -73 -36 -37 -6 -83 -12 -102 -13 l-34 -3 27 -18 c27 -18 30 -18 93 3
36 12 67 20 70 17 3 -2 -7 -19 -22 -36 -32 -38 -27 -48 14 -27 46 24 79 103
85 199 4 76 3 79 -20 88 -39 15 -46 11 -40 -20z"/>
  <path d="M588 473 c-34 -5 -37 -23 -4 -23 46 0 116 13 116 21 0 9 -60 10 -112
2z"/>
  <path d="M394 329 c3 -8 9 -22 12 -31 4 -10 11 -18 16 -18 5 0 6 -4 3 -10 -3
-5 -26 -10 -49 -10 -67 0 -166 -12 -166 -20 0 -15 48 -20 101 -11 30 5 84 13
122 16 79 8 92 -5 62 -61 -24 -45 -44 -49 -98 -18 -26 14 -57 24 -69 22 -19
-2 -12 -9 35 -32 31 -16 57 -33 57 -37 0 -14 -79 -49 -153 -69 -65 -17 -68
-19 -32 -19 54 -1 120 15 178 41 43 19 51 20 70 8 86 -55 124 -70 177 -70 30
0 78 6 105 13 44 12 47 14 25 20 -14 3 -50 9 -80 12 -75 9 -210 54 -210 70 0
7 7 18 15 25 9 7 25 26 36 42 17 23 18 32 9 43 -11 13 -2 15 65 15 70 0 76 2
64 16 -11 14 -30 16 -121 12 -76 -3 -108 -1 -108 7 0 18 -23 42 -49 50 -18 5
-22 4 -17 -6z"/>
</g>
<g id="part-1" class="char-part">
  <path d="M339 508 c4 -93 -8 -144 -46 -189 l-27 -32 32 17 c49 25 79 88 89
183 10 88 5 103 -32 103 -19 0 -20 -5 -16 -82z"/>
</g>
<g id="part-2" class="char-part">
  <path d="M500 386 c0 -71 19 -104 39 -67 6 11 11 29 11 40 0 18 6 21 48 22 73
1 148 13 135 22 -17 10 -49 11 -125 3 l-68 -8 0 26 c0 19 -5 26 -20 26 -18 0
-20 -7 -20 -64z"/>
</g>
<g id="part-3" class="char-part">
  <path d="M390 331 c0 -4 9 -20 20 -34 l20 -25 -27 -6 c-16 -3 -65 -8 -110 -12
-46 -3 -83 -10 -83 -15 0 -16 47 -21 106 -9 33 6 130 14 217 17 108 4 156 9
154 17 -2 7 -43 11 -112 11 -101 1 -109 2 -116 22 -11 30 -69 59 -69 34z"/>
</g>
<g id="part-4" class="char-part">
  <path d="M506 218 c-7 -34 -37 -78 -54 -78 -5 0 -30 12 -56 26 -25 14 -56 24
-68 22 -19 -2 -12 -9 35 -32 31 -16 57 -33 57 -38 0 -12 -101 -56 -169 -74
l-56 -14 73 4 c49 3 91 13 129 30 30 15 59 26 63 26 4 0 39 -18 76 -41 69 -40
70 -41 149 -35 44 2 91 9 105 14 l25 9 -30 6 c-16 4 -59 11 -94 16 -54 9 -188
47 -200 57 -2 1 16 26 40 54 42 50 43 52 24 66 -29 22 -42 17 -49 -18z"/>
</g>
</g>
</svg>