<?xml version="1.0" standalone="no"?>
<!DOCTYPE svg PUBLIC "-//W3C//DTD SVG 20010904//EN"
 "http://www.w3.org/TR/2001/REC-SVG-20010904/DTD/svg10.dtd">
<svg version="1.0" xmlns="http://www.w3.org/2000/svg"
 width="96.000000pt" height="68.000000pt" viewBox="0 0 96.000000 68.000000"
 preserveAspectRatio="xMidYMid meet">
<metadata>
Created by potrace 1.16, written by Peter Selinger 2001-2019
Combined from part_0.svg through part_5.svg with named groups
</metadata>
<g transform="translate(0.000000,68.000000) scale(0.100000,-0.100000)" fill="#000000" stroke="none">
<g id="part-0" class="char-part">
  <path d="M280 554 c-6 -14 -10 -31 -10 -38 0 -23 -98 -162 -145 -205 -26 -24
-45 -45 -42 -47 9 -9 53 15 96 50 50 42 86 47 95 14 9 -36 8 -38 -26 -38 -18
0 -43 -3 -55 -6 -41 -11 -24 -24 31 -24 l53 0 2 -54 1 -54 -51 -11 c-27 -6
-66 -11 -84 -11 -19 0 -35 -4 -35 -9 0 -14 41 -41 62 -41 28 0 258 81 258 91
0 12 -42 11 -74 -1 -26 -9 -26 -9 -26 44 l0 54 46 11 c52 13 49 28 -5 33 -27
2 -35 8 -36 25 -1 17 5 22 37 27 24 4 38 12 38 21 0 18 -34 19 -95 4 -24 -6
-48 -9 -53 -8 -5 2 8 30 28 61 l37 57 33 -29 c38 -34 43 -35 59 -16 18 21 3
43 -40 60 -21 9 -39 22 -39 31 0 13 -28 35 -45 35 -3 0 -10 -12 -15 -26z"/>
  <path d="M675 495 c62 -58 85 -67 85 -37 0 29 -21 50 -73 72 -75 31 -77 24
-12 -35z"/>
  <path d="M496 523 c-4 -5 -14 -21 -22 -38 -7 -16 -21 -40 -30 -52 -27 -37 1
-26 52 20 34 31 46 48 41 60 -7 18 -28 22 -41 10z"/>
  <path d="M600 404 c-36 -7 -87 -13 -114 -14 -48 0 -49 -1 -32 -19 10 -11 20
-38 23 -62 4 -29 11 -43 24 -46 24 -7 24 -9 -6 -61 -14 -24 -22 -48 -19 -53 3
-5 -2 -6 -10 -3 -8 3 -17 -2 -20 -13 -4 -10 -24 -31 -47 -47 -22 -15 -38 -30
-36 -33 6 -5 60 22 100 49 37 26 97 117 97 146 0 19 5 23 23 20 21 -3 22 -9
27 -95 6 -116 14 -126 109 -131 49 -3 77 0 99 12 35 18 38 32 20 83 -14 38
-28 43 -28 10 0 -12 -7 -33 -16 -45 -12 -18 -25 -22 -67 -22 -72 0 -82 9 -80
68 1 26 7 61 13 76 8 21 7 32 -1 42 -9 11 -6 14 18 14 22 0 29 5 30 20 1 11 9
35 17 52 21 41 20 43 -9 56 -30 14 -29 14 -115 -4z m67 -51 c-4 -20 -10 -40
-16 -46 -5 -5 -39 -9 -77 -10 l-68 -2 -9 33 c-6 18 -8 34 -5 37 6 6 105 22
147 24 33 1 34 1 28 -36z"/>
  <path d="M366 224 c-9 -20 -15 -39 -12 -41 7 -8 67 27 73 44 6 15 -12 33 -33
33 -6 0 -18 -16 -28 -36z"/>
  <path d="M168 214 c26 -49 82 -70 82 -31 0 20 -21 36 -60 43 -29 6 -31 5 -22
-12z"/>
</g>
<g id="part-1" class="char-part">
  <path d="M286 558 c-20 -64 -30 -85 -63 -136 -21 -31 -59 -78 -85 -104 -57
-58 -42 -62 30 -8 62 47 99 52 108 15 8 -33 4 -36 -51 -42 -25 -3 -45 -10 -45
-16 0 -5 20 -8 49 -5 l49 5 5 -56 c3 -31 3 -59 -2 -64 -4 -4 -44 -10 -88 -14
-87 -6 -100 -20 -42 -43 23 -10 36 -10 56 -1 15 7 69 26 120 42 51 17 93 35
93 41 0 6 -9 8 -22 4 -13 -4 -36 -9 -51 -13 l-28 -6 3 59 c3 50 6 59 23 62 51
7 65 13 59 23 -4 6 -21 9 -39 6 -30 -5 -33 -3 -37 23 -4 27 -1 29 34 35 37 7
48 18 29 29 -5 4 -39 -1 -76 -9 -37 -9 -69 -14 -72 -12 -5 5 78 127 87 127 4
0 17 -11 30 -25 29 -31 60 -33 60 -4 0 14 -12 25 -39 37 -21 9 -42 26 -47 37
-11 23 -42 32 -48 13z"/>
  <path d="M375 229 c-21 -39 -14 -46 24 -23 36 21 38 29 11 44 -16 9 -22 6 -35
-21z"/>
  <path d="M170 223 c0 -12 49 -63 60 -63 14 0 12 36 -2 48 -19 14 -58 25 -58
15z"/>
</g>
<g id="part-2" class="char-part">
  <path d="M656 509 c69 -60 93 -74 105 -62 18 18 -8 51 -61 78 -27 14 -59 25
-70 25 -17 0 -12 -8 26 -41z"/>
  <path d="M490 516 c0 -8 -16 -35 -35 -60 -19 -25 -32 -46 -29 -46 14 0 52 26
86 58 29 27 35 39 27 49 -15 17 -49 17 -49 -1z"/>
</g>
<g id="part-3" class="char-part">
  <path d="M600 405 c-36 -8 -86 -14 -113 -15 -47 0 -47 0 -33 -22 8 -13 18 -42
22 -65 6 -42 7 -43 43 -38 20 2 71 7 114 11 42 3 75 10 72 14 -3 5 4 30 16 55
13 28 18 50 13 55 -17 17 -68 19 -134 5z m70 -43 c0 -50 -18 -62 -94 -65 l-69
-2 -9 34 c-5 18 -7 35 -5 37 5 5 111 21 150 23 23 1 27 -3 27 -27z"/>
</g>
<g id="part-4" class="char-part">
  <path d="M608 193 c3 -106 8 -120 42 -138 60 -31 200 -9 200 31 0 25 -23 84
-32 84 -4 0 -8 -13 -8 -28 0 -43 -28 -62 -88 -62 -70 0 -86 18 -77 83 3 28 11
59 17 70 11 22 -3 37 -37 37 -19 0 -20 -6 -17 -77z"/>
</g>
</g>
</svg>