<?xml version="1.0" standalone="no"?>
<!DOCTYPE svg PUBLIC "-//W3C//DTD SVG 20010904//EN"
 "http://www.w3.org/TR/2001/REC-SVG-20010904/DTD/svg10.dtd">
<svg version="1.0" xmlns="http://www.w3.org/2000/svg"
 width="96.000000pt" height="68.000000pt" viewBox="0 0 96.000000 68.000000"
 preserveAspectRatio="xMidYMid meet">
<metadata>
Created by potrace 1.16, written by Peter Selinger 2001-2019
Combined from part_0.svg through part_5.svg with named groups
</metadata>
<g transform="translate(0.000000,68.000000) scale(0.100000,-0.100000)" fill="#000000" stroke="none">
<g id="part-0" class="char-part">
  <path d="M361 608 c-6 -18 -23 -44 -37 -59 -29 -31 -29 -65 1 -63 11 1 51 8
88 17 62 13 68 13 65 -1 -4 -19 -67 -32 -203 -42 -5 0 -3 -5 6 -10 10 -6 48
-6 100 0 46 5 124 12 172 15 78 6 86 9 70 21 -13 10 -34 12 -77 7 l-59 -6 29
39 c16 21 35 45 42 52 21 23 2 35 -47 29 -25 -3 -56 -9 -68 -12 -17 -6 -23 -3
-23 8 0 14 -28 37 -43 37 -3 0 -10 -14 -16 -32z m129 -42 c0 -25 -1 -26 -94
-41 -39 -7 -39 -6 -24 16 9 15 33 28 64 35 27 6 50 12 52 13 1 0 2 -10 2 -23z"/>
  <path d="M465 429 c-188 -18 -229 -19 -265 -5 -11 4 -20 -6 -32 -37 -22 -52
-23 -77 -2 -77 9 0 23 17 32 40 17 40 17 40 74 40 48 0 131 8 375 35 48 5 59
-4 38 -31 -8 -10 -15 -22 -15 -25 0 -10 114 17 117 28 6 16 -61 53 -93 52 -16
-1 -119 -10 -229 -20z"/>
  <path d="M465 384 c-44 -7 -101 -13 -128 -13 -47 -1 -47 -1 -33 -23 8 -13 18
-42 22 -65 7 -43 7 -43 50 -43 30 0 44 -4 44 -14 0 -13 -95 -26 -192 -26 -21
0 -38 -4 -38 -9 0 -14 45 -17 120 -9 36 3 67 4 70 1 9 -8 -43 -43 -125 -83
-44 -22 -72 -39 -63 -40 27 0 120 37 171 70 26 16 50 30 52 30 2 0 5 -33 7
-73 2 -56 6 -72 18 -72 12 0 16 17 18 78 2 42 6 77 10 77 5 0 47 -24 94 -54
47 -30 96 -57 108 -61 26 -8 130 3 130 14 0 4 -28 13 -62 20 -35 7 -97 28
-138 46 -41 18 -84 35 -95 39 -40 14 10 26 115 26 97 1 103 2 85 16 -16 13
-38 14 -120 9 -55 -4 -104 -8 -109 -9 -6 0 -12 7 -14 18 -4 17 1 18 45 14 l49
-5 32 62 c18 33 32 63 32 67 0 3 -11 9 -24 12 -13 3 -30 8 -38 10 -7 2 -49 -3
-93 -10z m85 -34 c0 -17 -7 -20 -40 -20 -33 0 -40 3 -40 20 0 17 7 20 40 20
33 0 40 -3 40 -20z m-132 -11 c4 -21 -68 -35 -80 -16 -12 18 -10 25 10 30 32
9 67 2 70 -14z m118 -54 c-5 -15 -64 -17 -65 -2 -2 22 2 26 32 29 34 3 42 -4
33 -27z m-113 -5 c-4 -15 -14 -20 -39 -20 -27 0 -34 4 -34 20 0 17 7 20 39 20
34 0 38 -3 34 -20z"/>
</g>
<g id="part-1" class="char-part">
  <path d="M361 598 c-6 -18 -24 -45 -38 -60 -43 -45 -21 -55 74 -34 99 22 106
29 18 20 l-69 -7 37 43 c28 33 34 46 26 57 -19 22 -36 15 -48 -19z"/>
</g>
<g id="part-2" class="char-part">
  <path d="M460 484 c-47 -7 -112 -16 -145 -20 -51 -5 -56 -8 -36 -15 15 -6 54
-6 100 0 42 6 115 13 164 17 83 6 105 15 71 28 -21 8 -52 6 -154 -10z"/>
</g>
<g id="part-3" class="char-part">
  <path d="M520 433 c-85 -7 -196 -12 -245 -11 l-91 3 -21 -46 c-13 -29 -17 -52
-12 -60 12 -20 42 1 53 38 8 29 11 31 65 32 31 1 135 10 231 20 96 11 179 15
184 11 5 -5 2 -20 -8 -35 -17 -26 -17 -27 2 -21 11 4 39 10 63 14 54 9 60 26
17 52 -37 23 -29 22 -238 3z"/>
</g>
<g id="part-4" class="char-part">
  <path d="M470 385 c-36 -7 -91 -13 -123 -14 l-58 -1 16 -30 c8 -16 19 -46 23
-67 l8 -37 59 4 c33 3 83 4 111 4 l50 0 32 60 c26 48 29 63 19 73 -19 19 -66
22 -137 8z m80 -35 c0 -17 -7 -20 -39 -20 -24 0 -41 5 -44 14 -8 20 2 26 45
26 31 0 38 -3 38 -20z m-136 -7 c4 -9 1 -20 -6 -25 -13 -8 -68 -11 -68 -4 0 2
-3 11 -6 19 -4 11 2 17 18 20 45 8 56 7 62 -10z m126 -54 c-15 -27 -80 -27
-80 0 0 16 8 21 38 23 48 4 54 1 42 -23z m-120 -9 c0 -16 -7 -20 -35 -20 -28
0 -35 4 -35 20 0 16 7 20 35 20 28 0 35 -4 35 -20z"/>
</g>
<g id="part-5" class="char-part">
  <path d="M425 221 c3 -5 -4 -12 -14 -16 -11 -3 -22 -14 -26 -24 -4 -15 -32
-36 -95 -71 -8 -5 -11 -13 -6 -17 5 -4 11 -2 13 5 3 6 9 12 13 12 5 0 32 13
60 30 27 16 50 26 50 22 0 -4 5 0 11 8 9 12 9 11 4 -5 -14 -37 -17 -113 -5
-120 18 -11 22 0 25 65 1 33 5 63 8 66 3 3 18 -2 34 -12 l28 -17 -30 26 c-16
15 -26 26 -22 27 5 0 2 7 -7 15 -16 16 -51 21 -41 6z m25 -98 c0 -21 -3 -24
-9 -14 -5 8 -7 20 -4 28 8 21 13 15 13 -14z"/>
  <path d="M627 223 c-4 -3 -35 -9 -69 -13 l-63 -7 67 -2 c37 0 70 4 73 9 3 6
11 10 16 10 6 0 7 -4 4 -10 -4 -6 7 -10 27 -10 l33 1 -25 14 c-27 15 -53 19
-63 8z"/>
  <path d="M230 191 c0 -10 68 -13 74 -2 3 5 -12 9 -34 9 -22 0 -40 -3 -40 -7z"/>
  <path d="M320 192 c0 -5 14 -7 30 -4 17 2 30 6 30 8 0 2 -13 4 -30 4 -16 0
-30 -4 -30 -8z"/>
  <path d="M530 152 c0 -13 41 -33 52 -26 7 4 8 3 4 -4 -4 -7 10 -20 36 -34 50
-27 101 -41 91 -25 -4 7 5 8 25 4 19 -4 32 -2 32 3 0 6 -9 11 -20 11 -11 1
-24 3 -30 4 -5 1 -24 3 -41 4 -16 0 -28 4 -25 9 2 4 -25 19 -60 34 -35 15 -64
24 -64 20z"/>
</g>
</g>
</svg>