<?xml version="1.0" standalone="no"?>
<!DOCTYPE svg PUBLIC "-//W3C//DTD SVG 20010904//EN"
 "http://www.w3.org/TR/2001/REC-SVG-20010904/DTD/svg10.dtd">
<svg version="1.0" xmlns="http://www.w3.org/2000/svg"
 width="96.000000pt" height="68.000000pt" viewBox="0 0 96.000000 68.000000"
 preserveAspectRatio="xMidYMid meet">
<metadata>
Created by potrace 1.16, written by Peter Selinger 2001-2019
Combined from part_0.svg through part_5.svg with named groups
</metadata>
<g transform="translate(0.000000,68.000000) scale(0.100000,-0.100000)" fill="#000000" stroke="none">
<g id="part-0" class="char-part">
  <path d="M260 556 c-16 -51 -68 -124 -101 -143 -32 -19 -39 -57 -13 -67 10 -4
37 1 61 10 24 9 47 14 51 10 4 -5 -19 -32 -51 -62 -85 -79 -62 -93 70 -43 52
20 66 22 83 11 44 -27 54 -5 15 33 -27 28 -67 36 -45 10 10 -12 8 -16 -13 -24
-33 -13 -97 -25 -97 -18 0 3 36 40 80 83 44 42 80 83 80 90 0 7 -9 18 -20 24
-18 10 -22 7 -31 -20 -13 -36 -28 -45 -89 -55 -52 -9 -52 -9 37 87 57 60 61
71 39 94 -24 23 -44 16 -56 -20z"/>
  <path d="M645 424 c-27 -7 -81 -16 -120 -20 -93 -9 -104 -18 -30 -24 l60 -5 3
-96 c3 -110 4 -108 -93 -109 -63 0 -87 -13 -57 -29 16 -9 42 -8 108 4 48 8
138 15 200 15 112 0 136 8 94 30 -12 7 -54 8 -115 4 -67 -5 -95 -4 -95 4 0 6
5 45 11 87 9 58 9 79 0 88 -9 9 4 14 56 22 37 6 67 14 66 20 -3 18 -39 22 -88
9z"/>
  <path d="M320 231 c0 -13 36 -51 49 -51 15 0 14 25 -1 37 -20 15 -48 23 -48
14z"/>
  <path d="M245 170 c17 -33 45 -40 45 -12 0 11 -11 24 -25 30 -36 17 -37 16
-20 -18z"/>
  <path d="M120 154 c49 -65 80 -83 80 -46 0 24 -27 49 -65 58 -28 7 -29 6 -15
-12z"/>
</g>
<g id="part-1" class="char-part">
  <path d="M264 553 c-9 -38 -55 -103 -98 -141 -23 -20 -34 -37 -30 -47 7 -19 9
-19 80 0 76 20 95 37 31 29 -26 -4 -47 -3 -47 1 0 4 29 41 65 82 53 60 63 78
54 89 -19 24 -48 17 -55 -13z"/>
</g>
<g id="part-2" class="char-part">
  <path d="M316 228 c26 -47 64 -64 64 -29 0 12 -11 23 -31 30 -40 14 -42 14
-33 -1z"/>
  <path d="M230 193 c1 -21 39 -56 54 -50 24 10 19 25 -14 42 -33 17 -40 18 -40
8z"/>
  <path d="M110 165 c0 -9 72 -85 81 -85 5 0 9 14 9 31 0 25 -6 32 -35 45 -35
14 -55 18 -55 9z"/>
</g>
<g id="part-3" class="char-part">
  <path d="M615 419 c-44 -9 -99 -18 -122 -18 -23 -1 -45 -5 -48 -11 -7 -12 29
-20 75 -17 l35 2 3 -96 c3 -109 4 -108 -88 -110 -25 0 -56 -4 -69 -8 l-24 -6
28 -13 c21 -10 41 -10 79 -3 81 16 133 20 251 20 104 1 108 2 92 19 -15 14
-34 17 -123 14 l-106 -3 9 58 c4 32 8 77 8 100 l0 42 57 6 c64 8 79 18 49 34
-11 6 -21 10 -23 10 -2 -1 -39 -10 -83 -20z"/>
</g>
</g>
</svg>