<?xml version="1.0" standalone="no"?>
<!DOCTYPE svg PUBLIC "-//W3C//DTD SVG 20010904//EN"
 "http://www.w3.org/TR/2001/REC-SVG-20010904/DTD/svg10.dtd">
<svg version="1.0" xmlns="http://www.w3.org/2000/svg"
 width="96.000000pt" height="68.000000pt" viewBox="0 0 96.000000 68.000000"
 preserveAspectRatio="xMidYMid meet">
<metadata>
Created by potrace 1.16, written by Peter Selinger 2001-2019
Combined from part_0.svg through part_5.svg with named groups
</metadata>
<g transform="translate(0.000000,68.000000) scale(0.100000,-0.100000)" fill="#000000" stroke="none">
<g id="part-0" class="char-part">
  <path d="M605 589 c-16 -4 -103 -13 -192 -19 l-162 -13 19 -26 c10 -14 24 -50
30 -79 12 -50 39 -81 48 -54 2 7 25 12 58 12 46 0 54 -3 54 -19 0 -21 -26 -31
-82 -31 -21 0 -38 -4 -38 -10 0 -6 27 -10 60 -10 52 0 60 -3 60 -19 0 -20 -49
-31 -146 -31 -34 0 -54 -4 -54 -12 0 -8 39 -9 148 -4 258 11 313 17 301 32 -8
10 -34 12 -110 7 -97 -6 -99 -5 -99 15 0 19 6 22 38 22 20 0 47 3 59 6 39 11
14 24 -43 24 -39 0 -54 4 -54 14 0 24 86 36 108 14 14 -14 38 3 48 35 4 12 17
44 30 71 13 28 20 54 16 58 -16 16 -67 25 -97 17z m25 -50 c0 -7 -5 -29 -12
-50 l-11 -39 -54 0 -55 0 3 43 c1 23 4 45 6 50 7 12 123 8 123 -4z m-170 -44
c0 -39 -3 -45 -24 -51 -13 -3 -38 -4 -56 -2 -29 3 -34 8 -46 48 -8 25 -14 46
-14 48 0 1 32 2 70 2 l70 0 0 -45z"/>
  <path d="M546 505 c-15 -19 -25 -35 -23 -35 8 0 87 41 87 45 0 2 -9 9 -19 14
-16 9 -23 5 -45 -24z"/>
  <path d="M350 512 c0 -15 45 -52 63 -52 20 0 23 23 5 37 -18 14 -68 25 -68 15z"/>
  <path d="M520 264 c0 -19 37 -64 52 -64 23 0 24 33 2 54 -15 15 -54 22 -54 10z"/>
  <path d="M680 262 c0 -4 21 -29 47 -55 42 -43 48 -46 62 -32 21 20 7 43 -45
72 -40 23 -64 29 -64 15z"/>
  <path d="M350 256 c0 -19 34 -76 43 -73 16 5 12 58 -5 69 -13 8 -38 11 -38 4z"/>
  <path d="M186 221 c-28 -29 -32 -61 -9 -68 18 -6 53 38 53 69 0 35 -9 35 -44
-1z"/>
  <path d="M447 180 l6 -40 -62 0 c-34 0 -61 -4 -61 -10 0 -6 29 -10 66 -10 l65
0 -3 -27 c-3 -27 -6 -28 -63 -30 -117 -5 -189 -15 -174 -24 14 -9 510 -2 539
8 12 4 11 7 -5 19 -16 12 -42 14 -138 8 l-119 -7 4 28 c3 24 8 28 38 31 70 7
101 15 94 25 -4 6 -32 9 -68 7 -58 -3 -61 -2 -61 20 -1 25 -19 42 -47 42 -13
0 -15 -7 -11 -40z"/>
</g>
<g id="part-1" class="char-part">
  <path d="M555 579 c-33 -4 -113 -11 -177 -15 -65 -4 -118 -9 -118 -11 0 -2 6
-11 14 -18 8 -8 19 -38 26 -67 14 -61 29 -85 40 -67 5 8 55 13 150 14 78 2
146 7 150 12 5 4 20 37 34 73 25 61 25 66 9 77 -18 14 -37 14 -128 2z m79 -28
c3 -5 -1 -31 -10 -57 l-15 -49 -62 0 c-34 0 -93 -2 -132 -5 l-69 -5 -14 48
c-7 27 -12 50 -10 52 2 1 52 5 112 9 60 3 112 8 114 11 9 9 81 5 86 -4z"/>
</g>
<g id="part-2" class="char-part">
  <path d="M460 394 c0 -24 -23 -34 -82 -34 -21 0 -38 -4 -38 -10 0 -6 27 -10
60 -10 52 0 60 -3 60 -19 0 -20 -49 -31 -146 -31 -29 0 -56 -4 -59 -10 -4 -6
17 -10 56 -10 80 0 403 21 409 27 21 19 -94 24 -204 9 -15 -2 -19 34 -4 38 7
3 34 7 61 11 67 9 59 25 -13 25 -53 0 -60 2 -60 19 0 14 -6 19 -20 18 -13 -1
-20 -8 -20 -23z"/>
</g>
<g id="part-3" class="char-part">
  <path d="M520 264 c0 -19 37 -64 52 -64 30 0 24 48 -8 60 -29 11 -44 13 -44 4z"/>
  <path d="M710 223 c25 -26 50 -51 55 -55 26 -20 46 21 23 49 -13 16 -90 53
-111 53 -6 0 9 -21 33 -47z"/>
  <path d="M182 219 c-30 -41 -33 -69 -6 -69 24 0 54 39 54 69 0 45 -15 45 -48
0z"/>
  <path d="M350 250 c0 -22 31 -70 45 -70 20 0 19 44 -1 64 -18 18 -44 21 -44 6z"/>
</g>
<g id="part-4" class="char-part">
  <path d="M446 193 c4 -16 7 -32 8 -38 0 -5 -24 -11 -54 -13 -82 -5 -87 -22 -7
-22 l67 0 0 -30 0 -30 -79 0 c-101 0 -172 -10 -164 -23 4 -6 60 -7 162 -2 86
4 206 8 268 9 117 1 139 7 103 26 -15 8 -56 9 -136 4 l-114 -7 0 30 c0 25 4
29 33 31 17 1 50 5 71 8 63 10 17 28 -50 19 l-54 -6 0 29 c0 29 -14 42 -46 42
-11 0 -13 -7 -8 -27z"/>
</g>
</g>
</svg>