<?xml version="1.0" standalone="no"?>
<!DOCTYPE svg PUBLIC "-//W3C//DTD SVG 20010904//EN"
 "http://www.w3.org/TR/2001/REC-SVG-20010904/DTD/svg10.dtd">
<svg version="1.0" xmlns="http://www.w3.org/2000/svg"
 width="96.000000pt" height="68.000000pt" viewBox="0 0 96.000000 68.000000"
 preserveAspectRatio="xMidYMid meet">
<metadata>
Created by potrace 1.16, written by Peter Selinger 2001-2019
Combined from part_0.svg through part_5.svg with named groups
</metadata>
<g transform="translate(0.000000,68.000000) scale(0.100000,-0.100000)" fill="#000000" stroke="none">
<g id="part-0" class="char-part">
  <path d="M300 573 c0 -44 -71 -153 -164 -250 -68 -73 -4 -51 77 26 l37 35 0
-89 c0 -50 -7 -115 -15 -144 -16 -61 -5 -103 27 -109 21 -4 24 13 35 198 7
107 6 138 -4 151 -19 22 -18 24 37 100 l50 69 -20 20 c-30 30 -60 26 -60 -7z"/>
  <path d="M520 595 c0 -4 12 -21 27 -39 l26 -31 -98 -15 c-89 -14 -96 -16 -81
-30 16 -12 17 -24 12 -81 -10 -99 -43 -228 -71 -276 -32 -53 -32 -63 1 -32 38
35 69 103 89 192 13 58 21 77 34 77 9 0 40 3 69 6 48 6 52 5 52 -14 0 -18 -8
-22 -50 -28 -27 -4 -47 -11 -44 -16 3 -5 26 -6 50 -2 40 6 44 4 44 -15 0 -23
-1 -23 -73 -26 l-48 -2 -3 -74 c-2 -45 -9 -87 -20 -107 -10 -19 -15 -36 -13
-39 7 -6 57 61 57 75 0 8 19 12 50 12 l50 0 0 -45 c0 -45 12 -60 24 -29 3 9 6
31 6 50 0 33 1 34 39 34 22 0 46 3 54 6 21 7 31 -29 17 -57 -10 -17 -17 -20
-47 -14 l-34 6 41 -37 41 -37 22 22 c19 18 23 37 29 129 4 69 3 111 -4 120
-12 14 -57 15 -110 3 -36 -8 -38 -8 -38 15 0 23 3 24 61 24 52 0 60 2 50 14
-9 11 -10 20 -1 35 8 16 20 21 55 21 55 0 59 17 6 26 -31 5 -38 10 -34 25 7
26 -32 39 -84 29 -23 -4 -48 -3 -55 1 -20 13 -48 11 -46 -3 2 -9 -13 -14 -44
-16 -64 -4 -62 -22 2 -22 38 0 50 -4 50 -15 0 -19 -9 -22 -77 -29 l-53 -5 0
49 c0 27 3 51 8 53 11 7 148 26 235 33 50 4 75 9 71 16 -4 7 -34 9 -80 5 -56
-4 -74 -2 -74 7 0 7 -8 20 -17 29 -20 17 -73 33 -73 22z m180 -165 c0 -11 -4
-20 -9 -20 -5 0 -23 -3 -40 -6 -27 -6 -31 -4 -31 14 0 21 15 29 58 31 16 1 22
-5 22 -19z m-16 -73 c-9 -25 -64 -23 -64 2 0 14 8 21 28 23 33 4 45 -3 36 -25z
m-104 -127 c0 -20 -19 -30 -56 -30 -38 0 -32 35 9 47 38 12 47 8 47 -17z m140
10 c0 -13 -7 -20 -19 -20 -10 0 -33 -3 -50 -6 -28 -6 -31 -4 -31 20 0 25 3 26
50 26 43 0 50 -3 50 -20z m10 -44 c0 -2 -3 -11 -6 -20 -8 -21 -99 -23 -107 -2
-4 9 1 17 11 19 22 6 102 8 102 3z m-152 -23 c-2 -13 -15 -19 -46 -21 -44 -3
-45 -3 -36 22 4 11 19 16 46 16 32 0 39 -3 36 -17z"/>
</g>
<g id="part-1" class="char-part">
  <path d="M306 584 c-3 -9 -6 -23 -6 -33 0 -23 -89 -156 -144 -214 -25 -27 -46
-51 -46 -53 0 -9 59 30 98 63 20 17 40 29 45 26 11 -7 2 -140 -15 -230 -10
-57 -10 -64 7 -83 17 -19 20 -19 28 -4 5 9 13 87 17 173 7 125 5 159 -5 170
-12 12 -6 26 37 89 l51 75 -23 19 c-27 22 -36 23 -44 2z"/>
</g>
<g id="part-2" class="char-part">
  <path d="M520 594 c0 -3 12 -20 26 -37 l27 -32 -39 -6 c-22 -4 -65 -10 -96
-13 l-58 -7 17 -25 c14 -22 15 -35 4 -112 -14 -91 -52 -221 -77 -259 -24 -37
-16 -39 21 -3 48 47 101 213 108 340 l2 44 60 13 c33 7 87 13 120 13 80 1 144
13 127 23 -16 11 -57 12 -109 2 -35 -5 -43 -4 -43 8 0 18 -51 57 -74 57 -9 0
-16 -3 -16 -6z"/>
</g>
<g id="part-3" class="char-part">
  <path d="M570 465 c0 -11 -11 -15 -39 -15 -22 0 -43 -4 -46 -10 -4 -6 13 -10
45 -10 44 0 51 -3 48 -17 -2 -12 -14 -19 -33 -21 -62 -5 -95 -13 -95 -23 0 -7
22 -8 65 -4 61 7 65 6 65 -13 0 -18 -8 -22 -51 -28 -33 -4 -46 -10 -37 -15 7
-5 29 -6 49 -3 l36 6 1 -127 c1 -70 5 -132 9 -138 13 -21 25 40 30 156 l6 117
55 0 c45 0 53 3 48 16 -12 32 12 54 59 54 45 0 59 12 29 24 -9 3 -26 6 -39 6
-18 0 -22 4 -18 20 7 28 -33 45 -79 32 -21 -6 -41 -6 -49 -1 -23 14 -59 11
-59 -6z m130 -35 c0 -11 -4 -20 -9 -20 -5 0 -23 -3 -40 -6 -27 -6 -31 -4 -31
14 0 21 15 29 58 31 16 1 22 -5 22 -19z m-17 -70 c-4 -14 -14 -20 -34 -20 -22
0 -29 5 -29 20 0 16 7 20 34 20 29 0 33 -3 29 -20z"/>
</g>
<g id="part-4" class="char-part">
  <path d="M660 279 c-19 -5 -73 -10 -120 -11 l-86 -3 4 -55 c3 -39 -2 -71 -17
-109 -11 -30 -19 -57 -16 -59 2 -2 18 16 35 40 l31 43 112 12 c62 6 116 8 121
3 4 -4 5 -22 1 -40 -7 -31 -9 -32 -43 -26 l-36 5 37 -37 37 -37 22 23 c20 19
24 37 30 130 6 92 4 109 -10 120 -18 14 -50 14 -102 1z m44 -15 c9 -3 16 -14
16 -24 0 -18 -7 -20 -158 -36 -63 -7 -64 -7 -60 17 3 22 9 25 78 31 41 5 79
10 85 12 15 7 22 7 39 0z m26 -78 c0 -22 -6 -23 -115 -31 -55 -4 -103 -9 -107
-11 -11 -7 -19 13 -12 30 6 15 10 16 192 24 31 1 42 -2 42 -12z"/>
</g>
</g>
</svg>