<?xml version="1.0" standalone="no"?>
<!DOCTYPE svg PUBLIC "-//W3C//DTD SVG 20010904//EN"
 "http://www.w3.org/TR/2001/REC-SVG-20010904/DTD/svg10.dtd">
<svg version="1.0" xmlns="http://www.w3.org/2000/svg"
 width="96.000000pt" height="68.000000pt" viewBox="0 0 96.000000 68.000000"
 preserveAspectRatio="xMidYMid meet">
<metadata>
Created by potrace 1.16, written by Peter Selinger 2001-2019
Combined from part_0.svg through part_5.svg with named groups
</metadata>
<g transform="translate(0.000000,68.000000) scale(0.100000,-0.100000)" fill="#000000" stroke="none">
<g id="part-0" class="char-part">
  <path d="M210 546 c0 -22 45 -81 64 -84 34 -7 42 42 11 68 -23 19 -75 30 -75
16z"/>
  <path d="M489 519 c30 -9 33 -13 28 -38 -7 -34 -54 -105 -96 -145 -38 -37 -40
-51 -3 -32 26 14 92 77 130 126 l19 24 27 -29 c14 -17 36 -44 48 -62 33 -46
54 -54 138 -51 l75 3 -73 29 c-83 33 -112 53 -194 131 -50 48 -63 55 -95 54
l-38 -1 34 -9z"/>
  <path d="M315 460 c2 -4 -42 -13 -98 -20 -56 -7 -111 -16 -122 -20 -18 -6 -17
-9 12 -23 32 -17 47 -15 271 29 36 7 20 28 -26 35 -22 3 -39 2 -37 -1z"/>
  <path d="M232 350 c-60 -14 -48 -23 22 -17 77 7 117 28 51 26 -22 -1 -55 -5
-73 -9z"/>
  <path d="M598 300 c-14 -4 -58 -11 -98 -15 -74 -7 -84 -15 -28 -21 51 -6 58
-11 58 -43 0 -28 -3 -30 -45 -37 -53 -7 -50 -27 4 -22 35 3 36 2 39 -33 l3
-37 -86 -7 c-66 -5 -84 -10 -76 -18 7 -7 33 -11 59 -10 26 1 120 5 210 9 125
4 162 9 162 19 0 22 -59 36 -105 25 -22 -5 -57 -10 -77 -10 -36 0 -38 1 -38
34 0 36 15 46 73 46 15 0 27 5 27 10 0 10 -23 14 -71 10 -23 -1 -25 2 -25 34
1 35 2 36 49 42 28 4 46 11 44 18 -4 14 -44 17 -79 6z"/>
  <path d="M280 290 c-14 -4 -40 -8 -57 -9 -18 -1 -33 -6 -33 -12 0 -8 18 -10
61 -5 56 7 119 24 92 25 -6 1 -17 3 -25 5 -7 2 -24 0 -38 -4z"/>
  <path d="M275 210 c-11 -5 -44 -9 -74 -9 -51 -1 -53 -2 -39 -18 9 -10 19 -32
23 -50 7 -36 29 -60 40 -43 3 5 28 10 56 10 44 0 49 2 49 23 0 12 7 33 16 45
9 13 13 29 10 37 -6 16 -49 19 -81 5z m26 -46 c-4 -41 -8 -44 -46 -44 -33 0
-45 13 -45 50 0 14 9 20 38 23 54 5 57 3 53 -29z"/>
</g>
<g id="part-1" class="char-part">
  <path d="M231 510 c22 -39 43 -55 60 -44 30 18 -20 84 -63 84 -19 0 -18 -1 3
-40z"/>
  <path d="M223 437 c-73 -11 -133 -23 -133 -28 0 -20 70 -19 183 2 123 23 134
26 126 33 -14 13 -60 11 -176 -7z"/>
</g>
<g id="part-2" class="char-part">
  <path d="M275 213 c-22 -8 -59 -13 -82 -11 -41 3 -54 -4 -34 -17 5 -3 17 -28
26 -55 16 -49 28 -60 40 -40 3 6 24 10 45 10 50 0 70 8 63 27 -3 8 4 27 16 43
26 37 27 36 -6 48 -20 6 -40 5 -68 -5z m25 -37 c0 -43 -10 -56 -45 -56 -27 0
-34 5 -39 26 -8 32 -1 41 39 47 17 2 33 5 38 6 4 0 7 -10 7 -23z"/>
</g>
<g id="part-3" class="char-part">
  <path d="M460 529 c0 -4 14 -10 30 -14 18 -4 30 -13 30 -22 0 -24 -48 -102
-92 -151 -22 -24 -38 -46 -35 -49 3 -2 22 7 44 21 34 23 53 42 110 115 l19 23
63 -71 63 -71 82 1 c90 0 93 -4 -35 52 -36 16 -84 51 -130 95 -59 55 -82 70
-111 74 -21 2 -38 1 -38 -3z"/>
</g>
<g id="part-4" class="char-part">
  <path d="M535 290 c-86 -13 -104 -18 -83 -24 29 -8 204 11 228 25 8 5 10 9 3
9 -6 0 -17 2 -25 4 -7 2 -62 -4 -123 -14z"/>
</g>
<g id="part-5" class="char-part">
  <path d="M535 241 c-6 -19 1 -123 10 -152 7 -20 18 -22 50 -10 18 7 17 8 -7
14 -21 6 -24 11 -20 33 3 18 -1 31 -12 39 -15 11 -15 13 -1 19 9 3 13 2 10 -4
-3 -6 -1 -10 4 -10 6 0 11 5 11 11 0 5 5 7 10 4 6 -3 10 -1 10 4 0 6 -7 11
-16 11 -11 0 -14 5 -9 18 12 31 10 36 -12 38 -13 1 -25 -6 -28 -15z"/>
  <path d="M610 192 c0 -4 9 -8 20 -8 11 0 20 4 20 8 0 4 -9 8 -20 8 -11 0 -20
-4 -20 -8z"/>
  <path d="M458 173 c7 -3 16 -2 19 1 4 3 -2 6 -13 5 -11 0 -14 -3 -6 -6z"/>
  <path d="M677 100 c-16 -5 -35 -6 -43 -3 -8 3 -14 1 -14 -5 0 -5 7 -12 15 -16
21 -8 75 4 75 16 0 6 6 5 15 -2 11 -9 21 -9 42 -1 l28 11 -28 -5 c-19 -4 -26
-2 -22 5 7 12 -28 12 -68 0z"/>
  <path d="M480 84 c0 -5 -25 -8 -56 -7 -69 2 -64 -8 6 -12 46 -3 71 7 56 22 -3
4 -6 2 -6 -3z"/>
  <path d="M500 80 c0 -5 9 -10 20 -10 11 0 20 5 20 10 0 6 -9 10 -20 10 -11 0
-20 -4 -20 -10z"/>
</g>
</g>
</svg>