<?xml version="1.0" standalone="no"?>
<!DOCTYPE svg PUBLIC "-//W3C//DTD SVG 20010904//EN"
 "http://www.w3.org/TR/2001/REC-SVG-20010904/DTD/svg10.dtd">
<svg version="1.0" xmlns="http://www.w3.org/2000/svg"
 width="96.000000pt" height="68.000000pt" viewBox="0 0 96.000000 68.000000"
 preserveAspectRatio="xMidYMid meet">
<metadata>
Created by potrace 1.16, written by Peter Selinger 2001-2019
Combined from part_0.svg through part_5.svg with named groups
</metadata>
<g transform="translate(0.000000,68.000000) scale(0.100000,-0.100000)" fill="#000000" stroke="none">
<g id="part-0" class="char-part">
  <path d="M538 524 c5 -86 1 -94 -62 -94 l-39 0 7 39 c5 30 2 40 -10 45 -29 11
-34 6 -34 -32 0 -21 -5 -43 -10 -48 -6 -6 -8 -19 -4 -28 5 -14 14 -17 38 -13
62 11 241 37 254 37 6 0 12 -9 12 -20 0 -25 26 -26 38 -2 5 9 15 39 22 65 14
52 7 66 -32 67 -15 0 -18 -9 -18 -45 0 -36 -3 -45 -17 -45 -10 0 -36 -3 -57
-7 l-39 -6 5 72 c6 74 3 80 -36 87 -23 4 -23 3 -18 -72z"/>
  <path d="M255 434 c-22 -8 -60 -14 -85 -14 -63 2 -62 3 -46 -22 8 -13 19 -48
25 -78 6 -30 16 -62 21 -70 9 -13 12 -13 23 2 9 12 31 18 73 20 54 3 59 5 56
25 -2 12 7 45 19 73 13 29 18 55 13 59 -18 17 -60 19 -99 5z m25 -58 c0 -14
-4 -36 -10 -50 -8 -21 -16 -26 -45 -26 -23 0 -35 5 -35 14 0 7 -3 27 -6 44 -7
33 2 39 64 41 28 1 32 -2 32 -23z"/>
  <path d="M550 345 c-52 -7 -105 -14 -117 -14 -46 -2 -21 -21 26 -21 45 0 49
-2 47 -22 -2 -13 -9 -33 -17 -46 -13 -21 -20 -23 -79 -21 -53 3 -64 0 -61 -11
2 -8 6 -44 9 -80 5 -61 16 -85 34 -74 4 3 8 36 8 75 l0 69 40 0 c42 0 44 -4
52 -95 5 -56 23 -30 26 38 l3 67 39 0 40 0 0 -75 c0 -41 4 -75 9 -75 10 0 30
70 33 120 3 34 4 35 43 34 79 -2 75 2 75 -64 0 -67 -9 -77 -53 -61 -33 13 -34
7 -4 -36 45 -67 91 -33 111 82 13 76 13 81 -6 99 -18 17 -28 17 -150 7 -72 -7
-133 -9 -136 -6 -3 3 4 15 16 28 12 13 22 30 22 39 0 12 17 17 76 23 50 4 74
11 71 18 -5 17 -46 17 -157 2z"/>
</g>
<g id="part-1" class="char-part">
  <path d="M235 424 c-29 -7 -67 -11 -90 -7 -39 6 -40 5 -23 -13 10 -11 24 -48
32 -83 16 -68 23 -82 34 -64 4 6 35 14 69 18 35 4 61 11 58 16 -3 5 5 35 18
68 34 84 15 97 -98 65z m45 -63 c0 -55 0 -56 -52 -65 l-36 -7 -11 51 c-6 28
-11 53 -11 55 0 3 23 7 93 13 14 2 17 -6 17 -47z"/>
</g>
<g id="part-2" class="char-part">
  <path d="M538 525 c5 -87 1 -95 -61 -95 l-39 0 7 38 c5 34 3 40 -18 49 -24 11
-25 10 -30 -30 -13 -101 -15 -92 23 -91 19 1 82 8 140 17 133 21 130 21 130
-4 0 -14 5 -19 18 -17 19 4 58 109 48 134 -3 7 -17 14 -31 14 -23 0 -25 -4
-25 -45 0 -36 -3 -45 -17 -45 -10 0 -36 -3 -57 -7 l-39 -6 6 76 c4 56 2 77 -6
77 -7 0 -21 3 -33 6 -20 5 -21 3 -16 -71z"/>
</g>
<g id="part-3" class="char-part">
  <path d="M595 350 c-27 -4 -80 -11 -117 -15 -79 -8 -91 -25 -18 -25 54 0 61
-10 39 -52 -18 -34 0 -33 35 1 19 19 32 39 30 46 -4 9 16 15 71 20 51 4 75 11
72 18 -5 15 -47 17 -112 7z"/>
</g>
<g id="part-4" class="char-part">
  <path d="M585 233 c-77 -7 -164 -12 -193 -9 -47 4 -53 3 -47 -12 4 -9 10 -47
14 -84 11 -108 33 -108 41 0 l5 67 155 13 c199 16 200 16 200 -51 0 -72 -9
-84 -54 -70 l-36 11 28 -39 c30 -43 49 -48 81 -22 15 13 25 40 35 98 14 78 13
80 -8 97 -24 20 -33 20 -221 1z"/>
</g>
</g>
</svg>