<?xml version="1.0" standalone="no"?>
<!DOCTYPE svg PUBLIC "-//W3C//DTD SVG 20010904//EN"
 "http://www.w3.org/TR/2001/REC-SVG-20010904/DTD/svg10.dtd">
<svg version="1.0" xmlns="http://www.w3.org/2000/svg"
 width="96.000000pt" height="68.000000pt" viewBox="0 0 96.000000 68.000000"
 preserveAspectRatio="xMidYMid meet">
<metadata>
Created by potrace 1.16, written by Peter Selinger 2001-2019
Combined from part_0.svg through part_5.svg with named groups
</metadata>
<g transform="translate(0.000000,68.000000) scale(0.100000,-0.100000)" fill="#000000" stroke="none">
<g id="part-0" class="char-part">
  <path d="M306 556 c7 -60 7 -59 -64 -68 -41 -5 -28 -23 20 -26 28 -2 48 -8 52
-17 6 -17 -6 -21 -114 -35 -47 -7 -87 -13 -88 -15 -2 -2 -1 -9 3 -15 5 -8 28
-11 66 -8 73 5 77 -8 17 -65 -36 -33 -39 -38 -18 -32 32 9 112 86 106 101 -3
7 10 14 32 18 65 10 72 8 72 -22 0 -15 5 -33 12 -40 14 -14 98 -16 98 -2 0 6
-18 10 -40 10 -35 0 -40 3 -40 23 0 12 4 27 8 33 10 16 72 29 72 15 0 -6 12
-11 26 -11 25 0 26 -2 19 -37 -4 -21 -10 -40 -14 -43 -5 -3 -11 -18 -15 -35
-4 -16 -23 -49 -42 -72 -48 -59 -26 -54 35 7 43 43 54 49 70 40 27 -14 41 -13
41 5 0 9 -12 21 -26 27 -19 9 -24 17 -21 32 3 12 8 32 11 45 7 30 15 38 41 43
18 3 20 -3 21 -52 1 -80 12 -116 46 -150 25 -25 37 -30 78 -30 27 0 52 5 55
10 4 6 -2 29 -12 52 l-18 41 -5 -29 c-4 -24 -11 -30 -36 -32 -46 -4 -74 34
-74 102 1 28 7 62 15 76 22 39 19 43 -41 38 l-56 -5 5 64 c5 61 4 65 -20 74
-36 13 -41 5 -30 -49 19 -91 -4 -120 -69 -87 -20 10 -40 12 -64 6 -41 -9 -60
-5 -60 15 0 8 15 16 40 20 22 4 43 11 47 16 9 15 -19 29 -49 25 -27 -3 -28 -2
-28 39 0 35 -4 43 -22 48 -46 12 -49 9 -42 -48z"/>
  <path d="M316 320 c7 -31 10 -29 -61 -43 -11 -3 -1 -5 21 -6 32 -1 43 -5 47
-20 8 -32 -8 -42 -72 -48 -65 -6 -75 -14 -38 -30 17 -8 46 -4 127 19 114 32
156 55 80 43 -25 -4 -49 -8 -54 -9 -16 -2 -19 36 -4 45 7 5 23 9 36 9 12 0 22
5 22 10 0 6 -13 10 -30 10 -25 0 -30 4 -30 23 0 17 -6 23 -25 25 -22 2 -24 -1
-19 -28z"/>
  <path d="M670 144 c0 -11 91 -114 100 -114 5 0 12 9 15 21 8 25 -16 54 -67 80
-40 20 -48 23 -48 13z"/>
  <path d="M500 132 c0 -13 50 -82 60 -82 31 0 16 56 -21 75 -32 17 -39 18 -39
7z"/>
  <path d="M350 125 c0 -15 42 -85 50 -85 16 0 11 57 -6 74 -15 15 -44 22 -44
11z"/>
  <path d="M176 89 c-28 -33 -33 -63 -14 -75 17 -11 58 43 58 77 0 37 -12 37
-44 -2z"/>
</g>
<g id="part-1" class="char-part">
  <path d="M306 578 c5 -13 8 -36 9 -53 0 -28 -3 -30 -42 -36 -62 -8 -64 -19 -5
-19 48 0 52 -2 52 -24 0 -23 -5 -25 -87 -36 -49 -6 -97 -15 -108 -19 -44 -19
35 -23 117 -7 73 14 209 35 231 36 4 0 7 5 7 11 0 8 -18 10 -60 5 -56 -7 -60
-6 -60 14 0 21 4 24 53 34 41 9 33 26 -13 26 l-40 0 0 45 c0 44 -1 45 -31 45
-27 0 -30 -2 -23 -22z"/>
</g>
<g id="part-2" class="char-part">
  <path d="M529 296 c24 -25 78 -52 87 -44 12 12 -11 38 -47 52 -55 22 -66 20
-40 -8z"/>
</g>
<g id="part-3" class="char-part">
  <path d="M665 142 c6 -4 30 -31 54 -59 46 -57 71 -67 71 -30 -1 31 -18 51 -67
76 -40 20 -80 30 -58 13z"/>
  <path d="M350 123 c0 -22 36 -83 49 -83 36 0 21 64 -19 85 -28 14 -30 14 -30
-2z"/>
  <path d="M500 135 c0 -13 30 -62 45 -75 14 -12 18 -12 26 1 13 21 11 28 -16
54 -21 22 -55 34 -55 20z"/>
  <path d="M178 93 c-32 -41 -36 -71 -12 -80 29 -11 66 54 56 100 -5 25 -13 21
-44 -20z"/>
</g>
</g>
</svg>