<?xml version="1.0" standalone="no"?>
<!DOCTYPE svg PUBLIC "-//W3C//DTD SVG 20010904//EN"
 "http://www.w3.org/TR/2001/REC-SVG-20010904/DTD/svg10.dtd">
<svg version="1.0" xmlns="http://www.w3.org/2000/svg"
 width="96.000000pt" height="68.000000pt" viewBox="0 0 96.000000 68.000000"
 preserveAspectRatio="xMidYMid meet">
<metadata>
Created by potrace 1.16, written by Peter Selinger 2001-2019
Combined from part_0.svg through part_5.svg with named groups
</metadata>
<g transform="translate(0.000000,68.000000) scale(0.100000,-0.100000)" fill="#000000" stroke="none">
<g id="part-0" class="char-part">
  <path d="M582 608 c-17 -24 -37 -50 -46 -57 -32 -27 -14 -31 33 -7 27 14 51
22 55 19 3 -4 6 -1 6 5 0 7 7 12 16 12 22 0 14 39 -13 57 -20 13 -23 12 -51
-29z"/>
  <path d="M371 580 c37 -56 89 -74 89 -31 0 25 -21 41 -66 48 l-39 6 16 -23z"/>
  <path d="M456 507 c-123 -18 -136 -22 -120 -34 13 -9 39 -13 77 -11 56 3 57 2
57 -23 0 -23 -4 -26 -37 -27 -21 -1 -51 -5 -68 -9 -25 -7 -18 -9 40 -13 67 -5
70 -6 70 -30 0 -25 -2 -25 -112 -35 -153 -14 -161 -32 -10 -25 45 2 46 -8 8
-64 -36 -52 -96 -107 -162 -148 -27 -16 -48 -33 -45 -35 6 -6 108 40 144 65
16 12 54 22 96 27 62 6 68 5 62 -10 -3 -9 -9 -28 -12 -41 -6 -22 -11 -24 -71
-24 -47 0 -64 -3 -60 -12 2 -9 21 -12 53 -11 299 11 394 17 394 24 0 13 -45
22 -90 17 -22 -2 -40 -2 -40 1 0 2 5 21 11 42 l12 38 70 3 c45 2 72 7 75 16 3
9 -14 12 -63 12 l-67 0 7 28 c12 55 -24 64 -160 39 -85 -15 -103 -14 -85 8 7
8 9 18 6 23 -6 11 55 18 222 28 106 6 132 14 96 28 -21 8 -105 6 -171 -3 -61
-9 -74 -3 -67 26 5 18 16 23 70 28 35 4 64 11 64 15 0 13 -42 19 -87 13 -46
-6 -49 -3 -33 28 7 13 21 19 43 19 41 0 107 18 107 29 0 12 -27 21 -58 19 -15
0 -89 -10 -166 -21z m144 -281 c0 -30 -4 -34 -31 -40 -50 -10 -54 -8 -55 29 0
32 2 34 35 38 20 2 39 4 44 5 4 1 7 -13 7 -32z m-130 -16 c0 -33 -3 -35 -67
-44 -27 -4 -43 -2 -43 4 0 17 43 58 65 63 40 10 45 7 45 -23z m122 -66 c-9
-63 -10 -64 -62 -64 -54 0 -55 2 -39 48 9 26 17 32 47 35 51 5 57 3 54 -19z"/>
</g>
<g id="part-1" class="char-part">
  <path d="M600 631 c0 -5 -16 -30 -35 -55 l-35 -46 65 32 c36 18 65 36 65 39 0
4 -7 15 -16 23 -17 17 -44 21 -44 7z"/>
  <path d="M370 593 c0 -13 53 -63 67 -63 17 0 17 34 1 47 -17 13 -68 25 -68 16z"/>
  <path d="M580 520 c-19 -5 -81 -14 -137 -21 -57 -6 -103 -16 -103 -20 0 -20
306 4 328 25 16 17 -43 27 -88 16z"/>
</g>
<g id="part-2" class="char-part">
  <path d="M470 446 c0 -27 -16 -36 -63 -36 -18 0 -43 -4 -57 -8 -18 -5 -4 -8
50 -12 67 -4 75 -7 78 -26 4 -26 -9 -30 -136 -40 -51 -3 -95 -10 -97 -14 -8
-13 38 -20 93 -13 30 3 52 2 52 -4 0 -19 -58 -99 -96 -132 -21 -19 -65 -52
-98 -73 -32 -21 -51 -38 -41 -38 30 0 140 58 176 93 44 43 112 144 105 156 -6
9 51 15 232 27 69 4 102 10 99 18 -5 15 -91 19 -174 8 -71 -10 -85 -5 -76 28
4 15 19 20 69 25 35 4 66 11 69 15 8 13 -40 20 -91 13 -45 -6 -47 -5 -42 15 5
19 2 22 -23 22 -24 0 -29 -4 -29 -24z"/>
</g>
<g id="part-3" class="char-part">
  <path d="M515 269 c-80 -15 -95 -19 -95 -27 0 -5 38 -3 85 3 47 7 87 9 90 7 8
-8 5 -73 -5 -117 -5 -22 -5 -44 -1 -48 19 -19 42 10 66 84 22 64 24 83 15 94
-14 17 -75 18 -155 4z"/>
</g>
<g id="part-4" class="char-part">
  <path d="M468 208 c-3 -32 -5 -33 -58 -41 -81 -11 -91 -30 -11 -21 59 6 64 5
58 -10 -4 -10 -10 -29 -13 -42 -6 -22 -11 -24 -70 -24 -35 0 -64 -4 -64 -9 0
-16 44 -20 120 -11 41 5 132 9 203 10 117 0 153 8 110 24 -9 4 -72 4 -140 0
-79 -4 -123 -3 -123 3 0 6 5 24 11 40 9 27 16 31 62 37 29 3 88 6 132 7 44 1
91 4 105 9 l25 7 -28 8 c-26 7 -91 4 -222 -11 -51 -6 -51 -6 -50 23 0 21 -5
29 -22 31 -18 3 -22 -2 -25 -30z"/>
</g>
</g>
</svg>