<?xml version="1.0" standalone="no"?>
<!DOCTYPE svg PUBLIC "-//W3C//DTD SVG 20010904//EN"
 "http://www.w3.org/TR/2001/REC-SVG-20010904/DTD/svg10.dtd">
<svg version="1.0" xmlns="http://www.w3.org/2000/svg"
 width="96.000000pt" height="68.000000pt" viewBox="0 0 96.000000 68.000000"
 preserveAspectRatio="xMidYMid meet">
<metadata>
Created by potrace 1.16, written by Peter Selinger 2001-2019
Combined from part_0.svg through part_5.svg with named groups
</metadata>
<g transform="translate(0.000000,68.000000) scale(0.100000,-0.100000)" fill="#000000" stroke="none">
<g id="part-0" class="char-part">
  <path d="M485 583 c-136 -17 -167 -26 -112 -31 45 -4 57 -26 57 -107 0 -59 -1
-60 -75 -68 l-30 -3 26 -11 c19 -8 40 -8 85 3 85 20 134 19 134 -3 0 -10 4
-24 9 -32 7 -11 13 -6 25 23 l16 37 57 -2 c32 -2 58 1 58 7 0 5 -28 10 -63 12
l-63 3 5 81 4 82 34 0 c18 1 35 6 38 11 8 15 -70 14 -205 -2z m79 -30 c10 -25
-9 -34 -81 -37 -9 -1 -17 8 -19 21 -4 22 1 24 77 31 9 1 20 -6 23 -15z m6 -62
c0 -16 -9 -21 -45 -26 -57 -9 -60 -8 -60 13 0 12 11 19 35 23 62 11 70 10 70
-10z m0 -65 c0 -21 -6 -24 -47 -29 -55 -6 -63 -3 -63 23 0 15 9 20 48 23 26 2
50 4 55 5 4 1 7 -9 7 -22z"/>
  <path d="M225 480 c-11 -5 -46 -9 -77 -9 -32 -1 -58 -2 -58 -4 0 -1 9 -20 20
-42 11 -22 20 -47 20 -56 0 -10 5 -30 10 -44 8 -21 13 -25 23 -16 7 6 38 13
69 17 48 6 56 9 56 28 0 12 9 42 21 66 20 42 20 46 4 57 -19 15 -58 16 -88 3z
m21 -61 c-3 -17 -6 -37 -6 -44 0 -12 -56 -32 -65 -23 -2 2 -7 22 -11 45 -7 44
-3 48 65 52 21 1 23 -2 17 -30z"/>
  <path d="M335 308 c-67 -9 -113 -28 -68 -28 18 0 21 -8 28 -76 4 -41 4 -78 1
-81 -3 -3 -25 -8 -51 -10 -25 -3 -45 -9 -45 -14 0 -20 54 -19 139 5 l91 25 0
-49 c0 -52 11 -68 29 -46 8 10 11 55 9 140 -2 93 0 126 9 126 6 0 15 -4 18
-10 3 -5 15 -10 26 -10 16 0 19 -8 21 -50 4 -110 5 -104 -26 -107 -52 -4 -42
-15 14 -15 3 0 38 3 78 6 l72 7 0 -56 c0 -75 22 -69 34 8 l8 57 59 0 c32 0 60
4 64 9 9 15 -33 24 -81 16 l-45 -6 2 75 c2 74 2 76 27 76 20 0 23 3 14 12 -8
8 -41 8 -132 -2 -90 -9 -125 -9 -133 -1 -13 13 -63 12 -162 -1z m95 -37 c0
-16 -9 -21 -45 -27 -25 -3 -45 -11 -45 -16 0 -5 19 -6 45 -2 36 5 45 3 45 -9
0 -9 -17 -18 -50 -24 l-50 -10 0 48 c0 52 5 57 63 58 30 1 37 -3 37 -18z m246
8 c10 -16 -6 -26 -53 -34 -41 -6 -43 -6 -43 19 0 24 3 26 44 26 25 0 48 -5 52
-11z m4 -64 c0 -8 -8 -15 -19 -15 -10 0 -33 -3 -50 -6 -26 -6 -31 -4 -31 13 0
17 8 20 50 22 39 1 50 -2 50 -14z m-250 -53 c0 -14 -12 -21 -50 -28 -48 -10
-50 -10 -50 12 0 23 15 30 73 33 20 1 27 -4 27 -17z m250 4 c0 -19 -6 -22 -57
-31 -41 -6 -43 -5 -43 18 0 22 4 24 50 26 38 1 50 -2 50 -13z"/>
</g>
<g id="part-1" class="char-part">
  <path d="M210 474 c-25 -9 -62 -13 -82 -11 -36 5 -37 4 -23 -17 7 -11 19 -43
26 -71 13 -56 26 -76 37 -58 4 6 29 13 56 15 45 3 49 5 61 38 7 19 19 49 26
67 7 18 11 34 9 36 -14 13 -71 13 -110 1z m40 -50 c0 -51 -15 -74 -50 -74 -29
0 -31 3 -44 62 -5 23 -2 28 16 32 50 11 63 14 71 15 4 0 7 -15 7 -35z"/>
</g>
<g id="part-2" class="char-part">
  <path d="M472 580 c-136 -18 -177 -30 -104 -30 22 0 43 -4 46 -9 3 -5 9 -41
12 -80 5 -50 11 -71 20 -71 8 0 14 11 14 25 0 22 5 25 33 25 42 0 77 10 77 21
0 5 -25 6 -56 3 -51 -6 -56 -5 -52 12 2 10 10 20 18 21 62 8 90 15 85 22 -2 5
-24 5 -47 1 -24 -5 -44 -8 -44 -7 -1 1 -4 11 -8 23 -6 19 -2 22 55 28 34 3 89
6 121 6 43 0 59 3 56 13 -7 18 -76 17 -226 -3z"/>
</g>
<g id="part-3" class="char-part">
  <path d="M569 485 l3 -85 -38 -1 c-22 0 -77 -6 -124 -13 -76 -11 -83 -13 -62
-24 16 -9 32 -10 60 -3 20 5 64 13 98 17 l61 6 7 -33 c7 -32 8 -33 21 -15 8
11 15 28 15 38 0 16 9 18 67 18 50 0 64 3 56 11 -7 7 -37 11 -68 10 l-56 -1 3
78 c3 76 3 77 -22 80 l-25 3 4 -86z"/>
</g>
<g id="part-4" class="char-part">
  <path d="M675 218 l0 -73 -50 -7 c-27 -4 -72 -10 -100 -14 -37 -5 -45 -8 -30
-14 11 -4 47 -4 80 1 111 14 105 16 105 -46 0 -31 4 -55 10 -55 13 0 17 13 24
70 3 25 5 46 5 48 1 1 30 2 66 2 36 0 65 4 65 9 0 16 -37 23 -86 15 l-45 -6 2
68 c3 66 2 69 -22 72 -23 3 -24 1 -24 -70z"/>
</g>
</g>
</svg>