<?xml version="1.0" standalone="no"?>
<!DOCTYPE svg PUBLIC "-//W3C//DTD SVG 20010904//EN"
 "http://www.w3.org/TR/2001/REC-SVG-20010904/DTD/svg10.dtd">
<svg version="1.0" xmlns="http://www.w3.org/2000/svg"
 width="96.000000pt" height="68.000000pt" viewBox="0 0 96.000000 68.000000"
 preserveAspectRatio="xMidYMid meet">
<metadata>
Created by potrace 1.16, written by Peter Selinger 2001-2019
Combined from part_0.svg through part_5.svg with named groups
</metadata>
<g transform="translate(0.000000,68.000000) scale(0.100000,-0.100000)" fill="#000000" stroke="none">
<g id="part-0" class="char-part">
  <path d="M551 568 c-7 -24 -26 -61 -42 -85 -16 -23 -29 -44 -29 -47 0 -14 23
-3 57 28 35 31 44 34 129 41 97 7 121 15 109 35 -6 9 -27 10 -77 5 -39 -3 -77
-9 -85 -12 -13 -5 -12 -1 3 22 17 27 17 28 -1 41 -33 25 -51 17 -64 -28z"/>
  <path d="M295 553 c-10 -25 -37 -68 -62 -95 -24 -28 -42 -52 -39 -55 6 -7 47
15 74 41 18 16 46 24 118 32 100 12 110 16 99 35 -8 11 -78 8 -134 -8 l-25 -6
22 30 c29 41 28 49 -7 61 -28 10 -30 9 -46 -35z"/>
  <path d="M585 472 c-3 -3 7 -18 22 -34 42 -44 103 -36 74 11 -9 14 -86 32 -96
23z"/>
  <path d="M320 447 c0 -19 65 -61 80 -52 28 17 3 49 -47 60 -26 5 -33 3 -33 -8z"/>
  <path d="M284 383 c3 -10 8 -35 11 -55 l7 -37 -52 -7 c-29 -4 -46 -10 -40 -14
7 -4 30 -5 51 -3 39 6 39 6 39 -29 0 -32 -3 -37 -37 -46 -103 -29 -145 -48
-131 -59 27 -21 44 -20 100 8 32 16 60 29 63 29 3 0 5 -23 5 -50 0 -56 -14
-69 -49 -50 -32 17 -26 -5 12 -39 38 -37 41 -37 61 -9 11 16 16 46 16 100 0
67 2 77 19 83 11 3 25 13 33 22 14 17 13 17 -39 -4 -9 -3 -13 5 -13 25 0 25 5
30 32 36 35 7 34 14 -3 19 -19 3 -24 10 -24 34 0 36 -20 63 -47 63 -14 0 -18
-5 -14 -17z"/>
  <path d="M651 370 c-18 -4 -77 -11 -130 -15 -53 -4 -98 -9 -100 -11 -3 -2 4
-10 13 -17 17 -12 18 -26 13 -138 -3 -68 -8 -134 -12 -145 -9 -29 13 -36 76
-24 29 6 111 10 183 10 l131 1 -23 19 c-21 17 -33 19 -98 13 l-73 -6 9 34 c6
19 10 64 10 101 l0 68 35 0 c35 0 35 0 35 -45 0 -38 -3 -45 -20 -45 -27 0 -25
-11 6 -34 24 -17 27 -17 42 -2 18 18 34 126 21 141 -5 5 -33 8 -63 7 l-54 -2
7 32 c5 25 12 34 31 36 49 5 71 13 65 22 -7 12 -55 11 -104 0z m-40 -68 c6
-31 6 -32 -30 -33 -61 -2 -66 -4 -62 -19 3 -8 7 -36 9 -62 3 -33 8 -48 18 -48
10 0 14 14 14 55 0 54 0 55 30 55 l30 0 0 -95 c0 -52 -1 -95 -2 -95 -2 0 -33
-3 -70 -6 l-68 -6 0 34 c0 19 3 83 6 141 l7 106 41 4 c65 6 70 4 77 -31z"/>
</g>
<g id="part-1" class="char-part">
  <path d="M567 603 c-4 -3 -7 -14 -7 -22 0 -9 -18 -47 -39 -84 -42 -71 -32 -78
25 -17 26 27 35 30 89 30 72 0 135 10 135 20 0 16 -31 18 -94 8 -37 -6 -69 -9
-72 -5 -3 3 1 15 8 27 11 18 11 23 -6 36 -22 16 -30 17 -39 7z"/>
  <path d="M297 545 c-10 -24 -37 -64 -59 -89 -47 -55 -38 -59 23 -11 37 29 52
35 94 35 63 0 125 10 125 20 0 16 -29 18 -93 6 -37 -7 -67 -10 -67 -7 0 2 12
18 28 34 26 28 27 29 8 43 -31 22 -40 17 -59 -31z"/>
  <path d="M615 440 c33 -34 65 -40 65 -12 0 20 -38 42 -72 42 -21 0 -20 -2 7
-30z"/>
  <path d="M340 425 c28 -30 60 -33 60 -6 0 18 -25 31 -64 31 -18 0 -18 -2 4
-25z"/>
</g>
<g id="part-2" class="char-part">
  <path d="M286 368 c15 -68 13 -71 -46 -83 -63 -12 -47 -27 20 -18 l41 6 -3
-34 c-3 -33 -5 -35 -93 -65 l-89 -31 28 -19 c29 -18 29 -18 87 14 32 18 60 32
63 32 8 0 8 -74 0 -93 -4 -12 -15 -14 -42 -10 l-37 5 40 -36 c22 -19 45 -36
52 -36 22 0 33 38 33 117 l0 78 38 22 c25 15 31 22 19 23 -10 0 -27 -5 -38
-10 -17 -9 -19 -7 -19 18 0 25 5 30 33 36 25 5 29 9 17 16 -8 5 -23 10 -34 10
-15 0 -17 5 -13 29 7 32 -16 61 -47 61 -15 0 -16 -5 -10 -32z"/>
</g>
<g id="part-3" class="char-part">
  <path d="M679 376 c-2 -2 -56 -9 -119 -16 -143 -14 -147 -15 -125 -37 15 -15
17 -32 11 -132 -3 -64 -7 -129 -8 -146 -3 -29 -1 -30 32 -27 19 1 107 6 195
10 155 7 159 7 135 24 -23 15 -38 16 -140 8 -191 -16 -180 -18 -180 38 0 27 3
90 6 139 l7 90 111 12 c127 13 158 20 150 32 -5 9 -67 13 -75 5z"/>
</g>
<g id="part-4" class="char-part">
  <path d="M640 274 c-47 -8 -95 -13 -108 -10 -18 3 -22 0 -17 -13 4 -9 10 -38
14 -64 8 -64 25 -60 29 7 3 53 3 54 40 60 20 3 56 6 78 6 38 0 42 -3 46 -27 6
-44 -2 -63 -25 -63 -21 0 -20 -1 6 -27 25 -25 28 -26 43 -11 9 9 19 36 21 60
2 24 6 49 9 57 5 14 -23 41 -41 39 -5 0 -48 -7 -95 -14z"/>
</g>
</g>
</svg>