<?xml version="1.0" standalone="no"?>
<!DOCTYPE svg PUBLIC "-//W3C//DTD SVG 20010904//EN"
 "http://www.w3.org/TR/2001/REC-SVG-20010904/DTD/svg10.dtd">
<svg version="1.0" xmlns="http://www.w3.org/2000/svg"
 width="96.000000pt" height="68.000000pt" viewBox="0 0 96.000000 68.000000"
 preserveAspectRatio="xMidYMid meet">
<metadata>
Created by potrace 1.16, written by Peter Selinger 2001-2019
Combined from part_0.svg through part_5.svg with named groups
</metadata>
<g transform="translate(0.000000,68.000000) scale(0.100000,-0.100000)" fill="#000000" stroke="none">
<g id="part-0" class="char-part">
  <path d="M540 590 c-14 -4 -47 -8 -74 -9 -42 -1 -47 -3 -41 -18 5 -10 13 -42
18 -72 l11 -53 50 6 c28 3 63 6 79 6 15 0 27 5 27 11 0 5 10 31 21 57 15 32
18 51 12 62 -11 17 -65 23 -103 10z m50 -29 c0 -15 -10 -20 -46 -26 -26 -3
-53 -9 -60 -12 -15 -5 -31 23 -20 35 6 5 57 15 114 21 6 0 12 -7 12 -18z m-10
-66 c0 -19 -7 -22 -62 -30 -47 -7 -48 -7 -48 18 0 24 4 26 48 29 55 4 62 2 62
-17z"/>
  <path d="M253 555 c4 -9 7 -18 7 -21 0 -2 14 -11 31 -19 34 -18 59 -14 59 9 0
18 -22 31 -69 41 -29 6 -33 5 -28 -10z"/>
  <path d="M180 473 c0 -20 58 -65 81 -61 31 4 35 24 7 42 -30 19 -88 32 -88 19z"/>
  <path d="M649 436 c-2 -2 -53 -9 -114 -15 -151 -16 -185 -22 -185 -32 0 -5 14
-9 30 -9 40 0 38 -12 -12 -54 -49 -42 -44 -45 20 -11 84 45 99 23 26 -37 -25
-21 -40 -38 -34 -38 17 0 99 59 113 81 11 18 57 27 57 11 0 -10 -87 -94 -120
-116 -13 -9 -19 -16 -12 -16 44 0 179 107 169 134 -4 10 4 15 29 18 30 4 34 1
34 -20 0 -12 -7 -37 -16 -54 -13 -25 -20 -29 -45 -26 -35 5 -35 4 -8 -30 15
-20 17 -28 7 -29 -65 -11 -308 -31 -326 -26 -13 3 -22 1 -22 -6 0 -6 4 -11 9
-11 8 0 41 -81 41 -100 0 -4 -37 -8 -82 -9 -45 -1 -84 -4 -86 -6 -3 -3 8 -9
23 -15 20 -8 67 -8 159 0 71 5 210 10 307 10 98 0 184 3 193 6 53 20 -31 48
-108 36 -55 -9 -56 -8 -50 12 4 12 16 34 27 50 20 28 20 29 2 42 -10 8 -25 14
-32 14 -18 0 -16 10 6 34 22 24 71 110 71 124 0 5 -10 17 -23 25 -21 13 -31
13 -83 1 -79 -18 -154 -19 -154 0 0 16 37 22 188 32 76 5 102 10 102 20 0 10
-14 14 -48 14 -27 0 -51 -2 -53 -4z m-44 -313 c-4 -27 -9 -51 -12 -56 -6 -9
-83 -9 -83 1 0 4 8 28 17 55 16 44 19 47 51 47 l34 0 -7 -47z m-111 29 c2 -4
2 -27 -1 -50 -5 -38 -8 -42 -34 -42 -24 0 -29 4 -29 25 0 14 -4 25 -9 25 -4 0
-6 11 -3 25 4 21 10 25 38 25 18 0 35 -4 38 -8z m-105 -39 c17 -59 15 -63 -28
-63 -34 0 -40 3 -45 28 -4 15 -9 35 -12 44 -5 17 10 25 53 27 17 1 24 -7 32
-36z"/>
  <path d="M242 340 l-63 -59 16 -31 c9 -17 22 -30 28 -28 13 4 90 156 85 168
-2 4 -31 -18 -66 -50z"/>
</g>
<g id="part-1" class="char-part">
  <path d="M280 530 c39 -34 48 -36 57 -14 8 22 -23 44 -61 44 l-31 -1 35 -29z"/>
  <path d="M190 463 c0 -11 63 -53 78 -53 22 0 12 37 -13 48 -29 14 -65 16 -65
5z"/>
  <path d="M241 332 c-48 -49 -52 -57 -42 -78 17 -39 34 -27 71 49 19 40 36 75
38 80 10 20 -18 -2 -67 -51z"/>
</g>
<g id="part-2" class="char-part">
  <path d="M538 314 c-18 -20 -55 -54 -81 -75 -27 -22 -44 -39 -37 -39 38 0 170
97 170 126 0 28 -20 23 -52 -12z"/>
</g>
<g id="part-3" class="char-part">
  <path d="M600 193 c-51 -10 -320 -31 -338 -26 l-21 5 20 -38 c10 -21 19 -46
19 -56 0 -19 26 -36 37 -25 3 4 1 24 -4 46 -10 39 -10 39 21 45 63 11 257 26
267 20 5 -3 7 -26 3 -55 -7 -49 3 -64 25 -37 65 79 71 91 51 103 -18 11 -64
21 -80 18z"/>
</g>
<g id="part-4" class="char-part">
  <path d="M494 110 c-6 -47 -9 -50 -35 -50 -25 0 -29 5 -36 42 -5 27 -15 44
-25 46 -14 3 -15 -3 -6 -43 5 -26 8 -48 6 -50 -2 -3 -66 -7 -141 -11 -75 -4
-137 -11 -137 -15 0 -16 71 -20 175 -10 60 6 195 11 301 11 188 0 224 3 224
21 0 17 -67 25 -140 18 -41 -4 -98 -8 -127 -8 l-52 -1 19 46 c24 56 24 54 0
54 -16 0 -21 -9 -26 -50z"/>
</g>
</g>
</svg>