<?xml version="1.0" standalone="no"?>
<!DOCTYPE svg PUBLIC "-//W3C//DTD SVG 20010904//EN"
 "http://www.w3.org/TR/2001/REC-SVG-20010904/DTD/svg10.dtd">
<svg version="1.0" xmlns="http://www.w3.org/2000/svg"
 width="96.000000pt" height="68.000000pt" viewBox="0 0 96.000000 68.000000"
 preserveAspectRatio="xMidYMid meet">
<metadata>
Created by potrace 1.16, written by Peter Selinger 2001-2019
Combined from part_0.svg through part_5.svg with named groups
</metadata>
<g transform="translate(0.000000,68.000000) scale(0.100000,-0.100000)" fill="#000000" stroke="none">
<g id="part-0" class="char-part">
  <path d="M234 538 c4 -18 10 -56 13 -84 l6 -52 -44 -7 c-95 -14 -109 -17 -109
-25 0 -13 48 -21 90 -14 l41 7 -32 -54 c-17 -30 -51 -78 -76 -107 -46 -54 -50
-75 -10 -53 32 18 48 31 90 79 42 48 43 46 27 -72 -12 -82 -3 -120 28 -114 20
4 30 58 31 171 l1 77 20 -20 c28 -28 50 -26 50 4 0 19 -8 27 -35 36 -27 9 -35
17 -35 35 0 18 7 25 38 32 49 12 51 38 2 38 l-35 0 6 60 c6 52 4 62 -13 78
-11 9 -29 17 -40 17 -18 0 -20 -4 -14 -32z"/>
  <path d="M605 503 c-33 -8 -99 -16 -147 -17 -86 -1 -102 -8 -77 -33 7 -7 11
-57 12 -130 0 -121 -9 -158 -51 -206 -24 -28 -5 -33 24 -6 49 45 67 102 71
229 l3 115 33 7 c66 13 165 28 188 28 l24 0 0 -147 c0 -132 2 -152 22 -188 27
-52 62 -83 103 -95 41 -12 56 -1 41 28 -6 11 -11 42 -12 69 l-1 48 -15 -43
c-17 -49 -33 -53 -62 -16 -46 59 -51 186 -12 302 18 51 18 53 0 62 -24 14 -73
11 -144 -7z"/>
  <path d="M503 393 c-40 -5 -43 -20 -6 -25 22 -2 27 -9 30 -35 4 -32 3 -33 -36
-33 -45 0 -46 -3 -29 -60 11 -34 17 -40 40 -40 25 0 28 -3 28 -35 l0 -35 -49
0 c-56 0 -74 -15 -38 -31 19 -9 41 -6 102 11 72 20 80 21 90 6 7 -9 20 -16 29
-16 25 0 19 36 -10 59 -31 25 -59 28 -50 6 3 -8 1 -15 -3 -15 -5 0 -16 -3 -25
-6 -13 -5 -16 1 -16 30 0 29 4 36 20 37 11 1 26 2 32 3 13 1 47 61 48 83 0 16
-42 27 -70 18 -19 -6 -21 -4 -18 27 3 25 10 34 26 36 12 2 22 8 22 13 0 9 -53
10 -117 2z m107 -133 c0 -25 -4 -30 -25 -30 -21 0 -25 5 -25 30 0 25 4 30 25
30 21 0 25 -5 25 -30z m-80 -10 c0 -23 -4 -30 -20 -30 -11 0 -20 3 -20 8 0 4
-3 17 -6 30 -5 19 -2 22 20 22 22 0 26 -4 26 -30z"/>
</g>
<g id="part-1" class="char-part">
  <path d="M237 564 c-3 -3 -1 -20 4 -37 5 -18 9 -53 9 -78 0 -53 -3 -56 -86
-65 -72 -9 -69 -24 6 -24 33 0 60 -2 60 -5 0 -12 -67 -116 -102 -157 -22 -27
-35 -48 -28 -48 18 0 100 72 116 103 33 61 37 24 15 -114 -7 -39 0 -83 14 -98
3 -2 11 2 20 9 12 10 15 36 15 126 0 63 3 114 6 114 3 0 17 -9 31 -20 27 -21
43 -19 43 6 0 9 -18 23 -40 31 -22 9 -40 22 -40 29 0 27 13 44 34 44 11 0 28
5 36 10 13 9 13 11 0 20 -8 5 -25 7 -38 3 -24 -6 -24 -5 -17 59 5 48 4 67 -7
74 -18 15 -45 24 -51 18z"/>
</g>
<g id="part-2" class="char-part">
  <path d="M375 468 c15 -49 24 -146 18 -203 -6 -60 -22 -104 -58 -159 -19 -29
-19 -29 0 -18 31 16 63 54 80 96 18 42 32 263 18 282 -4 6 -21 14 -37 18 -26
7 -28 5 -21 -16z"/>
</g>
<g id="part-3" class="char-part">
  <path d="M610 505 c-30 -8 -83 -17 -117 -20 -35 -4 -63 -11 -63 -16 0 -12 31
-11 125 6 44 8 91 15 105 15 l25 0 0 -142 c0 -136 1 -146 28 -200 22 -45 36
-61 71 -77 58 -28 81 -28 71 1 -4 13 -10 48 -14 78 l-6 55 -13 -42 c-7 -24
-19 -43 -27 -43 -20 0 -53 47 -66 94 -14 50 2 211 26 256 14 27 14 30 -4 40
-26 13 -73 12 -141 -5z"/>
</g>
<g id="part-4" class="char-part">
  <path d="M600 171 c0 -16 51 -71 66 -71 21 0 17 24 -11 54 -23 25 -55 35 -55
17z"/>
</g>
</g>
</svg>