<?xml version="1.0" standalone="no"?>
<!DOCTYPE svg PUBLIC "-//W3C//DTD SVG 20010904//EN"
 "http://www.w3.org/TR/2001/REC-SVG-20010904/DTD/svg10.dtd">
<svg version="1.0" xmlns="http://www.w3.org/2000/svg"
 width="96.000000pt" height="68.000000pt" viewBox="0 0 96.000000 68.000000"
 preserveAspectRatio="xMidYMid meet">
<metadata>
Created by potrace 1.16, written by Peter Selinger 2001-2019
Combined from part_0.svg through part_5.svg with named groups
</metadata>
<g transform="translate(0.000000,68.000000) scale(0.100000,-0.100000)" fill="#000000" stroke="none">
<g id="part-0" class="char-part">
  <path d="M228 420 l4 -140 -26 0 c-26 0 -27 1 -20 50 7 56 -5 80 -40 80 -18 0
-21 -6 -21 -47 0 -27 -3 -64 -8 -83 -5 -25 -3 -42 6 -54 13 -18 16 -18 58 -2
24 9 65 20 91 25 41 7 47 6 52 -11 3 -13 11 -18 23 -16 14 2 22 23 37 86 10
45 16 89 12 97 -3 8 -18 15 -33 15 -28 0 -28 -1 -28 -62 0 -59 -2 -63 -24 -66
l-24 -4 7 130 c8 140 7 142 -47 142 -22 0 -22 -2 -19 -140z"/>
  <path d="M635 544 c-49 -7 -117 -13 -150 -13 l-60 -1 3 -133 c3 -96 0 -148
-11 -191 -12 -44 -13 -64 -5 -82 6 -13 15 -24 20 -24 18 0 25 51 32 220 4 96
10 178 14 182 12 11 256 28 265 19 13 -13 20 -287 10 -341 l-9 -45 -42 2 c-23
1 -42 -1 -42 -5 1 -15 91 -74 104 -69 37 14 44 58 47 266 4 257 15 243 -176
215z"/>
  <path d="M563 437 c-61 -12 -70 -27 -16 -27 49 0 153 22 153 32 0 10 -71 8
-137 -5z"/>
  <path d="M608 355 c-31 -7 -68 -11 -83 -9 -14 1 -25 0 -23 -4 17 -33 28 -61
33 -85 4 -21 10 -27 21 -23 9 3 38 6 65 6 40 0 49 3 49 18 0 9 9 31 19 49 20
31 18 39 -14 55 -5 3 -35 -1 -67 -7z m30 -57 c-3 -30 -6 -33 -39 -36 -31 -3
-37 1 -43 20 -11 44 -8 48 40 48 45 0 45 0 42 -32z"/>
</g>
<g id="part-1" class="char-part">
  <path d="M235 418 l0 -143 -27 -3 c-28 -3 -28 -3 -28 55 0 59 -11 83 -38 83
-11 0 -13 -8 -9 -29 3 -15 0 -51 -7 -79 -11 -40 -11 -55 -2 -67 11 -15 17 -15
66 -2 30 9 74 18 96 22 37 6 42 4 47 -17 11 -40 33 -2 51 86 17 84 14 96 -28
96 -14 0 -17 -5 -12 -24 3 -13 3 -45 0 -70 -6 -43 -9 -46 -35 -46 l-29 0 5
103 c3 56 8 115 10 130 4 22 0 29 -21 37 -14 6 -28 10 -32 10 -4 0 -7 -64 -7
-142z"/>
</g>
<g id="part-2" class="char-part">
  <path d="M635 544 c-44 -7 -109 -13 -145 -13 l-65 -1 3 -137 c2 -98 -1 -154
-12 -192 -14 -55 -8 -101 14 -101 20 0 27 46 34 220 4 96 10 178 14 182 12 11
255 29 264 20 12 -12 22 -245 14 -312 -10 -79 -15 -85 -65 -73 -23 6 -41 8
-40 4 1 -14 93 -82 107 -79 9 2 24 17 33 33 15 25 18 64 21 237 l3 207 -23 11
c-28 12 -52 11 -157 -6z"/>
</g>
<g id="part-3" class="char-part">
  <path d="M600 445 c-25 -7 -58 -16 -75 -20 -25 -6 -27 -8 -11 -14 21 -8 126 5
165 21 25 10 25 11 6 18 -26 11 -31 11 -85 -5z"/>
</g>
<g id="part-4" class="char-part">
  <path d="M615 353 c-27 -7 -65 -11 -83 -9 -18 3 -32 2 -30 -2 17 -34 28 -61
33 -85 4 -21 10 -27 21 -23 9 3 37 6 62 6 51 0 47 -5 78 92 10 28 -25 37 -81
21z m26 -26 c-1 -4 -1 -20 -1 -37 0 -28 -2 -30 -39 -30 -40 0 -51 11 -51 50 0
14 9 20 38 23 46 4 54 4 53 -6z"/>
</g>
</g>
</svg>