<?xml version="1.0" standalone="no"?>
<!DOCTYPE svg PUBLIC "-//W3C//DTD SVG 20010904//EN"
 "http://www.w3.org/TR/2001/REC-SVG-20010904/DTD/svg10.dtd">
<svg version="1.0" xmlns="http://www.w3.org/2000/svg"
 width="96.000000pt" height="68.000000pt" viewBox="0 0 96.000000 68.000000"
 preserveAspectRatio="xMidYMid meet">
<metadata>
Created by potrace 1.16, written by Peter Selinger 2001-2019
Combined from part_0.svg through part_5.svg with named groups
</metadata>
<g transform="translate(0.000000,68.000000) scale(0.100000,-0.100000)" fill="#000000" stroke="none">
<g id="part-0" class="char-part">
  <path d="M527 599 c-33 -19 -159 -59 -208 -65 -82 -11 -57 -26 30 -18 l80 6 7
-26 c3 -15 5 -29 2 -31 -2 -2 -69 -10 -148 -17 -129 -12 -142 -15 -121 -27 19
-10 45 -11 143 -1 65 7 122 9 126 5 4 -4 9 -53 10 -109 l4 -103 -39 -6 c-21
-4 -62 -7 -90 -7 -52 0 -69 -12 -36 -24 9 -4 49 -4 90 0 l73 7 0 -40 0 -40
-120 -8 c-113 -6 -146 -16 -100 -28 23 -6 512 13 520 20 3 3 -4 11 -14 19 -16
11 -43 13 -133 7 l-113 -6 0 41 0 42 95 0 c96 0 111 5 76 27 -13 8 -41 10 -91
4 -51 -5 -73 -4 -76 4 -3 6 -3 56 -2 111 l3 99 145 8 c79 4 146 10 149 13 3 2
-1 10 -8 17 -14 14 -80 15 -199 4 l-83 -8 7 25 c4 17 1 27 -11 33 -12 7 -3 13
42 22 80 18 89 24 68 44 -19 19 -51 21 -78 6z"/>
  <path d="M619 415 c-1 -3 -3 -9 -4 -15 -1 -5 -3 -23 -4 -39 -1 -25 -5 -29 -42
-35 -46 -7 -47 -15 -3 -20 24 -3 29 -8 27 -30 -1 -14 2 -26 8 -26 5 0 9 4 9 9
0 4 11 20 25 35 20 21 33 26 74 26 27 0 52 4 56 9 6 11 -51 24 -81 19 -15 -2
-18 2 -16 20 4 26 -13 52 -34 52 -8 0 -15 -2 -15 -5z"/>
  <path d="M268 385 c-3 -4 1 -19 10 -35 9 -16 14 -31 11 -35 -4 -3 -29 -8 -58
-12 -52 -6 -70 -22 -28 -25 33 -2 39 -1 72 6 27 6 32 3 42 -24 16 -43 36 -39
27 5 -6 34 -5 35 25 35 41 0 40 18 -1 22 -28 3 -34 8 -38 33 -4 23 -11 31 -30
33 -14 2 -29 0 -32 -3z"/>
</g>
<g id="part-1" class="char-part">
  <path d="M500 583 c-30 -13 -88 -33 -130 -44 l-75 -19 75 6 c84 6 240 42 240
55 0 9 -34 29 -47 28 -4 0 -33 -12 -63 -26z"/>
</g>
<g id="part-2" class="char-part">
  <path d="M433 500 c6 -16 9 -32 6 -34 -3 -3 -69 -11 -147 -17 -78 -7 -142 -15
-142 -19 0 -17 75 -20 175 -9 58 6 109 9 113 5 4 -4 8 -79 10 -167 3 -127 6
-159 17 -159 24 0 26 17 26 168 -1 81 3 152 7 158 4 7 64 14 147 18 77 4 142
9 144 12 3 2 -1 10 -8 17 -14 14 -94 16 -203 3 -76 -8 -77 -8 -71 14 7 27 -10
40 -54 40 -31 0 -31 -1 -20 -30z"/>
</g>
<g id="part-3" class="char-part">
  <path d="M610 376 c0 -43 0 -43 -42 -50 -36 -6 -40 -9 -25 -17 9 -6 27 -7 39
-4 19 7 20 5 14 -31 l-6 -39 19 25 c46 58 49 60 106 60 30 0 55 4 55 9 0 13
-49 23 -81 16 -30 -7 -35 0 -19 25 11 18 -15 50 -42 50 -15 0 -18 -8 -18 -44z"/>
  <path d="M260 383 c0 -4 7 -17 15 -27 26 -34 18 -44 -40 -51 -30 -4 -55 -11
-55 -15 0 -14 44 -19 85 -10 22 5 40 8 40 7 1 -1 7 -17 14 -34 17 -41 35 -32
26 13 -6 33 -5 34 25 34 40 0 39 18 -2 22 -28 3 -34 8 -38 33 -4 25 -10 30
-38 33 -17 2 -32 0 -32 -5z"/>
  <path d="M495 214 c-60 -6 -138 -13 -172 -13 -63 -1 -84 -15 -39 -27 12 -3 74
-1 137 5 63 6 147 11 187 11 39 0 72 3 72 6 0 13 -35 33 -55 32 -11 0 -69 -7
-130 -14z"/>
</g>
<g id="part-4" class="char-part">
  <path d="M515 109 c-316 -23 -322 -23 -298 -37 17 -9 77 -9 283 0 226 10 259
13 246 26 -19 19 -76 22 -231 11z"/>
</g>
</g>
</svg>