<?xml version="1.0" standalone="no"?>
<!DOCTYPE svg PUBLIC "-//W3C//DTD SVG 20010904//EN"
 "http://www.w3.org/TR/2001/REC-SVG-20010904/DTD/svg10.dtd">
<svg version="1.0" xmlns="http://www.w3.org/2000/svg"
 width="96.000000pt" height="68.000000pt" viewBox="0 0 96.000000 68.000000"
 preserveAspectRatio="xMidYMid meet">
<metadata>
Created by potrace 1.16, written by Peter Selinger 2001-2019
Combined from part_0.svg through part_5.svg with named groups
</metadata>
<g transform="translate(0.000000,68.000000) scale(0.100000,-0.100000)" fill="#000000" stroke="none">
<g id="part-0" class="char-part">
  <path d="M470 585 c-6 -15 -10 -30 -10 -34 0 -4 -16 -26 -36 -49 -53 -62 -41
-70 75 -46 l33 7 -16 -25 c-15 -22 -26 -26 -96 -32 -100 -9 -108 -29 -10 -24
39 2 70 0 70 -3 0 -11 -34 -36 -88 -64 -28 -16 -51 -30 -49 -32 2 -1 31 7 65
19 33 13 64 19 68 15 9 -9 -45 -67 -63 -67 -7 0 -13 -4 -13 -9 0 -5 -20 -17
-45 -28 -25 -10 -45 -21 -45 -25 0 -10 99 26 152 57 51 28 75 27 58 -5 -12
-23 -131 -103 -188 -125 -24 -10 -41 -20 -38 -22 5 -5 148 38 156 47 6 7 80
50 86 50 10 0 3 -53 -11 -87 -14 -34 -17 -35 -52 -30 l-37 6 37 -36 c33 -34
38 -36 60 -24 32 17 47 64 47 145 l0 67 60 -50 c32 -27 68 -52 80 -56 22 -7
136 22 126 33 -4 3 -45 14 -92 23 -75 15 -174 61 -174 80 0 4 27 19 60 35 61
29 67 39 37 58 -13 9 -26 1 -67 -39 l-50 -49 -36 36 -35 37 30 16 c17 8 31 22
31 29 0 11 25 16 100 22 66 4 100 10 97 18 -6 18 -49 22 -125 10 -40 -6 -75
-8 -77 -3 -3 4 22 32 56 62 34 31 58 60 54 66 -8 14 -82 14 -90 1 -3 -5 -17
-10 -31 -10 -21 0 -24 4 -19 19 4 14 0 23 -15 31 -17 9 -22 7 -30 -15z m100
-63 c0 -24 -29 -43 -77 -49 -58 -6 -64 -1 -31 34 16 17 32 23 65 23 24 0 43
-4 43 -8z"/>
  <path d="M210 450 c-8 -5 -38 -10 -66 -10 -40 0 -53 -4 -58 -17 -4 -10 -4 -14
0 -10 10 10 30 -22 38 -63 15 -71 15 -71 52 -65 19 3 49 7 67 10 27 4 32 9 33
33 1 16 8 44 17 62 21 41 21 56 1 64 -23 9 -67 7 -84 -4z m18 -72 c-3 -38 -6
-43 -30 -46 -19 -2 -28 2 -32 17 -19 66 -22 61 52 70 9 1 12 -11 10 -41z"/>
</g>
<g id="part-1" class="char-part">
  <path d="M205 443 c-22 -8 -57 -13 -77 -11 -40 4 -46 0 -26 -20 7 -7 20 -39
28 -70 13 -47 19 -56 35 -54 11 2 39 5 63 9 36 5 42 9 42 30 0 13 9 42 21 65
11 22 17 44 12 48 -16 17 -59 18 -98 3z m32 -64 c-6 -43 -19 -59 -49 -59 -15
0 -38 50 -38 82 0 8 26 15 64 17 28 1 29 0 23 -40z"/>
</g>
<g id="part-2" class="char-part">
  <path d="M465 574 c-8 -20 -28 -52 -45 -70 -34 -39 -37 -52 -14 -61 18 -7 122
16 130 28 2 5 -19 5 -48 2 l-53 -6 28 34 c56 70 60 78 47 94 -19 23 -28 18
-45 -21z"/>
</g>
<g id="part-3" class="char-part">
  <path d="M538 556 c-53 -16 -57 -26 -10 -26 23 0 42 -4 42 -8 0 -5 -13 -26
-30 -48 -31 -40 -36 -54 -22 -54 18 0 145 128 138 139 -9 14 -69 13 -118 -3z"/>
</g>
<g id="part-4" class="char-part">
  <path d="M601 309 l-44 -50 59 -55 c83 -79 111 -89 181 -69 30 9 53 19 50 21
-3 3 -44 14 -92 25 -80 17 -175 62 -175 82 0 4 26 20 58 33 69 31 68 30 52 49
-20 25 -42 16 -89 -36z"/>
</g>
</g>
</svg>