<?xml version="1.0" standalone="no"?>
<!DOCTYPE svg PUBLIC "-//W3C//DTD SVG 20010904//EN"
 "http://www.w3.org/TR/2001/REC-SVG-20010904/DTD/svg10.dtd">
<svg version="1.0" xmlns="http://www.w3.org/2000/svg"
 width="96.000000pt" height="68.000000pt" viewBox="0 0 96.000000 68.000000"
 preserveAspectRatio="xMidYMid meet">
<metadata>
Created by potrace 1.16, written by Peter Selinger 2001-2019
Combined from part_0.svg through part_5.svg with named groups
</metadata>
<g transform="translate(0.000000,68.000000) scale(0.100000,-0.100000)" fill="#000000" stroke="none">
<g id="part-0" class="char-part">
  <path d="M490 585 c-47 -7 -112 -14 -145 -14 l-60 -1 -1 -88 c-1 -63 -7 -102
-23 -143 -26 -69 -85 -161 -135 -211 -31 -32 -34 -38 -17 -38 32 0 117 75 157
140 34 56 41 61 65 56 15 -3 41 -1 58 4 18 5 33 5 36 -1 12 -19 -50 -113 -98
-147 -54 -39 -56 -50 -5 -29 54 23 108 76 137 136 24 50 30 56 64 62 35 5 37
4 37 -20 -1 -14 -5 -46 -9 -71 -21 -104 28 -149 161 -150 97 0 132 14 124 49
-3 15 -9 44 -14 66 l-8 40 -18 -53 c-20 -60 -35 -67 -121 -60 -76 6 -89 20
-82 86 3 29 15 69 26 88 26 43 26 51 2 63 -13 7 -34 6 -70 -3 -58 -15 -67 -10
-49 29 11 24 10 29 -7 41 -38 28 -51 18 -52 -37 0 -27 -3 -52 -6 -55 -10 -11
-127 -17 -127 -7 0 5 7 32 15 60 l15 51 63 6 c221 20 220 20 223 39 1 10 15
34 29 53 24 32 26 38 13 51 -22 21 -80 24 -178 8z m99 -37 c-2 -43 -16 -53
-90 -65 -113 -18 -149 -17 -149 5 0 37 23 50 105 60 117 14 135 14 134 0z"/>
</g>
<g id="part-1" class="char-part">
  <path d="M485 579 c-66 -10 -138 -16 -160 -13 l-41 6 4 -71 c7 -121 -53 -269
-151 -369 -47 -48 -38 -55 19 -14 84 61 125 123 159 242 l22 75 139 12 c162
13 144 10 144 26 0 7 14 32 31 55 l31 42 -36 15 c-19 8 -37 15 -38 14 -2 -1
-57 -10 -123 -20z m105 -41 c0 -13 -4 -28 -8 -35 -6 -10 -178 -43 -222 -43
-13 0 -13 67 0 75 13 8 121 22 183 24 43 1 47 -1 47 -21z"/>
</g>
<g id="part-2" class="char-part">
  <path d="M443 379 c0 -27 -3 -52 -5 -55 -3 -2 -35 -7 -72 -11 -36 -3 -66 -9
-66 -13 0 -13 42 -19 87 -13 24 3 43 3 43 -1 0 -34 -77 -128 -140 -170 -33
-22 -5 -20 45 3 52 24 99 74 125 133 14 33 28 50 45 54 30 7 33 34 5 34 -23 0
-23 0 -9 37 8 23 7 30 -7 40 -37 27 -50 17 -51 -38z"/>
</g>
<g id="part-3" class="char-part">
  <path d="M534 338 c-4 -6 1 -17 11 -24 16 -12 17 -20 7 -80 -21 -126 19 -164
172 -164 66 0 89 4 106 18 20 16 21 21 9 43 -7 13 -15 40 -19 59 l-6 35 -18
-53 c-13 -40 -23 -53 -42 -58 -38 -10 -131 1 -149 16 -23 19 -16 93 14 150 12
24 20 49 17 56 -7 17 -92 19 -102 2z"/>
</g>
</g>
</svg>