<?xml version="1.0" standalone="no"?>
<!DOCTYPE svg PUBLIC "-//W3C//DTD SVG 20010904//EN"
 "http://www.w3.org/TR/2001/REC-SVG-20010904/DTD/svg10.dtd">
<svg version="1.0" xmlns="http://www.w3.org/2000/svg"
 width="96.000000pt" height="68.000000pt" viewBox="0 0 96.000000 68.000000"
 preserveAspectRatio="xMidYMid meet">
<metadata>
Created by potrace 1.16, written by Peter Selinger 2001-2019
Combined from part_0.svg through part_5.svg with named groups
</metadata>
<g transform="translate(0.000000,68.000000) scale(0.100000,-0.100000)" fill="#000000" stroke="none">
<g id="part-0" class="char-part">
  <path d="M214 573 c21 -94 21 -93 -12 -93 -17 0 -37 -3 -46 -6 -31 -12 -16
-24 29 -24 41 0 45 -2 45 -25 0 -15 -6 -25 -15 -26 -8 -1 -19 -3 -25 -4 -5 -1
-24 -3 -40 -4 -26 -1 -29 -4 -21 -18 5 -10 14 -44 21 -77 9 -42 15 -55 23 -47
6 6 22 11 35 11 20 0 23 -4 20 -27 -3 -26 -8 -29 -68 -39 -48 -8 -60 -13 -46
-19 10 -4 38 -3 62 2 l44 10 0 -71 c0 -39 5 -78 10 -86 18 -27 30 9 30 87 l0
72 53 3 c64 4 64 23 -1 23 -44 0 -47 2 -50 29 -4 28 -3 29 35 24 l39 -6 22 57
c12 31 22 62 22 69 0 18 -38 34 -73 30 -26 -2 -32 1 -32 17 0 22 55 39 90 28
11 -4 33 -6 48 -4 25 1 28 -1 21 -21 -4 -12 -16 -35 -27 -50 -32 -43 -13 -50
73 -26 51 14 75 17 78 9 6 -19 32 -12 32 9 0 12 -12 26 -30 35 -29 15 -30 15
-27 -7 2 -19 -4 -23 -42 -30 -55 -9 -61 -5 -33 25 12 13 22 33 22 44 0 18 8
22 55 28 30 3 55 11 55 17 0 7 -15 8 -42 4 -24 -3 -67 -9 -95 -13 -29 -3 -53
-10 -53 -14 0 -12 -33 2 -43 18 -4 7 -24 13 -44 13 -35 0 -35 0 -29 34 6 29 3
37 -16 50 -12 9 -31 16 -41 16 -16 0 -18 -5 -13 -27z m116 -198 c0 -22 -4 -25
-35 -25 -19 0 -35 4 -35 9 0 24 13 37 40 39 26 2 30 -1 30 -23z m-90 -9 c0
-18 -8 -23 -43 -30 -23 -4 -27 -1 -27 20 0 21 5 24 35 24 24 0 35 -5 35 -14z
m80 -52 c0 -22 -4 -25 -27 -22 -35 4 -37 30 -3 39 14 4 26 7 28 8 1 1 2 -11 2
-25z m-87 -8 c7 -18 -1 -26 -29 -26 -13 0 -24 8 -27 20 -4 16 0 20 23 20 15 0
30 -6 33 -14z"/>
  <path d="M415 561 c-8 -14 53 -64 69 -58 9 4 16 10 16 15 0 23 -74 60 -85 43z"/>
  <path d="M655 533 c-3 -21 -19 -78 -34 -126 -28 -89 -27 -118 3 -72 12 18 25
25 47 25 l31 0 -4 -69 c-2 -39 -7 -73 -11 -78 -5 -4 -21 7 -36 25 -40 45 -59
40 -22 -5 41 -50 40 -75 -5 -110 -45 -34 -30 -41 27 -12 41 20 43 20 56 3 7
-10 13 -21 13 -26 0 -13 77 -31 106 -24 26 7 25 9 -39 47 -37 22 -67 47 -67
56 0 8 7 43 16 77 9 33 14 78 11 99 -5 36 -5 37 28 37 19 0 37 4 40 10 9 15
-42 23 -73 12 -47 -18 -82 -23 -82 -12 0 6 11 38 25 72 26 64 32 98 16 98 -5
0 -16 3 -25 6 -11 4 -16 -4 -21 -33z"/>
  <path d="M480 311 c-14 -5 -36 -6 -51 -4 -25 5 -25 4 -25 -64 -1 -37 -4 -89
-9 -115 -6 -39 -5 -48 7 -48 10 0 18 16 24 42 9 43 9 43 57 46 l47 3 0 -42 c0
-40 -1 -41 -30 -37 -16 3 -30 1 -30 -3 0 -14 61 -51 75 -46 18 7 25 69 22 182
l-2 90 -30 2 c-16 1 -41 -2 -55 -6z m50 -35 c0 -21 -5 -24 -45 -28 -41 -3 -45
-1 -45 19 0 22 15 28 68 32 17 1 22 -4 22 -23z m6 -66 c0 -12 -7 -20 -17 -20
-9 0 -31 -3 -48 -6 -28 -6 -31 -4 -31 20 0 24 3 26 48 26 41 0 48 -3 48 -20z"/>
</g>
<g id="part-1" class="char-part">
  <path d="M226 539 c8 -57 -1 -69 -48 -69 -16 0 -28 -4 -28 -10 0 -5 20 -10 45
-10 41 0 45 -2 45 -25 0 -18 4 -23 15 -19 8 4 15 17 15 30 0 20 6 25 40 30 22
4 40 10 40 15 0 12 -35 20 -54 13 -13 -5 -16 1 -16 33 0 42 -14 63 -42 63 -17
0 -18 -6 -12 -51z"/>
</g>
<g id="part-2" class="char-part">
  <path d="M228 233 c-3 -26 -7 -29 -66 -36 -38 -6 -60 -13 -56 -19 4 -7 28 -8
62 -4 l55 6 -5 -57 c-5 -56 6 -103 23 -103 12 0 18 34 21 105 l3 60 53 3 c69
4 66 27 -4 28 -42 1 -49 4 -52 22 -5 31 -30 27 -34 -5z"/>
</g>
<g id="part-3" class="char-part">
  <path d="M410 563 c0 -15 55 -63 72 -63 24 0 24 36 1 48 -27 14 -73 23 -73 15z"/>
  <path d="M451 484 c-103 -19 -102 -28 3 -20 101 7 136 14 136 27 0 12 -48 9
-139 -7z"/>
</g>
<g id="part-4" class="char-part">
  <path d="M486 310 c-16 -5 -40 -7 -55 -4 -26 5 -26 5 -27 -63 -1 -37 -5 -89
-9 -115 -6 -40 -5 -48 8 -48 11 0 19 14 24 43 8 42 9 42 56 45 l47 3 0 -39 c0
-47 -5 -53 -36 -42 -13 5 -24 6 -24 2 0 -10 56 -52 69 -52 19 0 30 67 28 170
-2 104 -2 105 -27 107 -14 1 -38 -2 -54 -7z m44 -35 c0 -21 -5 -25 -29 -25
-16 0 -36 -3 -45 -6 -12 -5 -16 0 -16 19 0 27 12 34 63 36 22 1 27 -3 27 -24z
m3 -65 c-3 -11 -11 -20 -18 -20 -7 0 -27 -3 -44 -6 -28 -6 -31 -4 -31 20 0 25
3 26 49 26 44 0 49 -2 44 -20z"/>
</g>
<g id="part-5" class="char-part">
  <path d="M710 296 c-16 -96 -22 -106 -51 -81 l-23 20 20 -26 c10 -15 23 -25
27 -22 22 13 -17 -38 -45 -61 -18 -14 -28 -26 -21 -26 6 0 18 7 26 15 8 8 17
11 21 8 3 -4 6 -1 6 5 0 22 20 12 51 -23 27 -30 37 -35 73 -34 22 0 34 3 26 6
-8 3 -17 9 -20 12 -3 4 -26 20 -51 37 l-46 30 14 39 c24 68 32 138 18 158 -10
15 -14 7 -25 -57z m65 -206 c3 -5 2 -10 -4 -10 -5 0 -13 5 -16 10 -3 6 -2 10
4 10 5 0 13 -4 16 -10z"/>
  <path d="M610 266 c0 -2 8 -10 18 -17 15 -13 16 -12 3 4 -13 16 -21 21 -21 13z"/>
</g>
</g>
</svg>