<?xml version="1.0" standalone="no"?>
<!DOCTYPE svg PUBLIC "-//W3C//DTD SVG 20010904//EN"
 "http://www.w3.org/TR/2001/REC-SVG-20010904/DTD/svg10.dtd">
<svg version="1.0" xmlns="http://www.w3.org/2000/svg"
 width="96.000000pt" height="68.000000pt" viewBox="0 0 96.000000 68.000000"
 preserveAspectRatio="xMidYMid meet">
<metadata>
Created by potrace 1.16, written by Peter Selinger 2001-2019
Combined from part_0.svg through part_5.svg with named groups
</metadata>
<g transform="translate(0.000000,68.000000) scale(0.100000,-0.100000)" fill="#000000" stroke="none">
<g id="part-0" class="char-part">
  <path d="M256 578 c5 -24 9 -68 9 -98 l0 -55 -70 -8 c-87 -11 -98 -14 -90 -27
3 -5 38 -10 76 -10 l70 0 -23 -42 c-13 -23 -52 -73 -87 -110 -35 -37 -58 -68
-52 -68 23 0 75 33 124 79 l50 46 -7 -70 c-4 -38 -9 -84 -12 -100 -4 -22 0
-38 15 -55 21 -25 21 -25 36 -6 11 15 15 48 15 140 l0 120 29 -32 c30 -32 55
-41 66 -22 14 22 -8 49 -50 66 -38 14 -45 21 -45 44 0 25 4 28 50 34 27 4 52
11 55 16 8 12 -38 23 -75 18 -26 -4 -29 -2 -25 16 2 12 7 46 10 77 6 52 4 57
-19 73 -14 9 -33 16 -42 16 -13 0 -14 -7 -8 -42z"/>
  <path d="M548 564 c-4 -3 -2 -20 3 -37 5 -18 9 -65 9 -104 l0 -73 -37 -1 c-21
0 -56 -4 -78 -8 -37 -7 -38 -8 -14 -15 14 -4 29 -6 35 -5 5 1 28 1 52 0 l43
-1 -3 -74 -3 -74 -78 -7 c-44 -4 -91 -11 -105 -15 l-27 -7 29 -12 c22 -9 43
-9 78 -1 27 5 122 13 211 16 187 7 203 9 167 30 -19 11 -48 12 -127 8 l-103
-7 0 39 c0 22 3 55 6 76 6 36 7 36 63 43 32 4 64 10 71 15 24 15 -15 23 -77
17 l-55 -6 7 77 c4 42 12 83 17 89 15 18 -68 54 -84 37z"/>
</g>
<g id="part-1" class="char-part">
  <path d="M257 614 c-3 -3 -1 -20 4 -37 5 -18 9 -60 9 -94 l0 -62 -57 -6 c-100
-11 -117 -23 -35 -24 52 -1 72 -5 72 -14 0 -22 -59 -109 -108 -159 -25 -27
-41 -48 -36 -48 20 0 88 51 124 92 l36 40 -8 -109 c-9 -119 0 -169 27 -142 11
10 15 47 16 142 0 70 4 127 8 127 4 0 17 -13 29 -30 26 -34 62 -41 62 -11 0
24 -19 39 -58 47 -28 6 -32 10 -32 40 0 31 2 33 45 40 25 3 48 10 51 15 7 12
-41 22 -72 15 l-26 -7 7 58 c3 32 8 67 10 79 3 15 -4 24 -29 37 -19 8 -36 13
-39 11z"/>
</g>
<g id="part-2" class="char-part">
  <path d="M547 538 c4 -18 8 -67 8 -108 l0 -75 -74 -9 c-88 -10 -78 -26 17 -26
l62 0 0 -37 c0 -21 -3 -55 -6 -75 l-6 -37 -67 -6 c-36 -3 -82 -8 -101 -11
l-35 -6 28 -14 c22 -12 38 -13 85 -4 31 6 132 14 225 17 92 3 167 9 167 13 0
21 -58 30 -151 24 l-99 -7 0 39 c0 21 3 55 6 75 6 36 7 37 62 44 30 4 65 10
76 15 20 7 20 8 3 15 -10 4 -46 5 -79 1 l-61 -6 6 58 c4 31 10 73 13 92 5 32
3 37 -20 48 -15 7 -36 12 -47 12 -18 0 -20 -4 -12 -32z"/>
</g>
</g>
</svg>