<?xml version="1.0" standalone="no"?>
<!DOCTYPE svg PUBLIC "-//W3C//DTD SVG 20010904//EN"
 "http://www.w3.org/TR/2001/REC-SVG-20010904/DTD/svg10.dtd">
<svg version="1.0" xmlns="http://www.w3.org/2000/svg"
 width="96.000000pt" height="68.000000pt" viewBox="0 0 96.000000 68.000000"
 preserveAspectRatio="xMidYMid meet">
<metadata>
Created by potrace 1.16, written by Peter Selinger 2001-2019
Combined from part_0.svg through part_5.svg with named groups
</metadata>
<g transform="translate(0.000000,68.000000) scale(0.100000,-0.100000)" fill="#000000" stroke="none">
<g id="part-0" class="char-part">
  <path d="M340 594 c-25 -8 -69 -14 -98 -12 -28 2 -52 -1 -52 -5 0 -5 9 -20 20
-34 11 -14 20 -35 20 -47 0 -11 5 -38 11 -59 l10 -39 42 8 c23 4 62 8 86 8
l44 1 24 70 c32 93 32 97 3 112 -31 16 -52 15 -110 -3z m60 -42 c0 -26 -3 -28
-32 -28 -18 0 -49 -3 -69 -8 -32 -7 -37 -5 -42 13 -4 17 1 21 32 27 20 3 50
10 66 14 45 12 45 12 45 -18z m-12 -74 c-2 -19 -12 -25 -52 -32 -37 -7 -50 -6
-57 5 -18 29 -4 36 99 47 8 1 12 -6 10 -20z"/>
  <path d="M544 544 c3 -9 6 -76 6 -149 0 -171 4 -178 113 -183 75 -4 147 10
147 29 0 19 -34 22 -107 10 -105 -18 -113 -13 -113 62 0 70 -5 65 114 106 32
11 61 22 63 24 2 3 -9 10 -25 16 -26 11 -33 9 -81 -24 -29 -19 -57 -35 -62
-35 -12 0 -11 44 2 99 11 49 3 61 -40 61 -17 0 -22 -4 -17 -16z"/>
  <path d="M420 380 c-19 -5 -57 -11 -85 -14 -225 -25 -270 -34 -217 -46 19 -4
67 -2 113 6 44 8 85 12 90 9 5 -4 9 -37 9 -75 l0 -68 -40 10 c-43 11 -48 22
-25 53 14 17 13 20 -7 32 -33 18 -35 17 -42 -26 -4 -29 -18 -50 -56 -87 -27
-26 -48 -50 -45 -52 6 -6 68 34 90 58 10 11 24 20 32 20 7 0 100 -34 205 -76
178 -69 197 -75 248 -70 62 5 165 34 156 43 -3 4 -37 8 -74 10 -105 5 -219 22
-312 47 l-85 22 -3 37 -3 36 60 7 c71 8 84 25 21 26 -3 1 -20 -2 -37 -5 -33
-6 -33 -6 -33 33 0 39 1 40 38 41 20 1 51 5 67 9 l30 7 -28 11 c-16 7 -29 12
-30 11 -1 -1 -18 -5 -37 -9z"/>
</g>
<g id="part-1" class="char-part">
  <path d="M365 594 c-22 -7 -71 -13 -108 -13 l-68 -1 19 -25 c11 -14 23 -46 27
-72 11 -74 19 -84 56 -71 17 6 50 8 75 5 35 -3 47 -1 53 12 18 33 51 142 46
151 -12 19 -61 26 -100 14z m39 -22 c3 -5 3 -18 -1 -30 -3 -15 -13 -21 -32
-20 -14 0 -43 -3 -65 -7 -28 -6 -40 -4 -47 6 -17 27 -9 39 24 40 17 1 43 5 57
9 34 11 58 12 64 2z m-8 -96 c-6 -26 -22 -33 -86 -38 -31 -3 -35 0 -38 23 -3
25 0 27 60 35 35 6 65 9 67 7 2 -1 1 -13 -3 -27z"/>
</g>
<g id="part-2" class="char-part">
  <path d="M213 257 c-9 -31 -26 -57 -62 -90 -28 -26 -46 -47 -40 -47 18 0 64
28 88 54 14 14 29 26 33 26 5 0 98 -34 205 -75 220 -84 243 -87 349 -51 l69
23 -85 7 c-47 4 -123 14 -170 21 -97 16 -329 80 -344 95 -6 6 -3 17 9 30 20
22 14 33 -20 44 -18 5 -23 0 -32 -37z"/>
</g>
<g id="part-3" class="char-part">
  <path d="M548 423 c3 -170 5 -179 42 -198 47 -25 208 -15 218 12 7 22 -29 27
-105 14 -106 -18 -113 -14 -113 64 l0 63 78 27 c42 15 84 29 92 32 12 4 12 7
-4 19 -22 16 -66 19 -66 4 0 -9 -79 -60 -93 -60 -11 0 -8 46 4 97 13 49 5 63
-36 63 -19 0 -20 -6 -17 -137z"/>
</g>
</g>
</svg>