<?xml version="1.0" standalone="no"?>
<!DOCTYPE svg PUBLIC "-//W3C//DTD SVG 20010904//EN"
 "http://www.w3.org/TR/2001/REC-SVG-20010904/DTD/svg10.dtd">
<svg version="1.0" xmlns="http://www.w3.org/2000/svg"
 width="96.000000pt" height="68.000000pt" viewBox="0 0 96.000000 68.000000"
 preserveAspectRatio="xMidYMid meet">
<metadata>
Created by potrace 1.16, written by Peter Selinger 2001-2019
Combined from part_0.svg through part_5.svg with named groups
</metadata>
<g transform="translate(0.000000,68.000000) scale(0.100000,-0.100000)" fill="#000000" stroke="none">
<g id="part-0" class="char-part">
  <path d="M578 546 l4 -56 -73 0 c-60 0 -70 -2 -57 -12 9 -7 24 -40 33 -74 l17
-60 108 0 c59 1 106 4 104 8 -2 3 0 8 5 10 5 1 23 31 40 65 31 62 31 62 10 74
-11 6 -48 9 -81 7 l-59 -3 3 45 c3 44 2 45 -28 48 l-31 3 5 -55z m132 -81 c0
-22 -4 -25 -40 -25 -35 0 -40 3 -40 23 0 21 5 24 40 25 36 2 40 0 40 -23z
m-130 -9 c0 -17 -7 -25 -24 -28 -28 -6 -40 0 -49 24 -5 13 1 18 26 21 18 2 35
5 40 5 4 1 7 -9 7 -22z m120 -44 c0 -5 -6 -16 -13 -26 -10 -14 -17 -15 -41 -6
-23 9 -26 13 -16 25 13 16 70 21 70 7z m-120 -23 c0 -16 -5 -20 -27 -17 -17 2
-29 10 -31 21 -3 13 3 17 27 17 25 0 31 -4 31 -21z"/>
  <path d="M257 513 l-79 -4 8 -27 c9 -29 11 -111 4 -182 -6 -52 -12 -50 129
-35 l74 8 -6 -68 c-8 -87 -28 -119 -68 -111 -30 6 -41 -7 -14 -18 8 -3 15 -12
15 -21 0 -9 9 -15 25 -15 26 0 61 43 69 85 32 169 33 163 -32 172 -27 4 -42
11 -45 23 -5 19 17 30 61 30 12 0 22 5 22 10 0 6 -18 10 -39 10 -34 0 -38 3
-34 20 3 12 14 20 27 20 11 0 28 5 36 10 13 8 12 10 -5 11 -11 1 -28 1 -38 1
-14 -2 -18 4 -15 26 3 23 8 28 41 32 21 3 39 10 40 15 2 11 -54 13 -176 8z
m53 -63 c0 -27 -3 -30 -30 -30 -27 0 -30 3 -30 30 0 27 3 30 30 30 27 0 30 -3
30 -30z m0 -69 c0 -11 -9 -21 -22 -25 -39 -10 -48 -7 -48 19 0 22 4 25 35 25
28 0 35 -4 35 -19z m-2 -63 c-2 -18 -11 -24 -35 -26 -29 -3 -33 0 -33 20 0 19
6 23 36 26 32 2 35 0 32 -20z"/>
  <path d="M573 307 c-62 -5 -113 -14 -113 -18 0 -5 16 -9 35 -9 45 0 56 -23 25
-52 -31 -29 -13 -41 41 -29 24 6 65 11 92 11 39 0 47 -3 47 -19 0 -40 -13 -79
-33 -103 -32 -36 -52 -40 -81 -17 -30 24 -33 13 -8 -30 39 -69 111 -24 157 98
34 89 31 92 -80 90 -104 -1 -101 -2 -81 20 10 11 15 25 11 30 -4 8 34 11 120
11 97 0 126 3 123 13 -6 16 -106 17 -255 4z"/>
  <path d="M310 231 c0 -13 46 -52 53 -45 10 11 -11 41 -33 47 -11 3 -20 2 -20
-2z"/>
  <path d="M121 207 c-6 -9 -15 -31 -18 -51 -5 -31 -3 -36 15 -36 15 0 21 9 26
35 4 19 3 42 -2 51 -7 13 -10 13 -21 1z"/>
  <path d="M256 195 c16 -25 26 -30 37 -19 10 10 -17 44 -36 44 -16 0 -16 -2 -1
-25z"/>
  <path d="M180 191 c20 -39 47 -40 35 -2 -3 12 -15 21 -26 21 -16 0 -18 -3 -9
-19z"/>
</g>
<g id="part-1" class="char-part">
  <path d="M320 509 c-25 -4 -64 -8 -87 -8 l-41 -1 5 -79 c4 -48 1 -92 -6 -112
-16 -46 3 -65 50 -51 19 6 60 13 92 17 31 4 57 11 57 17 0 6 -18 7 -52 2 -95
-14 -103 -12 -102 19 0 15 1 59 2 97 l2 70 45 0 c59 0 147 19 139 31 -6 10
-40 10 -104 -2z"/>
</g>
<g id="part-2" class="char-part">
  <path d="M316 231 c-3 -4 4 -18 15 -30 23 -25 44 -19 29 8 -11 21 -37 34 -44
22z"/>
  <path d="M110 181 c-12 -38 -8 -61 11 -61 15 0 31 51 24 77 -8 34 -20 28 -35
-16z"/>
  <path d="M250 201 c13 -25 27 -34 40 -26 16 10 -8 45 -31 45 -16 0 -18 -3 -9
-19z"/>
  <path d="M182 185 c12 -26 38 -34 38 -12 0 17 -20 37 -37 37 -10 0 -10 -5 -1
-25z"/>
</g>
<g id="part-3" class="char-part">
  <path d="M574 584 c3 -9 6 -31 6 -50 0 -29 3 -34 24 -34 20 0 24 6 29 42 7 52
3 58 -35 58 -23 0 -29 -4 -24 -16z"/>
</g>
<g id="part-4" class="char-part">
  <path d="M610 499 c-25 -4 -73 -8 -107 -8 -61 -1 -62 -2 -45 -19 10 -10 23
-43 30 -73 l13 -56 107 2 107 2 38 69 c35 64 37 70 21 81 -19 14 -93 15 -164
2z m100 -34 c0 -22 -4 -25 -40 -25 -33 0 -40 3 -40 19 0 22 13 29 53 30 22 1
27 -3 27 -24z m-130 -9 c0 -16 -7 -26 -22 -30 -35 -9 -38 -8 -47 17 -9 22 -6
24 62 36 4 0 7 -10 7 -23z m116 -52 c-3 -9 -6 -20 -6 -25 0 -15 -37 -10 -55 7
-20 21 -5 34 39 34 22 0 27 -4 22 -16z m-116 -14 c0 -11 -4 -21 -10 -21 -38
-5 -45 -2 -48 19 -3 19 1 22 27 22 24 0 31 -4 31 -20z"/>
</g>
<g id="part-5" class="char-part">
  <path d="M696 218 c30 -47 0 -128 -59 -162 -29 -16 -31 -16 -55 6 -24 22 -24
21 3 -15 21 -28 30 -35 36 -25 7 11 9 11 9 0 0 -7 5 -10 10 -7 8 5 7 12 -2 23
-12 15 -11 16 4 4 18 -14 43 -7 32 9 -3 5 0 8 8 7 7 -2 12 5 12 14 -1 10 2 18
8 18 13 0 40 69 34 86 -3 8 -1 14 4 14 16 0 11 27 -6 34 -26 10 -46 7 -38 -6z"/>
  <path d="M530 207 c0 -5 -5 -5 -12 -1 -6 4 -8 3 -4 -4 4 -8 15 -8 36 0 37 12
38 16 5 14 -14 0 -25 -5 -25 -9z"/>
</g>
</g>
</svg>