<?xml version="1.0" standalone="no"?>
<!DOCTYPE svg PUBLIC "-//W3C//DTD SVG 20010904//EN"
 "http://www.w3.org/TR/2001/REC-SVG-20010904/DTD/svg10.dtd">
<svg version="1.0" xmlns="http://www.w3.org/2000/svg"
 width="96.000000pt" height="68.000000pt" viewBox="0 0 96.000000 68.000000"
 preserveAspectRatio="xMidYMid meet">
<metadata>
Created by potrace 1.16, written by Peter Selinger 2001-2019
Combined from part_0.svg through part_5.svg with named groups
</metadata>
<g transform="translate(0.000000,68.000000) scale(0.100000,-0.100000)" fill="#000000" stroke="none">
<g id="part-0" class="char-part">
  <path d="M290 588 c1 -7 5 -32 9 -55 10 -52 2 -60 -59 -65 -63 -4 -52 -22 15
-26 l56 -3 -5 -42 c-3 -23 -8 -64 -12 -92 -3 -27 -15 -67 -25 -87 -22 -43
-101 -124 -130 -133 -23 -8 -25 -25 -4 -25 55 0 134 59 167 125 11 22 22 42
24 44 2 2 23 -17 47 -42 48 -52 77 -61 77 -24 0 35 -25 62 -70 77 -41 14 -42
14 -36 54 3 23 8 66 12 97 l6 57 49 6 c26 4 51 11 54 16 9 15 -35 28 -74 22
l-34 -5 6 47 c6 43 5 47 -19 56 -35 14 -54 12 -54 -2z"/>
  <path d="M587 535 c-54 -7 -100 -15 -103 -18 -9 -9 43 -20 65 -14 32 8 44 -7
37 -47 -6 -33 -10 -36 -43 -36 -29 0 -34 -3 -28 -17 8 -20 7 -146 -1 -180 -7
-28 13 -66 32 -59 32 12 11 -32 -36 -79 -78 -77 -50 -71 64 12 34 25 63 47 65
49 2 2 -2 10 -9 19 -11 13 -7 15 26 15 22 0 49 3 61 6 16 4 23 0 28 -16 4 -13
13 -20 23 -18 15 3 18 23 23 133 3 84 2 135 -5 144 -8 10 -30 12 -101 7 -66
-5 -85 -4 -73 4 27 17 41 49 29 64 -9 11 6 14 76 15 93 2 99 4 88 20 -8 14
-92 12 -218 -4z m137 -121 c9 -3 16 -18 16 -33 0 -23 -4 -26 -37 -26 -21 0
-62 -4 -90 -8 l-53 -8 0 29 c0 26 5 30 43 39 50 13 99 15 121 7z m16 -105 c0
-21 -4 -30 -12 -26 -7 2 -44 0 -82 -5 -79 -11 -96 -7 -89 20 4 16 18 22 71 30
113 16 112 16 112 -19z m0 -68 l0 -28 -92 -6 c-51 -3 -94 -4 -96 -2 -2 2 -1
12 2 23 5 16 21 21 89 29 45 6 85 11 90 12 4 0 7 -12 7 -28z"/>
  <path d="M391 357 c-16 -34 -28 -64 -25 -66 2 -2 14 5 27 17 29 27 43 28 59 2
15 -23 38 -27 38 -5 0 8 -14 22 -30 30 -28 14 -29 17 -15 31 21 21 19 41 -4
47 -15 4 -25 -8 -50 -56z"/>
  <path d="M194 371 c-4 -17 -24 -51 -46 -76 -47 -53 -34 -60 20 -10 l38 34 27
-27 c20 -20 29 -24 38 -15 14 14 -4 43 -27 43 -21 0 -26 19 -9 36 20 21 15 38
-13 42 -18 3 -23 -3 -28 -27z"/>
  <path d="M690 147 c0 -12 112 -117 125 -117 27 0 29 30 4 56 -29 30 -129 78
-129 61z"/>
</g>
<g id="part-1" class="char-part">
  <path d="M294 574 c4 -10 10 -37 13 -61 5 -41 4 -43 -19 -43 -42 0 -88 -12
-82 -21 3 -5 28 -9 56 -9 l51 0 -7 -82 c-10 -123 -47 -192 -135 -256 -36 -26
-40 -32 -22 -32 49 0 110 51 154 128 l24 44 43 -46 c45 -48 67 -57 76 -31 9
21 -12 43 -66 70 l-47 24 8 48 c4 26 8 67 8 90 1 48 5 51 63 61 23 4 43 13 46
21 4 11 -6 13 -46 9 l-51 -5 -3 51 c-3 50 -4 51 -37 54 -29 3 -33 1 -27 -14z"/>
</g>
<g id="part-2" class="char-part">
  <path d="M410 403 c0 -10 -12 -38 -25 -62 -29 -50 -25 -64 8 -33 29 27 43 28
57 2 6 -11 18 -20 26 -20 23 0 13 33 -14 45 -26 11 -28 27 -7 45 12 10 13 16
4 26 -16 20 -49 18 -49 -3z"/>
</g>
<g id="part-3" class="char-part">
  <path d="M620 539 c-74 -9 -137 -18 -140 -18 -3 -1 2 -6 10 -11 8 -5 34 -10
58 -10 36 0 42 -3 42 -21 0 -11 -5 -29 -10 -40 -17 -32 14 -23 44 12 29 34 33
48 14 50 -36 3 46 17 104 18 37 1 70 6 73 11 3 6 5 10 3 10 -2 0 -17 4 -33 8
-18 5 -84 1 -165 -9z"/>
</g>
<g id="part-4" class="char-part">
  <path d="M650 429 c-25 -4 -67 -8 -94 -8 -42 -1 -47 -3 -41 -18 4 -10 6 -55 6
-100 -2 -69 1 -83 14 -83 8 0 15 6 15 14 0 9 19 15 59 19 33 4 78 9 101 13 35
6 40 4 34 -10 -5 -12 0 -16 19 -16 24 0 25 2 29 88 2 48 0 93 -5 100 -10 13
-67 14 -137 1z m88 -45 c3 -29 1 -31 -30 -30 -18 0 -59 -3 -90 -7 l-58 -7 0
29 c0 27 4 31 43 40 23 5 62 9 87 8 43 -2 45 -4 48 -33z m2 -73 c0 -23 -4 -29
-22 -29 -13 1 -55 -3 -94 -7 l-71 -8 5 33 c3 23 9 31 21 27 9 -2 37 -1 61 3
91 15 100 13 100 -19z"/>
</g>
<g id="part-5" class="char-part">
  <path d="M575 150 c-3 -11 -17 -28 -31 -39 -14 -11 -20 -22 -15 -26 14 -8 62
25 54 38 -3 5 -1 7 4 4 6 -4 20 2 32 12 19 16 19 20 5 25 -28 11 -42 7 -49
-14z"/>
  <path d="M720 120 c0 -5 5 -9 12 -7 7 1 12 -2 13 -8 1 -20 17 -36 32 -31 8 3
11 1 8 -4 -3 -6 -1 -10 5 -10 6 0 9 -4 6 -9 -3 -5 1 -12 10 -15 24 -9 26 -8
22 16 -5 34 -108 99 -108 68z"/>
  <path d="M496 65 c-11 -8 -15 -15 -9 -15 7 0 15 5 18 10 4 6 11 7 17 4 7 -4 8
-2 4 4 -9 14 -7 15 -30 -3z"/>
</g>
</g>
</svg>