<?xml version="1.0" standalone="no"?>
<!DOCTYPE svg PUBLIC "-//W3C//DTD SVG 20010904//EN"
 "http://www.w3.org/TR/2001/REC-SVG-20010904/DTD/svg10.dtd">
<svg version="1.0" xmlns="http://www.w3.org/2000/svg"
 width="96.000000pt" height="68.000000pt" viewBox="0 0 96.000000 68.000000"
 preserveAspectRatio="xMidYMid meet">
<metadata>
Created by potrace 1.16, written by Peter Selinger 2001-2019
Combined from part_0.svg through part_5.svg with named groups
</metadata>
<g transform="translate(0.000000,68.000000) scale(0.100000,-0.100000)" fill="#000000" stroke="none">
<g id="part-0" class="char-part">
  <path d="M256 542 c-7 -46 -65 -138 -129 -206 -26 -27 -45 -51 -43 -54 6 -6
46 17 90 51 30 24 42 28 55 20 29 -18 18 -38 -23 -43 -58 -7 -59 -30 -2 -30
l46 0 0 -54 c0 -62 -2 -63 -92 -73 -61 -6 -68 -12 -43 -33 24 -20 63 -15 155
18 47 18 88 32 91 32 3 0 14 -20 24 -45 9 -26 22 -44 29 -42 21 7 17 36 -8 62
-14 14 -25 31 -23 38 1 8 -10 11 -33 10 -33 -3 -34 -2 -15 13 11 8 27 19 35
24 13 8 13 11 -2 26 -24 25 -47 10 -54 -36 -4 -22 -11 -40 -17 -40 -5 0 -7 13
-3 31 3 17 6 42 6 55 0 18 7 25 28 30 54 12 58 14 42 24 -8 6 -27 10 -42 10
-17 0 -28 5 -28 14 0 15 21 26 51 26 25 0 25 26 -1 33 -11 3 -43 -1 -70 -8
-28 -7 -50 -12 -50 -10 0 2 17 28 38 58 l38 54 37 -21 c32 -18 39 -19 47 -6
12 19 -4 37 -41 45 -23 5 -28 11 -24 25 4 13 -1 22 -14 29 -35 19 -48 13 -55
-27z"/>
  <path d="M580 534 c-47 -8 -100 -12 -117 -10 -18 3 -33 4 -33 3 7 -36 42 -111
52 -109 7 2 65 5 128 7 l114 3 33 51 33 51 -26 10 c-33 13 -78 11 -184 -6z
m140 -27 c0 -38 -21 -58 -51 -49 -25 7 -25 8 -12 40 10 24 19 32 38 32 19 0
25 -5 25 -23z m-98 8 c2 -3 3 -18 0 -35 -3 -24 -9 -30 -28 -30 -17 0 -25 7
-30 24 -3 14 -3 30 1 35 6 11 47 15 57 6z m-94 -17 c7 -7 12 -22 12 -35 0 -34
-47 -32 -60 3 -6 14 -10 30 -10 35 0 13 44 11 58 -3z"/>
  <path d="M610 396 c0 -8 -15 -37 -34 -65 l-35 -51 26 6 26 7 -4 -123 c-3 -87
-1 -124 8 -127 6 -2 14 12 17 34 6 35 10 38 39 38 178 3 200 5 187 20 -8 9
-30 15 -56 15 -37 0 -44 3 -44 20 0 15 7 20 28 20 15 0 34 5 42 10 15 10 16
10 -50 14 -27 2 -16 31 13 34 15 2 27 8 27 13 0 9 -7 11 -40 13 -8 1 -16 8
-18 17 -2 12 8 18 38 23 51 8 52 26 1 26 -31 0 -41 4 -46 20 -3 11 -15 20 -26
20 -21 0 -25 -20 -8 -37 7 -7 -3 -13 -36 -18 -26 -3 -48 -5 -51 -3 -2 2 8 17
21 32 32 37 32 56 0 56 -15 0 -25 -6 -25 -14z m90 -116 c0 -17 -7 -20 -40 -20
-43 0 -43 0 -34 24 4 10 18 16 40 16 27 0 34 -4 34 -20z m0 -60 c0 -17 -7 -20
-40 -20 -33 0 -40 3 -40 20 0 17 7 20 40 20 33 0 40 -3 40 -20z m0 -60 c0 -14
-10 -19 -40 -22 -36 -3 -40 -1 -40 19 0 15 7 23 23 25 35 6 57 -3 57 -22z"/>
  <path d="M438 349 c-21 -27 -38 -54 -38 -60 0 -6 15 -7 38 -3 l37 6 -37 -32
c-38 -32 -50 -60 -24 -60 7 0 33 7 57 15 35 13 48 13 66 4 26 -14 38 -7 29 16
-7 20 -36 31 -45 18 -8 -13 -71 -27 -71 -16 0 4 25 28 55 52 59 47 62 53 42
70 -10 8 -19 4 -36 -19 -14 -20 -30 -30 -48 -30 l-27 0 33 34 c18 19 30 39 27
45 -12 18 -20 13 -58 -40z"/>
  <path d="M167 234 c-12 -12 23 -64 43 -64 26 0 26 31 2 53 -19 18 -34 21 -45
11z"/>
  <path d="M500 198 c1 -18 25 -48 39 -48 19 0 12 39 -8 50 -25 13 -31 13 -31
-2z"/>
  <path d="M440 172 c0 -13 30 -52 41 -52 13 0 11 34 -3 48 -13 13 -38 16 -38 4z"/>
</g>
<g id="part-1" class="char-part">
  <path d="M261 538 c-18 -62 -54 -119 -117 -188 -63 -67 -52 -81 17 -22 50 43
89 46 89 8 0 -19 -8 -24 -47 -33 l-48 -10 46 -2 46 -1 6 -57 c3 -32 3 -61 -2
-66 -4 -4 -37 -10 -74 -14 -70 -6 -83 -16 -43 -34 20 -9 44 -5 135 26 61 20
111 39 111 42 0 3 -20 2 -45 -1 l-45 -7 0 56 c0 36 4 57 13 59 6 3 25 7 41 11
35 7 27 18 -14 17 -25 -1 -30 3 -30 24 0 18 5 24 23 24 12 0 29 4 37 10 27 17
-18 24 -77 11 -30 -7 -56 -11 -58 -9 -6 5 75 118 83 118 4 0 16 -7 26 -15 25
-19 56 -19 56 0 0 8 -16 19 -40 25 -28 8 -38 15 -33 25 6 17 -13 45 -32 45 -6
0 -17 -19 -24 -42z"/>
  <path d="M323 235 c-13 -41 -11 -42 29 -13 29 20 30 22 12 35 -26 19 -29 17
-41 -22z"/>
  <path d="M170 222 c0 -12 30 -52 39 -52 17 0 20 30 5 45 -16 16 -44 21 -44 7z"/>
</g>
<g id="part-2" class="char-part">
  <path d="M575 533 c-44 -7 -97 -12 -118 -9 -30 3 -36 2 -27 -9 6 -7 16 -32 24
-56 10 -34 17 -43 32 -41 10 1 68 4 129 6 l109 4 33 51 c31 48 32 51 13 61
-25 13 -96 11 -195 -7z m145 -17 c0 -34 -20 -68 -36 -62 -9 4 -55 1 -102 -4
-47 -6 -89 -7 -93 -3 -4 4 -10 20 -14 34 l-6 26 98 10 c147 15 153 15 153 -1z"/>
</g>
<g id="part-3" class="char-part">
  <path d="M626 504 c-9 -24 -7 -54 4 -54 12 0 30 33 30 54 0 21 -26 21 -34 0z"/>
</g>
<g id="part-4" class="char-part">
  <path d="M700 220 c0 -17 -7 -20 -41 -20 -24 0 -38 -4 -34 -10 3 -5 22 -10 41
-10 27 0 34 -4 34 -20 0 -15 -7 -20 -27 -20 -16 0 -34 -4 -42 -9 -22 -14 5
-23 47 -16 20 3 67 6 105 7 65 1 84 9 51 22 -9 3 -33 6 -55 6 -32 0 -39 3 -39
20 0 15 7 20 28 20 15 0 34 5 42 10 12 8 10 10 -10 11 -14 1 -33 2 -42 1 -10
-1 -18 5 -18 13 0 8 -9 15 -20 15 -13 0 -20 -7 -20 -20z"/>
</g>
</g>
</svg>