<?xml version="1.0" standalone="no"?>
<!DOCTYPE svg PUBLIC "-//W3C//DTD SVG 20010904//EN"
 "http://www.w3.org/TR/2001/REC-SVG-20010904/DTD/svg10.dtd">
<svg version="1.0" xmlns="http://www.w3.org/2000/svg"
 width="96.000000pt" height="68.000000pt" viewBox="0 0 96.000000 68.000000"
 preserveAspectRatio="xMidYMid meet">
<metadata>
Created by potrace 1.16, written by Peter Selinger 2001-2019
Combined from part_0.svg through part_5.svg with named groups
</metadata>
<g transform="translate(0.000000,68.000000) scale(0.100000,-0.100000)" fill="#000000" stroke="none">
<g id="part-0" class="char-part">
  <path d="M427 581 l6 -59 -44 -6 c-24 -3 -70 -8 -102 -11 -38 -4 -57 -11 -54
-18 3 -8 36 -12 103 -12 90 0 99 -2 102 -19 6 -28 -25 -46 -77 -46 -46 0 -81
-13 -69 -25 10 -10 74 -10 154 -1 l71 8 12 -32 c10 -31 8 -44 -7 -46 -4 0 -72
-3 -152 -7 -80 -4 -172 -10 -205 -14 l-60 -6 34 -14 c27 -11 47 -12 95 -4 34
5 116 13 184 17 l122 7 0 -96 c0 -106 -4 -113 -69 -101 l-36 7 43 -37 c86 -71
115 -40 110 118 l-3 105 114 3 c76 2 116 7 118 15 8 23 -96 33 -194 17 -31 -5
-33 -4 -33 25 0 17 -4 31 -10 31 -5 0 -10 5 -10 10 0 6 17 10 40 8 45 -2 60 6
41 25 -8 8 -38 11 -87 9 l-75 -3 3 28 3 28 108 9 c78 7 107 13 107 22 0 21
-43 27 -130 20 l-79 -7 -3 53 -3 53 -37 3 -36 3 5 -60z"/>
  <path d="M300 245 c0 -2 8 -14 18 -26 44 -54 58 -61 69 -33 7 20 -23 49 -59
58 -16 3 -28 4 -28 1z"/>
</g>
<g id="part-1" class="char-part">
  <path d="M427 613 c4 -16 8 -44 8 -63 l0 -35 -95 -9 c-52 -4 -97 -10 -100 -13
-16 -15 36 -23 113 -17 l87 7 0 -37 c0 -35 -1 -36 -37 -37 -21 0 -56 -4 -78
-8 -80 -16 -6 -24 109 -12 62 6 136 11 165 11 38 0 51 4 48 13 -3 8 -27 11
-81 10 l-76 -2 0 34 c0 41 10 45 108 45 88 0 120 12 81 30 -17 8 -47 8 -99 2
-41 -5 -79 -7 -84 -4 -5 2 -6 26 -3 52 5 43 4 49 -16 54 -47 13 -58 8 -50 -21z"/>
</g>
<g id="part-2" class="char-part">
  <path d="M534 356 c8 -44 12 -43 -189 -51 -88 -4 -178 -10 -200 -14 l-40 -7
38 -13 c29 -10 52 -10 100 -2 34 6 115 13 180 17 l117 7 0 -90 c0 -105 -8
-118 -66 -107 l-37 7 40 -37 c82 -73 113 -41 113 116 l0 108 114 0 c63 0 117
4 121 9 13 22 -40 33 -137 29 l-98 -5 0 27 c0 20 -6 29 -22 34 -38 10 -40 7
-34 -28z"/>
</g>
<g id="part-3" class="char-part">
  <path d="M300 243 c0 -16 59 -73 74 -73 25 0 20 45 -6 58 -35 17 -68 24 -68
15z"/>
</g>
</g>
</svg>