<?xml version="1.0" standalone="no"?>
<!DOCTYPE svg PUBLIC "-//W3C//DTD SVG 20010904//EN"
 "http://www.w3.org/TR/2001/REC-SVG-20010904/DTD/svg10.dtd">
<svg version="1.0" xmlns="http://www.w3.org/2000/svg"
 width="96.000000pt" height="68.000000pt" viewBox="0 0 96.000000 68.000000"
 preserveAspectRatio="xMidYMid meet">
<metadata>
Created by potrace 1.16, written by Peter Selinger 2001-2019
Combined from part_0.svg through part_5.svg with named groups
</metadata>
<g transform="translate(0.000000,68.000000) scale(0.100000,-0.100000)" fill="#000000" stroke="none">
<g id="part-0" class="char-part">
  <path d="M580 577 c0 -41 -15 -57 -54 -57 -40 0 -65 -15 -41 -24 9 -3 30 -6
45 -6 l29 0 -15 -35 c-21 -50 5 -47 41 5 27 40 28 40 91 40 34 0 65 4 69 9 8
15 -29 31 -69 31 -35 0 -47 12 -25 26 15 9 -28 43 -53 44 -14 0 -18 -8 -18
-33z"/>
  <path d="M300 578 c0 -8 7 -24 16 -36 9 -13 13 -26 10 -30 -4 -3 -33 -8 -66
-10 -33 -2 -60 -8 -60 -12 0 -4 9 -15 20 -25 19 -17 31 -17 101 0 22 6 27 3
33 -19 10 -39 36 -33 36 8 0 30 4 35 30 41 41 9 38 25 -4 25 -32 0 -35 3 -38
33 -3 29 -6 32 -40 35 -27 2 -38 -1 -38 -10z"/>
  <path d="M491 409 c-13 -5 -57 -12 -98 -16 -40 -3 -73 -10 -73 -15 0 -18 30
-19 101 -4 41 8 78 11 82 7 10 -10 -30 -51 -50 -51 -15 0 -17 -16 -3 -25 11
-7 13 -96 4 -132 -5 -19 -11 -22 -33 -17 l-26 7 29 -32 c57 -60 73 -31 63 109
l-7 88 55 22 c30 12 55 27 55 32 0 7 -62 40 -72 37 -2 0 -14 -5 -27 -10z"/>
  <path d="M582 303 c-35 -52 -35 -53 13 -37 46 16 55 30 33 52 -17 17 -24 15
-46 -15z"/>
  <path d="M322 278 c19 -28 58 -37 58 -13 0 8 -12 20 -26 25 -40 15 -48 12 -32
-12z"/>
  <path d="M694 228 c0 -35 -4 -79 -8 -100 l-7 -36 -127 -6 c-70 -4 -167 -7
-217 -9 l-90 -2 -3 98 c-1 53 -6 97 -10 98 -4 0 -19 3 -34 5 -29 5 -36 -4 -17
-23 17 -17 24 -155 9 -183 -10 -18 -9 -25 4 -38 14 -14 24 -15 88 -4 40 7 138
18 218 23 79 6 149 11 155 12 5 1 11 -10 13 -25 7 -59 45 -16 61 67 7 33 17
84 23 114 11 58 4 71 -38 71 -18 0 -20 -6 -20 -62z"/>
  <path d="M400 218 c0 -6 -3 -9 -6 -6 -8 9 -103 -25 -104 -37 -1 -5 5 -14 13
-19 10 -7 28 1 61 24 40 29 57 50 41 50 -3 0 -5 -5 -5 -12z"/>
  <path d="M579 190 c42 -42 65 -50 74 -26 7 18 -8 31 -56 51 -57 24 -62 18 -18
-25z"/>
</g>
<g id="part-1" class="char-part">
  <path d="M578 563 c-3 -36 -5 -37 -53 -48 -47 -11 -48 -12 -23 -19 16 -5 35
-5 44 -2 17 6 17 -11 -1 -59 -5 -14 1 -11 23 11 16 17 31 37 33 43 3 7 36 16
74 20 61 7 67 9 45 18 -14 6 -40 8 -57 6 -34 -5 -40 1 -23 27 12 19 -6 40 -36
40 -19 0 -23 -6 -26 -37z"/>
  <path d="M310 580 c0 -6 7 -24 15 -39 8 -16 11 -31 8 -35 -4 -3 -33 -6 -65 -6
-62 0 -72 -10 -34 -35 22 -15 29 -15 68 -1 l43 14 13 -29 c15 -36 36 -28 30
12 -4 24 0 29 24 34 43 10 48 29 5 21 -34 -6 -36 -5 -42 26 -4 18 -13 36 -19
40 -17 11 -46 10 -46 -2z"/>
</g>
<g id="part-2" class="char-part">
  <path d="M445 399 c-22 -4 -59 -8 -82 -8 -24 -1 -43 -6 -43 -11 0 -20 28 -21
105 -5 43 9 80 13 83 10 3 -3 -7 -19 -23 -35 -16 -17 -25 -30 -21 -30 17 0
126 53 126 61 0 26 -66 35 -145 18z"/>
</g>
<g id="part-3" class="char-part">
  <path d="M693 214 c-2 -130 9 -121 -150 -128 -76 -4 -174 -8 -218 -9 l-80 -2
-3 95 c-3 98 -8 110 -49 110 -27 0 -27 2 -8 -43 17 -42 20 -123 5 -163 -9 -22
-8 -31 7 -45 17 -17 23 -17 78 -4 63 14 264 35 349 35 36 0 47 -3 43 -13 -8
-20 9 -41 26 -34 17 6 26 35 51 167 14 79 14 86 -1 98 -39 28 -48 16 -50 -64z"/>
</g>
<g id="part-4" class="char-part">
  <path d="M444 314 c11 -10 16 -34 16 -74 0 -79 -6 -91 -39 -84 l-26 6 32 -33
c28 -28 34 -31 49 -19 13 12 16 29 12 101 -4 87 -16 119 -45 119 -12 0 -12 -3
1 -16z"/>
  <path d="M590 318 c0 -7 -12 -25 -27 -41 l-28 -29 25 7 c14 4 41 14 60 22 l35
14 -24 20 c-27 22 -41 24 -41 7z"/>
  <path d="M318 283 c18 -33 38 -45 50 -30 15 17 2 34 -32 43 -26 6 -27 5 -18
-13z"/>
  <path d="M350 205 c-63 -22 -85 -46 -48 -53 17 -3 100 47 113 68 3 6 5 10 3 9
-2 -1 -32 -11 -68 -24z"/>
  <path d="M581 190 c48 -44 69 -50 69 -20 0 15 -13 27 -42 40 -66 30 -74 24
-27 -20z"/>
</g>
</g>
</svg>