<?xml version="1.0" standalone="no"?>
<!DOCTYPE svg PUBLIC "-//W3C//DTD SVG 20010904//EN"
 "http://www.w3.org/TR/2001/REC-SVG-20010904/DTD/svg10.dtd">
<svg version="1.0" xmlns="http://www.w3.org/2000/svg"
 width="96.000000pt" height="68.000000pt" viewBox="0 0 96.000000 68.000000"
 preserveAspectRatio="xMidYMid meet">
<metadata>
Created by potrace 1.16, written by Peter Selinger 2001-2019
Combined from part_0.svg through part_5.svg with named groups
</metadata>
<g transform="translate(0.000000,68.000000) scale(0.100000,-0.100000)" fill="#000000" stroke="none">
<g id="part-0" class="char-part">
  <path d="M515 628 c4 -13 9 -39 12 -59 l5 -36 -54 -6 c-88 -11 -91 -10 -84 18
6 23 2 28 -30 41 -20 8 -43 13 -51 10 -15 -6 -15 -11 3 -67 5 -13 -6 -17 -55
-23 -34 -4 -61 -11 -61 -15 0 -12 37 -21 83 -21 l37 0 0 -115 0 -115 -62 0
c-76 0 -138 -10 -138 -21 0 -22 76 -28 189 -14 64 8 197 15 296 15 181 0 225
4 225 22 0 5 -16 16 -35 24 -29 12 -51 13 -117 4 -45 -5 -85 -7 -89 -2 -4 4
-5 58 -2 120 l6 112 58 0 c32 0 60 4 63 9 11 17 -27 36 -71 35 -46 -1 -50 5
-33 51 9 24 7 27 -25 41 -19 7 -44 14 -56 14 -18 0 -20 -4 -14 -22z m15 -165
c0 -35 -2 -38 -27 -38 -16 -1 -49 -4 -75 -8 l-48 -8 0 35 c0 33 2 35 43 40 40
5 83 12 100 15 4 0 7 -16 7 -36z m0 -88 c0 -34 -1 -35 -37 -35 -21 0 -55 -3
-75 -6 -37 -6 -38 -6 -38 24 0 29 3 31 48 37 26 3 54 8 62 9 36 8 40 5 40 -29z
m-2 -82 c-3 -31 -26 -40 -100 -42 -47 -1 -48 0 -48 28 0 33 10 37 103 40 47 1
48 0 45 -26z"/>
  <path d="M330 181 c0 -18 -53 -73 -104 -107 -28 -19 -44 -34 -36 -34 17 0 122
47 130 58 3 4 25 20 49 36 42 27 43 30 26 42 -21 16 -65 19 -65 5z"/>
  <path d="M540 175 c0 -3 27 -32 60 -65 61 -61 86 -72 97 -44 10 27 -13 58 -58
80 -46 23 -99 38 -99 29z"/>
</g>
<g id="part-1" class="char-part">
  <path d="M526 605 c25 -61 20 -73 -33 -80 -27 -3 -63 -8 -81 -11 -33 -5 -34
-5 -27 25 7 34 -13 51 -60 51 -22 0 -26 -3 -20 -17 5 -10 8 -29 9 -43 1 -23
-3 -25 -51 -28 -29 -2 -53 -7 -53 -11 0 -12 57 -22 85 -15 20 5 23 1 29 -42 3
-26 6 -79 6 -119 l0 -73 -97 -7 c-120 -8 -126 -10 -88 -25 17 -6 53 -9 85 -6
30 2 174 10 320 17 146 6 267 14 270 16 3 3 -4 11 -15 20 -16 12 -39 14 -122
8 l-103 -6 0 64 c0 35 3 92 6 126 l7 61 58 0 c33 0 59 4 59 9 0 13 -27 21 -75
21 l-43 0 10 37 c8 31 7 39 -8 50 -10 7 -32 13 -50 13 l-33 0 15 -35z m10
-166 c-3 -34 -6 -91 -6 -125 l0 -64 -79 0 -79 0 1 118 2 117 50 6 c28 3 65 7
84 7 l34 2 -7 -61z"/>
</g>
<g id="part-2" class="char-part">
  <path d="M425 416 c-80 -17 -50 -30 36 -17 35 6 69 11 74 11 6 0 3 5 -5 10
-18 12 -28 11 -105 -4z"/>
</g>
<g id="part-3" class="char-part">
  <path d="M433 336 c-29 -5 -53 -13 -53 -18 0 -11 130 0 143 12 14 13 -35 16
-90 6z"/>
</g>
<g id="part-4" class="char-part">
  <path d="M330 177 c0 -16 -62 -76 -114 -111 -21 -14 -34 -26 -27 -26 22 0 81
29 153 76 67 43 71 47 53 60 -24 18 -65 18 -65 1z"/>
  <path d="M596 115 c64 -67 95 -79 102 -42 7 34 -61 86 -134 101 -30 7 -29 4
32 -59z"/>
</g>
</g>
</svg>