<?xml version="1.0" standalone="no"?>
<!DOCTYPE svg PUBLIC "-//W3C//DTD SVG 20010904//EN"
 "http://www.w3.org/TR/2001/REC-SVG-20010904/DTD/svg10.dtd">
<svg version="1.0" xmlns="http://www.w3.org/2000/svg"
 width="96.000000pt" height="68.000000pt" viewBox="0 0 96.000000 68.000000"
 preserveAspectRatio="xMidYMid meet">
<metadata>
Created by potrace 1.16, written by Peter Selinger 2001-2019
Combined from part_0.svg through part_5.svg with named groups
</metadata>
<g transform="translate(0.000000,68.000000) scale(0.100000,-0.100000)" fill="#000000" stroke="none">
<g id="part-0" class="char-part">
  <path d="M525 533 c-22 -40 -48 -69 -84 -93 -18 -12 -22 -21 -17 -37 6 -18 11
-20 36 -13 16 5 32 5 35 1 6 -11 -52 -91 -65 -91 -6 0 -10 -4 -10 -9 0 -5 9
-7 20 -4 29 8 95 80 95 105 0 16 8 22 28 25 25 3 27 1 27 -35 0 -25 6 -45 17
-53 21 -18 144 -19 150 -1 3 9 -11 12 -50 12 -79 0 -83 3 -79 55 3 38 7 45 25
45 11 0 31 -10 44 -22 17 -16 26 -19 35 -10 17 17 -15 59 -58 77 -44 18 -52
19 -36 3 20 -20 14 -38 -14 -38 -14 0 -45 -5 -70 -11 -25 -6 -48 -9 -51 -5 -4
3 13 27 37 51 36 37 43 49 34 62 -17 28 -28 25 -49 -14z"/>
  <path d="M292 513 c-8 -3 -53 -10 -100 -17 -93 -12 -115 -29 -44 -34 l42 -3 0
-45 0 -44 -42 0 -43 0 0 -144 c0 -79 3 -148 7 -152 4 -4 14 -2 22 5 8 7 52 15
98 18 81 5 86 5 101 -18 16 -21 18 -22 33 -7 13 13 16 42 16 163 1 163 -2 172
-63 163 -32 -5 -39 5 -29 42 6 24 21 32 83 45 24 5 27 8 17 20 -12 15 -71 19
-98 8z m-42 -88 c0 -33 -4 -45 -15 -45 -11 0 -15 11 -15 39 0 33 5 43 28 50 1
1 2 -19 2 -44z m10 -109 c0 -49 13 -66 52 -66 28 0 28 -1 28 -62 l0 -63 -78
-2 c-42 -1 -87 -5 -99 -8 -22 -5 -23 -2 -23 46 0 45 5 57 35 90 19 22 35 48
35 60 0 31 18 59 35 53 10 -4 15 -20 15 -48z m80 4 c0 -47 -2 -50 -25 -50 -23
0 -25 3 -25 50 0 47 2 50 25 50 23 0 25 -3 25 -50z m-150 28 c0 -24 -21 -87
-30 -93 -6 -4 -10 16 -10 49 0 49 2 56 20 56 11 0 20 -6 20 -12z"/>
  <path d="M210 185 l-35 -13 45 -1 c59 -1 96 9 78 20 -18 12 -47 10 -88 -6z"/>
  <path d="M517 275 c-10 -24 -36 -63 -58 -86 -37 -39 -44 -49 -36 -49 2 0 17
11 32 24 l29 25 29 -21 c57 -41 47 -59 -58 -102 -33 -14 -53 -25 -45 -25 23
-1 91 19 136 40 l41 20 38 -36 c35 -31 45 -35 96 -35 65 0 119 9 119 20 0 4
-28 13 -62 20 -67 13 -158 47 -158 60 0 4 16 31 35 59 19 28 35 55 35 61 0 16
-45 22 -86 11 -45 -12 -50 -10 -32 18 11 18 11 23 -2 31 -26 17 -35 11 -53
-35z m103 -52 c-1 -10 -12 -31 -25 -48 l-25 -30 -32 32 c-36 37 -34 43 19 53
59 12 63 11 63 -7z"/>
</g>
<g id="part-1" class="char-part">
  <path d="M250 503 c-47 -8 -98 -18 -115 -22 l-30 -8 29 -8 c29 -8 240 16 253
29 21 21 -43 25 -137 9z"/>
</g>
<g id="part-2" class="char-part">
  <path d="M275 389 c-16 -5 -61 -11 -100 -15 l-70 -6 0 -144 c0 -78 4 -146 7
-150 4 -4 13 -2 21 4 7 6 51 14 96 18 80 7 84 6 102 -17 17 -22 19 -23 35 -7
14 14 17 39 17 160 0 80 -3 150 -7 156 -8 14 -57 14 -101 1z m65 -141 l0 -123
-101 -3 -101 -3 7 113 c4 62 9 115 11 117 7 7 85 18 137 20 l47 1 0 -122z"/>
</g>
<g id="part-3" class="char-part">
  <path d="M524 535 c-9 -20 -37 -53 -61 -75 -29 -25 -43 -45 -41 -57 5 -22 5
-22 140 13 l108 28 25 -24 c18 -17 28 -21 36 -13 19 19 -1 52 -41 73 -48 25
-68 26 -50 5 8 -10 9 -19 4 -24 -11 -11 -136 -33 -143 -26 -2 3 14 25 37 48
44 45 53 71 26 81 -22 9 -21 9 -40 -29z"/>
</g>
<g id="part-4" class="char-part">
  <path d="M597 423 c-14 -13 -7 -81 10 -94 21 -18 144 -19 150 -1 3 9 -11 12
-54 12 -77 0 -89 8 -74 50 6 18 11 35 11 36 0 7 -37 4 -43 -3z"/>
  <path d="M514 402 c-5 -4 -20 -24 -33 -45 -13 -21 -34 -45 -47 -54 -36 -23
-22 -28 21 -7 41 19 94 89 79 104 -5 5 -14 6 -20 2z"/>
</g>
<g id="part-5" class="char-part">
  <path d="M623 264 c-8 -4 -9 -13 -3 -30 8 -20 6 -29 -10 -46 -11 -12 -20 -28
-20 -36 0 -8 -6 -12 -15 -9 -8 4 -17 1 -21 -5 -4 -6 -3 -8 3 -5 6 4 14 0 17
-9 5 -12 2 -15 -9 -10 -9 3 -13 2 -10 -4 3 -6 0 -10 -7 -10 -7 0 -24 -10 -38
-21 -20 -16 -14 -15 29 6 40 20 56 24 61 15 4 -7 13 -9 19 -5 9 5 9 10 0 21
-6 7 -16 11 -23 7 -6 -4 -5 1 2 10 8 9 10 22 6 29 -5 10 -4 11 6 1 11 -10 17
-8 32 15 21 32 22 39 6 45 -7 2 -5 3 4 2 24 -4 33 12 18 30 -13 15 -25 17 -47
9z"/>
  <path d="M556 241 c-3 -4 6 -6 19 -3 14 2 25 6 25 8 0 8 -39 4 -44 -5z"/>
  <path d="M632 98 c-15 -15 -16 -28 -2 -28 6 0 19 -9 30 -20 15 -15 31 -20 63
-17 23 1 48 6 55 10 6 5 17 5 22 2 6 -3 10 -1 10 4 0 6 -10 12 -22 13 -13 1
-32 2 -43 3 -11 1 -33 7 -48 13 -16 7 -32 12 -37 12 -5 0 -10 5 -12 10 -2 7
-8 6 -16 -2z"/>
</g>
</g>
</svg>