<?xml version="1.0" standalone="no"?>
<!DOCTYPE svg PUBLIC "-//W3C//DTD SVG 20010904//EN"
 "http://www.w3.org/TR/2001/REC-SVG-20010904/DTD/svg10.dtd">
<svg version="1.0" xmlns="http://www.w3.org/2000/svg"
 width="96.000000pt" height="68.000000pt" viewBox="0 0 96.000000 68.000000"
 preserveAspectRatio="xMidYMid meet">
<metadata>
Created by potrace 1.16, written by Peter Selinger 2001-2019
Combined from part_0.svg through part_5.svg with named groups
</metadata>
<g transform="translate(0.000000,68.000000) scale(0.100000,-0.100000)" fill="#000000" stroke="none">
<g id="part-0" class="char-part">
  <path d="M470 565 c-58 -8 -124 -11 -147 -8 -47 6 -49 3 -32 -46 7 -19 8 -54
4 -86 l-6 -55 -57 -1 c-31 0 -77 -4 -102 -7 -72 -11 -28 -27 68 -25 l84 2 -7
-27 c-3 -15 -15 -45 -26 -68 -35 -74 -17 -100 47 -69 27 12 65 17 150 18 62 0
117 -2 120 -6 5 -5 -32 -77 -41 -77 -1 0 -22 7 -45 15 -66 23 -68 19 -15 -35
28 -27 59 -50 71 -50 32 0 94 79 94 120 0 25 6 25 81 -1 49 -17 63 -19 69 -8
20 32 -42 79 -104 79 l-35 0 5 53 c9 81 3 77 109 77 75 0 95 3 95 14 0 23 -64
39 -130 31 l-60 -7 0 34 c1 18 7 51 15 73 8 21 13 40 12 40 -1 1 -13 9 -27 18
-28 19 -45 19 -190 2z m130 -99 l0 -74 -121 -7 c-66 -4 -122 -5 -125 -2 -3 2
-2 34 2 70 l7 65 71 10 c39 5 92 10 119 11 l47 1 0 -74z m-6 -158 c-3 -29 -7
-59 -10 -65 -2 -10 -39 -13 -140 -13 -126 0 -136 1 -129 18 3 9 11 36 18 59
l11 42 55 4 c31 2 88 4 128 5 l72 2 -5 -52z"/>
  <path d="M430 483 c0 -13 46 -63 58 -63 17 0 23 33 10 46 -17 17 -68 29 -68
17z"/>
  <path d="M420 315 c0 -17 46 -65 62 -65 26 0 23 35 -4 54 -22 15 -58 22 -58
11z"/>
</g>
<g id="part-1" class="char-part">
  <path d="M455 558 c-38 -5 -90 -8 -115 -6 l-45 3 0 -105 c-1 -91 -4 -114 -28
-171 -28 -67 -35 -119 -17 -119 6 0 25 7 42 16 22 11 70 18 155 22 136 5 140
4 108 -58 -17 -34 -44 -38 -85 -15 -46 26 -45 15 5 -35 27 -27 55 -50 61 -50
18 0 71 64 85 104 15 40 26 43 89 21 53 -19 70 -19 70 -1 0 26 -64 66 -105 66
l-37 0 6 63 c3 34 9 89 12 122 3 33 10 75 16 94 9 29 8 36 -8 48 -20 15 -102
15 -209 1z m153 -58 c3 -38 -15 -261 -21 -266 -1 -1 -64 -4 -141 -8 l-138 -6
5 23 c8 32 35 173 44 232 l8 50 100 11 c143 16 139 17 143 -36z"/>
</g>
<g id="part-2" class="char-part">
  <path d="M420 491 c0 -4 13 -22 28 -41 20 -23 34 -31 45 -27 22 8 22 43 0 52
-39 15 -73 23 -73 16z"/>
  <path d="M667 400 c-43 -4 -133 -11 -200 -14 -200 -12 -370 -25 -375 -31 -23
-22 65 -25 270 -7 81 6 223 12 317 12 177 0 211 8 147 35 -38 16 -40 16 -159
5z"/>
</g>
<g id="part-3" class="char-part">
  <path d="M439 288 c26 -42 61 -50 61 -14 0 27 -25 46 -60 46 l-22 0 21 -32z"/>
</g>
</g>
</svg>