<?xml version="1.0" standalone="no"?>
<!DOCTYPE svg PUBLIC "-//W3C//DTD SVG 20010904//EN"
 "http://www.w3.org/TR/2001/REC-SVG-20010904/DTD/svg10.dtd">
<svg version="1.0" xmlns="http://www.w3.org/2000/svg"
 width="96.000000pt" height="68.000000pt" viewBox="0 0 96.000000 68.000000"
 preserveAspectRatio="xMidYMid meet">
<metadata>
Created by potrace 1.16, written by Peter Selinger 2001-2019
Combined from part_0.svg through part_5.svg with named groups
</metadata>
<g transform="translate(0.000000,68.000000) scale(0.100000,-0.100000)" fill="#000000" stroke="none">
<g id="part-0" class="char-part">
  <path d="M490 613 c1 -5 20 -21 43 -36 23 -16 57 -39 76 -53 41 -29 67 -31 74
-5 7 28 -27 55 -99 80 -63 22 -94 26 -94 14z"/>
  <path d="M316 576 c-3 -13 -32 -48 -63 -77 -52 -47 -55 -52 -29 -45 17 4 43
17 59 28 22 16 33 18 50 10 12 -5 37 -15 55 -22 17 -7 32 -15 32 -19 0 -7 -77
-60 -145 -100 -22 -13 -71 -36 -110 -52 -82 -33 -67 -38 23 -8 34 12 69 18 77
15 11 -4 14 -27 13 -112 -2 -101 -1 -107 22 -124 58 -44 355 -37 404 10 9 9
-13 100 -25 100 -3 0 -10 -15 -15 -32 -6 -21 -20 -38 -39 -48 -37 -18 -248
-26 -287 -11 -25 9 -28 16 -28 54 l0 44 88 6 c140 10 184 18 178 33 -3 7 3 28
13 47 32 63 9 71 -150 51 -67 -8 -128 -13 -136 -10 -17 7 -17 26 0 26 7 0 43
18 80 40 36 22 70 40 76 40 6 0 50 -26 98 -57 l88 -58 88 1 c118 2 129 16 30
39 -100 23 -199 57 -242 83 l-34 20 41 29 c48 32 50 42 18 65 -23 17 -24 16
-55 -28 -18 -24 -38 -44 -44 -44 -7 1 -36 9 -64 19 -50 17 -52 19 -35 34 10
10 22 14 27 10 4 -5 5 -3 1 4 -3 6 1 16 11 21 14 9 15 13 4 26 -7 9 -26 16
-41 16 -21 0 -29 -6 -34 -24z m226 -296 c-5 -34 -21 -48 -62 -52 -35 -3 -35
-3 -32 32 5 49 8 51 55 48 38 -3 42 -5 39 -28z m-132 -19 c0 -43 -10 -51 -66
-51 -32 0 -34 2 -34 35 0 39 19 53 73 54 25 1 27 -2 27 -38z"/>
</g>
<g id="part-1" class="char-part">
  <path d="M550 570 c74 -56 110 -74 122 -62 30 30 -44 85 -132 98 l-45 6 55
-42z"/>
  <path d="M315 564 c-10 -19 -36 -51 -57 -70 -39 -35 -31 -47 12 -17 67 45 120
88 120 99 0 10 -29 23 -50 24 -3 0 -14 -16 -25 -36z"/>
</g>
<g id="part-2" class="char-part">
  <path d="M480 509 l-35 -41 -42 17 c-23 9 -52 15 -65 13 -19 -3 -15 -6 20 -18
23 -7 46 -18 51 -24 13 -16 -95 -87 -214 -141 -55 -25 -91 -45 -80 -45 44 0
239 84 307 131 14 11 31 19 37 19 7 0 46 -23 87 -51 42 -28 90 -55 108 -60 33
-10 186 -1 186 10 0 4 -35 15 -77 25 -101 24 -156 42 -221 73 -57 28 -57 39 0
69 33 17 36 39 9 54 -29 15 -33 13 -71 -31z"/>
</g>
<g id="part-3" class="char-part">
  <path d="M435 324 c-49 -7 -108 -10 -129 -7 -34 5 -38 3 -33 -12 4 -9 7 -41 7
-70 0 -50 2 -53 23 -50 30 5 238 20 260 19 11 0 16 4 13 13 -3 7 3 33 14 58
19 44 19 45 0 55 -22 12 -36 11 -155 -6z m105 -37 c0 -33 -20 -54 -57 -59 -32
-4 -33 -3 -33 32 0 46 4 50 52 50 33 0 38 -3 38 -23z m-130 -26 c0 -43 -10
-51 -66 -51 -32 0 -34 2 -34 35 0 39 19 53 73 54 25 1 27 -2 27 -38z"/>
</g>
<g id="part-4" class="char-part">
  <path d="M665 154 c-14 -56 -45 -68 -185 -72 -65 -2 -127 1 -142 7 -24 9 -28
16 -28 51 0 34 -3 40 -21 40 -19 0 -21 -4 -15 -47 3 -26 11 -53 19 -60 36 -37
291 -42 375 -8 47 19 50 30 23 89 l-17 39 -9 -39z"/>
</g>
</g>
</svg>