<?xml version="1.0" standalone="no"?>
<!DOCTYPE svg PUBLIC "-//W3C//DTD SVG 20010904//EN"
 "http://www.w3.org/TR/2001/REC-SVG-20010904/DTD/svg10.dtd">
<svg version="1.0" xmlns="http://www.w3.org/2000/svg"
 width="96.000000pt" height="68.000000pt" viewBox="0 0 96.000000 68.000000"
 preserveAspectRatio="xMidYMid meet">
<metadata>
Created by potrace 1.16, written by Peter Selinger 2001-2019
Combined from part_0.svg through part_5.svg with named groups
</metadata>
<g transform="translate(0.000000,68.000000) scale(0.100000,-0.100000)" fill="#000000" stroke="none">
<g id="part-0" class="char-part">
  <path d="M198 545 c-15 -30 -25 -62 -22 -70 11 -27 43 -16 67 22 l24 37 189
18 c104 9 190 15 192 13 2 -2 -6 -18 -19 -36 l-23 -32 25 6 c13 4 44 10 67 14
55 8 64 28 27 61 -27 23 -34 24 -96 18 -37 -3 -136 -11 -220 -17 -135 -9 -153
-9 -161 5 -14 25 -21 19 -50 -39z"/>
  <path d="M460 490 c-14 -4 -57 -8 -97 -9 l-72 -1 13 -32 c8 -18 17 -55 20 -83
l7 -50 125 0 125 0 9 40 c6 22 15 57 21 78 9 33 8 41 -8 53 -19 14 -102 17
-143 4z m90 -44 c0 -25 -2 -26 -174 -39 -13 -2 -21 7 -27 25 -7 27 -6 27 44
31 147 10 157 9 157 -17z m-2 -73 c-3 -26 -4 -26 -95 -30 l-93 -4 0 25 c0 24
3 25 63 29 34 2 77 4 95 5 31 2 33 0 30 -25z"/>
  <path d="M420 281 c0 -5 7 -14 15 -21 35 -29 13 -35 -167 -45 -60 -4 -106 -10
-103 -15 9 -14 74 -19 137 -9 35 5 146 12 248 14 102 3 201 8 220 11 l35 6
-25 14 c-20 11 -53 13 -157 8 -118 -6 -133 -5 -133 9 0 18 -29 37 -54 37 -9 0
-16 -4 -16 -9z"/>
  <path d="M324 140 c-11 -17 -43 -46 -70 -65 -88 -63 0 -32 109 38 50 33 56 41
31 51 -31 12 -49 5 -70 -24z"/>
  <path d="M540 166 c0 -12 125 -126 138 -126 21 0 25 29 7 56 -18 28 -145 89
-145 70z"/>
</g>
<g id="part-1" class="char-part">
  <path d="M602 590 c-30 -4 -118 -11 -198 -15 -110 -6 -148 -4 -159 5 -18 15
-16 17 -44 -43 -13 -26 -20 -54 -17 -62 10 -27 37 -16 54 23 l16 39 193 18
c106 10 196 15 200 12 3 -4 -2 -18 -12 -33 l-17 -27 33 7 c19 4 49 10 67 13
38 7 39 13 10 41 -29 26 -60 32 -126 22z"/>
</g>
<g id="part-2" class="char-part">
  <path d="M485 495 c-27 -7 -82 -14 -122 -14 l-72 -1 13 -32 c8 -18 16 -53 20
-78 8 -54 22 -81 34 -63 8 13 166 20 195 8 10 -4 20 -5 23 -2 3 3 14 40 25 82
18 74 18 78 2 91 -10 7 -23 14 -30 14 -6 0 -17 2 -25 4 -7 2 -35 -2 -63 -9z
m65 -49 c0 -22 -5 -24 -77 -30 -43 -4 -88 -10 -100 -13 -20 -4 -23 -1 -23 25
0 31 1 31 58 35 145 9 142 9 142 -17z m0 -63 c0 -32 -14 -38 -102 -41 l-88 -4
0 26 c0 24 2 25 73 29 39 1 82 4 95 5 15 1 22 -3 22 -15z"/>
</g>
<g id="part-3" class="char-part">
  <path d="M420 287 c0 -6 7 -19 17 -29 9 -10 14 -20 11 -23 -3 -3 -67 -10 -144
-16 -76 -6 -140 -12 -143 -14 -2 -3 9 -9 25 -15 20 -8 52 -8 114 0 47 6 166
13 265 16 99 3 191 8 205 10 25 6 25 6 5 21 -16 12 -43 13 -150 8 -129 -7
-130 -7 -140 16 -10 24 -65 46 -65 26z"/>
</g>
<g id="part-4" class="char-part">
  <path d="M320 138 c-12 -18 -43 -48 -69 -66 -59 -43 -21 -34 64 14 89 50 103
63 85 74 -29 19 -57 10 -80 -22z"/>
  <path d="M589 114 c77 -72 90 -79 104 -65 29 29 -50 95 -138 117 -27 7 -23 1
34 -52z"/>
</g>
</g>
</svg>