<?xml version="1.0" standalone="no"?>
<!DOCTYPE svg PUBLIC "-//W3C//DTD SVG 20010904//EN"
 "http://www.w3.org/TR/2001/REC-SVG-20010904/DTD/svg10.dtd">
<svg version="1.0" xmlns="http://www.w3.org/2000/svg"
 width="96.000000pt" height="68.000000pt" viewBox="0 0 96.000000 68.000000"
 preserveAspectRatio="xMidYMid meet">
<metadata>
Created by potrace 1.16, written by Peter Selinger 2001-2019
Combined from part_0.svg through part_5.svg with named groups
</metadata>
<g transform="translate(0.000000,68.000000) scale(0.100000,-0.100000)" fill="#000000" stroke="none">
<g id="part-0" class="char-part">
  <path d="M420 579 c-41 -11 -109 -22 -150 -24 -83 -6 -107 -18 -68 -36 20 -9
46 -8 121 5 87 15 157 21 157 13 0 -2 -7 -27 -15 -55 -14 -45 -19 -52 -48 -57
-78 -14 -184 -21 -204 -14 -13 5 -23 7 -23 6 -6 -31 1 -230 9 -245 6 -11 32
-31 58 -44 43 -21 64 -23 203 -26 122 -3 168 0 217 13 79 22 91 35 71 78 -8
18 -19 48 -23 67 l-8 34 -18 -49 c-11 -28 -31 -58 -45 -68 -58 -43 -318 -50
-385 -11 -30 18 -34 25 -37 69 -2 27 2 68 8 91 l12 41 86 7 c179 14 178 14
178 52 0 22 11 50 33 80 33 48 37 75 11 80 -8 1 -26 4 -40 7 -14 3 -59 -3
-100 -14z"/>
</g>
<g id="part-1" class="char-part">
  <path d="M423 575 c-23 -7 -85 -19 -137 -25 -53 -7 -93 -16 -90 -21 8 -13 63
-11 175 8 54 9 102 13 105 10 10 -10 -7 -86 -24 -107 -13 -16 -34 -21 -97 -26
-88 -7 -108 -13 -97 -31 11 -17 254 6 248 24 -6 16 26 88 56 126 16 20 19 30
11 38 -18 18 -103 20 -150 4z"/>
</g>
<g id="part-2" class="char-part">
  <path d="M186 300 c0 -141 9 -156 101 -185 73 -23 351 -17 426 10 26 9 47 21
47 26 0 5 -10 39 -22 75 l-22 67 -13 -38 c-32 -92 -70 -108 -253 -109 -129 -1
-149 1 -180 20 -32 18 -35 24 -38 74 -2 34 3 71 14 99 17 44 17 45 -6 63 -12
10 -30 18 -39 18 -14 0 -16 -15 -15 -120z"/>
</g>
</g>
</svg>