<?xml version="1.0" standalone="no"?>
<!DOCTYPE svg PUBLIC "-//W3C//DTD SVG 20010904//EN"
 "http://www.w3.org/TR/2001/REC-SVG-20010904/DTD/svg10.dtd">
<svg version="1.0" xmlns="http://www.w3.org/2000/svg"
 width="96.000000pt" height="68.000000pt" viewBox="0 0 96.000000 68.000000"
 preserveAspectRatio="xMidYMid meet">
<metadata>
Created by potrace 1.16, written by Peter Selinger 2001-2019
Combined from part_0.svg through part_5.svg with named groups
</metadata>
<g transform="translate(0.000000,68.000000) scale(0.100000,-0.100000)" fill="#000000" stroke="none">
<g id="part-0" class="char-part">
  <path d="M540 600 c0 -36 -52 -131 -97 -179 -38 -40 -17 -37 34 5 44 37 53 40
148 51 85 9 102 9 112 -4 16 -20 16 -277 0 -323 -13 -37 -24 -40 -82 -25 l-30
8 40 -45 c44 -51 64 -57 88 -30 32 35 45 88 51 207 4 66 9 143 12 171 5 50 5
51 -30 68 -31 15 -41 15 -106 1 -81 -17 -140 -19 -140 -6 0 5 4 11 8 13 14 5
52 65 52 81 0 15 -20 27 -46 27 -8 0 -14 -9 -14 -20z"/>
  <path d="M285 530 c-22 -4 -61 -11 -87 -14 -64 -9 -61 -24 5 -28 l52 -3 3 -57
c3 -56 2 -58 -22 -58 -32 0 -56 -10 -56 -22 0 -6 18 -8 40 -6 39 3 40 3 41
-29 4 -87 2 -92 -28 -99 -113 -25 -121 -31 -78 -54 22 -12 34 -9 130 39 58 28
105 54 105 58 0 5 -34 -1 -64 -13 -14 -5 -16 3 -16 54 l0 60 47 7 c52 8 42 25
-16 25 -30 0 -33 2 -27 23 3 12 6 36 6 53 0 29 3 31 47 40 65 13 69 34 6 33
-26 -1 -66 -5 -88 -9z"/>
  <path d="M508 383 l-58 -4 0 -88 0 -89 68 5 c37 3 69 7 71 9 2 2 10 -4 17 -14
8 -11 16 -14 23 -7 11 12 17 167 7 184 -4 6 -22 10 -39 9 -18 -1 -58 -3 -89
-5z m87 -34 c9 -28 -1 -36 -57 -42 -47 -4 -48 -4 -48 24 0 29 11 35 72 38 19
1 29 -5 33 -20z m5 -87 c0 -28 -2 -29 -55 -31 l-55 -2 0 30 c0 31 0 31 55 31
54 0 55 -1 55 -28z"/>
</g>
<g id="part-1" class="char-part">
  <path d="M319 531 c-14 -5 -55 -11 -92 -15 -37 -4 -67 -12 -67 -17 0 -21 241
4 244 26 1 13 -51 16 -85 6z"/>
</g>
<g id="part-2" class="char-part">
  <path d="M265 494 c-6 -2 -9 -30 -7 -64 4 -60 4 -60 -25 -61 -15 0 -37 -4 -48
-9 -19 -7 -18 -8 7 -15 15 -4 36 -4 47 0 20 6 21 3 21 -58 l0 -65 -72 -17 -71
-18 22 -19 c13 -10 31 -18 40 -17 9 0 63 25 121 55 64 33 93 53 75 50 -16 -2
-38 -8 -48 -12 -16 -6 -18 -1 -15 52 l3 58 44 9 c49 10 40 27 -14 27 -31 0
-31 1 -30 53 0 45 -3 52 -20 54 -11 1 -24 0 -30 -3z"/>
</g>
<g id="part-3" class="char-part">
  <path d="M540 603 c-1 -29 -38 -104 -81 -160 -47 -63 -39 -68 23 -14 43 38 46
39 145 46 130 9 127 14 121 -179 -4 -148 -15 -191 -46 -182 -9 3 -30 8 -47 12
l-30 7 40 -45 c46 -53 63 -57 93 -25 33 35 40 64 46 198 4 68 9 147 12 175 5
51 5 51 -31 68 -34 17 -42 17 -107 2 -39 -9 -86 -16 -105 -16 l-34 0 31 45
c37 54 36 79 -3 83 -21 3 -27 -1 -27 -15z"/>
</g>
<g id="part-4" class="char-part">
  <path d="M500 383 l-55 -4 5 -87 5 -87 65 3 c36 2 67 6 69 8 2 2 10 -4 17 -14
8 -11 16 -14 23 -7 11 12 17 167 7 184 -7 11 -20 11 -136 4z m98 -41 c4 -24
-2 -27 -65 -36 -42 -6 -43 -6 -43 23 0 33 14 40 70 38 28 -2 36 -6 38 -25z m2
-82 c0 -30 -1 -30 -55 -30 -54 0 -55 0 -55 30 0 30 1 30 55 30 54 0 55 0 55
-30z"/>
</g>
</g>
</svg>