<?xml version="1.0" standalone="no"?>
<!DOCTYPE svg PUBLIC "-//W3C//DTD SVG 20010904//EN"
 "http://www.w3.org/TR/2001/REC-SVG-20010904/DTD/svg10.dtd">
<svg version="1.0" xmlns="http://www.w3.org/2000/svg"
 width="96.000000pt" height="68.000000pt" viewBox="0 0 96.000000 68.000000"
 preserveAspectRatio="xMidYMid meet">
<metadata>
Created by potrace 1.16, written by Peter Selinger 2001-2019
Combined from part_0.svg through part_5.svg with named groups
</metadata>
<g transform="translate(0.000000,68.000000) scale(0.100000,-0.100000)" fill="#000000" stroke="none">
<g id="part-0" class="char-part">
  <path d="M236 533 c-9 -36 -74 -131 -98 -144 -13 -7 -18 -19 -16 -37 3 -30 17
-32 77 -13 l34 10 -24 -26 c-13 -14 -37 -39 -53 -54 -17 -17 -26 -35 -22 -44
7 -21 13 -20 91 16 48 21 71 27 78 20 16 -16 27 -13 27 7 0 17 -29 52 -42 52
-4 0 -4 -8 -1 -18 3 -13 -6 -21 -34 -32 -21 -8 -41 -16 -45 -18 -5 -2 -8 2 -8
10 0 7 27 40 60 73 67 67 79 90 57 112 -14 14 -17 11 -36 -25 -15 -30 -29 -42
-51 -47 -18 -4 -34 -4 -37 -1 -3 3 20 34 51 70 60 69 67 89 37 106 -30 16 -38
12 -45 -17z"/>
  <path d="M600 542 c0 -32 -49 -92 -75 -92 -22 0 -24 -2 -15 -26 13 -33 12
-117 -1 -174 -5 -24 -7 -55 -4 -67 6 -25 35 -32 35 -9 0 14 60 26 130 26 33 0
37 3 33 19 -3 11 2 30 11 43 21 29 20 35 -4 48 -15 8 -33 7 -72 -5 -76 -22
-88 -20 -88 15 0 30 0 30 58 30 31 0 62 4 67 8 19 13 47 80 40 92 -8 12 -66 9
-125 -6 -21 -5 -18 1 23 41 37 38 45 51 36 61 -17 20 -49 18 -49 -4z m60 -132
c0 -31 -6 -34 -78 -43 -32 -4 -33 -2 -30 27 3 29 7 31 48 37 25 3 48 7 53 7 4
1 7 -11 7 -28z m3 -126 c19 -7 10 -52 -12 -58 -37 -10 -92 -17 -100 -12 -4 3
-6 18 -3 34 3 25 8 28 45 31 23 1 43 4 46 7 6 5 6 5 24 -2z"/>
  <path d="M390 427 c0 -16 32 -47 48 -47 23 0 11 30 -18 45 -25 13 -30 13 -30
2z"/>
  <path d="M396 315 c-29 -12 -29 -13 -7 -20 17 -5 21 -12 17 -27 -3 -12 2 -34
10 -49 24 -46 18 -57 -31 -65 -25 -3 -45 -11 -45 -16 0 -7 17 -8 44 -5 47 7
59 4 186 -42 47 -17 101 -31 121 -31 35 0 134 28 126 36 -2 2 -58 8 -125 13
-66 5 -148 17 -181 27 -54 15 -61 20 -61 42 0 14 -8 34 -17 44 -15 17 -15 20
5 48 26 35 27 46 6 54 -9 3 -16 6 -17 5 -1 0 -15 -6 -31 -14z"/>
  <path d="M289 213 c5 -11 17 -25 25 -32 13 -11 17 -10 22 4 8 19 -2 30 -34 40
-21 6 -23 5 -13 -12z"/>
  <path d="M230 160 c12 -16 26 -30 31 -30 17 0 9 39 -10 50 -35 18 -43 11 -21
-20z"/>
  <path d="M120 154 c0 -13 42 -74 51 -74 24 0 21 34 -5 57 -26 22 -46 30 -46
17z"/>
</g>
<g id="part-1" class="char-part">
  <path d="M235 521 c-7 -34 -63 -116 -94 -137 -11 -8 -21 -24 -21 -36 0 -18 5
-20 33 -15 17 3 46 11 62 18 l30 12 -32 6 -32 6 59 70 c63 74 69 89 44 99 -30
12 -42 6 -49 -23z"/>
</g>
<g id="part-2" class="char-part">
  <path d="M290 210 c6 -11 19 -24 30 -30 17 -9 20 -8 20 9 0 19 -26 41 -50 41
-8 0 -8 -6 0 -20z"/>
  <path d="M216 178 c13 -23 37 -48 46 -48 16 0 8 40 -11 50 -27 14 -44 13 -35
-2z"/>
  <path d="M120 153 c0 -19 41 -73 55 -73 24 0 17 37 -11 59 -27 22 -44 27 -44
14z"/>
</g>
<g id="part-3" class="char-part">
  <path d="M380 432 c0 -12 44 -52 58 -52 22 0 12 37 -13 48 -30 14 -45 15 -45
4z"/>
  <path d="M390 315 c-33 -12 -33 -13 -10 -16 21 -3 24 -9 22 -32 -2 -15 4 -37
13 -49 27 -39 19 -55 -30 -62 -25 -4 -45 -12 -45 -18 0 -7 16 -9 45 -5 37 6
65 0 157 -33 61 -22 128 -40 148 -40 38 0 135 29 126 37 -2 3 -58 8 -123 13
-65 4 -146 15 -180 25 -56 16 -63 20 -63 43 0 14 -7 34 -16 43 -16 17 -15 21
9 52 19 26 23 37 14 46 -13 13 -21 13 -67 -4z"/>
</g>
<g id="part-4" class="char-part">
  <path d="M590 520 c-7 -22 -19 -45 -27 -51 -7 -6 -10 -16 -7 -21 4 -5 28 12
55 38 37 37 46 51 37 61 -21 25 -44 14 -58 -27z"/>
</g>
<g id="part-5" class="char-part">
  <path d="M650 300 c-12 -8 -11 -10 6 -10 23 0 41 -29 26 -39 -5 -3 -12 -16
-16 -28 -6 -18 -3 -22 12 -20 12 1 18 6 15 15 -3 7 4 26 15 41 15 21 18 31 9
40 -13 13 -47 14 -67 1z"/>
  <path d="M530 280 c-9 -6 -14 -24 -14 -51 1 -26 -2 -36 -7 -28 -5 8 -9 10 -9
4 0 -17 19 -40 26 -32 7 6 24 108 20 114 -1 1 -8 -2 -16 -7z"/>
  <path d="M600 210 c-22 -7 -20 -8 12 -7 20 0 34 5 32 9 -6 9 -10 9 -44 -2z"/>
</g>
</g>
</svg>