<?xml version="1.0" standalone="no"?>
<!DOCTYPE svg PUBLIC "-//W3C//DTD SVG 20010904//EN"
 "http://www.w3.org/TR/2001/REC-SVG-20010904/DTD/svg10.dtd">
<svg version="1.0" xmlns="http://www.w3.org/2000/svg"
 width="96.000000pt" height="68.000000pt" viewBox="0 0 96.000000 68.000000"
 preserveAspectRatio="xMidYMid meet">
<metadata>
Created by potrace 1.16, written by Peter Selinger 2001-2019
Combined from part_0.svg through part_5.svg with named groups
</metadata>
<g transform="translate(0.000000,68.000000) scale(0.100000,-0.100000)" fill="#000000" stroke="none">
<g id="part-0" class="char-part">
  <path d="M578 527 c3 -66 1 -84 -9 -85 -8 0 -49 -1 -92 -2 l-77 -1 19 -25 c11
-14 25 -50 31 -80 l12 -55 36 6 c20 4 47 8 59 11 22 4 22 3 25 -128 2 -82 7
-132 13 -131 14 2 24 54 31 166 l6 97 31 0 c18 0 49 3 70 6 29 5 36 10 32 23
-3 9 8 37 23 62 22 34 26 47 17 56 -21 19 -51 23 -115 15 l-63 -9 6 72 c6 69
5 73 -16 79 -43 11 -44 9 -39 -77z m156 -95 c9 -14 -16 -92 -29 -92 -7 0 -27
-3 -44 -6 l-31 -6 0 56 0 56 49 0 c28 0 52 -4 55 -8z m-156 -54 l-3 -53 -42
-3 c-41 -3 -42 -2 -50 35 -11 56 -11 57 27 64 73 13 71 14 68 -43z"/>
  <path d="M247 568 c12 -49 9 -301 -5 -394 -13 -86 -4 -134 24 -134 26 0 34 41
35 187 1 81 4 158 8 171 l6 24 22 -26 c26 -30 48 -33 57 -9 8 19 -26 50 -59
55 -18 3 -20 9 -17 66 3 73 -7 92 -50 92 -28 0 -29 -1 -21 -32z"/>
  <path d="M143 375 c-27 -55 -26 -82 4 -92 30 -10 62 70 49 122 -10 38 -24 30
-53 -30z"/>
</g>
<g id="part-1" class="char-part">
  <path d="M246 583 c14 -31 16 -273 3 -373 -15 -117 -15 -136 2 -156 11 -13 14
-13 27 0 12 12 16 53 20 195 3 100 6 181 8 181 3 0 17 -15 33 -32 24 -27 32
-31 43 -20 18 18 0 43 -43 57 -19 7 -34 19 -33 26 0 8 4 37 8 65 6 48 5 51
-19 62 -39 18 -59 16 -49 -5z"/>
  <path d="M152 385 c-29 -59 -29 -95 -1 -95 13 0 25 11 35 35 17 42 18 66 1 89
-11 15 -15 12 -35 -29z"/>
</g>
<g id="part-2" class="char-part">
  <path d="M577 535 c6 -96 8 -95 -110 -95 l-68 0 19 -27 c11 -16 25 -52 32 -81
l12 -53 37 6 c20 4 46 8 59 11 22 4 22 4 22 -125 0 -129 10 -168 30 -116 6 14
10 48 10 74 0 27 3 75 6 109 l7 60 68 7 c50 5 66 10 63 20 -6 16 10 51 39 83
20 21 20 23 4 40 -15 14 -33 16 -99 14 l-81 -3 7 71 c3 38 5 70 4 70 -2 0 -17
4 -34 9 l-32 9 5 -83z m163 -101 c0 -26 -25 -94 -35 -94 -7 0 -27 -3 -44 -6
l-31 -6 0 56 0 56 55 0 c30 0 55 -3 55 -6z m-162 -56 l-3 -53 -41 -3 c-41 -3
-41 -3 -52 40 -6 23 -9 44 -7 46 5 6 65 20 88 21 16 1 18 -6 15 -51z"/>
</g>
</g>
</svg>