<?xml version="1.0" standalone="no"?>
<!DOCTYPE svg PUBLIC "-//W3C//DTD SVG 20010904//EN"
 "http://www.w3.org/TR/2001/REC-SVG-20010904/DTD/svg10.dtd">
<svg version="1.0" xmlns="http://www.w3.org/2000/svg"
 width="96.000000pt" height="68.000000pt" viewBox="0 0 96.000000 68.000000"
 preserveAspectRatio="xMidYMid meet">
<metadata>
Created by potrace 1.16, written by Peter Selinger 2001-2019
Combined from part_0.svg through part_5.svg with named groups
</metadata>
<g transform="translate(0.000000,68.000000) scale(0.100000,-0.100000)" fill="#000000" stroke="none">
<g id="part-0" class="char-part">
  <path d="M540 556 c-19 -13 -55 -30 -80 -39 -65 -22 -23 -20 78 4 105 26 110
28 87 46 -26 18 -44 16 -85 -11z"/>
  <path d="M637 475 c-21 -25 -36 -45 -33 -45 11 0 116 52 116 58 0 6 -32 31
-40 32 -3 0 -23 -20 -43 -45z"/>
  <path d="M230 480 c-14 -4 -43 -8 -65 -9 l-41 -1 4 -98 c2 -54 -1 -115 -6
-135 -18 -66 15 -122 48 -82 20 24 58 18 86 -12 l24 -28 20 23 c17 21 19 38
18 173 -1 140 -3 151 -22 165 -22 15 -29 16 -66 4z m30 -85 c0 -46 -3 -55 -17
-55 -10 0 -28 -3 -40 -6 -22 -6 -23 -4 -23 49 0 59 5 65 53 66 26 1 27 0 27
-54z m0 -140 l0 -55 -46 0 -46 0 6 31 c3 17 6 40 6 50 0 17 17 24 63 28 14 1
17 -8 17 -54z"/>
  <path d="M480 469 c0 -5 10 -17 22 -28 15 -15 25 -18 34 -10 7 6 11 16 8 24
-6 14 -64 27 -64 14z"/>
  <path d="M370 451 c0 -15 30 -41 46 -41 24 0 15 30 -12 40 -31 12 -34 12 -34
1z"/>
  <path d="M492 378 c-101 -20 -123 -32 -59 -33 27 0 32 -4 35 -27 3 -25 0 -28
-25 -28 -48 0 -103 -12 -103 -22 0 -7 21 -8 55 -3 30 3 55 4 55 2 0 -29 -69
-111 -133 -156 -26 -19 -45 -36 -43 -38 8 -8 82 36 128 77 53 46 69 46 109 4
24 -25 24 -26 4 -41 -11 -8 -47 -28 -80 -44 -33 -15 -51 -28 -40 -28 28 -1
114 26 143 45 22 15 26 13 79 -26 54 -42 56 -42 115 -36 101 12 112 21 43 36
-63 13 -154 45 -169 60 -5 5 7 28 28 53 50 61 36 72 -74 62 -81 -7 -91 -3 -67
28 13 18 114 36 199 37 26 0 49 4 53 9 10 17 -65 24 -128 11 -91 -18 -90 -18
-91 12 -1 23 3 27 34 33 76 13 90 17 84 26 -7 12 -31 10 -152 -13z m108 -165
c0 -5 -10 -20 -23 -36 l-22 -27 -35 27 -35 28 40 6 c61 9 75 10 75 2z"/>
</g>
<g id="part-1" class="char-part">
  <path d="M195 469 c-16 -4 -38 -6 -50 -3 -20 5 -20 1 -20 -150 1 -158 8 -193
35 -161 19 22 77 19 92 -5 16 -25 40 -26 54 -2 16 25 8 313 -8 324 -16 10 -64
9 -103 -3z m75 -78 l0 -58 -50 -2 -50 -1 0 54 c0 60 4 64 63 65 l37 1 0 -59z
m-2 -138 l-3 -58 -47 -3 -48 -3 0 54 c0 29 3 57 7 60 3 4 26 7 50 7 l44 0 -3
-57z"/>
</g>
<g id="part-2" class="char-part">
  <path d="M545 560 c-16 -11 -54 -28 -82 -37 -29 -9 -53 -20 -53 -25 0 -4 6 -6
13 -3 6 2 55 13 107 25 110 25 115 27 99 46 -16 20 -49 17 -84 -6z"/>
  <path d="M637 476 c-20 -25 -37 -47 -37 -49 0 -2 27 9 60 25 64 31 71 41 41
58 -26 13 -22 16 -64 -34z"/>
  <path d="M480 465 c0 -18 45 -49 60 -40 12 7 14 32 3 38 -5 2 -20 7 -35 11
-21 5 -28 3 -28 -9z"/>
  <path d="M366 448 c17 -30 37 -46 50 -41 20 7 17 31 -5 43 -28 14 -54 13 -45
-2z"/>
</g>
<g id="part-3" class="char-part">
  <path d="M485 376 c-133 -27 -116 -44 21 -21 133 23 145 26 138 36 -7 12 -31
10 -159 -15z"/>
</g>
<g id="part-4" class="char-part">
  <path d="M523 233 c-23 -2 -47 -11 -54 -19 -10 -12 -5 -21 27 -49 l39 -35 -25
-19 c-14 -11 -52 -32 -85 -46 l-60 -26 50 6 c28 3 74 18 103 31 l53 26 39 -36
c47 -42 75 -51 136 -41 88 13 95 21 29 35 -63 13 -154 45 -169 60 -5 5 8 29
30 55 52 64 37 71 -113 58z m77 -22 c0 -6 -10 -22 -23 -37 l-23 -26 -34 28
-34 29 35 6 c54 10 79 10 79 0z"/>
</g>
</g>
</svg>