<?xml version="1.0" standalone="no"?>
<!DOCTYPE svg PUBLIC "-//W3C//DTD SVG 20010904//EN"
 "http://www.w3.org/TR/2001/REC-SVG-20010904/DTD/svg10.dtd">
<svg version="1.0" xmlns="http://www.w3.org/2000/svg"
 width="96.000000pt" height="68.000000pt" viewBox="0 0 96.000000 68.000000"
 preserveAspectRatio="xMidYMid meet">
<metadata>
Created by potrace 1.16, written by Peter Selinger 2001-2019
Combined from part_0.svg through part_5.svg with named groups
</metadata>
<g transform="translate(0.000000,68.000000) scale(0.100000,-0.100000)" fill="#000000" stroke="none">
<g id="part-0" class="char-part">
  <path d="M410 594 c15 -40 13 -44 -29 -44 -54 0 -102 -11 -95 -21 3 -5 34 -9
70 -9 50 0 64 -3 64 -15 0 -10 -10 -15 -29 -15 -35 0 -61 -9 -61 -21 0 -18
231 -2 249 17 12 12 -27 24 -61 19 -28 -4 -38 -2 -38 8 0 10 20 16 67 20 70 7
100 21 69 33 -10 4 -44 4 -76 1 -50 -6 -58 -4 -53 8 9 24 -16 45 -53 45 -32 0
-33 -1 -24 -26z"/>
  <path d="M440 445 c-52 -8 -106 -11 -120 -8 -24 6 -24 6 -7 -12 10 -10 23 -29
28 -43 8 -22 14 -24 47 -18 20 3 68 6 105 6 64 0 70 2 97 32 17 18 26 36 22
40 -15 15 -78 16 -172 3z m110 -30 c0 -8 -6 -15 -12 -15 -7 0 -46 -5 -87 -10
-73 -10 -90 -5 -91 22 0 9 41 15 123 17 53 1 67 -2 67 -14z"/>
  <path d="M545 340 c-133 -10 -331 -14 -343 -6 -5 3 -12 2 -16 -2 -11 -10 -36
-72 -36 -88 0 -27 30 -14 46 19 l16 34 202 12 c110 7 220 15 244 18 35 5 42 3
42 -11 0 -9 -7 -19 -15 -22 -30 -12 -14 -25 23 -19 108 18 109 19 59 53 -36
24 -47 24 -222 12z"/>
  <path d="M393 278 c-93 -10 -128 -28 -53 -28 22 0 40 -4 40 -9 0 -12 -46 -48
-71 -56 -10 -4 -19 -13 -19 -22 0 -16 11 -16 96 2 27 6 33 4 39 -15 9 -29 -8
-40 -62 -40 -24 0 -43 -4 -43 -10 0 -5 25 -10 55 -10 47 0 55 -3 55 -19 0 -15
-11 -19 -61 -25 -34 -3 -91 -6 -128 -6 -60 0 -64 -1 -49 -16 15 -15 29 -16
136 -5 66 6 190 11 275 11 86 0 158 4 162 9 3 5 -11 15 -30 21 -33 11 -125 8
-227 -6 -35 -5 -38 -4 -38 19 0 23 5 26 55 32 69 9 72 25 5 25 -27 0 -50 4
-50 9 0 5 -3 16 -6 24 -9 24 72 34 96 12 21 -19 50 -14 50 8 0 13 -14 22 -73
46 -35 14 -58 14 -34 0 31 -18 18 -26 -50 -33 -38 -4 -79 -9 -93 -12 -24 -5
-25 -5 -5 11 11 8 31 26 45 39 20 18 41 24 99 29 93 8 121 28 36 26 -33 -1
-102 -6 -152 -11z"/>
</g>
<g id="part-1" class="char-part">
  <path d="M415 586 c6 -31 5 -34 -25 -40 -18 -3 -48 -6 -67 -6 -23 0 -32 -4
-27 -11 4 -8 27 -10 66 -6 46 4 61 2 65 -9 7 -20 3 -23 -48 -33 -83 -15 -14
-24 91 -11 106 13 134 30 49 30 -71 0 -60 23 17 34 77 11 87 14 79 27 -5 7
-29 8 -71 4 -63 -7 -64 -7 -64 18 0 17 -7 26 -22 31 -44 11 -49 8 -43 -28z"/>
</g>
<g id="part-2" class="char-part">
  <path d="M440 444 c-52 -7 -106 -10 -120 -7 -22 5 -23 4 -9 -8 9 -8 22 -29 29
-47 9 -24 17 -31 29 -27 9 4 60 11 114 15 54 4 101 11 104 14 4 3 3 6 -2 6 -5
0 2 11 15 25 l23 24 -27 11 c-32 12 -31 12 -156 -6z m110 -28 c0 -15 -10 -17
-131 -30 -40 -5 -48 -3 -52 14 -5 21 13 25 126 28 44 2 57 -1 57 -12z"/>
</g>
<g id="part-3" class="char-part">
  <path d="M515 338 c-72 -5 -176 -7 -231 -6 l-101 3 -20 -41 c-21 -43 -17 -71
10 -61 8 3 20 18 27 34 l13 29 236 16 c130 8 240 12 245 7 5 -5 -1 -17 -15
-29 l-24 -20 38 5 c123 17 128 20 73 54 -37 23 -44 23 -251 9z"/>
</g>
<g id="part-4" class="char-part">
  <path d="M425 143 c0 -27 -3 -28 -52 -31 -29 -2 -53 -8 -53 -13 0 -7 21 -10
55 -7 51 3 55 1 55 -18 0 -20 -7 -22 -72 -28 -40 -4 -97 -7 -125 -8 -29 0 -53
-4 -53 -9 0 -17 51 -20 156 -10 59 6 181 11 271 11 163 0 196 8 128 30 -26 9
-62 9 -142 1 -58 -6 -110 -11 -115 -11 -4 0 -8 11 -8 24 0 24 28 36 86 36 13
0 24 5 24 10 0 6 -22 10 -49 10 -40 0 -50 3 -54 20 -3 13 -14 20 -29 20 -19 0
-24 -5 -23 -27z"/>
</g>
</g>
</svg>