<?xml version="1.0" standalone="no"?>
<!DOCTYPE svg PUBLIC "-//W3C//DTD SVG 20010904//EN"
 "http://www.w3.org/TR/2001/REC-SVG-20010904/DTD/svg10.dtd">
<svg version="1.0" xmlns="http://www.w3.org/2000/svg"
 width="96.000000pt" height="68.000000pt" viewBox="0 0 96.000000 68.000000"
 preserveAspectRatio="xMidYMid meet">
<metadata>
Created by potrace 1.16, written by Peter Selinger 2001-2019
Combined from part_0.svg through part_5.svg with named groups
</metadata>
<g transform="translate(0.000000,68.000000) scale(0.100000,-0.100000)" fill="#000000" stroke="none">
<g id="part-0" class="char-part">
  <path d="M520 615 c0 -28 -4 -35 -19 -35 -28 0 -52 -11 -45 -21 3 -5 16 -9 30
-9 23 0 24 -3 18 -36 -6 -33 -5 -35 13 -24 10 7 26 25 35 40 16 28 53 40 126
40 17 0 32 5 32 10 0 17 -46 29 -84 23 -30 -5 -35 -3 -30 10 6 17 -23 37 -55
37 -17 0 -21 -6 -21 -35z"/>
  <path d="M278 624 c-4 -3 0 -17 9 -30 9 -14 13 -27 10 -30 -3 -3 -33 -8 -66
-11 -63 -6 -71 -12 -46 -33 15 -12 79 -9 118 5 12 5 18 0 23 -19 8 -35 34 -34
34 2 0 22 7 31 33 42 l32 14 -37 3 c-31 4 -37 8 -40 31 -2 22 -9 28 -33 30
-17 2 -34 0 -37 -4z"/>
  <path d="M389 507 c-1 -1 -3 -12 -4 -23 -8 -77 -9 -78 -149 -90 -60 -5 -75 -9
-61 -17 10 -5 48 -7 91 -3 45 4 74 3 74 -3 0 -17 -94 -93 -155 -124 -33 -16
-55 -32 -48 -34 14 -5 93 30 144 64 44 29 59 24 59 -21 0 -29 -4 -34 -31 -40
-17 -3 -42 -6 -56 -6 -14 0 -21 -4 -18 -10 3 -5 26 -10 51 -10 33 0 44 -4 44
-16 0 -20 -17 -54 -43 -81 -11 -13 -18 -26 -14 -29 12 -13 58 33 83 84 22 44
31 52 54 52 15 0 48 3 74 6 l46 7 0 -87 c0 -66 3 -87 13 -84 7 3 16 37 21 86
l9 81 51 6 c45 7 48 9 31 21 -10 8 -33 14 -51 14 -30 0 -32 2 -29 30 3 25 0
33 -18 39 -32 12 -40 3 -33 -39 6 -37 5 -38 -32 -44 -20 -3 -52 -6 -69 -6 -31
0 -33 2 -33 35 0 21 -5 35 -12 35 -7 0 -19 4 -27 9 -11 7 -9 16 13 44 23 30
34 35 79 40 28 2 61 0 72 -6 17 -9 114 -87 153 -125 30 -27 55 -34 108 -27 30
3 54 10 54 14 0 5 -28 16 -62 26 -34 9 -79 28 -100 41 -21 13 -40 24 -43 24
-3 0 -24 13 -47 30 l-41 30 54 1 c30 0 74 4 99 8 l45 7 -27 13 c-21 11 -48 11
-135 2 -148 -15 -157 -15 -148 7 17 41 16 48 -9 60 -14 6 -27 11 -27 9z"/>
  <path d="M570 475 c26 -27 60 -33 60 -10 0 17 -30 35 -61 35 l-22 0 23 -25z"/>
</g>
<g id="part-1" class="char-part">
  <path d="M530 616 c0 -35 -13 -46 -51 -46 -11 0 -17 -4 -14 -10 3 -5 17 -10
30 -10 22 0 23 -2 13 -31 -14 -40 -5 -47 19 -14 41 60 50 65 113 65 33 0 60 4
60 9 0 16 -38 23 -80 16 -35 -6 -39 -5 -33 11 4 11 0 22 -12 30 -31 23 -45 17
-45 -20z"/>
  <path d="M285 614 c21 -50 14 -59 -47 -62 -60 -3 -69 -10 -42 -33 12 -10 24
-10 60 -1 60 16 63 16 74 -13 14 -36 30 -31 30 10 0 28 4 35 19 35 11 0 23 5
26 10 4 6 -7 10 -24 10 -18 0 -31 5 -31 13 0 21 -14 35 -44 43 -26 6 -28 5
-21 -12z"/>
</g>
<g id="part-2" class="char-part">
  <path d="M550 499 c0 -16 40 -49 60 -49 21 0 28 24 10 35 -22 14 -70 23 -70
14z"/>
</g>
<g id="part-3" class="char-part">
  <path d="M380 468 c0 -18 -4 -39 -9 -47 -8 -12 -99 -26 -196 -31 -19 -1 -19
-1 -1 -12 12 -7 46 -8 93 -4 70 6 73 5 63 -13 -15 -29 -77 -77 -149 -115 -87
-47 -47 -48 45 -2 68 34 126 80 155 123 14 20 53 28 119 24 9 -1 53 -33 99
-71 45 -39 92 -75 103 -81 22 -12 128 -3 128 10 0 4 -26 15 -57 25 -67 21
-155 66 -198 101 l-30 24 50 1 c28 1 70 5 95 9 44 6 44 7 21 20 -20 11 -46 11
-152 0 -71 -7 -132 -10 -135 -6 -3 3 2 17 11 30 15 24 15 26 -4 36 -36 20 -51
14 -51 -21z"/>
</g>
<g id="part-4" class="char-part">
  <path d="M524 319 c-3 -6 -3 -25 0 -43 6 -32 5 -34 -31 -40 -21 -3 -54 -6 -74
-6 -34 0 -35 1 -31 31 5 35 -8 49 -47 49 -20 0 -22 -3 -13 -12 7 -7 12 -27 12
-44 0 -32 -1 -33 -55 -39 -64 -8 -64 -25 1 -25 33 0 44 -4 44 -16 0 -22 -18
-54 -48 -87 -28 -29 -24 -34 11 -15 29 15 44 34 67 84 18 38 24 42 66 48 26 3
60 6 75 6 l29 0 0 -85 c0 -47 4 -85 9 -85 13 0 18 22 26 101 7 64 8 67 37 73
17 3 42 6 56 6 25 0 25 1 6 15 -10 8 -36 15 -57 15 -37 0 -38 1 -32 28 5 24 2
30 -19 40 -17 8 -27 8 -32 1z"/>
</g>
</g>
</svg>