<?xml version="1.0" standalone="no"?>
<!DOCTYPE svg PUBLIC "-//W3C//DTD SVG 20010904//EN"
 "http://www.w3.org/TR/2001/REC-SVG-20010904/DTD/svg10.dtd">
<svg version="1.0" xmlns="http://www.w3.org/2000/svg"
 width="96.000000pt" height="68.000000pt" viewBox="0 0 96.000000 68.000000"
 preserveAspectRatio="xMidYMid meet">
<metadata>
Created by potrace 1.16, written by Peter Selinger 2001-2019
Combined from part_0.svg through part_5.svg with named groups
</metadata>
<g transform="translate(0.000000,68.000000) scale(0.100000,-0.100000)" fill="#000000" stroke="none">
<g id="part-0" class="char-part">
  <path d="M350 600 c0 -16 -122 -101 -136 -96 -7 3 -15 0 -18 -7 -3 -9 -5 -8
-5 1 -1 7 -5 11 -10 7 -6 -3 -6 -17 1 -36 10 -29 8 -91 -8 -200 -9 -67 9 -68
106 -9 l80 50 0 -27 c0 -62 -79 -170 -145 -199 -27 -12 -28 -13 -7 -14 34 0
128 64 156 107 28 43 45 119 47 212 2 52 -1 66 -16 77 -28 21 -59 18 -49 -3 4
-10 10 -44 12 -77 4 -65 1 -70 -63 -87 -22 -5 -48 -13 -58 -16 -17 -4 -18 2
-16 95 2 55 6 99 10 97 3 -2 48 17 100 43 69 34 94 51 91 63 -4 24 -72 41 -72
19z"/>
  <path d="M630 504 c-36 -8 -83 -12 -105 -9 l-40 5 3 -227 c2 -126 5 -234 8
-242 19 -57 41 123 43 361 1 66 1 67 34 77 17 5 52 11 77 13 l45 2 -2 -62 c-1
-34 -7 -78 -13 -98 -10 -29 -16 -35 -38 -34 -15 1 -31 2 -36 1 -13 -1 45 -61
59 -61 28 0 55 49 74 136 11 50 23 98 26 107 5 11 -3 20 -24 31 -16 9 -34 15
-38 15 -4 -1 -37 -8 -73 -15z"/>
  <path d="M240 412 c0 -15 58 -54 70 -47 18 11 10 33 -14 39 -13 3 -31 9 -40
12 -9 3 -16 1 -16 -4z"/>
  <path d="M570 412 c0 -14 59 -62 76 -62 22 0 16 36 -8 48 -37 18 -68 24 -68
14z"/>
</g>
<g id="part-1" class="char-part">
  <path d="M325 572 c-22 -20 -53 -47 -70 -59 -16 -12 -26 -25 -22 -29 11 -11
187 77 187 93 0 10 -40 35 -53 33 -1 0 -20 -17 -42 -38z"/>
</g>
<g id="part-2" class="char-part">
  <path d="M346 463 c5 -10 10 -59 12 -109 3 -78 0 -98 -19 -138 -21 -46 -95
-120 -134 -137 -17 -7 -18 -8 -2 -8 54 -2 150 70 178 135 10 22 21 74 24 115
3 41 8 86 10 101 5 33 -17 58 -52 58 -20 0 -24 -3 -17 -17z"/>
</g>
<g id="part-3" class="char-part">
  <path d="M627 505 c-37 -7 -70 -15 -74 -19 -14 -14 9 -17 66 -8 33 5 66 5 72
1 13 -8 5 -108 -13 -160 -10 -29 -13 -31 -51 -26 l-40 6 35 -36 c60 -60 91
-30 122 117 8 41 18 85 22 96 5 18 0 24 -27 33 -17 6 -35 10 -38 10 -3 -1 -37
-7 -74 -14z"/>
</g>
<g id="part-4" class="char-part">
  <path d="M488 273 c3 -240 5 -264 24 -245 7 7 14 78 19 179 5 92 10 193 13
224 5 52 4 57 -17 63 -12 3 -26 6 -32 6 -6 0 -9 -81 -7 -227z"/>
</g>
<g id="part-5" class="char-part">
  <path d="M604 399 c-3 -6 1 -18 10 -27 10 -11 16 -12 16 -4 0 7 -5 12 -12 12
-6 0 -8 3 -5 6 4 4 13 1 22 -6 10 -8 15 -9 15 -2 0 17 -37 34 -46 21z"/>
</g>
</g>
</svg>