<?xml version="1.0" standalone="no"?>
<!DOCTYPE svg PUBLIC "-//W3C//DTD SVG 20010904//EN"
 "http://www.w3.org/TR/2001/REC-SVG-20010904/DTD/svg10.dtd">
<svg version="1.0" xmlns="http://www.w3.org/2000/svg"
 width="96.000000pt" height="68.000000pt" viewBox="0 0 96.000000 68.000000"
 preserveAspectRatio="xMidYMid meet">
<metadata>
Created by potrace 1.16, written by Peter Selinger 2001-2019
Combined from part_0.svg through part_5.svg with named groups
</metadata>
<g transform="translate(0.000000,68.000000) scale(0.100000,-0.100000)" fill="#000000" stroke="none">
<g id="part-0" class="char-part">
  <path d="M491 575 c-11 -25 -34 -62 -50 -82 -17 -20 -28 -39 -26 -41 4 -5 61
35 87 61 9 9 46 16 101 19 89 5 129 20 87 33 -21 7 -93 0 -134 -12 -18 -5 -18
-4 -3 18 12 17 14 26 5 36 -21 26 -46 14 -67 -32z"/>
  <path d="M277 568 c-8 -18 -38 -57 -66 -85 -61 -62 -47 -69 27 -15 41 31 61
39 99 40 26 1 61 5 76 8 24 5 26 8 15 21 -9 11 -23 14 -56 9 -39 -5 -43 -4
-32 9 15 18 7 29 -27 39 -18 6 -25 1 -36 -26z"/>
  <path d="M550 485 c25 -27 54 -33 66 -13 10 16 -24 38 -60 38 l-29 0 23 -25z"/>
  <path d="M291 490 c-9 -5 -5 -13 15 -29 33 -26 54 -27 54 -2 0 21 -49 44 -69
31z"/>
  <path d="M609 446 c-5 -5 -75 -15 -105 -16 -15 0 -24 -8 -29 -27 -3 -16 -13
-35 -21 -44 -22 -25 4 -43 41 -29 51 19 50 -5 -2 -59 -27 -28 -43 -51 -36 -51
8 0 36 23 63 50 27 28 51 50 54 50 3 0 6 -13 6 -29 0 -51 29 -74 99 -79 71 -5
121 11 121 39 0 11 -4 19 -10 19 -5 0 -10 8 -10 18 0 33 -14 33 -24 0 -11 -32
-13 -33 -73 -36 l-63 -3 0 41 c0 22 -4 40 -10 40 -5 0 -10 5 -10 10 0 6 23 10
51 10 31 0 48 4 44 10 -3 6 -29 10 -57 10 -42 0 -49 2 -39 14 9 11 9 16 0 21
-15 10 8 25 39 25 13 0 20 4 17 10 -6 10 -38 14 -46 6z m-49 -41 c0 -2 -4 -15
-10 -29 -7 -18 -17 -26 -35 -26 -23 0 -24 2 -12 28 6 15 16 30 21 34 8 6 36 0
36 -7z"/>
  <path d="M273 413 c-49 -4 -53 -6 -53 -29 0 -14 -5 -34 -10 -45 -15 -26 -4
-40 23 -30 12 4 30 6 39 3 16 -3 16 -6 4 -31 -8 -15 -28 -42 -44 -59 -17 -18
-24 -32 -17 -32 7 0 36 26 64 57 l51 57 0 -47 c0 -55 11 -59 55 -22 l30 25
-27 -6 c-26 -6 -28 -4 -28 24 0 17 -6 33 -12 35 -7 3 6 6 30 6 50 1 57 21 7
21 -32 0 -35 3 -35 28 0 21 7 31 28 39 26 11 26 11 -13 10 -22 0 -64 -2 -92
-4z m27 -48 c0 -32 -3 -35 -29 -35 -28 0 -29 1 -18 30 6 16 18 31 27 34 8 2
16 4 18 5 1 0 2 -15 2 -34z"/>
  <path d="M445 190 c-27 -5 -74 -9 -104 -9 -47 -1 -52 -3 -45 -18 4 -10 10 -47
13 -83 l6 -65 65 3 c36 1 82 5 104 8 23 4 48 1 63 -7 22 -12 26 -11 36 6 14
24 26 146 16 159 -11 13 -95 16 -154 6z m95 -44 c0 -21 -4 -24 -32 -24 -18 1
-63 -2 -100 -7 l-68 -8 0 26 c0 30 11 34 123 36 75 1 77 0 77 -23z m0 -65 l0
-28 -92 -6 c-50 -3 -95 -4 -100 -1 -4 3 -8 14 -8 25 0 16 7 19 43 20 23 0 60
4 82 8 70 15 75 14 75 -18z"/>
</g>
<g id="part-1" class="char-part">
  <path d="M502 586 c-7 -19 -28 -55 -48 -80 -19 -25 -32 -46 -28 -46 4 0 26 16
50 35 40 33 49 36 122 39 86 3 120 14 84 27 -12 5 -45 4 -73 -1 -79 -15 -86
-14 -63 11 18 20 18 21 -1 35 -27 20 -29 18 -43 -20z"/>
  <path d="M285 570 c-4 -11 -32 -48 -63 -82 -59 -64 -57 -66 18 -13 37 27 58
34 118 40 39 4 72 11 72 15 0 11 -33 22 -51 16 -8 -2 -27 -7 -44 -11 -29 -6
-29 -6 -11 14 10 11 15 25 11 30 -11 18 -43 12 -50 -9z"/>
  <path d="M540 501 c0 -12 40 -41 57 -41 14 0 18 26 6 33 -20 11 -63 16 -63 8z"/>
  <path d="M290 482 c0 -15 24 -32 47 -32 31 0 29 18 -3 30 -31 12 -44 13 -44 2z"/>
</g>
<g id="part-2" class="char-part">
  <path d="M260 410 c-80 -9 -37 -24 46 -17 80 8 122 27 54 25 -25 -1 -70 -4
-100 -8z"/>
</g>
<g id="part-3" class="char-part">
  <path d="M580 296 c0 -37 5 -48 28 -66 23 -19 37 -21 94 -18 89 5 105 19 82
74 l-16 39 -12 -35 c-11 -35 -11 -35 -71 -35 l-60 0 -3 35 c-3 32 -15 49 -34
50 -5 0 -8 -20 -8 -44z"/>
</g>
<g id="part-4" class="char-part">
  <path d="M455 190 c-27 -5 -76 -9 -109 -9 -52 -1 -57 -3 -50 -18 4 -10 10 -49
12 -86 4 -68 4 -68 30 -63 15 3 67 8 116 11 68 5 90 4 97 -6 6 -10 12 -9 29 6
16 15 21 29 19 69 -1 28 2 58 5 67 6 12 -1 19 -25 28 -35 12 -49 12 -124 1z
m85 -46 c0 -20 -5 -24 -32 -24 -18 0 -63 -3 -100 -7 l-68 -6 0 26 c0 23 5 26
43 31 125 17 157 12 157 -20z m0 -63 l0 -28 -92 -6 c-99 -6 -108 -5 -108 22 0
17 44 26 183 39 12 2 17 -5 17 -27z"/>
</g>
</g>
</svg>