<?xml version="1.0" standalone="no"?>
<!DOCTYPE svg PUBLIC "-//W3C//DTD SVG 20010904//EN"
 "http://www.w3.org/TR/2001/REC-SVG-20010904/DTD/svg10.dtd">
<svg version="1.0" xmlns="http://www.w3.org/2000/svg"
 width="96.000000pt" height="68.000000pt" viewBox="0 0 96.000000 68.000000"
 preserveAspectRatio="xMidYMid meet">
<metadata>
Created by potrace 1.16, written by Peter Selinger 2001-2019
Combined from part_0.svg through part_5.svg with named groups
</metadata>
<g transform="translate(0.000000,68.000000) scale(0.100000,-0.100000)" fill="#000000" stroke="none">
<g id="part-0" class="char-part">
  <path d="M366 607 c-7 -18 -38 -55 -67 -81 -47 -42 -50 -47 -26 -42 20 5 27 3
27 -8 0 -8 -4 -18 -10 -21 -5 -3 -10 -15 -10 -27 0 -21 7 -22 84 -2 14 3 26 2
26 -3 0 -10 -35 -46 -65 -69 -19 -14 -19 -14 9 -8 26 6 27 5 17 -14 -6 -12
-32 -35 -57 -53 -53 -36 -52 -51 2 -20 24 14 59 23 103 26 36 2 103 8 149 13
45 4 89 4 97 -1 19 -10 19 -113 1 -172 -12 -39 -13 -40 -54 -39 -23 0 -42 -2
-42 -5 0 -4 14 -21 30 -39 37 -41 60 -36 95 16 17 26 29 66 40 139 8 57 15
105 15 108 0 15 -61 34 -94 28 l-37 -6 29 31 c18 19 40 64 57 114 15 46 29 88
32 95 2 6 -10 19 -28 29 -27 14 -41 15 -83 6 -28 -6 -79 -14 -114 -18 -55 -6
-62 -5 -56 10 8 21 -13 46 -37 46 -12 0 -24 -12 -33 -33z m264 -68 c0 -17 -7
-55 -16 -85 l-16 -55 -35 7 c-39 7 -39 6 1 -48 11 -15 18 -29 15 -31 -9 -8
-189 -22 -189 -15 0 4 9 12 20 18 24 13 26 30 5 30 -19 0 -19 15 2 50 12 22
25 29 55 32 26 2 38 0 38 -9 0 -29 30 -11 39 25 16 54 14 62 -13 62 -21 0 -24
-5 -23 -27 2 -25 -2 -28 -32 -31 -33 -3 -34 -3 -28 28 6 26 3 32 -16 39 -20 8
-22 5 -27 -33 -5 -39 -7 -41 -41 -44 -32 -3 -37 0 -41 23 -8 39 43 75 108 76
27 0 69 4 94 8 90 17 100 15 100 -20z"/>
  <path d="M400 228 c0 -57 -8 -66 -55 -68 -56 -3 -57 -2 -45 21 9 15 8 24 -1
35 -18 22 -42 18 -34 -6 4 -11 -1 -33 -12 -50 -16 -27 -16 -32 -3 -40 8 -5 24
-7 35 -3 50 16 86 20 91 12 3 -6 -14 -30 -39 -54 -24 -25 -39 -45 -32 -45 23
0 93 58 106 88 10 24 21 31 53 35 33 5 44 2 57 -14 20 -26 34 -11 48 51 11 51
8 60 -23 60 -20 0 -23 -5 -22 -37 1 -38 1 -38 -41 -41 -47 -3 -48 -3 -33 48
10 36 2 50 -32 50 -14 0 -18 -9 -18 -42z"/>
</g>
<g id="part-1" class="char-part">
  <path d="M371 602 c-11 -21 -38 -55 -62 -75 -49 -44 -29 -50 28 -8 34 24 55
30 142 40 143 15 161 15 161 -7 0 -28 -30 -134 -41 -148 -7 -9 -18 -10 -35 -4
-29 12 -30 6 -3 -31 26 -37 42 -37 72 4 21 27 77 174 77 200 0 4 -14 14 -31
21 -25 11 -41 11 -87 0 -32 -8 -83 -14 -116 -14 -48 0 -56 2 -47 14 8 10 8 16
-1 23 -32 24 -38 23 -57 -15z"/>
</g>
<g id="part-2" class="char-part">
  <path d="M405 493 c0 -37 -1 -38 -37 -41 -34 -3 -38 -1 -35 20 1 17 -4 24 -22
26 -15 3 -21 0 -16 -8 4 -6 0 -21 -9 -34 -12 -19 -12 -27 -3 -40 11 -15 15
-15 55 0 23 10 46 14 50 10 4 -5 -15 -28 -43 -52 l-50 -45 35 12 c19 6 53 30
75 53 42 46 105 70 105 41 0 -32 26 -13 41 30 18 49 16 55 -17 55 -19 0 -22
-5 -21 -27 2 -25 -2 -28 -31 -31 -31 -3 -32 -2 -30 30 3 29 0 33 -22 36 -23 3
-25 0 -25 -35z"/>
</g>
<g id="part-3" class="char-part">
  <path d="M359 343 c-13 -16 -43 -44 -66 -62 -24 -19 -41 -36 -39 -38 2 -2 23
5 47 16 46 20 201 41 302 41 l57 0 -1 -67 c0 -38 -6 -86 -13 -108 -12 -39 -13
-40 -54 -38 -23 1 -42 -1 -42 -5 1 -4 14 -22 29 -40 35 -40 58 -37 95 11 18
24 28 54 35 112 6 44 13 94 17 112 5 28 3 33 -23 46 -25 13 -42 13 -138 1 -61
-7 -126 -13 -145 -13 l-35 -1 25 20 c27 20 26 24 -6 34 -16 5 -28 -1 -45 -21z"/>
</g>
<g id="part-4" class="char-part">
  <path d="M398 218 l-3 -53 -53 -3 -52 -3 12 26 c10 22 9 28 -3 36 -26 16 -42
11 -35 -14 3 -14 -1 -33 -10 -46 -14 -20 -15 -25 -2 -37 10 -11 22 -12 44 -5
54 17 84 21 84 12 0 -15 -52 -72 -85 -93 -27 -18 -28 -19 -5 -13 42 11 102 58
119 92 12 24 23 33 41 33 14 0 35 3 48 6 16 5 22 2 22 -11 0 -10 6 -15 17 -13
11 2 21 21 29 52 15 57 12 66 -20 66 -20 0 -23 -5 -22 -37 1 -38 1 -38 -41
-41 -47 -3 -48 -3 -33 48 10 36 2 50 -32 50 -13 0 -18 -11 -20 -52z"/>
</g>
</g>
</svg>