<?xml version="1.0" standalone="no"?>
<!DOCTYPE svg PUBLIC "-//W3C//DTD SVG 20010904//EN"
 "http://www.w3.org/TR/2001/REC-SVG-20010904/DTD/svg10.dtd">
<svg version="1.0" xmlns="http://www.w3.org/2000/svg"
 width="96.000000pt" height="68.000000pt" viewBox="0 0 96.000000 68.000000"
 preserveAspectRatio="xMidYMid meet">
<metadata>
Created by potrace 1.16, written by Peter Selinger 2001-2019
Combined from part_0.svg through part_5.svg with named groups
</metadata>
<g transform="translate(0.000000,68.000000) scale(0.100000,-0.100000)" fill="#000000" stroke="none">
<g id="part-0" class="char-part">
  <path d="M447 552 l6 -69 -39 -6 c-22 -4 -53 -7 -71 -7 -31 0 -31 1 -20 30 10
26 9 32 -8 45 -11 8 -28 15 -38 15 -15 0 -17 -6 -12 -34 5 -23 2 -42 -9 -58
-14 -21 -14 -27 -2 -43 13 -18 16 -18 87 -2 123 29 279 46 279 31 0 -20 21
-28 35 -13 19 20 47 111 38 120 -4 4 -23 10 -41 14 l-33 7 7 -40 c6 -38 5 -39
-26 -46 -18 -3 -48 -6 -67 -6 l-34 0 6 55 c7 53 6 55 -20 65 -42 16 -44 14
-38 -58z"/>
  <path d="M480 431 c0 -4 7 -16 15 -28 18 -26 19 -25 -147 -44 -101 -12 -122
-19 -98 -34 15 -9 12 -67 -7 -125 -11 -34 -34 -72 -66 -106 -27 -30 -45 -54
-40 -54 23 0 92 62 117 105 19 32 32 45 43 41 8 -3 23 -6 34 -6 15 0 18 -5 13
-24 -4 -19 -1 -25 21 -30 44 -11 30 -29 -50 -61 l-40 -16 40 7 c21 3 52 12 67
20 37 19 55 18 80 -6 27 -25 38 -25 38 -1 0 11 -12 28 -26 38 l-26 20 26 41
c18 28 34 42 49 42 14 1 8 6 -21 16 -38 13 -44 13 -58 -1 -20 -19 -34 -11 -32
20 2 19 9 24 40 29 21 4 38 11 38 16 0 14 -65 12 -124 -4 -46 -12 -48 -13 -23
-20 50 -12 30 -61 -25 -64 -32 -2 -32 -4 -17 71 l12 56 46 6 c25 4 69 10 96
15 52 9 75 0 75 -26 0 -8 16 -47 36 -86 31 -62 34 -74 23 -94 -7 -13 -20 -26
-31 -30 -10 -3 -18 -10 -18 -15 0 -13 7 -11 49 13 l38 22 39 -40 c48 -49 104
-84 134 -84 19 0 21 4 15 23 -4 12 -10 42 -14 67 -7 44 -11 43 -26 -5 -7 -24
-27 -17 -80 29 -47 41 -49 45 -34 62 9 11 28 38 43 61 23 38 24 43 10 57 -26
27 -38 18 -58 -44 -10 -33 -22 -60 -26 -60 -12 0 -70 119 -70 142 0 14 8 18
43 20 68 2 70 2 75 16 3 9 -14 12 -62 12 -51 0 -66 3 -66 14 0 8 -5 18 -11 21
-14 9 -59 14 -59 6z m-30 -245 c0 -33 -13 -46 -46 -46 -38 0 -38 0 -22 35 8
18 19 25 40 25 17 0 28 -5 28 -14z"/>
  <path d="M690 429 c0 -18 34 -54 50 -54 29 0 16 38 -17 52 -23 9 -33 10 -33 2z"/>
</g>
<g id="part-1" class="char-part">
  <path d="M448 546 c5 -72 8 -69 -85 -81 -56 -7 -60 -4 -44 39 10 26 3 37 -33
50 -16 5 -18 2 -13 -21 3 -16 -2 -43 -10 -61 -14 -30 -14 -35 0 -49 13 -14 20
-14 63 0 27 9 103 24 168 32 109 15 120 15 128 1 16 -29 36 -16 53 34 20 60
15 80 -20 80 -23 0 -25 -4 -25 -40 l0 -40 -42 0 c-24 0 -54 -3 -67 -7 -23 -6
-24 -5 -19 55 4 55 2 61 -16 66 -40 11 -42 8 -38 -58z"/>
</g>
<g id="part-2" class="char-part">
  <path d="M480 435 c0 -3 7 -16 15 -29 15 -22 14 -24 -7 -29 -13 -3 -56 -9 -96
-13 -65 -6 -93 -17 -79 -30 4 -4 88 6 180 21 15 3 27 0 27 -6 0 -6 19 -51 42
-101 l42 -90 -37 -34 c-42 -39 -27 -46 22 -10 l33 24 35 -39 c56 -61 153 -113
168 -89 3 5 -1 23 -10 39 -8 17 -15 44 -15 61 0 39 -16 39 -23 0 -4 -16 -12
-30 -20 -30 -7 0 -34 19 -60 43 l-47 42 41 64 c39 61 41 65 23 78 -30 22 -42
15 -54 -37 -17 -70 -32 -78 -58 -31 -12 22 -29 58 -37 80 l-14 41 42 1 c23 1
56 4 72 8 46 10 13 23 -56 22 -46 0 -59 3 -59 14 0 9 -12 20 -26 25 -28 11
-44 13 -44 5z"/>
  <path d="M680 431 c0 -11 50 -61 61 -61 16 0 22 29 10 44 -12 14 -71 28 -71
17z"/>
</g>
<g id="part-3" class="char-part">
  <path d="M245 330 c14 -16 16 -29 11 -71 -9 -66 -38 -123 -89 -176 -49 -51
-36 -56 25 -10 51 39 86 99 105 176 22 94 20 101 -29 101 -40 0 -41 0 -23 -20z"/>
</g>
<g id="part-4" class="char-part">
  <path d="M370 241 c0 -19 -14 -34 -35 -37 -5 0 -21 -2 -35 -3 -23 -1 -23 -3
-7 -12 10 -6 28 -9 39 -6 15 4 18 2 13 -11 -12 -31 -10 -35 14 -41 53 -14 32
-39 -54 -68 l-40 -13 45 5 c25 3 61 14 81 24 l36 19 32 -25 c23 -19 35 -23 43
-15 8 8 3 19 -19 39 l-30 28 20 42 c18 36 26 43 51 44 27 2 28 2 6 6 -14 2
-36 9 -48 16 -20 9 -25 9 -33 -6 -6 -9 -19 -17 -30 -17 -16 0 -18 3 -9 19 14
28 13 31 -15 31 -18 0 -25 -5 -25 -19z m80 -59 c0 -32 -22 -51 -53 -45 -23 4
-26 9 -21 27 8 26 22 36 52 36 15 0 22 -6 22 -18z"/>
</g>
</g>
</svg>