<?xml version="1.0" standalone="no"?>
<!DOCTYPE svg PUBLIC "-//W3C//DTD SVG 20010904//EN"
 "http://www.w3.org/TR/2001/REC-SVG-20010904/DTD/svg10.dtd">
<svg version="1.0" xmlns="http://www.w3.org/2000/svg"
 width="96.000000pt" height="68.000000pt" viewBox="0 0 96.000000 68.000000"
 preserveAspectRatio="xMidYMid meet">
<metadata>
Created by potrace 1.16, written by Peter Selinger 2001-2019
Combined from part_0.svg through part_5.svg with named groups
</metadata>
<g transform="translate(0.000000,68.000000) scale(0.100000,-0.100000)" fill="#000000" stroke="none">
<g id="part-0" class="char-part">
  <path d="M400 567 c0 -52 -99 -155 -229 -238 -66 -42 -79 -55 -62 -57 12 -2
61 16 109 40 65 32 107 62 166 120 67 64 83 75 96 65 8 -6 47 -42 85 -79 111
-107 113 -108 164 -108 59 0 121 10 121 20 0 4 -40 22 -89 39 -93 33 -241 131
-289 192 -30 37 -72 40 -72 6z"/>
  <path d="M423 348 c4 -18 9 -77 13 -130 l7 -97 -36 -6 c-65 -13 -72 -7 -75 65
-3 70 -7 78 -41 85 -17 3 -21 0 -17 -13 16 -56 27 -135 19 -142 -4 -5 -33 -10
-63 -12 l-55 -3 30 -14 c24 -11 49 -11 130 -2 55 6 164 11 243 11 142 0 173 8
115 31 -18 7 -63 8 -120 4 l-93 -6 0 55 0 56 63 0 c65 0 99 11 77 25 -6 4 -41
4 -77 0 l-66 -7 7 56 c6 54 5 57 -20 66 -41 16 -47 13 -41 -22z"/>
</g>
<g id="part-1" class="char-part">
  <path d="M406 578 c-3 -7 -7 -26 -11 -42 -8 -40 -114 -143 -205 -201 -90 -58
-85 -54 -77 -61 3 -4 46 13 94 37 68 34 107 62 173 126 l84 83 26 -23 c13 -12
64 -59 112 -104 57 -55 95 -83 110 -83 50 0 128 13 128 21 0 5 -6 9 -13 9 -7
0 -49 15 -93 33 -81 34 -254 152 -254 174 0 7 -13 19 -30 28 -35 18 -40 18
-44 3z"/>
</g>
<g id="part-2" class="char-part">
  <path d="M415 364 c5 -10 13 -70 18 -131 8 -100 12 -113 28 -113 16 0 19 8 19
55 l0 55 53 0 c62 0 97 8 97 23 0 6 -26 7 -75 3 -75 -7 -75 -7 -75 18 0 14 5
37 10 52 13 33 5 43 -45 51 -35 6 -38 5 -30 -13z"/>
</g>
<g id="part-3" class="char-part">
  <path d="M270 264 c0 -5 4 -25 9 -44 5 -19 12 -52 16 -73 4 -26 11 -37 23 -37
16 0 17 9 14 73 -2 39 -5 73 -6 74 -6 7 -56 13 -56 7z"/>
</g>
<g id="part-4" class="char-part">
  <path d="M460 118 c-69 -5 -161 -12 -205 -17 -76 -7 -79 -8 -50 -20 23 -10 51
-10 122 -2 50 6 159 11 242 11 83 0 151 4 151 8 0 16 -50 32 -93 31 -23 -1
-98 -6 -167 -11z"/>
</g>
</g>
</svg>