<?xml version="1.0" standalone="no"?>
<!DOCTYPE svg PUBLIC "-//W3C//DTD SVG 20010904//EN"
 "http://www.w3.org/TR/2001/REC-SVG-20010904/DTD/svg10.dtd">
<svg version="1.0" xmlns="http://www.w3.org/2000/svg"
 width="96.000000pt" height="68.000000pt" viewBox="0 0 96.000000 68.000000"
 preserveAspectRatio="xMidYMid meet">
<metadata>
Created by potrace 1.16, written by Peter Selinger 2001-2019
Combined from part_0.svg through part_5.svg with named groups
</metadata>
<g transform="translate(0.000000,68.000000) scale(0.100000,-0.100000)" fill="#000000" stroke="none">
<g id="part-0" class="char-part">
  <path d="M428 520 c4 -97 2 -120 -9 -121 -8 -1 -21 -2 -29 -3 -8 -2 -36 -3
-62 -4 -79 -3 -55 -22 27 -22 l75 0 0 -38 c0 -24 -5 -39 -12 -39 -164 -8 -278
-18 -278 -24 0 -22 98 -23 248 -2 l42 5 0 -115 c0 -114 8 -143 33 -118 6 6 13
60 15 121 l5 110 81 2 c44 1 101 3 126 4 25 1 60 2 78 3 39 1 41 14 6 30 -18
8 -55 9 -122 4 -170 -13 -167 -13 -167 27 0 35 0 35 55 42 80 11 100 17 100
30 0 7 -23 9 -76 5 l-77 -6 6 103 c6 112 2 126 -43 126 l-26 0 4 -120z"/>
  <path d="M567 529 c-56 -57 -48 -61 54 -28 83 28 90 35 59 59 -37 29 -60 23
-113 -31z"/>
  <path d="M269 523 c19 -35 63 -74 79 -71 10 2 18 13 20 25 4 26 -47 63 -86 63
-19 0 -21 -3 -13 -17z"/>
</g>
<g id="part-1" class="char-part">
  <path d="M424 624 c3 -9 6 -53 6 -98 l0 -83 29 5 c26 4 29 8 28 36 -1 17 2 54
6 82 7 48 6 51 -18 62 -37 17 -58 15 -51 -4z"/>
  <path d="M575 529 c-33 -33 -43 -49 -30 -45 11 3 51 15 90 27 l69 21 -27 24
c-16 13 -34 24 -40 24 -7 0 -35 -23 -62 -51z"/>
  <path d="M270 534 c0 -16 55 -74 71 -74 34 0 35 41 1 55 -33 13 -72 24 -72 19z"/>
</g>
<g id="part-2" class="char-part">
  <path d="M430 426 c0 -20 -6 -24 -46 -30 -26 -3 -62 -6 -81 -6 -20 0 -32 -4
-28 -10 3 -5 40 -10 81 -10 l74 0 0 -34 c0 -42 -5 -44 -174 -53 -115 -5 -127
-8 -110 -21 15 -11 40 -13 119 -8 55 4 115 9 133 12 l32 6 0 -113 c0 -105 9
-153 25 -137 14 13 25 86 25 164 l0 81 168 9 167 9 -33 18 c-29 16 -45 17
-160 8 -70 -5 -130 -7 -134 -4 -5 2 -8 19 -8 38 l0 34 80 7 c62 5 80 10 80 22
0 13 -12 14 -75 9 -70 -6 -75 -5 -75 13 0 16 -7 20 -30 20 -25 0 -30 -4 -30
-24z"/>
</g>
</g>
</svg>