<?xml version="1.0" standalone="no"?>
<!DOCTYPE svg PUBLIC "-//W3C//DTD SVG 20010904//EN"
 "http://www.w3.org/TR/2001/REC-SVG-20010904/DTD/svg10.dtd">
<svg version="1.0" xmlns="http://www.w3.org/2000/svg"
 width="96.000000pt" height="68.000000pt" viewBox="0 0 96.000000 68.000000"
 preserveAspectRatio="xMidYMid meet">
<metadata>
Created by potrace 1.16, written by Peter Selinger 2001-2019
Combined from part_0.svg through part_5.svg with named groups
</metadata>
<g transform="translate(0.000000,68.000000) scale(0.100000,-0.100000)" fill="#000000" stroke="none">
<g id="part-0" class="char-part">
  <path d="M370 570 c0 -5 12 -26 26 -47 l26 -38 -29 -6 c-46 -11 -151 -10 -158
1 -10 16 -35 12 -35 -6 0 -9 -5 -12 -12 -8 -6 4 -8 3 -4 -4 3 -6 -3 -26 -15
-46 -25 -43 -18 -79 14 -74 13 2 29 19 41 44 l21 40 184 22 c100 12 187 19
192 17 4 -3 1 -21 -8 -40 -9 -19 -14 -38 -10 -41 4 -4 26 1 50 10 23 9 49 16
58 16 21 0 38 20 32 36 -3 7 -21 23 -40 35 -31 19 -43 21 -127 14 l-93 -7 -6
31 c-4 20 -16 35 -36 46 -34 17 -71 20 -71 5z"/>
  <path d="M430 371 c0 -5 8 -15 17 -22 9 -8 40 -51 69 -95 29 -45 67 -98 84
-118 32 -36 32 -36 116 -36 46 0 84 3 84 8 -1 4 -40 26 -88 49 -97 47 -125 70
-196 161 -29 36 -57 62 -67 62 -11 0 -19 -4 -19 -9z"/>
  <path d="M295 268 c-10 -24 -47 -72 -82 -107 -35 -35 -62 -65 -60 -68 8 -8
112 70 164 122 55 55 65 78 37 89 -30 12 -40 6 -59 -36z"/>
</g>
<g id="part-1" class="char-part">
  <path d="M376 573 c-3 -3 8 -25 24 -49 17 -23 30 -45 30 -48 0 -3 -45 -6 -100
-6 -60 0 -100 4 -100 10 0 25 -21 5 -48 -48 -32 -60 -30 -87 4 -80 10 2 29 22
42 46 20 36 28 42 55 42 18 0 101 7 184 17 84 9 156 14 160 10 3 -4 -1 -23
-10 -42 -9 -20 -17 -37 -17 -39 0 -4 118 31 131 40 16 9 -11 44 -47 61 -30 15
-44 15 -104 5 -99 -17 -113 -16 -105 7 3 10 -2 27 -12 40 -18 21 -77 44 -87
34z"/>
</g>
<g id="part-2" class="char-part">
  <path d="M447 348 c16 -18 50 -65 75 -103 25 -39 59 -87 77 -108 l33 -37 84 0
c46 0 84 3 84 8 0 4 -34 22 -76 41 -83 37 -149 91 -214 175 -32 42 -49 56 -68
56 l-26 0 31 -32z"/>
  <path d="M307 313 c-4 -3 -7 -15 -7 -26 0 -27 -61 -107 -115 -152 -26 -20 -44
-40 -41 -43 11 -10 118 64 178 125 l63 64 -25 19 c-26 21 -42 24 -53 13z"/>
</g>
</g>
</svg>