<?xml version="1.0" standalone="no"?>
<!DOCTYPE svg PUBLIC "-//W3C//DTD SVG 20010904//EN"
 "http://www.w3.org/TR/2001/REC-SVG-20010904/DTD/svg10.dtd">
<svg version="1.0" xmlns="http://www.w3.org/2000/svg"
 width="96.000000pt" height="68.000000pt" viewBox="0 0 96.000000 68.000000"
 preserveAspectRatio="xMidYMid meet">
<metadata>
Created by potrace 1.16, written by Peter Selinger 2001-2019
Combined from part_0.svg through part_5.svg with named groups
</metadata>
<g transform="translate(0.000000,68.000000) scale(0.100000,-0.100000)" fill="#000000" stroke="none">
<g id="part-0" class="char-part">
  <path d="M529 631 c-1 -3 -1 -40 1 -82 l2 -76 -64 -9 -63 -9 63 -3 63 -3 -3
-57 -3 -57 -52 -3 c-59 -3 -66 -12 -28 -32 14 -8 41 -33 61 -57 l35 -42 -42
-31 c-23 -16 -69 -40 -103 -53 -58 -21 -59 -22 -28 -25 40 -4 119 21 165 53
l35 23 48 -49 c42 -43 53 -49 90 -49 56 0 134 11 134 19 0 4 -32 16 -71 26
-40 11 -94 33 -121 48 -56 32 -56 33 16 112 25 28 45 53 46 57 0 17 -45 30
-86 23 l-44 -6 0 50 c0 55 2 58 51 65 55 9 68 12 75 19 14 13 -26 19 -71 9
-56 -12 -64 -1 -46 66 8 31 8 48 1 57 -11 14 -59 26 -61 16z m104 -319 c-12
-31 -58 -82 -74 -82 -15 0 -83 69 -76 77 6 6 142 30 149 26 4 -2 4 -11 1 -21z"/>
  <path d="M206 528 c5 -7 11 -62 15 -123 7 -118 5 -125 -42 -125 -26 0 -26 1
-16 45 11 49 0 75 -33 75 -14 0 -19 -11 -22 -57 -3 -32 -8 -65 -12 -74 -4 -10
-1 -23 9 -32 14 -14 20 -14 58 -1 23 9 72 21 110 29 63 12 67 12 67 -6 0 -10
4 -20 10 -24 17 -10 38 39 45 106 7 64 6 66 -16 72 -39 11 -42 9 -35 -27 11
-57 -1 -86 -36 -86 l-30 0 3 118 4 117 -43 3 c-34 3 -42 0 -36 -10z"/>
</g>
<g id="part-1" class="char-part">
  <path d="M215 523 c4 -10 9 -68 12 -129 l6 -111 -34 -6 c-45 -7 -53 3 -40 49
10 35 9 41 -10 57 -12 9 -24 17 -28 17 -4 0 -8 -24 -9 -52 -1 -29 -3 -66 -4
-83 -3 -26 0 -30 22 -28 14 1 48 8 75 16 28 8 69 18 93 22 38 6 42 5 42 -14 0
-25 27 -28 34 -3 12 41 25 135 20 143 -3 5 -16 9 -28 9 -22 0 -23 -3 -18 -50
4 -45 2 -50 -21 -61 -52 -24 -58 -11 -51 112 8 120 5 129 -45 129 -18 0 -22
-4 -16 -17z"/>
</g>
<g id="part-2" class="char-part">
  <path d="M520 630 c-12 -7 -12 -12 -2 -22 7 -7 12 -38 12 -75 l0 -63 -37 -1
c-21 -1 -49 -5 -63 -9 -19 -6 -9 -8 38 -9 l62 -1 0 -55 c0 -55 4 -61 34 -49
12 5 16 20 16 58 l0 52 63 10 c78 11 73 30 -7 26 l-59 -3 6 33 c3 18 9 47 12
64 6 29 4 32 -26 43 -17 6 -32 11 -33 11 -1 0 -8 -5 -16 -10z"/>
</g>
<g id="part-3" class="char-part">
  <path d="M565 345 c-38 -7 -87 -14 -107 -14 -44 -1 -48 -10 -15 -31 13 -8 40
-34 61 -57 l37 -41 -35 -27 c-20 -15 -68 -40 -108 -56 l-73 -30 57 4 c38 2 78
14 123 36 l67 33 47 -46 c43 -42 51 -46 96 -46 62 0 125 10 125 20 0 4 -30 15
-67 25 -82 21 -176 72 -166 88 3 7 29 38 57 71 47 55 49 59 31 72 -22 17 -37
16 -130 -1z m61 -43 c-8 -15 -26 -39 -40 -55 l-25 -27 -40 42 c-22 24 -38 44
-36 46 6 6 140 29 147 25 5 -2 2 -16 -6 -31z"/>
</g>
</g>
</svg>