<?xml version="1.0" standalone="no"?>
<!DOCTYPE svg PUBLIC "-//W3C//DTD SVG 20010904//EN"
 "http://www.w3.org/TR/2001/REC-SVG-20010904/DTD/svg10.dtd">
<svg version="1.0" xmlns="http://www.w3.org/2000/svg"
 width="96.000000pt" height="68.000000pt" viewBox="0 0 96.000000 68.000000"
 preserveAspectRatio="xMidYMid meet">
<metadata>
Created by potrace 1.16, written by Peter Selinger 2001-2019
Combined from part_0.svg through part_5.svg with named groups
</metadata>
<g transform="translate(0.000000,68.000000) scale(0.100000,-0.100000)" fill="#000000" stroke="none">
<g id="part-0" class="char-part">
  <path d="M464 572 c-172 -20 -221 -29 -217 -39 3 -7 11 -13 18 -13 20 0 26
-26 19 -88 -11 -106 -51 -211 -110 -287 -48 -63 -50 -68 -23 -60 88 26 165
181 193 386 8 55 -2 52 241 69 187 13 194 15 174 35 -24 25 -66 24 -295 -3z"/>
  <path d="M508 466 c-58 -6 -109 -14 -113 -18 -10 -10 52 -20 85 -13 26 6 29 4
24 -12 -10 -27 -44 -62 -86 -89 -47 -30 -43 -60 6 -50 17 4 48 9 69 13 l38 6
-3 -39 c-3 -37 -5 -39 -38 -42 -19 -1 -46 -5 -60 -8 -23 -6 -24 -7 -5 -15 11
-4 39 -5 62 -2 39 5 43 3 49 -21 12 -48 3 -52 -107 -60 -56 -3 -105 -9 -108
-12 -13 -12 27 -24 64 -19 22 3 123 8 225 11 212 6 223 8 190 31 -18 13 -40
15 -121 10 l-99 -6 0 33 c0 36 15 45 75 46 17 0 37 4 44 9 20 13 -22 23 -75
19 l-39 -3 1 40 c1 39 2 40 43 49 37 8 44 6 66 -14 30 -28 51 -16 42 22 -7 26
-100 78 -114 64 -4 -4 0 -12 10 -17 22 -13 22 -39 0 -40 -10 0 -51 -4 -90 -8
-40 -4 -73 -3 -73 1 0 4 20 22 45 40 28 21 44 39 41 49 -3 13 7 18 48 23 87
11 116 18 116 27 0 11 -72 9 -212 -5z"/>
</g>
<g id="part-1" class="char-part">
  <path d="M445 564 c-104 -12 -192 -23 -195 -23 -2 -1 6 -8 18 -17 17 -12 22
-25 22 -62 0 -109 -56 -259 -126 -341 -37 -43 -37 -43 -8 -28 75 40 141 151
168 289 9 42 16 85 16 96 0 44 18 50 175 61 83 6 175 14 205 17 50 5 53 7 35
20 -25 19 -82 17 -310 -12z"/>
</g>
<g id="part-2" class="char-part">
  <path d="M505 464 c-60 -7 -111 -13 -113 -13 -2 -1 0 -6 3 -12 8 -11 143 -5
250 11 33 6 64 10 68 10 5 0 5 5 2 10 -8 13 -71 11 -210 -6z"/>
</g>
<g id="part-3" class="char-part">
  <path d="M510 431 c0 -18 -59 -78 -89 -91 -32 -13 -47 -38 -32 -53 6 -6 60 0
146 18 l137 26 22 -20 c31 -29 46 -26 46 8 0 30 -17 46 -78 70 -41 17 -50 9
-22 -21 l21 -23 -58 -8 c-32 -4 -76 -6 -98 -5 l-40 3 48 34 c28 21 46 41 45
50 -4 18 -48 28 -48 12z"/>
</g>
<g id="part-4" class="char-part">
  <path d="M540 304 c-12 -4 -14 -15 -12 -44 l4 -40 -38 -1 c-22 -1 -50 -4 -64
-8 l-25 -7 28 -7 c16 -4 43 -5 62 -1 31 5 35 3 41 -20 11 -46 4 -50 -117 -61
-105 -10 -112 -12 -87 -24 21 -11 42 -11 103 -2 42 6 140 11 218 11 150 0 195
10 142 30 -20 8 -61 9 -122 5 l-93 -7 0 35 c0 39 11 47 68 47 20 0 43 4 51 9
20 13 -39 24 -84 15 l-37 -7 7 33 c6 29 -5 53 -25 49 -3 -1 -12 -3 -20 -5z"/>
</g>
</g>
</svg>