<?xml version="1.0" standalone="no"?>
<!DOCTYPE svg PUBLIC "-//W3C//DTD SVG 20010904//EN"
 "http://www.w3.org/TR/2001/REC-SVG-20010904/DTD/svg10.dtd">
<svg version="1.0" xmlns="http://www.w3.org/2000/svg"
 width="96.000000pt" height="68.000000pt" viewBox="0 0 96.000000 68.000000"
 preserveAspectRatio="xMidYMid meet">
<metadata>
Created by potrace 1.16, written by Peter Selinger 2001-2019
Combined from part_0.svg through part_5.svg with named groups
</metadata>
<g transform="translate(0.000000,68.000000) scale(0.100000,-0.100000)" fill="#000000" stroke="none">
<g id="part-0" class="char-part">
  <path d="M470 581 c0 -18 42 -61 61 -61 25 0 25 31 1 53 -19 18 -62 23 -62 8z"/>
  <path d="M199 542 c25 -47 101 -72 101 -33 0 26 -19 39 -69 47 -42 7 -43 6
-32 -14z"/>
  <path d="M440 463 c-64 -24 -64 -24 -20 -18 25 3 54 6 65 8 19 2 20 -5 23
-144 1 -85 -2 -158 -8 -174 -10 -26 -13 -27 -51 -21 l-41 7 33 -28 c19 -15 36
-31 37 -35 7 -16 41 -7 56 14 12 17 16 48 16 125 0 57 2 103 4 103 2 0 35 -32
75 -70 l71 -70 57 0 c55 0 95 12 77 22 -5 3 -34 13 -64 23 -30 10 -73 27 -95
39 -40 21 -105 74 -105 85 0 4 34 19 75 34 41 16 75 32 75 37 0 5 -11 17 -24
25 -23 15 -25 14 -62 -23 -22 -22 -50 -45 -63 -52 l-24 -12 6 70 c8 94 1 97
-113 55z"/>
  <path d="M138 369 c34 -36 45 -42 59 -33 42 26 13 64 -54 71 l-48 5 43 -43z"/>
  <path d="M345 346 c-67 -13 -53 -31 16 -20 31 5 39 3 39 -9 0 -21 -62 -93
-116 -135 -51 -40 -51 -51 0 -27 36 17 95 70 154 138 27 31 31 41 22 53 -14
16 -31 16 -115 0z"/>
  <path d="M217 251 c-15 -22 -42 -52 -62 -68 -37 -30 -42 -47 -23 -88 14 -30
38 -33 45 -4 3 11 23 57 44 101 22 44 39 84 39 89 0 20 -19 7 -43 -30z"/>
</g>
<g id="part-1" class="char-part">
  <path d="M222 525 c43 -40 68 -45 68 -14 0 21 -51 49 -87 49 -14 0 -9 -9 19
-35z"/>
  <path d="M126 385 c30 -46 84 -61 84 -24 0 20 -50 49 -85 49 -14 0 -14 -3 1
-25z"/>
  <path d="M220 248 c-12 -18 -40 -49 -63 -70 -39 -35 -40 -37 -27 -67 7 -17 18
-31 24 -31 12 0 102 187 94 196 -3 3 -16 -10 -28 -28z"/>
</g>
<g id="part-2" class="char-part">
  <path d="M470 581 c0 -18 42 -61 61 -61 25 0 25 31 1 53 -19 18 -62 23 -62 8z"/>
</g>
<g id="part-3" class="char-part">
  <path d="M430 463 l-65 -24 55 5 c30 2 62 6 70 8 11 2 16 -7 18 -29 2 -18 6
-33 10 -33 21 1 35 22 36 56 1 37 -1 39 -29 40 -16 1 -59 -9 -95 -23z"/>
</g>
<g id="part-4" class="char-part">
  <path d="M620 388 c-59 -54 -57 -55 48 -16 55 20 60 32 26 54 -17 11 -25 7
-74 -38z"/>
  <path d="M528 392 c-16 -3 -18 -17 -18 -120 0 -160 -2 -165 -55 -160 l-42 5
37 -33 c73 -66 100 -36 100 113 0 57 3 103 6 103 3 0 17 -14 32 -31 14 -18 48
-49 75 -70 41 -33 56 -39 95 -38 54 1 97 14 72 22 -107 36 -151 54 -185 78
-71 50 -88 69 -94 102 -4 24 -11 32 -23 29z"/>
  <path d="M345 345 c-43 -9 -55 -14 -42 -20 9 -4 35 -3 57 3 21 5 41 7 44 5 14
-15 -61 -108 -134 -166 -31 -25 -32 -27 -10 -21 42 10 97 54 155 121 60 70 63
78 39 87 -20 8 -35 6 -109 -9z"/>
</g>
</g>
</svg>