<?xml version="1.0" standalone="no"?>
<!DOCTYPE svg PUBLIC "-//W3C//DTD SVG 20010904//EN"
 "http://www.w3.org/TR/2001/REC-SVG-20010904/DTD/svg10.dtd">
<svg version="1.0" xmlns="http://www.w3.org/2000/svg"
 width="96.000000pt" height="68.000000pt" viewBox="0 0 96.000000 68.000000"
 preserveAspectRatio="xMidYMid meet">
<metadata>
Created by potrace 1.16, written by Peter Selinger 2001-2019
Combined from part_0.svg through part_5.svg with named groups
</metadata>
<g transform="translate(0.000000,68.000000) scale(0.100000,-0.100000)" fill="#000000" stroke="none">
<g id="part-0" class="char-part">
  <path d="M459 604 c-1 -5 0 -34 1 -65 l2 -56 -54 -9 -53 -8 53 -4 c28 -2 53
-7 54 -13 0 -5 1 -14 2 -21 1 -6 -17 -17 -39 -24 l-40 -12 47 -1 c55 -1 148
19 148 31 0 5 -17 8 -37 6 -32 -2 -38 0 -38 16 0 16 11 22 48 30 50 11 66 33
19 28 -71 -9 -67 -12 -64 46 2 30 0 52 -6 52 -6 0 -17 3 -26 6 -9 3 -17 2 -17
-2z"/>
  <path d="M270 550 c-14 -4 -48 -8 -77 -9 l-52 -1 11 -31 c7 -20 9 -81 6 -163
-4 -110 -9 -142 -30 -194 -19 -46 -22 -62 -12 -62 21 0 62 69 75 126 10 44 15
51 31 46 14 -3 27 4 44 24 l23 29 1 -65 c0 -98 -6 -110 -48 -110 l-36 0 34
-35 c40 -41 62 -44 84 -10 13 20 16 55 16 202 0 98 4 193 9 211 9 30 8 34 -15
42 -28 11 -29 11 -64 0z m20 -76 c0 -43 -2 -46 -22 -40 -13 3 -31 6 -40 6 -12
0 -18 8 -18 23 0 29 10 44 35 50 42 10 45 8 45 -39z m-18 -94 c33 0 20 -35
-22 -59 l-40 -22 0 56 c0 56 0 56 22 41 12 -9 30 -16 40 -16z"/>
  <path d="M717 520 c-10 -21 -33 -55 -52 -76 -19 -21 -35 -39 -35 -41 0 -11 65
33 111 76 54 50 57 62 14 74 -16 5 -24 -2 -38 -33z"/>
  <path d="M753 393 c-7 -2 -13 -11 -13 -18 0 -15 -97 -105 -113 -105 -6 0 -8
-2 -5 -5 3 -3 18 -1 34 5 37 14 154 91 154 102 0 7 -34 29 -42 27 -2 0 -9 -3
-15 -6z"/>
  <path d="M455 359 c-27 -5 -63 -7 -79 -4 -28 5 -28 4 -13 -13 10 -10 25 -41
34 -68 9 -27 24 -60 35 -73 26 -33 23 -38 -22 -46 -43 -7 -52 -20 -20 -30 17
-5 78 13 200 62 l35 13 -42 -6 c-45 -6 -55 4 -28 26 20 17 19 37 -2 49 -17 10
-17 10 0 11 10 0 16 4 13 9 -3 5 6 20 20 34 25 25 25 26 5 36 -23 13 -65 12
-136 0z m83 -36 c-3 -27 -5 -28 -63 -28 -54 0 -60 2 -63 22 -3 19 2 22 40 26
95 8 90 9 86 -20z m-18 -84 c0 -40 -16 -70 -35 -63 -8 4 -15 13 -15 21 0 8
-11 24 -25 35 -33 26 -24 38 31 38 42 0 44 -1 44 -31z"/>
  <path d="M769 238 c-33 -50 -141 -138 -222 -182 -70 -38 -71 -39 -31 -34 60 8
103 31 191 105 43 36 89 74 103 85 19 15 22 23 14 35 -18 28 -32 26 -55 -9z"/>
</g>
<g id="part-1" class="char-part">
  <path d="M250 539 c-19 -5 -50 -6 -68 -3 -32 5 -32 4 -25 -23 4 -15 7 -82 6
-148 -1 -114 -7 -147 -48 -260 -5 -14 2 -11 24 12 27 29 61 113 61 151 0 12 3
12 16 1 14 -11 20 -9 45 19 l29 32 0 -90 0 -90 -37 0 -38 0 37 -36 c20 -20 41
-33 47 -30 33 21 40 63 42 267 l2 204 -29 2 c-16 1 -45 -3 -64 -8z m44 -35 c9
-22 7 -84 -1 -84 -5 0 -25 5 -45 11 -34 9 -38 13 -38 43 0 18 3 36 7 39 13 14
71 7 77 -9z m-24 -116 c39 -5 36 -33 -7 -62 -21 -14 -43 -26 -50 -26 -14 0
-17 38 -7 89 6 28 8 30 23 17 9 -8 27 -16 41 -18z"/>
</g>
<g id="part-2" class="char-part">
  <path d="M457 547 l5 -64 -53 -10 -54 -10 53 -2 c47 -1 52 -3 52 -24 0 -19 -8
-26 -37 -34 l-38 -10 47 -2 c62 -1 150 18 142 31 -4 6 -22 8 -41 5 -31 -5 -34
-4 -31 16 2 18 12 24 56 31 31 5 51 13 49 20 -4 11 -28 12 -77 5 -24 -4 -25
-2 -22 47 3 46 1 52 -20 58 -13 3 -26 6 -29 6 -4 0 -4 -29 -2 -63z"/>
</g>
<g id="part-3" class="char-part">
  <path d="M520 248 c-1 -63 -33 -98 -50 -54 -8 23 -46 56 -63 56 -4 0 4 -20 18
-44 l26 -44 -46 -7 c-39 -5 -44 -9 -34 -21 17 -21 37 -18 140 22 107 41 120
49 65 39 l-39 -8 19 32 c16 28 17 33 4 41 -25 16 -40 11 -40 -12z"/>
</g>
<g id="part-4" class="char-part">
  <path d="M780 257 c0 -14 -94 -108 -155 -154 -22 -17 -62 -42 -90 -56 -41 -21
-45 -26 -25 -26 44 -1 123 44 217 122 104 87 109 93 93 112 -15 18 -40 20 -40
2z"/>
</g>
</g>
</svg>