<?xml version="1.0" standalone="no"?>
<!DOCTYPE svg PUBLIC "-//W3C//DTD SVG 20010904//EN"
 "http://www.w3.org/TR/2001/REC-SVG-20010904/DTD/svg10.dtd">
<svg version="1.0" xmlns="http://www.w3.org/2000/svg"
 width="96.000000pt" height="68.000000pt" viewBox="0 0 96.000000 68.000000"
 preserveAspectRatio="xMidYMid meet">
<metadata>
Created by potrace 1.16, written by Peter Selinger 2001-2019
Combined from part_0.svg through part_5.svg with named groups
</metadata>
<g transform="translate(0.000000,68.000000) scale(0.100000,-0.100000)" fill="#000000" stroke="none">
<g id="part-0" class="char-part">
  <path d="M245 487 c0 -118 -6 -127 -86 -127 -66 0 -76 -14 -27 -34 22 -10 40
-11 56 -5 32 12 38 5 24 -26 -17 -38 -16 -42 28 -71 47 -31 44 -38 -37 -87
-29 -17 -53 -35 -53 -39 0 -13 91 20 126 47 l34 26 31 -25 c17 -14 37 -26 45
-26 12 0 11 -6 -6 -30 -30 -42 -11 -37 32 8 43 43 89 141 108 230 l14 62 56 1
c30 1 60 2 65 4 6 1 41 3 78 3 61 2 67 4 58 20 -6 12 -3 27 10 52 10 19 21 41
25 49 17 33 -41 37 -176 11 -36 -6 -89 -9 -118 -6 -38 5 -51 3 -46 -5 11 -18
5 -148 -11 -215 -8 -34 -26 -88 -41 -120 -25 -53 -28 -56 -32 -31 -2 15 -6 27
-10 27 -4 0 -15 7 -25 14 -17 14 -18 16 -2 47 10 18 22 51 29 73 7 25 20 45
34 51 25 11 29 25 7 25 -8 0 -15 6 -15 14 0 14 -29 26 -64 26 -14 0 -17 -6
-14 -24 4 -21 0 -25 -26 -29 -17 -3 -32 -4 -33 -3 -2 1 9 40 23 86 l26 84 -22
18 c-12 10 -32 18 -44 18 -20 0 -21 -5 -21 -93z m510 -4 c-7 -44 -28 -63 -68
-63 -25 0 -27 3 -21 23 3 12 11 27 15 33 6 8 3 14 -8 19 -16 7 -15 9 7 15 14
5 38 8 54 9 27 1 28 0 21 -36z m-127 -25 l-3 -43 -47 -3 -48 -3 6 33 c10 56
12 58 54 58 l41 0 -3 -42z m-289 -142 c-5 -19 -15 -46 -22 -59 -12 -23 -15
-24 -45 -11 -37 15 -36 12 -17 57 14 35 20 38 82 46 8 1 9 -8 2 -33z"/>
  <path d="M738 345 c-3 -3 -44 -11 -91 -18 l-87 -12 -3 -117 c-4 -121 1 -150
25 -131 7 6 42 13 78 17 62 6 65 5 86 -21 23 -28 23 -28 42 -8 18 18 19 30 15
146 -5 122 -7 127 -30 138 -28 13 -28 13 -35 6z m10 -58 c3 -22 -1 -27 -20
-27 -13 0 -47 -3 -75 -6 -52 -7 -53 -6 -53 19 0 29 11 34 85 40 57 5 60 4 63
-26z m2 -112 l0 -65 -55 -2 c-30 -1 -65 -2 -77 -2 -16 -1 -23 5 -23 18 0 21
23 31 98 41 26 3 47 10 47 16 0 11 -30 11 -90 -1 -54 -10 -59 -8 -53 24 5 26
15 29 121 34 l32 2 0 -65z"/>
</g>
<g id="part-1" class="char-part">
  <path d="M256 531 c4 -22 1 -70 -6 -106 l-12 -65 -64 0 c-35 0 -64 -4 -64 -10
0 -19 41 -32 81 -25 l40 7 -15 -37 c-9 -21 -16 -39 -16 -41 0 -1 18 -13 40
-25 22 -13 40 -26 40 -30 0 -12 -32 -41 -79 -71 -25 -15 -39 -28 -33 -28 21 0
84 29 118 55 l31 24 23 -24 c13 -14 32 -25 42 -25 27 0 22 35 -8 58 l-27 19
25 64 c14 35 28 72 31 82 4 9 13 17 22 17 8 0 15 2 15 5 0 12 -42 45 -64 51
-21 5 -25 2 -28 -23 -2 -24 -8 -28 -35 -31 -40 -4 -40 0 -11 90 25 78 19 101
-26 106 -26 3 -26 2 -20 -37z m79 -241 c-9 -27 -20 -52 -25 -55 -13 -8 -70 16
-70 29 0 7 5 27 11 44 9 26 18 33 52 40 23 4 43 4 45 0 2 -4 -4 -30 -13 -58z"/>
</g>
<g id="part-2" class="char-part">
  <path d="M715 543 c-27 -8 -90 -15 -140 -16 l-90 -2 3 -67 4 -68 51 0 c29 0
95 3 148 6 92 7 97 8 97 30 0 13 9 39 21 59 11 20 21 40 21 45 0 6 -59 33 -64
29 -1 0 -23 -7 -51 -16z m45 -42 c0 -44 -18 -70 -55 -77 -46 -8 -50 -3 -30 35
14 29 14 32 0 38 -25 9 2 23 48 23 30 0 37 -4 37 -19z m-132 -43 c-3 -43 -3
-43 -45 -46 l-43 -3 0 39 c0 21 3 42 7 45 3 4 24 7 45 7 l39 0 -3 -42z"/>
</g>
<g id="part-3" class="char-part">
  <path d="M481 328 c-14 -72 -52 -164 -93 -225 -39 -58 -35 -64 13 -18 50 48
94 133 114 217 19 81 19 88 -4 88 -15 0 -21 -12 -30 -62z"/>
</g>
<g id="part-4" class="char-part">
  <path d="M750 128 c0 -22 -4 -23 -77 -23 -51 0 -78 4 -81 13 -2 6 -12 12 -23
12 -14 0 -19 -7 -19 -29 0 -33 15 -48 33 -33 7 5 42 13 78 16 65 7 67 7 88
-21 l21 -28 20 24 c33 39 24 91 -16 91 -18 0 -24 -5 -24 -22z"/>
</g>
</g>
</svg>