<?xml version="1.0" standalone="no"?>
<!DOCTYPE svg PUBLIC "-//W3C//DTD SVG 20010904//EN"
 "http://www.w3.org/TR/2001/REC-SVG-20010904/DTD/svg10.dtd">
<svg version="1.0" xmlns="http://www.w3.org/2000/svg"
 width="96.000000pt" height="68.000000pt" viewBox="0 0 96.000000 68.000000"
 preserveAspectRatio="xMidYMid meet">
<metadata>
Created by potrace 1.16, written by Peter Selinger 2001-2019
Combined from part_0.svg through part_5.svg with named groups
</metadata>
<g transform="translate(0.000000,68.000000) scale(0.100000,-0.100000)" fill="#000000" stroke="none">
<g id="part-0" class="char-part">
  <path d="M556 563 c6 -51 -3 -62 -62 -69 -27 -3 -56 -8 -64 -11 -27 -9 22 -22
63 -16 51 8 48 -10 -9 -64 -59 -54 -36 -56 34 -3 29 22 55 40 58 40 2 0 28
-16 57 -35 60 -40 67 -42 67 -15 0 23 -32 45 -80 55 -47 10 -53 14 -39 31 7 8
32 14 63 15 28 1 65 4 81 8 30 7 30 7 7 19 -16 10 -32 10 -60 2 -20 -5 -47
-10 -59 -10 -20 0 -20 2 -10 36 12 38 2 54 -35 54 -13 0 -15 -7 -12 -37z"/>
  <path d="M324 504 c-5 -2 -53 -10 -105 -17 -51 -7 -94 -17 -94 -22 0 -6 25
-12 55 -15 l55 -5 0 -55 0 -55 -37 -3 c-51 -4 -48 -22 2 -22 l41 0 -3 -62 -3
-62 -65 -17 c-36 -10 -67 -18 -69 -18 -13 -2 37 -30 53 -31 20 0 229 101 222
108 -3 2 -21 -1 -40 -8 -42 -14 -54 -9 -50 22 1 13 3 35 3 50 1 24 6 29 41 34
43 7 54 23 18 25 -54 3 -53 2 -54 56 l-1 51 36 7 c66 11 73 15 60 31 -11 13
-42 17 -65 8z"/>
  <path d="M550 345 c-85 -13 -157 -24 -160 -25 -3 -1 9 -5 27 -10 17 -4 76 -1
133 7 56 8 105 11 109 8 3 -4 8 -61 9 -127 4 -127 -2 -147 -39 -127 -45 23
-46 6 -3 -27 79 -61 94 -32 89 172 l-3 124 65 0 c47 0 64 3 61 13 -7 20 -118
17 -288 -8z"/>
  <path d="M545 260 c-11 -5 -43 -9 -72 -9 l-51 -1 14 -32 c32 -69 22 -64 89
-55 47 7 51 10 67 47 16 38 16 41 -2 50 -21 11 -19 11 -45 0z m7 -42 c-13 -53
-82 -51 -82 2 0 5 15 11 33 13 17 2 37 5 44 5 7 1 9 -6 5 -20z"/>
</g>
<g id="part-1" class="char-part">
  <path d="M250 488 c-132 -22 -131 -22 -70 -28 30 -3 73 -2 95 2 22 4 57 9 78
13 20 3 37 10 37 15 0 12 -64 11 -140 -2z"/>
</g>
<g id="part-2" class="char-part">
  <path d="M238 402 c4 -55 3 -59 -19 -65 -13 -4 -34 -7 -46 -7 -13 0 -23 -4
-23 -10 0 -5 20 -10 45 -10 l46 0 -3 -62 -3 -63 -65 -14 c-78 -18 -80 -19 -56
-37 33 -23 61 -17 177 42 113 56 137 77 58 50 -24 -9 -47 -16 -51 -16 -5 0 -8
24 -8 54 l0 54 40 7 c64 11 45 33 -23 27 -17 -2 -18 4 -15 50 3 53 3 53 -28
56 l-30 3 4 -59z"/>
</g>
<g id="part-3" class="char-part">
  <path d="M555 580 c4 -11 4 -33 0 -49 -5 -25 -12 -30 -53 -36 -26 -3 -55 -9
-66 -12 -35 -10 6 -23 52 -17 56 8 55 -7 -4 -63 -26 -24 -40 -43 -32 -43 13 0
32 12 112 73 7 6 32 -5 65 -27 62 -42 71 -44 71 -13 0 26 -25 41 -84 52 -20 4
-36 13 -36 20 0 16 31 24 90 26 25 0 54 4 65 8 19 8 19 8 -2 20 -16 8 -34 8
-65 1 -73 -16 -79 -15 -66 20 13 40 4 60 -27 60 -22 0 -25 -3 -20 -20z"/>
</g>
<g id="part-4" class="char-part">
  <path d="M555 345 c-88 -13 -162 -24 -165 -25 -3 -1 9 -5 27 -10 19 -4 67 -2
114 6 44 7 132 16 195 20 108 6 134 14 98 28 -26 10 -99 5 -269 -19z"/>
</g>
<g id="part-5" class="char-part">
  <path d="M529 248 c-11 -8 -11 -9 3 -5 23 8 37 -13 28 -39 -6 -14 -20 -23 -42
-27 -40 -6 -57 6 -53 38 2 26 -9 33 -21 14 -3 -6 -1 -15 6 -19 6 -4 11 -10 11
-14 -4 -31 0 -35 42 -30 23 3 47 6 54 6 7 1 10 5 7 10 -3 4 0 8 5 8 6 0 10 3
9 8 -1 4 3 17 10 30 7 12 11 23 10 23 -17 7 -57 5 -69 -3z"/>
</g>
</g>
</svg>