<?xml version="1.0" standalone="no"?>
<!DOCTYPE svg PUBLIC "-//W3C//DTD SVG 20010904//EN"
 "http://www.w3.org/TR/2001/REC-SVG-20010904/DTD/svg10.dtd">
<svg version="1.0" xmlns="http://www.w3.org/2000/svg"
 width="96.000000pt" height="68.000000pt" viewBox="0 0 96.000000 68.000000"
 preserveAspectRatio="xMidYMid meet">
<metadata>
Created by potrace 1.16, written by Peter Selinger 2001-2019
Combined from part_0.svg through part_5.svg with named groups
</metadata>
<g transform="translate(0.000000,68.000000) scale(0.100000,-0.100000)" fill="#000000" stroke="none">
<g id="part-0" class="char-part">
  <path d="M525 503 c-9 -103 -15 -114 -61 -129 l-39 -12 33 -1 c23 -1 32 -6 32
-17 0 -27 -70 -166 -106 -211 -36 -43 -40 -53 -25 -53 16 0 108 98 121 130 7
16 16 30 21 30 5 0 30 -19 55 -42 l46 -43 -37 -32 c-20 -17 -55 -41 -78 -52
-30 -14 -36 -20 -21 -21 33 0 110 30 130 51 24 27 35 24 74 -16 32 -33 37 -35
102 -35 71 0 87 11 41 28 -90 34 -125 49 -143 62 -20 15 -20 16 7 84 27 66 27
69 8 82 -33 24 -45 17 -45 -25 0 -46 -15 -91 -30 -91 -6 0 -30 15 -53 32 -23
18 -44 34 -46 35 -1 1 4 24 14 52 l16 50 88 6 c97 8 126 18 101 35 -20 13 -48
12 -109 -2 -28 -6 -54 -8 -58 -5 -4 4 2 42 11 84 18 74 18 77 0 90 -34 25 -41
15 -49 -64z"/>
  <path d="M702 484 c37 -37 68 -41 68 -9 0 16 -55 45 -87 45 -13 0 -9 -9 19
-36z"/>
  <path d="M265 493 c-29 -8 -68 -11 -92 -8 -46 7 -54 -2 -25 -29 11 -9 24 -41
31 -72 12 -52 14 -55 38 -49 41 10 49 -7 52 -103 l2 -90 -27 -6 c-14 -4 -29
-5 -32 -2 -2 3 -5 35 -5 71 -1 36 -4 65 -8 65 -4 0 -15 3 -25 7 -16 6 -16 1
-10 -52 4 -33 9 -69 12 -82 6 -21 3 -23 -40 -23 -50 0 -55 -18 -10 -38 20 -10
37 -7 96 16 40 16 94 34 121 41 26 8 47 18 47 22 0 11 -7 11 -48 0 l-32 -10 0
49 0 48 45 6 c58 9 60 29 3 24 l-43 -3 0 38 c-1 28 3 37 16 37 33 0 46 11 42
33 -2 12 5 40 16 61 15 29 18 43 10 53 -14 16 -68 15 -134 -4z m62 -60 c-7
-43 -20 -53 -69 -53 -26 0 -38 5 -42 18 -2 9 -7 27 -11 39 -6 23 6 27 94 31
33 2 34 2 28 -35z"/>
</g>
<g id="part-1" class="char-part">
  <path d="M290 494 c-25 -8 -69 -14 -98 -12 -54 3 -62 -1 -38 -22 8 -6 20 -36
27 -66 12 -55 26 -75 38 -56 3 5 39 13 79 17 56 5 72 10 68 21 -3 7 4 36 16
65 18 43 19 52 7 60 -19 12 -45 10 -99 -7z m40 -51 c0 -52 -9 -62 -62 -69
l-46 -7 -13 42 c-7 23 -10 44 -7 47 5 5 79 19 116 23 8 1 12 -12 12 -36z"/>
</g>
<g id="part-2" class="char-part">
  <path d="M270 144 c-47 -12 -107 -23 -133 -23 -53 -1 -58 -13 -16 -38 24 -14
31 -13 120 20 52 20 106 39 122 42 30 8 37 26 10 24 -10 -1 -56 -12 -103 -25z"/>
</g>
<g id="part-3" class="char-part">
  <path d="M685 497 c21 -33 62 -54 77 -39 24 24 -20 62 -73 62 -18 0 -18 -2 -4
-23z"/>
</g>
<g id="part-4" class="char-part">
  <path d="M529 538 c0 -24 -6 -67 -12 -97 -11 -51 -14 -55 -52 -67 l-40 -12 33
-1 c24 -1 32 -6 32 -19 0 -27 -63 -152 -104 -205 -42 -55 -41 -69 2 -38 51 36
108 123 136 208 l17 51 62 6 c102 11 137 18 137 27 0 16 -40 19 -105 9 -37 -6
-70 -9 -73 -6 -2 3 3 39 13 81 18 74 18 76 -1 90 -33 25 -44 18 -45 -27z"/>
</g>
<g id="part-5" class="char-part">
  <path d="M644 269 c1 -27 -2 -53 -6 -56 -5 -2 -4 -10 1 -17 8 -10 4 -12 -19
-11 -26 2 -29 -1 -24 -20 4 -17 -3 -29 -35 -52 -22 -16 -38 -33 -34 -36 11
-12 25 -8 17 5 -5 7 -2 9 8 5 18 -6 52 25 41 37 -4 4 1 4 10 0 15 -5 17 -2 13
21 -3 15 -2 25 1 22 12 -13 43 15 43 38 0 14 4 25 9 25 5 0 12 14 16 31 5 23
3 34 -12 44 -28 22 -32 18 -29 -36z"/>
  <path d="M627 154 c-8 -8 3 -34 15 -34 5 0 16 -7 25 -16 10 -10 19 -12 25 -6
15 15 0 32 -19 25 -12 -5 -14 -3 -8 7 6 10 4 12 -9 7 -9 -4 -14 -3 -11 2 6 11
-9 23 -18 15z"/>
  <path d="M703 95 c-11 -8 -24 -11 -28 -7 -5 4 -5 1 0 -6 4 -8 16 -12 26 -9 10
3 17 0 16 -7 -1 -6 13 -12 36 -13 45 -1 52 23 10 33 -16 4 -30 11 -33 15 -4 5
-15 2 -27 -6z"/>
  <path d="M800 70 c0 -6 7 -10 15 -10 8 0 15 2 15 4 0 2 -7 6 -15 10 -8 3 -15
1 -15 -4z"/>
</g>
</g>
</svg>