<?xml version="1.0" standalone="no"?>
<!DOCTYPE svg PUBLIC "-//W3C//DTD SVG 20010904//EN"
 "http://www.w3.org/TR/2001/REC-SVG-20010904/DTD/svg10.dtd">
<svg version="1.0" xmlns="http://www.w3.org/2000/svg"
 width="96.000000pt" height="68.000000pt" viewBox="0 0 96.000000 68.000000"
 preserveAspectRatio="xMidYMid meet">
<metadata>
Created by potrace 1.16, written by Peter Selinger 2001-2019
Combined from part_0.svg through part_5.svg with named groups
</metadata>
<g transform="translate(0.000000,68.000000) scale(0.100000,-0.100000)" fill="#000000" stroke="none">
<g id="part-0" class="char-part">
  <path d="M415 601 c31 -99 71 -281 62 -281 -7 0 -61 -7 -122 -14 -60 -8 -138
-17 -172 -21 -35 -4 -63 -10 -63 -15 0 -18 69 -18 183 -1 214 34 186 39 229
-47 21 -41 35 -79 32 -84 -4 -6 -23 -17 -43 -25 -20 -9 -30 -18 -23 -21 8 -2
31 3 52 13 l38 17 54 -41 c63 -47 115 -71 157 -71 31 0 31 0 25 48 -9 73 -15
82 -29 42 -10 -30 -16 -35 -40 -32 -30 3 -114 60 -115 77 0 6 18 29 40 50 45
44 49 59 21 75 -33 17 -51 12 -51 -15 0 -31 -27 -75 -45 -75 -8 0 -16 9 -20
19 -3 11 -17 36 -31 56 -14 21 -23 39 -21 42 3 2 24 6 48 8 97 9 139 17 139
27 0 6 -38 9 -102 7 l-102 -4 -17 55 c-10 31 -18 88 -18 131 -1 80 -10 99 -49
99 -18 0 -22 -4 -17 -19z"/>
  <path d="M600 570 c-7 -17 -26 -41 -41 -55 -30 -24 -39 -55 -16 -55 6 0 27 4
45 9 17 5 32 7 32 3 0 -4 -19 -24 -42 -45 -31 -29 -39 -40 -30 -49 9 -9 27 -7
74 10 42 15 65 19 72 12 15 -15 36 -12 36 4 0 14 -36 46 -51 46 -4 0 -9 -9
-12 -20 -4 -15 -13 -20 -39 -20 l-33 0 64 58 c59 53 62 59 46 72 -15 13 -20
11 -44 -18 -20 -25 -34 -32 -61 -32 l-34 0 43 44 c24 24 40 49 37 55 -13 20
-33 11 -46 -19z"/>
  <path d="M296 544 c-4 -14 -25 -45 -47 -69 -45 -49 -48 -83 -6 -71 80 23 82
22 33 -25 -64 -61 -51 -77 34 -44 69 27 90 31 90 15 0 -5 7 -10 15 -10 22 0
18 37 -4 50 -26 13 -31 13 -31 -3 0 -15 -78 -43 -88 -32 -7 6 86 94 101 95 11
0 8 38 -5 46 -10 6 -32 -14 -40 -37 -2 -4 -21 -10 -43 -14 l-40 -7 49 50 c42
43 47 53 36 67 -19 23 -47 18 -54 -11z"/>
  <path d="M740 371 c0 -14 51 -52 64 -48 21 7 17 35 -6 42 -13 4 -31 9 -40 11
-10 3 -18 1 -18 -5z"/>
  <path d="M355 230 c-27 -5 -78 -9 -112 -9 -35 -1 -63 -5 -63 -11 0 -5 4 -10 9
-10 4 0 16 -26 25 -57 10 -32 20 -64 22 -72 3 -10 7 -11 19 -1 10 8 41 11 95
9 l79 -4 24 72 c33 97 26 102 -98 83z m65 -41 c0 -15 -7 -19 -35 -19 -28 0
-35 4 -35 19 0 13 8 21 23 23 32 6 47 -2 47 -23z m-110 -5 c0 -9 -8 -23 -17
-30 -17 -13 -17 -13 0 -14 10 0 17 -8 17 -20 0 -16 -7 -20 -30 -20 -23 0 -30
4 -30 20 0 11 5 20 10 20 6 0 10 4 10 10 0 5 -7 7 -15 4 -11 -5 -15 1 -15 20
0 23 4 26 35 26 26 0 35 -4 35 -16z m100 -52 c0 -25 -4 -29 -30 -30 -25 -1
-30 3 -30 23 0 22 12 31 48 34 7 1 12 -11 12 -27z"/>
</g>
<g id="part-1" class="char-part">
  <path d="M296 537 c-7 -19 -28 -49 -45 -69 -17 -20 -31 -41 -31 -47 0 -15 38
-13 75 4 l30 13 -28 1 -29 1 34 41 c53 66 55 68 38 79 -23 15 -29 12 -44 -23z"/>
</g>
<g id="part-2" class="char-part">
  <path d="M426 548 c42 -141 62 -218 55 -223 -4 -2 -90 -14 -190 -26 -157 -20
-181 -25 -165 -36 24 -17 34 -17 213 12 85 13 155 23 156 22 0 -1 16 -33 35
-72 19 -38 36 -73 38 -77 2 -3 -16 -18 -40 -32 -47 -28 -32 -35 26 -11 37 15
37 15 79 -18 68 -56 128 -82 179 -78 15 1 17 8 11 49 -8 66 -19 83 -27 45 -4
-17 -13 -34 -21 -36 -18 -7 -87 28 -116 59 l-23 24 48 49 48 49 -23 16 c-33
23 -59 21 -59 -4 0 -30 -29 -82 -43 -77 -6 2 -26 28 -44 58 -38 62 -34 67 48
68 62 1 109 11 109 23 0 6 -39 9 -101 7 l-102 -4 -14 40 c-8 22 -17 81 -20
130 -3 50 -10 96 -16 103 -5 6 -22 12 -36 12 l-27 0 22 -72z"/>
  <path d="M740 371 c0 -13 49 -51 66 -51 23 0 16 38 -8 45 -13 4 -31 9 -40 11
-10 3 -18 1 -18 -5z"/>
</g>
<g id="part-3" class="char-part">
  <path d="M340 229 c-25 -4 -71 -8 -102 -8 -61 -1 -66 -5 -43 -35 8 -10 20 -43
26 -72 12 -52 21 -65 34 -44 3 5 45 9 92 8 l87 -2 22 72 c21 70 21 73 4 82
-21 11 -55 11 -120 -1z m80 -39 c0 -16 -7 -20 -35 -20 -28 0 -35 4 -35 20 0
16 7 20 35 20 28 0 35 -4 35 -20z m-110 -9 c0 -12 -9 -21 -25 -25 -32 -8 -45
-1 -45 25 0 15 7 19 35 19 28 0 35 -4 35 -19z m98 -48 c-2 -23 -8 -28 -30 -28
-22 -1 -28 4 -28 21 0 21 13 30 48 33 9 1 12 -8 10 -26z m-98 -12 c0 -12 -9
-20 -25 -23 -29 -6 -35 -2 -35 24 0 13 8 18 30 18 23 0 30 -5 30 -19z"/>
</g>
</g>
</svg>