<?xml version="1.0" standalone="no"?>
<!DOCTYPE svg PUBLIC "-//W3C//DTD SVG 20010904//EN"
 "http://www.w3.org/TR/2001/REC-SVG-20010904/DTD/svg10.dtd">
<svg version="1.0" xmlns="http://www.w3.org/2000/svg"
 width="96.000000pt" height="68.000000pt" viewBox="0 0 96.000000 68.000000"
 preserveAspectRatio="xMidYMid meet">
<metadata>
Created by potrace 1.16, written by Peter Selinger 2001-2019
Combined from part_0.svg through part_5.svg with named groups
</metadata>
<g transform="translate(0.000000,68.000000) scale(0.100000,-0.100000)" fill="#000000" stroke="none">
<g id="part-0" class="char-part">
  <path d="M316 567 c-3 -13 -15 -35 -26 -50 l-21 -26 -34 20 c-19 11 -42 19
-52 17 -13 -2 -7 -11 25 -34 l43 -31 -36 -32 c-20 -17 -47 -38 -61 -47 -13 -9
-22 -19 -20 -22 7 -6 62 16 109 45 l37 23 12 -25 c9 -21 7 -30 -12 -57 -27
-38 -97 -99 -155 -135 -28 -17 -33 -22 -15 -18 47 12 109 47 147 81 21 18 42
34 46 34 11 0 0 -111 -15 -159 -10 -32 -12 -33 -49 -27 -22 3 -39 4 -39 1 0
-3 14 -21 32 -41 39 -42 64 -41 94 4 43 64 45 242 4 327 l-23 47 44 44 44 45
-24 20 c-31 25 -48 24 -55 -4z"/>
  <path d="M540 569 c0 -33 -57 -131 -112 -193 -27 -31 -45 -56 -40 -56 19 0
108 81 142 130 19 27 40 50 46 50 5 0 47 -39 92 -86 l83 -87 46 7 c47 6 84 26
50 26 -31 0 -122 50 -187 103 -51 41 -65 59 -66 81 -2 43 -54 67 -54 25z"/>
  <path d="M530 373 c-44 -5 -65 -23 -27 -23 20 0 28 -6 33 -24 3 -14 3 -29 0
-35 -3 -5 -40 -12 -81 -16 -100 -10 -100 -29 0 -23 l75 5 0 -34 0 -33 -62 0
c-57 0 -60 -1 -45 -17 8 -10 22 -40 29 -67 13 -45 38 -75 38 -47 0 7 31 11 88
11 93 0 105 4 110 35 2 11 10 33 18 49 21 44 -3 58 -84 50 l-63 -6 7 29 c10
43 11 43 82 44 37 1 78 4 92 9 43 13 -3 23 -80 18 l-68 -5 -4 28 c-5 35 -2 39
33 39 15 0 31 5 34 10 6 10 -52 11 -125 3z m116 -215 c-3 -13 -6 -30 -6 -39 0
-13 -15 -18 -76 -24 -41 -4 -77 -5 -78 -3 -2 1 -6 20 -10 40 l-7 37 48 4 c129
10 136 9 129 -15z"/>
</g>
<g id="part-1" class="char-part">
  <path d="M316 558 c-3 -13 -15 -34 -25 -48 l-19 -25 -40 23 c-57 32 -72 27
-24 -8 23 -17 42 -34 42 -38 0 -4 -23 -25 -50 -47 -64 -51 -46 -58 25 -11 l54
36 13 -23 c18 -31 18 -244 0 -276 -12 -20 -19 -23 -55 -18 l-40 6 41 -42 41
-41 25 23 c37 35 50 84 49 192 -1 75 -5 106 -22 144 -11 26 -21 53 -21 60 0 7
17 27 37 45 29 26 34 36 26 49 -16 26 -50 26 -57 -1z"/>
</g>
<g id="part-2" class="char-part">
  <path d="M252 317 c-30 -30 -81 -71 -115 -92 -57 -34 -59 -37 -27 -31 37 7
113 50 168 95 26 21 33 33 30 54 -3 28 -3 28 -56 -26z"/>
</g>
<g id="part-3" class="char-part">
  <path d="M540 572 c0 -36 -60 -138 -115 -194 -30 -32 -49 -58 -41 -58 25 0
110 75 146 128 19 28 40 52 46 52 6 0 47 -38 91 -85 84 -90 90 -93 168 -76 29
6 28 8 -39 39 -38 18 -101 58 -139 88 -55 45 -68 60 -63 77 6 25 -10 47 -35
47 -12 0 -19 -7 -19 -18z"/>
</g>
<g id="part-4" class="char-part">
  <path d="M546 374 c-38 -8 -72 -17 -75 -20 -9 -11 158 4 177 15 9 6 12 11 5
11 -6 0 -17 2 -25 4 -7 2 -44 -3 -82 -10z"/>
</g>
<g id="part-5" class="char-part">
  <path d="M615 191 c11 -5 23 -7 28 -4 4 2 7 -6 7 -19 0 -13 5 -29 11 -35 8 -8
7 -13 -2 -18 -8 -6 -10 -4 -4 5 5 8 4 11 -3 6 -6 -4 -9 -13 -6 -20 3 -8 -1
-14 -8 -13 -37 1 -68 -4 -68 -12 0 -5 11 -8 25 -7 14 0 25 4 25 8 0 4 11 6 24
5 14 -1 26 3 26 8 1 6 6 16 12 22 6 7 8 20 4 28 -3 9 -2 14 2 12 4 -3 12 1 19
8 10 10 9 16 -3 26 -12 10 -18 8 -30 -7 -14 -17 -15 -17 -10 -1 4 14 -1 17
-32 16 -29 0 -33 -2 -17 -8z"/>
  <path d="M437 171 c3 -12 10 -21 15 -21 5 0 6 -10 2 -22 -3 -13 -3 -19 2 -15
4 4 9 21 10 38 1 17 0 28 -4 25 -3 -3 -11 -1 -18 5 -9 8 -11 5 -7 -10z"/>
  <path d="M463 86 c3 -24 27 -34 27 -11 0 9 -4 14 -9 11 -5 -4 -12 0 -15 6 -3
7 -5 4 -3 -6z"/>
</g>
</g>
</svg>