<?xml version="1.0" standalone="no"?>
<!DOCTYPE svg PUBLIC "-//W3C//DTD SVG 20010904//EN"
 "http://www.w3.org/TR/2001/REC-SVG-20010904/DTD/svg10.dtd">
<svg version="1.0" xmlns="http://www.w3.org/2000/svg"
 width="96.000000pt" height="68.000000pt" viewBox="0 0 96.000000 68.000000"
 preserveAspectRatio="xMidYMid meet">
<metadata>
Created by potrace 1.16, written by Peter Selinger 2001-2019
Combined from part_0.svg through part_5.svg with named groups
</metadata>
<g transform="translate(0.000000,68.000000) scale(0.100000,-0.100000)" fill="#000000" stroke="none">
<g id="part-0" class="char-part">
  <path d="M600 605 c0 -19 25 -36 44 -29 12 5 14 10 6 19 -16 19 -50 26 -50 10z"/>
  <path d="M375 580 c-11 -5 -45 -9 -76 -9 l-56 -1 5 -50 c4 -40 -1 -60 -23
-105 -14 -30 -41 -71 -59 -90 -53 -56 -6 -45 54 13 l49 48 7 -31 c8 -39 15
-50 23 -36 4 6 35 14 68 17 46 5 60 10 56 20 -3 8 2 25 11 38 25 39 2 50 -78
35 -36 -7 -68 -10 -71 -8 -2 3 -2 14 1 26 5 18 16 22 86 28 61 6 78 10 74 21
-3 7 2 27 12 44 15 27 15 32 2 40 -18 12 -58 12 -85 0z m25 -50 c0 -11 -6 -20
-12 -20 -7 0 -30 -3 -51 -6 -34 -6 -37 -5 -30 12 9 26 23 34 61 34 25 0 32 -4
32 -20z m-10 -139 c0 -24 -5 -29 -31 -35 -51 -10 -59 -8 -59 19 0 19 7 26 28
31 15 3 32 7 37 9 22 7 25 4 25 -24z"/>
  <path d="M585 556 c-60 -8 -76 -14 -64 -21 17 -11 39 -47 39 -64 0 -6 -16 -11
-35 -11 -19 0 -35 -4 -35 -10 0 -5 25 -10 55 -10 48 0 55 -2 55 -20 0 -16 -7
-20 -37 -20 -21 0 -45 -5 -53 -10 -11 -7 0 -10 38 -10 45 0 52 -3 52 -19 0
-11 2 -26 5 -34 7 -17 -99 -37 -197 -37 l-63 0 3 -64 c2 -40 -2 -81 -12 -110
-18 -54 -19 -65 -7 -85 15 -23 40 4 47 49 l6 37 93 12 c121 14 115 15 115 -16
0 -42 -13 -55 -43 -47 -36 8 -33 -5 10 -41 l35 -29 18 21 c14 17 18 48 22 150
3 78 2 130 -4 134 -7 4 -6 14 1 27 6 11 11 30 11 41 0 19 6 21 63 21 54 1 60
2 44 14 -11 9 -33 12 -62 8 -41 -4 -45 -3 -45 17 0 19 6 21 58 22 31 1 68 4
82 8 38 11 9 22 -56 22 l-56 0 21 23 c12 12 21 28 21 34 0 7 11 12 25 12 14 0
25 5 25 10 0 12 -71 11 -175 -4z m75 -32 c0 -51 -54 -75 -66 -29 -3 14 -10 25
-16 25 -5 0 -6 5 -3 10 3 6 24 10 46 10 29 0 39 -4 39 -16z m-80 -248 c0 -2 3
-11 6 -20 5 -13 -1 -16 -26 -16 -18 0 -61 -5 -96 -12 -70 -13 -79 -10 -69 21
4 13 17 21 38 24 47 6 147 8 147 3z m5 -77 c9 -27 4 -31 -42 -35 -21 -2 -64
-7 -95 -12 l-58 -9 0 29 c0 26 3 28 43 29 35 0 66 4 139 18 4 0 10 -8 13 -20z"/>
</g>
<g id="part-1" class="char-part">
  <path d="M360 574 c-25 -8 -59 -12 -76 -9 l-31 5 0 -57 c0 -68 -26 -129 -81
-185 -56 -59 -15 -44 44 15 34 34 56 66 60 86 8 37 33 51 94 51 49 0 70 8 70
28 0 8 8 24 17 34 32 36 -26 55 -97 32z m47 -30 c8 -23 -16 -41 -65 -48 -43
-6 -43 -6 -40 21 2 22 10 29 33 34 51 11 65 10 72 -7z"/>
</g>
<g id="part-2" class="char-part">
  <path d="M600 424 c0 -20 -5 -24 -32 -25 -18 -1 -44 -5 -58 -9 -19 -6 -12 -8
32 -9 54 -1 57 -2 60 -28 5 -40 26 -40 34 1 l6 36 59 0 c33 0 59 4 59 9 0 13
-36 20 -80 14 -35 -5 -40 -3 -40 14 0 12 -7 19 -20 20 -15 1 -20 -4 -20 -23z"/>
</g>
<g id="part-3" class="char-part">
  <path d="M505 299 c-22 -4 -67 -8 -100 -8 l-61 -1 4 -65 c3 -47 -1 -79 -13
-111 -18 -48 -14 -94 10 -94 9 0 20 19 28 47 16 53 18 55 147 67 l70 7 0 -28
c0 -43 -12 -55 -46 -47 l-29 6 37 -38 c38 -38 38 -38 57 -19 16 17 20 40 23
152 4 108 2 133 -9 138 -19 7 -69 5 -118 -6z m75 -28 c5 -11 10 -22 10 -24 0
-2 -30 -7 -67 -11 -38 -4 -83 -9 -100 -12 -24 -5 -33 -3 -33 7 0 29 18 38 90
47 41 5 78 10 82 11 4 0 12 -8 18 -18z m8 -77 c3 -18 -5 -22 -80 -33 -46 -7
-91 -14 -100 -17 -14 -4 -18 1 -18 25 0 30 2 31 43 32 23 0 60 4 82 9 55 11
70 8 73 -16z"/>
</g>
</g>
</svg>