<?xml version="1.0" standalone="no"?>
<!DOCTYPE svg PUBLIC "-//W3C//DTD SVG 20010904//EN"
 "http://www.w3.org/TR/2001/REC-SVG-20010904/DTD/svg10.dtd">
<svg version="1.0" xmlns="http://www.w3.org/2000/svg"
 width="96.000000pt" height="68.000000pt" viewBox="0 0 96.000000 68.000000"
 preserveAspectRatio="xMidYMid meet">
<metadata>
Created by potrace 1.16, written by Peter Selinger 2001-2019
Combined from part_0.svg through part_5.svg with named groups
</metadata>
<g transform="translate(0.000000,68.000000) scale(0.100000,-0.100000)" fill="#000000" stroke="none">
<g id="part-0" class="char-part">
  <path d="M595 594 c-25 -9 -254 -30 -288 -26 -37 4 -38 3 -28 -16 14 -27 14
-137 -1 -202 -10 -43 -9 -53 4 -66 13 -13 22 -14 49 -5 48 15 282 36 362 32
27 -1 24 -104 -5 -161 -22 -43 -25 -45 -65 -43 -33 1 -41 -1 -36 -13 3 -8 9
-14 14 -14 5 0 9 -6 9 -13 0 -20 38 -39 58 -28 51 27 78 80 92 176 5 33 12 72
15 86 10 41 -39 53 -176 44 l-109 -7 0 26 c0 22 5 26 29 26 50 0 121 12 121
21 0 5 -34 9 -76 9 -72 0 -75 1 -72 23 3 19 10 22 53 25 70 3 97 11 89 24 -4
7 -29 9 -70 5 -62 -6 -64 -6 -64 18 0 26 9 30 90 40 58 8 89 19 74 27 -15 9
-58 16 -69 12z m-157 -86 c3 -25 0 -28 -25 -29 -15 0 -38 -2 -50 -5 -19 -3
-23 1 -23 19 0 33 20 48 60 45 30 -3 35 -7 38 -30z m2 -78 c0 -30 0 -30 -56
-30 -52 0 -55 1 -52 23 2 16 12 24 38 28 67 12 70 11 70 -21z m5 -71 c4 -11 5
-22 3 -24 -1 -1 -29 -6 -60 -9 l-58 -7 0 30 c0 31 0 31 54 31 47 0 56 -3 61
-21z"/>
  <path d="M530 254 c0 -7 18 -23 57 -50 30 -21 58 -12 44 15 -14 25 -101 55
-101 35z"/>
  <path d="M169 205 c-24 -54 -22 -80 6 -80 24 0 46 57 38 98 -8 39 -21 33 -44
-18z"/>
  <path d="M420 237 c0 -21 47 -60 64 -54 21 8 20 20 -1 39 -27 24 -63 32 -63
15z"/>
  <path d="M307 200 c19 -33 40 -39 50 -14 7 19 -21 44 -49 44 -18 0 -19 -1 -1
-30z"/>
</g>
<g id="part-1" class="char-part">
  <path d="M525 579 c-27 -5 -94 -11 -148 -12 -83 -2 -96 -4 -90 -17 11 -20 5
-175 -8 -207 -5 -14 -7 -35 -3 -45 5 -17 12 -19 43 -14 91 17 172 25 248 26
78 0 114 13 77 27 -14 5 -151 -4 -299 -20 -20 -2 -22 18 -10 163 1 14 3 33 4
43 1 14 10 17 49 17 48 0 198 16 240 25 13 3 20 10 17 15 -7 12 -51 11 -120
-1z"/>
</g>
<g id="part-2" class="char-part">
  <path d="M454 543 c-16 -3 -20 -10 -16 -33 4 -29 3 -30 -39 -30 -52 0 -84 -15
-56 -26 10 -3 36 -4 57 -1 37 5 40 3 40 -18 0 -27 -17 -35 -71 -35 -21 0 -39
-4 -39 -10 0 -5 24 -10 54 -10 49 0 54 -2 60 -25 10 -38 46 -34 46 5 0 28 3
30 38 30 54 0 112 11 112 21 0 5 -34 9 -75 9 -67 0 -75 2 -75 19 0 20 34 31
94 31 17 0 38 4 45 9 23 15 -30 25 -84 17 -45 -7 -45 -7 -45 23 0 31 -3 33
-46 24z"/>
</g>
<g id="part-3" class="char-part">
  <path d="M657 343 c-13 -13 -7 -21 23 -26 29 -6 30 -8 30 -64 0 -72 -29 -140
-62 -148 -13 -3 -36 -1 -51 4 l-27 10 26 -39 c32 -48 51 -56 83 -32 45 33 62
67 76 150 8 46 19 91 25 102 9 16 6 22 -19 35 -31 15 -92 20 -104 8z"/>
</g>
<g id="part-4" class="char-part">
  <path d="M562 225 c42 -39 68 -45 68 -15 0 22 -46 50 -82 50 -21 -1 -20 -3 14
-35z"/>
  <path d="M170 204 c-24 -55 -25 -68 -6 -83 26 -22 51 38 47 112 -2 31 -20 18
-41 -29z"/>
  <path d="M430 220 c25 -36 47 -47 61 -33 14 14 -20 49 -54 57 l-29 7 22 -31z"/>
  <path d="M290 232 c0 -16 41 -62 56 -62 17 0 19 34 2 48 -20 15 -58 25 -58 14z"/>
</g>
</g>
</svg>