<?xml version="1.0" standalone="no"?>
<!DOCTYPE svg PUBLIC "-//W3C//DTD SVG 20010904//EN"
 "http://www.w3.org/TR/2001/REC-SVG-20010904/DTD/svg10.dtd">
<svg version="1.0" xmlns="http://www.w3.org/2000/svg"
 width="96.000000pt" height="68.000000pt" viewBox="0 0 96.000000 68.000000"
 preserveAspectRatio="xMidYMid meet">
<metadata>
Created by potrace 1.16, written by Peter Selinger 2001-2019
Combined from part_0.svg through part_5.svg with named groups
</metadata>
<g transform="translate(0.000000,68.000000) scale(0.100000,-0.100000)" fill="#000000" stroke="none">
<g id="part-0" class="char-part">
  <path d="M306 558 c-3 -7 -7 -24 -10 -38 -9 -41 -66 -120 -143 -198 -79 -79
-73 -98 12 -37 36 25 51 31 57 22 8 -13 3 -154 -7 -211 -11 -55 15 -57 85 -7
33 22 62 41 66 41 4 0 15 -7 25 -16 19 -17 39 -12 39 10 0 17 -29 42 -58 51
-20 6 -23 4 -18 -12 5 -16 -3 -22 -41 -36 -27 -9 -51 -17 -55 -17 -13 0 -9 78
4 86 6 4 41 8 76 9 l65 2 23 64 c17 46 20 67 12 76 -13 16 -60 17 -128 2 -28
-6 -54 -9 -56 -6 -12 12 23 47 46 47 14 0 48 6 75 14 40 11 46 15 31 21 -10 5
-37 3 -60 -3 -22 -6 -42 -9 -44 -7 -5 5 47 85 55 85 3 0 21 -11 39 -25 38 -29
62 -32 71 -9 7 19 -9 31 -64 45 -24 6 -41 15 -38 19 7 11 -23 40 -41 40 -8 0
-16 -6 -18 -12z m84 -237 c0 -13 -10 -20 -32 -25 -18 -3 -46 -9 -61 -12 -26
-6 -28 -4 -25 17 3 24 29 35 91 38 20 1 27 -4 27 -18z m-10 -60 c0 -25 -4 -27
-68 -36 -52 -7 -54 -7 -50 16 2 19 11 25 38 30 67 12 80 10 80 -10z"/>
  <path d="M595 540 c-3 -5 -1 -11 5 -15 5 -3 10 -42 10 -86 l0 -79 -27 -1 c-16
0 -50 0 -78 1 l-50 2 23 -24 c12 -13 22 -29 22 -35 0 -25 41 -107 48 -96 4 6
21 13 37 15 29 3 30 1 33 -37 3 -59 -5 -65 -86 -67 -40 0 -72 -5 -72 -9 0 -5
11 -16 25 -25 24 -16 32 -15 157 20 109 31 133 35 139 23 32 -57 69 -71 69
-26 0 33 -19 58 -60 79 -50 26 -69 26 -46 1 17 -18 16 -19 -19 -31 -49 -16
-65 -8 -65 35 0 41 23 55 92 55 32 0 38 3 30 13 -9 10 -4 23 20 51 l31 38 -24
20 c-20 15 -34 18 -81 13 l-58 -6 0 43 c0 24 4 57 9 75 7 22 6 35 -2 41 -18
14 -75 23 -82 12z m145 -218 c0 -34 -17 -58 -47 -65 -30 -7 -35 3 -27 52 6 39
9 41 40 41 31 0 34 -3 34 -28z m-130 -28 c0 -42 -1 -44 -29 -44 -22 0 -30 6
-35 24 -3 13 -9 31 -12 39 -4 11 2 16 18 19 59 9 58 9 58 -38z"/>
</g>
<g id="part-1" class="char-part">
  <path d="M309 543 c-32 -81 -52 -114 -104 -173 -31 -36 -71 -77 -88 -92 -36
-31 -30 -35 15 -12 50 26 137 114 180 182 l40 62 41 -30 c47 -35 67 -38 67
-11 0 18 -21 30 -77 46 -13 3 -23 13 -23 20 0 8 -9 19 -20 25 -17 9 -22 7 -31
-17z"/>
</g>
<g id="part-2" class="char-part">
  <path d="M360 158 c29 -54 70 -78 70 -40 0 22 -25 47 -58 57 -22 6 -23 5 -12
-17z"/>
</g>
<g id="part-3" class="char-part">
  <path d="M595 540 c-4 -6 -2 -17 4 -23 6 -6 11 -44 11 -84 l0 -73 -77 0 c-72
0 -75 -1 -60 -17 8 -10 25 -44 37 -76 20 -52 24 -56 46 -51 55 14 59 12 62
-39 3 -39 6 -48 18 -43 9 3 18 6 20 6 2 0 4 20 4 44 0 42 1 44 38 50 20 3 49
6 64 6 20 0 25 4 21 18 -3 11 7 32 23 51 l28 33 -25 20 c-19 15 -35 18 -81 14
l-58 -4 0 48 c0 27 4 60 9 74 7 17 6 27 -3 35 -21 17 -73 24 -81 11z m145
-204 c0 -7 -3 -28 -6 -45 -6 -28 -10 -31 -41 -31 -32 0 -35 2 -29 23 3 12 6
32 6 45 0 19 5 22 35 22 23 0 35 -5 35 -14z m-130 -41 c0 -43 -1 -45 -29 -45
-22 0 -30 6 -35 24 -3 13 -9 31 -12 39 -4 11 2 17 18 20 56 11 58 10 58 -38z"/>
</g>
<g id="part-4" class="char-part">
  <path d="M640 133 c-63 -12 -130 -20 -147 -17 -25 4 -31 2 -27 -9 3 -8 15 -20
27 -26 19 -10 43 -6 146 23 68 20 126 38 128 40 14 13 -25 10 -127 -11z"/>
</g>
<g id="part-5" class="char-part">
  <path d="M766 163 c15 -24 31 -43 36 -43 5 0 7 -4 4 -9 -3 -5 1 -14 9 -21 12
-10 15 -10 15 1 0 11 2 11 10 -1 7 -12 9 -10 7 7 0 12 -5 19 -11 16 -5 -4 -7
1 -3 10 4 11 -4 23 -23 37 -18 13 -30 17 -30 10 0 -7 -9 -2 -21 11 -12 15 -10
8 7 -18z"/>
</g>
</g>
</svg>