<?xml version="1.0" standalone="no"?>
<!DOCTYPE svg PUBLIC "-//W3C//DTD SVG 20010904//EN"
 "http://www.w3.org/TR/2001/REC-SVG-20010904/DTD/svg10.dtd">
<svg version="1.0" xmlns="http://www.w3.org/2000/svg"
 width="96.000000pt" height="68.000000pt" viewBox="0 0 96.000000 68.000000"
 preserveAspectRatio="xMidYMid meet">
<metadata>
Created by potrace 1.16, written by Peter Selinger 2001-2019
Combined from part_0.svg through part_5.svg with named groups
</metadata>
<g transform="translate(0.000000,68.000000) scale(0.100000,-0.100000)" fill="#000000" stroke="none">
<g id="part-0" class="char-part">
  <path d="M438 530 l4 -70 -45 0 c-25 0 -49 -4 -52 -10 -4 -6 13 -10 44 -10
l51 0 0 -35 c0 -19 -3 -34 -7 -34 -26 4 -63 -2 -59 -10 6 -9 14 -9 124 4 69 9
84 25 22 25 -38 0 -40 2 -40 30 0 28 3 30 50 36 63 8 68 29 5 22 -49 -6 -51
-4 -45 76 2 29 -13 46 -40 46 -13 0 -15 -12 -12 -70z"/>
  <path d="M226 543 c4 -21 8 -60 9 -88 l0 -50 -58 -9 c-67 -11 -71 -30 -6 -32
24 -1 48 -2 52 -3 14 -2 -42 -91 -95 -153 -27 -32 -44 -58 -38 -58 24 0 70 31
104 72 l36 42 0 -36 c0 -19 -5 -59 -10 -89 -11 -59 1 -109 26 -109 24 0 34 46
34 157 0 102 1 105 18 90 22 -20 38 -22 45 -4 7 19 -4 34 -36 46 -19 7 -27 18
-27 34 0 21 6 25 41 31 49 8 48 29 -1 34 l-33 3 7 68 c6 66 5 68 -20 79 -47
22 -57 16 -48 -25z"/>
  <path d="M693 468 l2 -92 -48 -8 c-69 -10 -70 -18 -4 -18 l57 0 0 -77 c0 -43
-3 -102 -7 -131 -6 -52 -7 -54 -35 -50 -15 3 -28 1 -28 -3 0 -3 19 -24 42 -45
35 -31 43 -35 46 -21 2 9 8 17 13 17 5 0 9 68 9 159 l0 160 53 3 c64 4 64 23
0 24 -26 0 -48 5 -50 11 -2 6 2 38 10 72 14 59 14 62 -6 76 -12 8 -29 15 -39
15 -15 0 -17 -11 -15 -92z"/>
  <path d="M468 325 c-4 -4 -66 -13 -108 -15 -12 0 -12 -2 -2 -9 8 -4 23 -39 33
-77 11 -38 23 -77 26 -86 5 -15 -1 -18 -41 -18 -51 0 -58 -10 -21 -30 21 -11
30 -11 62 2 21 9 66 26 101 38 65 23 77 33 40 30 -39 -3 -40 -1 -19 29 15 21
17 31 9 33 -10 4 -10 13 0 45 7 22 12 45 12 52 0 11 -81 16 -92 6z m40 -42
c-3 -24 -9 -29 -47 -36 -46 -9 -61 -1 -61 35 0 16 18 22 88 26 20 2 23 -2 20
-25z m-3 -90 c-7 -40 -19 -53 -47 -53 -11 0 -18 7 -18 18 0 11 -9 27 -21 38
l-21 19 24 6 c12 4 38 7 57 8 33 1 33 1 26 -36z"/>
  <path d="M590 267 c0 -14 40 -57 53 -57 9 0 9 32 -1 46 -12 19 -52 27 -52 11z"/>
</g>
<g id="part-1" class="char-part">
  <path d="M238 492 l5 -89 -33 -6 c-18 -4 -43 -7 -56 -7 -13 0 -24 -4 -24 -10
0 -5 23 -10 50 -10 38 0 50 -4 50 -15 0 -21 -44 -89 -99 -155 l-46 -54 44 24
c25 14 58 44 75 67 16 24 31 41 34 39 2 -3 -2 -48 -8 -101 -10 -73 -10 -102
-1 -122 9 -21 14 -23 26 -13 11 9 15 35 16 99 0 47 3 103 7 125 l7 38 19 -21
c24 -27 36 -27 36 0 0 14 -10 24 -30 32 -23 9 -30 18 -30 39 0 23 5 28 35 34
19 3 35 10 35 14 0 10 -26 20 -51 20 -21 0 -23 18 -10 88 8 40 7 44 -20 57
-15 8 -30 15 -32 15 -3 0 -2 -40 1 -88z"/>
</g>
<g id="part-2" class="char-part">
  <path d="M435 533 l0 -68 -42 -6 c-62 -8 -64 -19 -5 -19 51 0 52 -1 52 -29 0
-30 -14 -41 -53 -41 -21 -1 -21 -1 -3 -12 14 -8 32 -8 68 1 27 6 66 11 86 11
27 0 33 3 24 12 -6 6 -27 11 -47 10 -32 -1 -35 1 -35 28 0 28 3 30 50 36 67 9
74 24 11 24 l-50 0 -3 58 c-3 52 -5 57 -28 60 -24 3 -25 1 -25 -65z"/>
</g>
<g id="part-3" class="char-part">
  <path d="M501 185 c-10 -38 -15 -45 -36 -45 -18 0 -25 5 -25 18 0 20 -36 59
-46 50 -3 -4 2 -20 11 -37 20 -40 13 -51 -36 -51 -44 0 -51 -15 -15 -32 21 -9
42 -4 128 27 117 43 128 49 76 43 -44 -5 -43 -5 -22 27 16 25 12 45 -10 45 -8
0 -19 -20 -25 -45z"/>
</g>
<g id="part-4" class="char-part">
  <path d="M586 268 c12 -22 47 -58 56 -58 4 0 8 11 8 23 0 16 -9 28 -25 35 -34
15 -48 15 -39 0z"/>
</g>
</g>
</svg>