<?xml version="1.0" standalone="no"?>
<!DOCTYPE svg PUBLIC "-//W3C//DTD SVG 20010904//EN"
 "http://www.w3.org/TR/2001/REC-SVG-20010904/DTD/svg10.dtd">
<svg version="1.0" xmlns="http://www.w3.org/2000/svg"
 width="96.000000pt" height="68.000000pt" viewBox="0 0 96.000000 68.000000"
 preserveAspectRatio="xMidYMid meet">
<metadata>
Created by potrace 1.16, written by Peter Selinger 2001-2019
Combined from part_0.svg through part_5.svg with named groups
</metadata>
<g transform="translate(0.000000,68.000000) scale(0.100000,-0.100000)" fill="#000000" stroke="none">
<g id="part-0" class="char-part">
  <path d="M590 576 c-29 -28 -131 -76 -160 -76 -30 0 -30 0 -30 -58 0 -77 -17
-168 -41 -214 -11 -21 -16 -38 -11 -38 22 0 52 52 70 118 11 40 22 75 24 78 4
4 150 25 271 40 26 3 45 9 42 15 -9 13 -83 11 -172 -6 -43 -8 -93 -15 -111
-15 -30 0 -32 2 -26 28 4 15 9 30 13 33 5 5 90 32 199 65 17 5 15 31 -4 38
-26 10 -49 7 -64 -8z"/>
  <path d="M174 548 c-7 -11 63 -78 82 -78 21 0 35 35 21 53 -15 20 -94 39 -103
25z"/>
  <path d="M185 387 c-33 -10 -66 -21 -73 -23 -7 -2 -10 -9 -6 -15 4 -7 25 -9
62 -4 51 6 54 5 47 -12 -17 -41 -15 -51 9 -88 45 -66 39 -75 -54 -75 -79 0
-80 0 -69 -21 10 -19 16 -20 88 -14 74 6 86 4 248 -44 98 -29 189 -51 214 -50
51 0 181 39 186 55 3 8 -49 14 -159 18 -90 4 -208 16 -263 27 -141 28 -135 25
-128 59 4 24 -1 35 -25 60 l-30 30 38 42 c22 23 37 45 35 49 -14 21 -63 24
-120 6z"/>
  <path d="M575 324 c-33 -8 -73 -12 -88 -9 -20 3 -27 1 -23 -8 3 -6 13 -38 22
-70 16 -54 19 -57 43 -53 14 3 61 8 104 11 72 6 77 8 77 30 0 12 7 38 15 57
14 34 13 36 -11 47 -31 14 -61 12 -139 -5z m91 -51 c-3 -25 -8 -48 -10 -50 -2
-2 -32 -6 -68 -10 l-65 -6 -8 39 c-4 22 -8 41 -8 44 -2 4 104 24 152 29 11 1
12 -9 7 -46z"/>
</g>
<g id="part-1" class="char-part">
  <path d="M180 544 c0 -18 55 -64 77 -64 26 0 32 30 11 48 -17 13 -88 27 -88
16z"/>
  <path d="M176 379 c-79 -25 -82 -31 -16 -29 74 3 73 4 55 -30 -15 -29 -14 -32
10 -67 14 -21 25 -48 25 -60 0 -22 -4 -23 -75 -23 -41 0 -75 -4 -75 -8 0 -24
27 -31 104 -25 77 5 90 3 255 -47 118 -35 184 -50 206 -47 43 7 178 47 173 52
-2 2 -80 8 -175 14 -155 10 -251 24 -354 51 -33 9 -35 12 -31 41 3 23 -2 37
-23 59 l-28 29 38 42 c36 40 37 43 20 56 -24 16 -36 16 -109 -8z"/>
</g>
<g id="part-2" class="char-part">
  <path d="M595 581 c-32 -31 -133 -81 -164 -81 l-36 0 -1 -93 c-1 -75 -6 -104
-27 -157 -15 -35 -25 -65 -23 -67 1 -1 14 10 28 25 28 29 78 182 78 238 0 32
0 32 110 69 65 22 110 42 110 50 0 23 -56 34 -75 16z"/>
</g>
<g id="part-3" class="char-part">
  <path d="M553 432 c-76 -12 -103 -20 -103 -30 0 -10 8 -13 28 -9 27 5 148 22
235 33 26 3 45 9 42 15 -8 13 -81 9 -202 -9z"/>
</g>
<g id="part-4" class="char-part">
  <path d="M580 324 c-36 -8 -81 -12 -100 -9 -33 7 -34 6 -18 -12 9 -10 22 -40
28 -67 13 -61 19 -70 33 -58 7 5 51 13 99 17 66 5 85 10 82 20 -3 7 4 32 16
55 21 40 21 42 3 56 -22 17 -59 16 -143 -2z m90 -41 c0 -21 -4 -44 -8 -50 -9
-14 -130 -34 -137 -23 -2 4 -7 25 -11 47 l-6 39 59 11 c103 18 103 18 103 -24z"/>
</g>
</g>
</svg>