<?xml version="1.0" standalone="no"?>
<!DOCTYPE svg PUBLIC "-//W3C//DTD SVG 20010904//EN"
 "http://www.w3.org/TR/2001/REC-SVG-20010904/DTD/svg10.dtd">
<svg version="1.0" xmlns="http://www.w3.org/2000/svg"
 width="96.000000pt" height="68.000000pt" viewBox="0 0 96.000000 68.000000"
 preserveAspectRatio="xMidYMid meet">
<metadata>
Created by potrace 1.16, written by Peter Selinger 2001-2019
Combined from part_0.svg through part_5.svg with named groups
</metadata>
<g transform="translate(0.000000,68.000000) scale(0.100000,-0.100000)" fill="#000000" stroke="none">
<g id="part-0" class="char-part">
  <path d="M380 582 c-9 -38 -25 -61 -83 -117 -40 -39 -99 -88 -132 -110 -40
-26 -54 -41 -43 -43 38 -7 188 89 266 172 62 65 49 68 170 -41 122 -110 115
-106 180 -98 122 14 124 20 22 54 -99 33 -293 155 -305 191 -3 10 -19 23 -34
28 -28 10 -29 9 -41 -36z"/>
  <path d="M444 439 c-10 -4 -36 -8 -56 -8 -21 -1 -38 -6 -38 -12 0 -13 139 -3
153 10 12 12 -35 19 -59 10z"/>
  <path d="M425 354 c-33 -7 -77 -15 -97 -17 -47 -4 -58 -14 -27 -22 13 -3 57 1
97 10 41 8 78 12 84 9 5 -4 -7 -24 -28 -45 -21 -21 -35 -41 -32 -44 5 -5 98
46 143 78 19 14 18 15 -12 31 -36 18 -46 18 -128 0z"/>
  <path d="M620 240 c0 -5 4 -10 9 -10 4 0 24 -14 42 -31 56 -50 79 -63 90 -52
20 20 4 48 -41 70 -56 26 -100 37 -100 23z"/>
  <path d="M420 210 c0 -16 54 -60 73 -60 13 0 17 6 15 22 -2 16 -14 25 -45 34
-24 7 -43 9 -43 4z"/>
  <path d="M200 179 c-7 -11 -20 -29 -31 -40 -23 -23 -25 -57 -2 -66 25 -10 63
44 63 90 0 41 -13 48 -30 16z"/>
  <path d="M310 158 c26 -59 81 -104 141 -117 101 -22 244 -6 244 28 0 7 -24 29
-53 47 l-53 34 6 -34 c7 -34 6 -35 -30 -42 -50 -9 -136 1 -174 21 -19 10 -40
33 -53 60 -29 60 -54 62 -28 3z"/>
</g>
<g id="part-1" class="char-part">
  <path d="M394 602 c-23 -80 -84 -148 -210 -238 -35 -25 -64 -48 -64 -50 0 -8
74 26 128 59 30 18 86 65 126 105 l72 72 80 -73 c137 -126 139 -127 197 -126
29 1 66 5 82 9 l30 7 -28 11 c-15 7 -40 15 -55 18 -68 17 -283 152 -300 190
-13 28 -52 38 -58 16z"/>
</g>
<g id="part-2" class="char-part">
  <path d="M390 433 c-19 -3 -39 -9 -45 -15 -13 -14 145 -2 159 12 10 10 -41 11
-114 3z"/>
</g>
<g id="part-3" class="char-part">
  <path d="M382 347 c-71 -13 -100 -23 -93 -30 9 -9 113 2 174 19 27 8 20 -17
-15 -53 -17 -18 -29 -35 -26 -39 7 -6 157 77 158 88 0 11 -57 38 -77 37 -10
-1 -64 -11 -121 -22z"/>
</g>
<g id="part-4" class="char-part">
  <path d="M661 207 c76 -61 98 -72 105 -52 3 8 3 22 0 31 -6 17 -72 48 -125 59
-34 7 -34 7 20 -38z"/>
  <path d="M420 209 c0 -18 49 -59 70 -59 25 0 28 35 3 45 -44 17 -73 23 -73 14z"/>
  <path d="M182 158 c-37 -48 -43 -88 -13 -88 26 0 61 51 61 88 0 46 -13 46 -48
0z"/>
  <path d="M303 168 c7 -18 30 -51 52 -74 33 -34 51 -44 100 -54 97 -20 253 1
242 33 -2 6 -27 25 -56 44 l-52 33 7 -34 c5 -32 4 -36 -21 -42 -43 -11 -150 2
-183 22 -17 10 -42 37 -54 61 -28 52 -52 60 -35 11z"/>
</g>
</g>
</svg>