<?xml version="1.0" standalone="no"?>
<!DOCTYPE svg PUBLIC "-//W3C//DTD SVG 20010904//EN"
 "http://www.w3.org/TR/2001/REC-SVG-20010904/DTD/svg10.dtd">
<svg version="1.0" xmlns="http://www.w3.org/2000/svg"
 width="96.000000pt" height="68.000000pt" viewBox="0 0 96.000000 68.000000"
 preserveAspectRatio="xMidYMid meet">
<metadata>
Created by potrace 1.16, written by Peter Selinger 2001-2019
Combined from part_0.svg through part_5.svg with named groups
</metadata>
<g transform="translate(0.000000,68.000000) scale(0.100000,-0.100000)" fill="#000000" stroke="none">
<g id="part-0" class="char-part">
  <path d="M565 573 c12 -33 33 -168 27 -174 -4 -4 -56 -14 -117 -23 -60 -9
-111 -19 -114 -21 -2 -3 23 -5 57 -5 l62 0 0 -84 c0 -69 -3 -85 -16 -90 -24
-9 -28 -2 -25 53 2 42 -1 49 -20 54 -21 6 -21 4 -16 -55 5 -54 3 -61 -14 -65
-23 -6 -25 -29 -3 -37 13 -5 180 56 194 71 3 3 -12 3 -33 -1 l-38 -7 3 38 c3
36 5 38 41 41 44 4 40 22 -4 22 -29 0 -30 2 -27 38 3 36 5 37 44 40 l40 3 18
-75 c23 -97 55 -161 111 -219 34 -36 52 -47 75 -47 16 0 30 3 30 8 -1 4 -7 34
-14 67 l-13 60 -8 -37 c-10 -52 -36 -50 -74 6 -33 47 -81 179 -81 220 0 25 3
26 54 26 55 0 80 12 50 24 -9 3 -38 6 -65 6 l-49 0 0 79 0 79 -31 11 c-44 15
-52 14 -44 -6z"/>
  <path d="M270 530 c-14 -4 -49 -8 -79 -9 -51 -1 -53 -2 -46 -23 5 -13 9 -79 9
-148 1 -113 3 -125 19 -124 37 3 6 -73 -48 -118 -11 -9 -17 -19 -14 -22 7 -7
137 104 138 117 1 4 -9 12 -21 17 -18 7 -12 9 30 9 29 1 52 -3 52 -9 0 -7 6
-7 19 -1 16 9 19 26 23 148 5 128 4 139 -14 156 -22 18 -30 19 -68 7z m24 -46
c14 -37 6 -52 -30 -58 -19 -4 -42 -10 -50 -13 -11 -4 -14 4 -14 35 0 43 7 48
61 51 16 1 29 -5 33 -15z m6 -108 c0 -27 -16 -36 -66 -36 -29 0 -34 3 -34 24
0 19 6 26 28 29 65 10 72 8 72 -17z m2 -86 c3 -17 2 -32 0 -35 -3 -3 -29 -5
-59 -5 -52 0 -53 1 -53 29 0 31 10 37 76 40 28 1 32 -3 36 -29z"/>
  <path d="M712 478 c30 -39 58 -48 58 -20 0 25 -31 52 -60 52 l-23 0 25 -32z"/>
  <path d="M450 455 c-42 -9 -51 -14 -36 -20 22 -10 126 6 129 20 3 14 -30 14
-93 0z"/>
  <path d="M280 196 c0 -22 41 -69 52 -58 12 12 -6 44 -33 61 -15 9 -19 8 -19
-3z"/>
</g>
<g id="part-1" class="char-part">
  <path d="M240 520 c-25 -4 -57 -5 -72 -3 -28 6 -39 -9 -17 -23 8 -5 10 -38 6
-110 -6 -98 -5 -104 14 -104 12 0 19 7 19 20 0 18 7 20 55 20 48 0 55 -2 55
-20 0 -15 7 -20 25 -20 25 0 25 1 25 93 0 50 3 101 6 113 4 15 -1 23 -21 32
-28 13 -29 13 -95 2z m58 -62 c3 -31 0 -38 -15 -38 -10 0 -35 -3 -55 -6 l-38
-7 0 41 c0 46 8 52 65 49 39 -2 40 -3 43 -39z m2 -88 c0 -28 -3 -30 -40 -31
-22 -1 -46 -2 -52 -3 -14 -1 -22 28 -14 50 4 9 21 14 56 14 49 0 50 -1 50 -30z"/>
</g>
<g id="part-2" class="char-part">
  <path d="M191 199 c-5 -15 -28 -48 -52 -73 -72 -80 -11 -48 73 37 40 40 41 51
9 60 -15 4 -22 -2 -30 -24z"/>
  <path d="M291 170 c24 -42 49 -53 49 -21 0 19 -43 61 -62 61 -5 0 1 -18 13
-40z"/>
</g>
<g id="part-3" class="char-part">
  <path d="M453 457 c-64 -13 -69 -27 -10 -27 59 0 125 19 106 31 -16 10 -25 10
-96 -4z"/>
</g>
<g id="part-4" class="char-part">
  <path d="M569 583 c-1 -5 0 -12 1 -18 2 -10 30 -169 30 -171 0 -1 -48 -7 -107
-14 -129 -15 -173 -34 -63 -26 41 3 99 8 128 12 39 5 52 3 52 -7 0 -7 10 -48
21 -92 35 -128 120 -237 187 -237 25 0 26 5 8 80 l-13 55 -7 -37 c-10 -52 -25
-57 -58 -18 -47 57 -98 184 -98 248 0 20 5 22 54 22 30 0 58 4 61 10 9 14 -40
23 -85 16 -39 -6 -40 -6 -42 26 -1 18 -1 56 1 84 2 50 1 52 -30 63 -38 13 -39
13 -40 4z"/>
</g>
<g id="part-5" class="char-part">
  <path d="M455 160 c-39 -26 -26 -26 22 0 21 11 31 20 23 20 -8 0 -28 -9 -45
-20z"/>
  <path d="M382 153 c-13 -5 -7 -23 9 -23 6 0 7 6 3 13 -5 8 -2 8 9 -2 15 -12
17 -11 17 3 0 16 -13 19 -38 9z"/>
</g>
</g>
</svg>