<?xml version="1.0" standalone="no"?>
<!DOCTYPE svg PUBLIC "-//W3C//DTD SVG 20010904//EN"
 "http://www.w3.org/TR/2001/REC-SVG-20010904/DTD/svg10.dtd">
<svg version="1.0" xmlns="http://www.w3.org/2000/svg"
 width="96.000000pt" height="68.000000pt" viewBox="0 0 96.000000 68.000000"
 preserveAspectRatio="xMidYMid meet">
<metadata>
Created by potrace 1.16, written by Peter Selinger 2001-2019
Combined from part_0.svg through part_5.svg with named groups
</metadata>
<g transform="translate(0.000000,68.000000) scale(0.100000,-0.100000)" fill="#000000" stroke="none">
<g id="part-0" class="char-part">
  <path d="M555 575 c-27 -12 -66 -30 -85 -39 l-35 -16 43 6 c44 6 48 2 36 -42
-5 -18 -16 -23 -60 -29 -62 -7 -65 -29 -3 -23 52 5 51 -13 -5 -68 -40 -41 -47
-44 -96 -44 l-52 0 6 31 c3 17 6 35 6 40 0 5 10 9 23 9 34 0 55 16 40 31 -10
10 -26 10 -70 2 -32 -6 -59 -10 -60 -9 0 0 15 25 35 55 26 39 33 57 26 69 -14
21 -54 35 -58 19 -21 -75 -36 -108 -73 -160 -46 -67 -43 -83 10 -43 47 36 65
34 73 -9 3 -20 4 -38 2 -41 -3 -2 -41 -11 -86 -20 -93 -19 -101 -40 -13 -31
31 3 65 9 75 13 49 19 -23 -114 -82 -151 -41 -26 -41 -40 1 -19 55 29 88 57
110 97 l21 37 32 -31 c18 -17 37 -28 43 -25 22 14 10 36 -29 56 -22 11 -40 25
-40 30 0 13 35 30 63 30 13 0 45 11 71 25 26 14 51 25 55 25 4 0 12 -15 18
-32 10 -35 10 -35 96 -23 35 5 47 10 47 24 0 9 5 22 12 29 9 10 8 16 -4 29
-15 14 -23 15 -56 5 -44 -13 -96 -16 -90 -4 26 54 44 72 68 67 14 -4 27 -10
30 -14 3 -3 37 -28 75 -54 71 -48 120 -59 155 -37 19 12 15 14 -50 29 -30 7
-84 30 -120 50 l-65 36 35 2 c99 8 140 15 134 25 -7 11 -153 5 -187 -7 -15 -6
-17 -2 -15 26 3 39 13 49 48 49 14 0 32 5 40 10 13 8 12 11 -5 24 -26 20 -30
19 -90 -9z m55 -234 c0 -11 -9 -21 -22 -25 -26 -7 -68 -8 -68 -2 0 2 -3 11 -6
19 -6 17 12 24 64 26 25 1 32 -3 32 -18z"/>
  <path d="M560 250 c-69 -10 -136 -16 -149 -13 -21 5 -23 3 -17 -13 4 -10 10
-56 13 -101 5 -63 10 -83 20 -83 12 0 14 17 11 85 -2 69 0 86 12 90 28 8 184
25 232 25 57 0 63 -13 51 -100 -8 -54 -9 -55 -41 -55 -37 0 -37 1 -15 -36 21
-36 56 -38 78 -6 8 13 22 63 30 111 15 83 14 89 -2 102 -23 17 -67 16 -223 -6z"/>
  <path d="M585 200 c-11 -5 -39 -9 -62 -9 -24 -1 -43 -5 -43 -11 0 -5 5 -10 10
-10 6 0 10 -9 10 -19 0 -37 11 -50 38 -46 15 2 44 7 65 10 26 4 37 11 37 23 0
10 6 24 13 31 10 10 8 15 -7 27 -22 16 -32 16 -61 4z m23 -42 c-2 -19 -10 -24
-45 -26 -37 -3 -43 0 -43 16 0 27 8 32 52 32 35 0 39 -2 36 -22z"/>
</g>
<g id="part-1" class="char-part">
  <path d="M236 517 c-8 -29 -34 -79 -56 -111 -23 -32 -39 -60 -37 -63 3 -2 17
7 33 20 20 17 48 26 89 31 74 8 105 16 105 26 0 16 -28 18 -84 5 l-57 -14 17
27 c10 15 29 44 43 66 24 37 25 39 6 52 -32 23 -43 16 -59 -39z"/>
</g>
<g id="part-2" class="char-part">
  <path d="M269 393 c-13 -3 -16 -12 -12 -42 6 -43 5 -44 -72 -55 -77 -12 -95
-18 -95 -28 0 -12 111 -6 144 8 17 6 18 4 12 -22 -12 -47 -45 -92 -92 -126
-24 -17 -42 -33 -40 -36 3 -2 28 9 57 25 46 24 100 81 112 116 2 7 16 -2 31
-20 33 -39 59 -44 54 -10 -2 13 -16 29 -38 39 -48 24 -44 41 13 52 60 12 61
26 2 26 l-46 0 3 36 c3 37 -4 45 -33 37z"/>
</g>
<g id="part-3" class="char-part">
  <path d="M586 591 c-4 -5 -38 -21 -77 -36 -38 -15 -68 -29 -65 -32 2 -3 52 5
111 16 59 12 110 21 114 21 3 1 -5 10 -18 20 -25 21 -56 26 -65 11z"/>
</g>
<g id="part-4" class="char-part">
  <path d="M539 533 c-10 -2 -20 -18 -23 -38 -6 -32 -8 -33 -67 -40 -69 -8 -69
-30 0 -23 54 5 54 -12 -3 -68 -44 -44 -42 -58 4 -27 31 21 57 49 78 86 9 15
22 27 28 27 7 0 52 -27 101 -60 90 -61 126 -71 178 -51 17 7 12 10 -25 20 -25
7 -54 15 -65 18 -11 3 -49 22 -85 42 l-65 36 84 7 c46 4 86 9 89 12 11 12 -44
22 -82 16 -23 -4 -60 -10 -83 -14 l-43 -6 6 29 c6 31 -1 40 -27 34z"/>
</g>
<g id="part-5" class="char-part">
  <path d="M691 259 c-64 -12 -64 -22 0 -17 l56 4 -4 -70 c-3 -39 -11 -82 -19
-96 -7 -14 -13 -20 -14 -15 0 11 -40 15 -40 4 0 -12 27 -29 35 -21 5 4 5 2 1
-5 -3 -6 -1 -15 5 -19 18 -11 61 46 55 72 -3 12 -2 24 3 26 5 2 11 31 14 65 3
50 1 62 -12 67 -9 3 -20 8 -26 10 -5 2 -30 0 -54 -5z"/>
  <path d="M400 215 c0 -13 4 -26 8 -29 5 -3 7 -32 5 -66 -2 -36 1 -60 7 -60 5
0 10 6 11 13 0 6 2 20 4 30 2 9 0 17 -3 17 -4 0 -6 24 -5 54 1 39 -2 56 -13
60 -10 4 -14 -2 -14 -19z"/>
  <path d="M518 233 c7 -3 16 -2 19 1 4 3 -2 6 -13 5 -11 0 -14 -3 -6 -6z"/>
</g>
</g>
</svg>