<?xml version="1.0" standalone="no"?>
<!DOCTYPE svg PUBLIC "-//W3C//DTD SVG 20010904//EN"
 "http://www.w3.org/TR/2001/REC-SVG-20010904/DTD/svg10.dtd">
<svg version="1.0" xmlns="http://www.w3.org/2000/svg"
 width="96.000000pt" height="68.000000pt" viewBox="0 0 96.000000 68.000000"
 preserveAspectRatio="xMidYMid meet">
<metadata>
Created by potrace 1.16, written by Peter Selinger 2001-2019
Combined from part_0.svg through part_5.svg with named groups
</metadata>
<g transform="translate(0.000000,68.000000) scale(0.100000,-0.100000)" fill="#000000" stroke="none">
<g id="part-0" class="char-part">
  <path d="M419 603 c-1 -5 0 -34 1 -65 l2 -58 -36 0 c-20 0 -36 -4 -36 -10 0
-5 16 -10 35 -10 34 0 35 -1 35 -40 l0 -39 -60 -7 c-33 -4 -60 -10 -60 -14 0
-14 39 -18 81 -9 96 22 83 6 -106 -128 -44 -31 -47 -34 -20 -28 17 3 51 20 76
36 25 16 49 29 54 29 4 0 5 -31 2 -68 -5 -67 5 -109 21 -86 4 6 24 13 45 16
30 3 41 0 48 -14 13 -25 38 -23 48 5 4 12 11 56 14 98 8 95 0 105 -73 95 -28
-4 -50 -3 -49 1 0 4 18 23 40 42 28 24 52 35 84 39 52 5 71 22 26 22 -17 0
-31 4 -31 10 0 5 18 28 40 51 38 40 39 43 23 61 -23 26 -31 23 -53 -24 -24
-52 -86 -122 -100 -113 -6 3 -10 21 -10 39 0 31 3 34 35 40 45 9 45 26 0 26
l-35 0 7 46 c4 34 2 48 -8 55 -17 11 -39 12 -40 2z m92 -360 c1 -47 -1 -86 -5
-90 -1 -1 -21 -5 -44 -8 -41 -5 -42 -4 -42 25 0 28 3 30 34 30 19 0 38 5 42
12 5 8 -5 9 -34 5 -42 -5 -42 -5 -42 28 0 29 4 34 28 38 63 9 62 10 63 -40z"/>
  <path d="M736 484 c-30 -11 -47 -12 -69 -4 -17 5 -30 10 -31 10 -4 0 6 -458
10 -469 4 -11 7 -12 17 -2 8 8 14 75 17 216 3 116 9 208 15 214 9 9 44 15 72
12 10 -1 8 -15 -7 -53 -26 -68 -26 -70 10 -108 50 -53 35 -93 -26 -70 -26 10
-24 7 16 -29 25 -22 50 -40 56 -41 21 0 34 26 34 72 0 46 -2 50 -45 80 -25 18
-45 35 -45 39 0 4 23 34 50 65 28 32 47 61 42 66 -16 16 -76 17 -116 2z"/>
  <path d="M190 419 c-14 -6 -42 -8 -64 -4 -37 5 -38 5 -31 -17 4 -13 13 -52 19
-88 14 -72 9 -70 112 -55 37 5 41 8 37 29 -3 13 5 45 16 71 16 36 18 51 10 61
-13 16 -63 17 -99 3z m30 -61 c0 -57 -10 -78 -36 -78 -16 0 -25 7 -28 23 -17
81 -15 85 37 86 24 1 27 -2 27 -31z"/>
</g>
<g id="part-1" class="char-part">
  <path d="M215 420 c-11 -5 -43 -9 -71 -9 l-52 -1 14 -42 c7 -24 17 -61 21 -83
6 -27 13 -39 23 -37 8 2 36 6 62 9 26 3 45 10 42 15 -6 9 10 68 29 107 10 19
8 25 -8 37 -21 16 -31 16 -60 4z m14 -47 c-3 -62 -13 -86 -41 -94 -33 -9 -34
-8 -43 58 l-7 52 34 4 c18 2 39 5 46 5 7 1 12 -9 11 -25z"/>
</g>
<g id="part-2" class="char-part">
  <path d="M414 548 c1 -63 1 -63 -29 -66 -49 -6 -54 -22 -7 -22 41 0 42 -1 42
-35 0 -28 4 -35 19 -35 16 0 20 8 23 37 3 33 7 38 38 46 19 5 37 11 40 13 10
11 -26 22 -51 17 -27 -5 -27 -5 -25 48 1 51 0 54 -25 57 -26 3 -26 2 -25 -60z"/>
</g>
<g id="part-3" class="char-part">
  <path d="M461 303 c-56 -11 -68 -29 -74 -108 -4 -41 -4 -81 -1 -90 8 -19 24
-20 24 0 0 21 85 21 94 0 8 -23 35 -18 45 8 5 12 10 60 12 107 l4 85 -40 1
c-22 1 -51 0 -64 -3z m49 -48 c0 -32 -2 -35 -29 -35 -16 0 -36 -3 -45 -6 -13
-5 -16 1 -16 29 0 31 3 36 28 40 61 9 62 9 62 -28z m0 -75 c0 -19 -5 -30 -14
-30 -7 0 -28 -3 -45 -6 -29 -6 -31 -5 -31 24 0 28 3 31 38 35 20 2 40 4 45 5
4 1 7 -11 7 -28z"/>
</g>
<g id="part-4" class="char-part">
  <path d="M633 459 c4 -19 7 -125 8 -237 1 -190 7 -230 25 -200 10 15 23 440
15 449 -3 4 -17 10 -30 14 -22 7 -23 5 -18 -26z"/>
</g>
</g>
</svg>