<?xml version="1.0" standalone="no"?>
<!DOCTYPE svg PUBLIC "-//W3C//DTD SVG 20010904//EN"
 "http://www.w3.org/TR/2001/REC-SVG-20010904/DTD/svg10.dtd">
<svg version="1.0" xmlns="http://www.w3.org/2000/svg"
 width="96.000000pt" height="68.000000pt" viewBox="0 0 96.000000 68.000000"
 preserveAspectRatio="xMidYMid meet">
<metadata>
Created by potrace 1.16, written by Peter Selinger 2001-2019
Combined from part_0.svg through part_5.svg with named groups
</metadata>
<g transform="translate(0.000000,68.000000) scale(0.100000,-0.100000)" fill="#000000" stroke="none">
<g id="part-0" class="char-part">
  <path d="M563 576 c3 -8 7 -54 8 -103 l2 -88 -54 -3 -54 -3 -1 -87 c-1 -48 -8
-113 -17 -146 -12 -44 -13 -64 -5 -82 6 -14 16 -23 22 -21 14 5 34 72 35 115
1 39 2 39 111 47 l85 6 -4 -53 c-4 -66 -14 -79 -54 -72 l-32 5 39 -35 c22 -20
43 -36 47 -36 5 0 17 10 29 22 18 20 20 35 20 157 0 75 4 142 9 150 14 22 2
39 -33 51 -23 7 -41 7 -60 0 -15 -5 -30 -10 -33 -10 -3 0 -3 42 0 94 6 91 6
94 -16 100 -36 9 -50 7 -44 -8z m127 -236 c0 -28 -3 -30 -37 -30 -21 0 -62 -3
-90 -6 -52 -7 -53 -6 -53 19 0 20 6 28 23 31 12 3 31 7 42 9 11 3 41 5 68 6
46 1 47 0 47 -29z m0 -80 c0 -28 -3 -30 -37 -30 -21 0 -62 -3 -90 -6 l-53 -7
0 31 0 31 68 4 c37 2 77 4 90 5 18 2 22 -3 22 -28z"/>
  <path d="M272 532 c-6 -20 -34 -62 -62 -92 -71 -77 -61 -98 40 -76 l35 7 -48
-45 c-27 -25 -52 -46 -58 -46 -15 0 -10 -30 6 -36 9 -4 37 3 63 14 61 26 122
38 122 23 0 -6 7 -11 15 -11 23 0 18 37 -7 54 -29 20 -40 20 -36 0 2 -12 -10
-20 -42 -30 -91 -28 -87 -19 49 94 55 46 62 65 31 82 -17 9 -22 5 -40 -30 -19
-38 -23 -40 -66 -40 l-45 0 47 55 c26 30 51 55 55 55 4 0 10 7 13 16 8 22 -11
44 -39 44 -17 0 -24 -9 -33 -38z"/>
  <path d="M700 490 c-13 -27 -28 -50 -33 -50 -6 0 -8 -3 -4 -6 3 -4 25 5 49 19
77 47 74 43 54 66 -28 31 -40 26 -66 -29z"/>
  <path d="M430 482 c0 -13 40 -43 50 -37 6 3 7 -1 4 -9 -4 -11 0 -16 15 -16 35
0 26 35 -13 54 -37 17 -56 20 -56 8z"/>
  <path d="M350 237 c0 -16 32 -47 48 -47 21 0 13 27 -13 44 -30 19 -35 20 -35
3z"/>
  <path d="M260 190 c26 -37 39 -45 51 -33 14 14 1 39 -27 52 -40 18 -47 13 -24
-19z"/>
  <path d="M154 186 c-8 -20 27 -81 46 -81 27 0 22 33 -9 66 -25 26 -32 29 -37
15z"/>
</g>
<g id="part-1" class="char-part">
  <path d="M284 553 c-15 -48 -42 -92 -83 -130 -40 -38 -44 -45 -31 -57 13 -12
23 -13 62 -2 61 15 71 26 24 26 -35 0 -36 1 -23 20 8 12 36 44 62 72 39 40 46
54 38 67 -15 23 -42 26 -49 4z"/>
</g>
<g id="part-2" class="char-part">
  <path d="M356 220 c22 -36 43 -45 51 -23 7 18 -29 53 -54 53 -12 0 -11 -5 3
-30z"/>
  <path d="M249 203 c23 -40 41 -55 56 -50 20 8 19 23 -5 47 -26 26 -65 28 -51
3z"/>
  <path d="M147 173 c12 -33 44 -73 59 -73 21 0 17 33 -7 64 -24 30 -62 37 -52
9z"/>
</g>
<g id="part-3" class="char-part">
  <path d="M564 568 c3 -13 6 -58 6 -100 0 -75 1 -78 24 -78 22 0 23 4 29 92 6
99 3 108 -42 108 -19 0 -22 -4 -17 -22z"/>
  <path d="M715 518 c-4 -13 -19 -38 -33 -57 -14 -18 -21 -32 -16 -30 48 21 114
62 114 71 0 13 -30 37 -47 38 -6 0 -15 -10 -18 -22z"/>
  <path d="M430 484 c0 -16 54 -64 72 -64 21 0 24 32 5 49 -18 14 -77 26 -77 15z"/>
</g>
<g id="part-4" class="char-part">
  <path d="M605 389 c-44 -8 -93 -14 -110 -11 l-30 4 -1 -94 c-1 -51 -8 -116
-16 -144 -14 -49 -8 -104 11 -104 13 0 32 52 38 103 3 27 11 50 17 52 6 2 48
6 94 10 l82 6 0 -53 c0 -70 -9 -82 -51 -74 l-34 7 39 -36 c46 -41 49 -42 76
-15 18 18 20 33 20 156 0 79 5 144 11 156 24 44 -37 60 -146 37z m85 -48 l0
-28 -86 -7 c-47 -4 -88 -5 -91 -2 -3 3 -3 16 1 30 7 27 23 31 124 34 51 2 52
1 52 -27z m0 -81 c0 -28 -3 -30 -37 -30 -21 0 -62 -3 -90 -6 l-53 -7 0 31 0
31 68 4 c37 2 77 4 90 5 18 2 22 -3 22 -28z"/>
</g>
</g>
</svg>