<?xml version="1.0" standalone="no"?>
<!DOCTYPE svg PUBLIC "-//W3C//DTD SVG 20010904//EN"
 "http://www.w3.org/TR/2001/REC-SVG-20010904/DTD/svg10.dtd">
<svg version="1.0" xmlns="http://www.w3.org/2000/svg"
 width="96.000000pt" height="68.000000pt" viewBox="0 0 96.000000 68.000000"
 preserveAspectRatio="xMidYMid meet">
<metadata>
Created by potrace 1.16, written by Peter Selinger 2001-2019
Combined from part_0.svg through part_5.svg with named groups
</metadata>
<g transform="translate(0.000000,68.000000) scale(0.100000,-0.100000)" fill="#000000" stroke="none">
<g id="part-0" class="char-part">
  <path d="M274 568 c4 -13 10 -51 13 -84 l6 -62 -29 -5 c-16 -3 -50 -9 -77 -12
-65 -9 -49 -25 24 -25 41 0 59 -4 59 -13 0 -20 -38 -71 -114 -154 -27 -29 -44
-53 -38 -53 27 0 61 21 110 69 59 57 58 57 42 -63 -12 -79 -4 -116 25 -116 26
0 35 37 35 146 l0 108 28 -27 c36 -35 52 -34 52 1 0 24 -7 32 -40 47 -30 14
-40 24 -40 42 0 16 6 23 19 23 11 0 32 5 48 11 22 8 24 12 13 19 -8 6 -28 10
-44 10 l-29 0 7 69 c6 63 5 71 -13 80 -11 6 -30 11 -42 11 -17 0 -20 -4 -15
-22z"/>
  <path d="M560 573 c0 -17 47 -73 61 -73 28 0 31 29 4 56 -22 22 -65 33 -65 17z"/>
  <path d="M719 496 c-2 -2 -56 -11 -119 -20 -168 -24 -177 -26 -156 -38 10 -5
40 -7 68 -4 48 6 49 6 42 -16 -8 -29 -35 -66 -67 -96 -36 -33 -26 -66 17 -58
76 16 106 18 106 9 0 -14 -54 -60 -130 -111 -51 -35 -59 -43 -35 -37 36 7 119
56 161 93 37 34 144 160 144 171 0 10 -58 36 -65 30 -2 -3 -6 -18 -9 -34 -3
-16 -14 -41 -24 -55 -16 -21 -28 -25 -82 -28 l-62 -3 51 59 c35 40 49 64 45
76 -5 13 1 16 35 17 23 1 46 3 51 4 6 1 31 3 58 4 57 2 85 16 62 31 -15 9 -82
14 -91 6z"/>
  <path d="M720 261 c0 -39 -66 -106 -150 -154 -36 -20 -59 -37 -53 -37 22 0
141 51 154 66 18 22 33 17 80 -26 47 -42 64 -49 72 -26 9 22 -19 51 -62 66
-23 7 -41 17 -41 22 0 4 18 25 41 45 l41 37 -22 18 c-35 28 -60 24 -60 -11z"/>
</g>
<g id="part-1" class="char-part">
  <path d="M276 573 c5 -10 9 -49 9 -88 l0 -70 -62 -8 c-83 -11 -85 -32 -3 -24
46 5 60 4 60 -6 0 -24 -58 -104 -115 -161 -32 -31 -54 -56 -51 -56 24 0 91 47
131 92 l47 53 -5 -35 c-4 -19 -9 -71 -13 -115 -5 -66 -3 -83 9 -93 13 -11 18
-9 31 10 12 17 16 49 16 133 l1 110 22 -28 c23 -28 57 -37 57 -14 0 20 -13 33
-48 51 -27 14 -33 22 -30 44 2 22 9 28 36 32 45 7 45 24 -1 28 l-38 3 6 47 c4
26 9 54 11 64 5 19 -31 48 -59 48 -15 0 -17 -4 -11 -17z"/>
</g>
<g id="part-2" class="char-part">
  <path d="M550 586 c0 -17 45 -76 62 -82 32 -10 44 11 24 41 -19 29 -86 60 -86
41z"/>
  <path d="M588 476 c-81 -12 -151 -25 -154 -29 -13 -13 28 -20 79 -13 48 6 306
36 316 36 3 0 -4 7 -15 15 -24 18 -47 17 -226 -9z"/>
</g>
<g id="part-3" class="char-part">
  <path d="M552 411 c-6 -16 -29 -50 -51 -74 -63 -68 -54 -85 37 -67 96 19 102
25 35 30 l-62 5 49 55 c52 58 57 73 23 78 -15 2 -23 -5 -31 -27z"/>
</g>
<g id="part-4" class="char-part">
  <path d="M720 259 c0 -39 -71 -111 -155 -156 -33 -18 -55 -33 -48 -33 21 0
113 39 149 64 l35 23 47 -43 c50 -46 66 -53 75 -30 9 22 -19 51 -62 66 -23 7
-41 16 -41 20 0 3 16 21 35 40 40 39 43 55 16 70 -36 19 -51 12 -51 -21z"/>
</g>
</g>
</svg>