<?xml version="1.0" standalone="no"?>
<!DOCTYPE svg PUBLIC "-//W3C//DTD SVG 20010904//EN"
 "http://www.w3.org/TR/2001/REC-SVG-20010904/DTD/svg10.dtd">
<svg version="1.0" xmlns="http://www.w3.org/2000/svg"
 width="96.000000pt" height="68.000000pt" viewBox="0 0 96.000000 68.000000"
 preserveAspectRatio="xMidYMid meet">
<metadata>
Created by potrace 1.16, written by Peter Selinger 2001-2019
Combined from part_0.svg through part_5.svg with named groups
</metadata>
<g transform="translate(0.000000,68.000000) scale(0.100000,-0.100000)" fill="#000000" stroke="none">
<g id="part-0" class="char-part">
  <path d="M548 547 c4 -78 -15 -131 -58 -155 -16 -9 -30 -20 -30 -24 0 -14 58
14 91 42 l32 30 33 -25 c18 -14 40 -25 48 -25 25 0 18 29 -9 40 -14 6 -36 14
-50 20 -43 17 -17 45 55 59 52 10 59 15 49 27 -16 19 -38 18 -74 -6 -16 -11
-33 -20 -36 -20 -4 0 -3 19 1 43 5 23 7 43 6 44 -1 2 -16 5 -32 9 l-29 6 3
-65z"/>
  <path d="M327 538 c6 -73 -16 -130 -63 -167 -24 -19 -25 -21 -6 -21 18 0 76
40 94 64 3 5 18 -1 33 -13 36 -28 57 -27 53 2 -2 15 -13 25 -35 32 -18 5 -33
15 -33 22 0 15 36 39 73 48 32 8 35 20 6 35 -16 9 -24 8 -38 -4 -26 -24 -32
-20 -29 22 3 35 1 37 -28 40 l-32 3 5 -63z"/>
  <path d="M237 486 c22 -31 51 -42 66 -27 20 20 -6 46 -47 49 l-38 3 19 -25z"/>
  <path d="M472 478 c3 -7 13 -15 22 -16 12 -3 17 1 14 10 -3 7 -13 15 -22 16
-12 3 -17 -1 -14 -10z"/>
  <path d="M555 354 c-176 -15 -324 -20 -345 -10 -10 4 -22 -6 -37 -33 -26 -45
-29 -66 -11 -77 11 -7 58 42 58 61 0 11 468 50 478 40 3 -3 0 -17 -7 -31 -11
-25 -10 -26 11 -21 13 3 40 9 61 12 42 8 47 23 13 47 -35 25 -57 27 -221 12z"/>
  <path d="M425 279 c-33 -4 -73 -6 -88 -3 l-28 6 21 -34 c11 -18 20 -41 20 -51
0 -15 5 -17 30 -12 23 5 32 3 36 -10 12 -29 -21 -49 -78 -48 -41 1 -49 -2 -37
-11 9 -6 19 -22 23 -36 17 -60 29 -80 40 -71 6 5 66 13 133 17 68 4 120 10
118 14 -3 4 7 24 21 45 24 35 24 38 7 51 -17 14 -98 13 -175 -2 -29 -6 -40 12
-14 22 8 3 12 12 9 20 -4 11 6 14 46 14 44 0 53 3 61 23 6 12 16 30 22 40 26
36 -32 45 -167 26z m115 -29 c0 -27 -36 -40 -111 -40 -46 0 -59 3 -59 15 0 8
0 18 0 23 -1 9 53 19 118 21 46 1 52 -1 52 -19z m45 -130 c4 -6 4 -23 0 -39
l-6 -29 -105 -7 c-58 -4 -106 -6 -108 -4 -2 2 -7 18 -10 35 l-7 31 98 10 c54
6 106 11 115 12 9 0 20 -4 23 -9z"/>
</g>
<g id="part-1" class="char-part">
  <path d="M328 531 c4 -76 -7 -108 -53 -154 -15 -15 -23 -27 -18 -27 12 0 88
54 98 70 4 7 17 1 37 -15 21 -18 34 -23 41 -16 14 14 -6 37 -38 45 -18 5 -25
13 -25 29 0 19 9 26 46 38 25 8 45 19 45 24 -1 17 -47 17 -61 1 -21 -26 -29
-18 -23 20 6 37 -5 53 -37 54 -12 0 -14 -13 -12 -69z"/>
  <path d="M240 502 c0 -5 11 -19 26 -32 20 -20 27 -22 34 -11 12 20 2 38 -23
45 -30 8 -37 7 -37 -2z"/>
</g>
<g id="part-2" class="char-part">
  <path d="M548 547 c5 -72 -12 -117 -56 -154 -18 -15 -22 -23 -12 -23 13 0 45
18 91 51 13 10 24 7 55 -15 47 -32 56 -33 52 -3 -2 16 -15 26 -48 37 -34 11
-45 19 -42 32 3 16 20 23 105 42 24 6 27 9 17 21 -14 17 -56 20 -65 5 -3 -5
-16 -15 -27 -21 -20 -11 -21 -9 -16 34 6 47 -1 57 -41 57 -15 0 -16 -9 -13
-63z"/>
  <path d="M478 468 c19 -19 24 -21 32 -8 12 20 3 30 -28 30 l-26 0 22 -22z"/>
</g>
<g id="part-3" class="char-part">
  <path d="M560 354 c-196 -17 -347 -18 -352 -2 -6 17 -58 -74 -58 -100 0 -36
33 -26 55 16 l20 37 230 18 c127 9 236 15 244 12 11 -4 10 -9 -4 -25 -10 -11
-16 -22 -14 -24 9 -9 119 17 119 27 0 15 -62 57 -81 56 -8 -1 -79 -8 -159 -15z"/>
</g>
<g id="part-4" class="char-part">
  <path d="M420 279 c-36 -5 -75 -7 -87 -4 l-21 5 19 -40 c10 -21 19 -43 19 -48
0 -6 29 -8 68 -5 115 7 152 14 152 27 0 7 9 21 20 31 19 17 19 19 2 31 -19 15
-75 16 -172 3z m120 -28 c0 -27 -9 -31 -91 -40 -73 -8 -80 -5 -80 34 0 12 49
22 119 24 45 1 52 -1 52 -18z"/>
</g>
<g id="part-5" class="char-part">
  <path d="M611 132 c-20 -3 -22 -8 -17 -32 3 -16 1 -32 -4 -35 -15 -9 -12 -25
5 -25 8 0 15 5 15 11 0 6 10 24 21 41 24 32 17 46 -20 40z"/>
  <path d="M443 123 c9 -2 23 -2 30 0 6 3 -1 5 -18 5 -16 0 -22 -2 -12 -5z"/>
  <path d="M317 104 c3 -9 9 -11 12 -6 3 5 15 12 26 15 13 3 9 5 -12 6 -26 1
-31 -2 -26 -15z"/>
  <path d="M336 85 c-3 -8 0 -28 7 -44 12 -27 14 -28 32 -14 16 13 17 15 3 10
-13 -5 -18 -1 -18 14 0 12 -4 17 -11 13 -8 -4 -9 0 -4 15 7 24 0 29 -9 6z"/>
  <path d="M400 30 c0 -6 11 -8 28 -4 39 10 40 14 4 14 -18 0 -32 -5 -32 -10z"/>
  <path d="M493 33 c9 -2 25 -2 35 0 9 3 1 5 -18 5 -19 0 -27 -2 -17 -5z"/>
</g>
</g>
</svg>