<?xml version="1.0" standalone="no"?>
<!DOCTYPE svg PUBLIC "-//W3C//DTD SVG 20010904//EN"
 "http://www.w3.org/TR/2001/REC-SVG-20010904/DTD/svg10.dtd">
<svg version="1.0" xmlns="http://www.w3.org/2000/svg"
 width="96.000000pt" height="68.000000pt" viewBox="0 0 96.000000 68.000000"
 preserveAspectRatio="xMidYMid meet">
<metadata>
Created by potrace 1.16, written by Peter Selinger 2001-2019
Combined from part_0.svg through part_5.svg with named groups
</metadata>
<g transform="translate(0.000000,68.000000) scale(0.100000,-0.100000)" fill="#000000" stroke="none">
<g id="part-0" class="char-part">
  <path d="M254 608 c4 -13 10 -48 13 -79 6 -63 8 -61 -74 -74 -68 -11 -61 -25
11 -25 l66 0 0 -40 0 -41 -76 -34 c-42 -19 -83 -35 -90 -35 -21 0 -17 -28 5
-40 32 -16 50 -12 98 25 25 19 50 35 54 35 10 0 0 -131 -11 -143 -4 -4 -19 -3
-33 2 -38 15 -34 2 16 -47 l43 -43 20 22 c16 18 20 39 22 136 4 110 5 117 30
140 l27 24 -27 -5 c-26 -6 -28 -4 -28 23 0 26 4 30 40 36 58 10 49 39 -11 37
-34 -1 -38 18 -14 75 8 19 15 37 15 39 0 8 -61 34 -81 34 -17 0 -20 -4 -15
-22z"/>
  <path d="M553 587 c-40 -6 -73 -14 -73 -18 0 -4 43 -5 95 -2 90 6 95 5 95 -14
0 -18 -11 -21 -135 -33 -74 -7 -135 -16 -135 -21 0 -12 84 -11 175 2 42 6 78
9 81 7 14 -15 -12 -37 -52 -42 -24 -3 -65 -9 -91 -13 -36 -4 -43 -8 -28 -13
11 -4 36 -6 55 -4 154 15 147 13 154 44 5 26 10 30 55 36 56 7 58 20 6 30 -24
4 -32 10 -28 21 13 33 -36 39 -174 20z"/>
  <path d="M567 403 c-71 -8 -136 -12 -145 -8 -17 6 -24 7 -19 2 1 -1 -8 -15
-20 -31 -34 -43 -29 -85 7 -66 10 5 23 23 28 40 10 26 16 30 49 30 21 0 48 3
61 6 19 6 22 3 22 -24 0 -30 -2 -32 -47 -38 l-48 -6 -2 -79 c-1 -72 6 -95 22
-69 3 6 9 38 13 73 7 60 8 62 37 65 l30 3 -3 -108 c-2 -59 0 -123 3 -142 6
-30 8 -32 22 -19 14 15 22 93 23 226 l0 52 34 0 c41 0 42 -3 38 -76 -4 -55 -4
-56 -30 -49 l-27 7 24 -26 c14 -14 30 -26 38 -26 23 0 41 44 47 117 6 71 6 73
-19 79 -14 3 -40 3 -59 0 -30 -6 -34 -4 -39 20 -5 30 -4 31 86 38 69 5 83 -3
55 -33 -11 -11 -10 -13 5 -7 10 3 31 6 45 6 15 0 34 5 42 10 13 9 11 13 -10
30 -30 23 -76 24 -263 3z"/>
</g>
<g id="part-1" class="char-part">
  <path d="M267 544 l6 -82 -57 -7 c-72 -9 -73 -25 -1 -25 l55 0 0 -44 0 -43
-91 -40 c-90 -40 -91 -41 -68 -57 32 -22 35 -21 95 24 29 22 56 40 59 40 7 0
6 -110 -2 -139 -5 -20 -11 -22 -37 -18 l-31 5 37 -39 c42 -44 46 -46 64 -22 9
13 13 53 14 130 0 109 1 112 27 132 14 12 23 24 19 28 -3 4 -12 1 -18 -5 -20
-20 -28 -14 -28 22 0 36 12 46 57 46 15 0 23 5 20 13 -2 6 -18 12 -35 12 -18
0 -33 4 -33 10 -3 21 2 51 13 78 13 34 0 53 -42 59 l-29 4 6 -82z"/>
</g>
<g id="part-2" class="char-part">
  <path d="M610 594 c-36 -7 -82 -12 -103 -13 -21 -1 -36 -5 -32 -10 3 -5 46 -7
100 -4 105 7 103 8 84 -58 -12 -38 -12 -38 -77 -45 -106 -11 -128 -22 -46 -23
97 -1 164 9 158 23 -3 7 4 32 15 57 12 24 21 49 21 56 0 21 -53 29 -120 17z"/>
</g>
<g id="part-3" class="char-part">
  <path d="M640 535 c-47 -7 -121 -17 -165 -22 -58 -7 -75 -12 -61 -18 11 -5 69
-3 135 3 64 6 147 14 185 18 40 3 64 10 59 15 -16 16 -67 17 -153 4z"/>
</g>
<g id="part-4" class="char-part">
  <path d="M548 322 l-96 -16 5 -32 c3 -18 1 -45 -4 -61 -10 -30 -7 -63 7 -63
12 0 30 59 30 101 0 21 4 40 8 43 5 3 46 8 90 12 l82 7 0 -68 0 -67 -27 7 -28
7 24 -26 c28 -30 43 -32 62 -10 17 21 30 155 17 172 -13 15 -47 14 -170 -6z"/>
</g>
</g>
</svg>