<?xml version="1.0" standalone="no"?>
<!DOCTYPE svg PUBLIC "-//W3C//DTD SVG 20010904//EN"
 "http://www.w3.org/TR/2001/REC-SVG-20010904/DTD/svg10.dtd">
<svg version="1.0" xmlns="http://www.w3.org/2000/svg"
 width="96.000000pt" height="68.000000pt" viewBox="0 0 96.000000 68.000000"
 preserveAspectRatio="xMidYMid meet">
<metadata>
Created by potrace 1.16, written by Peter Selinger 2001-2019
Combined from part_0.svg through part_5.svg with named groups
</metadata>
<g transform="translate(0.000000,68.000000) scale(0.100000,-0.100000)" fill="#000000" stroke="none">
<g id="part-0" class="char-part">
  <path d="M576 586 c-7 -45 -19 -56 -61 -56 -13 0 -26 -4 -29 -9 -7 -10 17 -21
46 -21 17 0 19 -4 13 -30 -9 -41 7 -38 43 7 27 34 34 37 91 41 34 2 64 8 66
13 9 14 -36 31 -72 27 -30 -4 -34 -2 -29 16 6 24 -19 56 -44 56 -13 0 -19 -11
-24 -44z"/>
  <path d="M308 591 c-16 -6 -16 -8 2 -36 11 -17 20 -33 20 -37 0 -5 -29 -8 -64
-8 -73 0 -89 -11 -51 -36 21 -14 32 -15 72 -4 42 10 49 9 60 -6 7 -10 13 -21
13 -26 0 -4 7 -8 16 -8 12 0 15 8 12 33 -3 28 0 32 25 35 37 5 34 20 -5 24
-27 2 -34 8 -38 32 -5 31 -33 47 -62 37z"/>
  <path d="M510 415 c-52 -7 -97 -14 -100 -16 -3 -1 18 -5 45 -8 l50 -6 5 -69
c5 -65 4 -69 -18 -77 -13 -5 -57 -9 -98 -9 -42 0 -74 -4 -74 -10 0 -17 50 -23
120 -13 l68 9 6 -36 c3 -19 6 -65 6 -102 0 -37 4 -69 9 -72 13 -9 31 75 31
148 l0 66 113 0 c118 0 143 6 106 25 -14 8 -56 10 -119 7 l-99 -5 2 74 3 74
52 3 c37 2 52 7 52 18 0 17 -27 17 -160 -1z"/>
  <path d="M227 403 c-7 -7 51 -63 65 -63 16 0 21 31 7 45 -17 15 -63 27 -72 18z"/>
  <path d="M653 335 c-9 -19 -20 -35 -24 -35 -4 0 -9 -7 -12 -15 -4 -10 10 -7
48 12 58 29 68 46 36 63 -28 14 -30 14 -48 -25z"/>
  <path d="M390 315 c0 -22 51 -68 62 -57 18 18 4 45 -29 59 -28 11 -33 11 -33
-2z"/>
  <path d="M160 311 c0 -17 46 -61 64 -61 36 0 29 45 -9 54 -13 3 -30 9 -39 12
-9 3 -16 1 -16 -5z"/>
  <path d="M274 220 c-16 -22 -48 -54 -71 -72 -47 -35 -53 -56 -24 -82 18 -16
20 -15 48 36 17 29 42 75 58 101 34 60 28 70 -11 17z"/>
</g>
<g id="part-1" class="char-part">
  <path d="M580 588 c0 -45 -8 -54 -55 -62 -32 -6 -36 -9 -22 -17 10 -6 27 -7
39 -3 22 7 22 3 3 -51 -4 -12 10 -2 32 23 34 37 44 42 83 43 25 0 54 4 64 8
30 11 2 24 -50 23 -43 -1 -44 0 -38 24 7 28 -7 44 -38 44 -14 0 -18 -8 -18
-32z"/>
  <path d="M300 585 c0 -4 7 -20 16 -36 8 -17 14 -32 12 -34 -2 -2 -89 -13 -122
-15 -5 0 -3 -7 4 -15 14 -17 66 -20 105 -5 22 8 27 7 37 -15 15 -33 28 -32 28
4 0 23 6 30 33 39 l32 10 -37 1 c-33 1 -38 4 -38 24 0 13 -5 28 -12 35 -12 12
-58 17 -58 7z"/>
</g>
<g id="part-2" class="char-part">
  <path d="M220 401 c0 -14 61 -62 74 -58 6 2 12 13 14 24 2 16 -5 23 -29 32
-39 13 -59 14 -59 2z"/>
  <path d="M160 311 c0 -21 43 -61 66 -61 45 0 27 40 -25 58 -41 14 -41 14 -41
3z"/>
  <path d="M247 194 c-32 -35 -65 -64 -73 -64 -8 0 -14 -9 -14 -21 0 -24 17 -59
29 -59 12 0 127 198 119 205 -2 2 -29 -26 -61 -61z"/>
</g>
<g id="part-3" class="char-part">
  <path d="M503 416 c-51 -7 -96 -16 -100 -20 -9 -10 234 -1 259 9 10 4 15 11
12 16 -6 11 -52 10 -171 -5z"/>
</g>
<g id="part-4" class="char-part">
  <path d="M510 317 c0 -88 2 -87 -111 -87 -45 0 -79 -4 -79 -10 0 -17 50 -23
120 -13 l68 9 6 -36 c3 -19 6 -68 6 -107 0 -40 4 -73 9 -73 13 0 31 91 31 160
l0 60 114 0 c63 0 117 4 120 9 11 18 -50 28 -143 23 l-93 -5 3 69 c4 69 4 69
-23 72 l-28 3 0 -74z"/>
</g>
</g>
</svg>