<?xml version="1.0" standalone="no"?>
<!DOCTYPE svg PUBLIC "-//W3C//DTD SVG 20010904//EN"
 "http://www.w3.org/TR/2001/REC-SVG-20010904/DTD/svg10.dtd">
<svg version="1.0" xmlns="http://www.w3.org/2000/svg"
 width="96.000000pt" height="68.000000pt" viewBox="0 0 96.000000 68.000000"
 preserveAspectRatio="xMidYMid meet">
<metadata>
Created by potrace 1.16, written by Peter Selinger 2001-2019
Combined from part_0.svg through part_5.svg with named groups
</metadata>
<g transform="translate(0.000000,68.000000) scale(0.100000,-0.100000)" fill="#000000" stroke="none">
<g id="part-0" class="char-part">
  <path d="M280 533 c11 -20 18 -38 17 -39 -1 -2 -43 -8 -92 -14 -101 -14 -122
-24 -79 -40 27 -11 48 -10 127 5 43 8 34 -19 -24 -76 -45 -43 -50 -52 -38 -64
12 -12 21 -12 63 0 27 8 55 15 63 15 21 0 -2 -30 -51 -67 -24 -18 -53 -42 -66
-53 -13 -11 -27 -20 -32 -20 -4 0 -8 -5 -8 -11 0 -26 122 58 206 142 85 86 88
91 70 105 -31 23 -44 17 -57 -25 -13 -44 -16 -46 -83 -56 -60 -9 -60 3 0 61
25 24 43 48 39 53 -3 5 13 12 35 15 22 3 58 9 80 12 22 3 40 10 40 15 0 14
-47 22 -85 15 -31 -6 -36 -4 -45 19 -10 25 -45 45 -81 45 -19 0 -19 -1 1 -37z"/>
  <path d="M660 554 c-52 -7 -115 -16 -140 -19 -37 -6 -41 -9 -26 -17 10 -6 38
-8 62 -5 38 4 44 2 44 -15 0 -34 -30 -68 -61 -68 -24 0 -27 -3 -21 -20 4 -12
4 -62 0 -112 -9 -97 0 -130 29 -107 7 7 16 9 20 5 11 -10 -14 -53 -59 -103
l-43 -47 41 23 c59 33 136 101 130 116 -3 9 12 15 50 20 49 6 57 4 72 -15 30
-37 40 -7 43 128 l4 122 -34 6 c-19 4 -64 2 -100 -3 -36 -6 -68 -9 -70 -7 -3
3 10 19 27 37 18 18 32 38 32 45 0 8 21 12 63 13 34 1 73 4 87 8 l25 7 -22 12
c-25 14 -29 14 -153 -4z m84 -140 c11 -28 7 -31 -63 -43 -106 -17 -121 -15
-121 13 0 22 6 26 53 34 83 15 124 14 131 -4z m6 -83 c0 -15 -10 -20 -62 -25
-35 -4 -78 -9 -95 -13 -30 -5 -33 -3 -33 20 0 24 3 26 58 30 134 8 132 8 132
-12z m-2 -73 c-2 -13 -11 -22 -23 -23 -11 -2 -55 -6 -98 -10 l-79 -8 4 24 c4
28 32 36 136 38 60 1 63 0 60 -21z"/>
  <path d="M412 298 c-7 -7 -12 -17 -12 -24 0 -18 -86 -99 -147 -140 -29 -19
-53 -37 -53 -39 0 -8 76 28 117 56 l42 30 42 -41 c45 -44 57 -48 65 -25 8 20
-14 45 -53 62 -18 7 -33 15 -33 18 0 2 20 23 45 46 42 38 44 43 28 55 -22 17
-26 17 -41 2z"/>
  <path d="M744 104 c65 -66 96 -78 96 -36 0 25 -35 56 -90 81 -74 34 -75 24 -6
-45z"/>
</g>
<g id="part-1" class="char-part">
  <path d="M270 567 c0 -3 9 -21 20 -40 l21 -35 -23 -5 c-13 -3 -50 -8 -83 -12
-83 -9 -101 -15 -84 -26 20 -12 64 -11 160 5 46 8 110 17 142 21 75 9 73 25
-3 25 -44 0 -60 4 -60 13 0 8 -8 21 -17 30 -18 16 -73 34 -73 24z"/>
</g>
<g id="part-2" class="char-part">
  <path d="M402 283 c-12 -35 -80 -102 -157 -154 -34 -23 -49 -38 -35 -34 35 10
80 34 117 63 l33 24 36 -41 c43 -48 74 -54 74 -15 0 20 -9 29 -46 46 l-46 20
47 48 c45 46 46 49 27 59 -31 16 -39 14 -50 -16z"/>
</g>
<g id="part-3" class="char-part">
  <path d="M618 550 c-71 -9 -131 -19 -134 -23 -10 -10 43 -20 81 -15 40 5 44
-6 20 -52 -9 -17 -11 -30 -6 -30 14 0 81 70 81 86 0 10 16 14 63 15 34 1 73 4
87 8 l25 7 -22 12 c-26 14 -34 14 -195 -8z"/>
</g>
<g id="part-4" class="char-part">
  <path d="M655 440 c-16 -4 -55 -8 -85 -9 l-55 -1 0 -95 c0 -84 2 -95 18 -95 9
0 17 7 17 15 0 9 9 15 23 16 12 0 55 4 96 8 56 5 74 4 78 -6 3 -7 16 -13 28
-13 22 0 24 4 27 83 3 63 0 85 -11 95 -16 13 -88 14 -136 2z m90 -31 c11 -33
8 -34 -116 -45 -76 -7 -76 -6 -75 17 1 20 9 25 56 35 91 19 128 17 135 -7z m5
-78 c0 -19 0 -20 -137 -36 -52 -7 -53 -6 -53 19 0 23 4 25 48 29 124 9 142 8
142 -12z"/>
</g>
<g id="part-5" class="char-part">
  <path d="M580 169 c-7 -11 -8 -24 -4 -27 4 -4 9 -1 11 6 3 6 8 10 13 7 4 -3
14 3 21 12 10 12 10 14 2 9 -7 -4 -13 -2 -13 3 0 18 -19 12 -30 -10z"/>
  <path d="M725 140 c-3 -6 1 -7 10 -4 10 4 14 2 10 -8 -6 -15 55 -78 75 -78 37
0 3 57 -52 86 -32 17 -35 17 -43 4z"/>
  <path d="M525 102 l-29 -37 33 28 c18 15 37 27 42 27 6 0 7 5 4 10 -10 16 -19
12 -50 -28z"/>
</g>
</g>
</svg>