<?xml version="1.0" standalone="no"?>
<!DOCTYPE svg PUBLIC "-//W3C//DTD SVG 20010904//EN"
 "http://www.w3.org/TR/2001/REC-SVG-20010904/DTD/svg10.dtd">
<svg version="1.0" xmlns="http://www.w3.org/2000/svg"
 width="96.000000pt" height="68.000000pt" viewBox="0 0 96.000000 68.000000"
 preserveAspectRatio="xMidYMid meet">
<metadata>
Created by potrace 1.16, written by Peter Selinger 2001-2019
Combined from part_0.svg through part_5.svg with named groups
</metadata>
<g transform="translate(0.000000,68.000000) scale(0.100000,-0.100000)" fill="#000000" stroke="none">
<g id="part-0" class="char-part">
  <path d="M414 649 c-3 -6 -1 -16 5 -22 6 -6 11 -30 11 -53 l0 -42 -60 -7 c-87
-10 -76 -35 16 -35 l44 0 0 -38 0 -39 -52 -2 c-153 -7 -222 -17 -226 -30 -4
-12 14 -13 114 -7 66 4 123 11 127 15 5 5 17 6 27 4 18 -5 18 -6 3 -21 -8 -9
-77 -47 -152 -84 -153 -76 -151 -88 3 -28 124 49 138 50 131 13 -2 -16 -9 -29
-15 -31 -5 -2 -10 -12 -10 -23 0 -23 20 -24 75 -4 22 8 59 14 83 15 37 0 42
-3 42 -22 0 -37 -19 -96 -37 -113 -12 -12 -26 -15 -51 -10 l-34 6 27 -35 c31
-40 41 -43 73 -20 25 17 48 57 67 118 7 22 16 49 20 59 13 30 -48 48 -126 37
-35 -5 -67 -10 -71 -10 -14 0 -9 16 11 39 17 19 33 24 101 28 79 6 108 17 75
29 -9 4 -60 2 -113 -4 -53 -6 -98 -9 -100 -7 -2 2 20 19 50 38 53 34 55 35
201 42 81 4 150 11 152 16 14 21 -41 31 -139 25 -83 -5 -98 -4 -85 6 39 32 86
69 104 83 20 15 20 15 -5 35 -33 26 -49 25 -59 -2 -5 -13 -17 -33 -28 -44 -27
-31 -103 -94 -114 -94 -5 0 -9 16 -9 35 0 34 1 34 50 41 56 7 67 16 45 34 -10
8 -29 10 -56 6 l-42 -7 5 51 c4 42 2 53 -13 60 -24 13 -56 13 -65 -1z"/>
</g>
<g id="part-1" class="char-part">
  <path d="M429 653 c-1 -5 0 -32 1 -62 2 -62 -6 -71 -67 -71 -24 0 -43 -4 -43
-10 0 -5 24 -10 54 -10 57 0 66 -7 66 -56 0 -17 6 -24 19 -24 16 0 20 8 23 42
2 29 8 43 18 45 100 13 125 33 40 33 l-50 0 0 50 c0 45 -3 52 -26 60 -30 12
-34 12 -35 3z"/>
</g>
<g id="part-2" class="char-part">
  <path d="M636 562 c-15 -29 -85 -98 -127 -125 -16 -10 -71 -19 -159 -26 -180
-15 -216 -21 -199 -32 19 -12 100 -11 198 2 45 6 84 9 87 6 8 -7 -129 -85
-218 -123 -98 -42 -107 -49 -51 -40 58 9 204 73 289 129 l72 45 143 8 c79 3
148 9 152 11 4 3 3 11 -4 19 -13 15 -88 18 -176 5 -29 -4 -53 -5 -53 -2 0 3
30 29 65 56 36 28 65 53 65 57 0 10 -42 38 -57 38 -7 0 -19 -13 -27 -28z"/>
</g>
<g id="part-3" class="char-part">
  <path d="M476 329 c-67 -9 -123 -28 -83 -29 21 0 22 -20 2 -46 -25 -32 -19
-56 12 -52 21 2 29 10 33 28 11 53 32 70 101 76 88 7 111 13 104 24 -7 12 -72
11 -169 -1z"/>
</g>
<g id="part-4" class="char-part">
  <path d="M503 248 c-87 -13 -80 -30 8 -21 l72 6 -7 -53 c-12 -88 -45 -118 -98
-89 -22 12 -22 9 7 -38 39 -64 91 -28 135 92 17 44 30 81 30 83 0 5 -69 32
-77 31 -4 -1 -36 -6 -70 -11z"/>
</g>
</g>
</svg>