<?xml version="1.0" standalone="no"?>
<!DOCTYPE svg PUBLIC "-//W3C//DTD SVG 20010904//EN"
 "http://www.w3.org/TR/2001/REC-SVG-20010904/DTD/svg10.dtd">
<svg version="1.0" xmlns="http://www.w3.org/2000/svg"
 width="96.000000pt" height="68.000000pt" viewBox="0 0 96.000000 68.000000"
 preserveAspectRatio="xMidYMid meet">
<metadata>
Created by potrace 1.16, written by Peter Selinger 2001-2019
Combined from part_0.svg through part_5.svg with named groups
</metadata>
<g transform="translate(0.000000,68.000000) scale(0.100000,-0.100000)" fill="#000000" stroke="none">
<g id="part-0" class="char-part">
  <path d="M243 585 c4 -8 9 -48 13 -88 7 -84 13 -79 -93 -93 -29 -3 -53 -10
-53 -14 0 -15 33 -20 81 -14 39 5 49 4 49 -8 0 -19 -71 -122 -118 -170 -36
-38 -31 -48 11 -27 12 6 43 32 70 57 l47 46 -1 -44 c0 -25 -4 -67 -8 -95 -10
-56 3 -95 30 -95 25 0 29 20 29 141 0 60 3 109 6 109 4 0 17 -11 30 -25 13
-14 30 -25 37 -25 20 0 30 29 16 46 -8 10 4 26 52 72 56 52 62 62 50 76 -24
28 -40 18 -68 -43 -31 -67 -50 -83 -93 -75 -26 6 -30 11 -30 39 0 31 2 33 45
39 24 4 47 12 51 18 11 17 -18 29 -55 22 l-34 -5 7 70 c6 65 4 71 -16 85 -29
21 -62 21 -55 1z"/>
  <path d="M510 519 c0 -6 17 -18 38 -27 25 -11 57 -41 102 -100 36 -46 73 -87
82 -90 21 -8 118 -3 118 7 0 3 -28 17 -62 31 -81 32 -98 45 -184 143 -29 34
-48 47 -67 47 -15 0 -27 -5 -27 -11z"/>
  <path d="M492 278 c-18 -39 -46 -78 -72 -102 -34 -31 -41 -42 -33 -55 13 -20
32 -18 165 14 l107 25 25 -25 c27 -27 46 -26 46 3 0 26 -27 60 -71 88 -45 28
-69 23 -39 -8 27 -29 25 -35 -12 -47 -63 -19 -158 -33 -158 -24 0 8 25 37 91
110 16 18 29 36 29 41 0 10 -33 42 -43 42 -4 0 -20 -28 -35 -62z"/>
</g>
<g id="part-1" class="char-part">
  <path d="M258 506 l5 -94 -67 -7 c-87 -10 -95 -25 -12 -25 36 0 66 -4 66 -8 0
-16 -77 -128 -117 -170 -22 -23 -38 -42 -35 -42 21 0 98 59 128 98 l36 47 -6
-70 c-4 -38 -9 -90 -12 -115 -3 -30 0 -51 9 -64 20 -28 37 -11 37 37 0 23 3
79 7 124 l6 83 34 -30 c33 -30 53 -32 53 -6 0 18 -30 42 -62 50 -24 5 -28 11
-28 41 0 28 4 36 23 39 69 14 77 17 71 27 -3 6 -23 9 -45 8 -21 -2 -40 -1 -43
1 -2 3 -1 34 4 70 8 69 3 82 -36 94 -21 6 -21 4 -16 -88z"/>
</g>
<g id="part-2" class="char-part">
  <path d="M510 517 c0 -8 17 -20 38 -27 28 -9 50 -30 92 -87 77 -105 77 -105
151 -101 l64 3 -85 42 c-69 34 -93 53 -130 99 -25 31 -54 62 -65 70 -25 18
-65 18 -65 1z"/>
  <path d="M430 403 c-12 -27 -33 -61 -48 -77 l-27 -29 40 23 c22 12 55 40 74
61 28 32 31 42 21 54 -21 26 -38 17 -60 -32z"/>
</g>
<g id="part-3" class="char-part">
  <path d="M496 290 c-11 -30 -38 -71 -68 -102 -37 -40 -47 -57 -40 -68 12 -19
32 -17 165 15 l107 26 24 -27 c41 -48 65 -1 25 50 -18 23 -86 66 -104 66 -4 0
3 -14 15 -31 12 -16 20 -32 17 -35 -15 -15 -187 -48 -187 -36 0 4 21 33 48 63
79 91 77 87 57 109 -28 31 -39 24 -59 -30z"/>
</g>
</g>
</svg>