<?xml version="1.0" standalone="no"?>
<!DOCTYPE svg PUBLIC "-//W3C//DTD SVG 20010904//EN"
 "http://www.w3.org/TR/2001/REC-SVG-20010904/DTD/svg10.dtd">
<svg version="1.0" xmlns="http://www.w3.org/2000/svg"
 width="96.000000pt" height="68.000000pt" viewBox="0 0 96.000000 68.000000"
 preserveAspectRatio="xMidYMid meet">
<metadata>
Created by potrace 1.16, written by Peter Selinger 2001-2019
Combined from part_0.svg through part_5.svg with named groups
</metadata>
<g transform="translate(0.000000,68.000000) scale(0.100000,-0.100000)" fill="#000000" stroke="none">
<g id="part-0" class="char-part">
  <path d="M285 524 c-27 -8 -66 -14 -85 -13 -63 2 -66 1 -42 -21 12 -12 22 -28
23 -38 0 -9 6 -33 12 -52 10 -29 17 -35 42 -35 l29 0 4 -97 c2 -54 0 -98 -5
-98 -4 0 -18 -3 -30 -6 -22 -6 -23 -4 -23 70 0 42 -4 76 -9 76 -5 0 -16 3 -24
6 -13 5 -15 -8 -14 -83 l2 -88 -32 3 c-41 4 -50 -13 -17 -34 25 -17 28 -17 72
0 26 10 79 30 117 44 90 32 106 47 41 38 -46 -6 -48 -5 -42 17 3 12 6 32 6 45
0 19 5 22 35 22 19 0 35 5 35 11 0 6 -14 9 -32 7 -33 -3 -33 -2 -33 39 0 41 1
43 31 43 27 0 31 3 31 30 0 16 8 46 19 66 19 35 19 36 0 50 -24 17 -45 17
-111 -2z m40 -71 c-4 -21 -8 -39 -8 -40 -1 0 -19 -4 -39 -8 -34 -7 -39 -5 -48
20 -20 53 -12 62 64 64 l38 1 -7 -37z"/>
  <path d="M540 521 c-102 -16 -135 -33 -76 -39 28 -4 29 -4 22 -55 -10 -84 -75
-251 -118 -305 -6 -7 -9 -15 -6 -17 11 -11 71 64 100 125 18 36 32 66 34 68 6
8 43 -24 65 -57 13 -20 28 -40 34 -44 14 -11 -45 -57 -119 -90 -60 -27 -60
-28 -21 -24 39 5 111 34 148 59 16 11 23 8 54 -25 19 -22 49 -43 67 -48 34
-10 123 -2 131 11 3 5 -17 16 -44 24 -59 17 -119 45 -142 65 -15 12 -14 17 10
55 15 22 39 62 54 87 l26 46 -22 10 c-12 6 -34 8 -49 6 -16 -2 -28 -1 -28 1 0
11 26 63 42 85 23 30 23 50 1 67 -21 16 -29 16 -163 -5z m110 -34 c0 -31 -30
-120 -44 -129 -6 -4 -29 -8 -52 -8 l-41 0 14 53 c8 28 12 62 10 74 -3 18 1 23
27 26 78 10 86 8 86 -16z m26 -151 c6 -15 -42 -126 -54 -126 -12 0 -103 109
-95 113 5 2 22 4 38 5 17 1 44 6 60 11 42 13 45 13 51 -3z"/>
</g>
<g id="part-1" class="char-part">
  <path d="M290 521 c-14 -5 -52 -10 -85 -11 -33 -1 -54 -4 -48 -7 7 -2 22 -36
34 -75 15 -52 23 -68 32 -59 6 6 31 11 57 11 53 0 92 9 85 20 -5 8 17 64 37
92 7 9 9 20 6 24 -11 10 -91 14 -118 5z m42 -61 c-4 -42 -25 -60 -69 -60 -26
0 -34 5 -38 23 -13 60 -12 62 30 68 72 12 80 8 77 -31z"/>
</g>
<g id="part-2" class="char-part">
  <path d="M285 179 c-33 -11 -90 -22 -127 -26 -38 -3 -68 -9 -68 -13 0 -4 8
-14 18 -23 21 -19 54 -22 80 -7 25 14 147 60 158 60 6 0 19 7 30 15 18 14 18
14 -6 14 -14 0 -52 -9 -85 -20z"/>
</g>
<g id="part-3" class="char-part">
  <path d="M538 521 c-59 -9 -110 -20 -113 -23 -16 -16 41 -18 109 -4 127 27
134 22 100 -78 -17 -50 -16 -60 7 -51 14 5 80 121 79 139 0 14 -34 35 -55 35
-11 -1 -68 -9 -127 -18z"/>
</g>
<g id="part-4" class="char-part">
  <path d="M496 478 c-3 -7 -7 -33 -11 -58 -9 -69 -53 -189 -91 -254 -19 -32
-33 -60 -31 -63 10 -9 82 86 108 143 29 64 69 195 69 226 0 21 -38 25 -44 6z"/>
</g>
<g id="part-5" class="char-part">
  <path d="M679 352 c6 -12 5 -28 -5 -51 -8 -19 -12 -36 -10 -39 3 -2 -4 -13
-15 -25 -10 -11 -19 -27 -19 -35 0 -7 -26 13 -57 45 -32 33 -49 47 -37 33 65
-80 74 -98 59 -110 -8 -7 -12 -17 -9 -22 4 -6 10 -6 17 1 14 14 44 14 53 -1 5
-7 3 -8 -7 -3 -12 7 -12 6 0 -9 8 -10 23 -15 33 -13 10 3 16 1 13 -3 -3 -5 1
-11 7 -14 7 -3 2 -3 -12 0 -24 6 -24 5 -8 -11 20 -21 123 -31 111 -12 -4 7 0
6 10 -1 9 -8 22 -12 29 -9 7 3 4 6 -7 6 -17 1 -17 3 -5 11 11 7 7 10 -17 10
-17 0 -35 5 -38 10 -4 6 -16 8 -27 4 -12 -4 -18 -2 -14 4 3 5 -8 15 -24 22
-17 7 -30 16 -30 21 0 5 -8 9 -17 9 -13 0 -14 3 -6 11 6 6 9 18 6 25 -3 8 1
14 10 14 20 0 27 20 14 45 -9 18 -8 18 6 7 14 -12 18 -9 32 18 9 17 13 36 9
42 -4 6 -3 8 4 4 6 -3 14 -1 18 5 9 15 -14 29 -49 29 -23 0 -26 -3 -18 -18z"/>
  <path d="M610 350 c-13 -9 -13 -10 0 -9 8 0 24 4 35 9 l20 9 -20 0 c-11 0 -27
-4 -35 -9z"/>
  <path d="M520 340 c-13 -8 -12 -10 3 -10 9 0 17 5 17 10 0 12 -1 12 -20 0z"/>
  <path d="M557 339 c7 -7 15 -10 18 -7 3 3 -2 9 -12 12 -14 6 -15 5 -6 -5z"/>
  <path d="M547 136 c-9 -7 -17 -16 -17 -19 0 -8 39 4 45 14 9 14 -10 18 -28 5z"/>
  <path d="M500 110 c-13 -8 -12 -10 3 -10 9 0 17 5 17 10 0 12 -1 12 -20 0z"/>
  <path d="M458 93 c7 -3 16 -2 19 1 4 3 -2 6 -13 5 -11 0 -14 -3 -6 -6z"/>
</g>
</g>
</svg>