<?xml version="1.0" standalone="no"?>
<!DOCTYPE svg PUBLIC "-//W3C//DTD SVG 20010904//EN"
 "http://www.w3.org/TR/2001/REC-SVG-20010904/DTD/svg10.dtd">
<svg version="1.0" xmlns="http://www.w3.org/2000/svg"
 width="96.000000pt" height="68.000000pt" viewBox="0 0 96.000000 68.000000"
 preserveAspectRatio="xMidYMid meet">
<metadata>
Created by potrace 1.16, written by Peter Selinger 2001-2019
Combined from part_0.svg through part_5.svg with named groups
</metadata>
<g transform="translate(0.000000,68.000000) scale(0.100000,-0.100000)" fill="#000000" stroke="none">
<g id="part-0" class="char-part">
  <path d="M599 552 c-13 -10 -46 -29 -72 -42 -45 -22 -79 -51 -46 -38 8 3 56
16 107 29 50 13 92 29 92 35 0 9 -40 34 -54 34 -2 0 -14 -8 -27 -18z"/>
  <path d="M237 499 c-16 -33 -46 -78 -68 -99 -35 -34 -39 -42 -29 -59 12 -24
23 -26 51 -10 11 5 28 9 37 7 13 -3 8 -13 -25 -45 -70 -69 -56 -84 49 -49 52
18 76 22 85 14 9 -7 14 -6 19 6 8 20 -9 42 -37 49 -16 4 -19 2 -14 -13 4 -14
-2 -21 -30 -30 -19 -6 -40 -10 -45 -8 -5 2 24 37 65 78 75 75 86 98 61 119
-16 13 -26 3 -46 -46 -7 -18 -15 -34 -19 -34 -3 -1 -25 -3 -48 -4 l-43 -3 48
57 c71 84 74 89 68 108 -3 10 -16 19 -28 20 -19 2 -28 -9 -51 -58z"/>
  <path d="M680 433 c-11 -21 -28 -49 -38 -63 -19 -27 -17 -26 55 23 54 36 60
47 38 64 -27 19 -32 17 -55 -24z"/>
  <path d="M520 442 c0 -18 33 -52 51 -52 24 0 25 22 1 43 -19 17 -52 23 -52 9z"/>
  <path d="M421 388 c20 -37 59 -53 59 -24 0 21 -28 46 -51 46 -17 0 -18 -3 -8
-22z"/>
  <path d="M510 318 c0 -56 -13 -68 -73 -68 -29 0 -46 -4 -42 -10 3 -5 26 -10
51 -10 41 0 44 -2 34 -19 -14 -28 -15 -28 35 -47 25 -9 45 -20 45 -24 0 -8
-103 -52 -160 -68 l-35 -10 39 -1 c45 -1 144 27 165 47 20 20 62 9 123 -33 58
-39 91 -46 81 -17 -11 32 -35 51 -84 67 -27 9 -49 21 -49 27 0 5 14 29 30 53
30 44 31 44 97 47 97 4 95 25 -4 31 -43 2 -88 7 -100 12 -17 5 -23 4 -23 -8 0
-9 -14 -17 -37 -20 -48 -8 -58 0 -38 30 19 28 10 45 -32 58 -21 6 -23 3 -23
-37z m130 -82 c0 -8 -11 -28 -25 -44 -24 -28 -28 -30 -63 -20 -52 14 -54 16
-36 43 15 23 24 25 107 33 9 1 17 -4 17 -12z"/>
  <path d="M300 212 c0 -12 34 -42 48 -42 16 0 15 23 0 38 -14 14 -48 16 -48 4z"/>
  <path d="M210 182 c0 -12 44 -52 58 -52 20 0 13 28 -10 44 -24 17 -48 21 -48
8z"/>
  <path d="M100 155 c0 -12 64 -75 77 -75 23 0 14 38 -13 59 -24 19 -64 29 -64
16z"/>
</g>
<g id="part-1" class="char-part">
  <path d="M246 506 c-13 -30 -43 -75 -66 -100 -59 -64 -47 -90 31 -65 62 20 65
23 26 28 l-38 6 61 74 c57 70 59 75 44 93 -10 10 -21 18 -26 18 -4 0 -19 -24
-32 -54z"/>
</g>
<g id="part-2" class="char-part">
  <path d="M290 221 c0 -12 45 -51 58 -51 16 0 15 25 0 37 -17 13 -58 23 -58 14z"/>
  <path d="M210 182 c0 -12 44 -52 58 -52 19 0 14 38 -7 50 -24 12 -51 13 -51 2z"/>
  <path d="M100 153 c1 -15 60 -73 75 -73 25 0 18 46 -10 64 -25 16 -65 22 -65
9z"/>
</g>
<g id="part-3" class="char-part">
  <path d="M602 555 c-12 -9 -52 -31 -89 -50 -38 -19 -61 -34 -53 -35 12 0 162
39 220 57 12 3 10 9 -9 24 -28 23 -40 24 -69 4z"/>
  <path d="M667 413 c-20 -31 -36 -57 -34 -59 6 -7 117 72 117 83 0 10 -29 33
-42 33 -2 0 -20 -25 -41 -57z"/>
  <path d="M532 420 c20 -27 58 -42 58 -22 0 21 -34 52 -56 52 l-25 0 23 -30z"/>
  <path d="M410 406 c0 -14 37 -56 50 -56 14 0 21 16 14 33 -8 21 -64 41 -64 23z"/>
</g>
<g id="part-4" class="char-part">
  <path d="M508 308 c-2 -33 -8 -53 -15 -54 -7 -1 -34 -2 -59 -3 -59 -1 -48 -21
12 -21 42 0 44 -1 34 -20 -13 -24 -6 -40 18 -40 9 -1 28 -7 41 -14 l24 -13
-26 -18 c-15 -9 -59 -28 -99 -41 -64 -20 -69 -23 -37 -24 41 0 165 35 174 50
13 21 53 8 119 -36 53 -36 70 -43 77 -33 9 15 -8 47 -32 61 -8 4 -36 17 -62
28 l-49 20 25 30 c14 16 28 39 32 50 5 17 15 20 63 20 31 0 68 3 80 7 40 10 4
23 -66 23 -35 0 -73 5 -84 11 -17 9 -24 8 -32 -3 -12 -17 -96 -35 -96 -21 1 4
7 19 15 33 8 14 14 28 15 32 0 5 -54 28 -66 28 -2 0 -4 -24 -6 -52z m132 -72
c0 -8 -11 -28 -25 -44 -24 -28 -28 -30 -63 -20 -52 14 -54 16 -36 43 20 31
124 48 124 21z"/>
</g>
</g>
</svg>