<?xml version="1.0" standalone="no"?>
<!DOCTYPE svg PUBLIC "-//W3C//DTD SVG 20010904//EN"
 "http://www.w3.org/TR/2001/REC-SVG-20010904/DTD/svg10.dtd">
<svg version="1.0" xmlns="http://www.w3.org/2000/svg"
 width="96.000000pt" height="68.000000pt" viewBox="0 0 96.000000 68.000000"
 preserveAspectRatio="xMidYMid meet">
<metadata>
Created by potrace 1.16, written by Peter Selinger 2001-2019
Combined from part_0.svg through part_5.svg with named groups
</metadata>
<g transform="translate(0.000000,68.000000) scale(0.100000,-0.100000)" fill="#000000" stroke="none">
<g id="part-0" class="char-part">
  <path d="M610 561 c0 -6 -28 -26 -62 -46 -61 -34 -62 -35 -25 -29 38 6 39 6
35 -22 -3 -28 -5 -29 -80 -38 -99 -12 -105 -31 -8 -23 39 3 70 3 70 1 0 -9
-42 -43 -92 -75 -27 -17 -48 -32 -48 -34 0 -9 69 21 108 46 24 16 45 29 48 29
2 0 4 -16 4 -36 0 -28 3 -35 18 -32 12 2 18 16 22 45 l5 41 65 -38 c69 -42
100 -49 100 -25 0 22 -51 50 -115 64 -30 7 -55 16 -55 21 0 9 55 19 135 23 29
1 48 6 45 12 -6 12 -77 13 -136 3 -29 -6 -41 -4 -41 5 0 6 -3 22 -7 34 -6 18
-1 23 31 33 54 18 59 26 22 39 -39 13 -39 13 -39 2z"/>
  <path d="M216 538 c20 -64 76 -100 89 -58 9 28 -10 56 -46 69 -45 16 -51 14
-43 -11z"/>
  <path d="M207 440 c-60 -10 -112 -21 -115 -25 -9 -9 19 -25 46 -25 26 0 265
40 271 45 1 2 0 8 -4 14 -9 15 -72 12 -198 -9z"/>
  <path d="M253 356 c-67 -14 -78 -26 -22 -25 60 2 103 12 101 24 -2 14 -20 15
-79 1z"/>
  <path d="M248 288 c-83 -14 -75 -32 10 -23 58 6 119 24 85 25 -6 0 -17 2 -25
4 -7 2 -39 -1 -70 -6z"/>
  <path d="M540 265 c0 -20 -5 -25 -25 -26 -14 -1 -29 -3 -35 -4 -5 -1 -28 -3
-50 -4 -22 0 -40 -5 -40 -10 0 -14 55 -21 89 -11 38 11 46 0 21 -28 -11 -12
-20 -23 -20 -26 0 -3 18 -11 40 -17 22 -7 40 -16 40 -21 0 -11 -78 -47 -102
-48 -9 0 -20 -5 -24 -12 -10 -17 71 -2 122 22 52 25 51 26 107 -10 51 -32 77
-38 77 -17 0 22 -37 55 -70 62 -26 6 -44 35 -21 35 4 0 19 20 32 45 l24 45 69
0 c42 0 66 4 61 9 -13 11 -185 20 -185 9 0 -4 -13 -8 -29 -8 -20 0 -30 6 -34
20 -8 31 -47 27 -47 -5z m110 -44 c0 -4 -10 -23 -23 -42 -20 -29 -28 -34 -58
-31 -49 5 -54 16 -23 51 21 24 35 31 66 31 21 0 38 -4 38 -9z"/>
  <path d="M260 210 c-14 -4 -42 -8 -64 -9 -29 -1 -36 -4 -29 -13 5 -7 17 -34
27 -60 16 -43 36 -64 36 -39 0 6 24 11 53 13 37 2 51 7 49 16 -1 8 7 29 18 48
12 18 19 38 15 44 -7 12 -68 12 -105 0z m50 -31 c0 -37 -19 -59 -51 -59 -22 0
-32 6 -39 26 -15 38 -13 42 23 47 65 8 67 8 67 -14z"/>
</g>
<g id="part-1" class="char-part">
  <path d="M220 542 c0 -17 52 -83 63 -79 23 7 20 54 -5 71 -23 17 -58 22 -58 8z"/>
  <path d="M215 436 c-119 -21 -128 -24 -101 -35 23 -9 48 -8 135 9 58 11 116
20 129 20 25 0 30 15 6 24 -20 8 -15 8 -169 -18z"/>
</g>
<g id="part-2" class="char-part">
  <path d="M270 214 c-30 -8 -68 -13 -85 -11 l-30 2 21 -41 c12 -23 24 -52 27
-64 4 -17 10 -21 24 -15 10 4 40 10 66 13 33 3 47 9 43 17 -2 7 5 30 16 51 19
36 19 38 2 51 -10 7 -20 13 -23 12 -3 -1 -31 -8 -61 -15z m40 -38 c0 -55 -72
-79 -90 -30 -15 38 -13 42 23 47 67 8 67 8 67 -17z"/>
</g>
<g id="part-3" class="char-part">
  <path d="M595 550 c-10 -11 -42 -32 -72 -46 -29 -15 -53 -27 -53 -29 0 -5 106
23 140 37 19 8 44 18 55 22 17 6 17 9 5 15 -38 21 -57 21 -75 1z"/>
</g>
<g id="part-4" class="char-part">
  <path d="M567 494 c-4 -4 -7 -20 -7 -35 0 -27 -2 -27 -75 -34 -41 -4 -78 -12
-82 -18 -4 -7 17 -8 65 -4 66 5 71 4 61 -12 -6 -9 -38 -34 -70 -55 -33 -21
-59 -40 -59 -42 0 -9 88 29 116 51 18 14 35 25 38 25 3 0 6 -16 6 -36 0 -28 3
-35 18 -32 12 2 18 15 20 46 2 23 5 42 7 42 3 0 29 -16 59 -34 67 -43 106 -55
106 -32 0 22 -55 54 -106 62 -45 6 -72 19 -62 30 4 3 45 9 93 11 87 6 116 17
70 29 -23 6 -89 0 -142 -13 -18 -4 -22 0 -25 23 -3 27 -18 41 -31 28z"/>
</g>
<g id="part-5" class="char-part">
  <path d="M556 283 c-3 -4 -6 -17 -6 -30 0 -14 -4 -21 -10 -18 -16 10 -35 -6
-19 -16 12 -8 11 -11 -1 -19 -8 -5 -10 -10 -5 -10 6 0 2 -5 -7 -11 -27 -15
-22 -25 22 -38 22 -6 40 -15 40 -20 0 -15 -35 -39 -70 -49 -19 -6 -27 -11 -17
-11 27 -1 83 25 114 53 15 14 29 23 32 20 3 -3 -1 -9 -9 -15 -13 -8 -13 -10 0
-19 21 -14 43 -12 34 3 -4 7 -3 9 2 4 5 -5 9 -14 9 -19 0 -6 6 -13 14 -16 9
-3 11 0 6 8 -5 9 -4 11 4 6 6 -4 9 -11 6 -16 -6 -9 12 -23 32 -26 28 -5 -24
56 -58 69 -9 3 -21 1 -27 -5 -18 -18 -2 33 20 65 13 18 15 27 7 27 -7 0 -3 9
9 20 17 16 35 20 87 20 36 0 64 4 61 9 -4 6 -164 7 -173 1 -3 -2 -46 -3 -64
-1 -6 1 -9 7 -6 15 6 15 -16 30 -27 19z m97 -52 c4 -1 3 -10 -3 -20 -7 -14 -6
-21 3 -24 7 -3 5 -6 -5 -6 -10 -1 -18 -6 -18 -12 0 -5 6 -7 13 -3 6 4 9 4 5 0
-3 -4 -10 -8 -15 -8 -4 1 -15 -6 -24 -14 -13 -12 -22 -12 -61 2 l-46 15 38 39
c36 37 48 40 113 31z"/>
  <path d="M430 220 l-25 -8 25 -1 c14 0 32 4 40 9 13 9 13 10 0 9 -8 -1 -26 -5
-40 -9z"/>
</g>
</g>
</svg>