<?xml version="1.0" standalone="no"?>
<!DOCTYPE svg PUBLIC "-//W3C//DTD SVG 20010904//EN"
 "http://www.w3.org/TR/2001/REC-SVG-20010904/DTD/svg10.dtd">
<svg version="1.0" xmlns="http://www.w3.org/2000/svg"
 width="96.000000pt" height="68.000000pt" viewBox="0 0 96.000000 68.000000"
 preserveAspectRatio="xMidYMid meet">
<metadata>
Created by potrace 1.16, written by Peter Selinger 2001-2019
Combined from part_0.svg through part_5.svg with named groups
</metadata>
<g transform="translate(0.000000,68.000000) scale(0.100000,-0.100000)" fill="#000000" stroke="none">
<g id="part-0" class="char-part">
  <path d="M500 571 c0 -5 9 -12 19 -16 19 -6 49 -71 38 -82 -3 -3 -43 -7 -88
-9 -45 -2 -84 -6 -87 -9 -3 -3 1 -5 8 -5 17 0 9 -225 -9 -259 -17 -30 -6 -73
17 -69 15 3 18 25 27 155 6 84 13 154 15 156 3 3 33 9 68 14 58 9 62 9 62 -10
0 -22 -40 -79 -77 -112 -13 -11 -23 -26 -23 -34 0 -14 76 41 98 71 19 26 26
23 50 -27 22 -46 33 -52 102 -57 l35 -3 -2 -64 c-2 -75 -12 -89 -49 -72 -40
18 -39 7 3 -33 44 -42 53 -43 79 -15 17 19 19 35 16 153 -2 72 2 153 8 180 17
78 1 84 -170 60 -46 -6 -46 -6 -64 34 -19 42 -76 81 -76 53z m254 -162 c9 -91
8 -99 -11 -99 -30 1 -133 111 -133 142 0 10 28 16 86 17 l51 1 7 -61z"/>
  <path d="M250 444 c-21 -8 -54 -11 -83 -7 l-48 6 20 -34 c11 -19 23 -56 27
-84 3 -27 11 -59 17 -69 8 -17 11 -18 21 -4 7 9 35 18 71 22 l60 7 1 42 c0 23
8 56 17 74 15 29 15 33 1 47 -18 19 -55 19 -104 0z m40 -48 c0 -59 -12 -85
-42 -91 -16 -4 -31 -5 -34 -2 -3 2 -7 27 -11 55 -5 47 -4 51 18 55 57 11 69 8
69 -17z"/>
</g>
<g id="part-1" class="char-part">
  <path d="M265 444 c-26 -10 -56 -13 -87 -9 l-47 6 18 -43 c10 -24 22 -64 25
-90 8 -50 23 -70 37 -47 4 7 32 16 61 19 39 4 52 9 50 20 -2 7 7 41 19 74 20
57 21 60 3 73 -22 16 -28 16 -79 -3z m29 -61 c-9 -67 -20 -83 -54 -83 -30 0
-34 5 -45 72 -7 36 -7 36 37 46 72 16 70 17 62 -35z"/>
</g>
<g id="part-2" class="char-part">
  <path d="M512 559 c31 -23 63 -108 52 -141 -3 -12 -29 -46 -57 -75 -27 -29
-44 -53 -36 -53 18 0 88 50 100 72 14 26 25 22 39 -13 22 -51 48 -69 102 -69
38 0 46 3 42 15 -4 8 -12 15 -19 15 -23 0 -101 95 -143 176 -29 57 -49 83 -64
88 -39 10 -44 6 -16 -15z"/>
</g>
<g id="part-3" class="char-part">
  <path d="M635 484 c-38 -8 -108 -15 -155 -16 l-85 -3 0 -105 c0 -58 -6 -131
-14 -163 -13 -52 -13 -60 1 -74 15 -14 17 -14 26 4 6 11 13 71 17 134 10 186
5 174 79 187 35 7 104 15 154 18 l90 7 6 -74 c9 -101 2 -247 -12 -261 -9 -9
-18 -8 -38 1 -40 18 -38 9 6 -34 33 -32 44 -38 58 -29 36 23 43 54 36 175 -5
80 -3 133 6 169 12 49 11 54 -6 67 -22 16 -75 15 -169 -3z"/>
</g>
</g>
</svg>