<?xml version="1.0" standalone="no"?>
<!DOCTYPE svg PUBLIC "-//W3C//DTD SVG 20010904//EN"
 "http://www.w3.org/TR/2001/REC-SVG-20010904/DTD/svg10.dtd">
<svg version="1.0" xmlns="http://www.w3.org/2000/svg"
 width="96.000000pt" height="68.000000pt" viewBox="0 0 96.000000 68.000000"
 preserveAspectRatio="xMidYMid meet">
<metadata>
Created by potrace 1.16, written by Peter Selinger 2001-2019
Combined from part_0.svg through part_5.svg with named groups
</metadata>
<g transform="translate(0.000000,68.000000) scale(0.100000,-0.100000)" fill="#000000" stroke="none">
<g id="part-0" class="char-part">
  <path d="M216 582 c-8 -14 72 -84 92 -80 10 2 18 15 20 31 3 22 -2 29 -25 38
-46 17 -80 22 -87 11z"/>
  <path d="M580 519 c-25 -5 -73 -11 -108 -13 -71 -4 -77 -7 -63 -33 6 -10 15
-44 21 -75 8 -41 16 -58 27 -58 12 0 14 -7 8 -37 -8 -45 -37 -95 -82 -143 -37
-40 -36 -47 4 -26 54 27 144 176 123 201 -8 9 -4 14 15 17 36 7 45 -15 45
-106 0 -127 28 -156 150 -156 106 0 155 40 116 95 -7 11 -16 29 -18 40 -5 22
-11 13 -22 -35 -11 -47 -22 -54 -89 -58 -58 -4 -66 -2 -81 19 -19 27 -21 101
-5 148 10 28 9 34 -7 46 -17 13 -15 14 24 15 37 0 43 3 38 18 -4 10 5 40 19
68 14 27 25 52 25 56 0 8 -58 28 -79 27 -9 -1 -36 -5 -61 -10z m48 -70 c-3
-28 -11 -55 -18 -59 -18 -11 -133 -21 -141 -13 -4 5 -9 31 -11 58 l-3 50 50 6
c28 3 67 7 89 7 l39 2 -5 -51z"/>
  <path d="M280 449 c-14 -6 -61 -19 -105 -29 -59 -13 -75 -20 -61 -25 17 -7 82
2 154 21 12 4 22 2 22 -4 0 -14 -126 -170 -161 -200 -17 -13 -28 -26 -26 -29
7 -6 57 19 57 29 0 4 5 8 12 8 7 0 32 19 55 42 l43 42 0 -60 c0 -34 -5 -75
-11 -93 -8 -24 -8 -39 1 -62 22 -53 35 -27 45 97 8 97 13 118 25 115 51 -13
60 -13 60 2 0 19 -30 37 -59 37 -30 0 -26 19 10 56 l31 32 -30 16 c-17 9 -32
16 -34 15 -2 0 -14 -5 -28 -10z"/>
</g>
<g id="part-1" class="char-part">
  <path d="M228 563 c13 -24 55 -53 77 -53 22 0 31 29 14 45 -8 8 -34 17 -58 21
-41 7 -43 6 -33 -13z"/>
</g>
<g id="part-2" class="char-part">
  <path d="M225 324 c-27 -36 -69 -83 -92 -105 -24 -21 -38 -39 -32 -39 21 0 74
34 121 77 l48 46 0 -52 c0 -29 -5 -71 -11 -94 -7 -30 -7 -51 0 -71 22 -56 36
-24 45 103 8 106 11 121 25 115 9 -4 27 -9 39 -12 19 -4 23 -1 20 14 -2 12
-19 24 -46 33 -41 13 -42 14 -26 32 16 18 16 19 -12 18 -24 0 -38 -12 -79 -65z"/>
</g>
<g id="part-3" class="char-part">
  <path d="M580 520 c-19 -5 -68 -12 -107 -15 -40 -4 -73 -9 -73 -11 0 -2 4 -12
10 -22 5 -9 14 -43 21 -75 10 -53 13 -58 32 -54 12 3 66 9 120 12 80 6 97 10
93 22 -3 8 6 39 20 69 14 31 24 57 23 58 -30 26 -76 31 -139 16z m48 -43 c2
-11 1 -34 -2 -53 -7 -36 -23 -43 -116 -47 l-45 -2 -6 50 c-3 28 -4 52 -2 55 6
6 102 18 138 16 20 -1 31 -7 33 -19z"/>
</g>
<g id="part-4" class="char-part">
  <path d="M476 343 c-3 -3 -6 -16 -6 -27 -1 -34 -35 -98 -80 -148 -46 -52 -42
-61 11 -25 34 23 89 103 108 158 8 24 7 30 -8 39 -10 5 -21 6 -25 3z"/>
</g>
<g id="part-5" class="char-part">
  <path d="M577 342 c-3 -7 0 -151 4 -183 2 -17 41 -51 62 -56 66 -13 93 -14
132 -3 26 7 42 17 38 23 -4 6 0 8 10 4 9 -3 18 0 21 9 7 19 -3 44 -19 44 -8 0
-16 8 -19 18 -3 9 -4 4 -2 -11 5 -40 -30 -60 -106 -61 -48 -1 -63 3 -75 19
-14 17 -15 17 -9 2 3 -11 2 -16 -4 -12 -12 7 -5 130 9 168 8 21 6 26 -14 35
-14 6 -26 8 -28 4z"/>
</g>
</g>
</svg>