<?xml version="1.0" standalone="no"?>
<!DOCTYPE svg PUBLIC "-//W3C//DTD SVG 20010904//EN"
 "http://www.w3.org/TR/2001/REC-SVG-20010904/DTD/svg10.dtd">
<svg version="1.0" xmlns="http://www.w3.org/2000/svg"
 width="96.000000pt" height="68.000000pt" viewBox="0 0 96.000000 68.000000"
 preserveAspectRatio="xMidYMid meet">
<metadata>
Created by potrace 1.16, written by Peter Selinger 2001-2019
Combined from part_0.svg through part_5.svg with named groups
</metadata>
<g transform="translate(0.000000,68.000000) scale(0.100000,-0.100000)" fill="#000000" stroke="none">
<g id="part-0" class="char-part">
  <path d="M626 543 c3 -21 1 -43 -3 -49 -4 -7 -33 -15 -64 -19 l-56 -7 -9 34
c-7 23 -16 34 -33 36 -22 4 -23 3 -7 -19 27 -39 21 -59 -16 -59 -48 0 -67 -16
-29 -23 17 -4 38 -4 46 -1 11 4 19 -3 26 -25 8 -23 17 -31 36 -31 20 0 24 -4
21 -22 -3 -21 -8 -23 -70 -23 -38 0 -67 -2 -65 -5 1 -3 11 -24 21 -47 18 -42
19 -43 57 -37 43 7 72 -8 62 -32 -3 -9 -20 -14 -49 -14 -59 0 -56 -18 3 -22
26 -2 48 -9 51 -15 4 -14 -3 -18 -63 -29 l-40 -8 49 -6 c41 -4 50 -9 52 -27 3
-20 -1 -22 -96 -28 -55 -4 -100 -11 -100 -15 0 -16 58 -21 121 -11 35 6 130
11 212 11 81 0 147 4 147 9 0 5 -13 14 -30 21 -22 9 -48 10 -111 1 -105 -14
-99 -15 -99 13 0 25 21 36 73 36 15 0 27 5 27 10 0 6 -22 10 -50 10 -42 0 -50
3 -50 19 0 15 10 20 55 26 33 4 53 11 49 17 -4 6 -26 7 -55 3 -48 -7 -49 -6
-49 19 0 24 3 25 65 28 36 2 64 6 63 10 -2 3 8 18 22 33 25 26 25 27 5 41 -15
11 -35 13 -80 9 -60 -7 -61 -7 -63 19 -1 21 3 26 22 26 19 0 25 7 30 35 l7 35
70 0 c52 0 70 3 66 13 -2 8 -24 12 -60 12 -57 0 -62 4 -51 38 7 24 -13 47 -41
47 -21 0 -23 -4 -19 -37z m-16 -102 c0 -20 -25 -31 -72 -31 -39 0 -39 37 0 43
61 9 72 7 72 -12z m80 -131 c0 -12 -10 -20 -31 -24 -57 -11 -71 -8 -67 16 5
38 98 45 98 8z m-150 -14 c0 -20 -6 -25 -36 -28 -29 -3 -37 0 -44 16 -8 22 5
29 58 34 17 1 22 -3 22 -22z"/>
  <path d="M265 479 c-22 -5 -61 -11 -87 -14 -27 -4 -48 -10 -48 -16 0 -9 15
-12 75 -13 30 -1 30 -1 30 -61 l0 -60 -37 -3 c-51 -4 -48 -20 5 -24 l42 -3 1
-52 c1 -28 -1 -55 -5 -60 -3 -4 -35 -18 -71 -29 l-65 -20 29 -19 28 -19 67 34
c165 84 212 117 121 85 -59 -21 -60 -20 -60 29 0 62 7 76 40 76 16 0 32 5 35
10 4 6 -8 10 -29 10 l-36 0 0 60 c0 57 1 60 24 60 35 0 78 18 71 30 -7 12 -73
11 -130 -1z"/>
</g>
<g id="part-1" class="char-part">
  <path d="M270 475 c-36 -7 -80 -13 -97 -14 -61 -2 -34 -21 30 -21 74 1 178 21
178 35 0 14 -37 14 -111 0z"/>
</g>
<g id="part-2" class="char-part">
  <path d="M255 443 c-18 -3 -20 -10 -16 -60 3 -61 -5 -73 -51 -73 -15 0 -30 -4
-33 -10 -4 -6 11 -10 38 -10 51 0 57 -8 57 -75 l0 -44 -70 -22 c-56 -17 -68
-25 -59 -35 25 -30 49 -25 157 31 137 73 158 91 72 60 -23 -8 -47 -15 -52 -15
-5 0 -8 24 -6 52 3 56 1 53 77 75 23 6 4 15 -33 15 l-36 0 0 53 c0 55 -7 64
-45 58z"/>
</g>
<g id="part-3" class="char-part">
  <path d="M624 536 c1 -24 -1 -47 -4 -49 -3 -3 -30 -8 -60 -12 l-55 -7 -10 34
c-7 23 -17 34 -33 36 -23 3 -23 3 -8 -27 23 -43 20 -51 -16 -51 -18 0 -40 -5
-48 -10 -15 -10 -7 -12 60 -14 17 -1 26 -8 30 -26 7 -27 21 -28 126 -15 38 5
43 9 48 40 l7 35 64 0 c65 0 93 13 54 25 -11 4 -40 4 -64 0 l-43 -6 11 36 c12
40 2 55 -39 55 -18 0 -21 -6 -20 -44z m-14 -95 c0 -20 -25 -31 -72 -31 -39 0
-39 37 0 43 61 9 72 7 72 -12z"/>
</g>
<g id="part-4" class="char-part">
  <path d="M535 369 c10 -29 -9 -39 -76 -39 l-56 0 25 -52 c14 -29 27 -47 29
-40 3 7 21 12 44 12 32 0 39 -3 39 -20 0 -15 7 -20 25 -20 20 0 25 5 25 25 0
24 3 25 58 25 31 0 64 5 72 10 8 5 11 10 6 10 -5 0 1 11 14 25 35 37 15 51
-70 47 -56 -2 -68 0 -64 12 5 13 -22 26 -59 26 -14 0 -17 -5 -12 -21z m155
-59 c0 -19 -27 -30 -72 -30 -23 0 -28 4 -28 24 0 19 6 25 28 28 45 5 72 -3 72
-22z m-145 -17 c2 -30 -62 -44 -82 -17 -19 26 -16 32 15 37 49 8 65 3 67 -20z"/>
</g>
<g id="part-5" class="char-part">
  <path d="M665 71 c-24 -6 -18 -8 38 -14 72 -7 109 -1 85 14 -15 10 -79 10
-123 0z"/>
  <path d="M360 50 c0 -4 11 -10 25 -12 13 -3 22 -1 19 4 -3 5 13 6 35 2 28 -5
41 -3 41 5 0 8 -20 11 -60 10 -33 -1 -60 -5 -60 -9z"/>
  <path d="M508 53 c12 -2 32 -2 45 0 12 2 2 4 -23 4 -25 0 -35 -2 -22 -4z"/>
  <path d="M588 53 c6 -2 18 -2 25 0 6 3 1 5 -13 5 -14 0 -19 -2 -12 -5z"/>
</g>
</g>
</svg>