<?xml version="1.0" standalone="no"?>
<!DOCTYPE svg PUBLIC "-//W3C//DTD SVG 20010904//EN"
 "http://www.w3.org/TR/2001/REC-SVG-20010904/DTD/svg10.dtd">
<svg version="1.0" xmlns="http://www.w3.org/2000/svg"
 width="96.000000pt" height="68.000000pt" viewBox="0 0 96.000000 68.000000"
 preserveAspectRatio="xMidYMid meet">
<metadata>
Created by potrace 1.16, written by Peter Selinger 2001-2019
Combined from part_0.svg through part_5.svg with named groups
</metadata>
<g transform="translate(0.000000,68.000000) scale(0.100000,-0.100000)" fill="#000000" stroke="none">
<g id="part-0" class="char-part">
  <path d="M590 570 c-30 -5 -85 -8 -121 -9 l-65 -1 4 -62 c3 -33 -1 -92 -8
-131 -8 -45 -9 -72 -2 -79 6 -6 35 -6 83 1 41 6 115 12 164 13 l90 3 0 -60 c0
-104 -43 -163 -100 -137 -32 15 -31 9 1 -34 31 -40 54 -43 86 -11 34 33 45 57
62 138 9 41 19 84 22 95 9 32 -37 44 -145 37 -90 -6 -90 -6 -86 17 6 31 8 32
65 38 68 6 64 22 -6 22 -52 0 -55 1 -52 23 3 19 12 23 61 31 31 5 57 13 57 18
0 5 -26 8 -57 7 l-58 -3 0 30 c0 27 3 29 40 32 59 4 87 11 80 22 -7 11 -33 11
-115 0z m-62 -66 c3 -30 1 -32 -38 -36 -23 -2 -43 -1 -45 2 -8 13 9 59 24 63
39 11 56 3 59 -29z m7 -72 c8 -22 -6 -33 -54 -39 -38 -5 -41 -4 -41 19 0 32 1
33 48 35 29 1 42 -4 47 -15z m3 -86 c0 -26 -20 -36 -75 -36 -28 0 -33 4 -33
23 0 33 7 37 60 37 44 0 48 -2 48 -24z"/>
  <path d="M181 482 c18 -28 77 -65 94 -58 8 3 15 15 15 26 0 23 -51 50 -95 50
-22 0 -24 -2 -14 -18z"/>
  <path d="M259 327 c-25 -23 -67 -53 -93 -65 -50 -25 -59 -54 -24 -76 13 -8 21
-5 38 17 12 15 43 50 68 78 79 86 85 113 11 46z"/>
  <path d="M610 254 c0 -7 18 -23 58 -51 26 -18 47 -7 36 20 -7 20 -94 48 -94
31z"/>
  <path d="M520 232 c0 -16 48 -54 59 -47 19 11 12 31 -14 43 -30 14 -45 15 -45
4z"/>
  <path d="M300 187 c-25 -47 -22 -81 6 -75 31 6 53 118 24 118 -4 0 -18 -20
-30 -43z"/>
  <path d="M410 224 c0 -18 43 -62 55 -57 24 9 17 31 -15 48 -32 16 -40 18 -40
9z"/>
</g>
<g id="part-1" class="char-part">
  <path d="M180 492 c0 -16 69 -64 87 -60 26 5 26 25 1 41 -30 19 -88 32 -88 19z"/>
</g>
<g id="part-2" class="char-part">
  <path d="M264 329 c-27 -22 -71 -52 -99 -66 -27 -14 -51 -27 -53 -28 -9 -8 24
-55 38 -53 9 2 45 37 80 78 110 127 115 137 34 69z"/>
</g>
<g id="part-3" class="char-part">
  <path d="M590 569 c-25 -4 -76 -8 -115 -8 l-70 -1 -2 -103 c-1 -56 -3 -118 -5
-137 -4 -41 -16 -40 195 -20 93 9 137 17 137 26 0 13 -85 11 -209 -7 -40 -6
-77 -7 -82 -2 -8 8 6 201 16 211 2 3 46 8 97 13 123 11 160 18 153 30 -7 10
-50 10 -115 -2z"/>
</g>
<g id="part-4" class="char-part">
  <path d="M530 506 c0 -34 -1 -35 -42 -38 -53 -4 -52 -24 1 -21 34 1 40 -2 44
-23 4 -22 0 -24 -44 -30 -64 -9 -63 -24 1 -24 43 0 50 -3 50 -20 0 -28 28 -25
32 3 2 18 12 24 60 32 79 14 83 25 9 25 -59 0 -62 1 -59 23 3 19 12 23 61 31
76 12 74 30 -3 24 l-60 -4 0 28 c0 23 -4 28 -25 28 -22 0 -25 -4 -25 -34z"/>
</g>
<g id="part-5" class="char-part">
  <path d="M634 238 c-4 -6 -3 -8 4 -4 6 3 13 -3 17 -14 7 -22 45 -28 45 -7 0 8
-11 19 -25 25 -32 15 -32 15 -41 0z"/>
  <path d="M530 226 c0 -2 12 -11 26 -21 24 -16 26 -16 22 1 -2 14 -48 33 -48
20z"/>
  <path d="M310 185 c-7 -19 -17 -32 -22 -29 -11 7 -10 -8 2 -26 9 -13 10 -13
10 0 0 12 2 13 9 1 7 -11 11 -8 17 10 10 32 13 79 4 79 -3 0 -12 -16 -20 -35z"/>
  <path d="M435 204 c11 -8 19 -18 17 -22 -2 -3 2 -8 10 -10 9 -2 8 0 -2 7 -13
10 -13 11 0 11 11 1 10 4 -4 15 -11 8 -25 15 -30 15 -6 0 -2 -7 9 -16z"/>
</g>
</g>
</svg>