<?xml version="1.0" standalone="no"?>
<!DOCTYPE svg PUBLIC "-//W3C//DTD SVG 20010904//EN"
 "http://www.w3.org/TR/2001/REC-SVG-20010904/DTD/svg10.dtd">
<svg version="1.0" xmlns="http://www.w3.org/2000/svg"
 width="96.000000pt" height="68.000000pt" viewBox="0 0 96.000000 68.000000"
 preserveAspectRatio="xMidYMid meet">
<metadata>
Created by potrace 1.16, written by Peter Selinger 2001-2019
Combined from part_0.svg through part_5.svg with named groups
</metadata>
<g transform="translate(0.000000,68.000000) scale(0.100000,-0.100000)" fill="#000000" stroke="none">
<g id="part-0" class="char-part">
  <path d="M307 623 c-4 -3 -1 -16 7 -29 15 -21 14 -22 -40 -29 -53 -6 -67 -25
-18 -25 17 0 27 -8 34 -26 6 -14 10 -27 10 -29 0 -2 -31 -7 -70 -11 -38 -3
-70 -11 -70 -15 0 -13 42 -11 145 6 50 8 107 15 128 15 20 0 37 5 37 10 0 6
-18 10 -41 10 l-40 0 21 30 c12 17 28 30 37 30 8 0 13 6 10 13 -3 8 -20 11
-52 9 -29 -2 -45 1 -41 7 4 5 -4 17 -16 25 -25 18 -32 19 -41 9z m59 -119 c-8
-22 -36 -17 -45 9 -7 19 -5 23 18 27 27 6 38 -8 27 -36z"/>
  <path d="M480 611 c0 -6 5 -13 11 -17 7 -4 9 -21 5 -46 l-7 -40 66 7 c54 5 65
4 65 -8 0 -18 -30 -27 -89 -27 -40 0 -43 -2 -37 -22 3 -13 6 -45 6 -71 0 -45
2 -49 35 -63 69 -28 236 -13 259 25 7 10 -22 60 -35 61 -4 0 -10 -11 -13 -25
-7 -29 -55 -45 -136 -45 -67 0 -107 19 -45 21 22 1 54 5 70 10 22 6 11 7 -37
5 -84 -5 -90 10 -8 19 76 9 69 25 -8 19 -40 -3 -51 -2 -37 5 11 5 34 10 52 10
17 1 35 6 39 12 5 9 -9 10 -50 5 -33 -5 -56 -4 -56 2 0 11 47 22 91 22 22 0
29 5 29 19 0 11 5 23 10 26 25 16 -7 27 -68 23 -46 -2 -66 1 -69 10 -3 8 7 12
30 12 49 0 97 11 97 22 0 6 -23 7 -59 3 -54 -6 -59 -5 -64 14 -5 21 -47 31
-47 12z"/>
  <path d="M360 449 c-14 -4 -40 -7 -57 -8 -29 -1 -33 -4 -33 -30 0 -15 -3 -49
-6 -75 -8 -52 10 -65 27 -18 8 24 14 27 59 29 28 0 50 -3 50 -8 0 -5 -10 -9
-22 -9 -20 0 -20 -1 -5 -18 28 -31 20 -39 -50 -47 -59 -7 -64 -9 -39 -16 16
-4 33 -6 37 -4 11 7 16 -14 18 -81 l2 -62 -95 -7 c-53 -4 -94 -11 -90 -16 7
-12 93 -11 165 0 31 5 87 11 125 12 l69 3 3 -40 c2 -21 7 -43 12 -48 11 -11
30 34 30 70 l0 24 120 0 c66 0 120 4 120 9 0 23 -59 33 -129 22 -113 -18 -111
-18 -111 37 0 76 8 92 44 92 17 0 37 4 45 9 28 18 -12 23 -125 16 -108 -7
-127 -3 -105 21 5 5 11 38 13 73 3 62 2 65 -22 71 -14 4 -36 3 -50 -1z m40
-24 c0 -8 -8 -15 -19 -15 -10 0 -33 -3 -50 -6 -24 -5 -31 -3 -31 9 0 16 21 23
73 26 18 1 27 -4 27 -14z m0 -44 c0 -11 -35 -21 -72 -21 -29 0 -38 14 -15 23
21 9 87 7 87 -2z m120 -135 c0 -21 -6 -23 -82 -31 -64 -7 -66 -6 -61 13 5 21
25 27 106 30 26 2 37 -2 37 -12z m0 -59 c0 -10 -17 -16 -52 -21 -80 -9 -88 -8
-88 12 0 17 9 19 70 21 55 2 70 -1 70 -12z m0 -50 c0 -18 -30 -27 -92 -27 -39
0 -48 3 -48 18 0 14 11 18 70 20 56 3 70 0 70 -11z"/>
</g>
<g id="part-1" class="char-part">
  <path d="M312 608 c6 -16 36 -34 44 -26 3 4 4 14 1 23 -7 17 -51 21 -45 3z"/>
  <path d="M375 575 c-5 -2 -40 -6 -78 -10 -43 -4 -65 -10 -61 -17 10 -16 214 6
214 23 0 9 -54 11 -75 4z"/>
</g>
<g id="part-2" class="char-part">
  <path d="M750 404 c0 -36 -34 -56 -104 -61 -35 -3 -77 -2 -93 2 -25 7 -20 10
42 21 l70 13 -67 -3 c-38 -1 -68 2 -68 6 0 4 -7 8 -15 8 -9 0 -15 -10 -15 -26
0 -19 8 -28 35 -40 50 -20 181 -19 224 4 44 22 46 30 16 67 -22 27 -25 28 -25
9z"/>
</g>
<g id="part-3" class="char-part">
  <path d="M391 274 c-147 -16 -159 -19 -106 -29 50 -10 55 -17 55 -82 0 -46 3
-53 20 -53 11 0 20 6 20 14 0 13 48 26 103 26 15 0 27 5 27 10 0 7 -23 8 -65
4 -55 -6 -65 -4 -65 9 0 19 21 27 75 27 24 0 47 5 51 12 5 8 -10 9 -59 4 -62
-6 -67 -5 -67 12 0 23 39 32 140 32 81 0 141 10 134 21 -7 12 -115 9 -263 -7z"/>
</g>
<g id="part-4" class="char-part">
  <path d="M517 190 c1 -82 10 -76 -137 -85 -58 -4 -134 -10 -170 -14 -60 -7
-63 -8 -38 -19 20 -8 49 -7 120 3 51 7 123 15 161 19 l67 5 0 -49 c0 -28 4
-50 9 -50 10 0 31 54 31 81 0 17 10 19 120 19 120 0 148 9 88 29 -22 7 -54 7
-98 1 -119 -18 -113 -21 -108 60 l5 70 -26 0 c-26 0 -26 -1 -24 -70z"/>
</g>
</g>
</svg>