<?xml version="1.0" standalone="no"?>
<!DOCTYPE svg PUBLIC "-//W3C//DTD SVG 20010904//EN"
 "http://www.w3.org/TR/2001/REC-SVG-20010904/DTD/svg10.dtd">
<svg version="1.0" xmlns="http://www.w3.org/2000/svg"
 width="96.000000pt" height="68.000000pt" viewBox="0 0 96.000000 68.000000"
 preserveAspectRatio="xMidYMid meet">
<metadata>
Created by potrace 1.16, written by Peter Selinger 2001-2019
Combined from part_0.svg through part_5.svg with named groups
</metadata>
<g transform="translate(0.000000,68.000000) scale(0.100000,-0.100000)" fill="#000000" stroke="none">
<g id="part-0" class="char-part">
  <path d="M536 547 c-3 -13 -21 -43 -40 -67 -36 -45 -40 -66 -9 -38 10 9 44 19
76 22 63 8 68 2 45 -49 -9 -20 -17 -25 -32 -20 -12 4 -32 9 -46 11 -21 5 -20
3 7 -12 42 -21 31 -40 -51 -86 -24 -13 -27 -17 -12 -18 11 0 44 14 73 30 l54
31 47 -33 c42 -30 53 -33 111 -31 86 3 100 19 25 29 -76 9 -160 39 -156 56 2
7 16 27 31 43 30 31 31 54 3 56 -9 1 0 5 21 8 21 3 39 11 40 16 4 17 -41 17
-107 1 -84 -21 -85 -21 -46 19 29 30 32 37 20 45 -26 16 -48 11 -54 -13z"/>
  <path d="M175 540 c-5 -9 31 -43 63 -60 42 -21 72 11 37 40 -18 15 -94 30
-100 20z"/>
  <path d="M351 508 c-15 -49 -31 -76 -84 -140 -41 -50 -38 -62 7 -27 14 11 31
17 37 14 12 -8 4 -140 -12 -217 -11 -46 -5 -88 11 -88 15 0 22 35 32 174 9
115 8 140 -3 147 -10 6 -11 13 -4 23 82 118 86 127 75 141 -23 28 -46 17 -59
-27z"/>
  <path d="M115 359 c43 -51 80 -64 92 -33 9 24 -19 45 -68 51 l-44 6 20 -24z"/>
  <path d="M393 288 c-2 -88 1 -100 21 -92 20 8 16 168 -4 172 -12 2 -15 -13
-17 -80z"/>
  <path d="M565 271 c5 -24 2 -29 -17 -35 -13 -3 -35 -6 -50 -6 -15 0 -30 -4
-33 -10 -4 -6 14 -10 46 -10 l52 0 -24 -21 c-13 -11 -34 -29 -46 -39 -12 -11
-41 -31 -63 -46 -22 -15 -39 -29 -37 -31 8 -7 93 36 132 67 l40 32 3 -66 c3
-58 5 -66 22 -66 18 0 20 7 20 70 0 39 2 70 4 70 2 0 25 -20 50 -45 43 -41 51
-45 96 -45 67 0 71 15 8 34 -61 18 -148 70 -148 88 0 9 18 14 51 15 28 1 59 5
68 8 30 13 -20 24 -78 18 -48 -5 -54 -4 -48 10 4 11 -1 20 -13 27 -32 17 -42
12 -35 -19z"/>
  <path d="M217 251 c-10 -17 -40 -54 -67 -84 -47 -51 -49 -56 -39 -85 12 -35
33 -47 48 -28 12 14 91 204 91 218 0 17 -16 7 -33 -21z"/>
</g>
<g id="part-1" class="char-part">
  <path d="M208 510 c37 -35 72 -40 72 -11 0 20 -44 41 -84 41 -19 -1 -18 -4 12
-30z"/>
  <path d="M110 372 c0 -5 10 -18 23 -30 30 -28 67 -29 67 -2 0 14 -11 22 -37
29 -46 13 -53 13 -53 3z"/>
  <path d="M210 232 c-14 -20 -43 -56 -64 -80 -35 -38 -38 -46 -30 -70 19 -54
38 -38 83 73 24 58 42 108 40 110 -3 2 -16 -13 -29 -33z"/>
</g>
<g id="part-2" class="char-part">
  <path d="M354 527 c-9 -45 -30 -83 -80 -150 -24 -31 -44 -60 -44 -63 0 -4 16
6 36 21 24 18 39 24 46 17 9 -9 1 -117 -18 -242 -3 -23 0 -42 10 -55 14 -20
15 -20 24 5 15 39 25 300 12 315 -8 10 1 29 35 78 25 36 45 69 45 75 0 5 -13
15 -29 20 -28 10 -30 9 -37 -21z"/>
</g>
<g id="part-3" class="char-part">
  <path d="M395 283 c0 -71 3 -88 15 -88 22 0 22 168 0 173 -13 2 -16 -11 -15
-85z"/>
</g>
<g id="part-4" class="char-part">
  <path d="M562 268 c3 -33 3 -33 -52 -38 -57 -6 -52 -17 9 -22 l35 -3 -42 -39
c-22 -22 -63 -52 -89 -67 -26 -16 -43 -29 -37 -29 22 0 90 33 136 67 l47 34 3
-63 c2 -48 7 -63 18 -63 12 0 16 16 18 68 l3 68 51 -45 c45 -41 55 -46 99 -46
27 0 49 4 49 9 0 4 -26 18 -58 30 -33 11 -79 35 -103 53 -39 28 -41 32 -24 39
11 4 44 8 73 8 28 1 52 5 52 10 0 14 -33 19 -89 13 -46 -4 -51 -3 -51 16 0 18
-18 32 -41 32 -5 0 -8 -15 -7 -32z"/>
</g>
</g>
</svg>