<?xml version="1.0" standalone="no"?>
<!DOCTYPE svg PUBLIC "-//W3C//DTD SVG 20010904//EN"
 "http://www.w3.org/TR/2001/REC-SVG-20010904/DTD/svg10.dtd">
<svg version="1.0" xmlns="http://www.w3.org/2000/svg"
 width="96.000000pt" height="68.000000pt" viewBox="0 0 96.000000 68.000000"
 preserveAspectRatio="xMidYMid meet">
<metadata>
Created by potrace 1.16, written by Peter Selinger 2001-2019
Combined from part_0.svg through part_5.svg with named groups
</metadata>
<g transform="translate(0.000000,68.000000) scale(0.100000,-0.100000)" fill="#000000" stroke="none">
<g id="part-0" class="char-part">
  <path d="M238 439 c3 -81 -1 -199 -7 -263 -13 -118 -7 -156 23 -156 22 0 24
17 32 208 l7 180 20 -19 c12 -10 29 -19 40 -19 31 0 17 43 -20 60 -31 14 -33
18 -33 71 0 58 -8 72 -45 81 -21 5 -21 2 -17 -143z"/>
  <path d="M635 553 l-31 -4 -2 -84 c-1 -78 9 -114 27 -88 3 6 25 14 48 18 34 5
44 4 49 -9 7 -19 34 -21 35 -3 1 6 2 49 3 95 l2 82 -51 -2 c-27 0 -64 -3 -80
-5z m90 -28 c0 -5 -19 -11 -42 -13 -34 -3 -43 0 -43 13 0 13 9 16 43 13 23 -2
42 -7 42 -13z m1 -54 c-11 -17 -86 -14 -86 3 0 10 13 16 38 18 40 3 58 -4 48
-21z m-1 -31 c7 -12 -36 -30 -71 -30 -37 0 -24 24 17 31 19 4 37 7 41 8 4 0
10 -4 13 -9z"/>
  <path d="M395 458 c0 -64 4 -93 13 -95 6 -3 12 0 12 6 0 14 97 15 105 1 5 -8
11 -8 20 0 10 8 13 36 13 96 l-2 84 -80 0 -81 0 0 -92z m123 60 c2 -12 -7 -17
-40 -20 -62 -6 -77 24 -18 35 39 7 55 3 58 -15z m-3 -57 c-12 -11 -85 -18 -85
-8 0 4 0 11 0 16 0 12 71 19 85 9 6 -5 6 -11 0 -17z m-5 -31 c21 -13 10 -19
-45 -27 -38 -5 -47 -3 -43 8 4 12 17 17 68 28 3 0 12 -3 20 -9z"/>
  <path d="M142 377 c-26 -63 -27 -71 -6 -88 14 -11 19 -10 36 11 14 17 18 36
16 73 -2 28 -8 52 -14 54 -5 2 -20 -20 -32 -50z"/>
  <path d="M446 328 c-7 -18 -34 -54 -60 -80 -47 -49 -50 -62 -6 -28 14 11 31
20 38 20 15 0 16 -56 1 -115 -12 -47 -6 -95 12 -95 6 0 13 9 16 20 4 17 14 20
58 20 28 0 107 3 173 7 98 5 122 9 122 21 0 12 -16 14 -90 10 -87 -4 -90 -4
-90 18 0 25 17 34 66 34 19 0 34 5 34 10 0 6 -22 10 -50 10 -43 0 -50 3 -50
20 0 16 7 20 38 20 42 0 82 18 47 21 -11 1 -35 1 -52 0 -27 -2 -33 1 -33 17 0
21 24 32 75 32 17 0 36 4 43 9 22 14 -15 23 -65 15 -36 -5 -43 -4 -43 10 0 9
-12 21 -26 27 -30 11 -43 4 -26 -13 24 -24 12 -35 -40 -41 -60 -6 -66 -3 -48
18 7 8 10 22 6 30 -9 26 -35 17 -50 -17z m129 -73 c0 -17 -8 -20 -53 -23 -50
-3 -82 8 -82 29 0 7 80 17 120 15 8 -1 15 -10 15 -21z m5 -64 c0 -19 -34 -31
-91 -31 -24 0 -29 4 -29 25 0 24 3 25 60 25 52 0 60 -2 60 -19z m0 -70 c0 -23
-19 -31 -76 -31 -40 0 -44 2 -44 25 0 24 3 25 60 25 52 0 60 -2 60 -19z"/>
</g>
<g id="part-1" class="char-part">
  <path d="M236 553 c13 -41 8 -341 -6 -416 -13 -69 -4 -107 25 -107 8 0 16 1
17 3 0 1 4 84 7 184 3 100 9 184 13 188 3 4 16 -3 28 -15 23 -23 43 -22 48 2
2 11 -11 22 -38 34 l-41 18 6 49 c8 53 -11 87 -48 87 -16 0 -18 -4 -11 -27z"/>
  <path d="M146 377 c-22 -59 -21 -87 4 -87 14 0 22 11 30 41 12 42 7 89 -9 89
-4 0 -16 -19 -25 -43z"/>
</g>
<g id="part-2" class="char-part">
  <path d="M447 552 c-65 -3 -67 -4 -56 -24 6 -11 9 -43 7 -69 -5 -48 4 -62 28
-40 14 13 94 23 94 11 0 -5 8 -10 18 -10 16 0 18 9 19 64 1 74 2 73 -110 68z
m70 -27 c7 -20 6 -21 -44 -28 -37 -4 -43 -3 -43 13 0 28 77 41 87 15z m3 -50
c0 -13 -10 -17 -72 -30 -12 -2 -18 3 -18 15 0 14 9 20 38 23 20 2 40 4 45 5 4
1 7 -5 7 -13z"/>
</g>
<g id="part-3" class="char-part">
  <path d="M728 431 c-5 -13 -98 -24 -98 -12 0 6 -7 11 -15 11 -9 0 -15 -9 -15
-24 0 -27 18 -45 29 -29 3 6 25 14 48 18 34 5 44 4 49 -9 13 -35 44 -11 44 35
0 19 -35 28 -42 10z"/>
</g>
<g id="part-4" class="char-part">
  <path d="M580 191 c0 -19 -34 -31 -91 -31 -16 0 -29 -5 -29 -11 0 -7 21 -10
60 -7 56 3 60 1 60 -18 0 -26 -17 -34 -76 -34 -26 0 -44 -5 -44 -11 0 -13 329
-3 344 11 20 19 -66 28 -146 14 -35 -5 -38 -4 -38 19 0 28 16 37 66 37 19 0
34 5 34 11 0 7 -18 10 -50 7 -42 -2 -50 0 -50 15 0 10 -8 17 -20 17 -13 0 -20
-7 -20 -19z"/>
</g>
</g>
</svg>