<?xml version="1.0" standalone="no"?>
<!DOCTYPE svg PUBLIC "-//W3C//DTD SVG 20010904//EN"
 "http://www.w3.org/TR/2001/REC-SVG-20010904/DTD/svg10.dtd">
<svg version="1.0" xmlns="http://www.w3.org/2000/svg"
 width="96.000000pt" height="68.000000pt" viewBox="0 0 96.000000 68.000000"
 preserveAspectRatio="xMidYMid meet">
<metadata>
Created by potrace 1.16, written by Peter Selinger 2001-2019
Combined from part_0.svg through part_5.svg with named groups
</metadata>
<g transform="translate(0.000000,68.000000) scale(0.100000,-0.100000)" fill="#000000" stroke="none">
<g id="part-0" class="char-part">
  <path d="M400 591 c0 -5 7 -14 15 -21 8 -7 13 -16 10 -20 -3 -5 -55 -12 -115
-15 -136 -9 -157 -25 -58 -44 l43 -8 -57 -56 c-43 -42 -53 -58 -44 -66 8 -7
24 -7 50 0 21 6 40 8 43 5 6 -5 -75 -66 -89 -66 -14 0 -9 -30 8 -37 8 -3 38 2
66 11 28 9 57 16 65 16 27 0 -17 -56 -76 -95 -32 -21 -45 -34 -31 -30 38 11
115 62 136 91 11 15 25 33 33 41 13 14 12 17 -4 29 -24 18 -45 18 -45 0 0 -14
-29 -26 -67 -26 -13 0 -23 3 -23 8 0 4 32 29 70 55 71 49 84 69 53 81 -16 6
-43 -16 -43 -34 0 -11 -49 -30 -75 -30 -34 0 -31 13 8 45 17 14 40 33 51 42
15 12 16 17 5 24 -8 5 -9 9 -4 9 64 2 398 30 402 34 3 2 2 9 -1 15 -11 18 -72
23 -148 13 -71 -10 -74 -9 -91 14 -13 17 -29 24 -53 24 -19 0 -34 -4 -34 -9z"/>
  <path d="M480 455 c-6 -20 -23 -49 -37 -66 -31 -37 -25 -47 10 -18 l27 20 0
-39 c0 -22 -3 -60 -6 -86 -6 -39 -10 -46 -29 -46 -21 0 -23 -4 -18 -40 l6 -40
-57 0 c-74 0 -73 -18 2 -22 53 -3 57 -5 57 -28 0 -23 -4 -25 -65 -31 -36 -4
-93 -7 -127 -8 -35 0 -63 -5 -63 -11 0 -19 55 -23 179 -11 69 7 191 13 270 14
102 1 146 6 148 14 7 21 -66 33 -142 23 -38 -5 -89 -9 -113 -10 -41 0 -43 1
-40 27 2 21 9 29 28 31 81 8 110 14 110 23 0 5 -29 9 -65 9 -68 0 -78 8 -52
43 9 14 39 20 135 29 76 7 119 15 113 21 -5 5 -37 8 -70 5 -34 -2 -61 -1 -61
3 0 22 13 36 30 32 10 -3 27 0 37 6 16 9 15 11 -9 12 -49 3 -51 4 -54 22 -1
12 5 17 19 17 42 0 51 17 13 24 -47 9 -46 23 2 31 53 9 62 13 62 26 0 8 -14
10 -45 6 -35 -5 -43 -4 -39 7 6 17 -29 39 -53 34 -15 -3 -15 -4 0 -20 26 -26
21 -35 -25 -41 -51 -7 -55 -4 -39 27 8 13 10 29 7 35 -14 22 -35 10 -46 -24z
m94 -61 c8 -3 12 -12 9 -20 -7 -19 -73 -19 -73 0 0 21 33 32 64 20z m14 -71
c-2 -13 -14 -19 -41 -21 -32 -3 -37 0 -37 17 0 18 6 21 41 21 33 0 40 -3 37
-17z m2 -57 c0 -14 -55 -30 -71 -20 -5 3 -9 12 -9 20 0 10 12 14 40 14 27 0
40 -4 40 -14z"/>
</g>
<g id="part-1" class="char-part">
  <path d="M400 594 c0 -4 9 -18 20 -30 l21 -21 -73 -7 c-140 -13 -170 -18 -159
-29 6 -6 89 -4 238 7 125 9 238 16 251 16 34 0 26 20 -10 27 -18 4 -35 7 -38
6 -3 0 -40 -4 -82 -8 -66 -6 -78 -4 -78 9 0 8 -3 17 -8 20 -15 9 -82 18 -82
10z"/>
</g>
<g id="part-2" class="char-part">
  <path d="M270 465 c-12 -19 -37 -47 -56 -62 -29 -21 -33 -29 -22 -39 11 -11
22 -11 63 0 36 10 43 15 25 16 -14 1 -28 2 -32 1 -20 -3 -4 18 42 54 52 41 58
58 23 63 -15 2 -27 -7 -43 -33z"/>
</g>
<g id="part-3" class="char-part">
  <path d="M604 342 c-6 -4 -13 -15 -17 -24 -4 -13 -17 -18 -42 -18 -19 0 -35
-4 -35 -10 0 -5 18 -10 40 -10 27 0 40 -4 40 -14 0 -8 -16 -16 -40 -20 -59 -9
-52 -30 8 -23 26 4 80 9 120 13 91 8 97 28 7 22 -56 -3 -65 -2 -65 13 0 12 12
19 43 24 39 6 40 7 18 16 -14 5 -31 7 -38 5 -8 -3 -17 3 -21 14 -4 11 -12 16
-18 12z"/>
</g>
<g id="part-4" class="char-part">
  <path d="M427 181 l6 -41 -51 0 c-28 0 -54 -4 -57 -10 -4 -6 17 -10 54 -10 60
0 61 0 61 -29 0 -28 -1 -28 -77 -35 -42 -3 -100 -6 -130 -6 -29 0 -53 -4 -53
-10 0 -19 57 -23 165 -12 60 7 169 12 240 13 72 1 148 4 170 9 l40 7 -37 17
c-31 13 -49 14 -105 6 -37 -5 -92 -10 -121 -10 -52 0 -53 1 -50 28 2 20 9 28
28 30 82 8 110 14 110 24 0 7 -22 9 -63 6 l-64 -5 -9 31 c-7 23 -16 32 -36 34
-25 3 -26 2 -21 -37z"/>
</g>
</g>
</svg>