<?xml version="1.0" standalone="no"?>
<!DOCTYPE svg PUBLIC "-//W3C//DTD SVG 20010904//EN"
 "http://www.w3.org/TR/2001/REC-SVG-20010904/DTD/svg10.dtd">
<svg version="1.0" xmlns="http://www.w3.org/2000/svg"
 width="96.000000pt" height="68.000000pt" viewBox="0 0 96.000000 68.000000"
 preserveAspectRatio="xMidYMid meet">
<metadata>
Created by potrace 1.16, written by Peter Selinger 2001-2019
Combined from part_0.svg through part_5.svg with named groups
</metadata>
<g transform="translate(0.000000,68.000000) scale(0.100000,-0.100000)" fill="#000000" stroke="none">
<g id="part-0" class="char-part">
  <path d="M454 578 c31 -43 22 -55 -46 -63 -35 -3 -92 -11 -127 -17 -51 -8 -60
-13 -46 -21 17 -9 194 6 230 19 8 3 16 -4 20 -18 18 -60 91 -247 109 -278 53
-93 108 -155 160 -182 47 -24 66 -13 48 27 -7 14 -12 41 -12 60 0 43 -18 46
-26 5 -4 -16 -11 -30 -16 -30 -23 0 -92 83 -133 160 -43 79 -101 247 -90 258
3 3 22 5 42 4 21 -1 47 1 57 4 35 11 -22 35 -66 28 -35 -5 -38 -4 -38 18 0 32
-18 48 -53 48 -27 0 -28 -1 -13 -22z"/>
  <path d="M627 584 c-12 -13 56 -84 80 -84 46 0 37 51 -12 70 -44 16 -62 20
-68 14z"/>
  <path d="M303 433 c-18 -2 -33 -9 -33 -15 0 -13 150 -2 164 13 10 9 -64 10
-131 2z"/>
  <path d="M260 370 c-63 -10 -116 -19 -118 -19 -2 -1 0 -5 3 -11 9 -14 55 -12
133 4 37 8 97 18 135 21 37 4 67 11 67 16 0 14 -92 9 -220 -11z"/>
  <path d="M358 315 c-4 -5 -49 -11 -93 -14 -18 -1 -20 -9 -22 -69 -3 -84 3
-116 22 -108 8 3 17 0 21 -5 7 -12 -30 -54 -68 -77 -47 -28 -31 -34 20 -8 70
37 110 73 93 85 -20 13 89 20 111 7 9 -6 20 -8 23 -5 3 4 7 47 10 97 4 86 3
90 -18 96 -27 7 -92 8 -99 1z m72 -35 c0 -17 -7 -20 -39 -20 -50 0 -101 -10
-101 -20 0 -5 8 -7 18 -5 9 2 41 6 70 9 47 5 52 3 52 -14 0 -14 -7 -20 -22
-20 -13 0 -47 -3 -75 -6 l-53 -7 0 46 c0 46 0 46 38 50 96 10 112 8 112 -13z
m3 -95 c4 -8 2 -17 -3 -20 -16 -10 -160 -18 -160 -9 1 23 19 31 75 33 33 1 62
4 64 7 9 8 19 4 24 -11z"/>
  <path d="M432 70 c49 -59 94 -68 70 -15 -7 14 -20 28 -29 31 -10 3 -26 10 -35
15 -36 19 -38 8 -6 -31z"/>
</g>
<g id="part-1" class="char-part">
  <path d="M642 558 c21 -32 64 -62 77 -54 6 4 11 16 11 27 0 20 -51 49 -86 49
-15 0 -15 -2 -2 -22z"/>
</g>
<g id="part-2" class="char-part">
  <path d="M455 570 c8 -16 15 -33 15 -38 0 -5 -57 -17 -127 -26 -70 -10 -129
-19 -132 -21 -13 -14 70 -16 161 -4 l108 15 21 -66 c62 -187 130 -314 205
-380 68 -60 118 -61 96 -3 -6 15 -14 46 -17 68 l-8 40 -11 -34 c-7 -19 -17
-36 -23 -38 -33 -11 -152 180 -191 307 -38 121 -40 110 15 110 26 0 54 4 61 9
21 13 -41 34 -77 26 -28 -6 -31 -4 -31 17 0 32 -18 48 -52 48 -28 0 -28 0 -13
-30z"/>
</g>
<g id="part-3" class="char-part">
  <path d="M307 430 c-68 -13 -53 -23 26 -16 94 7 140 26 62 25 -27 -1 -67 -5
-88 -9z"/>
</g>
<g id="part-4" class="char-part">
  <path d="M262 370 c-62 -10 -116 -20 -119 -23 -15 -16 55 -17 129 -3 103 20
134 24 176 25 17 1 32 6 32 11 0 15 -89 11 -218 -10z"/>
</g>
<g id="part-5" class="char-part">
  <path d="M255 67 c-27 -29 -40 -43 -27 -33 12 11 22 16 22 12 0 -4 6 -1 14 6
8 7 26 22 40 32 14 10 26 23 26 27 0 21 -29 4 -75 -44z"/>
  <path d="M412 98 c5 -15 28 -23 28 -10 0 5 -7 13 -16 16 -10 4 -14 1 -12 -6z"/>
  <path d="M447 76 c-3 -8 3 -22 14 -32 21 -19 27 -6 7 15 -11 11 -10 12 0 6 7
-4 18 -17 23 -29 9 -20 9 -20 6 3 -3 30 -42 59 -50 37z"/>
</g>
</g>
</svg>