<?xml version="1.0" standalone="no"?>
<!DOCTYPE svg PUBLIC "-//W3C//DTD SVG 20010904//EN"
 "http://www.w3.org/TR/2001/REC-SVG-20010904/DTD/svg10.dtd">
<svg version="1.0" xmlns="http://www.w3.org/2000/svg"
 width="96.000000pt" height="68.000000pt" viewBox="0 0 96.000000 68.000000"
 preserveAspectRatio="xMidYMid meet">
<metadata>
Created by potrace 1.16, written by Peter Selinger 2001-2019
Combined from part_0.svg through part_5.svg with named groups
</metadata>
<g transform="translate(0.000000,68.000000) scale(0.100000,-0.100000)" fill="#000000" stroke="none">
<g id="part-0" class="char-part">
  <path d="M548 578 c-3 -41 -5 -43 -36 -46 -40 -4 -38 -25 2 -30 25 -3 27 -6
21 -33 -9 -40 11 -37 36 5 20 34 23 35 100 42 50 4 78 11 76 18 -5 16 -47 24
-91 18 -36 -5 -39 -3 -33 17 6 23 -24 51 -55 51 -13 0 -18 -10 -20 -42z"/>
  <path d="M303 583 c2 -10 8 -25 11 -34 6 -13 -1 -18 -31 -22 -21 -4 -50 -7
-65 -7 -31 0 -36 -11 -13 -30 14 -11 68 -11 114 1 8 2 17 -6 21 -21 3 -14 14
-26 23 -28 13 -3 17 4 17 32 0 33 3 36 40 46 49 13 43 32 -8 28 -31 -3 -36 0
-42 22 -4 20 -13 26 -39 28 -29 3 -33 1 -28 -15z"/>
  <path d="M420 447 c0 -7 5 -18 11 -24 15 -15 -4 -19 -129 -30 -102 -9 -127
-26 -44 -31 28 -2 52 -8 52 -13 0 -5 -23 -33 -51 -61 -53 -53 -60 -87 -16 -73
12 4 36 9 52 12 l30 4 -30 -28 c-17 -15 -43 -38 -60 -49 -24 -18 -27 -24 -17
-37 11 -13 19 -13 59 -1 72 22 81 18 47 -17 -16 -18 -49 -45 -73 -60 -61 -39
-23 -39 45 1 50 28 114 96 114 120 0 6 -7 18 -15 26 -13 14 -16 12 -27 -10 -7
-17 -19 -26 -34 -26 -12 0 -29 -3 -38 -6 -37 -14 -11 19 55 71 57 46 68 59 58
71 -17 21 -34 17 -47 -10 -11 -25 -53 -39 -84 -27 -15 5 -10 13 33 46 51 38
51 39 31 56 -21 16 -20 17 25 23 25 3 65 6 89 6 l43 0 -14 -35 c-8 -19 -28
-53 -44 -77 -30 -44 -33 -60 -7 -39 30 25 37 2 34 -111 -2 -78 0 -112 9 -115
6 -2 13 6 15 19 3 22 8 23 136 32 72 4 132 12 132 17 0 10 -20 13 -90 13 -45
1 -47 2 -41 46 0 6 19 10 40 10 22 0 43 4 46 10 4 6 -12 10 -40 10 -42 0 -46
2 -43 22 2 18 12 24 47 31 36 7 42 11 28 18 -9 6 -29 9 -44 7 -22 -2 -29 1
-31 20 -3 17 1 22 20 22 34 0 68 11 68 21 0 5 -18 9 -40 9 -33 0 -40 3 -40 20
0 13 -9 22 -25 26 -34 9 -40 1 -21 -29 l16 -24 -50 -10 c-57 -11 -63 -3 -28
35 l23 23 -25 19 -25 20 108 0 c108 0 128 7 82 28 -18 8 -46 9 -97 2 -102 -13
-118 -12 -118 5 0 9 -12 20 -26 25 -32 13 -34 13 -34 -3z m165 -202 c0 -16 -8
-21 -40 -23 -37 -3 -41 -1 -43 23 -2 25 0 26 41 23 34 -2 42 -7 42 -23z m5
-70 c0 -23 -4 -25 -45 -25 -41 0 -45 2 -45 25 0 23 4 25 45 25 41 0 45 -2 45
-25z m0 -69 c0 -18 -7 -25 -31 -30 -53 -10 -59 -8 -59 24 0 29 2 30 45 30 41
0 45 -2 45 -24z"/>
</g>
<g id="part-1" class="char-part">
  <path d="M558 573 c-3 -32 -7 -39 -28 -41 -14 -2 -29 -8 -34 -13 -10 -9 -5
-10 34 -13 10 -1 14 -10 12 -31 l-3 -30 21 25 c11 14 25 31 30 38 7 7 37 12
80 12 39 0 70 4 70 10 0 15 -46 23 -89 16 -39 -6 -39 -6 -37 27 1 28 -3 32
-26 35 -24 3 -27 0 -30 -35z"/>
  <path d="M305 590 c-4 -6 -1 -17 5 -25 25 -30 4 -45 -60 -45 -64 0 -75 -9 -35
-30 20 -10 33 -11 64 -2 53 16 58 15 65 -13 9 -35 24 -31 28 7 3 27 9 33 43
44 l40 12 -42 1 c-36 1 -43 4 -43 21 0 29 -51 53 -65 30z"/>
</g>
<g id="part-2" class="char-part">
  <path d="M423 436 c15 -23 15 -24 -6 -29 -12 -3 -66 -9 -120 -12 -66 -5 -97
-11 -94 -19 5 -14 92 -14 226 2 57 7 149 12 204 12 95 0 100 1 84 17 -19 19
-59 22 -160 10 -60 -7 -68 -6 -74 10 -9 24 -23 33 -52 33 -22 0 -23 -1 -8 -24z"/>
</g>
<g id="part-3" class="char-part">
  <path d="M310 349 c0 -6 -25 -35 -55 -64 -44 -44 -52 -55 -40 -65 10 -8 24 -8
57 1 60 17 69 29 24 29 l-39 0 52 41 c41 33 49 44 40 55 -14 17 -39 19 -39 3z"/>
</g>
<g id="part-4" class="char-part">
  <path d="M590 175 c0 -22 -4 -25 -39 -25 -22 0 -43 -4 -46 -10 -4 -6 12 -10
39 -10 42 0 46 -2 46 -24 0 -22 -6 -26 -45 -32 -25 -3 -45 -11 -45 -16 0 -10
249 -2 259 8 13 12 -18 19 -75 17 -49 -2 -64 1 -64 12 0 29 13 45 39 46 14 0
35 4 46 9 15 6 8 9 -27 9 -41 1 -48 4 -48 21 0 13 -7 20 -20 20 -15 0 -20 -7
-20 -25z"/>
</g>
</g>
</svg>