<?xml version="1.0" standalone="no"?>
<!DOCTYPE svg PUBLIC "-//W3C//DTD SVG 20010904//EN"
 "http://www.w3.org/TR/2001/REC-SVG-20010904/DTD/svg10.dtd">
<svg version="1.0" xmlns="http://www.w3.org/2000/svg"
 width="96.000000pt" height="68.000000pt" viewBox="0 0 96.000000 68.000000"
 preserveAspectRatio="xMidYMid meet">
<metadata>
Created by potrace 1.16, written by Peter Selinger 2001-2019
Combined from part_0.svg through part_5.svg with named groups
</metadata>
<g transform="translate(0.000000,68.000000) scale(0.100000,-0.100000)" fill="#000000" stroke="none">
<g id="part-0" class="char-part">
  <path d="M620 525 c0 -83 -1 -85 -24 -85 -29 0 -36 16 -36 86 0 51 -1 54 -26
54 -19 0 -24 -4 -20 -17 3 -10 8 -44 11 -75 l7 -57 -61 -7 c-36 -4 -58 -11
-55 -16 4 -6 24 -8 45 -5 34 4 41 2 59 -23 30 -42 26 -60 -12 -62 -27 -1 -25
-2 12 -7 40 -5 45 -9 48 -34 3 -26 1 -27 -37 -27 -23 0 -41 -4 -41 -10 0 -5
18 -10 40 -10 29 0 40 -4 40 -15 0 -21 -41 -35 -101 -35 -27 0 -49 -4 -49 -10
0 -15 47 -23 92 -16 41 7 41 7 26 -16 -8 -13 -39 -40 -69 -62 -45 -32 -49 -37
-25 -32 38 9 111 60 138 97 22 29 22 29 129 29 100 0 134 8 114 28 -8 8 -86 9
-160 2 -44 -4 -50 -2 -50 15 0 16 11 22 55 31 49 10 52 12 29 18 -15 4 -37 6
-50 4 -20 -2 -24 1 -24 22 0 19 6 26 25 28 49 5 70 13 70 23 0 7 -11 9 -30 6
-33 -7 -39 6 -15 36 7 11 11 25 8 33 -4 11 6 14 43 15 27 1 60 4 74 9 44 13
-3 23 -74 16 -34 -3 -65 -4 -67 -1 -3 3 -1 35 4 71 8 53 7 68 -4 75 -34 21
-39 10 -39 -76z m17 -127 c-5 -37 -24 -64 -46 -65 -15 -1 -21 4 -21 18 0 10
-9 27 -20 36 -19 16 -19 18 -3 25 10 3 35 7 56 7 34 1 37 -1 34 -21z"/>
  <path d="M723 528 c-12 -18 -21 -33 -19 -35 3 -3 77 26 85 33 5 4 -30 33 -39
34 -3 0 -15 -15 -27 -32z"/>
  <path d="M290 514 c-25 -7 -65 -13 -90 -13 -65 1 -66 1 -43 -20 11 -10 26 -41
33 -67 16 -62 23 -69 49 -53 32 21 40 3 42 -95 2 -92 -4 -105 -43 -106 -16 0
-18 10 -18 70 0 39 -4 70 -9 70 -5 0 -17 3 -25 6 -14 5 -16 0 -11 -35 3 -22 7
-59 10 -81 l5 -40 -42 0 -43 -1 24 -19 c28 -24 56 -25 95 -5 16 8 66 27 112
41 46 14 87 30 90 36 5 7 -1 9 -17 6 -13 -3 -39 -9 -57 -13 l-33 -8 3 44 c3
43 4 44 46 52 23 4 40 13 36 18 -3 5 -21 7 -40 3 l-34 -6 0 41 c0 37 2 41 25
41 20 0 25 5 25 26 0 14 8 42 17 61 16 34 16 36 -2 49 -22 16 -44 16 -105 -2z
m45 -61 c-4 -21 -8 -39 -9 -40 -2 -2 -23 -6 -48 -9 -41 -6 -46 -4 -51 17 -16
58 -10 62 87 67 27 2 28 1 21 -35z"/>
  <path d="M442 488 c3 -7 15 -19 29 -25 20 -11 25 -10 27 3 5 20 0 24 -33 30
-19 3 -26 1 -23 -8z"/>
  <path d="M641 122 c1 -15 120 -102 139 -102 37 0 18 44 -31 71 -30 15 -109 38
-108 31z"/>
</g>
<g id="part-1" class="char-part">
  <path d="M290 510 c-14 -4 -52 -8 -84 -9 -58 -1 -59 -1 -41 -21 10 -11 24 -41
30 -67 12 -46 14 -48 46 -45 78 7 138 23 133 37 -3 7 3 31 14 53 14 29 16 44
9 51 -12 12 -70 13 -107 1z m50 -49 c0 -46 -11 -56 -67 -66 l-42 -7 -11 42
c-6 23 -10 44 -8 45 3 4 92 22 116 24 8 1 12 -13 12 -38z"/>
</g>
<g id="part-2" class="char-part">
  <path d="M315 184 c-44 -14 -108 -27 -143 -31 -52 -5 -60 -8 -50 -20 25 -31
46 -34 90 -14 24 11 80 31 125 46 79 25 115 46 76 44 -10 -1 -54 -12 -98 -25z"/>
</g>
<g id="part-3" class="char-part">
  <path d="M618 528 c-3 -76 -5 -83 -24 -86 -25 -4 -34 19 -34 91 0 44 -2 47
-26 47 -22 0 -25 -4 -21 -22 3 -13 9 -46 13 -74 l6 -51 -63 -7 c-53 -6 -60 -9
-45 -18 14 -8 41 -8 95 0 42 7 105 14 141 17 144 12 170 17 164 27 -4 7 -37 9
-91 5 -74 -4 -83 -3 -79 12 2 9 8 40 11 70 6 40 4 56 -6 62 -32 20 -38 9 -41
-73z"/>
</g>
<g id="part-4" class="char-part">
  <path d="M717 521 l-26 -40 47 21 c60 26 61 27 38 44 -28 20 -30 19 -59 -25z"/>
  <path d="M440 491 c0 -6 10 -17 22 -25 16 -11 25 -13 35 -4 11 9 10 13 -4 24
-21 16 -53 18 -53 5z"/>
</g>
<g id="part-5" class="char-part">
  <path d="M686 103 c-6 -6 47 -57 76 -73 26 -15 31 16 6 39 -23 22 -73 42 -82
34z"/>
</g>
</g>
</svg>