<?xml version="1.0" standalone="no"?>
<!DOCTYPE svg PUBLIC "-//W3C//DTD SVG 20010904//EN"
 "http://www.w3.org/TR/2001/REC-SVG-20010904/DTD/svg10.dtd">
<svg version="1.0" xmlns="http://www.w3.org/2000/svg"
 width="96.000000pt" height="68.000000pt" viewBox="0 0 96.000000 68.000000"
 preserveAspectRatio="xMidYMid meet">
<metadata>
Created by potrace 1.16, written by Peter Selinger 2001-2019
Combined from part_0.svg through part_5.svg with named groups
</metadata>
<g transform="translate(0.000000,68.000000) scale(0.100000,-0.100000)" fill="#000000" stroke="none">
<g id="part-0" class="char-part">
  <path d="M529 607 l-66 -10 4 -66 c3 -36 8 -69 12 -72 3 -4 35 -3 71 2 51 7
67 7 75 -4 23 -31 35 -6 35 73 0 99 3 97 -131 77z m91 -21 c0 -14 -42 -26 -91
-26 -45 0 -37 28 9 33 75 8 82 7 82 -7z m10 -46 c0 -9 -34 -17 -94 -22 -35 -4
-47 19 -14 25 44 8 108 7 108 -3z m0 -39 c0 -9 -57 -21 -102 -21 -39 0 -35 18
5 23 62 7 97 7 97 -2z"/>
  <path d="M315 599 c-22 -4 -52 -6 -67 -3 -31 6 -34 -1 -18 -55 5 -19 11 -48
12 -65 l2 -31 83 0 c94 0 88 -6 96 93 6 72 -12 82 -108 61z m55 -28 c0 -9 -47
-21 -81 -21 -24 0 -25 17 -1 23 31 8 82 7 82 -2z m-2 -46 c-2 -3 -27 -8 -54
-11 -34 -5 -46 -3 -39 4 6 6 28 12 50 14 41 3 52 1 43 -7z m6 -44 c6 -10 -48
-19 -78 -13 -15 3 -16 6 -5 13 18 11 76 12 83 0z"/>
  <path d="M430 431 c5 -11 10 -22 10 -25 0 -10 -88 -7 -92 3 -1 5 -15 13 -30
16 -22 6 -28 4 -28 -8 0 -17 -55 -77 -105 -114 -16 -13 -26 -23 -23 -23 15 0
78 34 78 42 0 4 7 8 16 8 14 0 15 -9 9 -65 -6 -56 -4 -65 9 -65 9 0 16 4 16 9
0 10 82 19 245 27 66 4 127 10 135 15 26 14 -28 26 -79 18 -74 -12 -111 -11
-111 5 0 16 30 26 82 26 20 0 40 5 43 10 4 6 -18 10 -59 10 -65 0 -87 12 -43
24 12 3 39 6 60 6 20 0 37 5 37 10 0 6 -27 10 -60 10 -33 0 -60 4 -60 9 0 10
48 21 94 21 17 0 38 4 45 9 25 16 -28 23 -79 12 -39 -9 -47 -7 -63 10 -10 10
-27 19 -38 19 -16 0 -18 -3 -9 -19z m10 -62 c0 -4 -15 -10 -32 -13 -62 -10
-108 -12 -108 -5 0 15 28 28 70 31 50 3 70 0 70 -13z m0 -43 c0 -15 -28 -23
-95 -28 -31 -2 -40 1 -43 14 -3 14 7 18 60 21 35 2 66 4 71 5 4 1 7 -4 7 -12z
m0 -55 c0 -14 -10 -20 -46 -25 -78 -10 -94 -8 -94 14 0 16 8 20 63 23 34 2 65
4 70 5 4 1 7 -6 7 -17z"/>
  <path d="M470 200 c-25 -4 -80 -11 -123 -15 -43 -4 -76 -9 -73 -13 3 -3 36
-17 73 -32 37 -15 69 -32 70 -37 4 -12 -81 -48 -145 -62 -24 -5 -46 -12 -49
-15 -17 -17 107 6 187 35 l56 20 69 -36 c57 -29 79 -35 130 -34 50 0 152 14
135 18 -3 0 -41 8 -85 16 -121 23 -205 47 -205 59 0 6 21 25 45 41 25 17 45
33 45 36 0 9 -49 29 -68 28 -9 -1 -37 -5 -62 -9z m44 -18 c3 -5 -8 -22 -24
-37 l-30 -28 -42 18 c-63 27 -65 33 -17 39 44 6 88 12 101 15 4 0 9 -3 12 -7z"/>
</g>
<g id="part-1" class="char-part">
  <path d="M330 598 c-25 -5 -60 -7 -78 -5 -26 2 -31 0 -26 -12 3 -9 9 -37 11
-63 4 -32 10 -48 19 -48 8 0 14 4 14 9 0 13 101 24 113 12 27 -27 38 -12 35
45 -4 66 -17 76 -88 62z m43 -33 c-2 -5 -25 -11 -53 -13 -40 -2 -50 0 -50 13
0 13 10 15 53 13 28 -2 51 -7 50 -13z m7 -35 c0 -13 -12 -17 -67 -23 -32 -4
-43 -2 -43 8 0 13 24 19 88 23 12 1 22 -3 22 -8z"/>
</g>
<g id="part-2" class="char-part">
  <path d="M633 499 c-6 -6 -46 -12 -87 -13 -51 -1 -76 -5 -76 -13 0 -19 11 -21
80 -12 55 7 67 5 78 -9 11 -15 14 -15 22 -2 12 18 13 60 2 60 -4 0 -13 -5 -19
-11z"/>
</g>
<g id="part-3" class="char-part">
  <path d="M282 401 c-7 -16 -38 -50 -69 -75 -61 -51 -60 -60 2 -21 22 13 43 25
48 25 11 0 8 -65 -4 -77 -8 -8 -8 -17 0 -32 23 -42 39 -21 42 60 2 25 -1 50
-4 56 -4 6 7 23 24 37 35 29 33 56 -3 56 -16 0 -27 -9 -36 -29z"/>
</g>
<g id="part-4" class="char-part">
  <path d="M436 318 c-2 -10 -8 -18 -13 -17 -34 6 -123 -3 -123 -12 0 -8 21 -10
70 -6 64 5 70 4 70 -13 0 -16 -11 -20 -70 -26 -38 -3 -70 -11 -70 -17 0 -6 20
-7 53 -3 28 3 104 8 167 11 137 7 163 12 154 27 -5 7 -36 9 -100 4 -77 -5 -94
-4 -94 8 0 18 22 26 75 26 24 0 47 5 50 10 4 6 -18 10 -59 10 -36 0 -66 4 -66
8 0 16 -39 7 -44 -10z"/>
</g>
<g id="part-5" class="char-part">
  <path d="M450 190 c-13 -8 -13 -10 2 -10 9 0 20 5 23 10 8 13 -5 13 -25 0z"/>
  <path d="M526 187 c6 -17 -37 -61 -62 -65 -11 -1 -33 2 -49 8 -15 6 -30 8 -33
6 -3 -3 7 -10 22 -15 14 -6 26 -15 26 -21 0 -5 5 -10 11 -10 5 0 49 -18 96
-41 76 -36 90 -40 134 -34 48 7 78 25 42 25 -10 0 -54 10 -98 21 -44 12 -90
21 -102 21 -26 0 -21 23 12 51 11 10 14 15 6 11 -9 -5 -12 -3 -7 5 4 6 12 9
17 6 5 -4 18 0 29 8 16 11 18 16 8 24 -19 14 -58 14 -52 0z"/>
  <path d="M287 170 c4 -5 21 -12 37 -16 22 -5 28 -4 24 7 -2 7 -19 14 -37 15
-18 1 -29 -2 -24 -6z"/>
  <path d="M359 58 c-19 -10 -28 -18 -21 -18 7 0 23 5 35 12 12 7 31 13 41 15
30 5 33 13 4 11 -14 -1 -41 -10 -59 -20z"/>
  <path d="M748 23 c7 -3 16 -2 19 1 4 3 -2 6 -13 5 -11 0 -14 -3 -6 -6z"/>
</g>
</g>
</svg>