<?xml version="1.0" standalone="no"?>
<!DOCTYPE svg PUBLIC "-//W3C//DTD SVG 20010904//EN"
 "http://www.w3.org/TR/2001/REC-SVG-20010904/DTD/svg10.dtd">
<svg version="1.0" xmlns="http://www.w3.org/2000/svg"
 width="96.000000pt" height="68.000000pt" viewBox="0 0 96.000000 68.000000"
 preserveAspectRatio="xMidYMid meet">
<metadata>
Created by potrace 1.16, written by Peter Selinger 2001-2019
Combined from part_0.svg through part_5.svg with named groups
</metadata>
<g transform="translate(0.000000,68.000000) scale(0.100000,-0.100000)" fill="#000000" stroke="none">
<g id="part-0" class="char-part">
  <path d="M495 600 c-33 -16 -85 -34 -115 -40 -91 -20 -93 -31 -5 -28 l80 3 0
-30 0 -30 -125 -16 c-144 -18 -143 -36 1 -26 49 4 89 3 89 -1 -1 -12 -127
-106 -180 -133 -62 -32 -74 -43 -35 -33 61 15 141 57 192 100 28 24 54 44 58
44 4 0 5 -17 2 -37 -7 -44 3 -66 26 -57 12 4 17 18 17 50 0 48 16 57 55 30 11
-7 64 -37 119 -65 72 -39 101 -50 109 -42 28 28 -35 69 -178 116 -118 38 -113
36 -90 45 11 4 59 8 106 9 47 1 98 5 115 10 l29 8 -30 13 c-23 9 -51 10 -122
1 -50 -6 -96 -11 -102 -11 -6 0 -10 17 -8 39 2 36 5 40 36 46 18 3 44 11 58
16 25 9 25 10 8 29 -23 26 -37 24 -110 -10z"/>
  <path d="M480 293 c-41 -7 -88 -11 -103 -9 l-28 6 6 -48 c3 -26 2 -69 -3 -96
-11 -57 3 -110 23 -83 6 9 39 16 93 21 82 6 82 6 92 -19 12 -31 35 -32 54 -2
11 17 14 46 11 122 -5 134 -5 134 -145 108z m98 -54 c3 -26 2 -26 -73 -33 -42
-4 -82 -9 -90 -13 -12 -4 -15 3 -15 30 0 42 8 46 105 44 68 -2 70 -3 73 -28z
m0 -91 c-3 -31 -6 -33 -43 -34 -22 -1 -64 -5 -92 -8 l-53 -6 0 34 c0 40 6 43
118 45 l73 1 -3 -32z"/>
</g>
<g id="part-1" class="char-part">
  <path d="M523 605 c-11 -8 -60 -26 -109 -40 -117 -33 -119 -35 -49 -29 70 7
225 42 240 56 6 6 5 12 -5 18 -22 14 -53 12 -77 -5z"/>
</g>
<g id="part-2" class="char-part">
  <path d="M454 513 l1 -38 -130 -16 c-151 -18 -149 -36 3 -25 l96 7 -19 -22
c-29 -31 -109 -88 -179 -126 -54 -30 -57 -33 -26 -28 58 11 156 61 203 104 24
23 48 41 52 41 4 0 5 -17 2 -37 -7 -44 4 -69 27 -60 11 5 16 19 16 50 0 24 2
46 5 49 3 3 64 -26 136 -64 98 -53 133 -68 142 -59 28 28 -35 69 -178 116 -44
14 -87 29 -95 32 -22 9 33 20 110 22 36 1 83 5 104 9 35 6 37 8 22 21 -13 11
-35 12 -104 6 -146 -13 -137 -15 -134 23 3 29 1 32 -26 32 -27 0 -29 -2 -28
-37z"/>
</g>
<g id="part-3" class="char-part">
  <path d="M480 294 c-36 -8 -80 -12 -98 -9 l-34 6 7 -39 c3 -22 2 -65 -4 -96
-12 -66 1 -124 22 -95 9 11 36 17 95 22 81 5 83 5 92 -19 11 -28 32 -31 51 -7
10 11 14 47 14 124 0 103 -1 109 -23 119 -28 12 -40 12 -122 -6z m98 -55 c3
-26 2 -26 -73 -33 -42 -4 -82 -9 -90 -13 -12 -4 -15 3 -15 30 0 42 9 45 110
43 62 -1 65 -2 68 -27z m0 -95 c-3 -28 -5 -29 -58 -31 -30 -1 -72 -5 -92 -8
-37 -5 -38 -4 -38 24 0 17 6 33 13 38 16 10 160 20 170 12 5 -4 7 -19 5 -35z"/>
</g>
</g>
</svg>