<?xml version="1.0" standalone="no"?>
<!DOCTYPE svg PUBLIC "-//W3C//DTD SVG 20010904//EN"
 "http://www.w3.org/TR/2001/REC-SVG-20010904/DTD/svg10.dtd">
<svg version="1.0" xmlns="http://www.w3.org/2000/svg"
 width="96.000000pt" height="68.000000pt" viewBox="0 0 96.000000 68.000000"
 preserveAspectRatio="xMidYMid meet">
<metadata>
Created by potrace 1.16, written by Peter Selinger 2001-2019
Combined from part_0.svg through part_5.svg with named groups
</metadata>
<g transform="translate(0.000000,68.000000) scale(0.100000,-0.100000)" fill="#000000" stroke="none">
<g id="part-0" class="char-part">
  <path d="M293 543 l2 -67 -52 -9 c-69 -11 -68 -27 2 -27 54 0 55 0 55 -30 0
-32 8 -29 -135 -51 -77 -11 -86 -16 -65 -29 19 -12 76 -13 118 -1 36 11 36 9
33 -64 -3 -52 -26 -99 -63 -130 -19 -16 -24 -25 -15 -25 48 0 117 105 117 178
0 46 12 65 36 60 17 -3 19 -15 22 -112 l3 -109 -33 7 -32 6 29 -30 c53 -56 75
-31 75 84 l0 76 32 -30 c23 -22 34 -27 42 -20 13 13 -35 60 -60 60 -10 0 -14
12 -14 39 0 39 0 40 45 47 69 10 51 30 -24 27 l-61 -3 0 29 c0 26 4 30 38 36
20 3 44 10 52 15 25 16 -9 32 -54 25 l-39 -6 6 55 c5 49 3 55 -16 60 -43 11
-45 9 -44 -61z"/>
  <path d="M645 533 c-27 -7 -70 -14 -95 -14 l-45 -1 0 -151 c0 -93 -5 -176 -14
-214 -11 -51 -11 -66 -1 -78 19 -23 29 -18 38 17 6 25 15 34 39 39 16 3 41 13
54 22 23 16 25 16 65 -24 42 -41 42 -41 95 -32 30 4 54 12 54 17 0 5 -20 15
-45 22 -45 13 -85 31 -107 47 -10 7 -6 20 13 56 14 25 31 52 36 59 15 17 -8
42 -39 42 -14 0 -50 -7 -80 -16 -30 -9 -59 -12 -63 -8 -4 5 -5 46 -2 92 5 94
9 98 94 104 l43 3 -1 -42 c-1 -52 -18 -77 -45 -62 -24 12 -24 1 1 -29 37 -45
57 -23 98 106 10 30 8 33 -16 45 -22 11 -36 11 -77 0z m35 -233 c0 -14 -33
-80 -40 -80 -7 0 -70 67 -70 74 0 6 37 13 78 15 17 0 32 -3 32 -9z m-92 -59
c18 -22 32 -44 32 -50 0 -12 -67 -54 -77 -48 -5 3 -8 20 -7 39 1 18 2 48 3 66
0 17 5 32 9 32 5 0 23 -18 40 -39z"/>
  <path d="M190 278 c0 -7 -11 -30 -25 -51 -38 -55 -11 -46 43 15 l24 26 -21 11
c-16 9 -21 9 -21 -1z"/>
</g>
<g id="part-1" class="char-part">
  <path d="M298 535 l4 -64 -51 -7 c-68 -9 -65 -24 5 -24 l55 0 -3 -32 -3 -33
-102 -14 c-57 -8 -103 -18 -103 -23 0 -19 56 -19 147 1 54 11 123 23 153 26
76 9 90 14 69 25 -9 5 -38 6 -68 1 l-52 -8 3 36 c2 27 8 37 23 39 46 7 65 13
65 21 0 15 -28 20 -59 11 l-31 -9 0 60 c0 58 -1 59 -27 59 l-28 0 3 -65z"/>
</g>
<g id="part-2" class="char-part">
  <path d="M185 271 c-3 -11 -17 -36 -30 -55 -13 -20 -22 -36 -19 -36 13 0 63
41 79 66 14 22 15 28 4 35 -21 13 -27 11 -34 -10z"/>
  <path d="M390 272 c0 -16 58 -64 69 -58 20 13 11 35 -19 51 -32 17 -50 19 -50
7z"/>
</g>
<g id="part-3" class="char-part">
  <path d="M645 535 c-22 -8 -52 -14 -67 -14 -17 -1 -28 -7 -28 -15 0 -11 7 -13
30 -6 16 5 46 10 67 12 l38 3 -1 -42 c-1 -52 -18 -77 -45 -62 -24 12 -24 1 0
-30 26 -34 52 -24 72 29 39 105 39 108 13 125 -27 17 -26 17 -79 0z"/>
</g>
<g id="part-4" class="char-part">
  <path d="M502 489 c13 -38 4 -295 -12 -352 -12 -42 -6 -77 15 -77 22 0 27 28
37 239 11 215 10 220 -34 221 -15 0 -15 -4 -6 -31z"/>
</g>
<g id="part-5" class="char-part">
  <path d="M670 330 c-17 -5 -19 -8 -7 -9 9 -1 17 -8 17 -16 0 -8 7 -15 16 -15
9 0 12 -5 8 -12 -4 -7 -3 -8 5 -4 6 4 9 12 6 17 -4 5 1 12 10 15 13 5 14 9 4
15 -7 4 -19 3 -26 -3 -10 -8 -12 -7 -7 6 3 9 5 16 3 15 -2 -1 -15 -5 -29 -9z"/>
  <path d="M665 249 c-23 -45 -22 -44 -42 -28 -15 13 -15 12 -5 -6 9 -17 6 -25
-16 -47 -14 -16 -20 -28 -14 -28 7 0 15 6 18 13 8 22 65 19 71 -3 7 -27 68
-54 101 -44 15 4 34 6 42 5 23 -4 6 9 -18 14 -12 2 -42 13 -67 24 -25 11 -45
17 -45 13 0 -3 -5 -1 -12 6 -13 13 -21 65 -8 57 15 -9 32 23 22 41 -8 15 -12
13 -27 -17z"/>
</g>
</g>
</svg>