<?xml version="1.0" standalone="no"?>
<!DOCTYPE svg PUBLIC "-//W3C//DTD SVG 20010904//EN"
 "http://www.w3.org/TR/2001/REC-SVG-20010904/DTD/svg10.dtd">
<svg version="1.0" xmlns="http://www.w3.org/2000/svg"
 width="96.000000pt" height="68.000000pt" viewBox="0 0 96.000000 68.000000"
 preserveAspectRatio="xMidYMid meet">
<metadata>
Created by potrace 1.16, written by Peter Selinger 2001-2019
Combined from part_0.svg through part_5.svg with named groups
</metadata>
<g transform="translate(0.000000,68.000000) scale(0.100000,-0.100000)" fill="#000000" stroke="none">
<g id="part-0" class="char-part">
  <path d="M602 577 l-74 -11 6 -29 c3 -16 6 -50 6 -76 0 -55 12 -80 32 -64 7 6
38 13 68 14 l55 3 3 -152 c3 -172 -3 -196 -46 -186 l-27 7 20 -24 c43 -50 43
-51 65 -39 36 19 41 55 39 279 -1 119 2 228 6 243 5 21 2 29 -13 37 -23 12
-36 12 -140 -2z m100 -19 c10 -29 -7 -53 -37 -54 -16 0 -43 -2 -60 -5 -28 -4
-30 -2 -30 26 0 27 4 31 35 35 69 10 88 10 92 -2z m-2 -93 c0 -14 -3 -25 -7
-25 -5 0 -32 -3 -60 -6 -52 -6 -53 -6 -53 19 0 22 5 26 38 30 83 8 82 9 82
-18z"/>
  <path d="M327 563 c-4 -3 -37 -9 -75 -12 -65 -6 -67 -7 -63 -31 11 -77 11
-224 0 -294 -19 -126 -18 -151 6 -151 24 0 33 49 34 193 1 104 0 102 79 105
28 1 54 6 59 10 4 5 16 36 26 70 10 34 20 69 23 78 8 24 -69 52 -89 32z m23
-57 c0 -22 -5 -24 -50 -28 -46 -3 -50 -1 -50 19 0 22 15 29 73 32 22 1 27 -3
27 -23z m-7 -74 c-3 -12 -13 -22 -23 -22 -10 0 -32 -3 -49 -6 -24 -5 -31 -3
-31 9 0 9 6 19 13 24 10 6 87 21 94 18 1 0 0 -11 -4 -23z"/>
  <path d="M501 339 c-45 -25 -49 -29 -27 -29 20 0 26 -4 24 -17 -4 -25 -18 -33
-60 -33 -21 0 -38 -4 -38 -10 0 -5 23 -10 50 -10 43 0 50 -3 50 -20 0 -16 -7
-20 -32 -21 -18 -1 -40 0 -47 1 -11 1 -12 -2 -4 -12 6 -7 16 -30 22 -50 10
-31 16 -37 34 -34 12 3 48 8 80 11 50 6 57 9 57 29 0 12 6 28 12 34 19 19 -8
33 -54 30 -33 -3 -38 -1 -38 18 0 27 17 34 81 34 27 0 49 5 49 10 0 6 -28 10
-64 10 -62 0 -63 0 -58 25 3 20 10 25 33 25 31 0 40 23 13 34 -21 8 -22 8 -83
-25z m77 -171 c-2 -18 -12 -24 -46 -31 -55 -11 -72 -4 -72 28 0 24 2 25 61 25
57 0 60 -1 57 -22z"/>
  <path d="M339 320 c25 -21 51 -26 51 -10 0 12 -34 30 -57 30 -16 -1 -15 -3 6
-20z"/>
  <path d="M305 250 c19 -21 45 -27 45 -10 0 11 -33 30 -51 30 -8 0 -5 -7 6 -20z"/>
  <path d="M340 175 c-19 -14 -40 -25 -47 -25 -19 0 -16 -13 6 -27 17 -11 24 -7
56 32 41 50 37 56 -15 20z"/>
</g>
<g id="part-1" class="char-part">
  <path d="M295 550 c-16 -4 -50 -8 -74 -9 -37 -1 -42 -3 -35 -18 4 -10 10 -47
13 -83 l6 -65 75 3 c49 2 79 8 86 18 6 7 19 43 29 80 15 56 16 67 4 75 -16 10
-62 10 -104 -1z m58 -31 c9 -35 -1 -44 -59 -46 -55 -3 -55 -2 -52 25 3 27 10
30 94 41 7 0 14 -8 17 -20z m-3 -76 c0 -30 -13 -38 -62 -41 -46 -3 -48 -2 -48
22 0 22 5 25 43 29 23 2 48 4 55 5 6 1 12 -6 12 -15z"/>
</g>
<g id="part-2" class="char-part">
  <path d="M713 413 c-10 -3 -13 -46 -13 -163 0 -176 -6 -194 -57 -171 l-26 12
29 -35 c41 -48 55 -52 82 -21 22 26 22 32 20 202 -3 172 -6 188 -35 176z"/>
</g>
<g id="part-3" class="char-part">
  <path d="M335 320 c18 -20 55 -28 55 -12 0 16 -24 32 -49 32 -23 0 -24 -1 -6
-20z"/>
  <path d="M305 250 c21 -23 45 -26 45 -6 0 15 -21 26 -47 26 -14 0 -14 -3 2
-20z"/>
  <path d="M355 184 c-16 -13 -34 -24 -40 -24 -5 0 -16 -4 -24 -9 -12 -8 -12
-12 -2 -25 8 -9 19 -16 25 -16 11 1 81 89 74 95 -1 2 -16 -8 -33 -21z"/>
</g>
<g id="part-4" class="char-part">
  <path d="M500 337 c-49 -26 -51 -29 -20 -22 19 4 51 9 70 12 44 6 60 20 40 33
-20 13 -27 12 -90 -23z"/>
</g>
<g id="part-5" class="char-part">
  <path d="M586 188 c10 -12 13 -18 7 -14 -8 4 -13 1 -13 -8 0 -8 -3 -21 -6 -30
-4 -11 0 -16 12 -16 9 0 15 3 12 6 -4 3 0 17 8 32 15 29 4 52 -24 52 -12 0
-12 -4 4 -22z"/>
  <path d="M426 183 c5 -5 12 -12 16 -18 4 -6 8 -2 8 8 0 9 -7 17 -17 17 -9 0
-12 -3 -7 -7z"/>
  <path d="M450 129 c7 -11 14 -19 16 -16 7 7 -7 37 -17 37 -6 0 -5 -9 1 -21z"/>
  <path d="M495 120 c-14 -7 -8 -8 20 -3 22 3 42 7 44 9 9 8 -45 2 -64 -6z"/>
</g>
</g>
</svg>