<?xml version="1.0" standalone="no"?>
<!DOCTYPE svg PUBLIC "-//W3C//DTD SVG 20010904//EN"
 "http://www.w3.org/TR/2001/REC-SVG-20010904/DTD/svg10.dtd">
<svg version="1.0" xmlns="http://www.w3.org/2000/svg"
 width="96.000000pt" height="68.000000pt" viewBox="0 0 96.000000 68.000000"
 preserveAspectRatio="xMidYMid meet">
<metadata>
Created by potrace 1.16, written by Peter Selinger 2001-2019
Combined from part_0.svg through part_5.svg with named groups
</metadata>
<g transform="translate(0.000000,68.000000) scale(0.100000,-0.100000)" fill="#000000" stroke="none">
<g id="part-0" class="char-part">
  <path d="M517 551 l6 -49 -53 -7 c-36 -5 -48 -10 -39 -16 8 -5 30 -7 50 -3 34
5 37 4 41 -24 4 -29 3 -30 -46 -36 -28 -3 -66 -6 -83 -6 -18 0 -33 -4 -33 -10
0 -5 20 -10 45 -10 25 0 45 -3 45 -6 0 -21 -35 -72 -63 -91 -36 -26 -21 -31
22 -8 42 21 83 74 76 96 -6 17 -1 19 49 19 l56 0 0 -40 c0 -35 4 -42 27 -51
33 -12 149 -8 146 6 -2 6 -33 12 -70 15 -48 4 -67 9 -65 18 1 7 3 24 4 37 2
23 7 25 50 25 48 0 63 12 31 24 -9 4 -48 4 -86 0 l-69 -7 4 29 c3 26 7 29 47
34 65 7 69 33 5 28 l-49 -3 0 33 c0 31 -16 52 -42 52 -9 0 -10 -14 -6 -49z"/>
  <path d="M210 500 c21 -27 40 -40 56 -40 13 0 24 2 24 4 0 2 3 11 6 19 9 25
-35 57 -79 57 l-39 0 32 -40z"/>
  <path d="M168 358 c-32 -11 -58 -24 -58 -29 0 -5 23 -9 50 -9 54 0 55 -1 40
-31 -9 -15 -6 -26 15 -53 14 -18 25 -43 25 -54 0 -21 -5 -22 -75 -22 -55 0
-75 -3 -75 -13 0 -29 22 -35 119 -30 95 4 98 4 246 -46 82 -28 167 -51 190
-51 42 0 184 35 199 50 13 13 -20 18 -174 25 -87 4 -181 15 -235 27 -49 11
-106 23 -125 27 -33 6 -35 8 -32 42 3 30 -2 40 -25 59 l-28 22 38 33 c42 36
46 50 18 65 -27 14 -46 12 -113 -12z"/>
  <path d="M520 301 c0 -41 -13 -51 -69 -51 -42 0 -14 -13 31 -14 39 -1 43 -4
46 -27 3 -26 2 -27 -82 -34 -48 -4 -86 -11 -86 -15 0 -13 31 -17 75 -9 22 4
100 11 173 15 72 4 132 11 132 15 0 5 -40 9 -90 9 -89 0 -90 0 -90 25 0 20 6
25 38 30 78 13 84 30 8 26 -40 -2 -44 0 -39 19 6 23 -12 50 -33 50 -10 0 -14
-13 -14 -39z"/>
</g>
<g id="part-1" class="char-part">
  <path d="M190 531 c0 -14 71 -72 83 -68 7 2 13 13 15 25 2 15 -5 25 -27 36
-33 18 -71 21 -71 7z"/>
  <path d="M170 354 l-65 -23 58 -1 c60 0 66 -4 43 -35 -12 -16 -10 -24 16 -60
21 -30 28 -49 23 -64 -6 -19 -14 -21 -82 -21 -64 0 -74 -2 -64 -14 9 -11 37
-14 114 -14 97 1 109 -1 256 -50 84 -29 164 -52 178 -52 30 0 174 40 187 52 6
5 2 8 -10 8 -116 1 -340 25 -439 47 -66 15 -122 28 -124 30 -3 2 1 9 7 15 20
20 14 44 -18 75 l-30 29 40 33 c22 17 40 36 40 40 0 8 -46 32 -58 30 -4 -1
-36 -12 -72 -25z"/>
</g>
<g id="part-2" class="char-part">
  <path d="M517 551 l6 -49 -53 -7 c-36 -5 -48 -10 -39 -16 8 -5 31 -7 52 -3 36
6 37 5 37 -24 0 -28 -2 -30 -52 -36 -29 -3 -68 -6 -85 -6 -18 0 -33 -4 -33
-10 0 -13 22 -13 218 2 89 6 162 15 162 19 0 15 -37 20 -102 13 l-68 -7 0 27
c0 26 9 31 69 38 14 2 27 9 29 17 4 11 -5 13 -41 9 -50 -6 -60 3 -50 42 6 23
-10 40 -39 40 -15 0 -16 -7 -11 -49z"/>
</g>
<g id="part-3" class="char-part">
  <path d="M590 360 c0 -35 4 -42 27 -51 35 -13 145 -8 150 8 3 9 -17 13 -69 15
l-73 3 3 33 c3 27 0 32 -17 32 -18 0 -21 -6 -21 -40z"/>
  <path d="M445 370 c-4 -12 -25 -40 -46 -61 -41 -41 -37 -49 10 -24 35 17 83
73 78 89 -7 20 -35 18 -42 -4z"/>
</g>
<g id="part-4" class="char-part">
  <path d="M520 304 c7 -32 6 -36 -17 -45 -13 -5 -36 -10 -51 -11 -15 0 -4 -4
23 -7 45 -5 50 -9 53 -33 3 -26 2 -26 -75 -33 -99 -8 -102 -9 -77 -23 13 -7
34 -8 59 -2 21 5 98 12 171 16 147 7 173 24 38 24 -83 0 -84 0 -84 25 0 18 6
26 25 30 14 3 37 7 51 10 40 9 19 19 -32 16 -42 -2 -45 0 -39 19 8 25 -10 50
-35 50 -15 0 -17 -5 -10 -36z"/>
</g>
</g>
</svg>