<?xml version="1.0" standalone="no"?>
<!DOCTYPE svg PUBLIC "-//W3C//DTD SVG 20010904//EN"
 "http://www.w3.org/TR/2001/REC-SVG-20010904/DTD/svg10.dtd">
<svg version="1.0" xmlns="http://www.w3.org/2000/svg"
 width="96.000000pt" height="68.000000pt" viewBox="0 0 96.000000 68.000000"
 preserveAspectRatio="xMidYMid meet">
<metadata>
Created by potrace 1.16, written by Peter Selinger 2001-2019
Combined from part_0.svg through part_5.svg with named groups
</metadata>
<g transform="translate(0.000000,68.000000) scale(0.100000,-0.100000)" fill="#000000" stroke="none">
<g id="part-0" class="char-part">
  <path d="M510 599 c1 -8 7 -36 14 -64 8 -27 12 -52 10 -54 -2 -3 -48 -10 -102
-18 -53 -7 -115 -16 -136 -20 -35 -7 -37 -10 -23 -22 10 -7 17 -28 17 -46 0
-31 -2 -33 -40 -37 -43 -4 -58 12 -45 51 6 21 -18 51 -42 51 -11 0 -13 -5 -7
-17 4 -10 8 -41 8 -70 1 -28 4 -55 8 -59 4 -3 23 1 42 10 56 26 76 22 76 -18
0 -37 -12 -46 -63 -46 -82 0 -143 -25 -79 -32 22 -2 26 -7 24 -28 -2 -14 -14
-42 -28 -62 -25 -38 -22 -47 7 -25 28 22 78 98 73 111 -6 14 46 30 58 18 14
-14 -14 -97 -48 -144 -39 -53 -32 -64 13 -20 66 62 80 112 96 332 2 26 5 28
62 34 33 4 79 9 103 12 39 6 42 5 42 -17 0 -27 40 -177 61 -226 13 -31 12 -34
-20 -67 -19 -20 -39 -32 -44 -29 -6 3 -7 1 -3 -5 3 -6 -4 -18 -16 -26 -21 -15
-21 -16 -2 -16 21 0 55 20 94 56 l26 24 38 -46 c40 -48 116 -90 142 -80 13 5
14 17 8 63 -4 31 -10 68 -13 82 -6 22 -8 21 -25 -22 -10 -26 -21 -47 -25 -47
-10 0 -59 48 -77 75 -12 18 -10 28 16 78 37 74 48 126 29 138 -27 17 -49 10
-49 -14 0 -13 -7 -48 -16 -77 -16 -53 -16 -54 -29 -30 -11 22 -22 68 -39 168
l-5 32 54 0 c30 0 55 4 55 10 0 15 -36 30 -74 30 l-36 0 0 49 c0 56 -1 56 -53
66 -28 6 -37 4 -37 -6z"/>
  <path d="M650 556 c0 -21 48 -56 76 -56 16 0 24 6 24 18 0 29 -13 39 -57 46
-34 5 -43 3 -43 -8z"/>
  <path d="M412 367 c-47 -9 -52 -12 -45 -31 9 -23 10 -119 3 -181 -5 -38 -4
-40 20 -37 14 1 60 5 103 8 66 6 76 9 65 21 -8 9 -22 13 -40 9 -15 -3 -29 -2
-32 2 -7 12 19 57 32 54 7 -1 12 6 12 16 0 10 7 28 16 40 14 21 14 23 -11 32
-14 5 -31 9 -37 7 -15 -3 -21 24 -10 41 5 7 19 14 30 15 12 1 22 5 22 9 0 10
-61 8 -128 -5z m38 -47 c0 -23 -4 -30 -20 -30 -16 0 -20 7 -20 30 0 23 4 30
20 30 16 0 20 -7 20 -30z m50 -59 c0 -19 -25 -31 -67 -31 -16 0 -23 6 -23 18
0 27 9 32 52 32 31 0 38 -4 38 -19z m-47 -78 c6 -33 8 -30 -26 -38 -25 -7 -27
-5 -27 22 0 34 6 43 31 43 10 0 19 -10 22 -27z"/>
</g>
<g id="part-1" class="char-part">
  <path d="M510 598 c0 -2 7 -21 15 -43 28 -78 26 -80 -76 -93 -51 -6 -94 -14
-97 -17 -17 -17 23 -21 103 -11 l89 11 27 -106 c15 -58 34 -120 43 -138 16
-30 16 -33 -4 -61 -11 -16 -37 -43 -58 -60 -65 -54 -14 -33 66 27 l29 22 44
-45 c51 -52 87 -74 124 -74 24 0 25 3 20 33 -3 17 -9 52 -14 77 l-8 45 -12
-42 c-6 -23 -16 -45 -22 -48 -5 -4 -30 14 -56 39 -51 51 -50 42 -2 160 32 76
32 79 14 92 -31 23 -45 17 -45 -20 0 -29 -4 -47 -27 -116 -7 -23 -28 24 -47
107 -25 112 -25 113 34 113 28 0 50 5 50 10 0 15 -49 32 -79 28 -24 -3 -26 0
-29 47 -2 27 -9 53 -15 57 -11 7 -67 11 -67 6z"/>
  <path d="M678 530 c34 -32 72 -40 72 -16 0 22 -40 46 -75 46 l-30 -1 33 -29z"/>
</g>
<g id="part-2" class="char-part">
  <path d="M175 236 c-70 -12 -70 -12 -35 -22 29 -9 34 -15 32 -35 -2 -13 -17
-44 -34 -67 l-31 -44 32 16 c34 18 94 103 86 124 -2 7 4 12 14 12 26 0 51 10
51 21 0 11 -26 10 -115 -5z"/>
</g>
<g id="part-3" class="char-part">
  <path d="M412 368 c-48 -9 -52 -11 -45 -31 7 -20 8 -117 1 -192 -3 -27 0 -30
22 -27 14 2 60 6 103 9 42 3 77 9 77 13 0 15 -46 19 -101 11 -30 -5 -58 -6
-62 -1 -5 4 -5 50 -1 103 l7 95 51 6 c67 9 96 26 41 25 -22 -1 -64 -6 -93 -11z"/>
</g>
<g id="part-4" class="char-part">
  <path d="M450 325 c0 -15 6 -25 14 -25 7 0 16 11 18 25 4 19 1 25 -13 25 -14
0 -19 -7 -19 -25z"/>
</g>
<g id="part-5" class="char-part">
  <path d="M466 194 c-8 -21 -8 -24 3 -24 12 0 22 28 12 35 -5 3 -12 -2 -15 -11z"/>
</g>
</g>
</svg>