<?xml version="1.0" standalone="no"?>
<!DOCTYPE svg PUBLIC "-//W3C//DTD SVG 20010904//EN"
 "http://www.w3.org/TR/2001/REC-SVG-20010904/DTD/svg10.dtd">
<svg version="1.0" xmlns="http://www.w3.org/2000/svg"
 width="96.000000pt" height="68.000000pt" viewBox="0 0 96.000000 68.000000"
 preserveAspectRatio="xMidYMid meet">
<metadata>
Created by potrace 1.16, written by Peter Selinger 2001-2019
Combined from part_0.svg through part_5.svg with named groups
</metadata>
<g transform="translate(0.000000,68.000000) scale(0.100000,-0.100000)" fill="#000000" stroke="none">
<g id="part-0" class="char-part">
  <path d="M402 538 c-5 -74 -56 -163 -144 -250 -16 -15 -28 -30 -28 -33 0 -10
55 24 95 59 l40 35 3 -57 c2 -31 -1 -80 -8 -108 -11 -51 -2 -104 19 -104 14 0
20 37 22 157 2 72 -2 117 -9 125 -9 11 -1 34 34 102 37 70 43 90 34 102 -7 7
-22 14 -34 14 -18 0 -21 -7 -24 -42z"/>
  <path d="M600 509 c-125 -23 -138 -27 -84 -28 44 -1 54 -12 54 -56 0 -24 -29
-35 -91 -35 -15 0 -31 -4 -34 -10 -4 -6 18 -10 60 -10 l66 0 -3 -32 c-3 -31
-6 -33 -50 -38 -26 -3 -50 -9 -54 -12 -10 -11 43 -21 71 -14 15 4 25 2 25 -4
0 -27 -53 -137 -85 -176 -42 -52 -35 -57 18 -13 39 32 76 95 97 166 l13 42 66
3 c65 3 66 3 68 33 5 70 9 75 63 75 28 0 50 4 50 9 0 10 -35 21 -69 21 -17 0
-22 4 -17 16 18 47 17 63 -2 73 -26 14 -32 13 -162 -10z m120 -38 c0 -41 -24
-61 -71 -61 l-40 0 7 38 c8 44 17 52 67 52 34 0 37 -2 37 -29z m-15 -98 c-4
-10 -8 -23 -9 -30 -3 -18 -7 -20 -48 -27 l-38 -7 0 41 0 40 51 0 c45 0 50 -2
44 -17z"/>
  <path d="M205 480 c-11 -5 -41 -9 -67 -9 -35 -1 -48 -5 -48 -15 0 -8 4 -17 9
-20 5 -4 12 -30 16 -59 9 -65 23 -93 38 -78 6 6 35 11 64 11 51 0 53 1 47 24
-3 14 3 44 17 76 22 51 22 53 4 66 -21 16 -50 17 -80 4z m19 -72 c-9 -63 -11
-68 -38 -68 -27 0 -36 16 -36 65 0 36 9 43 53 44 26 1 27 0 21 -41z"/>
</g>
<g id="part-1" class="char-part">
  <path d="M190 474 c-19 -7 -50 -13 -69 -13 -27 -1 -31 -4 -22 -14 6 -8 16 -42
23 -78 l13 -64 45 3 c67 5 76 9 78 43 1 17 9 44 17 59 20 39 19 57 -4 70 -24
12 -36 11 -81 -6z m40 -36 c0 -64 -13 -98 -37 -104 -33 -9 -41 2 -45 61 -3 48
-2 50 27 56 50 11 55 10 55 -13z"/>
</g>
<g id="part-2" class="char-part">
  <path d="M408 583 c-2 -5 -5 -23 -7 -42 -6 -74 -54 -163 -121 -226 -17 -16
-36 -38 -42 -48 -9 -17 -8 -17 22 -2 17 9 49 32 71 52 l39 35 0 -54 c0 -31 -5
-80 -10 -109 -12 -61 -5 -109 15 -109 18 0 23 30 26 158 2 74 -1 116 -9 124
-8 8 0 33 33 98 25 47 45 91 45 96 0 6 -11 16 -25 22 -31 14 -33 14 -37 5z"/>
</g>
<g id="part-3" class="char-part">
  <path d="M600 509 c-58 -11 -109 -21 -115 -24 -12 -6 122 2 189 11 l49 7 -7
-54 c-4 -30 -11 -70 -16 -90 l-10 -36 -93 -12 c-133 -17 -146 -20 -125 -32 11
-6 51 -6 110 1 141 17 159 20 153 31 -4 5 6 51 20 101 25 87 26 93 9 105 -22
16 -33 15 -164 -8z"/>
</g>
<g id="part-4" class="char-part">
  <path d="M567 441 c5 -34 3 -39 -18 -44 -13 -4 -43 -7 -66 -7 -25 0 -43 -5
-43 -11 0 -8 22 -10 66 -7 l66 4 -6 -57 c-8 -79 -40 -160 -87 -219 -45 -57
-40 -64 14 -19 59 48 117 183 117 269 l0 37 117 7 c65 4 119 9 122 12 20 20
-57 24 -172 10 l-68 -9 6 37 c7 35 6 36 -23 36 -29 0 -30 -1 -25 -39z"/>
</g>
</g>
</svg>