<?xml version="1.0" standalone="no"?>
<!DOCTYPE svg PUBLIC "-//W3C//DTD SVG 20010904//EN"
 "http://www.w3.org/TR/2001/REC-SVG-20010904/DTD/svg10.dtd">
<svg version="1.0" xmlns="http://www.w3.org/2000/svg"
 width="96.000000pt" height="68.000000pt" viewBox="0 0 96.000000 68.000000"
 preserveAspectRatio="xMidYMid meet">
<metadata>
Created by potrace 1.16, written by Peter Selinger 2001-2019
Combined from part_0.svg through part_5.svg with named groups
</metadata>
<g transform="translate(0.000000,68.000000) scale(0.100000,-0.100000)" fill="#000000" stroke="none">
<g id="part-0" class="char-part">
  <path d="M549 581 c6 -11 11 -24 11 -29 0 -6 -39 -16 -87 -22 -71 -10 -84 -15
-66 -23 14 -6 51 -4 116 7 52 9 126 16 165 16 70 0 101 13 62 25 -11 4 -49 4
-83 0 -58 -6 -63 -5 -72 17 -6 13 -20 24 -33 26 -21 3 -22 1 -13 -17z"/>
  <path d="M247 573 c-4 -3 -7 -17 -7 -30 0 -35 -57 -136 -112 -197 -26 -30 -48
-57 -48 -60 0 -17 31 -1 78 40 57 50 87 55 87 14 0 -22 -6 -26 -47 -33 -62
-12 -61 -27 1 -27 l49 0 4 -47 c3 -27 3 -53 1 -60 -6 -15 -38 -23 -100 -23
-59 0 -70 -17 -31 -44 31 -22 40 -21 163 28 136 55 159 85 38 50 -22 -6 -23
-3 -23 44 0 54 6 62 52 71 40 8 36 25 -7 29 -29 3 -35 7 -35 27 0 18 6 24 28
27 15 2 26 8 24 13 -2 6 -31 9 -69 7 l-65 -3 19 33 c11 18 26 43 33 55 l14 22
34 -30 c38 -33 55 -33 60 0 3 18 -4 25 -37 38 -23 9 -41 22 -41 29 0 22 -48
42 -63 27z"/>
  <path d="M630 491 c-28 -4 -40 -9 -32 -14 6 -5 12 -19 12 -32 0 -13 5 -27 10
-30 16 -10 12 -52 -6 -59 -30 -12 -59 -6 -72 14 -16 27 -40 25 -44 -2 -2 -14
-13 -25 -28 -29 -24 -7 -24 -7 8 -14 38 -9 37 -29 -1 -33 -15 -2 -25 -7 -22
-12 3 -5 16 -7 29 -4 16 3 26 -2 30 -12 8 -22 10 -21 -57 -29 -43 -6 -57 -4
-55 5 2 6 -7 18 -18 26 -21 14 -23 13 -47 -31 -29 -51 -26 -54 21 -25 27 16
37 18 48 9 9 -7 31 -9 59 -5 42 5 45 4 36 -12 -6 -10 -42 -40 -81 -66 -39 -27
-69 -50 -66 -53 2 -3 28 7 56 21 28 14 56 26 62 26 7 0 9 -19 4 -53 -3 -30 -3
-57 1 -60 6 -7 68 27 93 52 13 13 13 14 0 9 -62 -23 -60 -24 -60 35 0 47 3 57
25 71 14 9 23 21 21 25 -6 9 99 21 187 21 44 0 57 3 57 15 0 12 -15 15 -76 15
-64 0 -75 2 -65 14 6 7 25 16 42 20 34 7 30 29 -4 24 -35 -5 -27 26 8 33 l30
6 -32 8 c-18 4 -33 14 -33 21 0 8 -7 14 -15 14 -8 0 -15 5 -15 10 0 6 17 10
38 10 33 0 39 4 49 31 20 51 11 54 -97 40z m70 -15 c0 -22 -17 -36 -41 -36
-32 0 -41 25 -11 33 24 6 52 8 52 3z m-72 -162 c-11 -10 -81 -8 -85 3 -3 8 11
13 39 15 38 3 58 -5 46 -18z m2 -50 c0 -8 -10 -14 -22 -15 -13 0 -31 -2 -40
-4 -10 -2 -18 1 -18 6 0 5 0 12 0 17 -1 8 60 20 73 14 4 -2 7 -10 7 -18z"/>
  <path d="M469 473 l-36 -4 12 -35 c6 -19 15 -35 18 -35 4 1 25 1 47 1 32 0 40
4 40 18 0 10 5 23 11 29 6 6 8 16 5 22 -7 11 -25 11 -97 4z m59 -30 c-2 -9
-15 -20 -30 -24 -25 -6 -28 -5 -28 17 0 20 5 24 31 24 23 0 30 -4 27 -17z"/>
  <path d="M150 233 c0 -3 8 -18 17 -34 20 -33 43 -45 55 -27 10 16 10 20 0 36
-8 12 -72 35 -72 25z"/>
  <path d="M675 190 c-21 -32 -35 -36 -66 -19 -41 21 -39 2 3 -28 24 -17 57 -43
73 -58 57 -51 72 -57 115 -50 50 8 51 20 3 35 -51 15 -143 61 -143 70 0 4 21
18 46 29 43 21 45 23 28 36 -27 21 -37 18 -59 -15z"/>
</g>
<g id="part-1" class="char-part">
  <path d="M250 556 c0 -38 -68 -159 -123 -222 -55 -62 -35 -60 36 2 21 20 48
34 62 34 21 0 25 -5 25 -29 0 -31 -14 -41 -61 -41 -16 0 -29 -5 -29 -11 0 -7
18 -10 48 -7 l47 3 3 -61 c3 -71 3 -72 -96 -81 -62 -6 -63 -6 -44 -25 10 -10
27 -20 38 -20 19 -2 211 69 228 84 19 16 -2 18 -42 4 l-42 -15 0 63 0 64 47 7
c38 5 44 9 30 17 -10 5 -30 8 -45 6 -23 -3 -27 1 -27 24 -1 22 5 29 28 34 20
4 26 9 19 16 -7 7 -25 7 -56 -1 -78 -19 -81 -17 -51 37 45 78 50 81 84 48 28
-27 61 -31 61 -7 0 14 -41 41 -62 41 -10 0 -23 11 -27 24 -8 19 -29 36 -47 36
-2 0 -4 -11 -4 -24z"/>
  <path d="M341 235 c-23 -40 -22 -41 22 -19 42 22 42 21 27 39 -18 22 -26 19
-49 -20z"/>
  <path d="M160 217 c0 -16 32 -47 48 -47 19 0 14 38 -7 50 -27 14 -41 13 -41
-3z"/>
</g>
<g id="part-2" class="char-part">
  <path d="M540 596 c0 -7 7 -19 15 -26 26 -22 17 -28 -52 -35 -38 -4 -79 -10
-93 -15 l-25 -8 27 -7 c15 -4 51 -2 80 5 29 6 104 14 166 17 75 4 111 10 109
17 -3 7 -33 10 -86 9 -72 -2 -81 0 -81 16 0 10 -11 23 -25 29 -33 15 -35 15
-35 -2z"/>
</g>
<g id="part-3" class="char-part">
  <path d="M484 476 l-51 -11 12 -35 c10 -28 16 -34 36 -32 53 6 65 12 76 42 15
40 -4 50 -73 36z m46 -20 c0 -20 -16 -36 -36 -36 -17 0 -24 6 -24 20 0 16 7
20 30 20 17 0 30 -2 30 -4z"/>
</g>
<g id="part-4" class="char-part">
  <path d="M672 185 c-25 -39 -34 -42 -52 -20 -7 8 -22 15 -34 14 -20 0 -20 -1
4 -17 13 -9 49 -39 80 -66 65 -57 83 -65 133 -58 48 6 47 16 -5 32 -51 16
-138 60 -138 70 0 4 17 16 38 25 48 23 47 22 32 40 -19 23 -33 18 -58 -20z"/>
  <path d="M486 138 c-10 -31 -14 -118 -7 -123 5 -2 28 9 52 26 64 45 69 52 27
35 -21 -9 -40 -16 -43 -16 -3 0 -5 20 -5 45 0 41 -15 62 -24 33z"/>
</g>
</g>
</svg>