<?xml version="1.0" standalone="no"?>
<!DOCTYPE svg PUBLIC "-//W3C//DTD SVG 20010904//EN"
 "http://www.w3.org/TR/2001/REC-SVG-20010904/DTD/svg10.dtd">
<svg version="1.0" xmlns="http://www.w3.org/2000/svg"
 width="96.000000pt" height="68.000000pt" viewBox="0 0 96.000000 68.000000"
 preserveAspectRatio="xMidYMid meet">
<metadata>
Created by potrace 1.16, written by Peter Selinger 2001-2019
Combined from part_0.svg through part_5.svg with named groups
</metadata>
<g transform="translate(0.000000,68.000000) scale(0.100000,-0.100000)" fill="#000000" stroke="none">
<g id="part-0" class="char-part">
  <path d="M414 592 c-5 -4 -20 -29 -33 -55 -14 -27 -40 -60 -58 -74 -34 -26
-44 -60 -20 -69 7 -2 42 2 78 11 35 8 72 15 82 15 17 0 17 -1 3 -16 -9 -8 -16
-19 -16 -23 0 -10 -179 -31 -260 -31 -33 0 -60 -4 -60 -10 0 -17 71 -23 128
-10 31 7 149 14 262 17 113 2 216 6 229 9 22 5 23 6 8 21 -18 18 -40 19 -182
8 l-100 -8 72 72 c66 66 70 72 52 82 -21 11 -115 -3 -154 -24 -19 -10 -19 -9
-2 17 19 28 15 61 -7 69 -7 3 -17 2 -22 -1z m106 -102 c0 -33 -14 -40 -78 -40
-64 0 -65 0 -48 19 17 18 42 25 104 28 12 0 22 -3 22 -7z"/>
  <path d="M394 308 c-4 -13 -18 -40 -31 -60 -23 -37 -18 -53 7 -23 7 8 21 15
31 15 15 0 19 -7 19 -34 0 -33 -1 -34 -50 -40 -27 -4 -50 -11 -50 -17 0 -6 17
-8 46 -3 43 6 45 5 36 -12 -12 -22 -42 -48 -85 -75 -43 -25 -14 -24 40 2 28
13 50 34 65 60 19 35 26 39 62 40 23 0 50 4 61 8 19 8 19 8 -3 15 -12 4 -36 5
-52 1 -28 -6 -30 -5 -30 23 0 30 14 42 51 42 10 0 19 5 19 11 0 8 -18 10 -60
5 -33 -4 -60 -4 -60 -1 0 4 10 15 22 24 23 20 17 41 -12 41 -11 0 -22 -10 -26
-22z"/>
  <path d="M578 213 c3 -139 5 -146 45 -168 26 -13 49 -17 100 -13 80 5 107 24
90 60 -7 13 -14 30 -16 38 -3 10 -9 5 -16 -15 -16 -39 -27 -45 -88 -45 -42 0
-55 4 -67 22 -29 41 -18 108 18 108 11 0 47 8 78 18 45 14 55 21 46 30 -17 17
-33 15 -88 -13 -27 -14 -51 -25 -54 -25 -3 0 -6 24 -8 53 -2 43 -6 52 -23 55
-19 3 -20 -2 -17 -105z"/>
  <path d="M180 297 c0 -2 -1 -58 -3 -126 -3 -126 3 -148 35 -122 62 52 91 81
83 81 -6 0 -15 -4 -20 -9 -6 -5 -20 -12 -32 -16 -21 -6 -23 -3 -23 38 l0 45
45 6 c25 4 45 11 45 17 0 11 -4 11 -54 0 l-38 -9 5 38 c4 33 2 39 -19 49 -13
6 -24 9 -24 8z"/>
  <path d="M460 119 c0 -16 59 -71 72 -67 15 5 20 20 10 35 -11 18 -82 46 -82
32z"/>
</g>
<g id="part-1" class="char-part">
  <path d="M395 553 c-9 -21 -36 -59 -62 -85 -68 -70 -53 -80 79 -51 93 20 103
37 16 27 l-62 -7 42 53 c44 55 52 92 20 98 -12 2 -22 -8 -33 -35z"/>
</g>
<g id="part-2" class="char-part">
  <path d="M625 390 c-64 -8 -389 -39 -465 -43 l-45 -3 30 -13 c25 -11 47 -11
145 3 71 10 182 16 292 16 97 0 179 4 182 9 8 13 -17 30 -50 35 -16 2 -56 1
-89 -4z"/>
</g>
<g id="part-3" class="char-part">
  <path d="M175 173 c1 -151 5 -155 80 -88 l50 45 -42 -15 -43 -14 0 43 0 44 45
6 c25 4 45 12 45 18 0 7 -16 8 -46 3 l-47 -7 7 36 c6 29 3 37 -13 45 -11 6
-23 11 -28 11 -4 0 -8 -57 -8 -127z"/>
</g>
<g id="part-4" class="char-part">
  <path d="M397 323 c-4 -3 -7 -14 -7 -23 0 -10 -11 -34 -25 -55 -29 -41 -28
-56 0 -25 12 13 31 20 54 20 55 0 111 11 111 22 0 6 -23 7 -60 3 -63 -7 -73
-1 -40 28 12 10 18 22 15 27 -7 11 -38 13 -48 3z"/>
</g>
<g id="part-5" class="char-part">
  <path d="M590 320 c-2 -3 -4 -23 -5 -44 l-2 -40 18 23 c20 24 26 46 10 36 -5
-3 -12 3 -14 12 -3 10 -6 16 -7 13z"/>
  <path d="M702 241 c-18 -9 -30 -20 -26 -24 10 -10 26 -9 20 1 -3 5 11 9 31 10
44 2 51 7 26 20 -13 7 -27 5 -51 -7z"/>
  <path d="M591 206 c-9 -33 -10 -49 -1 -65 15 -28 22 -26 14 4 -3 14 -3 33 2
42 11 25 14 63 6 63 -4 0 -13 -20 -21 -44z"/>
  <path d="M782 100 c-8 -16 -20 -30 -28 -30 -8 0 -14 -7 -14 -15 0 -8 -5 -15
-11 -15 -5 0 -7 5 -3 12 5 8 0 9 -17 5 -31 -8 -87 12 -94 34 -9 27 -34 32 -27
6 6 -23 35 -49 62 -55 18 -5 99 -4 120 0 38 9 55 38 23 38 -14 0 -15 2 -5 9 8
5 12 16 10 25 -2 12 -7 8 -16 -14z"/>
</g>
</g>
</svg>