<?xml version="1.0" standalone="no"?>
<!DOCTYPE svg PUBLIC "-//W3C//DTD SVG 20010904//EN"
 "http://www.w3.org/TR/2001/REC-SVG-20010904/DTD/svg10.dtd">
<svg version="1.0" xmlns="http://www.w3.org/2000/svg"
 width="96.000000pt" height="68.000000pt" viewBox="0 0 96.000000 68.000000"
 preserveAspectRatio="xMidYMid meet">
<metadata>
Created by potrace 1.16, written by Peter Selinger 2001-2019
Combined from part_0.svg through part_5.svg with named groups
</metadata>
<g transform="translate(0.000000,68.000000) scale(0.100000,-0.100000)" fill="#000000" stroke="none">
<g id="part-0" class="char-part">
  <path d="M280 552 c0 -30 30 -63 53 -60 28 4 34 34 11 59 -22 25 -64 26 -64 1z"/>
  <path d="M568 544 c-8 -7 18 -58 37 -74 20 -16 45 -5 45 20 0 12 -13 28 -32
40 -35 21 -42 23 -50 14z"/>
  <path d="M242 470 c-73 -10 -136 -21 -140 -24 -14 -15 25 -27 73 -23 66 6 279
37 283 42 2 2 1 8 -3 14 -8 14 -52 12 -213 -9z"/>
  <path d="M605 434 c-77 -13 -152 -24 -167 -24 -16 0 -28 -5 -28 -11 0 -9 20
-10 70 -5 70 6 70 6 70 -19 0 -43 -57 -140 -116 -199 -63 -62 -61 -71 7 -27
29 19 62 57 94 106 l50 77 49 -6 c27 -3 53 -9 58 -14 10 -10 -16 -101 -43
-147 -22 -36 -45 -43 -80 -25 -26 14 -25 -3 3 -40 31 -43 61 -39 98 11 16 23
39 67 50 98 11 31 25 64 30 73 25 44 14 53 -81 63 -62 7 -64 8 -65 35 -1 33
20 40 116 40 32 0 72 3 90 6 l32 7 -23 13 c-32 17 -49 17 -214 -12z"/>
  <path d="M261 389 c-47 -9 -58 -15 -48 -26 10 -9 147 17 147 28 0 11 -38 10
-99 -2z"/>
  <path d="M278 318 c-44 -9 -67 -28 -34 -28 29 0 116 24 116 32 0 10 -20 9 -82
-4z"/>
  <path d="M315 251 c-11 -5 -46 -12 -78 -15 -55 -7 -58 -9 -43 -25 8 -9 19 -35
24 -57 5 -24 13 -39 22 -39 42 2 120 19 120 26 0 5 10 30 21 54 12 25 20 48
17 50 -10 10 -64 14 -83 6z m21 -43 c-3 -13 -6 -31 -6 -40 0 -14 -9 -18 -39
-18 -32 0 -40 4 -45 23 -12 46 -5 52 68 56 25 1 28 -2 22 -21z"/>
</g>
<g id="part-1" class="char-part">
  <path d="M280 556 c0 -19 39 -66 55 -66 27 0 27 34 0 57 -29 26 -55 30 -55 9z"/>
  <path d="M251 467 c-137 -18 -151 -22 -135 -34 12 -9 32 -13 54 -9 19 3 78 12
130 20 52 9 111 16 130 16 33 1 34 1 16 15 -11 8 -25 14 -30 14 -6 -1 -80 -11
-165 -22z"/>
</g>
<g id="part-2" class="char-part">
  <path d="M309 250 c-9 -5 -41 -12 -70 -14 -30 -3 -56 -5 -58 -6 -2 0 3 -8 12
-17 8 -10 19 -31 23 -48 14 -59 21 -66 52 -49 15 7 43 14 63 14 25 0 36 5 36
15 0 8 8 33 18 55 16 36 17 43 4 51 -18 11 -60 11 -80 -1z m31 -29 c0 -5 -3
-23 -6 -40 -6 -28 -10 -31 -44 -31 -31 0 -39 4 -44 23 -10 37 -7 45 17 50 41
8 77 7 77 -2z"/>
</g>
<g id="part-3" class="char-part">
  <path d="M566 542 c-9 -16 38 -77 62 -80 17 -3 22 2 22 21 0 36 -68 84 -84 59z"/>
  <path d="M578 432 c-93 -14 -168 -29 -168 -34 0 -12 63 -10 165 6 50 8 130 17
179 21 57 5 85 10 78 17 -19 19 -88 16 -254 -10z"/>
</g>
<g id="part-4" class="char-part">
  <path d="M550 378 c0 -43 -50 -130 -111 -194 -34 -35 -58 -64 -53 -64 12 0 62
32 96 62 29 24 128 184 128 206 0 7 -13 12 -30 12 -24 0 -30 -4 -30 -22z"/>
</g>
<g id="part-5" class="char-part">
  <path d="M610 340 c8 -5 20 -10 25 -10 6 0 3 5 -5 10 -8 5 -19 10 -25 10 -5 0
-3 -5 5 -10z"/>
  <path d="M660 330 c0 -9 23 -14 58 -13 11 1 11 -2 -1 -16 -17 -21 -38 -91 -30
-104 3 -6 1 -7 -4 -4 -6 4 -16 -7 -23 -23 -13 -32 -80 -64 -88 -41 -2 6 -8 11
-13 11 -6 0 2 -15 16 -34 24 -31 29 -34 51 -24 14 7 23 17 20 24 -3 8 0 16 6
20 7 4 8 3 4 -4 -4 -8 -2 -10 8 -6 9 3 12 12 9 21 -4 10 -2 14 4 10 11 -7 43
54 43 83 0 10 9 34 20 53 l20 34 -25 11 c-32 15 -75 16 -75 2z"/>
</g>
</g>
</svg>