<?xml version="1.0" standalone="no"?>
<!DOCTYPE svg PUBLIC "-//W3C//DTD SVG 20010904//EN"
 "http://www.w3.org/TR/2001/REC-SVG-20010904/DTD/svg10.dtd">
<svg version="1.0" xmlns="http://www.w3.org/2000/svg"
 width="96.000000pt" height="68.000000pt" viewBox="0 0 96.000000 68.000000"
 preserveAspectRatio="xMidYMid meet">
<metadata>
Created by potrace 1.16, written by Peter Selinger 2001-2019
Combined from part_0.svg through part_5.svg with named groups
</metadata>
<g transform="translate(0.000000,68.000000) scale(0.100000,-0.100000)" fill="#000000" stroke="none">
<g id="part-0" class="char-part">
  <path d="M480 635 c-7 -9 -19 -14 -27 -11 -8 3 -11 1 -8 -4 4 -6 -21 -23 -54
-38 -33 -15 -60 -30 -61 -34 0 -14 48 -9 102 11 29 10 72 24 96 30 45 13 52
26 25 47 -24 18 -58 17 -73 -1z"/>
  <path d="M572 520 c-24 -27 -39 -50 -35 -53 9 -5 153 59 153 68 0 4 -6 13 -14
21 -26 26 -59 14 -104 -36z"/>
  <path d="M410 526 c0 -22 40 -66 61 -66 25 0 26 41 1 63 -22 20 -62 22 -62 3z"/>
  <path d="M279 491 c29 -55 81 -72 81 -26 0 27 -49 65 -83 65 -16 0 -16 -2 2
-39z"/>
  <path d="M539 445 c-3 -2 -54 -11 -114 -20 -119 -16 -143 -25 -72 -25 47 0 47
0 47 -34 0 -40 -3 -41 -133 -51 -48 -4 -89 -11 -92 -15 -9 -15 45 -20 127 -14
l82 7 -22 -30 c-29 -41 -127 -130 -164 -149 -47 -25 -24 -29 27 -5 25 12 66
39 89 61 24 22 49 40 56 40 13 0 65 -35 94 -64 19 -19 19 -20 -9 -42 -16 -12
-62 -34 -104 -49 l-76 -26 58 6 c33 3 83 18 118 35 l62 30 60 -40 c51 -34 66
-40 111 -39 28 1 65 4 81 8 27 6 19 10 -70 39 -55 17 -111 41 -125 51 l-24 19
46 55 c36 41 44 57 35 66 -16 16 -70 14 -150 -5 -37 -9 -70 -14 -74 -10 -3 3
-1 17 6 30 14 26 29 29 239 42 103 7 122 15 78 35 -18 8 -50 8 -119 0 -53 -6
-109 -11 -127 -11 -27 0 -30 2 -20 20 6 10 9 25 8 32 -2 7 16 15 47 19 76 12
96 19 90 29 -6 10 -58 14 -66 5z m1 -229 c0 -8 -8 -24 -19 -37 l-18 -22 -37
22 c-20 12 -36 26 -36 30 0 8 91 29 103 23 4 -2 7 -9 7 -16z"/>
</g>
<g id="part-1" class="char-part">
  <path d="M470 624 c-19 -14 -56 -36 -82 -50 -48 -25 -63 -39 -30 -31 106 29
202 62 202 70 0 12 -31 36 -45 36 -5 0 -26 -11 -45 -25z"/>
  <path d="M581 520 c-23 -27 -40 -50 -38 -50 15 0 137 61 137 68 0 14 -23 32
-40 32 -9 0 -36 -22 -59 -50z"/>
  <path d="M410 534 c0 -16 43 -74 55 -74 36 0 28 51 -11 68 -28 13 -44 15 -44
6z"/>
  <path d="M276 508 c24 -41 47 -68 60 -68 23 0 17 47 -8 64 -27 19 -62 22 -52
4z"/>
</g>
<g id="part-2" class="char-part">
  <path d="M538 445 c-2 -3 -53 -11 -112 -19 -59 -8 -110 -17 -113 -20 -10 -10
137 -7 207 4 84 14 102 19 95 31 -6 9 -68 13 -77 4z"/>
</g>
<g id="part-3" class="char-part">
  <path d="M400 366 c0 -39 -4 -40 -147 -52 -46 -4 -83 -10 -83 -15 0 -16 43
-21 121 -14 49 4 79 3 79 -3 0 -18 -78 -97 -139 -142 -33 -24 -58 -46 -56 -48
2 -3 30 8 61 23 55 27 123 87 174 154 l25 33 158 11 c86 6 157 14 157 19 0 5
-11 14 -25 20 -19 8 -49 8 -119 0 -52 -7 -109 -12 -126 -12 -28 0 -29 2 -18
20 11 17 10 22 -2 30 -8 5 -25 10 -37 10 -19 0 -23 -5 -23 -34z"/>
</g>
<g id="part-4" class="char-part">
  <path d="M465 251 c-102 -23 -103 -26 -43 -72 29 -22 53 -45 53 -51 0 -16 -57
-48 -134 -75 -51 -17 -59 -22 -36 -23 40 0 98 17 162 47 l52 24 52 -40 c54
-44 90 -50 184 -32 l40 7 -101 32 c-56 17 -112 40 -125 51 -27 21 -28 19 44
98 29 31 29 31 9 42 -27 14 -71 12 -157 -8z m75 -30 c0 -10 -8 -29 -19 -42
l-18 -22 -37 22 c-20 12 -36 26 -36 30 0 6 45 19 103 30 4 0 7 -8 7 -18z"/>
</g>
</g>
</svg>