<?xml version="1.0" standalone="no"?>
<!DOCTYPE svg PUBLIC "-//W3C//DTD SVG 20010904//EN"
 "http://www.w3.org/TR/2001/REC-SVG-20010904/DTD/svg10.dtd">
<svg version="1.0" xmlns="http://www.w3.org/2000/svg"
 width="96.000000pt" height="68.000000pt" viewBox="0 0 96.000000 68.000000"
 preserveAspectRatio="xMidYMid meet">
<metadata>
Created by potrace 1.16, written by Peter Selinger 2001-2019
Combined from part_0.svg through part_5.svg with named groups
</metadata>
<g transform="translate(0.000000,68.000000) scale(0.100000,-0.100000)" fill="#000000" stroke="none">
<g id="part-0" class="char-part">
  <path d="M224 538 c4 -30 1 -77 -7 -108 l-12 -55 -57 -5 c-31 -3 -59 -8 -63
-11 -3 -4 6 -16 21 -28 20 -16 35 -20 56 -16 30 7 33 3 19 -24 -12 -21 -5 -31
38 -58 l34 -21 -59 -38 c-32 -21 -61 -40 -63 -41 -2 -2 -2 -6 2 -9 9 -9 79 16
113 42 l31 23 22 -25 c27 -32 71 -33 71 -2 0 12 -11 31 -26 43 l-25 20 24 56
c25 54 26 55 61 51 43 -5 45 -18 12 -84 -22 -44 -32 -98 -17 -98 4 0 28 7 53
15 30 11 73 15 129 13 78 -3 84 -5 81 -23 -7 -39 -32 -56 -71 -49 l-36 7 30
-36 c17 -19 38 -36 47 -36 20 -1 66 56 77 96 8 27 9 28 69 25 63 -3 79 8 43
28 -11 5 -35 10 -55 10 -19 0 -37 3 -39 8 -3 4 -3 37 0 75 l6 67 58 0 c33 0
59 4 59 9 0 13 -27 21 -72 21 l-40 0 5 43 c2 23 8 52 12 64 12 38 -21 45 -170
37 l-134 -7 6 -47 c3 -27 3 -63 -1 -82 -6 -32 -9 -34 -48 -37 -36 -2 -40 0
-28 13 7 9 18 16 26 16 21 0 27 20 8 27 -10 3 -26 15 -36 25 -10 10 -27 18
-39 18 -18 0 -20 -4 -14 -29 6 -27 4 -29 -30 -35 -21 -4 -38 -6 -40 -4 -1 2
10 42 25 89 l27 87 -28 16 c-50 30 -61 23 -55 -36z m473 -95 c1 -34 -1 -64 -5
-66 -4 -3 -51 -8 -106 -12 l-98 -7 6 43 c15 97 15 98 49 102 18 2 59 4 92 3
l60 -1 2 -62z m-396 -148 c-21 -47 -35 -54 -65 -32 -13 9 -16 20 -11 40 4 15
12 30 18 34 18 11 72 20 75 12 2 -5 -6 -29 -17 -54z m385 44 c3 -6 3 -37 -1
-70 l-7 -59 -51 -1 c-29 0 -76 -4 -104 -8 -74 -10 -78 -5 -55 70 l20 64 78 5
c43 3 86 6 96 7 10 1 20 -3 24 -8z"/>
  <path d="M560 455 c0 -18 33 -65 45 -65 21 0 19 40 -2 56 -18 14 -43 18 -43 9z"/>
  <path d="M560 306 c0 -22 35 -60 48 -52 19 11 14 33 -10 50 -28 20 -38 20 -38
2z"/>
</g>
<g id="part-1" class="char-part">
  <path d="M228 503 c-3 -49 -10 -100 -16 -115 -11 -26 -16 -28 -67 -28 -30 0
-55 -4 -55 -10 0 -17 42 -32 76 -27 32 5 33 5 23 -19 -14 -37 -12 -40 26 -64
19 -12 35 -25 35 -30 0 -5 -26 -25 -57 -45 -52 -33 -55 -37 -26 -31 18 3 51
17 74 32 l41 26 27 -26 c15 -14 32 -26 39 -26 21 0 13 44 -13 65 l-25 20 30
60 c16 33 30 65 30 72 0 7 12 19 28 27 25 14 26 15 5 16 -13 0 -22 3 -22 8 4
23 -4 32 -30 32 -25 0 -28 -3 -24 -25 4 -20 0 -25 -23 -30 -16 -4 -35 -9 -42
-11 -16 -5 -10 32 19 116 10 30 19 58 19 62 0 7 -52 38 -63 38 -3 0 -7 -39 -9
-87z m96 -165 c-9 -32 -43 -98 -50 -98 -9 0 -64 30 -64 36 0 2 6 20 14 39 11
25 22 35 43 38 62 9 65 8 57 -15z"/>
</g>
<g id="part-2" class="char-part">
  <path d="M523 523 l-71 -4 5 -57 c6 -61 -24 -195 -53 -239 -13 -21 -20 -73 -9
-73 2 0 30 7 62 15 31 8 92 15 135 15 l77 0 -11 -30 c-13 -39 -37 -52 -77 -40
l-31 9 33 -40 c17 -21 40 -39 49 -39 22 0 66 58 74 99 l7 33 63 -7 c42 -4 64
-3 64 4 0 17 -36 31 -80 31 l-42 0 5 43 c4 23 9 78 12 122 4 44 11 93 17 109
10 24 9 31 -7 42 -19 14 -51 15 -222 7z m170 -103 c-1 -47 -4 -113 -8 -146
l-6 -62 -110 -7 c-61 -4 -113 -5 -115 -2 -3 3 4 36 15 74 11 37 23 91 26 118
13 101 14 104 48 108 18 2 59 4 92 3 l60 -1 -2 -85z"/>
</g>
<g id="part-3" class="char-part">
  <path d="M560 455 c0 -17 33 -65 44 -65 23 0 27 29 6 50 -18 18 -50 27 -50 15z"/>
  <path d="M625 369 c-44 -4 -119 -10 -168 -14 -56 -4 -85 -10 -81 -17 5 -7 37
-8 93 -4 47 3 151 9 231 12 80 4 147 8 149 10 1 1 0 7 -4 13 -7 12 -99 12
-220 0z"/>
</g>
<g id="part-4" class="char-part">
  <path d="M560 305 c0 -7 9 -23 19 -36 15 -18 22 -21 31 -13 9 9 9 17 1 32 -12
23 -51 36 -51 17z"/>
</g>
</g>
</svg>