<?xml version="1.0" standalone="no"?>
<!DOCTYPE svg PUBLIC "-//W3C//DTD SVG 20010904//EN"
 "http://www.w3.org/TR/2001/REC-SVG-20010904/DTD/svg10.dtd">
<svg version="1.0" xmlns="http://www.w3.org/2000/svg"
 width="96.000000pt" height="68.000000pt" viewBox="0 0 96.000000 68.000000"
 preserveAspectRatio="xMidYMid meet">
<metadata>
Created by potrace 1.16, written by Peter Selinger 2001-2019
Combined from part_0.svg through part_5.svg with named groups
</metadata>
<g transform="translate(0.000000,68.000000) scale(0.100000,-0.100000)" fill="#000000" stroke="none">
<g id="part-0" class="char-part">
  <path d="M625 569 c-16 -5 -56 -10 -87 -11 -32 -1 -58 -3 -58 -6 0 -2 6 -10
14 -17 17 -18 38 -131 29 -165 -3 -14 -22 -42 -41 -62 -43 -45 -37 -48 20 -11
23 15 54 28 70 29 27 2 29 0 23 -25 -3 -14 -20 -43 -36 -63 -36 -46 -27 -49
23 -8 40 33 55 32 92 -9 24 -26 46 -27 46 -2 0 13 -13 25 -40 37 -37 16 -55
44 -29 44 8 0 8 4 0 14 -9 11 -2 15 44 21 80 10 87 1 79 -94 -10 -133 -30
-170 -79 -151 -15 6 -30 9 -32 6 -10 -10 52 -66 72 -66 47 0 70 51 85 182 6
51 15 97 20 103 12 14 -16 43 -46 47 -22 3 -167 -11 -203 -19 -20 -5 -22 -3
-16 16 4 12 2 21 -4 21 -6 0 -11 7 -11 16 0 13 11 15 73 12 l72 -3 17 35 c9
19 23 52 32 72 l16 38 -30 15 c-32 17 -70 18 -115 4z m59 -83 l-7 -57 -61 3
c-47 2 -61 7 -64 20 -3 13 8 18 53 23 82 11 84 30 2 21 -66 -6 -67 -6 -67 18
0 22 5 25 58 31 31 4 62 8 67 10 20 6 25 -13 19 -69z"/>
  <path d="M305 473 c-50 -8 -96 -17 -103 -19 -24 -7 -1 -24 34 -24 26 0 34 -4
34 -18 0 -33 -60 -111 -120 -154 -33 -24 -60 -46 -60 -50 0 -20 61 0 112 35
28 18 28 18 37 -5 5 -13 10 -32 12 -43 3 -11 9 -19 14 -18 6 2 35 5 66 9 56 6
57 7 69 48 7 22 17 47 23 55 9 10 7 16 -8 27 -23 17 -39 17 -86 0 -56 -20 -62
-10 -25 46 19 28 32 57 29 64 -4 10 4 14 25 14 17 0 43 5 59 11 27 10 27 11 9
25 -11 8 -22 13 -25 13 -3 -1 -46 -8 -96 -16z m60 -215 c-4 -24 -8 -44 -10
-46 -1 -1 -19 -3 -41 -5 -37 -2 -39 -1 -48 36 -12 46 -6 51 59 55 l47 3 -7
-43z"/>
  <path d="M460 190 l0 -60 129 0 c85 0 132 4 137 11 10 17 -17 30 -46 23 -14
-4 -62 -9 -107 -11 l-82 -4 5 36 c4 36 -8 65 -27 65 -5 0 -9 -27 -9 -60z"/>
</g>
<g id="part-1" class="char-part">
  <path d="M330 470 c-19 -4 -56 -11 -83 -15 -54 -7 -54 -25 -1 -25 32 0 35 -2
29 -22 -16 -53 -71 -118 -149 -176 -24 -19 -26 -22 -9 -22 24 0 100 48 134 86
38 41 81 113 76 127 -2 7 15 16 45 22 27 6 50 15 51 20 3 13 -48 16 -93 5z"/>
</g>
<g id="part-2" class="char-part">
  <path d="M313 316 c-29 -6 -60 -18 -68 -27 -15 -14 -15 -21 -2 -65 8 -27 18
-49 23 -49 55 2 124 19 124 30 0 8 10 35 22 60 19 40 20 47 8 55 -18 12 -38
11 -107 -4z m52 -53 c-8 -46 -11 -49 -52 -58 -35 -7 -38 -4 -47 47 -7 40 -3
42 78 47 27 1 28 0 21 -36z"/>
</g>
<g id="part-3" class="char-part">
  <path d="M630 570 c-14 -4 -53 -8 -87 -9 -66 -1 -71 -4 -50 -30 8 -9 19 -41
26 -71 l11 -55 91 2 c50 1 92 3 93 5 1 1 12 28 23 58 12 30 24 62 28 71 12 30
-75 48 -135 29z m60 -46 c0 -22 -4 -24 -55 -26 -30 -1 -63 -2 -72 -2 -11 -1
-19 7 -21 21 -3 23 -7 21 108 36 34 4 40 0 40 -29z m-12 -61 c-3 -27 -5 -28
-63 -28 -47 0 -60 3 -63 16 -2 12 11 18 55 26 32 5 62 11 66 12 5 0 7 -11 5
-26z"/>
</g>
<g id="part-4" class="char-part">
  <path d="M525 368 c-10 -18 -31 -48 -49 -67 l-31 -34 47 26 c37 21 70 30 152
38 58 6 113 9 122 5 14 -5 15 -18 9 -99 -7 -96 -27 -157 -52 -157 -8 0 -23 5
-35 11 -32 17 -30 5 4 -34 30 -34 35 -36 57 -25 38 20 60 76 71 174 5 49 12
99 15 111 6 17 1 24 -22 36 -24 12 -42 13 -128 1 -132 -18 -130 -18 -115 1 7
9 11 17 9 18 -2 1 -12 8 -21 16 -15 11 -19 8 -33 -21z"/>
</g>
<g id="part-5" class="char-part">
  <path d="M464 218 c-4 -13 -2 -24 4 -26 6 -2 8 -10 5 -18 -3 -8 -1 -14 4 -14
5 0 10 18 10 40 1 43 -11 53 -23 18z"/>
  <path d="M655 158 c-58 -20 -72 -29 -35 -22 19 3 46 6 60 5 18 -1 21 2 11 8
-11 7 -11 9 0 14 24 10 -5 5 -36 -5z"/>
  <path d="M485 140 c3 -5 16 -10 28 -9 21 0 21 1 2 9 -28 12 -37 12 -30 0z"/>
  <path d="M540 146 c0 -9 30 -14 35 -6 4 6 -3 10 -14 10 -12 0 -21 -2 -21 -4z"/>
</g>
</g>
</svg>