<?xml version="1.0" standalone="no"?>
<!DOCTYPE svg PUBLIC "-//W3C//DTD SVG 20010904//EN"
 "http://www.w3.org/TR/2001/REC-SVG-20010904/DTD/svg10.dtd">
<svg version="1.0" xmlns="http://www.w3.org/2000/svg"
 width="96.000000pt" height="68.000000pt" viewBox="0 0 96.000000 68.000000"
 preserveAspectRatio="xMidYMid meet">
<metadata>
Created by potrace 1.16, written by Peter Selinger 2001-2019
Combined from part_0.svg through part_5.svg with named groups
</metadata>
<g transform="translate(0.000000,68.000000) scale(0.100000,-0.100000)" fill="#000000" stroke="none">
<g id="part-0" class="char-part">
  <path d="M534 541 l38 -39 -92 -7 c-61 -5 -90 -11 -87 -19 2 -6 20 -12 40 -14
32 -3 40 -9 57 -42 11 -22 20 -44 20 -50 0 -6 -27 -10 -65 -10 -64 0 -64 0
-55 -24 4 -13 6 -80 3 -148 -4 -90 -2 -128 7 -133 6 -4 14 -4 17 -1 3 3 9 66
12 140 4 74 9 137 11 139 3 3 31 8 63 12 l57 7 0 -30 c0 -28 -4 -32 -37 -37
-58 -10 -62 -13 -15 -14 40 -1 42 -2 42 -31 0 -29 -2 -30 -42 -30 -24 0 -38
-4 -31 -8 6 -4 15 -23 20 -42 l9 -35 53 3 c28 2 60 5 69 7 9 2 20 4 25 4 4 1
7 9 7 18 0 9 7 25 16 35 16 16 15 18 -6 26 -13 5 -39 7 -57 5 -22 -2 -33 1
-33 9 0 27 19 40 64 45 59 7 60 23 1 23 -35 0 -43 3 -39 15 4 8 1 21 -5 29 -9
11 2 14 61 19 40 3 77 2 81 -2 4 -4 6 -68 5 -142 l-3 -134 -32 3 c-18 1 -33 0
-33 -3 0 -8 64 -64 74 -65 5 0 16 9 26 20 14 16 18 48 23 177 3 87 1 162 -4
167 -11 12 -108 10 -142 -3 -34 -13 -34 -8 3 39 18 23 28 44 24 54 -5 14 3 16
57 16 58 0 62 1 47 16 -17 17 -79 21 -148 9 -36 -6 -40 -5 -40 14 0 23 -45 51
-82 51 -20 0 -19 -3 16 -39z m96 -76 c0 -8 -7 -32 -16 -54 -12 -31 -22 -40
-45 -43 -26 -4 -29 -1 -35 28 -3 19 -15 37 -30 44 -13 8 -24 17 -24 21 0 7
130 27 143 21 4 -2 7 -10 7 -17z m0 -279 c0 -31 -4 -33 -60 -37 -42 -4 -45 -2
-48 23 -3 25 0 27 40 31 24 2 49 4 56 5 7 1 12 -9 12 -22z"/>
  <path d="M255 410 c-11 -5 -49 -9 -84 -9 -61 -1 -63 -2 -48 -19 9 -10 24 -51
33 -90 11 -47 21 -72 30 -72 8 0 14 4 14 9 0 9 19 14 98 26 31 5 40 10 33 18
-6 8 -1 32 14 70 23 55 23 57 5 67 -22 12 -67 12 -95 0z m35 -52 c0 -49 -12
-68 -48 -78 -20 -5 -37 -8 -38 -7 -2 1 -7 22 -12 45 -12 50 0 61 61 62 32 0
37 -3 37 -22z"/>
</g>
<g id="part-1" class="char-part">
  <path d="M250 403 c-27 -8 -63 -12 -89 -9 l-43 6 15 -23 c8 -13 21 -52 27 -85
12 -58 29 -78 45 -52 3 5 32 12 64 16 50 5 58 9 54 25 -3 10 4 38 16 62 26 55
26 63 -1 71 -29 7 -34 7 -88 -11z m46 -50 c-12 -65 -16 -71 -52 -77 -44 -9
-51 -4 -59 44 -4 22 -7 43 -8 47 -1 5 18 11 43 14 87 12 83 13 76 -28z"/>
</g>
<g id="part-2" class="char-part">
  <path d="M533 542 l39 -40 -91 -7 c-50 -4 -93 -11 -96 -16 -11 -17 64 -20 155
-5 52 9 130 16 172 16 42 0 79 4 83 9 10 16 -59 29 -106 20 -71 -13 -89 -11
-89 10 0 26 -21 41 -67 48 l-38 6 38 -41z"/>
</g>
<g id="part-3" class="char-part">
  <path d="M644 482 c-11 -8 -45 -104 -39 -111 6 -6 85 77 85 89 0 13 -34 30
-46 22z"/>
  <path d="M489 418 c21 -51 58 -68 47 -21 -7 27 -39 63 -57 63 -4 0 0 -19 10
-42z"/>
</g>
<g id="part-4" class="char-part">
  <path d="M685 385 c-67 -14 -173 -25 -252 -25 l-53 0 11 -27 c7 -18 8 -63 3
-128 -9 -110 -8 -135 6 -149 18 -18 22 2 27 111 2 59 6 122 9 139 l4 32 93 10
c50 6 120 14 155 18 l63 6 -3 -143 -3 -144 -35 3 -35 3 35 -36 c40 -41 53 -43
74 -13 12 17 16 49 16 133 0 60 4 127 9 147 15 63 -27 84 -124 63z"/>
</g>
</g>
</svg>