<?xml version="1.0" standalone="no"?>
<!DOCTYPE svg PUBLIC "-//W3C//DTD SVG 20010904//EN"
 "http://www.w3.org/TR/2001/REC-SVG-20010904/DTD/svg10.dtd">
<svg version="1.0" xmlns="http://www.w3.org/2000/svg"
 width="96.000000pt" height="68.000000pt" viewBox="0 0 96.000000 68.000000"
 preserveAspectRatio="xMidYMid meet">
<metadata>
Created by potrace 1.16, written by Peter Selinger 2001-2019
Combined from part_0.svg through part_5.svg with named groups
</metadata>
<g transform="translate(0.000000,68.000000) scale(0.100000,-0.100000)" fill="#000000" stroke="none">
<g id="part-0" class="char-part">
  <path d="M296 573 c-2 -3 -1 -15 3 -27 4 -11 9 -48 10 -82 l2 -61 -37 -6 c-21
-4 -40 -5 -42 -3 -2 2 4 19 13 37 16 31 16 33 -1 46 -30 22 -42 15 -49 -28 -4
-23 -18 -66 -31 -95 -27 -62 -28 -64 -14 -64 6 0 24 19 40 43 29 40 32 42 75
39 45 -4 45 -4 45 -43 l0 -39 -45 0 c-25 0 -45 -4 -45 -10 0 -5 20 -10 45 -10
l45 0 0 -40 c0 -24 -5 -42 -12 -44 -7 -2 -44 -10 -83 -18 l-70 -14 26 -17 c26
-17 29 -17 150 28 68 26 126 49 129 52 5 5 -10 3 -77 -14 -21 -5 -23 -2 -23
40 0 44 1 46 33 49 17 2 31 8 30 13 -3 10 -7 12 -44 14 -17 1 -20 7 -17 33 3
28 8 33 41 41 47 11 48 27 2 27 -44 0 -50 14 -36 81 6 29 10 54 8 56 -8 8 -66
21 -71 16z"/>
  <path d="M635 544 c-27 -7 -80 -14 -117 -14 -67 0 -79 -5 -57 -27 6 -6 19 -44
29 -85 11 -50 21 -72 30 -70 7 2 59 5 114 7 l101 4 17 38 c9 21 17 45 17 53 1
8 8 28 16 44 21 39 19 42 -16 55 -40 14 -71 13 -134 -5z m90 -48 c0 -28 -2
-30 -47 -31 -46 -2 -48 -1 -48 26 0 30 15 38 65 36 26 -2 30 -6 30 -31z m-135
-16 c0 -28 -2 -30 -40 -30 -22 0 -40 3 -40 8 0 4 -3 17 -6 30 -6 20 -3 22 40
22 44 0 46 -1 46 -30z m129 -42 c-2 -37 -16 -51 -52 -52 -34 -1 -37 1 -37 26
0 24 4 27 38 31 20 2 40 4 45 5 4 1 7 -4 6 -10z m-129 -39 c0 -25 -4 -29 -29
-29 -29 0 -41 14 -41 49 0 14 7 16 35 13 31 -4 35 -8 35 -33z"/>
  <path d="M570 306 l0 -34 -60 -7 c-73 -8 -79 -25 -10 -25 36 0 50 -4 50 -14 0
-19 -97 -119 -140 -145 -40 -24 -28 -28 22 -7 45 19 127 93 158 144 23 37 30
41 78 48 72 9 78 1 62 -80 -15 -78 -35 -101 -82 -92 l-32 6 29 -30 c16 -16 36
-30 45 -30 23 0 57 39 65 75 4 17 16 59 27 93 15 46 17 67 9 75 -13 13 -61 15
-119 4 -40 -7 -43 -6 -37 12 4 14 0 23 -14 30 -37 20 -51 14 -51 -23z"/>
</g>
<g id="part-1" class="char-part">
  <path d="M206 478 c-2 -7 -9 -35 -16 -62 -6 -27 -20 -67 -32 -90 l-20 -41 27
25 c25 24 85 128 85 149 0 6 -9 15 -20 21 -15 8 -21 8 -24 -2z"/>
</g>
<g id="part-2" class="char-part">
  <path d="M288 187 c-76 -18 -138 -35 -138 -38 0 -4 12 -12 28 -18 23 -10 44
-5 157 39 72 27 121 49 110 49 -11 -1 -82 -15 -157 -32z"/>
</g>
<g id="part-3" class="char-part">
  <path d="M635 545 c-27 -7 -83 -14 -124 -14 -72 -1 -74 -1 -57 -20 10 -10 25
-52 35 -93 14 -62 20 -73 36 -70 11 1 63 4 115 6 l95 4 23 59 c12 32 29 70 36
85 13 23 12 28 0 39 -21 18 -101 20 -159 4z m90 -49 c0 -29 -2 -30 -47 -31
-46 0 -48 1 -48 27 0 29 15 37 65 35 26 -2 30 -6 30 -31z m-137 -18 c3 -27 1
-28 -37 -28 -23 0 -41 3 -41 8 0 4 -3 17 -6 30 -6 22 -4 23 37 20 40 -3 44 -6
47 -30z m123 -59 c-5 -28 -11 -32 -44 -35 -35 -3 -37 -1 -37 26 0 25 4 29 33
33 17 2 37 5 43 5 8 1 9 -9 5 -29z m-121 -19 c0 -26 -3 -30 -29 -30 -28 0 -41
14 -41 46 0 9 11 14 35 14 32 0 35 -2 35 -30z"/>
</g>
<g id="part-4" class="char-part">
  <path d="M570 305 l0 -34 -61 -7 c-68 -8 -68 -29 0 -22 32 3 41 0 41 -12 0
-24 -76 -106 -130 -141 -28 -18 -48 -34 -46 -36 2 -2 23 5 47 16 56 24 129 89
166 146 20 32 35 45 51 45 12 0 22 5 22 10 0 6 -7 10 -16 10 -11 0 -13 6 -9
19 4 14 0 23 -14 30 -37 20 -51 14 -51 -24z"/>
</g>
<g id="part-5" class="char-part">
  <path d="M719 284 c-8 -10 -9 -15 -2 -11 7 5 16 0 22 -11 13 -24 -16 -154 -36
-166 -13 -7 -13 -10 -2 -17 9 -6 3 -7 -16 -3 -16 4 -37 12 -45 18 -13 10 -13
9 0 -9 27 -36 35 -42 50 -37 29 9 50 35 56 71 4 20 11 42 16 48 12 15 17 123
7 123 -4 0 -14 2 -22 5 -7 3 -20 -2 -28 -11z m36 -4 c3 -6 -1 -7 -9 -4 -18 7
-21 14 -7 14 6 0 13 -4 16 -10z"/>
  <path d="M685 280 c-3 -5 -1 -10 4 -10 6 0 11 5 11 10 0 6 -2 10 -4 10 -3 0
-8 -4 -11 -10z"/>
  <path d="M787 273 c-4 -3 -7 -11 -7 -17 0 -6 5 -5 12 2 6 6 9 14 7 17 -3 3 -9
2 -12 -2z"/>
</g>
</g>
</svg>