<?xml version="1.0" standalone="no"?>
<!DOCTYPE svg PUBLIC "-//W3C//DTD SVG 20010904//EN"
 "http://www.w3.org/TR/2001/REC-SVG-20010904/DTD/svg10.dtd">
<svg version="1.0" xmlns="http://www.w3.org/2000/svg"
 width="96.000000pt" height="68.000000pt" viewBox="0 0 96.000000 68.000000"
 preserveAspectRatio="xMidYMid meet">
<metadata>
Created by potrace 1.16, written by Peter Selinger 2001-2019
Combined from part_0.svg through part_5.svg with named groups
</metadata>
<g transform="translate(0.000000,68.000000) scale(0.100000,-0.100000)" fill="#000000" stroke="none">
<g id="part-0" class="char-part">
  <path d="M390 618 c0 -7 9 -24 20 -38 11 -14 20 -28 20 -31 0 -3 -37 -9 -82
-13 -127 -10 -178 -18 -178 -27 0 -16 66 -20 155 -10 50 6 158 14 240 17 172
8 199 15 141 39 -33 14 -51 15 -125 6 -113 -14 -113 -14 -107 7 7 23 -4 39
-37 51 -37 14 -47 14 -47 -1z"/>
  <path d="M480 484 c-52 -7 -123 -13 -158 -13 -56 -1 -63 -3 -58 -18 3 -10 10
-40 17 -68 19 -80 23 -85 63 -74 18 5 89 11 156 13 l123 4 29 62 c34 77 35 88
2 100 -31 12 -53 11 -174 -6z m132 -19 c2 -3 0 -30 -5 -60 l-10 -55 -47 0
c-26 0 -87 -3 -137 -6 l-90 -7 -7 53 c-4 29 -5 54 -3 56 10 10 289 28 299 19z"/>
  <path d="M417 433 l-48 -4 6 -32 c4 -18 8 -32 9 -33 0 -1 29 1 64 4 44 3 62 8
62 19 0 7 7 16 15 19 8 4 15 12 15 20 0 14 -15 15 -123 7z m57 -40 c-24 -18
-69 -13 -69 7 0 10 13 17 40 20 45 6 57 -6 29 -27z"/>
  <path d="M430 284 c-41 -13 -83 -24 -92 -24 -9 0 -19 -4 -22 -9 -4 -5 20 -7
55 -4 60 6 61 6 57 -18 -3 -23 -7 -24 -132 -34 -112 -9 -127 -12 -113 -24 17
-13 32 -13 160 5 30 4 47 3 47 -4 0 -14 -82 -63 -153 -91 -32 -13 -55 -26 -53
-29 10 -9 99 19 167 53 38 19 71 35 73 35 3 0 6 -28 8 -62 2 -48 7 -63 18 -63
12 0 16 17 18 78 2 42 6 77 10 77 4 0 30 -18 57 -40 72 -58 122 -80 180 -79
88 1 94 13 14 32 -73 18 -229 85 -229 99 0 5 54 8 121 8 89 0 120 3 117 12 -7
20 -60 28 -117 18 -30 -6 -74 -10 -99 -10 -41 0 -43 1 -40 28 3 23 8 27 38 30
57 5 66 10 44 27 -25 19 -45 17 -134 -11z"/>
</g>
<g id="part-1" class="char-part">
  <path d="M409 588 c22 -36 54 -44 59 -15 5 22 -25 46 -56 47 l-24 0 21 -32z"/>
  <path d="M383 537 c-127 -12 -200 -24 -196 -30 4 -6 43 -7 107 -3 160 11 389
25 416 26 24 1 24 1 6 15 -25 19 -79 18 -333 -8z"/>
</g>
<g id="part-2" class="char-part">
  <path d="M480 485 c-52 -7 -125 -14 -162 -14 -38 -1 -68 -5 -68 -11 0 -5 4
-10 9 -10 5 0 14 -28 21 -63 16 -85 18 -89 61 -77 19 5 90 11 159 14 l125 3
29 72 c22 52 27 74 19 82 -17 17 -88 19 -193 4z m127 -67 c-4 -28 -10 -55 -14
-59 -5 -4 -67 -10 -139 -14 l-131 -7 -7 52 c-4 29 -5 54 -3 56 4 5 180 21 246
23 l54 1 -6 -52z"/>
</g>
<g id="part-3" class="char-part">
  <path d="M409 433 l-46 -4 11 -33 10 -34 61 6 c46 4 64 10 75 26 8 12 15 26
15 31 0 11 -53 14 -126 8z m81 -28 c0 -18 -67 -32 -82 -17 -18 18 1 32 43 32
27 0 39 -4 39 -15z"/>
</g>
<g id="part-4" class="char-part">
  <path d="M430 231 l0 -29 -130 -7 c-72 -4 -130 -11 -130 -16 0 -17 56 -22 122
-11 38 7 78 12 89 12 38 0 2 -28 -105 -81 -84 -42 -94 -50 -61 -45 22 4 77 25
122 46 44 22 84 40 87 40 3 0 6 -28 8 -63 2 -47 7 -62 18 -62 12 0 16 17 18
78 2 42 6 77 10 77 4 0 30 -17 57 -38 92 -69 119 -82 171 -81 96 2 104 13 23
32 -41 10 -112 37 -159 60 l-85 42 128 3 c92 2 127 6 125 14 -7 20 -58 28
-111 17 -27 -5 -72 -9 -98 -9 -46 0 -49 2 -49 25 0 20 -5 25 -25 25 -21 0 -25
-5 -25 -29z"/>
</g>
</g>
</svg>