<?xml version="1.0" standalone="no"?>
<!DOCTYPE svg PUBLIC "-//W3C//DTD SVG 20010904//EN"
 "http://www.w3.org/TR/2001/REC-SVG-20010904/DTD/svg10.dtd">
<svg version="1.0" xmlns="http://www.w3.org/2000/svg"
 width="96.000000pt" height="68.000000pt" viewBox="0 0 96.000000 68.000000"
 preserveAspectRatio="xMidYMid meet">
<metadata>
Created by potrace 1.16, written by Peter Selinger 2001-2019
Combined from part_0.svg through part_5.svg with named groups
</metadata>
<g transform="translate(0.000000,68.000000) scale(0.100000,-0.100000)" fill="#000000" stroke="none">
<g id="part-0" class="char-part">
  <path d="M304 578 c13 -45 19 -155 9 -161 -6 -4 -43 -10 -82 -13 -50 -5 -71
-11 -71 -20 0 -11 18 -14 70 -14 39 0 70 -3 70 -6 0 -15 -69 -102 -122 -155
-40 -40 -54 -59 -42 -59 29 0 100 48 138 92 l36 43 0 -31 c0 -17 -5 -55 -10
-85 -11 -59 1 -119 25 -119 26 0 35 38 35 152 l0 113 19 -29 c26 -39 51 -53
62 -35 5 8 8 21 6 29 -2 13 -53 54 -79 62 -6 2 -8 13 -4 25 5 15 18 23 51 27
25 4 47 11 50 16 10 16 -35 32 -67 25 l-31 -7 7 75 7 75 -32 11 c-45 16 -52
14 -45 -11z"/>
  <path d="M615 582 c-2 -3 -2 -15 1 -28 12 -47 -61 -160 -96 -149 -21 7 -36
-10 -19 -20 7 -5 9 -46 5 -134 -3 -69 -2 -132 3 -140 10 -16 31 -6 31 15 0 11
19 14 94 14 89 0 95 -1 110 -25 9 -14 24 -25 34 -25 33 0 40 31 37 180 -3 135
-4 145 -24 159 -19 12 -31 12 -90 -2 -68 -17 -111 -21 -111 -13 0 3 11 16 24
30 13 14 36 44 51 66 22 31 25 43 16 54 -12 14 -57 27 -66 18z m147 -194 c3
-7 4 -30 4 -52 l-1 -39 -60 -2 c-33 -1 -81 -5 -107 -10 l-48 -7 0 49 0 50 48
10 c70 15 159 16 164 1z m-1 -120 c2 -16 -2 -92 -4 -94 -1 -1 -50 -5 -109 -9
l-108 -7 0 51 0 51 58 1 c31 0 77 4 102 8 25 5 48 9 53 10 4 0 8 -5 8 -11z"/>
</g>
<g id="part-1" class="char-part">
  <path d="M318 501 l5 -88 -34 -6 c-19 -3 -56 -9 -83 -13 -73 -10 -31 -28 45
-20 33 4 59 4 59 1 0 -17 -61 -98 -118 -157 -36 -38 -62 -68 -58 -68 24 0 91
48 136 97 l52 58 -5 -35 c-13 -78 -17 -186 -8 -199 5 -8 16 -11 25 -8 13 5 16
24 17 99 1 51 4 106 8 123 l6 30 23 -33 c26 -36 52 -42 52 -13 0 21 -44 61
-66 61 -9 0 -14 11 -14 28 0 26 4 29 48 38 57 11 54 29 -6 28 l-43 0 6 55 c4
31 9 64 11 73 5 17 -22 38 -49 38 -12 0 -14 -16 -9 -89z"/>
</g>
<g id="part-2" class="char-part">
  <path d="M613 551 c0 -26 -11 -59 -32 -95 -32 -58 -31 -67 7 -40 23 16 102
126 102 142 0 10 -44 32 -64 32 -9 0 -13 -13 -13 -39z"/>
</g>
<g id="part-3" class="char-part">
  <path d="M728 434 c-12 -11 -180 -33 -210 -27 -28 6 -30 4 -22 -13 5 -10 9
-75 9 -144 1 -69 2 -131 3 -137 3 -20 20 -15 27 7 6 18 15 20 100 20 88 0 94
-1 109 -25 22 -33 51 -32 64 3 6 16 10 83 8 161 -2 117 -5 136 -21 147 -19 14
-57 19 -67 8z m38 -79 c3 -25 4 -49 0 -52 -3 -3 -32 -7 -63 -8 -32 -1 -79 -5
-105 -10 l-48 -7 0 50 0 50 63 10 c34 5 81 10 104 11 l42 1 7 -45z m-1 -139
c-7 -41 -10 -46 -34 -46 -14 0 -63 -3 -109 -7 l-83 -6 3 49 3 49 105 10 c58 6
109 8 113 4 5 -4 5 -27 2 -53z"/>
</g>
</g>
</svg>