<?xml version="1.0" standalone="no"?>
<!DOCTYPE svg PUBLIC "-//W3C//DTD SVG 20010904//EN"
 "http://www.w3.org/TR/2001/REC-SVG-20010904/DTD/svg10.dtd">
<svg version="1.0" xmlns="http://www.w3.org/2000/svg"
 width="96.000000pt" height="68.000000pt" viewBox="0 0 96.000000 68.000000"
 preserveAspectRatio="xMidYMid meet">
<metadata>
Created by potrace 1.16, written by Peter Selinger 2001-2019
Combined from part_0.svg through part_5.svg with named groups
</metadata>
<g transform="translate(0.000000,68.000000) scale(0.100000,-0.100000)" fill="#000000" stroke="none">
<g id="part-0" class="char-part">
  <path d="M440 623 c0 -6 11 -22 26 -36 30 -30 27 -32 -81 -42 -38 -3 -87 -8
-108 -11 l-39 -6 23 -24 c20 -21 21 -29 15 -99 -12 -128 -60 -253 -132 -338
-25 -29 -30 -47 -16 -47 5 0 32 22 61 50 57 54 91 120 117 225 13 51 20 65 35
65 17 0 19 -8 19 -75 0 -88 8 -93 80 -45 l45 30 -45 -2 c-35 -2 -45 0 -45 12
0 10 17 18 55 25 62 12 53 29 -9 19 -36 -6 -41 -4 -41 13 0 21 37 33 108 33
l32 0 0 -54 c0 -30 5 -58 10 -61 38 -24 -61 -73 -123 -61 l-32 6 0 -54 c0 -46
-4 -59 -27 -83 -37 -38 -35 -48 3 -26 33 20 64 63 74 104 5 21 16 29 45 37 22
5 42 7 45 4 3 -3 5 -32 5 -64 0 -55 2 -59 32 -78 45 -27 105 -34 172 -20 64
13 74 26 56 70 -15 37 -26 38 -34 5 -8 -30 -40 -45 -96 -45 -87 0 -115 36 -84
106 9 21 16 45 15 52 -1 8 17 12 64 12 64 0 125 19 125 40 0 16 -23 60 -32 60
-4 0 -8 -8 -8 -18 0 -10 -9 -25 -20 -35 -27 -23 -132 -24 -151 -1 -19 23 6 39
86 54 36 7 65 16 65 20 0 19 -40 19 -81 0 -56 -25 -72 -26 -64 -1 4 13 0 23
-12 31 -14 9 -6 10 40 7 56 -4 58 -3 78 29 11 18 25 34 31 36 6 2 4 11 -7 22
-14 13 -31 17 -74 15 -47 -2 -56 0 -56 15 0 9 -6 20 -13 25 -8 5 16 11 59 15
40 3 75 9 78 12 15 15 -32 25 -100 21 -67 -3 -76 -2 -72 13 2 9 -2 22 -10 29
-20 16 -87 27 -87 14z m94 -125 c-1 -31 -3 -33 -42 -36 -39 -3 -42 -1 -42 22
0 18 -6 26 -17 28 -10 0 2 4 27 8 77 12 75 13 74 -22z m-124 -14 c6 -14 10
-27 10 -29 0 -1 -18 -5 -40 -7 -39 -3 -40 -3 -40 29 0 30 3 33 30 33 24 0 33
-6 40 -26z m238 -57 c3 -26 2 -27 -40 -24 -24 2 -42 6 -40 10 1 4 2 13 2 21 0
8 12 16 28 19 41 6 47 3 50 -26z m-118 -12 c0 -23 -4 -25 -40 -25 -22 0 -40 4
-40 9 0 25 14 37 45 39 31 2 35 0 35 -23z m-110 -10 c0 -23 -4 -25 -45 -25
-41 0 -45 2 -45 25 0 23 4 25 45 25 41 0 45 -2 45 -25z"/>
</g>
<g id="part-1" class="char-part">
  <path d="M450 624 c0 -19 36 -54 56 -54 36 0 33 38 -3 46 -16 3 -34 7 -40 10
-7 2 -13 1 -13 -2z"/>
  <path d="M432 547 c-170 -19 -181 -21 -167 -37 20 -22 20 -125 -1 -209 -20
-81 -64 -171 -110 -228 -45 -55 -27 -55 32 -1 70 65 112 165 140 335 8 54 17
99 19 102 7 6 236 30 298 31 58 0 76 13 35 24 -29 7 -29 7 -246 -17z"/>
</g>
<g id="part-2" class="char-part">
  <path d="M540 320 c0 -80 24 -100 122 -100 86 0 132 20 122 53 -14 48 -22 54
-33 24 -6 -15 -22 -32 -36 -37 -36 -14 -119 -12 -133 2 -25 25 -11 37 68 54
44 9 80 20 80 25 0 18 -40 18 -81 -1 -56 -25 -69 -25 -66 1 1 14 -6 24 -20 30
-22 8 -23 6 -23 -51z"/>
</g>
<g id="part-3" class="char-part">
  <path d="M398 170 c7 -46 -5 -77 -46 -122 l-37 -42 45 25 c75 41 120 149 68
163 -34 9 -35 8 -30 -24z"/>
</g>
<g id="part-4" class="char-part">
  <path d="M525 210 c-22 -10 -48 -19 -57 -19 -10 -1 -18 -6 -18 -12 0 -6 8 -8
18 -5 74 22 72 23 72 -37 0 -71 6 -84 44 -104 39 -20 159 -23 204 -4 17 7 32
15 32 17 0 11 -35 74 -41 74 -4 0 -9 -10 -13 -23 -7 -29 -44 -47 -96 -47 -101
0 -119 40 -68 146 2 4 -6 12 -17 19 -17 11 -27 10 -60 -5z"/>
</g>
</g>
</svg>