<?xml version="1.0" standalone="no"?>
<!DOCTYPE svg PUBLIC "-//W3C//DTD SVG 20010904//EN"
 "http://www.w3.org/TR/2001/REC-SVG-20010904/DTD/svg10.dtd">
<svg version="1.0" xmlns="http://www.w3.org/2000/svg"
 width="96.000000pt" height="68.000000pt" viewBox="0 0 96.000000 68.000000"
 preserveAspectRatio="xMidYMid meet">
<metadata>
Created by potrace 1.16, written by Peter Selinger 2001-2019
Combined from part_0.svg through part_5.svg with named groups
</metadata>
<g transform="translate(0.000000,68.000000) scale(0.100000,-0.100000)" fill="#000000" stroke="none">
<g id="part-0" class="char-part">
  <path d="M197 563 c4 -21 8 -58 8 -83 l0 -45 -62 1 c-35 0 -63 -1 -63 -4 0 -2
9 -19 19 -36 11 -17 22 -48 26 -69 8 -41 21 -55 38 -38 6 6 19 11 29 11 15 0
18 -8 18 -47 l0 -48 -52 -3 c-62 -4 -70 -9 -43 -28 22 -17 19 -17 129 22 l78
28 19 -23 c21 -26 39 -20 39 12 0 14 -11 29 -29 40 -36 21 -41 21 -41 2 0 -8
-4 -15 -9 -15 -5 0 -16 -3 -25 -6 -13 -5 -16 2 -16 34 l0 41 48 3 c39 2 46 6
44 21 -2 10 6 30 18 46 11 16 20 36 20 43 0 23 -43 37 -90 31 l-43 -6 6 44 c4
24 9 53 13 65 4 15 -1 23 -21 32 -14 7 -35 12 -46 12 -18 0 -19 -4 -12 -37z
m113 -160 c0 -38 -13 -63 -31 -63 -15 0 -19 7 -19 40 0 36 3 40 25 40 17 0 25
-5 25 -17z m-100 -38 c0 -31 -3 -35 -25 -35 -18 0 -25 5 -25 19 0 11 -3 26 -6
35 -5 13 1 16 25 16 29 0 31 -3 31 -35z"/>
  <path d="M594 534 c3 -9 6 -92 6 -186 l0 -170 29 -29 c28 -27 34 -29 108 -29
60 0 83 5 102 19 22 17 23 20 11 57 -17 53 -26 61 -35 27 -11 -46 -33 -63 -81
-63 -68 0 -91 15 -97 64 -2 22 -2 63 2 91 l6 50 51 7 c28 4 64 12 79 18 26 10
27 12 12 27 -15 15 -20 15 -69 -10 -77 -39 -81 -37 -73 26 4 28 11 62 16 74 6
18 4 25 -11 33 -30 16 -63 13 -56 -6z"/>
  <path d="M407 448 c4 -13 6 -70 4 -128 -7 -170 -7 -183 5 -187 9 -3 93 56 134
96 12 12 11 13 -10 6 -14 -4 -34 -14 -45 -21 -11 -8 -23 -14 -27 -14 -5 0 -8
31 -8 69 l0 68 53 9 c28 5 51 14 49 19 -3 11 -23 12 -69 1 l-33 -8 0 46 c0 41
-3 48 -26 56 -35 14 -36 13 -27 -12z"/>
</g>
<g id="part-1" class="char-part">
  <path d="M196 593 c-2 -3 -1 -16 5 -30 5 -13 9 -49 9 -79 0 -60 0 -60 -88 -55
l-33 2 16 -30 c8 -17 19 -47 23 -68 8 -37 10 -38 45 -35 l37 4 0 -41 c0 -34 3
-41 20 -41 17 0 20 7 20 44 l0 44 56 7 c42 5 53 9 45 19 -7 9 -3 23 16 51 25
37 25 39 7 52 -13 10 -34 13 -68 9 l-49 -5 7 69 c3 39 5 70 4 70 -2 0 -17 4
-35 9 -17 5 -34 7 -37 4z m116 -209 c-3 -25 -11 -38 -26 -44 -27 -10 -36 -4
-36 25 0 40 11 55 39 55 25 0 27 -3 23 -36z m-102 -19 c0 -41 -2 -45 -25 -45
-20 0 -25 6 -31 36 -7 38 4 54 39 54 14 0 17 -9 17 -45z"/>
</g>
<g id="part-2" class="char-part">
  <path d="M304 264 c13 -34 51 -84 64 -84 7 0 12 12 12 28 0 23 -8 33 -42 52
-38 21 -41 22 -34 4z"/>
</g>
<g id="part-3" class="char-part">
  <path d="M406 449 c9 -25 8 -167 -2 -257 -8 -74 9 -76 89 -10 36 29 64 54 62
56 -2 2 -21 -6 -44 -17 -22 -12 -43 -21 -46 -21 -3 0 -5 31 -5 69 l0 68 50 7
c36 5 50 11 50 23 0 16 -14 15 -77 -3 -22 -6 -23 -3 -23 45 0 37 -4 51 -14 51
-8 0 -22 3 -31 7 -15 5 -16 2 -9 -18z"/>
</g>
<g id="part-4" class="char-part">
  <path d="M594 537 c3 -12 6 -98 6 -190 l0 -169 29 -29 c27 -27 35 -29 101 -29
67 0 130 19 130 38 0 5 -8 31 -17 58 l-17 49 -9 -35 c-14 -56 -33 -70 -92 -70
-69 0 -87 15 -90 76 -2 27 0 67 4 88 l6 39 70 14 c91 19 105 27 76 42 -18 10
-30 8 -73 -13 -84 -42 -85 -41 -67 61 6 35 9 66 6 69 -2 2 -19 9 -37 14 -30 9
-32 8 -26 -13z"/>
</g>
</g>
</svg>