<?xml version="1.0" standalone="no"?>
<!DOCTYPE svg PUBLIC "-//W3C//DTD SVG 20010904//EN"
 "http://www.w3.org/TR/2001/REC-SVG-20010904/DTD/svg10.dtd">
<svg version="1.0" xmlns="http://www.w3.org/2000/svg"
 width="96.000000pt" height="68.000000pt" viewBox="0 0 96.000000 68.000000"
 preserveAspectRatio="xMidYMid meet">
<metadata>
Created by potrace 1.16, written by Peter Selinger 2001-2019
Combined from part_0.svg through part_5.svg with named groups
</metadata>
<g transform="translate(0.000000,68.000000) scale(0.100000,-0.100000)" fill="#000000" stroke="none">
<g id="part-0" class="char-part">
  <path d="M386 628 c4 -7 16 -23 26 -35 20 -21 20 -21 -9 -27 -15 -3 -64 -8
-107 -12 -44 -4 -91 -10 -105 -14 l-26 -7 24 -12 c16 -9 44 -12 80 -8 161 16
275 27 351 32 87 6 117 18 90 36 -15 11 -184 4 -216 -8 -14 -5 -16 -2 -12 15
4 16 0 27 -15 37 -27 19 -91 21 -81 3z"/>
  <path d="M425 493 c-38 -7 -80 -12 -92 -10 -13 2 -23 4 -23 3 0 0 9 -23 19
-51 14 -37 24 -49 38 -48 10 2 57 6 105 9 60 5 85 10 82 19 -3 6 4 20 16 30
40 36 17 66 -50 64 -14 -1 -56 -8 -95 -16z m99 -40 c-5 -16 -16 -23 -47 -28
-23 -3 -57 -9 -74 -12 -28 -4 -34 -2 -42 18 -5 13 -7 25 -6 27 7 8 161 28 167
23 4 -4 5 -16 2 -28z"/>
  <path d="M600 380 c-36 -5 -130 -16 -210 -25 -80 -9 -150 -18 -157 -20 -7 -2
-19 2 -27 10 -13 13 -18 9 -40 -31 -23 -41 -26 -74 -6 -74 10 0 40 35 40 48 0
17 10 20 120 31 253 26 307 32 343 36 40 6 51 -11 22 -35 -31 -25 -13 -27 42
-4 32 12 59 27 61 32 4 14 -62 42 -95 41 -15 -1 -57 -5 -93 -9z"/>
  <path d="M472 303 c-12 -9 -59 -28 -105 -44 l-82 -28 60 2 c61 2 62 1 56 -42
0 -5 -38 -14 -83 -20 -114 -16 -138 -21 -138 -31 0 -16 45 -18 124 -4 108 19
104 19 108 -23 2 -26 11 -42 31 -57 25 -18 42 -21 135 -21 114 0 152 6 175 30
13 12 12 19 -7 57 l-21 43 -17 -37 c-21 -48 -48 -58 -147 -58 -93 0 -114 11
-109 60 l3 35 95 10 c95 10 126 27 60 33 -20 2 -62 -1 -94 -6 -55 -9 -57 -8
-52 11 3 12 -1 25 -11 32 -14 10 -11 13 21 19 21 4 49 12 63 17 21 8 23 12 13
24 -16 19 -49 18 -78 -2z"/>
</g>
<g id="part-1" class="char-part">
  <path d="M390 632 c0 -4 11 -19 25 -34 14 -15 25 -30 25 -33 0 -3 -17 -5 -37
-6 -21 0 -81 -6 -133 -13 -87 -11 -93 -13 -67 -24 22 -9 51 -9 130 2 56 8 164
18 240 22 76 4 140 11 143 15 13 21 -52 31 -137 20 -111 -14 -107 -15 -102 13
4 21 0 26 -33 35 -46 13 -54 13 -54 3z"/>
</g>
<g id="part-2" class="char-part">
  <path d="M420 494 c-41 -8 -88 -12 -105 -9 -27 5 -28 5 -12 -8 9 -8 23 -32 31
-53 10 -28 19 -38 32 -37 11 1 56 5 102 9 45 4 82 10 82 15 0 4 12 22 27 39
26 31 26 33 8 46 -23 17 -66 16 -165 -2z m104 -36 c-8 -28 -22 -38 -54 -38
-14 0 -41 -3 -61 -6 -32 -5 -38 -3 -44 16 -4 12 -4 24 -1 28 8 7 80 19 129 21
35 1 38 -1 31 -21z"/>
</g>
<g id="part-3" class="char-part">
  <path d="M432 361 c-181 -21 -225 -23 -231 -12 -10 16 -65 -74 -57 -95 10 -25
36 -15 53 21 9 19 21 35 27 35 6 0 114 11 241 25 126 13 231 22 234 19 2 -2
-5 -18 -17 -34 l-23 -30 63 23 c34 13 64 29 66 35 5 16 -59 42 -100 41 -18 -1
-133 -13 -256 -28z"/>
</g>
<g id="part-4" class="char-part">
  <path d="M404 218 c1 -36 16 -31 -164 -59 -73 -12 -74 -12 -45 -24 24 -10 44
-10 100 1 104 20 115 19 115 -12 0 -66 50 -94 168 -94 87 0 182 23 182 44 0 8
-9 33 -19 56 l-19 42 -7 -30 c-11 -53 -37 -67 -135 -70 -109 -5 -130 4 -130
57 l0 39 78 7 c98 8 123 15 116 27 -7 11 -114 5 -163 -9 -22 -5 -23 -3 -19 20
5 27 -6 37 -42 37 -14 0 -18 -7 -16 -32z"/>
</g>
</g>
</svg>