<?xml version="1.0" standalone="no"?>
<!DOCTYPE svg PUBLIC "-//W3C//DTD SVG 20010904//EN"
 "http://www.w3.org/TR/2001/REC-SVG-20010904/DTD/svg10.dtd">
<svg version="1.0" xmlns="http://www.w3.org/2000/svg"
 width="96.000000pt" height="68.000000pt" viewBox="0 0 96.000000 68.000000"
 preserveAspectRatio="xMidYMid meet">
<metadata>
Created by potrace 1.16, written by Peter Selinger 2001-2019
Combined from part_0.svg through part_5.svg with named groups
</metadata>
<g transform="translate(0.000000,68.000000) scale(0.100000,-0.100000)" fill="#000000" stroke="none">
<g id="part-0" class="char-part">
  <path d="M240 525 c0 -35 -5 -86 -11 -114 l-10 -50 -65 -6 c-35 -4 -64 -11
-64 -16 0 -17 44 -31 81 -26 35 5 38 3 29 -13 -17 -32 -11 -54 21 -73 l32 -18
-22 -23 c-12 -13 -40 -31 -62 -41 -39 -18 -51 -35 -25 -35 8 0 44 15 80 34 65
34 66 34 90 15 13 -10 31 -19 40 -19 24 0 19 36 -8 58 l-24 19 29 59 c16 32
29 65 29 71 0 7 11 15 25 19 24 6 35 24 15 24 -5 0 -20 11 -34 25 -34 34 -56
33 -56 -4 0 -28 -18 -40 -57 -41 -12 0 18 123 39 164 9 16 6 23 -12 38 -12 10
-31 18 -41 18 -17 0 -19 -8 -19 -65z m85 -197 c-16 -53 -38 -88 -55 -88 -49 0
-51 85 -2 96 15 3 32 7 37 9 22 7 26 4 20 -17z"/>
  <path d="M645 548 c-16 -5 -69 -10 -116 -11 l-87 -2 6 -77 c8 -122 -26 -256
-86 -336 -30 -40 -24 -50 12 -21 15 12 25 23 23 26 -3 2 5 14 18 27 31 31 61
118 70 203 l7 72 51 5 c29 4 77 8 107 10 35 2 56 8 58 17 3 8 14 27 25 42 10
16 18 29 16 31 -11 7 -61 26 -67 25 -4 0 -20 -5 -37 -11z m35 -43 c0 -32 -24
-42 -115 -46 -61 -4 -70 -2 -73 15 -2 10 1 23 7 29 11 11 78 23 144 26 33 1
37 -2 37 -24z"/>
  <path d="M609 386 c-20 -14 -48 -28 -63 -32 -14 -3 -24 -10 -21 -14 3 -5 14
-6 25 -3 14 4 20 0 20 -11 0 -9 1 -19 3 -23 1 -4 -18 -12 -43 -19 l-45 -12 43
-1 c37 -1 42 -4 42 -25 0 -21 -6 -25 -50 -31 -66 -9 -65 -27 3 -24 l52 3 5
-39 c9 -73 102 -105 211 -75 56 16 65 32 43 77 l-17 38 -9 -30 c-11 -43 -34
-55 -104 -55 -74 0 -97 16 -92 64 3 31 3 31 81 40 42 5 77 13 77 17 0 16 -42
20 -95 8 -30 -7 -57 -10 -60 -8 -2 3 -2 15 2 27 4 17 15 23 54 28 61 8 65 27
5 22 -38 -3 -46 0 -50 17 -9 32 -8 34 29 41 43 8 52 20 26 33 -27 15 -32 14
-72 -13z"/>
</g>
<g id="part-1" class="char-part">
  <path d="M245 556 c8 -40 -11 -174 -27 -193 -6 -8 -33 -13 -69 -13 -65 0 -75
-11 -29 -30 22 -9 37 -9 61 -1 34 12 33 16 13 -49 -5 -15 2 -24 30 -41 44 -25
39 -36 -39 -80 -69 -39 -29 -37 46 3 l59 31 23 -21 c13 -12 29 -22 35 -22 20
0 13 41 -9 59 l-21 17 19 40 c11 21 26 56 32 77 9 26 18 37 32 37 10 0 19 5
19 10 0 6 -7 10 -17 10 -9 0 -13 3 -10 7 12 11 -14 33 -40 33 -20 0 -23 -4
-21 -27 3 -24 -1 -28 -34 -34 -25 -4 -38 -2 -38 5 0 6 11 47 25 91 31 99 31
99 0 113 -40 19 -46 15 -40 -22z m81 -229 c-12 -49 -37 -97 -50 -97 -8 0 -24
8 -36 18 -21 17 -22 22 -11 55 9 27 19 37 39 40 61 9 64 8 58 -16z"/>
</g>
<g id="part-2" class="char-part">
  <path d="M605 544 c-38 -8 -91 -12 -117 -9 l-48 6 6 -73 c11 -129 -22 -254
-97 -367 -22 -33 -22 -33 -2 -23 63 34 119 145 136 266 l11 85 76 7 c41 4 92
8 113 8 23 1 36 5 33 12 -2 6 4 26 15 43 10 17 19 33 19 35 0 5 -61 26 -69 25
-3 -1 -37 -8 -76 -15z m75 -31 c0 -34 -17 -43 -91 -53 -99 -13 -99 -13 -99 8
1 42 39 58 143 61 39 1 47 -2 47 -16z"/>
</g>
<g id="part-3" class="char-part">
  <path d="M580 374 c-73 -38 -57 -45 38 -18 92 25 90 24 68 40 -25 18 -28 17
-106 -22z"/>
</g>
<g id="part-4" class="char-part">
  <path d="M580 160 c0 -62 43 -90 139 -90 47 0 106 17 120 34 9 11 8 23 -5 53
l-16 38 -9 -30 c-12 -43 -35 -55 -105 -55 -71 0 -94 15 -94 61 0 19 -5 29 -15
29 -11 0 -15 -11 -15 -40z"/>
</g>
</g>
</svg>