<?xml version="1.0" standalone="no"?>
<!DOCTYPE svg PUBLIC "-//W3C//DTD SVG 20010904//EN"
 "http://www.w3.org/TR/2001/REC-SVG-20010904/DTD/svg10.dtd">
<svg version="1.0" xmlns="http://www.w3.org/2000/svg"
 width="96.000000pt" height="68.000000pt" viewBox="0 0 96.000000 68.000000"
 preserveAspectRatio="xMidYMid meet">
<metadata>
Created by potrace 1.16, written by Peter Selinger 2001-2019
Combined from part_0.svg through part_5.svg with named groups
</metadata>
<g transform="translate(0.000000,68.000000) scale(0.100000,-0.100000)" fill="#000000" stroke="none">
<g id="part-0" class="char-part">
  <path d="M244 553 c-23 -76 -105 -189 -127 -176 -7 3 -2 -5 9 -18 21 -23 25
-35 39 -122 5 -32 9 -37 25 -32 11 3 59 8 107 10 96 3 92 0 113 84 8 29 18 45
31 48 10 3 19 12 19 19 0 8 5 14 10 14 6 0 10 7 10 15 0 8 8 15 18 15 9 0 35
3 56 7 l39 6 -5 -64 c-6 -72 -3 -89 18 -89 10 0 14 14 15 48 1 26 3 54 4 62 1
8 3 22 4 32 1 12 14 17 59 20 70 5 78 2 55 -24 -18 -21 -18 -21 32 -14 67 10
75 20 34 45 -33 20 -43 21 -146 5 -32 -5 -33 -4 -33 29 0 25 4 34 18 34 49 -1
72 4 72 14 0 12 -124 6 -192 -9 -33 -7 -33 -7 12 -12 40 -4 45 -8 48 -32 3
-25 0 -27 -44 -34 -30 -4 -54 -3 -66 5 -15 9 -20 6 -32 -24 -12 -29 -20 -35
-43 -35 -15 1 -43 -1 -60 -3 -42 -4 -41 4 1 37 19 14 41 32 49 40 8 8 17 12
21 9 3 -4 6 3 6 15 0 28 -41 39 -85 23 -44 -15 -45 -15 -39 18 5 23 2 32 -14
40 -28 15 -32 14 -38 -6z m43 -140 c-32 -44 -39 -48 -82 -51 l-47 -3 48 45
c52 50 59 54 92 55 23 1 23 0 -11 -46z m83 -77 c0 -16 -7 -26 -22 -30 -41 -10
-48 -7 -48 24 0 28 3 30 35 30 30 0 35 -3 35 -24z m-112 -13 c-3 -24 -8 -28
-40 -31 -35 -3 -38 -1 -38 22 0 18 6 26 23 29 53 10 58 8 55 -20z m112 -42 c0
-28 -14 -41 -46 -41 -27 0 -34 4 -34 19 0 15 8 21 33 24 17 2 35 5 40 5 4 1 7
-2 7 -7z m-110 -31 c0 -16 -7 -20 -35 -20 -28 0 -35 4 -35 20 0 16 7 20 35 20
28 0 35 -4 35 -20z"/>
  <path d="M677 369 c-23 -27 -21 -30 11 -23 38 9 47 20 25 32 -15 9 -23 7 -36
-9z"/>
  <path d="M504 355 c22 -17 56 -20 56 -6 0 11 -25 21 -53 21 -22 -1 -22 -1 -3
-15z"/>
  <path d="M512 307 c-43 -10 -52 -30 -16 -34 17 -3 73 33 63 40 -2 2 -23 -1
-47 -6z"/>
  <path d="M662 309 c6 -20 58 -43 69 -32 13 13 -7 29 -45 39 -22 5 -28 4 -24
-7z"/>
  <path d="M610 239 c-30 -5 -75 -11 -99 -15 -29 -4 -40 -9 -33 -16 6 -6 39 -6
98 1 123 15 124 15 124 -13 0 -22 -5 -24 -88 -35 -49 -6 -105 -11 -125 -11
-21 0 -37 -5 -37 -11 0 -9 33 -10 121 -5 l120 7 -3 -28 c-2 -15 -10 -29 -18
-30 -8 -1 -54 -5 -102 -8 -83 -6 -111 -17 -70 -27 19 -5 234 12 242 19 2 2 -2
8 -9 13 -12 7 -12 13 -1 39 11 29 16 31 61 31 58 0 65 17 10 26 -33 5 -38 9
-33 27 11 43 -39 55 -158 36z"/>
  <path d="M340 182 c0 -16 52 -82 61 -77 18 12 8 44 -20 64 -31 22 -41 26 -41
13z"/>
  <path d="M117 129 c-30 -64 1 -98 31 -35 13 26 9 76 -6 76 -4 0 -15 -19 -25
-41z"/>
  <path d="M270 164 c0 -3 9 -19 21 -35 21 -30 39 -32 35 -4 -3 22 -56 59 -56
39z"/>
  <path d="M209 128 c19 -35 34 -41 39 -16 4 18 -23 48 -44 48 -11 0 -10 -6 5
-32z"/>
</g>
<g id="part-1" class="char-part">
  <path d="M244 543 c-19 -60 -33 -84 -78 -130 -63 -68 -37 -71 36 -5 30 28 67
52 86 55 39 8 41 -4 7 -49 -41 -53 -25 -62 28 -15 17 15 48 42 67 59 l35 30
-27 12 c-22 11 -34 10 -69 -4 -48 -19 -55 -17 -39 14 9 16 9 25 -1 36 -16 19
-38 18 -45 -3z"/>
</g>
<g id="part-2" class="char-part">
  <path d="M340 181 c0 -13 44 -74 56 -78 6 -2 15 4 18 14 5 13 -2 26 -24 45
-30 28 -50 35 -50 19z"/>
  <path d="M117 135 c-23 -48 -22 -75 2 -75 23 0 46 58 36 90 -9 29 -19 25 -38
-15z"/>
  <path d="M270 163 c0 -5 11 -21 24 -38 22 -28 25 -28 32 -11 5 14 1 24 -15 38
-24 19 -41 23 -41 11z"/>
  <path d="M207 125 c19 -40 43 -46 43 -12 0 28 -17 47 -42 47 -17 0 -17 -2 -1
-35z"/>
</g>
<g id="part-3" class="char-part">
  <path d="M592 525 c-51 -7 -96 -16 -100 -20 -12 -13 218 1 230 13 9 9 9 12 1
12 -6 0 -17 2 -25 4 -7 2 -55 -3 -106 -9z"/>
</g>
<g id="part-4" class="char-part">
  <path d="M749 456 c-2 -2 -62 -9 -132 -16 -92 -8 -132 -8 -142 0 -10 8 -17 1
-33 -31 -12 -23 -19 -46 -16 -51 11 -17 32 -7 44 22 7 17 15 30 19 30 3 0 64
7 136 14 71 8 132 12 134 10 2 -2 -4 -13 -15 -25 l-19 -21 50 7 c67 10 74 20
34 44 -33 20 -51 25 -60 17z"/>
</g>
<g id="part-5" class="char-part">
  <path d="M768 174 c-3 -3 -20 -6 -37 -6 -41 -1 -31 -11 15 -14 22 -2 42 3 51
11 13 13 12 15 -5 15 -10 0 -21 -3 -24 -6z"/>
  <path d="M810 160 c-9 -6 -10 -10 -3 -10 6 0 15 5 18 10 8 12 4 12 -15 0z"/>
  <path d="M600 146 c6 -5 22 -5 42 2 l33 10 -42 -1 c-25 -1 -38 -6 -33 -11z"/>
  <path d="M493 133 c9 -2 23 -2 30 0 6 3 -1 5 -18 5 -16 0 -22 -2 -12 -5z"/>
</g>
</g>
</svg>