<?xml version="1.0" standalone="no"?>
<!DOCTYPE svg PUBLIC "-//W3C//DTD SVG 20010904//EN"
 "http://www.w3.org/TR/2001/REC-SVG-20010904/DTD/svg10.dtd">
<svg version="1.0" xmlns="http://www.w3.org/2000/svg"
 width="96.000000pt" height="68.000000pt" viewBox="0 0 96.000000 68.000000"
 preserveAspectRatio="xMidYMid meet">
<metadata>
Created by potrace 1.16, written by Peter Selinger 2001-2019
Combined from part_0.svg through part_5.svg with named groups
</metadata>
<g transform="translate(0.000000,68.000000) scale(0.100000,-0.100000)" fill="#000000" stroke="none">
<g id="part-0" class="char-part">
  <path d="M253 557 c-4 -7 -22 -42 -39 -79 -18 -36 -42 -71 -53 -78 -25 -13
-28 -48 -5 -57 9 -3 32 0 51 6 19 7 37 10 40 8 3 -3 -16 -27 -41 -53 -69 -70
-59 -87 35 -55 35 13 70 19 84 15 21 -5 25 -2 25 15 0 11 -9 25 -19 31 -27 14
-32 13 -29 -7 2 -11 -7 -19 -30 -25 -19 -5 -38 -8 -43 -6 -5 2 23 36 62 76 70
73 84 107 44 107 -11 0 -20 -4 -20 -10 -1 -21 -22 -41 -58 -53 -21 -8 -41 -12
-44 -9 -2 3 18 37 46 75 28 38 51 74 51 79 0 6 -11 15 -25 21 -18 9 -26 8 -32
-1z"/>
  <path d="M600 499 c-25 -4 -77 -14 -117 -20 -80 -14 -88 -34 -11 -27 27 3 51
1 54 -4 10 -16 -18 -79 -42 -95 -18 -11 -36 -14 -65 -9 -37 6 -41 5 -34 -11 7
-18 24 -175 25 -225 0 -27 24 -40 32 -19 2 5 63 13 136 17 116 6 132 5 132 -9
0 -9 7 -23 16 -32 15 -15 18 -15 34 0 28 26 38 62 49 175 8 87 8 107 -4 119
-16 16 -62 17 -189 2 -50 -6 -91 -9 -93 -8 -1 2 11 22 28 45 17 23 29 48 26
56 -6 14 68 26 156 26 34 0 38 2 27 15 -14 17 -84 19 -160 4z m148 -253 c1
-54 -2 -103 -7 -110 -5 -6 -28 -10 -53 -8 l-43 4 3 96 c2 53 5 103 7 110 3 9
19 12 47 10 l43 -3 3 -99z m-138 77 c0 -27 -12 -39 -42 -45 -25 -5 -28 -2 -28
22 0 34 6 40 42 40 20 0 28 -5 28 -17z m-110 -98 l0 -105 -30 0 -30 0 0 69 c0
38 -3 82 -6 99 -5 24 -2 31 12 35 54 14 54 15 54 -98z m110 11 c0 -20 -6 -25
-35 -28 -33 -4 -35 -2 -35 24 0 25 3 28 35 28 30 0 35 -3 35 -24z m-2 -78 c-3
-30 -6 -33 -35 -34 -31 -1 -33 1 -33 33 0 31 2 33 36 33 34 0 35 -1 32 -32z"/>
  <path d="M306 195 c9 -14 23 -25 30 -25 21 0 17 28 -5 40 -33 17 -43 12 -25
-15z"/>
  <path d="M218 183 c6 -10 19 -27 31 -37 19 -17 21 -18 27 -2 8 20 -10 41 -44
51 -21 6 -22 5 -14 -12z"/>
  <path d="M133 143 c27 -43 57 -56 57 -24 0 21 -43 61 -66 61 -10 0 -8 -10 9
-37z"/>
</g>
<g id="part-1" class="char-part">
  <path d="M239 523 c-15 -46 -50 -104 -81 -132 -20 -19 -20 -23 -7 -36 13 -14
20 -13 64 1 68 23 81 37 26 28 l-44 -7 52 73 c55 78 60 94 35 104 -27 10 -32
7 -45 -31z"/>
</g>
<g id="part-2" class="char-part">
  <path d="M290 212 c0 -14 35 -42 53 -42 22 0 21 13 -1 33 -20 18 -52 23 -52 9z"/>
  <path d="M210 192 c0 -5 13 -21 30 -37 27 -26 30 -27 36 -10 5 12 0 24 -15 37
-24 19 -51 24 -51 10z"/>
  <path d="M110 183 c0 -18 52 -83 65 -83 16 0 20 27 7 46 -10 15 -72 47 -72 37z"/>
</g>
<g id="part-3" class="char-part">
  <path d="M705 514 c-5 -1 -77 -12 -159 -25 -110 -16 -144 -24 -131 -32 10 -5
37 -7 61 -4 25 2 46 1 49 -3 3 -4 -2 -27 -10 -50 -18 -52 -18 -51 -1 -44 19 7
74 87 69 100 -4 11 80 24 153 24 19 0 34 4 34 9 0 10 -50 29 -65 25z"/>
</g>
<g id="part-4" class="char-part">
  <path d="M729 376 c-9 -10 -295 -36 -323 -30 -27 6 -28 5 -22 -17 4 -13 13
-75 18 -136 8 -79 15 -113 24 -113 7 0 14 4 16 9 2 4 62 12 134 16 l131 7 13
-32 c14 -35 26 -35 53 2 16 21 39 152 47 259 0 7 -63 39 -77 39 -5 0 -12 -2
-14 -4z m19 -111 c2 -44 1 -93 -3 -110 l-5 -30 -149 -3 -148 -3 -7 97 c-4 53
-4 99 -1 103 9 9 201 29 260 27 l50 -1 3 -80z"/>
</g>
<g id="part-5" class="char-part">
  <path d="M614 314 c3 -13 8 -29 12 -35 4 -8 3 -9 -4 -5 -8 5 -10 -14 -9 -60 2
-82 23 -100 29 -24 1 27 -1 52 -7 54 -5 3 -4 5 3 5 7 1 12 16 12 40 0 30 -4
40 -20 44 -17 4 -19 1 -16 -19z"/>
</g>
</g>
</svg>