<?xml version="1.0" standalone="no"?>
<!DOCTYPE svg PUBLIC "-//W3C//DTD SVG 20010904//EN"
 "http://www.w3.org/TR/2001/REC-SVG-20010904/DTD/svg10.dtd">
<svg version="1.0" xmlns="http://www.w3.org/2000/svg"
 width="96.000000pt" height="68.000000pt" viewBox="0 0 96.000000 68.000000"
 preserveAspectRatio="xMidYMid meet">
<metadata>
Created by potrace 1.16, written by Peter Selinger 2001-2019
Combined from part_0.svg through part_5.svg with named groups
</metadata>
<g transform="translate(0.000000,68.000000) scale(0.100000,-0.100000)" fill="#000000" stroke="none">
<g id="part-0" class="char-part">
  <path d="M579 576 c-2 -3 -69 -12 -148 -20 -113 -12 -154 -12 -187 -4 -24 7
-46 10 -48 7 -3 -3 2 -25 11 -49 11 -34 14 -69 10 -141 -6 -113 -24 -161 -86
-231 -24 -27 -37 -48 -31 -48 30 0 93 48 126 95 34 50 36 57 44 176 5 68 10
131 10 140 0 15 37 20 320 42 l25 2 -4 -131 c-2 -100 1 -145 13 -187 26 -91
90 -153 170 -163 41 -6 46 -5 46 13 0 11 -3 23 -7 27 -8 7 -11 25 -15 73 -2
37 -13 35 -23 -4 -3 -15 -11 -33 -17 -40 -17 -21 -62 10 -94 64 -27 44 -29 56
-29 148 0 74 5 114 20 153 19 53 19 54 0 68 -17 13 -96 20 -106 10z"/>
  <path d="M450 450 c-19 -4 -56 -11 -82 -15 -58 -8 -63 -25 -8 -25 34 0 41 -4
46 -24 9 -36 -2 -46 -52 -46 -33 0 -44 -4 -40 -12 2 -7 10 -32 16 -54 12 -41
12 -42 51 -37 39 6 39 6 39 -29 0 -32 -3 -36 -31 -42 -17 -3 -52 -6 -76 -6
-30 0 -43 -4 -41 -12 10 -30 37 -32 139 -9 56 12 108 25 115 28 7 2 23 -7 35
-21 13 -14 26 -26 31 -26 17 0 7 48 -15 68 -27 26 -70 30 -61 7 4 -9 0 -15 -9
-15 -9 0 -22 -3 -31 -6 -13 -5 -16 2 -16 35 l0 41 46 0 c25 0 43 4 40 9 -3 5
4 28 16 51 28 51 16 63 -54 54 -39 -5 -48 -3 -48 9 0 9 -3 22 -6 31 -4 11 4
16 33 21 21 4 47 9 58 13 18 5 18 6 -5 13 -32 9 -47 9 -90 -1z m70 -139 c0
-28 -14 -41 -46 -41 -9 0 -14 11 -14 35 0 32 2 35 30 35 26 0 30 -3 30 -29z
m-108 -11 c5 -35 2 -40 -28 -40 -14 0 -24 8 -28 23 -10 39 -7 47 23 47 24 0
29 -5 33 -30z"/>
</g>
<g id="part-1" class="char-part">
  <path d="M206 536 c4 -11 9 -71 11 -132 5 -136 -14 -199 -83 -270 -35 -36 -40
-44 -22 -39 36 11 86 53 114 95 30 46 47 152 42 275 l-3 79 -33 7 c-31 6 -33
5 -26 -15z"/>
</g>
<g id="part-2" class="char-part">
  <path d="M558 574 c-43 -7 -123 -17 -179 -23 -56 -5 -104 -12 -107 -15 -16
-16 22 -17 170 -5 90 7 168 14 173 14 6 0 9 -48 6 -131 -2 -101 0 -144 13
-188 27 -93 109 -166 186 -166 29 0 32 3 26 22 -4 13 -9 37 -12 53 -15 84 -15
83 -29 41 -20 -57 -29 -62 -63 -35 -79 63 -101 179 -63 328 11 46 18 87 16 91
-13 20 -64 25 -137 14z"/>
</g>
<g id="part-3" class="char-part">
  <path d="M445 450 c-16 -4 -51 -11 -77 -15 -57 -7 -64 -25 -10 -25 40 0 154
17 187 27 19 6 18 7 -5 14 -33 9 -58 9 -95 -1z"/>
</g>
<g id="part-4" class="char-part">
  <path d="M413 414 c-7 -3 -9 -18 -6 -40 l6 -34 -58 0 c-45 0 -55 -3 -47 -12 5
-7 15 -32 22 -54 12 -41 13 -42 51 -37 l39 6 0 -37 c0 -20 3 -36 8 -36 19 1
30 18 28 45 -1 29 1 30 47 33 26 2 45 7 42 12 -3 5 4 28 16 51 26 52 15 62
-53 53 -46 -6 -48 -5 -48 19 0 19 -21 42 -33 36 -1 0 -7 -3 -14 -5z m107 -93
c0 -35 -12 -51 -39 -51 -23 0 -26 4 -24 32 1 18 2 34 2 36 1 1 15 2 31 2 23 0
30 -5 30 -19z m-108 -8 c8 -33 -3 -53 -27 -53 -21 0 -34 21 -35 58 0 20 57 15
62 -5z"/>
</g>
<g id="part-5" class="char-part">
  <path d="M530 195 c28 -41 53 -64 61 -59 15 9 10 24 -6 18 -11 -5 -13 -2 -9
10 4 9 3 16 -2 15 -21 -4 -28 2 -14 12 13 9 13 10 -1 6 -9 -3 -23 0 -30 6 -9
9 -9 7 1 -8z"/>
</g>
</g>
</svg>