<?xml version="1.0" standalone="no"?>
<!DOCTYPE svg PUBLIC "-//W3C//DTD SVG 20010904//EN"
 "http://www.w3.org/TR/2001/REC-SVG-20010904/DTD/svg10.dtd">
<svg version="1.0" xmlns="http://www.w3.org/2000/svg"
 width="96.000000pt" height="68.000000pt" viewBox="0 0 96.000000 68.000000"
 preserveAspectRatio="xMidYMid meet">
<metadata>
Created by potrace 1.16, written by Peter Selinger 2001-2019
Combined from part_0.svg through part_5.svg with named groups
</metadata>
<g transform="translate(0.000000,68.000000) scale(0.100000,-0.100000)" fill="#000000" stroke="none">
<g id="part-0" class="char-part">
  <path d="M547 584 c-4 -4 -7 -18 -7 -30 0 -41 -61 -152 -122 -223 -16 -18 -27
-35 -24 -38 17 -17 129 102 162 173 9 19 21 34 28 33 6 0 34 -31 61 -70 96
-133 92 -129 151 -129 30 0 54 4 54 10 0 5 -28 24 -62 41 -41 20 -86 56 -130
103 -59 62 -68 75 -62 99 3 15 1 27 -4 27 -6 0 -17 2 -24 5 -8 3 -17 2 -21 -1z"/>
  <path d="M270 564 c-30 -7 -76 -16 -102 -19 -27 -3 -48 -10 -48 -15 0 -17 48
-22 100 -11 28 6 60 11 71 11 20 0 20 -1 -2 -32 -12 -17 -35 -36 -49 -41 l-27
-10 25 -24 c34 -32 22 -39 -82 -48 -66 -6 -77 -10 -59 -18 16 -7 41 -6 79 2
32 6 59 10 60 8 8 -8 -36 -76 -83 -125 -29 -31 -53 -58 -53 -60 0 -11 64 34
100 72 24 25 46 43 49 41 3 -1 4 -43 1 -92 l-5 -88 -34 2 -33 1 33 -34 c18
-19 36 -34 41 -34 21 0 36 64 42 177 5 109 4 123 -12 132 -23 13 -14 19 33 23
33 2 40 0 39 -14 -2 -22 6 -22 53 -3 l37 16 -23 15 c-17 12 -35 15 -75 10 -48
-6 -54 -5 -59 13 -6 23 6 35 72 72 50 28 63 52 34 64 -47 19 -72 21 -123 9z"/>
  <path d="M542 351 c-54 -10 -42 -25 17 -22 52 3 101 15 101 26 0 6 -75 4 -118
-4z"/>
  <path d="M600 255 c-30 -7 -76 -14 -102 -14 -26 -1 -49 -5 -52 -10 -10 -16 40
-18 117 -6 42 7 81 9 87 5 12 -8 -35 -119 -70 -163 -12 -15 -20 -30 -17 -33
10 -11 69 51 117 124 l50 77 -21 18 c-24 19 -32 19 -109 2z"/>
</g>
<g id="part-1" class="char-part">
  <path d="M250 555 c-30 -8 -70 -14 -87 -15 -18 0 -33 -4 -33 -10 0 -13 56 -13
120 1 27 6 55 9 61 7 6 -2 -4 -21 -21 -43 -17 -22 -27 -41 -22 -43 11 -3 142
69 142 80 0 12 -57 38 -82 37 -13 0 -48 -7 -78 -14z"/>
</g>
<g id="part-2" class="char-part">
  <path d="M196 296 c-21 -31 -54 -70 -73 -86 -43 -38 -30 -38 29 -1 62 39 104
95 92 122 -9 19 -13 16 -48 -35z"/>
</g>
<g id="part-3" class="char-part">
  <path d="M547 583 c-4 -3 -7 -15 -7 -26 0 -32 -66 -158 -110 -211 -22 -27 -38
-51 -36 -53 16 -17 120 93 161 170 11 20 24 36 29 34 6 -2 42 -46 80 -98 l71
-94 49 -3 c82 -5 88 6 21 40 -77 38 -218 174 -209 201 9 30 -29 61 -49 40z"/>
</g>
<g id="part-4" class="char-part">
  <path d="M537 350 c-58 -11 -56 -20 5 -20 69 0 119 10 112 21 -6 10 -62 10
-117 -1z"/>
</g>
<g id="part-5" class="char-part">
  <path d="M610 249 l-25 -8 25 1 c14 1 35 -2 48 -6 l22 -7 -20 -29 c-11 -15
-20 -32 -20 -38 0 -5 -11 -26 -25 -46 -13 -20 -21 -36 -18 -36 4 0 -2 -7 -13
-16 -18 -14 -18 -15 4 -4 12 6 22 15 22 20 0 4 14 22 31 39 17 18 27 36 23 42
-4 7 -3 9 4 5 6 -3 16 7 24 24 7 16 16 30 20 30 5 0 8 6 8 14 0 24 -60 32
-110 15z"/>
  <path d="M479 226 c19 -5 44 -5 64 1 28 8 24 9 -32 9 -55 -1 -60 -2 -32 -10z"/>
</g>
</g>
</svg>