<?xml version="1.0" standalone="no"?>
<!DOCTYPE svg PUBLIC "-//W3C//DTD SVG 20010904//EN"
 "http://www.w3.org/TR/2001/REC-SVG-20010904/DTD/svg10.dtd">
<svg version="1.0" xmlns="http://www.w3.org/2000/svg"
 width="96.000000pt" height="68.000000pt" viewBox="0 0 96.000000 68.000000"
 preserveAspectRatio="xMidYMid meet">
<metadata>
Created by potrace 1.16, written by Peter Selinger 2001-2019
Combined from part_0.svg through part_5.svg with named groups
</metadata>
<g transform="translate(0.000000,68.000000) scale(0.100000,-0.100000)" fill="#000000" stroke="none">
<g id="part-0" class="char-part">
  <path d="M530 580 c0 -39 -1 -40 -40 -46 -45 -7 -49 -27 -6 -32 25 -3 27 -6
21 -34 -6 -27 -5 -29 13 -19 10 5 26 21 35 35 14 20 28 26 82 31 36 4 68 11
71 16 8 14 -37 26 -79 21 -38 -4 -39 -4 -27 18 11 20 10 25 -6 37 -10 7 -28
13 -41 13 -20 0 -23 -5 -23 -40z"/>
  <path d="M280 581 c0 -11 5 -23 10 -26 6 -3 10 -13 10 -21 0 -11 -14 -14 -59
-14 -68 0 -83 -12 -46 -36 22 -14 32 -15 64 -5 53 15 58 14 65 -14 9 -36 34
-32 38 7 2 22 9 32 22 34 10 1 23 7 29 13 8 8 0 11 -26 11 -30 0 -37 4 -37 19
0 25 -26 51 -51 51 -12 0 -19 -7 -19 -19z"/>
  <path d="M415 470 c-4 -6 -2 -17 4 -24 18 -22 -14 -46 -58 -46 -54 0 -102 -11
-95 -21 4 -8 77 -5 148 5 5 0 8 -24 7 -54 -2 -53 -5 -58 -63 -117 -34 -34 -87
-76 -117 -92 -31 -16 -65 -37 -76 -46 -20 -16 -19 -16 5 -10 53 13 147 66 198
110 28 26 52 43 53 38 0 -4 0 -45 -1 -90 -1 -45 4 -92 10 -104 22 -40 35 -3
40 114 l5 111 64 -59 c35 -33 74 -70 87 -83 13 -12 34 -26 48 -31 27 -11 136
-3 136 10 0 4 -28 16 -63 28 -71 23 -111 44 -212 114 l-70 49 3 61 c3 60 5 62
30 63 151 2 168 4 147 20 -16 12 -36 14 -99 8 l-79 -7 6 25 c6 21 3 27 -16 32
-30 8 -35 8 -42 -4z"/>
  <path d="M562 350 c-6 -16 -22 -41 -36 -55 -27 -27 -13 -34 21 -10 20 14 24
13 55 -15 32 -30 52 -37 62 -22 8 14 -8 31 -47 47 -20 8 -37 18 -37 21 0 3 10
14 23 25 19 16 20 20 7 29 -25 16 -38 11 -48 -20z"/>
  <path d="M273 333 c-3 -10 -23 -39 -45 -65 -45 -55 -42 -60 12 -18 21 17 41
30 44 30 4 0 17 -12 30 -27 26 -30 53 -25 33 7 -6 11 -17 20 -24 20 -20 0 -25
19 -9 36 9 9 14 20 11 25 -10 16 -45 10 -52 -8z"/>
</g>
<g id="part-1" class="char-part">
  <path d="M540 591 c0 -46 -10 -61 -39 -61 -14 0 -33 -5 -41 -10 -11 -7 -5 -10
23 -10 41 0 41 1 27 -34 -14 -37 4 -32 36 9 25 34 29 35 91 35 47 0 64 3 60
13 -2 8 -24 12 -59 12 -55 0 -55 0 -45 23 9 20 8 27 -8 38 -30 22 -45 17 -45
-15z"/>
  <path d="M280 585 c0 -4 7 -19 15 -34 14 -27 13 -29 -8 -35 -12 -3 -42 -6 -66
-6 -39 0 -42 -2 -30 -16 11 -13 25 -15 71 -10 56 7 58 6 68 -19 13 -34 31 -23
23 15 -5 27 -3 30 18 30 13 0 31 5 39 10 11 7 6 10 -22 10 -31 0 -37 4 -47 30
-7 23 -16 30 -35 30 -15 0 -26 -2 -26 -5z"/>
</g>
<g id="part-2" class="char-part">
  <path d="M418 446 c4 -38 4 -38 -113 -51 -46 -5 -55 -9 -42 -17 12 -6 43 -6
88 -1 l69 9 0 -57 0 -57 -72 -67 c-40 -37 -97 -80 -128 -96 -81 -42 -92 -52
-50 -44 51 10 145 63 201 113 l49 44 0 -100 c0 -72 4 -103 14 -111 25 -21 35
12 38 122 l3 107 85 -79 c47 -43 95 -83 107 -89 22 -12 140 -6 148 8 2 4 -22
15 -53 25 -77 24 -123 48 -214 112 l-78 54 0 58 c0 57 1 59 31 65 17 3 60 6
95 6 35 0 64 4 64 9 0 17 -40 23 -117 16 l-76 -8 7 26 c6 26 -7 37 -43 37 -13
0 -16 -7 -13 -34z"/>
</g>
<g id="part-3" class="char-part">
  <path d="M265 320 c-8 -16 -29 -46 -46 -65 -38 -43 -26 -45 24 -4 l38 32 30
-29 c23 -22 32 -25 42 -15 10 10 7 16 -11 31 -12 10 -28 21 -35 23 -8 3 -6 9
7 19 22 17 14 38 -14 38 -11 0 -26 -12 -35 -30z"/>
</g>
<g id="part-4" class="char-part">
  <path d="M570 369 c0 -7 -16 -34 -36 -62 l-36 -50 35 22 36 22 35 -32 c22 -19
42 -29 52 -25 30 12 9 35 -50 56 l-29 11 24 25 c20 21 21 27 9 34 -20 13 -40
12 -40 -1z"/>
</g>
</g>
</svg>