<?xml version="1.0" standalone="no"?>
<!DOCTYPE svg PUBLIC "-//W3C//DTD SVG 20010904//EN"
 "http://www.w3.org/TR/2001/REC-SVG-20010904/DTD/svg10.dtd">
<svg version="1.0" xmlns="http://www.w3.org/2000/svg"
 width="96.000000pt" height="68.000000pt" viewBox="0 0 96.000000 68.000000"
 preserveAspectRatio="xMidYMid meet">
<metadata>
Created by potrace 1.16, written by Peter Selinger 2001-2019
Combined from part_0.svg through part_5.svg with named groups
</metadata>
<g transform="translate(0.000000,68.000000) scale(0.100000,-0.100000)" fill="#000000" stroke="none">
<g id="part-0" class="char-part">
  <path d="M570 580 c-8 -5 -41 -15 -72 -21 -32 -6 -58 -15 -58 -19 0 -4 23 -17
52 -29 28 -12 48 -25 44 -29 -4 -4 -26 -15 -49 -24 -30 -12 -36 -17 -20 -17
13 -1 40 6 62 15 37 14 42 14 63 0 22 -16 68 -22 68 -10 0 3 -11 15 -25 26
-32 25 -32 31 7 67 l32 30 -28 10 c-34 13 -56 14 -76 1z m26 -31 c3 -6 -1 -18
-9 -26 -14 -14 -22 -14 -64 -3 l-48 14 50 12 c28 6 53 12 57 13 4 0 10 -4 14
-10z"/>
  <path d="M225 434 c-24 -9 -55 -13 -78 -9 -22 3 -37 2 -35 -2 2 -5 11 -24 20
-43 9 -19 20 -52 23 -73 6 -37 35 -63 43 -39 2 7 18 12 35 12 49 0 76 10 70
26 -2 7 7 38 21 69 24 53 24 55 6 65 -25 13 -57 12 -105 -6z m45 -58 c0 -38
-21 -66 -50 -66 -23 0 -26 5 -35 52 -7 39 -1 44 58 47 24 1 27 -2 27 -33z"/>
  <path d="M635 418 c-72 -18 -72 -18 -27 -45 44 -26 45 -44 1 -58 -10 -4 -19
-10 -19 -14 0 -5 20 -2 45 7 44 14 47 14 69 -7 23 -21 66 -29 66 -11 0 5 -14
22 -30 37 l-30 27 26 27 c14 15 23 32 20 38 -8 13 -65 12 -121 -1z m61 -19 c3
-6 0 -18 -9 -26 -13 -13 -18 -13 -48 3 l-34 18 35 7 c19 3 38 7 42 8 4 0 10
-4 14 -10z"/>
  <path d="M410 400 l-64 -17 42 -28 c23 -15 42 -29 42 -31 0 -1 -18 -13 -40
-25 -53 -30 -44 -34 19 -9 47 18 54 19 74 5 12 -8 29 -15 39 -15 12 0 18 -8
18 -24 0 -23 -3 -24 -110 -31 -61 -4 -112 -11 -115 -15 -10 -16 54 -21 113
-10 99 20 106 12 42 -48 -30 -28 -67 -57 -82 -63 -16 -6 -28 -15 -28 -20 0
-15 99 33 140 68 23 20 44 33 47 29 3 -3 0 -31 -7 -61 -12 -50 -12 -58 4 -73
23 -24 33 -6 41 81 l7 69 56 -56 c55 -55 57 -56 114 -56 32 0 58 3 58 8 0 4
-29 18 -65 30 -61 22 -165 88 -165 105 0 4 52 7 116 7 85 0 115 3 112 12 -7
20 -55 27 -121 17 -99 -14 -104 -13 -111 22 -5 25 -10 30 -26 26 -10 -3 -24 1
-31 9 -6 8 -18 14 -25 14 -22 0 -16 21 13 52 14 15 24 30 22 33 -14 13 -70 11
-129 -5z m70 -14 c0 -2 -3 -11 -6 -20 -7 -19 -23 -20 -61 -4 l-28 11 30 7 c36
9 65 12 65 6z"/>
</g>
<g id="part-1" class="char-part">
  <path d="M240 435 c-19 -7 -57 -14 -83 -14 -44 -1 -47 -3 -33 -16 15 -15 36
-75 36 -105 0 -8 5 -22 10 -30 8 -12 12 -12 18 -2 5 7 34 16 64 19 47 5 55 8
51 23 -3 10 5 40 16 66 12 26 18 51 14 55 -16 16 -59 17 -93 4z m32 -55 c-6
-62 -11 -70 -46 -70 -31 0 -34 3 -44 42 -6 23 -9 44 -7 46 7 7 69 20 85 18 11
-1 14 -11 12 -36z"/>
</g>
<g id="part-2" class="char-part">
  <path d="M505 566 l-80 -23 50 -24 c28 -13 52 -25 54 -26 9 -6 -21 -28 -52
-40 -31 -11 -31 -12 -6 -12 15 -1 43 6 64 15 33 14 39 14 61 0 26 -18 64 -21
64 -7 0 5 -12 18 -27 29 l-28 21 34 35 c19 20 32 38 29 42 -16 15 -90 10 -163
-10z m93 -22 c-6 -31 -33 -39 -79 -24 l-43 15 54 11 c30 7 59 12 63 13 5 0 7
-6 5 -15z"/>
</g>
<g id="part-3" class="char-part">
  <path d="M415 400 c-33 -10 -62 -19 -65 -19 -3 -1 14 -13 38 -27 23 -14 40
-30 36 -36 -3 -5 -25 -18 -48 -28 -55 -25 -29 -25 36 0 46 17 54 18 68 5 21
-19 50 -19 50 0 0 8 -9 19 -21 25 -20 11 -20 12 6 46 15 20 25 37 23 40 -13
13 -71 10 -123 -6z m63 -22 c-8 -23 -32 -30 -63 -17 l-30 12 30 7 c47 12 67
11 63 -2z"/>
</g>
<g id="part-4" class="char-part">
  <path d="M540 265 c5 -13 6 -26 2 -29 -4 -2 -58 -7 -119 -11 -62 -4 -113 -11
-113 -16 0 -15 66 -21 106 -10 49 14 104 14 104 1 0 -11 -88 -83 -138 -113
-18 -11 -31 -22 -28 -24 7 -8 107 45 149 79 21 16 41 28 44 25 3 -3 0 -29 -6
-57 -8 -36 -8 -57 0 -71 19 -36 34 -14 44 64 l10 77 54 -55 c54 -54 55 -55
113 -55 32 0 58 4 58 8 0 5 -24 16 -54 25 -56 18 -176 91 -176 108 0 5 54 9
120 9 72 0 120 4 120 10 0 17 -50 23 -146 16 -89 -7 -94 -6 -94 12 0 19 -18
32 -46 32 -10 0 -11 -6 -4 -25z"/>
</g>
</g>
</svg>