<?xml version="1.0" standalone="no"?>
<!DOCTYPE svg PUBLIC "-//W3C//DTD SVG 20010904//EN"
 "http://www.w3.org/TR/2001/REC-SVG-20010904/DTD/svg10.dtd">
<svg version="1.0" xmlns="http://www.w3.org/2000/svg"
 width="96.000000pt" height="68.000000pt" viewBox="0 0 96.000000 68.000000"
 preserveAspectRatio="xMidYMid meet">
<metadata>
Created by potrace 1.16, written by Peter Selinger 2001-2019
Combined from part_0.svg through part_5.svg with named groups
</metadata>
<g transform="translate(0.000000,68.000000) scale(0.100000,-0.100000)" fill="#000000" stroke="none">
<g id="part-0" class="char-part">
  <path d="M500 602 c0 -4 7 -17 15 -29 14 -20 13 -22 -15 -28 -16 -4 -30 -11
-30 -16 0 -12 10 -11 87 2 60 11 78 29 27 29 -14 0 -24 6 -24 15 0 8 -9 19
-19 25 -23 12 -41 13 -41 2z"/>
  <path d="M681 588 c-5 -13 -21 -36 -35 -53 -37 -43 -34 -57 12 -50 l37 6 -34
-29 c-23 -19 -32 -35 -28 -45 6 -15 11 -15 54 4 29 12 59 18 76 15 31 -6 37
13 12 34 -13 11 -18 10 -28 -3 -7 -9 -28 -20 -47 -24 l-35 -6 52 44 c49 42 62
68 36 76 -6 2 -14 -5 -18 -16 -5 -18 -63 -47 -73 -37 -2 3 12 25 32 49 30 37
34 46 20 51 -23 9 -24 8 -33 -16z"/>
  <path d="M362 588 c-7 -7 -12 -17 -12 -23 0 -7 -14 -31 -31 -55 -23 -31 -28
-45 -20 -53 9 -9 16 -8 30 0 32 20 32 2 -1 -29 -23 -22 -28 -32 -20 -40 9 -9
23 -6 58 11 33 15 50 19 57 12 6 -6 15 -11 19 -11 13 0 9 27 -7 40 -11 9 -18
8 -36 -9 -13 -12 -30 -21 -38 -21 -9 0 4 20 33 49 32 33 47 55 43 65 -9 24
-21 20 -40 -14 -13 -21 -26 -30 -44 -30 -23 0 -24 2 -12 18 8 9 17 19 20 22
17 14 29 52 21 65 -6 12 -11 12 -20 3z"/>
  <path d="M170 560 c0 -15 69 -80 85 -80 19 0 27 16 20 41 -10 31 -105 66 -105
39z"/>
  <path d="M538 502 c-21 -2 -38 -7 -38 -13 0 -11 60 -12 79 0 18 12 3 17 -41
13z"/>
  <path d="M500 450 c-21 -7 -17 -8 20 -9 25 0 52 4 60 9 19 12 -42 12 -80 0z"/>
  <path d="M150 380 c38 -48 80 -56 80 -15 0 28 -42 55 -85 55 l-27 0 32 -40z"/>
  <path d="M509 411 c-35 -6 -36 -6 -23 -36 11 -28 15 -30 56 -27 38 3 46 8 55
32 6 16 8 31 5 34 -6 7 -42 6 -93 -3z m49 -28 c-2 -10 -13 -19 -26 -21 -17 -3
-22 2 -22 17 0 16 6 21 26 21 19 0 25 -5 22 -17z"/>
  <path d="M760 402 c0 -16 39 -44 50 -37 8 5 6 13 -6 26 -17 19 -44 26 -44 11z"/>
  <path d="M696 388 c15 -27 27 -38 35 -32 13 8 -9 44 -27 44 -9 0 -12 -5 -8
-12z"/>
  <path d="M634 374 c3 -9 6 -18 6 -20 0 -2 10 -4 22 -4 20 0 21 1 3 20 -22 24
-40 26 -31 4z"/>
  <path d="M406 373 c-7 -7 13 -33 25 -33 5 0 9 6 9 14 0 15 -24 28 -34 19z"/>
  <path d="M350 340 c10 -19 40 -28 40 -12 0 13 -23 32 -37 32 -11 0 -11 -5 -3
-20z"/>
  <path d="M286 325 c4 -8 10 -12 15 -9 5 3 6 -2 3 -10 -3 -9 -2 -16 3 -16 18 0
22 12 12 31 -12 23 -41 26 -33 4z"/>
  <path d="M575 320 c-22 -5 -66 -12 -98 -15 -31 -4 -55 -11 -52 -16 4 -5 16 -7
28 -5 12 3 57 8 99 11 73 6 76 6 71 -13 -4 -16 -17 -21 -76 -26 -153 -14 -154
-14 -149 -47 2 -16 -1 -36 -8 -45 -22 -26 3 -38 39 -19 20 10 70 18 131 22
l100 6 0 -36 c0 -61 -50 -94 -101 -67 -26 15 -25 -3 3 -35 26 -30 50 -32 94
-4 24 14 37 33 46 62 6 23 16 48 22 56 8 10 4 18 -14 33 -19 15 -34 18 -69 14
-124 -15 -201 -18 -201 -8 0 34 13 42 70 42 106 0 144 9 158 38 28 59 5 72
-93 52z"/>
  <path d="M224 259 c-23 -30 -57 -70 -77 -89 -35 -34 -35 -36 -21 -68 9 -22 19
-32 30 -30 17 3 118 210 112 229 -2 6 -22 -13 -44 -42z"/>
</g>
<g id="part-1" class="char-part">
  <path d="M180 561 c0 -19 52 -71 71 -71 27 0 25 36 -3 54 -32 20 -68 29 -68
17z"/>
  <path d="M130 413 c0 -19 69 -76 84 -70 23 9 20 34 -6 51 -30 19 -78 31 -78
19z"/>
  <path d="M216 241 c-26 -33 -58 -69 -72 -80 -20 -15 -25 -26 -20 -43 10 -38
24 -54 36 -42 18 18 115 224 105 224 -2 0 -24 -27 -49 -59z"/>
</g>
<g id="part-2" class="char-part">
  <path d="M350 564 c-6 -14 -22 -41 -37 -60 -34 -46 -20 -66 29 -42 21 11 27
17 16 17 -25 1 -22 13 12 56 16 20 27 41 24 46 -11 18 -35 8 -44 -17z"/>
</g>
<g id="part-3" class="char-part">
  <path d="M760 402 c0 -13 39 -46 46 -39 12 12 -8 47 -27 47 -10 0 -19 -4 -19
-8z"/>
  <path d="M702 378 c18 -26 38 -35 38 -16 0 18 -20 38 -38 38 -12 0 -12 -3 0
-22z"/>
  <path d="M630 383 c0 -5 6 -18 14 -29 17 -22 35 -11 20 13 -12 19 -34 29 -34
16z"/>
</g>
<g id="part-4" class="char-part">
  <path d="M570 319 c-25 -4 -72 -13 -105 -18 -54 -9 -50 -10 48 -6 98 4 107 2
107 -14 0 -15 -11 -20 -62 -25 -174 -18 -165 -16 -160 -43 2 -13 -1 -35 -8
-49 -19 -34 -8 -39 47 -18 33 13 75 19 133 19 l85 0 3 -32 c6 -60 -45 -86
-112 -58 -16 7 -15 2 8 -28 32 -42 56 -46 102 -18 21 12 34 32 43 62 7 24 18
50 24 57 15 18 -14 45 -50 45 -15 1 -75 -3 -132 -7 -96 -8 -104 -7 -98 9 4 9
7 21 7 26 0 5 24 9 53 9 28 0 75 3 102 6 44 6 52 10 67 40 17 32 17 34 -2 44
-21 11 -36 11 -100 -1z"/>
</g>
</g>
</svg>