<?xml version="1.0" standalone="no"?>
<!DOCTYPE svg PUBLIC "-//W3C//DTD SVG 20010904//EN"
 "http://www.w3.org/TR/2001/REC-SVG-20010904/DTD/svg10.dtd">
<svg version="1.0" xmlns="http://www.w3.org/2000/svg"
 width="96.000000pt" height="68.000000pt" viewBox="0 0 96.000000 68.000000"
 preserveAspectRatio="xMidYMid meet">
<metadata>
Created by potrace 1.16, written by Peter Selinger 2001-2019
Combined from part_0.svg through part_5.svg with named groups
</metadata>
<g transform="translate(0.000000,68.000000) scale(0.100000,-0.100000)" fill="#000000" stroke="none">
<g id="part-0" class="char-part">
  <path d="M280 599 c1 -18 68 -69 92 -69 23 0 24 32 1 53 -25 22 -93 34 -93 16z"/>
  <path d="M602 545 c-136 -18 -142 -20 -118 -30 10 -4 62 -2 115 5 145 19 144
19 154 -65 12 -91 -1 -335 -17 -336 -6 -1 -24 -1 -41 0 l-30 2 40 -36 c22 -19
42 -35 45 -35 3 0 16 9 30 20 l25 19 3 223 c3 203 2 223 -14 235 -21 16 -56
15 -192 -2z"/>
  <path d="M311 464 c-18 -8 -62 -18 -97 -21 -70 -6 -90 -19 -48 -29 16 -4 50 0
83 10 31 10 64 20 74 22 9 3 17 0 17 -7 0 -18 -77 -117 -142 -181 -31 -32 -51
-58 -44 -58 16 0 80 46 118 85 24 24 29 25 34 10 7 -16 -1 -114 -12 -165 -3
-14 1 -33 9 -44 26 -35 37 -9 38 92 0 53 4 105 8 116 7 17 8 17 23 2 9 -9 23
-16 31 -16 43 0 21 45 -28 54 -19 4 -35 13 -35 19 0 7 18 31 40 52 22 21 40
42 40 45 0 9 -47 30 -63 29 -7 0 -27 -7 -46 -15z"/>
  <path d="M546 439 c-81 -12 -82 -19 -4 -19 76 0 128 9 128 21 0 11 -43 10
-124 -2z"/>
  <path d="M560 349 c-25 -5 -57 -7 -72 -3 -29 6 -36 -4 -18 -22 6 -6 12 -19 14
-30 15 -72 14 -72 64 -67 84 8 86 9 105 64 25 71 12 79 -93 58z m50 -36 c0
-39 -10 -50 -52 -58 -34 -7 -36 -5 -43 25 -8 37 -6 40 37 50 54 13 58 12 58
-17z"/>
</g>
<g id="part-1" class="char-part">
  <path d="M290 601 c0 -17 70 -73 84 -68 20 8 21 31 1 47 -17 14 -85 31 -85 21z"/>
</g>
<g id="part-2" class="char-part">
  <path d="M270 338 c-30 -39 -74 -87 -97 -106 -23 -20 -41 -38 -39 -40 8 -8 83
38 123 76 23 22 45 37 48 34 8 -9 6 -71 -6 -139 -10 -57 -9 -66 7 -84 16 -18
19 -18 27 -3 5 9 9 58 9 108 -1 50 2 99 6 109 7 17 9 17 21 3 15 -18 47 -21
56 -6 11 17 -14 39 -51 46 -38 7 -40 11 -19 41 13 19 13 22 -1 27 -25 10 -26
9 -84 -66z"/>
</g>
<g id="part-3" class="char-part">
  <path d="M640 549 c-30 -4 -81 -11 -114 -14 -42 -5 -55 -10 -47 -18 7 -7 43
-7 125 3 62 7 121 10 129 7 11 -4 17 -29 22 -87 9 -105 -3 -320 -19 -321 -6
-1 -24 0 -41 0 l-30 2 39 -36 c42 -39 44 -40 67 -22 34 26 38 53 39 263 1 188
0 209 -16 221 -19 14 -69 15 -154 2z"/>
</g>
<g id="part-4" class="char-part">
  <path d="M540 436 c-61 -10 -63 -11 -25 -14 57 -5 166 8 160 19 -8 11 -50 10
-135 -5z"/>
</g>
<g id="part-5" class="char-part">
  <path d="M617 353 c-7 -7 4 -36 17 -45 6 -4 -6 -21 -28 -41 -35 -32 -35 -34
-12 -30 14 3 26 10 26 17 0 6 5 4 10 -4 8 -12 10 -11 10 8 0 13 7 36 15 51 13
27 13 29 -9 39 -13 6 -26 8 -29 5z"/>
  <path d="M491 293 c10 -24 16 -49 13 -54 -3 -6 6 -8 21 -5 35 6 45 16 17 16
-26 0 -34 12 -35 54 -1 23 -6 32 -18 33 -17 2 -16 -1 2 -44z"/>
</g>
</g>
</svg>