<?xml version="1.0" standalone="no"?>
<!DOCTYPE svg PUBLIC "-//W3C//DTD SVG 20010904//EN"
 "http://www.w3.org/TR/2001/REC-SVG-20010904/DTD/svg10.dtd">
<svg version="1.0" xmlns="http://www.w3.org/2000/svg"
 width="96.000000pt" height="68.000000pt" viewBox="0 0 96.000000 68.000000"
 preserveAspectRatio="xMidYMid meet">
<metadata>
Created by potrace 1.16, written by Peter Selinger 2001-2019
Combined from part_0.svg through part_5.svg with named groups
</metadata>
<g transform="translate(0.000000,68.000000) scale(0.100000,-0.100000)" fill="#000000" stroke="none">
<g id="part-0" class="char-part">
  <path d="M341 590 c-13 -11 -54 -30 -92 -41 -74 -23 -84 -45 -15 -34 67 11
196 47 202 57 10 15 -17 38 -45 38 -14 -1 -37 -10 -50 -20z"/>
  <path d="M549 573 c-1 -5 0 -12 1 -18 2 -5 2 -101 1 -213 -2 -236 2 -252 76
-273 49 -13 144 -8 186 12 27 12 38 51 18 64 -5 3 -12 19 -16 35 -7 32 -25 32
-25 -1 0 -11 -11 -31 -25 -44 -19 -20 -34 -25 -75 -25 -72 0 -100 29 -100 102
0 69 19 253 30 298 7 25 6 38 -3 46 -15 15 -67 27 -68 17z"/>
  <path d="M413 480 c-18 -27 -33 -52 -33 -55 0 -2 27 9 60 26 62 31 74 51 41
69 -30 15 -34 13 -68 -40z"/>
  <path d="M270 491 c0 -15 45 -61 60 -61 18 0 24 31 9 45 -20 19 -69 30 -69 16z"/>
  <path d="M160 467 c0 -7 14 -26 30 -42 27 -26 32 -27 46 -14 20 21 9 45 -28
58 -40 14 -48 14 -48 -2z"/>
  <path d="M389 406 c-3 -3 -52 -13 -109 -22 -77 -13 -98 -20 -84 -26 12 -6 54
-4 107 5 48 7 87 10 87 6 0 -15 -44 -49 -63 -49 -14 0 -17 -4 -12 -17 17 -41
11 -47 -65 -64 -41 -10 -90 -18 -107 -19 -35 0 -41 -8 -21 -28 18 -18 51 -15
124 13 92 35 94 34 94 -26 0 -69 -13 -91 -46 -79 -40 15 -40 12 -4 -25 19 -19
41 -35 50 -35 30 0 45 47 42 131 l-3 77 53 22 c52 20 42 21 -39 3 -19 -4 -23
-1 -23 18 1 19 12 29 58 50 l57 25 -25 16 c-29 19 -64 30 -71 24z"/>
</g>
<g id="part-1" class="char-part">
  <path d="M358 594 c-9 -9 -51 -29 -94 -45 l-79 -30 56 5 c31 2 89 14 130 26
l73 22 -23 19 c-28 23 -42 24 -63 3z"/>
  <path d="M440 521 c0 -4 -11 -25 -25 -46 -15 -20 -25 -39 -23 -41 5 -5 108 57
108 65 0 4 -11 13 -25 19 -31 14 -35 15 -35 3z"/>
  <path d="M280 482 c0 -18 40 -44 56 -38 15 6 15 8 -1 26 -18 20 -55 28 -55 12z"/>
  <path d="M160 472 c0 -14 51 -62 65 -62 17 0 20 36 5 45 -19 12 -70 24 -70 17z"/>
</g>
<g id="part-2" class="char-part">
  <path d="M310 306 c0 -7 7 -19 16 -27 21 -17 9 -22 -106 -44 -131 -24 -129
-23 -106 -41 27 -20 52 -18 136 11 40 14 77 25 82 25 11 0 10 -101 -1 -119 -6
-10 -19 -12 -42 -7 l-34 6 42 -42 c35 -35 44 -40 57 -29 25 21 38 86 30 150
l-6 59 53 17 c30 10 48 20 41 23 -7 2 -27 -1 -44 -7 -42 -15 -58 -14 -58 4 0
9 -12 20 -26 25 -33 13 -34 13 -34 -4z"/>
</g>
<g id="part-3" class="char-part">
  <path d="M546 559 c5 -13 7 -113 5 -222 -3 -221 0 -236 64 -263 58 -24 180
-13 212 19 13 13 12 21 -3 66 -20 55 -34 66 -34 26 0 -14 -11 -37 -25 -50 -19
-20 -34 -25 -75 -25 -70 0 -100 29 -100 97 0 76 19 265 31 302 13 40 1 57 -50
67 -32 7 -33 6 -25 -17z"/>
</g>
</g>
</svg>