<?xml version="1.0" standalone="no"?>
<!DOCTYPE svg PUBLIC "-//W3C//DTD SVG 20010904//EN"
 "http://www.w3.org/TR/2001/REC-SVG-20010904/DTD/svg10.dtd">
<svg version="1.0" xmlns="http://www.w3.org/2000/svg"
 width="96.000000pt" height="68.000000pt" viewBox="0 0 96.000000 68.000000"
 preserveAspectRatio="xMidYMid meet">
<metadata>
Created by potrace 1.16, written by Peter Selinger 2001-2019
Combined from part_0.svg through part_5.svg with named groups
</metadata>
<g transform="translate(0.000000,68.000000) scale(0.100000,-0.100000)" fill="#000000" stroke="none">
<g id="part-0" class="char-part">
  <path d="M480 610 c0 -6 9 -25 20 -40 25 -35 23 -36 -105 -45 -49 -4 -98 -9
-107 -11 -22 -6 -24 -24 -3 -24 22 0 28 -39 16 -122 -12 -87 -48 -179 -103
-261 -46 -69 -30 -76 34 -14 69 67 100 146 135 347 8 44 9 45 53 51 25 4 115
12 200 18 85 7 159 16 164 21 19 19 -48 31 -131 25 -69 -6 -83 -5 -83 7 0 20
-29 45 -62 53 -19 5 -28 3 -28 -5z"/>
  <path d="M449 433 c-2 -68 -11 -85 -54 -98 -40 -12 -36 -20 11 -27 20 -3 20
-3 -3 -65 -14 -34 -42 -82 -64 -106 -46 -53 -49 -64 -11 -42 44 27 97 101 121
170 21 59 26 65 51 65 36 0 40 -21 23 -108 -18 -90 -28 -105 -64 -98 l-30 6
18 -25 c10 -13 25 -27 33 -30 24 -10 65 49 80 113 25 112 31 132 40 132 15 0
20 -15 32 -99 13 -95 20 -110 42 -92 8 7 43 15 76 18 45 4 60 9 56 19 -3 8 3
46 14 86 24 93 15 104 -75 92 -80 -11 -153 -8 -171 7 -9 7 -29 9 -53 5 l-38
-6 10 45 c8 33 7 48 -3 60 -23 27 -40 18 -41 -22z m317 -175 c-7 -78 -14 -88
-62 -88 -31 0 -31 0 -38 67 -7 71 -4 79 34 86 75 13 74 15 66 -65z"/>
  <path d="M150 422 c0 -17 67 -72 88 -72 17 0 22 6 22 26 0 19 -8 28 -35 40
-38 15 -75 19 -75 6z"/>
  <path d="M215 300 c-27 -17 -65 -33 -82 -36 -18 -3 -33 -12 -33 -18 0 -16 21
-36 38 -36 20 0 132 90 132 106 0 17 4 19 -55 -16z"/>
</g>
<g id="part-1" class="char-part">
  <path d="M480 615 c0 -3 11 -23 24 -44 l24 -38 -121 -12 c-66 -6 -123 -14
-126 -17 -3 -3 2 -10 12 -15 54 -31 -17 -305 -105 -405 -47 -54 -12 -40 46 18
68 69 94 139 130 349 l6 37 78 11 c42 6 132 13 200 17 67 4 125 10 127 14 3 4
-8 13 -23 19 -20 8 -47 9 -97 1 -95 -13 -95 -13 -95 13 0 17 -10 28 -35 40
-38 18 -45 20 -45 12z"/>
  <path d="M166 408 c41 -54 94 -73 94 -34 0 19 -35 42 -79 51 l-34 7 19 -24z"/>
  <path d="M205 289 c-27 -16 -58 -29 -67 -29 -9 0 -20 -5 -24 -11 -10 -17 12
-32 38 -25 25 7 116 82 108 89 -3 3 -27 -8 -55 -24z"/>
</g>
<g id="part-2" class="char-part">
  <path d="M450 443 c0 -16 -3 -45 -6 -65 -6 -33 -10 -37 -45 -43 -45 -8 -42
-29 2 -23 26 4 28 2 23 -16 -17 -52 -45 -105 -83 -155 -22 -30 -39 -57 -36
-59 9 -9 76 50 99 86 12 20 33 63 47 96 13 32 30 61 37 63 7 3 10 13 7 24 -3
10 -2 34 4 54 7 28 6 38 -6 50 -23 24 -43 18 -43 -12z"/>
</g>
<g id="part-3" class="char-part">
  <path d="M507 353 c-12 -11 -8 -23 8 -23 21 0 19 -90 -3 -155 -15 -44 -20 -50
-44 -50 -33 1 -33 1 -12 -30 36 -55 78 -10 109 117 12 51 26 100 29 109 10 24
-67 53 -87 32z"/>
</g>
<g id="part-4" class="char-part">
  <path d="M700 339 c-25 -5 -57 -7 -72 -5 -32 6 -32 7 -14 -29 8 -15 17 -57 21
-94 8 -77 19 -105 34 -81 7 10 33 16 81 18 52 3 68 7 61 16 -9 11 6 106 24
148 14 34 -43 45 -135 27z m68 -78 c-3 -37 -8 -73 -12 -80 -4 -6 -24 -11 -45
-11 l-38 0 -7 53 c-11 91 -10 95 27 100 86 10 80 15 75 -62z"/>
</g>
</g>
</svg>