<?xml version="1.0" standalone="no"?>
<!DOCTYPE svg PUBLIC "-//W3C//DTD SVG 20010904//EN"
 "http://www.w3.org/TR/2001/REC-SVG-20010904/DTD/svg10.dtd">
<svg version="1.0" xmlns="http://www.w3.org/2000/svg"
 width="96.000000pt" height="68.000000pt" viewBox="0 0 96.000000 68.000000"
 preserveAspectRatio="xMidYMid meet">
<metadata>
Created by potrace 1.16, written by Peter Selinger 2001-2019
Combined from part_0.svg through part_5.svg with named groups
</metadata>
<g transform="translate(0.000000,68.000000) scale(0.100000,-0.100000)" fill="#000000" stroke="none">
<g id="part-0" class="char-part">
  <path d="M316 575 c-46 -30 -80 -45 -102 -45 -25 0 -31 -4 -29 -17 2 -10 6
-78 9 -150 6 -130 6 -133 -15 -133 -28 0 -19 -23 14 -34 20 -7 49 -2 129 24
110 35 114 37 106 45 -3 3 -37 -1 -77 -10 -115 -24 -112 -25 -109 48 l3 62 60
8 c133 18 131 18 111 29 -11 6 -40 8 -70 4 -110 -14 -101 -17 -99 38 1 27 6
53 10 56 5 4 49 20 98 35 50 15 94 31 98 35 8 7 -43 50 -60 50 -4 0 -39 -21
-77 -45z"/>
  <path d="M655 498 c-22 -5 -66 -8 -97 -6 l-57 4 -1 -213 c0 -207 4 -263 20
-263 18 0 23 44 29 232 3 108 9 199 13 203 3 4 36 12 72 18 87 15 92 10 78
-83 -13 -89 -24 -104 -71 -95 l-36 6 37 -37 c57 -58 85 -33 116 106 11 47 22
92 26 101 5 11 -1 19 -19 27 -30 14 -54 14 -110 0z"/>
</g>
<g id="part-1" class="char-part">
  <path d="M350 591 c-14 -10 -44 -29 -68 -41 -71 -37 -36 -45 64 -15 49 15 93
31 97 35 10 9 -31 40 -53 40 -8 0 -26 -9 -40 -19z"/>
</g>
<g id="part-2" class="char-part">
  <path d="M185 503 c2 -15 7 -81 10 -146 5 -113 4 -119 -15 -124 -28 -7 -25
-20 10 -38 26 -14 34 -14 58 -1 15 7 61 24 102 36 124 36 121 52 -5 25 -110
-23 -106 -25 -103 47 l3 63 95 16 c66 11 89 18 77 24 -16 7 -47 5 -152 -8 -17
-2 -19 5 -20 63 l0 65 -32 3 c-31 3 -32 2 -28 -25z"/>
</g>
<g id="part-3" class="char-part">
  <path d="M628 497 c-47 -6 -68 -14 -68 -23 0 -11 9 -13 43 -7 23 4 58 8 77 8
l35 0 -3 -65 c-2 -36 -9 -76 -15 -90 -11 -21 -18 -24 -52 -22 l-40 3 37 -37
c57 -58 85 -34 116 106 11 47 22 92 26 101 5 11 -1 19 -19 27 -29 13 -42 13
-137 -1z"/>
</g>
<g id="part-4" class="char-part">
  <path d="M501 284 c1 -121 4 -232 8 -248 5 -26 8 -27 19 -13 9 10 15 58 18
144 2 70 6 172 9 226 3 78 1 97 -10 97 -7 0 -20 3 -29 6 -14 5 -16 -17 -15
-212z"/>
</g>
</g>
</svg>