<?xml version="1.0" standalone="no"?>
<!DOCTYPE svg PUBLIC "-//W3C//DTD SVG 20010904//EN"
 "http://www.w3.org/TR/2001/REC-SVG-20010904/DTD/svg10.dtd">
<svg version="1.0" xmlns="http://www.w3.org/2000/svg"
 width="96.000000pt" height="68.000000pt" viewBox="0 0 96.000000 68.000000"
 preserveAspectRatio="xMidYMid meet">
<metadata>
Created by potrace 1.16, written by Peter Selinger 2001-2019
Combined from part_0.svg through part_5.svg with named groups
</metadata>
<g transform="translate(0.000000,68.000000) scale(0.100000,-0.100000)" fill="#000000" stroke="none">
<g id="part-0" class="char-part">
  <path d="M526 613 c-3 -3 3 -18 14 -33 11 -16 20 -30 20 -33 0 -3 -27 -8 -60
-12 -33 -4 -60 -11 -60 -16 0 -5 9 -9 20 -9 21 0 60 -63 47 -76 -4 -4 -35 -10
-69 -14 -43 -4 -57 -9 -45 -14 13 -6 124 0 157 9 3 1 60 5 128 9 67 5 122 12
122 16 0 16 -42 22 -103 15 -59 -7 -61 -7 -47 11 8 11 19 22 24 26 6 4 5 13
-3 22 -10 12 -8 15 15 18 15 2 30 9 32 17 4 12 -7 13 -60 7 -64 -6 -65 -6 -61
17 4 19 -1 25 -31 34 -19 6 -37 8 -40 6z m104 -107 c0 -28 -23 -66 -41 -66 -9
0 -24 -3 -33 -6 -12 -5 -16 0 -16 20 0 16 -8 30 -22 38 -23 12 -23 12 7 18 66
13 105 11 105 -4z"/>
  <path d="M216 541 c-4 -5 -2 -12 4 -16 12 -7 14 -265 3 -265 -5 0 -19 -3 -32
-7 -24 -6 -24 -5 -17 46 6 45 4 55 -11 67 -32 24 -43 17 -43 -29 0 -23 -4 -56
-9 -74 -7 -22 -5 -37 4 -49 12 -17 16 -17 86 4 86 26 119 28 119 8 0 -8 5 -18
10 -21 19 -12 39 16 46 63 4 26 10 57 15 69 12 33 2 49 -29 47 -15 -1 -29 -2
-32 -3 -3 0 -3 -26 -2 -56 4 -54 3 -55 -22 -55 l-27 0 6 93 c3 50 8 109 10
129 3 20 2 39 -2 41 -20 12 -72 17 -77 8z"/>
  <path d="M585 375 c-44 -8 -97 -14 -119 -14 -29 -1 -36 -4 -28 -13 5 -7 18
-39 28 -71 15 -50 20 -56 38 -51 12 3 23 6 26 6 23 0 30 -5 30 -22 0 -23 -12
-26 -124 -35 -52 -5 -75 -10 -68 -17 13 -13 73 -15 140 -4 l52 8 0 -76 c0 -42
4 -76 10 -76 18 0 30 39 30 99 l0 61 115 0 c72 0 115 4 115 10 0 23 -41 28
-145 17 -69 -7 -70 -7 -82 19 l-12 27 45 -6 45 -5 21 47 c11 25 25 54 30 64
11 21 11 20 -19 36 -25 13 -22 13 -128 -4z m85 -29 c0 -21 -6 -23 -103 -31
-83 -6 -89 -6 -85 12 2 14 15 19 58 24 104 11 130 10 130 -5z m-10 -61 c0 -8
-8 -15 -17 -16 -10 0 -44 -4 -76 -8 -50 -6 -60 -5 -68 10 -8 16 -3 18 48 22
32 2 70 4 86 5 18 1 27 -3 27 -13z"/>
</g>
<g id="part-1" class="char-part">
  <path d="M228 395 l3 -145 -36 0 c-36 0 -36 1 -30 33 4 17 9 39 11 48 5 17 -9
32 -40 43 -16 5 -17 3 -12 -20 4 -14 1 -51 -5 -80 -17 -74 -8 -82 68 -56 32
10 77 22 101 26 38 6 42 4 42 -14 0 -25 27 -27 34 -2 3 9 10 44 15 76 12 63 6
76 -30 76 -14 0 -16 -8 -11 -45 5 -50 -8 -75 -40 -75 -19 0 -20 6 -17 138 l4
137 -30 3 -30 3 3 -146z"/>
</g>
<g id="part-2" class="char-part">
  <path d="M520 611 c0 -5 11 -23 25 -39 l25 -30 -70 -7 c-80 -8 -85 -25 -7 -25
57 1 189 16 221 26 38 12 -11 26 -66 19 -47 -7 -50 -6 -44 13 5 14 1 24 -11
30 -30 15 -73 23 -73 13z"/>
</g>
<g id="part-3" class="char-part">
  <path d="M624 511 c8 -13 -14 -71 -27 -71 -7 0 -22 -3 -34 -6 -19 -5 -23 -2
-23 19 0 15 -9 31 -25 41 -34 22 -36 21 -19 -20 8 -20 13 -38 11 -40 -2 -2
-31 -7 -65 -10 -34 -4 -62 -11 -62 -17 0 -5 23 -7 58 -4 31 3 122 10 202 17
166 13 187 17 150 32 -14 5 -53 7 -87 3 -35 -4 -63 -5 -63 -2 0 2 9 14 20 27
23 27 18 40 -16 40 -14 0 -23 -4 -20 -9z"/>
</g>
<g id="part-4" class="char-part">
  <path d="M560 211 l0 -28 -101 -8 c-60 -4 -98 -10 -92 -16 12 -12 67 -14 136
-5 l57 8 1 -53 c2 -71 5 -98 12 -105 9 -10 27 68 27 119 l0 47 115 0 c63 0
115 4 115 9 0 18 -56 28 -115 20 -101 -12 -118 -11 -111 8 4 9 1 20 -6 25 -25
15 -38 8 -38 -21z"/>
</g>
</g>
</svg>