<?xml version="1.0" standalone="no"?>
<!DOCTYPE svg PUBLIC "-//W3C//DTD SVG 20010904//EN"
 "http://www.w3.org/TR/2001/REC-SVG-20010904/DTD/svg10.dtd">
<svg version="1.0" xmlns="http://www.w3.org/2000/svg"
 width="96.000000pt" height="68.000000pt" viewBox="0 0 96.000000 68.000000"
 preserveAspectRatio="xMidYMid meet">
<metadata>
Created by potrace 1.16, written by Peter Selinger 2001-2019
Combined from part_0.svg through part_5.svg with named groups
</metadata>
<g transform="translate(0.000000,68.000000) scale(0.100000,-0.100000)" fill="#000000" stroke="none">
<g id="part-0" class="char-part">
  <path d="M546 568 c22 -43 36 -51 51 -31 11 14 9 21 -9 40 -12 13 -30 23 -40
23 -18 0 -18 -2 -2 -32z"/>
  <path d="M210 565 c0 -14 53 -87 66 -92 16 -6 34 12 34 35 0 22 -48 62 -75 62
-14 0 -25 -2 -25 -5z"/>
  <path d="M679 526 c-5 -5 -63 -13 -152 -22 -37 -4 -70 -11 -73 -15 -3 -5 3 -9
13 -9 16 0 55 -64 57 -94 1 -14 -74 -18 -90 -5 -11 9 -18 2 -34 -36 -24 -55
-25 -65 -6 -65 7 0 21 16 30 35 9 19 20 35 24 35 4 0 63 7 132 15 69 8 138 15
154 15 29 0 29 1 9 -48 -4 -8 15 -3 46 13 28 15 51 30 51 34 0 3 -14 12 -31
20 -25 11 -46 12 -98 4 -36 -6 -68 -9 -70 -7 -2 2 8 17 23 35 16 19 24 38 21
49 -4 13 2 19 27 24 26 5 30 9 18 16 -15 10 -43 13 -51 6z m-55 -90 c-10 -30
-22 -46 -37 -50 -35 -9 -37 -8 -37 23 0 19 -8 35 -22 45 -16 12 -18 16 -7 20
17 6 101 12 111 8 4 -1 0 -22 -8 -46z"/>
  <path d="M225 449 c-160 -25 -156 -23 -113 -42 33 -15 44 -15 105 -3 37 8 94
17 126 21 36 5 57 12 57 20 0 11 -34 27 -50 24 -3 -1 -59 -10 -125 -20z"/>
  <path d="M230 357 c-36 -9 -40 -12 -21 -15 36 -6 131 8 131 19 0 12 -52 10
-110 -4z"/>
  <path d="M550 342 c0 -4 7 -18 16 -30 9 -13 14 -25 12 -27 -2 -2 -30 -6 -63
-10 -78 -9 -95 -25 -27 -25 45 0 52 -3 52 -20 0 -19 -63 -88 -126 -138 l-29
-23 39 16 c49 19 99 57 128 95 19 27 25 29 62 24 23 -4 45 -10 50 -15 13 -12
-10 -82 -34 -104 -18 -16 -26 -17 -51 -8 -17 7 -29 9 -27 5 2 -4 10 -19 17
-34 18 -35 59 -38 88 -5 20 22 73 127 73 146 0 16 -22 25 -75 31 -42 4 -50 8
-50 25 0 18 8 20 70 23 39 2 74 7 79 12 14 14 -40 23 -100 16 -49 -6 -54 -4
-54 14 0 10 -9 24 -19 30 -23 12 -31 13 -31 2z"/>
  <path d="M232 290 c-48 -11 -51 -20 -6 -20 56 0 114 11 114 21 0 11 -62 10
-108 -1z"/>
  <path d="M275 220 c-11 -5 -44 -9 -74 -9 -48 -1 -52 -3 -40 -17 8 -9 21 -35
30 -58 11 -31 20 -40 35 -38 10 2 40 6 66 9 34 4 45 9 41 19 -3 8 4 30 16 49
20 34 20 35 1 45 -22 12 -47 12 -75 0z m23 -52 c-3 -27 -8 -33 -35 -39 -29 -6
-33 -3 -42 24 -14 38 -15 35 12 40 61 12 68 9 65 -25z"/>
</g>
<g id="part-1" class="char-part">
  <path d="M233 528 c30 -51 67 -64 67 -24 0 28 -42 66 -72 66 -19 0 -19 -2 5
-42z"/>
  <path d="M203 442 c-57 -8 -103 -19 -103 -23 0 -19 53 -20 152 -4 147 24 149
25 143 35 -8 13 -66 11 -192 -8z"/>
</g>
<g id="part-2" class="char-part">
  <path d="M275 220 c-11 -5 -44 -9 -74 -9 -51 -1 -53 -2 -39 -18 9 -10 22 -37
29 -61 11 -37 16 -42 33 -37 12 4 42 9 68 12 31 4 45 9 42 18 -3 7 4 29 16 50
17 30 19 40 8 46 -16 11 -57 10 -83 -1z m25 -49 c0 -33 -3 -35 -42 -45 -23 -5
-27 -2 -37 26 -6 17 -11 32 -11 34 0 5 34 12 63 13 24 1 27 -3 27 -28z"/>
</g>
<g id="part-3" class="char-part">
  <path d="M537 583 c21 -56 54 -80 67 -47 10 25 -24 64 -56 64 -12 0 -15 -5
-11 -17z"/>
  <path d="M669 526 c-3 -3 -47 -10 -99 -16 -116 -14 -133 -19 -104 -30 41 -16
281 20 269 40 -6 10 -58 14 -66 6z"/>
</g>
<g id="part-4" class="char-part">
  <path d="M729 406 c-2 -2 -66 -12 -142 -21 -101 -13 -142 -14 -150 -6 -8 8
-17 -1 -34 -30 -24 -42 -29 -69 -15 -69 11 0 37 30 45 51 4 12 28 19 94 27
136 18 233 25 233 19 0 -3 -4 -17 -10 -31 l-10 -26 50 25 c28 14 50 27 50 30
0 17 -97 45 -111 31z"/>
</g>
<g id="part-5" class="char-part">
  <path d="M619 209 c14 -5 31 -7 38 -5 7 3 13 1 13 -4 0 -6 9 -10 20 -10 11 0
20 -4 20 -10 0 -5 -7 -7 -15 -4 -8 4 -15 1 -15 -5 0 -6 4 -11 10 -11 5 0 7 -7
3 -16 -4 -12 -8 -13 -14 -3 -11 18 -31 -34 -23 -58 5 -14 4 -15 -4 -4 -8 11
-12 10 -23 -7 -10 -16 -17 -18 -37 -11 -33 13 -35 9 -11 -21 14 -17 22 -21 26
-12 2 6 9 10 14 6 5 -3 9 0 9 6 0 7 6 10 14 7 10 -4 25 17 51 70 20 41 35 76
33 77 -12 10 -76 26 -102 25 -30 0 -30 -1 -7 -10z"/>
</g>
</g>
</svg>