<?xml version="1.0" standalone="no"?>
<!DOCTYPE svg PUBLIC "-//W3C//DTD SVG 20010904//EN"
 "http://www.w3.org/TR/2001/REC-SVG-20010904/DTD/svg10.dtd">
<svg version="1.0" xmlns="http://www.w3.org/2000/svg"
 width="96.000000pt" height="68.000000pt" viewBox="0 0 96.000000 68.000000"
 preserveAspectRatio="xMidYMid meet">
<metadata>
Created by potrace 1.16, written by Peter Selinger 2001-2019
Combined from part_0.svg through part_5.svg with named groups
</metadata>
<g transform="translate(0.000000,68.000000) scale(0.100000,-0.100000)" fill="#000000" stroke="none">
<g id="part-0" class="char-part">
  <path d="M570 640 c0 -5 -14 -25 -31 -45 -38 -43 -21 -47 51 -10 54 27 60 39
31 55 -25 13 -51 13 -51 0z"/>
  <path d="M330 623 c0 -20 59 -75 76 -71 47 9 6 78 -46 78 -17 0 -30 -3 -30 -7z"/>
  <path d="M460 544 c-157 -12 -295 -23 -307 -23 -28 -1 -30 -17 -3 -31 14 -7
52 -6 137 5 65 9 211 19 326 22 161 5 207 9 207 19 0 16 -32 34 -57 33 -10 -1
-146 -12 -303 -25z"/>
  <path d="M645 438 c8 -87 -4 -128 -37 -128 -22 0 -22 0 5 -27 22 -22 31 -26
45 -17 24 15 35 212 13 232 -28 23 -33 12 -26 -60z"/>
  <path d="M375 470 c-16 -4 -47 -8 -67 -9 -36 -1 -37 -2 -31 -35 3 -19 0 -58
-7 -86 -11 -45 -10 -54 3 -67 14 -14 17 -12 26 25 11 38 14 41 56 48 57 8 75
1 68 -25 -4 -14 -13 -21 -31 -21 l-25 0 23 -25 c47 -50 67 -22 71 99 4 108 -4
117 -86 96z m48 -29 c4 -15 -3 -20 -41 -25 -66 -9 -74 -8 -70 11 3 17 27 26
78 30 20 1 29 -3 33 -16z m5 -58 c-4 -24 -118 -33 -118 -9 0 15 25 22 88 25
27 1 33 -2 30 -16z"/>
  <path d="M528 398 c7 -106 45 -104 40 2 -3 47 -6 55 -24 58 -19 3 -20 -1 -16
-60z"/>
  <path d="M530 235 c-41 -7 -117 -17 -167 -21 -89 -6 -115 -16 -75 -26 11 -3
40 -2 65 2 26 4 47 5 47 2 0 -34 -102 -115 -186 -147 l-39 -15 45 4 c46 5 115
38 180 85 49 36 61 53 48 68 -13 16 -2 20 82 27 36 3 71 2 79 -3 16 -11 8 -54
-19 -99 -16 -26 -26 -32 -55 -32 -41 0 -42 -2 -13 -35 43 -49 97 -17 123 73 9
31 24 65 33 75 14 15 14 19 1 32 -21 22 -66 25 -149 10z"/>
</g>
<g id="part-1" class="char-part">
  <path d="M548 600 c-15 -22 -26 -40 -23 -40 2 0 29 12 60 27 59 29 66 47 19
50 -24 2 -34 -4 -56 -37z"/>
  <path d="M340 619 c0 -18 57 -72 68 -65 16 9 15 41 0 53 -17 14 -68 22 -68 12z"/>
  <path d="M407 537 c-178 -14 -266 -24 -264 -31 5 -15 73 -13 307 7 107 9 235
17 284 17 77 0 87 2 76 15 -16 19 -56 18 -403 -8z"/>
</g>
<g id="part-2" class="char-part">
  <path d="M380 470 c-14 -4 -44 -8 -67 -9 l-42 -1 6 -35 c3 -19 0 -55 -6 -81
-12 -46 -8 -84 9 -84 5 0 14 17 20 39 8 32 15 40 41 45 46 9 89 7 89 -3 0 -25
-15 -41 -38 -41 l-25 0 23 -25 c48 -51 67 -26 71 95 2 47 0 91 -5 98 -8 13
-38 14 -76 2z m40 -29 c0 -18 -38 -31 -93 -31 -34 0 -15 35 23 41 62 11 70 10
70 -10z m5 -52 c11 -17 -1 -22 -60 -27 -45 -4 -55 -2 -55 11 0 22 103 37 115
16z"/>
</g>
<g id="part-3" class="char-part">
  <path d="M638 505 c-3 -4 -2 -21 3 -38 21 -74 5 -157 -31 -157 -20 0 -20 -1
-3 -25 20 -27 45 -32 61 -12 11 14 22 227 11 227 -4 0 -14 2 -21 5 -8 3 -17 3
-20 0z"/>
</g>
<g id="part-4" class="char-part">
  <path d="M395 181 c-10 -31 -74 -81 -150 -118 l-70 -34 43 5 c56 6 135 45 195
97 38 33 45 44 36 55 -17 20 -47 17 -54 -5z"/>
</g>
</g>
</svg>