<?xml version="1.0" standalone="no"?>
<!DOCTYPE svg PUBLIC "-//W3C//DTD SVG 20010904//EN"
 "http://www.w3.org/TR/2001/REC-SVG-20010904/DTD/svg10.dtd">
<svg version="1.0" xmlns="http://www.w3.org/2000/svg"
 width="96.000000pt" height="68.000000pt" viewBox="0 0 96.000000 68.000000"
 preserveAspectRatio="xMidYMid meet">
<metadata>
Created by potrace 1.16, written by Peter Selinger 2001-2019
Combined from part_0.svg through part_5.svg with named groups
</metadata>
<g transform="translate(0.000000,68.000000) scale(0.100000,-0.100000)" fill="#000000" stroke="none">
<g id="part-0" class="char-part">
  <path d="M549 623 c0 -4 0 -29 1 -55 l1 -48 -45 0 c-25 0 -46 -4 -46 -10 0 -5
18 -10 40 -10 41 0 45 -5 34 -46 -5 -17 -16 -23 -56 -27 -28 -4 -59 -2 -69 3
-16 9 -21 4 -39 -36 -22 -48 -17 -70 13 -59 8 4 20 19 26 35 8 24 16 29 53 34
222 30 294 28 260 -6 -24 -24 -11 -25 43 -5 30 11 55 24 55 28 0 23 -48 32
-147 25 l-103 -6 6 28 c10 40 12 42 52 43 20 0 46 4 57 9 19 7 19 8 2 15 -10
4 -33 5 -52 2 -38 -6 -45 6 -25 43 7 12 6 21 -3 28 -18 14 -57 25 -58 15z"/>
  <path d="M208 595 c-4 -4 -3 -18 3 -32 12 -33 11 -244 -2 -360 -12 -99 -4
-143 25 -143 23 0 29 29 33 175 2 77 6 155 9 174 l5 33 24 -22 c27 -26 55 -21
55 9 0 15 -11 23 -41 32 l-41 13 6 47 c4 32 2 50 -6 57 -17 14 -62 25 -70 17z"/>
  <path d="M126 387 c-9 -23 -16 -55 -16 -71 0 -23 4 -27 23 -24 29 4 53 72 38
111 -15 38 -26 34 -45 -16z"/>
  <path d="M520 355 c-36 -7 -67 -13 -70 -14 -3 -1 2 -6 11 -11 9 -5 31 -5 55 0
21 5 51 10 67 10 27 0 27 0 11 -25 -9 -14 -27 -28 -41 -31 -17 -5 -21 -10 -14
-17 19 -19 12 -25 -39 -31 -27 -3 -73 -9 -100 -12 -31 -4 -48 -10 -44 -16 7
-11 147 -4 179 8 14 6 16 -3 13 -57 l-3 -64 -35 3 -35 3 37 -38 38 -38 21 22
c19 18 22 33 22 97 l0 76 108 0 c108 0 138 9 99 30 -19 10 -102 7 -174 -6 -19
-3 -46 12 -46 26 0 4 25 20 56 35 l57 29 -23 18 c-25 20 -55 21 -150 3z"/>
</g>
<g id="part-1" class="char-part">
  <path d="M217 563 c12 -42 8 -277 -6 -371 -11 -75 -11 -86 5 -109 31 -48 41
-10 49 187 l7 180 28 -20 c35 -25 50 -25 50 0 0 14 -11 22 -40 31 -45 14 -44
11 -30 59 9 31 8 37 -11 53 -12 9 -30 17 -40 17 -16 0 -18 -4 -12 -27z"/>
  <path d="M140 415 c0 -9 -7 -30 -16 -47 -19 -37 -11 -81 14 -76 20 4 38 74 28
112 -7 28 -26 36 -26 11z"/>
</g>
<g id="part-2" class="char-part">
  <path d="M544 578 l1 -53 -42 -5 c-60 -9 -65 -20 -8 -20 47 0 47 0 42 -29 -3
-16 -3 -31 0 -34 12 -13 43 15 43 38 0 26 3 27 83 40 57 9 46 28 -13 23 -53
-5 -61 3 -40 42 11 21 -1 35 -41 45 -27 7 -27 6 -25 -47z"/>
</g>
<g id="part-3" class="char-part">
  <path d="M535 435 c-65 -8 -114 -9 -120 -4 -16 16 -24 10 -45 -37 -25 -58 -25
-64 1 -64 13 0 25 11 35 35 8 19 16 35 18 35 2 0 70 7 151 15 81 9 150 14 153
11 2 -3 -3 -17 -12 -31 -9 -14 -15 -25 -12 -25 16 0 116 44 116 52 0 29 -102
34 -285 13z"/>
</g>
<g id="part-4" class="char-part">
  <path d="M540 265 c18 -21 12 -24 -61 -31 -104 -9 -130 -14 -123 -26 7 -11
123 -5 172 8 22 6 23 5 20 -57 l-3 -64 -34 2 -33 1 33 -34 c57 -59 78 -39 82
82 l2 77 113 -2 c74 -1 112 2 112 9 0 22 -51 30 -139 22 -80 -7 -90 -6 -100
10 -6 10 -21 18 -32 18 -18 0 -19 -2 -9 -15z"/>
</g>
</g>
</svg>