<?xml version="1.0" standalone="no"?>
<!DOCTYPE svg PUBLIC "-//W3C//DTD SVG 20010904//EN"
 "http://www.w3.org/TR/2001/REC-SVG-20010904/DTD/svg10.dtd">
<svg version="1.0" xmlns="http://www.w3.org/2000/svg"
 width="96.000000pt" height="68.000000pt" viewBox="0 0 96.000000 68.000000"
 preserveAspectRatio="xMidYMid meet">
<metadata>
Created by potrace 1.16, written by Peter Selinger 2001-2019
Combined from part_0.svg through part_5.svg with named groups
</metadata>
<g transform="translate(0.000000,68.000000) scale(0.100000,-0.100000)" fill="#000000" stroke="none">
<g id="part-0" class="char-part">
  <path d="M206 533 c5 -16 8 -53 9 -83 l0 -55 -53 -8 c-64 -10 -59 -27 9 -27
l50 0 -3 -67 -3 -66 -56 -21 c-65 -24 -73 -35 -38 -55 23 -13 32 -10 132 49
59 34 107 64 107 67 0 7 -49 -2 -73 -12 -16 -7 -18 -2 -15 51 l3 58 50 14 c46
13 48 15 30 29 -12 8 -31 12 -47 9 -27 -5 -28 -4 -28 35 0 22 5 49 10 59 13
24 -21 50 -63 50 -27 0 -29 -2 -21 -27z"/>
  <path d="M575 549 c-38 -4 -87 -5 -109 -2 -38 6 -38 6 -33 -23 11 -56 12 -209
2 -207 -6 1 -23 5 -38 8 -28 7 -28 7 -21 -31 4 -22 7 -43 6 -49 -9 -67 -11
-153 -4 -164 19 -27 29 1 36 101 4 56 8 103 9 104 8 7 238 34 285 34 73 0 75
-4 66 -117 -8 -94 -20 -113 -60 -94 -38 17 -38 14 -4 -29 37 -46 48 -49 78
-17 17 18 25 47 36 128 8 57 15 110 17 117 6 21 -59 52 -93 45 -29 -6 -29 -6
-23 33 4 21 13 64 21 94 21 83 5 89 -171 69z m122 -40 c3 -41 -10 -50 -83 -56
l-69 -5 0 -62 0 -61 -32 -3 -33 -3 0 100 0 99 68 7 c37 4 72 8 77 10 6 2 23 3
40 2 24 -2 30 -7 32 -28z m-13 -116 c-3 -27 -7 -49 -8 -50 -1 -1 -21 -5 -44
-9 -49 -8 -58 5 -48 60 6 31 11 35 44 39 20 2 43 4 50 5 10 2 12 -9 6 -45z"/>
  <path d="M580 260 c-14 -4 -42 -8 -64 -9 -29 -1 -36 -4 -29 -13 6 -7 16 -30
22 -50 12 -37 12 -37 59 -32 80 9 86 12 108 59 17 36 18 45 6 50 -19 7 -72 5
-102 -5z m55 -30 c10 -16 -33 -50 -64 -50 -30 0 -50 28 -36 50 8 13 92 13 100
0z"/>
</g>
<g id="part-1" class="char-part">
  <path d="M205 544 c5 -10 11 -49 13 -86 l4 -67 -51 -7 c-65 -8 -66 -24 -1 -24
l50 0 0 -69 0 -69 -67 -23 c-60 -20 -65 -23 -48 -35 31 -23 51 -17 151 42 96
56 118 78 50 50 l-36 -15 0 64 c0 62 1 65 28 71 67 15 68 15 48 30 -11 8 -30
11 -47 7 -27 -5 -29 -3 -29 24 0 17 5 45 11 62 14 39 7 47 -45 57 -36 6 -39 5
-31 -12z"/>
</g>
<g id="part-2" class="char-part">
  <path d="M565 549 c-33 -4 -77 -5 -97 -2 l-37 5 4 -48 c3 -27 7 -79 11 -116 4
-49 10 -68 20 -68 11 0 14 20 14 99 l0 99 68 8 c37 4 85 8 107 8 46 1 46 1 31
-126 -7 -63 -6 -68 11 -68 16 0 23 16 41 96 17 73 19 100 11 110 -13 15 -85
17 -184 3z"/>
</g>
<g id="part-3" class="char-part">
  <path d="M695 343 c-44 -8 -137 -15 -207 -16 -81 -1 -124 -6 -120 -12 4 -5 7
-62 7 -125 0 -101 2 -115 18 -118 14 -3 17 4 17 46 0 27 3 76 6 109 l6 59 70
12 c39 7 116 15 173 19 101 6 102 6 108 -17 9 -36 -4 -179 -18 -190 -9 -7 -21
-7 -39 0 -40 15 -40 14 -6 -30 37 -46 48 -49 79 -16 18 19 25 46 37 137 7 63
14 116 14 119 0 6 -56 41 -62 39 -1 -1 -39 -8 -83 -16z"/>
</g>
<g id="part-4" class="char-part">
  <path d="M590 260 c-14 -4 -45 -8 -69 -9 -33 -1 -41 -4 -34 -13 6 -7 16 -29
22 -49 12 -36 12 -36 59 -32 26 2 56 6 67 8 22 5 61 78 50 95 -7 12 -59 12
-95 0z m40 -39 c0 -27 -4 -31 -42 -38 -35 -7 -44 -6 -50 6 -17 40 -9 50 40 54
26 2 48 4 50 5 1 1 2 -11 2 -27z"/>
</g>
</g>
</svg>