<?xml version="1.0" standalone="no"?>
<!DOCTYPE svg PUBLIC "-//W3C//DTD SVG 20010904//EN"
 "http://www.w3.org/TR/2001/REC-SVG-20010904/DTD/svg10.dtd">
<svg version="1.0" xmlns="http://www.w3.org/2000/svg"
 width="96.000000pt" height="68.000000pt" viewBox="0 0 96.000000 68.000000"
 preserveAspectRatio="xMidYMid meet">
<metadata>
Created by potrace 1.16, written by Peter Selinger 2001-2019
Combined from part_0.svg through part_5.svg with named groups
</metadata>
<g transform="translate(0.000000,68.000000) scale(0.100000,-0.100000)" fill="#000000" stroke="none">
<g id="part-0" class="char-part">
  <path d="M448 520 c4 -79 4 -80 -19 -81 -13 -1 -39 -3 -56 -5 -38 -4 -39 -2
-16 37 16 28 16 29 -2 44 -34 25 -50 18 -64 -30 -7 -25 -31 -70 -53 -101 -22
-30 -37 -58 -34 -61 8 -8 47 19 82 56 27 29 34 31 96 31 l68 0 0 -59 0 -59
-67 -6 c-38 -3 -110 -8 -162 -12 -86 -6 -93 -8 -75 -21 19 -15 25 -15 227 3
l77 7 1 -114 c0 -117 8 -164 24 -140 6 11 22 170 24 244 1 15 15 17 151 17
118 0 150 3 150 13 0 8 -16 18 -35 24 -33 10 -63 9 -227 -12 l-38 -4 0 63 0
63 87 13 c78 11 85 14 68 27 -14 9 -33 12 -65 7 -89 -14 -85 -16 -86 51 -1 85
-1 85 -32 85 l-29 0 5 -80z"/>
</g>
<g id="part-1" class="char-part">
  <path d="M305 518 c-2 -7 -8 -29 -15 -49 -6 -20 -26 -58 -45 -85 -19 -26 -32
-50 -30 -52 6 -6 77 52 95 78 8 12 25 36 38 53 l23 32 -22 18 c-25 20 -38 22
-44 5z"/>
</g>
<g id="part-2" class="char-part">
  <path d="M448 522 l4 -79 -66 -8 c-36 -3 -66 -11 -66 -16 0 -5 29 -9 65 -9
l65 0 0 -59 0 -59 -72 -6 c-40 -3 -112 -8 -160 -12 -49 -3 -88 -10 -88 -15 0
-17 76 -22 166 -10 51 6 106 11 123 11 l30 0 3 -125 c4 -191 29 -164 44 48 l6
87 148 0 c147 0 182 8 139 30 -30 16 -157 13 -261 -6 l-28 -6 0 65 0 65 61 7
c33 4 73 10 87 14 l27 8 -24 12 c-22 12 -41 11 -125 -5 l-28 -6 3 73 4 74 -31
3 -31 3 5 -79z"/>
</g>
</g>
</svg>