<?xml version="1.0" standalone="no"?>
<!DOCTYPE svg PUBLIC "-//W3C//DTD SVG 20010904//EN"
 "http://www.w3.org/TR/2001/REC-SVG-20010904/DTD/svg10.dtd">
<svg version="1.0" xmlns="http://www.w3.org/2000/svg"
 width="96.000000pt" height="68.000000pt" viewBox="0 0 96.000000 68.000000"
 preserveAspectRatio="xMidYMid meet">
<metadata>
Created by potrace 1.16, written by Peter Selinger 2001-2019
Combined from part_0.svg through part_5.svg with named groups
</metadata>
<g transform="translate(0.000000,68.000000) scale(0.100000,-0.100000)" fill="#000000" stroke="none">
<g id="part-0" class="char-part">
  <path d="M485 561 c-8 -49 -53 -118 -122 -190 -29 -30 -51 -57 -48 -59 8 -8
109 73 140 112 17 20 42 51 57 69 l26 32 90 -87 89 -88 54 0 c84 0 90 14 17
40 -63 23 -144 71 -184 106 -11 11 -29 24 -40 30 -10 6 -19 19 -19 28 0 17
-30 46 -46 46 -4 0 -10 -18 -14 -39z"/>
  <path d="M523 427 c-24 -6 -43 -14 -43 -19 0 -11 19 -10 81 3 36 8 47 14 38
20 -16 10 -19 10 -76 -4z"/>
  <path d="M225 410 c-11 -5 -48 -9 -83 -9 l-63 -1 20 -27 c11 -16 25 -53 31
-83 15 -78 22 -87 51 -66 13 9 42 16 65 16 41 0 42 1 42 34 0 18 7 47 16 64
21 41 20 59 -3 72 -23 12 -48 12 -76 0z m15 -62 c0 -57 -10 -78 -36 -78 -25 0
-39 21 -46 71 -3 25 -4 24 75 38 4 0 7 -14 7 -31z"/>
  <path d="M550 353 c-36 -7 -81 -10 -100 -7 l-35 5 0 -68 c0 -82 -26 -142 -90
-208 -23 -25 -39 -45 -35 -45 13 0 100 70 110 90 18 33 29 23 42 -40 12 -58
20 -71 33 -50 3 6 48 10 101 10 84 0 94 2 94 18 0 10 8 34 19 55 30 60 6 69
-124 49 -106 -17 -135 -16 -135 7 0 28 10 31 105 34 l86 3 33 67 c18 37 29 70
24 73 -26 16 -70 19 -128 7z m58 -34 c-2 -17 -10 -22 -38 -24 -19 0 -52 -5
-72 -9 -34 -7 -38 -6 -38 13 0 13 8 22 23 25 12 3 31 7 42 9 11 3 35 5 53 6
29 1 33 -2 30 -20z m-10 -61 c-3 -20 -11 -24 -71 -31 -38 -5 -71 -6 -74 -3 -7
7 7 47 16 42 4 -3 29 -1 57 3 75 13 76 13 72 -11z m30 -116 c8 -5 10 -19 6
-39 -7 -36 -23 -43 -105 -43 -54 0 -57 1 -62 28 -3 15 -2 31 2 35 4 4 37 12
72 16 35 5 66 9 69 10 3 0 11 -3 18 -7z"/>
</g>
<g id="part-1" class="char-part">
  <path d="M210 403 c-25 -8 -62 -12 -82 -10 -42 6 -45 2 -23 -23 8 -8 21 -44
29 -79 17 -74 18 -76 43 -62 10 5 38 13 63 16 43 5 45 7 46 38 0 18 8 48 17
66 9 19 17 37 17 42 0 5 -60 32 -64 28 -1 -1 -21 -8 -46 -16z m34 -75 c-4 -29
-8 -54 -9 -55 -1 -2 -15 -5 -31 -9 -28 -5 -30 -3 -42 40 -6 26 -12 50 -12 55
0 10 27 17 73 20 l28 1 -7 -52z"/>
</g>
<g id="part-2" class="char-part">
  <path d="M490 580 c0 -38 -42 -110 -111 -190 -38 -44 -67 -80 -63 -80 3 0 24
13 47 29 42 28 97 85 148 152 l26 34 91 -88 90 -87 54 0 c86 0 86 13 0 48 -86
35 -220 128 -221 153 -1 18 -32 49 -49 49 -7 0 -12 -9 -12 -20z"/>
</g>
<g id="part-3" class="char-part">
  <path d="M518 427 c-41 -11 -51 -27 -17 -27 41 0 111 22 97 31 -16 11 -32 10
-80 -4z"/>
</g>
<g id="part-4" class="char-part">
  <path d="M515 156 l-90 -11 12 -50 c19 -75 22 -80 35 -67 8 8 47 12 105 12 83
0 93 2 93 18 0 10 9 35 19 55 18 36 18 38 1 47 -22 12 -52 11 -175 -4z m117
-45 c-1 -19 -5 -37 -7 -39 -3 -3 -38 -7 -79 -10 l-74 -4 -7 31 c-4 18 -5 34
-3 36 6 6 130 23 153 21 16 -1 20 -7 17 -35z"/>
</g>
</g>
</svg>