<?xml version="1.0" standalone="no"?>
<!DOCTYPE svg PUBLIC "-//W3C//DTD SVG 20010904//EN"
 "http://www.w3.org/TR/2001/REC-SVG-20010904/DTD/svg10.dtd">
<svg version="1.0" xmlns="http://www.w3.org/2000/svg"
 width="96.000000pt" height="68.000000pt" viewBox="0 0 96.000000 68.000000"
 preserveAspectRatio="xMidYMid meet">
<metadata>
Created by potrace 1.16, written by Peter Selinger 2001-2019
Combined from part_0.svg through part_5.svg with named groups
</metadata>
<g transform="translate(0.000000,68.000000) scale(0.100000,-0.100000)" fill="#000000" stroke="none">
<g id="part-0" class="char-part">
  <path d="M477 560 c-9 -41 -36 -80 -56 -80 -14 0 -16 -13 -13 -110 l4 -110
-31 0 c-34 0 -39 -11 -17 -30 12 -9 30 -7 85 13 52 18 71 21 71 11 0 -13 -138
-144 -152 -144 -4 0 -8 -4 -8 -9 0 -18 37 1 101 50 l64 50 3 -52 c4 -70 -1
-81 -33 -69 -31 12 -32 2 -2 -26 35 -32 44 -35 61 -18 13 12 16 39 16 128 0
76 4 116 12 124 10 10 10 15 -1 21 -11 7 -13 26 -8 84 6 90 -2 103 -63 93 -22
-3 -40 -4 -40 -2 0 3 16 20 35 39 39 37 43 52 19 61 -30 12 -42 6 -47 -24z
m51 -122 c3 -22 -1 -26 -34 -31 -46 -8 -53 -4 -47 27 4 18 13 26 32 29 39 6
46 3 49 -25z m2 -73 c0 -23 -4 -25 -45 -25 -38 0 -45 3 -45 19 0 20 16 28 63
30 22 1 27 -3 27 -24z m-2 -57 c-2 -16 -14 -25 -45 -34 l-43 -13 0 29 c0 29
10 35 68 39 19 1 23 -3 20 -21z"/>
  <path d="M200 555 c0 -11 26 -51 49 -77 24 -28 25 -28 3 -28 -46 0 -172 -23
-172 -31 0 -23 54 -29 129 -15 42 8 100 18 129 21 74 10 71 32 -6 36 -38 3
-41 5 -36 25 8 30 -35 74 -71 74 -14 0 -25 -2 -25 -5z"/>
  <path d="M696 518 c5 -18 9 -55 9 -83 l0 -50 -60 -11 c-70 -13 -54 -30 20 -21
l45 5 0 -117 c0 -135 -5 -148 -48 -133 -39 14 -34 -2 15 -42 27 -23 39 -27 51
-19 14 9 17 34 20 167 l3 156 45 0 c59 0 55 24 -5 28 l-43 3 5 65 c4 68 -5 84
-48 84 -14 0 -15 -6 -9 -32z"/>
  <path d="M215 355 l-40 -13 41 -1 c52 -1 104 9 104 20 0 13 -59 10 -105 -6z"/>
  <path d="M225 293 c-45 -7 -55 -23 -15 -23 52 0 110 11 110 21 0 9 -39 10 -95
2z"/>
  <path d="M627 260 c19 -33 43 -40 43 -12 0 11 -11 24 -25 30 -37 17 -38 15
-18 -18z"/>
  <path d="M260 219 c-19 -5 -53 -9 -76 -10 l-40 -1 22 -46 c13 -26 24 -53 24
-61 0 -9 6 -11 18 -6 9 4 38 10 65 12 40 5 47 9 47 27 0 12 7 32 17 45 15 23
15 25 -2 37 -21 16 -25 16 -75 3z m25 -51 c-9 -40 -4 -34 -42 -42 -29 -7 -32
-5 -38 23 -9 42 0 51 46 51 41 0 41 0 34 -32z"/>
</g>
<g id="part-1" class="char-part">
  <path d="M210 554 c0 -21 46 -84 62 -84 19 0 25 34 10 56 -14 22 -72 44 -72
28z"/>
  <path d="M203 441 c-61 -9 -115 -19 -119 -23 -17 -18 59 -20 151 -4 55 9 110
16 123 16 12 0 22 4 22 9 0 9 -36 22 -55 20 -5 -1 -60 -9 -122 -18z"/>
</g>
<g id="part-2" class="char-part">
  <path d="M260 220 c-14 -4 -47 -8 -74 -9 -40 -1 -46 -3 -37 -15 6 -8 17 -33
24 -57 7 -24 17 -44 22 -44 6 1 36 5 68 9 49 7 57 11 57 30 0 12 7 32 17 45
15 23 15 25 -2 37 -21 15 -37 16 -75 4z m23 -52 c-7 -40 -3 -36 -37 -40 -24
-2 -30 2 -39 26 -11 34 1 46 50 46 31 0 32 -1 26 -32z"/>
</g>
<g id="part-3" class="char-part">
  <path d="M464 535 c-14 -37 -17 -55 -10 -55 15 0 86 72 86 87 0 9 -31 23 -50
23 -3 0 -15 -25 -26 -55z"/>
</g>
<g id="part-4" class="char-part">
  <path d="M516 248 c-27 -33 -75 -81 -107 -106 -32 -26 -56 -48 -54 -50 1 -2
25 8 53 22 50 25 182 158 182 183 0 27 -27 10 -74 -49z"/>
</g>
<g id="part-5" class="char-part">
  <path d="M632 261 c16 -25 31 -27 26 -4 -2 10 -11 19 -21 21 -16 3 -17 1 -5
-17z"/>
</g>
</g>
</svg>