<?xml version="1.0" standalone="no"?>
<!DOCTYPE svg PUBLIC "-//W3C//DTD SVG 20010904//EN"
 "http://www.w3.org/TR/2001/REC-SVG-20010904/DTD/svg10.dtd">
<svg version="1.0" xmlns="http://www.w3.org/2000/svg"
 width="96.000000pt" height="68.000000pt" viewBox="0 0 96.000000 68.000000"
 preserveAspectRatio="xMidYMid meet">
<metadata>
Created by potrace 1.16, written by Peter Selinger 2001-2019
Combined from part_0.svg through part_5.svg with named groups
</metadata>
<g transform="translate(0.000000,68.000000) scale(0.100000,-0.100000)" fill="#000000" stroke="none">
<g id="part-0" class="char-part">
  <path d="M520 547 c0 -19 -50 -119 -72 -143 -30 -33 -5 -37 31 -5 28 25 41 29
129 35 106 7 142 14 142 27 0 14 -87 10 -155 -6 -32 -8 -61 -13 -63 -11 -2 2
8 22 22 44 24 38 24 41 7 56 -21 19 -41 21 -41 3z"/>
  <path d="M220 483 c-57 -7 -107 -16 -110 -19 -3 -3 4 -12 15 -20 18 -14 20
-26 20 -147 0 -82 -5 -145 -13 -166 -10 -29 -10 -37 2 -49 12 -12 23 -13 60
-3 25 6 83 11 130 11 47 0 86 4 86 8 0 22 -40 44 -74 40 -19 -1 -35 0 -36 5 0
4 0 27 0 52 l0 45 40 0 c35 0 40 2 32 16 -9 17 6 64 21 64 4 0 7 9 7 19 0 21
-40 36 -71 26 -18 -6 -19 -2 -17 44 l3 51 47 0 c26 0 49 4 53 9 5 9 -58 32
-80 30 -5 -1 -57 -8 -115 -16z m50 -83 c0 -41 -3 -50 -17 -50 -10 0 -28 -3
-40 -6 -20 -6 -23 -3 -23 24 0 55 16 82 50 82 29 0 30 -1 30 -50z m62 -95 c-5
-41 -9 -44 -80 -51 l-62 -7 0 41 0 41 48 4 c91 7 97 6 94 -28z m-74 -132 l3
-53 -35 0 -36 0 0 56 0 55 33 -3 c31 -3 32 -4 35 -55z"/>
  <path d="M595 379 c-22 -6 -57 -8 -77 -5 -23 4 -38 2 -38 -4 0 -5 4 -10 8 -10
5 0 16 -25 26 -55 l17 -54 47 5 c90 12 117 20 117 34 0 8 6 30 14 48 7 18 11
35 8 38 -11 11 -83 13 -122 3z m60 -19 c4 -6 4 -23 0 -39 -5 -25 -12 -29 -52
-35 -52 -7 -63 1 -63 46 0 28 -3 27 92 36 9 1 20 -3 23 -8z"/>
  <path d="M720 220 c-14 -4 -49 -8 -78 -9 l-53 -1 19 -27 c10 -16 22 -45 25
-67 3 -21 8 -40 9 -42 2 -1 21 1 43 6 22 5 55 10 73 10 27 0 32 3 28 18 -3 10
3 35 13 55 19 37 19 37 -2 52 -23 16 -39 17 -77 5z m20 -52 c0 -42 -9 -55 -41
-63 -23 -6 -28 -3 -38 26 -20 57 -14 63 57 68 19 1 22 -4 22 -31z"/>
  <path d="M500 200 c-8 -5 -39 -10 -69 -10 -46 0 -52 -2 -38 -12 9 -7 18 -24
21 -38 2 -14 9 -38 15 -53 9 -24 14 -26 30 -17 11 5 38 10 60 10 40 0 41 1 41
34 0 19 5 38 10 41 6 3 10 14 10 25 0 28 -49 40 -80 20z m20 -54 c0 -19 -4
-38 -10 -41 -10 -6 -50 -16 -50 -12 0 1 -4 17 -9 35 -9 29 -7 34 12 42 44 18
57 12 57 -24z"/>
</g>
<g id="part-1" class="char-part">
  <path d="M205 477 c-88 -10 -97 -14 -75 -27 12 -7 15 -37 15 -147 0 -76 -4
-157 -8 -179 -10 -48 5 -61 51 -42 15 6 69 11 120 12 50 0 92 3 92 7 0 22 -34
31 -92 25 -35 -4 -76 -8 -93 -9 l-30 -2 4 165 c2 91 5 166 6 168 1 2 40 5 86
8 109 6 138 12 118 25 -17 11 -87 10 -194 -4z"/>
</g>
<g id="part-2" class="char-part">
  <path d="M275 231 c-18 -5 -19 -12 -15 -59 5 -49 6 -52 23 -40 14 11 18 24 15
59 -3 40 -5 44 -23 40z"/>
</g>
<g id="part-3" class="char-part">
  <path d="M511 522 c-6 -20 -23 -57 -39 -82 -15 -25 -31 -51 -36 -57 -13 -23
12 -14 46 16 29 25 44 29 123 35 112 9 164 19 147 30 -18 11 -80 9 -132 -3
-25 -6 -55 -11 -68 -11 l-22 0 25 41 c21 32 24 43 14 55 -22 27 -48 17 -58
-24z"/>
</g>
<g id="part-4" class="char-part">
  <path d="M595 379 c-22 -6 -56 -8 -76 -6 l-37 5 14 -27 c8 -14 17 -41 20 -59
3 -18 9 -34 13 -36 3 -2 42 2 86 8 59 8 80 15 80 26 0 8 6 30 14 48 7 18 11
35 8 38 -11 11 -83 13 -122 3z m65 -32 c0 -38 -21 -56 -70 -59 l-45 -3 -3 37
c-3 35 -1 37 30 41 80 10 88 8 88 -16z"/>
</g>
<g id="part-5" class="char-part">
  <path d="M710 211 c-12 -8 -8 -11 16 -11 l31 0 -11 -41 c-8 -33 -8 -42 4 -49
13 -8 13 -10 1 -10 -8 0 -12 -2 -9 -5 3 -3 12 -3 21 1 11 4 14 15 11 36 -2 17
-1 28 3 24 3 -3 13 3 21 15 9 13 11 24 5 30 -15 15 -76 21 -93 10z"/>
  <path d="M609 193 c6 -13 16 -23 20 -23 13 0 22 29 11 35 -6 4 -10 1 -10 -6 0
-8 -5 -7 -17 2 -15 13 -15 12 -4 -8z"/>
  <path d="M637 147 c-7 -19 8 -67 20 -66 5 0 17 4 28 9 17 8 16 9 -9 9 -18 1
-26 5 -23 14 2 6 1 21 -3 31 -6 18 -7 18 -13 3z"/>
</g>
</g>
</svg>