<?xml version="1.0" standalone="no"?>
<!DOCTYPE svg PUBLIC "-//W3C//DTD SVG 20010904//EN"
 "http://www.w3.org/TR/2001/REC-SVG-20010904/DTD/svg10.dtd">
<svg version="1.0" xmlns="http://www.w3.org/2000/svg"
 width="96.000000pt" height="68.000000pt" viewBox="0 0 96.000000 68.000000"
 preserveAspectRatio="xMidYMid meet">
<metadata>
Created by potrace 1.16, written by Peter Selinger 2001-2019
Combined from part_0.svg through part_5.svg with named groups
</metadata>
<g transform="translate(0.000000,68.000000) scale(0.100000,-0.100000)" fill="#000000" stroke="none">
<g id="part-0" class="char-part">
  <path d="M366 621 c-3 -4 -1 -13 5 -21 15 -25 11 -27 -71 -34 -44 -4 -78 -12
-75 -17 3 -5 39 -6 80 -2 63 5 75 4 75 -9 0 -16 -45 -28 -107 -28 -18 0 -33
-5 -33 -10 0 -7 23 -8 66 -4 60 6 66 5 63 -11 -2 -10 -12 -19 -22 -21 -81 -12
-157 -28 -157 -35 0 -9 26 -19 51 -19 13 0 18 4 13 12 -4 7 -3 8 4 4 6 -4 28
0 48 9 43 18 44 18 44 6 0 -6 -13 -18 -30 -28 -36 -21 -37 -27 -5 -41 15 -7
25 -8 25 -2 0 6 -8 10 -17 10 -10 0 1 10 25 21 54 27 72 62 75 146 2 64 1 66
-25 74 -16 4 -30 4 -32 0z"/>
  <path d="M527 523 c3 -54 8 -100 10 -103 3 -3 11 3 18 13 10 14 31 20 82 23
37 2 79 7 93 10 21 5 23 7 8 15 -11 6 -40 6 -80 -1 -89 -14 -98 -13 -98 10 0
17 7 20 43 21 23 0 60 4 82 8 64 13 17 24 -54 13 -59 -8 -61 -8 -61 13 0 21 5
23 70 27 41 2 75 9 82 17 11 11 5 13 -37 8 -27 -3 -65 -9 -82 -13 -29 -6 -33
-4 -33 15 0 16 -6 21 -25 21 l-24 0 6 -97z"/>
  <path d="M446 453 c-3 -4 -6 -19 -6 -35 0 -24 -4 -28 -30 -28 -38 0 -40 -18
-3 -22 16 -2 29 -10 31 -19 3 -18 -40 -29 -115 -29 -44 0 -53 -9 -29 -29 8 -6
17 -32 21 -56 l6 -45 65 0 c48 0 65 -3 62 -12 -5 -14 -63 -23 -211 -33 -93 -7
-117 -17 -61 -28 15 -3 79 1 142 9 64 7 119 11 124 8 4 -3 8 -34 8 -70 0 -35
4 -64 9 -64 10 0 16 22 26 92 5 35 12 48 24 49 9 0 77 0 153 -1 136 -1 171 7
127 30 -21 12 -165 8 -261 -6 -34 -5 -38 -3 -38 16 0 20 4 22 60 18 66 -3 69
-1 105 80 17 41 17 43 1 55 -13 9 -41 12 -92 9 -60 -3 -74 -1 -74 11 0 14 46
27 103 27 15 0 27 5 27 10 0 6 -26 10 -59 10 -53 0 -60 2 -63 21 -3 21 -40 44
-52 32z m154 -153 c0 -18 -7 -20 -55 -20 -48 0 -55 2 -55 20 0 18 7 20 55 20
48 0 55 -2 55 -20z m-157 -9 c-3 -13 -17 -20 -51 -25 -49 -7 -68 3 -59 28 5
12 21 16 61 16 48 0 54 -2 49 -19z m150 -51 c-4 -17 -14 -20 -54 -20 -42 0
-49 3 -49 20 0 18 7 20 54 20 49 0 54 -2 49 -20z m-153 -10 c0 -17 -7 -20 -45
-20 -38 0 -45 3 -45 20 0 17 7 20 45 20 38 0 45 -3 45 -20z"/>
</g>
<g id="part-1" class="char-part">
  <path d="M375 611 c11 -19 13 -77 3 -115 -5 -22 -25 -55 -43 -73 -37 -37 -27
-43 22 -13 41 24 51 45 62 122 8 53 7 65 -7 76 -18 14 -46 16 -37 3z"/>
</g>
<g id="part-2" class="char-part">
  <path d="M530 465 c0 -48 12 -58 30 -25 9 18 21 20 95 20 46 0 86 4 90 9 10
17 -28 21 -90 11 -88 -15 -98 -13 -92 10 4 15 0 20 -14 20 -16 0 -19 -7 -19
-45z"/>
</g>
<g id="part-3" class="char-part">
  <path d="M440 425 c0 -37 -4 -39 -100 -48 -19 -2 -5 -5 31 -5 58 -2 67 -5 72
-22 7 -26 47 -27 47 -1 0 19 34 31 91 31 31 0 51 19 22 21 -10 1 -37 1 -60 -1
-37 -2 -43 1 -43 19 0 19 -26 41 -49 41 -6 0 -11 -16 -11 -35z"/>
</g>
<g id="part-4" class="char-part">
  <path d="M590 347 c-3 -3 -75 -11 -162 -18 l-156 -12 18 -26 c10 -14 24 -46
30 -69 9 -35 15 -42 28 -37 9 3 73 8 141 10 l124 4 32 60 c25 47 30 63 20 71
-14 12 -68 24 -75 17z m10 -47 c0 -18 -7 -20 -55 -20 -48 0 -55 2 -55 20 0 18
7 20 55 20 48 0 55 -2 55 -20z m-157 -9 c-3 -13 -17 -20 -50 -25 -52 -7 -63
-3 -63 25 0 17 7 19 59 19 53 0 59 -2 54 -19z m147 -51 c0 -17 -7 -20 -50 -20
-43 0 -50 3 -50 20 0 17 7 20 50 20 43 0 50 -3 50 -20z m-150 -10 c0 -17 -7
-20 -45 -20 -38 0 -45 3 -45 20 0 17 7 20 45 20 38 0 45 -3 45 -20z"/>
</g>
<g id="part-5" class="char-part">
  <path d="M457 176 c-8 -9 -22 -16 -31 -16 -8 0 -18 -5 -22 -11 -5 -9 1 -10 20
-5 24 6 26 4 28 -26 1 -18 1 -46 0 -61 -2 -19 2 -27 10 -25 15 5 30 126 18
146 -5 11 -10 11 -23 -2z"/>
  <path d="M670 172 c-122 -5 -107 -21 18 -21 62 1 112 2 112 4 0 11 -66 20
-130 17z"/>
  <path d="M538 153 c7 -3 16 -2 19 1 4 3 -2 6 -13 5 -11 0 -14 -3 -6 -6z"/>
  <path d="M298 144 c-3 -3 -38 -6 -77 -6 -38 -1 -68 -4 -66 -8 8 -13 119 -8
145 6 14 7 20 13 14 14 -6 0 -13 -2 -16 -6z"/>
  <path d="M343 143 c9 -2 23 -2 30 0 6 3 -1 5 -18 5 -16 0 -22 -2 -12 -5z"/>
</g>
</g>
</svg>