<?xml version="1.0" standalone="no"?>
<!DOCTYPE svg PUBLIC "-//W3C//DTD SVG 20010904//EN"
 "http://www.w3.org/TR/2001/REC-SVG-20010904/DTD/svg10.dtd">
<svg version="1.0" xmlns="http://www.w3.org/2000/svg"
 width="96.000000pt" height="68.000000pt" viewBox="0 0 96.000000 68.000000"
 preserveAspectRatio="xMidYMid meet">
<metadata>
Created by potrace 1.16, written by Peter Selinger 2001-2019
Combined from part_0.svg through part_5.svg with named groups
</metadata>
<g transform="translate(0.000000,68.000000) scale(0.100000,-0.100000)" fill="#000000" stroke="none">
<g id="part-0" class="char-part">
  <path d="M620 554 c-36 -7 -100 -13 -142 -13 -43 -1 -78 -4 -78 -7 0 -3 6 -12
14 -19 8 -8 20 -46 27 -85 l12 -70 49 0 c40 0 48 -3 48 -19 0 -24 -19 -31 -78
-31 -57 0 -92 -9 -92 -23 0 -6 25 -8 70 -4 39 3 70 3 70 0 0 -13 -125 -125
-166 -149 -64 -38 -46 -42 28 -7 37 17 83 50 111 78 57 59 63 51 53 -69 -6
-73 -5 -84 10 -90 28 -11 34 13 31 112 -1 52 0 95 4 98 4 2 29 -22 55 -54 74
-88 81 -92 138 -92 28 0 57 4 65 9 15 10 -2 19 -92 52 -40 14 -148 95 -154
116 -3 8 25 12 91 15 90 3 118 10 102 25 -8 8 -56 9 -145 3 -62 -5 -64 -4 -66
19 -2 22 0 23 52 19 32 -3 57 0 61 6 5 6 19 40 32 76 12 36 27 70 32 77 6 8 3
15 -9 21 -35 18 -68 19 -133 6z m70 -49 l0 -35 -50 0 c-49 0 -50 1 -50 29 0
33 9 39 63 40 36 1 37 0 37 -34z m-142 -16 c3 -25 0 -27 -38 -31 -46 -4 -44
-5 -54 35 -7 28 -7 28 41 25 43 -3 48 -5 51 -29z m132 -48 c0 -30 -14 -41 -55
-41 -36 0 -43 3 -40 18 2 9 4 20 4 25 1 10 91 9 91 -2z m-132 -28 c-2 -23 -8
-29 -35 -31 -18 -2 -33 0 -33 5 0 4 -3 18 -6 31 -6 20 -3 22 35 22 40 0 42 -1
39 -27z"/>
  <path d="M250 544 c-28 -9 -61 -13 -87 -9 -48 7 -49 5 -28 -33 8 -15 19 -46
25 -70 11 -42 12 -43 42 -37 21 5 33 3 39 -6 11 -17 12 -189 2 -189 -5 0 -18
-3 -30 -6 -22 -6 -23 -4 -23 64 0 67 -7 82 -37 82 -3 0 -2 -36 1 -80 l7 -80
-40 0 c-45 0 -50 -6 -23 -26 22 -17 56 -17 90 0 15 7 63 24 107 36 81 22 116
40 79 40 -10 0 -34 -4 -52 -9 l-33 -10 3 52 c3 50 4 52 33 55 49 6 54 22 6 22
-35 0 -42 3 -37 16 3 9 6 24 6 35 0 12 7 19 19 19 14 0 20 9 24 33 2 17 11 47
18 65 12 28 12 34 -1 42 -20 13 -56 11 -110 -6z m50 -53 c0 -35 -17 -50 -63
-58 -30 -4 -35 -2 -40 18 -13 47 -8 58 26 62 76 9 77 9 77 -22z"/>
</g>
<g id="part-1" class="char-part">
  <path d="M270 543 c-25 -8 -68 -12 -97 -10 -29 2 -53 0 -53 -5 0 -4 4 -8 9 -8
5 0 15 -17 21 -37 28 -91 28 -91 68 -82 20 4 54 11 75 14 20 3 37 11 37 17 0
7 10 31 21 56 30 61 0 82 -81 55z m32 -54 c-4 -41 -25 -59 -68 -59 -28 0 -34
5 -44 36 -7 19 -10 37 -8 39 5 6 101 23 113 20 6 -1 9 -17 7 -36z"/>
</g>
<g id="part-2" class="char-part">
  <path d="M250 204 c-52 -13 -112 -24 -133 -24 -44 0 -47 -19 -5 -34 20 -7 53
0 145 29 179 59 175 75 -7 29z"/>
</g>
<g id="part-3" class="char-part">
  <path d="M605 555 c-38 -8 -100 -14 -137 -14 -38 -1 -68 -5 -68 -10 0 -5 4
-11 10 -13 5 -1 18 -39 28 -83 12 -52 23 -79 31 -77 7 1 60 4 118 7 58 2 109
7 113 12 4 4 17 37 30 73 12 36 26 70 31 76 26 32 -59 48 -156 29z m85 -50 l0
-35 -50 0 c-49 0 -50 1 -50 29 0 33 9 39 63 40 36 1 37 0 37 -34z m-145 -5 c9
-28 0 -37 -41 -42 -39 -5 -38 -5 -48 35 -6 26 -5 27 38 27 36 0 46 -4 51 -20z
m135 -47 c-1 -40 -14 -53 -51 -53 -35 0 -39 3 -39 24 0 21 5 25 38 29 20 2 40
4 45 5 4 1 7 -1 7 -5z m-130 -37 c0 -13 -7 -27 -16 -30 -22 -8 -54 -8 -54 2 0
4 -3 17 -6 30 -6 20 -3 22 35 22 37 0 41 -3 41 -24z"/>
</g>
<g id="part-4" class="char-part">
  <path d="M563 363 c-7 -3 -13 -13 -13 -23 0 -20 -15 -25 -117 -35 -40 -5 -61
-11 -57 -17 4 -7 32 -8 76 -4 l70 6 -22 -30 c-25 -34 -119 -114 -163 -136 -16
-9 -26 -18 -23 -21 12 -12 137 60 180 102 24 25 48 45 52 45 4 0 5 -42 2 -92
-6 -101 -4 -118 18 -118 20 0 26 36 22 134 -2 47 -1 86 2 86 3 0 36 -34 73
-75 67 -73 69 -75 115 -74 87 1 91 12 16 44 -79 33 -136 69 -178 114 l-30 31
70 1 c38 0 89 4 114 8 l45 8 -29 12 c-27 11 -108 9 -173 -5 -18 -3 -23 0 -23
15 0 22 -9 30 -27 24z"/>
</g>
</g>
</svg>