<?xml version="1.0" standalone="no"?>
<!DOCTYPE svg PUBLIC "-//W3C//DTD SVG 20010904//EN"
 "http://www.w3.org/TR/2001/REC-SVG-20010904/DTD/svg10.dtd">
<svg version="1.0" xmlns="http://www.w3.org/2000/svg"
 width="96.000000pt" height="68.000000pt" viewBox="0 0 96.000000 68.000000"
 preserveAspectRatio="xMidYMid meet">
<metadata>
Created by potrace 1.16, written by Peter Selinger 2001-2019
Combined from part_0.svg through part_5.svg with named groups
</metadata>
<g transform="translate(0.000000,68.000000) scale(0.100000,-0.100000)" fill="#000000" stroke="none">
<g id="part-0" class="char-part">
  <path d="M576 568 c-3 -7 -7 -26 -11 -43 -9 -41 -54 -134 -83 -173 -31 -41
-25 -50 11 -16 15 14 32 22 38 18 14 -8 4 -148 -15 -214 -15 -50 -6 -90 19
-90 10 0 17 14 21 40 4 22 10 42 13 44 4 3 65 8 136 11 72 4 134 10 139 12 19
12 -23 23 -79 21 l-60 -2 0 30 c0 27 4 30 48 38 64 13 61 30 -3 22 -48 -6 -50
-6 -50 18 0 27 16 36 66 36 52 0 41 18 -13 22 -43 3 -48 5 -48 28 0 20 6 25
40 32 77 15 86 19 79 29 -7 12 -49 9 -181 -14 -46 -8 -83 -11 -83 -7 0 5 16
36 35 70 41 72 41 76 16 90 -25 13 -31 13 -35 -2z m68 -184 c9 -3 16 -16 16
-29 0 -17 -7 -24 -31 -29 -53 -10 -59 -8 -59 23 0 34 34 50 74 35z m16 -105
c0 -26 -3 -29 -35 -29 -19 0 -38 0 -42 0 -5 0 -9 10 -11 24 -3 25 4 28 66 32
18 2 22 -3 22 -27z m0 -84 c0 -35 0 -35 -43 -35 -53 0 -55 2 -49 40 4 28 7 30
48 30 44 0 44 0 44 -35z"/>
  <path d="M344 534 c3 -9 6 -92 6 -185 0 -156 2 -171 20 -189 22 -22 66 -26
105 -8 29 13 31 25 11 62 l-13 27 -7 -31 c-5 -29 -8 -31 -43 -28 l-38 3 0 65
0 65 48 30 c27 17 46 36 44 45 -3 19 -47 27 -47 8 0 -18 -30 -59 -39 -54 -4 3
-3 46 2 97 10 97 6 108 -37 109 -12 0 -16 -5 -12 -16z"/>
  <path d="M209 360 c3 -146 3 -150 -18 -150 -19 0 -20 7 -23 93 -3 84 -5 92
-23 95 -20 3 -21 -2 -20 -105 0 -105 -1 -108 -22 -111 -34 -5 -28 -20 10 -27
27 -5 47 1 101 29 37 20 77 43 89 52 21 15 21 16 -10 9 l-33 -7 0 52 c0 52 1
53 53 64 41 9 32 26 -14 26 l-41 0 4 63 3 62 -30 3 -30 3 4 -151z"/>
  <path d="M640 492 c0 -18 33 -52 51 -52 39 0 11 50 -32 57 -10 2 -19 -1 -19
-5z"/>
</g>
<g id="part-1" class="char-part">
  <path d="M203 488 c3 -13 9 -78 13 -146 4 -83 10 -122 18 -119 6 2 12 17 14
33 7 85 11 93 47 100 41 7 37 24 -6 24 -29 0 -29 0 -29 59 0 60 -7 71 -47 71
-11 0 -14 -7 -10 -22z"/>
</g>
<g id="part-2" class="char-part">
  <path d="M185 210 l-109 -37 26 -17 c27 -18 28 -17 105 25 149 81 146 86 -22
29z"/>
</g>
<g id="part-3" class="char-part">
  <path d="M348 366 c3 -178 4 -192 24 -209 35 -29 128 -17 128 17 0 8 -7 27
-15 42 -12 24 -15 26 -15 9 0 -27 -18 -45 -45 -45 -33 0 -45 20 -45 73 0 51
-2 48 74 110 17 14 26 29 22 35 -14 23 -41 12 -64 -26 l-22 -37 2 104 c3 104
3 104 -22 111 l-25 7 3 -191z"/>
</g>
<g id="part-4" class="char-part">
  <path d="M576 568 c-2 -7 -10 -34 -16 -61 -7 -26 -33 -80 -57 -120 -25 -39
-48 -76 -51 -82 -8 -14 39 25 59 49 16 19 17 19 24 -4 9 -28 -3 -160 -19 -215
-14 -45 -6 -85 18 -85 22 0 28 36 31 212 3 166 4 168 34 225 36 67 37 69 12
83 -25 13 -31 13 -35 -2z"/>
</g>
<g id="part-5" class="char-part">
  <path d="M670 275 c0 -19 -7 -27 -32 -35 l-33 -10 33 3 c29 3 32 1 32 -25 0
-15 5 -28 12 -28 6 0 4 -6 -5 -12 -15 -11 -11 -13 30 -15 27 -1 68 0 93 4 39
5 42 6 22 14 -13 5 -40 5 -60 1 -46 -11 -62 -6 -62 19 0 10 -5 19 -11 19 -18
0 2 22 35 36 l31 13 -27 1 c-21 0 -28 5 -28 20 0 11 -7 20 -15 20 -9 0 -15 -9
-15 -25z"/>
  <path d="M760 259 c0 -5 9 -9 20 -9 11 0 20 2 20 4 0 2 -9 6 -20 9 -11 3 -20
1 -20 -4z"/>
  <path d="M610 150 c0 -5 6 -10 14 -10 8 0 18 5 21 10 3 6 -3 10 -14 10 -12 0
-21 -4 -21 -10z"/>
</g>
</g>
</svg>