<?xml version="1.0" standalone="no"?>
<!DOCTYPE svg PUBLIC "-//W3C//DTD SVG 20010904//EN"
 "http://www.w3.org/TR/2001/REC-SVG-20010904/DTD/svg10.dtd">
<svg version="1.0" xmlns="http://www.w3.org/2000/svg"
 width="96.000000pt" height="68.000000pt" viewBox="0 0 96.000000 68.000000"
 preserveAspectRatio="xMidYMid meet">
<metadata>
Created by potrace 1.16, written by Peter Selinger 2001-2019
Combined from part_0.svg through part_5.svg with named groups
</metadata>
<g transform="translate(0.000000,68.000000) scale(0.100000,-0.100000)" fill="#000000" stroke="none">
<g id="part-0" class="char-part">
  <path d="M225 573 c5 -10 10 -48 13 -84 l4 -67 -28 -6 c-16 -3 -46 -8 -66 -12
-21 -3 -38 -10 -38 -14 0 -13 50 -22 81 -15 20 5 29 3 29 -6 0 -19 -48 -99
-92 -152 -22 -27 -38 -51 -35 -54 11 -10 79 40 108 80 l29 40 0 -54 c0 -30 -4
-69 -9 -87 -11 -37 3 -92 23 -92 30 0 36 25 36 149 l0 124 24 -22 c26 -25 46
-21 46 9 0 12 -12 22 -36 30 -45 15 -42 41 6 56 45 15 46 38 2 42 l-33 3 6 64
c6 57 5 64 -13 74 -12 6 -30 11 -42 11 -17 0 -20 -4 -15 -17z"/>
  <path d="M447 506 c-101 -24 -130 -36 -84 -36 l27 0 0 -134 0 -134 -39 -7
c-29 -5 -38 -11 -34 -21 9 -24 62 -15 129 22 35 20 64 32 65 27 0 -4 0 -35 -1
-69 -1 -44 3 -64 14 -73 13 -11 17 -11 20 0 7 20 16 198 16 317 l0 102 25 0
c28 0 34 15 9 24 -23 9 -38 7 -147 -18z m71 -54 c3 -27 -1 -34 -23 -42 -45
-17 -65 -13 -61 13 3 12 5 30 5 39 1 17 23 27 56 25 15 -2 21 -10 23 -35z m0
-94 c-3 -31 -6 -33 -45 -36 -42 -3 -43 -2 -43 27 0 25 5 30 28 34 63 9 63 9
60 -25z m2 -83 c0 -26 -15 -36 -75 -51 -22 -5 -25 -3 -25 19 0 48 9 57 56 57
40 0 44 -2 44 -25z"/>
  <path d="M725 484 c-22 -9 -53 -13 -70 -11 l-30 5 3 -217 c1 -119 5 -223 8
-231 14 -40 25 34 30 212 4 123 10 197 18 204 6 6 26 14 44 17 39 8 41 -5 12
-63 -11 -22 -20 -43 -20 -49 0 -5 16 -25 35 -44 22 -22 35 -45 35 -60 0 -22
-5 -26 -36 -29 l-37 -3 44 -28 c55 -36 73 -28 77 35 3 41 0 48 -36 79 -21 19
-46 39 -56 44 -14 9 -9 18 40 69 42 44 53 61 43 67 -8 5 -19 9 -26 9 -6 0 -17
2 -25 4 -7 3 -31 -2 -53 -10z"/>
</g>
<g id="part-1" class="char-part">
  <path d="M234 503 l1 -88 -57 -9 c-73 -12 -75 -26 -3 -26 30 0 55 -2 55 -5 0
-16 -80 -144 -112 -179 -21 -23 -17 -31 10 -17 19 10 76 71 100 107 10 16 11
7 5 -56 -14 -143 -7 -191 25 -171 8 5 14 50 19 139 5 117 8 130 20 112 17 -24
53 -27 53 -4 0 8 -16 22 -36 30 -46 19 -45 54 4 66 17 5 32 12 32 17 0 13 -28
21 -47 14 -14 -6 -15 1 -11 60 6 69 2 79 -38 91 -20 6 -21 3 -20 -81z"/>
</g>
<g id="part-2" class="char-part">
  <path d="M445 505 c-55 -13 -102 -24 -105 -25 -3 -1 6 -5 20 -9 25 -7 25 -8
28 -134 2 -99 6 -127 16 -127 9 0 16 17 20 44 7 44 8 45 48 48 23 2 43 8 45
14 3 8 -10 10 -42 7 -45 -6 -45 -5 -45 25 0 28 3 30 45 36 25 4 45 12 45 18 0
7 -16 8 -44 4 l-45 -7 6 38 c3 21 7 39 8 40 0 2 37 8 81 14 88 13 95 16 74 29
-21 13 -40 11 -155 -15z"/>
</g>
<g id="part-3" class="char-part">
  <path d="M518 366 l4 -123 -59 -16 c-32 -9 -78 -21 -103 -28 -55 -15 -59 -17
-40 -29 26 -17 64 -10 119 20 30 17 58 30 63 30 4 0 8 -28 8 -62 0 -67 12
-100 29 -83 5 6 13 101 17 213 l7 202 -24 0 -24 0 3 -124z"/>
</g>
<g id="part-4" class="char-part">
  <path d="M624 458 c3 -13 6 -116 6 -230 0 -188 6 -238 24 -192 3 8 8 90 11
182 3 92 8 184 10 205 5 33 2 39 -21 47 -35 14 -37 13 -30 -12z"/>
</g>
</g>
</svg>