<?xml version="1.0" standalone="no"?>
<!DOCTYPE svg PUBLIC "-//W3C//DTD SVG 20010904//EN"
 "http://www.w3.org/TR/2001/REC-SVG-20010904/DTD/svg10.dtd">
<svg version="1.0" xmlns="http://www.w3.org/2000/svg"
 width="96.000000pt" height="68.000000pt" viewBox="0 0 96.000000 68.000000"
 preserveAspectRatio="xMidYMid meet">
<metadata>
Created by potrace 1.16, written by Peter Selinger 2001-2019
Combined from part_0.svg through part_5.svg with named groups
</metadata>
<g transform="translate(0.000000,68.000000) scale(0.100000,-0.100000)" fill="#000000" stroke="none">
<g id="part-0" class="char-part">
  <path d="M270 564 c-135 -20 -151 -24 -145 -35 4 -5 19 -9 36 -9 16 0 29 -3
30 -7 0 -5 2 -18 3 -30 2 -18 -4 -23 -34 -28 -20 -3 -41 -5 -46 -4 -22 4 -24
-2 -10 -23 9 -12 16 -32 16 -44 0 -38 18 -42 123 -29 54 7 105 11 115 9 12 -3
26 9 46 41 15 25 33 44 40 42 16 -5 20 -121 6 -191 -6 -33 -22 -83 -35 -113
-13 -29 -22 -53 -20 -53 11 0 45 36 45 47 0 7 4 13 9 13 13 0 51 147 59 234
l7 79 93 29 c50 17 92 34 92 38 0 4 -13 13 -29 20 -27 11 -34 9 -80 -23 -28
-19 -70 -43 -95 -52 -39 -15 -47 -15 -72 -2 -17 8 -43 12 -62 10 -32 -5 -33
-4 -30 23 2 22 9 30 28 32 34 5 49 20 30 32 -17 11 -10 12 -120 -6z m20 -63
c0 -24 -5 -29 -30 -33 -27 -4 -30 -2 -30 23 0 27 3 29 53 38 4 0 7 -12 7 -28z
m90 -53 c-1 -37 -14 -58 -36 -58 -21 0 -24 5 -24 35 0 32 2 35 30 35 17 0 30
-5 30 -12z m-92 -30 c-2 -28 -7 -33 -28 -33 -21 0 -26 5 -28 33 -3 30 -1 32
28 32 29 0 31 -2 28 -32z m-84 0 c10 -39 7 -48 -18 -48 -24 0 -36 16 -36 51 0
29 46 26 54 -3z"/>
  <path d="M620 447 c0 -2 8 -21 19 -43 10 -21 35 -90 56 -153 21 -62 46 -122
56 -132 18 -18 78 -26 92 -13 3 4 -20 36 -53 72 -44 49 -67 86 -91 146 -35 90
-55 126 -69 126 -6 0 -10 -1 -10 -3z"/>
  <path d="M546 432 c-3 -4 0 -28 5 -53 13 -56 2 -217 -17 -255 -13 -24 -13 -29
0 -42 12 -13 20 -10 62 22 44 34 48 35 65 20 21 -19 41 -11 32 14 -8 21 -50
62 -64 62 -6 0 -5 -9 2 -22 10 -18 8 -24 -7 -35 -39 -29 -42 -20 -36 131 4
138 4 144 -16 155 -11 6 -23 7 -26 3z"/>
  <path d="M238 317 c-32 -6 -58 -14 -58 -19 0 -5 12 -7 28 -4 15 2 53 8 85 11
31 4 57 11 57 16 0 11 -35 10 -112 -4z"/>
  <path d="M290 260 c-25 -4 -80 -11 -122 -15 -43 -3 -78 -10 -78 -15 0 -15 49
-20 92 -11 23 5 46 8 50 5 4 -3 8 -35 8 -71 0 -64 0 -65 -25 -61 -32 7 -32 -2
0 -32 25 -24 26 -24 45 -4 16 15 20 35 21 102 l2 82 31 0 c49 0 106 12 106 21
0 10 -66 10 -130 -1z"/>
  <path d="M330 183 c1 -5 12 -21 25 -38 22 -26 25 -27 31 -11 5 14 1 25 -15 38
-24 19 -41 23 -41 11z"/>
  <path d="M127 134 c-31 -38 -31 -52 0 -36 29 16 56 50 48 61 -10 17 -18 13
-48 -25z"/>
</g>
<g id="part-1" class="char-part">
  <path d="M223 553 c-114 -18 -116 -38 -4 -29 104 9 182 26 176 37 -8 12 -62
10 -172 -8z"/>
</g>
<g id="part-2" class="char-part">
  <path d="M238 159 l4 -72 -34 7 -33 6 31 -30 c32 -32 59 -33 68 -2 3 10 6 49
8 87 3 68 2 70 -22 73 -25 3 -25 3 -22 -69z"/>
  <path d="M330 185 c0 -11 44 -65 52 -65 4 0 8 11 8 23 0 16 -9 28 -25 35 -29
13 -35 14 -35 7z"/>
  <path d="M140 161 c0 -5 -12 -23 -26 -40 -33 -39 -9 -43 35 -5 35 29 40 54 11
54 -11 0 -20 -4 -20 -9z"/>
</g>
<g id="part-3" class="char-part">
  <path d="M591 528 c-25 -18 -69 -42 -99 -54 -30 -12 -49 -25 -43 -28 16 -10
13 -140 -4 -214 -8 -34 -24 -81 -36 -103 -28 -56 -17 -60 20 -8 40 54 60 119
74 242 l11 98 90 28 c49 15 91 32 93 38 3 9 -38 34 -55 33 -4 -1 -27 -15 -51
-32z"/>
</g>
<g id="part-4" class="char-part">
  <path d="M552 393 c14 -52 3 -239 -17 -269 -15 -23 -11 -54 6 -54 12 0 98 63
98 73 1 4 -8 3 -18 -3 -39 -20 -40 -14 -38 138 2 144 2 147 -20 150 -21 3 -21
1 -11 -35z"/>
</g>
<g id="part-5" class="char-part">
  <path d="M653 401 c0 -11 5 -18 9 -15 4 3 5 11 1 19 -7 21 -12 19 -10 -4z"/>
  <path d="M676 331 c-4 -6 -2 -11 3 -11 6 0 11 -14 11 -31 0 -19 4 -28 11 -23
8 4 9 -1 4 -16 -6 -19 -4 -22 10 -16 15 5 16 4 5 -9 -17 -20 26 -111 53 -109
9 1 17 -3 17 -9 0 -8 3 -8 11 0 6 6 18 9 27 6 10 -4 13 -1 10 8 -3 8 -13 13
-22 13 -10 -1 -15 0 -12 3 3 3 -10 24 -29 47 -18 23 -47 68 -63 100 -17 35
-32 54 -36 47z m73 -164 c1 -5 -3 -5 -9 -2 -5 3 -10 16 -9 28 0 21 1 21 9 2 5
-11 9 -24 9 -28z"/>
</g>
</g>
</svg>