<?xml version="1.0" standalone="no"?>
<!DOCTYPE svg PUBLIC "-//W3C//DTD SVG 20010904//EN"
 "http://www.w3.org/TR/2001/REC-SVG-20010904/DTD/svg10.dtd">
<svg version="1.0" xmlns="http://www.w3.org/2000/svg"
 width="96.000000pt" height="68.000000pt" viewBox="0 0 96.000000 68.000000"
 preserveAspectRatio="xMidYMid meet">
<metadata>
Created by potrace 1.16, written by Peter Selinger 2001-2019
Combined from part_0.svg through part_5.svg with named groups
</metadata>
<g transform="translate(0.000000,68.000000) scale(0.100000,-0.100000)" fill="#000000" stroke="none">
<g id="part-0" class="char-part">
  <path d="M325 557 c-77 -12 -142 -22 -145 -24 -13 -10 30 -23 68 -21 l43 3 -3
-45 c-2 -27 -8 -46 -15 -46 -7 -1 -31 -2 -53 -3 -58 -2 -49 -21 10 -21 45 0
50 -2 50 -22 0 -37 -15 -50 -64 -55 -64 -8 -68 -23 -7 -23 28 0 51 -2 51 -5 0
-13 -56 -94 -88 -127 -39 -41 -37 -46 8 -23 33 17 91 86 111 133 11 26 20 32
44 32 17 0 45 4 63 9 17 5 32 7 32 3 0 -16 -23 -90 -38 -121 -15 -32 -17 -33
-59 -27 -24 3 -43 3 -43 1 0 -14 65 -75 79 -75 23 1 54 30 75 70 10 19 30 100
46 180 16 80 32 157 35 172 6 23 3 29 -23 42 -17 9 -32 15 -34 15 -2 -1 -66
-11 -143 -22z m125 -67 c0 -27 -4 -40 -14 -40 -7 0 -35 -3 -61 -7 -46 -6 -47
-6 -36 16 7 12 11 29 10 39 -3 30 0 32 51 32 l50 0 0 -40z m-3 -77 c-3 -10 -8
-29 -11 -43 -5 -23 -11 -25 -61 -28 -52 -3 -55 -2 -55 20 0 37 13 47 70 57 30
5 56 9 58 10 2 0 1 -7 -1 -16z"/>
  <path d="M690 554 c-25 -8 -61 -13 -80 -12 -19 2 -36 0 -37 -4 -2 -5 -3 -115
-3 -245 0 -220 6 -280 27 -260 4 5 12 115 18 245 l10 236 48 15 c64 20 73 9
46 -57 l-21 -51 36 -42 c24 -28 36 -53 36 -72 0 -30 0 -30 -46 -23 l-46 6 53
-36 c58 -39 79 -37 89 7 13 55 -21 118 -82 154 -16 9 -12 17 32 70 27 32 46
63 41 68 -15 15 -76 16 -121 1z"/>
</g>
<g id="part-1" class="char-part">
  <path d="M360 554 c-41 -7 -96 -13 -122 -13 -48 -1 -63 -13 -31 -25 9 -4 64 1
121 10 140 23 139 24 118 -123 -16 -116 -39 -197 -63 -225 -11 -12 -24 -15
-51 -11 l-36 6 36 -38 c36 -38 36 -38 62 -22 41 28 64 85 89 234 13 76 29 148
35 160 17 31 15 38 -13 51 -31 14 -46 14 -145 -4z"/>
</g>
<g id="part-2" class="char-part">
  <path d="M290 477 c0 -48 -11 -57 -72 -57 -15 0 -30 -4 -33 -10 -4 -6 13 -10
44 -10 46 0 51 -2 51 -22 0 -37 -15 -50 -64 -55 -64 -8 -68 -23 -6 -23 l50 0
-21 -41 c-11 -23 -41 -64 -66 -90 -51 -55 -46 -63 13 -20 50 36 68 57 97 112
23 42 26 44 86 54 77 12 81 31 6 27 -49 -3 -55 -2 -55 16 0 42 11 51 71 58 43
5 59 11 59 22 0 12 -10 14 -55 8 l-54 -6 2 37 c2 35 0 38 -25 41 -27 3 -28 1
-28 -41z"/>
</g>
<g id="part-3" class="char-part">
  <path d="M685 553 c-55 -17 -61 -20 -53 -29 3 -3 25 0 47 7 55 16 67 5 46 -45
-27 -63 -14 -76 24 -26 19 25 44 53 55 63 21 17 21 17 2 32 -24 18 -55 18
-121 -2z"/>
</g>
<g id="part-4" class="char-part">
  <path d="M572 296 c3 -237 7 -280 25 -262 6 5 34 496 29 502 -1 1 -14 4 -29 8
l-28 7 3 -255z"/>
</g>
</g>
</svg>