<?xml version="1.0" standalone="no"?>
<!DOCTYPE svg PUBLIC "-//W3C//DTD SVG 20010904//EN"
 "http://www.w3.org/TR/2001/REC-SVG-20010904/DTD/svg10.dtd">
<svg version="1.0" xmlns="http://www.w3.org/2000/svg"
 width="96.000000pt" height="68.000000pt" viewBox="0 0 96.000000 68.000000"
 preserveAspectRatio="xMidYMid meet">
<metadata>
Created by potrace 1.16, written by Peter Selinger 2001-2019
Combined from part_0.svg through part_5.svg with named groups
</metadata>
<g transform="translate(0.000000,68.000000) scale(0.100000,-0.100000)" fill="#000000" stroke="none">
<g id="part-0" class="char-part">
  <path d="M390 628 c0 -7 12 -24 26 -39 l26 -27 -97 -7 c-64 -5 -95 -11 -92
-19 2 -6 18 -12 35 -14 20 -2 33 -10 37 -22 3 -10 17 -35 31 -55 14 -21 23
-40 20 -43 -13 -12 -166 -14 -181 -2 -13 11 -17 7 -30 -24 -9 -21 -18 -51 -22
-68 -9 -47 27 -33 51 20 16 34 24 42 46 42 15 0 60 3 101 6 l74 7 3 -29 c3
-36 -11 -44 -78 -44 l-55 0 1 -73 c2 -92 2 -97 13 -97 13 0 23 28 30 90 6 54
6 55 43 61 21 3 40 4 43 1 3 -3 5 -63 5 -133 0 -118 8 -157 26 -128 5 9 17
138 23 257 1 8 19 12 56 12 l55 0 0 -59 c0 -57 -1 -58 -25 -53 -31 6 -31 0 -1
-33 18 -19 31 -25 45 -20 22 7 26 16 40 110 12 77 3 85 -94 85 -71 0 -71 0
-70 28 0 32 21 38 147 41 l79 2 -16 -30 c-18 -35 -18 -35 58 -20 67 14 72 28
21 60 -35 21 -40 22 -143 10 -58 -6 -112 -11 -119 -11 -7 0 2 20 23 46 40 53
41 59 19 72 -13 7 -2 11 40 16 87 11 67 31 -27 29 -42 -1 -76 1 -76 5 4 23 -5
35 -36 48 -42 17 -55 18 -55 2z m110 -125 c-1 -16 -9 -44 -18 -63 -14 -28 -24
-36 -50 -38 -30 -3 -32 -2 -32 30 0 34 -29 77 -53 79 -38 2 38 18 91 18 61 1
62 1 62 -26z"/>
</g>
<g id="part-1" class="char-part">
  <path d="M413 596 l26 -34 -22 -6 c-12 -3 -38 -6 -58 -6 -20 0 -52 -3 -70 -7
l-34 -7 35 -6 c37 -5 303 15 329 25 14 6 14 8 -2 16 -16 10 -73 6 -119 -7 -14
-4 -18 1 -18 21 0 27 -29 45 -72 45 -20 0 -19 -1 5 -34z"/>
</g>
<g id="part-2" class="char-part">
  <path d="M659 426 c-2 -2 -105 -12 -228 -22 -171 -13 -226 -15 -229 -6 -7 23
-21 11 -42 -35 -22 -51 -23 -84 -2 -91 8 -2 21 15 34 45 l20 49 152 13 c225
19 336 25 336 17 0 -4 -7 -18 -16 -31 -19 -29 -17 -29 59 -14 66 14 72 28 23
58 -29 18 -95 29 -107 17z"/>
</g>
<g id="part-3" class="char-part">
  <path d="M430 384 c-13 -4 -15 -31 -12 -182 2 -97 6 -179 8 -181 17 -17 29 35
35 151 5 73 11 148 14 167 4 23 2 37 -7 42 -14 9 -14 9 -38 3z"/>
</g>
<g id="part-4" class="char-part">
  <path d="M540 329 c-25 -4 -92 -10 -150 -14 l-105 -7 0 -79 c0 -43 4 -81 8
-85 15 -16 30 17 36 78 l6 63 40 6 c44 8 122 12 173 10 l32 -1 0 -61 0 -61
-32 7 -32 7 29 -31 c50 -52 76 -37 86 51 5 35 9 72 11 82 4 27 -45 44 -102 35z"/>
</g>
</g>
</svg>