<?xml version="1.0" standalone="no"?>
<!DOCTYPE svg PUBLIC "-//W3C//DTD SVG 20010904//EN"
 "http://www.w3.org/TR/2001/REC-SVG-20010904/DTD/svg10.dtd">
<svg version="1.0" xmlns="http://www.w3.org/2000/svg"
 width="96.000000pt" height="68.000000pt" viewBox="0 0 96.000000 68.000000"
 preserveAspectRatio="xMidYMid meet">
<metadata>
Created by potrace 1.16, written by Peter Selinger 2001-2019
Combined from part_0.svg through part_5.svg with named groups
</metadata>
<g transform="translate(0.000000,68.000000) scale(0.100000,-0.100000)" fill="#000000" stroke="none">
<g id="part-0" class="char-part">
  <path d="M411 588 c6 -13 20 -32 31 -44 l19 -21 -53 -6 c-93 -12 -154 -8 -168
8 -11 14 -17 9 -42 -36 -36 -67 -37 -99 -3 -99 18 0 29 9 44 38 l20 38 198 21
c109 12 201 18 205 15 4 -4 -4 -20 -17 -34 -14 -15 -25 -30 -25 -33 0 -9 30
-5 91 13 68 19 75 39 27 75 -25 18 -34 19 -127 11 -88 -8 -100 -7 -96 6 9 29
-42 70 -88 70 -26 0 -27 -2 -16 -22z"/>
  <path d="M516 442 c-2 -4 -1 -26 3 -49 l8 -41 -36 -6 c-20 -3 -96 -11 -168
-18 -73 -6 -133 -15 -133 -19 0 -17 46 -20 162 -8 189 19 173 23 176 -42 2
-31 -1 -78 -6 -105 l-8 -49 -42 2 c-23 1 -42 -2 -42 -8 0 -5 3 -9 8 -9 4 0 23
-14 42 -30 42 -36 44 -36 70 -8 18 20 20 35 20 150 l0 128 79 0 c44 0 83 5 86
10 11 18 -48 32 -109 25 l-59 -7 5 31 c4 25 0 36 -16 47 -23 16 -33 17 -40 6z"/>
  <path d="M300 261 c0 -20 48 -76 65 -76 32 0 24 37 -14 62 -36 24 -51 29 -51
14z"/>
</g>
<g id="part-1" class="char-part">
  <path d="M410 599 c0 -6 14 -29 31 -50 l31 -39 -111 0 c-62 0 -112 4 -116 10
-11 18 -20 11 -48 -43 -28 -54 -28 -93 0 -83 8 3 16 6 19 6 2 0 13 18 24 40
19 37 23 40 63 40 23 0 113 7 199 17 87 9 161 14 164 10 3 -3 -3 -21 -15 -40
l-21 -35 67 17 c37 9 68 22 70 28 2 6 -11 23 -28 37 -28 24 -38 27 -78 22
-168 -20 -159 -21 -154 7 4 21 -1 30 -28 46 -37 23 -69 27 -69 10z"/>
</g>
<g id="part-2" class="char-part">
  <path d="M515 440 c-3 -5 -1 -26 4 -47 6 -20 9 -38 7 -40 -2 -2 -81 -11 -175
-21 -94 -9 -171 -20 -171 -24 0 -18 62 -19 193 -4 78 9 146 16 151 16 10 0 2
-176 -9 -203 -7 -16 -15 -18 -52 -12 l-44 6 44 -40 c49 -45 55 -47 83 -27 17
13 20 31 24 148 l5 133 83 3 c45 2 82 7 82 13 0 19 -55 30 -112 24 l-58 -7 0
36 c0 25 -6 38 -19 46 -24 12 -28 13 -36 0z"/>
</g>
<g id="part-3" class="char-part">
  <path d="M305 259 c-9 -13 42 -79 60 -79 19 0 28 16 21 38 -8 23 -73 56 -81
41z"/>
</g>
</g>
</svg>