<?xml version="1.0" standalone="no"?>
<!DOCTYPE svg PUBLIC "-//W3C//DTD SVG 20010904//EN"
 "http://www.w3.org/TR/2001/REC-SVG-20010904/DTD/svg10.dtd">
<svg version="1.0" xmlns="http://www.w3.org/2000/svg"
 width="96.000000pt" height="68.000000pt" viewBox="0 0 96.000000 68.000000"
 preserveAspectRatio="xMidYMid meet">
<metadata>
Created by potrace 1.16, written by Peter Selinger 2001-2019
Combined from part_0.svg through part_5.svg with named groups
</metadata>
<g transform="translate(0.000000,68.000000) scale(0.100000,-0.100000)" fill="#000000" stroke="none">
<g id="part-0" class="char-part">
  <path d="M605 578 c4 -13 9 -53 12 -89 6 -78 15 -72 -144 -91 -57 -7 -103 -16
-103 -20 0 -20 32 -19 219 7 l34 5 -6 -82 c-4 -46 -7 -107 -7 -137 l0 -54 -44
6 -45 6 48 -44 c27 -25 53 -45 58 -45 24 0 35 63 36 206 l2 149 75 3 c96 3
112 8 85 28 -15 12 -35 14 -87 9 l-68 -7 0 31 c0 18 6 47 14 66 14 33 14 35
-11 55 -14 11 -37 20 -51 20 -21 0 -23 -3 -17 -22z"/>
  <path d="M310 549 c-14 -50 -80 -150 -94 -142 -5 4 -6 1 -3 -5 4 -5 -23 -37
-60 -70 -37 -34 -64 -64 -60 -68 10 -11 71 25 129 75 l50 45 -5 -105 c-4 -57
-9 -120 -12 -139 -4 -24 -1 -42 9 -55 14 -19 16 -19 33 -2 25 24 38 283 16
309 -13 14 -9 24 35 83 47 64 57 100 29 103 -7 0 -22 4 -34 7 -19 6 -23 2 -33
-36z"/>
  <path d="M420 306 c0 -18 60 -86 76 -86 20 0 28 24 15 47 -12 24 -91 57 -91
39z"/>
</g>
<g id="part-1" class="char-part">
  <path d="M314 545 c-8 -43 -55 -107 -148 -202 -39 -40 -67 -73 -63 -73 17 0
74 35 116 71 25 21 49 35 54 32 10 -6 0 -169 -14 -215 -10 -35 4 -78 26 -78
19 0 23 20 30 177 5 114 4 133 -10 140 -13 8 -8 19 35 76 27 36 50 71 50 76 0
12 -33 31 -54 31 -9 0 -18 -13 -22 -35z"/>
</g>
<g id="part-2" class="char-part">
  <path d="M605 578 c4 -13 9 -53 12 -90 6 -78 18 -70 -132 -88 -49 -6 -101 -13
-115 -17 l-25 -5 24 -9 c22 -9 106 -2 220 17 l33 5 -7 -128 c-4 -70 -11 -132
-16 -137 -5 -6 -23 -5 -46 2 -20 6 -38 10 -39 9 -2 -1 22 -24 52 -51 53 -46
56 -48 74 -31 18 16 20 35 22 179 l3 161 75 3 c96 3 112 8 85 28 -15 11 -36
13 -87 8 l-68 -7 0 32 c0 17 7 48 15 68 8 20 14 37 13 38 -2 1 -14 9 -28 18
-13 9 -35 17 -48 17 -21 0 -23 -3 -17 -22z"/>
</g>
<g id="part-3" class="char-part">
  <path d="M420 307 c0 -22 60 -87 81 -87 22 0 26 28 7 53 -19 24 -88 51 -88 34z"/>
</g>
</g>
</svg>