<?xml version="1.0" standalone="no"?>
<!DOCTYPE svg PUBLIC "-//W3C//DTD SVG 20010904//EN"
 "http://www.w3.org/TR/2001/REC-SVG-20010904/DTD/svg10.dtd">
<svg version="1.0" xmlns="http://www.w3.org/2000/svg"
 width="96.000000pt" height="68.000000pt" viewBox="0 0 96.000000 68.000000"
 preserveAspectRatio="xMidYMid meet">
<metadata>
Created by potrace 1.16, written by Peter Selinger 2001-2019
Combined from part_0.svg through part_5.svg with named groups
</metadata>
<g transform="translate(0.000000,68.000000) scale(0.100000,-0.100000)" fill="#000000" stroke="none">
<g id="part-0" class="char-part">
  <path d="M521 594 c-7 -20 -29 -54 -48 -75 -20 -22 -34 -42 -31 -45 10 -9 55
15 84 45 27 29 34 31 99 31 76 0 115 7 115 21 0 16 -46 21 -99 11 -45 -8 -51
-7 -46 6 7 20 -13 42 -39 42 -16 0 -25 -10 -35 -36z"/>
  <path d="M290 605 c0 -25 -28 -72 -67 -116 -20 -22 -33 -42 -30 -45 9 -9 60
22 91 55 27 28 35 31 95 31 36 0 73 5 81 10 26 17 -9 31 -63 24 -42 -5 -46 -4
-40 12 4 11 0 22 -12 30 -25 19 -55 18 -55 -1z"/>
  <path d="M570 521 c0 -13 66 -61 83 -61 16 0 30 27 22 41 -6 8 -70 29 -92 29
-7 0 -13 -4 -13 -9z"/>
  <path d="M343 485 c32 -28 52 -32 61 -10 7 18 -23 35 -61 35 l-28 -1 28 -24z"/>
  <path d="M506 453 c-5 -5 -68 -11 -132 -12 l-60 -1 6 -52 c4 -29 8 -54 9 -55
0 -2 1 -24 1 -49 l0 -46 33 8 c61 13 207 20 211 9 2 -7 10 -6 22 1 16 9 20 25
22 94 2 50 -1 87 -8 94 -9 9 -96 17 -104 9z m54 -37 c0 -14 -17 -17 -142 -32
-54 -6 -58 -5 -58 14 0 19 7 21 63 25 137 7 137 7 137 -7z m6 -47 c12 -21 -12
-28 -110 -35 -93 -7 -98 -6 -94 12 3 16 15 20 68 25 110 10 129 9 136 -2z m-6
-64 c0 -16 -34 -23 -130 -27 -54 -3 -65 0 -68 14 -3 18 21 23 141 26 44 2 57
-1 57 -13z"/>
  <path d="M540 216 c0 -27 -128 -37 -149 -12 -18 22 -38 20 -44 -4 -4 -17 -14
-20 -59 -21 -75 -1 -166 -14 -148 -21 40 -16 56 -17 127 -8 42 6 78 8 80 6 12
-12 -34 -71 -75 -98 l-47 -30 35 6 c44 8 78 33 107 77 38 58 41 59 107 59 l64
0 4 -74 c6 -119 31 -116 43 6 l7 68 114 0 c112 0 129 5 99 30 -11 10 -39 11
-106 6 -74 -6 -92 -4 -105 9 -19 19 -54 20 -54 1z"/>
</g>
<g id="part-1" class="char-part">
  <path d="M537 623 c-4 -3 -7 -13 -7 -22 0 -9 -18 -40 -40 -68 -22 -29 -36 -53
-31 -53 5 0 30 16 55 35 34 26 56 35 85 35 56 0 131 12 131 20 0 16 -32 19
-86 9 -60 -11 -74 -8 -56 14 9 11 6 16 -14 25 -29 14 -29 14 -37 5z"/>
  <path d="M294 593 c-12 -36 -27 -61 -60 -98 -19 -21 -34 -40 -34 -42 0 -11 24
2 68 37 39 32 58 40 90 40 55 0 102 10 102 23 0 6 -24 8 -66 4 -64 -6 -66 -6
-50 11 12 14 13 21 4 30 -18 18 -48 15 -54 -5z"/>
  <path d="M603 495 c32 -28 67 -33 67 -10 0 17 -39 35 -73 35 -21 -1 -21 -2 6
-25z"/>
  <path d="M344 491 c19 -21 56 -29 56 -12 0 12 -8 16 -45 25 -29 7 -29 7 -11
-13z"/>
</g>
<g id="part-2" class="char-part">
  <path d="M485 450 c-27 -5 -78 -9 -113 -9 -55 -1 -63 -3 -58 -18 2 -10 7 -44
11 -75 4 -39 11 -58 20 -58 7 0 15 4 17 9 4 12 198 30 198 19 0 -4 14 -8 30
-8 l30 0 0 65 c0 61 -2 66 -26 75 -28 11 -36 11 -109 0z m75 -38 c0 -14 -8
-18 -32 -18 -18 0 -64 -3 -101 -8 -64 -7 -69 -6 -65 11 3 19 47 28 151 31 39
2 47 -1 47 -16z m7 -47 c3 -9 4 -17 2 -20 -2 -2 -51 -6 -107 -10 -99 -7 -104
-7 -100 11 3 16 15 20 73 25 123 10 125 10 132 -6z"/>
</g>
<g id="part-3" class="char-part">
  <path d="M565 298 c-3 -8 -26 -14 -53 -15 -26 -2 -68 -6 -93 -9 -29 -3 -49 -1
-54 5 -12 21 -35 11 -35 -15 0 -21 3 -25 18 -19 9 4 71 9 136 10 97 3 121 6
128 19 5 9 6 21 3 26 -9 14 -45 12 -50 -2z"/>
</g>
<g id="part-4" class="char-part">
  <path d="M540 216 c0 -8 -7 -17 -16 -20 -30 -11 -119 -5 -138 9 -27 20 -36 19
-36 -5 0 -18 -7 -20 -57 -21 -80 -1 -171 -14 -153 -21 36 -14 65 -16 131 -6
39 5 73 7 76 5 12 -13 -33 -71 -75 -98 -41 -26 -43 -29 -20 -29 33 0 87 37
115 80 38 59 40 60 108 60 61 0 65 -2 65 -22 2 -64 8 -129 14 -135 13 -14 25
14 27 67 5 96 -3 90 125 90 113 0 136 8 92 31 -14 8 -48 9 -105 5 -68 -6 -86
-4 -99 8 -19 20 -54 21 -54 2z"/>
</g>
</g>
</svg>