<?xml version="1.0" standalone="no"?>
<!DOCTYPE svg PUBLIC "-//W3C//DTD SVG 20010904//EN"
 "http://www.w3.org/TR/2001/REC-SVG-20010904/DTD/svg10.dtd">
<svg version="1.0" xmlns="http://www.w3.org/2000/svg"
 width="96.000000pt" height="68.000000pt" viewBox="0 0 96.000000 68.000000"
 preserveAspectRatio="xMidYMid meet">
<metadata>
Created by potrace 1.16, written by Peter Selinger 2001-2019
Combined from part_0.svg through part_5.svg with named groups
</metadata>
<g transform="translate(0.000000,68.000000) scale(0.100000,-0.100000)" fill="#000000" stroke="none">
<g id="part-0" class="char-part">
  <path d="M520 545 c0 -57 3 -75 14 -75 20 0 26 23 26 91 0 52 -2 59 -20 59
-18 0 -20 -7 -20 -75z"/>
  <path d="M250 602 c0 -9 31 -37 60 -52 26 -14 46 0 37 24 -10 26 -97 51 -97
28z"/>
  <path d="M640 551 c41 -36 68 -47 82 -33 21 21 -9 42 -82 57 l-35 7 35 -31z"/>
  <path d="M398 505 c-19 -31 -23 -45 -14 -45 20 0 78 57 74 72 -10 28 -34 16
-60 -27z"/>
  <path d="M210 531 c0 -10 57 -51 71 -51 12 0 20 33 11 42 -15 15 -82 22 -82 9z"/>
  <path d="M614 482 c-31 -24 -144 -74 -224 -99 l-75 -23 53 4 c28 3 52 3 52 0
0 -3 -14 -18 -32 -34 -17 -16 -29 -33 -25 -36 4 -4 15 1 26 10 13 12 32 16 61
14 l42 -3 -18 -22 c-16 -19 -31 -23 -101 -25 -78 -3 -96 -9 -73 -23 5 -3 19
-32 31 -65 20 -54 23 -59 48 -55 58 10 202 12 207 4 12 -20 26 -6 54 57 17 36
30 71 30 78 0 21 -55 34 -102 25 -71 -13 -76 -11 -40 22 19 17 31 33 28 36 -8
8 -57 7 -82 -1 -17 -6 -20 -4 -19 15 1 18 17 28 101 58 109 40 127 49 119 60
-10 16 -42 18 -61 3z m-14 -235 c0 -21 -5 -23 -55 -25 -49 -2 -55 0 -55 17 0
20 18 27 78 30 27 1 32 -2 32 -22z m-150 -6 c12 -24 6 -28 -48 -32 -33 -3 -46
1 -53 14 -11 19 -4 23 46 30 17 2 33 5 37 6 4 0 12 -8 18 -18z m140 -61 c0
-17 -7 -20 -50 -20 -43 0 -50 3 -50 20 0 17 7 20 50 20 43 0 50 -3 50 -20z
m-130 -10 c0 -17 -7 -20 -44 -20 -35 0 -45 4 -49 20 -5 18 0 20 44 20 42 0 49
-3 49 -20z"/>
  <path d="M257 435 c-60 -28 -60 -29 -52 -54 10 -31 39 -26 73 13 17 19 32 34
34 33 1 -1 2 0 1 2 -2 2 2 10 8 18 17 20 -7 16 -64 -12z"/>
  <path d="M530 101 c0 -17 35 -71 49 -76 8 -3 19 -1 24 4 15 15 -2 50 -33 66
-34 17 -40 18 -40 6z"/>
  <path d="M709 60 c52 -52 66 -59 74 -37 8 22 -14 48 -56 68 -67 30 -72 22 -18
-31z"/>
  <path d="M218 65 c-48 -56 -29 -88 26 -44 17 14 26 30 26 50 0 38 -18 36 -52
-6z"/>
  <path d="M370 96 c0 -16 45 -76 54 -73 19 6 17 32 -4 55 -18 19 -50 30 -50 18z"/>
</g>
<g id="part-1" class="char-part">
  <path d="M283 575 c31 -27 52 -32 63 -13 10 16 -25 38 -60 38 l-31 -1 28 -24z"/>
  <path d="M229 516 c26 -28 61 -35 61 -12 0 18 -6 22 -50 31 l-35 7 24 -26z"/>
  <path d="M263 432 c-52 -25 -68 -52 -42 -68 11 -6 108 81 99 89 -3 3 -29 -7
-57 -21z"/>
</g>
<g id="part-2" class="char-part">
  <path d="M588 468 c-27 -17 -99 -48 -160 -70 -111 -39 -112 -39 -53 -33 48 6
285 85 305 102 5 5 -30 34 -39 32 -3 0 -27 -14 -53 -31z"/>
</g>
<g id="part-3" class="char-part">
  <path d="M389 334 c-44 -45 -44 -55 1 -29 14 8 42 14 63 15 35 0 37 -2 27 -20
-8 -15 -8 -20 2 -20 18 1 83 58 76 66 -9 9 -48 9 -81 0 -22 -7 -26 -5 -22 7
14 34 -25 23 -66 -19z"/>
</g>
<g id="part-4" class="char-part">
  <path d="M598 295 c-9 -9 -281 -35 -301 -29 -19 6 -18 3 6 -25 15 -18 27 -41
27 -51 0 -38 22 -70 44 -65 56 11 205 15 211 5 13 -21 26 -9 50 47 41 92 41
99 4 112 -37 13 -34 12 -41 6z m2 -48 c0 -22 -4 -24 -55 -26 -49 -1 -55 1 -55
18 0 20 18 27 78 30 27 1 32 -2 32 -22z m-152 -15 c3 -20 -1 -22 -47 -22 -28
0 -51 2 -51 4 0 2 -3 11 -6 20 -4 11 4 16 38 19 59 5 63 4 66 -21z m145 -51
c-4 -15 -16 -20 -54 -23 -45 -3 -49 -1 -49 20 0 20 5 22 54 22 48 0 54 -2 49
-19z m-133 -11 c0 -17 -7 -20 -45 -20 -25 0 -45 2 -45 4 0 2 -3 11 -6 20 -5
13 2 16 45 16 44 0 51 -3 51 -20z"/>
</g>
<g id="part-5" class="char-part">
  <path d="M252 92 c-7 -5 -10 -16 -6 -25 9 -25 22 -20 22 8 0 14 -1 25 -2 25 0
0 -7 -4 -14 -8z"/>
  <path d="M545 77 c19 -30 30 -36 21 -11 -3 9 -2 12 5 9 5 -4 7 -15 4 -26 -6
-18 5 -26 18 -13 7 7 -13 54 -24 54 -4 0 -15 3 -24 7 -16 6 -16 4 0 -20z"/>
  <path d="M395 60 c16 -32 35 -40 35 -16 0 16 -26 46 -41 46 -5 0 -3 -13 6 -30z"/>
  <path d="M709 72 c17 -32 46 -52 61 -42 13 8 12 12 -5 30 -12 11 -31 22 -43
25 -18 3 -21 1 -13 -13z"/>
  <path d="M210 45 c-18 -19 -21 -28 -12 -37 9 -9 12 -8 12 5 0 10 5 14 14 11
18 -7 29 12 19 31 -8 13 -13 12 -33 -10z"/>
</g>
</g>
</svg>