<?xml version="1.0" standalone="no"?>
<!DOCTYPE svg PUBLIC "-//W3C//DTD SVG 20010904//EN"
 "http://www.w3.org/TR/2001/REC-SVG-20010904/DTD/svg10.dtd">
<svg version="1.0" xmlns="http://www.w3.org/2000/svg"
 width="96.000000pt" height="68.000000pt" viewBox="0 0 96.000000 68.000000"
 preserveAspectRatio="xMidYMid meet">
<metadata>
Created by potrace 1.16, written by Peter Selinger 2001-2019
Combined from part_0.svg through part_5.svg with named groups
</metadata>
<g transform="translate(0.000000,68.000000) scale(0.100000,-0.100000)" fill="#000000" stroke="none">
<g id="part-0" class="char-part">
  <path d="M627 653 c-4 -3 -7 -20 -7 -38 0 -40 -16 -55 -57 -55 -18 0 -33 -4
-33 -9 0 -11 25 -21 52 -21 14 0 18 -5 14 -16 -15 -39 -18 -64 -7 -64 6 0 11
5 11 11 0 5 5 7 10 4 6 -4 9 -3 8 2 -1 4 6 22 16 39 19 32 56 44 137 44 16 0
29 4 29 10 0 19 -41 32 -81 25 -39 -7 -40 -6 -34 18 5 19 1 29 -16 41 -26 18
-32 19 -42 9z"/>
  <path d="M336 622 c-3 -5 4 -23 15 -41 11 -18 18 -35 16 -37 -2 -2 -32 -7 -66
-10 -64 -7 -74 -19 -31 -41 18 -9 32 -8 63 3 40 14 41 14 63 -13 19 -24 23
-25 29 -12 3 10 5 25 3 35 -2 14 6 22 30 29 18 5 31 14 29 20 -3 9 -14 9 -62
2 -5 -1 -11 12 -13 29 -2 23 -9 34 -25 38 -30 8 -45 7 -51 -2z"/>
  <path d="M385 421 c-22 -15 -58 -35 -80 -44 l-40 -17 51 6 c48 5 52 4 58 -18
3 -13 6 -26 6 -30 0 -3 -47 -12 -105 -19 -58 -6 -108 -16 -111 -20 -9 -15 67
-21 123 -10 31 6 59 8 62 5 6 -6 -55 -63 -132 -122 -26 -20 -43 -38 -38 -40
15 -5 92 43 145 89 25 22 47 38 47 35 5 -21 3 -37 -6 -86 -8 -38 -8 -63 -2
-78 24 -53 47 -3 47 101 l0 71 33 -32 c34 -33 51 -39 62 -22 10 16 -42 60 -70
60 -18 0 -25 5 -25 19 0 20 25 31 75 31 17 0 36 4 43 9 22 14 -12 21 -63 14
-43 -6 -45 -5 -45 21 0 14 -4 26 -10 26 -26 0 -6 20 30 30 44 12 50 24 21 40
-27 14 -30 13 -76 -19z"/>
  <path d="M704 418 c3 -18 7 -95 8 -171 2 -150 -1 -158 -50 -150 -27 4 -26 4
10 -31 42 -40 50 -43 72 -20 13 13 16 46 16 200 l0 184 -26 10 c-36 14 -37 14
-30 -22z"/>
  <path d="M587 373 c-5 -12 8 -191 15 -199 19 -18 28 15 28 101 0 75 -3 94 -16
99 -20 8 -22 8 -27 -1z"/>
</g>
<g id="part-1" class="char-part">
  <path d="M620 605 c0 -42 -2 -45 -27 -45 -16 0 -35 -5 -43 -10 -12 -7 -8 -11
18 -16 35 -7 36 -10 16 -71 -6 -19 26 13 59 61 16 23 25 26 75 26 67 0 101 15
59 25 -15 4 -45 5 -67 3 -44 -4 -44 -4 -30 22 12 22 -11 50 -41 50 -16 0 -19
-7 -19 -45z"/>
  <path d="M340 614 c0 -3 8 -19 17 -35 23 -39 9 -49 -67 -49 l-55 -1 25 -20
c18 -16 32 -19 55 -14 16 4 40 9 52 12 15 4 23 -1 28 -16 10 -31 25 -25 25 9
0 26 5 31 30 37 48 9 50 27 3 20 -40 -7 -41 -6 -47 28 -6 31 -11 35 -36 35
-17 0 -30 -3 -30 -6z"/>
</g>
<g id="part-2" class="char-part">
  <path d="M405 434 c-11 -9 -47 -29 -80 -45 -33 -15 -51 -28 -40 -28 23 -1 195
45 204 55 8 8 -29 34 -48 34 -9 0 -25 -8 -36 -16z"/>
</g>
<g id="part-3" class="char-part">
  <path d="M372 350 c3 -17 2 -33 -2 -35 -3 -2 -46 -9 -96 -15 -105 -14 -133
-25 -91 -35 27 -7 87 -2 144 11 27 6 27 6 -12 -36 -22 -23 -66 -61 -98 -86
-33 -24 -53 -44 -45 -44 29 1 96 39 147 86 l54 49 -7 -65 c-11 -89 -10 -110 4
-124 23 -23 40 23 40 108 l0 80 34 -33 c32 -31 66 -37 66 -13 0 14 -32 39 -65
49 -64 21 -35 53 48 53 27 0 37 4 34 13 -3 8 -22 11 -56 10 -48 -2 -51 -1 -51
21 0 22 -16 36 -42 36 -6 0 -8 -13 -6 -30z"/>
</g>
<g id="part-4" class="char-part">
  <path d="M707 442 c-2 -4 0 -63 4 -132 5 -69 6 -145 3 -168 l-7 -44 -38 4 -39
3 37 -37 c43 -44 57 -47 78 -14 13 20 15 54 13 201 -3 173 -4 178 -25 186 -12
4 -24 5 -26 1z"/>
</g>
</g>
</svg>