<?xml version="1.0" standalone="no"?>
<!DOCTYPE svg PUBLIC "-//W3C//DTD SVG 20010904//EN"
 "http://www.w3.org/TR/2001/REC-SVG-20010904/DTD/svg10.dtd">
<svg version="1.0" xmlns="http://www.w3.org/2000/svg"
 width="96.000000pt" height="68.000000pt" viewBox="0 0 96.000000 68.000000"
 preserveAspectRatio="xMidYMid meet">
<metadata>
Created by potrace 1.16, written by Peter Selinger 2001-2019
Combined from part_0.svg through part_5.svg with named groups
</metadata>
<g transform="translate(0.000000,68.000000) scale(0.100000,-0.100000)" fill="#000000" stroke="none">
<g id="part-0" class="char-part">
  <path d="M506 561 c-3 -4 8 -23 24 -42 16 -19 29 -37 30 -40 0 -4 -35 -10 -77
-13 -43 -4 -90 -9 -105 -12 -26 -5 -28 -3 -28 25 0 43 -34 59 -89 43 -21 -7
-60 -12 -86 -12 l-47 0 8 -32 c9 -37 11 -136 4 -248 -5 -84 10 -128 32 -99 7
9 32 19 55 22 37 6 43 4 61 -20 20 -27 20 -27 41 -9 19 18 21 30 21 165 l0
146 72 -1 c40 0 74 -4 76 -7 8 -22 -3 -44 -47 -90 -66 -70 -59 -85 33 -67 37
7 69 10 72 7 6 -6 -127 -122 -147 -129 -8 -3 -10 -11 -6 -22 8 -21 20 -20 184
15 l113 24 29 -35 c33 -40 57 -33 45 14 -10 42 -114 122 -114 87 0 -5 7 -14
15 -21 8 -7 15 -16 15 -20 0 -8 -133 -30 -183 -30 l-32 1 31 27 c17 15 68 56
113 91 82 65 91 77 69 99 -20 20 -43 13 -55 -17 -6 -16 -21 -36 -34 -44 -25
-16 -120 -26 -129 -14 -3 4 17 29 43 56 29 29 47 56 45 67 -2 14 5 18 32 20
19 2 74 6 123 9 48 4 87 10 87 15 0 20 -56 30 -115 20 -82 -14 -85 -13 -85 14
0 13 -6 29 -14 35 -19 16 -75 31 -80 22z m-215 -116 c4 -22 6 -41 5 -41 0 -1
-25 -5 -53 -9 l-53 -7 0 41 c0 46 18 62 65 58 26 -2 31 -7 36 -42z m9 -110 c0
-27 -4 -35 -17 -35 -10 0 -35 -3 -55 -6 -38 -7 -38 -7 -38 29 0 36 0 36 48 40
26 2 50 4 55 5 4 1 7 -14 7 -33z m-3 -112 l1 -41 -56 -4 c-32 -2 -58 -3 -60
-2 -1 1 0 20 4 42 6 39 8 41 48 45 60 5 61 4 63 -40z"/>
</g>
<g id="part-1" class="char-part">
  <path d="M250 514 c-25 -7 -62 -13 -82 -13 l-37 -1 11 -31 c7 -20 9 -74 5
-145 -5 -108 -4 -114 14 -114 13 0 19 7 19 24 0 19 6 24 38 30 72 12 82 9 82
-24 0 -24 4 -30 23 -30 22 0 22 1 22 143 0 78 -4 147 -8 153 -11 18 -39 21
-87 8z m48 -76 l3 -48 -40 0 c-21 0 -46 -3 -55 -6 -13 -5 -16 2 -16 43 0 27 3
53 7 57 4 4 28 6 53 4 l45 -3 3 -47z m2 -103 c0 -32 -3 -35 -37 -40 -21 -3
-46 -8 -55 -10 -15 -2 -18 4 -18 35 0 41 5 44 83 49 24 1 27 -2 27 -34z"/>
</g>
<g id="part-2" class="char-part">
  <path d="M136 185 c-10 -41 23 -87 37 -51 3 8 24 15 53 18 41 3 48 0 57 -19
22 -48 67 -17 67 46 0 26 -4 31 -25 31 -16 0 -25 -6 -25 -15 0 -11 -12 -15
-44 -15 -24 0 -51 -3 -60 -6 -12 -4 -16 0 -16 15 0 31 -36 28 -44 -4z"/>
</g>
<g id="part-3" class="char-part">
  <path d="M500 561 c0 -6 14 -26 30 -44 17 -19 30 -37 30 -40 0 -2 -33 -7 -72
-11 -111 -10 -142 -17 -126 -27 18 -12 77 -11 168 1 41 5 119 13 173 16 53 3
97 10 97 14 0 17 -66 27 -116 19 -78 -13 -84 -12 -84 14 0 13 -8 31 -17 39
-23 20 -83 34 -83 19z"/>
</g>
<g id="part-4" class="char-part">
  <path d="M506 416 c-3 -13 -28 -49 -55 -78 -66 -72 -59 -85 35 -68 96 18 115
32 37 27 -35 -2 -63 -1 -63 2 0 3 23 29 51 57 34 35 50 58 46 68 -10 25 -44
19 -51 -8z"/>
</g>
<g id="part-5" class="char-part">
  <path d="M640 370 c0 -5 6 -7 14 -4 8 3 17 1 21 -5 3 -6 0 -9 -8 -5 -8 3 -21
-2 -28 -11 -8 -9 -24 -26 -36 -37 -12 -12 -19 -26 -16 -31 4 -6 0 -8 -9 -4
-17 6 -48 -21 -48 -43 0 -7 -3 -11 -6 -7 -3 3 -13 -2 -23 -11 -33 -32 -85 -72
-94 -72 -4 0 -2 -7 6 -15 14 -13 57 -12 80 2 6 3 26 8 46 10 20 2 41 9 46 14
7 7 -3 8 -30 4 -22 -3 -48 -6 -58 -6 -9 0 -15 -4 -13 -8 3 -4 -9 -8 -25 -8
-31 0 -31 0 -7 13 12 7 19 13 14 14 -5 0 10 14 32 30 23 17 42 35 42 40 0 6 4
9 8 8 8 -3 34 17 124 94 12 10 18 24 14 33 -6 16 -46 21 -46 5z"/>
  <path d="M679 221 c23 -14 21 -39 -2 -45 -12 -3 -18 -8 -15 -11 3 -4 15 -2 25
3 13 7 22 6 30 -3 6 -7 9 -15 6 -19 -3 -3 3 -4 15 -1 15 3 19 -1 15 -16 -3
-10 -1 -19 5 -19 6 0 9 12 7 26 -3 28 -64 94 -87 94 -10 0 -10 -2 1 -9z"/>
  <path d="M614 158 c10 -6 22 -6 26 -2 5 5 -3 10 -18 11 -22 1 -24 0 -8 -9z"/>
</g>
</g>
</svg>