<?xml version="1.0" standalone="no"?>
<!DOCTYPE svg PUBLIC "-//W3C//DTD SVG 20010904//EN"
 "http://www.w3.org/TR/2001/REC-SVG-20010904/DTD/svg10.dtd">
<svg version="1.0" xmlns="http://www.w3.org/2000/svg"
 width="96.000000pt" height="68.000000pt" viewBox="0 0 96.000000 68.000000"
 preserveAspectRatio="xMidYMid meet">
<metadata>
Created by potrace 1.16, written by Peter Selinger 2001-2019
Combined from part_0.svg through part_5.svg with named groups
</metadata>
<g transform="translate(0.000000,68.000000) scale(0.100000,-0.100000)" fill="#000000" stroke="none">
<g id="part-0" class="char-part">
  <path d="M303 547 c7 -42 0 -52 -40 -60 -30 -6 -33 -4 -41 26 -6 25 -14 33
-35 35 -27 3 -39 -19 -17 -33 6 -3 10 -15 10 -26 0 -15 -7 -19 -34 -19 -19 0
-37 -4 -40 -9 -7 -11 17 -21 53 -21 23 0 30 -6 38 -32 7 -26 14 -32 31 -31 16
2 22 -3 22 -16 0 -15 -10 -21 -40 -26 -21 -4 -44 -3 -51 0 -12 8 -8 -14 13
-67 9 -23 14 -26 44 -21 32 5 34 4 34 -24 0 -30 -1 -30 -75 -42 -41 -7 -75
-17 -75 -23 0 -11 42 -8 119 8 l34 7 -6 -61 c-7 -66 -2 -92 18 -92 9 0 15 25
20 80 l7 80 48 0 c27 0 51 4 55 9 8 14 -33 24 -72 16 -33 -6 -34 -5 -31 22 2
23 8 29 36 31 18 2 32 9 32 16 0 7 9 21 20 31 28 26 9 45 -46 45 -37 0 -44 3
-44 20 0 15 7 20 26 20 14 0 23 4 20 9 -4 5 -2 21 3 34 7 19 20 27 50 32 23 4
41 10 41 15 0 11 -26 20 -56 20 -26 0 -29 7 -15 29 14 23 -6 51 -36 51 -23 0
-25 -3 -20 -33z m-8 -113 c0 -14 -7 -19 -30 -19 -37 0 -48 31 -13 38 34 6 43
2 43 -19z m-45 -134 c0 -27 -3 -30 -30 -30 -20 0 -30 5 -30 15 0 8 -1 18 -2
22 -2 4 11 11 27 14 17 4 31 7 33 8 1 0 2 -12 2 -29z m88 8 c-2 -15 -11 -24
-25 -26 -19 -3 -23 1 -23 22 0 21 5 26 26 26 21 0 25 -4 22 -22z"/>
  <path d="M593 508 c2 -52 1 -53 -28 -56 -49 -6 -54 -22 -6 -22 38 0 42 -2 39
-22 -2 -17 -11 -23 -38 -25 -19 -3 -48 -8 -65 -13 l-30 -8 36 -1 c27 -1 41 -7
53 -26 20 -31 20 -31 -6 -41 -19 -6 -16 -8 20 -11 61 -6 53 -43 -9 -43 -12 0
-17 -4 -14 -11 4 -6 13 -8 21 -5 19 7 44 -3 44 -19 0 -9 -20 -16 -55 -20 -66
-9 -63 -25 6 -25 l49 0 0 -35 c0 -40 -3 -41 -80 -24 -46 10 -50 13 -50 40 0
16 -4 29 -10 29 -17 0 -11 25 10 48 11 12 20 25 20 31 0 14 -29 22 -48 12 -9
-5 -28 -14 -42 -19 -25 -11 -25 -11 6 -11 28 -1 31 -4 31 -33 0 -18 4 -45 8
-61 7 -27 7 -27 -44 -27 -28 0 -51 -4 -51 -9 0 -15 22 -19 70 -14 31 4 71 -2
120 -17 168 -49 192 -51 255 -23 l40 17 -105 9 c-58 5 -106 10 -108 12 -1 1 0
21 4 43 l6 41 66 3 c41 2 67 8 70 16 3 9 -15 12 -67 12 -42 0 -71 4 -71 10 0
11 7 14 55 25 25 6 27 8 12 16 -9 6 -25 9 -34 7 -10 -2 -19 4 -21 15 -3 13 3
17 27 17 16 0 33 5 36 10 3 6 -3 10 -14 10 -26 0 -34 15 -16 30 8 7 15 19 15
26 0 10 14 14 51 14 36 0 49 4 46 13 -4 13 -59 16 -119 5 -35 -6 -38 -5 -38
17 0 20 6 24 37 27 20 2 39 9 41 17 4 11 -4 13 -37 8 l-41 -5 0 43 c0 30 -5
45 -16 49 -30 11 -33 6 -31 -46z m62 -165 c-8 -33 -4 -29 -33 -37 -16 -6 -24
-3 -29 11 -4 10 -11 21 -17 26 -17 11 14 27 53 27 31 0 33 -2 26 -27z"/>
  <path d="M400 415 c0 -15 34 -55 46 -55 25 0 16 40 -12 50 -29 11 -34 12 -34
5z"/>
</g>
<g id="part-1" class="char-part">
  <path d="M307 536 c5 -39 3 -44 -18 -49 -52 -14 -69 -9 -69 22 0 23 -5 30 -27
34 -36 7 -36 6 -18 -29 21 -40 20 -41 -26 -49 -48 -8 -44 -18 8 -20 34 -1 38
-4 44 -33 9 -43 11 -44 43 -32 15 5 40 10 55 10 25 0 29 4 35 40 6 39 7 40 46
40 50 0 52 17 4 26 -33 6 -35 8 -28 36 6 32 -6 48 -37 48 -14 0 -16 -8 -12
-44z m-7 -101 c0 -22 -4 -25 -35 -25 -27 0 -35 4 -35 18 0 25 9 32 42 32 23 0
28 -4 28 -25z"/>
</g>
<g id="part-2" class="char-part">
  <path d="M257 243 c-4 -3 -7 -17 -7 -30 0 -15 -6 -23 -17 -23 -45 0 -142 -23
-137 -32 7 -10 82 -5 133 9 24 6 24 6 18 -56 -7 -61 4 -108 22 -96 5 3 12 41
16 85 l7 80 48 0 c27 0 52 4 55 10 8 13 -39 24 -75 16 -27 -5 -30 -3 -30 19 0
24 -18 33 -33 18z"/>
</g>
<g id="part-3" class="char-part">
  <path d="M400 415 c0 -15 34 -55 46 -55 21 0 17 38 -5 50 -21 11 -41 13 -41 5z"/>
  <path d="M425 249 l-40 -18 32 -1 c30 0 32 -2 27 -29 -4 -16 -1 -32 5 -35 6
-4 11 -18 11 -32 0 -22 -4 -24 -51 -24 -36 0 -49 -4 -46 -12 3 -9 22 -12 60
-10 42 2 87 -6 178 -33 119 -35 122 -36 173 -20 80 23 90 35 31 35 -62 0 -202
16 -272 31 -43 8 -53 14 -53 30 0 11 -5 29 -11 41 -9 17 -6 25 16 48 27 28 27
28 7 39 -12 6 -22 11 -24 10 -2 0 -21 -9 -43 -20z"/>
</g>
<g id="part-4" class="char-part">
  <path d="M590 534 c6 -14 10 -39 10 -55 0 -25 -4 -29 -27 -30 -16 0 -37 -4
-48 -9 -15 -6 -8 -9 28 -9 44 -1 48 -3 45 -23 -3 -20 -11 -24 -56 -29 -29 -4
-56 -10 -59 -13 -9 -8 52 -6 202 8 114 10 127 13 107 24 -21 12 -82 10 -134
-5 -14 -3 -18 2 -18 20 0 22 6 26 45 32 28 4 43 10 39 17 -4 6 -23 8 -46 5
l-39 -5 3 40 c2 41 -11 58 -44 58 -15 0 -16 -4 -8 -26z"/>
</g>
<g id="part-5" class="char-part">
  <path d="M610 255 c0 -8 -8 -15 -17 -16 -15 0 -15 -2 2 -8 11 -5 25 -6 30 -3
6 3 4 -2 -4 -11 -7 -9 -10 -17 -5 -17 4 0 3 -5 -4 -12 -8 -8 -8 -17 -1 -30 5
-10 7 -23 4 -28 -3 -5 -1 -11 4 -14 12 -7 25 30 16 44 -6 9 22 15 53 11 6 -1
12 3 12 8 0 15 -18 23 -25 11 -3 -5 -15 -10 -25 -10 -16 0 -17 4 -8 36 7 28 7
39 -4 45 -19 13 -28 11 -28 -6z"/>
  <path d="M665 240 c-7 -12 2 -12 30 0 19 8 19 9 -2 9 -12 1 -25 -3 -28 -9z"/>
  <path d="M725 190 c11 -5 27 -9 35 -9 9 0 8 4 -5 9 -11 5 -27 9 -35 9 -9 0 -8
-4 5 -9z"/>
  <path d="M530 170 c8 -5 22 -9 30 -9 10 0 8 3 -5 9 -27 12 -43 12 -25 0z"/>
</g>
</g>
</svg>