<?xml version="1.0" standalone="no"?>
<!DOCTYPE svg PUBLIC "-//W3C//DTD SVG 20010904//EN"
 "http://www.w3.org/TR/2001/REC-SVG-20010904/DTD/svg10.dtd">
<svg version="1.0" xmlns="http://www.w3.org/2000/svg"
 width="96.000000pt" height="68.000000pt" viewBox="0 0 96.000000 68.000000"
 preserveAspectRatio="xMidYMid meet">
<metadata>
Created by potrace 1.16, written by Peter Selinger 2001-2019
Combined from part_0.svg through part_5.svg with named groups
</metadata>
<g transform="translate(0.000000,68.000000) scale(0.100000,-0.100000)" fill="#000000" stroke="none">
<g id="part-0" class="char-part">
  <path d="M228 454 c6 -181 -16 -267 -88 -342 -36 -38 -33 -52 6 -32 38 21 73
60 98 108 l22 43 24 -26 c25 -26 45 -32 55 -15 13 21 -7 49 -42 60 -32 11 -35
15 -29 42 3 17 6 43 6 59 0 22 7 32 33 44 58 28 72 42 57 60 -18 22 -31 19
-58 -12 l-23 -28 5 73 c5 71 4 73 -20 82 -50 19 -50 19 -46 -116z"/>
  <path d="M629 553 c0 -5 0 -45 1 -90 l1 -83 -30 0 c-17 0 -31 -4 -31 -10 0 -5
12 -10 26 -10 23 0 25 -3 20 -27 -9 -39 -35 -72 -85 -110 -49 -38 -40 -42 23
-12 26 12 56 37 71 60 15 21 31 39 34 39 6 0 44 -43 86 -94 6 -7 20 -18 33
-25 20 -11 22 -10 22 16 -1 38 -21 62 -83 99 -66 39 -67 57 -4 66 27 4 52 9
55 12 16 17 -37 25 -76 12 -22 -7 -22 -7 -17 55 4 35 9 67 11 71 9 13 -16 38
-37 38 -11 0 -19 -3 -20 -7z"/>
  <path d="M440 500 c-7 -31 -30 -73 -61 -114 -27 -36 -49 -67 -49 -70 0 -3 11
0 25 6 20 9 28 8 43 -5 10 -10 24 -17 30 -17 21 0 13 20 -13 32 -29 13 -31 21
-10 38 12 10 19 10 27 2 7 -7 21 -12 33 -12 19 1 19 1 1 15 -10 8 -23 16 -29
18 -6 2 -6 11 2 25 17 31 81 32 81 1 0 -29 -51 -115 -102 -174 -44 -50 -39
-51 21 -7 31 23 121 149 121 170 0 5 7 15 15 22 33 27 2 42 -64 30 -47 -8 -52
2 -20 37 18 18 20 25 9 38 -25 31 -47 18 -60 -35z"/>
  <path d="M720 481 c0 -13 61 -40 77 -34 21 8 15 23 -13 33 -32 12 -64 13 -64
1z"/>
  <path d="M154 404 c-3 -11 -10 -31 -16 -46 -13 -35 -4 -58 22 -58 39 0 49 82
14 111 -11 9 -15 7 -20 -7z"/>
  <path d="M351 114 c-27 -44 -27 -74 -2 -74 23 0 52 58 44 88 -8 31 -18 28 -42
-14z"/>
  <path d="M729 133 c5 -10 26 -34 46 -53 30 -29 37 -32 45 -20 15 23 13 26 -27
59 -42 35 -80 43 -64 14z"/>
  <path d="M480 135 c0 -21 32 -75 44 -75 22 0 20 43 -2 63 -18 16 -42 23 -42
12z"/>
  <path d="M600 134 c0 -18 34 -74 44 -71 19 6 19 50 0 64 -18 13 -44 18 -44 7z"/>
</g>
<g id="part-1" class="char-part">
  <path d="M231 538 c13 -48 11 -183 -5 -260 -18 -82 -38 -122 -84 -170 -43 -46
-36 -48 22 -9 28 19 53 50 72 85 l29 55 25 -24 c31 -30 50 -32 50 -6 0 13 -13
24 -39 34 l-38 16 9 57 c11 70 10 70 59 94 42 22 49 37 23 47 -12 4 -26 -5
-46 -28 l-29 -34 3 85 3 85 -32 3 c-32 3 -32 3 -22 -30z"/>
  <path d="M145 364 c-20 -52 -9 -78 23 -58 19 12 27 45 18 80 -9 36 -21 29 -41
-22z"/>
</g>
<g id="part-2" class="char-part">
  <path d="M441 502 c-7 -29 -33 -76 -66 -120 -55 -74 -58 -79 -25 -62 14 7 27
5 49 -7 16 -10 33 -14 37 -11 9 10 -15 38 -32 38 -18 0 -18 14 1 30 13 10 19
9 35 -5 15 -13 24 -15 31 -8 8 8 5 15 -12 23 -33 17 -32 16 -19 39 14 28 80
30 80 3 0 -26 -36 -89 -92 -161 -47 -60 -48 -62 -19 -45 46 27 73 59 130 152
l51 83 -24 10 c-16 7 -34 8 -59 1 -43 -12 -50 3 -17 33 24 22 26 41 4 49 -32
12 -40 5 -53 -42z"/>
</g>
<g id="part-3" class="char-part">
  <path d="M628 470 l4 -90 -31 0 c-17 0 -31 -4 -31 -10 0 -5 11 -10 25 -10 29
0 30 -8 11 -53 -12 -31 -53 -72 -106 -109 -24 -16 -22 -16 24 0 48 16 98 56
123 97 12 20 12 20 28 0 30 -38 108 -115 116 -115 5 0 9 13 9 29 0 36 -43 82
-100 107 -57 25 -49 47 19 57 64 9 69 12 43 26 -13 7 -31 7 -51 1 -42 -12 -47
2 -31 82 13 66 7 78 -36 78 -19 0 -20 -4 -16 -90z"/>
</g>
<g id="part-4" class="char-part">
  <path d="M352 118 c-24 -39 -28 -63 -11 -73 14 -10 46 21 52 51 2 13 -1 31 -8
40 -10 15 -14 13 -33 -18z"/>
  <path d="M729 133 c5 -10 26 -34 46 -53 30 -29 37 -32 45 -20 17 26 9 39 -40
69 -44 26 -64 28 -51 4z"/>
  <path d="M490 110 c11 -40 19 -50 36 -50 20 0 18 44 -4 63 -29 27 -42 21 -32
-13z"/>
  <path d="M606 118 c8 -30 34 -59 45 -52 5 3 9 16 9 30 0 17 -8 27 -26 34 -35
14 -36 13 -28 -12z"/>
</g>
</g>
</svg>