<?xml version="1.0" standalone="no"?>
<!DOCTYPE svg PUBLIC "-//W3C//DTD SVG 20010904//EN"
 "http://www.w3.org/TR/2001/REC-SVG-20010904/DTD/svg10.dtd">
<svg version="1.0" xmlns="http://www.w3.org/2000/svg"
 width="96.000000pt" height="68.000000pt" viewBox="0 0 96.000000 68.000000"
 preserveAspectRatio="xMidYMid meet">
<metadata>
Created by potrace 1.16, written by Peter Selinger 2001-2019
Combined from part_0.svg through part_5.svg with named groups
</metadata>
<g transform="translate(0.000000,68.000000) scale(0.100000,-0.100000)" fill="#000000" stroke="none">
<g id="part-0" class="char-part">
  <path d="M545 574 c-49 -7 -107 -13 -128 -13 -41 -1 -43 -21 -2 -21 18 0 26
-7 31 -24 10 -40 -3 -49 -63 -43 -49 5 -53 4 -41 -10 7 -8 20 -36 29 -62 12
-35 21 -45 35 -44 10 2 79 5 153 7 l135 4 28 33 c50 59 52 67 21 83 -16 8 -46
12 -71 10 -41 -4 -42 -3 -36 21 4 15 2 25 -5 25 -6 0 -11 5 -11 10 0 6 12 10
28 10 37 0 60 15 37 24 -20 7 -24 7 -140 -10z m30 -59 c0 -27 -3 -30 -36 -33
-33 -3 -37 0 -42 25 -7 38 -1 45 41 41 34 -3 37 -6 37 -33z m-5 -82 c0 -33 -6
-39 -45 -45 -16 -2 -21 3 -23 34 -2 28 1 37 15 40 45 9 53 4 53 -29z m110 15
c0 -34 -12 -46 -49 -53 -33 -6 -33 -5 -26 27 10 46 12 48 46 48 23 0 29 -4 29
-22z m-212 -36 c-2 -21 -9 -28 -29 -30 -22 -3 -29 2 -38 29 -14 40 -15 37 12
41 36 6 59 -10 55 -40z"/>
  <path d="M206 551 c-8 -12 69 -71 93 -71 13 0 21 6 21 18 0 28 -13 39 -55 51
-48 13 -52 13 -59 2z"/>
  <path d="M130 412 c0 -18 69 -74 86 -70 33 6 29 45 -5 62 -32 17 -81 21 -81 8z"/>
  <path d="M550 319 c-25 -4 -64 -8 -87 -8 -25 -1 -43 -6 -43 -13 0 -8 30 -9
110 -4 120 7 150 13 128 27 -15 10 -45 10 -108 -2z"/>
  <path d="M240 263 c-23 -32 -59 -71 -80 -88 -22 -16 -39 -36 -40 -43 0 -23 31
-73 43 -70 11 4 136 232 137 251 1 21 -24 1 -60 -50z"/>
  <path d="M695 260 c-16 -4 -111 -13 -210 -20 -99 -6 -182 -14 -185 -16 -2 -3
2 -10 10 -15 14 -10 64 -8 162 7 l46 6 4 -54 c5 -85 2 -91 -38 -85 -42 7 -43
-2 -4 -36 36 -33 47 -33 71 -5 15 17 19 37 19 105 l0 83 120 0 c123 0 152 10
83 29 -21 6 -40 11 -43 10 -3 0 -18 -4 -35 -9z"/>
  <path d="M685 139 c50 -54 56 -59 78 -59 10 0 17 8 17 20 0 23 -59 65 -105 76
l-30 7 40 -44z"/>
  <path d="M347 114 c-27 -29 -43 -54 -35 -54 29 0 118 68 118 90 0 6 -27 22
-33 19 -1 0 -24 -25 -50 -55z"/>
</g>
<g id="part-1" class="char-part">
  <path d="M243 515 c36 -34 66 -42 74 -20 7 22 -23 45 -67 50 l-45 7 38 -37z"/>
  <path d="M160 385 c33 -34 63 -44 74 -26 12 18 -6 38 -43 50 -61 18 -67 13
-31 -24z"/>
  <path d="M246 261 c-21 -28 -58 -68 -82 -90 l-45 -40 16 -30 c8 -17 21 -31 28
-31 12 0 132 229 124 237 -3 2 -21 -19 -41 -46z"/>
</g>
<g id="part-2" class="char-part">
  <path d="M545 574 c-49 -7 -110 -13 -135 -14 -38 0 -42 -2 -26 -12 15 -8 54
-8 153 1 145 13 173 19 151 32 -16 10 -27 10 -143 -7z"/>
</g>
<g id="part-3" class="char-part">
  <path d="M535 484 c-72 -8 -147 -11 -167 -8 -35 5 -55 -9 -26 -18 6 -2 19 -26
28 -54 13 -37 22 -48 36 -47 10 2 79 4 153 7 l133 3 39 44 c21 24 38 47 39 51
0 12 -57 38 -82 37 -13 -1 -81 -8 -153 -15z m145 -36 c0 -40 -14 -47 -105 -58
-149 -17 -161 -15 -174 22 -6 17 -10 32 -8 34 2 3 199 20 255 23 27 1 32 -2
32 -21z"/>
</g>
<g id="part-4" class="char-part">
  <path d="M523 178 c3 -24 3 -56 0 -71 -5 -23 -11 -28 -32 -27 -42 3 -43 2 -14
-30 56 -63 93 -26 93 92 0 77 0 78 -25 78 -25 0 -26 -2 -22 -42z"/>
  <path d="M702 125 c57 -56 78 -62 78 -25 0 23 -60 66 -105 75 -28 6 -27 4 27
-50z"/>
  <path d="M347 115 c-54 -61 -44 -71 25 -25 50 33 66 59 46 72 -19 12 -19 12
-71 -47z"/>
</g>
</g>
</svg>