<?xml version="1.0" standalone="no"?>
<!DOCTYPE svg PUBLIC "-//W3C//DTD SVG 20010904//EN"
 "http://www.w3.org/TR/2001/REC-SVG-20010904/DTD/svg10.dtd">
<svg version="1.0" xmlns="http://www.w3.org/2000/svg"
 width="96.000000pt" height="68.000000pt" viewBox="0 0 96.000000 68.000000"
 preserveAspectRatio="xMidYMid meet">
<metadata>
Created by potrace 1.16, written by Peter Selinger 2001-2019
Combined from part_0.svg through part_5.svg with named groups
</metadata>
<g transform="translate(0.000000,68.000000) scale(0.100000,-0.100000)" fill="#000000" stroke="none">
<g id="part-0" class="char-part">
  <path d="M274 573 c-15 -49 -53 -109 -91 -143 -66 -58 -52 -91 29 -69 22 5 43
7 47 4 3 -4 -18 -29 -48 -57 -42 -39 -51 -52 -40 -59 20 -12 31 -11 54 5 30
21 124 46 130 35 8 -12 45 -12 45 1 0 15 -38 50 -55 50 -8 0 -12 -6 -9 -14 4
-9 -10 -19 -42 -30 -26 -9 -53 -16 -60 -16 -7 0 25 37 71 81 71 69 83 85 74
100 -14 28 -32 23 -48 -12 -14 -33 -45 -49 -92 -49 l-31 0 66 73 c36 39 66 77
66 84 0 13 -31 33 -50 33 -6 0 -13 -8 -16 -17z"/>
  <path d="M550 552 c0 -4 14 -26 30 -49 l30 -41 -63 -11 c-35 -6 -73 -11 -85
-11 -12 0 -22 -4 -22 -9 0 -15 29 -21 75 -14 38 5 45 3 45 -11 0 -35 -57 -132
-112 -190 -32 -33 -56 -62 -53 -64 7 -7 92 56 118 88 14 16 36 48 49 71 18 32
26 39 43 34 11 -4 32 -9 47 -12 35 -7 39 -21 24 -85 -26 -109 -61 -142 -112
-103 -34 25 -35 16 -3 -35 18 -29 38 -50 48 -50 31 0 77 63 109 151 18 47 32
92 32 102 0 22 -25 34 -92 42 -38 5 -58 12 -58 21 0 7 4 15 9 18 5 3 7 14 4
25 -4 17 4 19 101 26 58 4 106 11 106 15 0 17 -57 28 -101 19 -65 -12 -69 -11
-69 16 0 18 -10 31 -32 45 -34 20 -68 26 -68 12z"/>
  <path d="M347 225 c18 -25 53 -34 53 -14 0 18 -27 39 -50 39 -20 0 -21 -1 -3
-25z"/>
  <path d="M240 205 c0 -11 44 -55 56 -55 10 0 29 29 22 35 -23 18 -78 33 -78
20z"/>
  <path d="M138 153 c34 -47 61 -68 74 -55 21 21 1 58 -40 70 -54 16 -56 16 -34
-15z"/>
</g>
<g id="part-1" class="char-part">
  <path d="M274 563 c-16 -50 -44 -92 -88 -136 -42 -41 -47 -50 -35 -62 12 -12
22 -12 69 1 74 22 87 36 25 28 l-50 -7 25 29 c14 16 47 53 74 82 39 43 45 56
36 67 -17 20 -49 19 -56 -2z"/>
</g>
<g id="part-2" class="char-part">
  <path d="M346 225 c17 -26 54 -34 54 -12 0 20 -22 37 -47 37 -23 0 -23 -1 -7
-25z"/>
  <path d="M255 180 c30 -31 49 -37 60 -19 11 18 -26 49 -58 49 l-31 0 29 -30z"/>
  <path d="M120 175 c0 -12 74 -85 86 -85 9 0 14 11 14 31 0 25 -6 32 -35 45
-34 14 -65 18 -65 9z"/>
</g>
<g id="part-3" class="char-part">
  <path d="M550 552 c0 -4 14 -26 30 -49 l30 -41 -85 -13 c-47 -7 -88 -16 -91
-20 -10 -16 55 -19 121 -5 39 8 114 18 168 22 53 4 97 10 97 15 0 16 -65 28
-105 19 -59 -14 -65 -13 -65 14 0 16 -11 32 -29 45 -29 21 -71 28 -71 13z"/>
</g>
<g id="part-4" class="char-part">
  <path d="M560 410 c0 -43 -54 -134 -119 -200 -66 -68 -66 -76 -1 -34 48 30 81
67 129 148 45 74 49 99 13 104 -17 3 -22 -2 -22 -18z"/>
</g>
<g id="part-5" class="char-part">
  <path d="M618 348 c6 -6 18 -8 28 -6 14 3 12 5 -9 10 -19 3 -25 2 -19 -4z"/>
  <path d="M670 344 c0 -14 32 -35 46 -30 8 3 12 2 9 -4 -3 -6 -13 -10 -21 -10
-9 0 -14 -11 -14 -35 0 -19 -4 -35 -9 -35 -5 0 -11 -14 -15 -31 -3 -17 -15
-44 -27 -60 -20 -28 -21 -29 -51 -13 -16 8 -32 13 -36 10 -3 -3 0 -6 7 -6 7 0
9 -5 5 -12 -4 -7 -3 -8 4 -4 7 4 12 1 12 -8 0 -9 8 -16 18 -16 14 0 15 -2 2
-10 -12 -8 -11 -10 6 -10 29 0 86 64 77 87 -4 10 -2 14 5 9 10 -6 32 48 32 79
0 6 7 23 15 39 11 21 12 32 4 42 -6 8 -15 11 -20 8 -5 -3 -9 -1 -9 3 0 5 -9 9
-20 10 -11 1 -20 -1 -20 -3z m27 -156 c-3 -8 -6 -5 -6 6 -1 11 2 17 5 13 3 -3
4 -12 1 -19z"/>
</g>
</g>
</svg>