<?xml version="1.0" standalone="no"?>
<!DOCTYPE svg PUBLIC "-//W3C//DTD SVG 20010904//EN"
 "http://www.w3.org/TR/2001/REC-SVG-20010904/DTD/svg10.dtd">
<svg version="1.0" xmlns="http://www.w3.org/2000/svg"
 width="96.000000pt" height="68.000000pt" viewBox="0 0 96.000000 68.000000"
 preserveAspectRatio="xMidYMid meet">
<metadata>
Created by potrace 1.16, written by Peter Selinger 2001-2019
Combined from part_0.svg through part_5.svg with named groups
</metadata>
<g transform="translate(0.000000,68.000000) scale(0.100000,-0.100000)" fill="#000000" stroke="none">
<g id="part-0" class="char-part">
  <path d="M287 556 c5 -50 4 -53 -18 -59 -13 -4 -41 -7 -61 -7 -20 0 -43 -3
-52 -6 -32 -12 -3 -24 60 -24 l65 0 -3 -27 c-3 -27 -5 -28 -66 -28 -34 0 -61
-2 -59 -5 12 -21 28 -62 39 -100 13 -44 14 -45 49 -42 29 3 37 -1 41 -16 9
-33 -6 -43 -86 -55 -42 -7 -78 -17 -79 -22 -3 -16 54 -17 111 -2 64 17 68 12
58 -62 -7 -54 -1 -81 19 -81 20 0 27 33 23 103 l-3 62 78 9 c42 5 77 13 77 18
0 12 -20 13 -100 3 l-55 -7 0 32 c0 31 1 31 45 28 l44 -3 21 57 c11 31 23 60
28 64 24 24 -36 49 -98 40 -34 -6 -45 -4 -45 6 0 27 18 39 68 45 62 7 88 29
48 39 -14 3 -42 3 -62 -1 -34 -6 -36 -5 -32 17 3 13 8 30 12 39 5 11 -1 19
-19 27 -48 22 -54 17 -48 -42z m113 -170 c0 -25 10 -23 -175 -41 -5 0 -13 4
-17 10 -17 23 -17 23 107 41 22 3 42 8 44 10 2 2 13 4 23 4 12 0 18 -7 18 -24z
m-10 -65 c0 -15 -13 -20 -75 -30 -80 -13 -95 -10 -95 19 0 16 9 20 58 23 31 2
69 4 85 5 20 2 27 -3 27 -17z"/>
  <path d="M531 578 c11 -20 38 -159 39 -195 0 -7 -20 -18 -45 -24 -60 -15 -72
-34 -16 -25 23 3 47 7 53 9 15 3 71 -162 59 -177 -6 -7 -42 -30 -80 -52 -39
-21 -71 -42 -71 -46 0 -9 99 34 146 62 l32 21 43 -46 c62 -66 131 -106 144
-85 8 13 -7 120 -16 120 -5 0 -11 -11 -15 -25 -3 -14 -13 -25 -23 -25 -19 0
-91 69 -91 87 0 7 23 39 51 73 41 50 48 64 39 76 -7 7 -23 14 -36 14 -19 0
-24 -5 -24 -27 0 -27 -38 -93 -53 -93 -4 0 -14 14 -21 30 -7 17 -14 28 -17 26
-3 -3 -5 3 -5 12 -1 9 -4 29 -9 45 -6 21 -4 27 9 27 25 0 136 34 136 41 0 17
-53 17 -103 0 l-56 -19 -7 66 c-4 42 -3 77 4 96 10 24 9 31 -6 42 -9 7 -30 14
-45 14 -26 0 -27 -2 -16 -22z"/>
  <path d="M703 494 c39 -36 60 -40 65 -11 4 18 -19 32 -68 40 l-35 7 38 -36z"/>
</g>
<g id="part-1" class="char-part">
  <path d="M288 545 l4 -55 -44 -1 c-23 -1 -56 -5 -73 -9 -47 -11 -5 -24 56 -17
l49 6 0 -30 c0 -24 4 -30 18 -27 10 2 18 14 20 30 3 23 10 28 53 37 28 6 57
11 64 11 8 0 15 4 15 9 0 16 -38 23 -74 13 -19 -6 -37 -8 -39 -5 -3 2 -1 20 5
40 11 39 1 53 -37 53 -18 0 -20 -5 -17 -55z"/>
</g>
<g id="part-2" class="char-part">
  <path d="M293 263 c-7 -3 -13 -17 -13 -33 0 -33 -6 -36 -103 -46 -37 -3 -70
-10 -73 -15 -10 -16 50 -22 106 -11 87 18 83 21 76 -56 -5 -54 -4 -71 8 -81
22 -18 30 3 36 89 l5 75 73 9 c39 5 72 12 72 17 0 14 -35 18 -75 9 -63 -15
-75 -13 -75 14 0 25 -15 36 -37 29z"/>
</g>
<g id="part-3" class="char-part">
  <path d="M531 579 c8 -17 39 -171 39 -200 0 -4 -20 -12 -45 -18 -61 -15 -59
-34 3 -25 l47 6 28 -82 28 -81 -23 -20 c-13 -10 -53 -36 -90 -56 -37 -20 -66
-38 -64 -40 6 -6 120 39 157 63 l36 23 64 -63 c55 -54 112 -87 125 -73 7 6 -8
127 -16 127 -4 0 -12 -11 -18 -25 -6 -14 -16 -25 -22 -25 -16 0 -90 71 -90 86
0 7 23 41 52 75 48 58 50 63 33 75 -31 23 -55 18 -55 -13 0 -27 -38 -93 -53
-93 -10 0 -46 80 -49 110 -3 20 5 25 62 41 96 28 97 28 80 39 -16 10 -41 7
-100 -10 -19 -5 -40 -10 -47 -10 -17 0 -28 105 -14 149 9 31 8 38 -6 49 -9 6
-30 12 -45 12 -26 0 -28 -2 -17 -21z"/>
  <path d="M702 495 c42 -39 68 -45 68 -15 0 22 -20 34 -70 43 l-35 7 37 -35z"/>
</g>
</g>
</svg>