<?xml version="1.0" standalone="no"?>
<!DOCTYPE svg PUBLIC "-//W3C//DTD SVG 20010904//EN"
 "http://www.w3.org/TR/2001/REC-SVG-20010904/DTD/svg10.dtd">
<svg version="1.0" xmlns="http://www.w3.org/2000/svg"
 width="96.000000pt" height="68.000000pt" viewBox="0 0 96.000000 68.000000"
 preserveAspectRatio="xMidYMid meet">
<metadata>
Created by potrace 1.16, written by Peter Selinger 2001-2019
Combined from part_0.svg through part_5.svg with named groups
</metadata>
<g transform="translate(0.000000,68.000000) scale(0.100000,-0.100000)" fill="#000000" stroke="none">
<g id="part-0" class="char-part">
  <path d="M415 610 c-16 -4 -51 -8 -76 -9 l-46 -1 4 -57 c2 -32 5 -73 6 -90 3
-29 0 -33 -23 -33 -43 0 -100 -12 -100 -21 0 -14 108 -11 113 4 3 6 6 2 6 -10
1 -13 -13 -33 -36 -52 -29 -24 -35 -33 -25 -43 8 -8 18 -9 35 -1 49 23 157 45
187 38 26 -6 30 -4 30 14 0 14 -9 25 -26 31 -37 14 -49 13 -34 -5 10 -12 10
-16 -1 -19 -26 -8 -108 -26 -118 -26 -20 0 -11 17 14 28 14 7 25 20 25 31 0
15 10 20 48 25 116 16 125 18 111 27 -12 8 -50 6 -124 -5 -5 -1 -16 -5 -22 -9
-9 -6 -13 -1 -13 16 0 23 4 25 66 30 70 5 87 13 64 28 -14 8 -25 8 -100 -7
-22 -4 -30 -2 -30 9 0 11 16 16 65 19 35 2 68 7 72 11 11 12 -19 28 -42 22
-64 -16 -95 -17 -95 -3 0 12 17 17 68 22 73 7 98 17 88 35 -8 12 -45 13 -91 1z"/>
  <path d="M670 610 c0 -6 -27 -30 -61 -55 -34 -25 -56 -45 -49 -45 17 0 170 82
170 91 0 8 -26 19 -46 19 -8 0 -14 -5 -14 -10z"/>
  <path d="M673 508 c-10 -11 -38 -34 -63 -49 -32 -21 -39 -29 -25 -29 11 0 36
8 55 19 19 10 52 24 73 30 45 15 47 26 8 39 -25 9 -32 7 -48 -10z"/>
  <path d="M694 412 c-7 -10 -41 -31 -78 -48 -36 -16 -66 -32 -66 -36 0 -13 204
52 224 72 6 6 0 13 -18 20 -38 14 -50 13 -62 -8z"/>
  <path d="M598 315 c-2 -3 -29 -7 -59 -10 -99 -9 -212 -25 -217 -30 -11 -10 32
-17 74 -11 53 7 57 -6 19 -53 -29 -33 -78 -67 -140 -94 l-40 -18 35 6 c19 4
49 9 66 12 31 5 32 4 49 -48 23 -71 24 -72 42 -57 19 15 13 15 141 16 92 2
102 4 102 20 0 10 11 29 25 42 14 13 25 29 25 35 0 13 -42 35 -66 35 -12 0
-10 5 5 21 11 12 29 40 40 63 l20 41 -21 18 c-18 15 -88 24 -100 12z m47 -36
c4 -5 4 -21 1 -34 -5 -18 -14 -25 -37 -27 l-31 -3 26 -28 c17 -18 21 -29 13
-32 -20 -6 -222 -22 -227 -18 -3 3 4 11 15 19 51 36 95 88 85 98 -19 19 -10
25 48 29 31 2 67 4 79 5 12 1 25 -3 28 -9z m-7 -181 c-4 -40 -21 -46 -134 -47
-81 -1 -82 -1 -87 26 -3 16 -4 30 -2 32 6 6 115 18 173 20 l53 1 -3 -32z"/>
</g>
<g id="part-1" class="char-part">
  <path d="M440 608 c-19 -4 -60 -8 -90 -9 l-55 -1 9 -84 c7 -58 14 -84 23 -84
13 0 18 24 14 68 -1 19 3 22 31 22 53 0 108 12 108 23 0 10 -70 5 -118 -9 -21
-6 -23 -4 -20 17 3 22 9 25 82 31 43 4 81 9 83 12 12 12 -35 22 -67 14z"/>
  <path d="M388 493 c-16 -2 -28 -9 -28 -15 0 -6 12 -8 31 -4 17 3 44 6 60 6 16
0 29 5 29 10 0 10 -38 11 -92 3z"/>
</g>
<g id="part-2" class="char-part">
  <path d="M699 414 c-13 -16 -65 -46 -134 -77 -34 -15 -36 -17 -10 -12 54 10
225 69 225 77 0 8 -42 28 -59 28 -5 0 -14 -7 -22 -16z"/>
</g>
<g id="part-3" class="char-part">
  <path d="M470 299 c-74 -9 -139 -18 -143 -18 -5 -1 -5 -6 -1 -12 7 -12 34 -10
209 11 90 11 115 7 115 -19 0 -26 -26 -44 -55 -39 l-24 5 20 -28 c13 -18 29
-29 45 -29 20 0 29 11 53 60 l29 60 -21 15 c-26 18 -53 18 -227 -6z"/>
</g>
<g id="part-4" class="char-part">
  <path d="M440 253 c0 -25 -71 -87 -142 -123 -59 -30 -61 -32 -24 -25 54 9 143
56 189 100 31 30 36 39 26 51 -16 19 -49 18 -49 -3z"/>
</g>
<g id="part-5" class="char-part">
  <path d="M635 151 c-3 -6 1 -13 9 -18 18 -10 21 -24 8 -32 -14 -9 -19 -53 -6
-58 6 -2 17 9 25 24 7 16 22 35 31 44 16 15 15 17 -18 32 -41 20 -41 20 -49 8z"/>
  <path d="M578 143 c7 -3 16 -2 19 1 4 3 -2 6 -13 5 -11 0 -14 -3 -6 -6z"/>
  <path d="M445 130 c-29 -8 -29 -8 7 -7 20 1 34 5 32 9 -3 4 -6 7 -7 7 -1 -1
-15 -5 -32 -9z"/>
  <path d="M370 128 c0 -2 9 -28 20 -58 11 -30 20 -56 20 -59 0 -2 7 2 16 10 13
11 13 15 2 24 -13 10 -15 16 -22 58 -1 12 -10 23 -19 25 -10 2 -17 2 -17 0z"/>
  <path d="M580 46 c0 -2 9 -6 20 -9 11 -3 20 -1 20 4 0 5 -9 9 -20 9 -11 0 -20
-2 -20 -4z"/>
  <path d="M493 33 c9 -2 25 -2 35 0 9 3 1 5 -18 5 -19 0 -27 -2 -17 -5z"/>
</g>
</g>
</svg>