<?xml version="1.0" standalone="no"?>
<!DOCTYPE svg PUBLIC "-//W3C//DTD SVG 20010904//EN"
 "http://www.w3.org/TR/2001/REC-SVG-20010904/DTD/svg10.dtd">
<svg version="1.0" xmlns="http://www.w3.org/2000/svg"
 width="96.000000pt" height="68.000000pt" viewBox="0 0 96.000000 68.000000"
 preserveAspectRatio="xMidYMid meet">
<metadata>
Created by potrace 1.16, written by Peter Selinger 2001-2019
Combined from part_0.svg through part_5.svg with named groups
</metadata>
<g transform="translate(0.000000,68.000000) scale(0.100000,-0.100000)" fill="#000000" stroke="none">
<g id="part-0" class="char-part">
  <path d="M460 614 c0 -5 11 -26 25 -45 l24 -36 -87 -8 c-169 -13 -186 -18
-153 -42 54 -37 -4 -268 -94 -379 -54 -66 -23 -64 44 3 68 68 95 130 119 271
10 64 20 96 32 102 9 5 92 14 186 20 187 12 214 16 214 29 0 21 -67 32 -131
21 -85 -13 -88 -13 -82 8 2 10 -4 25 -15 35 -21 19 -82 34 -82 21z"/>
  <path d="M494 455 l7 -35 -43 -2 c-24 -1 -51 -2 -60 -1 -10 0 -18 -4 -18 -9 0
-9 22 -11 89 -8 37 1 43 -1 37 -15 -3 -9 -6 -19 -6 -21 0 -2 -22 -4 -50 -4
-30 0 -50 -4 -50 -11 0 -8 17 -10 50 -7 43 4 50 3 50 -12 0 -14 -12 -19 -63
-24 -63 -7 -64 -8 -64 -37 0 -17 -5 -34 -12 -38 -9 -6 -8 -11 4 -21 12 -10 21
-10 41 -1 36 16 74 14 74 -5 0 -21 -90 -108 -129 -124 -39 -16 -41 -31 -3 -21
67 20 162 94 162 128 0 7 3 13 6 13 6 0 95 -72 139 -113 47 -44 62 -49 125
-42 33 4 62 11 65 15 3 5 -21 14 -52 21 -32 7 -80 23 -108 35 -50 22 -155 93
-155 105 0 11 43 19 108 19 60 0 63 -1 60 -22 -3 -20 -8 -23 -38 -20 l-35 3
32 -32 c38 -38 56 -34 81 18 9 21 22 41 27 46 6 4 2 13 -10 22 -15 12 -36 14
-95 10 -41 -4 -85 -8 -97 -11 -18 -3 -23 0 -23 15 0 16 9 21 58 26 31 3 64 7
72 8 8 1 15 8 15 15 0 8 8 19 18 26 9 7 17 16 17 19 0 13 -60 22 -112 17 -49
-4 -58 -3 -58 11 0 21 29 29 108 29 47 0 62 3 59 13 -3 8 -28 11 -87 9 -71 -2
-82 0 -76 13 4 11 -3 19 -20 25 -42 16 -47 13 -40 -25z m159 -110 c-3 -16 -93
-29 -106 -16 -9 9 -8 14 3 22 19 12 106 7 103 -6z m-153 -76 c0 -20 -20 -29
-61 -29 -40 0 -42 37 -1 42 48 7 62 4 62 -13z"/>
  <path d="M130 428 c0 -21 53 -68 77 -68 35 0 30 36 -9 60 -37 22 -68 26 -68 8z"/>
  <path d="M181 299 c-30 -16 -61 -29 -71 -29 -24 0 -31 -10 -19 -31 16 -31 51
-22 102 27 26 26 47 50 47 55 0 11 4 13 -59 -22z"/>
</g>
<g id="part-1" class="char-part">
  <path d="M470 604 c0 -3 9 -19 21 -36 12 -16 19 -31 17 -34 -3 -2 -54 -9 -114
-15 -131 -13 -146 -16 -121 -30 35 -20 15 -195 -35 -293 -11 -23 -36 -62 -54
-89 -19 -26 -30 -47 -25 -47 4 0 31 22 58 49 61 60 88 124 117 270 l21 106 45
6 c25 4 115 12 200 18 85 7 157 14 159 17 17 16 -34 24 -116 19 l-93 -6 0 25
c0 15 -8 30 -19 36 -21 11 -61 14 -61 4z"/>
  <path d="M140 422 c0 -18 59 -64 74 -59 22 9 20 23 -6 47 -21 20 -68 28 -68
12z"/>
  <path d="M200 305 c-19 -12 -52 -27 -72 -34 -41 -13 -45 -20 -26 -39 19 -19
31 -15 89 37 59 54 64 71 9 36z"/>
</g>
<g id="part-2" class="char-part">
  <path d="M494 455 c7 -35 7 -35 -31 -36 -21 -1 -49 -4 -63 -8 l-25 -7 25 -7
c14 -3 42 -4 64 0 l39 6 -5 -84 c-7 -127 -38 -174 -161 -245 -49 -28 -38 -31
30 -8 59 20 106 56 134 100 l21 34 32 -27 c18 -16 61 -52 96 -81 l63 -54 61 7
c88 10 96 20 29 34 -77 17 -135 43 -211 94 -49 33 -61 46 -57 62 2 11 8 54 11
96 l7 77 36 6 c20 3 58 6 84 6 35 0 47 4 44 13 -3 8 -27 11 -87 9 -71 -3 -82
-1 -77 12 7 17 -20 36 -48 36 -14 0 -16 -6 -11 -35z"/>
</g>
<g id="part-3" class="char-part">
  <path d="M570 374 c-47 -7 -104 -13 -127 -13 -25 -1 -43 -6 -43 -12 0 -8 18
-10 63 -5 182 20 187 20 187 2 0 -9 -1 -16 -2 -16 -2 0 -59 -7 -128 -15 -69
-8 -131 -15 -138 -15 -9 0 -11 -7 -7 -21 4 -13 1 -27 -10 -39 -22 -25 -10 -44
24 -36 82 19 204 36 254 36 55 0 58 -1 55 -22 -2 -19 -9 -23 -35 -22 l-33 2
23 -29 c32 -42 57 -34 89 28 26 51 27 53 7 63 -13 8 -61 6 -165 -5 -181 -19
-174 -19 -174 4 0 21 22 26 173 37 65 4 97 11 97 19 0 6 9 20 20 30 l21 19
-23 13 c-13 7 -27 12 -33 11 -5 0 -48 -6 -95 -14z"/>
</g>
</g>
</svg>