<?xml version="1.0" standalone="no"?>
<!DOCTYPE svg PUBLIC "-//W3C//DTD SVG 20010904//EN"
 "http://www.w3.org/TR/2001/REC-SVG-20010904/DTD/svg10.dtd">
<svg version="1.0" xmlns="http://www.w3.org/2000/svg"
 width="96.000000pt" height="68.000000pt" viewBox="0 0 96.000000 68.000000"
 preserveAspectRatio="xMidYMid meet">
<metadata>
Created by potrace 1.16, written by Peter Selinger 2001-2019
Combined from part_0.svg through part_5.svg with named groups
</metadata>
<g transform="translate(0.000000,68.000000) scale(0.100000,-0.100000)" fill="#000000" stroke="none">
<g id="part-0" class="char-part">
  <path d="M430 574 c-211 -27 -197 -24 -175 -40 11 -8 43 -14 77 -14 41 0 58
-4 58 -13 0 -16 -65 -87 -107 -116 -35 -24 -43 -48 -18 -57 8 -3 43 1 77 10
59 15 64 15 76 -1 6 -9 12 -31 12 -49 0 -29 -3 -32 -37 -38 -21 -3 -55 -6 -75
-6 -21 0 -38 -4 -38 -10 0 -6 32 -10 75 -10 l75 0 0 -44 c0 -29 -4 -43 -12
-43 -36 4 -267 -16 -278 -23 -28 -17 63 -22 203 -11 78 6 216 13 306 15 90 3
168 9 173 14 5 5 -3 14 -21 22 -24 9 -59 10 -162 1 -73 -6 -138 -11 -145 -11
-10 0 -14 14 -14 44 l0 44 80 7 c44 4 80 11 80 16 0 15 -49 22 -104 15 l-51
-6 3 38 c3 32 0 40 -19 48 -19 9 -12 12 50 23 64 12 74 11 90 -3 10 -9 25 -16
34 -16 23 0 22 42 0 63 -20 17 -123 59 -123 49 0 -3 12 -18 26 -33 l27 -28
-24 -5 c-39 -8 -178 -26 -202 -26 -18 0 -12 9 36 58 31 32 57 65 57 75 0 9 6
17 13 17 7 0 51 5 97 11 89 11 116 23 90 39 -19 12 -79 11 -210 -6z"/>
</g>
<g id="part-1" class="char-part">
  <path d="M485 575 c-44 -7 -115 -16 -158 -20 -42 -4 -75 -11 -71 -16 12 -20
354 0 379 23 13 12 -13 28 -45 26 -14 0 -61 -6 -105 -13z"/>
</g>
<g id="part-2" class="char-part">
  <path d="M390 518 c0 -24 -54 -89 -97 -115 -31 -20 -43 -34 -41 -48 4 -26 25
-25 201 9 l138 27 26 -21 c29 -23 43 -18 43 14 0 35 -43 65 -130 91 -24 7 -23
5 9 -28 l34 -36 -34 -5 c-59 -11 -173 -26 -194 -26 -15 0 -4 15 44 64 35 36
60 69 57 75 -10 15 -56 14 -56 -1z"/>
</g>
<g id="part-3" class="char-part">
  <path d="M419 341 c6 -11 11 -33 11 -50 0 -29 -1 -29 -67 -36 -103 -11 -111
-24 -15 -25 l82 0 0 -39 c0 -47 1 -47 -168 -57 -67 -3 -125 -10 -128 -15 -11
-18 55 -22 180 -11 72 7 176 12 232 12 130 0 284 11 284 20 0 4 -14 13 -30 20
-25 10 -58 10 -167 1 -86 -8 -139 -9 -145 -3 -5 5 -8 25 -6 43 l3 34 72 10
c39 6 74 13 78 17 12 11 -35 20 -93 16 l-56 -3 0 40 c-1 39 -2 40 -39 43 -36
3 -38 2 -28 -17z"/>
</g>
</g>
</svg>