<?xml version="1.0" standalone="no"?>
<!DOCTYPE svg PUBLIC "-//W3C//DTD SVG 20010904//EN"
 "http://www.w3.org/TR/2001/REC-SVG-20010904/DTD/svg10.dtd">
<svg version="1.0" xmlns="http://www.w3.org/2000/svg"
 width="96.000000pt" height="68.000000pt" viewBox="0 0 96.000000 68.000000"
 preserveAspectRatio="xMidYMid meet">
<metadata>
Created by potrace 1.16, written by Peter Selinger 2001-2019
Combined from part_0.svg through part_5.svg with named groups
</metadata>
<g transform="translate(0.000000,68.000000) scale(0.100000,-0.100000)" fill="#000000" stroke="none">
<g id="part-0" class="char-part">
  <path d="M400 616 c-12 -34 -77 -104 -112 -122 -19 -10 -28 -22 -28 -40 0 -31
20 -39 62 -25 39 14 53 2 37 -32 -12 -27 -20 -29 -143 -43 -79 -9 -48 -28 35
-22 62 5 65 -2 14 -43 -11 -9 -36 -31 -55 -48 -19 -17 -47 -36 -63 -42 -28
-12 -37 -29 -14 -29 7 0 17 4 22 8 6 5 31 21 57 36 l47 26 16 -24 c9 -13 21
-55 26 -91 11 -79 16 -90 35 -75 7 7 54 14 103 17 84 5 89 4 96 -16 8 -28 41
-27 59 1 8 13 20 61 25 107 10 75 9 85 -7 97 -16 13 -60 12 -142 -2 -65 -11
-190 -16 -190 -8 0 6 21 30 48 56 44 42 52 46 113 52 62 6 68 4 105 -23 21
-16 66 -54 99 -85 58 -54 62 -56 115 -55 96 1 104 13 25 39 -39 13 -83 30
-100 40 -59 32 -135 83 -131 87 4 4 71 10 134 12 31 1 28 17 -5 29 -19 6 -61
5 -128 -4 -55 -7 -113 -13 -129 -14 -25 0 -27 2 -15 16 10 12 10 20 2 34 -11
16 -5 19 63 32 62 13 77 13 92 2 28 -22 52 -17 52 10 0 28 -35 60 -86 76 -45
15 -54 6 -24 -25 l23 -25 -29 0 c-16 0 -54 -3 -84 -6 l-55 -6 55 56 55 57 -24
20 c-30 25 -40 24 -51 -5z m168 -450 c2 -38 -1 -72 -5 -76 -4 -4 -27 -5 -50
-2 -39 4 -43 6 -43 32 0 26 4 29 45 36 58 8 58 24 0 24 -44 0 -46 1 -41 28 2
15 5 28 5 30 1 2 20 2 44 0 l42 -3 3 -69z m-140 35 c5 -29 -12 -41 -59 -41
-25 0 -39 5 -43 16 -13 33 -6 43 32 47 58 6 67 3 70 -22z m0 -90 c-3 -24 -7
-26 -48 -26 -41 0 -45 2 -48 27 -3 24 0 27 35 30 54 5 65 -1 61 -31z"/>
</g>
<g id="part-1" class="char-part">
  <path d="M383 581 c-18 -28 -50 -61 -75 -77 -24 -15 -45 -28 -46 -30 -2 -1 -1
-12 3 -24 8 -25 -7 -26 179 9 101 19 111 20 134 5 16 -10 27 -13 34 -6 18 18
-2 50 -46 71 -58 28 -75 27 -47 -3 l23 -24 -54 -6 c-29 -4 -70 -9 -90 -12 -21
-3 -38 -2 -38 3 0 4 23 29 52 55 45 40 51 49 42 65 -20 32 -40 25 -71 -26z"/>
</g>
<g id="part-2" class="char-part">
  <path d="M367 428 c-13 -48 -29 -58 -121 -70 -66 -8 -84 -13 -71 -21 9 -5 44
-7 76 -5 l59 4 -23 -24 c-12 -13 -56 -49 -97 -80 -100 -75 -98 -73 -64 -63 48
14 135 70 194 126 53 50 58 53 122 58 l67 6 101 -84 101 -85 57 0 c84 0 96 14
31 35 -68 22 -156 66 -208 103 l-40 29 46 7 c25 3 61 6 79 6 19 0 34 4 34 10
0 20 -64 25 -153 13 -125 -16 -164 -16 -149 -1 17 17 15 45 -4 52 -26 10 -32
7 -37 -16z"/>
</g>
<g id="part-3" class="char-part">
  <path d="M455 253 c-49 -8 -111 -13 -138 -11 -49 3 -54 -1 -37 -31 5 -10 14
-49 20 -86 13 -79 17 -90 33 -76 7 5 53 12 103 16 87 7 92 6 98 -13 10 -31 33
-34 54 -7 13 16 23 55 30 111 16 123 12 125 -163 97z m113 -52 c3 -28 1 -33
-13 -27 -9 3 -32 6 -51 6 -32 0 -34 2 -30 28 2 15 5 28 5 30 1 2 20 2 44 0 40
-3 42 -5 45 -37z m-142 3 c8 -32 -7 -44 -57 -44 -25 0 -39 5 -43 16 -13 34 -6
43 37 47 23 2 45 4 49 5 4 1 11 -10 14 -24z m142 -81 c-2 -21 -6 -37 -10 -35
-5 1 -26 2 -48 2 -38 0 -40 2 -40 29 0 31 10 37 73 40 27 1 28 -1 25 -36z
m-140 -10 c-3 -25 -8 -28 -42 -31 -40 -3 -56 8 -56 41 0 14 9 17 51 17 49 0
50 -1 47 -27z"/>
</g>
</g>
</svg>