<?xml version="1.0" standalone="no"?>
<!DOCTYPE svg PUBLIC "-//W3C//DTD SVG 20010904//EN"
 "http://www.w3.org/TR/2001/REC-SVG-20010904/DTD/svg10.dtd">
<svg version="1.0" xmlns="http://www.w3.org/2000/svg"
 width="96.000000pt" height="68.000000pt" viewBox="0 0 96.000000 68.000000"
 preserveAspectRatio="xMidYMid meet">
<metadata>
Created by potrace 1.16, written by Peter Selinger 2001-2019
Combined from part_0.svg through part_5.svg with named groups
</metadata>
<g transform="translate(0.000000,68.000000) scale(0.100000,-0.100000)" fill="#000000" stroke="none">
<g id="part-0" class="char-part">
  <path d="M555 573 c-11 -46 -55 -131 -91 -178 -42 -56 -28 -58 31 -4 30 28 51
40 67 37 l23 -3 0 -187 c0 -129 4 -191 12 -199 21 -21 33 2 34 64 2 101 2 101
94 106 87 4 90 4 80 21 -5 8 -30 10 -86 5 l-79 -7 0 46 0 46 63 0 c61 0 98 12
84 26 -4 4 -37 3 -74 -3 -38 -6 -68 -10 -69 -9 -1 0 -4 24 -7 52 l-6 51 101
11 c55 6 103 13 106 16 23 24 -78 26 -193 3 -44 -8 -82 -13 -84 -11 -4 4 6 27
39 83 18 32 18 35 2 47 -26 20 -39 17 -47 -13z"/>
  <path d="M280 586 c0 -15 69 -66 88 -66 33 0 40 29 13 52 -20 16 -101 27 -101
14z"/>
  <path d="M315 445 c-23 -7 -69 -16 -103 -20 -67 -7 -88 -21 -49 -30 20 -6 113
13 162 31 27 11 17 -19 -21 -61 -20 -22 -49 -56 -66 -76 -17 -20 -53 -54 -80
-74 -27 -21 -47 -40 -44 -42 9 -9 86 39 139 87 30 27 58 50 62 50 8 0 0 -113
-11 -175 -3 -19 0 -37 10 -50 25 -33 36 -2 36 108 0 103 8 117 43 77 20 -24
47 -26 47 -5 0 8 -21 25 -47 38 -25 12 -48 27 -50 33 -2 6 14 29 37 50 22 21
40 41 40 44 0 7 -47 31 -58 29 -4 -1 -25 -7 -47 -14z"/>
</g>
<g id="part-1" class="char-part">
  <path d="M290 585 c0 -13 58 -55 77 -55 36 0 30 36 -8 49 -33 11 -69 15 -69 6z"/>
</g>
<g id="part-2" class="char-part">
  <path d="M269 327 c-35 -40 -85 -91 -112 -112 -26 -21 -45 -40 -43 -42 9 -9
104 49 155 94 l54 48 -6 -70 c-4 -38 -9 -88 -13 -110 -4 -28 -1 -46 10 -60 26
-33 36 -2 36 111 0 55 3 104 7 108 4 3 19 -7 34 -24 32 -35 49 -38 49 -11 0
22 -35 51 -61 51 -9 0 -22 7 -29 15 -11 13 -9 20 9 39 19 21 20 24 6 30 -28
10 -31 8 -96 -67z"/>
</g>
<g id="part-3" class="char-part">
  <path d="M554 573 c-10 -41 -52 -122 -91 -175 -19 -27 -30 -48 -24 -48 19 0
92 73 126 125 55 87 57 92 39 109 -23 24 -43 19 -50 -11z"/>
</g>
<g id="part-4" class="char-part">
  <path d="M660 470 c-118 -24 -134 -30 -100 -39 l25 -7 0 -187 c0 -126 4 -190
12 -198 22 -22 33 2 33 74 0 40 4 77 8 82 4 6 41 12 82 13 80 4 94 8 84 24 -4
6 -35 7 -85 3 l-79 -7 0 46 0 46 53 1 c28 1 66 5 82 9 56 13 -2 24 -69 13 -34
-6 -63 -9 -65 -7 -2 1 -4 21 -4 43 -1 23 -5 41 -9 41 -4 0 -8 4 -8 8 0 5 48
14 107 20 101 11 122 16 112 27 -14 14 -96 11 -179 -5z"/>
</g>
</g>
</svg>