<?xml version="1.0" standalone="no"?>
<!DOCTYPE svg PUBLIC "-//W3C//DTD SVG 20010904//EN"
 "http://www.w3.org/TR/2001/REC-SVG-20010904/DTD/svg10.dtd">
<svg version="1.0" xmlns="http://www.w3.org/2000/svg"
 width="96.000000pt" height="68.000000pt" viewBox="0 0 96.000000 68.000000"
 preserveAspectRatio="xMidYMid meet">
<metadata>
Created by potrace 1.16, written by Peter Selinger 2001-2019
Combined from part_0.svg through part_5.svg with named groups
</metadata>
<g transform="translate(0.000000,68.000000) scale(0.100000,-0.100000)" fill="#000000" stroke="none">
<g id="part-0" class="char-part">
  <path d="M297 543 c15 -122 17 -117 -61 -126 -38 -4 -72 -10 -75 -13 -15 -14
30 -24 87 -18 l62 6 0 -40 c0 -48 -7 -54 -107 -98 -86 -37 -100 -56 -54 -72
27 -9 35 -7 86 29 31 21 58 39 62 39 7 0 -1 -118 -10 -126 -3 -3 -20 -2 -36 4
-17 6 -31 8 -31 4 0 -13 85 -92 98 -92 28 0 44 70 37 161 l-7 87 41 28 c60 39
53 56 -11 29 -15 -6 -18 -2 -18 23 0 28 4 32 35 38 43 8 41 28 -3 32 -36 4
-39 15 -17 77 8 22 15 41 15 43 0 7 -67 42 -83 42 -15 0 -16 -7 -10 -57z"/>
  <path d="M625 554 c-44 -8 -95 -12 -112 -10 -36 5 -39 0 -18 -28 8 -10 17 -38
21 -62 6 -42 16 -55 28 -35 3 4 51 12 106 15 94 7 100 9 100 29 0 12 7 35 15
51 14 26 14 30 -2 42 -21 16 -34 16 -138 -2z m80 -51 c-3 -20 -7 -38 -8 -39
-1 -2 -36 -4 -77 -6 l-74 -3 -7 32 c-6 31 -4 33 25 38 69 11 82 12 114 14 33
1 33 1 27 -36z"/>
  <path d="M645 384 c-44 -7 -98 -13 -120 -13 l-40 -1 0 -112 c0 -85 3 -112 14
-116 7 -2 17 2 22 9 4 7 11 10 16 6 13 -14 -24 -61 -77 -97 -28 -19 -46 -36
-41 -38 13 -4 65 23 124 64 26 19 52 34 57 34 14 0 12 17 -2 23 -23 8 -4 15
47 17 78 4 95 1 95 -15 0 -24 29 -17 35 8 5 17 14 227 11 227 -1 0 -15 4 -31
8 -18 5 -63 3 -110 -4z m85 -38 c0 -21 -5 -24 -68 -29 -38 -4 -83 -10 -100
-13 -24 -5 -33 -3 -38 10 -10 26 7 36 77 45 117 15 129 14 129 -13z m3 -61 c8
-20 3 -22 -86 -34 -112 -16 -127 -15 -127 8 0 16 10 21 58 26 31 4 62 8 67 10
28 10 83 4 88 -10z m-1 -50 c3 -3 3 -15 1 -28 -4 -21 -10 -22 -109 -25 -100
-3 -104 -2 -104 17 0 12 6 21 13 22 59 2 153 11 156 15 6 6 37 5 43 -1z"/>
  <path d="M705 86 c60 -57 101 -81 111 -65 18 29 -55 87 -131 105 -29 7 -28 5
20 -40z"/>
</g>
<g id="part-1" class="char-part">
  <path d="M295 573 c5 -10 10 -48 13 -84 l4 -66 -66 -8 c-90 -9 -94 -25 -6 -25
l71 0 -3 -47 -3 -48 -92 -40 c-51 -22 -91 -44 -89 -50 1 -5 14 -14 29 -19 22
-8 35 -3 87 33 34 24 64 41 67 38 3 -3 1 -34 -4 -69 l-8 -63 -36 1 -36 1 44
-46 45 -46 19 24 c16 20 19 40 19 132 0 60 3 109 8 109 4 1 21 12 37 26 30 26
21 29 -27 9 -15 -6 -18 -2 -18 24 0 31 6 37 65 56 16 5 17 8 5 15 -8 6 -26 10
-39 10 -22 0 -23 3 -18 43 3 23 9 51 12 63 5 15 0 23 -20 32 -40 18 -69 16
-60 -5z"/>
</g>
<g id="part-2" class="char-part">
  <path d="M665 559 c-16 -5 -65 -10 -107 -11 -73 -3 -91 -9 -69 -23 5 -3 15
-30 22 -60 7 -33 18 -55 26 -55 7 0 13 4 13 9 0 5 45 12 100 16 90 6 100 9
100 27 0 10 7 33 16 50 15 30 15 32 -2 45 -20 15 -55 16 -99 2z m40 -51 c-4
-18 -10 -36 -14 -40 -3 -4 -37 -8 -76 -10 l-69 -3 -6 30 c-5 29 -3 31 40 42
25 6 64 12 88 12 l44 1 -7 -32z"/>
</g>
<g id="part-3" class="char-part">
  <path d="M610 379 c-25 -4 -63 -8 -85 -8 l-40 -1 0 -85 c0 -74 2 -85 18 -85 9
0 17 4 17 9 0 4 46 13 102 18 87 9 106 8 126 -5 12 -8 24 -13 26 -11 2 2 6 41
9 86 4 66 2 83 -10 87 -20 8 -108 5 -163 -5z m118 -35 c3 -19 -3 -22 -66 -27
-38 -4 -83 -10 -100 -13 -24 -5 -33 -3 -38 10 -10 26 7 36 77 45 96 13 123 10
127 -15z m6 -60 c4 -9 5 -18 4 -19 -5 -4 -169 -25 -195 -25 -16 0 -23 6 -23
20 0 20 19 26 105 33 92 8 103 7 109 -9z"/>
</g>
<g id="part-4" class="char-part">
  <path d="M526 120 c-9 -17 -41 -46 -69 -65 -54 -36 -50 -47 6 -19 25 13 98 58
147 92 8 6 -25 22 -45 22 -12 0 -28 -12 -39 -30z"/>
  <path d="M660 127 c0 -12 125 -107 141 -107 45 0 3 57 -61 83 -46 19 -80 29
-80 24z"/>
</g>
</g>
</svg>