<?xml version="1.0" standalone="no"?>
<!DOCTYPE svg PUBLIC "-//W3C//DTD SVG 20010904//EN"
 "http://www.w3.org/TR/2001/REC-SVG-20010904/DTD/svg10.dtd">
<svg version="1.0" xmlns="http://www.w3.org/2000/svg"
 width="96.000000pt" height="68.000000pt" viewBox="0 0 96.000000 68.000000"
 preserveAspectRatio="xMidYMid meet">
<metadata>
Created by potrace 1.16, written by Peter Selinger 2001-2019
Combined from part_0.svg through part_5.svg with named groups
</metadata>
<g transform="translate(0.000000,68.000000) scale(0.100000,-0.100000)" fill="#000000" stroke="none">
<g id="part-0" class="char-part">
  <path d="M544 572 c2 -9 7 -32 11 -49 6 -32 6 -33 -27 -33 -45 0 -79 -10 -72
-21 3 -5 27 -9 55 -9 41 0 49 -3 49 -19 0 -24 -12 -28 -83 -27 -31 1 -57 -2
-57 -6 0 -5 4 -8 10 -8 5 0 12 -12 16 -27 3 -16 9 -37 14 -48 4 -11 11 -29 15
-40 4 -14 8 -16 14 -7 4 7 21 14 37 15 25 2 29 -2 32 -25 4 -29 -11 -35 -108
-40 l-45 -3 26 -18 c26 -17 30 -17 138 12 61 16 113 25 117 20 3 -5 14 -14 25
-19 16 -9 19 -7 19 14 0 19 -8 27 -36 36 -26 9 -38 9 -43 1 -4 -6 -18 -12 -31
-13 -20 -2 -24 1 -22 17 2 11 6 22 8 24 6 7 59 5 76 -3 14 -6 23 4 48 55 29
60 30 65 13 77 -13 10 -36 12 -81 8 -55 -5 -63 -3 -60 11 4 20 23 30 71 38 54
9 36 29 -20 22 l-45 -5 5 34 c5 31 3 35 -21 40 -15 3 -33 8 -40 10 -9 2 -12
-2 -8 -14z m144 -173 c-2 -17 -11 -22 -45 -25 -37 -3 -43 -1 -43 15 0 19 17
27 68 30 18 1 23 -3 20 -20z m-128 -13 c0 -17 -72 -28 -82 -12 -15 21 -8 26
37 26 32 0 45 -4 45 -14z m125 -46 c0 -10 -13 -16 -42 -18 -38 -3 -43 -1 -43
18 0 19 5 21 43 18 29 -2 42 -8 42 -18z m-127 -7 c-5 -27 -54 -29 -68 -4 -10
20 -8 21 30 21 34 0 41 -3 38 -17z"/>
  <path d="M325 543 c-11 -8 -54 -31 -95 -51 -79 -37 -80 -52 -3 -32 54 13 65 5
61 -50 l-3 -35 -87 -9 c-49 -4 -88 -12 -88 -17 0 -16 49 -21 101 -10 29 6 54
9 57 6 11 -11 -25 -62 -89 -127 -70 -71 -71 -87 -4 -41 40 26 65 50 91 87 7
11 16 18 18 15 3 -2 0 -55 -6 -117 -7 -87 -7 -116 2 -128 10 -11 16 -12 26 -3
11 9 14 44 14 140 0 108 2 129 15 129 8 0 15 -4 15 -10 0 -5 11 -17 26 -26 18
-13 28 -14 36 -6 16 16 -15 49 -52 57 -15 3 -30 15 -33 25 -4 16 3 19 44 25
62 9 64 25 3 25 l-46 0 6 34 c5 24 2 39 -9 49 -13 14 -11 16 24 22 22 3 47 13
58 21 17 14 17 14 -1 29 -25 19 -56 19 -81 -2z"/>
  <path d="M760 174 c14 -15 30 -34 37 -41 19 -21 43 -16 43 10 0 26 -21 41 -70
52 l-35 7 25 -28z"/>
  <path d="M560 184 c0 -15 23 -45 42 -55 16 -9 22 -8 29 2 14 22 11 26 -25 43
-36 17 -46 19 -46 10z"/>
  <path d="M474 153 c19 -78 93 -123 202 -123 78 0 134 15 134 35 0 11 -88 65
-105 65 -3 0 -1 -9 6 -21 16 -31 0 -40 -64 -40 -73 0 -118 22 -146 71 -26 47
-36 51 -27 13z"/>
  <path d="M377 125 c-23 -49 -22 -67 5 -63 16 2 24 12 29 37 13 65 -8 81 -34
26z"/>
</g>
<g id="part-1" class="char-part">
  <path d="M327 540 c-14 -11 -54 -33 -89 -50 -78 -37 -51 -39 67 -3 105 31 117
39 91 59 -26 19 -39 18 -69 -6z"/>
</g>
<g id="part-2" class="char-part">
  <path d="M286 431 c7 -57 9 -56 -104 -67 -40 -4 -75 -10 -77 -15 -9 -14 62
-21 112 -11 26 6 50 9 52 6 10 -10 -29 -63 -96 -131 -39 -40 -70 -73 -67 -73
21 0 94 50 134 92 l50 52 -6 -65 c-3 -35 -10 -81 -14 -102 -9 -44 5 -97 25
-97 21 0 25 25 25 156 0 68 3 124 6 124 3 0 19 -11 36 -25 32 -27 58 -33 58
-12 0 19 -30 44 -62 52 -18 5 -28 14 -28 25 0 13 11 19 50 24 61 8 57 26 -6
26 l-45 0 7 36 c7 38 -4 54 -39 54 -15 0 -17 -6 -11 -49z"/>
</g>
<g id="part-3" class="char-part">
  <path d="M552 582 c-10 -7 -10 -15 -2 -37 16 -42 7 -52 -56 -60 -68 -8 -55
-27 16 -23 40 2 45 0 48 -20 5 -34 16 -30 59 21 6 8 30 17 53 21 56 9 42 30
-17 23 l-43 -5 6 34 c5 30 3 35 -21 44 -31 12 -27 12 -43 2z"/>
</g>
<g id="part-4" class="char-part">
  <path d="M683 244 c31 -32 39 -36 47 -24 12 20 -14 46 -55 56 l-30 6 38 -38z"/>
</g>
<g id="part-5" class="char-part">
  <path d="M772 181 c-8 -5 -2 -15 17 -32 29 -26 51 -27 51 -3 0 17 -52 45 -68
35z"/>
  <path d="M580 161 c14 -28 30 -35 43 -21 9 9 7 15 -7 26 -30 21 -49 19 -36 -5z"/>
  <path d="M390 135 c-14 -17 -22 -75 -10 -75 20 0 43 59 30 79 -5 9 -11 7 -20
-4z"/>
  <path d="M480 140 c0 -5 5 -10 11 -10 5 0 7 5 4 10 -3 6 -8 10 -11 10 -2 0 -4
-4 -4 -10z"/>
  <path d="M501 108 c-1 -11 17 -27 49 -43 28 -14 50 -23 50 -20 0 3 10 1 21 -6
17 -9 20 -8 17 3 -3 7 -15 15 -29 16 -13 2 -28 8 -33 13 -6 5 -18 9 -27 9 -9
0 -24 10 -32 23 -13 18 -16 19 -16 5z"/>
  <path d="M717 114 c7 -3 10 -11 7 -19 -4 -10 1 -12 17 -8 21 6 21 7 4 20 -11
7 -24 13 -29 12 -6 0 -6 -3 1 -5z"/>
  <path d="M745 80 c-11 -5 -34 -9 -51 -9 -18 -1 -34 -7 -37 -15 -11 -27 86 -30
137 -3 19 9 19 10 1 23 -21 16 -22 16 -50 4z m-48 -26 c-3 -3 -12 -4 -19 -1
-8 3 -5 6 6 6 11 1 17 -2 13 -5z"/>
</g>
</g>
</svg>