<?xml version="1.0" standalone="no"?>
<!DOCTYPE svg PUBLIC "-//W3C//DTD SVG 20010904//EN"
 "http://www.w3.org/TR/2001/REC-SVG-20010904/DTD/svg10.dtd">
<svg version="1.0" xmlns="http://www.w3.org/2000/svg"
 width="96.000000pt" height="68.000000pt" viewBox="0 0 96.000000 68.000000"
 preserveAspectRatio="xMidYMid meet">
<metadata>
Created by potrace 1.16, written by Peter Selinger 2001-2019
Combined from part_0.svg through part_5.svg with named groups
</metadata>
<g transform="translate(0.000000,68.000000) scale(0.100000,-0.100000)" fill="#000000" stroke="none">
<g id="part-0" class="char-part">
  <path d="M295 577 c-66 -11 -122 -21 -125 -24 -2 -2 1 -7 7 -11 8 -5 13 -48
15 -122 l3 -115 132 0 c72 0 135 3 139 8 4 4 1 15 -8 24 -14 13 -23 14 -62 4
-25 -6 -70 -11 -100 -11 l-56 0 0 104 0 103 38 7 c20 3 63 6 94 6 84 0 113 16
66 36 -16 7 -60 4 -143 -9z"/>
  <path d="M546 587 c-36 -11 -40 -16 -41 -47 -1 -19 -5 -45 -9 -57 -4 -13 -4
-23 1 -23 14 0 43 56 43 83 0 25 16 37 51 37 15 0 19 -7 19 -39 0 -51 16 -63
84 -59 68 4 71 23 4 23 -58 1 -65 7 -50 47 6 17 9 35 6 39 -7 12 -61 10 -108
-4z"/>
  <path d="M310 522 c0 -6 -12 -24 -26 -41 -27 -33 -22 -40 10 -16 27 20 43 19
49 -4 6 -23 -10 -31 -59 -31 -19 0 -34 -4 -34 -10 0 -5 18 -10 40 -10 48 0 51
-14 8 -40 -18 -11 -26 -20 -18 -20 23 1 56 22 80 53 15 19 31 27 53 27 18 0
39 5 47 11 11 8 4 9 -27 5 -41 -6 -43 -5 -43 19 0 20 5 25 25 25 14 0 25 5 25
11 0 8 -16 10 -50 5 -37 -5 -50 -4 -48 6 2 6 -5 14 -14 16 -10 2 -18 -1 -18
-6z"/>
  <path d="M563 446 c-28 -6 -55 -14 -58 -18 -4 -4 12 -16 35 -28 47 -24 48 -39
2 -60 -17 -8 -32 -18 -32 -22 0 -9 58 8 85 26 20 13 26 12 73 -15 57 -32 82
-37 82 -14 0 8 -22 26 -50 40 -27 14 -50 28 -50 32 0 4 9 17 21 29 40 43 0 54
-108 30z m65 -23 c-4 -23 -27 -27 -64 -12 l-29 13 40 6 c22 4 44 8 48 9 5 0 7
-7 5 -16z"/>
  <path d="M390 404 c0 -10 44 -43 58 -44 20 0 14 17 -13 34 -25 16 -45 21 -45
10z"/>
  <path d="M575 288 c-27 -5 -60 -12 -72 -14 -13 -2 -23 -9 -23 -14 0 -7 29 -8
80 -4 l80 7 0 -98 0 -98 -37 6 -36 6 33 -34 c38 -40 50 -42 72 -17 11 12 17
49 20 135 7 147 6 148 -117 125z"/>
  <path d="M313 271 c-46 -8 -83 -18 -83 -23 0 -6 18 -7 40 -4 22 3 58 9 79 12
l39 5 3 -48 c2 -26 2 -70 -1 -98 -5 -50 -5 -50 -39 -47 -39 3 -33 -11 17 -40
28 -17 30 -17 44 0 16 18 33 219 20 238 -13 19 -36 20 -119 5z"/>
  <path d="M510 220 c0 -15 29 -39 48 -40 6 0 12 9 12 20 0 11 -6 20 -14 20 -8
0 -21 3 -30 6 -9 4 -16 1 -16 -6z"/>
  <path d="M260 195 c26 -28 45 -32 53 -11 6 14 -31 36 -60 36 -13 0 -12 -5 7
-25z"/>
  <path d="M590 160 c-8 -5 -40 -17 -70 -26 -67 -21 -66 -20 -50 -39 18 -21 42
-19 76 9 16 13 40 33 54 45 25 21 18 29 -10 11z"/>
  <path d="M330 150 c-8 -5 -45 -19 -82 -31 -38 -13 -68 -26 -68 -29 0 -4 12
-12 26 -19 23 -10 30 -8 62 16 20 15 52 38 72 50 19 12 28 22 20 23 -8 0 -22
-5 -30 -10z"/>
</g>
<g id="part-1" class="char-part">
  <path d="M285 571 c-77 -13 -99 -20 -97 -31 2 -8 7 -64 10 -125 l7 -110 111 1
c117 1 155 7 137 25 -7 7 -40 6 -101 -2 -50 -6 -98 -9 -107 -6 -27 11 -18 210
11 221 8 3 54 8 104 12 86 7 108 15 74 28 -20 8 -28 7 -149 -13z"/>
</g>
<g id="part-2" class="char-part">
  <path d="M575 450 c-16 -4 -43 -11 -60 -15 l-30 -7 53 -27 c60 -30 59 -35 -19
-71 l-44 -21 40 6 c22 4 55 15 73 25 l32 19 47 -29 c26 -17 55 -30 66 -30 32
0 15 32 -30 55 -58 29 -60 32 -34 59 13 14 20 29 16 35 -7 13 -66 13 -110 1z
m55 -24 c0 -22 -16 -28 -56 -20 -40 7 -35 20 11 27 17 2 33 5 38 6 4 0 7 -5 7
-13z"/>
</g>
<g id="part-3" class="char-part">
  <path d="M275 266 c-80 -16 -55 -29 32 -16 37 5 71 6 76 1 4 -4 7 -48 5 -97
l-3 -89 -35 3 -35 3 35 -30 c42 -36 43 -36 62 -13 11 12 17 50 21 129 6 95 4
112 -9 117 -22 8 -79 5 -149 -8z"/>
</g>
<g id="part-4" class="char-part">
  <path d="M275 129 c-38 -16 -76 -29 -82 -29 -20 0 -15 -18 7 -30 23 -12 33 -8
117 50 66 47 54 50 -42 9z"/>
</g>
<g id="part-5" class="char-part">
  <path d="M568 147 c-16 -6 -28 -14 -28 -19 0 -13 13 -9 40 12 28 22 27 23 -12
7z"/>
  <path d="M514 121 c5 -7 1 -9 -8 -5 -9 3 -16 1 -16 -6 0 -6 -6 -8 -12 -4 -7 4
-6 -1 3 -10 14 -15 19 -16 38 -4 22 14 23 29 1 36 -7 3 -10 0 -6 -7z"/>
</g>
</g>
</svg>