<?xml version="1.0" standalone="no"?>
<!DOCTYPE svg PUBLIC "-//W3C//DTD SVG 20010904//EN"
 "http://www.w3.org/TR/2001/REC-SVG-20010904/DTD/svg10.dtd">
<svg version="1.0" xmlns="http://www.w3.org/2000/svg"
 width="96.000000pt" height="68.000000pt" viewBox="0 0 96.000000 68.000000"
 preserveAspectRatio="xMidYMid meet">
<metadata>
Created by potrace 1.16, written by Peter Selinger 2001-2019
Combined from part_0.svg through part_5.svg with named groups
</metadata>
<g transform="translate(0.000000,68.000000) scale(0.100000,-0.100000)" fill="#000000" stroke="none">
<g id="part-0" class="char-part">
  <path d="M406 643 c-3 -3 -3 -24 0 -47 3 -22 1 -53 -5 -68 -9 -25 -16 -28 -56
-28 -25 0 -45 -4 -45 -10 0 -5 18 -10 40 -10 41 0 47 -8 31 -39 -6 -11 -23
-18 -48 -19 -21 -1 -60 -5 -88 -8 -45 -6 -48 -8 -25 -16 14 -5 49 -7 79 -4 50
6 53 5 40 -11 -35 -43 -80 -77 -154 -115 -90 -45 -91 -46 -83 -54 9 -8 87 14
145 43 29 14 78 52 113 89 93 97 116 93 280 -50 l64 -57 80 3 c44 2 81 8 83
13 1 6 -33 21 -77 34 -89 27 -285 138 -230 131 44 -6 150 1 150 10 0 24 -51
29 -157 16 -59 -7 -111 -10 -115 -7 -4 4 -1 16 7 27 11 16 29 22 81 27 37 4
69 9 72 12 17 17 -43 24 -96 11 -18 -4 -36 -6 -38 -3 -3 3 2 22 10 42 14 32
21 75 13 75 -1 0 -16 4 -34 9 -17 5 -34 7 -37 4z"/>
  <path d="M530 590 c-23 -27 -37 -50 -32 -50 10 0 122 49 132 57 6 5 -38 43
-50 43 -5 0 -27 -22 -50 -50z"/>
  <path d="M270 592 c0 -15 59 -72 74 -72 24 0 20 46 -6 64 -23 17 -68 22 -68 8z"/>
  <path d="M504 381 c5 -8 3 -11 -6 -9 -14 3 -113 -46 -122 -60 -2 -4 10 -7 27
-7 21 0 33 -5 35 -16 3 -19 -24 -29 -80 -29 -21 0 -38 -5 -38 -11 0 -8 19 -9
60 -4 59 7 60 7 60 -18 0 -29 -10 -33 -132 -42 -48 -4 -86 -11 -83 -15 8 -13
55 -18 93 -10 20 4 56 11 80 14 41 6 42 5 42 -21 0 -55 -10 -73 -41 -73 -16 0
-29 -4 -29 -9 0 -11 49 -51 62 -51 23 0 42 37 49 92 4 33 9 61 11 63 2 2 44 5
93 6 111 2 128 7 84 26 -25 11 -54 13 -112 8 -79 -7 -79 -7 -75 16 2 20 10 25
50 29 84 10 72 26 -15 20 -28 -1 -42 3 -52 17 -20 26 -19 29 17 39 31 9 46 38
26 51 -7 4 -8 1 -4 -6z"/>
</g>
<g id="part-1" class="char-part">
  <path d="M410 586 c0 -129 -88 -251 -235 -327 -71 -37 -76 -40 -40 -35 95 16
220 106 268 193 34 63 79 195 69 205 -4 3 -19 10 -34 13 l-28 7 0 -56z"/>
  <path d="M560 621 c0 -5 -13 -23 -29 -40 -35 -37 -32 -38 36 -9 53 22 67 41
37 52 -23 9 -44 7 -44 -3z"/>
  <path d="M296 565 c30 -39 64 -47 64 -14 0 13 -11 25 -35 35 -52 22 -59 17
-29 -21z"/>
  <path d="M602 325 c100 -83 104 -85 153 -84 59 1 108 13 85 22 -8 2 -44 15
-80 27 -36 12 -102 44 -146 71 -45 27 -89 49 -98 49 -10 0 29 -38 86 -85z"/>
</g>
<g id="part-2" class="char-part">
  <path d="M405 520 c-5 -17 -15 -20 -61 -20 -30 0 -54 -4 -54 -10 0 -5 23 -10
50 -10 54 0 61 -9 30 -40 -15 -15 -34 -20 -77 -21 -32 -1 -71 -5 -88 -9 l-30
-7 28 -8 c16 -4 53 -5 83 -1 55 6 64 1 42 -23 -11 -11 -8 -12 16 -7 16 4 36
16 45 26 14 17 36 20 164 26 81 4 147 11 147 16 0 26 -85 27 -247 4 -24 -3
-33 -1 -33 9 0 27 30 42 99 49 39 4 71 11 71 16 0 16 -48 23 -81 11 -43 -15
-59 -14 -59 4 0 22 -38 18 -45 -5z"/>
</g>
<g id="part-3" class="char-part">
  <path d="M420 344 c-52 -33 -53 -34 -23 -34 19 0 33 -6 37 -16 9 -23 6 -24
-58 -31 -31 -3 -56 -10 -56 -16 0 -6 22 -8 60 -4 59 7 60 6 60 -18 0 -26 8
-24 -155 -43 -65 -8 -68 -9 -43 -20 21 -9 47 -8 110 3 46 8 84 15 86 15 1 0 2
-14 2 -31 0 -47 -16 -69 -52 -69 l-32 0 29 -30 c16 -17 37 -30 47 -30 21 0 48
48 48 87 0 72 2 73 111 73 102 0 127 9 82 29 -17 8 -53 10 -109 5 -81 -6 -84
-6 -84 14 0 17 8 22 38 27 74 12 81 24 15 24 -49 1 -63 4 -63 16 0 8 -4 15
-10 15 -25 0 -6 20 25 26 39 7 44 18 16 34 -24 12 -15 15 -81 -26z"/>
</g>
</g>
</svg>