<?xml version="1.0" standalone="no"?>
<!DOCTYPE svg PUBLIC "-//W3C//DTD SVG 20010904//EN"
 "http://www.w3.org/TR/2001/REC-SVG-20010904/DTD/svg10.dtd">
<svg version="1.0" xmlns="http://www.w3.org/2000/svg"
 width="96.000000pt" height="68.000000pt" viewBox="0 0 96.000000 68.000000"
 preserveAspectRatio="xMidYMid meet">
<metadata>
Created by potrace 1.16, written by Peter Selinger 2001-2019
Combined from part_0.svg through part_5.svg with named groups
</metadata>
<g transform="translate(0.000000,68.000000) scale(0.100000,-0.100000)" fill="#000000" stroke="none">
<g id="part-0" class="char-part">
  <path d="M558 526 l4 -64 -46 -7 c-54 -8 -65 -2 -48 26 15 23 10 35 -17 42
-19 5 -24 -9 -34 -88 -2 -23 -5 -23 143 4 136 26 150 26 150 1 0 -39 28 -19
48 35 19 53 19 56 2 65 -37 20 -49 13 -43 -25 6 -34 5 -35 -31 -37 -86 -4 -79
-8 -80 52 -1 51 -3 55 -27 58 -25 3 -25 3 -21 -62z"/>
  <path d="M325 503 c-11 -3 -58 -11 -105 -17 -93 -12 -108 -28 -33 -36 l48 -5
3 -57 3 -58 -41 0 c-22 0 -40 -4 -40 -10 0 -5 17 -10 39 -10 43 0 51 -12 51
-82 0 -34 -4 -39 -35 -52 -20 -9 -51 -18 -70 -22 -41 -7 -45 -20 -9 -36 27
-12 26 -13 187 73 64 34 71 49 12 25 -21 -9 -39 -16 -42 -16 -2 0 -3 28 -1 62
2 41 7 63 16 64 6 1 23 2 37 3 38 2 30 21 -9 21 l-34 0 -4 55 -3 55 48 6 c42
6 66 18 55 29 -7 8 -54 13 -73 8z"/>
  <path d="M580 407 c0 -6 7 -19 17 -29 9 -10 14 -20 12 -23 -3 -2 -32 -7 -64
-11 -57 -7 -59 -7 -42 10 14 14 15 21 6 32 -18 22 -39 16 -52 -15 -7 -17 -32
-50 -55 -75 -46 -49 -45 -58 3 -26 17 11 34 20 39 20 5 0 6 -52 3 -122 -4 -68
-2 -129 2 -137 13 -20 31 -4 31 28 l0 29 170 8 c187 10 233 27 83 32 -69 2
-93 6 -97 17 -12 31 5 45 54 45 51 0 74 14 39 23 -11 3 -36 3 -56 0 -32 -5
-35 -4 -31 18 1 13 10 25 18 26 8 1 33 5 55 8 38 7 39 8 15 17 -14 5 -38 7
-55 4 -27 -5 -30 -3 -30 19 0 21 6 26 35 31 78 12 90 16 84 26 -4 6 -29 7 -64
3 -55 -6 -59 -6 -62 16 -3 24 -58 49 -58 26z m10 -113 c0 -13 -6 -24 -12 -24
-7 0 -29 -3 -49 -6 -29 -5 -37 -3 -43 12 -3 11 -8 24 -11 30 -4 8 8 12 36 12
22 1 43 3 46 6 12 11 33 -8 33 -30z m2 -68 c4 -21 1 -24 -40 -30 -68 -9 -72
-8 -72 18 0 19 6 26 28 29 68 10 80 8 84 -17z m8 -80 c0 -25 -28 -36 -91 -36
-24 0 -29 4 -29 23 0 33 7 37 67 37 49 0 53 -2 53 -24z"/>
</g>
<g id="part-1" class="char-part">
  <path d="M260 488 c-30 -5 -70 -11 -88 -14 -43 -7 -31 -24 16 -24 57 0 213 31
206 41 -6 11 -59 10 -134 -3z"/>
</g>
<g id="part-2" class="char-part">
  <path d="M245 452 c-5 -4 -10 -32 -10 -62 l0 -55 -35 -3 c-55 -5 -61 -22 -8
-22 51 0 58 -10 58 -83 0 -41 -8 -46 -100 -70 -57 -14 -57 -14 -34 -32 32 -24
58 -17 168 43 113 61 137 84 56 52 l-50 -20 0 59 0 59 40 7 c54 9 61 25 11 25
l-41 0 0 55 c0 50 -2 55 -22 55 -13 0 -27 -4 -33 -8z"/>
</g>
<g id="part-3" class="char-part">
  <path d="M558 527 l4 -64 -48 -7 c-26 -3 -49 -4 -51 -2 -3 2 1 14 7 27 11 19
10 25 -6 36 -26 19 -34 16 -34 -12 0 -14 -7 -36 -15 -49 -14 -20 -14 -25 -1
-35 12 -10 32 -8 98 8 46 11 109 23 141 27 54 6 57 5 57 -16 0 -41 32 -18 50
37 18 57 13 73 -27 73 -19 0 -22 -4 -17 -29 7 -34 4 -36 -58 -45 l-48 -7 0 60
c0 60 0 61 -28 61 l-28 0 4 -63z"/>
</g>
<g id="part-4" class="char-part">
  <path d="M456 374 c-4 -14 -30 -51 -59 -82 l-52 -56 47 27 c26 15 50 27 54 27
4 0 4 -55 1 -122 -6 -115 1 -163 20 -144 13 12 22 259 11 274 -11 12 0 34 30
59 12 10 13 15 2 28 -20 24 -47 18 -54 -11z"/>
</g>
<g id="part-5" class="char-part">
  <path d="M610 225 c0 -18 -5 -25 -19 -25 -11 0 -23 -5 -27 -12 -5 -8 -2 -9 9
-5 32 12 45 -46 15 -67 -16 -12 -6 -13 74 -11 51 2 108 4 127 4 19 1 31 4 27
9 -4 4 -49 7 -99 7 l-92 0 0 42 c0 32 3 39 13 31 21 -18 23 -3 2 19 -10 12
-16 24 -13 27 4 3 1 6 -5 6 -7 0 -12 -11 -12 -25z"/>
  <path d="M680 196 c4 -4 16 -4 26 2 16 9 14 10 -8 9 -15 -1 -23 -6 -18 -11z"/>
  <path d="M505 100 c-4 -7 3 -8 22 -4 38 9 42 14 10 14 -14 0 -29 -5 -32 -10z"/>
</g>
</g>
</svg>