<?xml version="1.0" standalone="no"?>
<!DOCTYPE svg PUBLIC "-//W3C//DTD SVG 20010904//EN"
 "http://www.w3.org/TR/2001/REC-SVG-20010904/DTD/svg10.dtd">
<svg version="1.0" xmlns="http://www.w3.org/2000/svg"
 width="96.000000pt" height="68.000000pt" viewBox="0 0 96.000000 68.000000"
 preserveAspectRatio="xMidYMid meet">
<metadata>
Created by potrace 1.16, written by Peter Selinger 2001-2019
Combined from part_0.svg through part_5.svg with named groups
</metadata>
<g transform="translate(0.000000,68.000000) scale(0.100000,-0.100000)" fill="#000000" stroke="none">
<g id="part-0" class="char-part">
  <path d="M616 579 c29 -32 54 -43 68 -29 15 16 -27 50 -62 50 -25 0 -25 0 -6
-21z"/>
  <path d="M440 582 c0 -4 16 -25 35 -47 20 -21 34 -43 32 -48 -1 -5 -27 -18
-57 -27 -54 -17 -54 -18 -19 -19 20 -1 51 4 69 10 29 11 34 9 58 -16 l25 -28
-24 -18 c-27 -21 -22 -24 15 -10 19 8 30 6 48 -8 51 -39 116 -71 146 -71 28 0
32 3 31 28 -1 15 -4 38 -9 52 l-7 25 -11 -27 c-6 -14 -15 -29 -21 -32 -19 -12
-111 37 -111 58 0 3 18 15 40 26 46 23 50 37 15 46 -19 5 -30 0 -48 -22 -22
-25 -27 -27 -51 -16 -35 16 -33 30 9 48 49 20 44 28 -16 21 l-50 -6 -20 44
c-17 39 -24 45 -49 45 -17 0 -30 -4 -30 -8z"/>
  <path d="M247 554 c-3 -3 -2 -17 4 -31 5 -13 9 -46 9 -73 0 -55 0 -55 -92 -66
-42 -4 -58 -10 -58 -21 0 -13 13 -15 70 -11 l69 4 -26 -46 c-14 -25 -53 -73
-86 -107 -36 -37 -55 -63 -46 -63 22 0 104 56 134 92 14 17 27 29 29 27 2 -2
0 -35 -5 -74 -11 -100 -11 -129 4 -149 13 -17 14 -17 30 -1 13 13 17 35 17
103 0 48 3 104 6 124 6 36 6 37 27 17 26 -24 43 -24 51 -2 8 19 -14 40 -51 50
-38 9 -29 40 15 47 47 8 67 20 57 36 -5 8 -23 11 -51 7 l-44 -5 6 52 c4 28 8
53 10 55 2 2 -3 13 -13 23 -16 17 -53 24 -66 12z"/>
  <path d="M456 319 c29 -57 26 -64 -33 -75 -18 -3 -33 -11 -33 -16 0 -9 46 -5
91 8 11 3 25 -9 42 -35 31 -46 30 -47 -64 -90 -80 -37 -47 -41 47 -6 l66 25
41 -34 c75 -60 178 -97 215 -77 19 10 19 14 7 48 -7 21 -17 47 -20 58 -6 17
-9 15 -18 -15 -10 -29 -17 -36 -45 -38 -34 -3 -105 31 -133 64 -12 15 -12 18
5 28 10 6 36 24 58 39 40 29 40 29 18 44 -20 14 -24 13 -58 -18 -20 -19 -38
-37 -40 -41 -8 -17 -28 -6 -45 23 -21 37 -17 45 27 53 19 4 40 14 47 23 15 17
14 17 -92 -4 -24 -5 -27 -1 -34 33 -8 43 -18 54 -53 54 l-22 0 26 -51z"/>
  <path d="M560 355 c0 -11 32 -34 48 -35 6 0 12 7 12 15 0 8 -6 15 -14 15 -8 0
-21 3 -30 6 -9 3 -16 3 -16 -1z"/>
</g>
<g id="part-1" class="char-part">
  <path d="M257 518 c4 -24 8 -61 8 -83 l0 -40 -50 -8 c-104 -17 -115 -25 -37
-26 39 -1 72 -4 72 -8 0 -22 -64 -114 -105 -152 -25 -23 -44 -45 -41 -48 9 -9
73 36 116 83 l43 47 -9 -84 c-11 -112 -10 -147 5 -162 10 -9 15 -8 27 7 10 15
14 52 14 144 l0 124 31 -26 c37 -31 49 -33 49 -5 0 14 -12 25 -40 37 -52 22
-53 48 -2 57 20 3 44 10 52 15 24 16 -6 29 -48 23 l-35 -6 7 65 c7 62 6 65
-19 76 -41 19 -46 16 -38 -30z"/>
</g>
<g id="part-2" class="char-part">
  <path d="M628 570 c32 -30 52 -35 59 -14 6 18 -13 32 -52 39 l-40 6 33 -31z"/>
  <path d="M440 584 c0 -3 13 -23 28 -43 47 -60 48 -59 -15 -78 -51 -16 -55 -18
-28 -21 16 -2 46 1 67 7 34 11 39 9 63 -15 l27 -27 -23 -18 c-27 -21 -22 -24
16 -9 23 9 32 6 58 -16 57 -48 157 -81 170 -57 2 5 -2 31 -8 58 l-11 50 -12
-33 c-6 -18 -18 -35 -26 -38 -16 -6 -106 40 -106 55 0 4 18 17 40 30 46 26 50
38 15 47 -19 5 -30 0 -50 -25 -23 -26 -29 -29 -45 -18 -33 20 -31 36 5 51 49
21 43 30 -13 23 l-49 -6 -21 45 c-19 38 -26 44 -52 44 -16 0 -30 -3 -30 -6z"/>
</g>
<g id="part-3" class="char-part">
  <path d="M430 361 c0 -4 8 -19 19 -32 10 -13 21 -34 25 -46 6 -19 1 -23 -51
-39 -66 -20 -50 -30 26 -16 51 9 51 9 71 -23 11 -18 20 -38 20 -44 0 -7 -33
-28 -72 -46 -89 -42 -56 -49 41 -10 l62 26 37 -32 c67 -59 181 -101 220 -80
20 11 20 11 -1 67 l-21 57 -11 -34 c-19 -57 -81 -51 -160 15 -30 24 -30 25
-10 41 11 8 37 24 58 35 42 23 46 35 16 50 -17 10 -26 6 -64 -29 -25 -23 -48
-41 -53 -41 -13 0 -45 61 -36 69 5 4 29 13 53 20 62 18 41 37 -25 23 -27 -6
-51 -9 -55 -6 -4 2 -10 19 -13 38 -4 19 -14 37 -22 40 -23 9 -54 7 -54 -3z"/>
  <path d="M560 349 c0 -10 34 -29 49 -29 25 0 8 28 -19 32 -16 3 -30 1 -30 -3z"/>
</g>
</g>
</svg>