<?xml version="1.0" standalone="no"?>
<!DOCTYPE svg PUBLIC "-//W3C//DTD SVG 20010904//EN"
 "http://www.w3.org/TR/2001/REC-SVG-20010904/DTD/svg10.dtd">
<svg version="1.0" xmlns="http://www.w3.org/2000/svg"
 width="96.000000pt" height="68.000000pt" viewBox="0 0 96.000000 68.000000"
 preserveAspectRatio="xMidYMid meet">
<metadata>
Created by potrace 1.16, written by Peter Selinger 2001-2019
Combined from part_0.svg through part_5.svg with named groups
</metadata>
<g transform="translate(0.000000,68.000000) scale(0.100000,-0.100000)" fill="#000000" stroke="none">
<g id="part-0" class="char-part">
  <path d="M303 578 c-6 -7 -14 -24 -18 -38 -15 -47 -49 -90 -72 -90 -20 0 -21
-3 -13 -26 6 -14 10 -50 10 -80 l0 -54 -50 0 c-37 0 -50 -4 -50 -15 0 -15 61
-31 79 -20 30 18 -9 -127 -45 -166 -9 -11 -14 -22 -10 -26 22 -22 106 117 106
174 0 28 8 33 70 40 l51 6 -3 -94 -3 -94 -32 1 c-40 2 -41 -5 -5 -39 33 -32
46 -33 64 -9 10 13 27 17 73 18 129 0 384 17 379 25 -3 5 -23 12 -45 15 l-39
7 26 45 c26 44 26 46 8 59 -15 12 -42 13 -144 7 -69 -5 -142 -8 -162 -7 -21 0
-38 0 -38 -1 0 -2 6 -16 14 -32 8 -16 18 -46 21 -66 l7 -38 -41 0 -41 0 0 110
0 110 25 0 c14 0 25 5 25 10 0 6 -12 10 -26 10 l-27 0 6 70 c5 66 5 70 -16 75
-12 3 -41 -1 -64 -9 -24 -8 -43 -12 -43 -8 0 3 23 29 51 58 39 39 47 53 37 61
-23 19 -55 24 -65 11z m53 -264 c-4 -9 -22 -14 -56 -14 l-50 0 0 60 0 59 38 6
c20 4 44 7 52 8 11 2 16 -11 18 -52 2 -29 1 -60 -2 -67z m363 -113 c7 -5 11
-17 8 -27 -3 -11 -8 -31 -11 -46 -6 -24 -11 -28 -42 -28 -20 0 -34 3 -32 8 2
4 14 28 26 55 24 49 28 52 51 38z m-170 -50 c16 -50 14 -61 -13 -61 -19 0 -25
7 -30 36 -4 19 -9 41 -12 49 -6 13 26 27 37 16 4 -3 11 -21 18 -40z m78 4 c-2
-25 -7 -48 -10 -51 -12 -13 -37 6 -37 28 0 13 -3 33 -6 46 -6 19 -3 22 26 22
32 0 32 0 27 -45z"/>
  <path d="M280 376 c0 -16 32 -46 48 -46 16 0 15 25 0 37 -24 18 -48 23 -48 9z"/>
  <path d="M573 516 c-39 -6 -74 -14 -78 -17 -12 -13 32 -15 88 -4 52 10 57 10
57 -6 0 -24 -27 -49 -52 -49 -20 0 -20 -1 -5 -18 10 -10 17 -21 17 -25 0 -6
-35 -13 -110 -21 -25 -3 -47 -5 -50 -6 -3 0 2 -5 10 -10 14 -9 68 -7 128 6 19
4 22 0 22 -23 0 -37 -14 -57 -34 -50 -9 4 -16 3 -16 -2 0 -11 44 -51 57 -51
16 0 30 50 26 91 l-5 36 83 6 c45 4 84 9 87 12 14 14 -18 20 -94 17 -102 -3
-112 13 -34 56 53 29 61 45 31 62 -22 11 -29 11 -128 -4z"/>
  <path d="M278 244 c-9 -9 25 -64 40 -64 20 0 10 41 -14 56 -11 8 -23 12 -26 8z"/>
</g>
<g id="part-1" class="char-part">
  <path d="M273 512 c-17 -37 -30 -68 -27 -71 6 -6 122 102 123 115 1 13 -22 24
-47 23 -11 0 -29 -25 -49 -67z"/>
</g>
<g id="part-2" class="char-part">
  <path d="M287 360 c18 -31 53 -41 53 -16 0 17 -37 46 -58 46 -10 0 -9 -7 5
-30z"/>
  <path d="M360 309 c-19 -5 -86 -12 -147 -15 -62 -4 -113 -11 -113 -15 0 -5 10
-14 22 -20 17 -9 53 -6 180 17 87 16 158 32 158 36 0 10 -55 8 -100 -3z"/>
</g>
<g id="part-3" class="char-part">
  <path d="M562 515 c-39 -6 -75 -14 -78 -17 -11 -12 52 -18 86 -8 19 5 45 10
58 10 l23 0 -21 -31 c-12 -16 -20 -32 -17 -35 6 -7 117 55 117 65 0 12 -48 31
-73 30 -12 -1 -55 -7 -95 -14z"/>
</g>
<g id="part-4" class="char-part">
  <path d="M584 421 c10 -11 16 -23 13 -28 -3 -5 -36 -10 -73 -11 -78 -4 -111
-16 -72 -25 14 -4 51 -2 84 3 32 6 60 10 62 10 2 0 2 -17 0 -37 -3 -35 -5 -38
-32 -36 l-29 2 28 -29 c48 -50 65 -37 65 50 l0 48 78 7 c97 8 101 9 77 22 -13
7 -43 9 -83 4 -57 -7 -65 -5 -88 16 -30 28 -54 31 -30 4z"/>
</g>
<g id="part-5" class="char-part">
  <path d="M645 190 c3 -5 1 -19 -5 -30 -12 -22 -1 -27 18 -8 17 17 15 48 -4 48
-8 0 -12 -4 -9 -10z"/>
  <path d="M557 138 c3 -24 9 -50 14 -58 5 -9 6 3 3 30 -2 25 -5 51 -6 58 -1 6
-5 12 -9 12 -4 0 -5 -19 -2 -42z"/>
  <path d="M631 123 c0 -6 -3 -18 -6 -25 -4 -10 4 -14 25 -16 19 -1 29 2 25 7
-3 6 -12 8 -20 5 -8 -4 -15 3 -18 18 -2 13 -5 18 -6 11z"/>
  <path d="M758 102 c-46 -6 -31 -17 21 -17 27 0 47 3 45 6 -6 10 -36 15 -66 11z"/>
  <path d="M428 73 c7 -3 16 -2 19 1 4 3 -2 6 -13 5 -11 0 -14 -3 -6 -6z"/>
  <path d="M538 73 c7 -3 16 -2 19 1 4 3 -2 6 -13 5 -11 0 -14 -3 -6 -6z"/>
</g>
</g>
</svg>