<?xml version="1.0" standalone="no"?>
<!DOCTYPE svg PUBLIC "-//W3C//DTD SVG 20010904//EN"
 "http://www.w3.org/TR/2001/REC-SVG-20010904/DTD/svg10.dtd">
<svg version="1.0" xmlns="http://www.w3.org/2000/svg"
 width="96.000000pt" height="68.000000pt" viewBox="0 0 96.000000 68.000000"
 preserveAspectRatio="xMidYMid meet">
<metadata>
Created by potrace 1.16, written by Peter Selinger 2001-2019
Combined from part_0.svg through part_5.svg with named groups
</metadata>
<g transform="translate(0.000000,68.000000) scale(0.100000,-0.100000)" fill="#000000" stroke="none">
<g id="part-0" class="char-part">
  <path d="M500 599 c-25 -5 -89 -10 -143 -12 l-98 -2 6 -50 c13 -99 -42 -244
-127 -339 -28 -31 -49 -59 -46 -61 2 -2 27 9 56 26 64 37 123 121 153 220 l20
67 62 6 c34 3 104 9 155 12 76 5 92 9 92 23 0 9 12 34 26 54 14 21 24 40 22
41 -30 26 -94 32 -178 15z m82 -54 c-2 -16 -5 -31 -5 -32 -5 -5 -165 -23 -203
-23 -43 0 -44 1 -38 28 4 15 8 29 10 31 5 5 195 29 219 28 16 -2 19 -8 17 -32z"/>
  <path d="M478 361 c5 -91 5 -91 -105 -91 -63 0 -90 -13 -53 -25 11 -4 51 -3
88 0 42 5 63 4 57 -2 -33 -31 -99 -75 -160 -107 -52 -28 -62 -35 -37 -31 40 8
178 71 187 85 3 6 11 10 16 10 7 0 8 -23 4 -64 -8 -70 -1 -106 20 -106 25 0
36 37 29 100 -11 98 -5 100 83 26 78 -66 78 -66 138 -65 33 1 71 4 85 8 24 7
24 8 -10 16 -111 25 -290 109 -290 135 0 6 33 11 73 11 39 1 86 5 102 8 l30 8
-25 12 c-18 8 -47 9 -104 3 l-78 -8 4 72 c5 67 3 73 -16 78 -40 11 -41 8 -38
-73z"/>
  <path d="M611 369 c-18 -22 -31 -42 -29 -45 7 -7 118 46 118 56 0 10 -33 30
-47 30 -4 0 -23 -19 -42 -41z"/>
  <path d="M360 362 c0 -14 40 -52 55 -52 21 0 19 24 -3 43 -19 18 -52 23 -52 9z"/>
</g>
<g id="part-1" class="char-part">
  <path d="M495 594 c-44 -7 -114 -13 -155 -13 l-75 -1 0 -89 c0 -83 -3 -93 -42
-173 -23 -46 -61 -106 -84 -132 -42 -47 -42 -48 -12 -33 80 42 131 111 169
232 l22 70 151 10 c82 6 153 14 157 18 4 4 4 7 0 7 -4 0 5 20 19 43 14 24 25
46 25 49 0 8 -60 28 -79 27 -9 -1 -52 -8 -96 -15z m95 -37 c0 -44 -19 -54
-128 -66 -143 -15 -134 -17 -130 27 l3 37 85 11 c47 6 104 12 128 13 38 1 42
-1 42 -22z"/>
</g>
<g id="part-2" class="char-part">
  <path d="M474 424 c3 -9 6 -38 6 -65 0 -45 2 -49 24 -49 21 0 24 5 29 57 6 62
0 73 -42 73 -17 0 -22 -4 -17 -16z"/>
  <path d="M605 363 c-22 -26 -33 -44 -25 -41 8 3 35 14 60 23 61 24 69 33 46
51 -29 21 -37 18 -81 -33z"/>
  <path d="M370 340 c25 -35 60 -41 60 -10 0 22 -27 40 -60 40 l-21 0 21 -30z"/>
</g>
<g id="part-3" class="char-part">
  <path d="M480 296 c0 -10 -19 -16 -67 -21 -100 -9 -120 -14 -102 -26 8 -6 45
-7 88 -3 48 4 71 2 67 -4 -9 -15 -104 -76 -174 -112 -34 -17 -62 -33 -62 -35
0 -11 114 31 178 65 l72 39 -1 -27 c-1 -15 -4 -40 -8 -57 -9 -36 6 -85 25 -85
25 0 34 36 27 115 -7 90 -11 90 97 0 63 -53 67 -55 125 -55 116 0 117 10 4 47
-97 31 -182 76 -209 109 -11 12 -2 14 61 15 41 1 88 5 104 8 l30 8 -27 13
c-20 9 -45 10 -102 3 -61 -7 -76 -6 -76 4 0 7 -11 13 -25 13 -15 0 -25 -6 -25
-14z"/>
</g>
</g>
</svg>