<?xml version="1.0" standalone="no"?>
<!DOCTYPE svg PUBLIC "-//W3C//DTD SVG 20010904//EN"
 "http://www.w3.org/TR/2001/REC-SVG-20010904/DTD/svg10.dtd">
<svg version="1.0" xmlns="http://www.w3.org/2000/svg"
 width="96.000000pt" height="68.000000pt" viewBox="0 0 96.000000 68.000000"
 preserveAspectRatio="xMidYMid meet">
<metadata>
Created by potrace 1.16, written by Peter Selinger 2001-2019
Combined from part_0.svg through part_5.svg with named groups
</metadata>
<g transform="translate(0.000000,68.000000) scale(0.100000,-0.100000)" fill="#000000" stroke="none">
<g id="part-0" class="char-part">
  <path d="M288 605 c-3 -3 -3 -38 0 -79 l4 -73 -33 -6 c-19 -3 -60 -9 -91 -13
-57 -6 -80 -23 -35 -25 28 -2 20 -2 100 6 l67 7 0 -41 c0 -36 -3 -41 -22 -41
l-22 0 21 -21 c31 -31 53 -19 53 30 0 22 4 51 10 65 8 22 16 25 65 28 30 2 54
7 53 13 -2 6 -28 9 -61 7 -56 -4 -58 -3 -55 20 3 20 10 24 52 28 49 5 72 24
43 36 -8 3 -31 1 -51 -4 -35 -10 -36 -10 -36 19 0 22 -6 32 -26 39 -30 12 -29
12 -36 5z"/>
  <path d="M605 540 c-11 -5 -41 -9 -67 -9 -27 -1 -48 -4 -48 -7 0 -3 23 -26 50
-51 28 -25 50 -53 50 -63 0 -17 -62 -68 -100 -83 -9 -3 -5 -6 10 -6 14 -1 47
10 74 24 l49 25 34 -30 c29 -26 41 -30 86 -29 29 1 63 4 77 9 28 8 25 11 -56
34 -53 15 -114 43 -114 52 0 5 9 19 57 90 16 23 19 34 10 43 -13 13 -83 14
-112 1z m49 -38 c-12 -36 -28 -62 -39 -62 -6 0 -26 15 -44 33 l-34 32 54 11
c62 12 70 10 63 -14z"/>
  <path d="M390 392 c0 -13 45 -52 59 -52 24 0 5 34 -26 47 -18 7 -33 9 -33 5z"/>
  <path d="M178 348 c-15 -23 -25 -44 -23 -47 8 -8 85 49 85 63 0 11 -20 26 -33
26 -1 0 -14 -19 -29 -42z"/>
  <path d="M445 284 c-44 -7 -95 -13 -112 -13 -31 -1 -32 -2 -21 -27 9 -19 9
-45 -1 -111 -11 -76 -10 -88 4 -102 13 -13 17 -14 24 -2 6 10 38 15 104 19 89
4 96 3 109 -17 7 -11 18 -21 25 -21 24 0 33 41 33 154 0 149 3 147 -165 120z
m119 -30 c10 -26 0 -31 -71 -38 -37 -3 -85 -9 -105 -12 -36 -6 -38 -5 -38 20
0 27 10 32 80 39 91 10 128 7 134 -9z m4 -76 c-3 -21 -11 -24 -93 -35 -128
-16 -125 -17 -125 11 0 26 -1 26 140 39 82 8 82 8 78 -15z m-1 -64 c10 -27 -9
-33 -116 -40 l-103 -7 4 23 c3 21 9 24 73 28 39 2 72 6 74 8 12 11 62 2 68
-12z"/>
</g>
<g id="part-1" class="char-part">
  <path d="M291 568 c5 -18 9 -52 9 -75 0 -36 3 -43 20 -43 16 0 20 7 20 30 0
25 4 30 24 30 40 0 86 12 86 23 0 6 -20 7 -55 3 l-55 -6 6 26 c7 29 -7 44 -43
44 -20 0 -21 -3 -12 -32z"/>
</g>
<g id="part-2" class="char-part">
  <path d="M615 545 c-22 -8 -59 -14 -82 -14 -24 -1 -43 -3 -43 -5 0 -2 25 -30
55 -62 63 -65 63 -68 -20 -115 -42 -24 -46 -29 -25 -29 14 0 47 11 73 26 l48
25 35 -30 c30 -27 42 -31 87 -30 29 1 63 4 77 9 28 8 30 7 -71 40 -108 34
-109 36 -60 109 22 34 41 64 41 66 0 4 -61 25 -69 24 -3 -1 -24 -7 -46 -14z
m20 -86 l-17 -31 -39 38 -40 39 53 10 c47 9 53 9 56 -6 2 -10 -4 -32 -13 -50z"/>
</g>
<g id="part-3" class="char-part">
  <path d="M440 283 c-47 -7 -97 -12 -113 -10 -24 3 -26 1 -20 -17 5 -12 7 -56
6 -99 -1 -60 1 -77 12 -77 8 0 18 6 22 14 5 9 42 18 106 26 87 10 101 10 116
-4 35 -31 41 -20 41 74 0 120 -1 121 -170 93z m125 -38 c0 -17 -10 -21 -75
-29 -126 -15 -135 -14 -138 11 -2 16 3 24 20 27 39 9 90 13 143 12 43 -1 50
-4 50 -21z m5 -69 c0 -22 -5 -24 -72 -30 -40 -4 -90 -9 -110 -13 -36 -5 -38
-4 -38 20 0 23 4 26 53 31 28 3 66 8 82 9 78 10 85 8 85 -17z"/>
</g>
<g id="part-4" class="char-part">
  <path d="M568 91 c-4 -12 -218 -30 -218 -19 0 4 -11 8 -25 8 -29 0 -35 -30 -9
-51 13 -11 17 -11 25 3 7 12 29 16 103 17 86 2 97 0 108 -19 16 -25 34 -26 48
-1 17 33 13 71 -9 71 -11 0 -21 -4 -23 -9z"/>
</g>
</g>
</svg>