<?xml version="1.0" standalone="no"?>
<!DOCTYPE svg PUBLIC "-//W3C//DTD SVG 20010904//EN"
 "http://www.w3.org/TR/2001/REC-SVG-20010904/DTD/svg10.dtd">
<svg version="1.0" xmlns="http://www.w3.org/2000/svg"
 width="96.000000pt" height="68.000000pt" viewBox="0 0 96.000000 68.000000"
 preserveAspectRatio="xMidYMid meet">
<metadata>
Created by potrace 1.16, written by Peter Selinger 2001-2019
Combined from part_0.svg through part_5.svg with named groups
</metadata>
<g transform="translate(0.000000,68.000000) scale(0.100000,-0.100000)" fill="#000000" stroke="none">
<g id="part-0" class="char-part">
  <path d="M296 572 c-9 -37 -53 -91 -63 -76 -9 13 -67 44 -83 44 -20 0 -9 -15
31 -45 l41 -30 -54 -47 c-58 -52 -48 -62 21 -23 53 31 59 31 67 1 10 -43 -13
-73 -136 -175 -19 -15 -21 -20 -9 -21 20 0 82 41 127 83 l32 31 -1 -45 c0 -53
-13 -137 -22 -146 -4 -3 -23 -2 -41 4 -19 6 -37 8 -40 6 -9 -9 78 -84 93 -81
8 2 23 16 35 31 19 25 21 42 21 150 0 92 -5 135 -18 177 l-19 54 46 44 c25 24
46 47 46 52 0 11 -41 40 -56 40 -7 0 -15 -12 -18 -28z"/>
  <path d="M457 536 c-26 -62 -49 -85 -84 -78 -25 5 -27 4 -14 -12 11 -13 13
-44 9 -144 -3 -70 -3 -133 -1 -139 6 -16 30 -17 35 -3 2 6 29 14 61 17 47 5
57 9 57 25 0 10 6 31 14 47 24 46 8 58 -60 43 -31 -6 -60 -10 -64 -7 -4 2 -5
17 -2 34 4 28 7 30 62 36 44 5 57 10 53 21 -2 7 2 27 11 45 22 43 12 53 -46
46 -56 -7 -55 -3 11 58 36 34 35 55 -2 55 -17 0 -26 -11 -40 -44z m33 -116 c0
-24 -6 -33 -26 -40 -37 -14 -51 -12 -56 8 -10 42 6 58 60 61 18 1 22 -4 22
-29z m-4 -207 c-3 -3 -23 -9 -46 -13 -40 -7 -40 -7 -40 25 0 30 3 33 43 41 41
9 42 9 45 -19 2 -16 1 -31 -2 -34z"/>
  <path d="M690 480 c-19 -4 -56 -11 -83 -15 -60 -8 -51 -25 14 -25 l49 0 0 -39
c0 -43 -10 -51 -67 -51 -32 0 -35 -2 -29 -22 3 -13 6 -47 6 -75 0 -40 4 -53
15 -53 11 0 15 13 17 50 2 74 2 74 18 82 35 16 37 9 45 -152 4 -88 11 -160 15
-160 15 0 20 32 20 134 0 57 3 124 6 150 6 44 8 46 40 46 l34 0 0 -60 c0 -59
-1 -60 -27 -60 l-28 0 28 -27 c25 -25 28 -26 43 -11 9 9 22 49 29 89 16 91 7
102 -69 93 l-48 -6 4 36 c2 20 -1 37 -7 39 -21 8 2 16 58 19 31 2 57 8 57 13
0 13 -93 16 -140 5z"/>
</g>
<g id="part-1" class="char-part">
  <path d="M300 573 c0 -23 -42 -83 -58 -83 -7 0 -29 11 -49 25 -51 34 -56 21
-8 -20 l40 -35 -50 -45 -50 -46 55 28 c30 15 58 29 61 31 26 12 41 -225 19
-284 -10 -24 -14 -26 -51 -21 l-41 5 33 -34 c42 -43 69 -44 94 -2 27 46 26
227 -2 309 l-19 56 43 49 c46 52 52 68 27 78 -27 11 -44 7 -44 -11z"/>
</g>
<g id="part-2" class="char-part">
  <path d="M248 350 c-25 -38 -58 -72 -111 -114 -26 -21 -45 -41 -43 -43 9 -9
105 50 141 87 28 29 36 44 33 66 l-3 28 -17 -24z"/>
</g>
<g id="part-3" class="char-part">
  <path d="M465 554 c-8 -20 -24 -48 -35 -65 -35 -48 -1 -35 54 20 49 50 52 64
16 74 -16 4 -24 -2 -35 -29z"/>
</g>
<g id="part-4" class="char-part">
  <path d="M460 290 c-14 -4 -39 -8 -56 -9 -28 -1 -32 -5 -38 -38 -13 -81 -3
-101 40 -78 16 8 48 15 72 15 37 0 42 3 42 23 1 12 7 33 14 46 8 14 12 31 9
38 -6 14 -44 16 -83 3z m32 -46 c-4 -36 -8 -40 -54 -48 -38 -7 -38 -7 -38 28
0 31 3 35 38 44 50 13 58 10 54 -24z"/>
</g>
<g id="part-5" class="char-part">
  <path d="M755 370 c-39 -7 -38 -8 24 -14 19 -1 22 -80 5 -123 -10 -25 -10 -34
0 -42 9 -7 17 -2 30 20 10 16 15 36 13 43 -3 8 -2 30 3 51 10 44 3 68 -17 61
-8 -3 -11 -1 -8 4 3 6 3 9 -2 9 -4 -1 -26 -5 -48 -9z"/>
  <path d="M599 343 c-13 -3 -16 -16 -15 -63 2 -68 12 -88 18 -36 2 21 0 36 -7
36 -5 0 -4 4 4 9 8 5 11 16 8 24 -3 9 -1 18 6 20 17 6 5 14 -14 10z"/>
</g>
</g>
</svg>