<?xml version="1.0" standalone="no"?>
<!DOCTYPE svg PUBLIC "-//W3C//DTD SVG 20010904//EN"
 "http://www.w3.org/TR/2001/REC-SVG-20010904/DTD/svg10.dtd">
<svg version="1.0" xmlns="http://www.w3.org/2000/svg"
 width="96.000000pt" height="68.000000pt" viewBox="0 0 96.000000 68.000000"
 preserveAspectRatio="xMidYMid meet">
<metadata>
Created by potrace 1.16, written by Peter Selinger 2001-2019
Combined from part_0.svg through part_5.svg with named groups
</metadata>
<g transform="translate(0.000000,68.000000) scale(0.100000,-0.100000)" fill="#000000" stroke="none">
<g id="part-0" class="char-part">
  <path d="M557 584 c-3 -4 -2 -15 4 -26 5 -10 9 -44 7 -76 l-3 -57 -37 -3 c-39
-3 -47 5 -26 26 8 8 8 15 -2 27 -21 25 -37 17 -44 -22 -3 -21 -13 -51 -21 -67
-20 -38 -14 -42 15 -11 19 20 33 25 72 25 l48 0 0 -44 0 -44 -75 -7 c-90 -9
-100 -25 -15 -25 33 0 60 -4 60 -9 0 -13 -46 -68 -104 -123 -27 -27 -43 -48
-37 -48 20 0 72 39 118 89 23 25 44 43 47 40 3 -2 0 -39 -6 -82 -11 -84 -6
-127 16 -127 20 0 26 23 27 108 1 42 4 90 8 105 6 28 6 28 21 7 98 -140 98
-140 143 -139 23 1 53 4 66 8 20 5 15 10 -47 39 -64 31 -172 120 -172 143 0 5
36 9 80 9 46 0 80 4 80 10 0 16 -48 23 -111 16 l-59 -7 0 44 0 45 56 7 c73 9
69 31 -5 27 l-52 -4 7 61 c5 43 3 65 -6 76 -13 15 -42 20 -53 9z"/>
  <path d="M254 543 c-15 -69 -80 -179 -147 -250 -17 -18 -28 -35 -25 -39 7 -7
87 45 107 70 8 9 24 16 37 16 19 0 24 -5 24 -25 0 -27 -4 -30 -64 -40 -49 -8
-36 -23 24 -27 l45 -3 3 -50 c4 -63 -11 -75 -95 -75 -60 0 -63 -1 -53 -20 24
-45 44 -45 179 1 69 23 128 44 130 46 3 2 0 8 -6 14 -8 8 -24 7 -59 -5 -26 -9
-49 -16 -51 -16 -5 0 -1 74 6 100 5 18 17 27 44 33 49 12 47 27 -3 27 -36 0
-40 2 -40 25 0 20 6 27 30 32 17 3 33 10 36 14 8 13 -38 28 -56 19 -8 -4 -32
-10 -52 -14 l-38 -7 33 54 c32 56 45 60 76 30 18 -18 55 -12 59 9 2 11 -9 23
-30 34 -18 9 -45 30 -59 45 -34 36 -47 36 -55 2z"/>
  <path d="M346 209 l-26 -50 41 23 c57 32 66 45 43 63 -28 21 -31 20 -58 -36z"/>
  <path d="M150 197 c0 -21 47 -60 64 -54 21 8 20 23 -4 47 -23 23 -60 27 -60 7z"/>
</g>
<g id="part-1" class="char-part">
  <path d="M255 528 c-15 -66 -93 -191 -154 -245 -20 -17 -22 -22 -10 -23 9 0
39 20 67 45 55 50 76 55 92 24 18 -32 5 -47 -44 -54 -27 -4 -43 -11 -40 -17 4
-6 25 -8 50 -4 l44 6 0 -65 c0 -36 -5 -67 -11 -71 -6 -3 -40 -9 -75 -12 -35
-2 -64 -9 -64 -13 0 -5 13 -15 28 -23 26 -14 36 -12 143 26 149 52 172 74 45
42 l-27 -6 3 62 3 63 38 11 c43 12 40 26 -5 26 -21 0 -28 5 -28 20 0 11 -1 23
-2 27 -2 4 12 11 30 15 17 5 32 13 32 18 0 13 -17 13 -79 -2 -28 -6 -54 -9
-57 -6 -3 4 11 32 31 63 l36 57 28 -26 c15 -14 35 -26 45 -26 28 0 15 39 -19
58 -16 9 -38 27 -48 40 -26 31 -44 28 -52 -10z"/>
  <path d="M351 210 l-21 -42 40 23 c41 23 50 51 19 57 -11 2 -24 -12 -38 -38z"/>
  <path d="M167 180 c18 -31 53 -41 53 -16 0 17 -37 46 -58 46 -10 0 -9 -7 5
-30z"/>
</g>
<g id="part-2" class="char-part">
  <path d="M443 422 c-11 -37 -19 -69 -17 -72 6 -6 50 46 70 83 12 22 13 32 3
43 -21 26 -34 14 -56 -54z"/>
</g>
<g id="part-3" class="char-part">
  <path d="M556 573 c5 -10 8 -47 9 -83 l0 -65 -42 -3 c-57 -4 -55 -22 2 -22 38
0 45 -3 45 -20 0 -13 7 -20 20 -20 14 0 20 7 20 24 0 21 6 24 55 31 53 6 69
17 41 28 -7 3 -32 3 -55 0 l-41 -6 7 63 c5 54 4 65 -12 76 -11 8 -27 14 -38
14 -15 0 -17 -4 -11 -17z"/>
</g>
<g id="part-4" class="char-part">
  <path d="M570 336 c0 -20 -6 -24 -46 -30 -26 -3 -60 -6 -76 -6 -19 0 -27 -4
-22 -11 4 -7 27 -10 60 -7 32 3 54 1 54 -5 0 -16 -81 -116 -119 -148 -20 -16
-30 -29 -23 -29 23 0 98 58 132 100 18 23 34 39 37 36 2 -2 -1 -40 -7 -85 -13
-87 -8 -131 15 -131 19 0 24 21 27 138 1 56 5 102 8 102 3 0 29 -34 59 -75 58
-83 75 -91 149 -80 l47 7 -73 37 c-66 33 -172 121 -172 143 0 4 28 8 63 9 34
0 71 4 82 8 19 8 19 8 -4 16 -13 4 -51 4 -86 0 -57 -6 -63 -5 -68 14 -7 29
-37 27 -37 -3z"/>
</g>
</g>
</svg>