<?xml version="1.0" standalone="no"?>
<!DOCTYPE svg PUBLIC "-//W3C//DTD SVG 20010904//EN"
 "http://www.w3.org/TR/2001/REC-SVG-20010904/DTD/svg10.dtd">
<svg version="1.0" xmlns="http://www.w3.org/2000/svg"
 width="96.000000pt" height="68.000000pt" viewBox="0 0 96.000000 68.000000"
 preserveAspectRatio="xMidYMid meet">
<metadata>
Created by potrace 1.16, written by Peter Selinger 2001-2019
Combined from part_0.svg through part_5.svg with named groups
</metadata>
<g transform="translate(0.000000,68.000000) scale(0.100000,-0.100000)" fill="#000000" stroke="none">
<g id="part-0" class="char-part">
  <path d="M575 622 c-3 -3 -5 -24 -5 -47 0 -50 -13 -65 -58 -65 -43 0 -38 -24
6 -28 36 -4 35 -2 22 -36 -15 -42 7 -40 35 2 26 39 27 40 106 46 43 4 79 11
79 16 0 15 -43 24 -93 21 l-49 -3 17 32 c12 23 13 35 5 45 -11 14 -56 26 -65
17z"/>
  <path d="M295 580 c-3 -5 2 -23 11 -40 10 -16 15 -32 12 -35 -3 -3 -35 -8 -72
-12 -36 -3 -66 -9 -66 -13 0 -4 12 -15 26 -25 27 -17 51 -15 120 12 8 3 18 -5
24 -21 13 -36 40 -34 40 3 0 25 6 32 34 42 44 16 36 31 -13 27 -32 -3 -36 0
-39 22 -2 14 -7 28 -10 31 -14 13 -61 19 -67 9z"/>
  <path d="M444 398 c3 -18 2 -38 -2 -44 -4 -7 -66 -15 -155 -20 -86 -5 -147
-13 -147 -19 1 -18 52 -24 124 -15 39 5 95 11 124 15 l53 6 -3 -48 -3 -48 -79
-5 c-67 -4 -77 -7 -64 -18 9 -7 24 -45 33 -83 16 -64 20 -70 39 -64 11 3 74 9
139 12 108 5 117 7 112 24 -4 11 5 41 19 70 23 45 24 52 11 66 -12 12 -30 13
-90 8 -82 -8 -81 -9 -69 54 l6 31 161 2 c110 2 162 7 164 15 8 23 -59 34 -158
23 -51 -5 -109 -10 -126 -10 -30 0 -32 2 -23 24 7 20 5 27 -15 40 -41 27 -58
21 -51 -16z m136 -212 c0 -12 -5 -36 -10 -53 -10 -29 -14 -30 -94 -39 -108
-12 -112 -11 -120 36 -3 21 -8 45 -12 53 -4 12 8 15 67 16 40 1 75 4 78 6 2 3
24 5 48 5 38 0 43 -2 43 -24z"/>
</g>
<g id="part-1" class="char-part">
  <path d="M576 570 c-4 -28 -12 -53 -19 -55 -7 -2 -25 -7 -42 -11 l-30 -7 33
-10 c30 -9 32 -13 27 -41 l-6 -31 21 25 c12 14 28 33 35 43 12 13 30 17 85 17
39 0 70 4 70 10 0 14 -46 23 -91 17 -42 -6 -45 -1 -28 37 14 29 -1 56 -31 56
-13 0 -19 -12 -24 -50z"/>
  <path d="M309 544 c28 -47 19 -54 -68 -54 l-64 0 19 -21 c19 -22 22 -22 121
-3 28 5 33 3 39 -20 3 -14 13 -26 21 -26 10 0 12 8 8 34 -6 32 -5 34 29 40 48
9 46 25 -2 19 -35 -5 -38 -3 -47 28 -8 29 -15 34 -44 37 l-34 3 22 -37z"/>
</g>
<g id="part-2" class="char-part">
  <path d="M444 398 c3 -18 2 -38 -2 -45 -4 -7 -62 -14 -160 -19 -84 -4 -155
-10 -158 -15 -11 -18 74 -29 147 -20 41 5 96 12 123 15 l49 6 -5 -51 c-5 -46
-4 -50 15 -47 16 2 24 15 32 48 l11 45 144 2 c80 2 156 5 169 8 l24 6 -23 16
c-27 19 -77 21 -213 9 l-98 -9 10 26 c9 22 7 29 -12 42 -12 8 -30 15 -40 15
-16 0 -18 -5 -13 -32z"/>
</g>
<g id="part-3" class="char-part">
  <path d="M505 230 c-27 -5 -89 -9 -137 -9 l-88 -1 20 -32 c11 -18 22 -51 26
-74 9 -63 11 -64 89 -54 39 5 101 9 139 10 57 0 67 2 62 16 -7 17 17 80 40
105 13 15 12 18 -10 33 -27 17 -59 18 -141 6z m75 -37 c0 -10 -5 -34 -10 -55
l-10 -36 -84 -7 c-47 -4 -90 -5 -97 -3 -13 4 -42 89 -33 97 5 5 122 16 197 19
29 2 37 -2 37 -15z"/>
</g>
</g>
</svg>