<?xml version="1.0" standalone="no"?>
<!DOCTYPE svg PUBLIC "-//W3C//DTD SVG 20010904//EN"
 "http://www.w3.org/TR/2001/REC-SVG-20010904/DTD/svg10.dtd">
<svg version="1.0" xmlns="http://www.w3.org/2000/svg"
 width="96.000000pt" height="68.000000pt" viewBox="0 0 96.000000 68.000000"
 preserveAspectRatio="xMidYMid meet">
<metadata>
Created by potrace 1.16, written by Peter Selinger 2001-2019
Combined from part_0.svg through part_5.svg with named groups
</metadata>
<g transform="translate(0.000000,68.000000) scale(0.100000,-0.100000)" fill="#000000" stroke="none">
<g id="part-0" class="char-part">
  <path d="M550 579 c0 -15 21 -53 34 -61 22 -14 -8 -23 -81 -24 l-75 -1 -18
-40 c-19 -42 -13 -76 8 -51 6 8 15 26 21 41 9 22 17 27 46 27 42 0 45 -16 12
-57 -54 -67 -54 -67 -32 -56 34 19 95 91 89 106 -4 10 4 16 25 19 30 4 31 3
31 -32 0 -54 23 -70 99 -70 46 0 62 3 59 13 -3 7 -28 13 -67 15 l-63 3 7 37
c8 44 18 52 68 52 38 0 48 -15 25 -38 -19 -19 -3 -24 46 -11 57 14 64 24 34
50 -20 17 -33 19 -95 15 -40 -3 -78 -7 -85 -8 -7 -2 -12 3 -10 10 4 23 -17 50
-48 60 -20 7 -30 8 -30 1z"/>
  <path d="M257 505 c7 -84 11 -80 -80 -90 -75 -8 -71 -29 6 -33 31 -2 57 -5 57
-8 0 -13 -76 -123 -108 -156 -20 -21 -33 -40 -29 -44 10 -11 74 35 118 84 l42
47 -7 -60 c-18 -156 -18 -170 -3 -190 13 -16 17 -17 31 -6 13 11 16 35 17 120
1 58 4 117 8 129 l6 24 19 -21 c22 -25 42 -27 50 -6 6 17 -17 43 -51 56 -37
14 -30 47 12 55 19 3 38 10 41 15 6 11 -44 32 -57 23 -11 -6 -12 5 -9 68 1 38
-2 48 -18 57 -47 25 -52 17 -45 -64z"/>
  <path d="M516 344 c-4 -15 -32 -53 -63 -85 -31 -33 -52 -59 -47 -59 5 0 36 21
69 46 55 41 61 43 72 28 16 -21 17 -73 3 -145 -11 -58 1 -109 25 -109 17 0 25
23 25 70 l0 37 80 7 c74 7 95 16 70 31 -5 3 -39 1 -75 -6 -36 -6 -69 -9 -72
-5 -3 3 -7 16 -8 29 -3 23 1 25 68 31 39 4 73 9 76 12 9 8 -23 24 -39 20 -8
-3 -34 -7 -56 -11 -34 -5 -42 -3 -48 12 -3 10 -9 23 -12 30 -6 14 63 26 184
32 12 1 22 5 22 10 0 18 -51 21 -120 6 -39 -8 -83 -15 -97 -15 -26 0 -26 0 -7
21 16 17 16 22 4 29 -27 17 -48 11 -54 -16z"/>
</g>
<g id="part-1" class="char-part">
  <path d="M256 548 c5 -18 9 -53 9 -78 l0 -45 -68 -11 c-90 -15 -95 -24 -14
-24 37 0 67 -4 67 -8 0 -17 -78 -129 -114 -165 -20 -21 -30 -37 -23 -37 20 0
80 49 113 93 48 63 49 57 23 -115 -10 -66 -2 -108 21 -108 22 0 30 46 30 167
l1 128 20 -27 c11 -16 30 -28 41 -28 31 0 18 33 -20 50 -26 11 -32 19 -30 39
2 20 10 27 32 31 40 7 39 24 -3 28 l-33 3 7 54 c6 48 4 55 -17 69 -37 26 -51
21 -42 -16z"/>
</g>
<g id="part-2" class="char-part">
  <path d="M540 581 c0 -4 11 -24 24 -44 l24 -35 -30 -6 c-47 -9 -103 -7 -114 4
-8 8 -17 -5 -32 -41 -12 -28 -19 -55 -16 -60 11 -18 25 -8 40 30 15 37 18 39
67 44 29 2 94 10 145 17 51 7 96 9 100 6 3 -4 0 -16 -7 -27 -7 -12 -10 -23 -8
-25 8 -8 107 20 107 30 -1 13 -40 43 -61 47 -17 3 -126 -10 -147 -19 -11 -4
-14 -1 -9 11 9 25 -2 46 -34 62 -32 17 -49 19 -49 6z"/>
</g>
<g id="part-3" class="char-part">
  <path d="M610 446 c0 -40 3 -45 31 -55 45 -16 132 -15 127 2 -3 7 -29 14 -64
17 l-59 5 3 38 c2 32 0 37 -18 37 -17 0 -20 -6 -20 -44z"/>
  <path d="M506 435 c-8 -19 -26 -46 -40 -60 -32 -31 -20 -32 22 -2 36 27 72 70
72 86 0 6 -9 11 -20 11 -13 0 -25 -12 -34 -35z"/>
</g>
<g id="part-4" class="char-part">
  <path d="M636 319 c-49 -10 -91 -20 -92 -22 -2 -2 2 -17 8 -34 9 -23 9 -53 2
-115 -11 -85 -3 -128 22 -128 16 0 24 23 24 73 l0 42 71 2 c39 1 78 4 87 8 16
6 16 7 1 15 -10 6 -40 6 -75 0 -87 -14 -90 -14 -88 18 1 26 3 27 72 35 95 12
97 32 2 23 -51 -4 -70 -3 -70 6 0 6 -7 19 -15 28 -15 16 -10 18 60 29 42 6 89
11 105 11 16 0 32 5 35 10 3 6 0 10 -7 10 -7 0 -22 2 -33 4 -11 3 -60 -4 -109
-15z"/>
</g>
</g>
</svg>