<?xml version="1.0" standalone="no"?>
<!DOCTYPE svg PUBLIC "-//W3C//DTD SVG 20010904//EN"
 "http://www.w3.org/TR/2001/REC-SVG-20010904/DTD/svg10.dtd">
<svg version="1.0" xmlns="http://www.w3.org/2000/svg"
 width="96.000000pt" height="68.000000pt" viewBox="0 0 96.000000 68.000000"
 preserveAspectRatio="xMidYMid meet">
<metadata>
Created by potrace 1.16, written by Peter Selinger 2001-2019
Combined from part_0.svg through part_5.svg with named groups
</metadata>
<g transform="translate(0.000000,68.000000) scale(0.100000,-0.100000)" fill="#000000" stroke="none">
<g id="part-0" class="char-part">
  <path d="M390 607 c0 -8 11 -24 25 -37 14 -13 25 -27 25 -30 0 -4 -41 -10 -92
-13 -79 -5 -93 -4 -104 11 -15 20 -22 14 -54 -45 -38 -70 -1 -104 42 -38 20
30 28 35 65 35 23 0 49 3 59 7 31 12 1 -26 -51 -62 -55 -40 -47 -46 17 -12 70
37 98 58 98 73 0 10 13 14 40 14 38 0 40 -2 40 -30 0 -39 23 -50 104 -50 51 0
66 3 66 14 0 12 -14 14 -65 12 -36 -2 -68 0 -71 5 -2 4 -2 19 2 33 7 27 45 41
98 34 l28 -3 -22 -27 c-25 -33 -17 -35 58 -17 66 16 72 26 38 56 -28 24 -34
25 -105 19 -42 -4 -91 -9 -108 -12 -27 -5 -33 -3 -33 11 0 21 -21 42 -55 55
-35 13 -45 13 -45 -3z"/>
  <path d="M470 394 c-52 -7 -123 -13 -157 -13 -58 -1 -81 -12 -50 -24 7 -3 21
-32 30 -66 l17 -61 32 7 c72 15 99 6 79 -25 -5 -9 -44 -15 -115 -19 -59 -3
-109 -9 -111 -13 -8 -13 70 -20 106 -10 41 12 99 13 99 2 0 -10 -90 -65 -168
-103 -31 -15 -49 -28 -38 -28 22 -1 124 43 178 76 21 13 40 23 43 23 3 0 5
-24 5 -52 0 -111 42 -101 50 11 l5 68 88 -64 c49 -35 100 -64 115 -65 53 -3
122 2 122 10 0 4 -31 15 -68 25 -61 16 -212 85 -236 108 -6 5 40 9 114 9 109
0 122 2 110 15 -18 17 -60 20 -167 10 -79 -7 -83 -7 -83 13 0 15 8 21 34 24
19 2 44 1 55 -3 13 -5 24 -3 32 7 22 27 58 114 53 128 -5 12 -54 29 -73 25 -3
-1 -49 -7 -101 -15z m110 -33 c0 -16 -9 -20 -55 -23 -51 -3 -55 -2 -55 20 0
20 5 22 55 22 47 0 55 -3 55 -19z m-152 -13 c-3 -21 -9 -23 -58 -23 -43 0 -55
4 -58 17 -3 17 17 23 86 27 29 1 33 -2 30 -21z m142 -48 c0 -11 -6 -20 -12
-20 -7 0 -30 -3 -50 -6 -34 -6 -38 -4 -38 14 0 17 8 22 38 25 20 2 43 4 50 5
6 1 12 -7 12 -18z m-142 -17 c-2 -14 -15 -19 -49 -21 -40 -3 -47 0 -52 18 -5
18 -1 20 50 20 46 0 54 -3 51 -17z"/>
</g>
<g id="part-1" class="char-part">
  <path d="M401 593 c7 -10 21 -27 31 -39 19 -21 19 -21 -34 -27 -78 -10 -146
-8 -153 3 -3 6 -10 10 -15 10 -13 0 -62 -89 -55 -100 11 -18 33 -10 57 19 20
25 34 30 108 41 212 31 320 38 320 22 0 -4 -7 -18 -16 -30 -8 -12 -14 -22 -12
-22 2 1 28 7 58 14 62 14 69 29 28 59 -25 19 -32 19 -97 9 -87 -15 -131 -15
-131 -2 0 21 -49 60 -76 60 -24 0 -25 -2 -13 -17z"/>
</g>
<g id="part-2" class="char-part">
  <path d="M497 483 c3 -21 11 -41 17 -46 16 -11 156 -4 159 8 1 6 -29 11 -70
13 -74 3 -81 8 -63 43 10 17 7 19 -19 19 -29 0 -30 -1 -24 -37z"/>
  <path d="M347 472 c-23 -21 -53 -46 -67 -55 -37 -25 -6 -20 48 7 81 43 103 61
90 74 -18 18 -25 15 -71 -26z"/>
</g>
<g id="part-3" class="char-part">
  <path d="M470 395 c-58 -7 -131 -14 -162 -14 -32 -1 -58 -5 -58 -11 0 -5 4
-10 10 -10 5 0 16 -24 25 -52 22 -77 23 -78 77 -68 57 11 192 15 205 7 6 -4
17 1 26 11 24 27 61 122 51 131 -17 17 -70 18 -174 6z m110 -35 c0 -17 -7 -20
-39 -20 -22 0 -46 -3 -55 -6 -11 -4 -16 0 -16 13 0 29 8 33 62 33 41 0 48 -3
48 -20z m-155 -15 c0 -18 -7 -20 -55 -20 -43 0 -55 4 -58 17 -3 18 26 27 83
24 23 -1 30 -6 30 -21z m145 -45 c0 -11 -6 -20 -12 -20 -7 0 -30 -3 -50 -6
-34 -6 -38 -4 -38 14 0 17 8 22 38 25 20 2 43 4 50 5 6 1 12 -7 12 -18z m-142
-17 c-2 -14 -15 -19 -51 -21 -42 -3 -47 -1 -47 17 0 18 6 21 51 21 43 0 50 -3
47 -17z"/>
</g>
<g id="part-4" class="char-part">
  <path d="M438 243 c-10 -2 -18 -13 -18 -22 0 -21 -56 -31 -167 -31 -35 0 -63
-4 -63 -10 0 -15 62 -22 110 -11 25 6 58 11 74 11 24 0 27 -2 16 -15 -12 -14
-166 -105 -200 -118 -12 -4 -12 -6 2 -6 24 -1 105 32 166 68 29 17 55 31 57
31 3 0 5 -24 5 -52 0 -111 42 -101 50 11 l5 68 90 -66 c90 -66 90 -66 153 -64
34 1 68 5 74 9 6 4 -27 18 -73 31 -46 13 -118 43 -159 66 l-75 42 124 5 c100
4 121 7 109 17 -18 16 -51 17 -160 8 -86 -8 -88 -7 -88 14 0 21 -2 22 -32 14z"/>
</g>
</g>
</svg>