<?xml version="1.0" standalone="no"?>
<!DOCTYPE svg PUBLIC "-//W3C//DTD SVG 20010904//EN"
 "http://www.w3.org/TR/2001/REC-SVG-20010904/DTD/svg10.dtd">
<svg version="1.0" xmlns="http://www.w3.org/2000/svg"
 width="96.000000pt" height="68.000000pt" viewBox="0 0 96.000000 68.000000"
 preserveAspectRatio="xMidYMid meet">
<metadata>
Created by potrace 1.16, written by Peter Selinger 2001-2019
Combined from part_0.svg through part_5.svg with named groups
</metadata>
<g transform="translate(0.000000,68.000000) scale(0.100000,-0.100000)" fill="#000000" stroke="none">
<g id="part-0" class="char-part">
  <path d="M301 553 c-6 -16 -43 -59 -81 -97 -39 -38 -70 -70 -70 -72 0 -20 128
61 199 124 39 35 43 42 32 56 -22 27 -67 20 -80 -11z"/>
  <path d="M610 565 c-47 -7 -106 -14 -132 -14 -27 -1 -48 -5 -48 -11 0 -15 46
-23 90 -16 45 7 47 2 26 -49 -12 -29 -20 -35 -45 -35 -29 0 -29 0 -18 -36 8
-26 8 -57 -1 -113 -6 -43 -8 -88 -5 -100 5 -21 28 -29 35 -13 4 13 206 23 213
12 4 -6 14 -10 24 -10 16 0 19 11 20 98 1 53 4 111 7 127 5 26 1 33 -20 45
-21 11 -41 11 -107 2 -46 -7 -84 -10 -86 -8 -2 2 10 18 27 36 23 24 28 35 19
41 -18 11 19 18 113 21 79 3 95 9 83 27 -8 14 -87 12 -195 -4z m108 -156 c3
-26 2 -27 -75 -34 -43 -3 -88 -9 -100 -12 -20 -4 -23 -1 -23 25 0 28 2 30 63
39 34 6 78 10 97 9 30 -1 35 -5 38 -27z m2 -79 c0 -28 -2 -30 -39 -30 -21 0
-66 -3 -100 -6 -60 -7 -61 -6 -61 18 0 24 4 25 88 35 48 5 93 11 100 11 7 1
12 -10 12 -28z m0 -74 c0 -22 -6 -24 -75 -35 -118 -17 -125 -16 -125 19 l0 29
73 4 c39 1 84 4 100 5 22 2 27 -2 27 -22z"/>
  <path d="M326 402 c-15 -28 -76 -89 -131 -129 -16 -12 -24 -23 -17 -23 14 0
125 72 157 103 11 11 30 26 43 34 17 12 20 19 11 29 -19 23 -47 16 -63 -14z"/>
  <path d="M331 248 c-25 -41 -103 -117 -156 -152 -22 -14 -33 -26 -25 -26 27 1
124 59 193 116 65 54 67 57 51 75 -24 27 -39 24 -63 -13z"/>
  <path d="M530 156 c-5 -13 -34 -45 -65 -70 -31 -25 -50 -46 -43 -46 19 0 188
101 188 112 0 8 -43 28 -61 28 -5 0 -14 -11 -19 -24z"/>
  <path d="M721 100 c69 -78 99 -89 99 -36 0 28 -22 49 -80 75 -71 32 -75 25
-19 -39z"/>
</g>
<g id="part-1" class="char-part">
  <path d="M305 553 c-3 -15 -38 -58 -76 -95 -38 -37 -65 -68 -60 -68 15 0 125
76 171 118 43 40 44 42 26 57 -30 23 -53 18 -61 -12z"/>
</g>
<g id="part-2" class="char-part">
  <path d="M341 264 c-17 -38 -99 -121 -153 -156 -52 -34 -56 -46 -11 -30 61 21
233 149 233 173 0 4 -13 15 -29 23 -27 14 -29 14 -40 -10z"/>
</g>
<g id="part-3" class="char-part">
  <path d="M563 561 c-72 -9 -135 -19 -138 -23 -10 -10 61 -21 95 -15 38 8 44
-4 26 -48 -20 -47 -1 -47 44 0 26 27 32 38 22 44 -18 11 31 21 107 22 31 1 67
4 81 8 l25 7 -22 12 c-27 15 -72 14 -240 -7z"/>
</g>
<g id="part-4" class="char-part">
  <path d="M630 449 c-25 -4 -71 -8 -103 -8 -56 -1 -57 -2 -46 -23 12 -22 7
-146 -7 -181 -6 -16 -3 -18 17 -15 16 2 25 11 27 26 3 20 9 22 56 22 29 0 74
3 100 6 38 6 46 4 46 -10 0 -10 8 -16 24 -16 23 0 24 3 28 93 6 122 -6 131
-142 106z m84 -25 c14 -36 6 -41 -61 -48 -38 -4 -83 -9 -100 -12 -31 -6 -33
-5 -33 23 0 29 2 31 63 40 96 16 124 15 131 -3z m6 -94 c0 -27 -3 -30 -32 -30
-18 0 -63 -3 -100 -7 -68 -6 -68 -6 -68 19 0 24 4 26 83 35 45 6 90 11 100 12
13 1 17 -7 17 -29z"/>
</g>
<g id="part-5" class="char-part">
  <path d="M540 158 c0 -6 -23 -33 -51 -59 l-52 -48 52 27 c28 15 51 33 51 40 0
6 3 11 8 10 4 -1 17 2 30 6 24 8 25 27 2 34 -7 3 -10 0 -6 -6 3 -5 -1 -13 -10
-16 -12 -4 -15 -2 -10 9 3 8 1 15 -4 15 -6 0 -10 -5 -10 -12z"/>
  <path d="M705 126 c15 -23 34 -39 21 -18 -2 4 4 8 14 8 15 0 16 -3 8 -13 -8
-10 -5 -20 12 -38 26 -28 45 -32 53 -11 11 28 -36 71 -101 91 -23 7 -23 7 -7
-19z"/>
</g>
</g>
</svg>