<?xml version="1.0" standalone="no"?>
<!DOCTYPE svg PUBLIC "-//W3C//DTD SVG 20010904//EN"
 "http://www.w3.org/TR/2001/REC-SVG-20010904/DTD/svg10.dtd">
<svg version="1.0" xmlns="http://www.w3.org/2000/svg"
 width="96.000000pt" height="68.000000pt" viewBox="0 0 96.000000 68.000000"
 preserveAspectRatio="xMidYMid meet">
<metadata>
Created by potrace 1.16, written by Peter Selinger 2001-2019
Combined from part_0.svg through part_5.svg with named groups
</metadata>
<g transform="translate(0.000000,68.000000) scale(0.100000,-0.100000)" fill="#000000" stroke="none">
<g id="part-0" class="char-part">
  <path d="M415 628 c21 -68 23 -65 -54 -73 -87 -9 -84 -25 5 -25 61 0 64 -1 64
-24 0 -27 -15 -31 -178 -42 -56 -4 -105 -11 -108 -15 -2 -4 5 -13 18 -20 16
-9 49 -9 137 0 105 10 407 31 453 31 30 0 20 28 -15 39 -22 8 -56 8 -107 1
-110 -14 -150 -13 -150 5 0 21 32 35 79 35 38 0 61 14 46 28 -4 4 -31 7 -61 6
l-55 0 7 29 c7 35 -6 47 -55 47 -30 0 -33 -2 -26 -22z"/>
  <path d="M450 409 c-41 -5 -92 -7 -112 -4 -23 3 -38 1 -38 -5 0 -5 4 -10 9
-10 5 0 17 -23 26 -50 14 -42 20 -50 36 -45 13 4 19 2 19 -8 0 -21 -95 -99
-173 -142 -37 -20 -67 -38 -67 -40 0 -7 96 29 137 52 23 13 45 23 48 23 4 0 5
-31 4 -70 -6 -110 8 -111 121 -10 l35 31 -32 -16 c-18 -8 -44 -20 -59 -25 -25
-10 -25 -10 -23 38 1 26 -1 54 -5 60 -7 12 4 23 63 69 14 10 14 13 -4 27 -19
15 -18 15 20 16 59 0 115 11 115 22 0 6 9 23 21 39 17 24 18 33 9 44 -14 16
-36 17 -150 4z m89 -18 c12 -8 13 -15 4 -34 -12 -26 -50 -37 -130 -37 -37 0
-42 3 -51 29 -10 30 -10 30 31 35 23 3 53 7 67 10 46 6 65 6 79 -3z"/>
  <path d="M625 293 c-16 -25 -62 -73 -69 -73 -2 0 -17 7 -35 16 -38 19 -67 13
-31 -6 21 -11 88 -65 163 -132 11 -9 30 -19 43 -22 26 -7 104 10 104 22 0 4
-28 15 -62 25 -59 17 -168 74 -168 88 0 3 27 18 61 32 63 27 69 40 32 64 -18
12 -22 11 -38 -14z"/>
</g>
<g id="part-1" class="char-part">
  <path d="M427 601 l6 -51 -62 0 c-34 0 -61 -4 -61 -10 0 -6 27 -10 60 -10 60
0 60 0 60 -29 l0 -29 -102 -7 c-57 -4 -121 -11 -143 -15 -33 -6 -37 -8 -21
-15 11 -5 92 -3 180 3 89 7 219 15 289 19 70 3 130 10 133 14 17 29 -102 35
-248 12 -37 -5 -38 -5 -38 25 0 29 1 30 65 37 82 8 77 29 -5 23 l-58 -4 6 38
c3 28 1 38 -9 38 -8 0 -24 3 -36 6 -21 6 -22 4 -16 -45z"/>
</g>
<g id="part-2" class="char-part">
  <path d="M440 409 c-41 -5 -93 -6 -115 -3 -36 4 -38 3 -22 -9 10 -8 23 -34 30
-58 l13 -44 54 3 c116 5 170 14 170 27 0 6 11 24 24 38 23 24 23 27 7 41 -19
17 -45 18 -161 5z m97 -17 c6 -4 9 -19 6 -33 -4 -23 -11 -27 -50 -33 -25 -3
-63 -6 -84 -6 -33 0 -40 4 -45 25 -4 14 -4 29 0 32 3 4 36 10 74 13 37 4 72 8
77 8 6 1 15 -2 22 -6z"/>
</g>
<g id="part-3" class="char-part">
  <path d="M385 281 c-7 -23 -86 -85 -180 -141 -87 -51 -47 -47 65 7 68 33 180
108 180 121 0 8 -34 31 -47 32 -6 0 -14 -9 -18 -19z"/>
</g>
<g id="part-4" class="char-part">
  <path d="M615 280 c-39 -56 -57 -64 -96 -45 -17 9 -36 14 -42 12 -7 -2 -1 -10
13 -17 14 -7 58 -42 99 -77 90 -79 107 -86 171 -72 28 6 50 12 50 14 0 2 -30
13 -67 25 -71 23 -173 76 -173 89 0 4 27 20 61 34 63 27 69 40 32 64 -18 12
-22 10 -48 -27z"/>
  <path d="M352 188 c-5 -7 -11 -42 -12 -78 -3 -84 -2 -90 11 -90 11 0 139 98
139 106 0 2 -22 -7 -50 -21 -27 -14 -52 -25 -55 -25 -4 0 -6 21 -5 48 2 64 1
72 -9 72 -5 0 -13 -6 -19 -12z"/>
</g>
</g>
</svg>