<?xml version="1.0" standalone="no"?>
<!DOCTYPE svg PUBLIC "-//W3C//DTD SVG 20010904//EN"
 "http://www.w3.org/TR/2001/REC-SVG-20010904/DTD/svg10.dtd">
<svg version="1.0" xmlns="http://www.w3.org/2000/svg"
 width="96.000000pt" height="68.000000pt" viewBox="0 0 96.000000 68.000000"
 preserveAspectRatio="xMidYMid meet">
<metadata>
Created by potrace 1.16, written by Peter Selinger 2001-2019
Combined from part_0.svg through part_5.svg with named groups
</metadata>
<g transform="translate(0.000000,68.000000) scale(0.100000,-0.100000)" fill="#000000" stroke="none">
<g id="part-0" class="char-part">
  <path d="M569 591 c-1 -3 -2 -28 -3 -56 -1 -36 -5 -50 -16 -52 -8 -1 -37 -5
-65 -10 l-50 -7 65 -6 65 -5 3 -64 c2 -35 -1 -68 -6 -73 -6 -6 -46 -12 -91
-15 -44 -3 -81 -9 -81 -13 0 -21 77 -26 145 -10 22 5 97 10 168 11 128 1 162
10 110 30 -26 10 -141 5 -186 -8 -16 -4 -18 2 -15 73 l3 79 50 8 c28 4 57 10
65 13 31 11 -14 24 -62 18 -46 -6 -48 -6 -48 19 0 14 5 29 10 32 16 10 -5 32
-35 38 -14 2 -26 1 -26 -2z"/>
  <path d="M257 568 c4 -13 8 -52 8 -88 l0 -65 -45 -8 c-88 -16 -93 -18 -84 -27
5 -5 35 -10 66 -12 l57 -3 -22 -44 c-12 -24 -50 -74 -84 -110 -33 -36 -57 -67
-52 -69 20 -8 91 45 130 97 l42 56 -6 -40 c-3 -22 -9 -78 -13 -125 -5 -72 -4
-88 10 -99 13 -11 19 -11 31 -1 11 9 15 34 15 95 0 45 3 96 6 113 6 29 7 30
28 16 13 -8 26 -11 29 -7 16 15 5 40 -24 57 -25 15 -30 23 -27 49 3 28 7 32
46 40 54 11 51 31 -6 35 l-41 3 6 64 c7 75 -4 95 -49 95 -26 0 -28 -2 -21 -22z"/>
  <path d="M702 448 c-7 -7 -12 -17 -12 -22 0 -6 -14 -25 -32 -43 -32 -34 -28
-45 8 -18 27 20 44 19 71 -7 17 -16 26 -19 35 -10 15 15 -7 42 -33 42 -24 0
-25 19 -2 35 15 11 15 13 -4 23 -14 8 -23 8 -31 0z"/>
  <path d="M456 411 c-9 -16 -28 -44 -43 -62 -28 -33 -22 -32 29 3 28 19 53 16
62 -8 7 -19 36 -18 36 1 0 9 -11 20 -25 25 -27 10 -31 20 -14 37 8 8 6 14 -10
22 -18 10 -22 7 -35 -18z"/>
  <path d="M698 260 c-44 -13 -232 -33 -271 -28 -39 4 -46 -2 -24 -20 7 -6 19
-47 26 -91 l13 -80 47 4 c172 16 193 15 211 -7 33 -42 76 4 90 99 5 32 12 68
16 81 5 18 1 24 -30 37 -39 17 -40 17 -78 5z m41 -87 c-1 -80 -6 -88 -59 -88
-25 -1 -82 -4 -127 -9 l-82 -8 -6 28 c-3 16 -9 46 -14 67 -8 34 -6 38 15 43
48 12 131 22 202 23 l72 1 -1 -57z"/>
  <path d="M560 186 l-55 -11 14 -32 c14 -31 18 -33 65 -33 56 0 65 4 84 37 30
55 7 63 -108 39z m74 -14 c9 -15 -9 -29 -46 -35 -21 -3 -38 -2 -38 4 0 5 0 12
0 17 -1 4 14 10 32 13 18 4 36 7 40 8 4 0 9 -3 12 -7z"/>
</g>
<g id="part-1" class="char-part">
  <path d="M264 568 c3 -13 9 -53 12 -89 l7 -67 -29 -5 c-16 -3 -49 -9 -74 -13
-45 -7 -45 -7 -15 -16 17 -5 45 -6 63 -3 26 5 32 3 32 -12 0 -25 -62 -117
-119 -177 l-46 -48 40 20 c43 22 67 45 110 107 l27 40 -8 -95 c-11 -134 -10
-168 5 -182 10 -11 15 -9 27 6 10 15 14 51 14 140 l0 119 23 -21 c29 -27 37
-28 37 -2 0 12 -12 26 -31 35 -25 14 -30 21 -27 48 3 29 7 33 46 41 52 11 50
31 -3 30 l-38 -2 7 69 c6 63 4 69 -16 83 -33 23 -52 21 -44 -6z"/>
</g>
<g id="part-2" class="char-part">
  <path d="M560 570 c15 -29 9 -84 -10 -87 -8 -1 -37 -5 -65 -10 l-50 -7 65 -6
65 -5 3 -71 3 -71 -47 -7 c-26 -3 -66 -6 -90 -6 -24 0 -44 -4 -44 -10 0 -15
45 -23 92 -16 24 4 114 9 201 12 86 4 157 10 157 15 0 22 -44 29 -135 23 l-96
-7 3 74 3 74 50 8 c28 4 57 10 65 13 31 11 -15 24 -62 18 -46 -6 -48 -5 -48
19 0 14 5 29 10 32 20 12 -11 35 -47 35 -31 0 -33 -2 -23 -20z"/>
</g>
<g id="part-3" class="char-part">
  <path d="M700 445 c0 -8 -16 -33 -36 -55 -36 -40 -35 -53 2 -25 26 20 41 19
71 -5 26 -20 43 -19 43 5 0 7 -14 18 -32 24 -30 11 -30 12 -14 30 17 19 17 20
-3 30 -26 14 -31 14 -31 -4z"/>
</g>
<g id="part-4" class="char-part">
  <path d="M729 266 c-12 -12 -231 -37 -281 -33 -32 3 -58 3 -58 1 0 -3 6 -15
14 -27 8 -12 17 -40 20 -62 14 -83 27 -117 39 -107 7 5 60 12 118 15 102 6
107 6 121 -15 30 -44 79 11 89 101 4 31 10 65 14 77 5 17 0 24 -28 37 -38 18
-41 19 -48 13z m11 -88 c0 -88 -4 -93 -63 -93 -29 0 -86 -4 -129 -8 l-76 -9
-11 52 c-19 87 -19 86 57 97 37 6 102 11 145 12 l77 1 0 -52z"/>
</g>
</g>
</svg>