<?xml version="1.0" standalone="no"?>
<!DOCTYPE svg PUBLIC "-//W3C//DTD SVG 20010904//EN"
 "http://www.w3.org/TR/2001/REC-SVG-20010904/DTD/svg10.dtd">
<svg version="1.0" xmlns="http://www.w3.org/2000/svg"
 width="96.000000pt" height="68.000000pt" viewBox="0 0 96.000000 68.000000"
 preserveAspectRatio="xMidYMid meet">
<metadata>
Created by potrace 1.16, written by Peter Selinger 2001-2019
Combined from part_0.svg through part_5.svg with named groups
</metadata>
<g transform="translate(0.000000,68.000000) scale(0.100000,-0.100000)" fill="#000000" stroke="none">
<g id="part-0" class="char-part">
  <path d="M286 533 c-8 -50 -68 -151 -134 -224 -31 -33 -47 -59 -39 -59 13 0
85 43 97 59 3 3 12 12 21 19 23 17 69 -1 69 -27 0 -19 -10 -23 -88 -34 -7 -1
-14 -6 -15 -12 -1 -5 22 -11 51 -13 l52 -3 0 -53 c0 -63 -3 -65 -102 -73 -60
-5 -66 -8 -58 -23 5 -10 22 -23 39 -29 24 -10 34 -10 59 3 16 8 74 30 128 47
110 35 112 35 98 49 -6 6 -29 4 -62 -4 l-52 -14 0 59 c0 56 1 59 24 59 14 0
37 4 51 10 40 15 20 33 -30 28 -42 -5 -42 -5 -36 21 5 19 16 27 37 31 16 3 27
10 24 15 -6 12 -58 12 -117 1 l-42 -8 41 71 41 71 23 -25 c13 -14 37 -28 54
-31 25 -6 30 -3 30 13 0 24 -30 53 -53 53 -9 0 -29 14 -44 30 -37 42 -59 39
-67 -7z"/>
  <path d="M680 489 c-25 -4 -78 -8 -117 -8 -40 -1 -73 -4 -73 -7 0 -3 6 -12 14
-20 8 -7 17 -33 21 -56 11 -65 21 -80 45 -66 30 19 34 3 10 -46 -22 -46 -22
-46 -72 -46 -49 0 -50 -1 -35 -18 10 -10 21 -38 26 -63 14 -71 29 -103 44 -91
11 9 188 28 239 26 13 0 16 6 12 25 -3 15 4 42 16 66 11 21 20 45 20 52 0 28
-42 34 -142 20 -54 -8 -98 -11 -98 -7 0 4 16 20 36 35 19 15 33 33 30 40 -6
17 15 25 64 25 32 0 37 3 33 19 -2 10 5 38 17 62 21 41 21 43 4 56 -19 14 -27
14 -94 2z m43 -23 c3 -7 1 -32 -5 -54 -10 -38 -11 -40 -61 -46 -93 -11 -95
-10 -102 34 -4 22 -7 43 -8 47 -2 6 83 23 159 32 7 0 14 -5 17 -13z m37 -242
c0 -8 -5 -35 -11 -58 l-11 -43 -60 -7 c-34 -3 -78 -6 -99 -6 -35 0 -39 3 -39
24 0 14 -4 36 -10 51 -12 31 -10 32 85 44 114 14 145 13 145 -5z"/>
  <path d="M388 203 c-10 -20 -16 -39 -13 -41 7 -7 58 23 69 41 8 13 8 20 -4 27
-25 16 -34 11 -52 -27z"/>
  <path d="M190 204 c0 -17 44 -64 61 -64 30 0 25 44 -6 58 -28 13 -55 16 -55 6z"/>
</g>
<g id="part-1" class="char-part">
  <path d="M294 543 c-15 -71 -72 -167 -152 -255 -54 -60 -6 -41 64 24 44 41 88
37 92 -9 3 -31 1 -33 -30 -34 -18 0 -42 -4 -52 -8 -18 -7 -18 -8 -3 -14 10 -4
31 -4 48 0 21 4 34 1 40 -8 13 -20 11 -107 -3 -115 -6 -4 -44 -9 -85 -12 -78
-5 -88 -15 -40 -42 20 -11 32 -12 54 -3 15 6 74 26 131 44 56 18 102 37 102
42 0 5 -13 7 -30 3 -16 -3 -43 -9 -58 -12 -27 -6 -29 -4 -27 25 5 98 2 90 45
97 71 11 57 30 -17 24 -19 -1 -23 4 -23 29 0 25 4 31 23 31 12 0 29 4 37 10
28 17 -12 21 -80 6 -36 -7 -66 -10 -68 -6 -3 7 61 117 76 132 5 5 26 -5 47
-22 40 -32 58 -34 63 -7 3 16 -43 47 -71 47 -7 0 -23 14 -35 30 -28 37 -40 38
-48 3z"/>
  <path d="M393 201 c-21 -42 -15 -45 35 -13 27 17 28 28 3 41 -16 9 -22 5 -38
-28z"/>
  <path d="M196 198 c16 -29 38 -48 56 -48 28 0 21 28 -12 45 -35 18 -54 19 -44
3z"/>
</g>
<g id="part-2" class="char-part">
  <path d="M675 489 c-22 -4 -75 -8 -118 -8 -76 -1 -77 -1 -58 -20 10 -10 22
-38 26 -62 10 -58 23 -83 38 -71 7 5 53 13 104 17 72 5 90 10 86 21 -3 7 5 35
18 60 21 45 22 47 4 60 -21 15 -40 16 -100 3z m50 -18 c3 -6 0 -30 -6 -55
l-11 -44 -70 -7 c-38 -4 -71 -5 -74 -3 -2 3 -7 25 -10 50 l-6 45 73 10 c41 6
79 11 86 12 6 0 14 -3 18 -8z"/>
</g>
<g id="part-3" class="char-part">
  <path d="M583 293 c-12 -26 -20 -49 -18 -51 7 -8 96 71 92 82 -2 6 -14 12 -28
14 -20 2 -28 -5 -46 -45z"/>
</g>
<g id="part-4" class="char-part">
  <path d="M675 255 c-44 -8 -111 -14 -148 -14 -61 -1 -67 -3 -54 -16 9 -8 20
-36 26 -63 5 -26 15 -60 21 -76 9 -24 13 -26 25 -16 9 8 65 16 133 21 64 4
119 8 121 8 2 1 -2 7 -8 15 -8 10 -4 26 17 70 22 42 26 59 17 66 -20 17 -67
18 -150 5z m85 -36 c0 -12 -5 -39 -11 -60 -12 -37 -13 -38 -73 -44 -34 -4 -77
-5 -96 -3 -33 3 -35 6 -46 55 l-12 52 57 6 c31 3 65 7 76 9 11 2 39 4 63 5 37
1 42 -2 42 -20z"/>
</g>
</g>
</svg>