<?xml version="1.0" standalone="no"?>
<!DOCTYPE svg PUBLIC "-//W3C//DTD SVG 20010904//EN"
 "http://www.w3.org/TR/2001/REC-SVG-20010904/DTD/svg10.dtd">
<svg version="1.0" xmlns="http://www.w3.org/2000/svg"
 width="96.000000pt" height="68.000000pt" viewBox="0 0 96.000000 68.000000"
 preserveAspectRatio="xMidYMid meet">
<metadata>
Created by potrace 1.16, written by Peter Selinger 2001-2019
Combined from part_0.svg through part_5.svg with named groups
</metadata>
<g transform="translate(0.000000,68.000000) scale(0.100000,-0.100000)" fill="#000000" stroke="none">
<g id="part-0" class="char-part">
  <path d="M517 583 c-4 -3 -7 -15 -7 -25 0 -10 -11 -37 -26 -59 -23 -37 -28
-40 -56 -34 -27 6 -30 5 -24 -11 5 -11 10 -65 13 -122 6 -103 13 -123 36 -103
14 11 239 17 256 7 19 -12 29 29 32 128 3 94 2 100 -20 115 -20 13 -36 13
-119 3 -52 -7 -98 -10 -101 -7 -3 3 6 16 19 28 46 41 54 55 40 72 -13 16 -32
19 -43 8z m165 -137 c7 -10 12 -176 6 -176 -2 0 -48 -3 -103 -6 -55 -3 -105
-7 -112 -9 -14 -5 -26 78 -21 145 l3 45 95 10 c98 11 120 9 132 -9z"/>
  <path d="M536 415 c-4 -14 -14 -25 -22 -25 -10 0 -14 -6 -11 -14 3 -8 -1 -17
-9 -20 -8 -3 -14 -11 -14 -17 0 -7 9 -6 24 5 26 17 56 12 56 -8 0 -7 -17 -22
-37 -34 -48 -28 -25 -29 28 -1 37 19 42 19 58 5 10 -9 23 -16 29 -16 17 0 15
30 -3 36 -21 8 -19 23 6 45 29 25 15 43 -27 36 -23 -4 -32 -2 -28 5 7 11 -13
28 -32 28 -7 0 -15 -11 -18 -25z m74 -34 c0 -16 -19 -23 -40 -16 -30 10 -24
25 10 25 17 0 30 -4 30 -9z"/>
  <path d="M244 533 c-10 -43 -50 -108 -84 -137 -23 -19 -30 -31 -25 -46 7 -22
24 -25 74 -10 19 5 36 8 38 6 2 -1 -19 -27 -47 -57 -27 -30 -49 -58 -50 -62 0
-18 31 -17 90 3 39 13 73 19 91 15 25 -6 29 -3 29 14 0 18 -34 51 -53 51 -4 0
-7 -10 -5 -22 2 -17 -4 -23 -30 -30 -66 -17 -67 -6 -6 62 101 112 98 108 84
125 -19 23 -29 18 -46 -24 -14 -34 -21 -40 -55 -46 -22 -4 -42 -5 -45 -3 -2 3
21 34 51 71 57 69 63 85 43 105 -21 21 -47 14 -54 -15z"/>
  <path d="M300 204 c0 -16 23 -44 35 -44 18 0 20 21 3 38 -12 12 -38 17 -38 6z"/>
  <path d="M545 170 c32 -33 55 -39 55 -14 0 22 -29 43 -59 44 l-25 0 29 -30z"/>
  <path d="M745 174 c43 -36 59 -44 74 -34 33 20 -19 60 -77 60 l-27 -1 30 -25z"/>
  <path d="M210 177 c0 -16 32 -47 48 -47 18 0 14 18 -8 40 -23 23 -40 26 -40 7z"/>
  <path d="M450 161 c0 -32 44 -85 90 -109 49 -25 155 -30 223 -11 51 14 47 34
-15 64 -63 30 -61 30 -47 4 16 -30 -2 -39 -76 -39 -71 0 -115 23 -146 75 -24
40 -29 43 -29 16z"/>
  <path d="M372 135 c-28 -46 -29 -85 -3 -85 14 0 22 12 30 45 7 27 8 52 3 61
-7 13 -13 9 -30 -21z"/>
  <path d="M110 155 c0 -16 33 -66 49 -74 43 -24 42 32 -1 59 -33 20 -48 25 -48
15z"/>
</g>
<g id="part-1" class="char-part">
  <path d="M238 502 c-10 -26 -38 -70 -63 -97 -37 -41 -43 -52 -32 -63 11 -11
23 -11 63 -1 64 15 78 29 31 29 -20 0 -37 3 -37 6 0 4 25 37 55 75 57 70 63
99 21 99 -16 0 -25 -11 -38 -48z"/>
</g>
<g id="part-2" class="char-part">
  <path d="M310 180 c24 -34 40 -39 40 -12 0 23 -19 42 -43 42 -17 0 -17 -2 3
-30z"/>
  <path d="M217 160 c18 -31 53 -41 53 -16 0 17 -37 46 -58 46 -10 0 -9 -7 5
-30z"/>
  <path d="M121 126 c25 -42 45 -60 59 -51 21 13 10 46 -22 65 -49 30 -61 26
-37 -14z"/>
</g>
<g id="part-3" class="char-part">
  <path d="M510 568 c0 -13 -9 -38 -21 -57 -11 -18 -18 -36 -15 -39 3 -2 26 12
51 32 46 38 57 69 29 80 -30 11 -44 6 -44 -16z"/>
</g>
<g id="part-4" class="char-part">
  <path d="M585 479 c-27 -5 -80 -10 -116 -10 l-65 -2 7 -46 c4 -25 8 -78 8
-118 1 -67 14 -100 30 -75 7 12 225 19 252 8 28 -12 37 16 41 126 3 104 3 107
-20 117 -26 13 -66 12 -137 0z m89 -25 c12 -11 16 -36 16 -99 0 -96 8 -91
-132 -94 -45 -1 -85 -4 -89 -7 -11 -6 -21 73 -17 136 l3 55 100 11 c55 6 101
12 102 13 1 0 9 -6 17 -15z"/>
</g>
<g id="part-5" class="char-part">
  <path d="M540 185 c7 -8 17 -12 23 -8 6 4 7 1 2 -7 -8 -13 13 -32 27 -24 15
10 8 24 -22 39 -37 19 -46 19 -30 0z"/>
  <path d="M740 190 c0 -16 58 -50 74 -44 9 3 16 10 16 14 0 7 -25 20 -40 22 -3
0 -15 4 -27 9 -14 5 -23 5 -23 -1z"/>
  <path d="M460 142 c0 -5 10 -17 22 -28 l21 -19 -18 28 c-18 28 -25 33 -25 19z"/>
  <path d="M368 115 c-33 -44 -16 -75 20 -38 13 12 14 17 4 21 -9 3 -10 7 -2 17
6 7 7 15 3 18 -4 3 -16 -6 -25 -18z"/>
  <path d="M716 104 c6 -28 -16 -38 -93 -39 -43 -1 -80 -3 -83 -4 -3 -1 12 -9
33 -16 38 -14 66 -11 79 9 5 8 8 7 8 -1 0 -10 56 -12 114 -4 5 0 2 8 -5 18
-13 15 -12 15 11 3 23 -12 24 -12 11 4 -10 12 -25 16 -43 14 -23 -4 -26 -2
-15 11 8 10 8 13 0 8 -6 -4 -13 -4 -16 0 -2 5 -3 3 -1 -3z"/>
  <path d="M510 75 c7 -8 17 -12 22 -9 6 4 5 10 -3 15 -22 14 -33 10 -19 -6z"/>
</g>
</g>
</svg>