<?xml version="1.0" standalone="no"?>
<!DOCTYPE svg PUBLIC "-//W3C//DTD SVG 20010904//EN"
 "http://www.w3.org/TR/2001/REC-SVG-20010904/DTD/svg10.dtd">
<svg version="1.0" xmlns="http://www.w3.org/2000/svg"
 width="96.000000pt" height="68.000000pt" viewBox="0 0 96.000000 68.000000"
 preserveAspectRatio="xMidYMid meet">
<metadata>
Created by potrace 1.16, written by Peter Selinger 2001-2019
Combined from part_0.svg through part_5.svg with named groups
</metadata>
<g transform="translate(0.000000,68.000000) scale(0.100000,-0.100000)" fill="#000000" stroke="none">
<g id="part-0" class="char-part">
  <path d="M278 594 c-4 -3 -2 -20 3 -37 14 -50 11 -144 -4 -150 -8 -3 -39 -8
-70 -12 -79 -10 -71 -25 14 -25 l70 0 -3 -42 -3 -43 -87 -45 c-49 -25 -86 -49
-85 -55 2 -5 15 -17 30 -25 24 -14 28 -12 88 35 l62 49 -6 -48 c-4 -27 -7 -58
-7 -69 0 -17 -5 -19 -42 -13 l-41 7 39 -41 c72 -74 94 -53 94 89 l1 106 39 30
c21 17 39 33 40 38 0 12 -24 7 -44 -8 -29 -22 -36 -19 -36 14 0 26 4 29 45 35
27 5 45 12 45 21 0 15 -42 28 -65 19 -15 -6 -17 -1 -12 42 3 27 8 61 12 77 7
24 4 29 -29 42 -40 17 -41 17 -48 9z"/>
  <path d="M563 562 c-109 -15 -150 -32 -79 -32 27 0 36 -5 41 -21 9 -29 -10
-40 -62 -37 -41 3 -54 -4 -34 -16 5 -3 14 -28 21 -56 11 -46 14 -49 37 -44 13
4 78 7 142 8 l118 1 30 57 c36 68 30 78 -44 78 -49 0 -53 2 -53 24 0 19 7 26
30 31 17 4 30 11 30 16 0 12 -40 10 -177 -9z m67 -52 c0 -27 -3 -30 -30 -30
-27 0 -30 3 -30 30 0 27 3 30 30 30 27 0 30 -3 30 -30z m110 -44 c0 -8 -4 -26
-10 -40 -7 -20 -16 -26 -40 -26 -33 0 -37 11 -20 54 7 20 16 26 40 26 19 0 30
-5 30 -14z m-110 -37 c0 -37 -2 -39 -30 -39 -28 0 -30 2 -30 38 0 34 2 37 30
38 28 1 30 -1 30 -37z m-100 22 c0 -5 3 -23 6 -40 6 -29 5 -31 -25 -31 -30 0
-31 2 -31 40 0 36 3 40 25 40 14 0 25 -4 25 -9z"/>
  <path d="M550 323 c-73 -7 -72 -23 1 -23 78 0 139 10 139 21 0 9 -51 9 -140 2z"/>
  <path d="M600 260 c-142 -12 -210 -22 -210 -30 0 -14 73 -21 110 -10 68 20 70
18 70 -59 0 -71 -10 -88 -45 -75 -19 8 -19 -1 1 -31 20 -30 59 -33 74 -6 5 11
10 41 10 68 0 26 3 65 7 86 6 38 6 38 52 37 25 -1 73 -1 106 -1 55 2 58 3 41
16 -21 16 -70 17 -216 5z"/>
  <path d="M730 126 c30 -31 60 -56 67 -56 38 0 15 62 -31 84 -17 8 -44 18 -61
21 -29 7 -28 5 25 -49z"/>
  <path d="M439 153 c-24 -30 -59 -82 -59 -88 0 -11 60 29 88 58 22 23 24 29 12
37 -21 13 -25 12 -41 -7z"/>
</g>
<g id="part-1" class="char-part">
  <path d="M288 543 c4 -27 7 -68 7 -93 l0 -45 -67 -10 c-93 -14 -95 -25 -4 -25
l77 0 -3 -42 c-3 -43 -3 -43 -90 -88 -86 -44 -103 -62 -72 -74 30 -12 47 -6
94 34 26 22 51 40 54 40 10 0 7 -86 -4 -114 -8 -23 -12 -25 -36 -16 -15 6 -28
9 -30 7 -2 -2 15 -21 37 -43 l40 -39 20 24 c16 19 19 39 19 120 l0 98 41 32
c48 39 46 50 -5 20 l-36 -21 0 36 c0 37 3 39 64 48 32 5 14 23 -24 24 -42 0
-47 15 -27 92 14 50 13 53 -7 67 -11 8 -28 15 -38 15 -15 0 -17 -6 -10 -47z"/>
</g>
<g id="part-2" class="char-part">
  <path d="M550 561 c-138 -20 -133 -37 9 -27 115 9 193 24 185 37 -7 12 -56 10
-194 -10z"/>
</g>
<g id="part-3" class="char-part">
  <path d="M620 489 c-25 -5 -80 -10 -122 -12 -72 -2 -91 -8 -69 -21 5 -3 14
-29 21 -57 12 -48 14 -50 39 -44 14 4 78 8 141 10 l115 4 31 54 c23 40 29 58
21 66 -13 13 -113 13 -177 0z m120 -30 c0 -45 -16 -56 -92 -63 -40 -4 -94 -9
-120 -13 l-48 -6 0 42 0 41 58 1 c31 1 82 4 112 9 89 12 90 12 90 -11z"/>
</g>
<g id="part-4" class="char-part">
  <path d="M571 163 c-1 -72 -10 -86 -50 -76 -23 6 -24 5 -9 -16 9 -13 25 -29
36 -37 18 -12 23 -12 40 4 17 14 21 32 24 105 4 84 4 87 -18 87 -20 0 -22 -5
-23 -67z"/>
  <path d="M730 125 c56 -57 76 -66 87 -40 7 21 -23 54 -72 76 -68 31 -72 21
-15 -36z"/>
  <path d="M440 161 c0 -5 -15 -30 -34 -54 -27 -36 -30 -44 -15 -40 11 3 38 23
62 44 35 32 39 40 27 49 -19 12 -40 13 -40 1z"/>
</g>
</g>
</svg>