<?xml version="1.0" standalone="no"?>
<!DOCTYPE svg PUBLIC "-//W3C//DTD SVG 20010904//EN"
 "http://www.w3.org/TR/2001/REC-SVG-20010904/DTD/svg10.dtd">
<svg version="1.0" xmlns="http://www.w3.org/2000/svg"
 width="96.000000pt" height="68.000000pt" viewBox="0 0 96.000000 68.000000"
 preserveAspectRatio="xMidYMid meet">
<metadata>
Created by potrace 1.16, written by Peter Selinger 2001-2019
Combined from part_0.svg through part_5.svg with named groups
</metadata>
<g transform="translate(0.000000,68.000000) scale(0.100000,-0.100000)" fill="#000000" stroke="none">
<g id="part-0" class="char-part">
  <path d="M633 569 c-3 -17 -23 -50 -45 -72 -40 -43 -44 -74 -8 -63 66 20 63
20 52 0 -6 -10 -24 -28 -41 -39 -62 -41 -19 -54 64 -20 l60 25 17 -21 c16 -19
19 -19 24 -5 7 19 -33 69 -48 60 -4 -3 -6 -10 -3 -15 7 -10 -36 -29 -66 -29
-14 0 -2 16 44 59 51 49 60 62 49 73 -11 11 -18 7 -40 -19 -16 -20 -40 -35
-59 -39 -40 -8 -41 -1 -8 32 38 38 58 72 51 89 -10 27 -36 17 -43 -16z"/>
  <path d="M431 558 c21 -41 49 -45 49 -8 0 18 -19 30 -46 30 -12 0 -13 -4 -3
-22z"/>
  <path d="M237 563 c-2 -4 -7 -19 -10 -33 -3 -14 -24 -44 -46 -67 -61 -63 -41
-88 44 -57 15 5 11 -3 -14 -30 -27 -28 -32 -39 -23 -48 9 -9 22 -7 57 10 49
24 80 28 90 12 9 -15 25 -12 25 5 0 15 -38 55 -52 55 -5 0 -4 -8 1 -19 9 -16
6 -19 -17 -24 -15 -3 -36 -9 -46 -13 -17 -7 -17 -4 4 23 13 18 19 36 15 44 -6
8 -4 10 4 4 14 -8 71 41 71 61 0 28 -29 22 -48 -10 -18 -30 -66 -55 -79 -42
-3 3 13 26 36 52 23 26 40 55 39 63 -3 17 -43 28 -51 14z"/>
  <path d="M475 510 c-16 -4 -48 -8 -69 -9 -30 -1 -37 -4 -29 -12 13 -13 183 7
183 22 0 10 -42 10 -85 -1z"/>
  <path d="M420 440 c-21 -7 -19 -8 15 -8 22 0 51 4 65 8 21 7 19 8 -15 8 -22 0
-51 -4 -65 -8z"/>
  <path d="M447 400 c-50 -9 -59 -20 -16 -20 43 0 79 10 79 21 0 10 -8 10 -63
-1z"/>
  <path d="M445 349 c-16 -5 -38 -7 -47 -5 -21 5 -21 5 -6 -31 17 -38 19 -39 73
-35 39 4 48 9 61 33 8 16 12 34 9 39 -8 12 -50 12 -90 -1z m55 -28 c0 -33 -75
-43 -83 -12 -3 15 1 21 17 24 50 10 66 7 66 -12z"/>
  <path d="M700 353 c1 -5 14 -23 30 -42 26 -30 30 -32 36 -16 5 13 -1 25 -20
42 -27 23 -46 30 -46 16z"/>
  <path d="M640 332 c0 -4 7 -18 16 -31 13 -18 18 -20 25 -10 5 8 2 20 -8 31
-17 19 -33 24 -33 10z"/>
  <path d="M560 323 c1 -14 27 -43 39 -43 14 0 14 6 1 31 -10 18 -40 27 -40 12z"/>
  <path d="M300 311 c0 -13 29 -35 37 -28 7 8 -15 37 -28 37 -5 0 -9 -4 -9 -9z"/>
  <path d="M230 297 c0 -8 9 -22 20 -32 19 -18 20 -17 20 1 0 20 -17 44 -32 44
-4 0 -8 -6 -8 -13z"/>
  <path d="M155 278 c11 -36 32 -55 47 -40 13 13 -2 36 -35 53 -17 10 -18 8 -12
-13z"/>
  <path d="M337 228 c-14 -24 -39 -54 -57 -66 -17 -13 -29 -26 -26 -29 3 -3 27
10 53 29 37 27 65 38 122 47 86 14 100 7 78 -36 -26 -50 -42 -58 -81 -39 -38
18 -66 21 -66 7 0 -5 16 -12 35 -15 19 -4 37 -11 40 -16 8 -14 -50 -41 -140
-66 -77 -22 -79 -23 -35 -23 52 -1 141 21 185 45 30 16 33 15 86 -9 91 -44
134 -50 214 -34 l70 14 -60 7 c-78 10 -227 45 -240 57 -6 7 -6 12 1 17 5 4 23
24 39 45 23 31 26 40 15 47 -21 13 -10 19 38 21 24 2 45 6 48 10 10 16 -34 18
-124 4 -145 -23 -137 -23 -134 3 6 40 -33 27 -61 -20z"/>
</g>
<g id="part-1" class="char-part">
  <path d="M235 541 c-3 -16 -24 -50 -46 -74 -51 -59 -51 -71 3 -63 55 9 69 19
35 26 l-28 5 45 53 c50 59 54 67 30 76 -27 10 -32 7 -39 -23z"/>
</g>
<g id="part-2" class="char-part">
  <path d="M700 352 c0 -9 56 -72 64 -72 3 0 6 10 6 23 0 14 -10 29 -29 40 -32
19 -41 21 -41 9z"/>
  <path d="M636 328 c19 -33 38 -48 45 -36 11 18 -9 48 -32 48 -13 0 -18 -4 -13
-12z"/>
  <path d="M567 309 c6 -21 29 -36 39 -26 9 9 -16 47 -30 47 -9 0 -12 -7 -9 -21z"/>
</g>
<g id="part-3" class="char-part">
  <path d="M347 248 c-8 -18 -34 -52 -58 -75 -51 -51 -39 -56 22 -10 46 35 99
48 259 63 86 7 102 13 71 25 -20 8 -132 -5 -228 -26 -17 -4 -20 -1 -16 14 3
13 -2 23 -16 30 -18 10 -22 8 -34 -21z"/>
</g>
<g id="part-4" class="char-part">
  <path d="M519 216 c-1 -3 -2 -9 -3 -13 -5 -26 -30 -72 -42 -77 -8 -3 -32 1
-54 10 -21 9 -47 14 -57 12 -12 -3 -5 -8 22 -17 22 -7 44 -17 49 -21 12 -12
-47 -40 -139 -67 l-80 -23 72 4 c49 3 92 13 132 31 l59 27 73 -34 c63 -28 84
-32 139 -30 36 1 79 6 95 11 28 7 25 9 -30 15 -85 11 -234 46 -241 57 -3 5 9
26 26 45 35 40 36 67 2 72 -12 2 -23 1 -23 -2z"/>
</g>
</g>
</svg>