<?xml version="1.0" standalone="no"?>
<!DOCTYPE svg PUBLIC "-//W3C//DTD SVG 20010904//EN"
 "http://www.w3.org/TR/2001/REC-SVG-20010904/DTD/svg10.dtd">
<svg version="1.0" xmlns="http://www.w3.org/2000/svg"
 width="96.000000pt" height="68.000000pt" viewBox="0 0 96.000000 68.000000"
 preserveAspectRatio="xMidYMid meet">
<metadata>
Created by potrace 1.16, written by Peter Selinger 2001-2019
Combined from part_0.svg through part_5.svg with named groups
</metadata>
<g transform="translate(0.000000,68.000000) scale(0.100000,-0.100000)" fill="#000000" stroke="none">
<g id="part-0" class="char-part">
  <path d="M567 564 l6 -44 -54 0 c-30 0 -61 -5 -69 -10 -11 -7 5 -10 53 -10 60
0 67 -2 67 -19 0 -16 -9 -21 -43 -26 -24 -4 -52 -5 -63 -3 -13 2 -18 -2 -15
-12 2 -8 9 -35 16 -60 12 -44 13 -45 59 -48 38 -3 46 -7 46 -23 0 -16 -7 -19
-42 -20 -24 0 -51 -4 -61 -8 -17 -6 -18 -8 -3 -20 16 -13 67 -8 150 16 14 4
18 1 13 -11 -3 -8 -1 -19 6 -23 13 -8 -136 -31 -212 -32 -37 -1 -42 -3 -31
-16 14 -17 49 -19 117 -6 26 5 67 12 91 14 l43 5 -3 -66 -3 -67 -34 -3 -33 -3
28 -30 c32 -34 45 -36 67 -11 13 14 17 38 17 100 l0 82 88 0 87 1 -24 19 c-20
18 -33 19 -87 14 -55 -6 -64 -5 -64 10 0 10 -9 16 -22 17 -18 1 -16 3 10 11
27 9 36 8 53 -8 17 -15 22 -16 29 -4 6 10 4 20 -6 31 -20 23 -52 30 -62 14 -4
-7 -22 -14 -39 -17 -29 -4 -33 -2 -33 19 0 21 4 23 55 23 54 0 56 1 72 38 10
20 24 45 32 55 14 17 14 20 -4 34 -15 11 -36 13 -87 9 -62 -6 -68 -4 -68 13 0
16 11 20 68 27 37 5 66 14 64 19 -3 10 -32 12 -92 4 -33 -4 -35 -2 -35 25 0
24 -5 31 -27 37 -27 7 -27 7 -21 -37z m143 -124 c0 -16 -7 -20 -34 -20 -19 0
-41 -3 -50 -6 -11 -4 -16 0 -16 14 0 21 2 21 78 29 16 2 22 -2 22 -17z m-140
-15 c0 -8 -4 -15 -9 -15 -5 0 -23 -3 -40 -6 -27 -6 -31 -4 -31 15 0 18 6 21
40 21 29 0 40 -4 40 -15z m130 -34 c0 -13 -9 -18 -53 -26 -33 -7 -37 -5 -37
14 0 18 6 21 45 21 25 0 45 -4 45 -9z m-132 -18 c-5 -25 -71 -25 -76 0 -3 14
4 17 38 17 34 0 41 -3 38 -17z"/>
  <path d="M315 505 c-5 -2 -43 -9 -82 -15 -77 -12 -98 -30 -37 -30 35 0 35 -1
29 -32 -6 -33 -71 -137 -120 -192 -14 -16 -25 -33 -25 -39 0 -11 47 18 90 56
17 16 33 27 36 25 2 -2 7 -22 12 -44 l8 -39 49 3 c73 5 83 10 91 45 3 17 13
42 22 55 8 12 12 26 8 29 -9 10 -72 9 -124 -1 l-42 -9 35 65 c19 36 32 68 29
71 -3 3 20 11 51 17 62 13 70 34 14 37 -19 1 -38 0 -44 -2z m15 -234 c0 -38
-2 -40 -34 -47 -41 -7 -56 0 -56 26 0 29 -11 50 -23 43 -5 -3 -7 -2 -4 4 3 5
31 11 62 12 l55 2 0 -40z"/>
  <path d="M490 161 c0 -16 37 -51 54 -51 40 0 18 45 -26 56 -18 4 -28 2 -28 -5z"/>
</g>
<g id="part-1" class="char-part">
  <path d="M304 500 c-11 -4 -46 -11 -77 -15 -60 -8 -78 -25 -27 -25 26 0 30 -4
30 -28 0 -32 -35 -90 -103 -174 -26 -32 -43 -58 -39 -58 19 0 99 69 123 106
62 95 79 125 79 143 0 15 10 20 48 26 56 8 69 15 51 26 -17 11 -57 10 -85 -1z"/>
</g>
<g id="part-2" class="char-part">
  <path d="M295 330 c-11 -5 -32 -9 -46 -9 -42 -1 -50 -20 -34 -80 15 -57 25
-74 32 -53 3 6 21 12 41 12 48 0 83 10 76 21 -3 5 4 29 14 53 15 32 17 47 9
55 -13 13 -63 13 -92 1z m35 -60 c0 -37 -2 -39 -36 -46 -41 -7 -49 -1 -57 43
-7 35 0 40 61 42 31 1 32 0 32 -39z"/>
</g>
<g id="part-3" class="char-part">
  <path d="M563 568 l2 -43 -58 -6 c-81 -9 -83 -19 -4 -19 60 0 67 -2 67 -20 0
-28 29 -25 40 4 8 21 17 25 75 31 89 10 82 31 -9 27 -67 -3 -67 -3 -60 22 4
18 1 27 -14 35 -34 18 -41 13 -39 -31z"/>
</g>
<g id="part-4" class="char-part">
  <path d="M702 294 c18 -19 32 -25 45 -20 17 7 16 9 -6 27 -13 10 -33 19 -44
19 -21 0 -20 -1 5 -26z"/>
</g>
<g id="part-5" class="char-part">
  <path d="M505 150 c-3 -6 1 -7 10 -4 11 4 14 2 10 -9 -4 -8 0 -17 9 -20 8 -3
17 1 20 9 3 8 2 13 -3 10 -5 -3 -11 1 -15 9 -6 17 -22 20 -31 5z"/>
</g>
</g>
</svg>