<?xml version="1.0" standalone="no"?>
<!DOCTYPE svg PUBLIC "-//W3C//DTD SVG 20010904//EN"
 "http://www.w3.org/TR/2001/REC-SVG-20010904/DTD/svg10.dtd">
<svg version="1.0" xmlns="http://www.w3.org/2000/svg"
 width="96.000000pt" height="68.000000pt" viewBox="0 0 96.000000 68.000000"
 preserveAspectRatio="xMidYMid meet">
<metadata>
Created by potrace 1.16, written by Peter Selinger 2001-2019
Combined from part_0.svg through part_5.svg with named groups
</metadata>
<g transform="translate(0.000000,68.000000) scale(0.100000,-0.100000)" fill="#000000" stroke="none">
<g id="part-0" class="char-part">
  <path d="M390 595 c0 -6 40 -77 52 -92 6 -7 23 -13 39 -13 24 0 29 4 29 23 0
27 -14 47 -50 71 -22 15 -70 23 -70 11z"/>
  <path d="M410 469 c-321 -33 -280 -27 -280 -38 0 -5 14 -14 31 -22 25 -10 44
-10 88 -1 121 24 160 26 167 7 18 -45 -114 -211 -215 -270 -28 -16 -51 -33
-51 -37 0 -8 64 13 107 35 40 21 131 104 148 136 8 14 23 36 33 47 17 20 22
21 71 10 29 -6 56 -18 60 -25 17 -27 -47 -186 -79 -196 -10 -3 -29 -1 -44 5
-32 12 -56 13 -41 2 6 -4 22 -23 37 -44 21 -27 33 -35 48 -31 34 9 76 67 105
144 16 41 35 85 44 98 14 22 13 25 -6 41 -12 10 -49 20 -85 24 -76 9 -81 12
-65 37 10 17 9 22 -5 33 -15 11 -7 14 59 20 42 3 120 6 175 6 75 0 98 3 98 13
0 19 -44 37 -88 36 -20 -1 -161 -14 -312 -30z"/>
</g>
<g id="part-1" class="char-part">
  <path d="M400 583 c0 -22 61 -93 80 -93 26 0 28 50 2 73 -22 20 -82 34 -82 20z"/>
  <path d="M515 475 c-121 -12 -255 -26 -297 -30 -43 -3 -78 -10 -78 -15 0 -4
13 -13 28 -19 22 -9 42 -8 92 3 93 22 275 38 418 37 97 0 122 2 122 13 0 11
-58 42 -64 35 -1 -1 -100 -11 -221 -24z"/>
</g>
<g id="part-2" class="char-part">
  <path d="M415 420 c17 -52 -105 -204 -223 -280 -69 -44 -50 -50 33 -12 76 36
152 104 208 187 22 33 44 62 49 63 19 8 7 43 -18 52 -41 16 -56 13 -49 -10z"/>
</g>
<g id="part-3" class="char-part">
  <path d="M465 351 c3 -5 20 -12 38 -16 61 -12 67 -16 67 -41 0 -40 -38 -137
-65 -163 -23 -24 -25 -24 -65 -8 -43 17 -43 14 -2 -40 15 -21 33 -33 47 -33
34 0 86 67 114 147 13 37 31 78 39 91 13 21 13 25 -1 39 -24 24 -186 46 -172
24z"/>
</g>
</g>
</svg>