<?xml version="1.0" standalone="no"?>
<!DOCTYPE svg PUBLIC "-//W3C//DTD SVG 20010904//EN"
 "http://www.w3.org/TR/2001/REC-SVG-20010904/DTD/svg10.dtd">
<svg version="1.0" xmlns="http://www.w3.org/2000/svg"
 width="96.000000pt" height="68.000000pt" viewBox="0 0 96.000000 68.000000"
 preserveAspectRatio="xMidYMid meet">
<metadata>
Created by potrace 1.16, written by Peter Selinger 2001-2019
Combined from part_0.svg through part_5.svg with named groups
</metadata>
<g transform="translate(0.000000,68.000000) scale(0.100000,-0.100000)" fill="#000000" stroke="none">
<g id="part-0" class="char-part">
  <path d="M647 573 c-4 -3 -7 -20 -7 -38 0 -35 -15 -55 -43 -55 -10 0 -15 -4
-12 -10 3 -5 15 -10 27 -10 20 0 20 0 1 -47 -11 -28 14 -11 31 21 18 34 47 46
119 46 15 0 27 5 27 10 0 11 -25 14 -77 11 -36 -3 -38 0 -22 31 9 18 8 24 -7
35 -20 15 -28 16 -37 6z"/>
  <path d="M446 511 c8 -17 12 -35 9 -41 -8 -13 -72 -8 -102 8 -18 10 -40 9
-110 -4 -118 -22 -121 -23 -103 -34 8 -6 30 -10 48 -10 26 0 32 -4 33 -22 0
-13 2 -31 4 -42 6 -30 -6 -46 -34 -46 -14 0 -33 -5 -41 -10 -11 -7 -2 -10 33
-10 l47 0 0 -54 0 -53 -43 -17 c-23 -9 -48 -16 -54 -16 -24 0 -23 -20 0 -31
21 -9 38 -4 131 46 106 57 134 83 56 51 -22 -9 -43 -16 -46 -16 -3 0 -4 24 -2
53 3 51 4 52 38 58 35 5 29 14 -15 21 -17 3 -19 10 -16 48 1 25 4 47 7 49 2 2
21 7 43 11 28 5 46 3 60 -6 14 -11 26 -11 46 -4 38 14 44 13 51 -15 3 -14 11
-22 16 -19 5 4 8 15 5 25 -4 13 2 23 16 31 l22 12 -25 6 c-15 3 -26 15 -30 30
-4 18 -14 26 -32 28 -27 3 -27 3 -12 -27z"/>
  <path d="M525 373 c17 -43 12 -48 -53 -51 -62 -3 -62 -3 -56 -30 4 -15 11 -37
15 -50 15 -38 11 -42 -41 -42 -49 0 -66 -12 -33 -24 9 -4 49 -4 90 0 84 8 89
2 42 -51 -31 -35 -65 -58 -124 -83 l-30 -12 35 5 c64 10 170 75 170 104 0 6 3
11 8 11 4 0 12 10 17 23 9 21 17 22 145 27 134 5 135 5 108 23 -19 13 -36 16
-62 12 -50 -10 -60 1 -36 35 11 15 20 32 20 37 0 21 -49 35 -99 30 -48 -5 -51
-4 -51 18 0 24 -17 35 -52 35 -15 0 -18 -4 -13 -17z m142 -96 c-6 -44 -19 -57
-59 -57 -26 0 -28 3 -28 43 0 24 2 46 4 48 2 2 23 5 46 5 l42 2 -5 -41z m-127
-4 c0 -51 -11 -65 -46 -61 -26 3 -29 7 -32 45 -3 44 -4 43 66 52 8 0 12 -12
12 -36z"/>
  <path d="M610 148 c0 -11 141 -118 154 -118 24 0 19 38 -9 64 -13 12 -44 28
-67 35 -24 7 -51 15 -60 17 -10 3 -18 4 -18 2z"/>
</g>
<g id="part-1" class="char-part">
  <path d="M217 465 c-101 -18 -95 -28 13 -22 100 6 133 13 124 28 -7 11 -51 10
-137 -6z"/>
</g>
<g id="part-2" class="char-part">
  <path d="M218 380 l4 -60 -36 0 c-19 0 -38 -4 -41 -10 -4 -6 12 -10 39 -10
l46 0 0 -55 0 -55 -60 -17 c-33 -10 -60 -21 -60 -26 0 -4 11 -12 24 -18 21
-10 38 -4 132 47 102 54 131 84 49 50 -21 -9 -39 -16 -42 -16 -2 0 -3 24 -1
53 3 51 4 52 36 55 40 4 42 22 2 22 -29 0 -30 1 -30 50 0 50 0 50 -32 50 l-33
0 3 -60z"/>
</g>
<g id="part-3" class="char-part">
  <path d="M640 542 c0 -42 -14 -62 -44 -63 -18 -1 -18 -2 5 -12 21 -10 24 -16
18 -32 -19 -48 1 -48 26 -1 18 33 22 35 88 41 51 5 66 10 57 19 -6 6 -33 10
-61 9 -53 -2 -54 -2 -38 29 9 18 8 24 -7 35 -31 23 -44 16 -44 -25z"/>
  <path d="M445 509 c20 -37 16 -41 -30 -44 -45 -3 -53 -10 -27 -24 14 -8 29 -8
47 -1 35 13 34 14 45 -15 12 -33 30 -32 30 1 0 15 8 33 18 40 16 12 15 13 -5
14 -14 0 -24 9 -32 30 -7 23 -16 30 -36 30 -25 0 -25 0 -10 -31z"/>
</g>
<g id="part-4" class="char-part">
  <path d="M526 373 c4 -10 9 -37 12 -60 3 -33 8 -43 22 -43 13 0 19 11 23 52 7
56 0 68 -42 68 -18 0 -22 -4 -15 -17z"/>
</g>
<g id="part-5" class="char-part">
  <path d="M547 253 c-4 -3 -7 -14 -7 -24 0 -9 -8 -20 -17 -24 -17 -6 -17 -7 0
-20 16 -11 16 -14 3 -28 -8 -8 -13 -17 -10 -19 2 -3 -2 -11 -11 -18 -8 -7 -15
-9 -15 -6 0 4 -7 1 -15 -8 -9 -8 -15 -18 -15 -22 1 -4 -4 -11 -12 -15 -7 -5
-8 -9 -2 -9 6 0 28 17 50 38 46 46 67 72 58 72 -3 0 -1 7 6 15 7 8 21 15 31
15 11 0 19 5 19 11 0 5 -4 8 -9 5 -5 -4 -17 -3 -26 0 -13 5 -14 8 -3 15 10 7
11 9 0 9 -7 0 -10 5 -7 10 7 11 -8 14 -18 3z"/>
  <path d="M720 220 c0 -3 -23 -5 -50 -4 -28 2 -48 0 -45 -5 2 -5 51 -9 107 -10
75 -1 100 1 92 9 -13 13 -104 21 -104 10z"/>
  <path d="M454 199 c-2 -4 0 -10 5 -13 11 -7 41 3 41 13 0 9 -40 9 -46 0z"/>
  <path d="M350 189 c0 -6 7 -8 16 -5 10 4 13 2 8 -6 -5 -8 -2 -9 10 -5 10 4 22
7 27 7 5 0 9 5 9 10 0 6 -16 10 -35 10 -19 0 -35 -5 -35 -11z"/>
  <path d="M662 110 c18 -15 47 -40 63 -54 17 -14 33 -26 38 -26 10 0 9 32 -2
49 -7 11 -11 10 -20 -5 -11 -17 -11 -17 -6 4 5 17 1 24 -17 31 -13 5 -26 7
-30 4 -5 -2 -8 0 -8 5 0 5 -12 12 -26 15 -25 4 -24 4 8 -23z m68 -16 c0 -8
-19 -13 -24 -6 -3 5 1 9 9 9 8 0 15 -2 15 -3z"/>
  <path d="M385 50 c-16 -7 -17 -9 -3 -9 9 -1 20 4 23 9 7 11 7 11 -20 0z"/>
</g>
</g>
</svg>