<?xml version="1.0" standalone="no"?>
<!DOCTYPE svg PUBLIC "-//W3C//DTD SVG 20010904//EN"
 "http://www.w3.org/TR/2001/REC-SVG-20010904/DTD/svg10.dtd">
<svg version="1.0" xmlns="http://www.w3.org/2000/svg"
 width="96.000000pt" height="68.000000pt" viewBox="0 0 96.000000 68.000000"
 preserveAspectRatio="xMidYMid meet">
<metadata>
Created by potrace 1.16, written by Peter Selinger 2001-2019
Combined from part_0.svg through part_5.svg with named groups
</metadata>
<g transform="translate(0.000000,68.000000) scale(0.100000,-0.100000)" fill="#000000" stroke="none">
<g id="part-0" class="char-part">
  <path d="M536 555 c-9 -21 -16 -41 -16 -45 0 -16 -31 -32 -62 -32 l-33 0 3
-126 c2 -70 8 -131 12 -136 15 -15 20 12 22 123 l3 105 55 12 c67 16 70 16 70
6 0 -5 -12 -15 -27 -22 -23 -11 -25 -14 -10 -18 14 -3 17 -11 15 -35 -3 -28
-7 -32 -37 -34 -41 -4 -55 -13 -19 -13 38 0 41 -11 11 -42 -31 -33 -18 -38 21
-7 l26 20 -6 -30 c-5 -24 -3 -31 9 -31 16 0 27 20 27 52 0 20 1 20 18 5 20
-18 42 -22 42 -9 0 14 -23 32 -42 32 -10 0 -18 5 -18 10 0 6 18 10 40 10 23 0
40 5 40 11 0 7 -15 10 -40 7 -38 -3 -40 -2 -40 24 0 16 -6 28 -12 29 -7 0 2 5
20 10 29 9 45 29 22 29 -5 0 -10 5 -10 10 0 11 49 14 74 4 13 -5 16 -24 16
-100 0 -79 -2 -92 -15 -88 -20 8 -19 -5 4 -40 l19 -28 18 27 c14 22 19 52 21
137 3 105 3 109 -20 119 -17 8 -47 6 -112 -5 -49 -9 -90 -14 -93 -12 -2 2 13
20 32 40 35 34 45 56 27 56 -5 0 -16 3 -25 6 -10 4 -20 -5 -30 -31z"/>
  <path d="M228 434 c7 -184 -12 -253 -96 -346 -36 -40 -30 -48 16 -24 35 18 65
51 95 104 l24 42 32 -35 c33 -37 45 -42 56 -24 15 23 -5 56 -44 74 -37 16 -39
19 -34 54 8 52 28 79 78 103 49 24 56 41 26 58 -32 17 -48 12 -61 -20 -25 -59
-33 -47 -27 38 6 74 4 83 -13 92 -10 5 -27 10 -38 10 -18 0 -19 -7 -14 -126z"/>
  <path d="M636 404 c-9 -24 -8 -26 14 -14 11 6 20 15 20 20 0 16 -27 11 -34 -6z"/>
  <path d="M513 383 c9 -9 19 -14 23 -11 10 10 -6 28 -24 28 -15 0 -15 -1 1 -17z"/>
  <path d="M110 381 c0 -7 9 -30 20 -51 25 -49 60 -56 60 -12 0 16 -6 36 -12 45
-16 20 -68 34 -68 18z"/>
  <path d="M540 221 c0 -22 -25 -29 -108 -33 -29 -1 -55 -5 -58 -9 -9 -14 39
-21 102 -14 39 4 64 3 64 -3 0 -19 -66 -80 -110 -101 l-45 -21 44 5 c24 3 58
15 75 27 37 25 75 68 76 84 0 20 27 24 141 24 60 0 109 4 109 8 0 5 -11 14
-24 21 -18 10 -44 11 -105 4 -68 -8 -86 -7 -104 6 -33 23 -57 24 -57 2z"/>
  <path d="M641 143 c1 -5 25 -30 55 -57 61 -55 89 -64 89 -27 0 20 -12 31 -60
57 -60 33 -86 41 -84 27z"/>
</g>
<g id="part-1" class="char-part">
  <path d="M226 533 c13 -32 16 -178 5 -254 -13 -82 -42 -140 -96 -190 -40 -38
-39 -47 2 -26 41 22 90 76 109 122 l16 40 30 -38 c32 -39 58 -48 58 -19 0 25
-11 37 -48 56 -32 17 -33 18 -26 64 8 56 21 73 75 97 45 21 50 48 8 53 -20 2
-28 -4 -42 -33 -9 -19 -21 -35 -27 -35 -13 0 -13 60 1 117 13 51 5 63 -45 63
-23 0 -27 -3 -20 -17z"/>
  <path d="M110 385 c0 -12 40 -84 51 -91 12 -7 29 12 29 32 0 18 -33 52 -57 59
-13 3 -23 4 -23 0z"/>
</g>
<g id="part-2" class="char-part">
  <path d="M527 538 c-13 -29 -20 -55 -14 -57 5 -2 29 16 53 40 41 40 43 45 27
56 -29 22 -41 15 -66 -39z"/>
</g>
<g id="part-3" class="char-part">
  <path d="M615 494 c-38 -7 -97 -13 -130 -13 l-60 -1 3 -127 c2 -71 8 -132 12
-137 15 -15 20 12 22 124 l3 104 85 18 c47 10 101 17 120 15 l35 -2 3 -92 c2
-78 0 -93 -13 -93 -19 0 -19 -10 1 -38 18 -26 39 -28 49 -5 4 10 9 61 10 114
1 53 5 101 9 107 8 14 -32 42 -59 41 -11 -1 -51 -7 -90 -15z"/>
</g>
<g id="part-4" class="char-part">
  <path d="M540 221 c0 -23 -26 -30 -112 -32 -32 -1 -58 -6 -58 -10 0 -15 43
-21 106 -14 45 5 64 3 64 -5 0 -20 -64 -77 -110 -98 -37 -17 -41 -20 -20 -21
40 -1 102 33 143 77 20 23 37 47 37 52 0 6 47 10 120 10 66 0 120 4 120 9 0
21 -56 31 -129 23 -62 -7 -78 -6 -107 10 -43 23 -54 23 -54 -1z"/>
  <path d="M631 146 c2 -2 33 -29 68 -60 72 -63 94 -70 89 -29 -2 23 -14 34 -68
60 -53 27 -106 44 -89 29z"/>
</g>
</g>
</svg>