<?xml version="1.0" standalone="no"?>
<!DOCTYPE svg PUBLIC "-//W3C//DTD SVG 20010904//EN"
 "http://www.w3.org/TR/2001/REC-SVG-20010904/DTD/svg10.dtd">
<svg version="1.0" xmlns="http://www.w3.org/2000/svg"
 width="96.000000pt" height="68.000000pt" viewBox="0 0 96.000000 68.000000"
 preserveAspectRatio="xMidYMid meet">
<metadata>
Created by potrace 1.16, written by Peter Selinger 2001-2019
Combined from part_0.svg through part_5.svg with named groups
</metadata>
<g transform="translate(0.000000,68.000000) scale(0.100000,-0.100000)" fill="#000000" stroke="none">
<g id="part-0" class="char-part">
  <path d="M478 511 c5 -106 2 -113 -53 -122 -17 -4 -19 1 -17 30 4 33 -9 51
-35 51 -9 0 -13 -18 -13 -55 l0 -55 -45 -12 c-25 -7 -45 -16 -45 -20 0 -11 48
-10 71 2 18 10 19 7 19 -56 0 -121 58 -158 250 -158 133 1 213 24 218 65 2 14
-4 31 -12 39 -9 7 -16 21 -16 31 0 35 -19 29 -31 -11 -20 -65 -44 -75 -189
-75 -170 0 -180 6 -180 110 0 72 1 76 26 85 47 18 54 14 54 -37 0 -57 9 -95
20 -88 5 3 12 41 16 85 6 73 8 80 33 88 14 6 34 13 44 17 18 7 19 3 12 -71
l-6 -79 20 23 c20 23 61 121 61 146 0 19 -60 26 -90 11 -14 -7 -36 -16 -49
-20 l-24 -7 6 81 c5 80 5 82 -20 92 -13 5 -25 9 -27 9 -1 0 0 -45 2 -99z"/>
  <path d="M180 532 c0 -5 16 -23 37 -41 41 -37 76 -38 81 -3 3 18 -4 26 -32 37
-38 16 -86 20 -86 7z"/>
  <path d="M105 410 c-8 -13 63 -80 85 -80 23 0 28 41 8 58 -19 15 -87 31 -93
22z"/>
  <path d="M265 302 c-6 -4 -23 -24 -39 -46 -16 -21 -44 -47 -62 -58 -23 -13
-34 -27 -34 -43 0 -28 31 -68 46 -57 5 4 32 49 58 100 44 87 55 121 31 104z"/>
</g>
<g id="part-1" class="char-part">
  <path d="M192 528 c2 -6 21 -25 41 -41 30 -25 39 -28 51 -17 22 17 5 45 -35
59 -41 14 -62 14 -57 -1z"/>
  <path d="M116 398 c31 -55 94 -80 94 -37 0 13 -11 25 -35 35 -43 18 -69 18
-59 2z"/>
  <path d="M235 260 c-16 -20 -47 -50 -68 -66 -28 -21 -36 -33 -31 -48 8 -26 23
-46 35 -46 10 0 101 178 97 190 -2 4 -16 -9 -33 -30z"/>
</g>
<g id="part-2" class="char-part">
  <path d="M360 416 c0 -54 0 -55 -37 -66 -60 -19 -65 -33 -10 -27 l47 5 0 -65
c0 -60 3 -67 31 -94 35 -32 73 -44 171 -54 72 -8 196 8 241 31 30 16 37 53 12
74 -8 7 -15 20 -15 29 0 9 -4 23 -9 31 -7 10 -13 2 -22 -34 -11 -44 -16 -50
-57 -68 -38 -17 -61 -20 -151 -16 -148 5 -161 13 -161 112 0 68 2 74 25 84 14
6 25 19 25 27 0 12 -4 14 -19 5 -29 -15 -31 -13 -25 20 7 32 -8 60 -32 60 -10
0 -14 -15 -14 -54z"/>
</g>
<g id="part-3" class="char-part">
  <path d="M478 510 c4 -86 2 -100 -12 -106 -9 -3 -16 -13 -16 -21 0 -9 6 -13
15 -9 12 4 15 -5 15 -53 0 -118 25 -119 35 -2 l7 78 37 14 c20 8 40 16 45 18
5 2 6 -29 2 -75 l-6 -79 19 25 c19 24 61 123 62 145 0 21 -64 24 -103 4 -21
-11 -44 -17 -50 -13 -7 4 -9 33 -6 81 5 72 4 75 -19 84 -13 5 -26 9 -27 9 -2
0 -1 -45 2 -100z"/>
</g>
</g>
</svg>