<?xml version="1.0" standalone="no"?>
<!DOCTYPE svg PUBLIC "-//W3C//DTD SVG 20010904//EN"
 "http://www.w3.org/TR/2001/REC-SVG-20010904/DTD/svg10.dtd">
<svg version="1.0" xmlns="http://www.w3.org/2000/svg"
 width="96.000000pt" height="68.000000pt" viewBox="0 0 96.000000 68.000000"
 preserveAspectRatio="xMidYMid meet">
<metadata>
Created by potrace 1.16, written by Peter Selinger 2001-2019
Combined from part_0.svg through part_5.svg with named groups
</metadata>
<g transform="translate(0.000000,68.000000) scale(0.100000,-0.100000)" fill="#000000" stroke="none">
<g id="part-0" class="char-part">
  <path d="M400 596 c0 -42 -1 -44 -37 -50 -21 -3 -52 -6 -70 -6 -35 0 -52 -15
-27 -24 9 -3 40 -6 70 -6 37 0 54 -4 54 -12 0 -27 -17 -37 -69 -40 -73 -4 -83
-28 -12 -28 54 0 72 -13 49 -37 -10 -9 -46 -16 -106 -20 -51 -3 -92 -10 -92
-14 0 -15 70 -22 120 -12 l49 10 -17 -29 c-21 -37 -81 -84 -157 -125 -67 -36
-53 -44 25 -14 59 23 145 89 183 143 25 35 30 38 76 38 50 0 71 -12 137 -75
36 -35 105 -89 131 -103 26 -14 143 -8 143 8 0 4 -33 17 -74 29 -46 14 -108
44 -165 80 l-90 58 67 7 c37 3 84 6 105 6 20 0 37 4 37 10 0 17 -71 30 -114
21 -23 -5 -80 -12 -129 -16 l-87 -7 11 25 c10 23 19 26 88 32 91 8 104 11 98
28 -4 13 -59 16 -119 5 -27 -5 -38 -3 -38 5 0 26 18 37 75 43 75 9 108 20 99
35 -5 8 -30 10 -80 5 l-73 -6 11 26 c11 22 9 28 -7 40 -10 8 -29 14 -42 14
-21 0 -23 -5 -23 -44z"/>
  <path d="M445 274 c-38 -7 -84 -13 -101 -13 -32 -1 -32 -1 -23 -38 5 -21 9
-68 9 -105 0 -52 3 -68 14 -68 8 0 17 3 20 8 6 10 146 15 146 5 0 -4 7 -16 14
-26 12 -15 18 -16 35 -7 19 10 21 19 21 121 0 149 0 149 -135 123z m87 -31
c10 -43 -1 -51 -75 -57 -40 -4 -76 -8 -82 -9 -5 -1 -11 12 -13 30 -3 34 -1 35
68 46 65 11 98 7 102 -10z m-1 -78 c3 -2 3 -20 1 -40 -3 -27 -8 -34 -21 -31
-9 3 -44 2 -79 -3 -60 -7 -63 -6 -68 16 -11 40 1 52 58 56 29 2 65 4 79 5 14
1 28 0 30 -3z"/>
</g>
<g id="part-1" class="char-part">
  <path d="M404 593 l1 -48 -67 -6 c-93 -8 -97 -19 -9 -19 71 0 73 -1 67 -22 -3
-13 -6 -26 -6 -30 0 -4 -27 -10 -60 -14 -35 -4 -57 -11 -53 -16 3 -6 24 -8 49
-4 35 4 44 3 44 -9 0 -19 36 -20 43 -1 6 15 29 21 120 31 31 4 57 11 57 17 0
7 -26 9 -81 4 -81 -7 -81 -7 -73 16 9 32 16 34 97 42 77 7 86 11 70 27 -7 7
-32 7 -77 1 l-66 -9 6 33 c5 26 2 34 -14 43 -39 21 -48 14 -48 -36z"/>
</g>
<g id="part-2" class="char-part">
  <path d="M565 404 c-99 -16 -168 -18 -160 -4 10 17 -37 11 -49 -6 -8 -11 -37
-17 -104 -21 -50 -3 -92 -9 -92 -13 0 -21 82 -27 138 -11 17 5 32 6 32 2 0
-18 -112 -113 -173 -146 -37 -21 -66 -39 -64 -41 7 -8 97 24 139 49 37 22 72
54 151 138 11 13 31 19 60 19 40 0 51 -7 143 -86 54 -47 109 -89 122 -94 24
-10 142 -2 142 10 0 3 -35 17 -77 31 -47 14 -112 46 -163 79 l-85 55 55 7 c30
3 76 6 103 7 26 1 47 5 47 10 0 10 -56 32 -74 30 -6 -1 -47 -8 -91 -15z"/>
</g>
<g id="part-3" class="char-part">
  <path d="M440 275 c-36 -7 -79 -13 -96 -14 l-31 -1 8 -42 c4 -24 8 -70 9 -104
0 -64 6 -80 24 -65 6 5 41 12 77 16 63 7 67 6 86 -19 24 -30 35 -32 54 -10 10
12 13 45 11 123 -4 140 -6 142 -142 116z m90 -49 l0 -33 -61 -7 c-106 -11
-109 -10 -109 24 0 23 5 31 23 34 12 3 31 7 42 9 11 3 39 5 63 6 41 1 42 0 42
-33z m0 -93 l0 -38 -86 -3 -85 -3 3 33 c3 32 5 33 58 39 115 12 110 13 110
-28z"/>
</g>
</g>
</svg>