<?xml version="1.0" standalone="no"?>
<!DOCTYPE svg PUBLIC "-//W3C//DTD SVG 20010904//EN"
 "http://www.w3.org/TR/2001/REC-SVG-20010904/DTD/svg10.dtd">
<svg version="1.0" xmlns="http://www.w3.org/2000/svg"
 width="96.000000pt" height="68.000000pt" viewBox="0 0 96.000000 68.000000"
 preserveAspectRatio="xMidYMid meet">
<metadata>
Created by potrace 1.16, written by Peter Selinger 2001-2019
Combined from part_0.svg through part_5.svg with named groups
</metadata>
<g transform="translate(0.000000,68.000000) scale(0.100000,-0.100000)" fill="#000000" stroke="none">
<g id="part-0" class="char-part">
  <path d="M510 590 c0 -6 7 -24 15 -39 l14 -29 -114 -12 c-63 -7 -115 -15 -115
-18 0 -3 8 -11 18 -18 13 -10 17 -25 15 -75 -5 -115 -48 -225 -128 -324 -54
-65 -38 -73 30 -13 83 73 115 139 145 301 10 54 20 100 22 103 10 9 116 22
241 29 91 6 127 11 127 20 0 19 -53 37 -91 31 -86 -15 -89 -15 -89 -1 0 22
-41 55 -67 55 -13 0 -23 -5 -23 -10z"/>
  <path d="M619 456 c-6 -6 -65 -16 -126 -23 -29 -3 -53 -10 -53 -16 0 -10 88
-5 175 9 l40 7 -29 -32 c-22 -23 -39 -31 -63 -31 l-34 0 26 -24 c14 -13 22
-26 18 -28 -4 -3 -38 -4 -75 -4 l-66 1 -6 -90 c-2 -50 -8 -106 -11 -126 -5
-24 -3 -39 5 -44 16 -10 27 10 35 57 l7 38 54 0 54 0 0 -42 c0 -64 16 -80 29
-32 6 21 11 49 11 62 0 15 6 22 19 22 10 0 39 3 65 6 l47 7 -3 -44 c-3 -40 -6
-44 -32 -47 l-28 -4 28 -29 c15 -16 33 -29 38 -29 25 0 40 47 42 130 1 47 5
104 8 127 10 56 -9 66 -103 55 -62 -7 -70 -6 -74 9 -4 13 11 25 59 49 35 17
64 35 64 39 0 19 -105 43 -121 27z m121 -170 c0 -21 -6 -24 -62 -30 -34 -3
-62 -5 -64 -4 -1 2 0 15 3 30 5 25 10 27 57 30 63 4 66 2 66 -26z m-172 -16
c2 -30 2 -30 -48 -30 -46 0 -50 2 -50 24 0 26 13 33 65 35 27 1 31 -2 33 -29z
m172 -55 c0 -21 -5 -25 -27 -25 -16 0 -45 -3 -66 -7 -37 -6 -39 -5 -35 18 3
21 10 25 58 30 30 3 58 6 63 7 4 1 7 -9 7 -23z m-172 -17 c-3 -20 -10 -23 -50
-26 -46 -3 -48 -2 -48 22 0 24 3 26 51 26 47 0 50 -2 47 -22z"/>
  <path d="M200 414 c0 -22 55 -78 69 -70 17 11 13 44 -9 66 -24 24 -60 27 -60
4z"/>
  <path d="M230 285 c-25 -14 -57 -25 -72 -25 -35 0 -37 -24 -3 -46 24 -16 26
-15 85 36 33 29 60 54 60 56 0 9 -28 1 -70 -21z"/>
</g>
<g id="part-1" class="char-part">
  <path d="M510 594 c0 -5 9 -23 19 -41 l20 -31 -37 -6 c-20 -3 -64 -8 -97 -12
-33 -3 -69 -8 -79 -11 -17 -5 -18 -6 -3 -15 12 -6 17 -23 17 -58 0 -115 -57
-264 -130 -344 -50 -54 -35 -61 25 -12 69 57 122 177 146 328 7 47 17 79 25
82 13 5 122 17 299 32 64 6 68 7 50 21 -16 11 -37 13 -97 8 -73 -6 -78 -5 -78
13 0 11 -6 24 -13 30 -17 14 -67 26 -67 16z"/>
  <path d="M200 426 c0 -16 45 -76 56 -76 28 0 28 32 0 57 -24 20 -56 31 -56 19z"/>
  <path d="M240 285 c-25 -14 -53 -25 -62 -25 -9 0 -24 -3 -33 -6 -14 -6 -14 -8
1 -25 9 -11 21 -19 26 -19 13 0 118 81 118 91 0 11 4 12 -50 -16z"/>
</g>
<g id="part-2" class="char-part">
  <path d="M565 444 c-33 -7 -75 -13 -92 -14 -18 0 -33 -4 -33 -10 0 -13 76 -13
140 1 70 15 79 8 39 -29 -19 -18 -28 -32 -20 -32 19 0 141 59 141 69 0 13 -49
31 -83 30 -18 -1 -59 -7 -92 -15z"/>
</g>
<g id="part-3" class="char-part">
  <path d="M536 373 c-8 -9 46 -53 65 -53 20 0 26 25 9 35 -18 11 -68 23 -74 18z"/>
</g>
<g id="part-4" class="char-part">
  <path d="M665 330 c-22 -5 -84 -12 -137 -16 l-98 -7 0 -71 c0 -39 -5 -88 -11
-109 -10 -38 -5 -77 11 -77 14 0 28 65 36 157 4 52 11 84 20 87 7 2 67 8 133
12 l121 7 1 -54 c1 -85 -2 -173 -7 -181 -2 -3 -19 -2 -36 3 l-32 9 34 -35 c19
-19 40 -35 47 -35 22 0 46 69 40 115 -3 22 -2 72 3 110 8 60 7 72 -7 83 -19
13 -57 14 -118 2z"/>
</g>
</g>
</svg>