<?xml version="1.0" standalone="no"?>
<!DOCTYPE svg PUBLIC "-//W3C//DTD SVG 20010904//EN"
 "http://www.w3.org/TR/2001/REC-SVG-20010904/DTD/svg10.dtd">
<svg version="1.0" xmlns="http://www.w3.org/2000/svg"
 width="96.000000pt" height="68.000000pt" viewBox="0 0 96.000000 68.000000"
 preserveAspectRatio="xMidYMid meet">
<metadata>
Created by potrace 1.16, written by Peter Selinger 2001-2019
Combined from part_0.svg through part_5.svg with named groups
</metadata>
<g transform="translate(0.000000,68.000000) scale(0.100000,-0.100000)" fill="#000000" stroke="none">
<g id="part-0" class="char-part">
  <path d="M206 544 c4 -16 8 -56 9 -89 0 -46 -4 -60 -15 -62 -104 -14 -124 -33
-35 -33 l56 0 -3 -67 -3 -68 -67 -20 c-38 -11 -68 -23 -68 -26 0 -3 15 -14 34
-24 l33 -18 116 62 c64 34 119 66 122 72 9 14 -37 10 -65 -6 -41 -23 -50 -19
-50 26 0 55 15 79 48 79 16 0 37 6 47 14 18 13 18 14 -6 22 -13 4 -36 6 -51 5
-26 -2 -28 1 -28 31 0 18 4 47 9 65 11 38 2 48 -53 58 l-39 8 9 -29z"/>
  <path d="M496 561 c-3 -4 10 -26 29 -48 l34 -41 -95 -12 c-63 -8 -92 -16 -85
-23 10 -10 356 14 368 27 15 14 -14 21 -88 19 -77 -1 -79 -1 -79 23 0 17 -10
31 -32 44 -37 22 -44 24 -52 11z"/>
  <path d="M560 354 c-33 -10 -53 -11 -74 -4 -16 6 -32 10 -35 10 -4 0 -5 -29
-3 -64 5 -77 -12 -120 -69 -171 -50 -45 -49 -52 3 -23 56 31 95 88 110 159 13
62 10 59 86 74 l24 4 -7 -98 -7 -98 29 -33 c25 -28 38 -34 84 -38 64 -5 138
12 146 35 3 9 1 24 -5 34 -7 10 -12 28 -12 39 0 31 -20 23 -27 -11 -8 -43 -43
-63 -100 -56 -64 7 -76 25 -69 106 3 35 12 74 21 87 38 59 0 79 -95 48z"/>
</g>
<g id="part-1" class="char-part">
  <path d="M210 541 c5 -11 10 -49 10 -85 l0 -65 -50 -7 c-60 -8 -56 -24 6 -24
l44 0 0 -69 0 -70 -54 -15 c-30 -9 -59 -16 -66 -16 -21 0 -4 -25 24 -35 24 -8
41 -2 129 44 56 30 108 58 115 64 24 19 4 18 -47 -3 l-52 -20 3 62 3 63 48 9
c26 5 47 13 47 17 0 13 -39 21 -70 14 -27 -6 -30 -4 -30 17 0 13 5 43 11 68 9
38 8 46 -7 57 -10 7 -31 13 -46 13 -25 0 -27 -2 -18 -19z"/>
</g>
<g id="part-2" class="char-part">
  <path d="M490 565 c0 -15 24 -52 47 -71 l25 -21 -93 -12 c-51 -7 -95 -14 -98
-16 -19 -19 119 -14 343 12 47 5 49 6 30 20 -14 11 -36 13 -91 9 -65 -6 -71
-5 -67 11 6 23 -31 59 -68 68 -16 4 -28 4 -28 0z"/>
</g>
<g id="part-3" class="char-part">
  <path d="M448 305 c6 -77 -17 -134 -76 -186 -37 -32 -42 -39 -22 -33 40 11 99
63 121 107 12 22 24 66 26 97 5 54 4 57 -18 63 -13 4 -27 7 -30 7 -3 0 -4 -25
-1 -55z"/>
</g>
<g id="part-4" class="char-part">
  <path d="M548 352 c-82 -27 -51 -40 36 -15 17 5 18 0 11 -94 -7 -97 -6 -100
19 -130 18 -21 39 -33 66 -38 49 -8 132 2 155 19 16 11 15 16 -1 66 l-18 55
-8 -35 c-12 -49 -41 -70 -94 -70 -68 0 -88 26 -82 104 3 34 13 77 22 95 10 18
15 39 12 47 -7 18 -57 17 -118 -4z"/>
</g>
</g>
</svg>