<?xml version="1.0" standalone="no"?>
<!DOCTYPE svg PUBLIC "-//W3C//DTD SVG 20010904//EN"
 "http://www.w3.org/TR/2001/REC-SVG-20010904/DTD/svg10.dtd">
<svg version="1.0" xmlns="http://www.w3.org/2000/svg"
 width="96.000000pt" height="68.000000pt" viewBox="0 0 96.000000 68.000000"
 preserveAspectRatio="xMidYMid meet">
<metadata>
Created by potrace 1.16, written by Peter Selinger 2001-2019
Combined from part_0.svg through part_5.svg with named groups
</metadata>
<g transform="translate(0.000000,68.000000) scale(0.100000,-0.100000)" fill="#000000" stroke="none">
<g id="part-0" class="char-part">
  <path d="M410 553 c-69 -8 -127 -17 -129 -18 -13 -13 19 -25 69 -25 56 0 58
-1 69 -31 25 -71 21 -75 -79 -83 -49 -4 -113 -4 -141 0 l-50 7 16 -39 c9 -22
19 -84 23 -139 6 -84 10 -100 25 -103 15 -3 17 8 17 117 0 66 3 122 8 124 4 3
49 8 100 11 l92 8 0 -121 c0 -110 8 -148 25 -120 6 9 23 172 25 232 0 16 10
17 113 15 l112 -3 3 -80 c3 -87 -13 -164 -35 -172 -8 -3 -30 2 -49 11 -47 22
-53 20 -24 -8 14 -13 33 -33 42 -45 30 -36 66 -24 96 35 6 11 16 65 22 120 6
54 13 111 16 126 5 22 1 29 -26 43 -28 15 -45 15 -131 6 -149 -16 -143 -18
-136 28 2 22 0 44 -5 49 -11 11 9 16 99 27 59 8 73 19 44 34 -24 13 -50 12
-211 -6z"/>
  <path d="M530 321 c0 -6 5 -13 10 -16 18 -11 11 -38 -17 -67 -39 -41 -20 -47
28 -9 36 30 42 31 57 18 9 -8 27 -18 40 -21 27 -9 30 14 5 36 -27 24 -123 70
-123 59z"/>
  <path d="M294 291 c19 -21 16 -31 -17 -68 -30 -34 0 -30 35 4 28 27 29 27 58
9 24 -14 30 -14 30 -3 0 17 -25 39 -69 61 -45 21 -58 20 -37 -3z"/>
</g>
<g id="part-1" class="char-part">
  <path d="M520 560 c-19 -5 -79 -12 -133 -16 -108 -7 -129 -27 -36 -32 51 -3
214 12 269 25 l25 6 -30 13 c-34 15 -46 15 -95 4z"/>
</g>
<g id="part-2" class="char-part">
  <path d="M416 493 c4 -10 9 -90 11 -178 4 -175 7 -195 25 -177 17 17 39 354
24 364 -6 4 -24 8 -40 8 -23 0 -27 -3 -20 -17z"/>
</g>
<g id="part-3" class="char-part">
  <path d="M480 409 c-108 -11 -225 -17 -262 -13 l-67 5 15 -43 c8 -24 18 -86
22 -138 6 -79 10 -95 24 -98 16 -3 18 8 18 116 0 116 1 120 23 125 43 11 313
28 382 25 l70 -3 3 -70 c4 -83 -13 -174 -35 -182 -8 -3 -30 2 -49 11 -49 23
-50 21 -7 -29 41 -48 70 -56 95 -27 29 33 37 59 48 158 6 54 13 111 16 126 5
22 1 29 -24 42 -36 18 -20 19 -272 -5z"/>
</g>
<g id="part-4" class="char-part">
  <path d="M533 312 c23 -26 22 -36 -14 -77 -38 -43 -26 -45 30 -5 l42 31 26
-21 c30 -23 53 -26 53 -7 0 24 -52 59 -127 88 -26 10 -26 9 -10 -9z"/>
</g>
</g>
</svg>