<?xml version="1.0" standalone="no"?>
<!DOCTYPE svg PUBLIC "-//W3C//DTD SVG 20010904//EN"
 "http://www.w3.org/TR/2001/REC-SVG-20010904/DTD/svg10.dtd">
<svg version="1.0" xmlns="http://www.w3.org/2000/svg"
 width="96.000000pt" height="68.000000pt" viewBox="0 0 96.000000 68.000000"
 preserveAspectRatio="xMidYMid meet">
<metadata>
Created by potrace 1.16, written by Peter Selinger 2001-2019
Combined from part_0.svg through part_5.svg with named groups
</metadata>
<g transform="translate(0.000000,68.000000) scale(0.100000,-0.100000)" fill="#000000" stroke="none">
<g id="part-0" class="char-part">
  <path d="M445 544 c-8 -20 -15 -40 -15 -45 0 -4 -20 -33 -45 -63 -25 -31 -37
-52 -27 -49 9 4 23 13 30 20 12 11 20 10 50 -9 21 -12 39 -23 41 -25 14 -11
-109 -102 -204 -151 -22 -12 -32 -21 -23 -22 28 0 161 66 214 106 32 24 52 34
60 28 7 -5 39 -29 70 -54 l58 -45 83 1 c87 1 131 18 77 29 -120 25 -166 39
-216 62 -32 15 -58 30 -58 35 0 4 30 40 67 79 65 68 67 72 48 86 -20 14 -31
14 -124 -3 -25 -5 -32 -4 -26 5 7 12 -21 51 -36 51 -5 0 -16 -16 -24 -36z
m145 -47 c0 -7 -19 -35 -43 -61 l-43 -49 -42 23 -42 24 31 32 c30 31 40 34
122 42 9 1 17 -4 17 -11z"/>
  <path d="M215 455 c-23 -8 -58 -11 -82 -8 -42 5 -53 -3 -33 -23 6 -6 17 -46
25 -89 9 -43 18 -81 20 -84 3 -3 19 3 34 12 16 9 47 17 68 17 39 0 39 0 49 53
6 28 17 66 25 84 7 18 10 35 7 38 -13 13 -75 13 -113 0z m35 -47 c0 -13 -3
-40 -6 -60 -6 -35 -9 -38 -39 -38 -31 0 -33 2 -39 47 -3 25 -4 48 -2 51 4 4
57 18 79 21 4 1 7 -9 7 -21z"/>
  <path d="M520 218 c-36 -5 -87 -6 -113 -3 l-48 6 15 -23 c12 -20 34 -84 42
-126 4 -21 16 -29 21 -14 3 6 21 12 41 12 83 0 170 13 166 24 -2 6 9 32 25 58
28 44 29 47 12 62 -19 18 -59 19 -161 4z m90 -53 c0 -63 -4 -65 -98 -65 -47 0
-83 2 -80 6 3 3 2 21 -2 40 -6 27 -5 37 6 41 19 7 157 20 167 15 4 -2 7 -18 7
-37z"/>
</g>
<g id="part-1" class="char-part">
  <path d="M225 454 c-23 -9 -58 -13 -82 -11 -31 3 -43 1 -43 -9 0 -7 4 -15 9
-18 4 -3 11 -25 15 -48 11 -69 26 -118 36 -118 6 0 10 7 10 15 0 10 10 15 29
15 41 0 91 11 86 20 -5 8 19 89 34 118 20 38 -34 58 -94 36z m27 -76 c-4 -57
-21 -78 -58 -78 -19 0 -24 7 -31 48 -4 26 -8 51 -8 57 0 10 37 23 76 24 25 1
26 0 21 -51z"/>
</g>
<g id="part-2" class="char-part">
  <path d="M450 565 c0 -26 -49 -114 -88 -157 l-37 -42 43 24 c43 24 142 134
142 157 0 13 -30 33 -49 33 -6 0 -11 -7 -11 -15z"/>
</g>
<g id="part-3" class="char-part">
  <path d="M565 530 c-11 -5 -32 -9 -47 -9 -16 -1 -28 -6 -28 -12 0 -8 16 -10
50 -5 63 8 65 -3 8 -67 l-43 -48 -40 19 c-39 20 -61 20 -50 1 4 -5 12 -9 19
-9 7 0 21 -8 30 -19 16 -18 15 -20 -28 -55 -24 -20 -79 -57 -122 -81 -45 -26
-70 -45 -58 -45 29 0 152 61 207 104 l48 37 76 -56 c64 -47 82 -55 119 -55 43
0 148 19 142 25 -2 2 -39 11 -82 20 -93 19 -176 49 -207 74 l-22 18 69 72 c65
69 67 74 49 87 -21 15 -59 17 -90 4z"/>
</g>
<g id="part-4" class="char-part">
  <path d="M525 218 c-33 -5 -84 -7 -112 -4 -52 4 -52 4 -39 -17 8 -12 21 -48
30 -80 16 -64 23 -77 34 -60 4 6 52 14 109 18 70 5 100 11 97 19 -2 6 9 33 25
58 l30 47 -22 16 c-24 17 -61 17 -152 3z m85 -50 c0 -24 -4 -48 -8 -54 -4 -6
-42 -14 -84 -17 l-77 -5 -9 41 c-5 23 -6 45 -2 50 5 6 65 15 168 26 8 1 12
-13 12 -41z"/>
</g>
</g>
</svg>