<?xml version="1.0" standalone="no"?>
<!DOCTYPE svg PUBLIC "-//W3C//DTD SVG 20010904//EN"
 "http://www.w3.org/TR/2001/REC-SVG-20010904/DTD/svg10.dtd">
<svg version="1.0" xmlns="http://www.w3.org/2000/svg"
 width="96.000000pt" height="68.000000pt" viewBox="0 0 96.000000 68.000000"
 preserveAspectRatio="xMidYMid meet">
<metadata>
Created by potrace 1.16, written by Peter Selinger 2001-2019
Combined from part_0.svg through part_5.svg with named groups
</metadata>
<g transform="translate(0.000000,68.000000) scale(0.100000,-0.100000)" fill="#000000" stroke="none">
<g id="part-0" class="char-part">
  <path d="M530 565 c0 -43 -1 -45 -29 -45 -16 0 -36 -3 -45 -6 -26 -10 -8 -24
30 -24 31 0 34 -2 24 -19 -5 -11 -10 -28 -10 -37 0 -15 4 -14 25 6 13 13 27
31 30 40 4 14 20 19 75 22 38 2 72 7 76 11 16 15 -16 29 -65 29 -48 -1 -50 0
-38 19 10 17 9 22 -7 35 -11 8 -30 14 -43 14 -21 0 -23 -5 -23 -45z"/>
  <path d="M270 576 c0 -9 5 -25 12 -36 7 -10 10 -22 7 -25 -3 -3 -33 -8 -67
-11 -66 -7 -77 -18 -38 -35 16 -8 38 -8 70 -1 45 9 47 9 62 -19 20 -39 34 -37
34 6 0 31 3 35 35 41 47 9 44 24 -5 24 -38 0 -40 2 -40 30 0 17 -5 30 -12 30
-7 0 -23 3 -35 6 -17 5 -23 2 -23 -10z"/>
  <path d="M400 455 c0 -3 7 -17 16 -31 9 -13 15 -26 13 -29 -8 -7 -207 -8 -219
0 -6 4 -13 5 -14 4 -13 -15 -36 -72 -36 -89 0 -32 29 -23 47 15 9 19 21 35 27
35 6 0 55 5 109 10 173 17 307 23 307 13 0 -5 -5 -14 -12 -21 -18 -18 -5 -23
39 -16 64 10 72 19 43 50 -24 25 -27 26 -105 19 -44 -3 -97 -8 -117 -11 -33
-4 -38 -2 -38 15 0 11 -9 25 -19 31 -21 11 -41 13 -41 5z"/>
  <path d="M501 343 c0 -13 80 -73 95 -73 8 0 14 9 14 20 0 15 -13 27 -42 40
-45 21 -68 25 -67 13z"/>
  <path d="M310 330 c0 -6 -19 -29 -42 -52 -24 -23 -35 -38 -25 -35 34 13 117
72 114 82 -5 14 -47 19 -47 5z"/>
  <path d="M400 301 c0 -31 -40 -71 -130 -130 -48 -31 -96 -62 -106 -68 -15 -10
34 6 102 34 16 6 30 -16 46 -72 l14 -50 114 4 c119 3 134 6 125 22 -4 5 4 27
17 50 23 41 23 41 3 56 -15 11 -35 13 -80 9 -174 -18 -205 -19 -205 -7 0 6 3
11 8 11 4 0 32 23 62 50 30 27 62 50 72 50 9 0 60 -30 115 -67 98 -68 98 -68
166 -67 99 1 103 17 10 38 -89 21 -273 104 -273 123 0 13 -30 33 -49 33 -6 0
-11 -8 -11 -19z m126 -214 c-7 -39 -28 -47 -121 -47 -46 0 -53 3 -63 25 -22
47 -16 53 51 59 34 3 76 7 92 9 41 4 49 -5 41 -46z"/>
</g>
<g id="part-1" class="char-part">
  <path d="M540 578 c0 -45 -9 -55 -54 -63 -31 -6 -35 -10 -22 -17 9 -5 25 -6
36 -3 22 7 25 -2 10 -40 -9 -23 -8 -25 9 -15 11 5 23 19 26 31 9 26 43 39 106
39 27 0 49 4 49 10 0 15 -46 23 -85 16 -35 -7 -35 -7 -23 19 13 28 6 39 -29
50 -21 6 -23 3 -23 -27z"/>
  <path d="M270 575 c0 -3 7 -17 16 -31 9 -13 14 -27 10 -31 -3 -4 -36 -9 -74
-12 l-67 -6 27 -19 c23 -15 33 -16 59 -7 49 17 69 14 79 -14 13 -35 28 -31 26
8 -1 29 2 32 32 35 17 2 32 8 32 14 0 6 -13 8 -34 4 -33 -6 -35 -5 -38 26 -3
29 -7 33 -35 36 -18 2 -33 1 -33 -3z"/>
</g>
<g id="part-2" class="char-part">
  <path d="M400 452 c0 -5 7 -17 15 -28 8 -10 15 -22 15 -26 0 -13 -218 -9 -225
3 -4 6 -18 -13 -31 -41 -13 -29 -21 -56 -18 -61 11 -19 34 -8 50 24 9 17 17
33 18 34 4 4 338 33 384 33 39 0 42 -2 32 -19 -16 -31 -13 -33 38 -25 73 10
79 17 41 48 -31 27 -37 28 -104 22 -38 -4 -89 -9 -112 -12 -39 -6 -43 -4 -43
15 0 11 -9 25 -19 31 -24 12 -41 13 -41 2z"/>
</g>
<g id="part-3" class="char-part">
  <path d="M490 346 c0 -8 98 -76 109 -76 6 0 11 9 11 20 0 15 -13 27 -42 40
-40 18 -78 26 -78 16z"/>
  <path d="M269 289 c-26 -27 -41 -49 -35 -49 21 0 127 72 123 84 -8 25 -44 11
-88 -35z"/>
</g>
<g id="part-4" class="char-part">
  <path d="M445 150 c-27 -5 -76 -9 -109 -9 -45 -1 -56 -4 -48 -13 5 -7 15 -31
21 -53 6 -22 14 -44 18 -50 5 -6 55 -9 124 -7 l117 3 0 25 c0 14 9 39 22 56
21 28 21 30 3 43 -19 15 -69 17 -148 5z m85 -42 c0 -54 -11 -61 -98 -66 l-80
-4 -12 36 c-7 21 -9 40 -6 43 3 3 43 9 88 13 46 4 89 8 96 9 7 0 12 -11 12
-31z"/>
</g>
</g>
</svg>