<?xml version="1.0" standalone="no"?>
<!DOCTYPE svg PUBLIC "-//W3C//DTD SVG 20010904//EN"
 "http://www.w3.org/TR/2001/REC-SVG-20010904/DTD/svg10.dtd">
<svg version="1.0" xmlns="http://www.w3.org/2000/svg"
 width="96.000000pt" height="68.000000pt" viewBox="0 0 96.000000 68.000000"
 preserveAspectRatio="xMidYMid meet">
<metadata>
Created by potrace 1.16, written by Peter Selinger 2001-2019
Combined from part_0.svg through part_5.svg with named groups
</metadata>
<g transform="translate(0.000000,68.000000) scale(0.100000,-0.100000)" fill="#000000" stroke="none">
<g id="part-0" class="char-part">
  <path d="M554 573 c-8 -34 -40 -98 -66 -133 -24 -33 -15 -64 16 -54 44 14 131
32 135 28 2 -2 -1 -15 -7 -28 -9 -20 -20 -24 -84 -30 -107 -10 -139 -17 -132
-28 5 -7 36 -8 86 -4 78 6 78 6 88 -19 11 -29 14 -194 4 -219 -3 -9 -17 -16
-30 -16 l-25 0 23 -30 c27 -38 55 -39 69 -3 6 15 9 87 7 164 l-3 137 97 4 c53
2 100 7 104 11 16 15 -11 22 -87 21 -43 -1 -79 0 -79 2 0 2 9 19 20 39 11 19
17 35 15 35 -3 0 2 11 11 25 14 21 14 28 3 41 -11 13 -25 15 -71 10 -60 -7
-70 0 -48 34 5 9 5 19 -2 27 -17 21 -37 15 -44 -14z m108 -99 c-2 -16 -5 -30
-6 -31 -7 -7 -117 -25 -122 -20 -4 3 3 22 15 41 18 28 29 36 59 39 53 5 57 3
54 -29z"/>
  <path d="M339 485 c-3 -2 -40 -10 -83 -16 -81 -12 -99 -32 -33 -37 25 -2 37
-8 37 -18 0 -20 -46 -110 -68 -132 -48 -49 -92 -112 -79 -112 17 0 66 36 85
63 14 18 36 19 38 1 0 -5 4 -24 8 -42 6 -24 12 -32 24 -28 10 2 38 7 63 11 43
5 47 8 58 46 7 23 15 47 17 54 11 27 -32 37 -91 21 -34 -9 -55 -10 -55 -4 0 5
16 36 36 68 20 32 33 63 30 68 -7 11 16 22 47 22 12 0 29 5 37 10 13 9 13 11
0 20 -16 10 -63 14 -71 5z m11 -245 c0 -22 -4 -40 -9 -40 -5 0 -22 -3 -38 -6
-24 -5 -31 -2 -41 21 -23 50 -15 58 66 64 19 1 22 -4 22 -39z"/>
  <path d="M712 263 c-17 -20 -31 -38 -29 -40 2 -2 30 8 61 22 49 22 56 28 46
40 -20 24 -43 17 -78 -22z"/>
  <path d="M468 263 c25 -46 72 -66 72 -30 0 22 -15 34 -48 42 -31 6 -33 5 -24
-12z"/>
  <path d="M472 158 c-69 -33 -81 -42 -71 -54 22 -26 45 -15 153 78 25 21 -6 11
-82 -24z"/>
  <path d="M680 183 c1 -13 120 -103 136 -103 20 0 18 34 -3 52 -41 36 -134 71
-133 51z"/>
</g>
<g id="part-1" class="char-part">
  <path d="M290 473 c-102 -20 -128 -31 -72 -32 38 -1 42 -3 42 -26 0 -37 -35
-102 -94 -170 -28 -33 -55 -63 -61 -67 -17 -13 5 -9 34 6 61 32 188 207 178
245 -4 16 3 20 44 25 27 4 49 11 49 16 0 6 -4 10 -9 10 -5 0 -15 2 -23 4 -7 1
-47 -3 -88 -11z"/>
</g>
<g id="part-2" class="char-part">
  <path d="M325 300 c-11 -5 -35 -9 -52 -9 -40 -1 -51 -31 -33 -88 17 -51 20
-55 33 -45 7 5 32 12 58 16 44 7 45 8 64 61 10 30 16 57 13 60 -10 10 -64 14
-83 5z m25 -55 c0 -29 -5 -37 -26 -45 -40 -16 -51 -12 -63 21 -15 44 -14 47
17 52 69 10 72 9 72 -28z"/>
</g>
<g id="part-3" class="char-part">
  <path d="M556 588 c-17 -58 -42 -114 -63 -138 -30 -37 -24 -76 10 -65 12 3 50
13 85 21 34 9 62 20 62 25 0 5 -10 7 -22 4 -49 -10 -88 -13 -92 -6 -3 4 4 20
15 37 45 66 61 105 48 120 -14 17 -38 18 -43 2z"/>
</g>
<g id="part-4" class="char-part">
  <path d="M613 523 c-18 -2 -33 -9 -33 -15 0 -7 15 -9 40 -5 22 3 42 2 45 -2 4
-7 -13 -71 -30 -113 -5 -14 -2 -18 12 -18 14 0 28 19 50 67 43 91 34 100 -84
86z"/>
</g>
<g id="part-5" class="char-part">
  <path d="M599 328 c-7 -24 -4 -38 8 -43 21 -8 31 4 13 15 -12 8 -11 10 5 10
17 0 17 2 5 10 -14 9 -29 13 -31 8z"/>
  <path d="M737 279 c-9 -10 -13 -20 -8 -23 13 -9 51 6 51 19 0 22 -26 24 -43 4z"/>
  <path d="M598 175 c-3 -109 -3 -110 -27 -109 -21 1 -22 -1 -7 -11 9 -7 16 -17
16 -24 0 -6 9 -11 19 -11 21 0 29 15 35 67 2 24 0 30 -12 26 -12 -5 -11 -1 3
20 11 17 14 34 10 44 -4 10 -7 35 -5 57 1 23 -2 36 -8 32 -6 -3 -12 0 -15 6
-3 7 -7 -36 -9 -97z"/>
  <path d="M487 245 c18 -24 33 -32 33 -17 0 4 -6 14 -12 21 -11 11 -9 11 12 2
24 -11 24 -11 6 3 -11 9 -28 16 -38 16 -18 0 -18 -1 -1 -25z"/>
  <path d="M519 169 c-23 -19 -23 -20 -2 -10 12 6 25 16 28 21 10 16 -1 12 -26
-11z"/>
  <path d="M690 181 c0 -6 4 -11 8 -11 4 0 27 -18 51 -40 36 -34 81 -53 81 -35
0 14 -63 65 -88 71 -15 4 -33 11 -39 17 -9 6 -13 6 -13 -2z"/>
  <path d="M476 144 c-4 -10 -12 -14 -22 -10 -20 8 -45 -17 -34 -34 7 -11 13
-10 35 4 26 17 42 42 32 52 -2 3 -7 -3 -11 -12z"/>
</g>
</g>
</svg>