<?xml version="1.0" standalone="no"?>
<!DOCTYPE svg PUBLIC "-//W3C//DTD SVG 20010904//EN"
 "http://www.w3.org/TR/2001/REC-SVG-20010904/DTD/svg10.dtd">
<svg version="1.0" xmlns="http://www.w3.org/2000/svg"
 width="96.000000pt" height="68.000000pt" viewBox="0 0 96.000000 68.000000"
 preserveAspectRatio="xMidYMid meet">
<metadata>
Created by potrace 1.16, written by Peter Selinger 2001-2019
Combined from part_0.svg through part_5.svg with named groups
</metadata>
<g transform="translate(0.000000,68.000000) scale(0.100000,-0.100000)" fill="#000000" stroke="none">
<g id="part-0" class="char-part">
  <path d="M560 530 c0 -70 0 -70 -27 -70 -16 0 -38 -3 -50 -6 -21 -6 -22 -3
-20 32 2 34 -1 39 -22 42 -19 3 -23 0 -17 -14 4 -9 1 -33 -5 -52 -12 -37 1
-57 31 -46 13 5 62 14 218 40 24 4 32 1 32 -10 0 -8 5 -18 11 -22 20 -12 39
21 41 71 3 45 1 50 -19 53 -21 3 -23 -1 -23 -37 l0 -41 -55 0 c-55 0 -55 0
-49 28 4 15 11 38 16 51 9 26 -12 50 -44 51 -16 0 -18 -10 -18 -70z"/>
  <path d="M307 583 c-3 -5 -8 -22 -12 -40 -9 -43 -70 -134 -138 -208 -84 -90
-40 -85 60 8 l43 40 0 -96 c0 -53 -5 -119 -11 -147 -9 -43 -8 -55 5 -75 37
-57 47 -28 55 165 6 117 4 160 -5 176 -11 19 -8 28 26 75 46 63 48 73 18 93
-25 18 -35 20 -41 9z"/>
  <path d="M580 413 c0 -4 11 -20 23 -33 l24 -25 -76 -15 c-42 -9 -80 -14 -85
-11 -5 2 3 14 19 27 31 24 26 44 -10 44 -15 0 -26 -7 -30 -20 -3 -11 -29 -43
-57 -71 -27 -28 -48 -52 -46 -54 2 -2 22 10 46 26 23 16 47 29 51 29 11 0 4
-163 -10 -212 -7 -26 -6 -44 1 -58 15 -29 28 -25 38 11 7 29 11 32 52 33 155
7 310 20 310 27 0 12 -57 20 -125 17 -58 -3 -60 -2 -63 24 -3 28 1 31 72 43
50 8 38 19 -19 17 -42 -2 -45 0 -45 23 0 22 5 25 50 31 61 8 55 28 -6 21 -40
-4 -44 -3 -44 18 0 25 22 35 83 35 20 0 37 5 37 11 0 8 -21 10 -64 7 -53 -3
-62 -1 -59 12 2 8 0 20 -4 27 -10 14 -63 28 -63 16z m18 -115 c-2 -18 -12 -24
-48 -30 -54 -10 -70 -5 -70 21 0 21 18 27 83 30 34 1 38 -1 35 -21z m2 -72 c0
-25 -28 -36 -91 -36 -24 0 -29 4 -29 24 0 26 14 31 88 35 27 1 32 -2 32 -23z
m-4 -102 c-4 -10 -22 -14 -59 -14 -62 0 -66 2 -59 35 4 22 10 24 61 27 48 3
56 0 59 -15 2 -10 1 -25 -2 -33z"/>
</g>
<g id="part-1" class="char-part">
  <path d="M296 542 c-7 -47 -63 -132 -140 -213 -30 -32 -52 -59 -48 -59 15 0
69 39 108 78 23 23 44 42 48 42 10 0 7 -146 -5 -221 -12 -78 -6 -119 16 -119
20 0 23 21 29 193 4 100 2 154 -6 166 -9 15 -3 29 30 79 38 57 39 62 23 76
-30 27 -48 20 -55 -22z"/>
</g>
<g id="part-2" class="char-part">
  <path d="M560 531 l0 -68 -47 -7 c-55 -7 -60 -4 -45 28 11 26 5 36 -30 49 -13
5 -17 -1 -17 -26 0 -18 -1 -45 -3 -62 -4 -36 -6 -36 157 -6 138 25 135 25 135
1 0 -41 28 -20 40 30 14 60 9 80 -22 80 -21 0 -23 -4 -20 -40 l4 -40 -55 0
-55 0 14 53 c12 47 12 53 -3 65 -9 6 -25 12 -35 12 -16 0 -18 -9 -18 -69z"/>
</g>
<g id="part-3" class="char-part">
  <path d="M445 381 c-3 -10 -30 -42 -60 -72 -30 -29 -52 -55 -50 -57 2 -2 25
10 50 27 26 17 50 29 54 26 10 -6 4 -145 -9 -200 -11 -46 -4 -85 15 -85 21 0
27 29 32 173 5 112 3 137 -8 137 -8 1 -1 11 15 24 32 26 28 46 -9 46 -14 0
-26 -7 -30 -19z"/>
</g>
<g id="part-4" class="char-part">
  <path d="M600 226 c0 -26 -21 -36 -77 -36 -17 0 -35 -5 -39 -11 -5 -8 11 -10
55 -7 l61 4 0 -33 0 -33 -60 0 c-33 0 -60 -4 -60 -10 0 -11 45 -24 58 -16 5 3
71 8 148 12 76 3 141 8 143 10 14 13 -22 19 -101 17 l-89 -2 3 32 c3 30 6 32
50 37 67 8 73 22 8 19 -51 -3 -55 -1 -54 19 1 17 -4 22 -22 22 -19 0 -24 -5
-24 -24z"/>
</g>
</g>
</svg>