<?xml version="1.0" standalone="no"?>
<!DOCTYPE svg PUBLIC "-//W3C//DTD SVG 20010904//EN"
 "http://www.w3.org/TR/2001/REC-SVG-20010904/DTD/svg10.dtd">
<svg version="1.0" xmlns="http://www.w3.org/2000/svg"
 width="96.000000pt" height="68.000000pt" viewBox="0 0 96.000000 68.000000"
 preserveAspectRatio="xMidYMid meet">
<metadata>
Created by potrace 1.16, written by Peter Selinger 2001-2019
Combined from part_0.svg through part_5.svg with named groups
</metadata>
<g transform="translate(0.000000,68.000000) scale(0.100000,-0.100000)" fill="#000000" stroke="none">
<g id="part-0" class="char-part">
  <path d="M224 587 c-3 -8 0 -26 6 -41 5 -15 10 -51 10 -81 l0 -53 -50 -11
c-28 -6 -58 -11 -65 -11 -8 0 -15 -4 -15 -9 0 -16 40 -23 86 -16 l44 6 0 -45
0 -46 -62 -30 c-34 -17 -67 -30 -75 -30 -23 0 -14 -30 12 -42 26 -12 46 -6 93
28 l22 16 0 -61 c0 -55 -2 -61 -21 -61 -11 0 -29 5 -40 10 -30 16 -23 1 20
-41 70 -70 91 -48 91 94 0 94 0 95 31 121 29 24 32 25 44 10 11 -15 13 -15 28
7 10 13 17 29 17 35 0 14 28 21 115 29 33 3 101 9 150 14 83 9 122 3 96 -13
-6 -4 -11 -12 -11 -17 0 -10 74 -3 93 8 17 10 -28 43 -65 49 -21 4 -38 8 -38
11 0 2 7 33 16 69 21 83 15 91 -58 77 -50 -10 -51 -10 -15 -12 31 -1 38 -4 35
-18 -2 -12 -16 -20 -38 -24 l-35 -6 35 -4 c23 -2 35 -9 35 -19 0 -9 -13 -17
-35 -21 l-35 -6 33 -2 c31 -1 40 -14 24 -38 -4 -6 -51 -16 -104 -22 -133 -15
-138 -15 -138 9 0 13 7 20 19 20 11 0 23 5 27 11 4 8 -3 9 -23 5 -22 -5 -32
-3 -36 8 -7 18 1 26 27 27 14 1 11 3 -9 8 -41 9 -44 36 -6 49 22 8 29 15 25
26 -9 24 -29 19 -44 -9 -9 -16 -22 -25 -38 -25 -19 0 -22 -3 -14 -13 17 -20
44 -108 38 -123 -4 -11 -10 -12 -25 -4 -11 5 -22 10 -24 10 -5 0 -21 -51 -19
-61 1 -4 -9 -7 -21 -6 -12 0 -30 -3 -39 -7 -15 -7 -18 -3 -18 27 0 32 3 35 35
41 59 11 60 40 2 40 l-33 0 7 62 c3 34 9 66 13 73 5 7 -6 17 -28 26 -43 18
-45 18 -52 2z"/>
  <path d="M595 578 c-8 -17 -17 -22 -37 -20 -24 2 -25 1 -16 -20 9 -17 21 -24
50 -25 21 -2 38 2 38 7 0 6 -7 10 -15 10 -22 0 -18 28 5 42 25 16 26 28 2 28
-9 0 -22 -10 -27 -22z"/>
  <path d="M590 480 c-6 -11 -19 -20 -30 -20 -14 0 -18 -5 -13 -16 3 -9 0 -20
-8 -25 -9 -6 -10 -9 -2 -9 6 0 15 5 19 11 4 6 20 8 40 4 35 -6 47 8 17 19 -12
5 -14 9 -5 18 14 14 16 38 2 38 -5 0 -14 -9 -20 -20z"/>
  <path d="M585 339 c-22 -4 -60 -8 -85 -8 l-45 -1 0 -88 0 -87 28 3 c26 3 28 1
22 -20 -11 -34 -54 -85 -90 -106 -14 -8 -16 -11 -5 -12 40 0 140 97 140 137 0
27 25 6 28 -23 9 -105 30 -124 136 -124 91 0 167 39 126 65 -5 3 -10 15 -10
26 0 27 -24 19 -28 -9 -2 -11 -10 -26 -18 -33 -17 -14 -142 -15 -156 -1 -11
11 -1 112 11 112 4 0 12 -5 19 -12 19 -19 24 -4 33 84 10 110 -1 119 -106 97z
m55 -28 c0 -16 -10 -20 -65 -26 -36 -3 -65 -11 -65 -17 0 -10 27 -8 108 8 21
4 32 3 32 -5 0 -16 -34 -27 -109 -36 -52 -6 -62 -5 -55 6 4 7 7 25 6 40 -2 25
1 27 60 36 35 6 69 11 76 12 6 0 12 -7 12 -18z m8 -98 c-2 -10 -14 -17 -33
-18 -16 -1 -54 -5 -84 -10 -49 -7 -53 -6 -49 11 3 16 15 20 68 25 36 3 73 6
83 7 12 1 17 -4 15 -15z"/>
</g>
<g id="part-1" class="char-part">
  <path d="M226 573 c4 -10 9 -53 12 -95 l4 -77 -61 -7 c-78 -9 -79 -24 -1 -24
l60 0 0 -49 0 -48 -77 -35 -77 -35 27 -18 c28 -18 28 -18 73 15 25 18 48 30
51 27 3 -4 2 -36 -2 -72 -7 -69 -15 -76 -58 -54 -13 7 -5 -6 20 -32 36 -36 44
-41 57 -30 13 11 16 35 16 116 l0 103 38 31 c25 21 32 30 20 31 -9 0 -20 -4
-23 -10 -13 -21 -35 -10 -35 18 0 37 11 51 45 60 43 12 44 32 1 32 -34 0 -36
2 -36 33 0 17 5 50 11 71 10 35 9 42 -7 53 -10 7 -29 13 -42 13 -19 0 -23 -4
-16 -17z"/>
</g>
<g id="part-2" class="char-part">
  <path d="M435 544 c-21 -33 -18 -36 22 -19 23 10 31 19 27 29 -9 24 -30 19
-49 -10z"/>
</g>
<g id="part-3" class="char-part">
  <path d="M680 398 c-25 -5 -104 -10 -177 -11 l-132 -2 -12 -43 c-15 -53 0 -77
25 -41 9 13 16 29 16 36 0 7 1 13 3 14 1 0 81 8 177 19 157 16 212 15 181 -4
-26 -17 -9 -27 32 -21 57 9 63 19 31 44 -29 23 -68 25 -144 9z"/>
</g>
<g id="part-4" class="char-part">
  <path d="M593 163 c-8 -3 -13 -23 -13 -50 0 -36 6 -50 29 -74 27 -26 36 -29
96 -29 63 0 126 17 139 38 3 5 -3 27 -13 48 l-19 38 -6 -31 c-11 -47 -31 -58
-102 -58 -84 0 -90 7 -81 94 2 25 -8 33 -30 24z"/>
</g>
</g>
</svg>