<?xml version="1.0" standalone="no"?>
<!DOCTYPE svg PUBLIC "-//W3C//DTD SVG 20010904//EN"
 "http://www.w3.org/TR/2001/REC-SVG-20010904/DTD/svg10.dtd">
<svg version="1.0" xmlns="http://www.w3.org/2000/svg"
 width="96.000000pt" height="68.000000pt" viewBox="0 0 96.000000 68.000000"
 preserveAspectRatio="xMidYMid meet">
<metadata>
Created by potrace 1.16, written by Peter Selinger 2001-2019
Combined from part_0.svg through part_5.svg with named groups
</metadata>
<g transform="translate(0.000000,68.000000) scale(0.100000,-0.100000)" fill="#000000" stroke="none">
<g id="part-0" class="char-part">
  <path d="M390 614 c0 -14 42 -74 53 -75 23 -3 -99 -17 -154 -18 -42 -1 -58 3
-63 14 -3 8 -9 15 -14 15 -14 0 -65 -117 -59 -134 12 -30 45 -18 66 22 l20 39
168 17 c92 9 189 19 216 23 54 6 58 -2 22 -41 l-24 -26 22 0 c12 1 49 6 82 13
74 16 80 34 26 71 -38 27 -40 27 -116 17 -120 -17 -135 -15 -135 14 0 19 -8
28 -36 40 -38 15 -74 20 -74 9z"/>
  <path d="M398 417 c-49 -6 -88 -14 -88 -18 0 -4 26 -9 57 -11 l57 -3 9 -38 c6
-25 6 -42 -1 -49 -5 -5 -64 -12 -131 -15 -82 -4 -120 -10 -118 -17 4 -13 104
-14 195 -2 l62 9 0 -55 c0 -31 -3 -70 -6 -88 -6 -30 -9 -31 -40 -25 -19 3 -34
2 -33 -2 2 -18 77 -73 92 -67 20 7 37 86 37 174 0 63 1 68 20 63 11 -3 68 -2
126 2 94 6 105 9 91 22 -17 18 -65 20 -169 9 l-78 -8 0 51 0 51 39 0 c46 0 73
9 65 21 -6 11 -68 9 -186 -4z"/>
</g>
<g id="part-1" class="char-part">
  <path d="M400 608 c0 -6 11 -26 25 -44 21 -27 22 -33 9 -38 -26 -10 -202 -7
-209 4 -12 19 -21 10 -48 -45 -43 -87 -5 -122 41 -37 20 36 28 42 55 42 18 0
114 7 214 17 100 9 186 14 189 10 4 -4 -3 -18 -16 -32 -13 -14 -21 -27 -19
-29 3 -3 35 2 72 10 77 18 84 32 32 64 -37 23 -65 23 -212 3 -42 -5 -43 -5
-43 25 0 26 -6 32 -40 46 -48 19 -50 19 -50 4z"/>
</g>
<g id="part-2" class="char-part">
  <path d="M398 417 c-142 -14 -125 -31 25 -24 128 6 170 13 161 28 -6 11 -53 9
-186 -4z"/>
</g>
<g id="part-3" class="char-part">
  <path d="M434 346 c9 -55 6 -56 -146 -63 -65 -3 -118 -10 -118 -14 0 -19 68
-25 154 -12 50 8 96 11 103 9 14 -6 17 -65 6 -130 -6 -37 -7 -38 -40 -33 l-34
6 33 -39 c63 -73 89 -46 96 101 l5 96 81 7 c44 3 100 6 124 6 50 0 55 14 10
29 -23 8 -55 8 -121 0 -100 -13 -107 -10 -107 49 0 28 -3 32 -26 32 -25 0 -26
-2 -20 -44z"/>
</g>
</g>
</svg>