<?xml version="1.0" standalone="no"?>
<!DOCTYPE svg PUBLIC "-//W3C//DTD SVG 20010904//EN"
 "http://www.w3.org/TR/2001/REC-SVG-20010904/DTD/svg10.dtd">
<svg version="1.0" xmlns="http://www.w3.org/2000/svg"
 width="96.000000pt" height="68.000000pt" viewBox="0 0 96.000000 68.000000"
 preserveAspectRatio="xMidYMid meet">
<metadata>
Created by potrace 1.16, written by Peter Selinger 2001-2019
Combined from part_0.svg through part_5.svg with named groups
</metadata>
<g transform="translate(0.000000,68.000000) scale(0.100000,-0.100000)" fill="#000000" stroke="none">
<g id="part-0" class="char-part">
  <path d="M300 573 c-21 -28 -39 -43 -53 -43 -20 0 -22 -4 -19 -40 6 -58 -4
-85 -45 -131 -20 -22 -34 -42 -31 -44 6 -7 89 73 103 99 9 15 26 20 80 25 62
5 69 8 70 29 1 12 10 29 21 36 18 14 18 15 -11 26 -16 6 -41 8 -55 4 -14 -4
-34 -8 -45 -10 -19 -3 -19 -3 -1 9 40 26 76 59 71 67 -3 4 -16 10 -29 12 -20
4 -31 -3 -56 -39z m68 -80 c-3 -26 -7 -28 -50 -31 -43 -3 -46 -1 -41 18 3 11
17 23 32 26 14 3 31 7 36 9 22 8 26 4 23 -22z"/>
  <path d="M510 571 c-11 -22 -24 -42 -30 -46 -5 -3 -10 -11 -10 -17 0 -6 7 -5
18 4 9 8 36 18 60 22 43 6 43 6 40 -21 -3 -26 -6 -28 -43 -26 l-40 3 24 -19
23 -18 -38 -16 c-46 -19 -17 -24 34 -6 24 8 39 8 62 -3 16 -7 30 -16 30 -19 0
-13 81 -29 119 -23 53 8 52 20 -1 28 -51 8 -139 35 -152 47 -6 5 -3 16 8 28
10 11 19 28 20 38 2 13 14 19 47 24 34 4 40 7 25 14 -10 4 -46 3 -83 -4 -71
-13 -83 -10 -63 15 12 13 11 17 -1 25 -23 14 -27 11 -49 -30z"/>
  <path d="M420 401 c0 -16 -11 -21 -52 -29 l-53 -10 58 -1 c50 -1 58 -4 55 -18
-3 -15 -21 -19 -116 -27 -61 -4 -109 -12 -107 -17 5 -7 101 -5 200 4 11 1 21
-5 23 -15 3 -14 -8 -18 -57 -24 -34 -3 -61 -10 -61 -15 0 -5 25 -6 55 -3 45 5
56 3 61 -11 9 -23 1 -28 -61 -33 -67 -6 -62 -24 6 -21 56 3 72 -7 45 -27 -13
-9 -48 -14 -95 -15 -42 -1 -89 -5 -106 -9 l-30 -7 29 -8 c16 -4 67 -3 115 3
47 5 89 8 93 5 5 -2 8 -28 8 -58 0 -30 4 -56 9 -60 11 -6 31 56 31 96 0 33 24
39 161 39 58 0 99 4 99 10 0 17 -42 20 -145 11 -55 -5 -103 -7 -107 -4 -5 2
-8 13 -8 24 0 17 7 19 70 19 40 0 70 4 70 10 0 6 -30 10 -71 10 -88 0 -91 21
-5 34 35 5 55 13 53 20 -2 6 0 19 5 29 7 14 23 17 88 17 46 0 80 4 80 10 0 15
-47 23 -101 17 -46 -6 -50 -5 -44 13 9 28 -28 44 -85 36 -38 -5 -49 -3 -54 9
-8 23 -56 20 -56 -4z m138 -48 c-3 -18 -47 -29 -74 -19 -29 11 -3 36 38 36 32
0 39 -3 36 -17z m-14 -58 c-7 -16 -59 -21 -68 -6 -9 14 5 21 40 21 26 0 32 -4
28 -15z"/>
</g>
<g id="part-1" class="char-part">
  <path d="M320 598 c0 -7 -12 -25 -27 -40 -23 -24 -24 -28 -8 -28 14 0 52 23
95 57 7 6 -23 23 -42 23 -10 0 -18 -5 -18 -12z"/>
</g>
<g id="part-2" class="char-part">
  <path d="M588 513 c-3 -26 -6 -28 -48 -26 -39 2 -42 1 -22 -9 30 -15 28 -26
-10 -43 -33 -14 -33 -14 -6 -15 15 0 38 5 52 12 22 9 34 7 86 -21 52 -28 66
-31 105 -25 61 9 64 20 8 29 -26 4 -71 16 -100 26 l-52 20 19 31 c21 35 18 48
-10 48 -13 0 -20 -8 -22 -27z"/>
</g>
<g id="part-3" class="char-part">
  <path d="M420 401 c0 -15 -11 -20 -57 -27 l-58 -8 60 -6 c44 -4 60 -9 60 -20
0 -17 1 -17 -128 -25 -55 -4 -95 -11 -91 -16 3 -5 51 -7 115 -3 95 6 109 5
109 -9 0 -11 -15 -17 -60 -22 -33 -4 -60 -12 -60 -17 0 -7 20 -8 55 -4 45 5
57 3 61 -9 8 -19 44 -20 44 -1 0 9 19 16 61 20 40 5 59 11 56 19 -2 7 0 20 5
30 7 14 23 17 88 17 44 0 80 4 80 9 0 17 -40 23 -97 16 -52 -6 -55 -6 -48 14
9 29 -26 45 -85 37 -38 -5 -49 -3 -54 9 -8 23 -56 20 -56 -4z m137 -48 c6 -16
-65 -29 -79 -15 -6 6 -7 15 -3 22 9 14 77 9 82 -7z m-13 -58 c-6 -16 -74 -22
-74 -7 0 16 13 22 46 22 26 0 32 -4 28 -15z"/>
</g>
<g id="part-4" class="char-part">
  <path d="M425 212 c-8 -8 -13 -9 -71 -11 -30 -1 -43 -5 -38 -12 3 -6 28 -9 57
-7 41 2 52 0 55 -13 4 -21 -24 -29 -103 -29 -82 -1 -146 -14 -122 -25 17 -7
103 -2 190 12 l37 6 0 -61 c0 -34 4 -64 10 -67 9 -6 13 6 25 80 4 22 12 43 18
47 7 4 65 8 130 8 64 0 117 4 117 9 0 17 -48 21 -146 11 -55 -5 -102 -10 -106
-10 -5 0 -8 11 -8 25 0 24 2 25 71 25 44 0 68 4 64 10 -7 11 -169 12 -180 2z"/>
</g>
</g>
</svg>