<?xml version="1.0" standalone="no"?>
<!DOCTYPE svg PUBLIC "-//W3C//DTD SVG 20010904//EN"
 "http://www.w3.org/TR/2001/REC-SVG-20010904/DTD/svg10.dtd">
<svg version="1.0" xmlns="http://www.w3.org/2000/svg"
 width="96.000000pt" height="68.000000pt" viewBox="0 0 96.000000 68.000000"
 preserveAspectRatio="xMidYMid meet">
<metadata>
Created by potrace 1.16, written by Peter Selinger 2001-2019
Combined from part_0.svg through part_5.svg with named groups
</metadata>
<g transform="translate(0.000000,68.000000) scale(0.100000,-0.100000)" fill="#000000" stroke="none">
<g id="part-0" class="char-part">
  <path d="M504 594 c4 -21 9 -63 13 -91 l6 -53 -39 -1 c-21 0 -111 -6 -199 -12
-127 -10 -160 -15 -160 -26 0 -24 63 -35 130 -22 72 13 258 32 263 26 2 -2 1
-70 -3 -150 l-7 -147 -52 7 -51 7 30 -23 c17 -13 41 -36 53 -51 29 -34 45 -35
66 -4 12 20 16 59 18 193 l3 168 120 3 c66 1 124 7 128 11 13 13 -34 40 -74
43 -18 1 -64 -2 -101 -6 l-68 -8 0 33 c0 18 5 48 12 66 15 42 0 61 -57 70
l-38 6 7 -39z"/>
  <path d="M300 341 c0 -19 62 -81 82 -81 30 0 21 51 -12 66 -43 20 -70 26 -70
15z"/>
</g>
<g id="part-1" class="char-part">
  <path d="M505 603 c5 -10 10 -48 13 -85 l4 -67 -33 -5 c-19 -3 -106 -10 -193
-16 -88 -5 -162 -13 -165 -16 -10 -10 24 -24 59 -24 19 0 62 4 95 9 33 6 99
13 148 17 l87 6 -1 -108 c0 -60 -4 -129 -7 -154 -8 -47 -12 -50 -68 -36 -23 6
-20 1 22 -39 27 -25 54 -45 60 -45 6 0 19 11 28 25 13 20 16 54 16 188 0 193
-14 177 149 177 90 0 102 2 91 15 -19 22 -73 28 -153 17 -40 -6 -76 -7 -80 -3
-8 8 0 59 18 117 5 15 0 23 -20 32 -14 7 -37 12 -52 12 -20 0 -24 -3 -18 -17z"/>
</g>
<g id="part-2" class="char-part">
  <path d="M310 319 c45 -63 90 -81 90 -34 0 28 -30 51 -80 61 l-34 7 24 -34z"/>
</g>
</g>
</svg>