<?xml version="1.0" standalone="no"?>
<!DOCTYPE svg PUBLIC "-//W3C//DTD SVG 20010904//EN"
 "http://www.w3.org/TR/2001/REC-SVG-20010904/DTD/svg10.dtd">
<svg version="1.0" xmlns="http://www.w3.org/2000/svg"
 width="96.000000pt" height="68.000000pt" viewBox="0 0 96.000000 68.000000"
 preserveAspectRatio="xMidYMid meet">
<metadata>
Created by potrace 1.16, written by Peter Selinger 2001-2019
Combined from part_0.svg through part_5.svg with named groups
</metadata>
<g transform="translate(0.000000,68.000000) scale(0.100000,-0.100000)" fill="#000000" stroke="none">
<g id="part-0" class="char-part">
  <path d="M560 574 c6 -14 10 -36 10 -48 0 -26 -29 -36 -103 -36 -40 0 -41 0
-19 -16 34 -24 28 -44 -13 -44 -19 0 -35 -4 -35 -10 0 -5 18 -10 39 -10 35 0
40 -3 46 -29 6 -27 8 -29 47 -24 35 5 40 4 36 -13 -3 -16 -14 -19 -66 -22 -34
-2 -62 -5 -62 -7 0 -2 7 -20 16 -38 14 -30 21 -34 53 -33 30 1 36 -2 36 -19 0
-17 -10 -22 -65 -31 -77 -12 -87 -10 -86 19 2 38 -31 33 -49 -9 -20 -48 -19
-49 9 -30 14 9 27 12 30 7 9 -13 67 -19 100 -10 38 11 43 6 22 -25 -18 -28
-16 -31 39 -41 l40 -7 -24 -17 c-13 -9 -49 -24 -80 -33 -55 -16 -55 -16 -18
-17 21 -1 65 10 97 24 l60 25 65 -30 c73 -34 85 -36 85 -15 0 8 -27 28 -60 45
-45 23 -58 34 -50 43 6 6 19 24 31 40 19 25 26 27 90 27 68 0 90 12 47 26 -30
9 -168 11 -168 2 0 -5 -13 -8 -29 -8 -20 0 -30 6 -34 20 -4 16 0 20 23 20 62
0 120 13 120 27 0 7 7 16 15 19 24 10 17 33 -11 40 -14 4 -50 4 -80 1 -49 -5
-54 -4 -54 14 0 18 6 20 41 18 37 -3 42 -1 56 29 15 30 19 32 69 32 30 0 54 4
54 9 0 13 -26 21 -67 21 -31 0 -34 2 -22 16 22 27 -15 47 -75 38 l-49 -6 7 34
c5 30 3 36 -19 46 -43 20 -56 16 -45 -14z m130 -104 c0 -17 -7 -20 -40 -20
-43 0 -43 0 -34 24 4 10 18 16 40 16 27 0 34 -4 34 -20z m-120 -10 c0 -19 -20
-26 -60 -20 -26 4 -31 25 -7 32 45 13 67 9 67 -12z m103 -36 c3 -3 3 -12 0
-20 -7 -19 -63 -19 -63 0 0 18 49 34 63 20z m-103 -24 c0 -16 -7 -20 -30 -20
-18 0 -30 5 -30 13 0 20 10 27 37 27 16 0 23 -6 23 -20z m133 -94 c7 -17 -13
-26 -59 -26 -26 0 -34 4 -34 18 0 15 9 19 44 20 30 2 46 -2 49 -12z m-133 -16
c0 -17 -7 -20 -45 -20 -58 0 -64 27 -7 33 20 2 40 4 45 5 4 1 7 -7 7 -18z m82
-106 c8 -7 -23 -62 -37 -67 -18 -7 -85 5 -85 15 0 23 50 58 83 58 18 0 36 -3
39 -6z"/>
  <path d="M260 546 c0 -39 -67 -158 -125 -221 -53 -58 -63 -75 -47 -75 11 0 51
28 87 60 37 33 71 36 79 8 7 -28 0 -38 -27 -38 -33 0 -67 -11 -67 -21 0 -5 20
-9 44 -9 25 0 47 -3 49 -8 3 -4 7 -29 8 -57 4 -47 3 -50 -21 -52 -14 -1 -19 0
-12 3 34 16 -13 81 -53 72 -13 -2 -12 -9 10 -37 14 -19 25 -39 25 -43 0 -4
-23 -8 -51 -8 -56 0 -62 -14 -16 -40 24 -14 35 -12 144 24 138 45 164 61 81
51 l-58 -6 0 55 c0 53 2 56 28 62 44 9 52 13 52 23 0 5 -17 11 -37 13 -29 2
-37 7 -38 25 -1 17 5 23 32 28 20 4 33 11 30 18 -4 13 -64 15 -115 2 l-32 -8
41 62 42 62 32 -31 c35 -34 55 -33 55 1 0 13 -12 26 -38 37 -23 10 -37 23 -34
30 5 16 -26 41 -50 42 -12 0 -18 -8 -18 -24z"/>
</g>
<g id="part-1" class="char-part">
  <path d="M266 548 c-27 -93 -68 -163 -146 -244 -52 -55 -32 -57 38 -3 62 46
95 49 100 7 3 -25 0 -27 -42 -33 -60 -9 -59 -23 2 -27 l47 -3 3 -56 c3 -65 -1
-69 -102 -69 -52 0 -57 -2 -45 -16 28 -34 53 -34 165 3 144 47 167 69 39 37
-26 -6 -28 -5 -22 17 4 13 7 43 7 65 0 41 1 42 43 48 35 6 39 9 24 17 -9 6
-27 9 -40 7 -16 -2 -22 2 -22 17 0 11 -4 23 -9 27 -5 3 7 10 27 13 20 4 37 11
37 15 0 15 -35 20 -70 10 -70 -20 -74 -16 -33 50 21 33 41 60 44 60 4 0 17
-11 30 -25 26 -27 59 -33 59 -11 0 18 -38 46 -62 46 -12 0 -18 8 -18 24 0 31
-46 51 -54 24z"/>
  <path d="M351 208 c-6 -17 -10 -33 -8 -34 1 -2 16 8 32 21 25 21 28 26 15 35
-23 15 -27 13 -39 -22z"/>
  <path d="M170 201 c0 -21 51 -64 62 -53 11 11 -6 52 -22 52 -4 0 -15 3 -24 6
-9 3 -16 1 -16 -5z"/>
</g>
<g id="part-2" class="char-part">
  <path d="M554 584 c4 -10 10 -34 13 -51 5 -26 10 -32 28 -31 18 2 24 10 29 37
6 42 2 48 -43 57 -31 6 -34 5 -27 -12z"/>
</g>
<g id="part-3" class="char-part">
  <path d="M600 504 c-41 -7 -97 -13 -124 -13 -42 -1 -47 -3 -34 -13 8 -7 18
-21 21 -30 5 -14 1 -18 -16 -18 -12 0 -29 -5 -37 -10 -11 -7 -4 -10 26 -10 38
0 42 -2 48 -31 4 -23 10 -29 23 -25 10 3 56 7 103 10 83 4 84 4 99 35 14 29
18 31 68 31 29 0 53 4 53 9 0 12 -26 21 -61 21 -25 0 -29 3 -24 19 4 14 0 23
-14 30 -23 13 -33 13 -131 -5z m90 -34 c0 -17 -7 -20 -40 -20 -27 0 -40 4 -40
13 0 21 11 27 47 27 26 0 33 -4 33 -20z m-120 -11 c0 -17 -5 -20 -37 -17 -62
5 -52 33 15 37 16 1 22 -5 22 -20z m98 -46 c-4 -23 -58 -31 -58 -9 0 13 16 22
48 25 8 0 12 -7 10 -16z m-98 -13 c0 -16 -7 -20 -30 -20 -49 0 -37 37 13 39
11 1 17 -6 17 -19z"/>
</g>
<g id="part-4" class="char-part">
  <path d="M551 226 c-10 -24 -48 -36 -123 -36 -21 0 -38 -5 -38 -11 0 -8 23
-10 69 -7 62 3 68 2 58 -12 -7 -8 -16 -18 -21 -21 -17 -13 5 -29 39 -29 72 0
37 -36 -65 -67 l-45 -13 52 5 c29 2 74 13 99 24 l45 21 59 -30 c66 -34 93 -38
88 -14 -3 16 -33 36 -86 56 l-33 13 31 43 32 42 69 0 c66 0 94 14 47 24 -42 9
-168 12 -168 4 0 -4 -13 -8 -30 -8 -19 0 -30 5 -30 14 0 12 -20 26 -36 26 -3
0 -9 -11 -13 -24z m92 -71 c-19 -40 -30 -46 -77 -38 -42 7 -43 11 -15 47 17
21 29 26 65 26 l44 0 -17 -35z"/>
</g>
</g>
</svg>