<?xml version="1.0" standalone="no"?>
<!DOCTYPE svg PUBLIC "-//W3C//DTD SVG 20010904//EN"
 "http://www.w3.org/TR/2001/REC-SVG-20010904/DTD/svg10.dtd">
<svg version="1.0" xmlns="http://www.w3.org/2000/svg"
 width="96.000000pt" height="68.000000pt" viewBox="0 0 96.000000 68.000000"
 preserveAspectRatio="xMidYMid meet">
<metadata>
Created by potrace 1.16, written by Peter Selinger 2001-2019
Combined from part_0.svg through part_5.svg with named groups
</metadata>
<g transform="translate(0.000000,68.000000) scale(0.100000,-0.100000)" fill="#000000" stroke="none">
<g id="part-0" class="char-part">
  <path d="M229 603 c-1 -5 0 -71 1 -148 1 -78 -4 -193 -10 -257 -13 -121 -7
-158 26 -158 26 0 34 49 34 218 l0 166 29 -28 c33 -31 61 -29 61 3 0 15 -11
23 -41 32 l-41 13 4 69 3 70 -32 14 c-18 7 -34 10 -34 6z"/>
  <path d="M500 601 c0 -4 9 -20 20 -34 11 -14 20 -27 20 -30 0 -3 -34 -8 -75
-12 -73 -7 -97 -17 -75 -30 6 -4 68 1 138 9 70 9 154 18 187 22 55 6 58 7 40
21 -20 14 -107 13 -147 -2 -11 -5 -19 1 -24 17 -4 12 -14 28 -23 35 -18 14
-61 17 -61 4z"/>
  <path d="M530 468 c-30 -5 -68 -7 -84 -3 -27 5 -28 4 -14 -12 8 -10 22 -34 31
-54 l17 -36 47 8 c27 4 70 10 96 14 39 5 50 11 57 31 5 13 14 24 20 24 16 0
12 27 -6 34 -21 8 -98 6 -164 -6z m110 -32 c0 -22 -6 -25 -63 -35 -81 -14 -76
-15 -86 12 -8 20 -4 23 33 34 22 6 58 11 79 12 33 1 37 -2 37 -23z"/>
  <path d="M131 390 c-37 -61 -41 -112 -9 -118 36 -7 70 97 44 133 -13 18 -15
18 -35 -15z"/>
  <path d="M580 345 c-30 -7 -74 -14 -97 -14 -24 -1 -43 -5 -43 -10 0 -16 31
-21 69 -12 20 5 59 12 86 16 l50 7 -24 -26 c-14 -14 -30 -26 -37 -26 -19 0
-28 -21 -13 -31 23 -14 5 -19 -106 -29 -111 -10 -130 -15 -101 -26 17 -6 69
-3 169 12 l47 7 0 -39 c0 -22 -3 -50 -7 -62 -5 -21 -10 -23 -42 -17 l-36 6 37
-35 c64 -62 81 -49 88 69 l5 80 108 3 c101 3 130 11 90 27 -10 3 -62 3 -115
-1 -94 -6 -98 -6 -98 14 0 15 13 24 60 38 33 11 60 22 60 26 0 11 -57 38 -77
37 -10 -1 -43 -7 -73 -14z"/>
</g>
<g id="part-1" class="char-part">
  <path d="M226 583 c15 -35 15 -239 0 -366 -11 -96 -12 -135 -4 -153 6 -13 14
-24 18 -24 24 0 31 40 37 204 3 97 10 176 14 176 5 0 13 -9 19 -21 7 -13 19
-19 33 -17 37 5 25 32 -20 46 -47 15 -48 19 -33 92 8 40 7 47 -12 63 -28 23
-63 23 -52 0z"/>
  <path d="M122 366 c-32 -64 -27 -105 11 -90 28 10 46 78 31 118 -10 25 -19 19
-42 -28z"/>
</g>
<g id="part-2" class="char-part">
  <path d="M500 606 c0 -7 9 -25 20 -39 11 -14 20 -27 20 -30 0 -3 -30 -8 -67
-11 -38 -4 -77 -10 -87 -13 -18 -5 -18 -6 -1 -15 12 -7 57 -5 144 6 69 9 153
19 186 22 55 6 58 7 40 21 -20 15 -107 13 -148 -3 -11 -4 -17 -1 -17 8 0 24
-24 48 -57 57 -25 7 -33 6 -33 -3z"/>
</g>
<g id="part-3" class="char-part">
  <path d="M565 474 c-44 -8 -96 -12 -115 -8 -33 5 -34 5 -19 -13 8 -10 22 -34
31 -54 l16 -36 89 13 c48 8 94 14 101 14 7 0 11 4 8 9 -3 4 3 16 14 26 11 10
20 24 20 32 0 12 -41 35 -58 32 -4 -1 -43 -8 -87 -15z m76 -36 c-6 -18 -21
-26 -67 -35 -68 -14 -84 -11 -84 15 0 23 45 40 112 41 45 1 47 0 39 -21z"/>
</g>
<g id="part-4" class="char-part">
  <path d="M556 273 c-3 -3 2 -13 11 -21 14 -15 14 -17 -9 -23 -14 -3 -69 -10
-123 -14 -75 -5 -94 -10 -80 -17 17 -10 79 -7 183 8 l42 7 0 -46 c0 -25 -3
-52 -6 -61 -7 -19 -36 -21 -67 -5 l-22 12 20 -23 c11 -12 33 -31 48 -42 27
-19 30 -19 45 -4 12 12 19 40 22 94 l5 77 110 5 c101 5 108 6 83 19 -21 11
-45 12 -113 4 -77 -8 -87 -7 -95 8 -9 17 -45 31 -54 22z"/>
</g>
</g>
</svg>