<?xml version="1.0" standalone="no"?>
<!DOCTYPE svg PUBLIC "-//W3C//DTD SVG 20010904//EN"
 "http://www.w3.org/TR/2001/REC-SVG-20010904/DTD/svg10.dtd">
<svg version="1.0" xmlns="http://www.w3.org/2000/svg"
 width="96.000000pt" height="68.000000pt" viewBox="0 0 96.000000 68.000000"
 preserveAspectRatio="xMidYMid meet">
<metadata>
Created by potrace 1.16, written by Peter Selinger 2001-2019
Combined from part_0.svg through part_5.svg with named groups
</metadata>
<g transform="translate(0.000000,68.000000) scale(0.100000,-0.100000)" fill="#000000" stroke="none">
<g id="part-0" class="char-part">
  <path d="M481 550 c-7 -33 -30 -94 -52 -136 -22 -42 -38 -79 -35 -81 2 -2 19
14 37 36 30 38 36 41 81 41 l48 0 0 -49 c0 -26 -5 -62 -11 -80 -11 -32 -33
-41 -42 -18 -6 17 -68 48 -80 40 -5 -3 6 -14 24 -25 37 -23 59 -43 59 -55 -1
-12 -51 -58 -80 -73 -14 -8 -43 -19 -65 -26 -37 -12 -38 -13 -11 -13 40 -1
104 19 148 46 21 13 41 23 46 23 4 0 30 -22 57 -50 26 -27 62 -52 78 -56 34
-7 162 15 150 27 -4 4 -39 15 -77 24 -86 19 -189 74 -182 95 35 105 47 165 36
183 -6 10 -10 20 -8 22 2 1 32 6 68 12 61 9 63 10 40 21 -21 11 -41 9 -125
-11 -55 -14 -101 -21 -103 -17 -2 5 14 41 34 81 35 69 36 73 19 86 -32 23 -42
15 -54 -47z"/>
  <path d="M221 451 c-103 -18 -136 -41 -57 -41 52 0 54 -2 58 -110 l3 -64 -62
-15 c-65 -15 -79 -32 -44 -51 24 -12 74 -13 87 -1 5 5 45 28 89 51 117 62 139
88 45 55 -23 -8 -47 -15 -52 -15 -6 0 -8 34 -6 79 l3 80 47 6 c55 8 67 19 39
34 -23 13 -29 13 -150 -8z"/>
</g>
<g id="part-1" class="char-part">
  <path d="M280 454 c-8 -1 -48 -8 -89 -15 -74 -11 -82 -29 -13 -29 41 0 52 -25
52 -115 0 -60 -1 -63 -27 -69 -16 -4 -46 -12 -68 -18 l-40 -10 24 -19 c13 -10
31 -19 40 -19 9 0 66 27 126 60 106 58 121 75 37 46 l-41 -15 -3 85 -3 84 35
6 c56 9 71 15 65 25 -6 8 -62 11 -95 3z"/>
</g>
<g id="part-2" class="char-part">
  <path d="M481 555 c-7 -31 -31 -92 -53 -136 -22 -44 -38 -83 -35 -85 3 -3 20
13 38 35 28 36 37 41 73 41 23 0 57 4 76 9 19 5 61 12 93 16 31 3 57 11 57 16
0 20 -50 19 -147 -4 -59 -14 -103 -20 -103 -15 0 6 17 41 37 78 32 58 35 70
24 84 -27 32 -47 19 -60 -39z"/>
</g>
<g id="part-3" class="char-part">
  <path d="M560 366 c0 -49 -15 -116 -27 -116 -2 0 -19 11 -37 25 -18 14 -44 25
-57 24 -23 0 -23 -1 -5 -12 11 -7 33 -24 50 -39 l31 -26 -23 -25 c-23 -24 -79
-55 -137 -76 -27 -10 -24 -11 23 -7 33 3 75 17 113 37 l60 32 47 -45 c54 -53
80 -68 116 -68 43 0 128 22 119 30 -4 5 -39 16 -77 25 -86 19 -189 74 -182 95
51 152 53 200 11 200 -24 0 -25 -3 -25 -54z"/>
</g>
</g>
</svg>