<?xml version="1.0" standalone="no"?>
<!DOCTYPE svg PUBLIC "-//W3C//DTD SVG 20010904//EN"
 "http://www.w3.org/TR/2001/REC-SVG-20010904/DTD/svg10.dtd">
<svg version="1.0" xmlns="http://www.w3.org/2000/svg"
 width="96.000000pt" height="68.000000pt" viewBox="0 0 96.000000 68.000000"
 preserveAspectRatio="xMidYMid meet">
<metadata>
Created by potrace 1.16, written by Peter Selinger 2001-2019
Combined from part_0.svg through part_5.svg with named groups
</metadata>
<g transform="translate(0.000000,68.000000) scale(0.100000,-0.100000)" fill="#000000" stroke="none">
<g id="part-0" class="char-part">
  <path d="M620 591 c-8 -3 -33 -18 -55 -32 -48 -31 -101 -50 -119 -43 -11 4
-12 -9 -8 -65 4 -67 4 -71 -16 -71 -14 0 -20 5 -16 14 3 8 -7 18 -25 26 -41
16 -60 8 -54 -24 4 -20 1 -26 -20 -32 -15 -3 -30 -4 -35 -2 -5 1 4 44 20 93
15 50 28 93 28 96 0 7 -62 39 -74 39 -3 0 -6 -31 -6 -70 0 -38 -5 -91 -11
-119 -11 -54 -22 -61 -96 -61 -31 0 -43 -4 -43 -15 0 -18 39 -29 80 -23 33 5
35 2 20 -36 -9 -23 -6 -28 30 -48 22 -13 40 -26 40 -29 0 -11 -34 -37 -94 -73
l-60 -36 35 0 c31 0 80 25 145 75 9 6 25 -1 54 -24 45 -36 70 -35 70 2 0 17
-11 30 -39 45 l-40 23 25 52 c13 29 24 57 24 64 0 15 28 43 43 43 8 0 11 -13
9 -39 -2 -21 1 -42 7 -45 12 -8 115 47 127 66 7 11 2 10 -63 -8 -18 -5 -23 -2
-24 12 -1 11 -3 29 -4 41 -2 20 4 22 62 29 60 6 66 5 80 -16 50 -71 163 -150
214 -150 18 0 20 4 15 26 -4 15 -10 40 -13 56 l-6 30 -22 -28 c-22 -27 -24
-28 -51 -14 -36 18 -116 98 -109 109 2 5 27 11 55 15 36 5 50 11 50 23 0 13
-7 14 -42 9 -24 -4 -52 -9 -63 -12 -16 -4 -22 2 -31 31 -12 39 -11 40 49 59
10 3 15 10 12 16 -10 17 -39 28 -55 21z m-51 -108 c15 -32 8 -39 -47 -48 l-43
-7 3 38 c2 31 8 39 28 44 34 9 45 4 59 -27z m-259 -211 c-21 -49 -22 -50 -51
-38 -27 10 -30 14 -25 41 4 16 10 33 15 38 13 13 75 25 79 16 2 -4 -6 -30 -18
-57z"/>
  <path d="M597 269 c-21 -5 -58 -10 -82 -12 -25 -1 -45 -6 -45 -10 0 -4 0 -42
0 -84 0 -85 11 -116 32 -95 7 7 39 12 78 12 54 0 67 -3 78 -20 15 -24 35 -26
53 -4 10 12 13 43 11 108 -4 118 -18 130 -125 105z m75 -49 c4 -26 1 -30 -17
-30 -12 0 -50 -3 -84 -7 l-63 -6 4 29 c3 32 25 41 109 43 45 1 47 0 51 -29z
m-2 -82 l0 -33 -81 -2 -80 -3 3 28 c3 24 8 28 48 33 25 3 60 7 78 7 30 2 32 0
32 -30z"/>
</g>
<g id="part-1" class="char-part">
  <path d="M246 537 c4 -24 1 -70 -6 -103 -20 -100 -14 -94 -86 -94 -35 0 -64
-4 -64 -10 0 -19 43 -32 83 -26 35 6 39 5 32 -11 -17 -39 -10 -57 27 -78 l38
-21 -33 -31 c-17 -18 -52 -44 -77 -58 l-45 -27 35 6 c19 3 61 24 93 46 l59 40
34 -30 c39 -34 59 -38 69 -13 6 18 -4 30 -54 63 l-24 16 21 39 c11 22 23 55
27 73 5 23 15 37 33 44 22 9 23 12 10 15 -10 3 -18 10 -18 18 0 10 -47 35 -67
35 -2 0 -3 -14 -1 -32 3 -29 0 -32 -32 -39 -19 -4 -36 -6 -38 -4 -4 3 44 170
53 184 7 12 -33 41 -57 41 -15 0 -17 -6 -12 -43z m84 -217 c0 -21 -36 -100
-46 -100 -7 0 -64 30 -64 34 0 24 34 75 52 79 49 9 58 7 58 -13z"/>
</g>
<g id="part-2" class="char-part">
  <path d="M615 591 c-6 -6 -40 -26 -77 -45 -37 -19 -64 -37 -59 -40 7 -5 189
42 201 52 6 4 -38 42 -49 42 -4 0 -11 -4 -16 -9z"/>
</g>
<g id="part-3" class="char-part">
  <path d="M568 523 c-17 -4 -17 -7 -2 -35 19 -36 12 -43 -47 -52 -66 -11 -45
-26 26 -19 44 4 65 2 65 -5 0 -20 101 -112 150 -137 81 -41 94 -35 77 38 l-11
48 -21 -27 -22 -28 -46 27 c-54 32 -102 88 -84 98 7 4 31 10 55 14 26 4 42 12
42 21 0 16 -27 18 -83 5 -36 -9 -38 -8 -52 25 -8 19 -18 33 -22 33 -4 -1 -16
-3 -25 -6z"/>
</g>
<g id="part-4" class="char-part">
  <path d="M550 261 l-85 -16 5 -87 c5 -91 11 -108 32 -90 7 5 41 12 76 14 57 3
65 1 81 -21 12 -16 24 -22 35 -18 21 8 38 54 30 80 -3 11 -6 47 -6 79 0 85
-12 89 -168 59z m120 -41 c0 -26 -4 -30 -27 -30 -16 0 -52 -3 -80 -6 l-53 -7
0 31 c0 34 9 38 108 41 51 1 52 1 52 -29z m0 -82 l0 -33 -80 -3 -80 -2 0 29
c0 28 3 30 43 34 117 10 117 10 117 -25z"/>
</g>
</g>
</svg>