<?xml version="1.0" standalone="no"?>
<!DOCTYPE svg PUBLIC "-//W3C//DTD SVG 20010904//EN"
 "http://www.w3.org/TR/2001/REC-SVG-20010904/DTD/svg10.dtd">
<svg version="1.0" xmlns="http://www.w3.org/2000/svg"
 width="96.000000pt" height="68.000000pt" viewBox="0 0 96.000000 68.000000"
 preserveAspectRatio="xMidYMid meet">
<metadata>
Created by potrace 1.16, written by Peter Selinger 2001-2019
Combined from part_0.svg through part_5.svg with named groups
</metadata>
<g transform="translate(0.000000,68.000000) scale(0.100000,-0.100000)" fill="#000000" stroke="none">
<g id="part-0" class="char-part">
  <path d="M260 586 c0 -7 11 -29 24 -48 l23 -35 -108 -13 c-60 -7 -109 -17
-109 -22 0 -21 50 -31 102 -20 29 6 94 16 143 22 112 14 122 17 107 32 -7 7
-37 12 -70 11 -31 -1 -51 1 -44 3 20 9 14 52 -10 68 -28 20 -58 21 -58 2z"/>
  <path d="M565 575 c-16 -8 -46 -14 -65 -15 l-35 0 3 -50 c3 -37 -1 -59 -17
-86 -26 -44 -26 -46 3 -33 29 13 56 68 56 114 0 29 4 35 35 45 19 6 39 9 45 5
5 -3 10 -30 10 -59 0 -62 15 -81 73 -91 49 -9 107 2 107 20 0 16 -6 17 -85 19
-49 1 -50 2 -53 35 -2 18 1 38 7 44 19 19 12 47 -15 57 -31 12 -31 12 -69 -5z"/>
  <path d="M263 415 c-95 -19 -73 -33 31 -19 44 7 59 18 34 26 -7 2 -36 -1 -65
-7z"/>
  <path d="M600 354 c-25 -7 -68 -13 -97 -13 -53 -1 -78 -16 -46 -28 16 -6 52
-35 90 -72 8 -7 12 -18 10 -25 -6 -20 -69 -56 -126 -73 -31 -9 -51 -18 -44
-20 18 -6 130 26 166 47 39 24 43 24 65 3 66 -66 81 -73 152 -73 38 0 71 4 75
9 3 5 -25 19 -63 31 -37 12 -89 35 -115 51 l-47 29 26 43 c15 23 34 50 42 60
29 33 -19 51 -88 31z m20 -34 c0 -6 -7 -24 -15 -41 l-16 -29 -34 27 c-41 33
-43 40 -12 46 43 8 77 7 77 -3z"/>
  <path d="M245 334 l-40 -14 65 5 c35 3 69 10 74 15 15 15 -51 11 -99 -6z"/>
  <path d="M295 275 c-22 -8 -59 -14 -82 -14 l-43 -1 20 -32 c11 -18 20 -42 20
-53 0 -27 20 -55 27 -37 3 7 25 12 59 12 47 0 54 3 54 20 0 10 8 36 17 56 17
35 17 36 -2 50 -22 16 -17 16 -70 -1z m23 -62 c-3 -37 -4 -38 -42 -38 -35 0
-40 3 -47 30 -10 35 1 45 54 45 38 0 38 0 35 -37z"/>
</g>
<g id="part-1" class="char-part">
  <path d="M267 573 c9 -26 34 -53 49 -53 22 0 26 20 10 45 -20 30 -69 36 -59 8z"/>
  <path d="M227 490 c-70 -9 -130 -20 -134 -23 -16 -17 62 -18 170 -3 168 23
183 26 166 37 -19 12 -51 10 -202 -11z"/>
</g>
<g id="part-2" class="char-part">
  <path d="M295 275 c-22 -8 -59 -14 -83 -14 -42 -1 -42 -1 -28 -23 8 -13 18
-40 21 -61 7 -38 26 -60 33 -39 2 8 27 12 64 12 54 0 59 2 53 19 -3 10 2 36
12 56 17 36 17 37 -2 51 -22 16 -17 16 -70 -1z m25 -55 c0 -34 -4 -41 -24 -46
-40 -10 -59 -1 -67 30 -5 17 -6 32 -4 35 4 3 52 14 88 20 4 0 7 -17 7 -39z"/>
</g>
<g id="part-3" class="char-part">
  <path d="M468 508 c3 -44 -1 -60 -22 -90 -28 -42 -28 -43 7 -27 32 15 55 56
57 104 3 61 2 65 -22 65 -21 0 -23 -4 -20 -52z"/>
</g>
<g id="part-4" class="char-part">
  <path d="M553 572 c-41 -15 -62 -39 -25 -28 74 22 72 23 72 -37 0 -76 20 -99
88 -102 63 -4 92 3 92 21 0 14 -10 16 -90 18 -42 1 -45 3 -48 30 -2 15 2 41 9
58 7 17 8 33 3 38 -18 17 -60 19 -101 2z"/>
</g>
<g id="part-5" class="char-part">
  <path d="M621 351 c-9 -6 -10 -11 -2 -15 6 -4 11 -2 11 5 0 7 2 10 5 8 8 -9
-39 -99 -52 -99 -7 0 -13 5 -13 11 0 5 -5 7 -10 4 -6 -3 -13 1 -16 9 -3 8 -14
18 -24 21 -12 4 -17 12 -13 21 3 8 13 12 22 10 9 -3 22 -2 30 3 13 9 1 9 -89
2 -24 -1 -24 -2 10 -24 19 -12 46 -35 59 -50 13 -15 29 -26 36 -23 10 3 10 -1
1 -19 -6 -13 -13 -22 -15 -20 -2 2 -20 -7 -40 -20 -19 -14 -42 -25 -50 -25 -8
0 -11 -3 -8 -7 9 -8 87 27 87 39 0 5 4 7 9 4 5 -3 14 1 21 9 11 13 16 11 36
-12 13 -16 24 -24 24 -18 0 5 7 -1 16 -13 31 -45 112 -65 168 -43 16 6 10 10
-29 20 -28 7 -55 17 -62 23 -9 8 -13 7 -13 -3 0 -9 -3 -10 -8 -4 -4 6 -24 22
-44 37 -25 19 -38 24 -41 15 -3 -6 -6 -2 -6 11 -1 16 -5 21 -13 16 -7 -4 3 10
22 31 19 21 28 34 20 30 -8 -5 0 6 18 24 17 18 30 36 28 40 -7 10 -59 12 -75
2z m0 -94 c-10 -9 -11 -8 -5 6 3 10 9 15 12 12 3 -3 0 -11 -7 -18z m29 -71 c0
-3 -4 -8 -10 -11 -5 -3 -10 -1 -10 4 0 6 5 11 10 11 6 0 10 -2 10 -4z"/>
</g>
</g>
</svg>