<?xml version="1.0" standalone="no"?>
<!DOCTYPE svg PUBLIC "-//W3C//DTD SVG 20010904//EN"
 "http://www.w3.org/TR/2001/REC-SVG-20010904/DTD/svg10.dtd">
<svg version="1.0" xmlns="http://www.w3.org/2000/svg"
 width="96.000000pt" height="68.000000pt" viewBox="0 0 96.000000 68.000000"
 preserveAspectRatio="xMidYMid meet">
<metadata>
Created by potrace 1.16, written by Peter Selinger 2001-2019
Combined from part_0.svg through part_5.svg with named groups
</metadata>
<g transform="translate(0.000000,68.000000) scale(0.100000,-0.100000)" fill="#000000" stroke="none">
<g id="part-0" class="char-part">
  <path d="M264 548 c4 -18 10 -61 13 -94 l6 -62 -44 -7 c-62 -9 -79 -15 -79
-26 0 -5 27 -9 60 -9 l60 0 0 -34 c0 -38 -11 -50 -66 -70 -21 -8 -57 -22 -79
-31 l-40 -17 24 -19 c31 -26 45 -24 96 11 24 17 46 30 50 30 3 0 5 -24 3 -52
-3 -52 -3 -53 -35 -53 -18 0 -33 -1 -33 -3 0 -2 15 -21 33 -42 60 -74 86 -46
87 90 0 94 0 95 30 115 38 26 38 39 0 32 -28 -6 -30 -4 -30 22 0 23 6 30 32
37 42 12 46 31 9 39 -35 7 -39 30 -20 100 10 35 9 41 -11 57 -12 10 -34 18
-47 18 -23 0 -25 -3 -19 -32z"/>
  <path d="M686 491 c-6 -46 -9 -50 -39 -57 -31 -7 -31 -8 -7 -14 26 -7 27 -10
15 -47 -10 -35 10 -27 34 12 18 31 25 35 63 36 24 1 54 4 68 8 37 10 7 25 -47
22 -42 -1 -44 0 -37 21 4 13 11 26 16 29 11 7 -29 39 -48 39 -6 0 -14 -22 -18
-49z"/>
  <path d="M450 491 c0 -6 4 -12 9 -15 5 -3 11 -17 13 -31 5 -24 3 -25 -38 -25
-24 0 -44 -4 -44 -10 0 -17 38 -30 69 -24 27 6 32 3 41 -20 12 -33 33 -25 24
9 -5 20 -1 27 28 39 l33 14 -31 1 c-32 1 -44 15 -44 52 0 14 -7 19 -30 19 -16
0 -30 -4 -30 -9z"/>
  <path d="M705 310 c-22 -5 -99 -12 -172 -16 -131 -7 -132 -7 -118 -28 8 -12
19 -52 26 -91 14 -85 28 -123 37 -108 4 6 57 14 120 18 110 7 113 7 119 -14 8
-30 40 -26 56 6 8 16 20 60 27 98 7 39 16 77 21 86 9 18 1 32 -28 48 -24 12
-30 12 -88 1z m50 -60 l0 -34 -67 -3 -68 -3 0 34 c0 40 10 45 85 43 l50 -2 0
-35z m-182 -1 c10 -38 -2 -49 -53 -49 -42 0 -48 3 -52 23 -8 39 1 47 52 47 40
0 49 -3 53 -21z m169 -115 c-7 -12 -25 -18 -66 -20 l-56 -2 0 34 c0 37 8 41
85 46 35 3 40 0 43 -19 2 -12 -1 -30 -6 -39z m-162 7 c0 -26 -4 -29 -42 -34
-52 -7 -58 -3 -58 33 0 27 3 29 43 32 54 4 57 2 57 -31z"/>
</g>
<g id="part-1" class="char-part">
  <path d="M271 533 c5 -21 9 -64 9 -95 l0 -58 -37 -1 c-21 -1 -49 -4 -63 -8
l-25 -7 23 -8 c13 -4 41 -5 63 -1 l40 7 -3 -48 -3 -48 -80 -32 c-43 -17 -81
-36 -82 -41 -2 -5 8 -15 22 -21 23 -11 32 -8 80 25 31 20 57 34 60 31 3 -2 1
-31 -3 -64 -7 -55 -9 -59 -34 -59 l-26 1 30 -38 c35 -44 41 -46 62 -16 12 17
16 48 16 118 l0 96 32 19 c19 11 27 20 19 23 -7 2 -18 -1 -24 -7 -20 -20 -28
-12 -25 26 2 30 8 38 27 43 37 9 38 30 2 30 -37 0 -40 18 -16 95 13 44 13 50
-3 61 -9 8 -29 14 -43 14 -26 0 -27 -1 -18 -37z"/>
</g>
<g id="part-2" class="char-part">
  <path d="M686 490 c-6 -45 -10 -50 -39 -59 -32 -9 -32 -9 -4 -10 30 -1 32 -4
16 -32 -5 -11 -9 -28 -7 -37 3 -12 11 -5 31 26 21 32 33 42 55 42 47 0 102 12
96 21 -3 5 -28 9 -56 9 -44 0 -49 2 -43 18 16 39 17 54 4 63 -33 21 -46 10
-53 -41z"/>
  <path d="M450 502 c0 -5 7 -26 15 -46 l15 -36 -45 0 c-25 0 -45 -4 -45 -10 0
-16 37 -30 67 -24 24 5 31 1 41 -20 16 -36 34 -33 30 5 -2 26 2 33 27 44 l30
13 -31 1 c-32 1 -44 15 -44 52 0 10 -6 19 -14 19 -8 0 -21 3 -30 6 -9 3 -16 2
-16 -4z"/>
</g>
<g id="part-3" class="char-part">
  <path d="M705 309 c-22 -4 -100 -11 -173 -15 l-132 -7 14 -22 c8 -13 22 -62
30 -110 9 -48 18 -90 21 -93 2 -3 10 0 17 6 7 5 61 13 119 17 103 7 107 6 114
-14 7 -24 37 -28 55 -6 7 8 20 54 30 102 9 49 20 96 24 105 6 12 0 21 -23 32
-33 17 -37 18 -96 5z m50 -58 l0 -34 -68 -4 -68 -3 3 32 c4 40 18 48 83 45 50
-2 50 -2 50 -36z m-182 -17 c2 -28 1 -29 -49 -32 -49 -3 -52 -1 -58 24 -9 34
-1 42 49 46 48 4 55 -1 58 -38z m177 -56 c0 -57 -7 -63 -71 -63 l-59 0 0 32
c0 30 2 32 48 38 26 4 52 8 57 10 21 7 25 4 25 -17z m-170 -37 c0 -26 -4 -30
-40 -36 -49 -8 -60 -2 -60 36 0 28 1 29 50 29 49 0 50 -1 50 -29z"/>
</g>
</g>
</svg>