<?xml version="1.0" standalone="no"?>
<!DOCTYPE svg PUBLIC "-//W3C//DTD SVG 20010904//EN"
 "http://www.w3.org/TR/2001/REC-SVG-20010904/DTD/svg10.dtd">
<svg version="1.0" xmlns="http://www.w3.org/2000/svg"
 width="96.000000pt" height="68.000000pt" viewBox="0 0 96.000000 68.000000"
 preserveAspectRatio="xMidYMid meet">
<metadata>
Created by potrace 1.16, written by Peter Selinger 2001-2019
Combined from part_0.svg through part_5.svg with named groups
</metadata>
<g transform="translate(0.000000,68.000000) scale(0.100000,-0.100000)" fill="#000000" stroke="none">
<g id="part-0" class="char-part">
  <path d="M575 398 c0 -112 -3 -232 -8 -268 -8 -73 6 -109 37 -97 14 6 16 28
16 182 0 204 -3 199 98 135 65 -41 112 -52 112 -25 0 22 -53 51 -132 71 -39
10 -72 24 -75 30 -2 7 0 45 6 85 5 40 8 75 6 77 -2 2 -16 5 -32 8 l-28 4 0
-202z"/>
  <path d="M280 575 c0 -3 9 -24 20 -45 29 -56 81 -53 66 3 -6 24 -86 63 -86 42z"/>
  <path d="M261 459 c-79 -10 -146 -21 -148 -23 -3 -3 -2 -10 2 -17 9 -13 70 -9
252 14 107 14 128 22 103 37 -19 12 -35 11 -209 -11z"/>
  <path d="M313 376 c-79 -17 -78 -30 2 -23 78 6 108 15 99 28 -7 11 -34 10
-101 -5z"/>
  <path d="M285 296 c-36 -11 -38 -13 -18 -20 26 -8 143 12 143 25 0 13 -78 10
-125 -5z"/>
  <path d="M345 230 c-11 -5 -44 -9 -73 -9 -30 -1 -52 -4 -50 -8 18 -38 28 -62
33 -86 4 -20 10 -27 23 -23 9 2 45 8 78 11 53 6 61 9 57 25 -3 10 3 30 12 44
23 35 13 56 -27 55 -18 0 -42 -4 -53 -9z m35 -50 c0 -24 -6 -33 -26 -40 -57
-22 -84 -9 -84 40 0 19 18 25 83 29 24 1 27 -3 27 -29z"/>
</g>
<g id="part-1" class="char-part">
  <path d="M290 564 c0 -23 42 -75 58 -72 17 4 20 44 4 60 -12 11 -62 21 -62 12z"/>
  <path d="M245 453 c-66 -8 -122 -17 -124 -19 -3 -2 0 -9 6 -15 13 -13 355 30
347 43 -7 11 -90 8 -229 -9z"/>
</g>
<g id="part-2" class="char-part">
  <path d="M345 230 c-11 -5 -46 -9 -78 -9 l-58 -1 20 -26 c12 -15 21 -36 21
-48 0 -40 10 -44 92 -33 57 7 75 13 71 22 -2 8 3 29 12 49 9 19 14 40 10 45
-7 13 -62 13 -90 1z m35 -43 c0 -34 -12 -46 -56 -53 -37 -5 -42 -4 -47 17 -11
42 -8 47 41 56 55 11 62 9 62 -20z"/>
</g>
<g id="part-3" class="char-part">
  <path d="M572 570 c10 -31 5 -418 -7 -475 -8 -36 14 -71 39 -62 14 6 16 28 16
182 0 138 3 175 13 175 7 0 43 -18 80 -40 71 -43 121 -53 115 -23 -5 24 -70
59 -140 73 -33 7 -62 19 -65 26 -2 6 0 45 6 85 11 81 7 89 -41 89 -26 0 -26
-1 -16 -30z"/>
</g>
</g>
</svg>