<?xml version="1.0" standalone="no"?>
<!DOCTYPE svg PUBLIC "-//W3C//DTD SVG 20010904//EN"
 "http://www.w3.org/TR/2001/REC-SVG-20010904/DTD/svg10.dtd">
<svg version="1.0" xmlns="http://www.w3.org/2000/svg"
 width="96.000000pt" height="68.000000pt" viewBox="0 0 96.000000 68.000000"
 preserveAspectRatio="xMidYMid meet">
<metadata>
Created by potrace 1.16, written by Peter Selinger 2001-2019
Combined from part_0.svg through part_5.svg with named groups
</metadata>
<g transform="translate(0.000000,68.000000) scale(0.100000,-0.100000)" fill="#000000" stroke="none">
<g id="part-0" class="char-part">
  <path d="M233 589 c3 -13 9 -52 13 -85 l6 -62 -61 -8 c-34 -5 -63 -13 -64 -19
-1 -6 26 -11 61 -13 l63 -3 -3 -41 c-3 -40 -4 -41 -78 -74 -41 -18 -79 -35
-85 -38 -14 -7 25 -36 48 -36 11 0 41 16 68 35 l49 35 -6 -63 c-8 -87 -7 -87
-51 -81 l-38 6 49 -48 49 -48 18 23 c16 19 19 41 19 129 l0 106 33 27 c37 31
31 50 -8 25 l-26 -17 3 38 c3 37 4 38 51 47 63 11 65 36 2 36 -51 0 -55 10
-33 82 14 46 6 56 -47 65 -36 6 -38 5 -32 -18z"/>
  <path d="M510 575 c0 -44 -48 -122 -129 -207 -19 -21 -32 -38 -27 -38 24 0
105 72 148 131 28 38 54 69 59 69 11 0 43 -33 108 -113 30 -37 63 -69 73 -73
21 -6 108 5 108 15 0 3 -35 23 -78 43 -75 37 -185 127 -207 173 -6 11 -21 21
-33 23 -18 3 -22 -1 -22 -23z"/>
  <path d="M535 388 c-27 -6 -59 -14 -70 -18 -16 -7 -12 -9 18 -9 35 -1 37 -3
37 -34 0 -31 -2 -33 -37 -35 -89 -5 -137 -14 -120 -24 9 -5 44 -6 77 -2 73 8
75 8 74 -11 -1 -8 -2 -24 -3 -35 -1 -17 -8 -20 -51 -20 -45 0 -50 -2 -42 -17
6 -10 13 -36 16 -58 9 -50 23 -75 34 -58 5 8 41 13 101 14 58 1 94 6 95 13 2
6 9 27 15 46 19 53 18 63 -7 75 -16 9 -35 9 -67 2 -25 -6 -47 -8 -50 -5 -3 3
-2 18 1 35 l6 30 91 7 c50 3 93 9 96 12 14 14 -29 24 -79 17 -94 -11 -94 -11
-94 22 0 22 5 31 20 33 41 7 50 14 29 22 -24 10 -25 10 -90 -2z m88 -233 c-2
-21 -4 -40 -6 -41 -2 -2 -35 -6 -74 -10 l-71 -7 -11 39 c-6 21 -8 40 -6 42 6
6 121 18 150 16 17 -1 20 -7 18 -39z"/>
</g>
<g id="part-1" class="char-part">
  <path d="M238 605 c-4 -4 -3 -18 3 -32 5 -13 9 -48 9 -78 0 -59 1 -58 -78 -70
-62 -10 -41 -29 24 -22 l54 6 0 -49 c0 -43 -3 -49 -27 -58 -16 -6 -54 -22 -86
-35 -59 -25 -59 -25 -36 -41 32 -22 37 -21 94 20 49 34 50 35 53 13 2 -12 1
-47 -3 -77 l-7 -54 -36 5 -35 6 38 -39 c22 -22 44 -40 50 -40 23 0 35 53 35
150 0 97 0 98 31 124 19 16 25 26 15 26 -8 0 -18 -4 -21 -10 -13 -22 -25 -8
-25 29 0 38 1 39 45 45 24 4 47 11 50 16 8 13 -32 22 -65 15 -27 -6 -30 -4
-30 17 1 13 7 41 15 63 11 31 12 42 2 52 -15 15 -60 26 -69 18z"/>
</g>
<g id="part-2" class="char-part">
  <path d="M509 564 c-12 -45 -73 -139 -132 -201 -17 -18 -26 -33 -20 -33 23 0
100 68 147 130 27 36 54 65 59 65 6 0 47 -40 90 -90 44 -49 86 -92 94 -93 23
-6 103 8 103 17 0 4 -29 20 -64 35 -65 28 -216 154 -216 180 0 7 -11 18 -25
24 -24 11 -25 10 -36 -34z"/>
</g>
<g id="part-3" class="char-part">
  <path d="M520 385 c-82 -16 -83 -17 -35 -24 36 -6 103 1 145 15 13 4 13 6 0
14 -18 11 -25 11 -110 -5z"/>
</g>
<g id="part-4" class="char-part">
  <path d="M550 209 c-25 -4 -66 -8 -91 -8 l-47 -1 14 -37 c7 -21 13 -50 14 -65
0 -29 18 -47 29 -30 3 6 38 12 77 13 89 2 139 10 126 18 -7 4 -4 22 9 50 15
33 17 47 8 57 -12 15 -66 16 -139 3z m74 -52 c-1 -21 -4 -40 -6 -43 -3 -3 -38
-6 -79 -7 l-73 -2 -7 35 c-4 19 -6 36 -4 38 4 5 128 20 150 18 16 -1 20 -8 19
-39z"/>
</g>
</g>
</svg>