<?xml version="1.0" standalone="no"?>
<!DOCTYPE svg PUBLIC "-//W3C//DTD SVG 20010904//EN"
 "http://www.w3.org/TR/2001/REC-SVG-20010904/DTD/svg10.dtd">
<svg version="1.0" xmlns="http://www.w3.org/2000/svg"
 width="96.000000pt" height="68.000000pt" viewBox="0 0 96.000000 68.000000"
 preserveAspectRatio="xMidYMid meet">
<metadata>
Created by potrace 1.16, written by Peter Selinger 2001-2019
Combined from part_0.svg through part_5.svg with named groups
</metadata>
<g transform="translate(0.000000,68.000000) scale(0.100000,-0.100000)" fill="#000000" stroke="none">
<g id="part-0" class="char-part">
  <path d="M294 577 c14 -49 18 -134 8 -141 -6 -4 -41 -9 -77 -13 -36 -3 -65
-10 -65 -14 0 -5 32 -9 70 -9 49 0 70 -4 71 -12 2 -48 -3 -199 -8 -227 -5 -32
-7 -33 -41 -28 l-34 6 43 -40 c39 -36 44 -38 58 -24 13 13 17 47 19 175 l4
159 36 7 c66 11 74 14 62 29 -8 10 -19 11 -43 4 -18 -5 -35 -9 -39 -9 -12 0
-9 66 4 95 14 30 5 41 -41 55 -31 9 -33 8 -27 -13z"/>
  <path d="M570 558 c0 -27 -34 -119 -57 -154 -19 -30 -10 -43 15 -21 11 10 35
17 57 17 l38 0 -6 -66 c-7 -87 -16 -95 -65 -55 -22 17 -43 31 -46 31 -15 0 -3
-22 31 -55 30 -29 35 -39 27 -53 -17 -27 -58 -53 -115 -73 l-54 -19 54 6 c34
4 72 17 102 36 l48 29 41 -45 c46 -50 86 -62 165 -50 54 8 50 13 -24 39 -61
21 -134 59 -151 80 -8 9 -8 19 -1 32 18 33 42 134 36 153 -5 17 1 20 44 26 28
4 51 11 51 16 0 19 -35 20 -112 4 -44 -10 -82 -16 -84 -14 -2 2 7 20 19 39 13
19 29 49 37 67 11 29 11 35 -1 43 -26 16 -49 10 -49 -13z"/>
  <path d="M410 533 c0 -12 53 -63 66 -63 10 0 24 21 24 36 0 6 -66 34 -80 34
-5 0 -10 -3 -10 -7z"/>
  <path d="M400 339 c-29 -39 -21 -45 24 -18 39 23 44 34 20 43 -22 8 -20 9 -44
-25z"/>
  <path d="M170 345 c0 -10 55 -54 68 -55 6 0 12 6 12 14 0 7 -6 18 -12 23 -16
12 -68 26 -68 18z"/>
  <path d="M225 242 c-16 -9 -50 -21 -74 -27 -50 -13 -62 -29 -33 -44 16 -9 31
-3 81 29 33 22 61 44 61 50 0 5 -1 10 -2 9 -2 -1 -16 -8 -33 -17z"/>
  <path d="M370 247 c0 -8 75 -57 88 -57 16 0 15 25 0 38 -14 11 -88 27 -88 19z"/>
</g>
<g id="part-1" class="char-part">
  <path d="M432 508 c18 -27 58 -37 58 -14 0 17 -29 36 -56 36 -15 0 -15 -2 -2
-22z"/>
</g>
<g id="part-2" class="char-part">
  <path d="M300 296 c0 -57 -3 -118 -6 -136 -7 -30 -9 -32 -43 -26 l-35 5 44
-40 44 -41 18 22 c15 19 18 43 18 171 0 142 -1 149 -20 149 -19 0 -20 -7 -20
-104z"/>
  <path d="M391 328 l-23 -41 38 23 c56 33 61 39 44 50 -25 16 -34 11 -59 -32z"/>
  <path d="M170 341 c0 -16 60 -53 75 -47 25 9 17 26 -20 42 -40 16 -55 18 -55
5z"/>
  <path d="M205 234 c-27 -13 -59 -24 -70 -24 -11 0 -26 -4 -34 -9 -11 -7 -8
-12 12 -26 25 -16 27 -16 81 20 54 35 87 66 70 64 -5 0 -31 -11 -59 -25z"/>
  <path d="M400 222 c37 -33 70 -41 70 -18 0 21 -24 36 -67 43 l-38 5 35 -30z"/>
</g>
<g id="part-3" class="char-part">
  <path d="M567 543 c-4 -21 -22 -71 -41 -110 -35 -73 -35 -91 -1 -53 11 13 31
20 52 20 48 0 176 21 187 31 19 17 -62 20 -121 5 -34 -9 -66 -16 -72 -16 -6 0
3 22 20 49 16 28 31 63 32 78 2 23 -2 29 -24 31 -23 3 -27 -1 -32 -35z"/>
</g>
<g id="part-4" class="char-part">
  <path d="M620 351 c0 -26 -5 -62 -11 -79 l-11 -32 -36 30 c-56 46 -77 38 -30
-10 21 -23 38 -45 38 -50 0 -16 -70 -63 -123 -82 l-52 -19 54 7 c34 4 73 17
100 35 l45 28 47 -44 c53 -50 95 -62 166 -48 38 8 44 11 28 17 -91 34 -155 63
-181 82 l-32 23 25 81 c27 87 25 110 -7 110 -17 0 -20 -6 -20 -49z"/>
</g>
</g>
</svg>