<?xml version="1.0" standalone="no"?>
<!DOCTYPE svg PUBLIC "-//W3C//DTD SVG 20010904//EN"
 "http://www.w3.org/TR/2001/REC-SVG-20010904/DTD/svg10.dtd">
<svg version="1.0" xmlns="http://www.w3.org/2000/svg"
 width="96.000000pt" height="68.000000pt" viewBox="0 0 96.000000 68.000000"
 preserveAspectRatio="xMidYMid meet">
<metadata>
Created by potrace 1.16, written by Peter Selinger 2001-2019
Combined from part_0.svg through part_5.svg with named groups
</metadata>
<g transform="translate(0.000000,68.000000) scale(0.100000,-0.100000)" fill="#000000" stroke="none">
<g id="part-0" class="char-part">
  <path d="M537 547 l5 -53 -58 -11 -59 -10 58 -2 57 -1 0 -79 0 -79 -52 -7
c-145 -17 -146 -18 -114 -26 16 -5 63 -4 105 2 73 9 118 13 280 24 73 4 90 9
78 21 -9 9 -74 9 -170 0 l-88 -8 3 77 c3 69 5 78 23 81 91 13 105 16 99 26 -4
7 -27 8 -61 4 l-55 -6 4 47 c3 47 3 48 -29 51 l-32 3 6 -54z"/>
  <path d="M296 477 c7 -82 6 -84 -17 -90 -39 -11 -79 -8 -79 6 0 6 4 29 9 49 9
40 3 50 -35 62 -20 6 -21 3 -21 -36 0 -24 -4 -63 -8 -87 -10 -57 3 -64 71 -40
79 28 84 26 84 -25 l0 -44 -85 -7 c-82 -7 -106 -17 -65 -28 12 -3 20 -14 20
-26 0 -27 -35 -98 -63 -129 -16 -17 -17 -22 -5 -22 29 0 118 120 118 160 0 20
19 30 56 30 21 0 24 -4 20 -27 -21 -130 -18 -193 9 -193 19 0 23 28 30 195 3
83 8 186 11 231 5 79 4 81 -21 92 -14 7 -28 12 -31 12 -2 0 -1 -38 2 -83z"/>
  <path d="M647 403 c-20 -31 -36 -58 -34 -59 2 -2 19 8 39 22 l37 26 27 -21
c32 -25 44 -27 44 -5 0 9 -13 21 -30 27 -29 11 -41 27 -20 27 6 0 10 9 10 20
0 39 -35 21 -73 -37z"/>
  <path d="M429 413 c-6 -16 -20 -38 -31 -50 -25 -27 -16 -44 10 -20 23 21 46
22 62 2 7 -8 16 -15 21 -15 17 0 9 25 -12 38 -16 11 -18 16 -9 27 7 8 10 22 6
30 -9 24 -36 17 -47 -12z"/>
  <path d="M679 265 c-5 -5 -168 -24 -229 -27 -19 -1 -43 2 -52 6 -16 7 -16 5
-4 -21 8 -15 19 -62 26 -103 6 -41 12 -75 13 -76 1 -1 53 3 116 9 80 8 116 8
118 0 2 -5 10 -19 18 -29 14 -18 16 -18 38 7 19 21 27 47 36 115 11 86 10 90
-10 107 -20 16 -60 23 -70 12z m19 -37 c16 -16 16 -137 0 -143 -7 -2 -63 -6
-125 -10 -127 -7 -117 -13 -128 86 l-7 57 83 10 c121 13 163 14 177 0z"/>
  <path d="M528 193 l-38 -4 14 -34 c8 -18 11 -37 8 -41 -4 -4 4 -4 18 -1 14 4
40 7 58 7 25 0 32 4 32 19 0 11 5 23 10 26 6 3 10 13 10 21 0 14 -25 16 -112
7z m72 -32 c0 -26 -57 -35 -70 -11 -12 23 -3 30 37 30 26 0 33 -4 33 -19z"/>
</g>
<g id="part-1" class="char-part">
  <path d="M160 464 c0 -20 -5 -54 -12 -76 -17 -58 -4 -64 83 -34 l74 26 -52 -4
c-29 -3 -54 -2 -57 2 -2 4 1 29 7 55 9 40 8 50 -4 58 -28 17 -39 10 -39 -27z"/>
</g>
<g id="part-2" class="char-part">
  <path d="M175 263 c-50 -5 -65 -18 -31 -27 42 -10 30 -62 -31 -144 -14 -18
-23 -35 -21 -38 18 -18 144 146 134 173 -4 9 8 15 34 19 22 4 37 10 34 15 -5
9 -42 9 -119 2z"/>
</g>
<g id="part-3" class="char-part">
  <path d="M536 547 l6 -54 -63 -9 -64 -9 63 -3 62 -3 0 -79 0 -78 -52 -7 c-142
-17 -144 -17 -120 -26 13 -5 84 -2 170 6 81 9 182 18 226 21 56 4 75 9 67 17
-13 13 -50 14 -163 3 l-88 -8 0 75 c0 84 -9 75 93 93 62 11 44 27 -23 21 l-61
-5 3 46 c3 46 3 47 -30 50 l-32 3 6 -54z"/>
</g>
<g id="part-4" class="char-part">
  <path d="M664 428 c-9 -18 -26 -43 -37 -55 -29 -33 -15 -38 21 -8 36 30 40 30
72 5 30 -24 40 -25 40 -5 0 9 -12 21 -27 27 -38 16 -37 16 -24 32 7 8 10 20 6
26 -12 20 -35 10 -51 -22z"/>
</g>
<g id="part-5" class="char-part">
  <path d="M680 262 c-19 -2 -39 -7 -44 -12 -6 -6 0 -8 15 -5 32 6 59 -3 59 -21
0 -8 5 -14 11 -14 8 0 8 -5 -1 -15 -8 -9 -11 -30 -7 -54 5 -41 -15 -87 -34
-76 -14 9 -11 -9 6 -31 15 -19 16 -18 40 9 25 28 34 54 15 42 -5 -3 -10 -2
-10 4 0 5 5 11 11 13 5 2 10 28 11 58 0 30 4 58 10 61 19 12 -46 44 -82 41z
m33 -207 c-3 -9 -8 -14 -10 -11 -3 3 -2 9 2 15 9 16 15 13 8 -4z"/>
  <path d="M401 227 c11 -8 18 -36 22 -84 6 -72 19 -114 30 -96 3 5 2 28 -4 50
-5 23 -10 62 -10 87 -1 25 -6 43 -10 40 -4 -2 -10 0 -14 6 -3 5 -12 10 -18 10
-7 -1 -6 -5 4 -13z"/>
  <path d="M605 70 l-40 -7 35 -1 c19 -1 42 3 50 8 16 11 14 11 -45 0z"/>
  <path d="M528 63 c6 -2 18 -2 25 0 6 3 1 5 -13 5 -14 0 -19 -2 -12 -5z"/>
</g>
</g>
</svg>