<?xml version="1.0" standalone="no"?>
<!DOCTYPE svg PUBLIC "-//W3C//DTD SVG 20010904//EN"
 "http://www.w3.org/TR/2001/REC-SVG-20010904/DTD/svg10.dtd">
<svg version="1.0" xmlns="http://www.w3.org/2000/svg"
 width="96.000000pt" height="68.000000pt" viewBox="0 0 96.000000 68.000000"
 preserveAspectRatio="xMidYMid meet">
<metadata>
Created by potrace 1.16, written by Peter Selinger 2001-2019
Combined from part_0.svg through part_5.svg with named groups
</metadata>
<g transform="translate(0.000000,68.000000) scale(0.100000,-0.100000)" fill="#000000" stroke="none">
<g id="part-0" class="char-part">
  <path d="M567 563 c-21 -40 -54 -67 -85 -69 -18 -1 -25 -6 -22 -15 9 -25 4
-114 -10 -178 -7 -34 -30 -96 -51 -138 -30 -60 -33 -71 -16 -56 37 31 42 37
62 76 11 21 23 41 28 43 4 3 7 -31 7 -76 0 -72 2 -81 18 -78 16 3 19 11 21 71
1 22 6 27 26 27 22 0 25 -4 25 -36 0 -48 24 -40 28 9 3 34 6 37 34 37 l31 0
-7 -49 c-4 -28 -2 -52 3 -55 14 -9 21 7 28 64 6 49 6 50 40 50 34 0 34 0 31
-42 -3 -38 -6 -44 -30 -48 l-28 -5 20 -33 c11 -19 26 -32 32 -30 26 9 48 57
58 123 5 39 12 84 16 100 10 53 -17 59 -187 42 -79 -8 -146 -13 -148 -11 -2 2
0 19 3 38 8 40 12 42 149 51 79 6 97 10 93 22 -3 8 4 33 15 55 20 39 20 43 5
54 -18 13 -23 12 -121 -5 -97 -17 -104 -14 -49 20 27 17 51 33 53 35 7 7 -12
21 -36 28 -17 6 -25 1 -36 -21z m133 -105 c0 -18 -4 -38 -8 -44 -7 -12 -168
-34 -177 -25 -8 7 -6 55 3 68 4 6 39 15 77 21 110 15 105 16 105 -20z m-44
-203 c9 -36 -2 -57 -28 -53 -39 5 -38 78 1 78 14 0 23 -9 27 -25z m108 -1 c8
-32 3 -38 -35 -40 -27 -2 -29 1 -29 32 0 31 3 34 29 34 23 0 30 -5 35 -26z
m-198 -9 c8 -34 -1 -54 -23 -51 -13 2 -19 13 -21 39 -3 32 0 37 17 37 14 0 23
-9 27 -25z"/>
  <path d="M227 543 c-3 -4 -1 -29 5 -55 16 -67 8 -78 -52 -78 -46 0 -64 -10
-41 -24 5 -3 12 -23 16 -43 9 -52 21 -63 56 -56 28 5 29 4 29 -35 0 -46 -9
-52 -81 -52 -51 0 -58 -13 -19 -38 17 -10 28 -9 65 8 24 11 48 20 52 20 4 1
26 9 48 20 35 16 41 17 51 5 17 -22 44 -19 44 5 0 12 -13 28 -32 40 -31 19
-33 19 -37 2 -3 -17 -19 -32 -33 -32 -5 0 -8 16 -8 35 0 37 5 39 83 38 11 0
16 6 14 16 -2 9 5 31 16 49 18 31 19 35 3 50 -12 12 -31 16 -65 15 l-48 -2 9
45 c6 27 6 50 1 55 -13 13 -70 22 -76 12z m113 -162 c0 -20 -25 -51 -41 -51
-5 0 -9 16 -9 35 0 31 3 35 25 35 18 0 25 -5 25 -19z m-100 -26 c0 -28 -4 -35
-20 -35 -15 0 -20 7 -20 28 0 32 7 42 27 42 8 0 13 -12 13 -35z"/>
</g>
<g id="part-1" class="char-part">
  <path d="M237 476 l6 -64 -30 -6 c-17 -4 -43 -4 -58 0 -24 6 -26 5 -16 -12 7
-11 17 -39 24 -64 12 -43 15 -45 45 -42 31 3 32 2 32 -33 0 -29 3 -36 18 -33
12 2 18 14 20 39 3 32 7 38 34 43 17 3 41 6 54 6 16 0 22 4 18 15 -3 8 4 29
17 46 22 31 22 32 3 46 -13 10 -35 13 -66 10 -53 -5 -58 4 -37 60 8 23 7 30
-7 40 -10 7 -28 13 -40 13 -21 0 -21 -3 -17 -64z m107 -81 c9 -25 -11 -65 -34
-65 -16 0 -20 7 -20 34 0 32 9 43 36 45 7 1 14 -6 18 -14z m-104 -35 c0 -33
-3 -40 -20 -40 -11 0 -20 6 -20 14 0 8 -3 21 -6 30 -5 13 12 27 44 35 1 1 2
-17 2 -39z"/>
</g>
<g id="part-2" class="char-part">
  <path d="M343 238 c28 -47 50 -55 55 -21 2 16 -6 28 -30 43 -48 29 -53 25 -25
-22z"/>
</g>
<g id="part-3" class="char-part">
  <path d="M570 578 c0 -7 -14 -29 -31 -47 -39 -43 -29 -52 24 -23 87 47 94 63
35 77 -21 5 -28 3 -28 -7z"/>
</g>
<g id="part-4" class="char-part">
  <path d="M650 504 c-36 -7 -96 -13 -133 -14 -66 0 -67 -1 -56 -21 28 -53 -42
-323 -91 -354 -5 -3 -10 -11 -10 -18 0 -6 16 5 36 24 42 39 78 111 95 187 14
60 9 58 152 67 81 6 97 10 93 22 -3 8 3 33 14 56 29 60 5 73 -100 51z m50 -46
c0 -18 -4 -38 -8 -45 -4 -7 -46 -16 -95 -21 l-87 -8 0 31 c0 45 9 52 80 63
110 16 110 16 110 -20z"/>
</g>
<g id="part-5" class="char-part">
  <path d="M735 301 c-3 -5 4 -12 15 -16 22 -7 23 -10 24 -72 1 -24 -3 -43 -8
-43 -5 0 -6 -13 -3 -29 7 -32 -7 -51 -37 -52 -21 0 -21 0 -1 -9 11 -5 15 -9 8
-9 -18 -1 -4 -31 14 -31 9 0 22 8 29 18 16 20 18 36 4 27 -5 -3 -10 -2 -10 4
0 5 5 11 11 13 14 5 31 87 24 116 -3 13 -2 21 3 18 6 -3 12 6 15 20 3 20 -1
28 -24 39 -32 17 -55 19 -64 6z"/>
  <path d="M620 290 c-21 -7 -19 -8 17 -9 23 -1 45 4 48 9 7 12 -29 12 -65 0z"/>
  <path d="M495 270 c-3 -5 -3 -14 0 -20 3 -5 1 -10 -4 -10 -15 0 -14 -25 2 -39
11 -8 13 -4 12 25 -1 28 4 38 20 44 20 9 19 9 -2 9 -12 1 -25 -3 -28 -9z"/>
  <path d="M485 134 c1 -25 5 -47 8 -50 8 -8 20 74 12 86 -14 23 -23 7 -20 -36z"/>
</g>
</g>
</svg>