<?xml version="1.0" standalone="no"?>
<!DOCTYPE svg PUBLIC "-//W3C//DTD SVG 20010904//EN"
 "http://www.w3.org/TR/2001/REC-SVG-20010904/DTD/svg10.dtd">
<svg version="1.0" xmlns="http://www.w3.org/2000/svg"
 width="96.000000pt" height="68.000000pt" viewBox="0 0 96.000000 68.000000"
 preserveAspectRatio="xMidYMid meet">
<metadata>
Created by potrace 1.16, written by Peter Selinger 2001-2019
Combined from part_0.svg through part_5.svg with named groups
</metadata>
<g transform="translate(0.000000,68.000000) scale(0.100000,-0.100000)" fill="#000000" stroke="none">
<g id="part-0" class="char-part">
  <path d="M254 569 c3 -13 9 -54 13 -90 6 -75 11 -70 -89 -84 -27 -4 -48 -11
-48 -16 0 -14 47 -22 85 -15 19 4 35 3 35 -2 0 -17 -64 -108 -111 -157 -26
-27 -46 -51 -44 -53 11 -11 82 38 125 87 l49 56 -5 -60 c-3 -33 -9 -82 -14
-109 -9 -54 4 -106 26 -106 25 0 34 39 34 156 l0 117 24 -23 c28 -25 56 -21
56 8 0 13 -12 22 -40 31 -35 10 -40 16 -40 40 0 25 5 30 35 35 58 11 61 38 4
40 l-31 1 6 66 c8 72 3 82 -48 95 -27 6 -29 5 -22 -17z"/>
  <path d="M655 500 c-22 -5 -87 -16 -145 -25 -58 -10 -108 -19 -113 -22 -4 -2
0 -11 8 -19 12 -12 15 -45 15 -164 l0 -148 31 -26 c26 -22 41 -26 102 -27 196
-4 297 7 282 31 -4 6 -70 7 -178 3 -152 -5 -174 -4 -186 10 -19 24 -12 314 8
326 8 5 66 14 130 21 64 7 127 16 141 20 l25 8 -28 11 c-31 12 -35 12 -92 1z"/>
  <path d="M641 415 c-18 -8 -53 -15 -76 -15 l-43 0 18 -47 c18 -47 19 -48 59
-45 22 2 48 5 58 7 10 2 26 4 36 4 9 1 17 9 17 19 0 10 7 28 16 41 9 13 13 26
8 31 -18 17 -60 19 -93 5z m27 -39 c5 -24 -8 -36 -51 -46 -27 -6 -39 -4 -48 6
-18 22 -4 41 38 52 47 12 57 10 61 -12z"/>
  <path d="M720 279 c-14 -6 -37 -9 -52 -6 -30 4 -35 -2 -17 -20 6 -6 14 -26 18
-45 6 -29 11 -33 42 -36 46 -4 84 11 87 34 11 70 8 79 -23 81 -16 1 -41 -2
-55 -8z m40 -35 c0 -50 -54 -75 -66 -30 -8 34 2 46 37 46 20 0 29 -5 29 -16z"/>
  <path d="M560 259 c-14 -6 -37 -9 -52 -6 -16 2 -28 0 -28 -5 0 -4 4 -8 8 -8 4
0 8 -8 9 -17 1 -10 6 -30 12 -45 9 -24 14 -26 48 -22 53 8 65 12 59 23 -3 5
-1 23 5 41 9 26 9 34 -2 41 -17 11 -27 10 -59 -2z m20 -44 c0 -31 -3 -35 -25
-35 -14 0 -26 5 -26 10 -5 37 -2 45 21 51 14 4 26 7 28 8 1 1 2 -15 2 -34z"/>
</g>
<g id="part-1" class="char-part">
  <path d="M268 491 l5 -89 -67 -7 c-83 -9 -86 -25 -5 -25 l60 0 -27 -50 c-15
-28 -51 -75 -80 -105 -28 -30 -46 -55 -39 -55 20 0 85 56 119 103 l31 42 4
-35 c1 -19 -2 -72 -9 -117 -12 -86 -8 -123 15 -123 26 0 35 38 35 156 l0 118
29 -28 c29 -27 51 -28 51 -2 0 14 -41 36 -65 36 -10 0 -15 11 -15 35 0 36 3
38 53 49 37 9 24 26 -19 26 l-35 0 6 48 c4 26 9 54 11 63 6 21 -21 49 -45 49
-17 0 -18 -8 -13 -89z"/>
</g>
<g id="part-2" class="char-part">
  <path d="M545 483 c-82 -14 -152 -27 -154 -28 -2 -2 4 -11 13 -20 13 -14 16
-41 16 -160 0 -79 3 -151 6 -160 14 -35 58 -45 207 -45 160 0 207 6 207 26 0
11 -33 12 -178 7 -157 -5 -179 -4 -191 11 -10 12 -13 49 -9 166 2 82 7 152 11
156 3 4 57 13 119 21 175 22 181 24 171 34 -18 18 -72 17 -218 -8z"/>
</g>
<g id="part-3" class="char-part">
  <path d="M640 415 c-19 -7 -54 -14 -77 -14 l-41 -1 18 -47 c17 -46 19 -48 56
-45 85 6 114 13 114 31 0 9 7 27 16 40 9 13 13 26 8 31 -17 16 -59 19 -94 5z
m28 -47 c3 -22 -2 -27 -40 -36 -46 -12 -68 -3 -68 28 0 12 13 20 43 27 55 13
61 12 65 -19z"/>
</g>
<g id="part-4" class="char-part">
  <path d="M730 279 c-14 -6 -39 -9 -57 -7 -29 4 -31 2 -20 -17 6 -11 13 -33 17
-50 7 -34 23 -40 86 -30 30 4 41 10 38 20 -3 7 1 26 10 43 24 46 -11 66 -74
41z m30 -31 c-1 -37 -14 -58 -35 -58 -23 0 -35 17 -35 51 0 15 7 19 35 19 21
0 35 -5 35 -12z"/>
</g>
</g>
</svg>