<?xml version="1.0" standalone="no"?>
<!DOCTYPE svg PUBLIC "-//W3C//DTD SVG 20010904//EN"
 "http://www.w3.org/TR/2001/REC-SVG-20010904/DTD/svg10.dtd">
<svg version="1.0" xmlns="http://www.w3.org/2000/svg"
 width="96.000000pt" height="68.000000pt" viewBox="0 0 96.000000 68.000000"
 preserveAspectRatio="xMidYMid meet">
<metadata>
Created by potrace 1.16, written by Peter Selinger 2001-2019
Combined from part_0.svg through part_5.svg with named groups
</metadata>
<g transform="translate(0.000000,68.000000) scale(0.100000,-0.100000)" fill="#000000" stroke="none">
<g id="part-0" class="char-part">
  <path d="M598 561 c3 -47 1 -71 -7 -76 -7 -4 -39 -9 -71 -12 -59 -6 -59 -6
-53 -34 3 -16 0 -50 -6 -75 -9 -34 -9 -50 -1 -58 8 -8 13 -8 18 0 9 13 102 27
102 15 0 -16 -104 -112 -149 -139 -24 -14 -39 -28 -33 -30 17 -5 92 33 147 75
25 19 49 32 52 29 3 -3 1 -39 -6 -80 -11 -80 -3 -126 23 -126 21 0 26 32 26
168 l0 122 70 0 70 0 0 -30 c0 -32 -18 -81 -35 -92 -5 -4 -21 -4 -34 -1 l-24
6 24 -32 c12 -17 29 -31 36 -31 24 0 51 38 68 96 9 33 21 64 25 69 5 6 6 15 2
21 -15 24 -48 32 -97 23 -27 -4 -62 -8 -77 -8 -27 -1 -28 0 -28 58 l0 59 50
11 c28 6 57 11 65 11 26 0 25 19 -2 33 -24 13 -32 13 -70 -4 l-44 -19 7 50 c6
47 5 50 -20 60 -15 5 -29 10 -30 10 -2 0 -1 -31 2 -69z m2 -156 l0 -55 -50 0
c-54 0 -54 0 -44 62 7 38 16 45 67 47 26 1 27 0 27 -54z"/>
  <path d="M328 581 c-18 -15 -58 -41 -88 -57 -58 -29 -50 -46 12 -25 51 18 55
15 54 -36 l-1 -47 -83 -12 c-46 -6 -86 -14 -89 -18 -19 -18 95 -20 140 -1 55
23 -49 -106 -128 -159 -22 -14 -34 -26 -27 -26 26 0 96 43 145 88 l50 47 -6
-50 c-18 -148 -19 -201 -4 -214 26 -21 37 18 37 138 0 117 7 133 43 91 17 -20
47 -27 47 -11 0 20 -13 41 -25 41 -8 0 -25 4 -38 9 -19 8 -23 15 -20 34 4 20
13 26 44 31 51 8 50 26 -1 26 l-41 0 7 37 c5 28 3 39 -10 49 -15 10 -11 14 33
29 59 19 67 28 45 49 -23 24 -60 19 -96 -13z"/>
</g>
<g id="part-1" class="char-part">
  <path d="M338 581 c-18 -15 -55 -40 -83 -55 -95 -50 -6 -30 153 34 27 12 28
26 3 40 -29 15 -37 13 -73 -19z"/>
</g>
<g id="part-2" class="char-part">
  <path d="M312 523 c-9 -4 -11 -18 -6 -53 7 -55 8 -54 -91 -66 -33 -4 -69 -10
-80 -14 -37 -14 34 -24 97 -14 32 6 58 7 58 2 0 -20 -95 -116 -148 -150 -18
-11 -31 -22 -28 -25 11 -11 105 42 149 85 l47 46 -6 -64 c-3 -36 -10 -86 -15
-112 -8 -45 3 -98 21 -98 23 0 30 32 30 148 l0 124 31 -26 c36 -30 59 -33 59
-8 0 18 -37 42 -65 42 -10 0 -15 10 -15 30 0 27 3 30 33 30 41 0 66 14 42 24
-9 3 -30 6 -46 6 -28 0 -29 1 -23 39 5 32 3 41 -12 49 -11 5 -25 7 -32 5z"/>
</g>
<g id="part-3" class="char-part">
  <path d="M598 438 c1 -106 -2 -225 -8 -265 -10 -77 -2 -123 24 -123 22 0 24
27 28 304 3 251 2 259 -17 267 -11 4 -22 8 -25 8 -3 1 -4 -86 -2 -191z"/>
</g>
<g id="part-4" class="char-part">
  <path d="M695 534 c-73 -39 -171 -72 -200 -67 -30 5 -31 4 -30 -39 0 -24 -3
-57 -7 -73 -9 -40 6 -67 25 -45 6 8 28 16 47 17 19 0 83 4 143 9 l107 7 0 -32
c0 -44 -26 -101 -45 -101 -9 0 -26 5 -37 11 -17 9 -15 4 8 -25 48 -60 73 -44
113 72 l28 83 -27 14 c-15 8 -36 12 -46 9 -10 -2 -76 -10 -146 -17 -142 -15
-134 -18 -122 55 6 31 11 38 38 43 65 14 212 47 226 52 12 3 10 8 -9 24 -28
23 -28 23 -66 3z"/>
</g>
<g id="part-5" class="char-part">
  <path d="M567 290 c-9 -13 -14 -27 -12 -31 3 -3 -1 -6 -8 -5 -6 0 -13 -3 -14
-9 -2 -5 2 -10 8 -10 17 0 52 50 47 66 -3 8 -10 5 -21 -11z"/>
  <path d="M506 218 c5 -7 2 -9 -7 -6 -8 3 -30 -7 -49 -23 -41 -34 -30 -37 24
-6 39 23 58 47 36 47 -6 0 -8 -5 -4 -12z"/>
</g>
</g>
</svg>