<?xml version="1.0" standalone="no"?>
<!DOCTYPE svg PUBLIC "-//W3C//DTD SVG 20010904//EN"
 "http://www.w3.org/TR/2001/REC-SVG-20010904/DTD/svg10.dtd">
<svg version="1.0" xmlns="http://www.w3.org/2000/svg"
 width="96.000000pt" height="68.000000pt" viewBox="0 0 96.000000 68.000000"
 preserveAspectRatio="xMidYMid meet">
<metadata>
Created by potrace 1.16, written by Peter Selinger 2001-2019
Combined from part_0.svg through part_5.svg with named groups
</metadata>
<g transform="translate(0.000000,68.000000) scale(0.100000,-0.100000)" fill="#000000" stroke="none">
<g id="part-0" class="char-part">
  <path d="M479 623 c-1 -5 0 -23 1 -40 1 -18 -2 -33 -7 -34 -4 0 -20 -3 -35 -5
-25 -4 -28 -2 -28 26 0 24 -6 33 -26 40 -37 14 -37 14 -30 -30 4 -24 2 -40 -4
-41 -5 -1 -14 -3 -20 -4 -5 -1 -29 -3 -51 -4 -35 -1 -40 -3 -29 -16 6 -8 20
-40 29 -72 9 -32 23 -58 29 -57 7 1 23 2 37 3 32 1 33 21 1 21 -23 0 -41 22
-29 34 4 3 19 6 35 6 25 0 28 -4 28 -31 0 -16 4 -28 9 -25 5 4 58 8 117 10
l108 3 35 68 c35 66 36 67 16 81 -13 10 -37 14 -73 12 -48 -3 -52 -1 -52 19 0
28 -58 61 -61 36z m134 -102 c4 -17 -1 -19 -39 -18 -36 0 -44 4 -44 19 0 27
76 26 83 -1z m-133 -11 c0 -15 -7 -20 -29 -20 -31 0 -47 13 -36 30 3 6 19 10
36 10 22 0 29 -5 29 -20z m-112 -12 c3 -15 -4 -18 -37 -18 -39 0 -53 14 -34
34 14 14 68 1 71 -16z m232 -30 c0 -25 -16 -37 -45 -34 -43 5 -46 33 -3 39 18
2 36 5 41 5 4 1 7 -4 7 -10z m-120 -12 c0 -20 -16 -36 -36 -36 -17 0 -24 6
-24 20 0 16 7 20 30 20 17 0 30 -2 30 -4z"/>
  <path d="M559 376 c-2 -2 -33 -6 -69 -10 -36 -3 -97 -8 -136 -12 l-71 -7 0
-52 c0 -70 -40 -154 -99 -211 -26 -24 -44 -44 -40 -44 22 0 103 69 129 111 45
74 59 66 57 -33 -2 -110 -2 -108 14 -108 17 0 148 81 141 88 -2 2 -22 -3 -45
-12 -66 -26 -69 -25 -67 53 l2 69 50 6 c28 3 96 9 153 13 56 3 102 10 102 14
0 19 -58 21 -179 5 -169 -21 -181 -21 -181 4 0 16 7 20 37 20 63 0 218 22 228
33 10 10 -85 5 -202 -9 -49 -6 -53 -5 -53 14 0 22 17 26 185 38 97 7 115 12
94 25 -15 9 -43 12 -50 5z"/>
  <path d="M598 177 l-27 -32 -40 23 c-41 22 -87 30 -76 12 3 -5 13 -10 22 -10
9 0 47 -26 85 -57 103 -86 116 -93 178 -93 93 0 89 14 -17 49 -54 18 -109 41
-122 51 l-23 20 47 20 c27 12 45 25 43 33 -8 24 -43 16 -70 -16z"/>
</g>
<g id="part-1" class="char-part">
  <path d="M480 561 l0 -69 -31 -4 c-35 -5 -38 -1 -41 62 -3 47 -11 60 -41 60
-13 0 -17 -5 -14 -17 3 -10 8 -39 12 -66 6 -47 6 -47 -24 -53 -17 -4 -31 -11
-31 -16 0 -5 16 -6 35 -2 31 5 35 4 35 -15 0 -14 6 -21 20 -21 13 0 20 7 20
19 0 11 9 21 23 25 34 9 37 8 37 -14 0 -11 7 -20 15 -20 8 0 15 7 15 15 0 18
31 35 64 35 14 0 26 5 26 10 0 6 -18 10 -40 10 -22 0 -40 3 -40 8 1 4 5 26 9
49 9 44 4 53 -31 66 -16 6 -18 -1 -18 -62z"/>
</g>
<g id="part-2" class="char-part">
  <path d="M490 554 c-36 -7 -109 -14 -162 -16 -54 -1 -98 -4 -98 -5 0 -2 9 -12
19 -22 10 -10 22 -37 26 -59 12 -71 14 -72 145 -56 63 8 133 13 155 12 l40 -3
35 68 c34 66 35 69 16 83 -24 17 -87 16 -176 -2z m120 -30 c0 -36 -24 -95 -36
-90 -7 3 -57 -2 -111 -9 -142 -21 -136 -22 -155 32 -9 26 -15 50 -12 55 3 4
29 8 57 9 29 1 77 4 107 9 102 14 150 12 150 -6z"/>
</g>
<g id="part-3" class="char-part">
  <path d="M455 364 c-60 -6 -125 -13 -144 -13 -32 -1 -33 -3 -28 -31 4 -18 -2
-56 -14 -96 -17 -54 -31 -77 -78 -125 -31 -33 -55 -59 -54 -59 2 0 20 9 41 19
66 34 122 113 146 204 8 33 17 61 19 63 2 3 58 9 123 14 66 6 130 13 144 16
23 6 24 7 5 14 -24 10 -22 10 -160 -6z"/>
</g>
<g id="part-4" class="char-part">
  <path d="M408 297 c-74 -9 -108 -27 -52 -27 53 0 219 23 228 31 12 11 -73 9
-176 -4z"/>
</g>
<g id="part-5" class="char-part">
  <path d="M626 202 c-4 -7 -4 -12 1 -12 4 0 -5 -9 -22 -21 -16 -11 -25 -19 -20
-17 6 2 25 10 43 17 17 7 32 17 32 23 0 5 -4 7 -9 4 -5 -4 -11 -1 -13 6 -3 9
-6 9 -12 0z"/>
  <path d="M346 192 c-4 -7 -9 -132 -7 -169 1 -16 36 -5 66 23 14 13 28 23 31
23 3 0 8 2 12 5 9 10 -18 7 -38 -4 -12 -6 -27 -6 -42 -1 -13 6 -18 10 -12 10
13 1 17 121 4 121 -5 0 -11 -4 -14 -8z"/>
  <path d="M526 149 c3 -6 27 -24 52 -40 25 -16 42 -29 36 -29 -5 0 11 -13 35
-29 27 -18 54 -28 70 -26 14 1 37 4 51 5 22 1 19 4 -18 20 -23 11 -50 16 -59
13 -11 -4 -14 -3 -9 5 4 7 0 13 -11 14 -10 0 -23 2 -30 2 -6 1 -20 9 -30 19
-11 9 -25 17 -32 17 -7 0 -10 4 -7 9 3 4 -6 13 -20 20 -31 14 -37 14 -28 0z"/>
</g>
</g>
</svg>