<?xml version="1.0" standalone="no"?>
<!DOCTYPE svg PUBLIC "-//W3C//DTD SVG 20010904//EN"
 "http://www.w3.org/TR/2001/REC-SVG-20010904/DTD/svg10.dtd">
<svg version="1.0" xmlns="http://www.w3.org/2000/svg"
 width="96.000000pt" height="68.000000pt" viewBox="0 0 96.000000 68.000000"
 preserveAspectRatio="xMidYMid meet">
<metadata>
Created by potrace 1.16, written by Peter Selinger 2001-2019
Combined from part_0.svg through part_5.svg with named groups
</metadata>
<g transform="translate(0.000000,68.000000) scale(0.100000,-0.100000)" fill="#000000" stroke="none">
<g id="part-0" class="char-part">
  <path d="M608 496 l4 -95 -43 -3 c-52 -4 -55 -23 -4 -22 19 0 35 -1 35 -4 0
-22 -80 -152 -117 -190 -18 -19 -16 -24 5 -13 21 11 84 79 100 107 21 37 25 3
14 -102 -9 -76 -9 -111 -1 -126 9 -17 13 -18 25 -7 9 10 14 51 15 151 1 76 5
135 9 133 4 -3 27 -38 51 -80 l43 -75 46 0 c26 0 50 3 53 7 4 3 -20 24 -53 46
-34 21 -73 55 -88 74 -15 19 -35 44 -44 55 -10 11 -15 24 -13 28 3 4 30 11 60
15 30 3 55 11 55 16 0 9 -9 10 -80 13 l-34 1 2 50 c2 28 5 57 8 67 4 14 -28
48 -46 48 -3 0 -4 -42 -2 -94z"/>
  <path d="M395 543 c3 -10 9 -40 12 -67 7 -56 -9 -76 -60 -76 -16 0 -26 -4 -22
-10 3 -5 22 -10 41 -10 19 0 34 -2 34 -4 0 -24 -81 -158 -117 -194 -18 -19
-16 -24 5 -13 19 10 76 72 100 107 11 16 12 1 7 -91 -5 -108 3 -151 24 -130
11 11 19 94 20 195 l1 65 24 -27 c23 -28 46 -37 46 -18 0 15 -38 50 -55 50
-10 0 -15 10 -15 34 0 31 3 34 35 40 43 8 46 26 5 26 -30 0 -30 0 -30 58 0 61
-11 82 -43 82 -14 0 -17 -5 -12 -17z"/>
  <path d="M210 464 c-25 -7 -57 -13 -72 -13 -16 -1 -28 -5 -28 -11 0 -9 18 -15
65 -22 16 -3 20 -11 20 -42 0 -36 -3 -40 -35 -51 l-35 -13 35 -3 c34 -4 35 -5
38 -55 l3 -50 -48 -15 c-51 -16 -65 -42 -25 -47 22 -3 169 84 159 95 -3 2 -15
0 -26 -7 -20 -10 -21 -8 -21 38 0 47 2 50 33 59 l32 11 -32 7 c-29 7 -32 10
-27 39 9 51 12 56 38 56 32 0 42 16 17 29 -23 13 -32 12 -91 -5z"/>
</g>
<g id="part-1" class="char-part">
  <path d="M188 456 c-87 -17 -83 -29 7 -23 84 5 115 13 115 28 0 11 -49 10
-122 -5z"/>
</g>
<g id="part-2" class="char-part">
  <path d="M198 385 c5 -47 6 -45 -53 -61 -29 -8 -29 -8 13 -12 l43 -3 -3 -52
-3 -52 -50 -16 c-55 -17 -62 -29 -22 -43 22 -8 37 -2 106 44 45 29 81 54 81
56 0 3 -16 -2 -36 -11 l-35 -14 3 46 c3 43 6 47 38 58 l35 12 -35 7 c-34 7
-35 9 -32 47 4 37 3 39 -26 39 -29 0 -29 -1 -24 -45z"/>
</g>
<g id="part-3" class="char-part">
  <path d="M395 543 c4 -10 9 -43 12 -74 5 -53 4 -56 -18 -62 -13 -4 -34 -7 -47
-7 -13 0 -20 -4 -17 -10 3 -5 22 -10 41 -10 19 0 34 -2 34 -5 0 -14 -52 -106
-82 -146 -52 -68 -55 -73 -27 -59 22 13 58 50 92 99 18 26 18 25 13 -84 -4
-66 -3 -116 3 -125 21 -31 32 8 38 130 l6 123 19 -27 c21 -28 48 -35 48 -13 0
16 -27 41 -52 50 -26 9 -25 67 1 67 26 0 51 10 51 21 0 5 -13 9 -30 9 -30 0
-30 0 -30 58 0 61 -11 82 -43 82 -14 0 -17 -5 -12 -17z"/>
</g>
<g id="part-4" class="char-part">
  <path d="M608 500 c5 -98 8 -93 -63 -105 -38 -7 -39 -8 -15 -17 13 -5 35 -6
47 -3 13 3 23 3 23 1 0 -19 -46 -102 -85 -156 -47 -63 -48 -64 -14 -39 19 14
50 47 69 73 l35 46 3 -31 c2 -18 -2 -70 -8 -115 -8 -61 -8 -89 0 -105 9 -16
14 -18 25 -9 11 9 15 48 17 159 l3 146 39 -70 c56 -101 61 -105 118 -105 26 0
48 3 48 8 0 4 -25 22 -56 41 -53 33 -139 121 -146 150 -2 10 14 18 57 26 57
11 59 12 33 23 -18 7 -37 8 -59 2 l-32 -9 5 75 c5 68 3 76 -16 89 -11 8 -23
15 -27 15 -4 0 -4 -40 -1 -90z"/>
</g>
</g>
</svg>