<?xml version="1.0" standalone="no"?>
<!DOCTYPE svg PUBLIC "-//W3C//DTD SVG 20010904//EN"
 "http://www.w3.org/TR/2001/REC-SVG-20010904/DTD/svg10.dtd">
<svg version="1.0" xmlns="http://www.w3.org/2000/svg"
 width="96.000000pt" height="68.000000pt" viewBox="0 0 96.000000 68.000000"
 preserveAspectRatio="xMidYMid meet">
<metadata>
Created by potrace 1.16, written by Peter Selinger 2001-2019
Combined from part_0.svg through part_5.svg with named groups
</metadata>
<g transform="translate(0.000000,68.000000) scale(0.100000,-0.100000)" fill="#000000" stroke="none">
<g id="part-0" class="char-part">
  <path d="M425 601 c4 -26 2 -41 -5 -46 -7 -4 -48 -8 -92 -8 -72 0 -77 -1 -64
-16 8 -9 22 -35 31 -58 l17 -42 57 6 c53 5 58 4 64 -16 4 -18 1 -21 -29 -21
-19 0 -34 -4 -34 -9 0 -5 -8 -8 -17 -6 -10 2 -38 6 -61 9 l-44 4 21 -22 c11
-12 24 -40 29 -61 7 -32 12 -39 28 -36 10 2 40 5 67 8 40 4 46 3 41 -11 -4
-11 -1 -16 10 -16 9 0 16 6 16 14 0 17 43 26 122 26 49 0 59 3 54 15 -3 8 6
28 21 45 14 17 24 32 22 34 -24 21 -57 26 -130 20 -76 -7 -82 -6 -76 10 4 10
7 20 7 22 0 2 17 4 39 4 62 0 103 11 97 26 -3 7 6 22 19 33 52 40 14 66 -85
58 l-66 -6 4 31 c5 33 -9 48 -46 48 -22 0 -23 -3 -17 -39z m145 -80 c0 -24 -4
-26 -52 -35 -36 -6 -38 -5 -38 18 0 26 13 33 63 35 20 1 27 -4 27 -18z m-140
-21 c0 -29 -2 -30 -44 -30 -31 0 -46 5 -50 16 -4 9 -4 19 -1 22 4 4 50 15 88
21 4 0 7 -12 7 -29z m165 -137 c-9 -36 -20 -43 -78 -43 l-48 0 3 35 2 35 64 0
64 0 -7 -27z m-165 -17 c0 -33 -1 -34 -46 -38 -37 -3 -49 1 -60 17 -28 40 -19
46 84 53 19 2 22 -3 22 -32z"/>
  <path d="M654 249 c-3 -5 -2 -9 3 -9 4 0 22 -12 38 -26 61 -53 74 -59 93 -41
15 16 15 18 -4 37 -22 22 -122 52 -130 39z"/>
  <path d="M420 231 c0 -12 65 -71 78 -71 17 0 15 35 -2 49 -18 15 -76 32 -76
22z"/>
  <path d="M178 176 c-31 -48 -36 -81 -14 -89 25 -10 59 39 60 84 1 23 -3 43 -9
45 -5 2 -22 -16 -37 -40z"/>
  <path d="M300 216 c0 -3 5 -18 12 -33 42 -97 110 -134 250 -135 98 -1 174 19
166 44 -3 7 -28 28 -57 46 l-53 34 4 -32 c4 -41 -12 -50 -97 -50 -92 0 -151
28 -180 84 -18 34 -45 60 -45 42z"/>
</g>
<g id="part-1" class="char-part">
  <path d="M428 634 c-3 -3 -4 -23 -1 -44 5 -38 5 -39 -32 -46 -20 -3 -59 -4
-87 -1 -47 6 -50 5 -36 -11 9 -9 21 -34 27 -54 7 -21 16 -40 19 -42 4 -2 30 0
57 5 33 6 51 6 53 -1 5 -13 39 -13 44 0 2 5 35 12 75 16 48 5 70 11 67 18 -3
7 7 23 21 36 14 13 25 27 25 31 0 16 -65 28 -122 22 l-61 -6 6 32 c6 28 3 33
-19 41 -30 12 -29 12 -36 4z m146 -116 c-9 -31 -7 -30 -59 -35 -46 -6 -49 -4
-39 35 6 19 13 22 56 22 47 0 49 -1 42 -22z m-144 -17 c0 -24 -5 -31 -29 -36
-48 -10 -71 2 -71 37 0 16 19 23 78 27 18 1 22 -4 22 -28z"/>
</g>
<g id="part-2" class="char-part">
  <path d="M430 416 c0 -16 -124 -32 -162 -21 -23 8 -23 7 -5 -13 10 -11 24 -40
32 -64 10 -33 17 -42 31 -40 98 15 101 15 107 -8 6 -23 27 -19 27 4 0 14 62
26 136 26 34 0 42 3 38 15 -4 8 7 26 26 43 l31 29 -26 17 c-22 14 -40 16 -110
10 -61 -5 -85 -4 -85 5 0 6 -9 11 -20 11 -11 0 -20 -6 -20 -14z m165 -53 c-9
-37 -7 -36 -70 -41 l-55 -4 0 36 0 36 66 0 66 0 -7 -27z m-165 -18 l0 -35 -50
0 c-45 0 -52 3 -60 26 -6 14 -10 27 -10 29 0 2 17 6 38 8 86 9 82 10 82 -28z"/>
</g>
<g id="part-3" class="char-part">
  <path d="M705 206 c53 -48 79 -56 89 -30 8 22 9 20 -21 42 -16 11 -48 23 -73
26 l-45 7 50 -45z"/>
  <path d="M181 182 c-42 -65 -40 -113 2 -96 33 12 63 123 38 138 -5 3 -23 -16
-40 -42z"/>
  <path d="M420 221 c0 -11 65 -61 79 -61 18 0 13 42 -6 56 -20 15 -73 19 -73 5z"/>
  <path d="M300 210 c0 -25 42 -90 72 -113 50 -37 104 -50 203 -50 65 0 99 4
123 17 37 19 39 27 15 48 -18 14 -91 58 -98 58 -2 0 0 -14 5 -30 11 -39 -8
-50 -92 -50 -86 0 -152 31 -182 84 -22 39 -46 58 -46 36z"/>
</g>
</g>
</svg>