<?xml version="1.0" standalone="no"?>
<!DOCTYPE svg PUBLIC "-//W3C//DTD SVG 20010904//EN"
 "http://www.w3.org/TR/2001/REC-SVG-20010904/DTD/svg10.dtd">
<svg version="1.0" xmlns="http://www.w3.org/2000/svg"
 width="96.000000pt" height="68.000000pt" viewBox="0 0 96.000000 68.000000"
 preserveAspectRatio="xMidYMid meet">
<metadata>
Created by potrace 1.16, written by Peter Selinger 2001-2019
Combined from part_0.svg through part_5.svg with named groups
</metadata>
<g transform="translate(0.000000,68.000000) scale(0.100000,-0.100000)" fill="#000000" stroke="none">
<g id="part-0" class="char-part">
  <path d="M605 579 c-22 -4 -122 -11 -221 -15 l-182 -7 11 -36 c11 -42 3 -274
-14 -350 -9 -44 -8 -56 6 -77 15 -23 18 -24 33 -10 14 12 58 16 209 22 l192 7
12 -27 c13 -28 46 -35 67 -14 9 9 12 72 12 222 0 116 4 217 9 225 5 8 7 20 4
27 -4 12 -75 45 -91 43 -4 -1 -25 -5 -47 -10z m45 -49 c12 -8 15 -40 15 -192
l0 -183 -45 0 c-25 -1 -116 -5 -202 -9 l-158 -8 0 69 c0 39 3 124 6 190 l7
121 71 7 c81 8 96 -2 96 -66 l0 -36 -62 -9 -63 -9 58 -3 c31 -2 57 -7 57 -12
0 -16 -80 -109 -110 -126 -16 -10 -30 -22 -30 -27 0 -15 81 37 111 70 35 41
44 28 29 -42 -9 -41 -8 -59 1 -76 11 -22 12 -22 25 -4 8 11 14 44 14 82 0 35
2 63 5 63 3 0 28 -16 56 -35 59 -40 82 -45 77 -14 -4 24 -36 44 -96 59 -39 10
-43 14 -40 38 3 25 8 28 57 34 29 3 58 12 65 18 9 10 -3 11 -56 7 l-67 -6 6
32 c3 18 7 34 9 36 9 10 -19 29 -34 24 -15 -4 -15 -3 -2 6 18 13 179 14 200 1z"/>
</g>
<g id="part-1" class="char-part">
  <path d="M545 569 c-38 -5 -128 -10 -200 -11 l-130 -3 4 -140 c2 -82 -2 -169
-9 -212 -7 -39 -10 -83 -6 -97 6 -26 31 -36 38 -15 2 7 74 14 193 20 l190 10
26 -30 c31 -37 44 -39 64 -7 14 21 16 54 13 213 -2 103 1 202 5 220 8 29 6 33
-22 47 -33 17 -59 18 -166 5z m115 -45 c14 -35 23 -312 12 -349 -8 -29 -11
-30 -58 -27 -27 2 -116 -2 -198 -8 -83 -5 -153 -7 -157 -3 -10 10 4 369 14
379 8 8 227 31 320 33 53 1 58 -1 67 -25z"/>
</g>
<g id="part-2" class="char-part">
  <path d="M426 522 c-2 -4 -1 -14 5 -22 5 -8 9 -30 9 -47 0 -31 -2 -33 -37 -34
-21 -1 -51 -5 -68 -9 -25 -6 -20 -8 27 -9 31 0 59 -5 62 -10 8 -12 -63 -97
-108 -128 -20 -15 -34 -28 -32 -30 9 -9 73 31 114 71 40 38 43 39 38 16 -21
-103 -12 -166 20 -139 10 8 14 33 14 80 0 38 2 69 5 69 3 0 27 -16 54 -35 54
-39 81 -44 81 -16 0 27 -23 42 -83 56 -45 10 -52 15 -55 37 -3 28 -4 28 90 44
62 10 33 27 -34 20 -64 -6 -61 -10 -43 51 4 16 0 25 -14 32 -23 13 -38 14 -45
3z"/>
</g>
</g>
</svg>