<?xml version="1.0" standalone="no"?>
<!DOCTYPE svg PUBLIC "-//W3C//DTD SVG 20010904//EN"
 "http://www.w3.org/TR/2001/REC-SVG-20010904/DTD/svg10.dtd">
<svg version="1.0" xmlns="http://www.w3.org/2000/svg"
 width="96.000000pt" height="68.000000pt" viewBox="0 0 96.000000 68.000000"
 preserveAspectRatio="xMidYMid meet">
<metadata>
Created by potrace 1.16, written by Peter Selinger 2001-2019
Combined from part_0.svg through part_5.svg with named groups
</metadata>
<g transform="translate(0.000000,68.000000) scale(0.100000,-0.100000)" fill="#000000" stroke="none">
<g id="part-0" class="char-part">
  <path d="M647 556 c8 -68 -5 -116 -39 -148 -42 -40 -9 -37 36 3 l36 31 26 -21
c32 -26 57 -27 52 -4 -2 11 -18 21 -41 26 -34 8 -38 12 -33 36 3 14 6 46 8 71
3 42 1 45 -23 48 -26 3 -27 2 -22 -42z"/>
  <path d="M467 584 c-3 -3 -2 -24 0 -48 6 -47 -10 -111 -35 -139 -30 -34 -3
-28 33 8 l36 37 23 -21 c24 -23 46 -28 46 -10 0 5 -16 17 -35 25 -43 18 -44
30 -4 52 58 32 65 39 52 53 -10 10 -19 7 -43 -16 l-30 -29 0 41 c0 32 -4 42
-19 46 -11 3 -22 3 -24 1z"/>
  <path d="M726 534 c-15 -14 -27 -27 -24 -29 2 -2 25 3 51 12 38 13 45 18 36
29 -16 20 -30 17 -63 -12z"/>
  <path d="M206 523 c13 -26 17 -243 5 -243 -5 0 -17 -3 -27 -7 -15 -6 -16 -1
-12 41 6 51 -8 76 -41 76 -15 0 -18 -8 -17 -42 0 -24 -2 -55 -6 -69 -5 -17 -3
-33 6 -45 14 -18 16 -18 63 -1 65 23 143 33 143 18 0 -6 8 -11 19 -11 15 0 21
14 33 78 16 83 13 92 -31 92 -17 0 -22 -4 -17 -15 3 -9 3 -36 -1 -60 -5 -39
-9 -45 -29 -45 -27 0 -28 12 -15 155 8 89 5 95 -48 95 -28 0 -32 -3 -25 -17z"/>
  <path d="M400 483 c1 -11 26 -43 34 -43 16 0 0 45 -16 48 -10 2 -18 0 -18 -5z"/>
  <path d="M570 483 c0 -13 22 -33 37 -33 7 0 13 7 13 15 0 8 -4 15 -9 15 -5 0
-16 3 -25 6 -9 3 -16 2 -16 -3z"/>
  <path d="M661 359 c-24 -4 -89 -11 -144 -13 l-101 -5 -17 -34 c-12 -22 -14
-38 -8 -48 8 -12 12 -11 24 5 8 11 15 28 15 38 0 14 8 18 33 18 18 0 58 4 88
9 96 17 201 21 196 8 -20 -50 -21 -51 -4 -44 8 3 32 9 51 13 47 8 52 18 20 43
-29 23 -74 26 -153 10z"/>
  <path d="M559 313 c-1 -5 0 -23 1 -40 1 -30 -1 -33 -27 -33 -50 0 -103 -12
-97 -22 3 -5 25 -8 48 -7 62 4 53 -12 -74 -120 l-25 -22 38 15 c42 17 87 46
107 71 23 28 30 16 30 -54 0 -49 4 -72 15 -81 23 -19 29 -6 35 80 l5 80 49
-45 c45 -42 52 -45 102 -45 30 0 54 4 54 9 0 4 -21 14 -47 21 -56 16 -163 79
-163 97 0 8 23 13 68 15 85 4 81 23 -5 22 l-63 -1 0 34 c0 29 -3 33 -25 33
-14 0 -25 -3 -26 -7z"/>
</g>
<g id="part-1" class="char-part">
  <path d="M218 405 l4 -135 -31 0 c-30 0 -30 0 -28 53 2 46 0 52 -19 55 -19 3
-22 -3 -27 -64 -7 -75 3 -100 33 -84 15 8 148 40 166 40 2 0 4 -7 4 -15 0 -31
29 -14 39 23 27 108 24 131 -19 132 -12 0 -14 -11 -12 -50 4 -57 -8 -80 -44
-80 -20 0 -22 4 -19 33 2 17 7 73 9 123 5 89 5 92 -17 98 -12 3 -26 6 -32 6
-6 0 -9 -49 -7 -135z"/>
</g>
<g id="part-2" class="char-part">
  <path d="M466 546 c9 -61 -2 -110 -32 -146 -36 -42 -10 -38 33 5 l36 36 22
-21 c23 -22 45 -26 45 -9 0 5 -16 17 -35 25 -41 17 -44 28 -10 49 86 52 80 46
60 61 -17 12 -22 10 -47 -19 l-28 -32 2 39 c2 31 -1 41 -17 47 -33 13 -35 11
-29 -35z"/>
  <path d="M400 485 c0 -14 21 -45 31 -45 18 0 5 45 -13 48 -10 2 -18 1 -18 -3z"/>
</g>
<g id="part-3" class="char-part">
  <path d="M647 566 c9 -55 -5 -121 -32 -151 -44 -47 -23 -50 30 -4 l36 32 23
-22 c12 -11 32 -21 44 -21 45 0 16 36 -37 46 -22 5 -30 11 -27 21 4 8 6 18 6
22 0 4 25 15 56 25 46 14 53 20 43 32 -15 18 -45 18 -52 0 -3 -8 -16 -20 -27
-26 -21 -11 -22 -10 -18 32 3 40 1 43 -24 46 -26 3 -27 2 -21 -32z"/>
  <path d="M570 482 c0 -12 23 -32 37 -32 18 0 16 27 -3 34 -21 8 -34 8 -34 -2z"/>
</g>
<g id="part-4" class="char-part">
  <path d="M560 281 c0 -40 -1 -41 -37 -42 -21 -1 -51 -5 -68 -9 -25 -6 -27 -8
-12 -15 10 -4 33 -5 52 -2 22 4 35 2 35 -5 0 -11 -68 -74 -124 -115 -16 -13
-24 -23 -18 -23 22 0 87 37 127 73 22 20 42 34 45 32 4 -2 5 -32 3 -67 -2 -45
1 -70 12 -83 24 -33 37 -1 32 83 -2 39 -2 72 1 72 2 0 27 -20 54 -45 47 -42
54 -45 106 -45 30 0 52 3 49 7 -4 3 -36 18 -71 33 -65 28 -136 75 -136 91 0 5
28 9 63 9 72 0 107 14 63 26 -15 3 -50 4 -76 1 l-49 -6 -3 32 c-2 24 -8 33
-25 35 -21 3 -23 -1 -23 -37z"/>
</g>
</g>
</svg>