<?xml version="1.0" standalone="no"?>
<!DOCTYPE svg PUBLIC "-//W3C//DTD SVG 20010904//EN"
 "http://www.w3.org/TR/2001/REC-SVG-20010904/DTD/svg10.dtd">
<svg version="1.0" xmlns="http://www.w3.org/2000/svg"
 width="96.000000pt" height="68.000000pt" viewBox="0 0 96.000000 68.000000"
 preserveAspectRatio="xMidYMid meet">
<metadata>
Created by potrace 1.16, written by Peter Selinger 2001-2019
Combined from part_0.svg through part_5.svg with named groups
</metadata>
<g transform="translate(0.000000,68.000000) scale(0.100000,-0.100000)" fill="#000000" stroke="none">
<g id="part-0" class="char-part">
  <path d="M530 580 c9 -16 23 -83 45 -212 4 -23 0 -28 -30 -38 -46 -15 -44 -27
3 -26 20 1 39 -3 41 -9 2 -5 12 -32 22 -58 11 -26 19 -53 19 -60 0 -7 -27 -29
-61 -50 -34 -21 -59 -41 -56 -43 3 -3 34 9 71 26 l66 31 32 -37 c18 -20 35
-40 38 -44 13 -19 78 -50 104 -50 25 0 28 3 22 23 -3 12 -9 41 -12 65 -8 51
-19 54 -28 7 -4 -19 -9 -35 -11 -35 -20 0 -59 30 -80 62 -26 39 -26 40 -8 61
10 12 20 24 24 27 3 3 17 22 33 42 l27 37 -25 16 c-29 19 -46 13 -46 -17 0
-26 -31 -78 -47 -78 -16 0 -44 92 -32 104 5 6 23 15 41 20 17 6 34 17 36 25 4
11 -3 12 -32 7 -21 -4 -43 -9 -50 -12 -17 -6 -25 35 -27 136 -2 82 -12 99 -62
100 -24 0 -26 -2 -17 -20z"/>
  <path d="M335 545 c-22 -7 -54 -14 -72 -14 -81 -2 -85 -31 -4 -31 94 0 200 26
180 44 -13 12 -69 12 -104 1z"/>
  <path d="M405 480 c-4 -17 -18 -44 -32 -61 -39 -45 -19 -58 53 -33 44 14 58
16 61 7 7 -20 33 -15 33 5 0 21 -18 42 -37 42 -7 0 -13 -6 -13 -14 0 -14 -39
-30 -49 -20 -3 3 3 19 12 37 19 34 14 67 -8 67 -7 0 -16 -14 -20 -30z"/>
  <path d="M666 493 c-11 -11 36 -53 61 -53 25 0 31 21 11 37 -18 14 -64 24 -72
16z"/>
  <path d="M208 442 c-9 -20 -27 -49 -40 -65 -17 -21 -19 -30 -10 -39 9 -9 17
-9 34 0 13 6 43 17 67 24 35 10 45 10 49 0 5 -17 22 -5 22 16 0 9 -11 22 -25
28 -27 13 -40 7 -24 -12 7 -9 2 -14 -21 -19 -17 -4 -33 -5 -36 -3 -2 3 6 24
18 47 20 36 21 43 8 51 -22 14 -23 13 -42 -28z"/>
  <path d="M238 317 c-135 -20 -161 -29 -115 -40 24 -7 57 -3 158 18 37 8 96 17
133 21 37 4 69 11 72 15 8 14 -101 8 -248 -14z"/>
  <path d="M336 270 c-16 -5 -51 -10 -77 -11 l-47 -3 5 -90 c6 -95 14 -119 35
-98 7 7 39 12 74 12 54 0 64 -3 69 -20 9 -28 29 -25 43 5 16 35 16 187 0 203
-14 14 -59 14 -102 2z m64 -49 c0 -28 -2 -28 -66 -35 -37 -4 -68 -5 -70 -3 -2
2 -5 14 -6 27 -3 28 20 37 95 39 45 1 47 0 47 -28z m7 -71 c5 -28 -12 -37 -79
-44 l-68 -8 0 31 c0 26 4 30 33 34 63 8 112 3 114 -13z"/>
</g>
<g id="part-1" class="char-part">
  <path d="M310 535 c-30 -7 -67 -14 -82 -14 -16 -1 -28 -5 -28 -11 0 -23 220 4
228 28 5 15 -42 14 -118 -3z"/>
</g>
<g id="part-2" class="char-part">
  <path d="M335 270 c-16 -4 -54 -8 -84 -9 -47 -1 -52 -3 -45 -18 4 -10 9 -52
12 -93 4 -79 14 -102 34 -82 7 7 38 12 70 12 47 0 59 -4 68 -20 13 -24 23 -25
44 -4 20 19 23 193 4 212 -13 13 -56 14 -103 2z m65 -50 c0 -27 -3 -30 -32
-30 -18 0 -50 -3 -70 -6 -37 -6 -38 -6 -38 24 0 34 9 38 93 41 46 1 47 0 47
-29z m8 -78 c4 -26 -2 -28 -85 -37 l-63 -6 0 30 c0 28 3 30 43 34 82 8 102 4
105 -21z"/>
</g>
<g id="part-3" class="char-part">
  <path d="M531 573 c10 -24 49 -205 49 -225 0 -3 -19 -13 -42 -21 l-43 -15 46
-1 46 -1 25 -70 25 -70 -71 -46 c-74 -47 -59 -51 33 -7 32 15 56 22 60 16 41
-64 120 -123 163 -123 28 0 29 1 22 32 -4 18 -10 51 -14 73 l-6 40 -14 -42
c-7 -24 -16 -43 -20 -43 -13 0 -59 40 -80 71 l-22 29 51 61 c28 33 51 64 51
68 0 8 -45 31 -60 31 -6 0 -10 -13 -10 -28 0 -31 -44 -99 -54 -83 -8 12 -36
104 -33 106 1 1 24 10 50 19 34 13 46 21 38 29 -7 7 -23 7 -52 -2 -22 -7 -44
-10 -47 -6 -4 3 -8 52 -10 108 -4 111 -12 127 -64 127 -26 0 -27 -1 -17 -27z"/>
  <path d="M660 491 c0 -16 47 -51 68 -51 24 0 29 22 10 37 -17 14 -78 25 -78
14z"/>
</g>
</g>
</svg>