<?xml version="1.0" standalone="no"?>
<!DOCTYPE svg PUBLIC "-//W3C//DTD SVG 20010904//EN"
 "http://www.w3.org/TR/2001/REC-SVG-20010904/DTD/svg10.dtd">
<svg version="1.0" xmlns="http://www.w3.org/2000/svg"
 width="96.000000pt" height="68.000000pt" viewBox="0 0 96.000000 68.000000"
 preserveAspectRatio="xMidYMid meet">
<metadata>
Created by potrace 1.16, written by Peter Selinger 2001-2019
Combined from part_0.svg through part_5.svg with named groups
</metadata>
<g transform="translate(0.000000,68.000000) scale(0.100000,-0.100000)" fill="#000000" stroke="none">
<g id="part-0" class="char-part">
  <path d="M281 583 c-7 -20 -44 -67 -81 -105 -51 -51 -63 -68 -48 -68 26 0 55
17 93 51 16 16 33 29 37 29 4 0 24 21 44 46 l38 46 -23 19 c-33 27 -45 24 -60
-18z"/>
  <path d="M550 573 c0 -4 11 -25 25 -45 14 -20 25 -39 25 -41 0 -3 -30 -8 -67
-11 -38 -4 -83 -10 -102 -13 -61 -10 -7 -26 64 -18 l64 6 -11 -37 c-14 -53
-47 -102 -122 -180 -36 -37 -63 -70 -61 -73 16 -15 172 125 200 180 14 26 21
30 42 24 14 -3 39 -9 55 -12 37 -7 43 -22 28 -70 -41 -128 -70 -160 -120 -133
-32 17 -34 7 -8 -34 27 -42 52 -46 89 -13 30 26 69 88 69 109 0 8 11 37 25 64
14 27 25 56 25 66 0 20 -49 38 -104 38 -52 0 -61 7 -62 47 l-1 31 86 7 c47 3
102 10 121 14 l35 8 -29 12 c-22 9 -47 9 -97 1 -37 -5 -70 -10 -73 -10 -3 0
-6 11 -6 23 0 13 -8 31 -17 40 -21 18 -73 33 -73 20z"/>
  <path d="M312 438 c-27 -51 -101 -133 -156 -174 -60 -44 -24 -40 45 6 41 27
65 38 72 31 7 -7 6 -39 -2 -98 -7 -49 -9 -96 -5 -106 8 -22 31 -22 38 1 8 27
10 215 2 233 -4 10 7 31 34 61 45 52 48 63 21 78 -26 13 -23 16 -49 -32z"/>
</g>
<g id="part-1" class="char-part">
  <path d="M284 578 c-10 -24 -45 -71 -78 -105 -32 -35 -54 -63 -49 -63 26 0
163 113 185 153 7 14 5 23 -8 38 -24 27 -28 25 -50 -23z"/>
</g>
<g id="part-2" class="char-part">
  <path d="M319 448 c-16 -39 -138 -169 -186 -199 -19 -12 -32 -24 -29 -26 7 -8
93 36 126 64 43 36 53 23 45 -55 -4 -36 -10 -75 -15 -86 -5 -13 -2 -32 6 -48
30 -58 40 -30 47 130 3 51 1 95 -4 98 -15 9 -11 17 35 69 42 46 44 51 29 67
-24 26 -39 22 -54 -14z"/>
</g>
<g id="part-3" class="char-part">
  <path d="M550 571 c0 -4 11 -24 25 -44 13 -20 21 -38 17 -41 -4 -2 -41 -8 -82
-12 -41 -4 -84 -10 -95 -14 -42 -16 35 -23 123 -11 48 6 136 16 196 21 60 6
111 12 113 14 2 2 -10 9 -26 16 -22 9 -46 9 -100 1 -91 -14 -89 -15 -84 13 4
17 -3 29 -22 45 -28 21 -65 28 -65 12z"/>
</g>
<g id="part-4" class="char-part">
  <path d="M563 453 c-7 -2 -13 -14 -13 -26 0 -42 -44 -110 -124 -191 -45 -46
-75 -81 -66 -78 36 13 138 93 165 132 17 23 40 54 51 68 29 37 38 70 24 87
-13 16 -17 17 -37 8z"/>
</g>
<g id="part-5" class="char-part">
  <path d="M615 370 c11 -5 29 -9 41 -9 22 -1 76 -41 55 -41 -8 0 -10 -8 -6 -21
5 -16 4 -19 -5 -14 -10 6 -11 1 -6 -19 4 -18 3 -25 -4 -21 -5 3 -10 -2 -10
-12 0 -10 -7 -26 -15 -36 -14 -20 -10 -51 6 -41 5 3 6 -2 2 -12 -5 -15 -7 -15
-15 0 -5 9 -14 14 -19 11 -5 -4 -7 -10 -5 -14 3 -4 -9 -7 -27 -6 -46 3 -52 -4
-26 -31 20 -21 24 -22 50 -9 34 18 73 71 65 90 -3 8 -2 15 3 15 10 0 44 80 37
87 -2 3 4 13 15 24 25 25 15 47 -24 53 -74 12 -132 15 -112 6z"/>
</g>
</g>
</svg>