<?xml version="1.0" standalone="no"?>
<!DOCTYPE svg PUBLIC "-//W3C//DTD SVG 20010904//EN"
 "http://www.w3.org/TR/2001/REC-SVG-20010904/DTD/svg10.dtd">
<svg version="1.0" xmlns="http://www.w3.org/2000/svg"
 width="96.000000pt" height="68.000000pt" viewBox="0 0 96.000000 68.000000"
 preserveAspectRatio="xMidYMid meet">
<metadata>
Created by potrace 1.16, written by Peter Selinger 2001-2019
Combined from part_0.svg through part_5.svg with named groups
</metadata>
<g transform="translate(0.000000,68.000000) scale(0.100000,-0.100000)" fill="#000000" stroke="none">
<g id="part-0" class="char-part">
  <path d="M568 585 c-3 -4 -281 -39 -347 -45 -2 0 2 -7 9 -15 18 -22 122 -18
296 10 l32 5 4 -147 c4 -121 9 -158 26 -203 38 -96 95 -140 181 -140 76 0 86
15 51 79 -11 20 -25 50 -31 66 l-12 30 -10 -45 c-5 -25 -11 -51 -13 -58 -13
-43 -103 39 -124 114 -20 70 -17 190 5 239 10 22 19 43 19 47 1 3 4 10 9 14
15 16 6 32 -24 43 -34 12 -63 14 -71 6z"/>
  <path d="M320 435 c-30 -8 -67 -14 -82 -15 -47 0 -31 -19 20 -22 45 -3 47 -4
50 -35 l3 -33 -64 0 -65 0 24 -57 c24 -61 26 -62 98 -50 5 1 11 -17 13 -40 l4
-41 -51 -11 c-28 -6 -79 -11 -113 -11 l-62 -1 28 -24 c33 -29 43 -30 97 -9 21
9 88 28 147 44 l107 27 24 -28 c27 -33 37 -36 46 -13 9 22 -10 52 -47 74 -40
25 -56 25 -50 1 3 -14 -2 -20 -24 -24 -15 -3 -36 -9 -45 -12 -15 -6 -18 -1
-18 33 0 46 9 52 77 52 37 0 44 3 39 16 -3 9 3 29 15 45 17 25 19 32 8 45 -10
12 -25 14 -71 9 l-58 -7 0 35 c0 34 1 35 50 41 29 4 48 11 45 16 -9 14 -79 11
-145 -5z m120 -122 c0 -29 -14 -42 -48 -49 -30 -6 -32 -5 -32 23 0 38 6 43 47
43 25 0 33 -4 33 -17z m-125 -32 c-1 -30 -4 -35 -29 -38 -32 -4 -46 9 -46 44
0 15 7 23 23 26 43 9 52 3 52 -32z"/>
</g>
<g id="part-1" class="char-part">
  <path d="M539 576 c-4 -4 -271 -36 -301 -36 -8 0 -6 -6 5 -17 16 -16 25 -16
155 0 195 24 176 32 169 -70 -12 -172 24 -311 95 -363 24 -18 49 -25 93 -28
84 -4 92 4 61 63 -15 26 -26 54 -26 61 0 30 -17 11 -26 -29 -11 -52 -38 -59
-82 -22 -48 40 -67 103 -67 220 0 89 3 107 26 152 l27 51 -25 11 c-23 11 -95
15 -104 7z"/>
</g>
<g id="part-2" class="char-part">
  <path d="M292 430 c-98 -21 -113 -30 -46 -30 63 0 224 29 224 41 0 14 -85 8
-178 -11z"/>
</g>
<g id="part-3" class="char-part">
  <path d="M323 402 c-6 -4 -13 -21 -15 -37 -3 -30 -4 -30 -71 -33 -60 -3 -66
-5 -53 -18 9 -8 20 -33 26 -54 11 -41 15 -43 64 -40 31 2 46 -13 46 -47 0 -16
6 -23 20 -23 17 0 20 7 20 39 0 43 12 51 84 51 31 0 37 3 32 16 -3 9 3 29 15
45 17 25 19 32 8 45 -11 13 -25 15 -70 10 -57 -7 -58 -7 -61 21 -3 28 -23 39
-45 25z m112 -99 c-8 -34 -5 -32 -43 -39 -30 -6 -32 -5 -32 23 0 38 6 43 48
43 32 0 34 -1 27 -27z m-125 -17 c0 -28 -4 -35 -27 -40 -29 -8 -43 5 -43 41 0
20 11 27 58 32 7 0 12 -12 12 -33z"/>
</g>
<g id="part-4" class="char-part">
  <path d="M470 164 c34 -49 55 -63 72 -46 14 14 -7 49 -45 72 -52 32 -61 24
-27 -26z"/>
</g>
</g>
</svg>