<?xml version="1.0" standalone="no"?>
<!DOCTYPE svg PUBLIC "-//W3C//DTD SVG 20010904//EN"
 "http://www.w3.org/TR/2001/REC-SVG-20010904/DTD/svg10.dtd">
<svg version="1.0" xmlns="http://www.w3.org/2000/svg"
 width="96.000000pt" height="68.000000pt" viewBox="0 0 96.000000 68.000000"
 preserveAspectRatio="xMidYMid meet">
<metadata>
Created by potrace 1.16, written by Peter Selinger 2001-2019
Combined from part_0.svg through part_5.svg with named groups
</metadata>
<g transform="translate(0.000000,68.000000) scale(0.100000,-0.100000)" fill="#000000" stroke="none">
<g id="part-0" class="char-part">
  <path d="M525 599 c4 -12 15 -60 24 -108 19 -96 19 -97 -45 -101 -47 -3 -51
-1 -46 28 3 22 -1 30 -20 39 -22 10 -22 10 15 22 20 7 37 18 37 26 0 18 -43
28 -55 12 -5 -8 -30 -28 -54 -45 -47 -34 -48 -38 -7 -22 23 9 26 7 36 -28 5
-20 10 -40 10 -43 0 -4 -23 -10 -52 -13 -59 -8 -49 -26 15 -26 36 0 37 -1 37
-39 0 -39 -1 -40 -52 -59 -29 -11 -70 -25 -90 -31 -43 -14 -46 -21 -18 -38 22
-15 37 -10 101 29 25 15 49 28 53 28 9 0 7 -93 -3 -109 -6 -10 -19 -12 -42 -7
l-34 6 34 -30 c18 -17 40 -30 47 -30 28 0 44 43 44 120 l0 76 38 19 c20 10 32
20 25 22 -7 2 -22 -1 -34 -7 -28 -16 -41 -2 -33 37 5 26 12 32 44 37 21 3 45
9 53 12 12 4 20 -7 32 -48 8 -29 18 -69 21 -88 5 -33 3 -37 -33 -54 -21 -10
-32 -21 -26 -23 7 -3 27 3 44 11 41 20 46 20 53 -2 16 -51 128 -142 174 -142
19 0 22 5 21 43 0 23 -4 51 -8 62 -8 19 -9 18 -21 -7 -19 -40 -46 -35 -91 15
-57 62 -57 70 -5 123 53 52 56 66 21 82 -23 11 -27 9 -35 -14 -6 -14 -10 -28
-10 -32 0 -4 -9 -18 -19 -31 l-18 -24 -17 51 c-26 76 -21 85 44 90 30 2 57 6
60 8 13 13 -31 24 -77 20 -61 -5 -63 -2 -63 110 0 66 -2 72 -25 82 -41 19 -57
15 -50 -9z"/>
  <path d="M652 517 c7 -7 25 -21 40 -31 26 -17 28 -17 35 -1 8 23 -21 45 -60
45 -23 0 -26 -2 -15 -13z"/>
  <path d="M235 440 c-11 -5 -49 -9 -84 -9 -63 -1 -64 -1 -46 -21 9 -10 24 -50
31 -87 17 -78 29 -96 48 -70 10 12 27 17 66 17 50 0 52 1 46 25 -4 14 2 46 14
76 14 39 17 56 9 66 -13 15 -54 16 -84 3z m20 -67 c-12 -68 -15 -73 -46 -73
-16 0 -29 5 -29 13 0 6 -3 28 -6 49 -7 39 -1 43 64 47 21 1 22 -2 17 -36z"/>
</g>
<g id="part-1" class="char-part">
  <path d="M225 434 c-25 -10 -56 -13 -82 -10 -44 6 -54 -2 -29 -23 8 -7 17 -28
21 -49 12 -69 26 -112 35 -112 6 0 10 6 10 14 0 10 19 16 60 21 44 5 58 10 52
19 -6 7 -2 33 10 71 19 56 19 60 2 72 -22 16 -28 16 -79 -3z m32 -66 c-7 -54
-25 -78 -57 -78 -12 0 -20 15 -29 52 -6 28 -8 55 -4 59 5 4 24 9 43 12 19 2
39 5 44 5 5 1 6 -22 3 -50z"/>
</g>
<g id="part-2" class="char-part">
  <path d="M429 513 c-8 -9 -32 -29 -53 -45 -48 -35 -40 -35 49 -1 86 33 84 32
61 49 -26 18 -40 18 -57 -3z"/>
</g>
<g id="part-3" class="char-part">
  <path d="M406 435 c13 -54 11 -58 -41 -69 -37 -9 -45 -13 -32 -19 10 -4 34 -7
53 -7 33 0 34 -1 34 -39 0 -38 0 -39 -62 -61 -136 -48 -136 -48 -92 -68 22
-11 33 -8 85 23 68 40 76 35 64 -41 l-7 -46 -35 5 -36 6 28 -29 c59 -61 95
-26 95 90 l0 76 36 18 c41 19 41 32 0 16 -42 -16 -47 -13 -44 27 2 30 8 38 27
43 14 3 27 12 29 19 3 10 -2 12 -22 7 -24 -6 -26 -4 -26 28 0 33 -13 46 -46
46 -10 0 -13 -7 -8 -25z"/>
</g>
<g id="part-4" class="char-part">
  <path d="M526 593 c4 -16 15 -64 24 -108 l16 -80 -28 -9 c-37 -12 -36 -30 2
-23 28 6 30 4 41 -36 6 -23 17 -60 25 -81 8 -22 13 -40 11 -41 -1 -1 -21 -14
-44 -29 -24 -14 -43 -28 -43 -31 0 -5 45 10 79 28 19 9 25 9 28 0 20 -57 133
-153 181 -153 18 0 22 6 22 34 0 18 -3 48 -6 66 l-7 32 -13 -31 c-18 -44 -48
-41 -95 10 -49 53 -57 77 -32 94 11 8 32 30 47 50 22 29 25 39 16 50 -23 27
-46 17 -58 -24 -12 -39 -36 -68 -45 -54 -3 4 -12 33 -20 65 -14 55 -14 56 7
62 11 3 44 6 71 6 47 1 49 2 30 16 -15 11 -34 14 -72 11 -62 -6 -63 -5 -63
104 0 76 -1 80 -26 89 -45 18 -57 13 -48 -17z"/>
  <path d="M669 500 c33 -28 61 -30 61 -4 0 18 -32 34 -67 34 l-28 -1 34 -29z"/>
</g>
</g>
</svg>