<?xml version="1.0" standalone="no"?>
<!DOCTYPE svg PUBLIC "-//W3C//DTD SVG 20010904//EN"
 "http://www.w3.org/TR/2001/REC-SVG-20010904/DTD/svg10.dtd">
<svg version="1.0" xmlns="http://www.w3.org/2000/svg"
 width="96.000000pt" height="68.000000pt" viewBox="0 0 96.000000 68.000000"
 preserveAspectRatio="xMidYMid meet">
<metadata>
Created by potrace 1.16, written by Peter Selinger 2001-2019
Combined from part_0.svg through part_5.svg with named groups
</metadata>
<g transform="translate(0.000000,68.000000) scale(0.100000,-0.100000)" fill="#000000" stroke="none">
<g id="part-0" class="char-part">
  <path d="M555 513 l0 -68 -37 -3 c-51 -4 -49 -22 2 -22 l40 0 0 -40 c0 -37 -2
-40 -29 -40 -47 0 -121 -12 -121 -20 0 -12 56 -17 112 -9 29 3 55 5 58 2 12
-11 -90 -88 -187 -139 -18 -10 -33 -21 -33 -26 0 -9 72 18 115 44 17 10 33 18
38 18 4 0 6 -36 5 -79 -3 -77 5 -108 21 -83 4 6 34 15 67 18 57 6 60 5 73 -20
30 -55 47 -24 53 97 5 88 3 99 -14 111 -14 10 -30 11 -60 4 -23 -5 -53 -8 -67
-6 -25 3 -23 5 22 38 44 32 56 36 132 40 46 3 87 9 91 13 15 14 -9 22 -67 22
-32 -1 -59 3 -59 8 0 4 21 30 46 57 39 42 45 52 34 65 -19 23 -47 18 -54 -9
-3 -14 -26 -46 -51 -73 -24 -26 -45 -51 -45 -55 0 -5 -9 -8 -20 -8 -16 0 -20
7 -20 35 0 19 3 35 8 36 18 2 58 10 70 14 26 9 -1 26 -37 23 l-36 -3 3 52 c3
43 1 53 -16 62 -34 18 -37 14 -37 -56z m129 -289 c3 -9 6 -42 6 -75 l0 -59
-39 0 c-21 0 -53 -3 -70 -6 -30 -6 -31 -5 -31 29 0 25 4 35 13 32 23 -8 110
10 115 24 5 14 -9 14 -95 -5 -30 -6 -33 -4 -33 19 0 28 15 43 50 50 53 9 78 7
84 -9z"/>
  <path d="M250 538 c0 -18 65 -68 88 -68 25 0 37 29 20 45 -14 13 -73 35 -94
35 -8 0 -14 -6 -14 -12z"/>
  <path d="M272 414 c-24 -7 -68 -14 -98 -16 -36 -2 -54 -7 -54 -16 0 -23 32
-26 107 -10 40 8 73 12 73 8 0 -14 -45 -66 -129 -147 -46 -46 -81 -83 -77 -83
20 0 82 34 122 66 24 20 46 35 48 33 2 -2 -1 -44 -5 -94 -7 -75 -6 -93 8 -114
15 -23 16 -24 29 -6 10 13 14 49 14 112 0 51 3 93 6 93 3 0 17 -9 31 -20 14
-11 32 -20 39 -20 25 0 15 39 -13 54 -16 8 -23 15 -17 16 5 0 19 6 29 14 16
12 17 16 6 30 -20 24 -37 19 -51 -14 -14 -33 -27 -38 -37 -14 -4 11 9 31 42
62 l47 46 -22 18 c-26 21 -39 21 -98 2z"/>
</g>
<g id="part-1" class="char-part">
  <path d="M266 519 c28 -31 74 -53 86 -41 26 26 -22 62 -79 62 -26 0 -26 0 -7
-21z"/>
  <path d="M285 412 c-22 -7 -68 -16 -102 -19 -35 -3 -63 -9 -63 -13 0 -17 47
-18 112 -3 38 8 72 13 75 10 10 -10 -116 -151 -177 -199 -22 -17 -29 -28 -19
-28 18 0 98 51 124 80 10 11 22 20 27 20 12 0 10 -113 -2 -146 -12 -31 4 -84
25 -84 18 0 25 34 25 133 l0 88 26 -20 c30 -24 64 -28 64 -7 0 7 -14 20 -31
28 l-30 15 30 13 c36 14 39 25 11 40 -16 9 -22 6 -35 -20 -17 -33 -27 -37 -44
-17 -8 11 -1 24 34 61 25 25 45 50 45 55 0 20 -55 27 -95 13z"/>
</g>
<g id="part-2" class="char-part">
  <path d="M557 519 c7 -67 -1 -79 -49 -79 -16 0 -28 -4 -28 -10 0 -5 18 -10 40
-10 39 0 40 -1 40 -35 0 -28 4 -35 20 -35 16 0 20 7 20 34 0 33 3 35 41 43 48
10 48 28 -1 29 l-35 1 4 53 c3 54 -6 70 -41 70 -14 0 -15 -9 -11 -61z"/>
</g>
<g id="part-3" class="char-part">
  <path d="M732 477 c-11 -23 -39 -61 -63 -84 -46 -43 -44 -42 -196 -59 -35 -4
-63 -10 -63 -14 0 -15 60 -19 116 -9 31 6 58 8 61 6 7 -8 -91 -83 -169 -129
-38 -22 -67 -42 -65 -44 7 -7 81 23 135 55 29 17 80 53 113 81 56 47 64 50
117 51 31 0 75 4 97 8 l40 8 -30 12 c-19 8 -48 10 -79 6 l-48 -6 21 30 c12 16
35 41 51 55 36 30 38 49 5 64 -23 11 -26 9 -43 -31z"/>
</g>
<g id="part-4" class="char-part">
  <path d="M620 255 c-89 -19 -100 -30 -102 -100 -3 -105 4 -137 22 -105 6 10
28 16 67 18 54 3 60 1 73 -22 30 -57 51 -19 53 100 2 86 0 98 -18 110 -22 16
-20 16 -95 -1z m64 -31 c13 -35 7 -51 -21 -50 -16 0 -47 -3 -70 -7 -43 -7 -43
-7 -43 23 0 25 5 31 33 39 52 15 94 13 101 -5z m6 -99 c0 -34 -1 -35 -39 -35
-21 0 -53 -3 -70 -6 -29 -6 -31 -5 -31 24 0 28 2 30 58 40 31 5 63 10 70 11 7
1 12 -12 12 -34z"/>
</g>
</g>
</svg>