<?xml version="1.0" standalone="no"?>
<!DOCTYPE svg PUBLIC "-//W3C//DTD SVG 20010904//EN"
 "http://www.w3.org/TR/2001/REC-SVG-20010904/DTD/svg10.dtd">
<svg version="1.0" xmlns="http://www.w3.org/2000/svg"
 width="96.000000pt" height="68.000000pt" viewBox="0 0 96.000000 68.000000"
 preserveAspectRatio="xMidYMid meet">
<metadata>
Created by potrace 1.16, written by Peter Selinger 2001-2019
Combined from part_0.svg through part_5.svg with named groups
</metadata>
<g transform="translate(0.000000,68.000000) scale(0.100000,-0.100000)" fill="#000000" stroke="none">
<g id="part-0" class="char-part">
  <path d="M500 609 c-19 -5 -93 -12 -163 -15 l-128 -7 21 -22 c12 -13 25 -48
32 -86 14 -77 23 -91 54 -83 19 5 24 2 24 -12 0 -26 -80 -98 -163 -145 -89
-50 -45 -44 60 9 82 41 183 125 165 136 -23 14 -1 26 46 26 46 0 50 -3 147
-95 96 -91 102 -95 145 -95 50 0 90 9 90 19 0 4 -27 15 -60 25 -32 10 -78 31
-102 47 -109 72 -142 99 -125 99 10 0 26 -4 36 -10 25 -13 46 11 61 70 7 25
21 62 31 83 l20 38 -35 14 c-39 16 -101 18 -156 4z m90 -54 c0 -24 -3 -25 -60
-25 -57 0 -60 1 -60 25 0 24 3 25 60 25 57 0 60 -1 60 -25z m-182 -11 c3 -23
-19 -34 -74 -34 -29 0 -44 14 -44 40 0 8 64 18 100 16 8 -1 16 -11 18 -22z
m170 -66 c-3 -20 -10 -23 -61 -26 -52 -3 -58 -1 -55 15 3 18 36 30 91 32 24 1
28 -3 25 -21z m-168 -18 c0 -17 -7 -20 -50 -20 -43 0 -50 3 -50 20 0 17 7 20
50 20 43 0 50 -3 50 -20z"/>
  <path d="M514 288 c3 -13 6 -74 6 -135 0 -62 4 -113 9 -113 17 0 30 56 34 153
4 87 2 99 -14 107 -30 16 -42 12 -35 -12z"/>
  <path d="M334 221 c0 -47 -6 -68 -27 -100 -15 -23 -22 -41 -16 -41 23 0 74 67
87 113 18 71 16 82 -15 85 -28 2 -28 1 -29 -57z"/>
</g>
<g id="part-1" class="char-part">
  <path d="M490 604 c-47 -8 -127 -15 -178 -16 -50 -2 -92 -6 -92 -10 0 -5 4 -8
8 -8 13 0 29 -41 43 -109 12 -61 25 -83 38 -63 9 15 252 24 269 10 10 -8 16
-8 27 3 11 12 50 104 71 170 4 11 -5 19 -34 27 -46 14 -41 14 -152 -4z m108
-38 c6 -27 -7 -34 -73 -38 -58 -3 -60 -2 -60 22 0 21 6 26 35 31 60 11 94 6
98 -15z m-188 -16 c0 -11 0 -23 0 -27 1 -10 -103 -22 -111 -14 -4 3 -10 16
-13 28 -8 25 4 30 77 32 41 1 47 -2 47 -19z m176 -56 c-3 -9 -6 -23 -6 -33 0
-14 -11 -17 -60 -18 -57 -2 -60 -1 -60 22 0 20 6 25 38 30 20 4 44 8 52 10 35
7 42 5 36 -11z m-168 -28 c2 -10 -2 -22 -10 -27 -18 -12 -98 -11 -98 0 0 5 -3
16 -6 24 -4 12 3 17 28 20 59 8 83 3 86 -17z"/>
</g>
<g id="part-2" class="char-part">
  <path d="M506 412 c-3 -5 39 -51 94 -101 98 -89 102 -91 148 -90 26 1 58 4 72
8 22 6 14 11 -58 39 -46 17 -112 53 -148 79 -36 27 -74 54 -84 61 -11 8 -20 9
-24 4z"/>
  <path d="M340 392 c0 -29 -74 -98 -158 -148 -53 -32 -68 -44 -47 -40 52 11
170 75 224 123 50 43 51 46 35 64 -22 24 -54 25 -54 1z"/>
</g>
<g id="part-3" class="char-part">
  <path d="M337 246 c7 -42 -12 -100 -46 -145 l-26 -34 32 16 c41 21 69 62 84
120 14 57 7 77 -25 77 -23 0 -24 -3 -19 -34z"/>
</g>
<g id="part-4" class="char-part">
  <path d="M518 183 c2 -71 7 -132 12 -136 14 -15 28 54 33 155 4 91 3 97 -17
102 -12 3 -23 6 -26 6 -3 0 -3 -57 -2 -127z"/>
</g>
</g>
</svg>