<?xml version="1.0" standalone="no"?>
<!DOCTYPE svg PUBLIC "-//W3C//DTD SVG 20010904//EN"
 "http://www.w3.org/TR/2001/REC-SVG-20010904/DTD/svg10.dtd">
<svg version="1.0" xmlns="http://www.w3.org/2000/svg"
 width="96.000000pt" height="68.000000pt" viewBox="0 0 96.000000 68.000000"
 preserveAspectRatio="xMidYMid meet">
<metadata>
Created by potrace 1.16, written by Peter Selinger 2001-2019
Combined from part_0.svg through part_5.svg with named groups
</metadata>
<g transform="translate(0.000000,68.000000) scale(0.100000,-0.100000)" fill="#000000" stroke="none">
<g id="part-0" class="char-part">
  <path d="M410 605 c0 -9 24 -50 33 -56 5 -3 -31 -9 -80 -12 -63 -4 -92 -2
-103 7 -25 22 -44 30 -36 17 4 -6 -4 -31 -18 -56 -14 -24 -23 -51 -20 -59 10
-27 43 -18 65 18 l19 33 193 14 c105 8 197 14 202 14 11 0 11 -9 -1 -39 -7
-17 -4 -18 26 -12 19 3 52 11 74 17 l41 11 -35 30 -35 30 -114 -7 c-99 -6
-113 -5 -108 8 4 10 -5 20 -28 31 -32 15 -75 22 -75 11z"/>
  <path d="M430 484 c0 -14 32 -35 46 -30 13 5 14 9 4 21 -12 14 -50 21 -50 9z"/>
  <path d="M592 465 c27 -25 68 -34 68 -14 0 10 -60 39 -82 39 -7 0 -1 -11 14
-25z"/>
  <path d="M287 425 c-16 -33 -16 -36 -1 -42 21 -8 44 21 44 54 0 35 -24 28 -43
-12z"/>
  <path d="M376 437 c14 -36 114 -62 189 -49 49 9 52 29 6 48 -28 12 -32 12 -28
0 13 -32 -96 -37 -136 -6 -29 23 -38 25 -31 7z"/>
  <path d="M450 354 c-74 -7 -143 -11 -152 -8 -22 6 -22 5 -2 -34 8 -18 13 -36
9 -42 -3 -5 -42 -10 -86 -10 -45 0 -79 -4 -79 -10 0 -19 53 -23 164 -12 61 7
201 15 310 18 174 6 196 9 180 21 -13 10 -40 14 -91 11 -73 -3 -76 -1 -45 35
14 16 14 19 -4 32 -22 17 -25 17 -204 -1z m145 -15 c4 -5 4 -21 1 -35 -5 -20
-12 -24 -46 -24 -42 0 -50 12 -27 41 20 27 61 37 72 18z m-95 -16 c0 -27 -12
-41 -43 -48 -19 -5 -27 -3 -27 6 0 8 -3 24 -6 37 -6 20 -3 22 35 22 32 0 41
-4 41 -17z m-102 -26 c3 -27 1 -28 -30 -25 -28 3 -34 7 -36 31 -3 27 -1 28 30
25 28 -3 34 -7 36 -31z"/>
  <path d="M490 214 c-203 -23 -219 -26 -190 -34 14 -4 58 -5 98 -2 l73 5 -3
-59 -3 -59 -35 3 -35 3 35 -30 c41 -35 40 -35 65 -17 16 11 20 30 23 90 l4 76
69 0 c72 0 97 14 54 30 -14 6 -27 10 -28 9 -1 -1 -58 -8 -127 -15z"/>
</g>
<g id="part-1" class="char-part">
  <path d="M420 597 c0 -8 9 -22 21 -33 l21 -19 -24 -6 c-41 -12 -173 -10 -186
3 -13 13 -12 15 -40 -35 -24 -41 -27 -62 -13 -71 16 -11 39 5 51 35 7 16 17
29 23 29 5 0 97 7 204 16 107 9 197 13 201 10 3 -4 1 -16 -6 -26 -7 -11 -12
-21 -12 -23 0 -2 27 1 60 7 69 11 76 26 28 57 -34 20 -49 21 -200 3 -46 -6
-48 -5 -48 19 0 18 -7 28 -22 32 -13 4 -31 9 -40 11 -11 3 -18 0 -18 -9z"/>
</g>
<g id="part-2" class="char-part">
  <path d="M435 470 c20 -22 40 -26 51 -9 8 14 -14 29 -45 29 -23 0 -24 -1 -6
-20z"/>
  <path d="M585 466 c33 -28 65 -34 65 -12 0 19 -6 22 -55 30 l-40 7 30 -25z"/>
  <path d="M291 434 c-25 -32 -26 -43 -5 -51 21 -8 44 21 44 54 0 30 -14 29 -39
-3z"/>
  <path d="M380 430 c28 -40 125 -57 203 -37 35 10 31 25 -11 43 -30 12 -32 12
-32 -6 0 -17 -7 -20 -54 -20 -43 0 -60 5 -84 25 -40 33 -48 32 -22 -5z"/>
</g>
<g id="part-3" class="char-part">
  <path d="M450 354 c-74 -8 -144 -12 -156 -9 l-20 4 20 -43 c22 -48 45 -52 38
-7 l-4 29 89 7 c186 13 178 14 177 -22 -2 -43 22 -43 55 -1 24 30 24 31 6 44
-22 16 -27 16 -205 -2z"/>
</g>
<g id="part-4" class="char-part">
  <path d="M468 123 l-3 -58 -33 3 -33 2 36 -31 c20 -18 41 -29 50 -25 23 8 35
50 32 109 -2 45 -5 52 -24 55 -20 3 -22 -1 -25 -55z"/>
</g>
</g>
</svg>