<?xml version="1.0" standalone="no"?>
<!DOCTYPE svg PUBLIC "-//W3C//DTD SVG 20010904//EN"
 "http://www.w3.org/TR/2001/REC-SVG-20010904/DTD/svg10.dtd">
<svg version="1.0" xmlns="http://www.w3.org/2000/svg"
 width="96.000000pt" height="68.000000pt" viewBox="0 0 96.000000 68.000000"
 preserveAspectRatio="xMidYMid meet">
<metadata>
Created by potrace 1.16, written by Peter Selinger 2001-2019
Combined from part_0.svg through part_5.svg with named groups
</metadata>
<g transform="translate(0.000000,68.000000) scale(0.100000,-0.100000)" fill="#000000" stroke="none">
<g id="part-0" class="char-part">
  <path d="M317 596 l5 -43 -38 -6 c-22 -4 -52 -7 -67 -7 -50 0 -24 -25 32 -30
l52 -5 -33 -31 c-18 -17 -51 -41 -72 -54 -22 -13 -34 -26 -28 -28 17 -5 76 16
115 42 l33 23 -4 -27 c-2 -15 1 -38 8 -50 11 -20 14 -21 27 -7 10 10 15 32 15
61 -1 46 -1 46 21 31 28 -20 67 -20 67 0 0 9 -17 20 -45 27 -25 7 -45 15 -45
19 0 4 20 11 43 14 85 13 90 41 8 39 l-47 0 4 31 c3 27 0 33 -20 38 -36 10
-36 10 -31 -37z"/>
  <path d="M515 533 c5 -81 7 -90 33 -110 23 -19 39 -23 103 -23 82 0 139 14
139 34 0 7 -7 28 -16 46 l-17 33 -19 -36 c-20 -40 -61 -54 -123 -43 -55 11
-69 31 -60 90 12 91 12 91 -18 94 l-28 3 6 -88z"/>
  <path d="M416 395 c-9 -14 -33 -33 -52 -42 -21 -11 -34 -23 -32 -33 3 -15 9
-17 63 -19 26 -1 28 -3 15 -16 -8 -8 -33 -20 -54 -28 -22 -7 -41 -18 -43 -24
-6 -17 28 -45 46 -38 9 4 33 9 53 12 l36 5 7 -45 c11 -69 5 -82 -35 -80 l-34
1 34 -26 c19 -15 39 -27 45 -27 27 0 49 165 23 181 -7 5 10 13 42 20 45 10 57
10 77 -3 31 -21 58 -10 43 17 -13 23 -33 35 -80 45 -31 7 -33 6 -21 -9 8 -9
11 -19 7 -23 -3 -3 -43 -8 -87 -11 -60 -3 -80 -2 -75 7 4 6 12 11 17 11 20 0
159 70 159 80 0 6 -11 15 -24 21 -20 10 -28 7 -60 -26 -23 -23 -43 -35 -52
-31 -9 3 -20 6 -25 6 -22 0 -6 30 29 51 49 30 48 29 32 39 -24 15 -37 12 -54
-15z"/>
  <path d="M582 181 c8 -22 92 -111 105 -111 19 0 27 25 13 49 -14 27 -127 86
-118 62z"/>
  <path d="M295 141 c-8 -17 -25 -37 -37 -45 -33 -23 -12 -33 27 -12 44 24 79
61 70 75 -12 21 -44 11 -60 -18z"/>
</g>
<g id="part-1" class="char-part">
  <path d="M323 601 c17 -45 5 -61 -50 -62 -77 -1 -100 -17 -25 -18 34 -1 62 -5
62 -9 0 -11 -47 -54 -95 -86 -57 -38 -16 -34 53 5 l55 31 -7 -27 c-8 -33 1
-65 19 -65 17 0 25 22 25 71 0 44 1 45 35 23 14 -9 32 -13 42 -9 17 6 17 7 -1
21 -11 8 -32 14 -48 14 -21 0 -28 5 -28 20 0 15 7 20 28 20 38 0 72 11 72 22
0 6 -22 8 -51 6 l-50 -3 6 31 c5 32 -6 44 -40 44 -10 0 -11 -6 -2 -29z"/>
</g>
<g id="part-2" class="char-part">
  <path d="M513 541 c8 -124 25 -141 146 -141 74 0 131 15 131 34 0 7 -8 29 -18
50 l-18 37 -16 -40 c-14 -36 -20 -40 -61 -46 -105 -16 -139 16 -119 112 13 64
10 73 -25 73 l-26 0 6 -79z"/>
</g>
<g id="part-3" class="char-part">
  <path d="M434 422 c-5 -4 -17 -19 -26 -33 -9 -14 -31 -32 -48 -39 -49 -20 -36
-44 28 -48 56 -3 69 8 25 24 l-28 9 47 30 c26 17 47 32 48 35 0 10 -37 28 -46
22z"/>
</g>
<g id="part-4" class="char-part">
  <path d="M510 365 c-21 -26 -133 -101 -174 -117 l-39 -15 22 -22 c12 -12 25
-19 30 -17 4 3 59 16 122 30 99 21 116 23 130 10 16 -15 41 -18 52 -8 20 20
-52 74 -99 74 -16 0 -16 -1 0 -19 16 -17 16 -19 -6 -25 -13 -3 -54 -5 -93 -5
l-70 1 88 42 c48 24 91 46 95 50 7 7 -24 36 -39 36 -3 0 -12 -7 -19 -15z"/>
</g>
<g id="part-5" class="char-part">
  <path d="M457 206 c-3 -7 -1 -19 4 -27 14 -21 -6 -113 -22 -104 -13 9 -11 -9
3 -23 7 -7 17 -8 30 -1 21 11 24 35 6 42 -10 4 -10 8 -1 14 15 11 13 101 -3
107 -7 3 -15 -1 -17 -8z"/>
  <path d="M612 150 c16 -22 25 -27 34 -19 8 7 14 6 20 -2 4 -7 3 -9 -4 -5 -22
13 -23 -15 0 -34 26 -21 43 -12 33 19 -7 22 -58 55 -69 44 -3 -4 -6 -2 -6 4 0
6 -7 13 -15 17 -11 4 -9 -3 7 -24z"/>
  <path d="M282 113 c-18 -24 -27 -41 -20 -37 35 20 88 67 88 77 0 7 -4 6 -10
-3 -6 -10 -10 -11 -10 -2 0 22 -14 12 -48 -35z"/>
</g>
</g>
</svg>