<?xml version="1.0" standalone="no"?>
<!DOCTYPE svg PUBLIC "-//W3C//DTD SVG 20010904//EN"
 "http://www.w3.org/TR/2001/REC-SVG-20010904/DTD/svg10.dtd">
<svg version="1.0" xmlns="http://www.w3.org/2000/svg"
 width="96.000000pt" height="68.000000pt" viewBox="0 0 96.000000 68.000000"
 preserveAspectRatio="xMidYMid meet">
<metadata>
Created by potrace 1.16, written by Peter Selinger 2001-2019
Combined from part_0.svg through part_5.svg with named groups
</metadata>
<g transform="translate(0.000000,68.000000) scale(0.100000,-0.100000)" fill="#000000" stroke="none">
<g id="part-0" class="char-part">
  <path d="M575 593 c-4 -21 -7 -45 -8 -53 -2 -10 -16 -16 -45 -18 -51 -4 -53
-25 -3 -30 34 -4 34 -1 18 -63 -1 -4 3 -8 8 -10 9 -2 49 48 57 71 2 6 38 13
81 16 43 4 80 11 83 16 10 15 -50 29 -99 23 l-49 -7 16 30 c14 28 14 32 0 46
-28 29 -52 20 -59 -21z"/>
  <path d="M285 580 c-3 -6 3 -23 15 -38 l22 -27 -76 -3 c-75 -3 -83 -6 -68 -28
22 -34 71 -37 146 -8 8 3 18 -8 26 -25 17 -42 43 -41 38 1 -3 29 0 33 30 42
44 12 40 26 -8 26 -37 0 -41 3 -46 29 -7 35 -63 57 -79 31z"/>
  <path d="M575 389 c-38 -4 -137 -10 -220 -14 -82 -4 -151 -9 -153 -10 -1 -1 5
-16 14 -34 9 -18 22 -80 30 -139 15 -110 24 -133 46 -115 7 6 58 14 113 17 55
4 128 9 162 12 61 5 63 5 73 -20 5 -14 16 -26 25 -26 28 0 52 59 65 158 7 53
17 108 22 122 7 20 5 27 -14 42 -24 19 -50 20 -163 7z m104 -92 c0 -40 -4 -91
-7 -115 l-7 -43 -106 -5 c-59 -3 -139 -8 -178 -13 -39 -4 -75 -5 -79 -2 -11 7
-36 211 -27 219 7 8 18 9 148 17 59 4 109 10 111 13 2 4 36 6 75 4 l71 -4 -1
-71z"/>
  <path d="M485 299 c-22 -4 -62 -8 -90 -9 -27 0 -45 -4 -39 -8 6 -4 19 -31 28
-59 17 -52 28 -63 41 -43 3 6 34 10 68 10 57 0 63 2 64 21 1 12 9 29 18 39 19
21 11 46 -18 54 -12 3 -24 5 -27 5 -3 -1 -23 -5 -45 -10z m45 -41 c0 -37 -12
-46 -62 -49 -53 -3 -53 -4 -62 33 -7 30 3 34 82 37 37 1 42 -1 42 -21z"/>
</g>
<g id="part-1" class="char-part">
  <path d="M580 598 c0 -64 -8 -75 -58 -83 -38 -6 -43 -9 -28 -17 9 -5 29 -7 43
-4 26 7 26 11 7 -55 -9 -31 12 -15 42 32 24 39 25 39 87 39 72 0 107 14 63 26
-15 3 -47 4 -72 1 -37 -4 -44 -2 -40 10 18 46 17 62 -2 72 -33 18 -42 13 -42
-21z"/>
  <path d="M290 579 c0 -6 9 -23 20 -39 l20 -28 -31 -6 c-18 -3 -51 -6 -75 -6
-50 0 -56 -10 -19 -30 21 -11 34 -12 71 -2 60 16 61 16 79 -18 21 -41 36 -38
33 8 -3 34 -1 37 25 40 15 2 27 7 27 11 0 4 -16 5 -35 3 -32 -4 -36 -2 -41 27
-7 35 -8 36 -46 45 -18 4 -28 2 -28 -5z"/>
</g>
<g id="part-2" class="char-part">
  <path d="M505 384 c-77 -7 -177 -13 -222 -13 -46 -1 -83 -3 -83 -4 0 -2 7 -18
16 -36 9 -18 22 -80 30 -138 15 -111 29 -147 49 -120 7 11 42 16 125 21 63 4
136 9 161 12 41 5 46 3 57 -20 14 -32 47 -34 63 -4 6 12 20 74 29 137 10 64
21 124 25 133 5 12 -2 21 -24 32 -34 18 -33 18 -226 0z m174 -76 c-1 -35 -4
-87 -7 -116 l-7 -53 -120 -6 c-66 -4 -149 -7 -185 -8 l-65 0 -13 104 c-7 57
-10 106 -7 109 6 7 253 29 343 31 l62 1 -1 -62z"/>
</g>
<g id="part-3" class="char-part">
  <path d="M485 299 c-22 -4 -62 -8 -89 -8 -40 -1 -46 -3 -37 -15 6 -8 17 -33
25 -57 10 -34 17 -43 32 -41 10 1 47 5 81 9 34 3 61 9 58 13 -2 4 5 24 16 45
20 37 20 39 3 52 -20 14 -30 15 -89 2z m45 -31 c-1 -49 -11 -58 -66 -58 -40 0
-54 4 -54 14 0 8 -3 21 -6 29 -6 17 14 23 84 26 28 1 42 -3 42 -11z"/>
</g>
</g>
</svg>