<?xml version="1.0" standalone="no"?>
<!DOCTYPE svg PUBLIC "-//W3C//DTD SVG 20010904//EN"
 "http://www.w3.org/TR/2001/REC-SVG-20010904/DTD/svg10.dtd">
<svg version="1.0" xmlns="http://www.w3.org/2000/svg"
 width="96.000000pt" height="68.000000pt" viewBox="0 0 96.000000 68.000000"
 preserveAspectRatio="xMidYMid meet">
<metadata>
Created by potrace 1.16, written by Peter Selinger 2001-2019
Combined from part_0.svg through part_5.svg with named groups
</metadata>
<g transform="translate(0.000000,68.000000) scale(0.100000,-0.100000)" fill="#000000" stroke="none">
<g id="part-0" class="char-part">
  <path d="M580 590 l0 -39 -50 -7 c-27 -4 -50 -10 -50 -14 0 -11 27 -20 56 -20
24 0 24 0 9 -31 -9 -17 -15 -33 -12 -35 10 -10 38 10 58 42 20 33 23 34 84 34
35 0 67 5 70 10 8 12 -36 30 -75 30 -23 0 -27 3 -23 20 7 26 -13 50 -43 50
-21 0 -24 -5 -24 -40z"/>
  <path d="M294 597 c-3 -9 -1 -24 5 -36 6 -11 11 -22 11 -25 0 -3 -29 -6 -65
-6 -52 0 -65 -3 -65 -15 0 -9 7 -18 15 -21 8 -4 13 -9 10 -13 -6 -11 56 -6 89
8 16 6 29 10 30 9 1 -2 7 -15 14 -30 16 -38 32 -35 32 7 0 32 3 35 40 45 48
13 44 33 -5 24 -31 -5 -33 -4 -40 25 -4 17 -13 31 -20 31 -7 0 -20 3 -29 6 -9
4 -18 0 -22 -9z"/>
  <path d="M480 380 c11 -37 14 -62 8 -66 -5 -3 -36 -8 -69 -11 -55 -5 -59 -4
-59 15 0 11 -5 24 -10 27 -14 9 -2 25 19 25 9 0 25 6 35 13 17 12 17 14 -9 31
-26 17 -27 17 -61 -9 -19 -15 -54 -38 -77 -52 l-42 -25 35 7 c63 12 65 12 68
-21 l3 -31 -80 -7 c-45 -4 -81 -11 -81 -16 0 -16 56 -21 105 -10 26 6 50 8 53
6 10 -11 4 -59 -9 -67 -8 -4 -47 -14 -87 -20 -74 -12 -83 -18 -57 -39 18 -15
71 -8 117 14 40 20 38 21 38 -11 0 -44 -13 -57 -50 -50 l-32 7 37 -36 c20 -19
42 -33 48 -31 20 6 36 48 43 109 6 52 9 57 35 63 16 4 31 11 34 16 8 12 -7 12
-38 0 -20 -8 -26 -6 -29 7 -11 46 5 57 100 64 33 3 34 2 58 -62 13 -36 24 -70
24 -77 0 -6 -21 -22 -46 -35 -55 -27 -42 -36 23 -14 l47 16 36 -34 c63 -63
169 -95 162 -50 -15 104 -25 120 -37 64 -4 -17 -12 -30 -19 -30 -13 0 -50 24
-84 54 l-22 20 46 47 c40 41 45 50 34 64 -20 24 -39 18 -53 -17 -8 -18 -21
-39 -30 -46 -13 -11 -18 -10 -32 11 -24 38 -36 87 -22 92 14 5 89 13 130 14
35 1 35 15 -2 30 -20 9 -43 10 -82 3 -30 -6 -57 -8 -61 -5 -5 2 -8 26 -8 52 0
42 -3 50 -22 55 -45 12 -47 9 -28 -54z"/>
  <path d="M645 400 c33 -35 75 -41 75 -11 0 20 -43 41 -83 41 -19 0 -18 -3 8
-30z"/>
</g>
<g id="part-1" class="char-part">
  <path d="M584 583 c-8 -36 -12 -38 -51 -41 -24 -2 -43 -7 -43 -12 0 -13 35
-21 55 -14 15 6 17 4 11 -17 -19 -62 -17 -63 21 -21 32 36 44 42 78 43 22 1
51 4 65 9 l25 7 -25 10 c-14 6 -40 8 -57 6 -34 -5 -42 4 -21 25 8 8 8 15 -2
27 -22 27 -46 18 -56 -22z"/>
  <path d="M300 591 c0 -5 4 -21 9 -34 8 -21 6 -26 -12 -31 -12 -3 -43 -6 -69
-6 -53 0 -61 -10 -24 -30 23 -12 46 -11 102 5 15 5 23 0 32 -19 16 -35 30 -33
34 6 2 26 9 34 38 44 l35 12 -42 1 c-38 1 -42 4 -45 29 -2 21 -9 28 -30 30
-16 2 -28 -1 -28 -7z"/>
</g>
<g id="part-2" class="char-part">
  <path d="M336 409 c-15 -12 -51 -34 -79 -50 -38 -21 -46 -29 -30 -29 25 0 173
47 186 60 8 7 -28 40 -44 40 -3 0 -18 -10 -33 -21z"/>
</g>
<g id="part-3" class="char-part">
  <path d="M319 353 c0 -5 -2 -21 -2 -38 -2 -30 -3 -30 -77 -38 -82 -9 -92 -13
-70 -28 14 -9 73 -6 125 7 23 6 25 4 25 -30 0 -32 -3 -36 -39 -46 -21 -5 -59
-13 -85 -16 -48 -7 -54 -12 -34 -32 17 -17 50 -15 103 8 26 11 49 20 51 20 2
0 4 -13 4 -29 0 -37 -22 -55 -57 -46 l-28 6 34 -35 c19 -20 41 -36 48 -36 21
0 41 42 48 103 6 55 9 60 42 73 42 18 37 31 -6 16 -31 -11 -31 -10 -31 22 0
28 5 35 25 40 34 9 32 26 -4 26 -24 0 -30 5 -34 30 -4 18 -13 30 -22 30 -8 0
-15 -3 -16 -7z"/>
</g>
<g id="part-4" class="char-part">
  <path d="M460 436 c0 -2 6 -19 14 -37 7 -19 16 -46 20 -61 5 -24 3 -27 -34
-33 -53 -9 -52 -28 1 -23 l41 3 24 -65 c14 -36 26 -69 27 -74 1 -4 -25 -23
-58 -42 -70 -39 -67 -42 16 -14 l61 21 40 -37 c22 -20 59 -44 82 -55 68 -31
95 -23 77 23 -5 13 -13 37 -17 53 l-7 30 -9 -32 c-5 -18 -15 -33 -22 -33 -14
0 -90 52 -100 68 -3 5 15 29 41 52 36 34 44 46 36 59 -17 27 -42 25 -54 -6
-11 -30 -37 -63 -49 -63 -8 0 -50 92 -50 108 0 6 38 13 85 17 47 4 85 11 85
15 0 10 -50 28 -70 25 -8 -2 -36 -6 -62 -10 l-48 -7 0 51 c0 46 -3 53 -26 61
-26 10 -44 13 -44 6z"/>
  <path d="M645 400 c33 -35 75 -41 75 -11 0 20 -43 41 -83 41 -19 0 -18 -3 8
-30z"/>
</g>
</g>
</svg>