<?xml version="1.0" standalone="no"?>
<!DOCTYPE svg PUBLIC "-//W3C//DTD SVG 20010904//EN"
 "http://www.w3.org/TR/2001/REC-SVG-20010904/DTD/svg10.dtd">
<svg version="1.0" xmlns="http://www.w3.org/2000/svg"
 width="96.000000pt" height="68.000000pt" viewBox="0 0 96.000000 68.000000"
 preserveAspectRatio="xMidYMid meet">
<metadata>
Created by potrace 1.16, written by Peter Selinger 2001-2019
Combined from part_0.svg through part_5.svg with named groups
</metadata>
<g transform="translate(0.000000,68.000000) scale(0.100000,-0.100000)" fill="#000000" stroke="none">
<g id="part-0" class="char-part">
  <path d="M450 606 c0 -8 11 -28 25 -44 l25 -30 -43 -6 c-23 -3 -77 -9 -120
-12 -79 -7 -103 -17 -67 -29 17 -5 20 -15 20 -58 0 -110 -45 -211 -132 -298
-36 -36 -44 -49 -31 -49 10 0 30 7 43 17 84 55 137 143 165 268 8 39 17 80 20
91 6 25 31 30 250 44 81 5 153 14 158 19 20 20 -44 33 -125 26 -64 -6 -78 -5
-78 7 0 22 -41 55 -77 61 -25 5 -33 3 -33 -7z"/>
  <path d="M567 460 c-10 -10 -44 -32 -77 -49 -43 -23 -65 -29 -88 -25 l-30 6 7
-38 c4 -22 4 -88 -1 -149 -4 -66 -4 -113 2 -119 6 -6 42 13 95 49 46 32 83 60
81 62 -1 2 -28 -8 -60 -22 -31 -14 -61 -25 -66 -25 -6 0 -10 28 -10 63 l0 64
33 -1 c17 0 50 3 72 7 l40 7 35 -56 c37 -59 50 -74 96 -114 63 -55 147 -76
129 -32 -4 9 -10 40 -14 67 l-8 50 -17 -38 c-10 -22 -23 -37 -34 -37 -30 0
-142 129 -142 163 0 3 34 8 76 12 54 5 73 10 65 18 -13 13 -62 14 -112 3 -36
-8 -37 -7 -43 28 -4 21 -13 36 -21 36 -35 0 -21 20 22 33 55 16 63 29 28 45
-33 15 -36 15 -58 -8z m-32 -107 c8 -20 13 -38 11 -40 -2 -3 -33 -7 -67 -10
-56 -6 -62 -4 -56 11 4 10 7 25 7 35 0 17 38 38 72 40 11 1 23 -12 33 -36z"/>
  <path d="M575 95 c-5 -2 -36 -9 -69 -15 -42 -9 -55 -15 -47 -23 8 -8 30 -8 81
1 39 7 82 12 95 12 28 0 33 15 9 24 -17 6 -52 7 -69 1z"/>
</g>
<g id="part-1" class="char-part">
  <path d="M465 583 c10 -16 24 -33 32 -40 21 -16 8 -20 -102 -29 -55 -4 -103
-9 -107 -10 -5 -1 -12 -2 -18 -3 -6 0 -1 -10 10 -21 23 -23 24 -35 9 -116 -16
-84 -53 -156 -116 -224 -60 -65 -59 -76 3 -31 87 62 132 141 160 282 15 72 22
89 39 93 11 3 102 11 203 18 100 6 182 15 182 18 0 20 -54 29 -118 20 -92 -13
-92 -13 -92 15 0 27 -41 55 -81 55 -21 0 -21 -1 -4 -27z"/>
</g>
<g id="part-2" class="char-part">
  <path d="M540 444 c-25 -18 -60 -39 -77 -46 -30 -11 -45 -28 -25 -28 14 0 197
63 206 72 12 9 -22 38 -44 37 -8 0 -35 -16 -60 -35z"/>
</g>
<g id="part-3" class="char-part">
  <path d="M520 395 c0 -3 7 -22 15 -42 8 -19 15 -37 15 -39 0 -2 -27 -6 -60
-10 -38 -4 -59 -11 -57 -18 4 -12 31 -13 92 -3 40 7 40 7 75 -49 48 -76 127
-149 179 -165 22 -7 44 -9 47 -6 4 3 1 20 -5 38 -6 18 -11 45 -11 60 0 38 -15
37 -29 -1 -6 -19 -17 -30 -28 -30 -32 0 -143 128 -143 165 0 3 21 6 48 6 26 1
61 4 77 8 l30 7 -24 13 c-22 12 -50 11 -118 -6 -18 -4 -23 -1 -23 16 0 27 -34
61 -60 61 -11 0 -20 -2 -20 -5z"/>
</g>
<g id="part-4" class="char-part">
  <path d="M516 82 c-59 -11 -75 -17 -62 -24 10 -6 51 -4 112 4 81 11 93 14 78
25 -21 15 -25 15 -128 -5z"/>
</g>
</g>
</svg>