<?xml version="1.0" standalone="no"?>
<!DOCTYPE svg PUBLIC "-//W3C//DTD SVG 20010904//EN"
 "http://www.w3.org/TR/2001/REC-SVG-20010904/DTD/svg10.dtd">
<svg version="1.0" xmlns="http://www.w3.org/2000/svg"
 width="96.000000pt" height="68.000000pt" viewBox="0 0 96.000000 68.000000"
 preserveAspectRatio="xMidYMid meet">
<metadata>
Created by potrace 1.16, written by Peter Selinger 2001-2019
Combined from part_0.svg through part_5.svg with named groups
</metadata>
<g transform="translate(0.000000,68.000000) scale(0.100000,-0.100000)" fill="#000000" stroke="none">
<g id="part-0" class="char-part">
  <path d="M297 593 c-4 -3 -7 -21 -7 -39 0 -30 -2 -32 -45 -39 -54 -8 -50 -25
6 -25 45 0 55 -24 17 -40 l-23 -9 23 0 c17 -1 22 -7 22 -27 0 -22 -4 -25 -27
-22 -23 2 -28 8 -28 31 1 24 -3 27 -33 27 -31 0 -32 -1 -17 -17 10 -9 22 -29
27 -44 8 -25 13 -27 40 -22 28 6 30 5 19 -15 -6 -12 -46 -43 -89 -68 -64 -38
-71 -44 -42 -39 43 9 85 27 128 55 l32 22 0 -37 c0 -46 20 -43 33 6 5 19 10
36 12 38 2 2 17 -6 33 -18 33 -23 57 -27 67 -11 11 18 -13 37 -60 50 -25 7
-45 17 -45 21 0 8 46 14 78 10 6 -1 12 6 12 16 0 10 10 24 22 32 21 13 21 14
3 27 -10 8 -40 14 -67 14 -36 0 -48 4 -48 15 0 9 9 15 23 15 37 0 68 12 64 24
-2 6 -21 10 -44 8 -39 -3 -40 -3 -35 23 6 34 -29 60 -51 38z m101 -165 c-2
-17 -11 -24 -30 -26 -24 -3 -28 0 -28 22 0 22 4 26 31 26 26 0 30 -3 27 -22z"/>
  <path d="M560 570 c0 -12 -11 -43 -25 -70 -30 -58 -31 -69 -7 -48 9 9 32 19
50 23 l32 7 0 -52 c0 -50 -1 -52 -22 -45 -13 3 -34 9 -48 12 -22 4 -21 2 8
-16 38 -24 34 -37 -17 -58 -20 -9 -31 -18 -24 -20 7 -2 32 5 57 15 l45 20 48
-34 c41 -29 56 -34 105 -34 32 0 58 4 58 8 0 5 -28 17 -62 26 -35 10 -77 26
-95 37 l-32 20 19 41 c13 29 16 47 9 59 -14 26 -13 27 41 34 72 10 65 29 -7
21 -32 -3 -73 -9 -92 -12 l-34 -7 21 31 c26 36 27 48 6 56 -26 10 -34 7 -34
-14z"/>
  <path d="M569 266 c-2 -3 -45 -10 -94 -16 -50 -6 -101 -13 -115 -15 -14 -2
-33 -4 -43 -4 -10 -1 -15 -6 -12 -11 4 -6 26 -9 53 -6 66 8 73 0 75 -80 l2
-69 -42 -3 -43 -3 0 50 c0 48 -2 51 -25 51 -25 0 -25 -1 -19 -55 l7 -55 -67 0
c-36 0 -66 -4 -66 -10 0 -16 63 -22 130 -11 36 6 157 14 269 18 176 5 201 8
185 20 -15 11 -47 12 -158 7 l-139 -7 6 24 c4 13 7 30 7 37 0 7 15 12 43 12
53 0 88 10 81 21 -3 5 -32 7 -64 3 l-58 -6 0 35 0 34 61 7 c66 7 72 9 62 25
-6 11 -28 15 -36 7z"/>
</g>
<g id="part-1" class="char-part">
  <path d="M300 557 c0 -36 -12 -45 -70 -48 -14 -1 -5 -5 20 -8 l45 -6 0 -62 c0
-72 -17 -97 -103 -145 -29 -17 -51 -33 -48 -36 8 -7 85 27 124 55 l32 24 0
-28 c0 -41 16 -61 23 -31 4 12 7 33 7 46 0 28 7 28 54 -4 27 -18 41 -23 49
-15 16 16 -10 40 -54 47 l-39 7 0 73 0 74 40 6 c52 9 52 27 0 22 -40 -4 -41
-3 -38 27 2 25 -1 31 -19 33 -20 3 -23 -1 -23 -31z"/>
</g>
<g id="part-2" class="char-part">
  <path d="M610 436 c0 -47 -14 -66 -33 -47 -6 6 -22 11 -36 11 -25 0 -25 0 7
-20 17 -11 32 -22 32 -25 0 -3 -24 -17 -52 -30 -49 -23 -50 -25 -23 -25 17 0
47 8 67 19 l37 18 47 -33 c40 -29 56 -34 104 -34 31 0 60 3 63 7 4 4 -26 16
-67 28 -41 12 -85 29 -99 38 l-26 17 20 45 c22 50 15 75 -22 75 -16 0 -19 -8
-19 -44z"/>
</g>
<g id="part-3" class="char-part">
  <path d="M559 266 c-4 -4 -223 -35 -254 -36 -5 0 -2 -5 8 -11 29 -17 301 15
294 35 -4 11 -39 21 -48 12z"/>
</g>
<g id="part-4" class="char-part">
  <path d="M434 183 c3 -21 6 -55 6 -75 0 -50 25 -51 34 -3 7 34 8 35 54 36 26
0 56 4 67 9 35 14 -8 23 -60 12 -49 -10 -64 -1 -52 32 6 15 -12 26 -40 26 -12
0 -14 -8 -9 -37z"/>
</g>
<g id="part-5" class="char-part">
  <path d="M675 70 c-27 -4 -72 -5 -100 -2 -27 2 -47 1 -43 -3 9 -10 198 -14
192 -4 -2 4 2 10 8 12 16 7 5 6 -57 -3z"/>
  <path d="M360 49 c0 -5 9 -9 20 -9 11 0 20 2 20 4 0 2 -9 6 -20 9 -11 3 -20 1
-20 -4z"/>
  <path d="M430 49 c0 -5 5 -7 10 -4 6 3 10 8 10 11 0 2 -4 4 -10 4 -5 0 -10 -5
-10 -11z"/>
  <path d="M488 53 c6 -2 18 -2 25 0 6 3 1 5 -13 5 -14 0 -19 -2 -12 -5z"/>
  <path d="M748 53 c7 -3 16 -2 19 1 4 3 -2 6 -13 5 -11 0 -14 -3 -6 -6z"/>
  <path d="M240 40 c-34 -8 -12 -18 25 -10 19 3 25 8 15 11 -8 3 -26 3 -40 -1z"/>
</g>
</g>
</svg>