<?xml version="1.0" standalone="no"?>
<!DOCTYPE svg PUBLIC "-//W3C//DTD SVG 20010904//EN"
 "http://www.w3.org/TR/2001/REC-SVG-20010904/DTD/svg10.dtd">
<svg version="1.0" xmlns="http://www.w3.org/2000/svg"
 width="96.000000pt" height="68.000000pt" viewBox="0 0 96.000000 68.000000"
 preserveAspectRatio="xMidYMid meet">
<metadata>
Created by potrace 1.16, written by Peter Selinger 2001-2019
Combined from part_0.svg through part_5.svg with named groups
</metadata>
<g transform="translate(0.000000,68.000000) scale(0.100000,-0.100000)" fill="#000000" stroke="none">
<g id="part-0" class="char-part">
  <path d="M266 611 c-3 -5 -1 -22 5 -39 6 -16 9 -50 7 -73 l-3 -44 -63 -10
c-80 -13 -77 -30 6 -28 l62 1 0 -44 0 -44 -67 -30 c-37 -17 -78 -33 -90 -36
-26 -7 -29 -17 -10 -32 29 -23 57 -23 89 0 18 13 44 29 57 36 23 12 24 12 17
-25 -3 -21 -6 -53 -6 -72 0 -33 -1 -33 -35 -28 -19 3 -35 3 -35 -1 0 -4 21
-26 47 -50 l48 -42 17 22 c14 19 18 44 18 134 l0 111 40 27 c22 14 40 29 40
32 0 6 -34 0 -65 -12 -14 -6 -16 -1 -13 27 3 28 8 34 38 42 19 5 37 11 40 13
8 8 -24 24 -49 24 -22 0 -23 3 -18 38 3 20 9 46 12 57 5 15 -1 24 -24 38 -32
19 -57 22 -65 8z"/>
  <path d="M575 504 c-60 -8 -120 -12 -132 -9 -13 3 -23 1 -23 -5 0 -5 4 -10 9
-10 14 0 28 -50 41 -139 l12 -79 54 5 54 6 0 -122 c0 -94 3 -122 13 -119 17 6
24 49 26 157 l1 93 67 -3 67 -4 34 108 c26 86 31 111 21 123 -14 17 -91 17
-244 -2z m185 -49 l0 -45 -59 0 -59 0 -4 40 c-4 43 0 45 85 49 l37 1 0 -45z
m-182 23 c7 -7 12 -26 12 -44 0 -27 -4 -32 -31 -38 -59 -11 -66 -8 -77 34 -9
37 -8 40 12 45 31 6 60 13 67 14 3 0 10 -4 17 -11z m172 -107 c0 -11 -4 -31
-10 -45 -8 -23 -15 -26 -60 -26 l-50 0 0 39 c0 43 5 46 88 50 25 1 32 -3 32
-18z m-160 -28 c0 -37 -9 -47 -42 -51 -29 -3 -48 19 -48 57 0 18 6 21 45 21
42 0 45 -2 45 -27z"/>
</g>
<g id="part-1" class="char-part">
  <path d="M276 568 c5 -24 8 -59 9 -78 0 -34 -1 -35 -50 -43 -89 -16 -96 -26
-17 -26 l72 -1 0 -37 c0 -21 -4 -43 -8 -49 -8 -14 -138 -74 -158 -74 -17 0
-18 -12 -2 -28 20 -20 51 -14 106 23 l52 36 0 -68 c0 -88 -7 -99 -51 -84 l-34
12 47 -48 c46 -45 49 -47 65 -30 15 14 19 39 21 132 4 108 5 116 28 134 14 11
30 22 37 24 7 2 9 8 5 12 -4 4 -19 0 -32 -9 -35 -22 -36 -21 -36 24 0 37 2 39
35 46 56 10 41 31 -17 25 -22 -3 -22 11 -4 73 13 44 13 47 -7 61 -12 8 -32 15
-45 15 -23 0 -23 -2 -16 -42z"/>
</g>
<g id="part-2" class="char-part">
  <path d="M620 509 c-80 -10 -160 -15 -179 -12 l-34 6 22 -29 c13 -18 27 -63
37 -114 20 -112 21 -115 37 -101 8 6 69 12 138 15 l123 4 32 93 c17 52 35 102
39 112 6 13 0 20 -29 32 -19 8 -37 14 -38 14 -2 -1 -68 -10 -148 -20z m140
-54 l0 -45 -59 0 -59 0 -4 40 c-4 44 0 46 80 49 l42 1 0 -45z m-176 13 c13
-50 7 -65 -25 -72 -59 -11 -66 -8 -77 34 -11 44 -15 39 53 53 38 8 43 7 49
-15z m166 -97 c0 -11 -4 -31 -9 -44 -9 -22 -16 -25 -60 -25 l-51 -1 0 39 c0
42 5 45 88 49 25 1 32 -3 32 -18z m-160 -36 c0 -31 -3 -35 -35 -41 -43 -8 -44
-7 -52 40 l-6 36 47 0 c46 0 46 0 46 -35z"/>
</g>
<g id="part-3" class="char-part">
  <path d="M590 151 c0 -113 9 -153 25 -113 4 9 10 65 13 125 4 104 4 107 -17
107 -20 0 -21 -4 -21 -119z"/>
</g>
</g>
</svg>