<?xml version="1.0" standalone="no"?>
<!DOCTYPE svg PUBLIC "-//W3C//DTD SVG 20010904//EN"
 "http://www.w3.org/TR/2001/REC-SVG-20010904/DTD/svg10.dtd">
<svg version="1.0" xmlns="http://www.w3.org/2000/svg"
 width="96.000000pt" height="68.000000pt" viewBox="0 0 96.000000 68.000000"
 preserveAspectRatio="xMidYMid meet">
<metadata>
Created by potrace 1.16, written by Peter Selinger 2001-2019
Combined from part_0.svg through part_5.svg with named groups
</metadata>
<g transform="translate(0.000000,68.000000) scale(0.100000,-0.100000)" fill="#000000" stroke="none">
<g id="part-0" class="char-part">
  <path d="M475 578 c6 -23 61 -225 71 -264 5 -19 -1 -21 -93 -33 -129 -17 -153
-22 -153 -32 0 -5 18 -9 39 -9 37 0 39 -2 35 -26 -7 -41 -30 -79 -64 -108 -18
-14 -28 -26 -23 -26 19 0 65 31 89 60 30 36 34 36 64 10 23 -20 42 -25 53 -14
14 14 -14 42 -48 48 -31 6 -34 9 -25 26 5 10 7 25 4 33 -4 11 10 16 62 21 36
4 67 6 68 4 0 -2 14 -27 30 -57 28 -53 28 -55 10 -69 -10 -8 -35 -21 -54 -29
-52 -23 -23 -26 35 -4 l50 19 52 -44 c53 -45 132 -81 157 -71 10 4 13 17 9 44
-7 64 -13 71 -29 41 -8 -16 -19 -28 -25 -28 -19 0 -64 28 -92 58 l-29 30 28
25 c17 16 25 31 21 41 -10 24 -36 19 -47 -9 -5 -14 -14 -25 -19 -25 -9 0 -51
65 -51 79 0 4 24 9 52 10 29 1 56 5 61 10 12 12 -46 21 -92 15 -45 -6 -42 -11
-66 104 -8 40 -15 97 -15 127 0 55 -8 65 -52 65 -16 0 -19 -4 -13 -22z"/>
  <path d="M635 528 c-4 -13 -18 -38 -32 -56 -29 -39 -22 -56 20 -47 l32 7 -40
-41 c-52 -54 -39 -68 39 -41 46 17 61 18 72 9 12 -10 18 -9 27 0 9 10 7 17
-12 32 -22 18 -47 18 -36 -1 6 -10 -19 -20 -52 -20 -24 0 -22 3 27 48 33 30
51 53 46 60 -10 17 -36 15 -36 -3 0 -14 -37 -35 -61 -35 -12 0 14 52 35 69 22
18 20 41 -3 41 -12 0 -22 -9 -26 -22z"/>
  <path d="M386 498 c-10 -24 -28 -50 -39 -59 -30 -25 -16 -50 24 -42 28 5 30 4
21 -13 -6 -10 -20 -26 -31 -34 -21 -14 -29 -50 -13 -50 13 0 72 30 72 37 0 3
-6 3 -14 0 -31 -12 -22 8 24 55 29 29 47 55 43 64 -8 20 -19 17 -37 -11 -15
-23 -56 -36 -56 -17 0 9 28 51 47 71 11 10 11 16 2 27 -18 21 -24 17 -43 -28z"/>
  <path d="M197 429 c-10 -6 -38 -9 -63 -7 -47 3 -53 -4 -29 -36 8 -11 18 -42
21 -69 7 -47 28 -72 43 -50 3 6 27 13 53 17 26 4 50 11 53 17 4 5 1 9 -4 9 -7
0 -3 21 9 52 14 38 17 55 9 65 -14 16 -67 17 -92 2z m27 -66 c-12 -63 -52 -71
-67 -14 -10 39 1 51 46 51 27 0 28 -1 21 -37z"/>
  <path d="M445 360 c3 -5 0 -10 -7 -10 -7 0 0 -7 16 -15 37 -19 61 -3 30 20
-22 16 -48 20 -39 5z"/>
  <path d="M741 295 c29 -30 59 -33 59 -6 0 21 -19 31 -57 31 l-25 0 23 -25z"/>
</g>
<g id="part-1" class="char-part">
  <path d="M195 424 c-23 -9 -54 -12 -72 -9 l-31 6 19 -38 c10 -20 19 -45 19
-54 0 -30 20 -74 28 -62 4 7 29 15 56 20 46 8 49 10 52 42 3 19 12 46 20 60
16 23 15 25 -2 38 -22 16 -38 16 -89 -3z m35 -59 c0 -40 -3 -47 -26 -55 -38
-15 -41 -13 -48 26 -4 19 -10 42 -12 49 -4 9 5 15 28 18 18 2 39 5 46 5 8 1
12 -13 12 -43z"/>
</g>
<g id="part-2" class="char-part">
  <path d="M397 533 c-4 -3 -7 -14 -7 -22 0 -9 -14 -33 -31 -54 -37 -45 -33 -71
8 -61 34 8 54 24 30 24 -23 0 -22 4 14 56 16 24 27 49 24 54 -7 11 -28 13 -38
3z"/>
</g>
<g id="part-3" class="char-part">
  <path d="M474 578 c6 -21 76 -281 76 -284 0 -1 -44 -7 -97 -13 -148 -18 -166
-22 -154 -34 7 -7 49 -4 133 7 85 12 123 15 126 7 2 -6 14 -32 28 -58 28 -56
27 -57 -61 -99 -56 -26 -23 -23 55 5 l45 17 60 -48 c61 -49 121 -75 149 -65
11 4 14 16 10 44 -9 65 -14 71 -30 41 -8 -16 -19 -28 -25 -28 -18 0 -53 21
-87 53 l-32 31 31 32 31 32 -24 16 c-22 16 -23 16 -36 -14 -16 -38 -27 -38
-52 2 -31 51 -27 58 35 58 30 0 55 4 55 9 0 16 -37 23 -83 16 -37 -6 -45 -4
-51 12 -16 42 -36 158 -36 213 0 60 -7 70 -52 70 -16 0 -19 -4 -14 -22z"/>
  <path d="M730 319 c0 -16 49 -61 60 -54 8 5 15 45 7 45 -1 0 -17 4 -35 9 -20
6 -32 6 -32 0z"/>
</g>
<g id="part-4" class="char-part">
  <path d="M410 181 c0 -16 60 -53 75 -47 33 12 10 36 -47 50 -16 3 -28 2 -28
-3z"/>
</g>
</g>
</svg>