<?xml version="1.0" standalone="no"?>
<!DOCTYPE svg PUBLIC "-//W3C//DTD SVG 20010904//EN"
 "http://www.w3.org/TR/2001/REC-SVG-20010904/DTD/svg10.dtd">
<svg version="1.0" xmlns="http://www.w3.org/2000/svg"
 width="96.000000pt" height="68.000000pt" viewBox="0 0 96.000000 68.000000"
 preserveAspectRatio="xMidYMid meet">
<metadata>
Created by potrace 1.16, written by Peter Selinger 2001-2019
Combined from part_0.svg through part_5.svg with named groups
</metadata>
<g transform="translate(0.000000,68.000000) scale(0.100000,-0.100000)" fill="#000000" stroke="none">
<g id="part-0" class="char-part">
  <path d="M416 613 c4 -10 9 -39 12 -64 3 -42 1 -47 -20 -52 -12 -4 -42 -7 -65
-7 -32 0 -43 -4 -43 -15 0 -12 14 -15 65 -15 l65 0 0 -39 0 -39 -72 -7 c-242
-21 -235 -20 -206 -35 24 -11 46 -11 145 3 155 21 183 24 183 19 0 -7 -44 -42
-65 -53 -11 -5 -42 -23 -70 -39 -27 -17 -66 -37 -85 -45 -19 -9 -57 -26 -85
-39 -84 -41 -13 -32 80 10 126 56 119 57 112 -12 -4 -32 -9 -68 -13 -80 -3
-13 1 -28 12 -39 17 -16 18 -16 26 4 7 19 15 21 85 21 72 0 79 -2 99 -27 22
-27 23 -27 41 -10 14 14 19 39 23 120 3 56 2 106 -3 112 -10 12 -83 13 -157 2
l-55 -9 65 46 65 46 143 0 c110 0 143 3 140 13 -10 29 -55 38 -134 28 -41 -6
-85 -11 -97 -11 -21 0 -21 1 4 18 36 24 109 88 109 95 0 11 -32 37 -45 37 -8
0 -22 -15 -31 -32 -21 -42 -113 -128 -136 -128 -14 0 -18 9 -18 39 0 36 3 40
30 45 17 3 44 9 61 12 52 10 27 29 -35 27 l-56 -2 0 60 0 59 -41 0 c-36 0 -40
-2 -33 -17z m172 -374 c3 -25 0 -26 -55 -32 -32 -4 -75 -10 -95 -13 l-38 -7 0
36 0 36 58 4 c113 7 127 5 130 -24z m0 -86 l-3 -38 -92 -3 -93 -3 0 29 c0 31
-7 29 178 51 9 1 12 -10 10 -36z"/>
</g>
<g id="part-1" class="char-part">
  <path d="M428 560 l5 -70 -29 0 c-16 0 -47 -4 -69 -8 -38 -7 -36 -7 30 -12
l70 -5 3 -37 c2 -29 7 -38 22 -38 15 0 19 9 22 43 l3 42 63 8 c34 5 62 12 62
17 0 13 -36 18 -80 10 -49 -9 -55 -1 -46 64 7 46 -1 56 -43 56 -16 0 -18 -8
-13 -70z"/>
</g>
<g id="part-2" class="char-part">
  <path d="M651 528 c-5 -13 -36 -48 -68 -79 l-58 -57 -165 -16 c-91 -9 -180
-16 -197 -16 -18 0 -33 -4 -33 -10 0 -19 70 -21 173 -5 58 9 120 15 139 13
l33 -3 -50 -35 c-27 -19 -106 -63 -175 -97 -138 -69 -132 -86 10 -28 89 37
174 86 249 142 l44 33 143 0 c80 0 145 4 149 10 3 5 -8 16 -26 25 -27 14 -42
15 -121 5 -49 -7 -91 -10 -94 -8 -2 3 23 26 56 53 64 51 72 68 41 85 -29 15
-41 12 -50 -12z"/>
</g>
<g id="part-3" class="char-part">
  <path d="M479 286 c-85 -16 -118 -36 -112 -70 3 -13 0 -47 -6 -76 -8 -36 -8
-57 -1 -71 14 -25 26 -24 33 1 5 18 14 20 86 20 77 0 82 -1 93 -25 14 -31 33
-32 52 -2 21 32 25 215 5 228 -18 11 -67 10 -150 -5z m109 -47 c3 -25 0 -26
-55 -32 -32 -4 -75 -10 -95 -13 l-38 -7 0 36 0 36 53 4 c28 2 70 3 92 3 35 -1
40 -4 43 -27z m0 -86 l-3 -38 -92 -3 -93 -3 0 29 c0 29 1 29 78 39 123 16 114
18 110 -24z"/>
</g>
</g>
</svg>