<?xml version="1.0" standalone="no"?>
<!DOCTYPE svg PUBLIC "-//W3C//DTD SVG 20010904//EN"
 "http://www.w3.org/TR/2001/REC-SVG-20010904/DTD/svg10.dtd">
<svg version="1.0" xmlns="http://www.w3.org/2000/svg"
 width="96.000000pt" height="68.000000pt" viewBox="0 0 96.000000 68.000000"
 preserveAspectRatio="xMidYMid meet">
<metadata>
Created by potrace 1.16, written by Peter Selinger 2001-2019
Combined from part_0.svg through part_5.svg with named groups
</metadata>
<g transform="translate(0.000000,68.000000) scale(0.100000,-0.100000)" fill="#000000" stroke="none">
<g id="part-0" class="char-part">
  <path d="M320 582 l0 -40 -66 -7 c-56 -6 -63 -9 -53 -22 9 -10 28 -14 66 -11
44 2 53 0 53 -14 0 -12 -12 -19 -45 -24 -25 -3 -45 -10 -45 -15 0 -14 45 -28
69 -22 17 4 21 1 21 -21 0 -20 -5 -26 -22 -27 -13 -1 -27 -2 -33 -4 -5 -1 -30
-3 -54 -3 -39 -2 -42 -4 -30 -18 13 -16 60 -15 115 1 18 6 22 2 28 -29 9 -47
21 -45 38 6 12 38 18 43 55 53 62 15 65 27 5 19 -48 -6 -52 -5 -52 14 0 16 9
21 47 27 44 6 46 8 28 21 -10 8 -31 14 -47 14 -17 0 -28 5 -28 14 0 14 29 26
68 26 39 0 19 24 -23 30 -36 5 -39 8 -40 35 0 25 -4 31 -27 33 -26 3 -28 1
-28 -36z"/>
  <path d="M615 530 c-16 -4 -51 -8 -77 -9 -58 -1 -76 -21 -19 -21 30 0 41 -4
41 -15 0 -28 -38 -92 -71 -119 -36 -30 -32 -47 5 -23 57 38 134 136 122 155
-7 11 59 26 74 17 13 -8 13 -49 -2 -97 -11 -38 -43 -59 -67 -43 -17 10 -12 -8
8 -32 40 -48 74 -18 111 98 25 75 25 81 9 90 -20 10 -90 10 -134 -1z"/>
  <path d="M420 286 l0 -33 -77 -7 c-42 -3 -100 -6 -130 -6 -54 0 -70 -13 -31
-26 27 -8 94 -6 171 4 68 10 72 3 23 -54 -30 -35 -66 -57 -166 -102 -25 -10
-25 -11 -2 -11 36 -1 128 35 175 69 24 17 54 49 66 71 l22 39 149 0 c82 0 156
3 165 6 14 6 13 8 -5 21 -17 12 -46 13 -160 7 -132 -6 -140 -6 -134 11 8 20
-18 45 -48 45 -14 0 -18 -8 -18 -34z"/>
  <path d="M590 124 c122 -90 150 -101 150 -60 0 33 -39 62 -117 86 -96 30 -102
25 -33 -26z"/>
</g>
<g id="part-1" class="char-part">
  <path d="M324 585 c6 -31 4 -36 -19 -45 -15 -6 -44 -10 -66 -10 -21 0 -39 -4
-39 -9 0 -12 55 -21 90 -14 27 5 30 3 30 -21 0 -23 -4 -26 -32 -26 -42 0 -67
-14 -43 -24 9 -3 30 -6 46 -6 25 0 29 -4 29 -27 0 -44 12 -103 20 -103 10 0
30 80 30 119 0 30 2 31 41 31 24 0 38 4 34 10 -3 6 -22 10 -41 10 -30 0 -34 3
-34 25 0 22 4 25 39 25 22 0 42 4 45 9 7 10 -42 24 -65 19 -9 -2 -14 6 -14 25
-1 28 -18 47 -44 47 -10 0 -12 -9 -7 -35z"/>
</g>
<g id="part-2" class="char-part">
  <path d="M574 502 c-5 -4 -18 -28 -28 -54 -10 -27 -34 -62 -57 -82 -47 -43
-28 -48 28 -7 42 30 108 125 98 142 -7 11 -26 12 -41 1z"/>
</g>
<g id="part-3" class="char-part">
  <path d="M420 286 l0 -33 -77 -7 c-42 -3 -100 -6 -130 -6 -55 0 -71 -15 -27
-26 14 -4 70 -3 126 1 l100 7 -18 -32 c-26 -44 -69 -76 -151 -110 -57 -25 -63
-30 -37 -30 41 0 120 27 167 58 21 14 52 47 69 73 l31 49 151 0 c157 0 197 8
157 30 -16 8 -60 10 -157 4 -132 -7 -134 -6 -134 14 0 22 -26 42 -54 42 -11 0
-16 -10 -16 -34z"/>
  <path d="M540 162 c13 -9 44 -32 69 -50 98 -75 131 -87 131 -49 0 41 -39 66
-151 96 -65 18 -71 18 -49 3z"/>
</g>
</g>
</svg>