<?xml version="1.0" standalone="no"?>
<!DOCTYPE svg PUBLIC "-//W3C//DTD SVG 20010904//EN"
 "http://www.w3.org/TR/2001/REC-SVG-20010904/DTD/svg10.dtd">
<svg version="1.0" xmlns="http://www.w3.org/2000/svg"
 width="96.000000pt" height="68.000000pt" viewBox="0 0 96.000000 68.000000"
 preserveAspectRatio="xMidYMid meet">
<metadata>
Created by potrace 1.16, written by Peter Selinger 2001-2019
Combined from part_0.svg through part_5.svg with named groups
</metadata>
<g transform="translate(0.000000,68.000000) scale(0.100000,-0.100000)" fill="#000000" stroke="none">
<g id="part-0" class="char-part">
  <path d="M505 606 c14 -47 45 -191 45 -212 0 -19 -7 -22 -67 -28 -38 -4 -76
-10 -85 -12 -15 -4 -18 1 -18 30 0 33 2 35 43 41 24 4 50 11 58 16 25 16 -11
30 -59 24 l-44 -5 4 57 c3 54 2 58 -23 67 -34 12 -68 1 -51 -16 7 -7 12 -35
12 -64 0 -56 -7 -64 -60 -64 -16 0 -31 -4 -34 -9 -8 -12 18 -21 59 -21 30 0
33 -3 37 -32 3 -30 1 -33 -27 -35 -16 -1 -68 -7 -113 -14 -63 -8 -81 -14 -72
-23 19 -19 74 -13 407 40 40 6 42 5 48 -22 4 -16 16 -53 26 -82 21 -57 19 -68
-14 -83 -12 -5 -40 -21 -62 -35 -38 -23 -38 -24 -10 -18 17 4 52 16 79 27 47
20 49 20 62 3 52 -71 127 -126 174 -126 17 0 20 6 20 48 0 26 -3 57 -6 70 -6
21 -8 20 -25 -17 -10 -23 -24 -41 -31 -41 -8 0 -30 17 -49 38 -67 71 -66 66
-15 123 53 59 56 76 20 89 -32 12 -44 6 -44 -23 0 -24 -25 -67 -39 -67 -11 0
-52 110 -45 121 3 5 28 9 55 9 36 0 49 4 46 13 -3 8 -22 11 -59 10 l-55 -3 -7
46 c-3 26 -6 75 -6 109 0 67 -7 79 -53 87 -26 5 -28 3 -22 -16z"/>
  <path d="M640 511 c1 -12 74 -61 92 -61 21 0 25 34 6 46 -16 10 -98 22 -98 15z"/>
  <path d="M345 250 c-16 -4 -52 -8 -79 -9 -42 -1 -47 -3 -41 -18 6 -15 20 -58
42 -123 4 -13 7 -12 18 4 8 10 18 15 23 12 6 -3 37 -3 69 0 59 6 59 7 60 39 1
18 9 45 19 60 15 23 15 28 3 36 -16 10 -71 10 -114 -1z m50 -62 c-4 -24 -8
-43 -9 -44 -7 -6 -96 -12 -100 -6 -2 4 -7 24 -11 44 -7 34 -5 37 22 41 15 2
45 5 66 6 l39 1 -7 -42z"/>
</g>
<g id="part-1" class="char-part">
  <path d="M318 516 l5 -76 -36 0 c-64 0 -77 -15 -17 -20 54 -5 55 -6 58 -37 2
-25 8 -33 22 -33 14 0 20 9 22 37 2 25 8 39 18 40 62 8 90 15 90 25 0 7 -18 9
-50 6 l-50 -5 0 63 c0 45 -4 64 -12 64 -7 0 -22 3 -34 6 -20 5 -21 3 -16 -70z"/>
</g>
<g id="part-2" class="char-part">
  <path d="M503 609 c17 -62 49 -230 46 -233 -2 -2 -92 -14 -199 -26 -107 -12
-208 -25 -225 -29 l-30 -8 30 -12 c25 -11 62 -7 229 19 109 17 200 29 201 28
12 -12 54 -163 48 -169 -4 -4 -35 -24 -68 -44 -44 -27 -52 -35 -31 -30 16 3
48 15 70 26 22 10 45 19 50 19 6 0 24 -18 40 -40 38 -51 93 -89 140 -97 l36
-6 0 39 c0 22 -3 57 -7 78 l-6 39 -16 -43 c-9 -24 -21 -45 -28 -47 -13 -5 -89
60 -104 89 -8 15 -1 29 41 76 l51 57 -22 18 c-34 27 -59 22 -59 -12 0 -15 -10
-41 -22 -56 l-22 -28 -22 59 c-32 84 -32 84 30 84 30 0 57 4 61 9 9 15 -33 24
-80 17 l-42 -7 -7 47 c-3 26 -6 77 -6 115 0 62 -2 68 -22 74 -64 18 -61 19
-55 -6z"/>
  <path d="M640 510 c0 -14 69 -60 89 -60 23 0 30 34 9 46 -18 11 -98 22 -98 14z"/>
</g>
<g id="part-3" class="char-part">
  <path d="M365 255 c-27 -7 -74 -14 -104 -14 -51 -1 -53 -2 -39 -18 9 -10 19
-34 23 -53 13 -62 24 -83 38 -72 6 5 45 13 85 17 59 6 72 10 68 22 -4 8 3 35
14 60 11 26 19 47 18 48 -8 6 -47 25 -50 24 -2 -1 -25 -7 -53 -14z m27 -65
c-2 -19 -6 -37 -8 -39 -7 -8 -95 -18 -98 -12 -3 3 -7 23 -11 43 -7 36 -6 37
27 41 18 2 47 4 63 3 28 -1 30 -3 27 -36z"/>
</g>
</g>
</svg>