<?xml version="1.0" standalone="no"?>
<!DOCTYPE svg PUBLIC "-//W3C//DTD SVG 20010904//EN"
 "http://www.w3.org/TR/2001/REC-SVG-20010904/DTD/svg10.dtd">
<svg version="1.0" xmlns="http://www.w3.org/2000/svg"
 width="96.000000pt" height="68.000000pt" viewBox="0 0 96.000000 68.000000"
 preserveAspectRatio="xMidYMid meet">
<metadata>
Created by potrace 1.16, written by Peter Selinger 2001-2019
Combined from part_0.svg through part_5.svg with named groups
</metadata>
<g transform="translate(0.000000,68.000000) scale(0.100000,-0.100000)" fill="#000000" stroke="none">
<g id="part-0" class="char-part">
  <path d="M390 610 c0 -6 7 -24 15 -39 l14 -28 -75 -7 c-60 -6 -81 -4 -99 8
-24 15 -25 15 -49 -33 -21 -44 -23 -52 -10 -68 13 -17 16 -16 47 20 27 31 38
37 72 37 22 0 98 7 169 15 71 9 131 13 135 10 3 -3 -1 -15 -8 -26 -7 -12 -11
-22 -9 -24 5 -4 129 13 135 19 11 11 -40 56 -71 64 -17 5 -49 5 -71 1 -22 -5
-57 -8 -77 -9 -32 0 -38 3 -38 21 0 13 -11 25 -35 35 -41 17 -45 17 -45 4z"/>
  <path d="M390 481 c0 -40 -11 -51 -50 -51 -42 0 -67 -19 -28 -21 13 -1 29 -1
36 0 19 3 14 -11 -19 -49 -26 -30 -31 -33 -39 -19 -11 18 -67 45 -76 36 -10
-10 30 -56 51 -59 17 -2 12 -9 -25 -36 -25 -19 -63 -45 -85 -59 -38 -23 -38
-24 -10 -18 17 3 57 22 89 41 65 39 70 37 81 -27 6 -37 7 -37 53 -36 l47 2 3
-62 3 -63 -32 0 -31 0 23 -25 c50 -52 79 -27 79 69 0 84 8 99 41 91 27 -7 37
6 61 77 l13 37 41 -29 c23 -15 52 -31 64 -35 28 -9 155 4 144 15 -5 4 -40 15
-79 24 -76 19 -165 54 -165 66 0 4 18 12 40 19 49 14 57 27 34 52 -18 19 -18
19 -54 -23 -35 -40 -38 -41 -66 -30 -16 7 -40 21 -54 32 l-25 19 53 7 c79 10
79 28 -1 22 -53 -5 -64 -3 -60 8 7 19 -15 44 -38 44 -12 0 -19 -7 -19 -19z
m97 -108 l56 -38 -34 -7 c-19 -3 -68 -10 -109 -14 l-75 -7 20 24 c43 52 69 79
77 79 5 0 34 -17 65 -37z m23 -77 c0 -17 -22 -22 -116 -31 -60 -6 -71 -5 -71
8 0 12 15 18 56 22 31 3 65 7 76 9 44 7 55 5 55 -8z m-3 -53 c7 -19 -19 -27
-95 -31 -67 -4 -74 -2 -70 15 3 15 15 19 68 23 82 7 93 6 97 -7z"/>
  <path d="M279 138 c-6 -13 -23 -35 -37 -50 -35 -38 -17 -35 43 8 54 38 63 57
28 62 -14 2 -26 -4 -34 -20z"/>
  <path d="M590 105 c46 -47 56 -53 68 -41 22 22 5 53 -42 75 -77 38 -86 27 -26
-34z"/>
</g>
<g id="part-1" class="char-part">
  <path d="M408 576 c18 -30 18 -35 5 -40 -26 -10 -173 -7 -173 4 0 6 -4 10 -10
10 -14 0 -53 -87 -45 -100 11 -19 34 -10 49 18 15 28 15 28 195 47 100 10 184
16 187 12 4 -4 1 -13 -6 -22 -7 -9 -11 -17 -9 -20 10 -9 119 8 119 19 0 6 -16
21 -36 34 -34 22 -39 23 -122 13 -109 -14 -102 -14 -95 4 8 22 -25 55 -55 55
l-24 0 20 -34z"/>
</g>
<g id="part-2" class="char-part">
  <path d="M390 481 c0 -39 -11 -51 -49 -51 -20 0 -43 -5 -51 -10 -11 -7 -4 -10
28 -10 23 0 42 -4 42 -8 0 -16 -118 -122 -180 -161 -78 -49 -54 -55 34 -9 37
19 90 61 133 105 84 86 64 87 214 -18 53 -37 107 -70 119 -74 22 -7 165 3 157
11 -2 3 -44 16 -93 29 -84 23 -225 85 -269 119 -20 15 -19 15 6 16 44 0 89 12
89 23 0 6 -24 8 -65 4 -57 -4 -64 -3 -53 10 10 12 9 18 -7 29 -27 20 -55 18
-55 -5z"/>
</g>
<g id="part-3" class="char-part">
  <path d="M596 393 c-14 -20 -24 -38 -23 -39 7 -8 97 33 97 43 0 11 -30 33 -44
33 -3 0 -17 -17 -30 -37z"/>
  <path d="M216 358 c10 -13 24 -26 29 -30 17 -13 45 -9 45 6 0 20 -39 46 -69
46 -24 0 -24 0 -5 -22z"/>
</g>
<g id="part-4" class="char-part">
  <path d="M419 153 c3 -21 5 -51 3 -67 -3 -25 -7 -28 -33 -24 -16 3 -29 3 -29
0 0 -2 14 -17 30 -34 30 -29 32 -30 50 -13 17 15 20 31 20 97 0 75 -1 78 -24
78 -21 0 -23 -3 -17 -37z"/>
  <path d="M280 145 c0 -8 -17 -34 -37 -57 l-38 -42 40 23 c92 51 118 91 59 91
-15 0 -24 -6 -24 -15z"/>
  <path d="M585 110 c51 -52 72 -61 82 -34 8 21 -33 62 -76 74 -57 16 -58 13 -6
-40z"/>
</g>
</g>
</svg>