<?xml version="1.0" standalone="no"?>
<!DOCTYPE svg PUBLIC "-//W3C//DTD SVG 20010904//EN"
 "http://www.w3.org/TR/2001/REC-SVG-20010904/DTD/svg10.dtd">
<svg version="1.0" xmlns="http://www.w3.org/2000/svg"
 width="96.000000pt" height="68.000000pt" viewBox="0 0 96.000000 68.000000"
 preserveAspectRatio="xMidYMid meet">
<metadata>
Created by potrace 1.16, written by Peter Selinger 2001-2019
Combined from part_0.svg through part_5.svg with named groups
</metadata>
<g transform="translate(0.000000,68.000000) scale(0.100000,-0.100000)" fill="#000000" stroke="none">
<g id="part-0" class="char-part">
  <path d="M259 563 c-22 -70 -51 -118 -117 -191 -36 -40 -62 -75 -59 -78 7 -7
59 28 106 70 l33 31 -4 -120 c-2 -67 -10 -130 -16 -142 -10 -18 -10 -30 2 -58
8 -19 20 -35 26 -35 20 0 29 46 38 195 6 118 5 154 -5 171 -12 18 -8 28 31 90
42 64 44 70 29 86 -27 30 -50 22 -64 -19z"/>
  <path d="M664 548 l1 -53 -53 -3 c-47 -3 -52 -5 -47 -22 3 -10 -1 -33 -10 -51
-22 -42 -10 -51 50 -40 28 5 53 7 57 5 5 -3 8 -23 8 -45 0 -21 4 -39 9 -39 8
0 24 46 25 75 1 6 25 11 54 13 69 4 66 27 -4 27 -49 0 -49 0 -45 30 4 41 8 45
39 46 26 1 26 2 -6 12 -31 9 -33 14 -30 43 3 27 -1 35 -20 43 -12 6 -24 11
-26 11 -2 0 -3 -24 -2 -52z m6 -98 c0 -37 -12 -50 -46 -50 -19 0 -34 2 -34 4
0 1 5 17 11 34 15 43 69 53 69 12z"/>
  <path d="M402 532 c-6 -21 -28 -57 -48 -80 -50 -59 -37 -63 22 -8 34 32 57 46
76 46 32 0 34 -9 13 -48 -30 -55 -30 -56 -59 -37 -34 23 -49 9 -18 -16 29 -23
28 -28 -26 -73 -50 -41 -40 -48 16 -12 39 25 89 76 136 140 38 50 27 72 -33
68 -39 -2 -41 -1 -31 17 8 16 7 22 -9 31 -27 14 -27 14 -39 -28z"/>
  <path d="M527 301 l5 -39 -58 -7 c-112 -12 -134 -17 -128 -27 4 -7 32 -9 75
-5 38 3 69 3 69 -1 0 -13 -93 -98 -133 -122 -21 -12 -36 -25 -33 -27 8 -9 98
39 136 72 78 68 73 69 66 -20 -7 -84 1 -112 28 -102 13 5 16 23 16 92 0 47 2
85 5 85 2 0 34 -29 71 -64 68 -65 96 -78 149 -69 60 10 59 15 -7 38 -38 13
-103 48 -145 77 l-77 53 112 3 c112 3 138 13 85 33 -17 6 -53 7 -98 1 -40 -4
-77 -6 -82 -5 -5 2 -8 16 -5 32 3 23 -1 29 -20 34 -36 10 -36 9 -31 -32z"/>
</g>
<g id="part-1" class="char-part">
  <path d="M270 581 c0 -36 -70 -157 -125 -215 -31 -32 -53 -61 -51 -64 7 -6
104 68 110 85 3 7 10 13 16 13 19 0 11 -143 -15 -280 -4 -24 -2 -41 9 -55 28
-38 39 -4 48 166 9 140 8 163 -5 177 -14 13 -11 22 29 81 24 36 44 72 44 79 0
7 -12 17 -26 22 -34 13 -34 13 -34 -9z"/>
</g>
<g id="part-2" class="char-part">
  <path d="M405 543 c-7 -30 -35 -74 -73 -115 -41 -44 -9 -32 46 17 33 30 59 45
77 45 23 0 25 -3 19 -22 -11 -38 -61 -104 -110 -147 -58 -51 -34 -54 32 -5 41
30 113 114 147 170 13 22 -28 36 -68 25 -36 -10 -41 -6 -25 19 5 9 5 19 -2 27
-17 21 -35 15 -43 -14z"/>
</g>
<g id="part-3" class="char-part">
  <path d="M666 551 c6 -45 5 -49 -17 -54 -13 -4 -39 -7 -57 -7 -29 0 -32 -2
-26 -24 3 -15 -1 -34 -12 -51 -24 -37 -9 -47 51 -36 28 5 53 7 57 5 5 -3 8
-23 8 -45 0 -66 21 -49 32 26 3 17 12 21 56 23 28 2 52 7 52 12 0 14 -38 22
-70 15 -29 -6 -30 -5 -30 28 0 30 4 35 33 44 l32 10 -33 7 c-31 7 -33 10 -30
43 2 28 -2 38 -17 44 -34 13 -36 10 -29 -40z m4 -110 c0 -30 -14 -41 -56 -41
-27 0 -29 6 -14 44 7 20 16 26 40 26 26 0 30 -3 30 -29z"/>
</g>
<g id="part-4" class="char-part">
  <path d="M527 301 c5 -38 5 -38 -33 -44 -22 -4 -67 -7 -101 -7 -64 0 -84 -14
-37 -26 14 -4 50 -4 80 0 30 3 54 2 54 -3 0 -13 -89 -93 -134 -121 -22 -13
-35 -25 -29 -27 19 -7 89 34 143 82 28 25 53 45 57 45 3 0 3 -35 0 -77 -7 -82
1 -110 27 -100 12 5 16 25 18 91 l3 86 35 -32 c19 -17 52 -47 73 -67 34 -33
41 -35 93 -33 31 1 61 5 66 8 5 3 -21 17 -58 30 -61 21 -122 57 -194 114 l-25
20 113 0 c61 0 112 4 112 9 0 19 -65 30 -135 22 -38 -5 -73 -7 -77 -5 -3 2 -4
13 -1 24 6 24 -13 50 -37 50 -15 0 -17 -6 -13 -39z"/>
</g>
</g>
</svg>