<?xml version="1.0" standalone="no"?>
<!DOCTYPE svg PUBLIC "-//W3C//DTD SVG 20010904//EN"
 "http://www.w3.org/TR/2001/REC-SVG-20010904/DTD/svg10.dtd">
<svg version="1.0" xmlns="http://www.w3.org/2000/svg"
 width="96.000000pt" height="68.000000pt" viewBox="0 0 96.000000 68.000000"
 preserveAspectRatio="xMidYMid meet">
<metadata>
Created by potrace 1.16, written by Peter Selinger 2001-2019
Combined from part_0.svg through part_5.svg with named groups
</metadata>
<g transform="translate(0.000000,68.000000) scale(0.100000,-0.100000)" fill="#000000" stroke="none">
<g id="part-0" class="char-part">
  <path d="M468 546 l4 -74 -86 -12 c-114 -16 -115 -35 -1 -26 l85 6 0 -39 0
-39 -65 -7 c-75 -8 -78 -25 -4 -25 27 0 49 -3 49 -6 0 -14 -94 -116 -114 -124
-29 -13 -81 -58 -75 -65 11 -10 91 39 145 87 28 27 55 48 59 48 7 0 0 -98 -11
-165 -4 -22 0 -38 15 -55 l20 -25 15 35 c11 27 13 60 9 138 -3 56 -3 102 1
102 4 0 28 -23 54 -52 98 -108 98 -108 173 -108 37 0 70 4 73 9 3 5 -22 19
-57 31 -34 12 -78 32 -97 43 -46 27 -150 110 -150 120 0 4 33 7 74 7 79 0 104
12 62 31 -18 9 -40 9 -75 2 -28 -6 -53 -8 -56 -5 -3 3 -5 20 -5 37 0 30 3 33
38 39 20 3 60 6 89 6 59 0 76 14 39 31 -18 9 -42 9 -88 2 -35 -6 -65 -9 -67
-7 -2 2 -3 29 -2 61 2 57 -7 73 -39 73 -13 0 -15 -13 -12 -74z"/>
  <path d="M180 546 c0 -20 69 -78 88 -74 27 5 26 43 0 60 -35 22 -88 31 -88 14z"/>
  <path d="M128 412 c-26 -5 -22 -16 18 -52 40 -35 67 -36 72 -3 3 17 -5 26 -35
40 -21 10 -46 17 -55 15z"/>
  <path d="M225 275 c-22 -31 -61 -71 -87 -90 l-48 -35 21 -35 c12 -19 27 -35
35 -35 8 0 27 26 43 57 16 32 42 83 60 113 53 95 37 111 -24 25z"/>
</g>
<g id="part-1" class="char-part">
  <path d="M210 515 c34 -35 69 -43 77 -18 6 16 -55 53 -86 53 -25 0 -24 -1 9
-35z"/>
  <path d="M121 393 c39 -52 89 -70 89 -32 0 20 -50 49 -86 49 -14 0 -15 -3 -3
-17z"/>
  <path d="M226 269 c-22 -28 -57 -65 -78 -82 -21 -17 -38 -38 -38 -46 0 -22 29
-63 40 -56 13 8 122 215 118 226 -2 5 -21 -13 -42 -42z"/>
</g>
<g id="part-2" class="char-part">
  <path d="M460 601 c5 -11 10 -44 10 -74 l0 -54 -90 -12 c-117 -16 -112 -36 6
-28 l84 6 0 -43 c0 -65 -63 -143 -189 -235 -42 -31 -44 -33 -16 -27 46 11 105
49 158 102 l49 49 -8 -85 c-11 -112 -10 -148 4 -162 9 -9 16 -8 30 5 15 15 17
35 14 142 l-3 125 53 -58 c107 -115 102 -112 165 -112 32 0 69 3 81 7 20 5 13
10 -45 33 -97 38 -134 59 -197 110 -55 45 -55 45 -56 101 l0 56 38 7 c20 3 60
6 89 6 59 0 76 14 38 32 -18 8 -43 9 -91 1 l-66 -9 5 58 c6 63 -5 78 -53 78
-17 0 -19 -3 -10 -19z"/>
</g>
<g id="part-3" class="char-part">
  <path d="M470 401 l0 -39 -65 -7 c-80 -8 -76 -25 6 -25 l59 0 0 -60 c0 -53 2
-60 20 -60 17 0 19 8 22 68 l3 67 72 5 c81 6 97 14 60 31 -19 9 -40 9 -76 2
-28 -6 -53 -8 -56 -5 -3 3 -5 18 -5 34 0 21 -5 28 -20 28 -17 0 -20 -7 -20
-39z"/>
</g>
</g>
</svg>