<?xml version="1.0" standalone="no"?>
<!DOCTYPE svg PUBLIC "-//W3C//DTD SVG 20010904//EN"
 "http://www.w3.org/TR/2001/REC-SVG-20010904/DTD/svg10.dtd">
<svg version="1.0" xmlns="http://www.w3.org/2000/svg"
 width="96.000000pt" height="68.000000pt" viewBox="0 0 96.000000 68.000000"
 preserveAspectRatio="xMidYMid meet">
<metadata>
Created by potrace 1.16, written by Peter Selinger 2001-2019
Combined from part_0.svg through part_5.svg with named groups
</metadata>
<g transform="translate(0.000000,68.000000) scale(0.100000,-0.100000)" fill="#000000" stroke="none">
<g id="part-0" class="char-part">
  <path d="M170 542 c0 -17 76 -72 99 -72 30 0 38 28 15 51 -22 21 -114 38 -114
21z"/>
  <path d="M680 518 c0 -16 -48 -116 -60 -123 -14 -9 -12 -43 3 -52 7 -4 32 -32
56 -60 46 -55 81 -69 81 -33 0 25 -31 59 -82 89 -21 13 -38 26 -38 29 0 4 20
27 45 52 63 63 71 78 48 96 -22 16 -53 18 -53 2z"/>
  <path d="M540 495 c0 -27 -32 -98 -57 -126 -13 -15 -11 -20 10 -41 14 -14 37
-44 51 -66 29 -47 56 -55 56 -18 0 17 -15 37 -49 66 -56 46 -58 35 16 119 35
38 40 60 21 79 -22 22 -48 14 -48 -13z"/>
  <path d="M401 463 c-7 -25 -21 -64 -31 -86 l-19 -40 22 -26 c12 -15 31 -44 42
-64 21 -39 55 -51 55 -19 0 18 -66 92 -82 92 -18 0 -6 28 37 84 50 67 52 73
28 92 -30 22 -40 16 -52 -33z"/>
  <path d="M178 383 c-78 -29 -81 -49 -6 -39 l50 7 -7 -38 c-5 -33 -2 -42 19
-63 15 -13 26 -34 26 -47 0 -22 -3 -23 -80 -23 -61 0 -80 -3 -80 -14 0 -32 28
-40 91 -27 33 6 76 9 97 5 31 -5 186 -49 296 -85 16 -5 47 -9 69 -9 41 0 175
35 191 50 9 9 -49 15 -219 25 -93 6 -197 22 -287 46 -33 8 -38 14 -38 39 0 20
-9 36 -30 52 l-29 23 34 44 c19 24 35 47 35 51 0 7 -47 31 -58 29 -4 -1 -37
-13 -74 -26z"/>
</g>
<g id="part-1" class="char-part">
  <path d="M180 542 c0 -17 56 -62 80 -64 38 -4 40 36 3 50 -44 16 -83 23 -83
14z"/>
  <path d="M190 381 c-75 -28 -77 -31 -17 -26 60 5 63 3 47 -40 -9 -23 -6 -32
20 -63 54 -65 38 -82 -79 -82 -56 0 -62 -2 -50 -16 10 -13 27 -14 98 -9 83 6
92 5 256 -44 93 -28 179 -51 190 -51 20 0 184 46 192 53 2 2 -72 9 -164 14
-95 6 -217 21 -281 34 -112 24 -113 24 -107 50 5 22 0 33 -26 57 l-32 30 31
40 c36 45 39 57 16 66 -22 9 -43 6 -94 -13z"/>
</g>
<g id="part-2" class="char-part">
  <path d="M405 478 c-4 -18 -18 -56 -31 -85 l-22 -52 41 -65 c25 -39 49 -65 60
-66 32 0 19 42 -28 85 l-44 42 44 63 c50 71 54 85 26 100 -31 16 -39 12 -46
-22z"/>
</g>
<g id="part-3" class="char-part">
  <path d="M537 484 c-3 -19 -20 -58 -38 -86 -30 -51 -31 -52 -12 -67 10 -9 34
-38 52 -64 20 -29 39 -47 49 -45 32 6 23 31 -28 79 l-52 49 28 38 c81 108 76
98 59 116 -28 28 -52 20 -58 -20z"/>
</g>
<g id="part-4" class="char-part">
  <path d="M668 482 c-10 -27 -29 -65 -42 -85 -24 -35 -24 -37 -7 -46 10 -6 37
-35 60 -66 27 -36 49 -55 59 -53 44 8 13 61 -62 107 -40 25 -43 33 -21 51 9 7
34 35 57 63 40 47 41 50 23 63 -33 25 -49 17 -67 -34z"/>
</g>
</g>
</svg>