<?xml version="1.0" standalone="no"?>
<!DOCTYPE svg PUBLIC "-//W3C//DTD SVG 20010904//EN"
 "http://www.w3.org/TR/2001/REC-SVG-20010904/DTD/svg10.dtd">
<svg version="1.0" xmlns="http://www.w3.org/2000/svg"
 width="96.000000pt" height="68.000000pt" viewBox="0 0 96.000000 68.000000"
 preserveAspectRatio="xMidYMid meet">
<metadata>
Created by potrace 1.16, written by Peter Selinger 2001-2019
Combined from part_0.svg through part_5.svg with named groups
</metadata>
<g transform="translate(0.000000,68.000000) scale(0.100000,-0.100000)" fill="#000000" stroke="none">
<g id="part-0" class="char-part">
  <path d="M229 553 c-1 -5 0 -34 1 -65 1 -31 -3 -81 -10 -111 l-11 -56 -65 -6
c-35 -4 -64 -11 -64 -16 0 -5 11 -16 26 -25 20 -14 32 -15 59 -7 33 11 33 10
24 -14 -15 -40 -11 -52 24 -69 17 -9 34 -18 36 -20 6 -5 -38 -41 -87 -70 -24
-15 -41 -29 -38 -31 11 -11 70 11 117 43 l51 34 25 -20 c33 -26 63 -26 63 0 0
15 -21 36 -57 55 -2 1 6 20 17 43 11 23 23 55 26 71 4 20 14 31 30 35 23 6 34
26 14 26 -5 0 -19 9 -30 20 -11 11 -30 20 -41 20 -17 0 -20 -5 -17 -24 4 -19
0 -26 -16 -30 -55 -15 -56 -13 -25 91 15 54 27 98 26 100 -10 9 -77 32 -78 26z
m76 -300 c-23 -62 -27 -66 -60 -53 -24 9 -27 14 -21 42 3 18 10 36 15 41 10
10 73 26 80 21 2 -2 -4 -25 -14 -51z"/>
  <path d="M595 504 c-38 -8 -96 -14 -127 -15 -55 -2 -56 -2 -43 -23 7 -12 17
-43 21 -71 13 -92 14 -94 81 -83 32 5 75 7 96 5 31 -4 40 -1 52 17 15 22 65
143 65 156 0 9 -48 30 -63 29 -7 -1 -43 -8 -82 -15z m72 -61 c-3 -27 -10 -60
-16 -75 -10 -27 -14 -28 -76 -28 -36 0 -68 0 -72 -1 -21 -2 -10 21 22 45 33
25 37 26 57 12 12 -9 32 -16 43 -16 19 1 19 2 -4 20 -13 11 -29 20 -37 20 -17
0 -19 16 -3 26 6 3 9 15 6 25 -4 17 1 19 40 19 l46 0 -6 -47z m-119 25 c-5
-22 -45 -92 -55 -95 -6 -2 -13 9 -16 24 -4 15 -9 38 -13 50 -5 18 -1 22 23 26
53 8 63 7 61 -5z"/>
  <path d="M545 254 c-55 -8 -111 -12 -123 -9 -22 5 -23 4 -17 -27 4 -18 13 -51
21 -72 13 -41 11 -58 -9 -55 -7 1 -25 1 -42 0 -45 -2 -15 -23 31 -22 250 5
444 15 444 22 0 14 -46 29 -86 29 -19 0 -34 2 -34 5 0 7 36 75 52 97 10 14 9
20 -7 32 -25 19 -94 19 -230 0z m165 -21 c0 -10 -6 -40 -13 -68 -12 -44 -17
-50 -41 -53 -26 -3 -28 -1 -22 22 3 14 9 46 13 71 5 41 8 45 34 45 21 0 29 -5
29 -17z m-104 -55 c-9 -72 -11 -78 -35 -78 -14 0 -19 14 -27 70 l-10 70 39 0
40 0 -7 -62z m-96 31 c5 -8 11 -35 15 -60 7 -44 6 -47 -20 -51 -20 -4 -28 -1
-34 16 -13 33 -23 95 -17 105 8 12 47 6 56 -10z"/>
</g>
<g id="part-1" class="char-part">
  <path d="M234 515 c4 -20 2 -71 -5 -114 -12 -88 -15 -91 -96 -91 -24 0 -43 -4
-43 -10 0 -17 42 -32 77 -27 38 6 36 10 17 -51 -4 -14 4 -23 35 -37 48 -21 45
-28 -34 -81 -37 -26 -45 -34 -28 -34 11 0 44 16 73 35 29 19 56 35 61 35 6 0
23 -10 40 -22 25 -18 32 -20 39 -9 12 21 2 38 -30 51 l-28 12 22 51 c13 29 28
64 34 80 6 15 18 27 27 27 8 0 15 5 15 10 0 6 -7 10 -16 10 -8 0 -13 4 -10 9
5 8 -35 31 -54 31 -5 0 -7 -13 -4 -29 6 -27 4 -29 -32 -33 -22 -3 -41 -4 -42
-2 -2 1 8 44 23 96 l27 92 -22 18 c-37 30 -53 24 -46 -17z m81 -244 c-26 -73
-34 -83 -63 -76 -39 9 -43 16 -30 58 9 29 19 39 42 46 62 18 67 16 51 -28z"/>
</g>
<g id="part-2" class="char-part">
  <path d="M655 515 c-27 -13 -205 -31 -225 -23 -19 7 -21 5 -15 -9 16 -38 26
-70 38 -123 10 -46 16 -55 32 -52 11 1 58 4 104 7 45 2 84 5 86 7 1 2 17 40
35 86 20 51 29 87 24 92 -11 11 -65 21 -79 15z m11 -75 c-13 -94 -15 -97 -98
-103 -40 -2 -74 -4 -74 -3 -1 0 -8 31 -17 68 l-15 67 62 9 c33 5 81 10 105 11
l44 1 -7 -50z"/>
</g>
<g id="part-3" class="char-part">
  <path d="M544 463 c-9 -30 -23 -57 -41 -83 -18 -25 -18 -25 19 3 l38 28 30
-23 c22 -15 33 -19 41 -11 8 8 4 15 -12 27 -13 9 -29 16 -36 16 -16 0 -17 12
-2 27 6 6 8 16 5 22 -11 17 -36 13 -42 -6z"/>
</g>
<g id="part-4" class="char-part">
  <path d="M606 179 c-7 -71 -11 -79 -35 -79 -15 0 -20 11 -26 65 -6 55 -9 65
-26 65 -16 0 -18 -4 -10 -17 5 -10 12 -39 16 -64 l7 -47 -94 -7 c-89 -8 -92
-9 -61 -21 23 -10 46 -11 90 -4 32 6 131 10 221 10 104 0 162 4 162 10 0 21
-53 30 -137 23 l-86 -6 7 39 c4 21 10 51 13 67 5 22 2 27 -14 27 -17 0 -21 -9
-27 -61z"/>
</g>
</g>
</svg>