<?xml version="1.0" standalone="no"?>
<!DOCTYPE svg PUBLIC "-//W3C//DTD SVG 20010904//EN"
 "http://www.w3.org/TR/2001/REC-SVG-20010904/DTD/svg10.dtd">
<svg version="1.0" xmlns="http://www.w3.org/2000/svg"
 width="96.000000pt" height="68.000000pt" viewBox="0 0 96.000000 68.000000"
 preserveAspectRatio="xMidYMid meet">
<metadata>
Created by potrace 1.16, written by Peter Selinger 2001-2019
Combined from part_0.svg through part_5.svg with named groups
</metadata>
<g transform="translate(0.000000,68.000000) scale(0.100000,-0.100000)" fill="#000000" stroke="none">
<g id="part-0" class="char-part">
  <path d="M407 633 c-3 -5 -2 -15 4 -23 5 -8 9 -27 9 -42 0 -27 -2 -28 -54 -28
-30 0 -57 -4 -61 -9 -9 -15 32 -23 75 -16 32 5 40 4 40 -8 0 -16 -17 -19 -195
-34 -52 -5 -89 -12 -87 -18 3 -11 201 -12 254 -1 24 5 29 3 26 -11 -2 -10 -10
-19 -18 -20 -8 -1 -37 -5 -64 -8 -69 -9 -44 -28 33 -23 51 2 61 0 61 -13 0
-12 -15 -19 -57 -27 l-58 -9 58 -2 c50 -1 57 -3 57 -21 0 -11 -3 -19 -7 -18
-20 4 -203 -15 -203 -22 0 -17 32 -18 109 -5 45 8 148 18 231 21 82 4 150 11
150 16 0 4 -10 9 -22 9 -43 3 -173 -2 -190 -7 -13 -4 -18 0 -18 15 0 17 6 21
38 22 20 0 46 4 57 8 19 8 19 8 -3 15 -13 4 -40 5 -62 1 -35 -6 -38 -5 -33 14
4 17 15 21 66 23 58 3 62 4 62 28 0 24 2 25 89 30 51 3 91 10 93 16 7 20 -46
34 -102 28 l-54 -7 2 28 c2 23 -3 29 -28 36 -18 5 -42 5 -59 -1 -49 -17 -58
-13 -51 19 4 18 2 32 -5 36 -19 12 -78 17 -83 8z m153 -118 c0 -11 -11 -15
-40 -15 -29 0 -40 4 -40 15 0 11 11 15 40 15 29 0 40 -4 40 -15z m-15 -65 c-3
-5 -19 -10 -36 -10 -16 0 -29 5 -29 10 0 6 16 10 36 10 21 0 33 -4 29 -10z"/>
  <path d="M505 253 c-33 -6 -95 -13 -137 -15 -43 -2 -78 -3 -78 -3 0 0 11 -29
23 -65 l23 -65 127 2 c70 1 131 5 136 8 5 3 17 30 26 60 27 84 -3 103 -120 78z
m72 -28 c7 -21 6 -21 -49 -27 -42 -5 -48 -3 -48 13 0 27 86 40 97 14z m-137
-25 c0 -17 -7 -20 -50 -20 -43 0 -50 3 -50 20 0 17 7 20 50 20 43 0 50 -3 50
-20z m128 -42 c-2 -19 -10 -24 -45 -26 -37 -3 -43 0 -43 17 0 14 8 21 28 24
60 9 64 8 60 -15z m-131 -3 c7 -20 5 -22 -38 -30 -29 -5 -38 -3 -43 11 -4 10
-1 21 6 26 22 13 68 9 75 -7z"/>
  <path d="M397 67 c-144 -7 -207 -13 -204 -21 4 -12 33 -13 347 -2 204 7 260
16 189 30 -35 7 -36 7 -332 -7z"/>
</g>
<g id="part-1" class="char-part">
  <path d="M413 613 c20 -73 22 -70 -46 -79 l-62 -9 63 -3 c53 -2 63 -6 60 -20
-3 -14 -25 -19 -142 -29 -76 -6 -140 -14 -143 -17 -14 -13 56 -17 153 -7 138
14 134 14 134 -8 0 -16 -11 -20 -67 -26 -53 -5 -63 -9 -49 -17 10 -6 40 -7 67
-4 31 4 49 3 49 -4 0 -16 40 -12 46 5 4 10 20 15 48 16 48 1 71 9 72 27 1 6 2
16 3 21 0 5 45 12 98 16 89 7 96 8 78 22 -15 11 -38 14 -87 10 -38 -2 -68 -2
-68 0 0 2 5 13 10 23 16 29 -19 43 -83 35 -29 -4 -54 -6 -57 -4 -3 2 -4 15 -2
28 4 28 -12 41 -51 41 -22 0 -27 -4 -24 -17z m153 -85 c10 -15 -24 -38 -58
-38 -21 0 -28 5 -28 19 0 27 71 43 86 19z m-6 -68 c0 -13 -34 -30 -59 -30 -14
0 -21 6 -21 20 0 17 7 20 40 20 22 0 40 -4 40 -10z"/>
</g>
<g id="part-2" class="char-part">
  <path d="M430 370 c0 -4 -26 -12 -57 -18 l-58 -9 58 -2 c43 -1 57 -5 57 -16 0
-18 -20 -23 -135 -33 -81 -7 -88 -9 -67 -21 18 -10 34 -10 70 -2 61 14 247 31
340 31 70 0 95 12 50 24 -21 5 -79 2 -170 -10 -33 -4 -38 -2 -38 16 0 16 7 20
33 21 35 1 88 15 72 19 -27 7 -155 7 -155 0z"/>
</g>
<g id="part-3" class="char-part">
  <path d="M505 254 c-33 -7 -97 -15 -142 -16 -46 -2 -83 -6 -83 -10 0 -5 4 -8
10 -8 5 0 18 -28 28 -62 l18 -62 54 4 c30 3 90 5 132 5 l77 0 21 56 c27 74 26
87 -7 95 -16 3 -32 7 -38 8 -5 1 -37 -3 -70 -10z m70 -34 c0 -11 -13 -16 -47
-18 -37 -2 -48 0 -48 12 0 15 28 25 70 22 15 0 25 -7 25 -16z m-137 -17 c-2
-14 -15 -19 -51 -21 -42 -3 -47 -1 -47 17 0 18 6 21 51 21 43 0 50 -3 47 -17z
m130 -45 c-3 -20 -9 -23 -43 -23 -29 0 -41 4 -43 17 -3 16 15 24 66 27 19 1
23 -3 20 -21z m-130 -9 c4 -22 -67 -37 -79 -17 -14 21 -11 26 19 31 42 7 57 3
60 -14z"/>
</g>
<g id="part-4" class="char-part">
  <path d="M403 66 c-116 -6 -215 -14 -218 -18 -17 -16 55 -19 208 -9 89 6 209
11 265 11 96 0 130 10 80 24 -28 7 -63 6 -335 -8z"/>
</g>
</g>
</svg>