<?xml version="1.0" standalone="no"?>
<!DOCTYPE svg PUBLIC "-//W3C//DTD SVG 20010904//EN"
 "http://www.w3.org/TR/2001/REC-SVG-20010904/DTD/svg10.dtd">
<svg version="1.0" xmlns="http://www.w3.org/2000/svg"
 width="96.000000pt" height="68.000000pt" viewBox="0 0 96.000000 68.000000"
 preserveAspectRatio="xMidYMid meet">
<metadata>
Created by potrace 1.16, written by Peter Selinger 2001-2019
Combined from part_0.svg through part_5.svg with named groups
</metadata>
<g transform="translate(0.000000,68.000000) scale(0.100000,-0.100000)" fill="#000000" stroke="none">
<g id="part-0" class="char-part">
  <path d="M219 593 c0 -5 0 -31 1 -59 2 -65 -15 -130 -36 -138 -9 -3 -36 -6
-61 -6 -40 0 -44 -2 -33 -16 23 -27 47 -35 75 -24 24 9 26 8 20 -7 -22 -51
-18 -70 19 -92 20 -13 36 -26 36 -30 0 -10 -76 -71 -88 -71 -5 0 -17 -9 -27
-20 -16 -17 -16 -20 -2 -20 27 0 61 16 107 52 l45 34 25 -23 c13 -13 30 -23
36 -23 18 0 88 82 103 122 12 32 19 37 55 40 23 3 43 3 45 1 3 -2 -2 -29 -10
-61 -14 -52 -18 -57 -42 -55 -32 2 -33 -4 -8 -36 13 -17 23 -22 40 -16 32 10
47 49 61 160 6 55 19 122 27 150 14 46 14 50 -4 63 -25 19 -223 4 -223 -17 0
-4 14 -6 30 -3 29 4 30 3 30 -40 0 -39 -3 -45 -27 -55 l-28 -11 28 -1 c25 -1
27 -4 21 -28 -9 -39 -13 -43 -37 -44 l-22 0 23 -9 c12 -5 22 -12 22 -15 0 -9
-50 -105 -55 -105 -2 0 -16 11 -30 24 l-25 24 27 82 c18 57 33 84 45 88 19 5
25 22 8 22 -5 0 -19 9 -30 20 -29 29 -60 26 -60 -4 0 -23 -33 -46 -47 -32 -3
2 6 39 20 80 19 56 22 77 14 84 -17 13 -67 24 -68 15z m339 -130 l3 -43 -39 0
c-39 0 -40 1 -44 41 -2 22 -1 42 1 45 3 3 21 4 41 2 34 -3 35 -5 38 -45z m-6
-96 c-4 -33 -5 -34 -43 -32 -48 2 -52 6 -40 38 8 19 18 27 43 29 44 5 45 4 40
-35z m-267 -52 c-8 -30 -17 -55 -20 -55 -20 0 -55 27 -55 42 0 37 29 77 57 80
16 2 29 0 31 -4 2 -4 -4 -32 -13 -63z"/>
  <path d="M735 519 c-16 -5 -46 -7 -65 -4 l-35 6 3 -228 c1 -125 5 -235 8 -243
14 -35 22 36 29 231 4 112 8 205 9 206 8 9 96 14 96 6 0 -6 -13 -30 -29 -53
l-29 -44 32 -40 c56 -70 53 -100 -10 -89 -32 6 -29 2 28 -40 33 -24 38 -26 52
-11 20 20 20 78 0 113 -8 14 -32 36 -52 48 l-37 21 60 56 c49 46 57 58 45 66
-18 12 -65 11 -105 -1z"/>
</g>
<g id="part-1" class="char-part">
  <path d="M223 518 c-1 -40 -6 -85 -12 -100 -10 -26 -15 -28 -66 -28 -30 0 -55
-4 -55 -10 0 -17 42 -32 71 -26 32 6 35 0 17 -40 -12 -25 -10 -29 27 -60 l40
-34 -35 -33 c-19 -17 -46 -40 -60 -49 -24 -16 -24 -17 -3 -17 11 -1 45 17 73
40 l52 41 22 -21 c12 -12 30 -21 39 -21 25 0 20 32 -9 55 l-25 20 20 45 c11
25 23 62 27 84 4 25 13 40 25 43 24 7 24 11 -3 34 -33 26 -68 25 -65 -3 1 -16
-5 -23 -27 -29 -17 -5 -31 -7 -33 -5 -1 1 9 38 23 81 24 75 25 80 8 92 -40 29
-49 18 -51 -59z m86 -140 c0 -7 -9 -35 -18 -63 -16 -45 -21 -50 -46 -48 -44 3
-50 17 -31 67 17 44 27 51 79 55 9 0 17 -5 16 -11z"/>
</g>
<g id="part-2" class="char-part">
  <path d="M480 525 c-8 -2 -37 -7 -64 -10 -26 -4 -44 -10 -40 -15 5 -4 41 -3
81 3 105 14 107 12 99 -81 -3 -42 -14 -111 -24 -152 -18 -75 -18 -75 -50 -74
l-32 2 21 -30 c28 -39 59 -34 81 12 9 19 24 88 33 154 9 65 22 127 28 137 21
34 -2 54 -64 56 -30 0 -61 0 -69 -2z"/>
</g>
<g id="part-3" class="char-part">
  <path d="M440 456 c0 -40 -2 -44 -32 -54 l-33 -10 33 -1 c30 -1 32 -3 26 -28
-9 -39 -13 -43 -37 -44 l-22 0 23 -9 c22 -9 22 -11 7 -45 -8 -20 -24 -48 -35
-62 -11 -14 -18 -28 -15 -31 11 -11 65 53 81 95 15 38 20 43 48 43 17 0 38 4
46 10 12 8 12 10 -3 16 -9 3 -26 4 -37 1 -26 -7 -32 5 -20 37 7 19 17 26 37
26 16 0 35 5 43 10 11 7 3 10 -28 10 -41 0 -43 1 -41 28 4 32 -7 52 -27 52
-10 0 -14 -12 -14 -44z"/>
</g>
<g id="part-4" class="char-part">
  <path d="M638 293 c1 -126 5 -234 7 -242 13 -35 20 16 30 227 11 231 10 241
-25 242 -13 0 -15 -31 -12 -227z"/>
</g>
</g>
</svg>