<?xml version="1.0" standalone="no"?>
<!DOCTYPE svg PUBLIC "-//W3C//DTD SVG 20010904//EN"
 "http://www.w3.org/TR/2001/REC-SVG-20010904/DTD/svg10.dtd">
<svg version="1.0" xmlns="http://www.w3.org/2000/svg"
 width="96.000000pt" height="68.000000pt" viewBox="0 0 96.000000 68.000000"
 preserveAspectRatio="xMidYMid meet">
<metadata>
Created by potrace 1.16, written by Peter Selinger 2001-2019
Combined from part_0.svg through part_5.svg with named groups
</metadata>
<g transform="translate(0.000000,68.000000) scale(0.100000,-0.100000)" fill="#000000" stroke="none">
<g id="part-0" class="char-part">
  <path d="M216 583 c14 -30 16 -251 4 -380 -12 -126 -6 -163 26 -163 26 0 34
49 34 218 l0 166 28 -27 c36 -34 62 -35 62 -2 0 20 -7 26 -41 35 l-42 12 7 68
c7 76 -2 90 -59 90 -22 0 -26 -3 -19 -17z"/>
  <path d="M497 593 c-4 -3 -7 -16 -7 -27 0 -25 -45 -124 -67 -149 -29 -31 -7
-28 24 3 26 27 36 31 74 28 l44 -3 3 -56 c4 -68 5 -67 -120 -76 -49 -3 -91 -9
-93 -14 -10 -15 53 -20 116 -10 108 18 99 29 99 -120 0 -116 2 -130 15 -119
11 9 15 33 15 90 0 42 3 98 6 123 l6 45 109 7 c60 4 109 11 109 16 0 20 -52
30 -108 19 -31 -5 -69 -10 -85 -10 -30 0 -30 0 -24 49 4 30 1 53 -6 60 -8 8
-7 11 6 11 9 0 39 5 67 11 37 8 49 14 41 22 -7 7 -40 5 -111 -8 -55 -10 -103
-15 -106 -12 -4 4 5 25 20 47 31 47 31 49 9 66 -21 15 -27 17 -36 7z"/>
  <path d="M126 391 c-31 -60 -31 -95 -1 -99 39 -5 70 95 42 132 -14 19 -16 17
-41 -33z"/>
</g>
<g id="part-1" class="char-part">
  <path d="M225 578 c16 -46 16 -235 1 -361 -11 -96 -12 -135 -4 -153 6 -13 14
-24 18 -24 21 0 28 41 35 200 4 96 9 177 11 179 2 2 15 -8 28 -22 29 -31 41
-34 50 -10 8 21 1 28 -46 43 -41 13 -43 17 -28 90 8 40 7 47 -12 63 -11 9 -29
17 -40 17 -17 0 -19 -4 -13 -22z"/>
  <path d="M131 395 c-30 -52 -35 -79 -17 -94 22 -19 43 1 53 48 14 72 -5 97
-36 46z"/>
</g>
<g id="part-2" class="char-part">
  <path d="M490 581 c0 -31 -28 -100 -60 -148 -17 -25 -29 -47 -27 -49 2 -2 22
12 44 31 36 30 48 35 95 35 53 1 174 22 185 34 9 9 -2 17 -23 18 -11 0 -56 -7
-101 -16 -46 -10 -87 -16 -93 -14 -5 1 3 23 20 48 27 41 28 45 13 62 -21 24
-53 23 -53 -1z"/>
</g>
<g id="part-3" class="char-part">
  <path d="M567 392 c6 -69 11 -66 -125 -78 -86 -7 -112 -19 -67 -30 25 -6 55
-4 153 12 l42 7 0 -132 c0 -72 4 -131 9 -131 15 0 19 24 27 148 l7 120 113 7
c63 4 114 10 114 15 0 4 -13 13 -29 20 -22 9 -46 9 -100 1 -108 -17 -103 -19
-99 42 3 50 2 52 -24 55 l-26 3 5 -59z"/>
</g>
</g>
</svg>