<?xml version="1.0" standalone="no"?>
<!DOCTYPE svg PUBLIC "-//W3C//DTD SVG 20010904//EN"
 "http://www.w3.org/TR/2001/REC-SVG-20010904/DTD/svg10.dtd">
<svg version="1.0" xmlns="http://www.w3.org/2000/svg"
 width="96.000000pt" height="68.000000pt" viewBox="0 0 96.000000 68.000000"
 preserveAspectRatio="xMidYMid meet">
<metadata>
Created by potrace 1.16, written by Peter Selinger 2001-2019
Combined from part_0.svg through part_5.svg with named groups
</metadata>
<g transform="translate(0.000000,68.000000) scale(0.100000,-0.100000)" fill="#000000" stroke="none">
<g id="part-0" class="char-part">
  <path d="M326 593 c-3 -4 -6 -19 -6 -35 0 -15 -3 -28 -8 -28 -4 0 -13 -13 -20
-28 -16 -38 -87 -120 -150 -173 -82 -71 -63 -82 34 -20 l62 39 6 -50 c9 -64
-2 -167 -21 -196 -16 -26 -11 -52 9 -52 7 0 47 22 88 50 l74 49 21 -22 20 -22
3 25 c3 16 -4 30 -18 42 -28 22 -42 23 -38 2 2 -12 -13 -22 -50 -37 -29 -11
-55 -17 -58 -14 -4 3 -3 26 0 50 7 43 9 45 47 51 21 3 49 4 62 1 20 -5 25 2
49 65 l26 71 -26 10 c-18 7 -48 6 -95 -1 -37 -7 -71 -9 -74 -6 -15 15 31 44
79 49 56 7 91 27 46 27 -15 0 -38 -4 -52 -10 -33 -12 -32 -7 1 38 15 20 29 39
30 41 2 3 23 -5 47 -17 54 -27 66 -28 66 -2 0 22 -34 40 -75 40 -17 0 -22 4
-18 18 6 24 -44 61 -61 45z m74 -258 c0 -24 -3 -25 -55 -25 -30 0 -55 3 -55 8
1 24 27 37 88 41 17 1 22 -4 22 -24z m-10 -64 c0 -14 -11 -20 -46 -25 -54 -7
-64 -3 -57 23 4 15 15 21 47 23 50 4 56 2 56 -21z"/>
  <path d="M614 573 c-14 -48 -67 -142 -98 -175 -46 -50 -21 -49 32 1 39 36 49
39 135 50 135 18 157 22 157 32 0 14 -93 11 -156 -6 -32 -8 -60 -13 -62 -10
-3 2 7 23 22 45 14 22 26 41 26 44 0 2 -11 11 -25 20 -24 16 -26 16 -31 -1z"/>
  <path d="M630 379 c0 -54 -14 -67 -80 -75 -33 -4 -60 -11 -60 -17 0 -6 22 -8
60 -4 l59 7 -9 -26 c-19 -49 -82 -134 -134 -180 l-51 -46 38 16 c72 29 135 95
183 190 31 61 37 66 92 66 40 0 42 -2 42 -29 0 -43 -38 -152 -62 -178 -15 -16
-28 -21 -45 -17 -28 7 -29 0 -3 -36 36 -50 95 -7 123 90 8 30 23 81 33 112 24
82 14 92 -80 83 -58 -6 -69 -5 -58 6 18 19 15 47 -7 59 -32 16 -41 12 -41 -21z"/>
</g>
<g id="part-1" class="char-part">
  <path d="M327 583 c-4 -3 -7 -18 -7 -32 0 -33 -81 -141 -161 -215 -70 -65 -59
-73 27 -16 39 25 83 68 124 120 l63 80 32 -20 c36 -23 79 -27 73 -7 -2 6 -25
19 -51 27 -29 9 -45 20 -42 27 9 24 -40 55 -58 36z"/>
</g>
<g id="part-2" class="char-part">
  <path d="M380 184 c0 -13 42 -74 51 -74 18 0 8 49 -13 64 -24 17 -38 20 -38
10z"/>
</g>
<g id="part-3" class="char-part">
  <path d="M614 573 c-18 -54 -59 -126 -95 -167 -50 -57 -30 -62 32 -7 43 37 48
39 169 56 69 9 127 18 129 21 4 3 -3 6 -42 18 -13 4 -125 -16 -169 -30 -25 -8
-22 12 8 51 27 36 26 48 -7 65 -15 9 -20 7 -25 -7z"/>
</g>
<g id="part-4" class="char-part">
  <path d="M627 365 c-2 -26 -7 -48 -9 -51 -3 -2 -35 -7 -71 -11 -40 -3 -64 -10
-60 -16 3 -6 30 -7 65 -3 54 5 59 4 54 -12 -19 -48 -77 -129 -124 -173 -55
-50 -52 -64 5 -29 50 30 102 90 143 166 25 46 45 71 61 75 18 5 19 7 5 8 -15
1 -17 6 -12 35 5 28 3 37 -13 45 -32 18 -38 13 -44 -34z"/>
</g>
<g id="part-5" class="char-part">
  <path d="M746 333 c-17 -5 -16 -6 5 -17 18 -9 23 -20 24 -54 1 -24 -3 -45 -7
-48 -4 -3 -8 -14 -8 -25 0 -10 -4 -19 -10 -19 -5 0 -10 -8 -10 -17 0 -10 -14
-38 -31 -63 -17 -25 -29 -37 -25 -27 4 13 0 17 -20 17 -23 0 -24 -1 -10 -16 9
-8 16 -20 16 -25 0 -18 39 -9 54 13 9 12 16 18 16 13 1 -6 7 1 14 14 8 14 11
32 8 40 -3 8 -1 12 5 8 7 -5 9 1 5 15 -4 15 -2 19 7 13 10 -6 11 -2 6 15 -4
13 -3 25 4 30 6 3 13 21 14 38 1 18 6 32 11 32 5 0 6 3 3 7 -4 3 -2 12 4 19 7
9 4 17 -13 28 -23 16 -29 17 -62 9z"/>
</g>
</g>
</svg>