<?xml version="1.0" standalone="no"?>
<!DOCTYPE svg PUBLIC "-//W3C//DTD SVG 20010904//EN"
 "http://www.w3.org/TR/2001/REC-SVG-20010904/DTD/svg10.dtd">
<svg version="1.0" xmlns="http://www.w3.org/2000/svg"
 width="96.000000pt" height="68.000000pt" viewBox="0 0 96.000000 68.000000"
 preserveAspectRatio="xMidYMid meet">
<metadata>
Created by potrace 1.16, written by Peter Selinger 2001-2019
Combined from part_0.svg through part_5.svg with named groups
</metadata>
<g transform="translate(0.000000,68.000000) scale(0.100000,-0.100000)" fill="#000000" stroke="none">
<g id="part-0" class="char-part">
  <path d="M638 584 c-4 -3 -227 -32 -265 -34 -2 0 -3 -4 -3 -10 0 -6 27 -10 60
-10 51 0 60 -3 60 -17 0 -35 -16 -46 -55 -40 l-37 6 8 -42 c4 -23 10 -69 13
-102 6 -55 8 -60 29 -57 36 5 31 -5 -44 -94 -22 -26 -68 -66 -104 -90 -92 -62
-52 -55 45 8 44 28 86 51 94 49 8 -1 30 -13 49 -26 40 -27 39 -29 -72 -66 -38
-12 -64 -25 -57 -27 17 -6 99 16 147 39 l42 20 52 -33 c42 -26 65 -33 119 -36
36 -2 77 1 91 6 22 8 19 10 -30 22 -58 13 -127 34 -172 51 l-27 11 44 56 c54
71 47 87 -30 77 -27 -3 -59 -8 -70 -11 -18 -4 -21 0 -20 23 l0 28 82 0 82 -1
11 56 c6 30 15 69 20 86 15 45 13 50 -21 64 -24 11 -44 11 -96 1 -36 -7 -67
-10 -70 -8 -2 3 6 16 19 29 18 20 41 28 106 38 57 9 82 17 82 26 0 10 -12 14
-38 14 -21 0 -41 -2 -44 -6z m2 -128 c0 -21 -5 -24 -67 -29 -38 -3 -75 -8 -84
-12 -18 -7 -52 21 -44 36 4 5 23 9 43 10 20 0 55 4 77 8 68 14 75 13 75 -13z
m0 -59 c0 -10 -26 -18 -82 -25 -107 -15 -108 -15 -108 8 0 16 8 20 58 23 126
8 132 7 132 -6z m-7 -67 c-5 -17 -14 -20 -72 -20 -36 0 -76 -3 -88 -6 -18 -5
-23 -2 -23 14 0 24 18 28 122 31 62 1 66 0 61 -19z m-43 -121 c0 -17 -40 -79
-51 -79 -14 0 -89 51 -89 61 0 9 23 16 75 22 58 7 65 7 65 -4z"/>
  <path d="M230 434 c-25 -8 -64 -14 -87 -12 -24 2 -43 2 -43 0 0 -1 6 -13 14
-25 8 -12 20 -48 27 -80 13 -58 13 -59 43 -52 17 3 54 9 82 12 48 5 51 7 51
34 0 16 8 47 18 70 19 40 19 42 0 55 -23 17 -46 16 -105 -2z m38 -71 c-3 -44
-5 -47 -37 -56 -41 -10 -50 -2 -54 49 -2 38 -1 39 38 45 22 3 44 7 48 8 4 0 7
-20 5 -46z"/>
</g>
<g id="part-1" class="char-part">
  <path d="M250 434 c-19 -7 -62 -13 -94 -13 -56 -1 -58 -2 -43 -18 8 -10 22
-44 30 -76 18 -68 23 -75 39 -59 7 7 31 12 54 12 57 0 74 8 74 34 0 11 9 41
20 65 11 24 19 45 18 46 -11 9 -48 25 -55 24 -4 -1 -24 -7 -43 -15z m24 -71
c-8 -54 -16 -63 -61 -63 -30 0 -33 3 -39 38 -3 20 -6 41 -7 47 -2 10 39 22 86
24 28 1 28 1 21 -46z"/>
</g>
<g id="part-2" class="char-part">
  <path d="M605 579 c-22 -4 -87 -14 -144 -20 -108 -12 -121 -29 -22 -29 51 0
53 -1 49 -25 -7 -34 14 -32 45 4 21 26 36 31 106 41 52 8 81 17 78 24 -5 14
-60 17 -112 5z"/>
</g>
<g id="part-3" class="char-part">
  <path d="M630 326 c0 -11 -21 -15 -87 -18 -49 -2 -89 0 -91 4 -8 19 -32 6 -32
-17 0 -23 3 -25 28 -18 15 3 71 7 124 7 88 1 97 3 102 21 9 32 7 35 -19 35
-15 0 -25 -6 -25 -14z"/>
</g>
<g id="part-4" class="char-part">
  <path d="M543 236 c-73 -16 -80 -30 -10 -22 42 5 57 3 57 -6 0 -15 -37 -78
-45 -78 -3 0 -28 11 -55 25 -63 32 -70 10 -9 -24 24 -14 37 -27 32 -32 -5 -5
-47 -23 -94 -40 -76 -28 -80 -30 -37 -25 26 3 75 17 108 30 l61 25 51 -31 c56
-35 134 -47 205 -33 37 7 34 9 -67 36 -58 16 -117 34 -132 40 l-26 11 45 60
c37 48 43 62 32 69 -18 11 -50 10 -116 -5z"/>
</g>
</g>
</svg>