<?xml version="1.0" standalone="no"?>
<!DOCTYPE svg PUBLIC "-//W3C//DTD SVG 20010904//EN"
 "http://www.w3.org/TR/2001/REC-SVG-20010904/DTD/svg10.dtd">
<svg version="1.0" xmlns="http://www.w3.org/2000/svg"
 width="96.000000pt" height="68.000000pt" viewBox="0 0 96.000000 68.000000"
 preserveAspectRatio="xMidYMid meet">
<metadata>
Created by potrace 1.16, written by Peter Selinger 2001-2019
Combined from part_0.svg through part_5.svg with named groups
</metadata>
<g transform="translate(0.000000,68.000000) scale(0.100000,-0.100000)" fill="#000000" stroke="none">
<g id="part-0" class="char-part">
  <path d="M420 624 c0 -9 9 -28 19 -43 13 -18 16 -28 8 -29 -304 -26 -305 -26
-287 -47 9 -11 32 -15 80 -15 66 0 68 -1 73 -29 9 -44 51 -56 192 -55 66 1
134 7 150 14 28 11 29 12 11 22 -14 8 -44 8 -107 0 -159 -22 -209 -15 -209 28
0 27 2 28 63 34 34 3 128 8 208 12 154 7 184 13 161 36 -9 9 -50 13 -140 13
-124 0 -127 0 -130 23 -6 37 -92 71 -92 36z"/>
  <path d="M485 363 c-44 -7 -96 -12 -115 -10 l-35 4 -1 -81 c-1 -45 -9 -108
-18 -140 -18 -60 -14 -96 10 -96 9 0 20 22 30 59 l17 58 76 8 c133 12 136 12
135 -10 -3 -68 -1 -66 -45 -59 l-42 7 46 -42 c41 -38 48 -41 66 -29 24 15 29
45 34 210 3 114 3 117 -20 127 -28 13 -34 13 -138 -6z m95 -41 c0 -28 -2 -29
-77 -40 -117 -18 -123 -17 -123 17 0 27 3 30 43 35 23 3 53 7 67 10 14 2 40 4
58 5 29 1 32 -2 32 -27z m8 -89 c-2 -16 -8 -27 -15 -26 -6 1 -50 -4 -97 -13
-48 -8 -90 -13 -95 -10 -4 3 -6 18 -3 34 4 27 6 29 60 31 31 1 59 4 61 7 2 2
24 4 48 4 42 0 44 -1 41 -27z"/>
</g>
<g id="part-1" class="char-part">
  <path d="M426 618 c10 -35 36 -59 58 -56 34 5 31 35 -6 58 -44 27 -61 26 -52
-2z"/>
  <path d="M421 544 c-140 -13 -256 -26 -259 -29 -21 -21 53 -23 293 -7 300 20
335 23 335 32 0 11 -66 30 -95 29 -11 -1 -134 -12 -274 -25z"/>
</g>
<g id="part-2" class="char-part">
  <path d="M310 477 c0 -53 50 -76 165 -77 62 0 195 17 204 25 2 3 0 10 -6 16
-8 8 -44 8 -130 -1 -65 -7 -135 -10 -157 -6 -35 7 -38 9 -34 37 4 25 1 29 -19
29 -17 0 -23 -6 -23 -23z"/>
</g>
<g id="part-3" class="char-part">
  <path d="M520 369 c-19 -5 -72 -10 -116 -11 l-82 -3 10 -25 c12 -30 3 -123
-18 -201 -13 -45 -13 -61 -4 -78 17 -32 36 -12 51 53 l11 52 102 11 c55 6 105
7 109 3 5 -4 5 -24 1 -44 l-6 -37 -41 7 -41 7 44 -41 c25 -23 48 -42 51 -42 3
0 14 9 25 21 16 18 20 43 25 168 3 80 3 150 -1 154 -12 13 -81 17 -120 6z m60
-47 c0 -28 -2 -29 -77 -40 -117 -18 -123 -17 -123 17 0 27 3 30 43 35 157 21
157 21 157 -12z m8 -93 c-2 -13 -9 -23 -15 -22 -6 1 -51 -4 -99 -12 -48 -8
-91 -12 -94 -10 -4 3 -5 15 -3 28 4 21 13 25 101 38 53 9 101 12 105 8 5 -3 7
-17 5 -30z"/>
</g>
</g>
</svg>