<?xml version="1.0" standalone="no"?>
<!DOCTYPE svg PUBLIC "-//W3C//DTD SVG 20010904//EN"
 "http://www.w3.org/TR/2001/REC-SVG-20010904/DTD/svg10.dtd">
<svg version="1.0" xmlns="http://www.w3.org/2000/svg"
 width="96.000000pt" height="68.000000pt" viewBox="0 0 96.000000 68.000000"
 preserveAspectRatio="xMidYMid meet">
<metadata>
Created by potrace 1.16, written by Peter Selinger 2001-2019
Combined from part_0.svg through part_5.svg with named groups
</metadata>
<g transform="translate(0.000000,68.000000) scale(0.100000,-0.100000)" fill="#000000" stroke="none">
<g id="part-0" class="char-part">
  <path d="M200 549 c0 -12 40 -72 52 -77 24 -10 -1 -20 -83 -31 -56 -8 -89 -17
-86 -24 7 -23 59 -25 153 -6 53 10 111 19 129 19 19 0 36 4 40 9 10 17 -35 33
-72 26 -32 -6 -34 -4 -31 17 4 29 -17 52 -61 67 -42 14 -41 14 -41 0z"/>
  <path d="M617 527 c8 -49 -14 -114 -52 -155 -28 -31 -35 -34 -48 -23 -9 7 -21
28 -27 47 -6 19 -18 34 -26 34 -12 0 -12 -5 1 -37 9 -21 23 -45 32 -55 20 -22
20 -21 -53 -58 -51 -26 -54 -29 -24 -24 19 4 52 15 73 26 34 17 45 18 94 8 58
-12 142 -7 175 11 25 13 10 33 -45 59 -35 17 -38 17 -32 2 13 -34 9 -37 -59
-40 l-69 -3 31 36 c36 40 55 74 76 136 17 49 8 69 -30 69 -20 0 -22 -4 -17
-33z"/>
  <path d="M496 503 c-10 -10 26 -53 45 -53 31 0 23 37 -10 48 -16 6 -32 8 -35
5z"/>
  <path d="M724 415 c40 -39 66 -45 66 -14 0 13 -11 25 -35 35 -59 24 -69 17
-31 -21z"/>
  <path d="M403 371 c-26 -34 -30 -61 -9 -61 22 0 38 27 34 60 l-3 32 -22 -31z"/>
  <path d="M220 356 c-62 -16 -36 -28 36 -16 32 6 62 10 67 10 4 0 7 5 7 10 0
13 -53 11 -110 -4z"/>
  <path d="M220 287 c-29 -7 -38 -12 -26 -15 29 -6 146 8 146 19 0 12 -63 10
-120 -4z"/>
  <path d="M615 233 c-55 -8 -126 -12 -158 -11 -31 2 -57 0 -57 -4 0 -5 4 -8 9
-8 10 0 27 -41 36 -86 6 -31 5 -32 -42 -39 -44 -7 -46 -8 -25 -18 16 -7 53 -7
125 1 56 7 157 12 225 12 67 0 122 4 122 9 0 12 -17 18 -74 26 -25 4 -46 10
-46 12 0 3 10 23 22 44 17 30 19 41 9 52 -18 23 -38 24 -146 10z m78 -67 c-2
-51 -13 -66 -50 -66 -27 0 -28 6 -7 55 8 21 13 44 10 52 -4 11 1 14 22 11 26
-3 27 -6 25 -52z m-83 20 c0 -44 -12 -86 -26 -86 -17 0 -20 7 -28 63 l-7 47
30 0 c26 0 31 -4 31 -24z m-94 6 c6 -4 14 -26 17 -48 7 -42 -1 -54 -38 -54
-11 0 -35 68 -35 99 0 12 39 14 56 3z"/>
  <path d="M265 214 c-33 -8 -70 -11 -82 -9 -22 5 -32 -8 -14 -19 4 -3 14 -26
21 -51 13 -47 28 -65 39 -48 3 6 32 13 63 17 43 6 56 11 51 22 -3 7 4 30 16
49 20 34 20 35 1 45 -21 11 -16 12 -95 -6z m45 -48 c0 -36 -12 -46 -55 -46
-17 0 -26 8 -34 31 -6 18 -11 33 -11 35 0 2 39 8 83 12 13 2 17 -6 17 -32z"/>
</g>
<g id="part-1" class="char-part">
  <path d="M210 540 c0 -26 42 -70 66 -70 28 0 31 19 7 48 -21 25 -73 40 -73 22z"/>
  <path d="M198 441 c-59 -9 -109 -19 -113 -23 -18 -18 68 -17 185 3 210 36 147
54 -72 20z"/>
</g>
<g id="part-2" class="char-part">
  <path d="M265 214 c-27 -8 -65 -12 -83 -9 l-32 6 20 -33 c11 -18 20 -40 20
-49 0 -24 28 -56 37 -43 5 6 34 14 65 18 38 5 55 11 52 19 -2 7 4 29 15 50 18
36 18 38 1 47 -23 12 -31 11 -95 -6z m45 -42 c0 -36 -16 -52 -52 -52 -21 0
-31 6 -38 26 -15 38 -13 42 23 47 68 8 67 8 67 -21z"/>
</g>
<g id="part-3" class="char-part">
  <path d="M490 502 c0 -18 33 -52 51 -52 32 0 23 36 -12 49 -38 13 -39 13 -39
3z"/>
  <path d="M700 442 c0 -14 58 -62 75 -62 31 0 16 41 -20 56 -39 16 -55 18 -55
6z"/>
  <path d="M466 393 c25 -61 60 -91 122 -104 62 -12 150 -5 178 16 22 15 24 13
-38 49 l-48 27 6 -31 7 -30 -64 0 c-79 0 -122 23 -140 74 -7 20 -19 36 -25 36
-10 0 -9 -9 2 -37z"/>
  <path d="M398 369 c-30 -53 -20 -91 14 -51 23 26 28 48 15 66 -11 14 -14 12
-29 -15z"/>
</g>
<g id="part-4" class="char-part">
  <path d="M617 520 c12 -87 -51 -176 -166 -235 -73 -38 -68 -45 9 -16 96 37
161 104 200 208 23 61 16 83 -25 83 -21 0 -23 -3 -18 -40z"/>
</g>
<g id="part-5" class="char-part">
  <path d="M624 201 c4 -6 3 -11 -2 -11 -6 0 -10 -10 -9 -22 0 -13 -3 -31 -7
-40 -5 -10 -4 -18 0 -18 8 0 20 27 35 79 2 7 -2 16 -10 19 -8 3 -11 0 -7 -7z"/>
  <path d="M532 180 c0 -14 2 -19 5 -12 2 6 2 18 0 25 -3 6 -5 1 -5 -13z"/>
  <path d="M541 135 c2 -36 -1 -45 -16 -45 -8 0 -15 -4 -15 -9 0 -5 9 -7 20 -4
11 3 20 10 20 17 0 6 5 4 10 -4 15 -23 12 -7 -5 31 -10 21 -15 27 -14 14z"/>
  <path d="M663 103 c-29 -2 -53 -7 -53 -12 0 -10 120 -6 121 5 1 11 -3 11 -68
7z"/>
  <path d="M750 95 c0 -10 9 -14 29 -12 16 1 27 5 24 10 -7 12 12 8 25 -5 8 -8
12 -8 12 -1 0 14 -24 23 -61 23 -19 0 -29 -5 -29 -15z"/>
  <path d="M448 85 c-3 -3 -22 -6 -42 -7 -28 -1 -33 -4 -22 -10 18 -10 86 0 86
13 0 10 -14 12 -22 4z"/>
</g>
</g>
</svg>