<?xml version="1.0" standalone="no"?>
<!DOCTYPE svg PUBLIC "-//W3C//DTD SVG 20010904//EN"
 "http://www.w3.org/TR/2001/REC-SVG-20010904/DTD/svg10.dtd">
<svg version="1.0" xmlns="http://www.w3.org/2000/svg"
 width="96.000000pt" height="68.000000pt" viewBox="0 0 96.000000 68.000000"
 preserveAspectRatio="xMidYMid meet">
<metadata>
Created by potrace 1.16, written by Peter Selinger 2001-2019
Combined from part_0.svg through part_5.svg with named groups
</metadata>
<g transform="translate(0.000000,68.000000) scale(0.100000,-0.100000)" fill="#000000" stroke="none">
<g id="part-0" class="char-part">
  <path d="M407 517 c2 -155 0 -147 23 -147 29 0 38 33 41 145 2 102 -3 115 -46
115 -19 0 -20 -6 -18 -113z"/>
  <path d="M250 502 c-15 -39 -40 -84 -63 -109 -16 -18 -17 -23 -5 -23 18 0 83
46 118 84 27 30 21 53 -18 67 -19 7 -24 4 -32 -19z"/>
  <path d="M596 473 c64 -78 80 -89 94 -64 5 11 10 26 10 34 0 28 -87 87 -130
87 -17 0 -14 -8 26 -57z"/>
  <path d="M394 316 c8 -42 7 -42 -131 -52 -57 -3 -103 -10 -103 -14 0 -3 11
-12 23 -19 18 -10 37 -10 82 -2 32 6 74 11 92 11 30 0 33 -2 24 -19 -27 -50
-157 -141 -202 -141 -10 0 -21 -5 -25 -12 -12 -18 77 -2 137 26 66 31 90 50
126 108 l28 45 55 -62 c30 -34 73 -76 96 -93 38 -30 46 -32 122 -32 48 0 82 4
82 10 0 6 -7 10 -15 10 -35 0 -173 62 -224 100 -29 22 -61 45 -70 50 -34 20
12 31 118 28 111 -3 143 10 77 32 -31 10 -58 9 -184 -6 -41 -5 -43 -4 -37 19
6 21 2 26 -26 36 -48 17 -52 14 -45 -23z"/>
</g>
<g id="part-1" class="char-part">
  <path d="M415 503 c0 -113 2 -128 17 -131 22 -4 26 15 31 145 4 96 3 102 -17
107 -12 3 -23 6 -26 6 -3 0 -5 -57 -5 -127z"/>
  <path d="M560 523 c1 -5 25 -35 55 -68 58 -63 80 -66 73 -9 -2 23 -13 35 -53
56 -50 28 -75 34 -75 21z"/>
  <path d="M254 503 c-17 -53 -28 -73 -50 -94 -13 -12 -24 -26 -24 -31 0 -16 55
20 100 66 42 44 43 46 25 61 -27 19 -44 19 -51 -2z"/>
</g>
<g id="part-2" class="char-part">
  <path d="M393 316 c7 -41 6 -41 -135 -51 -99 -7 -119 -17 -72 -35 18 -7 52 -6
110 3 97 16 103 10 53 -47 -36 -41 -80 -70 -158 -103 l-56 -24 50 4 c99 7 214
82 245 158 l13 30 32 -38 c63 -73 71 -81 114 -117 42 -35 45 -36 129 -36 47 0
82 4 77 8 -6 5 -45 21 -88 36 -48 18 -107 49 -153 84 -95 69 -87 78 64 68 82
-5 103 -4 100 6 -12 37 -78 43 -221 22 -36 -6 -38 -5 -32 18 5 19 1 27 -20 36
-46 21 -58 16 -52 -22z"/>
</g>
</g>
</svg>