<?xml version="1.0" standalone="no"?>
<!DOCTYPE svg PUBLIC "-//W3C//DTD SVG 20010904//EN"
 "http://www.w3.org/TR/2001/REC-SVG-20010904/DTD/svg10.dtd">
<svg version="1.0" xmlns="http://www.w3.org/2000/svg"
 width="96.000000pt" height="68.000000pt" viewBox="0 0 96.000000 68.000000"
 preserveAspectRatio="xMidYMid meet">
<metadata>
Created by potrace 1.16, written by Peter Selinger 2001-2019
Combined from part_0.svg through part_5.svg with named groups
</metadata>
<g transform="translate(0.000000,68.000000) scale(0.100000,-0.100000)" fill="#000000" stroke="none">
<g id="part-0" class="char-part">
  <path d="M206 563 c4 -10 9 -57 12 -104 l4 -86 -51 -7 c-74 -10 -63 -36 15
-36 l34 0 0 -64 0 -63 -65 -18 c-36 -9 -65 -21 -65 -27 0 -5 16 -16 34 -23 35
-15 37 -14 148 46 62 33 117 65 122 70 15 14 -16 11 -64 -6 -23 -8 -44 -15
-46 -15 -2 0 -4 24 -4 54 0 59 -1 57 67 71 18 4 35 11 38 16 9 14 -46 31 -78
25 -27 -5 -28 -4 -23 27 17 114 17 136 -3 146 -11 6 -34 11 -51 11 -27 0 -31
-3 -24 -17z"/>
  <path d="M659 546 c-2 -3 -45 -10 -94 -16 -117 -14 -137 -19 -130 -30 5 -8 35
-8 186 5 69 6 110 18 99 28 -8 7 -57 17 -61 13z"/>
  <path d="M600 425 c-30 -8 -89 -14 -130 -15 -42 0 -69 -4 -62 -8 15 -10 28
-53 43 -139 7 -42 16 -63 25 -63 8 0 14 5 14 11 0 8 33 10 107 8 l108 -4 24
80 c37 127 37 121 0 134 -40 14 -59 13 -129 -4z m80 -49 l0 -33 -90 -6 c-49
-4 -95 -8 -102 -9 -18 -4 -23 51 -6 57 11 4 130 20 181 24 13 1 17 -7 17 -33z
m-10 -83 c0 -16 -4 -32 -8 -38 -4 -5 -43 -11 -87 -12 -83 -2 -95 3 -95 44 0
21 5 22 88 26 48 1 90 4 95 5 4 1 7 -10 7 -25z"/>
  <path d="M635 139 c-49 -5 -141 -12 -203 -16 -109 -8 -140 -20 -86 -35 15 -4
63 -3 108 2 44 6 148 11 230 12 151 3 184 12 131 36 -28 13 -47 13 -180 1z"/>
</g>
<g id="part-1" class="char-part">
  <path d="M215 558 c4 -13 9 -59 12 -104 5 -79 5 -81 -18 -87 -13 -4 -36 -7
-51 -7 -48 0 -31 -19 20 -22 l47 -3 3 -66 3 -66 -66 -18 c-36 -9 -65 -21 -65
-26 0 -11 34 -29 54 -29 15 0 236 117 236 125 0 4 -43 -8 -82 -24 -36 -14 -42
-3 -33 64 l6 54 45 7 c24 3 47 10 50 15 8 14 -38 28 -70 22 l-29 -6 6 64 c3
35 8 74 12 85 5 18 1 23 -26 33 -50 17 -62 15 -54 -11z"/>
</g>
<g id="part-2" class="char-part">
  <path d="M649 546 c-3 -3 -41 -10 -85 -16 -144 -19 -151 -20 -130 -32 13 -7
56 -7 141 2 115 12 157 22 144 34 -9 9 -64 18 -70 12z"/>
</g>
<g id="part-3" class="char-part">
  <path d="M630 429 c-19 -4 -77 -11 -127 -15 -91 -7 -102 -11 -84 -30 5 -5 16
-45 25 -89 18 -89 28 -104 50 -85 11 8 44 11 112 9 l97 -4 28 90 c16 50 29 95
29 102 0 12 -53 34 -79 32 -9 -1 -32 -5 -51 -10z m48 -56 c3 -32 2 -33 -35
-33 -21 0 -68 -3 -105 -7 l-68 -6 0 26 c0 29 9 33 103 47 88 13 102 10 105
-27z m-8 -70 c-1 -54 -6 -58 -93 -60 -86 -2 -97 3 -97 44 0 21 5 22 88 26 48
1 90 4 95 5 4 1 7 -6 7 -15z"/>
</g>
<g id="part-4" class="char-part">
  <path d="M729 146 c-2 -2 -94 -10 -204 -17 -110 -6 -204 -16 -209 -20 -16 -15
47 -31 89 -23 22 4 127 10 234 13 131 4 196 10 198 17 6 19 -92 46 -108 30z"/>
</g>
</g>
</svg>