<?xml version="1.0" standalone="no"?>
<!DOCTYPE svg PUBLIC "-//W3C//DTD SVG 20010904//EN"
 "http://www.w3.org/TR/2001/REC-SVG-20010904/DTD/svg10.dtd">
<svg version="1.0" xmlns="http://www.w3.org/2000/svg"
 width="96.000000pt" height="68.000000pt" viewBox="0 0 96.000000 68.000000"
 preserveAspectRatio="xMidYMid meet">
<metadata>
Created by potrace 1.16, written by Peter Selinger 2001-2019
Combined from part_0.svg through part_5.svg with named groups
</metadata>
<g transform="translate(0.000000,68.000000) scale(0.100000,-0.100000)" fill="#000000" stroke="none">
<g id="part-0" class="char-part">
  <path d="M330 570 c0 -42 -2 -43 -90 -52 -40 -5 -29 -23 18 -28 l43 -5 -33
-34 c-18 -19 -50 -45 -72 -60 -21 -14 -33 -27 -27 -29 14 -5 101 28 101 39 0
4 13 17 28 28 l28 19 -4 -34 c-3 -25 0 -35 13 -40 22 -9 35 11 35 55 l0 34 23
-21 c31 -30 59 -29 55 1 -2 15 -13 25 -35 32 -45 15 -50 23 -17 30 56 13 60
15 44 25 -8 6 -27 10 -42 10 -25 0 -27 2 -18 25 8 20 6 27 -10 35 -32 17 -40
11 -40 -30z"/>
  <path d="M576 582 c7 -35 -14 -52 -68 -52 -25 0 -29 -3 -18 -10 8 -5 25 -10
38 -10 29 0 28 -11 -4 -35 -41 -30 -68 -55 -60 -55 14 0 85 40 93 52 5 8 10
-1 13 -27 7 -57 34 -55 38 3 l3 43 47 -27 c26 -15 54 -32 62 -39 28 -22 50
-26 57 -8 9 22 -18 40 -99 64 -38 11 -68 24 -68 29 0 5 20 12 45 16 65 9 70
27 7 23 l-51 -4 2 30 c2 24 -2 31 -20 33 -20 3 -22 0 -17 -26z"/>
  <path d="M450 395 c0 -10 10 -15 26 -15 22 0 25 2 14 15 -7 8 -19 15 -26 15
-8 0 -14 -7 -14 -15z"/>
  <path d="M625 384 c-5 -1 -90 -10 -188 -20 -170 -16 -177 -18 -161 -35 13 -14
15 -29 10 -64 -12 -74 -34 -115 -100 -181 -43 -43 -55 -59 -38 -53 45 17 82
50 123 110 22 32 42 59 45 59 3 0 14 -5 25 -10 21 -12 26 -70 10 -126 -12 -41
1 -64 26 -47 10 7 38 24 63 38 l45 25 -47 -6 c-47 -6 -48 -5 -48 20 0 26 10
31 70 38 14 2 23 8 20 13 -6 11 -10 11 -57 1 -31 -7 -32 -6 -30 23 2 27 6 31
32 32 17 1 48 2 70 3 l40 1 3 -81 c3 -82 3 -82 35 -95 41 -18 204 -18 235 -1
27 15 27 27 3 75 l-19 37 -7 -28 c-13 -52 -31 -62 -115 -62 -81 0 -100 9 -100
45 0 19 10 24 91 41 88 18 106 30 76 48 -9 6 -32 0 -68 -17 -92 -43 -114 -36
-89 27 9 24 13 26 44 20 33 -6 36 -4 56 35 11 23 18 46 15 51 -3 6 -31 10 -62
10 -44 0 -54 3 -50 14 3 8 1 17 -6 19 -7 2 14 7 46 11 31 4 55 11 52 16 -6 9
-36 18 -50 14z m-97 -60 c2 -18 -3 -23 -30 -27 -40 -6 -49 1 -41 31 4 19 11
23 37 20 23 -2 32 -9 34 -24z m-114 0 c11 -29 6 -34 -38 -34 -37 0 -44 3 -41
18 2 9 4 20 4 25 2 15 69 7 75 -9z m226 -59 c0 -22 -4 -25 -40 -25 -33 0 -40
3 -40 19 0 22 13 29 53 30 22 1 27 -3 27 -24z m-112 -7 c-4 -27 -66 -45 -75
-22 -10 26 4 40 42 42 33 2 36 0 33 -20z m-108 -13 c0 -23 -3 -25 -50 -25 -47
0 -50 2 -50 25 0 23 3 25 50 25 47 0 50 -2 50 -25z"/>
</g>
<g id="part-1" class="char-part">
  <path d="M337 566 c6 -38 4 -39 -77 -52 -41 -6 -43 -7 -20 -16 14 -5 33 -7 42
-4 46 11 -11 -60 -86 -110 -15 -9 -25 -19 -22 -21 7 -7 84 36 121 68 l35 31 0
-41 c0 -30 4 -41 15 -41 11 0 15 11 15 40 0 44 5 47 38 24 23 -16 52 -13 52 5
0 6 -18 16 -40 22 -43 13 -55 39 -17 39 12 0 29 5 37 10 12 8 10 10 -10 11
-14 1 -31 2 -38 2 -9 -1 -11 9 -6 33 6 31 4 34 -19 34 -24 0 -25 -3 -20 -34z"/>
</g>
<g id="part-2" class="char-part">
  <path d="M577 576 l5 -34 -52 -7 c-53 -7 -53 -25 -1 -25 21 0 22 -2 10 -17 -8
-9 -32 -29 -53 -45 -21 -15 -34 -28 -27 -28 18 0 88 38 98 52 5 8 10 -1 13
-27 7 -55 33 -55 40 1 l5 41 70 -43 c78 -48 95 -53 95 -25 0 26 -15 36 -97 61
-40 12 -73 26 -73 31 0 4 23 11 50 15 28 4 50 10 50 15 0 11 -13 13 -62 10
-37 -3 -38 -2 -32 28 6 28 4 31 -19 31 -24 0 -25 -3 -20 -34z"/>
</g>
<g id="part-3" class="char-part">
  <path d="M446 395 c4 -8 14 -15 23 -16 36 -2 -41 -17 -121 -23 l-86 -8 14 -28
c30 -60 -18 -174 -107 -254 -58 -52 -56 -58 8 -20 67 39 128 128 149 218 l17
74 111 6 c61 4 140 9 176 13 63 6 64 6 35 19 -16 7 -41 11 -55 9 -99 -15 -110
-15 -110 -1 0 14 -21 26 -46 26 -8 0 -11 -6 -8 -15z"/>
</g>
<g id="part-4" class="char-part">
  <path d="M530 325 c0 -17 -6 -25 -17 -25 -10 0 -29 -3 -42 -7 -22 -6 -23 -4
-17 20 6 24 3 27 -19 27 -22 0 -25 -3 -19 -25 6 -24 4 -25 -40 -25 -25 0 -46
-4 -46 -10 0 -5 20 -10 45 -10 41 0 45 -2 45 -25 0 -23 -3 -25 -49 -25 -43 0
-72 -12 -59 -25 2 -3 73 2 156 9 84 8 161 12 171 9 15 -4 25 5 41 36 11 23 18
46 15 51 -3 6 -30 10 -59 10 -45 0 -54 3 -59 20 -8 31 -47 27 -47 -5z m112
-41 c3 -3 4 -14 1 -25 -7 -27 -83 -28 -83 -1 0 10 3 22 7 25 8 8 67 9 75 1z
m-112 -29 c0 -22 -4 -25 -40 -25 -32 0 -40 4 -40 18 0 26 9 32 47 32 29 0 33
-3 33 -25z"/>
</g>
<g id="part-5" class="char-part">
  <path d="M543 130 c4 -41 6 -76 7 -77 1 -9 60 -31 60 -24 0 6 7 8 15 5 8 -4
12 -10 9 -15 -8 -13 65 -11 126 3 58 13 68 27 51 65 l-12 26 -15 -27 c-7 -16
-12 -31 -9 -36 2 -4 -38 -7 -90 -7 -53 0 -98 4 -101 8 -3 5 -9 7 -12 5 -4 -2
-6 13 -5 35 1 28 -1 38 -10 33 -8 -5 -8 -3 1 7 17 18 15 44 -4 60 -15 12 -16
6 -11 -61z"/>
  <path d="M687 172 c-15 -10 -24 -22 -20 -25 11 -12 25 -8 17 5 -5 8 -2 9 9 5
20 -7 47 1 47 15 0 5 -4 7 -9 4 -5 -4 -11 -2 -13 4 -2 5 -15 2 -31 -8z"/>
  <path d="M626 142 c-3 -5 1 -9 9 -9 8 0 12 4 9 9 -3 4 -7 8 -9 8 -2 0 -6 -4
-9 -8z"/>
</g>
</g>
</svg>