<?xml version="1.0" standalone="no"?>
<!DOCTYPE svg PUBLIC "-//W3C//DTD SVG 20010904//EN"
 "http://www.w3.org/TR/2001/REC-SVG-20010904/DTD/svg10.dtd">
<svg version="1.0" xmlns="http://www.w3.org/2000/svg"
 width="96.000000pt" height="68.000000pt" viewBox="0 0 96.000000 68.000000"
 preserveAspectRatio="xMidYMid meet">
<metadata>
Created by potrace 1.16, written by Peter Selinger 2001-2019
Combined from part_0.svg through part_5.svg with named groups
</metadata>
<g transform="translate(0.000000,68.000000) scale(0.100000,-0.100000)" fill="#000000" stroke="none">
<g id="part-0" class="char-part">
  <path d="M214 537 c3 -13 8 -49 12 -80 l7 -57 -67 0 c-66 0 -79 -7 -52 -29 8
-7 18 -31 21 -54 13 -76 23 -84 78 -62 15 6 17 1 17 -47 0 -44 -3 -54 -17 -55
-10 -1 -43 -5 -73 -10 l-54 -8 27 -18 c27 -18 30 -18 85 3 166 62 169 63 195
45 29 -19 44 -6 27 25 -12 23 -41 40 -66 40 -14 0 -15 -3 -6 -12 9 -9 5 -15
-19 -25 -45 -19 -49 -17 -49 26 l0 39 53 9 c42 7 51 12 49 26 -2 10 7 38 20
63 28 57 17 67 -65 60 l-58 -4 5 26 c19 96 19 97 -9 110 -14 7 -35 12 -47 12
-16 0 -19 -5 -14 -23z m126 -178 c0 -32 -19 -59 -40 -59 -16 0 -20 7 -20 33 0
40 6 47 37 47 17 0 23 -6 23 -21z m-110 -29 c0 -33 -3 -40 -19 -40 -12 0 -22
9 -26 23 -4 12 -9 30 -11 40 -4 13 1 17 25 17 29 0 31 -2 31 -40z"/>
  <path d="M660 523 c-14 -2 -73 -11 -132 -20 -113 -17 -137 -37 -38 -31 33 1
59 0 59 -4 2 -21 -1 -28 -30 -64 -17 -22 -44 -47 -60 -57 -30 -19 -37 -41 -19
-52 6 -4 33 -1 60 6 27 7 51 11 53 8 2 -2 7 -21 10 -41 l5 -36 -49 -7 c-64 -9
-63 -25 2 -25 l50 0 -3 -42 -3 -43 -107 -9 c-60 -5 -108 -11 -108 -15 0 -19
64 -28 142 -20 46 5 145 11 221 15 75 3 137 10 137 15 0 21 -57 30 -148 23
l-93 -6 3 43 3 44 59 10 c85 14 89 38 6 34 l-62 -4 -2 42 -2 42 42 7 c35 5 46
2 63 -15 29 -29 51 -27 51 4 0 20 -10 30 -50 50 -60 30 -80 32 -55 5 19 -21
20 -21 -70 -35 -22 -4 -50 -9 -62 -12 -34 -8 -28 11 20 62 23 26 42 56 42 68
0 24 2 24 108 28 61 2 73 13 31 29 -26 10 -29 10 -74 3z"/>
</g>
<g id="part-1" class="char-part">
  <path d="M210 546 c0 -8 5 -18 10 -21 6 -3 10 -36 10 -72 l0 -66 -60 6 c-58 5
-70 1 -51 -19 5 -5 16 -34 24 -64 l14 -55 36 3 37 3 0 -46 c0 -42 2 -46 23
-43 19 3 22 10 25 49 l3 47 57 7 c31 4 51 10 45 12 -19 7 -16 26 13 68 33 49
21 61 -57 58 -66 -2 -68 1 -50 80 8 35 7 38 -19 52 -37 19 -60 19 -60 1z m134
-164 c3 -5 1 -25 -5 -44 -7 -26 -16 -37 -34 -40 -23 -5 -25 -3 -25 38 0 36 3
43 23 47 12 2 25 5 29 6 4 0 9 -3 12 -7z m-114 -57 c0 -38 -3 -45 -19 -45 -24
0 -27 5 -36 53 -7 36 -7 37 24 37 30 0 31 -1 31 -45z"/>
</g>
<g id="part-2" class="char-part">
  <path d="M340 232 c0 -4 14 -24 31 -45 35 -42 62 -49 57 -15 -4 30 -88 87 -88
60z"/>
</g>
<g id="part-3" class="char-part">
  <path d="M556 509 c-153 -22 -160 -24 -122 -34 17 -5 69 -3 116 3 48 7 115 12
148 12 69 0 87 13 40 29 -36 13 -20 14 -182 -10z"/>
</g>
<g id="part-4" class="char-part">
  <path d="M545 445 c-10 -19 -40 -56 -67 -80 -35 -31 -48 -50 -44 -61 4 -11 13
-14 29 -10 12 3 71 16 131 29 l108 22 15 -22 c9 -13 24 -23 35 -23 15 0 19 6
16 28 -3 27 -35 49 -98 67 -25 8 -25 7 -6 -13 15 -17 16 -22 5 -26 -27 -8
-153 -25 -157 -21 -3 2 16 28 42 57 47 54 54 80 24 86 -11 2 -22 -9 -33 -33z"/>
</g>
<g id="part-5" class="char-part">
  <path d="M573 313 c-13 -5 -2 -55 19 -81 11 -13 10 -15 -4 -9 -11 4 -18 2 -18
-6 0 -8 -4 -7 -11 3 -8 11 -12 12 -16 3 -3 -8 -14 -11 -30 -7 -18 5 -24 3 -19
-5 4 -6 22 -11 41 -11 36 0 42 -8 40 -59 -2 -31 -5 -34 -41 -38 -21 -3 -61 -6
-89 -7 -27 -1 -59 -3 -70 -5 -19 -2 -19 -2 -1 -12 10 -7 38 -9 65 -5 25 3 118
9 206 12 88 3 162 10 163 16 2 5 10 4 18 -3 9 -8 14 -8 14 -1 0 13 -69 34 -83
25 -8 -5 -138 -6 -143 0 -1 1 -5 21 -9 45 -6 40 -6 42 19 42 20 0 24 4 19 17
-4 11 -8 12 -11 5 -2 -7 -8 -12 -13 -12 -6 0 -7 5 -4 10 3 6 1 10 -5 10 -7 0
-10 6 -7 13 3 6 8 20 12 29 7 18 -21 39 -42 31z"/>
  <path d="M672 243 c-30 -6 -18 -23 16 -23 37 0 60 15 37 24 -9 3 -20 5 -23 5
-4 -1 -17 -4 -30 -6z"/>
</g>
</g>
</svg>