<?xml version="1.0" standalone="no"?>
<!DOCTYPE svg PUBLIC "-//W3C//DTD SVG 20010904//EN"
 "http://www.w3.org/TR/2001/REC-SVG-20010904/DTD/svg10.dtd">
<svg version="1.0" xmlns="http://www.w3.org/2000/svg"
 width="96.000000pt" height="68.000000pt" viewBox="0 0 96.000000 68.000000"
 preserveAspectRatio="xMidYMid meet">
<metadata>
Created by potrace 1.16, written by Peter Selinger 2001-2019
Combined from part_0.svg through part_5.svg with named groups
</metadata>
<g transform="translate(0.000000,68.000000) scale(0.100000,-0.100000)" fill="#000000" stroke="none">
<g id="part-0" class="char-part">
  <path d="M618 581 c3 -24 -1 -32 -24 -45 -27 -14 -28 -15 -6 -16 19 0 22 -4
16 -27 l-6 -28 27 30 c28 32 29 32 88 34 50 1 48 21 -3 21 -35 0 -40 3 -40 24
0 16 -7 26 -22 30 -34 9 -35 8 -30 -23z"/>
  <path d="M423 555 l6 -35 -45 0 c-34 0 -44 -4 -44 -16 0 -14 8 -15 55 -9 46 5
55 4 55 -9 0 -25 17 -19 24 9 4 14 13 25 21 25 8 0 15 5 15 10 0 6 -7 10 -15
10 -9 0 -19 8 -22 18 -8 20 -23 32 -42 32 -10 0 -12 -9 -8 -35z"/>
  <path d="M130 503 c0 -15 75 -83 92 -83 9 0 19 7 22 15 9 25 -15 53 -52 60
-18 3 -40 9 -48 12 -8 3 -14 1 -14 -4z"/>
  <path d="M550 454 c-52 -8 -111 -14 -131 -15 -36 -1 -37 -2 -23 -28 7 -14 18
-40 24 -58 12 -31 14 -32 56 -26 43 6 44 5 44 -22 l0 -28 -85 5 c-47 3 -85 2
-85 -3 0 -5 -9 -9 -21 -9 -11 0 -17 -4 -14 -10 3 -5 17 -10 31 -10 22 0 24 -4
24 -52 0 -54 13 -89 26 -75 5 4 7 37 6 72 l-3 65 29 0 c16 0 44 3 61 6 30 6
31 5 31 -29 0 -38 -12 -47 -63 -47 -31 0 -31 0 -9 -16 21 -14 27 -14 80 4 92
31 109 34 116 17 8 -22 36 -18 36 4 0 11 -13 29 -29 40 -36 26 -44 26 -36 2 4
-14 0 -20 -17 -24 -28 -8 -41 4 -36 34 3 23 7 24 86 27 l83 3 -6 -48 c-12 -97
-12 -96 -53 -88 l-37 7 29 -31 c53 -56 76 -37 108 88 25 100 20 106 -87 96
-44 -4 -89 -8 -100 -8 -34 -3 -26 37 8 41 16 2 34 -1 40 -7 19 -15 32 -2 61
58 14 30 26 56 26 57 0 1 -11 5 -24 8 -13 3 -30 8 -38 10 -7 2 -56 -3 -108
-10z m100 -28 c0 -9 -14 -15 -40 -18 -33 -3 -40 0 -40 14 0 14 8 18 40 18 28
0 40 -4 40 -14z m-130 -13 c0 -14 -9 -18 -37 -20 -46 -2 -65 19 -25 28 48 12
62 10 62 -8z m120 -38 c0 -10 -11 -15 -35 -15 -24 0 -35 5 -35 15 0 10 11 15
35 15 24 0 35 -5 35 -15z m-120 -10 c0 -10 -11 -15 -35 -15 -24 0 -35 5 -35
15 0 10 11 15 35 15 24 0 35 -5 35 -15z"/>
  <path d="M168 326 c-31 -11 -57 -25 -58 -31 -2 -15 27 -18 62 -6 38 14 42 11
27 -21 -10 -22 -7 -31 20 -68 50 -70 45 -80 -44 -80 -59 0 -75 -3 -75 -15 0
-27 34 -35 97 -23 54 10 69 8 179 -20 65 -17 139 -38 163 -46 61 -22 143 -20
226 6 38 12 72 23 74 25 13 10 -23 15 -171 23 -140 7 -259 22 -367 46 -17 4
-22 10 -18 25 9 33 -13 79 -41 90 l-26 10 37 33 c42 37 45 51 18 66 -25 13
-35 12 -103 -14z"/>
</g>
<g id="part-1" class="char-part">
  <path d="M150 481 c24 -47 90 -68 90 -30 0 13 -11 25 -35 35 -50 21 -68 19
-55 -5z"/>
  <path d="M178 326 c-79 -30 -84 -40 -15 -32 l58 6 -14 -27 c-13 -25 -12 -30
14 -66 16 -22 29 -50 29 -63 0 -19 -7 -24 -45 -30 -25 -3 -58 -4 -75 -2 -32 5
-37 -1 -19 -19 8 -8 41 -10 98 -6 80 4 97 2 245 -41 88 -25 173 -46 190 -46
16 0 68 12 115 27 l86 27 -158 9 c-87 4 -216 18 -285 30 l-127 23 3 37 c3 31
-1 42 -27 64 l-31 27 37 38 c56 57 16 80 -79 44z"/>
</g>
<g id="part-2" class="char-part">
  <path d="M615 588 c6 -27 -2 -40 -35 -55 l-25 -12 28 0 c25 -1 27 -4 22 -28
l-6 -28 29 33 c25 28 34 32 81 32 32 0 50 4 46 10 -3 6 -24 10 -47 10 -35 0
-40 2 -35 20 5 21 -17 40 -48 40 -11 0 -14 -6 -10 -22z"/>
  <path d="M420 564 c16 -41 13 -44 -41 -44 -36 0 -49 -4 -46 -12 3 -9 22 -12
59 -11 50 3 56 1 63 -20 6 -21 7 -20 16 9 5 17 19 36 31 42 l23 11 -22 0 c-16
1 -23 7 -23 20 0 20 -18 31 -51 31 -16 0 -17 -4 -9 -26z"/>
</g>
<g id="part-3" class="char-part">
  <path d="M560 455 c-36 -7 -91 -13 -122 -14 l-57 -1 14 -27 c8 -16 19 -42 25
-60 10 -27 16 -31 39 -28 85 13 164 15 177 4 19 -16 29 -5 59 59 18 38 21 53
12 60 -21 18 -80 20 -147 7z m90 -30 c0 -8 -8 -15 -17 -15 -10 0 -28 -3 -40
-6 -19 -5 -23 -2 -23 15 0 18 6 21 40 21 29 0 40 -4 40 -15z m-132 -12 c-4
-22 -67 -31 -79 -11 -9 14 16 25 59 27 17 1 23 -4 20 -16z m122 -38 c0 -10
-11 -15 -35 -15 -24 0 -35 5 -35 15 0 10 11 15 35 15 24 0 35 -5 35 -15z
m-120 -10 c0 -10 -11 -15 -35 -15 -24 0 -35 5 -35 15 0 10 11 15 35 15 24 0
35 -5 35 -15z"/>
</g>
<g id="part-4" class="char-part">
  <path d="M665 304 c-11 -3 -74 -10 -140 -18 -102 -11 -123 -11 -140 0 -25 18
-35 18 -35 0 0 -8 -10 -16 -22 -19 -20 -3 -19 -5 10 -12 31 -7 32 -9 32 -59 0
-28 5 -58 10 -66 18 -27 30 10 23 72 -6 56 -5 58 18 59 13 0 80 6 149 13 165
16 164 16 156 -50 -9 -81 -13 -87 -54 -80 l-35 5 28 -29 c16 -17 34 -30 41
-30 21 0 52 49 59 93 3 23 11 55 17 71 10 24 9 31 -7 42 -18 13 -64 16 -110 8z"/>
</g>
</g>
</svg>