<?xml version="1.0" standalone="no"?>
<!DOCTYPE svg PUBLIC "-//W3C//DTD SVG 20010904//EN"
 "http://www.w3.org/TR/2001/REC-SVG-20010904/DTD/svg10.dtd">
<svg version="1.0" xmlns="http://www.w3.org/2000/svg"
 width="96.000000pt" height="68.000000pt" viewBox="0 0 96.000000 68.000000"
 preserveAspectRatio="xMidYMid meet">
<metadata>
Created by potrace 1.16, written by Peter Selinger 2001-2019
Combined from part_0.svg through part_5.svg with named groups
</metadata>
<g transform="translate(0.000000,68.000000) scale(0.100000,-0.100000)" fill="#000000" stroke="none">
<g id="part-0" class="char-part">
  <path d="M325 564 c7 -50 -1 -61 -50 -65 -37 -4 -40 -2 -43 24 -2 19 -11 31
-29 38 -37 14 -45 2 -21 -32 19 -26 20 -31 8 -39 -8 -5 -27 -10 -42 -10 -16 0
-28 -4 -28 -9 0 -12 26 -21 61 -21 23 0 29 -4 29 -22 0 -35 15 -51 39 -43 18
5 21 2 21 -19 0 -23 -4 -26 -37 -27 -21 -1 -48 0 -60 0 -11 1 -24 -3 -28 -8
-3 -6 -2 -11 3 -11 6 0 17 -18 25 -39 16 -38 17 -39 57 -34 38 5 40 4 40 -20
0 -22 -6 -27 -50 -36 -28 -6 -64 -11 -80 -11 -16 0 -32 -5 -36 -12 -5 -8 11
-9 64 -5 38 4 78 10 87 13 15 6 16 -1 10 -62 -6 -67 3 -103 23 -91 5 4 12 42
16 84 l7 78 65 2 64 2 -18 -27 c-35 -51 -36 -56 -6 -35 43 31 61 53 84 106 12
26 25 47 30 47 11 0 70 -80 70 -95 0 -21 -47 -56 -106 -80 -48 -20 -54 -25
-31 -25 31 0 124 37 145 57 20 20 28 16 61 -26 21 -26 41 -41 63 -44 40 -7
114 5 111 17 -1 5 -26 17 -56 26 -45 14 -73 29 -125 66 -2 1 15 35 38 75 22
40 39 78 36 86 -3 8 -21 13 -45 13 l-40 0 30 59 c35 72 35 74 6 90 -18 9 -34
10 -63 3 -21 -6 -66 -16 -99 -22 -76 -15 -106 -31 -50 -28 l40 3 -3 -35 c-4
-46 -28 -138 -47 -185 -14 -32 -19 -36 -38 -30 -12 4 -44 7 -70 6 -45 -2 -48
0 -45 21 2 19 10 24 46 26 25 2 42 8 42 16 0 7 9 22 20 34 11 12 20 26 20 31
0 16 -37 23 -86 15 -45 -6 -47 -6 -41 15 4 18 3 20 -9 10 -12 -10 -13 -9 -8 5
3 9 17 16 33 16 21 0 26 5 27 25 3 47 11 55 55 55 49 0 49 20 0 34 -23 7 -30
13 -26 25 13 31 13 48 2 48 -7 0 -25 4 -40 8 -27 7 -28 7 -22 -31z m311 -121
c-19 -103 -24 -113 -61 -113 -19 0 -35 1 -35 3 0 1 7 24 15 51 8 28 13 58 10
67 -5 13 1 19 22 22 57 8 56 9 49 -30z m-316 18 c0 -27 -15 -41 -41 -41 -22 0
-29 5 -29 19 0 11 6 22 13 24 21 9 57 7 57 -2z m60 -141 c0 -20 -27 -40 -54
-40 -10 0 -16 9 -16 24 0 19 6 26 28 29 15 2 30 5 35 6 4 0 7 -8 7 -19z m-104
-16 c-3 -9 -6 -20 -6 -25 0 -6 -15 -9 -32 -7 -25 2 -34 8 -36 26 -3 20 1 22
38 22 34 0 41 -3 36 -16z m394 4 c0 -7 -10 -33 -21 -58 l-21 -45 -39 44 c-22
24 -36 48 -32 52 7 7 36 12 96 17 9 1 17 -4 17 -10z"/>
</g>
<g id="part-1" class="char-part">
  <path d="M328 546 c4 -42 3 -43 -28 -50 -57 -11 -67 -8 -76 27 -8 25 -16 33
-38 35 l-27 3 20 -20 c32 -32 28 -61 -8 -61 -17 0 -33 -4 -36 -10 -4 -6 9 -10
33 -10 36 0 39 -2 48 -37 7 -26 15 -37 24 -34 8 2 36 6 61 8 45 5 47 6 53 44
6 38 7 39 47 39 42 0 52 22 13 28 -42 7 -45 11 -34 32 14 26 -2 50 -34 50 -19
0 -21 -5 -18 -44z m-10 -93 c-2 -20 -10 -29 -32 -35 -35 -9 -35 -9 -38 22 -3
23 10 31 65 39 5 0 7 -11 5 -26z"/>
</g>
<g id="part-2" class="char-part">
  <path d="M270 225 c0 -27 -3 -28 -109 -45 -35 -5 -66 -12 -69 -15 -8 -8 88 -5
135 4 l43 8 -6 -71 c-5 -70 4 -105 24 -92 5 3 13 41 17 85 l7 79 65 7 c82 9
71 31 -13 28 -48 -2 -54 -1 -54 17 0 13 -7 20 -20 20 -15 0 -20 -7 -20 -25z"/>
</g>
<g id="part-3" class="char-part">
  <path d="M614 500 c-11 -4 -55 -14 -97 -21 -43 -7 -77 -17 -77 -21 0 -12 37
-10 119 7 40 9 76 13 79 10 3 -3 -1 -35 -10 -70 -14 -60 -14 -65 1 -65 11 0
29 25 51 71 34 69 34 71 15 85 -21 16 -49 17 -81 4z"/>
</g>
<g id="part-4" class="char-part">
  <path d="M519 458 c-1 -4 -8 -48 -14 -92 -9 -58 -40 -140 -72 -188 -47 -69
-48 -73 -15 -50 37 27 62 61 90 122 29 62 64 188 57 200 -5 9 -44 15 -46 8z"/>
</g>
<g id="part-5" class="char-part">
  <path d="M657 343 c-15 -2 -25 -8 -22 -13 3 -5 12 -7 20 -4 22 9 28 -20 12
-53 -8 -15 -12 -34 -9 -42 3 -9 0 -11 -8 -6 -10 6 -12 4 -7 -8 3 -9 2 -19 -3
-22 -6 -4 -10 -1 -10 6 0 7 -3 9 -7 6 -3 -4 -16 1 -27 10 l-21 18 20 -25 c44
-56 69 -79 78 -73 6 3 7 1 3 -6 -9 -13 12 -44 24 -36 4 3 10 -2 14 -10 8 -21
79 -20 97 1 12 15 11 16 -9 10 -12 -4 -22 -3 -22 2 0 14 -57 32 -78 26 -12 -4
-13 -3 -4 3 9 7 6 13 -13 23 -30 16 -31 60 -2 90 16 18 15 25 -6 21 -5 -1 -6
3 -2 8 3 6 11 8 18 5 7 -2 20 9 30 26 19 31 17 33 -18 31 -17 -2 -17 0 -5 8
17 12 13 12 -43 4z"/>
  <path d="M547 323 c-13 -13 -7 -25 7 -14 7 6 22 9 32 5 16 -5 16 -4 4 5 -17
12 -34 14 -43 4z"/>
  <path d="M594 161 c5 -8 -23 -39 -30 -34 -5 3 -94 -37 -94 -42 0 -2 20 3 45
12 25 8 45 19 45 25 0 5 5 6 11 3 6 -4 17 2 25 14 9 12 20 18 26 15 7 -4 8 -2
4 4 -4 7 -14 12 -22 12 -8 0 -13 -4 -10 -9z"/>
</g>
</g>
</svg>