<?xml version="1.0" standalone="no"?>
<!DOCTYPE svg PUBLIC "-//W3C//DTD SVG 20010904//EN"
 "http://www.w3.org/TR/2001/REC-SVG-20010904/DTD/svg10.dtd">
<svg version="1.0" xmlns="http://www.w3.org/2000/svg"
 width="96.000000pt" height="68.000000pt" viewBox="0 0 96.000000 68.000000"
 preserveAspectRatio="xMidYMid meet">
<metadata>
Created by potrace 1.16, written by Peter Selinger 2001-2019
Combined from part_0.svg through part_5.svg with named groups
</metadata>
<g transform="translate(0.000000,68.000000) scale(0.100000,-0.100000)" fill="#000000" stroke="none">
<g id="part-0" class="char-part">
  <path d="M376 559 c-3 -18 -24 -52 -47 -76 -50 -54 -44 -67 11 -23 36 29 84
45 102 34 4 -3 0 -20 -9 -39 -17 -35 -34 -42 -98 -37 -19 2 -20 -4 -20 -96 0
-53 -4 -110 -8 -127 -8 -29 -8 -29 12 -11 11 10 23 31 26 47 4 16 7 29 8 29 1
0 32 3 70 6 l67 6 0 -46 0 -46 -37 0 -37 0 34 -25 c66 -48 76 -32 82 127 l4
116 58 55 c40 38 57 60 53 71 -4 10 -1 16 7 16 7 0 28 3 45 6 28 6 31 4 31
-17 0 -48 -12 -70 -41 -76 -24 -5 -26 -8 -16 -24 7 -11 16 -19 22 -19 24 1 55
39 69 87 14 50 14 53 -4 63 -22 12 -200 -8 -200 -22 0 -4 9 -8 21 -8 18 0 20
-4 14 -27 -3 -16 -19 -41 -35 -57 -23 -24 -32 -27 -43 -18 -8 7 -28 10 -48 6
l-34 -6 43 42 c23 23 40 45 37 51 -8 13 -49 11 -80 -3 -35 -16 -43 -3 -16 26
23 24 23 24 3 35 -32 17 -39 14 -46 -20z m114 -179 c0 -26 -3 -29 -25 -28 -20
2 -25 8 -25 30 0 23 4 28 25 28 21 0 25 -5 25 -30z m-82 -3 c3 -12 -4 -20 -17
-24 -12 -3 -21 -9 -21 -13 0 -4 9 -10 21 -13 28 -7 21 -41 -9 -45 -21 -3 -22
0 -22 58 0 58 1 61 22 58 13 -2 24 -11 26 -21z m82 -62 c0 -20 -5 -25 -25 -25
-19 0 -25 5 -25 23 0 17 6 23 25 25 21 1 25 -3 25 -23z"/>
  <path d="M140 481 c24 -46 92 -78 103 -48 10 30 -37 67 -88 67 -22 0 -24 -3
-15 -19z"/>
  <path d="M663 380 c3 -11 -1 -27 -10 -35 -18 -19 -39 -9 -23 10 8 10 6 15 -10
20 -12 4 -22 5 -23 3 -39 -75 -47 -92 -44 -95 2 -2 15 6 30 17 14 11 39 20 56
20 27 0 31 -3 31 -29 0 -32 -17 -41 -84 -41 -29 0 -37 -3 -29 -11 6 -6 32 -10
57 -8 l46 4 0 -56 c0 -60 4 -71 26 -62 10 4 14 23 14 64 l0 59 56 0 c73 0 70
24 -4 28 -47 3 -52 5 -52 26 0 25 17 36 56 36 13 0 24 5 24 10 0 6 -16 10 -35
10 -28 0 -35 4 -35 19 0 18 -18 31 -42 31 -6 0 -8 -9 -5 -20z"/>
  <path d="M157 341 c-58 -20 -61 -37 -7 -34 44 2 45 1 30 -28 -9 -15 -6 -26 15
-53 14 -18 25 -45 25 -59 0 -26 -2 -27 -60 -27 -46 0 -60 -3 -60 -15 0 -25 32
-33 85 -23 45 10 66 6 226 -36 98 -26 199 -46 227 -46 49 0 219 46 209 56 -3
3 -83 9 -178 14 -96 5 -225 18 -288 29 -63 12 -118 21 -122 21 -4 0 -5 15 -2
34 5 29 1 39 -23 61 l-29 27 39 33 c34 29 38 35 27 49 -16 20 -51 19 -114 -3z"/>
</g>
<g id="part-1" class="char-part">
  <path d="M151 479 c37 -54 89 -73 89 -31 0 21 -24 37 -70 47 -34 7 -34 7 -19
-16z"/>
  <path d="M170 341 c-74 -28 -77 -31 -22 -27 56 5 61 0 37 -38 -14 -21 -13 -24
4 -40 27 -25 46 -75 34 -87 -6 -6 -36 -13 -67 -16 -46 -5 -54 -8 -45 -19 9
-11 28 -12 79 -8 60 6 87 1 246 -41 196 -52 210 -53 338 -13 l71 22 -160 8
c-88 4 -214 17 -280 28 -175 30 -167 27 -155 50 13 24 -1 63 -32 84 l-23 16
45 39 45 39 -28 11 c-33 13 -29 13 -87 -8z"/>
</g>
<g id="part-2" class="char-part">
  <path d="M375 559 c-4 -18 -25 -52 -48 -76 -48 -52 -42 -68 11 -26 20 16 54
33 75 37 l38 7 -21 -40 c-11 -23 -17 -41 -12 -41 17 0 104 89 97 100 -8 13
-61 13 -87 -1 -28 -15 -32 -6 -9 23 15 19 17 28 9 36 -22 22 -46 13 -53 -19z"/>
</g>
<g id="part-3" class="char-part">
  <path d="M445 429 c-22 -5 -64 -9 -93 -9 -45 -1 -51 -4 -41 -16 13 -15 8 -184
-6 -219 -8 -20 -8 -20 13 -1 28 24 42 75 42 152 l0 62 55 7 c30 3 59 4 65 0 6
-4 10 -52 10 -116 l0 -109 -32 0 -31 0 23 -25 c27 -29 56 -32 68 -8 5 10 12
75 15 144 4 115 3 127 -14 137 -10 7 -22 11 -26 11 -5 -1 -26 -5 -48 -10z"/>
</g>
<g id="part-4" class="char-part">
  <path d="M665 370 c6 -26 3 -30 -27 -39 l-33 -9 33 -1 c28 -1 32 -4 32 -30 0
-32 -17 -41 -85 -41 -30 0 -36 -3 -25 -10 8 -5 36 -10 61 -10 l47 0 -5 -45
c-7 -57 2 -82 22 -65 10 8 15 31 15 66 l0 54 55 0 c30 0 55 4 55 9 0 13 -27
21 -71 21 -38 0 -40 2 -37 28 3 23 8 27 41 30 47 4 49 22 2 22 -28 0 -35 4
-35 19 0 18 -18 31 -42 31 -5 0 -7 -12 -3 -30z"/>
</g>
</g>
</svg>