<?xml version="1.0" standalone="no"?>
<!DOCTYPE svg PUBLIC "-//W3C//DTD SVG 20010904//EN"
 "http://www.w3.org/TR/2001/REC-SVG-20010904/DTD/svg10.dtd">
<svg version="1.0" xmlns="http://www.w3.org/2000/svg"
 width="96.000000pt" height="68.000000pt" viewBox="0 0 96.000000 68.000000"
 preserveAspectRatio="xMidYMid meet">
<metadata>
Created by potrace 1.16, written by Peter Selinger 2001-2019
Combined from part_0.svg through part_5.svg with named groups
</metadata>
<g transform="translate(0.000000,68.000000) scale(0.100000,-0.100000)" fill="#000000" stroke="none">
<g id="part-0" class="char-part">
  <path d="M287 506 l6 -84 -72 -7 c-51 -5 -71 -11 -71 -21 0 -11 16 -14 66 -14
l66 0 -29 -49 c-30 -53 -61 -90 -111 -134 -18 -15 -32 -31 -32 -37 0 -28 113
49 147 101 14 22 27 38 29 36 2 -2 -1 -50 -6 -108 -10 -105 -1 -164 23 -156
21 7 26 34 33 160 6 121 7 127 23 113 24 -22 41 -20 41 3 0 12 -12 25 -30 33
-43 19 -42 56 2 60 44 4 47 25 4 33 -37 7 -37 4 -21 107 5 30 -16 48 -53 48
-18 0 -19 -6 -15 -84z"/>
  <path d="M570 572 c-90 -16 -97 -18 -87 -28 3 -3 44 -1 91 7 48 7 89 9 92 6
13 -13 -41 -47 -68 -44 -31 4 -36 -4 -13 -23 26 -22 17 -27 -57 -34 -40 -4
-77 -12 -83 -18 -7 -7 9 -9 60 -4 l70 6 -36 -33 c-19 -19 -44 -39 -55 -45 -10
-6 -16 -13 -13 -16 8 -8 83 32 114 60 14 13 28 24 31 24 2 0 4 -16 4 -36 0
-34 -1 -36 -27 -29 l-27 6 19 -23 c11 -13 26 -27 34 -32 27 -17 -12 -26 -113
-26 -87 0 -97 -2 -86 -15 10 -12 11 -41 6 -115 -6 -83 -4 -100 7 -100 18 0 27
43 27 126 0 67 12 84 59 84 27 0 26 -10 0 -44 -29 -37 -18 -42 21 -10 21 18
30 33 27 46 -4 15 1 18 29 18 29 0 34 -4 34 -23 0 -13 5 -28 12 -35 14 -14
108 -16 108 -2 0 6 -18 10 -39 10 -45 0 -57 11 -41 40 8 15 21 20 51 20 49 0
54 -10 54 -113 -1 -85 -10 -101 -52 -90 -30 7 -29 -4 3 -33 56 -52 90 -14 93
101 1 39 4 85 7 103 11 58 -29 70 -156 46 -25 -4 -25 -4 -25 76 l0 80 44 0
c42 0 43 -1 37 -26 -5 -19 -3 -25 6 -21 7 3 30 11 51 18 21 7 36 17 34 22 -7
21 -76 37 -122 28 -24 -5 -47 -6 -50 -3 -13 13 -3 28 28 40 86 36 91 42 52 60
-31 14 -45 14 -155 -6z"/>
  <path d="M572 183 c-51 -4 -52 -5 -46 -31 9 -38 24 -63 33 -58 4 3 29 6 55 7
44 3 49 6 66 40 27 52 30 51 -108 42z m68 -32 c0 -21 -19 -31 -56 -31 -17 0
-24 6 -24 19 0 19 9 23 68 30 6 0 12 -8 12 -18z"/>
</g>
<g id="part-1" class="char-part">
  <path d="M284 568 c4 -13 10 -51 13 -85 l6 -61 -49 -7 c-27 -3 -62 -10 -79
-14 -24 -7 -15 -9 43 -10 l73 -1 -28 -52 c-15 -29 -56 -81 -89 -115 -34 -35
-59 -63 -56 -63 24 1 92 53 129 98 l43 53 0 -53 c0 -29 -4 -79 -10 -111 -10
-63 0 -107 24 -107 22 0 25 21 27 160 0 71 4 130 9 130 4 0 14 -10 23 -22 13
-19 17 -21 29 -10 11 11 9 17 -11 33 -13 10 -30 19 -38 19 -9 0 -13 8 -11 22
2 15 14 24 41 32 43 12 40 26 -6 26 l-30 0 7 66 c6 57 4 68 -11 80 -10 7 -26
14 -37 14 -14 0 -17 -5 -12 -22z"/>
</g>
<g id="part-2" class="char-part">
  <path d="M560 570 c-67 -12 -90 -19 -76 -25 10 -4 46 -3 81 3 34 7 73 12 85
12 l23 0 -23 -25 c-13 -14 -21 -27 -18 -30 7 -7 118 44 118 54 0 12 -48 31
-73 30 -12 -1 -65 -10 -117 -19z"/>
</g>
<g id="part-3" class="char-part">
  <path d="M545 411 c-22 -20 -53 -46 -70 -59 l-30 -22 28 10 c53 19 137 75 137
91 0 21 -31 12 -65 -20z"/>
</g>
<g id="part-4" class="char-part">
  <path d="M670 304 c-47 -7 -121 -13 -165 -13 l-80 -1 0 -112 c0 -80 3 -112 13
-115 6 -3 12 -3 12 -1 1 1 3 39 6 83 9 133 -5 120 141 134 186 16 170 20 178
-44 4 -30 3 -76 -2 -102 -8 -46 -10 -48 -41 -47 -18 1 -32 -1 -32 -5 0 -12 58
-51 74 -51 26 0 43 51 45 135 1 44 4 90 7 101 4 15 -1 27 -17 38 -26 18 -23
18 -139 0z"/>
</g>
</g>
</svg>