<?xml version="1.0" standalone="no"?>
<!DOCTYPE svg PUBLIC "-//W3C//DTD SVG 20010904//EN"
 "http://www.w3.org/TR/2001/REC-SVG-20010904/DTD/svg10.dtd">
<svg version="1.0" xmlns="http://www.w3.org/2000/svg"
 width="96.000000pt" height="68.000000pt" viewBox="0 0 96.000000 68.000000"
 preserveAspectRatio="xMidYMid meet">
<metadata>
Created by potrace 1.16, written by Peter Selinger 2001-2019
Combined from part_0.svg through part_5.svg with named groups
</metadata>
<g transform="translate(0.000000,68.000000) scale(0.100000,-0.100000)" fill="#000000" stroke="none">
<g id="part-0" class="char-part">
  <path d="M220 549 c0 -21 55 -89 72 -89 45 0 32 65 -17 86 -41 17 -55 18 -55
3z"/>
  <path d="M615 510 c-44 -10 -99 -19 -122 -19 -24 -1 -43 -5 -43 -11 0 -11 19
-14 68 -11 29 2 32 0 32 -26 0 -16 -6 -37 -13 -47 -12 -17 -16 -17 -52 -2 -51
21 -56 13 -14 -23 l34 -30 -34 -35 c-43 -44 -37 -54 13 -20 45 31 129 158 121
183 -4 14 1 20 23 24 46 9 67 2 70 -23 6 -39 -7 -104 -28 -138 -17 -28 -22
-31 -45 -22 -30 11 -31 3 -6 -27 26 -31 56 -29 79 5 24 34 69 209 56 222 -19
18 -61 18 -139 0z"/>
  <path d="M212 440 c-118 -19 -136 -25 -112 -40 21 -14 85 -12 160 5 36 8 84
14 107 15 44 0 65 16 42 31 -19 12 -65 9 -197 -11z"/>
  <path d="M245 353 c-16 -3 -34 -9 -40 -15 -14 -15 123 -4 138 11 11 11 -33 13
-98 4z"/>
  <path d="M238 283 c-21 -2 -38 -8 -38 -14 0 -13 79 -10 120 6 l35 13 -40 0
c-22 -1 -57 -3 -77 -5z"/>
  <path d="M771 221 c33 -42 57 -57 70 -44 14 16 -11 54 -46 68 -54 23 -58 18
-24 -24z"/>
  <path d="M589 208 c35 -57 70 -66 57 -15 -5 22 -42 47 -67 47 -6 0 -2 -15 10
-32z"/>
  <path d="M280 210 c-14 -4 -47 -9 -75 -9 -27 -1 -45 -5 -38 -9 6 -4 20 -30 30
-57 15 -39 24 -49 39 -47 110 14 115 15 110 29 -3 8 1 28 10 45 8 16 13 36 10
44 -6 15 -45 17 -86 4z m33 -52 c-7 -40 -2 -34 -40 -43 -29 -6 -34 -4 -43 21
-16 42 -6 54 44 54 l46 0 -7 -32z"/>
  <path d="M506 168 c19 -53 39 -76 89 -99 71 -33 230 -19 223 19 -2 8 -16 23
-33 33 -16 10 -38 23 -48 30 -17 9 -18 8 -12 -13 12 -39 11 -41 -25 -50 -76
-21 -141 9 -171 78 -25 56 -43 58 -23 2z"/>
  <path d="M408 149 c-31 -51 -36 -79 -13 -79 21 0 47 56 43 93 l-3 32 -27 -46z"/>
</g>
<g id="part-1" class="char-part">
  <path d="M230 545 c0 -12 51 -85 59 -85 5 0 14 6 20 14 22 26 -20 76 -63 76
-9 0 -16 -2 -16 -5z"/>
  <path d="M320 450 c-25 -4 -84 -13 -132 -20 -49 -7 -88 -16 -88 -21 0 -20 58
-20 158 0 59 11 118 21 132 21 24 1 24 1 6 15 -11 8 -22 14 -25 14 -3 -1 -26
-5 -51 -9z"/>
</g>
<g id="part-2" class="char-part">
  <path d="M275 210 c-11 -5 -42 -9 -69 -9 -46 -1 -48 -2 -34 -18 8 -10 20 -37
27 -61 9 -32 16 -42 27 -38 9 3 40 9 70 12 39 5 54 11 50 20 -3 7 3 28 13 46
9 19 15 40 13 46 -4 14 -67 15 -97 2z m36 -52 c-5 -24 -13 -34 -36 -40 -34 -9
-41 -4 -50 34 -7 29 2 35 61 37 30 1 31 0 25 -31z"/>
</g>
<g id="part-3" class="char-part">
  <path d="M679 525 c-8 -8 -161 -35 -196 -35 -18 0 -33 -4 -33 -9 0 -20 50 -19
132 1 114 27 122 24 115 -51 -2 -32 -12 -73 -22 -91 -15 -30 -20 -32 -52 -27
l-36 6 28 -29 c55 -58 86 -32 119 98 13 49 26 94 30 100 13 21 -67 56 -85 37z"/>
</g>
<g id="part-4" class="char-part">
  <path d="M460 380 c40 -34 46 -35 54 -15 6 16 -40 45 -71 45 -14 0 -9 -8 17
-30z"/>
</g>
<g id="part-5" class="char-part">
  <path d="M779 221 c31 -39 61 -54 61 -30 0 5 -4 7 -10 4 -5 -3 -7 0 -4 9 4 10
-8 22 -37 36 l-42 22 32 -41z"/>
  <path d="M593 215 c15 -14 25 -25 21 -25 -3 0 -1 -7 6 -15 8 -10 17 -12 23 -6
13 13 -10 52 -27 45 -7 -3 -16 2 -19 10 -4 9 -12 16 -19 16 -7 0 0 -12 15 -25z"/>
  <path d="M500 200 c0 -18 28 -79 45 -97 23 -25 72 -46 86 -37 5 3 9 1 9 -4 0
-5 26 -8 58 -7 57 2 112 18 112 32 0 11 -71 56 -78 49 -3 -3 -1 -6 5 -6 6 0 9
-9 6 -20 -8 -29 -68 -40 -139 -27 -38 8 -45 14 -73 65 -17 31 -31 55 -31 52z"/>
  <path d="M416 155 c-3 -9 -3 -21 0 -26 3 -5 0 -8 -6 -7 -7 2 -16 -7 -21 -19
-6 -18 -5 -23 6 -23 18 0 49 70 37 82 -6 6 -12 2 -16 -7z"/>
</g>
</g>
</svg>