<?xml version="1.0" standalone="no"?>
<!DOCTYPE svg PUBLIC "-//W3C//DTD SVG 20010904//EN"
 "http://www.w3.org/TR/2001/REC-SVG-20010904/DTD/svg10.dtd">
<svg version="1.0" xmlns="http://www.w3.org/2000/svg"
 width="96.000000pt" height="68.000000pt" viewBox="0 0 96.000000 68.000000"
 preserveAspectRatio="xMidYMid meet">
<metadata>
Created by potrace 1.16, written by Peter Selinger 2001-2019
Combined from part_0.svg through part_5.svg with named groups
</metadata>
<g transform="translate(0.000000,68.000000) scale(0.100000,-0.100000)" fill="#000000" stroke="none">
<g id="part-0" class="char-part">
  <path d="M497 593 c-4 -3 -7 -13 -7 -21 0 -32 -39 -91 -112 -169 -43 -45 -78
-79 -78 -75 0 4 -5 0 -10 -8 -19 -30 -11 45 10 85 26 51 25 64 -6 75 -18 7
-42 6 -84 -5 -33 -8 -72 -12 -90 -8 -18 3 -31 2 -29 -3 3 -5 10 -20 16 -34 7
-14 14 -45 18 -70 8 -66 15 -74 51 -55 39 20 98 20 90 0 -5 -14 12 -17 24 -5
3 3 21 13 40 24 44 24 111 87 157 149 19 26 38 47 43 47 4 0 48 -40 97 -90 83
-84 92 -90 129 -89 21 1 50 4 64 8 21 6 17 9 -35 29 -52 20 -112 54 -152 87
-7 6 -30 24 -52 40 -25 19 -40 37 -38 49 2 19 -35 51 -46 39z m-253 -180 c-8
-57 -10 -60 -39 -65 -21 -5 -28 -1 -36 19 -5 13 -9 35 -9 48 0 19 6 24 33 28
17 2 37 5 44 5 8 1 10 -10 7 -35z"/>
  <path d="M510 406 c-38 -7 -60 -15 -53 -19 16 -10 163 3 163 14 0 5 -4 9 -9 9
-5 0 -15 2 -23 4 -7 2 -42 -2 -78 -8z"/>
  <path d="M435 310 c-11 -5 -36 -9 -55 -9 l-35 -1 3 -60 c3 -40 -2 -75 -12
-101 -16 -40 -14 -79 4 -79 12 0 23 19 35 60 10 33 13 35 59 38 l49 3 -7 -32
c-3 -17 -6 -35 -6 -40 0 -5 -12 -9 -27 -9 l-26 0 23 -25 c26 -28 29 -29 50
-15 18 11 33 247 17 268 -11 14 -42 15 -72 2z m35 -44 c0 -19 -7 -25 -36 -31
-41 -7 -58 3 -48 28 6 17 62 38 77 30 4 -2 7 -15 7 -27z m10 -65 c0 -15 -9
-20 -42 -23 -48 -6 -62 1 -52 25 4 12 18 17 50 17 37 0 44 -3 44 -19z"/>
  <path d="M668 199 l5 -122 -37 7 c-44 8 -45 2 -3 -35 37 -33 36 -33 59 -16 23
18 29 264 7 278 -32 20 -35 10 -31 -112z"/>
  <path d="M576 281 c-3 -5 -3 -38 1 -75 4 -46 10 -66 19 -66 21 0 20 136 -1
143 -8 4 -17 2 -19 -2z"/>
</g>
<g id="part-1" class="char-part">
  <path d="M215 470 c-11 -5 -41 -9 -66 -9 l-47 -1 14 -37 c7 -21 13 -48 14 -60
0 -12 5 -34 11 -50 10 -26 12 -27 23 -10 9 12 27 17 59 17 41 0 45 3 52 28 3
15 16 47 27 71 17 36 18 45 7 52 -17 11 -67 10 -94 -1z m31 -66 c-8 -60 -11
-64 -52 -64 -32 0 -34 2 -34 34 0 19 -3 41 -6 49 -6 17 12 24 65 26 l34 1 -7
-46z"/>
</g>
<g id="part-2" class="char-part">
  <path d="M487 565 c-8 -48 -62 -120 -155 -205 -41 -38 -72 -70 -68 -70 5 0 32
13 61 30 50 28 121 96 177 170 l27 35 94 -93 c87 -85 97 -92 133 -91 22 1 50
4 64 8 22 6 16 10 -47 35 -84 33 -236 147 -227 170 5 12 -29 46 -47 46 -3 0
-9 -16 -12 -35z"/>
</g>
<g id="part-3" class="char-part">
  <path d="M510 406 c-42 -7 -60 -14 -52 -20 16 -10 150 3 158 15 3 5 1 9 -5 9
-5 0 -15 2 -23 4 -7 2 -42 -2 -78 -8z"/>
</g>
<g id="part-4" class="char-part">
  <path d="M665 203 l0 -118 -39 2 -38 3 36 -35 c41 -38 44 -39 66 -25 21 13 31
257 12 277 -32 31 -38 15 -37 -104z"/>
</g>
</g>
</svg>