<?xml version="1.0" standalone="no"?>
<!DOCTYPE svg PUBLIC "-//W3C//DTD SVG 20010904//EN"
 "http://www.w3.org/TR/2001/REC-SVG-20010904/DTD/svg10.dtd">
<svg version="1.0" xmlns="http://www.w3.org/2000/svg"
 width="96.000000pt" height="68.000000pt" viewBox="0 0 96.000000 68.000000"
 preserveAspectRatio="xMidYMid meet">
<metadata>
Created by potrace 1.16, written by Peter Selinger 2001-2019
Combined from part_0.svg through part_5.svg with named groups
</metadata>
<g transform="translate(0.000000,68.000000) scale(0.100000,-0.100000)" fill="#000000" stroke="none">
<g id="part-0" class="char-part">
  <path d="M605 563 c-22 -9 -76 -16 -121 -17 l-80 -1 4 -76 c7 -126 -30 -268
-86 -332 -26 -29 -7 -29 26 0 40 36 77 118 93 211 l13 72 56 1 c103 2 165 13
165 29 0 9 10 33 23 53 29 51 28 63 -9 71 -37 7 -33 8 -84 -11z m42 -59 c-3
-20 -8 -38 -10 -41 -7 -6 -118 -23 -154 -23 -32 0 -33 2 -33 39 l0 39 58 10
c31 5 77 10 101 11 l44 1 -6 -36z"/>
  <path d="M235 510 c-11 -5 -42 -9 -68 -9 -45 -1 -47 -2 -37 -22 8 -13 10 -70
8 -159 -3 -143 4 -177 34 -153 7 6 30 13 51 15 30 3 41 0 48 -14 11 -20 44
-24 54 -8 4 6 7 85 7 177 1 178 -1 183 -52 182 -14 0 -34 -4 -45 -9z m45 -83
l0 -54 -45 -10 -45 -10 0 57 c0 31 3 60 7 63 3 4 24 7 45 7 l38 0 0 -53z m0
-152 c0 -47 -3 -55 -19 -55 -10 0 -33 -3 -50 -6 l-31 -6 0 54 c0 30 3 58 7 61
3 4 26 7 50 7 l43 0 0 -55z"/>
  <path d="M500 256 l0 -114 35 -31 c33 -29 41 -31 114 -31 74 0 132 12 158 32
9 7 9 17 -2 41 -7 18 -16 41 -20 52 -5 16 -8 17 -15 5 -6 -8 -10 -24 -10 -36
0 -30 -28 -51 -80 -58 -46 -6 -115 5 -132 22 -12 12 -20 84 -10 98 4 6 45 18
91 27 46 9 87 19 89 22 7 7 -29 34 -45 35 -7 0 -29 -11 -49 -25 -20 -14 -47
-25 -59 -25 -21 0 -22 3 -15 35 8 38 -7 65 -36 65 -11 0 -14 -22 -14 -114z"/>
</g>
<g id="part-1" class="char-part">
  <path d="M245 510 c-11 -5 -42 -9 -68 -9 -46 -1 -48 -2 -40 -23 4 -13 8 -86 8
-163 0 -157 -9 -143 81 -129 37 6 43 4 49 -15 8 -25 31 -27 43 -3 5 9 8 88 7
175 -1 125 -5 161 -16 168 -17 11 -37 10 -64 -1z m39 -36 c3 -9 6 -38 6 -65 0
-45 -2 -49 -24 -49 -13 0 -38 -3 -55 -6 l-31 -6 0 61 c0 55 3 63 23 71 36 14
74 12 81 -6z m6 -188 c0 -30 -4 -57 -9 -60 -5 -4 -30 -9 -55 -12 l-46 -7 0 61
c0 66 1 67 78 71 l32 1 0 -54z"/>
</g>
<g id="part-2" class="char-part">
  <path d="M605 563 c-27 -8 -84 -15 -125 -16 l-76 -1 4 -90 c5 -109 -14 -193
-64 -284 -38 -70 -32 -80 16 -25 41 46 57 85 79 187 l18 81 89 7 c128 11 127
10 131 36 1 13 14 40 28 60 l25 36 -23 13 c-27 15 -40 15 -102 -4z m42 -59
c-3 -20 -8 -38 -10 -41 -7 -6 -119 -23 -155 -23 -32 0 -33 1 -30 38 3 36 4 37
58 49 30 6 75 12 99 12 l44 1 -6 -36z"/>
</g>
<g id="part-3" class="char-part">
  <path d="M499 372 c0 -4 0 -56 1 -117 1 -118 7 -132 62 -161 32 -16 146 -19
199 -4 56 16 62 29 37 79 -20 42 -37 42 -38 0 0 -42 -94 -69 -169 -49 -47 12
-59 30 -57 85 1 36 3 40 36 46 129 26 150 31 150 38 0 5 -13 14 -29 21 -26 10
-33 9 -58 -9 -15 -11 -43 -24 -62 -27 -31 -6 -33 -5 -27 15 3 11 8 29 11 40 3
10 0 23 -7 28 -19 14 -48 24 -49 15z"/>
</g>
</g>
</svg>