<?xml version="1.0" standalone="no"?>
<!DOCTYPE svg PUBLIC "-//W3C//DTD SVG 20010904//EN"
 "http://www.w3.org/TR/2001/REC-SVG-20010904/DTD/svg10.dtd">
<svg version="1.0" xmlns="http://www.w3.org/2000/svg"
 width="96.000000pt" height="68.000000pt" viewBox="0 0 96.000000 68.000000"
 preserveAspectRatio="xMidYMid meet">
<metadata>
Created by potrace 1.16, written by Peter Selinger 2001-2019
Combined from part_0.svg through part_5.svg with named groups
</metadata>
<g transform="translate(0.000000,68.000000) scale(0.100000,-0.100000)" fill="#000000" stroke="none">
<g id="part-0" class="char-part">
  <path d="M389 572 c0 -4 0 -37 1 -73 l1 -66 -33 -10 -33 -11 31 -1 c37 -1 42
-14 36 -83 -3 -38 -8 -48 -22 -48 -14 0 -20 9 -22 37 -2 28 -8 39 -22 41 -13
3 -17 0 -13 -11 3 -8 1 -31 -5 -51 -16 -50 -2 -61 46 -41 l38 16 -3 -78 c-5
-98 6 -102 81 -33 51 47 59 67 15 36 -11 -7 -30 -16 -42 -20 -21 -7 -23 -4
-23 26 0 18 3 44 7 57 5 20 10 23 44 18 41 -5 49 5 49 71 0 25 -4 32 -20 32
-17 0 -20 -7 -20 -40 0 -36 -2 -40 -25 -40 -25 0 -26 2 -23 57 3 57 3 57 41
66 47 11 49 31 1 25 l-36 -4 7 57 c7 56 7 56 -24 67 -17 6 -31 8 -32 4z"/>
  <path d="M735 540 c-22 -5 -79 -14 -127 -20 -97 -13 -123 -35 -33 -28 31 3 58
2 60 -2 2 -4 0 -24 -6 -44 -9 -34 -13 -37 -42 -35 -24 3 -31 0 -29 -11 5 -22
4 -117 -3 -164 -7 -51 6 -76 29 -57 14 11 16 11 16 -4 0 -21 -36 -73 -73 -104
-15 -13 -26 -26 -23 -29 14 -13 166 113 166 137 0 13 9 17 38 17 22 -1 47 -7
56 -15 30 -25 41 2 46 116 6 135 4 138 -94 128 l-71 -7 23 25 c16 17 22 32 18
45 -6 18 0 20 74 26 44 4 80 12 80 17 0 5 -6 9 -12 9 -7 0 -22 2 -33 4 -11 2
-38 0 -60 -4z m13 -157 c3 -18 -2 -23 -20 -24 -13 0 -47 -4 -75 -8 -50 -7 -53
-6 -53 14 0 19 8 24 53 32 73 15 91 12 95 -14z m8 -62 c0 -15 -9 -21 -38 -25
-21 -4 -56 -9 -78 -12 -38 -5 -40 -4 -40 20 0 22 5 25 43 29 104 9 113 8 113
-12z m-3 -75 c-5 -23 -10 -26 -47 -26 -22 0 -58 -3 -78 -6 -36 -6 -38 -5 -38
19 0 28 5 30 106 35 61 3 61 3 57 -22z"/>
  <path d="M200 424 c-20 -8 -52 -12 -72 -9 -39 5 -47 -2 -27 -22 6 -6 19 -40
28 -74 15 -57 41 -92 41 -55 0 11 10 16 33 16 53 0 75 10 70 30 -3 10 4 37 15
61 12 24 17 47 13 51 -14 15 -67 16 -101 2z m30 -53 c0 -44 -10 -61 -35 -61
-15 0 -26 7 -29 20 -19 65 -23 60 52 69 7 0 12 -11 12 -28z"/>
  <path d="M730 141 c0 -4 20 -30 45 -57 47 -50 70 -51 63 -3 -4 28 -108 87
-108 60z"/>
</g>
<g id="part-1" class="char-part">
  <path d="M215 424 c-16 -7 -49 -13 -73 -14 l-43 0 15 -27 c7 -16 17 -47 21
-70 7 -44 22 -64 34 -45 3 5 27 13 54 17 42 7 47 10 47 34 1 14 7 37 15 51 21
36 18 47 -12 57 -20 7 -37 6 -58 -3z m18 -71 c-4 -34 -9 -42 -30 -48 -32 -8
-40 0 -48 47 -7 35 -5 37 21 43 16 4 34 8 39 10 18 5 22 -9 18 -52z"/>
</g>
<g id="part-2" class="char-part">
  <path d="M388 506 l4 -73 -32 -7 c-38 -7 -36 -15 3 -18 l27 -2 -1 -116 c0 -63
-4 -124 -8 -135 -11 -27 -3 -45 19 -45 19 0 120 85 120 101 0 5 -18 -2 -40
-16 -22 -14 -44 -25 -50 -25 -12 0 -2 206 11 231 5 9 25 20 45 24 44 8 32 29
-16 27 l-31 -1 6 54 c7 53 6 55 -20 65 -14 5 -30 10 -34 10 -4 0 -6 -33 -3
-74z"/>
</g>
<g id="part-3" class="char-part">
  <path d="M480 342 c0 -39 -1 -39 -42 -46 -24 -3 -54 -9 -67 -12 -23 -7 -24 -5
-18 29 4 26 2 37 -10 41 -25 10 -35 7 -30 -8 3 -8 1 -30 -5 -50 -17 -55 -3
-61 76 -35 40 12 79 19 96 15 27 -5 30 -3 35 32 11 64 11 67 -12 70 -21 3 -23
-1 -23 -36z"/>
</g>
<g id="part-4" class="char-part">
  <path d="M604 168 c-3 -12 -29 -46 -57 -75 -55 -58 -51 -69 9 -24 114 86 137
121 79 121 -16 0 -26 -7 -31 -22z"/>
  <path d="M746 121 c42 -71 94 -99 94 -51 0 17 -52 70 -70 70 -5 0 -16 3 -26 7
-16 6 -15 4 2 -26z"/>
</g>
</g>
</svg>