<?xml version="1.0" standalone="no"?>
<!DOCTYPE svg PUBLIC "-//W3C//DTD SVG 20010904//EN"
 "http://www.w3.org/TR/2001/REC-SVG-20010904/DTD/svg10.dtd">
<svg version="1.0" xmlns="http://www.w3.org/2000/svg"
 width="96.000000pt" height="68.000000pt" viewBox="0 0 96.000000 68.000000"
 preserveAspectRatio="xMidYMid meet">
<metadata>
Created by potrace 1.16, written by Peter Selinger 2001-2019
Combined from part_0.svg through part_5.svg with named groups
</metadata>
<g transform="translate(0.000000,68.000000) scale(0.100000,-0.100000)" fill="#000000" stroke="none">
<g id="part-0" class="char-part">
  <path d="M348 556 c3 -38 1 -44 -20 -49 -49 -14 -67 -8 -70 21 -2 21 -9 28
-32 30 -28 3 -28 2 -22 -31 6 -35 6 -35 -34 -42 -22 -4 -40 -10 -40 -15 0 -10
36 -20 71 -20 23 0 28 -6 33 -35 8 -40 21 -52 40 -36 10 9 15 8 20 -5 9 -24 7
-32 -6 -31 -7 0 -34 -1 -61 -1 -41 -2 -46 -4 -39 -19 5 -10 15 -31 23 -48 13
-26 19 -29 52 -27 34 3 37 1 37 -21 0 -28 -10 -32 -112 -42 -95 -10 -89 -30 6
-22 41 4 81 8 88 9 10 2 12 -12 10 -60 -3 -40 1 -68 9 -78 19 -23 29 1 29 72
0 33 5 65 12 72 7 7 37 12 67 12 43 0 52 3 43 12 -7 7 -34 11 -62 10 -47 -2
-50 -1 -50 23 0 20 5 25 28 26 45 2 52 4 52 12 0 4 7 21 16 38 21 41 8 52 -50
48 -36 -3 -46 -1 -50 13 -3 14 2 18 19 18 20 0 25 7 32 43 8 41 10 42 51 45
61 5 53 42 -9 42 -15 0 -17 5 -13 29 6 31 -14 51 -53 51 -15 0 -18 -7 -15 -44z
m2 -98 c0 -23 -14 -35 -47 -41 -30 -6 -33 -4 -33 17 0 12 3 26 7 29 12 12 73
8 73 -5z m42 -148 c-3 -24 -9 -30 -28 -30 -20 0 -24 5 -24 30 0 26 4 30 28 30
26 0 28 -3 24 -30z m-92 -10 c0 -27 -3 -30 -30 -30 -23 0 -33 6 -39 23 -10 26
2 37 42 37 23 0 27 -4 27 -30z"/>
  <path d="M566 526 c-10 -25 -33 -65 -52 -90 -19 -25 -32 -46 -29 -46 3 0 22
11 43 24 29 19 55 25 124 29 125 7 121 12 116 -164 -3 -79 -8 -152 -13 -162
-8 -18 -24 -18 -71 0 -14 5 -11 -3 12 -35 46 -66 66 -65 100 6 13 28 19 71 22
177 2 77 8 148 13 157 7 12 2 22 -18 38 -30 23 -46 23 -156 1 -84 -17 -94 -10
-52 36 40 44 42 49 16 63 -31 16 -37 13 -55 -34z"/>
  <path d="M578 343 l-3 -58 -57 -9 c-32 -4 -58 -13 -58 -18 0 -6 24 -8 58 -6
l57 3 -3 -65 c-3 -67 7 -98 27 -86 7 4 11 39 11 86 l0 79 63 3 c78 4 78 23 -1
23 l-57 0 0 50 c0 39 -4 50 -17 53 -14 3 -17 -6 -20 -55z"/>
  <path d="M659 364 c-13 -35 -7 -39 31 -19 30 16 31 17 13 30 -26 20 -32 18
-44 -11z"/>
  <path d="M490 352 c0 -14 41 -53 50 -47 11 7 1 37 -14 47 -15 10 -36 10 -36 0z"/>
  <path d="M486 180 c-20 -27 -30 -50 -23 -50 20 1 90 76 83 89 -12 19 -23 12
-60 -39z"/>
  <path d="M674 193 c30 -32 38 -35 46 -23 15 23 12 28 -20 45 -53 28 -64 18
-26 -22z"/>
</g>
<g id="part-1" class="char-part">
  <path d="M357 550 c6 -50 6 -50 -23 -50 -16 0 -39 -3 -51 -6 -20 -6 -23 -3
-23 25 0 28 -3 31 -31 31 -26 0 -30 -3 -24 -17 16 -39 11 -48 -27 -51 -53 -4
-48 -22 6 -22 43 0 44 -1 53 -37 10 -41 9 -41 94 -29 45 7 47 8 55 49 10 44 7
42 77 46 27 1 11 18 -24 26 -26 6 -30 11 -26 31 3 17 -2 29 -17 39 -37 27 -46
19 -39 -35z m-7 -100 c0 -26 -4 -30 -36 -36 -26 -5 -39 -3 -45 7 -14 22 -6 43
21 50 50 14 60 11 60 -21z"/>
</g>
<g id="part-2" class="char-part">
  <path d="M318 252 c-11 -2 -18 -13 -18 -27 0 -25 -10 -28 -129 -41 -49 -5 -59
-9 -46 -17 14 -8 102 -5 159 6 7 1 10 -19 8 -63 -3 -66 9 -104 27 -85 5 6 11
40 13 77 2 37 7 70 10 73 3 4 32 9 63 12 52 6 56 7 39 20 -13 9 -32 12 -61 7
-38 -6 -42 -4 -45 18 -2 16 -8 22 -20 20z"/>
</g>
<g id="part-3" class="char-part">
  <path d="M574 553 c-16 -50 -38 -91 -65 -122 -37 -43 -30 -51 18 -19 32 21 54
27 130 31 87 5 94 4 104 -15 12 -23 8 -280 -6 -311 -8 -18 -24 -18 -71 0 -13
5 -8 -7 16 -40 18 -26 39 -47 46 -47 13 0 45 41 59 75 4 11 10 85 14 165 4 80
9 151 12 158 2 8 -8 23 -23 35 -27 20 -28 20 -124 3 -53 -9 -99 -15 -101 -12
-3 3 9 23 27 46 26 33 30 43 20 55 -17 20 -49 19 -56 -2z"/>
</g>
<g id="part-4" class="char-part">
  <path d="M578 355 c4 -50 27 -63 38 -21 9 37 1 61 -21 64 -18 2 -20 -2 -17
-43z"/>
  <path d="M657 355 l-16 -34 34 16 c37 18 45 37 19 47 -9 3 -17 6 -18 6 -1 0
-10 -16 -19 -35z"/>
  <path d="M490 352 c0 -12 30 -52 39 -52 17 0 20 30 5 45 -16 16 -44 21 -44 7z"/>
</g>
<g id="part-5" class="char-part">
  <path d="M589 293 c-1 -4 -1 -11 0 -15 0 -4 -5 -5 -12 -2 -7 2 -24 1 -37 -4
-19 -7 -15 -9 23 -9 33 -1 47 3 47 12 0 15 -19 31 -21 18z"/>
  <path d="M657 288 c-6 -4 -15 -4 -19 -2 -4 3 -8 1 -8 -3 0 -14 68 -12 80 2 8
10 5 13 -16 11 -14 0 -31 -4 -37 -8z"/>
  <path d="M580 185 c0 -50 3 -65 14 -65 11 0 14 11 12 43 -1 23 -5 48 -9 54 -4
6 -2 13 5 15 8 3 6 7 -5 11 -15 6 -17 -2 -17 -58z"/>
  <path d="M519 218 c-1 -7 -1 -16 0 -20 0 -4 -8 -12 -19 -18 -11 -6 -20 -15
-20 -21 0 -5 9 -2 19 8 11 10 19 22 19 27 0 5 6 12 12 16 9 5 9 9 1 14 -6 4
-12 1 -12 -6z"/>
  <path d="M682 198 c17 -25 40 -36 36 -16 -3 14 -28 37 -42 38 -5 0 -2 -10 6
-22z"/>
</g>
</g>
</svg>