<?xml version="1.0" standalone="no"?>
<!DOCTYPE svg PUBLIC "-//W3C//DTD SVG 20010904//EN"
 "http://www.w3.org/TR/2001/REC-SVG-20010904/DTD/svg10.dtd">
<svg version="1.0" xmlns="http://www.w3.org/2000/svg"
 width="96.000000pt" height="68.000000pt" viewBox="0 0 96.000000 68.000000"
 preserveAspectRatio="xMidYMid meet">
<metadata>
Created by potrace 1.16, written by Peter Selinger 2001-2019
Combined from part_0.svg through part_5.svg with named groups
</metadata>
<g transform="translate(0.000000,68.000000) scale(0.100000,-0.100000)" fill="#000000" stroke="none">
<g id="part-0" class="char-part">
  <path d="M206 523 c4 -21 8 -56 8 -78 l1 -40 -63 0 c-64 0 -72 -4 -48 -25 8
-6 20 -36 27 -66 13 -59 24 -73 42 -55 6 6 19 11 29 11 15 0 18 -8 18 -48 l0
-49 -57 -2 c-68 -3 -83 -13 -52 -35 24 -17 59 -22 59 -8 0 7 51 31 80 37 8 2
34 9 58 16 38 10 44 10 56 -6 15 -21 36 -12 36 14 0 23 -17 37 -53 46 -21 6
-26 4 -22 -7 6 -15 -51 -42 -60 -28 -8 13 6 64 19 72 6 4 22 8 36 8 19 0 29 9
42 38 10 20 23 44 30 54 9 13 9 20 -2 33 -11 13 -26 16 -68 13 l-54 -5 5 31
c3 17 9 45 12 61 6 28 4 32 -27 43 -56 20 -61 17 -52 -25z m118 -160 c-10 -49
-13 -53 -34 -53 -17 0 -20 6 -20 40 0 38 2 40 30 40 28 0 30 -2 24 -27z m-104
-23 c0 -33 -3 -40 -20 -40 -13 0 -25 11 -33 33 -13 30 -12 32 7 39 41 12 46 9
46 -32z"/>
  <path d="M587 482 c21 -20 63 -70 93 -110 l55 -72 52 0 c28 0 54 4 58 10 3 5
-20 22 -52 37 -31 15 -92 61 -135 101 -43 39 -85 72 -93 72 -10 0 -3 -13 22
-38z"/>
  <path d="M465 423 c-8 -34 -50 -108 -76 -134 -33 -33 -4 -21 40 17 50 43 95
110 87 130 -10 25 -43 16 -51 -13z"/>
  <path d="M529 285 c-12 -25 -44 -69 -71 -99 -52 -59 -55 -67 -34 -85 11 -10
39 -6 128 18 l113 30 33 -37 c27 -29 35 -33 42 -21 19 29 -18 87 -73 116 -36
18 -43 12 -22 -20 15 -24 15 -25 -7 -30 -42 -11 -158 -20 -158 -13 0 7 65 89
98 124 15 17 15 35 0 50 -19 19 -25 15 -49 -33z"/>
</g>
<g id="part-1" class="char-part">
  <path d="M211 518 c5 -18 9 -52 9 -75 0 -41 -1 -43 -32 -45 -18 -1 -49 0 -68
1 l-35 2 23 -23 c12 -14 22 -28 22 -34 0 -5 5 -26 10 -46 10 -35 12 -36 45
-31 l35 6 0 -46 c0 -40 2 -45 20 -40 16 4 20 14 20 49 l0 44 47 0 c25 0 44 3
40 6 -7 7 18 60 41 87 24 28 1 42 -65 40 l-56 -2 6 63 c6 60 5 64 -16 70 -49
13 -56 9 -46 -26z m114 -165 c-8 -45 -4 -40 -38 -48 -27 -7 -27 -6 -27 39 l0
46 36 0 36 0 -7 -37z m-105 -18 c0 -39 -3 -45 -21 -45 -13 0 -25 11 -35 35
-20 49 -18 55 21 55 35 0 35 0 35 -45z"/>
</g>
<g id="part-2" class="char-part">
  <path d="M320 245 c0 -15 55 -85 64 -82 26 9 17 45 -17 66 -35 21 -47 25 -47
16z"/>
</g>
<g id="part-3" class="char-part">
  <path d="M582 488 c18 -18 60 -68 93 -110 l60 -78 52 0 c28 0 54 4 58 10 3 5
-20 22 -52 37 -33 16 -90 59 -134 101 -42 39 -84 72 -93 72 -13 0 -9 -8 16
-32z"/>
  <path d="M451 394 c-13 -30 -35 -69 -49 -85 -37 -44 -20 -46 28 -3 60 54 102
118 87 133 -24 24 -43 11 -66 -45z"/>
</g>
<g id="part-4" class="char-part">
  <path d="M531 287 c-12 -24 -46 -71 -76 -104 -52 -58 -54 -61 -36 -77 16 -15
26 -14 132 14 l114 30 27 -31 c18 -20 33 -29 44 -25 32 12 -11 82 -69 113 -36
18 -46 10 -22 -18 16 -16 17 -22 6 -29 -15 -9 -160 -24 -167 -17 -2 2 22 37
55 78 55 68 58 75 44 92 -23 25 -29 22 -52 -26z"/>
</g>
</g>
</svg>