<?xml version="1.0" standalone="no"?>
<!DOCTYPE svg PUBLIC "-//W3C//DTD SVG 20010904//EN"
 "http://www.w3.org/TR/2001/REC-SVG-20010904/DTD/svg10.dtd">
<svg version="1.0" xmlns="http://www.w3.org/2000/svg"
 width="96.000000pt" height="68.000000pt" viewBox="0 0 96.000000 68.000000"
 preserveAspectRatio="xMidYMid meet">
<metadata>
Created by potrace 1.16, written by Peter Selinger 2001-2019
Combined from part_0.svg through part_5.svg with named groups
</metadata>
<g transform="translate(0.000000,68.000000) scale(0.100000,-0.100000)" fill="#000000" stroke="none">
<g id="part-0" class="char-part">
  <path d="M561 578 c-18 -12 -59 -32 -90 -44 -69 -29 -51 -30 54 -4 44 11 87
20 95 20 8 0 22 5 30 10 13 8 12 11 -5 24 -26 20 -43 19 -84 -6z"/>
  <path d="M653 523 c-7 -2 -13 -11 -13 -20 0 -8 -9 -26 -20 -40 -31 -40 -16
-40 46 1 31 21 52 41 48 46 -13 11 -47 19 -61 13z"/>
  <path d="M258 514 c-4 -3 -37 -9 -75 -12 -61 -7 -68 -9 -63 -27 2 -11 4 -86 5
-167 0 -106 4 -151 13 -160 9 -9 15 -10 20 -2 4 6 28 13 54 16 41 5 47 3 59
-18 7 -13 18 -24 25 -24 28 0 38 47 42 209 4 151 3 165 -14 178 -18 13 -56 18
-66 7z m20 -81 c3 -43 3 -43 -32 -43 -19 0 -41 -3 -50 -6 -13 -5 -16 2 -16 39
0 50 9 57 65 54 28 -2 30 -5 33 -44z m0 -128 c-2 -1 -24 -6 -50 -9 -48 -7 -48
-7 -48 22 0 26 4 29 48 38 47 9 47 9 50 -19 2 -16 2 -30 0 -32z m2 -53 c0 -10
5 -23 12 -30 9 -9 9 -12 -1 -12 -7 0 -9 -4 -6 -10 4 -6 -18 -10 -57 -10 l-64
0 4 34 c4 37 1 35 95 44 10 1 17 -5 17 -16z"/>
  <path d="M496 492 c-7 -11 30 -52 48 -52 27 0 18 28 -13 45 -17 8 -32 12 -35
7z"/>
  <path d="M399 452 c20 -38 61 -53 61 -22 0 16 -31 40 -51 40 -16 0 -18 -3 -10
-18z"/>
  <path d="M615 409 c-16 -5 -74 -12 -127 -15 -110 -8 -133 -24 -33 -24 62 0 65
-1 65 -24 0 -22 -4 -24 -85 -31 -55 -4 -83 -10 -79 -17 5 -7 37 -9 91 -5 l84
6 -3 -27 c-3 -25 -7 -27 -53 -30 -75 -5 -81 -22 -7 -22 l62 0 0 -44 c0 -24 -3
-58 -6 -76 -6 -30 -9 -31 -38 -26 l-31 6 37 -37 c36 -36 38 -37 58 -18 17 16
20 30 20 110 0 88 1 91 23 92 94 2 99 3 93 19 -3 8 -3 26 0 39 5 21 13 25 76
31 80 8 80 27 -1 26 -55 -2 -57 -1 -39 27 26 42 -31 63 -107 40z m40 -49 c0
-22 -5 -25 -42 -28 -40 -3 -43 -1 -43 22 0 18 6 26 23 29 45 9 62 3 62 -23z
m-9 -66 c-3 -9 -6 -19 -6 -24 0 -4 -16 -10 -35 -12 -33 -4 -35 -2 -35 24 0 26
3 28 41 28 33 0 40 -3 35 -16z"/>
</g>
<g id="part-1" class="char-part">
  <path d="M235 505 c-22 -8 -57 -14 -78 -14 l-38 -1 8 -37 c4 -21 7 -82 6 -135
-1 -91 0 -98 18 -98 12 0 19 7 19 19 0 21 26 31 83 31 31 0 37 -3 37 -21 0
-15 5 -20 20 -17 19 3 21 11 22 132 2 127 2 128 -22 142 -29 16 -24 16 -75 -1z
m53 -72 c3 -39 1 -43 -20 -43 -13 0 -40 -3 -60 -6 l-38 -7 0 41 c0 49 18 63
75 59 39 -2 40 -3 43 -44z m2 -101 c0 -37 -1 -38 -41 -39 -22 -1 -49 -5 -60
-8 -17 -6 -19 -1 -19 34 0 40 0 40 43 44 23 2 50 4 60 5 13 2 17 -6 17 -36z"/>
</g>
<g id="part-2" class="char-part">
  <path d="M287 210 c-4 -17 -14 -20 -61 -20 -43 0 -56 3 -56 15 0 9 -9 15 -25
15 -19 0 -25 -5 -25 -23 0 -30 27 -66 37 -50 5 6 27 13 51 14 37 3 46 -1 65
-25 22 -28 23 -28 41 -8 10 11 20 39 23 61 5 39 4 41 -20 41 -16 0 -26 -7 -30
-20z"/>
</g>
<g id="part-3" class="char-part">
  <path d="M571 583 c-13 -9 -56 -29 -95 -44 -39 -16 -62 -28 -51 -28 28 -1 224
45 233 53 9 10 -26 36 -48 36 -8 0 -26 -7 -39 -17z"/>
  <path d="M629 480 c-15 -27 -24 -50 -20 -50 3 0 30 16 60 36 54 36 56 48 11
59 -22 5 -28 0 -51 -45z"/>
  <path d="M490 491 c0 -19 47 -64 58 -57 16 9 15 31 0 44 -20 16 -58 24 -58 13z"/>
  <path d="M390 466 c0 -15 42 -56 58 -56 13 0 16 19 4 37 -4 6 -20 16 -35 22
-21 8 -27 8 -27 -3z"/>
</g>
<g id="part-4" class="char-part">
  <path d="M580 404 c-36 -7 -93 -13 -127 -14 -41 0 -63 -4 -63 -11 0 -12 139
-7 233 7 42 7 43 4 26 -74 -12 -57 -14 -58 -152 -69 -43 -3 -80 -11 -84 -16
-4 -7 37 -8 123 -3 71 5 135 8 142 9 7 0 10 8 7 18 -3 9 6 46 20 81 24 59 24
64 8 75 -20 16 -47 15 -133 -3z"/>
</g>
<g id="part-5" class="char-part">
  <path d="M530 361 c0 -5 7 -16 15 -24 13 -13 13 -16 -1 -21 -8 -3 -12 -2 -9 4
3 6 1 10 -4 10 -6 0 -11 -5 -11 -11 0 -7 -10 -9 -26 -5 -17 5 -23 3 -19 -4 3
-5 19 -10 35 -10 28 0 29 -1 26 -50 -2 -28 1 -50 7 -50 5 0 4 -7 -3 -15 -7 -8
-10 -35 -8 -69 l4 -54 -30 4 c-28 3 -29 2 -13 -10 9 -7 17 -18 17 -25 0 -6 7
-11 16 -11 8 0 12 5 9 10 -3 6 1 10 9 10 9 0 17 8 18 18 4 53 3 222 -3 222 -3
0 -6 7 -6 15 0 8 4 15 8 15 16 0 3 55 -14 58 -9 2 -17 -1 -17 -7z"/>
  <path d="M695 330 c-43 -6 -38 -7 33 -6 45 0 76 3 70 8 -14 8 -28 8 -103 -2z"/>
  <path d="M584 319 c-3 -5 9 -9 25 -9 17 0 31 3 31 8 0 10 -49 12 -56 1z"/>
  <path d="M373 299 c9 -5 32 -5 54 0 38 9 38 9 -16 9 -36 -1 -49 -4 -38 -9z"/>
</g>
</g>
</svg>