<?xml version="1.0" standalone="no"?>
<!DOCTYPE svg PUBLIC "-//W3C//DTD SVG 20010904//EN"
 "http://www.w3.org/TR/2001/REC-SVG-20010904/DTD/svg10.dtd">
<svg version="1.0" xmlns="http://www.w3.org/2000/svg"
 width="96.000000pt" height="68.000000pt" viewBox="0 0 96.000000 68.000000"
 preserveAspectRatio="xMidYMid meet">
<metadata>
Created by potrace 1.16, written by Peter Selinger 2001-2019
Combined from part_0.svg through part_5.svg with named groups
</metadata>
<g transform="translate(0.000000,68.000000) scale(0.100000,-0.100000)" fill="#000000" stroke="none">
<g id="part-0" class="char-part">
  <path d="M576 585 c-10 -8 -48 -24 -82 -35 -35 -12 -64 -24 -64 -27 0 -3 20
-2 45 1 40 7 45 5 45 -12 0 -27 -18 -38 -72 -46 -61 -9 -62 -26 -2 -26 l46 0
-23 -37 c-12 -21 -41 -55 -63 -75 -23 -21 -38 -38 -33 -38 11 0 48 22 76 45
13 11 25 16 28 10 15 -40 31 -60 49 -58 94 12 115 19 108 36 -3 8 2 20 11 27
21 17 19 25 -8 37 -17 8 -32 7 -56 -3 -37 -16 -77 -18 -85 -6 -6 10 57 82 72
82 9 0 99 -67 131 -98 36 -35 61 -44 101 -37 50 8 44 19 -23 41 -47 15 -152
78 -152 91 0 3 24 7 54 9 61 5 72 10 51 25 -14 10 -102 6 -146 -7 -18 -5 -21
-2 -20 25 1 29 4 31 54 41 55 12 64 23 33 40 -27 14 -52 12 -75 -5z m26 -221
c3 -3 4 -13 1 -24 -7 -27 -73 -37 -90 -14 -7 10 -10 21 -6 25 7 6 20 9 79 18
6 0 13 -2 16 -5z"/>
  <path d="M207 542 c-13 -3 -16 -8 -10 -20 4 -10 9 -66 11 -126 3 -114 0 -126
-42 -126 -17 0 -18 5 -12 50 6 45 5 50 -19 66 -14 9 -27 15 -29 13 -2 -2 -6
-41 -9 -87 -8 -98 -2 -104 77 -79 28 9 70 19 94 23 35 5 42 4 42 -10 0 -9 8
-16 19 -16 19 0 25 16 46 131 6 32 4 37 -17 42 -43 12 -45 9 -44 -50 1 -57 0
-58 -27 -61 l-29 -4 6 89 c4 48 9 102 12 119 4 28 1 33 -23 41 -16 5 -36 7
-46 5z"/>
  <path d="M585 258 c-84 -13 -131 -17 -155 -11 l-36 9 4 -90 c4 -106 6 -116 27
-116 12 0 15 15 15 84 l0 83 38 7 c20 3 81 9 135 13 76 5 101 3 107 -7 8 -12
4 -111 -5 -137 -6 -17 -47 -17 -64 0 -16 15 -12 2 14 -40 11 -18 28 -34 37
-37 20 -5 56 35 62 68 28 149 28 159 4 178 -27 21 -30 21 -183 -4z"/>
  <path d="M570 198 c-19 -5 -46 -8 -60 -6 l-26 4 15 -43 c17 -47 25 -49 104
-37 30 5 37 11 37 30 0 12 5 26 10 29 15 9 -8 35 -29 34 -9 0 -32 -5 -51 -11z
m40 -24 c0 -41 -73 -63 -83 -25 -3 11 -2 22 1 25 7 8 82 8 82 0z"/>
</g>
<g id="part-1" class="char-part">
  <path d="M204 513 c3 -16 6 -75 8 -133 l3 -105 -32 -3 -33 -3 0 54 c0 41 -4
56 -16 61 -29 11 -36 7 -30 -19 3 -13 1 -46 -4 -71 -9 -39 -8 -50 4 -62 12
-12 20 -13 43 -4 25 10 59 19 134 36 21 5 28 2 32 -14 3 -11 10 -20 16 -20 16
0 29 38 37 108 6 58 6 59 -20 64 -26 5 -26 4 -26 -52 0 -59 -8 -70 -47 -70
-14 0 -15 17 -11 125 5 132 4 135 -44 135 -16 0 -19 -5 -14 -27z"/>
</g>
<g id="part-2" class="char-part">
  <path d="M583 589 c-6 -6 -47 -24 -90 -40 -44 -16 -67 -28 -53 -28 33 0 219
35 227 42 3 4 0 13 -7 22 -15 18 -61 20 -77 4z"/>
</g>
<g id="part-3" class="char-part">
  <path d="M535 532 c-6 -4 -16 -19 -22 -33 -10 -23 -20 -28 -67 -33 -66 -9 -65
-26 0 -26 l45 0 -18 -31 c-10 -18 -37 -51 -61 -75 -44 -44 -45 -54 -6 -31 40
23 70 52 102 98 51 76 58 75 184 -34 54 -47 58 -48 102 -42 25 4 46 11 46 15
0 4 -19 12 -42 19 -24 7 -74 31 -113 54 l-70 42 69 10 c61 9 67 12 52 24 -16
14 -96 11 -153 -5 -19 -5 -22 -2 -20 21 2 29 -10 40 -28 27z"/>
</g>
<g id="part-4" class="char-part">
  <path d="M709 275 c-3 -2 -64 -12 -136 -20 -96 -12 -137 -14 -152 -6 -29 16
-33 14 -27 -16 3 -16 6 -55 7 -88 1 -75 7 -95 25 -95 11 0 14 18 14 84 l0 83
98 12 c53 7 111 14 129 17 49 7 66 -17 60 -87 -6 -74 -12 -82 -53 -76 l-34 6
26 -35 c52 -67 85 -37 109 100 9 49 14 90 13 91 -51 35 -68 42 -79 30z"/>
</g>
</g>
</svg>