<?xml version="1.0" standalone="no"?>
<!DOCTYPE svg PUBLIC "-//W3C//DTD SVG 20010904//EN"
 "http://www.w3.org/TR/2001/REC-SVG-20010904/DTD/svg10.dtd">
<svg version="1.0" xmlns="http://www.w3.org/2000/svg"
 width="96.000000pt" height="68.000000pt" viewBox="0 0 96.000000 68.000000"
 preserveAspectRatio="xMidYMid meet">
<metadata>
Created by potrace 1.16, written by Peter Selinger 2001-2019
Combined from part_0.svg through part_5.svg with named groups
</metadata>
<g transform="translate(0.000000,68.000000) scale(0.100000,-0.100000)" fill="#000000" stroke="none">
<g id="part-0" class="char-part">
  <path d="M628 539 c5 -55 -4 -69 -45 -69 -19 0 -23 5 -23 34 0 31 -13 46 -39
46 -4 0 -7 -19 -7 -42 l1 -43 -57 -3 -58 -3 20 -21 c11 -12 20 -29 20 -38 0
-10 5 -31 11 -49 9 -24 16 -31 28 -25 9 3 70 8 136 9 l120 3 32 63 c21 40 29
67 23 73 -5 5 -34 11 -65 14 -58 5 -66 14 -44 54 9 18 8 24 -7 35 -10 7 -25
13 -34 13 -14 0 -16 -8 -12 -51z m92 -94 c0 -20 -5 -25 -25 -25 -29 0 -45 28
-24 41 27 17 49 10 49 -16z m-100 -5 c0 -13 -7 -20 -20 -20 -11 0 -23 0 -27
-1 -17 -1 -13 30 4 34 35 9 43 7 43 -13z m-100 -10 c0 -14 -7 -20 -24 -20 -28
0 -54 25 -34 33 32 13 58 7 58 -13z m200 -28 c0 -19 -28 -44 -46 -40 -31 6
-30 36 3 41 15 2 31 5 36 6 4 0 7 -3 7 -7z m-105 -22 c0 -9 -11 -16 -27 -18
-20 -2 -28 1 -28 12 0 8 6 17 13 19 21 9 42 2 42 -13z m-85 -10 c0 -15 -7 -20
-25 -20 -18 0 -25 5 -25 20 0 15 7 20 25 20 18 0 25 -5 25 -20z"/>
  <path d="M258 554 c25 -48 81 -74 102 -49 20 24 -16 55 -70 62 -39 6 -42 5
-32 -13z"/>
  <path d="M320 434 c-19 -8 -61 -17 -95 -21 -75 -7 -101 -19 -63 -28 15 -4 56
0 93 10 70 17 82 16 68 -8 -18 -33 -166 -186 -184 -190 -11 -3 -19 -10 -19
-16 0 -17 31 -2 93 46 76 57 77 55 51 -129 -8 -55 8 -87 32 -67 10 8 14 40 14
115 0 59 4 105 10 109 6 4 24 -5 41 -19 31 -26 49 -27 49 -1 0 16 -38 38 -82
49 -16 3 -28 10 -28 14 0 5 23 31 50 59 28 28 50 55 50 60 0 22 -45 31 -80 17z"/>
  <path d="M553 297 c-116 -14 -108 -32 10 -24 104 8 139 15 131 28 -6 10 -28
10 -141 -4z"/>
  <path d="M570 244 c-52 -7 -105 -11 -117 -9 -13 3 -23 1 -23 -5 0 -5 5 -10 10
-10 6 0 20 -21 30 -46 11 -26 29 -59 40 -74 l20 -27 -38 -7 c-20 -3 -54 -6
-74 -6 -21 0 -38 -4 -38 -10 0 -11 441 -1 454 11 18 16 -43 28 -113 22 -39 -3
-71 -4 -71 -1 0 3 11 17 25 32 14 15 23 31 20 36 -3 5 4 27 17 49 12 22 20 42
17 45 -13 13 -70 13 -159 0z m105 -24 c11 -18 -40 -39 -103 -41 -46 -2 -66 1
-73 12 -15 24 -11 28 39 32 97 7 131 7 137 -3z m-38 -97 c-7 -41 -20 -53 -59
-53 -22 0 -28 5 -28 23 0 12 -10 28 -21 36 -31 19 -8 31 60 31 l54 0 -6 -37z"/>
</g>
<g id="part-1" class="char-part">
  <path d="M260 562 c0 -16 60 -62 81 -62 24 0 26 36 2 48 -30 16 -83 24 -83 14z"/>
</g>
<g id="part-2" class="char-part">
  <path d="M244 298 c-27 -29 -70 -70 -94 -91 -36 -31 -40 -37 -20 -31 29 8 100
55 119 78 8 9 17 16 22 16 13 0 11 -89 -4 -147 -13 -50 -9 -85 13 -98 22 -14
30 19 30 122 0 58 4 105 10 108 6 4 24 -5 41 -19 38 -32 49 -33 49 -2 0 18 -8
27 -31 35 -18 6 -40 11 -50 11 -26 0 -33 19 -15 39 16 18 12 31 -9 31 -6 0
-34 -24 -61 -52z"/>
</g>
<g id="part-3" class="char-part">
  <path d="M625 570 c4 -11 3 -50 0 -85 -7 -63 -8 -65 -36 -65 -29 0 -29 0 -29
65 0 62 -1 65 -24 65 -23 0 -23 -2 -18 -70 4 -66 4 -70 -17 -70 -11 0 -21 -4
-21 -10 0 -5 9 -10 21 -10 12 0 23 -8 26 -20 7 -26 23 -26 30 0 6 21 36 35 54
25 6 -4 8 -13 5 -21 -6 -16 -4 -17 18 -8 9 3 16 12 16 20 0 8 10 14 23 14 12
0 29 5 37 10 12 7 8 11 -17 16 -38 7 -38 10 -19 84 14 50 13 56 -1 68 -9 6
-25 12 -36 12 -14 0 -17 -5 -12 -20z"/>
</g>
<g id="part-4" class="char-part">
  <path d="M635 480 c-16 -6 -76 -11 -132 -13 -89 -2 -100 -4 -88 -17 7 -8 21
-41 30 -73 14 -47 20 -57 33 -52 10 4 71 8 137 10 l120 3 32 63 c21 41 29 67
23 73 -14 14 -119 17 -155 6z m90 -21 c4 -6 2 -30 -5 -54 -12 -42 -14 -44 -49
-43 -20 1 -70 -2 -111 -6 l-75 -8 -13 47 c-7 26 -11 49 -10 50 2 1 53 7 113
12 61 5 118 10 127 11 9 1 20 -3 23 -9z"/>
</g>
<g id="part-5" class="char-part">
  <path d="M655 135 c-3 -8 -7 -23 -10 -32 -4 -10 4 -6 20 11 29 32 30 36 10 36
-9 0 -18 -7 -20 -15z"/>
  <path d="M500 133 c0 -5 7 -19 16 -32 23 -32 9 -41 -64 -44 -34 -1 -62 -5 -62
-9 0 -12 94 -10 125 2 23 9 26 15 21 36 -5 19 -3 24 5 18 8 -4 9 -3 5 4 -9 16
-46 35 -46 25z"/>
  <path d="M615 70 c-19 -8 -19 -9 2 -9 12 -1 25 4 28 9 7 12 -2 12 -30 0z"/>
  <path d="M705 70 c-4 -6 19 -10 62 -10 48 0 63 3 53 10 -20 13 -107 13 -115 0z"/>
  <path d="M570 60 c-13 -8 -12 -10 3 -10 9 0 17 5 17 10 0 12 -1 12 -20 0z"/>
</g>
</g>
</svg>