<?xml version="1.0" standalone="no"?>
<!DOCTYPE svg PUBLIC "-//W3C//DTD SVG 20010904//EN"
 "http://www.w3.org/TR/2001/REC-SVG-20010904/DTD/svg10.dtd">
<svg version="1.0" xmlns="http://www.w3.org/2000/svg"
 width="96.000000pt" height="68.000000pt" viewBox="0 0 96.000000 68.000000"
 preserveAspectRatio="xMidYMid meet">
<metadata>
Created by potrace 1.16, written by Peter Selinger 2001-2019
Combined from part_0.svg through part_5.svg with named groups
</metadata>
<g transform="translate(0.000000,68.000000) scale(0.100000,-0.100000)" fill="#000000" stroke="none">
<g id="part-0" class="char-part">
  <path d="M238 482 c2 -66 -1 -177 -7 -246 -13 -133 -6 -170 27 -164 23 4 30
60 31 231 l1 138 29 -20 c34 -25 38 -25 56 -7 12 12 12 16 -3 29 -9 9 -30 19
-46 23 -27 6 -28 8 -22 54 7 52 0 64 -45 75 l-26 6 5 -119z"/>
  <path d="M650 574 c-41 -7 -114 -13 -162 -13 l-87 -1 5 -32 c3 -18 7 -41 9
-51 12 -60 -23 -273 -60 -359 -4 -10 -3 -18 3 -18 16 0 71 124 79 179 l8 51
110 5 c61 3 127 8 148 11 l37 6 0 -115 c0 -123 -7 -140 -52 -116 -35 19 -30 3
13 -36 l42 -38 24 27 c22 26 23 33 23 215 0 104 3 209 6 234 6 41 4 45 -17 52
-44 12 -54 12 -129 -1z m88 -119 l3 -90 -66 0 -65 0 0 33 c0 30 2 32 38 33 20
1 48 4 62 8 38 11 7 23 -48 19 l-47 -3 3 37 c3 27 -1 39 -15 47 -14 8 -1 10
57 8 l75 -2 3 -90z m-174 63 c17 -65 5 -78 -71 -78 l-46 0 7 42 c9 56 11 58
60 58 37 0 45 -4 50 -22z m-38 -98 c42 0 44 -1 44 -29 0 -24 -5 -29 -31 -35
-17 -3 -44 -6 -60 -6 -27 0 -29 3 -29 41 0 33 3 40 16 35 9 -3 36 -6 60 -6z"/>
  <path d="M150 404 c-11 -26 -20 -59 -20 -75 0 -24 4 -29 23 -29 37 0 62 81 41
134 -10 27 -22 18 -44 -30z"/>
  <path d="M595 290 c-11 -5 -42 -9 -69 -9 -42 -1 -47 -3 -41 -18 4 -10 11 -32
16 -50 11 -36 24 -49 34 -33 3 5 33 10 66 10 32 0 58 3 57 8 -1 4 6 24 16 45
16 33 17 40 5 48 -17 11 -57 10 -84 -1z m36 -47 c-7 -25 -13 -28 -54 -31 -26
-2 -47 1 -47 7 0 5 -3 16 -6 24 -6 17 14 23 78 26 35 1 36 0 29 -26z"/>
</g>
<g id="part-1" class="char-part">
  <path d="M237 558 c10 -42 6 -316 -7 -386 -10 -55 2 -102 26 -102 18 0 24 24
24 99 0 37 3 116 7 175 l6 107 22 -21 c27 -26 55 -26 55 0 0 14 -11 23 -41 31
l-40 13 6 47 c6 41 4 49 -14 58 -11 6 -27 11 -36 11 -14 0 -15 -6 -8 -32z"/>
  <path d="M151 391 c-24 -51 -22 -91 5 -91 22 0 47 67 39 107 -3 18 -9 33 -14
33 -4 0 -18 -22 -30 -49z"/>
</g>
<g id="part-2" class="char-part">
  <path d="M675 578 c-22 -6 -93 -11 -158 -12 l-117 -1 7 -30 c21 -84 -6 -309
-47 -403 -28 -62 -18 -65 20 -6 44 69 59 131 70 273 5 79 13 127 21 132 15 9
202 23 239 18 l25 -4 3 -200 c3 -222 -3 -249 -47 -226 -43 23 -41 5 4 -32 37
-32 48 -36 65 -27 28 15 29 28 33 260 1 113 6 213 11 222 6 13 0 20 -23 32
-34 18 -48 18 -106 4z"/>
</g>
<g id="part-3" class="char-part">
  <path d="M566 500 c8 -50 -2 -60 -64 -60 -26 0 -41 -4 -37 -10 3 -5 28 -10 56
-10 48 0 49 -1 49 -30 0 -28 -2 -29 -60 -36 -34 -4 -57 -11 -54 -16 6 -9 178
-4 253 8 50 8 19 24 -46 24 -52 0 -53 0 -53 30 0 28 3 30 38 31 20 1 48 4 62
8 38 11 7 23 -47 19 l-47 -3 0 40 c-1 36 -4 40 -29 43 -27 3 -27 3 -21 -38z"/>
</g>
<g id="part-4" class="char-part">
  <path d="M600 290 c-14 -4 -46 -8 -72 -9 -27 -1 -48 -3 -48 -5 0 -2 6 -19 14
-37 7 -19 16 -43 20 -53 5 -15 9 -17 18 -8 7 7 38 12 70 12 50 0 58 3 58 19 0
10 9 30 20 44 20 26 20 26 1 36 -22 12 -45 13 -81 1z m31 -47 c-6 -25 -13 -28
-53 -31 -42 -3 -46 -1 -50 22 -6 28 4 33 69 35 40 1 41 0 34 -26z"/>
</g>
</g>
</svg>