<?xml version="1.0" standalone="no"?>
<!DOCTYPE svg PUBLIC "-//W3C//DTD SVG 20010904//EN"
 "http://www.w3.org/TR/2001/REC-SVG-20010904/DTD/svg10.dtd">
<svg version="1.0" xmlns="http://www.w3.org/2000/svg"
 width="96.000000pt" height="68.000000pt" viewBox="0 0 96.000000 68.000000"
 preserveAspectRatio="xMidYMid meet">
<metadata>
Created by potrace 1.16, written by Peter Selinger 2001-2019
Combined from part_0.svg through part_5.svg with named groups
</metadata>
<g transform="translate(0.000000,68.000000) scale(0.100000,-0.100000)" fill="#000000" stroke="none">
<g id="part-0" class="char-part">
  <path d="M549 553 c-5 -16 -22 -45 -36 -66 -23 -33 -30 -37 -55 -32 -32 7 -34
-1 -14 -42 8 -15 18 -45 23 -67 l8 -38 110 -1 c124 -1 107 -11 154 97 16 36
19 52 11 60 -12 12 -98 13 -180 2 l-55 -7 30 23 c16 13 41 33 55 46 24 22 25
22 6 37 -29 22 -45 18 -57 -12z m129 -124 c3 -23 0 -25 -35 -25 -21 0 -63 -3
-94 -8 -49 -7 -57 -6 -63 9 -3 10 -4 20 -2 22 6 6 168 31 181 29 6 -2 11 -14
13 -27z m-8 -46 c0 -5 -3 -18 -6 -30 -6 -21 -12 -23 -84 -23 -69 0 -78 2 -83
20 -4 18 0 20 36 21 23 0 60 4 82 8 55 12 55 12 55 4z"/>
  <path d="M217 513 c4 -16 8 -48 8 -73 l0 -45 -58 0 c-31 0 -57 0 -57 -1 0 0 9
-19 20 -42 11 -22 20 -49 20 -59 0 -10 5 -25 10 -33 8 -12 13 -13 30 -2 33 20
40 14 40 -32 0 -42 -2 -45 -32 -52 -18 -4 -45 -6 -60 -5 -31 2 -36 -10 -13
-29 18 -15 64 -17 74 -3 3 5 42 22 86 37 l79 28 17 -21 c19 -23 29 -18 29 13
0 30 -11 43 -43 51 -22 6 -26 4 -21 -8 6 -17 1 -21 -38 -31 -27 -6 -28 -5 -28
33 l0 39 56 7 c35 4 54 11 51 18 -2 7 4 29 14 49 l19 37 -25 17 c-19 12 -36
15 -70 10 -25 -4 -45 -5 -45 -2 0 3 5 28 11 57 13 59 6 69 -49 69 -31 0 -32
-2 -25 -27z m119 -150 c-3 -8 -6 -21 -6 -29 0 -8 -10 -14 -25 -14 -21 0 -25 5
-25 29 0 20 6 31 18 33 26 6 44 -3 38 -19z m-108 -25 c-2 -25 -8 -33 -23 -33
-24 0 -34 43 -13 56 27 18 39 10 36 -23z"/>
  <path d="M610 260 c-19 -5 -61 -12 -93 -15 -65 -7 -68 -25 -4 -25 40 0 43 -2
45 -30 2 -28 0 -30 -35 -30 -47 0 -77 -15 -50 -26 9 -3 33 -3 52 0 27 5 35 4
36 -9 5 -53 11 -50 -104 -57 -105 -6 -127 -11 -114 -24 10 -10 82 -9 212 4 66
6 158 12 205 12 79 1 84 2 65 16 -17 13 -38 15 -122 9 l-103 -6 0 25 c0 30 19
41 75 45 22 2 42 5 44 7 11 11 -16 19 -60 18 -47 0 -49 1 -49 26 0 25 4 28 50
34 59 8 72 21 29 30 -35 7 -31 7 -79 -4z"/>
</g>
<g id="part-1" class="char-part">
  <path d="M225 493 c4 -27 8 -55 11 -63 7 -29 -12 -41 -70 -41 -52 -1 -56 -2
-42 -18 8 -9 20 -37 26 -63 13 -51 19 -55 50 -36 25 16 30 9 37 -42 4 -30 10
-40 20 -36 8 4 17 6 19 6 2 0 4 18 4 39 0 44 10 51 72 51 32 0 38 3 30 13 -8
10 -6 22 8 45 25 41 25 39 -8 56 -21 11 -39 12 -66 6 l-38 -8 5 41 c2 23 8 49
12 58 5 12 -2 19 -26 28 -49 17 -51 15 -44 -36z m115 -124 c0 -32 -19 -59 -40
-59 -17 0 -20 7 -20 40 0 38 2 40 30 40 24 0 30 -4 30 -21z m-110 -29 c0 -36
-2 -40 -25 -40 -14 0 -25 6 -25 13 0 6 -3 22 -6 34 -5 18 -1 22 23 26 15 2 29
5 31 6 1 0 2 -17 2 -39z"/>
</g>
<g id="part-2" class="char-part">
  <path d="M340 255 c0 -4 12 -27 26 -51 24 -40 29 -44 41 -31 12 11 13 19 4 36
-11 20 -71 58 -71 46z"/>
</g>
<g id="part-3" class="char-part">
  <path d="M542 543 c-10 -21 -26 -50 -36 -65 -10 -16 -15 -28 -10 -28 10 0 133
93 134 101 0 7 -46 29 -60 29 -5 0 -18 -17 -28 -37z"/>
</g>
<g id="part-4" class="char-part">
  <path d="M610 469 c-19 -5 -69 -10 -111 -11 -74 -3 -76 -3 -63 -23 7 -11 18
-43 24 -70 14 -64 26 -86 39 -66 7 10 30 13 101 9 l93 -4 24 55 c13 31 28 65
34 75 23 40 -51 58 -141 35z m70 -38 c0 -27 -3 -29 -32 -28 -18 0 -61 -3 -95
-7 -45 -6 -63 -5 -64 3 -1 6 -2 17 -3 24 -1 8 29 16 94 23 52 6 96 12 98 13 1
0 2 -12 2 -28z m-12 -68 c-3 -28 -4 -28 -82 -31 -57 -2 -82 1 -87 10 -15 23
-10 28 29 29 20 0 55 4 77 8 65 14 67 13 63 -16z"/>
</g>
<g id="part-5" class="char-part">
  <path d="M564 190 c-5 -22 -12 -30 -28 -31 -17 0 -15 -3 10 -14 27 -12 31 -19
29 -45 -1 -17 2 -31 9 -31 55 -6 245 -5 241 1 -9 14 -55 17 -132 10 -43 -4
-82 -6 -88 -4 -14 6 -7 74 8 74 5 0 3 8 -6 18 -19 20 -23 37 -7 27 6 -3 10 -4
10 -1 0 3 -9 10 -20 16 -18 10 -21 7 -26 -20z"/>
  <path d="M655 159 c18 -5 33 -5 39 1 7 7 -4 10 -29 9 -40 -1 -40 -1 -10 -10z"/>
  <path d="M478 143 c6 -2 18 -2 25 0 6 3 1 5 -13 5 -14 0 -19 -2 -12 -5z"/>
  <path d="M450 60 c-19 -5 -45 -6 -57 -3 -15 3 -23 1 -23 -7 0 -10 13 -11 53
-5 28 4 64 8 80 8 15 0 27 4 27 8 0 11 -32 10 -80 -1z"/>
</g>
</g>
</svg>