<?xml version="1.0" standalone="no"?>
<!DOCTYPE svg PUBLIC "-//W3C//DTD SVG 20010904//EN"
 "http://www.w3.org/TR/2001/REC-SVG-20010904/DTD/svg10.dtd">
<svg version="1.0" xmlns="http://www.w3.org/2000/svg"
 width="96.000000pt" height="68.000000pt" viewBox="0 0 96.000000 68.000000"
 preserveAspectRatio="xMidYMid meet">
<metadata>
Created by potrace 1.16, written by Peter Selinger 2001-2019
Combined from part_0.svg through part_5.svg with named groups
</metadata>
<g transform="translate(0.000000,68.000000) scale(0.100000,-0.100000)" fill="#000000" stroke="none">
<g id="part-0" class="char-part">
  <path d="M610 611 c-5 -11 -10 -29 -10 -40 0 -14 -6 -21 -20 -21 -11 0 -20 -4
-20 -10 0 -5 7 -10 16 -10 12 0 15 -6 10 -27 l-6 -28 30 33 c25 27 37 32 76
32 54 0 58 25 3 26 -29 0 -34 3 -31 21 2 14 -5 26 -17 32 -16 9 -22 8 -31 -8z"/>
  <path d="M407 588 c6 -7 13 -22 15 -33 2 -17 -4 -21 -42 -26 -42 -5 -44 -6
-20 -16 16 -7 34 -7 50 -1 18 7 27 5 36 -6 15 -21 24 -20 24 0 0 9 8 23 18 30
16 12 15 13 -5 14 -15 0 -23 7 -25 23 -2 16 -11 23 -32 25 -24 3 -28 1 -19
-10z"/>
  <path d="M228 514 c-4 -3 -33 -10 -65 -13 -45 -5 -57 -10 -53 -21 3 -8 5 -82
6 -165 0 -82 1 -156 2 -162 2 -15 32 -18 32 -3 0 6 20 10 44 10 33 0 47 -5 57
-21 12 -18 16 -18 33 -6 11 8 18 25 18 43 -4 156 -4 273 1 289 4 11 3 26 -1
32 -9 15 -64 28 -74 17z m22 -94 c0 -44 -4 -60 -14 -60 -7 0 -28 -3 -46 -7
l-33 -6 8 59 c4 32 9 62 12 67 2 4 20 7 39 7 l34 0 0 -60z m0 -154 c0 -69 -5
-76 -61 -76 l-29 0 0 64 0 65 38 4 c20 2 40 4 45 5 4 1 7 -27 7 -62z"/>
  <path d="M615 468 c-22 -5 -88 -10 -147 -11 l-107 -2 -15 -40 c-17 -45 -20
-65 -8 -65 16 0 29 16 39 45 l9 29 150 17 c82 9 153 15 157 12 4 -3 1 -16 -7
-29 -22 -32 -20 -34 12 -24 15 4 39 11 55 14 33 8 34 22 5 47 -25 20 -78 23
-143 7z"/>
  <path d="M483 401 c-24 -4 -46 -11 -50 -16 -11 -11 149 3 161 15 11 11 -43 12
-111 1z"/>
  <path d="M555 355 c-5 -2 -43 -9 -84 -15 -49 -8 -69 -15 -60 -21 8 -5 21 -6
31 -3 38 11 25 -17 -22 -47 -57 -37 -59 -47 -5 -25 77 32 91 5 21 -41 -85 -54
-85 -54 -51 -48 17 4 52 20 78 37 50 32 63 32 53 0 -6 -17 -87 -75 -154 -111
-36 -19 -20 -23 24 -6 46 19 107 48 114 55 3 3 14 12 24 20 18 14 19 13 12
-25 -12 -70 -15 -75 -47 -75 l-30 0 24 -26 c52 -56 102 6 93 115 l-5 64 22
-19 c12 -11 24 -21 27 -24 63 -63 92 -80 138 -80 68 0 82 14 30 29 -58 17
-136 56 -173 85 l-30 25 58 26 c56 26 58 28 41 46 -9 10 -18 19 -20 19 -1 0
-21 -18 -43 -40 -46 -46 -57 -48 -107 -18 -37 22 -37 22 -16 36 12 8 22 21 22
28 0 11 18 14 76 14 56 0 75 3 72 13 -4 11 -90 21 -113 12z"/>
</g>
<g id="part-1" class="char-part">
  <path d="M210 504 c-25 -8 -58 -14 -74 -14 -23 0 -27 -3 -20 -17 14 -32 16
-122 5 -208 -9 -62 -9 -90 -1 -106 8 -14 15 -17 23 -11 7 5 30 12 52 14 31 4
43 0 57 -16 17 -20 19 -20 32 -4 10 14 12 57 10 190 -3 196 -3 196 -84 172z
m41 -44 c12 -42 10 -100 -3 -104 -7 -3 -30 -7 -51 -10 l-38 -5 3 67 c3 61 5
67 28 73 39 11 54 6 61 -21z m6 -196 c-4 -37 -8 -68 -9 -69 -2 -1 -24 -5 -49
-9 -46 -7 -46 -7 -44 21 1 15 3 49 3 76 l2 47 51 0 52 0 -6 -66z"/>
</g>
<g id="part-2" class="char-part">
  <path d="M605 591 c-6 -35 -10 -41 -31 -41 -13 0 -24 -4 -24 -10 0 -5 9 -10
20 -10 17 0 19 -5 15 -27 l-6 -28 29 33 c24 27 35 32 75 32 25 0 48 4 51 9 8
12 -41 23 -65 16 -16 -6 -18 -2 -13 24 4 19 2 31 -4 31 -6 0 -17 3 -25 6 -11
4 -17 -5 -22 -35z"/>
  <path d="M415 571 c15 -30 15 -31 -7 -36 -13 -2 -36 -6 -53 -7 l-30 -3 23 -13
c18 -10 31 -11 55 -2 28 9 33 8 49 -12 l18 -23 0 26 c0 17 8 30 23 37 22 11
22 11 -5 11 -20 1 -27 7 -30 24 -2 16 -11 23 -31 25 l-28 3 16 -30z"/>
</g>
<g id="part-3" class="char-part">
  <path d="M575 463 c-44 -7 -110 -12 -147 -11 l-66 4 -16 -34 c-9 -18 -16 -42
-16 -53 0 -34 34 -18 46 21 10 30 16 35 45 38 19 1 88 9 153 17 66 8 121 13
124 11 2 -3 -5 -18 -17 -35 l-21 -29 32 8 c18 4 45 11 61 14 34 8 35 29 2 50
-29 19 -71 19 -180 -1z"/>
</g>
<g id="part-4" class="char-part">
  <path d="M631 281 c-11 -15 -34 -35 -50 -43 -16 -7 -27 -18 -23 -24 4 -5 40
-37 80 -72 67 -57 77 -62 120 -62 75 0 80 14 12 34 -33 10 -90 38 -128 62
l-67 43 45 19 c25 11 53 22 63 26 20 7 15 21 -13 36 -15 8 -22 5 -39 -19z"/>
</g>
</g>
</svg>