<?xml version="1.0" standalone="no"?>
<!DOCTYPE svg PUBLIC "-//W3C//DTD SVG 20010904//EN"
 "http://www.w3.org/TR/2001/REC-SVG-20010904/DTD/svg10.dtd">
<svg version="1.0" xmlns="http://www.w3.org/2000/svg"
 width="96.000000pt" height="68.000000pt" viewBox="0 0 96.000000 68.000000"
 preserveAspectRatio="xMidYMid meet">
<metadata>
Created by potrace 1.16, written by Peter Selinger 2001-2019
Combined from part_0.svg through part_5.svg with named groups
</metadata>
<g transform="translate(0.000000,68.000000) scale(0.100000,-0.100000)" fill="#000000" stroke="none">
<g id="part-0" class="char-part">
  <path d="M510 611 c0 -29 -14 -41 -51 -41 -11 0 -17 -4 -14 -10 3 -5 17 -10
30 -10 18 0 23 -5 21 -24 -1 -21 -8 -26 -46 -32 -25 -3 -76 -8 -115 -10 -38
-1 -72 -3 -74 -3 -3 -1 3 -7 13 -14 9 -7 23 -35 30 -62 9 -35 17 -50 29 -50 9
0 17 -4 17 -8 0 -4 0 -13 0 -21 0 -10 -24 -15 -95 -21 -52 -4 -95 -11 -95 -15
0 -15 54 -21 105 -11 27 5 52 8 54 5 12 -11 -82 -85 -164 -129 -48 -25 -49
-26 -15 -20 19 3 61 19 92 35 31 17 60 30 64 30 4 0 4 -22 1 -50 -4 -29 -2
-52 4 -56 16 -10 23 3 29 53 4 41 8 48 34 54 16 5 33 6 38 3 4 -3 8 -42 8 -87
0 -145 31 -142 38 4 l4 87 36 6 c47 7 52 2 52 -50 0 -41 -2 -44 -27 -44 l-28
0 28 -27 c40 -41 60 -24 71 61 5 37 5 70 1 74 -4 4 -33 7 -65 6 -47 -1 -59 2
-63 16 -2 9 -16 19 -30 22 -22 4 -25 2 -24 -21 2 -24 -2 -26 -40 -29 -24 -2
-43 0 -43 4 0 4 16 22 35 40 32 32 39 34 100 34 36 0 71 -5 78 -10 7 -6 49
-37 94 -70 72 -52 88 -60 125 -59 24 1 54 4 68 8 22 7 18 10 -35 25 -33 9 -98
35 -145 59 l-85 42 82 5 c92 6 109 14 67 30 -20 8 -64 8 -152 1 -158 -14 -152
-14 -152 9 0 17 7 20 48 21 109 2 102 -1 135 63 29 57 29 60 11 73 -10 8 -34
13 -51 11 -39 -5 -41 1 -10 29 15 15 42 23 90 28 37 4 67 11 67 15 0 13 -49
21 -86 14 -28 -5 -33 -4 -28 9 3 9 -2 20 -15 26 -35 19 -51 13 -51 -18z m30
-151 c0 -14 -7 -19 -27 -18 -16 0 -65 -3 -110 -7 -81 -8 -83 -7 -83 14 0 13 6
21 18 21 47 1 177 12 181 16 8 8 21 -8 21 -26z m-7 -49 c-4 -15 -17 -21 -66
-26 -34 -3 -74 -8 -88 -11 -25 -5 -59 19 -46 32 5 6 118 20 174 23 26 1 30 -2
26 -18z"/>
  <path d="M286 611 c-3 -5 1 -14 9 -21 25 -20 7 -30 -56 -30 -60 0 -71 -8 -44
-30 14 -12 55 -10 112 6 16 4 23 1 28 -15 9 -29 35 -27 35 3 0 17 7 26 25 30
35 9 31 26 -5 26 -19 0 -30 5 -30 14 0 20 -63 35 -74 17z"/>
</g>
<g id="part-1" class="char-part">
  <path d="M510 601 c0 -28 -3 -31 -31 -31 -17 0 -28 -4 -24 -10 3 -5 15 -10 26
-10 10 0 19 -7 19 -15 0 -21 15 -19 31 6 12 17 28 22 82 26 37 3 67 9 67 14 0
12 -31 16 -72 8 -32 -5 -37 -4 -40 15 -2 15 -11 22 -30 24 -25 3 -28 0 -28
-27z"/>
  <path d="M290 601 c0 -6 5 -13 10 -16 23 -14 7 -24 -52 -32 -57 -8 -61 -10
-41 -21 17 -10 32 -10 69 0 44 12 47 12 62 -10 20 -30 33 -28 30 5 -2 21 2 28
22 34 25 7 25 7 -3 8 -20 1 -31 7 -34 21 -4 14 -14 20 -34 20 -16 0 -29 -4
-29 -9z"/>
</g>
<g id="part-2" class="char-part">
  <path d="M475 499 c-27 -5 -87 -10 -132 -12 -46 -1 -83 -5 -83 -8 0 -4 7 -12
15 -19 8 -6 21 -36 30 -66 11 -38 19 -52 28 -47 7 4 56 8 111 9 54 1 102 6
106 11 5 4 22 33 39 64 l30 56 -25 12 c-28 12 -47 12 -119 0z m65 -41 c0 -59
-6 -64 -97 -76 -89 -12 -103 -10 -103 13 0 13 21 18 135 31 39 5 53 9 41 14
-11 3 -40 3 -65 -1 -25 -4 -65 -8 -88 -8 -36 -1 -43 2 -43 18 0 21 21 25 158
29 58 2 62 1 62 -20z"/>
</g>
<g id="part-3" class="char-part">
  <path d="M347 331 c-4 -17 -18 -20 -96 -26 -50 -4 -91 -11 -91 -15 0 -12 50
-18 110 -13 l55 4 -45 -40 c-25 -23 -74 -57 -110 -76 -47 -25 -59 -34 -41 -35
44 0 154 61 207 117 l51 53 66 0 c65 0 65 0 160 -70 88 -65 98 -70 143 -69
101 2 103 12 8 42 -49 15 -116 43 -149 62 l-60 34 82 1 c86 0 113 13 66 31
-20 7 -60 7 -139 0 -147 -15 -164 -14 -164 4 0 23 -47 19 -53 -4z"/>
</g>
<g id="part-4" class="char-part">
  <path d="M410 226 l-105 -11 -8 -54 c-5 -35 -4 -58 3 -65 14 -14 30 10 30 46
0 59 5 61 143 73 l67 6 0 -49 c0 -58 -4 -64 -39 -51 -26 10 -26 10 5 -22 26
-26 35 -29 52 -20 15 8 21 25 27 77 10 93 16 90 -175 70z"/>
</g>
</g>
</svg>