<?xml version="1.0" standalone="no"?>
<!DOCTYPE svg PUBLIC "-//W3C//DTD SVG 20010904//EN"
 "http://www.w3.org/TR/2001/REC-SVG-20010904/DTD/svg10.dtd">
<svg version="1.0" xmlns="http://www.w3.org/2000/svg"
 width="96.000000pt" height="68.000000pt" viewBox="0 0 96.000000 68.000000"
 preserveAspectRatio="xMidYMid meet">
<metadata>
Created by potrace 1.16, written by Peter Selinger 2001-2019
Combined from part_0.svg through part_5.svg with named groups
</metadata>
<g transform="translate(0.000000,68.000000) scale(0.100000,-0.100000)" fill="#000000" stroke="none">
<g id="part-0" class="char-part">
  <path d="M528 558 c-3 -42 -4 -43 -43 -46 -56 -5 -70 -22 -17 -22 23 0 42 -5
42 -10 0 -21 -54 -96 -99 -137 -46 -43 -47 -58 -1 -25 17 11 44 17 85 17 80 1
299 16 305 22 15 14 -33 23 -92 18 l-68 -6 0 30 c0 28 3 31 29 31 17 0 33 5
36 10 7 12 -52 13 -112 1 -58 -11 -73 0 -40 33 18 18 37 26 61 26 51 0 136 20
136 32 0 6 -24 8 -69 3 -37 -4 -77 -7 -87 -8 -12 -1 -18 3 -15 13 11 41 6 55
-21 58 -25 3 -27 0 -30 -40z m62 -167 c0 -32 -17 -41 -83 -41 l-37 0 22 35
c20 29 29 35 61 35 34 0 37 -2 37 -29z"/>
  <path d="M247 574 c-3 -4 -2 -14 2 -23 20 -37 22 -160 6 -313 -17 -162 -13
-198 21 -198 26 0 34 48 34 206 0 85 3 154 6 154 3 0 19 -8 35 -17 23 -14 31
-15 41 -5 18 18 -1 45 -41 57 -33 10 -33 10 -26 59 5 38 2 52 -11 67 -17 18
-54 25 -67 13z"/>
  <path d="M143 363 c-22 -55 -20 -83 7 -83 33 0 58 57 46 105 -10 39 -31 30
-53 -22z"/>
  <path d="M620 305 c-30 -7 -72 -10 -92 -8 l-37 5 6 -37 c3 -20 0 -75 -7 -121
-10 -66 -11 -87 -1 -97 15 -15 29 4 37 56 5 29 11 37 28 37 11 0 45 3 74 6
l52 7 0 -37 c0 -33 -3 -37 -30 -43 -16 -3 -30 -7 -30 -10 0 -2 11 -15 24 -29
20 -22 27 -24 45 -15 26 14 29 30 34 168 3 109 3 112 -20 122 -13 6 -25 10
-26 10 -1 -1 -27 -7 -57 -14z m53 -37 c4 -12 5 -23 4 -25 -2 -1 -33 -5 -70 -9
-66 -7 -67 -6 -67 18 0 21 5 24 37 26 21 2 39 5 42 7 14 14 49 3 54 -17z m4
-64 c9 -23 -6 -31 -74 -39 -62 -7 -63 -7 -63 17 0 22 5 25 47 27 26 1 49 4 52
7 10 10 32 3 38 -12z"/>
</g>
<g id="part-1" class="char-part">
  <path d="M256 553 c13 -40 9 -316 -5 -395 -12 -70 -2 -118 25 -118 19 0 22 20
29 203 4 92 9 167 11 167 3 0 16 -7 29 -16 14 -9 32 -14 40 -10 23 9 6 34 -32
47 l-35 11 4 55 c4 51 3 55 -23 69 -43 22 -53 18 -43 -13z"/>
  <path d="M150 370 c-24 -47 -23 -83 2 -88 21 -4 40 30 41 74 2 56 -18 63 -43
14z"/>
</g>
<g id="part-2" class="char-part">
  <path d="M535 597 c-2 -6 -6 -28 -7 -47 -3 -34 -4 -35 -50 -38 -58 -4 -64 -22
-7 -22 37 0 40 -2 33 -22 -10 -35 -53 -89 -101 -130 -25 -21 -39 -38 -33 -38
22 0 95 50 121 82 20 26 61 92 65 105 0 2 36 7 80 13 93 13 114 18 114 30 0
13 -31 17 -65 9 -16 -4 -47 -10 -68 -14 l-38 -6 3 37 c2 30 -1 38 -20 45 -16
6 -24 5 -27 -4z"/>
</g>
<g id="part-3" class="char-part">
  <path d="M583 441 c-53 -9 -67 -21 -25 -21 29 0 32 -3 32 -29 0 -24 -5 -29
-31 -35 -17 -3 -47 -6 -65 -6 -19 0 -34 -5 -34 -11 0 -8 22 -9 73 -5 39 3 116
9 170 12 53 4 97 10 97 15 0 15 -42 21 -101 14 l-59 -7 0 31 c0 28 3 31 29 31
17 0 33 5 36 10 7 11 -55 12 -122 1z"/>
</g>
<g id="part-4" class="char-part">
  <path d="M620 304 c-36 -7 -78 -11 -95 -8 l-30 5 -2 -83 c-2 -46 -4 -103 -5
-127 -2 -25 2 -46 8 -48 13 -4 34 40 34 72 0 19 5 25 23 25 12 0 46 3 75 6 51
7 52 6 52 -19 0 -41 -10 -57 -36 -57 -31 0 -30 -14 2 -39 20 -15 31 -18 44
-11 23 12 28 40 32 169 4 129 -2 135 -102 115z m55 -35 c4 -11 5 -23 2 -25 -2
-2 -34 -7 -71 -11 -66 -6 -66 -6 -66 20 0 22 5 26 33 30 79 10 95 8 102 -14z
m5 -74 c0 -19 -5 -25 -22 -25 -13 0 -46 -3 -74 -6 -51 -6 -52 -6 -47 19 5 23
10 26 57 30 28 2 59 4 69 5 12 1 17 -5 17 -23z"/>
</g>
</g>
</svg>