<?xml version="1.0" standalone="no"?>
<!DOCTYPE svg PUBLIC "-//W3C//DTD SVG 20010904//EN"
 "http://www.w3.org/TR/2001/REC-SVG-20010904/DTD/svg10.dtd">
<svg version="1.0" xmlns="http://www.w3.org/2000/svg"
 width="96.000000pt" height="68.000000pt" viewBox="0 0 96.000000 68.000000"
 preserveAspectRatio="xMidYMid meet">
<metadata>
Created by potrace 1.16, written by Peter Selinger 2001-2019
Combined from part_0.svg through part_5.svg with named groups
</metadata>
<g transform="translate(0.000000,68.000000) scale(0.100000,-0.100000)" fill="#000000" stroke="none">
<g id="part-0" class="char-part">
  <path d="M707 584 c-3 -3 -1 -19 5 -34 11 -33 7 -434 -5 -446 -4 -4 -23 -3
-42 3 -19 6 -35 10 -35 8 0 -2 21 -24 46 -49 37 -37 49 -44 64 -36 23 13 28
50 29 235 1 142 10 240 25 277 11 25 -66 62 -87 42z"/>
  <path d="M440 550 c-19 -5 -80 -13 -135 -20 -139 -15 -146 -32 -18 -42 l33 -3
-25 -52 c-13 -29 -48 -78 -78 -108 -58 -59 -60 -66 -10 -36 l32 20 41 -39 c23
-22 46 -37 51 -34 5 3 9 0 9 -6 0 -22 -41 -69 -101 -116 -32 -26 -57 -49 -55
-51 2 -3 22 5 44 16 63 32 145 114 206 205 31 47 60 88 66 91 16 10 11 29 -11
43 -18 12 -31 11 -85 -4 -35 -9 -67 -14 -70 -11 -3 3 5 21 19 39 13 18 22 38
20 45 -3 8 18 14 66 19 80 7 110 27 66 44 -14 5 -27 10 -28 9 -1 -1 -18 -5
-37 -9z m-6 -159 c6 -10 -32 -93 -58 -126 -16 -20 -16 -20 -39 8 -12 15 -27
27 -33 27 -6 0 -19 6 -30 14 -19 14 -19 15 5 40 15 16 36 26 55 27 17 1 42 5
56 9 35 11 38 11 44 1z"/>
  <path d="M580 458 c-1 -2 -2 -39 -4 -83 -1 -44 -6 -89 -10 -100 -4 -12 -1 -28
8 -40 26 -36 40 -4 47 108 4 56 6 103 5 103 -4 4 -46 15 -46 12z"/>
</g>
<g id="part-1" class="char-part">
  <path d="M415 541 c-12 -5 -65 -12 -118 -16 -55 -4 -97 -12 -97 -18 0 -7 44
-8 133 -4 149 8 189 14 184 31 -4 14 -75 18 -102 7z"/>
</g>
<g id="part-2" class="char-part">
  <path d="M313 483 c-18 -55 -49 -104 -96 -155 -77 -84 -33 -72 61 16 24 23 49
34 93 42 33 6 62 8 64 4 3 -4 -10 -36 -27 -71 -22 -44 -61 -93 -129 -161 -53
-54 -92 -98 -86 -98 21 0 106 62 155 114 28 29 71 85 97 124 25 39 50 74 55
77 18 11 10 32 -16 43 -20 10 -37 9 -80 -4 -30 -8 -59 -14 -64 -12 -6 2 2 20
17 41 23 32 25 40 13 47 -24 15 -50 11 -57 -7z"/>
</g>
<g id="part-3" class="char-part">
  <path d="M575 378 c-1 -46 -4 -92 -8 -103 -5 -13 -2 -27 7 -40 26 -35 40 -4
46 103 5 79 3 99 -9 110 -30 25 -36 13 -36 -70z"/>
</g>
<g id="part-4" class="char-part">
  <path d="M706 573 c10 -22 18 -394 9 -441 -6 -33 -7 -33 -48 -27 -23 4 -40 5
-37 3 3 -3 27 -24 53 -48 45 -41 49 -42 65 -26 15 14 17 41 18 184 1 178 10
285 26 316 8 15 6 23 -13 37 -13 10 -37 19 -53 19 -23 0 -27 -3 -20 -17z"/>
</g>
</g>
</svg>