<?xml version="1.0" standalone="no"?>
<!DOCTYPE svg PUBLIC "-//W3C//DTD SVG 20010904//EN"
 "http://www.w3.org/TR/2001/REC-SVG-20010904/DTD/svg10.dtd">
<svg version="1.0" xmlns="http://www.w3.org/2000/svg"
 width="96.000000pt" height="68.000000pt" viewBox="0 0 96.000000 68.000000"
 preserveAspectRatio="xMidYMid meet">
<metadata>
Created by potrace 1.16, written by Peter Selinger 2001-2019
Combined from part_0.svg through part_5.svg with named groups
</metadata>
<g transform="translate(0.000000,68.000000) scale(0.100000,-0.100000)" fill="#000000" stroke="none">
<g id="part-0" class="char-part">
  <path d="M400 623 c0 -3 11 -21 25 -39 21 -27 22 -33 9 -38 -26 -10 -172 -7
-179 4 -14 23 -33 7 -54 -45 -23 -56 -23 -85 2 -85 14 0 57 52 57 70 0 5 13
10 29 10 16 0 43 3 60 6 28 6 31 4 25 -12 -4 -11 -28 -38 -53 -61 -53 -49 -47
-54 18 -17 66 38 92 64 85 86 -4 15 0 18 25 18 16 0 36 2 43 5 11 4 14 -3 12
-27 -4 -44 3 -65 24 -73 34 -13 108 -16 137 -5 l30 12 -24 9 c-13 5 -39 7 -57
3 -47 -9 -74 3 -74 31 0 13 5 27 10 30 6 4 8 10 5 15 -6 10 103 26 112 16 3
-3 -1 -14 -10 -24 -21 -23 -22 -46 -3 -39 8 3 32 9 53 13 59 10 75 21 64 43
-23 41 -101 49 -238 25 -28 -5 -33 -3 -33 14 0 26 -45 62 -76 62 -13 0 -24 -3
-24 -7z"/>
  <path d="M304 354 c-11 -19 -43 -51 -71 -71 -29 -20 -53 -40 -53 -45 0 -17 30
-20 80 -8 28 7 54 10 57 7 3 -4 -9 -18 -27 -33 -18 -15 -37 -32 -44 -38 -6 -6
-23 -19 -38 -29 -52 -33 -22 -60 36 -33 19 9 40 16 47 16 7 0 33 8 57 17 35
13 48 14 63 5 26 -17 29 -15 29 12 0 24 -12 38 -42 49 -14 5 -17 1 -15 -15 2
-17 -8 -23 -60 -38 -42 -11 -63 -14 -63 -6 1 6 39 36 86 66 65 42 84 60 82 75
-4 30 -42 31 -55 2 -9 -20 -21 -25 -69 -31 -31 -3 -59 -5 -61 -2 -2 2 25 25
61 51 36 26 66 50 66 54 0 4 -11 13 -24 19 -21 9 -25 7 -42 -24z"/>
  <path d="M575 377 c-2 -6 -6 -29 -10 -49 -6 -36 -8 -38 -43 -38 -48 0 -76 -16
-41 -24 13 -3 34 -7 47 -8 l23 -3 -23 -43 c-13 -23 -47 -67 -77 -97 -60 -61
-48 -77 16 -23 59 51 82 79 110 136 l26 52 49 0 c56 0 57 -5 32 -90 -25 -85
-41 -103 -82 -95 l-34 6 22 -30 c45 -64 105 -18 134 103 10 42 22 78 27 82 17
10 9 41 -15 54 -19 10 -35 10 -65 2 -45 -11 -55 -5 -46 31 5 18 1 26 -20 35
-20 9 -27 9 -30 -1z"/>
</g>
<g id="part-1" class="char-part">
  <path d="M408 614 c6 -11 21 -31 34 -45 l25 -26 -106 -8 c-73 -4 -107 -3 -109
4 -7 21 -20 11 -46 -34 -14 -25 -22 -53 -19 -61 9 -25 37 -11 56 29 19 37 19
37 80 37 34 0 80 5 102 10 56 13 255 25 255 15 0 -5 -10 -19 -22 -32 -12 -13
-17 -23 -12 -23 26 2 115 27 114 33 0 4 0 11 0 15 0 4 -13 16 -30 25 -26 16
-39 17 -106 8 -111 -16 -134 -15 -134 7 0 24 -27 48 -64 58 -25 6 -27 5 -18
-12z"/>
</g>
<g id="part-2" class="char-part">
  <path d="M500 491 c0 -48 17 -67 70 -76 45 -8 120 2 120 16 0 11 -5 11 -85 13
-57 1 -60 2 -59 26 0 14 3 32 5 40 3 10 -5 16 -23 18 -26 3 -28 1 -28 -37z"/>
  <path d="M374 493 c-13 -14 -24 -29 -24 -34 0 -4 -20 -22 -45 -40 -55 -40 -51
-49 7 -19 57 30 118 79 118 95 0 26 -31 25 -56 -2z"/>
</g>
<g id="part-3" class="char-part">
  <path d="M318 374 c-27 -35 -94 -100 -118 -116 -20 -13 -23 -19 -12 -29 10
-11 23 -11 75 0 81 16 102 36 28 26 -65 -9 -62 -1 18 51 64 42 73 57 41 74
-15 8 -22 6 -32 -6z"/>
</g>
<g id="part-4" class="char-part">
  <path d="M374 298 c-9 -28 -107 -121 -162 -155 -39 -23 -42 -27 -28 -41 14
-15 25 -13 117 18 75 26 103 32 106 23 8 -23 33 -14 33 11 0 25 -32 56 -58 56
-12 0 -12 -3 -2 -15 17 -20 6 -30 -51 -43 -26 -7 -54 -14 -63 -18 -41 -16 -8
16 74 71 49 33 90 65 90 72 0 13 -27 43 -40 43 -5 0 -12 -10 -16 -22z"/>
</g>
<g id="part-5" class="char-part">
  <path d="M660 302 c0 -6 11 -9 26 -6 25 5 25 4 22 -50 -1 -30 -6 -52 -10 -50
-5 3 -8 -1 -8 -8 0 -7 -7 -31 -16 -53 -15 -41 -23 -45 -73 -45 l-25 0 23 -24
23 -24 34 20 c26 15 32 23 24 33 -8 10 -8 15 1 21 8 4 9 3 5 -4 -4 -7 -3 -12
3 -12 9 0 17 17 26 57 2 10 9 33 14 52 6 19 9 37 6 39 -3 3 2 10 10 16 9 7 11
16 6 24 -10 17 -91 29 -91 14z"/>
</g>
</g>
</svg>