<?xml version="1.0" standalone="no"?>
<!DOCTYPE svg PUBLIC "-//W3C//DTD SVG 20010904//EN"
 "http://www.w3.org/TR/2001/REC-SVG-20010904/DTD/svg10.dtd">
<svg version="1.0" xmlns="http://www.w3.org/2000/svg"
 width="96.000000pt" height="68.000000pt" viewBox="0 0 96.000000 68.000000"
 preserveAspectRatio="xMidYMid meet">
<metadata>
Created by potrace 1.16, written by Peter Selinger 2001-2019
Combined from part_0.svg through part_5.svg with named groups
</metadata>
<g transform="translate(0.000000,68.000000) scale(0.100000,-0.100000)" fill="#000000" stroke="none">
<g id="part-0" class="char-part">
  <path d="M520 583 c0 -9 -9 -36 -21 -59 -20 -42 -22 -43 -65 -41 -34 2 -44 6
-44 19 0 17 -37 44 -47 35 -8 -8 16 -47 30 -48 22 -2 -37 -17 -70 -18 -39 -1
-41 5 -11 36 12 13 23 36 24 51 1 23 -2 27 -27 28 -25 1 -30 -4 -39 -36 -12
-43 -34 -75 -104 -147 -56 -59 -44 -72 20 -23 21 16 43 30 48 30 9 0 3 -114
-9 -141 -6 -16 17 -49 36 -49 5 0 11 11 15 25 5 22 11 25 53 25 70 0 151 12
151 21 0 5 -18 9 -40 9 -33 0 -40 3 -40 20 0 15 7 20 24 20 14 0 28 5 31 10 4
6 -7 10 -24 10 -24 0 -31 4 -31 20 0 16 7 20 30 20 17 0 30 5 30 10 0 6 -13
10 -29 10 -57 0 -48 33 11 44 32 6 37 4 32 -9 -7 -18 7 -20 24 -3 24 24 28
-62 7 -144 -6 -21 -3 -29 10 -34 9 -4 20 -2 24 4 4 7 60 16 131 22 68 6 126
12 128 15 13 13 -15 20 -70 18 -51 -2 -59 0 -56 15 2 11 15 18 38 20 52 5 62
22 13 22 -38 0 -63 13 -50 27 3 2 24 7 46 10 55 8 52 23 -4 23 -42 0 -45 2
-36 19 6 11 26 21 50 25 60 9 61 26 2 26 -38 0 -51 4 -51 15 0 15 -38 40 -47
31 -4 -3 -1 -17 5 -31 13 -29 12 -29 -49 -39 -48 -8 -53 0 -22 40 14 19 23 41
19 49 -8 21 -46 19 -46 -2z m90 -122 c0 -11 -9 -21 -22 -25 -41 -10 -58 -7
-58 12 0 25 4 27 45 30 29 2 35 -1 35 -17z m-270 -31 c0 -11 -3 -21 -7 -21
-37 -7 -59 -5 -65 5 -17 25 -7 36 32 36 33 0 40 -3 40 -20z m275 -30 c0 -20
-75 -35 -87 -18 -13 22 -9 27 25 31 48 6 62 3 62 -13z m-275 -29 c0 -19 -29
-30 -62 -23 -26 5 -22 30 5 35 47 9 57 7 57 -12z m273 -26 c8 -18 2 -21 -50
-30 -38 -6 -43 -5 -43 12 0 28 8 33 51 33 23 0 39 -5 42 -15z m-273 -35 c0
-17 -7 -20 -40 -20 -33 0 -40 3 -40 20 0 17 7 20 40 20 33 0 40 -3 40 -20z"/>
  <path d="M485 244 c-33 -7 -90 -14 -127 -15 -68 -2 -87 -12 -45 -24 24 -7 147
-86 147 -95 0 -11 -101 -51 -176 -69 -44 -11 -68 -20 -54 -20 35 -1 181 35
223 55 34 16 35 16 78 -13 72 -48 102 -57 183 -50 63 6 142 25 110 26 -88 5
-294 62 -294 81 0 4 25 33 56 64 l56 56 -27 10 c-32 12 -52 11 -130 -6z m59
-23 c7 -11 -19 -65 -39 -81 -13 -10 -24 -7 -62 16 -25 16 -46 34 -45 39 0 6
25 15 54 21 68 15 86 16 92 5z"/>
</g>
<g id="part-1" class="char-part">
  <path d="M251 543 c-15 -44 -80 -132 -123 -168 -44 -37 -21 -30 40 11 29 20
55 34 59 30 4 -3 1 -42 -6 -85 -13 -80 -10 -101 13 -101 17 0 26 53 26 159 0
78 2 86 31 122 25 32 29 42 19 54 -22 26 -45 17 -59 -22z"/>
</g>
<g id="part-2" class="char-part">
  <path d="M617 400 c-4 -15 -14 -20 -40 -20 -52 0 -55 -18 -5 -22 61 -4 58 -30
-4 -41 -69 -13 -61 -30 10 -23 31 3 92 8 135 12 42 3 77 10 77 14 0 14 -46 20
-95 13 -43 -5 -47 -4 -43 13 2 12 13 20 28 22 14 1 36 5 50 8 23 6 24 7 5 14
-11 4 -35 5 -52 2 -26 -4 -33 -1 -33 12 0 23 -27 20 -33 -4z"/>
</g>
<g id="part-3" class="char-part">
  <path d="M480 244 c-36 -7 -93 -13 -127 -14 -35 0 -63 -3 -63 -7 0 -5 19 -16
43 -26 43 -17 117 -72 117 -86 0 -13 -95 -53 -171 -71 -44 -11 -63 -18 -46
-19 33 -1 166 31 219 53 34 15 36 14 94 -22 57 -36 62 -37 149 -36 50 0 101 5
115 11 22 9 16 12 -50 22 -80 13 -195 45 -220 61 -12 8 -4 20 44 69 55 56 57
60 38 70 -25 14 -58 12 -142 -5z m65 -25 c7 -11 -33 -76 -51 -83 -14 -5 -108
53 -99 62 5 6 43 14 137 31 4 0 10 -4 13 -10z"/>
</g>
</g>
</svg>