<?xml version="1.0" standalone="no"?>
<!DOCTYPE svg PUBLIC "-//W3C//DTD SVG 20010904//EN"
 "http://www.w3.org/TR/2001/REC-SVG-20010904/DTD/svg10.dtd">
<svg version="1.0" xmlns="http://www.w3.org/2000/svg"
 width="96.000000pt" height="68.000000pt" viewBox="0 0 96.000000 68.000000"
 preserveAspectRatio="xMidYMid meet">
<metadata>
Created by potrace 1.16, written by Peter Selinger 2001-2019
Combined from part_0.svg through part_5.svg with named groups
</metadata>
<g transform="translate(0.000000,68.000000) scale(0.100000,-0.100000)" fill="#000000" stroke="none">
<g id="part-0" class="char-part">
  <path d="M480 572 c0 -11 7 -25 15 -32 8 -7 15 -15 15 -19 0 -4 -59 -12 -132
-19 -73 -7 -134 -15 -137 -18 -3 -2 5 -11 17 -20 27 -18 28 -60 7 -152 -17
-74 -41 -122 -89 -185 -29 -39 -33 -47 -18 -47 26 0 96 76 126 136 14 28 33
93 43 143 12 66 23 95 35 102 10 5 109 15 221 21 111 6 206 14 211 19 6 5 -6
15 -27 24 -29 12 -49 13 -104 5 -91 -13 -93 -13 -93 9 0 24 -19 39 -58 47 -27
6 -32 4 -32 -14z"/>
  <path d="M425 433 c13 -29 18 -90 8 -96 -6 -4 -26 -7 -46 -9 -50 -3 -47 -18 3
-18 22 0 40 -2 40 -4 0 -18 -60 -103 -100 -140 -27 -25 -44 -46 -38 -46 20 0
78 41 108 78 16 20 32 34 34 31 3 -2 0 -38 -5 -79 -12 -81 -2 -124 26 -114 12
5 15 28 16 123 2 168 -2 156 42 159 48 4 49 22 1 22 l-37 0 5 45 c6 49 6 49
-36 59 -25 6 -28 5 -21 -11z"/>
  <path d="M655 387 l-70 -10 0 -101 c0 -56 -3 -117 -6 -137 -4 -23 -2 -42 8
-55 13 -18 15 -18 27 -1 20 26 102 24 111 -3 8 -24 28 -26 45 -4 17 19 15 291
-2 311 -11 14 -11 14 -113 0z m74 -31 c7 -8 9 -25 6 -38 -5 -20 -13 -23 -56
-25 l-49 -3 0 34 c0 19 6 37 13 39 25 11 75 7 86 -7z m1 -108 c0 -33 0 -33
-52 -33 -47 0 -51 2 -53 23 -2 27 22 40 73 41 30 1 32 -1 32 -31z m9 -65 c-3
-49 -13 -58 -67 -61 l-53 -4 3 33 c3 36 22 46 86 48 25 1 32 -3 31 -16z"/>
  <path d="M480 262 c0 -11 47 -52 60 -52 22 0 9 41 -16 50 -31 12 -44 13 -44 2z"/>
</g>
<g id="part-1" class="char-part">
  <path d="M480 570 c0 -5 9 -19 21 -31 11 -11 19 -22 17 -24 -2 -2 -63 -9 -136
-16 -126 -12 -152 -19 -116 -33 14 -6 16 -18 11 -84 -6 -93 -34 -170 -88 -246
-22 -31 -36 -56 -32 -56 5 0 28 19 52 41 57 55 95 138 117 254 l17 93 61 6
c34 4 132 11 219 16 88 5 161 11 165 14 15 15 -19 21 -114 19 -83 -1 -104 1
-104 12 0 8 -10 21 -22 29 -25 18 -68 21 -68 6z"/>
</g>
<g id="part-2" class="char-part">
  <path d="M426 433 c4 -10 8 -36 8 -58 1 -39 0 -39 -43 -47 -60 -10 -64 -18 -8
-18 26 0 47 -3 47 -7 0 -17 -66 -106 -106 -143 -25 -23 -44 -44 -42 -46 9 -8
97 56 123 90 15 20 29 35 32 33 2 -2 -1 -37 -7 -78 -12 -80 -6 -129 15 -129
20 0 25 24 25 133 l0 101 28 -27 c34 -33 55 -35 50 -5 -2 14 -14 25 -37 33
-58 19 -50 55 12 55 15 0 27 4 27 9 0 13 -25 20 -51 14 -21 -6 -22 -4 -17 41
6 50 6 50 -36 60 -25 6 -28 5 -20 -11z"/>
</g>
<g id="part-3" class="char-part">
  <path d="M685 390 c-16 -4 -46 -8 -65 -9 l-35 -1 0 -110 c0 -87 3 -110 14
-110 8 0 19 7 26 16 7 10 32 19 63 22 43 4 52 2 52 -12 0 -9 8 -16 19 -16 18
0 20 9 23 101 3 92 1 103 -17 115 -21 15 -34 16 -80 4z m48 -54 c-1 -16 -3
-30 -5 -31 -2 -2 -26 -6 -54 -10 l-51 -6 5 33 c6 41 17 49 67 46 37 -3 40 -5
38 -32z m-3 -85 c0 -24 -5 -29 -31 -35 -59 -12 -69 -8 -69 23 0 32 10 38 68
40 29 1 32 -2 32 -28z"/>
</g>
<g id="part-4" class="char-part">
  <path d="M737 163 c-4 -3 -7 -14 -7 -23 0 -12 -12 -16 -55 -18 -49 -2 -55 0
-55 18 0 29 -38 27 -42 -2 -4 -26 11 -68 24 -68 5 0 11 7 14 15 4 10 21 15 54
15 40 0 50 -4 55 -20 12 -39 51 -17 56 30 4 45 -1 60 -19 60 -10 0 -22 -3 -25
-7z"/>
</g>
</g>
</svg>