<?xml version="1.0" standalone="no"?>
<!DOCTYPE svg PUBLIC "-//W3C//DTD SVG 20010904//EN"
 "http://www.w3.org/TR/2001/REC-SVG-20010904/DTD/svg10.dtd">
<svg version="1.0" xmlns="http://www.w3.org/2000/svg"
 width="96.000000pt" height="68.000000pt" viewBox="0 0 96.000000 68.000000"
 preserveAspectRatio="xMidYMid meet">
<metadata>
Created by potrace 1.16, written by Peter Selinger 2001-2019
Combined from part_0.svg through part_5.svg with named groups
</metadata>
<g transform="translate(0.000000,68.000000) scale(0.100000,-0.100000)" fill="#000000" stroke="none">
<g id="part-0" class="char-part">
  <path d="M580 559 c0 -22 35 -69 52 -69 39 0 31 43 -13 65 -34 18 -39 18 -39
4z"/>
  <path d="M265 538 c4 -13 9 -64 12 -114 6 -104 13 -96 -99 -109 -32 -4 -58
-11 -58 -16 0 -17 49 -20 104 -6 l56 14 0 -26 c0 -14 -5 -64 -10 -110 -11 -96
-5 -134 19 -129 18 4 28 70 30 201 l1 77 45 0 c25 0 45 5 45 10 0 6 -21 10
-46 10 l-46 0 6 38 c19 131 18 160 -2 171 -12 6 -31 11 -43 11 -18 0 -20 -4
-14 -22z"/>
  <path d="M685 479 c-22 -6 -77 -11 -122 -12 -76 -2 -83 -4 -94 -27 -7 -14 -14
-35 -16 -47 -6 -36 25 -28 43 10 16 34 17 34 128 49 61 9 115 12 119 8 5 -4 4
-18 -3 -30 -11 -21 -10 -22 22 -15 43 10 78 23 78 30 0 3 -15 14 -32 25 -36
21 -61 23 -123 9z"/>
  <path d="M356 419 c-22 -43 -23 -50 -9 -44 10 4 26 8 35 9 9 0 16 3 15 7 -1 3
9 15 23 27 21 17 22 22 11 36 -24 29 -47 18 -75 -35z"/>
  <path d="M170 431 c0 -9 32 -55 44 -63 21 -15 36 -8 36 16 0 13 -6 28 -12 33
-16 12 -68 23 -68 14z"/>
  <path d="M593 371 c-79 -21 -89 -31 -30 -31 69 0 146 20 140 37 -6 16 -30 15
-110 -6z"/>
  <path d="M593 287 c-142 -23 -177 -41 -65 -36 l67 4 3 -60 c5 -89 -3 -108 -38
-103 -17 3 -30 2 -30 -1 0 -13 51 -61 65 -61 26 0 45 31 46 73 2 158 3 162 29
168 14 4 52 7 85 8 55 2 58 3 41 16 -24 18 -37 18 -203 -8z"/>
  <path d="M367 243 c10 -16 26 -37 35 -47 18 -19 18 -19 18 7 0 27 -34 67 -57
67 -10 0 -9 -7 4 -27z"/>
  <path d="M199 233 c-6 -15 -26 -47 -45 -70 -52 -63 -17 -54 45 11 54 58 64 86
31 86 -13 0 -24 -10 -31 -27z"/>
  <path d="M751 150 c43 -61 70 -74 77 -36 5 23 -33 64 -75 82 -18 8 -35 14 -38
14 -4 0 13 -27 36 -60z"/>
  <path d="M456 157 c-11 -23 -22 -45 -24 -49 -10 -21 21 -4 53 27 40 41 45 65
13 65 -17 0 -28 -11 -42 -43z"/>
</g>
<g id="part-1" class="char-part">
  <path d="M274 530 c3 -18 6 -63 6 -101 0 -62 2 -69 20 -69 16 0 20 7 20 38 0
20 5 57 11 81 11 49 4 63 -40 76 -23 7 -24 5 -17 -25z"/>
  <path d="M364 425 c-11 -25 -18 -45 -15 -45 9 0 81 52 81 59 0 11 -23 31 -34
31 -6 0 -20 -20 -32 -45z"/>
  <path d="M190 400 c22 -31 60 -41 60 -16 0 18 -38 46 -63 46 -17 0 -17 -2 3
-30z"/>
</g>
<g id="part-2" class="char-part">
  <path d="M280 346 c0 -16 -19 -21 -102 -31 -32 -4 -58 -11 -58 -15 0 -17 42
-21 96 -10 31 7 58 9 61 6 3 -3 1 -53 -6 -111 -8 -76 -8 -112 0 -126 27 -52
46 15 48 172 1 83 5 89 61 89 16 0 32 5 35 10 7 11 -5 14 -57 11 -22 -2 -38 2
-38 8 0 6 -9 11 -20 11 -11 0 -20 -6 -20 -14z"/>
  <path d="M350 273 c0 -14 50 -83 60 -83 16 0 21 19 10 40 -11 21 -70 57 -70
43z"/>
  <path d="M192 225 c-11 -24 -35 -59 -52 -79 -18 -20 -29 -36 -25 -36 18 0 77
45 105 80 34 44 38 66 11 73 -14 3 -23 -6 -39 -38z"/>
</g>
<g id="part-3" class="char-part">
  <path d="M570 561 c0 -10 39 -63 54 -73 11 -7 36 9 36 24 0 17 -49 58 -70 58
-11 0 -20 -4 -20 -9z"/>
  <path d="M645 473 c-44 -7 -99 -12 -121 -10 -40 4 -42 3 -62 -38 -11 -24 -18
-46 -15 -49 15 -14 34 -4 49 27 16 33 17 33 127 49 62 9 116 13 120 8 5 -4 4
-18 -3 -30 -11 -21 -10 -22 22 -15 18 4 44 12 58 17 l25 10 -30 24 c-34 27
-54 28 -170 7z"/>
</g>
<g id="part-4" class="char-part">
  <path d="M605 373 c-85 -21 -95 -26 -60 -31 37 -5 165 17 165 28 0 8 -26 21
-38 19 -4 -1 -34 -8 -67 -16z"/>
</g>
<g id="part-5" class="char-part">
  <path d="M611 251 c-12 -8 -13 -21 -5 -75 7 -45 7 -67 0 -70 -6 -2 -1 -5 12
-5 22 -1 23 2 21 57 -1 32 1 64 5 70 7 12 0 32 -12 32 -4 0 -13 -4 -21 -9z"/>
  <path d="M500 189 c0 -5 -4 -8 -9 -5 -10 7 -25 -22 -22 -43 1 -8 -2 -10 -10
-5 -8 5 -10 3 -4 -6 6 -10 14 -7 32 14 21 24 31 56 18 56 -3 0 -5 -5 -5 -11z"/>
  <path d="M728 193 c7 -3 18 -16 23 -30 8 -22 11 -23 26 -12 15 13 15 12 5 -7
-9 -18 -8 -25 7 -38 19 -18 31 -12 31 15 0 21 -68 79 -90 78 -11 0 -12 -2 -2
-6z"/>
  <path d="M559 63 c15 -20 17 -21 30 -5 12 15 12 15 6 -5 -9 -31 18 -21 33 12
11 25 11 25 -37 22 -47 -2 -48 -2 -32 -24z"/>
</g>
</g>
</svg>