<?xml version="1.0" standalone="no"?>
<!DOCTYPE svg PUBLIC "-//W3C//DTD SVG 20010904//EN"
 "http://www.w3.org/TR/2001/REC-SVG-20010904/DTD/svg10.dtd">
<svg version="1.0" xmlns="http://www.w3.org/2000/svg"
 width="96.000000pt" height="68.000000pt" viewBox="0 0 96.000000 68.000000"
 preserveAspectRatio="xMidYMid meet">
<metadata>
Created by potrace 1.16, written by Peter Selinger 2001-2019
Combined from part_0.svg through part_5.svg with named groups
</metadata>
<g transform="translate(0.000000,68.000000) scale(0.100000,-0.100000)" fill="#000000" stroke="none">
<g id="part-0" class="char-part">
  <path d="M236 601 c-3 -5 -2 -29 3 -54 10 -56 5 -64 -38 -69 -50 -5 -53 -28
-3 -28 34 0 40 -3 44 -25 3 -13 2 -24 -1 -23 -3 0 -30 0 -60 -1 -44 -1 -51 -3
-42 -15 6 -7 16 -40 22 -72 11 -62 22 -83 33 -65 4 6 16 11 27 11 15 0 19 -7
19 -34 0 -37 4 -35 -115 -52 -50 -7 -50 -7 -18 -16 18 -5 50 -4 74 1 24 5 46
8 49 6 4 -2 5 -28 2 -58 -2 -33 1 -63 8 -77 12 -23 13 -23 26 -5 8 11 14 44
14 81 0 68 5 74 66 74 19 0 34 5 34 10 0 11 -19 14 -67 11 -30 -2 -33 0 -33
27 0 33 14 42 53 35 24 -5 27 -1 47 66 12 38 18 75 15 82 -5 7 -26 10 -56 7
-27 -3 -49 -2 -49 3 0 22 15 39 34 39 27 0 64 25 53 36 -4 4 -24 7 -43 7 l-35
-1 6 38 c6 36 4 40 -24 54 -35 19 -38 19 -45 7z m114 -226 c0 -21 -5 -25 -28
-25 -35 0 -41 6 -35 31 4 13 14 19 34 19 24 0 29 -4 29 -25z m-98 9 c14 -14
-6 -44 -31 -45 l-26 -2 28 -4 c21 -3 27 -10 27 -28 0 -15 -7 -26 -21 -30 -28
-9 -36 1 -44 63 l-7 52 34 0 c19 0 37 -3 40 -6z m85 -88 c-8 -20 -57 -8 -57
15 0 12 9 19 28 21 27 3 38 -11 29 -36z"/>
  <path d="M641 488 l-53 -10 41 -42 c22 -23 41 -46 41 -51 0 -5 -17 -26 -37
-47 -46 -47 -21 -53 30 -8 42 36 47 37 77 5 13 -14 29 -25 37 -25 23 0 14 33
-18 66 l-31 32 27 36 c15 19 24 40 20 46 -7 12 -60 11 -134 -2z m75 -24 c-3
-9 -6 -20 -6 -25 0 -13 -32 -10 -52 5 -24 17 -23 24 5 29 48 9 59 7 53 -9z"/>
  <path d="M500 470 c-14 -4 -42 -8 -62 -9 -21 -1 -38 -5 -38 -10 0 -14 30 -22
48 -12 9 4 29 11 44 15 25 6 28 4 24 -16 -4 -26 -30 -35 -52 -17 -8 6 -18 9
-22 5 -4 -4 3 -16 16 -26 12 -10 22 -23 22 -28 0 -6 -21 -29 -47 -52 -38 -33
-43 -40 -23 -34 29 8 80 44 80 56 0 15 22 8 39 -14 10 -12 23 -18 29 -14 17
10 15 23 -9 47 -18 18 -20 25 -10 40 37 62 37 59 21 69 -17 11 -25 11 -60 0z"/>
  <path d="M670 255 c-36 -7 -67 -13 -69 -14 -3 -1 4 -11 15 -23 29 -33 54 -75
54 -91 0 -7 -21 -26 -47 -40 -56 -31 -32 -37 29 -7 l42 20 27 -26 c23 -22 34
-25 80 -22 l54 3 -50 27 c-85 46 -82 39 -39 108 31 51 35 63 23 71 -17 11 -35
10 -119 -6z m70 -20 c0 -15 -35 -75 -44 -75 -6 0 -21 16 -33 34 -20 32 -21 35
-5 39 24 6 82 8 82 2z"/>
  <path d="M462 241 l-63 -17 41 -33 c22 -17 40 -38 40 -45 0 -16 -44 -57 -78
-72 l-27 -12 25 -1 c14 -1 42 10 62 24 43 29 54 31 74 10 9 -8 20 -15 25 -15
15 0 10 36 -6 50 -15 13 -21 50 -7 50 11 0 34 58 27 70 -8 14 -38 11 -113 -9z
m58 -23 c0 -7 -4 -20 -10 -28 -7 -12 -12 -12 -34 0 -30 16 -33 27 -8 33 33 9
52 7 52 -5z"/>
</g>
<g id="part-1" class="char-part">
  <path d="M234 583 c4 -9 10 -36 13 -59 l5 -42 -46 -7 c-54 -9 -52 -25 5 -25
32 0 39 -3 39 -20 0 -13 7 -20 20 -20 14 0 20 7 20 24 0 20 7 26 45 35 53 13
51 35 -1 29 -34 -4 -34 -4 -34 39 0 32 -5 45 -19 53 -31 16 -54 13 -47 -7z"/>
</g>
<g id="part-2" class="char-part">
  <path d="M247 253 c-4 -3 -7 -19 -7 -34 0 -29 4 -27 -109 -45 -36 -5 -41 -8
-27 -16 16 -9 89 -4 121 8 8 4 11 -10 7 -50 -5 -65 3 -106 22 -106 20 0 26 23
26 95 0 62 0 63 31 69 17 3 43 6 57 6 20 0 23 3 14 12 -7 7 -33 11 -57 10 -44
-2 -45 -1 -45 28 0 28 -17 40 -33 23z"/>
</g>
<g id="part-3" class="char-part">
  <path d="M490 470 c-14 -4 -40 -8 -57 -9 -18 -1 -33 -3 -33 -6 0 -2 19 -23 43
-45 l42 -40 -42 -39 c-24 -21 -43 -41 -43 -45 0 -10 35 7 70 36 l34 28 23 -22
c17 -16 26 -19 34 -11 12 12 -4 53 -21 53 -16 0 -12 20 11 51 35 50 8 71 -61
49z m25 -39 c-7 -24 -24 -27 -50 -7 -19 13 -18 15 15 24 42 11 44 10 35 -17z"/>
</g>
<g id="part-4" class="char-part">
  <path d="M661 492 l-75 -15 42 -37 c23 -21 42 -44 42 -51 0 -7 -19 -33 -42
-57 -42 -42 -42 -43 -13 -32 17 6 44 24 61 41 l30 29 34 -35 c18 -19 37 -32
42 -29 16 10 7 39 -22 69 l-30 31 27 38 c25 37 25 40 8 53 -11 7 -21 12 -24
12 -3 -1 -40 -9 -80 -17z m59 -18 c0 -13 -22 -44 -31 -44 -5 0 -22 8 -36 17
l-27 18 29 6 c41 9 65 10 65 3z"/>
</g>
<g id="part-5" class="char-part">
  <path d="M725 251 c11 -5 24 -6 28 -4 4 3 -4 -18 -19 -46 -16 -28 -33 -51 -38
-51 -6 0 -22 15 -35 33 -25 35 -25 30 3 -25 l19 -37 -24 -22 -24 -21 28 16
c25 15 30 15 49 1 13 -8 18 -15 13 -15 -30 -1 36 -23 71 -25 52 -1 49 7 -11
29 -25 10 -45 21 -45 26 0 5 -8 10 -17 12 -15 3 -15 5 -1 18 8 8 13 21 10 29
-3 8 0 11 7 7 6 -4 11 -1 11 8 0 9 5 16 11 16 6 0 9 6 6 14 -3 8 1 17 9 20 26
10 4 26 -34 25 -29 0 -33 -2 -17 -8z"/>
  <path d="M618 233 c7 -3 16 -2 19 1 4 3 -2 6 -13 5 -11 0 -14 -3 -6 -6z"/>
</g>
</g>
</svg>