<?xml version="1.0" standalone="no"?>
<!DOCTYPE svg PUBLIC "-//W3C//DTD SVG 20010904//EN"
 "http://www.w3.org/TR/2001/REC-SVG-20010904/DTD/svg10.dtd">
<svg version="1.0" xmlns="http://www.w3.org/2000/svg"
 width="96.000000pt" height="68.000000pt" viewBox="0 0 96.000000 68.000000"
 preserveAspectRatio="xMidYMid meet">
<metadata>
Created by potrace 1.16, written by Peter Selinger 2001-2019
Combined from part_0.svg through part_5.svg with named groups
</metadata>
<g transform="translate(0.000000,68.000000) scale(0.100000,-0.100000)" fill="#000000" stroke="none">
<g id="part-0" class="char-part">
  <path d="M384 588 c3 -13 9 -48 12 -79 l7 -57 -70 -7 c-122 -12 -122 -41 0
-39 l67 1 0 -42 c0 -50 -9 -55 -102 -55 -66 0 -75 -14 -24 -35 36 -15 126 -94
126 -110 0 -14 -125 -71 -187 -86 -29 -7 -53 -16 -53 -20 0 -16 226 49 257 73
8 6 34 -8 83 -45 40 -30 86 -58 102 -61 29 -6 207 10 216 19 6 6 -9 11 -108
34 -94 21 -186 54 -215 74 -17 13 -15 18 35 80 30 37 57 67 62 67 4 0 8 9 8
20 0 25 -36 34 -102 26 -44 -6 -50 -5 -44 9 3 9 6 27 6 39 0 20 8 23 88 37 64
10 87 18 87 29 0 12 -12 15 -55 14 -30 0 -70 -4 -88 -9 l-34 -8 4 68 c3 73 -3
83 -61 84 -20 1 -22 -3 -17 -21z m126 -289 c0 -17 -53 -98 -66 -103 -13 -5
-114 62 -114 74 0 8 120 37 158 39 12 1 22 -4 22 -10z"/>
</g>
<g id="part-1" class="char-part">
  <path d="M389 581 c6 -11 11 -44 11 -75 0 -62 1 -61 -92 -72 -82 -9 -72 -24
17 -24 l75 0 0 -40 c0 -36 3 -40 25 -40 23 0 25 4 25 44 0 48 -6 45 111 61 59
9 80 21 59 35 -14 10 -41 9 -122 -6 l-37 -6 -3 68 -3 69 -38 3 c-36 3 -38 2
-28 -17z"/>
</g>
<g id="part-2" class="char-part">
  <path d="M455 333 c-27 -7 -87 -16 -132 -20 -46 -3 -83 -10 -83 -14 0 -5 17
-17 38 -28 20 -11 57 -38 81 -62 42 -40 43 -43 25 -57 -28 -21 -80 -43 -164
-68 -56 -17 -67 -23 -44 -23 35 -1 191 42 233 63 26 14 30 12 94 -39 37 -30
82 -57 100 -60 30 -6 206 11 216 21 7 7 0 9 -99 31 -101 22 -194 54 -225 77
-18 13 -17 16 21 61 21 26 52 61 69 77 28 29 29 31 10 44 -23 17 -73 16 -140
-3z m55 -33 c0 -14 -44 -82 -62 -98 -13 -10 -24 -5 -69 30 l-54 43 70 16 c84
20 115 22 115 9z"/>
</g>
</g>
</svg>