<?xml version="1.0" standalone="no"?>
<!DOCTYPE svg PUBLIC "-//W3C//DTD SVG 20010904//EN"
 "http://www.w3.org/TR/2001/REC-SVG-20010904/DTD/svg10.dtd">
<svg version="1.0" xmlns="http://www.w3.org/2000/svg"
 width="96.000000pt" height="68.000000pt" viewBox="0 0 96.000000 68.000000"
 preserveAspectRatio="xMidYMid meet">
<metadata>
Created by potrace 1.16, written by Peter Selinger 2001-2019
Combined from part_0.svg through part_5.svg with named groups
</metadata>
<g transform="translate(0.000000,68.000000) scale(0.100000,-0.100000)" fill="#000000" stroke="none">
<g id="part-0" class="char-part">
  <path d="M534 594 c12 -28 7 -432 -6 -481 -9 -36 -8 -47 7 -69 16 -25 17 -25
36 -8 17 16 19 32 19 181 0 124 3 163 13 163 6 0 43 -21 82 -46 95 -61 135
-70 121 -27 -9 29 -80 69 -147 83 -33 7 -63 19 -66 26 -3 8 0 50 6 95 6 45 9
84 7 86 -2 2 -21 7 -41 10 -35 6 -38 4 -31 -13z"/>
  <path d="M287 553 c-4 -3 -7 -13 -7 -21 0 -26 -49 -116 -90 -166 -44 -53 -46
-69 -5 -42 29 19 34 17 88 -39 l29 -30 -44 -40 c-24 -22 -63 -58 -88 -79 l-45
-39 37 6 c74 11 159 85 244 213 29 45 60 87 69 94 19 16 19 44 -1 61 -12 10
-27 10 -73 1 -85 -18 -86 -17 -62 24 12 20 21 38 19 39 -9 8 -48 25 -56 25 -5
0 -12 -3 -15 -7z m123 -123 c0 -13 -36 -79 -58 -107 l-17 -23 -53 26 -53 25
33 39 c18 21 38 37 44 35 6 -2 26 0 45 5 48 11 59 11 59 0z"/>
</g>
<g id="part-1" class="char-part">
  <path d="M285 528 c-8 -39 -41 -98 -90 -162 -19 -25 -31 -46 -26 -46 12 0 62
40 93 76 21 24 39 32 75 37 27 3 56 9 67 13 16 6 17 4 11 -17 -25 -84 -150
-231 -265 -312 -36 -25 -4 -21 58 8 63 29 142 108 192 189 19 32 48 74 63 94
28 36 28 37 9 53 -17 13 -30 14 -81 5 -33 -5 -64 -7 -67 -3 -4 3 1 18 10 31
22 34 20 41 -9 54 -34 16 -32 17 -40 -20z"/>
</g>
<g id="part-2" class="char-part">
  <path d="M252 303 c40 -39 49 -45 62 -34 23 19 5 45 -44 65 -64 26 -68 19 -18
-31z"/>
</g>
<g id="part-3" class="char-part">
  <path d="M538 388 c2 -141 -1 -239 -8 -267 -8 -33 -8 -51 1 -73 14 -34 23 -35
43 -6 13 18 16 54 16 186 l0 164 33 -20 c17 -11 59 -36 91 -56 62 -37 96 -46
96 -23 0 15 -45 59 -75 75 -11 5 -46 16 -79 23 -32 7 -60 18 -63 26 -3 7 0 50
6 95 12 89 9 98 -39 98 l-25 0 3 -222z"/>
</g>
</g>
</svg>