<?xml version="1.0" standalone="no"?>
<!DOCTYPE svg PUBLIC "-//W3C//DTD SVG 20010904//EN"
 "http://www.w3.org/TR/2001/REC-SVG-20010904/DTD/svg10.dtd">
<svg version="1.0" xmlns="http://www.w3.org/2000/svg"
 width="96.000000pt" height="68.000000pt" viewBox="0 0 96.000000 68.000000"
 preserveAspectRatio="xMidYMid meet">
<metadata>
Created by potrace 1.16, written by Peter Selinger 2001-2019
Combined from part_0.svg through part_5.svg with named groups
</metadata>
<g transform="translate(0.000000,68.000000) scale(0.100000,-0.100000)" fill="#000000" stroke="none">
<g id="part-0" class="char-part">
  <path d="M278 495 c4 -100 4 -102 -19 -108 -13 -4 -32 -7 -42 -7 -17 0 -17 2
3 36 12 19 21 36 19 38 -2 2 -14 9 -27 15 -26 14 -42 7 -42 -17 0 -20 -36 -92
-53 -107 -14 -12 -21 -45 -10 -45 5 0 24 13 43 30 28 23 45 29 83 30 l47 0 0
-48 0 -49 -92 -35 c-51 -20 -93 -40 -92 -44 0 -5 12 -13 26 -18 21 -7 36 -2
87 29 34 21 63 36 66 34 2 -3 -1 -37 -7 -77 -8 -54 -8 -80 1 -98 26 -58 48 4
50 143 1 57 3 62 34 83 l32 21 -32 -6 c-33 -7 -33 -6 -33 34 0 36 3 41 28 47
53 11 59 15 37 24 -11 5 -30 6 -43 3 -23 -5 -23 -5 -17 58 3 35 8 74 10 85 5
23 -8 38 -40 46 -20 5 -20 1 -17 -97z"/>
  <path d="M565 548 c5 -13 10 -53 12 -90 5 -73 8 -69 -54 -71 -24 -1 -27 3 -28
28 0 33 -35 51 -35 18 0 -10 -11 -44 -24 -75 -27 -66 -21 -74 19 -22 25 32 30
35 73 32 l47 -3 3 -46 3 -47 -50 -7 c-65 -9 -67 -28 -3 -24 l47 3 3 -51 3 -51
-101 -7 c-55 -4 -100 -11 -100 -16 0 -17 51 -21 131 -10 45 6 140 11 211 11
131 0 160 10 90 31 -28 8 -57 8 -108 0 -38 -6 -72 -7 -77 -2 -5 5 -7 28 -5 52
3 44 3 44 51 53 26 5 47 13 47 17 0 13 -37 20 -65 13 -26 -6 -26 -6 -23 42 l3
49 53 9 c70 12 68 30 -4 24 l-56 -5 6 77 7 77 -32 7 c-48 9 -52 8 -44 -16z"/>
</g>
<g id="part-1" class="char-part">
  <path d="M169 433 c-6 -21 -25 -57 -41 -80 -35 -52 -17 -59 28 -10 73 77 90
127 45 127 -14 0 -23 -11 -32 -37z"/>
</g>
<g id="part-2" class="char-part">
  <path d="M278 496 l5 -104 -47 -7 c-64 -10 -68 -25 -7 -25 l51 0 0 -48 0 -48
-95 -34 c-52 -19 -93 -39 -92 -45 2 -5 15 -14 30 -19 21 -8 36 -3 88 28 34 20
63 35 65 34 1 -2 -2 -36 -8 -75 -9 -56 -8 -78 2 -103 23 -56 40 -18 47 104 6
104 7 107 35 123 37 23 36 38 -2 18 l-30 -16 0 46 c0 41 2 45 28 51 47 10 53
14 46 25 -4 7 -21 9 -41 6 l-34 -6 6 57 c3 31 8 69 11 83 5 27 -7 42 -42 53
-20 6 -21 4 -16 -98z"/>
</g>
<g id="part-3" class="char-part">
  <path d="M455 418 c-4 -18 -16 -51 -26 -72 -38 -80 -12 -68 46 20 30 44 34 58
25 69 -20 24 -38 17 -45 -17z"/>
</g>
<g id="part-4" class="char-part">
  <path d="M564 549 c5 -13 10 -54 13 -91 l5 -68 -38 0 c-22 0 -46 -5 -54 -10
-11 -7 0 -10 38 -10 l52 0 0 -49 0 -50 -55 -6 c-66 -9 -63 -25 6 -25 l49 0 0
-50 c0 -43 3 -50 20 -50 18 0 20 7 20 55 l0 54 50 7 c28 4 50 10 50 15 0 12
-39 21 -66 15 -24 -6 -25 -5 -22 41 l3 48 60 11 c44 8 55 13 42 19 -10 4 -38
5 -63 1 l-44 -6 0 45 c0 24 4 54 9 68 13 33 1 47 -44 54 -37 6 -38 5 -31 -18z"/>
</g>
<g id="part-5" class="char-part">
  <path d="M675 139 c-16 -5 -38 -7 -47 -5 -10 2 -18 1 -18 -3 0 -5 45 -8 100
-8 78 0 100 3 100 13 0 17 -52 19 -82 3 -15 -8 -19 -8 -14 0 8 13 2 13 -39 0z"/>
  <path d="M534 129 c-13 -5 -5 -8 25 -8 24 -1 41 2 37 6 -9 10 -40 11 -62 2z"/>
  <path d="M820 130 c0 -5 5 -10 10 -10 6 0 10 5 10 10 0 6 -4 10 -10 10 -5 0
-10 -4 -10 -10z"/>
  <path d="M415 120 c-25 -6 -20 -8 27 -9 31 0 60 4 63 9 7 12 -45 12 -90 0z"/>
</g>
</g>
</svg>