<?xml version="1.0" standalone="no"?>
<!DOCTYPE svg PUBLIC "-//W3C//DTD SVG 20010904//EN"
 "http://www.w3.org/TR/2001/REC-SVG-20010904/DTD/svg10.dtd">
<svg version="1.0" xmlns="http://www.w3.org/2000/svg"
 width="96.000000pt" height="68.000000pt" viewBox="0 0 96.000000 68.000000"
 preserveAspectRatio="xMidYMid meet">
<metadata>
Created by potrace 1.16, written by Peter Selinger 2001-2019
Combined from part_0.svg through part_5.svg with named groups
</metadata>
<g transform="translate(0.000000,68.000000) scale(0.100000,-0.100000)" fill="#000000" stroke="none">
<g id="part-0" class="char-part">
  <path d="M470 593 c-41 -7 -108 -12 -147 -10 -40 2 -75 2 -78 -1 -2 -3 4 -15
14 -29 11 -13 25 -55 32 -93 6 -38 15 -73 18 -79 5 -8 34 -7 97 0 49 6 114 9
145 5 l57 -5 22 57 c13 31 32 76 43 100 20 42 20 42 1 57 -24 18 -104 18 -204
-2z m130 -42 c0 -28 -2 -29 -57 -34 -32 -2 -59 -4 -60 -3 -1 0 1 13 4 28 5 27
6 28 96 36 12 2 17 -5 17 -27z m-180 -11 c16 -30 4 -40 -44 -40 -38 0 -44 3
-48 24 -4 21 -1 26 21 29 52 8 61 7 71 -13z m170 -55 c0 -2 -5 -16 -12 -30 -9
-21 -18 -25 -55 -25 -39 0 -43 2 -43 24 0 22 5 25 43 29 23 2 48 4 55 5 6 1
12 0 12 -3z m-160 -40 c0 -22 -4 -25 -39 -25 -26 0 -41 5 -45 16 -11 29 -6 34
39 34 41 0 45 -2 45 -25z"/>
  <path d="M687 354 c-3 -3 -59 -10 -124 -14 -324 -23 -443 -34 -443 -41 0 -15
72 -21 133 -11 74 12 87 4 86 -47 -1 -47 -26 -89 -78 -129 -46 -35 -41 -41 17
-17 49 21 80 51 103 102 22 48 24 84 7 101 -9 9 7 12 74 12 l86 0 1 -137 c1
-76 5 -141 10 -146 25 -25 42 62 52 270 1 18 7 22 28 21 63 -4 181 3 181 10 0
22 -114 45 -133 26z"/>
</g>
<g id="part-1" class="char-part">
  <path d="M500 594 c-41 -7 -115 -13 -164 -13 l-88 -1 17 -27 c10 -14 24 -58
32 -97 16 -78 25 -95 45 -79 18 15 225 26 230 12 9 -26 39 9 64 74 15 40 34
82 42 95 14 21 13 23 -22 37 -41 17 -54 17 -156 -1z m102 -26 c3 -7 2 -23 0
-35 -4 -21 -10 -23 -63 -23 -59 0 -59 0 -59 29 0 25 5 30 28 34 56 8 90 7 94
-5z m-174 -39 c3 -24 0 -27 -45 -32 -26 -3 -49 -4 -50 -3 -2 1 -6 17 -9 35
l-7 32 54 -3 c50 -3 54 -5 57 -29z m162 -48 c0 -5 -4 -21 -9 -34 -8 -22 -15
-24 -55 -23 -25 1 -48 5 -52 8 -12 13 8 47 29 51 42 8 87 7 87 -2z m-160 -42
c0 -29 -1 -30 -42 -27 -39 3 -43 6 -46 31 -3 26 -2 27 42 27 45 0 46 -1 46
-31z"/>
</g>
<g id="part-2" class="char-part">
  <path d="M700 357 c-3 -3 -133 -15 -290 -27 -157 -12 -287 -24 -289 -26 -23
-21 75 -24 224 -7 55 7 187 15 293 19 171 6 191 9 178 22 -14 14 -106 29 -116
19z"/>
</g>
<g id="part-3" class="char-part">
  <path d="M552 168 c2 -98 7 -143 15 -145 18 -6 30 58 36 180 l5 107 -29 0 -30
0 3 -142z"/>
</g>
</g>
</svg>