<?xml version="1.0" standalone="no"?>
<!DOCTYPE svg PUBLIC "-//W3C//DTD SVG 20010904//EN"
 "http://www.w3.org/TR/2001/REC-SVG-20010904/DTD/svg10.dtd">
<svg version="1.0" xmlns="http://www.w3.org/2000/svg"
 width="96.000000pt" height="68.000000pt" viewBox="0 0 96.000000 68.000000"
 preserveAspectRatio="xMidYMid meet">
<metadata>
Created by potrace 1.16, written by Peter Selinger 2001-2019
Combined from part_0.svg through part_5.svg with named groups
</metadata>
<g transform="translate(0.000000,68.000000) scale(0.100000,-0.100000)" fill="#000000" stroke="none">
<g id="part-0" class="char-part">
  <path d="M255 563 c5 -10 10 -47 13 -82 5 -74 3 -77 -80 -86 -32 -4 -60 -11
-63 -16 -9 -13 41 -22 85 -15 25 4 40 2 40 -4 0 -25 -44 -93 -96 -149 -31 -34
-50 -61 -43 -61 25 0 86 44 123 88 l36 44 -6 -49 c-3 -26 -9 -70 -14 -98 -8
-48 7 -105 28 -105 26 0 32 30 32 154 l0 130 20 -22 c28 -29 50 -28 50 2 0 19
-8 27 -36 36 -45 15 -42 40 6 53 19 5 39 12 44 17 12 12 -32 33 -56 27 -18 -5
-19 -2 -13 59 8 74 -2 94 -47 94 -25 0 -29 -3 -23 -17z"/>
  <path d="M715 519 c-16 -5 -45 -6 -63 -3 -32 6 -32 6 -22 -21 23 -61 1 -343
-31 -381 -6 -8 -9 -17 -5 -21 15 -15 66 80 73 138 6 40 19 49 79 49 28 0 32
-4 37 -32 3 -18 2 -55 -1 -83 -7 -48 -8 -50 -35 -47 l-29 3 29 -35 c33 -42 47
-45 67 -13 21 32 28 444 8 452 -20 7 -73 5 -107 -6z m65 -62 c0 -43 -3 -53
-17 -54 -10 0 -33 -4 -51 -8 l-34 -8 6 49 c2 27 5 52 5 56 1 8 28 15 64 17 26
1 27 -1 27 -52z m5 -116 c4 -38 2 -41 -19 -41 -13 0 -38 -3 -55 -6 -31 -6 -31
-6 -31 34 0 40 1 41 38 47 20 4 42 8 47 9 14 5 15 3 20 -43z"/>
  <path d="M459 493 l-57 -4 10 -41 c18 -82 -3 -239 -40 -296 -8 -12 -12 -26 -8
-29 9 -9 33 23 62 83 22 47 28 52 62 57 20 2 39 3 41 1 6 -5 2 -115 -5 -125
-3 -5 -16 -6 -30 -3 -18 5 -23 3 -19 -7 9 -23 52 -49 69 -43 21 8 25 42 28
242 l3 172 -30 -2 c-16 -1 -55 -3 -86 -5z m79 -69 c3 -41 3 -42 -35 -47 -49
-6 -57 2 -48 53 7 40 8 41 43 38 36 -3 37 -5 40 -44z m0 -101 c-3 -37 -4 -38
-45 -41 -43 -3 -43 -3 -43 31 0 43 5 47 52 47 39 0 39 0 36 -37z"/>
</g>
<g id="part-1" class="char-part">
  <path d="M264 552 c8 -35 11 -140 4 -147 -2 -3 -33 -8 -67 -11 -83 -9 -88 -24
-7 -24 36 0 66 -3 66 -7 0 -19 -62 -113 -106 -162 l-48 -54 34 18 c19 9 56 40
83 67 54 57 53 58 37 -71 -11 -80 -5 -121 16 -121 25 0 34 39 34 155 l0 116
26 -20 c26 -20 44 -20 44 1 0 15 -31 37 -52 38 -12 0 -18 8 -18 25 0 19 7 26
28 31 45 10 52 13 52 24 0 5 -16 10 -36 10 l-37 0 5 65 c5 59 3 67 -15 80 -34
24 -50 19 -43 -13z"/>
</g>
<g id="part-2" class="char-part">
  <path d="M408 465 c11 -46 7 -195 -6 -241 -7 -23 -23 -58 -37 -78 -29 -43 -20
-48 17 -8 29 31 58 84 58 107 0 11 11 15 45 15 l45 0 0 -59 c0 -33 -4 -62 -9
-65 -5 -4 -21 -2 -35 4 l-26 10 22 -30 c28 -39 55 -47 73 -23 11 14 14 57 15
179 0 89 3 175 6 192 l6 31 -90 -2 -90 -2 6 -30z m130 -34 c4 -41 -3 -48 -48
-53 -34 -3 -35 -2 -32 32 4 55 9 62 44 58 29 -3 33 -7 36 -37z m0 -108 c-3
-37 -4 -38 -45 -41 -43 -3 -43 -3 -43 31 0 43 5 47 52 47 39 0 39 0 36 -37z"/>
</g>
<g id="part-3" class="char-part">
  <path d="M735 524 c-27 -7 -65 -11 -83 -8 -32 6 -32 6 -22 -21 17 -44 11 -232
-9 -305 -10 -36 -22 -74 -26 -85 -8 -20 -8 -20 14 0 30 26 48 61 56 110 10 55
21 65 71 65 43 0 44 -1 46 -32 2 -54 -3 -122 -11 -131 -4 -4 -21 -3 -37 3 -28
10 -27 9 13 -31 35 -36 44 -40 57 -30 22 18 25 51 28 268 3 192 3 192 -20 203
-13 5 -24 10 -25 9 -1 0 -24 -7 -52 -15z m43 -69 c2 -43 0 -51 -15 -52 -10 0
-33 -4 -50 -8 -30 -7 -33 -6 -33 18 0 76 16 97 70 94 23 -2 25 -7 28 -52z m12
-110 c0 -38 -3 -40 -67 -49 l-43 -6 0 39 c0 44 7 49 68 50 42 1 42 1 42 -34z"/>
</g>
</g>
</svg>