<?xml version="1.0" standalone="no"?>
<!DOCTYPE svg PUBLIC "-//W3C//DTD SVG 20010904//EN"
 "http://www.w3.org/TR/2001/REC-SVG-20010904/DTD/svg10.dtd">
<svg version="1.0" xmlns="http://www.w3.org/2000/svg"
 width="96.000000pt" height="68.000000pt" viewBox="0 0 96.000000 68.000000"
 preserveAspectRatio="xMidYMid meet">
<metadata>
Created by potrace 1.16, written by Peter Selinger 2001-2019
Combined from part_0.svg through part_5.svg with named groups
</metadata>
<g transform="translate(0.000000,68.000000) scale(0.100000,-0.100000)" fill="#000000" stroke="none">
<g id="part-0" class="char-part">
  <path d="M476 584 c-3 -9 -6 -25 -6 -37 0 -40 -59 -126 -150 -217 -49 -49 -86
-90 -82 -90 13 0 106 66 137 98 44 44 90 103 109 140 9 17 20 32 25 32 4 0 22
-23 40 -51 19 -28 59 -77 90 -110 l57 -59 71 0 c40 0 74 4 77 8 3 5 -26 23
-65 40 -85 39 -122 63 -194 130 -40 38 -55 59 -55 78 0 15 -8 33 -17 40 -23
18 -30 17 -37 -2z"/>
  <path d="M210 464 c-22 -9 -53 -12 -83 -9 -50 6 -55 1 -33 -31 8 -11 17 -46
21 -78 7 -55 28 -84 44 -58 3 6 33 14 65 19 56 8 59 10 62 38 2 16 11 47 20
68 11 24 14 41 8 47 -17 17 -68 19 -104 4z m25 -71 c-4 -27 -8 -49 -8 -49 -1
-1 -17 -5 -34 -9 -25 -5 -33 -3 -33 8 0 8 -3 28 -6 45 -6 28 -4 32 27 41 61
17 62 16 54 -36z"/>
  <path d="M539 335 c-3 -3 -37 -11 -75 -19 -97 -18 -57 -33 49 -18 99 14 112
23 57 37 -14 3 -28 4 -31 0z"/>
  <path d="M535 235 c-38 -7 -94 -14 -122 -14 -29 -1 -53 -5 -53 -11 0 -5 4 -10
9 -10 4 0 14 -28 21 -62 17 -82 24 -90 58 -72 17 9 58 14 110 14 66 0 82 3 82
15 0 8 12 39 27 70 19 38 24 58 17 65 -18 18 -75 20 -149 5z m71 -67 c-4 -29
-9 -55 -11 -57 -3 -2 -38 -6 -80 -9 -74 -5 -75 -4 -85 22 -22 58 -15 72 43 83
28 6 72 11 96 12 l44 1 -7 -52z"/>
</g>
<g id="part-1" class="char-part">
  <path d="M221 462 c-19 -7 -57 -12 -83 -10 -40 2 -47 0 -42 -12 4 -8 14 -48
22 -87 10 -47 20 -73 28 -73 8 0 14 7 14 15 0 11 12 15 44 15 51 0 78 8 70 21
-3 5 6 34 20 64 18 40 21 56 13 63 -22 17 -52 19 -86 4z m19 -64 c0 -58 -10
-70 -51 -66 -33 3 -34 5 -37 50 -3 50 0 53 66 57 20 1 22 -4 22 -41z"/>
</g>
<g id="part-2" class="char-part">
  <path d="M476 584 c-3 -9 -6 -25 -6 -36 0 -39 -61 -127 -150 -217 -49 -50 -85
-91 -80 -91 5 0 37 19 72 43 45 30 83 69 132 135 l69 93 35 -53 c19 -29 61
-78 92 -110 l56 -58 64 1 c107 1 115 11 34 43 -95 38 -128 60 -206 134 -56 53
-66 68 -58 83 8 14 5 21 -12 33 -28 20 -34 20 -42 0z"/>
</g>
<g id="part-3" class="char-part">
  <path d="M475 322 c-68 -13 -77 -16 -57 -25 33 -15 200 10 181 27 -13 12 -53
11 -124 -2z"/>
</g>
<g id="part-4" class="char-part">
  <path d="M530 234 c-41 -7 -96 -14 -122 -15 -45 -1 -60 -10 -39 -23 5 -3 15
-30 21 -58 17 -71 29 -95 41 -77 9 15 9 15 127 17 71 2 82 4 82 20 0 9 11 37
25 61 32 54 31 69 -1 81 -30 12 -37 11 -134 -6z m77 -65 c-4 -29 -9 -54 -12
-57 -3 -3 -40 -7 -84 -10 l-78 -4 -7 42 c-4 24 -3 47 2 52 11 11 86 26 141 27
l44 1 -6 -51z"/>
</g>
</g>
</svg>