<?xml version="1.0" standalone="no"?>
<!DOCTYPE svg PUBLIC "-//W3C//DTD SVG 20010904//EN"
 "http://www.w3.org/TR/2001/REC-SVG-20010904/DTD/svg10.dtd">
<svg version="1.0" xmlns="http://www.w3.org/2000/svg"
 width="96.000000pt" height="68.000000pt" viewBox="0 0 96.000000 68.000000"
 preserveAspectRatio="xMidYMid meet">
<metadata>
Created by potrace 1.16, written by Peter Selinger 2001-2019
Combined from part_0.svg through part_5.svg with named groups
</metadata>
<g transform="translate(0.000000,68.000000) scale(0.100000,-0.100000)" fill="#000000" stroke="none">
<g id="part-0" class="char-part">
  <path d="M568 588 c-3 -42 -4 -43 -41 -46 -46 -4 -45 -26 0 -30 30 -3 31 -4
22 -35 -11 -40 -12 -37 6 -37 8 0 24 17 34 39 20 38 21 39 85 43 36 2 68 7 72
11 16 15 -18 31 -65 30 -43 -1 -48 2 -44 18 7 25 -14 49 -43 49 -20 0 -23 -6
-26 -42z"/>
  <path d="M290 600 c0 -6 7 -24 15 -39 8 -16 11 -31 8 -35 -4 -3 -33 -6 -65 -6
-45 0 -58 -3 -58 -15 0 -26 49 -38 98 -24 45 13 61 5 62 -28 0 -29 29 -11 32
19 2 25 9 34 27 38 39 9 39 32 1 28 -30 -3 -34 0 -45 32 -10 29 -17 36 -43 38
-19 2 -32 -1 -32 -8z"/>
  <path d="M510 425 c-58 -7 -140 -16 -183 -20 -112 -10 -89 -28 31 -24 68 3 96
1 99 -8 9 -26 -149 -166 -222 -198 -17 -7 -18 -9 -3 -12 21 -5 101 35 162 82
27 20 49 35 51 33 2 -2 5 -41 6 -88 l2 -85 -87 -7 c-86 -6 -106 -12 -93 -24 8
-8 57 -8 257 1 181 8 194 10 165 31 -16 13 -38 14 -115 9 l-95 -7 3 76 c3 51
8 76 16 76 6 0 51 -20 99 -45 96 -49 117 -54 117 -27 0 27 -63 58 -148 73 -91
17 -102 31 -73 92 l20 42 88 3 c48 2 90 6 93 9 10 9 -34 33 -59 32 -14 -1 -73
-7 -131 -14z"/>
</g>
<g id="part-1" class="char-part">
  <path d="M580 608 c0 -52 -10 -66 -53 -72 -31 -5 -38 -9 -27 -16 8 -5 25 -10
38 -10 21 0 22 -3 16 -37 -6 -34 -5 -37 8 -25 9 7 21 26 28 41 12 31 40 41
111 41 40 0 52 13 23 24 -9 3 -34 6 -55 6 -36 0 -40 2 -34 21 5 14 1 25 -12
34 -27 21 -43 18 -43 -7z"/>
  <path d="M297 602 c-3 -4 3 -23 14 -41 11 -18 18 -35 16 -37 -2 -3 -34 -7 -71
-11 -56 -5 -64 -8 -54 -21 12 -14 62 -13 114 3 18 5 23 1 32 -24 14 -41 34
-40 30 1 -3 28 1 33 32 43 l35 13 -40 3 c-37 4 -40 6 -43 37 -2 19 -9 32 -17
32 -7 0 -20 3 -28 6 -8 3 -17 1 -20 -4z"/>
</g>
<g id="part-2" class="char-part">
  <path d="M440 418 c-102 -11 -187 -22 -189 -24 -10 -9 13 -18 47 -18 89 1 402
29 402 36 0 11 -36 28 -57 27 -10 -1 -101 -10 -203 -21z"/>
</g>
<g id="part-3" class="char-part">
  <path d="M460 376 c0 -25 -79 -103 -162 -160 -45 -31 -75 -56 -67 -56 24 0
112 45 162 84 26 20 50 36 53 36 2 0 4 -34 2 -75 -2 -74 8 -105 31 -91 6 4 11
37 11 77 0 44 4 69 11 69 6 0 52 -20 101 -45 100 -50 118 -54 118 -25 0 26
-54 53 -151 74 -63 14 -78 21 -83 39 -3 14 2 29 15 43 12 13 18 27 14 33 -9
16 -55 14 -55 -3z"/>
</g>
<g id="part-4" class="char-part">
  <path d="M450 104 c-74 -7 -148 -15 -165 -16 l-30 -4 30 -13 c23 -9 48 -10
109 -2 44 6 132 11 198 11 65 0 118 4 118 8 0 15 -49 32 -88 31 -20 -1 -98 -7
-172 -15z"/>
</g>
</g>
</svg>