<?xml version="1.0" standalone="no"?>
<!DOCTYPE svg PUBLIC "-//W3C//DTD SVG 20010904//EN"
 "http://www.w3.org/TR/2001/REC-SVG-20010904/DTD/svg10.dtd">
<svg version="1.0" xmlns="http://www.w3.org/2000/svg"
 width="96.000000pt" height="68.000000pt" viewBox="0 0 96.000000 68.000000"
 preserveAspectRatio="xMidYMid meet">
<metadata>
Created by potrace 1.16, written by Peter Selinger 2001-2019
Combined from part_0.svg through part_5.svg with named groups
</metadata>
<g transform="translate(0.000000,68.000000) scale(0.100000,-0.100000)" fill="#000000" stroke="none">
<g id="part-0" class="char-part">
  <path d="M400 604 c0 -3 9 -19 21 -35 l20 -29 -83 -2 c-102 -2 -99 -2 -119 6
-12 6 -23 -5 -43 -40 -30 -53 -32 -67 -12 -83 21 -17 43 -3 60 38 14 37 16 38
78 44 214 21 349 29 355 23 4 -4 2 -16 -5 -26 -14 -23 -7 -24 72 -14 53 8 61
28 20 57 -29 22 -58 24 -176 12 -85 -7 -88 -7 -88 13 0 14 -10 24 -31 31 -35
12 -69 14 -69 5z"/>
  <path d="M450 484 c-63 -8 -127 -13 -142 -11 -32 4 -34 0 -14 -28 7 -11 16
-33 20 -48 5 -22 11 -27 23 -22 10 3 68 9 129 12 l112 6 37 44 36 43 -26 10
c-30 11 -24 12 -175 -6z m123 -10 c3 -3 1 -17 -5 -30 -9 -18 -19 -24 -44 -24
l-32 0 14 30 c15 28 50 41 67 24z m-101 -34 c-3 -23 -9 -30 -27 -30 -20 0 -24
5 -23 30 1 26 5 30 28 30 24 0 26 -3 22 -30z m-82 13 c0 -5 3 -18 6 -31 6 -22
4 -23 -26 -20 -28 2 -34 8 -37 31 -3 24 -1 27 27 27 16 0 30 -3 30 -7z"/>
  <path d="M370 350 c-102 -10 -187 -18 -190 -19 -2 0 5 -8 17 -16 18 -13 32
-13 119 0 54 8 169 18 256 22 131 5 156 8 147 20 -15 17 -109 15 -349 -7z"/>
  <path d="M390 295 c-58 -7 -99 -13 -93 -14 7 0 19 -17 27 -36 8 -19 20 -35 25
-35 15 0 14 -19 -1 -34 -23 -22 -113 -73 -151 -85 -21 -7 -37 -15 -34 -17 3
-3 108 30 160 51 16 7 18 2 16 -49 -1 -31 2 -61 7 -66 5 -5 36 9 77 37 37 25
66 47 64 49 -2 3 -24 -5 -48 -15 -24 -11 -47 -17 -50 -13 -4 4 -9 26 -12 49
-4 36 -2 44 19 58 13 8 24 22 24 30 0 12 16 15 75 15 57 0 75 3 75 14 0 7 12
21 26 31 24 16 25 17 7 30 -21 17 -68 16 -213 0z m147 -20 c8 -21 5 -23 -52
-30 -28 -3 -67 -8 -87 -11 -29 -4 -39 -2 -44 11 -9 23 -3 26 78 35 40 4 79 8
86 9 7 0 15 -6 19 -14z"/>
  <path d="M601 180 l-43 -40 -44 26 c-25 15 -48 23 -52 19 -4 -3 0 -10 8 -15 8
-5 35 -23 59 -42 123 -93 133 -98 191 -97 61 0 106 13 80 22 -8 3 -37 10 -65
16 -72 16 -166 54 -162 66 2 5 23 15 48 22 75 22 74 21 54 43 -10 11 -21 20
-24 20 -4 0 -26 -18 -50 -40z"/>
</g>
<g id="part-1" class="char-part">
  <path d="M410 598 c0 -8 10 -23 21 -34 l21 -19 -48 -7 c-80 -10 -162 -9 -170
4 -9 14 -53 -68 -54 -99 0 -17 6 -23 21 -23 15 0 25 11 36 40 19 47 5 43 258
64 102 9 183 12 188 7 5 -5 4 -18 -3 -31 -12 -22 -11 -22 32 -15 91 14 97 22
43 55 -31 19 -43 20 -122 15 -48 -3 -98 -8 -110 -11 -15 -3 -23 0 -23 9 0 19
-30 44 -62 52 -21 5 -28 3 -28 -7z"/>
</g>
<g id="part-2" class="char-part">
  <path d="M440 484 c-58 -8 -120 -12 -138 -10 -28 4 -32 3 -22 -9 7 -8 18 -32
25 -52 7 -21 17 -38 22 -38 4 1 63 5 130 9 l122 8 32 41 c31 38 31 41 14 53
-22 17 -47 16 -185 -2z m132 -10 c3 -3 1 -18 -5 -35 -8 -20 -16 -28 -27 -24
-8 4 -54 1 -103 -6 -48 -6 -89 -10 -91 -8 -3 2 -7 16 -11 30 l-7 27 104 9 c57
6 110 11 119 12 9 0 18 -2 21 -5z"/>
</g>
<g id="part-3" class="char-part">
  <path d="M470 440 c0 -34 7 -38 26 -12 19 25 17 42 -6 42 -16 0 -20 -7 -20
-30z"/>
</g>
<g id="part-4" class="char-part">
  <path d="M617 195 c-10 -14 -29 -32 -42 -41 -23 -15 -26 -14 -52 4 -15 11 -39
22 -53 26 l-25 7 25 -18 c13 -10 62 -46 108 -80 88 -66 115 -74 201 -57 35 7
32 24 -4 24 -36 0 -181 48 -194 64 -10 12 -2 17 41 31 68 22 75 29 47 49 -30
20 -30 20 -52 -9z"/>
  <path d="M354 142 c-6 -4 -13 -33 -16 -65 -7 -83 6 -88 87 -31 36 25 64 48 62
50 -2 3 -25 -4 -50 -15 -50 -22 -63 -16 -53 23 6 26 -13 49 -30 38z"/>
</g>
</g>
</svg>