<?xml version="1.0" standalone="no"?>
<!DOCTYPE svg PUBLIC "-//W3C//DTD SVG 20010904//EN"
 "http://www.w3.org/TR/2001/REC-SVG-20010904/DTD/svg10.dtd">
<svg version="1.0" xmlns="http://www.w3.org/2000/svg"
 width="96.000000pt" height="68.000000pt" viewBox="0 0 96.000000 68.000000"
 preserveAspectRatio="xMidYMid meet">
<metadata>
Created by potrace 1.16, written by Peter Selinger 2001-2019
Combined from part_0.svg through part_5.svg with named groups
</metadata>
<g transform="translate(0.000000,68.000000) scale(0.100000,-0.100000)" fill="#000000" stroke="none">
<g id="part-0" class="char-part">
  <path d="M565 530 c-27 -5 -74 -9 -103 -9 l-53 -1 20 -27 c10 -16 22 -46 26
-68 11 -64 21 -76 51 -64 35 13 54 -4 54 -46 0 -34 -16 -45 -68 -45 -19 0 -21
3 -12 19 16 30 12 43 -12 39 -13 -2 -24 -11 -27 -23 -2 -11 -14 -35 -27 -55
-32 -47 -30 -60 4 -27 24 23 37 27 85 27 57 0 57 0 57 -30 0 -29 -2 -30 -44
-30 -64 0 -67 -18 -5 -22 43 -2 53 -6 55 -23 6 -36 -9 -43 -99 -48 -48 -2 -90
-7 -93 -10 -15 -14 70 -25 129 -16 34 5 123 12 197 14 74 3 136 10 138 15 5
15 -60 27 -98 18 -19 -4 -56 -8 -82 -8 -47 0 -48 0 -48 33 0 32 1 32 53 35 28
2 56 7 61 12 10 10 -47 22 -84 18 -20 -2 -26 2 -28 23 -3 25 0 27 45 34 74 10
93 16 87 27 -4 6 -31 7 -70 3 l-64 -7 2 41 c1 44 18 58 48 39 26 -16 36 -6 67
69 13 32 27 64 30 70 12 29 -81 40 -192 23z m115 -34 c0 -29 -9 -32 -116 -41
-77 -6 -81 -6 -87 14 -7 27 0 31 76 40 115 15 127 14 127 -13z m-12 -73 c-4
-22 -37 -31 -113 -32 -53 -1 -61 1 -62 18 -1 17 6 21 45 24 118 9 134 8 130
-10z"/>
  <path d="M271 519 c-14 -5 -45 -7 -69 -3 -43 6 -44 6 -36 -17 5 -13 8 -78 7
-145 -3 -129 -15 -181 -59 -246 -16 -26 -20 -38 -11 -38 23 0 67 55 90 111 18
43 26 53 42 51 12 -2 32 6 45 18 32 28 40 25 40 -16 0 -19 -3 -33 -8 -30 -4 2
-6 -13 -4 -35 4 -43 -16 -61 -43 -39 -8 6 -19 10 -24 8 -16 -5 59 -88 80 -88
37 0 47 50 50 263 3 166 1 200 -11 207 -19 12 -58 12 -89 -1z m39 -53 c0 -13
3 -37 6 -54 l6 -30 -46 11 c-44 10 -46 12 -46 47 0 45 5 50 47 50 28 0 33 -3
33 -24z m-15 -126 c26 0 17 -29 -15 -45 -48 -25 -60 -20 -60 23 0 48 7 56 36
37 13 -8 30 -15 39 -15z"/>
</g>
<g id="part-1" class="char-part">
  <path d="M290 517 c-19 -5 -52 -7 -75 -5 l-40 3 0 -150 c0 -135 -2 -155 -23
-200 -13 -27 -30 -57 -39 -67 -31 -34 -6 -28 30 7 23 22 42 55 53 89 16 49 19
54 37 45 15 -9 24 -6 46 15 15 14 30 26 34 26 11 0 8 -129 -3 -150 -9 -16 -15
-18 -37 -9 -14 5 -27 8 -29 6 -2 -2 15 -21 37 -43 l40 -39 20 24 c17 21 19 40
19 190 0 91 4 182 10 200 15 54 -14 76 -80 58z m28 -81 c3 -57 2 -58 -20 -52
-13 4 -35 9 -50 12 -23 5 -28 12 -28 38 0 49 20 67 70 63 23 -2 25 -6 28 -61z
m-64 -71 c11 -8 30 -15 43 -15 17 0 23 -6 23 -21 0 -14 -13 -26 -45 -40 -25
-11 -49 -18 -53 -15 -9 5 -3 106 6 106 4 0 16 -7 26 -15z"/>
</g>
<g id="part-2" class="char-part">
  <path d="M600 534 c-47 -7 -109 -13 -138 -13 l-53 -1 19 -25 c11 -14 23 -45
27 -68 11 -67 20 -77 56 -67 17 5 65 8 106 7 43 -2 77 1 81 8 7 11 62 137 62
143 0 4 -68 33 -72 31 -2 -1 -41 -7 -88 -15z m80 -38 c0 -27 -16 -32 -130 -42
-63 -6 -67 -5 -73 15 -7 27 1 31 81 41 118 13 122 13 122 -14z m-18 -88 c-5
-5 -42 -12 -81 -15 -70 -6 -90 0 -91 28 0 4 39 11 88 15 70 7 88 6 90 -5 2 -7
0 -17 -6 -23z"/>
</g>
<g id="part-3" class="char-part">
  <path d="M440 313 c0 -10 -12 -38 -25 -62 -14 -24 -24 -45 -23 -47 11 -10 111
104 102 117 -10 17 -54 10 -54 -8z"/>
</g>
<g id="part-4" class="char-part">
  <path d="M615 110 c-60 -5 -141 -13 -180 -18 -69 -8 -70 -8 -35 -19 23 -6 58
-7 95 -2 33 5 123 12 200 15 77 4 142 8 144 10 22 20 -74 25 -224 14z"/>
</g>
</g>
</svg>