<?xml version="1.0" standalone="no"?>
<!DOCTYPE svg PUBLIC "-//W3C//DTD SVG 20010904//EN"
 "http://www.w3.org/TR/2001/REC-SVG-20010904/DTD/svg10.dtd">
<svg version="1.0" xmlns="http://www.w3.org/2000/svg"
 width="96.000000pt" height="68.000000pt" viewBox="0 0 96.000000 68.000000"
 preserveAspectRatio="xMidYMid meet">
<metadata>
Created by potrace 1.16, written by Peter Selinger 2001-2019
Combined from part_0.svg through part_5.svg with named groups
</metadata>
<g transform="translate(0.000000,68.000000) scale(0.100000,-0.100000)" fill="#000000" stroke="none">
<g id="part-0" class="char-part">
  <path d="M330 565 c0 -33 -39 -120 -87 -191 -54 -83 -55 -84 -45 -84 14 0 111
87 105 94 -4 3 9 6 28 6 19 0 74 7 122 16 48 9 90 14 93 11 3 -3 -4 -24 -16
-47 -12 -23 -19 -44 -16 -47 2 -3 32 11 66 31 33 20 65 36 71 36 5 0 9 8 9 18
0 11 -16 27 -40 41 l-40 22 -99 -20 c-98 -21 -141 -26 -141 -16 0 2 14 27 30
55 17 28 30 57 30 63 0 20 -22 37 -47 37 -18 0 -23 -6 -23 -25z"/>
  <path d="M381 360 c-8 -4 -10 -13 -7 -19 4 -6 2 -36 -4 -66 -15 -72 -75 -139
-164 -185 -36 -18 -66 -35 -66 -37 0 -10 88 11 124 29 46 23 101 79 125 126
l17 33 45 -44 c70 -70 152 -138 179 -149 27 -10 197 0 183 11 -4 4 -53 22
-108 41 -93 31 -232 108 -277 153 -15 15 -15 21 -3 51 11 27 12 36 2 43 -24
19 -33 22 -46 13z"/>
</g>
<g id="part-1" class="char-part">
  <path d="M331 544 c-14 -57 -48 -123 -95 -188 -19 -28 -33 -52 -30 -55 2 -3
28 18 57 46 28 28 57 49 62 47 6 -2 58 4 118 15 121 20 122 20 86 -51 l-21
-41 34 21 c18 11 52 30 76 42 23 12 42 26 42 31 0 5 -15 18 -32 30 -37 22 -62
22 -207 -5 -46 -9 -86 -14 -89 -12 -2 3 12 32 32 66 20 33 36 65 36 71 0 7
-40 29 -54 29 -2 0 -9 -21 -15 -46z"/>
</g>
<g id="part-2" class="char-part">
  <path d="M379 368 c-1 -2 -3 -26 -4 -54 -6 -98 -62 -169 -180 -229 -64 -32
-67 -35 -38 -35 76 0 166 54 216 131 18 27 34 49 37 48 3 0 43 -36 90 -79 113
-106 128 -113 236 -104 47 4 82 10 77 14 -4 4 -51 22 -103 39 -101 33 -189 79
-255 135 -38 32 -39 34 -28 70 10 32 9 38 -10 51 -20 14 -35 19 -38 13z"/>
</g>
</g>
</svg>