<?xml version="1.0" standalone="no"?>
<!DOCTYPE svg PUBLIC "-//W3C//DTD SVG 20010904//EN"
 "http://www.w3.org/TR/2001/REC-SVG-20010904/DTD/svg10.dtd">
<svg version="1.0" xmlns="http://www.w3.org/2000/svg"
 width="96.000000pt" height="68.000000pt" viewBox="0 0 96.000000 68.000000"
 preserveAspectRatio="xMidYMid meet">
<metadata>
Created by potrace 1.16, written by Peter Selinger 2001-2019
Combined from part_0.svg through part_5.svg with named groups
</metadata>
<g transform="translate(0.000000,68.000000) scale(0.100000,-0.100000)" fill="#000000" stroke="none">
<g id="part-0" class="char-part">
  <path d="M322 518 c-17 -34 -29 -64 -27 -66 5 -5 98 62 116 84 11 14 10 18 -6
30 -35 26 -51 16 -83 -48z"/>
  <path d="M136 541 c-3 -4 3 -17 13 -28 10 -10 24 -29 30 -41 15 -28 38 -28 46
-1 4 13 1 27 -10 39 -20 22 -72 42 -79 31z"/>
  <path d="M563 507 c-100 -19 -127 -32 -80 -39 20 -3 22 -9 21 -53 -1 -74 -44
-298 -60 -311 -15 -12 0 -34 23 -34 13 0 63 28 73 41 3 3 21 14 40 24 49 26
23 30 -33 6 -46 -20 -47 -20 -47 -1 0 34 21 120 30 120 5 0 21 -5 37 -12 15
-6 32 -12 37 -12 5 -1 15 -23 22 -50 25 -98 90 -146 173 -130 50 10 48 6 35
87 -3 20 -9 37 -13 37 -4 0 -12 -17 -17 -37 -10 -43 -36 -53 -84 -33 -57 23
-82 169 -41 236 32 52 -2 69 -79 38 -23 -9 -43 -14 -46 -11 -3 3 -1 21 4 40 7
24 6 39 -1 46 -6 6 -8 14 -4 17 9 9 92 23 145 23 45 1 56 15 20 25 -30 8 -35
7 -155 -17z m55 -194 c-2 -33 -7 -47 -16 -45 -25 5 -57 11 -64 11 -11 1 -10
25 2 55 8 21 16 26 45 26 l36 0 -3 -47z"/>
  <path d="M260 434 c-36 -7 -92 -13 -124 -14 -50 0 -57 -2 -44 -12 9 -7 23 -40
31 -73 12 -48 18 -60 33 -58 11 1 71 4 134 6 l115 4 16 44 c8 24 22 57 29 72
12 24 12 30 -1 38 -20 12 -111 9 -189 -7z m130 -38 c0 -19 -4 -46 -10 -60 -8
-23 -15 -26 -56 -26 l-47 0 7 38 c3 20 6 45 6 54 0 18 17 25 68 27 30 1 32 -1
32 -33z m-140 -41 l0 -55 -43 0 c-42 0 -44 1 -55 39 -21 67 -18 71 43 71 l55
0 0 -55z"/>
  <path d="M322 365 c-10 -21 -9 -23 6 -18 41 15 56 43 24 43 -11 0 -24 -11 -30
-25z"/>
  <path d="M180 355 c0 -8 2 -15 4 -15 2 0 11 -3 20 -6 10 -4 16 -1 16 9 0 8 -7
18 -16 21 -22 9 -24 8 -24 -9z"/>
  <path d="M235 229 c-27 -5 -55 -7 -62 -4 -9 3 -10 -20 -6 -88 3 -51 7 -94 9
-96 2 -2 12 3 22 12 21 20 142 25 142 6 0 -6 8 -9 18 -7 14 3 18 17 22 86 3
47 1 87 -4 93 -12 11 -71 10 -141 -2z m100 -30 c9 -28 4 -31 -63 -36 -54 -3
-60 -2 -65 17 -7 26 19 38 80 39 34 1 43 -3 48 -20z m5 -79 l0 -30 -65 0 c-62
0 -65 1 -65 25 0 22 4 24 58 28 31 2 60 4 65 5 4 1 7 -11 7 -28z"/>
</g>
<g id="part-1" class="char-part">
  <path d="M327 522 c-15 -31 -25 -58 -22 -60 8 -8 100 74 100 88 0 8 -11 17
-25 20 -23 6 -28 2 -53 -48z"/>
  <path d="M166 500 c25 -37 43 -48 56 -34 12 11 -5 41 -32 57 -45 27 -52 20
-24 -23z"/>
</g>
<g id="part-2" class="char-part">
  <path d="M230 230 c-24 -4 -53 -5 -64 -2 -16 4 -18 2 -11 -14 4 -10 10 -48 12
-84 6 -89 9 -97 31 -76 24 21 119 22 142 1 27 -24 37 -1 42 92 4 65 2 83 -9
88 -19 7 -85 5 -143 -5z m105 -31 c9 -28 5 -30 -64 -35 -59 -4 -61 -4 -61 20
0 26 14 32 82 35 29 1 38 -3 43 -20z m3 -76 c-3 -27 -6 -28 -65 -31 -61 -3
-63 -2 -63 22 0 23 4 25 58 29 31 2 61 4 65 5 5 1 7 -10 5 -25z"/>
</g>
<g id="part-3" class="char-part">
  <path d="M555 505 c-80 -16 -105 -24 -91 -30 11 -5 51 -3 95 5 42 8 103 16
136 19 54 6 58 7 38 19 -28 16 -45 14 -178 -13z"/>
</g>
<g id="part-4" class="char-part">
  <path d="M510 429 c0 -62 -51 -313 -66 -325 -15 -12 0 -34 24 -34 16 0 135 80
129 87 -3 2 -27 -5 -52 -16 -26 -12 -49 -21 -50 -21 -3 0 34 171 58 272 15 60
9 78 -25 78 -14 0 -18 -8 -18 -41z"/>
</g>
<g id="part-5" class="char-part">
  <path d="M610 384 c-21 -13 -22 -14 -4 -9 21 5 21 3 19 -57 -2 -35 2 -90 7
-123 9 -49 19 -67 49 -98 34 -34 42 -38 71 -32 26 5 30 4 18 -5 -12 -10 -12
-11 5 -5 23 8 45 13 62 14 18 1 3 41 -16 41 -11 0 -12 3 -4 8 8 5 9 13 3 22
-8 12 -10 11 -11 -5 -1 -11 -2 -25 -2 -30 0 -6 -10 -12 -23 -13 -13 -1 -27 -2
-31 -3 -14 -3 -48 14 -56 28 -5 7 -13 10 -19 7 -7 -4 -8 -2 -4 4 4 6 2 21 -4
32 -14 25 -25 184 -12 176 8 -5 37 42 30 50 -12 11 -58 10 -78 -2z"/>
</g>
</g>
</svg>