<?xml version="1.0" standalone="no"?>
<!DOCTYPE svg PUBLIC "-//W3C//DTD SVG 20010904//EN"
 "http://www.w3.org/TR/2001/REC-SVG-20010904/DTD/svg10.dtd">
<svg version="1.0" xmlns="http://www.w3.org/2000/svg"
 width="96.000000pt" height="68.000000pt" viewBox="0 0 96.000000 68.000000"
 preserveAspectRatio="xMidYMid meet">
<metadata>
Created by potrace 1.16, written by Peter Selinger 2001-2019
Combined from part_0.svg through part_5.svg with named groups
</metadata>
<g transform="translate(0.000000,68.000000) scale(0.100000,-0.100000)" fill="#000000" stroke="none">
<g id="part-0" class="char-part">
  <path d="M480 589 c-30 -16 -91 -36 -135 -45 -97 -19 -119 -34 -50 -33 53 0
85 5 228 34 91 19 105 31 65 59 -29 21 -42 19 -108 -15z"/>
  <path d="M626 485 c-15 -20 -32 -33 -37 -30 -5 4 -9 2 -9 -4 0 -6 -17 -22 -37
-37 -38 -26 -38 -26 -8 -19 17 3 38 7 48 8 9 1 17 4 17 8 0 4 24 15 53 24 72
24 86 38 62 65 -27 30 -59 25 -89 -15z"/>
  <path d="M390 481 c0 -20 48 -76 65 -76 30 0 33 44 3 67 -24 18 -68 25 -68 9z"/>
  <path d="M230 458 c0 -21 67 -91 82 -86 24 8 21 55 -4 72 -36 23 -78 31 -78
14z"/>
  <path d="M311 324 c-42 -42 -47 -45 -83 -39 l-39 7 26 -37 c14 -21 25 -47 25
-59 0 -24 26 -125 34 -133 3 -3 12 -1 19 5 8 7 79 14 165 18 148 7 153 6 171
-15 41 -47 78 6 92 132 6 50 15 99 20 109 7 14 3 20 -21 33 -26 13 -42 14
-118 4 -121 -17 -131 -33 -14 -24 l93 7 -3 -43 c-3 -41 -5 -44 -35 -45 -75 -4
-143 -16 -143 -26 0 -8 27 -9 83 -5 46 4 86 4 89 1 5 -4 -9 -84 -15 -91 -2 -1
-85 -4 -185 -7 -150 -5 -182 -4 -182 8 0 7 -3 28 -7 46 -5 29 -4 32 11 27 21
-8 136 3 136 13 0 15 -44 19 -93 8 -53 -11 -65 -6 -69 31 -3 20 6 27 62 51 66
29 83 46 59 61 -24 15 -33 10 -78 -37z"/>
</g>
<g id="part-1" class="char-part">
  <path d="M499 589 c-20 -11 -78 -30 -130 -44 -89 -23 -92 -24 -46 -25 42 0
213 29 270 46 24 7 21 19 -8 32 -34 16 -43 15 -86 -9z"/>
  <path d="M627 485 c-16 -20 -46 -47 -68 -62 -22 -14 -38 -28 -36 -30 2 -2 35
10 73 25 38 16 81 32 97 36 35 8 36 39 2 54 -36 17 -37 16 -68 -23z"/>
  <path d="M400 478 c0 -26 36 -68 57 -68 26 0 29 16 8 47 -15 21 -65 37 -65 21z"/>
  <path d="M240 455 c0 -16 51 -75 64 -75 23 0 28 32 9 51 -19 19 -73 36 -73 24z"/>
</g>
<g id="part-2" class="char-part">
  <path d="M303 322 c-24 -24 -43 -46 -43 -48 0 -9 135 56 138 66 5 14 -16 30
-38 28 -8 0 -34 -21 -57 -46z"/>
</g>
<g id="part-3" class="char-part">
  <path d="M583 347 c-106 -18 -103 -31 5 -22 l93 7 -3 -43 -3 -43 -44 -2 c-76
-4 -131 -15 -131 -26 0 -8 28 -9 89 -4 l89 7 -10 -43 c-5 -24 -12 -46 -16 -50
-10 -10 -350 -19 -355 -10 -3 4 -8 21 -11 39 l-7 31 75 7 c42 4 76 11 76 16 0
16 -42 20 -90 9 -57 -14 -66 -10 -75 29 -4 18 -14 31 -28 35 -44 12 -49 7 -28
-23 11 -15 25 -50 31 -77 22 -98 31 -124 45 -124 7 0 15 4 17 9 2 5 72 13 155
17 151 7 153 6 171 -16 40 -50 85 21 97 155 4 39 12 76 18 83 15 19 -11 42
-54 46 -19 3 -66 -1 -106 -7z"/>
</g>
</g>
</svg>