<?xml version="1.0" standalone="no"?>
<!DOCTYPE svg PUBLIC "-//W3C//DTD SVG 20010904//EN"
 "http://www.w3.org/TR/2001/REC-SVG-20010904/DTD/svg10.dtd">
<svg version="1.0" xmlns="http://www.w3.org/2000/svg"
 width="96.000000pt" height="68.000000pt" viewBox="0 0 96.000000 68.000000"
 preserveAspectRatio="xMidYMid meet">
<metadata>
Created by potrace 1.16, written by Peter Selinger 2001-2019
Combined from part_0.svg through part_5.svg with named groups
</metadata>
<g transform="translate(0.000000,68.000000) scale(0.100000,-0.100000)" fill="#000000" stroke="none">
<g id="part-0" class="char-part">
  <path d="M274 548 l1 -53 -42 -3 c-29 -2 -43 -8 -43 -18 0 -10 13 -14 50 -14
49 0 50 -1 50 -30 l0 -30 -65 0 c-59 0 -80 -9 -56 -25 5 -3 15 -30 22 -59 13
-62 27 -88 36 -68 2 6 18 12 34 12 22 0 29 -5 29 -19 0 -36 -27 -49 -110 -57
-44 -3 -80 -11 -80 -17 0 -6 32 -7 90 -3 l90 7 -6 -60 c-5 -42 -3 -65 6 -76
24 -29 40 1 40 75 l0 67 71 7 c84 9 82 29 -2 27 -63 -1 -68 2 -61 34 5 27 38
35 59 14 8 -8 17 -1 32 29 12 23 21 48 21 55 0 8 7 20 15 27 8 7 15 17 15 22
0 16 -67 38 -99 32 -28 -6 -31 -4 -31 19 0 22 6 26 46 33 59 12 61 28 2 32
l-47 3 6 34 c5 31 2 36 -21 45 -49 18 -54 14 -52 -42z m126 -173 c0 -22 -4
-25 -35 -25 -28 0 -35 4 -35 19 0 21 13 29 48 30 17 1 22 -5 22 -24z m-110
-14 c0 -24 -66 -35 -75 -13 -10 27 -4 32 35 32 33 0 40 -4 40 -19z m100 -45
c0 -27 -15 -36 -45 -27 -26 8 -26 32 0 42 34 13 45 10 45 -15z m-100 -11 c0
-21 -5 -25 -29 -25 -17 0 -31 6 -35 16 -9 22 -9 22 22 27 15 2 30 5 35 6 4 0
7 -10 7 -24z"/>
  <path d="M613 457 c-89 -12 -150 -24 -146 -30 5 -8 122 -3 187 9 20 3 24 -1
30 -34 3 -20 6 -102 6 -181 l0 -144 -36 6 -35 6 33 -39 c18 -21 36 -39 39 -39
3 -1 16 8 28 18 22 20 23 22 18 215 l-5 196 48 0 c41 0 71 13 59 25 -14 13
-95 10 -226 -8z"/>
  <path d="M500 331 c-20 -3 -30 -9 -24 -13 7 -4 15 -28 18 -53 7 -45 20 -64 31
-45 3 5 24 10 46 10 34 0 39 3 39 23 0 12 7 33 16 45 8 12 12 27 9 32 -7 11
-78 11 -135 1z m86 -27 c-3 -9 -6 -24 -6 -35 0 -31 -48 -25 -60 7 -13 35 -6
44 37 44 28 0 34 -3 29 -16z"/>
</g>
<g id="part-1" class="char-part">
  <path d="M282 549 l3 -52 -50 -13 -50 -12 53 -1 c51 -1 52 -2 52 -31 0 -23 5
-30 19 -30 15 0 21 8 23 33 3 30 6 32 48 37 56 6 54 25 -1 24 -41 -1 -41 -1
-36 32 6 35 -3 47 -41 59 -22 6 -23 5 -20 -46z"/>
</g>
<g id="part-2" class="char-part">
  <path d="M290 241 c0 -35 -26 -49 -110 -56 -44 -4 -80 -12 -80 -18 0 -7 30 -8
89 -4 l89 7 -5 -63 c-4 -51 -2 -65 12 -77 25 -21 35 2 35 81 l0 66 66 6 c36 2
68 8 71 11 14 14 -12 21 -68 19 -57 -2 -59 -2 -59 22 0 18 -5 25 -20 25 -13 0
-20 -7 -20 -19z"/>
</g>
<g id="part-3" class="char-part">
  <path d="M640 460 c-69 -10 -138 -19 -155 -19 -22 -1 -26 -4 -17 -13 9 -9 36
-9 120 0 59 7 137 12 172 12 62 0 102 11 83 23 -23 14 -89 13 -203 -3z"/>
</g>
<g id="part-4" class="char-part">
  <path d="M688 259 l4 -182 -37 6 -36 6 33 -39 c18 -21 40 -38 48 -37 34 5 41
46 37 237 l-3 185 -25 3 -24 3 3 -182z"/>
</g>
<g id="part-5" class="char-part">
  <path d="M586 329 c10 -17 6 -59 -8 -77 -6 -7 -8 -15 -6 -18 7 -7 43 44 52 74
4 12 3 22 -3 22 -5 0 -17 3 -27 7 -13 5 -15 3 -8 -8z"/>
  <path d="M496 283 c-6 -14 -5 -15 5 -6 7 7 10 15 7 18 -3 3 -9 -2 -12 -12z"/>
  <path d="M505 260 c-3 -5 -1 -10 4 -10 6 0 11 5 11 10 0 6 -2 10 -4 10 -3 0
-8 -4 -11 -10z"/>
  <path d="M520 240 c-8 -5 -12 -11 -9 -14 2 -3 11 -1 19 4 8 5 12 11 9 14 -2 3
-11 1 -19 -4z"/>
</g>
</g>
</svg>