<?xml version="1.0" standalone="no"?>
<!DOCTYPE svg PUBLIC "-//W3C//DTD SVG 20010904//EN"
 "http://www.w3.org/TR/2001/REC-SVG-20010904/DTD/svg10.dtd">
<svg version="1.0" xmlns="http://www.w3.org/2000/svg"
 width="96.000000pt" height="68.000000pt" viewBox="0 0 96.000000 68.000000"
 preserveAspectRatio="xMidYMid meet">
<metadata>
Created by potrace 1.16, written by Peter Selinger 2001-2019
Combined from part_0.svg through part_5.svg with named groups
</metadata>
<g transform="translate(0.000000,68.000000) scale(0.100000,-0.100000)" fill="#000000" stroke="none">
<g id="part-0" class="char-part">
  <path d="M241 536 c-12 -30 -40 -73 -62 -96 -60 -61 -48 -92 27 -71 21 6 40 8
43 5 3 -3 -18 -28 -46 -54 -36 -33 -51 -54 -47 -64 8 -20 23 -20 49 -2 29 20
124 45 131 35 3 -5 12 -9 20 -9 23 0 16 36 -11 54 -31 21 -38 20 -31 -2 5 -14
-5 -21 -45 -35 -28 -10 -53 -16 -56 -13 -3 3 31 40 76 83 59 55 81 82 79 97
-5 33 -34 31 -48 -3 -7 -17 -17 -34 -24 -39 -16 -13 -86 -25 -86 -15 0 5 26
39 57 77 45 54 54 72 46 85 -5 9 -19 17 -30 19 -15 2 -24 -9 -42 -52z"/>
  <path d="M500 544 c0 -8 11 -30 26 -49 14 -18 21 -35 17 -38 -4 -3 -38 -8 -75
-12 -38 -4 -68 -12 -68 -18 0 -10 77 -5 148 9 l32 7 0 -47 c0 -45 -22 -116
-35 -116 -4 0 -25 15 -47 34 -39 34 -78 52 -78 36 0 -4 10 -14 23 -23 12 -8
38 -29 57 -47 l35 -32 -45 -40 c-25 -22 -67 -51 -95 -64 l-50 -24 45 6 c50 7
88 24 139 63 l34 25 46 -50 c62 -69 81 -78 150 -69 31 4 60 9 65 12 5 3 -27
20 -72 38 -71 29 -172 88 -172 101 0 3 9 22 20 44 29 57 43 129 29 146 -10 12
-2 14 46 14 41 0 55 3 52 13 -4 12 -67 16 -117 7 -21 -4 -25 -1 -28 23 -2 19
-14 35 -35 48 -39 23 -47 24 -47 3z"/>
  <path d="M315 226 c10 -14 26 -26 36 -26 36 0 17 35 -25 46 l-28 7 17 -27z"/>
  <path d="M232 188 c32 -41 48 -46 48 -15 0 16 -8 28 -25 35 -43 20 -49 14 -23
-20z"/>
  <path d="M117 183 c-9 -9 45 -83 60 -83 28 0 10 52 -24 71 -17 10 -34 15 -36
12z"/>
</g>
<g id="part-1" class="char-part">
  <path d="M260 578 c0 -28 -49 -115 -83 -148 -61 -58 -46 -80 38 -56 65 20 80
36 25 29 -22 -3 -40 -2 -40 2 0 5 21 34 48 64 77 91 75 87 57 105 -19 19 -45
21 -45 4z"/>
</g>
<g id="part-2" class="char-part">
  <path d="M309 232 c22 -42 61 -52 61 -17 0 16 -30 35 -55 35 -12 0 -14 -4 -6
-18z"/>
  <path d="M216 208 c12 -22 47 -58 56 -58 4 0 8 11 8 23 0 16 -9 28 -25 35 -34
15 -48 15 -39 0z"/>
  <path d="M110 181 c0 -17 47 -76 63 -79 21 -4 24 40 4 56 -19 16 -67 33 -67
23z"/>
</g>
<g id="part-3" class="char-part">
  <path d="M490 555 c0 -13 30 -62 44 -74 25 -21 11 -28 -70 -36 -55 -5 -73 -10
-65 -18 8 -8 45 -6 133 6 68 10 140 17 161 17 27 0 37 4 34 13 -3 8 -25 11
-76 9 -70 -2 -71 -2 -71 23 0 18 -10 31 -32 45 -32 19 -58 26 -58 15z"/>
</g>
<g id="part-4" class="char-part">
  <path d="M580 395 c0 -44 -22 -115 -35 -115 -4 0 -25 16 -48 35 -22 19 -49 35
-60 35 -13 0 -3 -14 38 -52 l57 -52 -34 -32 c-19 -17 -61 -46 -94 -63 -57 -31
-58 -32 -22 -27 43 5 111 36 151 68 l29 23 47 -51 c64 -69 79 -76 151 -68 33
4 63 10 65 14 3 4 -28 19 -68 34 -97 35 -181 92 -171 114 24 56 54 156 50 168
-3 8 -17 14 -31 14 -23 0 -25 -3 -25 -45z"/>
</g>
</g>
</svg>