<?xml version="1.0" standalone="no"?>
<!DOCTYPE svg PUBLIC "-//W3C//DTD SVG 20010904//EN"
 "http://www.w3.org/TR/2001/REC-SVG-20010904/DTD/svg10.dtd">
<svg version="1.0" xmlns="http://www.w3.org/2000/svg"
 width="96.000000pt" height="68.000000pt" viewBox="0 0 96.000000 68.000000"
 preserveAspectRatio="xMidYMid meet">
<metadata>
Created by potrace 1.16, written by Peter Selinger 2001-2019
Combined from part_0.svg through part_5.svg with named groups
</metadata>
<g transform="translate(0.000000,68.000000) scale(0.100000,-0.100000)" fill="#000000" stroke="none">
<g id="part-0" class="char-part">
  <path d="M450 545 c-25 -13 -74 -31 -110 -40 -92 -25 -100 -39 -18 -32 l67 6
6 -33 c14 -71 7 -80 -65 -88 -127 -15 -150 -19 -145 -29 8 -11 108 -11 158 0
52 12 57 -6 18 -67 -39 -62 -100 -114 -184 -157 -57 -30 -27 -30 44 0 104 44
162 95 206 179 13 26 17 28 27 14 31 -43 86 -108 129 -155 55 -58 89 -69 181
-58 58 8 65 18 19 30 -40 10 -132 54 -180 87 -55 37 -144 128 -137 139 3 5 26
9 52 9 74 0 182 12 182 20 0 4 -13 13 -28 19 -22 9 -49 9 -120 -2 l-92 -13 0
52 c0 33 -5 54 -12 57 -7 2 22 10 65 17 77 13 92 25 63 49 -26 22 -79 20 -126
-4z"/>
</g>
<g id="part-1" class="char-part">
  <path d="M462 544 c-29 -13 -81 -32 -115 -41 -133 -36 -69 -40 102 -7 40 8 86
14 101 14 52 0 45 27 -11 48 -19 8 -37 5 -77 -14z"/>
</g>
<g id="part-2" class="char-part">
  <path d="M404 484 c-6 -3 -9 -25 -6 -58 5 -62 7 -60 -93 -70 -108 -12 -135
-17 -129 -28 5 -7 42 -9 110 -5 71 5 104 3 104 -4 0 -21 -72 -118 -108 -146
-20 -15 -64 -42 -97 -60 -76 -41 -46 -42 51 -2 83 35 150 92 184 159 12 23 25
38 29 34 4 -5 30 -38 58 -74 85 -108 125 -142 175 -147 23 -2 68 -1 98 4 l54
8 -74 29 c-41 16 -95 40 -120 54 -45 26 -180 148 -180 164 0 4 24 8 53 8 78 0
187 12 187 20 0 4 -13 13 -29 20 -22 9 -46 9 -100 1 -113 -18 -110 -19 -113
42 -3 44 -6 52 -23 54 -11 1 -25 0 -31 -3z"/>
</g>
</g>
</svg>