<?xml version="1.0" standalone="no"?>
<!DOCTYPE svg PUBLIC "-//W3C//DTD SVG 20010904//EN"
 "http://www.w3.org/TR/2001/REC-SVG-20010904/DTD/svg10.dtd">
<svg version="1.0" xmlns="http://www.w3.org/2000/svg"
 width="96.000000pt" height="68.000000pt" viewBox="0 0 96.000000 68.000000"
 preserveAspectRatio="xMidYMid meet">
<metadata>
Created by potrace 1.16, written by Peter Selinger 2001-2019
Combined from part_0.svg through part_5.svg with named groups
</metadata>
<g transform="translate(0.000000,68.000000) scale(0.100000,-0.100000)" fill="#000000" stroke="none">
<g id="part-0" class="char-part">
  <path d="M580 541 c0 -54 -8 -61 -66 -61 -19 0 -34 -4 -34 -10 0 -5 18 -10 40
-10 52 0 52 -17 2 -70 -22 -22 -33 -40 -25 -40 18 0 113 89 113 106 0 8 18 15
48 19 62 8 72 12 72 26 0 8 -16 10 -55 5 -30 -3 -55 -4 -55 -2 0 3 5 16 11 30
14 30 -1 56 -32 56 -16 0 -19 -8 -19 -49z"/>
  <path d="M417 543 c-4 -3 -7 -14 -7 -23 0 -9 -6 -25 -14 -35 -13 -18 -14 -18
-42 2 -51 35 -70 36 -31 1 45 -38 43 -56 -9 -84 -19 -10 -34 -22 -34 -26 0 -8
68 19 88 34 9 8 12 1 12 -30 0 -37 -7 -48 -68 -112 -76 -79 -70 -92 12 -25 31
25 58 45 61 45 5 0 -1 -82 -11 -148 -4 -29 -8 -32 -41 -32 l-37 0 29 -30 c16
-17 34 -30 40 -30 46 0 80 207 55 334 l-13 64 31 38 c24 28 29 41 20 51 -11
14 -31 17 -41 6z"/>
  <path d="M174 529 c-8 -14 52 -69 75 -69 16 0 21 6 21 24 0 14 -5 28 -11 32
-22 13 -79 22 -85 13z"/>
  <path d="M610 435 c0 -8 74 -55 87 -55 7 0 13 9 13 20 0 14 -11 22 -37 29 -41
12 -63 14 -63 6z"/>
  <path d="M118 394 c31 -57 92 -81 92 -36 0 26 -21 42 -65 49 -34 6 -36 4 -27
-13z"/>
  <path d="M610 355 c-52 -8 -108 -16 -125 -18 -16 -3 -34 -6 -40 -6 -5 -1 -2
-6 7 -12 16 -9 83 -2 175 17 18 3 24 -2 33 -33 6 -21 10 -78 8 -128 l-3 -90
-43 3 -43 3 43 -39 c46 -43 66 -43 89 -1 12 23 8 256 -5 277 -5 9 7 12 43 12
56 0 84 8 75 21 -7 12 -99 9 -214 -6z"/>
  <path d="M220 280 c-19 -30 -52 -71 -73 -92 -38 -36 -38 -37 -23 -72 8 -20 21
-36 29 -36 8 0 33 44 61 110 55 130 58 171 6 90z"/>
  <path d="M535 280 c-11 -5 -34 -9 -51 -9 l-31 -1 23 -49 23 -48 50 9 c47 10
49 12 55 51 9 53 -16 70 -69 47z m28 -27 c3 -5 1 -18 -4 -31 -13 -34 -53 -27
-57 11 -3 24 0 27 27 27 16 0 32 -3 34 -7z"/>
</g>
<g id="part-1" class="char-part">
  <path d="M180 522 c0 -18 59 -64 74 -59 23 9 20 33 -6 51 -24 17 -68 22 -68 8z"/>
  <path d="M120 404 c0 -16 47 -64 63 -64 37 0 30 45 -8 54 -13 3 -30 9 -39 12
-9 3 -16 2 -16 -2z"/>
  <path d="M216 267 c-14 -23 -41 -58 -61 -77 -40 -38 -43 -58 -17 -90 l19 -23
32 69 c50 105 72 164 61 164 -5 0 -20 -19 -34 -43z"/>
</g>
<g id="part-2" class="char-part">
  <path d="M410 528 c0 -13 -7 -31 -15 -41 -13 -18 -15 -18 -52 7 -54 37 -65 31
-18 -10 l40 -34 -25 -23 c-14 -12 -37 -30 -50 -39 l-25 -18 30 10 c17 6 40 16
52 22 13 6 26 9 29 6 9 -9 9 -208 0 -256 -8 -44 -8 -44 -47 -40 l-39 4 34 -35
c40 -40 60 -37 81 13 23 54 30 241 12 299 -8 26 -12 49 -8 52 4 2 21 23 36 45
24 34 26 43 14 51 -26 16 -49 10 -49 -13z"/>
</g>
<g id="part-3" class="char-part">
  <path d="M360 326 c-8 -16 -39 -50 -68 -77 -58 -53 -49 -67 14 -20 59 42 76
66 72 97 l-3 28 -15 -28z"/>
</g>
<g id="part-4" class="char-part">
  <path d="M545 280 c-11 -5 -37 -9 -58 -9 -36 -1 -37 -2 -23 -23 7 -13 17 -36
20 -51 5 -21 11 -27 24 -23 9 3 34 8 54 12 21 3 35 10 33 15 -3 5 1 22 10 38
14 28 14 31 -4 41 -23 12 -29 12 -56 0z m25 -24 c0 -3 -5 -17 -10 -31 -14 -37
-54 -32 -58 8 -3 25 -1 27 32 27 20 0 36 -2 36 -4z"/>
</g>
</g>
</svg>