<?xml version="1.0" standalone="no"?>
<!DOCTYPE svg PUBLIC "-//W3C//DTD SVG 20010904//EN"
 "http://www.w3.org/TR/2001/REC-SVG-20010904/DTD/svg10.dtd">
<svg version="1.0" xmlns="http://www.w3.org/2000/svg"
 width="96.000000pt" height="68.000000pt" viewBox="0 0 96.000000 68.000000"
 preserveAspectRatio="xMidYMid meet">
<metadata>
Created by potrace 1.16, written by Peter Selinger 2001-2019
Combined from part_0.svg through part_5.svg with named groups
</metadata>
<g transform="translate(0.000000,68.000000) scale(0.100000,-0.100000)" fill="#000000" stroke="none">
<g id="part-0" class="char-part">
  <path d="M287 516 c6 -72 14 -63 -72 -81 -45 -10 -26 -25 31 -25 54 0 55 0 52
-27 -3 -27 -6 -28 -100 -43 -53 -8 -100 -18 -103 -22 -4 -4 5 -13 19 -20 22
-10 42 -9 104 4 42 9 79 14 81 12 3 -2 7 -31 9 -64 3 -46 1 -60 -9 -60 -26 1
-50 26 -43 45 5 12 1 22 -10 31 -24 17 -46 7 -46 -20 0 -23 -43 -96 -79 -133
-22 -23 -26 -33 -13 -33 10 0 85 71 105 100 l17 24 152 -77 c178 -89 225 -107
282 -106 58 0 184 25 166 32 -8 3 -71 13 -140 22 -106 15 -227 47 -332 90 -18
7 -24 41 -10 61 4 6 26 15 50 19 57 9 55 29 -2 23 -44 -5 -44 -5 -48 28 l-4
33 63 7 c35 3 63 10 63 15 0 15 -43 26 -82 21 -33 -4 -38 -1 -38 16 0 25 16
38 58 47 53 11 34 35 -29 35 -29 0 -30 0 -27 53 l3 52 -36 3 -37 3 5 -65z"/>
  <path d="M610 545 c-36 -8 -84 -14 -106 -14 l-42 -1 19 -37 c10 -21 19 -45 19
-54 0 -36 11 -48 38 -43 15 2 58 6 96 7 l68 2 24 65 c22 60 22 66 7 78 -20 15
-38 14 -123 -3z m78 -31 c3 -23 -5 -26 -114 -40 -47 -6 -53 -4 -59 16 -4 12
-5 23 -3 25 6 6 130 23 153 21 12 0 21 -9 23 -22z m-8 -53 c0 -34 -13 -41 -81
-41 -59 0 -69 3 -69 18 0 14 11 18 57 20 32 2 60 5 62 8 8 8 31 4 31 -5z"/>
  <path d="M577 355 c-82 -14 -97 -25 -33 -25 43 0 47 -2 44 -22 -3 -20 -12 -24
-60 -32 -76 -11 -76 -29 0 -24 l57 3 3 -67 c4 -101 20 -90 38 27 3 22 8 43 11
48 2 4 40 7 84 7 43 0 79 4 79 9 0 17 -39 23 -106 16 -65 -7 -66 -7 -62 16 2
15 11 25 23 27 49 7 65 13 60 23 -7 11 -42 10 -138 -6z"/>
</g>
<g id="part-1" class="char-part">
  <path d="M293 513 l2 -68 -47 -9 c-63 -12 -61 -26 2 -26 49 0 50 -1 50 -29 0
-27 -4 -30 -42 -36 -146 -23 -170 -28 -157 -36 22 -14 79 -10 180 11 52 11
108 20 124 20 17 0 37 4 45 10 23 14 -12 24 -60 16 l-40 -6 0 34 c0 32 2 35
40 41 57 10 60 25 5 25 l-46 0 2 51 c3 52 -7 69 -43 69 -15 0 -17 -9 -15 -67z"/>
</g>
<g id="part-2" class="char-part">
  <path d="M207 273 c-3 -5 -8 -21 -11 -38 -4 -16 -27 -57 -51 -90 -25 -33 -45
-61 -45 -62 0 -15 30 7 78 56 l58 59 174 -87 c169 -83 177 -86 245 -86 87 0
190 14 179 24 -5 5 -74 18 -154 29 -141 21 -194 36 -357 105 -65 27 -72 33
-67 53 4 16 0 25 -14 33 -24 13 -29 13 -35 4z"/>
</g>
<g id="part-3" class="char-part">
  <path d="M590 543 c-41 -7 -87 -12 -103 -10 -15 2 -26 1 -24 -2 16 -31 28 -63
37 -98 10 -40 11 -41 48 -36 20 2 63 5 96 6 l58 2 24 65 c23 61 24 65 8 77
-21 15 -45 15 -144 -4z m98 -30 c3 -18 -3 -22 -35 -27 -114 -17 -133 -18 -134
-7 -1 6 -2 17 -3 23 -1 8 24 17 64 24 87 16 104 14 108 -13z m-8 -52 c0 -34
-13 -41 -81 -41 -62 0 -69 2 -69 20 0 16 8 20 58 23 31 2 65 4 75 5 9 1 17 -2
17 -7z"/>
</g>
<g id="part-4" class="char-part">
  <path d="M659 366 c-2 -3 -31 -8 -64 -11 -81 -10 -114 -24 -58 -24 67 -1 197
20 181 30 -14 9 -52 12 -59 5z"/>
</g>
<g id="part-5" class="char-part">
  <path d="M595 312 c12 -32 10 -35 -40 -39 -64 -6 -71 -13 -13 -13 42 0 46 -2
51 -27 3 -16 3 -40 0 -55 -3 -14 0 -34 7 -45 10 -15 10 -14 5 10 -3 16 -2 26
2 24 5 -3 10 13 11 36 1 23 4 59 6 79 2 29 -1 37 -16 41 -15 4 -18 2 -13 -11z"/>
  <path d="M707 289 c-10 -6 -30 -8 -45 -5 -21 5 -23 4 -10 -4 9 -5 31 -8 50 -6
18 3 37 5 41 5 10 1 -1 21 -11 21 -4 0 -15 -5 -25 -11z"/>
</g>
</g>
</svg>