<?xml version="1.0" standalone="no"?>
<!DOCTYPE svg PUBLIC "-//W3C//DTD SVG 20010904//EN"
 "http://www.w3.org/TR/2001/REC-SVG-20010904/DTD/svg10.dtd">
<svg version="1.0" xmlns="http://www.w3.org/2000/svg"
 width="96.000000pt" height="68.000000pt" viewBox="0 0 96.000000 68.000000"
 preserveAspectRatio="xMidYMid meet">
<metadata>
Created by potrace 1.16, written by Peter Selinger 2001-2019
Combined from part_0.svg through part_5.svg with named groups
</metadata>
<g transform="translate(0.000000,68.000000) scale(0.100000,-0.100000)" fill="#000000" stroke="none">
<g id="part-0" class="char-part">
  <path d="M583 583 c-3 -10 -13 -26 -21 -35 -20 -24 -9 -23 38 5 22 12 40 28
40 35 0 19 -50 15 -57 -5z"/>
  <path d="M430 555 c26 -28 50 -33 50 -10 0 9 -12 20 -26 25 -42 16 -49 12 -24
-15z"/>
  <path d="M550 519 c-25 -5 -74 -12 -110 -17 l-65 -9 63 -2 c55 -1 62 -3 62
-21 0 -17 -7 -20 -50 -20 -30 0 -50 -4 -50 -11 0 -8 15 -9 45 -5 36 6 46 4 51
-9 9 -22 6 -24 -62 -31 -83 -8 -98 -17 -39 -24 l50 -5 -40 -23 c-39 -22 -40
-22 -10 -19 21 1 30 -2 30 -13 0 -10 -14 -17 -42 -21 -54 -7 -67 -19 -21 -19
48 0 51 -7 15 -41 l-32 -30 32 15 c41 20 54 20 46 0 -4 -12 -2 -15 8 -12 8 2
15 14 17 26 4 26 6 27 37 6 25 -16 61 -12 50 6 -3 5 -21 12 -40 16 -42 8 -46
24 -6 24 16 0 42 3 58 6 28 5 29 4 47 -53 10 -32 24 -70 32 -84 12 -24 11 -28
-14 -51 -15 -14 -38 -32 -52 -41 -15 -11 -19 -17 -10 -17 9 0 32 11 52 25 45
31 52 31 91 3 48 -35 77 -48 103 -48 20 0 24 5 24 29 0 16 -3 44 -7 62 l-6 33
-12 -34 c-15 -45 -32 -47 -74 -12 l-34 28 43 58 c42 56 43 59 25 72 -30 22
-42 17 -49 -20 -4 -19 -15 -45 -26 -58 -17 -20 -21 -21 -30 -8 -14 21 -41 111
-35 120 2 3 30 8 62 9 32 1 60 4 62 7 12 12 -16 18 -68 16 l-59 -3 -4 35 c-4
35 -4 35 44 41 75 11 46 24 -37 18 -63 -5 -75 -3 -75 9 0 18 29 28 78 28 21 0
31 4 27 11 -4 6 -28 9 -54 7 -35 -2 -46 0 -46 12 0 8 7 16 15 17 8 1 36 5 63
8 26 3 45 10 42 16 -7 11 -52 10 -115 -2z m14 -167 c5 -18 7 -34 4 -37 -2 -2
-30 -7 -61 -11 -53 -6 -57 -5 -57 13 0 13 9 24 23 28 19 6 19 8 5 12 -29 7
-21 21 15 26 53 7 61 3 71 -31z"/>
  <path d="M135 361 c0 -64 -4 -132 -8 -151 -6 -26 -4 -40 7 -55 15 -19 17 -19
30 -2 20 25 80 23 98 -5 17 -26 44 -19 57 14 4 13 5 52 0 88 -4 35 -4 95 0
133 10 96 -9 113 -100 85 -27 -8 -46 -8 -62 -1 l-22 10 0 -116z m133 32 c3
-50 2 -53 -22 -53 -13 0 -31 -3 -40 -6 -13 -5 -16 3 -16 49 0 58 8 67 55 64
17 -2 20 -10 23 -54z m2 -138 l0 -55 -45 0 -45 0 0 55 0 55 45 0 45 0 0 -55z"/>
  <path d="M730 355 c25 -27 45 -32 56 -13 9 15 -24 38 -55 38 l-24 0 23 -25z"/>
  <path d="M479 196 c-3 -3 -34 -8 -69 -12 -68 -7 -92 -14 -47 -14 30 0 33 -10
15 -40 -17 -26 -6 -33 35 -22 48 13 58 4 41 -37 -12 -28 -18 -33 -39 -28 -28
5 -29 -10 -3 -27 28 -17 63 7 77 54 14 49 7 60 -41 60 -18 0 -28 5 -28 15 0
21 17 27 98 34 6 0 12 6 12 11 0 10 -42 14 -51 6z"/>
</g>
<g id="part-1" class="char-part">
  <path d="M240 470 c-8 -5 -34 -10 -57 -10 l-42 0 5 -62 c5 -57 -5 -160 -20
-198 -4 -9 0 -24 9 -35 14 -19 16 -19 29 -3 21 29 76 23 103 -9 21 -26 24 -27
36 -11 10 13 13 55 11 169 -2 138 -4 154 -21 160 -25 10 -36 10 -53 -1z m32
-72 c2 -29 4 -54 4 -55 -1 0 -22 -4 -48 -8 l-48 -7 0 55 c0 60 5 65 57 66 31
1 31 0 35 -51z m3 -88 c3 -5 3 -32 -1 -60 l-7 -50 -50 0 -50 0 7 38 c3 20 6
45 6 54 0 21 83 38 95 18z"/>
</g>
<g id="part-2" class="char-part">
  <path d="M571 565 c-24 -42 -21 -43 36 -9 45 26 49 44 8 44 -16 0 -29 -11 -44
-35z"/>
  <path d="M427 555 c20 -27 53 -34 53 -10 0 16 -30 35 -55 35 -14 0 -14 -3 2
-25z"/>
  <path d="M515 515 c-137 -19 -146 -22 -68 -24 84 -1 223 17 223 30 0 11 -41
10 -155 -6z"/>
</g>
<g id="part-3" class="char-part">
  <path d="M497 470 c-4 -16 -14 -20 -51 -20 -27 0 -46 -5 -46 -11 0 -7 18 -10
47 -7 37 2 46 0 49 -14 2 -13 -9 -18 -54 -23 -32 -3 -68 -9 -82 -12 -22 -6
-23 -7 -5 -11 17 -4 73 0 303 24 32 3 50 9 46 16 -4 6 -35 7 -85 3 -66 -6 -79
-5 -79 8 0 17 29 27 78 27 22 0 31 4 26 11 -4 7 -23 9 -51 5 -33 -4 -45 -2
-49 9 -9 22 -41 18 -47 -5z"/>
</g>
<g id="part-4" class="char-part">
  <path d="M375 119 c-12 -18 1 -21 41 -10 48 13 56 5 38 -38 -12 -29 -18 -33
-45 -29 l-30 5 20 -21 c32 -31 70 -13 89 43 12 37 12 45 1 52 -20 12 -107 11
-114 -2z"/>
</g>
</g>
</svg>