<?xml version="1.0" standalone="no"?>
<!DOCTYPE svg PUBLIC "-//W3C//DTD SVG 20010904//EN"
 "http://www.w3.org/TR/2001/REC-SVG-20010904/DTD/svg10.dtd">
<svg version="1.0" xmlns="http://www.w3.org/2000/svg"
 width="96.000000pt" height="68.000000pt" viewBox="0 0 96.000000 68.000000"
 preserveAspectRatio="xMidYMid meet">
<metadata>
Created by potrace 1.16, written by Peter Selinger 2001-2019
Combined from part_0.svg through part_5.svg with named groups
</metadata>
<g transform="translate(0.000000,68.000000) scale(0.100000,-0.100000)" fill="#000000" stroke="none">
<g id="part-0" class="char-part">
  <path d="M539 633 c-1 -5 0 -19 1 -32 2 -28 -14 -41 -52 -41 -16 0 -28 -4 -28
-9 0 -11 25 -21 51 -21 13 0 19 -7 19 -24 0 -27 -19 -31 -163 -41 -75 -5 -128
-24 -69 -25 17 0 32 -5 32 -10 0 -13 -32 -46 -75 -77 l-30 -23 31 6 c21 4 34
1 43 -10 17 -20 31 -21 31 -2 0 8 -10 18 -22 22 -21 6 -21 7 -3 20 10 8 39 14
64 14 l44 0 -24 -26 c-38 -41 -77 -66 -143 -91 -60 -23 -60 -24 -18 -18 56 7
114 37 174 89 61 53 61 66 1 66 -37 1 -44 3 -31 11 9 5 15 15 12 23 -3 9 10
13 51 15 l55 2 0 -56 c0 -69 10 -90 51 -104 73 -25 221 -2 205 32 -3 7 -9 20
-12 30 -4 9 -10 17 -15 17 -6 0 -13 -8 -16 -17 -12 -31 -37 -42 -93 -42 -94 0
-128 51 -42 63 26 4 65 13 87 20 38 11 39 13 18 24 -18 10 -31 7 -78 -14 -31
-14 -59 -23 -63 -19 -4 3 -7 22 -7 41 l0 34 63 0 c47 0 63 3 59 13 -2 7 -23
12 -55 12 -29 0 -52 2 -52 5 1 3 9 15 19 27 15 18 34 24 90 29 48 5 71 11 71
20 0 19 -35 27 -82 19 -35 -6 -40 -5 -35 9 3 8 -1 22 -9 31 -16 15 -53 21 -55
8z"/>
  <path d="M284 608 c-3 -5 1 -17 10 -27 9 -10 16 -20 16 -23 0 -4 -29 -10 -65
-13 -65 -7 -66 -8 -48 -27 14 -16 26 -19 58 -14 23 3 47 8 56 11 8 3 18 -3 24
-17 16 -34 35 -34 35 0 0 24 6 32 38 45 l37 15 -42 1 c-35 1 -42 5 -45 23 -2
16 -12 24 -36 29 -18 4 -35 2 -38 -3z"/>
  <path d="M512 243 c3 -27 2 -28 -54 -31 -52 -3 -57 -1 -60 20 -2 17 -11 24
-30 26 -26 3 -27 1 -22 -27 l7 -31 -84 -1 c-89 0 -132 -10 -110 -23 7 -5 52
-7 99 -5 82 4 87 3 84 -16 -5 -25 -26 -50 -77 -88 -31 -23 -34 -28 -15 -22 60
17 125 75 143 128 5 14 18 17 67 17 l60 0 0 -77 c0 -43 4 -84 9 -91 16 -26 33
16 38 95 l5 78 114 -3 c95 -3 114 -1 114 12 0 20 -67 30 -156 21 -67 -6 -73
-5 -68 10 8 20 -11 35 -44 35 -19 0 -22 -5 -20 -27z"/>
</g>
<g id="part-1" class="char-part">
  <path d="M540 597 c0 -32 -3 -35 -42 -44 l-43 -11 38 -1 c30 -1 37 -5 37 -21
0 -26 8 -25 32 5 16 21 28 25 71 26 29 0 61 4 72 9 18 7 18 8 3 15 -10 4 -40
5 -67 3 -47 -3 -49 -2 -48 22 2 20 -3 26 -25 28 -26 3 -28 1 -28 -31z"/>
  <path d="M296 584 c22 -33 8 -44 -58 -44 -27 0 -48 -4 -48 -9 0 -16 39 -23 91
-16 46 6 51 5 56 -14 8 -32 37 -27 30 5 -4 21 0 26 24 31 16 3 29 10 29 16 0
5 -13 7 -29 4 -26 -5 -31 -3 -40 23 -8 25 -16 30 -41 30 l-30 0 16 -26z"/>
</g>
<g id="part-2" class="char-part">
  <path d="M408 471 c-157 -17 -190 -38 -45 -27 50 3 136 9 190 13 92 6 116 14
81 27 -21 8 -63 6 -226 -13z"/>
</g>
<g id="part-3" class="char-part">
  <path d="M490 385 c0 -87 18 -100 142 -100 107 0 124 11 101 64 l-14 34 -15
-29 c-20 -38 -25 -40 -90 -43 -41 -2 -61 2 -75 15 -31 28 -23 41 30 48 27 4
66 12 87 20 36 12 37 14 18 24 -17 9 -30 7 -61 -8 -22 -10 -52 -22 -68 -26
-27 -7 -28 -6 -21 30 6 32 5 36 -14 36 -18 0 -20 -6 -20 -65z"/>
</g>
<g id="part-4" class="char-part">
  <path d="M517 240 l6 -30 -61 0 c-55 0 -61 2 -64 23 -2 15 -11 23 -29 25 -23
3 -25 0 -21 -27 l4 -31 -53 -1 c-30 -1 -65 -2 -79 -4 -14 -1 -35 -3 -48 -3
-15 -1 -21 -6 -16 -13 5 -8 36 -10 100 -6 l93 5 -10 -26 c-13 -35 -26 -50 -74
-85 -32 -23 -35 -28 -15 -22 45 12 105 60 128 103 l23 42 60 0 59 0 0 -82 c0
-46 4 -89 8 -96 14 -21 34 36 40 111 l5 67 113 0 c71 0 114 4 114 10 0 21 -54
31 -137 24 -79 -6 -83 -6 -83 14 0 21 -18 32 -51 32 -15 0 -17 -5 -12 -30z"/>
</g>
</g>
</svg>