<?xml version="1.0" standalone="no"?>
<!DOCTYPE svg PUBLIC "-//W3C//DTD SVG 20010904//EN"
 "http://www.w3.org/TR/2001/REC-SVG-20010904/DTD/svg10.dtd">
<svg version="1.0" xmlns="http://www.w3.org/2000/svg"
 width="96.000000pt" height="68.000000pt" viewBox="0 0 96.000000 68.000000"
 preserveAspectRatio="xMidYMid meet">
<metadata>
Created by potrace 1.16, written by Peter Selinger 2001-2019
Combined from part_0.svg through part_5.svg with named groups
</metadata>
<g transform="translate(0.000000,68.000000) scale(0.100000,-0.100000)" fill="#000000" stroke="none">
<g id="part-0" class="char-part">
  <path d="M216 588 c14 -40 16 -250 3 -353 -15 -124 -14 -155 6 -174 35 -36 53
48 54 258 l1 104 23 -21 c29 -27 53 -28 60 -2 6 22 -8 32 -55 44 -31 7 -32 15
-18 86 8 40 7 47 -12 63 -11 9 -31 17 -45 17 -22 0 -24 -3 -17 -22z"/>
  <path d="M490 560 c0 -5 6 -10 13 -10 6 0 35 -25 62 -56 134 -151 137 -154
186 -153 24 1 55 4 69 8 22 6 17 10 -45 36 -68 29 -138 77 -220 149 -40 35
-65 45 -65 26z"/>
  <path d="M425 433 c-9 -20 -31 -56 -50 -79 -41 -49 -44 -59 -13 -43 34 18 128
110 128 125 0 12 -29 34 -44 34 -3 0 -13 -17 -21 -37z"/>
  <path d="M114 366 c-26 -57 -24 -86 7 -86 25 0 51 42 51 84 0 73 -25 74 -58 2z"/>
  <path d="M483 291 c-22 -46 -46 -79 -73 -101 -41 -33 -51 -57 -25 -66 8 -3 73
9 145 27 120 30 133 32 141 17 13 -23 39 -48 50 -48 11 0 12 60 1 76 -11 18
-83 64 -100 64 -12 0 -12 -4 2 -25 9 -13 16 -28 16 -33 0 -9 -169 -37 -177
-28 -3 3 12 29 34 58 56 75 57 77 42 104 -7 13 -15 24 -18 24 -4 0 -21 -31
-38 -69z"/>
</g>
<g id="part-1" class="char-part">
  <path d="M224 583 c20 -84 16 -259 -10 -448 -4 -28 -1 -46 10 -60 16 -20 16
-20 31 -1 12 16 15 54 15 188 0 92 3 168 7 168 4 0 20 -12 35 -27 21 -20 31
-24 39 -16 18 18 3 41 -33 51 l-33 9 2 70 c3 66 2 70 -23 81 -39 18 -47 15
-40 -15z"/>
  <path d="M121 371 c-26 -55 -25 -86 4 -86 25 0 51 69 41 108 -9 39 -19 34 -45
-22z"/>
</g>
<g id="part-2" class="char-part">
  <path d="M490 562 c0 -5 11 -14 24 -21 12 -7 52 -47 87 -88 35 -41 75 -84 88
-94 24 -19 82 -24 130 -10 20 5 13 11 -50 39 -47 21 -106 60 -163 107 -82 69
-116 88 -116 67z"/>
  <path d="M422 426 c-11 -24 -37 -62 -57 -85 -21 -22 -33 -41 -28 -41 16 0 89
56 128 97 l35 38 -21 18 c-30 25 -36 22 -57 -27z"/>
</g>
<g id="part-3" class="char-part">
  <path d="M499 333 c-26 -69 -56 -117 -91 -145 -40 -31 -48 -55 -23 -64 8 -3
72 8 142 25 l128 31 26 -30 c34 -40 49 -38 49 5 0 37 -19 61 -75 91 -40 21
-56 13 -30 -16 11 -12 15 -24 9 -29 -11 -10 -163 -35 -171 -28 -2 3 16 33 41
67 47 64 55 87 34 108 -18 18 -28 15 -39 -15z"/>
</g>
</g>
</svg>