<?xml version="1.0" standalone="no"?>
<!DOCTYPE svg PUBLIC "-//W3C//DTD SVG 20010904//EN"
 "http://www.w3.org/TR/2001/REC-SVG-20010904/DTD/svg10.dtd">
<svg version="1.0" xmlns="http://www.w3.org/2000/svg"
 width="96.000000pt" height="68.000000pt" viewBox="0 0 96.000000 68.000000"
 preserveAspectRatio="xMidYMid meet">
<metadata>
Created by potrace 1.16, written by Peter Selinger 2001-2019
Combined from part_0.svg through part_5.svg with named groups
</metadata>
<g transform="translate(0.000000,68.000000) scale(0.100000,-0.100000)" fill="#000000" stroke="none">
<g id="part-0" class="char-part">
  <path d="M530 581 c5 -11 15 -23 20 -26 23 -14 6 -24 -51 -31 -92 -10 -51 -26
49 -19 l82 7 0 -32 c0 -48 -26 -90 -55 -90 -21 0 -25 5 -25 28 0 17 -10 37
-23 50 -36 34 -47 27 -26 -18 10 -21 19 -44 19 -50 0 -15 -87 -13 -93 3 -2 6
-10 -1 -17 -18 -7 -16 -17 -38 -22 -49 -6 -12 -6 -22 1 -29 13 -13 27 -2 45
35 9 18 22 24 64 28 54 6 59 3 58 -40 -1 -23 -5 -25 -53 -28 l-53 -3 0 -44 c0
-24 -2 -49 -5 -57 -6 -16 20 -56 30 -46 4 3 9 34 12 67 3 34 10 61 14 62 57 7
54 15 57 -129 1 -72 7 -132 12 -132 17 0 30 74 30 171 l0 97 36 7 c43 8 54 -3
54 -55 0 -46 -13 -64 -39 -57 -27 7 -26 -1 5 -36 21 -25 27 -27 42 -15 27 21
32 31 32 70 0 20 5 49 10 64 16 41 -3 56 -69 53 -55 -3 -55 -2 -62 28 -7 38 4
43 100 43 l63 0 -17 -26 c-9 -14 -15 -27 -13 -29 6 -6 92 17 103 27 6 5 -1 18
-20 33 -31 26 -39 27 -158 9 l-38 -6 32 46 c26 37 30 48 20 60 -11 13 -7 16
23 22 61 11 29 27 -40 19 -60 -6 -64 -5 -64 14 0 22 -27 41 -60 41 -17 0 -19
-3 -10 -19z"/>
  <path d="M280 548 c-14 -5 -53 -10 -87 -11 -35 0 -63 -3 -63 -6 0 -2 6 -12 14
-20 8 -9 20 -38 28 -66 13 -47 16 -50 45 -48 l30 3 7 -101 c4 -56 6 -103 4
-104 -2 -2 -17 -5 -33 -7 l-30 -3 -5 69 c-4 61 -8 70 -29 78 -23 8 -23 7 -17
-39 4 -27 10 -63 13 -80 5 -32 4 -33 -30 -33 -49 0 -54 -14 -12 -34 25 -12 40
-14 53 -7 10 5 61 21 113 36 106 30 141 51 67 40 l-48 -7 0 51 c0 50 1 51 29
51 35 0 53 19 19 21 -13 1 -29 1 -36 0 -9 -2 -12 9 -10 36 2 31 7 39 26 41 14
2 22 9 19 16 -3 7 3 32 14 56 10 23 19 48 19 55 0 25 -54 32 -100 13z m30 -45
c0 -45 -13 -63 -47 -69 -40 -7 -48 -1 -58 43 -6 29 -4 32 22 36 65 10 83 7 83
-10z"/>
</g>
<g id="part-1" class="char-part">
  <path d="M280 545 c-19 -8 -61 -14 -92 -14 -56 -1 -57 -2 -40 -19 11 -11 22
-37 25 -58 9 -52 22 -71 39 -57 11 8 46 13 121 16 11 1 15 7 12 15 -3 8 4 35
15 60 11 25 17 49 13 53 -16 15 -59 17 -93 4z m30 -54 c0 -44 -11 -55 -58 -64
-28 -6 -34 -3 -42 19 -18 46 -12 63 23 73 66 19 77 15 77 -28z"/>
</g>
<g id="part-2" class="char-part">
  <path d="M335 213 c-11 -2 -47 -11 -81 -19 -33 -7 -86 -14 -117 -14 -61 0 -70
-16 -21 -39 20 -9 45 -5 142 25 133 40 182 70 77 47z"/>
</g>
<g id="part-3" class="char-part">
  <path d="M539 566 l21 -33 -61 -7 c-46 -5 -59 -10 -51 -18 9 -9 43 -8 130 1
136 14 164 20 156 33 -4 6 -31 7 -70 3 -60 -6 -64 -5 -64 14 0 22 -27 41 -60
41 l-22 0 21 -34z"/>
</g>
<g id="part-4" class="char-part">
  <path d="M670 404 c-114 -17 -237 -18 -243 -1 -2 6 -13 -10 -25 -37 -12 -26
-19 -52 -16 -57 11 -18 25 -8 40 26 8 19 18 34 22 33 6 -2 239 19 290 26 24 4
31 -21 10 -42 -19 -19 -6 -22 42 -10 64 15 70 25 35 54 -33 27 -35 27 -155 8z"/>
</g>
<g id="part-5" class="char-part">
  <path d="M650 311 c-24 -8 -23 -8 10 -12 l34 -4 -3 -55 c-3 -56 -14 -74 -40
-64 -10 3 -9 -2 4 -16 41 -45 75 -13 70 65 -2 22 2 43 8 47 18 11 -6 43 -34
45 -13 1 -35 -2 -49 -6z m75 -11 c3 -6 -1 -7 -9 -4 -18 7 -21 14 -7 14 6 0 13
-4 16 -10z"/>
  <path d="M590 300 c-9 -6 -10 -10 -3 -10 6 0 15 5 18 10 8 12 4 12 -15 0z"/>
  <path d="M458 249 c-2 -28 1 -49 7 -49 6 0 5 -4 -2 -8 -7 -5 -9 -13 -4 -21 11
-17 22 13 23 61 0 18 5 38 10 44 5 8 2 13 -11 17 -17 4 -20 -2 -23 -44z"/>
</g>
</g>
</svg>