<?xml version="1.0" standalone="no"?>
<!DOCTYPE svg PUBLIC "-//W3C//DTD SVG 20010904//EN"
 "http://www.w3.org/TR/2001/REC-SVG-20010904/DTD/svg10.dtd">
<svg version="1.0" xmlns="http://www.w3.org/2000/svg"
 width="96.000000pt" height="68.000000pt" viewBox="0 0 96.000000 68.000000"
 preserveAspectRatio="xMidYMid meet">
<metadata>
Created by potrace 1.16, written by Peter Selinger 2001-2019
Combined from part_0.svg through part_5.svg with named groups
</metadata>
<g transform="translate(0.000000,68.000000) scale(0.100000,-0.100000)" fill="#000000" stroke="none">
<g id="part-0" class="char-part">
  <path d="M600 506 c0 -85 0 -86 -25 -86 -22 0 -25 5 -31 60 -6 55 -9 60 -30
60 -26 0 -26 0 -4 -88 8 -30 6 -34 -16 -43 -14 -5 -41 -9 -60 -9 -49 0 -42
-18 9 -22 32 -2 44 -8 52 -25 5 -13 13 -23 18 -23 4 0 5 -4 2 -10 -3 -5 -19
-10 -36 -10 -16 0 -29 -5 -29 -11 0 -6 18 -9 47 -8 32 2 48 -1 51 -10 6 -18
-16 -31 -55 -31 -18 0 -33 -4 -33 -10 0 -5 18 -10 39 -10 87 0 51 -44 -44 -55
-41 -4 -63 -10 -59 -17 4 -7 30 -8 71 -4 63 7 64 6 51 -13 -17 -24 -51 -51
-93 -75 l-30 -17 40 6 c51 8 79 27 113 74 23 34 33 39 77 45 28 3 80 6 118 6
37 0 67 4 67 9 0 16 -52 21 -135 12 -44 -4 -83 -7 -87 -5 -3 2 -4 13 -1 23 4
15 18 21 56 26 76 10 80 19 13 25 -69 6 -85 25 -29 34 79 14 93 18 93 28 0 7
-15 8 -40 4 -42 -7 -51 3 -24 25 8 7 13 21 11 30 -4 16 4 19 69 21 41 2 74 7
74 13 0 6 -34 9 -83 8 l-82 -2 3 75 c3 46 0 74 -6 74 -6 0 -17 3 -26 6 -14 5
-16 -6 -16 -80z m20 -128 c0 -33 -12 -47 -48 -57 -30 -9 -32 -8 -32 14 0 15
-9 29 -22 37 l-23 12 25 7 c14 4 42 7 63 8 32 1 37 -2 37 -21z"/>
  <path d="M702 500 c-26 -34 -16 -37 36 -13 48 22 49 22 32 33 -26 17 -46 11
-68 -20z"/>
  <path d="M309 501 c-14 -5 -55 -11 -92 -15 -99 -11 -97 -31 3 -38 34 -3 35 -4
38 -52 4 -55 -5 -66 -55 -66 -18 0 -33 -4 -33 -10 0 -5 20 -10 45 -10 l45 0 0
-60 0 -59 -38 -10 c-21 -6 -52 -14 -70 -17 -18 -4 -32 -10 -32 -13 0 -15 25
-31 47 -31 21 0 243 104 243 114 0 3 -15 0 -32 -6 -82 -25 -80 -27 -75 33 4
49 7 55 33 63 16 5 36 11 44 14 10 3 4 8 -15 13 -16 5 -36 7 -42 4 -10 -3 -13
11 -13 49 0 57 8 66 55 66 29 0 43 19 24 31 -17 10 -44 10 -80 0z"/>
  <path d="M420 474 c0 -10 33 -33 48 -34 10 0 10 5 2 20 -10 18 -50 29 -50 14z"/>
  <path d="M640 131 c0 -6 4 -11 9 -11 5 0 29 -18 53 -40 23 -22 51 -42 62 -46
24 -8 37 14 23 38 -21 32 -147 83 -147 59z"/>
</g>
<g id="part-1" class="char-part">
  <path d="M332 499 c-12 -5 -53 -11 -90 -15 -97 -10 -112 -23 -25 -24 77 0 173
16 173 30 0 12 -34 18 -58 9z"/>
</g>
<g id="part-2" class="char-part">
  <path d="M249 441 c6 -11 11 -38 11 -60 l0 -40 -50 -7 c-60 -8 -56 -24 6 -24
l44 0 0 -60 0 -59 -38 -10 c-21 -6 -52 -14 -70 -17 -35 -7 -39 -13 -20 -32 22
-22 57 -13 169 44 116 57 136 75 55 48 -26 -9 -50 -14 -53 -11 -3 3 -2 28 2
56 6 48 9 51 41 57 19 3 36 10 39 14 7 11 -51 24 -66 15 -7 -5 -10 9 -8 46 l3
54 -38 3 c-35 3 -37 2 -27 -17z"/>
</g>
<g id="part-3" class="char-part">
  <path d="M599 583 c0 -5 0 -43 1 -85 1 -76 1 -78 -23 -78 -26 0 -37 28 -37 91
0 25 -4 29 -26 29 -23 0 -25 -3 -20 -22 3 -13 9 -42 12 -64 l6 -42 -62 -7
c-52 -6 -60 -9 -45 -18 14 -7 43 -7 100 1 44 7 123 14 175 18 118 7 143 11
134 26 -5 7 -34 9 -91 5 l-84 -6 6 47 c3 26 8 57 11 70 3 17 -2 25 -21 32 -31
12 -35 12 -36 3z"/>
</g>
<g id="part-4" class="char-part">
  <path d="M697 495 c-15 -19 -26 -35 -24 -35 6 0 101 42 107 47 7 6 -22 23 -40
23 -8 0 -28 -16 -43 -35z"/>
  <path d="M430 461 c13 -26 43 -28 38 -3 -2 9 -14 18 -26 20 -21 3 -22 1 -12
-17z"/>
</g>
<g id="part-5" class="char-part">
  <path d="M680 111 c14 -12 40 -35 58 -52 19 -16 39 -26 44 -22 7 4 6 10 -4 17
-8 6 -13 16 -11 23 6 17 -34 37 -43 21 -5 -7 -3 -8 6 -3 9 5 11 4 6 -4 -10
-16 -26 -4 -19 14 3 9 -1 15 -10 15 -9 0 -24 3 -34 7 -13 4 -11 0 7 -16z m80
-31 c0 -5 -5 -10 -11 -10 -5 0 -7 5 -4 10 3 6 8 10 11 10 2 0 4 -4 4 -10z"/>
</g>
</g>
</svg>