<?xml version="1.0" standalone="no"?>
<!DOCTYPE svg PUBLIC "-//W3C//DTD SVG 20010904//EN"
 "http://www.w3.org/TR/2001/REC-SVG-20010904/DTD/svg10.dtd">
<svg version="1.0" xmlns="http://www.w3.org/2000/svg"
 width="96.000000pt" height="68.000000pt" viewBox="0 0 96.000000 68.000000"
 preserveAspectRatio="xMidYMid meet">
<metadata>
Created by potrace 1.16, written by Peter Selinger 2001-2019
Combined from part_0.svg through part_5.svg with named groups
</metadata>
<g transform="translate(0.000000,68.000000) scale(0.100000,-0.100000)" fill="#000000" stroke="none">
<g id="part-0" class="char-part">
  <path d="M615 590 c-16 -4 -54 -8 -82 -9 -64 -1 -72 -21 -9 -21 38 0 44 -3 48
-24 3 -16 0 -27 -9 -30 -25 -10 -143 -6 -143 4 0 22 -16 7 -33 -30 -28 -59 -1
-87 28 -30 12 24 22 30 48 30 17 0 49 4 70 9 41 10 39 12 41 -59 1 -33 5 -45
16 -45 11 0 16 14 18 58 3 57 3 57 35 58 18 1 48 3 67 5 52 5 63 -1 49 -27
-11 -21 -10 -22 32 -15 60 10 70 22 39 47 -22 17 -35 19 -100 14 -41 -3 -85
-8 -97 -11 -20 -6 -23 -3 -23 25 0 29 3 31 34 31 38 0 55 14 30 24 -17 7 -17
7 -59 -4z"/>
  <path d="M206 571 c-4 -5 -1 -32 5 -59 6 -28 9 -66 7 -84 -3 -31 -5 -33 -55
-42 -29 -5 -53 -12 -53 -17 0 -13 40 -21 76 -14 l34 6 0 -50 c0 -57 -4 -61
-87 -82 -29 -7 -53 -16 -53 -20 0 -12 42 -39 60 -39 8 0 65 29 127 65 119 69
153 79 153 45 0 -11 7 -23 15 -26 28 -11 15 -24 -25 -24 l-40 0 13 -33 c11
-25 19 -32 42 -32 16 0 30 -5 32 -11 4 -12 -23 -17 -146 -30 -98 -11 -49 -28
54 -19 l84 7 3 -38 c4 -46 28 -60 28 -16 0 51 9 61 61 68 58 8 55 27 -4 22
-26 -2 -42 1 -44 10 -3 8 7 12 30 12 27 0 37 5 42 20 3 11 11 20 16 20 5 0 9
7 9 15 0 16 -15 19 -67 16 -18 -2 -33 2 -33 8 0 6 7 11 16 11 8 0 20 14 25 30
8 22 17 30 35 30 13 0 24 5 24 10 0 6 -5 10 -11 10 -6 0 -17 7 -25 15 -22 21
-44 19 -44 -5 0 -16 -7 -20 -34 -20 -21 0 -36 6 -40 15 -3 8 -15 15 -26 15
-17 0 -19 -3 -11 -19 12 -21 5 -32 -15 -24 -8 3 -34 -4 -59 -16 -25 -12 -47
-21 -50 -21 -3 0 -5 20 -5 44 0 44 0 44 40 51 59 10 48 41 -14 37 l-29 -3 6
53 c4 29 9 63 12 74 6 18 1 24 -26 33 -39 13 -46 14 -53 2z m298 -275 c-9 -23
-52 -26 -57 -4 -4 15 1 18 29 18 24 0 32 -4 28 -14z m31 -87 c0 -8 -10 -15
-22 -17 -25 -4 -33 22 -10 31 18 8 32 2 32 -14z m-77 -6 c-4 -21 -36 -29 -51
-14 -9 9 -8 14 3 21 25 16 52 12 48 -7z"/>
  <path d="M670 475 c-17 -20 -8 -27 24 -19 29 7 34 19 10 28 -21 8 -20 8 -34
-9z"/>
  <path d="M484 455 c22 -17 56 -20 56 -6 0 11 -25 21 -53 21 -22 -1 -22 -1 -3
-15z"/>
  <path d="M655 421 c-7 -12 26 -31 54 -31 20 0 29 15 14 23 -21 11 -62 16 -68
8z"/>
  <path d="M483 403 c-26 -5 -30 -18 -8 -26 7 -3 24 3 37 13 23 20 18 22 -29 13z"/>
  <path d="M615 352 c-1 -2 0 -14 4 -28 3 -13 4 -62 1 -108 -5 -71 -11 -91 -35
-125 -15 -23 -26 -44 -23 -46 10 -10 79 76 85 105 5 29 8 30 60 30 l54 0 -3
-52 c-3 -52 -3 -53 -33 -50 l-30 3 32 -33 c33 -32 33 -32 52 -13 17 18 20 39
23 168 3 126 1 147 -12 149 -27 3 -171 3 -175 0z m143 -48 c3 -28 2 -29 -49
-32 -49 -3 -51 -2 -45 20 3 13 6 26 6 30 0 9 30 16 60 14 20 -2 26 -9 28 -32z
m2 -74 c0 -29 -1 -30 -50 -30 -46 0 -50 2 -50 24 0 21 5 25 38 29 20 2 43 4
50 5 7 1 12 -10 12 -28z"/>
</g>
<g id="part-1" class="char-part">
  <path d="M218 481 l4 -90 -51 -7 c-65 -8 -66 -24 -2 -24 l48 0 7 -46 c3 -25 3
-50 0 -55 -3 -5 -36 -18 -75 -30 -63 -19 -68 -23 -52 -35 10 -7 29 -14 42 -14
21 0 148 66 206 108 22 15 21 15 -52 -4 -21 -6 -23 -3 -23 39 0 43 1 45 36 54
45 10 44 28 -1 28 l-35 0 0 53 c0 29 5 62 10 72 8 15 6 21 -9 30 -11 5 -28 10
-38 10 -18 0 -19 -7 -15 -89z"/>
</g>
<g id="part-2" class="char-part">
  <path d="M605 589 c-22 -4 -59 -8 -82 -8 -25 -1 -43 -6 -43 -12 0 -12 171 -6
206 8 16 6 16 7 -2 14 -23 9 -28 9 -79 -2z"/>
</g>
<g id="part-3" class="char-part">
  <path d="M635 514 c-111 -15 -202 -17 -210 -4 -3 6 -10 10 -14 10 -8 0 -41
-70 -41 -88 0 -23 31 -12 47 16 16 29 18 29 180 47 91 9 167 15 170 11 3 -3
-1 -16 -10 -29 l-16 -24 47 9 c62 13 70 23 41 47 -28 23 -61 24 -194 5z"/>
</g>
<g id="part-4" class="char-part">
  <path d="M616 338 c10 -33 6 -171 -6 -203 -6 -16 -23 -45 -36 -62 -14 -18 -21
-33 -17 -33 18 0 67 56 85 97 19 42 20 43 68 43 l50 0 0 -56 0 -56 -32 7 -33
7 29 -31 c17 -17 35 -31 41 -31 24 0 34 51 36 185 2 159 0 164 -80 148 -25 -5
-61 -6 -79 -2 -29 6 -32 5 -26 -13z m142 -34 c3 -31 3 -31 -47 -33 -42 0 -51
2 -51 17 0 35 26 52 70 49 20 -2 26 -8 28 -33z m2 -74 c0 -27 -3 -30 -34 -30
-19 0 -41 -3 -50 -6 -12 -5 -16 1 -16 24 0 28 3 31 38 35 20 2 43 4 50 5 7 1
12 -10 12 -28z"/>
</g>
</g>
</svg>