<?xml version="1.0" standalone="no"?>
<!DOCTYPE svg PUBLIC "-//W3C//DTD SVG 20010904//EN"
 "http://www.w3.org/TR/2001/REC-SVG-20010904/DTD/svg10.dtd">
<svg version="1.0" xmlns="http://www.w3.org/2000/svg"
 width="96.000000pt" height="68.000000pt" viewBox="0 0 96.000000 68.000000"
 preserveAspectRatio="xMidYMid meet">
<metadata>
Created by potrace 1.16, written by Peter Selinger 2001-2019
Combined from part_0.svg through part_5.svg with named groups
</metadata>
<g transform="translate(0.000000,68.000000) scale(0.100000,-0.100000)" fill="#000000" stroke="none">
<g id="part-0" class="char-part">
  <path d="M540 592 c0 -18 33 -52 51 -52 26 0 24 25 -3 44 -24 17 -48 21 -48 8z"/>
  <path d="M194 538 c-3 -5 -1 -14 4 -21 6 -7 14 -40 17 -73 7 -58 6 -61 -16
-67 -13 -4 -34 -7 -46 -7 -13 0 -23 -4 -23 -9 0 -12 26 -21 61 -21 28 0 29 -1
29 -49 0 -55 -3 -59 -68 -75 -56 -15 -63 -30 -22 -51 30 -16 31 -15 135 46 58
33 105 65 105 70 0 12 0 12 -50 -6 -23 -8 -44 -15 -46 -15 -2 0 -4 20 -4 45 0
43 1 44 38 51 49 9 55 13 42 29 -6 8 -23 11 -40 9 -25 -4 -30 -1 -36 21 -4 15
-1 44 6 66 7 21 10 42 7 45 -11 12 -87 22 -93 12z"/>
  <path d="M540 515 c-85 -12 -157 -23 -159 -24 -2 0 2 -8 9 -16 9 -11 10 -39 5
-102 -4 -49 -9 -91 -12 -96 -2 -4 -7 -20 -9 -35 -3 -15 -16 -54 -30 -87 -14
-33 -28 -67 -31 -75 -3 -9 3 -6 15 6 25 26 66 105 82 162 11 35 17 42 39 42
14 0 50 3 79 6 43 6 52 4 52 -8 0 -18 -75 -33 -103 -22 -9 3 -17 2 -17 -4 0
-6 5 -12 10 -14 6 -2 16 -31 22 -65 10 -55 14 -62 32 -58 58 11 175 15 181 5
12 -19 35 -10 41 18 4 15 15 47 26 71 25 57 16 66 -70 66 -106 0 -85 19 35 31
99 9 106 11 79 23 -16 6 -41 9 -55 7 -33 -7 -287 -36 -313 -36 -18 0 -19 4
-14 48 4 26 8 62 10 80 2 19 6 35 8 38 9 8 163 31 180 26 12 -3 18 -14 18 -33
0 -27 -3 -29 -39 -29 -30 0 -40 4 -44 20 -3 11 -13 20 -22 20 -13 0 -16 -6
-11 -24 5 -21 2 -24 -37 -32 l-42 -8 35 -4 c44 -5 60 -18 60 -48 0 -13 5 -24
10 -24 6 0 10 5 10 10 0 6 28 10 63 10 34 0 57 4 50 8 -7 4 -11 16 -9 27 3 18
18 26 74 41 26 7 10 24 -23 24 -31 0 -35 3 -35 25 0 23 4 25 46 25 40 0 45 2
34 15 -16 19 -38 18 -230 -10z m103 -132 c-3 -7 -20 -13 -39 -13 -27 0 -34 4
-34 19 0 15 8 21 33 23 34 3 48 -7 40 -29z m77 -138 c0 -23 -3 -25 -50 -25
-43 0 -50 3 -50 19 0 15 8 21 33 24 67 8 67 8 67 -18z m-140 -15 c0 -16 -7
-20 -35 -20 -28 0 -35 4 -35 20 0 16 7 20 35 20 28 0 35 -4 35 -20z m130 -50
c-8 -15 -21 -20 -50 -20 -43 0 -43 0 -34 24 4 11 19 16 50 16 42 0 44 -1 34
-20z m-120 -10 c0 -16 -7 -20 -35 -20 -28 0 -35 4 -35 20 0 16 7 20 35 20 28
0 35 -4 35 -20z"/>
  <path d="M704 65 c49 -46 78 -54 84 -23 4 18 -50 50 -103 62 -29 6 -28 5 19
-39z"/>
  <path d="M497 58 c-21 -23 -36 -42 -35 -44 2 -1 23 8 48 22 25 13 53 27 63 30
25 9 16 29 -14 30 -16 1 -36 -11 -62 -38z"/>
</g>
<g id="part-1" class="char-part">
  <path d="M204 524 c5 -10 11 -49 13 -85 l5 -65 -48 -11 -49 -10 48 -2 47 -1 0
-60 0 -60 -61 -17 -61 -17 22 -18 c12 -10 29 -18 37 -18 18 0 205 111 199 118
-3 2 -19 -1 -37 -7 -47 -16 -49 -15 -49 38 l0 50 38 3 c20 2 37 8 37 13 0 6
-17 11 -37 13 -37 3 -38 4 -38 43 0 22 5 50 11 61 14 26 3 37 -46 45 -35 6
-38 4 -31 -13z"/>
</g>
<g id="part-2" class="char-part">
  <path d="M536 588 c27 -48 74 -66 74 -29 0 12 -11 23 -31 30 -41 14 -52 14
-43 -1z"/>
  <path d="M537 517 c-134 -18 -156 -24 -150 -37 5 -8 7 -52 6 -96 -2 -89 -30
-202 -68 -271 l-23 -42 22 14 c50 33 91 137 112 284 8 58 17 107 19 110 7 7
108 19 223 27 97 6 122 14 86 28 -22 8 -46 6 -227 -17z"/>
</g>
<g id="part-3" class="char-part">
  <path d="M650 476 c0 -35 -1 -36 -39 -36 -30 0 -40 4 -44 20 -3 12 -14 20 -26
20 -19 0 -20 -3 -11 -21 14 -25 16 -23 -40 -36 l-45 -11 46 -1 c45 -1 47 -2
53 -36 7 -35 19 -44 31 -25 3 6 27 10 53 10 43 0 47 2 48 26 2 32 6 35 44 43
41 8 43 25 3 29 -24 2 -33 9 -35 25 -2 12 -11 23 -20 25 -15 3 -18 -4 -18 -32z
m-5 -65 c8 -15 -24 -41 -51 -41 -36 0 -33 37 4 43 15 2 30 5 34 6 4 0 9 -3 13
-8z"/>
</g>
<g id="part-4" class="char-part">
  <path d="M705 65 c50 -46 69 -53 80 -35 10 16 -15 41 -63 61 -67 29 -72 22
-17 -26z"/>
  <path d="M516 74 c-10 -14 -32 -34 -50 -45 -48 -30 -19 -22 56 14 69 33 81 50
37 54 -16 2 -30 -5 -43 -23z"/>
</g>
</g>
</svg>