<?xml version="1.0" standalone="no"?>
<!DOCTYPE svg PUBLIC "-//W3C//DTD SVG 20010904//EN"
 "http://www.w3.org/TR/2001/REC-SVG-20010904/DTD/svg10.dtd">
<svg version="1.0" xmlns="http://www.w3.org/2000/svg"
 width="96.000000pt" height="68.000000pt" viewBox="0 0 96.000000 68.000000"
 preserveAspectRatio="xMidYMid meet">
<metadata>
Created by potrace 1.16, written by Peter Selinger 2001-2019
Combined from part_0.svg through part_5.svg with named groups
</metadata>
<g transform="translate(0.000000,68.000000) scale(0.100000,-0.100000)" fill="#000000" stroke="none">
<g id="part-0" class="char-part">
  <path d="M327 506 l6 -106 -33 0 -33 0 7 60 7 60 -30 0 c-29 0 -30 -1 -23 -37
3 -21 6 -51 7 -68 0 -28 -3 -30 -42 -33 -24 -2 -43 -7 -43 -12 0 -22 55 -22
126 0 41 12 80 23 87 25 7 1 27 6 44 10 18 4 38 14 45 23 11 13 10 14 -10 8
-66 -19 -62 -20 -62 18 0 31 3 36 24 36 37 0 86 12 86 21 0 15 -39 20 -75 10
l-35 -9 0 44 c0 31 -4 44 -14 44 -8 0 -21 3 -30 6 -13 5 -14 -8 -9 -100z"/>
  <path d="M520 515 c8 -129 17 -139 139 -143 67 -3 96 0 120 12 17 9 31 19 31
22 0 9 -30 64 -35 64 -2 0 -11 -13 -20 -30 -15 -29 -17 -30 -95 -30 -88 0
-110 12 -110 60 0 31 -8 28 118 51 65 12 72 18 46 40 -13 10 -25 7 -79 -20
-35 -18 -68 -30 -74 -27 -5 4 -7 22 -4 42 4 25 2 39 -8 45 -31 19 -34 9 -29
-86z"/>
  <path d="M394 371 c-9 -16 -35 -39 -56 -51 -21 -12 -36 -26 -33 -31 4 -5 29
-9 57 -9 50 0 51 0 33 -20 -10 -11 -37 -29 -61 -41 -78 -37 -48 -59 48 -35 75
19 79 15 76 -69 l-3 -60 -32 0 c-18 0 -33 -1 -33 -3 0 -10 58 -51 72 -52 25 0
41 62 36 143 l-3 67 43 6 c27 4 48 2 55 -5 17 -17 37 -13 37 9 0 20 -45 50
-76 50 -13 0 -14 -3 -5 -14 9 -11 3 -16 -32 -24 -58 -15 -157 -26 -157 -18 0
3 45 28 100 56 55 28 100 53 100 56 0 3 -7 12 -16 21 -14 14 -19 12 -53 -21
-37 -36 -55 -41 -98 -30 -32 9 -29 15 22 48 37 23 43 31 34 42 -18 22 -36 17
-55 -15z"/>
  <path d="M612 115 c54 -53 80 -66 93 -45 14 22 -9 50 -60 75 -87 41 -96 32
-33 -30z"/>
  <path d="M272 94 c-46 -46 -42 -55 11 -28 42 22 67 44 67 61 0 26 -36 11 -78
-33z"/>
</g>
<g id="part-1" class="char-part">
  <path d="M324 563 c3 -21 8 -64 11 -95 5 -44 10 -56 21 -51 8 3 14 19 14 38 0
32 1 33 55 40 30 3 55 11 55 17 0 7 -19 9 -56 4 l-56 -6 4 42 c3 40 1 43 -25
46 -26 3 -27 2 -23 -35z"/>
</g>
<g id="part-2" class="char-part">
  <path d="M517 523 c5 -87 8 -101 29 -123 23 -24 31 -25 129 -25 82 0 108 3
120 16 15 15 15 19 -1 52 l-17 36 -21 -32 c-21 -31 -25 -32 -98 -35 -86 -3
-108 9 -108 59 0 16 2 29 4 29 14 0 172 33 179 37 5 3 -1 12 -13 20 -20 14
-27 13 -86 -17 -35 -18 -67 -30 -71 -26 -4 4 -6 24 -4 46 2 30 -2 41 -18 49
-11 6 -22 11 -24 11 -2 0 -2 -44 0 -97z"/>
</g>
<g id="part-3" class="char-part">
  <path d="M386 364 c-15 -20 -41 -40 -57 -46 -16 -5 -29 -16 -29 -24 0 -11 16
-14 68 -13 59 1 63 2 35 10 -18 5 -33 11 -33 14 0 2 20 18 46 35 36 26 43 34
33 46 -18 22 -32 17 -63 -22z"/>
</g>
<g id="part-4" class="char-part">
  <path d="M499 334 c-26 -28 -136 -101 -182 -122 -33 -14 -31 -37 4 -36 13 0
75 11 137 25 92 19 116 21 132 11 28 -17 40 -15 40 7 0 23 -16 37 -53 46 -24
6 -28 5 -25 -10 3 -16 -11 -21 -95 -35 -54 -9 -100 -14 -102 -10 -2 3 43 29
101 58 94 48 103 55 94 73 -14 25 -22 24 -51 -7z"/>
</g>
<g id="part-5" class="char-part">
  <path d="M464 138 c3 -70 -6 -100 -29 -92 -22 9 -18 -10 7 -32 17 -16 20 -16
15 -3 -4 11 0 16 11 15 14 -1 17 10 18 54 1 30 5 63 9 73 7 17 -9 47 -26 47
-4 0 -7 -28 -5 -62z"/>
  <path d="M580 160 c0 -9 90 -90 104 -93 5 -1 11 8 12 20 3 17 -4 27 -26 38
-16 8 -36 15 -45 15 -9 0 -14 4 -11 9 3 5 -3 11 -14 14 -11 3 -20 1 -20 -3z
m75 -40 c3 -6 -1 -7 -9 -4 -18 7 -21 14 -7 14 6 0 13 -4 16 -10z"/>
  <path d="M310 125 c-7 -8 -9 -15 -4 -15 4 0 -1 -6 -12 -14 -10 -8 -16 -17 -13
-21 9 -9 70 45 63 56 -8 13 -20 11 -34 -6z"/>
</g>
</g>
</svg>