<?xml version="1.0" standalone="no"?>
<!DOCTYPE svg PUBLIC "-//W3C//DTD SVG 20010904//EN"
 "http://www.w3.org/TR/2001/REC-SVG-20010904/DTD/svg10.dtd">
<svg version="1.0" xmlns="http://www.w3.org/2000/svg"
 width="96.000000pt" height="68.000000pt" viewBox="0 0 96.000000 68.000000"
 preserveAspectRatio="xMidYMid meet">
<metadata>
Created by potrace 1.16, written by Peter Selinger 2001-2019
Combined from part_0.svg through part_5.svg with named groups
</metadata>
<g transform="translate(0.000000,68.000000) scale(0.100000,-0.100000)" fill="#000000" stroke="none">
<g id="part-0" class="char-part">
  <path d="M217 506 c6 -83 8 -81 -70 -88 -47 -5 -25 -23 26 -22 l47 2 0 -55 0
-54 -70 -31 c-73 -32 -80 -44 -40 -65 21 -10 29 -8 64 18 24 17 42 25 44 19 2
-6 1 -36 -3 -67 l-7 -55 -34 6 c-19 4 -34 4 -34 1 0 -14 76 -75 90 -73 27 5
40 51 40 145 0 91 0 93 30 115 37 27 39 41 4 28 -14 -6 -27 -10 -30 -10 -2 0
-4 20 -4 45 0 49 2 51 60 33 27 -9 41 -20 45 -35 5 -23 25 -33 25 -13 0 6 7
10 15 10 17 0 21 -25 5 -35 -5 -3 -25 -6 -45 -7 -19 -1 -35 -2 -35 -3 0 -2 7
-19 15 -39 13 -30 20 -36 35 -31 16 5 20 2 20 -19 0 -30 -7 -35 -59 -40 -23
-2 -44 -6 -48 -10 -6 -6 4 -8 57 -10 18 -1 24 -6 22 -18 -2 -12 6 -20 23 -24
14 -3 25 -10 25 -15 0 -7 -41 -29 -80 -42 -8 -3 -3 -6 12 -6 15 -1 44 8 64 19
39 23 61 20 106 -13 15 -11 31 -18 34 -14 13 12 -6 37 -40 54 -35 16 -35 16
-19 44 13 22 26 29 66 34 50 7 49 25 -2 25 -14 0 -33 8 -43 17 -18 16 -19 16
-25 -5 -3 -15 -13 -22 -29 -22 -20 0 -24 5 -24 29 0 17 5 29 13 28 49 -2 87 5
87 15 0 6 8 20 17 30 15 17 15 21 3 29 -8 5 -34 8 -57 7 -29 -2 -43 1 -43 9 0
8 13 13 33 13 26 0 36 6 50 30 14 23 25 30 48 30 18 0 28 4 24 10 -3 6 -15 10
-26 10 -10 0 -19 7 -19 15 0 23 -33 35 -74 25 l-38 -8 6 43 c7 45 -1 55 -45
55 -16 0 -18 -3 -9 -19 5 -11 10 -45 10 -75 0 -53 -1 -56 -25 -56 -16 0 -25 6
-25 15 0 8 9 15 20 15 11 0 20 5 20 11 0 6 -7 8 -16 5 -9 -3 -27 -6 -42 -6
-20 0 -23 -3 -14 -12 19 -19 14 -38 -10 -38 -19 0 -20 2 -8 10 13 9 13 11 0
20 -8 6 -26 9 -38 6 -21 -3 -23 -1 -18 23 19 84 19 86 -8 99 -53 24 -56 19
-49 -62z m311 -58 c-7 -20 -58 -23 -58 -4 0 11 10 16 31 16 20 0 29 -4 27 -12z
m-10 -50 c-7 -20 -48 -23 -48 -4 0 11 9 16 26 16 16 0 24 -5 22 -12z m-88 -13
c0 -8 -7 -15 -15 -15 -8 0 -15 7 -15 15 0 8 7 15 15 15 8 0 15 -7 15 -15z
m100 -72 c0 -16 -16 -30 -37 -35 -19 -5 -23 -2 -23 18 0 20 5 24 30 24 17 0
30 -3 30 -7z m-100 -22 c0 -26 -37 -34 -50 -11 -11 21 -4 30 27 30 16 0 23 -6
23 -19z m60 -118 c-1 -18 -29 -43 -48 -43 -27 0 -37 17 -22 35 13 15 70 21 70
8z"/>
  <path d="M679 548 c0 -1 -3 -16 -5 -31 -6 -36 -41 -125 -60 -155 -16 -25 -11
-43 6 -26 6 6 26 8 46 6 l37 -4 -6 -54 c-9 -84 -18 -93 -50 -45 -15 23 -35 41
-44 41 -14 0 -14 -3 4 -22 11 -13 28 -38 38 -57 16 -32 16 -34 -6 -57 -12 -13
-28 -24 -35 -24 -7 0 -16 -5 -20 -11 -7 -13 24 -5 67 15 24 12 28 10 58 -26
29 -34 37 -38 81 -38 27 0 51 4 54 9 3 5 -22 23 -57 42 -82 43 -87 51 -69 103
7 22 16 65 19 94 6 55 4 53 68 65 19 4 19 4 1 12 -17 7 -76 -1 -143 -21 -19
-5 -18 1 19 72 30 56 38 81 31 93 -9 14 -32 27 -34 19z"/>
</g>
<g id="part-1" class="char-part">
  <path d="M214 554 c3 -9 9 -40 12 -69 7 -53 6 -54 -22 -61 -87 -19 -91 -22
-31 -23 l58 -1 -3 -57 -3 -58 -72 -30 c-40 -16 -73 -33 -73 -38 0 -4 11 -13
25 -19 22 -10 31 -8 70 20 l45 32 0 -63 c0 -79 -9 -95 -44 -79 -35 16 -33 2 7
-36 60 -59 77 -36 77 106 l0 99 35 24 c42 29 46 45 5 24 -16 -8 -31 -15 -35
-15 -3 0 -5 22 -5 50 0 48 1 49 35 56 45 8 45 24 0 24 -34 0 -35 1 -29 28 4
15 11 38 16 52 11 29 -10 50 -50 50 -18 0 -23 -4 -18 -16z"/>
</g>
<g id="part-2" class="char-part">
  <path d="M416 573 c-2 -3 -1 -16 5 -30 5 -13 9 -35 9 -49 0 -17 5 -24 20 -24
14 0 20 7 20 21 0 11 4 29 10 39 7 12 6 21 -3 28 -15 12 -54 21 -61 15z"/>
</g>
<g id="part-3" class="char-part">
  <path d="M408 223 c-3 -25 -8 -28 -63 -38 -52 -9 -57 -12 -33 -18 16 -4 39 -5
52 -1 21 5 24 3 19 -15 -4 -15 1 -22 21 -27 37 -9 32 -19 -21 -42 -43 -19 -45
-21 -19 -22 15 0 45 10 66 21 l38 22 46 -27 c32 -18 47 -23 52 -14 7 11 -12
30 -51 53 -26 16 -1 65 34 65 38 0 72 11 65 21 -3 5 -20 9 -38 9 -19 0 -39 7
-46 15 -17 21 -30 19 -30 -5 0 -16 -7 -20 -30 -20 -27 0 -29 2 -21 19 12 21 5
31 -20 31 -12 0 -19 -9 -21 -27z m70 -65 c-17 -26 -36 -32 -57 -19 -22 14 5
41 41 41 29 0 30 -1 16 -22z"/>
</g>
<g id="part-4" class="char-part">
  <path d="M713 353 c-8 -3 -13 -23 -13 -51 -1 -26 -6 -60 -13 -76 l-13 -29 -27
42 c-15 22 -35 41 -44 41 -14 0 -14 -3 4 -23 11 -12 28 -37 37 -55 20 -38 13
-52 -39 -84 -39 -23 -10 -24 35 0 l34 19 36 -39 c29 -30 44 -38 73 -38 69 0
72 10 15 43 -29 16 -63 38 -74 49 l-22 19 19 60 c28 90 25 134 -8 122z"/>
</g>
</g>
</svg>