<?xml version="1.0" standalone="no"?>
<!DOCTYPE svg PUBLIC "-//W3C//DTD SVG 20010904//EN"
 "http://www.w3.org/TR/2001/REC-SVG-20010904/DTD/svg10.dtd">
<svg version="1.0" xmlns="http://www.w3.org/2000/svg"
 width="96.000000pt" height="68.000000pt" viewBox="0 0 96.000000 68.000000"
 preserveAspectRatio="xMidYMid meet">
<metadata>
Created by potrace 1.16, written by Peter Selinger 2001-2019
Combined from part_0.svg through part_5.svg with named groups
</metadata>
<g transform="translate(0.000000,68.000000) scale(0.100000,-0.100000)" fill="#000000" stroke="none">
<g id="part-0" class="char-part">
  <path d="M376 597 c-26 -37 -33 -42 -59 -39 -26 4 -29 2 -22 -14 6 -14 32
-134 35 -163 0 -2 6 1 13 6 21 17 191 25 212 10 15 -12 3 -15 -86 -28 -57 -7
-128 -14 -156 -14 -58 0 -60 -1 -39 -24 8 -9 20 -38 28 -66 10 -34 19 -49 29
-46 33 10 208 22 250 17 l46 -5 26 64 c28 73 25 82 -38 92 -28 4 -35 9 -30 22
8 19 35 130 38 151 4 30 -58 38 -146 19 -86 -19 -103 -18 -66 2 53 28 61 59
16 59 -15 0 -32 -14 -51 -43z m184 -46 c0 -17 -10 -21 -67 -27 -102 -11 -156
-10 -160 3 -3 7 22 15 69 23 40 6 80 13 88 15 47 9 70 4 70 -14z m-10 -55 c0
-19 -186 -44 -202 -28 -17 17 -7 22 63 31 103 14 139 13 139 -3z m0 -50 c0
-14 -67 -26 -152 -26 -54 0 -65 16 -15 24 103 18 167 18 167 2z m60 -106 c0
-17 -7 -20 -42 -20 -24 0 -53 -3 -65 -6 -18 -5 -23 -2 -23 14 0 21 17 26 98
30 26 2 32 -2 32 -18z m-170 -20 c0 -18 -7 -20 -60 -20 -53 0 -60 2 -60 20 0
18 7 20 60 20 53 0 60 -2 60 -20z m160 -40 c0 -18 -7 -20 -60 -20 -46 0 -60 3
-60 14 0 10 14 16 43 19 23 2 50 4 60 5 11 1 17 -5 17 -18z m-160 -14 c0 -16
-29 -23 -77 -17 -20 2 -33 9 -33 17 0 10 15 14 55 14 41 0 55 -4 55 -14z"/>
  <path d="M699 216 c-5 -5 -100 -12 -329 -26 -96 -6 -191 -13 -210 -16 -30 -5
-32 -7 -16 -16 12 -7 51 -8 101 -5 46 3 85 4 88 1 10 -11 -13 -69 -43 -106
-17 -21 -27 -38 -23 -38 32 2 101 74 122 128 13 31 15 32 77 32 l63 0 3 -82
c2 -50 7 -83 15 -85 12 -4 19 21 28 115 l7 62 113 0 c63 0 116 4 119 9 11 17
-98 42 -115 27z"/>
</g>
<g id="part-1" class="char-part">
  <path d="M400 629 c0 -6 -9 -22 -20 -36 -29 -37 -19 -38 35 -4 43 27 45 30 26
40 -25 14 -41 14 -41 0z"/>
</g>
<g id="part-2" class="char-part">
  <path d="M548 440 c-5 -14 -198 -26 -198 -11 0 6 -7 11 -15 11 -17 0 -20 -27
-6 -49 7 -11 13 -12 23 -4 7 6 36 11 63 11 28 1 67 4 88 8 21 3 43 1 50 -4 16
-14 32 -3 41 26 6 19 4 22 -17 22 -14 0 -27 -4 -29 -10z"/>
</g>
<g id="part-3" class="char-part">
  <path d="M495 375 c-44 -8 -115 -16 -157 -17 -80 -3 -89 -7 -64 -27 8 -7 17
-28 21 -49 12 -62 20 -72 57 -61 18 4 86 10 151 12 65 3 122 8 126 13 4 5 17
32 29 61 17 44 18 54 7 63 -22 19 -84 20 -170 5z m112 -30 c7 -21 7 -21 -64
-28 -58 -6 -63 -5 -63 13 0 14 9 20 33 23 69 8 88 7 94 -8z m-169 -22 c-2 -14
-15 -19 -61 -21 -52 -3 -57 -1 -57 18 0 18 6 20 61 20 52 0 60 -2 57 -17z
m160 -40 c-4 -24 -118 -33 -118 -9 0 10 13 16 38 19 81 8 84 8 80 -10z m-158
-18 c0 -12 -13 -15 -55 -15 -42 0 -55 3 -55 15 0 12 13 15 55 15 42 0 55 -3
55 -15z"/>
</g>
<g id="part-4" class="char-part">
  <path d="M705 215 c-5 -2 -113 -11 -240 -19 -126 -9 -255 -19 -285 -22 -49 -6
-52 -8 -32 -17 17 -8 58 -7 145 2 67 7 211 15 320 18 108 3 197 10 197 15 0
18 -73 34 -105 23z"/>
</g>
<g id="part-5" class="char-part">
  <path d="M535 161 c-3 -5 -1 -36 3 -70 5 -33 5 -58 0 -55 -14 9 -9 -13 7 -26
13 -11 15 -5 17 41 0 30 1 60 1 67 -1 6 3 12 8 12 13 0 -1 28 -16 34 -8 3 -17
1 -20 -3z"/>
</g>
</g>
</svg>