<?xml version="1.0" standalone="no"?>
<!DOCTYPE svg PUBLIC "-//W3C//DTD SVG 20010904//EN"
 "http://www.w3.org/TR/2001/REC-SVG-20010904/DTD/svg10.dtd">
<svg version="1.0" xmlns="http://www.w3.org/2000/svg"
 width="96.000000pt" height="68.000000pt" viewBox="0 0 96.000000 68.000000"
 preserveAspectRatio="xMidYMid meet">
<metadata>
Created by potrace 1.16, written by Peter Selinger 2001-2019
Combined from part_0.svg through part_5.svg with named groups
</metadata>
<g transform="translate(0.000000,68.000000) scale(0.100000,-0.100000)" fill="#000000" stroke="none">
<g id="part-0" class="char-part">
  <path d="M496 556 c-19 -36 -85 -79 -107 -71 -11 4 -14 -18 -14 -115 -1 -87 2
-121 12 -124 12 -5 138 92 130 100 -2 2 -21 -5 -42 -16 -21 -11 -42 -17 -47
-14 -5 3 -8 37 -7 76 2 77 8 84 112 138 52 27 56 34 28 50 -32 17 -45 12 -65
-24z"/>
  <path d="M166 551 c-9 -14 76 -82 99 -79 29 4 32 43 3 61 -30 19 -95 30 -102
18z"/>
  <path d="M660 484 c-30 -8 -68 -12 -83 -9 l-28 5 3 -170 3 -170 -25 0 c-14 0
-77 12 -141 27 l-117 28 5 31 c4 25 0 35 -25 56 l-30 25 39 39 c36 35 38 39
22 56 -17 18 -68 25 -77 9 -3 -4 -26 -14 -51 -21 -61 -17 -58 -34 5 -28 53 5
56 3 39 -36 -10 -20 -8 -28 10 -47 24 -26 36 -62 26 -78 -3 -6 -35 -11 -71
-11 -49 0 -64 -3 -64 -15 0 -27 33 -35 102 -23 65 11 66 10 233 -46 191 -64
224 -67 327 -31 112 39 110 41 -47 50 -139 8 -152 10 -137 28 6 7 14 77 18
155 l7 142 41 11 c59 16 72 4 68 -62 -4 -65 -20 -86 -51 -70 -28 16 -27 0 4
-33 20 -22 28 -25 44 -16 28 14 30 19 45 107 14 76 13 78 -8 95 -11 10 -23 17
-26 17 -3 -1 -30 -8 -60 -15z"/>
</g>
<g id="part-1" class="char-part">
  <path d="M199 516 c35 -36 73 -47 87 -25 11 19 -31 50 -77 56 l-44 6 34 -37z"/>
  <path d="M176 395 c-65 -24 -62 -41 5 -30 l40 7 -14 -34 c-14 -32 -13 -35 14
-68 16 -19 29 -45 29 -57 0 -22 -4 -23 -75 -23 -74 0 -86 -5 -63 -28 8 -8 36
-10 92 -6 79 6 85 5 250 -51 139 -46 177 -56 210 -51 53 8 166 47 166 58 0 4
-39 8 -87 9 -133 1 -236 13 -365 44 -106 25 -116 29 -108 46 16 28 12 39 -21
70 l-31 29 36 36 c20 20 36 40 36 45 0 8 -47 32 -53 28 -1 -1 -29 -11 -61 -24z"/>
</g>
<g id="part-2" class="char-part">
  <path d="M500 566 c-5 -13 -25 -37 -44 -52 -42 -34 -38 -50 7 -25 141 79 133
72 106 87 -36 20 -58 17 -69 -10z"/>
</g>
<g id="part-3" class="char-part">
  <path d="M375 368 c0 -80 4 -123 11 -125 10 -3 134 92 134 103 0 2 -15 -4 -34
-13 -58 -27 -69 -15 -64 72 4 58 2 75 -9 80 -36 13 -38 6 -38 -117z"/>
</g>
<g id="part-4" class="char-part">
  <path d="M550 334 c0 -147 5 -194 20 -194 14 0 20 42 26 188 5 98 4 142 -4
142 -6 0 -17 3 -26 6 -14 5 -16 -11 -16 -142z"/>
</g>
</g>
</svg>