<?xml version="1.0" standalone="no"?>
<!DOCTYPE svg PUBLIC "-//W3C//DTD SVG 20010904//EN"
 "http://www.w3.org/TR/2001/REC-SVG-20010904/DTD/svg10.dtd">
<svg version="1.0" xmlns="http://www.w3.org/2000/svg"
 width="96.000000pt" height="68.000000pt" viewBox="0 0 96.000000 68.000000"
 preserveAspectRatio="xMidYMid meet">
<metadata>
Created by potrace 1.16, written by Peter Selinger 2001-2019
Combined from part_0.svg through part_5.svg with named groups
</metadata>
<g transform="translate(0.000000,68.000000) scale(0.100000,-0.100000)" fill="#000000" stroke="none">
<g id="part-0" class="char-part">
  <path d="M564 533 c4 -16 9 -108 13 -205 l6 -177 -26 -6 c-14 -4 -36 -5 -48
-3 -23 3 -24 7 -29 112 -5 109 -5 110 -32 117 -15 4 -28 5 -31 3 -2 -2 2 -48
9 -101 21 -154 25 -143 -51 -143 -63 0 -85 -12 -46 -25 11 -3 91 -1 178 4 87
6 197 11 245 11 68 0 88 3 88 14 0 20 -52 27 -142 20 l-78 -7 0 74 c0 41 4 79
8 85 4 6 39 14 77 18 39 4 74 11 79 16 17 17 -26 23 -87 12 -33 -6 -63 -10
-67 -7 -7 4 5 141 15 167 5 12 -2 21 -24 32 -47 25 -65 21 -57 -11z"/>
  <path d="M214 523 c3 -16 9 -55 12 -89 l7 -61 -52 -7 c-65 -9 -64 -30 2 -34
l47 -3 0 -59 0 -58 -70 -18 c-65 -17 -68 -19 -53 -36 31 -34 50 -31 165 28
132 68 123 62 114 71 -5 6 -27 0 -93 -24 -10 -4 -13 10 -13 51 l0 55 50 7 c32
4 50 11 50 20 0 17 -41 28 -71 19 -22 -7 -22 -6 -16 68 5 72 4 75 -19 86 -14
6 -34 11 -46 11 -17 0 -19 -4 -14 -27z"/>
</g>
<g id="part-1" class="char-part">
  <path d="M216 523 c4 -10 10 -51 12 -90 l4 -73 -46 0 c-24 0 -48 -4 -51 -10
-4 -6 13 -10 43 -10 57 0 62 -6 62 -79 l0 -47 -53 -17 c-30 -9 -62 -17 -71
-17 -26 0 -14 -24 18 -35 23 -8 40 -3 104 30 42 21 91 47 107 58 28 18 28 18
5 13 -14 -3 -35 -9 -47 -12 -22 -6 -23 -4 -23 50 0 61 0 60 63 71 50 8 38 25
-19 25 l-44 0 0 44 c0 25 4 56 10 70 8 21 6 27 -10 36 -10 5 -31 10 -45 10
-22 0 -26 -3 -19 -17z"/>
</g>
<g id="part-2" class="char-part">
  <path d="M557 554 c-3 -4 -1 -16 5 -28 7 -13 14 -92 16 -198 4 -166 6 -178 23
-178 17 0 19 8 19 73 0 39 4 77 8 83 4 6 42 15 85 19 42 3 77 11 77 15 0 17
-40 21 -97 11 -31 -6 -58 -11 -60 -11 -8 0 -2 119 7 150 9 31 8 37 -11 53 -21
17 -60 23 -72 11z"/>
</g>
<g id="part-3" class="char-part">
  <path d="M415 351 c7 -32 24 -170 25 -194 0 -13 6 -17 20 -15 12 2 21 6 20 11
0 4 0 54 0 111 l0 104 -35 4 c-34 4 -35 3 -30 -21z"/>
</g>
<g id="part-4" class="char-part">
  <path d="M575 144 c-82 -7 -176 -13 -207 -13 -32 -1 -58 -5 -58 -11 0 -17 65
-21 200 -11 74 6 179 11 233 11 95 0 117 8 78 30 -23 12 -51 11 -246 -6z"/>
</g>
</g>
</svg>