<?xml version="1.0" standalone="no"?>
<!DOCTYPE svg PUBLIC "-//W3C//DTD SVG 20010904//EN"
 "http://www.w3.org/TR/2001/REC-SVG-20010904/DTD/svg10.dtd">
<svg version="1.0" xmlns="http://www.w3.org/2000/svg"
 width="96.000000pt" height="68.000000pt" viewBox="0 0 96.000000 68.000000"
 preserveAspectRatio="xMidYMid meet">
<metadata>
Created by potrace 1.16, written by Peter Selinger 2001-2019
Combined from part_0.svg through part_5.svg with named groups
</metadata>
<g transform="translate(0.000000,68.000000) scale(0.100000,-0.100000)" fill="#000000" stroke="none">
<g id="part-0" class="char-part">
  <path d="M545 539 c-57 -10 -141 -18 -195 -17 -62 0 -95 -3 -98 -11 -2 -6 1
-11 7 -11 15 0 32 -36 52 -114 21 -80 29 -92 55 -77 11 6 81 15 157 20 135 8
164 15 139 30 -16 10 1 63 35 109 14 18 22 39 20 46 -4 11 -67 50 -71 45 -1
-1 -46 -10 -101 -20z m60 -39 c9 -15 -14 -107 -30 -120 -8 -6 -56 -14 -108
-17 l-94 -6 -13 51 c-6 28 -10 57 -8 64 3 8 40 17 104 24 137 15 142 15 149 4z"/>
  <path d="M329 233 c-9 -25 -109 -114 -141 -126 -7 -2 -10 -8 -6 -12 13 -14
238 114 238 135 0 13 -34 30 -60 30 -14 0 -24 -9 -31 -27z"/>
  <path d="M570 257 c0 -7 127 -134 150 -149 32 -23 46 -23 53 1 7 27 -35 85
-75 104 -80 37 -128 54 -128 44z"/>
</g>
<g id="part-1" class="char-part">
  <path d="M505 529 c-68 -13 -123 -18 -172 -14 -40 2 -73 2 -73 -1 0 -2 9 -14
19 -25 11 -12 25 -50 32 -86 18 -88 24 -94 79 -83 25 5 98 12 162 15 109 6
116 8 106 25 -13 21 11 92 43 126 19 20 19 21 0 38 -28 25 -82 27 -196 5z
m105 -46 c0 -52 -20 -104 -43 -112 -13 -5 -63 -10 -112 -12 l-89 -4 -13 60
c-6 33 -12 63 -13 66 0 7 147 25 223 28 45 1 47 0 47 -26z"/>
</g>
<g id="part-2" class="char-part">
  <path d="M330 238 c-14 -35 -30 -51 -100 -101 -67 -49 -60 -63 13 -26 63 32
177 109 177 120 0 10 -42 29 -66 29 -8 0 -19 -10 -24 -22z"/>
  <path d="M645 175 c92 -89 125 -105 125 -60 0 42 -30 75 -101 111 -118 59
-125 46 -24 -51z"/>
</g>
</g>
</svg>