<?xml version="1.0" standalone="no"?>
<!DOCTYPE svg PUBLIC "-//W3C//DTD SVG 20010904//EN"
 "http://www.w3.org/TR/2001/REC-SVG-20010904/DTD/svg10.dtd">
<svg version="1.0" xmlns="http://www.w3.org/2000/svg"
 width="96.000000pt" height="68.000000pt" viewBox="0 0 96.000000 68.000000"
 preserveAspectRatio="xMidYMid meet">
<metadata>
Created by potrace 1.16, written by Peter Selinger 2001-2019
Combined from part_0.svg through part_5.svg with named groups
</metadata>
<g transform="translate(0.000000,68.000000) scale(0.100000,-0.100000)" fill="#000000" stroke="none">
<g id="part-0" class="char-part">
  <path d="M548 573 c-3 -32 -7 -38 -28 -41 -14 -1 -36 -5 -49 -8 -32 -7 -14
-25 27 -26 28 -1 29 -3 19 -25 -16 -37 0 -39 36 -5 27 26 42 32 100 38 37 4
70 10 72 15 9 14 -18 23 -67 22 -46 -1 -48 0 -42 24 7 28 -7 43 -43 43 -18 0
-22 -6 -25 -37z"/>
  <path d="M278 594 c-4 -3 0 -20 7 -39 8 -18 11 -35 8 -39 -4 -3 -30 -6 -60 -6
-40 0 -53 -4 -53 -15 0 -32 51 -41 116 -20 17 5 23 2 28 -19 10 -39 36 -33 36
8 0 28 4 34 31 42 39 12 34 30 -8 26 -30 -3 -33 -1 -33 26 0 22 -6 31 -22 36
-29 7 -43 8 -50 0z"/>
  <path d="M376 443 c-3 -17 -24 -42 -51 -63 -60 -47 -57 -57 6 -19 40 23 61 29
95 27 l44 -3 -36 -37 -35 -38 -96 0 c-92 0 -95 -1 -80 -18 9 -10 23 -36 30
-58 l14 -39 52 3 c42 3 51 1 51 -12 0 -27 -76 -101 -137 -134 -71 -38 -43 -43
33 -5 63 31 120 84 140 131 18 45 34 32 34 -29 0 -65 22 -116 55 -129 60 -23
273 -7 291 21 7 12 -15 99 -26 99 -4 0 -10 -12 -14 -27 -12 -55 -29 -66 -114
-71 -49 -3 -94 0 -117 8 -37 12 -37 12 -32 59 3 25 9 54 12 63 5 13 0 21 -16
27 -25 10 -17 13 36 13 17 1 37 -2 46 -6 12 -5 24 5 48 44 17 27 31 54 31 59
0 20 -65 31 -130 21 -35 -5 -66 -8 -67 -6 -5 4 56 48 89 65 22 12 25 17 16 28
-8 10 -23 13 -42 9 -109 -19 -103 -19 -81 -1 20 16 20 16 1 31 -29 21 -43 17
-50 -13z m192 -165 c-3 -32 -4 -33 -67 -41 -35 -4 -66 -6 -68 -3 -3 2 0 13 6
25 8 15 8 22 -1 28 -13 8 36 19 100 22 32 1 33 -1 30 -31z m-181 -4 c11 -28
-11 -49 -56 -52 -29 -2 -41 1 -41 10 0 7 -3 23 -6 36 -6 21 -3 22 45 22 39 0
53 -4 58 -16z"/>
  <path d="M582 160 c2 -7 18 -24 36 -38 28 -22 32 -23 38 -7 8 21 -12 41 -50
51 -21 5 -28 4 -24 -6z"/>
</g>
<g id="part-1" class="char-part">
  <path d="M556 571 c-6 -40 -21 -50 -76 -51 -20 0 -22 -2 -10 -10 8 -5 26 -10
39 -10 20 0 22 -4 17 -26 -8 -30 7 -25 37 13 16 20 28 23 82 23 62 0 91 12 59
24 -9 3 -36 6 -60 6 -43 0 -44 1 -33 22 10 18 8 24 -7 35 -29 21 -41 15 -48
-26z"/>
  <path d="M285 573 c4 -10 10 -28 12 -40 5 -22 2 -23 -56 -23 -65 0 -76 -10
-37 -35 21 -14 30 -14 67 -4 26 8 44 9 46 4 14 -40 50 -43 40 -3 -4 15 2 23
29 34 44 18 44 28 -1 21 -33 -5 -35 -4 -41 29 -5 30 -10 34 -36 34 -25 0 -29
-3 -23 -17z"/>
</g>
<g id="part-2" class="char-part">
  <path d="M380 453 c0 -10 -25 -41 -56 -70 -63 -60 -61 -66 11 -23 35 21 63 30
94 30 l45 0 -34 -35 c-19 -19 -28 -35 -21 -35 19 0 126 79 126 93 0 13 -49 14
-105 3 -33 -7 -34 -7 -15 9 20 16 20 16 1 31 -26 19 -46 18 -46 -3z"/>
</g>
<g id="part-3" class="char-part">
  <path d="M440 141 c0 -59 4 -74 24 -98 23 -26 30 -28 116 -32 104 -4 169 4
195 23 17 12 17 18 5 60 -13 47 -30 62 -30 27 0 -11 -11 -32 -24 -48 -21 -24
-32 -28 -93 -31 -37 -2 -87 1 -111 7 -37 10 -42 15 -42 40 0 15 5 43 12 61 9
29 9 35 -7 47 -37 27 -45 17 -45 -56z"/>
</g>
<g id="part-4" class="char-part">
  <path d="M582 160 c2 -7 18 -24 36 -38 28 -22 32 -23 38 -7 8 21 -12 41 -50
51 -21 5 -28 4 -24 -6z"/>
</g>
</g>
</svg>