<?xml version="1.0" standalone="no"?>
<!DOCTYPE svg PUBLIC "-//W3C//DTD SVG 20010904//EN"
 "http://www.w3.org/TR/2001/REC-SVG-20010904/DTD/svg10.dtd">
<svg version="1.0" xmlns="http://www.w3.org/2000/svg"
 width="96.000000pt" height="68.000000pt" viewBox="0 0 96.000000 68.000000"
 preserveAspectRatio="xMidYMid meet">
<metadata>
Created by potrace 1.16, written by Peter Selinger 2001-2019
Combined from part_0.svg through part_5.svg with named groups
</metadata>
<g transform="translate(0.000000,68.000000) scale(0.100000,-0.100000)" fill="#000000" stroke="none">
<g id="part-0" class="char-part">
  <path d="M388 608 c-4 -53 -28 -68 -110 -68 -43 0 -58 -4 -58 -14 0 -17 61
-30 102 -20 l31 6 -22 -30 c-30 -43 -71 -76 -149 -119 -74 -42 -65 -55 17 -24
42 15 57 17 80 8 29 -11 30 -12 33 -98 l3 -87 -35 -6 c-19 -3 -54 -6 -77 -6
-26 0 -43 -5 -43 -12 0 -8 45 -10 170 -5 l170 6 0 -59 c0 -33 4 -60 10 -60 9
0 25 50 32 98 3 21 8 23 85 26 46 1 86 6 90 9 15 15 -13 22 -93 22 l-84 0 0
55 c0 30 3 72 6 93 6 33 10 37 38 37 l31 1 -25 13 c-18 10 -43 11 -90 6 -36
-4 -105 -11 -155 -14 l-90 -6 30 22 c17 13 41 34 55 48 14 13 28 24 33 22 4
-1 6 1 5 6 -5 14 35 62 51 62 9 0 35 -16 57 -36 21 -20 39 -35 39 -33 0 2 9
-4 20 -13 96 -79 122 -98 147 -103 34 -8 128 3 128 15 0 5 -35 20 -77 34 -79
27 -197 92 -228 126 -18 20 -17 20 58 20 61 0 77 3 77 15 0 22 -42 28 -131 21
-43 -4 -79 -5 -79 -2 0 4 6 15 12 26 17 26 0 54 -35 58 -24 3 -26 0 -29 -40z
m104 -273 c0 -8 1 -20 2 -26 1 -6 -19 -13 -44 -15 -25 -2 -55 -6 -67 -9 -20
-5 -23 -1 -23 24 0 26 4 30 33 34 74 9 97 7 99 -8z m6 -83 c3 -19 -1 -22 -35
-22 -21 0 -55 -3 -76 -7 -37 -6 -39 -5 -35 18 3 22 9 25 63 30 77 7 79 7 83
-19z m2 -60 c0 -15 -10 -21 -37 -26 -88 -14 -129 -4 -116 29 2 6 37 11 78 13
68 2 75 1 75 -16z"/>
</g>
<g id="part-1" class="char-part">
  <path d="M396 606 c-4 -24 -12 -49 -19 -54 -7 -5 -45 -13 -86 -17 -83 -8 -79
-25 7 -25 29 0 52 -5 52 -10 0 -19 -90 -99 -153 -136 -46 -26 -54 -34 -32 -29
56 12 119 49 171 99 28 28 55 58 60 67 22 40 46 31 162 -66 l112 -95 65 0 c35
0 66 4 69 8 2 4 -32 20 -77 36 -54 18 -110 47 -162 84 l-80 57 77 5 c86 6 103
14 64 31 -20 9 -45 9 -108 1 -45 -7 -83 -10 -85 -8 -3 2 3 18 12 36 9 18 15
33 13 35 -6 5 -47 25 -51 25 -3 0 -8 -20 -11 -44z"/>
</g>
<g id="part-2" class="char-part">
  <path d="M420 374 c-167 -17 -172 -18 -137 -32 26 -11 27 -13 27 -97 0 -78 2
-85 20 -85 14 0 20 7 20 24 0 20 5 24 28 23 65 -2 112 4 112 14 0 9 -20 10
-71 5 -69 -6 -70 -6 -67 16 3 20 10 23 53 26 28 1 61 5 75 8 23 5 23 6 7 16
-17 9 -63 6 -109 -8 -14 -4 -18 1 -18 24 0 26 4 30 38 36 20 3 64 6 97 7 33 1
74 4 90 8 29 7 30 7 8 19 -12 7 -25 11 -30 11 -4 -1 -69 -8 -143 -15z"/>
</g>
<g id="part-3" class="char-part">
  <path d="M496 261 l4 -89 -62 -6 c-35 -3 -111 -8 -170 -12 -62 -4 -108 -11
-108 -17 0 -6 59 -8 168 -6 l167 4 3 -57 c2 -32 7 -58 12 -58 10 0 30 63 30
96 0 20 7 22 90 28 50 4 90 11 90 16 0 14 -67 23 -127 17 l-56 -6 5 90 5 89
-27 0 -28 0 4 -89z"/>
</g>
</g>
</svg>