<?xml version="1.0" standalone="no"?>
<!DOCTYPE svg PUBLIC "-//W3C//DTD SVG 20010904//EN"
 "http://www.w3.org/TR/2001/REC-SVG-20010904/DTD/svg10.dtd">
<svg version="1.0" xmlns="http://www.w3.org/2000/svg"
 width="96.000000pt" height="68.000000pt" viewBox="0 0 96.000000 68.000000"
 preserveAspectRatio="xMidYMid meet">
<metadata>
Created by potrace 1.16, written by Peter Selinger 2001-2019
Combined from part_0.svg through part_5.svg with named groups
</metadata>
<g transform="translate(0.000000,68.000000) scale(0.100000,-0.100000)" fill="#000000" stroke="none">
<g id="part-0" class="char-part">
  <path d="M528 593 c-3 -36 -5 -39 -45 -47 -52 -11 -55 -23 -8 -32 31 -5 34 -9
29 -30 -8 -33 7 -30 30 5 20 29 60 41 137 41 16 0 29 4 29 10 0 19 -41 32 -82
25 -39 -7 -40 -7 -28 16 11 19 10 24 -6 36 -34 25 -53 16 -56 -24z"/>
  <path d="M276 601 c-4 -6 -2 -20 5 -32 15 -29 -1 -39 -63 -39 -50 0 -59 -9
-33 -30 11 -9 32 -11 70 -6 52 6 56 5 67 -19 6 -14 15 -25 19 -25 11 0 18 26
12 49 -4 16 -1 21 15 21 28 0 52 10 52 22 0 6 -14 8 -35 4 -33 -7 -36 -5 -41
24 -4 16 -12 30 -19 30 -8 0 -20 3 -28 6 -8 3 -18 1 -21 -5z"/>
  <path d="M639 465 c-3 -2 -39 -6 -81 -7 -42 -2 -75 -5 -73 -8 2 -3 -62 -6
-142 -7 l-145 -2 -19 -31 c-11 -17 -19 -39 -19 -50 0 -31 29 -23 50 13 l20 34
178 17 c97 9 194 16 215 16 40 0 48 -15 20 -36 -28 -19 -13 -23 47 -12 73 14
81 23 45 53 -27 21 -83 34 -96 20z"/>
  <path d="M398 386 c-122 -16 -123 -30 -3 -22 123 9 165 16 165 27 0 11 -51 10
-162 -5z"/>
  <path d="M435 333 c-72 -7 -143 -18 -160 -22 -26 -8 -22 -9 28 -10 31 -1 57
-5 57 -10 0 -4 -29 -23 -65 -41 -36 -18 -63 -35 -61 -38 3 -2 34 8 70 22 35
14 69 26 75 26 42 0 -44 -66 -137 -106 -33 -15 -45 -22 -27 -19 43 8 136 45
167 67 33 23 60 24 51 2 -8 -21 -124 -95 -196 -123 -32 -13 -56 -26 -53 -28
11 -11 179 54 228 88 29 21 40 14 33 -19 -8 -44 -26 -64 -51 -59 -32 6 -30 -3
6 -38 l30 -29 28 27 c24 25 27 34 27 101 0 47 4 72 10 68 6 -3 44 -30 85 -61
73 -54 77 -56 133 -54 93 4 98 17 15 37 -78 18 -202 75 -198 91 1 6 23 18 48
28 26 10 53 24 61 32 12 12 10 15 -14 21 -15 4 -34 3 -40 -2 -7 -5 -29 -22
-48 -37 -33 -26 -39 -28 -69 -18 -44 15 -77 42 -60 48 6 3 12 10 12 18 0 9 29
14 105 17 95 4 126 10 114 22 -12 12 -88 12 -204 -1z"/>
</g>
<g id="part-1" class="char-part">
  <path d="M534 583 c-8 -35 -12 -38 -46 -41 -48 -4 -50 -22 -3 -22 33 0 34 -1
25 -25 -13 -34 1 -31 28 5 21 27 28 30 80 30 67 0 101 15 59 25 -15 4 -43 5
-62 3 -33 -4 -34 -3 -32 27 2 24 -2 31 -19 33 -16 2 -22 -5 -30 -35z"/>
  <path d="M280 586 c0 -8 5 -18 10 -21 6 -3 10 -13 10 -21 0 -11 -14 -14 -60
-14 -61 0 -72 -8 -45 -30 14 -12 35 -10 92 6 18 5 25 1 34 -20 16 -35 29 -33
29 4 0 25 5 31 33 39 l32 9 -37 1 c-32 1 -37 4 -40 29 -2 21 -9 28 -30 30 -20
2 -28 -1 -28 -12z"/>
</g>
<g id="part-2" class="char-part">
  <path d="M495 454 c-82 -8 -183 -13 -223 -12 -72 2 -73 2 -92 -30 -11 -18 -20
-42 -20 -53 0 -31 32 -20 50 17 l15 31 185 16 c260 24 268 24 233 -15 -9 -10
-14 -20 -12 -22 6 -6 113 16 124 26 16 14 -45 57 -80 56 -16 0 -97 -7 -180
-14z"/>
</g>
<g id="part-3" class="char-part">
  <path d="M398 386 c-118 -16 -125 -30 -10 -22 127 8 177 17 160 27 -16 11 -39
10 -150 -5z"/>
</g>
<g id="part-4" class="char-part">
  <path d="M545 254 c-30 -27 -45 -34 -65 -29 -24 5 -23 4 8 -24 19 -16 66 -51
104 -78 65 -44 75 -48 124 -46 85 3 97 18 27 32 -60 11 -223 83 -223 98 0 5
29 19 65 32 54 19 64 26 54 37 -19 23 -52 15 -94 -22z"/>
</g>
</g>
</svg>