<?xml version="1.0" standalone="no"?>
<!DOCTYPE svg PUBLIC "-//W3C//DTD SVG 20010904//EN"
 "http://www.w3.org/TR/2001/REC-SVG-20010904/DTD/svg10.dtd">
<svg version="1.0" xmlns="http://www.w3.org/2000/svg"
 width="96.000000pt" height="68.000000pt" viewBox="0 0 96.000000 68.000000"
 preserveAspectRatio="xMidYMid meet">
<metadata>
Created by potrace 1.16, written by Peter Selinger 2001-2019
Combined from part_0.svg through part_5.svg with named groups
</metadata>
<g transform="translate(0.000000,68.000000) scale(0.100000,-0.100000)" fill="#000000" stroke="none">
<g id="part-0" class="char-part">
  <path d="M568 572 c12 -16 22 -32 22 -35 0 -3 -35 -9 -77 -12 -43 -4 -87 -11
-98 -15 -18 -7 -19 -9 -2 -15 14 -6 17 -20 17 -73 0 -72 -18 -192 -29 -192 -4
0 -12 5 -18 11 -20 20 -39 3 -53 -45 -7 -25 -17 -46 -21 -46 -5 0 -9 27 -9 60
l0 59 35 7 c48 9 53 22 10 30 -29 5 -35 10 -33 27 2 12 13 23 26 27 13 3 23
10 22 15 -1 12 -49 12 -104 1 l-38 -9 33 62 c19 33 36 61 39 61 3 0 18 -11 34
-25 34 -29 51 -32 61 -8 7 19 -26 53 -51 53 -7 0 -19 12 -26 28 -7 15 -22 28
-34 30 -17 2 -23 -7 -38 -58 -10 -34 -24 -67 -32 -74 -7 -8 -11 -16 -9 -18 3
-2 -9 -19 -25 -36 -16 -18 -26 -32 -23 -32 3 0 -11 -20 -31 -44 -20 -24 -36
-47 -36 -51 0 -11 45 18 85 55 33 31 44 36 63 29 12 -4 22 -17 22 -28 0 -15
-10 -20 -45 -26 -54 -8 -50 -25 6 -25 l39 0 0 -59 c0 -67 -4 -71 -81 -71 -47
0 -49 -1 -39 -20 20 -37 52 -44 101 -22 40 18 134 52 144 52 2 0 -3 -12 -11
-27 -21 -42 -18 -60 7 -32 28 31 69 123 69 154 0 31 7 35 58 28 33 -4 42 -10
42 -25 0 -11 -4 -17 -9 -14 -12 8 -41 -4 -41 -16 0 -5 4 -7 8 -4 4 2 14 0 22
-5 12 -8 2 -21 -48 -69 -71 -68 -63 -79 15 -20 l52 39 3 -57 c2 -43 7 -57 18
-57 12 0 16 18 18 88 3 85 3 87 27 87 24 0 24 0 19 -88 -4 -72 -2 -91 10 -102
21 -17 25 -4 28 94 l3 78 47 -61 c46 -59 50 -61 93 -61 25 0 45 4 45 8 0 5
-24 21 -52 37 -53 28 -118 82 -118 97 0 4 13 8 29 8 24 0 30 5 35 30 5 29 8
30 56 30 27 0 50 4 50 9 0 11 -25 21 -56 21 -19 0 -24 5 -24 25 0 28 -33 42
-75 31 -22 -6 -25 -3 -25 19 0 26 14 30 77 26 11 -1 24 2 27 8 13 21 -48 23
-167 7 -66 -9 -124 -13 -129 -8 -4 4 -5 24 -1 45 5 33 9 37 34 37 16 0 30 1
32 1 1 1 26 5 55 9 47 6 52 4 52 -12 0 -11 -5 -28 -10 -39 -14 -25 1 -24 35 3
l27 21 -23 18 -24 19 50 1 c28 1 55 1 62 0 6 -1 14 3 17 8 10 16 -32 23 -95
16 -48 -6 -59 -4 -59 8 0 19 -18 34 -54 43 l-30 7 22 -31z m-28 -201 c0 -10
-12 -22 -27 -28 l-28 -11 28 -1 c19 -1 27 -6 27 -20 0 -21 -19 -31 -56 -31
-20 0 -24 5 -24 29 0 16 3 42 6 58 5 26 9 28 40 25 24 -3 34 -9 34 -21z m78 7
c-5 -34 -38 -37 -38 -4 0 20 5 26 21 26 15 0 20 -5 17 -22z m8 -73 c-7 -19
-47 -17 -54 3 -5 15 39 33 52 22 5 -5 6 -16 2 -25z m92 18 c-2 -11 -14 -19
-31 -21 -22 -3 -27 1 -27 17 0 17 6 21 31 21 24 0 30 -4 27 -17z m-8 -64 c0
-14 -7 -19 -25 -19 -18 0 -25 5 -25 19 0 13 7 19 25 19 18 0 25 -6 25 -19z
m-80 -3 c0 -13 -20 -26 -41 -26 -5 0 -9 9 -9 20 0 15 7 20 25 20 15 0 25 -6
25 -14z m-233 -58 c-3 -14 -14 -25 -32 -30 -40 -10 -42 -3 -6 18 17 10 31 22
31 26 0 4 2 8 5 8 3 0 3 -10 2 -22z"/>
  <path d="M530 472 c0 -5 9 -17 19 -26 14 -13 21 -14 27 -5 4 7 -1 18 -11 26
-21 15 -35 17 -35 5z"/>
  <path d="M177 188 c21 -36 47 -47 56 -25 9 23 -21 57 -49 57 l-26 0 19 -32z"/>
</g>
<g id="part-1" class="char-part">
  <path d="M256 558 c-3 -7 -12 -36 -21 -65 -17 -53 -75 -145 -128 -200 -17 -18
-26 -33 -20 -33 11 0 65 41 97 73 25 25 60 18 64 -12 4 -28 -12 -41 -50 -41
-16 0 -28 -4 -28 -10 0 -5 20 -10 45 -10 l45 0 0 -60 c0 -57 -2 -61 -27 -71
-16 -6 -45 -8 -65 -5 -45 7 -53 -13 -13 -34 27 -14 31 -14 155 33 73 28 94 51
31 34 -22 -6 -42 -9 -44 -6 -2 2 -1 31 2 64 5 50 9 60 26 63 44 7 50 15 15 21
-28 5 -36 11 -38 32 -3 23 2 27 30 33 27 6 30 9 14 15 -10 4 -40 3 -67 -3 -27
-5 -51 -7 -55 -4 -3 4 10 34 31 68 l37 61 35 -32 c26 -22 38 -28 47 -19 16 16
-5 43 -43 54 -20 6 -31 15 -31 27 0 23 -38 46 -44 27z"/>
  <path d="M337 210 c-14 -37 -14 -39 1 -31 47 26 57 38 43 55 -20 24 -26 20
-44 -24z"/>
  <path d="M170 212 c0 -16 32 -52 46 -52 25 0 16 40 -12 50 -31 12 -34 12 -34
2z"/>
</g>
<g id="part-2" class="char-part">
  <path d="M560 581 c5 -11 15 -23 20 -26 23 -14 6 -23 -57 -29 -38 -4 -81 -9
-97 -13 -25 -4 -27 -7 -13 -15 38 -21 14 -232 -42 -367 -17 -41 -29 -76 -27
-78 8 -8 60 73 78 121 22 58 43 160 53 256 4 36 8 66 9 67 0 1 60 7 131 13 72
6 141 14 155 17 23 4 23 5 6 15 -11 6 -44 8 -82 4 -60 -6 -64 -5 -64 14 0 20
-33 40 -66 40 -11 0 -12 -4 -4 -19z"/>
</g>
<g id="part-3" class="char-part">
  <path d="M644 475 c-13 -41 -12 -42 28 -13 29 20 30 22 12 35 -25 19 -28 17
-40 -22z"/>
  <path d="M537 455 c20 -27 29 -30 38 -15 9 15 -14 40 -37 40 -18 0 -18 -1 -1
-25z"/>
  <path d="M580 423 c-52 -8 -97 -16 -99 -19 -14 -13 22 -14 141 -4 151 14 162
16 153 30 -8 13 -79 11 -195 -7z"/>
</g>
<g id="part-4" class="char-part">
  <path d="M662 201 c2 -5 24 -37 50 -70 46 -59 50 -61 93 -61 25 0 45 4 45 8 0
5 -22 19 -48 31 -27 13 -66 40 -88 61 -37 37 -59 50 -52 31z"/>
  <path d="M467 128 c-55 -54 -63 -65 -40 -58 46 16 116 82 112 105 -3 17 -15 9
-72 -47z"/>
</g>
</g>
</svg>