<?xml version="1.0" standalone="no"?>
<!DOCTYPE svg PUBLIC "-//W3C//DTD SVG 20010904//EN"
 "http://www.w3.org/TR/2001/REC-SVG-20010904/DTD/svg10.dtd">
<svg version="1.0" xmlns="http://www.w3.org/2000/svg"
 width="96.000000pt" height="68.000000pt" viewBox="0 0 96.000000 68.000000"
 preserveAspectRatio="xMidYMid meet">
<metadata>
Created by potrace 1.16, written by Peter Selinger 2001-2019
Combined from part_0.svg through part_5.svg with named groups
</metadata>
<g transform="translate(0.000000,68.000000) scale(0.100000,-0.100000)" fill="#000000" stroke="none">
<g id="part-0" class="char-part">
  <path d="M256 602 c-2 -4 1 -26 7 -49 8 -31 8 -90 -2 -230 -16 -238 -16 -253
4 -272 15 -15 17 -14 31 3 8 12 14 43 14 75 0 31 3 100 7 153 l6 98 35 -22
c33 -20 35 -20 48 -4 19 27 6 46 -43 59 l-45 12 5 45 c3 25 9 59 12 75 6 26 2
32 -23 48 -33 19 -48 21 -56 9z"/>
  <path d="M574 553 c-9 -21 -29 -59 -46 -85 -28 -45 -32 -47 -66 -42 -29 5 -34
3 -25 -8 14 -16 33 -148 33 -226 0 -68 13 -96 33 -70 10 12 33 17 95 19 80 3
83 2 95 -21 16 -32 35 -32 59 1 19 25 30 83 43 226 l6 72 -31 16 c-27 14 -40
14 -128 1 -53 -8 -100 -11 -104 -8 -4 4 22 36 57 71 49 50 62 68 53 78 -6 7
-21 13 -35 13 -18 0 -28 -9 -39 -37z m144 -193 l3 -55 -43 0 c-24 0 -73 -4
-110 -8 l-68 -7 0 50 c0 59 0 59 102 70 115 12 113 13 116 -50z m2 -129 l0
-48 -67 -7 c-38 -4 -85 -9 -105 -13 l-38 -6 0 59 0 59 105 3 105 2 0 -49z"/>
  <path d="M157 375 c-35 -71 -36 -105 -3 -105 19 0 27 9 40 40 17 42 20 78 10
104 -10 26 -18 19 -47 -39z"/>
</g>
<g id="part-1" class="char-part">
  <path d="M267 558 c10 -52 7 -204 -7 -350 -11 -114 -7 -158 16 -158 27 0 34
40 34 189 0 83 2 151 5 151 3 0 19 -10 35 -21 30 -23 60 -20 60 6 0 8 -10 19
-22 24 -83 32 -76 21 -65 102 8 65 7 74 -9 86 -10 7 -26 13 -37 13 -17 0 -18
-4 -10 -42z"/>
  <path d="M156 359 c-22 -48 -25 -63 -16 -75 7 -7 16 -14 21 -14 13 0 37 51 40
85 6 84 -9 85 -45 4z"/>
</g>
<g id="part-2" class="char-part">
  <path d="M583 582 c-13 -37 -43 -99 -63 -129 -39 -58 0 -37 72 40 58 61 77 87
65 87 -1 0 -17 4 -35 9 -27 8 -34 7 -39 -7z"/>
</g>
<g id="part-3" class="char-part">
  <path d="M620 434 c-47 -8 -107 -12 -134 -9 -47 6 -48 5 -42 -17 4 -13 13 -84
21 -158 7 -74 14 -136 14 -137 4 -11 31 0 31 12 0 12 14 15 69 15 38 0 76 2
84 6 9 3 19 -6 27 -26 15 -36 35 -36 62 1 19 25 30 83 43 226 l6 72 -30 15
c-35 18 -38 18 -151 0z m84 -20 c12 -5 16 -20 16 -58 l0 -51 -52 0 c-29 0 -78
-2 -108 -5 l-55 -5 -3 44 c-2 24 1 48 6 53 5 5 47 13 93 17 46 5 85 9 86 10 1
0 8 -2 17 -5z m14 -184 l-3 -52 -55 -3 c-30 -2 -76 -7 -102 -10 l-48 -7 0 59
0 58 106 3 105 3 -3 -51z"/>
</g>
</g>
</svg>