<?xml version="1.0" standalone="no"?>
<!DOCTYPE svg PUBLIC "-//W3C//DTD SVG 20010904//EN"
 "http://www.w3.org/TR/2001/REC-SVG-20010904/DTD/svg10.dtd">
<svg version="1.0" xmlns="http://www.w3.org/2000/svg"
 width="96.000000pt" height="68.000000pt" viewBox="0 0 96.000000 68.000000"
 preserveAspectRatio="xMidYMid meet">
<metadata>
Created by potrace 1.16, written by Peter Selinger 2001-2019
Combined from part_0.svg through part_5.svg with named groups
</metadata>
<g transform="translate(0.000000,68.000000) scale(0.100000,-0.100000)" fill="#000000" stroke="none">
<g id="part-0" class="char-part">
  <path d="M411 593 c7 -10 21 -27 31 -39 19 -21 19 -21 -43 -28 -99 -10 -136
-8 -143 9 -3 8 -9 15 -14 15 -12 0 -52 -91 -52 -118 0 -35 35 -27 60 13 12 19
24 35 26 35 4 0 122 12 332 34 46 5 50 1 26 -32 -9 -13 -14 -25 -12 -28 3 -2
34 1 69 8 75 15 86 34 40 68 -36 25 -42 26 -142 16 -75 -7 -77 -7 -82 17 -7
26 -44 47 -84 47 -23 0 -24 -2 -12 -17z"/>
  <path d="M314 443 c2 -10 7 -43 11 -74 l6 -56 -73 -7 c-103 -9 -148 -17 -148
-26 0 -17 50 -19 126 -6 59 11 81 11 86 3 4 -7 8 -47 8 -91 l0 -78 -37 7 -38
7 29 -31 c62 -65 90 -28 85 112 -2 52 -2 95 1 95 3 0 24 0 48 1 58 1 45 21
-14 21 -43 0 -45 1 -42 27 3 24 8 28 43 30 22 2 47 6 55 9 29 11 -11 22 -49
13 -51 -12 -51 -12 -51 20 0 17 -6 31 -16 35 -26 10 -36 7 -30 -11z"/>
  <path d="M618 371 c-14 -5 -54 -12 -87 -16 -34 -4 -61 -11 -61 -16 0 -5 4 -9
10 -9 13 0 89 -80 96 -103 10 -31 -47 -81 -131 -114 l-30 -11 27 -1 c30 -1
107 29 147 59 l28 19 37 -45 c33 -40 41 -44 80 -44 55 0 106 10 106 21 0 4
-19 13 -42 20 -47 12 -113 42 -142 64 -17 13 -17 16 11 67 16 29 35 63 43 75
8 12 12 25 8 28 -10 11 -73 14 -100 6z m17 -53 c-4 -18 -13 -43 -21 -56 l-15
-23 -27 33 c-15 18 -30 35 -34 36 -19 9 -4 22 35 30 69 16 69 16 62 -20z"/>
  <path d="M420 234 c0 -14 43 -64 55 -64 18 0 26 26 12 39 -17 13 -67 32 -67
25z"/>
  <path d="M220 216 c0 -7 -11 -30 -25 -50 -16 -24 -20 -36 -11 -36 18 0 88 78
81 90 -9 15 -45 12 -45 -4z"/>
</g>
<g id="part-1" class="char-part">
  <path d="M410 601 c0 -5 13 -23 29 -39 22 -24 25 -32 14 -36 -26 -10 -193 -6
-193 4 0 6 -6 10 -13 10 -14 0 -57 -80 -57 -105 0 -40 52 -17 64 28 5 21 15
23 196 41 105 10 194 15 198 11 4 -3 -1 -20 -11 -37 -17 -29 -17 -30 0 -23 10
3 40 11 67 16 27 5 52 12 55 15 3 3 -10 19 -29 36 -33 28 -38 29 -100 24 -36
-4 -80 -9 -97 -12 -30 -6 -33 -4 -33 20 0 21 -7 30 -35 42 -40 16 -55 18 -55
5z"/>
</g>
<g id="part-2" class="char-part">
  <path d="M313 438 c3 -13 9 -47 13 -75 8 -60 31 -73 36 -20 3 30 6 32 43 35
22 1 47 5 55 8 31 11 -15 24 -50 14 -40 -11 -50 -6 -50 25 0 21 -17 35 -42 35
-6 0 -8 -10 -5 -22z"/>
</g>
<g id="part-3" class="char-part">
  <path d="M328 200 c4 -79 2 -90 -12 -90 -10 0 -26 5 -37 10 -26 14 -24 1 6
-32 28 -33 60 -36 75 -8 6 11 10 60 8 113 -3 84 -5 92 -24 95 -19 3 -20 -1
-16 -88z"/>
  <path d="M420 231 c0 -15 41 -61 55 -61 20 0 28 19 15 35 -14 16 -70 37 -70
26z"/>
  <path d="M211 198 c-6 -18 -21 -42 -33 -55 -39 -41 2 -24 49 20 46 44 51 67
13 67 -11 0 -22 -12 -29 -32z"/>
</g>
<g id="part-4" class="char-part">
  <path d="M595 364 c-33 -7 -76 -13 -95 -14 l-35 -1 36 -33 c20 -19 48 -50 63
-69 l27 -35 -46 -40 c-26 -23 -65 -47 -88 -56 -36 -12 -38 -15 -15 -15 30 -1
107 30 148 59 l28 20 37 -45 c33 -41 41 -45 79 -45 55 0 106 10 106 21 0 4
-19 13 -42 20 -47 12 -113 42 -141 63 -16 13 -16 16 9 67 15 30 34 62 43 72
14 17 14 20 -4 33 -22 16 -31 16 -110 -2z m40 -46 c-4 -18 -13 -44 -20 -57
l-12 -23 -36 43 c-20 23 -35 44 -32 47 5 6 64 20 88 21 16 1 18 -4 12 -31z"/>
</g>
</g>
</svg>