<?xml version="1.0" standalone="no"?>
<!DOCTYPE svg PUBLIC "-//W3C//DTD SVG 20010904//EN"
 "http://www.w3.org/TR/2001/REC-SVG-20010904/DTD/svg10.dtd">
<svg version="1.0" xmlns="http://www.w3.org/2000/svg"
 width="96.000000pt" height="68.000000pt" viewBox="0 0 96.000000 68.000000"
 preserveAspectRatio="xMidYMid meet">
<metadata>
Created by potrace 1.16, written by Peter Selinger 2001-2019
Combined from part_0.svg through part_5.svg with named groups
</metadata>
<g transform="translate(0.000000,68.000000) scale(0.100000,-0.100000)" fill="#000000" stroke="none">
<g id="part-0" class="char-part">
  <path d="M580 521 c0 -104 12 -120 97 -128 61 -6 147 10 159 28 6 10 -26 69
-38 69 -4 0 -8 -6 -8 -14 0 -30 -30 -46 -85 -46 -73 0 -85 6 -85 45 0 32 0 32
66 43 73 12 83 17 66 34 -8 8 -24 5 -61 -11 -66 -28 -75 -27 -68 8 6 29 -7 51
-30 51 -10 0 -13 -21 -13 -79z"/>
  <path d="M428 548 c4 -24 7 -63 7 -88 0 -38 -3 -45 -20 -45 -17 0 -20 8 -23
50 -3 46 -13 64 -36 65 -8 0 0 -77 11 -106 4 -10 -3 -14 -22 -14 -24 0 -26 -2
-14 -16 13 -16 48 -16 122 2 36 8 35 -6 -4 -51 -32 -36 -28 -47 7 -20 20 15
104 21 104 7 0 -5 -9 -18 -20 -30 -17 -18 -32 -22 -88 -22 l-67 0 -1 -83 c0
-58 -5 -92 -18 -115 -10 -19 -15 -36 -12 -40 7 -6 33 24 45 53 8 18 24 22 140
33 73 7 136 10 140 8 7 -5 8 -26 2 -58 0 -5 -15 -8 -33 -8 l-32 0 29 -30 c56
-59 78 -32 86 104 3 56 9 109 13 119 13 28 -43 46 -106 35 -79 -14 -89 -7 -36
26 30 19 44 35 40 44 -5 14 -25 13 -107 -4 -29 -6 -29 -6 -10 10 20 16 20 16
1 27 -18 11 -17 13 10 25 29 14 28 14 -13 8 l-43 -6 0 36 c0 33 3 36 28 36 15
0 34 5 42 11 11 7 3 9 -30 7 l-45 -3 -3 38 c-3 31 -7 37 -27 37 -22 0 -23 -3
-17 -42z m260 -298 c3 -24 1 -25 -55 -23 -32 1 -60 2 -63 3 -3 0 -6 9 -7 19
-1 16 6 21 35 24 71 8 87 4 90 -23z m-170 -14 c-2 -17 -11 -22 -45 -24 -37 -3
-43 -1 -43 17 0 26 23 39 61 33 24 -4 29 -9 27 -26z m172 -53 c0 -28 -1 -28
-65 -29 -61 -1 -65 0 -65 22 0 19 6 23 38 27 91 9 92 9 92 -20z m-172 -16 c3
-26 2 -27 -48 -27 -47 0 -51 2 -48 23 2 16 12 23 38 28 49 8 55 6 58 -24z"/>
  <path d="M215 450 c-11 -5 -41 -9 -67 -9 -49 -1 -59 -10 -34 -31 8 -6 20 -36
27 -66 7 -30 15 -57 19 -59 4 -2 38 1 76 8 39 8 63 16 56 21 -13 8 -8 44 14
88 12 23 12 29 -2 42 -17 17 -57 20 -89 6z m27 -75 c-3 -33 -9 -46 -23 -50
-27 -9 -36 0 -43 40 -9 45 -2 55 37 55 32 0 32 0 29 -45z"/>
</g>
<g id="part-1" class="char-part">
  <path d="M205 444 c-27 -8 -63 -11 -79 -8 l-28 6 20 -28 c11 -16 25 -53 32
-81 12 -51 22 -64 35 -43 3 6 28 10 55 10 43 0 48 2 43 20 -3 11 2 41 12 67
17 44 17 47 0 60 -22 15 -24 15 -90 -3z m45 -38 c0 -13 -3 -38 -6 -55 -5 -26
-11 -31 -34 -31 -24 0 -29 5 -39 44 -14 58 -15 54 17 59 58 9 62 8 62 -17z"/>
</g>
<g id="part-2" class="char-part">
  <path d="M424 573 c3 -10 8 -45 12 -78 8 -71 10 -76 29 -68 9 3 15 18 15 39 0
30 3 34 28 34 15 0 33 4 40 9 21 13 -13 22 -42 11 -30 -11 -36 -5 -36 37 0 29
-3 33 -26 33 -19 0 -24 -4 -20 -17z"/>
</g>
<g id="part-3" class="char-part">
  <path d="M580 521 c0 -67 3 -84 19 -100 35 -35 182 -40 225 -8 15 11 15 15 -3
49 -19 37 -31 40 -31 7 0 -26 -31 -39 -92 -39 -66 0 -81 9 -76 46 3 26 8 29
67 41 72 15 79 19 63 35 -8 8 -24 5 -61 -11 -66 -28 -71 -27 -68 16 2 33 -1
38 -20 41 -22 3 -23 1 -23 -77z"/>
</g>
<g id="part-4" class="char-part">
  <path d="M575 289 c-33 -4 -90 -9 -126 -10 l-66 -1 5 -43 c7 -64 -6 -129 -33
-169 -25 -37 -19 -49 10 -20 30 31 57 98 62 156 5 44 10 58 22 59 9 0 45 3 81
6 36 4 85 7 110 7 l45 1 3 -80 c4 -114 -1 -128 -43 -123 l-35 4 32 -33 c38
-39 51 -41 72 -11 12 16 16 48 17 113 0 49 4 99 8 110 17 42 -33 52 -164 34z"/>
</g>
</g>
</svg>