<?xml version="1.0" standalone="no"?>
<!DOCTYPE svg PUBLIC "-//W3C//DTD SVG 20010904//EN"
 "http://www.w3.org/TR/2001/REC-SVG-20010904/DTD/svg10.dtd">
<svg version="1.0" xmlns="http://www.w3.org/2000/svg"
 width="96.000000pt" height="68.000000pt" viewBox="0 0 96.000000 68.000000"
 preserveAspectRatio="xMidYMid meet">
<metadata>
Created by potrace 1.16, written by Peter Selinger 2001-2019
Combined from part_0.svg through part_5.svg with named groups
</metadata>
<g transform="translate(0.000000,68.000000) scale(0.100000,-0.100000)" fill="#000000" stroke="none">
<g id="part-0" class="char-part">
  <path d="M622 580 c-30 -40 -28 -43 15 -25 52 22 67 36 51 46 -24 16 -44 9
-66 -21z"/>
  <path d="M267 582 c-2 -4 1 -44 6 -90 11 -89 9 -95 -35 -106 -32 -7 -36 7 -13
38 18 24 3 46 -31 46 -20 0 -24 -5 -24 -29 0 -15 -13 -55 -30 -87 -16 -32 -28
-60 -26 -61 8 -9 39 13 59 41 17 24 31 32 60 34 l37 3 0 -53 0 -54 -75 -32
c-41 -18 -79 -32 -85 -32 -21 0 -4 -25 22 -34 22 -8 34 -3 76 27 27 21 53 37
57 37 4 0 4 -38 0 -84 -7 -84 -2 -126 15 -126 17 0 30 66 30 154 l0 92 32 19
c18 10 27 20 20 23 -7 2 -19 -1 -27 -8 -22 -18 -31 -5 -27 39 3 35 8 41 33 46
38 9 38 29 -1 23 l-30 -5 6 82 c7 80 6 81 -19 92 -15 7 -28 9 -30 5z"/>
  <path d="M450 581 c0 -20 37 -54 53 -48 25 9 21 32 -8 45 -31 14 -45 15 -45 3z"/>
  <path d="M523 512 c-62 -9 -100 -19 -96 -25 3 -5 28 -7 59 -3 29 3 55 2 58 -2
9 -15 -10 -32 -49 -41 l-40 -9 43 -1 c36 -1 43 -4 40 -18 -2 -14 -16 -19 -60
-23 -31 -3 -60 -9 -65 -14 -8 -9 258 0 311 11 49 9 8 23 -72 23 -87 0 -94 17
-16 36 l49 12 -48 1 c-40 1 -48 4 -45 18 2 10 10 19 18 20 8 1 36 5 63 8 26 3
47 10 47 16 0 12 -74 9 -197 -9z"/>
  <path d="M560 361 c0 -6 4 -11 9 -11 13 0 20 -51 7 -55 -6 -2 -26 -6 -43 -9
-30 -5 -33 -3 -33 19 0 16 6 25 16 25 9 0 14 6 12 13 -8 23 -43 17 -78 -13
-35 -30 -35 -30 -7 -24 20 5 27 2 27 -9 0 -16 -29 -27 -77 -27 -18 0 -33 -4
-33 -10 0 -5 19 -10 43 -10 l42 -1 -40 -35 c-38 -34 -39 -35 -10 -24 16 6 37
18 47 27 15 13 18 13 28 -6 8 -16 8 -22 -2 -25 -7 -2 -29 -8 -48 -14 -34 -10
-34 -10 -6 -11 18 -1 26 -5 23 -13 -21 -52 -21 -52 -1 -43 41 17 71 17 78 0
10 -26 -12 -55 -42 -55 l-26 0 21 -21 c28 -29 53 -14 75 44 19 52 14 57 -48
57 -19 0 -34 5 -34 10 0 13 43 30 76 30 13 0 24 5 24 10 0 6 -15 10 -34 10
-29 0 -33 3 -29 20 6 23 7 24 33 8 14 -9 22 -10 31 -1 8 8 1 14 -27 23 -33 11
-36 14 -19 21 11 4 36 8 55 8 33 1 36 -3 63 -60 15 -33 25 -65 22 -70 -4 -5
-20 -16 -37 -25 -43 -22 -26 -31 21 -10 l39 18 42 -41 c23 -22 50 -43 61 -46
10 -4 19 -10 19 -14 0 -5 10 -8 23 -7 24 1 24 2 12 64 -8 45 -19 54 -28 22 -7
-28 -26 -25 -70 13 l-38 32 32 38 c26 31 29 41 18 48 -21 14 -43 6 -47 -16 -7
-39 -20 -37 -46 7 -14 25 -26 48 -26 51 0 4 27 7 60 7 60 0 79 13 39 25 -12 4
-40 4 -64 0 -44 -6 -44 -6 -47 27 -2 28 -7 34 -30 36 -16 2 -28 -1 -28 -7z"/>
  <path d="M729 336 c38 -29 71 -34 71 -12 0 20 -9 24 -61 32 l-44 6 34 -26z"/>
</g>
<g id="part-1" class="char-part">
  <path d="M171 423 c-7 -27 -21 -63 -32 -81 -10 -18 -19 -39 -19 -45 1 -18 62
56 89 108 21 39 22 48 10 56 -27 17 -37 9 -48 -38z"/>
</g>
<g id="part-2" class="char-part">
  <path d="M267 543 c4 -27 8 -70 8 -98 l0 -49 -42 -9 c-56 -11 -58 -31 -3 -22
l40 7 0 -54 0 -53 -74 -32 c-41 -18 -79 -33 -85 -33 -17 0 -13 -27 5 -34 28
-11 45 -7 87 22 74 50 69 54 62 -45 -7 -87 -2 -133 14 -133 19 0 31 59 31 155
0 58 3 105 8 105 4 0 18 10 32 21 25 21 19 21 -27 2 -9 -4 -13 8 -13 40 0 43
1 45 35 51 43 8 36 30 -7 24 l-29 -5 7 83 c6 76 5 83 -14 93 -38 20 -44 14
-35 -36z"/>
</g>
<g id="part-3" class="char-part">
  <path d="M620 580 c-17 -22 -29 -40 -25 -40 16 0 105 43 105 51 0 8 -32 29
-44 29 -2 0 -19 -18 -36 -40z"/>
  <path d="M460 560 c24 -33 47 -39 57 -14 8 21 -21 44 -55 44 l-23 0 21 -30z"/>
  <path d="M650 530 c-19 -5 -81 -14 -138 -21 -118 -14 -120 -32 -2 -24 92 6
200 22 208 30 6 6 -17 26 -28 24 -3 -1 -21 -5 -40 -9z"/>
</g>
<g id="part-4" class="char-part">
  <path d="M543 470 c-4 -13 -17 -21 -42 -26 -57 -9 -59 -12 -8 -13 40 -1 47 -4
47 -21 0 -17 -7 -20 -42 -20 -24 0 -54 -3 -67 -7 -45 -12 5 -20 73 -12 33 4
98 9 144 10 45 2 87 6 93 10 20 12 -29 21 -93 17 -43 -2 -62 1 -65 9 -5 14 4
18 61 28 48 8 39 19 -14 17 -30 -1 -40 2 -40 13 0 23 -41 19 -47 -5z"/>
</g>
<g id="part-5" class="char-part">
  <path d="M524 107 c-9 -24 6 -44 18 -22 7 11 6 21 -1 28 -7 7 -12 6 -17 -6z"/>
  <path d="M506 55 c-3 -8 -12 -15 -21 -15 -18 0 -20 -16 -3 -26 7 -4 8 -3 4 4
-5 8 1 12 14 12 12 0 19 4 16 9 -4 5 -1 11 6 13 8 3 9 6 1 11 -6 4 -13 0 -17
-8z"/>
</g>
</g>
</svg>