<?xml version="1.0" standalone="no"?>
<!DOCTYPE svg PUBLIC "-//W3C//DTD SVG 20010904//EN"
 "http://www.w3.org/TR/2001/REC-SVG-20010904/DTD/svg10.dtd">
<svg version="1.0" xmlns="http://www.w3.org/2000/svg"
 width="96.000000pt" height="68.000000pt" viewBox="0 0 96.000000 68.000000"
 preserveAspectRatio="xMidYMid meet">
<metadata>
Created by potrace 1.16, written by Peter Selinger 2001-2019
Combined from part_0.svg through part_5.svg with named groups
</metadata>
<g transform="translate(0.000000,68.000000) scale(0.100000,-0.100000)" fill="#000000" stroke="none">
<g id="part-0" class="char-part">
  <path d="M320 565 c-12 -25 -26 -45 -31 -45 -6 0 -28 9 -50 21 -69 34 -63 7 7
-38 18 -11 15 -16 -36 -62 -30 -27 -52 -52 -48 -56 4 -4 37 9 73 29 36 20 67
36 69 36 2 0 7 -12 10 -26 9 -35 -27 -81 -115 -147 -38 -29 -65 -53 -60 -55
15 -5 107 45 146 79 l35 31 0 -65 c0 -36 -5 -78 -10 -93 -10 -25 -14 -26 -56
-21 l-46 5 38 -39 c44 -45 62 -48 92 -16 48 52 57 245 14 339 l-21 48 47 40
47 41 -24 19 c-37 31 -57 25 -81 -25z"/>
  <path d="M749 536 c-3 -3 -76 -13 -164 -22 -88 -10 -162 -19 -165 -21 -2 -2 2
-8 9 -13 8 -4 22 -49 31 -100 20 -99 22 -106 41 -95 6 5 29 8 51 9 l38 1 3
-132 c1 -72 6 -135 10 -139 17 -17 26 24 33 149 l7 129 59 -4 c37 -3 62 0 68
7 5 6 21 50 34 96 14 46 27 91 31 100 8 22 -68 53 -86 35z m13 -65 c-1 -19 -4
-36 -5 -37 -1 -1 -27 -4 -58 -6 l-56 -4 1 43 1 44 60 -3 60 -3 -3 -34z m-170
-31 c-4 -28 -7 -30 -48 -30 -24 0 -47 -1 -51 -2 -8 -3 -24 64 -17 72 3 2 26 7
52 10 55 7 71 -5 64 -50z m158 -57 c0 -41 -10 -50 -62 -55 l-48 -6 0 39 c0 35
2 38 33 42 75 9 77 9 77 -20z m-160 -28 c0 -35 0 -35 -44 -35 -40 0 -44 2 -49
27 -7 39 -2 43 49 43 44 0 44 0 44 -35z"/>
</g>
<g id="part-1" class="char-part">
  <path d="M331 573 c-36 -68 -34 -67 -81 -43 -52 27 -64 20 -16 -10 20 -12 36
-26 36 -30 0 -5 -16 -22 -36 -37 -79 -61 -80 -62 -63 -63 8 0 41 15 72 34 l57
35 13 -22 c17 -30 15 -244 -2 -276 -11 -19 -18 -22 -47 -18 -30 5 -33 4 -25
-11 15 -29 49 -54 67 -50 9 1 26 16 38 31 18 25 21 45 24 152 3 108 1 129 -17
171 l-22 48 43 44 43 43 -24 20 c-32 26 -38 24 -60 -18z"/>
</g>
<g id="part-2" class="char-part">
  <path d="M291 360 c-20 -26 -87 -81 -161 -132 l-25 -17 30 8 c86 23 195 105
195 147 0 32 -10 30 -39 -6z"/>
</g>
<g id="part-3" class="char-part">
  <path d="M705 530 c-22 -4 -95 -14 -162 -21 l-122 -13 14 -27 c8 -15 20 -59
26 -97 6 -39 14 -74 18 -80 4 -6 25 -7 56 -2 28 4 92 7 143 6 l92 -1 36 109
c19 59 34 109 32 111 -30 24 -64 28 -133 15z m57 -60 c-2 -19 -5 -36 -5 -37
-1 -1 -27 -3 -57 -4 l-55 -3 0 34 c0 45 9 51 70 48 l50 -3 -3 -35z m-172 -21
l0 -40 -52 3 c-50 3 -53 4 -59 35 -7 36 -1 40 69 42 l42 1 0 -41z m160 -66 c0
-41 -10 -49 -62 -57 l-48 -7 0 40 c0 40 0 40 43 44 23 2 48 4 55 5 7 1 12 -9
12 -25z m-160 -28 c0 -35 0 -35 -45 -35 -45 0 -45 0 -45 35 0 35 0 35 45 35
45 0 45 0 45 -35z"/>
</g>
<g id="part-4" class="char-part">
  <path d="M590 186 c0 -109 7 -166 21 -166 13 0 17 28 24 153 l6 117 -25 0 -26
0 0 -104z"/>
</g>
</g>
</svg>