<?xml version="1.0" standalone="no"?>
<!DOCTYPE svg PUBLIC "-//W3C//DTD SVG 20010904//EN"
 "http://www.w3.org/TR/2001/REC-SVG-20010904/DTD/svg10.dtd">
<svg version="1.0" xmlns="http://www.w3.org/2000/svg"
 width="96.000000pt" height="68.000000pt" viewBox="0 0 96.000000 68.000000"
 preserveAspectRatio="xMidYMid meet">
<metadata>
Created by potrace 1.16, written by Peter Selinger 2001-2019
Combined from part_0.svg through part_5.svg with named groups
</metadata>
<g transform="translate(0.000000,68.000000) scale(0.100000,-0.100000)" fill="#000000" stroke="none">
<g id="part-0" class="char-part">
  <path d="M566 601 c-6 -38 -8 -40 -49 -43 -52 -4 -55 -22 -5 -26 l38 -3 -16
-31 c-27 -53 14 -51 44 2 16 28 21 30 74 30 84 0 112 16 66 37 -13 6 -38 8
-57 5 -32 -4 -34 -3 -28 19 8 28 -8 49 -38 49 -18 0 -24 -7 -29 -39z"/>
  <path d="M300 610 c0 -6 5 -21 11 -32 15 -28 -2 -38 -63 -38 -34 0 -48 -4 -48
-14 0 -35 41 -43 115 -21 16 5 23 -1 32 -25 16 -43 39 -34 35 13 -3 32 -1 36
27 42 39 8 40 25 2 25 -25 0 -30 4 -33 28 -3 23 -8 27 -40 30 -23 2 -38 -1
-38 -8z"/>
  <path d="M606 485 c12 -31 74 -48 74 -20 0 17 -30 35 -59 35 -14 0 -19 -5 -15
-15z"/>
  <path d="M432 448 c3 -33 2 -33 -47 -40 -27 -3 -84 -7 -125 -7 -70 -2 -74 -3
-55 -17 16 -13 36 -14 100 -9 137 12 130 13 133 -16 3 -25 1 -26 -62 -33 -36
-3 -78 -3 -92 0 -24 6 -26 5 -18 -12 12 -27 10 -113 -6 -178 -11 -45 -11 -58
0 -71 21 -25 35 -12 40 41 l5 49 65 0 65 0 3 -57 c2 -32 7 -58 12 -58 16 0 30
37 30 78 0 47 8 52 92 52 l61 0 -6 -41 c-6 -49 -21 -61 -55 -48 -37 14 -36 6
3 -29 71 -65 91 -35 98 145 l6 131 -25 17 c-22 14 -33 15 -69 6 -73 -18 -95
-15 -95 14 l0 25 124 0 c125 0 150 6 120 31 -19 15 -60 17 -168 5 -73 -7 -78
-7 -72 9 9 23 -11 45 -41 45 -21 0 -24 -4 -21 -32z m188 -153 c0 -21 -5 -25
-27 -25 -16 0 -45 -3 -65 -6 -36 -6 -38 -5 -38 19 0 31 10 35 78 36 49 1 52 0
52 -24z m-182 -12 c-3 -27 -6 -28 -65 -31 -61 -3 -63 -2 -63 22 0 26 12 30 98
34 31 2 33 0 30 -25z m187 -63 c0 -23 -4 -24 -72 -27 -53 -2 -73 1 -73 10 0
26 18 36 70 39 74 5 75 5 75 -22z m-185 -15 c0 -24 -2 -25 -65 -25 -63 0 -65
1 -65 25 0 24 2 25 65 25 63 0 65 -1 65 -25z"/>
</g>
<g id="part-1" class="char-part">
  <path d="M570 601 c0 -39 0 -40 -45 -47 -49 -7 -52 -24 -3 -24 20 0 29 -4 25
-12 -21 -59 -17 -63 20 -20 38 41 40 42 101 42 63 0 83 14 37 26 -14 3 -39 4
-56 2 -28 -4 -30 -3 -24 23 5 21 2 30 -14 38 -33 18 -41 13 -41 -28z"/>
  <path d="M315 593 c3 -15 7 -32 8 -38 1 -6 -25 -11 -60 -13 -68 -3 -77 -12
-38 -38 22 -14 29 -15 69 -1 l44 15 8 -31 c14 -47 34 -46 34 1 0 35 3 41 30
51 39 13 38 23 -2 19 -29 -3 -33 0 -37 22 -3 28 -17 40 -45 40 -15 0 -17 -5
-11 -27z"/>
</g>
<g id="part-2" class="char-part">
  <path d="M600 495 c0 -11 46 -45 62 -45 27 0 23 36 -4 44 -27 7 -58 8 -58 1z"/>
</g>
<g id="part-3" class="char-part">
  <path d="M432 448 c3 -33 2 -33 -47 -40 -27 -3 -83 -7 -122 -7 -40 -1 -73 -5
-73 -10 0 -18 41 -22 133 -14 50 4 97 8 102 8 6 0 11 -44 11 -110 1 -60 2
-138 3 -172 1 -65 14 -82 31 -39 11 29 19 128 19 244 l1 82 124 0 c125 0 150
6 120 31 -18 15 -50 16 -163 5 l-83 -9 7 23 c8 26 -7 40 -43 40 -20 0 -23 -4
-20 -32z"/>
</g>
<g id="part-4" class="char-part">
  <path d="M525 344 c-49 -8 -129 -15 -177 -16 l-87 -3 7 -25 c10 -35 5 -126 -9
-178 -10 -38 -10 -46 5 -60 15 -15 18 -15 26 -2 5 8 10 32 10 53 0 21 5 39 13
42 6 2 81 6 165 10 l152 6 0 -25 c0 -46 -18 -78 -40 -72 -11 3 -30 9 -41 12
-15 4 -10 -4 19 -30 77 -70 98 -43 105 141 5 128 5 133 -16 148 -12 8 -26 14
-32 14 -5 -1 -50 -8 -100 -15z m95 -44 c0 -11 0 -23 0 -27 0 -5 -21 -8 -47 -9
-27 0 -96 -4 -155 -8 l-108 -8 0 25 c0 24 4 26 63 31 34 3 78 8 97 9 19 2 61
5 93 5 51 2 57 0 57 -18z m10 -79 c0 -27 -3 -29 -37 -28 -21 1 -95 -3 -164 -7
l-127 -9 5 27 c5 25 7 26 87 27 44 1 106 4 136 9 99 13 100 13 100 -19z"/>
</g>
</g>
</svg>