<?xml version="1.0" standalone="no"?>
<!DOCTYPE svg PUBLIC "-//W3C//DTD SVG 20010904//EN"
 "http://www.w3.org/TR/2001/REC-SVG-20010904/DTD/svg10.dtd">
<svg version="1.0" xmlns="http://www.w3.org/2000/svg"
 width="96.000000pt" height="68.000000pt" viewBox="0 0 96.000000 68.000000"
 preserveAspectRatio="xMidYMid meet">
<metadata>
Created by potrace 1.16, written by Peter Selinger 2001-2019
Combined from part_0.svg through part_5.svg with named groups
</metadata>
<g transform="translate(0.000000,68.000000) scale(0.100000,-0.100000)" fill="#000000" stroke="none">
<g id="part-0" class="char-part">
  <path d="M600 539 c7 -90 18 -99 116 -99 86 0 107 14 79 56 l-17 26 -12 -23
c-9 -19 -21 -25 -60 -27 -51 -3 -76 9 -76 38 0 14 14 21 65 31 36 7 65 16 65
21 0 18 -32 20 -70 4 -55 -22 -60 -21 -53 14 5 27 3 30 -18 30 -24 0 -24 -1
-19 -71z"/>
  <path d="M503 563 c2 -24 -2 -28 -36 -34 -55 -9 -57 -19 -4 -19 43 0 47 -2 47
-24 0 -28 -16 -36 -73 -36 -40 0 -41 0 -19 -16 20 -14 27 -13 87 7 36 12 65
26 65 31 0 5 -4 6 -10 3 -6 -4 -10 17 -10 54 0 58 -1 61 -24 61 -21 0 -24 -5
-23 -27z"/>
  <path d="M295 543 c-38 -7 -83 -11 -100 -8 l-30 5 0 -133 c0 -148 -5 -140 80
-118 22 6 58 11 79 11 l39 0 -6 -76 c-7 -95 -23 -122 -69 -117 l-33 5 33 -31
c39 -35 51 -33 79 15 19 35 21 36 89 38 213 8 384 20 384 26 0 13 -58 19 -126
13 -61 -6 -66 -5 -62 13 2 14 16 22 51 28 54 11 63 26 13 26 -18 0 -39 7 -46
15 -17 21 -40 19 -40 -4 0 -13 -10 -20 -31 -25 -45 -9 -46 -8 -52 14 -3 12
-14 20 -27 20 -16 0 -20 -4 -16 -16 4 -10 -4 -19 -27 -29 l-32 -14 31 -1 c30
0 51 -21 39 -39 -2 -5 -32 -9 -65 -10 l-61 -2 7 63 c13 106 14 102 -36 114
-34 8 -45 15 -45 30 0 14 8 20 33 22 36 4 34 22 -3 22 -13 0 -26 4 -30 9 -7
12 22 41 41 41 8 0 12 5 9 10 -3 6 -15 10 -26 10 -12 0 -19 7 -19 20 0 15 9
21 40 26 41 7 54 28 23 36 -10 3 -49 -2 -88 -9z m-15 -67 c0 -19 -6 -25 -30
-28 -27 -4 -30 -2 -30 24 0 24 4 28 30 28 25 0 30 -4 30 -24z m0 -66 c0 -11
-6 -20 -12 -20 -7 0 -23 -3 -35 -6 -20 -5 -23 -2 -23 20 0 23 4 26 35 26 28 0
35 -4 35 -20z m0 -65 c0 -22 -4 -25 -35 -25 -31 0 -35 3 -35 25 0 22 4 25 35
25 31 0 35 -3 35 -25z m340 -147 c0 -26 -18 -40 -46 -36 -34 4 -40 30 -9 40
33 10 55 9 55 -4z"/>
  <path d="M570 404 c-58 -7 -113 -11 -122 -8 -17 5 -26 -11 -10 -18 4 -1 15
-29 25 -60 17 -56 29 -69 42 -48 3 6 48 10 101 10 l94 0 27 56 c15 31 22 59
17 63 -17 16 -70 17 -174 5z m120 -29 c0 -11 -11 -15 -40 -15 -29 0 -40 4 -40
15 0 11 11 15 40 15 29 0 40 -4 40 -15z m-125 -4 c7 -12 -26 -31 -53 -31 -20
0 -36 23 -25 34 10 10 71 7 78 -3z m115 -51 c-13 -24 -80 -29 -80 -7 0 22 11
27 52 27 36 0 38 -2 28 -20z m-117 4 c13 -13 -7 -34 -33 -34 -19 0 -29 6 -33
20 -4 17 0 20 27 20 18 0 35 -3 39 -6z"/>
  <path d="M290 253 c0 -11 33 -43 43 -43 4 0 7 9 7 20 0 11 -4 20 -9 20 -5 0
-16 3 -25 6 -9 3 -16 2 -16 -3z"/>
  <path d="M160 238 c1 -15 24 -48 34 -48 15 0 4 40 -14 50 -15 8 -20 8 -20 -2z"/>
  <path d="M220 242 c0 -10 33 -42 43 -42 15 0 6 30 -12 40 -24 12 -31 13 -31 2z"/>
  <path d="M102 215 c-15 -32 -15 -75 -1 -75 14 0 40 66 33 84 -9 23 -19 20 -32
-9z"/>
  <path d="M477 85 c-16 -20 -40 -41 -54 -46 -14 -5 -23 -12 -19 -16 9 -10 157
68 153 81 -2 6 -14 12 -28 14 -17 2 -32 -7 -52 -33z"/>
  <path d="M640 112 c0 -13 92 -92 107 -92 7 0 13 11 13 25 0 20 -10 30 -50 50
-52 26 -70 31 -70 17z"/>
</g>
<g id="part-1" class="char-part">
  <path d="M295 539 c-22 -4 -61 -8 -87 -8 l-46 -1 9 -35 c7 -23 6 -62 -1 -116
-14 -99 -9 -106 54 -90 25 6 63 11 85 11 34 0 62 14 50 24 -2 2 -35 -1 -73 -6
-38 -5 -72 -6 -76 -1 -4 4 -5 49 -1 98 l6 90 69 7 c89 9 118 16 111 28 -7 12
-43 11 -100 -1z"/>
</g>
<g id="part-2" class="char-part">
  <path d="M290 252 c0 -10 33 -42 43 -42 14 0 6 38 -9 44 -22 8 -34 8 -34 -2z"/>
  <path d="M220 242 c0 -14 39 -46 47 -38 4 4 2 15 -3 24 -12 19 -44 29 -44 14z"/>
  <path d="M102 215 c-17 -36 -15 -75 2 -75 17 0 39 60 30 83 -9 24 -19 21 -32
-8z"/>
  <path d="M160 235 c0 -14 21 -45 31 -45 18 0 5 45 -13 48 -10 2 -18 1 -18 -3z"/>
</g>
<g id="part-3" class="char-part">
  <path d="M506 558 c1 -18 3 -47 3 -65 1 -26 4 -30 21 -26 17 5 20 14 20 64 0
55 -1 59 -24 59 -21 0 -23 -4 -20 -32z"/>
</g>
<g id="part-4" class="char-part">
  <path d="M600 539 c4 -54 10 -74 25 -85 35 -26 186 -14 185 14 0 4 -7 16 -15
27 -15 19 -15 19 -31 -3 -12 -17 -25 -22 -63 -22 -50 0 -71 12 -71 41 0 14 14
21 60 30 33 6 63 16 66 20 11 18 -29 21 -62 5 -52 -24 -65 -21 -57 14 5 27 3
30 -18 30 -24 0 -24 -1 -19 -71z"/>
</g>
<g id="part-5" class="char-part">
  <path d="M505 110 c-3 -5 -3 -14 0 -20 3 -6 -1 -7 -9 -4 -9 3 -16 2 -16 -4 0
-5 -15 -19 -32 -31 -50 -32 -25 -25 38 10 35 20 51 35 44 39 -9 6 -9 9 1 13
10 4 9 6 -3 6 -9 1 -20 -3 -23 -9z"/>
  <path d="M664 99 c-3 -5 0 -8 8 -7 7 2 12 -3 10 -11 -2 -9 3 -11 13 -7 9 3 14
2 11 -3 -3 -4 4 -18 16 -30 22 -25 43 -16 32 13 -8 21 -82 58 -90 45z"/>
</g>
</g>
</svg>