<?xml version="1.0" standalone="no"?>
<!DOCTYPE svg PUBLIC "-//W3C//DTD SVG 20010904//EN"
 "http://www.w3.org/TR/2001/REC-SVG-20010904/DTD/svg10.dtd">
<svg version="1.0" xmlns="http://www.w3.org/2000/svg"
 width="96.000000pt" height="68.000000pt" viewBox="0 0 96.000000 68.000000"
 preserveAspectRatio="xMidYMid meet">
<metadata>
Created by potrace 1.16, written by Peter Selinger 2001-2019
Combined from part_0.svg through part_5.svg with named groups
</metadata>
<g transform="translate(0.000000,68.000000) scale(0.100000,-0.100000)" fill="#000000" stroke="none">
<g id="part-0" class="char-part">
  <path d="M425 580 c-82 -10 -156 -19 -162 -19 -7 -1 -13 -5 -13 -11 0 -6 32
-10 75 -10 l75 0 0 -45 0 -45 -87 -1 c-49 0 -110 -4 -138 -8 l-50 -7 27 -14
c24 -11 45 -11 133 1 114 16 111 17 105 -36 -4 -35 -19 -43 -96 -50 -98 -10
-95 -30 3 -29 79 0 77 4 36 -72 -19 -36 -85 -102 -148 -149 -37 -27 7 -16 63
15 54 32 136 129 148 177 9 35 33 43 126 43 83 0 116 9 104 28 -3 5 2 30 11
56 l17 45 80 -1 c48 -1 81 3 83 9 6 18 -58 34 -109 27 l-48 -7 17 47 c13 34
14 49 6 57 -19 19 -98 19 -258 -1z m178 -55 c-4 -52 -8 -55 -78 -55 l-67 0 7
29 c4 19 2 32 -7 38 -8 5 11 10 52 14 93 8 95 8 93 -26z m-29 -127 c-9 -31
-13 -33 -72 -42 -34 -5 -65 -7 -67 -4 -3 3 -2 23 3 44 l8 39 59 5 c33 3 64 2
69 -2 5 -4 5 -20 0 -40z"/>
</g>
<g id="part-1" class="char-part">
  <path d="M595 595 c-10 -4 -293 -35 -321 -35 -8 0 -14 -5 -14 -11 0 -12 126
-8 283 7 65 7 67 6 67 -16 0 -13 -9 -58 -21 -101 -24 -89 -9 -82 -199 -99 -63
-6 -126 -13 -140 -16 -52 -12 14 -22 91 -14 41 4 123 11 182 15 66 4 105 11
100 16 -6 6 5 52 28 119 29 85 34 111 25 120 -15 11 -66 21 -81 15z"/>
</g>
<g id="part-2" class="char-part">
  <path d="M413 543 c-7 -2 -13 -22 -13 -43 0 -45 -10 -49 -115 -51 -38 0 -90
-4 -115 -8 l-45 -7 27 -14 c22 -11 44 -11 110 -2 46 7 95 12 109 12 25 0 26
-2 19 -32 -33 -143 -79 -214 -195 -301 l-40 -30 33 7 c43 8 112 56 151 105 39
50 88 156 97 211 4 23 12 43 18 45 14 5 212 14 299 15 37 0 67 4 67 9 0 21
-61 29 -152 21 -51 -5 -119 -10 -151 -10 l-59 0 7 29 c5 23 2 32 -14 40 -11 6
-21 11 -23 10 -2 0 -9 -3 -15 -6z"/>
</g>
</g>
</svg>