<?xml version="1.0" standalone="no"?>
<!DOCTYPE svg PUBLIC "-//W3C//DTD SVG 20010904//EN"
 "http://www.w3.org/TR/2001/REC-SVG-20010904/DTD/svg10.dtd">
<svg version="1.0" xmlns="http://www.w3.org/2000/svg"
 width="96.000000pt" height="68.000000pt" viewBox="0 0 96.000000 68.000000"
 preserveAspectRatio="xMidYMid meet">
<metadata>
Created by potrace 1.16, written by Peter Selinger 2001-2019
Combined from part_0.svg through part_5.svg with named groups
</metadata>
<g transform="translate(0.000000,68.000000) scale(0.100000,-0.100000)" fill="#000000" stroke="none">
<g id="part-0" class="char-part">
  <path d="M540 520 c-85 -10 -161 -19 -168 -19 -10 -1 -10 -5 1 -21 35 -51 -17
-287 -85 -383 -28 -39 -6 -33 31 8 42 48 77 128 95 219 9 41 16 78 16 82 0 4
9 -1 20 -11 11 -10 20 -26 20 -36 0 -10 5 -40 12 -68 l11 -50 44 6 43 6 0 -37
c0 -36 0 -36 -44 -36 -61 0 -68 -18 -9 -22 46 -3 48 -4 48 -33 l0 -30 -80 -3
c-95 -3 -118 -9 -93 -23 10 -6 68 -5 155 1 76 5 174 10 218 10 63 0 76 2 66
13 -8 8 -46 12 -114 12 -100 0 -102 0 -105 24 -4 29 12 41 58 41 19 0 41 4 48
9 19 11 -39 22 -78 14 -29 -5 -30 -4 -28 26 2 24 8 33 26 38 13 3 29 0 35 -6
18 -18 35 -13 43 12 4 12 20 50 36 85 23 48 27 66 19 76 -19 22 -66 26 -138
11 -37 -8 -101 -15 -140 -15 l-73 0 0 29 c0 17 4 32 9 36 5 3 83 10 173 16 90
7 165 14 168 16 9 9 -26 23 -55 21 -16 0 -100 -9 -185 -18z m180 -130 c0 -29
-2 -30 -44 -30 -39 0 -44 3 -48 25 -3 13 -4 26 -2 28 2 2 24 4 49 6 44 2 45 1
45 -29z m-152 -22 c3 -26 1 -28 -32 -28 -20 0 -36 3 -36 8 0 4 -3 17 -6 30 -6
22 -4 23 32 20 34 -3 39 -6 42 -30z m135 -35 c3 -5 1 -18 -4 -30 -6 -17 -16
-23 -39 -23 -25 0 -30 4 -30 24 0 24 13 32 52 35 9 0 19 -2 21 -6z m-123 -39
c0 -22 -4 -25 -32 -22 -25 2 -34 8 -36 25 -3 17 3 22 25 25 37 5 43 1 43 -28z"/>
  <path d="M240 429 c-26 -11 -72 -17 -124 -18 -28 -1 -28 -1 -12 -26 9 -13 23
-52 31 -86 16 -72 31 -93 46 -66 8 13 23 17 63 17 52 0 53 1 54 29 0 16 10 48
21 72 27 55 26 67 -5 79 -31 12 -41 12 -74 -1z m17 -79 c-8 -64 -12 -70 -46
-70 -26 0 -30 5 -40 46 -7 26 -9 49 -7 52 5 4 58 17 90 21 5 0 6 -22 3 -49z"/>
</g>
<g id="part-1" class="char-part">
  <path d="M230 420 c-14 -4 -51 -8 -83 -9 l-58 -1 20 -26 c11 -14 24 -48 27
-75 7 -54 29 -91 41 -73 5 7 33 15 63 19 52 6 55 8 56 35 1 15 11 47 23 71 22
41 22 44 5 56 -20 14 -55 15 -94 3z m35 -57 c-13 -78 -14 -80 -46 -87 -41 -8
-47 -3 -54 47 -4 23 -7 46 -8 52 -2 10 39 22 86 24 27 1 28 0 22 -36z"/>
</g>
<g id="part-2" class="char-part">
  <path d="M535 519 c-82 -10 -159 -18 -170 -19 -19 -1 -19 -1 -2 -14 13 -10 17
-28 17 -83 0 -88 -20 -164 -67 -255 -51 -99 -51 -98 -5 -54 64 61 99 159 127
357 l5 36 68 6 c37 4 116 10 176 13 95 6 107 9 91 20 -23 17 -51 16 -240 -7z"/>
</g>
<g id="part-3" class="char-part">
  <path d="M645 435 c-27 -7 -88 -14 -134 -14 -82 -1 -84 -1 -67 -20 10 -10 24
-48 32 -83 20 -88 22 -92 37 -80 16 13 165 23 172 11 15 -24 36 -3 61 62 15
38 31 72 36 75 20 12 7 43 -23 53 -38 13 -48 13 -114 -4z m70 -45 c0 -22 -5
-25 -41 -28 -37 -3 -42 -1 -46 22 -6 29 4 36 52 33 30 -2 35 -5 35 -27z m-147
-22 c3 -25 0 -28 -28 -28 -24 0 -33 6 -40 26 -14 36 -14 36 28 32 32 -3 37 -7
40 -30z m142 -32 c0 -3 -4 -16 -10 -30 -7 -20 -16 -26 -40 -26 -25 0 -30 4
-30 24 0 18 7 26 23 29 33 6 57 8 57 3z m-132 -38 c-6 -42 -67 -33 -68 10 0 7
14 12 36 12 31 0 35 -3 32 -22z"/>
</g>
<g id="part-4" class="char-part">
  <path d="M580 215 c0 -35 0 -35 -44 -35 -25 0 -48 -4 -51 -10 -4 -6 13 -10 44
-10 l51 0 0 -35 0 -35 -95 0 c-52 0 -95 -4 -95 -9 0 -21 47 -22 225 -6 22 2
85 4 140 5 92 1 98 2 80 16 -16 13 -38 14 -117 9 l-98 -7 0 30 c0 34 13 42 71
42 21 0 39 5 39 10 0 9 -9 11 -80 14 -21 1 -25 6 -23 29 1 22 -2 27 -23 27
-21 0 -24 -5 -24 -35z"/>
</g>
</g>
</svg>