<?xml version="1.0" standalone="no"?>
<!DOCTYPE svg PUBLIC "-//W3C//DTD SVG 20010904//EN"
 "http://www.w3.org/TR/2001/REC-SVG-20010904/DTD/svg10.dtd">
<svg version="1.0" xmlns="http://www.w3.org/2000/svg"
 width="96.000000pt" height="68.000000pt" viewBox="0 0 96.000000 68.000000"
 preserveAspectRatio="xMidYMid meet">
<metadata>
Created by potrace 1.16, written by Peter Selinger 2001-2019
Combined from part_0.svg through part_5.svg with named groups
</metadata>
<g transform="translate(0.000000,68.000000) scale(0.100000,-0.100000)" fill="#000000" stroke="none">
<g id="part-0" class="char-part">
  <path d="M633 545 c-11 -25 -18 -45 -15 -45 8 0 76 52 84 64 7 10 -14 24 -38
25 -5 1 -19 -19 -31 -44z"/>
  <path d="M449 543 c32 -54 71 -73 71 -34 0 22 -35 51 -63 51 -14 0 -16 -4 -8
-17z"/>
  <path d="M295 509 c-16 -5 -50 -7 -76 -4 l-45 5 4 -120 c5 -146 -8 -220 -54
-296 -21 -34 -28 -54 -19 -54 23 0 82 76 100 129 15 46 18 50 37 40 17 -9 26
-6 55 23 l36 33 -7 -40 c-3 -22 -6 -60 -6 -84 l0 -44 -46 7 c-43 5 -45 5 -33
-11 74 -92 125 -80 136 31 l5 52 102 13 c55 7 139 14 186 17 115 6 170 14 170
23 0 16 -65 21 -120 11 -63 -12 -72 -7 -40 20 17 15 20 23 11 33 -14 17 -5 27
25 27 13 0 25 4 28 9 9 14 -41 19 -90 9 -31 -7 -49 -7 -56 0 -21 21 0 40 51
47 28 4 51 12 51 17 0 7 -18 8 -50 4 -45 -6 -50 -5 -50 13 0 15 11 22 50 30
28 6 58 11 65 11 8 0 15 5 15 10 0 6 -10 10 -21 10 -27 0 -273 -41 -278 -46
-2 -2 21 -4 51 -4 41 0 57 -4 62 -15 6 -17 2 -19 -59 -31 l-40 -8 50 -6 c42
-4 50 -8 51 -26 1 -19 -6 -23 -57 -28 -33 -4 -59 -11 -59 -16 0 -6 6 -10 14
-10 12 0 62 -69 54 -75 -2 -1 -28 -6 -59 -9 l-56 -7 -7 113 c-4 69 -3 127 4
148 8 29 7 37 -7 48 -19 14 -36 14 -78 1z m33 -80 l3 -46 -51 10 c-27 5 -50
15 -50 21 1 34 14 55 39 59 51 8 56 4 59 -44z m-25 -89 c22 0 27 -5 27 -25 0
-21 -8 -29 -42 -44 -24 -10 -46 -17 -50 -14 -5 2 -8 32 -8 65 l0 61 23 -21
c13 -12 35 -22 50 -22z m337 -50 c0 -4 -3 -22 -6 -39 -6 -30 -9 -31 -56 -31
-46 0 -50 2 -59 30 -6 17 -18 31 -27 31 -10 1 15 7 53 13 69 12 95 11 95 -4z"/>
  <path d="M585 158 c-33 -5 -81 -7 -107 -5 -45 4 -46 3 -33 -17 8 -12 19 -42
26 -69 10 -42 32 -62 41 -38 2 5 47 11 101 12 94 3 97 3 97 26 0 13 9 32 20
43 25 25 25 37 1 50 -23 12 -62 11 -146 -2z m85 -49 c-5 -18 -11 -33 -13 -35
-2 -2 -35 -7 -75 -10 l-71 -7 -11 28 c-6 16 -7 32 -3 36 10 10 53 16 125 18
l57 1 -9 -31z"/>
</g>
<g id="part-1" class="char-part">
  <path d="M285 500 c-11 -5 -38 -6 -60 -4 l-40 6 0 -134 c0 -147 -15 -215 -60
-282 -34 -50 -26 -55 17 -14 29 28 53 74 74 147 4 11 7 12 16 3 20 -20 44 -13
72 21 l28 32 -4 -82 c-4 -96 -13 -110 -59 -94 -18 6 -33 10 -35 8 -1 -1 16
-17 38 -36 86 -73 97 -48 101 228 l2 211 -35 -1 c-19 0 -44 -4 -55 -9z m45
-76 c0 -41 -3 -53 -12 -48 -7 4 -28 10 -48 14 -31 5 -35 9 -38 38 -4 35 17 50
71 51 26 1 27 0 27 -55z m-15 -80 c11 4 15 -3 15 -28 0 -30 -4 -36 -40 -50
-60 -24 -70 -21 -70 18 0 18 3 48 6 65 l7 31 34 -21 c18 -11 40 -18 48 -15z"/>
</g>
<g id="part-2" class="char-part">
  <path d="M629 540 l-26 -49 26 14 c41 23 83 64 76 75 -3 6 -16 10 -28 10 -16
0 -29 -13 -48 -50z"/>
  <path d="M449 542 c16 -30 50 -55 66 -49 20 8 19 19 -5 45 -26 28 -76 31 -61
4z"/>
  <path d="M560 460 c-134 -24 -143 -28 -76 -29 68 -1 246 28 246 41 0 12 -62 8
-170 -12z"/>
</g>
<g id="part-3" class="char-part">
  <path d="M558 433 c-10 -2 -18 -13 -18 -24 0 -14 -7 -19 -27 -20 -16 0 -37 -4
-48 -9 -15 -6 -6 -9 33 -9 48 -1 52 -3 52 -25 0 -21 -5 -24 -60 -30 -63 -7
-83 -26 -27 -26 42 0 258 28 277 36 28 12 -37 23 -77 13 -62 -14 -75 -12 -71
13 2 19 12 24 56 31 68 11 70 32 2 23 -46 -6 -50 -5 -50 14 0 20 -8 22 -42 13z"/>
</g>
<g id="part-4" class="char-part">
  <path d="M585 158 c-38 -5 -89 -8 -112 -6 -40 3 -41 2 -29 -17 7 -11 18 -41
26 -67 11 -43 33 -63 42 -39 2 5 48 11 103 14 55 3 102 6 105 7 3 0 -1 4 -9 9
-12 8 -10 16 13 46 27 35 27 37 10 50 -21 16 -48 17 -149 3z m85 -40 c0 -39
-14 -47 -88 -54 l-71 -7 -11 28 c-6 16 -7 32 -3 36 10 9 52 16 121 18 48 1 52
-1 52 -21z"/>
</g>
</g>
</svg>