<?xml version="1.0" standalone="no"?>
<!DOCTYPE svg PUBLIC "-//W3C//DTD SVG 20010904//EN"
 "http://www.w3.org/TR/2001/REC-SVG-20010904/DTD/svg10.dtd">
<svg version="1.0" xmlns="http://www.w3.org/2000/svg"
 width="96.000000pt" height="68.000000pt" viewBox="0 0 96.000000 68.000000"
 preserveAspectRatio="xMidYMid meet">
<metadata>
Created by potrace 1.16, written by Peter Selinger 2001-2019
Combined from part_0.svg through part_5.svg with named groups
</metadata>
<g transform="translate(0.000000,68.000000) scale(0.100000,-0.100000)" fill="#000000" stroke="none">
<g id="part-0" class="char-part">
  <path d="M535 588 c3 -18 6 -68 9 -110 4 -87 0 -92 -70 -86 l-36 3 -2 -100
c-2 -69 -8 -113 -20 -142 -18 -43 -16 -93 5 -93 13 0 48 78 49 108 0 19 5 22
44 22 23 0 71 3 105 6 l61 7 0 -53 0 -52 -40 4 c-22 2 -40 1 -40 -3 0 -9 77
-69 89 -69 5 0 17 7 25 16 13 12 16 41 16 149 0 83 5 144 12 160 11 24 9 29
-12 46 -21 15 -35 18 -82 13 l-56 -6 1 103 2 104 -32 3 c-31 3 -32 2 -28 -30z
m129 -204 c10 -4 16 -18 16 -40 0 -33 -1 -34 -39 -34 -21 0 -66 -3 -100 -6
l-61 -7 0 36 0 35 68 7 c59 5 94 10 99 14 1 0 8 -2 17 -5z m16 -123 c0 -28 -2
-29 -57 -35 -32 -4 -77 -9 -100 -13 l-43 -5 0 35 0 36 78 4 c42 1 87 4 100 5
18 2 22 -3 22 -27z"/>
  <path d="M697 514 c-27 -26 -46 -48 -44 -50 6 -6 141 54 145 64 2 6 -40 33
-51 32 -1 0 -24 -21 -50 -46z"/>
  <path d="M431 480 c35 -43 46 -48 55 -25 11 27 -23 65 -57 65 l-30 0 32 -40z"/>
  <path d="M275 475 c-16 -8 -56 -14 -89 -15 l-58 0 16 -25 c9 -13 21 -48 27
-77 13 -61 26 -83 43 -69 6 5 34 12 61 16 73 10 80 12 65 30 -9 11 -7 24 9 61
27 60 26 72 -5 84 -31 12 -31 12 -69 -5z m16 -85 c-5 -40 -9 -45 -39 -51 -28
-6 -33 -4 -37 17 -3 13 -7 35 -10 48 -5 22 -1 26 37 34 24 5 46 6 49 3 4 -3 4
-26 0 -51z"/>
</g>
<g id="part-1" class="char-part">
  <path d="M255 464 c-24 -9 -55 -13 -77 -10 -42 7 -44 5 -24 -27 8 -12 17 -43
21 -68 9 -63 16 -72 46 -60 13 5 44 12 69 16 42 5 45 8 46 35 1 17 9 49 19 71
16 35 17 42 4 50 -20 12 -58 10 -104 -7z m41 -66 c-4 -29 -13 -56 -19 -60 -19
-12 -67 -9 -67 5 0 6 -3 29 -6 49 -6 35 -5 37 27 46 69 20 72 18 65 -40z"/>
</g>
<g id="part-2" class="char-part">
  <path d="M534 598 c3 -13 6 -62 6 -110 0 -86 0 -88 24 -88 23 0 25 4 31 73 4
39 5 88 3 107 -3 32 -6 35 -37 38 -31 3 -33 2 -27 -20z"/>
  <path d="M689 509 c-26 -27 -44 -49 -41 -49 11 0 137 52 147 61 12 12 -3 26
-35 32 -20 4 -34 -5 -71 -44z"/>
  <path d="M419 492 c39 -56 71 -65 71 -22 0 23 -36 50 -68 50 l-23 0 20 -28z"/>
</g>
<g id="part-3" class="char-part">
  <path d="M585 404 c-38 -8 -88 -11 -110 -9 l-40 5 0 -92 c0 -65 -6 -109 -18
-146 -20 -55 -16 -102 7 -102 16 0 34 38 42 90 6 39 7 40 49 40 23 0 70 3 104
6 l61 7 0 -53 0 -53 -47 6 -48 5 45 -39 c51 -44 60 -46 83 -21 14 15 17 41 17
144 0 69 5 140 12 158 10 30 9 35 -12 52 -25 21 -46 21 -145 2z m93 -57 c3
-36 2 -37 -30 -37 -18 0 -63 -3 -100 -7 l-68 -6 0 32 c0 19 6 34 15 37 17 7
155 22 170 19 6 -1 11 -18 13 -38z m2 -86 c0 -28 -2 -29 -57 -35 -32 -4 -77
-9 -100 -13 l-43 -5 0 35 0 36 73 4 c39 1 84 4 100 5 24 2 27 -2 27 -27z"/>
</g>
</g>
</svg>