<?xml version="1.0" standalone="no"?>
<!DOCTYPE svg PUBLIC "-//W3C//DTD SVG 20010904//EN"
 "http://www.w3.org/TR/2001/REC-SVG-20010904/DTD/svg10.dtd">
<svg version="1.0" xmlns="http://www.w3.org/2000/svg"
 width="96.000000pt" height="68.000000pt" viewBox="0 0 96.000000 68.000000"
 preserveAspectRatio="xMidYMid meet">
<metadata>
Created by potrace 1.16, written by Peter Selinger 2001-2019
Combined from part_0.svg through part_5.svg with named groups
</metadata>
<g transform="translate(0.000000,68.000000) scale(0.100000,-0.100000)" fill="#000000" stroke="none">
<g id="part-0" class="char-part">
  <path d="M373 547 c-116 -12 -214 -25 -218 -29 -4 -3 2 -11 13 -17 35 -18 44
-70 37 -198 -4 -65 -13 -139 -20 -165 -12 -42 -12 -48 5 -63 17 -15 25 -16 67
-5 53 13 379 31 430 23 43 -7 103 5 103 21 0 7 -11 19 -25 26 -21 11 -64 11
-267 -3 -134 -9 -244 -15 -245 -13 -5 5 12 365 17 369 3 3 96 11 207 18 208
13 237 19 216 40 -19 19 -97 18 -320 -4z"/>
  <path d="M490 454 c-41 -7 -94 -13 -117 -13 -71 -1 -59 -20 14 -23 l68 -3 0
-35 c0 -34 -1 -35 -55 -46 l-55 -12 52 -1 c28 0 55 -6 58 -11 4 -6 4 -28 0
-49 l-6 -38 -62 -2 c-63 -2 -94 -15 -64 -26 8 -4 64 -2 123 4 59 6 141 11 182
11 67 0 73 2 61 16 -10 13 -30 15 -98 12 l-86 -3 -3 41 -3 42 60 7 c92 11 77
32 -17 26 -36 -3 -48 14 -38 54 5 21 13 25 44 26 20 1 48 4 62 9 l25 7 -28 12
c-16 6 -31 10 -35 10 -4 -1 -41 -7 -82 -15z"/>
</g>
<g id="part-1" class="char-part">
  <path d="M360 539 c-91 -10 -174 -18 -185 -19 -18 0 -18 -2 5 -20 25 -19 25
-20 24 -172 0 -97 -5 -167 -13 -192 -11 -33 -11 -40 3 -54 13 -14 23 -14 78
-3 35 7 163 15 286 18 122 3 222 10 222 14 0 5 -10 15 -23 23 -20 14 -46 14
-227 1 -113 -8 -222 -15 -242 -15 l-38 0 1 108 c1 126 11 258 22 268 4 4 98
13 209 21 111 7 203 15 206 17 2 3 1 9 -3 15 -9 15 -131 12 -325 -10z"/>
</g>
<g id="part-2" class="char-part">
  <path d="M540 460 c-19 -5 -74 -12 -123 -16 -48 -3 -90 -11 -93 -15 -11 -19
286 -2 305 16 15 16 -45 25 -89 15z"/>
</g>
<g id="part-3" class="char-part">
  <path d="M453 383 l2 -37 -48 -7 c-67 -10 -71 -19 -10 -19 45 0 52 -3 57 -23
14 -56 -10 -76 -89 -77 -22 0 -47 -4 -55 -10 -29 -18 18 -22 133 -11 62 6 146
11 186 11 66 0 72 2 60 16 -10 12 -30 15 -98 13 l-86 -3 -3 41 -3 42 61 7 c98
11 86 30 -16 24 -34 -1 -49 18 -39 51 5 16 1 19 -24 19 -29 0 -30 -2 -28 -37z"/>
</g>
</g>
</svg>