<?xml version="1.0" standalone="no"?>
<!DOCTYPE svg PUBLIC "-//W3C//DTD SVG 20010904//EN"
 "http://www.w3.org/TR/2001/REC-SVG-20010904/DTD/svg10.dtd">
<svg version="1.0" xmlns="http://www.w3.org/2000/svg"
 width="96.000000pt" height="68.000000pt" viewBox="0 0 96.000000 68.000000"
 preserveAspectRatio="xMidYMid meet">
<metadata>
Created by potrace 1.16, written by Peter Selinger 2001-2019
Combined from part_0.svg through part_5.svg with named groups
</metadata>
<g transform="translate(0.000000,68.000000) scale(0.100000,-0.100000)" fill="#000000" stroke="none">
<g id="part-0" class="char-part">
  <path d="M530 599 c-36 -5 -139 -18 -229 -29 -91 -11 -167 -23 -170 -26 -14
-13 29 -25 83 -21 l59 3 -7 -90 c-4 -50 -13 -136 -19 -191 l-12 -100 -44 -11
c-41 -9 -42 -11 -27 -27 10 -9 28 -17 41 -17 23 0 211 88 203 95 -2 2 -26 -2
-53 -10 -88 -27 -85 -31 -63 98 11 61 21 113 22 114 4 5 142 30 148 27 3 -2 4
-48 1 -102 -7 -118 7 -159 64 -195 50 -32 133 -49 194 -41 67 9 83 22 70 57
-6 16 -11 44 -11 63 0 41 -15 45 -25 6 -14 -59 -31 -72 -91 -72 -64 0 -109 17
-143 53 -21 23 -23 33 -19 104 3 64 8 84 28 111 21 28 22 34 10 42 -22 14 -68
12 -124 -5 -27 -8 -60 -15 -74 -15 -23 0 -24 3 -17 33 4 17 8 42 10 54 1 13 4
25 6 27 3 3 74 10 159 16 85 6 159 16 164 21 6 5 -5 15 -27 24 -20 8 -38 14
-39 14 -2 -1 -32 -5 -68 -10z"/>
  <path d="M320 334 c0 -13 55 -54 72 -54 24 0 33 19 17 35 -15 14 -89 30 -89
19z"/>
</g>
<g id="part-1" class="char-part">
  <path d="M540 594 c-8 -1 -102 -13 -207 -25 -106 -12 -193 -25 -193 -29 0 -14
53 -18 124 -8 39 5 143 15 230 21 99 8 161 16 163 23 6 19 -64 30 -117 18z"/>
</g>
<g id="part-2" class="char-part">
  <path d="M288 532 c-13 -2 -18 -13 -18 -41 0 -35 -24 -252 -35 -317 -5 -28
-10 -32 -45 -38 -22 -3 -40 -11 -40 -16 0 -13 34 -30 60 -30 19 0 200 85 200
94 0 2 -24 -2 -52 -10 -82 -22 -81 -22 -73 44 3 31 16 102 27 157 11 55 22
112 25 126 5 28 -13 39 -49 31z"/>
</g>
<g id="part-3" class="char-part">
  <path d="M430 439 c-30 -10 -67 -18 -82 -18 -19 -1 -28 -6 -28 -17 0 -10 6
-14 18 -10 9 3 42 8 72 11 l55 7 -3 -109 c-4 -132 10 -161 91 -198 69 -32 123
-39 192 -25 52 11 56 14 50 33 -4 12 -10 43 -12 70 -5 53 -17 61 -28 20 -14
-60 -31 -73 -91 -73 -66 0 -113 18 -142 55 -32 41 -31 136 3 200 14 26 24 49
22 52 -17 17 -68 18 -117 2z"/>
</g>
<g id="part-4" class="char-part">
  <path d="M340 311 c37 -32 80 -41 80 -16 0 18 -24 31 -75 39 l-40 7 35 -30z"/>
</g>
</g>
</svg>