<?xml version="1.0" standalone="no"?>
<!DOCTYPE svg PUBLIC "-//W3C//DTD SVG 20010904//EN"
 "http://www.w3.org/TR/2001/REC-SVG-20010904/DTD/svg10.dtd">
<svg version="1.0" xmlns="http://www.w3.org/2000/svg"
 width="96.000000pt" height="68.000000pt" viewBox="0 0 96.000000 68.000000"
 preserveAspectRatio="xMidYMid meet">
<metadata>
Created by potrace 1.16, written by Peter Selinger 2001-2019
Combined from part_0.svg through part_5.svg with named groups
</metadata>
<g transform="translate(0.000000,68.000000) scale(0.100000,-0.100000)" fill="#000000" stroke="none">
<g id="part-0" class="char-part">
  <path d="M282 528 c-14 -56 -61 -126 -139 -207 -34 -36 -61 -67 -59 -69 6 -6
68 28 107 59 20 16 49 29 64 29 23 0 26 -4 23 -27 -3 -25 -9 -29 -50 -37 -27
-5 -48 -13 -48 -17 0 -4 24 -9 53 -11 l52 -3 0 -55 c0 -53 -1 -55 -30 -61 -16
-4 -56 -7 -87 -8 -42 -1 -58 -5 -58 -15 0 -34 61 -53 104 -33 17 8 77 29 134
46 70 22 102 37 102 47 0 11 -6 13 -22 8 -13 -4 -38 -10 -55 -14 l-33 -8 0 54
c0 50 2 54 28 60 52 11 62 15 62 25 0 5 -20 9 -44 9 -40 0 -44 2 -42 24 1 21
9 27 45 36 33 8 41 14 33 22 -9 9 -30 9 -84 0 -40 -6 -74 -9 -76 -7 -2 2 13
28 34 58 l38 55 38 -30 c39 -32 68 -32 68 0 0 24 -16 38 -53 47 -15 4 -32 19
-40 34 -7 14 -22 27 -33 29 -18 3 -23 -5 -32 -40z"/>
  <path d="M685 498 c4 -13 9 -49 12 -80 l5 -58 -29 0 c-17 0 -51 -3 -77 -6
l-46 -7 0 50 c0 47 -2 51 -26 56 l-27 5 6 -59 5 -59 -41 -1 c-23 -1 -45 -1
-49 0 -5 0 -8 -3 -8 -8 0 -15 37 -23 70 -16 l30 7 1 -101 c1 -56 2 -106 3
-113 2 -18 25 -21 32 -4 5 12 20 16 64 16 52 0 60 -3 78 -27 20 -27 20 -27 41
-9 19 17 21 30 21 136 l0 118 58 7 c57 8 57 8 28 20 -17 7 -43 11 -59 8 l-30
-5 7 61 7 62 -35 14 c-46 20 -50 19 -41 -7z m18 -197 c-1 -18 -3 -34 -5 -36
-2 -1 -36 -6 -76 -10 l-73 -7 3 38 3 39 55 6 c91 10 95 9 93 -30z m-3 -106 l0
-45 -44 0 c-24 0 -58 -3 -75 -6 -31 -6 -31 -6 -31 34 l0 40 58 10 c96 16 92
17 92 -33z"/>
  <path d="M374 215 c-20 -48 -19 -49 26 -24 42 24 51 43 24 53 -28 11 -35 7
-50 -29z"/>
  <path d="M180 211 c0 -16 41 -61 56 -61 8 0 14 10 14 25 0 18 -7 28 -26 35
-31 12 -44 13 -44 1z"/>
</g>
<g id="part-1" class="char-part">
  <path d="M296 558 c-3 -7 -7 -26 -11 -42 -9 -43 -65 -122 -136 -193 -34 -35
-56 -63 -50 -63 15 0 92 52 110 74 17 21 67 21 75 0 16 -41 7 -53 -44 -60 -27
-4 -50 -10 -50 -15 0 -5 23 -9 50 -9 l50 0 0 -59 0 -58 -57 -12 c-31 -6 -72
-11 -92 -11 l-36 -1 24 -19 c13 -11 30 -20 38 -20 27 0 283 84 283 93 0 5 -10
7 -22 3 -13 -3 -40 -9 -60 -12 l-38 -7 0 49 c0 63 6 70 59 79 36 6 41 9 27 17
-10 6 -31 7 -47 4 -27 -5 -29 -3 -29 25 0 30 3 32 55 44 26 6 27 8 12 16 -10
6 -26 7 -37 4 -10 -3 -42 -10 -70 -14 -59 -9 -59 -8 -4 68 35 50 37 51 58 36
42 -31 66 -39 78 -27 15 15 -5 38 -48 54 -19 6 -34 17 -34 23 0 13 -32 45 -44
45 -3 0 -8 -6 -10 -12z"/>
  <path d="M377 215 c-19 -40 -17 -41 23 -20 33 17 36 25 18 43 -18 18 -23 15
-41 -23z"/>
  <path d="M180 211 c0 -15 50 -62 60 -56 19 12 10 35 -20 50 -33 17 -40 18 -40
6z"/>
</g>
<g id="part-2" class="char-part">
  <path d="M684 499 c13 -40 19 -126 10 -131 -5 -3 -39 -9 -76 -13 l-68 -7 0 51
c0 28 -4 51 -9 51 -5 0 -17 3 -27 7 -15 6 -16 0 -10 -55 l7 -62 -51 0 c-27 0
-50 -4 -50 -9 0 -13 46 -22 75 -15 l25 6 0 -110 c0 -112 10 -143 34 -109 8 10
30 16 61 17 71 3 71 3 83 -25 6 -14 18 -25 25 -25 26 0 37 50 37 160 l0 110
38 1 c20 0 46 4 57 9 18 7 18 9 -10 20 -16 6 -43 9 -59 6 l-28 -6 7 64 c6 61
5 65 -17 71 -64 18 -61 19 -54 -6z m16 -254 l0 -95 -52 0 c-29 0 -63 -3 -75
-6 -23 -6 -23 -5 -23 89 l0 96 58 4 c31 2 65 4 75 5 15 2 17 -8 17 -93z"/>
</g>
<g id="part-3" class="char-part">
  <path d="M583 253 c-21 -3 -33 -10 -33 -20 0 -13 8 -14 48 -9 79 11 102 17
102 27 0 9 -53 10 -117 2z"/>
</g>
</g>
</svg>