<?xml version="1.0" standalone="no"?>
<!DOCTYPE svg PUBLIC "-//W3C//DTD SVG 20010904//EN"
 "http://www.w3.org/TR/2001/REC-SVG-20010904/DTD/svg10.dtd">
<svg version="1.0" xmlns="http://www.w3.org/2000/svg"
 width="96.000000pt" height="68.000000pt" viewBox="0 0 96.000000 68.000000"
 preserveAspectRatio="xMidYMid meet">
<metadata>
Created by potrace 1.16, written by Peter Selinger 2001-2019
Combined from part_0.svg through part_5.svg with named groups
</metadata>
<g transform="translate(0.000000,68.000000) scale(0.100000,-0.100000)" fill="#000000" stroke="none">
<g id="part-0" class="char-part">
  <path d="M567 565 l6 -55 -44 -1 c-74 -1 -93 -17 -21 -18 55 -1 62 -3 62 -21
0 -15 -7 -20 -27 -21 -16 0 -37 -4 -48 -9 -15 -7 -9 -9 26 -9 38 -1 48 -5 52
-21 3 -11 2 -22 -1 -24 -4 -2 -46 -7 -94 -11 -48 -4 -85 -11 -82 -16 8 -13 87
-11 189 6 50 8 128 15 173 15 63 0 83 3 79 13 -4 13 -128 15 -187 4 -27 -6
-30 -4 -30 18 0 22 4 25 34 25 39 0 60 19 24 22 -13 0 -30 1 -38 2 -8 1 -16 9
-18 19 -3 13 3 17 25 17 39 0 73 11 73 22 0 6 -20 8 -45 6 l-45 -3 0 37 c0 38
-19 58 -54 58 -12 0 -13 -10 -9 -55z"/>
  <path d="M305 510 c-11 -5 -50 -9 -87 -9 -38 -1 -68 -4 -68 -7 0 -3 8 -17 19
-30 10 -13 22 -41 26 -61 9 -52 22 -65 45 -50 11 6 21 9 23 7 3 -3 7 -49 9
-102 l5 -97 -30 -11 c-16 -5 -32 -10 -33 -10 -2 0 -4 33 -4 74 0 73 -6 88 -38
92 -10 2 -11 -17 -6 -85 l7 -87 -37 4 c-45 5 -47 -11 -5 -37 31 -19 32 -19 83
4 28 12 83 32 121 45 71 23 102 40 73 40 -8 0 -30 -5 -47 -11 -42 -15 -56 -2
-47 44 6 32 11 36 46 42 52 9 52 25 0 25 l-40 0 0 40 c0 38 1 40 31 40 22 0
30 4 26 13 -3 7 6 36 19 63 22 45 23 50 7 62 -19 14 -68 15 -98 2z m25 -65 c0
-29 -5 -37 -26 -45 -39 -15 -62 -12 -68 10 -3 11 -8 29 -11 39 -5 17 0 20 37
24 24 2 49 4 56 5 7 1 12 -11 12 -33z"/>
  <path d="M638 335 c-2 -3 -42 -7 -87 -10 l-83 -4 0 -94 c-1 -101 4 -119 27
-110 8 3 15 3 15 1 0 -9 -38 -49 -76 -79 -32 -26 -35 -30 -14 -24 14 4 56 25
93 47 56 32 66 42 56 54 -10 12 -2 14 53 14 35 0 69 -5 74 -10 6 -6 18 -8 27
-4 25 9 25 209 1 218 -19 7 -79 8 -86 1z m50 -36 c2 -12 -12 -18 -61 -27 -97
-18 -127 -16 -127 8 0 21 15 27 85 33 71 7 100 3 103 -14z m2 -63 c0 -9 -23
-16 -72 -21 -105 -12 -113 -11 -116 7 -2 13 13 17 85 25 95 10 103 9 103 -11z
m-2 -57 c-2 -18 -11 -22 -48 -25 -25 -2 -66 -6 -92 -9 -45 -4 -48 -3 -48 20 0
23 3 24 73 28 39 1 82 4 95 5 19 2 23 -2 20 -19z"/>
  <path d="M689 60 c58 -53 91 -64 91 -30 0 24 -34 47 -97 66 l-48 13 54 -49z"/>
</g>
<g id="part-1" class="char-part">
  <path d="M290 505 c-19 -8 -56 -14 -81 -14 l-47 -1 19 -37 c10 -21 19 -46 19
-58 0 -37 12 -45 55 -35 22 5 59 10 82 10 33 0 41 3 37 15 -3 8 4 35 16 61 15
29 19 49 13 55 -16 16 -76 18 -113 4z m45 -62 c-4 -21 -9 -41 -11 -45 -7 -11
-94 -10 -94 1 0 5 -3 22 -6 39 -7 34 2 38 80 41 l38 1 -7 -37z"/>
</g>
<g id="part-2" class="char-part">
  <path d="M295 165 c-44 -13 -106 -24 -137 -24 -66 -1 -76 -16 -28 -44 26 -16
33 -16 57 -4 15 8 74 29 131 48 97 32 129 50 80 48 -13 -1 -59 -12 -103 -24z"/>
</g>
<g id="part-3" class="char-part">
  <path d="M564 568 l1 -53 -47 -5 c-68 -8 -71 -20 -5 -20 50 0 57 -2 57 -20 0
-15 -7 -20 -27 -21 -16 0 -37 -4 -48 -9 -15 -6 -8 -9 28 -9 40 -1 47 -4 47
-21 0 -15 7 -20 25 -20 20 0 25 5 25 25 0 21 5 25 28 25 15 0 34 5 42 10 16
10 11 12 -45 14 -11 1 -21 9 -23 17 -2 12 9 18 49 22 28 4 54 9 58 12 12 13
-26 24 -61 18 l-38 -6 0 41 c0 41 -11 52 -50 52 -15 0 -18 -8 -16 -52z"/>
</g>
<g id="part-4" class="char-part">
  <path d="M615 390 c-71 -10 -149 -19 -172 -19 -43 -1 -59 -16 -25 -23 9 -2 69
4 132 14 63 9 154 17 202 17 82 1 117 11 82 25 -23 9 -74 6 -219 -14z"/>
</g>
<g id="part-5" class="char-part">
  <path d="M476 67 l-49 -50 41 23 c23 13 39 27 37 31 -3 4 2 10 11 13 10 4 13
2 9 -7 -4 -6 3 -1 15 13 12 14 18 19 14 11 -5 -9 -3 -12 4 -7 19 12 14 24 -10
23 -14 0 -42 -19 -72 -50z"/>
  <path d="M698 59 c23 -22 47 -37 52 -34 6 3 10 1 10 -5 0 -6 5 -8 10 -5 19 12
-9 44 -56 65 -26 11 -49 20 -53 20 -3 0 13 -19 37 -41z"/>
</g>
</g>
</svg>