<?xml version="1.0" standalone="no"?>
<!DOCTYPE svg PUBLIC "-//W3C//DTD SVG 20010904//EN"
 "http://www.w3.org/TR/2001/REC-SVG-20010904/DTD/svg10.dtd">
<svg version="1.0" xmlns="http://www.w3.org/2000/svg"
 width="96.000000pt" height="68.000000pt" viewBox="0 0 96.000000 68.000000"
 preserveAspectRatio="xMidYMid meet">
<metadata>
Created by potrace 1.16, written by Peter Selinger 2001-2019
Combined from part_0.svg through part_5.svg with named groups
</metadata>
<g transform="translate(0.000000,68.000000) scale(0.100000,-0.100000)" fill="#000000" stroke="none">
<g id="part-0" class="char-part">
  <path d="M564 573 c2 -10 7 -48 11 -84 7 -75 5 -78 -60 -75 l-40 2 0 -130 c0
-89 4 -130 12 -133 6 -2 14 1 18 6 9 16 25 13 25 -3 0 -8 -24 -39 -53 -70 -52
-55 -55 -72 -7 -39 68 45 130 97 130 108 0 20 126 25 145 5 25 -25 32 0 38
131 5 125 4 127 -18 139 -16 9 -43 11 -84 6 l-61 -7 0 29 c0 29 1 30 65 37 36
3 68 11 71 17 5 8 -14 9 -63 5 l-70 -7 5 31 c5 34 -8 49 -46 49 -17 0 -22 -4
-18 -17z m164 -189 c3 -24 -7 -28 -93 -39 -27 -3 -65 -8 -83 -11 -32 -4 -33
-3 -30 28 3 31 5 33 53 39 28 4 73 6 100 5 43 -1 50 -4 53 -22z m0 -99 c-2 -1
-51 -6 -110 -10 -104 -7 -106 -6 -101 14 5 21 12 23 148 39 58 7 60 6 63 -16
2 -13 2 -25 0 -27z m5 -37 c2 -7 2 -21 -1 -30 -4 -18 -3 -18 -189 -22 -23 -1
-28 3 -28 24 0 27 -12 25 187 38 14 1 28 -4 31 -10z"/>
  <path d="M248 487 c4 -82 4 -84 -19 -90 -13 -4 -36 -7 -51 -7 l-28 0 7 -77 c6
-86 7 -88 22 -78 6 3 11 30 11 60 0 69 7 85 36 85 23 0 24 -2 23 -82 -1 -46
-4 -112 -8 -148 -7 -69 3 -120 23 -120 31 0 36 25 36 192 l0 168 35 0 36 0 -3
-57 c-3 -53 -5 -58 -26 -57 l-22 1 22 -24 c43 -46 62 -25 71 79 7 82 -2 94
-69 84 l-45 -6 3 78 3 77 -31 3 -30 3 4 -84z"/>
  <path d="M660 135 c0 -3 8 -13 18 -24 9 -10 32 -35 51 -55 18 -20 39 -35 45
-33 19 6 19 37 -1 59 -28 31 -113 71 -113 53z"/>
</g>
<g id="part-1" class="char-part">
  <path d="M246 553 c14 -32 16 -176 5 -333 -10 -146 -6 -190 18 -190 22 0 30
54 24 172 -2 68 0 173 5 233 9 97 8 112 -6 123 -9 6 -24 12 -35 12 -15 0 -17
-4 -11 -17z"/>
</g>
<g id="part-2" class="char-part">
  <path d="M265 405 c-38 -7 -81 -11 -94 -8 -24 6 -24 5 -18 -48 4 -30 7 -69 7
-86 0 -23 5 -33 15 -33 12 0 15 14 15 64 0 39 5 68 13 74 6 5 47 13 90 17 l78
7 -3 -58 c-3 -56 -4 -59 -28 -56 l-25 3 28 -28 c38 -38 60 -23 68 46 4 28 10
62 13 76 12 45 -31 54 -159 30z"/>
</g>
<g id="part-3" class="char-part">
  <path d="M560 563 c6 -15 12 -54 16 -86 4 -47 9 -58 22 -55 10 2 19 16 22 33
5 29 8 30 73 39 37 4 67 12 67 16 0 15 -27 18 -66 9 -65 -15 -69 -13 -69 28 0
36 -1 38 -37 41 -36 3 -37 3 -28 -25z"/>
</g>
<g id="part-4" class="char-part">
  <path d="M605 424 c-49 -8 -99 -12 -110 -10 -19 5 -20 0 -20 -94 0 -79 3 -100
14 -100 8 0 19 6 25 14 14 17 232 33 221 16 -4 -6 4 -10 18 -10 23 0 24 3 30
88 8 122 3 125 -178 96z m123 -41 c-3 -27 -5 -28 -98 -41 -52 -6 -100 -10
-106 -8 -19 7 -4 56 20 61 35 8 78 12 134 14 53 1 53 1 50 -26z m2 -72 l0 -29
-106 -7 c-58 -4 -108 -5 -111 -2 -9 10 8 46 20 42 9 -3 183 18 195 24 1 0 2
-12 2 -28z"/>
</g>
<g id="part-5" class="char-part">
  <path d="M517 123 c-12 -18 -25 -33 -28 -33 -4 0 -14 -11 -23 -26 l-17 -25 40
27 c22 14 38 31 34 37 -3 6 -1 7 5 3 6 -4 26 7 44 23 l32 29 -32 -1 c-25 -1
-38 -10 -55 -34z"/>
  <path d="M685 118 c11 -13 37 -40 57 -61 36 -36 38 -37 38 -14 0 27 -28 57
-54 57 -10 0 -14 5 -10 12 4 7 3 8 -4 4 -7 -4 -12 -3 -12 2 0 6 -8 13 -17 16
-14 6 -14 4 2 -16z"/>
</g>
</g>
</svg>