<?xml version="1.0" standalone="no"?>
<!DOCTYPE svg PUBLIC "-//W3C//DTD SVG 20010904//EN"
 "http://www.w3.org/TR/2001/REC-SVG-20010904/DTD/svg10.dtd">
<svg version="1.0" xmlns="http://www.w3.org/2000/svg"
 width="96.000000pt" height="68.000000pt" viewBox="0 0 96.000000 68.000000"
 preserveAspectRatio="xMidYMid meet">
<metadata>
Created by potrace 1.16, written by Peter Selinger 2001-2019
Combined from part_0.svg through part_5.svg with named groups
</metadata>
<g transform="translate(0.000000,68.000000) scale(0.100000,-0.100000)" fill="#000000" stroke="none">
<g id="part-0" class="char-part">
  <path d="M246 611 c-4 -5 -2 -21 4 -36 5 -14 10 -53 10 -85 l0 -58 -65 -7
c-86 -10 -83 -31 4 -28 l62 2 -3 -51 -3 -51 -87 -31 c-90 -33 -99 -45 -47 -64
21 -8 35 -5 75 19 27 16 52 29 57 29 9 0 9 -37 1 -80 -7 -31 -8 -32 -45 -26
-22 3 -39 4 -39 1 0 -12 87 -85 101 -85 25 0 32 25 38 134 l6 99 37 20 c47 23
40 42 -8 22 l-34 -14 0 43 c0 43 0 43 41 50 35 6 39 9 29 21 -7 8 -26 15 -42
15 -29 0 -30 0 -23 43 4 23 11 50 16 59 13 25 11 32 -12 46 -28 18 -66 24 -73
13z"/>
  <path d="M560 508 c-47 -12 -93 -17 -122 -14 -49 5 -58 0 -35 -23 19 -19 14
-285 -7 -335 -16 -38 -9 -66 16 -66 12 0 150 111 144 117 -2 2 -25 -10 -52
-27 -27 -17 -52 -26 -57 -21 -4 4 -5 35 -1 69 l6 60 57 7 c31 4 58 7 61 8 3 0
15 -17 27 -39 53 -94 178 -204 232 -204 22 0 23 3 17 38 -3 20 -6 53 -6 72 l0
35 -23 -40 c-12 -22 -29 -41 -38 -43 -21 -4 -94 71 -130 133 -16 28 -29 53
-29 56 0 3 32 9 71 12 68 6 88 11 77 22 -8 8 -71 8 -115 0 -39 -7 -43 -6 -43
12 0 10 -5 24 -12 31 -9 9 -5 12 18 13 16 1 34 2 39 4 6 1 17 3 25 4 12 1 12
4 -3 15 -17 13 -17 16 5 60 19 41 20 48 8 56 -20 13 -42 11 -130 -12z m70 -40
c0 -46 -7 -52 -71 -65 -82 -17 -93 -13 -97 30 l-3 35 58 12 c32 6 63 13 68 15
33 12 45 4 45 -27z m-75 -127 c18 -35 16 -37 -52 -46 -57 -7 -61 -3 -47 53 5
18 13 22 45 22 32 0 41 -5 54 -29z"/>
</g>
<g id="part-1" class="char-part">
  <path d="M254 583 c3 -16 9 -56 12 -90 l7 -61 -49 -7 c-86 -11 -96 -24 -21
-24 l67 -1 -2 -52 -3 -52 -87 -31 c-49 -16 -86 -34 -85 -40 2 -5 15 -14 30
-19 21 -8 35 -4 77 22 28 18 53 32 56 32 2 0 4 -27 4 -60 0 -68 -12 -81 -58
-61 -22 10 -17 3 21 -36 46 -46 49 -47 63 -29 10 14 14 48 14 118 l0 98 43 21
c23 12 37 24 30 26 -7 2 -21 0 -32 -6 -35 -19 -43 -13 -39 32 3 39 6 43 41 51
56 14 45 33 -15 27 -22 -3 -24 41 -6 102 11 35 10 41 -7 53 -10 8 -30 14 -43
14 -21 0 -24 -3 -18 -27z"/>
</g>
<g id="part-2" class="char-part">
  <path d="M580 513 c-25 -8 -78 -15 -118 -16 -61 -1 -71 -4 -66 -17 4 -8 10
-35 14 -59 4 -23 12 -46 18 -50 11 -6 167 3 222 13 14 2 30 5 35 6 6 0 2 7 -7
14 -16 12 -16 15 2 52 24 46 25 60 4 68 -23 9 -54 6 -104 -11z m50 -41 c0 -42
-19 -58 -84 -71 -86 -16 -86 -16 -86 28 l0 40 58 11 c31 6 62 13 67 15 31 11
45 4 45 -23z"/>
</g>
<g id="part-3" class="char-part">
  <path d="M433 362 c-7 -4 -14 -46 -18 -97 -3 -50 -13 -110 -22 -133 -14 -40
-14 -45 0 -60 17 -16 26 -10 142 93 l40 35 -62 -34 c-35 -19 -65 -31 -68 -26
-3 4 -1 55 4 112 9 103 6 123 -16 110z"/>
</g>
<g id="part-4" class="char-part">
  <path d="M554 341 c9 -16 16 -32 16 -34 0 -3 -27 -7 -60 -11 -33 -4 -60 -12
-60 -18 0 -10 81 -5 113 7 7 3 23 -15 37 -42 51 -96 175 -203 235 -203 14 0
16 6 11 31 -3 17 -6 50 -7 73 l0 41 -22 -43 c-13 -26 -28 -42 -39 -42 -32 0
-136 120 -152 176 -6 20 -2 22 64 28 69 7 89 19 50 29 -11 3 -37 1 -57 -4 -59
-13 -71 -11 -75 14 -2 17 -11 23 -36 25 l-33 3 15 -30z"/>
</g>
</g>
</svg>