<?xml version="1.0" standalone="no"?>
<!DOCTYPE svg PUBLIC "-//W3C//DTD SVG 20010904//EN"
 "http://www.w3.org/TR/2001/REC-SVG-20010904/DTD/svg10.dtd">
<svg version="1.0" xmlns="http://www.w3.org/2000/svg"
 width="96.000000pt" height="68.000000pt" viewBox="0 0 96.000000 68.000000"
 preserveAspectRatio="xMidYMid meet">
<metadata>
Created by potrace 1.16, written by Peter Selinger 2001-2019
Combined from part_0.svg through part_5.svg with named groups
</metadata>
<g transform="translate(0.000000,68.000000) scale(0.100000,-0.100000)" fill="#000000" stroke="none">
<g id="part-0" class="char-part">
  <path d="M546 557 c-4 -23 -22 -74 -42 -111 -19 -38 -33 -71 -30 -73 2 -2 17
12 33 31 25 32 33 36 76 36 52 0 51 1 36 -52 -11 -43 -13 -44 -63 -23 -44 18
-48 7 -6 -17 17 -9 30 -21 30 -25 0 -15 -83 -63 -108 -63 -14 0 -21 -4 -16
-11 10 -16 73 -2 116 27 45 29 49 29 74 6 56 -52 104 -68 104 -34 0 10 -17 28
-40 42 -77 47 -73 42 -56 75 18 34 21 75 5 75 -5 0 -7 5 -4 10 3 6 21 10 40
10 39 0 65 8 65 21 0 13 -39 11 -121 -6 -40 -9 -74 -13 -77 -11 -2 3 8 28 22
56 21 41 25 55 15 66 -24 29 -46 17 -53 -29z"/>
  <path d="M288 568 c-38 -6 -68 -14 -68 -18 0 -9 36 -20 68 -20 17 0 22 -6 22
-24 0 -27 -16 -36 -65 -36 -18 0 -47 -3 -64 -6 -25 -5 -29 -9 -20 -20 6 -8 29
-14 50 -14 l39 0 0 -85 0 -85 -50 0 c-54 0 -64 -10 -25 -28 19 -9 37 -7 92 12
37 13 80 26 96 30 26 6 27 5 27 -33 0 -40 13 -61 25 -41 4 6 7 67 8 135 l0
123 34 7 c55 10 37 25 -32 25 -58 0 -65 2 -65 19 0 24 13 33 59 40 18 3 34 11
35 16 1 14 -84 15 -166 3z m106 -116 c9 -14 -8 -28 -50 -40 -53 -16 -54 -15
-54 8 0 13 9 22 28 26 15 3 32 7 37 9 19 6 34 5 39 -3z m-4 -81 c0 -15 -9 -20
-47 -23 -27 -3 -52 -2 -56 2 -17 14 25 40 64 40 32 0 39 -4 39 -19z m0 -50 c0
-25 -4 -27 -63 -35 -47 -7 -48 -7 -45 16 2 19 11 24 48 29 25 3 48 7 53 7 4 1
7 -7 7 -17z"/>
  <path d="M470 180 c20 -38 70 -53 70 -20 0 21 -27 40 -60 40 -18 0 -19 -3 -10
-20z"/>
  <path d="M680 195 c0 -16 82 -86 98 -83 28 5 25 34 -5 56 -29 20 -93 39 -93
27z"/>
  <path d="M320 166 c0 -19 58 -94 90 -117 28 -21 111 -39 174 -39 58 0 141 24
143 41 3 13 -86 79 -106 79 -6 0 -2 -13 7 -29 9 -16 14 -32 11 -35 -3 -3 -37
-8 -76 -12 -106 -10 -179 22 -208 93 -14 34 -35 45 -35 19z"/>
  <path d="M198 127 c-22 -51 -23 -87 -4 -87 22 0 46 46 46 90 0 53 -20 52 -42
-3z"/>
</g>
<g id="part-1" class="char-part">
  <path d="M308 566 c-81 -13 -98 -26 -35 -26 46 0 47 -1 47 -30 0 -35 -2 -36
-92 -45 -38 -4 -68 -10 -68 -15 0 -17 51 -19 127 -6 43 8 104 18 136 22 77 9
75 28 -3 22 l-61 -4 3 30 c3 27 8 31 46 39 23 4 40 12 37 18 -8 11 -49 10
-137 -5z"/>
</g>
<g id="part-2" class="char-part">
  <path d="M626 417 c-3 -19 -12 -41 -19 -51 -12 -16 -15 -16 -51 -1 -51 22 -56
13 -9 -15 l38 -22 -35 -30 c-19 -16 -47 -32 -63 -35 -15 -3 -30 -10 -34 -16
-11 -18 80 3 124 29 l42 24 49 -35 c27 -19 57 -35 66 -35 31 0 16 36 -24 60
-77 47 -73 40 -49 89 20 43 20 45 3 58 -26 19 -31 17 -38 -20z"/>
</g>
<g id="part-3" class="char-part">
  <path d="M466 188 c16 -29 38 -48 56 -48 24 0 24 36 -1 50 -28 14 -64 13 -55
-2z"/>
  <path d="M712 155 c49 -48 83 -57 83 -20 0 22 -44 50 -95 60 l-35 7 47 -47z"/>
  <path d="M325 158 c15 -51 57 -100 103 -121 85 -39 302 -25 302 19 0 7 -17 23
-37 34 -21 11 -48 27 -61 36 -21 16 -22 16 -16 -2 4 -11 12 -25 17 -32 19 -25
-11 -37 -91 -37 -97 0 -147 23 -180 83 -25 45 -48 57 -37 20z"/>
  <path d="M212 158 c-17 -22 -38 -82 -34 -100 8 -39 46 -14 62 41 14 50 -3 88
-28 59z"/>
</g>
</g>
</svg>