<?xml version="1.0" standalone="no"?>
<!DOCTYPE svg PUBLIC "-//W3C//DTD SVG 20010904//EN"
 "http://www.w3.org/TR/2001/REC-SVG-20010904/DTD/svg10.dtd">
<svg version="1.0" xmlns="http://www.w3.org/2000/svg"
 width="96.000000pt" height="68.000000pt" viewBox="0 0 96.000000 68.000000"
 preserveAspectRatio="xMidYMid meet">
<metadata>
Created by potrace 1.16, written by Peter Selinger 2001-2019
Combined from part_0.svg through part_5.svg with named groups
</metadata>
<g transform="translate(0.000000,68.000000) scale(0.100000,-0.100000)" fill="#000000" stroke="none">
<g id="part-0" class="char-part">
  <path d="M267 583 c-4 -3 -7 -15 -7 -26 0 -34 -62 -137 -127 -209 -35 -39 -61
-73 -59 -75 7 -8 61 24 96 57 l33 31 -6 -88 c-4 -48 -9 -108 -13 -133 -4 -33
-1 -50 10 -65 15 -19 17 -19 29 -3 17 22 32 295 17 313 -6 8 6 34 40 83 28 40
50 79 50 87 0 23 -48 44 -63 28z"/>
  <path d="M620 544 c0 -61 -35 -139 -83 -187 -28 -28 -13 -32 27 -7 48 29 80
24 84 -14 2 -17 1 -50 -3 -74 l-7 -44 -37 36 c-20 20 -46 36 -56 36 -17 0 -15
-3 9 -19 16 -11 37 -33 48 -49 l19 -30 -33 -27 c-18 -16 -51 -37 -73 -47 l-40
-19 40 6 c22 3 62 17 89 31 l49 25 39 -38 c36 -35 41 -37 95 -35 32 1 61 6 65
10 5 5 -22 18 -59 30 -38 12 -81 32 -97 45 -28 23 -28 23 -13 67 28 83 30 109
12 116 -23 9 0 24 37 24 33 0 58 9 58 21 0 13 -56 10 -122 -5 -31 -8 -59 -12
-62 -9 -3 3 3 18 13 32 9 14 28 46 40 71 l23 44 -22 18 c-30 25 -40 23 -40 -8z"/>
  <path d="M366 518 c4 -7 18 -27 31 -45 13 -17 20 -34 15 -37 -4 -2 -31 -8 -60
-12 -54 -7 -62 -24 -11 -24 26 0 29 -3 29 -31 0 -40 -22 -87 -66 -138 -20 -23
-31 -41 -25 -41 18 0 76 57 96 94 14 25 26 36 42 36 19 0 23 -5 23 -32 -1 -18
-11 -58 -24 -88 -20 -49 -26 -55 -49 -52 -15 1 -27 0 -27 -3 0 -14 34 -55 46
-55 22 0 63 63 86 131 11 35 24 68 29 73 14 15 -21 46 -52 46 -33 0 -45 15
-29 35 10 12 9 16 -4 21 -26 10 -9 22 42 29 67 9 89 25 35 25 -35 0 -43 3 -43
18 0 24 -27 47 -63 56 -22 5 -27 4 -21 -6z"/>
</g>
<g id="part-1" class="char-part">
  <path d="M265 558 c-13 -61 -47 -118 -116 -198 -38 -44 -65 -80 -60 -80 4 0
31 18 59 40 28 23 53 36 57 31 3 -6 1 -57 -6 -113 -6 -57 -11 -114 -11 -127 0
-30 18 -49 33 -34 14 14 29 282 17 305 -6 13 4 37 43 95 l51 77 -22 18 c-31
25 -37 23 -45 -14z"/>
</g>
<g id="part-2" class="char-part">
  <path d="M360 525 c0 -4 14 -24 30 -45 17 -21 27 -41 22 -44 -4 -2 -32 -8 -60
-12 -29 -3 -52 -10 -52 -15 0 -13 42 -11 123 6 40 9 83 18 96 21 39 8 3 25
-36 18 -28 -5 -33 -3 -33 13 0 11 -8 27 -17 36 -20 17 -73 33 -73 22z"/>
</g>
<g id="part-3" class="char-part">
  <path d="M410 330 c0 -5 7 -10 15 -10 22 0 19 -55 -8 -120 -23 -55 -32 -61
-71 -45 -17 8 -17 7 -1 -24 9 -18 23 -35 31 -38 22 -8 61 33 80 86 9 25 25 65
35 88 16 39 16 42 0 57 -19 18 -81 22 -81 6z"/>
</g>
<g id="part-4" class="char-part">
  <path d="M649 308 c0 -29 -4 -61 -7 -71 -7 -15 -12 -13 -42 18 -19 19 -42 35
-51 35 -13 0 -4 -13 29 -44 l47 -45 -25 -27 c-14 -14 -47 -37 -75 -50 -27 -13
-44 -24 -37 -24 33 0 101 24 128 45 l29 24 43 -42 c41 -40 45 -42 99 -40 31 2
61 7 65 11 5 5 -18 16 -49 26 -66 21 -133 55 -133 69 0 5 10 40 21 79 23 74
19 87 -23 88 -15 0 -18 -9 -19 -52z"/>
</g>
</g>
</svg>