<?xml version="1.0" standalone="no"?>
<!DOCTYPE svg PUBLIC "-//W3C//DTD SVG 20010904//EN"
 "http://www.w3.org/TR/2001/REC-SVG-20010904/DTD/svg10.dtd">
<svg version="1.0" xmlns="http://www.w3.org/2000/svg"
 width="96.000000pt" height="68.000000pt" viewBox="0 0 96.000000 68.000000"
 preserveAspectRatio="xMidYMid meet">
<metadata>
Created by potrace 1.16, written by Peter Selinger 2001-2019
Combined from part_0.svg through part_5.svg with named groups
</metadata>
<g transform="translate(0.000000,68.000000) scale(0.100000,-0.100000)" fill="#000000" stroke="none">
<g id="part-0" class="char-part">
  <path d="M580 590 c-25 -5 -80 -11 -122 -15 -43 -4 -78 -11 -78 -16 0 -6 4 -8
9 -5 4 3 15 0 24 -7 10 -8 17 -39 22 -99 l7 -88 -36 0 c-20 0 -36 -4 -36 -10
0 -17 47 -22 97 -12 26 6 98 14 160 18 71 4 110 11 106 17 -4 6 -51 7 -129 3
l-124 -7 0 26 c0 22 4 25 38 25 69 0 142 12 135 23 -3 5 2 16 13 24 15 11 16
17 8 31 -10 14 -25 16 -103 13 -86 -3 -91 -2 -91 17 0 17 9 21 63 27 106 11
172 26 156 36 -16 10 -57 10 -119 -1z m40 -119 c0 -14 -10 -20 -46 -25 -88
-12 -102 -9 -96 19 4 24 8 25 73 25 61 0 69 -2 69 -19z"/>
  <path d="M240 581 c0 -18 54 -61 76 -61 19 0 24 5 24 25 0 19 -7 26 -37 34
-46 13 -63 14 -63 2z"/>
  <path d="M190 469 c38 -32 73 -35 78 -7 4 21 -33 38 -81 38 l-32 -1 35 -30z"/>
  <path d="M300 414 c-25 -20 -62 -45 -82 -55 -43 -22 -44 -26 -22 -57 22 -31
38 -28 67 16 14 20 41 53 60 74 48 51 32 66 -23 22z"/>
  <path d="M433 282 l6 -30 -112 -6 c-62 -4 -127 -8 -145 -9 -45 -2 -49 -13 -9
-26 24 -8 54 -8 103 -1 38 5 85 10 104 9 l35 0 -35 -30 c-30 -27 -67 -47 -200
-107 -24 -11 -24 -11 5 -5 51 10 117 34 180 64 33 16 62 29 66 29 3 0 5 -30 5
-66 -1 -53 3 -69 17 -78 26 -16 37 8 35 77 0 31 1 60 4 63 3 3 36 -15 74 -40
67 -45 69 -46 151 -46 89 0 111 13 41 24 -57 9 -212 61 -243 82 -14 9 -25 23
-25 30 0 11 30 14 155 14 99 0 155 4 155 10 0 23 -56 31 -181 24 l-127 -7 -4
24 c-2 18 -10 25 -32 27 -27 3 -28 2 -23 -26z"/>
</g>
<g id="part-1" class="char-part">
  <path d="M278 550 c37 -34 50 -37 59 -14 8 22 -22 44 -61 44 l-31 -1 33 -29z"/>
  <path d="M176 492 c-7 -12 62 -55 79 -48 33 12 10 36 -47 50 -15 3 -29 3 -32
-2z"/>
  <path d="M300 409 c-19 -17 -52 -39 -72 -50 -41 -21 -46 -35 -23 -65 14 -18
16 -18 49 21 51 58 99 125 89 125 -4 -1 -24 -14 -43 -31z"/>
</g>
<g id="part-2" class="char-part">
  <path d="M496 582 c-111 -14 -117 -16 -92 -29 19 -10 26 -22 26 -42 0 -15 3
-56 6 -90 l7 -61 -37 0 c-20 0 -36 -4 -36 -10 0 -17 47 -22 97 -11 27 5 102
13 167 17 85 5 113 10 101 17 -11 6 -64 7 -136 3 l-119 -7 0 89 0 90 98 11
c121 15 140 20 121 32 -18 11 -57 9 -203 -9z"/>
</g>
<g id="part-3" class="char-part">
  <path d="M432 282 l4 -29 -65 -7 c-36 -3 -93 -6 -126 -7 -33 -1 -73 -4 -90 -8
l-30 -7 36 -12 c27 -10 58 -10 125 -2 112 12 127 12 119 0 -12 -19 -119 -82
-189 -111 -59 -24 -64 -28 -31 -23 51 8 158 48 200 74 18 11 37 20 42 20 5 0
7 -28 5 -62 -3 -45 1 -69 12 -83 24 -32 40 -4 46 76 l5 70 70 -46 c70 -45 70
-45 160 -45 96 1 98 9 5 30 -112 24 -244 83 -237 104 2 7 60 12 155 14 86 1
152 7 152 12 0 24 -44 30 -174 24 l-134 -7 -4 24 c-2 18 -10 25 -32 27 -26 3
-28 1 -24 -26z"/>
</g>
</g>
</svg>