<?xml version="1.0" standalone="no"?>
<!DOCTYPE svg PUBLIC "-//W3C//DTD SVG 20010904//EN"
 "http://www.w3.org/TR/2001/REC-SVG-20010904/DTD/svg10.dtd">
<svg version="1.0" xmlns="http://www.w3.org/2000/svg"
 width="96.000000pt" height="68.000000pt" viewBox="0 0 96.000000 68.000000"
 preserveAspectRatio="xMidYMid meet">
<metadata>
Created by potrace 1.16, written by Peter Selinger 2001-2019
Combined from part_0.svg through part_5.svg with named groups
</metadata>
<g transform="translate(0.000000,68.000000) scale(0.100000,-0.100000)" fill="#000000" stroke="none">
<g id="part-0" class="char-part">
  <path d="M460 555 c-23 -30 -46 -55 -51 -55 -5 0 -9 -5 -9 -10 0 -6 20 1 43
15 28 16 59 25 86 25 l43 0 -19 -32 c-19 -32 -21 -33 -99 -36 -43 -2 -80 -5
-81 -6 -2 -1 7 -25 19 -53 21 -50 22 -51 57 -46 l36 5 -25 -21 c-14 -12 -40
-29 -59 -38 -45 -22 -21 -29 30 -9 47 19 49 19 49 5 0 -13 -61 -69 -75 -69 -5
0 -21 -9 -35 -21 l-25 -20 45 17 c25 10 61 28 80 41 42 28 50 29 50 6 -1 -20
-80 -87 -143 -120 -23 -12 -36 -22 -30 -23 24 0 114 39 148 64 18 14 36 26 39
26 11 0 6 -79 -6 -105 -8 -19 -19 -25 -42 -25 l-31 0 32 -31 c35 -36 53 -34
80 8 13 20 18 47 18 100 0 40 3 73 6 73 3 0 18 -14 35 -31 55 -58 89 -72 152
-65 31 4 61 11 65 15 10 10 -45 31 -83 31 -35 0 -172 68 -167 83 2 6 29 19 60
30 61 20 69 30 38 47 -26 14 -24 15 -67 -25 -46 -41 -59 -43 -99 -11 -30 24
-30 24 -11 45 11 12 15 22 10 22 -5 1 9 5 31 9 22 5 56 7 75 4 32 -4 39 1 74
43 36 44 37 48 20 60 -21 15 -53 16 -106 4 -21 -5 -38 -5 -38 -1 0 5 18 23 41
41 36 28 39 33 23 42 -11 6 -34 6 -66 -2 -68 -15 -77 -14 -48 9 21 17 23 21
10 30 -26 17 -37 11 -80 -45z m210 -101 c0 -3 -7 -18 -16 -32 -13 -23 -22 -27
-60 -27 -43 0 -44 1 -44 33 l0 32 60 0 c33 0 60 -3 60 -6z m-162 -37 c3 -21
-2 -28 -22 -33 -40 -10 -61 -1 -64 28 -3 23 1 27 30 31 48 5 53 3 56 -26z"/>
  <path d="M277 562 c-8 -50 -68 -147 -141 -228 -47 -53 -54 -65 -35 -59 25 8
43 20 98 70 l33 30 -6 -110 c-3 -60 -9 -128 -12 -151 -7 -46 17 -84 40 -64 18
14 30 328 14 347 -8 10 0 29 36 83 25 38 46 74 46 78 0 14 -35 42 -52 42 -10
0 -18 -13 -21 -38z"/>
</g>
<g id="part-1" class="char-part">
  <path d="M280 553 c-21 -65 -70 -142 -132 -209 -71 -76 -56 -85 24 -14 30 27
58 46 62 43 8 -9 -2 -159 -15 -230 -11 -56 -1 -93 25 -93 15 0 21 51 29 238 4
71 1 96 -10 107 -12 13 -7 25 38 91 49 73 51 78 33 91 -29 21 -42 15 -54 -24z"/>
</g>
<g id="part-2" class="char-part">
  <path d="M490 599 c0 -5 -23 -35 -51 -65 -29 -30 -48 -54 -44 -54 5 0 28 12
52 26 32 18 55 24 84 22 l41 -3 -22 -27 c-32 -42 1 -37 53 7 22 19 44 35 49
35 17 0 7 17 -15 27 -17 8 -32 7 -56 -3 -18 -8 -42 -14 -53 -14 -19 0 -19 1 3
20 21 17 22 21 9 30 -20 13 -50 13 -50 -1z"/>
</g>
<g id="part-3" class="char-part">
  <path d="M565 475 c-44 -8 -106 -14 -137 -14 -33 -1 -58 -5 -58 -11 0 -8 36
-88 44 -96 0 -1 44 4 96 11 52 8 106 11 120 9 20 -4 34 4 70 40 32 33 41 49
33 57 -17 17 -81 18 -168 4z m105 -21 c0 -19 -36 -64 -48 -59 -8 3 -27 5 -43
5 -26 0 -29 4 -29 30 l0 30 60 0 c33 0 60 -3 60 -6z m-162 -36 c3 -24 -1 -28
-33 -34 -27 -5 -40 -3 -46 7 -17 27 -10 48 19 52 46 7 57 3 60 -25z"/>
</g>
<g id="part-4" class="char-part">
  <path d="M616 295 c-54 -46 -54 -50 2 -99 77 -68 100 -79 156 -72 28 4 58 11
66 16 15 9 15 9 -83 30 -53 11 -119 41 -156 69 l-24 18 66 22 c37 13 67 26 67
30 0 4 -10 12 -23 18 -19 9 -29 5 -71 -32z"/>
</g>
</g>
</svg>