<?xml version="1.0" standalone="no"?>
<!DOCTYPE svg PUBLIC "-//W3C//DTD SVG 20010904//EN"
 "http://www.w3.org/TR/2001/REC-SVG-20010904/DTD/svg10.dtd">
<svg version="1.0" xmlns="http://www.w3.org/2000/svg"
 width="96.000000pt" height="68.000000pt" viewBox="0 0 96.000000 68.000000"
 preserveAspectRatio="xMidYMid meet">
<metadata>
Created by potrace 1.16, written by Peter Selinger 2001-2019
Combined from part_0.svg through part_5.svg with named groups
</metadata>
<g transform="translate(0.000000,68.000000) scale(0.100000,-0.100000)" fill="#000000" stroke="none">
<g id="part-0" class="char-part">
  <path d="M508 553 l-3 -48 -47 -5 c-63 -8 -73 -20 -16 -20 24 0 47 -3 51 -6 3
-3 -4 -21 -15 -40 -19 -32 -21 -33 -41 -19 -24 17 -47 20 -47 7 0 -5 9 -20 21
-33 l21 -24 -31 -26 c-38 -31 -40 -43 -5 -27 31 14 39 5 49 -58 6 -41 8 -43
43 -46 l37 -3 3 -67 c2 -58 1 -67 -13 -62 -21 8 -19 -9 4 -37 18 -22 21 -23
36 -8 12 12 16 38 18 103 l2 88 38 -4 c37 -4 37 -3 57 50 11 29 20 57 20 62 0
13 17 13 25 0 8 -12 105 -13 124 -1 16 11 8 16 -49 31 -101 26 -120 45 -64 63
38 13 39 14 24 32 -17 21 -27 19 -52 -10 -12 -14 -25 -25 -30 -25 -13 0 -88
52 -88 60 0 4 25 11 55 15 30 3 57 10 60 15 8 13 -44 18 -87 8 -48 -10 -54 -7
-38 22 14 25 1 43 -37 54 -20 6 -22 3 -25 -41z m98 -124 c63 -48 89 -76 61
-66 -9 3 -59 0 -110 -7 -56 -9 -96 -11 -101 -5 -6 6 -5 9 2 9 7 0 28 25 47 55
20 30 38 55 42 55 3 0 30 -18 59 -41z m34 -109 c0 -17 -7 -20 -44 -20 -24 0
-64 -3 -90 -6 -42 -6 -46 -5 -46 14 0 18 7 21 53 25 126 8 127 8 127 -13z
m-10 -60 c0 -18 -7 -20 -70 -20 -38 0 -73 0 -77 -1 -5 0 -9 7 -11 15 -3 16 23
21 111 24 41 2 47 -1 47 -18z"/>
  <path d="M304 562 c-12 -39 -37 -80 -48 -78 -6 2 -28 11 -48 21 -41 20 -64 13
-32 -9 64 -47 61 -42 39 -66 -11 -13 -37 -33 -57 -46 -21 -14 -38 -29 -38 -34
0 -13 60 12 100 40 43 31 71 22 70 -23 -1 -28 -144 -157 -191 -172 -11 -4 -19
-9 -16 -11 9 -10 114 37 147 66 19 16 41 35 48 40 16 14 17 -103 1 -150 -12
-32 -13 -32 -58 -26 l-46 6 42 -42 c39 -38 44 -41 68 -30 35 16 56 71 62 162
6 86 -8 170 -36 209 l-19 26 39 40 c41 42 47 57 27 72 -27 21 -49 23 -54 5z"/>
  <path d="M392 129 c-35 -61 -21 -62 52 -5 16 13 17 18 6 31 -20 24 -33 18 -58
-26z"/>
  <path d="M692 125 c47 -50 78 -59 78 -22 0 26 -61 67 -99 67 -18 0 -16 -6 21
-45z"/>
</g>
<g id="part-1" class="char-part">
  <path d="M301 538 c-6 -17 -18 -40 -27 -49 -15 -17 -17 -17 -47 0 -73 40 -89
36 -26 -6 l42 -27 -57 -53 c-31 -29 -54 -53 -51 -53 10 0 69 32 98 54 26 19
28 19 44 3 14 -14 17 -37 16 -137 -1 -148 -12 -174 -71 -164 l-37 6 39 -38
c42 -41 53 -40 90 10 18 23 21 45 24 149 3 114 2 125 -22 169 l-25 47 42 47
c39 44 40 47 22 60 -29 21 -42 17 -54 -18z"/>
</g>
<g id="part-2" class="char-part">
  <path d="M240 306 c-25 -27 -72 -66 -104 -88 -33 -21 -53 -38 -45 -38 25 0
133 58 171 92 32 28 37 37 30 58 -7 25 -7 25 -52 -24z"/>
</g>
<g id="part-3" class="char-part">
  <path d="M515 588 c-2 -7 -6 -29 -7 -48 -3 -34 -5 -35 -51 -42 -65 -9 -72 -18
-14 -18 26 0 47 -2 47 -5 0 -20 -45 -87 -85 -127 -26 -27 -43 -48 -37 -48 25
0 110 70 139 115 18 28 37 51 42 53 9 3 48 -29 111 -88 54 -51 70 -60 113 -60
23 0 53 3 66 7 20 5 12 10 -50 32 -78 28 -212 108 -204 122 3 4 30 11 60 14
30 4 55 11 55 15 0 10 -44 21 -62 16 -7 -2 -26 -7 -42 -11 -28 -6 -28 -5 -23
24 5 24 2 34 -16 46 -26 18 -36 19 -42 3z"/>
</g>
<g id="part-4" class="char-part">
  <path d="M690 438 l-24 -31 26 6 c15 4 39 12 54 17 26 10 26 11 8 25 -27 20
-36 18 -64 -17z"/>
  <path d="M390 422 c0 -5 9 -17 20 -27 16 -15 23 -16 33 -6 9 10 8 15 -7 27
-22 16 -46 19 -46 6z"/>
</g>
<g id="part-5" class="char-part">
  <path d="M539 207 c-6 -7 -5 -96 1 -92 5 3 6 -4 3 -15 -3 -11 -9 -23 -14 -26
-5 -3 -9 -10 -9 -15 0 -6 5 -7 12 -3 8 5 9 2 5 -9 -3 -10 -3 -17 2 -17 11 0
34 56 28 67 -3 4 -2 29 2 55 7 40 5 47 -11 51 -10 3 -19 4 -19 4z"/>
  <path d="M696 129 c40 -41 78 -52 72 -21 -2 9 -11 16 -21 16 -9 -1 -15 2 -12
6 7 11 -16 27 -48 32 l-29 6 38 -39z"/>
  <path d="M420 140 c6 -11 13 -20 15 -20 3 0 5 9 5 20 0 11 -7 20 -15 20 -13 0
-14 -4 -5 -20z"/>
  <path d="M393 114 c-12 -27 -2 -32 17 -9 8 10 10 19 4 25 -5 5 -14 -1 -21 -16z"/>
</g>
</g>
</svg>