<?xml version="1.0" standalone="no"?>
<!DOCTYPE svg PUBLIC "-//W3C//DTD SVG 20010904//EN"
 "http://www.w3.org/TR/2001/REC-SVG-20010904/DTD/svg10.dtd">
<svg version="1.0" xmlns="http://www.w3.org/2000/svg"
 width="96.000000pt" height="68.000000pt" viewBox="0 0 96.000000 68.000000"
 preserveAspectRatio="xMidYMid meet">
<metadata>
Created by potrace 1.16, written by Peter Selinger 2001-2019
Combined from part_0.svg through part_5.svg with named groups
</metadata>
<g transform="translate(0.000000,68.000000) scale(0.100000,-0.100000)" fill="#000000" stroke="none">
<g id="part-0" class="char-part">
  <path d="M560 596 c0 -36 -12 -46 -57 -46 -34 0 -25 -24 11 -28 25 -3 27 -6
21 -33 -9 -40 11 -38 36 5 19 32 24 34 90 41 82 8 89 28 12 33 -46 3 -50 5
-46 24 7 23 -11 38 -44 38 -19 0 -23 -5 -23 -34z"/>
  <path d="M304 571 c9 -16 16 -32 16 -36 0 -3 -25 -5 -55 -5 -43 0 -55 -3 -55
-15 0 -30 59 -40 114 -19 11 4 19 -2 26 -21 12 -33 36 -27 32 7 -2 21 4 28 29
37 37 13 31 29 -10 23 -26 -4 -30 -1 -33 24 -3 26 -8 29 -41 32 l-38 3 15 -30z"/>
  <path d="M418 468 c-3 -31 -6 -33 -45 -36 -57 -4 -55 -22 2 -22 41 0 45 -2 45
-24 0 -22 -5 -23 -77 -30 -42 -3 -94 -6 -115 -6 -27 0 -37 -4 -32 -11 7 -12
124 -8 204 6 34 6 34 6 15 -10 -18 -16 -154 -83 -199 -99 -10 -3 -16 -9 -13
-12 3 -4 43 6 88 22 65 23 83 26 87 15 2 -7 13 -22 24 -33 18 -18 31 -20 138
-17 117 4 143 10 124 29 -7 7 -43 7 -100 3 -99 -9 -144 -6 -144 8 0 5 7 9 15
9 23 0 145 51 145 60 0 5 -9 12 -21 15 -14 5 -28 -1 -47 -20 -25 -25 -61 -45
-82 -45 -23 0 8 44 44 63 35 18 57 22 148 22 58 0 110 4 114 8 19 18 -24 27
-98 21 -43 -3 -78 -4 -78 -1 0 2 18 16 40 31 40 26 40 27 22 47 -19 20 -46 18
-55 -4 -3 -7 -25 -12 -53 -12 -41 0 -49 3 -53 20 -3 19 -18 35 -33 35 -4 0 -8
-15 -10 -32z m88 -73 c-37 -31 -46 -31 -46 0 0 22 4 25 38 25 l37 0 -29 -25z"/>
  <path d="M525 190 c-27 -5 -77 -9 -110 -9 l-60 -1 1 -73 c1 -73 9 -107 25
-107 5 0 9 7 9 15 0 24 188 22 206 -2 23 -32 37 0 40 87 2 78 1 82 -23 91 -13
5 -27 8 -31 8 -4 -1 -29 -5 -57 -9z m55 -45 c0 -23 -4 -25 -44 -25 -24 0 -64
-3 -90 -6 -44 -7 -46 -6 -46 19 0 24 4 26 53 30 130 9 127 9 127 -18z m0 -70
c0 -24 -3 -25 -59 -25 -32 0 -73 -3 -90 -6 -28 -6 -31 -4 -31 19 0 28 11 31
133 35 44 2 47 0 47 -23z"/>
</g>
<g id="part-1" class="char-part">
  <path d="M570 606 c0 -39 -10 -56 -34 -56 -11 0 -27 -4 -34 -9 -11 -7 -11 -9
2 -14 9 -4 23 -4 32 0 13 5 15 2 9 -18 -4 -13 -10 -31 -12 -39 -3 -8 12 4 34
28 36 41 40 42 96 42 31 0 57 4 57 9 0 13 -26 21 -66 21 -30 0 -34 3 -29 19 4
14 0 23 -14 30 -30 17 -41 13 -41 -13z"/>
  <path d="M300 595 c0 -3 7 -17 16 -31 9 -13 15 -27 12 -29 -3 -3 -32 -9 -64
-13 -59 -8 -59 -9 -31 -22 22 -11 37 -11 68 -3 38 10 40 9 55 -18 19 -38 26
-37 22 3 -3 29 0 33 32 42 l35 10 -40 5 c-29 5 -41 11 -44 26 -2 11 -8 23 -15
27 -13 9 -46 11 -46 3z"/>
</g>
<g id="part-2" class="char-part">
  <path d="M417 466 l6 -36 -52 0 c-28 0 -51 -4 -51 -10 0 -5 23 -10 50 -10 43
0 50 -3 50 -20 0 -13 7 -20 20 -20 15 0 20 7 20 25 0 22 4 25 39 25 23 0 44 6
52 16 12 14 8 16 -36 13 -45 -4 -49 -2 -55 21 -4 15 -14 26 -27 28 -20 3 -21
0 -16 -32z"/>
</g>
<g id="part-3" class="char-part">
  <path d="M514 319 c-20 -22 -66 -49 -84 -49 -5 0 -10 7 -10 15 0 13 -4 14 -20
5 -11 -6 -20 -17 -20 -25 0 -8 9 -24 20 -35 17 -17 33 -20 114 -20 108 0 158
8 153 24 -3 8 -42 10 -125 7 -86 -2 -122 0 -122 8 0 6 8 11 18 11 17 0 141 46
152 57 7 6 -22 23 -41 23 -9 0 -24 -9 -35 -21z"/>
</g>
<g id="part-4" class="char-part">
  <path d="M535 188 c-33 -4 -87 -8 -120 -9 l-60 -1 2 -81 c2 -83 16 -117 34
-84 15 25 186 25 205 0 22 -30 34 -3 38 84 3 75 2 82 -18 90 -12 5 -48 6 -81
1z m45 -43 c0 -23 -4 -25 -44 -25 -24 0 -64 -3 -90 -6 -44 -7 -46 -6 -46 19 0
24 4 26 53 30 130 9 127 9 127 -18z m5 -65 c-1 -11 -3 -21 -6 -23 -2 -3 -43
-7 -91 -10 -87 -5 -88 -5 -88 19 0 25 16 29 131 32 50 2 56 0 54 -18z"/>
</g>
</g>
</svg>