<?xml version="1.0" standalone="no"?>
<!DOCTYPE svg PUBLIC "-//W3C//DTD SVG 20010904//EN"
 "http://www.w3.org/TR/2001/REC-SVG-20010904/DTD/svg10.dtd">
<svg version="1.0" xmlns="http://www.w3.org/2000/svg"
 width="96.000000pt" height="68.000000pt" viewBox="0 0 96.000000 68.000000"
 preserveAspectRatio="xMidYMid meet">
<metadata>
Created by potrace 1.16, written by Peter Selinger 2001-2019
Combined from part_0.svg through part_5.svg with named groups
</metadata>
<g transform="translate(0.000000,68.000000) scale(0.100000,-0.100000)" fill="#000000" stroke="none">
<g id="part-0" class="char-part">
  <path d="M247 553 c3 -27 0 -81 -6 -120 l-12 -70 -46 -7 c-25 -3 -59 -6 -76
-6 -30 0 -30 0 -11 -21 16 -18 27 -20 67 -16 49 6 55 1 37 -34 -9 -16 -5 -22
22 -39 18 -11 38 -22 43 -23 17 -7 -27 -47 -90 -82 -58 -34 -59 -35 -27 -35
20 0 57 15 98 40 l66 40 35 -30 c40 -36 57 -35 61 3 3 22 -4 31 -32 48 -33 19
-34 22 -22 42 8 12 22 43 31 70 13 34 25 49 41 53 23 6 34 24 14 24 -5 0 -19
9 -30 20 -11 11 -32 20 -46 20 -23 0 -26 -4 -22 -25 5 -21 1 -25 -29 -31 -19
-4 -36 -5 -38 -3 -2 3 8 46 22 97 29 103 26 114 -29 127 l-27 7 6 -49z m93
-218 c0 -9 -9 -33 -20 -55 -19 -38 -21 -39 -51 -28 -28 10 -30 14 -25 41 8 38
8 38 48 47 48 11 48 11 48 -5z"/>
  <path d="M576 555 c-27 -19 -64 -39 -82 -45 -45 -15 -43 -30 2 -23 44 7 54 -5
54 -69 l0 -47 -60 -7 c-33 -4 -63 -10 -65 -15 -8 -12 32 -21 78 -17 37 3 42 1
39 -17 -9 -54 -65 -142 -120 -191 -43 -39 -18 -36 38 4 48 35 67 58 99 124 31
63 34 63 66 -6 20 -45 81 -135 104 -153 17 -15 89 -17 110 -4 11 7 1 16 -39
36 -29 15 -72 45 -95 68 -43 43 -111 144 -103 153 3 2 42 9 88 14 46 5 85 12
88 15 20 20 -69 27 -142 12 l-39 -8 5 55 c4 52 3 56 -21 64 -23 8 -19 10 42
27 37 10 67 22 67 26 0 10 -41 39 -55 39 -5 0 -32 -16 -59 -35z"/>
</g>
<g id="part-1" class="char-part">
  <path d="M248 492 c-6 -133 -12 -142 -93 -142 -68 0 -83 -12 -40 -32 19 -8 35
-8 62 0 20 6 39 10 40 8 2 -2 -2 -15 -8 -29 -14 -32 -4 -48 41 -67 17 -7 30
-16 30 -19 0 -13 -45 -48 -99 -77 -29 -15 -48 -30 -42 -32 15 -5 122 45 149
70 l22 22 33 -32 c37 -36 67 -42 67 -13 0 18 -36 55 -63 64 -8 3 -6 15 9 43
12 21 27 56 34 77 8 26 17 37 31 37 10 0 19 5 19 10 0 6 -4 10 -10 10 -5 0
-19 9 -30 20 -11 11 -29 20 -40 20 -16 0 -19 -5 -14 -29 6 -27 4 -29 -35 -33
-50 -4 -50 -3 -15 111 25 81 25 86 8 98 -10 7 -25 13 -35 13 -14 0 -17 -15
-21 -98z m102 -148 c0 -3 -10 -28 -22 -55 -19 -46 -23 -50 -47 -44 -40 10 -50
25 -40 62 9 32 22 39 82 42 15 0 27 -2 27 -5z"/>
</g>
<g id="part-2" class="char-part">
  <path d="M585 564 c-16 -13 -54 -36 -82 -49 -29 -14 -53 -28 -53 -31 0 -7 68
6 130 26 30 10 67 21 83 24 31 7 35 23 10 42 -27 20 -54 16 -88 -12z"/>
</g>
<g id="part-3" class="char-part">
  <path d="M547 436 l6 -65 -62 -7 c-34 -4 -64 -10 -67 -15 -8 -13 43 -22 86
-15 l39 6 -16 -47 c-20 -59 -43 -94 -102 -155 -55 -59 -43 -61 32 -8 44 32 63
54 90 110 l35 69 47 -83 c67 -120 94 -146 147 -146 75 0 76 14 6 53 -34 19
-73 46 -84 59 -29 30 -104 139 -104 149 0 4 19 10 43 13 151 19 143 17 122 33
-20 14 -83 13 -144 -3 -23 -7 -23 -6 -20 52 l4 59 -31 3 -32 3 5 -65z"/>
</g>
</g>
</svg>