<?xml version="1.0" standalone="no"?>
<!DOCTYPE svg PUBLIC "-//W3C//DTD SVG 20010904//EN"
 "http://www.w3.org/TR/2001/REC-SVG-20010904/DTD/svg10.dtd">
<svg version="1.0" xmlns="http://www.w3.org/2000/svg"
 width="96.000000pt" height="68.000000pt" viewBox="0 0 96.000000 68.000000"
 preserveAspectRatio="xMidYMid meet">
<metadata>
Created by potrace 1.16, written by Peter Selinger 2001-2019
Combined from part_0.svg through part_5.svg with named groups
</metadata>
<g transform="translate(0.000000,68.000000) scale(0.100000,-0.100000)" fill="#000000" stroke="none">
<g id="part-0" class="char-part">
  <path d="M468 503 c2 -99 4 -110 27 -133 22 -21 35 -25 117 -28 69 -3 103 0
131 11 43 19 44 24 15 73 l-22 37 -11 -32 c-15 -44 -29 -51 -117 -51 -93 0
-111 12 -106 73 2 31 7 41 23 43 108 14 195 34 195 43 0 4 -12 13 -26 20 -22
10 -34 8 -78 -13 -28 -13 -64 -27 -79 -30 l-29 -7 4 48 c3 45 1 48 -22 51
l-25 3 3 -108z"/>
  <path d="M225 453 c0 -163 2 -164 95 -108 32 20 62 36 64 36 8 0 55 43 51 47
-2 2 -33 -6 -70 -17 -37 -12 -71 -21 -76 -21 -5 0 -9 20 -9 44 l0 43 66 6 c69
5 80 9 69 26 -8 13 -59 14 -102 2 -32 -9 -32 -9 -26 21 6 33 -14 58 -46 58
-14 0 -16 -20 -16 -137z"/>
  <path d="M530 293 c-1 -43 -42 -102 -104 -151 l-29 -22 -24 22 c-13 12 -33 42
-43 65 -20 45 -47 61 -34 21 10 -35 43 -96 54 -103 19 -12 10 -26 -27 -41 -21
-8 -51 -22 -68 -30 l-30 -15 35 7 c19 3 57 15 83 25 46 18 49 18 80 2 62 -34
298 -18 296 20 0 12 -106 67 -113 59 -3 -2 0 -12 7 -23 6 -10 8 -22 4 -26 -11
-10 -163 -10 -173 0 -4 4 22 35 58 70 36 34 74 75 83 90 17 27 17 28 -1 42
-32 24 -54 19 -54 -12z"/>
  <path d="M380 279 c26 -35 58 -55 71 -42 5 5 7 17 4 26 -7 16 -19 23 -68 37
l-27 9 20 -30z"/>
  <path d="M670 243 c1 -13 56 -70 79 -83 17 -9 22 -8 27 5 10 25 -3 43 -47 65
-46 21 -59 24 -59 13z"/>
  <path d="M187 175 c-16 -25 -26 -49 -22 -55 22 -36 83 29 71 76 -9 33 -17 30
-49 -21z"/>
</g>
<g id="part-1" class="char-part">
  <path d="M227 584 c-3 -3 -1 -19 5 -36 6 -17 8 -58 4 -96 -13 -130 -13 -127
10 -130 13 -2 55 18 103 48 84 54 98 66 58 51 -13 -5 -47 -16 -75 -25 l-52
-15 0 48 0 48 63 9 c35 5 60 13 57 19 -6 12 -41 12 -87 1 -33 -7 -33 -7 -33
28 0 25 -6 38 -19 46 -23 12 -26 12 -34 4z"/>
</g>
<g id="part-2" class="char-part">
  <path d="M468 508 c4 -102 6 -115 27 -137 20 -21 36 -25 104 -29 88 -5 138 1
165 21 17 13 17 15 -4 57 l-22 44 -15 -34 c-19 -46 -27 -50 -110 -50 -86 0
-113 18 -113 75 0 32 3 35 38 40 96 16 182 38 182 46 0 5 -11 14 -24 20 -20 9
-34 7 -78 -13 -29 -14 -66 -28 -82 -32 l-29 -7 6 45 c6 38 4 47 -13 56 -10 5
-23 10 -28 10 -5 0 -7 -50 -4 -112z"/>
</g>
<g id="part-3" class="char-part">
  <path d="M360 306 c0 -12 63 -76 75 -76 37 0 22 54 -17 65 -52 15 -58 16 -58
11z"/>
  <path d="M290 238 c0 -7 13 -38 28 -68 23 -45 37 -60 82 -85 50 -27 63 -30
150 -30 92 1 170 17 170 36 0 7 -66 46 -113 67 -4 2 -2 -8 4 -22 7 -14 10 -28
8 -31 -3 -2 -30 -7 -62 -11 -99 -12 -205 38 -222 105 -11 41 -45 72 -45 39z"/>
  <path d="M708 198 c37 -35 57 -47 64 -40 19 19 3 47 -42 69 -72 35 -79 26 -22
-29z"/>
  <path d="M185 174 c-37 -63 -20 -99 25 -54 22 22 35 63 26 85 -9 25 -23 17
-51 -31z"/>
</g>
<g id="part-4" class="char-part">
  <path d="M530 295 c0 -39 -23 -75 -78 -127 -51 -48 -82 -66 -172 -104 -66 -28
-45 -31 31 -5 72 24 126 53 168 88 36 30 121 130 121 142 0 8 -45 31 -60 31
-6 0 -10 -11 -10 -25z"/>
</g>
</g>
</svg>