<?xml version="1.0" standalone="no"?>
<!DOCTYPE svg PUBLIC "-//W3C//DTD SVG 20010904//EN"
 "http://www.w3.org/TR/2001/REC-SVG-20010904/DTD/svg10.dtd">
<svg version="1.0" xmlns="http://www.w3.org/2000/svg"
 width="96.000000pt" height="68.000000pt" viewBox="0 0 96.000000 68.000000"
 preserveAspectRatio="xMidYMid meet">
<metadata>
Created by potrace 1.16, written by Peter Selinger 2001-2019
Combined from part_0.svg through part_5.svg with named groups
</metadata>
<g transform="translate(0.000000,68.000000) scale(0.100000,-0.100000)" fill="#000000" stroke="none">
<g id="part-0" class="char-part">
  <path d="M415 620 c-3 -4 2 -25 11 -45 8 -20 13 -40 10 -43 -3 -3 -56 -12
-117 -21 -77 -11 -114 -20 -117 -30 -4 -12 12 -13 99 -7 57 3 116 9 130 12 24
5 29 0 64 -63 l37 -68 -48 -42 c-41 -37 -45 -43 -26 -43 12 0 40 12 62 26 l40
27 39 -36 c50 -45 92 -67 129 -67 l28 0 -15 65 c-14 61 -16 64 -33 48 -10 -8
-16 -19 -13 -22 2 -4 0 -13 -5 -21 -6 -10 -17 -6 -49 19 -23 18 -41 38 -41 45
0 7 14 25 30 41 35 33 36 38 14 59 -25 25 -40 19 -59 -25 l-19 -40 -23 38
c-33 54 -30 69 15 80 56 13 49 38 -10 37 -44 0 -48 2 -53 27 -4 15 -12 32 -18
37 -18 14 -56 21 -62 12z"/>
  <path d="M580 590 c0 -15 61 -60 81 -60 20 0 24 16 11 37 -9 14 -92 35 -92 23z"/>
  <path d="M315 424 c-27 -7 -60 -14 -72 -14 -21 0 -22 -1 -7 -44 l15 -44 57 5
c78 7 77 6 91 52 19 65 8 71 -84 45z m45 -39 c0 -20 -6 -25 -35 -31 -44 -8
-65 0 -65 25 0 20 17 27 73 30 22 1 27 -3 27 -24z"/>
  <path d="M335 290 c-38 -11 -91 -19 -117 -19 -37 -1 -46 -4 -42 -16 11 -27 43
-26 129 5 48 16 95 30 105 30 10 0 22 5 25 10 9 14 -19 11 -100 -10z"/>
  <path d="M455 200 c32 -33 55 -39 55 -14 0 22 -29 43 -59 44 l-25 0 29 -30z"/>
  <path d="M650 203 c0 -3 23 -28 50 -55 42 -41 53 -48 65 -38 20 17 19 26 -6
49 -21 20 -109 55 -109 44z"/>
  <path d="M291 193 c2 -24 49 -91 82 -117 35 -28 45 -30 131 -34 159 -7 210 27
121 81 -25 15 -48 27 -51 27 -2 0 -1 -12 2 -26 9 -35 -7 -44 -86 -44 -85 0
-129 21 -155 77 -11 23 -26 42 -32 43 -7 0 -13 -3 -12 -7z"/>
  <path d="M193 155 c-43 -66 -20 -117 26 -59 21 27 26 50 15 78 -9 23 -16 20
-41 -19z"/>
</g>
<g id="part-1" class="char-part">
  <path d="M420 611 c0 -5 7 -25 16 -46 8 -20 14 -38 12 -40 -2 -1 -50 -8 -108
-15 -58 -7 -114 -16 -125 -20 -40 -16 27 -21 120 -11 130 15 131 15 145 -20 7
-17 24 -47 38 -67 l24 -36 -46 -44 c-34 -32 -40 -42 -24 -36 13 4 38 18 55 31
l32 25 53 -46 c50 -44 120 -77 134 -63 4 3 1 20 -5 38 -6 18 -11 43 -11 55 0
32 -16 31 -24 -1 -11 -42 -33 -42 -76 0 l-39 38 30 39 c25 31 29 41 19 53 -20
24 -35 18 -53 -21 -10 -19 -22 -32 -27 -29 -17 10 -52 86 -47 100 3 6 24 15
47 19 61 10 47 32 -19 28 -51 -3 -51 -2 -51 27 0 20 -7 34 -19 41 -24 12 -51
13 -51 1z"/>
  <path d="M590 585 c0 -10 55 -54 68 -55 23 0 13 40 -14 50 -28 11 -54 13 -54
5z"/>
</g>
<g id="part-2" class="char-part">
  <path d="M330 289 c-41 -10 -94 -18 -117 -19 -47 0 -55 -13 -22 -31 25 -13 34
-11 164 34 108 38 96 46 -25 16z"/>
</g>
<g id="part-3" class="char-part">
  <path d="M455 200 c33 -35 55 -39 55 -10 0 22 -28 40 -61 40 -22 0 -22 -1 6
-30z"/>
  <path d="M305 163 c39 -94 78 -116 213 -121 154 -6 193 27 101 85 l-50 32 6
-31 c9 -40 -4 -48 -85 -48 -85 0 -128 22 -154 78 -26 55 -53 59 -31 5z"/>
  <path d="M697 150 c55 -54 67 -59 77 -34 10 25 -10 50 -54 68 -73 29 -79 20
-23 -34z"/>
  <path d="M192 151 c-28 -50 -29 -81 -1 -81 25 0 53 61 45 96 -9 34 -19 30 -44
-15z"/>
</g>
</g>
</svg>