<?xml version="1.0" standalone="no"?>
<!DOCTYPE svg PUBLIC "-//W3C//DTD SVG 20010904//EN"
 "http://www.w3.org/TR/2001/REC-SVG-20010904/DTD/svg10.dtd">
<svg version="1.0" xmlns="http://www.w3.org/2000/svg"
 width="96.000000pt" height="68.000000pt" viewBox="0 0 96.000000 68.000000"
 preserveAspectRatio="xMidYMid meet">
<metadata>
Created by potrace 1.16, written by Peter Selinger 2001-2019
Combined from part_0.svg through part_5.svg with named groups
</metadata>
<g transform="translate(0.000000,68.000000) scale(0.100000,-0.100000)" fill="#000000" stroke="none">
<g id="part-0" class="char-part">
  <path d="M547 573 c-4 -3 -2 -12 4 -19 5 -7 9 -39 7 -71 l-3 -58 -47 -3 c-64
-4 -61 -22 3 -22 l50 0 -3 -42 c-3 -41 -4 -43 -38 -46 -19 -1 -55 -5 -80 -8
-41 -6 -43 -7 -21 -15 26 -10 361 9 361 20 0 15 -44 31 -73 27 -18 -3 -49 -8
-70 -11 l-38 -6 3 43 c2 29 8 43 18 45 100 13 125 33 40 33 l-50 0 0 64 c0 49
-4 65 -16 70 -20 8 -39 8 -47 -1z"/>
  <path d="M255 454 c-115 -22 -121 -24 -104 -35 7 -5 29 -9 47 -9 26 0 32 -4
32 -21 0 -34 -104 -205 -132 -217 -11 -5 -10 -32 0 -32 5 0 27 16 49 35 39 34
60 45 49 26 -3 -5 1 -29 10 -54 14 -42 18 -46 42 -42 15 2 48 7 73 10 44 6 46
7 47 41 1 20 8 48 15 63 11 22 11 29 1 39 -16 14 -44 15 -77 3 -25 -10 -87
-21 -87 -17 0 2 18 36 40 77 22 40 38 79 36 85 -5 14 6 18 67 29 23 4 37 11
37 20 0 19 -48 18 -145 -1z m75 -263 c0 -42 -3 -49 -22 -55 -52 -13 -65 -8
-75 33 -14 55 -2 67 70 70 26 1 27 -1 27 -48z"/>
  <path d="M540 261 c0 -5 5 -13 10 -16 6 -3 10 -17 10 -29 0 -24 -29 -36 -86
-36 -13 0 -24 -4 -24 -10 0 -5 24 -10 53 -10 l53 0 2 -37 c2 -21 -2 -40 -10
-44 -7 -5 -48 -9 -90 -9 -75 0 -106 -11 -70 -25 17 -6 334 2 410 11 23 3 42 9
42 14 0 17 -75 29 -140 22 -98 -11 -95 -12 -95 33 l0 40 63 9 c79 11 78 32 -1
29 l-56 -2 -3 32 c-3 28 -7 32 -35 35 -18 2 -33 -1 -33 -7z"/>
</g>
<g id="part-1" class="char-part">
  <path d="M290 455 c-30 -8 -69 -14 -87 -15 -46 0 -50 -18 -6 -22 36 -3 38 -5
35 -33 -4 -34 -48 -115 -99 -182 -19 -25 -32 -47 -29 -50 3 -3 27 14 55 37 52
44 135 183 129 217 -2 14 7 19 44 24 58 9 76 18 57 30 -18 11 -32 10 -99 -6z"/>
</g>
<g id="part-2" class="char-part">
  <path d="M263 251 c-73 -23 -76 -29 -62 -87 14 -59 28 -79 43 -64 5 5 28 10
51 11 52 1 93 13 78 22 -13 8 -2 69 17 92 10 12 10 18 0 30 -16 19 -61 18
-127 -4z m65 -58 c-3 -46 -4 -48 -40 -57 -21 -5 -40 -7 -43 -4 -3 2 -9 25 -14
51 -9 50 -8 51 72 56 27 1 28 0 25 -46z"/>
</g>
<g id="part-3" class="char-part">
  <path d="M546 563 c4 -10 10 -42 12 -72 5 -62 -3 -71 -65 -71 -24 0 -43 -4
-43 -10 0 -5 25 -10 56 -10 l55 0 -3 -42 c-3 -41 -4 -43 -38 -46 -19 -1 -55
-5 -80 -8 -35 -5 -41 -8 -27 -16 21 -11 367 10 367 23 0 21 -41 29 -102 19
-35 -5 -67 -10 -71 -10 -5 0 -7 19 -5 42 l3 43 48 7 c79 11 80 32 1 30 l-45
-2 2 58 c3 71 -3 82 -43 82 -25 0 -29 -3 -22 -17z"/>
</g>
<g id="part-4" class="char-part">
  <path d="M540 261 c0 -6 5 -13 10 -16 6 -3 10 -17 10 -29 0 -25 -28 -36 -94
-36 -24 0 -27 -3 -16 -10 8 -5 36 -10 63 -10 l47 0 0 -39 c0 -46 -10 -51 -112
-51 -65 0 -94 -12 -62 -24 17 -6 340 1 412 10 23 3 42 9 42 13 0 10 -74 32
-91 27 -8 -2 -44 -7 -81 -10 l-68 -7 0 33 c0 47 9 55 69 64 69 11 64 30 -6 26
-52 -2 -53 -2 -53 27 0 29 -14 41 -51 41 -10 0 -19 -4 -19 -9z"/>
</g>
</g>
</svg>