<?xml version="1.0" standalone="no"?>
<!DOCTYPE svg PUBLIC "-//W3C//DTD SVG 20010904//EN"
 "http://www.w3.org/TR/2001/REC-SVG-20010904/DTD/svg10.dtd">
<svg version="1.0" xmlns="http://www.w3.org/2000/svg"
 width="96.000000pt" height="68.000000pt" viewBox="0 0 96.000000 68.000000"
 preserveAspectRatio="xMidYMid meet">
<metadata>
Created by potrace 1.16, written by Peter Selinger 2001-2019
Combined from part_0.svg through part_5.svg with named groups
</metadata>
<g transform="translate(0.000000,68.000000) scale(0.100000,-0.100000)" fill="#000000" stroke="none">
<g id="part-0" class="char-part">
  <path d="M540 574 c-58 -8 -113 -12 -122 -10 -18 4 -24 -5 -11 -18 4 -4 14
-30 23 -57 8 -28 20 -49 25 -47 11 3 11 5 1 65 l-7 41 78 7 c133 12 128 13
127 -15 -1 -14 -5 -42 -9 -64 -7 -33 -6 -38 10 -35 12 3 26 26 41 66 l23 61
-31 11 c-17 6 -34 10 -37 10 -3 -1 -53 -8 -111 -15z"/>
  <path d="M185 523 c13 -31 24 -128 16 -136 -5 -5 -27 -11 -50 -14 -58 -8 -55
-33 4 -33 l45 0 0 -55 c0 -60 5 -55 -78 -85 -37 -14 -37 -31 1 -44 22 -8 40
-1 124 49 114 68 108 63 100 72 -4 3 -25 -2 -47 -12 -22 -10 -42 -16 -44 -14
-2 2 -2 25 1 52 5 41 9 48 32 53 14 3 36 9 48 14 27 11 38 -1 53 -62 11 -42
15 -46 31 -38 10 6 83 11 163 13 144 2 145 2 158 27 7 14 21 38 32 54 16 23
17 30 5 37 -30 19 -62 20 -156 5 -85 -14 -215 -19 -332 -14 l-33 1 6 50 c3 28
11 54 17 58 16 9 -42 39 -77 39 -21 0 -25 -3 -19 -17z m535 -147 c0 -47 -9
-56 -57 -56 -39 0 -44 2 -38 18 4 9 9 25 12 34 4 15 19 20 71 27 6 0 12 -10
12 -23z m-130 -30 c0 -30 -3 -34 -30 -38 -37 -6 -40 -3 -40 39 0 31 2 33 35
33 33 0 35 -2 35 -34z m-101 -7 c6 -18 11 -34 11 -35 0 -2 -18 -4 -39 -4 -35
0 -40 3 -50 31 -6 18 -11 34 -11 35 0 2 18 4 39 4 35 0 40 -3 50 -31z"/>
  <path d="M550 522 c-48 -5 -64 -22 -19 -21 38 0 78 13 63 20 -5 2 -25 3 -44 1z"/>
  <path d="M520 460 c0 -11 21 -11 65 0 27 7 25 8 -17 9 -27 0 -48 -3 -48 -9z"/>
  <path d="M580 255 c-30 -8 -76 -17 -102 -20 -27 -3 -48 -10 -48 -16 0 -5 4 -9
9 -9 5 0 33 -19 62 -41 l52 -42 -39 -23 c-21 -14 -56 -29 -76 -34 -20 -6 -40
-14 -43 -19 -7 -12 62 4 125 29 63 25 60 25 90 -3 35 -31 75 -47 118 -47 51 0
112 11 112 20 0 4 -17 11 -37 15 -65 12 -193 57 -193 68 0 6 19 33 42 60 39
47 41 50 23 63 -22 16 -23 16 -95 -1z m30 -37 c0 -7 -10 -26 -23 -41 l-22 -28
-35 26 c-19 14 -34 29 -33 33 2 7 51 18 91 21 12 0 22 -5 22 -11z"/>
</g>
<g id="part-1" class="char-part">
  <path d="M196 513 c5 -16 8 -53 9 -83 0 -51 -2 -55 -25 -58 -14 -1 -36 -6 -50
-9 -20 -6 -15 -8 25 -13 l50 -5 3 -61 3 -61 -62 -18 -61 -19 22 -18 c28 -22
30 -22 143 45 87 51 103 72 32 43 l-36 -15 3 56 c3 57 3 57 41 66 47 11 48 27
1 27 l-37 0 6 64 6 64 -31 11 c-46 16 -51 14 -42 -16z"/>
</g>
<g id="part-2" class="char-part">
  <path d="M540 574 c-52 -7 -107 -11 -122 -8 -27 5 -40 -10 -17 -18 7 -2 19
-28 28 -58 18 -60 47 -85 37 -31 -3 17 -9 44 -12 60 l-5 29 78 7 c130 12 128
12 127 -10 -1 -11 -5 -40 -9 -64 -7 -38 -6 -43 10 -40 12 3 26 26 41 67 l24
63 -26 9 c-30 12 -31 12 -154 -6z"/>
  <path d="M540 523 c-41 -8 -48 -23 -9 -23 45 0 80 10 73 21 -5 9 -20 10 -64 2z"/>
  <path d="M543 473 c-18 -2 -33 -9 -33 -15 0 -7 14 -8 38 -4 20 3 44 6 52 6 13
0 13 1 0 10 -8 5 -17 9 -20 8 -3 -1 -20 -3 -37 -5z"/>
</g>
<g id="part-3" class="char-part">
  <path d="M600 404 c-47 -7 -121 -15 -166 -16 l-80 -3 13 -25 c7 -14 20 -42 28
-64 12 -31 18 -36 29 -27 8 7 68 12 158 14 l145 2 29 50 c16 28 30 53 32 56 5
10 -48 29 -76 28 -15 -1 -65 -7 -112 -15z m120 -36 c0 -38 -12 -45 -80 -51
-36 -4 -100 -9 -142 -13 l-77 -7 -9 34 -8 34 115 11 c190 18 201 18 201 -8z"/>
</g>
<g id="part-4" class="char-part">
  <path d="M565 249 c-44 -10 -92 -18 -107 -18 -25 -1 -42 -21 -19 -21 5 0 33
-19 61 -41 l52 -41 -33 -21 c-18 -12 -56 -29 -83 -39 -37 -13 -44 -17 -25 -18
29 0 135 34 154 50 8 7 18 4 31 -11 29 -32 89 -59 131 -59 50 0 113 11 113 19
0 4 -33 15 -72 24 -95 23 -158 47 -158 61 0 6 18 33 39 61 22 27 38 52 35 56
-9 15 -43 14 -119 -2z m36 -58 c-7 -16 -19 -32 -26 -35 -15 -5 -90 43 -80 52
12 12 100 29 109 21 5 -5 4 -20 -3 -38z"/>
</g>
</g>
</svg>