<?xml version="1.0" standalone="no"?>
<!DOCTYPE svg PUBLIC "-//W3C//DTD SVG 20010904//EN"
 "http://www.w3.org/TR/2001/REC-SVG-20010904/DTD/svg10.dtd">
<svg version="1.0" xmlns="http://www.w3.org/2000/svg"
 width="96.000000pt" height="68.000000pt" viewBox="0 0 96.000000 68.000000"
 preserveAspectRatio="xMidYMid meet">
<metadata>
Created by potrace 1.16, written by Peter Selinger 2001-2019
Combined from part_0.svg through part_5.svg with named groups
</metadata>
<g transform="translate(0.000000,68.000000) scale(0.100000,-0.100000)" fill="#000000" stroke="none">
<g id="part-0" class="char-part">
  <path d="M610 569 c0 -14 -41 -48 -57 -49 -7 0 -13 -4 -13 -10 0 -5 -17 -12
-37 -16 l-38 -6 -1 -86 c-1 -96 -26 -188 -70 -255 -14 -22 -23 -41 -20 -45 9
-8 41 24 62 63 10 19 22 35 26 35 5 0 8 8 9 18 2 38 17 -36 18 -90 1 -45 5
-58 16 -58 11 0 15 12 15 50 0 46 2 50 24 50 20 0 25 -6 28 -32 5 -47 26 -47
34 1 6 35 10 41 30 41 22 0 24 -4 24 -51 0 -36 4 -49 13 -47 6 3 13 11 14 19
11 87 12 89 48 89 30 0 35 -3 35 -24 0 -14 -5 -37 -10 -51 -8 -21 -14 -25 -31
-20 -18 6 -20 4 -14 -17 29 -94 80 -48 101 94 7 48 16 93 19 98 3 5 -6 17 -20
26 -22 15 -37 15 -133 5 -59 -6 -126 -11 -148 -11 -41 0 -41 1 -38 32 2 17 6
33 8 35 2 2 59 9 127 16 72 7 119 16 111 21 -11 6 -11 12 0 29 8 12 19 35 26
50 11 25 10 28 -10 36 -11 4 -52 2 -92 -5 -105 -19 -118 -17 -66 11 25 13 53
27 63 31 24 9 21 20 -5 28 -34 9 -48 7 -48 -5z m97 -116 c-4 -20 -10 -40 -15
-45 -5 -5 -47 -11 -94 -15 l-85 -6 3 24 c1 13 3 31 3 40 1 15 29 21 180 38 10
1 12 -8 8 -36z m-47 -213 c0 -36 -2 -40 -25 -40 -22 0 -25 4 -25 40 0 36 3 40
25 40 23 0 25 -4 25 -40z m110 8 c0 -31 -3 -33 -35 -35 -34 -2 -35 -1 -31 30
3 18 5 33 5 35 1 1 15 2 31 2 27 0 30 -3 30 -32z m-202 -15 c-2 -31 -7 -39
-25 -41 -21 -3 -23 1 -23 37 0 37 2 41 26 41 23 0 25 -3 22 -37z"/>
  <path d="M260 553 c0 -4 17 -22 37 -40 44 -41 76 -41 81 -1 3 23 -2 28 -35 37
-43 12 -83 14 -83 4z"/>
  <path d="M327 439 c-9 -6 -52 -17 -94 -25 -85 -16 -94 -21 -73 -34 22 -14 53
-12 106 6 25 8 48 13 52 10 3 -3 -43 -54 -102 -112 -97 -97 -104 -106 -75
-100 18 3 53 22 78 42 l46 36 3 -33 c2 -18 -1 -52 -7 -75 -14 -55 -14 -65 5
-89 15 -20 15 -20 30 -1 9 14 14 47 14 105 l0 84 24 -22 c25 -24 56 -25 64 -3
2 7 -11 18 -29 26 l-33 14 37 15 c42 18 47 32 16 42 -15 5 -29 -1 -50 -21 -20
-19 -32 -25 -39 -18 -7 7 8 28 45 63 30 29 55 57 55 62 0 17 -55 38 -73 28z"/>
</g>
<g id="part-1" class="char-part">
  <path d="M294 526 c40 -37 86 -48 86 -22 0 22 -28 46 -53 46 -12 0 -33 3 -47
6 -22 5 -21 2 14 -30z"/>
  <path d="M298 425 c-20 -7 -62 -17 -94 -21 -53 -6 -56 -8 -38 -21 20 -15 31
-14 107 10 36 11 47 12 47 3 0 -7 -44 -58 -98 -114 -54 -56 -96 -102 -94 -102
10 0 71 36 95 56 16 13 33 24 38 24 10 0 10 -93 0 -130 -9 -28 7 -72 23 -67 6
2 13 42 16 93 5 93 12 103 51 68 21 -18 39 -18 39 1 0 9 -14 22 -30 29 l-30
12 35 17 c36 17 44 32 23 40 -7 2 -28 -9 -46 -26 -24 -23 -35 -28 -44 -19 -13
13 25 69 72 102 37 26 37 33 5 48 -31 14 -30 14 -77 -3z"/>
</g>
<g id="part-2" class="char-part">
  <path d="M597 555 c-10 -14 -35 -34 -55 -45 -66 -34 2 -24 74 11 66 33 75 43
48 53 -29 11 -49 6 -67 -19z"/>
</g>
<g id="part-3" class="char-part">
  <path d="M650 505 c-30 -7 -85 -14 -121 -14 l-67 -1 5 -43 c8 -72 -22 -200
-66 -283 -32 -60 -36 -72 -20 -64 45 25 119 170 119 236 0 25 14 29 163 40 80
6 87 8 82 26 -4 11 2 34 15 55 11 20 17 40 13 44 -16 16 -67 17 -123 4z m53
-54 c0 -18 -5 -37 -10 -42 -5 -5 -49 -12 -97 -15 -82 -7 -89 -6 -83 10 4 10 7
28 7 41 0 21 6 23 78 32 105 14 107 13 105 -26z"/>
</g>
<g id="part-4" class="char-part">
  <path d="M675 300 c-33 -4 -86 -8 -117 -9 -64 -1 -82 -18 -74 -68 2 -16 5 -56
5 -90 1 -49 4 -63 16 -63 12 0 15 18 15 99 l0 99 88 7 c104 8 100 8 136 6 l28
-1 -3 -85 c-4 -93 -14 -113 -48 -95 l-22 11 21 -40 c11 -23 27 -41 34 -41 25
0 48 52 61 141 7 48 16 93 19 98 10 15 -35 41 -69 40 -16 -1 -57 -5 -90 -9z"/>
</g>
</g>
</svg>