<?xml version="1.0" standalone="no"?>
<!DOCTYPE svg PUBLIC "-//W3C//DTD SVG 20010904//EN"
 "http://www.w3.org/TR/2001/REC-SVG-20010904/DTD/svg10.dtd">
<svg version="1.0" xmlns="http://www.w3.org/2000/svg"
 width="96.000000pt" height="68.000000pt" viewBox="0 0 96.000000 68.000000"
 preserveAspectRatio="xMidYMid meet">
<metadata>
Created by potrace 1.16, written by Peter Selinger 2001-2019
Combined from part_0.svg through part_5.svg with named groups
</metadata>
<g transform="translate(0.000000,68.000000) scale(0.100000,-0.100000)" fill="#000000" stroke="none">
<g id="part-0" class="char-part">
  <path d="M227 563 c-3 -2 -3 -22 0 -44 3 -22 0 -73 -7 -114 l-13 -75 -58 0
c-33 0 -61 -5 -65 -12 -12 -19 28 -40 68 -35 34 5 36 3 35 -21 -2 -21 6 -31
35 -47 21 -11 38 -23 38 -27 0 -3 -27 -24 -59 -45 -33 -21 -60 -42 -60 -46 -2
-17 65 6 110 38 l46 33 28 -24 c16 -13 37 -24 47 -24 31 0 18 41 -20 66 -18
13 -28 25 -23 28 5 4 17 30 26 59 10 29 29 62 43 74 15 13 21 23 15 23 -7 0
-22 9 -33 20 -29 29 -60 26 -60 -5 0 -27 -16 -39 -48 -33 -19 3 -19 5 5 88 16
56 22 90 16 99 -10 15 -58 33 -66 24z m74 -297 c-19 -44 -20 -45 -50 -33 -33
12 -39 33 -18 59 13 19 80 39 85 27 2 -5 -6 -28 -17 -53z"/>
  <path d="M595 355 l0 -214 27 -28 c23 -23 38 -28 92 -31 97 -6 166 25 138 62
-5 6 -14 25 -20 41 l-10 30 -7 -32 c-10 -43 -23 -53 -81 -59 -41 -5 -54 -2
-76 16 -26 20 -28 27 -28 91 0 42 4 69 11 69 5 0 31 -16 56 -35 50 -38 66 -40
71 -7 3 18 -6 24 -67 42 -63 19 -70 24 -66 43 2 12 7 54 10 92 4 39 9 80 12
91 4 17 -2 24 -28 33 -17 6 -32 11 -33 11 -1 0 -1 -97 -1 -215z"/>
  <path d="M483 488 c7 -27 12 -177 6 -181 -18 -12 -83 -37 -94 -37 -19 0 -19
-14 -2 -28 10 -9 23 -5 51 14 21 14 40 23 43 21 13 -14 -34 -116 -69 -148 -23
-21 -23 -28 2 -22 26 7 78 73 91 115 6 18 14 85 19 148 9 121 5 140 -32 140
-16 0 -19 -5 -15 -22z"/>
  <path d="M687 399 c-20 -27 -34 -49 -32 -49 3 0 32 14 65 32 45 23 57 34 50
43 -25 30 -47 23 -83 -26z"/>
  <path d="M418 404 c-3 -3 1 -18 9 -35 17 -35 46 -40 41 -6 -2 12 -9 21 -16 20
-6 -2 -12 4 -12 12 0 15 -12 20 -22 9z"/>
</g>
<g id="part-1" class="char-part">
  <path d="M230 495 c0 -35 -5 -86 -11 -114 -11 -54 -21 -60 -99 -61 l-45 -1 25
-20 c23 -20 43 -21 83 -4 15 6 16 4 8 -17 -11 -30 -5 -40 37 -62 17 -9 32 -20
32 -25 0 -11 -39 -45 -80 -70 -23 -14 -29 -21 -17 -21 23 0 89 34 106 54 19
22 31 20 62 -10 17 -16 34 -24 43 -21 27 10 18 37 -19 58 -19 12 -35 23 -35
25 0 2 9 23 19 46 10 24 24 55 30 71 6 15 17 27 26 27 8 0 15 3 15 8 -1 11
-44 40 -66 44 -15 2 -18 -2 -16 -23 2 -24 -2 -27 -39 -33 -23 -4 -43 -5 -44
-4 -1 2 11 44 27 93 l28 90 -21 18 c-39 32 -49 23 -49 -48z m90 -192 c-22 -76
-28 -84 -57 -77 -45 11 -53 21 -41 55 7 20 20 32 41 38 58 17 67 14 57 -16z"/>
</g>
<g id="part-2" class="char-part">
  <path d="M489 393 c4 -132 -4 -169 -54 -242 -37 -56 -33 -65 13 -26 53 44 72
100 82 236 10 127 6 149 -29 149 -14 0 -16 -14 -12 -117z"/>
</g>
<g id="part-3" class="char-part">
  <path d="M428 281 c-47 -16 -58 -33 -24 -39 17 -4 86 37 86 51 0 9 -3 8 -62
-12z"/>
</g>
<g id="part-4" class="char-part">
  <path d="M684 395 c-22 -25 -39 -45 -38 -45 1 0 32 14 69 32 62 28 66 32 49
45 -27 20 -36 17 -80 -32z"/>
  <path d="M640 312 c1 -11 102 -82 117 -82 17 0 17 34 1 48 -17 13 -118 43
-118 34z"/>
</g>
</g>
</svg>