<?xml version="1.0" standalone="no"?>
<!DOCTYPE svg PUBLIC "-//W3C//DTD SVG 20010904//EN"
 "http://www.w3.org/TR/2001/REC-SVG-20010904/DTD/svg10.dtd">
<svg version="1.0" xmlns="http://www.w3.org/2000/svg"
 width="96.000000pt" height="68.000000pt" viewBox="0 0 96.000000 68.000000"
 preserveAspectRatio="xMidYMid meet">
<metadata>
Created by potrace 1.16, written by Peter Selinger 2001-2019
Combined from part_0.svg through part_5.svg with named groups
</metadata>
<g transform="translate(0.000000,68.000000) scale(0.100000,-0.100000)" fill="#000000" stroke="none">
<g id="part-0" class="char-part">
  <path d="M326 588 c-3 -7 -10 -30 -16 -51 -15 -49 -88 -145 -153 -202 -41 -36
-47 -45 -31 -45 11 0 46 18 77 40 47 32 63 38 88 33 23 -4 29 -10 27 -27 -2
-17 -13 -22 -55 -29 -29 -5 -53 -13 -53 -18 0 -13 47 -22 80 -15 l30 6 0 -60
c0 -33 -5 -62 -11 -66 -7 -4 -43 -9 -80 -12 -38 -2 -69 -8 -69 -12 0 -10 32
-36 53 -44 11 -3 38 2 60 12 23 10 84 31 135 47 53 17 92 35 92 42 0 15 -19
17 -52 4 -13 -4 -35 -11 -50 -15 -28 -6 -28 -6 -28 41 0 61 7 71 53 80 49 10
48 27 -3 31 -32 3 -40 7 -40 23 0 14 9 21 30 26 35 7 47 20 31 36 -8 8 -29 7
-76 -2 -36 -7 -68 -12 -70 -9 -2 2 12 27 32 55 l36 52 40 -34 c49 -42 77 -46
77 -10 0 24 -23 41 -82 59 -11 3 -15 12 -11 25 4 14 -3 24 -26 36 -25 12 -32
13 -35 3z"/>
  <path d="M580 577 c0 -33 -36 -125 -70 -179 -37 -60 -24 -62 27 -5 38 43 39
44 119 50 55 4 85 2 92 -5 8 -8 12 -52 12 -122 0 -100 -2 -113 -26 -153 -27
-47 -28 -47 -99 -26 -18 5 -17 3 6 -27 44 -58 60 -64 100 -37 51 34 66 87 70
247 l4 135 -26 12 c-22 11 -41 10 -108 -4 -45 -9 -84 -13 -87 -10 -4 3 5 26
20 51 30 51 33 81 10 90 -30 11 -44 6 -44 -17z"/>
  <path d="M520 312 c0 -13 64 -72 78 -72 7 0 12 11 12 25 0 17 -9 29 -30 40
-32 16 -60 20 -60 7z"/>
  <path d="M430 268 c0 -6 -11 -26 -26 -45 -30 -39 -18 -42 36 -8 43 27 47 34
28 53 -15 15 -38 16 -38 0z"/>
  <path d="M206 242 c-3 -5 6 -25 20 -46 28 -41 57 -45 62 -9 2 16 -6 28 -30 43
-37 22 -44 24 -52 12z"/>
</g>
<g id="part-1" class="char-part">
  <path d="M325 578 c-2 -7 -9 -30 -15 -51 -13 -43 -65 -111 -140 -186 -29 -28
-48 -51 -42 -51 5 0 37 18 70 40 38 25 71 40 91 40 28 0 31 -3 31 -30 0 -28
-3 -30 -50 -36 -65 -9 -64 -22 3 -26 l52 -3 0 -60 c0 -68 -6 -72 -102 -74 -55
-1 -67 -13 -35 -37 20 -15 64 -18 77 -5 6 5 56 23 112 41 141 43 153 64 21 34
l-28 -6 0 61 c0 58 1 61 28 67 54 12 62 16 57 25 -4 5 -24 9 -47 9 -32 0 -39
3 -34 16 3 9 6 19 6 24 0 4 14 10 30 14 17 3 30 10 30 15 0 17 -29 20 -82 5
-90 -24 -93 -21 -42 46 25 33 47 60 48 60 2 0 20 -13 41 -30 40 -32 75 -39 75
-17 0 21 -31 44 -70 54 -25 7 -34 15 -32 27 6 34 -43 65 -53 34z"/>
  <path d="M413 231 l-23 -39 45 25 c48 26 55 37 29 47 -25 10 -28 8 -51 -33z"/>
  <path d="M210 231 c0 -15 41 -61 55 -61 35 0 27 41 -11 59 -30 13 -44 14 -44
2z"/>
</g>
<g id="part-2" class="char-part">
  <path d="M580 580 c0 -33 -36 -126 -69 -180 -38 -62 -26 -65 26 -7 37 43 39
44 117 50 53 5 83 3 92 -4 10 -8 14 -39 14 -108 0 -104 -10 -153 -39 -190 -18
-24 -19 -24 -64 -9 -42 14 -45 14 -37 -1 4 -9 24 -31 43 -49 34 -33 36 -33 64
-19 63 33 79 83 84 257 l4 135 -27 13 c-24 11 -40 10 -108 -4 -44 -10 -83 -15
-86 -11 -3 3 8 30 25 60 29 50 30 57 15 71 -23 23 -54 21 -54 -4z"/>
</g>
<g id="part-3" class="char-part">
  <path d="M529 303 c16 -30 51 -63 66 -63 28 0 17 48 -15 65 -41 21 -63 20 -51
-2z"/>
</g>
</g>
</svg>