<?xml version="1.0" standalone="no"?>
<!DOCTYPE svg PUBLIC "-//W3C//DTD SVG 20010904//EN"
 "http://www.w3.org/TR/2001/REC-SVG-20010904/DTD/svg10.dtd">
<svg version="1.0" xmlns="http://www.w3.org/2000/svg"
 width="96.000000pt" height="68.000000pt" viewBox="0 0 96.000000 68.000000"
 preserveAspectRatio="xMidYMid meet">
<metadata>
Created by potrace 1.16, written by Peter Selinger 2001-2019
Combined from part_0.svg through part_5.svg with named groups
</metadata>
<g transform="translate(0.000000,68.000000) scale(0.100000,-0.100000)" fill="#000000" stroke="none">
<g id="part-0" class="char-part">
  <path d="M765 356 l0 -241 -30 1 c-16 0 -39 4 -50 9 -11 4 3 -13 30 -38 56
-51 82 -59 90 -24 2 12 7 108 9 213 3 105 10 212 16 239 12 53 8 61 -36 74
l-29 8 0 -241z"/>
  <path d="M505 564 c-26 -10 -58 -14 -90 -10 l-50 6 -1 -83 c-1 -109 -41 -236
-96 -306 -29 -37 -12 -38 27 -1 18 18 44 57 56 86 12 30 25 54 30 54 5 0 9
-29 9 -65 0 -51 3 -65 15 -65 12 0 15 14 15 70 0 69 1 70 26 70 l25 0 -3 -120
c-2 -84 1 -123 9 -131 7 -7 15 -10 18 -7 3 3 8 65 12 137 l6 132 30 -3 c25 -2
31 -8 34 -33 2 -16 1 -45 -3 -63 -5 -30 -8 -33 -29 -28 l-24 6 26 -26 c45 -45
69 -11 72 101 1 70 -7 79 -63 72 -45 -7 -46 -6 -46 22 0 25 -15 41 -37 41 -3
0 -3 -18 0 -40 l5 -40 -44 0 c-48 0 -50 5 -35 74 6 29 7 30 81 33 83 4 104 9
96 21 -3 5 4 23 15 40 25 42 24 58 -3 66 -31 8 -36 7 -83 -10z m37 -55 c-5
-35 -7 -36 -79 -42 l-53 -4 0 33 c0 36 8 39 96 43 40 1 40 0 36 -30z"/>
  <path d="M220 459 c-14 -6 -45 -10 -70 -9 -64 2 -65 2 -47 -18 9 -9 21 -39 27
-66 15 -68 28 -89 48 -80 9 4 40 10 67 13 39 5 49 10 47 23 -1 9 9 40 22 70
23 49 24 54 9 66 -20 14 -68 15 -103 1z m28 -76 c-3 -46 -4 -48 -35 -51 -30
-3 -32 -1 -40 40 -10 48 -3 56 50 57 27 1 28 0 25 -46z"/>
  <path d="M667 464 c-3 -3 -1 -22 4 -42 5 -20 9 -70 9 -109 0 -58 3 -73 15 -73
8 0 15 7 15 15 1 8 1 56 1 107 1 83 -1 93 -19 99 -11 4 -22 5 -25 3z"/>
</g>
<g id="part-1" class="char-part">
  <path d="M211 455 c-30 -8 -68 -11 -83 -8 -28 6 -28 5 -13 -23 8 -16 19 -52
25 -81 l11 -53 42 6 c107 14 102 11 104 49 1 19 10 48 20 65 18 31 17 32 -1
46 -23 16 -33 16 -105 -1z m45 -67 c-4 -29 -8 -53 -9 -54 -1 -1 -16 -5 -34 -9
-31 -6 -32 -5 -43 35 -14 53 -9 67 27 73 69 10 66 12 59 -45z"/>
</g>
<g id="part-2" class="char-part">
  <path d="M495 564 c-25 -10 -56 -13 -85 -10 l-45 6 0 -78 c-1 -42 -7 -99 -14
-127 -15 -53 -64 -160 -85 -185 -42 -49 -29 -51 23 -4 44 39 94 147 105 225 7
44 9 47 44 53 20 3 61 6 91 6 30 0 52 3 48 6 -8 8 20 76 36 86 9 6 7 12 -7 23
-24 19 -59 18 -111 -1z m45 -53 c0 -31 2 -30 -92 -46 -38 -6 -38 -6 -38 29 0
38 7 41 93 45 35 1 37 -1 37 -28z"/>
</g>
<g id="part-3" class="char-part">
  <path d="M463 347 l-82 -10 6 -71 c6 -84 10 -99 23 -91 5 3 10 37 10 75 l0 68
65 7 c84 9 95 5 95 -42 0 -60 -10 -85 -31 -80 -17 5 -17 3 -2 -19 33 -51 59
-21 72 81 12 102 11 102 -156 82z"/>
</g>
<g id="part-4" class="char-part">
  <path d="M765 353 l0 -238 -38 1 -39 1 42 -42 c42 -43 65 -48 74 -17 3 10 8
108 10 218 3 121 10 219 17 244 12 38 11 44 -6 56 -10 8 -28 14 -39 14 -21 0
-21 -4 -21 -237z"/>
</g>
</g>
</svg>