<?xml version="1.0" standalone="no"?>
<!DOCTYPE svg PUBLIC "-//W3C//DTD SVG 20010904//EN"
 "http://www.w3.org/TR/2001/REC-SVG-20010904/DTD/svg10.dtd">
<svg version="1.0" xmlns="http://www.w3.org/2000/svg"
 width="96.000000pt" height="68.000000pt" viewBox="0 0 96.000000 68.000000"
 preserveAspectRatio="xMidYMid meet">
<metadata>
Created by potrace 1.16, written by Peter Selinger 2001-2019
Combined from part_0.svg through part_5.svg with named groups
</metadata>
<g transform="translate(0.000000,68.000000) scale(0.100000,-0.100000)" fill="#000000" stroke="none">
<g id="part-0" class="char-part">
  <path d="M440 580 c-102 -10 -197 -16 -212 -13 -33 6 -35 -3 -9 -31 10 -12 24
-43 31 -69 11 -42 16 -48 34 -42 39 12 261 26 333 21 55 -4 71 -2 67 8 -3 7 9
31 26 54 37 51 38 65 5 80 -31 14 -40 14 -275 -8z m70 -54 c0 -40 -3 -43 -58
-52 l-42 -7 0 41 c0 43 6 47 73 51 24 1 27 -2 27 -33z m139 17 c-1 -44 -14
-55 -67 -57 -29 -2 -52 -2 -52 0 0 2 8 19 17 39 15 32 20 35 60 35 35 0 43 -3
42 -17z m-273 -25 c14 -43 12 -46 -33 -53 -51 -7 -47 -10 -61 32 -12 35 -6 40
55 42 24 1 33 -4 39 -21z"/>
  <path d="M485 404 c-44 -7 -104 -13 -133 -13 -50 -1 -52 -2 -42 -21 6 -12 10
-61 8 -118 l-3 -97 34 3 33 4 -18 -30 c-9 -17 -44 -47 -76 -68 -32 -21 -56
-39 -54 -41 6 -7 71 23 140 65 64 39 66 41 46 55 -19 13 -18 15 26 21 83 11
134 8 134 -9 0 -8 4 -15 9 -15 24 0 32 35 34 144 2 64 3 116 2 116 0 0 -14 4
-30 8 -17 4 -65 2 -110 -4z m91 -39 c4 -14 5 -28 3 -30 -3 -2 -55 -7 -117 -11
l-112 -7 0 26 c0 24 4 26 58 32 31 4 62 8 67 10 6 2 29 4 52 4 38 1 43 -2 49
-24z m4 -79 c0 -22 -5 -23 -77 -30 -138 -11 -153 -9 -153 19 0 23 3 24 68 28
171 8 162 9 162 -17z m0 -71 c0 -23 -3 -25 -52 -25 -29 0 -83 -3 -119 -6 l-67
-7 5 26 c6 28 17 31 171 35 60 2 62 1 62 -23z"/>
  <path d="M570 81 c61 -57 89 -70 97 -45 10 29 -61 83 -132 100 -27 6 -24 1 35
-55z"/>
</g>
<g id="part-1" class="char-part">
  <path d="M540 584 c-63 -7 -165 -15 -226 -16 l-111 -3 18 -23 c10 -13 25 -45
34 -72 14 -41 19 -48 33 -40 26 14 336 32 340 20 8 -24 33 -6 72 52 33 50 38
64 28 75 -21 20 -64 22 -188 7z m114 -22 c3 -5 0 -25 -6 -44 l-10 -35 -92 -6
c-50 -4 -128 -10 -172 -13 l-82 -7 -12 37 c-7 21 -10 39 -8 41 3 3 56 9 258
28 73 7 119 7 124 -1z"/>
</g>
<g id="part-2" class="char-part">
  <path d="M510 538 c0 -13 -3 -33 -6 -45 -10 -35 12 -27 35 13 27 45 26 54 -4
54 -19 0 -25 -5 -25 -22z"/>
</g>
<g id="part-3" class="char-part">
  <path d="M475 404 c-55 -8 -117 -13 -138 -12 -31 3 -36 1 -30 -12 5 -8 7 -50
7 -92 -2 -70 0 -78 17 -78 11 0 19 4 19 9 0 5 50 12 111 16 85 6 113 4 119 -5
4 -7 15 -10 24 -7 12 5 16 20 16 61 0 30 4 66 10 80 8 23 6 28 -20 41 -16 8
-30 14 -32 14 -2 -1 -48 -8 -103 -15z m93 -26 c7 -7 12 -19 12 -29 0 -13 -15
-17 -82 -22 -141 -11 -148 -10 -148 17 0 23 5 25 68 31 37 4 72 8 77 10 23 8
62 4 73 -7z m12 -93 c0 -22 -4 -25 -38 -25 -22 0 -73 -3 -115 -6 l-77 -7 0 26
c0 25 2 26 68 30 172 9 162 10 162 -18z"/>
</g>
<g id="part-4" class="char-part">
  <path d="M580 205 c0 -11 -11 -15 -38 -15 -22 0 -73 -3 -115 -6 -67 -6 -77 -5
-77 10 0 10 -8 16 -21 16 -16 0 -20 -5 -17 -27 2 -21 8 -28 23 -26 11 1 69 5
128 9 99 6 109 5 122 -12 13 -16 16 -17 25 -4 5 8 10 27 10 43 0 20 -5 27 -20
27 -11 0 -20 -7 -20 -15z"/>
</g>
<g id="part-5" class="char-part">
  <path d="M383 131 c3 -15 1 -18 -11 -14 -10 4 -13 2 -8 -5 4 -7 1 -12 -8 -12
-8 0 -16 -3 -18 -8 -1 -4 -19 -18 -38 -31 -49 -32 -27 -23 58 24 65 35 71 41
56 52 -25 18 -37 16 -31 -6z"/>
  <path d="M540 127 c0 -14 82 -87 92 -81 7 4 8 3 4 -4 -4 -7 -1 -12 9 -12 10 0
15 6 13 18 -2 9 -10 16 -17 14 -7 -1 -10 2 -7 7 9 14 -33 41 -52 34 -9 -4 -13
-2 -9 4 4 6 0 14 -9 17 -18 7 -24 8 -24 3z"/>
</g>
</g>
</svg>