<?xml version="1.0" standalone="no"?>
<!DOCTYPE svg PUBLIC "-//W3C//DTD SVG 20010904//EN"
 "http://www.w3.org/TR/2001/REC-SVG-20010904/DTD/svg10.dtd">
<svg version="1.0" xmlns="http://www.w3.org/2000/svg"
 width="96.000000pt" height="68.000000pt" viewBox="0 0 96.000000 68.000000"
 preserveAspectRatio="xMidYMid meet">
<metadata>
Created by potrace 1.16, written by Peter Selinger 2001-2019
Combined from part_0.svg through part_5.svg with named groups
</metadata>
<g transform="translate(0.000000,68.000000) scale(0.100000,-0.100000)" fill="#000000" stroke="none">
<g id="part-0" class="char-part">
  <path d="M220 565 c0 -16 -27 -76 -39 -85 -15 -12 -52 -72 -48 -77 7 -7 46 15
76 43 22 21 81 34 81 18 0 -3 -11 -21 -25 -41 -13 -20 -22 -39 -21 -42 4 -6
-59 -12 -113 -11 -23 0 -23 -1 -8 -18 10 -10 22 -44 28 -76 9 -43 16 -56 26
-51 35 13 150 17 157 6 6 -9 11 -9 22 0 8 6 14 16 14 21 0 21 51 119 59 114 5
-3 14 -26 20 -52 10 -37 15 -45 29 -39 9 4 70 8 135 10 l118 3 30 47 c22 35
27 51 19 59 -13 13 -94 12 -237 -2 -70 -7 -115 -7 -140 0 -20 5 -55 8 -76 5
l-40 -5 52 48 c28 26 51 53 51 59 0 17 -50 25 -85 12 -44 -16 -51 -14 -31 8
25 28 13 56 -24 59 -22 2 -30 -2 -30 -13z m504 -183 c3 -5 2 -22 -3 -38 -6
-25 -13 -29 -44 -31 -40 -2 -49 14 -22 37 8 6 14 15 13 18 -2 17 4 22 26 22
14 0 27 -4 30 -8z m-374 -27 c0 -22 -4 -25 -35 -25 -28 0 -35 4 -35 19 0 19
15 27 53 30 12 1 17 -6 17 -24z m270 -10 c0 -30 -3 -35 -23 -35 -18 0 -26 8
-34 35 l-11 35 34 0 c32 0 34 -2 34 -35z m-82 -4 c12 -35 8 -41 -29 -41 -19 0
-28 6 -33 23 -10 39 -7 47 23 47 23 0 31 -6 39 -29z m-298 0 c0 -34 -64 -44
-73 -12 -6 26 0 31 40 31 26 0 33 -4 33 -19z m110 -35 c0 -31 -13 -46 -39 -46
-15 0 -30 3 -33 6 -12 11 5 43 26 47 40 8 46 7 46 -7z m-110 -31 c0 -21 -5
-25 -30 -25 -25 0 -30 4 -30 25 0 21 5 25 30 25 25 0 30 -4 30 -25z"/>
  <path d="M543 551 c-108 -16 -111 -17 -97 -36 8 -11 19 -36 25 -57 5 -21 14
-38 19 -38 12 0 12 23 1 71 l-8 36 60 7 c33 3 76 6 95 6 l34 0 -7 -56 c-6 -50
-5 -55 11 -52 20 4 62 105 48 117 -18 17 -72 17 -181 2z"/>
  <path d="M550 490 c-11 -7 -8 -10 15 -9 17 0 39 4 50 9 16 7 14 9 -15 9 -19 0
-42 -4 -50 -9z"/>
  <path d="M545 440 c-16 -7 -11 -9 20 -9 22 0 47 4 55 9 19 13 -46 13 -75 0z"/>
  <path d="M571 242 l-104 -15 24 -19 c48 -37 89 -80 84 -89 -8 -12 -91 -48
-150 -64 -27 -8 -40 -14 -27 -14 34 -1 154 30 180 47 24 16 26 15 82 -35 26
-24 82 -30 149 -17 46 9 38 19 -26 34 -98 22 -167 58 -135 72 5 2 26 22 47 46
58 65 32 76 -124 54z m64 -61 c-19 -38 -34 -39 -74 -3 l-32 27 58 10 c32 6 59
8 61 4 2 -4 -4 -21 -13 -38z"/>
  <path d="M360 192 c0 -4 11 -20 24 -37 18 -22 28 -27 36 -19 16 16 2 41 -31
53 -16 5 -29 7 -29 3z"/>
  <path d="M289 158 c19 -36 34 -41 39 -14 5 22 -16 46 -39 46 -18 0 -18 -1 0
-32z"/>
  <path d="M118 144 c-22 -43 -23 -74 -2 -74 19 0 45 60 37 88 -7 30 -15 27 -35
-14z"/>
  <path d="M190 171 c0 -6 11 -23 24 -38 22 -25 25 -26 31 -10 5 11 1 25 -10 37
-19 21 -45 27 -45 11z"/>
</g>
<g id="part-1" class="char-part">
  <path d="M227 573 c-2 -5 -7 -21 -11 -38 -4 -16 -23 -51 -43 -78 -19 -26 -33
-50 -31 -53 3 -2 25 14 50 36 33 28 55 40 77 40 17 0 31 -3 31 -6 0 -3 -14
-25 -30 -50 -17 -24 -27 -44 -21 -44 18 0 141 111 135 122 -4 7 -28 8 -65 4
l-58 -6 11 26 c11 22 9 28 -7 40 -21 16 -32 18 -38 7z"/>
</g>
<g id="part-2" class="char-part">
  <path d="M370 170 c26 -37 39 -45 51 -33 16 16 0 41 -33 52 -42 15 -42 15 -18
-19z"/>
  <path d="M287 158 c23 -40 43 -47 43 -16 0 29 -17 48 -43 48 -18 0 -18 -1 0
-32z"/>
  <path d="M117 145 c-21 -45 -22 -75 -1 -75 19 0 47 65 39 91 -9 28 -19 24 -38
-16z"/>
  <path d="M190 174 c0 -15 36 -64 45 -61 17 6 17 34 0 51 -16 15 -45 22 -45 10z"/>
</g>
<g id="part-3" class="char-part">
  <path d="M540 551 c-63 -9 -110 -20 -103 -24 6 -4 19 -30 28 -57 22 -67 39
-65 31 4 l-7 53 47 7 c26 3 67 6 92 6 l45 0 -7 -56 c-6 -48 -4 -55 10 -52 21
4 61 105 48 118 -18 18 -69 18 -184 1z"/>
  <path d="M540 490 c-19 -13 46 -13 75 0 16 7 11 9 -20 9 -22 0 -47 -4 -55 -9z"/>
  <path d="M545 440 c-16 -7 -11 -9 20 -9 22 0 47 4 55 9 19 13 -46 13 -75 0z"/>
</g>
<g id="part-4" class="char-part">
  <path d="M580 394 c-63 -8 -128 -12 -144 -9 -27 5 -28 4 -14 -12 9 -10 21 -37
27 -61 10 -37 15 -41 35 -36 41 10 216 20 216 12 0 -5 6 -8 14 -8 13 0 82 98
74 105 -15 13 -51 25 -70 24 -13 -1 -75 -8 -138 -15z m143 -38 c-1 -16 -6 -32
-10 -36 -4 -4 -58 -10 -120 -14 l-111 -6 -7 31 c-4 17 -5 32 -3 34 5 5 197 23
228 21 21 -1 25 -5 23 -30z"/>
</g>
<g id="part-5" class="char-part">
  <path d="M640 240 c0 -5 4 -11 8 -14 16 -9 6 -45 -17 -65 -13 -11 -20 -24 -17
-29 3 -5 -1 -9 -9 -9 -8 0 -12 4 -10 8 3 3 -11 20 -31 37 -20 17 -33 35 -30
40 5 9 -23 21 -48 22 -5 0 14 -21 42 -46 64 -58 67 -79 11 -94 -23 -6 -39 -13
-36 -16 2 -3 30 4 61 15 31 11 56 16 56 11 0 -4 18 -22 41 -38 35 -26 48 -30
86 -26 25 2 53 9 62 14 12 8 9 9 -11 4 -16 -3 -28 -2 -28 4 0 5 -12 12 -27 15
-16 3 -39 10 -53 15 -14 5 -29 10 -34 10 -10 0 -26 23 -26 38 0 6 11 17 25 24
22 12 42 44 37 62 -1 4 6 5 16 1 13 -4 14 -3 6 6 -13 15 -74 24 -74 11z"/>
  <path d="M585 230 c-8 -13 5 -13 25 0 13 8 13 10 -2 10 -9 0 -20 -4 -23 -10z"/>
</g>
</g>
</svg>