<?xml version="1.0" standalone="no"?>
<!DOCTYPE svg PUBLIC "-//W3C//DTD SVG 20010904//EN"
 "http://www.w3.org/TR/2001/REC-SVG-20010904/DTD/svg10.dtd">
<svg version="1.0" xmlns="http://www.w3.org/2000/svg"
 width="96.000000pt" height="68.000000pt" viewBox="0 0 96.000000 68.000000"
 preserveAspectRatio="xMidYMid meet">
<metadata>
Created by potrace 1.16, written by Peter Selinger 2001-2019
Combined from part_0.svg through part_5.svg with named groups
</metadata>
<g transform="translate(0.000000,68.000000) scale(0.100000,-0.100000)" fill="#000000" stroke="none">
<g id="part-0" class="char-part">
  <path d="M326 593 c4 -10 10 -50 12 -89 l3 -71 -72 -7 c-79 -7 -88 -11 -72
-27 6 -6 37 -9 72 -7 34 1 61 0 61 -3 0 -22 -100 -130 -113 -122 -6 3 -7 1 -3
-5 5 -8 -22 -34 -83 -79 -2 -2 -2 -6 2 -9 12 -12 100 37 152 87 36 34 55 46
55 36 0 -9 -5 -61 -11 -116 -11 -104 -4 -141 26 -141 26 0 35 38 35 156 l0
118 28 -27 c32 -31 60 -35 69 -10 4 11 -3 24 -22 39 -16 13 -31 21 -33 19 -11
-11 -42 18 -42 39 0 26 16 36 58 36 15 0 34 5 42 10 24 16 -7 31 -58 28 l-43
-3 7 45 c3 25 7 52 10 60 5 19 -5 34 -33 49 -34 17 -57 14 -47 -6z"/>
  <path d="M670 494 c-25 -7 -67 -13 -93 -13 l-49 -1 8 -32 c8 -37 8 -116 -2
-255 -6 -81 -4 -94 10 -99 10 -4 22 0 29 9 9 11 33 17 84 19 62 2 75 0 87 -17
9 -11 16 -23 16 -27 0 -13 18 -9 34 7 21 22 17 402 -5 416 -19 12 -64 9 -119
-7z m84 -36 c3 -13 6 -34 6 -48 0 -24 -4 -26 -78 -38 -109 -17 -104 -19 -100
36 3 47 3 47 48 59 25 6 61 12 81 12 30 1 38 -3 43 -21z m3 -146 c3 -41 2 -42
-30 -40 -17 1 -58 -2 -89 -6 l-58 -8 0 41 0 41 48 1 c26 1 61 5 77 9 45 11 50
7 52 -38z m0 -109 c-3 -43 -6 -48 -28 -49 -13 -1 -53 -3 -89 -5 l-65 -4 1 28
c2 67 -1 64 71 66 37 1 69 4 72 6 2 3 13 5 23 5 17 0 19 -6 15 -47z"/>
</g>
<g id="part-1" class="char-part">
  <path d="M334 584 c3 -9 9 -46 12 -84 l7 -68 -77 -7 c-42 -4 -79 -11 -81 -15
-9 -15 36 -22 92 -15 l54 7 -15 -29 c-18 -34 -96 -117 -151 -161 -22 -18 -34
-32 -27 -32 27 0 97 44 143 90 l49 49 0 -52 c0 -29 -5 -79 -10 -112 -10 -57 0
-115 19 -115 25 0 31 32 31 152 0 70 4 128 8 128 5 0 19 -11 31 -24 31 -33 61
-40 61 -15 0 21 -31 44 -73 55 -24 6 -28 11 -25 38 3 29 6 31 56 39 28 5 52
12 52 17 0 14 -38 22 -72 15 l-31 -7 6 68 c7 75 -1 94 -40 94 -19 0 -24 -4
-19 -16z"/>
</g>
<g id="part-2" class="char-part">
  <path d="M687 499 c-9 -6 -49 -13 -88 -16 -66 -6 -70 -8 -65 -27 3 -12 6 -74
6 -138 0 -111 1 -118 20 -118 13 0 20 7 20 20 0 17 7 20 44 20 24 0 64 3 90 6
45 7 46 6 46 -20 0 -20 5 -26 23 -26 22 0 22 1 22 146 -1 116 -4 147 -15 154
-20 13 -81 12 -103 -1z m67 -50 c12 -62 10 -66 -46 -72 -29 -4 -70 -9 -91 -13
l-38 -7 3 49 c3 49 3 49 48 61 25 6 61 12 81 12 33 1 37 -2 43 -30z m4 -132
c4 -43 4 -43 -100 -52 l-78 -6 0 41 0 40 48 1 c26 1 61 5 77 9 44 11 50 7 53
-33z"/>
</g>
<g id="part-3" class="char-part">
  <path d="M537 194 c-9 -9 -9 -67 -1 -88 8 -20 34 -21 34 -1 0 12 13 15 58 15
31 0 66 3 77 5 14 4 26 -3 40 -25 23 -34 28 -36 49 -14 10 10 16 33 16 65 0
46 -2 49 -25 49 -18 0 -26 -7 -31 -24 -5 -22 -11 -24 -72 -25 -37 -1 -75 -4
-84 -7 -12 -4 -17 2 -20 23 -3 27 -26 42 -41 27z"/>
</g>
</g>
</svg>