<?xml version="1.0" standalone="no"?>
<!DOCTYPE svg PUBLIC "-//W3C//DTD SVG 20010904//EN"
 "http://www.w3.org/TR/2001/REC-SVG-20010904/DTD/svg10.dtd">
<svg version="1.0" xmlns="http://www.w3.org/2000/svg"
 width="96.000000pt" height="68.000000pt" viewBox="0 0 96.000000 68.000000"
 preserveAspectRatio="xMidYMid meet">
<metadata>
Created by potrace 1.16, written by Peter Selinger 2001-2019
Combined from part_0.svg through part_5.svg with named groups
</metadata>
<g transform="translate(0.000000,68.000000) scale(0.100000,-0.100000)" fill="#000000" stroke="none">
<g id="part-0" class="char-part">
  <path d="M254 588 c4 -13 9 -53 13 -89 6 -75 11 -70 -89 -84 -67 -10 -60 -25
12 -25 42 0 60 -4 60 -13 0 -21 -49 -88 -108 -150 -41 -41 -51 -57 -38 -57 31
0 85 43 140 113 l22 27 -8 -87 c-4 -48 -10 -94 -13 -102 -6 -16 13 -81 23 -81
31 1 37 22 39 142 2 68 3 125 3 128 0 3 11 -8 24 -24 16 -19 30 -27 41 -22 26
9 14 39 -28 65 -53 34 -51 67 3 76 22 4 43 11 46 17 10 16 -18 29 -51 24 l-31
-4 7 66 c7 60 6 69 -13 85 -11 9 -29 17 -40 17 -16 0 -19 -5 -14 -22z"/>
  <path d="M520 585 c0 -25 35 -75 53 -75 28 0 32 29 7 55 -26 28 -60 39 -60 20z"/>
  <path d="M550 475 c-69 -13 -127 -24 -130 -25 -3 -1 5 -5 18 -11 16 -6 52 -4
109 6 47 8 104 15 127 16 22 0 50 4 61 8 19 8 19 8 -2 19 -28 15 -33 15 -183
-13z"/>
  <path d="M626 412 c-7 -6 37 -45 71 -63 20 -11 26 -11 33 1 13 21 -13 46 -60
58 -22 5 -41 7 -44 4z"/>
  <path d="M480 390 c0 -5 -14 -25 -31 -45 -34 -38 -32 -42 9 -21 36 19 66 52
57 65 -8 14 -35 14 -35 1z"/>
  <path d="M600 303 c0 -21 -8 -50 -18 -66 l-19 -27 -27 25 c-37 35 -75 59 -82
52 -3 -3 11 -17 31 -33 53 -40 61 -61 35 -89 -11 -12 -38 -29 -58 -38 -95 -38
-91 -36 -49 -36 38 -1 147 44 147 61 0 18 22 6 64 -36 32 -31 55 -45 85 -50
42 -6 118 1 125 13 3 4 -32 17 -77 30 -45 13 -94 32 -109 42 -14 11 -31 19
-37 19 -14 0 -15 27 -1 35 5 3 19 27 30 52 19 43 19 47 4 65 -28 30 -44 22
-44 -19z"/>
</g>
<g id="part-1" class="char-part">
  <path d="M264 513 l1 -88 -62 -9 c-35 -5 -63 -13 -63 -18 0 -4 27 -8 60 -8 33
0 60 -4 60 -8 0 -17 -63 -107 -112 -158 -28 -30 -48 -54 -44 -54 19 0 99 66
131 107 41 54 41 51 24 -90 -12 -95 -7 -137 15 -137 22 0 26 24 26 158 l0 127
34 -40 c36 -42 53 -43 42 -2 -3 15 -18 30 -36 37 -26 11 -31 17 -28 44 3 27 8
31 46 39 52 10 46 27 -10 27 l-40 0 7 65 c7 70 -2 95 -35 95 -15 0 -17 -11
-16 -87z"/>
</g>
<g id="part-2" class="char-part">
  <path d="M510 594 c0 -10 40 -83 49 -88 15 -10 41 5 41 23 0 21 -37 56 -67 64
-13 3 -23 3 -23 1z"/>
  <path d="M550 475 c-69 -12 -127 -24 -130 -24 -3 -1 5 -6 18 -11 15 -6 56 -4
120 5 53 9 119 18 145 21 40 5 46 8 36 20 -15 18 -37 17 -189 -11z"/>
</g>
<g id="part-3" class="char-part">
  <path d="M661 375 c46 -36 63 -42 74 -25 11 19 -46 60 -83 60 l-35 0 44 -35z"/>
  <path d="M480 390 c0 -5 -16 -28 -36 -50 -20 -22 -32 -40 -26 -40 8 0 83 51
112 77 6 6 -22 23 -37 23 -7 0 -13 -4 -13 -10z"/>
</g>
<g id="part-4" class="char-part">
  <path d="M600 305 c0 -20 -7 -49 -15 -66 l-16 -30 -42 34 c-45 36 -77 52 -77
37 0 -5 8 -11 18 -14 27 -9 82 -70 74 -82 -13 -18 -73 -56 -120 -76 l-47 -19
52 4 c37 3 66 13 104 37 l52 34 33 -37 c55 -60 73 -68 139 -62 94 9 95 19 6
43 -70 19 -161 62 -161 77 0 3 14 30 31 61 30 53 31 56 14 74 -28 31 -45 25
-45 -15z"/>
</g>
</g>
</svg>