<?xml version="1.0" standalone="no"?>
<!DOCTYPE svg PUBLIC "-//W3C//DTD SVG 20010904//EN"
 "http://www.w3.org/TR/2001/REC-SVG-20010904/DTD/svg10.dtd">
<svg version="1.0" xmlns="http://www.w3.org/2000/svg"
 width="96.000000pt" height="68.000000pt" viewBox="0 0 96.000000 68.000000"
 preserveAspectRatio="xMidYMid meet">
<metadata>
Created by potrace 1.16, written by Peter Selinger 2001-2019
Combined from part_0.svg through part_5.svg with named groups
</metadata>
<g transform="translate(0.000000,68.000000) scale(0.100000,-0.100000)" fill="#000000" stroke="none">
<g id="part-0" class="char-part">
  <path d="M555 618 c-2 -7 -5 -26 -7 -43 -3 -26 -8 -31 -45 -39 -61 -14 -54
-33 11 -28 15 2 17 -3 12 -22 -10 -39 9 -39 38 -1 25 33 30 35 86 35 59 0 85
14 59 31 -8 5 -33 8 -56 7 -40 -3 -41 -2 -36 24 5 23 1 29 -21 38 -34 13 -36
13 -41 -2z"/>
  <path d="M298 594 c-4 -4 -1 -19 7 -35 8 -15 15 -30 15 -34 0 -3 -25 -5 -55
-5 -56 0 -67 -8 -40 -30 10 -8 31 -11 60 -6 42 5 47 4 57 -19 14 -32 34 -26
30 8 -2 22 3 28 28 34 38 10 39 29 0 25 -26 -3 -30 1 -38 30 -6 25 -14 34 -33
36 -14 2 -28 0 -31 -4z"/>
  <path d="M565 450 c-11 -4 -67 -10 -125 -14 -58 -4 -121 -10 -140 -15 -33 -7
-33 -8 -12 -15 13 -4 51 -6 85 -4 l62 3 3 -81 3 -82 -33 -5 c-18 -4 -81 -9
-140 -13 -60 -4 -108 -10 -108 -15 0 -15 67 -21 125 -10 32 6 80 11 107 11 46
0 48 -1 48 -29 l0 -30 -80 -7 c-44 -3 -83 -11 -86 -15 -3 -5 33 -9 80 -9 l86
0 0 -55 c0 -30 4 -55 10 -55 10 0 30 63 30 98 0 21 4 22 78 23 42 0 86 4 97 8
19 8 19 8 -4 20 -16 9 -45 10 -97 6 l-74 -7 0 31 0 31 160 0 c88 0 160 4 160
8 0 5 -11 15 -25 22 -19 10 -51 11 -150 4 -69 -5 -130 -7 -135 -6 -11 4 -13
68 -4 124 7 41 5 40 128 53 34 4 55 10 49 16 -12 12 -74 18 -98 9z"/>
  <path d="M590 375 c0 -33 -2 -35 -34 -35 -19 0 -38 -4 -41 -10 -4 -6 8 -10 30
-10 33 0 35 -2 29 -25 -3 -14 -2 -25 3 -25 13 0 43 34 43 48 0 8 21 12 61 12
72 0 79 22 8 30 -25 3 -44 10 -45 18 -2 29 -5 32 -29 32 -22 0 -25 -4 -25 -35z"/>
  <path d="M274 365 c3 -8 9 -21 12 -29 4 -11 -5 -16 -38 -18 -23 -2 -42 -7 -40
-13 1 -6 24 -9 52 -7 44 3 49 2 52 -20 4 -30 22 -26 26 6 2 17 12 26 35 32
l32 8 -37 3 c-28 3 -37 9 -42 29 -5 18 -13 24 -32 24 -19 0 -25 -4 -20 -15z"/>
</g>
<g id="part-1" class="char-part">
  <path d="M554 578 c-8 -40 -11 -43 -47 -46 -43 -4 -40 -22 3 -22 27 0 29 -2
20 -25 -13 -35 4 -32 32 5 19 27 28 30 74 30 29 0 59 3 68 6 30 12 5 24 -50
24 -54 0 -64 6 -42 28 8 8 8 15 -2 27 -24 28 -46 18 -56 -27z"/>
  <path d="M304 578 c4 -13 10 -30 13 -40 4 -13 -5 -18 -52 -23 -54 -7 -55 -8
-34 -23 18 -12 30 -13 61 -5 37 10 39 9 56 -21 l17 -31 3 36 c3 32 7 38 35 45
l32 8 -37 3 c-33 4 -38 8 -38 29 0 17 -8 27 -26 34 -35 14 -37 13 -30 -12z"/>
</g>
<g id="part-2" class="char-part">
  <path d="M619 456 c-2 -2 -67 -9 -144 -15 -187 -15 -214 -20 -192 -32 28 -16
387 14 387 32 0 5 -4 9 -9 9 -5 0 -16 2 -23 5 -8 3 -16 4 -19 1z"/>
</g>
<g id="part-3" class="char-part">
  <path d="M588 378 c-3 -28 -7 -33 -33 -36 -47 -5 -55 -22 -11 -22 38 0 38 0
32 -32 l-6 -33 33 38 c30 34 36 37 85 37 65 0 68 23 4 28 -28 2 -42 8 -42 17
0 14 -29 35 -49 35 -5 0 -11 -15 -13 -32z"/>
  <path d="M274 363 c14 -34 11 -38 -24 -41 -19 -1 -42 -5 -50 -8 -30 -11 19
-26 60 -19 36 6 41 4 50 -19 13 -35 30 -33 30 3 0 23 6 30 33 39 l32 10 -37 1
c-30 1 -37 5 -40 24 -2 16 -11 23 -32 25 -24 3 -28 1 -22 -15z"/>
  <path d="M390 235 c-219 -19 -242 -23 -215 -34 24 -10 47 -11 110 -2 44 7 172
14 285 17 231 6 242 8 214 29 -25 19 -90 17 -394 -10z"/>
</g>
<g id="part-4" class="char-part">
  <path d="M440 181 l0 -29 -85 -7 c-47 -4 -82 -11 -79 -16 3 -5 41 -9 85 -9
l79 0 0 -55 c0 -30 4 -55 9 -55 11 0 17 17 26 78 l7 42 47 0 c27 0 69 3 95 6
38 6 44 9 35 21 -10 11 -30 12 -96 7 l-83 -7 0 27 c0 19 -5 26 -20 26 -15 0
-20 -7 -20 -29z"/>
</g>
</g>
</svg>