<?xml version="1.0" standalone="no"?>
<!DOCTYPE svg PUBLIC "-//W3C//DTD SVG 20010904//EN"
 "http://www.w3.org/TR/2001/REC-SVG-20010904/DTD/svg10.dtd">
<svg version="1.0" xmlns="http://www.w3.org/2000/svg"
 width="96.000000pt" height="68.000000pt" viewBox="0 0 96.000000 68.000000"
 preserveAspectRatio="xMidYMid meet">
<metadata>
Created by potrace 1.16, written by Peter Selinger 2001-2019
Combined from part_0.svg through part_5.svg with named groups
</metadata>
<g transform="translate(0.000000,68.000000) scale(0.100000,-0.100000)" fill="#000000" stroke="none">
<g id="part-0" class="char-part">
  <path d="M557 582 l5 -40 -66 -7 c-40 -5 -63 -11 -60 -17 4 -6 31 -8 65 -5 56
5 59 4 59 -18 0 -23 -22 -35 -67 -35 -13 0 -23 -5 -23 -11 0 -8 15 -10 48 -5
26 4 78 10 115 13 43 4 66 10 64 17 -2 7 -23 10 -51 8 -45 -4 -47 -3 -44 20 3
21 9 24 66 28 79 6 81 25 2 24 -59 -1 -59 -1 -62 30 -2 25 -8 32 -30 34 -25 3
-26 2 -21 -36z"/>
  <path d="M328 513 c1 -37 -1 -74 -6 -81 -5 -7 -25 -15 -45 -19 l-36 -5 -3 58
c-3 57 -4 59 -33 62 l-30 3 0 -163 c0 -155 -2 -166 -28 -227 -32 -77 -32 -74
-8 -61 31 16 60 63 75 121 l13 54 52 5 53 6 -7 -104 c-7 -98 -6 -104 11 -100
16 3 21 19 31 113 13 114 8 132 -27 119 -8 -3 -37 -8 -63 -11 l-49 -6 3 44 c4
65 6 67 72 74 l62 7 3 51 c2 29 4 68 5 87 2 31 -1 35 -23 38 -26 3 -26 3 -22
-65z"/>
  <path d="M565 420 c-87 -10 -163 -16 -167 -14 -11 7 -10 -4 3 -28 6 -11 13
-32 15 -46 3 -15 6 -27 7 -28 1 0 65 5 142 12 77 7 149 10 160 8 15 -4 29 6
53 37 39 51 39 57 6 69 -30 12 -19 12 -219 -10z m55 -45 c0 -33 -2 -35 -35
-35 -24 0 -35 5 -35 14 0 8 -3 21 -6 30 -4 11 3 16 33 19 21 2 39 4 41 5 1 1
2 -14 2 -33z m120 23 c0 -25 -15 -36 -57 -43 -47 -7 -47 -7 -33 29 8 22 16 26
50 26 25 0 40 -5 40 -12z m-221 -30 c12 -32 6 -38 -38 -38 -31 0 -40 4 -44 22
-8 30 -1 38 39 38 27 0 37 -5 43 -22z"/>
  <path d="M556 287 l-88 -10 6 -36 c3 -20 6 -62 6 -93 0 -45 3 -58 15 -58 8 0
15 5 15 11 0 5 5 7 11 4 13 -9 -25 -51 -64 -72 -46 -23 -25 -25 34 -3 74 29
95 45 80 63 -9 12 -2 15 46 19 41 4 61 1 68 -8 21 -28 33 2 35 86 2 47 2 91 1
98 -1 14 -33 14 -165 -1z m117 -22 c8 -20 3 -22 -86 -30 -74 -7 -79 -6 -75 11
2 14 15 21 48 25 82 11 108 10 113 -6z m5 -57 c2 -12 -11 -17 -60 -22 -35 -4
-73 -10 -85 -13 -18 -4 -23 -1 -23 15 0 16 10 21 73 29 85 12 91 11 95 -9z m2
-52 c0 -9 -18 -15 -52 -20 -86 -10 -118 -8 -118 8 0 14 16 17 138 24 21 1 32
-3 32 -12z"/>
  <path d="M680 51 c50 -45 80 -53 80 -20 0 21 -36 41 -96 54 -28 6 -28 5 16
-34z"/>
</g>
<g id="part-1" class="char-part">
  <path d="M187 437 c7 -114 -11 -252 -42 -312 -25 -50 -20 -57 14 -21 42 45 63
122 71 266 8 119 7 136 -8 148 -37 28 -42 16 -35 -81z"/>
</g>
<g id="part-2" class="char-part">
  <path d="M330 238 c-1 -35 -4 -81 -9 -104 -4 -22 -4 -51 1 -63 16 -44 35 -6
43 82 4 45 11 92 16 104 6 18 4 25 -11 33 -35 19 -40 12 -40 -52z"/>
</g>
<g id="part-3" class="char-part">
  <path d="M557 582 l5 -40 -66 -7 c-40 -5 -63 -11 -60 -17 4 -6 31 -8 65 -5 57
5 59 4 59 -18 0 -20 -6 -25 -45 -31 -62 -9 -59 -28 3 -20 26 3 78 9 115 12 78
8 90 31 13 26 -45 -3 -47 -2 -44 20 3 21 10 24 70 29 38 3 71 8 74 12 11 11
-46 20 -91 14 -43 -6 -44 -6 -47 26 -2 26 -8 33 -30 35 -25 3 -26 2 -21 -36z"/>
</g>
<g id="part-4" class="char-part">
  <path d="M566 420 c-87 -10 -165 -16 -172 -13 -12 4 -12 0 1 -23 8 -16 19 -40
24 -54 l9 -26 88 8 c49 5 122 10 163 12 74 3 74 3 102 42 16 21 28 42 29 45 0
9 -49 29 -68 28 -9 -1 -88 -9 -176 -19z m172 -32 c-2 -14 -13 -24 -32 -29 -39
-11 -254 -34 -260 -28 -2 2 -7 16 -11 30 -6 26 -6 26 82 36 48 5 119 11 156
11 65 2 68 1 65 -20z"/>
</g>
<g id="part-5" class="char-part">
  <path d="M525 80 c-3 -11 -11 -20 -16 -20 -5 0 -9 -5 -9 -11 0 -8 4 -8 13 -2
6 6 25 13 42 17 29 7 29 8 11 22 -26 19 -33 18 -41 -6z"/>
  <path d="M665 70 c3 -5 13 -10 21 -10 8 0 13 -4 10 -9 -3 -5 1 -12 10 -15 8
-3 12 -2 9 4 -3 6 -1 10 4 10 6 0 11 -9 11 -20 0 -21 15 -27 25 -10 3 6 1 10
-4 10 -6 0 -10 5 -8 11 1 5 -16 17 -38 24 -48 18 -48 18 -40 5z"/>
</g>
</g>
</svg>