<?xml version="1.0" standalone="no"?>
<!DOCTYPE svg PUBLIC "-//W3C//DTD SVG 20010904//EN"
 "http://www.w3.org/TR/2001/REC-SVG-20010904/DTD/svg10.dtd">
<svg version="1.0" xmlns="http://www.w3.org/2000/svg"
 width="96.000000pt" height="68.000000pt" viewBox="0 0 96.000000 68.000000"
 preserveAspectRatio="xMidYMid meet">
<metadata>
Created by potrace 1.16, written by Peter Selinger 2001-2019
Combined from part_0.svg through part_5.svg with named groups
</metadata>
<g transform="translate(0.000000,68.000000) scale(0.100000,-0.100000)" fill="#000000" stroke="none">
<g id="part-0" class="char-part">
  <path d="M307 584 c-6 -55 -17 -64 -77 -64 -51 0 -76 -12 -65 -30 5 -8 24 -10
61 -5 32 4 54 3 54 -3 0 -17 -59 -84 -106 -121 -40 -31 -44 -36 -26 -39 41 -6
140 76 177 148 12 23 22 30 45 30 25 0 30 -4 30 -25 0 -57 -39 -111 -76 -104
-23 4 -26 -3 -9 -21 22 -25 56 -26 83 -3 22 19 67 157 57 173 -3 6 -24 13 -46
16 -37 6 -40 8 -34 34 5 22 1 32 -17 44 -35 25 -45 19 -51 -30z"/>
  <path d="M665 540 c-16 -4 -66 -8 -109 -9 -66 -1 -77 -3 -64 -13 9 -7 24 -41
34 -76 17 -65 31 -84 44 -62 4 7 38 15 79 18 51 3 71 9 71 18 0 8 10 35 21 60
13 26 18 49 13 54 -14 14 -57 19 -89 10z m31 -35 c3 -8 1 -30 -6 -49 -9 -28
-17 -35 -43 -37 -57 -7 -75 0 -86 33 -18 51 -15 57 37 60 26 2 57 4 70 5 12 2
25 -4 28 -12z"/>
  <path d="M443 329 c2 -49 12 -45 -151 -55 -75 -5 -111 -11 -109 -18 5 -16 88
-19 165 -7 36 6 68 8 71 6 13 -14 -103 -93 -209 -144 -22 -10 -19 -11 24 -6
54 6 126 41 173 85 18 17 35 30 38 30 4 0 6 -33 5 -72 -4 -107 -3 -110 23
-106 20 3 22 9 25 81 2 42 5 77 8 77 5 0 103 -67 125 -86 17 -15 159 -20 159
-6 0 4 -35 18 -78 31 -70 21 -203 89 -216 110 -3 5 62 12 144 16 83 4 150 11
150 15 0 21 -64 29 -163 20 -56 -5 -108 -9 -114 -10 -8 0 -13 13 -13 34 0 22
-6 36 -16 40 -35 13 -43 7 -41 -35z"/>
</g>
<g id="part-1" class="char-part">
  <path d="M313 599 c3 -11 1 -33 -4 -49 -10 -26 -15 -29 -80 -35 -43 -4 -67
-11 -63 -17 4 -6 30 -8 65 -5 33 3 59 2 59 -1 0 -19 -44 -75 -94 -117 -31 -27
-54 -50 -52 -52 2 -3 26 7 53 21 50 25 115 93 133 140 7 19 17 26 35 26 15 0
25 6 25 15 0 9 -6 12 -15 9 -18 -7 -19 9 -4 38 9 18 8 24 -7 35 -29 21 -57 17
-51 -8z"/>
</g>
<g id="part-2" class="char-part">
  <path d="M660 540 c-14 -4 -61 -8 -104 -9 -66 -1 -77 -3 -64 -13 9 -7 23 -40
32 -72 17 -66 32 -89 45 -67 6 9 35 16 85 19 43 2 73 9 70 14 -7 11 14 67 34
91 10 11 12 21 6 26 -14 14 -76 21 -104 11z m27 -28 c9 -6 9 -18 1 -50 l-10
-42 -54 0 c-59 0 -59 0 -69 52 l-7 37 58 4 c33 2 61 4 64 5 3 1 10 -2 17 -6z"/>
</g>
<g id="part-3" class="char-part">
  <path d="M443 328 l2 -43 -137 -9 c-133 -9 -167 -18 -112 -32 26 -7 132 0 192
12 21 4 32 3 32 -5 0 -16 -84 -75 -165 -116 -67 -33 -68 -35 -35 -35 35 0 152
49 164 69 4 5 21 20 38 32 l31 22 -5 -76 c-5 -83 6 -115 36 -104 14 5 16 19
15 77 -1 39 1 73 4 77 3 3 37 -18 75 -46 68 -50 71 -51 141 -51 39 0 71 4 71
8 0 4 -35 18 -77 31 -76 21 -213 93 -213 110 0 5 65 12 145 16 80 4 145 11
145 15 0 21 -65 29 -158 20 -140 -14 -132 -15 -132 24 0 22 -6 36 -16 40 -35
14 -43 7 -41 -36z"/>
</g>
</g>
</svg>