<?xml version="1.0" standalone="no"?>
<!DOCTYPE svg PUBLIC "-//W3C//DTD SVG 20010904//EN"
 "http://www.w3.org/TR/2001/REC-SVG-20010904/DTD/svg10.dtd">
<svg version="1.0" xmlns="http://www.w3.org/2000/svg"
 width="96.000000pt" height="68.000000pt" viewBox="0 0 96.000000 68.000000"
 preserveAspectRatio="xMidYMid meet">
<metadata>
Created by potrace 1.16, written by Peter Selinger 2001-2019
Combined from part_0.svg through part_5.svg with named groups
</metadata>
<g transform="translate(0.000000,68.000000) scale(0.100000,-0.100000)" fill="#000000" stroke="none">
<g id="part-0" class="char-part">
  <path d="M478 552 c-76 -8 -138 -19 -138 -24 0 -4 7 -8 16 -8 15 0 16 -10 11
-83 -7 -107 -46 -212 -109 -295 -49 -65 -48 -67 11 -23 39 29 73 81 101 151
22 55 50 180 50 221 0 32 16 35 194 45 77 5 115 11 113 18 -5 16 -96 16 -249
-2z"/>
  <path d="M190 552 c0 -21 62 -73 84 -70 27 4 34 43 9 56 -30 16 -93 26 -93 14z"/>
  <path d="M524 492 c3 -5 8 -23 11 -40 5 -30 4 -31 -42 -38 -42 -6 -45 -8 -23
-16 13 -5 33 -7 44 -6 17 2 22 -3 24 -29 3 -32 2 -33 -35 -34 -21 -1 -51 -4
-68 -8 -64 -14 6 -20 118 -10 207 18 218 20 211 31 -4 7 -39 9 -95 6 l-89 -5
0 31 c0 29 2 31 42 34 46 3 58 8 58 24 0 7 -17 8 -51 4 l-51 -7 4 33 c3 31 1
33 -31 36 -18 2 -31 -1 -27 -6z"/>
  <path d="M120 420 c0 -16 62 -70 80 -70 26 0 37 27 19 45 -16 16 -99 37 -99
25z"/>
  <path d="M235 283 c-15 -21 -49 -58 -75 -83 -49 -45 -49 -45 -35 -77 8 -18 20
-33 28 -33 11 0 127 206 127 226 0 15 -22 -2 -45 -33z"/>
  <path d="M536 262 c5 -25 2 -30 -18 -35 -12 -4 -35 -7 -50 -7 -16 0 -28 -4
-28 -10 0 -5 23 -10 50 -10 l50 0 0 -34 0 -33 -101 -8 c-73 -5 -98 -10 -90
-18 12 -12 6 -12 281 -1 182 8 202 11 181 23 -24 13 -120 16 -198 6 -30 -4
-33 -2 -33 23 0 41 11 50 68 58 73 9 75 24 3 24 -54 0 -60 2 -63 23 -2 16 -11
23 -30 25 -26 3 -27 1 -22 -26z"/>
</g>
<g id="part-1" class="char-part">
  <path d="M190 550 c0 -13 70 -70 86 -70 11 0 14 8 12 27 -3 23 -10 29 -50 39
-27 7 -48 8 -48 4z"/>
  <path d="M152 386 c41 -40 68 -46 68 -17 0 26 -21 41 -67 47 l-38 6 37 -36z"/>
  <path d="M241 287 c-11 -19 -43 -55 -71 -81 -27 -26 -50 -52 -50 -59 0 -18 30
-58 39 -52 13 7 114 215 108 221 -2 3 -14 -10 -26 -29z"/>
</g>
<g id="part-2" class="char-part">
  <path d="M475 552 c-72 -8 -132 -16 -135 -19 -3 -2 3 -9 13 -14 13 -8 17 -23
17 -62 0 -103 -54 -246 -126 -334 -44 -54 -33 -55 29 -2 71 61 107 140 136
298 20 112 9 106 193 116 129 8 149 12 127 26 -19 12 -98 9 -254 -9z"/>
</g>
<g id="part-3" class="char-part">
  <path d="M527 462 l5 -40 -42 -7 c-49 -8 -37 -25 18 -25 29 0 32 -3 32 -30 0
-28 -2 -30 -42 -31 -24 -1 -54 -4 -68 -8 -52 -14 8 -19 121 -10 204 18 220 20
213 31 -4 7 -39 9 -95 6 l-89 -5 0 28 c0 25 4 29 38 34 60 11 73 16 66 27 -4
6 -26 8 -56 5 l-49 -6 3 32 c3 29 0 32 -29 35 -31 3 -31 3 -26 -36z"/>
</g>
<g id="part-4" class="char-part">
  <path d="M533 258 c2 -32 1 -33 -48 -39 -35 -3 -45 -7 -33 -13 9 -4 33 -6 53
-3 35 5 35 5 35 -33 l0 -38 -101 -8 c-67 -4 -97 -10 -90 -17 5 -5 22 -9 38 -9
15 0 122 4 238 9 187 7 207 10 185 22 -24 14 -103 16 -188 5 l-43 -6 3 39 3
38 63 9 c79 12 81 29 2 24 -57 -3 -59 -2 -62 22 -2 19 -10 26 -30 28 -24 3
-26 0 -25 -30z"/>
</g>
</g>
</svg>