<?xml version="1.0" standalone="no"?>
<!DOCTYPE svg PUBLIC "-//W3C//DTD SVG 20010904//EN"
 "http://www.w3.org/TR/2001/REC-SVG-20010904/DTD/svg10.dtd">
<svg version="1.0" xmlns="http://www.w3.org/2000/svg"
 width="96.000000pt" height="68.000000pt" viewBox="0 0 96.000000 68.000000"
 preserveAspectRatio="xMidYMid meet">
<metadata>
Created by potrace 1.16, written by Peter Selinger 2001-2019
Combined from part_0.svg through part_5.svg with named groups
</metadata>
<g transform="translate(0.000000,68.000000) scale(0.100000,-0.100000)" fill="#000000" stroke="none">
<g id="part-0" class="char-part">
  <path d="M286 574 c14 -88 15 -86 -50 -106 -82 -25 -83 -32 -3 -24 62 6 67 5
67 -13 0 -19 -13 -24 -89 -34 -8 -1 -16 -8 -19 -14 -2 -9 11 -13 47 -13 37 0
53 -4 58 -15 8 -23 3 -25 -83 -39 -85 -13 -114 -36 -45 -36 22 0 52 5 66 10
15 6 31 8 36 4 15 -9 -68 -101 -125 -141 -33 -23 -42 -32 -26 -28 33 9 131 73
148 97 24 33 28 19 19 -73 -8 -79 -7 -93 7 -108 27 -26 36 2 36 112 0 64 4 97
11 97 6 0 27 -16 46 -35 37 -37 58 -44 66 -21 7 19 -25 47 -76 67 -67 26 -60
45 18 54 87 9 84 31 -4 27 -36 -2 -61 1 -61 7 0 19 31 41 58 41 32 0 60 16 48
27 -4 4 -28 8 -52 8 -67 0 -56 38 17 59 32 10 44 18 44 32 0 22 -50 33 -68 15
-20 -20 -28 -11 -22 22 7 37 -4 51 -48 62 l-29 8 8 -49z"/>
  <path d="M653 510 c-11 -5 -57 -14 -102 -21 -44 -7 -78 -16 -75 -21 8 -12 57
-10 121 7 31 8 65 15 75 15 17 0 17 -2 3 -27 -23 -44 -52 -73 -70 -73 -13 0
-15 -4 -8 -12 6 -7 13 -25 16 -39 6 -25 4 -27 -40 -33 -25 -3 -65 -6 -89 -6
-23 0 -45 -4 -48 -9 -10 -15 43 -22 115 -15 l69 7 -1 -64 c-1 -35 -4 -77 -8
-94 -6 -26 -11 -30 -40 -28 l-33 1 33 -34 c18 -19 39 -34 46 -34 25 0 38 47
43 150 l5 105 93 3 c50 1 92 7 92 12 0 19 -65 30 -124 20 -33 -5 -61 -9 -62
-7 -1 1 -4 19 -8 39 -7 36 -6 37 59 83 36 26 65 49 65 51 0 8 -68 34 -87 33
-10 0 -28 -4 -40 -9z"/>
</g>
<g id="part-1" class="char-part">
  <path d="M291 578 c5 -18 9 -47 9 -65 0 -31 -3 -33 -55 -48 -30 -9 -55 -18
-55 -20 0 -2 25 -1 55 2 51 5 55 4 55 -15 0 -16 -9 -24 -37 -31 -21 -6 -44
-11 -51 -11 -7 0 -10 -5 -6 -11 3 -6 22 -9 43 -7 20 3 44 0 54 -6 14 -9 21 -7
30 5 7 9 31 20 55 24 56 9 54 25 -3 25 -41 0 -45 2 -45 24 0 20 8 27 50 41 61
20 69 31 36 47 -21 9 -29 8 -44 -5 -27 -25 -32 -21 -32 23 0 40 -18 60 -54 60
-12 0 -13 -6 -5 -32z"/>
</g>
<g id="part-2" class="char-part">
  <path d="M300 346 c0 -15 -19 -20 -105 -32 -27 -4 -57 -10 -65 -14 -27 -15 41
-24 94 -13 28 6 52 10 54 8 7 -7 -80 -100 -127 -135 -29 -22 -47 -40 -40 -40
22 0 114 56 148 90 l31 32 -1 -49 c-1 -26 -4 -61 -8 -78 -8 -36 6 -85 24 -85
20 0 25 24 25 126 0 52 3 94 6 94 3 0 24 -16 47 -35 41 -36 61 -43 72 -25 12
20 -16 48 -67 67 -72 28 -69 45 12 59 36 7 67 12 70 13 3 1 -2 6 -10 11 -8 6
-40 7 -72 4 -40 -5 -58 -3 -58 5 0 6 -7 11 -15 11 -8 0 -15 -6 -15 -14z"/>
</g>
<g id="part-3" class="char-part">
  <path d="M630 505 c-30 -7 -76 -16 -102 -20 -27 -3 -48 -10 -48 -16 0 -13 50
-11 125 6 37 9 71 15 76 13 5 -2 -6 -25 -23 -51 -33 -52 -31 -72 5 -40 12 11
44 35 70 53 42 28 47 34 35 46 -21 21 -75 25 -138 9z"/>
</g>
<g id="part-4" class="char-part">
  <path d="M606 363 c7 -16 14 -33 14 -39 0 -15 -47 -24 -121 -24 -59 0 -85 -13
-49 -25 12 -4 55 -3 97 0 l76 8 -5 -87 c-5 -101 -14 -116 -60 -98 l-32 12 39
-40 c22 -22 45 -40 53 -40 25 0 42 66 42 165 l0 95 95 0 c97 0 119 10 65 28
-20 7 -49 8 -87 2 -76 -13 -73 -13 -73 10 0 23 -33 60 -54 60 -13 0 -13 -4 0
-27z"/>
</g>
</g>
</svg>