<?xml version="1.0" standalone="no"?>
<!DOCTYPE svg PUBLIC "-//W3C//DTD SVG 20010904//EN"
 "http://www.w3.org/TR/2001/REC-SVG-20010904/DTD/svg10.dtd">
<svg version="1.0" xmlns="http://www.w3.org/2000/svg"
 width="96.000000pt" height="68.000000pt" viewBox="0 0 96.000000 68.000000"
 preserveAspectRatio="xMidYMid meet">
<metadata>
Created by potrace 1.16, written by Peter Selinger 2001-2019
Combined from part_0.svg through part_5.svg with named groups
</metadata>
<g transform="translate(0.000000,68.000000) scale(0.100000,-0.100000)" fill="#000000" stroke="none">
<g id="part-0" class="char-part">
  <path d="M313 593 c-11 -33 -54 -84 -105 -123 -27 -22 -43 -40 -35 -40 25 0
110 50 166 98 l54 46 -23 18 c-28 23 -49 23 -57 1z"/>
  <path d="M653 564 c-7 -3 -52 -14 -100 -23 -116 -24 -87 -37 46 -21 91 11 132
22 121 34 -9 8 -55 15 -67 10z"/>
  <path d="M297 431 c-6 -30 -102 -130 -160 -168 -69 -44 -30 -37 45 8 40 24 76
46 80 47 13 6 9 -119 -4 -154 -12 -35 0 -84 22 -84 13 0 19 27 28 128 6 64 5
90 -6 113 -14 28 -13 31 14 54 16 14 32 25 37 25 4 0 7 9 7 19 0 12 -11 23
-29 29 -27 9 -29 8 -34 -17z"/>
  <path d="M558 411 c-91 -14 -170 -29 -173 -33 -15 -15 51 -21 105 -10 85 18
109 16 115 -10 3 -13 5 -72 3 -133 -3 -121 -2 -118 -68 -100 -22 6 -20 1 17
-34 23 -23 49 -41 57 -41 9 0 23 14 31 31 13 24 15 58 13 169 -2 109 0 141 10
145 8 3 49 5 92 5 80 0 106 11 71 29 -29 16 -86 12 -273 -18z"/>
</g>
<g id="part-1" class="char-part">
  <path d="M320 602 c0 -20 -60 -97 -100 -128 -53 -42 -31 -45 32 -5 50 32 128
99 128 111 0 4 -11 12 -25 18 -31 14 -35 15 -35 4z"/>
</g>
<g id="part-2" class="char-part">
  <path d="M300 434 c0 -19 -87 -112 -152 -161 -70 -54 -41 -53 42 1 39 25 73
46 75 46 10 0 5 -111 -7 -154 -9 -35 -9 -51 1 -72 11 -25 13 -26 28 -11 25 24
35 215 14 241 -15 17 -13 21 29 58 43 37 44 39 26 53 -26 20 -56 19 -56 -1z"/>
</g>
<g id="part-3" class="char-part">
  <path d="M567 547 c-67 -14 -95 -23 -88 -30 12 -12 220 9 235 24 5 5 -2 13
-18 19 -15 5 -28 9 -29 9 -1 -1 -46 -11 -100 -22z"/>
</g>
<g id="part-4" class="char-part">
  <path d="M563 411 c-95 -15 -175 -30 -179 -33 -16 -16 48 -18 131 -3 50 9 140
19 200 22 125 6 156 16 112 32 -39 15 -66 13 -264 -18z"/>
</g>
<g id="part-5" class="char-part">
  <path d="M630 370 c0 -6 -3 -9 -7 -7 -5 3 -9 -15 -9 -39 -1 -24 2 -42 5 -39 4
2 4 -26 -1 -63 -4 -37 -7 -77 -7 -88 -1 -24 -33 -38 -50 -21 -7 7 -11 8 -11 1
0 -16 38 -47 60 -51 25 -4 34 12 21 36 -9 16 -8 18 11 13 15 -3 19 -2 14 7 -7
10 -10 215 -3 242 1 7 -4 14 -10 16 -7 3 -13 0 -13 -7z"/>
</g>
</g>
</svg>