<?xml version="1.0" standalone="no"?>
<!DOCTYPE svg PUBLIC "-//W3C//DTD SVG 20010904//EN"
 "http://www.w3.org/TR/2001/REC-SVG-20010904/DTD/svg10.dtd">
<svg version="1.0" xmlns="http://www.w3.org/2000/svg"
 width="96.000000pt" height="68.000000pt" viewBox="0 0 96.000000 68.000000"
 preserveAspectRatio="xMidYMid meet">
<metadata>
Created by potrace 1.16, written by Peter Selinger 2001-2019
Combined from part_0.svg through part_5.svg with named groups
</metadata>
<g transform="translate(0.000000,68.000000) scale(0.100000,-0.100000)" fill="#000000" stroke="none">
<g id="part-0" class="char-part">
  <path d="M264 588 c3 -13 9 -54 12 -91 8 -82 8 -83 -88 -92 -37 -4 -68 -11
-68 -16 0 -14 47 -22 95 -15 25 4 45 3 45 -2 0 -18 -78 -128 -119 -167 -22
-21 -41 -43 -41 -47 0 -18 78 26 123 70 54 53 55 52 37 -71 -8 -57 -7 -73 6
-99 l17 -32 18 23 c16 20 19 41 19 137 0 63 2 114 5 114 2 0 16 -12 30 -26 30
-30 50 -27 50 7 0 19 -8 27 -42 37 -37 12 -43 18 -43 42 0 25 4 28 50 34 33 4
50 11 50 21 0 18 -32 27 -66 19 l-27 -7 6 59 c3 32 8 67 12 76 5 12 -2 21 -24
32 -44 23 -65 21 -57 -6z"/>
  <path d="M675 499 c-27 -4 -96 -13 -152 -20 -141 -16 -136 -34 7 -25 60 3 116
9 124 12 32 12 41 -35 40 -204 -1 -180 -3 -187 -58 -171 -48 14 -49 11 -9 -23
21 -18 40 -36 41 -40 7 -14 39 -8 55 10 15 16 17 47 17 225 l0 207 33 1 c17 1
37 1 44 0 24 -3 23 19 -2 29 -30 11 -68 11 -140 -1z"/>
  <path d="M540 360 c-14 -4 -49 -8 -78 -9 -39 -1 -52 -4 -48 -13 2 -7 12 -37
21 -66 14 -45 19 -51 38 -47 12 4 45 9 72 13 44 6 50 10 55 37 4 17 12 41 19
53 7 13 11 26 9 28 -10 9 -65 12 -88 4z m18 -57 c-3 -35 -6 -38 -41 -44 -42
-7 -42 -7 -51 38 -7 29 -5 32 21 36 73 11 74 10 71 -30z"/>
</g>
<g id="part-1" class="char-part">
  <path d="M268 604 c-4 -3 -2 -20 3 -37 5 -18 9 -59 9 -93 l0 -61 -46 -7 c-26
-3 -60 -6 -75 -6 -16 0 -29 -4 -29 -10 0 -6 30 -10 71 -10 l70 0 -27 -50 c-15
-28 -52 -77 -81 -110 -30 -33 -51 -60 -46 -60 18 0 73 41 118 87 41 41 47 45
42 23 -3 -14 -8 -63 -12 -110 -5 -68 -3 -89 9 -105 29 -38 41 -4 46 131 l5
126 24 -26 c28 -29 46 -33 55 -11 6 18 -30 45 -61 45 -20 0 -23 5 -23 35 0 29
4 35 25 40 14 3 36 7 50 10 43 9 28 27 -20 24 -24 -2 -47 0 -50 3 -3 3 -1 36
5 73 9 54 8 71 -2 81 -16 15 -52 26 -60 18z"/>
</g>
<g id="part-2" class="char-part">
  <path d="M578 487 c-93 -11 -168 -24 -168 -28 0 -16 49 -17 158 -3 64 8 151
14 194 14 80 0 108 13 63 30 -33 13 -44 12 -247 -13z"/>
</g>
<g id="part-3" class="char-part">
  <path d="M684 439 c20 -103 14 -356 -9 -352 -6 1 -27 4 -49 8 l-38 8 44 -42
c52 -47 71 -51 93 -17 13 19 15 56 13 222 l-3 199 -29 3 c-28 3 -29 2 -22 -29z"/>
</g>
<g id="part-4" class="char-part">
  <path d="M541 359 c-13 -5 -51 -10 -83 -10 -54 -1 -58 -3 -44 -18 8 -9 17 -32
21 -52 10 -55 16 -60 55 -49 19 6 51 10 72 10 29 0 37 4 36 18 -1 9 7 34 17
55 15 33 16 40 4 48 -18 11 -47 10 -78 -2z m17 -56 c-3 -34 -6 -38 -42 -45
-21 -5 -40 -7 -42 -6 -1 2 -5 20 -9 40 -7 34 -5 37 22 41 73 11 74 10 71 -30z"/>
</g>
</g>
</svg>