<?xml version="1.0" standalone="no"?>
<!DOCTYPE svg PUBLIC "-//W3C//DTD SVG 20010904//EN"
 "http://www.w3.org/TR/2001/REC-SVG-20010904/DTD/svg10.dtd">
<svg version="1.0" xmlns="http://www.w3.org/2000/svg"
 width="96.000000pt" height="68.000000pt" viewBox="0 0 96.000000 68.000000"
 preserveAspectRatio="xMidYMid meet">
<metadata>
Created by potrace 1.16, written by Peter Selinger 2001-2019
Combined from part_0.svg through part_5.svg with named groups
</metadata>
<g transform="translate(0.000000,68.000000) scale(0.100000,-0.100000)" fill="#000000" stroke="none">
<g id="part-0" class="char-part">
  <path d="M550 569 c0 -24 42 -79 61 -79 29 0 25 44 -7 69 -29 23 -54 27 -54
10z"/>
  <path d="M220 557 c0 -24 51 -88 68 -85 29 5 27 53 -4 77 -30 23 -64 28 -64 8z"/>
  <path d="M710 490 c-25 -4 -97 -15 -160 -25 -63 -9 -117 -19 -119 -21 -15 -14
49 -15 138 -1 58 9 143 20 189 23 85 7 104 17 51 28 -34 7 -33 7 -99 -4z"/>
  <path d="M220 449 c-63 -10 -119 -18 -123 -18 -14 -1 4 -22 26 -30 27 -10 279
30 284 46 4 11 -30 24 -57 22 -8 -1 -67 -10 -130 -20z"/>
  <path d="M655 390 c-16 -6 -67 -13 -112 -16 -81 -7 -82 -7 -67 -28 8 -12 19
-37 24 -58 10 -35 11 -36 50 -31 35 5 40 3 45 -19 9 -36 1 -153 -10 -152 -5 1
-21 5 -35 9 -24 7 -23 5 9 -29 64 -66 83 -44 85 96 l1 103 48 3 c28 2 45 7 41
13 -3 5 6 30 21 55 15 25 24 48 21 51 -10 10 -91 12 -121 3z m50 -31 c4 -5 1
-23 -5 -40 -10 -22 -19 -29 -40 -29 -15 0 -48 -3 -73 -6 -43 -6 -46 -5 -61 25
-19 36 -19 36 64 50 78 12 108 13 115 0z"/>
  <path d="M250 363 c-46 -6 -64 -23 -23 -23 52 0 123 12 123 21 0 9 -34 9 -100
2z"/>
  <path d="M245 293 c-16 -3 -34 -9 -40 -15 -13 -14 135 -2 149 12 10 10 -48 11
-109 3z"/>
  <path d="M285 220 c-11 -5 -45 -9 -75 -9 -38 -1 -51 -4 -40 -11 8 -5 22 -31
30 -57 12 -38 19 -47 35 -45 110 14 116 15 110 30 -3 8 4 29 16 48 11 18 18
38 14 44 -7 12 -62 12 -90 0z m28 -52 c-7 -40 -3 -36 -37 -42 -31 -6 -55 14
-56 46 0 18 17 25 67 27 31 1 32 0 26 -31z"/>
  <path d="M710 212 c0 -16 91 -122 105 -122 27 0 17 50 -15 80 -29 28 -90 56
-90 42z"/>
  <path d="M473 183 c-7 -15 -27 -43 -43 -60 -33 -35 -21 -44 20 -16 35 24 80
76 77 88 -8 23 -42 15 -54 -12z"/>
</g>
<g id="part-1" class="char-part">
  <path d="M220 565 c0 -14 30 -62 49 -79 26 -24 47 -9 37 27 -6 27 -86 74 -86
52z"/>
  <path d="M196 441 c-89 -14 -97 -18 -82 -30 18 -15 24 -14 263 26 18 3 30 9
27 14 -8 13 -95 9 -208 -10z"/>
</g>
<g id="part-2" class="char-part">
  <path d="M285 220 c-11 -5 -44 -9 -74 -9 -51 -1 -53 -2 -38 -18 8 -10 20 -38
27 -61 10 -39 14 -43 33 -38 12 4 46 9 75 13 38 4 50 9 42 17 -6 8 -2 23 11
45 11 19 18 40 15 47 -6 16 -59 18 -91 4z m29 -47 c-8 -35 -12 -39 -46 -47
-29 -7 -32 -4 -42 36 -7 29 2 35 62 37 30 1 32 -1 26 -26z"/>
</g>
<g id="part-3" class="char-part">
  <path d="M563 538 c28 -48 60 -58 65 -20 4 27 -32 61 -67 62 l-23 0 25 -42z"/>
  <path d="M705 489 c-27 -4 -101 -15 -163 -25 -80 -12 -110 -20 -103 -27 8 -8
55 -5 164 11 83 12 171 22 195 22 45 0 57 14 20 24 -28 7 -47 6 -113 -5z"/>
</g>
<g id="part-4" class="char-part">
  <path d="M625 384 c-33 -7 -84 -13 -113 -14 -52 0 -52 0 -38 -22 7 -13 19 -40
26 -61 9 -28 16 -37 28 -33 10 3 61 8 114 11 73 6 95 10 91 20 -5 15 9 46 33
69 13 13 14 20 4 31 -15 18 -64 18 -145 -1z m85 -23 c0 -4 -5 -22 -11 -40 -9
-26 -16 -31 -44 -31 -18 0 -52 -3 -77 -6 -44 -6 -45 -6 -54 27 l-10 34 61 11
c75 14 135 17 135 5z"/>
</g>
<g id="part-5" class="char-part">
  <path d="M609 251 c-5 -38 -2 -141 4 -141 5 0 1 -7 -8 -16 -8 -9 -24 -14 -35
-11 -19 5 -19 4 -2 -18 9 -13 20 -21 25 -18 4 2 7 -2 7 -9 0 -8 6 -7 17 5 21
21 29 167 10 167 -8 0 -8 3 -2 8 15 11 14 39 -1 39 -8 0 -14 -3 -15 -6z m21
-165 c0 -3 -4 -8 -10 -11 -5 -3 -10 -1 -10 4 0 6 5 11 10 11 6 0 10 -2 10 -4z"/>
  <path d="M481 182 c-7 -15 -23 -40 -37 -55 -33 -35 -18 -34 25 3 18 15 30 33
26 39 -4 7 -1 10 7 9 16 -4 18 24 2 29 -6 2 -17 -9 -23 -25z"/>
  <path d="M725 198 c1 -7 8 -12 14 -10 6 1 11 -5 11 -14 0 -10 6 -14 14 -11 8
3 20 -1 26 -9 9 -10 9 -14 1 -14 -6 0 -11 5 -11 11 0 5 -4 8 -9 4 -5 -3 1 -17
14 -31 26 -28 46 -25 38 6 -6 23 -69 74 -82 65 -5 -3 -12 0 -14 5 -3 6 -4 5
-2 -2z"/>
</g>
</g>
</svg>