<?xml version="1.0" standalone="no"?>
<!DOCTYPE svg PUBLIC "-//W3C//DTD SVG 20010904//EN"
 "http://www.w3.org/TR/2001/REC-SVG-20010904/DTD/svg10.dtd">
<svg version="1.0" xmlns="http://www.w3.org/2000/svg"
 width="96.000000pt" height="68.000000pt" viewBox="0 0 96.000000 68.000000"
 preserveAspectRatio="xMidYMid meet">
<metadata>
Created by potrace 1.16, written by Peter Selinger 2001-2019
Combined from part_0.svg through part_5.svg with named groups
</metadata>
<g transform="translate(0.000000,68.000000) scale(0.100000,-0.100000)" fill="#000000" stroke="none">
<g id="part-0" class="char-part">
  <path d="M227 554 c11 -66 8 -225 -7 -355 -13 -110 -6 -149 24 -149 25 0 36
61 36 201 0 170 2 177 43 143 26 -21 32 -23 44 -11 21 20 6 44 -39 62 l-41 16
6 52 c8 62 1 75 -42 83 l-33 7 9 -49z"/>
  <path d="M553 564 c6 -28 11 -125 8 -151 -1 -16 -81 -18 -81 -3 0 6 6 19 12
30 10 16 10 23 -4 36 -21 21 -48 11 -48 -18 0 -13 -14 -50 -30 -82 -17 -33
-28 -61 -25 -64 2 -3 20 11 39 30 30 30 39 34 87 33 l54 0 3 -46 c3 -51 -6
-59 -75 -59 -18 0 -33 -4 -33 -10 0 -5 25 -10 55 -10 l55 0 0 -49 c0 -28 -4
-52 -9 -55 -4 -3 -52 -8 -105 -12 -53 -4 -96 -10 -96 -14 0 -15 67 -20 150
-10 47 5 140 10 208 10 71 0 122 4 122 10 0 21 -44 30 -132 28 l-93 -3 -3 36
c-4 47 18 69 66 69 20 0 43 4 51 9 20 13 -19 23 -72 19 -29 -2 -42 1 -41 10 1
6 2 30 3 53 0 22 5 38 10 35 10 -6 111 11 120 20 3 3 -1 9 -9 15 -14 9 -71 6
-104 -7 -13 -5 -16 2 -16 44 0 28 5 63 12 77 14 32 4 44 -46 52 -38 6 -38 6
-33 -23z"/>
  <path d="M120 363 c-34 -65 -36 -96 -4 -101 36 -5 76 94 58 142 -10 27 -21 18
-54 -41z"/>
</g>
<g id="part-1" class="char-part">
  <path d="M227 572 c12 -40 9 -316 -5 -394 -13 -70 -3 -118 24 -118 20 0 23 20
30 205 l7 176 31 -31 c37 -35 56 -38 56 -10 0 15 -13 26 -46 40 -39 17 -45 24
-41 43 22 93 22 91 -34 107 -30 9 -31 9 -22 -18z"/>
  <path d="M126 364 c-32 -57 -34 -94 -6 -94 11 0 26 12 35 30 16 32 21 110 6
110 -5 0 -21 -21 -35 -46z"/>
</g>
<g id="part-2" class="char-part">
  <path d="M440 466 c0 -13 -15 -54 -34 -92 -19 -38 -33 -70 -31 -72 8 -9 84 72
106 112 19 37 21 47 10 60 -21 25 -51 20 -51 -8z"/>
</g>
<g id="part-3" class="char-part">
  <path d="M550 584 c0 -5 5 -40 10 -78 14 -95 9 -106 -47 -106 -31 0 -43 -4
-40 -12 2 -8 22 -13 48 -13 l44 0 3 -46 c3 -51 -6 -59 -75 -59 -17 0 -35 -5
-38 -10 -4 -6 17 -10 54 -10 l61 0 0 -50 c0 -43 3 -50 20 -50 17 0 20 7 20 50
0 49 0 49 38 55 89 15 95 17 81 26 -8 5 -34 8 -59 7 -50 -3 -50 -4 -50 52 0
37 2 39 38 45 78 13 92 17 92 25 0 16 -35 20 -83 11 l-47 -8 0 45 c0 25 5 60
12 79 6 18 9 35 6 39 -11 10 -88 17 -88 8z"/>
</g>
<g id="part-4" class="char-part">
  <path d="M705 154 c-11 -1 -96 -8 -188 -15 -111 -8 -164 -16 -158 -22 12 -12
50 -12 286 -3 206 9 221 11 185 31 -23 13 -74 17 -125 9z"/>
</g>
</g>
</svg>