<?xml version="1.0" standalone="no"?>
<!DOCTYPE svg PUBLIC "-//W3C//DTD SVG 20010904//EN"
 "http://www.w3.org/TR/2001/REC-SVG-20010904/DTD/svg10.dtd">
<svg version="1.0" xmlns="http://www.w3.org/2000/svg"
 width="96.000000pt" height="68.000000pt" viewBox="0 0 96.000000 68.000000"
 preserveAspectRatio="xMidYMid meet">
<metadata>
Created by potrace 1.16, written by Peter Selinger 2001-2019
Combined from part_0.svg through part_5.svg with named groups
</metadata>
<g transform="translate(0.000000,68.000000) scale(0.100000,-0.100000)" fill="#000000" stroke="none">
<g id="part-0" class="char-part">
  <path d="M516 603 c-61 -33 -161 -60 -205 -55 l-44 4 7 -28 c13 -51 36 -188
36 -215 0 -26 -1 -27 -95 -34 -95 -7 -116 -17 -70 -35 16 -6 52 -4 107 5 106
18 331 35 478 35 l115 1 -25 20 c-23 20 -33 21 -144 14 -98 -6 -118 -5 -114 7
33 87 33 87 12 103 -18 14 -17 14 16 15 70 1 105 21 58 34 -19 4 -189 -20
-275 -39 -21 -5 -23 -2 -23 38 l0 43 136 27 c75 14 139 29 142 32 3 3 -3 14
-13 25 -22 24 -59 25 -99 3z m4 -237 l0 -63 -70 -7 c-38 -4 -74 -4 -80 -1 -5
3 -10 30 -10 59 l0 53 53 10 c28 6 64 11 80 12 27 1 27 0 27 -63z"/>
  <path d="M304 188 c-9 -17 -37 -53 -61 -80 -25 -26 -43 -48 -39 -48 17 0 76
37 134 84 l64 51 -29 12 c-42 18 -51 16 -69 -19z"/>
  <path d="M460 10 c0 -5 5 -10 10 -10 6 0 10 5 10 10 0 6 -4 10 -10 10 -5 0
-10 -4 -10 -10z"/>
</g>
<g id="part-1" class="char-part">
  <path d="M520 599 c-97 -44 -160 -60 -208 -53 -42 6 -45 5 -38 -12 7 -17 24
-102 41 -206 5 -30 10 -38 27 -38 19 0 20 4 14 53 -3 28 -8 79 -12 113 l-6 61
141 28 c143 28 166 40 116 63 -31 14 -21 16 -75 -9z"/>
</g>
<g id="part-2" class="char-part">
  <path d="M477 455 c-65 -12 -121 -25 -124 -29 -16 -15 12 -18 78 -7 43 7 76 8
81 3 5 -5 8 -33 6 -63 l-3 -54 -55 -7 c-30 -4 -121 -12 -202 -19 -82 -6 -148
-15 -148 -20 0 -19 67 -30 116 -19 72 17 362 40 497 40 64 0 117 4 117 9 0 22
-71 32 -176 25 -90 -6 -106 -5 -102 7 33 88 33 88 12 104 -18 13 -16 14 21 16
22 0 51 4 65 9 l25 7 -28 12 c-35 14 -36 14 -180 -14z"/>
</g>
<g id="part-3" class="char-part">
  <path d="M307 197 c-4 -12 -29 -48 -57 -80 -29 -31 -49 -57 -45 -57 25 0 185
113 185 131 0 12 -35 29 -58 29 -12 0 -22 -9 -25 -23z"/>
</g>
</g>
</svg>