<?xml version="1.0" standalone="no"?>
<!DOCTYPE svg PUBLIC "-//W3C//DTD SVG 20010904//EN"
 "http://www.w3.org/TR/2001/REC-SVG-20010904/DTD/svg10.dtd">
<svg version="1.0" xmlns="http://www.w3.org/2000/svg"
 width="96.000000pt" height="68.000000pt" viewBox="0 0 96.000000 68.000000"
 preserveAspectRatio="xMidYMid meet">
<metadata>
Created by potrace 1.16, written by Peter Selinger 2001-2019
Combined from part_0.svg through part_5.svg with named groups
</metadata>
<g transform="translate(0.000000,68.000000) scale(0.100000,-0.100000)" fill="#000000" stroke="none">
<g id="part-0" class="char-part">
  <path d="M498 612 c-1 -4 -2 -27 -2 -52 l-1 -45 -42 -6 c-62 -8 -64 -19 -5
-19 l52 0 0 -35 0 -35 -57 -1 c-63 -1 -125 -15 -88 -20 11 -1 32 -1 48 0 43 4
35 -34 -18 -86 -25 -24 -42 -43 -38 -43 13 0 66 36 102 68 27 25 32 34 22 45
-9 12 -2 16 40 21 28 4 53 5 55 3 2 -1 5 -18 6 -36 4 -48 31 -63 114 -59 88 4
86 21 -3 28 l-68 5 -1 33 c-1 17 -1 32 0 33 1 0 33 3 71 6 72 5 83 8 72 20 -9
9 -80 9 -155 -1 l-63 -7 3 33 c3 32 4 33 68 44 77 13 59 30 -21 20 l-49 -7 2
42 c3 35 0 43 -19 50 -13 4 -24 5 -25 1z"/>
  <path d="M235 543 c-16 -9 -45 -16 -64 -17 l-34 -1 2 -147 c1 -81 -3 -173 -9
-206 -9 -45 -9 -65 0 -81 32 -60 45 11 51 271 l3 136 34 7 c19 3 36 4 38 2 2
-2 -3 -21 -12 -42 -8 -21 -12 -41 -7 -44 16 -11 43 -60 43 -77 0 -12 -6 -15
-25 -12 -32 7 -32 -5 0 -26 33 -22 52 -20 65 5 9 17 7 27 -12 55 -13 18 -26
34 -30 34 -5 0 -8 11 -8 24 0 16 14 36 40 59 47 40 50 54 14 67 -35 14 -54 12
-89 -7z"/>
  <path d="M470 294 c-17 -43 -50 -84 -93 -115 -49 -35 -26 -39 25 -4 20 14 41
25 46 25 11 0 62 -43 62 -53 0 -10 -99 -58 -150 -73 -25 -7 -37 -13 -28 -13
37 -2 125 22 166 46 l43 24 50 -37 c34 -24 65 -38 94 -42 42 -4 141 5 133 14
-2 2 -44 15 -92 29 -101 29 -146 50 -146 68 0 6 21 32 46 56 32 31 42 47 35
54 -13 13 -72 14 -119 3 -28 -8 -32 -6 -26 9 4 10 1 21 -7 26 -22 14 -29 11
-39 -17z m127 -50 c5 -16 -36 -64 -55 -64 -22 0 -79 46 -69 56 8 8 83 23 106
20 8 0 16 -6 18 -12z"/>
</g>
<g id="part-1" class="char-part">
  <path d="M223 534 c-44 -19 -42 -34 1 -24 19 4 37 5 40 3 3 -3 -3 -20 -11 -39
-25 -52 -9 -51 46 5 46 46 49 51 31 61 -25 14 -68 11 -107 -6z"/>
</g>
<g id="part-2" class="char-part">
  <path d="M139 388 c2 -84 -2 -171 -9 -210 -6 -37 -9 -76 -5 -88 7 -22 33 -27
40 -8 3 7 9 107 14 223 9 216 8 224 -29 225 -13 0 -14 -21 -11 -142z"/>
</g>
<g id="part-3" class="char-part">
  <path d="M492 568 l3 -52 -48 -8 c-69 -10 -70 -18 -3 -18 l57 0 -3 -32 c-3
-30 -6 -33 -38 -36 -19 -1 -55 -5 -80 -8 -36 -5 -41 -8 -24 -14 11 -4 92 -2
180 6 87 7 175 14 194 14 33 1 34 1 15 16 -13 9 -33 13 -55 10 -19 -3 -61 -8
-93 -11 l-58 -7 3 34 c3 32 4 33 68 43 54 9 62 12 46 21 -12 7 -32 8 -55 3
-60 -14 -62 -13 -55 30 5 33 3 41 -14 50 -38 20 -44 14 -40 -41z"/>
</g>
<g id="part-4" class="char-part">
  <path d="M570 376 c0 -51 27 -66 118 -66 54 0 73 3 70 13 -3 8 -30 13 -77 15
l-72 3 3 32 c2 27 -1 33 -19 35 -20 3 -23 -1 -23 -32z"/>
  <path d="M421 361 c-11 -21 -34 -50 -51 -65 -51 -43 -17 -30 49 19 64 47 68
54 49 73 -19 19 -26 15 -47 -27z"/>
</g>
<g id="part-5" class="char-part">
  <path d="M555 270 c-3 -5 7 -8 24 -5 28 3 29 2 21 -26 -5 -16 -6 -29 -4 -29 3
0 -1 -6 -8 -14 -7 -8 -16 -12 -20 -9 -4 2 -5 -3 -2 -11 5 -12 0 -13 -30 -4
-20 6 -36 15 -36 20 0 5 -4 6 -10 3 -5 -3 -10 -1 -10 4 0 6 -6 11 -12 11 -14
-1 23 -35 45 -43 9 -3 9 -7 0 -19 -7 -8 -10 -18 -6 -21 3 -4 -1 -7 -10 -7 -9
0 -17 -5 -17 -11 0 -5 -5 -7 -12 -3 -7 4 -8 3 -4 -4 4 -7 18 -4 42 10 25 15
38 18 46 10 6 -6 17 -8 26 -5 9 4 13 2 9 -4 -4 -6 4 -18 18 -27 14 -9 25 -13
25 -9 0 5 4 2 9 -6 5 -8 32 -14 67 -16 44 -2 53 -1 34 6 -19 7 -15 8 18 4 23
-3 42 -3 42 -1 0 5 -95 36 -112 36 -7 0 -26 7 -42 15 -15 8 -32 12 -37 9 -5
-3 -9 0 -9 5 0 6 -7 11 -15 11 -20 0 -19 12 5 43 11 14 20 33 20 42 0 9 4 14
9 10 12 -7 43 24 36 36 -8 12 -92 12 -100 -1z m60 -170 c3 -6 -1 -7 -9 -4 -18
7 -21 14 -7 14 6 0 13 -4 16 -10z m98 -17 c-7 -2 -19 -2 -25 0 -7 3 -2 5 12 5
14 0 19 -2 13 -5z"/>
</g>
</g>
</svg>