<?xml version="1.0" standalone="no"?>
<!DOCTYPE svg PUBLIC "-//W3C//DTD SVG 20010904//EN"
 "http://www.w3.org/TR/2001/REC-SVG-20010904/DTD/svg10.dtd">
<svg version="1.0" xmlns="http://www.w3.org/2000/svg"
 width="96.000000pt" height="68.000000pt" viewBox="0 0 96.000000 68.000000"
 preserveAspectRatio="xMidYMid meet">
<metadata>
Created by potrace 1.16, written by Peter Selinger 2001-2019
Combined from part_0.svg through part_5.svg with named groups
</metadata>
<g transform="translate(0.000000,68.000000) scale(0.100000,-0.100000)" fill="#000000" stroke="none">
<g id="part-0" class="char-part">
  <path d="M561 578 c-14 -36 -66 -88 -87 -88 -17 0 -19 -8 -20 -83 0 -45 -2
-102 -5 -127 l-4 -45 35 1 c19 1 88 5 153 9 l117 8 0 -46 c0 -97 -46 -156 -99
-127 -29 15 -26 1 7 -40 28 -32 29 -33 61 -19 41 17 68 69 77 144 4 30 11 58
15 61 18 11 8 32 -21 44 -23 10 -58 10 -165 0 -75 -7 -139 -10 -142 -7 -3 4
-3 12 0 20 4 10 33 16 103 20 54 4 102 12 108 18 8 9 -11 10 -74 5 -47 -4 -95
-9 -107 -13 -19 -4 -23 -1 -23 19 0 27 -6 26 158 32 29 1 37 7 57 43 12 24 28
50 35 58 11 13 10 18 -6 30 -23 17 -61 19 -118 4 -24 -6 -55 -9 -70 -7 -27 3
-26 5 29 45 53 38 55 42 37 52 -30 16 -41 14 -51 -11z m109 -110 c0 -19 -6
-23 -32 -24 -18 0 -59 -4 -90 -9 -54 -7 -57 -7 -51 13 5 19 36 27 161 41 6 0
12 -9 12 -21z m-13 -61 c-2 -7 -39 -17 -81 -23 -64 -9 -79 -8 -83 3 -8 20 -5
21 77 30 80 10 93 8 87 -10z"/>
  <path d="M293 549 c-5 -5 -42 -10 -82 -11 -39 0 -71 -2 -71 -5 0 -2 7 -11 15
-19 8 -9 20 -36 26 -60 13 -49 25 -62 42 -45 6 6 31 11 57 11 56 0 92 9 84 22
-3 5 4 27 16 50 21 40 21 43 4 55 -21 16 -76 17 -91 2z m25 -61 c-3 -32 -5
-33 -50 -36 -37 -2 -48 0 -48 12 0 8 -3 21 -6 29 -4 12 3 17 28 20 80 10 80
10 76 -25z"/>
  <path d="M329 386 c-3 -3 -47 -10 -99 -17 -108 -13 -141 -29 -62 -29 60 0 65
-11 32 -66 -23 -37 -14 -49 25 -34 14 5 40 10 56 10 28 0 29 -2 29 -47 0 -30
-8 -60 -20 -81 -22 -35 -26 -37 -64 -22 -33 12 -33 0 -2 -29 50 -47 93 -11
126 104 18 65 18 71 3 83 -9 6 -41 12 -70 12 -54 0 -54 0 -39 22 9 12 16 30
16 39 0 12 14 18 61 23 66 6 82 12 74 27 -6 9 -58 13 -66 5z"/>
  <path d="M630 205 c0 -11 52 -55 65 -55 26 0 17 40 -11 50 -27 11 -54 13 -54
5z"/>
  <path d="M550 187 c0 -16 31 -47 48 -47 17 0 15 15 -5 32 -30 26 -43 30 -43
15z"/>
  <path d="M384 145 c-17 -47 -11 -72 14 -56 17 10 28 86 14 95 -6 3 -18 -14
-28 -39z"/>
  <path d="M470 175 c0 -12 24 -55 32 -55 12 0 10 34 -4 48 -12 12 -28 16 -28 7z"/>
</g>
<g id="part-1" class="char-part">
  <path d="M270 538 c-19 -5 -54 -8 -77 -5 -45 5 -52 0 -30 -21 6 -7 17 -32 23
-55 8 -33 15 -41 30 -40 10 1 49 5 86 9 48 5 65 10 61 20 -2 7 3 28 12 48 9
19 14 40 10 45 -8 13 -68 13 -115 -1z m55 -56 c-6 -31 -26 -42 -76 -42 -19 0
-28 6 -33 23 -13 50 -9 56 47 59 63 4 71 -1 62 -40z"/>
</g>
<g id="part-2" class="char-part">
  <path d="M197 263 c-10 -3 -16 -10 -14 -16 4 -12 13 -12 90 0 l37 5 0 -43 c0
-24 -8 -60 -18 -79 -18 -36 -33 -41 -82 -26 -25 8 -25 8 4 -23 57 -60 102 -31
134 89 15 53 17 78 10 87 -10 13 -120 17 -161 6z"/>
</g>
<g id="part-3" class="char-part">
  <path d="M559 578 c-6 -13 -25 -38 -42 -55 -46 -49 -11 -42 56 10 43 33 53 47
45 55 -19 19 -46 14 -59 -10z"/>
</g>
<g id="part-4" class="char-part">
  <path d="M605 499 c-16 -6 -59 -10 -94 -10 -53 1 -62 -2 -57 -15 3 -9 6 -40 6
-71 0 -54 0 -55 28 -49 15 4 65 7 111 9 l83 2 20 40 c11 22 27 48 36 58 14 16
14 19 -4 32 -21 16 -84 18 -129 4z m65 -31 c0 -18 -6 -23 -27 -24 -16 0 -54
-4 -85 -8 -54 -8 -58 -7 -58 11 0 20 25 26 158 42 6 0 12 -9 12 -21z m-14 -65
c-4 -12 -16 -18 -38 -18 -18 0 -54 -4 -80 -8 -44 -8 -48 -6 -48 11 0 18 10 21
83 29 45 5 84 8 85 7 2 -2 1 -11 -2 -21z"/>
</g>
<g id="part-5" class="char-part">
  <path d="M640 206 c0 -10 43 -56 52 -56 4 0 8 10 8 23 0 18 -2 19 -10 7 -8
-13 -10 -12 -10 4 0 11 -3 16 -7 13 -3 -4 -12 -2 -20 4 -7 6 -13 9 -13 5z"/>
  <path d="M390 146 c-9 -27 -9 -41 -1 -49 15 -15 33 36 22 65 -7 21 -9 19 -21
-16z"/>
  <path d="M562 168 c3 -7 15 -15 28 -16 21 -3 22 -2 11 12 -16 19 -44 21 -39 4z"/>
  <path d="M486 155 c4 -8 10 -15 15 -15 4 0 6 7 3 15 -4 8 -10 15 -15 15 -4 0
-6 -7 -3 -15z"/>
</g>
</g>
</svg>