<?xml version="1.0" standalone="no"?>
<!DOCTYPE svg PUBLIC "-//W3C//DTD SVG 20010904//EN"
 "http://www.w3.org/TR/2001/REC-SVG-20010904/DTD/svg10.dtd">
<svg version="1.0" xmlns="http://www.w3.org/2000/svg"
 width="96.000000pt" height="68.000000pt" viewBox="0 0 96.000000 68.000000"
 preserveAspectRatio="xMidYMid meet">
<metadata>
Created by potrace 1.16, written by Peter Selinger 2001-2019
Combined from part_0.svg through part_5.svg with named groups
</metadata>
<g transform="translate(0.000000,68.000000) scale(0.100000,-0.100000)" fill="#000000" stroke="none">
<g id="part-0" class="char-part">
  <path d="M596 583 c-28 -8 -71 -13 -98 -10 -42 3 -48 1 -42 -12 4 -9 13 -41
21 -71 21 -84 20 -82 40 -71 10 6 49 13 86 16 57 6 67 9 63 23 -3 10 5 38 18
64 24 50 22 60 -19 71 -11 3 -42 -1 -69 -10z m34 -58 c0 -40 -3 -47 -27 -56
-14 -5 -39 -11 -54 -13 -24 -3 -29 1 -34 28 -4 17 -9 39 -11 49 -4 14 1 17 28
18 18 1 44 5 58 9 14 4 28 8 33 9 4 1 7 -19 7 -44z"/>
  <path d="M300 565 c-25 -8 -66 -15 -93 -15 -47 0 -47 0 -33 -22 8 -13 20 -49
27 -81 13 -61 26 -79 40 -56 5 9 34 16 76 19 l67 5 1 35 c1 20 10 48 20 63 15
24 16 30 4 42 -22 22 -60 25 -109 10z m36 -57 c-3 -13 -6 -30 -6 -40 0 -11
-12 -18 -41 -23 -22 -4 -42 -5 -43 -3 -2 1 -6 20 -10 40 -7 40 -3 42 78 47 25
1 28 -2 22 -21z"/>
  <path d="M445 359 c-45 -14 -66 -17 -83 -9 -44 19 -53 14 -46 -29 13 -78 -44
-168 -133 -213 -25 -12 -40 -24 -33 -26 6 -2 41 10 76 28 76 37 116 85 134
159 12 52 24 61 88 61 l32 0 0 -93 c0 -141 29 -168 177 -166 89 1 113 5 147
25 18 11 18 15 6 60 -17 63 -26 73 -34 37 -14 -58 -37 -75 -113 -80 -81 -6
-129 12 -139 53 -9 37 3 112 25 155 l19 37 -24 11 c-31 14 -26 14 -99 -10z"/>
</g>
<g id="part-1" class="char-part">
  <path d="M305 560 c-11 -5 -46 -9 -77 -9 -32 -1 -58 -3 -58 -6 0 -3 6 -16 14
-28 8 -12 17 -40 21 -62 7 -50 22 -75 33 -59 4 7 37 15 75 19 41 5 66 12 65
19 -4 20 13 70 30 89 16 18 15 20 -3 33 -21 15 -69 17 -100 4z m35 -51 c0 -51
-16 -69 -59 -69 -40 0 -51 13 -51 67 0 22 1 23 93 31 13 2 17 -5 17 -29z"/>
</g>
<g id="part-2" class="char-part">
  <path d="M595 583 c-28 -7 -71 -12 -97 -9 -44 5 -62 -4 -39 -18 5 -3 14 -35
21 -71 12 -64 26 -88 39 -67 3 5 38 13 78 17 53 5 70 10 67 20 -3 7 6 37 20
67 14 29 22 56 18 59 -16 15 -60 16 -107 2z m35 -55 c0 -48 -12 -60 -63 -65
-42 -5 -46 -4 -51 18 -13 61 -12 64 24 70 80 14 90 12 90 -23z"/>
</g>
<g id="part-3" class="char-part">
  <path d="M311 339 c16 -31 5 -94 -26 -140 -14 -22 -54 -58 -88 -81 -48 -32
-55 -39 -32 -34 53 13 129 62 159 103 15 22 34 67 42 99 15 65 10 74 -39 74
-25 0 -27 -2 -16 -21z"/>
</g>
<g id="part-4" class="char-part">
  <path d="M443 358 c-35 -11 -63 -24 -63 -29 0 -11 2 -11 58 0 l42 8 0 -96 c0
-109 10 -134 66 -157 46 -19 183 -18 234 2 44 18 45 21 29 73 -7 20 -14 43
-17 51 -2 9 -10 -3 -19 -28 -22 -62 -47 -75 -139 -70 -67 3 -79 7 -96 28 -17
21 -19 35 -15 83 3 31 14 73 26 92 l20 35 -22 15 c-26 18 -26 18 -104 -7z"/>
</g>
</g>
</svg>