<?xml version="1.0" standalone="no"?>
<!DOCTYPE svg PUBLIC "-//W3C//DTD SVG 20010904//EN"
 "http://www.w3.org/TR/2001/REC-SVG-20010904/DTD/svg10.dtd">
<svg version="1.0" xmlns="http://www.w3.org/2000/svg"
 width="96.000000pt" height="68.000000pt" viewBox="0 0 96.000000 68.000000"
 preserveAspectRatio="xMidYMid meet">
<metadata>
Created by potrace 1.16, written by Peter Selinger 2001-2019
Combined from part_0.svg through part_5.svg with named groups
</metadata>
<g transform="translate(0.000000,68.000000) scale(0.100000,-0.100000)" fill="#000000" stroke="none">
<g id="part-0" class="char-part">
  <path d="M225 423 c0 -178 -9 -211 -81 -298 -38 -47 -33 -55 16 -30 34 18 73
66 95 119 l16 38 29 -27 c32 -30 60 -28 60 5 0 14 -12 25 -40 36 -35 14 -40
20 -40 49 0 51 9 64 59 90 75 39 77 41 62 59 -20 24 -45 19 -69 -14 -36 -49
-46 -39 -38 40 6 69 6 71 -20 80 -49 19 -49 20 -49 -147z"/>
  <path d="M575 569 c-16 -5 -56 -10 -88 -11 -36 -1 -56 -6 -53 -12 7 -16 25
-76 36 -122 l10 -41 48 9 c26 5 64 6 84 3 l37 -7 15 52 c31 104 31 119 1 130
-31 12 -49 12 -90 -1z m53 -36 c-3 -24 -9 -28 -63 -39 -84 -18 -85 -18 -85 15
0 28 2 30 63 39 34 5 68 10 75 11 9 1 12 -8 10 -26z m-8 -78 c0 -30 -7 -33
-75 -37 -46 -3 -49 -2 -50 21 0 21 6 25 35 29 19 2 37 6 39 8 2 2 15 4 28 4
18 0 23 -5 23 -25z"/>
  <path d="M110 403 c1 -25 48 -88 65 -88 28 0 23 54 -6 78 -21 17 -59 23 -59
10z"/>
  <path d="M715 365 c-11 -4 -330 -35 -361 -35 -34 0 0 -19 40 -22 22 -2 41 -8
43 -15 3 -7 -17 -35 -43 -63 -54 -58 -46 -65 19 -15 43 33 77 45 77 28 0 -16
-40 -69 -72 -96 -31 -26 -31 -28 -8 -21 31 8 130 91 130 109 0 12 55 27 65 17
9 -9 -57 -92 -121 -151 -37 -33 -64 -61 -60 -61 45 0 244 175 233 204 -5 12 1
16 24 16 l31 0 -7 -57 c-4 -32 -16 -75 -28 -96 -20 -35 -25 -38 -54 -34 -39 7
-40 2 -8 -38 l25 -30 35 19 c32 17 38 28 61 105 14 47 31 97 37 110 18 37 -13
54 -88 47 -33 -3 -93 -9 -134 -12 l-74 -7 19 26 c18 24 24 25 154 31 148 8
180 12 180 25 0 16 -84 27 -115 16z"/>
</g>
<g id="part-1" class="char-part">
  <path d="M227 543 c12 -42 8 -242 -6 -290 -6 -24 -32 -72 -57 -108 -43 -64
-44 -65 -15 -51 39 21 89 83 103 128 l11 37 39 -31 c27 -23 41 -29 49 -21 17
17 -4 46 -43 59 -18 6 -33 16 -32 22 1 7 2 30 3 52 1 38 3 41 61 70 63 32 68
38 48 58 -19 19 -31 14 -58 -23 -14 -19 -29 -35 -33 -35 -5 0 -7 30 -6 68 4
79 -2 92 -42 92 -27 0 -29 -2 -22 -27z"/>
  <path d="M120 398 c0 -23 39 -78 55 -78 25 0 18 46 -11 69 -30 24 -44 27 -44
9z"/>
</g>
<g id="part-2" class="char-part">
  <path d="M535 565 c-38 -8 -81 -11 -94 -8 -24 6 -24 5 -8 -18 9 -13 22 -49 28
-80 15 -78 16 -79 74 -68 28 6 64 7 80 4 31 -5 31 -5 57 75 21 64 24 81 13 90
-21 17 -75 19 -150 5z m95 -39 c0 -19 -7 -23 -67 -32 -38 -6 -71 -9 -75 -7 -5
2 -8 15 -8 28 0 21 6 24 58 30 31 4 62 8 67 9 17 5 25 -4 25 -28z m-10 -71 c0
-28 -4 -31 -72 -40 -41 -5 -47 -4 -53 15 -9 27 -7 29 46 39 73 15 79 14 79
-14z"/>
</g>
<g id="part-3" class="char-part">
  <path d="M565 349 c-93 -10 -183 -18 -198 -18 -47 -1 -20 -21 29 -21 59 0 58
-17 -8 -87 -53 -56 -53 -56 -16 -37 38 20 138 109 138 123 0 5 61 12 135 16
74 4 149 11 167 15 l33 7 -28 12 c-34 13 -39 13 -252 -10z"/>
</g>
<g id="part-4" class="char-part">
  <path d="M581 208 c-30 -44 -93 -108 -145 -146 -51 -39 -1 -24 62 18 58 39
162 142 162 161 0 5 -11 9 -25 9 -17 0 -32 -12 -54 -42z"/>
</g>
</g>
</svg>