<?xml version="1.0" standalone="no"?>
<!DOCTYPE svg PUBLIC "-//W3C//DTD SVG 20010904//EN"
 "http://www.w3.org/TR/2001/REC-SVG-20010904/DTD/svg10.dtd">
<svg version="1.0" xmlns="http://www.w3.org/2000/svg"
 width="96.000000pt" height="68.000000pt" viewBox="0 0 96.000000 68.000000"
 preserveAspectRatio="xMidYMid meet">
<metadata>
Created by potrace 1.16, written by Peter Selinger 2001-2019
Combined from part_0.svg through part_5.svg with named groups
</metadata>
<g transform="translate(0.000000,68.000000) scale(0.100000,-0.100000)" fill="#000000" stroke="none">
<g id="part-0" class="char-part">
  <path d="M570 586 c0 -56 -8 -66 -50 -66 -41 0 -61 -14 -34 -24 9 -3 26 -6 39
-6 22 0 23 -2 13 -31 -15 -42 -1 -50 28 -14 14 17 29 36 35 43 6 7 35 12 74
12 35 0 66 4 70 9 10 18 -37 34 -81 27 l-42 -5 11 30 c10 27 9 32 -7 45 -35
25 -56 18 -56 -20z"/>
  <path d="M275 580 c-3 -5 1 -20 9 -32 9 -12 16 -26 16 -30 0 -5 -27 -8 -60 -8
-68 0 -80 -17 -34 -46 21 -15 31 -15 58 -6 46 17 52 15 66 -18 17 -42 40 -39
40 5 0 31 3 36 30 42 46 9 47 23 2 23 -37 0 -40 2 -46 34 -5 23 -13 36 -29 40
-32 8 -45 7 -52 -4z"/>
  <path d="M465 399 c-16 -5 -72 -9 -122 -10 l-93 0 16 -23 c8 -13 21 -52 28
-87 11 -53 16 -64 32 -61 10 1 73 4 139 6 l120 4 16 49 c8 26 21 61 28 78 11
25 10 31 -5 42 -20 15 -114 16 -159 2z m100 -48 c-5 -18 -14 -21 -57 -21 -42
0 -49 3 -44 16 3 9 6 20 6 24 0 11 81 18 93 9 5 -4 6 -16 2 -28z m-145 -5 c0
-27 -16 -36 -65 -36 -32 0 -45 13 -45 46 0 10 14 14 55 14 51 0 55 -2 55 -24z
m140 -50 c0 -36 -12 -46 -56 -46 -40 0 -44 2 -44 24 0 25 13 32 73 35 17 1 27
-4 27 -13z m-140 -28 c0 -26 -3 -28 -40 -28 -33 0 -42 4 -49 23 -10 27 -4 32
48 32 38 1 41 -1 41 -27z"/>
  <path d="M671 155 c47 -48 73 -56 84 -27 7 19 -17 39 -74 59 -56 20 -57 16
-10 -32z"/>
  <path d="M430 180 c0 -15 62 -71 74 -67 6 2 12 13 14 24 2 16 -6 24 -38 37
-47 19 -50 19 -50 6z"/>
  <path d="M310 160 c0 -22 30 -68 63 -97 61 -54 219 -68 314 -28 41 17 36 29
-24 60 -21 10 -46 26 -55 34 -22 17 -23 3 -4 -25 26 -37 5 -49 -81 -48 -97 0
-144 21 -175 75 -21 38 -38 50 -38 29z"/>
  <path d="M203 110 c-29 -36 -30 -70 -3 -70 24 0 53 41 48 71 -4 32 -20 32 -45
-1z"/>
</g>
<g id="part-1" class="char-part">
  <path d="M574 565 c-5 -37 -10 -45 -28 -45 -11 0 -32 -3 -44 -7 -18 -4 -20 -8
-10 -14 7 -5 23 -9 36 -9 24 0 27 -11 12 -41 -19 -34 8 -21 32 16 22 33 26 35
80 35 31 0 63 3 72 6 30 12 5 24 -50 24 -58 0 -60 1 -43 31 12 24 -3 49 -32
49 -13 0 -19 -11 -25 -45z"/>
  <path d="M285 580 c-3 -5 -1 -18 5 -29 22 -43 14 -51 -52 -51 l-61 0 19 -21
c16 -18 26 -20 71 -14 50 6 52 5 68 -25 19 -37 37 -30 33 13 -3 28 1 32 22 35
45 6 46 22 2 22 -40 0 -42 1 -42 30 0 24 -6 33 -26 40 -31 12 -31 12 -39 0z"/>
</g>
<g id="part-2" class="char-part">
  <path d="M495 404 c-38 -7 -109 -13 -158 -13 l-87 -1 16 -26 c9 -14 22 -53 28
-87 11 -57 13 -62 36 -60 14 1 76 4 139 7 l114 4 28 79 c15 43 24 81 20 86
-19 19 -70 23 -136 11z m73 -50 c-2 -15 -14 -20 -51 -22 -44 -3 -47 -2 -47 22
0 22 5 25 43 28 49 3 60 -3 55 -28z m-148 -8 c0 -16 -7 -26 -22 -30 -41 -11
-76 -6 -82 10 -14 38 -7 44 49 44 51 0 55 -2 55 -24z m140 -43 c-1 -41 -13
-53 -56 -53 -40 0 -44 2 -44 24 0 19 6 26 28 29 49 7 72 7 72 0z m-140 -36 c0
-27 -2 -28 -42 -25 -37 3 -43 6 -46 28 -3 23 0 25 43 25 43 1 45 -1 45 -28z"/>
</g>
<g id="part-3" class="char-part">
  <path d="M669 157 c46 -48 74 -59 85 -32 9 26 -30 54 -102 72 -25 6 -24 3 17
-40z"/>
  <path d="M440 163 c42 -54 80 -65 80 -23 0 12 -14 23 -40 34 -56 22 -65 20
-40 -11z"/>
  <path d="M328 118 c44 -79 97 -103 222 -103 98 0 160 16 160 41 0 8 -22 25
-49 39 -27 13 -52 29 -56 35 -3 5 -10 10 -15 10 -5 0 0 -15 11 -34 l20 -34
-32 -11 c-94 -33 -205 4 -245 82 -8 15 -22 27 -30 27 -13 0 -10 -11 14 -52z"/>
  <path d="M202 109 c-32 -43 -32 -69 -1 -69 23 0 49 37 49 72 0 42 -16 42 -48
-3z"/>
</g>
</g>
</svg>