<?xml version="1.0" standalone="no"?>
<!DOCTYPE svg PUBLIC "-//W3C//DTD SVG 20010904//EN"
 "http://www.w3.org/TR/2001/REC-SVG-20010904/DTD/svg10.dtd">
<svg version="1.0" xmlns="http://www.w3.org/2000/svg"
 width="96.000000pt" height="68.000000pt" viewBox="0 0 96.000000 68.000000"
 preserveAspectRatio="xMidYMid meet">
<metadata>
Created by potrace 1.16, written by Peter Selinger 2001-2019
Combined from part_0.svg through part_5.svg with named groups
</metadata>
<g transform="translate(0.000000,68.000000) scale(0.100000,-0.100000)" fill="#000000" stroke="none">
<g id="part-0" class="char-part">
  <path d="M475 603 c7 -17 44 -170 45 -185 0 -4 -21 -10 -47 -13 -27 -3 -60 -9
-75 -11 -25 -5 -28 -3 -28 24 0 28 3 30 45 36 24 4 47 11 50 16 9 15 -32 30
-65 23 -32 -6 -32 -6 -29 33 4 52 -5 64 -47 64 -35 0 -45 -15 -23 -37 6 -6 9
-26 7 -44 -3 -33 -4 -34 -58 -39 -71 -6 -71 -24 0 -28 55 -3 70 -12 70 -44 0
-13 -14 -18 -74 -23 -41 -4 -89 -11 -108 -15 l-33 -7 29 -12 c23 -9 51 -8 135
5 58 9 112 21 120 28 12 9 13 8 6 -3 -5 -9 -4 -12 2 -8 5 3 36 10 67 15 l58 9
14 -33 c8 -18 14 -40 14 -49 0 -9 9 -35 20 -57 11 -23 20 -47 20 -54 0 -10
-43 -52 -117 -112 l-28 -23 39 16 c21 8 57 28 79 45 23 16 45 30 50 30 4 0 19
-13 32 -28 52 -62 169 -119 181 -88 2 6 -2 41 -10 76 -8 36 -14 55 -15 42 -1
-34 -19 -62 -40 -62 -22 0 -111 86 -111 107 0 8 17 38 37 65 28 39 34 54 26
67 -13 20 -65 28 -62 9 4 -20 -12 -88 -22 -93 -10 -7 -46 72 -55 120 l-6 34
83 3 c60 2 84 7 87 17 4 12 -11 13 -85 7 l-90 -6 -7 31 c-3 17 -6 57 -6 88 0
64 -11 81 -53 81 -24 0 -28 -3 -22 -17z"/>
  <path d="M620 551 c0 -8 66 -71 75 -71 2 0 9 9 14 19 9 15 6 22 -12 33 -29 19
-77 31 -77 19z"/>
  <path d="M320 306 c0 -38 -4 -41 -88 -51 -31 -4 -50 -11 -46 -17 4 -6 29 -8
68 -3 l61 7 -55 -54 c-30 -30 -66 -62 -79 -71 -14 -9 -22 -19 -19 -22 9 -9 82
31 123 66 l35 31 0 -77 c0 -67 2 -76 18 -73 14 3 18 16 20 76 2 39 5 72 8 72
3 0 20 -11 38 -25 40 -30 56 -32 56 -5 0 14 -13 24 -50 37 -40 14 -50 22 -48
38 3 17 12 21 63 23 33 2 62 6 64 8 12 11 -17 19 -70 18 -47 -1 -59 2 -55 12
8 22 -4 44 -25 44 -15 0 -19 -7 -19 -34z"/>
</g>
<g id="part-1" class="char-part">
  <path d="M306 548 c12 -73 13 -71 -51 -83 -50 -10 -56 -13 -35 -19 14 -4 41
-6 60 -4 32 3 35 0 38 -24 4 -36 42 -40 42 -5 0 29 18 47 46 47 30 0 54 10 54
22 0 6 -19 8 -45 6 l-45 -3 0 46 c0 40 -3 48 -22 53 -45 12 -49 9 -42 -36z"/>
</g>
<g id="part-2" class="char-part">
  <path d="M475 608 c14 -46 46 -191 42 -195 -2 -2 -93 -15 -203 -29 -109 -14
-200 -27 -202 -29 -3 -2 7 -10 22 -16 21 -10 56 -7 193 16 93 15 175 28 183
29 10 1 21 -20 33 -59 10 -33 25 -77 34 -98 15 -35 15 -38 -3 -58 -10 -12 -45
-41 -77 -65 -33 -24 -54 -44 -48 -44 19 0 104 47 135 74 l29 26 38 -44 c39
-45 126 -96 162 -96 17 0 19 5 13 47 -4 27 -10 62 -13 78 l-7 30 -11 -40 c-7
-24 -19 -41 -30 -43 -19 -4 -115 83 -115 104 0 6 16 36 36 65 40 58 38 81 -8
87 -21 3 -25 -1 -26 -25 0 -15 -6 -41 -12 -58 -11 -29 -12 -29 -25 -11 -18 24
-48 124 -41 135 3 5 39 11 81 13 73 5 95 11 82 24 -8 9 -44 9 -113 0 l-61 -8
-7 32 c-3 18 -6 61 -6 96 0 61 -1 64 -27 70 -16 3 -34 8 -42 10 -10 3 -12 -2
-6 -18z"/>
  <path d="M625 539 c51 -61 85 -75 85 -34 0 27 -17 39 -70 50 l-35 7 20 -23z"/>
</g>
<g id="part-3" class="char-part">
  <path d="M318 306 c5 -39 5 -39 -91 -51 -68 -9 -50 -29 19 -22 49 5 53 4 44
-12 -10 -19 -67 -73 -115 -108 -16 -12 -24 -23 -17 -23 21 0 89 38 127 71 l35
31 0 -76 c0 -69 2 -76 20 -76 18 0 20 7 20 75 0 41 3 75 6 75 3 0 19 -11 36
-25 35 -30 58 -32 58 -7 0 18 -20 32 -72 52 -59 21 -25 50 60 50 23 0 42 4 42
9 0 16 -39 23 -84 17 -41 -6 -42 -6 -41 21 0 23 -5 29 -26 31 -23 3 -25 0 -21
-32z"/>
</g>
</g>
</svg>