<?xml version="1.0" standalone="no"?>
<!DOCTYPE svg PUBLIC "-//W3C//DTD SVG 20010904//EN"
 "http://www.w3.org/TR/2001/REC-SVG-20010904/DTD/svg10.dtd">
<svg version="1.0" xmlns="http://www.w3.org/2000/svg"
 width="96.000000pt" height="68.000000pt" viewBox="0 0 96.000000 68.000000"
 preserveAspectRatio="xMidYMid meet">
<metadata>
Created by potrace 1.16, written by Peter Selinger 2001-2019
Combined from part_0.svg through part_5.svg with named groups
</metadata>
<g transform="translate(0.000000,68.000000) scale(0.100000,-0.100000)" fill="#000000" stroke="none">
<g id="part-0" class="char-part">
  <path d="M247 530 l6 -98 -52 -11 c-29 -6 -61 -11 -72 -11 -12 0 -19 -5 -16
-12 3 -9 24 -12 66 -11 33 1 61 -2 61 -7 0 -18 -74 -117 -116 -157 -25 -22
-41 -43 -36 -46 12 -8 92 47 130 90 l34 38 -6 -40 c-17 -129 -17 -180 -2 -200
13 -18 16 -19 31 -4 12 11 17 45 22 132 6 111 7 116 26 106 13 -8 22 -8 29 -1
16 16 2 40 -24 44 -17 2 -24 11 -26 31 -2 15 1 28 7 28 6 1 15 2 21 3 5 0 15
7 21 13 10 10 6 15 -20 24 -31 11 -32 12 -26 58 3 25 8 55 10 66 6 28 -6 44
-42 54 l-31 9 5 -98z"/>
  <path d="M468 546 c-7 -13 -30 -43 -51 -65 -21 -23 -33 -41 -28 -41 18 0 136
96 136 111 0 26 -43 22 -57 -5z"/>
  <path d="M600 498 c-64 -15 -26 -27 64 -21 75 5 90 9 81 24 -8 12 -87 10 -145
-3z"/>
  <path d="M459 386 c-7 -17 -42 -60 -78 -94 -59 -57 -54 -69 8 -21 37 29 44 15
37 -75 -6 -81 1 -115 24 -101 8 5 11 42 9 122 l-3 116 32 26 c38 31 41 47 8
53 -20 4 -27 -1 -37 -26z"/>
  <path d="M769 406 c-2 -3 -59 -12 -127 -22 -128 -18 -172 -42 -58 -31 l64 6 6
-37 c3 -20 6 -74 6 -118 0 -87 -10 -108 -45 -93 -44 17 -46 7 -5 -32 34 -32
47 -39 59 -32 34 21 41 56 39 185 -1 107 -4 128 -17 131 -9 3 7 6 34 8 69 4
108 7 120 8 6 1 1 8 -9 16 -19 14 -57 20 -67 11z"/>
</g>
<g id="part-1" class="char-part">
  <path d="M246 592 c3 -15 6 -59 7 -97 l2 -69 -63 -12 c-86 -15 -88 -24 -8 -24
l67 0 -23 -42 c-13 -23 -49 -70 -82 -105 -32 -35 -55 -63 -51 -63 18 0 78 45
115 87 l40 46 0 -45 c0 -24 -5 -69 -10 -100 -11 -61 -1 -108 24 -108 22 0 26
23 26 142 l0 110 29 -7 c44 -9 49 13 7 30 -28 12 -36 21 -36 40 0 16 7 28 18
31 55 18 58 22 23 30 l-34 7 7 78 c6 71 5 79 -13 89 -36 19 -51 13 -45 -18z"/>
</g>
<g id="part-2" class="char-part">
  <path d="M470 555 c0 -8 -22 -38 -48 -65 -54 -56 -48 -64 14 -22 74 50 96 71
90 87 -7 20 -56 20 -56 0z"/>
</g>
<g id="part-3" class="char-part">
  <path d="M459 393 c-5 -16 -40 -59 -77 -97 -63 -64 -59 -73 10 -24 l27 19 6
-33 c3 -18 2 -56 -3 -84 -6 -37 -5 -56 4 -69 27 -36 36 -6 33 112 l-3 116 32
26 c35 29 40 46 16 55 -27 10 -34 7 -45 -21z"/>
</g>
<g id="part-4" class="char-part">
  <path d="M650 335 c12 -32 13 -205 1 -224 -7 -11 -15 -11 -41 -2 -49 16 -49
15 -2 -29 23 -22 46 -40 50 -40 5 0 17 9 28 21 17 19 19 37 18 158 l0 136 -32
3 c-31 3 -32 2 -22 -23z"/>
</g>
</g>
</svg>