<?xml version="1.0" standalone="no"?>
<!DOCTYPE svg PUBLIC "-//W3C//DTD SVG 20010904//EN"
 "http://www.w3.org/TR/2001/REC-SVG-20010904/DTD/svg10.dtd">
<svg version="1.0" xmlns="http://www.w3.org/2000/svg"
 width="96.000000pt" height="68.000000pt" viewBox="0 0 96.000000 68.000000"
 preserveAspectRatio="xMidYMid meet">
<metadata>
Created by potrace 1.16, written by Peter Selinger 2001-2019
Combined from part_0.svg through part_5.svg with named groups
</metadata>
<g transform="translate(0.000000,68.000000) scale(0.100000,-0.100000)" fill="#000000" stroke="none">
<g id="part-0" class="char-part">
  <path d="M466 596 c3 -9 10 -16 15 -16 5 0 9 -6 9 -14 0 -11 -19 -17 -70 -22
-39 -4 -73 -11 -76 -15 -7 -12 51 -11 161 1 50 6 109 11 133 12 23 0 45 4 48
9 8 14 -43 22 -94 15 -42 -5 -48 -4 -57 16 -12 28 -79 41 -69 14z"/>
  <path d="M190 556 c0 -21 65 -68 87 -64 31 6 28 44 -4 56 -55 21 -83 23 -83 8z"/>
  <path d="M499 486 c-2 -2 -29 -6 -59 -8 -30 -3 -54 -7 -52 -11 30 -80 34 -87
52 -77 10 6 34 10 53 10 53 0 97 11 97 25 0 6 9 20 20 30 11 10 17 22 14 26
-5 9 -117 13 -125 5z m58 -53 c-3 -2 -31 -8 -62 -12 -52 -7 -57 -6 -65 13 -7
19 -3 22 59 31 61 10 66 9 69 -8 2 -10 1 -21 -1 -24z"/>
  <path d="M122 409 c2 -7 21 -26 42 -43 29 -24 41 -28 53 -20 26 16 26 31 1 48
-34 21 -102 33 -96 15z"/>
  <path d="M585 379 c-38 -5 -115 -11 -170 -14 -98 -5 -100 -5 -109 -32 -5 -16
-13 -31 -19 -34 -15 -10 0 -40 16 -33 8 3 21 19 29 37 15 32 16 33 124 45 187
21 244 25 244 18 0 -4 -7 -18 -16 -31 -19 -29 -20 -28 46 -14 55 12 63 28 25
53 -26 17 -59 18 -170 5z"/>
  <path d="M545 330 c-3 -5 -31 -12 -63 -16 -31 -4 -66 -10 -77 -14 -20 -8 -17
-11 25 -23 9 -2 -6 -16 -40 -35 -65 -38 -44 -43 24 -7 55 29 56 29 56 12 0
-18 -36 -50 -85 -75 -22 -12 -33 -21 -24 -22 9 0 44 14 78 31 34 17 64 29 67
27 16 -16 -36 -59 -133 -109 l-38 -20 33 7 c18 3 45 12 60 20 15 8 32 14 38
14 6 0 17 7 24 15 22 26 33 17 27 -21 -8 -46 -25 -66 -49 -58 -19 6 -19 5 -3
-20 21 -31 45 -33 71 -5 15 16 19 35 17 80 -1 32 1 59 3 59 3 0 34 -20 70 -45
67 -47 91 -53 157 -34 38 10 42 29 6 29 -43 0 -157 32 -194 55 l-40 24 58 26
c59 27 71 47 39 64 -15 8 -25 2 -56 -35 -20 -24 -42 -44 -49 -44 -7 0 -25 12
-41 26 -24 22 -27 27 -15 39 8 7 33 17 57 22 24 4 43 12 43 18 1 13 -39 26
-46 15z"/>
  <path d="M215 263 c-15 -21 -45 -54 -67 -74 l-39 -36 17 -36 c10 -20 23 -37
29 -37 8 0 78 142 103 211 9 23 -18 5 -43 -28z"/>
</g>
<g id="part-1" class="char-part">
  <path d="M220 525 c35 -36 64 -45 73 -22 10 27 -31 57 -79 57 l-28 0 34 -35z"/>
  <path d="M158 380 c37 -34 72 -40 72 -12 0 22 -39 42 -78 42 l-27 -1 33 -29z"/>
  <path d="M181 219 c-61 -67 -63 -71 -51 -99 11 -28 40 -42 40 -21 0 6 18 49
40 97 23 48 39 88 38 90 -2 1 -32 -29 -67 -67z"/>
</g>
<g id="part-2" class="char-part">
  <path d="M465 598 c5 -7 14 -20 22 -29 13 -15 7 -17 -66 -24 -79 -7 -113 -25
-48 -25 45 0 289 21 307 27 35 10 -24 25 -79 20 -52 -6 -57 -4 -66 16 -7 15
-20 23 -44 25 -25 3 -31 0 -26 -10z"/>
</g>
<g id="part-3" class="char-part">
  <path d="M490 485 c-47 -6 -91 -10 -97 -7 -16 5 -16 -2 -3 -26 5 -9 14 -29 20
-44 9 -26 30 -39 30 -19 0 5 32 11 71 13 53 3 73 8 80 20 5 10 17 24 25 33 9
9 15 17 13 19 -8 6 -48 26 -51 25 -2 -1 -41 -7 -88 -14z m70 -35 c0 -14 -9
-21 -37 -25 -21 -3 -48 -8 -61 -11 -17 -3 -25 1 -31 18 -7 20 -5 24 18 29 14
4 45 7 69 8 35 1 42 -2 42 -19z"/>
</g>
<g id="part-4" class="char-part">
  <path d="M588 245 c-21 -24 -38 -48 -38 -54 0 -21 132 -111 162 -111 35 0 121
21 114 27 -3 3 -39 11 -80 18 -66 12 -186 56 -186 68 0 9 71 47 86 47 20 0 30
30 13 41 -23 15 -33 10 -71 -36z"/>
</g>
</g>
</svg>