<?xml version="1.0" standalone="no"?>
<!DOCTYPE svg PUBLIC "-//W3C//DTD SVG 20010904//EN"
 "http://www.w3.org/TR/2001/REC-SVG-20010904/DTD/svg10.dtd">
<svg version="1.0" xmlns="http://www.w3.org/2000/svg"
 width="96.000000pt" height="68.000000pt" viewBox="0 0 96.000000 68.000000"
 preserveAspectRatio="xMidYMid meet">
<metadata>
Created by potrace 1.16, written by Peter Selinger 2001-2019
Combined from part_0.svg through part_5.svg with named groups
</metadata>
<g transform="translate(0.000000,68.000000) scale(0.100000,-0.100000)" fill="#000000" stroke="none">
<g id="part-0" class="char-part">
  <path d="M490 606 c0 -8 7 -22 16 -31 23 -22 15 -26 -60 -32 -36 -3 -66 -10
-66 -14 0 -5 8 -9 18 -9 18 0 60 -65 49 -76 -3 -3 -44 -9 -91 -11 -47 -3 -86
-9 -86 -13 0 -15 54 -21 104 -11 74 15 257 31 359 31 82 0 111 11 67 25 -17 5
-122 0 -187 -10 -28 -5 -29 9 -3 38 11 12 18 27 16 34 -3 7 5 13 20 15 49 6
23 23 -31 20 -45 -3 -55 -1 -55 12 0 8 -13 22 -30 31 -36 19 -40 19 -40 1z
m76 -122 c-6 -32 -9 -34 -45 -34 -33 0 -40 4 -45 25 -4 14 -11 25 -16 25 -6 0
-10 4 -10 9 0 11 114 29 119 18 1 -4 0 -24 -3 -43z"/>
  <path d="M186 561 c-9 -14 62 -83 81 -79 25 5 30 54 6 66 -28 14 -82 22 -87
13z"/>
  <path d="M100 423 c0 -13 76 -83 91 -83 27 0 35 28 16 48 -15 14 -107 45 -107
35z"/>
  <path d="M515 385 c-44 -8 -97 -12 -118 -9 l-37 6 15 -29 c8 -15 20 -48 26
-72 10 -42 11 -43 45 -39 26 3 38 0 44 -13 15 -27 -8 -37 -98 -42 -46 -3 -86
-8 -89 -11 -12 -12 53 -18 123 -12 l74 7 0 -75 c0 -70 10 -100 25 -75 4 6 10
43 14 82 l6 72 118 3 c110 2 144 12 96 27 -11 4 -63 4 -115 0 -63 -5 -94 -4
-94 3 0 6 -3 18 -7 28 -6 15 -1 17 48 11 l54 -6 38 66 c25 44 34 70 28 76 -16
16 -108 17 -196 2z m125 -35 c0 -16 -6 -20 -27 -19 -16 1 -66 -2 -111 -6 -79
-7 -84 -7 -80 11 3 20 48 29 166 32 46 2 52 0 52 -18z m-16 -52 c-3 -13 -7
-24 -8 -24 0 -1 -41 -4 -89 -7 -71 -4 -90 -2 -94 9 -8 21 -3 23 78 33 123 14
121 14 113 -11z"/>
  <path d="M238 280 c-26 -36 -63 -80 -82 -98 -35 -31 -35 -34 -23 -65 24 -59
40 -46 101 77 70 141 72 180 4 86z"/>
</g>
<g id="part-1" class="char-part">
  <path d="M213 528 c25 -33 66 -45 74 -21 7 19 -39 53 -70 53 l-30 0 26 -32z"/>
  <path d="M130 390 c14 -26 56 -54 70 -45 32 20 -10 65 -61 65 -17 0 -18 -3 -9
-20z"/>
  <path d="M240 273 c-23 -32 -59 -72 -79 -89 -32 -29 -35 -34 -26 -60 20 -55
37 -40 98 82 32 63 57 118 54 120 -2 3 -23 -21 -47 -53z"/>
</g>
<g id="part-2" class="char-part">
  <path d="M490 608 c0 -7 7 -23 15 -34 14 -21 13 -22 -32 -28 -25 -3 -59 -6
-74 -6 -16 0 -29 -5 -29 -11 0 -12 199 -5 268 9 51 11 33 27 -25 24 -40 -2
-53 1 -53 12 0 16 -17 31 -47 40 -16 5 -23 3 -23 -6z"/>
</g>
<g id="part-3" class="char-part">
  <path d="M566 490 c-6 -39 -7 -40 -46 -40 -33 0 -40 3 -40 20 0 19 -46 58 -56
47 -3 -3 2 -19 11 -37 9 -18 14 -34 11 -37 -2 -3 -43 -8 -90 -10 -47 -3 -86
-10 -86 -14 0 -16 48 -21 102 -10 76 15 258 31 361 31 50 0 87 4 87 10 0 17
-43 21 -135 12 -49 -5 -92 -7 -94 -6 -3 2 5 14 17 27 30 32 28 47 -7 47 -25 0
-29 -4 -35 -40z"/>
</g>
<g id="part-4" class="char-part">
  <path d="M490 215 c0 -24 -3 -25 -57 -26 -32 0 -76 -3 -98 -7 l-40 -8 30 -11
c20 -6 49 -7 80 -2 99 16 95 19 95 -65 0 -71 10 -100 26 -75 4 7 9 45 12 86
l5 73 126 0 c116 1 124 2 106 16 -16 13 -38 14 -121 9 -97 -6 -101 -6 -107 14
-3 15 -13 21 -31 21 -21 0 -26 -5 -26 -25z"/>
</g>
</g>
</svg>