<?xml version="1.0" standalone="no"?>
<!DOCTYPE svg PUBLIC "-//W3C//DTD SVG 20010904//EN"
 "http://www.w3.org/TR/2001/REC-SVG-20010904/DTD/svg10.dtd">
<svg version="1.0" xmlns="http://www.w3.org/2000/svg"
 width="96.000000pt" height="68.000000pt" viewBox="0 0 96.000000 68.000000"
 preserveAspectRatio="xMidYMid meet">
<metadata>
Created by potrace 1.16, written by Peter Selinger 2001-2019
Combined from part_0.svg through part_5.svg with named groups
</metadata>
<g transform="translate(0.000000,68.000000) scale(0.100000,-0.100000)" fill="#000000" stroke="none">
<g id="part-0" class="char-part">
  <path d="M525 584 c-44 -7 -109 -13 -145 -14 -36 0 -60 -4 -54 -8 16 -10 30
-42 38 -83 4 -21 14 -43 23 -50 15 -13 16 -10 10 31 -4 25 -9 54 -13 66 -6 24
4 27 145 40 l74 7 -7 -44 c-4 -24 -9 -54 -13 -66 -4 -18 -1 -23 13 -23 18 0
27 18 71 126 3 9 -56 40 -61 33 -1 -1 -37 -8 -81 -15z"/>
  <path d="M180 532 c0 -25 51 -72 79 -72 33 0 24 40 -14 59 -16 8 -38 18 -47
23 -14 6 -18 4 -18 -10z"/>
  <path d="M445 510 c-15 -6 -6 -9 32 -9 28 -1 55 4 58 9 8 12 -61 12 -90 0z"/>
  <path d="M482 460 c-39 -9 -53 -20 -26 -20 41 0 93 13 88 21 -6 10 -16 10 -62
-1z"/>
  <path d="M485 400 c-82 -10 -158 -16 -167 -14 -21 6 -24 -11 -4 -19 7 -3 18
-26 25 -51 13 -53 21 -59 54 -47 14 6 82 12 152 14 l126 4 36 53 c34 50 35 54
17 67 -22 16 -52 15 -239 -7z m185 -13 c0 -6 -5 -26 -12 -44 -11 -30 -15 -33
-55 -33 -44 0 -50 7 -33 40 7 13 6 21 -2 27 -9 5 -1 10 22 13 56 9 80 8 80 -3z
m-138 -12 c3 -3 2 -20 -1 -38 -10 -46 -43 -49 -59 -4 -7 18 -12 36 -12 40 0 8
64 9 72 2z m-91 -32 c13 -36 5 -53 -27 -53 -30 0 -53 24 -54 58 0 19 5 22 35
22 29 0 37 -5 46 -27z"/>
  <path d="M100 403 c0 -5 14 -23 31 -40 42 -46 90 -42 74 6 -7 23 -105 55 -105
34z"/>
  <path d="M215 250 c-20 -32 -52 -71 -71 -85 -37 -29 -40 -38 -21 -78 16 -36
42 -34 57 6 7 17 30 69 52 114 21 45 38 87 38 92 0 25 -20 7 -55 -49z"/>
  <path d="M535 239 c-16 -5 -63 -12 -102 -15 -40 -4 -73 -10 -73 -13 0 -4 16
-13 35 -20 42 -15 97 -59 89 -72 -10 -17 -64 -40 -137 -59 -40 -10 -62 -19
-50 -19 35 -2 158 27 197 45 35 17 37 17 58 -3 65 -60 130 -75 241 -57 41 7
51 24 14 24 -33 0 -187 40 -219 56 -16 8 -28 18 -28 23 0 4 18 27 40 51 22 24
40 47 40 51 0 19 -54 23 -105 8z m25 -29 c0 -18 -31 -60 -44 -60 -7 0 -27 11
-45 24 l-33 25 38 6 c22 4 44 8 49 10 20 7 35 5 35 -5z"/>
</g>
<g id="part-1" class="char-part">
  <path d="M210 495 c36 -37 55 -43 63 -22 10 26 -31 57 -74 57 -22 0 -21 -2 11
-35z"/>
  <path d="M116 387 c8 -23 62 -57 78 -51 23 9 20 30 -6 48 -28 20 -80 22 -72 3z"/>
  <path d="M209 235 c-24 -36 -47 -65 -51 -65 -5 0 -17 -9 -28 -20 -16 -16 -18
-24 -9 -49 19 -55 34 -45 83 56 44 90 64 143 54 143 -3 0 -25 -29 -49 -65z"/>
</g>
<g id="part-2" class="char-part">
  <path d="M525 585 c-38 -8 -101 -14 -139 -14 -65 -1 -68 -2 -53 -18 8 -10 22
-42 29 -72 18 -69 44 -84 35 -20 -4 24 -9 54 -13 65 -7 25 6 28 140 40 l79 7
-8 -49 c-12 -74 -11 -89 4 -89 17 0 76 134 64 145 -17 16 -70 18 -138 5z"/>
  <path d="M445 510 c-15 -6 -6 -9 32 -9 28 -1 55 4 58 9 8 12 -61 12 -90 0z"/>
  <path d="M471 459 c-18 -6 -31 -13 -28 -16 9 -9 107 8 101 18 -6 11 -28 10
-73 -2z"/>
</g>
<g id="part-3" class="char-part">
  <path d="M480 399 c-80 -9 -153 -15 -162 -13 -19 6 -25 -12 -7 -18 6 -2 18
-26 28 -53 13 -40 20 -49 36 -47 79 11 245 21 266 17 22 -5 30 1 64 51 35 54
36 58 19 71 -22 16 -61 15 -244 -8z m185 -9 c3 -6 1 -25 -6 -44 l-12 -33 -101
-7 c-56 -4 -115 -9 -132 -12 -28 -5 -33 -3 -43 27 -6 18 -9 35 -5 38 3 3 67
13 142 22 75 9 140 17 144 18 4 0 10 -4 13 -9z"/>
</g>
<g id="part-4" class="char-part">
  <path d="M500 235 c-30 -7 -74 -14 -97 -14 -52 -1 -55 -13 -8 -30 36 -13 95
-57 95 -71 0 -11 -90 -48 -157 -64 -32 -8 -48 -15 -35 -15 33 -1 162 29 195
46 28 14 31 13 89 -26 50 -34 70 -41 108 -41 60 0 140 11 140 19 0 3 -42 14
-92 24 -51 10 -115 28 -141 40 l-48 22 45 49 c25 27 46 52 46 56 0 22 -56 24
-140 5z m60 -26 c0 -6 -9 -24 -20 -39 l-20 -29 -40 26 c-22 15 -38 29 -35 31
5 6 69 19 98 21 9 0 17 -4 17 -10z"/>
</g>
</g>
</svg>