<?xml version="1.0" standalone="no"?>
<!DOCTYPE svg PUBLIC "-//W3C//DTD SVG 20010904//EN"
 "http://www.w3.org/TR/2001/REC-SVG-20010904/DTD/svg10.dtd">
<svg version="1.0" xmlns="http://www.w3.org/2000/svg"
 width="96.000000pt" height="68.000000pt" viewBox="0 0 96.000000 68.000000"
 preserveAspectRatio="xMidYMid meet">
<metadata>
Created by potrace 1.16, written by Peter Selinger 2001-2019
Combined from part_0.svg through part_5.svg with named groups
</metadata>
<g transform="translate(0.000000,68.000000) scale(0.100000,-0.100000)" fill="#000000" stroke="none">
<g id="part-0" class="char-part">
  <path d="M480 589 c-127 -16 -150 -20 -150 -30 0 -5 26 -9 59 -9 52 0 59 -2
65 -22 3 -13 2 -26 -3 -31 -8 -8 -181 -13 -210 -6 -18 5 -63 -72 -52 -89 15
-25 56 11 48 43 -2 9 201 35 212 28 3 -2 5 -34 5 -71 1 -53 4 -67 16 -67 12 0
16 16 18 72 l3 71 92 7 c51 4 103 5 116 4 l23 -4 -23 -29 c-21 -27 -21 -29 -4
-22 10 4 38 10 62 13 27 4 43 11 43 20 0 17 -60 54 -80 49 -8 -3 -63 -8 -122
-11 l-106 -7 1 25 c2 24 7 27 57 32 81 9 89 13 66 31 -22 15 -38 16 -136 3z"/>
  <path d="M550 435 c-28 -28 -24 -30 32 -13 21 6 37 16 35 22 -7 20 -42 15 -67
-9z"/>
  <path d="M310 435 c0 -11 63 -36 77 -30 14 5 14 7 -3 20 -18 13 -74 21 -74 10z"/>
  <path d="M540 383 c0 -9 28 -26 62 -37 19 -6 35 11 22 24 -14 13 -84 24 -84
13z"/>
  <path d="M322 363 c-20 -3 -32 -9 -29 -16 6 -20 40 -18 67 3 26 20 24 20 -38
13z"/>
  <path d="M595 305 c-44 -6 -86 -10 -95 -8 -13 3 -15 -14 -14 -127 1 -72 4
-134 7 -137 3 -3 20 0 38 6 18 6 61 11 95 11 50 0 64 -3 64 -15 0 -24 29 -17
34 8 3 12 7 74 9 139 4 115 4 116 -20 127 -13 6 -27 10 -31 10 -4 -1 -43 -7
-87 -14z m88 -37 c8 -31 4 -34 -55 -42 -29 -3 -63 -9 -75 -12 -21 -6 -23 -3
-23 29 0 39 6 42 106 45 35 2 43 -1 47 -20z m5 -84 c3 -18 -4 -22 -44 -28 -26
-3 -62 -6 -80 -6 -29 0 -34 3 -34 25 0 22 4 24 58 28 89 6 97 4 100 -19z m2
-77 l0 -34 -82 1 c-81 1 -83 1 -83 26 0 23 4 25 60 31 113 11 105 13 105 -24z"/>
  <path d="M322 281 c5 -32 5 -32 -111 -47 -76 -10 -38 -29 41 -20 56 5 58 5 46
-13 -15 -21 -100 -96 -126 -110 -9 -5 -15 -12 -12 -15 9 -8 66 23 108 60 22
19 44 34 49 34 5 0 5 -26 -1 -60 -7 -43 -7 -63 1 -71 21 -21 31 0 38 77 l7 76
32 -31 c29 -28 56 -40 56 -25 0 19 -26 46 -55 59 -49 20 -44 33 15 41 28 4 50
10 50 15 0 5 -22 9 -50 9 -42 0 -50 3 -50 19 0 16 -18 31 -37 31 -3 0 -3 -13
-1 -29z"/>
</g>
<g id="part-1" class="char-part">
  <path d="M520 590 c-25 -4 -75 -11 -113 -14 -82 -9 -79 -26 6 -26 70 1 196 15
204 24 16 16 -40 25 -97 16z"/>
</g>
<g id="part-2" class="char-part">
  <path d="M590 504 c-160 -16 -332 -18 -347 -3 -9 9 -18 -2 -38 -41 -18 -35
-23 -56 -16 -63 15 -15 42 0 53 31 11 28 13 29 132 40 67 6 169 15 229 18 92
6 107 5 107 -8 0 -9 -10 -23 -22 -32 -16 -12 -18 -16 -6 -12 10 3 40 8 68 12
33 4 50 11 50 20 0 15 -58 55 -75 53 -5 -1 -66 -7 -135 -15z"/>
</g>
<g id="part-3" class="char-part">
  <path d="M318 280 c5 -33 2 -34 -103 -45 -47 -6 -55 -9 -41 -17 10 -6 43 -8
72 -5 30 3 54 2 54 -3 0 -10 -120 -120 -132 -120 -4 0 -8 -5 -8 -10 0 -14 52
13 114 58 l49 36 -7 -49 c-10 -65 -9 -86 4 -99 17 -17 27 8 34 85 4 38 11 69
15 69 4 0 18 -11 31 -25 28 -30 50 -32 50 -6 0 13 -15 26 -45 41 -25 12 -45
26 -45 31 0 4 23 11 50 15 28 4 50 10 50 15 0 5 -22 9 -50 9 -42 0 -50 3 -50
19 0 17 -18 31 -39 31 -4 0 -6 -13 -3 -30z"/>
</g>
<g id="part-4" class="char-part">
  <path d="M595 304 c-44 -7 -89 -11 -99 -8 -15 5 -18 3 -12 -12 4 -11 7 -54 7
-96 0 -77 8 -94 35 -69 14 13 164 24 164 12 0 -5 9 -9 20 -8 17 1 20 8 20 52
0 27 3 66 6 85 5 32 3 37 -20 48 -15 7 -30 11 -34 11 -4 -1 -43 -8 -87 -15z
m89 -30 c13 -34 6 -41 -51 -48 -31 -4 -67 -9 -80 -12 -21 -6 -23 -3 -23 29 0
33 3 36 33 40 79 10 115 7 121 -9z m6 -89 c0 -14 -6 -25 -12 -26 -7 0 -43 -3
-80 -8 l-68 -7 0 27 c0 30 -9 28 133 37 23 2 27 -2 27 -23z"/>
</g>
<g id="part-5" class="char-part">
  <path d="M698 103 c7 -3 16 -2 19 1 4 3 -2 6 -13 5 -11 0 -14 -3 -6 -6z"/>
  <path d="M498 94 c-4 -5 -4 -22 -1 -37 5 -23 8 -25 21 -15 8 7 39 12 73 11 33
0 61 2 64 7 2 4 -24 7 -59 5 -68 -2 -80 1 -88 25 -2 7 -7 10 -10 4z"/>
  <path d="M695 80 c3 -5 -1 -10 -9 -10 -21 0 -20 -10 2 -26 25 -19 27 -18 30
16 2 22 -2 30 -13 30 -9 0 -13 -4 -10 -10z"/>
</g>
</g>
</svg>