<?xml version="1.0" standalone="no"?>
<!DOCTYPE svg PUBLIC "-//W3C//DTD SVG 20010904//EN"
 "http://www.w3.org/TR/2001/REC-SVG-20010904/DTD/svg10.dtd">
<svg version="1.0" xmlns="http://www.w3.org/2000/svg"
 width="96.000000pt" height="68.000000pt" viewBox="0 0 96.000000 68.000000"
 preserveAspectRatio="xMidYMid meet">
<metadata>
Created by potrace 1.16, written by Peter Selinger 2001-2019
Combined from part_0.svg through part_5.svg with named groups
</metadata>
<g transform="translate(0.000000,68.000000) scale(0.100000,-0.100000)" fill="#000000" stroke="none">
<g id="part-0" class="char-part">
  <path d="M620 580 c-46 -10 -406 -34 -417 -27 -4 3 -6 -74 -5 -172 2 -100 -1
-202 -7 -235 -8 -45 -8 -65 2 -84 16 -33 37 -40 44 -13 5 19 13 21 73 21 37 0
127 3 201 6 l135 7 19 -29 c10 -15 18 -34 18 -40 0 -18 37 -3 54 22 13 21 15
57 12 237 -2 116 0 227 4 245 8 31 7 33 -35 52 -47 21 -48 22 -98 10z m54 -62
c9 -34 20 -351 13 -379 -6 -23 -9 -24 -104 -24 -54 0 -151 -4 -215 -8 l-118
-9 0 189 c0 103 3 198 6 209 5 20 16 22 132 31 70 6 161 11 203 11 72 2 77 1
83 -20z"/>
  <path d="M398 496 l-66 -11 19 -37 c16 -31 25 -38 49 -38 23 0 30 -4 30 -20 0
-15 -7 -20 -27 -21 -16 -1 -32 -2 -38 -4 -5 -1 -32 -3 -59 -3 -38 -2 -47 -5
-39 -13 16 -16 395 9 390 25 -3 7 -38 10 -101 8 -53 -1 -96 1 -96 5 1 19 17
31 45 35 17 1 30 8 30 14 0 6 8 19 18 28 10 10 16 23 14 30 -5 15 -87 16 -169
2z m108 -17 c12 -19 -20 -37 -69 -40 -45 -3 -66 8 -67 33 0 15 126 22 136 7z"/>
  <path d="M465 320 c-16 -4 -58 -8 -92 -9 -35 0 -63 -3 -63 -5 0 -2 6 -31 14
-63 8 -32 17 -71 21 -86 4 -21 9 -26 18 -19 20 16 166 26 182 12 21 -18 38 -1
54 57 8 26 20 60 28 75 12 25 11 28 -6 38 -22 11 -111 12 -156 0z m98 -23 c4
-12 -9 -106 -16 -113 -1 -1 -43 -5 -93 -9 l-91 -7 -7 57 c-6 54 -2 80 12 71 4
-2 36 0 72 4 101 11 117 11 123 -3z"/>
  <path d="M428 273 c-41 -4 -46 -6 -38 -21 4 -9 11 -25 14 -35 5 -16 12 -18 49
-12 51 9 45 5 53 43 6 27 4 32 -12 30 -11 -1 -40 -3 -66 -5z m52 -28 c0 -8 -3
-15 -7 -15 -5 0 -18 -3 -30 -6 -17 -5 -23 -2 -23 9 0 14 16 23 48 26 6 0 12
-6 12 -14z"/>
</g>
<g id="part-1" class="char-part">
  <path d="M575 570 c-27 -5 -126 -11 -218 -16 -148 -6 -167 -9 -161 -23 14 -31
16 -234 4 -342 -6 -59 -9 -117 -5 -129 7 -23 30 -27 38 -6 4 10 38 15 134 20
70 3 162 8 205 11 l76 5 22 -35 c24 -39 40 -44 61 -18 11 13 14 66 14 247 0
127 4 238 8 247 6 12 0 20 -26 33 -37 17 -70 18 -152 6z m89 -35 c22 -22 27
-81 24 -265 -3 -159 -4 -165 -23 -160 -28 6 -86 6 -269 -4 l-158 -9 7 209 c4
115 8 210 9 211 3 3 306 30 358 32 21 0 43 -5 52 -14z"/>
</g>
<g id="part-2" class="char-part">
  <path d="M425 498 c-22 -5 -52 -7 -67 -5 -31 4 -32 4 -19 -21 5 -9 13 -28 19
-42 l9 -25 87 9 c53 6 86 14 86 21 0 7 9 20 20 30 43 39 -32 58 -135 33z m85
-14 c0 -3 -5 -14 -10 -25 -14 -25 -114 -28 -124 -3 -9 23 -9 22 27 27 54 7
107 7 107 1z"/>
</g>
<g id="part-3" class="char-part">
  <path d="M430 396 c0 -20 -6 -24 -46 -30 -26 -3 -67 -6 -91 -6 -27 0 -42 -4
-38 -10 3 -5 25 -10 48 -10 79 0 357 24 357 31 0 16 -45 21 -120 14 -74 -7
-78 -6 -74 12 4 13 0 19 -15 20 -16 1 -21 -4 -21 -21z"/>
</g>
<g id="part-4" class="char-part">
  <path d="M475 320 c-16 -4 -62 -8 -102 -9 l-72 -1 13 -32 c8 -18 17 -55 20
-82 8 -59 14 -70 29 -58 7 6 50 13 96 17 65 6 85 4 92 -6 13 -22 30 2 60 87
l27 75 -25 10 c-28 10 -94 10 -138 -1z m89 -19 c5 -8 -10 -110 -17 -118 -2 -2
-44 -6 -94 -9 l-90 -7 -7 57 c-4 32 -6 60 -3 62 4 4 130 20 179 23 15 0 29 -3
32 -8z"/>
</g>
</g>
</svg>