<?xml version="1.0" standalone="no"?>
<!DOCTYPE svg PUBLIC "-//W3C//DTD SVG 20010904//EN"
 "http://www.w3.org/TR/2001/REC-SVG-20010904/DTD/svg10.dtd">
<svg version="1.0" xmlns="http://www.w3.org/2000/svg"
 width="96.000000pt" height="68.000000pt" viewBox="0 0 96.000000 68.000000"
 preserveAspectRatio="xMidYMid meet">
<metadata>
Created by potrace 1.16, written by Peter Selinger 2001-2019
Combined from part_0.svg through part_5.svg with named groups
</metadata>
<g transform="translate(0.000000,68.000000) scale(0.100000,-0.100000)" fill="#000000" stroke="none">
<g id="part-0" class="char-part">
  <path d="M326 578 c-23 -81 -39 -113 -89 -176 -32 -41 -73 -87 -90 -103 -21
-18 -27 -29 -17 -29 19 0 77 35 112 67 32 31 62 27 66 -8 3 -24 -1 -27 -43
-33 -58 -9 -55 -32 4 -29 l41 2 0 -59 0 -59 -42 -11 c-23 -7 -59 -10 -80 -8
-31 3 -38 0 -38 -14 0 -10 14 -25 30 -33 29 -15 34 -14 93 10 34 15 87 35 117
46 30 10 61 22 69 24 11 4 11 9 3 17 -8 8 -22 8 -53 -1 -22 -7 -43 -10 -46 -7
-3 2 -2 27 2 55 7 49 8 51 43 56 21 4 44 9 52 11 24 8 -9 24 -51 24 -32 0 -36
3 -36 25 0 19 5 25 21 25 12 0 31 6 42 14 17 13 18 15 2 21 -9 4 -47 0 -83 -8
l-66 -15 17 26 c9 15 28 42 41 60 l25 33 34 -31 c19 -16 41 -30 48 -30 21 0
29 33 12 46 -9 6 -12 14 -8 18 4 4 3 7 -3 5 -5 -1 -24 2 -41 6 -25 5 -31 11
-27 26 9 32 -52 68 -61 37z"/>
  <path d="M580 565 c0 -26 -39 -120 -74 -178 -35 -59 -25 -64 23 -13 16 17 35
26 56 26 17 0 58 5 90 11 84 15 88 7 82 -141 -2 -65 -10 -127 -18 -144 -12
-26 -16 -28 -56 -22 -24 3 -43 4 -43 2 0 -12 70 -76 83 -76 19 0 65 54 72 83
3 12 9 85 14 162 8 134 8 141 -11 158 -25 21 -41 21 -115 2 -31 -8 -70 -15
-85 -15 l-27 0 35 65 c29 53 33 69 24 80 -16 19 -50 19 -50 0z"/>
  <path d="M557 305 c-73 -16 -83 -25 -26 -24 62 0 122 12 123 24 1 15 -32 15
-97 0z"/>
  <path d="M398 230 c-18 -45 -14 -48 31 -22 33 18 41 46 15 56 -25 10 -28 8
-46 -34z"/>
  <path d="M210 235 c0 -17 46 -65 62 -65 26 0 23 35 -4 54 -22 15 -58 22 -58
11z"/>
  <path d="M543 217 c-91 -14 -80 -31 15 -22 42 4 88 8 102 9 14 0 25 6 25 11 0
14 -67 15 -142 2z"/>
</g>
<g id="part-1" class="char-part">
  <path d="M320 538 c-16 -54 -63 -126 -136 -207 l-58 -63 40 20 c21 11 51 32
66 47 19 19 35 26 55 23 24 -3 28 -8 28 -33 0 -28 -3 -30 -40 -33 -62 -5 -67
-22 -7 -22 l53 0 -3 -62 -3 -62 -50 -13 c-27 -7 -65 -12 -83 -10 -38 4 -38
-11 1 -33 22 -12 31 -13 59 -1 18 7 73 28 123 46 49 18 91 38 93 44 5 15 -12
14 -55 -4 -19 -8 -37 -15 -39 -15 -2 0 -4 27 -4 60 0 54 2 60 23 64 83 17 83
17 63 28 -10 5 -31 8 -46 5 -25 -5 -28 -3 -32 24 -4 27 -2 30 34 35 21 4 38
10 38 14 0 16 -28 18 -80 4 -83 -22 -85 -19 -39 46 23 33 44 60 47 60 2 0 21
-13 41 -29 24 -19 42 -27 51 -21 22 13 3 40 -40 57 -28 11 -39 21 -35 31 7 19
-12 42 -35 42 -11 0 -21 -14 -30 -42z"/>
  <path d="M407 243 c-2 -10 -8 -27 -13 -38 -7 -19 -6 -18 27 2 39 25 44 47 13
51 -14 2 -23 -3 -27 -15z"/>
  <path d="M229 212 c17 -32 40 -47 53 -34 15 15 -17 52 -44 52 -15 0 -17 -4 -9
-18z"/>
</g>
<g id="part-2" class="char-part">
  <path d="M580 570 c0 -30 -37 -121 -74 -183 -19 -31 -32 -57 -28 -57 3 0 22
15 42 33 31 30 45 35 124 46 65 9 92 9 100 1 7 -7 11 -56 11 -128 0 -171 -19
-203 -101 -172 -25 10 -26 9 -13 -7 34 -46 64 -73 80 -73 20 0 67 52 74 83 2
12 9 85 14 162 8 134 8 141 -11 158 -25 21 -45 21 -114 1 -29 -8 -67 -14 -84
-12 l-30 3 36 60 c38 63 38 81 -4 96 -18 7 -22 5 -22 -11z"/>
</g>
<g id="part-3" class="char-part">
  <path d="M560 308 c-30 -5 -59 -14 -64 -19 -14 -13 62 -11 126 2 42 9 49 13
33 20 -24 9 -26 9 -95 -3z"/>
</g>
<g id="part-4" class="char-part">
  <path d="M535 216 c-93 -15 -68 -30 33 -20 42 4 80 9 85 10 4 1 14 2 23 3 8 0
12 6 9 11 -8 12 -58 11 -150 -4z"/>
</g>
</g>
</svg>