<?xml version="1.0" standalone="no"?>
<!DOCTYPE svg PUBLIC "-//W3C//DTD SVG 20010904//EN"
 "http://www.w3.org/TR/2001/REC-SVG-20010904/DTD/svg10.dtd">
<svg version="1.0" xmlns="http://www.w3.org/2000/svg"
 width="96.000000pt" height="68.000000pt" viewBox="0 0 96.000000 68.000000"
 preserveAspectRatio="xMidYMid meet">
<metadata>
Created by potrace 1.16, written by Peter Selinger 2001-2019
Combined from part_0.svg through part_5.svg with named groups
</metadata>
<g transform="translate(0.000000,68.000000) scale(0.100000,-0.100000)" fill="#000000" stroke="none">
<g id="part-0" class="char-part">
  <path d="M459 621 c-20 -11 -62 -27 -93 -36 -31 -9 -56 -19 -56 -22 0 -3 31
-3 69 -1 l70 5 -2 -28 c-2 -31 -8 -33 -169 -45 -55 -4 -85 -10 -81 -16 5 -10
132 -5 193 7 11 2 20 1 20 -3 -1 -22 -40 -48 -167 -113 -58 -29 -69 -38 -43
-33 46 9 112 37 181 80 31 18 58 34 60 34 2 0 4 -24 4 -54 0 -54 0 -54 -35
-60 -19 -3 -47 -6 -62 -6 -16 0 -28 -4 -28 -10 0 -13 35 -13 121 1 38 7 73 9
77 5 9 -10 -44 -56 -64 -56 -10 0 -13 -6 -9 -19 7 -24 -13 -28 -172 -37 -68
-4 -123 -11 -123 -15 0 -15 49 -22 103 -15 29 3 84 9 124 12 l72 7 7 -37 c4
-23 2 -48 -5 -63 -10 -22 -16 -25 -44 -19 l-32 6 38 -37 c31 -31 40 -36 55
-27 20 13 29 49 31 127 l1 57 149 0 c148 0 183 8 139 31 -15 8 -52 10 -127 4
-163 -12 -165 -12 -168 5 -2 10 17 24 57 42 33 15 60 31 60 36 0 17 -59 35
-95 29 l-35 -6 0 55 c0 30 4 54 9 54 5 0 37 -16 71 -35 66 -37 147 -75 161
-75 5 0 9 9 9 20 0 25 -22 36 -145 76 -55 18 -101 37 -103 42 -1 5 50 8 123 8
93 -1 125 2 125 11 0 21 -46 26 -138 16 -48 -6 -90 -8 -94 -6 -5 2 -8 17 -8
32 0 26 4 29 45 35 56 9 64 21 26 41 -39 20 -59 19 -102 -4z"/>
</g>
<g id="part-1" class="char-part">
  <path d="M472 623 c-13 -9 -53 -27 -90 -40 l-67 -23 55 5 c57 6 174 24 199 32
13 3 13 6 0 18 -23 23 -71 27 -97 8z"/>
</g>
<g id="part-2" class="char-part">
  <path d="M455 572 c-5 -4 -10 -13 -11 -19 -4 -45 10 -41 -193 -59 -57 -5 -70
-9 -56 -16 16 -10 175 -3 214 9 46 14 -67 -66 -154 -109 -65 -32 -88 -47 -65
-42 56 10 132 41 193 78 l56 34 3 -47 c2 -33 7 -46 18 -46 11 0 16 14 18 53 2
28 5 52 8 52 3 0 55 -25 115 -56 101 -51 139 -61 139 -35 0 19 -47 42 -150 75
-55 18 -103 35 -106 38 -10 11 100 19 170 12 48 -4 76 -3 80 4 15 24 -35 33
-140 26 l-104 -7 0 32 c0 30 -13 39 -35 23z"/>
</g>
<g id="part-3" class="char-part">
  <path d="M445 345 c-27 -7 -67 -14 -87 -14 -21 -1 -38 -5 -38 -11 0 -13 48
-13 127 1 35 6 67 8 71 4 4 -4 -6 -17 -22 -30 -15 -12 -24 -25 -19 -28 10 -6
133 52 133 62 0 13 -50 31 -83 30 -18 -1 -54 -7 -82 -14z"/>
</g>
<g id="part-4" class="char-part">
  <path d="M445 250 c10 -11 16 -20 14 -21 -21 -4 -74 -8 -181 -15 -71 -4 -128
-10 -128 -14 0 -21 75 -26 156 -11 27 5 69 11 93 12 42 3 45 2 53 -26 4 -17 5
-45 2 -64 -6 -32 -8 -33 -46 -27 l-38 6 40 -36 c23 -21 46 -34 54 -31 19 8 36
69 36 135 l0 52 143 0 c149 0 188 8 147 30 -23 12 -164 9 -261 -7 -31 -4 -37
-2 -42 16 -4 15 -13 21 -33 21 -26 0 -27 0 -9 -20z"/>
</g>
</g>
</svg>