<?xml version="1.0" standalone="no"?>
<!DOCTYPE svg PUBLIC "-//W3C//DTD SVG 20010904//EN"
 "http://www.w3.org/TR/2001/REC-SVG-20010904/DTD/svg10.dtd">
<svg version="1.0" xmlns="http://www.w3.org/2000/svg"
 width="96.000000pt" height="68.000000pt" viewBox="0 0 96.000000 68.000000"
 preserveAspectRatio="xMidYMid meet">
<metadata>
Created by potrace 1.16, written by Peter Selinger 2001-2019
Combined from part_0.svg through part_5.svg with named groups
</metadata>
<g transform="translate(0.000000,68.000000) scale(0.100000,-0.100000)" fill="#000000" stroke="none">
<g id="part-0" class="char-part">
  <path d="M580 580 c0 -34 -23 -50 -70 -50 -42 0 -35 -24 8 -28 37 -4 37 -4 12
-57 -11 -22 -19 -45 -20 -51 0 -5 -14 -29 -31 -52 -17 -23 -26 -42 -20 -42 5
0 13 4 16 10 3 5 11 10 17 10 7 0 9 -25 6 -78 -4 -55 -2 -83 7 -96 12 -16 14
-16 22 -2 7 13 36 18 133 24 78 4 123 11 120 17 -3 6 -30 10 -60 11 -48 1 -55
4 -58 22 -3 19 2 22 27 22 17 0 31 5 31 10 0 6 -13 10 -30 10 -20 0 -30 5 -30
15 0 9 9 15 24 15 14 0 28 5 31 10 3 6 -2 10 -12 10 -22 0 -43 18 -43 37 0 9
15 13 47 13 57 0 47 17 -12 22 -26 2 -39 8 -37 16 2 13 -47 37 -57 27 -3 -3 0
-15 7 -25 17 -27 16 -28 -23 -36 -44 -8 -54 0 -30 26 17 18 17 21 2 38 -14 16
-13 19 23 50 34 28 46 32 99 32 45 0 61 4 61 14 0 15 -30 26 -72 26 -22 0 -25
4 -21 21 7 24 -10 39 -44 39 -19 0 -23 -6 -23 -30z m40 -260 c0 -14 -7 -20
-24 -20 -13 0 -30 -2 -38 -5 -7 -3 -18 6 -25 20 -11 25 -11 25 38 25 42 0 49
-3 49 -20z m0 -54 c0 -14 -29 -26 -67 -26 -16 0 -23 6 -23 20 0 17 7 20 45 20
32 0 45 -4 45 -14z m-2 -58 c-2 -19 -10 -24 -45 -26 -37 -3 -43 0 -43 17 0 16
8 21 38 24 20 2 41 4 45 5 5 1 7 -8 5 -20z"/>
  <path d="M295 579 c-4 -5 1 -19 11 -30 25 -27 6 -39 -63 -39 -29 0 -53 -4 -53
-10 0 -20 42 -31 94 -25 44 6 54 4 59 -9 9 -23 25 -20 29 6 2 16 12 24 32 28
43 7 46 30 4 30 -28 0 -35 5 -45 30 -8 22 -18 30 -37 30 -13 0 -28 -5 -31 -11z"/>
  <path d="M305 420 c-16 -4 -47 -8 -67 -9 -45 -1 -52 -21 -7 -21 27 0 30 -3 27
-27 -3 -25 -7 -28 -38 -26 l-35 2 2 -90 c1 -50 4 -98 8 -107 6 -16 7 -16 16 0
8 15 24 18 84 18 63 0 76 -3 88 -20 13 -19 15 -19 29 -3 10 12 17 50 21 115
l6 98 -24 6 c-14 3 -35 4 -46 1 -18 -5 -20 -2 -15 16 3 12 6 25 6 30 0 4 9 7
19 7 11 0 23 5 26 10 7 12 -54 12 -100 0z m15 -49 c0 -10 -3 -21 -6 -24 -13
-12 -21 3 -17 28 6 27 23 24 23 -4z m-4 -59 c1 -7 2 -19 3 -27 1 -11 13 -15
41 -15 l40 0 0 -45 0 -45 -59 0 c-32 0 -73 -3 -90 -6 l-32 -7 3 74 c3 63 6 74
22 77 19 4 19 -1 1 -53 -5 -15 -1 -14 19 8 14 15 26 35 26 43 0 18 24 13 26
-4z m84 -2 c0 -15 -7 -20 -28 -20 -21 0 -28 5 -28 20 0 15 7 20 28 20 21 0 28
-5 28 -20z"/>
  <path d="M275 220 c-17 -7 -15 -9 10 -8 17 0 41 4 55 8 23 7 22 8 -10 8 -19 0
-44 -3 -55 -8z"/>
  <path d="M660 110 c0 -6 6 -13 14 -16 8 -3 26 -23 41 -44 29 -42 53 -56 68
-41 5 5 6 19 2 30 -11 35 -125 100 -125 71z"/>
  <path d="M177 84 c-32 -35 -37 -84 -8 -84 26 0 56 65 44 93 -9 20 -10 19 -36
-9z"/>
  <path d="M330 106 c0 -16 54 -86 66 -86 17 0 18 41 2 63 -13 16 -68 35 -68 23z"/>
  <path d="M501 93 c34 -45 54 -63 71 -63 38 0 12 53 -33 69 -44 15 -54 14 -38
-6z"/>
</g>
<g id="part-1" class="char-part">
  <path d="M578 573 c-2 -29 -8 -39 -23 -41 -57 -8 -69 -13 -54 -23 7 -5 24 -9
37 -9 20 0 21 -3 12 -20 -16 -29 5 -26 34 5 14 15 34 25 52 25 16 0 46 3 68 7
37 6 38 6 15 19 -13 6 -38 10 -57 7 -32 -6 -33 -5 -26 22 7 29 -6 45 -38 45
-12 0 -18 -10 -20 -37z"/>
  <path d="M306 581 c-4 -6 -2 -19 4 -30 18 -36 12 -41 -50 -41 -61 0 -72 -8
-45 -30 11 -9 26 -9 66 -1 51 11 68 6 69 -21 0 -21 20 -5 20 17 0 20 6 25 35
31 42 8 38 18 -8 18 -27 1 -32 5 -35 29 -2 15 -7 27 -12 27 -5 0 -15 3 -23 6
-8 3 -18 1 -21 -5z"/>
</g>
<g id="part-2" class="char-part">
  <path d="M263 417 c-94 -15 -80 -31 20 -23 95 8 127 15 127 27 0 11 -65 9
-147 -4z"/>
</g>
<g id="part-3" class="char-part">
  <path d="M620 266 c0 -16 -21 -26 -55 -26 -13 0 -27 -5 -31 -11 -5 -9 6 -10
40 -5 46 7 47 7 44 -16 -2 -19 -10 -24 -40 -26 -21 -2 -38 -7 -38 -13 0 -9
177 -3 229 7 42 9 3 25 -54 22 -44 -2 -50 0 -50 17 0 14 8 21 28 23 37 4 35
22 -3 22 -16 0 -30 5 -30 10 0 6 -9 10 -20 10 -11 0 -20 -6 -20 -14z"/>
</g>
<g id="part-4" class="char-part">
  <path d="M660 113 c0 -2 13 -19 29 -36 16 -18 38 -43 49 -56 21 -27 52 -23 52
7 0 17 -28 49 -58 66 -19 11 -72 25 -72 19z"/>
  <path d="M166 70 c-27 -41 -26 -70 3 -70 24 0 54 56 47 86 -9 33 -19 30 -50
-16z"/>
  <path d="M351 69 c30 -54 59 -64 59 -21 0 34 -13 47 -54 58 l-29 7 24 -44z"/>
  <path d="M500 94 c35 -46 55 -64 72 -64 26 0 23 36 -4 54 -13 8 -36 18 -53 22
-28 7 -29 6 -15 -12z"/>
</g>
</g>
</svg>