<?xml version="1.0" standalone="no"?>
<!DOCTYPE svg PUBLIC "-//W3C//DTD SVG 20010904//EN"
 "http://www.w3.org/TR/2001/REC-SVG-20010904/DTD/svg10.dtd">
<svg version="1.0" xmlns="http://www.w3.org/2000/svg"
 width="96.000000pt" height="68.000000pt" viewBox="0 0 96.000000 68.000000"
 preserveAspectRatio="xMidYMid meet">
<metadata>
Created by potrace 1.16, written by Peter Selinger 2001-2019
Combined from part_0.svg through part_5.svg with named groups
</metadata>
<g transform="translate(0.000000,68.000000) scale(0.100000,-0.100000)" fill="#000000" stroke="none">
<g id="part-0" class="char-part">
  <path d="M431 611 c-14 -27 -43 -55 -90 -88 -39 -26 -68 -49 -66 -51 2 -2 20
1 41 7 31 9 39 8 51 -7 38 -48 38 -49 -42 -94 -73 -42 -97 -66 -52 -52 94 28
225 109 347 212 28 25 32 32 22 45 -17 20 -58 30 -80 19 -9 -5 -29 -12 -45
-16 -26 -6 -27 -5 -15 13 14 23 6 35 -29 45 -18 6 -25 1 -42 -33z m61 -111
c-48 -45 -83 -66 -68 -41 4 5 -6 18 -20 28 l-26 20 33 21 c23 15 50 22 84 21
l50 0 -53 -49z"/>
  <path d="M500 407 c0 -24 -70 -96 -131 -133 -62 -38 -72 -52 -25 -34 25 9 31
6 71 -34 31 -32 40 -48 32 -55 -18 -14 -198 -103 -227 -112 -23 -7 -23 -7 -3
-8 28 -1 118 31 201 71 61 29 191 122 222 158 8 9 32 30 54 45 l38 29 -22 18
c-26 21 -70 22 -124 3 -45 -16 -66 -10 -39 11 17 13 17 15 -6 34 -27 23 -41
25 -41 7z m120 -91 c0 -7 -30 -42 -67 -77 l-68 -63 -9 26 c-5 15 -24 33 -44
42 l-35 17 34 25 c37 27 52 32 114 37 22 2 48 4 58 5 9 1 17 -4 17 -12z"/>
</g>
<g id="part-1" class="char-part">
  <path d="M440 625 c0 -22 -55 -80 -110 -115 -28 -18 -50 -34 -50 -36 0 -7 80
26 117 49 23 15 64 28 97 32 55 7 57 7 48 -11 -22 -41 -121 -118 -248 -192
-61 -35 -3 -18 91 28 69 34 264 174 265 191 0 3 -11 12 -25 19 -25 13 -53 10
-145 -17 -8 -3 -4 5 10 17 24 21 24 22 5 36 -25 18 -55 18 -55 -1z"/>
</g>
<g id="part-2" class="char-part">
  <path d="M359 484 c23 -41 41 -56 56 -51 34 14 12 50 -39 63 -26 6 -27 5 -17
-12z"/>
</g>
<g id="part-3" class="char-part">
  <path d="M490 390 c-14 -33 -80 -92 -150 -133 -25 -15 -39 -27 -32 -27 20 0
82 28 132 59 34 22 61 30 113 34 47 3 67 1 67 -7 0 -16 -92 -103 -156 -149
-29 -21 -98 -59 -155 -87 -109 -52 -112 -65 -7 -29 120 41 223 103 317 192 20
18 53 46 75 62 l38 29 -22 18 c-27 22 -69 23 -132 3 -51 -15 -57 -13 -32 13
15 15 15 17 -6 34 -30 24 -36 23 -50 -12z"/>
</g>
<g id="part-4" class="char-part">
  <path d="M380 250 c0 -13 66 -80 79 -80 5 0 13 5 16 10 12 19 -5 46 -40 63
-41 19 -55 21 -55 7z"/>
</g>
</g>
</svg>