<?xml version="1.0" standalone="no"?>
<!DOCTYPE svg PUBLIC "-//W3C//DTD SVG 20010904//EN"
 "http://www.w3.org/TR/2001/REC-SVG-20010904/DTD/svg10.dtd">
<svg version="1.0" xmlns="http://www.w3.org/2000/svg"
 width="96.000000pt" height="68.000000pt" viewBox="0 0 96.000000 68.000000"
 preserveAspectRatio="xMidYMid meet">
<metadata>
Created by potrace 1.16, written by Peter Selinger 2001-2019
Combined from part_0.svg through part_5.svg with named groups
</metadata>
<g transform="translate(0.000000,68.000000) scale(0.100000,-0.100000)" fill="#000000" stroke="none">
<g id="part-0" class="char-part">
  <path d="M470 609 c-41 -5 -115 -11 -165 -14 -50 -2 -92 -5 -95 -5 -3 0 3 -7
13 -14 10 -8 27 -36 37 -63 l18 -48 62 4 c71 4 80 -3 80 -61 l0 -38 -77 0
c-43 0 -73 -4 -67 -8 6 -4 18 -34 26 -67 l15 -60 49 -3 c54 -4 67 -11 55 -30
-5 -8 -53 -16 -141 -22 -73 -5 -135 -12 -138 -14 -2 -3 8 -8 23 -12 26 -6 100
-2 213 12 l52 7 0 -76 c0 -42 4 -78 9 -82 17 -10 31 32 31 93 0 74 -5 72 188
72 78 0 142 4 142 9 0 17 -54 22 -186 15 -133 -7 -134 -7 -134 15 0 19 5 21
55 21 l54 0 37 57 c20 31 38 62 40 68 8 20 -56 31 -125 23 -69 -8 -84 -5 -79
20 2 10 14 16 33 17 106 4 117 5 112 18 -2 6 -8 11 -13 11 -93 -14 -124 -14
-124 -1 0 9 -6 17 -12 19 -20 7 125 18 149 12 17 -5 27 2 50 37 15 23 33 48
38 56 7 10 5 18 -9 29 -22 16 -93 17 -216 3z m12 -41 c3 -7 2 -23 0 -35 -3
-19 -11 -23 -38 -23 -30 0 -34 3 -34 25 0 14 -6 26 -12 26 -15 2 38 16 64 18
9 0 18 -4 20 -11z m124 -10 c-3 -13 -6 -26 -6 -30 0 -5 -23 -8 -51 -8 -37 0
-49 3 -45 13 3 6 9 20 12 30 5 13 17 17 51 17 42 0 45 -2 39 -22z m-238 0 c5
-7 13 -23 16 -35 7 -21 4 -23 -34 -23 -34 0 -42 4 -50 26 -13 33 -13 32 8 37
32 9 50 7 60 -5z m222 -207 c0 -17 -10 -20 -67 -26 -38 -4 -93 -10 -123 -15
-62 -9 -70 -7 -70 19 0 16 13 20 98 28 156 16 162 16 162 -6z m-16 -49 c12
-19 -15 -33 -85 -42 -117 -15 -151 -13 -147 8 3 14 21 19 108 28 58 6 108 12
112 13 4 0 9 -3 12 -7z"/>
</g>
<g id="part-1" class="char-part">
  <path d="M470 604 c-69 -7 -154 -13 -190 -14 -55 0 -62 -3 -48 -14 9 -7 26
-35 36 -62 10 -28 24 -48 31 -46 7 1 85 8 172 14 l160 12 34 48 c19 26 35 50
35 52 0 8 -63 26 -84 25 -12 -1 -77 -7 -146 -15z m144 -41 c-4 -16 -9 -31 -13
-35 -9 -10 -284 -39 -291 -30 -4 4 -12 20 -18 35 -9 22 -9 29 1 32 14 5 207
21 280 24 47 1 47 1 41 -26z"/>
</g>
<g id="part-2" class="char-part">
  <path d="M480 545 c0 -43 10 -44 32 -6 18 32 15 41 -14 41 -14 0 -18 -8 -18
-35z"/>
</g>
<g id="part-3" class="char-part">
  <path d="M414 458 c3 -13 6 -35 6 -50 0 -21 5 -28 19 -28 10 0 21 9 24 19 4
16 17 21 76 27 39 3 71 11 71 17 0 6 -25 8 -70 4 -55 -5 -70 -3 -70 8 0 14
-21 25 -47 25 -11 0 -14 -6 -9 -22z"/>
</g>
<g id="part-4" class="char-part">
  <path d="M500 384 c-52 -7 -126 -13 -164 -13 -60 -1 -67 -3 -56 -16 7 -9 18
-39 25 -68 14 -62 13 -62 173 -52 l113 7 32 52 c18 28 37 57 41 64 5 8 -4 17
-28 27 -19 8 -37 14 -38 14 -2 -1 -46 -7 -98 -15z m88 -36 c-2 -16 -9 -22 -22
-21 -11 1 -66 -4 -123 -11 -57 -7 -105 -10 -108 -8 -3 3 -5 13 -5 23 0 14 13
18 78 24 42 3 84 8 92 9 8 2 32 4 53 5 34 1 38 -1 35 -21z m-17 -60 c-7 -21
-18 -24 -105 -31 -103 -9 -126 -6 -126 16 0 13 28 18 222 35 14 2 16 -2 9 -20z"/>
</g>
<g id="part-5" class="char-part">
  <path d="M448 222 c-10 -2 -18 -10 -18 -18 0 -8 -8 -14 -17 -15 -14 0 -13 -2
4 -9 19 -8 21 -16 20 -79 -1 -82 8 -102 18 -39 3 24 8 55 11 71 4 18 1 27 -8
28 -7 0 1 7 17 14 17 8 24 14 17 15 -7 0 -16 8 -20 18 -4 10 -15 16 -24 14z"/>
  <path d="M648 202 c-54 -1 -98 -6 -98 -10 0 -5 55 -9 122 -10 67 -1 120 -1
117 1 -18 16 -57 22 -141 19z"/>
  <path d="M263 173 c9 -2 25 -2 35 0 9 3 1 5 -18 5 -19 0 -27 -2 -17 -5z"/>
  <path d="M174 163 c4 -4 25 -8 46 -8 23 -1 35 2 27 7 -15 10 -83 11 -73 1z"/>
</g>
</g>
</svg>