<?xml version="1.0" standalone="no"?>
<!DOCTYPE svg PUBLIC "-//W3C//DTD SVG 20010904//EN"
 "http://www.w3.org/TR/2001/REC-SVG-20010904/DTD/svg10.dtd">
<svg version="1.0" xmlns="http://www.w3.org/2000/svg"
 width="96.000000pt" height="68.000000pt" viewBox="0 0 96.000000 68.000000"
 preserveAspectRatio="xMidYMid meet">
<metadata>
Created by potrace 1.16, written by Peter Selinger 2001-2019
Combined from part_0.svg through part_5.svg with named groups
</metadata>
<g transform="translate(0.000000,68.000000) scale(0.100000,-0.100000)" fill="#000000" stroke="none">
<g id="part-0" class="char-part">
  <path d="M490 597 c0 -21 35 -67 51 -67 31 0 23 36 -13 54 -32 17 -38 18 -38
13z"/>
  <path d="M252 531 c-12 -28 -43 -70 -68 -95 -34 -35 -44 -51 -39 -66 8 -24 15
-24 78 -5 l47 14 -17 -22 c-9 -13 -36 -38 -60 -57 -47 -38 -47 -38 -34 -59 7
-11 23 -8 90 15 68 24 84 27 101 17 26 -17 30 -16 30 6 0 18 -34 51 -52 51 -5
0 -8 -8 -8 -18 0 -14 -13 -21 -51 -30 -29 -7 -54 -11 -55 -9 -5 5 56 67 83 84
13 9 20 19 17 24 -3 5 1 9 9 9 18 0 47 32 47 52 0 17 -26 31 -41 22 -5 -3 -9
-11 -9 -19 0 -26 -31 -45 -72 -45 l-40 0 61 65 c65 70 72 88 42 105 -31 16
-35 13 -59 -39z"/>
  <path d="M595 520 c-11 -4 -59 -11 -107 -15 -97 -8 -119 -25 -33 -25 47 0 55
-3 55 -19 0 -10 -25 -42 -56 -70 -61 -56 -67 -85 -17 -79 22 2 29 -1 31 -19 4
-30 -31 -96 -80 -149 -52 -57 -26 -59 31 -3 51 51 95 133 87 164 -5 19 -1 24
22 28 15 3 30 3 34 0 5 -2 8 -43 8 -90 0 -108 17 -148 69 -163 64 -18 159 -6
189 23 13 13 12 21 -8 66 -13 27 -26 48 -30 46 -4 -3 -10 -22 -14 -43 -4 -28
-12 -42 -31 -50 -40 -18 -99 -15 -118 6 -20 22 -22 83 -5 147 11 40 10 46 -7
58 -17 13 -17 14 10 19 19 4 33 0 46 -13 26 -26 39 -24 39 5 0 24 -32 55 -72
69 -20 7 -22 3 -8 -22 8 -16 1 -19 -76 -31 -47 -7 -87 -11 -89 -9 -2 2 21 24
51 49 41 34 52 50 49 66 -4 19 1 23 43 29 70 10 92 16 92 26 0 11 -78 11 -105
-1z"/>
  <path d="M319 222 c18 -33 40 -47 54 -33 9 10 7 17 -12 32 -31 25 -55 26 -42
1z"/>
  <path d="M220 202 c0 -11 39 -52 50 -52 19 0 21 22 4 41 -17 19 -54 26 -54 11z"/>
  <path d="M110 183 c0 -13 45 -73 59 -78 18 -7 30 11 24 37 -7 26 -83 64 -83
41z"/>
</g>
<g id="part-1" class="char-part">
  <path d="M259 533 c-7 -21 -37 -64 -67 -96 -69 -72 -63 -86 28 -67 67 14 91
33 39 30 -51 -3 -65 -1 -54 8 6 4 37 35 69 69 51 53 57 64 46 77 -22 28 -47
19 -61 -21z"/>
</g>
<g id="part-2" class="char-part">
  <path d="M310 232 c0 -16 48 -54 59 -47 19 11 12 31 -14 43 -30 14 -45 15 -45
4z"/>
  <path d="M225 186 c26 -39 65 -45 65 -11 0 17 -31 35 -60 35 -19 0 -20 -1 -5
-24z"/>
  <path d="M130 145 c32 -46 53 -56 64 -30 8 23 -4 44 -35 60 -54 28 -63 19 -29
-30z"/>
</g>
<g id="part-3" class="char-part">
  <path d="M499 568 c13 -21 28 -33 42 -33 35 0 34 23 -3 45 -50 30 -64 26 -39
-12z"/>
  <path d="M600 524 c-30 -7 -88 -16 -127 -20 -87 -8 -97 -24 -15 -24 64 0 229
23 239 33 19 20 -35 26 -97 11z"/>
</g>
<g id="part-4" class="char-part">
  <path d="M510 464 c0 -10 -25 -42 -55 -70 -39 -37 -53 -57 -49 -69 5 -12 14
-15 33 -11 14 3 69 14 121 26 l95 21 14 -21 c19 -28 41 -25 41 5 0 18 -10 31
-32 45 -38 23 -70 28 -50 8 7 -7 12 -15 12 -18 0 -8 -169 -34 -176 -28 -2 3
21 27 53 53 32 26 58 52 58 59 0 6 -15 12 -32 14 -26 3 -33 0 -33 -14z"/>
</g>
<g id="part-5" class="char-part">
  <path d="M579 332 c-8 -64 -7 -106 2 -123 8 -17 8 -20 -1 -14 -9 6 -10 -1 -5
-26 16 -72 46 -90 132 -83 114 9 142 23 118 57 -8 12 -15 29 -15 39 0 9 -5 20
-12 24 -8 5 -9 2 -5 -9 4 -10 2 -17 -4 -17 -6 0 -9 -6 -6 -14 3 -7 -7 -25 -21
-39 -21 -20 -36 -25 -68 -23 -23 2 -47 7 -54 11 -9 6 -11 4 -6 -6 4 -8 0 -5
-8 5 -9 11 -16 27 -17 35 -3 58 -1 111 5 142 7 32 5 37 -13 42 -12 3 -21 2
-22 -1z"/>
</g>
</g>
</svg>