<?xml version="1.0" standalone="no"?>
<!DOCTYPE svg PUBLIC "-//W3C//DTD SVG 20010904//EN"
 "http://www.w3.org/TR/2001/REC-SVG-20010904/DTD/svg10.dtd">
<svg version="1.0" xmlns="http://www.w3.org/2000/svg"
 width="96.000000pt" height="68.000000pt" viewBox="0 0 96.000000 68.000000"
 preserveAspectRatio="xMidYMid meet">
<metadata>
Created by potrace 1.16, written by Peter Selinger 2001-2019
Combined from part_0.svg through part_5.svg with named groups
</metadata>
<g transform="translate(0.000000,68.000000) scale(0.100000,-0.100000)" fill="#000000" stroke="none">
<g id="part-0" class="char-part">
  <path d="M549 623 c0 -5 0 -29 1 -54 l1 -46 -51 -7 c-64 -8 -58 -31 6 -23 44
5 44 4 44 -28 0 -32 0 -32 -61 -39 -34 -3 -82 -6 -105 -6 -24 0 -44 -4 -44
-10 0 -13 64 -24 95 -16 21 5 27 1 45 -33 28 -56 26 -66 -17 -78 l-38 -10 58
-2 57 -1 0 -34 0 -34 -90 -8 c-49 -3 -90 -10 -90 -14 0 -13 53 -18 115 -10 33
4 63 5 68 3 4 -2 7 -38 7 -79 0 -41 4 -74 10 -74 13 0 30 67 30 123 0 26 3 46
8 46 4 -1 54 -1 112 0 97 2 103 3 85 17 -15 12 -41 15 -109 12 l-89 -3 -1 33
c-1 28 2 32 24 32 42 0 100 12 100 21 0 4 -23 9 -50 11 l-51 3 32 38 c25 31
29 40 19 52 -11 13 0 15 78 15 92 0 128 13 72 25 -17 4 -73 4 -125 0 l-95 -7
0 30 c0 30 2 32 50 38 59 8 76 24 28 25 -76 3 -73 1 -70 45 3 36 0 42 -20 48
-30 8 -38 8 -39 -1z m71 -234 c0 -30 -36 -86 -60 -92 -11 -3 -20 -1 -20 5 0
22 -33 78 -46 78 -15 0 -19 12 -7 23 3 4 35 7 70 7 58 0 63 -2 63 -21z"/>
  <path d="M297 555 c-8 -47 -66 -132 -144 -211 -36 -36 -63 -68 -60 -70 9 -10
70 28 119 73 l48 46 0 -71 c0 -39 -5 -105 -11 -147 -12 -81 -3 -125 25 -125
22 0 28 32 36 185 5 122 4 143 -11 165 -17 24 -16 25 27 81 51 66 54 86 18 99
-38 15 -41 13 -47 -25z"/>
</g>
<g id="part-1" class="char-part">
  <path d="M283 511 c-22 -47 -57 -95 -109 -150 -42 -45 -71 -81 -66 -81 12 0
98 63 126 93 19 20 19 20 28 -4 10 -27 3 -148 -13 -221 -12 -50 0 -88 26 -88
20 0 23 21 29 186 5 120 3 144 -10 155 -19 15 -15 26 38 95 40 54 41 57 23 70
-10 8 -24 14 -29 14 -6 0 -26 -31 -43 -69z"/>
</g>
<g id="part-2" class="char-part">
  <path d="M548 576 l4 -53 -57 -8 c-66 -8 -58 -25 13 -25 40 0 42 -2 42 -29 0
-27 -2 -28 -61 -35 -34 -3 -82 -6 -105 -6 -24 0 -44 -4 -44 -10 0 -16 65 -22
126 -11 32 6 132 14 222 18 89 3 162 10 162 14 0 16 -68 27 -111 18 -24 -4
-65 -8 -91 -9 -46 0 -48 1 -48 29 0 27 3 30 50 36 27 4 52 11 55 15 6 10 -48
21 -80 17 -17 -2 -20 3 -17 37 4 41 -7 56 -44 56 -19 0 -20 -4 -16 -54z"/>
</g>
<g id="part-3" class="char-part">
  <path d="M620 391 c0 -37 -36 -91 -60 -91 -13 0 -20 7 -20 19 0 20 -54 81 -71
81 -12 0 -12 1 15 -56 l24 -49 -34 -6 c-19 -3 -38 -9 -42 -14 -7 -8 187 0 251
11 57 10 44 26 -17 22 l-54 -3 35 43 c37 46 35 64 -7 67 -15 1 -20 -4 -20 -24z"/>
</g>
<g id="part-4" class="char-part">
  <path d="M542 238 c3 -32 2 -33 -42 -40 -25 -3 -66 -7 -92 -7 -27 -1 -48 -5
-48 -10 0 -10 54 -22 72 -17 7 3 37 7 66 11 l52 6 0 -81 c0 -119 27 -103 39
25 4 37 11 60 19 61 6 1 56 2 110 3 90 2 95 3 77 17 -16 13 -37 14 -112 9
l-92 -7 2 29 c2 24 -2 28 -26 31 -27 3 -28 1 -25 -30z"/>
</g>
</g>
</svg>