<?xml version="1.0" standalone="no"?>
<!DOCTYPE svg PUBLIC "-//W3C//DTD SVG 20010904//EN"
 "http://www.w3.org/TR/2001/REC-SVG-20010904/DTD/svg10.dtd">
<svg version="1.0" xmlns="http://www.w3.org/2000/svg"
 width="96.000000pt" height="68.000000pt" viewBox="0 0 96.000000 68.000000"
 preserveAspectRatio="xMidYMid meet">
<metadata>
Created by potrace 1.16, written by Peter Selinger 2001-2019
Combined from part_0.svg through part_5.svg with named groups
</metadata>
<g transform="translate(0.000000,68.000000) scale(0.100000,-0.100000)" fill="#000000" stroke="none">
<g id="part-0" class="char-part">
  <path d="M521 607 c-6 -6 -11 -15 -11 -20 0 -19 -65 -98 -97 -117 -35 -21 -42
-40 -19 -59 10 -8 21 -8 41 -1 14 5 72 19 127 31 94 19 101 20 118 4 11 -10
26 -15 35 -11 29 11 11 40 -38 65 -49 24 -75 22 -41 -4 10 -8 17 -15 14 -15
-3 0 -42 -6 -87 -14 -51 -8 -83 -9 -83 -4 0 6 20 33 45 60 25 28 45 55 45 62
0 19 -36 36 -49 23z"/>
  <path d="M255 448 c-11 -7 -50 -12 -87 -11 -38 0 -68 -2 -68 -5 0 -3 7 -13 16
-23 8 -9 22 -47 31 -83 14 -62 31 -83 48 -56 3 5 32 12 65 16 54 6 59 8 55 28
-3 11 3 39 15 61 11 21 20 47 20 56 0 29 -57 39 -95 17z m15 -55 c0 -58 -10
-73 -46 -73 -35 0 -32 -4 -48 77 0 4 13 11 29 14 58 13 65 11 65 -18z"/>
  <path d="M431 368 c-6 -17 -23 -46 -37 -65 -30 -39 -18 -43 25 -7 22 18 40 24
63 22 30 -3 33 -6 31 -36 0 -18 -4 -36 -7 -39 -3 -4 -54 -11 -113 -18 -60 -6
-101 -14 -93 -17 41 -16 54 -16 119 -4 39 8 72 11 75 8 7 -7 -19 -54 -40 -74
-11 -9 -46 -33 -79 -53 l-60 -37 40 7 c78 14 142 61 181 136 l15 29 117 0
c118 0 162 6 162 20 0 18 -58 27 -125 19 -38 -4 -87 -8 -107 -8 -36 -1 -36 0
-28 28 5 18 4 33 -2 39 -7 7 8 13 51 18 34 3 64 10 66 15 11 18 -60 20 -126 4
-73 -18 -90 -16 -69 10 10 12 8 16 -15 25 -34 13 -31 15 -44 -22z"/>
  <path d="M670 110 c39 -33 78 -60 86 -60 25 0 16 47 -13 68 -26 18 -115 52
-136 52 -5 0 24 -27 63 -60z"/>
</g>
<g id="part-1" class="char-part">
  <path d="M255 444 c-23 -9 -63 -14 -93 -12 -28 2 -52 2 -52 0 0 -1 7 -13 15
-25 8 -13 19 -47 25 -77 12 -63 26 -83 41 -57 7 12 23 17 52 17 48 0 61 7 65
35 2 11 13 40 24 64 21 43 21 44 3 57 -23 17 -29 17 -80 -2z m19 -71 c-3 -27
-7 -49 -8 -49 0 -1 -18 -4 -38 -8 -36 -7 -37 -6 -47 31 -18 65 -15 68 67 72
l33 1 -7 -47z"/>
</g>
<g id="part-2" class="char-part">
  <path d="M506 580 c-10 -22 -42 -61 -72 -88 -56 -49 -63 -62 -41 -81 10 -8 27
-7 63 3 27 8 84 22 127 31 72 16 79 16 96 1 24 -22 51 -20 51 2 0 22 -26 47
-57 56 -13 3 -33 9 -45 12 -22 6 -23 6 -5 -13 17 -20 17 -21 -7 -27 -14 -3
-54 -9 -88 -13 l-62 -6 44 47 c56 59 67 81 50 101 -20 24 -35 18 -54 -25z"/>
</g>
<g id="part-3" class="char-part">
  <path d="M432 370 c-6 -16 -23 -46 -38 -65 -31 -41 -17 -46 30 -10 18 14 46
25 62 25 45 1 192 24 199 32 16 16 -65 18 -133 4 -89 -19 -92 -19 -67 0 20 15
20 15 1 30 -29 21 -43 17 -54 -16z"/>
</g>
<g id="part-4" class="char-part">
  <path d="M529 323 c-12 -3 -16 -15 -15 -41 1 -36 0 -37 -44 -44 -25 -4 -75
-10 -113 -14 -37 -3 -65 -9 -62 -14 9 -15 61 -17 130 -5 39 6 71 11 73 9 2 -1
-4 -16 -13 -33 -17 -34 -80 -85 -135 -109 -44 -19 -25 -27 29 -12 55 14 121
67 149 118 l23 42 127 1 c70 0 136 4 147 9 18 7 16 10 -17 24 -28 12 -48 14
-85 7 -43 -8 -119 -14 -150 -12 -9 1 -10 8 -3 27 6 14 10 27 10 29 0 9 -36 21
-51 18z"/>
  <path d="M670 110 c39 -33 78 -60 86 -60 25 0 16 47 -13 68 -22 16 -121 52
-141 52 -2 0 29 -27 68 -60z"/>
</g>
</g>
</svg>