<?xml version="1.0" standalone="no"?>
<!DOCTYPE svg PUBLIC "-//W3C//DTD SVG 20010904//EN"
 "http://www.w3.org/TR/2001/REC-SVG-20010904/DTD/svg10.dtd">
<svg version="1.0" xmlns="http://www.w3.org/2000/svg"
 width="96.000000pt" height="68.000000pt" viewBox="0 0 96.000000 68.000000"
 preserveAspectRatio="xMidYMid meet">
<metadata>
Created by potrace 1.16, written by Peter Selinger 2001-2019
Combined from part_0.svg through part_5.svg with named groups
</metadata>
<g transform="translate(0.000000,68.000000) scale(0.100000,-0.100000)" fill="#000000" stroke="none">
<g id="part-0" class="char-part">
  <path d="M245 569 c10 -23 77 -69 102 -69 18 0 23 5 23 25 0 28 -26 43 -93 52
-29 5 -36 3 -32 -8z"/>
  <path d="M576 542 c-3 -5 -1 -24 4 -43 6 -19 10 -100 10 -180 l0 -147 -35 -4
c-55 -6 -58 0 -53 101 4 93 1 101 -38 101 -10 0 -13 -11 -9 -42 2 -24 7 -71
10 -105 l5 -63 -33 -1 c-17 -1 -43 -4 -57 -9 l-25 -7 30 -12 c23 -9 49 -10
110 -2 44 6 142 14 218 17 75 3 137 10 137 14 0 19 -70 31 -144 24 l-77 -7 2
80 1 80 66 6 c35 4 67 9 71 12 10 11 -24 25 -48 20 -13 -3 -37 -9 -54 -12
l-30 -6 5 82 c3 52 1 84 -6 90 -19 15 -54 22 -60 13z"/>
  <path d="M260 419 c-36 -10 -80 -18 -97 -18 -18 -1 -33 -5 -33 -10 0 -17 56
-22 90 -8 47 19 100 28 100 18 0 -17 -111 -145 -158 -184 -65 -54 -71 -60 -47
-51 31 12 90 50 131 86 l37 33 -7 -80 c-9 -107 -8 -125 6 -142 24 -29 38 14
38 119 0 97 6 112 30 83 16 -19 36 -19 43 -1 4 10 -7 21 -34 32 -21 10 -39 23
-39 30 0 6 18 28 41 49 22 20 39 38 37 39 -12 11 -49 26 -60 25 -7 -1 -42 -10
-78 -20z"/>
</g>
<g id="part-1" class="char-part">
  <path d="M279 540 c49 -45 84 -50 89 -13 3 22 -21 34 -98 48 l-35 6 44 -41z"/>
</g>
<g id="part-2" class="char-part">
  <path d="M302 371 c-50 -65 -142 -159 -192 -194 l-25 -18 25 7 c31 8 111 58
135 84 10 11 22 20 27 20 10 0 10 -71 -1 -129 -10 -47 2 -91 24 -91 18 0 25
34 25 131 0 47 3 89 7 92 3 4 14 0 24 -9 21 -19 51 -12 43 10 -3 8 -24 21 -47
29 l-42 14 48 43 c26 24 47 46 47 50 0 4 -11 12 -23 17 -22 10 -28 6 -75 -56z"/>
</g>
<g id="part-3" class="char-part">
  <path d="M575 528 c4 -13 10 -97 14 -188 5 -137 9 -165 21 -165 12 0 16 18 20
80 l5 80 65 8 c71 9 75 11 65 27 -4 6 -19 9 -36 6 -16 -3 -43 -9 -60 -12 l-32
-6 5 87 c6 85 5 86 -19 96 -42 16 -56 12 -48 -13z"/>
</g>
<g id="part-4" class="char-part">
  <path d="M454 334 c3 -22 8 -69 12 -106 4 -47 10 -68 19 -68 10 0 14 25 17 98
2 53 4 98 3 99 0 1 -13 5 -28 8 -27 7 -28 7 -23 -31z"/>
</g>
<g id="part-5" class="char-part">
  <path d="M755 179 c-22 -4 -48 -5 -59 -2 -11 3 -16 1 -12 -5 3 -6 -17 -8 -54
-6 -57 4 -130 -13 -102 -23 7 -3 20 -2 30 2 9 4 77 6 150 5 72 0 132 1 132 3
0 3 -10 11 -22 19 -16 10 -35 12 -63 7z"/>
  <path d="M425 151 c-47 -5 -55 -8 -35 -13 36 -11 90 -10 90 2 0 5 7 7 15 4 8
-4 15 -1 15 5 0 6 -6 10 -12 9 -7 -1 -40 -4 -73 -7z"/>
</g>
</g>
</svg>