<?xml version="1.0" standalone="no"?>
<!DOCTYPE svg PUBLIC "-//W3C//DTD SVG 20010904//EN"
 "http://www.w3.org/TR/2001/REC-SVG-20010904/DTD/svg10.dtd">
<svg version="1.0" xmlns="http://www.w3.org/2000/svg"
 width="96.000000pt" height="68.000000pt" viewBox="0 0 96.000000 68.000000"
 preserveAspectRatio="xMidYMid meet">
<metadata>
Created by potrace 1.16, written by Peter Selinger 2001-2019
Combined from part_0.svg through part_5.svg with named groups
</metadata>
<g transform="translate(0.000000,68.000000) scale(0.100000,-0.100000)" fill="#000000" stroke="none">
<g id="part-0" class="char-part">
  <path d="M530 596 c0 -8 -20 -44 -44 -80 -24 -36 -40 -66 -34 -66 14 0 70 41
86 62 10 14 27 18 76 18 35 0 78 3 95 6 33 7 43 33 14 35 -26 2 -23 2 -81 -5
-38 -5 -52 -4 -47 4 4 6 1 17 -5 25 -16 19 -60 20 -60 1z"/>
  <path d="M280 555 c-12 -25 -42 -66 -67 -90 -61 -61 -29 -60 49 1 55 43 61 45
116 43 32 -1 66 2 77 8 17 10 17 11 -4 22 -16 9 -35 10 -67 3 -44 -10 -45 -9
-28 9 14 15 14 21 4 34 -25 30 -57 18 -80 -30z"/>
  <path d="M588 479 c33 -30 62 -35 69 -13 7 21 -28 44 -65 44 l-37 -1 33 -30z"/>
  <path d="M310 483 c0 -18 49 -56 64 -50 17 7 22 32 9 40 -18 11 -73 18 -73 10z"/>
  <path d="M562 402 c-7 -21 -28 -59 -48 -85 -20 -26 -35 -49 -32 -52 2 -2 20 9
40 25 30 25 47 30 116 36 44 4 86 10 93 15 28 17 -4 22 -74 12 -39 -5 -74 -8
-76 -6 -3 2 9 17 25 34 28 30 28 31 10 45 -31 22 -42 17 -54 -24z"/>
  <path d="M335 404 c-38 -8 -77 -13 -85 -11 -13 3 -15 -13 -15 -105 0 -82 3
-109 14 -113 7 -3 19 0 27 6 7 6 50 12 96 14 91 5 120 18 47 23 -41 3 -46 6
-42 22 6 21 36 35 53 25 5 -3 10 3 10 13 0 11 7 25 15 32 13 11 13 14 -2 26
-10 7 -31 14 -46 14 -42 0 -32 33 11 40 18 3 33 10 33 15 0 15 -38 15 -116 -1z
m15 -43 c0 -18 -25 -31 -62 -31 -13 0 -18 8 -18 25 0 23 4 25 40 25 33 0 40
-4 40 -19z m60 -51 c0 -21 -9 -24 -93 -35 -47 -6 -48 -5 -45 17 2 19 11 24 48
29 84 11 90 10 90 -11z m-70 -77 c0 -20 -5 -23 -40 -23 -32 0 -40 4 -40 18 0
25 3 27 44 28 31 0 36 -3 36 -23z"/>
  <path d="M625 253 c-11 -2 -31 -6 -44 -9 -16 -3 -21 -8 -14 -15 7 -7 33 -6 78
2 45 8 63 14 54 20 -14 9 -39 10 -74 2z"/>
  <path d="M548 170 c-65 -11 -204 -23 -252 -21 -38 1 -38 0 -22 -18 9 -10 20
-35 23 -55 l6 -36 -78 0 c-57 0 -76 -3 -72 -12 4 -14 -2 -14 395 -3 139 4 255
12 258 16 10 16 -50 31 -103 26 -44 -5 -53 -3 -53 11 0 8 10 27 23 40 l22 24
-24 19 c-25 20 -46 22 -123 9z m-48 -76 c0 -40 -2 -44 -25 -44 -14 0 -27 6
-29 12 -2 7 -8 27 -13 45 -11 31 -10 32 21 35 44 5 46 2 46 -48z m120 42 c0
-39 -22 -74 -52 -80 -42 -8 -50 0 -32 35 8 17 13 37 10 45 -4 11 4 14 34 14
27 0 40 -4 40 -14z m-215 -42 c8 -20 13 -39 11 -43 -3 -4 -22 -5 -44 -3 -36 4
-40 7 -45 35 -5 35 5 47 40 47 17 0 27 -10 38 -36z"/>
</g>
<g id="part-1" class="char-part">
  <path d="M527 581 c-3 -15 -22 -49 -41 -75 -44 -57 -25 -61 34 -7 42 38 44 39
123 40 45 0 85 5 91 11 17 17 -23 23 -87 12 -69 -11 -76 -9 -57 13 10 12 8 16
-15 25 -38 15 -42 13 -48 -19z"/>
  <path d="M292 568 c-6 -19 -35 -59 -63 -91 -28 -31 -46 -57 -40 -57 6 0 35 20
65 45 51 41 60 45 113 46 32 0 67 4 78 9 19 7 19 8 2 15 -10 4 -40 4 -68 1
l-50 -7 22 22 c23 23 18 34 -21 44 -22 5 -27 2 -38 -27z"/>
  <path d="M570 505 c0 -12 45 -44 63 -45 17 0 24 25 10 33 -16 9 -73 18 -73 12z"/>
  <path d="M329 460 c26 -22 46 -25 57 -9 9 15 -15 29 -51 29 l-30 -1 24 -19z"/>
</g>
<g id="part-2" class="char-part">
  <path d="M340 405 c-36 -7 -74 -11 -85 -9 -19 5 -20 0 -19 -108 1 -127 -6
-119 84 -99 25 6 69 10 98 11 36 0 51 4 46 11 -4 8 -37 9 -106 4 l-99 -7 7 52
c4 29 7 67 8 84 1 31 1 31 71 38 99 11 123 17 104 29 -17 11 -28 10 -109 -6z"/>
</g>
<g id="part-3" class="char-part">
  <path d="M591 248 c-60 -13 -34 -30 34 -22 73 8 91 14 74 25 -17 11 -51 10
-108 -3z"/>
</g>
<g id="part-4" class="char-part">
  <path d="M502 113 c1 -57 -1 -63 -27 -63 -26 0 -29 4 -39 53 -4 18 -13 27 -26
27 -18 0 -18 -2 -4 -35 7 -19 14 -36 14 -39 0 -7 -149 -20 -204 -18 -27 1 -56
-3 -65 -8 -25 -14 28 -23 101 -16 35 3 171 8 303 12 132 3 244 10 249 15 5 5
-3 13 -20 19 -21 8 -61 9 -144 2 -63 -6 -116 -9 -118 -7 -2 2 4 17 12 34 22
41 20 51 -8 51 -20 0 -25 -5 -24 -27z"/>
</g>
</g>
</svg>