<?xml version="1.0" standalone="no"?>
<!DOCTYPE svg PUBLIC "-//W3C//DTD SVG 20010904//EN"
 "http://www.w3.org/TR/2001/REC-SVG-20010904/DTD/svg10.dtd">
<svg version="1.0" xmlns="http://www.w3.org/2000/svg"
 width="96.000000pt" height="68.000000pt" viewBox="0 0 96.000000 68.000000"
 preserveAspectRatio="xMidYMid meet">
<metadata>
Created by potrace 1.16, written by Peter Selinger 2001-2019
Combined from part_0.svg through part_5.svg with named groups
</metadata>
<g transform="translate(0.000000,68.000000) scale(0.100000,-0.100000)" fill="#000000" stroke="none">
<g id="part-0" class="char-part">
  <path d="M530 601 c0 -7 9 -22 21 -34 l20 -22 -65 -9 c-36 -5 -66 -13 -66 -18
0 -4 8 -8 18 -8 16 0 25 -12 60 -81 2 -4 -25 -10 -59 -14 -51 -6 -59 -9 -44
-18 14 -7 43 -7 100 1 45 7 108 12 141 12 73 0 134 10 134 21 0 5 -34 9 -76 9
l-75 0 21 30 c18 25 19 34 10 45 -11 13 -8 15 19 15 17 0 31 5 31 10 0 17 -23
21 -73 11 -40 -7 -47 -6 -47 8 0 25 -13 39 -43 46 -18 5 -27 3 -27 -4z m100
-106 c0 -45 -17 -65 -54 -65 -28 0 -33 3 -30 18 3 9 -4 27 -15 38 -11 12 -18
23 -16 25 2 2 28 5 59 7 55 3 56 2 56 -23z"/>
  <path d="M205 578 c4 -13 10 -51 12 -85 l5 -63 -51 0 -50 0 6 -35 c3 -19 0
-55 -7 -79 -8 -28 -9 -50 -3 -61 17 -29 33 7 40 83 5 63 8 71 29 75 13 2 26 2
29 -1 8 -8 5 -127 -5 -236 -8 -85 -8 -103 6 -124 15 -23 17 -23 32 -8 12 12
17 33 16 74 -1 31 1 114 4 185 l4 127 29 0 29 0 0 -76 0 -76 -26 5 -25 4 22
-23 c47 -50 72 -17 73 101 l1 80 -54 -2 -54 -3 6 71 c6 68 5 70 -19 79 -43 17
-57 13 -49 -12z"/>
  <path d="M615 370 c-27 -5 -79 -9 -114 -9 -56 -1 -62 -3 -51 -16 7 -9 18 -39
25 -68 11 -49 14 -52 46 -57 21 -3 35 -11 37 -21 2 -13 -11 -17 -59 -23 -34
-3 -77 -6 -96 -6 -23 0 -32 -4 -27 -11 5 -8 34 -10 95 -5 l89 7 0 -76 c0 -59
3 -75 15 -75 15 0 23 32 27 110 l3 45 113 3 c62 1 112 7 112 12 0 17 -50 23
-135 16 -78 -7 -83 -6 -88 14 -5 20 -2 21 41 18 l46 -3 27 65 26 65 -21 12
c-23 14 -38 14 -111 3z m62 -61 c-2 -22 -8 -44 -13 -48 -5 -5 -41 -11 -80 -15
-60 -5 -73 -3 -78 10 -10 27 3 34 64 34 61 0 93 7 85 19 -2 4 -28 4 -57 0 -91
-13 -108 -11 -108 10 0 21 21 26 133 29 l58 2 -4 -41z"/>
</g>
<g id="part-1" class="char-part">
  <path d="M218 398 c2 -106 -1 -220 -6 -253 -10 -62 0 -105 24 -105 21 0 23 24
24 224 1 107 5 219 9 250 8 60 1 76 -34 76 -20 0 -20 -4 -17 -192z"/>
</g>
<g id="part-2" class="char-part">
  <path d="M250 439 c-25 -4 -65 -8 -89 -8 -40 -1 -43 -2 -37 -25 3 -13 1 -48
-4 -77 -10 -53 -6 -89 10 -89 13 0 30 67 30 118 0 50 9 55 108 66 l63 7 -3
-73 c-3 -69 -4 -73 -26 -71 -23 3 -23 3 -5 -22 22 -29 49 -32 62 -6 16 30 30
164 19 179 -11 13 -58 14 -128 1z"/>
</g>
<g id="part-3" class="char-part">
  <path d="M526 598 c4 -7 14 -21 22 -31 8 -9 13 -19 10 -22 -2 -3 -32 -8 -66
-11 -97 -11 -64 -28 37 -20 158 12 191 18 191 33 0 12 -11 14 -59 8 -56 -6
-59 -6 -65 18 -3 14 -16 27 -28 31 -36 9 -50 7 -42 -6z"/>
</g>
<g id="part-4" class="char-part">
  <path d="M627 479 c-3 -22 -7 -42 -9 -44 -1 -2 -18 -5 -37 -7 -30 -3 -35 0
-36 19 -2 26 -32 63 -52 63 -18 0 -16 -9 7 -48 11 -18 20 -34 20 -37 0 -2 -28
-7 -61 -11 -49 -5 -58 -9 -43 -17 12 -7 45 -6 105 1 47 7 111 12 140 12 73 0
130 10 123 22 -3 5 -34 9 -67 8 -34 -1 -66 -1 -70 -1 -5 1 1 14 13 31 23 32
20 50 -9 50 -14 0 -20 -10 -24 -41z"/>
</g>
<g id="part-5" class="char-part">
  <path d="M564 194 c6 -24 5 -26 -18 -22 -15 3 -26 1 -26 -3 0 -5 9 -9 20 -9
11 0 20 -7 20 -15 0 -8 5 -15 10 -15 6 0 10 -8 10 -17 0 -16 -2 -16 -11 -3 -8
12 -9 11 -5 -5 3 -11 7 -34 8 -52 1 -17 6 -29 11 -26 5 3 6 19 3 35 -3 18 -2
27 4 23 6 -4 10 12 10 38 l0 44 47 6 c26 3 72 3 102 -1 43 -4 53 -2 49 9 -5
15 -39 17 -132 7 -52 -6 -59 -5 -63 13 -3 11 -14 19 -25 19 -17 0 -19 -4 -14
-26z"/>
  <path d="M425 160 l-30 -8 30 -1 c17 0 37 4 45 9 13 9 13 10 0 9 -8 -1 -28 -5
-45 -9z"/>
</g>
</g>
</svg>