<?xml version="1.0" standalone="no"?>
<!DOCTYPE svg PUBLIC "-//W3C//DTD SVG 20010904//EN"
 "http://www.w3.org/TR/2001/REC-SVG-20010904/DTD/svg10.dtd">
<svg version="1.0" xmlns="http://www.w3.org/2000/svg"
 width="96.000000pt" height="68.000000pt" viewBox="0 0 96.000000 68.000000"
 preserveAspectRatio="xMidYMid meet">
<metadata>
Created by potrace 1.16, written by Peter Selinger 2001-2019
Combined from part_0.svg through part_5.svg with named groups
</metadata>
<g transform="translate(0.000000,68.000000) scale(0.100000,-0.100000)" fill="#000000" stroke="none">
<g id="part-0" class="char-part">
  <path d="M408 526 c-114 -12 -210 -25 -214 -29 -4 -3 5 -12 20 -18 21 -10 52
-10 134 -2 59 6 110 9 114 6 9 -5 2 -14 -72 -92 -30 -32 -75 -71 -100 -87 -25
-16 -47 -32 -50 -35 -3 -4 -25 -17 -50 -29 -25 -13 -39 -25 -32 -28 25 -8 203
93 261 148 35 34 42 13 39 -121 l-3 -117 -97 -7 c-98 -7 -116 -15 -78 -35 15
-8 48 -7 124 5 57 8 151 15 210 15 58 0 106 4 106 9 0 20 -73 33 -146 27 l-74
-7 0 33 c0 18 3 70 6 114 l7 81 56 -37 c99 -65 147 -90 174 -90 35 0 34 9 -3
47 -19 20 -59 41 -108 58 -121 43 -162 59 -162 67 0 3 14 18 30 31 32 27 38
46 18 48 -23 3 106 17 165 18 65 1 79 22 26 40 -40 14 -48 13 -301 -13z"/>
</g>
<g id="part-1" class="char-part">
  <path d="M450 524 c-262 -26 -265 -27 -225 -43 22 -9 50 -9 115 -1 47 6 152
13 233 17 130 5 170 13 154 29 -18 18 -86 18 -277 -2z"/>
</g>
<g id="part-2" class="char-part">
  <path d="M460 476 c0 -27 -144 -157 -234 -212 -53 -32 -81 -54 -69 -54 31 0
150 64 223 119 45 34 67 46 73 38 4 -7 7 -61 5 -122 -3 -106 -2 -110 18 -113
21 -3 22 2 29 107 4 61 9 111 11 111 2 0 34 -20 71 -44 92 -59 127 -76 158
-76 33 0 32 10 -9 49 -23 23 -62 42 -122 62 -103 35 -144 52 -144 60 0 3 13
18 30 34 23 22 27 32 19 42 -15 18 -59 17 -59 -1z"/>
</g>
<g id="part-3" class="char-part">
  <path d="M413 121 c-83 -9 -154 -19 -158 -22 -3 -4 8 -12 25 -19 25 -10 42
-11 81 -2 27 7 119 15 204 18 85 4 155 10 155 14 0 15 -54 30 -103 29 -29 -1
-120 -9 -204 -18z"/>
</g>
</g>
</svg>