<?xml version="1.0" standalone="no"?>
<!DOCTYPE svg PUBLIC "-//W3C//DTD SVG 20010904//EN"
 "http://www.w3.org/TR/2001/REC-SVG-20010904/DTD/svg10.dtd">
<svg version="1.0" xmlns="http://www.w3.org/2000/svg"
 width="96.000000pt" height="68.000000pt" viewBox="0 0 96.000000 68.000000"
 preserveAspectRatio="xMidYMid meet">
<metadata>
Created by potrace 1.16, written by Peter Selinger 2001-2019
Combined from part_0.svg through part_5.svg with named groups
</metadata>
<g transform="translate(0.000000,68.000000) scale(0.100000,-0.100000)" fill="#000000" stroke="none">
<g id="part-0" class="char-part">
  <path d="M635 565 c-5 -2 -52 -9 -102 -16 -129 -18 -119 -33 15 -25 124 9 172
17 175 31 2 10 -67 18 -88 10z"/>
  <path d="M246 500 c-16 -33 -44 -74 -62 -90 -34 -30 -44 -65 -21 -73 6 -2 27
2 46 9 40 17 41 17 41 4 0 -11 -70 -80 -82 -80 -4 0 -8 -6 -8 -14 0 -24 34
-27 75 -6 53 27 105 36 115 20 9 -15 30 -5 30 15 0 15 -37 45 -56 45 -7 0 -11
-7 -10 -16 1 -16 -71 -50 -83 -39 -3 3 30 41 72 83 56 57 76 83 71 95 -10 27
-29 20 -55 -20 -18 -28 -33 -39 -63 -45 -21 -5 -40 -7 -42 -6 -1 2 26 33 60
70 58 63 62 69 49 88 -25 35 -46 24 -77 -40z"/>
  <path d="M650 475 c-8 -19 -24 -45 -37 -57 -23 -21 -31 -48 -15 -48 5 0 32 7
60 15 39 12 57 13 72 5 16 -9 22 -8 26 5 8 19 -10 41 -37 48 -16 4 -19 2 -14
-13 4 -12 -1 -19 -17 -24 -57 -15 -61 -4 -18 45 31 35 34 52 9 57 -9 2 -20
-11 -29 -33z"/>
  <path d="M473 482 c-3 -9 -21 -38 -40 -65 -51 -72 -46 -78 41 -52 28 8 58 13
68 9 21 -6 25 15 6 34 -15 15 -42 16 -32 1 3 -6 0 -15 -7 -20 -15 -10 -69 -12
-69 -3 0 3 16 22 35 42 38 41 43 57 20 66 -10 3 -18 -1 -22 -12z"/>
  <path d="M610 345 c-52 -8 -121 -17 -153 -21 -40 -5 -55 -10 -48 -17 8 -8 49
-7 133 2 68 6 150 14 183 17 59 6 73 10 64 19 -12 12 -94 12 -179 0z"/>
  <path d="M605 270 c-16 -4 -54 -8 -82 -9 l-53 -1 0 -94 c0 -94 9 -121 33 -97
6 6 39 11 74 11 52 0 65 -3 75 -20 18 -29 46 -25 55 8 3 15 7 63 7 107 1 104
-16 119 -109 95z m60 -50 c0 -23 -4 -25 -78 -36 l-78 -10 3 30 c3 35 29 45
108 43 41 -2 45 -4 45 -27z m5 -69 c0 -46 -9 -51 -86 -51 l-74 0 0 29 c0 33
-10 30 133 39 21 2 27 -2 27 -17z"/>
  <path d="M330 210 c21 -30 40 -32 40 -5 0 15 -29 35 -50 35 -6 0 -2 -14 10
-30z"/>
  <path d="M235 199 c13 -23 48 -59 57 -59 12 0 10 24 -4 42 -17 21 -64 36 -53
17z"/>
  <path d="M161 158 c15 -29 40 -58 49 -58 21 0 17 33 -5 56 -32 32 -61 33 -44
2z"/>
</g>
<g id="part-1" class="char-part">
  <path d="M255 505 c-15 -30 -44 -71 -66 -92 -64 -61 -50 -84 36 -57 62 20 74
36 20 27 -19 -3 -35 -3 -35 1 0 4 27 36 61 72 59 63 60 66 43 85 -9 10 -21 19
-25 19 -5 0 -20 -25 -34 -55z"/>
</g>
<g id="part-2" class="char-part">
  <path d="M310 232 c0 -10 43 -52 53 -52 16 0 6 40 -12 50 -24 12 -41 13 -41 2z"/>
  <path d="M235 199 c13 -23 48 -59 57 -59 13 0 9 36 -4 48 -7 5 -24 13 -37 17
-18 5 -22 4 -16 -6z"/>
  <path d="M150 180 c0 -18 45 -80 58 -80 19 0 26 28 11 46 -18 22 -69 47 -69
34z"/>
</g>
<g id="part-3" class="char-part">
  <path d="M650 566 c-3 -2 -53 -10 -112 -17 -143 -16 -134 -34 11 -25 122 8
171 17 174 31 2 10 -65 20 -73 11z"/>
</g>
<g id="part-4" class="char-part">
  <path d="M466 476 c-3 -14 -22 -45 -41 -70 -43 -56 -33 -65 49 -41 42 12 60
14 70 6 22 -18 28 14 7 33 -22 20 -42 21 -35 1 4 -10 -3 -16 -23 -20 -15 -4
-34 -8 -40 -11 -23 -6 -14 15 23 56 22 24 34 46 30 55 -9 23 -33 18 -40 -9z"/>
</g>
<g id="part-5" class="char-part">
  <path d="M630 270 c-13 -8 -12 -10 3 -10 9 0 17 5 17 10 0 12 -1 12 -20 0z"/>
  <path d="M678 263 c6 -2 12 -9 12 -14 0 -6 -4 -8 -8 -5 -4 2 -9 -19 -10 -47
-1 -31 3 -54 11 -59 9 -6 9 -8 0 -8 -7 0 -10 -7 -7 -15 6 -13 -6 -20 -28 -16
-14 2 -8 -17 13 -40 11 -13 17 -18 13 -10 -5 11 -3 13 9 8 19 -7 20 -3 21 123
1 71 -6 91 -29 89 -5 0 -4 -3 3 -6z"/>
  <path d="M588 253 c7 -3 16 -2 19 1 4 3 -2 6 -13 5 -11 0 -14 -3 -6 -6z"/>
  <path d="M476 236 c9 -24 11 -105 2 -100 -4 3 -8 1 -8 -4 0 -5 9 -12 21 -15
18 -5 20 -2 15 19 -5 18 -2 24 11 24 15 0 15 2 -3 15 -10 8 -14 15 -9 15 6 0
3 5 -5 11 -11 8 -12 12 -2 16 19 8 14 33 -8 33 -13 0 -17 -5 -14 -14z"/>
  <path d="M582 180 c-52 -12 -50 -21 4 -14 56 8 95 24 54 23 -14 -1 -40 -5 -58
-9z"/>
  <path d="M470 97 c0 -18 22 -35 27 -21 2 5 20 8 41 6 20 -2 48 1 62 6 20 8 13
10 -35 9 -33 -1 -68 2 -77 7 -13 6 -18 4 -18 -7z"/>
</g>
</g>
</svg>