<?xml version="1.0" standalone="no"?>
<!DOCTYPE svg PUBLIC "-//W3C//DTD SVG 20010904//EN"
 "http://www.w3.org/TR/2001/REC-SVG-20010904/DTD/svg10.dtd">
<svg version="1.0" xmlns="http://www.w3.org/2000/svg"
 width="96.000000pt" height="68.000000pt" viewBox="0 0 96.000000 68.000000"
 preserveAspectRatio="xMidYMid meet">
<metadata>
Created by potrace 1.16, written by Peter Selinger 2001-2019
Combined from part_0.svg through part_5.svg with named groups
</metadata>
<g transform="translate(0.000000,68.000000) scale(0.100000,-0.100000)" fill="#000000" stroke="none">
<g id="part-0" class="char-part">
  <path d="M470 585 c-36 -8 -90 -18 -120 -22 -53 -8 -54 -9 -31 -22 23 -13 55
-10 201 16 24 4 24 3 -9 -31 -19 -20 -44 -36 -55 -36 -19 -1 -19 -1 -3 -11 9
-5 17 -16 17 -24 0 -18 -18 -23 -110 -30 -41 -3 -95 -8 -120 -12 l-45 -6 32
-13 c28 -12 42 -12 95 1 35 8 82 15 106 15 40 0 42 -2 42 -29 0 -38 -22 -56
-49 -41 -29 15 -26 4 9 -33 l30 -32 -43 -8 c-23 -4 -72 -6 -110 -5 -68 3 -75
0 -57 -18 14 -14 50 -131 42 -138 -3 -3 -45 -6 -94 -6 -84 0 -113 -11 -67 -25
11 -4 110 -1 219 6 110 6 262 10 339 7 77 -3 143 -3 146 0 2 3 0 11 -6 19 -8
9 -38 13 -100 13 -49 0 -89 2 -89 5 0 8 42 80 57 97 9 10 13 24 9 33 -12 33
-76 39 -200 20 -23 -4 -26 -2 -17 8 9 12 19 65 20 120 1 15 14 17 126 17 126
0 154 9 98 31 -26 10 -49 9 -185 -7 -44 -6 -48 -4 -48 15 0 15 18 29 75 56 41
20 75 40 75 45 0 15 -57 40 -87 39 -15 -1 -57 -7 -93 -14z m154 -333 c3 -4 -2
-36 -11 -69 -15 -60 -16 -62 -55 -68 -22 -4 -42 -4 -46 -1 -3 4 2 28 12 54 10
26 21 57 23 70 4 17 12 22 39 22 18 0 35 -4 38 -8z m-127 -42 c1 -19 -1 -50
-4 -67 -4 -27 -10 -33 -29 -33 -28 0 -30 4 -38 83 l-6 58 37 -3 c36 -3 38 -5
40 -38z m-108 -7 c6 -21 11 -50 11 -65 0 -25 -4 -28 -34 -28 -31 0 -34 3 -45
44 -19 76 -16 86 24 86 31 0 35 -3 44 -37z"/>
</g>
<g id="part-1" class="char-part">
  <path d="M475 579 c-44 -9 -100 -18 -125 -18 -43 -2 -44 -2 -25 -17 12 -9 30
-13 45 -10 83 18 161 28 167 22 4 -3 -9 -22 -27 -41 -19 -19 -30 -35 -26 -35
17 0 156 72 156 81 0 10 -62 40 -77 38 -4 -1 -44 -10 -88 -20z"/>
</g>
<g id="part-2" class="char-part">
  <path d="M447 482 c6 -4 13 -16 15 -27 3 -17 -4 -21 -52 -27 -30 -3 -87 -6
-127 -7 -77 -1 -101 -15 -57 -31 20 -8 47 -7 102 5 41 8 89 15 108 15 29 0 34
-4 34 -23 0 -13 -6 -31 -13 -41 -11 -16 -17 -17 -36 -6 -37 19 -33 6 10 -36
l40 -39 20 24 c13 16 19 39 19 77 l0 54 130 0 c72 0 130 4 130 9 0 5 -14 14
-30 21 -24 10 -50 10 -118 1 -117 -15 -122 -14 -122 8 0 19 -19 31 -48 31 -11
0 -13 -3 -5 -8z"/>
</g>
<g id="part-3" class="char-part">
  <path d="M480 274 c-74 -8 -161 -13 -193 -10 -61 4 -68 0 -38 -26 11 -9 25
-41 32 -72 10 -45 16 -56 32 -56 15 0 18 5 13 23 -3 12 -9 41 -12 65 -7 41 -6
42 22 42 16 0 83 5 148 11 65 5 124 8 131 5 10 -4 10 -17 -1 -63 -17 -74 -18
-73 5 -73 13 0 30 21 56 67 31 56 34 68 22 80 -21 21 -70 23 -217 7z"/>
</g>
<g id="part-4" class="char-part">
  <path d="M496 179 c-7 -69 -8 -70 -34 -67 -15 2 -28 10 -29 18 -14 110 -14
110 -34 110 -15 0 -19 -5 -15 -17 3 -10 10 -39 14 -64 l9 -46 -81 -7 c-45 -3
-111 -6 -148 -6 -68 0 -91 -14 -43 -26 13 -3 82 -2 152 4 71 5 224 9 341 8
116 0 212 2 212 5 0 4 -7 12 -15 19 -11 9 -54 11 -165 8 -83 -3 -150 -1 -150
3 0 5 9 32 20 60 21 56 19 69 -9 69 -15 0 -20 -12 -25 -71z"/>
</g>
</g>
</svg>