<?xml version="1.0" standalone="no"?>
<!DOCTYPE svg PUBLIC "-//W3C//DTD SVG 20010904//EN"
 "http://www.w3.org/TR/2001/REC-SVG-20010904/DTD/svg10.dtd">
<svg version="1.0" xmlns="http://www.w3.org/2000/svg"
 width="96.000000pt" height="68.000000pt" viewBox="0 0 96.000000 68.000000"
 preserveAspectRatio="xMidYMid meet">
<metadata>
Created by potrace 1.16, written by Peter Selinger 2001-2019
Combined from part_0.svg through part_5.svg with named groups
</metadata>
<g transform="translate(0.000000,68.000000) scale(0.100000,-0.100000)" fill="#000000" stroke="none">
<g id="part-0" class="char-part">
  <path d="M540 528 c0 -74 -5 -83 -47 -92 -44 -10 -55 -2 -42 32 8 21 7 29 -7
39 -27 20 -34 16 -34 -17 0 -16 -5 -41 -12 -55 -19 -42 2 -53 58 -32 67 25 85
7 39 -38 -21 -21 -33 -25 -89 -25 -36 0 -68 -5 -71 -10 -11 -18 21 -22 96 -11
64 9 74 8 85 -7 34 -44 5 -62 -94 -62 -42 0 -44 -1 -30 -17 9 -10 23 -35 31
-55 14 -34 18 -36 44 -29 48 12 58 8 61 -25 3 -28 0 -32 -29 -38 -17 -3 -60
-6 -95 -6 -67 0 -79 -10 -41 -34 20 -14 35 -13 142 8 201 39 188 39 224 -1 30
-34 33 -35 49 -20 15 16 15 19 -4 44 -21 28 -76 62 -103 63 -11 0 -11 -3 -1
-15 14 -17 9 -20 -57 -29 l-42 -6 1 34 c1 39 14 46 91 46 35 0 47 4 44 13 -2
6 7 24 21 40 38 40 19 52 -74 50 -69 -1 -74 0 -69 17 3 10 1 21 -5 25 -23 14
3 20 105 23 59 2 116 7 127 11 18 6 18 8 3 21 -13 11 -35 11 -123 2 -59 -7
-119 -12 -134 -12 l-28 0 18 35 c17 35 18 35 100 39 9 1 17 -6 17 -14 0 -13 8
-16 33 -11 5 0 14 26 21 57 11 47 11 58 0 65 -28 18 -44 5 -41 -30 4 -40 -8
-51 -61 -51 l-37 0 6 55 c7 57 -4 85 -32 85 -10 0 -14 -16 -14 -62z m130 -302
c0 -27 -16 -36 -66 -36 -29 0 -34 3 -34 23 0 33 7 37 57 37 39 0 43 -2 43 -24z
m-140 -15 c0 -21 -6 -30 -22 -35 -39 -10 -47 -7 -63 23 -15 29 -14 30 13 34
67 10 72 9 72 -22z"/>
  <path d="M225 430 c-11 -5 -46 -9 -78 -9 l-58 -1 20 -27 c10 -16 24 -56 31
-90 12 -61 24 -75 47 -52 5 5 36 13 67 16 42 4 54 9 46 18 -11 13 3 63 29 104
14 21 13 25 -4 37 -21 15 -69 17 -100 4z m25 -75 c0 -39 -4 -47 -25 -57 -33
-15 -45 -3 -52 50 -5 36 -3 41 18 45 58 11 59 10 59 -38z"/>
</g>
<g id="part-1" class="char-part">
  <path d="M220 424 c-27 -9 -61 -13 -84 -9 -39 6 -39 6 -24 -17 9 -13 21 -49
28 -80 17 -75 25 -88 42 -66 8 11 30 18 57 20 44 3 45 4 56 48 7 25 17 56 24
69 23 41 -26 58 -99 35z m36 -70 c-8 -59 -11 -64 -45 -64 -25 0 -30 5 -40 44
-6 25 -11 47 -11 50 0 7 30 14 69 15 l34 1 -7 -46z"/>
</g>
<g id="part-2" class="char-part">
  <path d="M540 528 c0 -35 -4 -68 -8 -74 -7 -11 -92 -29 -92 -20 0 3 5 17 11
33 8 23 7 30 -7 40 -30 22 -40 15 -36 -21 2 -18 -1 -37 -7 -40 -16 -10 -13
-46 4 -52 8 -4 34 1 57 10 48 20 66 10 48 -24 -29 -54 17 -27 55 33 6 8 29 18
53 22 34 5 42 4 42 -9 0 -22 20 -31 35 -15 7 8 19 35 28 61 15 45 15 48 -3 58
-37 20 -49 13 -43 -26 7 -43 -5 -54 -59 -54 -41 0 -42 1 -29 68 7 33 5 47 -6
58 -31 31 -43 17 -43 -48z"/>
</g>
<g id="part-3" class="char-part">
  <path d="M527 355 c-109 -13 -201 -25 -204 -28 -15 -16 57 -17 185 -3 77 9
172 16 209 16 89 0 117 8 102 26 -15 18 -49 17 -292 -11z"/>
</g>
<g id="part-4" class="char-part">
  <path d="M702 88 c60 -74 71 -81 82 -51 9 23 -22 64 -65 85 -58 29 -62 20 -17
-34z"/>
</g>
</g>
</svg>