<?xml version="1.0" standalone="no"?>
<!DOCTYPE svg PUBLIC "-//W3C//DTD SVG 20010904//EN"
 "http://www.w3.org/TR/2001/REC-SVG-20010904/DTD/svg10.dtd">
<svg version="1.0" xmlns="http://www.w3.org/2000/svg"
 width="96.000000pt" height="68.000000pt" viewBox="0 0 96.000000 68.000000"
 preserveAspectRatio="xMidYMid meet">
<metadata>
Created by potrace 1.16, written by Peter Selinger 2001-2019
Combined from part_0.svg through part_5.svg with named groups
</metadata>
<g transform="translate(0.000000,68.000000) scale(0.100000,-0.100000)" fill="#000000" stroke="none">
<g id="part-0" class="char-part">
  <path d="M527 624 c-3 -3 -3 -12 0 -20 9 -23 -17 -44 -54 -44 -30 0 -34 -2
-23 -15 7 -8 21 -15 31 -15 14 0 18 -6 15 -22 -2 -20 -11 -24 -57 -30 -30 -3
-80 -6 -112 -7 -50 -1 -56 -3 -44 -15 8 -8 20 -36 27 -62 9 -30 20 -48 32 -52
13 -3 18 -12 16 -26 -3 -19 -13 -22 -98 -32 -105 -12 -104 -31 1 -21 32 3 59
2 59 -2 0 -14 -36 -40 -116 -86 -43 -25 -70 -45 -60 -45 34 0 147 62 193 105
41 40 49 43 101 45 86 3 83 4 173 -61 46 -34 94 -65 107 -70 24 -9 112 -1 112
11 0 4 -35 17 -77 30 -42 12 -99 36 -125 51 -27 16 -53 29 -58 29 -6 0 -10 5
-10 10 0 6 37 10 90 10 92 0 120 13 54 26 -33 6 -111 2 -240 -13 -46 -5 -52
-3 -56 15 -5 18 0 22 38 28 24 3 59 4 76 0 32 -6 34 -4 66 57 30 58 31 63 15
75 -10 7 -32 11 -50 10 -43 -3 -48 4 -18 32 19 18 39 24 95 28 39 2 73 9 76
13 8 14 -48 31 -84 25 -26 -4 -33 -2 -29 8 3 8 0 19 -6 25 -12 12 -50 15 -60
5z m23 -171 c0 -18 -8 -20 -117 -28 -91 -6 -103 -5 -103 9 0 9 1 16 3 16 50 4
143 13 145 15 10 9 72 -1 72 -12z m-10 -53 c0 -15 -37 -26 -114 -35 -53 -5
-71 -4 -77 7 -15 23 -10 27 44 31 111 7 147 7 147 -3z"/>
  <path d="M285 610 c-3 -5 -1 -18 5 -29 15 -30 14 -31 -40 -31 -56 0 -63 -11
-24 -37 22 -14 31 -15 58 -5 28 11 33 10 45 -8 18 -27 31 -25 31 5 0 14 7 28
15 30 46 15 50 19 18 23 -25 2 -34 9 -39 27 -3 13 -15 26 -27 29 -30 8 -35 7
-42 -4z"/>
  <path d="M398 228 c-2 -24 -9 -34 -23 -36 -50 -7 -65 -13 -59 -23 3 -6 17 -8
30 -5 14 4 24 2 24 -4 0 -15 -71 -91 -105 -112 -16 -10 -24 -18 -17 -18 29 0
93 43 138 93 40 44 57 55 90 61 57 8 67 -6 46 -69 -16 -47 -19 -50 -49 -49
-18 1 -33 0 -33 -2 0 -1 11 -14 24 -28 29 -32 49 -33 74 -2 25 33 58 154 45
167 -13 13 -57 14 -102 4 -30 -6 -33 -5 -27 10 8 21 -10 45 -35 45 -13 0 -19
-9 -21 -32z"/>
</g>
<g id="part-1" class="char-part">
  <path d="M528 598 c-3 -29 -7 -33 -35 -36 -39 -4 -45 -22 -7 -22 21 0 24 -4
19 -20 -9 -27 7 -25 35 5 18 19 34 25 69 26 25 1 57 4 71 8 l25 7 -25 9 c-14
5 -42 7 -62 6 -29 -1 -36 1 -32 13 3 8 -3 19 -15 25 -31 17 -40 13 -43 -21z"/>
  <path d="M294 596 c3 -9 9 -22 12 -30 4 -10 -4 -16 -24 -21 -16 -3 -33 -5 -38
-4 -5 1 -18 1 -29 0 l-20 -2 20 -15 c15 -11 33 -13 66 -9 37 5 48 3 52 -9 9
-24 27 -19 27 7 0 16 9 27 28 34 l27 11 -32 1 c-25 1 -32 6 -35 24 -2 16 -11
23 -32 25 -23 3 -27 0 -22 -12z"/>
</g>
<g id="part-2" class="char-part">
  <path d="M440 479 c-25 -4 -74 -8 -110 -9 -36 -1 -59 -4 -53 -7 7 -2 20 -28
28 -56 23 -77 21 -75 100 -65 39 5 89 7 111 4 l41 -5 31 62 c29 57 30 63 15
75 -18 13 -92 14 -163 1z m110 -28 c0 -16 -12 -19 -101 -25 -67 -5 -106 -3
-112 3 -16 16 -8 19 73 29 123 15 140 15 140 -7z m-10 -55 c0 -15 -25 -21
-126 -32 -56 -6 -62 -5 -66 14 -5 19 -1 21 46 25 122 8 146 7 146 -7z"/>
</g>
<g id="part-3" class="char-part">
  <path d="M356 316 c-5 -22 -12 -24 -97 -31 -55 -4 -87 -11 -82 -16 12 -12 91
-14 121 -5 68 22 -35 -65 -129 -109 -43 -20 -49 -25 -28 -25 40 0 162 65 205
110 38 39 40 40 110 40 70 0 71 0 151 -59 110 -81 116 -83 171 -75 72 10 71
16 -9 39 -77 23 -193 77 -204 95 -4 6 25 10 84 10 93 0 121 13 55 26 -33 6
-111 2 -240 -13 -46 -5 -52 -3 -57 16 -7 30 -43 28 -51 -3z"/>
</g>
<g id="part-4" class="char-part">
  <path d="M483 203 c-26 -10 -12 -24 17 -18 29 6 30 6 30 -32 0 -59 -20 -88
-58 -87 -18 1 -32 0 -32 -2 0 -13 47 -54 61 -54 25 0 54 41 69 97 7 26 18 54
24 62 22 28 -63 54 -111 34z"/>
</g>
</g>
</svg>