<?xml version="1.0" standalone="no"?>
<!DOCTYPE svg PUBLIC "-//W3C//DTD SVG 20010904//EN"
 "http://www.w3.org/TR/2001/REC-SVG-20010904/DTD/svg10.dtd">
<svg version="1.0" xmlns="http://www.w3.org/2000/svg"
 width="96.000000pt" height="68.000000pt" viewBox="0 0 96.000000 68.000000"
 preserveAspectRatio="xMidYMid meet">
<metadata>
Created by potrace 1.16, written by Peter Selinger 2001-2019
Combined from part_0.svg through part_5.svg with named groups
</metadata>
<g transform="translate(0.000000,68.000000) scale(0.100000,-0.100000)" fill="#000000" stroke="none">
<g id="part-0" class="char-part">
  <path d="M198 584 c-4 -3 -2 -20 3 -37 12 -43 11 -267 -2 -384 -12 -110 -7
-143 21 -143 25 0 27 11 35 193 l7 157 30 -25 c32 -27 43 -30 53 -15 14 22 -7
50 -47 62 l-40 12 6 55 c4 30 9 64 12 76 7 27 -59 69 -78 49z"/>
  <path d="M481 538 c-6 -18 -25 -48 -42 -66 -28 -29 -36 -33 -65 -27 -37 6 -42
1 -20 -20 8 -8 20 -46 27 -84 7 -40 18 -72 26 -75 7 -3 13 -1 13 4 0 6 5 10
10 10 6 0 10 -13 10 -29 0 -33 -60 -115 -110 -151 -41 -30 -32 -36 17 -11 72
37 150 132 140 171 -4 16 0 20 19 20 25 0 25 0 22 -87 -3 -75 0 -92 17 -115
23 -31 64 -43 145 -42 111 1 170 25 150 62 -5 9 -11 30 -15 45 -6 30 -25 28
-25 -3 0 -11 -10 -28 -22 -40 -18 -17 -35 -20 -103 -20 -101 0 -118 13 -114
87 2 26 7 56 13 66 8 12 7 23 -2 37 -11 18 -10 20 11 20 13 0 28 -5 35 -12 18
-18 31 0 62 92 l28 81 -25 16 c-23 15 -31 15 -107 0 -44 -9 -92 -17 -106 -17
-22 0 -19 5 30 50 29 27 52 52 49 54 -2 2 -16 7 -30 11 -24 6 -28 3 -38 -27z
m157 -143 c-2 -1 -24 -5 -49 -8 -46 -6 -47 -6 -51 23 -5 31 -4 32 82 43 10 2
16 -8 18 -26 2 -16 2 -30 0 -32z m-148 5 c0 -29 -2 -30 -44 -30 -39 0 -44 3
-48 25 -7 32 -3 35 49 35 41 0 43 -1 43 -30z m135 -60 c0 -23 -4 -25 -47 -28
-45 -3 -48 -2 -48 22 0 20 6 25 33 29 53 7 62 3 62 -23z m-129 -12 c-2 -18
-11 -24 -36 -26 -32 -3 -50 9 -50 36 0 8 16 12 45 12 41 0 45 -2 41 -22z"/>
  <path d="M113 360 c-27 -46 -30 -88 -7 -97 27 -10 54 35 54 90 0 59 -17 62
-47 7z"/>
  <path d="M662 258 c-7 -7 -12 -18 -12 -25 0 -7 -14 -28 -31 -47 -31 -36 -31
-63 0 -51 9 4 37 12 63 19 40 11 49 11 62 -3 12 -12 19 -12 28 -3 9 9 7 16 -7
32 -22 24 -57 28 -49 5 5 -11 -1 -15 -25 -15 -37 0 -37 3 -10 42 19 26 20 32
7 44 -11 11 -17 11 -26 2z"/>
</g>
<g id="part-1" class="char-part">
  <path d="M207 543 c11 -52 7 -303 -6 -397 -8 -56 -8 -82 1 -101 31 -68 48 -5
48 174 0 81 3 151 6 154 4 4 20 -5 36 -18 35 -30 48 -31 48 -6 0 13 -13 24
-41 35 l-42 17 6 78 c4 68 3 79 -14 89 -37 24 -51 16 -42 -25z"/>
  <path d="M129 379 c-29 -46 -43 -89 -31 -101 18 -18 40 -1 53 41 8 27 9 48 3
62 l-10 22 -15 -24z"/>
</g>
<g id="part-2" class="char-part">
  <path d="M490 562 c0 -5 -15 -34 -34 -65 -19 -31 -31 -57 -27 -57 4 0 34 25
67 55 48 45 56 57 44 65 -18 12 -50 13 -50 2z"/>
</g>
<g id="part-3" class="char-part">
  <path d="M652 234 c-11 -22 -29 -48 -41 -58 -12 -11 -21 -26 -21 -34 0 -15 5
-15 89 9 35 10 48 10 64 0 29 -19 46 2 23 28 -24 26 -54 33 -52 12 1 -10 -8
-17 -26 -19 -34 -4 -34 0 -6 39 20 27 21 31 6 45 -15 15 -18 13 -36 -22z"/>
</g>
</g>
</svg>