<?xml version="1.0" standalone="no"?>
<!DOCTYPE svg PUBLIC "-//W3C//DTD SVG 20010904//EN"
 "http://www.w3.org/TR/2001/REC-SVG-20010904/DTD/svg10.dtd">
<svg version="1.0" xmlns="http://www.w3.org/2000/svg"
 width="96.000000pt" height="68.000000pt" viewBox="0 0 96.000000 68.000000"
 preserveAspectRatio="xMidYMid meet">
<metadata>
Created by potrace 1.16, written by Peter Selinger 2001-2019
Combined from part_0.svg through part_5.svg with named groups
</metadata>
<g transform="translate(0.000000,68.000000) scale(0.100000,-0.100000)" fill="#000000" stroke="none">
<g id="part-0" class="char-part">
  <path d="M239 583 c-1 -5 0 -41 1 -80 l2 -73 -52 0 c-52 0 -52 0 -47 -27 3
-16 0 -52 -5 -81 -8 -39 -8 -56 1 -65 20 -20 34 8 40 80 6 65 7 68 34 71 l27
3 0 -68 c-1 -37 -5 -112 -10 -167 -8 -99 -1 -146 25 -146 31 0 35 25 35 207
l0 183 29 0 c33 0 40 -18 33 -88 -4 -38 -7 -43 -24 -39 -19 5 -19 4 3 -19 12
-13 28 -24 35 -24 17 0 32 46 37 118 5 58 3 64 -16 71 -12 4 -39 6 -60 3 l-39
-4 7 66 c7 65 7 66 -20 76 -32 12 -35 12 -36 3z"/>
  <path d="M660 550 c-19 -5 -83 -12 -142 -16 -105 -7 -106 -7 -93 -28 7 -11 16
-39 20 -61 4 -22 12 -49 17 -59 11 -20 11 -20 19 0 4 11 3 42 -2 69 -5 27 -8
50 -6 51 2 2 59 10 127 19 98 12 125 12 132 2 4 -6 6 -17 4 -23 -2 -6 -7 -36
-11 -67 -11 -86 14 -77 53 18 26 67 28 78 15 90 -16 16 -76 18 -133 5z"/>
  <path d="M573 473 c-37 -5 -45 -23 -10 -23 41 0 97 13 97 21 0 9 -26 9 -87 2z"/>
  <path d="M560 400 c-18 -6 -7 -8 43 -9 38 -1 67 3 67 9 0 12 -74 12 -110 0z"/>
  <path d="M600 335 c-47 -8 -93 -12 -103 -9 -16 5 -17 0 -13 -48 3 -29 1 -86
-5 -125 -7 -53 -7 -78 2 -95 11 -20 12 -20 24 -4 10 13 33 19 90 23 70 6 77 4
91 -16 20 -28 52 -27 63 3 5 13 7 77 4 142 -7 157 -2 153 -153 129z m107 -47
c4 -27 2 -28 -44 -28 -26 -1 -67 -4 -90 -9 -38 -7 -42 -6 -46 15 -2 12 -1 27
2 32 8 13 53 20 120 18 51 -1 55 -3 58 -28z m1 -79 c-2 -25 -6 -29 -34 -29
-17 0 -59 -3 -93 -6 -61 -7 -61 -7 -57 17 3 13 5 28 5 32 1 5 4 6 9 4 4 -2 41
1 82 8 41 6 78 10 83 8 4 -3 6 -18 5 -34z m2 -78 l0 -27 -96 -2 c-94 -2 -95
-2 -92 20 3 21 11 24 88 34 47 6 88 9 93 7 4 -2 7 -17 7 -32z"/>
</g>
<g id="part-1" class="char-part">
  <path d="M237 558 c9 -26 8 -278 -2 -405 -4 -53 -3 -89 5 -102 32 -61 48 6 43
174 -3 77 0 183 5 235 10 103 5 120 -35 120 -21 0 -23 -3 -16 -22z"/>
</g>
<g id="part-2" class="char-part">
  <path d="M300 439 c-25 -4 -70 -8 -102 -8 l-56 -1 -1 -47 c0 -27 -2 -66 -3
-87 -2 -24 2 -41 9 -43 17 -6 33 38 33 90 0 23 4 47 8 53 4 7 42 15 85 19 l77
7 0 -67 c0 -62 -1 -67 -20 -62 -11 3 -20 3 -20 1 0 -8 45 -44 56 -44 17 0 32
46 37 118 5 60 4 64 -20 73 -13 5 -27 8 -31 8 -4 -1 -27 -5 -52 -10z"/>
</g>
<g id="part-3" class="char-part">
  <path d="M605 544 c-55 -7 -121 -13 -148 -13 -47 -1 -47 -1 -34 -23 8 -13 20
-49 26 -80 8 -38 17 -58 27 -58 16 0 18 27 4 85 -5 22 -6 43 -1 48 11 11 244
38 253 29 5 -5 3 -33 -3 -63 -16 -79 -16 -83 2 -87 13 -2 24 16 47 75 43 111
37 114 -173 87z"/>
  <path d="M575 473 c-11 -3 -24 -10 -30 -15 -7 -7 9 -9 49 -5 69 7 102 28 41
26 -22 -1 -49 -3 -60 -6z"/>
  <path d="M560 400 c-18 -6 -7 -8 43 -9 38 -1 67 3 67 9 0 12 -74 12 -110 0z"/>
</g>
<g id="part-4" class="char-part">
  <path d="M605 334 c-38 -8 -81 -12 -95 -10 l-25 4 -1 -104 c-2 -96 0 -104 17
-104 10 0 19 6 19 13 0 20 171 39 186 20 6 -7 19 -13 28 -13 14 0 16 14 16 95
0 124 -3 126 -145 99z m99 -30 c14 -36 7 -44 -41 -44 -27 -1 -67 -5 -90 -9
l-43 -8 0 33 c0 37 8 40 111 43 44 1 58 -3 63 -15z m6 -89 c0 -33 -2 -35 -34
-35 -18 0 -61 -3 -95 -6 -60 -7 -61 -6 -61 18 0 23 5 26 83 40 45 8 88 16 95
17 7 1 12 -12 12 -34z"/>
</g>
<g id="part-5" class="char-part">
  <path d="M714 118 c-5 -7 -2 -9 7 -4 8 4 5 0 -5 -8 -12 -10 -28 -14 -40 -10
-21 6 -21 6 -1 -9 13 -10 24 -12 31 -6 8 6 10 2 6 -16 -5 -31 5 -32 29 -4 13
15 16 26 9 39 -5 10 -6 20 -3 24 3 3 -1 6 -10 6 -9 0 -19 -5 -23 -12z"/>
  <path d="M492 93 c-15 -33 -3 -46 21 -21 9 10 13 18 8 18 -5 0 -11 7 -13 15
-2 10 -7 5 -16 -12z"/>
  <path d="M578 93 c12 -2 30 -2 40 0 9 3 -1 5 -23 4 -22 0 -30 -2 -17 -4z"/>
</g>
</g>
</svg>