<?xml version="1.0" standalone="no"?>
<!DOCTYPE svg PUBLIC "-//W3C//DTD SVG 20010904//EN"
 "http://www.w3.org/TR/2001/REC-SVG-20010904/DTD/svg10.dtd">
<svg version="1.0" xmlns="http://www.w3.org/2000/svg"
 width="96.000000pt" height="68.000000pt" viewBox="0 0 96.000000 68.000000"
 preserveAspectRatio="xMidYMid meet">
<metadata>
Created by potrace 1.16, written by Peter Selinger 2001-2019
Combined from part_0.svg through part_5.svg with named groups
</metadata>
<g transform="translate(0.000000,68.000000) scale(0.100000,-0.100000)" fill="#000000" stroke="none">
<g id="part-0" class="char-part">
  <path d="M356 585 c-9 -20 -24 -49 -35 -64 -11 -16 -17 -31 -13 -35 3 -4 -5
-3 -20 3 l-27 10 5 -67 c2 -37 6 -86 9 -109 5 -49 -1 -53 -86 -53 -60 0 -75
-11 -40 -30 28 -14 57 -12 126 9 91 28 136 35 129 19 -6 -16 -122 -104 -171
-130 -48 -25 -62 -38 -42 -38 21 0 140 63 200 106 29 22 50 31 54 24 7 -12 -3
-111 -14 -129 -6 -8 -15 -9 -34 -2 -36 14 -34 4 5 -31 40 -35 49 -35 71 1 13
22 17 52 17 125 0 80 3 97 17 105 17 9 17 11 -1 29 -15 17 -17 34 -15 99 l4
78 -45 -1 c-25 0 -61 -4 -80 -8 l-35 -8 55 51 c58 52 59 64 8 76 -24 6 -29 3
-42 -30z m94 -162 l0 -58 -70 -3 -70 -3 0 43 c0 66 12 76 93 77 l47 1 0 -57z
m0 -92 c0 -26 -4 -27 -78 -36 -63 -7 -64 -7 -60 16 3 21 10 25 53 30 86 10 85
10 85 -10z"/>
  <path d="M348 423 c-16 -2 -28 -9 -28 -15 0 -6 10 -8 23 -4 12 3 39 6 60 6 20
0 37 5 37 10 0 10 -38 11 -92 3z"/>
  <path d="M700 540 c-8 -5 -39 -12 -68 -16 -29 -3 -55 -11 -59 -17 -6 -10 67
-5 115 9 20 6 22 3 22 -34 0 -51 -20 -72 -68 -72 -65 0 -83 -9 -76 -37 4 -14
-1 -40 -11 -64 -24 -52 -11 -66 38 -45 20 8 60 16 89 18 l53 3 -2 -61 c0 -33
-8 -78 -17 -98 -16 -38 -17 -38 -58 -32 l-41 7 25 -33 c33 -43 50 -45 87 -11
30 27 33 35 77 203 10 37 -12 45 -111 43 -85 -2 -113 5 -86 22 5 3 12 19 16
35 6 28 9 30 56 30 39 0 51 4 55 18 3 9 14 39 25 67 18 47 18 51 2 62 -20 15
-42 16 -63 3z"/>
</g>
<g id="part-1" class="char-part">
  <path d="M342 550 c-17 -33 -28 -60 -25 -60 2 0 32 21 65 47 54 43 58 48 42
60 -33 24 -50 15 -82 -47z"/>
</g>
<g id="part-2" class="char-part">
  <path d="M420 284 c-66 -67 -131 -116 -214 -161 -83 -45 -27 -34 72 14 72 36
136 80 206 141 31 27 36 36 26 47 -20 24 -33 18 -90 -41z"/>
</g>
<g id="part-3" class="char-part">
  <path d="M655 532 c-95 -23 -108 -33 -37 -27 35 4 71 9 79 12 14 6 15 0 10
-42 -4 -27 -9 -50 -11 -52 -2 -3 -36 -9 -76 -15 -51 -8 -68 -14 -61 -21 16
-16 14 -41 -6 -82 -23 -47 -9 -62 40 -41 20 8 60 16 89 18 l53 3 3 -43 c4 -51
-24 -141 -46 -149 -8 -4 -28 -1 -43 4 -36 14 -36 9 -3 -34 30 -40 43 -41 82
-8 24 20 35 45 57 126 28 100 28 102 9 116 -15 12 -38 13 -106 8 -49 -4 -88
-3 -88 2 0 5 7 18 15 29 8 10 15 27 15 37 0 14 9 17 50 17 40 0 52 4 56 18 3
9 14 39 24 66 31 78 13 88 -105 58z"/>
</g>
</g>
</svg>