<?xml version="1.0" standalone="no"?>
<!DOCTYPE svg PUBLIC "-//W3C//DTD SVG 20010904//EN"
 "http://www.w3.org/TR/2001/REC-SVG-20010904/DTD/svg10.dtd">
<svg version="1.0" xmlns="http://www.w3.org/2000/svg"
 width="96.000000pt" height="68.000000pt" viewBox="0 0 96.000000 68.000000"
 preserveAspectRatio="xMidYMid meet">
<metadata>
Created by potrace 1.16, written by Peter Selinger 2001-2019
Combined from part_0.svg through part_5.svg with named groups
</metadata>
<g transform="translate(0.000000,68.000000) scale(0.100000,-0.100000)" fill="#000000" stroke="none">
<g id="part-0" class="char-part">
  <path d="M589 654 c-3 -27 -6 -52 -7 -71 -2 -18 -8 -23 -31 -23 -39 0 -49 -18
-16 -26 23 -6 25 -10 19 -40 -8 -46 9 -44 41 5 22 33 33 39 72 45 25 3 61 6
79 6 19 0 34 5 34 10 0 18 -49 30 -96 23 l-45 -6 12 27 c8 16 9 30 3 36 -13
13 -64 24 -65 14z"/>
  <path d="M334 598 c16 -51 14 -53 -49 -56 -72 -4 -86 -14 -51 -37 22 -15 33
-16 70 -6 61 15 65 14 78 -14 17 -37 40 -33 36 7 -3 28 0 33 30 40 41 11 32
28 -14 28 -29 0 -34 3 -34 24 0 16 -7 26 -22 30 -42 11 -51 8 -44 -16z"/>
  <path d="M440 442 c0 -48 -19 -63 -88 -69 -79 -7 -91 -23 -18 -23 42 0 56 -4
56 -14 0 -21 -95 -98 -165 -135 -70 -37 -32 -34 53 4 28 13 52 23 53 22 8 -17
8 -76 -1 -101 -14 -43 -4 -88 19 -84 9 2 17 13 19 24 3 18 10 21 55 21 108 2
363 14 376 19 11 4 12 7 2 17 -8 8 -47 12 -114 12 l-102 0 0 39 c-1 43 7 48
88 60 40 6 46 10 36 22 -8 10 -25 12 -66 7 -50 -5 -54 -4 -52 13 5 29 -9 44
-43 44 -25 0 -29 -3 -23 -17 19 -46 12 -57 -45 -69 -59 -12 -51 -24 15 -21
l40 2 3 -46 3 -46 -47 -7 c-26 -3 -64 -6 -86 -6 l-39 0 2 55 c1 31 -3 61 -9
67 -8 8 3 26 43 66 30 31 60 56 67 57 7 1 57 8 111 15 53 7 100 16 103 21 11
18 -34 29 -83 19 -110 -23 -113 -23 -113 -8 0 8 6 20 13 27 10 10 8 15 -7 27
-33 24 -56 18 -56 -14z"/>
</g>
<g id="part-1" class="char-part">
  <path d="M588 608 c-3 -37 -6 -42 -37 -53 -28 -9 -31 -13 -17 -18 10 -4 22 -5
27 -1 11 7 11 6 0 -34 -13 -42 5 -39 34 5 23 37 40 43 118 43 31 0 57 4 57 10
0 15 -46 23 -94 16 l-45 -7 12 31 c10 25 9 33 -3 40 -33 21 -49 12 -52 -32z"/>
  <path d="M330 603 c0 -4 7 -17 15 -27 23 -30 19 -36 -27 -37 -24 -1 -56 -4
-72 -8 -26 -5 -28 -7 -12 -20 16 -13 65 -11 121 4 16 5 23 -1 32 -25 14 -38
35 -31 27 9 -5 24 -2 29 28 38 l33 11 -37 1 c-32 1 -37 4 -40 29 -2 22 -8 28
-35 30 -18 2 -33 0 -33 -5z"/>
</g>
<g id="part-2" class="char-part">
  <path d="M437 438 c-3 -22 -10 -45 -15 -50 -6 -6 -40 -13 -76 -15 -80 -7 -88
-23 -11 -23 36 0 55 -4 55 -12 0 -24 -97 -100 -175 -139 -60 -29 -71 -38 -45
-33 72 12 179 72 235 130 l54 56 108 15 c117 17 137 25 104 43 -17 9 -38 7
-97 -6 -41 -9 -78 -13 -82 -10 -3 4 -1 16 6 27 16 25 10 34 -27 47 -28 10 -29
9 -34 -30z"/>
</g>
<g id="part-3" class="char-part">
  <path d="M334 193 c0 -27 -3 -64 -7 -83 -9 -40 13 -84 32 -65 14 14 20 172 7
185 -22 22 -33 9 -32 -37z"/>
</g>
<g id="part-4" class="char-part">
  <path d="M520 315 c0 -3 5 -14 12 -24 20 -33 3 -49 -59 -57 -65 -8 -51 -22 25
-23 l42 -1 0 -44 c0 -41 -2 -44 -31 -50 -17 -3 -53 -6 -80 -6 -27 0 -49 -4
-49 -9 0 -16 53 -22 109 -11 29 5 111 10 182 10 120 0 156 8 127 27 -7 4 -60
7 -117 5 l-104 -2 7 42 c8 47 18 58 58 58 15 0 39 5 55 11 l28 11 -23 9 c-14
5 -40 5 -63 0 -31 -7 -42 -6 -46 4 -2 8 -2 19 1 24 4 6 -2 15 -13 20 -20 11
-61 15 -61 6z"/>
</g>
</g>
</svg>