<?xml version="1.0" standalone="no"?>
<!DOCTYPE svg PUBLIC "-//W3C//DTD SVG 20010904//EN"
 "http://www.w3.org/TR/2001/REC-SVG-20010904/DTD/svg10.dtd">
<svg version="1.0" xmlns="http://www.w3.org/2000/svg"
 width="96.000000pt" height="68.000000pt" viewBox="0 0 96.000000 68.000000"
 preserveAspectRatio="xMidYMid meet">
<metadata>
Created by potrace 1.16, written by Peter Selinger 2001-2019
Combined from part_0.svg through part_5.svg with named groups
</metadata>
<g transform="translate(0.000000,68.000000) scale(0.100000,-0.100000)" fill="#000000" stroke="none">
<g id="part-0" class="char-part">
  <path d="M275 572 c4 -9 9 -54 12 -98 l6 -81 -32 -5 c-40 -6 -43 -2 -25 34 12
23 13 33 3 44 -25 30 -46 16 -63 -43 -9 -32 -25 -73 -36 -92 -29 -46 -19 -48
26 -5 31 29 48 37 82 39 l43 2 -3 -45 -3 -46 -75 -32 c-41 -18 -83 -35 -94
-38 -15 -5 -16 -9 -6 -21 20 -24 51 -18 109 20 29 19 55 35 57 35 3 0 2 -37
-1 -82 -7 -91 2 -121 29 -99 13 11 16 34 16 111 l0 98 37 23 c21 13 31 25 24
27 -7 2 -18 -1 -24 -7 -21 -21 -34 -11 -33 26 1 33 4 37 39 47 42 12 40 26 -3
26 -15 0 -29 2 -32 5 -2 3 -1 35 4 72 8 73 2 90 -41 98 -18 3 -21 1 -16 -13z"/>
  <path d="M585 548 c-33 -5 -80 -11 -104 -14 -53 -7 -37 -24 23 -24 l38 0 -7
-37 c-9 -51 -11 -53 -50 -53 -19 0 -37 -4 -40 -10 -4 -6 10 -10 35 -10 34 0
41 -3 36 -16 -3 -9 -9 -28 -13 -42 -8 -36 -19 -42 -75 -42 -27 0 -48 -4 -48
-10 0 -18 47 -22 117 -11 37 6 130 14 206 18 76 3 140 10 143 14 8 13 -43 22
-101 17 -33 -3 -55 -1 -55 5 0 6 12 30 26 55 21 36 24 46 13 54 -15 9 -100 5
-138 -7 -21 -7 -23 -6 -16 11 5 10 8 31 8 46 0 26 2 27 68 34 49 5 69 11 69
20 0 16 -41 17 -135 2z m75 -141 c0 -25 -20 -81 -32 -89 -12 -7 -98 -12 -98
-5 0 2 7 24 16 50 13 40 20 46 47 50 61 7 67 7 67 -6z"/>
  <path d="M595 234 c-41 -9 -92 -13 -123 -9 l-53 5 15 -22 c8 -13 20 -49 27
-81 13 -59 23 -76 34 -57 3 5 28 10 54 10 26 0 75 3 107 6 l59 6 0 39 c1 23 9
46 20 59 16 18 17 22 4 35 -22 22 -67 25 -144 9z m73 -55 c2 -23 -3 -42 -12
-52 -18 -18 -143 -34 -156 -21 -4 5 -11 28 -15 51 l-7 42 44 5 c24 3 54 8 68
10 61 9 75 3 78 -35z"/>
</g>
<g id="part-1" class="char-part">
  <path d="M181 423 c-7 -27 -23 -65 -37 -85 -31 -49 -18 -49 27 0 51 53 80 107
66 121 -25 25 -44 12 -56 -36z"/>
</g>
<g id="part-2" class="char-part">
  <path d="M276 558 c5 -18 9 -62 9 -98 0 -57 -2 -65 -20 -68 -49 -7 -65 -13
-65 -23 0 -8 16 -10 45 -7 l45 6 0 -37 c0 -20 -4 -41 -8 -47 -8 -13 -147 -74
-168 -74 -19 0 -18 -26 2 -34 31 -12 56 -5 107 29 60 41 64 37 48 -50 -11 -60
-2 -105 23 -105 21 0 26 23 26 125 l0 93 36 22 c36 23 41 40 6 21 -34 -18 -42
-13 -42 24 0 36 3 38 53 49 39 9 33 26 -9 26 l-37 0 7 74 c7 78 3 87 -43 101
-22 7 -23 5 -15 -27z"/>
</g>
<g id="part-3" class="char-part">
  <path d="M590 549 c-36 -5 -85 -12 -110 -15 -38 -5 -41 -7 -25 -17 14 -7 53
-7 140 3 128 13 145 18 124 31 -16 10 -41 10 -129 -2z"/>
</g>
<g id="part-4" class="char-part">
  <path d="M730 329 c-19 -4 -106 -14 -192 -21 -87 -6 -158 -16 -158 -20 0 -16
53 -20 116 -8 36 7 132 15 212 19 116 5 143 8 127 17 -32 18 -67 22 -105 13z"/>
</g>
<g id="part-5" class="char-part">
  <path d="M638 233 c7 -3 16 -2 19 1 4 3 -2 6 -13 5 -11 0 -14 -3 -6 -6z"/>
  <path d="M683 232 c-8 -5 -9 -13 -3 -22 13 -21 12 -38 -1 -20 -8 11 -9 8 -4
-14 4 -18 0 -37 -10 -52 -14 -21 -14 -24 0 -24 8 0 15 6 16 13 0 6 4 3 9 -8 8
-18 9 -17 9 7 1 15 10 44 22 65 20 35 20 38 3 50 -21 15 -25 15 -41 5z m44
-18 c-3 -3 -12 -4 -19 -1 -8 3 -5 6 6 6 11 1 17 -2 13 -5z"/>
  <path d="M436 215 c4 -8 10 -12 15 -9 5 3 9 -8 9 -23 0 -16 7 -38 15 -49 17
-22 19 -15 5 20 -7 19 -6 29 4 38 11 10 9 15 -12 25 -32 17 -43 16 -36 -2z"/>
  <path d="M578 223 c6 -2 18 -2 25 0 6 3 1 5 -13 5 -14 0 -19 -2 -12 -5z"/>
  <path d="M472 96 c1 -10 8 -17 13 -17 15 1 12 24 -3 29 -9 3 -13 -2 -10 -12z"/>
  <path d="M605 100 c-18 -8 -17 -9 8 -9 15 -1 27 4 27 9 0 12 -8 12 -35 0z"/>
  <path d="M510 88 c0 -4 13 -6 29 -5 16 1 27 5 25 9 -6 10 -54 6 -54 -4z"/>
</g>
</g>
</svg>