<?xml version="1.0" standalone="no"?>
<!DOCTYPE svg PUBLIC "-//W3C//DTD SVG 20010904//EN"
 "http://www.w3.org/TR/2001/REC-SVG-20010904/DTD/svg10.dtd">
<svg version="1.0" xmlns="http://www.w3.org/2000/svg"
 width="96.000000pt" height="68.000000pt" viewBox="0 0 96.000000 68.000000"
 preserveAspectRatio="xMidYMid meet">
<metadata>
Created by potrace 1.16, written by Peter Selinger 2001-2019
Combined from part_0.svg through part_5.svg with named groups
</metadata>
<g transform="translate(0.000000,68.000000) scale(0.100000,-0.100000)" fill="#000000" stroke="none">
<g id="part-0" class="char-part">
  <path d="M700 584 c-19 -7 -50 -13 -67 -13 l-33 -1 14 -32 c8 -18 17 -41 20
-52 4 -10 12 -16 20 -13 7 3 34 8 59 12 43 7 45 9 57 51 7 25 11 46 9 48 -13
12 -49 12 -79 0z m26 -28 c3 -8 1 -24 -6 -35 -13 -25 -69 -30 -71 -6 -1 8 -2
21 -3 27 -1 11 23 20 67 27 4 0 10 -5 13 -13z"/>
  <path d="M218 474 c-5 -110 -8 -114 -85 -114 -58 0 -66 -9 -28 -34 20 -13 33
-15 59 -7 l34 9 -10 -30 c-11 -32 3 -53 52 -74 l24 -11 -26 -26 c-14 -14 -47
-36 -72 -48 -49 -22 -59 -39 -26 -39 26 0 112 43 129 64 17 21 28 20 58 -4 53
-41 82 -6 34 39 l-29 28 25 70 c18 52 31 73 47 77 20 6 20 7 -9 31 -16 13 -41
24 -54 25 -19 0 -23 -4 -19 -24 4 -22 1 -25 -32 -28 l-38 -3 15 50 c8 27 18
63 24 79 11 35 -11 66 -46 66 -22 0 -23 -5 -27 -96z m102 -144 c0 -10 -7 -35
-16 -54 -16 -32 -19 -33 -45 -24 -38 13 -41 20 -28 56 10 29 24 37 72 41 11 1
17 -6 17 -19z"/>
  <path d="M455 557 c-27 -6 -51 -11 -52 -12 -2 -1 26 -82 32 -92 1 -2 27 2 58
8 44 9 57 16 59 30 0 11 1 25 2 32 1 6 5 15 10 18 16 12 -5 29 -32 28 -15 -1
-49 -6 -77 -12z m58 -15 c3 -4 3 -19 0 -34 -7 -35 -59 -46 -67 -14 -10 36 -7
44 17 49 38 7 46 7 50 -1z"/>
  <path d="M600 435 c-47 -7 -110 -14 -140 -14 -53 -2 -54 -2 -34 -19 11 -9 20
-19 21 -22 0 -3 3 -14 6 -25 3 -11 11 -39 16 -61 l11 -42 45 6 c42 4 45 3 45
-19 0 -23 -4 -24 -73 -27 -82 -3 -110 -9 -102 -23 8 -11 88 -11 137 0 l36 9 7
-84 c4 -46 11 -84 15 -84 11 0 20 54 20 116 l0 54 120 0 c66 0 120 4 120 9 0
19 -63 30 -145 24 -81 -6 -85 -5 -85 14 0 22 41 36 77 27 23 -6 43 20 74 98
19 50 20 53 3 65 -21 16 -61 15 -174 -2z m120 -38 c0 -21 -5 -23 -50 -24 -27
0 -50 3 -50 7 0 5 -3 15 -6 24 -5 13 3 16 50 16 52 0 56 -2 56 -23z m-152 -13
c3 -19 -3 -22 -40 -26 -24 -3 -46 0 -50 6 -15 21 -8 35 20 39 49 8 67 3 70
-19z m142 -38 c0 -35 -13 -46 -50 -46 -22 0 -41 4 -44 9 -13 20 7 40 42 44 21
2 40 4 45 5 4 1 7 -4 7 -12z m-137 -13 c10 -18 -11 -46 -36 -49 -28 -3 -54 26
-42 46 7 12 72 14 78 3z"/>
</g>
<g id="part-1" class="char-part">
  <path d="M224 492 c0 -42 -3 -89 -7 -104 -7 -27 -10 -28 -67 -28 -61 0 -72 -8
-45 -30 10 -8 29 -10 56 -6 39 6 40 5 34 -16 -12 -38 -11 -40 25 -65 19 -13
35 -29 35 -36 0 -6 -20 -26 -45 -44 -92 -67 -89 -64 -55 -56 27 6 63 26 121
68 20 15 24 14 53 -10 17 -15 35 -24 41 -20 12 7 14 45 3 45 -5 0 -18 8 -31
18 l-22 17 19 41 c11 22 23 53 26 67 4 15 16 34 27 41 19 13 18 14 -8 35 -34
27 -60 24 -56 -6 3 -18 -3 -23 -33 -29 -20 -3 -38 -4 -41 -1 -3 3 4 36 15 75
12 38 21 76 21 84 0 13 -38 38 -58 38 -4 0 -7 -35 -8 -78z m106 -149 c0 -18
-36 -103 -43 -103 -2 0 -18 5 -36 11 -31 11 -36 24 -25 67 10 35 104 57 104
25z"/>
</g>
<g id="part-2" class="char-part">
  <path d="M480 560 c-14 -4 -40 -8 -59 -9 -25 -1 -31 -4 -24 -13 6 -7 16 -30
23 -51 10 -32 16 -38 34 -33 11 3 39 8 61 11 34 6 40 11 42 33 1 15 3 36 5 47
2 16 -3 20 -27 22 -16 1 -41 -2 -55 -7z m30 -40 c0 -24 -6 -33 -26 -41 -32
-11 -32 -11 -40 28 -5 27 -3 32 17 36 47 9 49 7 49 -23z"/>
</g>
<g id="part-3" class="char-part">
  <path d="M700 584 c-19 -7 -52 -13 -73 -13 -34 -1 -37 -3 -24 -16 9 -8 18 -28
22 -45 4 -16 10 -32 13 -34 4 -2 32 0 62 6 52 9 56 12 73 51 9 22 14 44 10 48
-16 14 -49 16 -83 3z m26 -28 c3 -8 1 -24 -6 -35 -13 -25 -69 -30 -71 -6 -1 8
-2 21 -3 27 -1 11 23 20 67 27 4 0 10 -5 13 -13z"/>
</g>
<g id="part-4" class="char-part">
  <path d="M588 262 c-10 -2 -18 -12 -18 -22 0 -23 -19 -30 -88 -31 -31 0 -66
-4 -76 -8 -36 -14 11 -22 89 -15 l72 6 6 -38 c4 -22 7 -61 7 -89 0 -81 23 -38
28 55 l5 80 36 1 c20 0 73 0 119 0 80 0 104 10 60 26 -13 4 -66 8 -118 8 -65
0 -95 4 -95 12 0 16 -7 20 -27 15z"/>
</g>
</g>
</svg>