<?xml version="1.0" standalone="no"?>
<!DOCTYPE svg PUBLIC "-//W3C//DTD SVG 20010904//EN"
 "http://www.w3.org/TR/2001/REC-SVG-20010904/DTD/svg10.dtd">
<svg version="1.0" xmlns="http://www.w3.org/2000/svg"
 width="96.000000pt" height="68.000000pt" viewBox="0 0 96.000000 68.000000"
 preserveAspectRatio="xMidYMid meet">
<metadata>
Created by potrace 1.16, written by Peter Selinger 2001-2019
Combined from part_0.svg through part_5.svg with named groups
</metadata>
<g transform="translate(0.000000,68.000000) scale(0.100000,-0.100000)" fill="#000000" stroke="none">
<g id="part-0" class="char-part">
  <path d="M640 546 c0 -42 -1 -44 -37 -50 -21 -3 -53 -6 -70 -6 -30 0 -33 3
-33 30 0 23 -6 33 -22 39 -31 12 -43 3 -24 -18 9 -10 16 -27 16 -39 0 -20 -5
-22 -49 -22 -28 0 -52 -4 -55 -9 -8 -12 41 -20 80 -14 29 5 32 3 38 -30 5 -29
12 -36 34 -39 15 -2 28 -10 30 -19 2 -13 -7 -18 -40 -23 -24 -3 -58 -3 -75 0
-40 6 -41 -3 -8 -60 25 -43 25 -43 75 -38 46 4 50 3 50 -17 0 -13 -7 -21 -17
-22 -117 -5 -162 -29 -55 -29 65 0 72 -2 72 -20 0 -16 -7 -20 -37 -21 -21 -1
-44 -1 -50 0 -7 1 -13 -2 -13 -7 0 -14 46 -23 75 -16 22 5 25 3 25 -20 0 -25
-2 -26 -59 -26 -79 0 -151 -11 -151 -22 0 -6 47 -7 128 -3 70 5 180 8 245 8
65 0 120 4 123 9 12 18 -51 28 -142 22 -90 -7 -94 -6 -94 14 0 16 8 22 43 27
23 3 51 9 62 12 18 6 18 7 -5 14 -14 4 -42 4 -62 2 -33 -5 -38 -3 -38 14 0 21
37 33 108 33 17 0 32 5 32 10 0 6 -28 10 -64 10 -54 0 -64 3 -69 19 -5 21 24
31 89 31 20 0 34 5 34 12 0 6 10 22 22 35 33 35 12 48 -71 46 -60 -2 -70 0
-74 17 -4 15 1 20 22 22 14 2 26 8 27 13 0 6 6 22 12 38 11 25 15 27 73 27 77
0 78 23 1 28 -53 3 -65 15 -39 41 10 10 8 15 -7 27 -11 8 -28 14 -38 14 -15 0
-18 -8 -18 -44z m-10 -83 c0 -30 -13 -40 -61 -47 -43 -6 -47 -5 -53 16 -9 35
-8 36 22 41 67 10 92 7 92 -10z m68 -145 c-2 -18 -12 -24 -43 -29 -46 -8 -57
-2 -49 29 5 19 13 22 51 22 40 0 44 -2 41 -22z m-148 -18 c0 -29 -2 -30 -45
-30 -25 0 -45 4 -45 9 0 5 -3 16 -6 24 -6 17 12 24 64 26 29 1 32 -2 32 -29z"/>
  <path d="M300 557 c0 -34 -75 -163 -135 -231 -36 -42 -59 -76 -52 -76 18 0 92
58 113 88 8 12 19 22 24 22 11 0 3 -159 -11 -237 -8 -42 -7 -58 6 -82 35 -68
45 -37 55 169 6 131 5 168 -5 179 -11 11 -6 25 33 83 44 67 46 71 27 84 -24
18 -55 18 -55 1z"/>
</g>
<g id="part-1" class="char-part">
  <path d="M300 551 c0 -40 -74 -165 -137 -232 -91 -96 -53 -89 50 10 l47 45 0
-73 c0 -41 -5 -114 -12 -163 -11 -80 -10 -90 6 -106 14 -14 18 -14 25 -4 15
25 24 337 11 359 -11 16 -6 27 29 78 46 66 49 80 22 95 -29 15 -41 12 -41 -9z"/>
</g>
<g id="part-2" class="char-part">
  <path d="M638 546 l4 -43 -48 -7 c-79 -10 -82 -9 -90 28 -4 26 -12 36 -31 41
-33 8 -40 0 -20 -23 10 -10 17 -28 17 -40 0 -20 -5 -22 -55 -22 -30 0 -55 -4
-55 -9 0 -14 48 -22 86 -15 31 6 34 4 34 -18 0 -13 6 -33 14 -44 12 -15 17
-17 27 -6 7 6 36 12 64 12 59 0 67 5 80 45 10 29 13 30 78 33 95 4 88 32 -9
32 -48 0 -49 1 -33 31 14 27 -4 49 -40 49 -25 0 -26 -2 -23 -44z m-13 -93 c-8
-34 -1 -29 -56 -36 -46 -6 -47 -6 -51 23 -4 27 -2 29 31 33 86 9 84 9 76 -20z"/>
</g>
<g id="part-3" class="char-part">
  <path d="M546 375 c5 -19 1 -23 -30 -29 -19 -4 -56 -4 -81 0 l-46 6 28 -55 28
-54 53 5 c48 4 52 3 52 -17 0 -11 4 -21 9 -21 22 0 41 14 41 30 0 19 36 30 96
30 20 0 34 5 34 12 0 6 10 22 22 35 33 35 12 48 -72 45 -56 -1 -70 1 -70 13 0
16 -2 17 -42 20 -24 2 -27 -1 -22 -20z m154 -47 c0 -24 -15 -35 -52 -42 -40
-7 -50 0 -41 32 4 18 13 22 49 22 29 0 44 -4 44 -12z m-152 -25 c-3 -25 -7
-28 -43 -28 -31 0 -41 4 -43 19 -5 24 14 36 56 36 30 0 33 -2 30 -27z"/>
</g>
<g id="part-4" class="char-part">
  <path d="M610 79 c-69 -4 -154 -10 -190 -13 -36 -3 -72 -6 -80 -6 -12 0 -12
-3 2 -11 11 -6 78 -7 190 -1 95 5 199 7 232 4 66 -5 96 11 52 28 -15 5 -39 9
-54 9 -15 -1 -83 -5 -152 -10z"/>
</g>
</g>
</svg>