<?xml version="1.0" standalone="no"?>
<!DOCTYPE svg PUBLIC "-//W3C//DTD SVG 20010904//EN"
 "http://www.w3.org/TR/2001/REC-SVG-20010904/DTD/svg10.dtd">
<svg version="1.0" xmlns="http://www.w3.org/2000/svg"
 width="96.000000pt" height="68.000000pt" viewBox="0 0 96.000000 68.000000"
 preserveAspectRatio="xMidYMid meet">
<metadata>
Created by potrace 1.16, written by Peter Selinger 2001-2019
Combined from part_0.svg through part_5.svg with named groups
</metadata>
<g transform="translate(0.000000,68.000000) scale(0.100000,-0.100000)" fill="#000000" stroke="none">
<g id="part-0" class="char-part">
  <path d="M507 576 l5 -43 -38 -6 c-22 -4 -48 -4 -59 -1 -19 5 -20 1 -19 -63 1
-78 -16 -128 -53 -160 -32 -28 -19 -30 20 -4 43 28 64 71 72 143 l7 65 37 -1
c34 -1 36 -3 39 -38 3 -35 1 -38 -22 -38 -43 0 -39 -19 8 -42 26 -12 46 -26
46 -31 0 -4 -24 -19 -52 -32 -43 -19 -48 -24 -27 -24 14 -1 46 10 70 22 l44
24 45 -28 c52 -33 83 -38 78 -11 -2 9 -22 26 -45 37 -48 22 -52 32 -23 63 36
39 17 57 -51 46 -37 -6 -39 -5 -39 19 0 34 25 57 62 57 27 0 30 -3 26 -24 l-5
-24 44 16 c23 9 43 21 43 27 0 13 -62 37 -81 31 -8 -2 -29 -7 -47 -10 -32 -5
-33 -4 -31 22 4 36 -7 52 -35 52 -22 0 -23 -3 -19 -44z m93 -160 c0 -27 -24
-36 -58 -24 -39 15 -41 25 -4 31 53 8 62 7 62 -7z"/>
  <path d="M240 552 c0 -16 61 -53 83 -50 32 5 34 36 2 48 -32 12 -85 13 -85 2z"/>
  <path d="M190 473 c0 -6 15 -24 34 -41 35 -31 35 -31 58 -12 21 17 22 20 6 36
-18 18 -98 32 -98 17z"/>
  <path d="M296 390 c-26 -27 -56 -52 -66 -55 -24 -8 -26 -43 -6 -71 13 -17 16
-17 29 -4 27 28 106 169 98 174 -4 3 -29 -17 -55 -44z"/>
  <path d="M389 298 c0 -2 -2 -16 -4 -32 -5 -36 -10 -40 -47 -42 -154 -8 -239
-17 -231 -25 14 -14 75 -14 167 0 44 6 81 9 84 6 3 -2 -1 -11 -8 -20 -20 -24
-5 -42 44 -49 25 -4 48 -11 51 -16 8 -13 -69 -51 -145 -71 -54 -14 -59 -17
-30 -18 65 -1 193 37 212 64 5 6 38 -6 88 -33 78 -41 100 -45 100 -18 0 21
-37 48 -90 65 l-51 17 20 26 c12 14 21 29 21 33 0 3 7 14 16 22 13 14 34 15
134 10 119 -6 144 -1 115 23 -11 9 -45 11 -123 8 -83 -4 -113 -2 -127 8 -24
18 -45 18 -45 0 0 -9 -18 -16 -50 -20 -54 -7 -82 0 -59 15 11 6 11 13 3 26
-10 15 -43 31 -45 21z m141 -83 c0 -3 -7 -19 -15 -34 -15 -31 -38 -44 -64 -37
-9 2 -28 7 -43 10 -62 14 -15 60 65 64 31 2 57 0 57 -3z"/>
</g>
<g id="part-1" class="char-part">
  <path d="M251 544 c18 -22 68 -46 79 -39 30 19 -18 55 -73 55 -16 0 -18 -2 -6
-16z"/>
  <path d="M200 473 c0 -17 46 -53 68 -53 24 0 29 22 10 38 -18 14 -78 25 -78
15z"/>
  <path d="M295 382 c-28 -26 -59 -52 -69 -57 -15 -9 -16 -14 -5 -38 7 -15 17
-27 23 -27 10 1 109 160 103 166 -1 1 -25 -19 -52 -44z"/>
</g>
<g id="part-2" class="char-part">
  <path d="M528 441 c-36 -9 -69 -19 -72 -22 -3 -3 17 -16 44 -29 28 -13 50 -27
50 -31 0 -4 -24 -19 -52 -33 -67 -32 -31 -36 42 -5 l48 21 45 -26 c52 -31 80
-34 75 -8 -2 9 -25 28 -51 41 l-48 24 32 33 32 33 -27 11 c-33 12 -33 12 -118
-9z m72 -24 c0 -26 -20 -35 -56 -24 -43 13 -43 25 -1 30 17 2 38 5 45 5 6 1
12 -4 12 -11z"/>
</g>
<g id="part-3" class="char-part">
  <path d="M386 284 c-3 -9 -6 -24 -6 -34 0 -20 -39 -29 -135 -31 -33 0 -82 -4
-110 -8 l-50 -7 30 -13 c22 -9 46 -10 95 -2 59 10 121 15 144 12 5 -1 3 -8 -4
-16 -17 -21 -5 -45 22 -45 13 -1 37 -7 53 -14 l30 -13 -45 -23 c-25 -13 -76
-31 -115 -41 -70 -17 -70 -18 -25 -18 57 -1 154 23 196 50 l33 20 43 -22 c24
-12 56 -30 71 -41 29 -21 57 -18 57 6 0 20 -45 54 -91 68 -22 6 -39 15 -39 19
0 5 12 27 28 50 l27 40 128 -5 c126 -5 151 1 105 25 -14 8 -54 10 -117 6 -81
-4 -102 -2 -133 14 -38 19 -38 19 -38 -1 0 -12 -7 -20 -17 -20 -10 0 -35 -3
-57 -7 -36 -6 -38 -5 -31 16 12 38 -35 72 -49 35z m144 -76 c0 -7 -12 -26 -26
-41 -21 -23 -31 -27 -57 -22 -51 10 -67 16 -67 23 1 19 29 41 55 44 80 9 95 8
95 -4z"/>
</g>
</g>
</svg>