<?xml version="1.0" standalone="no"?>
<!DOCTYPE svg PUBLIC "-//W3C//DTD SVG 20010904//EN"
 "http://www.w3.org/TR/2001/REC-SVG-20010904/DTD/svg10.dtd">
<svg version="1.0" xmlns="http://www.w3.org/2000/svg"
 width="96.000000pt" height="68.000000pt" viewBox="0 0 96.000000 68.000000"
 preserveAspectRatio="xMidYMid meet">
<metadata>
Created by potrace 1.16, written by Peter Selinger 2001-2019
Combined from part_0.svg through part_5.svg with named groups
</metadata>
<g transform="translate(0.000000,68.000000) scale(0.100000,-0.100000)" fill="#000000" stroke="none">
<g id="part-0" class="char-part">
  <path d="M315 537 c-23 -56 -36 -61 -86 -32 -24 13 -47 25 -51 25 -16 0 -7
-29 10 -35 9 -3 25 -16 34 -29 17 -23 17 -24 -22 -50 -22 -14 -43 -26 -48 -26
-5 0 -17 -9 -27 -20 -17 -19 -17 -20 1 -20 10 0 46 14 79 30 33 16 61 28 62
27 1 -2 5 -18 8 -36 5 -30 1 -38 -43 -80 -26 -25 -67 -59 -90 -75 -23 -16 -40
-32 -37 -34 7 -7 113 47 147 76 l31 26 -8 -79 c-4 -44 -9 -84 -12 -88 -3 -5
-24 -5 -47 -2 l-41 7 42 -43 c42 -43 42 -43 64 -23 42 38 51 72 51 188 0 72
-5 126 -14 152 l-15 42 49 41 c26 23 48 46 48 51 0 9 -51 40 -65 40 -3 0 -12
-15 -20 -33z"/>
  <path d="M520 547 c0 -7 7 -23 16 -35 8 -12 13 -26 9 -31 -3 -6 -37 -13 -75
-17 -39 -3 -70 -10 -70 -14 0 -14 56 -19 96 -9 21 5 85 13 142 18 57 5 106 12
110 16 16 16 -28 26 -90 20 -56 -4 -68 -2 -68 10 0 17 -39 55 -57 55 -7 0 -13
-6 -13 -13z"/>
  <path d="M620 413 c1 -14 95 -83 112 -83 23 0 23 22 0 43 -32 29 -113 57 -112
40z"/>
  <path d="M470 398 c0 -7 -21 -32 -47 -56 -38 -35 -43 -43 -24 -37 40 12 122
66 118 78 -5 16 -47 29 -47 15z"/>
  <path d="M609 315 c-2 -31 -3 -34 -19 -67 -15 -31 -22 -34 -42 -15 -35 33 -73
57 -92 57 -19 0 -19 -1 4 -17 46 -30 88 -75 83 -89 -7 -20 -52 -45 -123 -71
l-65 -23 46 0 c33 0 66 10 115 35 67 33 69 34 89 16 11 -10 33 -30 49 -45 23
-21 39 -26 81 -26 64 0 115 9 115 21 0 5 -7 9 -15 9 -41 0 -225 71 -225 87 0
3 14 28 30 55 36 58 36 62 8 82 -31 22 -38 20 -39 -9z"/>
</g>
<g id="part-1" class="char-part">
  <path d="M320 543 c-1 -10 -11 -31 -24 -47 l-24 -28 -38 26 c-53 36 -64 33
-26 -7 18 -18 32 -36 32 -40 0 -3 -27 -25 -60 -47 -33 -22 -60 -43 -60 -45 0
-8 63 15 105 38 l44 25 6 -30 c11 -50 7 -235 -5 -258 -9 -18 -19 -21 -46 -18
-42 5 -42 0 -5 -36 38 -37 61 -31 89 24 18 36 22 61 22 135 0 50 -7 115 -15
145 l-14 55 44 43 c50 48 53 57 26 72 -29 15 -51 12 -51 -7z"/>
</g>
<g id="part-2" class="char-part">
  <path d="M251 308 c-13 -16 -55 -52 -94 -79 -78 -55 -66 -66 22 -19 84 46 103
64 99 98 l-3 29 -24 -29z"/>
</g>
<g id="part-3" class="char-part">
  <path d="M520 548 c0 -7 7 -24 16 -37 22 -30 10 -38 -73 -47 -35 -3 -63 -10
-63 -14 0 -16 56 -17 139 -4 47 8 117 17 154 20 60 5 66 8 55 21 -10 12 -26
14 -85 9 -68 -6 -73 -5 -73 12 0 22 -15 36 -47 46 -16 5 -23 3 -23 -6z"/>
</g>
<g id="part-4" class="char-part">
  <path d="M651 380 c44 -39 84 -59 97 -46 19 19 -75 86 -121 86 -15 0 -10 -9
24 -40z"/>
  <path d="M465 390 c-3 -11 -24 -34 -46 -52 -21 -17 -37 -33 -35 -36 8 -7 128
61 133 75 6 16 5 18 -24 27 -16 5 -23 2 -28 -14z"/>
</g>
<g id="part-5" class="char-part">
  <path d="M615 298 c1 -13 -6 -36 -16 -52 -10 -16 -15 -34 -11 -40 3 -6 -6 -3
-21 7 -28 18 -38 8 -12 -13 8 -7 12 -16 9 -21 -3 -5 3 -12 13 -16 10 -3 27
-14 38 -24 17 -15 23 -16 38 -4 16 12 15 14 -15 25 -18 7 -37 12 -41 11 -9 -2
-5 6 34 64 22 32 25 43 16 54 -10 12 -9 13 2 7 9 -6 12 -4 9 5 -3 8 -14 15
-25 17 -15 2 -19 -2 -18 -20z"/>
  <path d="M460 288 c0 -2 9 -11 20 -21 11 -9 20 -13 20 -7 0 5 -9 14 -20 20
-11 6 -20 9 -20 8z"/>
  <path d="M515 240 c3 -5 8 -10 11 -10 2 0 4 5 4 10 0 6 -5 10 -11 10 -5 0 -7
-4 -4 -10z"/>
  <path d="M530 168 c-14 -11 -24 -25 -22 -30 1 -5 -3 -8 -10 -7 -7 1 -25 -3
-40 -9 -28 -11 -46 -32 -29 -32 6 0 11 5 11 10 0 6 9 10 20 10 29 0 82 29 75
40 -3 6 1 7 9 4 10 -4 14 0 13 15 -1 12 -1 21 -2 21 0 -1 -11 -10 -25 -22z"/>
  <path d="M668 132 c-24 -5 -23 -24 2 -40 25 -15 115 -18 150 -3 21 8 22 10 5
10 -11 1 -47 9 -80 19 -33 10 -68 16 -77 14z m62 -22 c8 -5 11 -10 5 -10 -5 0
-17 5 -25 10 -8 5 -10 10 -5 10 6 0 17 -5 25 -10z"/>
</g>
</g>
</svg>