<?xml version="1.0" standalone="no"?>
<!DOCTYPE svg PUBLIC "-//W3C//DTD SVG 20010904//EN"
 "http://www.w3.org/TR/2001/REC-SVG-20010904/DTD/svg10.dtd">
<svg version="1.0" xmlns="http://www.w3.org/2000/svg"
 width="96.000000pt" height="68.000000pt" viewBox="0 0 96.000000 68.000000"
 preserveAspectRatio="xMidYMid meet">
<metadata>
Created by potrace 1.16, written by Peter Selinger 2001-2019
Combined from part_0.svg through part_5.svg with named groups
</metadata>
<g transform="translate(0.000000,68.000000) scale(0.100000,-0.100000)" fill="#000000" stroke="none">
<g id="part-0" class="char-part">
  <path d="M339 581 c-46 -35 -88 -52 -116 -45 -23 6 -25 5 -19 -12 4 -10 7 -56
7 -102 -2 -88 -19 -151 -54 -189 -11 -13 -17 -26 -14 -30 10 -10 84 65 91 92
5 18 15 24 52 29 100 13 107 7 83 -63 -10 -28 -15 -32 -36 -26 -22 5 -23 4
-13 -15 12 -22 42 -27 58 -8 6 7 19 37 30 66 20 52 20 52 1 63 -12 6 -47 7
-89 3 -66 -6 -70 -5 -70 14 0 17 9 21 65 27 35 3 68 4 73 1 5 -3 19 20 30 51
31 85 18 92 -120 67 -49 -10 -29 10 30 30 105 34 106 35 92 51 -17 20 -52 19
-81 -4z m51 -101 c0 -13 -7 -20 -19 -20 -10 0 -39 -3 -65 -6 -42 -6 -46 -5
-46 14 0 21 16 26 98 30 26 2 32 -2 32 -18z m-10 -54 c0 -12 -58 -26 -111 -26
-27 0 -24 28 4 33 53 10 107 7 107 -7z"/>
  <path d="M597 560 c-9 -6 -35 -12 -57 -13 -39 -1 -40 -2 -40 -37 0 -20 -9 -52
-19 -73 -10 -20 -15 -37 -11 -37 16 0 58 60 65 92 9 39 20 48 63 48 32 0 32 0
32 -50 0 -60 17 -72 93 -68 67 4 63 23 -6 24 -49 1 -52 2 -55 29 -2 16 2 39 9
52 7 12 10 25 7 28 -11 11 -64 14 -81 5z"/>
  <path d="M586 385 c-21 -8 -56 -16 -77 -17 -21 -2 -39 -6 -39 -10 0 -13 42
-20 53 -9 16 16 107 14 107 -2 0 -29 -21 -36 -62 -21 -47 16 -48 16 -48 6 0
-4 14 -13 31 -19 40 -16 34 -31 -27 -66 l-49 -28 38 5 c20 2 50 14 66 25 38
27 48 27 101 -9 44 -29 90 -40 90 -21 0 15 -48 49 -86 61 -41 14 -42 25 -7 62
17 18 23 32 17 38 -17 17 -68 20 -108 5z"/>
  <path d="M450 181 c0 -13 56 -71 68 -71 16 0 23 31 9 44 -28 29 -77 46 -77 27z"/>
  <path d="M670 184 c0 -7 69 -71 91 -84 24 -14 44 12 30 38 -14 26 -121 66
-121 46z"/>
  <path d="M310 166 c0 -54 51 -107 130 -137 44 -17 71 -20 140 -17 81 4 141 22
144 42 1 9 -100 75 -116 76 -4 0 1 -14 10 -30 24 -43 7 -52 -94 -47 -103 6
-147 26 -180 83 -28 47 -34 52 -34 30z"/>
  <path d="M186 119 c-27 -41 -28 -79 -2 -79 21 0 37 26 43 68 7 55 -10 59 -41
11z"/>
</g>
<g id="part-1" class="char-part">
  <path d="M349 581 c-13 -10 -39 -26 -57 -35 -53 -27 -30 -30 45 -6 86 28 86
29 72 46 -15 19 -32 18 -60 -5z"/>
</g>
<g id="part-2" class="char-part">
  <path d="M590 385 c-25 -8 -59 -15 -77 -15 -50 0 -46 -13 13 -44 30 -16 53
-34 51 -40 -2 -6 -26 -23 -53 -38 -39 -22 -44 -28 -25 -28 13 0 48 12 77 27
l52 26 49 -31 c72 -47 128 -41 67 7 -14 11 -41 25 -60 31 -41 14 -42 25 -7 62
43 45 -6 69 -87 43z m40 -34 c0 -34 -21 -40 -70 -21 l-45 18 40 7 c22 4 45 8
50 10 21 7 25 5 25 -14z"/>
</g>
<g id="part-3" class="char-part">
  <path d="M465 156 c29 -38 53 -52 68 -37 13 13 -10 50 -39 61 -49 19 -57 12
-29 -24z"/>
  <path d="M660 187 c0 -3 26 -27 57 -52 51 -42 58 -45 69 -30 17 23 8 41 -31
59 -37 18 -95 32 -95 23z"/>
  <path d="M300 175 c0 -3 10 -26 22 -51 38 -82 128 -120 266 -112 74 4 134 23
136 42 1 8 -17 21 -107 76 -17 11 -17 10 -2 -20 22 -42 11 -53 -64 -58 -100
-7 -182 32 -220 106 -10 19 -31 31 -31 17z"/>
  <path d="M185 121 c-29 -47 -32 -69 -8 -78 23 -9 53 32 53 73 0 48 -16 50 -45
5z"/>
</g>
</g>
</svg>