<?xml version="1.0" standalone="no"?>
<!DOCTYPE svg PUBLIC "-//W3C//DTD SVG 20010904//EN"
 "http://www.w3.org/TR/2001/REC-SVG-20010904/DTD/svg10.dtd">
<svg version="1.0" xmlns="http://www.w3.org/2000/svg"
 width="96.000000pt" height="68.000000pt" viewBox="0 0 96.000000 68.000000"
 preserveAspectRatio="xMidYMid meet">
<metadata>
Created by potrace 1.16, written by Peter Selinger 2001-2019
Combined from part_0.svg through part_5.svg with named groups
</metadata>
<g transform="translate(0.000000,68.000000) scale(0.100000,-0.100000)" fill="#000000" stroke="none">
<g id="part-0" class="char-part">
  <path d="M382 605 c0 -52 -13 -61 -98 -68 -42 -3 -79 -8 -82 -12 -15 -15 28
-26 86 -22 l63 5 -24 -32 c-30 -39 -107 -98 -174 -133 -101 -53 -48 -54 66 -2
48 22 84 50 137 104 40 41 80 75 90 75 19 0 160 -105 174 -129 5 -9 10 -12 10
-8 0 5 14 -3 32 -18 30 -26 37 -27 97 -21 35 4 71 11 80 16 19 10 1 19 -104
50 -38 11 -101 40 -138 64 -76 48 -74 56 16 56 68 0 93 15 52 30 -20 8 -61 9
-122 5 -51 -4 -93 -4 -93 0 0 3 5 15 10 25 8 15 5 22 -12 34 -12 9 -32 16 -44
16 -18 0 -22 -6 -22 -35z"/>
  <path d="M397 420 l6 -40 -37 0 c-20 0 -36 -4 -36 -10 0 -5 18 -10 40 -10 37
0 40 -2 40 -29 0 -27 -2 -28 -61 -35 -34 -3 -84 -6 -110 -6 -27 0 -49 -4 -49
-10 0 -18 49 -22 131 -11 45 6 84 9 86 8 11 -12 -202 -117 -236 -117 -6 0 -11
-4 -11 -9 0 -12 73 5 129 30 24 10 46 19 49 19 2 0 1 -37 -3 -81 l-7 -82 25 6
c13 4 56 10 95 13 62 6 72 5 72 -9 0 -25 20 -31 41 -11 16 14 19 31 19 101 0
78 -2 84 -24 94 -17 8 -42 7 -94 -4 -85 -17 -87 -5 -4 36 53 27 64 28 156 25
71 -2 100 0 103 9 6 16 -57 27 -120 20 l-52 -6 33 28 34 29 -23 21 c-25 23
-39 27 -39 11 0 -5 -18 -28 -40 -50 -48 -48 -60 -50 -60 -10 0 27 4 30 40 36
47 8 43 24 -6 24 -29 0 -34 3 -34 24 0 23 -16 36 -45 36 -10 0 -12 -11 -8 -40z
m140 -227 c3 -13 4 -25 2 -27 -2 -2 -41 -6 -86 -9 -82 -6 -83 -6 -83 17 0 19
7 25 43 32 23 5 59 9 80 9 31 1 39 -3 44 -22z m0 -81 c-2 -26 -4 -27 -75 -32
-87 -6 -92 -5 -92 26 0 22 4 24 53 25 28 1 63 4 77 8 33 10 39 6 37 -27z"/>
</g>
<g id="part-1" class="char-part">
  <path d="M390 609 c0 -57 -12 -66 -100 -74 -44 -4 -80 -11 -80 -16 0 -5 32 -9
70 -9 39 0 70 -2 70 -5 0 -3 -10 -20 -22 -36 -27 -36 -96 -89 -171 -130 -57
-31 -42 -39 25 -12 64 24 159 95 197 147 52 69 72 65 201 -39 104 -83 106 -84
160 -84 61 1 110 12 95 21 -6 3 -44 15 -85 28 -75 22 -123 45 -201 97 l-43 28
35 2 c18 2 59 6 89 9 l55 6 -28 15 c-24 12 -43 13 -119 3 -50 -6 -93 -8 -96
-5 -4 3 -1 15 6 25 17 28 15 35 -13 48 -39 18 -45 15 -45 -19z"/>
</g>
<g id="part-2" class="char-part">
  <path d="M397 420 l6 -40 -37 0 c-20 0 -36 -4 -36 -10 0 -5 18 -10 40 -10 35
0 40 -3 40 -24 0 -15 7 -26 20 -29 17 -4 20 0 20 28 0 30 3 33 40 39 49 8 44
26 -6 26 -28 0 -35 4 -32 18 4 25 -10 42 -37 42 -21 0 -23 -3 -18 -40z"/>
</g>
<g id="part-3" class="char-part">
  <path d="M536 383 c-13 -42 -71 -72 -157 -83 -46 -5 -107 -10 -136 -10 -28 0
-54 -4 -58 -9 -10 -18 61 -23 140 -11 42 6 79 9 81 7 7 -7 -130 -80 -189 -102
-63 -24 -68 -35 -9 -23 26 6 106 39 178 74 l131 64 101 0 c60 0 102 4 102 10
0 16 -47 23 -113 17 l-62 -5 33 27 c31 27 32 28 14 44 -24 22 -49 22 -56 0z"/>
</g>
<g id="part-4" class="char-part">
  <path d="M440 224 c-101 -19 -100 -18 -100 -63 0 -22 -4 -51 -9 -64 -16 -41 5
-58 59 -47 56 11 130 13 130 3 0 -5 4 -15 10 -23 7 -12 12 -12 29 4 18 16 21
31 21 101 0 113 -1 114 -140 89z m100 -39 c0 -22 -4 -25 -39 -25 -21 0 -59 -3
-85 -6 -42 -6 -46 -5 -46 15 0 28 30 40 108 40 60 1 62 0 62 -24z m-2 -67 l-3
-33 -82 -3 c-82 -3 -83 -2 -83 21 0 22 5 25 78 34 42 5 81 11 85 11 5 1 7 -13
5 -30z"/>
</g>
</g>
</svg>