<?xml version="1.0" standalone="no"?>
<!DOCTYPE svg PUBLIC "-//W3C//DTD SVG 20010904//EN"
 "http://www.w3.org/TR/2001/REC-SVG-20010904/DTD/svg10.dtd">
<svg version="1.0" xmlns="http://www.w3.org/2000/svg"
 width="96.000000pt" height="68.000000pt" viewBox="0 0 96.000000 68.000000"
 preserveAspectRatio="xMidYMid meet">
<metadata>
Created by potrace 1.16, written by Peter Selinger 2001-2019
Combined from part_0.svg through part_5.svg with named groups
</metadata>
<g transform="translate(0.000000,68.000000) scale(0.100000,-0.100000)" fill="#000000" stroke="none">
<g id="part-0" class="char-part">
  <path d="M725 559 c-16 -5 -52 -7 -79 -4 l-49 6 8 -258 c4 -142 9 -260 11
-262 19 -20 32 103 33 331 1 87 5 149 11 153 13 8 89 9 97 1 3 -3 -3 -18 -13
-33 -44 -65 -44 -65 -7 -104 24 -25 35 -47 36 -70 l2 -34 -45 2 c-25 1 -38 -1
-30 -4 8 -3 31 -19 51 -34 43 -34 55 -36 69 -10 27 52 -6 138 -65 169 -14 7
-25 16 -25 21 0 4 24 32 52 60 50 50 52 53 33 67 -21 16 -46 17 -90 3z"/>
  <path d="M479 555 c-3 -2 -40 -10 -82 -16 -44 -7 -74 -15 -71 -21 4 -5 22 -7
40 -3 l34 6 0 -45 c0 -48 4 -45 -65 -59 -12 -3 -7 -5 12 -6 40 -1 45 -10 30
-50 -10 -26 -17 -31 -47 -32 l-35 -1 33 -10 c17 -6 32 -15 32 -20 0 -4 -25
-34 -55 -65 -30 -31 -53 -58 -51 -61 11 -11 87 53 115 96 27 43 38 51 71 57
22 4 43 4 48 1 5 -3 4 -33 -3 -68 -11 -60 -13 -63 -38 -61 -23 1 -26 -1 -18
-16 14 -26 39 -44 51 -36 30 18 49 90 75 279 17 123 13 136 -40 136 -17 0 -34
-2 -36 -5z m31 -70 l0 -45 -41 0 c-26 0 -38 4 -34 11 4 6 7 26 7 45 0 32 2 34
34 34 34 0 34 0 34 -45z m-10 -95 c0 -32 -7 -38 -55 -42 -28 -3 -30 -1 -28 26
3 34 17 46 56 46 23 0 27 -4 27 -30z"/>
  <path d="M216 489 c-11 -7 -37 -9 -67 -5 -39 5 -49 4 -49 -8 0 -8 4 -17 9 -21
6 -3 13 -37 17 -75 7 -70 27 -109 40 -76 4 10 18 16 38 16 57 0 73 9 73 40 0
16 8 48 18 70 12 26 15 44 9 50 -16 16 -68 21 -88 9z m20 -51 c-3 -13 -6 -35
-6 -50 0 -21 -6 -29 -25 -34 -14 -4 -28 -5 -30 -3 -2 2 -6 25 -10 51 -7 43 -5
47 16 51 55 10 62 8 55 -15z"/>
</g>
<g id="part-1" class="char-part">
  <path d="M215 483 c-25 -9 -55 -11 -80 -7 -34 6 -38 4 -27 -8 6 -8 17 -49 23
-91 8 -53 16 -77 25 -77 8 0 14 4 14 9 0 5 24 13 53 16 49 6 53 9 49 30 -2 12
6 44 17 70 12 26 21 49 21 50 0 2 -12 7 -27 13 -20 6 -40 5 -68 -5z m23 -73
c-3 -28 -7 -52 -9 -54 -2 -2 -17 -6 -34 -8 -29 -3 -30 -1 -33 41 -5 61 2 71
44 71 l37 0 -5 -50z"/>
</g>
<g id="part-2" class="char-part">
  <path d="M455 550 c-16 -4 -56 -11 -89 -15 -40 -5 -55 -10 -48 -17 7 -7 30 -7
74 1 36 6 77 11 92 11 l28 0 -7 -102 c-4 -57 -13 -132 -20 -168 -11 -61 -13
-65 -38 -65 -32 1 -32 -2 -8 -34 23 -30 44 -23 67 21 24 46 67 347 53 365 -13
14 -57 16 -104 3z"/>
</g>
<g id="part-3" class="char-part">
  <path d="M400 481 c0 -43 -6 -50 -54 -62 l-31 -7 32 -1 c39 -1 43 -7 31 -48
-7 -28 -13 -33 -39 -33 -18 0 -28 -4 -24 -10 3 -5 15 -10 26 -10 17 0 18 -3 8
-22 -6 -12 -33 -43 -60 -70 -26 -26 -42 -48 -35 -48 25 0 80 46 114 95 28 42
41 51 75 58 62 13 69 27 15 27 -46 0 -46 0 -39 28 6 20 16 29 44 36 45 12 48
26 6 26 -29 0 -30 2 -27 38 3 32 0 37 -19 40 -21 3 -23 -1 -23 -37z"/>
</g>
<g id="part-4" class="char-part">
  <path d="M601 418 c4 -79 7 -196 8 -260 1 -70 5 -118 11 -118 5 0 12 10 15 23
11 44 22 472 12 485 -5 6 -19 12 -31 12 -21 0 -21 -2 -15 -142z"/>
</g>
</g>
</svg>