<?xml version="1.0" standalone="no"?>
<!DOCTYPE svg PUBLIC "-//W3C//DTD SVG 20010904//EN"
 "http://www.w3.org/TR/2001/REC-SVG-20010904/DTD/svg10.dtd">
<svg version="1.0" xmlns="http://www.w3.org/2000/svg"
 width="96.000000pt" height="68.000000pt" viewBox="0 0 96.000000 68.000000"
 preserveAspectRatio="xMidYMid meet">
<metadata>
Created by potrace 1.16, written by Peter Selinger 2001-2019
Combined from part_0.svg through part_5.svg with named groups
</metadata>
<g transform="translate(0.000000,68.000000) scale(0.100000,-0.100000)" fill="#000000" stroke="none">
<g id="part-0" class="char-part">
  <path d="M466 611 c-3 -4 -1 -23 4 -42 6 -19 10 -46 10 -61 0 -25 -3 -27 -57
-33 -133 -14 -153 -17 -153 -26 0 -5 5 -9 10 -9 15 0 12 -108 -5 -175 -19 -72
-57 -143 -108 -201 -21 -24 -35 -44 -31 -44 10 0 75 49 98 74 36 39 76 142 97
249 21 105 22 107 49 107 15 0 41 3 57 6 31 6 30 8 24 -48 -1 -5 -16 -8 -35
-8 -19 0 -38 -4 -41 -10 -4 -6 10 -10 34 -10 29 0 43 -5 51 -19 5 -11 24 -22
40 -26 44 -10 152 4 147 19 -3 7 -30 10 -85 7 -69 -3 -82 -1 -82 12 0 11 14
18 48 23 74 10 85 23 20 24 -45 0 -58 3 -58 15 0 8 -5 15 -12 15 -6 0 -9 2 -6
6 3 3 32 7 64 10 33 2 74 7 92 10 46 7 57 -3 36 -33 -16 -25 -16 -26 8 -20 42
11 98 37 98 46 0 5 -16 16 -36 26 -35 16 -96 16 -186 -1 -23 -5 -28 -2 -28 14
0 18 9 21 65 27 60 7 85 18 71 32 -8 9 -57 8 -93 -1 -29 -7 -33 -5 -33 13 0
30 -59 56 -74 32z"/>
  <path d="M550 309 c-25 -4 -75 -8 -112 -8 -63 -1 -94 -13 -64 -24 7 -3 17 -23
21 -44 11 -59 22 -73 53 -68 15 3 70 6 122 8 l94 3 23 58 c19 45 21 61 12 72
-13 15 -74 17 -149 3z m97 -29 c2 -18 -4 -20 -48 -20 -52 0 -65 14 -26 30 40
16 73 12 74 -10z m-137 -15 c0 -8 -14 -17 -34 -21 -39 -7 -56 0 -56 22 0 10
12 14 45 14 33 0 45 -4 45 -15z m130 -45 c0 -17 -7 -20 -45 -20 -31 0 -45 4
-45 13 0 21 11 27 52 27 31 0 38 -3 38 -20z m-130 -10 c0 -17 -7 -20 -40 -20
-27 0 -40 4 -40 13 0 21 11 27 47 27 26 0 33 -4 33 -20z"/>
  <path d="M520 140 c-30 -5 -83 -8 -117 -9 l-62 -1 15 -35 c25 -61 22 -65 -53
-65 -42 0 -64 -3 -57 -10 5 -5 25 -9 44 -10 78 -1 477 11 510 16 l35 6 -29 15
c-16 8 -45 13 -67 11 -44 -4 -51 12 -22 45 17 18 17 19 -2 33 -20 15 -100 17
-195 4z m143 -17 c2 -5 0 -23 -5 -40 -8 -30 -12 -33 -49 -33 -29 0 -40 4 -36
13 24 57 33 67 59 67 15 0 29 -3 31 -7z m-190 -75 c-7 -13 -73 -9 -73 5 0 6
-3 22 -6 34 -5 19 -1 22 28 25 29 3 34 -1 44 -27 6 -16 9 -33 7 -37z m83 50
c-3 -13 -5 -30 -5 -39 -1 -24 -48 -12 -55 14 -11 41 -7 47 29 47 31 0 34 -3
31 -22z"/>
</g>
<g id="part-1" class="char-part">
  <path d="M476 563 c3 -26 7 -54 10 -60 6 -22 33 -14 40 12 5 20 12 25 39 25
48 0 95 11 95 23 0 10 -79 5 -112 -8 -13 -5 -17 0 -20 22 -2 22 -9 29 -30 31
-28 3 -28 3 -22 -45z"/>
</g>
<g id="part-2" class="char-part">
  <path d="M460 425 c0 -21 -5 -25 -27 -25 -16 0 -35 -5 -43 -10 -11 -7 -6 -10
22 -10 26 0 45 -7 62 -25 19 -19 35 -25 68 -25 65 0 119 11 115 24 -3 7 -32
10 -87 7 -65 -3 -82 -1 -78 10 2 7 18 16 34 20 97 23 91 20 68 29 -12 5 -38 5
-58 0 -32 -7 -36 -6 -36 11 0 12 -7 19 -20 19 -15 0 -20 -7 -20 -25z"/>
</g>
<g id="part-3" class="char-part">
  <path d="M545 309 c-22 -4 -73 -8 -112 -8 -67 -1 -93 -11 -60 -24 7 -3 19 -30
26 -61 l12 -56 37 5 c20 3 77 7 126 9 l89 2 25 57 c20 46 22 60 12 72 -14 17
-86 19 -155 4z m103 -31 c3 -15 -4 -18 -47 -18 -38 0 -51 4 -51 14 0 30 93 33
98 4z m-138 -12 c0 -7 -14 -16 -31 -20 -50 -10 -59 -7 -59 14 0 17 7 20 45 20
32 0 45 -4 45 -14z m128 -43 c-4 -23 -88 -32 -88 -10 0 22 10 27 52 27 32 0
39 -3 36 -17z m-130 -10 c-5 -25 -71 -25 -76 0 -3 14 4 17 38 17 34 0 41 -3
38 -17z"/>
</g>
<g id="part-4" class="char-part">
  <path d="M620 149 c-25 -4 -101 -11 -169 -15 -79 -4 -117 -10 -107 -16 8 -5
18 -24 22 -43 4 -21 12 -35 21 -35 10 0 12 8 8 34 -7 33 -6 34 37 40 77 10
217 18 227 12 6 -4 6 -18 1 -36 -12 -43 5 -47 40 -8 34 36 35 41 18 55 -20 16
-50 19 -98 12z"/>
</g>
<g id="part-5" class="char-part">
  <path d="M566 111 c-3 -5 1 -11 9 -15 8 -3 15 -1 15 4 0 13 -18 22 -24 11z"/>
  <path d="M477 66 c4 -34 3 -36 -24 -37 -15 0 -22 -3 -15 -6 20 -8 162 7 162
18 0 4 -22 6 -49 3 -44 -5 -51 -3 -62 18 -7 13 -11 25 -10 26 2 2 0 6 -2 8 -3
3 -3 -11 0 -30z"/>
  <path d="M561 74 c0 -11 3 -14 6 -6 3 7 2 16 -1 19 -3 4 -6 -2 -5 -13z"/>
  <path d="M725 51 c-11 -4 -41 -7 -67 -7 -27 1 -48 -2 -48 -6 0 -5 46 -8 103
-8 61 0 96 4 87 9 -27 15 -55 20 -75 12z"/>
  <path d="M277 23 c-3 -5 22 -9 54 -11 32 -2 59 1 59 5 0 11 -107 16 -113 6z"/>
</g>
</g>
</svg>