<?xml version="1.0" standalone="no"?>
<!DOCTYPE svg PUBLIC "-//W3C//DTD SVG 20010904//EN"
 "http://www.w3.org/TR/2001/REC-SVG-20010904/DTD/svg10.dtd">
<svg version="1.0" xmlns="http://www.w3.org/2000/svg"
 width="96.000000pt" height="68.000000pt" viewBox="0 0 96.000000 68.000000"
 preserveAspectRatio="xMidYMid meet">
<metadata>
Created by potrace 1.16, written by Peter Selinger 2001-2019
Combined from part_0.svg through part_5.svg with named groups
</metadata>
<g transform="translate(0.000000,68.000000) scale(0.100000,-0.100000)" fill="#000000" stroke="none">
<g id="part-0" class="char-part">
  <path d="M480 563 c0 -3 11 -21 25 -38 l24 -32 -62 -11 c-42 -6 -66 -6 -75 1
-7 5 -14 8 -16 6 -18 -24 -46 -80 -46 -93 0 -29 30 -17 47 18 15 33 19 35 82
41 36 3 99 10 139 16 105 13 103 14 91 -17 -5 -15 -8 -29 -5 -31 8 -8 96 39
96 52 0 22 -76 37 -151 29 -66 -6 -69 -6 -69 15 0 16 -10 26 -35 37 -39 16
-45 17 -45 7z"/>
  <path d="M200 542 c0 -18 63 -82 81 -82 25 0 34 22 20 49 -13 24 -101 53 -101
33z"/>
  <path d="M545 401 c-11 -5 -44 -12 -72 -16 -29 -4 -53 -12 -53 -17 0 -7 19 -8
53 -4 85 12 147 27 147 37 0 11 -47 11 -75 0z"/>
  <path d="M110 391 c0 -18 62 -72 79 -69 9 2 17 15 19 29 3 22 -2 29 -29 38
-39 13 -69 14 -69 2z"/>
  <path d="M595 329 c-16 -5 -74 -12 -127 -16 -95 -6 -96 -6 -83 -27 7 -12 19
-47 26 -79 12 -56 13 -57 43 -53 87 13 155 16 161 6 15 -24 35 -6 60 58 15 37
31 73 37 79 18 22 -70 46 -117 32z m33 -46 c3 -18 -4 -21 -60 -26 -35 -4 -80
-10 -101 -13 -38 -7 -39 -6 -35 22 3 28 4 29 68 32 36 1 74 4 85 6 31 5 40 1
43 -21z m-6 -68 c-4 -21 -10 -25 -42 -25 -20 0 -58 -3 -83 -6 -38 -6 -48 -4
-53 10 -9 24 1 30 64 37 116 12 120 12 114 -16z"/>
  <path d="M230 249 c-18 -27 -48 -62 -66 -76 -20 -15 -34 -34 -34 -47 0 -23 26
-66 39 -66 8 0 111 218 111 233 0 20 -22 1 -50 -44z"/>
  <path d="M523 110 c-122 -9 -225 -19 -229 -23 -17 -16 50 -27 105 -17 31 6
138 13 239 17 100 3 182 10 182 15 0 24 -59 26 -297 8z"/>
</g>
<g id="part-1" class="char-part">
  <path d="M220 524 c51 -68 80 -83 80 -40 0 29 -17 44 -61 53 -32 6 -33 5 -19
-13z"/>
  <path d="M119 382 c12 -23 54 -52 76 -52 21 0 19 37 -2 48 -10 6 -33 13 -51
17 -31 6 -33 6 -23 -13z"/>
  <path d="M231 245 c-18 -25 -49 -60 -69 -80 -36 -33 -36 -36 -22 -62 8 -14 20
-28 26 -30 11 -4 110 204 102 213 -3 2 -19 -16 -37 -41z"/>
</g>
<g id="part-2" class="char-part">
  <path d="M480 563 c0 -3 11 -21 25 -39 l25 -33 -35 -6 c-19 -3 -50 -7 -69 -10
-26 -4 -35 -1 -41 12 -5 15 -11 9 -30 -27 -28 -53 -32 -83 -9 -78 11 2 49 52
49 65 0 2 269 33 286 33 7 0 9 -10 6 -30 -4 -16 -4 -30 -1 -30 2 0 28 12 56
26 48 24 51 27 33 40 -29 21 -77 27 -144 16 -66 -9 -71 -8 -71 19 0 10 -13 25
-30 34 -31 16 -50 19 -50 8z"/>
</g>
<g id="part-3" class="char-part">
  <path d="M495 390 c-96 -21 -80 -39 18 -21 121 23 121 23 106 32 -18 11 -28
10 -124 -11z"/>
</g>
<g id="part-4" class="char-part">
  <path d="M720 124 c-8 -2 -109 -10 -224 -18 -115 -9 -211 -17 -213 -20 -12
-12 68 -23 113 -15 27 5 133 12 237 15 167 6 205 12 179 28 -12 7 -76 15 -92
10z"/>
</g>
</g>
</svg>