<?xml version="1.0" standalone="no"?>
<!DOCTYPE svg PUBLIC "-//W3C//DTD SVG 20010904//EN"
 "http://www.w3.org/TR/2001/REC-SVG-20010904/DTD/svg10.dtd">
<svg version="1.0" xmlns="http://www.w3.org/2000/svg"
 width="96.000000pt" height="68.000000pt" viewBox="0 0 96.000000 68.000000"
 preserveAspectRatio="xMidYMid meet">
<metadata>
Created by potrace 1.16, written by Peter Selinger 2001-2019
Combined from part_0.svg through part_5.svg with named groups
</metadata>
<g transform="translate(0.000000,68.000000) scale(0.100000,-0.100000)" fill="#000000" stroke="none">
<g id="part-0" class="char-part">
  <path d="M560 591 c0 -4 9 -20 20 -34 25 -32 22 -33 -103 -43 -85 -6 -87 -7
-71 -25 14 -16 16 -32 11 -96 -7 -89 -39 -213 -67 -260 -27 -46 -5 -41 28 7
21 30 31 38 47 32 17 -6 77 -5 140 1 18 2 20 -5 23 -75 3 -74 12 -97 26 -62 3
9 6 44 6 79 0 62 0 63 31 69 17 3 70 6 118 6 71 1 82 3 66 12 -11 7 -61 12
-115 13 -78 0 -95 3 -95 15 0 11 13 16 48 18 47 3 47 3 78 64 30 59 30 62 13
76 -14 10 -35 12 -76 7 -54 -6 -58 -5 -58 15 0 15 6 20 29 20 37 0 61 9 61 22
0 7 -17 8 -46 4 -39 -5 -45 -3 -40 9 4 11 -3 19 -20 25 -36 14 -37 13 -32 -20
4 -29 3 -30 -46 -37 l-51 -8 50 -5 c36 -4 50 -9 50 -20 0 -11 -14 -16 -57 -18
-32 -2 -58 -4 -58 -6 0 -2 7 -22 15 -45 16 -45 15 -43 15 -70 0 -16 7 -20 40
-19 47 0 53 -3 45 -24 -6 -16 -66 -28 -136 -28 -38 0 -38 1 -28 27 13 35 35
142 43 214 l7 56 69 12 c38 6 93 12 122 12 29 1 67 5 83 9 l30 7 -28 8 c-15 4
-46 5 -67 1 -35 -5 -40 -4 -40 13 0 11 -10 27 -22 35 -24 17 -58 21 -58 7z
m146 -227 c-3 -9 -6 -20 -6 -25 0 -11 -67 -12 -74 -1 -11 19 15 36 61 40 19 1
24 -2 19 -14z m-119 -28 c-4 -9 -18 -16 -32 -16 -14 0 -28 -1 -32 -2 -5 -2 -9
7 -11 19 -3 18 2 22 30 25 39 4 53 -4 45 -26z m111 -43 c-4 -20 -54 -31 -70
-15 -17 17 1 32 38 32 28 0 35 -4 32 -17z m-110 -10 c-5 -24 -62 -24 -66 0 -3
13 4 17 33 17 29 0 36 -3 33 -17z"/>
  <path d="M246 554 c19 -28 70 -58 84 -49 6 3 10 17 10 31 0 27 -31 44 -81 44
-29 0 -29 0 -13 -26z"/>
  <path d="M249 450 c-10 -6 -47 -13 -83 -17 -37 -5 -68 -12 -69 -18 -3 -15 62
-18 121 -5 30 6 56 10 58 7 8 -7 -87 -128 -144 -184 -89 -89 -13 -61 87 31
l33 31 -6 -70 c-3 -38 -8 -87 -12 -108 -6 -35 6 -67 26 -67 17 0 30 58 30 140
0 50 4 90 8 90 5 0 17 -9 27 -20 10 -11 24 -20 32 -20 21 0 15 38 -7 50 -24
13 -18 27 16 40 30 12 31 26 2 41 -22 12 -24 11 -54 -38 -9 -13 -15 -15 -24
-7 -8 8 -1 22 29 55 23 24 41 46 41 49 0 27 -76 40 -111 20z"/>
</g>
<g id="part-1" class="char-part">
  <path d="M240 572 c0 -17 59 -64 76 -60 31 6 28 35 -5 52 -32 17 -71 21 -71 8z"/>
  <path d="M235 444 c-22 -7 -62 -16 -90 -20 -46 -6 -48 -7 -27 -17 18 -8 41 -7
94 7 38 10 71 16 73 14 10 -10 -112 -169 -170 -220 -16 -15 -25 -27 -19 -28
14 0 80 48 120 88 17 17 34 28 38 25 11 -11 6 -77 -9 -137 -15 -57 -9 -96 15
-96 13 0 11 -12 24 120 l11 115 20 -22 c19 -23 55 -31 55 -14 0 5 -12 18 -27
29 l-26 19 29 19 c16 10 31 19 33 21 5 4 -20 33 -28 33 -4 0 -15 -16 -24 -36
-10 -19 -23 -34 -30 -31 -24 8 -17 35 18 68 40 38 43 54 16 69 -24 12 -44 11
-96 -6z"/>
</g>
<g id="part-2" class="char-part">
  <path d="M560 592 c0 -5 9 -21 20 -35 25 -31 22 -33 -95 -43 -92 -7 -103 -11
-79 -28 33 -24 2 -229 -51 -341 -13 -27 -23 -51 -21 -52 2 -2 17 12 34 31 40
46 66 120 87 246 10 58 20 108 24 112 7 8 112 23 235 34 54 5 66 8 52 16 -20
11 -74 13 -105 3 -16 -5 -21 -2 -21 13 0 11 -6 24 -13 30 -18 15 -67 26 -67
14z"/>
</g>
<g id="part-3" class="char-part">
  <path d="M582 470 c4 -28 3 -29 -46 -38 l-51 -10 48 -1 c32 -1 49 -6 53 -16 9
-23 44 -19 44 5 0 16 7 20 33 21 17 0 41 4 52 9 17 6 17 9 4 14 -8 4 -30 5
-49 4 -24 -2 -35 1 -35 11 0 13 -26 28 -49 30 -4 1 -6 -12 -4 -29z"/>
</g>
<g id="part-4" class="char-part">
  <path d="M590 221 c0 -21 -39 -31 -130 -31 -51 -1 -54 -2 -35 -16 12 -9 32
-13 50 -10 17 2 49 8 73 11 l42 7 0 -81 c0 -82 13 -115 24 -60 3 18 6 55 6 84
0 64 2 65 140 65 86 1 93 2 70 14 -18 11 -49 13 -117 9 -82 -5 -93 -4 -93 11
0 9 -7 16 -15 16 -8 0 -15 -8 -15 -19z"/>
</g>
</g>
</svg>