<?xml version="1.0" standalone="no"?>
<!DOCTYPE svg PUBLIC "-//W3C//DTD SVG 20010904//EN"
 "http://www.w3.org/TR/2001/REC-SVG-20010904/DTD/svg10.dtd">
<svg version="1.0" xmlns="http://www.w3.org/2000/svg"
 width="96.000000pt" height="68.000000pt" viewBox="0 0 96.000000 68.000000"
 preserveAspectRatio="xMidYMid meet">
<metadata>
Created by potrace 1.16, written by Peter Selinger 2001-2019
Combined from part_0.svg through part_5.svg with named groups
</metadata>
<g transform="translate(0.000000,68.000000) scale(0.100000,-0.100000)" fill="#000000" stroke="none">
<g id="part-0" class="char-part">
  <path d="M555 568 c4 -13 10 -87 12 -165 l5 -143 -61 0 c-55 0 -76 -10 -52
-24 5 -3 17 -40 26 -81 18 -75 23 -83 40 -66 6 5 65 13 133 17 112 6 138 13
113 29 -6 3 1 30 15 62 l26 57 -23 19 c-19 15 -33 18 -79 12 -30 -3 -63 -8
-72 -11 -16 -5 -18 2 -18 59 l0 64 74 6 c81 7 106 14 106 29 0 11 -77 6 -149
-8 l-34 -7 5 59 c3 32 8 66 12 75 7 17 -29 39 -66 39 -17 0 -19 -4 -13 -22z
m170 -318 c3 -5 3 -32 -1 -59 l-6 -49 -87 -8 c-47 -4 -90 -8 -96 -9 -9 0 -39
104 -32 112 2 2 46 6 98 9 52 4 96 8 98 10 8 7 20 4 26 -6z"/>
  <path d="M379 516 c-2 -2 -42 -10 -89 -16 -47 -6 -95 -14 -107 -17 -42 -10
-23 -23 32 -23 l56 0 -3 -57 -3 -58 -35 -3 c-58 -6 -60 -22 -2 -22 l52 0 0
-53 0 -54 -75 -18 c-41 -11 -75 -22 -75 -26 0 -4 13 -12 28 -18 25 -11 39 -8
118 27 49 21 103 46 119 56 27 16 28 17 5 11 -87 -20 -80 -23 -80 33 0 53 8
62 55 62 13 0 27 5 30 10 6 10 -5 13 -55 14 -23 1 -25 4 -22 41 3 56 8 65 36
65 14 0 37 5 53 11 l28 11 -25 13 c-27 15 -34 17 -41 11z"/>
</g>
<g id="part-1" class="char-part">
  <path d="M263 493 c-123 -20 -123 -38 0 -30 107 7 178 24 156 38 -18 11 -42
10 -156 -8z"/>
</g>
<g id="part-2" class="char-part">
  <path d="M285 463 c-17 -3 -20 -10 -16 -55 4 -57 -5 -68 -56 -68 -18 0 -33 -4
-33 -10 0 -5 23 -10 51 -10 l50 0 -3 -52 -3 -53 -70 -19 c-38 -11 -72 -21 -74
-23 -8 -6 34 -32 51 -33 9 0 69 25 135 56 111 52 115 57 36 39 l-33 -7 0 51 0
51 40 6 c22 4 43 10 46 15 6 10 -32 20 -61 16 -18 -2 -20 4 -20 47 0 50 -5 56
-40 49z"/>
</g>
<g id="part-3" class="char-part">
  <path d="M555 568 c4 -13 10 -85 12 -160 5 -138 5 -138 29 -138 23 0 24 3 24
65 l0 65 43 1 c71 1 130 13 135 28 4 12 -7 13 -59 7 -35 -3 -77 -9 -93 -13
l-29 -6 6 54 c3 30 8 63 12 75 5 15 0 23 -20 32 -14 7 -35 12 -47 12 -17 0
-19 -4 -13 -22z"/>
</g>
<g id="part-4" class="char-part">
  <path d="M685 280 c-22 -5 -86 -12 -142 -16 -86 -6 -99 -9 -88 -20 16 -16 19
-27 35 -106 10 -53 23 -73 32 -48 2 5 60 13 131 16 112 6 150 15 116 26 -7 2
-1 26 15 63 22 48 24 61 14 72 -18 17 -65 23 -113 13z m41 -34 c3 -8 2 -34 -3
-57 -9 -48 -15 -51 -139 -62 l-60 -6 -12 56 c-6 31 -10 58 -8 61 3 3 95 12
199 21 10 0 20 -5 23 -13z"/>
</g>
</g>
</svg>