<?xml version="1.0" standalone="no"?>
<!DOCTYPE svg PUBLIC "-//W3C//DTD SVG 20010904//EN"
 "http://www.w3.org/TR/2001/REC-SVG-20010904/DTD/svg10.dtd">
<svg version="1.0" xmlns="http://www.w3.org/2000/svg"
 width="96.000000pt" height="68.000000pt" viewBox="0 0 96.000000 68.000000"
 preserveAspectRatio="xMidYMid meet">
<metadata>
Created by potrace 1.16, written by Peter Selinger 2001-2019
Combined from part_0.svg through part_5.svg with named groups
</metadata>
<g transform="translate(0.000000,68.000000) scale(0.100000,-0.100000)" fill="#000000" stroke="none">
<g id="part-0" class="char-part">
  <path d="M595 618 c-2 -7 -5 -24 -7 -38 -2 -21 -10 -26 -41 -30 -49 -6 -52
-24 -5 -28 34 -3 36 -5 31 -33 -6 -39 10 -37 43 6 25 33 30 35 85 35 32 0 60
4 64 9 8 14 -28 31 -64 31 -24 0 -31 4 -31 20 0 30 -66 54 -75 28z"/>
  <path d="M327 604 c-3 -4 0 -19 8 -34 13 -26 13 -28 -8 -34 -12 -3 -39 -6 -60
-6 -44 0 -46 -17 -5 -37 20 -10 33 -10 59 -1 29 10 34 9 47 -10 21 -32 42 -28
42 7 0 25 6 31 35 41 44 14 37 31 -10 23 -32 -5 -35 -4 -35 20 0 17 -7 26 -22
31 -30 7 -43 7 -51 0z"/>
  <path d="M450 493 c0 -5 7 -17 15 -27 8 -10 12 -22 10 -26 -2 -4 -35 -8 -73
-9 -63 -2 -151 -18 -109 -20 14 -1 17 -11 17 -63 -1 -96 -55 -211 -130 -275
-14 -11 -22 -24 -19 -27 9 -9 95 59 92 73 -2 6 2 10 8 8 11 -2 62 84 72 123 3
12 14 20 27 20 21 0 22 -3 16 -42 -13 -78 -13 -83 9 -81 11 1 61 7 110 13 50
6 117 10 150 8 68 -3 73 -11 55 -77 -11 -42 -34 -53 -58 -29 -9 9 -12 8 -12
-5 0 -9 4 -17 9 -17 5 0 13 -9 16 -20 3 -11 15 -20 25 -20 31 0 56 36 75 106
17 63 17 65 -1 80 -13 10 -33 13 -64 9 -146 -16 -282 -26 -286 -22 -3 3 -3 14
0 25 6 17 19 20 137 24 71 3 133 9 137 12 17 17 -27 26 -93 19 -97 -10 -164
-10 -167 1 -5 16 42 24 165 31 101 6 117 9 112 22 -3 9 1 24 10 33 14 15 13
18 -5 35 -15 14 -28 16 -66 10 -39 -5 -46 -4 -41 8 3 8 0 20 -6 26 -8 8 -2 11
24 11 18 0 45 3 57 7 45 12 0 21 -75 16 -62 -5 -73 -4 -73 10 0 18 -5 22 -42
31 -16 3 -28 3 -28 -1z m92 -79 c16 -15 -6 -42 -38 -46 -32 -4 -34 -2 -34 24
0 25 3 28 33 28 19 0 36 -3 39 -6z m-112 -29 c0 -15 -6 -25 -14 -25 -8 0 -21
-3 -30 -6 -10 -4 -18 0 -22 10 -11 28 4 46 36 46 25 0 30 -4 30 -25z m108 -61
c-4 -23 -78 -34 -78 -12 0 22 14 36 40 40 31 5 43 -4 38 -28z m112 22 c0 -18
-13 -27 -51 -33 -24 -3 -29 -1 -29 16 0 22 12 29 53 30 17 1 27 -4 27 -13z
m-220 -31 c0 -23 -4 -25 -44 -25 -41 0 -43 1 -38 25 4 22 10 25 43 25 35 0 39
-3 39 -25z"/>
  <path d="M570 145 c0 -15 34 -55 46 -55 20 0 17 37 -3 44 -10 3 -24 9 -30 12
-7 3 -13 3 -13 -1z"/>
  <path d="M480 132 c0 -16 32 -52 46 -52 22 0 17 27 -8 44 -25 17 -38 20 -38 8z"/>
  <path d="M390 115 c0 -21 36 -59 48 -51 8 5 8 13 0 31 -12 26 -48 41 -48 20z"/>
  <path d="M297 84 c-17 -35 -15 -54 4 -54 13 0 41 68 34 80 -11 18 -21 11 -38
-26z"/>
</g>
<g id="part-1" class="char-part">
  <path d="M598 588 c-3 -31 -6 -34 -53 -44 -43 -9 -47 -11 -25 -17 14 -4 35 -7
48 -7 19 0 22 -4 17 -27 l-6 -28 29 33 c26 29 38 34 91 39 34 3 61 9 61 13 0
11 -58 21 -84 14 -19 -4 -22 -1 -21 23 0 23 -5 29 -27 31 -24 3 -27 -1 -30
-30z"/>
  <path d="M335 583 c21 -52 21 -53 -39 -53 -60 0 -72 -13 -31 -32 20 -9 34 -9
59 0 43 16 43 16 50 -13 9 -35 24 -31 28 7 3 27 9 33 38 42 l35 10 -40 5 c-32
5 -41 11 -43 29 -3 17 -10 22 -34 22 -25 0 -29 -3 -23 -17z"/>
</g>
<g id="part-2" class="char-part">
  <path d="M459 471 l21 -29 -23 -6 c-12 -3 -47 -6 -77 -7 -30 0 -66 -4 -80 -8
-22 -6 -23 -8 -6 -14 16 -6 18 -16 14 -75 -4 -85 -42 -166 -111 -240 -50 -52
-53 -66 -7 -35 99 66 131 126 176 331 3 15 12 22 27 22 36 0 239 20 271 26 53
11 6 22 -71 17 -64 -5 -73 -4 -73 11 0 16 -36 36 -66 36 -12 0 -11 -6 5 -29z"/>
</g>
<g id="part-3" class="char-part">
  <path d="M540 396 c0 -23 -4 -26 -35 -26 -28 0 -35 4 -35 20 0 14 -7 20 -24
20 -19 0 -22 -4 -19 -23 4 -20 -1 -25 -34 -34 l-38 -10 38 -2 c32 -1 37 -4 37
-26 0 -23 -4 -25 -45 -25 -27 0 -45 -5 -45 -11 0 -9 28 -10 103 -5 241 16 258
18 252 34 -3 8 1 23 10 32 14 15 13 18 -5 35 -15 14 -29 16 -64 12 -37 -5 -43
-4 -42 11 1 12 -8 18 -26 20 -24 3 -28 0 -28 -22z m-4 -82 c-3 -8 -19 -14 -42
-14 -29 0 -35 3 -30 16 3 9 6 19 6 24 0 5 15 10 33 12 33 3 44 -9 33 -38z
m112 29 c-3 -17 -63 -41 -74 -30 -3 3 -3 15 1 26 9 28 78 31 73 4z"/>
</g>
<g id="part-4" class="char-part">
  <path d="M570 143 c1 -13 38 -53 49 -53 19 0 12 28 -11 44 -24 17 -38 20 -38
9z"/>
  <path d="M480 132 c0 -16 32 -52 46 -52 17 0 19 24 2 37 -19 15 -48 23 -48 15z"/>
  <path d="M301 96 c-22 -35 -23 -66 -2 -66 19 0 41 57 33 81 -8 21 -10 20 -31
-15z"/>
  <path d="M390 116 c0 -22 35 -60 48 -52 9 5 9 13 1 29 -19 35 -49 49 -49 23z"/>
</g>
</g>
</svg>