<?xml version="1.0" standalone="no"?>
<!DOCTYPE svg PUBLIC "-//W3C//DTD SVG 20010904//EN"
 "http://www.w3.org/TR/2001/REC-SVG-20010904/DTD/svg10.dtd">
<svg version="1.0" xmlns="http://www.w3.org/2000/svg"
 width="96.000000pt" height="68.000000pt" viewBox="0 0 96.000000 68.000000"
 preserveAspectRatio="xMidYMid meet">
<metadata>
Created by potrace 1.16, written by Peter Selinger 2001-2019
Combined from part_0.svg through part_5.svg with named groups
</metadata>
<g transform="translate(0.000000,68.000000) scale(0.100000,-0.100000)" fill="#000000" stroke="none">
<g id="part-0" class="char-part">
  <path d="M284 568 c4 -18 9 -58 13 -89 6 -64 12 -59 -99 -75 -89 -12 -42 -38
50 -27 l52 6 0 -41 c0 -40 -2 -43 -48 -66 -26 -13 -71 -32 -100 -41 -51 -17
-52 -18 -36 -36 25 -28 63 -23 122 16 l52 36 0 -53 c0 -72 -8 -82 -54 -70 -20
6 -36 7 -36 3 0 -8 95 -91 104 -91 2 0 12 7 20 16 13 12 16 38 16 120 l0 105
30 17 c36 20 39 40 6 38 -13 0 -22 -4 -19 -8 2 -5 -1 -8 -6 -8 -6 0 -11 13
-11 30 0 33 22 50 65 50 20 0 26 4 23 18 -3 13 -13 17 -42 16 l-38 -2 6 47 c3
25 9 58 12 72 5 23 2 28 -27 38 -54 19 -62 15 -55 -21z"/>
  <path d="M575 543 c4 -10 10 -52 12 -95 l5 -76 -53 -7 c-30 -3 -71 -4 -91 -1
l-38 5 19 -27 c13 -18 24 -60 33 -125 12 -91 14 -98 33 -92 11 3 65 10 119 16
l99 11 22 -28 21 -27 22 28 c12 15 22 31 22 36 0 30 23 167 31 181 7 13 4 21
-15 34 -21 13 -39 14 -102 9 l-77 -8 7 85 c7 93 5 98 -51 98 -20 0 -24 -4 -18
-17z m193 -220 l-3 -38 -62 -3 -63 -3 0 40 0 41 66 0 65 0 -3 -37z m-178 -13
c0 -40 0 -40 -40 -41 -22 -1 -45 -2 -52 -3 -13 -1 -29 47 -19 61 9 15 31 21
74 22 37 1 37 1 37 -39z m170 -77 c0 -42 -10 -49 -67 -56 l-53 -6 0 39 c0 42
6 46 83 49 34 1 37 -1 37 -26z m-168 -50 c-4 -20 -11 -23 -48 -23 -35 0 -44 4
-44 18 0 9 -3 27 -6 39 -6 20 -2 22 42 25 42 3 50 0 55 -17 3 -11 3 -30 1 -42z"/>
</g>
<g id="part-1" class="char-part">
  <path d="M297 511 c4 -58 2 -90 -5 -95 -6 -3 -38 -9 -71 -12 -86 -9 -78 -27 9
-22 l71 4 -3 -50 -3 -49 -92 -37 c-88 -35 -92 -38 -75 -54 26 -23 40 -20 102
19 30 19 58 35 62 35 10 0 10 -41 1 -94 l-6 -38 -44 6 -44 6 46 -40 c25 -22
51 -40 57 -40 27 0 37 37 38 137 l0 102 30 16 c39 20 38 28 -1 20 -30 -7 -30
-7 -27 31 3 37 5 39 46 47 67 13 53 34 -20 28 -26 -2 -27 0 -22 36 3 21 10 51
15 67 11 34 5 43 -39 55 l-32 10 7 -88z"/>
</g>
<g id="part-2" class="char-part">
  <path d="M575 538 c4 -13 9 -56 12 -96 4 -59 8 -72 20 -68 8 3 19 6 24 6 5 0
9 17 9 38 0 20 5 55 10 77 11 47 -4 65 -53 65 -26 0 -28 -3 -22 -22z"/>
</g>
<g id="part-3" class="char-part">
  <path d="M635 378 c-44 -6 -110 -11 -147 -12 -38 0 -68 -2 -68 -4 0 -2 6 -15
14 -30 8 -15 19 -66 26 -112 15 -109 17 -115 33 -101 8 6 60 16 117 22 95 11
104 11 116 -6 7 -10 15 -23 17 -29 3 -7 13 -3 26 10 16 15 27 47 40 121 10 55
21 105 25 111 11 18 -36 42 -79 41 -22 -1 -76 -6 -120 -11z m131 -33 c4 -8 4
-26 0 -39 -5 -21 -12 -23 -66 -25 l-60 -2 0 41 0 40 60 0 c45 0 62 -4 66 -15z
m-176 -34 l0 -39 -47 -4 c-56 -5 -60 -3 -65 37 -3 26 1 31 27 36 17 4 42 7 58
8 25 1 27 -2 27 -38z m167 -87 c-3 -20 -7 -38 -9 -39 -2 -1 -27 -5 -55 -8
l-53 -6 0 39 c0 42 5 45 89 49 33 1 34 1 28 -35z m-167 -24 l0 -40 -45 0 c-25
0 -45 4 -45 9 0 5 -3 23 -6 40 l-6 31 51 0 51 0 0 -40z"/>
</g>
</g>
</svg>