<?xml version="1.0" standalone="no"?>
<!DOCTYPE svg PUBLIC "-//W3C//DTD SVG 20010904//EN"
 "http://www.w3.org/TR/2001/REC-SVG-20010904/DTD/svg10.dtd">
<svg version="1.0" xmlns="http://www.w3.org/2000/svg"
 width="96.000000pt" height="68.000000pt" viewBox="0 0 96.000000 68.000000"
 preserveAspectRatio="xMidYMid meet">
<metadata>
Created by potrace 1.16, written by Peter Selinger 2001-2019
Combined from part_0.svg through part_5.svg with named groups
</metadata>
<g transform="translate(0.000000,68.000000) scale(0.100000,-0.100000)" fill="#000000" stroke="none">
<g id="part-0" class="char-part">
  <path d="M268 548 c2 -51 9 -99 16 -107 25 -31 75 -41 198 -40 150 0 202 8
206 31 5 25 -39 32 -118 19 -139 -23 -250 -10 -250 29 0 13 21 20 102 34 121
22 198 43 198 56 0 5 -13 16 -28 24 -26 13 -31 13 -58 -5 -32 -21 -104 -43
-173 -53 -42 -6 -43 -6 -36 16 22 73 17 88 -36 88 l-25 0 4 -92z"/>
  <path d="M485 353 c-33 -8 -94 -15 -137 -16 l-76 -2 5 -115 c3 -63 10 -126 15
-140 l9 -25 17 22 c15 18 30 22 110 25 l93 4 15 -29 c17 -32 30 -31 55 4 13
18 18 52 22 143 l4 118 -33 14 c-18 8 -35 13 -36 13 -2 -1 -30 -8 -63 -16z
m59 -29 c10 -4 16 -18 16 -38 l0 -32 -115 -10 -115 -9 0 37 c0 36 1 37 43 42
23 4 65 8 92 9 28 2 53 4 57 5 3 1 13 -1 22 -4z m16 -137 l0 -43 -102 -12
c-57 -7 -109 -12 -115 -12 -9 0 -13 16 -13 49 0 48 0 48 33 47 17 -1 50 1 72
4 22 3 59 7 83 8 l42 3 0 -44z"/>
</g>
<g id="part-1" class="char-part">
  <path d="M270 554 c0 -81 2 -87 28 -114 37 -36 92 -45 231 -36 119 7 161 14
161 27 0 20 -53 30 -102 19 -63 -13 -224 -13 -249 0 -16 9 -28 50 -15 50 16 0
182 34 229 47 62 17 69 26 36 44 -18 9 -30 7 -66 -11 -52 -26 -136 -50 -177
-50 -25 0 -28 3 -24 28 3 15 8 34 12 43 5 11 -1 19 -19 27 -14 7 -30 12 -35
12 -6 0 -10 -38 -10 -86z"/>
</g>
<g id="part-2" class="char-part">
  <path d="M485 353 c-33 -7 -94 -15 -136 -16 l-76 -2 5 -120 c4 -115 12 -155
32 -155 5 0 12 9 15 20 6 18 15 20 104 20 95 0 98 -1 109 -25 12 -26 20 -30
38 -17 24 16 34 55 34 136 0 46 4 96 10 110 8 22 6 28 -13 40 -35 22 -58 24
-122 9z m59 -29 c10 -4 16 -18 16 -40 0 -33 -1 -34 -38 -34 -22 0 -73 -3 -115
-6 l-77 -7 0 36 c0 39 -2 38 145 50 22 2 43 4 47 5 3 1 13 -1 22 -4z m14 -141
l-3 -47 -40 -1 c-22 -1 -73 -5 -112 -9 l-73 -8 0 45 0 45 88 9 c154 18 144 20
140 -34z"/>
</g>
</g>
</svg>