<?xml version="1.0" standalone="no"?>
<!DOCTYPE svg PUBLIC "-//W3C//DTD SVG 20010904//EN"
 "http://www.w3.org/TR/2001/REC-SVG-20010904/DTD/svg10.dtd">
<svg version="1.0" xmlns="http://www.w3.org/2000/svg"
 width="96.000000pt" height="68.000000pt" viewBox="0 0 96.000000 68.000000"
 preserveAspectRatio="xMidYMid meet">
<metadata>
Created by potrace 1.16, written by Peter Selinger 2001-2019
Combined from part_0.svg through part_5.svg with named groups
</metadata>
<g transform="translate(0.000000,68.000000) scale(0.100000,-0.100000)" fill="#000000" stroke="none">
<g id="part-0" class="char-part">
  <path d="M583 597 c-46 -6 -83 -14 -83 -18 0 -5 43 -6 95 -2 108 7 98 16 95
-92 -2 -71 -12 -87 -49 -78 l-26 6 20 -24 c33 -39 48 -48 66 -38 26 13 37 57
42 156 6 115 13 111 -160 90z"/>
  <path d="M379 595 c-3 -2 -40 -10 -82 -16 -105 -16 -90 -33 20 -24 l84 7 -3
-79 -3 -78 -39 -3 -39 -3 34 -35 c38 -39 49 -42 74 -14 14 16 21 45 26 118 6
89 5 98 -13 115 -19 16 -49 23 -59 12z"/>
  <path d="M540 540 c0 -15 43 -40 67 -40 25 0 30 12 11 27 -18 14 -78 24 -78
13z"/>
  <path d="M265 500 c33 -22 60 -26 70 -10 8 12 -36 30 -73 30 l-27 0 30 -20z"/>
  <path d="M590 465 c-30 -13 -65 -24 -78 -25 -20 0 -21 -3 -12 -20 6 -11 17
-20 26 -20 16 0 90 45 117 72 23 23 15 22 -53 -7z"/>
  <path d="M295 435 c-27 -13 -58 -24 -67 -25 -24 0 -23 -17 1 -29 15 -8 30 -2
75 30 79 56 76 65 -9 24z"/>
  <path d="M445 338 c-13 -41 -46 -68 -84 -68 l-36 0 0 -95 c1 -62 5 -99 13
-107 10 -10 14 -10 21 0 5 8 46 14 119 18 93 5 112 3 112 -9 0 -14 30 -47 43
-47 3 0 15 9 26 21 16 17 19 34 18 98 0 42 3 86 7 98 6 19 2 25 -28 40 -32 15
-45 15 -117 4 -44 -7 -83 -10 -86 -8 -4 5 8 17 42 42 17 13 18 16 5 25 -25 16
-48 11 -55 -12z m173 -97 l10 -28 -102 -12 c-55 -7 -113 -15 -128 -18 -26 -5
-28 -3 -28 30 l0 35 78 9 c143 18 159 17 170 -16z m10 -88 l-4 -36 -127 -4
-127 -4 0 25 c0 23 5 25 58 31 31 4 80 10 107 15 96 15 97 15 93 -27z"/>
</g>
<g id="part-1" class="char-part">
  <path d="M355 584 c-27 -7 -67 -13 -88 -13 -21 -1 -36 -5 -33 -10 3 -5 42 -7
86 -4 l81 6 -3 -84 -3 -84 -33 2 -34 1 28 -29 c55 -57 79 -26 87 112 6 92 5
96 -16 106 -15 6 -39 5 -72 -3z"/>
</g>
<g id="part-2" class="char-part">
  <path d="M590 465 c-30 -13 -65 -24 -78 -25 -26 0 -26 -17 0 -34 19 -12 63 9
119 55 41 34 32 35 -41 4z"/>
</g>
<g id="part-3" class="char-part">
  <path d="M433 320 c-19 -35 -19 -40 -5 -40 24 1 86 56 78 69 -16 25 -51 11
-73 -29z"/>
</g>
<g id="part-4" class="char-part">
  <path d="M490 284 c-47 -7 -103 -13 -125 -13 l-40 -1 0 -95 c1 -62 5 -99 13
-107 10 -10 15 -10 21 1 6 9 40 15 112 18 l103 5 26 -32 c27 -33 52 -34 66 -2
4 9 8 53 9 97 0 44 5 88 9 97 6 12 0 21 -23 32 -34 18 -54 18 -171 0z m125
-26 c12 -38 10 -53 -10 -51 -11 1 -65 -5 -120 -12 -55 -8 -103 -15 -107 -15
-5 0 -8 15 -8 34 l0 33 73 10 c107 15 167 15 172 1z m15 -95 c0 -16 -4 -32 -8
-38 -4 -5 -62 -11 -130 -13 l-123 -3 3 27 c3 24 8 26 53 30 28 2 73 8 100 13
94 16 105 14 105 -16z"/>
</g>
</g>
</svg>