<?xml version="1.0" standalone="no"?>
<!DOCTYPE svg PUBLIC "-//W3C//DTD SVG 20010904//EN"
 "http://www.w3.org/TR/2001/REC-SVG-20010904/DTD/svg10.dtd">
<svg version="1.0" xmlns="http://www.w3.org/2000/svg"
 width="96.000000pt" height="68.000000pt" viewBox="0 0 96.000000 68.000000"
 preserveAspectRatio="xMidYMid meet">
<metadata>
Created by potrace 1.16, written by Peter Selinger 2001-2019
Combined from part_0.svg through part_5.svg with named groups
</metadata>
<g transform="translate(0.000000,68.000000) scale(0.100000,-0.100000)" fill="#000000" stroke="none">
<g id="part-0" class="char-part">
  <path d="M560 588 c-1 -30 -53 -104 -71 -100 -8 2 -11 0 -6 -4 4 -4 0 -16 -10
-26 -29 -33 11 -22 61 17 38 29 55 35 94 35 76 0 122 11 122 28 0 12 -12 14
-70 9 -67 -6 -69 -5 -57 14 10 17 9 22 -7 35 -30 22 -56 18 -56 -8z"/>
  <path d="M302 537 c-10 -23 -38 -61 -62 -84 -35 -35 -39 -43 -22 -43 10 0 42
18 70 40 47 37 54 40 115 40 61 0 89 11 72 28 -4 4 -29 6 -56 5 -27 0 -49 0
-49 2 0 2 4 14 9 27 8 21 6 23 -25 25 -30 3 -35 -1 -52 -40z"/>
  <path d="M580 471 c0 -13 63 -51 84 -51 10 0 16 8 16 24 0 18 -7 25 -31 30
-44 9 -69 8 -69 -3z"/>
  <path d="M320 450 c0 -14 51 -50 71 -50 24 0 34 19 18 35 -17 15 -89 27 -89
15z"/>
  <path d="M530 386 c-12 -24 -30 -52 -41 -62 -30 -27 -22 -38 14 -16 22 14 59
23 120 28 81 6 87 5 88 -12 3 -107 -4 -199 -18 -221 -15 -22 -21 -24 -62 -18
l-46 6 41 -41 c48 -48 70 -48 105 2 18 25 23 51 29 148 5 65 11 123 14 129 4
6 -5 18 -18 27 -27 17 -66 16 -153 -4 -47 -10 -52 -5 -27 33 14 22 14 24 -5
35 -19 9 -23 6 -41 -34z"/>
  <path d="M291 353 c5 -15 8 -38 4 -50 -4 -19 -12 -23 -45 -23 -22 0 -40 -4
-40 -10 0 -5 20 -10 45 -10 l45 0 0 -45 c0 -43 -1 -45 -38 -54 -21 -6 -52 -14
-70 -17 -37 -8 -42 -31 -8 -40 16 -4 59 11 137 46 62 28 116 54 119 57 5 6
-35 -1 -77 -13 -21 -6 -23 -3 -23 29 0 38 19 57 59 57 11 0 23 5 27 11 5 8 -6
10 -35 7 l-41 -4 0 37 c0 38 -12 49 -51 49 -16 0 -17 -4 -8 -27z"/>
  <path d="M533 253 c-38 -5 -45 -23 -9 -23 48 0 115 13 110 21 -5 9 -40 9 -101
2z"/>
  <path d="M505 173 c-80 -8 -60 -23 31 -23 96 0 137 7 128 21 -5 9 -80 10 -159
2z"/>
</g>
<g id="part-1" class="char-part">
  <path d="M565 583 c-7 -30 -35 -73 -74 -117 l-26 -29 25 13 c14 7 41 26 60 42
31 25 42 28 112 28 42 0 80 4 83 10 10 15 -36 21 -90 11 -58 -11 -65 -8 -41
18 16 18 16 20 -6 35 -30 22 -35 20 -43 -11z"/>
  <path d="M315 550 c-4 -17 -29 -55 -57 -85 -27 -30 -46 -55 -41 -55 12 0 88
55 98 69 3 6 23 11 43 11 56 0 112 11 112 23 0 5 -22 8 -55 5 -57 -5 -64 -1
-42 21 10 10 8 15 -7 27 -30 21 -44 17 -51 -16z"/>
  <path d="M605 455 c33 -28 75 -33 75 -10 0 8 -16 19 -37 24 -61 17 -71 13 -38
-14z"/>
  <path d="M330 442 c0 -4 14 -16 31 -26 24 -14 34 -15 42 -6 9 9 7 15 -7 26
-21 15 -66 19 -66 6z"/>
</g>
<g id="part-2" class="char-part">
  <path d="M286 358 c7 -24 8 -32 6 -60 -2 -13 -11 -18 -34 -18 -18 0 -40 -5
-48 -10 -11 -7 0 -10 38 -10 l52 0 0 -45 c0 -42 -1 -44 -37 -55 -21 -5 -55
-13 -75 -16 -43 -7 -48 -18 -17 -34 27 -15 46 -10 174 50 111 52 135 72 51 44
-26 -9 -49 -14 -52 -11 -3 3 -2 21 1 41 6 31 12 36 41 42 19 3 36 10 39 14 8
12 -24 21 -51 14 -22 -6 -24 -3 -24 29 0 36 -12 47 -51 47 -17 0 -19 -4 -13
-22z"/>
</g>
<g id="part-3" class="char-part">
  <path d="M535 403 c-3 -15 -20 -44 -37 -65 -34 -43 -31 -63 5 -31 17 17 41 22
115 28 l92 7 0 -101 c0 -74 -4 -111 -16 -133 -15 -29 -18 -30 -61 -24 l-45 6
29 -34 c35 -43 58 -52 87 -33 40 27 56 76 57 179 0 51 4 102 9 113 12 30 -16
55 -59 55 -20 -1 -63 -7 -96 -15 -32 -8 -61 -13 -62 -11 -2 2 6 15 18 30 17
21 19 29 9 41 -19 23 -37 18 -45 -12z"/>
</g>
<g id="part-4" class="char-part">
  <path d="M515 173 c-71 -7 -64 -23 11 -23 84 0 145 10 138 21 -5 9 -71 9 -149
2z"/>
</g>
</g>
</svg>