<?xml version="1.0" standalone="no"?>
<!DOCTYPE svg PUBLIC "-//W3C//DTD SVG 20010904//EN"
 "http://www.w3.org/TR/2001/REC-SVG-20010904/DTD/svg10.dtd">
<svg version="1.0" xmlns="http://www.w3.org/2000/svg"
 width="96.000000pt" height="68.000000pt" viewBox="0 0 96.000000 68.000000"
 preserveAspectRatio="xMidYMid meet">
<metadata>
Created by potrace 1.16, written by Peter Selinger 2001-2019
Combined from part_0.svg through part_5.svg with named groups
</metadata>
<g transform="translate(0.000000,68.000000) scale(0.100000,-0.100000)" fill="#000000" stroke="none">
<g id="part-0" class="char-part">
  <path d="M237 604 c-3 -3 -2 -16 2 -28 4 -11 9 -47 10 -78 3 -63 8 -59 -81
-73 -59 -9 -45 -25 22 -25 l60 0 0 -47 0 -48 -65 -27 c-35 -16 -69 -28 -75
-28 -29 0 8 -49 38 -50 7 0 30 12 52 26 22 15 43 24 46 21 4 -3 3 -32 -1 -63
l-7 -56 -41 6 -42 7 45 -46 c24 -25 50 -45 57 -45 30 0 43 43 43 142 l0 98 40
26 c22 15 40 31 40 35 0 12 -5 11 -45 -5 l-35 -15 0 39 c0 37 1 38 41 45 49 8
47 29 -3 33 l-36 3 5 42 c3 23 9 46 14 52 16 17 9 34 -21 50 -31 16 -53 19
-63 9z"/>
  <path d="M530 574 c0 -11 23 -49 34 -56 21 -14 -5 -21 -74 -22 -38 -1 -70 -5
-70 -10 0 -5 -6 -17 -14 -25 -8 -9 -16 -27 -18 -41 -5 -38 23 -31 51 13 17 25
32 37 48 37 13 0 23 -4 23 -9 0 -21 -22 -67 -42 -88 -42 -44 4 -23 48 22 49
50 52 59 27 74 -14 8 -9 10 25 11 l42 0 0 -46 c0 -42 2 -46 35 -60 39 -16 83
-18 104 -5 24 15 2 32 -34 25 -58 -11 -76 1 -73 49 3 41 4 42 43 48 46 8 64
-3 45 -26 -17 -20 -7 -29 17 -16 10 6 32 16 48 22 l30 11 -24 19 c-25 21 -88
25 -153 10 -34 -8 -38 -7 -38 10 0 25 -35 59 -60 59 -11 0 -20 -3 -20 -6z"/>
  <path d="M575 321 c-11 -5 -44 -12 -72 -16 -29 -4 -53 -11 -53 -16 0 -12 62
-11 95 1 45 17 48 0 8 -41 -87 -89 -93 -149 -18 -176 76 -28 305 0 305 36 0 4
-10 27 -22 52 l-21 44 -9 -33 c-14 -52 -57 -72 -155 -72 -100 0 -113 4 -113
40 0 21 14 41 60 83 33 31 69 58 80 62 11 3 20 12 20 20 0 22 -65 32 -105 16z"/>
</g>
<g id="part-1" class="char-part">
  <path d="M247 563 c4 -21 8 -58 8 -83 l0 -45 -65 -10 c-76 -12 -67 -29 13 -23
l52 3 3 -46 c4 -58 8 -54 -138 -111 -24 -9 -24 -10 -6 -24 28 -20 48 -18 90
11 20 14 39 25 41 25 9 0 5 -115 -4 -129 -8 -12 -16 -13 -45 -4 l-36 11 42
-44 c23 -24 46 -44 51 -44 26 0 36 39 37 137 l0 103 41 26 c41 25 49 45 11 25
-35 -18 -52 -13 -52 15 0 42 17 64 51 64 20 0 29 4 26 13 -2 6 -18 11 -36 11
-27 -2 -31 1 -31 25 0 14 5 44 11 65 10 35 9 42 -7 53 -10 7 -28 13 -41 13
-22 0 -23 -3 -16 -37z"/>
</g>
<g id="part-2" class="char-part">
  <path d="M530 577 c0 -6 9 -26 19 -44 l20 -32 -53 -6 c-30 -4 -62 -4 -73 -1
-14 5 -24 -4 -43 -39 -17 -31 -21 -48 -14 -55 17 -17 42 -1 55 35 13 36 7 34
179 51 124 12 121 13 105 -28 -6 -15 -3 -15 41 2 27 10 50 22 51 27 8 22 -57
36 -132 29 -70 -6 -75 -5 -75 12 0 23 -15 37 -53 51 -20 8 -27 7 -27 -2z"/>
</g>
<g id="part-3" class="char-part">
  <path d="M610 440 c0 -28 6 -52 14 -59 19 -16 107 -24 125 -13 25 17 1 35 -39
28 -24 -4 -43 -1 -55 8 -17 12 -18 17 -7 40 15 35 16 33 -13 38 -24 5 -25 3
-25 -42z"/>
  <path d="M510 455 c-6 -15 -10 -29 -10 -32 0 -3 -11 -21 -26 -40 -35 -46 -13
-41 41 8 50 46 55 63 25 79 -17 9 -22 7 -30 -15z"/>
</g>
<g id="part-4" class="char-part">
  <path d="M523 312 c-40 -9 -73 -20 -73 -24 0 -11 58 -10 99 2 19 5 37 8 39 5
3 -2 -18 -30 -47 -60 -84 -93 -81 -143 10 -165 93 -23 289 5 289 41 0 13 -33
79 -39 79 -3 0 -13 -15 -21 -33 -21 -45 -52 -57 -152 -57 -96 0 -124 13 -109
52 10 28 85 102 127 124 39 21 42 29 15 44 -24 13 -47 11 -138 -8z"/>
</g>
</g>
</svg>