<?xml version="1.0" standalone="no"?>
<!DOCTYPE svg PUBLIC "-//W3C//DTD SVG 20010904//EN"
 "http://www.w3.org/TR/2001/REC-SVG-20010904/DTD/svg10.dtd">
<svg version="1.0" xmlns="http://www.w3.org/2000/svg"
 width="96.000000pt" height="68.000000pt" viewBox="0 0 96.000000 68.000000"
 preserveAspectRatio="xMidYMid meet">
<metadata>
Created by potrace 1.16, written by Peter Selinger 2001-2019
Combined from part_0.svg through part_5.svg with named groups
</metadata>
<g transform="translate(0.000000,68.000000) scale(0.100000,-0.100000)" fill="#000000" stroke="none">
<g id="part-0" class="char-part">
  <path d="M538 343 c2 -300 5 -331 26 -314 8 7 15 43 19 92 3 44 8 83 11 86 3
4 53 8 111 11 79 3 105 8 105 18 0 21 -44 27 -113 15 -107 -19 -107 -19 -107
39 l0 50 54 0 c70 0 118 10 113 24 -4 12 -49 13 -119 3 l-48 -8 0 40 c0 45 9
51 78 52 60 1 94 11 100 28 4 11 -7 13 -59 7 -125 -15 -114 -20 -114 53 0 64
-8 77 -50 80 -7 1 -9 -96 -7 -276z"/>
  <path d="M354 549 c4 -13 9 -38 13 -55 l5 -32 -53 -6 c-116 -14 -131 -18 -121
-28 11 -11 125 -6 155 7 15 6 17 1 17 -34 0 -23 -3 -41 -7 -42 -5 0 -19 -2
-33 -4 -14 -2 -52 -7 -84 -10 -40 -5 -55 -10 -45 -16 19 -12 96 -11 138 1 31
9 33 8 27 -13 -3 -12 -6 -30 -6 -39 0 -18 -6 -20 -152 -53 -43 -10 -78 -19
-78 -20 0 -1 12 -10 26 -19 24 -16 28 -16 72 0 26 10 52 21 57 24 6 4 22 10
38 14 l27 7 -15 -38 c-9 -21 -24 -47 -34 -58 -10 -11 -27 -31 -39 -44 -35 -39
-26 -44 26 -16 93 50 130 139 142 339 5 77 7 142 5 144 -2 2 -22 6 -46 9 -41
6 -42 5 -35 -18z"/>
</g>
<g id="part-1" class="char-part">
  <path d="M356 562 c-2 -4 -1 -14 5 -22 12 -21 11 -218 -2 -282 -15 -69 -39
-114 -84 -160 -53 -54 -19 -48 43 7 71 64 93 122 103 265 4 63 10 129 14 146
6 26 3 32 -20 42 -30 14 -52 15 -59 4z"/>
</g>
<g id="part-2" class="char-part">
  <path d="M335 255 c-5 -2 -54 -13 -107 -25 -54 -12 -98 -25 -98 -30 0 -4 13
-13 29 -19 25 -11 38 -8 112 23 46 19 85 39 87 45 4 11 -4 13 -23 6z"/>
</g>
<g id="part-3" class="char-part">
  <path d="M534 598 c3 -13 6 -62 6 -109 0 -86 0 -86 24 -82 13 3 26 14 29 24 4
15 15 19 54 20 66 0 126 12 125 24 -2 18 -46 21 -107 8 -33 -7 -64 -12 -69
-13 -4 0 -5 29 -1 64 6 58 4 66 -14 75 -34 19 -54 14 -47 -11z"/>
</g>
<g id="part-4" class="char-part">
  <path d="M553 403 c-8 -3 -13 -25 -13 -59 0 -51 1 -54 25 -54 20 0 25 5 25 25
0 23 3 25 53 26 28 0 70 3 91 7 35 6 37 8 22 21 -14 12 -28 12 -80 3 -85 -16
-86 -16 -86 13 0 24 -11 29 -37 18z"/>
</g>
<g id="part-5" class="char-part">
  <path d="M553 273 c-14 -5 -17 -161 -4 -218 9 -43 22 -17 26 53 5 88 10 105
31 113 19 7 17 10 -8 13 -7 0 -14 7 -14 14 -3 29 -4 32 -11 31 -5 0 -14 -3
-20 -6z"/>
  <path d="M766 248 c5 -7 -2 -9 -19 -5 -27 7 -117 -2 -117 -12 0 -3 21 -6 46
-7 25 -1 40 2 34 6 -7 4 13 6 44 4 54 -3 69 8 26 19 -12 3 -18 1 -14 -5z"/>
</g>
</g>
</svg>