<?xml version="1.0" standalone="no"?>
<!DOCTYPE svg PUBLIC "-//W3C//DTD SVG 20010904//EN"
 "http://www.w3.org/TR/2001/REC-SVG-20010904/DTD/svg10.dtd">
<svg version="1.0" xmlns="http://www.w3.org/2000/svg"
 width="96.000000pt" height="68.000000pt" viewBox="0 0 96.000000 68.000000"
 preserveAspectRatio="xMidYMid meet">
<metadata>
Created by potrace 1.16, written by Peter Selinger 2001-2019
Combined from part_0.svg through part_5.svg with named groups
</metadata>
<g transform="translate(0.000000,68.000000) scale(0.100000,-0.100000)" fill="#000000" stroke="none">
<g id="part-0" class="char-part">
  <path d="M555 598 c-3 -7 -11 -32 -19 -56 -9 -23 -29 -62 -46 -87 -27 -39 -29
-45 -13 -45 11 0 36 17 57 39 36 36 41 39 119 45 87 7 127 27 97 47 -14 9 -28
8 -116 -7 -36 -7 -36 -7 -24 16 11 21 10 26 -10 42 -26 21 -39 23 -45 6z"/>
  <path d="M290 575 c0 -18 -46 -112 -57 -117 -14 -6 -74 -88 -65 -88 14 0 95
57 121 84 19 21 34 26 70 26 71 0 121 11 121 26 0 20 -39 26 -90 15 -41 -9
-72 -4 -42 6 18 7 15 34 -5 49 -24 18 -53 17 -53 -1z"/>
  <path d="M601 453 c39 -52 99 -72 99 -35 0 29 -33 52 -75 52 -34 0 -36 -2 -24
-17z"/>
  <path d="M330 447 c0 -21 47 -60 64 -54 23 9 20 33 -6 51 -27 19 -58 21 -58 3z"/>
  <path d="M540 383 c-25 -2 -52 -6 -60 -9 -8 -3 -44 -7 -80 -9 -75 -3 -160 -15
-160 -22 0 -2 7 -12 16 -21 14 -13 16 -34 12 -126 -3 -72 -9 -119 -18 -133
-13 -20 -13 -25 1 -38 14 -14 22 -14 85 1 57 13 261 25 417 24 36 0 34 15 -4
31 -27 10 -61 10 -208 -4 -239 -23 -229 -24 -233 16 -6 62 10 230 23 237 6 5
62 11 123 14 61 4 138 9 170 12 54 6 58 8 41 20 -18 14 -32 14 -125 7z"/>
  <path d="M525 269 c-22 -4 -68 -8 -102 -8 l-63 -1 20 -32 c11 -18 20 -42 20
-54 0 -21 29 -68 30 -48 0 7 31 15 80 19 61 5 80 11 80 22 0 8 10 28 21 45 18
25 19 32 8 43 -21 19 -49 23 -94 14z m35 -36 c-1 -51 -11 -62 -66 -69 -30 -3
-57 -4 -60 -1 -3 2 -7 21 -11 40 l-5 36 43 4 c96 8 99 8 99 -10z"/>
</g>
<g id="part-1" class="char-part">
  <path d="M546 561 c-3 -21 -22 -62 -42 -91 -19 -28 -33 -54 -31 -57 3 -3 25
13 49 35 38 35 50 40 111 46 77 8 117 20 117 37 0 12 -65 8 -135 -8 l-29 -6
17 26 c15 23 15 27 1 41 -28 29 -51 20 -58 -23z"/>
  <path d="M281 535 c-13 -30 -43 -77 -68 -105 -25 -27 -42 -50 -38 -50 15 0 53
25 90 60 36 34 47 38 114 45 79 7 101 13 101 25 0 15 -43 16 -97 4 -58 -12
-62 -10 -36 19 17 18 17 20 -6 38 -13 10 -26 19 -30 19 -4 0 -18 -25 -30 -55z"/>
  <path d="M600 463 c0 -15 57 -53 80 -53 25 0 26 12 2 33 -21 19 -82 34 -82 20z"/>
  <path d="M341 433 c28 -36 69 -46 69 -18 0 17 -30 35 -61 35 -19 0 -20 -2 -8
-17z"/>
</g>
<g id="part-2" class="char-part">
  <path d="M425 370 c-88 -10 -169 -19 -179 -19 -18 -1 -18 -2 3 -25 22 -23 23
-31 19 -133 -2 -71 -9 -116 -18 -130 -13 -20 -13 -25 2 -39 15 -15 22 -15 89
1 48 11 140 19 257 22 100 3 182 10 182 15 0 5 -11 14 -25 20 -20 9 -67 8
-208 -5 -100 -10 -195 -17 -211 -17 l-28 0 3 129 c2 71 7 133 12 137 4 4 58
11 120 16 252 20 243 19 222 34 -23 17 -37 17 -240 -6z"/>
</g>
<g id="part-3" class="char-part">
  <path d="M525 269 c-22 -4 -68 -8 -101 -8 l-62 -1 19 -37 c10 -21 19 -43 19
-51 0 -7 5 -22 10 -33 8 -14 15 -16 28 -9 9 5 47 12 85 15 50 5 67 10 67 22 0
8 10 28 21 45 18 25 19 32 8 43 -21 19 -49 23 -94 14z m30 -56 c-4 -21 -8 -39
-9 -40 -1 -1 -27 -5 -58 -9 -52 -6 -55 -5 -61 17 -16 59 -11 62 102 67 l33 2
-7 -37z"/>
</g>
</g>
</svg>