<?xml version="1.0" standalone="no"?>
<!DOCTYPE svg PUBLIC "-//W3C//DTD SVG 20010904//EN"
 "http://www.w3.org/TR/2001/REC-SVG-20010904/DTD/svg10.dtd">
<svg version="1.0" xmlns="http://www.w3.org/2000/svg"
 width="96.000000pt" height="68.000000pt" viewBox="0 0 96.000000 68.000000"
 preserveAspectRatio="xMidYMid meet">
<metadata>
Created by potrace 1.16, written by Peter Selinger 2001-2019
Combined from part_0.svg through part_5.svg with named groups
</metadata>
<g transform="translate(0.000000,68.000000) scale(0.100000,-0.100000)" fill="#000000" stroke="none">
<g id="part-0" class="char-part">
  <path d="M560 585 c-36 -7 -87 -13 -115 -14 -37 -1 -46 -4 -37 -13 9 -9 37 -9
114 -1 57 5 106 8 111 6 4 -2 -6 -16 -23 -29 -23 -20 -36 -24 -60 -19 -37 8
-38 -1 -3 -29 l28 -21 -45 -7 c-25 -3 -67 -7 -94 -7 -37 -1 -46 -4 -38 -13 5
-7 16 -48 23 -90 8 -51 17 -78 26 -78 7 0 13 11 13 25 0 22 5 25 35 27 19 0
40 1 47 2 7 1 15 -10 18 -24 l6 -25 15 30 c12 26 20 30 62 33 26 2 47 8 47 13
0 7 -19 9 -47 7 -38 -2 -48 0 -51 14 -3 13 8 18 53 23 31 4 58 5 62 2 3 -3 1
-23 -4 -44 -7 -32 -13 -37 -32 -35 -20 3 -21 2 -9 -17 18 -29 47 -36 65 -18
20 20 36 166 20 186 -9 10 -27 12 -74 7 -57 -6 -63 -5 -63 12 0 12 16 25 50
40 28 12 55 22 60 22 23 0 7 21 -26 35 -41 17 -44 17 -134 0z m144 -150 c4
-11 -1 -15 -18 -15 -13 0 -37 -3 -53 -6 -25 -5 -31 -2 -36 15 -5 19 -1 21 48
21 38 0 55 -4 59 -15z m-154 -14 c0 -14 -10 -20 -41 -25 -41 -7 -59 -2 -59 15
0 13 38 28 73 28 20 1 27 -4 27 -18z m0 -61 c0 -17 -7 -20 -44 -20 -29 0 -46
5 -49 14 -7 18 7 24 56 25 31 1 37 -2 37 -19z"/>
  <path d="M258 499 c43 -41 74 -48 80 -17 6 30 -34 58 -80 58 l-43 -1 43 -40z"/>
  <path d="M146 391 c-6 -9 68 -81 83 -81 16 0 30 26 25 46 -8 30 -94 58 -108
35z"/>
  <path d="M279 253 c-22 -32 -59 -74 -80 -93 l-39 -35 20 -42 c29 -64 42 -58
83 42 14 33 36 86 51 117 14 32 21 60 16 63 -5 3 -28 -20 -51 -52z"/>
  <path d="M520 257 c0 -27 -27 -37 -106 -37 -24 0 -44 -4 -44 -9 0 -15 42 -20
90 -11 25 4 46 7 48 5 10 -9 -55 -89 -105 -130 -39 -33 -50 -45 -33 -40 63 19
114 60 171 137 l34 47 68 1 c64 0 67 -1 67 -24 0 -34 -21 -89 -39 -103 -9 -7
-31 -13 -48 -13 -18 0 -33 -4 -33 -8 0 -16 46 -52 67 -52 42 0 66 41 119 201
10 29 -44 42 -115 28 -53 -10 -64 -9 -79 3 -9 9 -27 19 -39 22 -20 6 -23 4
-23 -17z"/>
</g>
<g id="part-1" class="char-part">
  <path d="M239 521 c12 -22 55 -51 76 -51 31 0 16 40 -20 56 -49 20 -68 19 -56
-5z"/>
  <path d="M179 356 c38 -39 71 -48 71 -17 0 26 -21 41 -67 48 l-38 6 34 -37z"/>
  <path d="M288 257 c-29 -46 -96 -117 -110 -117 -13 0 -9 -28 7 -60 18 -36 41
-39 51 -7 3 12 26 66 50 120 24 53 44 99 44 102 0 16 -19 -1 -42 -38z"/>
</g>
<g id="part-2" class="char-part">
  <path d="M590 590 c-19 -5 -70 -12 -112 -16 -43 -3 -75 -10 -72 -15 7 -12 84
-11 158 1 33 5 62 7 65 5 2 -3 -6 -16 -19 -30 -34 -36 -21 -39 41 -10 30 14
60 25 67 25 24 0 11 21 -23 36 -38 15 -53 16 -105 4z"/>
</g>
<g id="part-3" class="char-part">
  <path d="M600 469 c-63 -10 -134 -18 -158 -18 -41 -1 -42 -2 -35 -28 3 -16 11
-55 17 -87 6 -33 17 -61 24 -64 11 -3 13 12 11 74 l-4 78 30 8 c17 4 75 11
129 15 l99 6 -7 -64 c-9 -77 -12 -82 -39 -73 -21 6 -21 6 2 -20 14 -14 30 -26
37 -26 23 0 42 52 45 124 5 95 -1 98 -151 75z"/>
</g>
<g id="part-4" class="char-part">
  <path d="M685 255 c-5 -2 -27 -6 -47 -10 -21 -3 -38 -11 -38 -16 0 -6 17 -10
38 -9 69 3 72 2 72 -31 0 -42 -26 -94 -53 -106 -12 -5 -37 -6 -55 -2 l-34 7
33 -34 c70 -72 114 -30 176 167 7 22 -57 46 -92 34z"/>
</g>
</g>
</svg>