<?xml version="1.0" standalone="no"?>
<!DOCTYPE svg PUBLIC "-//W3C//DTD SVG 20010904//EN"
 "http://www.w3.org/TR/2001/REC-SVG-20010904/DTD/svg10.dtd">
<svg version="1.0" xmlns="http://www.w3.org/2000/svg"
 width="96.000000pt" height="68.000000pt" viewBox="0 0 96.000000 68.000000"
 preserveAspectRatio="xMidYMid meet">
<metadata>
Created by potrace 1.16, written by Peter Selinger 2001-2019
Combined from part_0.svg through part_5.svg with named groups
</metadata>
<g transform="translate(0.000000,68.000000) scale(0.100000,-0.100000)" fill="#000000" stroke="none">
<g id="part-0" class="char-part">
  <path d="M267 583 c-4 -3 -7 -17 -7 -30 0 -37 -45 -117 -107 -191 -32 -37 -64
-72 -73 -79 -8 -6 -12 -14 -8 -18 8 -8 42 9 89 46 20 16 40 29 44 29 8 0 0
-187 -11 -237 -10 -50 15 -51 87 -4 67 44 74 46 84 31 9 -15 22 -12 29 6 8 20
-28 54 -57 54 -16 0 -17 -2 -7 -15 11 -13 10 -18 -6 -30 -10 -8 -23 -15 -29
-15 -5 0 -20 -3 -32 -6 -22 -6 -23 -3 -23 49 l0 55 48 7 c26 3 54 5 62 3 9 -2
21 18 36 60 20 57 21 64 6 78 -16 16 -27 16 -127 -2 l-40 -7 16 24 c12 17 29
26 64 31 59 8 78 15 71 27 -7 11 -67 4 -80 -9 -20 -20 -26 -10 -12 18 31 57
31 56 72 28 49 -33 77 -34 72 -4 -2 16 -15 27 -43 38 -22 8 -52 27 -67 43 -28
27 -39 32 -51 20z m81 -241 c2 -16 -2 -22 -15 -22 -10 0 -35 -3 -56 -6 -36 -6
-37 -6 -29 17 15 41 95 49 100 11z m2 -49 c-1 -20 -19 -31 -62 -37 -43 -6 -48
-5 -48 12 0 10 3 22 7 25 9 10 103 9 103 0z"/>
  <path d="M540 551 c0 -45 -79 -177 -130 -218 -11 -9 -12 -12 -2 -13 18 0 127
105 153 147 11 18 24 33 28 33 5 0 36 -34 70 -75 l61 -75 53 0 c60 0 95 15 62
25 -99 33 -235 129 -235 165 0 18 -27 40 -49 40 -6 0 -11 -13 -11 -29z"/>
  <path d="M533 357 c-62 -12 -69 -24 -15 -29 34 -3 37 -6 37 -33 0 -26 -4 -30
-30 -33 -66 -5 -95 -13 -89 -23 4 -7 28 -8 65 -4 33 4 59 5 59 3 1 -1 3 -20 6
-41 3 -22 3 -55 -1 -74 -6 -31 -9 -34 -31 -29 -32 8 -30 -4 7 -40 l31 -29 18
22 c15 19 18 38 16 107 -2 47 0 89 3 93 3 4 38 10 76 12 76 3 87 7 65 22 -9 5
-43 7 -80 4 l-65 -7 -1 30 c-1 27 2 31 32 37 19 3 34 10 34 15 0 12 -68 11
-137 -3z"/>
  <path d="M441 155 c-13 -25 -27 -45 -31 -45 -4 0 -10 -7 -14 -15 -9 -23 64 22
93 57 20 25 22 32 10 39 -25 15 -34 10 -58 -36z"/>
  <path d="M722 146 c58 -74 98 -88 84 -31 -7 26 -86 85 -113 85 -8 0 4 -23 29
-54z"/>
</g>
<g id="part-1" class="char-part">
  <path d="M262 537 c-14 -52 -76 -151 -139 -218 -25 -27 -43 -49 -39 -49 38 0
153 113 202 199 l29 50 44 -30 c48 -32 71 -37 71 -15 0 18 -17 31 -62 47 -21
7 -38 19 -38 26 0 12 -30 33 -48 33 -5 0 -14 -19 -20 -43z"/>
</g>
<g id="part-2" class="char-part">
  <path d="M334 171 c20 -39 44 -57 57 -44 16 16 -6 49 -41 61 l-30 11 14 -28z"/>
</g>
<g id="part-3" class="char-part">
  <path d="M537 540 c-6 -43 -51 -122 -106 -182 -18 -21 -29 -38 -24 -38 19 0
86 60 130 117 25 32 48 58 52 58 5 0 36 -33 71 -72 63 -73 63 -73 114 -73 59
0 93 15 61 26 -113 40 -235 125 -235 163 0 22 -19 41 -41 41 -12 0 -18 -11
-22 -40z"/>
</g>
<g id="part-4" class="char-part">
  <path d="M563 361 c-91 -17 -108 -31 -38 -31 54 0 145 19 145 30 0 16 -26 16
-107 1z"/>
</g>
<g id="part-5" class="char-part">
  <path d="M580 320 c13 -8 13 -10 -1 -10 -9 0 -16 -7 -16 -15 0 -8 4 -15 9 -15
4 0 8 -5 8 -11 0 -5 -4 -8 -8 -5 -4 2 -14 1 -22 -5 -13 -7 -12 -9 3 -9 18 0
20 -7 19 -89 -1 -55 -16 -85 -38 -77 -20 8 -6 -18 18 -33 36 -23 49 8 47 114
l-2 90 30 6 c16 3 46 4 66 3 22 -2 37 1 37 8 0 7 -21 9 -63 6 -45 -4 -66 -2
-75 8 -7 8 -8 14 -2 14 5 0 10 7 10 15 0 8 -8 15 -17 15 -15 0 -16 -2 -3 -10z"/>
  <path d="M438 243 c7 -3 16 -2 19 1 4 3 -2 6 -13 5 -11 0 -14 -3 -6 -6z"/>
  <path d="M480 240 c-11 -8 -7 -9 15 -4 37 8 45 14 19 14 -10 0 -26 -5 -34 -10z"/>
  <path d="M470 185 c0 -8 -17 -34 -37 -57 l-38 -42 33 19 c17 11 32 23 32 27 0
4 9 15 19 25 16 15 17 20 5 31 -12 11 -14 10 -14 -3z"/>
  <path d="M710 175 c0 -10 73 -85 82 -85 6 0 5 7 -2 15 -7 9 -10 18 -6 22 3 3
6 1 6 -5 0 -7 5 -12 12 -12 16 0 -22 39 -54 56 -29 15 -38 17 -38 9z"/>
</g>
</g>
</svg>