<?xml version="1.0" standalone="no"?>
<!DOCTYPE svg PUBLIC "-//W3C//DTD SVG 20010904//EN"
 "http://www.w3.org/TR/2001/REC-SVG-20010904/DTD/svg10.dtd">
<svg version="1.0" xmlns="http://www.w3.org/2000/svg"
 width="96.000000pt" height="68.000000pt" viewBox="0 0 96.000000 68.000000"
 preserveAspectRatio="xMidYMid meet">
<metadata>
Created by potrace 1.16, written by Peter Selinger 2001-2019
Combined from part_0.svg through part_5.svg with named groups
</metadata>
<g transform="translate(0.000000,68.000000) scale(0.100000,-0.100000)" fill="#000000" stroke="none">
<g id="part-0" class="char-part">
  <path d="M640 563 c3 -62 3 -63 -40 -63 -37 0 -40 2 -40 29 0 26 -14 41 -40
41 -5 0 -8 -19 -7 -42 2 -43 2 -43 -36 -46 -46 -4 -39 -22 9 -22 22 0 37 -6
41 -15 8 -23 -1 -28 -62 -33 -44 -4 -55 -2 -55 11 0 18 -21 27 -60 27 -21 0
-27 4 -25 18 19 94 9 122 -45 122 -28 0 -29 -2 -20 -26 6 -14 10 -49 10 -79
l0 -53 -42 -7 c-79 -12 -98 -17 -98 -26 0 -5 32 -9 71 -9 l70 0 -22 -39 c-12
-22 -51 -69 -87 -106 -36 -36 -62 -68 -59 -71 11 -11 96 46 128 86 18 22 34
38 37 36 2 -3 -1 -54 -8 -115 -12 -113 -6 -151 24 -151 21 0 26 24 33 161 l6
128 25 -19 c34 -27 52 -25 52 5 0 20 -7 26 -40 36 -31 9 -40 17 -40 34 0 18 8
25 40 33 47 12 51 8 75 -84 8 -32 18 -61 22 -65 5 -4 37 -3 73 2 36 4 104 9
152 10 l87 3 31 63 c16 35 30 70 30 77 0 19 -23 26 -90 26 -49 0 -58 3 -56 17
3 19 19 29 59 38 37 7 25 25 -17 25 -30 0 -33 2 -28 25 5 30 -13 55 -40 55
-16 0 -19 -6 -18 -37z m-2 -128 c-2 -2 -19 -5 -38 -7 -30 -2 -35 0 -38 19 -3
19 2 22 35 25 30 2 39 -1 41 -15 2 -10 2 -20 0 -22z m120 -42 c3 -21 -1 -23
-37 -23 -37 0 -41 2 -41 26 0 23 3 25 38 22 30 -2 38 -7 40 -25z m-118 -2 c0
-34 -64 -44 -73 -12 -6 26 0 31 40 31 26 0 33 -4 33 -19z m-112 -13 c-2 -18
-10 -24 -35 -26 -29 -3 -33 0 -33 20 0 20 6 24 36 26 32 2 35 0 32 -20z m218
-44 c-3 -9 -6 -20 -6 -25 0 -5 -16 -9 -35 -9 -27 0 -35 4 -35 18 0 26 9 32 48
32 27 0 33 -3 28 -16z m-211 -25 c0 -18 -6 -25 -24 -27 -40 -6 -58 43 -18 51
34 6 42 2 42 -24z m105 22 c0 -27 -15 -41 -41 -41 -24 0 -29 4 -29 25 0 22 4
25 35 25 19 0 35 -4 35 -9z"/>
  <path d="M590 224 c-36 -7 -74 -12 -85 -9 -19 4 -20 -1 -19 -79 1 -92 8 -114
30 -95 7 6 43 14 79 17 59 4 67 3 86 -19 16 -18 24 -21 37 -13 13 9 18 31 22
100 8 122 -3 129 -150 98z m110 -38 c0 -22 -4 -23 -86 -30 -48 -3 -89 -4 -91
-2 -3 3 -2 14 2 25 6 21 28 26 128 29 43 2 47 0 47 -22z m-2 -67 c-3 -30 -3
-30 -75 -34 -39 -3 -77 -6 -85 -7 -8 -2 -13 6 -13 22 0 24 4 25 70 33 39 4 75
9 80 11 22 9 26 5 23 -25z"/>
</g>
<g id="part-1" class="char-part">
  <path d="M265 573 c3 -10 9 -45 12 -79 6 -70 9 -68 -89 -80 -80 -9 -63 -27 18
-21 48 4 64 2 64 -7 0 -21 -48 -87 -108 -149 -31 -31 -52 -57 -46 -57 20 0 99
60 124 95 14 19 27 35 30 35 3 0 2 -44 -4 -97 -12 -130 -11 -150 5 -169 12
-14 14 -14 26 2 9 13 13 57 13 151 0 73 2 133 5 133 3 0 15 -9 27 -20 27 -25
61 -27 56 -3 -2 9 -22 23 -45 31 -24 7 -43 20 -43 27 0 29 13 45 39 45 14 0
33 5 41 10 23 15 -6 30 -43 23 l-29 -6 7 66 c7 66 7 67 -20 77 -38 14 -48 13
-40 -7z"/>
</g>
<g id="part-2" class="char-part">
  <path d="M640 550 c0 -46 -2 -50 -24 -50 -13 0 -31 -3 -40 -6 -13 -5 -16 1
-16 29 0 23 -6 37 -16 41 -31 12 -36 7 -29 -30 8 -43 -3 -54 -55 -54 -26 0
-31 -3 -20 -10 8 -5 29 -10 46 -10 23 0 33 -5 37 -20 8 -29 37 -26 37 5 0 20
5 25 24 25 13 0 31 3 40 6 12 5 16 0 16 -21 0 -34 29 -31 47 5 8 16 23 27 43
30 43 7 42 24 -1 28 -33 3 -35 5 -31 34 5 32 -9 48 -40 48 -15 0 -18 -9 -18
-50z"/>
</g>
<g id="part-3" class="char-part">
  <path d="M585 424 c-55 -7 -119 -13 -143 -13 -41 -1 -42 -2 -28 -23 7 -13 19
-47 26 -76 7 -28 15 -54 19 -56 3 -2 31 0 61 5 30 5 99 10 153 11 l98 1 34 71
c31 65 33 72 18 84 -20 15 -102 14 -238 -4z m168 -42 c-3 -80 1 -77 -140 -90
-150 -14 -142 -19 -147 86 -1 15 15 19 114 28 63 6 129 11 145 10 27 -1 30 -4
28 -34z"/>
</g>
<g id="part-4" class="char-part">
  <path d="M595 224 c-38 -7 -79 -11 -90 -9 -19 4 -20 0 -17 -78 4 -100 7 -113
26 -98 8 6 44 14 81 18 63 6 69 5 86 -18 15 -20 21 -22 36 -13 14 9 19 29 23
100 7 122 1 126 -145 98z m103 -75 l-3 -61 -71 -4 c-39 -1 -77 -4 -85 -6 -9
-2 -14 6 -14 22 0 24 3 25 82 33 52 6 81 13 77 19 -4 7 -35 8 -85 3 -75 -6
-79 -5 -79 14 0 25 41 39 123 40 l58 1 -3 -61z"/>
</g>
</g>
</svg>