<?xml version="1.0" standalone="no"?>
<!DOCTYPE svg PUBLIC "-//W3C//DTD SVG 20010904//EN"
 "http://www.w3.org/TR/2001/REC-SVG-20010904/DTD/svg10.dtd">
<svg version="1.0" xmlns="http://www.w3.org/2000/svg"
 width="96.000000pt" height="68.000000pt" viewBox="0 0 96.000000 68.000000"
 preserveAspectRatio="xMidYMid meet">
<metadata>
Created by potrace 1.16, written by Peter Selinger 2001-2019
Combined from part_0.svg through part_5.svg with named groups
</metadata>
<g transform="translate(0.000000,68.000000) scale(0.100000,-0.100000)" fill="#000000" stroke="none">
<g id="part-0" class="char-part">
  <path d="M339 612 c0 -4 0 -36 1 -71 1 -49 -2 -63 -12 -59 -49 19 -56 19 -63
-1 -3 -11 -22 -35 -41 -53 -40 -38 -45 -58 -9 -34 13 9 31 16 38 16 14 0 47
-31 47 -44 0 -3 -21 -20 -47 -36 -26 -17 -41 -30 -35 -30 18 0 103 44 128 67
124 108 133 123 73 123 -22 0 -29 5 -29 20 0 16 9 21 50 26 28 4 53 10 55 15
8 12 -32 21 -64 14 -25 -5 -30 -3 -33 16 -2 15 -13 25 -30 30 -16 4 -28 4 -29
1z m61 -150 c0 -4 -15 -22 -32 -38 -33 -30 -33 -30 -66 -13 -27 14 -30 18 -18
28 28 23 116 41 116 23z"/>
  <path d="M575 542 c-96 -23 -93 -21 -61 -45 16 -12 38 -30 50 -39 l21 -18 -28
-25 c-16 -14 -48 -31 -72 -37 -40 -11 -42 -13 -34 -35 5 -14 9 -42 9 -63 0
-44 -1 -45 -137 -56 -47 -3 -83 -11 -83 -17 0 -7 30 -8 90 -4 50 4 90 3 90 -2
0 -15 -93 -96 -144 -126 -27 -16 -44 -31 -38 -33 18 -6 111 49 164 97 27 24
51 41 54 39 2 -3 0 -25 -5 -49 -14 -60 -13 -82 4 -105 22 -29 35 -2 35 77 0
36 3 69 7 72 3 4 39 -24 79 -63 64 -62 76 -70 110 -70 45 0 84 9 84 19 0 4
-21 13 -48 19 -26 7 -76 32 -111 55 -35 23 -75 49 -88 57 -12 8 -23 18 -23 23
0 4 50 7 110 7 63 0 110 4 110 10 0 15 -68 23 -146 16 l-74 -7 3 66 c1 39 6
65 13 65 6 0 32 11 57 24 l46 25 40 -30 c23 -16 48 -29 56 -29 29 0 15 29 -30
61 -48 34 -48 41 -5 87 11 12 19 26 16 31 -10 16 -61 17 -121 3z m50 -42 c-15
-30 -16 -30 -51 -15 -20 8 -38 15 -40 15 -2 0 -4 4 -4 9 0 9 17 12 93 19 16 2
16 0 2 -28z"/>
  <path d="M592 338 c-7 -7 -12 -16 -12 -21 0 -5 -7 -15 -15 -24 -23 -22 -11
-28 27 -13 54 22 61 30 42 51 -20 22 -26 23 -42 7z"/>
  <path d="M310 312 c0 -15 46 -52 63 -52 28 0 21 39 -9 50 -31 12 -54 13 -54 2z"/>
</g>
<g id="part-1" class="char-part">
  <path d="M344 595 c3 -9 6 -38 6 -65 0 -43 2 -48 20 -43 10 3 19 8 18 12 -4
34 3 41 46 41 45 0 68 13 42 23 -8 3 -30 3 -50 0 -30 -5 -35 -3 -38 18 -2 16
-11 25 -27 27 -19 3 -22 0 -17 -13z"/>
</g>
<g id="part-2" class="char-part">
  <path d="M585 544 c-27 -7 -60 -14 -72 -14 -27 0 -31 -26 -5 -34 9 -3 31 -17
47 -30 27 -22 28 -26 15 -39 -8 -8 -33 -25 -55 -36 -36 -19 -37 -21 -14 -21
14 0 47 11 73 25 l48 25 38 -30 c21 -16 45 -30 55 -30 28 0 13 32 -32 66 l-41
32 30 36 c45 54 6 77 -87 50z m45 -33 c0 -32 -21 -41 -62 -24 -50 20 -48 31 5
36 23 2 45 4 50 5 4 1 7 -6 7 -17z"/>
</g>
<g id="part-3" class="char-part">
  <path d="M450 351 c5 -11 10 -36 10 -55 0 -29 4 -36 19 -36 15 0 21 10 26 40
8 47 -6 70 -42 70 -20 0 -22 -3 -13 -19z"/>
  <path d="M576 310 c-29 -44 -25 -47 34 -24 43 18 46 29 13 51 -18 12 -22 10
-47 -27z"/>
  <path d="M316 308 c16 -29 38 -48 56 -48 28 0 23 39 -8 50 -35 14 -57 13 -48
-2z"/>
</g>
<g id="part-4" class="char-part">
  <path d="M457 247 c-2 -7 -18 -13 -33 -14 -160 -11 -197 -16 -180 -25 11 -6
49 -8 98 -3 77 6 79 6 69 -13 -14 -27 -85 -87 -139 -119 -24 -14 -41 -28 -38
-30 11 -11 114 47 162 90 29 26 55 47 58 47 6 0 0 -49 -10 -83 -9 -28 5 -87
20 -87 20 0 26 23 26 101 0 38 4 69 8 69 4 0 34 -27 67 -61 33 -33 71 -65 85
-71 26 -10 120 -1 120 11 0 4 -23 13 -51 20 -48 13 -181 93 -209 126 -11 13
-2 15 71 17 46 0 94 0 106 -1 12 -1 24 3 28 8 10 17 -43 24 -131 17 -56 -5
-84 -4 -84 3 0 15 -37 14 -43 -2z"/>
</g>
</g>
</svg>