<?xml version="1.0" standalone="no"?>
<!DOCTYPE svg PUBLIC "-//W3C//DTD SVG 20010904//EN"
 "http://www.w3.org/TR/2001/REC-SVG-20010904/DTD/svg10.dtd">
<svg version="1.0" xmlns="http://www.w3.org/2000/svg"
 width="96.000000pt" height="68.000000pt" viewBox="0 0 96.000000 68.000000"
 preserveAspectRatio="xMidYMid meet">
<metadata>
Created by potrace 1.16, written by Peter Selinger 2001-2019
Combined from part_0.svg through part_5.svg with named groups
</metadata>
<g transform="translate(0.000000,68.000000) scale(0.100000,-0.100000)" fill="#000000" stroke="none">
<g id="part-0" class="char-part">
  <path d="M585 559 c-22 -4 -51 -6 -65 -3 l-25 4 -1 -92 c-1 -69 -7 -104 -21
-135 -11 -24 -22 -41 -24 -38 -3 2 -10 -5 -17 -15 -10 -16 -10 -20 1 -20 17 0
60 46 81 88 12 22 24 32 40 32 13 0 44 3 70 6 46 7 46 6 46 -22 0 -41 -13 -57
-39 -49 -31 10 -26 -10 12 -39 32 -25 32 -25 52 -6 17 18 20 34 20 123 1 56 4
112 8 123 16 47 -38 64 -138 43z m85 -44 c0 -34 -1 -35 -42 -35 -24 0 -53 -3
-66 -6 -22 -6 -23 -4 -20 27 3 36 21 45 96 48 30 1 32 -1 32 -34z m0 -74 c0
-28 -2 -28 -66 -35 -37 -4 -69 -5 -71 -2 -10 10 7 55 20 51 6 -3 32 -1 57 4
25 5 48 9 53 10 4 1 7 -12 7 -28z"/>
  <path d="M315 535 c-27 -7 -63 -14 -80 -14 l-30 -1 3 -107 c4 -111 16 -149 37
-120 7 10 32 17 66 19 43 3 57 -1 70 -16 14 -17 16 -17 32 -1 14 13 17 36 17
126 0 108 0 110 -26 119 -29 11 -23 12 -89 -5z m53 -62 c3 -29 0 -33 -20 -32
-13 1 -38 -2 -56 -6 -33 -8 -33 -7 -30 26 3 35 27 49 78 46 20 -2 26 -8 28
-34z m2 -95 l0 -33 -61 -3 -60 -2 3 27 c2 23 9 29 38 34 75 13 80 12 80 -23z"/>
  <path d="M510 229 c-30 -4 -103 -9 -162 -11 -60 -2 -108 -5 -108 -8 0 -3 9
-34 20 -69 10 -35 17 -68 14 -73 -3 -4 -39 -8 -80 -8 -41 0 -74 -4 -74 -10 0
-18 76 -23 190 -12 63 6 199 12 303 12 103 0 195 4 204 7 14 6 14 8 -3 20 -11
8 -46 13 -91 13 -40 0 -73 3 -73 7 0 4 12 32 27 61 27 53 27 54 8 68 -21 15
-86 16 -175 3z m-17 -81 c-2 -32 1 -58 6 -58 12 0 44 88 37 105 -4 12 4 15 40
15 l46 0 -7 -57 c-4 -32 -9 -61 -12 -65 -8 -14 -170 -9 -175 5 -3 6 -6 35 -7
64 l-2 51 38 -1 38 -2 -2 -57z m-115 25 c12 -32 32 -94 32 -99 0 -2 -22 -4
-49 -4 -48 0 -48 0 -55 38 -11 69 -8 80 22 85 15 2 30 5 33 6 4 0 11 -11 17
-26z"/>
</g>
<g id="part-1" class="char-part">
  <path d="M320 530 c-14 -4 -47 -8 -73 -9 -46 -1 -47 -2 -36 -23 8 -14 9 -49 5
-102 -6 -83 4 -126 23 -97 5 8 33 16 67 19 47 4 60 2 70 -13 7 -10 20 -15 28
-12 21 8 28 217 7 235 -16 13 -53 14 -91 2z m44 -22 c20 -63 19 -64 -45 -74
-33 -6 -62 -8 -64 -5 -3 2 -5 19 -5 37 0 29 4 33 38 42 52 14 72 14 76 0z m14
-131 l3 -37 -50 0 c-27 0 -56 -3 -65 -6 -13 -5 -16 1 -16 29 0 33 1 34 53 44
69 13 71 12 75 -30z"/>
</g>
<g id="part-2" class="char-part">
  <path d="M610 564 c-35 -7 -80 -10 -98 -7 -33 6 -34 5 -22 -17 9 -16 10 -46 6
-97 -8 -90 -16 -111 -56 -157 -35 -40 -30 -46 14 -17 33 22 66 68 66 94 0 12
8 17 29 17 15 0 49 3 75 6 l47 7 -3 -39 c-3 -38 -4 -39 -38 -37 l-35 3 37 -35
c21 -19 41 -35 45 -35 24 0 36 51 38 155 1 60 5 117 9 126 7 16 -6 32 -34 41
-8 2 -44 -1 -80 -8z m58 -50 c3 -28 0 -31 -25 -31 -15 0 -45 -3 -65 -7 l-38
-7 0 35 c0 32 3 35 33 39 17 2 46 4 62 3 26 -1 30 -5 33 -32z m2 -74 c0 -25
-4 -30 -24 -30 -13 0 -44 -3 -70 -6 -46 -7 -48 -6 -44 17 3 21 11 26 63 35 33
7 63 12 68 13 4 1 7 -12 7 -29z"/>
</g>
<g id="part-3" class="char-part">
  <path d="M440 224 c-74 -7 -150 -10 -168 -7 -37 6 -37 8 -13 -77 12 -44 24
-66 35 -68 15 -3 16 3 10 56 l-6 59 32 7 c18 3 91 9 161 13 l129 6 0 -29 c0
-16 -4 -45 -10 -63 -11 -41 -11 -42 17 -35 12 4 26 19 32 35 6 17 20 43 31 59
l20 29 -22 15 c-26 19 -61 19 -248 0z"/>
</g>
<g id="part-4" class="char-part">
  <path d="M497 203 c-4 -3 -7 -32 -7 -64 0 -55 -1 -57 -29 -61 -27 -4 -29 -1
-35 31 -3 20 -6 48 -6 64 0 19 -5 27 -18 27 -29 0 -30 -7 -10 -66 11 -31 17
-58 16 -60 -2 -2 -67 -6 -143 -10 -77 -3 -142 -8 -144 -10 -13 -12 20 -19 87
-17 322 6 581 15 602 19 25 6 25 6 5 21 -17 13 -44 14 -167 9 l-147 -7 21 50
c11 28 18 57 15 66 -7 15 -28 20 -40 8z"/>
</g>
</g>
</svg>