<?xml version="1.0" standalone="no"?>
<!DOCTYPE svg PUBLIC "-//W3C//DTD SVG 20010904//EN"
 "http://www.w3.org/TR/2001/REC-SVG-20010904/DTD/svg10.dtd">
<svg version="1.0" xmlns="http://www.w3.org/2000/svg"
 width="96.000000pt" height="68.000000pt" viewBox="0 0 96.000000 68.000000"
 preserveAspectRatio="xMidYMid meet">
<metadata>
Created by potrace 1.16, written by Peter Selinger 2001-2019
Combined from part_0.svg through part_5.svg with named groups
</metadata>
<g transform="translate(0.000000,68.000000) scale(0.100000,-0.100000)" fill="#000000" stroke="none">
<g id="part-0" class="char-part">
  <path d="M420 643 c0 -5 4 -25 9 -46 8 -32 7 -38 -7 -36 -10 1 -57 1 -106 0
-85 -1 -88 -2 -73 -19 9 -10 21 -43 27 -73 16 -86 40 -133 52 -99 2 6 71 12
167 15 90 2 165 5 166 7 2 2 13 31 24 66 12 35 27 72 34 83 10 16 9 21 -3 29
-31 20 -79 28 -121 19 -78 -15 -89 -12 -89 20 0 24 -5 29 -31 35 -41 8 -49 8
-49 -1z m218 -113 l1 -30 -75 0 c-72 0 -74 1 -74 24 0 27 9 30 96 34 50 2 51
2 52 -28z m-198 -14 c0 -21 -6 -26 -43 -31 -70 -11 -92 -4 -95 28 l-3 27 70 0
c69 0 71 -1 71 -24z m190 -52 c0 -40 -16 -49 -79 -46 -56 4 -61 6 -61 27 0 20
6 24 38 28 86 9 102 7 102 -9z m-184 -26 c-1 -25 -25 -35 -88 -37 -36 -1 -38
1 -38 29 l0 30 64 0 c59 0 63 -1 62 -22z"/>
  <path d="M475 334 c-49 -8 -109 -13 -131 -11 l-42 4 6 -59 c2 -33 -1 -91 -8
-129 -12 -62 -12 -72 3 -86 15 -15 17 -14 26 10 6 14 11 68 12 120 1 52 5 100
9 107 4 6 49 15 101 20 156 15 139 28 139 -106 l0 -117 -35 6 c-44 7 -44 -4 0
-37 28 -22 39 -25 55 -16 25 14 29 31 32 172 4 153 9 149 -167 122z"/>
  <path d="M428 253 c-46 -5 -50 -23 -5 -23 57 0 137 13 137 21 0 9 -59 9 -132
2z"/>
  <path d="M430 176 l-55 -11 50 -3 c62 -4 135 6 135 19 0 12 -60 10 -130 -5z"/>
</g>
<g id="part-1" class="char-part">
  <path d="M428 628 c7 -7 12 -22 12 -35 0 -35 47 -32 56 3 8 31 -7 44 -50 44
-23 0 -27 -3 -18 -12z"/>
</g>
<g id="part-2" class="char-part">
  <path d="M510 579 c-63 -9 -152 -18 -197 -18 l-82 -1 19 -32 c10 -18 22 -57
26 -85 8 -60 28 -96 42 -75 7 10 51 14 172 17 l163 3 24 64 c13 34 28 73 35
86 10 19 8 25 -8 37 -10 8 -27 15 -36 15 -9 0 -22 2 -30 4 -7 2 -65 -5 -128
-15z m128 -46 c-3 -27 -5 -28 -75 -31 -72 -3 -73 -2 -73 22 0 27 14 32 103 35
47 1 48 0 45 -26z m-198 -17 c0 -22 -5 -25 -61 -31 -64 -8 -79 -1 -79 38 0 15
10 17 70 17 67 0 70 -1 70 -24z m184 -63 c-4 -16 -8 -30 -9 -33 -2 -3 -30 -3
-64 -2 -56 4 -61 6 -61 27 0 21 6 24 43 28 102 9 98 10 91 -20z m-184 -17 c0
-19 -6 -24 -37 -30 -73 -12 -83 -9 -83 24 l0 30 60 0 c56 0 60 -1 60 -24z"/>
</g>
<g id="part-3" class="char-part">
  <path d="M510 338 c-25 -5 -84 -10 -131 -11 -86 -2 -86 -2 -78 -25 13 -33 10
-131 -5 -172 -12 -34 -4 -90 13 -90 17 0 31 55 31 118 0 37 3 83 6 103 7 41 2
39 172 55 l72 7 0 -118 0 -118 -42 6 -43 5 40 -34 c47 -40 60 -42 79 -11 21
33 26 274 6 287 -18 12 -60 11 -120 -2z"/>
  <path d="M425 253 c-51 -8 -53 -23 -3 -23 65 0 138 11 138 21 0 9 -78 10 -135
2z"/>
  <path d="M431 179 c-66 -13 -62 -19 15 -19 77 0 116 8 108 21 -6 11 -63 10
-123 -2z"/>
</g>
</g>
</svg>