<?xml version="1.0" standalone="no"?>
<!DOCTYPE svg PUBLIC "-//W3C//DTD SVG 20010904//EN"
 "http://www.w3.org/TR/2001/REC-SVG-20010904/DTD/svg10.dtd">
<svg version="1.0" xmlns="http://www.w3.org/2000/svg"
 width="96.000000pt" height="68.000000pt" viewBox="0 0 96.000000 68.000000"
 preserveAspectRatio="xMidYMid meet">
<metadata>
Created by potrace 1.16, written by Peter Selinger 2001-2019
Combined from part_0.svg through part_5.svg with named groups
</metadata>
<g transform="translate(0.000000,68.000000) scale(0.100000,-0.100000)" fill="#000000" stroke="none">
<g id="part-0" class="char-part">
  <path d="M546 632 c-3 -3 -6 -18 -6 -33 0 -25 -5 -29 -42 -37 l-43 -9 28 -12
c16 -6 33 -9 38 -5 5 3 9 -6 9 -20 0 -13 4 -36 10 -51 10 -26 4 -33 -34 -39
-30 -4 -29 -16 2 -22 37 -8 45 -42 12 -51 -16 -4 -18 -9 -10 -19 8 -9 7 -19
-5 -38 -10 -14 -21 -26 -26 -26 -5 0 -9 -4 -9 -10 0 -17 16 -11 45 16 25 23
31 24 52 13 35 -19 52 2 22 29 -19 19 -21 26 -13 64 8 37 13 43 37 46 l27 3 0
-66 c0 -109 40 -155 135 -155 52 0 54 7 26 65 l-19 39 -7 -32 c-5 -27 -11 -32
-35 -32 -35 0 -70 41 -70 82 0 16 9 47 20 70 24 50 18 62 -29 54 -76 -12 -76
-12 -79 12 -3 18 -8 23 -23 19 -24 -6 -24 2 1 31 15 19 34 25 86 30 37 4 69
12 71 18 5 15 -42 27 -78 19 -23 -5 -28 -3 -31 16 -3 22 -49 45 -62 31z"/>
  <path d="M296 611 c-3 -4 1 -17 9 -27 16 -21 19 -35 8 -33 -5 1 -34 1 -66 0
-63 -1 -72 -15 -26 -38 19 -9 35 -9 68 -1 38 10 46 9 56 -5 17 -24 33 -21 37
5 2 13 12 24 26 28 33 7 27 25 -8 23 -22 -2 -30 2 -36 20 -4 12 -12 25 -18 29
-15 10 -44 10 -50 -1z"/>
  <path d="M309 483 c-1 -5 -1 -15 0 -24 2 -17 -26 -29 -67 -29 -14 0 -21 -4
-17 -11 4 -6 25 -9 48 -7 31 2 41 -1 42 -14 3 -18 -14 -22 -128 -34 -79 -7
-77 -21 2 -26 l54 -3 -31 -32 c-16 -18 -25 -33 -19 -33 20 0 77 51 77 70 0 15
9 19 55 22 47 3 55 1 55 -15 0 -21 39 -38 69 -30 27 7 17 23 -15 23 -30 0 -32
25 -1 36 17 6 10 8 -30 11 -66 5 -74 29 -13 39 56 9 60 24 7 24 -36 0 -46 4
-50 20 -5 19 -36 29 -38 13z"/>
  <path d="M313 318 c2 -18 -4 -24 -25 -26 -38 -4 -35 -22 3 -22 24 0 30 -4 27
-17 -2 -14 -19 -20 -67 -28 -58 -9 -62 -11 -47 -24 15 -13 23 -12 64 2 26 8
73 23 105 32 68 19 75 29 12 19 -37 -5 -44 -4 -40 8 3 8 18 19 33 25 26 10 26
11 4 12 -15 1 -26 9 -29 21 -8 29 -43 27 -40 -2z"/>
  <path d="M450 218 c-36 -5 -69 -14 -75 -20 -11 -11 159 -3 192 9 15 6 14 7 -3
14 -23 9 -32 9 -114 -3z"/>
  <path d="M639 175 c-3 -2 -76 -9 -163 -16 -88 -6 -180 -14 -205 -18 -44 -7
-45 -8 -20 -18 17 -8 42 -8 78 -1 29 5 56 7 59 3 9 -9 -28 -42 -78 -68 -50
-26 -60 -53 -20 -51 14 1 87 14 162 29 l137 27 26 -26 c30 -31 55 -34 55 -7 0
27 -65 81 -97 81 -21 0 -24 -3 -15 -12 20 -20 14 -28 -20 -28 -17 0 -59 -5
-94 -11 -91 -16 -110 -8 -51 21 30 15 47 31 47 42 0 16 12 18 140 18 89 0 140
4 140 10 0 17 -68 38 -81 25z"/>
</g>
<g id="part-1" class="char-part">
  <path d="M550 601 c0 -31 -14 -41 -56 -41 -14 0 -22 -4 -19 -10 3 -5 19 -10
36 -10 20 0 29 -5 29 -17 0 -14 3 -13 23 5 18 17 36 22 78 22 58 0 90 12 69
25 -15 9 -86 9 -101 -1 -7 -4 -9 0 -5 14 5 15 1 24 -13 31 -31 17 -41 13 -41
-18z"/>
  <path d="M300 606 c0 -8 5 -18 10 -21 6 -3 10 -13 10 -21 0 -11 -15 -14 -61
-14 -42 0 -59 -4 -57 -12 9 -26 36 -33 85 -20 45 12 48 12 65 -10 17 -23 22
-19 19 13 -1 11 10 19 31 25 l33 8 -37 3 c-30 3 -38 8 -38 24 0 12 -10 23 -26
29 -33 13 -34 13 -34 -4z"/>
</g>
<g id="part-2" class="char-part">
  <path d="M306 466 c5 -23 2 -25 -40 -31 -54 -9 -51 -25 5 -25 27 0 39 -4 39
-14 0 -15 -25 -21 -127 -32 -69 -7 -76 -24 -10 -24 32 0 199 23 215 29 1 1 16
1 32 1 17 0 30 5 30 10 0 6 -22 10 -50 10 -37 0 -50 4 -50 14 0 10 16 17 45
22 70 10 58 29 -16 24 -19 -1 -28 5 -32 19 -3 13 -13 21 -26 21 -18 0 -20 -4
-15 -24z"/>
</g>
<g id="part-3" class="char-part">
  <path d="M480 355 c0 -10 111 -76 119 -71 19 12 12 25 -21 42 -30 16 -98 36
-98 29z"/>
</g>
<g id="part-4" class="char-part">
  <path d="M366 98 c-17 -17 -44 -37 -62 -44 -38 -16 -46 -25 -35 -43 7 -11 20
-11 72 2 35 9 106 23 157 33 l93 17 27 -26 c33 -31 52 -35 52 -9 0 27 -51 71
-90 79 -32 6 -34 5 -21 -11 8 -9 12 -18 10 -20 -7 -5 -172 -26 -204 -26 -27 1
-25 4 28 31 57 29 67 49 24 49 -12 -1 -35 -15 -51 -32z"/>
</g>
</g>
</svg>