<?xml version="1.0" standalone="no"?>
<!DOCTYPE svg PUBLIC "-//W3C//DTD SVG 20010904//EN"
 "http://www.w3.org/TR/2001/REC-SVG-20010904/DTD/svg10.dtd">
<svg version="1.0" xmlns="http://www.w3.org/2000/svg"
 width="96.000000pt" height="68.000000pt" viewBox="0 0 96.000000 68.000000"
 preserveAspectRatio="xMidYMid meet">
<metadata>
Created by potrace 1.16, written by Peter Selinger 2001-2019
Combined from part_0.svg through part_5.svg with named groups
</metadata>
<g transform="translate(0.000000,68.000000) scale(0.100000,-0.100000)" fill="#000000" stroke="none">
<g id="part-0" class="char-part">
  <path d="M590 546 c0 -29 -73 -157 -98 -174 -31 -19 -42 -32 -42 -49 0 -23 38
-23 150 2 137 30 161 31 178 5 7 -11 19 -20 27 -20 20 0 19 40 -3 66 -20 25
-91 69 -98 61 -7 -6 18 -47 28 -47 5 0 8 -4 8 -8 0 -10 -198 -47 -207 -39 -3
3 12 33 33 67 79 124 77 119 64 135 -16 19 -40 19 -40 1z"/>
  <path d="M265 520 c-22 -5 -53 -6 -68 -3 -28 6 -28 6 -20 -33 4 -21 7 -79 6
-129 -3 -109 2 -137 25 -134 9 1 20 1 25 0 13 -2 -20 -56 -62 -99 -23 -23 -37
-42 -32 -42 20 0 151 105 151 121 0 4 -10 11 -22 15 l-23 8 25 7 c47 13 89 10
99 -8 9 -16 12 -16 25 -3 22 23 27 287 6 300 -17 11 -78 11 -135 0z m86 -54
c5 -17 7 -31 6 -32 -1 -1 -30 -5 -64 -9 l-63 -7 0 35 c0 34 2 36 38 40 65 7
75 4 83 -27z m9 -89 c0 -21 -6 -25 -65 -33 l-65 -10 0 27 c0 25 4 28 43 32 90
8 87 8 87 -16z m0 -86 c0 -28 -2 -29 -66 -36 -36 -4 -68 -4 -71 -1 -3 3 -3 16
1 30 5 22 12 25 59 29 28 2 58 4 65 5 7 1 12 -9 12 -27z"/>
  <path d="M665 250 c-33 -4 -93 -8 -132 -9 -41 -1 -73 -5 -73 -11 0 -5 4 -10 8
-10 10 0 28 -51 37 -102 7 -34 9 -36 38 -32 18 3 74 8 126 12 91 7 94 8 98 32
1 14 11 42 20 64 16 37 16 39 -2 52 -20 15 -27 15 -120 4z m58 -69 c-1 -24 -6
-47 -10 -51 -4 -4 -47 -11 -94 -14 l-87 -7 -6 38 c-4 21 -9 46 -12 55 -4 14 4
18 53 21 32 2 81 3 108 3 l50 -1 -2 -44z"/>
  <path d="M330 184 c0 -17 73 -95 82 -86 13 13 -6 57 -34 76 -23 16 -48 21 -48
10z"/>
</g>
<g id="part-1" class="char-part">
  <path d="M290 519 c-25 -6 -61 -8 -82 -7 -33 3 -35 2 -26 -15 5 -11 8 -64 6
-118 -3 -89 -1 -99 15 -99 9 0 17 7 17 15 0 8 8 15 18 15 9 0 41 3 70 6 44 6
52 4 52 -10 0 -10 8 -16 24 -16 24 0 25 1 28 103 3 89 1 104 -15 120 -21 19
-39 20 -107 6z m64 -35 c16 -41 7 -51 -55 -63 -34 -7 -65 -9 -69 -4 -13 14 1
72 19 76 42 12 99 7 105 -9z m6 -112 c0 -16 -5 -29 -12 -29 -7 0 -39 -3 -70
-7 l-58 -7 0 30 c0 33 10 37 93 40 45 1 47 0 47 -27z"/>
</g>
<g id="part-2" class="char-part">
  <path d="M225 196 c-9 -19 -37 -55 -62 -80 -57 -58 -27 -49 61 19 68 52 77 72
39 86 -19 7 -25 3 -38 -25z"/>
  <path d="M330 185 c0 -13 66 -95 77 -95 23 0 14 41 -16 71 -25 25 -61 39 -61
24z"/>
</g>
<g id="part-3" class="char-part">
  <path d="M582 521 c-16 -53 -80 -147 -109 -160 -17 -8 -23 -18 -21 -34 4 -28
34 -28 185 4 l112 23 24 -22 c30 -28 47 -28 47 1 -1 28 -26 60 -70 86 -52 31
-65 26 -35 -13 l26 -34 -63 -10 c-129 -21 -148 -24 -148 -17 0 4 20 37 44 74
66 103 69 110 55 127 -20 24 -35 16 -47 -25z"/>
</g>
<g id="part-4" class="char-part">
  <path d="M665 250 c-27 -5 -85 -9 -128 -9 l-77 -1 19 -37 c10 -21 22 -57 26
-81 5 -31 11 -42 21 -38 7 3 65 8 128 12 86 5 113 10 109 19 -2 7 6 37 18 65
22 51 22 53 4 66 -20 15 -42 16 -120 4z m61 -67 c-3 -26 -10 -50 -14 -54 -4
-4 -46 -10 -93 -13 l-87 -7 -6 38 c-4 21 -9 46 -12 55 -5 18 19 22 155 26 l64
2 -7 -47z"/>
</g>
</g>
</svg>