<?xml version="1.0" standalone="no"?>
<!DOCTYPE svg PUBLIC "-//W3C//DTD SVG 20010904//EN"
 "http://www.w3.org/TR/2001/REC-SVG-20010904/DTD/svg10.dtd">
<svg version="1.0" xmlns="http://www.w3.org/2000/svg"
 width="96.000000pt" height="68.000000pt" viewBox="0 0 96.000000 68.000000"
 preserveAspectRatio="xMidYMid meet">
<metadata>
Created by potrace 1.16, written by Peter Selinger 2001-2019
Combined from part_0.svg through part_5.svg with named groups
</metadata>
<g transform="translate(0.000000,68.000000) scale(0.100000,-0.100000)" fill="#000000" stroke="none">
<g id="part-0" class="char-part">
  <path d="M668 562 c-7 -10 -35 -32 -63 -48 -40 -25 -56 -29 -79 -23 -37 10
-49 3 -36 -21 28 -52 -4 -237 -58 -342 -2 -5 1 -8 6 -8 21 0 80 112 92 174
l12 63 55 7 c30 3 59 4 65 0 6 -4 9 -57 8 -138 -3 -182 -2 -186 15 -186 8 0
15 3 15 8 0 4 4 33 10 64 5 32 10 105 11 162 l2 104 61 9 c61 9 61 9 31 22
-25 10 -50 10 -140 -3 -139 -20 -135 -21 -135 10 0 31 17 64 33 64 6 0 34 9
62 19 27 11 65 25 83 31 39 15 40 23 7 38 -35 16 -42 15 -57 -6z"/>
  <path d="M343 551 c-20 -32 -99 -81 -131 -81 -30 0 -30 -1 -21 -36 22 -78 -27
-286 -75 -316 -6 -4 -7 -10 -3 -14 13 -13 76 69 93 120 9 28 23 57 32 64 9 6
43 12 76 12 81 0 106 8 106 32 0 11 10 38 22 60 35 62 10 69 -134 37 -88 -20
-90 10 -3 44 114 44 138 58 124 73 -8 7 -28 16 -44 19 -23 5 -33 2 -42 -14z
m49 -171 c-2 -19 -7 -38 -11 -42 -3 -4 -39 -10 -79 -14 l-73 -7 7 39 c3 21 8
40 9 42 5 6 100 20 125 19 22 -2 25 -6 22 -37z"/>
</g>
<g id="part-1" class="char-part">
  <path d="M351 552 c-6 -11 -34 -35 -62 -53 -71 -47 -43 -48 57 -4 86 38 98 49
67 58 -10 2 -26 8 -35 12 -11 4 -20 0 -27 -13z"/>
</g>
<g id="part-2" class="char-part">
  <path d="M187 448 c12 -34 6 -154 -11 -212 -9 -28 -29 -73 -46 -99 -23 -37
-26 -46 -11 -38 42 23 82 89 107 178 3 11 25 16 146 28 43 5 56 10 52 20 -3 8
5 35 17 60 20 39 21 48 9 55 -21 13 -46 12 -110 -5 -30 -8 -65 -15 -78 -15
-19 0 -21 4 -16 25 6 23 4 25 -31 25 -33 0 -36 -2 -28 -22z m205 -34 c5 -5 -6
-72 -14 -79 -1 -2 -36 -7 -77 -11 l-74 -7 8 39 c4 21 8 41 10 43 4 3 92 17
126 20 9 0 18 -1 21 -5z"/>
</g>
<g id="part-3" class="char-part">
  <path d="M660 555 c-42 -45 -106 -75 -139 -65 -37 10 -42 5 -29 -32 15 -43 -6
-205 -36 -280 -27 -67 -20 -75 17 -20 38 55 57 117 64 209 3 45 9 86 12 92 4
6 49 26 101 44 52 19 96 39 97 44 3 9 -38 33 -56 33 -4 0 -18 -11 -31 -25z"/>
</g>
<g id="part-4" class="char-part">
  <path d="M646 401 c-64 -10 -101 -21 -104 -30 -4 -11 4 -13 39 -8 24 3 93 11
152 18 94 11 106 15 91 26 -22 16 -53 15 -178 -6z"/>
</g>
<g id="part-5" class="char-part">
  <path d="M673 243 c-1 -74 2 -123 7 -123 6 0 10 -5 10 -11 0 -5 -5 -7 -12 -3
-8 5 -9 0 -5 -17 4 -13 7 -31 8 -39 0 -8 6 -3 12 11 7 15 12 73 12 132 0 58 3
100 6 95 4 -6 8 8 11 31 2 22 1 41 -2 42 -47 7 -45 13 -47 -118z"/>
</g>
</g>
</svg>