<?xml version="1.0" standalone="no"?>
<!DOCTYPE svg PUBLIC "-//W3C//DTD SVG 20010904//EN"
 "http://www.w3.org/TR/2001/REC-SVG-20010904/DTD/svg10.dtd">
<svg version="1.0" xmlns="http://www.w3.org/2000/svg"
 width="96.000000pt" height="68.000000pt" viewBox="0 0 96.000000 68.000000"
 preserveAspectRatio="xMidYMid meet">
<metadata>
Created by potrace 1.16, written by Peter Selinger 2001-2019
Combined from part_0.svg through part_5.svg with named groups
</metadata>
<g transform="translate(0.000000,68.000000) scale(0.100000,-0.100000)" fill="#000000" stroke="none">
<g id="part-0" class="char-part">
  <path d="M578 516 c4 -94 8 -89 -80 -102 l-48 -6 0 71 0 71 -31 0 c-26 0 -30
-3 -24 -17 4 -10 9 -44 12 -75 l6 -58 -37 0 c-20 0 -36 -4 -36 -10 0 -5 17 -9
37 -7 l38 2 8 -53 c5 -30 6 -56 3 -59 -3 -3 -37 -8 -76 -11 -38 -2 -70 -8 -70
-12 0 -15 65 -17 203 -4 78 7 186 16 241 20 84 5 96 8 84 20 -17 17 -64 20
-145 10 l-63 -8 6 49 c4 26 11 53 16 59 4 6 31 14 58 18 49 7 64 19 36 29 -8
3 -31 3 -50 0 -34 -5 -36 -4 -36 22 0 15 5 46 12 68 11 35 10 41 -7 53 -10 8
-28 14 -39 14 -20 0 -21 -5 -18 -84z m-12 -180 l-7 -54 -45 -4 c-25 -2 -47 -1
-50 1 -2 2 -4 28 -4 57 l0 53 53 3 c28 2 54 2 56 1 2 -1 0 -27 -3 -57z"/>
  <path d="M190 525 c0 -14 65 -75 80 -75 18 0 30 36 17 53 -16 22 -97 40 -97
22z"/>
  <path d="M120 393 c1 -26 72 -79 90 -68 20 12 10 52 -15 63 -29 13 -75 16 -75
5z"/>
  <path d="M229 278 c-19 -29 -51 -70 -71 -91 -36 -37 -37 -39 -25 -70 23 -56
39 -44 90 65 26 56 50 113 53 125 10 39 -13 25 -47 -29z"/>
  <path d="M403 186 c-12 -19 -39 -47 -60 -62 -56 -41 -59 -44 -41 -44 15 0 136
77 168 107 13 12 13 15 0 23 -27 17 -45 10 -67 -24z"/>
  <path d="M602 201 c5 -15 87 -100 111 -116 13 -8 27 -12 30 -8 22 21 -13 77
-63 101 -46 22 -82 32 -78 23z"/>
</g>
<g id="part-1" class="char-part">
  <path d="M190 525 c0 -15 64 -65 82 -65 21 0 25 32 6 48 -17 13 -88 27 -88 17z"/>
  <path d="M142 371 c35 -45 78 -53 78 -15 0 15 -56 44 -85 44 -14 0 -12 -5 7
-29z"/>
  <path d="M227 266 c-20 -31 -51 -68 -67 -83 -35 -31 -37 -52 -11 -84 l19 -24
30 65 c16 36 39 86 52 112 33 70 20 78 -23 14z"/>
</g>
<g id="part-2" class="char-part">
  <path d="M578 522 c5 -92 -1 -99 -73 -104 l-50 -3 -3 68 -3 67 -31 0 c-23 0
-29 -4 -24 -16 3 -9 9 -40 12 -69 l7 -54 -37 -6 c-48 -9 -46 -25 3 -25 l38 0
6 -52 c4 -28 5 -53 4 -55 -2 -1 -36 -6 -75 -9 -40 -4 -72 -10 -72 -14 0 -16
54 -20 133 -10 45 5 152 15 237 20 85 6 156 13 159 16 10 9 -16 25 -45 26 -16
1 -60 -2 -98 -6 l-69 -8 7 39 c14 77 11 75 89 88 20 3 37 10 37 14 0 15 -27
20 -64 14 -32 -5 -36 -3 -36 16 0 12 5 43 12 68 10 41 9 47 -7 59 -11 8 -28
14 -39 14 -20 0 -21 -5 -18 -78z m-13 -179 c-4 -32 -8 -59 -8 -59 -1 -1 -22
-4 -47 -5 l-45 -4 -3 57 -3 57 48 4 c26 2 52 4 57 5 4 1 5 -24 1 -55z"/>
</g>
<g id="part-3" class="char-part">
  <path d="M405 193 c-19 -30 -56 -66 -93 -90 -30 -21 -22 -27 14 -11 37 16 141
85 150 99 7 13 -13 29 -37 29 -9 0 -25 -12 -34 -27z"/>
  <path d="M640 154 c86 -90 101 -99 108 -60 8 38 -53 87 -138 111 -21 6 -15 -3
30 -51z"/>
</g>
</g>
</svg>