<?xml version="1.0" standalone="no"?>
<!DOCTYPE svg PUBLIC "-//W3C//DTD SVG 20010904//EN"
 "http://www.w3.org/TR/2001/REC-SVG-20010904/DTD/svg10.dtd">
<svg version="1.0" xmlns="http://www.w3.org/2000/svg"
 width="96.000000pt" height="68.000000pt" viewBox="0 0 96.000000 68.000000"
 preserveAspectRatio="xMidYMid meet">
<metadata>
Created by potrace 1.16, written by Peter Selinger 2001-2019
Combined from part_0.svg through part_5.svg with named groups
</metadata>
<g transform="translate(0.000000,68.000000) scale(0.100000,-0.100000)" fill="#000000" stroke="none">
<g id="part-0" class="char-part">
  <path d="M346 573 c3 -27 1 -54 -4 -61 -5 -7 -41 -18 -80 -24 -40 -6 -72 -14
-72 -19 0 -13 65 -22 101 -14 l32 7 -22 -30 c-29 -41 -61 -66 -130 -99 -45
-22 -51 -29 -33 -31 47 -7 160 51 209 108 l21 25 80 -43 c89 -47 112 -52 112
-22 0 26 -31 45 -107 66 -35 10 -63 21 -63 25 0 3 21 10 48 13 26 4 62 12 81
18 33 10 34 11 15 25 -18 14 -53 13 -112 -3 l-23 -7 17 43 c17 41 17 43 -1 56
-10 8 -31 14 -46 14 -27 0 -28 -1 -23 -47z"/>
  <path d="M736 573 c12 -25 16 -325 7 -398 l-9 -60 -39 3 -40 3 42 -40 c80 -79
90 -55 96 219 2 145 7 212 16 229 12 22 11 27 -9 43 -12 10 -33 18 -47 18 -20
0 -24 -3 -17 -17z"/>
  <path d="M617 359 c1 -67 6 -116 13 -123 21 -21 30 17 30 127 0 104 -1 107
-22 107 -23 0 -23 -2 -21 -111z"/>
  <path d="M340 356 c-27 -7 -40 -15 -33 -19 16 -10 144 13 137 24 -7 12 -48 10
-104 -5z"/>
  <path d="M342 295 c-73 -13 -136 -25 -139 -29 -13 -13 30 -18 70 -8 52 14 63
4 43 -36 -18 -35 -8 -49 23 -32 11 5 36 10 55 10 35 0 36 -1 36 -39 0 -51 -37
-85 -76 -70 -39 14 -40 11 -9 -21 52 -55 97 -30 130 71 23 68 11 83 -62 76
-57 -6 -59 -4 -40 36 10 22 19 27 52 27 66 2 122 14 106 24 -24 15 -51 14
-189 -9z"/>
</g>
<g id="part-1" class="char-part">
  <path d="M350 568 c0 -29 -4 -58 -8 -64 -4 -7 -37 -15 -74 -19 -84 -9 -89 -25
-8 -25 33 0 60 -4 60 -8 0 -17 -88 -92 -138 -117 -61 -30 -63 -41 -5 -26 50
14 131 65 164 103 l25 30 86 -46 c77 -42 87 -45 99 -30 18 22 -4 37 -97 65
-41 12 -74 25 -74 30 0 4 30 12 68 19 83 14 103 24 76 38 -13 7 -34 7 -67 -1
-26 -5 -49 -8 -53 -5 -3 3 2 23 11 43 8 21 14 39 13 40 -13 10 -50 25 -62 25
-13 0 -16 -12 -16 -52z"/>
</g>
<g id="part-2" class="char-part">
  <path d="M375 210 c-4 -6 7 -10 24 -10 28 0 31 -3 31 -30 0 -16 -5 -41 -12
-55 -10 -22 -17 -26 -42 -22 -17 2 -40 8 -51 12 -14 6 -10 -3 14 -28 59 -63
98 -44 137 64 21 57 21 60 3 69 -23 13 -96 13 -104 0z"/>
</g>
<g id="part-3" class="char-part">
  <path d="M616 362 c1 -71 6 -118 13 -125 22 -22 31 15 31 124 0 103 -1 107
-22 111 -23 4 -23 3 -22 -110z"/>
</g>
<g id="part-4" class="char-part">
  <path d="M736 573 c11 -24 17 -320 9 -402 -7 -61 -7 -63 -33 -58 -15 2 -36 8
-47 12 -11 4 1 -13 27 -39 52 -51 74 -57 87 -23 5 12 10 116 13 232 3 148 8
217 17 234 12 22 11 27 -9 43 -12 10 -33 18 -47 18 -20 0 -24 -3 -17 -17z"/>
</g>
</g>
</svg>