<?xml version="1.0" standalone="no"?>
<!DOCTYPE svg PUBLIC "-//W3C//DTD SVG 20010904//EN"
 "http://www.w3.org/TR/2001/REC-SVG-20010904/DTD/svg10.dtd">
<svg version="1.0" xmlns="http://www.w3.org/2000/svg"
 width="96.000000pt" height="68.000000pt" viewBox="0 0 96.000000 68.000000"
 preserveAspectRatio="xMidYMid meet">
<metadata>
Created by potrace 1.16, written by Peter Selinger 2001-2019
Combined from part_0.svg through part_5.svg with named groups
</metadata>
<g transform="translate(0.000000,68.000000) scale(0.100000,-0.100000)" fill="#000000" stroke="none">
<g id="part-0" class="char-part">
  <path d="M537 549 l6 -51 -66 4 c-37 2 -67 0 -67 -4 0 -4 4 -8 8 -8 5 0 14
-11 20 -24 12 -27 1 -36 -45 -36 -37 0 -21 -12 19 -15 26 -2 36 -9 48 -33 12
-24 19 -29 30 -22 26 17 50 12 50 -10 0 -17 -7 -20 -42 -22 -24 0 -56 0 -73 1
-28 3 -29 2 -13 -16 9 -10 20 -30 23 -46 7 -25 10 -27 41 -21 26 5 35 2 40
-11 10 -25 -13 -35 -83 -35 -39 0 -63 -4 -63 -11 0 -7 21 -10 61 -7 56 3 60 2
54 -17 -13 -41 -10 -50 15 -53 67 -9 43 -29 -80 -64 l-65 -18 65 4 c36 3 89
15 119 27 l54 23 71 -37 c79 -40 96 -44 96 -23 0 19 -45 50 -97 67 l-43 14 30
35 c16 19 30 38 30 42 0 4 35 8 78 10 47 2 75 7 72 13 -3 6 -58 10 -138 9 -73
0 -128 2 -121 6 8 6 8 9 -1 15 -21 13 10 25 67 25 56 0 86 8 78 20 -3 4 2 13
10 20 8 7 15 16 15 20 0 17 -52 28 -105 23 -52 -6 -57 -4 -53 13 3 16 12 19
48 17 42 -2 46 0 60 30 14 30 18 32 78 35 34 2 62 7 62 12 0 10 -54 21 -85 17
-15 -1 -20 4 -20 23 0 24 -2 25 -68 25 l-69 0 6 36 c6 39 -3 49 -44 49 -17 0
-18 -6 -13 -51z m131 -71 c-2 -18 -11 -24 -37 -26 -44 -4 -63 14 -37 34 11 8
33 14 49 14 24 0 28 -4 25 -22z m-128 -13 c0 -22 -4 -25 -35 -25 -27 0 -35 4
-35 18 0 25 9 32 42 32 23 0 28 -4 28 -25z m118 -47 c-3 -7 -21 -14 -41 -16
-28 -2 -37 1 -37 12 0 12 11 16 41 16 28 0 39 -4 37 -12z m-118 -13 c0 -9 -9
-15 -24 -15 -13 0 -26 7 -30 15 -4 11 2 15 24 15 20 0 30 -5 30 -15z m128 -99
c-2 -17 -11 -22 -45 -24 -37 -3 -43 0 -43 17 0 19 16 26 68 28 18 0 22 -4 20
-21z m-128 -17 c0 -16 -7 -19 -40 -19 -22 0 -40 5 -40 10 0 6 0 13 0 18 -1 8
60 20 73 14 4 -2 7 -12 7 -23z m83 -116 c-14 -36 -38 -53 -75 -53 -46 0 -53
11 -27 44 16 21 29 26 64 26 38 0 43 -3 38 -17z"/>
  <path d="M234 543 c-16 -48 -61 -127 -81 -143 -26 -20 -30 -55 -9 -63 8 -3 30
-2 48 4 18 5 36 9 40 9 9 0 -17 -32 -56 -70 -54 -52 -14 -62 86 -24 41 16 51
17 69 6 12 -7 23 -11 26 -8 12 12 -9 57 -30 65 -28 11 -41 3 -27 -14 14 -17 4
-23 -51 -30 -37 -5 -42 -4 -29 7 8 7 42 44 74 81 48 54 58 72 50 85 -18 28
-30 24 -48 -17 -15 -32 -25 -40 -53 -46 -19 -3 -37 -5 -39 -2 -2 2 18 35 45
73 38 54 47 73 40 87 -13 22 -48 22 -55 0z"/>
  <path d="M290 212 c0 -14 39 -46 47 -38 4 4 2 15 -3 24 -12 19 -44 29 -44 14z"/>
  <path d="M210 186 c0 -7 9 -24 19 -37 15 -19 22 -21 32 -12 10 10 9 15 -1 28
-22 26 -50 38 -50 21z"/>
  <path d="M110 174 c0 -13 30 -61 49 -78 19 -17 21 -17 27 -2 10 25 -13 60 -47
73 -16 6 -29 9 -29 7z"/>
</g>
<g id="part-1" class="char-part">
  <path d="M222 502 c-12 -33 -38 -75 -58 -96 -45 -47 -40 -71 12 -61 20 3 48
11 63 18 l26 11 -32 4 c-18 2 -33 7 -33 11 0 4 21 36 46 71 36 49 44 67 37 79
-21 34 -40 23 -61 -37z"/>
</g>
<g id="part-2" class="char-part">
  <path d="M302 194 c15 -15 31 -25 35 -20 12 12 -12 41 -38 44 l-24 4 27 -28z"/>
  <path d="M220 160 c24 -34 50 -39 50 -10 0 20 -27 40 -55 40 -14 0 -13 -4 5
-30z"/>
  <path d="M116 158 c10 -35 44 -78 60 -78 18 0 19 53 1 68 -7 6 -25 16 -41 21
-26 10 -27 10 -20 -11z"/>
</g>
<g id="part-3" class="char-part">
  <path d="M534 555 c9 -36 15 -45 32 -45 17 0 23 8 29 36 7 41 -3 54 -46 54
-25 0 -25 -1 -15 -45z"/>
</g>
<g id="part-4" class="char-part">
  <path d="M555 509 c-33 -6 -79 -8 -102 -5 -45 6 -54 -3 -28 -24 8 -7 15 -21
15 -31 0 -15 -8 -19 -37 -20 -36 0 -36 -1 -13 -10 14 -6 32 -8 42 -6 12 4 20
-4 28 -30 9 -25 15 -31 24 -24 7 6 54 12 104 13 l91 3 15 33 c15 31 18 32 76
32 33 0 60 4 60 9 0 13 -44 22 -79 15 -28 -6 -30 -5 -28 22 2 28 1 29 -53 30
-30 1 -82 -2 -115 -7z m115 -28 c0 -31 -72 -45 -84 -16 -6 18 20 34 57 35 20
0 27 -5 27 -19z m-130 -17 c0 -23 -3 -25 -32 -22 -25 2 -34 8 -36 26 -3 19 1
22 32 22 32 0 36 -3 36 -26z m120 -48 c0 -9 -14 -15 -40 -18 -33 -3 -40 0 -40
14 0 14 8 18 40 18 28 0 40 -4 40 -14z m-120 -11 c0 -9 -9 -15 -24 -15 -13 0
-26 7 -30 15 -4 11 2 15 24 15 20 0 30 -5 30 -15z"/>
</g>
<g id="part-5" class="char-part">
  <path d="M528 226 c-2 -13 -11 -22 -27 -24 -19 -3 -21 -6 -10 -13 12 -7 11
-13 -3 -39 -10 -17 -14 -28 -8 -25 5 3 11 1 15 -5 3 -5 12 -10 18 -10 7 0 4 5
-6 11 -16 10 -16 12 8 40 14 17 25 35 25 40 0 5 5 9 11 9 5 0 8 -4 5 -8 -2 -4
5 -9 16 -9 19 -2 19 -1 3 11 -10 7 -15 18 -12 23 4 6 -2 13 -13 16 -14 3 -20
-1 -22 -17z"/>
  <path d="M615 209 c-19 -9 -19 -9 1 -5 20 3 21 1 13 -27 -4 -16 -18 -36 -29
-44 -11 -8 -18 -19 -15 -24 4 -5 2 -9 -4 -9 -5 0 -13 5 -16 10 -3 5 -14 10
-23 10 -12 0 -13 -3 -4 -12 9 -9 8 -16 -5 -30 -18 -20 -2 -25 19 -5 20 20 69
12 112 -17 21 -14 45 -26 52 -26 8 0 14 -5 14 -11 0 -5 4 -8 10 -4 28 17 -52
75 -105 75 -31 0 -31 0 14 63 35 47 35 47 95 48 34 1 68 1 76 0 12 -2 12 0 1
7 -11 8 -62 8 -146 0 -5 0 -17 2 -25 5 -8 3 -24 1 -35 -4z"/>
  <path d="M428 193 c6 -2 18 -2 25 0 6 3 1 5 -13 5 -14 0 -19 -2 -12 -5z"/>
  <path d="M470 50 c-18 -12 -2 -12 25 0 13 6 15 9 5 9 -8 0 -22 -4 -30 -9z"/>
</g>
</g>
</svg>