<?xml version="1.0" standalone="no"?>
<!DOCTYPE svg PUBLIC "-//W3C//DTD SVG 20010904//EN"
 "http://www.w3.org/TR/2001/REC-SVG-20010904/DTD/svg10.dtd">
<svg version="1.0" xmlns="http://www.w3.org/2000/svg"
 width="96.000000pt" height="68.000000pt" viewBox="0 0 96.000000 68.000000"
 preserveAspectRatio="xMidYMid meet">
<metadata>
Created by potrace 1.16, written by Peter Selinger 2001-2019
Combined from part_0.svg through part_5.svg with named groups
</metadata>
<g transform="translate(0.000000,68.000000) scale(0.100000,-0.100000)" fill="#000000" stroke="none">
<g id="part-0" class="char-part">
  <path d="M506 597 c-3 -19 -19 -54 -36 -80 -16 -25 -25 -49 -21 -51 4 -3 26
10 47 28 35 29 48 34 119 40 84 8 111 19 85 37 -14 9 -41 7 -113 -7 -27 -6
-28 -5 -17 17 11 19 10 24 -6 36 -31 23 -51 16 -58 -20z"/>
  <path d="M256 586 c-4 -18 -24 -59 -46 -90 -46 -66 -32 -76 30 -20 33 30 50
37 107 45 38 4 74 8 81 9 6 0 12 7 12 16 0 15 -9 16 -65 11 -63 -6 -65 -6 -54
14 13 26 -4 49 -36 49 -18 0 -24 -7 -29 -34z"/>
  <path d="M550 505 c0 -2 13 -18 30 -35 36 -37 70 -40 70 -6 0 18 -8 27 -31 35
-33 11 -69 15 -69 6z"/>
  <path d="M290 492 c0 -17 41 -62 56 -62 21 0 29 29 13 45 -18 18 -69 30 -69
17z"/>
  <path d="M418 453 c-13 -3 -15 -9 -8 -28 12 -31 6 -35 -54 -36 -93 -2 -108
-17 -18 -18 80 -1 82 -2 82 -25 0 -23 -5 -25 -66 -31 -36 -4 -81 -5 -100 -2
-31 5 -35 4 -29 -11 4 -9 16 -41 27 -70 24 -63 42 -59 33 8 l-6 47 61 6 c34 4
66 4 71 1 19 -11 7 -43 -28 -78 -45 -44 -169 -131 -200 -140 -13 -4 -23 -11
-23 -16 0 -22 157 46 206 90 19 16 37 30 40 30 3 0 4 -37 2 -81 -2 -68 0 -83
14 -92 9 -6 21 -8 25 -3 4 4 10 55 11 113 l4 105 88 -86 c76 -75 92 -86 122
-86 53 0 128 12 128 20 0 4 -27 15 -61 24 -70 20 -166 68 -232 117 -35 26 -46
41 -47 61 0 33 21 41 101 36 50 -3 54 -5 56 -28 3 -40 -7 -60 -28 -60 -10 0
-19 -3 -19 -6 0 -12 29 -34 45 -34 28 0 41 23 48 83 7 54 6 58 -17 66 -13 5
-42 8 -65 5 -134 -14 -122 -15 -119 14 3 25 7 27 73 35 97 10 108 27 17 27
-60 0 -73 3 -81 19 -12 21 -29 29 -53 24z"/>
</g>
<g id="part-1" class="char-part">
  <path d="M510 606 c0 -13 -13 -49 -29 -80 -17 -31 -27 -56 -23 -56 3 0 20 14
37 30 28 27 42 32 120 41 49 5 91 12 93 14 13 12 -38 17 -94 8 -35 -5 -64 -7
-64 -5 0 2 5 13 11 24 9 18 8 24 -7 35 -27 20 -44 16 -44 -11z"/>
  <path d="M256 573 c-9 -26 -30 -65 -47 -86 -17 -21 -29 -40 -27 -43 3 -2 28
14 55 36 45 35 58 40 122 46 39 4 74 11 77 16 10 16 -27 21 -79 10 -29 -6 -53
-9 -55 -7 -2 2 3 13 10 25 11 18 11 23 -6 36 -29 21 -33 18 -50 -33z"/>
  <path d="M560 501 c0 -13 59 -61 76 -61 20 0 17 38 -3 48 -30 15 -73 23 -73
13z"/>
  <path d="M310 465 c25 -27 45 -32 56 -13 9 15 -24 38 -55 38 l-24 0 23 -25z"/>
</g>
<g id="part-2" class="char-part">
  <path d="M410 426 c12 -32 6 -36 -59 -37 -95 -1 -107 -18 -13 -18 l82 -1 0
-54 c0 -43 -5 -61 -25 -84 -35 -41 -124 -108 -197 -148 -35 -18 -58 -34 -52
-34 35 -1 129 39 193 81 l74 49 -7 -70 c-8 -81 -2 -110 24 -110 25 0 30 19 30
128 l0 96 89 -87 c77 -76 93 -87 123 -87 50 0 128 12 128 19 0 3 -33 17 -73
30 -93 31 -128 49 -205 105 l-63 47 3 62 3 62 78 9 c42 4 77 12 77 17 0 5 -8
9 -17 10 -21 1 -104 -2 -118 -4 -5 -1 -9 3 -10 8 -1 22 -18 35 -45 35 -27 0
-29 -2 -20 -24z"/>
</g>
<g id="part-3" class="char-part">
  <path d="M525 329 c-38 -5 -125 -10 -192 -11 -107 -3 -120 -5 -108 -18 7 -8
16 -31 20 -50 18 -85 51 -98 41 -16 l-7 54 98 8 c54 4 129 8 168 8 60 1 70 -2
73 -17 7 -34 -7 -67 -29 -67 -17 0 -18 -3 -9 -20 6 -12 21 -20 36 -20 28 0 37
18 48 92 6 40 4 48 -13 57 -22 12 -26 12 -126 0z"/>
</g>
</g>
</svg>