<?xml version="1.0" standalone="no"?>
<!DOCTYPE svg PUBLIC "-//W3C//DTD SVG 20010904//EN"
 "http://www.w3.org/TR/2001/REC-SVG-20010904/DTD/svg10.dtd">
<svg version="1.0" xmlns="http://www.w3.org/2000/svg"
 width="96.000000pt" height="68.000000pt" viewBox="0 0 96.000000 68.000000"
 preserveAspectRatio="xMidYMid meet">
<metadata>
Created by potrace 1.16, written by Peter Selinger 2001-2019
Combined from part_0.svg through part_5.svg with named groups
</metadata>
<g transform="translate(0.000000,68.000000) scale(0.100000,-0.100000)" fill="#000000" stroke="none">
<g id="part-0" class="char-part">
  <path d="M448 500 l4 -90 -35 0 c-20 0 -39 -4 -42 -10 -4 -6 8 -10 29 -10 19
0 37 -3 40 -8 7 -12 -19 -111 -42 -163 -12 -26 -33 -61 -48 -78 -14 -17 -21
-31 -16 -31 15 0 71 61 99 108 14 23 27 42 29 42 3 0 15 -12 28 -27 12 -14 28
-23 33 -20 19 12 2 45 -29 58 -27 11 -29 15 -23 47 13 69 21 79 66 85 24 3 46
4 50 1 4 -2 1 -27 -6 -55 -46 -174 -21 -250 92 -274 39 -8 116 3 139 20 17 12
17 14 1 38 -9 15 -17 35 -17 47 0 34 -18 22 -31 -19 -9 -30 -18 -40 -37 -44
-40 -8 -89 3 -108 24 -25 28 -19 110 15 209 33 94 30 104 -29 95 -19 -2 -53
-8 -75 -11 l-40 -6 3 72 c4 75 -3 89 -39 90 -13 0 -15 -13 -11 -90z"/>
  <path d="M265 562 c-5 -4 -19 -24 -29 -45 -19 -37 -93 -117 -108 -117 -12 0
-10 -14 4 -33 12 -15 18 -15 66 -3 28 8 52 12 52 10 0 -6 -67 -71 -91 -88 -21
-15 -22 -17 -7 -32 14 -14 19 -14 54 4 22 11 58 26 82 33 39 11 44 11 56 -7
14 -18 15 -18 22 -1 4 12 -1 26 -16 43 -28 28 -44 31 -36 6 5 -16 -3 -21 -49
-34 -30 -8 -55 -13 -55 -9 0 3 36 40 80 81 62 57 80 79 75 93 -12 31 -55 13
-55 -23 0 -22 -41 -40 -88 -40 l-37 0 70 64 c69 64 70 64 51 85 -21 23 -26 24
-41 13z"/>
  <path d="M309 233 c17 -33 40 -48 53 -35 15 15 -4 36 -40 47 -21 6 -23 5 -13
-12z"/>
  <path d="M220 214 c0 -11 23 -49 34 -56 33 -22 37 23 4 46 -23 16 -38 20 -38
10z"/>
  <path d="M120 187 c0 -18 38 -77 50 -77 19 0 23 30 7 54 -17 25 -57 42 -57 23z"/>
</g>
<g id="part-1" class="char-part">
  <path d="M240 515 c-12 -25 -42 -62 -66 -84 -68 -59 -57 -80 32 -60 68 15 79
29 22 29 l-42 0 63 64 c64 65 75 96 32 96 -13 0 -26 -15 -41 -45z"/>
</g>
<g id="part-2" class="char-part">
  <path d="M308 233 c15 -28 39 -46 52 -38 22 14 5 41 -34 51 -26 6 -27 5 -18
-13z"/>
  <path d="M229 188 c24 -39 51 -49 51 -19 0 21 -34 51 -58 51 -10 0 -9 -8 7
-32z"/>
  <path d="M110 192 c0 -17 52 -82 65 -82 23 0 18 38 -10 65 -23 24 -55 34 -55
17z"/>
</g>
<g id="part-3" class="char-part">
  <path d="M448 500 l5 -90 -44 0 c-41 -1 -43 -2 -24 -16 11 -8 28 -13 37 -10
27 6 29 -5 12 -69 -19 -73 -46 -127 -93 -185 l-36 -44 35 24 c72 50 117 122
139 222 10 48 17 59 37 64 29 8 32 34 3 34 -19 0 -21 5 -18 68 4 76 -2 92 -35
92 -23 0 -23 -1 -18 -90z"/>
</g>
<g id="part-4" class="char-part">
  <path d="M573 439 c-43 -13 -44 -37 -2 -31 27 4 30 2 25 -15 -13 -41 -36 -159
-36 -186 0 -96 85 -150 204 -128 57 10 74 24 58 44 -7 8 -18 32 -25 53 l-14
39 -7 -38 c-9 -48 -43 -72 -93 -64 -53 9 -76 36 -75 88 1 54 19 133 43 183 29
61 3 78 -78 55z"/>
</g>
<g id="part-5" class="char-part">
  <path d="M490 256 c0 -19 13 -27 28 -17 8 4 5 11 -8 19 -16 10 -20 10 -20 -2z"/>
</g>
</g>
</svg>