<?xml version="1.0" standalone="no"?>
<!DOCTYPE svg PUBLIC "-//W3C//DTD SVG 20010904//EN"
 "http://www.w3.org/TR/2001/REC-SVG-20010904/DTD/svg10.dtd">
<svg version="1.0" xmlns="http://www.w3.org/2000/svg"
 width="96.000000pt" height="68.000000pt" viewBox="0 0 96.000000 68.000000"
 preserveAspectRatio="xMidYMid meet">
<metadata>
Created by potrace 1.16, written by Peter Selinger 2001-2019
Combined from part_0.svg through part_5.svg with named groups
</metadata>
<g transform="translate(0.000000,68.000000) scale(0.100000,-0.100000)" fill="#000000" stroke="none">
<g id="part-0" class="char-part">
  <path d="M433 602 c-17 -51 -47 -110 -69 -139 -38 -50 -24 -60 20 -15 39 39
42 40 163 58 68 10 123 21 123 25 0 18 -58 18 -131 -1 -45 -11 -83 -20 -86
-20 -2 0 5 17 16 38 20 40 18 54 -12 65 -12 5 -20 1 -24 -11z"/>
  <path d="M180 543 c0 -26 82 -88 105 -79 20 7 19 39 -3 59 -20 18 -102 35
-102 20z"/>
  <path d="M473 433 c-68 -14 -98 -33 -54 -33 33 0 176 32 186 41 13 13 -48 9
-132 -8z"/>
  <path d="M106 394 c-3 -8 -2 -12 4 -9 5 3 15 -4 21 -17 5 -13 24 -30 41 -37
26 -12 32 -11 45 2 22 21 10 45 -32 62 -44 19 -71 19 -79 -1z"/>
  <path d="M500 355 c-36 -7 -86 -16 -112 -19 -27 -4 -48 -11 -48 -17 0 -13 64
-11 137 5 79 17 88 11 79 -52 -13 -99 23 -186 92 -219 38 -18 163 -26 178 -11
4 4 0 25 -9 45 -8 21 -18 51 -22 67 -8 37 -17 27 -24 -27 l-6 -42 -46 1 c-80
0 -124 52 -120 142 1 31 10 60 27 86 21 31 23 40 12 47 -17 11 -58 10 -138 -6z"/>
  <path d="M229 253 c-17 -27 -50 -67 -72 -90 l-41 -43 17 -35 c9 -19 23 -35 30
-35 8 0 31 39 53 92 21 50 45 104 51 119 21 48 -4 42 -38 -8z"/>
</g>
<g id="part-1" class="char-part">
  <path d="M186 536 c9 -23 72 -68 92 -64 9 2 18 11 20 20 4 19 -33 41 -85 53
-27 5 -32 4 -27 -9z"/>
  <path d="M110 404 c0 -2 14 -19 31 -39 35 -39 79 -49 79 -16 0 26 -23 42 -70
51 -22 4 -40 6 -40 4z"/>
  <path d="M230 244 c-19 -27 -51 -66 -72 -87 l-39 -39 19 -31 c10 -18 22 -31
27 -31 12 2 106 215 102 228 -2 6 -19 -12 -37 -40z"/>
</g>
<g id="part-2" class="char-part">
  <path d="M421 575 c-7 -25 -31 -72 -52 -105 -21 -33 -35 -60 -31 -60 4 0 26
17 48 38 37 36 44 39 159 56 129 20 157 31 104 41 -22 4 -62 -1 -112 -15 -43
-12 -81 -20 -83 -17 -3 2 5 21 17 42 22 37 22 38 4 51 -30 22 -40 17 -54 -31z"/>
</g>
<g id="part-3" class="char-part">
  <path d="M473 433 c-69 -15 -98 -33 -52 -33 37 0 189 34 189 42 0 12 -55 8
-137 -9z"/>
</g>
<g id="part-4" class="char-part">
  <path d="M490 354 c-36 -7 -86 -15 -113 -19 -26 -3 -45 -10 -42 -16 8 -13 78
-10 150 5 33 7 64 11 69 8 5 -2 6 -30 3 -60 -16 -154 59 -242 205 -242 58 0
75 17 55 57 -8 15 -18 44 -23 63 l-8 35 -11 -50 c-10 -46 -13 -50 -43 -53 -80
-8 -148 67 -136 150 3 24 17 60 31 82 20 31 22 40 11 47 -17 12 -69 9 -148 -7z"/>
</g>
</g>
</svg>