<?xml version="1.0" standalone="no"?>
<!DOCTYPE svg PUBLIC "-//W3C//DTD SVG 20010904//EN"
 "http://www.w3.org/TR/2001/REC-SVG-20010904/DTD/svg10.dtd">
<svg version="1.0" xmlns="http://www.w3.org/2000/svg"
 width="96.000000pt" height="68.000000pt" viewBox="0 0 96.000000 68.000000"
 preserveAspectRatio="xMidYMid meet">
<metadata>
Created by potrace 1.16, written by Peter Selinger 2001-2019
Combined from part_0.svg through part_5.svg with named groups
</metadata>
<g transform="translate(0.000000,68.000000) scale(0.100000,-0.100000)" fill="#000000" stroke="none">
<g id="part-0" class="char-part">
  <path d="M540 542 c0 -6 11 -24 25 -40 l25 -30 -55 -7 c-30 -3 -55 -11 -55
-16 0 -5 4 -9 10 -9 9 0 50 -83 50 -101 0 -5 -19 -9 -42 -10 -24 -1 -54 -4
-68 -9 l-25 -7 28 -8 c15 -4 45 -4 65 0 20 4 107 10 192 14 148 6 154 7 130
22 -20 13 -37 15 -85 9 -59 -7 -86 -4 -68 9 22 15 56 75 45 79 -21 7 -13 21
13 24 14 2 25 8 25 13 0 6 -28 9 -64 8 -57 -2 -63 0 -59 16 2 9 -2 23 -10 29
-20 17 -77 27 -77 14z m120 -116 c0 -12 -5 -37 -11 -55 -9 -27 -16 -31 -45
-31 -30 0 -34 3 -34 25 0 15 -11 35 -26 48 l-26 22 44 6 c89 12 98 11 98 -15z"/>
  <path d="M300 505 c-30 -8 -84 -14 -120 -14 -88 1 -85 1 -67 -19 9 -10 23 -47
30 -83 l13 -64 52 3 c47 4 52 2 52 -17 0 -13 -7 -22 -17 -23 -10 0 -23 -2 -30
-2 -30 -3 -22 -16 10 -16 32 0 37 -3 37 -24 0 -22 -5 -24 -70 -31 -38 -4 -70
-11 -70 -16 0 -12 68 -11 144 1 34 5 82 12 109 15 68 9 50 29 -19 22 -52 -5
-54 -5 -54 19 0 21 4 24 40 24 22 0 40 5 40 10 0 6 -18 10 -40 10 -33 0 -40 3
-40 19 0 24 31 35 75 27 l32 -6 27 76 c16 43 24 80 19 85 -16 16 -98 18 -153
4z m90 -35 c0 -14 -6 -19 -22 -17 -18 2 -24 -5 -32 -35 -14 -57 -38 -50 -33
10 3 46 4 47 43 53 21 3 40 7 42 8 1 0 2 -8 2 -19z m-133 -49 c3 -48 -6 -61
-44 -61 -17 0 -23 8 -31 47 -6 26 -8 51 -5 56 3 4 21 7 41 5 35 -3 36 -4 39
-47z m123 -10 c0 -24 -18 -37 -32 -23 -7 7 -6 15 3 26 19 21 29 20 29 -3z"/>
  <path d="M203 419 c4 -13 7 -27 7 -31 0 -14 28 -8 33 6 4 9 -5 21 -20 31 -26
17 -26 17 -20 -6z"/>
  <path d="M640 269 c-19 -4 -62 -10 -95 -13 -44 -4 -59 -9 -55 -18 2 -7 5 -48
5 -90 0 -47 5 -82 12 -89 10 -10 14 -9 18 2 4 10 25 15 74 17 63 3 69 1 85
-22 21 -33 32 -33 49 0 10 20 12 39 5 73 -5 25 -6 63 -2 84 5 30 2 41 -13 52
-20 16 -33 17 -83 4z m50 -52 c0 -30 -3 -33 -27 -34 -16 0 -52 -3 -81 -7 l-53
-8 3 33 c3 31 6 35 43 40 22 3 57 7 78 8 36 1 37 0 37 -32z m0 -82 l0 -35 -80
0 c-78 0 -80 1 -80 24 0 23 5 25 68 31 37 4 72 8 77 10 6 2 11 4 13 4 1 1 2
-15 2 -34z"/>
  <path d="M380 184 c0 -12 42 -64 51 -64 17 0 9 49 -10 60 -22 11 -41 13 -41 4z"/>
  <path d="M306 148 c9 -31 24 -48 40 -48 21 0 17 48 -5 60 -32 16 -43 12 -35
-12z"/>
  <path d="M220 145 c0 -25 23 -65 37 -65 19 0 16 44 -5 63 -23 21 -32 21 -32 2z"/>
  <path d="M120 110 c-22 -44 -20 -60 9 -60 20 0 31 26 31 73 0 39 -16 33 -40
-13z"/>
</g>
<g id="part-1" class="char-part">
  <path d="M290 499 c-55 -13 -102 -17 -134 -14 -40 5 -47 4 -39 -7 6 -7 19 -42
28 -78 20 -78 23 -84 38 -72 12 10 138 24 193 23 28 -1 32 3 43 41 7 24 20 54
28 67 13 19 13 25 1 36 -23 23 -70 24 -158 4z m100 -26 c0 -10 -3 -34 -6 -53
l-6 -36 -77 -12 c-104 -16 -121 -16 -121 6 0 9 -3 34 -6 55 l-7 37 39 1 c22 0
57 4 79 8 72 15 105 13 105 -6z"/>
</g>
<g id="part-2" class="char-part">
  <path d="M380 185 c0 -8 11 -27 24 -42 23 -26 25 -27 32 -9 9 23 -5 46 -34 57
-16 6 -22 5 -22 -6z"/>
  <path d="M300 165 c0 -18 33 -65 45 -65 22 0 19 47 -4 60 -21 11 -41 13 -41 5z"/>
  <path d="M220 146 c0 -29 20 -66 35 -66 17 0 20 32 5 61 -12 22 -40 26 -40 5z"/>
  <path d="M122 113 c-21 -42 -19 -63 7 -63 20 0 42 51 34 80 -8 30 -20 24 -41
-17z"/>
</g>
<g id="part-3" class="char-part">
  <path d="M540 541 c0 -5 11 -23 25 -40 l26 -30 -60 -7 c-37 -4 -58 -10 -54
-17 6 -10 179 -3 241 11 54 12 36 27 -28 25 -53 -1 -60 1 -60 17 0 10 -10 26
-22 34 -25 17 -68 22 -68 7z"/>
</g>
<g id="part-4" class="char-part">
  <path d="M660 426 c0 -12 -5 -37 -11 -55 -9 -27 -16 -31 -45 -31 -29 0 -34 3
-34 25 0 25 -34 65 -57 65 -9 0 -7 -12 7 -46 11 -25 20 -48 20 -50 0 -2 -27
-4 -59 -4 -33 0 -63 -4 -66 -10 -11 -17 40 -22 119 -11 43 6 129 11 192 11 63
0 114 4 114 8 0 21 -50 31 -111 22 -35 -5 -65 -7 -67 -5 -3 2 9 20 27 40 35
40 38 50 15 59 -30 12 -44 6 -44 -18z"/>
</g>
<g id="part-5" class="char-part">
  <path d="M673 273 c-19 -7 -16 -20 7 -26 16 -4 18 -11 14 -47 -4 -32 -2 -40 8
-34 11 6 10 5 0 -8 -7 -9 -12 -22 -11 -30 3 -27 -2 -36 -18 -32 -10 2 -31 0
-48 -5 -29 -10 -29 -10 10 -8 33 2 42 -2 50 -20 23 -54 62 -1 49 68 -10 59
-11 70 -3 95 6 16 1 24 -19 36 -15 8 -33 13 -39 11z"/>
  <path d="M628 253 c7 -3 16 -2 19 1 4 3 -2 6 -13 5 -11 0 -14 -3 -6 -6z"/>
  <path d="M499 225 c4 -11 6 -50 5 -88 0 -37 3 -70 7 -73 5 -3 9 2 9 10 0 10 6
13 18 10 14 -5 14 -4 3 4 -10 7 -14 28 -14 64 1 30 -4 56 -10 60 -8 5 -7 11 6
20 16 12 15 13 -7 13 -19 0 -22 -4 -17 -20z"/>
  <path d="M590 170 c-10 -6 -3 -8 23 -7 20 1 37 5 37 10 0 10 -42 9 -60 -3z"/>
  <path d="M540 160 c0 -5 5 -10 10 -10 6 0 10 5 10 10 0 6 -4 10 -10 10 -5 0
-10 -4 -10 -10z"/>
</g>
</g>
</svg>