<?xml version="1.0" standalone="no"?>
<!DOCTYPE svg PUBLIC "-//W3C//DTD SVG 20010904//EN"
 "http://www.w3.org/TR/2001/REC-SVG-20010904/DTD/svg10.dtd">
<svg version="1.0" xmlns="http://www.w3.org/2000/svg"
 width="96.000000pt" height="68.000000pt" viewBox="0 0 96.000000 68.000000"
 preserveAspectRatio="xMidYMid meet">
<metadata>
Created by potrace 1.16, written by Peter Selinger 2001-2019
Combined from part_0.svg through part_5.svg with named groups
</metadata>
<g transform="translate(0.000000,68.000000) scale(0.100000,-0.100000)" fill="#000000" stroke="none">
<g id="part-0" class="char-part">
  <path d="M490 587 c0 -8 9 -26 20 -40 25 -32 22 -33 -105 -43 -49 -4 -99 -10
-110 -14 -19 -7 -19 -7 3 -19 18 -10 22 -20 22 -64 0 -109 -46 -240 -116 -331
-45 -59 -23 -61 38 -3 43 42 89 121 103 179 6 22 11 25 28 19 11 -4 38 -5 59
-1 57 11 50 -11 -31 -91 -38 -38 -66 -69 -62 -69 13 0 75 43 103 71 33 33 52
38 44 12 -10 -38 -16 -139 -8 -150 18 -28 31 6 33 90 1 48 6 87 11 87 5 0 18
-9 30 -20 26 -24 48 -26 48 -5 0 9 -20 24 -45 35 -41 18 -45 22 -35 40 8 14
21 20 46 20 24 0 34 4 31 13 -2 7 -16 11 -35 9 -29 -3 -32 -1 -32 25 0 16 -5
34 -11 40 -8 8 -3 13 20 18 35 8 40 20 12 35 -21 10 -51 4 -51 -11 0 -5 -5 -9
-11 -9 -5 0 -27 -12 -47 -26 l-37 -26 36 6 c38 7 49 -3 49 -44 0 -14 -12 -19
-61 -24 -34 -4 -64 -5 -67 -2 -9 9 18 150 31 163 13 13 190 33 301 34 85 1
109 8 96 29 -7 11 -27 15 -84 14 -41 -1 -86 -4 -100 -8 -14 -3 -25 -3 -24 1 5
19 -15 53 -35 58 -12 4 -30 9 -39 11 -11 3 -18 0 -18 -9z"/>
  <path d="M170 422 c0 -4 12 -24 26 -45 29 -44 57 -46 62 -5 3 21 -3 30 -27 42
-32 17 -61 21 -61 8z"/>
  <path d="M745 258 l0 -173 -35 3 -35 2 39 -37 39 -37 18 23 c16 20 19 41 19
155 0 72 5 149 11 170 10 35 9 42 -7 53 -10 7 -25 13 -33 13 -14 0 -16 -23
-16 -172z"/>
  <path d="M648 258 c4 -84 8 -102 22 -93 5 3 10 42 10 86 0 69 -2 79 -18 79
-16 0 -17 -8 -14 -72z"/>
  <path d="M210 280 c-30 -17 -63 -30 -72 -30 -27 0 -22 -35 7 -48 23 -10 29 -7
80 42 77 76 74 84 -15 36z"/>
</g>
<g id="part-1" class="char-part">
  <path d="M500 579 c0 -6 9 -23 20 -39 l19 -27 -112 -12 c-62 -6 -119 -11 -125
-11 -7 0 -12 -4 -12 -10 0 -5 6 -10 14 -10 66 0 -12 -308 -102 -402 -42 -45
-17 -43 32 2 64 59 101 141 127 281 l21 116 86 11 c48 6 140 14 205 18 64 3
117 10 117 14 0 19 -61 29 -117 20 -83 -14 -93 -13 -93 9 0 22 -35 51 -62 51
-10 0 -18 -5 -18 -11z"/>
  <path d="M184 402 c30 -58 76 -78 76 -32 0 22 -45 60 -72 60 -17 0 -17 -2 -4
-28z"/>
  <path d="M210 275 c-25 -13 -53 -24 -62 -25 -23 0 -32 -18 -18 -35 21 -25 44
-17 95 35 55 56 52 61 -15 25z"/>
</g>
<g id="part-2" class="char-part">
  <path d="M461 399 c-61 -44 -50 -49 41 -18 77 26 78 27 54 45 -27 19 -34 18
-95 -27z"/>
</g>
<g id="part-3" class="char-part">
  <path d="M483 343 l2 -38 -70 -11 c-64 -10 -68 -12 -44 -22 16 -6 40 -7 63 -2
20 4 36 5 36 0 0 -16 -60 -88 -99 -119 -23 -19 -40 -35 -37 -38 9 -9 72 30
115 71 31 30 42 35 38 21 -11 -43 -17 -151 -8 -164 20 -30 31 2 31 90 0 93 6
103 40 69 24 -24 50 -26 50 -4 0 9 -17 22 -40 31 -31 12 -40 21 -40 40 0 20 5
23 39 23 42 0 62 14 35 24 -9 3 -26 3 -39 0 -21 -5 -24 -2 -27 28 -2 25 -8 34
-25 36 -20 3 -22 -1 -20 -35z"/>
</g>
<g id="part-4" class="char-part">
  <path d="M748 260 c4 -187 3 -191 -54 -170 -26 10 -24 7 16 -29 25 -22 48 -40
51 -41 19 -1 29 64 29 184 0 75 5 148 12 166 9 29 9 35 -7 47 -11 7 -26 13
-34 13 -14 0 -16 -21 -13 -170z"/>
</g>
</g>
</svg>