<?xml version="1.0" standalone="no"?>
<!DOCTYPE svg PUBLIC "-//W3C//DTD SVG 20010904//EN"
 "http://www.w3.org/TR/2001/REC-SVG-20010904/DTD/svg10.dtd">
<svg version="1.0" xmlns="http://www.w3.org/2000/svg"
 width="96.000000pt" height="68.000000pt" viewBox="0 0 96.000000 68.000000"
 preserveAspectRatio="xMidYMid meet">
<metadata>
Created by potrace 1.16, written by Peter Selinger 2001-2019
Combined from part_0.svg through part_5.svg with named groups
</metadata>
<g transform="translate(0.000000,68.000000) scale(0.100000,-0.100000)" fill="#000000" stroke="none">
<g id="part-0" class="char-part">
  <path d="M521 568 c18 -65 16 -68 -56 -68 -37 0 -65 -4 -65 -10 0 -5 4 -10 9
-10 13 0 21 -40 8 -42 -7 0 -16 -2 -22 -3 -5 -2 -23 -3 -39 -4 -47 -2 -19 -15
32 -16 41 0 47 -3 52 -25 6 -22 11 -25 49 -24 33 1 41 -3 39 -15 -2 -12 -19
-17 -70 -21 l-66 -5 15 -38 c15 -36 19 -39 49 -35 30 3 34 1 34 -19 0 -32 -28
-43 -114 -43 -43 0 -76 -4 -76 -10 0 -17 51 -23 107 -13 50 9 77 3 53 -12 -23
-14 -7 -33 35 -44 25 -6 45 -16 45 -21 0 -12 -61 -38 -125 -52 -27 -7 -42 -13
-32 -16 25 -5 111 15 162 38 l44 20 68 -35 c73 -37 93 -42 93 -22 0 27 -42 56
-102 71 -26 6 -41 36 -19 36 5 0 13 10 17 23 10 33 21 37 114 37 67 0 81 2 71
13 -7 7 -40 12 -79 13 -37 0 -80 6 -95 12 -39 16 -47 15 -47 -8 0 -16 -7 -20
-35 -20 -34 0 -46 12 -24 25 6 4 8 13 5 21 -4 10 3 14 23 14 52 0 121 13 121
22 0 5 7 16 15 25 29 29 11 38 -69 36 -60 -1 -76 1 -76 13 0 10 13 14 45 14
42 0 46 2 59 35 15 35 15 35 80 35 65 0 94 13 56 25 -11 4 -37 6 -58 5 -53 -3
-56 -2 -43 14 21 25 -13 39 -76 32 l-56 -6 5 32 c8 47 1 58 -37 58 -33 0 -33
0 -24 -32z m136 -83 c7 -20 6 -21 -44 -30 -39 -6 -43 -5 -43 13 0 30 76 44 87
17z m-129 -22 c-4 -22 -67 -31 -79 -11 -15 24 -10 28 37 28 38 0 45 -3 42 -17z
m112 -43 c0 -16 -7 -20 -35 -20 -40 0 -50 26 -12 33 42 8 47 7 47 -13z m-110
-11 c0 -15 -7 -19 -35 -19 -37 0 -51 25 -17 32 42 9 52 6 52 -13z m140 -93 c0
-19 -6 -22 -57 -31 -41 -6 -43 -6 -43 19 0 25 3 26 50 26 37 0 50 -4 50 -14z
m-142 -18 c-3 -20 -9 -23 -43 -23 -36 0 -54 9 -55 27 0 7 31 15 73 17 24 1 28
-2 25 -21z m82 -129 c0 -29 -22 -49 -55 -49 -60 0 -82 19 -53 48 15 15 108 16
108 1z"/>
  <path d="M230 410 c-14 -4 -49 -8 -77 -9 -54 -1 -64 -9 -39 -30 8 -7 20 -41
27 -77 14 -70 28 -86 54 -60 9 9 29 16 45 16 41 0 60 10 60 31 0 10 9 41 20
68 19 50 19 51 0 61 -21 11 -54 12 -90 0z m30 -54 c0 -14 -5 -37 -10 -51 -8
-21 -16 -26 -37 -23 -23 2 -29 10 -36 42 -11 45 -1 56 51 56 27 0 32 -4 32
-24z"/>
</g>
<g id="part-1" class="char-part">
  <path d="M225 404 c-23 -9 -58 -13 -82 -11 -24 3 -43 2 -43 0 0 -3 9 -16 19
-29 11 -14 22 -44 26 -67 4 -23 12 -51 17 -61 10 -17 11 -18 20 -3 5 10 22 17
41 18 55 2 72 12 75 44 2 17 11 45 20 64 15 32 14 34 -3 47 -23 17 -39 17 -90
-2z m37 -64 c-4 -48 -21 -70 -58 -70 -16 0 -23 8 -27 29 -3 16 -9 40 -12 54
-6 24 -4 26 32 30 67 7 68 6 65 -43z"/>
</g>
<g id="part-2" class="char-part">
  <path d="M516 602 c-2 -4 1 -27 7 -50 9 -33 16 -42 33 -42 17 0 23 8 27 37 4
20 5 38 3 40 -9 9 -66 21 -70 15z"/>
</g>
<g id="part-3" class="char-part">
  <path d="M575 510 c-27 -5 -81 -9 -118 -9 l-68 -1 21 -27 c25 -32 15 -42 -45
-43 -36 -1 -38 -2 -16 -11 14 -5 37 -7 53 -4 25 6 29 4 34 -24 l6 -31 62 4
c33 2 82 4 109 5 44 1 49 4 64 36 16 34 18 35 79 35 61 0 90 12 58 24 -9 3
-39 6 -67 6 -39 0 -48 3 -39 12 19 19 -6 38 -47 37 -20 -1 -58 -5 -86 -9z m82
-25 c7 -20 6 -21 -44 -30 -39 -6 -43 -5 -43 13 0 30 76 44 87 17z m-127 -19
c0 -16 -21 -26 -56 -26 -17 0 -24 6 -24 20 0 17 7 20 40 20 28 0 40 -4 40 -14z
m110 -46 c0 -16 -7 -20 -35 -20 -40 0 -50 26 -12 33 42 8 47 7 47 -13z m-110
-10 c0 -16 -7 -20 -35 -20 -43 0 -49 27 -7 33 15 2 30 5 35 6 4 0 7 -8 7 -19z"/>
</g>
<g id="part-4" class="char-part">
  <path d="M490 226 c0 -29 -20 -36 -117 -36 -40 0 -73 -4 -73 -9 0 -16 52 -21
110 -12 59 10 70 7 52 -11 -23 -23 -12 -36 40 -48 47 -12 50 -14 32 -27 -10
-7 -53 -25 -94 -38 -41 -13 -66 -24 -55 -24 34 -1 146 28 175 45 26 16 29 15
96 -20 80 -41 94 -44 94 -17 0 13 -17 27 -52 45 -29 14 -58 26 -65 26 -18 0
-17 5 10 50 l22 40 88 0 c48 0 87 4 87 9 0 15 -55 23 -102 16 -30 -5 -52 -2
-73 9 -39 21 -57 20 -53 -1 2 -14 -5 -19 -34 -21 -36 -3 -50 9 -28 23 18 11 0
25 -31 25 -24 0 -29 -4 -29 -24z m130 -43 c0 -2 -7 -18 -16 -35 -15 -28 -19
-30 -60 -25 -54 6 -59 9 -45 36 11 19 19 21 109 27 6 0 12 -1 12 -3z"/>
</g>
</g>
</svg>