<?xml version="1.0" standalone="no"?>
<!DOCTYPE svg PUBLIC "-//W3C//DTD SVG 20010904//EN"
 "http://www.w3.org/TR/2001/REC-SVG-20010904/DTD/svg10.dtd">
<svg version="1.0" xmlns="http://www.w3.org/2000/svg"
 width="96.000000pt" height="68.000000pt" viewBox="0 0 96.000000 68.000000"
 preserveAspectRatio="xMidYMid meet">
<metadata>
Created by potrace 1.16, written by Peter Selinger 2001-2019
Combined from part_0.svg through part_5.svg with named groups
</metadata>
<g transform="translate(0.000000,68.000000) scale(0.100000,-0.100000)" fill="#000000" stroke="none">
<g id="part-0" class="char-part">
  <path d="M365 575 c-121 -13 -222 -24 -224 -24 -3 -1 5 -10 17 -21 11 -11 24
-37 28 -57 11 -58 -4 -345 -20 -391 -13 -37 -13 -43 1 -58 13 -12 26 -14 57
-9 127 21 180 25 369 25 174 0 207 2 207 14 0 28 -42 46 -107 46 -43 0 -62 4
-61 12 3 13 -32 33 -77 43 l-30 7 35 -31 c19 -17 40 -32 45 -32 31 -4 -100
-18 -229 -25 l-149 -7 7 212 c4 116 9 218 12 226 6 14 43 21 146 28 48 3 57 1
61 -14 7 -26 0 -29 -60 -29 -29 0 -53 -2 -53 -5 0 -3 6 -21 14 -39 14 -33 15
-34 60 -29 37 5 46 3 46 -10 0 -18 -22 -23 -134 -32 -61 -6 -76 -9 -62 -17 12
-7 48 -7 110 1 50 6 151 14 225 16 74 3 136 7 138 9 2 2 -3 9 -11 15 -11 9
-42 10 -120 4 -78 -6 -107 -6 -110 3 -7 19 4 24 61 24 31 0 52 4 48 9 -3 6 5
19 17 31 19 18 21 22 8 31 -8 6 -41 8 -72 5 -46 -5 -58 -3 -58 8 0 8 -6 16
-12 19 -7 2 28 7 77 11 149 12 172 20 120 44 -33 15 -55 14 -320 -13z m215
-99 c0 -16 -21 -26 -56 -26 -17 0 -24 6 -24 20 0 17 7 20 40 20 28 0 40 -4 40
-14z m-120 0 c0 -23 -17 -36 -46 -36 -39 0 -48 26 -11 33 33 6 57 8 57 3z"/>
  <path d="M510 343 c-41 -6 -93 -12 -115 -12 l-40 -1 0 -83 0 -82 28 3 c43 4
33 -24 -20 -58 -63 -40 -34 -38 44 2 44 23 59 36 52 44 -12 15 97 27 122 14
26 -14 36 6 42 90 5 70 4 76 -16 85 -15 7 -46 6 -97 -2z m67 -29 c2 -7 -28
-15 -79 -22 -107 -15 -110 -15 -106 6 2 12 16 19 48 23 65 9 133 6 137 -7z m3
-48 c0 -15 -172 -37 -193 -24 -23 14 8 27 73 31 36 2 77 4 93 5 17 1 27 -3 27
-12z m0 -50 c0 -9 -21 -15 -67 -19 -106 -10 -133 -9 -133 7 0 11 15 16 53 19
123 8 147 7 147 -7z"/>
</g>
<g id="part-1" class="char-part">
  <path d="M410 574 c-118 -12 -225 -23 -238 -23 l-23 -1 20 -26 c19 -25 21 -40
21 -188 -1 -88 -5 -179 -9 -201 -5 -22 -12 -54 -16 -72 -10 -46 15 -56 91 -37
39 10 140 17 302 21 133 3 242 10 242 14 0 16 -40 29 -92 29 -29 0 -134 -7
-233 -15 -99 -8 -195 -15 -212 -15 l-33 0 0 183 c0 100 3 205 6 233 l6 51 182
12 c221 14 276 20 276 31 0 8 -23 17 -60 24 -8 2 -112 -7 -230 -20z"/>
</g>
<g id="part-2" class="char-part">
  <path d="M448 518 c-3 -20 -10 -23 -59 -26 l-57 -3 19 -38 c18 -38 19 -39 64
-34 37 5 45 3 45 -11 0 -23 27 -20 33 4 4 17 14 20 63 20 31 0 54 3 51 7 -4 3
2 17 14 29 31 33 16 46 -50 42 -45 -2 -62 1 -75 15 -24 24 -44 21 -48 -5z
m132 -32 c0 -23 -17 -36 -46 -36 -34 0 -48 22 -21 33 15 7 67 9 67 3z m-130
-26 c0 -16 -7 -20 -35 -20 -40 0 -50 26 -12 33 42 8 47 7 47 -13z"/>
</g>
<g id="part-3" class="char-part">
  <path d="M555 400 c-176 -16 -298 -29 -303 -34 -12 -13 56 -17 129 -7 44 6
143 14 220 17 86 5 136 11 131 16 -14 14 -76 17 -177 8z"/>
</g>
<g id="part-4" class="char-part">
  <path d="M404 145 c-4 -8 -25 -26 -48 -40 -22 -14 -35 -25 -28 -25 23 0 141
63 136 72 -9 14 -54 9 -60 -7z"/>
  <path d="M565 126 c41 -36 59 -43 70 -27 6 11 -33 51 -49 51 -6 0 -22 3 -36 6
-22 5 -20 2 15 -30z"/>
</g>
</g>
</svg>