<?xml version="1.0" standalone="no"?>
<!DOCTYPE svg PUBLIC "-//W3C//DTD SVG 20010904//EN"
 "http://www.w3.org/TR/2001/REC-SVG-20010904/DTD/svg10.dtd">
<svg version="1.0" xmlns="http://www.w3.org/2000/svg"
 width="96.000000pt" height="68.000000pt" viewBox="0 0 96.000000 68.000000"
 preserveAspectRatio="xMidYMid meet">
<metadata>
Created by potrace 1.16, written by Peter Selinger 2001-2019
Combined from part_0.svg through part_5.svg with named groups
</metadata>
<g transform="translate(0.000000,68.000000) scale(0.100000,-0.100000)" fill="#000000" stroke="none">
<g id="part-0" class="char-part">
  <path d="M533 498 c-2 -87 -8 -98 -55 -98 -16 0 -28 -4 -28 -10 0 -5 14 -10
30 -10 30 0 37 -11 24 -44 -4 -12 -20 -16 -54 -16 -27 0 -51 -4 -55 -9 -9 -15
27 -30 59 -24 26 5 27 4 17 -16 -7 -12 -32 -43 -57 -68 -24 -26 -44 -48 -44
-50 0 -13 35 2 65 28 20 18 37 30 39 28 3 -2 8 -35 13 -74 8 -67 10 -71 43
-87 44 -23 136 -23 190 -2 44 18 48 30 23 77 l-16 32 -8 -28 c-14 -50 -26 -57
-103 -57 -96 0 -101 4 -92 76 7 63 16 74 59 74 20 0 27 -5 27 -19 0 -30 -11
-51 -26 -51 -18 0 -18 -14 0 -29 19 -16 42 -4 54 27 34 88 20 110 -57 93 -45
-10 -81 -7 -81 6 0 3 9 18 21 34 31 43 72 40 129 -12 97 -87 106 -92 156 -84
53 8 51 13 -13 37 -53 20 -153 79 -153 90 0 4 37 8 83 8 76 1 81 2 62 16 -20
16 -62 15 -194 -3 l-44 -6 7 29 c4 16 9 30 10 31 1 2 30 6 64 9 60 7 78 18 46
31 -9 3 -32 1 -52 -5 -20 -6 -40 -8 -44 -4 -3 4 0 36 8 70 16 70 9 92 -30 92
-20 0 -21 -6 -23 -82z"/>
  <path d="M196 551 c-3 -5 -1 -22 5 -39 6 -17 9 -47 7 -69 l-3 -38 -52 -1 c-54
-1 -57 -4 -42 -39 5 -11 13 -39 19 -62 12 -46 26 -61 43 -44 24 24 38 12 35
-31 l-3 -43 -57 -3 c-32 -2 -58 -6 -58 -10 0 -31 69 -43 105 -19 11 7 46 22
77 32 46 15 59 16 72 6 17 -14 36 -7 36 13 0 15 -27 40 -53 49 -15 6 -17 3
-12 -12 4 -14 -1 -21 -25 -29 l-30 -11 0 40 c0 34 3 39 23 39 38 0 67 12 67
27 0 7 10 28 23 44 l22 31 -24 19 c-18 14 -37 19 -65 18 -45 -3 -44 -6 -32 73
6 41 5 45 -19 56 -31 14 -52 15 -59 3z m114 -194 c0 -25 -17 -47 -37 -47 -8 0
-13 13 -13 35 0 31 3 35 25 35 19 0 25 -5 25 -23z m-100 -22 c0 -28 -4 -35
-20 -35 -11 0 -20 6 -20 13 0 6 -3 22 -6 35 -5 19 -2 22 20 22 23 0 26 -4 26
-35z"/>
  <path d="M651 506 c-32 -52 -25 -58 29 -24 53 33 59 42 34 52 -30 11 -42 6
-63 -28z"/>
  <path d="M440 480 c22 -32 50 -40 50 -16 0 17 -37 46 -58 46 -9 0 -7 -9 8 -30z"/>
</g>
<g id="part-1" class="char-part">
  <path d="M200 553 c0 -5 5 -37 11 -72 6 -42 7 -67 0 -74 -5 -5 -35 -9 -65 -9
-47 0 -54 -2 -42 -13 8 -8 19 -37 26 -65 13 -53 27 -71 40 -50 4 6 16 10 26 8
14 -2 20 -13 22 -41 5 -53 30 -49 34 6 l3 42 48 3 c28 2 45 7 41 13 -3 6 6 28
20 49 25 38 25 40 7 50 -11 5 -40 10 -65 10 -46 0 -46 0 -46 34 0 19 4 46 10
61 9 24 7 27 -25 41 -39 16 -45 17 -45 7z m114 -171 c11 -19 -11 -67 -32 -70
-20 -3 -22 1 -22 37 0 37 3 41 24 41 14 0 27 -4 30 -8z m-94 -41 c0 -32 -4
-40 -22 -44 -26 -7 -38 7 -38 45 0 25 11 33 48 37 8 1 12 -13 12 -38z"/>
</g>
<g id="part-2" class="char-part">
  <path d="M311 238 c29 -57 69 -77 69 -35 0 14 -10 29 -29 40 -41 24 -55 22
-40 -5z"/>
</g>
<g id="part-3" class="char-part">
  <path d="M533 512 c-3 -128 -45 -235 -124 -314 -28 -28 -49 -52 -47 -54 12
-12 93 45 123 86 49 66 71 120 96 234 23 105 21 116 -26 116 -18 0 -20 -7 -22
-68z"/>
  <path d="M646 500 c-15 -23 -26 -43 -24 -45 2 -2 28 9 57 26 55 32 62 52 19
57 -19 2 -30 -6 -52 -38z"/>
  <path d="M436 480 c21 -35 43 -45 51 -24 7 19 -24 54 -49 54 -18 0 -19 -1 -2
-30z"/>
  <path d="M670 250 c72 -66 93 -75 145 -66 43 8 38 22 -13 36 -21 5 -68 28
-104 50 -37 22 -73 40 -80 40 -7 0 16 -27 52 -60z"/>
</g>
<g id="part-4" class="char-part">
  <path d="M527 420 c-4 -15 -14 -20 -42 -20 -21 0 -34 -4 -30 -10 3 -5 17 -10
31 -10 24 0 30 -13 18 -44 -4 -10 -19 -16 -43 -17 -20 0 -45 -4 -56 -9 -19 -7
-18 -8 6 -18 15 -6 36 -8 48 -5 17 4 20 2 15 -11 -10 -26 24 -19 49 9 21 24
30 26 145 32 67 3 122 10 122 14 0 17 -44 20 -136 9 -53 -6 -99 -9 -101 -6 -2
2 -1 15 2 29 6 22 14 26 66 32 32 4 62 11 65 16 9 16 -25 22 -67 11 -32 -8
-41 -7 -46 4 -8 21 -40 17 -46 -6z"/>
</g>
<g id="part-5" class="char-part">
  <path d="M489 218 c-1 -7 0 -17 1 -23 2 -5 3 -35 4 -65 1 -46 5 -56 23 -66 13
-6 20 -13 17 -16 -3 -3 5 -6 18 -6 13 0 41 -2 62 -4 49 -6 102 5 99 19 -1 6 6
9 16 6 25 -6 35 12 19 37 -16 26 -32 26 -18 1 13 -26 12 -41 -1 -17 -10 17
-12 16 -30 -10 -10 -16 -19 -24 -19 -19 0 6 -23 9 -55 7 -74 -5 -98 2 -112 33
-6 14 -8 23 -4 21 7 -5 11 21 14 79 2 21 -3 30 -15 33 -10 2 -19 -2 -19 -10z"/>
</g>
</g>
</svg>