<?xml version="1.0" standalone="no"?>
<!DOCTYPE svg PUBLIC "-//W3C//DTD SVG 20010904//EN"
 "http://www.w3.org/TR/2001/REC-SVG-20010904/DTD/svg10.dtd">
<svg version="1.0" xmlns="http://www.w3.org/2000/svg"
 width="96.000000pt" height="68.000000pt" viewBox="0 0 96.000000 68.000000"
 preserveAspectRatio="xMidYMid meet">
<metadata>
Created by potrace 1.16, written by Peter Selinger 2001-2019
Combined from part_0.svg through part_5.svg with named groups
</metadata>
<g transform="translate(0.000000,68.000000) scale(0.100000,-0.100000)" fill="#000000" stroke="none">
<g id="part-0" class="char-part">
  <path d="M488 549 c-6 -57 -17 -69 -66 -69 -20 0 -31 -4 -27 -10 3 -5 21 -10
40 -10 27 0 32 -3 29 -17 -9 -32 -43 -69 -52 -56 -4 6 -21 14 -37 18 l-30 7
32 -30 31 -30 -29 -28 c-36 -34 -38 -50 -3 -28 30 20 40 11 50 -46 10 -60 11
-61 47 -55 32 6 35 5 41 -25 3 -18 6 -48 6 -67 0 -35 0 -35 -37 -29 l-38 7 35
-30 c19 -17 40 -29 45 -28 22 8 35 54 33 114 -3 67 2 74 44 66 23 -4 27 -1 33
29 4 18 14 46 22 62 14 26 13 30 -6 49 -18 19 -25 19 -73 9 -87 -18 -151 -25
-147 -16 3 5 22 37 44 71 31 48 44 61 58 57 10 -3 23 -1 30 4 7 5 31 13 54 17
24 4 45 11 48 16 10 15 -41 21 -81 10 -56 -16 -56 -15 -49 28 5 33 3 41 -14
50 -28 16 -28 16 -33 -40z m120 -240 c-2 -17 -11 -21 -48 -24 -25 -1 -62 -6
-82 -10 -34 -6 -38 -5 -38 14 0 24 40 36 133 40 34 1 38 -2 35 -20z m-8 -58
c0 -16 -11 -20 -66 -26 -50 -5 -69 -4 -75 6 -12 21 -4 24 57 27 32 1 60 5 63
7 10 11 21 4 21 -14z"/>
  <path d="M225 514 c-9 -25 -35 -64 -57 -87 -24 -26 -38 -49 -36 -62 3 -21 15
-22 73 -9 29 6 29 5 -20 -45 -41 -42 -47 -53 -35 -61 8 -6 22 -7 30 -3 79 33
101 37 119 26 10 -7 22 -9 25 -6 13 13 5 43 -13 53 -26 13 -31 13 -31 -4 0
-18 -6 -22 -50 -31 -35 -7 -34 -6 42 71 64 65 75 81 67 97 -10 18 -44 20 -44
2 -1 -25 -28 -54 -56 -60 -17 -4 -33 -4 -36 -1 -3 3 18 33 46 66 54 65 61 84
35 94 -31 12 -42 5 -59 -40z"/>
  <path d="M668 447 l-26 -32 -32 23 c-17 13 -36 22 -42 20 -10 -4 125 -132 158
-151 17 -10 114 2 114 14 0 5 -7 9 -15 9 -24 0 -143 50 -156 66 -9 11 -3 18
35 34 48 22 57 34 30 44 -27 10 -38 6 -66 -27z"/>
  <path d="M286 242 c-5 -8 29 -52 39 -52 3 0 5 9 5 20 0 20 -35 46 -44 32z"/>
  <path d="M200 211 c0 -13 40 -61 51 -61 5 0 9 11 9 23 0 16 -9 28 -25 35 -31
14 -35 15 -35 3z"/>
  <path d="M100 185 c0 -16 32 -66 49 -74 33 -18 45 24 14 51 -20 17 -63 33 -63
23z"/>
  <path d="M379 147 c-6 -12 -25 -37 -42 -54 -24 -26 -27 -33 -14 -33 20 0 97
67 97 85 0 24 -29 25 -41 2z"/>
  <path d="M620 165 c0 -14 96 -105 110 -105 23 0 33 26 20 50 -11 20 -130 71
-130 55z"/>
</g>
<g id="part-1" class="char-part">
  <path d="M226 507 c-14 -29 -41 -70 -61 -91 -57 -63 -30 -83 60 -45 l30 12
-33 6 -33 6 55 67 c50 61 54 68 40 82 -24 25 -32 20 -58 -37z"/>
</g>
<g id="part-2" class="char-part">
  <path d="M280 240 c0 -5 9 -19 21 -31 16 -16 24 -18 33 -9 8 9 5 16 -13 31
-26 21 -41 24 -41 9z"/>
  <path d="M212 188 c32 -41 48 -46 48 -15 0 16 -8 28 -25 35 -43 20 -49 14 -23
-20z"/>
  <path d="M107 163 c29 -47 44 -62 59 -56 36 14 -12 83 -58 83 -18 0 -18 -1 -1
-27z"/>
</g>
<g id="part-3" class="char-part">
  <path d="M488 550 c-3 -28 -8 -53 -11 -56 -3 -3 -24 -8 -46 -11 -46 -6 -46
-23 0 -23 16 0 29 -5 29 -10 0 -21 -32 -73 -72 -116 -43 -47 -41 -56 6 -25 36
24 89 89 106 131 16 38 38 34 95 -20 65 -60 116 -104 131 -113 15 -8 114 2
114 12 0 3 -25 14 -56 24 -55 17 -214 112 -214 127 0 4 20 11 45 14 24 4 47
11 50 17 11 17 -26 22 -78 10 -27 -6 -52 -9 -55 -7 -2 3 0 19 6 35 9 27 8 33
-11 46 -32 22 -34 20 -39 -35z"/>
</g>
<g id="part-4" class="char-part">
  <path d="M673 448 c-12 -18 -21 -33 -19 -35 2 -2 24 6 49 18 36 18 44 26 35
36 -18 22 -42 15 -65 -19z"/>
  <path d="M356 396 c8 -21 44 -40 55 -29 13 13 -3 31 -34 38 -23 6 -26 4 -21
-9z"/>
</g>
<g id="part-5" class="char-part">
  <path d="M526 184 c-9 -23 -7 -77 4 -94 13 -21 23 -5 11 18 -8 15 -7 23 4 32
19 16 19 34 1 49 -11 9 -15 8 -20 -5z"/>
  <path d="M390 150 c20 -13 33 -13 25 0 -3 6 -14 10 -23 10 -15 0 -15 -2 -2
-10z"/>
  <path d="M647 153 c-9 -9 22 -35 33 -28 5 3 7 0 4 -8 -6 -16 43 -60 57 -51 13
7 11 27 -3 47 -15 19 -83 49 -91 40z"/>
  <path d="M363 112 c-32 -38 -29 -51 4 -16 15 16 28 28 30 27 2 -2 3 0 4 4 2
18 -18 10 -38 -15z"/>
  <path d="M510 60 c0 -5 -8 -7 -17 -3 -12 3 -10 0 5 -12 13 -9 30 -14 40 -10
13 5 14 8 3 14 -11 7 -11 9 0 14 8 3 4 6 -8 6 -13 1 -23 -3 -23 -9z"/>
</g>
</g>
</svg>