<?xml version="1.0" standalone="no"?>
<!DOCTYPE svg PUBLIC "-//W3C//DTD SVG 20010904//EN"
 "http://www.w3.org/TR/2001/REC-SVG-20010904/DTD/svg10.dtd">
<svg version="1.0" xmlns="http://www.w3.org/2000/svg"
 width="96.000000pt" height="68.000000pt" viewBox="0 0 96.000000 68.000000"
 preserveAspectRatio="xMidYMid meet">
<metadata>
Created by potrace 1.16, written by Peter Selinger 2001-2019
Combined from part_0.svg through part_5.svg with named groups
</metadata>
<g transform="translate(0.000000,68.000000) scale(0.100000,-0.100000)" fill="#000000" stroke="none">
<g id="part-0" class="char-part">
  <path d="M560 546 c0 -47 -3 -54 -22 -60 -49 -13 -58 -8 -58 29 0 30 -3 35
-24 35 -22 0 -24 -3 -19 -34 6 -41 -12 -50 -84 -42 -39 5 -44 4 -27 -5 14 -7
26 -29 34 -65 20 -83 20 -83 130 -72 52 5 114 7 137 4 l43 -6 35 73 c32 66 34
73 18 85 -9 6 -39 12 -65 12 l-48 0 6 40 c6 36 4 40 -20 50 -15 5 -29 10 -32
10 -2 0 -4 -24 -4 -54z m112 -83 c2 -10 -2 -34 -8 -53 -10 -30 -17 -35 -49
-38 -31 -3 -36 0 -33 15 2 12 14 19 33 21 43 5 56 22 17 22 -24 0 -32 4 -32
18 0 25 9 32 41 32 18 0 29 -6 31 -17z m-112 -2 c0 -28 -15 -41 -44 -41 -24 0
-32 5 -33 19 -1 11 6 22 15 24 31 8 62 7 62 -2z m-112 -29 c3 -19 -1 -22 -27
-22 -16 0 -33 5 -36 10 -13 21 4 39 32 37 21 -2 29 -8 31 -25z m4 -56 c13 -19
9 -26 -16 -26 -28 0 -40 14 -32 35 6 16 35 10 48 -9z m98 4 c0 -15 -7 -20 -29
-20 -20 0 -30 6 -34 20 -4 17 0 20 29 20 27 0 34 -4 34 -20z"/>
  <path d="M170 491 c0 -13 69 -71 84 -71 16 0 28 24 20 44 -10 27 -104 51 -104
27z"/>
  <path d="M110 362 c0 -4 15 -22 33 -40 41 -39 67 -42 67 -6 0 19 -8 28 -35 40
-38 16 -65 18 -65 6z"/>
  <path d="M503 296 c-126 -15 -132 -30 -8 -22 117 7 153 15 133 27 -7 5 -17 8
-23 8 -5 -1 -51 -7 -102 -13z"/>
  <path d="M243 248 c-31 -44 -83 -97 -117 -121 -22 -16 -17 -55 10 -81 20 -21
30 -14 58 42 12 26 39 77 59 114 20 36 37 71 37 77 0 22 -17 10 -47 -31z"/>
  <path d="M515 240 c-27 -5 -72 -9 -99 -9 -46 -1 -48 -2 -34 -18 24 -29 39 -71
27 -79 -6 -3 -2 -19 11 -40 11 -20 20 -37 20 -40 0 -2 -26 -5 -57 -5 -32 -1
-71 -5 -88 -9 -25 -6 -27 -8 -12 -15 10 -4 83 -3 162 4 79 6 195 11 259 11 69
0 116 4 116 10 0 17 -49 23 -136 17 -46 -2 -84 -2 -84 2 0 4 12 18 27 31 26
22 26 23 7 38 -13 10 -15 16 -6 19 6 3 12 10 12 16 0 6 7 19 16 29 14 14 14
20 4 33 -13 16 -60 18 -145 5z m88 -23 c10 -27 -11 -39 -83 -48 -79 -10 -90
-7 -90 21 0 15 10 20 48 25 26 3 54 8 62 9 35 8 58 5 63 -7z m-8 -86 c-7 -58
-21 -71 -75 -71 -43 0 -50 3 -50 19 0 11 -7 27 -16 36 -24 23 -8 33 61 38 33
2 65 4 72 5 8 1 11 -8 8 -27z"/>
</g>
<g id="part-1" class="char-part">
  <path d="M205 460 c33 -35 65 -40 65 -10 0 23 -28 40 -66 40 l-28 0 29 -30z"/>
  <path d="M135 330 c30 -31 75 -41 75 -16 0 21 -40 46 -74 46 l-30 0 29 -30z"/>
  <path d="M247 245 c-16 -24 -51 -64 -78 -89 -50 -45 -57 -62 -39 -97 17 -30
35 -22 56 24 10 23 34 69 52 102 40 70 54 105 44 105 -4 0 -20 -20 -35 -45z"/>
</g>
<g id="part-2" class="char-part">
  <path d="M560 526 c0 -96 -4 -106 -46 -106 l-34 0 0 65 c0 36 -4 65 -9 65 -5
0 -17 3 -27 7 -14 5 -16 1 -11 -28 21 -123 21 -119 -7 -119 -14 0 -26 -4 -26
-10 0 -5 11 -10 24 -10 16 0 27 -7 31 -20 9 -29 35 -25 35 5 0 21 5 25 30 25
23 0 30 -4 30 -20 0 -28 18 -25 32 5 7 15 20 25 32 25 12 0 28 5 36 10 11 7 6
10 -21 10 l-35 0 14 71 c15 73 12 82 -25 94 -22 6 -23 4 -23 -69z"/>
</g>
<g id="part-3" class="char-part">
  <path d="M550 488 c-25 -5 -86 -10 -137 -11 -82 -1 -91 -3 -78 -17 7 -8 21
-43 31 -78 17 -60 19 -63 43 -57 14 4 80 8 145 10 l119 3 33 68 c42 84 36 94
-50 93 -33 -1 -81 -5 -106 -11z m120 -37 c0 -70 -8 -76 -122 -89 -143 -17
-134 -19 -153 39 -9 28 -15 52 -14 53 2 2 62 8 134 13 72 5 136 10 143 11 7 1
12 -10 12 -27z"/>
</g>
<g id="part-4" class="char-part">
  <path d="M596 138 c-19 -74 -19 -73 -74 -76 -42 -2 -52 0 -52 12 0 21 -36 56
-56 56 -13 0 -12 -5 5 -34 12 -18 21 -36 21 -40 0 -3 -21 -6 -47 -7 -27 0 -66
-4 -88 -8 -82 -16 -4 -24 128 -12 73 6 189 11 260 11 76 0 127 4 127 10 0 17
-50 23 -136 16 -46 -3 -84 -2 -84 2 0 5 11 19 26 33 23 22 24 24 8 36 -22 16
-34 16 -38 1z"/>
</g>
</g>
</svg>