<?xml version="1.0" standalone="no"?>
<!DOCTYPE svg PUBLIC "-//W3C//DTD SVG 20010904//EN"
 "http://www.w3.org/TR/2001/REC-SVG-20010904/DTD/svg10.dtd">
<svg version="1.0" xmlns="http://www.w3.org/2000/svg"
 width="96.000000pt" height="68.000000pt" viewBox="0 0 96.000000 68.000000"
 preserveAspectRatio="xMidYMid meet">
<metadata>
Created by potrace 1.16, written by Peter Selinger 2001-2019
Combined from part_0.svg through part_5.svg with named groups
</metadata>
<g transform="translate(0.000000,68.000000) scale(0.100000,-0.100000)" fill="#000000" stroke="none">
<g id="part-0" class="char-part">
  <path d="M479 542 c-13 -10 -50 -33 -82 -51 -48 -27 -66 -32 -99 -28 -39 5
-40 5 -33 -21 15 -57 52 -292 47 -297 -3 -3 -35 -5 -71 -6 -36 0 -84 -3 -106
-8 -39 -7 -40 -7 -16 -20 16 -9 43 -11 85 -7 166 15 489 36 551 35 94 -1 93
-1 66 21 -21 18 -33 20 -132 14 -63 -4 -109 -3 -109 2 0 5 11 41 25 79 21 61
23 71 10 81 -24 18 -19 21 45 28 33 4 60 11 60 16 0 22 -74 20 -205 -4 -178
-34 -175 -34 -175 7 0 17 4 37 8 42 4 6 54 26 112 45 58 19 108 40 112 45 10
12 -28 45 -52 45 -9 0 -28 -8 -41 -18z m68 -262 c-5 -62 -13 -110 -19 -115 -2
-1 -37 -5 -79 -9 l-77 -7 -6 46 c-3 25 -9 64 -12 88 l-6 44 84 9 c130 15 121
20 115 -56z"/>
</g>
<g id="part-1" class="char-part">
  <path d="M489 542 c-13 -11 -53 -35 -89 -54 -53 -29 -72 -35 -104 -31 -35 5
-38 4 -31 -13 8 -21 26 -108 45 -222 11 -64 14 -72 34 -72 l22 0 -12 98 c-7
53 -13 117 -14 142 l0 46 115 39 c63 21 115 42 115 46 0 8 -40 39 -51 39 -3 0
-17 -8 -30 -18z"/>
</g>
<g id="part-2" class="char-part">
  <path d="M483 372 c-79 -14 -143 -30 -143 -34 0 -10 80 -9 145 2 28 4 54 4 59
0 9 -9 -1 -149 -12 -167 -4 -7 -77 -16 -182 -23 -96 -6 -193 -15 -215 -19
l-40 -8 33 -15 c25 -11 46 -13 85 -6 74 12 436 38 540 38 48 0 87 4 87 8 0 22
-53 31 -155 25 l-106 -6 7 29 c4 16 15 51 25 79 19 50 19 50 -2 66 -21 15 -19
16 52 23 67 7 72 9 55 22 -27 19 -66 17 -233 -14z"/>
</g>
</g>
</svg>