<?xml version="1.0" standalone="no"?>
<!DOCTYPE svg PUBLIC "-//W3C//DTD SVG 20010904//EN"
 "http://www.w3.org/TR/2001/REC-SVG-20010904/DTD/svg10.dtd">
<svg version="1.0" xmlns="http://www.w3.org/2000/svg"
 width="96.000000pt" height="68.000000pt" viewBox="0 0 96.000000 68.000000"
 preserveAspectRatio="xMidYMid meet">
<metadata>
Created by potrace 1.16, written by Peter Selinger 2001-2019
Combined from part_0.svg through part_5.svg with named groups
</metadata>
<g transform="translate(0.000000,68.000000) scale(0.100000,-0.100000)" fill="#000000" stroke="none">
<g id="part-0" class="char-part">
  <path d="M475 583 c18 -42 45 -167 38 -174 -4 -4 -43 -11 -86 -15 l-79 -7 4
29 c2 16 10 30 18 31 80 10 91 14 79 29 -9 11 -25 15 -51 12 l-38 -4 0 42 c0
43 -10 54 -51 54 -16 0 -18 -6 -13 -54 l5 -53 -51 -7 c-61 -8 -57 -26 6 -26
42 0 44 -1 44 -29 0 -26 -3 -29 -46 -35 -26 -3 -63 -6 -83 -6 -20 0 -42 -4
-50 -9 -25 -16 24 -23 109 -15 69 6 80 4 80 -9 0 -9 7 -22 15 -31 17 -17 7
-20 -97 -32 -78 -9 -65 -28 13 -21 33 3 59 1 59 -3 0 -10 -65 -63 -122 -100
-51 -34 -40 -37 20 -6 60 31 67 25 57 -50 -8 -65 5 -70 63 -27 20 15 39 28 41
30 2 2 2 6 -1 9 -4 3 -16 0 -28 -6 -28 -15 -31 -11 -36 48 -3 45 -1 51 27 71
17 13 28 29 26 36 -5 13 51 25 115 25 17 0 27 4 23 10 -3 6 -31 10 -61 10 -40
0 -54 4 -54 15 0 7 -8 18 -17 24 -27 15 -15 19 82 26 l90 7 33 -97 33 -97 -29
-28 c-16 -15 -46 -39 -68 -54 -21 -14 -33 -26 -27 -26 21 0 87 34 113 58 l25
22 38 -40 c60 -63 99 -88 145 -96 23 -4 42 -3 42 2 0 23 -38 126 -39 107 -3
-67 -31 -69 -94 -5 -48 49 -56 71 -34 94 29 32 57 79 57 97 0 12 -9 21 -26 25
-32 8 -31 9 -37 -30 -6 -36 -24 -74 -36 -74 -7 0 -42 79 -56 128 -6 21 -4 22
72 23 43 0 87 4 98 8 19 8 19 8 -3 20 -16 9 -47 10 -103 5 l-79 -7 0 85 c0 93
-8 108 -53 108 -24 0 -28 -3 -22 -17z"/>
  <path d="M629 520 c36 -32 81 -40 81 -15 0 19 -51 45 -87 45 l-28 0 34 -30z"/>
  <path d="M421 221 c-15 -21 -27 -28 -41 -24 -11 3 -20 3 -20 0 0 -11 88 -97
98 -97 21 0 13 21 -19 53 -29 29 -30 32 -13 44 10 7 26 13 36 13 21 0 23 11 6
28 -18 18 -24 15 -47 -17z"/>
</g>
<g id="part-1" class="char-part">
  <path d="M299 524 c4 -53 -6 -64 -57 -64 -20 0 -31 -4 -27 -10 3 -5 26 -10 51
-10 42 0 44 -1 44 -29 0 -24 3 -28 20 -24 14 4 20 14 20 33 0 26 4 29 50 35
28 4 50 10 50 15 0 12 -40 19 -73 13 -29 -6 -30 -5 -25 28 7 47 1 59 -30 59
-26 0 -27 -2 -23 -46z"/>
</g>
<g id="part-2" class="char-part">
  <path d="M475 583 c10 -24 31 -100 39 -145 l7 -36 -88 -7 c-48 -4 -99 -9 -113
-11 -14 -2 -67 -7 -117 -11 -91 -6 -117 -17 -69 -29 13 -3 94 2 181 10 231 23
206 31 240 -71 17 -49 31 -93 33 -99 2 -7 -26 -34 -62 -60 -36 -27 -63 -50
-61 -52 7 -8 68 20 109 49 l39 28 26 -34 c38 -51 105 -96 151 -102 22 -3 40
-3 40 1 0 3 -8 34 -17 69 -18 60 -18 61 -23 27 -8 -54 -33 -50 -96 13 l-56 56
41 55 c46 62 50 80 22 96 -31 16 -41 12 -41 -15 0 -28 -26 -85 -38 -85 -13 0
-41 66 -48 110 l-7 40 86 0 c88 0 114 10 76 31 -15 8 -48 9 -101 4 l-78 -6 0
85 c0 92 -8 106 -60 106 -17 0 -20 -4 -15 -17z"/>
  <path d="M600 544 c0 -10 54 -49 82 -59 24 -9 35 22 16 42 -17 16 -98 31 -98
17z"/>
</g>
<g id="part-3" class="char-part">
  <path d="M300 343 c0 -3 8 -15 17 -25 23 -26 9 -34 -78 -42 -39 -4 -67 -11
-64 -17 9 -13 44 -12 183 8 124 18 167 38 67 31 -47 -2 -55 0 -55 14 0 10 -9
22 -19 28 -22 11 -51 13 -51 3z"/>
</g>
<g id="part-4" class="char-part">
  <path d="M289 234 c-13 -14 -52 -44 -86 -67 -34 -22 -61 -43 -59 -45 13 -13
206 107 206 129 0 18 -37 8 -61 -17z"/>
</g>
<g id="part-5" class="char-part">
  <path d="M414 214 c-17 -19 -28 -34 -23 -34 4 0 11 5 14 10 4 6 20 16 37 23
25 10 28 15 17 23 -11 9 -21 4 -45 -22z"/>
  <path d="M263 123 c0 -27 -2 -54 -4 -62 -7 -23 15 -21 46 5 17 13 23 22 14 19
-22 -8 -32 10 -31 52 1 21 -3 33 -12 33 -9 0 -13 -15 -13 -47z"/>
  <path d="M420 138 c30 -32 46 -34 34 -4 -3 9 -13 16 -21 16 -8 0 -11 5 -8 10
3 6 -3 10 -14 10 -18 0 -17 -3 9 -32z"/>
</g>
</g>
</svg>