<?xml version="1.0" standalone="no"?>
<!DOCTYPE svg PUBLIC "-//W3C//DTD SVG 20010904//EN"
 "http://www.w3.org/TR/2001/REC-SVG-20010904/DTD/svg10.dtd">
<svg version="1.0" xmlns="http://www.w3.org/2000/svg"
 width="96.000000pt" height="68.000000pt" viewBox="0 0 96.000000 68.000000"
 preserveAspectRatio="xMidYMid meet">
<metadata>
Created by potrace 1.16, written by Peter Selinger 2001-2019
Combined from part_0.svg through part_5.svg with named groups
</metadata>
<g transform="translate(0.000000,68.000000) scale(0.100000,-0.100000)" fill="#000000" stroke="none">
<g id="part-0" class="char-part">
  <path d="M424 593 c13 -59 18 -131 9 -136 -4 -3 -47 -10 -93 -16 -139 -18
-160 -22 -160 -31 0 -4 14 -13 31 -19 24 -8 52 -7 116 4 47 8 90 15 95 15 15
0 6 -103 -10 -119 -11 -11 -18 -12 -31 -3 -44 32 -95 53 -119 49 -24 -3 -25
-4 -7 -11 73 -29 125 -64 125 -84 0 -17 -85 -77 -150 -107 -79 -37 -78 -36
-26 -30 57 6 169 58 195 91 l17 22 70 -51 c138 -102 127 -97 228 -97 154 0
143 17 -44 66 -104 27 -220 92 -220 123 0 9 8 33 19 54 10 20 22 52 25 71 l7
34 87 7 c48 3 96 10 107 14 18 7 17 9 -9 26 -25 17 -36 18 -105 8 -42 -6 -77
-10 -79 -9 -1 2 2 32 7 67 10 77 3 89 -51 89 -39 0 -40 -1 -34 -27z"/>
</g>
<g id="part-1" class="char-part">
  <path d="M425 598 c4 -13 9 -51 12 -84 6 -73 16 -68 -146 -85 -100 -10 -112
-14 -96 -25 23 -17 70 -17 160 0 39 8 74 12 78 9 4 -2 5 -20 1 -39 -5 -29 -4
-34 14 -34 25 0 39 18 44 55 3 28 6 30 53 32 89 5 155 14 155 23 0 19 -61 29
-117 20 -92 -15 -87 -19 -80 60 6 69 5 71 -19 80 -14 6 -35 10 -46 10 -17 0
-19 -4 -13 -22z"/>
</g>
<g id="part-2" class="char-part">
  <path d="M421 313 c-7 -18 -15 -33 -19 -33 -4 0 -25 12 -46 26 -39 27 -125 47
-113 27 4 -6 19 -14 34 -18 34 -8 103 -56 103 -72 0 -24 -123 -100 -224 -137
-39 -14 -8 -15 56 -1 73 15 128 40 173 79 17 14 33 26 37 26 4 0 48 -31 99
-70 l91 -70 97 0 c53 0 102 4 110 9 14 9 -3 15 -180 66 -49 13 -157 70 -182
94 -5 5 -1 30 7 55 9 26 16 48 16 49 0 2 -11 3 -24 3 -17 0 -26 -8 -35 -33z"/>
</g>
</g>
</svg>