<?xml version="1.0" standalone="no"?>
<!DOCTYPE svg PUBLIC "-//W3C//DTD SVG 20010904//EN"
 "http://www.w3.org/TR/2001/REC-SVG-20010904/DTD/svg10.dtd">
<svg version="1.0" xmlns="http://www.w3.org/2000/svg"
 width="96.000000pt" height="68.000000pt" viewBox="0 0 96.000000 68.000000"
 preserveAspectRatio="xMidYMid meet">
<metadata>
Created by potrace 1.16, written by Peter Selinger 2001-2019
Combined from part_0.svg through part_5.svg with named groups
</metadata>
<g transform="translate(0.000000,68.000000) scale(0.100000,-0.100000)" fill="#000000" stroke="none">
<g id="part-0" class="char-part">
  <path d="M575 571 c-27 -15 -67 -34 -88 -41 -64 -20 -36 -20 48 0 44 11 87 20
95 20 8 0 22 5 30 10 13 9 12 12 -4 25 -25 19 -22 20 -81 -14z"/>
  <path d="M680 525 c-7 -8 -9 -15 -4 -15 5 0 -6 -14 -25 -30 -42 -37 -35 -38
29 -3 55 30 59 37 31 52 -14 8 -22 7 -31 -4z"/>
  <path d="M188 493 c-43 -8 -78 -19 -78 -23 0 -5 21 -10 48 -12 l47 -3 3 -58
c2 -31 -1 -57 -5 -56 -28 5 -73 -3 -73 -12 0 -7 15 -10 39 -7 38 3 39 2 43
-30 2 -19 2 -47 0 -62 -4 -25 -10 -29 -63 -41 -61 -14 -70 -28 -28 -43 20 -7
45 2 129 43 96 48 100 53 24 35 -25 -6 -25 -6 -22 52 3 57 4 59 33 62 46 5 55
22 12 22 l-37 0 0 53 0 53 43 10 c23 5 42 14 42 19 0 16 -73 15 -157 -2z"/>
  <path d="M530 492 c0 -10 33 -42 43 -42 15 0 6 30 -12 40 -24 12 -31 13 -31 2z"/>
  <path d="M437 483 c-9 -9 23 -43 40 -43 8 0 13 5 11 12 -6 16 -43 39 -51 31z"/>
  <path d="M570 428 c-92 -13 -150 -16 -160 -10 -11 7 -20 -1 -37 -34 -27 -51
-28 -54 -8 -54 8 0 22 12 32 28 9 15 18 28 19 30 1 2 70 10 154 18 83 8 157
15 163 17 7 1 12 -9 13 -23 0 -27 9 -28 61 -3 39 18 35 29 -15 43 -45 12 -42
12 -222 -12z"/>
  <path d="M645 380 c-7 -11 35 -40 57 -40 36 0 14 32 -29 43 -13 3 -25 1 -28
-3z"/>
  <path d="M535 360 c18 -20 45 -27 45 -12 0 15 -24 32 -44 32 -18 0 -19 -1 -1
-20z"/>
  <path d="M428 328 c-20 -30 -23 -54 -9 -63 14 -8 33 32 29 63 l-3 26 -17 -26z"/>
  <path d="M490 319 c6 -11 26 -29 43 -40 26 -17 43 -19 91 -15 32 3 66 11 74
18 12 10 8 15 -24 29 -50 22 -55 23 -52 2 5 -30 -60 -29 -105 1 -34 23 -37 24
-27 5z"/>
  <path d="M486 229 c-4 -19 -26 -51 -55 -80 -26 -27 -44 -49 -39 -49 15 0 51
21 75 43 21 19 24 19 48 3 14 -9 25 -21 25 -26 0 -12 -68 -49 -135 -72 l-50
-18 57 5 c33 3 82 17 113 32 54 27 57 27 83 10 86 -54 151 -68 222 -48 21 6
12 10 -50 25 -80 20 -170 54 -170 65 0 4 18 25 40 46 22 21 40 44 40 51 0 17
-35 24 -92 17 -41 -5 -52 -3 -60 10 -16 29 -45 21 -52 -14z m138 -31 c-47 -56
-54 -59 -85 -41 -16 10 -29 22 -29 29 0 11 64 31 109 33 24 1 24 1 5 -21z"/>
</g>
<g id="part-1" class="char-part">
  <path d="M203 492 c-46 -9 -83 -20 -83 -24 0 -12 110 -9 163 5 50 13 64 31 25
33 -13 1 -60 -5 -105 -14z"/>
</g>
<g id="part-2" class="char-part">
  <path d="M220 463 c-12 -3 -14 -15 -11 -55 3 -56 -5 -68 -51 -68 -15 0 -30 -4
-33 -10 -4 -6 12 -10 39 -10 l46 0 0 -59 0 -58 -60 -13 c-64 -13 -73 -28 -27
-44 22 -8 43 -1 129 42 94 48 98 54 23 36 -24 -6 -25 -4 -25 43 0 54 12 73 46
73 13 0 25 4 28 9 8 12 -18 21 -43 14 -19 -5 -21 -1 -21 45 0 50 -9 62 -40 55z"/>
</g>
<g id="part-3" class="char-part">
  <path d="M530 554 c-47 -24 -80 -43 -75 -44 6 0 59 12 119 27 107 27 108 27
86 45 -28 23 -29 23 -130 -28z"/>
  <path d="M670 510 c-7 -17 -22 -35 -32 -41 -11 -6 -17 -13 -15 -16 7 -7 107
48 107 58 0 8 -32 29 -43 29 -3 0 -10 -14 -17 -30z"/>
  <path d="M530 492 c0 -14 39 -46 47 -38 4 4 2 15 -3 24 -12 19 -44 29 -44 14z"/>
  <path d="M430 482 c0 -12 34 -42 48 -42 22 0 12 27 -13 38 -31 14 -35 15 -35
4z"/>
</g>
<g id="part-4" class="char-part">
  <path d="M719 446 c-2 -2 -71 -11 -152 -20 -103 -12 -152 -14 -161 -7 -9 8
-18 -1 -34 -35 -26 -53 -26 -54 -7 -54 8 0 22 12 32 28 9 15 18 28 19 30 2 4
270 31 312 32 29 0 32 -2 22 -19 -5 -11 -10 -22 -10 -25 0 -8 89 25 96 35 11
18 -100 51 -117 35z"/>
</g>
<g id="part-5" class="char-part">
  <path d="M629 221 c9 -6 10 -11 3 -15 -6 -4 -8 -14 -5 -23 4 -10 2 -14 -4 -10
-13 8 -45 -26 -41 -43 2 -7 -3 -15 -9 -17 -7 -3 -13 0 -13 7 0 6 5 8 10 5 6
-3 10 -4 10 -1 0 8 -61 38 -67 33 -2 -3 5 -8 16 -12 34 -10 24 -30 -29 -59
-55 -30 -67 -51 -20 -35 16 6 27 15 24 21 -3 5 0 8 7 7 29 -5 87 35 118 82 17
27 39 49 49 49 15 0 15 2 2 10 -8 5 -26 10 -40 10 -18 0 -21 -3 -11 -9z"/>
  <path d="M548 213 c7 -3 16 -2 19 1 4 3 -2 6 -13 5 -11 0 -14 -3 -6 -6z"/>
  <path d="M606 101 c-3 -4 10 -17 29 -27 19 -10 35 -23 35 -27 0 -5 7 -6 16 -3
8 3 12 2 9 -4 -4 -6 16 -10 51 -10 44 0 55 3 47 11 -7 7 -26 12 -42 13 -17 1
-31 4 -31 9 0 4 -13 7 -30 7 -16 0 -30 4 -30 8 0 13 -48 33 -54 23z"/>
</g>
</g>
</svg>