<?xml version="1.0" standalone="no"?>
<!DOCTYPE svg PUBLIC "-//W3C//DTD SVG 20010904//EN"
 "http://www.w3.org/TR/2001/REC-SVG-20010904/DTD/svg10.dtd">
<svg version="1.0" xmlns="http://www.w3.org/2000/svg"
 width="96.000000pt" height="68.000000pt" viewBox="0 0 96.000000 68.000000"
 preserveAspectRatio="xMidYMid meet">
<metadata>
Created by potrace 1.16, written by Peter Selinger 2001-2019
Combined from part_0.svg through part_5.svg with named groups
</metadata>
<g transform="translate(0.000000,68.000000) scale(0.100000,-0.100000)" fill="#000000" stroke="none">
<g id="part-0" class="char-part">
  <path d="M470 578 c0 -9 9 -27 20 -40 l19 -25 -47 -7 c-26 -3 -80 -9 -120 -12
-73 -7 -98 -19 -69 -35 37 -21 28 -156 -17 -255 -14 -29 -47 -76 -75 -104 -65
-65 -36 -70 41 -7 77 63 117 145 125 260 3 48 11 91 17 96 15 11 146 29 284
37 83 5 112 10 112 20 0 20 -60 32 -116 23 -75 -12 -84 -11 -84 10 0 24 -19
39 -58 47 -25 5 -32 3 -32 -8z"/>
  <path d="M167 390 c29 -44 60 -60 74 -39 13 21 11 28 -16 54 -15 16 -36 25
-54 25 l-30 0 26 -40z"/>
  <path d="M520 394 c-47 -8 -97 -13 -112 -11 l-27 3 0 -114 c-1 -62 3 -121 9
-131 38 -71 294 -92 416 -34 36 18 40 28 25 65 -5 13 -13 32 -16 43 -6 17 -9
13 -19 -20 -19 -66 -56 -80 -206 -79 -158 0 -170 6 -170 78 l0 54 78 6 c163
14 181 17 175 33 -3 8 4 27 16 43 24 33 26 51 9 68 -15 15 -69 14 -178 -4z
m122 -49 c-4 -48 -7 -51 -55 -58 l-38 -6 3 47 c3 50 17 62 68 59 23 -2 25 -6
22 -42z m-134 -22 l-3 -48 -42 -3 -43 -3 0 41 c0 43 17 58 68 59 21 1 23 -3
20 -46z"/>
  <path d="M256 322 c-9 -16 -120 -72 -141 -72 -8 0 -15 -9 -15 -19 0 -19 18
-31 46 -31 21 0 128 104 122 120 -3 11 -6 11 -12 2z"/>
</g>
<g id="part-1" class="char-part">
  <path d="M470 581 c0 -5 11 -23 25 -40 l26 -30 -33 -5 c-18 -3 -76 -10 -128
-16 -52 -6 -96 -13 -98 -15 -2 -2 6 -8 17 -15 18 -9 21 -20 21 -74 0 -114 -43
-219 -122 -296 l-43 -42 43 22 c96 47 148 138 166 288 13 114 0 106 206 123
74 6 153 14 175 18 l40 8 -28 13 c-21 10 -44 11 -102 4 -75 -10 -75 -10 -75
14 0 17 -9 27 -35 38 -40 16 -55 18 -55 5z"/>
  <path d="M173 393 c26 -42 67 -57 67 -26 0 10 -4 23 -8 29 -10 15 -47 34 -66
34 -13 0 -12 -7 7 -37z"/>
  <path d="M195 281 c-38 -21 -77 -40 -85 -43 -13 -4 -13 -7 -1 -21 21 -26 39
-21 95 29 42 38 77 77 64 73 -2 -1 -34 -18 -73 -38z"/>
</g>
<g id="part-2" class="char-part">
  <path d="M488 391 l-108 -15 0 -65 0 -64 107 7 c159 10 192 16 186 32 -3 8 6
32 21 54 23 35 24 40 10 54 -19 19 -69 19 -216 -3z m155 -45 c-3 -48 -7 -52
-60 -60 l-41 -6 10 36 c5 20 7 42 4 49 -6 16 16 24 59 22 28 -2 30 -4 28 -41z
m-135 -23 l-3 -48 -43 -3 -43 -3 3 42 c2 36 7 44 28 50 57 16 61 13 58 -38z"/>
</g>
<g id="part-3" class="char-part">
  <path d="M387 244 c-13 -13 -7 -89 8 -111 8 -12 36 -30 62 -40 69 -26 257 -24
328 4 45 17 50 22 49 49 -1 16 -7 43 -14 59 l-12 30 -12 -40 c-18 -63 -62 -80
-206 -79 -63 1 -127 6 -142 12 -24 10 -27 17 -30 63 -3 49 -15 69 -31 53z"/>
</g>
</g>
</svg>