<?xml version="1.0" standalone="no"?>
<!DOCTYPE svg PUBLIC "-//W3C//DTD SVG 20010904//EN"
 "http://www.w3.org/TR/2001/REC-SVG-20010904/DTD/svg10.dtd">
<svg version="1.0" xmlns="http://www.w3.org/2000/svg"
 width="96.000000pt" height="68.000000pt" viewBox="0 0 96.000000 68.000000"
 preserveAspectRatio="xMidYMid meet">
<metadata>
Created by potrace 1.16, written by Peter Selinger 2001-2019
Combined from part_0.svg through part_5.svg with named groups
</metadata>
<g transform="translate(0.000000,68.000000) scale(0.100000,-0.100000)" fill="#000000" stroke="none">
<g id="part-0" class="char-part">
  <path d="M517 584 c14 -50 10 -118 -7 -121 -8 -1 -46 -5 -83 -8 -57 -6 -66 -9
-56 -21 6 -7 14 -12 18 -10 12 8 -7 -169 -22 -204 -8 -19 -32 -56 -52 -83 -20
-26 -31 -47 -26 -47 22 0 107 98 119 138 7 23 17 44 22 47 6 4 35 -20 65 -51
50 -53 53 -59 40 -74 -9 -10 -32 -24 -53 -32 -93 -39 -89 -37 -65 -37 12 -1
54 11 93 25 l71 25 38 -34 c50 -45 70 -51 145 -42 105 11 103 25 -7 49 -63 14
-137 48 -137 63 0 8 21 45 46 80 33 48 42 69 34 77 -10 10 -76 13 -110 5 -12
-3 -16 9 -18 57 -3 69 2 74 81 74 35 0 38 -2 31 -22 -3 -13 -11 -29 -16 -35
-15 -19 -3 -16 52 12 63 32 67 41 28 61 -25 13 -47 15 -100 10 -80 -7 -86 -2
-68 64 6 23 9 44 7 46 -3 3 -21 8 -41 11 -37 6 -37 6 -29 -23z m13 -210 l0
-65 -47 3 -48 3 3 54 c1 29 5 57 8 62 3 5 23 9 45 9 l39 0 0 -66z m100 -79 c0
-15 -29 -73 -44 -88 -16 -16 -19 -15 -54 18 -20 19 -40 35 -44 35 -5 0 -8 6
-8 14 0 10 14 16 43 19 75 7 107 7 107 2z"/>
  <path d="M185 544 c5 -10 11 -52 13 -91 3 -71 3 -73 -20 -73 -34 0 -68 -11
-68 -21 0 -5 20 -9 44 -9 41 0 44 -2 50 -31 14 -74 10 -86 -41 -103 -26 -9
-55 -16 -65 -16 -25 0 -23 -16 4 -34 39 -27 53 -23 217 72 47 28 41 41 -11 23
-47 -17 -49 -15 -46 41 3 52 3 53 41 59 20 3 40 9 44 13 12 11 -19 26 -54 26
-30 0 -33 3 -33 33 0 17 4 48 10 67 12 42 5 50 -50 57 -40 6 -43 5 -35 -13z"/>
</g>
<g id="part-1" class="char-part">
  <path d="M194 538 c4 -13 9 -53 13 -90 l6 -66 -47 -7 c-59 -9 -60 -25 -1 -25
l45 0 0 -63 0 -64 -60 -16 c-33 -10 -60 -21 -60 -26 0 -5 13 -14 28 -20 25
-10 36 -8 97 26 39 21 87 47 107 58 49 26 40 31 -18 11 -26 -9 -49 -16 -51
-16 -2 0 -3 26 -1 57 l3 58 43 9 c23 5 42 12 42 17 0 12 -38 21 -62 14 -21 -7
-21 -6 -15 69 5 75 5 77 -19 87 -43 16 -57 12 -50 -13z"/>
</g>
<g id="part-2" class="char-part">
  <path d="M516 575 c7 -19 14 -50 14 -69 0 -37 -15 -46 -77 -46 -18 0 -33 -4
-33 -10 0 -11 8 -13 68 -10 l42 2 0 -61 c0 -54 2 -61 20 -61 18 0 20 7 20 64
0 71 5 76 83 76 35 0 38 -2 32 -22 -4 -13 -11 -27 -16 -32 -22 -24 -4 -21 51
8 33 17 60 34 60 38 0 11 -56 38 -82 40 -13 0 -44 -2 -70 -7 -53 -8 -60 2 -46
69 10 45 1 56 -49 56 l-32 0 15 -35z"/>
</g>
<g id="part-3" class="char-part">
  <path d="M375 430 c15 -16 17 -32 13 -92 -5 -82 -30 -148 -80 -210 l-32 -40
30 15 c78 41 127 144 136 287 2 46 -10 60 -56 60 -28 0 -29 -1 -11 -20z"/>
</g>
<g id="part-4" class="char-part">
  <path d="M580 324 c-36 -7 -82 -13 -102 -14 -20 0 -39 -4 -43 -9 -3 -5 22 -38
55 -72 54 -57 58 -65 44 -80 -8 -9 -31 -23 -52 -31 -87 -36 -91 -39 -43 -33
25 3 66 16 92 30 l47 23 29 -30 c47 -50 79 -61 150 -55 99 10 107 21 27 41
-38 9 -93 28 -123 42 -53 24 -53 24 -37 49 9 14 24 37 33 53 9 15 26 37 37 50
37 41 -13 57 -114 36z m32 -77 c-11 -24 -25 -48 -32 -52 -7 -5 -31 11 -61 41
l-50 49 73 11 c40 5 77 7 81 3 5 -4 0 -27 -11 -52z"/>
</g>
</g>
</svg>