<?xml version="1.0" standalone="no"?>
<!DOCTYPE svg PUBLIC "-//W3C//DTD SVG 20010904//EN"
 "http://www.w3.org/TR/2001/REC-SVG-20010904/DTD/svg10.dtd">
<svg version="1.0" xmlns="http://www.w3.org/2000/svg"
 width="96.000000pt" height="68.000000pt" viewBox="0 0 96.000000 68.000000"
 preserveAspectRatio="xMidYMid meet">
<metadata>
Created by potrace 1.16, written by Peter Selinger 2001-2019
Combined from part_0.svg through part_5.svg with named groups
</metadata>
<g transform="translate(0.000000,68.000000) scale(0.100000,-0.100000)" fill="#000000" stroke="none">
<g id="part-0" class="char-part">
  <path d="M517 551 c5 -48 5 -49 -26 -56 -35 -8 -32 -27 4 -21 18 3 24 -1 28
-19 4 -22 0 -24 -50 -31 -37 -4 -51 -10 -44 -17 6 -6 35 -6 88 2 43 6 101 13
128 15 28 3 54 5 58 5 5 1 5 6 1 12 -4 8 -28 10 -71 6 -62 -6 -64 -6 -61 16 2
14 14 25 33 31 40 13 42 16 25 26 -8 5 -25 7 -37 4 -21 -6 -22 -4 -17 26 8 35
-5 50 -43 50 -21 0 -22 -3 -16 -49z"/>
  <path d="M244 543 c-13 -44 -51 -109 -81 -138 -53 -51 -36 -91 27 -65 52 22
54 5 4 -43 -38 -36 -46 -49 -37 -58 10 -10 25 -7 72 13 35 15 69 24 85 21 41
-8 30 28 -13 42 -19 6 -23 4 -18 -8 4 -12 -4 -19 -29 -27 -20 -7 -38 -9 -41
-6 -3 3 26 38 66 78 73 75 79 86 59 106 -19 19 -26 14 -39 -27 -11 -38 -33
-51 -86 -51 -17 0 7 37 60 94 37 41 42 53 26 72 -16 20 -49 17 -55 -3z"/>
  <path d="M602 384 c2 -22 -2 -29 -17 -32 -36 -7 -41 -22 -7 -22 25 0 32 -4 32
-19 0 -13 -11 -22 -37 -30 -31 -9 -18 -10 66 -5 58 3 109 8 114 11 19 12 -20
23 -60 17 -39 -6 -43 -4 -43 14 0 15 9 22 30 27 39 9 40 29 1 22 -25 -5 -30
-3 -33 16 -2 14 -11 23 -26 25 -20 3 -23 0 -20 -24z"/>
  <path d="M418 360 c4 -25 1 -30 -17 -30 -11 0 -21 -4 -21 -10 0 -5 11 -10 25
-10 20 0 24 -4 21 -22 -2 -16 -11 -24 -27 -26 -13 -2 -31 -5 -39 -8 -13 -5
-13 -7 2 -15 12 -7 37 -2 84 16 77 29 95 41 47 30 -29 -6 -33 -4 -33 13 0 13
10 24 27 29 l28 10 -28 6 c-15 4 -27 14 -27 22 0 8 -4 15 -9 15 -5 0 -16 2
-24 5 -10 5 -13 -1 -9 -25z"/>
  <path d="M610 240 c-19 -4 -74 -13 -122 -20 -85 -12 -120 -30 -58 -30 21 0 30
-5 30 -17 0 -22 -75 -93 -130 -121 -45 -23 -45 -24 -11 -18 69 12 198 117 185
151 -5 11 1 15 25 15 l31 0 0 -62 c1 -40 6 -70 15 -82 8 -11 15 -16 15 -10 0
5 4 3 9 -5 12 -18 126 -26 178 -12 60 16 70 41 40 92 l-24 41 -7 -35 c-4 -19
-13 -40 -20 -46 -21 -17 -107 -24 -140 -12 -27 11 -28 14 -21 54 3 23 8 53 9
67 2 18 9 26 27 28 13 1 35 5 49 8 23 6 24 7 5 14 -24 10 -39 10 -85 0z"/>
  <path d="M290 222 c0 -5 9 -17 20 -27 17 -16 20 -16 26 -2 3 9 3 21 -1 27 -7
12 -45 14 -45 2z"/>
  <path d="M210 202 c0 -16 32 -52 46 -52 17 0 19 24 2 37 -19 15 -48 23 -48 15z"/>
  <path d="M116 158 c15 -26 48 -58 61 -58 20 0 15 27 -9 50 -24 22 -64 28 -52
8z"/>
</g>
<g id="part-1" class="char-part">
  <path d="M237 511 c-9 -27 -37 -71 -61 -98 -32 -35 -42 -53 -36 -63 8 -12 16
-12 57 -2 59 16 83 36 36 30 -18 -3 -33 0 -33 5 0 5 23 37 50 72 27 35 50 68
50 74 0 8 -30 31 -42 31 -2 0 -11 -22 -21 -49z"/>
</g>
<g id="part-2" class="char-part">
  <path d="M280 231 c0 -10 39 -51 49 -51 15 0 20 28 8 38 -16 12 -57 22 -57 13z"/>
  <path d="M206 198 c26 -47 64 -64 64 -29 0 12 -11 23 -31 30 -40 14 -42 14
-33 -1z"/>
  <path d="M110 174 c0 -25 44 -73 68 -74 16 0 16 35 -1 48 -16 14 -67 33 -67
26z"/>
</g>
<g id="part-3" class="char-part">
  <path d="M510 581 c5 -11 10 -33 10 -49 0 -26 -4 -31 -37 -37 -27 -5 -33 -9
-22 -16 8 -5 24 -9 37 -9 15 0 22 -6 22 -19 0 -16 -10 -21 -56 -27 -45 -5 -53
-9 -39 -17 12 -6 44 -6 99 2 45 6 108 13 141 17 47 5 55 8 41 16 -11 6 -45 8
-78 5 -56 -5 -59 -4 -56 16 2 14 14 24 36 29 17 5 32 12 32 17 0 13 -25 20
-50 14 -21 -5 -22 -3 -15 27 8 37 -4 50 -48 50 -24 0 -26 -2 -17 -19z"/>
</g>
<g id="part-4" class="char-part">
  <path d="M420 361 c0 -24 -4 -31 -19 -31 -11 0 -23 -5 -27 -11 -4 -7 4 -10 22
-7 22 2 30 -2 32 -16 5 -23 -14 -36 -50 -36 -32 0 -37 -16 -9 -25 10 -3 42 5
72 19 30 13 46 25 37 25 -29 2 -22 40 8 47 18 5 22 9 13 14 -7 5 -18 6 -25 3
-7 -3 -14 5 -16 19 -2 12 -11 24 -20 26 -14 3 -18 -3 -18 -27z"/>
</g>
<g id="part-5" class="char-part">
  <path d="M563 168 c0 -19 3 -24 9 -16 12 20 11 -9 -2 -33 -8 -14 -7 -19 2 -19
10 0 10 -3 -1 -9 -11 -7 -9 -14 12 -35 28 -28 47 -33 47 -13 0 8 3 8 9 -2 10
-16 80 -20 126 -7 27 7 28 9 10 16 -16 7 -17 9 -3 9 9 1 19 -3 23 -9 3 -5 14
-2 25 8 19 16 19 17 3 24 -10 3 -12 7 -5 7 10 1 10 5 0 21 -17 26 -25 25 -32
-4 -3 -13 -20 -30 -38 -39 -18 -9 -27 -17 -19 -17 8 0 11 -3 8 -6 -4 -4 -12
-2 -19 4 -7 5 -24 10 -38 9 -14 -1 -38 2 -53 6 -22 6 -27 5 -21 -5 6 -10 3 -9
-9 1 -18 14 -23 26 -8 17 5 -4 8 9 7 26 -1 18 4 45 11 61 11 22 11 28 1 31
-31 10 -45 2 -45 -26z"/>
</g>
</g>
</svg>