<?xml version="1.0" standalone="no"?>
<!DOCTYPE svg PUBLIC "-//W3C//DTD SVG 20010904//EN"
 "http://www.w3.org/TR/2001/REC-SVG-20010904/DTD/svg10.dtd">
<svg version="1.0" xmlns="http://www.w3.org/2000/svg"
 width="96.000000pt" height="68.000000pt" viewBox="0 0 96.000000 68.000000"
 preserveAspectRatio="xMidYMid meet">
<metadata>
Created by potrace 1.16, written by Peter Selinger 2001-2019
Combined from part_0.svg through part_5.svg with named groups
</metadata>
<g transform="translate(0.000000,68.000000) scale(0.100000,-0.100000)" fill="#000000" stroke="none">
<g id="part-0" class="char-part">
  <path d="M394 623 c-13 -55 -32 -74 -67 -68 l-32 6 -1 -130 -2 -130 63 6 c56
5 62 4 67 -15 3 -11 3 -24 -1 -30 -3 -5 -54 -13 -113 -17 -60 -4 -108 -10
-108 -15 0 -13 52 -19 118 -13 38 4 62 2 62 -4 0 -13 -98 -106 -128 -122 -12
-6 -22 -16 -22 -22 0 -18 120 54 156 94 19 20 35 31 35 25 1 -7 2 -44 3 -83 1
-63 3 -70 21 -70 18 0 21 8 25 73 l5 74 50 -48 c39 -36 59 -48 91 -52 23 -2
50 0 59 6 15 8 6 13 -46 31 -71 24 -159 83 -159 106 0 11 12 15 43 16 23 1 53
4 67 9 22 6 23 8 7 15 -10 4 -38 5 -63 1 -26 -3 -45 -2 -45 4 -3 20 -4 25 -12
36 -10 17 26 24 131 24 l94 0 -5 -41 c-5 -48 -12 -56 -50 -61 l-27 -3 25 -27
c31 -34 37 -34 70 -5 17 14 30 38 35 67 5 25 11 52 15 61 4 12 -3 20 -26 29
-26 11 -59 11 -203 -3 -208 -21 -207 -21 -200 -3 7 18 31 23 147 31 50 4 87
11 87 17 0 10 -54 8 -182 -9 -44 -5 -48 -4 -48 15 0 19 8 21 108 27 59 3 114
7 122 8 11 2 80 107 80 122 0 2 -16 9 -35 15 -25 8 -50 9 -87 2 -29 -6 -69
-13 -88 -16 l-35 -6 39 32 39 32 -23 18 c-31 25 -49 22 -56 -9z m176 -87 c0
-21 -5 -24 -67 -30 -38 -3 -92 -9 -122 -13 -51 -6 -53 -5 -43 14 6 11 10 22 7
24 -2 2 11 4 28 4 18 0 66 5 107 11 41 7 78 12 83 13 4 1 7 -10 7 -23z m-16
-59 c-3 -9 -38 -18 -93 -25 -121 -16 -131 -16 -131 8 0 17 8 20 68 23 157 8
162 8 156 -6z"/>
</g>
<g id="part-1" class="char-part">
  <path d="M400 621 c0 -10 -9 -30 -21 -45 -29 -37 -3 -34 44 5 30 25 35 34 26
45 -17 21 -49 18 -49 -5z"/>
</g>
<g id="part-2" class="char-part">
  <path d="M480 564 c-33 -9 -81 -13 -120 -10 l-66 4 4 -66 c2 -37 6 -69 8 -71
1 -2 63 0 137 4 l134 7 29 57 c16 31 30 59 32 62 5 10 -48 29 -76 28 -15 -1
-52 -8 -82 -15z m90 -32 c0 -16 -14 -20 -102 -30 -131 -15 -128 -16 -128 7 0
16 9 21 43 25 156 21 187 20 187 -2z m-10 -39 c-1 -23 -25 -32 -118 -43 -56
-7 -105 -10 -108 -7 -4 3 -4 13 -1 22 5 11 21 15 59 16 43 1 100 7 161 18 4 0
7 -2 7 -6z"/>
</g>
<g id="part-3" class="char-part">
  <path d="M293 373 c-8 -32 -8 -54 -1 -66 13 -26 32 -16 36 19 2 16 8 32 14 35
6 4 57 10 114 14 62 4 104 11 104 17 0 11 -99 6 -190 -8 -36 -6 -40 -5 -40 15
0 40 -26 22 -37 -26z"/>
</g>
<g id="part-4" class="char-part">
  <path d="M422 288 l3 -33 -115 -11 c-101 -9 -112 -12 -88 -22 18 -7 49 -9 93
-3 48 5 65 4 65 -4 0 -12 -80 -90 -135 -133 -29 -22 -29 -22 -5 -16 32 8 118
65 150 99 13 14 26 25 30 25 4 0 5 -30 3 -67 -4 -73 6 -100 31 -90 13 5 16 22
16 79 l0 72 33 -30 c61 -58 89 -74 126 -74 61 0 64 14 8 34 -71 25 -167 87
-167 109 0 13 9 17 43 18 23 1 53 4 67 9 37 11 4 22 -56 18 -44 -3 -48 -1 -54
22 -4 16 -14 26 -29 28 -20 3 -22 0 -19 -30z"/>
</g>
</g>
</svg>