<?xml version="1.0" standalone="no"?>
<!DOCTYPE svg PUBLIC "-//W3C//DTD SVG 20010904//EN"
 "http://www.w3.org/TR/2001/REC-SVG-20010904/DTD/svg10.dtd">
<svg version="1.0" xmlns="http://www.w3.org/2000/svg"
 width="96.000000pt" height="68.000000pt" viewBox="0 0 96.000000 68.000000"
 preserveAspectRatio="xMidYMid meet">
<metadata>
Created by potrace 1.16, written by Peter Selinger 2001-2019
Combined from part_0.svg through part_5.svg with named groups
</metadata>
<g transform="translate(0.000000,68.000000) scale(0.100000,-0.100000)" fill="#000000" stroke="none">
<g id="part-0" class="char-part">
  <path d="M260 551 c0 -18 71 -71 95 -71 19 0 25 5 25 23 0 17 -10 28 -35 40
-38 18 -85 23 -85 8z"/>
  <path d="M629 531 c-14 -5 -55 -11 -92 -15 -74 -8 -82 -26 -11 -26 45 0 176
17 204 26 13 4 13 6 0 14 -18 11 -65 11 -101 1z"/>
  <path d="M615 440 c-16 -4 -58 -8 -93 -9 l-63 -1 20 -25 c11 -14 23 -40 26
-56 5 -22 11 -29 23 -24 9 3 58 9 109 12 82 5 93 8 93 25 0 10 8 30 17 44 14
22 14 27 2 35 -16 10 -91 10 -134 -1z m84 -27 c-1 -25 -12 -48 -24 -49 -5 -1
-40 -5 -76 -9 -66 -6 -67 -6 -73 21 -4 14 -6 28 -4 30 6 6 103 22 141 23 29 1
37 -3 36 -16z"/>
  <path d="M299 426 c-19 -8 -63 -17 -97 -21 -34 -4 -62 -11 -62 -16 0 -19 48
-19 115 1 82 24 85 24 85 8 -1 -14 -160 -174 -200 -200 -23 -15 -23 -17 -5
-17 11 -1 47 19 80 44 39 29 63 41 69 35 6 -6 6 -40 -3 -98 -13 -96 -9 -122
20 -122 17 0 19 9 19 98 0 54 3 102 6 105 4 4 21 -3 38 -16 36 -26 56 -30 56
-12 0 18 -22 34 -59 41 -26 6 -51 28 -51 47 0 8 71 77 79 77 5 0 14 6 20 14
10 11 7 17 -11 30 -27 19 -50 19 -99 2z"/>
  <path d="M670 294 c-52 -8 -130 -14 -172 -15 -71 -2 -92 -9 -69 -23 9 -6 37
-134 33 -150 -4 -14 21 -38 27 -27 4 5 59 13 124 17 109 6 117 6 124 -12 7
-19 22 -34 35 -34 17 0 40 53 49 116 5 37 12 76 14 88 4 16 -2 25 -26 39 -17
9 -34 16 -37 16 -4 -1 -50 -8 -102 -15z m84 -20 c9 -3 16 -18 16 -33 0 -25 -2
-26 -65 -29 l-65 -3 0 30 c0 25 5 30 28 34 46 7 70 7 86 1z m-164 -44 c0 -30
-1 -30 -55 -30 -52 0 -55 2 -55 24 0 27 13 33 73 35 35 1 37 -1 37 -29z m180
-67 l0 -38 -65 0 c-64 0 -65 0 -65 27 0 28 5 30 95 41 17 2 31 5 33 6 1 0 2
-16 2 -36z m-177 8 c4 -1 7 -12 7 -25 0 -22 -6 -26 -44 -31 -54 -8 -66 -2 -66
33 0 26 2 27 48 26 26 -1 50 -3 55 -3z"/>
</g>
<g id="part-1" class="char-part">
  <path d="M297 520 c49 -46 73 -51 73 -16 0 19 -9 27 -40 40 -69 28 -80 20 -33
-24z"/>
</g>
<g id="part-2" class="char-part">
  <path d="M240 291 c-36 -37 -81 -79 -100 -94 -58 -46 4 -22 77 29 l63 43 6
-25 c4 -14 1 -58 -6 -98 -9 -56 -10 -78 0 -95 23 -43 35 -18 38 80 3 124 5
127 43 94 34 -28 52 -28 57 -2 3 12 -8 20 -41 29 -59 15 -76 42 -47 73 19 20
19 23 5 29 -26 9 -26 9 -95 -63z"/>
</g>
<g id="part-3" class="char-part">
  <path d="M629 531 c-14 -5 -55 -11 -92 -15 -43 -5 -65 -11 -61 -18 5 -7 38 -8
98 -4 108 8 156 17 159 31 2 13 -69 16 -104 6z"/>
</g>
<g id="part-4" class="char-part">
  <path d="M605 439 c-22 -4 -64 -8 -93 -8 -45 -1 -51 -3 -40 -15 8 -7 20 -32
28 -55 10 -30 18 -40 29 -36 8 3 57 9 108 12 86 6 93 8 93 27 0 12 7 32 16 44
8 12 12 27 9 32 -7 12 -92 11 -150 -1z m95 -27 c0 -36 -23 -50 -96 -57 l-71
-7 -7 27 c-4 15 -6 29 -4 31 6 6 103 22 141 23 29 1 37 -3 37 -17z"/>
</g>
<g id="part-5" class="char-part">
  <path d="M745 290 c-20 -9 -20 -9 0 -9 23 -1 64 -41 42 -41 -8 0 -13 -17 -14
-50 0 -27 3 -50 8 -50 5 0 9 -5 9 -11 0 -5 -4 -7 -10 -4 -5 3 -10 1 -10 -5 0
-6 -5 -8 -12 -4 -6 4 -39 8 -72 8 -61 1 -61 1 -61 31 0 27 3 30 35 33 50 5 57
17 9 16 -29 0 -38 3 -35 13 3 7 -2 13 -12 14 -14 0 -14 2 2 8 19 7 19 8 1 15
-16 6 -17 9 -5 16 11 7 8 9 -13 8 -20 -2 -26 -6 -21 -18 3 -8 9 -23 11 -32 3
-10 9 -15 14 -12 5 3 9 0 9 -5 0 -6 -7 -11 -16 -11 -11 0 -14 -5 -9 -17 8 -21
8 -22 6 -46 0 -10 -11 -22 -23 -27 -16 -7 -1 -8 51 -5 40 3 77 8 82 11 5 3 17
-8 27 -25 9 -17 22 -31 28 -31 16 0 36 27 40 53 7 59 24 150 29 155 5 5 -51
33 -64 31 -3 0 -15 -4 -26 -9z"/>
  <path d="M688 283 c6 -2 18 -2 25 0 6 3 1 5 -13 5 -14 0 -19 -2 -12 -5z"/>
  <path d="M436 272 c-4 -8 -1 -23 9 -38 9 -14 14 -32 11 -41 -3 -8 -1 -34 5
-58 10 -39 14 -44 40 -43 35 1 51 18 17 18 -22 0 -64 20 -42 20 5 0 9 15 8 33
-1 17 -2 32 -3 32 -1 0 -4 12 -6 28 -2 15 1 27 6 27 5 0 9 5 9 10 0 7 -6 7
-19 0 -16 -8 -20 -6 -23 8 -3 13 -5 14 -12 4z"/>
  <path d="M548 273 c7 -3 16 -2 19 1 4 3 -2 6 -13 5 -11 0 -14 -3 -6 -6z"/>
  <path d="M726 198 c3 -5 10 -6 15 -3 13 9 11 12 -6 12 -8 0 -12 -4 -9 -9z"/>
</g>
</g>
</svg>