<?xml version="1.0" standalone="no"?>
<!DOCTYPE svg PUBLIC "-//W3C//DTD SVG 20010904//EN"
 "http://www.w3.org/TR/2001/REC-SVG-20010904/DTD/svg10.dtd">
<svg version="1.0" xmlns="http://www.w3.org/2000/svg"
 width="96.000000pt" height="68.000000pt" viewBox="0 0 96.000000 68.000000"
 preserveAspectRatio="xMidYMid meet">
<metadata>
Created by potrace 1.16, written by Peter Selinger 2001-2019
Combined from part_0.svg through part_5.svg with named groups
</metadata>
<g transform="translate(0.000000,68.000000) scale(0.100000,-0.100000)" fill="#000000" stroke="none">
<g id="part-0" class="char-part">
  <path d="M562 619 c-18 -12 -64 -34 -103 -50 -55 -22 -79 -27 -113 -23 l-43 6
5 -99 c7 -157 -22 -238 -127 -346 -30 -31 -52 -57 -48 -57 24 0 89 45 130 89
58 62 82 113 98 206 l11 70 80 1 c76 1 79 0 74 -20 -3 -11 -6 -29 -6 -38 0
-15 -9 -18 -56 -18 -50 0 -55 -2 -48 -17 11 -22 12 -144 2 -199 -6 -30 -4 -46
7 -60 14 -18 16 -18 26 -2 8 15 25 18 104 18 84 0 96 -2 107 -20 16 -25 44
-26 58 -1 5 11 10 81 10 156 0 131 -1 136 -22 144 -13 5 -45 5 -73 0 -76 -12
-74 -13 -65 27 5 19 10 38 13 40 2 3 50 9 106 13 57 5 105 12 109 15 20 21
-58 27 -156 13 -52 -7 -53 -7 -47 15 4 13 7 25 7 28 0 22 -6 29 -29 35 -16 4
-23 9 -18 11 6 2 36 10 68 19 59 17 73 36 38 55 -30 15 -63 12 -99 -11z m-27
-110 c4 -22 3 -45 -2 -50 -5 -5 -43 -12 -86 -17 -67 -7 -77 -6 -77 7 1 41 25
65 85 82 33 10 63 18 67 18 3 1 9 -17 13 -40z m129 -175 c9 -3 16 -16 16 -29
0 -20 -6 -23 -72 -28 -40 -4 -90 -10 -111 -13 -38 -7 -38 -7 -31 22 4 16 8 30
9 32 2 2 40 7 86 11 46 5 85 9 86 10 1 0 8 -2 17 -5z m14 -106 c3 -26 3 -26
-85 -33 -48 -3 -97 -7 -108 -8 -15 -2 -21 5 -23 26 -3 26 -1 27 40 28 24 0 63
4 88 9 70 12 85 9 88 -22z m2 -84 c0 -30 -3 -31 -122 -37 l-98 -5 0 27 0 28
103 9 c56 5 105 8 110 6 4 -2 7 -14 7 -28z"/>
</g>
<g id="part-1" class="char-part">
  <path d="M515 592 c-74 -39 -100 -47 -150 -49 -52 -1 -60 -4 -57 -20 12 -76
13 -108 3 -172 -15 -98 -53 -175 -118 -238 -58 -57 -50 -71 14 -24 89 64 146
180 158 318 8 92 13 113 27 113 29 0 278 75 278 83 0 14 -32 36 -50 36 -8 -1
-55 -22 -105 -47z"/>
</g>
<g id="part-2" class="char-part">
  <path d="M535 506 c4 -26 3 -46 -3 -50 -6 -3 -44 -9 -86 -13 -42 -3 -76 -9
-76 -14 0 -15 42 -21 101 -14 l60 7 -6 -36 c-6 -32 -5 -36 14 -36 15 0 23 10
31 39 l10 39 68 7 c118 10 152 16 152 25 0 16 -64 21 -130 11 -36 -6 -69 -11
-73 -11 -7 0 -4 19 10 56 4 11 -38 34 -63 34 -12 0 -14 -8 -9 -44z"/>
</g>
<g id="part-3" class="char-part">
  <path d="M590 354 c-47 -7 -107 -13 -134 -13 -42 -1 -47 -3 -40 -18 5 -10 9
-55 9 -101 0 -71 2 -82 18 -82 9 0 17 4 17 8 0 5 48 13 107 18 97 9 106 8 111
-8 2 -11 14 -18 28 -18 22 0 23 3 26 101 3 101 3 101 -24 115 -15 8 -28 13
-30 13 -2 -1 -41 -7 -88 -15z m74 -20 c9 -3 16 -16 16 -29 0 -21 -6 -23 -82
-30 -138 -13 -133 -13 -130 15 2 14 5 26 7 28 1 1 38 6 81 11 44 5 82 9 86 10
3 0 13 -2 22 -5z m16 -103 l0 -29 -92 -8 c-128 -12 -123 -12 -123 16 0 24 4
25 90 36 50 6 98 12 108 13 12 1 17 -6 17 -28z"/>
</g>
<g id="part-4" class="char-part">
  <path d="M417 118 c-13 -47 21 -95 37 -53 4 12 26 15 106 15 55 0 100 -4 100
-8 0 -5 6 -16 13 -27 13 -17 15 -17 35 3 14 14 22 35 22 57 0 31 -3 35 -25 35
-16 0 -25 -6 -25 -15 0 -12 -14 -15 -64 -15 -35 0 -84 -3 -110 -6 -42 -6 -46
-5 -46 15 0 29 -36 28 -43 -1z"/>
</g>
</g>
</svg>