<?xml version="1.0" standalone="no"?>
<!DOCTYPE svg PUBLIC "-//W3C//DTD SVG 20010904//EN"
 "http://www.w3.org/TR/2001/REC-SVG-20010904/DTD/svg10.dtd">
<svg version="1.0" xmlns="http://www.w3.org/2000/svg"
 width="96.000000pt" height="68.000000pt" viewBox="0 0 96.000000 68.000000"
 preserveAspectRatio="xMidYMid meet">
<metadata>
Created by potrace 1.16, written by Peter Selinger 2001-2019
Combined from part_0.svg through part_5.svg with named groups
</metadata>
<g transform="translate(0.000000,68.000000) scale(0.100000,-0.100000)" fill="#000000" stroke="none">
<g id="part-0" class="char-part">
  <path d="M196 581 c-4 -5 -2 -21 4 -36 5 -14 10 -53 10 -86 0 -54 -2 -59 -22
-59 -34 0 -68 -11 -68 -21 0 -5 20 -9 45 -9 l45 0 0 -60 0 -59 -42 -11 c-87
-23 -82 -19 -57 -46 12 -13 29 -24 37 -24 23 0 243 121 237 130 -3 5 -30 0
-60 -10 l-55 -19 0 53 0 53 39 7 c22 3 43 11 47 17 10 18 -18 30 -55 25 l-33
-5 5 47 c4 26 9 59 13 74 5 24 3 27 -32 37 -48 13 -51 13 -58 2z"/>
  <path d="M525 569 c-16 -6 -56 -8 -89 -5 -53 5 -57 4 -50 -12 5 -9 9 -80 10
-157 2 -127 -1 -167 -22 -287 -10 -62 14 -59 108 12 75 56 77 70 6 34 -58 -30
-61 -25 -53 94 4 59 9 109 12 112 3 3 38 5 79 4 l75 0 25 83 c15 46 30 86 35
89 16 9 10 20 -16 32 -30 14 -78 14 -120 1z m63 -47 c3 -29 1 -32 -25 -32 -41
0 -104 -20 -98 -30 3 -5 11 -7 18 -5 7 2 32 6 56 9 l43 7 -7 -28 c-11 -45 -24
-53 -82 -53 -52 0 -55 1 -49 23 3 12 6 45 6 73 l0 52 58 10 c74 12 76 11 80
-26z"/>
  <path d="M620 320 c-18 -22 -38 -40 -44 -40 -7 0 -27 11 -46 25 -33 25 -55 32
-48 18 2 -5 50 -52 107 -107 l104 -99 65 6 c36 4 69 10 74 15 5 5 -30 21 -79
37 -48 16 -108 42 -132 58 l-44 30 49 23 c27 12 54 23 61 23 19 1 26 21 13 36
-21 25 -46 17 -80 -25z"/>
</g>
<g id="part-1" class="char-part">
  <path d="M195 563 c13 -31 25 -117 20 -140 -4 -16 -15 -23 -45 -28 -47 -8 -44
-25 5 -25 31 0 35 -3 40 -33 4 -19 5 -47 3 -63 -3 -25 -9 -30 -61 -42 -62 -15
-69 -30 -23 -47 29 -10 36 -7 194 78 62 34 63 44 2 22 -67 -24 -70 -22 -70 39
l0 54 52 12 c45 11 49 14 34 26 -11 7 -31 10 -52 7 l-35 -6 6 44 c4 24 11 56
15 71 10 33 -9 48 -60 48 -27 0 -31 -3 -25 -17z"/>
</g>
<g id="part-2" class="char-part">
  <path d="M535 573 c-31 -8 -71 -11 -104 -7 -50 5 -53 4 -46 -13 5 -10 10 -57
13 -104 l4 -86 99 1 99 1 26 80 c14 44 31 86 36 93 27 33 -53 55 -127 35z m51
-28 c4 -8 4 -25 1 -38 -5 -18 -13 -22 -44 -22 -21 0 -50 -4 -65 -8 -27 -7 -28
-6 -28 27 0 36 -6 34 123 55 4 0 10 -6 13 -14z m-11 -97 c-4 -13 -8 -30 -11
-38 -3 -11 -21 -16 -65 -18 -54 -3 -61 -1 -55 13 3 9 6 25 6 35 0 16 9 20 58
23 31 2 61 4 65 5 5 1 5 -8 2 -20z"/>
</g>
<g id="part-3" class="char-part">
  <path d="M623 323 c-44 -52 -41 -52 -115 -5 -15 9 -30 13 -35 8 -4 -5 -1 -11
7 -14 8 -3 59 -48 114 -100 l99 -95 64 6 c94 9 108 21 42 37 -64 15 -189 70
-206 92 -11 12 -3 18 50 40 66 27 75 42 41 64 -19 13 -24 11 -61 -33z"/>
  <path d="M396 264 c-4 -53 -13 -112 -21 -131 -16 -37 -7 -73 18 -73 7 0 48 28
92 61 73 56 74 69 3 33 -58 -30 -60 -25 -53 96 7 105 7 110 -12 110 -18 0 -21
-9 -27 -96z"/>
</g>
</g>
</svg>