<?xml version="1.0" standalone="no"?>
<!DOCTYPE svg PUBLIC "-//W3C//DTD SVG 20010904//EN"
 "http://www.w3.org/TR/2001/REC-SVG-20010904/DTD/svg10.dtd">
<svg version="1.0" xmlns="http://www.w3.org/2000/svg"
 width="96.000000pt" height="68.000000pt" viewBox="0 0 96.000000 68.000000"
 preserveAspectRatio="xMidYMid meet">
<metadata>
Created by potrace 1.16, written by Peter Selinger 2001-2019
Combined from part_0.svg through part_5.svg with named groups
</metadata>
<g transform="translate(0.000000,68.000000) scale(0.100000,-0.100000)" fill="#000000" stroke="none">
<g id="part-0" class="char-part">
  <path d="M324 495 c0 -41 -2 -77 -5 -79 -2 -2 -22 -7 -43 -12 l-39 -7 5 61 c6
61 6 61 -25 71 -16 6 -33 9 -36 6 -3 -3 -4 -65 -2 -138 2 -149 -8 -198 -58
-270 -19 -29 -27 -47 -19 -49 19 -7 86 73 105 124 17 48 45 68 96 68 19 0 19
-5 13 -94 -5 -66 -4 -96 4 -101 22 -13 32 13 41 100 5 48 11 90 14 95 3 4 -1
13 -8 19 -10 8 -29 7 -70 -1 -31 -7 -59 -9 -63 -5 -3 3 -3 26 0 50 8 49 19 57
86 57 l36 0 12 80 c14 88 12 100 -21 100 -21 0 -22 -5 -23 -75z"/>
  <path d="M610 539 c-188 -29 -195 -31 -177 -44 34 -24 -3 -259 -53 -347 -16
-28 -12 -33 12 -12 22 20 70 118 82 167 3 15 10 27 14 27 4 -1 21 -19 37 -41
17 -22 36 -46 43 -54 6 -7 12 -20 12 -29 0 -18 -67 -65 -125 -89 l-40 -16 31
0 c28 -1 85 23 142 59 22 14 25 13 50 -16 56 -66 73 -70 185 -48 37 8 34 20
-7 28 -19 4 -66 22 -105 42 l-70 35 26 57 c15 31 35 69 46 84 11 14 16 31 12
38 -8 13 -32 11 -177 -8 l-58 -8 0 30 c0 17 3 48 6 68 l6 37 67 6 c128 11 163
17 154 25 -15 14 -58 17 -113 9z m28 -231 c-11 -29 -23 -57 -28 -62 -7 -7 -80
62 -88 85 -4 11 53 27 100 28 l36 1 -20 -52z"/>
</g>
<g id="part-1" class="char-part">
  <path d="M182 488 c13 -57 4 -232 -16 -286 -8 -23 -27 -58 -42 -77 -32 -42
-27 -53 9 -24 66 51 93 134 101 312 6 111 4 117 -44 117 -16 0 -17 -4 -8 -42z"/>
</g>
<g id="part-2" class="char-part">
  <path d="M324 245 c-2 -5 -5 -46 -6 -89 -2 -56 1 -80 9 -83 18 -6 29 29 36
112 6 67 6 71 -14 71 -12 0 -23 -5 -25 -11z"/>
</g>
<g id="part-3" class="char-part">
  <path d="M570 534 c-168 -27 -154 -23 -135 -44 13 -14 15 -30 10 -81 -10 -101
-26 -170 -51 -228 -14 -30 -23 -56 -21 -57 2 -2 16 9 31 25 34 36 86 187 86
252 0 88 8 96 97 103 114 10 147 16 136 27 -16 16 -67 17 -153 3z"/>
</g>
<g id="part-4" class="char-part">
  <path d="M615 380 c-16 -4 -49 -8 -72 -9 -60 -1 -68 -23 -28 -67 18 -19 41
-51 51 -69 18 -34 18 -35 -4 -55 -12 -12 -50 -34 -85 -50 -56 -27 -59 -30 -30
-30 17 0 62 16 100 36 l68 35 30 -34 c48 -56 67 -60 173 -42 33 6 36 25 3 25
-9 0 -54 18 -99 40 l-82 39 23 48 c12 26 32 65 45 86 12 21 20 43 17 48 -7 10
-67 10 -110 -1z m30 -52 c-4 -18 -14 -45 -21 -60 -12 -23 -17 -26 -32 -17 -26
18 -75 79 -69 86 8 8 67 21 100 22 27 1 28 -1 22 -31z"/>
</g>
</g>
</svg>