<?xml version="1.0" standalone="no"?>
<!DOCTYPE svg PUBLIC "-//W3C//DTD SVG 20010904//EN"
 "http://www.w3.org/TR/2001/REC-SVG-20010904/DTD/svg10.dtd">
<svg version="1.0" xmlns="http://www.w3.org/2000/svg"
 width="96.000000pt" height="68.000000pt" viewBox="0 0 96.000000 68.000000"
 preserveAspectRatio="xMidYMid meet">
<metadata>
Created by potrace 1.16, written by Peter Selinger 2001-2019
Combined from part_0.svg through part_5.svg with named groups
</metadata>
<g transform="translate(0.000000,68.000000) scale(0.100000,-0.100000)" fill="#000000" stroke="none">
<g id="part-0" class="char-part">
  <path d="M363 583 c4 -10 17 -57 31 -105 l25 -88 -22 -5 c-12 -3 -64 -12 -116
-20 -101 -16 -114 -21 -86 -32 16 -6 85 2 200 23 31 6 31 5 63 -78 47 -123
126 -210 229 -249 50 -20 97 -14 88 10 -4 9 -12 37 -18 64 -12 47 -27 64 -27
29 0 -10 -6 -26 -13 -36 -13 -18 -16 -18 -59 8 -82 48 -149 131 -181 224 l-14
40 106 7 c117 7 131 10 131 24 0 20 -54 24 -147 11 -52 -7 -97 -10 -100 -6 -4
3 -9 45 -11 91 -3 47 -8 87 -12 90 -3 2 -21 7 -40 10 -28 5 -32 3 -27 -12z"/>
  <path d="M531 558 c0 -19 79 -79 98 -76 9 2 17 15 19 29 3 23 -3 29 -38 43
-48 19 -80 21 -79 4z"/>
</g>
<g id="part-1" class="char-part">
  <path d="M566 525 c38 -34 67 -44 78 -26 17 27 -34 61 -92 61 -25 0 -24 -1 14
-35z"/>
</g>
<g id="part-2" class="char-part">
  <path d="M363 584 c34 -105 54 -196 44 -199 -7 -2 -50 -8 -97 -15 -119 -15
-141 -20 -134 -31 8 -14 83 -11 169 7 42 9 78 14 79 12 1 -1 15 -36 30 -75 15
-40 44 -95 64 -122 54 -72 165 -148 222 -150 35 -1 38 12 21 82 -16 61 -31 79
-31 37 0 -9 -6 -24 -13 -34 -13 -18 -16 -18 -59 8 -63 36 -129 110 -161 178
-41 86 -42 85 71 93 107 7 132 12 132 25 0 21 -64 25 -151 11 -48 -8 -91 -12
-95 -9 -3 4 -9 45 -11 93 -3 47 -9 87 -12 89 -3 2 -21 7 -40 11 -30 6 -33 5
-28 -11z"/>
</g>
</g>
</svg>