<?xml version="1.0" standalone="no"?>
<!DOCTYPE svg PUBLIC "-//W3C//DTD SVG 20010904//EN"
 "http://www.w3.org/TR/2001/REC-SVG-20010904/DTD/svg10.dtd">
<svg version="1.0" xmlns="http://www.w3.org/2000/svg"
 width="96.000000pt" height="68.000000pt" viewBox="0 0 96.000000 68.000000"
 preserveAspectRatio="xMidYMid meet">
<metadata>
Created by potrace 1.16, written by Peter Selinger 2001-2019
Combined from part_0.svg through part_5.svg with named groups
</metadata>
<g transform="translate(0.000000,68.000000) scale(0.100000,-0.100000)" fill="#000000" stroke="none">
<g id="part-0" class="char-part">
  <path d="M600 554 c-30 -8 -86 -15 -123 -16 l-69 -3 8 -45 c7 -50 6 -264 -2
-301 -16 -74 -16 -99 0 -105 16 -6 48 10 77 38 8 8 31 27 52 42 47 36 42 44
-12 17 -22 -12 -50 -21 -62 -21 -20 0 -21 3 -14 68 4 37 8 68 8 68 1 1 30 4
64 7 l62 5 27 -51 c49 -94 159 -197 211 -197 26 0 26 -2 4 110 l-7 35 -17 -43
c-9 -23 -22 -42 -29 -42 -18 0 -95 85 -118 130 -31 60 -27 67 35 75 77 9 72
29 -5 22 -59 -5 -60 -4 -66 21 -4 15 -16 35 -28 44 -21 17 -20 18 32 18 41 0
54 4 58 18 3 9 13 34 23 54 14 28 16 40 7 47 -21 17 -61 19 -116 5z m45 -24
c4 -6 4 -24 0 -40 -5 -25 -13 -30 -56 -39 -28 -6 -66 -11 -84 -11 -34 0 -35 1
-35 39 l0 38 73 10 c39 6 77 11 84 12 6 0 15 -4 18 -9z m-83 -150 c9 -22 13
-42 10 -44 -17 -9 -101 -16 -105 -9 -3 5 -3 28 0 51 5 41 7 42 42 42 32 0 38
-4 53 -40z"/>
  <path d="M208 411 l4 -138 -31 -5 c-35 -5 -35 -7 -19 61 6 28 10 53 7 55 -2 2
-17 8 -33 12 -28 7 -29 6 -23 -25 4 -20 0 -48 -13 -80 -15 -40 -17 -52 -6 -66
11 -15 16 -15 71 3 33 11 81 23 107 27 40 6 48 5 48 -8 0 -23 20 -32 35 -16
11 12 41 187 33 194 -2 2 -14 5 -28 7 -24 3 -25 1 -30 -67 -5 -68 -6 -70 -34
-73 l-29 -4 5 126 c5 134 4 136 -45 136 -22 0 -22 -2 -19 -139z"/>
</g>
<g id="part-1" class="char-part">
  <path d="M206 542 c-2 -4 -1 -14 5 -22 5 -8 9 -68 9 -132 l0 -117 -35 -7 c-20
-3 -38 -5 -40 -3 -2 2 3 27 10 54 12 47 12 51 -7 67 -25 22 -37 16 -31 -16 3
-14 -3 -48 -12 -76 -25 -74 -14 -83 72 -54 38 12 87 25 111 28 37 6 42 4 42
-14 0 -37 29 -22 35 18 3 20 10 61 15 91 11 58 5 71 -33 71 -14 0 -17 -5 -12
-21 4 -11 4 -42 0 -70 -6 -41 -11 -50 -32 -55 -42 -11 -46 4 -37 131 l9 117
-23 9 c-29 11 -39 11 -46 1z"/>
</g>
<g id="part-2" class="char-part">
  <path d="M600 554 c-30 -7 -86 -15 -123 -16 l-69 -2 6 -29 c3 -16 6 -43 6 -60
l0 -30 121 6 c66 4 128 11 137 17 9 5 13 10 9 10 -5 0 3 21 17 46 14 26 26 48
26 49 0 4 -62 25 -69 24 -3 -1 -31 -7 -61 -15z m47 -30 c3 -8 1 -26 -5 -39
-11 -24 -78 -45 -142 -45 -28 0 -30 3 -30 35 0 41 3 43 91 54 35 5 68 9 72 10
4 0 10 -6 14 -15z"/>
</g>
<g id="part-3" class="char-part">
  <path d="M427 413 c-4 -3 -7 -50 -7 -102 0 -53 -6 -120 -13 -148 -14 -54 -8
-83 19 -83 16 0 158 110 151 117 -2 2 -24 -6 -48 -17 -73 -33 -81 -29 -75 33
4 28 8 87 11 130 4 69 3 77 -14 77 -10 0 -21 -3 -24 -7z"/>
</g>
<g id="part-4" class="char-part">
  <path d="M560 378 l19 -43 -54 -9 c-76 -12 -72 -30 5 -23 l61 5 19 -41 c45
-95 163 -207 218 -207 21 0 23 3 18 25 -4 14 -9 46 -13 72 l-6 47 -18 -42
c-10 -23 -23 -42 -28 -42 -20 0 -83 65 -112 114 -42 74 -40 83 26 91 77 10 72
29 -5 22 l-61 -5 -6 30 c-4 19 -14 33 -30 39 -48 18 -54 13 -33 -33z"/>
</g>
</g>
</svg>