<?xml version="1.0" standalone="no"?>
<!DOCTYPE svg PUBLIC "-//W3C//DTD SVG 20010904//EN"
 "http://www.w3.org/TR/2001/REC-SVG-20010904/DTD/svg10.dtd">
<svg version="1.0" xmlns="http://www.w3.org/2000/svg"
 width="96.000000pt" height="68.000000pt" viewBox="0 0 96.000000 68.000000"
 preserveAspectRatio="xMidYMid meet">
<metadata>
Created by potrace 1.16, written by Peter Selinger 2001-2019
Combined from part_0.svg through part_5.svg with named groups
</metadata>
<g transform="translate(0.000000,68.000000) scale(0.100000,-0.100000)" fill="#000000" stroke="none">
<g id="part-0" class="char-part">
  <path d="M590 560 c-30 -4 -79 -8 -107 -9 -29 -1 -53 -5 -53 -11 0 -5 4 -10 9
-10 4 0 14 -20 21 -45 13 -48 24 -62 35 -45 3 5 46 10 96 10 77 0 89 2 89 17
0 9 12 30 27 45 18 19 24 31 17 38 -15 15 -71 19 -134 10z m66 -54 c-6 -25
-23 -31 -125 -38 -32 -3 -35 0 -42 29 l-6 32 51 5 c100 11 111 12 120 5 5 -4
6 -19 2 -33z"/>
  <path d="M270 533 c-19 -9 -48 -15 -65 -15 l-30 1 0 -137 c0 -75 -4 -176 -8
-225 -7 -77 -6 -88 8 -94 10 -3 21 0 25 7 4 7 11 99 15 205 4 106 10 197 14
204 4 6 22 15 39 20 36 11 39 5 20 -45 -10 -28 -9 -35 10 -59 30 -38 29 -83 0
-87 -21 -3 -20 -5 11 -21 63 -32 84 26 31 86 -16 19 -30 41 -30 48 0 7 19 32
42 56 35 36 39 44 28 58 -16 19 -64 18 -110 -2z"/>
  <path d="M630 414 c-8 -2 -55 -8 -103 -12 l-88 -7 -1 -111 c-1 -119 4 -143 28
-123 8 6 17 10 19 7 12 -12 -11 -41 -68 -83 -72 -53 -60 -58 27 -12 94 51 117
68 114 86 -4 23 121 30 134 7 12 -21 35 -20 42 2 3 9 6 66 8 125 2 87 0 110
-12 117 -15 10 -71 11 -100 4z m58 -46 c-2 -15 -10 -23 -23 -24 -11 -1 -57 -5
-102 -9 l-83 -7 0 25 c0 28 13 32 148 35 60 2 63 1 60 -20z m2 -67 c0 -16 -11
-19 -77 -25 -42 -4 -89 -10 -105 -13 -25 -5 -28 -3 -28 20 0 28 13 31 148 35
54 2 62 0 62 -17z m0 -68 l0 -28 -105 -2 c-97 -2 -105 -1 -105 17 0 16 10 19
68 25 37 3 74 8 82 9 48 11 60 6 60 -21z"/>
  <path d="M681 95 c56 -58 99 -74 99 -36 0 26 -25 50 -78 72 -73 31 -78 23 -21
-36z"/>
</g>
<g id="part-1" class="char-part">
  <path d="M276 530 c-66 -26 -70 -34 -13 -26 52 8 59 -2 31 -42 -31 -45 -8 -41
45 8 30 28 52 52 50 54 -9 8 -48 26 -56 26 -4 -1 -30 -9 -57 -20z"/>
</g>
<g id="part-2" class="char-part">
  <path d="M178 421 c2 -54 -1 -150 -7 -214 -12 -113 -7 -157 18 -157 16 0 19
26 26 239 7 177 5 215 -6 222 -32 20 -36 10 -31 -90z"/>
</g>
<g id="part-3" class="char-part">
  <path d="M585 560 c-27 -5 -74 -9 -102 -9 l-53 -1 14 -32 c8 -18 19 -45 25
-60 10 -27 31 -39 31 -18 0 6 37 10 90 10 71 0 90 3 90 14 0 8 12 29 27 46 26
31 26 33 8 46 -20 15 -51 16 -130 4z m70 -53 c-6 -23 -13 -27 -63 -32 -97 -12
-94 -12 -103 19 -5 17 -7 31 -6 33 7 6 163 18 170 13 4 -4 5 -19 2 -33z"/>
</g>
<g id="part-4" class="char-part">
  <path d="M595 410 c-27 -5 -76 -9 -109 -9 -49 -1 -57 -4 -52 -17 3 -9 6 -49 6
-90 0 -66 2 -74 19 -74 11 0 21 5 23 10 5 15 202 34 206 21 2 -6 14 -11 27
-11 22 0 23 4 27 78 5 105 -8 113 -147 92z m91 -56 c-3 -7 -16 -13 -28 -12
-13 0 -58 -2 -100 -7 l-78 -7 0 25 c0 23 4 26 53 31 137 15 168 9 153 -30z m4
-48 c0 -21 -5 -24 -62 -30 -35 -4 -82 -9 -105 -12 -41 -6 -43 -5 -43 19 0 24
3 25 103 34 56 5 103 11 105 11 1 1 2 -9 2 -22z"/>
</g>
<g id="part-5" class="char-part">
  <path d="M471 126 c-20 -21 -29 -36 -22 -40 6 -4 11 -2 11 4 0 6 4 9 9 5 5 -3
13 0 17 6 5 8 3 9 -6 4 -8 -5 -11 -4 -6 3 4 6 13 9 20 6 7 -3 19 2 26 11 7 8
20 15 29 15 14 0 14 2 1 10 -26 17 -45 11 -79 -24z"/>
  <path d="M685 104 c28 -32 47 -44 55 -39 10 6 12 4 7 -8 -7 -18 1 -21 21 -9
16 11 4 45 -14 38 -8 -3 -13 0 -11 7 2 10 -74 55 -94 57 -4 0 12 -21 36 -46z
m45 0 c0 -8 -19 -13 -24 -6 -3 5 1 9 9 9 8 0 15 -2 15 -3z"/>
  <path d="M417 83 c-4 -3 -7 -11 -7 -17 0 -6 5 -5 12 2 6 6 9 14 7 17 -3 3 -9
2 -12 -2z"/>
</g>
</g>
</svg>