<?xml version="1.0" standalone="no"?>
<!DOCTYPE svg PUBLIC "-//W3C//DTD SVG 20010904//EN"
 "http://www.w3.org/TR/2001/REC-SVG-20010904/DTD/svg10.dtd">
<svg version="1.0" xmlns="http://www.w3.org/2000/svg"
 width="96.000000pt" height="68.000000pt" viewBox="0 0 96.000000 68.000000"
 preserveAspectRatio="xMidYMid meet">
<metadata>
Created by potrace 1.16, written by Peter Selinger 2001-2019
Combined from part_0.svg through part_5.svg with named groups
</metadata>
<g transform="translate(0.000000,68.000000) scale(0.100000,-0.100000)" fill="#000000" stroke="none">
<g id="part-0" class="char-part">
  <path d="M303 548 l2 -43 -70 -8 c-91 -11 -101 -15 -87 -29 6 -6 36 -9 76 -6
68 4 74 0 60 -36 -4 -11 -19 -16 -46 -16 l-40 0 4 -120 4 -120 -25 -1 c-15 -1
-34 -1 -43 0 -10 1 -18 -2 -18 -8 0 -13 65 -25 82 -15 7 5 79 11 161 14 151 5
188 17 109 35 l-43 9 6 71 c3 38 8 84 11 102 6 39 -21 58 -72 50 -35 -6 -41 2
-28 37 5 12 21 16 69 16 35 0 66 4 69 9 11 18 -24 33 -69 29 -43 -3 -57 4 -35
17 28 17 -13 55 -60 55 -16 0 -18 -7 -17 -42z m83 -175 c-3 -3 -18 -7 -33 -9
-15 -2 -47 -6 -70 -10 -39 -6 -43 -5 -43 14 0 21 16 26 115 34 28 3 46 -14 31
-29z m4 -48 c0 -21 -5 -25 -29 -25 -15 0 -49 -3 -75 -6 -44 -7 -46 -6 -46 19
0 25 2 26 68 30 37 2 70 4 75 5 4 1 7 -9 7 -23z m0 -59 c0 -9 -18 -16 -57 -21
-31 -4 -62 -9 -69 -12 -19 -7 -30 27 -13 38 8 5 42 9 77 9 46 0 62 -4 62 -14z
m7 -52 c9 -24 -15 -34 -89 -34 -61 0 -68 2 -68 20 0 17 8 20 68 23 37 2 71 4
75 5 4 1 10 -5 14 -14z"/>
  <path d="M612 525 c-51 -7 -95 -15 -98 -18 -8 -8 47 -18 67 -12 15 5 19 1 19
-20 0 -43 -17 -65 -51 -65 -26 0 -30 -3 -24 -17 4 -10 6 -61 5 -113 -1 -71 3
-100 14 -115 9 -11 16 -14 16 -7 0 15 20 16 20 1 0 -6 -23 -38 -52 -72 -52
-59 -52 -60 -18 -42 90 46 158 113 118 116 -29 1 30 18 66 18 26 1 43 -5 51
-16 10 -14 16 -15 28 -5 11 10 15 38 16 118 1 57 4 111 7 118 3 9 -5 22 -20
31 -23 15 -31 15 -96 2 -39 -8 -73 -11 -76 -6 -3 5 -1 9 4 9 5 0 19 9 32 20
18 16 21 23 12 32 -23 23 -12 27 71 30 46 2 82 7 82 13 0 15 -87 15 -193 0z
m126 -146 c3 -25 0 -26 -50 -32 -29 -3 -68 -9 -86 -13 -33 -7 -33 -6 -30 27 3
33 5 34 53 40 90 11 110 7 113 -22z m0 -174 c-2 -1 -40 -5 -85 -7 l-83 -5 0
27 c0 27 1 27 75 32 42 3 78 8 82 12 15 14 -9 17 -81 9 l-76 -9 0 26 c0 25 3
27 48 29 26 1 63 5 82 10 l35 7 3 -64 c2 -36 2 -66 0 -67z"/>
  <path d="M700 142 c0 -12 98 -112 109 -112 36 0 13 67 -30 91 -31 16 -79 29
-79 21z"/>
  <path d="M387 134 c-3 -4 0 -13 8 -20 7 -8 23 -26 34 -40 22 -28 55 -27 49 2
-3 18 -81 67 -91 58z"/>
  <path d="M196 77 c-55 -55 -39 -57 46 -5 51 32 58 42 32 52 -23 9 -24 8 -78
-47z"/>
</g>
<g id="part-1" class="char-part">
  <path d="M309 583 c-1 -5 0 -24 1 -44 2 -40 6 -38 -114 -55 -73 -10 -31 -28
45 -19 l59 7 -6 -31 c-10 -46 26 -38 45 10 8 23 16 27 71 32 34 3 64 8 67 11
14 13 -11 20 -63 18 -52 -2 -54 -1 -44 17 15 29 13 37 -15 49 -30 14 -45 15
-46 5z"/>
</g>
<g id="part-2" class="char-part">
  <path d="M380 133 c0 -12 67 -83 79 -83 29 0 21 41 -12 63 -29 19 -67 30 -67
20z"/>
  <path d="M195 78 c-40 -41 -45 -49 -25 -43 32 10 108 54 116 67 7 11 -14 28
-31 27 -5 -1 -32 -24 -60 -51z"/>
</g>
<g id="part-3" class="char-part">
  <path d="M607 525 c-48 -7 -91 -15 -94 -18 -9 -10 44 -19 66 -12 18 5 21 2 21
-20 0 -14 -5 -35 -10 -46 -15 -28 1 -23 38 10 32 30 41 51 22 51 -5 0 -10 4
-10 10 0 5 37 10 83 12 48 2 81 7 80 13 -4 15 -96 15 -196 0z"/>
</g>
<g id="part-4" class="char-part">
  <path d="M670 425 c-36 -8 -85 -14 -109 -14 -35 -1 -42 -4 -37 -17 3 -9 6 -51
6 -95 0 -72 2 -79 20 -79 11 0 20 7 20 15 0 11 12 15 48 15 26 0 64 3 85 6 31
6 37 4 37 -10 0 -12 7 -16 23 -14 20 3 22 9 27 92 5 88 5 88 -22 102 -15 8
-28 14 -30 13 -2 -1 -32 -7 -68 -14z m68 -46 c3 -25 0 -26 -55 -32 -32 -4 -70
-10 -85 -13 -26 -6 -28 -4 -28 24 0 29 3 31 53 40 84 16 111 12 115 -19z m2
-68 c0 -27 -2 -28 -60 -34 -33 -4 -72 -10 -85 -13 -23 -6 -25 -3 -25 25 0 30
1 31 48 32 26 1 61 5 77 9 17 4 33 8 38 9 4 0 7 -12 7 -28z"/>
</g>
<g id="part-5" class="char-part">
  <path d="M580 141 c-6 -12 -7 -21 -3 -21 4 -1 -8 -15 -27 -32 -27 -23 -29 -27
-10 -18 35 17 70 51 64 61 -3 5 3 6 12 2 12 -4 15 -2 12 8 -7 22 -36 22 -48 0z"/>
  <path d="M716 126 c4 -9 9 -14 12 -11 3 2 10 -5 17 -18 6 -12 18 -21 27 -21 9
1 14 -4 12 -11 -3 -6 2 -18 10 -25 13 -10 17 -10 22 3 10 27 -14 58 -42 53
-14 -3 -22 -1 -19 5 4 5 11 7 16 4 5 -4 9 -2 9 3 0 5 -8 12 -17 15 -10 2 -26
8 -36 12 -13 6 -16 3 -11 -9z"/>
</g>
</g>
</svg>