<?xml version="1.0" standalone="no"?>
<!DOCTYPE svg PUBLIC "-//W3C//DTD SVG 20010904//EN"
 "http://www.w3.org/TR/2001/REC-SVG-20010904/DTD/svg10.dtd">
<svg version="1.0" xmlns="http://www.w3.org/2000/svg"
 width="96.000000pt" height="68.000000pt" viewBox="0 0 96.000000 68.000000"
 preserveAspectRatio="xMidYMid meet">
<metadata>
Created by potrace 1.16, written by Peter Selinger 2001-2019
Combined from part_0.svg through part_5.svg with named groups
</metadata>
<g transform="translate(0.000000,68.000000) scale(0.100000,-0.100000)" fill="#000000" stroke="none">
<g id="part-0" class="char-part">
  <path d="M314 586 l6 -34 -60 -4 c-33 -2 -63 -8 -67 -12 -16 -15 24 -27 75
-21 40 4 52 2 52 -9 0 -9 -16 -15 -45 -19 -76 -8 -76 -29 0 -31 35 -1 45 -5
45 -17 0 -19 -28 -29 -87 -29 -23 0 -44 -4 -47 -9 -10 -16 23 -34 51 -27 79
20 80 19 90 -11 l10 -28 14 38 c11 32 19 39 56 49 24 6 46 15 50 21 6 9 -17 6
-69 -9 -13 -4 -18 0 -18 15 0 16 6 21 24 21 33 0 57 10 50 21 -3 5 -21 9 -40
9 -24 0 -34 5 -34 15 0 9 9 15 23 15 33 0 67 11 67 21 0 5 -21 9 -46 9 -42 0
-46 2 -41 20 5 21 -17 40 -48 40 -14 0 -16 -6 -11 -34z"/>
  <path d="M588 547 c-86 -10 -121 -27 -55 -27 19 0 36 -3 40 -6 9 -9 -14 -67
-36 -91 -11 -13 -18 -25 -16 -28 9 -8 50 26 80 68 28 39 29 42 13 54 -16 11
-13 13 24 15 23 0 48 1 54 2 20 2 21 -33 3 -80 -14 -38 -21 -44 -46 -44 -34 0
-37 -10 -8 -36 18 -17 23 -17 46 -4 21 12 32 33 50 94 33 105 35 104 -149 83z"/>
  <path d="M427 380 c-10 -16 -38 -42 -63 -56 -57 -33 -52 -50 12 -46 57 4 54
-1 -20 -37 -49 -23 -53 -28 -42 -44 13 -16 17 -16 72 -2 88 23 84 25 84 -66
l0 -81 -32 7 -33 6 34 -30 c32 -28 36 -29 52 -15 24 21 33 174 11 190 -12 9
-7 13 27 21 38 10 44 9 70 -13 16 -13 31 -21 35 -17 14 14 5 42 -19 57 -28 19
-66 21 -63 4 2 -7 -18 -15 -52 -20 -30 -4 -70 -9 -87 -12 -18 -3 -33 -1 -33 3
0 7 23 19 143 71 48 22 55 35 25 54 -13 8 -22 3 -42 -21 -22 -27 -34 -32 -81
-35 -30 -1 -55 0 -55 4 0 4 25 22 55 40 32 19 54 39 52 48 -4 26 -32 21 -50
-10z"/>
  <path d="M317 153 c-4 -3 -7 -13 -7 -21 0 -8 -14 -32 -31 -53 -43 -54 -14 -51
48 5 47 43 47 45 28 60 -23 17 -29 19 -38 9z"/>
  <path d="M616 128 c71 -86 98 -101 92 -51 -3 30 -57 73 -91 73 -20 0 -20 0 -1
-22z"/>
</g>
<g id="part-1" class="char-part">
  <path d="M319 613 c-1 -5 0 -20 1 -35 1 -25 -1 -27 -64 -33 -80 -9 -77 -25 5
-25 44 0 59 -4 59 -14 0 -14 -29 -26 -68 -26 -13 0 -20 -4 -17 -10 3 -5 24
-10 46 -10 32 0 39 -4 39 -19 0 -14 5 -18 20 -14 11 3 20 13 20 23 0 20 19 30
56 30 14 0 22 4 19 10 -3 6 -22 10 -41 10 -22 0 -34 5 -34 14 0 15 30 26 73
26 16 0 26 4 22 10 -3 6 -24 10 -46 10 -32 0 -39 3 -39 20 0 23 -48 54 -51 33z"/>
</g>
<g id="part-2" class="char-part">
  <path d="M573 495 c0 -14 -15 -44 -32 -66 -46 -57 -15 -48 41 12 52 56 56 72
16 77 -22 3 -25 -1 -25 -23z"/>
</g>
<g id="part-3" class="char-part">
  <path d="M429 388 c-14 -26 -43 -53 -81 -73 -16 -9 -28 -23 -28 -31 0 -14 8
-15 46 -9 26 3 56 11 68 15 17 8 14 9 -16 8 -21 -1 -40 1 -43 4 -4 3 21 23 54
43 49 30 59 41 50 51 -17 20 -37 17 -50 -8z"/>
</g>
<g id="part-4" class="char-part">
  <path d="M513 342 c-13 -21 -133 -96 -181 -113 -17 -6 -32 -15 -32 -20 0 -17
38 -29 63 -20 13 5 51 15 83 21 33 7 76 15 96 20 32 6 40 4 58 -17 22 -26 40
-23 40 7 0 11 -12 26 -30 35 -36 19 -50 19 -50 1 0 -10 -20 -16 -73 -21 -124
-12 -130 -4 -31 38 118 50 121 52 105 71 -18 21 -34 20 -48 -2z"/>
</g>
<g id="part-5" class="char-part">
  <path d="M474 139 c3 -72 -11 -107 -37 -93 -7 4 -2 -4 10 -17 23 -23 23 -23
40 -4 11 12 12 15 3 8 -11 -8 -20 -9 -30 -2 -13 9 -13 10 0 8 35 -5 50 12 50
56 0 25 -5 45 -12 48 -10 4 -10 6 0 6 18 1 15 48 -4 55 -9 3 -17 6 -19 6 -2 0
-2 -32 -1 -71z"/>
  <path d="M314 123 c-4 -16 -10 -30 -13 -33 -3 -3 -15 -16 -26 -29 l-20 -25 27
20 c15 10 28 23 28 27 0 5 5 5 12 1 7 -4 8 -3 4 4 -4 7 -1 12 10 12 14 0 14 3
4 15 -11 13 -10 14 4 9 9 -3 16 -2 16 4 0 8 -22 22 -36 22 -2 0 -7 -12 -10
-27z"/>
  <path d="M648 98 c33 -34 44 -40 54 -30 10 10 7 17 -13 37 -14 14 -38 28 -53
31 -28 5 -28 5 12 -38z"/>
</g>
</g>
</svg>