<?xml version="1.0" standalone="no"?>
<!DOCTYPE svg PUBLIC "-//W3C//DTD SVG 20010904//EN"
 "http://www.w3.org/TR/2001/REC-SVG-20010904/DTD/svg10.dtd">
<svg version="1.0" xmlns="http://www.w3.org/2000/svg"
 width="96.000000pt" height="68.000000pt" viewBox="0 0 96.000000 68.000000"
 preserveAspectRatio="xMidYMid meet">
<metadata>
Created by potrace 1.16, written by Peter Selinger 2001-2019
Combined from part_0.svg through part_5.svg with named groups
</metadata>
<g transform="translate(0.000000,68.000000) scale(0.100000,-0.100000)" fill="#000000" stroke="none">
<g id="part-0" class="char-part">
  <path d="M516 575 c-10 -25 -29 -61 -42 -80 -15 -22 -19 -35 -11 -35 17 0 58
29 80 57 16 20 27 23 96 23 51 0 84 5 97 14 18 14 18 15 1 22 -19 7 -112 -1
-144 -13 -16 -6 -16 -5 -4 10 17 21 -1 47 -33 47 -16 0 -26 -12 -40 -45z"/>
  <path d="M276 558 c-10 -24 -39 -64 -64 -90 -33 -35 -41 -48 -29 -48 23 0 87
43 111 75 17 22 26 25 85 25 36 0 72 4 80 9 24 15 -23 32 -68 25 -36 -6 -40
-4 -43 17 -2 17 -10 25 -28 27 -22 2 -29 -4 -44 -40z"/>
  <path d="M598 490 c34 -32 56 -38 68 -18 11 17 -34 48 -70 48 l-31 -1 33 -29z"/>
  <path d="M320 492 c0 -13 45 -42 65 -42 11 0 15 7 13 23 -2 18 -10 23 -40 25
-21 2 -38 -1 -38 -6z"/>
  <path d="M537 425 c6 -34 5 -35 -29 -35 -19 0 -56 -3 -82 -6 -42 -6 -46 -5
-46 15 0 14 -9 25 -26 31 -36 14 -36 13 -29 -19 6 -28 4 -30 -32 -36 -59 -10
-62 -13 -11 -14 l47 -1 5 -52 c3 -29 7 -71 8 -93 l3 -40 -105 -6 c-124 -8
-119 -7 -100 -19 19 -13 89 -13 165 0 44 7 428 23 509 20 5 0 2 7 -5 16 -12
15 -29 16 -125 11 l-110 -6 9 72 c13 104 20 117 59 117 18 0 39 4 46 9 20 12
-11 22 -48 14 -26 -5 -30 -2 -30 15 0 24 -12 34 -51 38 -26 3 -27 2 -22 -31z
m3 -80 c0 -21 -5 -25 -27 -25 -16 0 -52 -3 -80 -6 -52 -7 -53 -6 -53 19 0 28
-8 26 133 35 23 2 27 -2 27 -23z m-2 -67 c-2 -15 -10 -23 -23 -24 -11 -1 -46
-4 -77 -8 -57 -7 -58 -7 -58 18 0 23 4 25 53 29 116 8 109 9 105 -15z m0 -65
c2 -16 -4 -21 -35 -26 -21 -4 -57 -7 -80 -7 -38 0 -43 3 -43 23 0 22 4 24 62
26 35 1 65 4 67 7 10 9 26 -3 29 -23z"/>
  <path d="M530 133 c0 -11 76 -85 107 -104 36 -22 53 -18 53 11 0 19 -47 60
-85 75 -41 15 -75 23 -75 18z"/>
  <path d="M331 107 c-7 -12 -34 -38 -62 -56 -27 -19 -47 -36 -45 -38 6 -6 107
41 157 73 32 20 39 28 28 35 -27 17 -65 10 -78 -14z"/>
</g>
<g id="part-1" class="char-part">
  <path d="M530 603 c0 -9 -16 -45 -35 -80 -19 -35 -31 -63 -26 -63 5 0 28 17
51 39 41 37 46 39 131 46 49 3 89 10 89 15 0 14 -44 19 -90 10 -64 -13 -70
-12 -63 6 4 11 -1 22 -12 30 -25 19 -45 17 -45 -3z"/>
  <path d="M290 585 c0 -25 -28 -72 -67 -116 -19 -21 -31 -39 -26 -39 13 0 84
51 102 73 9 11 30 17 60 18 25 1 60 5 76 9 46 11 5 24 -51 16 -43 -5 -45 -5
-39 15 5 14 2 25 -6 30 -22 14 -49 10 -49 -6z"/>
  <path d="M599 490 c27 -23 61 -26 61 -6 0 17 -22 26 -58 26 l-27 -1 24 -19z"/>
  <path d="M334 481 c19 -21 66 -29 66 -12 0 13 -8 17 -50 26 l-35 7 19 -21z"/>
</g>
<g id="part-2" class="char-part">
  <path d="M536 431 c3 -16 2 -31 -2 -33 -5 -3 -42 -9 -81 -12 l-73 -7 0 25 c0
16 -6 26 -14 26 -8 0 -22 3 -31 7 -15 5 -16 1 -11 -25 7 -30 7 -30 -46 -40
l-53 -10 52 -1 52 -1 5 -52 c3 -29 7 -71 8 -93 l3 -40 -102 -5 c-56 -3 -104
-8 -108 -12 -16 -16 57 -21 155 -10 58 7 201 15 318 19 117 3 212 9 212 13 0
16 -77 28 -130 20 -30 -5 -69 -9 -86 -9 l-31 -1 13 85 c7 46 15 89 19 95 3 5
24 10 45 10 21 0 42 4 45 10 8 13 -38 24 -64 15 -17 -5 -21 -2 -21 15 0 13 -9
24 -26 30 -44 17 -54 13 -48 -19z m3 -150 l-1 -89 -36 -6 c-21 -3 -56 -6 -79
-6 l-43 0 0 89 0 90 53 4 c28 2 64 4 80 5 l27 2 -1 -89z"/>
</g>
<g id="part-3" class="char-part">
  <path d="M418 313 c-21 -2 -38 -8 -38 -14 0 -5 17 -9 38 -9 54 0 112 11 112
21 0 9 -39 9 -112 2z"/>
</g>
<g id="part-4" class="char-part">
  <path d="M325 102 c-16 -19 -50 -48 -74 -64 -55 -35 -42 -36 33 -3 87 38 142
76 125 85 -39 21 -54 18 -84 -18z"/>
  <path d="M583 76 c38 -36 75 -66 82 -66 22 0 29 39 10 60 -19 21 -85 53 -130
64 -27 7 -23 1 38 -58z"/>
</g>
</g>
</svg>