<?xml version="1.0" standalone="no"?>
<!DOCTYPE svg PUBLIC "-//W3C//DTD SVG 20010904//EN"
 "http://www.w3.org/TR/2001/REC-SVG-20010904/DTD/svg10.dtd">
<svg version="1.0" xmlns="http://www.w3.org/2000/svg"
 width="96.000000pt" height="68.000000pt" viewBox="0 0 96.000000 68.000000"
 preserveAspectRatio="xMidYMid meet">
<metadata>
Created by potrace 1.16, written by Peter Selinger 2001-2019
Combined from part_0.svg through part_5.svg with named groups
</metadata>
<g transform="translate(0.000000,68.000000) scale(0.100000,-0.100000)" fill="#000000" stroke="none">
<g id="part-0" class="char-part">
  <path d="M506 598 c4 -13 15 -58 24 -100 l17 -77 -54 -7 c-67 -8 -59 -24 13
-24 47 0 54 -3 54 -20 0 -10 9 -45 21 -75 l21 -57 -23 -16 c-13 -10 -51 -34
-84 -54 -77 -49 -53 -49 49 -1 59 28 81 34 84 24 15 -46 140 -141 186 -141 16
0 18 5 12 37 -3 21 -6 50 -6 66 0 36 -17 35 -25 -3 -10 -45 -40 -39 -92 17
-23 26 -43 52 -43 57 0 6 19 30 42 53 35 36 41 47 32 61 -19 29 -51 27 -59 -5
-7 -31 -23 -53 -36 -53 -9 0 -32 48 -42 92 -7 26 -5 27 50 38 32 7 67 17 78
23 19 10 19 10 -2 18 -12 4 -43 2 -74 -6 -29 -8 -56 -12 -61 -9 -4 3 -8 41 -8
84 0 85 -9 100 -60 100 -18 0 -20 -4 -14 -22z"/>
  <path d="M287 522 l6 -90 -54 -7 c-69 -8 -89 -14 -89 -26 0 -5 32 -9 70 -9
l70 0 0 -44 0 -45 -77 -29 c-43 -16 -87 -32 -98 -36 -19 -7 -19 -8 4 -27 32
-26 41 -24 108 16 65 40 70 36 58 -42 -6 -40 -9 -44 -28 -39 -75 20 -74 21
-21 -33 29 -28 56 -51 62 -51 28 0 42 45 42 136 l0 92 35 22 c36 22 49 48 18
35 -49 -20 -53 -19 -53 18 0 33 3 37 38 46 20 6 43 11 50 11 8 0 12 6 9 13 -2
7 -22 12 -48 13 -43 1 -44 2 -41 30 2 16 7 45 12 64 11 41 0 56 -47 66 l-32 6
6 -90z"/>
  <path d="M640 553 c0 -15 55 -63 72 -63 33 0 22 40 -17 56 -38 15 -55 18 -55
7z"/>
</g>
<g id="part-1" class="char-part">
  <path d="M285 601 c-2 -5 0 -23 5 -42 6 -19 10 -55 10 -81 0 -51 6 -48 -100
-64 -64 -10 -23 -24 48 -17 l52 6 0 -50 0 -51 -77 -31 c-43 -17 -83 -31 -90
-31 -19 0 -27 -21 -12 -31 26 -16 58 -9 116 26 31 19 58 33 60 31 1 -1 -1 -29
-5 -62 l-7 -59 -39 1 -38 1 44 -44 43 -44 23 26 c19 23 22 37 22 118 l0 93 31
18 c36 21 33 31 -5 17 -26 -10 -26 -10 -26 33 l0 44 46 7 c57 8 54 31 -5 28
-38 -2 -41 0 -41 25 1 15 7 45 15 67 8 22 11 43 6 48 -12 12 -70 26 -76 18z"/>
</g>
<g id="part-2" class="char-part">
  <path d="M505 598 c12 -41 34 -143 35 -160 0 -13 -12 -19 -50 -24 -67 -9 -63
-22 6 -26 l56 -3 23 -73 23 -73 -41 -30 c-23 -17 -59 -40 -80 -51 -22 -10 -37
-21 -35 -23 8 -8 84 17 126 42 l44 25 48 -55 c32 -35 67 -62 100 -76 63 -27
84 -23 70 14 -6 15 -10 41 -10 60 0 46 -16 53 -24 10 -11 -57 -57 -43 -111 35
l-28 41 47 48 c45 46 46 48 28 64 -29 26 -46 20 -64 -23 -9 -22 -21 -40 -27
-40 -15 0 -29 31 -37 78 -7 44 -12 41 84 62 28 7 52 16 52 20 0 18 -43 21 -90
5 -27 -9 -54 -14 -60 -10 -5 3 -10 41 -10 84 0 85 -8 101 -53 101 -26 0 -28
-3 -22 -22z"/>
  <path d="M640 552 c0 -17 59 -64 76 -60 27 5 28 25 2 41 -29 18 -78 30 -78 19z"/>
</g>
</g>
</svg>