<?xml version="1.0" standalone="no"?>
<!DOCTYPE svg PUBLIC "-//W3C//DTD SVG 20010904//EN"
 "http://www.w3.org/TR/2001/REC-SVG-20010904/DTD/svg10.dtd">
<svg version="1.0" xmlns="http://www.w3.org/2000/svg"
 width="96.000000pt" height="68.000000pt" viewBox="0 0 96.000000 68.000000"
 preserveAspectRatio="xMidYMid meet">
<metadata>
Created by potrace 1.16, written by Peter Selinger 2001-2019
Combined from part_0.svg through part_5.svg with named groups
</metadata>
<g transform="translate(0.000000,68.000000) scale(0.100000,-0.100000)" fill="#000000" stroke="none">
<g id="part-0" class="char-part">
  <path d="M170 547 c0 -21 73 -77 99 -77 16 0 21 6 21 25 0 29 -29 51 -82 60
-30 6 -38 4 -38 -8z"/>
  <path d="M480 535 c-85 -13 -159 -24 -165 -25 -5 0 -2 -5 8 -11 15 -9 17 -29
17 -183 0 -159 2 -175 20 -199 31 -39 106 -51 280 -44 149 5 184 11 177 31 -4
12 -30 12 -243 1 -208 -11 -210 -9 -195 216 5 75 14 146 20 156 8 16 28 22
105 31 52 7 121 12 153 13 32 0 67 4 78 8 19 8 19 8 -2 19 -29 16 -71 14 -253
-13z"/>
  <path d="M585 460 c-16 -4 -54 -8 -82 -9 -29 0 -53 -2 -53 -3 0 -2 11 -25 25
-52 14 -27 25 -56 25 -63 0 -9 7 -12 18 -9 9 3 44 10 76 15 33 6 60 12 60 13
1 2 11 23 24 47 12 25 19 48 14 53 -13 13 -73 18 -107 8z m45 -44 c0 -28 -24
-56 -48 -56 -9 0 -27 -3 -39 -6 -17 -5 -22 0 -28 25 -3 17 -6 34 -6 38 0 11
38 21 84 22 33 1 37 -2 37 -23z"/>
  <path d="M110 401 c0 -16 70 -71 90 -71 20 0 30 17 22 38 -10 29 -112 59 -112
33z"/>
  <path d="M238 264 c-21 -28 -58 -70 -83 -93 -37 -34 -44 -46 -39 -66 9 -35 30
-51 49 -35 8 6 17 21 20 31 4 11 27 56 51 99 56 98 56 138 2 64z"/>
  <path d="M690 300 c-8 -5 -36 -10 -61 -10 l-46 0 23 -62 c14 -41 27 -62 36
-59 7 2 24 6 38 8 59 10 70 14 65 24 -4 5 3 27 14 49 20 39 20 40 1 50 -23 13
-50 13 -70 0z m20 -55 c0 -29 -5 -37 -26 -45 -38 -15 -41 -13 -49 26 -7 42 3
54 48 54 24 0 27 -3 27 -35z"/>
  <path d="M450 266 c-30 -7 -50 -15 -44 -19 6 -4 14 -24 18 -46 3 -22 9 -42 14
-44 4 -2 30 -1 57 2 35 4 50 10 50 21 0 8 6 30 14 48 22 53 0 61 -109 38z m70
-36 c0 -35 -12 -50 -40 -50 -20 0 -29 6 -34 23 -10 39 -7 46 27 49 40 4 47 1
47 -22z"/>
</g>
<g id="part-1" class="char-part">
  <path d="M180 541 c0 -14 69 -71 85 -71 24 0 18 47 -7 64 -24 17 -78 22 -78 7z"/>
  <path d="M126 387 c42 -55 94 -72 94 -29 0 20 -56 52 -91 52 -19 0 -19 -1 -3
-23z"/>
  <path d="M226 241 c-25 -33 -61 -71 -78 -85 -29 -22 -31 -28 -22 -53 14 -40
38 -41 55 -1 7 18 33 68 56 112 24 44 41 81 39 83 -2 2 -25 -23 -50 -56z"/>
</g>
<g id="part-2" class="char-part">
  <path d="M475 535 c-82 -13 -154 -24 -160 -25 -5 0 -2 -5 8 -11 15 -9 17 -29
17 -188 0 -173 1 -178 23 -199 13 -13 39 -27 58 -32 64 -19 385 -7 407 15 15
14 -27 26 -78 21 -282 -28 -363 -18 -375 46 -6 35 10 283 21 311 3 9 13 19 22
21 28 9 194 26 252 26 55 0 91 12 77 26 -16 16 -129 12 -272 -11z"/>
</g>
<g id="part-3" class="char-part">
  <path d="M535 457 c-44 -5 -82 -12 -84 -13 -2 -2 2 -12 11 -21 8 -10 20 -37
27 -60 6 -24 13 -43 14 -43 7 0 152 32 152 33 0 1 10 22 23 47 21 42 22 45 6
57 -20 14 -33 14 -149 0z m91 -49 c-3 -17 -8 -33 -10 -36 -7 -6 -88 -23 -93
-19 -2 3 -6 20 -10 40 -6 39 1 43 81 46 38 1 38 1 32 -31z"/>
</g>
<g id="part-4" class="char-part">
  <path d="M680 299 c-14 -6 -42 -11 -63 -11 -27 0 -35 -4 -28 -12 5 -6 15 -33
22 -59 l12 -49 36 6 c77 14 91 18 86 26 -3 5 2 27 11 50 14 36 15 43 3 51 -18
11 -47 10 -79 -2z m28 -56 c-2 -31 -8 -39 -30 -47 -33 -12 -37 -8 -45 37 -6
37 1 43 55 46 21 1 23 -3 20 -36z"/>
</g>
</g>
</svg>