<?xml version="1.0" standalone="no"?>
<!DOCTYPE svg PUBLIC "-//W3C//DTD SVG 20010904//EN"
 "http://www.w3.org/TR/2001/REC-SVG-20010904/DTD/svg10.dtd">
<svg version="1.0" xmlns="http://www.w3.org/2000/svg"
 width="96.000000pt" height="68.000000pt" viewBox="0 0 96.000000 68.000000"
 preserveAspectRatio="xMidYMid meet">
<metadata>
Created by potrace 1.16, written by Peter Selinger 2001-2019
Combined from part_0.svg through part_5.svg with named groups
</metadata>
<g transform="translate(0.000000,68.000000) scale(0.100000,-0.100000)" fill="#000000" stroke="none">
<g id="part-0" class="char-part">
  <path d="M450 620 c0 -5 17 -19 38 -30 20 -11 64 -43 97 -71 33 -28 71 -55 83
-60 23 -9 130 2 152 16 18 11 0 25 -31 25 -62 0 -202 57 -262 107 -29 23 -77
32 -77 13z"/>
  <path d="M282 562 c-13 -20 -50 -57 -84 -82 -33 -24 -56 -46 -50 -48 18 -6 93
32 152 77 30 22 58 41 62 41 16 0 7 30 -11 40 -32 17 -45 11 -69 -28z"/>
  <path d="M390 518 c0 -21 -41 -62 -87 -88 -46 -26 -50 -32 -30 -48 9 -8 25 -8
48 -2 97 25 118 30 168 36 32 4 56 3 60 -3 3 -6 16 -13 29 -17 19 -6 22 -4 22
17 0 27 -27 49 -72 61 -29 7 -36 -2 -17 -21 8 -8 -7 -14 -53 -22 -36 -6 -78
-11 -94 -11 -28 0 -27 1 21 36 54 38 65 67 28 72 -14 2 -23 -2 -23 -10z"/>
  <path d="M550 355 c-30 -7 -67 -14 -82 -14 -16 -1 -28 -6 -28 -12 0 -8 19 -9
63 -3 122 15 112 24 115 -96 3 -127 -6 -150 -56 -132 -18 6 -32 7 -32 3 0 -16
72 -72 87 -69 30 6 52 66 47 127 -3 32 -1 84 5 116 9 46 8 62 -1 71 -20 20
-59 23 -118 9z"/>
  <path d="M275 335 c-27 -7 -66 -14 -85 -14 -27 -1 -31 -4 -19 -11 11 -6 36 -6
69 0 86 16 81 23 78 -97 l-3 -108 -38 3 -38 3 38 -35 c65 -59 89 -23 96 141 4
98 3 103 -19 118 -13 8 -25 14 -26 14 -2 -1 -25 -7 -53 -14z"/>
  <path d="M446 275 c4 -8 19 -22 35 -31 26 -13 30 -13 36 1 7 21 -4 31 -44 40
-28 6 -32 4 -27 -10z"/>
  <path d="M186 245 c35 -30 54 -32 54 -6 0 18 -25 31 -64 31 -16 0 -14 -4 10
-25z"/>
  <path d="M505 197 c-33 -10 -71 -23 -84 -28 l-24 -10 23 -16 c22 -15 26 -15
64 6 49 26 93 58 86 63 -3 2 -32 -4 -65 -15z"/>
  <path d="M215 176 c-109 -39 -103 -35 -81 -52 11 -8 23 -14 26 -14 4 0 38 20
76 45 75 49 71 53 -21 21z"/>
</g>
<g id="part-1" class="char-part">
  <path d="M473 607 c11 -7 55 -40 99 -75 91 -71 107 -77 183 -67 71 8 78 22 18
31 -70 10 -150 41 -217 85 -32 22 -68 39 -80 38 -20 0 -20 -1 -3 -12z"/>
  <path d="M300 580 c0 -16 -69 -88 -106 -111 -20 -12 -33 -23 -31 -26 9 -9 75
26 138 72 80 59 76 54 59 65 -20 13 -60 13 -60 0z"/>
</g>
<g id="part-2" class="char-part">
  <path d="M372 490 c-18 -22 -51 -49 -73 -60 -42 -22 -47 -31 -26 -49 11 -8 34
-6 93 9 120 31 177 36 193 16 20 -24 41 -20 41 8 0 27 -34 53 -83 63 -32 6
-32 6 -14 -14 18 -20 17 -21 -15 -26 -67 -12 -138 -19 -138 -14 0 3 23 22 51
42 42 30 48 39 39 51 -19 22 -32 17 -68 -26z"/>
</g>
<g id="part-3" class="char-part">
  <path d="M236 330 c-90 -19 -81 -35 11 -20 32 6 62 10 66 10 4 0 6 -48 5 -107
l-3 -108 -32 3 c-39 4 -37 -11 8 -47 l31 -24 21 21 c18 19 22 38 28 139 7 111
6 119 -13 136 -23 19 -17 20 -122 -3z"/>
</g>
<g id="part-4" class="char-part">
  <path d="M488 192 c-49 -15 -88 -30 -88 -33 0 -3 11 -11 23 -18 21 -11 31 -8
93 29 100 61 100 61 -28 22z"/>
</g>
</g>
</svg>