<?xml version="1.0" standalone="no"?>
<!DOCTYPE svg PUBLIC "-//W3C//DTD SVG 20010904//EN"
 "http://www.w3.org/TR/2001/REC-SVG-20010904/DTD/svg10.dtd">
<svg version="1.0" xmlns="http://www.w3.org/2000/svg"
 width="96.000000pt" height="68.000000pt" viewBox="0 0 96.000000 68.000000"
 preserveAspectRatio="xMidYMid meet">
<metadata>
Created by potrace 1.16, written by Peter Selinger 2001-2019
Combined from part_0.svg through part_5.svg with named groups
</metadata>
<g transform="translate(0.000000,68.000000) scale(0.100000,-0.100000)" fill="#000000" stroke="none">
<g id="part-0" class="char-part">
  <path d="M425 519 c-66 -11 -130 -17 -142 -15 -24 3 -39 -19 -20 -31 7 -4 46
-7 87 -6 48 1 78 -3 82 -10 4 -7 8 -38 8 -69 0 -57 0 -57 -32 -62 -18 -3 -87
-8 -153 -11 -66 -4 -122 -9 -125 -12 -3 -2 4 -11 15 -20 14 -10 33 -13 65 -8
73 10 224 24 227 21 2 -2 6 -33 10 -71 5 -50 3 -69 -7 -75 -8 -5 -56 -12 -108
-15 -85 -7 -92 -9 -78 -23 14 -14 29 -14 129 -4 63 7 164 12 226 12 64 0 111
4 111 10 0 22 -46 32 -133 29 l-90 -4 -1 72 c-1 64 1 73 19 77 11 3 84 6 163
6 78 0 142 3 142 6 0 3 -7 12 -15 20 -13 13 -38 14 -164 8 l-149 -7 5 49 c3
27 10 57 15 67 6 12 5 17 -4 18 -7 0 -4 4 7 9 11 5 50 9 88 9 52 1 67 4 67 16
0 39 -62 43 -245 14z"/>
</g>
<g id="part-1" class="char-part">
  <path d="M428 516 c-86 -12 -160 -25 -164 -28 -22 -23 102 -20 349 8 52 6 60
19 21 34 -30 12 -11 13 -206 -14z"/>
</g>
<g id="part-2" class="char-part">
  <path d="M438 407 l4 -75 -38 -6 c-22 -3 -94 -8 -161 -12 -68 -3 -123 -10
-123 -14 0 -4 14 -13 30 -20 24 -10 47 -10 103 -2 40 7 97 14 128 17 l56 6 6
-38 c11 -63 8 -110 -7 -116 -7 -3 -54 -8 -105 -12 -50 -4 -91 -11 -91 -15 0
-18 56 -29 95 -19 22 5 118 13 213 16 94 3 172 10 172 14 0 22 -48 31 -132 26
l-88 -6 0 80 0 79 160 0 c88 0 160 4 160 8 0 5 -12 14 -27 21 -20 9 -63 10
-161 5 l-134 -7 4 54 c2 30 6 61 9 69 3 11 -6 16 -37 18 l-41 3 5 -74z"/>
</g>
</g>
</svg>