<?xml version="1.0" standalone="no"?>
<!DOCTYPE svg PUBLIC "-//W3C//DTD SVG 20010904//EN"
 "http://www.w3.org/TR/2001/REC-SVG-20010904/DTD/svg10.dtd">
<svg version="1.0" xmlns="http://www.w3.org/2000/svg"
 width="96.000000pt" height="68.000000pt" viewBox="0 0 96.000000 68.000000"
 preserveAspectRatio="xMidYMid meet">
<metadata>
Created by potrace 1.16, written by Peter Selinger 2001-2019
Combined from part_0.svg through part_5.svg with named groups
</metadata>
<g transform="translate(0.000000,68.000000) scale(0.100000,-0.100000)" fill="#000000" stroke="none">
<g id="part-0" class="char-part">
  <path d="M500 551 l0 -51 -50 0 c-27 0 -50 -4 -50 -10 0 -5 20 -10 43 -10 50
0 57 -4 50 -31 -4 -13 -14 -19 -34 -19 -15 0 -31 -4 -34 -10 -4 -6 6 -10 23
-10 26 0 29 -3 24 -25 -3 -20 -10 -25 -38 -26 -19 -1 -38 -3 -44 -4 -5 -1 -17
-3 -26 -4 -8 0 -13 -5 -10 -10 3 -5 24 -7 46 -5 24 2 40 0 40 -7 0 -15 -70
-99 -82 -99 -5 0 -21 -9 -35 -20 -21 -16 -23 -20 -8 -20 31 0 109 57 149 109
35 47 41 51 80 51 36 0 50 -8 110 -61 80 -71 103 -81 157 -73 47 8 50 20 7 29
-38 9 -114 45 -172 84 l-40 26 82 5 c45 3 82 10 82 15 0 12 -98 13 -187 3 -58
-7 -63 -6 -63 12 0 16 12 21 74 31 87 15 90 34 5 26 -56 -5 -59 -4 -59 17 0
21 7 24 68 32 81 11 82 30 1 26 l-56 -3 1 38 c1 34 -2 38 -26 41 -27 3 -28 2
-28 -47z"/>
  <path d="M215 553 c4 -10 10 -48 12 -84 l6 -67 -62 -8 c-34 -5 -62 -13 -62
-19 1 -5 25 -12 56 -15 l55 -5 -36 -60 c-20 -33 -52 -79 -71 -102 -53 -66 -15
-54 58 17 45 45 60 54 56 38 -3 -13 -9 -61 -13 -108 -5 -73 -4 -88 10 -99 31
-26 41 2 46 135 l5 126 22 -26 c26 -29 38 -33 46 -12 8 20 -18 53 -48 60 -35
9 -34 44 3 52 15 3 38 10 51 15 34 14 12 33 -34 31 l-37 -1 7 63 c6 58 5 65
-13 75 -12 6 -30 11 -42 11 -17 0 -20 -4 -15 -17z"/>
  <path d="M545 300 c-4 -7 -24 -19 -44 -28 l-36 -16 28 -4 c22 -3 28 -8 25 -24
-2 -13 -11 -22 -23 -23 -11 -1 -38 -5 -59 -9 -52 -10 -27 -29 27 -20 21 3 37
2 37 -4 0 -13 -74 -72 -119 -96 -20 -11 -31 -21 -24 -23 14 -5 86 31 130 64
l32 25 3 -59 c2 -44 7 -58 18 -58 11 0 16 14 18 58 l3 59 49 -46 c46 -43 53
-46 105 -46 56 0 73 13 33 25 -64 19 -199 98 -187 109 2 2 33 7 69 11 36 4 67
9 70 12 13 12 -32 21 -82 16 -54 -5 -58 -5 -58 16 0 11 -6 22 -12 22 -7 1 1 4
17 8 17 3 30 13 30 21 0 18 -40 26 -50 10z"/>
</g>
<g id="part-1" class="char-part">
  <path d="M228 486 c5 -94 10 -88 -83 -102 -48 -7 -49 -7 -20 -16 17 -4 45 -6
63 -3 22 4 32 2 32 -7 0 -22 -55 -110 -100 -161 -23 -26 -38 -47 -34 -47 18 0
87 56 115 94 l31 41 -6 -70 c-4 -38 -9 -86 -12 -105 -6 -40 17 -82 35 -64 6 5
14 68 18 139 l6 128 23 -26 c27 -32 44 -35 44 -8 0 12 -13 25 -35 35 -25 12
-35 24 -35 40 0 18 8 24 41 32 51 12 51 30 -1 27 l-40 -2 6 42 c3 23 7 52 10
64 3 15 -3 27 -18 37 -40 29 -45 21 -40 -68z"/>
</g>
<g id="part-2" class="char-part">
  <path d="M500 550 l0 -50 -37 -1 c-21 0 -47 -4 -58 -9 -15 -6 -7 -9 31 -9 58
-1 64 -4 57 -32 -4 -14 -14 -19 -39 -19 -18 0 -36 -4 -39 -10 -4 -6 7 -10 24
-10 20 0 31 -5 31 -14 0 -9 8 -12 25 -8 14 2 25 8 25 13 0 4 33 13 74 20 90
15 90 34 0 25 -63 -6 -63 -6 -55 16 7 19 20 25 75 34 36 6 69 14 72 17 14 14
-31 19 -82 10 -30 -5 -54 -8 -54 -7 0 2 5 15 10 30 13 32 -2 54 -36 54 -22 0
-24 -4 -24 -50z"/>
</g>
<g id="part-3" class="char-part">
  <path d="M621 384 c-68 -10 -98 -11 -107 -3 -10 8 -21 6 -41 -5 -15 -8 -50
-18 -78 -21 -40 -6 -46 -9 -31 -17 10 -6 31 -7 47 -4 16 3 29 3 29 -1 0 -17
-47 -71 -88 -102 -48 -36 -44 -53 6 -27 45 23 91 65 118 108 21 33 29 38 63
38 33 0 50 -9 112 -61 41 -34 83 -65 95 -69 23 -9 104 -2 104 10 0 4 -19 12
-42 19 -48 14 -140 61 -178 91 l-25 20 82 0 c88 0 112 11 61 29 -17 6 -31 10
-32 10 -1 -1 -43 -8 -95 -15z"/>
</g>
<g id="part-4" class="char-part">
  <path d="M520 235 c0 -27 -28 -38 -115 -45 -17 -2 -16 -3 5 -9 14 -5 40 -6 58
-3 57 8 30 -26 -82 -102 -21 -14 -33 -26 -27 -26 17 0 90 39 128 67 l32 25 3
-59 c2 -44 7 -58 18 -58 11 0 15 13 17 55 0 30 1 59 2 64 1 4 23 -15 49 -43
46 -49 51 -51 99 -51 64 0 76 14 26 31 -70 22 -173 84 -173 102 0 3 32 9 70
13 68 6 86 16 55 28 -14 5 -42 2 -102 -10 -19 -4 -23 0 -23 21 0 18 -5 25 -20
25 -15 0 -20 -7 -20 -25z"/>
</g>
</g>
</svg>