<?xml version="1.0" standalone="no"?>
<!DOCTYPE svg PUBLIC "-//W3C//DTD SVG 20010904//EN"
 "http://www.w3.org/TR/2001/REC-SVG-20010904/DTD/svg10.dtd">
<svg version="1.0" xmlns="http://www.w3.org/2000/svg"
 width="96.000000pt" height="68.000000pt" viewBox="0 0 96.000000 68.000000"
 preserveAspectRatio="xMidYMid meet">
<metadata>
Created by potrace 1.16, written by Peter Selinger 2001-2019
Combined from part_0.svg through part_5.svg with named groups
</metadata>
<g transform="translate(0.000000,68.000000) scale(0.100000,-0.100000)" fill="#000000" stroke="none">
<g id="part-0" class="char-part">
  <path d="M558 501 c4 -107 4 -108 -19 -114 -13 -4 -37 -7 -52 -7 -16 0 -26 -4
-22 -10 3 -5 26 -10 51 -10 43 0 44 0 44 -34 0 -41 -10 -46 -102 -46 -51 0
-69 -3 -65 -12 3 -9 30 -13 88 -13 l84 0 3 -110 c3 -130 7 -149 28 -121 9 14
14 46 14 102 0 45 3 96 6 113 l7 31 113 0 c63 0 114 4 114 8 0 17 -54 33 -94
27 -22 -3 -62 -7 -88 -10 l-48 -4 0 39 c0 43 2 44 83 55 67 9 48 27 -25 23
l-61 -3 2 94 c2 99 -2 111 -45 111 -20 0 -20 -4 -16 -109z"/>
  <path d="M285 550 c-11 -5 -40 -6 -65 -3 l-45 5 3 -120 c4 -151 -8 -217 -54
-276 -37 -48 -40 -56 -23 -56 37 0 119 106 119 155 0 18 4 19 30 3 18 -11 24
-9 51 22 l31 35 -5 -78 c-2 -42 -6 -80 -9 -82 -3 -3 -18 -1 -33 5 -15 6 -30 8
-33 5 -6 -6 68 -85 80 -85 4 0 16 10 28 22 18 20 20 35 20 187 0 92 5 182 10
201 9 31 8 37 -11 53 -23 18 -61 21 -94 7z m43 -74 c3 -39 3 -39 -29 -32 -17
3 -38 6 -45 6 -17 0 -18 42 -2 58 7 7 26 12 43 10 27 -3 30 -7 33 -42z m-54
-71 c11 -8 28 -15 39 -15 14 0 18 -6 15 -27 -2 -21 -12 -29 -45 -42 -23 -8
-45 -13 -47 -10 -7 7 5 109 13 109 3 0 15 -7 25 -15z"/>
  <path d="M711 490 c-23 -27 -41 -50 -39 -50 2 0 21 9 43 20 22 11 44 20 51 20
6 0 17 7 24 15 10 11 9 18 -3 30 -23 23 -30 19 -76 -35z"/>
  <path d="M440 493 c0 -11 51 -73 61 -73 5 0 9 11 9 25 0 17 -9 29 -30 40 -32
17 -40 18 -40 8z"/>
</g>
<g id="part-1" class="char-part">
  <path d="M300 549 c-14 -6 -45 -8 -70 -5 l-45 6 0 -137 c0 -151 -8 -190 -57
-261 -41 -59 -27 -65 25 -10 28 29 48 61 57 91 7 26 14 47 16 47 3 0 13 -6 25
-12 18 -12 24 -9 50 20 l30 33 -3 -83 -3 -83 -35 3 -35 3 37 -37 c40 -40 62
-41 77 -1 5 13 11 112 13 220 l3 196 -23 11 c-27 12 -29 12 -62 -1z m30 -68
l0 -48 -48 9 c-46 10 -48 11 -44 40 5 31 27 46 70 47 20 1 22 -4 22 -48z m-66
-66 c11 -8 30 -15 43 -15 19 0 23 -5 23 -34 0 -30 -4 -35 -43 -50 -23 -9 -46
-16 -50 -16 -4 0 -7 29 -7 65 0 69 3 73 34 50z"/>
</g>
<g id="part-2" class="char-part">
  <path d="M554 579 c3 -17 6 -60 6 -95 l0 -64 29 0 30 0 3 88 c2 50 -1 90 -7
94 -5 4 -23 8 -39 8 -27 0 -28 -2 -22 -31z"/>
  <path d="M729 514 c-7 -14 -26 -37 -42 -50 -37 -31 -30 -30 48 5 67 31 74 38
53 59 -20 20 -44 14 -59 -14z"/>
  <path d="M452 467 c24 -38 43 -51 59 -41 26 16 -6 58 -54 70 l-29 7 24 -36z"/>
</g>
<g id="part-3" class="char-part">
  <path d="M560 406 c0 -16 -30 -26 -80 -26 -26 0 -31 -3 -20 -10 8 -5 34 -10
58 -10 l43 0 -3 -37 -3 -38 -78 -5 c-104 -7 -100 -25 6 -25 l82 0 3 -122 c1
-68 7 -123 12 -123 19 0 30 41 30 112 0 40 3 90 6 111 l7 37 113 0 c63 0 114
4 114 8 0 5 -12 14 -26 21 -24 11 -53 10 -166 -4 l-38 -5 0 39 c0 39 1 40 38
46 81 14 92 17 86 27 -4 6 -29 8 -65 4 -39 -5 -59 -3 -59 4 0 5 -13 10 -30 10
-19 0 -30 -5 -30 -14z"/>
</g>
</g>
</svg>