<?xml version="1.0" standalone="no"?>
<!DOCTYPE svg PUBLIC "-//W3C//DTD SVG 20010904//EN"
 "http://www.w3.org/TR/2001/REC-SVG-20010904/DTD/svg10.dtd">
<svg version="1.0" xmlns="http://www.w3.org/2000/svg"
 width="96.000000pt" height="68.000000pt" viewBox="0 0 96.000000 68.000000"
 preserveAspectRatio="xMidYMid meet">
<metadata>
Created by potrace 1.16, written by Peter Selinger 2001-2019
Combined from part_0.svg through part_5.svg with named groups
</metadata>
<g transform="translate(0.000000,68.000000) scale(0.100000,-0.100000)" fill="#000000" stroke="none">
<g id="part-0" class="char-part">
  <path d="M410 597 c0 -7 7 -22 15 -33 8 -10 15 -22 15 -25 0 -3 -37 -9 -82
-13 -45 -4 -84 -9 -87 -12 -8 -8 22 -24 46 -24 16 0 28 -11 43 -39 11 -22 17
-42 12 -44 -4 -3 -47 -8 -97 -12 -106 -9 -137 -20 -82 -30 20 -4 72 -2 115 4
42 6 160 15 262 21 102 6 188 14 193 19 4 4 1 14 -8 21 -12 10 -36 10 -117 2
-56 -6 -104 -9 -106 -7 -2 2 5 17 17 34 16 22 18 32 9 37 -15 9 15 22 55 23
30 1 37 25 10 35 -9 4 -41 4 -70 0 -44 -5 -53 -4 -53 9 0 21 -38 47 -67 47
-13 0 -23 -6 -23 -13z m95 -134 c-9 -51 -11 -53 -50 -53 -28 0 -36 5 -52 40
l-20 39 21 4 c12 2 41 5 65 6 l43 1 -7 -37z"/>
  <path d="M460 349 c-25 -4 -74 -8 -109 -8 -60 -1 -63 -2 -49 -18 12 -15 21
-40 44 -120 2 -10 24 -11 86 -7 46 3 86 8 90 10 4 3 16 0 27 -5 24 -13 31 -5
66 78 21 51 24 66 13 72 -16 10 -106 9 -168 -2z m108 -30 c3 -16 -26 -22 -205
-43 -5 -1 -9 8 -11 20 -3 19 4 22 75 31 104 14 137 12 141 -8z m-11 -72 c-5
-14 -86 -27 -163 -27 -27 0 -34 4 -34 19 0 16 12 19 93 27 94 10 114 6 104
-19z"/>
  <path d="M695 156 c47 -44 77 -56 89 -37 16 26 -32 61 -104 75 l-35 8 50 -46z"/>
  <path d="M222 128 c-32 -41 -40 -72 -23 -82 25 -16 71 43 71 89 0 39 -15 37
-48 -7z"/>
  <path d="M310 165 c0 -3 7 -20 16 -38 41 -80 122 -118 248 -116 76 1 147 17
153 35 3 10 -86 74 -102 74 -3 0 -2 -12 1 -26 9 -36 -7 -44 -91 -44 -86 0
-148 27 -183 80 -22 33 -42 50 -42 35z"/>
  <path d="M449 151 c17 -30 58 -48 73 -33 17 17 -8 40 -51 48 -32 7 -33 6 -22
-15z"/>
</g>
<g id="part-1" class="char-part">
  <path d="M420 593 c0 -9 7 -25 17 -35 9 -10 14 -20 11 -23 -3 -3 -42 -8 -87
-12 -82 -6 -108 -19 -48 -25 43 -4 209 10 275 23 73 15 57 33 -24 26 -58 -4
-63 -3 -68 17 -3 13 -17 28 -31 34 -35 16 -45 15 -45 -5z"/>
</g>
<g id="part-2" class="char-part">
  <path d="M504 463 c-9 -46 -10 -48 -46 -51 -33 -3 -38 0 -44 23 -6 24 -60 72
-70 62 -3 -3 4 -23 15 -46 12 -22 21 -42 21 -45 0 -2 -47 -7 -105 -11 -58 -4
-108 -11 -111 -16 -11 -19 54 -20 208 -5 90 8 216 18 281 22 64 3 117 9 117
14 0 4 -7 13 -15 20 -12 10 -36 10 -117 1 -55 -6 -103 -9 -106 -7 -2 3 5 18
16 34 23 31 15 52 -19 52 -12 0 -19 -13 -25 -47z"/>
</g>
<g id="part-3" class="char-part">
  <path d="M495 355 c-44 -8 -108 -14 -142 -14 -58 -1 -81 -12 -50 -24 7 -3 19
-30 26 -62 7 -31 19 -59 27 -62 7 -3 51 -1 96 5 46 5 90 5 99 1 22 -11 34 4
64 82 14 34 25 64 25 65 0 2 -62 25 -64 23 -1 -1 -37 -7 -81 -14z m70 -40 c0
-13 -6 -19 -16 -17 -9 1 -55 -4 -103 -11 -47 -8 -88 -12 -91 -9 -3 3 -5 13 -5
23 0 14 15 19 83 27 113 13 132 11 132 -13z m-5 -52 c-1 -23 -23 -32 -99 -38
-66 -6 -85 -5 -92 6 -15 24 -10 28 39 32 92 7 152 7 152 0z"/>
</g>
<g id="part-4" class="char-part">
  <path d="M651 191 c1 -11 98 -81 113 -81 38 0 28 43 -14 60 -39 16 -100 29
-99 21z"/>
  <path d="M224 132 c-39 -47 -46 -68 -30 -81 20 -17 41 -4 59 35 35 72 17 100
-29 46z"/>
  <path d="M311 163 c2 -25 48 -90 77 -109 61 -42 210 -57 296 -31 49 15 55 31
19 53 -15 9 -41 26 -57 36 l-28 20 7 -32 c9 -43 -3 -50 -90 -50 -86 0 -148 27
-183 80 -22 34 -43 50 -41 33z"/>
  <path d="M460 142 c37 -33 55 -39 66 -21 10 17 -19 39 -62 46 l-39 5 35 -30z"/>
</g>
</g>
</svg>