<?xml version="1.0" standalone="no"?>
<!DOCTYPE svg PUBLIC "-//W3C//DTD SVG 20010904//EN"
 "http://www.w3.org/TR/2001/REC-SVG-20010904/DTD/svg10.dtd">
<svg version="1.0" xmlns="http://www.w3.org/2000/svg"
 width="96.000000pt" height="68.000000pt" viewBox="0 0 96.000000 68.000000"
 preserveAspectRatio="xMidYMid meet">
<metadata>
Created by potrace 1.16, written by Peter Selinger 2001-2019
Combined from part_0.svg through part_5.svg with named groups
</metadata>
<g transform="translate(0.000000,68.000000) scale(0.100000,-0.100000)" fill="#000000" stroke="none">
<g id="part-0" class="char-part">
  <path d="M495 561 c-9 -27 -34 -74 -55 -105 -22 -32 -40 -59 -40 -62 0 -3 15
5 33 18 17 13 48 24 67 25 19 1 70 5 113 9 l77 6 -1 -43 c0 -24 -6 -62 -13
-84 -11 -36 -15 -40 -44 -40 -18 0 -32 -1 -32 -3 0 -1 10 -16 22 -32 44 -60
84 -23 111 100 9 42 19 83 22 92 4 11 -1 22 -17 32 -21 13 -34 13 -126 -1 -56
-9 -105 -13 -108 -10 -4 3 8 27 25 53 36 55 38 69 12 84 -28 15 -28 15 -46
-39z"/>
  <path d="M285 540 c-11 -5 -42 -9 -70 -9 l-50 -1 0 -158 0 -159 -33 -63 c-18
-35 -31 -65 -29 -67 2 -2 16 7 32 19 28 21 75 109 75 139 0 12 7 15 26 11 18
-3 33 3 55 24 l29 28 -1 -65 c-1 -71 -11 -115 -25 -112 -5 1 -23 5 -39 9 l-30
7 40 -42 c43 -45 63 -50 88 -23 15 16 17 45 17 194 0 107 5 188 12 208 10 30
9 35 -12 52 -24 19 -52 22 -85 8z m35 -75 c0 -50 1 -49 -52 -34 -31 8 -38 15
-38 35 0 26 25 42 68 43 20 1 22 -4 22 -44z m-65 -75 c10 -11 29 -20 42 -20
37 0 29 -33 -12 -53 -58 -28 -65 -24 -65 38 0 59 7 66 35 35z"/>
  <path d="M525 380 c-11 -5 -38 -9 -61 -9 l-40 -1 4 -122 c2 -68 9 -129 15
-136 6 -8 28 -23 50 -34 55 -28 241 -23 302 7 44 22 45 29 18 92 l-16 38 -9
-37 c-16 -64 -35 -73 -164 -76 -147 -5 -164 4 -164 82 0 52 1 54 31 60 17 3
42 6 56 6 19 0 23 4 19 18 -3 10 3 35 14 57 11 21 19 39 17 40 -6 6 -46 25
-49 24 -2 0 -12 -4 -23 -9z m7 -61 c-3 -40 -8 -45 -45 -55 -28 -6 -28 -6 -25
37 3 36 7 44 28 50 38 10 45 5 42 -32z"/>
</g>
<g id="part-1" class="char-part">
  <path d="M265 529 c-16 -5 -47 -7 -68 -3 -37 6 -37 6 -27 -21 14 -37 12 -198
-4 -272 -7 -34 -23 -78 -35 -99 -26 -43 -23 -52 7 -24 27 25 57 83 67 127 5
28 9 31 24 23 14 -7 27 -3 52 16 l34 25 3 -77 c4 -101 1 -107 -44 -98 l-37 7
40 -37 c46 -41 49 -42 71 -19 14 14 18 48 22 227 3 121 2 216 -3 224 -11 14
-58 15 -102 1z m55 -67 l0 -49 -47 12 c-41 10 -48 16 -51 39 -4 29 20 44 71
45 26 1 27 -1 27 -47z m-15 -88 c11 4 15 -2 15 -20 0 -20 -9 -29 -45 -45 -25
-11 -49 -18 -53 -15 -4 2 -5 32 -4 66 l4 61 34 -26 c19 -15 42 -24 49 -21z"/>
</g>
<g id="part-2" class="char-part">
  <path d="M506 598 c-17 -60 -42 -111 -76 -155 -40 -54 -36 -71 8 -31 13 13 38
23 55 24 18 1 69 5 115 9 l82 8 -1 -49 c0 -27 -6 -65 -13 -84 -11 -30 -18 -35
-45 -35 -17 0 -31 -1 -31 -3 0 -2 9 -17 21 -33 25 -35 53 -37 74 -5 14 21 69
216 62 221 -26 21 -52 23 -146 9 -57 -9 -105 -13 -108 -10 -3 3 11 29 32 57
l38 53 -23 18 c-26 21 -39 23 -44 6z"/>
</g>
<g id="part-3" class="char-part">
  <path d="M530 380 c-8 -5 -36 -10 -62 -10 l-48 0 6 -62 c2 -34 7 -64 9 -66 2
-2 33 -1 70 3 52 6 65 11 61 22 -3 8 3 32 15 55 11 22 19 41 17 43 -5 4 -47
25 -50 25 -2 0 -10 -5 -18 -10z m5 -30 c7 -12 -13 -80 -23 -80 -4 0 -17 -3
-29 -6 -21 -6 -23 -3 -23 27 0 41 8 55 35 62 32 8 33 8 40 -3z"/>
</g>
<g id="part-4" class="char-part">
  <path d="M430 181 c0 -52 3 -62 26 -80 43 -34 94 -44 205 -39 162 6 192 31
149 123 -15 32 -19 35 -19 17 -1 -37 -30 -82 -59 -93 -40 -16 -203 -14 -238 2
-26 13 -29 19 -32 72 -2 42 -7 57 -17 57 -12 0 -15 -14 -15 -59z"/>
</g>
</g>
</svg>