<?xml version="1.0" standalone="no"?>
<!DOCTYPE svg PUBLIC "-//W3C//DTD SVG 20010904//EN"
 "http://www.w3.org/TR/2001/REC-SVG-20010904/DTD/svg10.dtd">
<svg version="1.0" xmlns="http://www.w3.org/2000/svg"
 width="96.000000pt" height="68.000000pt" viewBox="0 0 96.000000 68.000000"
 preserveAspectRatio="xMidYMid meet">
<metadata>
Created by potrace 1.16, written by Peter Selinger 2001-2019
Combined from part_0.svg through part_5.svg with named groups
</metadata>
<g transform="translate(0.000000,68.000000) scale(0.100000,-0.100000)" fill="#000000" stroke="none">
<g id="part-0" class="char-part">
  <path d="M418 490 c4 -89 4 -90 -20 -90 -12 0 -30 -5 -38 -10 -11 -7 -5 -10
24 -10 l39 0 -6 -128 c-7 -138 1 -173 29 -137 13 16 15 43 12 145 l-3 125 38
3 c25 2 37 8 37 18 0 12 -9 15 -37 12 l-37 -3 3 45 c8 115 8 115 -19 118 l-25
3 3 -91z"/>
  <path d="M247 563 c-4 -3 -7 -14 -7 -24 0 -10 -23 -43 -51 -73 -39 -42 -46
-56 -33 -56 25 1 50 16 107 65 53 44 59 66 22 83 -30 14 -30 14 -38 5z"/>
  <path d="M640 495 c-35 -10 -41 -14 -27 -20 23 -9 169 14 161 26 -7 13 -81 9
-134 -6z"/>
  <path d="M496 492 c-9 -9 46 -51 61 -45 16 6 17 18 1 30 -17 13 -55 22 -62 15z"/>
  <path d="M254 393 c-10 -21 -49 -68 -87 -105 -67 -67 -66 -76 5 -31 21 13 42
23 48 23 13 0 13 -62 0 -129 -10 -55 0 -96 23 -88 17 5 28 215 13 239 -8 14
-4 24 23 52 34 35 39 68 9 74 -11 2 -23 -10 -34 -35z"/>
  <path d="M690 400 c-19 -4 -61 -11 -93 -15 -74 -8 -66 -29 10 -23 51 4 55 3
64 -20 5 -14 8 -73 7 -131 l-3 -106 -38 1 -37 1 32 -33 c18 -19 40 -34 49 -34
36 0 41 24 37 184 l-3 156 30 0 c50 0 105 12 99 21 -6 11 -105 10 -154 -1z"/>
  <path d="M500 270 c0 -66 1 -71 26 -80 39 -15 84 -13 84 5 0 11 -11 15 -41 15
l-42 0 7 65 c6 61 5 65 -14 65 -18 0 -20 -6 -20 -70z"/>
  <path d="M340 280 c0 -28 -7 -67 -15 -87 -18 -43 -15 -50 9 -24 22 24 45 87
46 122 0 23 -15 39 -36 39 -2 0 -4 -23 -4 -50z"/>
</g>
<g id="part-1" class="char-part">
  <path d="M237 525 c-9 -19 -33 -52 -53 -75 -20 -22 -32 -40 -27 -40 16 0 97
56 128 89 29 32 29 33 11 47 -30 21 -41 17 -59 -21z"/>
</g>
<g id="part-2" class="char-part">
  <path d="M260 413 c0 -29 -68 -110 -146 -172 -28 -23 -28 -23 -4 -16 14 4 42
18 62 31 21 13 42 24 48 24 13 0 13 -70 -1 -126 -13 -49 0 -99 24 -91 17 5 30
204 15 234 -10 19 -6 28 26 63 30 33 35 44 25 56 -16 19 -49 18 -49 -3z"/>
</g>
<g id="part-3" class="char-part">
  <path d="M492 489 c2 -7 16 -22 31 -33 21 -16 30 -17 39 -8 9 9 9 15 -2 26
-21 19 -73 31 -68 15z"/>
</g>
<g id="part-4" class="char-part">
  <path d="M500 272 c0 -67 1 -70 29 -82 34 -14 73 -10 79 8 2 8 -9 12 -38 12
l-42 0 3 62 c3 53 1 63 -13 66 -16 3 -18 -5 -18 -66z"/>
  <path d="M338 278 c2 -38 -3 -64 -17 -91 -23 -46 -5 -44 26 2 28 42 41 120 22
132 -28 17 -34 9 -31 -43z"/>
</g>
<g id="part-5" class="char-part">
  <path d="M679 366 c-2 -3 -1 -51 3 -108 8 -124 3 -164 -22 -171 -11 -3 -21 0
-24 7 -3 7 -5 7 -5 0 -1 -17 46 -57 59 -49 6 4 9 14 6 22 -3 8 -2 12 3 9 14
-9 18 13 19 94 1 51 -4 82 -14 98 -9 13 -12 32 -8 44 5 16 8 18 15 7 6 -10 9
-7 9 12 0 15 -7 29 -16 33 -19 7 -19 7 -25 2z m28 -218 c-3 -7 -5 -2 -5 12 0
14 2 19 5 13 2 -7 2 -19 0 -25z"/>
</g>
</g>
</svg>