<?xml version="1.0" standalone="no"?>
<!DOCTYPE svg PUBLIC "-//W3C//DTD SVG 20010904//EN"
 "http://www.w3.org/TR/2001/REC-SVG-20010904/DTD/svg10.dtd">
<svg version="1.0" xmlns="http://www.w3.org/2000/svg"
 width="96.000000pt" height="68.000000pt" viewBox="0 0 96.000000 68.000000"
 preserveAspectRatio="xMidYMid meet">
<metadata>
Created by potrace 1.16, written by Peter Selinger 2001-2019
Combined from part_0.svg through part_5.svg with named groups
</metadata>
<g transform="translate(0.000000,68.000000) scale(0.100000,-0.100000)" fill="#000000" stroke="none">
<g id="part-0" class="char-part">
  <path d="M291 554 c-15 -57 -71 -142 -150 -225 -33 -35 -59 -65 -57 -67 7 -7
71 31 117 70 52 43 84 49 92 16 8 -28 8 -28 -49 -36 -70 -10 -70 -32 0 -32
l56 0 0 -54 c0 -63 1 -62 -105 -72 -41 -4 -75 -10 -75 -15 0 -16 32 -39 53
-39 40 1 282 75 277 85 -6 12 -33 12 -72 2 -28 -7 -28 -7 -28 47 l0 54 47 8
c66 13 69 34 5 34 -46 0 -50 2 -48 24 1 20 8 25 39 30 24 4 37 11 34 19 -5 17
-54 21 -104 6 -24 -6 -46 -10 -48 -7 -2 2 13 30 34 61 l37 57 35 -25 c39 -30
74 -30 74 0 0 15 -11 23 -48 34 -29 9 -46 19 -43 27 6 15 -25 44 -46 44 -10 0
-20 -16 -27 -46z"/>
  <path d="M623 435 c-1 -120 2 -155 12 -155 26 0 33 29 37 162 4 112 2 138 -10
143 -35 13 -37 7 -39 -150z"/>
  <path d="M751 434 c58 -69 74 -84 91 -84 12 0 18 7 18 24 0 27 -43 59 -95 72
-29 7 -29 6 -14 -12z"/>
  <path d="M500 390 c-13 -27 -27 -50 -32 -50 -4 0 -8 -5 -8 -10 0 -18 58 19 84
53 32 42 33 57 3 57 -18 0 -29 -11 -47 -50z"/>
  <path d="M732 328 c-7 -7 -12 -20 -12 -31 0 -41 -175 -193 -288 -251 -47 -24
-34 -30 19 -9 43 16 150 76 177 97 42 34 162 157 162 167 0 11 -28 38 -40 39
-4 0 -11 -5 -18 -12z"/>
  <path d="M390 248 c-19 -32 -25 -48 -16 -48 4 0 74 39 85 47 8 5 -22 33 -35
33 -8 0 -23 -15 -34 -32z"/>
  <path d="M180 246 c0 -20 46 -76 61 -76 27 0 25 45 -3 64 -21 15 -58 22 -58
12z"/>
</g>
<g id="part-1" class="char-part">
  <path d="M300 575 c0 -53 -54 -138 -149 -237 -35 -38 -61 -68 -57 -68 16 0 70
33 106 66 49 45 93 45 98 2 3 -25 0 -28 -30 -29 -18 -1 -44 -4 -58 -8 l-25 -7
23 -8 c13 -4 39 -5 58 -1 l34 6 0 -64 0 -64 -46 -7 c-26 -3 -67 -6 -91 -6 -50
0 -55 -16 -11 -38 23 -10 42 -7 149 23 162 46 157 44 140 54 -8 5 -28 5 -45 0
-52 -15 -56 -13 -56 39 0 54 12 72 49 72 15 0 32 4 39 9 17 11 -7 21 -49 21
-24 0 -29 4 -29 25 0 19 7 26 28 31 54 12 59 15 35 26 -16 8 -39 6 -85 -5 -34
-9 -64 -14 -66 -12 -5 5 80 125 89 125 4 0 21 -11 37 -25 36 -30 62 -32 62 -5
0 21 -27 40 -60 40 -11 0 -23 8 -27 18 -18 49 -63 70 -63 27z"/>
  <path d="M403 258 c-6 -7 -16 -23 -22 -36 l-12 -23 40 23 c23 13 39 28 38 33
-5 15 -33 17 -44 3z"/>
  <path d="M190 239 c0 -21 33 -59 51 -59 24 0 25 22 2 42 -24 20 -53 30 -53 17z"/>
</g>
<g id="part-2" class="char-part">
  <path d="M625 438 c0 -149 6 -178 32 -146 6 7 13 75 15 150 4 112 2 138 -10
143 -35 13 -37 7 -37 -147z"/>
  <path d="M505 408 c-9 -24 -24 -51 -32 -61 -9 -9 -14 -19 -11 -22 8 -8 69 37
92 68 21 28 21 29 2 43 -29 20 -32 18 -51 -28z"/>
  <path d="M740 445 c0 -3 19 -26 41 -50 48 -52 82 -60 77 -18 -2 20 -14 34 -43
50 -37 21 -75 30 -75 18z"/>
</g>
<g id="part-3" class="char-part">
  <path d="M722 302 c-19 -61 -169 -194 -290 -256 -19 -10 -31 -20 -28 -23 3 -4
48 14 99 40 95 47 225 148 268 208 l22 32 -22 18 c-32 26 -36 24 -49 -19z"/>
</g>
</g>
</svg>