<?xml version="1.0" standalone="no"?>
<!DOCTYPE svg PUBLIC "-//W3C//DTD SVG 20010904//EN"
 "http://www.w3.org/TR/2001/REC-SVG-20010904/DTD/svg10.dtd">
<svg version="1.0" xmlns="http://www.w3.org/2000/svg"
 width="96.000000pt" height="68.000000pt" viewBox="0 0 96.000000 68.000000"
 preserveAspectRatio="xMidYMid meet">
<metadata>
Created by potrace 1.16, written by Peter Selinger 2001-2019
Combined from part_0.svg through part_5.svg with named groups
</metadata>
<g transform="translate(0.000000,68.000000) scale(0.100000,-0.100000)" fill="#000000" stroke="none">
<g id="part-0" class="char-part">
  <path d="M246 556 c7 -49 4 -51 -69 -58 -49 -5 -29 -23 29 -26 46 -3 55 -6 52
-20 -2 -13 -15 -18 -51 -20 -33 -2 -47 -7 -47 -18 0 -10 13 -14 50 -14 43 0
50 -3 50 -20 0 -21 -9 -24 -94 -35 -35 -5 -45 -10 -37 -18 8 -8 32 -7 88 1 43
7 101 12 128 12 62 0 92 15 52 25 -15 4 -43 5 -62 3 -31 -4 -36 -2 -33 16 2
14 15 24 40 31 49 13 52 29 6 33 -55 5 -50 29 7 38 28 4 45 11 45 20 0 10 -13
14 -45 14 -44 0 -45 0 -45 34 0 35 -13 46 -51 46 -16 0 -18 -5 -13 -44z"/>
  <path d="M560 574 c-19 -14 -53 -34 -75 -45 -26 -12 -33 -19 -20 -19 21 0 185
46 193 54 8 9 -26 36 -45 36 -10 -1 -34 -12 -53 -26z"/>
  <path d="M656 502 c-4 -11 -15 -30 -26 -42 -31 -36 -16 -36 40 0 51 33 54 42
13 54 -16 5 -23 2 -27 -12z"/>
  <path d="M537 460 c19 -33 43 -40 43 -12 0 23 -19 42 -43 42 -17 0 -17 -1 0
-30z"/>
  <path d="M434 458 c3 -7 9 -21 12 -30 4 -10 12 -18 19 -18 20 0 26 28 9 45
-19 18 -48 20 -40 3z"/>
  <path d="M590 399 c-25 -4 -71 -11 -103 -14 -31 -4 -55 -11 -52 -16 4 -5 30
-6 58 -3 50 6 53 5 53 -17 0 -32 -12 -39 -71 -39 -27 0 -57 -5 -65 -10 -10 -7
9 -10 63 -10 74 0 77 -1 77 -24 0 -25 -21 -36 -72 -36 -16 0 -28 -5 -28 -11 0
-7 18 -10 50 -7 l51 3 -3 -70 -3 -70 -38 1 -38 1 27 -28 c15 -16 36 -29 47
-29 37 0 47 24 47 114 l0 86 30 1 c17 1 35 3 40 4 6 1 19 3 30 4 12 1 17 6 14
14 -3 8 0 26 5 40 9 24 15 27 61 27 49 0 66 12 34 24 -9 3 -29 6 -45 6 -26 0
-29 3 -24 20 15 47 -35 60 -145 39z m88 -41 c2 -19 -1 -28 -11 -28 -8 0 -28
-3 -44 -6 -28 -5 -31 -3 -35 25 -4 26 -1 31 21 34 52 9 66 3 69 -25z m-8 -67
c0 -27 -14 -40 -48 -47 -30 -6 -32 -5 -32 24 0 31 6 35 57 38 15 1 23 -4 23
-15z"/>
  <path d="M248 303 l-58 -4 0 -66 c0 -36 -5 -83 -11 -103 -7 -21 -8 -51 -4 -67
6 -26 7 -27 20 -9 8 10 17 37 20 60 l7 41 56 0 c55 0 57 -1 60 -28 4 -35 -13
-57 -38 -50 -26 7 -25 -1 2 -32 47 -54 65 -21 69 126 2 63 0 120 -4 127 -5 6
-20 11 -35 10 -15 -1 -53 -3 -84 -5z m82 -34 c7 -11 10 -22 8 -24 -2 -1 -29
-6 -60 -9 -57 -7 -58 -7 -58 18 0 21 5 25 38 29 20 2 42 4 49 5 7 1 17 -7 23
-19z m10 -69 c0 -11 -6 -20 -14 -20 -7 0 -34 -3 -60 -6 -42 -6 -46 -5 -46 14
0 22 17 28 83 31 31 1 37 -2 37 -19z"/>
</g>
<g id="part-1" class="char-part">
  <path d="M255 555 c6 -51 7 -50 -70 -60 -40 -6 -46 -9 -31 -17 10 -6 38 -8 62
-4 41 5 44 4 44 -18 0 -21 -6 -24 -52 -32 l-53 -8 53 -4 c48 -3 52 -5 52 -28
0 -17 5 -24 20 -24 15 0 20 7 20 25 0 26 3 29 54 40 37 8 26 19 -19 17 -28 -1
-35 2 -35 18 0 13 9 21 25 25 84 17 81 16 62 26 -10 6 -32 9 -50 7 -30 -3 -32
-2 -29 29 3 31 -8 45 -41 50 -15 3 -16 -3 -12 -42z"/>
</g>
<g id="part-2" class="char-part">
  <path d="M310 309 c-14 -4 -48 -7 -76 -8 l-52 -1 6 -46 c2 -25 -1 -77 -8 -114
-14 -75 -9 -110 14 -91 8 6 17 32 21 56 5 38 10 45 29 45 13 0 37 3 53 6 27 5
31 3 37 -20 10 -41 -9 -68 -42 -60 l-27 7 29 -32 c57 -60 76 -33 76 104 0 53
4 105 10 115 16 29 -26 52 -70 39z m22 -25 c3 -3 4 -13 1 -23 -3 -14 -18 -20
-55 -25 -28 -4 -52 -5 -55 -2 -13 12 11 45 35 49 45 7 68 7 74 1z m8 -84 c0
-11 -6 -20 -14 -20 -7 0 -34 -3 -60 -6 -42 -6 -46 -5 -46 14 0 22 17 28 83 31
31 1 37 -2 37 -19z"/>
</g>
<g id="part-3" class="char-part">
  <path d="M562 577 c-17 -13 -49 -32 -71 -42 -71 -32 -34 -34 66 -4 53 16 99
31 101 34 10 9 -21 35 -42 35 -12 0 -36 -11 -54 -23z"/>
  <path d="M653 503 c-3 -10 -17 -33 -31 -52 l-25 -33 24 13 c54 28 99 63 92 69
-4 4 -18 11 -31 15 -16 5 -24 2 -29 -12z"/>
  <path d="M520 485 c0 -15 34 -55 46 -55 17 0 18 32 2 48 -12 12 -48 17 -48 7z"/>
  <path d="M429 452 c20 -38 61 -53 61 -22 0 16 -31 40 -51 40 -16 0 -18 -3 -10
-18z"/>
</g>
<g id="part-4" class="char-part">
  <path d="M600 400 c-19 -5 -66 -12 -104 -15 -46 -5 -64 -10 -54 -16 8 -5 58
-1 117 8 68 10 106 12 112 6 11 -11 3 -101 -11 -123 -4 -6 -52 -16 -113 -23
-130 -13 -133 -32 -3 -22 50 4 100 9 111 10 11 1 27 3 37 4 10 1 15 7 12 19
-3 9 4 44 16 77 19 56 20 61 3 72 -19 14 -69 15 -123 3z"/>
</g>
<g id="part-5" class="char-part">
  <path d="M553 325 c-1 -29 3 -45 10 -45 7 0 6 -4 -2 -9 -12 -8 -12 -12 -2 -25
8 -9 9 -16 4 -16 -5 0 -9 -34 -8 -76 0 -42 -3 -78 -8 -81 -4 -2 -5 -14 -1 -26
6 -21 6 -21 -13 2 -14 17 -22 21 -27 13 -4 -7 -1 -12 8 -12 9 0 15 -5 13 -11
-3 -18 19 -21 36 -5 19 20 24 176 5 176 -9 0 -10 3 -2 8 17 11 25 107 11 122
-9 10 -9 11 2 5 9 -5 12 -3 9 6 -3 8 -11 15 -19 17 -10 2 -14 -10 -16 -43z"/>
  <path d="M713 333 c-19 -7 -16 -19 6 -20 14 -1 18 3 14 13 -3 8 -6 14 -7 13 0
0 -7 -3 -13 -6z"/>
  <path d="M760 325 c14 -17 36 -20 45 -5 3 5 0 7 -8 4 -8 -3 -18 -1 -22 5 -3 6
-11 11 -17 11 -7 0 -6 -6 2 -15z"/>
  <path d="M670 320 c0 -5 5 -10 11 -10 5 0 7 5 4 10 -3 6 -8 10 -11 10 -2 0 -4
-4 -4 -10z"/>
  <path d="M608 313 c6 -2 18 -2 25 0 6 3 1 5 -13 5 -14 0 -19 -2 -12 -5z"/>
  <path d="M477 299 c7 -7 15 -10 18 -7 3 3 -2 9 -12 12 -14 6 -15 5 -6 -5z"/>
  <path d="M518 303 c7 -3 16 -2 19 1 4 3 -2 6 -13 5 -11 0 -14 -3 -6 -6z"/>
</g>
</g>
</svg>