<?xml version="1.0" standalone="no"?>
<!DOCTYPE svg PUBLIC "-//W3C//DTD SVG 20010904//EN"
 "http://www.w3.org/TR/2001/REC-SVG-20010904/DTD/svg10.dtd">
<svg version="1.0" xmlns="http://www.w3.org/2000/svg"
 width="96.000000pt" height="68.000000pt" viewBox="0 0 96.000000 68.000000"
 preserveAspectRatio="xMidYMid meet">
<metadata>
Created by potrace 1.16, written by Peter Selinger 2001-2019
Combined from part_0.svg through part_5.svg with named groups
</metadata>
<g transform="translate(0.000000,68.000000) scale(0.100000,-0.100000)" fill="#000000" stroke="none">
<g id="part-0" class="char-part">
  <path d="M548 578 c-3 -41 -5 -43 -38 -46 -19 -2 -39 -8 -45 -13 -14 -14 15
-30 43 -24 25 6 27 0 7 -35 -18 -32 -18 -40 -2 -40 8 0 26 17 40 38 25 35 32
38 100 47 39 6 71 15 70 20 -2 6 -28 11 -58 13 -57 3 -61 6 -45 32 12 19 -16
50 -46 50 -20 0 -23 -6 -26 -42z"/>
  <path d="M254 586 c-3 -8 2 -25 10 -38 9 -14 13 -28 9 -31 -3 -4 -33 -7 -65
-7 -63 0 -72 -10 -33 -36 19 -12 36 -15 70 -10 42 7 46 5 55 -18 14 -39 40
-34 40 8 0 31 3 34 35 40 46 9 45 24 -2 28 -32 2 -39 7 -41 28 -4 31 -10 36
-45 44 -19 5 -29 2 -33 -8z"/>
  <path d="M584 421 c-17 -4 -36 -11 -43 -16 -7 -4 -30 -7 -52 -7 -21 1 -39 -4
-39 -10 0 -10 36 -8 112 7 32 6 38 -1 31 -37 -6 -29 -30 -41 -110 -53 -62 -10
-53 -26 10 -21 125 10 145 16 145 43 0 13 5 35 12 48 11 20 11 27 0 40 -13 16
-19 17 -66 6z"/>
  <path d="M307 388 c-7 -5 -39 -8 -72 -6 -59 1 -60 1 -55 -23 9 -44 3 -203 -9
-256 -10 -39 -10 -57 -1 -73 18 -33 35 -18 38 33 l3 46 70 7 c89 9 93 29 4 22
l-65 -6 0 29 c0 27 3 29 43 30 23 1 56 5 72 9 52 12 0 25 -57 13 -54 -11 -58
-9 -58 22 0 19 7 23 53 29 83 11 99 17 92 33 -3 9 4 30 15 48 17 27 18 34 7
44 -15 12 -61 11 -80 -1z m11 -84 c-7 -7 -32 -16 -55 -20 l-43 -7 0 42 c0 22
1 41 3 42 1 0 22 3 47 6 25 3 47 7 50 10 3 3 6 -10 8 -27 2 -18 -2 -39 -10
-46z"/>
  <path d="M545 253 c-22 -8 -64 -15 -92 -16 -29 -1 -53 -5 -53 -9 0 -5 4 -8 9
-8 15 0 102 -91 98 -103 -6 -19 -53 -48 -108 -68 l-54 -19 43 4 c24 2 67 16
96 30 29 14 57 26 61 26 4 0 28 -19 53 -41 l44 -41 75 4 c86 6 114 22 56 32
-51 10 -115 32 -163 56 l-39 20 45 64 c43 62 44 65 25 75 -25 14 -46 12 -96
-6z m20 -66 c-19 -45 -32 -46 -70 -7 -30 32 -31 31 35 48 46 12 54 3 35 -41z"/>
</g>
<g id="part-1" class="char-part">
  <path d="M557 579 c-6 -48 -18 -59 -67 -59 -26 0 -31 -3 -20 -10 8 -5 26 -10
39 -10 18 0 22 -4 18 -17 -19 -61 -20 -66 -8 -59 6 4 23 25 37 47 l24 39 70 0
c39 0 70 4 70 9 0 14 -27 21 -76 21 -43 0 -44 0 -32 26 11 22 10 28 -7 40 -31
23 -42 16 -48 -27z"/>
  <path d="M264 568 c4 -13 10 -31 13 -40 5 -16 -2 -18 -56 -18 -66 0 -76 -10
-36 -36 20 -13 31 -14 56 -5 47 16 53 14 66 -19 15 -41 33 -38 33 5 0 31 3 36
30 42 46 9 46 23 1 23 -36 0 -41 3 -41 23 0 30 -18 47 -48 47 -21 0 -23 -3
-18 -22z"/>
</g>
<g id="part-2" class="char-part">
  <path d="M300 388 c-14 -5 -49 -7 -79 -5 -51 6 -53 5 -47 -16 4 -12 9 -43 13
-69 3 -27 6 -48 7 -48 1 0 39 7 86 15 47 8 86 15 88 15 2 0 0 4 -3 10 -3 5 4
28 16 51 17 34 18 43 7 50 -17 11 -57 10 -88 -3z m32 -48 c-5 -38 -21 -50 -68
-53 -38 -2 -39 -1 -42 35 -3 40 3 44 79 47 34 1 35 0 31 -29z"/>
</g>
<g id="part-3" class="char-part">
  <path d="M198 182 c-12 -2 -18 -13 -18 -30 0 -15 -5 -44 -11 -65 -12 -45 -4
-79 19 -75 12 2 19 17 22 48 l5 45 68 11 c70 11 97 23 56 25 -36 2 -82 -2
-101 -7 -12 -4 -17 2 -20 23 -2 21 -8 28 -20 25z"/>
</g>
<g id="part-4" class="char-part">
  <path d="M525 248 c-38 -10 -82 -16 -97 -14 -35 7 -36 -6 -2 -24 14 -8 39 -32
56 -53 29 -36 30 -39 13 -57 -10 -11 -44 -30 -77 -41 -32 -12 -58 -24 -58 -27
0 -11 73 8 130 34 l60 27 46 -43 46 -43 76 6 c87 7 112 21 55 32 -53 9 -151
43 -178 61 l-23 15 39 58 c43 65 46 76 23 85 -20 8 -25 7 -109 -16z m40 -62
c-21 -44 -33 -45 -70 -6 -30 32 -31 31 35 48 47 12 55 1 35 -42z"/>
</g>
</g>
</svg>