<?xml version="1.0" standalone="no"?>
<!DOCTYPE svg PUBLIC "-//W3C//DTD SVG 20010904//EN"
 "http://www.w3.org/TR/2001/REC-SVG-20010904/DTD/svg10.dtd">
<svg version="1.0" xmlns="http://www.w3.org/2000/svg"
 width="96.000000pt" height="68.000000pt" viewBox="0 0 96.000000 68.000000"
 preserveAspectRatio="xMidYMid meet">
<metadata>
Created by potrace 1.16, written by Peter Selinger 2001-2019
Combined from part_0.svg through part_5.svg with named groups
</metadata>
<g transform="translate(0.000000,68.000000) scale(0.100000,-0.100000)" fill="#000000" stroke="none">
<g id="part-0" class="char-part">
  <path d="M260 554 c-7 -20 -34 -59 -61 -87 -71 -73 -63 -98 25 -79 40 8 43 8
34 -7 -5 -9 -30 -32 -54 -51 -24 -19 -44 -38 -44 -42 0 -17 41 -17 81 0 67 29
99 34 115 21 12 -10 18 -9 27 0 9 10 6 18 -16 37 -32 27 -68 35 -47 9 13 -15
-3 -25 -65 -41 -43 -11 -41 -8 100 118 34 31 37 38 26 52 -20 23 -29 20 -52
-18 -15 -27 -28 -35 -61 -40 -22 -4 -42 -5 -44 -3 -2 2 23 32 56 67 33 35 60
65 60 66 0 1 -7 10 -16 18 -27 27 -51 20 -64 -20z"/>
  <path d="M599 561 c-14 -5 -55 -11 -92 -15 -37 -4 -67 -12 -67 -18 0 -11 70
-7 153 8 45 8 47 -2 10 -46 -21 -26 -31 -31 -55 -26 -35 7 -35 0 -1 -36 14
-15 23 -31 19 -35 -4 -5 -43 -10 -87 -12 -43 -1 -79 -7 -79 -11 0 -16 37 -20
90 -10 29 6 56 7 59 4 3 -3 6 -58 6 -122 l0 -117 -37 2 c-45 3 -47 -4 -8 -34
42 -34 54 -36 74 -14 16 18 18 39 18 159 l-1 140 47 5 c58 6 68 1 46 -24 -9
-11 -15 -21 -13 -23 10 -10 119 17 119 29 0 26 -67 47 -128 39 -31 -4 -59 -7
-61 -8 -2 -1 -5 14 -6 32 -3 30 1 35 56 65 32 17 59 37 59 44 0 12 -52 34 -79
32 -9 0 -28 -4 -42 -8z"/>
  <path d="M326 268 c15 -27 38 -48 51 -48 19 0 16 23 -7 43 -24 20 -55 23 -44
5z"/>
  <path d="M256 215 c29 -38 39 -43 47 -20 7 16 -36 55 -60 55 -10 0 -6 -11 13
-35z"/>
  <path d="M140 213 c0 -22 42 -73 60 -73 27 0 26 31 -3 58 -22 21 -57 30 -57
15z"/>
</g>
<g id="part-1" class="char-part">
  <path d="M255 534 c-14 -29 -44 -69 -66 -87 -27 -24 -37 -39 -33 -51 7 -19 14
-19 76 -3 64 17 70 27 17 27 l-43 0 63 64 c65 65 72 88 32 99 -16 4 -25 -5
-46 -49z"/>
</g>
<g id="part-2" class="char-part">
  <path d="M320 272 c0 -12 44 -52 58 -52 18 0 14 25 -6 43 -19 18 -52 23 -52 9z"/>
  <path d="M250 220 c26 -37 39 -45 51 -33 14 14 1 39 -27 52 -40 18 -47 13 -24
-19z"/>
  <path d="M140 205 c0 -22 55 -79 68 -71 18 11 14 44 -8 66 -23 23 -60 27 -60
5z"/>
</g>
<g id="part-3" class="char-part">
  <path d="M602 563 c-7 -3 -50 -11 -95 -18 -60 -9 -77 -14 -63 -20 11 -5 55 -3
100 3 44 7 81 10 84 8 2 -3 -8 -20 -22 -39 -14 -18 -23 -36 -20 -39 8 -8 133
65 134 78 0 24 -80 42 -118 27z"/>
</g>
<g id="part-4" class="char-part">
  <path d="M535 437 c36 -42 55 -52 67 -35 20 32 3 49 -62 63 l-34 8 29 -36z"/>
</g>
<g id="part-5" class="char-part">
  <path d="M568 363 c-14 -3 -16 -9 -9 -22 5 -9 8 -59 6 -111 -2 -63 0 -100 8
-110 10 -12 9 -13 -3 -4 -8 7 -24 8 -35 4 -11 -4 -27 -5 -35 -2 -8 3 -4 -4 10
-15 25 -21 55 -20 43 1 -3 6 0 5 8 -2 12 -11 12 -14 -1 -23 -13 -9 -13 -10 0
-6 8 2 21 14 27 28 15 29 17 155 3 164 -5 3 -10 14 -10 23 0 15 2 15 10 2 8
-13 10 -13 10 2 0 9 -4 20 -10 23 -5 3 -10 13 -10 21 0 8 5 12 10 9 6 -3 10
-2 10 4 0 13 -12 18 -32 14z m19 -165 c-3 -7 -5 -2 -5 12 0 14 2 19 5 13 2 -7
2 -19 0 -25z m-10 -50 c-3 -8 -6 -5 -6 6 -1 11 2 17 5 13 3 -3 4 -12 1 -19z"/>
</g>
</g>
</svg>