<?xml version="1.0" standalone="no"?>
<!DOCTYPE svg PUBLIC "-//W3C//DTD SVG 20010904//EN"
 "http://www.w3.org/TR/2001/REC-SVG-20010904/DTD/svg10.dtd">
<svg version="1.0" xmlns="http://www.w3.org/2000/svg"
 width="96.000000pt" height="68.000000pt" viewBox="0 0 96.000000 68.000000"
 preserveAspectRatio="xMidYMid meet">
<metadata>
Created by potrace 1.16, written by Peter Selinger 2001-2019
Combined from part_0.svg through part_5.svg with named groups
</metadata>
<g transform="translate(0.000000,68.000000) scale(0.100000,-0.100000)" fill="#000000" stroke="none">
<g id="part-0" class="char-part">
  <path d="M560 550 c-14 -4 -46 -8 -73 -9 -44 -1 -47 -3 -42 -23 3 -13 6 -66 8
-118 l2 -95 -43 -3 c-45 -3 -49 -22 -5 -22 l26 0 -6 -115 c-3 -67 -1 -117 4
-121 10 -6 128 75 129 88 0 4 -16 0 -35 -8 -20 -8 -40 -12 -45 -9 -11 7 -13
96 -4 143 6 29 9 31 68 37 33 4 102 10 153 14 77 5 91 8 83 21 -8 12 -24 12
-122 1 -166 -20 -162 -20 -166 11 -3 26 -2 26 87 38 103 15 128 37 29 26 -112
-13 -113 -13 -116 12 -3 17 2 22 19 22 12 0 50 5 85 12 81 15 86 34 7 23 -103
-14 -108 -13 -108 15 0 27 10 30 138 45 26 4 47 10 47 16 0 11 -84 10 -120 -1z"/>
  <path d="M286 538 c-11 -6 -44 -10 -75 -10 l-56 1 0 -167 c0 -164 0 -168 -27
-214 -37 -62 -35 -79 3 -42 34 31 68 97 69 130 0 17 5 20 28 16 19 -2 33 3 46
17 11 12 23 21 29 21 10 0 6 -154 -5 -165 -4 -4 -21 -3 -37 3 -42 15 -39 1 9
-42 33 -30 44 -35 60 -26 10 5 21 18 24 27 2 10 6 114 8 231 3 181 1 214 -12
222 -20 13 -41 12 -64 -2z m24 -83 l0 -43 -39 12 c-50 14 -55 19 -47 50 4 17
14 26 34 28 44 6 52 -1 52 -47z m-10 -90 c5 3 10 -2 10 -12 0 -20 -28 -41 -72
-54 -27 -7 -28 -7 -28 31 0 66 7 74 46 49 18 -11 38 -18 44 -14z"/>
  <path d="M651 244 l-34 -33 -29 24 c-16 14 -39 25 -50 25 -17 0 -14 -5 16 -29
21 -17 51 -47 67 -68 49 -62 107 -113 127 -113 33 0 82 12 82 20 0 4 -23 17
-51 29 -53 21 -149 87 -149 101 0 7 19 16 84 40 23 9 26 13 16 25 -18 22 -41
16 -79 -21z"/>
</g>
<g id="part-1" class="char-part">
  <path d="M270 529 c-14 -6 -43 -8 -65 -5 l-40 5 3 -109 c5 -131 -10 -230 -44
-287 -27 -46 -20 -57 13 -20 26 28 49 73 58 115 5 27 10 32 26 27 13 -5 32 2
55 20 l35 27 -3 -89 -3 -88 -39 2 -40 3 38 -35 c45 -41 60 -43 80 -12 22 33
26 434 5 448 -18 11 -47 10 -79 -2z m40 -69 c0 -50 0 -50 -27 -44 -55 13 -73
24 -73 41 0 35 21 49 78 52 20 1 22 -3 22 -49z m-63 -70 c14 -11 34 -20 44
-20 13 0 19 -7 19 -22 0 -18 -10 -27 -43 -41 -23 -9 -46 -17 -50 -17 -4 0 -7
27 -7 60 0 33 3 60 6 60 3 0 17 -9 31 -20z"/>
</g>
<g id="part-2" class="char-part">
  <path d="M570 553 c-36 -6 -80 -12 -98 -13 -27 0 -32 -3 -28 -17 2 -10 7 -62
11 -115 5 -74 10 -98 21 -98 9 0 14 11 14 28 0 28 1 29 85 41 102 16 131 38
34 27 -112 -13 -114 -13 -117 10 -3 19 5 22 83 33 47 7 88 17 91 22 7 12 -60
11 -115 -2 -34 -8 -46 -7 -52 3 -22 33 0 46 99 59 87 11 109 22 60 31 -13 2
-52 -2 -88 -9z"/>
</g>
<g id="part-3" class="char-part">
  <path d="M527 317 c-108 -14 -154 -24 -147 -31 7 -7 41 -6 108 2 53 7 143 16
200 19 97 6 122 13 86 27 -23 9 -72 6 -247 -17z"/>
</g>
<g id="part-4" class="char-part">
  <path d="M428 205 c2 -42 -1 -89 -7 -105 -8 -24 -7 -33 6 -45 9 -10 20 -12 27
-7 23 17 111 86 121 95 6 4 -10 -1 -35 -12 -72 -33 -72 -32 -69 62 4 81 3 82
-21 85 -25 3 -25 3 -22 -73z"/>
  <path d="M652 244 c-39 -40 -33 -42 37 -13 41 18 49 24 40 35 -17 21 -41 14
-77 -22z"/>
  <path d="M545 238 c15 -11 48 -44 74 -72 111 -121 106 -118 153 -111 24 4 47
10 51 14 4 4 -21 20 -55 35 -38 16 -93 53 -137 91 -41 36 -83 65 -94 65 -17 0
-16 -3 8 -22z"/>
</g>
</g>
</svg>