<?xml version="1.0" standalone="no"?>
<!DOCTYPE svg PUBLIC "-//W3C//DTD SVG 20010904//EN"
 "http://www.w3.org/TR/2001/REC-SVG-20010904/DTD/svg10.dtd">
<svg version="1.0" xmlns="http://www.w3.org/2000/svg"
 width="96.000000pt" height="68.000000pt" viewBox="0 0 96.000000 68.000000"
 preserveAspectRatio="xMidYMid meet">
<metadata>
Created by potrace 1.16, written by Peter Selinger 2001-2019
Combined from part_0.svg through part_5.svg with named groups
</metadata>
<g transform="translate(0.000000,68.000000) scale(0.100000,-0.100000)" fill="#000000" stroke="none">
<g id="part-0" class="char-part">
  <path d="M287 572 c-3 -15 -33 -55 -69 -91 -57 -58 -60 -63 -34 -57 52 13 176
111 176 139 0 13 -39 37 -59 37 -5 0 -11 -12 -14 -28z"/>
  <path d="M680 520 c-19 -5 -55 -13 -80 -18 -80 -16 -16 -27 79 -13 93 13 103
17 81 31 -17 11 -32 11 -80 0z"/>
  <path d="M420 505 c0 -11 63 -65 78 -65 16 0 15 35 -1 49 -17 13 -77 26 -77
16z"/>
  <path d="M294 418 c-23 -45 -73 -92 -141 -130 -74 -42 -50 -49 31 -9 35 17 67
31 71 31 11 0 -1 -144 -14 -169 -14 -25 -4 -71 15 -71 21 0 31 34 39 134 5 62
4 94 -5 111 -11 20 -8 26 32 64 41 40 42 42 24 56 -28 21 -33 19 -52 -17z"/>
  <path d="M690 409 c-19 -4 -68 -13 -109 -20 -57 -9 -70 -14 -57 -21 9 -5 43
-8 74 -6 56 3 57 3 63 -27 13 -59 10 -212 -4 -224 -8 -6 -16 -9 -18 -7 -2 2
-17 6 -34 10 l-30 7 40 -40 c48 -48 69 -51 90 -11 12 24 14 51 9 143 -4 63 -4
126 0 141 6 24 10 26 66 26 58 0 85 14 59 31 -17 11 -102 10 -149 -2z"/>
  <path d="M391 383 c33 -44 69 -57 69 -25 0 19 -37 42 -67 42 -13 0 -13 -3 -2
-17z"/>
  <path d="M463 278 c-23 -24 -55 -51 -73 -60 -34 -19 -37 -43 -7 -62 14 -9 20
-7 28 6 5 9 16 24 24 32 8 8 15 17 15 20 0 3 14 26 32 51 17 24 29 47 26 50
-2 3 -23 -14 -45 -37z"/>
</g>
<g id="part-1" class="char-part">
  <path d="M291 565 c-6 -18 -36 -56 -66 -84 -29 -28 -48 -51 -41 -51 16 0 92
49 141 92 33 30 38 38 27 51 -25 30 -48 27 -61 -8z"/>
</g>
<g id="part-2" class="char-part">
  <path d="M300 431 c0 -27 -79 -103 -147 -142 -74 -43 -51 -49 33 -10 37 17 68
31 70 31 11 0 2 -115 -12 -156 -12 -36 -13 -53 -5 -71 13 -29 29 -30 40 0 16
41 25 234 11 242 -8 5 1 21 31 51 36 36 40 45 29 59 -18 22 -50 19 -50 -4z"/>
</g>
<g id="part-3" class="char-part">
  <path d="M430 491 c12 -23 49 -51 67 -51 7 0 13 11 13 23 0 25 -33 47 -71 47
-16 0 -18 -3 -9 -19z"/>
  <path d="M400 370 c25 -35 60 -41 60 -10 0 20 -33 40 -66 40 -12 0 -11 -6 6
-30z"/>
  <path d="M454 272 c-28 -26 -62 -54 -74 -62 -17 -12 -21 -22 -16 -37 13 -42
34 -34 80 32 83 119 86 136 10 67z"/>
</g>
<g id="part-4" class="char-part">
  <path d="M695 521 c-11 -5 -47 -12 -80 -16 -52 -6 -57 -9 -37 -18 25 -11 192
9 192 23 0 18 -42 24 -75 11z"/>
</g>
<g id="part-5" class="char-part">
  <path d="M665 361 c-3 -6 -2 -11 2 -11 11 0 11 -230 1 -246 -4 -6 -20 -9 -35
-6 -25 5 -27 4 -14 -11 7 -9 17 -14 22 -11 5 3 9 2 8 -3 -3 -20 2 -27 11 -13
8 13 10 12 10 -3 0 -10 5 -15 11 -12 6 4 8 13 5 21 -3 8 0 13 6 11 6 -1 13 4
16 12 3 10 0 12 -12 8 -9 -4 -16 -2 -16 2 0 5 6 11 13 13 8 3 12 36 14 111 1
62 -3 105 -8 101 -5 -3 -9 2 -9 11 0 9 5 13 11 9 7 -4 10 -1 7 7 -6 17 -34 24
-43 10z"/>
</g>
</g>
</svg>