<?xml version="1.0" standalone="no"?>
<!DOCTYPE svg PUBLIC "-//W3C//DTD SVG 20010904//EN"
 "http://www.w3.org/TR/2001/REC-SVG-20010904/DTD/svg10.dtd">
<svg version="1.0" xmlns="http://www.w3.org/2000/svg"
 width="96.000000pt" height="68.000000pt" viewBox="0 0 96.000000 68.000000"
 preserveAspectRatio="xMidYMid meet">
<metadata>
Created by potrace 1.16, written by Peter Selinger 2001-2019
Combined from part_0.svg through part_5.svg with named groups
</metadata>
<g transform="translate(0.000000,68.000000) scale(0.100000,-0.100000)" fill="#000000" stroke="none">
<g id="part-0" class="char-part">
  <path d="M520 568 c0 -22 -59 -139 -86 -171 -34 -41 -21 -48 19 -9 18 18 36
32 40 32 14 0 67 -44 67 -55 0 -13 -51 -62 -99 -95 -19 -13 -30 -25 -25 -27
20 -7 80 26 114 61 19 20 37 36 40 36 3 0 30 -22 60 -50 54 -50 55 -50 122
-50 38 0 68 4 68 8 0 5 -26 16 -57 26 -61 20 -163 73 -163 85 0 5 14 27 30 49
17 23 30 45 30 48 0 3 10 14 22 23 l22 18 -28 18 c-23 15 -33 16 -65 6 -60
-17 -72 -15 -65 13 4 18 1 27 -14 35 -26 14 -32 14 -32 -1z m120 -86 c0 -19
-46 -92 -58 -92 -17 0 -72 41 -72 54 0 20 26 38 68 47 58 11 62 10 62 -9z"/>
  <path d="M290 545 c-36 -7 -83 -10 -104 -7 -36 5 -39 3 -30 -14 5 -10 9 -71 9
-134 l0 -115 25 1 c14 1 54 6 89 12 35 6 68 9 72 6 12 -7 11 -91 -1 -133 -12
-42 -25 -51 -65 -44 l-30 5 32 -32 c52 -54 85 -22 107 104 7 42 16 79 19 83 9
8 -12 45 -23 38 -5 -3 -12 0 -15 6 -4 6 -18 8 -31 5 -20 -5 -24 -3 -24 18 0
19 7 25 38 31 l37 8 -38 10 c-48 12 -46 35 3 53 38 14 38 15 -3 18 -31 1 -33
3 -25 34 5 17 13 22 36 22 35 0 52 18 31 31 -17 10 -24 10 -109 -6z m-6 -67
c-8 -28 -3 -24 -36 -32 -26 -6 -28 -4 -28 24 0 28 3 30 36 30 32 0 35 -2 28
-22z m-4 -73 c0 -21 -5 -25 -30 -25 -25 0 -30 4 -30 25 0 21 5 25 30 25 25 0
30 -4 30 -25z m1 -67 c-6 -16 -18 -24 -40 -26 -27 -3 -31 0 -31 22 0 24 4 26
40 26 37 0 39 -2 31 -22z"/>
  <path d="M280 252 c0 -14 39 -46 47 -38 4 4 2 15 -3 24 -12 19 -44 29 -44 14z"/>
  <path d="M216 232 c6 -4 13 -15 17 -24 7 -19 37 -25 37 -9 0 16 -30 41 -48 41
-10 0 -13 -3 -6 -8z"/>
  <path d="M610 229 c-25 -4 -73 -8 -106 -9 l-61 -2 12 -27 c7 -14 16 -44 20
-66 8 -50 22 -75 33 -58 4 7 40 13 90 15 74 3 83 5 78 20 -2 10 0 18 5 18 5 0
9 5 9 11 0 6 11 25 25 43 l25 32 -36 17 c-19 9 -38 16 -42 16 -4 -1 -27 -5
-52 -10z m40 -59 c-11 -59 -24 -70 -85 -70 -51 0 -53 1 -59 31 -14 71 -11 73
105 77 l46 2 -7 -40z"/>
  <path d="M90 211 c-15 -29 -13 -81 4 -81 15 0 26 30 26 73 0 31 -15 36 -30 8z"/>
  <path d="M161 200 c11 -31 29 -41 29 -16 0 25 -12 46 -26 46 -10 0 -11 -6 -3
-30z"/>
</g>
<g id="part-1" class="char-part">
  <path d="M295 539 c-22 -4 -61 -8 -86 -8 l-47 -1 10 -39 c7 -27 7 -66 -1 -122
-6 -46 -8 -86 -4 -90 5 -4 35 -1 68 6 33 8 75 15 93 15 17 0 32 5 32 11 0 7
-23 9 -75 4 l-76 -7 3 98 3 99 67 7 c91 9 129 18 122 29 -6 11 -53 10 -109 -2z"/>
</g>
<g id="part-2" class="char-part">
  <path d="M280 252 c0 -14 38 -44 50 -40 14 4 -17 48 -36 48 -8 0 -14 -4 -14
-8z"/>
  <path d="M88 198 c-16 -47 -14 -68 7 -68 16 0 25 22 25 65 0 50 -16 51 -32 3z"/>
  <path d="M226 215 c17 -27 44 -34 44 -12 0 19 -21 37 -42 37 -17 0 -17 -1 -2
-25z"/>
  <path d="M150 226 c0 -14 24 -56 32 -56 17 0 3 55 -14 58 -10 2 -18 1 -18 -2z"/>
</g>
<g id="part-3" class="char-part">
  <path d="M502 521 c-12 -32 -38 -80 -57 -107 -19 -26 -32 -50 -30 -52 15 -15
155 149 155 181 0 13 -27 37 -42 37 -2 0 -13 -26 -26 -59z"/>
</g>
<g id="part-4" class="char-part">
  <path d="M625 520 c-11 -5 -32 -9 -47 -9 -16 -1 -28 -6 -28 -12 0 -8 14 -10
45 -6 51 8 54 3 25 -53 -26 -52 -35 -55 -74 -31 -50 31 -56 25 -12 -12 l38
-33 -44 -39 c-24 -22 -59 -52 -78 -68 l-35 -27 40 15 c42 17 107 58 126 81 9
11 22 5 69 -36 57 -49 59 -50 124 -50 36 0 66 3 66 8 0 4 -30 18 -67 31 -75
26 -153 68 -153 82 0 15 31 61 67 100 27 28 31 38 21 47 -20 16 -61 22 -83 12z"/>
</g>
<g id="part-5" class="char-part">
  <path d="M650 220 c-8 -5 -10 -10 -4 -10 7 0 14 -9 17 -20 3 -11 2 -20 -3 -20
-4 0 -8 -6 -7 -12 1 -33 -5 -46 -25 -56 -14 -6 -17 -11 -8 -11 23 -1 35 10 73
65 33 48 34 51 16 62 -23 14 -39 15 -59 2z"/>
  <path d="M456 205 c4 -8 11 -15 16 -15 6 0 8 -7 4 -15 -3 -8 -2 -15 3 -15 4 0
6 -11 4 -24 -5 -27 21 -74 31 -57 4 5 -1 14 -10 19 -10 5 -12 12 -7 15 12 8
-6 88 -22 99 -16 12 -25 9 -19 -7z"/>
  <path d="M598 213 c6 -2 18 -2 25 0 6 3 1 5 -13 5 -14 0 -19 -2 -12 -5z"/>
  <path d="M518 203 c7 -3 16 -2 19 1 4 3 -2 6 -13 5 -11 0 -14 -3 -6 -6z"/>
</g>
</g>
</svg>