<?xml version="1.0" standalone="no"?>
<!DOCTYPE svg PUBLIC "-//W3C//DTD SVG 20010904//EN"
 "http://www.w3.org/TR/2001/REC-SVG-20010904/DTD/svg10.dtd">
<svg version="1.0" xmlns="http://www.w3.org/2000/svg"
 width="96.000000pt" height="68.000000pt" viewBox="0 0 96.000000 68.000000"
 preserveAspectRatio="xMidYMid meet">
<metadata>
Created by potrace 1.16, written by Peter Selinger 2001-2019
Combined from part_0.svg through part_5.svg with named groups
</metadata>
<g transform="translate(0.000000,68.000000) scale(0.100000,-0.100000)" fill="#000000" stroke="none">
<g id="part-0" class="char-part">
  <path d="M580 553 c0 -70 -12 -182 -19 -181 -3 1 -39 -1 -78 -6 -104 -10 -96
-31 8 -23 l82 7 -7 -38 c-3 -20 -6 -45 -6 -54 0 -15 -10 -18 -60 -18 l-60 0
16 -24 c8 -14 22 -48 29 -77 16 -61 30 -78 47 -61 7 7 39 12 73 12 81 0 137
10 132 24 -5 15 21 76 41 99 16 18 15 20 -8 39 -25 20 -61 21 -135 2 -22 -5
-25 -3 -25 19 0 13 3 38 6 55 l6 30 109 7 c60 4 111 11 114 15 3 4 -8 13 -24
20 -23 9 -46 9 -102 1 -39 -7 -76 -14 -80 -17 -12 -7 -11 57 1 131 10 64 9 69
-32 79 -28 6 -28 6 -28 -41z m118 -335 c2 -9 -2 -34 -7 -56 l-11 -39 -67 -7
c-37 -4 -70 -3 -75 2 -10 10 -31 92 -25 98 5 6 131 22 157 20 14 0 26 -8 28
-18z"/>
  <path d="M216 561 c-3 -4 -1 -23 4 -42 6 -19 10 -51 10 -71 0 -35 -2 -38 -37
-44 -23 -4 -38 -3 -40 3 -2 6 -13 9 -24 6 -11 -3 -18 -8 -17 -12 18 -33 29
-63 38 -99 11 -42 12 -43 45 -36 l35 6 0 -50 c0 -56 0 -56 -93 -64 -34 -4 -37
-19 -7 -35 24 -12 21 -12 123 32 21 9 50 19 64 21 15 3 31 8 36 11 4 3 17 -4
28 -16 26 -28 39 -27 39 3 0 17 -12 34 -35 52 -36 27 -58 27 -36 0 9 -11 6
-16 -20 -25 -48 -16 -50 -15 -47 32 l3 42 49 5 c48 5 48 5 51 43 1 20 9 45 18
55 10 10 17 24 17 31 0 19 -46 34 -82 27 -34 -6 -54 -5 -52 4 1 3 5 28 9 56 6
51 6 52 -26 63 -38 13 -46 14 -53 2z m124 -180 c0 -37 -19 -71 -40 -71 -17 0
-20 7 -20 39 0 39 8 49 43 50 10 1 17 -6 17 -18z m-110 -41 c0 -33 -4 -40 -19
-40 -12 0 -21 9 -25 24 -3 13 -9 31 -12 40 -5 13 1 16 25 16 30 0 31 -2 31
-40z"/>
</g>
<g id="part-1" class="char-part">
  <path d="M227 508 c14 -107 16 -103 -55 -103 -34 0 -62 -2 -62 -4 0 -3 6 -12
14 -20 8 -9 20 -38 28 -66 14 -49 14 -50 51 -47 l37 4 0 -46 c0 -33 4 -46 14
-46 11 0 16 14 18 47 l3 48 53 8 c42 7 52 12 48 24 -4 9 5 36 19 60 14 25 25
47 25 48 0 1 -13 8 -28 14 -23 10 -37 9 -70 -2 l-42 -15 0 27 c0 14 5 42 10
61 8 29 7 37 -7 48 -9 6 -27 12 -40 12 -23 0 -23 -2 -16 -52z m123 -114 c0 -4
-5 -24 -12 -45 -9 -31 -16 -39 -35 -39 -21 0 -23 4 -23 45 0 45 0 45 35 45 19
0 35 -3 35 -6z m-110 -54 c0 -22 -4 -40 -9 -40 -5 0 -16 -3 -24 -6 -10 -3 -18
5 -26 27 -18 51 -15 59 24 59 34 0 35 -1 35 -40z"/>
</g>
<g id="part-2" class="char-part">
  <path d="M361 200 c33 -54 59 -65 59 -26 0 17 -12 34 -33 50 -51 39 -60 31
-26 -24z"/>
</g>
<g id="part-3" class="char-part">
  <path d="M580 599 c-1 -90 -8 -211 -13 -215 -3 -3 -39 -11 -81 -16 -98 -14
-90 -33 11 -25 l73 5 -6 -49 c-6 -47 -6 -49 18 -49 23 0 26 5 31 51 4 29 8 53
10 55 1 2 51 6 110 10 59 4 110 10 112 14 3 4 -8 13 -24 20 -23 9 -47 9 -106
0 -42 -6 -79 -9 -83 -6 -3 4 -1 46 5 94 6 48 8 90 5 94 -8 7 -62 22 -62 17z"/>
</g>
<g id="part-4" class="char-part">
  <path d="M655 260 c-16 -6 -71 -13 -122 -17 l-92 -6 19 -24 c10 -14 22 -44 26
-68 7 -48 32 -89 40 -67 4 8 29 12 72 12 80 0 143 10 137 20 -6 10 23 80 43
103 14 16 14 19 0 33 -19 19 -83 26 -123 14z m41 -35 c7 -17 -2 -73 -14 -92
-4 -6 -39 -14 -78 -18 l-71 -7 -13 51 c-7 29 -10 54 -8 56 6 6 106 22 146 24
21 1 35 -4 38 -14z"/>
</g>
</g>
</svg>