<?xml version="1.0" standalone="no"?>
<!DOCTYPE svg PUBLIC "-//W3C//DTD SVG 20010904//EN"
 "http://www.w3.org/TR/2001/REC-SVG-20010904/DTD/svg10.dtd">
<svg version="1.0" xmlns="http://www.w3.org/2000/svg"
 width="96.000000pt" height="68.000000pt" viewBox="0 0 96.000000 68.000000"
 preserveAspectRatio="xMidYMid meet">
<metadata>
Created by potrace 1.16, written by Peter Selinger 2001-2019
Combined from part_0.svg through part_5.svg with named groups
</metadata>
<g transform="translate(0.000000,68.000000) scale(0.100000,-0.100000)" fill="#000000" stroke="none">
<g id="part-0" class="char-part">
  <path d="M249 453 c4 -177 -12 -241 -76 -314 -25 -27 -43 -52 -40 -55 20 -20
106 53 134 115 9 20 18 38 19 40 2 2 17 -13 34 -33 32 -36 53 -45 65 -26 13
21 -7 49 -49 70 -31 14 -43 26 -41 38 2 9 7 34 10 55 5 34 12 40 61 64 58 27
63 40 24 60 -22 11 -26 9 -47 -23 -13 -19 -26 -34 -30 -34 -3 0 -2 36 1 80 7
80 7 80 -19 90 -50 19 -50 19 -46 -127z"/>
  <path d="M695 519 c-48 -15 -151 -29 -216 -30 -52 -1 -59 -3 -54 -18 15 -36
15 -179 1 -261 -13 -72 -13 -87 -2 -99 32 -31 35 -15 50 262 2 43 6 81 9 83 9
9 160 33 208 34 34 0 49 -4 53 -16 8 -20 8 -292 0 -322 -6 -22 -38 -30 -49
-12 -3 6 -13 10 -22 10 -10 0 0 -16 29 -45 78 -80 98 -47 98 163 0 81 4 164 9
184 7 30 5 40 -8 52 -23 21 -69 27 -106 15z"/>
  <path d="M130 387 c0 -24 49 -77 71 -77 25 0 26 41 2 63 -27 24 -73 33 -73 14z"/>
  <path d="M620 380 c-14 -4 -44 -8 -68 -9 -37 -1 -42 -3 -33 -18 5 -10 12 -39
16 -66 7 -48 18 -66 30 -47 3 5 21 10 38 10 50 0 79 11 68 24 -7 8 -3 26 12
54 18 37 19 44 7 52 -17 11 -35 11 -70 0z m20 -59 c0 -41 -11 -51 -56 -51 -21
0 -24 4 -24 39 0 42 8 49 53 50 25 1 27 -2 27 -38z"/>
</g>
<g id="part-1" class="char-part">
  <path d="M255 443 c0 -174 -18 -242 -83 -314 -51 -57 -45 -62 18 -15 30 22 54
51 70 84 l25 52 35 -35 c41 -40 63 -45 58 -13 -2 15 -17 29 -46 43 l-43 20 6
45 c10 71 13 75 65 100 53 25 57 29 38 48 -19 19 -31 14 -57 -24 -23 -33 -25
-34 -32 -15 -5 11 -4 48 2 82 11 67 5 79 -36 79 -19 0 -20 -7 -20 -137z"/>
  <path d="M139 373 c16 -31 52 -64 64 -60 40 13 -2 76 -51 77 -19 0 -21 -3 -13
-17z"/>
</g>
<g id="part-2" class="char-part">
  <path d="M670 514 c-30 -8 -99 -17 -152 -21 l-98 -6 8 -26 c11 -40 7 -231 -7
-278 -9 -32 -9 -47 0 -67 28 -60 38 -27 45 143 8 215 -2 195 107 216 50 9 110
15 132 13 l40 -3 3 -145 c4 -173 -1 -210 -28 -210 -10 0 -22 5 -25 10 -3 6
-14 10 -23 10 -11 0 -2 -14 28 -45 80 -82 93 -60 101 175 3 96 9 183 13 192 6
13 0 22 -26 38 -38 23 -43 23 -118 4z"/>
</g>
<g id="part-3" class="char-part">
  <path d="M610 380 c-14 -4 -42 -8 -64 -9 -32 -1 -37 -4 -31 -18 4 -10 11 -36
16 -58 15 -65 18 -70 31 -57 7 7 26 12 43 12 49 0 74 10 68 27 -3 8 3 32 13
54 15 35 16 42 3 50 -17 10 -44 10 -79 -1z m35 -52 c-10 -45 -22 -58 -56 -58
-27 0 -29 3 -29 39 0 43 7 49 58 50 33 1 33 0 27 -31z"/>
</g>
</g>
</svg>