<?xml version="1.0" standalone="no"?>
<!DOCTYPE svg PUBLIC "-//W3C//DTD SVG 20010904//EN"
 "http://www.w3.org/TR/2001/REC-SVG-20010904/DTD/svg10.dtd">
<svg version="1.0" xmlns="http://www.w3.org/2000/svg"
 width="96.000000pt" height="68.000000pt" viewBox="0 0 96.000000 68.000000"
 preserveAspectRatio="xMidYMid meet">
<metadata>
Created by potrace 1.16, written by Peter Selinger 2001-2019
Combined from part_0.svg through part_5.svg with named groups
</metadata>
<g transform="translate(0.000000,68.000000) scale(0.100000,-0.100000)" fill="#000000" stroke="none">
<g id="part-0" class="char-part">
  <path d="M534 583 c-12 -40 -50 -104 -85 -145 -38 -43 -38 -43 -107 -43 l-68
0 58 50 c46 39 55 52 45 63 -11 14 -61 12 -100 -3 -16 -7 -16 -5 -5 20 11 24
10 29 -7 41 -25 19 -45 18 -45 -2 0 -22 -36 -81 -74 -121 -39 -43 -17 -44 48
-2 28 17 59 29 72 27 23 -3 23 -4 -12 -45 -33 -40 -39 -43 -84 -43 l-49 0 14
-26 c7 -15 16 -47 20 -73 l6 -46 98 0 99 0 10 30 c6 17 16 49 22 72 7 30 20
47 44 62 18 11 56 45 85 76 29 30 56 55 61 55 5 0 40 -29 77 -64 38 -35 78
-66 90 -70 24 -8 93 2 93 13 0 4 -26 15 -57 25 -52 17 -123 59 -131 79 -2 4
-8 7 -13 7 -12 0 -49 32 -49 44 0 10 -30 35 -43 36 -4 0 -10 -8 -13 -17z
m-296 -232 c2 -23 -3 -30 -23 -35 -32 -8 -45 -1 -45 25 0 14 7 19 24 19 14 0
28 5 31 10 9 15 11 13 13 -19z m107 4 c0 -15 -8 -21 -32 -23 -27 -3 -33 0 -33
16 0 25 5 29 38 28 20 -1 27 -6 27 -21z m-5 -70 c0 -21 -5 -25 -30 -25 -22 0
-30 5 -30 18 0 25 9 32 37 32 18 0 23 -5 23 -25z m-102 -7 c-2 -17 -10 -23
-28 -23 -18 0 -26 6 -28 23 -3 19 1 22 28 22 27 0 31 -3 28 -22z"/>
  <path d="M540 433 c-46 -8 -46 -23 1 -23 52 0 89 9 89 21 0 9 -45 10 -90 2z"/>
  <path d="M600 374 c-47 -7 -106 -13 -132 -13 -44 -1 -61 -12 -39 -25 5 -3 14
-26 20 -52 10 -37 15 -45 29 -39 9 4 64 8 122 10 l105 4 25 51 c24 51 25 52 6
66 -22 16 -21 16 -136 -2z m89 -36 c-1 -42 -13 -53 -56 -56 -43 -3 -43 -3 -43
31 0 43 4 47 57 47 38 0 43 -3 42 -22z m-129 -28 c0 -40 0 -40 -39 -40 -35 0
-40 4 -50 30 -8 23 -7 32 2 35 7 2 19 6 27 8 8 3 25 6 38 6 19 1 22 -4 22 -39z"/>
  <path d="M623 325 c-3 -9 -3 -19 1 -22 7 -7 36 16 36 28 0 15 -30 10 -37 -6z"/>
  <path d="M490 316 c0 -8 31 -36 41 -36 15 0 10 27 -7 34 -18 7 -34 8 -34 2z"/>
  <path d="M559 217 l-86 -10 1 -86 c1 -80 2 -86 21 -83 76 13 147 13 160 2 25
-21 33 -1 37 87 3 78 2 83 -20 93 -13 5 -24 9 -25 8 -1 0 -41 -6 -88 -11z m85
-33 c11 -28 7 -32 -51 -39 -31 -4 -62 -9 -70 -12 -9 -4 -13 4 -13 25 0 26 4
31 28 35 65 10 100 7 106 -9z m1 -85 c0 -22 -4 -24 -59 -27 -72 -4 -86 1 -79
27 4 17 15 21 62 24 75 4 76 4 76 -24z"/>
  <path d="M361 160 c25 -43 34 -49 43 -24 10 26 7 33 -24 49 -42 22 -44 19 -19
-25z"/>
  <path d="M111 149 c-23 -41 -22 -69 2 -69 26 0 51 90 29 104 -5 3 -19 -13 -31
-35z"/>
  <path d="M270 181 c0 -6 11 -23 25 -38 l24 -28 1 27 c0 17 -7 31 -19 38 -24
12 -31 13 -31 1z"/>
  <path d="M190 175 c0 -14 25 -55 36 -59 18 -7 19 35 2 52 -12 12 -38 17 -38 7z"/>
</g>
<g id="part-1" class="char-part">
  <path d="M220 552 c0 -18 -46 -89 -77 -120 -33 -34 7 -18 63 25 32 24 84 31
84 12 0 -6 -14 -29 -31 -50 -17 -21 -26 -39 -21 -39 14 0 142 110 142 121 0
17 -46 20 -84 4 -45 -19 -57 -13 -31 15 14 16 15 22 5 35 -18 21 -50 19 -50
-3z"/>
</g>
<g id="part-2" class="char-part">
  <path d="M340 203 c0 -4 10 -25 23 -45 15 -26 26 -35 36 -29 21 13 9 43 -27
64 -17 10 -32 15 -32 10z"/>
  <path d="M111 154 c-25 -41 -24 -67 2 -72 19 -4 37 32 37 73 0 38 -16 38 -39
-1z"/>
  <path d="M277 158 c23 -40 43 -47 43 -16 0 29 -17 48 -43 48 -18 0 -18 -1 0
-32z"/>
  <path d="M190 175 c0 -14 32 -65 40 -65 14 0 12 44 -2 58 -12 12 -38 17 -38 7z"/>
</g>
<g id="part-3" class="char-part">
  <path d="M526 570 c-7 -35 -38 -84 -90 -140 -42 -45 -45 -56 -13 -39 33 18 72
52 116 103 l39 45 81 -74 c45 -41 90 -75 100 -75 31 0 81 12 81 19 0 4 -24 15
-54 24 -52 17 -187 107 -195 130 -4 16 -32 37 -47 37 -6 0 -14 -14 -18 -30z"/>
</g>
<g id="part-4" class="char-part">
  <path d="M545 430 l-60 -15 40 -3 c47 -4 105 6 105 17 0 17 -25 17 -85 1z"/>
</g>
<g id="part-5" class="char-part">
  <path d="M607 207 c3 -5 15 -7 27 -5 19 4 22 1 18 -19 -3 -15 0 -23 9 -23 12
0 12 -2 0 -9 -9 -6 -10 -14 -3 -27 7 -14 6 -24 -3 -38 -11 -14 -11 -22 -2 -36
10 -17 12 -17 22 -3 12 16 13 112 1 132 -4 6 -2 11 5 11 9 0 9 3 0 14 -13 15
-83 18 -74 3z"/>
  <path d="M548 203 c6 -2 18 -2 25 0 6 3 1 5 -13 5 -14 0 -19 -2 -12 -5z"/>
  <path d="M483 193 c9 -2 23 -2 30 0 6 3 -1 5 -18 5 -16 0 -22 -2 -12 -5z"/>
  <path d="M480 149 c0 -5 5 -7 10 -4 6 3 10 8 10 11 0 2 -4 4 -10 4 -5 0 -10
-5 -10 -11z"/>
  <path d="M593 133 c9 -2 23 -2 30 0 6 3 -1 5 -18 5 -16 0 -22 -2 -12 -5z"/>
  <path d="M479 105 c-1 -14 -2 -31 -3 -37 -1 -7 7 -14 16 -16 15 -3 16 1 8 29
-7 24 -6 35 3 41 8 5 7 8 -5 8 -12 0 -19 -8 -19 -25z"/>
  <path d="M538 123 c6 -2 18 -2 25 0 6 3 1 5 -13 5 -14 0 -19 -2 -12 -5z"/>
  <path d="M598 63 c6 -2 18 -2 25 0 6 3 1 5 -13 5 -14 0 -19 -2 -12 -5z"/>
</g>
</g>
</svg>