<?xml version="1.0" standalone="no"?>
<!DOCTYPE svg PUBLIC "-//W3C//DTD SVG 20010904//EN"
 "http://www.w3.org/TR/2001/REC-SVG-20010904/DTD/svg10.dtd">
<svg version="1.0" xmlns="http://www.w3.org/2000/svg"
 width="96.000000pt" height="68.000000pt" viewBox="0 0 96.000000 68.000000"
 preserveAspectRatio="xMidYMid meet">
<metadata>
Created by potrace 1.16, written by Peter Selinger 2001-2019
Combined from part_0.svg through part_5.svg with named groups
</metadata>
<g transform="translate(0.000000,68.000000) scale(0.100000,-0.100000)" fill="#000000" stroke="none">
<g id="part-0" class="char-part">
  <path d="M520 609 c-36 -5 -110 -11 -165 -13 -76 -4 -99 -8 -95 -18 8 -23 2
-145 -10 -189 -18 -67 -68 -164 -112 -220 -44 -56 -44 -70 -1 -43 73 45 132
143 161 265 19 80 5 75 220 85 130 6 143 9 139 25 -3 10 8 31 25 50 l30 33
-22 18 c-24 20 -60 21 -170 7z m90 -46 c0 -35 -17 -42 -110 -53 -52 -5 -114
-12 -137 -15 -39 -4 -43 -3 -43 18 0 12 4 27 8 33 10 15 110 31 205 33 67 1
77 -1 77 -16z"/>
  <path d="M376 433 c-8 -16 -26 -39 -40 -52 -65 -60 -3 -32 84 39 21 17 23 21
10 30 -25 16 -39 12 -54 -17z"/>
  <path d="M695 393 l0 -68 -37 -3 -38 -3 0 50 c0 44 -3 51 -20 51 -18 0 -20 -4
-14 -54 6 -52 6 -53 -20 -58 -31 -6 -39 2 -30 36 4 18 1 27 -14 35 -36 19 -42
14 -35 -34 5 -42 4 -45 -18 -45 -13 0 -30 -4 -38 -9 -10 -7 -5 -11 17 -16 18
-3 36 -4 42 0 14 9 13 -73 -1 -114 -9 -27 -9 -36 3 -48 13 -12 23 -13 54 -4
22 6 95 11 164 11 115 1 123 2 105 16 -17 14 -41 15 -153 9 l-133 -6 3 72 c3
71 4 72 31 76 25 3 27 1 27 -34 0 -58 6 -62 75 -51 l60 10 1 39 c1 22 4 42 6
45 3 2 28 7 56 11 62 7 59 23 -5 23 l-46 0 6 33 c4 17 9 41 12 53 5 15 0 23
-20 32 -14 7 -29 12 -33 12 -4 0 -7 -30 -7 -67z m-3 -128 c-5 -37 -2 -33 -40
-41 -31 -6 -32 -5 -32 28 0 43 6 50 45 46 27 -3 30 -6 27 -33z"/>
  <path d="M380 344 c-11 -28 -64 -85 -113 -121 -21 -16 -26 -23 -14 -23 9 0 21
8 26 18 6 9 11 13 11 9 0 -5 12 1 26 12 15 11 30 18 35 15 13 -7 11 -63 -3
-124 -10 -43 -9 -53 3 -60 7 -5 17 -6 20 -2 12 13 17 168 6 187 -8 16 -4 24
29 53 37 32 38 34 20 48 -28 20 -35 18 -46 -12z"/>
</g>
<g id="part-1" class="char-part">
  <path d="M515 605 c-55 -7 -134 -14 -175 -14 l-76 -1 4 -63 c7 -109 -49 -268
-126 -358 -47 -54 -33 -61 25 -12 58 48 103 132 127 236 l18 74 106 7 c209 13
241 17 235 33 -3 8 7 27 23 44 25 26 26 31 13 44 -22 22 -63 24 -174 10z m100
-25 c3 -5 0 -22 -7 -37 -12 -26 -19 -29 -108 -40 -52 -6 -115 -12 -140 -12
l-46 -1 4 34 c5 40 18 44 172 56 52 4 100 8 107 8 6 1 15 -2 18 -8z"/>
</g>
<g id="part-2" class="char-part">
  <path d="M380 445 c0 -9 -19 -36 -41 -60 -48 -52 -44 -57 14 -15 84 59 94 69
77 80 -23 15 -50 12 -50 -5z"/>
</g>
<g id="part-3" class="char-part">
  <path d="M376 342 c-8 -16 -42 -54 -76 -85 -68 -63 -68 -70 -3 -31 57 33 67
25 58 -45 -12 -96 -11 -116 5 -116 20 0 35 172 17 194 -9 11 -3 20 28 47 39
33 39 35 21 49 -27 21 -33 19 -50 -13z"/>
</g>
<g id="part-4" class="char-part">
  <path d="M695 388 l0 -63 -37 -3 -38 -3 0 50 c0 44 -3 51 -20 51 -19 0 -20 -4
-14 -55 7 -54 6 -55 -20 -55 -15 0 -26 -6 -26 -14 0 -9 8 -12 25 -8 17 3 25 0
26 -9 1 -24 9 -82 12 -85 7 -6 126 20 121 27 -3 5 -2 24 2 43 6 33 8 35 60 42
63 7 62 24 -2 24 -48 0 -54 11 -34 66 12 32 -2 54 -34 54 -19 0 -21 -5 -21
-62z m-5 -122 c0 -26 -5 -35 -22 -40 -43 -11 -48 -7 -48 34 0 39 1 40 35 40
33 0 35 -2 35 -34z"/>
</g>
</g>
</svg>