<?xml version="1.0" standalone="no"?>
<!DOCTYPE svg PUBLIC "-//W3C//DTD SVG 20010904//EN"
 "http://www.w3.org/TR/2001/REC-SVG-20010904/DTD/svg10.dtd">
<svg version="1.0" xmlns="http://www.w3.org/2000/svg"
 width="96.000000pt" height="68.000000pt" viewBox="0 0 96.000000 68.000000"
 preserveAspectRatio="xMidYMid meet">
<metadata>
Created by potrace 1.16, written by Peter Selinger 2001-2019
Combined from part_0.svg through part_5.svg with named groups
</metadata>
<g transform="translate(0.000000,68.000000) scale(0.100000,-0.100000)" fill="#000000" stroke="none">
<g id="part-0" class="char-part">
  <path d="M530 608 c-14 -6 -70 -11 -125 -12 l-101 0 1 -111 0 -110 -92 -5
c-50 -3 -95 -9 -99 -13 -16 -16 12 -22 97 -19 l89 2 -23 -64 c-25 -67 -67
-144 -93 -170 -13 -14 -13 -16 0 -16 42 0 122 106 152 203 l18 57 40 0 c23 0
71 3 109 7 l67 6 0 -99 c0 -119 -5 -131 -50 -115 -63 22 -66 11 -10 -39 30
-27 60 -49 67 -50 6 0 21 12 32 26 19 24 21 40 21 150 l0 124 106 0 c76 0 105
3 102 12 -8 23 -76 37 -143 29 l-65 -7 0 42 c0 24 5 66 11 95 9 42 9 54 -3 65
-20 20 -78 26 -108 12z m38 -130 l-3 -93 -102 -3 -103 -4 1 44 c0 23 4 63 7
88 8 52 19 57 135 59 l68 1 -3 -92z"/>
  <path d="M410 514 c0 -12 74 -84 87 -84 19 0 16 33 -4 57 -16 18 -83 40 -83
27z"/>
</g>
<g id="part-1" class="char-part">
  <path d="M516 604 c-57 -15 -135 -19 -185 -8 -32 6 -34 6 -27 -17 36 -127 -9
-333 -101 -456 l-28 -38 35 26 c90 67 137 176 148 344 l7 100 55 12 c30 6 76
12 101 12 l47 1 5 -52 c9 -76 7 -307 -1 -348 -7 -31 -12 -35 -38 -34 -16 0
-38 4 -49 8 -11 5 3 -13 30 -38 97 -88 108 -68 115 214 3 118 9 223 14 232 5
12 1 21 -16 31 -36 23 -59 25 -112 11z"/>
</g>
<g id="part-2" class="char-part">
  <path d="M410 513 c0 -15 69 -83 84 -83 17 0 21 27 8 46 -21 30 -92 59 -92 37z"/>
  <path d="M690 399 c-30 -4 -163 -13 -295 -19 -132 -7 -253 -15 -270 -20 l-30
-7 30 -12 c23 -10 55 -10 140 -1 61 6 215 14 343 17 127 3 232 10 232 15 0 10
-63 39 -82 37 -7 -1 -38 -5 -68 -10z"/>
</g>
</g>
</svg>