<?xml version="1.0" standalone="no"?>
<!DOCTYPE svg PUBLIC "-//W3C//DTD SVG 20010904//EN"
 "http://www.w3.org/TR/2001/REC-SVG-20010904/DTD/svg10.dtd">
<svg version="1.0" xmlns="http://www.w3.org/2000/svg"
 width="96.000000pt" height="68.000000pt" viewBox="0 0 96.000000 68.000000"
 preserveAspectRatio="xMidYMid meet">
<metadata>
Created by potrace 1.16, written by Peter Selinger 2001-2019
Combined from part_0.svg through part_5.svg with named groups
</metadata>
<g transform="translate(0.000000,68.000000) scale(0.100000,-0.100000)" fill="#000000" stroke="none">
<g id="part-0" class="char-part">
  <path d="M547 634 c-4 -4 -7 -22 -7 -40 0 -34 -13 -44 -56 -44 -13 0 -24 -4
-24 -9 0 -11 25 -21 50 -21 17 0 18 -4 8 -31 -6 -16 -8 -32 -6 -35 6 -5 68 56
68 68 0 4 32 8 70 8 53 0 70 3 70 14 0 16 -30 26 -77 26 -29 0 -32 2 -28 28 2
17 -2 29 -8 30 -7 0 -21 3 -32 7 -11 3 -24 3 -28 -1z"/>
  <path d="M273 593 c2 -10 8 -25 11 -34 8 -17 -27 -29 -85 -29 -36 0 -37 -14
-4 -36 22 -15 32 -15 68 -4 38 11 42 11 55 -9 22 -32 46 -27 39 8 -5 25 -2 29
24 37 34 10 36 30 2 26 -16 -2 -26 6 -38 28 -12 24 -22 30 -46 30 -25 0 -30
-4 -26 -17z"/>
  <path d="M390 494 c0 -3 9 -18 21 -32 l21 -27 -44 -7 c-23 -3 -69 -7 -100 -7
-31 -1 -60 -5 -63 -11 -4 -6 7 -10 27 -10 70 0 403 21 407 26 16 16 -34 24
-113 18 -78 -5 -88 -4 -83 9 3 9 0 20 -6 25 -15 12 -67 24 -67 16z"/>
  <path d="M425 364 c-44 -7 -95 -10 -112 -7 -36 6 -41 -1 -18 -23 8 -9 15 -19
15 -24 0 -4 -36 -11 -80 -15 -49 -4 -78 -11 -74 -17 4 -6 36 -7 84 -3 77 7 77
7 84 -19 3 -14 11 -26 16 -26 17 0 11 -26 -9 -44 -11 -10 -54 -35 -98 -58 -43
-22 -67 -37 -53 -33 52 14 95 29 104 37 6 4 19 8 29 8 18 0 19 -5 14 -65 -4
-36 -2 -67 3 -70 8 -5 57 19 70 36 3 3 23 18 45 32 47 32 31 36 -25 7 -22 -11
-41 -20 -43 -20 -3 0 -7 26 -9 57 -5 51 -3 59 18 76 13 10 24 25 24 33 0 11
16 14 73 14 72 0 73 0 84 30 11 29 13 30 76 30 69 0 97 6 97 21 0 5 -32 9 -71
9 -42 0 -68 4 -64 10 8 12 -48 40 -77 39 -13 -1 -59 -8 -103 -15z m105 -28 c0
-16 -51 -26 -137 -26 -49 0 -63 3 -63 15 0 14 10 15 163 23 26 1 37 -2 37 -12z
m0 -55 c0 -4 -31 -13 -69 -20 -98 -16 -111 -15 -111 9 0 19 7 20 90 20 50 0
90 -4 90 -9z"/>
  <path d="M574 212 c-27 -48 -50 -56 -83 -32 -16 11 -37 20 -48 19 -17 0 -17
-1 1 -12 17 -11 122 -95 184 -148 23 -20 80 -25 142 -12 31 6 28 8 -57 39 -79
28 -173 76 -173 88 0 3 23 12 50 21 51 17 68 46 34 59 -26 10 -32 7 -50 -22z"/>
</g>
<g id="part-1" class="char-part">
  <path d="M548 593 c-3 -36 -5 -38 -40 -41 -45 -4 -51 -22 -8 -22 33 0 35 -5
20 -45 -14 -37 9 -29 35 13 19 29 24 31 77 32 31 0 63 3 72 6 30 12 5 24 -50
24 -58 0 -59 1 -44 30 8 15 6 21 -9 30 -36 19 -50 12 -53 -27z"/>
  <path d="M283 588 c2 -13 8 -31 12 -40 6 -16 0 -18 -60 -18 l-68 0 19 -21 c15
-17 27 -20 59 -15 23 3 48 8 57 11 11 4 17 -1 22 -19 9 -36 26 -33 26 4 0 19
6 33 15 35 46 15 49 19 13 23 -32 3 -38 7 -38 27 0 22 -17 35 -47 35 -11 0
-14 -7 -10 -22z"/>
</g>
<g id="part-2" class="char-part">
  <path d="M390 495 c0 -4 9 -19 20 -35 l19 -27 -52 -7 c-29 -3 -72 -6 -97 -6
-25 0 -51 -4 -58 -9 -25 -15 27 -20 117 -11 47 5 139 12 204 16 64 3 117 10
117 14 0 15 -45 20 -123 13 -66 -5 -77 -4 -72 9 3 8 0 20 -7 26 -17 13 -68 27
-68 17z"/>
</g>
<g id="part-3" class="char-part">
  <path d="M460 370 c-19 -6 -70 -10 -114 -11 -48 -1 -73 -5 -64 -10 9 -5 21
-30 28 -56 7 -27 16 -52 20 -56 4 -5 55 -5 114 -1 l106 7 29 53 c24 45 26 55
15 65 -19 15 -91 20 -134 9z m68 -57 c-3 -37 -4 -38 -58 -50 -30 -6 -69 -12
-86 -12 -28 -1 -32 3 -38 32 -3 17 -6 37 -6 42 0 9 66 19 153 23 l38 2 -3 -37z"/>
</g>
<g id="part-4" class="char-part">
  <path d="M567 202 c-15 -20 -24 -38 -19 -40 4 -1 30 7 56 19 46 20 47 21 30
40 -24 27 -35 24 -67 -19z"/>
  <path d="M444 187 c10 -7 62 -47 114 -89 92 -75 99 -78 147 -77 95 1 97 13 9
43 -44 14 -102 41 -129 59 -85 55 -125 77 -143 76 -15 0 -15 -2 2 -12z"/>
  <path d="M335 154 c-14 -6 -13 -146 1 -151 10 -3 144 92 144 103 0 2 -22 -7
-50 -21 -27 -14 -51 -25 -54 -25 -3 0 -6 21 -8 47 -3 44 -11 56 -33 47z"/>
</g>
</g>
</svg>