<?xml version="1.0" standalone="no"?>
<!DOCTYPE svg PUBLIC "-//W3C//DTD SVG 20010904//EN"
 "http://www.w3.org/TR/2001/REC-SVG-20010904/DTD/svg10.dtd">
<svg version="1.0" xmlns="http://www.w3.org/2000/svg"
 width="96.000000pt" height="68.000000pt" viewBox="0 0 96.000000 68.000000"
 preserveAspectRatio="xMidYMid meet">
<metadata>
Created by potrace 1.16, written by Peter Selinger 2001-2019
Combined from part_0.svg through part_5.svg with named groups
</metadata>
<g transform="translate(0.000000,68.000000) scale(0.100000,-0.100000)" fill="#000000" stroke="none">
<g id="part-0" class="char-part">
  <path d="M554 570 c-59 -38 -171 -70 -222 -63 -42 6 -45 5 -37 -13 18 -38 17
-154 0 -207 -21 -64 -76 -140 -127 -177 -48 -35 -33 -48 21 -20 85 43 136 104
171 202 l18 53 74 7 c40 4 135 12 211 17 143 11 169 17 146 32 -23 14 -136 10
-274 -11 -72 -11 -136 -20 -142 -20 -9 0 -13 15 -13 44 0 24 6 48 13 53 6 6
72 22 146 36 74 15 137 29 140 33 10 10 -49 54 -72 54 -12 0 -36 -9 -53 -20z"/>
  <path d="M635 262 c-33 -7 -101 -14 -151 -15 l-91 -2 12 -30 c7 -16 16 -50 20
-75 10 -59 23 -84 38 -72 7 6 69 13 139 17 111 7 126 10 119 23 -9 16 -3 38
27 101 15 33 15 35 -7 50 -30 20 -34 20 -106 3z m45 -52 c0 -50 -20 -90 -44
-90 -13 0 -57 -3 -98 -6 -60 -5 -75 -4 -75 7 0 8 -3 33 -7 55 -7 38 -5 42 16
48 13 3 43 6 68 7 25 1 59 4 75 8 46 11 65 2 65 -29z"/>
</g>
<g id="part-1" class="char-part">
  <path d="M545 559 c-56 -36 -152 -62 -202 -54 -45 6 -46 6 -37 -17 4 -13 8
-54 8 -93 0 -104 -25 -165 -104 -247 -36 -37 -62 -68 -57 -68 4 0 25 9 47 20
50 25 104 80 129 128 26 53 52 147 45 166 -3 9 -3 31 0 50 l6 33 145 28 c80
15 147 31 150 35 9 14 -38 40 -70 39 -16 0 -43 -9 -60 -20z"/>
</g>
<g id="part-2" class="char-part">
  <path d="M571 394 c-168 -21 -215 -33 -198 -50 3 -3 61 1 129 10 68 9 167 19
221 22 53 3 97 10 97 15 0 5 -1 9 -3 9 -1 0 -16 4 -32 8 -19 6 -96 0 -214 -14z"/>
</g>
<g id="part-3" class="char-part">
  <path d="M639 266 c-12 -13 -171 -26 -208 -17 -22 5 -41 8 -41 6 0 -1 6 -18
14 -36 8 -19 17 -57 21 -84 8 -64 19 -83 37 -68 7 6 70 14 141 18 93 5 125 11
118 19 -11 13 13 92 36 117 13 15 12 19 -9 33 -20 14 -98 23 -109 12z m38 -78
c-4 -28 -10 -55 -14 -59 -5 -5 -51 -9 -103 -11 l-94 -3 -9 48 c-5 26 -8 50 -5
52 6 6 128 22 182 24 l49 1 -6 -52z"/>
</g>
</g>
</svg>