<?xml version="1.0" standalone="no"?>
<!DOCTYPE svg PUBLIC "-//W3C//DTD SVG 20010904//EN"
 "http://www.w3.org/TR/2001/REC-SVG-20010904/DTD/svg10.dtd">
<svg version="1.0" xmlns="http://www.w3.org/2000/svg"
 width="96.000000pt" height="68.000000pt" viewBox="0 0 96.000000 68.000000"
 preserveAspectRatio="xMidYMid meet">
<metadata>
Created by potrace 1.16, written by Peter Selinger 2001-2019
Combined from part_0.svg through part_5.svg with named groups
</metadata>
<g transform="translate(0.000000,68.000000) scale(0.100000,-0.100000)" fill="#000000" stroke="none">
<g id="part-0" class="char-part">
  <path d="M440 599 c-25 -5 -89 -13 -144 -17 l-98 -7 26 -28 c14 -15 26 -37 26
-47 0 -24 21 -70 32 -70 4 0 16 5 26 10 9 6 64 13 122 18 83 5 105 10 106 22
0 23 16 54 31 63 23 14 14 38 -22 53 -38 16 -41 16 -105 3z m40 -63 c0 -41 -8
-44 -106 -53 -71 -6 -74 -5 -75 16 -1 11 -2 27 -3 33 -1 15 79 36 142 37 41 1
42 0 42 -33z"/>
  <path d="M380 399 c-74 -11 -150 -16 -169 -13 -31 5 -33 4 -27 -18 3 -13 6
-69 6 -126 0 -94 2 -105 23 -126 50 -50 196 -73 360 -57 108 11 192 37 202 63
3 7 -3 38 -14 68 -15 44 -20 51 -26 35 -23 -65 -31 -77 -58 -92 -47 -24 -219
-38 -321 -26 -111 14 -136 29 -136 87 l0 44 83 7 c45 4 125 10 177 14 79 5 95
9 92 22 -1 9 11 36 28 60 l30 44 -21 18 c-25 21 -51 20 -229 -4z m156 -56 c-3
-25 -7 -47 -9 -49 -7 -6 -116 -8 -117 -1 0 4 0 27 0 52 l0 45 66 0 67 0 -7
-47z m-181 -19 l0 -49 -66 -3 -65 -3 5 47 6 46 44 4 c25 3 47 7 50 9 14 15 26
-7 26 -51z"/>
</g>
<g id="part-1" class="char-part">
  <path d="M365 584 c-49 -7 -105 -11 -122 -8 -33 6 -47 -9 -19 -19 8 -3 21 -30
30 -61 17 -57 33 -77 46 -56 6 9 138 27 218 30 7 0 10 5 7 11 -4 5 6 28 21 51
27 39 28 41 9 54 -22 17 -69 16 -190 -2z m119 -48 c-1 -20 -3 -38 -5 -40 -5
-5 -173 -25 -177 -21 -2 1 -5 18 -9 38 l-5 35 53 11 c60 12 119 19 134 16 6
-1 9 -19 9 -39z"/>
</g>
<g id="part-2" class="char-part">
  <path d="M385 399 c-77 -10 -154 -16 -172 -14 l-32 6 6 -73 c3 -40 7 -75 9
-77 4 -4 317 18 357 25 15 3 25 10 22 15 -7 11 18 61 39 78 23 19 20 36 -9 49
-32 15 -45 14 -220 -9z m155 -31 c-1 -64 -9 -72 -93 -84 l-48 -6 7 28 c4 16 7
41 7 56 0 28 1 28 64 28 59 0 63 -2 63 -22z m-180 -49 l0 -49 -65 0 -65 0 0
39 c0 22 5 43 11 46 13 9 102 23 112 18 4 -2 7 -26 7 -54z"/>
</g>
<g id="part-3" class="char-part">
  <path d="M731 212 c-22 -79 -65 -100 -227 -109 -108 -6 -224 8 -262 33 -17 11
-22 24 -22 59 0 33 -4 45 -15 45 -20 0 -20 -88 0 -117 21 -29 105 -59 190 -67
147 -15 364 24 381 67 3 8 -4 41 -15 73 l-19 58 -11 -42z"/>
</g>
</g>
</svg>