<?xml version="1.0" standalone="no"?>
<!DOCTYPE svg PUBLIC "-//W3C//DTD SVG 20010904//EN"
 "http://www.w3.org/TR/2001/REC-SVG-20010904/DTD/svg10.dtd">
<svg version="1.0" xmlns="http://www.w3.org/2000/svg"
 width="96.000000pt" height="68.000000pt" viewBox="0 0 96.000000 68.000000"
 preserveAspectRatio="xMidYMid meet">
<metadata>
Created by potrace 1.16, written by Peter Selinger 2001-2019
Combined from part_0.svg through part_5.svg with named groups
</metadata>
<g transform="translate(0.000000,68.000000) scale(0.100000,-0.100000)" fill="#000000" stroke="none">
<g id="part-0" class="char-part">
  <path d="M605 594 c-55 -48 -105 -73 -136 -67 l-26 5 1 -84 c0 -46 -3 -95 -6
-110 -8 -35 -55 -127 -76 -152 -18 -20 -14 -19 28 2 20 11 83 112 86 140 0 4
4 23 8 42 7 33 10 36 45 37 21 1 44 3 52 5 17 4 26 -74 28 -249 0 -68 5 -123
10 -123 13 0 19 37 27 162 7 121 5 119 79 54 47 -42 78 -47 73 -14 -2 17 -21
32 -75 58 l-72 35 2 47 2 48 65 0 c70 0 110 8 110 20 0 17 -53 19 -146 5 -203
-31 -194 -31 -194 1 0 16 4 34 8 41 4 6 48 28 97 48 50 20 94 41 98 45 8 7
-29 41 -43 40 -3 -1 -23 -17 -45 -36z"/>
  <path d="M224 587 c3 -15 9 -53 12 -85 l7 -59 -33 -6 c-18 -4 -44 -7 -57 -7
-49 0 -17 -25 35 -28 l52 -3 0 -58 0 -57 -52 -13 c-84 -20 -89 -22 -83 -32 4
-5 19 -16 35 -24 29 -15 33 -14 150 45 116 58 159 92 83 64 -66 -23 -73 -20
-73 35 0 51 10 61 67 61 12 0 25 5 29 11 11 18 -18 30 -58 24 -37 -5 -38 -5
-38 28 0 19 5 49 11 66 14 41 5 51 -51 58 -42 6 -43 6 -36 -20z"/>
</g>
<g id="part-1" class="char-part">
  <path d="M228 604 c-4 -3 -3 -17 3 -31 5 -13 9 -51 9 -84 l0 -59 -37 -1 c-21
0 -47 -4 -58 -9 -14 -6 -4 -9 38 -9 l57 -1 0 -64 0 -65 -54 -15 c-30 -9 -59
-16 -65 -16 -22 0 -10 -18 20 -30 29 -13 38 -10 141 41 60 30 112 57 114 61 2
3 -17 0 -43 -8 -25 -8 -50 -14 -55 -14 -4 0 -8 25 -8 55 0 59 0 59 63 70 20 3
37 10 37 14 0 15 -28 20 -58 11 -27 -7 -31 -5 -35 16 -2 14 0 45 5 70 6 25 6
50 2 54 -13 11 -69 22 -76 14z"/>
</g>
<g id="part-2" class="char-part">
  <path d="M609 604 c-13 -15 -43 -39 -67 -55 -35 -22 -51 -26 -79 -22 -33 6
-36 4 -28 -13 34 -79 2 -224 -72 -322 l-25 -34 30 16 c66 34 109 119 121 244
5 45 10 84 12 86 6 5 151 63 177 71 28 8 28 20 0 39 -31 22 -41 20 -69 -10z"/>
</g>
<g id="part-3" class="char-part">
  <path d="M625 448 c-71 -11 -132 -21 -134 -24 -3 -2 0 -9 6 -15 6 -6 38 -5 98
6 48 8 113 15 144 16 31 1 67 4 81 8 25 7 25 7 -9 19 -19 7 -39 11 -45 11 -6
-1 -69 -10 -141 -21z"/>
</g>
<g id="part-4" class="char-part">
  <path d="M607 233 c3 -104 7 -190 9 -192 12 -13 19 23 27 137 6 70 11 129 13
131 2 2 31 -20 65 -48 61 -51 85 -56 77 -15 -2 12 -30 32 -76 54 -72 35 -73
35 -67 69 7 35 -4 51 -37 51 -15 0 -16 -18 -11 -187z"/>
</g>
</g>
</svg>