<?xml version="1.0" standalone="no"?>
<!DOCTYPE svg PUBLIC "-//W3C//DTD SVG 20010904//EN"
 "http://www.w3.org/TR/2001/REC-SVG-20010904/DTD/svg10.dtd">
<svg version="1.0" xmlns="http://www.w3.org/2000/svg"
 width="96.000000pt" height="68.000000pt" viewBox="0 0 96.000000 68.000000"
 preserveAspectRatio="xMidYMid meet">
<metadata>
Created by potrace 1.16, written by Peter Selinger 2001-2019
Combined from part_0.svg through part_5.svg with named groups
</metadata>
<g transform="translate(0.000000,68.000000) scale(0.100000,-0.100000)" fill="#000000" stroke="none">
<g id="part-0" class="char-part">
  <path d="M580 576 c0 -37 -12 -46 -61 -46 -16 0 -29 -4 -29 -9 0 -11 25 -21
52 -21 17 0 19 -4 13 -30 -9 -40 8 -38 34 4 20 31 25 34 91 40 39 4 70 12 70
17 0 16 -48 29 -81 22 -28 -5 -31 -4 -25 15 5 15 1 24 -13 31 -37 20 -51 14
-51 -23z"/>
  <path d="M320 578 c0 -7 7 -22 16 -33 13 -18 13 -20 -3 -27 -10 -3 -39 -7 -65
-7 -50 -1 -59 -10 -33 -31 11 -9 32 -11 70 -6 53 6 56 5 65 -19 17 -44 35 -31
30 23 -1 16 4 22 18 22 30 0 53 11 46 21 -3 5 -21 7 -40 3 -33 -6 -34 -5 -34
24 0 22 -6 31 -22 36 -35 9 -48 7 -48 -6z"/>
  <path d="M466 435 c9 -14 14 -28 10 -32 -3 -3 -55 -11 -116 -16 -104 -9 -129
-17 -95 -31 43 -16 -7 -198 -74 -271 -45 -49 -51 -61 -23 -46 36 19 99 98 121
151 l23 55 57 -3 57 -4 12 -43 c11 -40 14 -44 39 -41 16 2 49 4 75 5 l46 1 12
50 c12 49 13 50 50 50 53 0 101 11 94 21 -3 5 -32 9 -65 9 -52 0 -60 3 -58 18
4 29 -12 52 -36 52 -21 0 -23 -4 -18 -34 6 -40 4 -42 -68 -51 l-56 -7 -6 31
c-5 25 -11 31 -33 31 -26 0 -27 -1 -9 -20 28 -31 13 -50 -41 -50 l-47 0 7 47
c3 26 12 50 19 55 6 4 37 8 67 8 30 1 73 3 95 5 22 2 79 7 128 10 84 7 109 17
66 28 -11 3 -35 4 -52 2 -125 -15 -127 -15 -127 4 0 10 -11 23 -25 29 -39 18
-47 14 -29 -13z m104 -214 c0 -38 0 -38 -47 -45 -52 -7 -63 1 -63 46 0 24 4
27 43 31 23 2 48 4 55 5 8 1 12 -11 12 -37z"/>
  <path d="M694 115 c8 -9 30 -36 47 -60 18 -25 38 -45 46 -45 22 0 15 54 -9 78
-36 33 -116 59 -84 27z"/>
  <path d="M302 74 c-12 -25 -20 -50 -17 -55 19 -30 65 19 65 71 0 44 -23 37
-48 -16z"/>
  <path d="M573 79 c29 -50 57 -64 57 -27 0 33 -19 56 -53 64 l-28 6 24 -43z"/>
  <path d="M430 105 c0 -15 42 -85 50 -85 20 0 10 59 -12 74 -23 16 -38 20 -38
11z"/>
</g>
<g id="part-1" class="char-part">
  <path d="M587 603 c-4 -3 -7 -21 -7 -40 0 -31 -2 -33 -34 -33 -19 0 -38 -4
-41 -10 -4 -6 8 -10 30 -10 33 0 36 -2 29 -22 -4 -13 -9 -30 -11 -38 -3 -8 12
4 34 28 36 41 40 42 96 42 31 0 57 4 57 10 0 14 -46 23 -81 16 -27 -5 -29 -4
-23 18 4 18 0 27 -14 35 -24 13 -27 13 -35 4z"/>
  <path d="M333 563 c2 -10 8 -25 11 -34 6 -13 -2 -17 -37 -22 -24 -3 -53 -4
-65 0 -28 7 -28 -8 -1 -25 19 -12 47 -11 101 4 13 4 21 -3 28 -20 13 -34 32
-33 28 1 -3 24 2 30 32 40 l35 12 -36 0 c-32 1 -37 4 -42 31 -5 24 -12 30 -33
30 -20 0 -25 -4 -21 -17z"/>
</g>
<g id="part-2" class="char-part">
  <path d="M450 453 c0 -4 9 -17 21 -29 l20 -22 -33 -5 c-18 -3 -75 -9 -126 -13
l-93 -7 22 -20 c19 -18 21 -27 15 -76 -9 -73 -44 -149 -96 -205 -24 -25 -38
-46 -33 -46 16 0 74 47 98 80 32 44 73 145 80 202 7 55 -5 52 240 69 88 6 162
12 164 15 2 2 -8 8 -23 13 -17 7 -51 7 -98 1 -40 -5 -76 -10 -80 -10 -5 0 -8
9 -8 20 0 13 -10 24 -26 30 -30 12 -44 13 -44 3z"/>
</g>
<g id="part-3" class="char-part">
  <path d="M577 320 c5 -39 5 -40 -23 -40 -16 0 -45 -3 -65 -6 -34 -6 -36 -4
-42 25 -5 25 -11 31 -33 31 -26 0 -26 -1 -11 -18 32 -35 16 -52 -49 -52 -19 0
-34 -4 -34 -10 0 -5 24 -10 54 -10 l53 0 7 -39 c3 -22 10 -42 15 -46 5 -3 41
-2 80 1 69 7 70 7 76 38 13 63 15 66 48 66 52 0 107 12 101 21 -3 5 -32 9 -66
9 -57 0 -60 1 -55 22 7 23 -16 47 -45 48 -13 0 -15 -7 -11 -40z m-7 -99 c0
-38 -1 -39 -42 -44 -48 -5 -68 10 -68 49 0 20 6 23 48 27 26 2 50 4 55 5 4 1
7 -16 7 -37z"/>
</g>
<g id="part-4" class="char-part">
  <path d="M690 125 c0 -13 87 -115 98 -115 18 0 15 55 -5 72 -18 16 -77 48 -88
48 -3 0 -5 -2 -5 -5z"/>
  <path d="M301 74 c-14 -31 -19 -50 -12 -57 24 -24 61 23 61 79 0 39 -24 28
-49 -22z"/>
  <path d="M574 78 c30 -54 56 -62 56 -19 0 24 -7 34 -30 46 -46 24 -51 18 -26
-27z"/>
  <path d="M430 105 c0 -13 30 -62 44 -74 14 -12 16 -9 16 17 0 21 -7 36 -22 46
-23 16 -38 20 -38 11z"/>
</g>
</g>
</svg>