<?xml version="1.0" standalone="no"?>
<!DOCTYPE svg PUBLIC "-//W3C//DTD SVG 20010904//EN"
 "http://www.w3.org/TR/2001/REC-SVG-20010904/DTD/svg10.dtd">
<svg version="1.0" xmlns="http://www.w3.org/2000/svg"
 width="96.000000pt" height="68.000000pt" viewBox="0 0 96.000000 68.000000"
 preserveAspectRatio="xMidYMid meet">
<metadata>
Created by potrace 1.16, written by Peter Selinger 2001-2019
Combined from part_0.svg through part_5.svg with named groups
</metadata>
<g transform="translate(0.000000,68.000000) scale(0.100000,-0.100000)" fill="#000000" stroke="none">
<g id="part-0" class="char-part">
  <path d="M422 593 c3 -28 2 -28 -60 -33 -84 -7 -84 -24 1 -28 51 -2 67 -6 67
-17 0 -11 -14 -15 -57 -16 -32 -1 -64 -1 -70 0 -8 1 -5 -11 8 -34 20 -33 24
-35 76 -35 39 0 54 -4 51 -12 -7 -20 -209 -28 -225 -9 -11 12 -15 9 -28 -20
-8 -19 -20 -41 -27 -50 -12 -18 -5 -49 11 -49 6 0 20 17 33 39 21 37 24 39 87
44 37 3 142 13 235 22 92 9 175 14 183 11 12 -5 11 -10 -6 -32 -12 -15 -20
-29 -18 -31 8 -7 121 24 124 34 5 15 -24 42 -55 50 -14 3 -81 0 -149 -7 -68
-7 -126 -10 -129 -7 -14 14 10 25 67 31 46 5 67 13 80 29 37 44 15 60 -67 47
-45 -7 -76 1 -62 16 3 3 31 9 62 13 62 9 75 16 58 33 -8 8 -26 9 -66 2 -52
-10 -55 -9 -58 10 -2 16 -12 22 -36 24 -31 3 -33 1 -30 -25z m163 -112 c-6 -5
-31 -11 -57 -14 -42 -4 -48 -2 -48 14 0 14 9 19 48 21 49 3 73 -5 57 -21z
m-145 -1 c0 -15 -39 -32 -67 -28 -34 4 -41 25 -11 31 43 8 78 7 78 -3z"/>
  <path d="M432 360 c-128 -21 -153 -28 -99 -29 20 -1 37 -5 37 -10 0 -14 -59
-57 -106 -77 -26 -12 -33 -19 -22 -21 9 -2 36 5 59 16 53 26 53 26 67 -4 10
-20 16 -24 41 -19 24 5 30 2 36 -16 4 -12 4 -24 1 -27 -3 -3 -65 -9 -137 -14
-73 -5 -134 -11 -137 -14 -3 -2 8 -9 24 -16 21 -8 47 -8 94 0 64 10 105 14
124 12 21 -2 -61 -52 -128 -78 -42 -17 -63 -29 -52 -31 20 -4 122 31 173 59
19 11 36 19 38 19 3 0 4 -22 3 -50 -3 -54 3 -66 27 -57 11 5 15 21 15 63 0 30
3 54 8 52 4 -1 33 -21 65 -42 63 -43 129 -56 204 -41 36 7 34 9 -69 36 -58 15
-128 39 -155 53 l-48 25 135 1 c139 0 173 7 147 28 -18 15 -60 17 -182 7
l-100 -7 -1 26 c-2 25 0 26 53 26 36 0 52 4 48 11 -4 6 3 21 15 34 l23 24 -26
10 c-18 7 -52 7 -99 1 -98 -13 -97 -13 -91 9 4 16 18 20 81 26 97 8 120 14
101 26 -18 11 -30 10 -167 -11z m128 -84 c0 -21 -8 -24 -93 -32 -74 -6 -77 -6
-77 14 0 17 7 22 43 25 100 9 127 7 127 -7z"/>
</g>
<g id="part-1" class="char-part">
  <path d="M429 613 c-1 -5 0 -18 1 -30 1 -19 -5 -22 -57 -28 -84 -9 -87 -13
-10 -14 50 -1 69 -5 73 -16 9 -23 44 -19 44 5 0 16 7 20 33 20 52 0 107 12
107 23 0 6 -25 8 -70 3 -58 -5 -68 -4 -64 8 3 8 -3 19 -15 25 -23 13 -41 14
-42 4z"/>
</g>
<g id="part-2" class="char-part">
  <path d="M605 420 c-33 -4 -131 -11 -217 -15 -123 -6 -161 -5 -173 5 -8 7 -16
11 -18 9 -22 -38 -47 -98 -47 -111 0 -40 51 -2 72 54 4 8 478 51 486 43 4 -3
-1 -20 -11 -37 -17 -30 -17 -30 5 -24 13 3 40 9 61 12 50 9 56 22 23 51 -29
25 -62 27 -181 13z"/>
</g>
<g id="part-3" class="char-part">
  <path d="M436 359 c-132 -19 -167 -29 -103 -29 63 0 48 -20 -55 -76 -45 -24
-56 -34 -40 -34 34 0 146 57 175 89 21 24 35 29 97 35 87 9 108 15 88 27 -16
10 -4 11 -162 -12z"/>
</g>
<g id="part-4" class="char-part">
  <path d="M484 306 c-44 -6 -91 -18 -105 -27 -21 -15 -22 -19 -11 -44 8 -18 18
-25 28 -21 8 3 57 9 109 12 54 4 92 11 89 16 -4 5 3 20 15 32 l21 23 -25 11
c-14 7 -29 11 -33 11 -4 -1 -43 -7 -88 -13z m74 -33 c-4 -20 -39 -30 -115 -32
-46 -1 -53 2 -53 18 0 21 20 26 118 29 46 2 53 0 50 -15z"/>
</g>
<g id="part-5" class="char-part">
  <path d="M465 212 c-12 -8 -13 -22 -2 -39 5 -8 0 -10 -18 -7 -14 2 -25 0 -25
-6 0 -5 5 -10 11 -10 8 0 8 -4 0 -14 -8 -10 -9 -16 -1 -21 5 -3 10 0 10 7 0
10 3 9 9 -2 6 -8 7 -18 4 -23 -3 -5 1 -13 8 -18 10 -6 11 -9 2 -9 -7 0 -13 -7
-13 -15 0 -8 6 -15 13 -15 9 0 9 -2 0 -8 -8 -5 -9 -12 -2 -22 15 -24 29 8 27
60 -2 25 0 47 4 50 3 3 36 -15 73 -39 56 -38 76 -45 121 -47 40 -2 54 1 54 12
0 8 -6 11 -15 8 -8 -4 -21 -2 -28 4 -13 10 -131 46 -133 41 -1 -2 -11 4 -21
14 -11 9 -23 14 -26 10 -4 -3 -7 -1 -7 5 0 7 -8 12 -17 12 -12 1 -8 6 12 16
17 8 22 12 13 9 -10 -2 -19 0 -19 5 -1 6 -2 14 -3 20 -2 16 -21 29 -31 22z
m22 -34 c2 -17 0 -19 -7 -8 -5 8 -6 18 -4 22 8 12 10 10 11 -14z m133 -116
c-7 -3 -19 3 -28 13 -16 15 -15 16 12 4 15 -7 23 -15 16 -17z"/>
  <path d="M620 179 c-30 -4 -61 -6 -67 -4 -7 2 -13 1 -13 -4 0 -5 55 -9 122
-10 108 -1 119 1 102 14 -21 16 -60 17 -144 4z"/>
  <path d="M293 153 c-60 -3 -71 -6 -66 -19 3 -10 8 -12 12 -5 4 5 41 11 84 12
42 1 77 6 77 10 0 5 -8 8 -17 7 -10 -1 -50 -4 -90 -5z"/>
  <path d="M400 110 c0 -6 -4 -9 -9 -5 -5 3 -12 1 -16 -5 -8 -12 15 -13 34 -1 9
6 10 11 2 15 -6 4 -11 2 -11 -4z"/>
  <path d="M335 80 c-3 -5 -2 -10 4 -10 5 0 13 5 16 10 3 6 2 10 -4 10 -5 0 -13
-4 -16 -10z"/>
  <path d="M284 55 c-10 -8 -14 -15 -8 -15 5 0 19 7 30 15 10 8 14 15 8 15 -5 0
-19 -7 -30 -15z"/>
</g>
</g>
</svg>