<?xml version="1.0" standalone="no"?>
<!DOCTYPE svg PUBLIC "-//W3C//DTD SVG 20010904//EN"
 "http://www.w3.org/TR/2001/REC-SVG-20010904/DTD/svg10.dtd">
<svg version="1.0" xmlns="http://www.w3.org/2000/svg"
 width="96.000000pt" height="68.000000pt" viewBox="0 0 96.000000 68.000000"
 preserveAspectRatio="xMidYMid meet">
<metadata>
Created by potrace 1.16, written by Peter Selinger 2001-2019
Combined from part_0.svg through part_5.svg with named groups
</metadata>
<g transform="translate(0.000000,68.000000) scale(0.100000,-0.100000)" fill="#000000" stroke="none">
<g id="part-0" class="char-part">
  <path d="M440 604 c-69 -7 -129 -13 -135 -13 -5 -1 -3 -6 5 -11 8 -5 41 -10
73 -10 50 0 57 -2 57 -20 0 -18 -7 -20 -62 -21 -60 -1 -122 1 -142 4 -13 3
-59 -81 -51 -93 12 -19 32 -10 50 24 18 33 19 33 111 42 l93 9 3 -60 c2 -48 7
-60 21 -63 15 -3 17 5 17 62 0 46 4 66 13 66 6 0 58 3 115 7 56 3 102 3 102 0
0 -3 -10 -16 -22 -27 l-23 -21 55 7 c70 8 80 18 52 46 -25 25 -50 27 -189 15
-81 -7 -93 -6 -93 7 0 16 13 21 94 31 49 7 52 19 6 27 -14 3 -81 -1 -150 -8z"/>
  <path d="M561 484 c-27 -27 -23 -29 32 -13 22 6 37 15 34 22 -6 21 -41 16 -66
-9z"/>
  <path d="M306 470 c5 -5 25 -13 44 -16 32 -7 34 -6 21 9 -7 9 -27 17 -44 17
-20 0 -28 -3 -21 -10z"/>
  <path d="M540 427 c0 -15 76 -45 87 -33 11 11 -19 33 -54 41 -25 5 -33 3 -33
-8z"/>
  <path d="M326 420 c-16 -5 -33 -7 -37 -4 -15 9 -19 -14 -4 -26 11 -9 24 -7 59
9 25 11 46 22 46 25 0 8 -29 6 -64 -4z"/>
  <path d="M326 326 c-16 -43 -54 -84 -129 -140 -21 -16 -35 -31 -33 -34 7 -7
89 37 103 55 25 33 36 3 29 -86 -7 -100 3 -130 32 -94 13 16 33 23 87 29 39 4
73 9 78 10 4 1 64 2 133 3 96 1 125 4 121 14 -3 8 -34 12 -108 12 -97 0 -104
1 -104 20 0 17 10 21 63 29 34 5 62 13 62 17 0 5 -30 9 -66 9 -56 0 -65 2 -60
16 3 9 6 18 6 20 0 2 21 4 48 4 55 0 88 15 59 26 -10 3 -38 4 -61 1 -49 -7
-56 -4 -49 24 4 14 14 19 43 19 48 0 100 10 100 20 0 13 -48 18 -93 9 -23 -4
-84 -11 -136 -15 l-95 -7 23 29 c21 27 21 29 5 41 -29 21 -40 15 -58 -31z
m162 -80 c-3 -18 -12 -22 -68 -27 -67 -6 -98 6 -88 33 4 9 28 13 82 14 73 1
77 0 74 -20z m2 -66 c0 -15 -11 -20 -65 -25 -75 -8 -95 -3 -90 22 2 10 4 18 4
18 1 0 35 1 76 2 67 2 75 0 75 -17z m-2 -72 c-3 -21 -9 -23 -72 -26 -70 -3
-90 6 -79 35 4 9 27 13 80 13 71 0 74 -1 71 -22z"/>
  <path d="M470 340 c23 -33 45 -39 54 -15 6 17 -29 45 -57 45 -17 0 -17 -2 3
-30z"/>
</g>
<g id="part-1" class="char-part">
  <path d="M495 605 c-5 -2 -50 -7 -99 -10 -97 -8 -102 -25 -7 -25 79 0 232 21
225 31 -5 9 -98 11 -119 4z"/>
</g>
<g id="part-2" class="char-part">
  <path d="M615 549 c-38 -5 -143 -10 -231 -12 l-162 -2 -22 -42 c-12 -23 -19
-46 -15 -52 12 -21 36 -11 52 23 l16 34 91 7 c50 3 127 10 171 16 44 5 106 9
139 9 l59 0 -24 -26 -24 -26 50 7 c28 3 56 8 63 10 21 7 13 30 -17 48 -32 18
-41 19 -146 6z"/>
</g>
<g id="part-3" class="char-part">
  <path d="M331 337 c-13 -37 -51 -81 -126 -145 -57 -48 -41 -56 26 -14 24 15
50 32 58 37 12 7 13 -6 7 -82 -3 -50 -4 -97 0 -107 8 -20 30 -21 37 -2 9 22
11 202 3 214 -4 6 9 32 29 58 28 36 33 49 24 60 -21 25 -47 16 -58 -19z"/>
</g>
<g id="part-4" class="char-part">
  <path d="M490 181 c0 -21 -34 -31 -106 -31 -24 0 -44 -4 -44 -10 0 -6 32 -10
75 -10 67 0 75 -2 75 -19 0 -25 -19 -31 -91 -31 -47 0 -59 -3 -59 -16 0 -13 8
-15 48 -10 26 3 117 8 202 12 85 3 159 10 163 14 16 15 -55 22 -139 15 l-84
-7 0 25 c0 24 4 26 70 33 39 3 70 11 70 15 0 5 -31 9 -70 9 -56 0 -70 3 -70
15 0 8 -9 15 -20 15 -13 0 -20 -7 -20 -19z"/>
</g>
</g>
</svg>