<?xml version="1.0" standalone="no"?>
<!DOCTYPE svg PUBLIC "-//W3C//DTD SVG 20010904//EN"
 "http://www.w3.org/TR/2001/REC-SVG-20010904/DTD/svg10.dtd">
<svg version="1.0" xmlns="http://www.w3.org/2000/svg"
 width="96.000000pt" height="68.000000pt" viewBox="0 0 96.000000 68.000000"
 preserveAspectRatio="xMidYMid meet">
<metadata>
Created by potrace 1.16, written by Peter Selinger 2001-2019
Combined from part_0.svg through part_5.svg with named groups
</metadata>
<g transform="translate(0.000000,68.000000) scale(0.100000,-0.100000)" fill="#000000" stroke="none">
<g id="part-0" class="char-part">
  <path d="M250 547 c0 -21 64 -67 94 -67 38 0 37 44 -1 58 -55 21 -93 25 -93 9z"/>
  <path d="M575 499 c-33 -5 -80 -6 -105 -3 -43 6 -44 5 -28 -13 9 -10 22 -43
30 -73 11 -46 17 -54 33 -52 11 2 65 6 120 9 l100 5 2 31 c2 18 12 44 23 59
20 27 20 27 1 38 -22 12 -89 11 -176 -1z m110 -20 c4 -6 4 -25 1 -44 -7 -37
-11 -38 -118 -50 l-57 -6 -12 40 c-7 23 -10 43 -7 46 4 4 111 19 170 24 9 0
20 -4 23 -10z"/>
  <path d="M265 420 c-27 -10 -64 -19 -82 -19 -48 -1 -66 -11 -52 -27 15 -19 35
-18 108 7 35 11 65 19 67 17 6 -7 -141 -167 -184 -200 -23 -18 -38 -34 -32
-36 19 -7 73 20 113 55 20 18 40 33 44 33 3 0 3 -38 -1 -84 -6 -89 -2 -116 19
-116 20 0 25 24 25 111 0 43 4 79 9 79 4 0 20 -9 35 -21 29 -23 61 -22 61 1 0
8 -15 22 -33 30 l-33 16 37 17 c30 15 34 20 24 32 -19 22 -32 18 -62 -17 -21
-26 -29 -30 -39 -21 -9 9 1 25 45 71 l57 60 -23 16 c-27 19 -38 19 -103 -4z"/>
  <path d="M623 325 c-12 -9 -51 -27 -85 -40 l-63 -25 50 3 c49 2 50 2 50 -28 0
-19 -5 -30 -15 -32 -8 -1 -36 -5 -62 -8 -76 -10 -60 -29 17 -20 l65 7 0 -36
c0 -41 -7 -44 -113 -48 -37 -2 -67 -7 -67 -13 0 -11 4 -11 273 1 97 4 177 11
177 15 0 15 -71 22 -151 15 l-79 -6 0 40 0 40 43 1 c23 0 60 4 82 8 l40 8 -27
11 c-17 7 -45 8 -77 3 -28 -4 -51 -5 -52 -2 -5 42 -2 71 8 71 6 0 24 5 38 10
23 9 25 13 15 25 -16 19 -40 19 -67 0z"/>
</g>
<g id="part-1" class="char-part">
  <path d="M284 516 c43 -39 70 -46 80 -19 10 25 -14 42 -69 49 l-50 5 39 -35z"/>
  <path d="M285 419 c-27 -9 -63 -18 -80 -18 -43 -2 -76 -12 -69 -22 8 -14 57
-11 104 6 66 23 76 21 53 -14 -21 -34 -136 -154 -179 -189 l-29 -22 38 15 c42
16 86 45 107 70 7 8 16 15 21 15 12 0 11 -64 -2 -119 -11 -48 -5 -81 16 -81
20 0 25 24 25 111 0 43 3 79 6 79 3 0 20 -11 38 -25 40 -30 56 -32 56 -5 0 13
-9 22 -27 26 -47 11 -47 16 -2 40 44 22 44 23 19 32 -22 9 -28 6 -48 -19 -13
-16 -30 -29 -38 -29 -27 0 -14 29 36 79 28 28 50 54 50 59 0 5 -10 13 -22 19
-17 7 -36 5 -73 -8z"/>
</g>
<g id="part-2" class="char-part">
  <path d="M605 504 c-55 -7 -117 -10 -139 -7 l-38 6 16 -26 c10 -14 23 -47 29
-74 10 -39 16 -48 32 -45 11 1 66 5 123 9 85 5 102 9 97 21 -3 8 6 34 19 58
13 24 21 46 17 49 -29 18 -67 20 -156 9z m78 -59 c-2 -21 -4 -40 -6 -42 -8 -8
-162 -22 -168 -16 -4 5 -10 24 -14 45 l-7 36 79 7 c43 3 83 8 88 10 22 7 30
-4 28 -40z"/>
</g>
<g id="part-3" class="char-part">
  <path d="M611 319 c-19 -11 -55 -29 -80 -39 -62 -25 -35 -25 69 1 93 24 113
35 90 49 -23 15 -42 12 -79 -11z"/>
</g>
<g id="part-4" class="char-part">
  <path d="M587 273 c-4 -3 -7 -21 -7 -38 l0 -32 -72 -7 c-49 -5 -67 -10 -57
-17 8 -5 40 -6 72 -3 l57 7 0 -37 c0 -41 -1 -41 -114 -51 -39 -3 -72 -8 -74
-10 -14 -14 41 -16 136 -6 59 6 155 11 215 11 61 0 107 4 107 10 0 15 -68 23
-146 16 -41 -4 -78 -5 -82 -2 -5 3 -6 20 -4 39 l4 35 80 7 c61 5 78 9 69 18
-12 12 -97 13 -133 1 -17 -5 -19 -2 -13 30 6 31 5 36 -12 36 -11 0 -23 -3 -26
-7z"/>
</g>
</g>
</svg>