<?xml version="1.0" standalone="no"?>
<!DOCTYPE svg PUBLIC "-//W3C//DTD SVG 20010904//EN"
 "http://www.w3.org/TR/2001/REC-SVG-20010904/DTD/svg10.dtd">
<svg version="1.0" xmlns="http://www.w3.org/2000/svg"
 width="96.000000pt" height="68.000000pt" viewBox="0 0 96.000000 68.000000"
 preserveAspectRatio="xMidYMid meet">
<metadata>
Created by potrace 1.16, written by Peter Selinger 2001-2019
Combined from part_0.svg through part_5.svg with named groups
</metadata>
<g transform="translate(0.000000,68.000000) scale(0.100000,-0.100000)" fill="#000000" stroke="none">
<g id="part-0" class="char-part">
  <path d="M260 571 c0 -13 71 -71 86 -71 15 0 25 26 18 45 -9 22 -104 46 -104
26z"/>
  <path d="M615 564 c-38 -7 -91 -13 -117 -13 l-46 -1 13 -27 c7 -16 19 -54 26
-86 12 -57 12 -57 -17 -85 -16 -15 -36 -36 -44 -46 -15 -19 -14 -19 17 -3 40
21 123 23 123 3 0 -7 -16 -33 -34 -57 -19 -24 -33 -45 -31 -47 6 -6 65 38 65
49 0 17 32 9 62 -16 30 -25 62 -32 72 -16 9 14 -27 39 -67 46 -28 5 -35 11
-28 18 6 6 11 19 11 29 0 16 9 18 71 18 l70 0 -2 -91 c-4 -111 -19 -150 -59
-145 -15 2 -32 6 -39 10 -21 14 -11 -12 18 -43 35 -37 51 -39 78 -9 33 37 36
48 49 148 6 52 15 102 18 111 5 11 -1 21 -18 32 -23 15 -37 16 -153 3 -71 -7
-132 -9 -137 -5 -6 6 -6 9 0 9 5 0 16 5 24 10 13 8 12 11 -4 23 -17 12 -12 14
49 20 46 4 73 3 82 -5 11 -9 17 -8 27 3 14 15 56 123 56 143 0 12 -42 37 -58
35 -4 -1 -38 -7 -77 -15z m63 -41 c-3 -22 -8 -26 -38 -28 -19 0 -56 -5 -81 -9
-45 -8 -47 -7 -51 18 -4 21 -1 27 16 31 31 7 76 12 119 14 36 1 38 -1 35 -26z
m2 -62 c0 -29 -19 -37 -92 -40 -63 -3 -68 -1 -68 17 0 17 9 22 48 27 26 4 52
8 57 10 30 10 55 4 55 -14z"/>
  <path d="M289 450 c-9 -5 -49 -13 -88 -16 -74 -7 -89 -18 -46 -34 16 -6 46 -5
92 5 37 8 69 13 71 11 7 -8 -119 -144 -157 -171 -23 -15 -41 -32 -41 -37 0
-16 43 2 103 43 l57 40 0 -58 c0 -32 -5 -75 -11 -97 -12 -42 3 -96 27 -96 18
0 25 29 33 132 l6 89 34 -25 c19 -14 38 -23 42 -20 19 11 7 41 -23 59 l-32 18
32 16 c35 16 40 43 8 49 -11 3 -29 -9 -46 -30 -25 -29 -29 -31 -36 -15 -5 14
6 31 42 68 47 48 48 51 30 65 -22 16 -73 18 -97 4z"/>
  <path d="M436 231 c3 -20 7 -50 10 -68 l5 -31 121 1 c87 2 122 6 125 15 4 9
-22 12 -106 12 l-111 0 -1 28 c-3 74 -4 77 -26 78 -19 1 -21 -3 -17 -35z"/>
</g>
<g id="part-1" class="char-part">
  <path d="M295 540 c33 -34 65 -40 65 -12 0 20 -38 42 -72 42 -21 0 -20 -2 7
-30z"/>
  <path d="M270 444 c-30 -8 -72 -16 -94 -20 -28 -4 -36 -8 -27 -17 8 -8 32 -7
91 2 45 8 83 12 85 9 7 -7 -97 -122 -148 -163 -27 -22 -44 -41 -38 -43 11 -4
47 17 102 60 32 24 38 26 43 11 8 -19 -3 -127 -15 -161 -6 -16 -4 -33 7 -54
16 -30 17 -31 30 -13 10 13 14 48 14 110 0 51 3 95 6 98 4 4 20 -5 36 -18 34
-29 44 -31 52 -10 5 15 -28 45 -51 45 -24 0 -13 16 23 33 30 15 34 20 24 32
-19 23 -34 18 -54 -16 -17 -29 -45 -36 -53 -12 -2 6 19 34 46 61 l51 51 -22
15 c-26 18 -33 18 -108 0z"/>
</g>
<g id="part-2" class="char-part">
  <path d="M610 564 c-36 -7 -86 -13 -112 -14 l-47 0 15 -27 c7 -16 14 -32 14
-38 0 -5 5 -28 11 -49 l11 -39 77 6 c53 4 82 2 90 -6 17 -17 34 6 64 86 l25
67 -28 15 c-33 17 -33 17 -120 -1z m70 -43 c0 -27 -2 -28 -42 -27 -24 0 -62
-3 -85 -7 -42 -8 -43 -8 -43 17 0 21 6 26 38 31 20 4 42 8 47 10 6 2 27 4 48
4 34 1 37 -1 37 -28z m-1 -53 c-2 -36 -15 -43 -86 -47 -68 -3 -73 -2 -73 17 0
17 8 22 48 27 26 4 52 8 57 10 24 8 55 4 54 -7z"/>
</g>
<g id="part-3" class="char-part">
  <path d="M500 391 c0 -4 -19 -30 -42 -56 -40 -45 -41 -47 -12 -32 22 11 68 16
170 19 l139 3 -1 -97 c0 -81 -4 -101 -19 -118 -19 -21 -34 -21 -81 -3 -12 4
-7 -7 16 -35 40 -50 60 -52 94 -11 29 34 30 38 44 154 5 44 13 87 16 96 5 11
-2 22 -19 33 -23 15 -37 16 -113 7 -48 -6 -107 -11 -132 -11 -42 1 -44 1 -25
16 20 15 20 15 1 30 -22 16 -36 18 -36 5z"/>
</g>
<g id="part-4" class="char-part">
  <path d="M440 219 c0 -87 5 -91 128 -88 116 2 155 10 131 25 -8 4 -60 7 -116
5 -112 -3 -107 -6 -103 58 2 30 -11 50 -32 51 -5 0 -8 -23 -8 -51z"/>
</g>
</g>
</svg>