<?xml version="1.0" standalone="no"?>
<!DOCTYPE svg PUBLIC "-//W3C//DTD SVG 20010904//EN"
 "http://www.w3.org/TR/2001/REC-SVG-20010904/DTD/svg10.dtd">
<svg version="1.0" xmlns="http://www.w3.org/2000/svg"
 width="96.000000pt" height="68.000000pt" viewBox="0 0 96.000000 68.000000"
 preserveAspectRatio="xMidYMid meet">
<metadata>
Created by potrace 1.16, written by Peter Selinger 2001-2019
Combined from part_0.svg through part_5.svg with named groups
</metadata>
<g transform="translate(0.000000,68.000000) scale(0.100000,-0.100000)" fill="#000000" stroke="none">
<g id="part-0" class="char-part">
  <path d="M538 560 c5 -67 8 -65 -101 -74 -58 -4 -84 -15 -59 -23 16 -6 16 -88
-2 -146 -12 -42 -67 -132 -91 -149 -7 -5 -6 -8 1 -8 20 0 91 80 111 127 22 51
43 131 43 162 0 13 10 20 31 25 36 7 59 -7 59 -35 0 -15 -8 -19 -37 -21 l-38
-1 35 -4 c18 -3 42 -13 51 -24 15 -17 28 -19 95 -17 53 2 79 7 82 16 3 10 -13
13 -74 10 -91 -3 -111 12 -34 26 65 11 66 29 1 20 -46 -6 -50 -5 -48 14 1 16
10 21 45 26 56 8 112 8 112 0 0 -3 -5 -14 -11 -25 -10 -19 -9 -19 25 -5 69 29
70 31 34 50 -28 15 -44 17 -111 9 -62 -7 -80 -7 -84 3 -9 25 9 34 68 34 47 0
59 3 59 16 0 14 -9 15 -60 9 -56 -6 -60 -5 -60 13 0 18 -18 32 -39 32 -4 0 -5
-27 -3 -60z"/>
  <path d="M169 513 c23 -43 78 -77 100 -63 35 21 -30 80 -89 80 -17 0 -19 -3
-11 -17z"/>
  <path d="M147 348 c-69 -23 -65 -42 7 -36 38 3 45 1 40 -12 -15 -37 -15 -50 5
-77 11 -15 24 -43 27 -60 l7 -33 -72 0 c-56 0 -71 -3 -71 -15 0 -24 37 -38 72
-26 58 20 102 12 332 -58 116 -37 173 -38 269 -10 129 39 116 45 -108 53 -84
4 -192 14 -245 25 -158 32 -149 28 -143 67 5 29 1 38 -25 61 l-30 28 41 43
c40 42 41 44 23 58 -25 18 -57 16 -129 -8z"/>
  <path d="M543 337 c-88 -10 -112 -27 -40 -27 l42 -1 -24 -19 c-13 -11 -31 -20
-42 -20 -10 0 -21 -4 -24 -10 -9 -14 10 -12 52 5 40 17 53 19 53 8 -1 -10 -72
-54 -113 -71 l-32 -12 34 5 c19 3 59 16 88 30 29 13 53 20 53 15 0 -15 -62
-57 -110 -76 -48 -18 -72 -34 -53 -34 7 0 47 13 90 30 42 17 78 30 79 30 1 0
-1 -12 -5 -27 -5 -20 -15 -29 -34 -31 l-26 -3 20 -20 c42 -42 99 12 83 77 -4
14 -2 24 4 24 10 0 58 -37 94 -73 32 -31 63 -16 40 20 -5 7 -35 26 -68 42
-130 64 -155 115 -63 127 27 4 46 10 43 15 -6 10 -28 10 -141 -4z"/>
  <path d="M667 278 c-15 -17 -26 -33 -23 -35 7 -8 96 41 93 52 -7 22 -43 14
-70 -17z"/>
</g>
<g id="part-1" class="char-part">
  <path d="M170 522 c0 -15 66 -72 83 -72 25 0 21 37 -5 54 -29 17 -78 29 -78
18z"/>
  <path d="M155 344 l-60 -23 58 0 58 -1 -16 -30 c-15 -29 -14 -32 10 -67 14
-21 25 -50 25 -65 0 -25 -4 -27 -54 -33 -30 -4 -60 -4 -66 0 -8 5 -11 1 -8
-11 3 -17 12 -19 88 -16 78 3 98 0 253 -47 92 -28 180 -51 195 -51 28 0 200
44 210 54 3 3 -10 6 -29 6 -218 0 -568 51 -560 81 2 8 6 22 8 31 3 11 -8 31
-30 53 l-35 35 44 38 45 37 -22 18 c-27 21 -39 20 -114 -9z"/>
</g>
<g id="part-2" class="char-part">
  <path d="M526 612 c-2 -4 -1 -14 5 -22 5 -8 9 -32 9 -52 0 -44 24 -53 34 -13
6 23 11 25 66 25 58 0 85 12 54 24 -9 4 -39 3 -67 0 -43 -6 -49 -5 -44 8 10
27 -42 54 -57 30z"/>
</g>
<g id="part-3" class="char-part">
  <path d="M524 456 c5 -22 2 -26 -21 -32 -47 -10 -49 -12 -13 -13 24 -1 39 -8
48 -21 10 -17 23 -20 81 -20 73 0 101 6 101 22 0 6 -31 7 -80 2 -68 -5 -80 -4
-80 8 0 11 15 17 50 22 28 4 48 11 45 16 -3 5 -26 7 -51 3 -41 -5 -45 -4 -42
13 2 14 -4 20 -21 22 -21 3 -23 1 -17 -22z"/>
</g>
<g id="part-4" class="char-part">
  <path d="M663 273 c-18 -19 -33 -38 -33 -42 0 -11 125 -111 139 -111 17 0 13
25 -6 42 -10 9 -42 28 -71 42 -29 15 -50 30 -48 35 3 4 26 16 51 25 47 18 56
30 29 40 -23 9 -26 7 -61 -31z"/>
</g>
</g>
</svg>