<?xml version="1.0" standalone="no"?>
<!DOCTYPE svg PUBLIC "-//W3C//DTD SVG 20010904//EN"
 "http://www.w3.org/TR/2001/REC-SVG-20010904/DTD/svg10.dtd">
<svg version="1.0" xmlns="http://www.w3.org/2000/svg"
 width="96.000000pt" height="68.000000pt" viewBox="0 0 96.000000 68.000000"
 preserveAspectRatio="xMidYMid meet">
<metadata>
Created by potrace 1.16, written by Peter Selinger 2001-2019
Combined from part_0.svg through part_5.svg with named groups
</metadata>
<g transform="translate(0.000000,68.000000) scale(0.100000,-0.100000)" fill="#000000" stroke="none">
<g id="part-0" class="char-part">
  <path d="M536 583 c4 -10 10 -50 12 -89 l4 -72 -73 -12 c-84 -14 -76 -34 10
-24 l54 7 -24 -44 c-13 -24 -56 -77 -95 -117 -40 -39 -68 -72 -63 -72 18 0 95
54 135 96 23 23 44 41 46 39 5 -5 -9 -180 -17 -204 -7 -23 25 -64 42 -53 8 5
12 54 14 150 2 79 6 145 10 148 4 2 24 -22 45 -54 57 -85 83 -111 120 -118 34
-6 94 3 94 14 -1 4 -23 17 -49 30 -41 19 -89 51 -136 90 -19 16 -75 85 -75 93
0 12 30 19 87 19 39 0 53 3 50 13 -3 8 -25 12 -66 11 l-63 -1 3 67 c4 76 -8
100 -48 100 -20 0 -24 -3 -17 -17z"/>
  <path d="M257 506 l6 -84 -49 -7 c-82 -11 -104 -16 -104 -26 0 -5 32 -9 71 -9
l70 0 -28 -52 c-15 -29 -52 -78 -80 -109 -29 -31 -53 -60 -53 -63 0 -19 82 31
124 76 l49 53 -6 -60 c-4 -33 -9 -80 -12 -105 -7 -51 11 -88 39 -77 14 5 16
25 16 132 0 69 3 125 8 125 4 0 18 -12 31 -26 27 -29 45 -27 49 5 3 18 -4 25
-37 38 -35 13 -41 21 -41 44 0 29 5 32 65 41 11 2 20 10 20 18 0 11 -11 15
-42 14 -25 0 -43 4 -42 10 0 6 4 33 8 60 7 41 5 52 -10 67 -11 11 -28 19 -38
19 -17 0 -18 -6 -14 -84z"/>
</g>
<g id="part-1" class="char-part">
  <path d="M258 558 c4 -18 7 -58 7 -88 l0 -55 -80 -11 c-56 -7 -74 -13 -62 -19
10 -4 43 -5 73 -1 40 5 54 3 54 -6 0 -25 -60 -117 -109 -167 -27 -28 -45 -51
-39 -51 21 0 78 42 119 88 l42 47 -7 -110 c-8 -113 -3 -145 19 -145 21 0 25
25 25 153 l0 121 29 -28 c30 -29 61 -30 61 -3 0 13 -18 23 -73 41 -14 4 -17
14 -15 38 3 30 7 33 47 40 24 4 46 10 49 13 11 11 -11 20 -50 19 l-40 -1 6 68
c7 68 7 69 -19 79 -41 15 -45 13 -37 -22z"/>
</g>
<g id="part-2" class="char-part">
  <path d="M536 583 c4 -10 10 -50 12 -89 l4 -72 -71 -12 c-88 -15 -87 -35 1
-26 l59 7 -12 -23 c-27 -50 -90 -127 -141 -171 -29 -26 -48 -47 -42 -47 20 0
131 79 164 116 17 20 33 35 35 33 4 -5 -13 -179 -20 -196 -7 -19 15 -73 30
-73 20 0 25 24 26 133 0 56 3 119 7 141 l7 39 50 -73 c60 -86 87 -110 129
-110 37 0 76 10 76 19 0 3 -27 19 -59 35 -64 31 -147 98 -182 148 -28 38 -16
48 64 48 31 0 57 4 57 10 0 14 -46 23 -90 17 -21 -3 -40 -3 -43 -1 -2 2 0 32
4 66 8 71 -5 98 -49 98 -19 0 -23 -3 -16 -17z"/>
</g>
</g>
</svg>