<?xml version="1.0" standalone="no"?>
<!DOCTYPE svg PUBLIC "-//W3C//DTD SVG 20010904//EN"
 "http://www.w3.org/TR/2001/REC-SVG-20010904/DTD/svg10.dtd">
<svg version="1.0" xmlns="http://www.w3.org/2000/svg"
 width="96.000000pt" height="68.000000pt" viewBox="0 0 96.000000 68.000000"
 preserveAspectRatio="xMidYMid meet">
<metadata>
Created by potrace 1.16, written by Peter Selinger 2001-2019
Combined from part_0.svg through part_5.svg with named groups
</metadata>
<g transform="translate(0.000000,68.000000) scale(0.100000,-0.100000)" fill="#000000" stroke="none">
<g id="part-0" class="char-part">
  <path d="M420 621 c0 -5 15 -18 33 -30 17 -11 55 -43 82 -72 28 -28 69 -67 93
-87 40 -33 45 -34 100 -29 31 3 71 11 87 18 l30 12 -50 13 c-140 38 -189 63
-284 146 -40 35 -91 51 -91 29z"/>
  <path d="M294 555 c-17 -37 -101 -112 -158 -143 -26 -13 -28 -17 -12 -20 27
-6 153 60 213 111 48 41 51 46 35 60 -9 8 -27 18 -39 21 -18 6 -25 1 -39 -29z"/>
  <path d="M450 465 c-41 -8 -99 -14 -128 -14 -33 -1 -51 -5 -47 -11 3 -5 22
-10 41 -10 19 0 34 -5 34 -11 0 -25 -35 -67 -86 -104 -29 -21 -51 -41 -49 -43
8 -9 118 53 159 89 40 36 40 37 23 56 -17 20 -16 20 50 26 37 4 71 3 75 -1 10
-10 -10 -83 -30 -105 -9 -10 -23 -15 -34 -11 -10 3 -18 3 -18 -1 0 -14 33 -55
45 -55 23 0 63 58 78 112 18 63 18 88 1 88 -7 0 -18 2 -26 4 -7 2 -47 -2 -88
-9z"/>
  <path d="M416 261 c-4 -5 -3 -18 2 -30 4 -11 6 -40 4 -65 l-4 -44 -65 -7 c-35
-4 -67 -5 -70 -2 -2 3 0 22 6 44 9 32 8 40 -6 51 -28 21 -38 14 -39 -28 -1
-22 -9 -51 -19 -66 -15 -24 -15 -28 -2 -42 14 -13 24 -13 99 1 70 14 243 36
286 37 7 0 11 -4 8 -9 -8 -12 3 -41 15 -41 14 0 29 36 40 96 11 61 5 74 -37
74 -18 0 -20 -6 -20 -47 l1 -48 -72 -3 -71 -3 5 60 c6 59 5 61 -21 71 -33 12
-33 12 -40 1z"/>
</g>
<g id="part-1" class="char-part">
  <path d="M420 621 c0 -5 9 -12 19 -16 11 -3 57 -42 102 -86 46 -45 92 -87 103
-95 30 -21 176 -16 176 6 0 4 -26 12 -57 19 -86 19 -129 41 -225 114 -82 62
-118 80 -118 58z"/>
  <path d="M300 556 c-11 -31 -70 -88 -131 -127 -27 -17 -49 -33 -49 -35 0 -1
20 3 44 10 45 14 125 63 186 116 34 29 34 31 16 45 -29 22 -55 18 -66 -9z"/>
</g>
<g id="part-2" class="char-part">
  <path d="M445 464 c-44 -7 -101 -13 -127 -13 -27 -1 -48 -5 -48 -11 0 -13 54
-13 159 0 46 6 88 7 92 3 11 -11 -9 -83 -28 -105 -11 -12 -24 -16 -41 -11
l-25 6 24 -32 c12 -17 29 -31 36 -31 26 0 58 48 77 115 19 66 19 68 1 81 -10
8 -24 13 -29 13 -6 -1 -47 -8 -91 -15z"/>
</g>
<g id="part-3" class="char-part">
  <path d="M363 433 c-7 -3 -13 -11 -13 -19 0 -19 -64 -89 -106 -115 -20 -12
-33 -23 -31 -26 10 -9 115 47 157 85 45 40 45 41 25 60 -11 11 -26 18 -32 15z"/>
</g>
<g id="part-4" class="char-part">
  <path d="M418 197 l4 -74 -38 -6 c-55 -9 -104 -9 -104 2 0 4 5 23 12 41 9 29
9 35 -7 47 -31 22 -47 17 -41 -14 4 -19 -1 -41 -15 -67 -18 -35 -19 -40 -5
-54 13 -13 24 -13 98 1 93 18 228 37 263 37 16 0 25 -7 29 -25 13 -53 37 -24
56 69 13 64 7 76 -36 76 -19 0 -21 -4 -16 -50 l5 -50 -77 0 -77 0 7 65 c5 52
4 65 -7 65 -8 0 -23 3 -35 6 -20 5 -21 3 -16 -69z"/>
</g>
</g>
</svg>