<?xml version="1.0" standalone="no"?>
<!DOCTYPE svg PUBLIC "-//W3C//DTD SVG 20010904//EN"
 "http://www.w3.org/TR/2001/REC-SVG-20010904/DTD/svg10.dtd">
<svg version="1.0" xmlns="http://www.w3.org/2000/svg"
 width="96.000000pt" height="68.000000pt" viewBox="0 0 96.000000 68.000000"
 preserveAspectRatio="xMidYMid meet">
<metadata>
Created by potrace 1.16, written by Peter Selinger 2001-2019
Combined from part_0.svg through part_5.svg with named groups
</metadata>
<g transform="translate(0.000000,68.000000) scale(0.100000,-0.100000)" fill="#000000" stroke="none">
<g id="part-0" class="char-part">
  <path d="M258 511 c5 -100 10 -94 -80 -107 -27 -3 -48 -10 -48 -14 0 -15 39
-21 85 -14 l45 6 0 -39 c0 -37 -3 -41 -40 -58 -23 -10 -47 -18 -55 -18 -8 0
-15 -4 -15 -8 0 -4 -16 -13 -36 -19 -39 -13 -40 -28 -2 -49 23 -13 29 -11 86
28 l62 42 0 -54 c0 -63 -12 -78 -54 -70 l-31 5 48 -48 48 -49 20 24 c16 20 19
39 19 125 l0 101 32 28 33 29 -32 -6 c-30 -5 -33 -3 -33 19 0 24 4 26 65 40
29 6 29 7 10 21 -12 9 -31 13 -46 10 -26 -5 -27 -4 -22 37 3 23 9 46 14 52 20
21 9 53 -22 64 -57 20 -57 19 -51 -78z"/>
  <path d="M687 490 c6 -99 6 -100 -17 -100 -53 0 -152 -23 -139 -31 13 -9 101
-4 142 7 15 5 17 -4 17 -89 0 -52 -3 -109 -6 -127 -7 -31 -8 -32 -48 -26 l-41
6 50 -44 c50 -45 50 -45 68 -24 14 17 17 42 17 163 l0 143 31 6 c17 3 44 6 60
6 16 0 29 4 29 9 0 13 -53 23 -83 16 -13 -4 -27 -3 -30 2 -3 5 1 41 9 79 14
67 14 69 -7 87 -12 9 -29 17 -39 17 -17 0 -18 -8 -13 -100z"/>
  <path d="M487 533 c-4 -3 -7 -16 -7 -28 0 -28 -38 -100 -90 -170 -22 -30 -38
-55 -34 -55 3 0 24 14 47 32 l40 32 -6 -115 c-6 -111 1 -155 22 -134 11 12 18
233 7 256 -4 10 9 39 39 85 25 38 45 72 45 76 0 8 -34 28 -48 28 -5 0 -12 -3
-15 -7z"/>
  <path d="M556 260 c28 -46 64 -51 64 -9 0 19 -34 39 -66 39 -13 0 -12 -5 2
-30z"/>
</g>
<g id="part-1" class="char-part">
  <path d="M256 591 c-3 -5 -1 -22 5 -39 5 -16 9 -54 7 -83 l-3 -54 -70 -11
c-83 -13 -66 -30 21 -21 l54 6 0 -43 0 -43 -87 -37 c-49 -21 -90 -40 -92 -42
-8 -7 22 -34 38 -34 9 0 43 18 76 40 32 21 60 38 62 36 1 -1 0 -33 -4 -70 l-6
-68 -36 6 -35 5 42 -42 43 -42 20 24 c16 20 19 39 19 123 0 95 1 101 26 120
29 23 26 35 -5 18 -19 -10 -21 -8 -21 23 0 32 2 35 40 41 48 8 44 26 -6 26
-29 0 -34 3 -34 24 0 13 7 43 15 66 8 23 15 44 15 47 0 4 -65 33 -74 33 -3 0
-7 -4 -10 -9z"/>
</g>
<g id="part-2" class="char-part">
  <path d="M480 514 c0 -34 -41 -115 -91 -181 -45 -60 -37 -69 17 -21 l37 32 -4
-124 c-3 -106 -2 -125 11 -125 12 0 16 23 21 120 3 69 2 125 -4 132 -6 8 6 37
38 88 39 62 45 78 35 90 -7 8 -23 15 -36 15 -19 0 -24 -5 -24 -26z"/>
</g>
<g id="part-3" class="char-part">
  <path d="M676 573 c4 -10 9 -54 12 -99 l4 -81 -64 -7 c-34 -4 -74 -10 -87 -13
-21 -5 -21 -7 -7 -15 16 -9 95 -4 139 8 15 5 17 -4 17 -83 0 -48 -3 -105 -7
-127 l-6 -38 -41 5 -41 6 50 -44 c50 -44 50 -44 68 -23 14 17 17 42 17 163 l0
143 60 7 c33 4 60 11 60 15 0 12 -54 22 -83 15 -13 -4 -27 -3 -30 2 -5 8 3 65
18 129 6 26 3 32 -20 42 -40 18 -69 16 -59 -5z"/>
</g>
<g id="part-4" class="char-part">
  <path d="M546 278 c15 -26 48 -58 61 -58 24 0 15 46 -12 58 -34 16 -58 15 -49
0z"/>
</g>
</g>
</svg>