<?xml version="1.0" standalone="no"?>
<!DOCTYPE svg PUBLIC "-//W3C//DTD SVG 20010904//EN"
 "http://www.w3.org/TR/2001/REC-SVG-20010904/DTD/svg10.dtd">
<svg version="1.0" xmlns="http://www.w3.org/2000/svg"
 width="96.000000pt" height="68.000000pt" viewBox="0 0 96.000000 68.000000"
 preserveAspectRatio="xMidYMid meet">
<metadata>
Created by potrace 1.16, written by Peter Selinger 2001-2019
Combined from part_0.svg through part_5.svg with named groups
</metadata>
<g transform="translate(0.000000,68.000000) scale(0.100000,-0.100000)" fill="#000000" stroke="none">
<g id="part-0" class="char-part">
  <path d="M635 559 c-49 -5 -125 -10 -167 -12 -43 -1 -78 -3 -78 -3 0 -1 7 -15
15 -30 8 -16 15 -39 15 -50 0 -34 20 -41 93 -35 37 4 70 5 72 3 8 -8 -20 -70
-54 -117 -36 -49 -36 -50 -8 -32 16 10 31 16 34 13 7 -7 5 -215 -2 -226 -9
-15 6 -60 21 -60 7 0 16 15 19 34 l7 33 99 12 c55 6 111 11 124 11 14 0 25 5
25 10 0 11 -16 13 -80 11 -42 -2 -46 0 -48 22 -1 22 3 26 43 32 57 8 58 25 2
25 -35 0 -43 3 -44 19 -1 15 7 21 38 26 48 8 52 25 5 25 -43 0 -57 26 -20 40
14 6 36 10 50 10 13 0 24 4 24 9 0 15 -27 20 -66 14 -26 -4 -35 -3 -30 5 7 12
-27 52 -44 52 -5 0 -10 -9 -10 -20 0 -11 5 -20 10 -20 15 0 12 -30 -2 -31 -7
0 -32 -2 -55 -5 -28 -4 -43 -2 -43 5 0 6 3 11 8 11 4 0 15 15 25 32 17 29 17
33 3 44 -29 21 -17 26 44 22 l61 -4 34 48 c19 26 35 51 35 54 0 12 -34 33 -50
32 -8 0 -55 -5 -105 -9z m-15 -36 c0 -39 -13 -62 -37 -68 -30 -7 -43 7 -43 47
0 29 10 36 53 37 19 1 27 -4 27 -16z m98 -23 c-10 -38 -12 -40 -49 -40 -22 0
-39 2 -39 5 0 2 8 20 17 40 14 29 22 35 49 35 l32 0 -10 -40z m-204 -2 c11
-42 7 -48 -28 -48 -26 0 -35 5 -40 23 -11 41 -7 47 28 47 26 0 35 -5 40 -22z
m167 -220 c-6 -16 -18 -23 -45 -26 -33 -3 -36 -1 -36 22 0 24 3 26 45 26 42 0
44 -1 36 -22z m-1 -67 c0 -18 -25 -31 -62 -31 -13 0 -18 8 -18 25 0 23 4 25
40 25 33 0 40 -4 40 -19z m0 -76 c0 -14 -4 -25 -9 -25 -5 0 -23 -3 -40 -6 -29
-6 -31 -5 -31 25 0 30 2 31 40 31 36 0 40 -2 40 -25z"/>
  <path d="M290 538 c0 -7 -8 -25 -18 -41 l-18 -27 -40 30 c-66 50 -88 37 -29
-19 19 -18 35 -37 35 -41 0 -5 -17 -22 -37 -37 -97 -72 -97 -90 1 -38 l66 35
0 -43 c0 -52 -25 -83 -115 -147 -35 -25 -50 -39 -35 -35 25 7 84 40 128 71 22
16 22 16 22 -34 0 -27 -3 -64 -6 -82 -7 -32 -7 -32 -56 -27 l-49 6 43 -39 c24
-22 49 -39 57 -37 60 10 86 213 46 368 -5 21 1 33 34 67 46 47 49 57 22 72
-27 14 -51 13 -51 -2z"/>
  <path d="M396 383 c-4 -15 -23 -44 -42 -64 -29 -30 -33 -38 -21 -48 11 -8 22
-9 42 -1 41 16 42 5 1 -36 -61 -61 -40 -78 49 -39 40 18 61 23 68 16 18 -18
29 -13 25 10 -2 12 -14 26 -27 30 -18 7 -22 6 -18 -6 4 -10 -4 -17 -30 -24
-20 -6 -38 -9 -40 -7 -2 2 21 29 52 60 59 61 62 67 41 85 -11 9 -17 5 -32 -16
-27 -42 -40 -53 -63 -53 -30 0 -26 13 14 57 38 41 40 56 8 61 -15 2 -22 -4
-27 -25z"/>
  <path d="M470 172 c0 -11 35 -52 44 -52 15 0 4 40 -13 50 -24 12 -31 13 -31 2z"/>
  <path d="M400 142 c0 -10 43 -52 53 -52 4 0 7 9 7 20 0 13 -10 24 -26 30 -31
12 -34 12 -34 2z"/>
  <path d="M330 119 c0 -15 33 -79 41 -79 31 0 11 75 -22 83 -10 3 -19 1 -19 -4z"/>
</g>
<g id="part-1" class="char-part">
  <path d="M290 531 c0 -10 -8 -29 -18 -42 l-19 -22 -35 26 c-52 40 -67 32 -24
-12 21 -22 36 -44 32 -49 -3 -5 -28 -27 -56 -48 -27 -21 -48 -40 -45 -42 2 -2
30 10 61 28 45 25 59 29 66 18 13 -18 4 -248 -11 -276 -10 -19 -18 -22 -49
-17 l-37 6 35 -30 c19 -17 43 -31 52 -31 47 0 72 168 48 316 l-12 76 42 43 42
43 -23 16 c-31 21 -49 20 -49 -3z"/>
</g>
<g id="part-2" class="char-part">
  <path d="M209 274 c-18 -19 -56 -49 -83 -67 -58 -36 -47 -48 16 -16 64 32 118
78 118 100 0 27 -12 24 -51 -17z"/>
</g>
<g id="part-3" class="char-part">
  <path d="M580 554 c-74 -7 -151 -11 -170 -8 -33 6 -34 5 -18 -13 9 -10 19 -34
23 -54 11 -58 10 -57 130 -47 61 5 124 7 142 4 28 -4 35 0 72 50 l40 54 -22
15 c-24 17 -16 17 -197 -1z m139 -46 c-5 -17 -12 -35 -16 -39 -5 -4 -63 -11
-130 -14 -101 -6 -123 -5 -123 6 0 8 -3 23 -6 35 -5 18 1 22 53 31 32 5 97 11
145 12 l87 1 -10 -32z"/>
</g>
<g id="part-4" class="char-part">
  <path d="M616 509 c-12 -62 1 -68 27 -14 21 44 21 45 -2 45 -13 0 -20 -10 -25
-31z"/>
</g>
<g id="part-5" class="char-part">
  <path d="M691 200 c-10 -24 -10 -34 -1 -45 6 -8 9 -23 5 -35 -4 -11 -2 -20 4
-20 6 0 12 7 12 15 1 8 2 21 3 28 1 6 -3 15 -9 19 -6 5 -2 8 9 8 12 0 16 5 12
16 -3 9 -6 22 -6 30 0 24 -14 16 -29 -16z"/>
  <path d="M755 190 c-19 -8 -19 -9 3 -9 12 -1 22 4 22 9 0 6 -1 10 -2 9 -2 0
-12 -4 -23 -9z"/>
  <path d="M640 166 c7 -7 13 -7 20 0 6 6 3 10 -10 10 -13 0 -16 -4 -10 -10z"/>
  <path d="M750 112 c0 -4 21 -9 48 -10 33 -1 43 1 32 8 -18 12 -80 13 -80 2z"/>
  <path d="M620 90 c-13 -8 -12 -10 3 -10 9 0 17 5 17 10 0 12 -1 12 -20 0z"/>
  <path d="M658 93 c7 -3 16 -2 19 1 4 3 -2 6 -13 5 -11 0 -14 -3 -6 -6z"/>
</g>
</g>
</svg>