<?xml version="1.0" standalone="no"?>
<!DOCTYPE svg PUBLIC "-//W3C//DTD SVG 20010904//EN"
 "http://www.w3.org/TR/2001/REC-SVG-20010904/DTD/svg10.dtd">
<svg version="1.0" xmlns="http://www.w3.org/2000/svg"
 width="96.000000pt" height="68.000000pt" viewBox="0 0 96.000000 68.000000"
 preserveAspectRatio="xMidYMid meet">
<metadata>
Created by potrace 1.16, written by Peter Selinger 2001-2019
Combined from part_0.svg through part_5.svg with named groups
</metadata>
<g transform="translate(0.000000,68.000000) scale(0.100000,-0.100000)" fill="#000000" stroke="none">
<g id="part-0" class="char-part">
  <path d="M530 621 c0 -5 -14 -26 -31 -46 -18 -20 -29 -38 -26 -41 7 -8 104 35
118 53 15 17 4 29 -33 38 -18 5 -28 3 -28 -4z"/>
  <path d="M326 588 c31 -55 94 -80 94 -37 0 13 -11 25 -35 35 -43 18 -69 18
-59 2z"/>
  <path d="M574 540 c-11 -4 -87 -15 -169 -24 -82 -9 -151 -19 -154 -21 -13 -13
18 -19 94 -17 68 1 85 -1 85 -13 0 -10 -18 -16 -60 -21 -77 -9 -77 -24 0 -24
44 0 60 -4 60 -14 0 -14 -30 -20 -172 -32 -43 -4 -78 -10 -78 -15 0 -14 64
-20 115 -10 27 5 52 7 54 5 12 -12 -108 -109 -184 -148 -31 -16 -42 -26 -30
-26 11 0 58 21 104 45 46 25 87 43 90 40 11 -12 13 -151 3 -189 -12 -42 -7
-66 14 -66 7 0 41 18 75 40 67 43 66 49 -1 25 -23 -8 -44 -15 -47 -15 -2 0 -3
19 -1 42 l3 43 74 2 c40 0 76 5 81 10 4 4 15 32 26 61 25 73 17 79 -83 64 -94
-15 -133 -15 -133 -2 0 15 36 30 72 30 53 0 108 12 102 21 -3 5 -29 6 -59 3
-51 -6 -54 -6 -48 15 4 17 13 21 47 21 36 0 52 -8 112 -57 38 -31 71 -59 74
-63 3 -3 19 -16 37 -28 32 -23 92 -28 143 -12 l25 7 -25 10 c-14 6 -41 14 -60
18 -58 12 -220 105 -220 126 0 5 43 9 96 9 72 0 95 3 91 13 -3 9 -36 11 -131
8 -120 -3 -128 -2 -124 15 2 14 13 20 38 22 19 1 46 5 59 8 47 10 -1 25 -59
18 -48 -6 -53 -5 -42 8 7 8 38 18 69 22 77 9 104 16 97 27 -10 17 -39 27 -60
19z m-54 -289 c0 -15 -10 -19 -52 -24 -29 -3 -61 -8 -70 -12 -14 -5 -18 -2
-18 13 0 21 2 22 90 35 47 8 50 7 50 -12z m-10 -61 c-8 -15 -21 -20 -55 -20
-24 0 -50 -3 -59 -6 -11 -4 -16 0 -16 14 0 22 18 27 103 30 35 2 37 0 27 -18z"/>
  <path d="M600 190 c0 -5 -14 -25 -31 -45 -28 -31 -36 -35 -63 -29 -39 8 -37 6
56 -55 100 -65 118 -69 104 -25 -4 14 -26 30 -56 43 -28 12 -50 25 -50 30 0 4
18 16 40 26 49 22 56 31 40 50 -14 17 -40 20 -40 5z"/>
</g>
<g id="part-1" class="char-part">
  <path d="M530 611 c0 -5 -12 -23 -26 -40 -32 -38 -17 -39 47 -4 55 29 59 38
27 47 -33 8 -48 7 -48 -3z"/>
  <path d="M341 573 c35 -45 69 -56 69 -23 0 22 -28 40 -61 40 -19 0 -20 -2 -8
-17z"/>
  <path d="M550 531 c-14 -5 -85 -14 -158 -21 -72 -7 -132 -17 -132 -22 0 -13
142 -9 257 8 59 9 110 18 112 20 14 14 -47 25 -79 15z"/>
</g>
<g id="part-2" class="char-part">
  <path d="M510 353 c14 -10 62 -48 108 -85 78 -63 87 -68 130 -67 26 1 58 4 72
9 28 8 31 7 -77 43 -40 14 -104 46 -142 71 -39 25 -81 46 -93 46 l-22 0 24
-17z"/>
  <path d="M342 340 c-18 -29 -127 -108 -197 -142 -49 -24 -54 -28 -25 -22 77
15 290 143 290 174 0 19 -55 11 -68 -10z"/>
</g>
<g id="part-3" class="char-part">
  <path d="M432 330 c-47 -11 -51 -20 -10 -20 51 0 99 11 92 21 -6 10 -36 10
-82 -1z"/>
</g>
<g id="part-4" class="char-part">
  <path d="M455 278 c-22 -5 -59 -7 -82 -5 l-42 4 6 -66 c3 -36 6 -66 7 -67 1 0
43 2 95 5 l93 6 20 53 c11 29 17 60 14 67 -6 17 -50 18 -111 3z m65 -26 c0
-15 -13 -20 -70 -28 -64 -9 -70 -8 -70 8 0 17 15 24 75 31 61 8 65 7 65 -11z
m-9 -61 c-8 -14 -25 -20 -68 -23 -37 -3 -61 -1 -65 6 -14 21 18 32 100 35 39
1 42 -1 33 -18z"/>
</g>
<g id="part-5" class="char-part">
  <path d="M598 175 c-25 -34 -23 -45 7 -32 14 7 25 16 25 20 0 5 5 5 11 1 7 -4
10 -2 8 5 -3 7 -8 12 -13 11 -5 -1 -12 3 -15 8 -3 5 -14 -1 -23 -13z"/>
  <path d="M342 104 c-1 -20 -4 -44 -7 -53 -2 -9 -1 -22 4 -29 7 -12 12 -12 30
-1 11 8 21 17 21 21 0 5 7 8 16 8 8 0 12 5 9 10 -4 7 -13 7 -26 0 -20 -11 -20
-11 -24 30 -4 47 -5 50 -13 50 -5 0 -9 -16 -10 -36z"/>
  <path d="M490 116 c0 -12 72 -45 88 -40 12 4 13 3 4 -3 -10 -8 -10 -12 2 -22
8 -7 21 -9 28 -5 7 4 10 4 6 -1 -13 -13 32 -39 45 -26 15 15 -34 58 -78 67
-19 3 -35 11 -35 16 0 5 -6 8 -12 5 -7 -2 -21 0 -30 5 -10 5 -18 7 -18 4z"/>
</g>
</g>
</svg>