<?xml version="1.0" standalone="no"?>
<!DOCTYPE svg PUBLIC "-//W3C//DTD SVG 20010904//EN"
 "http://www.w3.org/TR/2001/REC-SVG-20010904/DTD/svg10.dtd">
<svg version="1.0" xmlns="http://www.w3.org/2000/svg"
 width="96.000000pt" height="68.000000pt" viewBox="0 0 96.000000 68.000000"
 preserveAspectRatio="xMidYMid meet">
<metadata>
Created by potrace 1.16, written by Peter Selinger 2001-2019
Combined from part_0.svg through part_5.svg with named groups
</metadata>
<g transform="translate(0.000000,68.000000) scale(0.100000,-0.100000)" fill="#000000" stroke="none">
<g id="part-0" class="char-part">
  <path d="M474 595 c-4 -9 -4 -38 -1 -66 6 -49 5 -51 -18 -45 -18 5 -24 1 -29
-17 -3 -12 -17 -35 -32 -50 -28 -30 -28 -49 1 -21 16 16 18 15 42 -8 30 -31
26 -40 -35 -79 -25 -16 -40 -29 -33 -29 27 0 99 52 161 115 67 70 69 85 8 85
-23 0 -28 5 -28 24 0 25 16 36 55 36 13 0 27 5 31 12 5 8 -6 9 -40 5 -27 -4
-45 -3 -41 2 8 13 -4 39 -21 45 -8 3 -17 -1 -20 -9z m56 -141 c0 -4 -10 -22
-21 -41 -20 -31 -23 -33 -38 -19 -10 9 -23 16 -29 16 -16 0 -15 10 5 32 15 17
83 27 83 12z"/>
  <path d="M653 512 c-29 -8 -53 -18 -53 -23 0 -4 16 -17 35 -29 20 -12 34 -27
32 -33 -2 -6 -23 -21 -48 -34 -52 -27 -24 -33 36 -7 38 15 85 12 85 -6 0 -9
51 -40 65 -40 4 0 5 10 3 22 -2 13 -19 33 -40 47 l-37 24 29 42 c25 36 27 44
14 49 -24 9 -63 5 -121 -12z m67 -26 c0 -26 -25 -38 -54 -25 -43 20 -34 28 42
38 6 0 12 -5 12 -13z"/>
  <path d="M265 494 c-44 -8 -95 -16 -113 -19 -52 -9 -37 -25 23 -25 l55 0 0
-58 0 -59 -47 -10 -48 -10 47 -2 c54 -1 62 -14 56 -87 -3 -38 -3 -38 -70 -58
-73 -20 -83 -31 -43 -46 28 -11 51 -2 165 60 63 35 68 51 8 25 -16 -6 -18 -1
-18 49 0 37 4 58 13 60 6 3 25 7 41 11 23 5 27 8 15 16 -7 5 -25 9 -39 9 -24
0 -25 2 -22 54 l4 54 44 7 c50 7 63 20 35 34 -11 6 -21 10 -23 10 -2 -1 -39
-8 -83 -15z"/>
  <path d="M556 343 c-3 -4 -4 -33 0 -64 l6 -57 -98 -7 c-87 -7 -95 -9 -78 -22
10 -8 30 -11 46 -8 16 3 42 8 58 11 22 4 30 2 30 -9 0 -16 -80 -88 -139 -124
-20 -12 -31 -23 -25 -23 25 0 92 34 135 71 64 54 73 51 66 -15 -4 -36 -1 -60
7 -72 23 -31 36 -6 36 67 0 38 3 69 7 69 3 0 30 -22 59 -50 47 -44 58 -50 96
-50 52 0 83 15 53 25 -87 29 -214 98 -215 118 0 4 47 7 105 7 58 0 105 4 105
9 0 18 -36 22 -123 15 l-89 -7 3 48 c3 39 -1 51 -17 62 -11 7 -24 10 -28 6z"/>
  <path d="M666 303 c-14 -20 -24 -38 -22 -40 4 -5 96 37 96 44 0 7 -32 32 -42
33 -4 0 -19 -17 -32 -37z"/>
  <path d="M465 276 c22 -33 48 -35 43 -3 -2 16 -11 23 -31 25 -28 3 -28 3 -12
-22z"/>
</g>
<g id="part-1" class="char-part">
  <path d="M223 482 c-57 -8 -100 -19 -97 -23 10 -17 129 -8 243 17 20 4 22 7
10 15 -17 11 -28 10 -156 -9z"/>
</g>
<g id="part-2" class="char-part">
  <path d="M240 454 c-12 -4 -14 -18 -12 -64 4 -60 4 -60 -25 -61 -15 0 -37 -4
-48 -9 -15 -7 -9 -9 26 -9 51 -1 59 -12 59 -76 0 -45 -9 -52 -84 -71 l-69 -17
23 -19 c31 -25 49 -20 174 48 97 53 101 58 29 36 l-33 -11 0 55 c0 35 4 56 13
58 6 3 25 7 41 11 23 5 27 8 15 16 -7 5 -25 9 -39 9 -24 0 -26 3 -25 52 0 54
-7 62 -45 52z"/>
</g>
<g id="part-3" class="char-part">
  <path d="M470 576 c0 -54 11 -96 26 -96 8 0 14 10 14 24 0 24 21 36 68 36 12
0 22 5 22 11 0 8 -14 10 -40 6 -37 -5 -40 -3 -40 18 0 21 -17 35 -41 35 -5 0
-9 -15 -9 -34z"/>
</g>
<g id="part-4" class="char-part">
  <path d="M707 525 c-21 -7 -53 -16 -72 -19 -44 -9 -44 -19 0 -46 20 -12 34
-27 32 -34 -1 -6 -23 -21 -47 -33 -55 -29 -23 -31 38 -3 l44 20 45 -35 c53
-40 63 -43 63 -16 0 18 -22 40 -64 66 -15 9 -14 14 13 45 37 43 37 44 8 57
-17 8 -33 7 -60 -2z m13 -32 c0 -10 -4 -25 -10 -33 -8 -12 -14 -12 -47 4 l-38
19 45 12 c25 7 46 13 48 14 1 0 2 -7 2 -16z"/>
</g>
<g id="part-5" class="char-part">
  <path d="M555 266 c0 -36 4 -62 9 -59 5 4 6 1 2 -6 -4 -6 -11 -9 -16 -6 -12 7
-33 -22 -24 -36 4 -7 3 -9 -3 -6 -5 3 -27 -10 -48 -29 -21 -19 -34 -34 -29
-34 6 0 20 9 32 20 12 12 22 18 22 15 0 -13 40 31 40 45 1 11 4 10 12 -5 7
-11 12 -47 13 -80 0 -45 4 -60 14 -60 12 0 14 14 12 62 -3 78 3 89 36 68 14
-9 27 -15 29 -12 3 3 -11 15 -30 27 -44 27 -46 40 -6 40 17 0 30 4 30 9 0 4
-11 6 -25 3 -23 -4 -25 -1 -26 29 -1 19 0 44 1 57 1 17 -4 22 -22 22 -22 0
-23 -4 -23 -64z m26 27 c-12 -20 -14 -14 -5 12 4 9 9 14 11 11 3 -2 0 -13 -6
-23z"/>
  <path d="M735 230 c-15 -6 -10 -9 23 -15 24 -4 45 -5 47 -3 9 9 -52 24 -70 18z"/>
  <path d="M675 220 c-3 -5 1 -10 9 -10 8 0 18 5 21 10 3 6 -1 10 -9 10 -8 0
-18 -4 -21 -10z"/>
  <path d="M510 210 l-25 -8 28 -1 c15 -1 27 4 27 9 0 6 -1 10 -2 9 -2 -1 -14
-5 -28 -9z"/>
  <path d="M390 198 c0 -4 14 -8 32 -8 17 0 28 3 24 8 -10 10 -56 10 -56 0z"/>
  <path d="M666 132 c-6 -10 38 -55 57 -58 6 -1 24 -5 38 -9 17 -4 30 -1 37 8
12 14 12 15 -37 19 -11 1 -17 6 -15 10 3 4 -8 10 -23 14 -15 4 -33 11 -40 16
-7 5 -13 5 -17 0z"/>
  <path d="M417 76 c-4 -10 -1 -13 8 -9 8 3 12 9 9 14 -7 12 -11 11 -17 -5z"/>
</g>
</g>
</svg>