<?xml version="1.0" standalone="no"?>
<!DOCTYPE svg PUBLIC "-//W3C//DTD SVG 20010904//EN"
 "http://www.w3.org/TR/2001/REC-SVG-20010904/DTD/svg10.dtd">
<svg version="1.0" xmlns="http://www.w3.org/2000/svg"
 width="96.000000pt" height="68.000000pt" viewBox="0 0 96.000000 68.000000"
 preserveAspectRatio="xMidYMid meet">
<metadata>
Created by potrace 1.16, written by Peter Selinger 2001-2019
Combined from part_0.svg through part_5.svg with named groups
</metadata>
<g transform="translate(0.000000,68.000000) scale(0.100000,-0.100000)" fill="#000000" stroke="none">
<g id="part-0" class="char-part">
  <path d="M585 608 c-2 -7 -5 -24 -7 -38 -3 -21 -9 -26 -42 -30 -22 -3 -41 -10
-43 -17 -5 -14 40 -28 63 -19 12 5 15 2 10 -10 -3 -8 -6 -18 -6 -20 0 -2 -7
-4 -15 -4 -8 0 -15 -6 -15 -14 0 -20 -48 -107 -81 -144 -35 -40 -37 -50 -4
-28 13 9 27 16 30 16 9 0 5 -184 -4 -218 -7 -23 -6 -41 1 -58 14 -29 30 -27
38 7 5 20 14 25 55 31 28 3 92 7 143 7 75 1 92 4 92 16 0 12 -14 15 -70 15
l-70 0 0 29 c0 26 4 29 45 36 54 8 50 25 -6 25 -32 0 -39 4 -39 19 0 21 19 31
61 31 16 0 29 5 29 10 0 6 -21 10 -46 10 -41 0 -45 2 -42 23 2 18 12 24 51 31
55 11 58 32 3 29 -30 -2 -36 1 -36 17 0 22 -10 29 -45 36 -28 5 -33 -7 -10
-26 29 -24 17 -38 -39 -45 -87 -11 -91 -7 -41 49 24 28 43 57 42 65 0 9 7 28
16 42 15 23 27 27 88 33 45 5 69 11 66 19 -5 15 -56 28 -86 20 -21 -5 -23 -3
-18 16 8 33 -57 71 -68 39z m35 -332 c0 -25 -21 -36 -72 -36 -24 0 -28 4 -28
30 0 29 1 30 50 30 46 0 50 -2 50 -24z m0 -70 c0 -25 -21 -36 -72 -36 -23 0
-28 4 -28 24 0 22 5 25 43 29 23 2 45 4 50 5 4 1 7 -9 7 -22z m0 -80 c0 -26
-5 -35 -22 -40 -44 -11 -76 -7 -80 12 -8 37 3 51 46 55 22 2 44 4 49 5 4 1 7
-13 7 -32z"/>
  <path d="M314 596 c-3 -8 0 -24 6 -36 15 -29 10 -33 -55 -38 -30 -2 -55 -8
-55 -13 0 -18 44 -31 87 -25 39 5 45 3 55 -19 17 -37 38 -32 38 9 0 30 4 35
27 38 42 5 41 28 -1 28 -31 0 -36 3 -36 23 0 13 -5 28 -12 35 -16 16 -47 15
-54 -2z"/>
  <path d="M276 410 c-3 -22 -25 -64 -51 -99 -25 -33 -42 -61 -39 -61 3 0 24 14
45 31 49 39 69 33 69 -20 l0 -39 -75 -7 c-41 -4 -77 -11 -80 -16 -10 -15 46
-22 94 -11 25 6 47 9 49 8 1 -2 -4 -19 -13 -38 -13 -33 -48 -72 -100 -113 -19
-16 -19 -16 5 -9 36 10 73 38 114 87 29 34 38 39 45 27 25 -39 55 -70 67 -70
23 0 16 39 -11 55 -14 8 -37 22 -51 31 -35 21 -18 40 46 48 63 8 65 26 4 26
-44 0 -46 1 -42 25 3 14 1 28 -4 31 -15 9 12 24 44 24 15 0 30 5 33 10 11 18
-22 22 -76 11 -29 -6 -54 -9 -56 -7 -3 2 7 21 20 41 29 42 26 61 -8 67 -20 4
-24 0 -29 -32z"/>
</g>
<g id="part-1" class="char-part">
  <path d="M587 613 c-4 -3 -7 -21 -7 -39 0 -33 -16 -44 -68 -44 -13 0 -20 -4
-17 -10 3 -5 22 -10 42 -10 33 0 35 -2 29 -25 -9 -36 15 -32 37 5 17 28 22 30
83 30 35 0 64 4 64 9 0 13 -27 21 -71 21 -37 0 -39 2 -33 25 5 20 1 26 -21 35
-31 12 -30 12 -38 3z"/>
  <path d="M315 583 c4 -10 10 -28 12 -40 5 -22 2 -23 -51 -23 -58 0 -71 -11
-35 -31 21 -11 46 -9 81 6 12 5 21 -2 33 -25 18 -35 30 -32 30 7 0 21 7 29 35
39 l35 12 -37 1 c-34 1 -37 3 -40 34 -3 28 -7 32 -37 35 -29 3 -33 1 -26 -15z"/>
</g>
<g id="part-2" class="char-part">
  <path d="M284 432 c-16 -49 -41 -99 -71 -135 -17 -23 -30 -43 -27 -46 2 -2 21
9 42 26 30 24 50 31 105 36 37 3 75 11 85 16 30 17 -11 24 -69 12 -29 -6 -54
-10 -56 -7 -2 2 8 21 22 42 29 43 28 54 -3 65 -18 7 -24 5 -28 -9z"/>
</g>
<g id="part-3" class="char-part">
  <path d="M295 268 l0 -43 -77 -10 c-43 -6 -80 -14 -84 -18 -13 -13 52 -20 100
-10 28 6 53 9 54 8 11 -10 -38 -82 -82 -121 -40 -36 -46 -44 -26 -39 42 12 89
48 116 89 l26 39 35 -41 c37 -44 63 -54 63 -24 0 22 -22 43 -63 60 -46 20 -32
45 31 55 64 10 68 27 6 27 -45 0 -46 1 -40 27 8 29 -5 43 -39 43 -17 0 -20 -7
-20 -42z"/>
</g>
<g id="part-4" class="char-part">
  <path d="M618 203 c-3 -26 -7 -28 -50 -31 -27 -2 -48 -8 -48 -13 0 -6 17 -10
38 -8 58 3 62 1 62 -31 0 -28 -3 -30 -50 -36 -88 -12 -54 -23 53 -18 139 7
188 14 182 25 -4 5 -37 9 -76 9 l-69 0 0 29 c0 30 17 40 70 41 20 0 22 2 10
10 -8 5 -30 10 -47 10 -26 0 -33 4 -33 20 0 33 -38 26 -42 -7z"/>
</g>
</g>
</svg>