<?xml version="1.0" standalone="no"?>
<!DOCTYPE svg PUBLIC "-//W3C//DTD SVG 20010904//EN"
 "http://www.w3.org/TR/2001/REC-SVG-20010904/DTD/svg10.dtd">
<svg version="1.0" xmlns="http://www.w3.org/2000/svg"
 width="96.000000pt" height="68.000000pt" viewBox="0 0 96.000000 68.000000"
 preserveAspectRatio="xMidYMid meet">
<metadata>
Created by potrace 1.16, written by Peter Selinger 2001-2019
Combined from part_0.svg through part_5.svg with named groups
</metadata>
<g transform="translate(0.000000,68.000000) scale(0.100000,-0.100000)" fill="#000000" stroke="none">
<g id="part-0" class="char-part">
  <path d="M645 590 c-3 -4 0 -31 5 -60 6 -29 10 -74 10 -101 0 -55 1 -54 -102
-65 -102 -10 -87 -28 17 -20 l84 6 -5 -72 c-11 -187 -16 -198 -67 -179 -38 15
-32 2 19 -43 77 -67 94 -37 94 165 l0 139 65 0 c61 0 80 9 53 26 -13 8 -71 7
-100 -2 -15 -4 -18 1 -18 35 0 22 5 62 12 90 10 47 10 53 -8 65 -25 19 -53 26
-59 16z"/>
  <path d="M370 505 l0 -86 -27 3 c-27 3 -28 6 -31 65 -3 56 -5 62 -29 68 -14 3
-27 4 -30 1 -3 -2 2 -36 10 -75 17 -82 22 -76 -85 -87 -45 -4 -68 -11 -68 -19
0 -19 44 -26 92 -15 24 5 46 10 50 10 4 0 16 -17 27 -39 l20 -39 -42 -8 -42
-8 53 -4 c50 -3 52 -4 52 -33 0 -28 -2 -29 -45 -29 -25 0 -45 -4 -45 -10 0 -5
20 -10 45 -10 43 0 45 -1 45 -29 0 -24 -5 -29 -31 -35 -17 -3 -56 -6 -85 -6
-30 0 -54 -4 -54 -8 0 -15 24 -32 45 -32 29 0 284 65 293 75 6 6 -57 2 -112
-8 -6 -1 -12 10 -14 25 -3 27 -1 29 61 42 43 10 32 28 -15 24 -36 -3 -41 0
-43 19 -2 22 26 33 81 33 13 0 24 5 24 10 0 6 -16 10 -35 10 -40 0 -44 9 -15
35 22 20 26 44 8 46 -7 1 11 5 40 9 59 9 67 13 57 31 -5 8 -25 9 -61 5 l-54
-6 7 42 c4 24 8 59 8 78 0 31 -3 35 -27 38 l-28 3 0 -86z m17 -152 c-10 -57
-67 -90 -67 -38 0 14 -9 30 -20 37 -36 23 -28 27 74 36 16 2 18 -3 13 -35z"/>
  <path d="M480 522 c0 -5 -9 -19 -20 -32 -28 -32 -19 -35 31 -9 40 20 42 22 24
35 -21 16 -35 18 -35 6z"/>
  <path d="M182 460 c16 -24 38 -34 51 -21 15 15 -11 41 -39 41 -22 0 -23 -2
-12 -20z"/>
  <path d="M516 258 c26 -31 36 -38 57 -38 10 0 17 7 17 18 0 13 -12 22 -39 30
-53 16 -57 15 -35 -10z"/>
</g>
<g id="part-1" class="char-part">
  <path d="M371 508 c-1 -83 -8 -98 -43 -98 -15 0 -18 10 -19 53 -2 81 -2 82
-32 85 -24 3 -28 0 -23 -15 9 -29 25 -107 26 -120 0 -7 -26 -14 -67 -19 -38
-3 -77 -10 -88 -14 -46 -18 35 -21 127 -6 51 8 132 21 181 28 83 11 108 22 70
30 -10 2 -35 1 -55 -3 -36 -6 -38 -5 -38 20 0 14 5 46 11 71 9 38 8 46 -7 57
-35 26 -41 16 -43 -69z"/>
</g>
<g id="part-2" class="char-part">
  <path d="M317 249 c7 -26 -11 -39 -54 -39 -18 0 -33 -4 -33 -10 0 -5 20 -10
45 -10 43 0 45 -1 45 -29 0 -25 -4 -29 -37 -35 -21 -3 -62 -6 -92 -6 -53 0
-54 0 -36 -20 24 -27 44 -25 193 12 148 36 179 53 80 43 -68 -7 -68 -7 -68 19
0 25 5 28 69 41 29 6 32 9 17 17 -10 6 -31 7 -47 4 -24 -5 -29 -2 -29 14 0 15
-7 20 -29 20 -25 0 -28 -3 -24 -21z"/>
</g>
<g id="part-3" class="char-part">
  <path d="M644 587 c-3 -8 0 -34 5 -58 6 -24 11 -67 11 -96 0 -60 2 -59 -107
-69 -45 -4 -70 -10 -66 -17 4 -6 36 -7 87 -3 l81 6 -3 -78 c-6 -183 -10 -194
-66 -172 -37 14 -31 1 20 -44 77 -67 94 -37 94 165 l0 139 64 0 c67 0 96 15
51 26 -14 4 -47 4 -72 1 l-46 -5 7 64 c4 35 11 75 16 88 10 27 1 38 -43 55
-21 8 -29 8 -33 -2z"/>
</g>
<g id="part-4" class="char-part">
  <path d="M528 250 c37 -35 62 -39 62 -10 0 14 -11 22 -37 29 -57 16 -61 13
-25 -19z"/>
</g>
</g>
</svg>