<?xml version="1.0" standalone="no"?>
<!DOCTYPE svg PUBLIC "-//W3C//DTD SVG 20010904//EN"
 "http://www.w3.org/TR/2001/REC-SVG-20010904/DTD/svg10.dtd">
<svg version="1.0" xmlns="http://www.w3.org/2000/svg"
 width="96.000000pt" height="68.000000pt" viewBox="0 0 96.000000 68.000000"
 preserveAspectRatio="xMidYMid meet">
<metadata>
Created by potrace 1.16, written by Peter Selinger 2001-2019
Combined from part_0.svg through part_5.svg with named groups
</metadata>
<g transform="translate(0.000000,68.000000) scale(0.100000,-0.100000)" fill="#000000" stroke="none">
<g id="part-0" class="char-part">
  <path d="M243 568 c4 -18 9 -60 13 -94 l6 -61 -32 -7 c-18 -3 -45 -6 -61 -6
-32 0 -47 -15 -23 -24 9 -3 35 -6 59 -6 42 0 43 -1 47 -35 2 -19 2 -39 -1 -44
-4 -5 -41 -23 -83 -41 -76 -32 -95 -51 -62 -64 31 -12 56 -6 100 24 l44 31 0
-48 c0 -65 -11 -80 -45 -65 -51 23 -47 11 14 -43 l43 -39 19 23 c16 19 19 40
19 115 0 84 2 92 23 105 12 8 36 16 52 17 17 2 45 6 63 10 17 3 32 4 32 0 0
-8 -37 -52 -84 -99 -31 -31 -36 -41 -25 -48 21 -13 32 -11 86 12 34 14 59 19
86 15 31 -5 37 -3 37 11 0 27 -12 41 -44 49 -25 6 -28 5 -22 -14 8 -24 3 -28
-48 -37 -38 -8 -39 -7 -25 12 8 11 39 48 69 83 70 79 73 85 60 111 -14 26 -36
11 -45 -31 -6 -28 -27 -40 -72 -40 -30 0 -29 3 10 58 33 48 51 77 63 100 7 14
-24 43 -41 38 -5 -1 -12 -16 -16 -33 -7 -36 -52 -116 -80 -144 -10 -10 -19
-24 -19 -30 0 -5 -4 -7 -10 -4 -5 3 -19 1 -30 -5 -20 -11 -21 -9 -18 26 3 34
7 38 42 48 52 15 51 30 -3 34 l-43 3 6 37 c20 107 20 107 -8 120 -47 21 -59
16 -53 -20z"/>
  <path d="M699 548 c-1 -2 -6 -37 -13 -78 -11 -75 -11 -75 -44 -78 -38 -4 -39
-27 -1 -28 15 0 23 -5 21 -15 -7 -33 -54 -149 -61 -149 -4 0 -13 -11 -19 -24
-6 -13 -25 -40 -42 -60 -44 -50 -16 -46 41 7 46 42 92 119 127 212 16 44 22
50 48 50 29 0 29 0 28 -58 -1 -60 -30 -183 -44 -192 -5 -3 -20 -1 -34 5 -17 6
-26 6 -26 -1 0 -5 7 -12 15 -15 8 -3 17 -14 20 -25 14 -44 67 0 85 71 52 218
52 214 33 228 -11 8 -33 12 -55 9 -21 -3 -40 -2 -42 1 -2 4 1 31 7 61 9 48 8
55 -8 67 -17 13 -33 18 -36 12z"/>
</g>
<g id="part-1" class="char-part">
  <path d="M246 573 c4 -10 9 -50 12 -90 5 -81 14 -70 -83 -90 -39 -8 -38 -8 23
-11 l62 -3 0 -48 0 -48 -75 -32 c-41 -17 -80 -31 -86 -31 -20 0 -3 -25 23 -34
22 -8 35 -3 77 24 29 18 53 31 55 29 2 -2 1 -30 -2 -63 l-5 -58 -35 6 -35 5
33 -34 c64 -66 91 -33 82 95 l-5 74 34 29 34 29 -32 -7 c-30 -6 -33 -5 -33 18
0 35 10 57 25 57 8 0 26 5 42 11 25 9 26 11 10 21 -10 5 -29 7 -43 4 -22 -6
-24 -3 -24 26 0 18 5 51 11 72 10 35 9 42 -7 53 -10 7 -29 13 -42 13 -19 0
-23 -4 -16 -17z"/>
</g>
<g id="part-2" class="char-part">
  <path d="M456 492 c-17 -50 -61 -122 -83 -135 -15 -9 -17 -26 -4 -45 6 -10 17
-11 54 -1 59 14 81 37 32 31 -19 -2 -35 -1 -35 2 0 4 23 40 50 81 28 41 50 79
50 84 0 9 -31 31 -44 31 -2 0 -12 -21 -20 -48z"/>
</g>
<g id="part-3" class="char-part">
  <path d="M519 397 c-17 -43 -130 -186 -152 -193 -10 -3 -17 -13 -15 -22 5 -23
49 -20 117 6 49 19 57 20 71 7 18 -16 30 -11 30 14 0 25 -13 39 -43 46 -24 6
-27 5 -25 -15 2 -19 -4 -25 -30 -32 -19 -5 -38 -8 -43 -6 -5 2 24 41 66 88 77
89 88 112 56 129 -16 9 -21 6 -32 -22z"/>
</g>
<g id="part-4" class="char-part">
  <path d="M725 399 c-22 -4 -59 -8 -82 -8 -24 -1 -43 -5 -43 -10 0 -16 42 -17
108 -3 86 19 89 15 74 -92 -11 -75 -35 -156 -46 -156 -3 0 -16 4 -30 10 -29
11 -33 5 -11 -16 8 -8 19 -23 24 -32 8 -13 14 -15 28 -6 31 19 53 69 69 156 8
45 20 96 26 112 20 50 -21 65 -117 45z"/>
</g>
</g>
</svg>