<?xml version="1.0" standalone="no"?>
<!DOCTYPE svg PUBLIC "-//W3C//DTD SVG 20010904//EN"
 "http://www.w3.org/TR/2001/REC-SVG-20010904/DTD/svg10.dtd">
<svg version="1.0" xmlns="http://www.w3.org/2000/svg"
 width="96.000000pt" height="68.000000pt" viewBox="0 0 96.000000 68.000000"
 preserveAspectRatio="xMidYMid meet">
<metadata>
Created by potrace 1.16, written by Peter Selinger 2001-2019
Combined from part_0.svg through part_5.svg with named groups
</metadata>
<g transform="translate(0.000000,68.000000) scale(0.100000,-0.100000)" fill="#000000" stroke="none">
<g id="part-0" class="char-part">
  <path d="M512 524 c4 -80 7 -89 32 -110 24 -21 37 -24 110 -24 66 0 89 4 106
18 21 17 22 21 9 50 -14 32 -29 34 -29 3 0 -25 -41 -41 -105 -41 -61 0 -85 16
-85 59 0 27 3 29 85 46 47 10 85 21 85 26 0 17 -41 19 -71 3 -18 -9 -45 -20
-60 -24 -26 -8 -28 -6 -31 27 -2 27 -9 38 -26 44 l-24 9 4 -86z"/>
  <path d="M320 573 c4 -16 11 -56 14 -90 6 -61 5 -63 -20 -69 -30 -8 -44 8 -37
37 9 34 -6 69 -29 69 -20 0 -20 -4 -15 -60 l7 -60 -40 0 c-22 0 -40 -4 -40 -8
0 -17 49 -35 77 -28 67 16 239 69 248 77 14 14 -17 11 -64 -6 l-41 -14 0 34
c0 32 1 33 48 40 94 13 90 43 -4 32 l-46 -5 6 33 c7 35 -4 45 -49 45 -22 0
-23 -3 -15 -27z"/>
  <path d="M480 359 c-36 -4 -90 -9 -120 -9 l-55 -2 1 -97 c0 -54 4 -103 8 -109
4 -7 19 -9 36 -5 17 3 30 1 30 -4 0 -13 -62 -71 -107 -100 -71 -45 25 -8 140
53 27 15 37 34 17 34 -5 0 -10 5 -10 10 0 15 167 13 173 -2 3 -10 8 -9 20 2
12 11 16 40 18 117 2 57 0 105 -3 109 -11 11 -82 12 -148 3z m95 -43 c0 -13
-8 -19 -30 -21 -16 -1 -67 -6 -112 -10 l-83 -7 0 25 c0 23 5 26 43 30 23 2 74
3 112 3 61 -1 70 -3 70 -20z m3 -58 c-3 -22 -9 -23 -112 -31 -107 -8 -133 -4
-118 20 8 13 106 30 185 32 45 1 48 -1 45 -21z m0 -65 l-3 -28 -101 -5 c-126
-6 -136 -4 -132 23 3 20 10 22 98 28 52 3 105 6 118 7 20 2 23 -2 20 -25z"/>
  <path d="M520 113 c0 -8 67 -69 98 -90 17 -12 26 -13 34 -5 17 17 -7 56 -45
71 -51 20 -87 30 -87 24z"/>
</g>
<g id="part-1" class="char-part">
  <path d="M323 578 c4 -13 9 -54 13 -91 5 -53 10 -67 21 -63 8 4 17 6 19 6 2 0
4 16 4 35 0 34 1 35 38 36 20 0 46 4 56 8 33 13 0 23 -49 15 l-45 -6 0 35 c0
28 -5 36 -22 41 -36 9 -41 7 -35 -16z"/>
</g>
<g id="part-2" class="char-part">
  <path d="M511 528 c3 -46 9 -90 13 -99 12 -27 53 -39 135 -39 62 0 84 4 102
19 23 18 23 20 7 52 l-16 34 -12 -31 c-13 -36 -32 -44 -103 -44 -66 0 -87 13
-87 53 l0 32 85 19 c47 10 85 22 85 27 0 18 -40 18 -81 -1 -65 -29 -79 -27
-79 14 0 31 -15 45 -50 46 -3 0 -2 -37 1 -82z"/>
</g>
<g id="part-3" class="char-part">
  <path d="M480 360 c-30 -5 -82 -8 -115 -9 l-60 -1 0 -85 c0 -66 3 -85 14 -85
8 0 19 6 25 14 16 20 236 29 236 9 0 -7 11 -13 25 -13 24 0 25 3 25 58 0 31 3
66 6 78 4 15 -1 23 -21 32 -28 13 -51 13 -135 2z m98 -41 c3 -18 -17 -22 -155
-35 l-73 -7 0 26 c0 24 4 26 48 30 26 2 76 3 112 3 51 -1 65 -4 68 -17z m2
-58 c0 -11 -3 -22 -7 -24 -5 -3 -56 -8 -115 -12 -105 -7 -108 -6 -108 14 0 21
18 27 105 34 109 10 125 8 125 -12z"/>
</g>
<g id="part-4" class="char-part">
  <path d="M580 175 c0 -11 -20 -15 -97 -17 -54 -2 -115 1 -136 6 -45 10 -53 5
-37 -24 9 -16 15 -19 23 -11 15 15 239 15 255 -1 16 -16 42 7 42 38 0 19 -5
24 -25 24 -15 0 -25 -6 -25 -15z"/>
</g>
<g id="part-5" class="char-part">
  <path d="M375 111 c-3 -11 -28 -34 -55 -51 -28 -18 -50 -34 -50 -37 0 -3 11 2
25 11 14 9 25 13 25 9 0 -5 4 -3 8 2 4 6 28 21 54 34 41 22 45 26 30 38 -23
17 -30 16 -37 -6z"/>
  <path d="M541 94 c7 -8 18 -13 26 -10 8 3 12 2 9 -3 -8 -12 19 -33 29 -23 5 4
5 2 1 -5 -7 -12 22 -33 46 -33 9 0 9 3 -2 10 -8 5 -11 10 -6 10 6 0 0 9 -12
21 -12 11 -27 17 -34 13 -7 -4 -8 -3 -4 4 4 7 6 12 4 12 -2 0 -18 4 -36 10
-29 8 -32 7 -21 -6z"/>
</g>
</g>
</svg>