<?xml version="1.0" standalone="no"?>
<!DOCTYPE svg PUBLIC "-//W3C//DTD SVG 20010904//EN"
 "http://www.w3.org/TR/2001/REC-SVG-20010904/DTD/svg10.dtd">
<svg version="1.0" xmlns="http://www.w3.org/2000/svg"
 width="96.000000pt" height="68.000000pt" viewBox="0 0 96.000000 68.000000"
 preserveAspectRatio="xMidYMid meet">
<metadata>
Created by potrace 1.16, written by Peter Selinger 2001-2019
Combined from part_0.svg through part_5.svg with named groups
</metadata>
<g transform="translate(0.000000,68.000000) scale(0.100000,-0.100000)" fill="#000000" stroke="none">
<g id="part-0" class="char-part">
  <path d="M285 568 c3 -13 6 -56 8 -97 l2 -75 -35 -7 c-19 -4 -36 -6 -38 -4 -2
2 4 18 13 35 18 35 12 48 -24 52 -20 3 -25 -4 -38 -52 -7 -30 -23 -70 -33 -88
-23 -38 -24 -42 -9 -42 6 0 25 15 43 34 24 25 42 35 79 39 l47 7 -1 -33 c-1
-57 -12 -70 -98 -108 -45 -20 -83 -40 -83 -45 -1 -5 9 -13 23 -18 19 -6 35 -1
79 28 30 20 58 36 62 36 5 0 5 -42 2 -94 -7 -97 1 -121 31 -96 12 10 15 38 15
120 l0 108 36 21 c37 22 42 41 6 22 -35 -19 -43 -13 -40 26 3 32 7 38 36 45
17 5 32 12 32 17 0 11 -25 21 -51 21 -15 0 -18 6 -14 28 15 95 15 111 -1 126
-8 9 -24 16 -35 16 -15 0 -18 -5 -14 -22z"/>
  <path d="M530 559 c0 -6 9 -22 20 -36 11 -14 20 -29 20 -33 0 -4 -30 -11 -67
-14 -38 -4 -77 -10 -88 -13 -19 -5 -18 -6 4 -15 15 -5 53 -3 105 6 44 8 120
18 169 22 48 3 87 10 87 14 0 14 -32 21 -69 15 -108 -17 -101 -18 -101 9 0 14
-9 31 -22 40 -26 18 -58 21 -58 5z"/>
  <path d="M585 410 c-16 -4 -49 -8 -73 -9 -41 -1 -42 -2 -28 -23 7 -13 17 -36
20 -52 7 -27 8 -28 54 -22 107 15 122 18 122 31 0 7 9 23 19 37 19 24 19 24 0
36 -21 13 -67 14 -114 2z m57 -15 c3 -3 3 -16 1 -29 -4 -18 -14 -25 -46 -32
-57 -13 -77 -8 -77 22 0 18 7 25 28 30 15 3 32 7 37 9 16 6 51 5 57 0z"/>
  <path d="M605 264 c-93 -13 -177 -18 -207 -12 -7 2 -11 -4 -9 -12 2 -8 6 -50
9 -93 7 -121 42 -117 42 4 l0 67 63 11 c34 6 105 14 158 18 108 7 109 6 105
-67 -2 -19 -3 -50 -4 -67 -2 -31 -5 -33 -37 -33 -19 0 -35 -3 -35 -7 1 -18 40
-53 58 -53 28 0 62 46 62 85 0 17 5 58 12 90 10 53 10 59 -7 71 -23 17 -77 16
-210 -2z"/>
  <path d="M627 204 c-3 -3 -32 -8 -64 -11 -32 -3 -60 -7 -62 -9 -1 -1 4 -13 13
-26 9 -12 16 -31 16 -41 0 -15 6 -17 35 -12 19 3 51 7 70 11 20 3 33 9 30 13
-3 5 2 22 10 37 13 26 13 29 -3 36 -22 9 -37 9 -45 2z m3 -44 c0 -13 -9 -22
-27 -26 -16 -3 -33 -7 -40 -9 -15 -5 -25 38 -10 47 7 4 27 8 45 8 25 0 32 -4
32 -20z"/>
</g>
<g id="part-1" class="char-part">
  <path d="M186 454 c-3 -9 -6 -23 -7 -32 0 -9 -11 -39 -24 -67 -13 -27 -21 -52
-19 -55 8 -7 58 52 86 102 18 33 23 49 15 57 -16 16 -44 13 -51 -5z"/>
</g>
<g id="part-2" class="char-part">
  <path d="M284 563 c3 -16 8 -57 12 -92 7 -68 0 -81 -42 -81 -11 0 -29 -7 -40
-16 -18 -14 -16 -15 29 -11 26 3 50 0 53 -5 3 -5 3 -27 -1 -48 -6 -38 -10 -41
-82 -75 -41 -19 -81 -35 -89 -35 -17 0 -18 -12 -2 -28 20 -20 46 -14 103 25
31 20 58 33 62 30 3 -4 1 -38 -6 -77 -9 -55 -8 -76 2 -101 12 -30 14 -31 30
-15 14 14 17 37 17 124 l0 107 36 25 c20 13 31 26 24 28 -6 2 -17 -1 -23 -7
-23 -23 -38 -12 -35 26 3 34 6 38 41 46 20 5 37 13 37 18 0 12 -46 22 -61 13
-9 -5 -11 12 -6 75 4 72 3 82 -13 91 -35 19 -52 13 -46 -17z"/>
</g>
<g id="part-3" class="char-part">
  <path d="M531 548 c6 -13 18 -31 27 -41 8 -9 13 -19 11 -21 -2 -2 -35 -7 -74
-11 -82 -8 -110 -19 -73 -28 14 -4 58 0 99 7 41 8 116 18 167 21 50 4 92 11
92 15 0 16 -55 20 -109 10 -29 -5 -55 -10 -57 -10 -2 0 -4 11 -4 24 0 29 -33
56 -68 56 -20 0 -22 -2 -11 -22z"/>
</g>
<g id="part-4" class="char-part">
  <path d="M585 409 c-22 -4 -57 -8 -78 -8 -36 -1 -37 -2 -23 -23 7 -13 17 -36
20 -52 7 -28 8 -28 59 -22 94 12 117 18 117 31 0 7 9 24 20 38 20 26 20 26 1
36 -22 12 -58 12 -116 0z m57 -38 c-3 -33 -4 -33 -62 -39 -45 -4 -51 -2 -59
19 -5 13 -7 26 -5 28 7 8 71 19 99 18 25 -2 30 -6 27 -26z"/>
</g>
<g id="part-5" class="char-part">
  <path d="M730 271 c0 -5 -10 -7 -22 -5 -21 4 -22 4 -3 -5 28 -13 32 -13 39 4
3 8 1 15 -4 15 -6 0 -10 -4 -10 -9z"/>
  <path d="M761 266 c-9 -10 -9 -15 -1 -18 11 -3 15 -80 8 -138 -2 -19 2 -25 16
-25 15 0 20 8 22 40 1 22 7 59 12 83 10 41 9 43 -18 57 -24 12 -30 12 -39 1z
m44 -46 c3 -5 1 -10 -4 -10 -6 0 -11 5 -11 10 0 6 2 10 4 10 3 0 8 -4 11 -10z"/>
  <path d="M598 253 c7 -3 16 -2 19 1 4 3 -2 6 -13 5 -11 0 -14 -3 -6 -6z"/>
  <path d="M648 253 c6 -2 18 -2 25 0 6 3 1 5 -13 5 -14 0 -19 -2 -12 -5z"/>
  <path d="M397 238 c4 -7 6 -22 4 -32 -1 -10 3 -30 10 -42 10 -19 10 -29 0 -50
-14 -32 2 -61 19 -34 12 19 13 30 2 30 -5 0 -5 28 0 62 6 46 5 64 -4 70 -20
12 -40 10 -31 -4z"/>
  <path d="M465 240 c-15 -6 -11 -8 17 -7 21 1 38 5 38 10 0 9 -29 8 -55 -3z"/>
  <path d="M558 243 c7 -3 16 -2 19 1 4 3 -2 6 -13 5 -11 0 -14 -3 -6 -6z"/>
  <path d="M707 55 c23 -32 39 -37 63 -23 29 19 35 41 9 33 -14 -5 -19 -3 -15 3
4 6 -2 10 -14 9 -11 -1 -20 -6 -20 -11 0 -6 -5 -5 -12 2 -22 22 -29 13 -11
-13z"/>
</g>
</g>
</svg>