<?xml version="1.0" standalone="no"?>
<!DOCTYPE svg PUBLIC "-//W3C//DTD SVG 20010904//EN"
 "http://www.w3.org/TR/2001/REC-SVG-20010904/DTD/svg10.dtd">
<svg version="1.0" xmlns="http://www.w3.org/2000/svg"
 width="96.000000pt" height="68.000000pt" viewBox="0 0 96.000000 68.000000"
 preserveAspectRatio="xMidYMid meet">
<metadata>
Created by potrace 1.16, written by Peter Selinger 2001-2019
Combined from part_0.svg through part_5.svg with named groups
</metadata>
<g transform="translate(0.000000,68.000000) scale(0.100000,-0.100000)" fill="#000000" stroke="none">
<g id="part-0" class="char-part">
  <path d="M288 521 l5 -88 -69 -8 c-38 -4 -73 -9 -78 -12 -18 -11 21 -23 77
-23 l58 0 -31 -59 c-17 -32 -56 -84 -86 -116 -30 -32 -53 -59 -51 -61 12 -13
82 33 127 83 l52 58 -5 -62 c-4 -33 -9 -83 -12 -110 -7 -53 10 -91 37 -81 16
7 28 90 28 208 l1 65 24 -27 c28 -33 65 -38 65 -9 0 25 -19 44 -60 61 -25 10
-30 18 -28 38 2 21 11 27 46 36 57 14 58 30 3 34 l-44 3 6 65 c4 57 2 66 -16
79 -12 8 -29 15 -38 15 -14 0 -16 -11 -11 -89z"/>
  <path d="M598 500 l4 -110 -58 0 -59 0 0 -98 c0 -68 -5 -110 -18 -139 -18 -45
-9 -99 15 -91 14 5 36 63 37 99 1 26 3 26 90 32 48 4 96 10 105 13 15 6 17 0
14 -52 -3 -57 -4 -59 -30 -57 -36 2 -35 -2 4 -38 39 -35 42 -35 62 -7 13 18
16 51 16 156 0 80 5 142 11 154 18 33 -13 50 -85 46 l-59 -3 2 90 c1 49 4 92
7 96 5 8 -21 19 -44 19 -15 0 -17 -12 -14 -110z m130 -151 c3 -25 0 -27 -55
-33 -32 -4 -77 -10 -101 -13 l-43 -5 3 33 c3 31 6 35 43 40 22 4 65 6 95 5 52
-1 55 -3 58 -27z m2 -83 c0 -33 0 -33 -57 -39 -32 -4 -77 -9 -100 -13 -42 -7
-43 -6 -43 23 l0 30 88 12 c48 7 92 15 97 16 6 2 11 4 13 4 1 1 2 -14 2 -33z"/>
  <path d="M733 500 c-24 -33 -41 -60 -38 -60 3 0 37 20 75 44 65 40 70 45 55
60 -28 27 -48 18 -92 -44z"/>
  <path d="M472 480 c21 -37 52 -59 65 -46 14 13 -10 56 -39 70 -47 24 -51 20
-26 -24z"/>
</g>
<g id="part-1" class="char-part">
  <path d="M286 601 c-4 -5 -2 -21 4 -36 5 -14 10 -50 10 -80 l0 -54 -47 -6
c-91 -12 -107 -16 -92 -26 8 -5 40 -7 73 -3 l58 6 -32 -60 c-18 -34 -57 -88
-87 -122 -30 -33 -49 -60 -41 -60 22 1 86 55 124 105 20 25 38 45 40 43 4 -5
-14 -177 -21 -195 -5 -15 14 -73 24 -73 25 0 31 31 31 152 0 70 4 128 8 128 5
0 21 -14 37 -30 35 -36 45 -38 45 -6 0 19 -10 29 -46 46 -31 15 -43 27 -40 37
3 8 6 20 6 27 0 7 19 17 42 22 53 11 51 30 -4 27 l-40 -2 7 73 c6 71 6 72 -20
84 -31 14 -32 14 -39 3z"/>
</g>
<g id="part-2" class="char-part">
  <path d="M590 591 c5 -11 10 -60 10 -109 0 -89 0 -89 24 -85 23 5 24 9 28 101
4 104 1 112 -45 112 -24 0 -26 -2 -17 -19z"/>
  <path d="M735 504 c-24 -35 -42 -64 -38 -64 5 0 130 76 142 86 7 7 -20 32 -39
37 -15 4 -30 -9 -65 -59z"/>
  <path d="M450 512 c0 -15 62 -82 76 -82 15 0 18 18 8 45 -10 25 -84 59 -84 37z"/>
</g>
<g id="part-3" class="char-part">
  <path d="M650 403 c-41 -7 -95 -12 -120 -11 l-45 3 -1 -100 c-1 -65 -7 -115
-17 -143 -12 -30 -14 -50 -7 -67 18 -47 36 -31 54 49 l11 51 80 7 c44 4 90 10
103 13 22 5 23 4 20 -52 -3 -57 -4 -58 -31 -56 -29 2 -29 -3 7 -44 11 -13 25
-23 32 -23 31 0 39 34 44 179 3 80 9 154 14 163 6 13 0 20 -23 32 -16 9 -34
15 -38 15 -4 -1 -42 -8 -83 -16z m80 -51 c0 -27 -2 -28 -78 -40 -119 -19 -124
-18 -120 21 3 29 7 33 43 38 22 3 66 7 98 8 56 1 57 1 57 -27z m0 -86 l0 -33
-62 -6 c-35 -4 -80 -10 -100 -13 -37 -6 -38 -6 -38 23 l0 30 98 15 c53 9 98
16 100 17 1 0 2 -14 2 -33z"/>
</g>
</g>
</svg>