<?xml version="1.0" standalone="no"?>
<!DOCTYPE svg PUBLIC "-//W3C//DTD SVG 20010904//EN"
 "http://www.w3.org/TR/2001/REC-SVG-20010904/DTD/svg10.dtd">
<svg version="1.0" xmlns="http://www.w3.org/2000/svg"
 width="96.000000pt" height="68.000000pt" viewBox="0 0 96.000000 68.000000"
 preserveAspectRatio="xMidYMid meet">
<metadata>
Created by potrace 1.16, written by Peter Selinger 2001-2019
Combined from part_0.svg through part_5.svg with named groups
</metadata>
<g transform="translate(0.000000,68.000000) scale(0.100000,-0.100000)" fill="#000000" stroke="none">
<g id="part-0" class="char-part">
  <path d="M289 568 c-11 -43 -45 -107 -62 -119 -5 -3 -8 -10 -6 -14 1 -4 -24
-34 -56 -67 -32 -32 -55 -61 -52 -64 8 -9 58 21 101 60 l39 36 -9 -107 c-13
-168 -12 -194 9 -207 13 -8 20 -8 26 2 12 20 23 323 11 337 -6 7 4 31 30 71
42 62 48 82 28 102 -25 25 -47 13 -59 -30z"/>
  <path d="M758 456 c3 -80 1 -183 -3 -230 l-7 -86 -36 0 -36 0 43 -42 43 -43
19 24 c16 20 19 41 20 140 1 133 13 296 24 329 6 19 2 24 -29 37 -19 8 -37 15
-39 15 -2 0 -1 -65 1 -144z"/>
  <path d="M475 508 c-22 -5 -55 -8 -72 -6 -33 4 -43 -5 -22 -18 8 -5 10 -35 4
-103 -9 -119 -9 -131 5 -145 8 -8 13 -7 20 4 5 8 12 11 16 7 11 -10 -15 -56
-55 -99 -36 -39 -36 -46 2 -27 36 19 117 98 106 104 -5 4 -9 10 -9 16 0 13 64
11 78 -3 22 -22 29 6 35 139 5 113 4 132 -9 137 -20 8 -50 6 -99 -6z m63 -85
c3 -64 1 -72 -15 -71 -10 1 -37 -2 -60 -6 -43 -8 -43 -8 -43 22 0 32 17 42 78
42 17 0 32 5 32 11 0 8 -17 10 -56 5 l-55 -6 3 32 c2 27 8 34 33 39 17 4 41 6
55 6 24 -2 25 -5 28 -74z m2 -112 c0 -24 -5 -29 -31 -35 -61 -12 -99 -7 -99
12 0 31 15 41 65 45 28 2 53 4 58 5 4 1 7 -11 7 -27z"/>
  <path d="M657 452 c-6 -13 8 -181 16 -188 16 -17 27 23 27 102 0 73 -2 82 -20
87 -11 3 -21 2 -23 -1z"/>
  <path d="M520 223 c0 -16 65 -103 75 -100 6 2 10 17 10 33 0 23 -8 33 -42 52
-24 13 -43 20 -43 15z"/>
</g>
<g id="part-1" class="char-part">
  <path d="M295 571 c-9 -51 -55 -126 -120 -199 -31 -34 -52 -62 -46 -62 6 0 36
21 67 46 l57 46 -6 -113 c-4 -63 -9 -127 -12 -144 -8 -37 17 -77 36 -58 15 15
29 311 15 335 -7 12 0 31 33 82 45 69 46 87 2 99 -16 4 -21 -3 -26 -32z"/>
</g>
<g id="part-2" class="char-part">
  <path d="M465 508 c-22 -5 -53 -7 -69 -4 -24 5 -27 4 -20 -12 5 -9 9 -59 9
-109 -1 -73 2 -93 13 -93 8 0 16 9 19 20 4 16 14 20 48 20 24 0 50 3 58 6 9 3
16 -3 20 -15 3 -13 11 -19 20 -16 20 8 34 195 15 207 -16 10 -62 9 -113 -4z
m73 -45 c3 -32 2 -33 -35 -33 -21 0 -48 -3 -60 -6 -21 -6 -23 -3 -23 29 0 33
3 36 33 40 69 9 82 5 85 -30z m2 -77 c0 -29 -3 -34 -22 -33 -13 1 -40 -2 -60
-6 -37 -8 -38 -7 -38 21 0 28 3 30 58 40 31 5 58 10 60 11 1 0 2 -14 2 -33z"/>
</g>
<g id="part-3" class="char-part">
  <path d="M411 202 c-11 -21 -27 -44 -36 -52 -9 -7 -21 -22 -26 -32 -10 -18 -8
-18 11 -8 12 6 45 33 75 60 38 35 50 51 42 59 -22 22 -46 11 -66 -27z"/>
  <path d="M520 223 c0 -15 65 -103 74 -100 18 6 19 48 1 67 -17 18 -75 44 -75
33z"/>
</g>
<g id="part-4" class="char-part">
  <path d="M748 595 c-4 -4 -3 -18 3 -32 10 -27 12 -290 3 -371 -7 -51 -7 -52
-41 -52 l-34 0 41 -43 41 -42 18 22 c15 18 19 52 25 227 4 119 11 217 18 231
9 21 9 29 -3 40 -17 16 -62 29 -71 20z"/>
</g>
</g>
</svg>