<?xml version="1.0" standalone="no"?>
<!DOCTYPE svg PUBLIC "-//W3C//DTD SVG 20010904//EN"
 "http://www.w3.org/TR/2001/REC-SVG-20010904/DTD/svg10.dtd">
<svg version="1.0" xmlns="http://www.w3.org/2000/svg"
 width="96.000000pt" height="68.000000pt" viewBox="0 0 96.000000 68.000000"
 preserveAspectRatio="xMidYMid meet">
<metadata>
Created by potrace 1.16, written by Peter Selinger 2001-2019
Combined from part_0.svg through part_5.svg with named groups
</metadata>
<g transform="translate(0.000000,68.000000) scale(0.100000,-0.100000)" fill="#000000" stroke="none">
<g id="part-0" class="char-part">
  <path d="M416 573 c4 -10 10 -43 12 -74 l4 -56 -39 -6 c-44 -8 -93 -9 -93 -3
0 3 4 16 10 30 8 21 6 28 -13 41 -36 25 -50 20 -43 -18 4 -22 1 -40 -9 -52
-40 -53 -6 -73 87 -50 34 8 114 21 176 28 90 11 112 11 108 1 -6 -17 20 -38
39 -30 8 3 15 12 15 20 0 9 7 36 16 62 17 52 12 64 -32 67 -27 2 -28 0 -26
-34 4 -42 -9 -49 -91 -49 l-49 0 4 68 3 67 -44 3 c-39 3 -43 1 -35 -15z"/>
  <path d="M523 372 c-1 -15 -7 -41 -14 -57 -7 -17 -13 -32 -14 -35 0 -3 -9 -20
-18 -37 -23 -43 -5 -42 27 0 21 28 36 35 91 46 36 7 69 11 72 7 4 -3 0 -17 -7
-31 -7 -14 -11 -27 -8 -31 9 -8 108 49 108 62 0 6 -14 17 -31 25 -25 10 -43
10 -88 1 -32 -7 -63 -12 -69 -12 -17 0 -15 26 4 45 18 18 18 18 -13 34 -32 16
-38 14 -40 -17z"/>
  <path d="M357 326 c5 -31 3 -33 -27 -40 -60 -11 -78 -8 -82 17 -2 14 -11 23
-27 25 -21 3 -23 1 -17 -21 7 -29 -7 -37 -62 -37 -51 0 -28 -18 28 -22 l45 -3
3 -102 c2 -83 6 -103 17 -103 8 0 15 7 15 15 0 10 10 15 29 15 16 0 36 3 44 6
10 3 18 -2 22 -16 5 -15 13 -20 28 -18 21 3 22 9 25 116 3 112 3 112 27 112
31 0 33 17 3 22 -18 2 -22 8 -20 27 4 25 -11 41 -40 41 -13 0 -16 -7 -11 -34z
m3 -91 c0 -29 -4 -35 -25 -40 -14 -3 -36 -7 -50 -10 -20 -4 -25 -1 -26 15 -1
11 -2 28 -3 38 -1 12 9 19 34 23 69 12 70 12 70 -26z m8 -97 c-3 -33 -3 -33
-62 -36 -51 -3 -58 -1 -52 13 3 9 6 25 6 36 0 16 7 19 56 19 l55 0 -3 -32z"/>
  <path d="M549 222 c-2 -61 -32 -117 -82 -157 -30 -23 -30 -25 -10 -25 14 0 44
21 78 55 30 30 58 55 61 55 4 0 35 -27 70 -60 64 -62 68 -64 119 -60 60 4 57
16 -12 43 -78 31 -169 96 -165 119 2 16 -12 31 -40 41 -13 4 -18 1 -19 -11z"/>
</g>
<g id="part-1" class="char-part">
  <path d="M424 563 c3 -16 8 -49 12 -75 7 -53 5 -55 -86 -60 -45 -2 -54 0 -51
12 11 41 6 65 -16 68 -20 3 -23 -1 -23 -30 0 -18 -7 -42 -15 -52 -19 -26 -19
-33 3 -45 13 -7 34 -6 67 5 41 12 260 44 302 44 7 0 13 -9 13 -19 0 -25 15
-35 28 -18 14 18 35 114 27 127 -3 5 -17 10 -31 10 -21 0 -24 -4 -24 -39 l0
-39 -67 -4 c-38 -3 -72 -3 -77 0 -4 2 -5 32 -1 65 7 65 0 77 -43 77 -20 0 -23
-4 -18 -27z"/>
</g>
<g id="part-2" class="char-part">
  <path d="M355 326 c7 -32 6 -33 -32 -39 -65 -11 -73 -9 -73 18 0 20 -5 25 -26
25 -23 0 -25 -3 -20 -24 7 -28 -7 -36 -60 -36 -21 0 -33 -4 -29 -10 3 -5 26
-10 50 -10 53 0 55 -5 55 -115 0 -86 12 -113 35 -82 19 26 79 22 97 -5 13 -20
17 -21 32 -9 13 11 16 34 16 122 l0 109 30 0 c38 0 40 18 3 22 -23 2 -27 7
-25 27 4 25 -12 41 -41 41 -15 0 -17 -6 -12 -34z m9 -125 c3 -38 4 -76 1 -83
-4 -9 -24 -15 -55 -17 l-50 -2 0 80 0 80 43 4 c23 2 45 4 48 5 3 1 9 -29 13
-67z"/>
</g>
<g id="part-3" class="char-part">
  <path d="M307 190 c-57 -11 -56 -20 1 -20 40 0 52 4 52 15 0 8 -3 14 -7 14 -5
-1 -25 -5 -46 -9z"/>
</g>
<g id="part-4" class="char-part">
  <path d="M545 193 c-10 -52 -28 -85 -70 -122 -20 -17 -30 -31 -23 -31 23 0 75
37 103 74 15 20 33 36 39 36 6 0 34 -23 61 -51 66 -67 92 -80 139 -69 21 4 40
10 42 13 2 2 -17 12 -43 22 -92 34 -196 102 -188 123 7 19 -12 42 -35 42 -13
0 -20 -11 -25 -37z"/>
</g>
</g>
</svg>