<?xml version="1.0" standalone="no"?>
<!DOCTYPE svg PUBLIC "-//W3C//DTD SVG 20010904//EN"
 "http://www.w3.org/TR/2001/REC-SVG-20010904/DTD/svg10.dtd">
<svg version="1.0" xmlns="http://www.w3.org/2000/svg"
 width="96.000000pt" height="68.000000pt" viewBox="0 0 96.000000 68.000000"
 preserveAspectRatio="xMidYMid meet">
<metadata>
Created by potrace 1.16, written by Peter Selinger 2001-2019
Combined from part_0.svg through part_5.svg with named groups
</metadata>
<g transform="translate(0.000000,68.000000) scale(0.100000,-0.100000)" fill="#000000" stroke="none">
<g id="part-0" class="char-part">
  <path d="M227 584 c-3 -3 -1 -20 4 -37 5 -18 9 -55 9 -83 l0 -52 -67 -8 c-38
-5 -68 -13 -68 -19 0 -5 30 -11 68 -13 l67 -3 0 -34 c0 -32 -5 -37 -68 -75
-38 -22 -74 -40 -80 -40 -19 0 -14 -28 7 -40 32 -17 47 -12 93 29 23 22 44 38
46 37 1 -2 -1 -36 -4 -76 l-7 -72 -34 5 c-18 3 -33 3 -33 1 0 -14 67 -74 82
-74 29 0 38 34 38 149 l0 110 30 23 c47 34 39 65 -9 32 -22 -16 -22 -16 -19
12 2 22 9 28 33 31 56 8 60 43 4 43 -33 0 -37 17 -18 84 8 30 8 41 -3 51 -15
15 -62 27 -71 19z"/>
  <path d="M628 530 c-19 -33 -10 -38 28 -14 19 13 22 20 13 30 -16 20 -22 18
-41 -16z"/>
  <path d="M430 517 l-45 -12 47 -3 48 -3 -16 -32 c-22 -42 -19 -40 -44 -27 -11
6 -28 10 -37 8 -12 -2 -10 -9 12 -30 l27 -27 -36 -45 c-21 -24 -44 -47 -53
-50 -9 -4 -13 -9 -10 -13 4 -3 13 0 22 7 8 7 15 9 15 6 0 -4 9 2 21 12 17 17
87 37 96 29 1 -2 0 -13 -4 -25 -5 -22 -29 -33 -75 -36 -20 -1 -23 -7 -25 -49
-1 -48 -1 -49 25 -42 78 19 72 20 72 -16 0 -52 -21 -84 -53 -84 -32 1 -33 -4
-7 -33 17 -18 25 -20 40 -12 11 6 24 19 29 29 12 21 31 134 24 141 -2 2 -26 3
-53 2 -28 -1 -50 2 -50 8 0 5 4 10 10 10 5 0 7 6 4 14 -4 11 6 16 38 21 39 6
45 11 60 47 10 23 16 43 14 45 -7 7 -40 7 -68 0 -29 -8 -38 5 -15 20 6 4 18
17 24 28 66 107 66 107 52 116 -17 11 -31 10 -89 -4z"/>
  <path d="M692 480 c-35 -34 -55 -38 -74 -12 -14 20 -58 36 -58 21 0 -5 3 -9 8
-9 4 0 40 -32 81 -70 74 -70 74 -70 132 -70 32 0 60 4 64 9 3 5 -32 21 -79 35
-110 34 -122 48 -59 72 60 22 72 32 53 44 -24 15 -37 12 -68 -20z"/>
  <path d="M621 349 c-13 -5 -31 -7 -40 -4 -13 4 -16 -3 -16 -34 0 -25 -8 -47
-19 -60 -11 -12 -17 -23 -14 -26 10 -11 52 33 63 66 15 44 55 54 55 15 0 -37
1 -40 12 -53 12 -15 118 -18 118 -4 0 15 -31 22 -66 15 -37 -7 -39 -5 -24 46
14 48 -12 62 -69 39z"/>
  <path d="M607 205 c-32 -7 -60 -14 -62 -17 -3 -2 16 -19 41 -36 25 -18 43 -36
40 -41 -3 -5 -27 -19 -53 -31 -66 -31 -38 -37 35 -7 l60 24 30 -29 c17 -15 38
-28 46 -28 28 0 17 34 -19 59 -19 13 -35 27 -35 32 0 4 11 21 25 38 25 29 25
30 6 40 -24 13 -39 13 -114 -4z m66 -35 c-6 -22 -33 -26 -66 -8 -21 11 -21 11
-2 19 11 4 32 8 47 8 21 1 25 -3 21 -19z"/>
</g>
<g id="part-1" class="char-part">
  <path d="M234 548 c3 -18 9 -55 12 -84 l6 -52 -73 -13 -74 -14 70 -5 c69 -5
70 -5 73 -35 3 -41 -3 -49 -91 -99 -56 -31 -74 -46 -65 -53 32 -25 48 -22 95
19 l48 41 3 -44 c4 -50 -5 -106 -18 -114 -4 -3 -21 0 -37 5 -26 10 -25 8 15
-32 l43 -43 20 24 c16 20 19 39 19 134 l0 111 33 27 c23 21 27 28 15 29 -9 0
-20 -4 -23 -10 -12 -19 -25 -10 -25 19 0 25 5 30 35 35 55 11 42 33 -17 28
-15 -1 -17 5 -11 46 3 26 10 55 14 64 10 19 -22 48 -54 48 -17 0 -19 -5 -13
-32z"/>
</g>
<g id="part-2" class="char-part">
  <path d="M425 515 l-40 -13 43 -1 c24 -1 42 -6 42 -12 0 -24 -61 -116 -110
-166 -29 -29 -49 -53 -46 -53 13 0 82 49 107 76 46 51 111 155 105 170 -7 17
-47 17 -101 -1z"/>
</g>
<g id="part-3" class="char-part">
  <path d="M564 485 c11 -8 51 -44 88 -80 67 -63 70 -65 121 -64 94 1 97 13 11
38 -59 17 -96 35 -143 72 -35 27 -71 49 -80 49 -13 -1 -13 -3 3 -15z"/>
</g>
<g id="part-4" class="char-part">
  <path d="M602 203 l-63 -15 45 -32 c25 -17 44 -35 43 -41 -2 -5 -28 -23 -58
-39 -49 -26 -51 -28 -19 -22 19 4 52 15 73 27 l39 20 34 -31 c37 -32 64 -39
64 -16 0 16 -22 41 -51 56 -25 14 -24 22 6 58 18 22 21 32 13 40 -15 15 -46
14 -126 -5z m67 -35 c-6 -13 -13 -24 -14 -26 -1 -2 -19 5 -40 15 -35 17 -36
18 -14 24 13 4 37 7 52 8 26 1 27 -1 16 -21z"/>
</g>
</g>
</svg>