<?xml version="1.0" standalone="no"?>
<!DOCTYPE svg PUBLIC "-//W3C//DTD SVG 20010904//EN"
 "http://www.w3.org/TR/2001/REC-SVG-20010904/DTD/svg10.dtd">
<svg version="1.0" xmlns="http://www.w3.org/2000/svg"
 width="96.000000pt" height="68.000000pt" viewBox="0 0 96.000000 68.000000"
 preserveAspectRatio="xMidYMid meet">
<metadata>
Created by potrace 1.16, written by Peter Selinger 2001-2019
Combined from part_0.svg through part_5.svg with named groups
</metadata>
<g transform="translate(0.000000,68.000000) scale(0.100000,-0.100000)" fill="#000000" stroke="none">
<g id="part-0" class="char-part">
  <path d="M630 549 c-24 -18 -66 -42 -94 -55 -28 -12 -43 -23 -33 -23 26 -1
205 58 213 70 5 9 -22 38 -37 39 -3 0 -25 -14 -49 -31z"/>
  <path d="M280 514 c-25 -8 -69 -15 -98 -15 l-53 0 24 -29 c13 -15 29 -49 36
-74 11 -46 12 -47 45 -40 l34 6 4 -94 c2 -51 2 -96 -2 -100 -3 -4 -17 -9 -30
-10 -24 -3 -25 -1 -28 62 -3 62 -12 80 -40 80 -8 0 -11 -7 -8 -17 2 -10 8 -46
11 -80 l7 -63 -41 0 c-48 0 -52 -9 -14 -32 27 -15 32 -14 115 18 48 18 103 36
122 39 19 4 41 14 48 23 11 13 10 14 -16 8 -87 -22 -86 -22 -86 17 0 41 21 67
55 67 23 0 42 16 32 26 -3 3 -21 1 -41 -4 l-36 -10 0 39 c0 36 3 40 29 45 22
5 27 10 24 26 -3 10 2 37 12 58 30 67 -6 85 -105 54z m50 -41 c0 -46 -13 -63
-52 -74 -46 -12 -43 -14 -63 34 -15 36 -14 37 7 41 84 19 108 18 108 -1z"/>
  <path d="M735 459 c-4 -12 -23 -39 -42 -60 -20 -21 -30 -39 -24 -39 6 0 43 20
82 44 70 44 70 44 47 60 -31 22 -55 20 -63 -5z"/>
  <path d="M576 452 c-8 -13 32 -72 49 -72 28 0 18 48 -14 65 -17 8 -32 11 -35
7z"/>
  <path d="M460 425 c0 -22 33 -65 50 -65 23 0 28 32 8 48 -17 13 -58 25 -58 17z"/>
  <path d="M508 308 c-22 -24 -33 -29 -53 -24 -27 7 -35 -10 -14 -31 6 -6 19
-51 28 -100 15 -78 19 -88 36 -84 11 2 63 5 116 8 90 4 98 3 111 -16 l15 -21
25 20 c20 15 30 38 43 97 9 43 20 90 25 105 7 23 5 30 -13 43 -26 18 -40 18
-107 4 -61 -13 -57 -24 8 -24 37 0 47 -4 50 -19 5 -25 -7 -34 -53 -41 -22 -4
-49 -9 -59 -12 -37 -10 11 -25 61 -18 l45 6 -7 -38 c-9 -49 -14 -56 -33 -48
-8 3 -60 1 -115 -5 -54 -6 -101 -10 -103 -8 -2 2 -6 23 -10 46 l-7 42 39 1
c22 0 48 4 58 8 18 7 18 8 3 14 -10 4 -38 4 -62 0 l-45 -6 0 36 c0 31 3 35 33
41 50 10 63 21 48 40 -19 23 -32 19 -63 -16z"/>
</g>
<g id="part-1" class="char-part">
  <path d="M260 504 c-30 -8 -70 -12 -88 -10 l-33 5 21 -26 c11 -15 26 -46 32
-70 10 -40 13 -44 37 -39 14 3 52 8 83 11 43 5 56 10 51 20 -3 8 5 35 17 60
12 24 19 49 15 55 -8 14 -68 11 -135 -6z m74 -41 c-3 -16 -8 -35 -10 -44 -4
-15 -44 -29 -84 -29 -11 0 -21 13 -28 39 -7 21 -12 41 -12 44 0 6 44 13 103
15 36 2 37 1 31 -25z"/>
</g>
<g id="part-2" class="char-part">
  <path d="M320 178 c-36 -10 -100 -24 -142 -31 -43 -6 -78 -15 -78 -19 0 -4 13
-14 30 -23 26 -14 34 -14 58 -1 15 7 73 28 130 46 56 18 102 37 102 41 0 13
-26 9 -100 -13z"/>
</g>
<g id="part-3" class="char-part">
  <path d="M637 554 c-21 -14 -64 -39 -95 -54 -76 -39 -42 -38 80 2 98 32 116
48 79 68 -25 13 -20 14 -64 -16z"/>
  <path d="M735 459 c-4 -12 -23 -39 -42 -60 -20 -22 -34 -41 -31 -44 5 -5 158
87 158 96 0 8 -47 29 -65 29 -7 0 -17 -9 -20 -21z"/>
  <path d="M575 438 c15 -49 65 -80 65 -40 0 25 -20 49 -48 57 -22 6 -23 5 -17
-17z"/>
  <path d="M460 416 c0 -24 36 -60 53 -53 24 9 21 33 -5 51 -28 20 -48 20 -48 2z"/>
</g>
<g id="part-4" class="char-part">
  <path d="M508 307 l-26 -34 55 16 55 15 -22 18 c-29 24 -31 23 -62 -15z"/>
</g>
<g id="part-5" class="char-part">
  <path d="M745 305 c-28 -13 -29 -14 -4 -9 29 6 36 0 43 -38 4 -22 0 -28 -26
-37 -17 -6 -34 -8 -38 -6 -5 3 -12 0 -16 -6 -5 -9 3 -11 29 -6 45 7 51 -1 37
-52 -12 -44 -19 -49 -72 -45 -20 2 -41 -3 -47 -9 -8 -10 0 -12 34 -11 24 1 48
5 54 8 8 5 8 0 1 -18 -6 -17 -6 -26 0 -26 6 0 10 4 10 10 0 5 3 9 8 9 27 -5
34 1 21 18 -8 10 -9 14 -2 10 6 -4 14 -3 17 2 4 5 2 12 -4 16 -5 3 -10 12 -10
18 0 9 2 9 8 0 5 -8 15 17 26 63 9 41 19 81 22 88 3 7 -7 18 -21 24 -32 15
-33 15 -70 -3z m79 -30 c-4 -8 -8 -15 -10 -15 -2 0 -4 7 -4 15 0 8 4 15 10 15
5 0 7 -7 4 -15z"/>
  <path d="M442 263 c6 -7 15 -10 20 -7 6 4 7 -2 3 -15 -4 -13 -2 -35 4 -49 6
-15 12 -49 15 -75 2 -27 6 -50 8 -53 3 -2 16 4 29 15 l24 20 -22 1 c-24 0 -25
3 -25 62 0 21 -4 40 -9 44 -5 3 -9 21 -9 39 0 31 -3 35 -24 33 -19 -2 -22 -5
-14 -15z"/>
  <path d="M554 209 c-3 -5 6 -9 20 -9 31 0 34 6 6 13 -11 3 -23 1 -26 -4z"/>
  <path d="M520 200 c-9 -6 -10 -10 -3 -10 6 0 15 5 18 10 8 12 4 12 -15 0z"/>
  <path d="M550 91 c0 -5 19 -9 42 -9 30 -1 38 2 28 8 -19 12 -70 13 -70 1z"/>
</g>
</g>
</svg>