<?xml version="1.0" standalone="no"?>
<!DOCTYPE svg PUBLIC "-//W3C//DTD SVG 20010904//EN"
 "http://www.w3.org/TR/2001/REC-SVG-20010904/DTD/svg10.dtd">
<svg version="1.0" xmlns="http://www.w3.org/2000/svg"
 width="96.000000pt" height="68.000000pt" viewBox="0 0 96.000000 68.000000"
 preserveAspectRatio="xMidYMid meet">
<metadata>
Created by potrace 1.16, written by Peter Selinger 2001-2019
Combined from part_0.svg through part_5.svg with named groups
</metadata>
<g transform="translate(0.000000,68.000000) scale(0.100000,-0.100000)" fill="#000000" stroke="none">
<g id="part-0" class="char-part">
  <path d="M277 603 c-4 -3 -7 -16 -7 -28 0 -31 -73 -141 -138 -207 -67 -68 -50
-78 29 -18 l54 41 3 -58 c2 -32 -2 -95 -8 -141 -13 -89 -9 -126 15 -136 25 -9
34 28 43 184 7 116 6 149 -5 167 -12 20 -9 28 32 86 25 36 45 70 45 75 0 11
-38 42 -51 42 -3 0 -9 -3 -12 -7z"/>
  <path d="M580 573 c1 -14 94 -83 112 -83 33 0 18 44 -21 64 -34 18 -91 30 -91
19z"/>
  <path d="M415 533 c-10 -21 -30 -50 -44 -65 -32 -36 -20 -36 27 -1 91 67 111
103 59 103 -16 0 -28 -11 -42 -37z"/>
  <path d="M492 437 c-14 -38 -99 -129 -155 -164 -21 -13 -37 -27 -34 -29 15
-15 169 91 219 151 16 20 17 20 55 -16 21 -19 64 -57 96 -83 57 -47 60 -48
109 -43 65 8 81 23 36 32 -83 19 -273 126 -264 150 2 7 -1 18 -7 24 -20 20
-43 12 -55 -22z"/>
  <path d="M530 238 c-41 -5 -90 -7 -108 -5 -30 3 -33 1 -28 -17 4 -12 13 -49
22 -84 9 -34 20 -62 25 -62 5 0 9 4 9 9 0 5 45 12 100 16 77 5 100 10 100 21
0 8 11 32 25 54 30 48 31 56 6 70 -22 11 -45 11 -151 -2z m91 -38 c-2 -8 -6
-27 -8 -42 -6 -31 -25 -38 -104 -38 l-57 0 -7 36 c-3 20 -3 40 2 45 10 10 65
17 128 15 39 -1 49 -4 46 -16z"/>
</g>
<g id="part-1" class="char-part">
  <path d="M275 570 c-9 -43 -74 -137 -139 -202 -32 -32 -54 -58 -51 -58 13 0
51 24 94 58 l44 35 -7 -129 c-10 -192 -10 -194 2 -206 27 -27 37 11 43 170 6
123 4 160 -6 171 -11 11 -5 26 38 88 50 72 51 75 33 89 -30 21 -44 17 -51 -16z"/>
</g>
<g id="part-2" class="char-part">
  <path d="M421 545 c-6 -18 -27 -48 -46 -66 -45 -44 -44 -56 3 -28 48 28 113
90 109 103 -2 5 -15 13 -29 17 -22 6 -26 2 -37 -26z"/>
  <path d="M586 562 c85 -76 129 -94 122 -49 -3 25 -76 67 -117 67 -24 0 -24 0
-5 -18z"/>
</g>
<g id="part-3" class="char-part">
  <path d="M491 439 c-20 -46 -86 -115 -160 -168 -24 -17 -38 -31 -31 -31 27 0
129 63 182 114 l57 54 95 -79 c58 -48 105 -79 118 -79 38 0 98 12 98 19 0 4
-26 15 -57 25 -103 33 -245 117 -241 144 2 8 -7 21 -19 29 -22 15 -23 14 -42
-28z"/>
</g>
<g id="part-4" class="char-part">
  <path d="M550 240 c-30 -5 -81 -8 -113 -9 -57 -1 -57 -1 -43 -23 8 -13 17 -42
21 -65 6 -38 34 -92 35 -67 0 7 37 14 100 19 84 5 100 9 100 23 0 10 11 34 25
54 30 44 31 54 6 68 -22 11 -48 11 -131 0z m69 -42 c-2 -44 -15 -71 -34 -74
-64 -9 -126 -11 -130 -4 -2 4 -7 25 -11 48 l-6 41 38 4 c22 2 63 4 92 5 48 2
52 0 51 -20z"/>
</g>
</g>
</svg>