<?xml version="1.0" standalone="no"?>
<!DOCTYPE svg PUBLIC "-//W3C//DTD SVG 20010904//EN"
 "http://www.w3.org/TR/2001/REC-SVG-20010904/DTD/svg10.dtd">
<svg version="1.0" xmlns="http://www.w3.org/2000/svg"
 width="96.000000pt" height="68.000000pt" viewBox="0 0 96.000000 68.000000"
 preserveAspectRatio="xMidYMid meet">
<metadata>
Created by potrace 1.16, written by Peter Selinger 2001-2019
Combined from part_0.svg through part_5.svg with named groups
</metadata>
<g transform="translate(0.000000,68.000000) scale(0.100000,-0.100000)" fill="#000000" stroke="none">
<g id="part-0" class="char-part">
  <path d="M418 569 c4 -54 2 -73 -9 -80 -23 -14 -169 -11 -169 4 0 6 -14 -12
-31 -42 -19 -32 -27 -57 -22 -62 15 -15 40 0 53 30 11 28 12 28 193 50 100 12
192 21 205 21 24 0 29 -19 10 -38 -19 -19 -7 -21 50 -10 57 12 60 21 19 52
-25 18 -33 19 -129 8 -56 -6 -105 -9 -110 -6 -4 3 -8 14 -8 24 0 16 11 20 70
26 90 9 91 30 1 26 -60 -3 -61 -2 -61 23 0 23 -29 45 -59 45 -5 0 -6 -32 -3
-71z"/>
  <path d="M388 427 c-38 -5 -68 -13 -68 -18 0 -12 15 -11 138 3 56 7 102 16
102 20 0 10 -87 8 -172 -5z"/>
  <path d="M416 356 c-5 -22 -33 -49 -97 -99 -13 -10 -62 -37 -108 -60 -108 -54
-88 -61 25 -8 47 23 90 38 95 35 11 -7 11 -97 0 -146 -11 -47 2 -61 37 -42 15
8 56 14 94 14 57 0 69 -3 78 -20 13 -25 47 -26 54 -2 4 15 10 175 7 209 -2 20
-62 24 -151 9 -47 -8 -88 -11 -93 -7 -7 7 56 64 97 87 22 13 39 5 159 -72 64
-42 71 -44 142 -44 41 0 75 4 75 9 0 5 -41 19 -92 31 -96 22 -243 85 -267 113
-20 25 -48 21 -55 -7z m144 -145 c0 -16 -11 -20 -87 -26 -49 -4 -90 -8 -93 -9
-3 0 -6 9 -8 21 -4 24 13 29 126 31 55 2 62 0 62 -17z m0 -61 c0 -15 -7 -20
-27 -20 -16 0 -58 -3 -95 -7 -64 -6 -68 -5 -68 15 0 22 16 25 143 30 41 2 47
-1 47 -18z m3 -60 c-4 -24 -6 -25 -99 -26 -83 -1 -94 1 -94 17 0 15 13 18 88
24 48 3 92 8 97 9 14 4 14 4 8 -24z"/>
  <path d="M560 373 c0 -10 80 -43 103 -43 26 0 20 25 -8 38 -29 13 -95 16 -95
5z"/>
  <path d="M263 336 c-40 -39 -42 -49 -5 -30 15 7 31 14 35 14 4 0 19 7 33 17
19 12 22 18 12 24 -23 15 -42 8 -75 -25z"/>
</g>
<g id="part-1" class="char-part">
  <path d="M421 593 c5 -21 9 -53 9 -70 0 -26 4 -33 20 -33 16 0 20 7 20 30 0
30 0 30 59 30 33 0 62 4 65 9 10 15 -20 20 -63 10 -50 -11 -65 -5 -57 26 6 24
-8 35 -44 35 -16 0 -17 -5 -9 -37z"/>
</g>
<g id="part-2" class="char-part">
  <path d="M625 509 c-22 -4 -114 -13 -204 -19 -137 -10 -165 -10 -172 1 -10 17
-18 9 -49 -48 -39 -70 -9 -101 35 -35 l25 38 183 22 c100 12 190 22 200 22 22
0 22 -18 0 -42 -9 -10 -11 -18 -5 -18 25 0 112 22 117 30 6 10 -41 45 -70 52
-11 3 -38 2 -60 -3z"/>
</g>
<g id="part-3" class="char-part">
  <path d="M418 432 c-95 -15 -131 -32 -66 -32 58 0 208 23 208 31 0 5 -4 9 -9
9 -5 0 -15 2 -23 4 -7 2 -57 -4 -110 -12z"/>
</g>
<g id="part-4" class="char-part">
  <path d="M550 377 c0 -9 89 -47 110 -47 22 0 25 7 11 29 -9 13 -121 30 -121
18z"/>
  <path d="M290 362 c0 -4 -19 -22 -42 -40 -48 -37 -45 -39 14 -15 66 25 92 44
76 54 -17 11 -48 11 -48 1z"/>
</g>
<g id="part-5" class="char-part">
  <path d="M577 79 c-9 -6 -15 -14 -12 -20 8 -13 -12 -11 -38 3 -16 8 -12 1 11
-23 32 -33 34 -33 48 -15 8 11 14 30 14 43 0 26 1 26 -23 12z"/>
  <path d="M334 65 c-3 -8 -3 -19 0 -24 9 -13 36 -2 36 14 0 19 -30 27 -36 10z"/>
</g>
</g>
</svg>