<?xml version="1.0" standalone="no"?>
<!DOCTYPE svg PUBLIC "-//W3C//DTD SVG 20010904//EN"
 "http://www.w3.org/TR/2001/REC-SVG-20010904/DTD/svg10.dtd">
<svg version="1.0" xmlns="http://www.w3.org/2000/svg"
 width="96.000000pt" height="68.000000pt" viewBox="0 0 96.000000 68.000000"
 preserveAspectRatio="xMidYMid meet">
<metadata>
Created by potrace 1.16, written by Peter Selinger 2001-2019
Combined from part_0.svg through part_5.svg with named groups
</metadata>
<g transform="translate(0.000000,68.000000) scale(0.100000,-0.100000)" fill="#000000" stroke="none">
<g id="part-0" class="char-part">
  <path d="M609 556 c-2 -3 -58 -12 -123 -20 -122 -16 -154 -25 -98 -27 18 -1
38 -2 45 -3 7 0 12 -15 12 -36 l0 -35 -67 0 c-58 0 -65 -2 -53 -15 7 -8 20
-44 29 -79 9 -36 18 -66 19 -67 1 -1 54 3 117 8 63 5 138 7 167 4 l51 -6 13
38 c7 20 23 55 37 76 24 38 24 40 6 53 -30 22 -61 26 -109 14 -64 -16 -75 -14
-75 12 0 34 12 46 55 55 50 10 59 32 13 32 -19 0 -37 -2 -39 -4z m-69 -76 c0
-36 -3 -40 -24 -40 -20 0 -25 6 -28 35 -3 30 -1 35 22 38 14 2 26 5 28 6 1 0
2 -17 2 -39z m152 -75 c-5 -55 -22 -94 -40 -93 -9 1 -70 -2 -134 -6 l-117 -8
-11 42 c-6 23 -14 48 -17 56 -4 11 4 14 36 14 45 0 51 -11 25 -48 -9 -13 -13
-26 -10 -29 9 -9 43 25 56 58 10 22 19 29 41 29 23 0 28 -5 31 -27 4 -35 48
-51 86 -32 l27 14 -40 3 c-39 3 -55 15 -55 39 0 12 31 18 90 18 33 0 35 -2 32
-30z"/>
  <path d="M190 521 c0 -15 73 -71 92 -71 47 0 24 55 -30 70 -46 12 -62 13 -62
1z"/>
  <path d="M120 381 c0 -5 14 -23 31 -40 45 -46 105 -39 79 8 -14 27 -110 54
-110 32z"/>
  <path d="M227 226 c-32 -35 -67 -68 -77 -71 -12 -4 -20 -15 -20 -28 0 -27 28
-69 42 -65 5 2 28 38 51 81 23 42 49 85 58 95 9 10 13 26 9 36 -5 15 -17 6
-63 -48z"/>
  <path d="M497 231 c4 -29 2 -39 -8 -39 -8 1 -36 0 -62 0 -67 -3 -50 -22 19
-22 l54 0 0 -38 0 -39 -57 -2 c-32 -1 -83 -6 -113 -10 -54 -8 -55 -8 -26 -20
22 -9 52 -9 122 -1 51 5 155 10 231 10 141 0 176 7 150 28 -17 15 -63 17 -169
7 l-88 -7 0 41 0 41 43 1 c23 1 56 4 72 8 46 10 13 24 -51 22 -51 -1 -53 0
-56 26 -2 23 -8 29 -35 31 -31 3 -31 3 -26 -37z"/>
</g>
<g id="part-1" class="char-part">
  <path d="M230 485 c38 -39 70 -46 70 -16 0 26 -37 51 -74 51 l-30 0 34 -35z"/>
  <path d="M153 346 c41 -40 77 -48 77 -17 0 27 -23 42 -72 48 l-43 5 38 -36z"/>
  <path d="M240 233 c-19 -25 -51 -57 -72 -71 -41 -26 -44 -49 -11 -82 13 -13
16 -13 24 0 24 38 109 191 109 195 0 15 -19 -1 -50 -42z"/>
</g>
<g id="part-2" class="char-part">
  <path d="M520 544 c-52 -8 -113 -18 -135 -23 l-40 -9 60 -2 c73 -3 52 -4 162
9 102 13 126 19 117 32 -7 11 -45 10 -164 -7z"/>
</g>
<g id="part-3" class="char-part">
  <path d="M595 453 c-44 -7 -126 -15 -182 -16 -57 -1 -103 -3 -103 -5 0 -2 9
-15 19 -30 11 -15 22 -45 26 -67 10 -57 23 -79 39 -66 8 7 75 12 164 14 l150
2 33 70 c18 39 34 73 37 77 5 11 -54 38 -80 37 -13 -1 -59 -8 -103 -16z m98
-28 c4 -8 0 -36 -8 -63 -14 -45 -17 -49 -47 -48 -18 0 -79 -4 -135 -9 l-101
-8 -12 42 c-6 23 -13 48 -16 55 -4 10 17 15 78 20 105 9 172 17 177 22 11 10
60 2 64 -11z"/>
</g>
<g id="part-4" class="char-part">
  <path d="M493 233 c2 -41 3 -40 -69 -42 -65 -2 -45 -21 22 -21 l54 0 0 -40 0
-40 -62 -1 c-35 0 -85 -4 -113 -8 -50 -7 -50 -8 -22 -19 21 -9 51 -9 115 -2
48 5 152 10 232 10 152 0 191 8 150 30 -17 9 -54 11 -137 6 l-113 -7 0 40 0
41 43 1 c23 1 56 4 72 8 48 10 12 24 -57 22 -57 -2 -59 -1 -53 20 8 24 -8 39
-42 39 -20 0 -22 -5 -20 -37z"/>
</g>
</g>
</svg>