<?xml version="1.0" standalone="no"?>
<!DOCTYPE svg PUBLIC "-//W3C//DTD SVG 20010904//EN"
 "http://www.w3.org/TR/2001/REC-SVG-20010904/DTD/svg10.dtd">
<svg version="1.0" xmlns="http://www.w3.org/2000/svg"
 width="96.000000pt" height="68.000000pt" viewBox="0 0 96.000000 68.000000"
 preserveAspectRatio="xMidYMid meet">
<metadata>
Created by potrace 1.16, written by Peter Selinger 2001-2019
Combined from part_0.svg through part_5.svg with named groups
</metadata>
<g transform="translate(0.000000,68.000000) scale(0.100000,-0.100000)" fill="#000000" stroke="none">
<g id="part-0" class="char-part">
  <path d="M501 559 c12 -17 18 -34 13 -39 -5 -5 -35 -10 -67 -11 -65 -3 -78
-11 -43 -27 13 -5 33 -29 45 -52 l22 -42 -61 4 -61 4 -15 -34 c-17 -41 -18
-72 -3 -72 15 0 38 31 39 51 0 13 29 19 170 34 94 10 173 15 177 12 3 -4 1
-18 -5 -32 -6 -14 -11 -25 -9 -25 64 12 112 29 112 40 0 7 -14 21 -31 30 -25
14 -44 16 -105 10 -40 -4 -76 -5 -78 -3 -3 2 6 18 19 35 13 18 23 40 23 50 -1
10 7 18 18 20 11 2 18 8 17 13 -2 6 -28 9 -60 7 -47 -3 -58 -1 -58 11 0 19
-38 47 -63 47 -17 0 -17 -2 4 -31z m89 -78 c0 -37 -22 -79 -43 -85 -38 -10
-45 -7 -57 29 -6 19 -21 41 -33 48 -20 11 -15 13 43 18 36 3 71 6 78 7 6 1 12
-6 12 -17z"/>
  <path d="M190 522 c0 -17 66 -72 87 -72 30 0 36 36 9 53 -26 17 -96 31 -96 19z"/>
  <path d="M124 378 c-10 -16 59 -80 79 -72 22 8 22 50 0 59 -46 18 -73 23 -79
13z"/>
  <path d="M507 330 c3 -11 9 -23 14 -26 24 -14 2 -23 -71 -30 -99 -8 -121 -27
-26 -22 l66 3 0 -29 c0 -36 -60 -97 -141 -144 -30 -17 -46 -32 -36 -32 33 0
122 52 175 104 51 49 56 52 95 47 50 -7 56 -24 30 -86 -19 -47 -36 -55 -74
-35 -26 14 -23 1 7 -33 19 -22 31 -28 48 -23 28 7 44 30 76 109 22 56 22 58 4
72 -11 8 -40 15 -65 15 -40 0 -48 3 -52 22 -4 12 -5 23 -4 24 1 1 44 4 96 7
52 4 96 9 99 12 18 17 -46 24 -125 12 -43 -6 -53 -5 -53 7 0 20 -28 46 -50 46
-13 0 -17 -5 -13 -20z"/>
  <path d="M235 229 c-16 -22 -46 -55 -68 -73 l-39 -32 16 -37 c8 -20 21 -37 29
-37 11 0 107 191 107 214 0 17 -20 2 -45 -35z"/>
</g>
<g id="part-1" class="char-part">
  <path d="M200 512 c0 -16 70 -64 85 -58 19 7 19 30 1 45 -19 16 -86 26 -86 13z"/>
  <path d="M150 345 c38 -39 70 -46 70 -15 0 22 -46 50 -81 50 -22 0 -21 -2 11
-35z"/>
  <path d="M230 216 c-23 -30 -52 -62 -66 -71 -29 -19 -31 -45 -5 -76 l19 -24
37 80 c54 116 66 145 60 145 -2 0 -23 -24 -45 -54z"/>
</g>
<g id="part-2" class="char-part">
  <path d="M489 572 c5 -10 17 -25 26 -32 23 -19 2 -29 -60 -31 -27 0 -59 -4
-70 -8 -57 -22 111 -18 256 7 60 10 43 28 -23 24 -47 -3 -58 -1 -58 12 0 18
-38 46 -63 46 -14 0 -16 -4 -8 -18z"/>
</g>
<g id="part-3" class="char-part">
  <path d="M615 404 c-55 -7 -138 -12 -184 -12 l-84 1 -13 -33 c-8 -18 -14 -41
-14 -51 0 -31 28 -21 41 14 l12 33 146 17 c210 25 216 24 191 -24 -12 -22 -10
-23 54 -6 27 7 51 18 54 25 5 15 -57 52 -83 51 -11 -1 -65 -8 -120 -15z"/>
</g>
<g id="part-4" class="char-part">
  <path d="M550 210 c0 -5 12 -10 28 -10 52 0 58 -12 38 -75 -16 -53 -20 -57
-44 -52 -15 2 -36 8 -46 12 -16 7 -13 1 10 -28 16 -20 36 -37 45 -37 26 0 53
34 83 104 28 65 28 67 10 81 -22 16 -124 20 -124 5z"/>
</g>
</g>
</svg>