<?xml version="1.0" standalone="no"?>
<!DOCTYPE svg PUBLIC "-//W3C//DTD SVG 20010904//EN"
 "http://www.w3.org/TR/2001/REC-SVG-20010904/DTD/svg10.dtd">
<svg version="1.0" xmlns="http://www.w3.org/2000/svg"
 width="96.000000pt" height="68.000000pt" viewBox="0 0 96.000000 68.000000"
 preserveAspectRatio="xMidYMid meet">
<metadata>
Created by potrace 1.16, written by Peter Selinger 2001-2019
Combined from part_0.svg through part_5.svg with named groups
</metadata>
<g transform="translate(0.000000,68.000000) scale(0.100000,-0.100000)" fill="#000000" stroke="none">
<g id="part-0" class="char-part">
  <path d="M475 573 c-7 -40 -64 -153 -77 -153 -5 0 -8 -7 -8 -15 0 -8 -4 -15
-10 -15 -5 0 -10 -6 -10 -14 0 -8 -7 -16 -15 -20 -16 -6 -21 -26 -7 -26 4 0
23 16 42 35 19 19 38 35 43 35 11 0 9 -157 -3 -244 -8 -54 -8 -81 0 -96 18
-34 37 -24 44 23 l7 44 112 12 c62 6 138 14 170 17 50 5 56 8 45 21 -10 12
-27 13 -91 8 l-78 -7 3 33 c3 33 5 34 61 43 72 11 74 26 2 26 -54 0 -55 1 -55
29 0 27 3 29 50 35 28 4 50 11 50 16 0 11 -16 13 -68 10 -32 -2 -33 0 -30 33
2 35 2 36 60 42 92 11 73 31 -24 26 -34 -2 -38 0 -38 22 0 16 -8 28 -25 35
-50 23 -57 15 -30 -28 22 -36 23 -40 8 -41 -10 0 -44 -4 -75 -8 -32 -4 -58 -4
-58 1 0 4 16 33 36 64 39 61 38 86 -3 92 -17 2 -22 -4 -28 -35z m113 -155 c17
-17 15 -55 -4 -62 -9 -3 -36 -6 -60 -6 -43 0 -44 0 -44 34 0 33 2 35 38 39 20
2 42 4 48 5 5 1 15 -3 22 -10z m7 -123 c0 -30 -1 -30 -57 -33 l-58 -3 0 36 0
36 58 -3 c56 -3 57 -3 57 -33z m5 -89 c0 -39 -11 -46 -76 -46 l-44 0 0 40 0
40 60 0 60 0 0 -34z"/>
  <path d="M224 579 c16 -55 18 -117 7 -305 -11 -178 -10 -199 4 -213 15 -15 17
-14 31 3 8 12 14 43 14 76 0 31 3 112 7 179 l6 122 22 -21 c30 -29 55 -26 55
6 0 20 -8 29 -39 41 -37 15 -38 16 -34 56 5 52 -4 65 -47 73 -31 7 -33 6 -26
-17z"/>
  <path d="M141 377 c-25 -62 -25 -100 2 -105 35 -7 62 104 34 142 -12 17 -16
14 -36 -37z"/>
</g>
<g id="part-1" class="char-part">
  <path d="M235 418 c0 -95 -3 -207 -8 -248 -6 -60 -4 -80 7 -95 31 -42 40 -5
47 188 3 100 7 184 8 186 0 3 15 -8 31 -24 24 -23 33 -26 42 -17 18 18 -2 45
-41 57 -32 9 -33 11 -27 52 6 45 -10 73 -42 73 -15 0 -17 -18 -17 -172z"/>
  <path d="M141 370 c-25 -57 -24 -83 1 -88 22 -4 39 29 41 78 2 64 -17 69 -42
10z"/>
</g>
<g id="part-2" class="char-part">
  <path d="M475 573 c-8 -44 -53 -131 -99 -188 -18 -22 -36 -46 -40 -53 -15 -24
30 5 70 46 l37 37 -7 -135 c-3 -74 -9 -151 -12 -170 -3 -23 0 -42 10 -55 30
-41 40 -5 46 173 5 137 4 170 -8 184 -13 16 -10 25 28 89 45 76 46 101 3 107
-17 2 -22 -4 -28 -35z"/>
</g>
<g id="part-3" class="char-part">
  <path d="M605 318 c-2 -7 -5 -22 -7 -33 -3 -17 -12 -20 -61 -23 -76 -4 -74
-22 3 -22 l60 0 0 -34 c0 -37 -15 -46 -82 -46 -27 0 -38 -4 -38 -15 0 -18 4
-18 123 -5 51 5 123 13 162 16 65 6 68 7 45 20 -18 10 -45 12 -98 7 l-73 -6 3
34 c3 33 4 34 61 43 72 11 74 26 2 26 -52 0 -55 1 -55 25 0 18 -5 25 -20 25
-11 0 -22 -6 -25 -12z"/>
</g>
</g>
</svg>