<?xml version="1.0" standalone="no"?>
<!DOCTYPE svg PUBLIC "-//W3C//DTD SVG 20010904//EN"
 "http://www.w3.org/TR/2001/REC-SVG-20010904/DTD/svg10.dtd">
<svg version="1.0" xmlns="http://www.w3.org/2000/svg"
 width="96.000000pt" height="68.000000pt" viewBox="0 0 96.000000 68.000000"
 preserveAspectRatio="xMidYMid meet">
<metadata>
Created by potrace 1.16, written by Peter Selinger 2001-2019
Combined from part_0.svg through part_5.svg with named groups
</metadata>
<g transform="translate(0.000000,68.000000) scale(0.100000,-0.100000)" fill="#000000" stroke="none">
<g id="part-0" class="char-part">
  <path d="M510 582 c0 -9 7 -26 15 -36 8 -11 15 -23 15 -27 0 -3 -51 -12 -112
-19 -62 -7 -117 -14 -121 -17 -5 -3 1 -14 13 -25 19 -18 21 -27 15 -81 -13
-109 -51 -189 -130 -272 -48 -51 -52 -65 -13 -44 106 57 164 147 195 306 l18
92 80 11 c44 6 129 14 189 18 114 7 144 22 89 43 -25 9 -80 7 -140 -8 -18 -4
-23 -1 -23 15 0 24 -18 40 -59 52 -26 7 -31 6 -31 -8z"/>
  <path d="M180 434 c0 -5 11 -26 25 -47 32 -46 65 -51 65 -8 0 16 -6 34 -13 40
-18 15 -77 26 -77 15z"/>
  <path d="M580 425 c-41 -7 -92 -14 -112 -14 -21 -1 -38 -5 -38 -10 0 -15 36
-19 90 -9 29 5 55 6 58 3 9 -9 -85 -97 -143 -134 -27 -17 -42 -31 -34 -31 16
0 121 51 144 70 13 11 15 5 15 -54 l0 -66 -70 0 c-68 0 -81 -5 -60 -26 5 -5
16 -34 23 -64 13 -49 17 -55 38 -51 47 7 65 8 140 10 l77 1 6 32 c3 18 16 43
29 56 l22 23 -25 19 c-21 16 -35 19 -87 13 l-63 -6 0 52 c0 65 10 66 120 10
65 -32 84 -38 96 -29 8 7 14 15 14 19 0 15 -60 40 -139 59 -45 12 -86 24 -90
27 -3 4 5 15 18 26 13 10 21 25 18 33 -8 19 14 26 80 26 39 0 54 4 51 13 -6
17 -88 18 -178 2z m92 -294 c-4 -54 -15 -61 -103 -61 l-78 0 -10 37 c-6 21 -7
41 -3 45 8 8 93 15 157 14 39 -1 40 -2 37 -35z"/>
  <path d="M235 294 c-22 -13 -57 -29 -77 -34 -45 -13 -47 -22 -13 -44 25 -17
27 -16 85 31 86 71 90 98 5 47z"/>
</g>
<g id="part-1" class="char-part">
  <path d="M510 586 c0 -3 9 -21 21 -40 15 -27 17 -36 7 -36 -34 -1 -220 -29
-225 -34 -3 -3 2 -8 11 -12 12 -5 16 -19 16 -58 0 -106 -49 -223 -126 -298
-24 -23 -41 -44 -39 -46 9 -9 67 32 108 78 51 57 79 122 105 244 l17 81 50 7
c28 3 111 11 185 18 74 6 137 14 140 16 15 15 -34 24 -102 19 -64 -4 -78 -3
-78 9 0 19 -47 56 -71 56 -11 0 -19 -2 -19 -4z"/>
  <path d="M190 423 c0 -11 50 -73 59 -73 18 0 21 34 6 56 -14 22 -65 35 -65 17z"/>
  <path d="M245 293 c-22 -13 -57 -28 -77 -35 -21 -6 -38 -14 -38 -18 0 -15 30
-31 47 -26 22 8 120 92 113 98 -3 3 -23 -6 -45 -19z"/>
</g>
<g id="part-2" class="char-part">
  <path d="M548 421 c-64 -9 -119 -19 -123 -22 -12 -13 46 -19 87 -9 24 5 89 13
146 16 97 7 121 14 86 28 -22 9 -62 6 -196 -13z"/>
</g>
<g id="part-3" class="char-part">
  <path d="M533 343 c-29 -29 -74 -66 -100 -83 -27 -16 -41 -30 -33 -30 20 0 94
35 131 61 l29 20 0 -60 c0 -48 3 -61 15 -61 11 0 15 12 15 49 0 28 4 52 10 56
5 3 45 -12 89 -35 77 -38 131 -51 131 -31 0 22 -58 52 -130 67 -104 23 -110
27 -81 58 24 26 21 47 -7 44 -9 0 -41 -25 -69 -55z"/>
</g>
<g id="part-4" class="char-part">
  <path d="M610 189 c-41 -5 -103 -10 -137 -11 -59 -1 -62 -3 -47 -19 8 -9 21
-40 29 -69 8 -29 15 -54 18 -56 2 -2 19 1 38 6 18 6 74 10 123 10 68 0 87 3
79 11 -13 13 4 56 31 78 9 8 16 17 16 22 0 9 -54 40 -67 38 -4 -1 -42 -6 -83
-10z m65 -61 c-4 -24 -10 -47 -14 -51 -5 -4 -46 -7 -92 -5 l-83 3 -7 35 c-4
19 -6 37 -4 39 6 5 112 18 163 20 l44 1 -7 -42z"/>
</g>
</g>
</svg>