<?xml version="1.0" standalone="no"?>
<!DOCTYPE svg PUBLIC "-//W3C//DTD SVG 20010904//EN"
 "http://www.w3.org/TR/2001/REC-SVG-20010904/DTD/svg10.dtd">
<svg version="1.0" xmlns="http://www.w3.org/2000/svg"
 width="96.000000pt" height="68.000000pt" viewBox="0 0 96.000000 68.000000"
 preserveAspectRatio="xMidYMid meet">
<metadata>
Created by potrace 1.16, written by Peter Selinger 2001-2019
Combined from part_0.svg through part_5.svg with named groups
</metadata>
<g transform="translate(0.000000,68.000000) scale(0.100000,-0.100000)" fill="#000000" stroke="none">
<g id="part-0" class="char-part">
  <path d="M487 593 c-4 -3 -7 -14 -7 -24 0 -21 -49 -128 -67 -147 -21 -22 -15
-37 7 -17 17 15 24 16 49 5 16 -6 36 -19 45 -29 13 -15 12 -19 -12 -46 -34
-39 -97 -87 -142 -110 -19 -10 -30 -20 -23 -22 18 -6 109 44 170 93 36 30 59
42 66 36 7 -5 38 -30 70 -55 53 -43 62 -47 110 -46 62 2 119 14 97 21 -8 3
-46 15 -85 27 -78 25 -175 77 -175 93 0 6 20 35 45 64 25 28 45 57 45 63 0 23
-45 29 -105 16 -33 -8 -61 -13 -63 -11 -1 2 5 20 15 40 15 32 15 38 3 46 -18
11 -34 13 -43 3z m123 -110 c0 -10 -15 -35 -33 -56 l-32 -38 -42 23 c-48 26
-48 26 -27 53 10 13 32 22 67 26 28 3 55 7 60 8 4 0 7 -7 7 -16z"/>
  <path d="M275 479 c-22 -5 -73 -11 -114 -13 -40 -3 -76 -7 -79 -10 -2 -3 2
-16 11 -29 8 -13 21 -62 27 -108 13 -90 21 -108 42 -92 21 17 155 25 161 10
10 -27 26 12 48 115 29 141 21 152 -96 127z m53 -61 c-3 -28 -7 -33 -30 -33
-25 -1 -28 3 -28 32 0 30 3 33 31 33 28 0 30 -2 27 -32z m-118 -14 c0 -33 -2
-35 -27 -32 -23 2 -29 8 -31 36 -3 30 -1 32 27 32 29 0 31 -3 31 -36z m110
-84 c0 -36 -2 -40 -25 -40 -22 0 -25 4 -25 34 0 28 4 35 23 39 12 2 23 5 25 6
1 0 2 -17 2 -39z m-100 -15 c0 -31 -3 -35 -25 -35 -14 0 -25 6 -25 13 0 6 -3
22 -6 35 -6 19 -3 22 25 22 29 0 31 -2 31 -35z"/>
  <path d="M570 230 c-30 -5 -81 -8 -112 -9 -61 -1 -66 -4 -44 -26 7 -7 19 -41
25 -75 9 -46 15 -59 24 -51 7 5 59 13 115 17 84 6 102 10 97 21 -6 17 23 83
36 83 18 0 8 16 -22 33 -33 18 -35 18 -119 7z m62 -65 c-2 -22 -5 -41 -7 -43
-5 -5 -148 -23 -152 -19 -1 2 -6 24 -9 50 l-7 46 54 4 c30 2 70 3 89 3 35 -1
35 -1 32 -41z"/>
</g>
<g id="part-1" class="char-part">
  <path d="M240 469 c-25 -4 -71 -8 -103 -8 -57 -1 -57 -1 -43 -24 9 -12 22 -62
29 -110 8 -48 16 -90 18 -92 3 -2 25 1 49 6 25 6 69 9 99 7 l54 -3 25 109 c20
89 21 110 10 117 -16 10 -76 10 -138 -2z m88 -52 c3 -36 3 -37 -32 -37 -34 0
-36 2 -36 34 0 24 5 36 18 39 36 10 47 2 50 -36z m-110 -13 c3 -27 -1 -33 -24
-38 -32 -8 -39 -2 -48 42 -6 33 -6 33 32 30 33 -3 37 -6 40 -34z m107 -86 c-9
-53 -8 -52 -40 -44 -21 5 -25 12 -25 40 0 36 9 44 48 45 22 1 23 -1 17 -41z
m-102 8 c12 -30 -4 -56 -34 -56 -26 0 -29 3 -29 35 0 32 3 35 29 35 16 0 31
-6 34 -14z"/>
</g>
<g id="part-2" class="char-part">
  <path d="M487 594 c-4 -4 -7 -17 -7 -28 0 -12 -18 -54 -40 -94 -22 -40 -40
-75 -40 -78 0 -2 14 5 30 18 36 26 112 144 108 167 -3 17 -39 27 -51 15z"/>
</g>
<g id="part-3" class="char-part">
  <path d="M570 516 c-74 -21 -78 -26 -17 -23 67 4 70 -2 27 -61 l-30 -42 -32
20 c-37 22 -89 29 -54 7 10 -7 29 -20 43 -31 l24 -19 -38 -39 c-21 -21 -67
-58 -102 -80 -35 -23 -58 -44 -52 -46 19 -6 115 47 170 95 36 31 55 42 64 36
6 -5 38 -31 70 -56 54 -43 63 -47 110 -46 29 1 66 4 82 8 27 7 22 10 -57 35
-47 16 -112 43 -143 61 l-57 32 51 61 c28 34 51 66 51 72 0 10 -43 31 -58 29
-4 0 -27 -6 -52 -13z"/>
</g>
<g id="part-4" class="char-part">
  <path d="M580 230 c-30 -5 -83 -8 -118 -9 l-63 -1 16 -31 c9 -17 20 -49 24
-72 6 -34 11 -42 27 -40 10 1 62 5 115 9 87 6 96 9 92 25 -3 10 4 31 14 46 36
52 36 53 -1 68 -19 8 -39 14 -43 14 -4 -1 -33 -5 -63 -9z m52 -65 c-2 -22 -8
-43 -14 -46 -13 -8 -140 -20 -147 -14 -2 3 -5 24 -5 47 l-1 43 50 6 c28 4 66
6 85 5 35 -1 35 -2 32 -41z"/>
</g>
</g>
</svg>