<?xml version="1.0" standalone="no"?>
<!DOCTYPE svg PUBLIC "-//W3C//DTD SVG 20010904//EN"
 "http://www.w3.org/TR/2001/REC-SVG-20010904/DTD/svg10.dtd">
<svg version="1.0" xmlns="http://www.w3.org/2000/svg"
 width="96.000000pt" height="68.000000pt" viewBox="0 0 96.000000 68.000000"
 preserveAspectRatio="xMidYMid meet">
<metadata>
Created by potrace 1.16, written by Peter Selinger 2001-2019
Combined from part_0.svg through part_5.svg with named groups
</metadata>
<g transform="translate(0.000000,68.000000) scale(0.100000,-0.100000)" fill="#000000" stroke="none">
<g id="part-0" class="char-part">
  <path d="M535 558 c-10 -45 -68 -130 -121 -177 -30 -26 -42 -44 -38 -54 8 -22
39 -30 63 -17 12 6 80 22 153 35 132 24 132 24 153 5 32 -30 57 -26 53 7 -2
19 -16 36 -43 54 -68 47 -119 50 -76 5 l22 -23 -101 -22 c-55 -11 -112 -21
-125 -21 -41 0 -41 0 68 124 70 80 74 86 51 103 -31 23 -52 16 -59 -19z"/>
  <path d="M262 504 c48 -48 78 -54 78 -15 0 29 -47 61 -89 61 l-36 0 47 -46z"/>
  <path d="M140 403 c0 -17 59 -73 78 -73 27 0 34 25 14 49 -17 21 -92 40 -92
24z"/>
  <path d="M254 257 c-32 -35 -70 -70 -84 -79 l-25 -16 19 -36 c23 -43 42 -46
58 -8 7 15 30 56 51 91 43 72 60 111 48 111 -4 0 -34 -28 -67 -63z"/>
  <path d="M595 269 c-27 -5 -82 -10 -122 -11 -69 -2 -71 -2 -58 -22 7 -12 18
-48 24 -81 6 -32 14 -62 19 -66 4 -3 39 -3 77 2 39 4 96 8 127 8 31 1 60 6 63
11 3 6 1 10 -4 10 -17 0 -13 42 9 85 11 22 20 45 20 51 0 25 -59 30 -155 13z
m72 -71 c-4 -28 -10 -55 -15 -60 -5 -5 -44 -11 -88 -14 l-80 -7 -12 53 c-7 29
-10 56 -6 59 6 7 95 17 163 20 l44 1 -6 -52z"/>
</g>
<g id="part-1" class="char-part">
  <path d="M230 545 c0 -14 65 -75 80 -75 49 0 27 54 -28 70 -41 11 -52 12 -52
5z"/>
  <path d="M150 401 c0 -22 57 -74 73 -68 24 9 21 42 -5 55 -38 18 -68 24 -68
13z"/>
  <path d="M270 268 c-25 -31 -60 -65 -77 -77 -35 -22 -40 -39 -23 -72 17 -30
38 -22 61 23 12 24 37 69 56 100 48 77 37 93 -17 26z"/>
</g>
<g id="part-2" class="char-part">
  <path d="M532 551 c-15 -49 -97 -159 -134 -180 -32 -18 -35 -33 -12 -56 11
-11 24 -14 38 -10 12 4 84 20 160 36 l139 29 22 -20 c49 -46 78 -2 30 46 -27
27 -83 54 -112 54 -13 0 -12 -5 11 -28 l27 -29 -78 -17 c-110 -23 -173 -30
-173 -20 0 5 37 52 82 103 66 75 79 97 71 110 -5 9 -21 17 -35 19 -21 3 -26
-3 -36 -37z"/>
</g>
<g id="part-3" class="char-part">
  <path d="M600 269 c-19 -5 -72 -9 -118 -10 -71 0 -81 -3 -71 -15 7 -8 19 -47
29 -87 14 -60 19 -72 36 -70 10 1 70 5 132 9 107 7 140 15 107 28 -13 4 -13
10 1 48 8 23 21 50 30 59 34 38 -55 61 -146 38z m70 -41 c0 -13 -5 -39 -10
-59 -9 -34 -14 -37 -56 -43 -26 -3 -63 -6 -84 -6 -36 0 -37 1 -48 51 -7 29
-10 55 -6 58 6 6 95 17 162 20 37 1 42 -1 42 -21z"/>
</g>
</g>
</svg>