<?xml version="1.0" standalone="no"?>
<!DOCTYPE svg PUBLIC "-//W3C//DTD SVG 20010904//EN"
 "http://www.w3.org/TR/2001/REC-SVG-20010904/DTD/svg10.dtd">
<svg version="1.0" xmlns="http://www.w3.org/2000/svg"
 width="96.000000pt" height="68.000000pt" viewBox="0 0 96.000000 68.000000"
 preserveAspectRatio="xMidYMid meet">
<metadata>
Created by potrace 1.16, written by Peter Selinger 2001-2019
Combined from part_0.svg through part_5.svg with named groups
</metadata>
<g transform="translate(0.000000,68.000000) scale(0.100000,-0.100000)" fill="#000000" stroke="none">
<g id="part-0" class="char-part">
  <path d="M235 569 c-22 -9 -57 -18 -77 -18 -36 -1 -37 -1 -27 -33 12 -44 11
-187 -2 -287 -12 -88 -7 -131 15 -131 18 0 23 45 32 255 4 102 10 163 18 167
6 4 23 8 39 8 l28 0 -17 -31 c-12 -24 -13 -37 -5 -53 24 -50 38 -94 32 -103
-3 -6 -14 -12 -24 -14 -16 -3 -14 -7 12 -26 75 -56 91 34 20 110 -28 31 -24
46 26 91 52 48 56 63 18 72 -16 3 -32 7 -38 8 -5 2 -28 -5 -50 -15z"/>
  <path d="M581 568 c-19 -12 -68 -32 -110 -45 l-76 -23 60 3 60 2 2 -47 c3 -53
6 -52 -120 -64 -58 -5 -66 -8 -55 -21 12 -15 60 -14 146 3 l32 7 0 -161 c0
-159 9 -202 30 -147 5 14 13 91 17 171 l6 144 113 0 c114 0 149 11 98 30 -17
7 -63 8 -120 4 l-93 -7 6 37 c4 28 2 40 -12 50 -15 11 -9 15 46 31 77 22 75
21 59 40 -17 21 -49 19 -89 -7z"/>
</g>
<g id="part-1" class="char-part">
  <path d="M223 562 c-55 -21 -55 -36 -2 -29 38 5 41 4 36 -16 -2 -12 -8 -30
-12 -39 -12 -29 7 -20 60 28 47 44 48 47 30 60 -24 18 -59 17 -112 -4z"/>
</g>
<g id="part-2" class="char-part">
  <path d="M126 539 c10 -26 12 -216 4 -349 -4 -73 -3 -85 12 -88 21 -4 26 27
34 261 5 164 4 187 -9 187 -8 0 -23 3 -32 7 -15 5 -16 2 -9 -18z"/>
</g>
<g id="part-3" class="char-part">
  <path d="M591 574 c-13 -10 -62 -30 -110 -45 -84 -28 -85 -28 -41 -29 39 0
226 43 238 55 3 3 -1 11 -8 20 -16 20 -50 19 -79 -1z"/>
</g>
<g id="part-4" class="char-part">
  <path d="M520 461 l0 -50 -42 -6 c-161 -22 -156 -20 -125 -35 22 -11 37 -11
78 -2 95 22 88 34 91 -150 3 -157 12 -198 30 -133 4 17 11 92 14 168 l7 137
76 1 c42 0 95 0 119 -1 48 -2 56 15 15 31 -19 7 -58 8 -116 2 -49 -5 -91 -5
-93 -1 -3 5 -2 22 1 39 8 33 -4 49 -37 49 -15 0 -18 -9 -18 -49z"/>
</g>
</g>
</svg>