<?xml version="1.0" standalone="no"?>
<!DOCTYPE svg PUBLIC "-//W3C//DTD SVG 20010904//EN"
 "http://www.w3.org/TR/2001/REC-SVG-20010904/DTD/svg10.dtd">
<svg version="1.0" xmlns="http://www.w3.org/2000/svg"
 width="96.000000pt" height="68.000000pt" viewBox="0 0 96.000000 68.000000"
 preserveAspectRatio="xMidYMid meet">
<metadata>
Created by potrace 1.16, written by Peter Selinger 2001-2019
Combined from part_0.svg through part_5.svg with named groups
</metadata>
<g transform="translate(0.000000,68.000000) scale(0.100000,-0.100000)" fill="#000000" stroke="none">
<g id="part-0" class="char-part">
  <path d="M600 559 c-19 -5 -64 -11 -99 -13 l-63 -3 -3 -74 c-5 -129 -49 -255
-114 -330 -49 -55 -35 -58 20 -4 28 28 58 65 65 83 16 36 38 42 54 13 13 -26
13 -117 -1 -143 -9 -16 -8 -24 4 -36 14 -14 20 -12 54 13 21 16 40 32 43 35 3
4 14 10 24 13 10 4 17 10 14 12 -3 3 -23 -1 -46 -9 -23 -8 -44 -11 -46 -7 -3
5 -3 38 1 74 l6 66 61 5 c33 3 101 8 151 11 49 3 92 8 94 11 14 14 -30 24 -80
20 -31 -3 -59 -3 -62 0 -3 3 -2 17 2 32 5 18 17 28 39 34 38 10 43 28 8 28
-18 0 -25 6 -28 23 -2 14 -11 23 -25 25 -19 3 -23 -1 -23 -26 0 -25 -5 -30
-31 -36 -46 -9 -47 -8 -51 17 -2 14 -11 23 -25 25 -20 3 -23 -1 -23 -27 0 -25
-4 -31 -21 -31 -11 0 -17 -4 -14 -10 3 -5 14 -10 24 -10 13 0 20 -9 23 -30 3
-17 2 -32 0 -35 -3 -3 -28 -5 -55 -5 -35 0 -48 4 -44 13 14 38 27 86 32 118
l5 36 88 12 c49 6 103 11 120 11 24 0 32 5 32 18 0 9 6 29 14 44 10 19 11 29
3 37 -13 13 -77 13 -127 0z m59 -23 c24 -29 -3 -53 -66 -60 -32 -4 -70 -9 -85
-12 -26 -5 -28 -3 -28 25 0 33 -1 33 95 50 71 13 71 13 84 -3z m-19 -221 c0
-33 -2 -35 -35 -35 -33 0 -35 2 -35 35 0 33 2 35 35 35 33 0 35 -2 35 -35z"/>
  <path d="M275 504 c-38 -7 -85 -16 -103 -19 -41 -8 -32 -25 14 -25 26 0 34 -4
34 -18 0 -29 -39 -93 -97 -160 -31 -35 -53 -65 -50 -69 4 -3 29 11 57 31 34
24 52 32 55 24 2 -7 9 -32 15 -55 6 -24 15 -43 20 -43 6 0 10 5 10 10 0 6 15
10 33 10 52 0 77 11 77 31 0 11 6 35 14 54 12 29 12 36 1 45 -15 12 -85 5
-117 -11 -31 -17 -27 6 13 66 21 33 39 67 39 76 0 12 12 19 45 23 39 6 65 21
54 30 -13 12 -54 12 -114 0z m29 -236 c-9 -54 -12 -58 -42 -58 -24 0 -30 6
-40 37 -14 44 -6 53 50 53 37 0 37 -1 32 -32z"/>
  <path d="M690 220 c-21 -29 -45 -34 -74 -15 -39 26 -54 12 -17 -15 19 -13 56
-44 83 -69 66 -61 73 -64 124 -56 41 6 63 25 29 25 -8 0 -23 4 -33 9 -9 5 -43
21 -75 36 -32 15 -56 32 -54 38 2 6 21 16 42 24 48 16 53 22 35 33 -24 15 -44
12 -60 -10z"/>
</g>
<g id="part-1" class="char-part">
  <path d="M270 495 c-30 -7 -70 -14 -88 -14 -45 -1 -31 -21 14 -21 32 0 35 -2
29 -22 -15 -49 -38 -88 -91 -152 -51 -61 -53 -66 -25 -51 46 23 94 73 140 145
30 46 38 66 31 76 -8 9 -1 14 32 19 63 10 79 15 73 26 -8 12 -46 10 -115 -6z"/>
</g>
<g id="part-2" class="char-part">
  <path d="M248 316 c-66 -16 -70 -22 -53 -85 15 -57 25 -74 32 -53 3 7 21 12
43 12 45 0 72 9 65 21 -3 4 3 27 14 50 33 67 7 81 -101 55z m55 -53 c-7 -46
-3 -42 -40 -49 -30 -6 -32 -4 -42 31 -6 21 -8 42 -5 47 3 4 25 8 49 8 l44 0
-6 -37z"/>
</g>
<g id="part-3" class="char-part">
  <path d="M595 559 c-49 -12 -97 -17 -123 -13 l-42 5 5 -38 c9 -55 -19 -194
-53 -266 -16 -34 -46 -84 -67 -112 -37 -48 -37 -49 -9 -31 75 48 123 131 150
257 l17 77 87 11 c47 6 101 11 118 11 24 0 32 4 32 18 0 10 7 28 16 41 14 19
14 25 3 36 -24 22 -51 23 -134 4z m63 -17 c13 -9 6 -42 -12 -54 -5 -3 -37 -9
-70 -13 -34 -4 -69 -9 -78 -11 -14 -4 -18 1 -18 25 0 33 -1 33 95 50 67 12 68
12 83 3z"/>
</g>
<g id="part-4" class="char-part">
  <path d="M650 412 c0 -25 -5 -30 -31 -36 -46 -9 -47 -8 -51 17 -2 14 -11 23
-25 25 -20 3 -23 -1 -23 -27 0 -25 -4 -31 -22 -32 -21 -1 -21 -2 5 -12 22 -9
27 -17 27 -44 0 -33 0 -33 -50 -33 -27 0 -50 -4 -50 -10 0 -5 17 -10 38 -10
57 0 346 22 352 27 14 13 -33 23 -88 18 l-63 -6 7 28 c9 39 10 40 44 47 33 6
33 26 0 26 -12 0 -20 8 -22 23 -2 14 -11 23 -25 25 -19 3 -23 -1 -23 -26z m-6
-100 c-6 -28 -10 -32 -40 -32 -32 0 -34 2 -34 34 0 32 3 35 33 38 42 4 49 -2
41 -40z"/>
</g>
<g id="part-5" class="char-part">
  <path d="M477 190 c3 -27 0 -65 -6 -83 -7 -19 -9 -41 -6 -50 6 -14 9 -14 36 1
38 22 44 40 13 40 -21 0 -23 -3 -12 -17 12 -14 11 -14 -5 -2 -11 8 -14 18 -8
25 4 6 11 38 14 71 3 36 2 52 -3 40 -8 -19 -9 -19 -9 3 -1 12 -5 22 -10 22 -5
0 -7 -22 -4 -50z"/>
  <path d="M696 215 c-16 -24 -16 -25 1 -16 10 5 27 12 38 16 16 5 17 8 5 15
-22 14 -26 13 -44 -15z"/>
  <path d="M588 203 c7 -3 16 -2 19 1 4 3 -2 6 -13 5 -11 0 -14 -3 -6 -6z"/>
  <path d="M617 193 c-8 -12 30 -29 40 -19 4 3 -1 6 -9 6 -9 0 -18 5 -20 12 -3
9 -6 9 -11 1z"/>
  <path d="M700 115 c35 -31 59 -45 80 -45 44 0 44 15 0 30 -22 7 -45 19 -51 26
-6 7 -18 10 -26 7 -10 -4 -14 -2 -10 4 4 6 0 14 -9 17 -36 14 -32 4 16 -39z"/>
</g>
</g>
</svg>