<?xml version="1.0" standalone="no"?>
<!DOCTYPE svg PUBLIC "-//W3C//DTD SVG 20010904//EN"
 "http://www.w3.org/TR/2001/REC-SVG-20010904/DTD/svg10.dtd">
<svg version="1.0" xmlns="http://www.w3.org/2000/svg"
 width="96.000000pt" height="68.000000pt" viewBox="0 0 96.000000 68.000000"
 preserveAspectRatio="xMidYMid meet">
<metadata>
Created by potrace 1.16, written by Peter Selinger 2001-2019
Combined from part_0.svg through part_5.svg with named groups
</metadata>
<g transform="translate(0.000000,68.000000) scale(0.100000,-0.100000)" fill="#000000" stroke="none">
<g id="part-0" class="char-part">
  <path d="M340 569 c-36 -5 -84 -11 -108 -15 -44 -6 -49 -24 -6 -24 23 0 24 -2
24 -74 l0 -75 -47 -7 c-42 -6 -45 -8 -26 -17 16 -7 47 -5 105 7 111 22 113 21
116 -14 2 -29 1 -30 -40 -30 -31 0 -39 -3 -28 -10 10 -6 16 -32 18 -84 4 -72
3 -76 -17 -76 -12 0 -21 -5 -21 -11 0 -11 55 -8 106 7 19 5 20 1 20 -44 -1
-47 7 -72 19 -60 3 3 8 28 12 57 5 41 9 51 24 51 25 0 24 16 0 23 -15 4 -18
15 -19 70 0 57 3 66 21 75 18 9 14 11 -30 11 -51 1 -51 1 -44 29 5 20 15 28
34 30 34 4 35 22 1 22 -24 0 -25 2 -23 64 2 62 3 64 31 70 18 3 28 11 26 18
-6 16 -63 19 -148 7z m50 -44 c0 -8 -8 -15 -17 -15 -10 0 -28 -3 -41 -6 -16
-5 -22 -3 -20 7 3 13 31 25 66 28 6 0 12 -6 12 -14z m0 -55 c0 -5 -6 -10 -14
-10 -7 0 -28 -3 -45 -6 -24 -5 -31 -3 -31 10 0 12 10 16 45 16 25 0 45 -4 45
-10z m3 -55 c-1 -10 -83 -28 -91 -20 -3 2 -2 11 2 20 4 12 17 15 48 13 24 -2
42 -7 41 -13z m45 -127 c3 -14 -3 -18 -26 -18 -25 0 -29 3 -25 21 7 25 46 22
51 -3z m2 -48 c0 -11 -3 -19 -7 -19 -22 4 -43 -2 -43 -11 0 -6 11 -8 25 -4 21
5 25 3 25 -15 0 -14 -8 -23 -26 -27 -34 -9 -45 4 -38 48 5 30 11 38 33 41 14
2 27 5 29 6 1 0 2 -8 2 -19z"/>
  <path d="M635 545 c-49 -7 -98 -14 -107 -14 -10 -1 -18 -5 -18 -11 0 -5 23
-10 50 -10 45 0 50 -2 50 -22 -1 -34 -34 -68 -65 -68 -23 0 -25 -2 -16 -14 9
-11 10 -44 5 -121 l-7 -107 32 7 c42 9 40 -6 -9 -71 -22 -29 -40 -56 -40 -59
0 -11 45 18 98 63 50 43 52 46 36 63 -16 18 -15 19 46 19 48 0 66 -4 75 -17
11 -15 15 -15 29 -4 13 11 16 36 16 136 l0 123 -27 5 c-16 3 -50 1 -78 -3 -27
-5 -63 -9 -80 -9 -27 0 -28 1 -10 11 28 16 55 51 50 64 -2 8 25 14 81 19 83 7
105 17 62 29 -31 8 -66 6 -173 -9z m125 -165 c0 -4 -24 -10 -52 -14 -29 -3
-72 -9 -95 -12 -42 -6 -43 -5 -43 24 0 30 0 30 78 39 70 8 79 7 95 -10 9 -11
17 -23 17 -27z m-2 -56 c3 -20 -3 -22 -79 -28 -45 -4 -88 -10 -96 -13 -11 -4
-14 1 -11 22 3 26 6 27 63 32 32 2 62 6 64 9 3 3 17 4 31 2 17 -2 26 -10 28
-24z m0 -70 c-3 -26 -4 -27 -98 -31 -92 -4 -96 -3 -96 17 0 26 29 33 159 38
36 2 38 0 35 -24z"/>
  <path d="M260 314 c-8 -1 -41 -6 -74 -9 -53 -6 -56 -8 -38 -21 16 -11 20 -25
20 -74 0 -59 -1 -61 -29 -67 -16 -3 -29 -10 -29 -15 0 -14 68 -4 113 16 l39
17 -2 -33 c-3 -56 -1 -68 15 -68 16 0 15 -1 19 167 0 40 5 73 9 73 5 0 5 5 2
10 -6 10 -16 11 -45 4z m0 -34 c0 -5 0 -13 0 -17 0 -5 -4 -9 -10 -9 -30 -4
-33 -7 -12 -12 37 -11 30 -27 -12 -30 -32 -3 -38 -1 -29 10 6 7 10 25 8 41 -3
24 0 27 26 27 16 0 29 -4 29 -10z m10 -90 c0 -13 -34 -30 -59 -30 -23 0 -24 1
-15 24 7 18 74 23 74 6z"/>
  <path d="M720 133 c66 -76 85 -93 102 -93 24 0 24 40 0 60 -32 27 -67 47 -97
54 l-30 8 25 -29z"/>
</g>
<g id="part-1" class="char-part">
  <path d="M408 575 c-3 -3 -52 -12 -109 -19 -57 -7 -97 -15 -89 -18 8 -4 23 -9
33 -12 14 -4 17 -17 17 -75 0 -64 1 -69 20 -64 11 3 20 14 20 24 0 14 7 19 28
20 35 1 69 14 56 22 -6 3 -27 2 -47 -3 -33 -7 -37 -6 -37 11 0 15 7 19 33 19
17 0 39 5 47 11 11 7 5 9 -25 8 -56 -1 -57 -1 -46 19 8 15 27 20 86 25 84 7
105 15 84 28 -16 10 -63 12 -71 4z"/>
</g>
<g id="part-2" class="char-part">
  <path d="M445 298 c-2 -7 -6 -40 -7 -73 l-3 -60 -62 -8 c-35 -5 -63 -13 -63
-19 0 -10 68 -5 113 8 15 5 17 1 11 -35 -4 -28 -2 -46 7 -57 12 -14 14 -14 20
3 4 10 8 35 8 55 1 32 4 37 29 40 l27 4 -27 14 c-26 12 -28 17 -28 77 0 36 -4
63 -10 63 -6 0 -13 -6 -15 -12z"/>
</g>
<g id="part-3" class="char-part">
  <path d="M602 542 c-73 -11 -100 -18 -92 -26 6 -6 31 -9 55 -8 37 1 45 -2 45
-16 0 -10 -7 -28 -16 -40 -12 -18 -12 -22 -2 -22 19 0 82 66 74 78 -3 5 29 12
76 16 88 7 101 12 78 26 -20 13 -94 10 -218 -8z"/>
</g>
<g id="part-4" class="char-part">
  <path d="M670 435 c-41 -8 -92 -14 -113 -14 -36 -1 -37 -2 -26 -23 7 -14 10
-46 6 -90 -5 -56 -3 -68 9 -68 8 0 17 7 20 15 4 10 21 15 53 15 25 1 65 5 89
9 33 7 44 5 51 -6 4 -8 17 -13 27 -11 16 3 20 15 24 81 3 47 1 82 -5 87 -20
16 -61 18 -135 5z m84 -31 c11 -28 7 -31 -46 -37 -29 -4 -72 -10 -95 -13 -43
-7 -43 -6 -43 24 0 28 3 31 38 35 95 10 140 7 146 -9z m6 -78 c0 -21 -5 -24
-67 -29 -110 -11 -123 -10 -123 12 0 16 9 21 48 26 26 3 54 8 62 9 8 2 30 4
48 5 27 1 32 -2 32 -23z"/>
</g>
<g id="part-5" class="char-part">
  <path d="M591 169 c0 -15 -8 -32 -16 -39 -8 -6 -13 -17 -12 -23 1 -7 -3 -11
-9 -10 -7 1 -20 -8 -30 -20 l-19 -22 24 20 c13 11 25 18 28 15 5 -7 53 39 53
52 0 5 4 7 9 4 5 -3 14 1 21 9 10 12 9 16 -5 21 -10 4 -20 1 -25 -6 -6 -10 -9
-8 -13 6 -3 14 -5 12 -6 -7z"/>
  <path d="M726 141 c-4 -5 3 -12 14 -16 11 -4 18 -11 15 -16 -3 -5 2 -6 11 -2
12 4 15 3 10 -5 -8 -14 23 -61 42 -62 19 0 14 35 -8 61 -10 13 -19 20 -20 16
0 -5 -13 1 -29 13 -17 11 -32 16 -35 11z m79 -69 c-3 -3 -11 0 -18 7 -9 10 -8
11 6 5 10 -3 15 -9 12 -12z"/>
</g>
</g>
</svg>