<?xml version="1.0" standalone="no"?>
<!DOCTYPE svg PUBLIC "-//W3C//DTD SVG 20010904//EN"
 "http://www.w3.org/TR/2001/REC-SVG-20010904/DTD/svg10.dtd">
<svg version="1.0" xmlns="http://www.w3.org/2000/svg"
 width="96.000000pt" height="68.000000pt" viewBox="0 0 96.000000 68.000000"
 preserveAspectRatio="xMidYMid meet">
<metadata>
Created by potrace 1.16, written by Peter Selinger 2001-2019
Combined from part_0.svg through part_5.svg with named groups
</metadata>
<g transform="translate(0.000000,68.000000) scale(0.100000,-0.100000)" fill="#000000" stroke="none">
<g id="part-0" class="char-part">
  <path d="M635 575 c-70 -14 -56 -26 25 -22 l55 2 3 -69 c3 -77 -5 -94 -37 -77
-28 15 -27 7 4 -24 48 -47 62 -28 66 93 5 120 4 122 -116 97z"/>
  <path d="M190 562 c0 -11 31 -55 50 -69 36 -29 71 -2 49 38 -15 29 -99 55 -99
31z"/>
  <path d="M433 557 c-60 -11 -74 -33 -15 -23 83 14 77 19 77 -59 0 -60 -3 -70
-17 -69 -15 1 -16 0 -1 -22 32 -50 51 -20 54 85 1 62 -2 85 -12 92 -16 10 -16
10 -86 -4z"/>
  <path d="M607 499 c22 -23 46 -18 36 6 -3 8 -17 15 -31 15 l-26 0 21 -21z"/>
  <path d="M410 480 c16 -12 28 -16 35 -9 12 12 -11 29 -40 29 -18 0 -18 -2 5
-20z"/>
  <path d="M193 457 c-76 -14 -113 -25 -113 -33 0 -25 49 -26 143 -6 50 12 109
24 130 27 23 4 37 11 37 20 0 20 -56 18 -197 -8z"/>
  <path d="M656 465 c-11 -8 -35 -18 -53 -21 -27 -5 -31 -9 -22 -20 18 -21 32
-17 69 21 36 37 38 44 6 20z"/>
  <path d="M402 426 c-18 -5 -31 -15 -29 -20 6 -19 23 -16 57 9 35 26 27 30 -28
11z"/>
  <path d="M540 376 c0 -16 -60 -72 -113 -105 -21 -13 -36 -25 -33 -28 6 -6 93
43 138 78 20 16 42 29 48 29 11 0 71 -44 115 -83 31 -29 62 -38 106 -31 37 6
55 24 24 24 -31 0 -129 44 -192 86 -68 46 -93 54 -93 30z"/>
  <path d="M221 369 c-61 -12 -63 -19 -4 -19 62 0 113 10 113 21 0 11 -49 10
-109 -2z"/>
  <path d="M220 297 c-36 -9 -40 -12 -21 -15 36 -6 131 8 131 19 0 12 -52 10
-110 -4z"/>
  <path d="M555 286 c-5 -9 -37 -31 -69 -51 -76 -45 -55 -45 41 0 45 21 73 40
71 47 -7 19 -31 21 -43 4z"/>
  <path d="M265 230 c-11 -5 -44 -9 -73 -9 l-53 -1 20 -26 c12 -15 21 -37 21
-49 0 -35 19 -44 75 -35 28 5 55 9 62 9 6 1 9 10 6 21 -3 11 2 32 12 46 9 14
14 32 11 40 -6 15 -49 18 -81 4z m25 -50 c0 -23 -6 -33 -24 -42 -33 -14 -52
-6 -60 28 -8 32 5 44 52 44 29 0 32 -3 32 -30z"/>
  <path d="M593 222 c-6 -10 -46 -38 -90 -61 -92 -50 -65 -45 65 11 91 40 110
60 61 66 -15 2 -28 -4 -36 -16z"/>
  <path d="M680 180 c0 -21 -188 -129 -254 -144 -15 -4 -27 -9 -24 -11 16 -16
328 109 328 132 0 13 -22 33 -37 33 -7 0 -13 -4 -13 -10z"/>
</g>
<g id="part-1" class="char-part">
  <path d="M200 558 c1 -25 56 -82 74 -75 23 9 20 44 -6 61 -37 23 -68 29 -68
14z"/>
  <path d="M212 456 c-125 -23 -147 -31 -119 -42 20 -7 73 -2 197 22 106 20 110
21 90 34 -19 12 -23 12 -168 -14z"/>
</g>
<g id="part-2" class="char-part">
  <path d="M265 230 c-11 -5 -44 -9 -74 -9 -51 -1 -53 -2 -39 -18 9 -10 22 -37
29 -61 14 -47 2 -44 114 -27 24 4 32 10 29 20 -3 7 2 30 12 50 15 31 15 38 3
46 -17 11 -47 10 -74 -1z m25 -50 c0 -24 -6 -33 -26 -40 -37 -15 -41 -13 -53
22 -13 37 -3 48 47 48 29 0 32 -3 32 -30z"/>
</g>
<g id="part-3" class="char-part">
  <path d="M428 557 c-68 -15 -59 -29 12 -21 l60 7 0 -66 c0 -59 -2 -66 -21 -69
-20 -3 -20 -3 2 -26 32 -36 46 -13 51 86 4 72 2 84 -13 93 -20 10 -26 10 -91
-4z"/>
</g>
<g id="part-4" class="char-part">
  <path d="M650 464 c-14 -8 -38 -19 -55 -25 -26 -9 -28 -12 -12 -20 18 -10 58
11 87 46 15 18 13 18 -20 -1z"/>
</g>
<g id="part-5" class="char-part">
  <path d="M686 175 c-3 -8 -24 -27 -48 -42 -51 -33 -73 -53 -59 -53 5 0 16 6
23 13 7 8 26 17 41 20 15 4 26 12 24 18 -1 7 4 14 12 17 9 3 11 0 6 -9 -5 -8
0 -6 12 4 11 9 23 14 26 10 4 -3 7 -2 7 3 0 5 -9 15 -19 21 -15 10 -20 9 -25
-2z"/>
  <path d="M523 70 c-34 -14 -28 -21 7 -9 17 6 30 13 30 15 0 6 -12 4 -37 -6z"/>
</g>
</g>
</svg>