<?xml version="1.0" standalone="no"?>
<!DOCTYPE svg PUBLIC "-//W3C//DTD SVG 20010904//EN"
 "http://www.w3.org/TR/2001/REC-SVG-20010904/DTD/svg10.dtd">
<svg version="1.0" xmlns="http://www.w3.org/2000/svg"
 width="96.000000pt" height="68.000000pt" viewBox="0 0 96.000000 68.000000"
 preserveAspectRatio="xMidYMid meet">
<metadata>
Created by potrace 1.16, written by Peter Selinger 2001-2019
Combined from part_0.svg through part_5.svg with named groups
</metadata>
<g transform="translate(0.000000,68.000000) scale(0.100000,-0.100000)" fill="#000000" stroke="none">
<g id="part-0" class="char-part">
  <path d="M307 583 c-4 -3 -7 -15 -7 -26 0 -34 -72 -140 -146 -214 -40 -39 -70
-74 -67 -77 9 -9 55 14 99 50 l44 36 0 -88 c0 -49 -5 -106 -11 -127 -17 -63
27 -127 49 -70 15 39 23 282 11 305 -9 16 0 33 51 99 60 77 62 81 45 100 -18
19 -55 26 -68 12z"/>
  <path d="M482 494 c-1 -53 -3 -99 -5 -101 -5 -4 -18 -6 -102 -18 -46 -7 -48
-8 -25 -17 14 -5 45 -8 69 -5 l43 5 -5 -34 c-8 -48 -62 -150 -111 -208 l-41
-50 44 25 c66 36 139 149 156 242 6 28 13 38 31 42 13 3 35 7 49 10 30 6 31
-3 10 -90 -38 -155 -2 -217 132 -231 80 -9 128 14 118 54 -3 15 -9 39 -12 54
-7 37 -20 35 -28 -2 -10 -46 -30 -60 -85 -60 -64 0 -90 25 -90 88 0 46 25 134
47 167 39 58 -14 83 -105 51 -23 -8 -43 -12 -46 -8 -2 4 3 41 11 82 14 69 14
74 -3 87 -10 7 -25 13 -34 13 -14 0 -16 -15 -18 -96z"/>
</g>
<g id="part-1" class="char-part">
  <path d="M310 567 c0 -35 -73 -142 -153 -224 -39 -40 -67 -73 -63 -73 15 0 73
34 106 63 l35 31 3 -80 c1 -43 -4 -102 -11 -130 -14 -54 -6 -104 18 -104 21 0
27 29 34 170 6 108 4 138 -7 152 -12 15 -8 24 36 78 72 90 80 107 56 125 -30
22 -54 19 -54 -8z"/>
</g>
<g id="part-2" class="char-part">
  <path d="M483 510 c-2 -109 -6 -117 -56 -125 -94 -14 -102 -17 -83 -27 10 -5
40 -8 67 -6 l50 3 -6 -34 c-9 -50 -61 -149 -107 -203 -22 -27 -36 -48 -30 -48
22 0 91 61 121 108 31 49 71 147 71 176 0 9 14 18 35 22 25 4 35 11 35 25 0
15 -4 17 -24 9 -13 -5 -26 -7 -28 -4 -3 2 2 39 10 81 13 72 13 78 -4 90 -40
30 -49 18 -51 -67z"/>
</g>
<g id="part-3" class="char-part">
  <path d="M598 423 c-22 -5 -24 -33 -3 -33 19 0 19 -20 0 -90 -30 -110 -14
-185 47 -216 48 -25 138 -30 176 -10 35 18 37 24 21 75 -7 20 -14 43 -16 51
-3 9 -11 0 -19 -24 -22 -63 -31 -69 -93 -64 -37 4 -58 11 -67 23 -30 40 -8
172 39 239 20 28 20 29 2 42 -18 14 -52 16 -87 7z"/>
</g>
</g>
</svg>