<?xml version="1.0" standalone="no"?>
<!DOCTYPE svg PUBLIC "-//W3C//DTD SVG 20010904//EN"
 "http://www.w3.org/TR/2001/REC-SVG-20010904/DTD/svg10.dtd">
<svg version="1.0" xmlns="http://www.w3.org/2000/svg"
 width="96.000000pt" height="68.000000pt" viewBox="0 0 96.000000 68.000000"
 preserveAspectRatio="xMidYMid meet">
<metadata>
Created by potrace 1.16, written by Peter Selinger 2001-2019
Combined from part_0.svg through part_5.svg with named groups
</metadata>
<g transform="translate(0.000000,68.000000) scale(0.100000,-0.100000)" fill="#000000" stroke="none">
<g id="part-0" class="char-part">
  <path d="M220 592 c0 -5 14 -28 30 -50 17 -23 30 -43 30 -45 0 -1 -12 -4 -26
-5 -47 -4 -158 -23 -163 -28 -11 -10 26 -24 64 -24 47 1 254 35 263 45 14 13
-25 25 -66 20 -42 -6 -43 -6 -36 19 5 19 0 31 -21 51 -27 24 -75 35 -75 17z"/>
  <path d="M490 543 c-26 -71 -37 -91 -77 -140 -45 -55 -45 -68 0 -33 14 11 28
20 32 20 4 0 4 -46 1 -102 -4 -57 -7 -116 -8 -132 -1 -31 21 -51 37 -35 15 15
23 258 8 279 -10 14 -5 26 28 73 41 58 42 69 8 87 -16 9 -21 7 -29 -17z"/>
  <path d="M581 370 c-1 -89 3 -169 8 -179 24 -44 109 -62 196 -40 60 15 69 27
53 78 -13 43 -28 54 -28 22 0 -10 -8 -29 -19 -42 -16 -20 -28 -23 -79 -24 -42
0 -66 5 -76 15 -17 18 -28 89 -20 129 6 27 11 31 83 46 99 22 111 29 81 45
-19 10 -29 9 -64 -9 -58 -29 -92 -32 -88 -6 1 11 5 41 8 66 6 42 5 47 -17 52
-13 4 -27 7 -31 7 -3 0 -7 -72 -7 -160z"/>
  <path d="M245 403 c-16 -3 -34 -9 -40 -15 -12 -13 111 -1 135 12 16 10 -36 11
-95 3z"/>
  <path d="M258 336 c-82 -13 -74 -30 10 -22 68 7 99 20 65 27 -10 3 -44 0 -75
-5z"/>
  <path d="M275 263 c-27 -7 -65 -12 -82 -10 -18 1 -33 -1 -33 -5 0 -4 4 -8 10
-8 5 0 17 -23 27 -50 16 -45 21 -50 43 -46 14 3 44 8 68 11 23 4 40 11 37 16
-3 4 3 26 15 48 20 40 20 40 1 51 -23 12 -21 12 -86 -7z m45 -25 c-1 -40 -14
-58 -47 -64 -40 -8 -41 -7 -49 33 -6 29 -4 32 22 36 56 8 74 7 74 -5z"/>
</g>
<g id="part-1" class="char-part">
  <path d="M230 585 c0 -17 48 -75 63 -75 23 0 23 42 -1 63 -17 16 -62 24 -62
12z"/>
  <path d="M208 482 c-60 -8 -108 -18 -108 -23 0 -20 54 -19 170 0 67 12 126 21
131 21 5 0 9 5 9 10 0 13 -71 11 -202 -8z"/>
</g>
<g id="part-2" class="char-part">
  <path d="M280 264 c-25 -8 -62 -13 -82 -10 -44 5 -45 3 -18 -31 11 -14 20 -33
20 -42 0 -25 25 -57 34 -43 4 7 25 12 46 12 46 0 72 9 64 21 -3 5 4 26 16 46
31 52 -2 72 -80 47z m36 -36 c-3 -13 -6 -28 -6 -35 0 -12 -66 -30 -75 -21 -3
2 -8 18 -11 36 -6 29 -4 31 27 35 72 8 72 9 65 -15z"/>
</g>
<g id="part-3" class="char-part">
  <path d="M485 538 c-9 -41 -46 -107 -87 -153 -35 -40 -30 -44 18 -14 l34 21 0
-79 c0 -43 -5 -94 -10 -113 -7 -25 -7 -43 1 -62 13 -32 24 -35 38 -10 14 27
18 269 4 283 -9 9 -1 24 28 61 46 58 48 71 14 86 -34 16 -32 17 -40 -20z"/>
</g>
<g id="part-4" class="char-part">
  <path d="M581 374 c-1 -185 6 -207 72 -225 50 -13 124 -6 166 16 36 18 36 20
14 71 -17 37 -17 38 -21 13 -5 -40 -36 -62 -95 -67 -42 -3 -57 0 -77 16 -22
18 -25 28 -25 85 0 36 3 68 7 72 3 4 39 13 80 22 96 20 112 28 76 42 -23 9
-36 6 -77 -14 -49 -25 -81 -32 -81 -17 0 4 6 33 14 65 13 53 12 58 -5 67 -46
25 -48 20 -48 -146z"/>
</g>
</g>
</svg>