<?xml version="1.0" standalone="no"?>
<!DOCTYPE svg PUBLIC "-//W3C//DTD SVG 20010904//EN"
 "http://www.w3.org/TR/2001/REC-SVG-20010904/DTD/svg10.dtd">
<svg version="1.0" xmlns="http://www.w3.org/2000/svg"
 width="96.000000pt" height="68.000000pt" viewBox="0 0 96.000000 68.000000"
 preserveAspectRatio="xMidYMid meet">
<metadata>
Created by potrace 1.16, written by Peter Selinger 2001-2019
Combined from part_0.svg through part_5.svg with named groups
</metadata>
<g transform="translate(0.000000,68.000000) scale(0.100000,-0.100000)" fill="#000000" stroke="none">
<g id="part-0" class="char-part">
  <path d="M468 614 c-3 -3 1 -26 8 -51 23 -76 19 -91 -22 -99 -19 -3 -55 -4
-80 -1 -48 5 -52 2 -28 -24 9 -10 20 -37 25 -61 25 -111 29 -119 49 -108 28
15 130 13 130 -3 0 -7 9 -30 20 -52 11 -22 20 -45 20 -53 0 -7 -37 -31 -82
-53 -79 -38 -81 -40 -39 -34 35 4 106 30 142 51 6 3 19 -6 83 -63 25 -23 116
-46 116 -31 0 3 -6 23 -14 44 -7 22 -11 44 -9 51 2 6 0 14 -6 17 -5 3 -12 -7
-16 -24 -8 -38 -29 -38 -75 0 l-35 29 39 40 c33 34 37 42 26 56 -20 24 -44 17
-60 -18 -8 -17 -19 -31 -25 -31 -5 1 -20 21 -32 45 -18 37 -19 45 -7 52 7 4
23 3 34 -3 12 -6 26 -10 32 -8 6 2 23 40 38 83 15 44 30 88 34 97 16 37 -44
45 -171 22 l-33 -6 0 57 c0 43 -4 61 -17 71 -19 14 -36 17 -45 8z m190 -171
c3 -30 2 -30 -50 -36 -62 -6 -68 -3 -68 28 0 19 7 24 48 33 62 13 66 11 70
-25z m-154 -15 c7 -29 -1 -36 -44 -38 -56 -3 -60 -1 -60 24 0 25 13 32 71 35
20 1 28 -5 33 -21z m145 -70 c-5 -18 -9 -34 -9 -35 0 -2 -18 -3 -40 -3 -38 0
-40 2 -40 29 0 28 3 30 43 34 23 2 45 4 49 5 4 1 2 -13 -3 -30z m-126 -15 c13
-30 10 -32 -49 -35 -46 -3 -49 -2 -52 24 -3 21 2 27 20 31 47 8 70 2 81 -20z"/>
  <path d="M212 529 c7 -11 28 -29 46 -41 26 -16 35 -18 47 -8 8 7 15 19 15 27
0 16 -58 43 -95 43 -23 0 -24 -2 -13 -21z"/>
  <path d="M130 391 c0 -13 68 -71 84 -71 20 0 37 25 30 44 -9 24 -114 49 -114
27z"/>
  <path d="M267 273 c-15 -24 -47 -64 -72 -90 -50 -52 -50 -52 -33 -88 17 -37
43 -32 61 12 8 21 29 68 47 105 39 83 38 124 -3 61z"/>
</g>
<g id="part-1" class="char-part">
  <path d="M210 542 c0 -16 60 -62 81 -62 24 0 26 36 2 48 -30 16 -83 24 -83 14z"/>
  <path d="M151 373 c36 -46 89 -60 89 -23 0 24 -28 40 -71 40 -28 0 -30 -2 -18
-17z"/>
  <path d="M252 243 c-22 -32 -54 -70 -72 -85 -30 -27 -31 -28 -15 -58 8 -16 20
-30 26 -30 5 0 21 26 35 57 14 32 37 82 50 111 14 30 23 56 21 59 -3 2 -23
-22 -45 -54z"/>
</g>
<g id="part-2" class="char-part">
  <path d="M460 611 c0 -5 7 -28 15 -51 8 -23 15 -53 15 -66 0 -17 6 -24 20 -24
18 0 20 7 20 65 0 53 -3 66 -19 75 -24 12 -51 13 -51 1z"/>
</g>
<g id="part-3" class="char-part">
  <path d="M635 498 c-68 -19 -223 -39 -262 -34 -44 6 -54 -2 -29 -24 8 -6 23
-46 32 -88 19 -88 24 -97 50 -84 30 16 197 32 211 20 7 -5 18 -8 24 -6 15 5
80 191 70 201 -15 15 -67 24 -96 15z m25 -53 c0 -35 -1 -35 -45 -36 -25 -1
-51 -2 -57 -3 -7 -1 -14 11 -16 26 -3 27 4 30 111 47 4 0 7 -15 7 -34z m-156
-17 c8 -32 -5 -40 -55 -36 -36 2 -45 7 -47 25 -3 17 3 22 25 26 62 9 71 7 77
-15z m150 -65 c-9 -39 -17 -45 -55 -41 -28 2 -35 7 -37 30 -3 24 0 27 35 31
21 2 44 4 51 5 9 1 10 -6 6 -25z m-132 -18 c15 -33 7 -39 -50 -39 -44 -1 -47
1 -50 26 -3 22 1 27 25 31 57 8 64 7 75 -18z"/>
</g>
<g id="part-4" class="char-part">
  <path d="M557 248 c9 -24 23 -53 31 -66 8 -12 13 -24 11 -26 -2 -3 -42 -23
-89 -46 -79 -39 -82 -42 -43 -37 23 3 68 17 99 31 l58 27 40 -40 c50 -48 76
-61 116 -61 27 0 31 3 25 18 -4 9 -11 37 -16 61 -12 57 -15 60 -23 16 -9 -44
-29 -46 -76 -6 l-35 29 39 41 c33 34 37 42 26 56 -18 22 -39 19 -49 -8 -5 -13
-16 -29 -24 -36 -17 -13 -31 2 -58 62 -7 15 -20 27 -31 27 -17 0 -17 -2 -1
-42z"/>
</g>
</g>
</svg>