<?xml version="1.0" standalone="no"?>
<!DOCTYPE svg PUBLIC "-//W3C//DTD SVG 20010904//EN"
 "http://www.w3.org/TR/2001/REC-SVG-20010904/DTD/svg10.dtd">
<svg version="1.0" xmlns="http://www.w3.org/2000/svg"
 width="96.000000pt" height="68.000000pt" viewBox="0 0 96.000000 68.000000"
 preserveAspectRatio="xMidYMid meet">
<metadata>
Created by potrace 1.16, written by Peter Selinger 2001-2019
Combined from part_0.svg through part_5.svg with named groups
</metadata>
<g transform="translate(0.000000,68.000000) scale(0.100000,-0.100000)" fill="#000000" stroke="none">
<g id="part-0" class="char-part">
  <path d="M434 588 c-6 -22 -86 -124 -109 -140 -6 -5 -6 -8 2 -8 7 0 28 14 47
30 41 36 50 28 41 -38 -3 -26 -8 -62 -11 -80 -5 -44 5 -82 22 -82 8 0 14 -9
14 -20 0 -23 -18 -27 -185 -35 -65 -3 -121 -8 -123 -10 -2 -2 6 -9 18 -15 17
-9 50 -9 134 -1 172 17 156 24 157 -66 0 -43 4 -87 8 -98 8 -19 8 -19 19 2 7
12 12 48 12 80 0 110 -11 103 171 103 156 0 184 6 138 31 -20 10 -193 6 -262
-8 -23 -4 -29 -1 -34 16 -3 12 -16 24 -30 27 -48 12 -6 23 131 33 76 5 141 12
144 15 14 14 -15 21 -84 18 -67 -3 -74 -1 -74 16 0 16 10 21 55 27 30 3 55 11
55 17 0 7 -16 8 -45 4 -53 -8 -65 -3 -58 24 4 15 15 20 52 22 25 2 45 7 43 13
-1 5 -22 8 -47 6 -42 -2 -45 -1 -45 22 0 28 20 37 83 37 23 0 36 4 32 10 -3 6
-28 10 -56 10 -37 0 -49 4 -49 15 0 18 -45 49 -59 40 -7 -4 -5 -15 6 -31 14
-22 14 -27 2 -35 -8 -5 -25 -9 -39 -9 -14 0 -36 -3 -50 -7 -24 -6 -24 -5 8 29
25 26 29 37 20 46 -19 19 -46 14 -54 -10z m106 -102 c0 -25 -21 -36 -72 -36
-23 0 -27 4 -25 22 4 24 27 36 70 37 22 1 27 -3 27 -23z m10 -66 c0 -24 -17
-32 -67 -34 -29 -1 -36 3 -39 21 -4 22 -4 22 89 31 11 1 17 -5 17 -18z m-2
-72 c-3 -20 -9 -23 -53 -23 -37 0 -50 4 -51 15 -1 26 6 30 57 30 47 0 50 -2
47 -22z"/>
  <path d="M259 572 c23 -43 101 -64 101 -27 0 20 -23 34 -69 41 -42 7 -43 6
-32 -14z"/>
  <path d="M190 482 c0 -15 63 -62 82 -62 22 0 29 24 14 45 -14 19 -96 34 -96
17z"/>
  <path d="M302 388 c-22 -18 -54 -41 -71 -50 -31 -17 -32 -18 -16 -48 8 -16 19
-30 24 -30 4 0 27 25 49 55 75 100 81 127 14 73z"/>
</g>
<g id="part-1" class="char-part">
  <path d="M260 582 c0 -16 46 -52 68 -52 34 0 29 36 -5 44 -16 4 -36 9 -45 12
-10 3 -18 1 -18 -4z"/>
  <path d="M215 460 c31 -32 75 -41 75 -14 0 15 -56 44 -87 44 -13 0 -11 -6 12
-30z"/>
  <path d="M300 380 c-19 -16 -47 -34 -62 -41 -32 -13 -35 -27 -13 -55 15 -18
16 -18 40 11 45 54 86 115 78 115 -4 0 -24 -14 -43 -30z"/>
</g>
<g id="part-2" class="char-part">
  <path d="M548 418 c-2 -19 -13 -25 -58 -34 l-55 -12 58 -1 c49 -1 57 -4 57
-20 0 -22 -19 -31 -66 -31 -25 0 -34 -4 -34 -16 0 -10 5 -14 15 -10 9 3 75 10
147 16 73 6 134 13 136 15 14 13 -55 24 -105 16 -42 -6 -56 -5 -60 5 -8 22 5
31 57 38 27 4 50 12 50 18 0 7 -16 8 -50 4 -46 -6 -50 -5 -50 14 0 29 -38 27
-42 -2z"/>
</g>
<g id="part-3" class="char-part">
  <path d="M439 273 c-1 -5 -1 -15 0 -24 2 -18 -23 -22 -211 -35 -54 -3 -98 -10
-98 -14 0 -18 75 -23 166 -11 156 19 144 25 144 -71 0 -92 11 -124 29 -90 6
11 11 43 11 70 0 27 3 64 6 81 l7 31 158 0 c156 0 184 6 138 30 -19 11 -207 7
-267 -6 -15 -3 -25 1 -29 13 -10 28 -51 47 -54 26z"/>
</g>
</g>
</svg>