<?xml version="1.0" standalone="no"?>
<!DOCTYPE svg PUBLIC "-//W3C//DTD SVG 20010904//EN"
 "http://www.w3.org/TR/2001/REC-SVG-20010904/DTD/svg10.dtd">
<svg version="1.0" xmlns="http://www.w3.org/2000/svg"
 width="96.000000pt" height="68.000000pt" viewBox="0 0 96.000000 68.000000"
 preserveAspectRatio="xMidYMid meet">
<metadata>
Created by potrace 1.16, written by Peter Selinger 2001-2019
Combined from part_0.svg through part_5.svg with named groups
</metadata>
<g transform="translate(0.000000,68.000000) scale(0.100000,-0.100000)" fill="#000000" stroke="none">
<g id="part-0" class="char-part">
  <path d="M225 588 c4 -13 9 -55 12 -94 l5 -72 -61 -8 c-74 -11 -80 -28 -11
-32 27 -2 50 -7 50 -13 0 -21 -42 -90 -90 -148 -28 -34 -48 -61 -45 -61 28 0
117 77 144 125 9 16 10 10 5 -31 -3 -27 -7 -82 -8 -122 -1 -78 11 -105 39 -82
12 10 15 38 15 147 l0 134 31 -23 c26 -19 31 -20 39 -8 15 23 6 34 -34 44 -29
8 -36 14 -34 30 2 14 14 23 41 29 47 11 43 31 -6 35 -32 3 -36 6 -33 25 3 12
8 43 11 69 5 40 3 48 -17 62 -12 9 -31 16 -41 16 -16 0 -18 -5 -12 -22z"/>
  <path d="M430 561 c0 -4 11 -20 25 -33 l25 -25 -31 -7 c-17 -3 -42 -6 -55 -6
-13 0 -24 -5 -24 -11 0 -8 15 -9 48 -5 26 4 72 9 102 12 30 3 62 8 70 10 27 9
-18 26 -50 19 -23 -5 -29 -2 -35 15 -9 27 -75 55 -75 31z"/>
  <path d="M740 494 c-19 -7 -53 -13 -74 -13 l-39 -1 6 -226 c4 -125 9 -229 12
-232 15 -16 20 29 25 219 5 228 6 229 63 229 25 0 27 -3 22 -22 -4 -13 -13
-33 -21 -45 -21 -33 -18 -43 27 -84 29 -27 40 -44 37 -61 -3 -20 -8 -23 -43
-21 -35 2 -38 1 -21 -10 10 -6 31 -22 46 -35 15 -12 30 -22 33 -22 17 0 37 37
37 69 0 29 -7 44 -32 68 -18 17 -43 36 -55 42 -13 7 -23 15 -23 19 0 4 23 31
52 60 28 29 49 55 46 57 -16 16 -66 21 -98 9z"/>
  <path d="M510 449 c-14 -4 -52 -8 -85 -8 -49 -1 -57 -4 -44 -14 9 -7 20 -25
26 -42 9 -27 13 -30 49 -27 47 4 86 10 88 14 7 12 26 61 26 67 0 13 -32 18
-60 10z m10 -39 c0 -34 -92 -42 -98 -8 -3 17 15 24 71 27 21 1 27 -4 27 -19z"/>
  <path d="M430 315 c-48 -11 -52 -13 -30 -19 14 -4 38 -2 54 3 15 6 36 11 47
11 17 0 18 -3 9 -20 -7 -12 -21 -20 -37 -20 -21 0 -24 -3 -15 -12 7 -7 12 -15
12 -20 0 -11 -69 -28 -115 -28 -38 0 -39 0 -17 -15 19 -14 27 -14 74 0 28 8
54 15 58 15 3 0 4 -18 2 -39 -3 -33 -8 -40 -27 -43 l-24 -3 25 -29 c24 -27 27
-28 42 -13 10 11 17 39 20 81 l4 65 39 6 c21 4 42 12 46 17 6 11 -18 8 -74 -8
-32 -9 -29 10 5 26 47 24 53 31 41 46 -13 16 -63 16 -139 -1z"/>
</g>
<g id="part-1" class="char-part">
  <path d="M234 573 c3 -16 8 -56 11 -89 l7 -61 -39 -7 c-81 -14 -93 -18 -87
-28 4 -6 27 -8 61 -4 l54 6 -32 -61 c-18 -34 -53 -83 -77 -110 -24 -27 -39
-49 -32 -49 21 0 79 52 110 98 l30 46 -2 -130 c-3 -109 -1 -129 12 -129 12 0
15 22 18 130 3 156 4 163 34 136 26 -25 51 -27 46 -4 -2 9 -18 21 -36 25 -25
7 -32 14 -32 33 0 20 6 25 35 31 44 8 41 28 -4 32 l-33 3 7 71 c8 74 2 88 -38
88 -15 0 -18 -6 -13 -27z"/>
</g>
<g id="part-2" class="char-part">
  <path d="M430 564 c0 -3 9 -18 21 -32 l21 -27 -24 -6 c-12 -4 -38 -7 -55 -8
-18 -1 -33 -6 -33 -12 0 -8 16 -10 48 -6 26 3 74 9 107 12 33 4 67 9 75 12 28
8 -18 25 -50 18 -23 -5 -30 -3 -30 9 0 18 -38 46 -62 46 -10 0 -18 -3 -18 -6z"/>
</g>
<g id="part-3" class="char-part">
  <path d="M465 250 c5 -15 -2 -21 -32 -29 -21 -6 -56 -11 -78 -11 -37 0 -38 -1
-23 -17 16 -15 21 -15 74 0 31 9 60 14 64 12 4 -3 4 -19 1 -37 -6 -28 -12 -33
-34 -33 l-27 1 28 -31 c15 -16 28 -32 30 -34 1 -3 10 3 20 12 11 12 19 40 22
79 5 61 6 62 40 71 19 5 40 13 45 19 10 10 2 9 -72 -9 -13 -3 -23 -1 -23 5 0
5 -9 12 -20 15 -17 4 -20 2 -15 -13z"/>
</g>
<g id="part-4" class="char-part">
  <path d="M633 254 c3 -124 8 -228 11 -232 3 -3 9 -2 13 2 8 7 22 423 15 444
-2 6 -13 12 -25 12 -20 0 -20 -3 -14 -226z"/>
</g>
</g>
</svg>