<?xml version="1.0" standalone="no"?>
<!DOCTYPE svg PUBLIC "-//W3C//DTD SVG 20010904//EN"
 "http://www.w3.org/TR/2001/REC-SVG-20010904/DTD/svg10.dtd">
<svg version="1.0" xmlns="http://www.w3.org/2000/svg"
 width="96.000000pt" height="68.000000pt" viewBox="0 0 96.000000 68.000000"
 preserveAspectRatio="xMidYMid meet">
<metadata>
Created by potrace 1.16, written by Peter Selinger 2001-2019
Combined from part_0.svg through part_5.svg with named groups
</metadata>
<g transform="translate(0.000000,68.000000) scale(0.100000,-0.100000)" fill="#000000" stroke="none">
<g id="part-0" class="char-part">
  <path d="M525 573 c-9 -36 -81 -120 -144 -168 -28 -22 -49 -41 -46 -43 10 -10
143 79 183 122 24 25 47 46 52 46 9 0 142 -119 148 -132 5 -11 120 -10 126 0
3 5 -25 19 -61 31 -90 31 -203 107 -203 136 0 20 -17 35 -40 35 -4 0 -11 -12
-15 -27z"/>
  <path d="M235 573 c3 -10 9 -46 12 -79 l6 -62 -67 -7 c-49 -6 -66 -11 -66 -23
0 -12 11 -14 65 -9 l65 6 0 -53 0 -53 -85 -38 c-47 -21 -85 -41 -85 -44 0 -15
25 -31 48 -31 13 0 44 14 68 32 24 17 46 29 48 27 2 -2 2 -35 -1 -72 -6 -74
-5 -73 -70 -51 -10 4 2 -14 27 -40 24 -25 50 -46 57 -46 24 0 33 40 33 145 l0
106 30 17 c47 27 37 57 -11 31 -19 -10 -20 -8 -17 33 3 40 5 43 33 46 58 7 55
41 -4 42 -21 0 -23 3 -18 38 3 20 8 46 12 58 5 16 0 23 -20 32 -40 18 -69 16
-60 -5z"/>
  <path d="M535 431 l7 -31 -46 0 c-25 0 -46 -4 -46 -10 0 -6 27 -10 60 -10 55
0 60 -2 51 -18 -7 -13 -20 -18 -48 -16 -21 2 -28 0 -15 -2 15 -4 22 -11 18
-19 -4 -11 2 -13 23 -9 16 4 32 1 35 -5 8 -13 56 -15 56 -3 0 15 -24 32 -44
33 -12 0 -15 3 -8 6 7 3 17 16 22 29 6 15 18 24 30 24 13 0 18 4 14 11 -4 6
-20 8 -40 4 -26 -4 -34 -3 -34 9 0 9 -9 20 -21 27 -20 10 -21 9 -14 -20z"/>
  <path d="M665 338 c3 -18 2 -39 -3 -45 -5 -8 -47 -15 -115 -19 l-107 -7 0 36
c0 23 -5 37 -13 37 -15 0 -39 -91 -27 -104 5 -5 28 -4 54 3 25 6 50 11 55 11
17 0 13 -47 -5 -54 -25 -10 -102 -7 -109 4 -10 16 -38 12 -32 -4 4 -10 -3 -16
-21 -19 -27 -4 -27 -4 6 -12 32 -7 32 -8 32 -66 0 -46 3 -59 15 -59 16 0 18
14 15 86 l-1 41 48 6 c59 6 63 4 54 -31 -6 -22 -13 -27 -35 -25 -17 1 -26 -2
-23 -10 6 -20 36 -20 95 -2 43 14 59 15 73 6 41 -25 55 3 19 39 -24 24 -70 29
-50 5 10 -12 8 -16 -11 -24 -28 -10 -34 -1 -25 35 6 24 8 25 89 22 78 -3 82
-4 85 -27 2 -13 1 -39 -3 -59 -6 -33 -8 -34 -41 -29 -42 7 -43 -1 -5 -37 25
-24 32 -26 50 -16 27 14 37 38 46 117 6 56 5 62 -14 73 -14 7 -47 8 -94 4 -79
-7 -93 -5 -91 14 1 6 -2 12 -7 12 -5 0 -9 4 -9 9 0 14 94 25 98 12 2 -6 10
-11 17 -11 30 0 55 104 28 114 -34 14 -44 7 -38 -26z"/>
</g>
<g id="part-1" class="char-part">
  <path d="M245 543 c3 -27 8 -62 11 -80 4 -30 3 -31 -38 -38 -100 -15 -106 -20
-33 -25 l70 -5 -2 -49 c-1 -27 -6 -53 -11 -58 -5 -5 -43 -24 -86 -42 -71 -31
-76 -35 -61 -50 24 -24 42 -20 96 19 27 19 51 35 54 35 7 0 6 -115 -1 -134 -7
-18 -49 -22 -59 -6 -3 6 -11 10 -17 10 -6 0 11 -21 38 -46 l48 -46 18 22 c15
18 18 41 18 129 l0 106 30 20 c39 26 39 40 0 20 l-30 -16 0 50 0 49 41 7 c30
5 38 10 30 18 -6 6 -23 11 -39 12 -30 0 -33 14 -18 86 7 32 5 36 -19 47 -42
20 -47 16 -40 -35z"/>
</g>
<g id="part-2" class="char-part">
  <path d="M520 566 c-14 -43 -64 -102 -134 -156 -31 -23 -54 -45 -52 -47 12
-12 131 65 176 113 28 30 55 54 59 54 4 0 41 -31 83 -70 75 -69 77 -70 130
-70 29 0 60 5 68 10 12 8 12 10 -5 10 -66 1 -264 119 -265 156 0 20 -17 34
-40 34 -5 0 -13 -15 -20 -34z"/>
</g>
<g id="part-3" class="char-part">
  <path d="M535 431 c7 -31 6 -31 -34 -31 -22 0 -43 -5 -47 -12 -9 -14 156 -4
184 11 16 9 16 10 -1 16 -9 4 -28 4 -42 1 -18 -5 -25 -2 -25 8 0 9 -9 20 -21
27 -20 10 -21 9 -14 -20z"/>
</g>
<g id="part-4" class="char-part">
  <path d="M585 203 c-116 -13 -155 -13 -203 2 -18 6 -21 4 -16 -9 5 -12 0 -16
-22 -16 -25 -1 -26 -2 -11 -11 9 -5 22 -7 27 -4 14 8 20 -11 23 -70 1 -37 6
-51 18 -53 15 -3 16 5 12 62 l-6 64 44 7 c24 3 96 7 159 8 l115 2 3 -34 c2
-19 1 -45 -3 -59 -5 -22 -10 -24 -41 -19 -30 5 -33 4 -25 -11 5 -10 18 -25 29
-35 38 -34 82 12 82 84 0 17 5 40 11 51 10 18 8 25 -11 40 -25 21 -24 21 -185
1z"/>
</g>
</g>
</svg>