<?xml version="1.0" standalone="no"?>
<!DOCTYPE svg PUBLIC "-//W3C//DTD SVG 20010904//EN"
 "http://www.w3.org/TR/2001/REC-SVG-20010904/DTD/svg10.dtd">
<svg version="1.0" xmlns="http://www.w3.org/2000/svg"
 width="96.000000pt" height="68.000000pt" viewBox="0 0 96.000000 68.000000"
 preserveAspectRatio="xMidYMid meet">
<metadata>
Created by potrace 1.16, written by Peter Selinger 2001-2019
Combined from part_0.svg through part_5.svg with named groups
</metadata>
<g transform="translate(0.000000,68.000000) scale(0.100000,-0.100000)" fill="#000000" stroke="none">
<g id="part-0" class="char-part">
  <path d="M440 586 c0 -8 11 -28 25 -44 l25 -30 -103 -12 c-138 -16 -143 -17
-123 -39 50 -55 -12 -281 -106 -389 -28 -33 -35 -52 -20 -52 5 0 34 26 65 59
31 32 59 56 63 52 4 -3 4 -1 1 5 -4 6 3 30 14 54 11 23 27 76 35 118 8 43 18
93 22 112 9 43 18 45 245 61 92 7 167 16 167 20 0 22 -48 31 -132 25 -57 -4
-87 -2 -83 4 10 17 -14 48 -46 59 -42 14 -49 14 -49 -3z"/>
  <path d="M592 425 c-40 -8 -104 -15 -144 -17 l-71 -3 -2 -85 c-3 -96 -24 -168
-64 -220 -42 -54 -47 -64 -25 -52 66 36 120 143 130 261 4 36 8 68 10 71 5 4
194 29 231 30 20 0 21 -3 16 -78 -7 -96 10 -202 40 -247 24 -37 80 -72 112
-71 21 1 22 5 7 76 -9 44 -9 45 -20 18 -17 -40 -32 -44 -58 -15 -46 54 -55
143 -27 259 23 96 15 100 -135 73z"/>
  <path d="M134 388 c-7 -11 54 -78 72 -78 18 0 25 29 14 51 -6 10 -12 19 -13
19 -1 0 -17 4 -34 9 -21 6 -35 6 -39 -1z"/>
  <path d="M545 345 c-5 -2 -31 -6 -57 -10 -27 -3 -48 -11 -48 -17 0 -6 12 -8
30 -5 33 7 44 -4 35 -33 -5 -15 -15 -20 -45 -20 l-39 0 15 -35 c8 -19 13 -38
12 -42 -2 -4 11 -10 27 -13 25 -4 30 -10 30 -35 0 -29 -2 -30 -50 -33 -61 -4
-77 -17 -42 -33 19 -9 33 -9 54 -1 15 6 56 19 91 28 l62 17 28 -29 27 -29 3
25 c3 17 -4 31 -25 47 -32 26 -53 29 -53 8 0 -10 -10 -15 -30 -15 -27 0 -30 3
-30 29 0 28 3 30 43 33 29 2 41 7 39 17 -2 7 5 22 14 32 24 27 3 49 -47 49
-32 0 -39 3 -39 20 0 15 9 22 30 27 17 3 30 9 30 14 0 9 -44 11 -65 4z m50
-95 c9 -14 -13 -50 -31 -50 -17 0 -28 24 -20 45 6 17 42 20 51 5z m-87 -32
c-2 -15 -10 -23 -23 -23 -13 0 -21 8 -23 23 -3 18 1 22 23 22 22 0 26 -4 23
-22z"/>
  <path d="M176 263 c-22 -14 -51 -29 -65 -33 -34 -9 -38 -34 -8 -47 21 -10 29
-7 60 18 46 38 84 89 65 88 -7 0 -31 -12 -52 -26z"/>
</g>
<g id="part-1" class="char-part">
  <path d="M440 590 c0 -18 53 -70 71 -70 23 0 26 32 5 49 -19 16 -76 32 -76 21z"/>
  <path d="M460 504 c-96 -13 -180 -23 -187 -24 -9 0 -7 -8 4 -28 15 -25 15 -36
0 -121 -17 -105 -60 -202 -115 -262 -19 -22 -28 -39 -21 -39 22 0 105 95 131
151 24 51 32 81 58 221 13 68 2 64 233 83 95 8 174 15 177 15 3 0 -4 7 -14 15
-25 19 -52 18 -266 -11z"/>
  <path d="M140 384 c0 -17 44 -64 61 -64 27 0 25 35 -3 54 -22 16 -58 22 -58
10z"/>
  <path d="M163 254 c-34 -18 -68 -34 -75 -37 -10 -4 -8 -10 6 -21 11 -9 24 -16
29 -16 11 0 113 97 107 102 -3 2 -33 -11 -67 -28z"/>
</g>
<g id="part-2" class="char-part">
  <path d="M372 370 c8 -29 7 -61 -1 -111 -13 -81 -40 -140 -84 -186 -46 -49
-11 -40 38 9 56 57 84 133 87 240 l3 83 -27 3 c-26 3 -26 3 -16 -38z"/>
</g>
<g id="part-3" class="char-part">
  <path d="M595 425 c-38 -8 -94 -14 -122 -14 -39 -1 -53 -5 -53 -15 0 -11 9
-14 33 -10 106 14 191 24 205 24 15 0 17 -15 18 -128 0 -134 11 -174 63 -229
24 -25 89 -49 101 -37 4 5 2 36 -5 69 -11 53 -13 57 -20 33 -4 -15 -14 -33
-22 -40 -13 -10 -19 -8 -39 15 -47 54 -57 155 -25 255 10 33 15 65 11 71 -11
18 -70 21 -145 6z"/>
</g>
<g id="part-4" class="char-part">
  <path d="M606 138 c38 -64 74 -88 74 -49 0 11 -14 28 -34 40 -38 24 -50 27
-40 9z"/>
</g>
</g>
</svg>