<?xml version="1.0" standalone="no"?>
<!DOCTYPE svg PUBLIC "-//W3C//DTD SVG 20010904//EN"
 "http://www.w3.org/TR/2001/REC-SVG-20010904/DTD/svg10.dtd">
<svg version="1.0" xmlns="http://www.w3.org/2000/svg"
 width="96.000000pt" height="68.000000pt" viewBox="0 0 96.000000 68.000000"
 preserveAspectRatio="xMidYMid meet">
<metadata>
Created by potrace 1.16, written by Peter Selinger 2001-2019
Combined from part_0.svg through part_5.svg with named groups
</metadata>
<g transform="translate(0.000000,68.000000) scale(0.100000,-0.100000)" fill="#000000" stroke="none">
<g id="part-0" class="char-part">
  <path d="M515 555 c-15 -31 -38 -69 -52 -86 -39 -46 -18 -48 30 -3 24 24 53
41 67 42 14 1 35 4 48 7 29 7 28 -6 -5 -58 -15 -23 -28 -43 -28 -44 0 -1 -34
-7 -75 -14 -41 -6 -76 -12 -78 -14 -2 -2 2 -13 8 -25 8 -16 9 -39 1 -90 -10
-65 -32 -115 -73 -169 -27 -35 -12 -39 23 -6 46 45 76 107 90 187 7 40 16 78
20 84 10 12 113 31 213 38 38 3 71 8 74 11 19 18 -58 25 -133 11 l-40 -7 54
54 c73 75 56 96 -50 61 -27 -9 -52 -14 -55 -11 -4 3 3 19 15 36 21 30 21 30 2
40 -28 15 -26 17 -56 -44z"/>
  <path d="M244 567 c11 -46 17 -132 9 -143 -4 -7 -37 -16 -72 -20 -90 -12 -93
-34 -6 -34 l66 0 -28 -49 c-15 -28 -51 -76 -80 -107 -29 -32 -51 -59 -49 -61
10 -11 64 23 112 71 l54 55 0 -33 c0 -18 -5 -58 -11 -90 -11 -63 1 -116 27
-116 26 0 34 39 34 160 l0 122 26 -31 c28 -34 64 -42 64 -13 0 27 -13 40 -53
57 -35 14 -48 37 -28 49 5 3 25 7 45 8 37 3 56 25 34 40 -7 5 -28 6 -47 4
l-34 -5 7 69 c5 62 4 70 -13 80 -11 5 -29 10 -41 10 -18 0 -21 -4 -16 -23z"/>
  <path d="M645 339 c-22 -5 -59 -9 -82 -10 l-41 -1 5 -101 c3 -56 10 -110 15
-120 5 -9 25 -24 45 -32 47 -20 192 -20 239 0 38 16 38 12 10 94 l-12 33 -12
-40 c-18 -59 -32 -66 -129 -67 -78 0 -86 2 -105 25 -18 22 -20 34 -14 100 3
41 10 78 14 82 5 5 29 10 55 13 52 5 54 2 41 -64 -6 -28 -10 -32 -30 -27 -29
8 -30 -3 -4 -32 33 -36 55 -14 85 86 12 39 12 43 -8 57 -12 8 -24 14 -27 14
-3 -1 -23 -5 -45 -10z"/>
</g>
<g id="part-1" class="char-part">
  <path d="M256 502 l7 -90 -76 -12 c-91 -15 -95 -36 -6 -26 45 4 59 3 59 -7 0
-22 -59 -109 -108 -160 -25 -26 -41 -47 -36 -47 22 0 95 57 125 98 17 24 33
41 36 38 2 -2 -1 -50 -7 -106 -9 -77 -10 -108 -1 -127 9 -21 14 -23 26 -13 11
9 15 34 15 95 0 45 3 103 6 129 l7 47 34 -33 c28 -27 35 -30 43 -18 15 23 8
33 -38 55 -30 15 -41 26 -42 43 0 12 6 22 13 22 6 0 29 5 50 11 47 13 38 31
-14 28 -21 -2 -40 -1 -43 2 -3 2 -1 31 4 64 9 64 3 77 -37 90 -23 6 -23 6 -17
-83z"/>
</g>
<g id="part-2" class="char-part">
  <path d="M521 575 c-7 -19 -28 -58 -47 -86 -19 -29 -32 -54 -29 -57 3 -3 22
11 43 31 30 29 48 37 91 43 l53 7 -24 -39 c-40 -64 -39 -63 -19 -57 27 7 125
109 117 122 -10 15 -45 14 -100 -5 -26 -9 -49 -14 -52 -11 -3 3 5 20 17 37 20
26 21 32 9 40 -28 18 -46 10 -59 -25z"/>
</g>
<g id="part-3" class="char-part">
  <path d="M559 412 l-147 -26 15 -23 c27 -40 -5 -169 -62 -249 -19 -26 -32 -50
-30 -52 2 -2 17 6 34 19 43 34 88 123 102 203 7 38 19 74 26 81 13 14 104 31
217 41 40 3 64 10 59 15 -18 18 -73 16 -214 -9z"/>
</g>
<g id="part-4" class="char-part">
  <path d="M527 228 c3 -57 10 -111 15 -121 16 -32 71 -47 168 -47 62 0 100 5
120 15 17 9 30 17 30 18 0 1 -8 23 -18 50 -18 47 -32 53 -32 12 0 -44 -34 -60
-125 -60 -69 0 -87 3 -105 20 -21 19 -22 25 -16 118 l7 97 -25 0 -24 0 5 -102z"/>
</g>
</g>
</svg>