<?xml version="1.0" standalone="no"?>
<!DOCTYPE svg PUBLIC "-//W3C//DTD SVG 20010904//EN"
 "http://www.w3.org/TR/2001/REC-SVG-20010904/DTD/svg10.dtd">
<svg version="1.0" xmlns="http://www.w3.org/2000/svg"
 width="96.000000pt" height="68.000000pt" viewBox="0 0 96.000000 68.000000"
 preserveAspectRatio="xMidYMid meet">
<metadata>
Created by potrace 1.16, written by Peter Selinger 2001-2019
Combined from part_0.svg through part_5.svg with named groups
</metadata>
<g transform="translate(0.000000,68.000000) scale(0.100000,-0.100000)" fill="#000000" stroke="none">
<g id="part-0" class="char-part">
  <path d="M233 508 c0 -53 -6 -97 -16 -120 -16 -38 -16 -38 -76 -38 -65 0 -76
-10 -37 -35 17 -12 35 -14 61 -9 36 6 37 6 25 -15 -16 -30 -5 -57 30 -71 49
-20 39 -34 -70 -99 l-35 -21 29 0 c28 0 126 48 126 63 0 14 23 7 52 -18 37
-31 58 -32 58 -2 0 28 -9 41 -37 56 l-23 11 22 44 c20 42 23 44 57 40 19 -3
37 -6 39 -9 2 -2 -2 -38 -9 -80 -10 -65 -10 -78 2 -86 22 -13 30 4 35 72 8 97
11 106 40 113 36 9 42 -3 34 -66 -4 -29 -5 -61 -2 -71 6 -23 26 -17 29 9 14
140 12 134 44 134 l30 0 -7 -74 c-5 -52 -3 -75 5 -81 19 -11 22 -2 28 83 5 74
8 81 29 85 40 7 45 -4 42 -104 l-3 -94 -27 0 c-28 1 -28 -6 5 -43 46 -51 66
-13 69 133 l3 110 40 5 c38 5 39 6 18 18 -12 6 -31 12 -43 12 -21 0 -22 2 -15
80 9 103 6 105 -155 81 -47 -7 -111 -13 -143 -13 -54 0 -57 -1 -51 -21 9 -27
13 -123 7 -147 -5 -18 -58 -38 -70 -27 -10 11 8 45 27 50 21 5 28 27 9 27 -6
0 -17 7 -25 15 -9 8 -26 15 -40 15 -19 0 -24 -5 -24 -25 0 -21 -5 -25 -31 -25
-25 0 -30 3 -26 18 3 9 15 51 27 91 l22 75 -22 18 c-12 10 -30 18 -40 18 -15
0 -17 -11 -17 -82z m507 -78 c0 -64 -3 -80 -15 -81 -53 -5 -50 -9 -53 79 l-3
82 36 0 35 0 0 -80z m-100 -9 c0 -63 -3 -80 -16 -85 -40 -15 -44 -9 -44 73 0
54 -4 81 -12 84 -7 3 6 6 30 6 l42 1 0 -79z m-96 47 c3 -13 6 -47 6 -76 0 -47
-3 -53 -26 -62 -14 -6 -30 -10 -35 -10 -5 0 -9 38 -9 85 l0 85 29 0 c21 0 30
-6 35 -22z m-236 -180 c-12 -29 -22 -54 -23 -56 -1 -1 -16 3 -33 9 -34 12 -38
24 -21 63 12 26 26 33 71 35 l27 1 -21 -52z"/>
</g>
<g id="part-1" class="char-part">
  <path d="M239 512 c0 -43 -6 -95 -12 -116 -10 -33 -18 -41 -47 -49 -19 -5 -47
-7 -62 -5 -18 3 -28 0 -28 -8 0 -17 51 -33 75 -23 39 15 42 9 20 -43 -5 -12 4
-23 35 -43 41 -26 42 -27 23 -47 -10 -11 -35 -29 -55 -39 -20 -10 -39 -23 -43
-28 -11 -18 59 8 101 38 l41 29 29 -24 c33 -27 64 -31 64 -9 0 17 -30 50 -51
57 -11 4 -8 17 13 64 14 32 29 67 32 77 3 9 16 22 28 27 18 7 19 9 6 9 -10 1
-18 5 -18 9 0 12 -49 34 -60 27 -4 -3 -6 -13 -3 -24 4 -15 -3 -20 -32 -25 -20
-4 -39 -6 -41 -3 -2 2 10 45 26 96 29 89 30 94 13 107 -46 34 -53 27 -54 -54z
m87 -185 c-11 -44 -36 -97 -47 -97 -5 0 -23 7 -39 15 -27 14 -28 16 -17 50 8
26 18 37 36 41 14 3 31 7 36 9 28 9 37 4 31 -18z"/>
</g>
<g id="part-2" class="char-part">
  <path d="M650 524 c-41 -8 -108 -15 -148 -16 -68 -2 -72 -3 -65 -23 11 -30 5
-223 -8 -278 -12 -49 -6 -97 11 -97 21 0 29 52 36 213 l7 165 63 6 c35 3 93 9
129 12 l65 6 0 -183 c0 -101 -4 -190 -9 -198 -5 -8 -16 -11 -30 -6 -29 9 -26
-6 7 -38 61 -58 72 -30 72 180 0 92 5 186 10 208 5 22 6 43 2 47 -15 15 -69
16 -142 2z"/>
</g>
<g id="part-3" class="char-part">
  <path d="M549 492 c-1 -4 -1 -41 1 -83 2 -87 1 -88 -95 -90 -27 0 -59 -4 -70
-8 -19 -8 -19 -8 3 -15 22 -7 48 -5 126 10 l29 6 -6 -69 c-3 -38 -2 -75 3 -82
12 -20 30 -3 30 28 0 16 3 49 6 75 6 43 9 46 36 46 l29 0 -7 -74 c-5 -52 -3
-75 5 -81 19 -11 22 -2 28 84 l6 81 51 1 c28 0 71 4 96 8 l45 7 -28 14 c-23
11 -39 12 -88 1 -33 -6 -64 -9 -69 -6 -6 3 -10 40 -10 81 0 64 -2 74 -17 74
-16 0 -18 -11 -18 -82 l0 -83 -27 -3 -28 -3 0 79 c0 62 -3 81 -15 86 -8 3 -16
2 -16 -2z"/>
</g>
</g>
</svg>