<?xml version="1.0" standalone="no"?>
<!DOCTYPE svg PUBLIC "-//W3C//DTD SVG 20010904//EN"
 "http://www.w3.org/TR/2001/REC-SVG-20010904/DTD/svg10.dtd">
<svg version="1.0" xmlns="http://www.w3.org/2000/svg"
 width="96.000000pt" height="68.000000pt" viewBox="0 0 96.000000 68.000000"
 preserveAspectRatio="xMidYMid meet">
<metadata>
Created by potrace 1.16, written by Peter Selinger 2001-2019
Combined from part_0.svg through part_5.svg with named groups
</metadata>
<g transform="translate(0.000000,68.000000) scale(0.100000,-0.100000)" fill="#000000" stroke="none">
<g id="part-0" class="char-part">
  <path d="M390 619 c-19 -5 -54 -8 -77 -7 -23 1 -44 0 -47 -3 -2 -2 2 -36 8
-76 15 -82 21 -76 -86 -88 -57 -7 -76 -20 -41 -27 16 -4 51 2 121 17 30 7 29
-16 -3 -46 -13 -13 -25 -29 -25 -36 0 -15 22 -22 40 -11 8 4 49 17 90 27 54
14 79 17 93 9 25 -13 41 3 25 24 -7 10 -26 20 -43 24 -26 6 -28 5 -18 -8 11
-13 5 -17 -42 -28 -30 -7 -57 -11 -59 -9 -7 7 9 74 17 71 15 -7 158 11 164 21
6 11 -109 4 -154 -9 -17 -5 -23 -2 -23 9 0 12 19 19 75 28 107 17 110 34 4 25
-97 -8 -98 4 -1 19 37 6 66 15 64 20 -3 12 -50 12 -109 1 -26 -5 -43 -4 -43 2
0 5 37 14 82 20 88 13 100 18 78 32 -18 11 -43 11 -90 -1z"/>
  <path d="M649 604 c-13 -14 -44 -37 -69 -50 -38 -21 -40 -24 -15 -19 46 10
155 67 155 82 0 22 -45 14 -71 -13z"/>
  <path d="M642 507 c-34 -23 -60 -43 -58 -45 7 -6 150 54 153 65 9 27 -38 17
-95 -20z"/>
  <path d="M695 460 c-10 -11 -46 -34 -79 -50 -71 -34 -56 -40 24 -9 30 11 69
25 85 31 46 16 51 26 21 38 -34 13 -30 14 -51 -10z"/>
  <path d="M640 363 c-14 -2 -62 -8 -107 -14 -46 -6 -83 -16 -83 -21 0 -7 20 -8
55 -4 59 7 61 5 45 -25 -7 -13 -21 -19 -43 -19 l-32 0 3 -91 c3 -91 4 -91 28
-85 13 4 24 2 24 -3 0 -11 -62 -67 -82 -73 -7 -3 -10 -8 -6 -12 3 -4 38 9 77
29 64 33 70 39 54 50 -14 11 -8 14 44 20 39 4 69 3 82 -4 24 -13 27 -5 34 102
6 83 -3 91 -89 77 -78 -13 -80 -13 -61 8 10 10 17 24 17 30 0 8 23 12 68 12
75 0 114 8 106 21 -5 9 -84 10 -134 2z m47 -109 c2 -7 -18 -14 -54 -18 -32 -3
-70 -9 -86 -11 -22 -4 -27 -2 -27 14 0 15 8 21 38 24 63 7 125 3 129 -9z m3
-48 c0 -12 -76 -26 -146 -26 -44 0 -28 29 19 33 98 9 127 7 127 -7z m0 -45 c0
-12 -20 -17 -102 -26 -61 -7 -80 -2 -72 18 6 16 174 24 174 8z"/>
  <path d="M310 307 c-19 -18 -51 -43 -70 -55 -19 -12 -29 -22 -22 -22 13 0 121
52 161 78 22 15 22 16 5 23 -31 12 -37 10 -74 -24z"/>
  <path d="M306 208 c-21 -21 -56 -48 -78 -59 -22 -11 -37 -23 -34 -26 5 -6 158
69 183 89 15 12 10 24 -14 30 -11 3 -32 -10 -57 -34z"/>
  <path d="M320 115 c-19 -19 -60 -48 -90 -64 -34 -19 -47 -31 -35 -31 11 0 60
23 109 50 49 28 93 50 98 50 14 0 9 18 -8 24 -28 11 -39 7 -74 -29z"/>
  <path d="M650 88 c0 -13 102 -79 115 -74 23 8 2 44 -33 57 -33 13 -82 23 -82
17z"/>
</g>
<g id="part-1" class="char-part">
  <path d="M390 614 c-30 -7 -70 -10 -87 -7 -38 6 -38 7 -22 -84 11 -62 31 -84
42 -44 4 15 18 20 76 26 39 4 74 12 78 18 6 10 -52 6 -124 -9 -26 -5 -33 -3
-33 9 0 11 20 18 77 26 42 6 79 14 82 16 8 8 -82 5 -121 -4 -34 -8 -38 -7 -38
10 0 15 7 19 34 19 52 0 126 12 126 20 0 14 -35 16 -90 4z"/>
</g>
<g id="part-2" class="char-part">
  <path d="M681 450 c-19 -16 -56 -37 -83 -47 -69 -24 -60 -34 12 -12 88 27 162
61 153 69 -22 21 -50 18 -82 -10z"/>
</g>
<g id="part-3" class="char-part">
  <path d="M327 324 c-10 -14 -41 -40 -70 -59 -28 -19 -46 -35 -39 -35 16 0 169
77 176 89 3 5 -6 13 -22 19 -23 8 -30 6 -45 -14z"/>
</g>
<g id="part-4" class="char-part">
  <path d="M318 116 c-15 -18 -58 -50 -95 -70 -38 -20 -57 -34 -43 -31 33 8 230
107 230 116 0 9 -27 19 -48 18 -9 0 -29 -15 -44 -33z"/>
</g>
<g id="part-5" class="char-part">
  <path d="M550 89 c0 -5 -4 -8 -9 -4 -5 3 -16 -3 -23 -13 -7 -10 -24 -24 -36
-31 -13 -7 -22 -15 -19 -18 3 -2 22 6 44 20 21 13 46 26 56 30 10 4 15 11 12
17 -8 13 -25 13 -25 -1z"/>
  <path d="M711 45 c28 -24 45 -33 52 -26 15 15 -10 41 -39 41 -13 0 -24 5 -24
10 0 6 -7 10 -16 10 -10 0 1 -14 27 -35z"/>
</g>
</g>
</svg>