<?xml version="1.0" standalone="no"?>
<!DOCTYPE svg PUBLIC "-//W3C//DTD SVG 20010904//EN"
 "http://www.w3.org/TR/2001/REC-SVG-20010904/DTD/svg10.dtd">
<svg version="1.0" xmlns="http://www.w3.org/2000/svg"
 width="96.000000pt" height="68.000000pt" viewBox="0 0 96.000000 68.000000"
 preserveAspectRatio="xMidYMid meet">
<metadata>
Created by potrace 1.16, written by Peter Selinger 2001-2019
Combined from part_0.svg through part_5.svg with named groups
</metadata>
<g transform="translate(0.000000,68.000000) scale(0.100000,-0.100000)" fill="#000000" stroke="none">
<g id="part-0" class="char-part">
  <path d="M470 564 c-6 -14 -10 -29 -10 -33 0 -4 -14 -26 -31 -49 -36 -49 -26
-56 16 -12 23 24 37 30 72 30 24 0 43 -3 43 -7 0 -19 -71 -83 -92 -84 l-23 0
23 -9 c16 -7 22 -18 22 -38 0 -25 -5 -30 -32 -36 -36 -7 -44 -2 -53 37 -6 24
-4 27 16 27 14 0 19 4 14 9 -14 13 -77 1 -67 -13 4 -6 12 -27 18 -46 10 -33
12 -35 52 -33 23 2 42 0 42 -3 0 -39 -71 -130 -116 -149 -12 -4 -14 -9 -7 -12
32 -12 117 60 145 124 18 41 22 45 29 28 4 -11 8 -48 8 -82 1 -81 18 -94 123
-94 121 0 144 17 114 86 l-13 30 -8 -25 c-15 -49 -34 -60 -100 -60 -81 0 -90
10 -81 90 5 40 3 60 -4 60 -5 0 -10 4 -10 9 0 6 24 11 53 13 28 2 51 6 50 10
-2 5 6 23 17 42 16 30 17 36 4 47 -15 12 -65 14 -119 4 -28 -6 -27 -3 25 44
45 42 52 52 40 61 -20 13 -27 12 -79 -6 -51 -17 -59 -13 -42 20 8 13 10 29 7
35 -12 19 -36 12 -46 -15z m163 -191 c-8 -25 -15 -28 -55 -31 -45 -3 -45 -3
-44 28 1 26 5 31 36 36 19 3 40 7 45 9 19 5 27 -13 18 -42z"/>
  <path d="M170 496 c0 -17 66 -76 85 -76 8 0 19 8 24 19 13 24 -3 45 -48 60
-45 15 -61 14 -61 -3z"/>
  <path d="M205 355 c-16 -8 -40 -14 -51 -15 -12 0 -28 -7 -35 -17 -13 -15 -9
-16 44 -10 59 6 66 1 45 -32 -10 -16 -7 -24 15 -51 15 -17 27 -42 27 -56 0
-23 -2 -24 -75 -24 -59 0 -75 -3 -75 -15 0 -26 37 -38 77 -24 51 16 116 5 289
-52 83 -27 164 -49 180 -49 30 0 191 43 201 54 13 13 -8 16 -177 25 -157 9
-217 18 -342 52 -34 9 -38 13 -38 43 0 25 -8 41 -29 59 l-29 24 39 29 c43 32
48 48 20 64 -25 13 -49 12 -86 -5z"/>
  <path d="M617 254 c-10 -10 35 -54 56 -54 20 0 23 23 5 38 -19 14 -53 23 -61
16z"/>
</g>
<g id="part-1" class="char-part">
  <path d="M199 466 c37 -38 68 -46 78 -20 9 24 -19 45 -68 51 l-44 6 34 -37z"/>
  <path d="M183 346 c-35 -12 -63 -25 -63 -30 0 -5 25 -6 55 -2 l56 6 -15 -29
c-14 -26 -14 -30 0 -42 18 -15 29 -35 38 -71 l6 -28 -80 0 c-44 0 -80 -4 -80
-8 0 -25 27 -32 104 -26 77 6 88 4 243 -45 89 -28 178 -51 199 -51 41 0 194
39 194 50 0 4 -69 10 -152 13 -108 5 -191 15 -281 34 l-127 27 6 33 c5 27 1
37 -26 61 l-31 29 42 37 c23 20 41 38 38 40 -10 9 -49 26 -56 25 -4 -1 -36
-11 -70 -23z"/>
</g>
<g id="part-2" class="char-part">
  <path d="M461 545 c-11 -25 -30 -58 -41 -72 -30 -39 -15 -41 24 -4 28 28 39
32 75 29 l42 -3 -30 -35 c-35 -40 -38 -52 -13 -42 30 12 121 86 122 99 0 21
-42 25 -89 8 -60 -21 -65 -19 -42 13 15 22 17 32 9 40 -22 22 -37 12 -57 -33z"/>
</g>
<g id="part-3" class="char-part">
  <path d="M534 294 c3 -9 6 -42 6 -75 0 -85 16 -99 119 -99 125 0 154 22 117
89 l-13 24 -7 -26 c-11 -45 -32 -57 -100 -57 -81 0 -91 10 -83 89 5 48 4 60
-9 65 -26 10 -36 7 -30 -10z"/>
</g>
<g id="part-4" class="char-part">
  <path d="M615 249 c26 -45 75 -68 75 -35 0 18 -19 33 -54 42 -23 5 -27 4 -21
-7z"/>
</g>
</g>
</svg>