<?xml version="1.0" standalone="no"?>
<!DOCTYPE svg PUBLIC "-//W3C//DTD SVG 20010904//EN"
 "http://www.w3.org/TR/2001/REC-SVG-20010904/DTD/svg10.dtd">
<svg version="1.0" xmlns="http://www.w3.org/2000/svg"
 width="96.000000pt" height="68.000000pt" viewBox="0 0 96.000000 68.000000"
 preserveAspectRatio="xMidYMid meet">
<metadata>
Created by potrace 1.16, written by Peter Selinger 2001-2019
Combined from part_0.svg through part_5.svg with named groups
</metadata>
<g transform="translate(0.000000,68.000000) scale(0.100000,-0.100000)" fill="#000000" stroke="none">
<g id="part-0" class="char-part">
  <path d="M580 616 c0 -42 -22 -66 -61 -66 -16 0 -29 -4 -29 -9 0 -11 25 -21
51 -21 18 0 19 -2 4 -29 -23 -45 0 -47 35 -2 30 37 35 39 106 46 48 4 74 11
71 18 -5 16 -55 27 -88 20 -28 -5 -29 -4 -23 26 6 27 3 32 -20 41 -41 15 -46
13 -46 -24z"/>
  <path d="M300 599 c0 -10 7 -24 15 -33 8 -8 15 -17 15 -20 0 -3 -31 -6 -70 -6
-55 0 -70 -3 -70 -15 0 -32 83 -45 141 -21 10 5 19 -1 27 -19 17 -37 46 -34
40 5 -4 25 -1 30 16 30 12 0 27 4 35 9 18 12 -3 24 -40 23 -23 0 -28 4 -31 26
-2 22 -9 28 -40 33 -32 5 -38 3 -38 -12z"/>
  <path d="M570 436 c-3 -2 -55 -10 -115 -16 -129 -14 -170 -29 -79 -30 l61 0
11 -37 c6 -20 9 -40 7 -44 -3 -4 -64 -10 -137 -13 -73 -4 -146 -9 -161 -12
l-29 -6 22 -15 c19 -14 36 -14 129 -4 58 7 123 14 144 17 l37 6 0 -89 c0 -111
-6 -121 -60 -106 l-41 10 38 -38 c21 -21 47 -39 57 -39 36 0 45 29 46 148 l0
112 148 0 c155 0 186 6 156 31 -20 16 -78 18 -212 5 l-93 -9 3 29 c1 16 -1 34
-5 41 -7 11 42 23 95 23 24 0 46 15 36 25 -7 7 -54 16 -58 11z"/>
</g>
<g id="part-1" class="char-part">
  <path d="M580 600 c0 -42 -1 -43 -55 -55 -26 -6 -28 -8 -12 -17 10 -5 25 -7
34 -4 16 6 15 -1 -2 -49 -4 -12 9 -4 35 23 40 41 43 42 107 42 47 0 64 3 60
13 -2 8 -24 12 -60 12 -57 -1 -69 9 -44 34 10 10 8 15 -7 27 -11 8 -28 14 -38
14 -14 0 -18 -8 -18 -40z"/>
  <path d="M300 603 c0 -5 7 -19 16 -31 9 -13 13 -26 10 -29 -3 -4 -36 -9 -74
-12 l-67 -6 28 -19 c26 -18 33 -18 79 -6 47 12 52 11 65 -6 7 -10 13 -22 13
-27 0 -5 5 -7 12 -5 7 3 12 17 13 33 0 22 5 29 24 32 39 6 38 13 -1 13 -31 0
-36 4 -44 33 -8 26 -15 33 -42 35 -18 2 -32 -1 -32 -5z"/>
</g>
<g id="part-2" class="char-part">
  <path d="M470 423 c-175 -23 -181 -33 -20 -28 80 2 156 7 169 11 l23 7 -23 13
c-13 7 -28 13 -34 12 -5 0 -57 -7 -115 -15z"/>
</g>
<g id="part-3" class="char-part">
  <path d="M446 382 c-3 -5 -1 -23 4 -40 4 -18 5 -34 1 -36 -3 -2 -67 -7 -141
-11 -150 -7 -183 -12 -176 -24 10 -16 75 -22 138 -12 35 5 91 12 126 15 l62 6
0 -88 c0 -48 -4 -93 -9 -101 -9 -14 -34 -12 -76 4 -13 5 -6 -6 20 -34 39 -41
71 -51 93 -29 8 8 12 52 12 130 l0 118 143 1 c78 0 150 4 160 8 18 7 18 8 1
21 -20 17 -68 19 -206 7 l-97 -9 -3 39 c-2 30 -7 39 -25 41 -11 2 -24 -1 -27
-6z"/>
</g>
</g>
</svg>