<?xml version="1.0" standalone="no"?>
<!DOCTYPE svg PUBLIC "-//W3C//DTD SVG 20010904//EN"
 "http://www.w3.org/TR/2001/REC-SVG-20010904/DTD/svg10.dtd">
<svg version="1.0" xmlns="http://www.w3.org/2000/svg"
 width="96.000000pt" height="68.000000pt" viewBox="0 0 96.000000 68.000000"
 preserveAspectRatio="xMidYMid meet">
<metadata>
Created by potrace 1.16, written by Peter Selinger 2001-2019
Combined from part_0.svg through part_5.svg with named groups
</metadata>
<g transform="translate(0.000000,68.000000) scale(0.100000,-0.100000)" fill="#000000" stroke="none">
<g id="part-0" class="char-part">
  <path d="M562 523 c3 -36 2 -38 -29 -41 -18 -2 -33 -8 -33 -14 0 -6 15 -8 35
-6 31 3 35 1 35 -18 0 -20 -7 -23 -56 -30 -37 -4 -52 -9 -43 -15 8 -5 28 -6
44 -3 17 4 75 10 129 13 72 4 101 10 104 20 4 12 -8 13 -67 8 -65 -5 -71 -4
-71 13 0 14 10 20 40 25 56 9 60 25 6 25 -41 0 -45 2 -48 28 -2 19 -9 28 -26
30 -21 3 -23 0 -20 -35z"/>
  <path d="M275 518 c-33 -5 -77 -6 -99 -3 -34 5 -37 4 -30 -12 5 -10 9 -72 9
-138 0 -136 -9 -125 90 -106 28 5 67 10 89 10 l38 1 -7 -67 c-10 -99 -19 -116
-55 -111 -36 5 -38 -1 -6 -31 28 -27 57 -22 74 12 13 28 43 197 36 208 -3 5
-27 11 -55 15 -43 6 -50 9 -47 28 2 15 14 23 47 29 32 6 40 11 30 18 -8 5 -26
9 -41 9 -21 0 -28 5 -28 19 0 15 10 22 43 29 l42 9 -42 8 c-32 6 -43 12 -43
26 0 13 10 20 38 24 54 9 64 14 57 25 -7 12 -56 11 -140 -2z m-2 -57 c6 -25 0
-31 -35 -31 -23 0 -28 4 -28 25 0 21 5 25 29 25 20 0 30 -6 34 -19z m3 -73
c-2 -18 -11 -24 -34 -26 -28 -3 -32 0 -32 22 0 23 4 26 35 26 31 0 34 -3 31
-22z m-4 -54 c3 -3 4 -14 1 -25 -4 -14 -14 -19 -39 -19 -30 0 -34 3 -34 25 0
22 4 25 33 25 19 0 36 -3 39 -6z"/>
  <path d="M654 366 c5 -20 1 -26 -22 -34 l-27 -10 28 -1 c20 -1 27 -6 27 -20 0
-20 -18 -31 -51 -31 -10 0 -19 -4 -19 -10 0 -13 47 -12 140 4 51 9 69 16 57
21 -9 4 -33 5 -52 3 -31 -4 -35 -1 -35 19 0 18 6 23 25 23 14 0 25 5 25 10 0
6 -11 10 -25 10 -14 0 -24 3 -24 8 4 23 -4 32 -27 32 -23 0 -25 -3 -20 -24z"/>
  <path d="M480 346 c0 -16 -7 -26 -22 -31 l-23 -7 25 -7 c33 -9 32 -33 -4 -50
-19 -9 -25 -16 -16 -21 17 -11 73 8 107 36 l28 24 -27 -10 c-25 -8 -28 -7 -28
10 0 13 7 20 19 20 11 0 23 5 26 10 4 6 -5 10 -19 10 -19 0 -26 5 -26 20 0 13
-7 20 -20 20 -14 0 -20 -7 -20 -24z"/>
  <path d="M297 234 c-3 -6 3 -21 14 -32 25 -27 29 -27 29 -2 0 11 -6 20 -14 20
-8 0 -16 5 -18 12 -3 8 -7 9 -11 2z"/>
  <path d="M568 211 c-95 -16 -136 -31 -85 -31 15 0 27 -5 27 -10 0 -24 -32 -70
-72 -103 -41 -34 -41 -35 -13 -29 36 6 135 104 135 132 0 15 7 20 25 20 23 0
25 -3 25 -50 0 -68 20 -106 61 -114 77 -15 172 1 184 32 5 14 -24 72 -36 72
-4 0 -10 -12 -14 -27 -3 -15 -12 -31 -18 -35 -21 -13 -114 -9 -126 5 -6 8 -10
39 -8 69 l2 55 39 1 c45 2 57 9 36 22 -20 13 -46 11 -162 -9z"/>
  <path d="M230 212 c0 -15 38 -44 51 -40 9 3 6 11 -9 26 -22 22 -42 29 -42 14z"/>
  <path d="M95 176 c-18 -41 -14 -66 9 -66 18 0 33 77 17 93 -7 7 -15 0 -26 -27z"/>
  <path d="M156 198 c13 -23 37 -48 46 -48 15 0 9 26 -10 43 -22 20 -46 23 -36
5z"/>
</g>
<g id="part-1" class="char-part">
  <path d="M315 519 c-22 -4 -68 -8 -103 -8 -61 -1 -63 -2 -55 -23 9 -25 10
-116 3 -188 -5 -45 -5 -45 25 -43 93 6 159 19 163 32 5 14 -11 13 -116 -5
l-33 -6 3 103 3 104 80 7 c99 9 128 16 120 28 -7 11 -33 11 -90 -1z"/>
</g>
<g id="part-2" class="char-part">
  <path d="M306 205 c17 -25 26 -30 37 -19 11 12 -13 44 -34 44 -18 0 -19 -1 -3
-25z"/>
  <path d="M237 195 c17 -23 53 -35 53 -17 0 15 -35 42 -54 42 -16 0 -16 -2 1
-25z"/>
  <path d="M91 170 c-13 -43 -9 -60 14 -60 16 0 31 61 21 85 -10 26 -22 17 -35
-25z"/>
  <path d="M159 192 c5 -9 19 -26 30 -36 21 -19 21 -19 21 4 0 23 -25 49 -48 50
-9 0 -10 -5 -3 -18z"/>
</g>
<g id="part-3" class="char-part">
  <path d="M562 529 c12 -36 1 -49 -45 -49 -16 0 -26 -4 -22 -10 3 -5 22 -10 41
-10 27 0 34 -4 34 -19 0 -15 -11 -20 -62 -26 -47 -5 -58 -9 -43 -15 11 -5 35
-6 53 -3 18 3 75 8 127 12 106 7 128 27 28 24 -54 -1 -63 1 -63 17 0 13 11 19
45 24 72 11 57 31 -18 26 -23 -1 -28 2 -26 17 5 27 -9 43 -36 43 -22 0 -23 -2
-13 -31z"/>
</g>
<g id="part-4" class="char-part">
  <path d="M482 348 c2 -16 -4 -26 -22 -35 l-25 -11 28 -1 c40 -1 38 -37 -3 -46
-34 -7 -39 -21 -12 -30 11 -3 38 6 65 21 53 29 59 37 20 28 -22 -6 -25 -4 -20
10 4 10 7 20 7 22 0 2 11 4 25 4 14 0 25 5 25 10 0 6 -11 10 -25 10 -18 0 -25
5 -25 20 0 14 -7 20 -21 20 -15 0 -20 -5 -17 -22z"/>
</g>
<g id="part-5" class="char-part">
  <path d="M616 160 c2 -19 4 -47 4 -61 0 -34 36 -72 61 -64 10 4 19 3 19 -2 0
-10 109 -1 128 10 16 11 16 48 -1 71 -12 16 -13 16 -15 -3 -1 -12 -3 -30 -4
-41 -2 -14 -8 -18 -19 -15 -9 3 -27 2 -40 -3 -26 -9 -115 9 -103 21 4 4 2 7
-6 7 -10 0 -10 3 0 15 7 9 10 18 7 21 -3 3 -2 17 3 30 10 26 -7 46 -20 24 -6
-10 -9 -8 -14 6 -3 10 -3 3 0 -16z"/>
</g>
</g>
</svg>