<?xml version="1.0" standalone="no"?>
<!DOCTYPE svg PUBLIC "-//W3C//DTD SVG 20010904//EN"
 "http://www.w3.org/TR/2001/REC-SVG-20010904/DTD/svg10.dtd">
<svg version="1.0" xmlns="http://www.w3.org/2000/svg"
 width="96.000000pt" height="68.000000pt" viewBox="0 0 96.000000 68.000000"
 preserveAspectRatio="xMidYMid meet">
<metadata>
Created by potrace 1.16, written by Peter Selinger 2001-2019
Combined from part_0.svg through part_5.svg with named groups
</metadata>
<g transform="translate(0.000000,68.000000) scale(0.100000,-0.100000)" fill="#000000" stroke="none">
<g id="part-0" class="char-part">
  <path d="M538 583 c32 -45 28 -53 -25 -54 -27 -1 -61 -4 -78 -8 l-30 -7 34 -7
c18 -4 36 -5 40 -3 3 2 47 7 96 10 132 10 176 17 168 28 -3 7 -32 8 -74 5 -60
-5 -69 -4 -69 11 0 28 -14 41 -50 48 l-34 7 22 -30z"/>
  <path d="M275 535 c-22 -19 -57 -42 -77 -51 -62 -28 -45 -46 22 -23 37 13 50
3 50 -43 0 -30 -7 -34 -93 -44 -31 -3 -60 -10 -63 -15 -9 -15 40 -20 86 -10
24 5 46 8 48 6 11 -11 -17 -52 -77 -115 -37 -38 -62 -70 -56 -70 18 0 87 52
117 89 34 39 40 39 34 -1 -12 -74 -16 -214 -7 -227 8 -12 12 -12 25 -2 13 11
16 37 16 143 l0 129 26 -20 c32 -25 44 -26 44 -5 0 8 -16 22 -35 30 -26 11
-35 20 -35 38 0 21 6 25 50 31 58 8 57 25 -1 25 -38 0 -39 1 -39 35 0 21 -6
37 -16 43 -12 7 -5 12 31 22 52 15 68 36 40 56 -28 21 -46 17 -90 -21z"/>
  <path d="M650 489 c-19 -4 -43 -6 -52 -3 -19 6 -25 -11 -8 -21 6 -3 10 -17 10
-31 0 -22 4 -24 48 -24 60 0 69 6 77 53 7 34 6 37 -16 36 -13 -1 -40 -5 -59
-10z m35 -35 c0 -14 -7 -19 -29 -19 -37 0 -46 22 -14 34 31 13 43 8 43 -15z"/>
  <path d="M480 467 c-25 -5 -46 -11 -48 -12 -1 -1 3 -16 9 -35 11 -31 14 -32
52 -27 47 6 55 13 63 55 7 36 3 37 -76 19z m40 -32 c0 -20 -5 -25 -24 -25 -27
0 -44 29 -24 42 26 16 48 9 48 -17z"/>
  <path d="M610 365 c0 -22 -4 -25 -40 -25 -28 0 -40 4 -40 14 0 15 -24 28 -34
19 -3 -4 -6 -15 -6 -25 0 -13 -8 -18 -27 -19 l-28 -1 30 -7 c45 -9 44 -37 -2
-49 l-38 -10 38 -1 c30 -1 37 -5 37 -21 0 -17 -7 -20 -50 -20 -27 0 -50 -4
-50 -10 0 -5 16 -10 35 -10 52 0 45 -23 -20 -66 -30 -21 -54 -39 -52 -41 2 -2
25 6 51 17 26 11 50 20 53 20 3 0 3 -27 0 -60 -6 -74 7 -78 73 -20 46 40 46
51 0 25 -14 -8 -28 -14 -32 -15 -13 0 -3 97 11 114 7 8 10 19 7 25 -4 5 49 12
129 16 118 6 134 9 123 22 -9 12 -26 13 -75 8 -52 -5 -63 -4 -63 8 0 17 21 27
56 27 13 0 24 5 24 10 0 6 -18 10 -40 10 -31 0 -38 3 -34 15 4 9 19 15 41 15
23 0 33 4 30 13 -2 6 -13 12 -25 12 -11 0 -29 8 -40 18 -26 24 -42 21 -42 -8z
m-3 -71 c-3 -3 -20 -6 -38 -7 -24 -1 -34 2 -34 13 0 20 69 31 73 12 2 -8 2
-16 -1 -18z m1 -41 c-2 -13 -13 -18 -37 -18 -37 0 -54 20 -24 28 42 11 65 7
61 -10z"/>
  <path d="M690 193 c0 -4 -9 -19 -19 -32 l-18 -23 -41 21 c-47 24 -52 25 -52
11 0 -5 6 -10 13 -10 7 0 48 -29 91 -65 81 -68 106 -76 176 -56 22 6 20 8 -25
20 -27 8 -71 25 -97 39 -51 27 -52 44 -2 56 31 8 29 40 -4 44 -12 2 -22 0 -22
-5z"/>
</g>
<g id="part-1" class="char-part">
  <path d="M283 535 c-17 -14 -51 -37 -75 -51 -40 -24 -41 -25 -13 -21 31 5 151
47 173 61 10 6 10 11 1 22 -17 21 -50 17 -86 -11z"/>
</g>
<g id="part-2" class="char-part">
  <path d="M264 484 c-9 -4 -9 -16 -1 -45 12 -51 7 -55 -85 -64 -66 -7 -86 -19
-51 -32 9 -3 39 -2 67 4 28 6 53 9 55 7 10 -9 -27 -59 -91 -124 -38 -39 -66
-70 -63 -70 23 0 90 48 130 92 l48 53 -6 -50 c-22 -185 -17 -254 17 -226 13
11 16 37 16 143 l0 129 30 -23 c22 -16 33 -19 41 -11 16 16 3 31 -34 41 -24 6
-33 14 -35 34 -3 24 0 26 47 33 63 9 67 25 6 25 l-45 0 0 39 c0 26 -5 41 -16
45 -9 3 -16 6 -17 5 -1 0 -7 -3 -13 -5z"/>
</g>
<g id="part-3" class="char-part">
  <path d="M539 577 c12 -21 21 -37 19 -38 -16 -3 -42 -7 -93 -14 -45 -5 -55 -9
-39 -15 21 -8 310 13 321 23 12 12 -29 19 -87 15 -50 -4 -60 -2 -60 11 0 27
-15 40 -50 47 l-34 7 23 -36z"/>
</g>
<g id="part-4" class="char-part">
  <path d="M495 470 c-11 -5 -32 -9 -46 -9 l-27 -1 16 -35 c16 -36 32 -41 79
-29 29 8 52 62 32 75 -17 10 -28 10 -54 -1z m25 -35 c0 -20 -5 -25 -25 -25
-29 0 -45 28 -24 41 27 17 49 10 49 -16z"/>
</g>
<g id="part-5" class="char-part">
  <path d="M688 175 c-24 -32 -23 -35 12 -22 17 6 30 15 30 20 0 4 -4 5 -10 2
-6 -3 -7 1 -4 9 9 24 -9 18 -28 -9z"/>
  <path d="M580 166 c0 -2 7 -7 16 -10 8 -3 12 -2 9 4 -6 10 -25 14 -25 6z"/>
  <path d="M482 123 c-5 -10 -8 -35 -7 -55 1 -21 -2 -38 -7 -38 -5 0 -7 -4 -3
-10 3 -5 12 -7 20 -4 8 4 12 10 9 15 -3 5 4 9 14 9 11 0 23 7 26 16 5 14 4 15
-7 5 -22 -17 -40 11 -32 49 7 33 1 40 -13 13z"/>
  <path d="M630 131 c0 -6 5 -13 10 -16 6 -3 10 1 10 9 0 9 -4 16 -10 16 -5 0
-10 -4 -10 -9z"/>
  <path d="M662 108 c7 -21 97 -78 113 -71 20 7 19 23 -1 23 -8 0 -22 7 -31 15
-9 9 -23 13 -34 10 -14 -5 -17 -2 -13 9 5 12 2 15 -12 9 -12 -4 -15 -3 -10 5
4 7 2 12 -4 12 -7 0 -10 -6 -8 -12z"/>
</g>
</g>
</svg>