<?xml version="1.0" standalone="no"?>
<!DOCTYPE svg PUBLIC "-//W3C//DTD SVG 20010904//EN"
 "http://www.w3.org/TR/2001/REC-SVG-20010904/DTD/svg10.dtd">
<svg version="1.0" xmlns="http://www.w3.org/2000/svg"
 width="96.000000pt" height="68.000000pt" viewBox="0 0 96.000000 68.000000"
 preserveAspectRatio="xMidYMid meet">
<metadata>
Created by potrace 1.16, written by Peter Selinger 2001-2019
Combined from part_0.svg through part_5.svg with named groups
</metadata>
<g transform="translate(0.000000,68.000000) scale(0.100000,-0.100000)" fill="#000000" stroke="none">
<g id="part-0" class="char-part">
  <path d="M420 620 c0 -7 9 -23 20 -37 11 -14 20 -29 20 -34 0 -4 -41 -11 -90
-15 -60 -4 -90 -10 -87 -18 2 -6 20 -12 39 -14 32 -3 37 -7 42 -37 4 -19 13
-46 21 -61 8 -15 12 -31 9 -36 -3 -4 -42 -8 -87 -9 -45 0 -102 -4 -127 -8
l-45 -8 28 -11 c22 -9 56 -10 143 -1 63 6 121 9 129 5 9 -3 15 -18 15 -39 l0
-34 -61 -7 c-34 -3 -77 -6 -95 -6 -25 0 -34 -4 -34 -16 0 -15 11 -16 95 -10
l95 7 0 -100 c0 -158 36 -138 47 26 l6 83 98 0 c94 0 125 10 77 26 -25 8 -133
7 -160 -2 -15 -4 -17 1 -16 40 l2 46 148 0 c124 0 148 2 148 15 0 22 -42 28
-151 20 -54 -3 -99 -4 -99 0 0 12 23 50 43 73 18 19 19 26 9 42 -10 17 -8 19
26 22 25 2 37 8 37 18 0 12 -14 15 -77 13 -72 -2 -78 0 -78 18 0 27 -19 45
-58 54 -22 4 -32 3 -32 -5z m129 -127 c0 -10 -8 -40 -17 -68 l-17 -50 -45 0
c-45 0 -45 0 -48 36 -2 21 -12 45 -23 54 -35 33 -30 35 119 43 25 2 32 -2 31
-15z"/>
</g>
<g id="part-1" class="char-part">
  <path d="M446 583 l25 -38 -23 -6 c-13 -4 -45 -8 -73 -9 -27 -1 -59 -5 -70 -9
-19 -8 -19 -8 3 -15 29 -9 219 2 304 19 61 11 62 12 35 23 -18 8 -47 9 -87 3
-55 -7 -60 -6 -55 10 8 24 -28 59 -60 59 l-24 0 25 -37z"/>
</g>
<g id="part-2" class="char-part">
  <path d="M541 458 c-7 -35 -17 -69 -23 -75 -6 -7 -30 -13 -54 -13 l-44 0 0 39
c0 38 -30 91 -52 91 -13 0 -2 -64 18 -101 17 -35 8 -39 -89 -40 -40 0 -94 -4
-122 -8 l-50 -7 36 -12 c28 -10 57 -10 125 -2 49 6 185 14 302 17 117 3 215
10 218 14 2 4 -5 13 -17 20 -16 8 -56 9 -136 4 l-114 -7 25 39 c46 67 52 83
35 94 -33 21 -45 10 -58 -53z"/>
</g>
<g id="part-3" class="char-part">
  <path d="M448 345 c-3 -4 -4 -24 -1 -45 l5 -38 -88 -7 c-49 -4 -95 -11 -103
-15 -27 -15 28 -22 110 -15 l79 7 0 -106 c0 -84 3 -106 14 -106 17 0 23 23 32
133 l7 87 106 0 c97 0 104 1 89 16 -12 13 -36 16 -108 15 l-92 -1 6 35 c5 27
4 35 -8 35 -8 0 -21 2 -28 5 -8 3 -17 3 -20 0z"/>
</g>
</g>
</svg>