<?xml version="1.0" standalone="no"?>
<!DOCTYPE svg PUBLIC "-//W3C//DTD SVG 20010904//EN"
 "http://www.w3.org/TR/2001/REC-SVG-20010904/DTD/svg10.dtd">
<svg version="1.0" xmlns="http://www.w3.org/2000/svg"
 width="96.000000pt" height="68.000000pt" viewBox="0 0 96.000000 68.000000"
 preserveAspectRatio="xMidYMid meet">
<metadata>
Created by potrace 1.16, written by Peter Selinger 2001-2019
Combined from part_0.svg through part_5.svg with named groups
</metadata>
<g transform="translate(0.000000,68.000000) scale(0.100000,-0.100000)" fill="#000000" stroke="none">
<g id="part-0" class="char-part">
  <path d="M639 566 c-2 -2 -62 -9 -134 -16 -151 -13 -168 -17 -142 -31 51 -29
-23 -317 -108 -413 -30 -35 -26 -44 9 -21 57 37 146 214 146 289 0 39 26 6 47
-59 27 -80 28 -82 47 -66 11 9 20 10 35 1 18 -9 21 -20 21 -86 l0 -76 -42 7
-41 7 39 -33 c21 -19 42 -37 45 -41 3 -5 14 -2 25 6 16 13 19 28 21 123 2 115
7 125 49 102 21 -11 27 -10 38 2 11 12 56 126 56 142 0 18 -79 29 -129 18 -85
-18 -89 -15 -46 29 40 41 40 54 0 62 -16 3 -24 -7 -40 -52 l-20 -55 -49 -3
-49 -3 6 56 c3 32 7 58 9 60 2 1 66 8 143 15 145 12 159 15 150 31 -6 9 -77
13 -86 5z m34 -179 c10 -26 -9 -34 -99 -41 -79 -6 -92 -5 -98 9 -7 18 0 22 74
34 83 13 117 13 123 -2z m-10 -76 c-4 -15 -18 -20 -79 -26 -75 -7 -94 -3 -94
19 0 8 27 16 83 22 45 5 85 8 89 7 3 -2 4 -12 1 -22z"/>
  <path d="M180 531 c0 -16 70 -71 90 -71 15 0 20 7 20 26 0 19 -8 28 -35 40
-39 16 -75 18 -75 5z"/>
  <path d="M120 405 c0 -14 65 -75 80 -75 41 0 34 42 -11 65 -27 14 -69 20 -69
10z"/>
  <path d="M237 282 c-21 -28 -59 -69 -83 -90 -44 -37 -45 -39 -32 -68 12 -28
26 -44 40 -44 3 0 20 28 37 63 17 34 42 83 57 109 40 73 27 94 -19 30z"/>
  <path d="M421 187 c-7 -17 -23 -44 -38 -59 -41 -43 -10 -33 46 15 53 45 57 56
24 68 -18 7 -23 3 -32 -24z"/>
  <path d="M725 156 c60 -56 88 -68 98 -42 13 33 -45 78 -118 90 l-40 7 60 -55z"/>
</g>
<g id="part-1" class="char-part">
  <path d="M190 531 c0 -18 54 -61 76 -61 26 0 32 21 12 38 -18 14 -88 32 -88
23z"/>
  <path d="M140 381 c12 -23 49 -51 67 -51 21 0 15 38 -9 54 -12 9 -33 16 -46
16 -19 0 -21 -3 -12 -19z"/>
  <path d="M221 254 c-29 -36 -63 -70 -77 -76 -13 -6 -24 -17 -24 -24 0 -22 23
-64 35 -64 11 0 130 218 122 226 -2 2 -27 -26 -56 -62z"/>
</g>
<g id="part-2" class="char-part">
  <path d="M495 552 c-77 -8 -142 -17 -144 -19 -3 -2 4 -9 14 -17 16 -11 17 -22
11 -87 -9 -103 -53 -224 -111 -305 l-48 -67 32 19 c87 50 145 173 171 360 l12
81 134 12 c141 12 167 18 158 32 -7 12 -57 10 -229 -9z"/>
</g>
<g id="part-3" class="char-part">
  <path d="M535 459 c-9 -28 -15 -52 -13 -54 2 -3 24 15 47 39 45 46 47 66 6 66
-19 0 -26 -9 -40 -51z"/>
</g>
<g id="part-4" class="char-part">
  <path d="M558 255 c-3 -4 -3 -17 1 -30 3 -13 4 -50 3 -81 l-4 -56 -39 6 -38 6
42 -39 c68 -64 91 -32 85 119 -3 67 -5 75 -23 78 -12 2 -24 0 -27 -3z"/>
  <path d="M426 195 c-3 -13 -20 -40 -37 -60 -55 -63 0 -31 91 52 5 5 -29 33
-41 33 -4 0 -10 -11 -13 -25z"/>
  <path d="M696 183 c97 -89 124 -102 124 -60 0 30 -25 52 -79 72 -67 23 -80 20
-45 -12z"/>
</g>
</g>
</svg>