<?xml version="1.0" standalone="no"?>
<!DOCTYPE svg PUBLIC "-//W3C//DTD SVG 20010904//EN"
 "http://www.w3.org/TR/2001/REC-SVG-20010904/DTD/svg10.dtd">
<svg version="1.0" xmlns="http://www.w3.org/2000/svg"
 width="96.000000pt" height="68.000000pt" viewBox="0 0 96.000000 68.000000"
 preserveAspectRatio="xMidYMid meet">
<metadata>
Created by potrace 1.16, written by Peter Selinger 2001-2019
Combined from part_0.svg through part_5.svg with named groups
</metadata>
<g transform="translate(0.000000,68.000000) scale(0.100000,-0.100000)" fill="#000000" stroke="none">
<g id="part-0" class="char-part">
  <path d="M560 618 c0 -46 -9 -54 -57 -63 -52 -8 -55 -22 -8 -31 l34 -6 -14
-35 c-13 -32 -13 -34 1 -29 9 3 17 6 19 6 2 0 13 16 25 35 16 26 28 35 49 35
48 0 121 12 121 21 0 13 -67 30 -94 23 -25 -6 -26 -5 -16 22 9 24 8 31 -6 41
-33 24 -54 16 -54 -19z"/>
  <path d="M260 620 c0 -5 5 -21 12 -35 16 -35 0 -45 -69 -45 -41 0 -51 -3 -47
-14 10 -25 60 -39 95 -27 44 15 45 15 59 -19 16 -38 36 -33 32 7 -3 26 1 32
28 42 36 12 33 31 -4 24 -21 -4 -26 -1 -31 23 -4 16 -8 35 -11 42 -4 14 -64
17 -64 2z"/>
  <path d="M370 484 c0 -3 11 -17 25 -32 13 -14 21 -30 17 -34 -4 -4 -55 -10
-115 -14 -61 -4 -107 -11 -107 -17 0 -10 251 -4 416 10 69 6 75 8 58 20 -15
11 -39 13 -111 8 -78 -6 -93 -5 -93 8 0 8 -6 20 -14 26 -15 13 -76 33 -76 25z"/>
  <path d="M530 352 c0 -13 84 -92 98 -92 18 0 14 45 -5 62 -34 27 -93 47 -93
30z"/>
  <path d="M279 328 c-6 -13 -27 -40 -47 -60 -42 -44 -33 -49 22 -12 70 48 87
66 75 81 -17 20 -37 16 -50 -9z"/>
  <path d="M480 289 c0 -26 -29 -89 -42 -89 -5 0 -21 9 -36 20 -31 23 -92 43
-92 30 0 -5 15 -16 34 -25 19 -9 42 -26 52 -37 18 -19 18 -20 -1 -35 -34 -26
-140 -73 -186 -83 -39 -8 -36 -9 26 -5 54 4 86 13 142 40 l72 36 53 -38 c29
-21 56 -42 60 -48 8 -11 163 -13 192 -2 28 11 18 16 -85 42 -99 24 -189 59
-189 72 0 4 16 32 35 62 32 50 33 55 17 67 -27 21 -52 17 -52 -7z"/>
</g>
<g id="part-1" class="char-part">
  <path d="M567 643 c-4 -3 -7 -21 -7 -39 0 -38 -21 -54 -70 -54 -18 0 -29 -4
-25 -10 3 -5 22 -10 41 -10 l35 0 -16 -30 c-17 -34 -18 -40 -6 -40 5 0 22 18
38 40 28 39 28 40 96 40 37 0 67 4 67 9 0 14 -27 21 -76 21 -43 0 -44 0 -32
26 11 22 10 28 -7 40 -21 16 -29 17 -38 7z"/>
  <path d="M260 618 c0 -8 4 -18 9 -23 5 -6 12 -20 16 -32 6 -22 4 -23 -59 -23
-36 0 -66 -4 -66 -10 0 -20 42 -31 96 -24 50 6 54 5 54 -14 0 -11 7 -25 15
-32 13 -11 15 -7 15 28 0 36 3 40 33 48 l32 8 -37 3 c-36 4 -38 6 -38 39 0 20
-5 34 -12 34 -7 0 -23 3 -35 6 -16 4 -23 2 -23 -8z"/>
</g>
<g id="part-2" class="char-part">
  <path d="M395 448 c15 -18 23 -33 19 -34 -5 -2 -57 -6 -116 -9 -65 -4 -108
-11 -108 -18 0 -10 271 -4 424 10 63 6 67 7 50 21 -15 11 -39 13 -111 8 -78
-5 -93 -4 -93 8 0 20 -39 46 -68 46 l-24 0 27 -32z"/>
</g>
<g id="part-3" class="char-part">
  <path d="M530 352 c0 -12 84 -92 97 -92 14 0 24 26 17 45 -3 8 -25 23 -48 35
-45 21 -66 25 -66 12z"/>
  <path d="M280 335 c0 -9 -19 -36 -41 -60 -23 -25 -38 -45 -35 -45 14 0 52 23
94 57 34 28 40 38 31 49 -15 19 -49 18 -49 -1z"/>
</g>
<g id="part-4" class="char-part">
  <path d="M480 290 c0 -29 -27 -90 -40 -90 -6 0 -23 9 -38 20 -31 23 -92 43
-92 30 0 -5 15 -16 34 -25 19 -9 42 -26 52 -37 18 -19 18 -20 -1 -35 -39 -29
-116 -64 -173 -77 l-57 -14 46 -1 c59 -1 133 21 191 58 l48 30 46 -39 c73 -64
98 -73 175 -66 56 5 132 23 107 25 -75 7 -281 72 -294 92 -3 5 9 33 27 60 35
55 32 81 -10 87 -16 3 -21 -2 -21 -18z"/>
</g>
</g>
</svg>