<?xml version="1.0" standalone="no"?>
<!DOCTYPE svg PUBLIC "-//W3C//DTD SVG 20010904//EN"
 "http://www.w3.org/TR/2001/REC-SVG-20010904/DTD/svg10.dtd">
<svg version="1.0" xmlns="http://www.w3.org/2000/svg"
 width="96.000000pt" height="68.000000pt" viewBox="0 0 96.000000 68.000000"
 preserveAspectRatio="xMidYMid meet">
<metadata>
Created by potrace 1.16, written by Peter Selinger 2001-2019
Combined from part_0.svg through part_5.svg with named groups
</metadata>
<g transform="translate(0.000000,68.000000) scale(0.100000,-0.100000)" fill="#000000" stroke="none">
<g id="part-0" class="char-part">
  <path d="M524 493 l1 -88 -75 0 -75 0 -23 -43 c-12 -24 -20 -48 -16 -53 11
-19 35 -8 50 25 15 31 21 34 73 40 31 4 102 12 159 20 56 7 104 10 107 8 3 -3
-2 -17 -11 -30 -15 -23 -15 -25 1 -19 9 4 31 7 48 7 18 0 39 5 47 10 13 8 12
12 -7 31 -25 25 -51 28 -160 15 l-72 -8 -3 84 c-3 76 -5 83 -24 86 -20 3 -21
-1 -20 -85z"/>
  <path d="M654 495 c-9 -20 -15 -38 -13 -40 3 -2 26 10 53 27 37 23 46 32 35
39 -31 19 -58 10 -75 -26z"/>
  <path d="M390 496 c0 -13 49 -56 64 -56 30 0 18 37 -15 49 -34 12 -49 14 -49
7z"/>
  <path d="M185 467 l-60 -10 0 -171 c0 -193 -9 -175 84 -160 39 6 46 4 62 -17
16 -21 20 -22 33 -9 11 12 15 52 17 188 4 212 11 203 -136 179z m85 -67 c0
-39 -1 -40 -34 -40 -19 0 -41 -3 -50 -6 -13 -5 -16 2 -16 34 0 44 7 50 63 51
37 1 37 1 37 -39z m0 -99 c0 -31 -4 -33 -67 -46 -32 -6 -33 -6 -33 28 0 38 8
44 68 46 29 1 32 -2 32 -28z m4 -87 c10 -27 7 -54 -8 -54 -7 0 -34 -3 -60 -6
-44 -6 -46 -6 -46 19 0 48 9 57 60 57 34 0 50 -4 54 -16z"/>
  <path d="M530 330 c-36 -5 -73 -6 -84 -3 -13 3 -17 1 -13 -8 4 -8 12 -33 19
-56 10 -37 16 -43 40 -43 21 0 29 -6 34 -26 8 -32 -7 -44 -58 -44 -21 0 -38
-5 -38 -11 0 -6 20 -9 53 -8 52 3 52 3 55 -28 l3 -31 -100 -7 c-56 -4 -101
-11 -101 -15 0 -16 48 -19 135 -10 50 5 143 10 208 10 73 0 117 4 117 10 0 21
-52 30 -139 23 l-88 -6 5 31 c4 28 7 30 58 37 75 9 78 25 5 25 -47 0 -59 3
-55 14 3 7 -2 21 -11 30 -15 15 -13 16 28 16 34 0 46 4 50 18 3 9 14 29 23 44
10 15 15 30 12 34 -11 11 -89 13 -158 4z m96 -37 c-7 -36 -21 -43 -88 -43 -59
0 -59 0 -62 43 -1 12 47 23 117 26 35 1 37 0 33 -26z"/>
</g>
<g id="part-1" class="char-part">
  <path d="M235 470 c-16 -4 -49 -8 -73 -9 -40 -1 -43 -3 -36 -23 4 -13 7 -69 6
-125 -1 -95 0 -103 18 -103 10 0 20 4 22 9 2 4 27 11 56 15 40 5 52 4 52 -7 0
-7 8 -13 18 -14 15 -1 17 11 17 123 0 148 -3 154 -80 134z m29 -26 c11 -4 16
-19 16 -45 0 -34 -3 -39 -24 -39 -13 0 -38 -3 -55 -6 l-31 -6 0 45 c0 42 2 46
28 50 47 7 50 7 66 1z m14 -147 c3 -33 1 -37 -21 -37 -14 0 -39 -3 -56 -6 -31
-6 -31 -6 -31 34 0 40 1 41 38 45 63 7 67 5 70 -36z"/>
</g>
<g id="part-2" class="char-part">
  <path d="M298 212 c-11 -2 -18 -13 -18 -26 0 -20 -7 -24 -46 -30 -72 -9 -74
-9 -74 24 0 36 -25 41 -34 8 -17 -64 1 -94 42 -72 40 21 81 17 102 -8 17 -21
20 -22 35 -7 24 23 17 116 -7 111z"/>
</g>
<g id="part-3" class="char-part">
  <path d="M515 563 c3 -10 9 -48 12 -85 5 -56 9 -68 24 -68 15 0 18 11 21 76 3
81 -2 94 -40 94 -19 0 -23 -4 -17 -17z"/>
  <path d="M674 528 c-23 -33 -44 -78 -37 -78 5 0 31 14 58 31 l49 31 -24 14
c-31 17 -35 17 -46 2z"/>
  <path d="M396 488 c16 -29 38 -48 56 -48 27 0 22 35 -7 48 -34 16 -58 15 -49
0z"/>
</g>
<g id="part-4" class="char-part">
  <path d="M675 419 c-27 -5 -106 -10 -175 -12 l-125 -2 -23 -44 c-15 -29 -19
-48 -13 -54 15 -15 41 0 52 31 10 28 12 29 137 45 136 18 202 21 202 10 0 -3
-8 -15 -17 -25 -17 -19 -16 -19 7 -14 14 3 42 8 63 11 45 7 46 17 8 44 -31 23
-40 23 -116 10z"/>
</g>
<g id="part-5" class="char-part">
  <path d="M535 211 c-3 -6 3 -14 12 -20 11 -6 13 -11 5 -11 -7 0 -11 -4 -8 -9
4 -5 1 -11 -6 -13 -17 -6 0 -28 23 -28 13 0 19 7 19 21 0 12 -4 17 -11 14 -6
-4 -5 3 3 14 11 18 11 23 -2 31 -19 12 -27 12 -35 1z"/>
  <path d="M629 159 c-10 -6 -7 -9 14 -9 29 0 35 5 14 13 -8 3 -20 1 -28 -4z"/>
  <path d="M469 141 c12 -8 51 -4 51 5 0 2 -15 4 -32 4 -23 0 -29 -3 -19 -9z"/>
  <path d="M541 107 c-1 -21 21 -18 27 4 3 12 2 12 -6 0 -8 -11 -10 -11 -15 0
-4 10 -6 8 -6 -4z"/>
  <path d="M718 83 c-10 -2 -18 -11 -18 -18 0 -9 13 -13 43 -12 32 1 40 5 33 13
-6 6 -17 9 -25 6 -9 -3 -12 -1 -7 6 7 12 4 13 -26 5z"/>
  <path d="M547 73 c-4 -4 -44 -8 -88 -10 -109 -6 -146 -20 -51 -21 39 0 72 3
72 7 0 4 40 6 90 4 90 -4 146 8 107 23 -10 4 -23 2 -30 -5 -6 -6 -16 -11 -21
-11 -6 0 -4 5 4 10 21 14 -5 13 -31 0 -13 -7 -19 -7 -19 0 0 11 -23 14 -33 3z"/>
</g>
</g>
</svg>