<?xml version="1.0" standalone="no"?>
<!DOCTYPE svg PUBLIC "-//W3C//DTD SVG 20010904//EN"
 "http://www.w3.org/TR/2001/REC-SVG-20010904/DTD/svg10.dtd">
<svg version="1.0" xmlns="http://www.w3.org/2000/svg"
 width="96.000000pt" height="68.000000pt" viewBox="0 0 96.000000 68.000000"
 preserveAspectRatio="xMidYMid meet">
<metadata>
Created by potrace 1.16, written by Peter Selinger 2001-2019
Combined from part_0.svg through part_5.svg with named groups
</metadata>
<g transform="translate(0.000000,68.000000) scale(0.100000,-0.100000)" fill="#000000" stroke="none">
<g id="part-0" class="char-part">
  <path d="M498 528 c-37 -40 -49 -48 -69 -43 -24 6 -24 5 -24 -72 0 -43 -2 -84
-5 -91 -3 -8 2 -19 11 -24 13 -9 24 -4 53 23 52 47 62 51 76 34 17 -21 30 -19
30 5 0 21 -33 60 -51 60 -6 0 -8 -9 -4 -20 5 -17 0 -23 -29 -35 -19 -8 -37
-15 -39 -15 -4 0 8 118 13 123 3 3 33 19 68 36 64 32 73 48 36 62 -16 6 -30
-3 -66 -43z"/>
  <path d="M255 553 c3 -10 9 -48 12 -85 l6 -66 -77 -12 c-93 -16 -98 -36 -7
-33 33 1 61 -1 61 -4 0 -19 -60 -105 -103 -150 -37 -38 -46 -53 -34 -53 32 0
86 42 136 105 17 22 22 24 18 10 -3 -11 -9 -63 -12 -115 -6 -83 -5 -98 10
-110 33 -27 45 11 45 139 l0 114 23 -21 c30 -28 57 -29 57 -2 0 13 -12 26 -35
37 -46 22 -49 58 -5 68 53 12 47 44 -9 45 -23 0 -23 2 -17 63 7 61 6 64 -19
75 -39 18 -58 15 -50 -5z"/>
  <path d="M680 495 c-30 -7 -68 -14 -83 -14 -43 -2 -21 -21 24 -21 21 0 39 -2
39 -5 0 -15 -44 -89 -71 -120 -36 -41 -28 -45 22 -10 40 27 92 105 87 133 -2
13 5 18 35 20 36 3 37 3 37 -33 0 -20 -7 -50 -16 -67 -12 -24 -21 -29 -40 -25
-29 5 -30 0 -3 -32 16 -20 23 -22 43 -13 25 11 56 67 56 104 0 12 7 32 15 42
13 17 13 22 -2 38 -19 21 -60 22 -143 3z"/>
  <path d="M635 265 c-49 -7 -123 -14 -163 -14 -66 -1 -71 -3 -63 -18 6 -10 17
-53 25 -97 17 -87 20 -93 38 -78 7 5 64 13 125 17 l113 8 10 -27 c12 -33 44
-34 65 -3 8 13 19 55 24 93 5 38 12 77 16 86 5 12 -2 21 -24 32 -34 18 -43 18
-166 1z m103 -21 c14 -4 22 -14 22 -29 0 -20 -6 -23 -57 -28 -67 -7 -72 -5
-66 27 5 24 11 27 68 34 6 1 20 -1 33 -4z m-153 -44 c0 -24 -3 -25 -62 -28
-61 -3 -63 -2 -63 22 0 30 12 35 75 33 46 -2 50 -4 50 -27z m173 -62 l-3 -32
-63 -1 c-62 -1 -63 0 -60 25 3 21 10 26 43 31 84 13 87 12 83 -23z m-168 -13
c0 -25 -2 -26 -57 -23 -51 3 -58 6 -61 26 -3 21 0 22 57 22 59 0 61 -1 61 -25z"/>
</g>
<g id="part-1" class="char-part">
  <path d="M267 486 l6 -84 -39 -11 c-22 -6 -53 -11 -71 -11 -17 0 -35 -5 -39
-11 -4 -7 16 -10 65 -7 39 1 71 1 71 -2 0 -16 -65 -113 -104 -157 -66 -73 -21
-58 56 19 64 64 63 65 48 -52 -11 -83 -6 -130 15 -130 26 0 35 38 35 151 l0
113 30 -29 c22 -21 33 -26 41 -18 16 16 3 33 -38 49 -28 12 -34 19 -31 41 2
21 11 29 41 37 42 12 40 26 -4 26 -15 0 -30 3 -32 8 -3 4 -1 32 4 62 9 59 3
72 -37 84 -21 7 -22 5 -17 -78z"/>
</g>
<g id="part-2" class="char-part">
  <path d="M498 531 c-26 -27 -44 -51 -41 -55 6 -6 109 47 128 65 7 7 3 15 -9
25 -11 8 -22 14 -25 14 -3 0 -27 -22 -53 -49z"/>
</g>
<g id="part-3" class="char-part">
  <path d="M655 435 c-8 -19 -35 -59 -60 -89 -42 -52 -43 -55 -17 -45 71 27 157
169 102 169 -6 0 -18 -16 -25 -35z"/>
</g>
<g id="part-4" class="char-part">
  <path d="M640 263 c-58 -7 -135 -12 -173 -11 -37 2 -67 2 -67 0 0 -2 6 -15 14
-30 7 -15 17 -54 21 -87 8 -65 21 -91 39 -76 6 5 61 12 123 16 l112 8 12 -27
c7 -14 20 -26 30 -26 28 0 48 40 58 116 5 38 12 77 16 86 5 12 -2 21 -24 32
-16 9 -36 15 -43 15 -7 -1 -60 -8 -118 -16z m104 -19 c9 -3 16 -16 16 -29 0
-20 -6 -23 -62 -29 -34 -3 -63 -4 -65 -2 -11 11 11 55 30 59 36 7 64 7 81 1z
m-156 -46 c3 -28 2 -28 -52 -28 -31 0 -59 0 -63 0 -5 0 -9 10 -11 24 -4 28 15
35 83 32 36 -1 40 -4 43 -28z m170 -60 c-3 -31 -4 -31 -63 -33 -33 -1 -63 -1
-66 1 -4 2 -4 15 -2 28 4 21 12 26 47 29 93 8 88 10 84 -25z m-168 -12 c0 -21
-5 -24 -52 -29 -55 -5 -68 2 -68 36 0 14 9 17 60 17 56 0 60 -1 60 -24z"/>
</g>
</g>
</svg>