<?xml version="1.0" standalone="no"?>
<!DOCTYPE svg PUBLIC "-//W3C//DTD SVG 20010904//EN"
 "http://www.w3.org/TR/2001/REC-SVG-20010904/DTD/svg10.dtd">
<svg version="1.0" xmlns="http://www.w3.org/2000/svg"
 width="96.000000pt" height="68.000000pt" viewBox="0 0 96.000000 68.000000"
 preserveAspectRatio="xMidYMid meet">
<metadata>
Created by potrace 1.16, written by Peter Selinger 2001-2019
Combined from part_0.svg through part_5.svg with named groups
</metadata>
<g transform="translate(0.000000,68.000000) scale(0.100000,-0.100000)" fill="#000000" stroke="none">
<g id="part-0" class="char-part">
  <path d="M257 511 c7 -88 10 -83 -75 -96 -56 -9 -44 -25 20 -25 41 0 49 -3 44
-15 -12 -33 -87 -134 -117 -159 -17 -15 -29 -30 -25 -33 12 -12 77 30 118 77
l41 45 -6 -50 c-18 -148 -19 -190 -4 -210 13 -16 17 -17 31 -6 13 11 16 36 17
130 1 64 4 127 8 141 l7 25 12 -22 c15 -28 52 -31 52 -5 0 20 -24 45 -52 55
-33 12 -20 35 22 42 22 4 40 11 40 16 0 14 -40 30 -60 24 -19 -6 -19 -3 -13
56 5 53 4 64 -12 75 -11 8 -27 14 -37 14 -16 0 -17 -8 -11 -79z"/>
  <path d="M580 572 c0 -5 7 -17 15 -28 25 -33 18 -40 -42 -43 l-56 -2 18 27
c14 22 15 28 4 35 -30 19 -45 9 -57 -35 -6 -24 -25 -67 -41 -95 -31 -52 -29
-67 4 -31 27 30 36 14 29 -54 -5 -50 -3 -64 10 -75 13 -11 17 -11 22 2 4 11
33 16 132 21 70 4 140 10 156 13 28 5 29 6 11 19 -14 10 -36 12 -82 8 -53 -6
-63 -4 -63 9 0 11 14 18 48 22 26 4 53 9 61 11 27 9 0 17 -50 15 -43 -1 -50 1
-47 16 2 13 16 19 51 23 60 6 61 25 2 25 -24 0 -45 3 -45 8 0 4 0 11 0 16 0 5
17 12 38 15 57 11 72 16 72 28 0 7 -20 8 -57 4 -57 -6 -58 -6 -75 24 -15 27
-58 43 -58 22z m20 -111 c0 -35 -104 -45 -113 -12 -4 17 1 20 42 24 25 2 52 4
59 5 6 1 12 -6 12 -17z m2 -54 c15 -24 -5 -37 -58 -37 -47 0 -54 3 -54 19 0
19 7 22 90 27 8 1 18 -4 22 -9z m-4 -74 c-2 -14 -15 -19 -56 -21 -47 -3 -52
-1 -52 17 0 19 6 21 56 21 47 0 55 -3 52 -17z"/>
  <path d="M700 260 c-25 -4 -48 -6 -52 -3 -5 2 -8 -16 -8 -40 0 -42 -2 -45 -30
-49 -36 -5 -40 -2 -40 33 0 37 -23 49 -74 37 -22 -6 -54 -10 -69 -10 -25 1
-28 -2 -22 -21 3 -12 9 -52 12 -89 4 -48 10 -68 19 -68 11 0 14 19 14 80 0 76
1 80 23 80 12 0 33 3 46 7 23 6 24 5 18 -35 -8 -47 2 -58 35 -41 13 7 41 13
63 13 40 1 40 1 43 44 2 33 7 42 21 42 10 0 33 3 50 6 l32 7 -3 -84 -3 -84
-33 2 -34 1 28 -29 c15 -16 34 -29 41 -29 21 0 40 50 51 135 10 71 9 81 -5 93
-18 13 -53 14 -123 2z"/>
</g>
<g id="part-1" class="char-part">
  <path d="M254 568 c3 -13 9 -51 13 -84 l6 -62 -63 -7 c-70 -8 -69 -22 3 -27
l48 -3 -39 -60 c-22 -33 -56 -77 -76 -98 -20 -20 -36 -39 -36 -42 0 -15 61 29
103 74 26 28 49 51 50 51 4 0 -10 -147 -18 -195 -8 -51 13 -87 39 -66 13 11
16 37 16 159 l0 146 28 -34 c27 -32 52 -35 52 -6 0 16 -43 46 -65 46 -20 0
-16 30 5 41 8 4 28 11 45 14 26 6 28 8 11 17 -10 5 -29 8 -43 5 l-26 -5 7 68
c6 65 5 67 -20 78 -37 18 -47 15 -40 -10z"/>
</g>
<g id="part-2" class="char-part">
  <path d="M465 543 c-3 -20 -20 -63 -36 -96 -32 -63 -34 -80 -4 -47 30 33 35
24 30 -47 -6 -69 5 -107 24 -88 11 11 18 182 8 192 -3 3 5 23 19 44 13 21 24
43 24 49 0 8 -39 30 -55 30 -1 0 -6 -17 -10 -37z"/>
</g>
<g id="part-3" class="char-part">
  <path d="M603 403 c-9 -26 -23 -33 -65 -33 -20 0 -40 -4 -43 -10 -4 -6 15 -10
49 -10 41 0 56 -4 56 -14 0 -17 -22 -26 -65 -26 -19 0 -37 -5 -41 -11 -8 -13
271 -2 296 11 27 15 -30 28 -88 20 -53 -6 -74 2 -54 22 6 6 31 13 56 15 26 3
49 10 52 14 6 10 -11 12 -68 9 -29 -1 -38 2 -38 14 0 22 -39 20 -47 -1z"/>
</g>
<g id="part-4" class="char-part">
  <path d="M720 263 c-53 -10 -46 -26 8 -19 l52 7 0 -63 c0 -96 -7 -111 -43
-104 l-31 6 29 -30 c53 -55 72 -36 90 92 12 83 12 94 -3 106 -16 12 -52 14
-102 5z"/>
</g>
</g>
</svg>