<?xml version="1.0" standalone="no"?>
<!DOCTYPE svg PUBLIC "-//W3C//DTD SVG 20010904//EN"
 "http://www.w3.org/TR/2001/REC-SVG-20010904/DTD/svg10.dtd">
<svg version="1.0" xmlns="http://www.w3.org/2000/svg"
 width="96.000000pt" height="68.000000pt" viewBox="0 0 96.000000 68.000000"
 preserveAspectRatio="xMidYMid meet">
<metadata>
Created by potrace 1.16, written by Peter Selinger 2001-2019
Combined from part_0.svg through part_5.svg with named groups
</metadata>
<g transform="translate(0.000000,68.000000) scale(0.100000,-0.100000)" fill="#000000" stroke="none">
<g id="part-0" class="char-part">
  <path d="M520 555 c-30 -7 -93 -14 -140 -14 l-85 -1 0 -93 c0 -85 -3 -98 -34
-162 -21 -43 -57 -92 -92 -127 -61 -62 -64 -77 -10 -50 61 29 126 105 160 186
17 41 31 80 31 86 0 6 8 10 18 9 9 -1 37 1 62 4 25 4 79 9 120 11 41 2 77 5
79 5 2 1 0 8 -3 17 -3 8 5 35 19 58 32 55 32 62 -6 75 -37 13 -46 12 -119 -4z
m60 -45 c0 -10 -5 -30 -11 -44 -10 -22 -19 -25 -93 -31 -44 -3 -89 -9 -98 -11
-15 -5 -17 0 -12 28 9 47 21 56 94 66 107 15 120 15 120 -8z"/>
  <path d="M392 264 c-2 -92 0 -110 18 -139 31 -50 67 -60 207 -59 95 0 130 4
162 19 23 10 41 22 41 28 0 15 -34 107 -40 107 -3 0 -12 -19 -20 -42 -22 -63
-60 -80 -175 -76 -54 2 -102 9 -120 18 -28 15 -30 19 -30 75 -1 33 3 82 9 108
9 51 2 67 -34 67 -12 0 -16 -20 -18 -106z"/>
  <path d="M610 330 c0 -10 -51 -40 -125 -73 l-40 -18 40 5 c59 8 175 46 175 58
0 11 -29 37 -42 38 -5 0 -8 -4 -8 -10z"/>
</g>
<g id="part-1" class="char-part">
  <path d="M515 548 c-22 -5 -79 -10 -127 -11 l-87 -2 5 -50 c12 -104 -41 -235
-135 -333 -60 -63 -42 -68 31 -9 60 49 107 120 132 202 l18 55 47 0 c27 0 89
3 139 6 69 5 90 10 82 19 -7 8 0 27 21 60 29 46 30 50 13 62 -20 15 -80 15
-139 1z m70 -51 c-4 -18 -13 -38 -20 -46 -13 -13 -191 -38 -202 -28 -3 3 -2
24 2 46 l6 39 67 11 c82 13 134 18 145 13 5 -2 5 -18 2 -35z"/>
</g>
<g id="part-2" class="char-part">
  <path d="M395 251 c0 -112 1 -121 24 -145 36 -39 90 -49 217 -43 115 5 184 24
184 51 0 8 -10 36 -21 63 l-21 48 -15 -43 c-23 -66 -48 -77 -173 -77 -134 0
-160 13 -160 80 0 41 3 45 28 51 87 19 146 35 179 49 l38 16 -24 20 c-26 21
-41 24 -41 8 0 -11 -168 -94 -176 -87 -2 3 3 27 11 54 14 45 13 50 -2 62 -9 6
-24 12 -33 12 -14 0 -16 -17 -15 -119z"/>
</g>
</g>
</svg>