<?xml version="1.0" standalone="no"?>
<!DOCTYPE svg PUBLIC "-//W3C//DTD SVG 20010904//EN"
 "http://www.w3.org/TR/2001/REC-SVG-20010904/DTD/svg10.dtd">
<svg version="1.0" xmlns="http://www.w3.org/2000/svg"
 width="96.000000pt" height="68.000000pt" viewBox="0 0 96.000000 68.000000"
 preserveAspectRatio="xMidYMid meet">
<metadata>
Created by potrace 1.16, written by Peter Selinger 2001-2019
Combined from part_0.svg through part_5.svg with named groups
</metadata>
<g transform="translate(0.000000,68.000000) scale(0.100000,-0.100000)" fill="#000000" stroke="none">
<g id="part-0" class="char-part">
  <path d="M314 558 c-9 -45 -75 -141 -142 -210 -31 -32 -53 -58 -49 -58 15 0
72 33 102 58 l30 25 3 -79 c2 -43 -2 -103 -8 -132 -10 -45 -9 -57 4 -77 39
-59 54 -20 57 152 2 103 -1 145 -10 157 -10 12 -4 26 38 82 28 37 51 71 51 75
0 10 -41 39 -56 39 -7 0 -16 -15 -20 -32z"/>
  <path d="M620 564 c-52 -8 -111 -12 -131 -9 l-36 5 -6 -108 c-6 -119 -39 -243
-82 -305 -31 -47 -16 -48 25 -1 43 49 79 135 92 220 l11 72 101 6 c134 9 156
14 156 35 0 9 10 28 22 41 l22 23 -23 18 c-26 21 -23 21 -151 3z m100 -26 c-1
-50 -9 -55 -105 -66 -52 -7 -99 -12 -104 -12 -6 0 -11 15 -11 34 0 34 1 35 48
41 26 4 52 8 57 10 6 2 34 4 63 4 35 1 52 -3 52 -11z"/>
  <path d="M628 345 c4 -64 4 -65 -21 -65 -14 0 -33 -3 -42 -7 -15 -5 -16 -1
-11 24 5 21 2 34 -9 43 -19 16 -24 12 -29 -26 -3 -16 -8 -39 -11 -51 -10 -31
12 -37 58 -18 63 26 67 23 67 -49 0 -63 0 -64 -31 -70 -53 -10 -59 -8 -59 22
0 29 -16 52 -35 52 -7 0 -9 -14 -7 -34 2 -18 -1 -37 -7 -40 -16 -10 -13 -33 5
-40 9 -3 39 0 67 8 29 8 84 18 123 21 68 6 72 6 77 -15 9 -36 30 -17 43 40 11
48 10 56 -4 67 -30 22 -33 19 -36 -37 -1 -23 -6 -25 -48 -28 l-48 -3 0 65 c0
62 1 66 23 66 12 0 32 3 45 6 18 5 22 2 22 -15 0 -12 6 -21 14 -21 9 0 19 20
27 56 11 47 10 57 -2 65 -28 18 -39 10 -39 -31 l0 -40 -40 0 -40 0 0 60 c0 59
0 60 -28 60 l-28 0 4 -65z"/>
</g>
<g id="part-1" class="char-part">
  <path d="M316 549 c-7 -36 -81 -144 -142 -206 -23 -24 -39 -43 -37 -43 13 0
81 41 97 59 11 12 24 21 29 21 10 0 5 -149 -8 -245 -6 -45 18 -92 34 -67 12
19 21 316 10 320 -18 7 -8 29 38 91 49 66 51 92 6 99 -16 2 -22 -4 -27 -29z"/>
</g>
<g id="part-2" class="char-part">
  <path d="M620 564 c-52 -8 -113 -12 -135 -9 l-40 6 3 -61 c6 -108 -32 -269
-83 -351 -34 -53 -31 -59 10 -19 46 45 85 128 105 225 l17 80 94 8 c140 12
159 16 159 33 0 9 9 29 20 44 l20 29 -22 15 c-26 18 -21 18 -148 0z m95 -46
c-4 -18 -8 -34 -9 -35 -2 -3 -158 -23 -182 -23 -20 0 -24 5 -24 30 0 17 6 33
14 36 25 9 109 22 159 23 l49 1 -7 -32z"/>
</g>
<g id="part-3" class="char-part">
  <path d="M628 348 c5 -68 5 -68 -21 -68 -14 0 -33 -3 -42 -7 -15 -5 -16 -1
-10 27 5 23 3 35 -6 41 -21 13 -29 11 -29 -8 0 -9 -5 -32 -12 -50 -16 -44 -1
-61 39 -44 23 9 179 40 206 41 4 0 7 -9 7 -20 0 -11 6 -20 14 -20 9 0 19 20
27 56 11 47 10 57 -2 65 -27 17 -38 9 -41 -28 -3 -36 -5 -38 -40 -41 l-38 -3
0 59 c0 58 -1 60 -29 64 l-28 4 5 -68z"/>
</g>
<g id="part-4" class="char-part">
  <path d="M630 196 l0 -63 -41 -7 c-49 -8 -63 -1 -49 24 8 15 5 22 -12 34 -31
22 -39 20 -32 -8 3 -13 1 -33 -5 -44 -17 -32 -3 -55 28 -48 14 4 62 13 106 21
44 8 92 17 108 19 24 5 27 2 27 -20 0 -18 5 -25 17 -22 11 2 21 21 29 58 13
58 11 66 -21 72 -17 3 -19 -2 -17 -33 l3 -37 -50 -3 -51 -4 0 63 c0 55 -2 62
-20 62 -18 0 -20 -7 -20 -64z"/>
</g>
</g>
</svg>