<?xml version="1.0" standalone="no"?>
<!DOCTYPE svg PUBLIC "-//W3C//DTD SVG 20010904//EN"
 "http://www.w3.org/TR/2001/REC-SVG-20010904/DTD/svg10.dtd">
<svg version="1.0" xmlns="http://www.w3.org/2000/svg"
 width="96.000000pt" height="68.000000pt" viewBox="0 0 96.000000 68.000000"
 preserveAspectRatio="xMidYMid meet">
<metadata>
Created by potrace 1.16, written by Peter Selinger 2001-2019
Combined from part_0.svg through part_5.svg with named groups
</metadata>
<g transform="translate(0.000000,68.000000) scale(0.100000,-0.100000)" fill="#000000" stroke="none">
<g id="part-0" class="char-part">
  <path d="M227 510 l6 -80 -45 0 -45 0 -5 -77 c-3 -44 -1 -86 4 -97 10 -18 11
-18 24 5 7 13 13 52 14 85 0 53 3 62 20 67 11 3 23 0 26 -5 4 -6 4 -88 0 -183
-6 -151 -5 -173 9 -185 33 -27 40 3 45 198 l5 187 25 0 c24 0 25 -3 28 -61 2
-47 -1 -66 -14 -78 -13 -13 -14 -19 -4 -31 18 -22 39 -18 49 8 5 12 12 56 15
99 7 71 6 77 -13 83 -11 3 -36 3 -56 -1 -39 -7 -41 -3 -26 73 9 47 3 56 -41
67 l-26 6 5 -80z"/>
  <path d="M538 537 c-111 -14 -100 -32 15 -24 115 8 167 17 167 28 0 11 -80 9
-182 -4z"/>
  <path d="M600 449 c-19 -4 -61 -9 -93 -10 -32 -1 -56 -5 -55 -8 14 -27 38 -79
42 -95 4 -11 12 -16 22 -12 9 3 54 9 100 13 61 4 84 10 80 18 -2 7 4 27 15 45
16 25 17 35 8 46 -13 15 -64 17 -119 3z m58 -45 c-3 -29 -19 -38 -90 -48 -49
-7 -52 -6 -62 36 -5 24 -3 27 26 31 18 2 54 5 80 5 46 2 48 1 46 -24z"/>
  <path d="M715 296 c-5 -2 -76 -10 -157 -17 -82 -7 -148 -16 -148 -21 0 -4 4
-8 9 -8 12 0 28 -45 41 -114 11 -66 17 -77 29 -57 6 9 39 15 105 19 l95 5 12
-27 c26 -56 63 -18 85 85 8 40 20 79 26 87 8 10 7 17 -4 28 -14 14 -73 27 -93
20z m30 -56 c0 -24 -3 -25 -62 -28 l-62 -3 2 31 2 31 60 -3 c57 -3 60 -4 60
-28z m-175 -10 c0 -27 -3 -30 -35 -31 -19 -1 -41 -2 -47 -3 -18 -1 -23 45 -6
55 7 5 30 9 51 9 35 0 37 -2 37 -30z m170 -39 c0 -5 -3 -22 -6 -38 -6 -28 -8
-30 -60 -29 -52 1 -54 2 -54 28 0 29 8 33 75 41 17 2 33 5 38 6 4 0 7 -3 7 -8z
m-162 -44 c3 -26 1 -27 -41 -27 -37 0 -46 4 -50 22 -9 32 0 39 46 36 37 -3 42
-6 45 -31z"/>
</g>
<g id="part-1" class="char-part">
  <path d="M225 563 c13 -30 15 -220 5 -351 -11 -131 -7 -172 16 -172 26 0 33
45 27 181 -3 74 -1 181 5 239 12 112 10 120 -37 120 -18 0 -22 -4 -16 -17z"/>
</g>
<g id="part-2" class="char-part">
  <path d="M265 439 c-22 -4 -60 -8 -85 -8 l-45 -1 0 -89 c0 -49 3 -93 8 -97 16
-16 29 16 34 89 7 86 4 84 113 90 l45 2 3 -49 c5 -73 -4 -99 -30 -90 -20 6
-20 6 -2 -20 36 -49 74 -24 74 51 0 21 4 55 9 76 8 31 6 39 -9 47 -21 11 -58
11 -115 -1z"/>
</g>
<g id="part-3" class="char-part">
  <path d="M557 541 c-111 -16 -132 -31 -46 -31 50 0 201 19 208 26 2 2 2 6 0 8
-12 13 -66 12 -162 -3z"/>
</g>
<g id="part-4" class="char-part">
  <path d="M600 448 c-25 -5 -71 -9 -103 -10 l-58 -1 20 -21 c11 -11 24 -37 29
-56 6 -26 14 -34 28 -33 10 2 56 6 102 10 59 4 82 10 78 18 -2 7 5 27 16 46
19 31 19 33 2 46 -20 15 -49 15 -114 1z m60 -35 c0 -34 -18 -46 -77 -54 -64
-9 -68 -7 -78 33 -6 24 -4 27 27 31 18 2 54 5 81 5 39 2 47 -1 47 -15z"/>
</g>
<g id="part-5" class="char-part">
  <path d="M720 291 l-25 -8 25 -4 c17 -3 26 -11 28 -26 2 -13 8 -23 15 -23 8 0
8 -3 -1 -12 -15 -15 -16 -48 -2 -48 6 0 10 -5 10 -11 0 -6 -7 -9 -15 -5 -8 3
-15 1 -15 -4 0 -5 -7 -16 -16 -24 -11 -12 -20 -13 -34 -6 -24 13 -33 13 -25 0
9 -14 -18 -12 -38 3 -16 11 -19 48 -5 62 3 4 23 8 44 11 56 7 55 14 -2 11 -35
-1 -48 2 -46 11 1 6 -4 12 -10 12 -9 0 -8 4 2 10 12 8 13 11 1 19 -11 7 -11 9
0 14 8 3 -3 4 -23 3 -21 0 -38 -4 -38 -8 0 -5 5 -8 10 -8 6 0 10 -6 10 -14 0
-8 6 -16 13 -19 10 -4 10 -7 0 -18 -17 -17 -16 -24 3 -43 8 -9 11 -16 5 -16
-6 0 -8 -6 -5 -13 3 -8 -7 -17 -23 -22 -21 -8 -11 -10 48 -9 67 1 76 -1 94
-23 20 -24 21 -24 42 -6 20 17 50 119 39 131 -3 2 1 14 9 26 8 11 15 24 15 28
0 7 -55 39 -62 37 -2 -1 -14 -4 -28 -8z m45 -11 c3 -6 -1 -7 -9 -4 -18 7 -21
14 -7 14 6 0 13 -4 16 -10z"/>
  <path d="M435 253 c9 -20 22 -79 30 -136 3 -21 10 -35 16 -32 12 8 12 45 -1
45 -6 0 -10 10 -8 23 4 38 -13 105 -29 111 -11 5 -13 2 -8 -11z"/>
  <path d="M488 263 c7 -3 16 -2 19 1 4 3 -2 6 -13 5 -11 0 -14 -3 -6 -6z"/>
  <path d="M523 183 c9 -2 23 -2 30 0 6 3 -1 5 -18 5 -16 0 -22 -2 -12 -5z"/>
</g>
</g>
</svg>