<?xml version="1.0" standalone="no"?>
<!DOCTYPE svg PUBLIC "-//W3C//DTD SVG 20010904//EN"
 "http://www.w3.org/TR/2001/REC-SVG-20010904/DTD/svg10.dtd">
<svg version="1.0" xmlns="http://www.w3.org/2000/svg"
 width="96.000000pt" height="68.000000pt" viewBox="0 0 96.000000 68.000000"
 preserveAspectRatio="xMidYMid meet">
<metadata>
Created by potrace 1.16, written by Peter Selinger 2001-2019
Combined from part_0.svg through part_5.svg with named groups
</metadata>
<g transform="translate(0.000000,68.000000) scale(0.100000,-0.100000)" fill="#000000" stroke="none">
<g id="part-0" class="char-part">
  <path d="M510 616 c0 -8 12 -24 27 -35 14 -12 24 -23 21 -26 -2 -3 -34 -8 -69
-11 -35 -3 -75 -8 -89 -10 -22 -5 -23 -7 -7 -15 11 -7 62 -5 155 6 181 21 202
24 202 35 0 13 -75 13 -118 1 -30 -9 -32 -8 -32 14 0 17 -9 27 -40 39 -49 19
-50 20 -50 2z"/>
  <path d="M291 582 c-15 -54 -64 -127 -139 -204 -36 -37 -62 -68 -58 -68 18 0
84 41 110 69 17 17 34 31 39 31 7 0 7 -41 2 -112 -13 -182 -12 -209 7 -221 9
-6 20 -8 25 -4 14 15 26 319 14 354 -11 30 -9 35 35 93 45 59 46 62 29 81 -29
31 -53 24 -64 -19z"/>
  <path d="M595 489 c-27 -4 -74 -8 -103 -8 -46 -1 -51 -3 -43 -18 5 -10 15 -32
21 -50 11 -29 14 -31 43 -22 18 5 58 9 90 9 46 0 59 4 64 18 3 9 13 25 21 35
28 32 -14 49 -93 36z m38 -40 c-6 -21 -25 -28 -93 -31 -39 -3 -45 0 -48 19 -3
19 3 22 60 30 75 11 87 8 81 -18z"/>
  <path d="M638 365 c-2 -3 -63 -7 -133 -10 l-129 -4 -18 -33 c-19 -36 -23 -68
-9 -68 9 0 46 42 53 59 4 10 335 47 344 39 3 -4 0 -16 -6 -28 -6 -12 -10 -24
-7 -26 6 -7 117 18 117 27 0 4 -12 17 -26 28 -22 17 -41 21 -104 21 -42 0 -79
-2 -82 -5z"/>
  <path d="M575 284 c-38 -7 -87 -13 -107 -13 -21 -1 -38 -5 -38 -11 0 -6 26
-10 59 -10 66 0 71 -6 71 -87 0 -65 -7 -74 -49 -67 l-36 6 35 -30 c69 -61 93
-35 88 99 l-3 89 40 2 c57 2 60 2 63 13 5 17 -51 21 -123 9z"/>
</g>
<g id="part-1" class="char-part">
  <path d="M300 597 c0 -34 -65 -139 -127 -205 -37 -39 -63 -72 -58 -72 6 0 38
23 73 50 l62 51 0 -101 c0 -56 -5 -121 -11 -146 -17 -68 18 -140 40 -82 4 12
9 83 10 156 1 73 5 140 8 148 3 8 -2 23 -12 34 -16 18 -15 22 30 85 39 54 45
68 35 80 -15 19 -50 20 -50 2z"/>
</g>
<g id="part-2" class="char-part">
  <path d="M510 619 c0 -7 12 -25 26 -40 l26 -27 -64 -6 c-102 -11 -124 -17
-105 -27 10 -6 66 -4 149 6 197 22 218 26 212 37 -4 7 -36 8 -85 3 -66 -5 -78
-4 -73 8 6 16 -21 47 -41 47 -7 0 -20 3 -29 6 -10 4 -16 1 -16 -7z"/>
</g>
<g id="part-3" class="char-part">
  <path d="M595 489 c-22 -4 -66 -8 -98 -8 -51 -1 -56 -3 -48 -18 5 -10 15 -33
22 -51 9 -24 16 -31 28 -26 9 3 51 9 94 12 67 4 77 7 77 23 0 10 9 24 20 31
26 17 25 22 -5 36 -29 13 -33 13 -90 1z m38 -39 c-6 -22 -25 -29 -93 -32 -40
-3 -45 0 -48 19 -4 24 12 29 100 32 42 1 46 -1 41 -19z"/>
</g>
<g id="part-4" class="char-part">
  <path d="M557 183 c5 -87 -2 -98 -53 -84 l-39 11 40 -35 c73 -63 95 -42 95 89
0 84 -1 86 -24 86 -23 0 -23 -2 -19 -67z"/>
</g>
</g>
</svg>