<?xml version="1.0" standalone="no"?>
<!DOCTYPE svg PUBLIC "-//W3C//DTD SVG 20010904//EN"
 "http://www.w3.org/TR/2001/REC-SVG-20010904/DTD/svg10.dtd">
<svg version="1.0" xmlns="http://www.w3.org/2000/svg"
 width="96.000000pt" height="68.000000pt" viewBox="0 0 96.000000 68.000000"
 preserveAspectRatio="xMidYMid meet">
<metadata>
Created by potrace 1.16, written by Peter Selinger 2001-2019
Combined from part_0.svg through part_5.svg with named groups
</metadata>
<g transform="translate(0.000000,68.000000) scale(0.100000,-0.100000)" fill="#000000" stroke="none">
<g id="part-0" class="char-part">
  <path d="M390 612 c0 -10 5 -23 11 -29 17 -17 1 -87 -31 -131 -17 -23 -55 -54
-95 -77 -36 -20 -64 -39 -62 -42 6 -5 96 21 129 37 13 7 40 29 61 49 37 35 39
35 53 17 8 -11 14 -16 14 -12 0 4 20 -7 44 -24 48 -35 79 -36 84 -4 3 23 -15
35 -96 62 l-53 17 96 34 c52 18 95 39 95 46 0 13 -42 45 -59 45 -6 0 -31 -20
-55 -45 -45 -44 -69 -57 -62 -32 22 71 15 86 -46 101 -23 5 -28 3 -28 -12z"/>
  <path d="M240 546 c0 -20 64 -86 83 -86 20 0 29 27 17 50 -22 42 -100 69 -100
36z"/>
  <path d="M399 372 c-1 -4 0 -22 1 -40 1 -18 -6 -56 -16 -84 -20 -62 -94 -141
-166 -177 -27 -13 -48 -26 -48 -28 0 -10 87 10 121 28 40 20 95 78 109 115 5
13 15 24 23 24 7 0 37 -25 67 -56 93 -95 124 -114 189 -113 62 1 111 12 96 21
-6 3 -37 13 -69 23 -72 20 -162 64 -203 99 -17 14 -36 26 -42 26 -39 0 43 45
147 81 39 13 41 32 7 47 -14 7 -27 12 -29 12 -1 0 -22 -18 -45 -40 -39 -38
-99 -76 -106 -68 -4 3 6 49 20 93 5 16 0 23 -24 32 -17 6 -31 8 -32 5z"/>
  <path d="M217 296 c39 -66 82 -96 103 -71 23 27 -11 61 -77 75 -24 6 -31 5
-26 -4z"/>
</g>
<g id="part-1" class="char-part">
  <path d="M390 611 c0 -6 5 -13 10 -16 14 -9 12 -70 -4 -108 -17 -40 -67 -87
-126 -121 -55 -31 -40 -33 35 -5 31 11 74 38 95 58 l39 37 62 -43 c35 -24 68
-43 75 -43 15 0 24 23 15 38 -8 14 -90 51 -113 52 -42 0 -22 20 44 45 131 48
123 43 103 65 -27 29 -57 24 -96 -16 -18 -20 -42 -40 -53 -46 -17 -9 -18 -7
-12 45 7 51 6 55 -16 61 -34 9 -58 7 -58 -3z"/>
  <path d="M240 550 c0 -5 14 -25 31 -45 33 -38 69 -47 69 -17 0 27 -13 40 -53
57 -43 18 -47 18 -47 5z"/>
</g>
<g id="part-2" class="char-part">
  <path d="M398 340 c7 -49 -27 -137 -72 -186 -23 -24 -70 -60 -106 -79 -54 -28
-60 -35 -38 -35 45 0 134 39 168 73 18 18 41 49 52 71 l20 39 76 -75 c103
-101 116 -108 182 -107 61 1 110 12 95 21 -6 3 -37 13 -70 23 -32 9 -81 28
-108 41 -45 23 -147 92 -147 99 0 2 43 20 95 40 52 21 95 42 95 47 0 14 -31
37 -49 38 -7 0 -32 -18 -54 -41 -38 -38 -94 -75 -102 -67 -2 2 3 28 12 57 17
58 11 71 -33 71 -17 0 -20 -5 -16 -30z"/>
  <path d="M219 292 c17 -32 68 -82 84 -82 20 0 29 27 17 50 -5 9 -28 25 -50 34
-53 21 -63 21 -51 -2z"/>
</g>
</g>
</svg>