<?xml version="1.0" standalone="no"?>
<!DOCTYPE svg PUBLIC "-//W3C//DTD SVG 20010904//EN"
 "http://www.w3.org/TR/2001/REC-SVG-20010904/DTD/svg10.dtd">
<svg version="1.0" xmlns="http://www.w3.org/2000/svg"
 width="96.000000pt" height="68.000000pt" viewBox="0 0 96.000000 68.000000"
 preserveAspectRatio="xMidYMid meet">
<metadata>
Created by potrace 1.16, written by Peter Selinger 2001-2019
Combined from part_0.svg through part_5.svg with named groups
</metadata>
<g transform="translate(0.000000,68.000000) scale(0.100000,-0.100000)" fill="#000000" stroke="none">
<g id="part-0" class="char-part">
  <path d="M300 561 c0 -52 -43 -117 -142 -218 -34 -35 -57 -63 -51 -63 29 0 70
24 117 70 28 27 54 46 59 41 10 -10 127 9 127 21 0 5 -26 6 -61 2 l-62 -7 17
29 c42 71 40 70 94 35 51 -33 67 -37 77 -21 11 18 -19 49 -62 61 -28 7 -43 17
-43 28 0 25 -13 39 -43 46 -25 7 -27 5 -27 -24z"/>
  <path d="M603 542 c-129 -16 -162 -32 -68 -32 65 0 75 -12 50 -60 -13 -24 -22
-31 -38 -28 -22 4 -22 2 -22 -121 0 -125 0 -126 23 -124 37 4 26 -21 -37 -80
-33 -32 -55 -57 -49 -57 10 0 107 57 118 70 3 3 18 13 33 23 20 13 26 23 22
38 -6 17 -1 19 45 19 40 0 56 -5 68 -20 12 -14 21 -17 31 -11 11 7 15 39 16
141 l2 132 -26 10 c-18 6 -44 6 -80 -1 -30 -6 -63 -11 -75 -11 -18 0 -18 2 7
28 16 17 25 35 22 44 -5 12 10 16 86 21 92 7 108 11 96 23 -13 14 -105 12
-224 -4z m137 -152 c0 -28 -3 -30 -37 -30 -21 0 -62 -3 -91 -7 l-54 -6 4 29
c3 25 8 30 43 35 22 3 61 7 88 8 46 1 47 0 47 -29z m0 -70 c0 -26 -3 -30 -29
-30 -15 0 -56 -3 -90 -6 -61 -7 -61 -7 -61 20 0 24 3 26 43 27 23 0 60 4 82 8
22 5 43 9 48 10 4 0 7 -12 7 -29z m8 -74 c0 -22 -5 -23 -94 -32 l-94 -9 0 27
c0 26 2 27 63 31 34 2 76 4 93 5 27 2 32 -1 32 -22z"/>
  <path d="M345 344 c-27 -7 -66 -14 -85 -14 -30 -1 -32 -2 -16 -11 17 -11 53
-9 123 6 l32 7 -11 -38 c-13 -48 -18 -51 -95 -60 -54 -5 -61 -8 -52 -23 5 -9
15 -34 23 -56 7 -22 17 -40 22 -40 5 0 42 4 82 8 68 8 72 10 72 33 0 13 3 24
8 24 4 0 13 9 20 21 17 27 0 49 -39 49 -34 0 -37 10 -9 30 11 8 20 20 20 26 0
7 6 15 13 18 8 3 6 9 -7 20 -23 19 -35 19 -101 0z m70 -131 c-2 -10 -4 -28 -4
-39 -1 -18 -9 -23 -52 -28 -58 -8 -64 -4 -74 41 -6 31 -6 32 37 36 95 8 96 8
93 -10z"/>
  <path d="M706 152 c-2 -4 20 -34 49 -66 37 -42 57 -57 69 -53 23 9 20 40 -6
64 -28 25 -106 64 -112 55z"/>
</g>
<g id="part-1" class="char-part">
  <path d="M305 548 c-11 -50 -50 -110 -122 -187 -35 -39 -60 -71 -55 -71 33 0
198 163 214 211 3 8 19 1 48 -19 46 -34 80 -41 80 -17 0 16 -38 38 -83 49 -21
5 -27 11 -23 23 8 20 -11 43 -34 43 -13 0 -21 -10 -25 -32z"/>
</g>
<g id="part-2" class="char-part">
  <path d="M302 236 c-48 -7 -70 -14 -64 -21 5 -5 17 -34 27 -63 12 -37 20 -50
28 -44 7 6 46 13 87 17 41 5 70 10 63 12 -7 3 -2 20 14 50 21 37 23 47 12 54
-18 11 -74 9 -167 -5z m108 -40 c0 -41 -1 -41 -61 -50 -46 -7 -47 -6 -58 25
-16 46 -15 47 27 52 94 10 92 10 92 -27z"/>
</g>
<g id="part-3" class="char-part">
  <path d="M603 543 c-128 -16 -163 -33 -69 -33 30 0 57 -4 60 -9 3 -5 1 -23 -5
-40 -15 -44 -8 -47 29 -11 35 33 38 40 22 56 -8 8 19 13 86 17 96 7 114 11
101 23 -13 13 -105 12 -224 -3z"/>
</g>
<g id="part-4" class="char-part">
  <path d="M680 439 c-25 -5 -69 -11 -98 -13 l-54 -4 -1 -96 c-2 -85 0 -96 16
-96 9 0 17 7 17 15 0 11 12 15 48 15 26 1 66 5 90 9 34 7 45 5 49 -5 3 -8 14
-14 24 -14 17 0 19 8 19 59 0 33 4 71 9 85 17 43 -34 63 -119 45z m60 -49 c0
-28 -3 -30 -37 -30 -21 0 -62 -3 -90 -6 l-53 -7 0 31 c0 34 7 36 133 40 46 2
47 1 47 -28z m5 -72 c2 -24 -2 -26 -59 -31 -34 -3 -76 -9 -93 -13 -32 -6 -33
-5 -33 25 0 30 2 31 43 32 23 0 60 4 82 8 53 11 59 9 60 -21z"/>
</g>
<g id="part-5" class="char-part">
  <path d="M577 167 c-2 -7 -6 -16 -8 -22 -2 -5 -19 -24 -38 -42 -20 -18 -33
-34 -30 -37 3 -3 15 3 26 14 12 10 24 16 29 12 4 -4 4 1 1 11 -4 11 -3 16 3
12 12 -7 62 29 53 39 -3 3 2 6 12 6 26 0 11 12 -19 15 -14 2 -27 -2 -29 -8z"/>
  <path d="M725 130 c-7 -11 12 -23 25 -15 5 3 7 0 5 -8 -6 -15 41 -60 68 -65
28 -5 20 18 -19 53 -38 35 -70 49 -79 35z"/>
</g>
</g>
</svg>