<?xml version="1.0" standalone="no"?>
<!DOCTYPE svg PUBLIC "-//W3C//DTD SVG 20010904//EN"
 "http://www.w3.org/TR/2001/REC-SVG-20010904/DTD/svg10.dtd">
<svg version="1.0" xmlns="http://www.w3.org/2000/svg"
 width="96.000000pt" height="68.000000pt" viewBox="0 0 96.000000 68.000000"
 preserveAspectRatio="xMidYMid meet">
<metadata>
Created by potrace 1.16, written by Peter Selinger 2001-2019
Combined from part_0.svg through part_5.svg with named groups
</metadata>
<g transform="translate(0.000000,68.000000) scale(0.100000,-0.100000)" fill="#000000" stroke="none">
<g id="part-0" class="char-part">
  <path d="M285 525 c-22 -8 -66 -14 -98 -14 l-58 -1 20 -26 c11 -14 23 -46 27
-71 6 -44 7 -45 39 -39 40 8 45 -5 45 -112 0 -69 -1 -73 -26 -83 -39 -14 -41
-11 -43 71 -1 46 -3 50 -25 50 -23 0 -23 -2 -15 -37 5 -21 9 -52 9 -70 0 -27
-4 -32 -30 -38 -37 -8 -39 -22 -5 -35 26 -10 32 -8 180 54 17 7 46 20 65 29
31 16 32 17 8 12 -16 -3 -39 -8 -53 -11 -24 -6 -25 -4 -25 40 l0 46 39 0 c27
0 41 5 45 16 6 15 0 16 -39 11 l-45 -7 0 40 c0 38 1 40 33 40 29 0 32 3 34 30
1 17 10 44 19 60 32 54 -13 74 -101 45z m37 -65 c-2 -19 -5 -36 -6 -38 -2 -1
-26 -4 -54 -7 -46 -3 -52 -2 -52 15 0 10 -3 25 -6 33 -4 12 5 18 38 25 72 17
84 13 80 -28z"/>
  <path d="M520 511 c14 -11 28 -21 33 -21 4 0 7 -9 7 -20 0 -11 5 -20 12 -20 6
0 9 -3 5 -6 -3 -4 1 -23 9 -43 9 -20 26 -65 38 -101 27 -83 56 -130 81 -135
43 -9 135 -11 135 -4 0 5 -20 20 -44 34 -65 38 -105 88 -158 196 -52 105 -68
124 -113 134 l-30 7 25 -21z"/>
  <path d="M474 353 c-12 -60 -37 -113 -69 -155 -38 -48 -44 -64 -17 -49 35 20
70 57 104 111 45 71 52 97 28 110 -29 16 -39 12 -46 -17z"/>
</g>
<g id="part-1" class="char-part">
  <path d="M275 519 c-40 -11 -84 -17 -102 -14 l-31 6 19 -38 c10 -20 19 -46 19
-58 0 -37 12 -44 60 -35 25 5 61 9 81 10 34 0 37 2 43 39 3 21 13 44 21 51 22
19 18 39 -11 50 -14 6 -26 10 -27 9 -1 -1 -33 -10 -72 -20z m55 -48 c0 -42
-24 -61 -76 -61 -41 0 -45 2 -50 30 -4 16 -6 33 -6 37 1 9 51 20 100 22 29 1
32 -2 32 -28z"/>
</g>
<g id="part-2" class="char-part">
  <path d="M285 195 c-44 -13 -106 -28 -138 -35 -48 -10 -56 -14 -47 -25 24 -29
50 -25 162 21 62 25 120 50 128 55 28 16 -21 9 -105 -16z"/>
</g>
<g id="part-3" class="char-part">
  <path d="M528 503 c25 -22 41 -53 72 -141 71 -201 75 -206 185 -200 l60 3 -45
27 c-71 43 -105 85 -164 205 -47 95 -59 112 -87 122 -50 17 -56 13 -21 -16z"/>
  <path d="M467 335 c-8 -54 -28 -95 -74 -152 -38 -48 -36 -52 11 -23 35 21 81
80 116 149 21 43 21 45 4 58 -35 25 -51 16 -57 -32z"/>
</g>
</g>
</svg>