<?xml version="1.0" standalone="no"?>
<!DOCTYPE svg PUBLIC "-//W3C//DTD SVG 20010904//EN"
 "http://www.w3.org/TR/2001/REC-SVG-20010904/DTD/svg10.dtd">
<svg version="1.0" xmlns="http://www.w3.org/2000/svg"
 width="96.000000pt" height="68.000000pt" viewBox="0 0 96.000000 68.000000"
 preserveAspectRatio="xMidYMid meet">
<metadata>
Created by potrace 1.16, written by Peter Selinger 2001-2019
Combined from part_0.svg through part_5.svg with named groups
</metadata>
<g transform="translate(0.000000,68.000000) scale(0.100000,-0.100000)" fill="#000000" stroke="none">
<g id="part-0" class="char-part">
  <path d="M322 557 c-14 -54 -75 -149 -141 -218 -28 -29 -51 -55 -51 -57 0 -8
46 4 55 14 6 6 32 31 59 55 l49 44 -6 -105 c-4 -58 -11 -120 -17 -139 -10 -36
9 -101 30 -101 20 0 27 44 33 195 5 120 3 153 -8 165 -12 13 -8 24 33 84 l47
68 -24 19 c-35 28 -48 23 -59 -24z"/>
  <path d="M595 564 c-27 -7 -69 -14 -92 -14 -24 0 -43 -4 -43 -9 0 -18 34 -21
96 -6 36 8 77 15 90 15 l26 0 -33 -41 c-29 -37 -36 -41 -66 -36 -40 7 -41 4
-8 -29 14 -14 25 -29 25 -34 0 -9 -68 -14 -131 -10 -25 1 -25 0 -21 -57 2 -37
-3 -88 -16 -141 -16 -67 -17 -85 -6 -99 16 -23 22 -17 36 45 l13 52 57 0 58 0
0 -49 c0 -46 13 -72 27 -57 4 3 8 31 11 61 l4 55 47 1 c25 0 54 2 64 4 14 3
17 -5 17 -50 0 -55 -13 -72 -41 -54 -30 19 -29 8 2 -31 66 -82 86 -47 91 168
5 194 7 191 -99 172 -36 -6 -67 -10 -68 -8 -1 2 -5 13 -9 25 -7 23 14 43 93
83 l45 22 -25 19 c-28 22 -74 23 -144 3z m153 -206 l3 -38 -61 0 -62 0 7 31
c5 21 4 29 -3 25 -6 -3 -13 -2 -17 3 -6 10 47 19 100 17 27 -1 30 -4 33 -38z
m-174 6 c18 -47 2 -64 -60 -64 -39 0 -50 16 -40 55 6 22 12 25 50 25 31 0 46
-5 50 -16z m176 -93 c0 -29 -1 -29 -61 -33 -65 -3 -74 1 -64 31 6 19 26 25 98
29 24 2 27 -2 27 -27z m-170 -18 c0 -27 -2 -28 -55 -31 l-55 -3 0 31 c0 30 0
30 55 30 53 0 55 -1 55 -27z"/>
</g>
<g id="part-1" class="char-part">
  <path d="M323 547 c-15 -54 -71 -138 -141 -211 -82 -86 -34 -67 62 23 l48 46
-6 -120 c-3 -66 -9 -136 -12 -155 -6 -42 17 -83 36 -63 19 18 30 313 13 334
-18 22 -18 22 33 97 42 61 44 67 28 79 -32 24 -49 15 -61 -30z"/>
</g>
<g id="part-2" class="char-part">
  <path d="M630 573 c-25 -7 -75 -16 -112 -20 -38 -3 -68 -9 -68 -14 0 -18 44
-19 120 -3 44 10 83 15 86 11 3 -3 -6 -22 -21 -42 -33 -42 -27 -55 12 -27 15
10 48 29 72 42 36 18 41 24 30 35 -28 25 -72 32 -119 18z"/>
</g>
<g id="part-3" class="char-part">
  <path d="M559 446 c35 -37 71 -48 71 -22 0 17 -27 46 -43 46 -7 0 -23 3 -37 7
-24 5 -23 4 9 -31z"/>
</g>
<g id="part-4" class="char-part">
  <path d="M719 425 c-9 -8 -246 -34 -267 -28 -20 5 -21 3 -15 -46 4 -32 -1 -83
-12 -139 -17 -85 -16 -122 3 -122 17 0 34 76 39 177 5 84 9 103 22 108 18 5
199 24 239 25 22 0 22 -1 22 -145 0 -157 -4 -169 -51 -145 -18 10 -16 5 11
-29 38 -47 52 -50 74 -19 13 18 16 51 16 155 0 72 4 143 10 157 8 21 6 28 -13
41 -20 14 -68 21 -78 10z"/>
</g>
</g>
</svg>