<?xml version="1.0" standalone="no"?>
<!DOCTYPE svg PUBLIC "-//W3C//DTD SVG 20010904//EN"
 "http://www.w3.org/TR/2001/REC-SVG-20010904/DTD/svg10.dtd">
<svg version="1.0" xmlns="http://www.w3.org/2000/svg"
 width="96.000000pt" height="68.000000pt" viewBox="0 0 96.000000 68.000000"
 preserveAspectRatio="xMidYMid meet">
<metadata>
Created by potrace 1.16, written by Peter Selinger 2001-2019
Combined from part_0.svg through part_5.svg with named groups
</metadata>
<g transform="translate(0.000000,68.000000) scale(0.100000,-0.100000)" fill="#000000" stroke="none">
<g id="part-0" class="char-part">
  <path d="M523 598 l2 -43 -40 -3 c-81 -5 -94 -16 -25 -22 57 -4 65 -8 68 -26
2 -17 -4 -23 -29 -28 -17 -3 -42 -6 -55 -6 -13 0 -24 -4 -24 -10 0 -5 25 -10
55 -10 48 0 55 -3 55 -19 0 -28 -7 -30 -106 -37 -49 -3 -91 -8 -93 -10 -19
-19 66 -21 184 -6 50 7 138 12 197 12 112 0 142 11 84 30 -26 8 -55 8 -111 1
-110 -16 -115 -15 -115 13 0 21 6 25 48 30 26 4 61 10 77 13 l30 6 -25 8 c-14
4 -49 4 -77 2 -49 -5 -53 -4 -53 16 0 12 6 24 13 26 18 7 59 13 90 14 15 1 27
6 27 12 0 6 -22 9 -57 8 -57 -3 -58 -3 -61 26 -4 32 -17 45 -44 45 -13 0 -16
-8 -15 -42z"/>
  <path d="M227 568 c12 -61 8 -313 -6 -393 -13 -73 -2 -125 25 -125 26 0 33 38
40 212 l7 176 34 -21 c24 -14 37 -17 45 -9 18 18 0 43 -42 59 -43 17 -46 23
-29 73 11 30 10 34 -12 51 -13 10 -35 19 -47 19 -23 0 -23 -2 -15 -42z"/>
  <path d="M131 391 c-25 -59 -27 -89 -6 -97 22 -9 43 13 56 56 13 43 5 90 -15
90 -7 0 -23 -22 -35 -49z"/>
  <path d="M598 335 c-2 -3 -40 -7 -83 -9 l-78 -5 2 -65 c1 -35 -3 -92 -10 -126
-10 -53 -10 -64 3 -77 14 -13 17 -12 26 18 6 19 12 45 14 59 3 28 29 37 116
39 l53 1 -3 -42 c-3 -41 -4 -43 -35 -42 -32 2 -32 2 -15 -21 28 -37 49 -47 72
-33 22 14 23 21 21 150 -1 47 3 98 9 112 8 21 6 27 -10 36 -19 10 -73 14 -82
5z m42 -34 c0 -26 -4 -28 -88 -36 -69 -7 -72 -7 -72 14 0 23 16 29 90 34 25 2
51 4 58 5 6 1 12 -7 12 -17z m0 -78 c0 -22 -5 -28 -22 -28 -13 -1 -49 -4 -80
-8 l-58 -7 0 29 c0 28 2 30 48 34 116 9 112 10 112 -20z"/>
</g>
<g id="part-1" class="char-part">
  <path d="M226 603 c-2 -3 -1 -16 5 -30 12 -33 11 -250 -2 -374 -11 -99 -4
-149 19 -149 22 0 32 60 33 203 1 84 4 163 8 175 l6 24 19 -21 c11 -12 28 -21
38 -21 32 0 17 33 -25 54 -38 18 -39 19 -32 65 5 34 3 50 -7 58 -16 12 -55 23
-62 16z"/>
  <path d="M135 384 c-27 -56 -26 -82 1 -91 15 -5 46 55 47 93 2 62 -18 61 -48
-2z"/>
</g>
<g id="part-2" class="char-part">
  <path d="M523 611 c16 -44 4 -61 -45 -62 -77 -1 -90 -18 -15 -18 64 -1 67 -2
67 -25 0 -25 -28 -36 -92 -36 -17 0 -27 -4 -23 -10 3 -5 31 -10 61 -10 47 0
54 -2 54 -20 0 -13 7 -20 20 -20 15 0 20 7 20 24 0 22 5 25 58 31 31 4 64 9
72 12 26 10 -31 21 -81 15 -46 -4 -47 -4 -42 21 4 23 11 26 64 32 56 7 74 17
46 28 -7 2 -34 1 -60 -3 -48 -7 -48 -7 -45 19 3 36 -9 51 -42 51 -27 0 -28 -1
-17 -29z"/>
</g>
<g id="part-3" class="char-part">
  <path d="M729 426 c-2 -2 -65 -9 -139 -16 -299 -28 -279 -25 -245 -39 24 -10
44 -10 100 -1 39 7 135 14 215 17 167 5 188 9 145 29 -29 13 -67 18 -76 10z"/>
</g>
<g id="part-4" class="char-part">
  <path d="M550 328 c-30 -5 -69 -7 -85 -5 l-31 5 4 -65 c3 -35 -1 -91 -8 -122
-10 -47 -10 -63 1 -82 l12 -24 13 30 c7 17 13 44 14 61 0 30 3 32 46 38 26 3
64 6 86 6 l39 0 -3 -42 c-3 -43 -3 -43 -40 -41 l-37 2 40 -36 40 -36 22 22
c20 20 22 30 19 114 -1 51 2 108 8 127 17 58 -15 70 -140 48z m88 -35 c3 -18
-4 -21 -59 -27 -97 -10 -101 -9 -97 17 3 19 10 23 68 28 82 7 84 6 88 -18z m2
-73 c0 -29 -1 -30 -49 -30 -27 0 -63 -3 -80 -6 -29 -6 -31 -5 -31 24 0 30 2
31 48 35 117 9 112 10 112 -23z"/>
</g>
</g>
</svg>