<?xml version="1.0" standalone="no"?>
<!DOCTYPE svg PUBLIC "-//W3C//DTD SVG 20010904//EN"
 "http://www.w3.org/TR/2001/REC-SVG-20010904/DTD/svg10.dtd">
<svg version="1.0" xmlns="http://www.w3.org/2000/svg"
 width="96.000000pt" height="68.000000pt" viewBox="0 0 96.000000 68.000000"
 preserveAspectRatio="xMidYMid meet">
<metadata>
Created by potrace 1.16, written by Peter Selinger 2001-2019
Combined from part_0.svg through part_5.svg with named groups
</metadata>
<g transform="translate(0.000000,68.000000) scale(0.100000,-0.100000)" fill="#000000" stroke="none">
<g id="part-0" class="char-part">
  <path d="M508 491 l4 -118 -32 -12 c-18 -6 -35 -11 -36 -11 -2 0 -4 13 -4 30
0 19 -7 33 -19 40 -32 17 -36 12 -33 -38 4 -48 3 -49 -35 -64 l-38 -16 38 -1
c28 -1 37 -5 38 -18 1 -10 2 -34 3 -53 4 -69 15 -89 59 -112 38 -21 56 -23
182 -23 159 0 211 13 201 49 -2 12 -10 44 -17 71 l-12 50 -18 -40 c-10 -22
-18 -45 -18 -50 -3 -33 -150 -56 -253 -41 -70 11 -88 34 -88 114 l0 68 35 13
c19 7 38 10 42 8 5 -3 9 -31 11 -63 5 -95 21 -89 29 10 3 36 11 70 17 74 17
14 104 41 110 35 7 -8 -4 -63 -20 -95 -8 -15 -14 -35 -14 -45 0 -28 41 21 83
100 l37 68 -26 9 c-37 14 -47 13 -110 -15 -31 -14 -58 -25 -60 -25 -2 0 -4 47
-4 104 0 85 -3 105 -16 110 -39 15 -40 10 -36 -113z"/>
  <path d="M194 528 c4 -18 10 -63 13 -100 l6 -68 -29 0 c-41 0 -75 -11 -68 -21
3 -5 25 -9 50 -9 l44 0 0 -63 0 -63 -56 -15 c-30 -7 -56 -18 -56 -24 -1 -5 13
-18 30 -28 l31 -18 98 54 c63 35 99 61 101 73 2 11 0 15 -5 8 -4 -6 -27 -15
-50 -21 l-43 -11 0 59 c0 52 2 59 19 59 11 0 32 5 47 10 37 14 17 34 -32 32
l-37 -1 7 52 c3 28 9 62 12 74 6 23 -8 35 -60 47 -28 7 -29 6 -22 -26z"/>
</g>
<g id="part-1" class="char-part">
  <path d="M195 534 c5 -10 10 -54 13 -96 l4 -76 -46 -7 c-54 -8 -52 -25 3 -25
43 0 51 -12 51 -87 l0 -42 -55 -12 c-60 -13 -76 -26 -54 -40 37 -24 58 -20
155 36 91 52 93 57 19 39 -25 -6 -25 -5 -25 54 l0 60 36 9 c43 10 41 28 -3 27
-33 -1 -33 -1 -33 47 0 26 4 59 9 73 12 29 -1 43 -49 53 -30 6 -33 4 -25 -13z"/>
</g>
<g id="part-2" class="char-part">
  <path d="M390 381 c0 -46 -1 -49 -37 -64 l-38 -15 38 -1 37 -1 0 -55 c0 -115
45 -147 216 -153 117 -4 215 10 234 33 9 10 8 19 -1 37 -7 12 -18 43 -24 68
l-12 45 -12 -42 c-6 -24 -22 -55 -35 -70 -22 -26 -29 -27 -124 -31 -167 -7
-202 14 -202 118 0 64 1 68 25 74 14 4 25 13 25 22 0 11 -6 13 -21 9 -18 -6
-20 -3 -17 24 2 20 -3 35 -12 41 -31 20 -40 11 -40 -39z"/>
</g>
<g id="part-3" class="char-part">
  <path d="M508 494 c4 -101 2 -118 -12 -126 -20 -11 -21 -28 -2 -28 17 0 26
-31 26 -87 0 -24 4 -43 9 -43 13 0 21 37 21 97 l0 51 61 21 c75 25 79 18 45
-72 -14 -37 -21 -67 -16 -67 12 0 69 76 82 110 5 14 16 33 25 42 40 44 -39 59
-126 24 l-63 -25 3 97 c1 54 -1 103 -5 110 -4 7 -17 12 -30 12 -22 0 -22 -1
-18 -116z"/>
</g>
</g>
</svg>