<?xml version="1.0" standalone="no"?>
<!DOCTYPE svg PUBLIC "-//W3C//DTD SVG 20010904//EN"
 "http://www.w3.org/TR/2001/REC-SVG-20010904/DTD/svg10.dtd">
<svg version="1.0" xmlns="http://www.w3.org/2000/svg"
 width="96.000000pt" height="68.000000pt" viewBox="0 0 96.000000 68.000000"
 preserveAspectRatio="xMidYMid meet">
<metadata>
Created by potrace 1.16, written by Peter Selinger 2001-2019
Combined from part_0.svg through part_5.svg with named groups
</metadata>
<g transform="translate(0.000000,68.000000) scale(0.100000,-0.100000)" fill="#000000" stroke="none">
<g id="part-0" class="char-part">
  <path d="M338 625 c-3 -4 2 -21 12 -38 10 -18 21 -48 24 -68 l6 -36 -73 -7
c-41 -4 -81 -4 -90 0 -21 8 -22 -9 -2 -26 8 -7 19 -29 24 -49 5 -20 15 -55 21
-78 6 -26 17 -43 25 -43 8 0 15 3 15 8 0 4 30 8 68 10 l67 3 27 -55 c21 -42
24 -57 15 -65 -12 -9 -122 -55 -192 -79 -29 -10 -29 -10 -5 -11 29 -1 136 28
195 53 38 16 41 16 55 -1 47 -56 145 -113 196 -113 24 0 26 3 19 28 -3 15 -9
44 -12 65 -6 44 -23 50 -23 8 0 -17 -4 -32 -10 -36 -14 -8 -70 19 -110 54 -34
30 -35 31 -15 46 108 80 126 105 89 119 -26 10 -31 7 -44 -24 -10 -25 -68 -80
-84 -80 -9 0 -56 74 -56 89 0 10 12 12 51 9 58 -6 70 5 93 88 8 27 17 59 21
71 6 17 1 25 -26 39 -30 15 -41 15 -99 4 -36 -7 -71 -15 -77 -18 -10 -3 -13
12 -13 56 0 34 -3 63 -8 66 -15 9 -77 17 -84 11z m237 -188 c-13 -96 -12 -95
-63 -99 -26 -3 -48 -4 -49 -4 -1 1 -4 13 -8 28 -7 26 -5 27 49 33 77 10 72 28
-6 24 -62 -4 -63 -3 -66 23 -3 25 -1 27 55 33 32 4 63 8 68 9 20 6 26 -7 20
-47z m-179 -2 c4 -14 4 -28 1 -31 -3 -3 -29 -8 -59 -11 -51 -5 -54 -4 -66 21
-16 36 -17 34 21 39 85 10 96 8 103 -18z m22 -87 c3 -28 3 -28 -57 -28 -34 0
-61 4 -61 9 0 5 -3 16 -6 24 -6 17 25 25 86 23 30 -1 35 -5 38 -28z"/>
</g>
<g id="part-1" class="char-part">
  <path d="M347 623 c-3 -2 3 -23 14 -46 10 -23 19 -52 19 -64 0 -17 6 -23 23
-23 23 0 23 3 19 58 -2 31 -6 58 -7 60 -6 7 -64 20 -68 15z"/>
</g>
<g id="part-2" class="char-part">
  <path d="M460 499 c-47 -11 -127 -20 -177 -21 -86 -3 -113 -11 -79 -24 15 -6
46 -73 46 -100 0 -8 6 -30 14 -49 14 -33 15 -34 43 -20 17 8 74 15 150 18 66
3 126 7 131 11 8 5 62 155 62 171 0 10 -61 35 -82 34 -13 -1 -61 -10 -108 -20z
m115 -63 c-14 -97 -12 -93 -63 -99 -26 -3 -48 -4 -49 -4 -1 1 -4 14 -8 29 -7
26 -5 27 49 33 31 4 56 11 56 15 0 13 -40 17 -79 8 -42 -8 -51 -4 -51 27 0 21
6 24 63 32 84 12 90 9 82 -41z m-179 -1 c4 -14 5 -28 3 -30 -2 -1 -29 -6 -60
-10 -56 -7 -56 -7 -67 23 -10 30 -10 31 26 35 88 9 91 8 98 -18z m18 -71 c15
-38 8 -44 -54 -44 -33 0 -60 4 -60 9 0 5 -3 16 -6 24 -4 12 3 17 28 20 70 8
86 7 92 -9z"/>
</g>
<g id="part-3" class="char-part">
  <path d="M631 308 c-8 -20 -83 -98 -95 -98 -2 0 -17 20 -33 45 -16 25 -36 45
-45 45 -23 0 -23 0 7 -62 14 -28 24 -53 22 -54 -7 -7 -179 -74 -216 -84 -23
-6 -41 -13 -40 -15 9 -7 130 18 204 43 l80 27 40 -37 c65 -62 173 -107 197
-82 4 3 0 21 -8 39 -8 19 -14 46 -14 60 0 14 -4 25 -10 25 -5 0 -10 -10 -10
-22 0 -43 -14 -52 -51 -33 -42 21 -99 64 -99 73 0 4 27 27 60 51 63 46 75 72
40 91 -17 9 -22 7 -29 -12z"/>
</g>
</g>
</svg>