<?xml version="1.0" standalone="no"?>
<!DOCTYPE svg PUBLIC "-//W3C//DTD SVG 20010904//EN"
 "http://www.w3.org/TR/2001/REC-SVG-20010904/DTD/svg10.dtd">
<svg version="1.0" xmlns="http://www.w3.org/2000/svg"
 width="96.000000pt" height="68.000000pt" viewBox="0 0 96.000000 68.000000"
 preserveAspectRatio="xMidYMid meet">
<metadata>
Created by potrace 1.16, written by Peter Selinger 2001-2019
Combined from part_0.svg through part_5.svg with named groups
</metadata>
<g transform="translate(0.000000,68.000000) scale(0.100000,-0.100000)" fill="#000000" stroke="none">
<g id="part-0" class="char-part">
  <path d="M582 548 c-13 -57 -56 -152 -80 -181 -30 -34 -1 -30 36 5 29 28 48
38 87 43 28 3 62 8 76 11 46 9 59 -16 59 -115 0 -110 -6 -141 -34 -176 -20
-25 -24 -26 -61 -16 -21 6 -40 9 -42 8 -3 -4 76 -87 83 -87 3 0 19 9 35 21 51
36 62 70 69 229 4 80 7 145 6 145 -52 24 -58 24 -136 8 -44 -9 -83 -13 -87
-10 -3 4 9 36 28 73 33 64 33 66 15 80 -32 23 -41 17 -54 -38z"/>
  <path d="M278 479 c-3 -55 -10 -105 -16 -111 -5 -5 -40 -13 -76 -15 -36 -3
-66 -10 -66 -14 0 -5 11 -16 26 -25 21 -14 31 -15 62 -6 42 13 47 11 33 -16
-18 -34 -13 -46 29 -70 22 -13 38 -27 35 -32 -3 -5 -37 -28 -75 -51 -39 -23
-70 -44 -70 -46 0 -14 82 13 133 43 l57 35 42 -35 c50 -43 78 -47 78 -12 0 24
-53 76 -77 76 -6 0 5 37 23 83 25 62 39 83 55 87 27 7 38 30 14 30 -9 0 -29
10 -45 21 -34 26 -60 19 -60 -14 0 -19 -7 -26 -32 -31 -17 -3 -33 -4 -35 -2
-2 2 8 40 22 86 25 78 26 83 9 101 -9 10 -27 19 -39 19 -21 0 -23 -5 -27 -101z
m102 -146 c0 -21 -36 -103 -45 -103 -3 0 -20 7 -36 16 -22 11 -29 20 -24 32 4
9 10 25 12 35 3 9 19 21 37 26 47 14 56 13 56 -6z"/>
  <path d="M551 293 c7 -10 24 -29 37 -42 22 -22 25 -22 40 -7 16 16 15 19 -11
42 -15 13 -40 24 -54 24 -23 0 -24 -2 -12 -17z"/>
</g>
<g id="part-1" class="char-part">
  <path d="M286 536 c4 -25 1 -74 -6 -109 -14 -74 -18 -77 -109 -77 l-54 0 19
-21 c16 -18 27 -20 67 -16 41 5 47 4 47 -13 0 -10 -4 -22 -10 -25 -18 -11 -10
-24 30 -46 22 -13 40 -26 40 -29 0 -13 -47 -50 -100 -79 -30 -17 -49 -31 -43
-31 25 0 115 39 148 64 l34 26 46 -40 c50 -43 68 -46 73 -13 3 17 -27 44 -86
79 -2 1 5 19 16 41 11 21 25 57 32 80 11 35 18 43 44 49 17 4 25 9 19 11 -7 3
-14 3 -15 1 -2 -2 -14 7 -28 20 -13 12 -34 22 -48 22 -19 0 -22 -4 -17 -21 9
-26 -8 -39 -51 -39 l-32 0 23 73 c13 39 26 80 30 89 5 12 -2 21 -24 32 -46 24
-51 21 -45 -28z m99 -208 c-4 -18 -16 -50 -26 -70 l-19 -38 -35 17 c-38 18
-40 25 -24 71 9 25 18 32 57 40 26 5 48 10 50 11 2 0 0 -14 -3 -31z"/>
</g>
<g id="part-2" class="char-part">
  <path d="M582 548 c-7 -28 -30 -87 -52 -131 -22 -44 -39 -82 -37 -84 2 -2 21
15 41 37 30 34 44 41 84 46 26 2 62 7 79 9 53 6 63 -13 63 -118 0 -105 -11
-156 -40 -182 -17 -16 -25 -17 -57 -7 -20 6 -38 10 -39 9 -1 -1 15 -22 36 -47
39 -45 39 -45 67 -29 65 39 78 81 86 282 l4 98 -29 15 c-26 13 -37 13 -108 -2
-44 -10 -82 -15 -85 -12 -3 3 9 35 26 71 27 55 31 68 20 81 -26 32 -47 19 -59
-36z"/>
</g>
<g id="part-3" class="char-part">
  <path d="M550 291 c10 -21 57 -61 70 -61 4 0 11 8 15 17 8 23 -37 63 -71 63
-21 0 -23 -3 -14 -19z"/>
</g>
</g>
</svg>