<?xml version="1.0" standalone="no"?>
<!DOCTYPE svg PUBLIC "-//W3C//DTD SVG 20010904//EN"
 "http://www.w3.org/TR/2001/REC-SVG-20010904/DTD/svg10.dtd">
<svg version="1.0" xmlns="http://www.w3.org/2000/svg"
 width="96.000000pt" height="68.000000pt" viewBox="0 0 96.000000 68.000000"
 preserveAspectRatio="xMidYMid meet">
<metadata>
Created by potrace 1.16, written by Peter Selinger 2001-2019
Combined from part_0.svg through part_5.svg with named groups
</metadata>
<g transform="translate(0.000000,68.000000) scale(0.100000,-0.100000)" fill="#000000" stroke="none">
<g id="part-0" class="char-part">
  <path d="M548 593 c-2 -29 -8 -39 -23 -41 -57 -8 -69 -13 -54 -23 7 -5 24 -9
37 -9 21 0 23 -3 17 -32 l-6 -33 25 28 c31 34 65 47 121 47 46 0 67 16 44 32
-8 5 -36 7 -62 5 -34 -3 -45 -1 -38 6 16 16 13 44 -5 51 -39 15 -53 7 -56 -31z"/>
  <path d="M290 600 c0 -6 7 -21 15 -34 15 -23 15 -23 -22 -30 -21 -3 -50 -6
-65 -6 -33 0 -36 -15 -7 -31 21 -11 65 -8 101 6 13 5 20 0 28 -20 12 -33 36
-27 32 7 -2 22 3 27 33 32 46 9 45 24 -2 28 -30 2 -39 8 -41 24 -4 27 -72 49
-72 24z"/>
  <path d="M435 467 c10 -15 12 -28 6 -31 -5 -4 -67 -9 -138 -12 -145 -6 -165
-10 -143 -24 20 -13 92 -12 144 1 24 6 54 9 67 7 l24 -3 -24 -22 c-13 -12 -39
-29 -57 -38 -19 -9 -34 -20 -34 -25 0 -19 21 -20 75 -4 70 20 81 13 25 -16
-77 -40 -35 -30 76 17 60 26 110 48 112 48 1 1 0 10 -4 19 -6 16 -44 23 -44 8
0 -16 -57 -40 -112 -46 -32 -4 -58 -5 -58 -2 0 3 18 15 40 26 22 11 40 27 40
35 0 13 27 15 175 15 113 0 175 4 175 10 0 24 -53 30 -158 20 -140 -13 -136
-13 -147 13 -6 12 -20 23 -33 25 -23 3 -23 3 -7 -21z"/>
  <path d="M537 301 c4 -16 -3 -19 -51 -26 -31 -3 -89 -8 -128 -11 -39 -2 -76
-8 -81 -13 -17 -17 4 -33 37 -28 17 3 82 15 144 27 101 18 115 19 128 5 21
-21 44 -19 44 4 0 11 -14 28 -34 40 -42 27 -66 27 -59 2z"/>
  <path d="M465 203 c-66 -8 -144 -12 -173 -9 l-53 5 20 -32 c10 -18 22 -52 26
-77 10 -61 19 -70 58 -60 18 4 76 10 130 13 89 5 98 4 107 -14 6 -10 17 -19
24 -19 24 0 38 29 51 103 12 69 12 73 -9 89 -24 20 -23 20 -181 1z m143 -40
c3 -21 0 -23 -46 -23 -28 0 -57 -3 -66 -6 -12 -5 -16 0 -16 18 0 35 8 39 70
36 48 -3 55 -6 58 -25z m-170 -9 c2 -17 -4 -23 -29 -28 -47 -9 -99 -7 -100 4
-5 31 -1 35 36 41 67 11 90 6 93 -17z m172 -58 c0 -23 -4 -25 -70 -28 -66 -3
-70 -2 -70 19 0 23 16 28 103 31 33 2 37 -1 37 -22z m-172 -8 c-3 -20 -10 -23
-60 -26 -51 -3 -58 -1 -58 16 0 28 8 32 67 32 51 0 54 -2 51 -22z"/>
</g>
<g id="part-1" class="char-part">
  <path d="M555 590 c-6 -37 -10 -40 -46 -46 -44 -7 -43 -24 1 -24 28 0 29 -2
20 -27 l-10 -28 30 33 c25 27 37 32 77 33 27 1 59 4 73 9 l25 7 -27 11 c-15 6
-43 8 -62 5 -39 -6 -42 -3 -26 28 9 16 7 21 -15 29 -15 6 -28 10 -30 10 -2 0
-6 -18 -10 -40z"/>
  <path d="M300 598 c0 -5 5 -19 11 -30 15 -28 -2 -38 -70 -38 -48 0 -52 -2 -40
-16 11 -13 25 -15 76 -10 51 5 63 4 63 -7 0 -8 6 -20 14 -26 12 -10 15 -7 18
21 2 24 9 34 23 36 37 7 42 24 6 20 -30 -3 -36 0 -41 21 -6 24 -60 51 -60 29z"/>
</g>
<g id="part-2" class="char-part">
  <path d="M420 484 c0 -4 7 -16 17 -26 9 -10 14 -20 12 -23 -3 -2 -69 -8 -147
-11 -139 -7 -180 -17 -127 -30 26 -6 45 -5 205 16 41 5 148 9 238 10 161 0
195 8 135 31 -19 7 -60 7 -132 0 -137 -14 -135 -15 -146 12 -9 20 -55 38 -55
21z"/>
</g>
<g id="part-3" class="char-part">
  <path d="M374 389 c-10 -12 -36 -30 -56 -40 -37 -19 -46 -33 -29 -43 10 -6
147 26 158 38 4 4 -16 4 -45 0 -28 -3 -52 -4 -52 0 0 3 18 15 40 26 22 11 40
25 40 30 0 18 -36 10 -56 -11z"/>
</g>
<g id="part-4" class="char-part">
  <path d="M465 203 c-60 -7 -136 -12 -167 -9 -32 2 -58 2 -58 0 0 -3 9 -17 19
-32 11 -15 22 -47 25 -72 9 -64 15 -71 56 -61 19 5 79 12 132 15 90 6 98 5
108 -14 6 -11 17 -20 24 -20 24 0 38 29 51 103 12 69 12 73 -9 89 -24 20 -34
20 -181 1z m143 -39 c3 -20 -2 -22 -65 -26 -37 -3 -69 -5 -70 -4 -1 1 1 14 4
29 5 27 7 28 67 25 54 -3 61 -6 64 -24z m-170 -10 c2 -17 -4 -23 -29 -28 -56
-11 -96 -7 -103 10 -8 21 -8 36 2 31 4 -3 25 -1 47 3 59 12 80 8 83 -16z m172
-59 c0 -24 -2 -25 -70 -25 -63 0 -70 2 -70 19 0 20 19 26 103 29 33 2 37 0 37
-23z m-170 -10 c0 -23 -3 -25 -50 -25 -27 0 -53 0 -57 0 -5 0 -9 11 -11 25 -3
24 -2 25 57 25 58 0 61 -1 61 -25z"/>
</g>
</g>
</svg>