<?xml version="1.0" standalone="no"?>
<!DOCTYPE svg PUBLIC "-//W3C//DTD SVG 20010904//EN"
 "http://www.w3.org/TR/2001/REC-SVG-20010904/DTD/svg10.dtd">
<svg version="1.0" xmlns="http://www.w3.org/2000/svg"
 width="96.000000pt" height="68.000000pt" viewBox="0 0 96.000000 68.000000"
 preserveAspectRatio="xMidYMid meet">
<metadata>
Created by potrace 1.16, written by Peter Selinger 2001-2019
Combined from part_0.svg through part_5.svg with named groups
</metadata>
<g transform="translate(0.000000,68.000000) scale(0.100000,-0.100000)" fill="#000000" stroke="none">
<g id="part-0" class="char-part">
  <path d="M534 553 c-13 -55 -101 -197 -134 -218 -5 -3 -10 -11 -10 -16 0 -6
17 3 37 20 21 17 42 31 47 31 10 0 0 -183 -14 -244 -9 -42 4 -86 26 -86 8 0
16 17 20 40 6 38 8 40 43 40 122 1 291 18 291 30 0 13 -74 22 -124 15 l-46 -7
0 36 c0 33 2 36 29 36 16 0 43 3 61 6 44 9 18 24 -42 24 -44 0 -48 2 -48 24 0
28 16 36 71 36 21 0 39 5 39 10 0 10 -9 11 -75 14 -25 1 -31 6 -33 27 -3 25 1
27 57 38 34 7 61 16 61 22 0 5 -25 9 -55 9 -47 0 -55 3 -55 19 0 11 -12 23
-30 31 -39 16 -47 8 -26 -24 9 -14 16 -30 16 -35 0 -9 -107 -21 -122 -14 -4 2
10 30 32 62 43 63 49 85 24 95 -27 10 -33 7 -40 -21z m96 -188 c0 -28 -6 -31
-66 -39 -41 -5 -42 -5 -46 29 l-4 35 58 0 c55 0 58 -1 58 -25z m-2 -87 c3 -22
-1 -28 -15 -28 -10 0 -35 -3 -55 -6 -37 -6 -38 -6 -38 24 0 33 16 41 75 38 25
-1 31 -6 33 -28z m0 -90 c-3 -33 -4 -33 -60 -36 l-58 -3 0 36 0 35 61 0 60 0
-3 -32z"/>
  <path d="M237 525 c-93 -14 -111 -20 -83 -31 20 -8 20 -29 1 -85 -9 -23 -12
-46 -7 -51 5 -5 32 -4 60 3 76 16 85 12 64 -31 -17 -36 -123 -149 -157 -168
-36 -19 -11 -21 30 -2 42 20 110 78 138 119 9 14 19 22 23 18 3 -3 3 -47 -1
-98 l-7 -91 -40 6 -40 7 33 -28 c19 -15 36 -31 37 -35 6 -12 22 -9 37 6 11 10
15 51 17 163 l3 148 33 -2 c44 -3 37 21 -7 25 -31 3 -32 4 -30 52 2 48 3 48
42 53 44 6 52 11 42 26 -8 14 -75 12 -188 -4z m57 -51 c3 -9 6 -30 6 -48 0
-32 -2 -34 -46 -40 -25 -3 -50 -4 -54 -1 -9 6 1 50 19 84 14 25 66 29 75 5z"/>
</g>
<g id="part-1" class="char-part">
  <path d="M339 536 c-3 -3 -46 -10 -97 -17 -100 -13 -114 -29 -24 -29 61 0 192
17 201 26 9 9 -22 24 -50 24 -14 0 -28 -2 -30 -4z"/>
</g>
<g id="part-2" class="char-part">
  <path d="M286 355 c-12 -33 -89 -123 -140 -165 -31 -25 -51 -47 -46 -48 19 -7
100 49 153 104 41 41 53 62 55 89 3 35 -11 48 -22 20z"/>
</g>
<g id="part-3" class="char-part">
  <path d="M537 573 c-4 -3 -7 -16 -7 -28 0 -26 -56 -121 -111 -186 -46 -55 -38
-65 15 -19 23 21 37 27 41 19 9 -14 -3 -180 -16 -231 -8 -30 -6 -45 7 -70 15
-28 18 -30 29 -15 14 19 30 286 20 339 -5 28 1 44 39 100 40 61 43 70 30 83
-16 16 -36 19 -47 8z"/>
</g>
<g id="part-4" class="char-part">
  <path d="M630 281 c0 -24 -5 -29 -31 -35 -17 -3 -42 -6 -55 -6 -13 0 -24 -4
-24 -10 0 -5 25 -10 55 -10 l55 0 0 -35 0 -35 -60 0 c-48 0 -60 -3 -60 -16 0
-13 17 -14 148 -8 81 4 158 10 172 14 l25 7 -30 12 c-19 8 -52 10 -92 5 l-63
-6 0 36 c0 34 2 36 33 36 44 0 78 10 71 21 -3 5 -27 9 -55 9 -46 0 -49 2 -49
25 0 18 -5 25 -20 25 -15 0 -20 -7 -20 -29z"/>
</g>
</g>
</svg>