<?xml version="1.0" standalone="no"?>
<!DOCTYPE svg PUBLIC "-//W3C//DTD SVG 20010904//EN"
 "http://www.w3.org/TR/2001/REC-SVG-20010904/DTD/svg10.dtd">
<svg version="1.0" xmlns="http://www.w3.org/2000/svg"
 width="96.000000pt" height="68.000000pt" viewBox="0 0 96.000000 68.000000"
 preserveAspectRatio="xMidYMid meet">
<metadata>
Created by potrace 1.16, written by Peter Selinger 2001-2019
Combined from part_0.svg through part_5.svg with named groups
</metadata>
<g transform="translate(0.000000,68.000000) scale(0.100000,-0.100000)" fill="#000000" stroke="none">
<g id="part-0" class="char-part">
  <path d="M585 566 l-60 -11 7 -50 c5 -27 6 -62 4 -76 -5 -29 12 -53 28 -40 6
5 37 11 69 13 l57 4 -2 -155 -3 -156 -28 -5 -28 -5 29 -28 c30 -29 54 -29 68
1 11 25 21 495 10 510 -10 14 -68 14 -151 -2z m105 -36 c0 -19 -5 -30 -14 -30
-7 0 -34 -3 -60 -6 l-46 -7 0 31 c0 27 4 31 33 35 83 10 87 9 87 -23z m2 -75
c-5 -26 0 -23 -65 -31 -56 -7 -57 -6 -57 19 0 22 5 26 38 30 70 8 87 4 84 -18z"/>
  <path d="M335 559 c-16 -6 -55 -11 -85 -13 -48 -2 -55 -4 -51 -22 2 -10 6 -77
8 -149 4 -98 1 -145 -12 -197 -17 -71 -14 -108 10 -108 23 0 26 14 35 156 4
74 11 139 15 142 4 4 34 7 68 7 l62 0 16 65 c9 36 20 72 23 81 5 11 0 22 -16
33 -25 18 -31 18 -73 5z m25 -55 c0 -14 -4 -23 -9 -19 -6 3 -28 1 -50 -4 -39
-8 -41 -8 -41 14 0 18 7 25 28 28 66 10 72 8 72 -19z m-10 -69 c0 -23 -3 -25
-51 -25 -43 0 -50 3 -47 18 2 11 16 19 38 23 58 10 60 10 60 -16z"/>
  <path d="M425 350 c-33 -5 -64 -5 -69 -2 -5 3 -7 -1 -4 -9 3 -8 11 -31 18 -51
12 -32 17 -37 37 -32 26 7 27 5 13 -32 -10 -25 -14 -26 -55 -22 -25 3 -45 2
-45 -3 0 -5 4 -9 9 -9 5 0 14 -22 21 -50 12 -49 22 -61 35 -40 3 6 49 10 101
10 56 0 93 4 89 9 -3 5 4 25 15 44 29 49 11 62 -75 54 -60 -6 -94 4 -60 17 8
3 15 12 15 21 0 11 10 15 35 15 25 0 35 4 35 16 0 8 7 22 15 30 42 42 7 51
-130 34z m89 -19 c14 -22 -8 -40 -56 -46 -38 -5 -53 -4 -59 6 -17 26 -9 38 29
42 71 7 81 7 86 -2z m34 -157 c4 -31 -15 -41 -95 -48 -72 -6 -73 -6 -79 19 -8
33 -5 36 58 45 83 12 113 8 116 -16z"/>
</g>
<g id="part-1" class="char-part">
  <path d="M315 550 c-16 -4 -50 -8 -74 -9 -43 -1 -43 -1 -37 -32 3 -17 6 -53 6
-79 l0 -48 83 -4 c45 -2 83 -2 85 -2 2 1 12 37 23 80 18 74 19 80 2 91 -18 14
-42 15 -88 3z m45 -40 c0 -25 -4 -30 -24 -30 -13 0 -38 -3 -55 -6 -28 -6 -31
-4 -31 19 0 24 19 33 103 46 4 0 7 -12 7 -29z m0 -67 c0 -30 -13 -38 -62 -40
-45 -3 -48 -1 -48 21 0 29 11 34 68 35 34 1 42 -2 42 -16z"/>
</g>
<g id="part-2" class="char-part">
  <path d="M688 253 l-3 -158 -40 1 -40 2 40 -34 c79 -67 96 -35 92 181 -2 157
-2 160 -24 163 -22 3 -23 2 -25 -155z"/>
</g>
<g id="part-3" class="char-part">
  <path d="M440 349 c-25 -4 -57 -5 -72 -3 l-27 5 22 -51 c12 -28 26 -49 32 -46
6 2 40 7 76 11 61 7 65 9 81 43 9 19 15 39 12 44 -6 10 -62 9 -124 -3z m80
-21 c0 -26 -16 -36 -64 -43 -36 -6 -50 -4 -57 6 -22 34 -8 41 94 47 16 1 27
-3 27 -10z"/>
</g>
<g id="part-4" class="char-part">
  <path d="M427 238 c-8 -30 -1 -35 23 -13 25 23 26 35 1 35 -11 0 -21 -9 -24
-22z"/>
</g>
<g id="part-5" class="char-part">
  <path d="M505 210 l-40 -7 43 -2 c38 -1 45 -6 44 -31 0 -3 -3 -14 -6 -26 -11
-36 23 -24 36 13 7 18 17 33 23 33 5 1 -1 7 -15 15 -27 16 -26 15 -85 5z"/>
  <path d="M342 177 c5 -10 12 -31 14 -45 6 -32 10 -36 23 -28 10 7 9 14 -18 65
-11 21 -11 23 4 18 9 -4 13 -3 10 2 -3 6 -14 9 -24 8 -16 -1 -18 -5 -9 -20z"/>
  <path d="M398 193 c7 -3 16 -2 19 1 4 3 -2 6 -13 5 -11 0 -14 -3 -6 -6z"/>
  <path d="M480 120 c0 -5 5 -10 11 -10 5 0 7 5 4 10 -3 6 -8 10 -11 10 -2 0 -4
-4 -4 -10z"/>
  <path d="M413 113 c9 -2 25 -2 35 0 9 3 1 5 -18 5 -19 0 -27 -2 -17 -5z"/>
</g>
</g>
</svg>