<?xml version="1.0" standalone="no"?>
<!DOCTYPE svg PUBLIC "-//W3C//DTD SVG 20010904//EN"
 "http://www.w3.org/TR/2001/REC-SVG-20010904/DTD/svg10.dtd">
<svg version="1.0" xmlns="http://www.w3.org/2000/svg"
 width="96.000000pt" height="68.000000pt" viewBox="0 0 96.000000 68.000000"
 preserveAspectRatio="xMidYMid meet">
<metadata>
Created by potrace 1.16, written by Peter Selinger 2001-2019
Combined from part_0.svg through part_5.svg with named groups
</metadata>
<g transform="translate(0.000000,68.000000) scale(0.100000,-0.100000)" fill="#000000" stroke="none">
<g id="part-0" class="char-part">
  <path d="M228 594 c-4 -3 -3 -17 3 -31 5 -13 9 -49 9 -78 0 -60 -2 -61 -79
-67 -19 -2 -36 -9 -39 -15 -3 -10 13 -13 57 -13 l61 0 0 -49 0 -50 -80 -37
c-44 -21 -80 -43 -80 -49 0 -7 12 -17 27 -24 24 -11 31 -9 77 23 l51 36 3 -27
c2 -14 1 -41 -3 -60 -6 -33 -7 -34 -43 -27 l-37 6 40 -41 c21 -22 47 -41 56
-41 28 0 42 60 35 148 l-7 77 46 34 c25 18 45 37 45 42 0 13 -9 11 -47 -12
-19 -12 -36 -19 -38 -17 -3 2 -2 20 1 39 6 32 10 37 53 48 43 12 45 13 26 27
-13 9 -30 12 -49 8 l-29 -6 6 43 c4 24 9 53 12 64 3 11 2 25 -2 31 -9 14 -66
27 -75 18z"/>
  <path d="M595 534 c-22 -7 -70 -15 -107 -19 -65 -7 -85 -19 -53 -31 8 -3 50 2
95 12 44 9 83 14 87 11 12 -13 -42 -77 -64 -77 -27 0 -28 -8 -8 -38 12 -16 15
-43 13 -109 l-3 -88 -32 1 -32 2 24 -33 c14 -17 25 -35 25 -38 0 -4 -26 -7
-59 -7 -70 0 -123 -9 -116 -21 5 -8 397 -1 424 7 11 4 9 9 -8 20 -19 13 -40
15 -124 9 l-102 -7 20 21 c14 16 21 42 25 98 l5 75 69 -63 c77 -71 96 -82 134
-73 56 12 56 16 -2 39 -72 29 -169 92 -164 107 2 6 24 18 48 27 50 19 60 35
30 51 -12 6 -23 10 -24 8 -16 -25 -64 -73 -73 -72 -7 1 -17 2 -22 3 -5 0 -11
15 -13 32 -5 34 8 48 86 89 25 14 46 30 46 37 0 6 -19 17 -42 25 -35 12 -50
12 -83 2z"/>
  <path d="M440 345 l-45 -13 38 -1 37 -1 -21 -42 c-12 -24 -42 -62 -67 -85 -52
-50 -44 -56 15 -13 41 30 123 128 123 147 0 9 -27 26 -33 22 -1 -1 -22 -7 -47
-14z"/>
</g>
<g id="part-1" class="char-part">
  <path d="M236 558 c5 -18 9 -55 9 -83 l0 -50 -65 -11 -65 -11 65 -4 65 -4 3
-45 c1 -25 -1 -49 -5 -55 -5 -5 -42 -26 -83 -45 -41 -19 -77 -36 -79 -37 -2
-1 2 -9 9 -18 20 -24 48 -18 101 20 26 19 50 31 52 27 3 -4 2 -33 -1 -66 l-5
-58 -37 5 -37 5 44 -41 c43 -40 46 -41 59 -22 10 13 14 48 14 115 l0 97 41 32
c42 34 48 55 7 27 -37 -26 -48 -20 -48 24 0 43 2 45 65 55 33 6 37 8 21 17
-10 5 -31 8 -47 6 -28 -4 -29 -3 -29 33 0 21 5 50 11 66 8 23 7 30 -7 40 -10
7 -29 13 -42 13 -22 0 -23 -3 -16 -32z"/>
</g>
<g id="part-2" class="char-part">
  <path d="M590 534 c-25 -8 -75 -17 -112 -21 -38 -3 -68 -9 -68 -13 0 -18 57
-20 127 -4 41 9 77 14 80 10 3 -3 -7 -22 -22 -41 -32 -42 -26 -57 13 -32 15
10 46 28 70 39 23 12 42 27 42 34 0 9 -73 47 -83 43 -1 -1 -22 -7 -47 -15z"/>
</g>
<g id="part-3" class="char-part">
  <path d="M520 420 c0 -5 4 -10 8 -10 18 0 32 -54 32 -123 0 -86 -8 -102 -44
-93 -34 8 -33 -4 4 -39 l30 -29 23 22 c18 18 23 37 27 100 l5 77 79 -73 c77
-72 79 -73 120 -67 61 10 62 19 4 40 -50 17 -160 84 -172 104 -3 5 21 19 54
31 33 12 60 25 60 29 0 3 -10 12 -21 19 -20 13 -25 10 -65 -28 -48 -48 -74
-49 -74 -1 0 20 -7 34 -19 41 -25 13 -51 13 -51 0z"/>
  <path d="M430 344 l-45 -12 43 -1 42 -1 -20 -41 c-12 -22 -42 -60 -67 -85 -54
-51 -50 -56 13 -13 43 29 124 125 124 146 0 11 -25 24 -38 22 -4 -1 -27 -7
-52 -15z"/>
</g>
<g id="part-4" class="char-part">
  <path d="M525 124 c-82 -7 -157 -13 -165 -14 -11 0 -11 -3 4 -11 12 -7 50 -9
110 -5 50 4 138 7 196 8 122 1 139 4 113 24 -21 16 -60 16 -258 -2z"/>
</g>
</g>
</svg>