<?xml version="1.0" standalone="no"?>
<!DOCTYPE svg PUBLIC "-//W3C//DTD SVG 20010904//EN"
 "http://www.w3.org/TR/2001/REC-SVG-20010904/DTD/svg10.dtd">
<svg version="1.0" xmlns="http://www.w3.org/2000/svg"
 width="96.000000pt" height="68.000000pt" viewBox="0 0 96.000000 68.000000"
 preserveAspectRatio="xMidYMid meet">
<metadata>
Created by potrace 1.16, written by Peter Selinger 2001-2019
Combined from part_0.svg through part_5.svg with named groups
</metadata>
<g transform="translate(0.000000,68.000000) scale(0.100000,-0.100000)" fill="#000000" stroke="none">
<g id="part-0" class="char-part">
  <path d="M206 559 c13 -48 7 -353 -7 -411 -12 -53 1 -108 27 -108 25 0 31 35
37 203 3 93 8 171 11 174 3 4 17 -4 31 -17 27 -26 55 -21 55 10 0 15 -10 23
-45 32 -49 13 -50 15 -34 72 13 46 2 62 -50 72 l-33 7 8 -34z"/>
  <path d="M486 541 c-7 -45 -74 -140 -156 -220 -59 -57 -41 -54 45 8 51 37 82
69 119 123 37 55 33 56 151 -74 62 -68 71 -73 148 -70 55 3 43 21 -36 52 -58
24 -95 50 -194 134 -16 13 -21 26 -17 42 4 16 0 25 -14 33 -33 17 -39 13 -46
-28z"/>
  <path d="M135 415 c-4 -11 -13 -34 -21 -52 -8 -17 -14 -43 -14 -58 0 -22 4
-26 23 -23 16 2 26 14 36 47 12 38 12 47 -2 75 -14 28 -16 29 -22 11z"/>
  <path d="M503 337 c-92 -14 -80 -31 18 -24 74 5 99 11 88 21 -12 11 -51 12
-106 3z"/>
  <path d="M550 239 c-19 -4 -68 -9 -107 -11 -40 -1 -73 -3 -73 -3 0 0 9 -18 20
-40 11 -22 20 -47 20 -56 0 -10 5 -30 10 -44 8 -20 14 -24 23 -17 6 6 58 13
115 17 84 6 102 10 98 22 -4 8 5 38 20 66 24 48 24 52 8 64 -20 14 -81 15
-134 2z m65 -66 c-4 -27 -8 -50 -10 -51 -2 -2 -39 -6 -83 -9 l-80 -6 -7 42
c-4 23 -4 45 0 49 7 7 88 18 149 21 l38 1 -7 -47z"/>
</g>
<g id="part-1" class="char-part">
  <path d="M207 583 c-4 -3 -1 -15 5 -26 14 -26 5 -381 -11 -420 -8 -22 -8 -36
4 -64 14 -33 17 -35 31 -22 11 12 16 55 21 197 3 100 9 182 12 182 3 0 17 -9
31 -20 32 -25 63 -26 58 -2 -2 10 -21 23 -46 32 l-43 15 3 54 c3 52 2 55 -28
67 -18 7 -34 10 -37 7z"/>
  <path d="M120 365 c-23 -56 -22 -85 3 -85 19 0 37 43 37 90 0 58 -15 56 -40
-5z"/>
</g>
<g id="part-2" class="char-part">
  <path d="M490 558 c0 -38 -54 -120 -135 -207 -77 -81 -77 -93 0 -40 51 35 98
82 137 136 17 24 35 43 39 43 7 0 80 -73 143 -145 34 -37 38 -39 92 -38 83 2
85 16 7 46 -88 35 -236 151 -227 179 7 23 -12 48 -37 48 -13 0 -19 -7 -19 -22z"/>
</g>
<g id="part-3" class="char-part">
  <path d="M498 338 c-87 -15 -73 -32 21 -25 87 6 117 16 85 28 -23 9 -34 9
-106 -3z"/>
</g>
<g id="part-4" class="char-part">
  <path d="M555 239 c-16 -5 -64 -10 -106 -11 -74 -2 -76 -3 -64 -23 7 -11 18
-46 25 -77 11 -58 26 -80 39 -59 4 6 52 14 109 17 94 6 102 9 96 26 -3 11 5
38 21 65 24 45 25 48 9 60 -20 15 -84 16 -129 2z m65 -33 c0 -43 -15 -78 -36
-87 -26 -9 -131 -15 -139 -7 -3 2 -8 25 -11 51 l-7 46 59 4 c129 8 134 7 134
-7z"/>
</g>
</g>
</svg>