<?xml version="1.0" standalone="no"?>
<!DOCTYPE svg PUBLIC "-//W3C//DTD SVG 20010904//EN"
 "http://www.w3.org/TR/2001/REC-SVG-20010904/DTD/svg10.dtd">
<svg version="1.0" xmlns="http://www.w3.org/2000/svg"
 width="96.000000pt" height="68.000000pt" viewBox="0 0 96.000000 68.000000"
 preserveAspectRatio="xMidYMid meet">
<metadata>
Created by potrace 1.16, written by Peter Selinger 2001-2019
Combined from part_0.svg through part_5.svg with named groups
</metadata>
<g transform="translate(0.000000,68.000000) scale(0.100000,-0.100000)" fill="#000000" stroke="none">
<g id="part-0" class="char-part">
  <path d="M718 545 c-4 -5 -89 -16 -220 -30 -32 -4 -58 -11 -58 -16 0 -13 39
-11 166 8 142 21 148 19 139 -50 -18 -146 -50 -264 -77 -278 -12 -6 -29 -5
-54 6 -39 16 -55 19 -39 7 6 -4 23 -24 38 -44 31 -42 54 -47 83 -21 37 34 52
70 74 179 11 60 28 133 36 162 14 50 14 55 -3 68 -17 13 -74 19 -85 9z"/>
  <path d="M290 491 c-26 -15 -95 -21 -128 -12 -25 8 -32 7 -32 -4 0 -8 4 -16 9
-19 5 -3 14 -42 21 -86 12 -80 33 -119 46 -86 4 9 18 16 34 16 15 0 48 3 74 6
38 6 45 10 41 24 -3 10 2 37 10 61 29 78 29 81 10 95 -21 16 -62 18 -85 5z
m17 -83 c-8 -61 -10 -64 -59 -73 -33 -6 -38 -5 -38 11 0 11 -3 36 -6 56 -6 36
-6 36 37 46 74 17 72 18 66 -40z"/>
  <path d="M557 369 c-32 -21 -61 -39 -63 -39 -3 0 -20 -11 -38 -25 -18 -14 -38
-25 -44 -25 -7 0 -12 -4 -12 -8 0 -5 -12 -14 -27 -21 l-28 -13 24 -19 c13 -10
29 -19 35 -19 7 0 62 47 122 105 60 57 105 104 99 104 -5 0 -36 -18 -68 -40z"/>
</g>
<g id="part-1" class="char-part">
  <path d="M270 478 c-14 -5 -51 -7 -83 -4 l-57 6 14 -28 c7 -15 17 -52 21 -82
3 -30 9 -63 11 -72 6 -20 30 -24 36 -6 3 7 31 14 70 16 l66 4 4 42 c3 23 13
59 23 80 15 32 16 39 4 47 -19 12 -78 10 -109 -3z m43 -65 c-9 -72 -18 -83
-63 -83 -36 0 -39 2 -45 33 -13 78 -13 81 25 88 19 4 47 7 62 8 27 1 28 0 21
-46z"/>
</g>
<g id="part-2" class="char-part">
  <path d="M640 534 c-47 -7 -114 -17 -150 -21 -49 -7 -60 -12 -46 -18 12 -5 70
-1 148 10 168 24 165 26 144 -112 -18 -119 -49 -210 -76 -218 -11 -3 -37 3
-61 15 l-42 22 43 -51 c47 -56 65 -61 98 -31 36 34 51 74 77 202 14 68 31 137
37 155 11 29 10 35 -8 48 -22 17 -50 17 -164 -1z"/>
</g>
<g id="part-3" class="char-part">
  <path d="M595 396 c-99 -67 -227 -146 -235 -146 -22 0 -8 -28 20 -40 35 -15
23 -23 164 112 83 80 103 108 51 74z"/>
</g>
</g>
</svg>