<?xml version="1.0" standalone="no"?>
<!DOCTYPE svg PUBLIC "-//W3C//DTD SVG 20010904//EN"
 "http://www.w3.org/TR/2001/REC-SVG-20010904/DTD/svg10.dtd">
<svg version="1.0" xmlns="http://www.w3.org/2000/svg"
 width="96.000000pt" height="68.000000pt" viewBox="0 0 96.000000 68.000000"
 preserveAspectRatio="xMidYMid meet">
<metadata>
Created by potrace 1.16, written by Peter Selinger 2001-2019
Combined from part_0.svg through part_5.svg with named groups
</metadata>
<g transform="translate(0.000000,68.000000) scale(0.100000,-0.100000)" fill="#000000" stroke="none">
<g id="part-0" class="char-part">
  <path d="M582 577 c-5 -6 -13 -26 -16 -44 -8 -34 -55 -112 -95 -155 -33 -37
-18 -36 29 2 27 21 49 30 76 30 20 0 66 5 102 11 53 9 66 9 73 -2 16 -26 11
-235 -7 -280 -18 -43 -17 -43 -84 -24 -22 7 -20 2 18 -36 47 -49 59 -48 98 9
22 32 29 86 36 277 3 66 2 70 -23 82 -21 10 -43 9 -125 -7 -54 -10 -100 -17
-103 -15 -2 3 15 32 38 65 23 34 39 65 36 71 -13 19 -43 29 -53 16z"/>
  <path d="M384 557 c-10 -30 -37 -66 -50 -67 -6 0 -32 12 -58 26 -54 30 -60 18
-11 -24 40 -36 39 -38 -46 -93 -47 -30 -51 -34 -30 -37 13 -2 50 10 82 27 33
17 61 31 64 31 3 0 5 -15 5 -33 0 -26 -10 -43 -52 -84 -29 -28 -75 -65 -103
-83 -43 -27 -46 -31 -20 -25 38 8 105 47 152 88 l36 32 -7 -75 c-10 -102 -18
-114 -67 -106 -21 3 -39 3 -39 -1 0 -14 67 -73 82 -73 19 0 54 38 68 75 19 49
16 223 -4 270 l-17 40 51 46 c54 49 54 57 -2 78 -24 9 -28 7 -34 -12z"/>
  <path d="M550 324 c-25 -7 -58 -10 -74 -7 -25 5 -28 3 -21 -13 4 -11 13 -41
19 -67 9 -44 12 -47 36 -43 14 3 47 8 73 11 36 5 47 10 43 20 -3 8 2 31 10 52
15 34 15 38 -2 50 -21 15 -23 15 -84 -3z m38 -51 c-3 -35 -6 -39 -40 -47 -21
-5 -39 -8 -42 -5 -2 2 -6 21 -9 41 -5 36 -5 37 31 41 20 2 43 4 50 5 9 2 12
-9 10 -35z"/>
</g>
<g id="part-1" class="char-part">
  <path d="M380 541 c-6 -16 -20 -37 -30 -46 -17 -16 -21 -15 -63 9 -62 37 -69
32 -18 -12 l44 -38 -74 -48 c-54 -36 -66 -47 -44 -42 17 4 56 20 87 37 55 29
57 29 63 9 10 -33 7 -194 -4 -238 -13 -45 -30 -56 -67 -41 -39 14 -38 7 5 -35
34 -33 42 -36 60 -27 44 24 56 67 56 196 0 92 -4 128 -16 152 l-17 32 49 41
c27 23 49 45 49 49 0 8 -44 31 -59 31 -5 0 -14 -13 -21 -29z"/>
</g>
<g id="part-2" class="char-part">
  <path d="M296 311 c-26 -26 -75 -65 -109 -85 -34 -20 -54 -36 -44 -36 30 0
101 33 155 72 42 32 52 44 52 68 0 17 -1 30 -3 30 -1 0 -24 -22 -51 -49z"/>
</g>
<g id="part-3" class="char-part">
  <path d="M564 534 c-10 -34 -39 -85 -67 -122 -50 -65 -49 -69 10 -26 18 14 46
24 65 24 18 0 62 5 97 10 89 15 91 13 91 -129 0 -91 -4 -124 -18 -151 -17 -36
-24 -38 -77 -25 l-30 8 40 -42 c21 -22 44 -41 50 -41 6 0 24 13 39 29 30 31
39 85 49 279 4 79 3 84 -20 99 -22 15 -32 14 -124 -6 -56 -13 -103 -20 -106
-17 -3 3 13 32 35 65 38 54 47 91 22 91 -5 0 -15 3 -23 6 -11 4 -20 -10 -33
-52z"/>
</g>
<g id="part-4" class="char-part">
  <path d="M550 324 c-25 -8 -58 -12 -74 -8 -25 5 -28 4 -21 -12 4 -11 13 -39
19 -64 13 -48 18 -49 91 -35 11 2 31 4 44 4 16 1 21 5 17 16 -3 8 2 31 10 52
15 34 15 38 -2 50 -21 15 -26 15 -84 -3z m38 -51 c-3 -35 -6 -39 -40 -47 -21
-5 -39 -8 -42 -5 -2 2 -6 21 -9 41 -6 40 -1 43 66 47 27 1 28 -1 25 -36z"/>
</g>
</g>
</svg>