<?xml version="1.0" standalone="no"?>
<!DOCTYPE svg PUBLIC "-//W3C//DTD SVG 20010904//EN"
 "http://www.w3.org/TR/2001/REC-SVG-20010904/DTD/svg10.dtd">
<svg version="1.0" xmlns="http://www.w3.org/2000/svg"
 width="96.000000pt" height="68.000000pt" viewBox="0 0 96.000000 68.000000"
 preserveAspectRatio="xMidYMid meet">
<metadata>
Created by potrace 1.16, written by Peter Selinger 2001-2019
Combined from part_0.svg through part_5.svg with named groups
</metadata>
<g transform="translate(0.000000,68.000000) scale(0.100000,-0.100000)" fill="#000000" stroke="none">
<g id="part-0" class="char-part">
  <path d="M598 595 c-3 -3 -2 -25 3 -48 4 -23 8 -67 9 -98 0 -62 -7 -69 -75
-69 l-30 0 1 -108 c0 -139 0 -138 19 -122 10 8 19 10 25 4 11 -11 -47 -79 -93
-108 -41 -28 -24 -32 25 -6 78 40 149 92 144 105 -3 8 12 14 47 19 41 5 54 3
64 -10 15 -20 43 -11 43 13 0 10 1 65 3 123 l2 105 -69 3 -69 3 7 94 c5 79 4
95 -8 95 -8 0 -21 2 -28 5 -8 3 -17 3 -20 0z m132 -239 c0 -21 -5 -24 -67 -29
-110 -11 -123 -10 -123 13 0 14 9 21 38 25 20 4 44 8 52 10 8 1 34 3 58 4 38
1 42 -1 42 -23z m0 -70 c0 -21 -5 -24 -67 -29 -116 -11 -123 -10 -123 18 0 23
3 24 68 28 37 2 79 4 95 5 22 2 27 -2 27 -22z m7 -61 c7 -24 -18 -34 -105 -42
l-92 -9 0 28 c0 25 3 27 53 31 82 6 140 3 144 -8z"/>
  <path d="M302 538 c-15 -57 -56 -120 -132 -201 -50 -53 -58 -67 -42 -67 11 0
43 18 72 41 58 46 103 51 108 12 3 -22 -3 -24 -86 -36 -7 -1 -13 -6 -13 -12 1
-5 23 -11 51 -13 l50 -3 0 -54 0 -54 -41 -11 c-22 -6 -54 -8 -71 -5 -25 6 -29
4 -26 -11 2 -10 15 -25 30 -33 23 -13 32 -14 60 -2 18 7 74 27 123 45 50 17
88 36 85 41 -5 11 -10 11 -55 0 l-30 -7 38 28 c40 30 47 48 20 58 -17 7 -52
-26 -53 -50 0 -5 -7 -19 -15 -30 -13 -17 -14 -14 -15 42 l0 61 41 6 c22 3 44
8 47 12 12 12 -23 26 -54 21 -30 -4 -31 -3 -25 22 5 16 16 29 31 32 13 3 25
10 27 17 6 16 -31 22 -74 12 -74 -17 -76 -14 -35 46 33 49 61 68 54 36 -1 -6
1 -10 5 -9 5 1 20 -6 35 -16 30 -20 48 -15 48 14 0 21 -35 50 -62 50 -9 0 -20
10 -24 23 -16 53 -58 50 -72 -5z"/>
  <path d="M728 480 l-37 -50 52 27 c73 37 80 43 66 59 -21 25 -43 15 -81 -36z"/>
  <path d="M480 496 c0 -4 5 -12 10 -19 6 -7 19 -23 30 -36 12 -14 26 -21 35
-17 34 13 4 58 -47 71 -16 4 -28 4 -28 1z"/>
  <path d="M210 217 c0 -19 57 -70 69 -63 17 11 13 34 -9 56 -23 23 -60 27 -60
7z"/>
  <path d="M744 73 c51 -51 59 -55 73 -41 22 23 1 55 -50 79 -79 35 -86 24 -23
-38z"/>
</g>
<g id="part-1" class="char-part">
  <path d="M306 542 c-7 -48 -70 -146 -139 -217 -73 -76 -40 -71 51 7 47 40 86
36 90 -9 3 -32 2 -33 -32 -33 -63 0 -75 -15 -16 -20 l55 -5 3 -54 c2 -30 -1
-58 -7 -64 -5 -5 -39 -12 -75 -14 -63 -5 -66 -7 -51 -23 24 -27 49 -30 92 -10
21 9 70 27 108 40 109 35 110 52 1 24 -26 -6 -26 -6 -26 54 l0 60 40 7 c51 9
52 25 1 25 -35 0 -39 3 -43 30 -4 27 -2 30 21 30 14 0 33 4 41 10 28 17 -20
24 -83 11 -32 -7 -60 -11 -62 -9 -1 2 16 31 39 65 l42 62 37 -30 c39 -32 71
-33 65 -2 -2 11 -20 23 -46 31 -30 10 -42 19 -42 33 0 17 -27 39 -48 39 -5 0
-12 -17 -16 -38z"/>
  <path d="M403 220 c-13 -34 -5 -38 27 -12 13 11 20 24 16 30 -13 21 -31 13
-43 -18z"/>
  <path d="M232 190 c24 -34 48 -39 48 -12 0 25 -19 42 -47 42 l-24 0 23 -30z"/>
</g>
<g id="part-2" class="char-part">
  <path d="M594 579 c3 -13 9 -61 13 -106 5 -69 9 -83 23 -83 14 0 18 15 24 96
4 53 5 98 4 99 -2 2 -18 6 -37 10 -32 7 -34 6 -27 -16z"/>
  <path d="M739 497 c-18 -23 -37 -49 -43 -57 -6 -7 18 2 53 21 36 19 66 40 68
45 2 6 -7 16 -21 22 -22 10 -27 7 -57 -31z"/>
  <path d="M480 494 c0 -13 54 -74 66 -74 35 0 27 51 -12 68 -27 13 -54 16 -54
6z"/>
</g>
<g id="part-3" class="char-part">
  <path d="M610 389 c-25 -6 -58 -8 -75 -7 l-30 3 0 -92 c0 -66 4 -93 12 -93 7
0 16 6 20 14 10 16 193 32 193 16 0 -5 11 -10 24 -10 22 0 23 4 29 82 3 45 3
86 1 90 -7 11 -117 8 -174 -3z m120 -33 c0 -21 -5 -24 -67 -29 -111 -11 -123
-10 -123 13 0 24 41 35 148 39 38 1 42 -1 42 -23z m0 -71 c0 -21 -5 -25 -27
-25 -16 0 -58 -3 -95 -7 l-68 -6 0 26 c0 25 2 26 68 30 37 2 79 4 95 5 23 2
27 -2 27 -23z"/>
</g>
<g id="part-4" class="char-part">
  <path d="M540 120 c-14 -17 -47 -46 -75 -65 -97 -68 4 -29 112 43 29 19 53 39
53 43 0 5 -15 9 -33 9 -25 0 -39 -8 -57 -30z"/>
  <path d="M690 134 c0 -10 107 -114 117 -114 17 0 24 30 12 52 -6 11 -35 31
-65 44 -58 26 -64 27 -64 18z"/>
</g>
</g>
</svg>