<?xml version="1.0" standalone="no"?>
<!DOCTYPE svg PUBLIC "-//W3C//DTD SVG 20010904//EN"
 "http://www.w3.org/TR/2001/REC-SVG-20010904/DTD/svg10.dtd">
<svg version="1.0" xmlns="http://www.w3.org/2000/svg"
 width="96.000000pt" height="68.000000pt" viewBox="0 0 96.000000 68.000000"
 preserveAspectRatio="xMidYMid meet">
<metadata>
Created by potrace 1.16, written by Peter Selinger 2001-2019
Combined from part_0.svg through part_5.svg with named groups
</metadata>
<g transform="translate(0.000000,68.000000) scale(0.100000,-0.100000)" fill="#000000" stroke="none">
<g id="part-0" class="char-part">
  <path d="M660 470 c0 -49 -3 -91 -7 -91 -5 -1 -19 -2 -33 -3 -28 -1 -31 15
-17 86 8 36 7 37 -30 47 -20 6 -39 9 -41 7 -2 -2 1 -21 7 -43 6 -21 11 -52 11
-69 0 -36 -16 -44 -89 -44 -37 0 -42 -2 -36 -17 11 -27 22 -79 36 -164 12 -83
24 -112 37 -93 4 6 56 14 118 18 l110 7 12 -26 c6 -14 16 -25 22 -25 23 0 48
66 63 163 9 57 19 109 22 118 3 8 -1 23 -9 34 -11 16 -25 20 -67 18 l-52 -1 7
73 c6 67 5 75 -13 84 -46 25 -51 17 -51 -79z m108 -152 l3 -48 -35 0 c-34 0
-35 0 -30 38 9 57 12 64 36 60 20 -3 23 -10 26 -50z m-108 5 c0 -47 -9 -62
-40 -65 -22 -3 -25 1 -28 36 -5 53 3 66 38 66 28 0 30 -2 30 -37z m-110 -28
c0 -36 -4 -45 -21 -50 -27 -9 -35 1 -43 52 -5 38 -4 42 16 45 39 7 48 -2 48
-47z m213 -110 c-4 -26 -11 -47 -15 -46 -5 0 -19 1 -33 1 -23 0 -25 4 -23 40
2 49 7 57 38 62 36 6 42 -3 33 -57z m-205 -16 c2 -38 1 -40 -26 -37 -24 3 -27
8 -30 45 -2 33 0 42 15 45 28 7 40 -8 41 -53z m90 14 c-3 -40 -6 -48 -24 -51
-19 -3 -22 3 -26 37 -5 53 -1 61 28 61 24 0 25 -3 22 -47z"/>
  <path d="M206 543 c-3 -3 -1 -16 5 -30 5 -13 9 -52 9 -85 l0 -61 -65 5 c-36 3
-65 3 -65 -1 0 -4 6 -15 14 -26 7 -11 17 -39 20 -62 8 -46 34 -86 42 -65 3 6
17 12 30 12 22 0 24 -4 24 -48 l0 -48 -61 -13 c-51 -10 -59 -14 -49 -27 19
-22 53 -17 151 21 103 40 112 41 129 20 19 -23 30 -18 30 15 0 29 -32 61 -67
66 -16 3 -16 -1 -3 -26 8 -15 5 -20 -22 -29 -52 -18 -58 -15 -58 33 l0 45 55
6 c51 7 54 9 49 30 -4 15 3 38 18 64 20 36 21 43 8 52 -8 5 -39 8 -67 5 l-53
-5 0 32 c0 18 4 47 9 64 6 22 6 35 -1 39 -16 10 -76 22 -82 17z m119 -220 c-4
-21 -8 -39 -8 -39 -1 -1 -12 -5 -24 -8 -20 -7 -23 -4 -23 23 0 45 10 61 37 61
24 0 25 -2 18 -37z m-105 -18 c0 -41 -2 -45 -25 -45 -14 0 -25 4 -25 9 0 5 -3
22 -6 39 -6 28 -4 31 22 35 16 2 30 5 32 6 1 0 2 -19 2 -44z"/>
</g>
<g id="part-1" class="char-part">
  <path d="M214 515 c3 -13 9 -52 13 -85 l6 -60 -34 -2 c-19 -1 -52 0 -73 1 -34
2 -37 1 -24 -12 8 -8 20 -40 28 -71 7 -31 17 -59 20 -61 4 -3 21 0 39 5 l31 9
0 -50 c0 -42 3 -49 20 -49 17 0 20 7 20 49 0 54 9 61 79 61 27 0 32 3 27 16
-4 9 3 37 15 62 22 44 22 45 3 59 -18 13 -60 12 -100 -4 -17 -6 -17 6 -4 78 9
47 8 56 -7 66 -9 7 -28 13 -41 13 -21 0 -23 -4 -18 -25z m114 -184 c4 -39 -12
-61 -45 -61 -19 0 -24 4 -19 16 3 9 6 28 6 44 0 19 6 30 18 33 29 8 37 2 40
-32z m-102 3 c-3 -9 -6 -31 -6 -50 0 -29 -3 -34 -24 -34 -19 0 -25 7 -34 42
-6 23 -9 45 -6 50 3 4 21 8 41 8 28 0 34 -3 29 -16z"/>
</g>
<g id="part-2" class="char-part">
  <path d="M340 213 c0 -3 12 -26 26 -50 17 -29 31 -43 42 -41 25 5 17 49 -14
76 -24 21 -54 30 -54 15z"/>
</g>
<g id="part-3" class="char-part">
  <path d="M658 423 c1 -76 -1 -144 -6 -150 -4 -7 -19 -14 -32 -15 -25 -3 -25
-2 -25 77 1 44 3 100 5 124 5 43 4 45 -28 54 -18 6 -35 7 -38 4 -3 -3 -1 -22
5 -44 6 -21 11 -80 11 -130 0 -90 -1 -93 -25 -99 -32 -8 -33 -24 -1 -24 26 0
36 -16 36 -62 0 -23 4 -29 18 -26 13 2 18 15 20 51 3 42 5 47 28 47 22 0 24
-4 24 -45 0 -38 3 -45 20 -45 15 0 20 7 20 28 0 46 11 72 30 72 25 0 50 10 50
21 0 5 -16 9 -35 9 -35 0 -36 1 -31 33 3 17 10 77 17 131 11 93 11 100 -6 113
-11 7 -28 13 -39 13 -20 0 -21 -4 -18 -137z"/>
</g>
<g id="part-4" class="char-part">
  <path d="M680 384 c-47 -7 -124 -15 -172 -16 -48 -2 -88 -5 -88 -8 0 -2 7 -22
14 -45 8 -22 20 -79 26 -126 12 -89 24 -123 38 -103 4 6 56 14 119 18 l113 8
10 -26 c23 -61 55 -10 80 127 10 57 22 115 25 130 6 21 2 28 -24 41 -34 18
-28 18 -141 0z m88 -85 c2 -37 -1 -88 -5 -114 l-8 -47 -126 -4 -126 -5 -7 83
c-3 46 -9 93 -12 105 -7 24 2 26 157 43 128 13 124 15 127 -61z"/>
</g>
</g>
</svg>