<?xml version="1.0" standalone="no"?>
<!DOCTYPE svg PUBLIC "-//W3C//DTD SVG 20010904//EN"
 "http://www.w3.org/TR/2001/REC-SVG-20010904/DTD/svg10.dtd">
<svg version="1.0" xmlns="http://www.w3.org/2000/svg"
 width="96.000000pt" height="68.000000pt" viewBox="0 0 96.000000 68.000000"
 preserveAspectRatio="xMidYMid meet">
<metadata>
Created by potrace 1.16, written by Peter Selinger 2001-2019
Combined from part_0.svg through part_5.svg with named groups
</metadata>
<g transform="translate(0.000000,68.000000) scale(0.100000,-0.100000)" fill="#000000" stroke="none">
<g id="part-0" class="char-part">
  <path d="M538 522 c4 -76 4 -79 -19 -85 -13 -4 -38 -7 -56 -7 -17 0 -35 -4
-38 -10 -4 -6 16 -10 54 -10 l60 0 -5 -62 c-7 -83 -7 -84 -44 -92 -44 -8 -53
0 -34 35 18 36 14 54 -15 62 -19 5 -21 1 -21 -33 0 -22 -4 -42 -10 -45 -13 -8
-13 -65 1 -65 5 0 33 7 60 16 27 9 53 13 57 10 3 -4 5 -22 4 -40 -2 -19 4 -50
12 -70 22 -53 68 -69 173 -64 94 5 118 18 109 60 -3 15 -9 41 -12 58 -7 33
-24 41 -24 10 0 -73 -80 -110 -169 -79 -37 13 -51 41 -51 99 0 38 1 39 43 48
32 7 45 6 53 -5 19 -22 33 -15 43 25 24 90 24 90 3 101 -36 19 -42 13 -42 -44
l0 -55 -51 0 -52 0 7 53 c3 28 6 60 6 69 0 10 11 19 30 22 17 3 44 9 60 12 52
10 22 27 -36 21 l-53 -5 6 46 c13 89 11 97 -23 100 l-31 3 5 -79z"/>
  <path d="M245 553 c-9 -40 -52 -103 -93 -139 -31 -27 -34 -32 -23 -53 13 -24
20 -24 88 -3 29 9 32 9 24 -6 -13 -23 -55 -67 -83 -86 -21 -15 -21 -17 -5 -33
14 -15 21 -16 37 -5 39 24 111 43 141 37 25 -6 29 -4 29 14 0 11 -10 27 -22
36 -22 15 -23 14 -26 -4 -2 -13 -18 -25 -49 -35 -26 -9 -51 -16 -57 -16 -6 0
29 40 78 89 77 77 88 92 76 105 -19 24 -37 19 -49 -14 -10 -32 -43 -50 -88
-50 -30 0 -28 4 51 94 47 55 48 57 31 76 -26 29 -52 25 -60 -7z"/>
  <path d="M310 226 c0 -8 9 -24 19 -37 14 -17 23 -21 31 -13 15 15 3 39 -26 52
-19 9 -24 9 -24 -2z"/>
  <path d="M210 204 c0 -15 43 -64 56 -64 22 0 17 37 -8 54 -23 16 -48 21 -48
10z"/>
  <path d="M110 186 c0 -21 43 -97 53 -94 24 8 19 47 -9 73 -24 23 -44 32 -44
21z"/>
</g>
<g id="part-1" class="char-part">
  <path d="M254 563 c-14 -47 -53 -111 -88 -144 -50 -49 -45 -75 14 -65 21 3 51
11 67 18 l28 12 -42 5 -42 6 59 65 c63 69 72 93 41 110 -27 14 -31 13 -37 -7z"/>
</g>
<g id="part-2" class="char-part">
  <path d="M306 218 c15 -27 38 -48 51 -48 18 0 17 25 -3 44 -19 19 -59 22 -48
4z"/>
  <path d="M210 204 c0 -15 43 -64 56 -64 22 0 17 37 -8 54 -23 16 -48 21 -48
10z"/>
  <path d="M110 180 c0 -23 41 -90 55 -90 24 0 18 48 -10 75 -25 26 -45 32 -45
15z"/>
</g>
<g id="part-3" class="char-part">
  <path d="M537 526 l6 -84 -49 -7 c-78 -12 -87 -24 -17 -25 l61 0 -5 -98 c-7
-123 2 -185 31 -219 20 -23 32 -27 102 -31 86 -5 164 11 164 33 0 26 -23 115
-30 115 -4 0 -10 -18 -14 -41 -5 -34 -12 -42 -43 -55 -40 -17 -119 -12 -148
10 -22 16 -29 82 -20 199 l7 95 59 11 c76 15 70 36 -8 28 -53 -6 -55 -5 -50
16 13 53 18 115 10 119 -4 3 -20 8 -35 12 l-27 6 6 -84z"/>
</g>
<g id="part-4" class="char-part">
  <path d="M673 363 c3 -16 3 -40 0 -54 -5 -25 -10 -27 -91 -38 -48 -6 -97 -14
-109 -17 -27 -7 -30 10 -11 52 11 23 10 28 -7 40 -28 21 -33 18 -38 -28 -3
-24 -9 -58 -12 -75 -6 -27 -4 -33 10 -33 9 0 25 5 35 10 11 6 54 17 97 26 43
8 88 17 101 20 15 3 22 0 22 -11 0 -31 29 -14 39 23 24 90 24 90 3 101 -34 18
-45 14 -39 -16z"/>
</g>
</g>
</svg>