<?xml version="1.0" standalone="no"?>
<!DOCTYPE svg PUBLIC "-//W3C//DTD SVG 20010904//EN"
 "http://www.w3.org/TR/2001/REC-SVG-20010904/DTD/svg10.dtd">
<svg version="1.0" xmlns="http://www.w3.org/2000/svg"
 width="96.000000pt" height="68.000000pt" viewBox="0 0 96.000000 68.000000"
 preserveAspectRatio="xMidYMid meet">
<metadata>
Created by potrace 1.16, written by Peter Selinger 2001-2019
Combined from part_0.svg through part_5.svg with named groups
</metadata>
<g transform="translate(0.000000,68.000000) scale(0.100000,-0.100000)" fill="#000000" stroke="none">
<g id="part-0" class="char-part">
  <path d="M413 567 c-100 -12 -185 -25 -188 -29 -4 -4 4 -13 19 -19 20 -9 45
-9 108 -1 46 7 91 12 101 12 17 0 17 -1 0 -18 -36 -36 -121 -92 -193 -127 -41
-19 -70 -35 -65 -35 40 1 222 79 236 101 15 25 31 -4 26 -47 -5 -48 10 -79 31
-65 8 4 13 11 13 15 -5 39 1 86 12 86 7 0 51 -16 97 -35 96 -40 145 -48 145
-25 0 24 -64 48 -162 61 -104 13 -115 26 -69 72 21 21 36 25 105 28 83 4 103
11 83 31 -19 19 -108 18 -299 -5z"/>
  <path d="M438 312 c-65 -9 -118 -19 -118 -24 0 -9 13 -10 88 -8 l52 1 0 -85 0
-86 -52 0 -53 0 3 60 c3 48 1 60 -11 60 -9 0 -23 3 -32 6 -13 5 -15 2 -11 -17
3 -13 8 -45 11 -72 l6 -47 -95 0 c-53 0 -96 -4 -96 -9 0 -18 56 -21 180 -11
69 5 209 10 312 10 183 0 222 7 177 31 -15 8 -62 9 -160 4 l-139 -7 0 39 0 40
82 7 c88 7 101 12 78 27 -14 9 -29 8 -118 -8 -33 -5 -33 -5 -30 28 3 34 4 34
63 41 79 10 94 16 75 28 -19 12 -69 10 -212 -8z"/>
</g>
<g id="part-1" class="char-part">
  <path d="M450 564 c-107 -12 -201 -23 -208 -23 -7 -1 -10 -5 -7 -11 8 -12 91
-13 170 -1 33 5 115 13 183 16 67 4 122 10 122 14 0 8 -46 32 -58 30 -4 -1
-95 -12 -202 -25z"/>
</g>
<g id="part-2" class="char-part">
  <path d="M468 532 c-9 -22 -114 -96 -192 -136 -108 -55 -114 -60 -46 -40 69
20 153 58 190 84 35 25 44 14 36 -43 -3 -23 -2 -49 4 -57 19 -30 38 10 42 85
2 53 7 73 21 83 9 7 15 18 12 23 -7 11 -62 12 -67 1z"/>
  <path d="M510 446 c0 -7 181 -75 218 -82 28 -6 32 -4 32 14 0 27 -56 48 -161
62 -97 12 -89 11 -89 6z"/>
</g>
<g id="part-3" class="char-part">
  <path d="M433 312 c-62 -9 -113 -20 -113 -24 0 -18 301 -1 333 19 17 11 -19
23 -63 21 -25 0 -96 -8 -157 -16z"/>
</g>
<g id="part-4" class="char-part">
  <path d="M457 243 c9 -98 15 -123 29 -123 10 0 14 12 14 39 l0 39 85 7 c83 7
108 19 63 30 -13 3 -49 -1 -80 -9 l-58 -13 0 33 c0 31 -3 34 -28 34 -26 0 -28
-2 -25 -37z"/>
</g>
<g id="part-5" class="char-part">
  <path d="M633 121 c-45 -3 -84 -9 -88 -12 -3 -4 56 -7 132 -8 98 -1 134 2 126
10 -14 14 -71 18 -170 10z"/>
  <path d="M373 102 c-6 -4 19 -8 55 -8 59 -1 62 0 27 7 -51 10 -67 10 -82 1z"/>
  <path d="M140 89 c0 -4 38 -7 85 -7 47 0 83 4 80 8 -6 10 -165 8 -165 -1z"/>
  <path d="M320 89 c0 -5 5 -7 10 -4 6 3 10 8 10 11 0 2 -4 4 -10 4 -5 0 -10 -5
-10 -11z"/>
</g>
</g>
</svg>