<?xml version="1.0" standalone="no"?>
<!DOCTYPE svg PUBLIC "-//W3C//DTD SVG 20010904//EN"
 "http://www.w3.org/TR/2001/REC-SVG-20010904/DTD/svg10.dtd">
<svg version="1.0" xmlns="http://www.w3.org/2000/svg"
 width="96.000000pt" height="68.000000pt" viewBox="0 0 96.000000 68.000000"
 preserveAspectRatio="xMidYMid meet">
<metadata>
Created by potrace 1.16, written by Peter Selinger 2001-2019
Combined from part_0.svg through part_5.svg with named groups
</metadata>
<g transform="translate(0.000000,68.000000) scale(0.100000,-0.100000)" fill="#000000" stroke="none">
<g id="part-0" class="char-part">
  <path d="M300 612 c0 -4 5 -13 12 -20 17 -17 6 -24 -47 -29 -52 -6 -66 -18
-30 -27 25 -6 50 -40 41 -55 -3 -5 -42 -12 -86 -15 -44 -4 -80 -12 -80 -17 0
-13 62 -11 160 5 47 8 111 17 143 21 31 4 57 11 57 17 0 7 -15 8 -40 4 -37 -6
-54 4 -30 19 6 3 10 11 10 16 0 6 -5 7 -12 3 -6 -4 -8 -3 -5 3 4 6 21 13 39
17 32 7 32 8 13 22 -12 9 -30 12 -46 9 -21 -5 -28 -2 -32 14 -4 16 -13 21 -36
21 -17 0 -31 -4 -31 -8z m70 -92 c0 -22 -34 -44 -56 -36 -8 3 -14 17 -14 31 0
22 4 25 35 25 28 0 35 -4 35 -20z"/>
  <path d="M516 603 c4 -10 8 -35 7 -55 -1 -43 13 -52 57 -37 17 6 38 8 47 5 31
-12 -9 -36 -66 -39 l-53 -3 0 -62 c1 -34 1 -75 1 -90 1 -31 31 -52 74 -52 39
-1 -3 -18 -53 -21 -33 -3 -45 0 -45 10 0 17 -31 38 -41 28 -4 -4 0 -15 10 -26
16 -18 16 -19 -6 -24 -13 -3 -50 -9 -83 -13 -33 -4 -63 -9 -67 -10 -5 -1 -14
-2 -20 -4 -7 -1 -1 -5 13 -10 15 -4 45 -4 68 0 23 4 41 4 41 0 0 -14 -64 -56
-145 -98 -98 -50 -73 -55 38 -7 44 19 83 35 85 35 3 0 2 -29 -1 -65 -6 -57 -4
-65 11 -65 18 0 136 69 129 76 -2 2 -22 -4 -45 -13 -23 -9 -44 -14 -47 -11 -3
2 -7 21 -9 41 -3 21 -7 41 -10 46 -3 5 10 25 30 45 32 32 40 36 88 36 30 0 68
3 85 6 33 7 42 23 14 25 -10 1 22 7 71 14 102 15 125 30 110 72 -12 34 -32 41
-36 11 -2 -12 -14 -28 -28 -35 -28 -14 -200 -18 -200 -4 0 5 29 12 65 16 36 3
65 11 65 16 0 7 -26 8 -70 3 -45 -4 -70 -3 -70 4 0 13 35 22 88 22 24 0 42 5
42 11 0 7 -21 10 -62 7 -42 -2 -62 1 -65 10 -3 8 10 12 49 12 29 0 60 5 68 11
11 8 1 9 -37 6 -58 -4 -88 6 -63 23 8 5 29 10 45 10 46 0 74 11 69 24 -3 7 2
19 10 26 26 21 8 30 -60 30 -83 0 -83 21 -1 34 31 4 57 13 57 18 0 9 -18 7
-86 -9 -15 -3 -23 1 -27 16 -3 13 -13 21 -27 21 -18 0 -20 -4 -14 -17z"/>
  <path d="M369 446 c-2 -3 -29 -6 -59 -8 -54 -4 -55 -5 -52 -34 2 -16 -2 -43
-8 -58 -11 -30 -5 -66 11 -66 5 0 12 14 16 30 5 29 7 30 64 30 46 0 59 -3 59
-15 0 -9 -9 -15 -22 -15 l-22 0 21 -21 c36 -36 53 -19 55 56 1 36 2 73 2 83 1
12 -8 18 -29 20 -17 2 -33 1 -36 -2z m31 -26 c0 -9 -12 -13 -77 -24 -24 -4
-33 -2 -33 9 0 14 23 21 78 24 17 0 32 -3 32 -9z m0 -45 c0 -10 -10 -15 -32
-15 -18 0 -43 -3 -55 -6 -17 -5 -23 -2 -23 9 0 15 9 17 93 25 9 1 17 -5 17
-13z"/>
  <path d="M632 170 c-27 -36 -39 -37 -93 -9 -22 11 -48 19 -57 17 -11 -2 -1
-11 28 -26 25 -13 61 -36 80 -51 76 -59 105 -71 168 -71 33 0 64 5 67 10 3 6
-1 10 -9 10 -25 0 -170 48 -191 64 -18 13 -16 15 33 32 57 20 67 47 22 52 -19
2 -32 -5 -48 -28z"/>
</g>
<g id="part-1" class="char-part">
  <path d="M312 604 c4 -24 48 -33 48 -10 0 9 -4 16 -9 16 -5 0 -17 3 -26 6 -13
5 -16 2 -13 -12z"/>
  <path d="M311 564 c-107 -19 -108 -25 -1 -19 106 6 142 13 134 26 -7 12 -42
10 -133 -7z"/>
</g>
<g id="part-2" class="char-part">
  <path d="M772 352 c-7 -19 -21 -36 -37 -42 -33 -13 -195 -13 -195 -1 0 6 31
13 70 17 38 3 67 11 64 16 -3 5 -35 6 -75 2 -49 -5 -69 -3 -69 5 0 18 -18 13
-25 -8 -16 -51 35 -76 155 -75 58 1 96 6 118 18 35 18 37 26 18 71 l-12 30
-12 -33z"/>
</g>
<g id="part-3" class="char-part">
  <path d="M440 281 c0 -6 9 -16 21 -24 19 -14 19 -15 -13 -20 -18 -3 -55 -9
-83 -12 -27 -3 -61 -9 -75 -12 l-25 -5 24 -9 c15 -6 53 -4 110 6 47 8 113 15
146 16 33 1 71 4 85 9 l25 7 -27 11 c-25 10 -49 10 -115 -4 -16 -3 -23 0 -23
10 0 9 -9 20 -19 26 -24 12 -31 13 -31 1z"/>
</g>
<g id="part-4" class="char-part">
  <path d="M367 171 c-27 -21 -81 -55 -120 -75 -56 -29 -64 -36 -39 -32 69 12
252 114 252 141 0 17 -52 -2 -93 -34z"/>
</g>
<g id="part-5" class="char-part">
  <path d="M648 176 c-16 -22 -16 -23 5 -21 12 1 28 3 35 4 17 2 15 28 -4 35
-20 8 -16 9 -36 -18z"/>
  <path d="M527 149 c18 -11 33 -19 35 -18 2 2 16 -9 32 -24 16 -15 35 -27 43
-27 8 0 11 -5 7 -11 -4 -8 0 -8 15 0 17 9 20 9 15 -3 -7 -19 8 -27 66 -32 31
-3 50 -1 50 6 0 11 -19 14 -60 11 -20 -1 -22 1 -10 9 8 5 10 10 4 10 -6 0 -29
8 -50 17 -22 9 -45 16 -53 14 -7 -1 -10 2 -6 8 4 7 -1 8 -12 4 -16 -6 -17 -5
-3 12 10 12 10 16 2 11 -7 -4 -30 1 -53 13 -51 27 -64 27 -22 0z"/>
  <path d="M389 113 c-2 -42 -6 -66 -14 -84 -11 -28 13 -32 50 -9 40 25 42 27
18 27 -39 0 -41 3 -37 42 3 22 0 42 -6 46 -6 4 -11 -5 -11 -22z"/>
</g>
</g>
</svg>