<?xml version="1.0" standalone="no"?>
<!DOCTYPE svg PUBLIC "-//W3C//DTD SVG 20010904//EN"
 "http://www.w3.org/TR/2001/REC-SVG-20010904/DTD/svg10.dtd">
<svg version="1.0" xmlns="http://www.w3.org/2000/svg"
 width="96.000000pt" height="68.000000pt" viewBox="0 0 96.000000 68.000000"
 preserveAspectRatio="xMidYMid meet">
<metadata>
Created by potrace 1.16, written by Peter Selinger 2001-2019
Combined from part_0.svg through part_5.svg with named groups
</metadata>
<g transform="translate(0.000000,68.000000) scale(0.100000,-0.100000)" fill="#000000" stroke="none">
<g id="part-0" class="char-part">
  <path d="M262 588 c-7 -7 -12 -18 -12 -25 0 -28 -44 -99 -85 -138 -37 -34 -42
-43 -34 -64 6 -16 15 -22 27 -18 9 3 32 10 49 15 30 10 32 9 24 -7 -5 -9 -24
-29 -43 -45 -31 -26 -32 -28 -15 -41 16 -11 26 -10 73 12 41 19 64 23 90 19
19 -4 34 -3 34 2 0 15 -25 40 -47 47 -18 5 -22 3 -17 -9 7 -17 -30 -36 -69
-36 -17 0 -7 15 53 75 62 62 73 78 64 92 -18 29 -29 25 -52 -22 -20 -42 -24
-45 -62 -45 l-41 0 43 52 c24 29 53 64 66 78 27 31 27 35 0 54 -27 19 -31 19
-46 4z"/>
  <path d="M501 582 c-5 -10 -12 -31 -15 -47 -4 -17 -32 -58 -62 -93 -55 -62
-54 -85 2 -37 35 30 38 30 82 3 l35 -22 -44 -38 c-24 -21 -59 -45 -77 -54 -19
-9 -31 -18 -28 -21 8 -8 64 16 111 47 22 14 45 29 51 33 6 3 39 -16 73 -43 58
-46 66 -50 114 -49 58 1 107 12 92 21 -6 3 -43 15 -83 27 -41 12 -94 35 -119
50 l-44 28 37 44 c20 24 42 48 50 52 22 13 16 36 -11 43 -24 6 -75 0 -120 -13
-18 -5 -19 -5 -1 21 20 32 16 51 -13 59 -14 3 -24 -1 -30 -11z m119 -88 c0
-22 -49 -84 -66 -84 -17 0 -74 33 -74 43 0 11 22 32 40 40 20 7 100 9 100 1z"/>
  <path d="M519 256 c33 -35 80 -53 92 -35 5 8 9 17 9 21 0 12 -32 25 -80 32
l-44 7 23 -25z"/>
  <path d="M312 225 c12 -27 48 -35 48 -10 0 14 -29 35 -49 35 -7 0 -7 -8 1 -25z"/>
  <path d="M220 221 c0 -13 40 -61 51 -61 13 0 11 36 -3 47 -20 15 -48 23 -48
14z"/>
  <path d="M106 188 c21 -38 57 -78 69 -78 42 0 20 63 -28 80 -39 13 -50 13 -41
-2z"/>
  <path d="M525 115 c66 -60 100 -69 100 -25 0 20 -9 29 -45 46 -25 12 -61 25
-80 28 l-35 7 60 -56z"/>
</g>
<g id="part-1" class="char-part">
  <path d="M260 575 c0 -30 -51 -115 -90 -153 -75 -70 -41 -89 80 -44 8 3 -2 8
-24 11 l-40 6 67 77 c69 78 79 101 51 112 -27 10 -44 7 -44 -9z"/>
</g>
<g id="part-2" class="char-part">
  <path d="M312 228 c18 -26 48 -36 48 -16 0 20 -21 38 -43 38 -18 0 -18 -2 -5
-22z"/>
  <path d="M229 198 c26 -42 51 -49 51 -13 0 18 -7 28 -26 35 -42 16 -47 12 -25
-22z"/>
  <path d="M112 178 c8 -13 21 -33 29 -45 16 -26 59 -31 59 -7 0 28 -19 52 -51
63 -46 16 -53 14 -37 -11z"/>
</g>
<g id="part-3" class="char-part">
  <path d="M490 554 c-9 -30 -33 -70 -67 -110 -58 -69 -51 -88 12 -32 41 36 125
141 125 157 0 11 -31 31 -48 31 -5 0 -15 -21 -22 -46z"/>
</g>
<g id="part-4" class="char-part">
  <path d="M558 516 c-57 -18 -55 -25 6 -19 31 3 56 2 56 -3 0 -15 -50 -84 -61
-84 -5 0 -28 9 -49 20 -48 25 -51 16 -8 -20 40 -33 35 -41 -58 -102 -35 -22
-64 -42 -64 -44 0 -10 105 39 141 66 26 18 46 27 53 22 6 -5 35 -28 64 -50 48
-37 59 -42 105 -41 29 1 63 4 77 8 21 6 12 12 -60 35 -82 27 -170 71 -170 85
0 3 25 31 55 61 48 49 53 56 38 68 -20 15 -75 14 -125 -2z"/>
</g>
<g id="part-5" class="char-part">
  <path d="M535 250 c17 -11 38 -19 48 -16 9 2 17 0 17 -6 0 -5 5 -6 10 -3 15 9
4 22 -30 34 -18 6 -28 6 -25 1 4 -6 2 -10 -4 -10 -5 0 -13 5 -16 10 -3 6 -12
10 -18 10 -7 0 2 -9 18 -20z"/>
  <path d="M510 136 c13 -15 30 -24 37 -22 7 3 12 2 12 -2 -3 -20 3 -32 16 -32
8 0 15 -4 15 -10 0 -5 4 -10 10 -10 5 0 6 8 3 17 -5 12 -2 15 10 10 15 -5 16
-3 7 12 -11 22 -55 46 -102 56 l-33 7 25 -26z"/>
</g>
</g>
</svg>