<?xml version="1.0" standalone="no"?>
<!DOCTYPE svg PUBLIC "-//W3C//DTD SVG 20010904//EN"
 "http://www.w3.org/TR/2001/REC-SVG-20010904/DTD/svg10.dtd">
<svg version="1.0" xmlns="http://www.w3.org/2000/svg"
 width="96.000000pt" height="68.000000pt" viewBox="0 0 96.000000 68.000000"
 preserveAspectRatio="xMidYMid meet">
<metadata>
Created by potrace 1.16, written by Peter Selinger 2001-2019
Combined from part_0.svg through part_5.svg with named groups
</metadata>
<g transform="translate(0.000000,68.000000) scale(0.100000,-0.100000)" fill="#000000" stroke="none">
<g id="part-0" class="char-part">
  <path d="M560 613 c0 -55 -11 -72 -46 -79 -40 -7 -44 -21 -8 -30 21 -5 25 -11
21 -30 -6 -35 16 -30 46 10 24 31 31 34 97 38 39 3 74 8 78 12 14 15 -26 27
-79 23 l-56 -3 11 29 c9 24 8 31 -8 43 -33 23 -56 18 -56 -13z"/>
  <path d="M280 589 c0 -6 9 -22 20 -37 26 -33 16 -39 -72 -48 -62 -6 -67 -8
-57 -25 15 -28 50 -32 109 -13 53 17 54 17 68 -4 22 -33 45 -29 37 7 -5 26 -3
29 25 34 45 9 41 37 -5 30 -33 -5 -35 -4 -41 25 -4 19 -14 32 -28 36 -33 9
-56 7 -56 -5z"/>
  <path d="M525 429 c-33 -4 -106 -13 -162 -20 -98 -11 -125 -21 -84 -32 22 -5
28 -33 37 -184 l6 -112 -38 -6 c-22 -3 -46 -8 -54 -9 -9 -2 -3 -8 15 -15 24
-10 56 -10 155 0 69 7 182 12 253 12 70 0 127 3 127 8 0 31 -139 36 -357 13
l-63 -7 0 49 0 49 58 2 c31 2 94 5 138 9 72 5 81 8 77 24 -3 10 3 32 12 51 16
31 16 33 -1 46 -22 16 -13 16 -159 -2 -65 -8 -120 -15 -122 -15 -1 0 -1 20 0
44 2 53 -3 51 190 62 115 6 136 13 98 34 -22 11 -39 11 -126 -1z m65 -153 c0
-8 -4 -26 -9 -39 -9 -23 -17 -25 -98 -32 -48 -5 -96 -9 -105 -10 -15 -1 -18 6
-18 42 0 24 3 42 8 40 4 -3 34 -2 67 3 104 13 155 12 155 -4z"/>
</g>
<g id="part-1" class="char-part">
  <path d="M560 596 c0 -54 -8 -66 -46 -66 -19 0 -34 -4 -34 -10 0 -5 14 -10 31
-10 29 0 30 -2 24 -32 l-6 -33 34 39 c32 37 38 39 106 44 39 2 71 8 71 13 0
14 -39 20 -85 13 -48 -7 -51 -4 -34 27 13 26 -4 49 -37 49 -21 0 -24 -5 -24
-34z"/>
  <path d="M299 564 c11 -15 21 -32 21 -39 0 -13 -52 -25 -112 -25 -43 0 -48
-13 -15 -35 22 -14 29 -13 83 5 55 19 60 20 71 3 7 -9 13 -20 13 -25 0 -4 5
-8 10 -8 6 0 10 13 10 30 0 24 6 33 33 45 l32 14 -40 -2 c-37 -2 -40 0 -45 28
-4 27 -10 30 -44 33 l-39 3 22 -27z"/>
</g>
<g id="part-2" class="char-part">
  <path d="M545 430 c-27 -4 -103 -13 -167 -20 -65 -7 -118 -16 -118 -21 0 -5 7
-9 15 -9 24 0 32 -35 39 -172 l8 -128 -29 -1 c-15 -1 -39 -4 -53 -9 l-25 -7
29 -12 c23 -9 68 -9 210 4 105 9 210 13 253 9 74 -7 89 0 58 26 -12 10 -49 11
-158 6 -78 -3 -166 -9 -194 -13 l-53 -6 0 124 c0 68 4 131 10 139 5 9 5 19 -1
26 -12 14 29 21 195 30 118 7 119 7 97 25 -25 20 -36 21 -116 9z"/>
</g>
<g id="part-3" class="char-part">
  <path d="M510 309 c-36 -5 -84 -12 -107 -15 -24 -3 -43 -10 -43 -16 0 -7 14
-8 38 -5 20 3 73 9 116 13 l79 7 -7 -33 c-3 -19 -8 -36 -11 -39 -8 -7 -104
-19 -162 -20 -40 -1 -53 -5 -53 -16 0 -12 10 -14 53 -10 28 2 91 7 139 11 70
5 86 9 81 20 -7 18 16 74 31 74 6 1 0 10 -13 20 -25 21 -40 22 -141 9z"/>
</g>
</g>
</svg>