<?xml version="1.0" standalone="no"?>
<!DOCTYPE svg PUBLIC "-//W3C//DTD SVG 20010904//EN"
 "http://www.w3.org/TR/2001/REC-SVG-20010904/DTD/svg10.dtd">
<svg version="1.0" xmlns="http://www.w3.org/2000/svg"
 width="96.000000pt" height="68.000000pt" viewBox="0 0 96.000000 68.000000"
 preserveAspectRatio="xMidYMid meet">
<metadata>
Created by potrace 1.16, written by Peter Selinger 2001-2019
Combined from part_0.svg through part_5.svg with named groups
</metadata>
<g transform="translate(0.000000,68.000000) scale(0.100000,-0.100000)" fill="#000000" stroke="none">
<g id="part-0" class="char-part">
  <path d="M685 555 c-5 -2 -57 -9 -115 -16 -106 -13 -111 -26 -12 -28 37 -1 42
-4 42 -23 -1 -36 -24 -58 -60 -58 -27 0 -31 -2 -20 -15 8 -10 11 -48 9 -127
-4 -112 -4 -113 19 -111 12 2 22 0 22 -3 0 -16 -28 -54 -68 -91 -55 -52 -45
-54 34 -7 78 47 106 73 99 95 -5 14 2 18 45 21 59 4 70 1 70 -18 0 -18 36 -18
43 0 3 7 7 69 8 137 2 121 2 122 -22 132 -23 8 -76 5 -149 -9 l-35 -7 29 31
c16 17 26 37 23 45 -6 15 54 27 141 27 42 0 56 13 26 24 -16 6 -112 7 -129 1z
m57 -150 c0 -8 1 -20 2 -26 1 -7 -16 -13 -39 -14 -22 -1 -64 -6 -93 -10 l-54
-8 4 29 c3 32 26 40 126 43 39 1 52 -3 54 -14z m6 -79 c6 -28 -7 -33 -100 -41
l-88 -7 0 25 c0 22 5 25 78 34 97 13 106 12 110 -11z m0 -85 c-3 -20 -10 -22
-95 -26 l-93 -5 0 25 c0 23 4 25 48 26 26 0 65 4 87 8 46 9 58 2 53 -28z"/>
  <path d="M320 524 c-25 -7 -58 -13 -73 -13 -45 -1 -27 -26 21 -29 40 -3 150
13 160 23 3 3 1 9 -4 14 -17 16 -59 18 -104 5z"/>
  <path d="M395 415 c-5 -2 -63 -11 -127 -20 -122 -18 -155 -35 -68 -35 28 0 50
-4 50 -9 0 -43 -76 -168 -120 -195 -29 -18 -10 -22 23 -5 38 20 77 62 114 123
29 47 34 62 25 76 -9 15 -6 19 20 24 18 3 36 2 41 -3 6 -6 8 -58 5 -121 -5
-133 0 -139 69 -84 26 21 50 40 52 41 2 2 1 6 -2 9 -4 4 -18 -1 -31 -10 -14
-9 -30 -16 -35 -16 -5 0 -11 44 -13 100 l-3 100 27 0 c33 0 58 9 58 21 0 8
-63 11 -85 4z"/>
  <path d="M700 152 c0 -16 118 -124 129 -118 33 21 -3 69 -78 105 -51 24 -51
24 -51 13z"/>
</g>
<g id="part-1" class="char-part">
  <path d="M303 516 c-82 -15 -90 -26 -17 -26 80 0 136 10 131 24 -5 15 -40 16
-114 2z"/>
</g>
<g id="part-2" class="char-part">
  <path d="M355 255 c-1 -98 2 -125 13 -125 15 0 121 81 121 93 1 5 -14 -1 -33
-12 -56 -35 -58 -31 -55 72 4 92 4 92 -21 95 l-25 3 0 -126z"/>
</g>
<g id="part-3" class="char-part">
  <path d="M665 553 c-178 -22 -190 -24 -174 -34 8 -5 35 -9 62 -9 50 0 53 -3
37 -46 -16 -40 -4 -42 35 -4 24 23 32 37 25 45 -11 13 55 25 138 25 30 0 42 4
40 12 -7 21 -58 24 -163 11z"/>
</g>
<g id="part-4" class="char-part">
  <path d="M675 440 c-16 -4 -61 -8 -99 -9 -60 -1 -67 -3 -56 -16 9 -10 11 -41
8 -100 -4 -77 -3 -85 14 -85 10 0 18 6 18 14 0 10 21 16 78 20 42 4 85 10 95
12 12 4 17 0 17 -16 0 -16 4 -20 16 -16 9 3 19 6 24 6 4 0 8 31 8 69 0 38 3
77 6 88 11 35 -54 52 -129 33z m70 -51 c6 -26 5 -27 -37 -26 -24 0 -67 -3 -95
-8 l-53 -8 0 31 c0 30 0 30 68 37 37 3 74 7 82 9 20 3 27 -4 35 -35z m5 -69
c0 -26 -4 -30 -27 -30 -16 0 -58 -3 -95 -7 -67 -6 -68 -6 -68 19 0 23 5 25 73
35 120 16 117 17 117 -17z"/>
</g>
<g id="part-5" class="char-part">
  <path d="M580 164 c0 -7 -19 -31 -42 -53 -24 -22 -37 -41 -30 -41 6 0 12 5 12
11 0 6 7 9 15 6 8 -4 22 4 32 17 10 12 28 28 41 35 29 15 28 28 -3 33 -16 4
-25 1 -25 -8z"/>
  <path d="M730 128 c11 -12 20 -25 20 -29 0 -5 16 -20 35 -35 26 -20 39 -24 47
-16 15 15 0 32 -60 72 -54 35 -71 39 -42 8z"/>
</g>
</g>
</svg>