<?xml version="1.0" standalone="no"?>
<!DOCTYPE svg PUBLIC "-//W3C//DTD SVG 20010904//EN"
 "http://www.w3.org/TR/2001/REC-SVG-20010904/DTD/svg10.dtd">
<svg version="1.0" xmlns="http://www.w3.org/2000/svg"
 width="96.000000pt" height="68.000000pt" viewBox="0 0 96.000000 68.000000"
 preserveAspectRatio="xMidYMid meet">
<metadata>
Created by potrace 1.16, written by Peter Selinger 2001-2019
Combined from part_0.svg through part_5.svg with named groups
</metadata>
<g transform="translate(0.000000,68.000000) scale(0.100000,-0.100000)" fill="#000000" stroke="none">
<g id="part-0" class="char-part">
  <path d="M538 585 c-4 -4 -3 -18 3 -32 5 -13 9 -62 9 -107 0 -93 -2 -96 -77
-96 -18 0 -33 -4 -33 -9 0 -12 49 -20 83 -14 l28 6 -3 -79 c-2 -54 -7 -79 -15
-80 -7 -1 -42 -2 -78 -3 -72 -1 -84 -13 -30 -31 26 -8 44 -9 66 -1 16 6 99 13
184 17 85 4 155 10 155 14 0 18 -71 29 -148 23 l-82 -6 0 76 0 76 65 3 c87 4
88 22 3 26 l-68 3 0 38 c0 21 5 62 10 92 8 40 7 56 -2 65 -16 16 -61 27 -70
19z"/>
  <path d="M285 550 c-11 -5 -38 -6 -60 -4 l-41 6 4 -108 c5 -136 -10 -228 -49
-289 -34 -53 -32 -66 5 -38 27 20 70 92 80 135 6 25 9 27 26 16 17 -11 24 -8
50 17 l30 29 0 -71 c0 -80 -13 -103 -50 -83 -38 20 -35 1 5 -40 45 -46 58 -49
79 -18 13 18 16 55 16 193 0 93 4 184 9 201 5 17 5 37 1 43 -9 16 -79 23 -105
11z m45 -80 c0 -55 1 -54 -52 -39 -39 10 -44 21 -32 67 5 18 13 22 45 22 l39
0 0 -50z m0 -112 c0 -10 -39 -34 -67 -43 -22 -6 -23 -3 -23 43 l0 49 45 -21
c25 -12 45 -24 45 -28z"/>
</g>
<g id="part-1" class="char-part">
  <path d="M300 549 c-14 -6 -47 -8 -73 -4 l-48 6 8 -28 c4 -15 7 -76 6 -135 -1
-116 -20 -198 -54 -242 -25 -32 -18 -47 11 -21 24 21 70 112 70 137 0 14 6 16
28 12 20 -4 34 2 55 21 35 34 42 19 32 -71 -7 -72 -19 -84 -63 -65 -24 11 -23
8 13 -28 45 -47 59 -50 79 -19 22 34 27 425 6 438 -19 12 -38 12 -70 -1z m35
-74 c4 -31 6 -58 4 -60 -2 -2 -25 2 -52 8 -46 10 -47 11 -47 49 0 41 18 56 67
57 19 1 22 -6 28 -54z m-15 -95 c11 0 20 -7 20 -15 0 -19 -57 -55 -87 -55 -18
0 -23 6 -23 28 0 15 3 37 6 49 6 21 8 22 35 8 15 -8 37 -15 49 -15z"/>
</g>
<g id="part-2" class="char-part">
  <path d="M537 584 c-3 -3 -2 -17 4 -31 5 -13 9 -62 9 -107 0 -92 -3 -96 -77
-96 -17 0 -34 -4 -37 -9 -8 -12 57 -23 88 -15 l26 6 0 -75 c0 -86 -1 -87 -102
-87 -64 0 -76 -14 -25 -28 21 -6 58 -5 107 4 41 7 126 13 188 14 61 0 112 4
112 9 0 20 -65 31 -146 24 l-84 -6 0 77 0 76 70 0 c41 0 70 4 70 10 0 18 -52
31 -97 24 l-43 -6 0 44 c0 24 6 68 14 97 l14 53 -34 14 c-37 15 -48 17 -57 8z"/>
</g>
</g>
</svg>