<?xml version="1.0" standalone="no"?>
<!DOCTYPE svg PUBLIC "-//W3C//DTD SVG 20010904//EN"
 "http://www.w3.org/TR/2001/REC-SVG-20010904/DTD/svg10.dtd">
<svg version="1.0" xmlns="http://www.w3.org/2000/svg"
 width="96.000000pt" height="68.000000pt" viewBox="0 0 96.000000 68.000000"
 preserveAspectRatio="xMidYMid meet">
<metadata>
Created by potrace 1.16, written by Peter Selinger 2001-2019
Combined from part_0.svg through part_5.svg with named groups
</metadata>
<g transform="translate(0.000000,68.000000) scale(0.100000,-0.100000)" fill="#000000" stroke="none">
<g id="part-0" class="char-part">
  <path d="M428 645 c-3 -3 -2 -23 3 -43 15 -63 11 -112 -8 -119 -28 -11 -108
-9 -107 2 1 6 5 24 8 41 6 26 3 32 -19 42 -40 19 -48 15 -42 -18 4 -16 0 -47
-8 -69 -11 -33 -11 -42 0 -57 12 -17 18 -17 57 -6 40 12 170 34 266 45 33 4
42 2 42 -10 0 -9 8 -13 22 -11 24 3 46 51 51 111 2 25 -3 31 -26 39 -35 12
-66 3 -49 -14 7 -7 12 -26 12 -44 0 -36 -15 -44 -92 -44 l-46 0 5 75 c5 60 3
75 -8 75 -8 0 -23 3 -34 6 -11 3 -23 2 -27 -1z"/>
  <path d="M639 406 c-2 -2 -62 -9 -134 -15 -72 -7 -148 -14 -170 -16 -22 -2
-70 -7 -107 -11 -38 -4 -68 -10 -68 -14 0 -18 66 -21 158 -6 53 8 129 17 168
20 68 6 72 5 78 -17 9 -34 7 -240 -3 -256 -7 -11 -17 -12 -51 -3 -50 12 -48 5
8 -42 35 -29 47 -34 63 -26 34 18 39 46 39 199 l0 151 87 0 c85 0 86 0 68 20
-14 16 -31 20 -75 20 -31 0 -59 -2 -61 -4z"/>
  <path d="M380 294 c-27 -9 -61 -13 -84 -9 -38 6 -39 5 -24 -12 9 -10 19 -34
23 -53 11 -53 25 -74 38 -61 6 6 37 11 69 11 46 0 56 3 52 14 -3 8 4 35 15 61
l20 46 -25 9 c-30 12 -27 12 -84 -6z m34 -53 c-10 -48 -13 -51 -43 -51 -34 0
-38 4 -42 45 -4 27 -1 30 31 35 50 8 61 2 54 -29z"/>
</g>
<g id="part-1" class="char-part">
  <path d="M435 558 l0 -83 -63 -3 -62 -3 6 42 c5 30 3 43 -7 50 -27 17 -39 9
-39 -23 0 -17 -5 -47 -12 -65 -10 -27 -10 -36 3 -48 12 -13 20 -13 64 1 28 8
104 22 169 31 109 14 120 14 128 -1 5 -9 15 -16 22 -16 16 0 22 14 41 85 15
55 10 65 -35 65 -24 0 -25 -2 -22 -50 l4 -50 -34 0 c-18 0 -51 -3 -72 -7 l-39
-6 6 75 c7 80 3 88 -42 88 -14 0 -17 -11 -16 -82z"/>
</g>
<g id="part-2" class="char-part">
  <path d="M639 406 c-2 -2 -112 -14 -244 -26 -132 -11 -241 -23 -244 -25 -6 -7
47 -25 72 -25 12 0 56 7 97 15 41 8 158 17 260 21 210 6 222 8 194 29 -17 13
-124 22 -135 11z"/>
</g>
<g id="part-3" class="char-part">
  <path d="M568 249 c2 -66 1 -132 -3 -146 -5 -23 -9 -24 -41 -18 -20 3 -43 9
-52 11 -19 6 52 -62 81 -77 13 -8 23 -4 42 15 25 25 25 28 25 181 l0 155 -27
0 -28 0 3 -121z"/>
</g>
<g id="part-4" class="char-part">
  <path d="M385 294 c-25 -10 -56 -13 -84 -10 -41 6 -43 5 -29 -11 9 -10 19 -34
23 -53 11 -53 25 -74 38 -61 6 6 37 11 68 11 52 0 57 2 52 20 -3 11 4 36 16
56 12 20 21 38 19 39 -10 8 -48 25 -55 24 -4 0 -26 -7 -48 -15z m30 -24 c3 -5
3 -25 -1 -45 -6 -32 -9 -35 -40 -35 -37 0 -41 3 -45 45 -4 27 -1 31 31 36 19
4 38 7 42 8 4 0 10 -3 13 -9z"/>
</g>
</g>
</svg>