<?xml version="1.0" standalone="no"?>
<!DOCTYPE svg PUBLIC "-//W3C//DTD SVG 20010904//EN"
 "http://www.w3.org/TR/2001/REC-SVG-20010904/DTD/svg10.dtd">
<svg version="1.0" xmlns="http://www.w3.org/2000/svg"
 width="96.000000pt" height="68.000000pt" viewBox="0 0 96.000000 68.000000"
 preserveAspectRatio="xMidYMid meet">
<metadata>
Created by potrace 1.16, written by Peter Selinger 2001-2019
Combined from part_0.svg through part_5.svg with named groups
</metadata>
<g transform="translate(0.000000,68.000000) scale(0.100000,-0.100000)" fill="#000000" stroke="none">
<g id="part-0" class="char-part">
  <path d="M576 566 l6 -43 -52 -7 c-62 -8 -62 -14 3 -17 38 -2 47 -6 47 -21 0
-13 -11 -19 -40 -24 -51 -8 -52 -24 -1 -24 22 0 42 -4 45 -8 12 -19 -15 -30
-91 -37 -46 -4 -83 -11 -83 -16 0 -12 45 -11 145 0 44 5 129 13 189 16 97 6
107 9 93 22 -13 13 -30 14 -112 6 -80 -7 -98 -6 -103 5 -7 19 16 32 61 32 20
0 37 5 37 10 0 6 -23 10 -51 10 -43 0 -50 3 -47 17 2 14 18 20 62 25 61 8 74
13 62 25 -6 7 -50 7 -101 0 -17 -2 -19 3 -17 27 3 30 -10 46 -40 46 -15 0 -17
-7 -12 -44z"/>
  <path d="M335 460 c-16 -4 -56 -11 -87 -15 -41 -4 -58 -11 -58 -21 0 -9 11
-14 30 -14 23 0 30 -5 30 -18 0 -38 -115 -169 -145 -166 -7 1 -12 -5 -12 -12
0 -8 9 -14 19 -14 22 0 80 28 89 43 12 17 29 -3 35 -42 l6 -39 67 6 c75 5 74
5 78 34 2 11 11 36 20 55 14 30 14 36 2 44 -19 12 -72 11 -104 -1 -41 -16 -47
-3 -20 44 14 24 25 50 25 58 0 10 14 18 41 22 50 8 82 24 74 37 -7 11 -48 10
-90 -1z m25 -189 c0 -10 -3 -33 -6 -50 -6 -29 -9 -31 -50 -31 -31 0 -44 4 -44
14 0 7 -3 27 -6 44 -7 33 -12 31 89 40 11 1 17 -5 17 -17z"/>
  <path d="M595 339 c-22 -4 -56 -8 -75 -8 l-35 -1 0 -103 0 -102 28 3 c26 3 28
2 17 -17 -6 -12 -34 -39 -61 -61 -56 -44 -52 -53 8 -18 77 45 108 70 108 86 0
13 11 18 53 20 30 2 59 -1 66 -7 25 -21 35 5 39 101 2 83 0 97 -15 107 -20 12
-74 13 -133 0z m79 -15 c9 -3 16 -15 16 -25 0 -14 -7 -19 -27 -19 -16 0 -52
-3 -80 -6 -49 -6 -53 -5 -53 14 0 21 2 22 90 35 14 3 28 5 32 6 3 0 13 -2 22
-5z m16 -84 c0 -14 -7 -20 -24 -20 -12 0 -51 -3 -85 -6 -57 -6 -61 -6 -61 14
0 22 16 26 128 30 36 2 42 -1 42 -18z m0 -60 c0 -18 -7 -20 -65 -22 -36 -1
-73 -2 -82 -2 -10 -1 -19 7 -21 16 -3 14 7 18 60 21 35 2 73 4 86 5 16 1 22
-3 22 -18z"/>
  <path d="M710 65 c55 -56 90 -70 90 -37 0 25 -36 55 -88 75 -23 10 -46 17 -49
17 -4 0 17 -25 47 -55z"/>
</g>
<g id="part-1" class="char-part">
  <path d="M300 453 c-41 -8 -84 -18 -95 -23 -17 -7 -15 -9 12 -9 17 -1 34 -5
38 -11 16 -27 -55 -127 -130 -183 -39 -29 -39 -29 -10 -23 17 4 48 20 70 35
45 31 129 147 121 167 -3 8 6 15 25 18 16 3 43 9 59 12 27 5 43 24 21 24 -5 0
-15 2 -23 4 -7 1 -47 -3 -88 -11z"/>
</g>
<g id="part-2" class="char-part">
  <path d="M325 305 c-22 -8 -50 -15 -61 -15 -37 0 -46 -22 -33 -77 13 -52 28
-76 36 -55 3 8 26 12 64 12 52 0 59 2 59 20 0 11 7 38 16 60 24 59 -9 80 -81
55z m30 -25 c4 -6 4 -29 0 -50 -7 -40 -7 -40 -51 -40 -31 0 -44 4 -44 14 0 7
-3 27 -6 44 -6 30 -5 31 37 35 24 2 47 4 51 5 4 1 10 -3 13 -8z"/>
</g>
<g id="part-3" class="char-part">
  <path d="M569 591 c6 -11 11 -31 11 -45 0 -21 -5 -26 -27 -27 -90 -4 -113 -19
-30 -19 50 0 57 -2 57 -19 0 -16 -9 -21 -45 -27 -54 -8 -50 -24 6 -24 28 0 39
-4 39 -15 0 -8 9 -15 20 -15 13 0 20 7 20 19 0 20 25 31 73 31 15 0 27 5 27
10 0 6 -22 10 -50 10 -37 0 -50 4 -50 14 0 14 11 18 93 32 20 3 37 10 37 14 0
15 -34 20 -75 10 -47 -11 -50 -8 -50 33 0 29 -3 32 -33 35 -31 3 -33 2 -23
-17z"/>
</g>
<g id="part-4" class="char-part">
  <path d="M739 416 c-2 -2 -79 -12 -172 -22 -107 -12 -164 -21 -157 -28 6 -6
50 -5 122 2 62 6 159 14 216 18 97 6 122 14 86 28 -18 7 -88 8 -95 2z"/>
</g>
<g id="part-5" class="char-part">
  <path d="M540 117 c0 -4 -21 -29 -47 -55 -27 -25 -38 -38 -25 -28 12 11 22 16
22 12 0 -4 11 5 25 19 14 14 30 25 36 25 6 0 7 4 4 10 -3 6 1 7 9 4 10 -4 16
-1 16 9 0 10 -8 15 -20 14 -11 -1 -20 -5 -20 -10z"/>
  <path d="M719 66 c44 -45 90 -61 70 -24 -6 10 -14 16 -20 13 -5 -4 -8 -1 -7 5
2 7 -17 21 -42 32 l-45 19 44 -45z"/>
</g>
</g>
</svg>