<?xml version="1.0" standalone="no"?>
<!DOCTYPE svg PUBLIC "-//W3C//DTD SVG 20010904//EN"
 "http://www.w3.org/TR/2001/REC-SVG-20010904/DTD/svg10.dtd">
<svg version="1.0" xmlns="http://www.w3.org/2000/svg"
 width="96.000000pt" height="68.000000pt" viewBox="0 0 96.000000 68.000000"
 preserveAspectRatio="xMidYMid meet">
<metadata>
Created by potrace 1.16, written by Peter Selinger 2001-2019
Combined from part_0.svg through part_5.svg with named groups
</metadata>
<g transform="translate(0.000000,68.000000) scale(0.100000,-0.100000)" fill="#000000" stroke="none">
<g id="part-0" class="char-part">
  <path d="M534 594 c4 -10 10 -44 13 -75 l6 -56 -62 -7 c-78 -9 -79 -26 -1 -26
l60 0 0 -49 0 -48 -62 -7 -61 -7 28 -19 c23 -15 115 -108 115 -116 0 -7 -77
-48 -122 -64 l-53 -20 42 4 c23 2 68 16 99 30 l58 27 35 -35 c21 -20 50 -37
71 -40 41 -7 130 5 133 18 1 4 -30 17 -70 27 -75 19 -113 35 -124 52 -4 5 15
41 42 78 27 38 49 71 49 73 0 7 -60 25 -73 21 -65 -20 -67 -19 -67 34 0 48 0
48 38 55 20 3 49 6 65 6 18 0 27 5 27 16 0 13 -11 15 -62 12 -70 -3 -66 -8
-54 74 5 33 3 45 -6 45 -7 0 -26 4 -42 8 -26 7 -28 6 -22 -11z m90 -343 c-15
-23 -30 -41 -33 -41 -10 0 -95 89 -90 94 2 2 33 7 69 11 36 4 67 9 70 12 3 3
6 -4 8 -15 2 -11 -9 -39 -24 -61z"/>
  <path d="M263 523 c1 -37 -5 -92 -12 -120 l-13 -53 -68 0 c-38 0 -71 -4 -74
-9 -3 -4 6 -18 19 -31 22 -20 28 -22 66 -12 44 11 45 9 24 -40 -5 -13 -1 -20
11 -25 75 -27 74 -46 -7 -90 -27 -14 -49 -30 -49 -35 0 -14 52 2 103 33 50 30
57 30 94 -4 26 -23 53 -16 53 12 0 16 -23 38 -57 56 -2 1 6 18 16 39 11 20 24
50 30 67 5 16 21 34 35 41 27 12 35 28 13 28 -7 0 -18 9 -25 20 -8 13 -23 20
-43 20 -28 0 -31 -3 -27 -25 5 -21 1 -25 -29 -31 -19 -4 -36 -5 -38 -3 -2 2
10 45 26 94 35 109 35 111 5 119 -13 3 -31 8 -39 12 -12 4 -14 -7 -14 -63z
m81 -215 c-11 -52 -33 -80 -58 -72 -33 10 -39 20 -31 53 5 23 14 33 33 37 15
3 32 7 37 9 23 8 26 3 19 -27z"/>
</g>
<g id="part-1" class="char-part">
  <path d="M267 536 c7 -54 -15 -176 -32 -182 -6 -3 -40 -8 -75 -12 -61 -7 -63
-8 -46 -24 20 -20 52 -23 91 -8 23 9 26 8 21 -6 -20 -52 -18 -59 23 -82 23
-13 41 -25 41 -27 0 -2 -28 -22 -62 -46 -50 -33 -57 -40 -33 -35 17 4 50 20
74 36 l44 28 34 -25 c31 -24 63 -26 63 -4 0 5 -14 21 -31 36 l-32 26 20 37
c11 20 26 54 33 75 8 25 17 37 30 37 10 0 22 5 25 10 3 6 -1 10 -9 10 -9 0
-25 9 -37 21 -26 26 -54 21 -54 -11 0 -21 -6 -26 -37 -31 -47 -7 -47 -4 -9
111 26 77 27 86 12 97 -9 7 -26 13 -37 13 -20 0 -21 -4 -17 -44z m84 -224 c-5
-16 -16 -42 -25 -60 -16 -30 -17 -31 -48 -18 -40 17 -43 27 -24 65 15 28 33
36 83 40 19 1 21 -2 14 -27z"/>
</g>
<g id="part-2" class="char-part">
  <path d="M535 593 c4 -10 9 -43 12 -74 l6 -56 -62 -7 c-78 -9 -79 -26 -1 -26
l60 0 0 -45 c0 -38 3 -45 20 -45 17 0 20 7 20 49 l0 50 58 6 c73 8 85 12 76
26 -4 8 -28 10 -71 6 -61 -6 -63 -6 -59 16 19 90 18 97 -9 107 -41 15 -58 13
-50 -7z"/>
</g>
<g id="part-3" class="char-part">
  <path d="M605 344 c-38 -7 -95 -16 -125 -21 l-55 -9 30 -16 c17 -9 49 -39 72
-66 l42 -50 -27 -18 c-15 -10 -56 -28 -92 -41 -52 -18 -59 -23 -34 -23 35 0
118 26 152 48 21 14 25 12 68 -28 l46 -43 66 7 c91 10 108 21 52 36 -77 19
-136 40 -155 54 -16 12 -14 18 34 85 28 39 49 76 46 80 -9 16 -49 17 -120 5z
m45 -34 c0 -15 -38 -88 -50 -95 -12 -8 -103 76 -93 86 16 16 143 23 143 9z"/>
</g>
</g>
</svg>