<?xml version="1.0" standalone="no"?>
<!DOCTYPE svg PUBLIC "-//W3C//DTD SVG 20010904//EN"
 "http://www.w3.org/TR/2001/REC-SVG-20010904/DTD/svg10.dtd">
<svg version="1.0" xmlns="http://www.w3.org/2000/svg"
 width="96.000000pt" height="68.000000pt" viewBox="0 0 96.000000 68.000000"
 preserveAspectRatio="xMidYMid meet">
<metadata>
Created by potrace 1.16, written by Peter Selinger 2001-2019
Combined from part_0.svg through part_5.svg with named groups
</metadata>
<g transform="translate(0.000000,68.000000) scale(0.100000,-0.100000)" fill="#000000" stroke="none">
<g id="part-0" class="char-part">
  <path d="M290 625 c0 -25 -29 -76 -71 -127 -22 -26 -39 -49 -39 -52 0 -17 35
-1 81 39 29 25 55 45 58 45 3 1 26 2 51 4 95 7 190 28 190 41 0 21 -28 22
-127 4 -51 -9 -93 -15 -93 -13 0 3 5 13 12 23 9 15 9 23 -1 35 -18 21 -61 21
-61 1z"/>
  <path d="M395 498 c-27 -5 -61 -12 -75 -16 l-25 -6 25 -4 c33 -6 190 19 190
30 0 10 -49 8 -115 -4z"/>
  <path d="M505 439 c-27 -4 -105 -13 -172 -19 -68 -7 -135 -15 -150 -20 l-28
-7 28 -8 c15 -4 101 0 190 9 89 9 165 16 168 16 4 0 9 -55 11 -122 3 -99 8
-131 25 -163 34 -65 67 -87 137 -92 87 -6 93 1 65 77 -13 35 -24 59 -25 54 -2
-5 -8 -28 -14 -51 -8 -32 -16 -43 -30 -43 -38 0 -69 23 -95 72 -24 44 -27 58
-23 126 2 48 11 92 23 116 18 38 18 39 0 52 -21 15 -36 16 -110 3z"/>
  <path d="M360 340 c-19 -5 -68 -10 -107 -12 l-73 -3 -2 -100 c-2 -141 3 -176
20 -148 4 6 49 15 103 18 93 7 97 7 113 -16 14 -21 18 -22 31 -8 11 11 16 44
17 137 3 149 -2 155 -102 132z m61 -30 c0 -5 0 -39 0 -75 0 -124 3 -114 -38
-113 -21 1 -68 -2 -105 -6 -78 -9 -73 -19 -62 117 l7 77 32 0 c21 0 35 -6 39
-16 12 -31 6 -44 -18 -44 -14 0 -28 -4 -31 -10 -4 -6 5 -10 19 -10 19 0 26 -5
26 -19 0 -11 -4 -23 -10 -26 -5 -3 -15 -15 -21 -26 -9 -18 -8 -19 8 -11 10 6
26 20 35 31 23 27 30 26 57 -5 12 -14 27 -24 32 -22 22 7 13 24 -24 43 -45 24
-48 45 -7 45 17 0 30 5 30 10 0 6 -11 10 -25 10 -20 0 -25 5 -25 24 0 13 -6
27 -12 29 -7 3 11 6 40 6 28 1 52 -3 53 -9z"/>
</g>
<g id="part-1" class="char-part">
  <path d="M285 595 c-9 -25 -37 -70 -61 -100 -25 -30 -41 -55 -35 -55 10 0 106
73 116 90 3 5 26 10 51 10 57 0 186 20 198 31 20 18 -29 21 -113 5 -115 -21
-118 -21 -95 5 19 21 18 21 -5 40 -13 10 -27 19 -31 19 -4 0 -15 -20 -25 -45z"/>
</g>
<g id="part-2" class="char-part">
  <path d="M535 445 c-5 -3 -93 -13 -194 -24 -101 -11 -186 -23 -189 -25 -15
-16 72 -17 207 -2 86 9 163 16 172 16 15 0 17 -17 21 -117 3 -101 7 -125 28
-168 36 -71 78 -97 155 -93 67 3 70 8 45 78 -7 19 -15 42 -18 50 -5 17 -6 14
-22 -47 -9 -35 -15 -43 -34 -43 -32 0 -73 34 -96 81 -27 52 -27 151 0 221 19
50 19 54 3 66 -16 11 -56 15 -78 7z"/>
</g>
<g id="part-3" class="char-part">
  <path d="M355 340 c-22 -5 -70 -10 -107 -11 l-66 -3 -4 -110 c-4 -103 5 -163
21 -138 3 5 52 13 107 17 98 7 102 7 109 -14 8 -25 32 -28 39 -3 3 9 6 70 8
135 3 145 0 148 -107 127z m65 -119 l0 -98 -56 -1 c-31 0 -78 -3 -105 -7 -57
-8 -54 -15 -43 118 l7 76 36 4 c20 2 64 4 99 5 l62 2 0 -99z"/>
</g>
<g id="part-4" class="char-part">
  <path d="M296 285 c5 -30 3 -33 -28 -40 -33 -8 -33 -8 -5 -12 15 -3 27 -10 27
-17 0 -14 -36 -65 -55 -78 -6 -5 -6 -8 2 -8 6 0 28 16 49 35 39 37 41 37 83
-3 7 -7 18 -11 23 -10 20 7 10 24 -25 43 -45 24 -48 45 -7 45 17 0 30 5 30 10
0 6 -11 10 -25 10 -20 0 -25 5 -25 24 0 17 -7 25 -25 28 -24 5 -25 3 -19 -27z"/>
</g>
</g>
</svg>