<?xml version="1.0" standalone="no"?>
<!DOCTYPE svg PUBLIC "-//W3C//DTD SVG 20010904//EN"
 "http://www.w3.org/TR/2001/REC-SVG-20010904/DTD/svg10.dtd">
<svg version="1.0" xmlns="http://www.w3.org/2000/svg"
 width="96.000000pt" height="68.000000pt" viewBox="0 0 96.000000 68.000000"
 preserveAspectRatio="xMidYMid meet">
<metadata>
Created by potrace 1.16, written by Peter Selinger 2001-2019
Combined from part_0.svg through part_5.svg with named groups
</metadata>
<g transform="translate(0.000000,68.000000) scale(0.100000,-0.100000)" fill="#000000" stroke="none">
<g id="part-0" class="char-part">
  <path d="M240 541 c0 -48 -66 -172 -132 -246 -57 -66 -8 -53 59 15 35 36 66
37 71 2 3 -17 -2 -22 -20 -22 -36 0 -68 -11 -62 -21 3 -5 23 -9 45 -9 l39 0 0
-50 c0 -48 -1 -49 -37 -59 -21 -6 -55 -11 -75 -11 -42 0 -47 -9 -20 -33 20
-18 67 -23 77 -8 3 5 29 17 58 27 28 9 58 19 66 22 9 3 12 1 7 -6 -4 -7 -1
-12 8 -12 18 0 75 51 111 100 l25 34 0 -40 c0 -21 -5 -58 -10 -81 -7 -28 -6
-51 1 -70 10 -27 11 -27 25 -9 10 15 14 53 14 152 l0 132 46 7 c53 8 48 29 -6
27 -30 -1 -31 1 -25 29 4 17 2 36 -5 44 -9 10 -3 18 30 36 22 12 40 26 40 30
0 4 -13 10 -30 14 -25 6 -35 1 -67 -32 -21 -21 -49 -46 -63 -55 l-25 -17 34 9
c41 11 40 12 43 -26 1 -16 6 -32 12 -36 5 -3 -16 -9 -47 -13 -61 -8 -68 -25
-11 -25 23 0 34 -5 34 -14 0 -14 -37 -85 -50 -96 -3 -3 -14 -18 -24 -34 -12
-19 -21 -25 -28 -18 -7 7 -19 7 -34 2 -23 -9 -24 -8 -24 39 0 48 1 49 36 58
47 11 48 27 2 31 -30 3 -38 7 -38 23 0 14 9 21 30 26 17 3 29 11 27 17 -4 13
-46 14 -95 2 l-33 -8 20 35 c48 86 57 92 79 57 16 -26 52 -27 52 -1 0 12 -13
25 -34 35 -22 10 -36 25 -38 39 -4 31 -58 38 -58 8z"/>
  <path d="M644 458 c9 -77 -9 -228 -33 -276 -11 -22 -34 -51 -51 -65 -38 -32
-39 -42 -1 -23 33 18 86 76 96 105 3 12 10 21 14 21 4 0 25 -29 46 -66 43 -74
57 -84 103 -77 42 7 40 15 -5 39 -46 24 -133 129 -133 160 0 20 14 38 30 39
11 1 90 49 90 55 0 12 -53 35 -57 25 -10 -30 -45 -76 -52 -69 -5 5 -5 45 0 88
4 44 6 84 3 88 -3 4 -17 8 -31 8 -25 0 -25 -1 -19 -52z"/>
  <path d="M540 335 c0 -17 35 -55 51 -55 27 0 24 25 -6 44 -24 16 -45 21 -45
11z"/>
  <path d="M500 266 c0 -15 16 -30 43 -39 28 -10 21 28 -8 41 -33 15 -35 15 -35
-2z"/>
  <path d="M319 225 c-18 -39 -12 -42 31 -20 35 18 38 30 11 45 -26 13 -24 14
-42 -25z"/>
  <path d="M160 213 c0 -17 32 -53 46 -53 11 0 14 8 12 28 -2 21 -9 28 -30 30
-16 2 -28 0 -28 -5z"/>
</g>
<g id="part-1" class="char-part">
  <path d="M245 533 c-13 -61 -115 -243 -136 -243 -4 0 -13 -9 -19 -21 -11 -19
-10 -20 11 -9 12 7 41 30 65 52 47 44 74 45 74 4 0 -21 -6 -25 -40 -31 -51 -9
-52 -25 -1 -25 39 0 40 0 47 -46 3 -25 2 -50 -3 -55 -5 -5 -39 -12 -76 -16
-71 -6 -85 -20 -43 -42 19 -11 28 -10 52 2 16 8 59 24 97 36 67 23 95 49 37
36 -30 -7 -30 -6 -30 38 0 48 9 60 54 71 35 9 27 19 -14 18 -27 -1 -30 3 -30
29 0 24 4 29 25 29 14 0 25 5 25 11 0 8 -18 10 -60 6 -33 -4 -60 -4 -60 -1 0
11 61 114 68 114 3 0 19 -12 34 -27 23 -22 31 -24 41 -14 10 10 7 16 -12 32
-13 10 -29 19 -37 19 -8 0 -14 8 -14 18 0 44 -47 56 -55 15z"/>
  <path d="M326 233 c-3 -10 -9 -24 -12 -31 -5 -10 2 -9 26 3 32 16 36 38 8 43
-8 2 -18 -5 -22 -15z"/>
  <path d="M172 196 c14 -31 37 -41 45 -19 7 17 -20 43 -44 43 -10 0 -10 -5 -1
-24z"/>
</g>
<g id="part-2" class="char-part">
  <path d="M480 512 c-14 -15 -41 -39 -60 -54 l-35 -27 32 9 c35 9 133 56 148
71 6 7 5 13 -5 19 -26 17 -54 10 -80 -18z"/>
</g>
<g id="part-3" class="char-part">
  <path d="M471 460 c-10 -6 -12 -19 -7 -49 l6 -40 -50 -7 c-60 -8 -66 -24 -10
-24 22 0 40 -5 40 -10 0 -21 -41 -90 -85 -145 -25 -30 -42 -55 -39 -55 15 0
68 46 100 88 l37 47 -7 -65 c-3 -36 -9 -76 -12 -90 -3 -15 1 -33 10 -45 25
-32 36 -2 36 103 l0 93 26 -20 c27 -21 44 -20 44 4 0 7 -16 19 -36 25 -31 11
-35 15 -32 43 3 27 8 33 41 40 56 13 49 32 -11 27 -20 -1 -22 2 -17 33 6 38
-11 62 -34 47z"/>
</g>
<g id="part-4" class="char-part">
  <path d="M636 513 c-2 -2 1 -21 6 -41 10 -34 4 -178 -9 -232 -11 -46 -42 -97
-78 -128 -39 -35 -38 -40 3 -18 35 18 75 62 97 105 l17 34 43 -73 c24 -41 51
-77 60 -82 16 -10 75 -1 75 10 0 4 -20 19 -44 33 -48 30 -126 127 -126 158 0
14 18 29 60 52 58 31 60 33 44 50 -25 27 -36 24 -59 -18 -34 -62 -41 -52 -34
44 4 49 5 91 3 94 -5 8 -52 18 -58 12z"/>
  <path d="M540 335 c0 -17 35 -55 51 -55 22 0 25 22 7 38 -17 12 -58 25 -58 17z"/>
</g>
</g>
</svg>