<?xml version="1.0" standalone="no"?>
<!DOCTYPE svg PUBLIC "-//W3C//DTD SVG 20010904//EN"
 "http://www.w3.org/TR/2001/REC-SVG-20010904/DTD/svg10.dtd">
<svg version="1.0" xmlns="http://www.w3.org/2000/svg"
 width="96.000000pt" height="68.000000pt" viewBox="0 0 96.000000 68.000000"
 preserveAspectRatio="xMidYMid meet">
<metadata>
Created by potrace 1.16, written by Peter Selinger 2001-2019
Combined from part_0.svg through part_5.svg with named groups
</metadata>
<g transform="translate(0.000000,68.000000) scale(0.100000,-0.100000)" fill="#000000" stroke="none">
<g id="part-0" class="char-part">
  <path d="M510 465 c0 -113 3 -146 13 -143 6 3 14 18 17 34 4 20 12 30 25 31
11 1 50 5 88 8 37 4 67 10 67 15 0 14 -42 16 -108 4 -66 -12 -74 -10 -66 23 6
23 40 33 105 33 23 0 39 5 39 11 0 8 -22 10 -75 5 -74 -7 -75 -7 -71 16 3 13
5 26 5 29 1 4 33 10 71 14 39 4 70 11 70 16 0 11 -53 11 -102 0 -35 -8 -37 -7
-40 18 -2 15 -10 27 -20 29 -17 3 -18 -9 -18 -143z"/>
  <path d="M343 583 c2 -10 6 -24 8 -32 3 -9 -6 -15 -26 -17 -114 -14 -121 -16
-97 -25 26 -10 102 -1 102 12 0 5 7 6 15 3 8 -4 15 -16 15 -29 0 -21 -6 -24
-60 -30 -33 -4 -63 -12 -66 -17 -5 -7 15 -8 60 -4 66 8 66 7 66 -17 0 -23 -5
-26 -67 -36 -38 -6 -79 -12 -93 -13 l-25 -3 24 -14 c20 -11 33 -10 83 4 33 9
62 15 64 12 3 -2 -7 -19 -21 -36 -32 -37 -13 -43 30 -9 41 32 55 76 55 172 0
88 -4 96 -52 96 -15 0 -19 -5 -15 -17z"/>
  <path d="M424 328 c9 -12 16 -25 16 -29 0 -3 -47 -12 -105 -19 -67 -7 -103
-16 -99 -22 7 -11 105 -5 139 8 13 5 16 3 13 -7 -7 -23 -118 -108 -176 -135
-30 -14 -51 -28 -49 -31 7 -6 92 25 132 49 17 10 34 18 39 18 5 0 6 -31 3 -71
-4 -53 -3 -71 7 -75 8 -3 42 14 77 37 35 23 53 38 39 34 -14 -4 -38 -9 -55
-12 l-30 -5 0 65 c0 57 3 68 24 86 13 12 28 21 33 21 4 0 8 8 8 19 0 16 9 18
68 20 90 2 138 11 120 22 -7 5 -43 6 -80 3 -59 -6 -68 -4 -68 10 0 9 -12 21
-26 26 -39 15 -47 12 -30 -12z"/>
  <path d="M610 252 c0 -14 -56 -72 -69 -72 -6 0 -25 9 -40 21 -16 12 -37 19
-46 17 -14 -2 -5 -12 31 -35 27 -18 78 -55 114 -84 l65 -51 63 5 c80 6 100 22
40 32 -56 10 -179 53 -197 70 -17 17 -8 32 27 40 15 3 36 13 47 21 20 15 20
15 1 30 -22 16 -36 18 -36 6z"/>
</g>
<g id="part-1" class="char-part">
  <path d="M340 591 c0 -4 5 -12 10 -17 6 -6 13 -39 16 -75 6 -68 -11 -136 -43
-171 -27 -30 0 -20 34 12 40 37 55 90 51 177 -3 67 -3 67 -35 74 -18 3 -33 3
-33 0z"/>
</g>
<g id="part-2" class="char-part">
  <path d="M510 391 c0 -55 3 -71 15 -71 8 0 17 14 21 35 6 35 7 35 58 36 28 0
69 4 91 8 l40 8 -28 11 c-20 8 -41 9 -70 2 -67 -15 -85 -13 -89 12 -2 13 -11
24 -20 26 -16 3 -18 -5 -18 -67z"/>
</g>
<g id="part-3" class="char-part">
  <path d="M423 326 c9 -14 17 -27 17 -30 0 -2 -36 -7 -81 -11 -45 -4 -93 -11
-107 -15 -23 -6 -24 -9 -9 -15 9 -4 75 0 145 9 70 9 156 16 190 16 47 0 62 3
59 13 -3 8 -26 11 -78 10 -68 -2 -75 -1 -84 20 -6 14 -21 23 -39 25 -29 4 -29
4 -13 -22z"/>
</g>
<g id="part-4" class="char-part">
  <path d="M387 256 c-8 -20 -103 -91 -179 -133 -56 -31 -59 -34 -28 -29 19 4
57 18 84 31 68 35 176 116 176 132 0 18 -46 17 -53 -1z"/>
</g>
<g id="part-5" class="char-part">
  <path d="M610 240 c0 -5 -10 -20 -22 -32 -17 -17 -18 -20 -4 -15 10 4 22 7 27
7 6 0 7 5 3 12 -5 7 -2 9 9 5 9 -3 18 1 21 9 9 23 8 24 -14 24 -11 0 -20 -4
-20 -10z"/>
  <path d="M464 205 c11 -8 26 -15 34 -15 7 0 10 -4 7 -10 -4 -6 1 -7 11 -3 11
4 15 3 10 -5 -4 -6 5 -19 21 -29 15 -10 30 -20 33 -24 3 -3 25 -20 49 -37 48
-35 74 -38 141 -18 l45 13 -60 8 c-33 4 -79 16 -102 26 -65 29 -97 42 -108 43
-5 1 -10 7 -10 14 0 7 -15 21 -33 32 -37 23 -67 27 -38 5z m213 -131 c-3 -3
-12 -4 -19 -1 -8 3 -5 6 6 6 11 1 17 -2 13 -5z"/>
  <path d="M347 164 c-13 -14 -7 -54 8 -54 8 0 15 9 15 20 0 11 0 23 1 27 1 10
-16 15 -24 7z"/>
  <path d="M345 83 c1 -10 -2 -28 -6 -40 -7 -19 -5 -23 11 -23 24 0 105 49 96
58 -4 3 -14 -1 -23 -10 -12 -13 -21 -14 -39 -6 -13 6 -20 16 -17 24 3 8 -1 14
-10 14 -9 0 -14 -7 -12 -17z m32 -38 c0 -8 -4 -12 -9 -9 -4 3 -8 9 -8 15 0 5
4 9 8 9 5 0 9 -7 9 -15z"/>
</g>
</g>
</svg>