<?xml version="1.0" standalone="no"?>
<!DOCTYPE svg PUBLIC "-//W3C//DTD SVG 20010904//EN"
 "http://www.w3.org/TR/2001/REC-SVG-20010904/DTD/svg10.dtd">
<svg version="1.0" xmlns="http://www.w3.org/2000/svg"
 width="96.000000pt" height="68.000000pt" viewBox="0 0 96.000000 68.000000"
 preserveAspectRatio="xMidYMid meet">
<metadata>
Created by potrace 1.16, written by Peter Selinger 2001-2019
Combined from part_0.svg through part_5.svg with named groups
</metadata>
<g transform="translate(0.000000,68.000000) scale(0.100000,-0.100000)" fill="#000000" stroke="none">
<g id="part-0" class="char-part">
  <path d="M440 595 c-63 -7 -143 -13 -177 -14 -66 -1 -75 -7 -45 -35 12 -10 24
-44 31 -87 13 -69 30 -94 53 -71 7 7 5 33 -5 83 -9 41 -15 75 -14 76 1 1 75 7
165 14 106 8 166 9 173 2 6 -6 4 -37 -7 -87 -17 -85 -10 -111 24 -90 15 10 80
161 81 190 1 19 -48 34 -107 33 -31 -1 -109 -8 -172 -14z"/>
  <path d="M440 515 c-8 -2 -32 -6 -52 -10 -47 -7 -49 -22 -5 -29 40 -7 172 16
172 29 0 10 -84 17 -115 10z"/>
  <path d="M445 445 c-5 -2 -27 -6 -47 -10 -64 -10 -42 -25 35 -24 79 1 117 9
120 24 2 9 -87 18 -108 10z"/>
  <path d="M505 349 c-22 -4 -78 -11 -125 -14 -74 -4 -85 -7 -82 -22 5 -28 2
-124 -4 -170 -3 -22 -3 -50 1 -62 6 -21 31 -29 37 -11 5 14 221 15 226 1 7
-21 33 -40 47 -35 23 9 29 43 30 176 0 123 -1 127 -23 138 -26 11 -50 11 -107
-1z m59 -25 c9 -3 16 -16 16 -29 0 -20 -6 -23 -72 -28 -40 -4 -94 -9 -120 -13
l-48 -7 0 31 c0 30 1 31 58 37 31 3 66 7 77 9 38 6 73 6 89 0z m16 -103 l0
-28 -87 -7 c-49 -4 -103 -9 -120 -12 -31 -6 -33 -5 -33 25 0 31 0 31 58 32 46
1 130 9 175 18 4 0 7 -12 7 -28z m-2 -81 l-3 -30 -123 -4 c-121 -4 -123 -4
-116 18 9 30 6 28 86 34 40 2 75 6 77 8 2 2 22 4 43 4 38 0 39 -1 36 -30z"/>
</g>
<g id="part-1" class="char-part">
  <path d="M485 594 c-66 -7 -155 -15 -197 -16 -80 -3 -89 -7 -64 -27 7 -6 19
-39 26 -74 13 -68 25 -97 40 -97 13 0 13 47 -1 110 -6 28 -8 54 -5 57 11 11
330 33 340 23 6 -6 5 -32 -2 -72 -19 -104 -19 -103 4 -106 18 -3 25 5 38 40 8
24 24 67 35 96 l20 54 -34 14 c-40 16 -41 16 -200 -2z"/>
  <path d="M423 507 c-92 -15 -80 -31 17 -24 45 4 88 11 98 16 14 8 14 10 2 11
-8 0 -24 2 -35 4 -11 2 -48 -1 -82 -7z"/>
  <path d="M428 438 c-89 -16 -72 -32 23 -23 97 8 122 15 93 26 -24 10 -44 9
-116 -3z"/>
</g>
<g id="part-2" class="char-part">
  <path d="M460 344 c-52 -8 -111 -13 -130 -12 l-35 3 0 -102 c0 -100 1 -103 23
-103 12 0 22 4 22 8 0 7 174 32 223 32 10 0 17 -8 17 -20 0 -15 7 -20 28 -20
l27 0 0 105 c0 99 -1 105 -23 115 -27 12 -27 12 -152 -6z m104 -20 c9 -3 16
-16 16 -29 0 -20 -6 -23 -72 -28 -40 -4 -94 -9 -120 -13 l-48 -7 0 31 c0 30 0
30 68 37 37 3 76 7 87 9 38 6 53 6 69 0z m16 -103 l0 -28 -87 -6 c-49 -4 -103
-9 -120 -13 -32 -6 -33 -5 -33 25 0 31 1 31 53 32 28 1 77 4 107 9 30 4 61 8
68 9 7 0 12 -11 12 -28z"/>
</g>
<g id="part-3" class="char-part">
  <path d="M290 107 c0 -13 7 -32 15 -43 14 -18 16 -18 26 -1 8 14 26 17 113 17
97 0 104 -1 124 -25 25 -28 44 -25 61 11 20 45 14 64 -19 64 -16 0 -30 -5 -30
-10 0 -6 -17 -10 -37 -8 -21 1 -75 -2 -120 -6 -73 -7 -83 -6 -83 8 0 10 -9 16
-25 16 -19 0 -25 -5 -25 -23z"/>
</g>
</g>
</svg>