<?xml version="1.0" standalone="no"?>
<!DOCTYPE svg PUBLIC "-//W3C//DTD SVG 20010904//EN"
 "http://www.w3.org/TR/2001/REC-SVG-20010904/DTD/svg10.dtd">
<svg version="1.0" xmlns="http://www.w3.org/2000/svg"
 width="96.000000pt" height="68.000000pt" viewBox="0 0 96.000000 68.000000"
 preserveAspectRatio="xMidYMid meet">
<metadata>
Created by potrace 1.16, written by Peter Selinger 2001-2019
Combined from part_0.svg through part_5.svg with named groups
</metadata>
<g transform="translate(0.000000,68.000000) scale(0.100000,-0.100000)" fill="#000000" stroke="none">
<g id="part-0" class="char-part">
  <path d="M255 533 c-16 -31 -48 -75 -72 -98 -46 -45 -51 -56 -29 -74 11 -9 25
-9 56 -1 23 6 44 9 47 6 8 -7 -47 -71 -74 -87 -13 -7 -23 -19 -23 -26 0 -25
30 -26 88 -2 31 13 74 23 95 23 43 -2 49 16 15 40 -29 21 -38 20 -38 -2 0 -13
-12 -23 -41 -31 -23 -7 -44 -10 -47 -6 -4 3 29 39 72 79 55 51 77 78 74 92 -6
34 -36 28 -55 -10 -16 -34 -19 -36 -66 -36 l-48 0 20 28 c10 15 40 47 65 72
51 49 56 64 27 80 -32 17 -37 13 -66 -47z"/>
  <path d="M565 475 c-33 -8 -80 -11 -104 -8 -41 6 -43 5 -33 -14 10 -18 36
-302 29 -310 -2 -1 -29 -3 -60 -4 -32 -1 -60 -6 -63 -10 -9 -15 47 -22 125
-15 42 3 141 9 221 12 80 4 147 8 149 10 12 11 -17 19 -79 22 l-68 4 4 77 c9
146 16 201 26 207 13 9 -42 44 -67 43 -11 -1 -47 -7 -80 -14z m66 -59 c3 -20
3 -38 0 -40 -3 -2 -35 -5 -71 -7 l-65 -4 -1 37 c-1 37 -1 37 45 43 25 4 51 8
56 10 21 7 30 -3 36 -39z m1 -90 c5 -42 0 -56 -15 -50 -7 2 -32 1 -55 -3 -49
-9 -54 -30 -7 -25 85 10 80 12 77 -43 -2 -27 -4 -50 -5 -51 -1 -1 -29 -4 -62
-5 l-60 -3 -5 95 -5 94 60 11 c33 6 63 12 66 13 4 0 9 -14 11 -33z"/>
  <path d="M310 231 c0 -14 36 -41 53 -41 20 0 22 14 5 27 -17 14 -58 23 -58 14z"/>
  <path d="M240 170 c24 -34 50 -39 50 -10 0 20 -27 40 -55 40 -14 0 -13 -4 5
-30z"/>
  <path d="M142 120 c23 -41 50 -49 56 -18 4 22 -32 58 -58 58 -20 0 -20 -1 2
-40z"/>
</g>
<g id="part-1" class="char-part">
  <path d="M265 544 c-9 -25 -42 -72 -73 -105 -69 -75 -63 -87 32 -69 74 14 87
30 26 30 -22 0 -40 3 -40 6 0 4 27 35 60 71 62 66 69 80 48 101 -21 21 -35 13
-53 -34z"/>
</g>
<g id="part-2" class="char-part">
  <path d="M310 232 c0 -16 48 -54 59 -47 19 11 12 31 -14 43 -30 14 -45 15 -45
4z"/>
  <path d="M220 201 c0 -16 41 -61 56 -61 29 0 11 43 -23 57 -18 7 -33 9 -33 4z"/>
  <path d="M120 161 c0 -17 46 -76 60 -76 8 0 16 10 18 22 2 16 -6 28 -30 43
-36 22 -48 25 -48 11z"/>
</g>
<g id="part-3" class="char-part">
  <path d="M585 480 c-16 -4 -59 -8 -94 -9 l-63 -1 7 -27 c5 -20 21 -213 25
-296 0 -4 8 -7 18 -5 13 2 18 16 22 52 5 46 7 49 35 51 17 1 45 6 63 9 l32 8
0 -55 c0 -52 1 -54 25 -49 14 2 25 5 25 6 1 0 5 57 10 126 6 69 12 136 16 151
9 41 -45 58 -121 39z m43 -66 l3 -41 -62 -7 c-70 -7 -83 1 -73 44 7 32 4 29
55 39 67 14 74 11 77 -35z m2 -97 c0 -42 -1 -43 -32 -43 -18 0 -48 -3 -65 -8
l-33 -8 0 40 0 39 58 10 c31 6 60 11 65 12 4 0 7 -18 7 -42z"/>
</g>
<g id="part-4" class="char-part">
  <path d="M570 149 c-52 -4 -128 -8 -167 -9 -73 -2 -95 -14 -48 -26 13 -3 84
-1 156 5 73 6 175 11 228 11 87 1 94 2 77 15 -22 16 -85 17 -246 4z"/>
</g>
</g>
</svg>