<?xml version="1.0" standalone="no"?>
<!DOCTYPE svg PUBLIC "-//W3C//DTD SVG 20010904//EN"
 "http://www.w3.org/TR/2001/REC-SVG-20010904/DTD/svg10.dtd">
<svg version="1.0" xmlns="http://www.w3.org/2000/svg"
 width="96.000000pt" height="68.000000pt" viewBox="0 0 96.000000 68.000000"
 preserveAspectRatio="xMidYMid meet">
<metadata>
Created by potrace 1.16, written by Peter Selinger 2001-2019
Combined from part_0.svg through part_5.svg with named groups
</metadata>
<g transform="translate(0.000000,68.000000) scale(0.100000,-0.100000)" fill="#000000" stroke="none">
<g id="part-0" class="char-part">
  <path d="M410 607 c0 -10 15 -21 41 -28 25 -8 48 -24 62 -43 23 -34 146 -177
162 -188 14 -11 175 -10 175 1 0 4 -39 23 -87 41 -81 31 -93 39 -180 127 -51
51 -100 93 -110 93 -10 0 -28 3 -40 6 -17 5 -23 2 -23 -9z"/>
  <path d="M306 544 c-3 -9 -6 -24 -6 -34 0 -25 -87 -119 -149 -161 -49 -33 -62
-49 -40 -49 6 0 42 16 80 36 75 40 192 154 187 182 -2 8 -17 21 -35 28 -27 11
-32 11 -37 -2z"/>
  <path d="M420 385 c-36 -7 -83 -13 -105 -14 -30 -1 -36 -4 -25 -11 8 -5 29
-10 47 -10 17 0 35 -4 38 -10 8 -12 -11 -48 -43 -83 -20 -21 -23 -30 -14 -39
10 -10 19 -8 42 6 20 11 54 18 93 19 l62 2 -3 -50 c-6 -90 -44 -127 -104 -100
-26 10 -22 -5 11 -44 23 -28 32 -33 54 -27 40 10 62 40 81 109 10 34 22 70 27
79 28 54 -14 74 -118 57 -40 -6 -76 -9 -79 -6 -3 3 6 18 20 34 14 15 26 35 26
44 0 13 14 18 65 24 46 5 65 11 65 21 0 17 -46 17 -140 -1z"/>
</g>
<g id="part-1" class="char-part">
  <path d="M424 595 c11 -8 28 -15 37 -15 10 0 56 -45 105 -102 48 -57 94 -109
103 -116 9 -7 45 -12 95 -12 l81 1 -90 36 c-83 34 -97 43 -181 130 -85 86 -94
93 -130 93 -36 -1 -38 -2 -20 -15z"/>
  <path d="M306 516 c-7 -39 -96 -136 -166 -182 -48 -32 -46 -41 5 -20 61 26
162 103 201 154 l35 47 -21 17 c-33 26 -47 22 -54 -16z"/>
</g>
<g id="part-2" class="char-part">
  <path d="M387 381 c-55 -9 -95 -19 -91 -23 19 -19 255 6 258 27 2 16 -60 14
-167 -4z"/>
</g>
<g id="part-3" class="char-part">
  <path d="M376 325 c-3 -13 -20 -41 -38 -60 -39 -45 -27 -66 24 -42 18 8 48 18
66 22 46 10 40 26 -8 19 -48 -8 -50 2 -10 41 32 31 31 45 -5 45 -16 0 -25 -7
-29 -25z"/>
</g>
<g id="part-4" class="char-part">
  <path d="M488 273 c-38 -6 -35 -23 3 -23 l32 0 -7 -47 c-3 -26 -14 -63 -24
-82 -18 -38 -36 -43 -92 -25 -24 7 -23 6 9 -34 18 -23 41 -42 51 -42 32 0 79
49 90 93 6 23 18 62 27 85 13 37 13 46 2 57 -17 17 -54 24 -91 18z"/>
</g>
</g>
</svg>