<?xml version="1.0" standalone="no"?>
<!DOCTYPE svg PUBLIC "-//W3C//DTD SVG 20010904//EN"
 "http://www.w3.org/TR/2001/REC-SVG-20010904/DTD/svg10.dtd">
<svg version="1.0" xmlns="http://www.w3.org/2000/svg"
 width="96.000000pt" height="68.000000pt" viewBox="0 0 96.000000 68.000000"
 preserveAspectRatio="xMidYMid meet">
<metadata>
Created by potrace 1.16, written by Peter Selinger 2001-2019
Combined from part_0.svg through part_5.svg with named groups
</metadata>
<g transform="translate(0.000000,68.000000) scale(0.100000,-0.100000)" fill="#000000" stroke="none">
<g id="part-0" class="char-part">
  <path d="M557 571 l6 -51 -32 0 c-26 0 -31 4 -31 24 0 26 -13 38 -43 43 -15 3
-16 -3 -11 -37 5 -33 4 -40 -10 -41 -9 -1 -20 -3 -26 -4 -5 -1 -21 -3 -35 -4
-14 0 -25 -6 -25 -12 0 -7 19 -10 51 -7 l52 3 2 -33 c3 -37 -1 -40 -65 -45
l-44 -4 3 -46 c1 -30 -2 -47 -9 -47 -6 0 -10 -10 -8 -22 3 -24 22 -27 82 -12
l29 7 -7 -39 c-4 -21 -21 -61 -37 -88 -35 -56 -33 -67 5 -29 33 32 55 72 71
128 11 36 16 40 49 43 l36 3 0 -136 c0 -105 3 -136 13 -133 15 6 25 76 26 191
l1 87 60 0 60 0 0 -33 c0 -18 -6 -42 -14 -52 -12 -17 -17 -18 -40 -7 -15 7
-29 12 -32 12 -10 0 47 -68 62 -74 20 -8 61 40 70 79 3 17 13 40 21 53 13 21
13 25 -4 38 -14 11 -37 13 -101 8 l-83 -6 3 38 c3 38 4 39 46 42 36 3 45 8 53
30 6 15 18 35 26 44 15 17 15 20 -3 39 -15 17 -28 20 -69 17 l-50 -3 0 40 c0
36 -3 40 -27 43 -27 3 -27 3 -21 -47z m113 -80 c0 -37 -12 -51 -41 -51 -26 0
-29 3 -29 35 0 33 2 35 35 35 28 0 35 -4 35 -19z m-110 -32 c0 -39 -1 -40 -32
-37 -29 3 -33 7 -33 33 -1 42 2 45 36 45 27 0 29 -2 29 -41z m-2 -96 c-3 -35
-6 -38 -35 -41 -31 -3 -33 -2 -33 31 0 41 5 47 42 47 28 0 29 -2 26 -37z
m-105 20 c10 -17 -6 -71 -22 -75 -30 -8 -41 3 -41 43 0 37 2 39 29 39 17 0 32
-3 34 -7z"/>
  <path d="M210 555 c0 -19 60 -67 79 -63 23 5 26 44 4 53 -45 18 -83 23 -83 10z"/>
  <path d="M130 431 c0 -10 67 -71 78 -71 18 1 34 20 29 34 -11 28 -107 61 -107
37z"/>
  <path d="M242 297 c-18 -25 -49 -62 -69 -81 l-37 -35 17 -35 c9 -20 23 -36 30
-36 15 0 101 202 95 222 -2 6 -19 -9 -36 -35z"/>
</g>
<g id="part-1" class="char-part">
  <path d="M234 531 c30 -32 59 -40 72 -20 10 17 -19 39 -62 46 l-39 6 29 -32z"/>
  <path d="M151 413 c35 -46 79 -59 79 -23 0 21 -34 40 -72 40 -18 0 -19 -2 -7
-17z"/>
  <path d="M237 283 c-20 -26 -50 -60 -67 -75 -30 -26 -31 -28 -16 -57 22 -41
34 -46 45 -19 6 13 26 61 45 107 20 47 34 86 32 88 -2 2 -20 -18 -39 -44z"/>
</g>
<g id="part-2" class="char-part">
  <path d="M444 557 c10 -52 8 -228 -3 -284 -11 -54 -42 -125 -69 -155 -10 -12
-11 -18 -3 -18 18 0 68 59 90 105 21 44 41 192 41 299 0 54 -3 67 -19 76 -35
18 -44 12 -37 -23z"/>
</g>
<g id="part-3" class="char-part">
  <path d="M557 458 c1 -90 2 -223 2 -296 1 -102 4 -133 14 -130 18 7 24 82 28
345 l4 238 -25 3 -25 3 2 -163z"/>
</g>
<g id="part-4" class="char-part">
  <path d="M560 525 c-52 -7 -121 -16 -152 -20 -32 -4 -58 -11 -58 -16 0 -12 41
-12 111 0 30 5 89 13 132 16 76 7 77 6 77 -17 0 -12 -4 -28 -8 -35 -4 -6 -63
-19 -132 -28 -69 -9 -139 -19 -157 -21 -30 -4 -31 -6 -26 -39 4 -23 0 -43 -10
-59 -28 -42 -3 -49 89 -27 92 23 288 38 297 24 9 -14 -12 -83 -27 -89 -7 -3
-25 0 -40 5 l-27 11 32 -40 c18 -22 35 -40 39 -40 19 0 59 56 65 90 4 21 13
44 21 51 21 17 17 25 -15 38 -22 10 -60 9 -178 -3 -213 -23 -203 -24 -203 22
l0 39 151 13 c147 14 151 14 161 39 5 14 17 34 25 43 15 17 15 20 -2 38 -21
23 -33 23 -165 5z"/>
</g>
</g>
</svg>