<?xml version="1.0" standalone="no"?>
<!DOCTYPE svg PUBLIC "-//W3C//DTD SVG 20010904//EN"
 "http://www.w3.org/TR/2001/REC-SVG-20010904/DTD/svg10.dtd">
<svg version="1.0" xmlns="http://www.w3.org/2000/svg"
 width="96.000000pt" height="68.000000pt" viewBox="0 0 96.000000 68.000000"
 preserveAspectRatio="xMidYMid meet">
<metadata>
Created by potrace 1.16, written by Peter Selinger 2001-2019
Combined from part_0.svg through part_5.svg with named groups
</metadata>
<g transform="translate(0.000000,68.000000) scale(0.100000,-0.100000)" fill="#000000" stroke="none">
<g id="part-0" class="char-part">
  <path d="M534 583 c25 -114 27 -136 15 -144 -11 -7 -100 -18 -182 -22 -21 -2
-25 -6 -20 -17 5 -8 8 -46 7 -85 -1 -78 -24 -141 -68 -189 -15 -15 -25 -30
-23 -33 11 -10 51 25 87 75 l39 53 10 -38 c6 -21 11 -44 11 -52 0 -13 14 -12
110 4 8 1 14 10 12 20 -2 10 4 33 14 51 10 18 15 36 11 40 -9 9 -49 9 -116 -1
-54 -8 -54 -8 -48 16 4 13 7 27 7 32 0 4 20 7 44 7 57 0 106 10 106 22 0 6
-29 7 -75 3 -75 -7 -75 -7 -75 17 0 43 20 56 95 63 l70 7 19 -74 c10 -40 25
-93 33 -118 l15 -45 -52 -47 c-59 -55 -49 -62 21 -17 l48 31 33 -38 c18 -20
35 -40 38 -44 11 -17 76 -50 98 -50 21 0 22 4 22 65 0 36 -2 65 -5 65 -3 0
-11 -16 -19 -35 -10 -22 -22 -35 -34 -35 -19 0 -58 37 -85 80 -15 24 -13 28
24 83 46 68 48 84 13 97 -34 13 -34 14 -34 -15 0 -29 -26 -85 -39 -85 -8 0
-51 145 -51 172 0 10 18 18 57 24 31 5 58 15 61 22 4 14 -35 16 -90 3 l-38 -9
0 78 c0 72 -2 78 -22 84 -44 11 -51 8 -44 -21z m-38 -380 c-2 -16 -4 -33 -5
-39 -1 -13 -49 -25 -55 -15 -2 3 -7 20 -10 38 -8 33 0 39 51 42 18 1 21 -4 19
-26z"/>
  <path d="M660 535 c0 -11 55 -54 68 -55 22 0 26 30 6 45 -18 14 -74 21 -74 10z"/>
  <path d="M215 415 c-16 -8 -54 -14 -82 -15 -56 0 -61 -3 -40 -25 8 -7 20 -41
27 -74 14 -65 23 -79 43 -63 7 6 30 13 52 17 67 11 77 16 71 32 -4 8 3 35 14
60 25 57 25 57 -5 71 -32 15 -42 14 -80 -3z m27 -74 c-4 -36 -8 -42 -36 -50
-39 -10 -44 -6 -48 44 -3 40 -3 40 37 45 22 3 42 5 45 4 3 -2 4 -21 2 -43z"/>
</g>
<g id="part-1" class="char-part">
  <path d="M194 405 c-28 -7 -66 -10 -84 -8 -31 3 -32 2 -18 -14 9 -10 23 -44
31 -76 18 -68 22 -74 39 -60 7 6 38 14 69 17 49 6 56 10 52 26 -3 10 4 39 16
64 19 45 19 46 1 56 -23 12 -40 11 -106 -5z m52 -62 c-3 -25 -7 -47 -9 -49 -1
-1 -18 -5 -39 -9 -35 -7 -36 -6 -43 27 -3 18 -9 41 -11 50 -5 17 11 21 85 26
23 2 23 0 17 -45z"/>
</g>
<g id="part-2" class="char-part">
  <path d="M530 595 c0 -7 7 -40 15 -72 23 -89 29 -83 -87 -98 -27 -3 -48 -11
-48 -17 0 -8 25 -9 78 -5 l78 6 18 -72 c10 -40 25 -92 33 -117 l15 -45 -58
-53 c-57 -52 -57 -52 -20 -37 21 9 51 26 67 37 l27 21 34 -38 c18 -21 35 -41
38 -44 3 -4 20 -17 37 -30 35 -24 89 -26 87 -3 -1 6 -2 38 -3 70 l-2 57 -19
-43 c-23 -50 -45 -54 -82 -15 -61 67 -61 68 -13 144 l44 68 -22 16 c-32 22
-47 19 -47 -12 -1 -33 -34 -100 -43 -86 -9 14 -47 155 -47 174 0 12 15 18 60
25 81 12 77 30 -5 26 l-65 -2 0 69 c0 59 -3 72 -19 81 -28 14 -51 12 -51 -5z"/>
  <path d="M680 510 c37 -32 63 -35 68 -9 3 18 -37 39 -76 39 l-27 -1 35 -29z"/>
</g>
<g id="part-3" class="char-part">
  <path d="M352 413 c-20 -4 -21 -6 -6 -21 13 -12 15 -29 11 -81 -6 -78 -32
-143 -76 -188 -36 -38 -30 -42 16 -13 62 37 95 112 108 243 7 73 8 72 -53 60z"/>
</g>
<g id="part-4" class="char-part">
  <path d="M485 250 c-11 -5 -31 -9 -45 -9 -46 -2 -52 -12 -38 -70 l12 -52 45 6
c66 9 82 15 75 27 -3 5 2 27 11 49 10 22 16 41 14 43 -10 11 -56 14 -74 6z
m15 -37 c0 -39 -13 -61 -37 -66 -19 -3 -26 1 -34 20 -18 48 -10 59 49 62 15 1
22 -5 22 -16z"/>
</g>
</g>
</svg>