<?xml version="1.0" standalone="no"?>
<!DOCTYPE svg PUBLIC "-//W3C//DTD SVG 20010904//EN"
 "http://www.w3.org/TR/2001/REC-SVG-20010904/DTD/svg10.dtd">
<svg version="1.0" xmlns="http://www.w3.org/2000/svg"
 width="96.000000pt" height="68.000000pt" viewBox="0 0 96.000000 68.000000"
 preserveAspectRatio="xMidYMid meet">
<metadata>
Created by potrace 1.16, written by Peter Selinger 2001-2019
Combined from part_0.svg through part_5.svg with named groups
</metadata>
<g transform="translate(0.000000,68.000000) scale(0.100000,-0.100000)" fill="#000000" stroke="none">
<g id="part-0" class="char-part">
  <path d="M573 545 c-17 -30 -28 -55 -24 -55 11 0 83 53 99 73 17 20 7 37 -21
37 -16 -1 -31 -16 -54 -55z"/>
  <path d="M400 551 c0 -16 41 -61 56 -61 25 0 16 46 -11 58 -31 14 -45 15 -45
3z"/>
  <path d="M241 529 c-26 -13 -54 -19 -70 -16 l-27 6 4 -135 c3 -73 -1 -169 -7
-212 -12 -82 -8 -112 15 -112 19 0 22 23 29 230 3 102 9 188 13 191 4 4 23 10
42 14 31 7 33 6 21 -9 -7 -9 -10 -16 -7 -16 4 0 2 -9 -4 -21 -10 -17 -7 -27
12 -57 30 -46 26 -76 -8 -69 -31 6 -30 3 8 -21 23 -15 37 -18 50 -11 26 14 22
40 -11 85 -34 45 -30 59 27 109 27 25 31 33 20 42 -26 22 -63 23 -107 2z"/>
  <path d="M619 475 c-3 -2 -60 -11 -128 -19 -134 -15 -166 -26 -77 -26 49 0 57
-3 54 -17 -2 -10 -27 -35 -56 -57 -59 -44 -62 -55 -9 -30 19 9 43 14 53 10 15
-6 14 -10 -12 -37 -16 -17 -49 -43 -73 -57 -24 -14 -39 -28 -33 -30 7 -2 45
17 86 41 41 25 77 43 80 40 24 -25 -32 -85 -147 -156 -62 -39 -50 -41 30 -7
42 18 111 65 125 85 13 17 9 -92 -4 -120 -10 -22 -17 -26 -40 -23 -36 6 -35
-4 3 -37 l32 -26 23 22 c34 32 47 82 42 160 l-5 68 61 -55 c33 -31 72 -60 86
-66 24 -9 100 -2 100 10 0 4 -29 18 -64 31 -72 27 -171 91 -171 111 0 7 25 22
56 34 31 12 57 24 58 29 3 20 -1 26 -19 32 -15 5 -27 -2 -46 -25 -15 -17 -39
-37 -55 -46 -28 -14 -31 -13 -64 13 l-36 28 28 22 c16 13 32 23 37 23 5 0 3 7
-4 15 -15 18 -8 21 80 30 72 7 88 13 69 26 -15 9 -53 12 -60 4z"/>
</g>
<g id="part-1" class="char-part">
  <path d="M233 522 c-55 -21 -55 -34 -1 -26 37 6 41 5 35 -12 -18 -59 -19 -64
-8 -64 6 0 11 4 11 9 0 5 19 28 43 50 35 34 39 43 27 51 -21 14 -58 11 -107
-8z"/>
</g>
<g id="part-2" class="char-part">
  <path d="M148 382 c3 -77 -1 -166 -8 -208 -12 -78 -8 -114 15 -114 21 0 23 19
31 241 l7 206 -24 5 -24 4 3 -134z"/>
</g>
<g id="part-3" class="char-part">
  <path d="M600 592 c0 -5 -16 -33 -35 -61 -20 -28 -31 -51 -26 -51 18 0 116 86
116 101 0 8 -12 15 -27 17 -16 2 -28 -1 -28 -6z"/>
  <path d="M400 551 c0 -16 41 -61 56 -61 25 0 16 46 -11 58 -31 14 -45 15 -45
3z"/>
  <path d="M609 475 c-3 -2 -50 -9 -105 -15 -136 -16 -170 -28 -78 -29 67 -1
222 15 254 25 13 4 13 6 0 14 -16 10 -63 13 -71 5z"/>
</g>
<g id="part-4" class="char-part">
  <path d="M463 402 c-12 -16 -43 -44 -70 -62 -47 -32 -40 -35 25 -9 30 13 34
12 62 -16 35 -35 52 -109 41 -172 -11 -57 -28 -76 -64 -70 l-28 4 33 -34 c21
-20 40 -32 49 -28 45 17 72 141 50 231 -10 39 -21 55 -52 79 -43 32 -44 29 16
69 23 16 20 22 -15 31 -20 5 -30 0 -47 -23z"/>
</g>
<g id="part-5" class="char-part">
  <path d="M619 348 c-21 -29 -21 -31 -3 -24 10 5 31 13 47 18 30 11 35 23 11
32 -26 10 -32 7 -55 -26z"/>
  <path d="M623 216 c29 -29 53 -46 62 -42 8 3 17 1 20 -4 4 -6 0 -10 -7 -11 -7
0 -3 -5 9 -11 13 -6 37 -7 60 -3 31 6 34 9 18 15 -11 4 -26 5 -32 3 -7 -3 -13
0 -13 6 0 6 -3 10 -7 9 -16 -3 -63 14 -58 22 3 4 -10 13 -28 20 -17 8 -41 20
-52 28 -11 9 1 -6 28 -32z"/>
</g>
</g>
</svg>