<?xml version="1.0" standalone="no"?>
<!DOCTYPE svg PUBLIC "-//W3C//DTD SVG 20010904//EN"
 "http://www.w3.org/TR/2001/REC-SVG-20010904/DTD/svg10.dtd">
<svg version="1.0" xmlns="http://www.w3.org/2000/svg"
 width="96.000000pt" height="68.000000pt" viewBox="0 0 96.000000 68.000000"
 preserveAspectRatio="xMidYMid meet">
<metadata>
Created by potrace 1.16, written by Peter Selinger 2001-2019
Combined from part_0.svg through part_5.svg with named groups
</metadata>
<g transform="translate(0.000000,68.000000) scale(0.100000,-0.100000)" fill="#000000" stroke="none">
<g id="part-0" class="char-part">
  <path d="M339 593 c-1 -5 0 -23 1 -42 2 -39 -11 -51 -57 -51 -28 0 -33 4 -33
23 0 29 -18 47 -47 47 -27 0 -28 -7 -8 -34 22 -29 18 -46 -9 -46 -63 0 -75
-27 -14 -32 37 -3 42 -6 53 -38 10 -28 17 -35 36 -32 19 1 25 -3 26 -18 1 -11
-5 -21 -13 -21 -8 -1 -18 -3 -24 -4 -5 -1 -28 -3 -51 -4 -37 -1 -39 -2 -25
-17 9 -8 16 -19 16 -24 0 -5 5 -21 10 -36 8 -21 14 -24 22 -16 7 7 25 12 40
12 24 0 28 -4 28 -29 l0 -29 -90 -7 c-124 -10 -131 -28 -9 -24 l94 4 -3 -65
c-3 -63 9 -103 25 -86 4 4 10 42 13 84 4 59 9 77 20 78 8 1 41 2 74 3 51 1 57
3 46 16 -9 10 -31 15 -72 15 -56 0 -59 1 -56 23 3 23 5 24 60 26 17 0 28 4 25
7 -4 4 3 20 15 36 26 37 14 48 -52 48 -34 0 -48 5 -58 20 -11 19 -10 20 23 20
27 0 34 4 33 18 -4 56 0 62 46 62 25 0 47 4 51 9 7 13 -27 31 -59 31 -24 0
-25 2 -14 26 11 22 10 28 -7 40 -20 15 -54 19 -56 7z m-9 -142 c0 -22 -47 -38
-63 -22 -18 18 1 41 33 41 23 0 30 -5 30 -19z m63 -135 c-3 -16 -14 -27 -30
-31 -28 -7 -30 -6 -33 15 -5 33 1 40 34 40 30 0 33 -2 29 -24z m-103 -10 c0
-32 -48 -46 -67 -20 -23 32 -16 44 27 44 36 0 40 -3 40 -24z"/>
  <path d="M645 470 c-16 -4 -63 -8 -104 -9 l-73 -1 15 -24 c9 -13 19 -52 23
-87 4 -35 11 -75 16 -88 7 -19 11 -21 23 -11 11 9 39 11 94 7 l79 -5 24 99
c14 54 21 104 18 110 -9 14 -77 20 -115 9z m53 -57 c-3 -37 -4 -38 -38 -35
-20 2 -54 -1 -78 -6 -23 -6 -42 -6 -42 -2 0 4 -3 21 -6 38 -6 30 -5 31 37 35
24 2 63 4 87 5 l43 2 -3 -37z m-10 -90 l-3 -38 -64 -3 c-68 -3 -81 4 -81 45 0
23 11 26 118 31 33 2 33 1 30 -35z"/>
  <path d="M552 165 c-68 -7 -126 -16 -129 -19 -16 -15 53 -26 105 -16 31 5 113
10 182 10 70 0 130 3 133 7 4 3 2 12 -4 20 -14 16 -115 16 -287 -2z"/>
</g>
<g id="part-1" class="char-part">
  <path d="M340 550 c0 -45 -2 -50 -22 -50 -13 0 -33 -3 -44 -6 -18 -5 -22 0
-28 30 -6 30 -11 36 -31 36 -29 0 -29 0 -10 -36 13 -26 13 -29 -3 -36 -9 -4
-28 -7 -42 -7 -35 -1 -12 -19 30 -23 30 -3 35 -7 41 -36 8 -41 15 -48 31 -34
8 6 33 12 58 14 41 3 45 5 51 36 8 42 9 43 58 49 53 7 53 23 1 23 l-41 0 7 35
c5 31 3 36 -21 45 -14 5 -28 10 -31 10 -2 0 -4 -22 -4 -50z m0 -84 c0 -33 -13
-46 -46 -46 -29 0 -34 3 -34 24 0 20 6 25 33 29 17 2 35 5 40 5 4 1 7 -4 7
-12z"/>
</g>
<g id="part-2" class="char-part">
  <path d="M288 233 c-3 -28 -5 -28 -95 -37 -51 -5 -93 -12 -93 -16 0 -16 52
-20 116 -10 37 6 69 9 71 6 2 -2 0 -28 -5 -57 -11 -57 -1 -104 21 -97 8 3 13
31 15 80 l3 76 31 6 c17 3 51 6 77 6 43 1 45 2 27 15 -12 9 -42 15 -73 15 -46
0 -53 3 -53 20 0 33 -38 26 -42 -7z"/>
</g>
<g id="part-3" class="char-part">
  <path d="M640 470 c-14 -4 -58 -8 -98 -9 l-73 -1 15 -28 c8 -15 17 -54 21 -87
4 -33 12 -71 17 -84 7 -19 11 -21 23 -11 11 9 39 11 94 7 l79 -5 21 87 c12 47
24 93 27 102 9 31 -66 48 -126 29z m60 -54 l0 -33 -77 -7 c-42 -3 -78 -4 -80
-2 -2 2 -5 16 -6 32 -2 27 1 29 43 35 25 3 62 7 83 7 36 2 37 1 37 -32z m-14
-122 c-8 -21 -132 -20 -140 2 -17 43 -9 50 67 60 l72 9 3 -28 c2 -16 1 -35 -2
-43z"/>
</g>
<g id="part-4" class="char-part">
  <path d="M570 164 c-69 -7 -131 -13 -138 -13 -21 -1 -5 -18 22 -23 13 -3 50
-1 83 3 32 4 113 9 181 11 124 2 149 8 113 27 -24 14 -100 12 -261 -5z"/>
</g>
</g>
</svg>