<?xml version="1.0" standalone="no"?>
<!DOCTYPE svg PUBLIC "-//W3C//DTD SVG 20010904//EN"
 "http://www.w3.org/TR/2001/REC-SVG-20010904/DTD/svg10.dtd">
<svg version="1.0" xmlns="http://www.w3.org/2000/svg"
 width="96.000000pt" height="68.000000pt" viewBox="0 0 96.000000 68.000000"
 preserveAspectRatio="xMidYMid meet">
<metadata>
Created by potrace 1.16, written by Peter Selinger 2001-2019
Combined from part_0.svg through part_5.svg with named groups
</metadata>
<g transform="translate(0.000000,68.000000) scale(0.100000,-0.100000)" fill="#000000" stroke="none">
<g id="part-0" class="char-part">
  <path d="M500 599 c-25 -5 -84 -11 -132 -12 -49 -1 -88 -5 -88 -8 0 -4 7 -12
14 -19 8 -6 20 -37 27 -68 6 -31 16 -60 21 -63 5 -4 30 -4 54 -1 35 4 44 2 44
-11 0 -8 6 -17 13 -20 6 -2 9 -8 5 -12 -7 -7 -40 -12 -191 -24 -53 -4 -100
-11 -104 -15 -13 -13 21 -27 52 -21 96 18 426 45 550 45 38 0 39 0 18 15 -19
13 -40 14 -149 5 -70 -5 -129 -10 -130 -10 -2 0 -4 9 -4 20 0 10 -8 24 -17 30
-14 8 -2 10 50 8 l68 -3 30 70 29 70 -21 18 c-23 19 -67 20 -139 6z m73 -44
c-1 -5 -48 -16 -104 -23 -84 -11 -103 -11 -110 -1 -12 20 -6 22 74 30 93 9
143 7 140 -6z m-3 -52 c0 -17 -16 -28 -40 -29 -14 -1 -55 -4 -92 -8 -63 -6
-68 -5 -68 13 0 18 8 21 68 24 37 2 82 4 100 5 17 1 32 -1 32 -5z"/>
  <path d="M460 318 c-41 -5 -92 -7 -112 -6 -41 4 -47 -2 -23 -22 8 -7 17 -27
21 -46 6 -30 34 -70 34 -47 0 6 14 10 30 11 39 1 52 -23 48 -91 l-3 -52 -40 2
c-34 2 -37 1 -20 -9 11 -6 30 -20 42 -31 22 -20 23 -20 44 -1 18 16 20 28 17
100 l-3 82 53 7 c28 3 52 11 52 17 0 5 9 23 21 40 21 28 21 30 3 43 -21 16
-54 17 -164 3z m100 -47 c0 -27 -3 -29 -52 -35 -89 -10 -125 -8 -132 10 -17
43 -8 47 137 52 46 2 47 1 47 -27z"/>
  <path d="M300 148 c-7 -13 -28 -40 -48 -60 -48 -50 -33 -48 44 8 59 41 78 64
55 64 -5 0 -16 3 -24 6 -10 3 -20 -3 -27 -18z"/>
  <path d="M600 161 c0 -14 98 -101 115 -101 20 0 19 34 -2 55 -14 15 -95 55
-109 55 -2 0 -4 -4 -4 -9z"/>
</g>
<g id="part-1" class="char-part">
  <path d="M495 594 c-44 -7 -108 -13 -143 -13 -62 -1 -62 -1 -48 -23 8 -13 17
-41 21 -63 10 -63 9 -63 125 -55 68 5 109 4 118 -2 12 -11 42 5 42 22 0 7 32
81 48 112 4 9 -53 38 -70 37 -7 -1 -49 -8 -93 -15z m83 -36 c3 -13 -9 -18 -55
-24 -103 -14 -167 -11 -171 7 -2 13 14 18 95 26 120 12 127 12 131 -9z m-8
-67 c0 -16 -12 -19 -96 -25 -95 -7 -113 -3 -114 26 0 7 56 13 153 16 50 2 57
0 57 -17z"/>
</g>
<g id="part-2" class="char-part">
  <path d="M440 429 c0 -6 4 -19 10 -29 12 -23 -3 -26 -150 -36 -57 -4 -116 -10
-130 -14 l-25 -7 24 -13 c19 -10 38 -10 90 -1 88 15 384 41 474 41 70 1 71 1
44 16 -24 13 -45 13 -140 5 -143 -14 -137 -14 -137 9 0 10 -9 24 -19 30 -25
13 -41 13 -41 -1z"/>
</g>
<g id="part-3" class="char-part">
  <path d="M455 319 c-38 -6 -87 -9 -107 -7 -21 2 -38 3 -38 3 0 0 9 -18 20 -40
11 -22 20 -44 20 -51 0 -18 27 -37 35 -24 3 5 36 10 73 10 88 0 142 10 142 25
0 7 10 24 21 39 15 20 18 31 11 38 -15 15 -95 18 -177 7z m103 -46 c-2 -22
-10 -29 -33 -34 -43 -9 -145 -10 -145 -1 0 4 -3 17 -6 29 -7 24 8 27 134 31
53 2 53 2 50 -25z"/>
</g>
<g id="part-4" class="char-part">
  <path d="M454 138 l1 -73 -40 3 c-34 2 -37 1 -20 -9 11 -7 30 -21 43 -32 21
-20 23 -20 40 -4 22 23 31 165 11 178 -30 19 -35 9 -35 -63z"/>
  <path d="M299 148 c-6 -13 -28 -40 -48 -62 l-36 -38 40 20 c22 11 56 34 75 51
29 25 33 32 20 41 -23 15 -38 12 -51 -12z"/>
  <path d="M600 162 c0 -4 22 -30 49 -56 33 -32 55 -47 65 -43 22 9 20 33 -5 56
-23 21 -109 55 -109 43z"/>
</g>
</g>
</svg>