<?xml version="1.0" standalone="no"?>
<!DOCTYPE svg PUBLIC "-//W3C//DTD SVG 20010904//EN"
 "http://www.w3.org/TR/2001/REC-SVG-20010904/DTD/svg10.dtd">
<svg version="1.0" xmlns="http://www.w3.org/2000/svg"
 width="96.000000pt" height="68.000000pt" viewBox="0 0 96.000000 68.000000"
 preserveAspectRatio="xMidYMid meet">
<metadata>
Created by potrace 1.16, written by Peter Selinger 2001-2019
Combined from part_0.svg through part_5.svg with named groups
</metadata>
<g transform="translate(0.000000,68.000000) scale(0.100000,-0.100000)" fill="#000000" stroke="none">
<g id="part-0" class="char-part">
  <path d="M460 599 c0 -6 9 -24 20 -40 l21 -28 -23 -5 c-13 -3 -50 -8 -83 -11
-33 -3 -80 -9 -104 -12 l-45 -6 24 -19 c21 -17 22 -23 17 -92 -4 -41 -16 -100
-28 -133 -24 -64 -95 -183 -110 -183 -5 0 -9 -4 -9 -10 0 -17 20 -11 55 15 67
52 112 142 140 282 9 43 18 87 20 99 4 20 15 22 147 33 240 20 268 23 268 32
0 22 -45 30 -126 24 -72 -6 -84 -5 -84 8 0 9 -12 25 -26 36 -28 22 -74 28 -74
10z"/>
  <path d="M486 435 c3 -14 3 -45 0 -70 l-7 -45 -49 0 c-27 0 -52 -4 -55 -10 -4
-6 13 -10 44 -10 29 0 51 -5 51 -11 0 -35 -57 -124 -112 -174 -34 -30 -58 -55
-54 -55 4 0 26 10 49 21 56 29 119 98 142 160 23 58 31 64 100 73 28 4 63 9
79 13 27 5 28 7 12 18 -12 9 -28 10 -49 5 -18 -4 -49 -10 -70 -13 l-38 -6 6
32 c4 18 9 41 12 53 3 15 -3 23 -22 32 -38 18 -46 15 -39 -13z"/>
  <path d="M660 432 c0 -16 60 -62 81 -62 36 0 20 43 -21 54 -14 4 -33 10 -42
12 -10 3 -18 1 -18 -4z"/>
  <path d="M130 423 c0 -18 66 -73 88 -73 16 0 22 6 22 24 0 13 -6 28 -13 34
-18 15 -97 27 -97 15z"/>
  <path d="M216 305 c-10 -8 -42 -22 -70 -31 -66 -21 -71 -27 -46 -49 16 -14 25
-16 43 -8 25 12 110 81 115 94 5 14 -21 10 -42 -6z"/>
  <path d="M550 185 c4 -79 8 -97 25 -109 20 -15 99 -36 135 -36 34 0 117 21
134 33 16 11 16 15 2 42 -9 17 -16 38 -16 48 0 27 -17 20 -24 -10 -12 -57 -30
-68 -111 -67 -101 0 -109 8 -102 100 5 74 -2 94 -32 94 -14 0 -15 -14 -11 -95z"/>
</g>
<g id="part-1" class="char-part">
  <path d="M470 597 c0 -8 9 -26 20 -40 11 -14 20 -27 20 -30 0 -2 -57 -10 -127
-17 -103 -11 -123 -15 -110 -25 13 -9 17 -28 17 -79 0 -105 -55 -249 -123
-323 -36 -40 -12 -35 36 7 72 64 119 176 141 341 8 56 -3 52 248 71 93 6 168
15 168 19 0 22 -61 28 -160 14 -45 -6 -50 -5 -50 12 0 27 -21 50 -52 57 -20 5
-28 3 -28 -7z"/>
  <path d="M140 422 c0 -18 69 -74 84 -69 23 9 20 34 -6 51 -29 17 -78 29 -78
18z"/>
  <path d="M224 304 c-12 -8 -45 -23 -75 -33 -56 -20 -71 -44 -32 -49 22 -3 133
71 133 89 0 11 -1 11 -26 -7z"/>
</g>
<g id="part-2" class="char-part">
  <path d="M660 434 c0 -18 56 -64 77 -64 39 0 26 42 -17 54 -14 4 -33 10 -42
12 -10 3 -18 2 -18 -2z"/>
</g>
<g id="part-3" class="char-part">
  <path d="M489 453 c-1 -4 0 -23 1 -41 1 -18 -1 -46 -5 -62 -6 -28 -9 -30 -55
-30 -27 0 -52 -4 -55 -10 -4 -6 13 -10 45 -10 49 0 51 -1 45 -22 -18 -59 -65
-125 -120 -171 -53 -44 -56 -49 -30 -43 71 17 155 101 185 185 19 55 26 59
104 66 40 4 79 11 87 16 27 16 -21 22 -89 11 -36 -6 -68 -10 -69 -8 -2 2 1 25
8 50 7 27 8 51 3 56 -14 12 -54 22 -55 13z"/>
</g>
<g id="part-4" class="char-part">
  <path d="M548 190 c3 -84 5 -91 32 -113 33 -28 121 -41 190 -27 25 5 48 9 52
10 17 1 38 33 29 44 -5 6 -13 27 -19 46 l-9 35 -18 -43 c-21 -52 -38 -62 -107
-62 -96 0 -121 29 -106 124 8 53 -1 76 -31 76 -14 0 -16 -12 -13 -90z"/>
</g>
</g>
</svg>