<?xml version="1.0" standalone="no"?>
<!DOCTYPE svg PUBLIC "-//W3C//DTD SVG 20010904//EN"
 "http://www.w3.org/TR/2001/REC-SVG-20010904/DTD/svg10.dtd">
<svg version="1.0" xmlns="http://www.w3.org/2000/svg"
 width="96.000000pt" height="68.000000pt" viewBox="0 0 96.000000 68.000000"
 preserveAspectRatio="xMidYMid meet">
<metadata>
Created by potrace 1.16, written by Peter Selinger 2001-2019
Combined from part_0.svg through part_5.svg with named groups
</metadata>
<g transform="translate(0.000000,68.000000) scale(0.100000,-0.100000)" fill="#000000" stroke="none">
<g id="part-0" class="char-part">
  <path d="M450 570 c-113 -15 -207 -28 -210 -29 -3 -1 3 -6 12 -12 14 -8 18
-24 18 -79 0 -120 -41 -250 -104 -333 -33 -44 -33 -51 2 -33 78 40 137 176
167 387 6 40 11 48 33 52 24 5 174 20 340 33 66 6 79 18 36 34 -34 13 -56 12
-294 -20z"/>
  <path d="M664 530 c-5 -5 -32 -21 -59 -35 l-50 -25 41 6 c40 6 41 5 37 -19 -5
-25 -27 -37 -71 -37 -14 0 -21 -4 -16 -11 4 -7 21 -9 40 -6 19 3 34 2 34 -3 0
-5 -23 -28 -50 -51 -28 -23 -48 -44 -46 -47 8 -8 46 9 76 35 l30 25 0 -41 c0
-34 3 -41 20 -41 17 0 20 7 20 45 0 25 4 45 9 45 6 0 30 -13 54 -30 50 -34 67
-37 67 -15 0 15 -90 65 -117 65 -7 0 -13 7 -13 15 0 10 18 16 61 21 47 5 57 9
44 17 -9 5 -35 6 -56 3 -34 -5 -39 -4 -40 14 -1 11 -2 26 -3 33 -1 6 6 13 14
13 46 4 46 4 26 19 -23 17 -38 19 -52 5z"/>
  <path d="M425 483 c-27 -20 -40 -32 -27 -29 16 5 24 3 28 -9 9 -22 1 -28 -49
-36 l-42 -6 38 -2 c21 0 37 -6 37 -13 0 -6 -21 -31 -46 -55 -54 -50 -47 -57
14 -12 l42 31 0 -34 c0 -18 4 -39 9 -47 16 -25 31 -1 31 50 0 53 4 57 37 34
13 -9 24 -11 28 -6 6 10 -5 19 -45 37 -22 10 -23 12 -7 18 51 18 53 20 25 24
-16 2 -28 7 -28 12 0 5 -2 14 -5 22 -3 8 6 18 26 25 17 7 28 17 24 22 -11 18
-38 10 -90 -26z"/>
  <path d="M570 249 c-25 -4 -72 -8 -105 -8 l-60 -1 0 -97 c0 -85 3 -98 18 -101
10 -2 17 3 17 12 0 13 15 16 90 16 50 0 90 -4 90 -8 0 -5 6 -16 13 -26 12 -16
16 -17 35 -5 20 13 22 22 22 111 0 123 -5 128 -120 107z m70 -43 c0 -26 -4
-27 -132 -42 -54 -6 -58 -5 -58 15 0 11 -1 24 -2 28 -4 11 48 20 125 22 65 1
67 0 67 -23z m0 -79 l0 -33 -90 -3 c-50 -1 -94 0 -99 3 -5 4 -7 15 -4 25 5 19
15 21 181 40 7 0 12 -12 12 -32z"/>
</g>
<g id="part-1" class="char-part">
  <path d="M475 569 c-121 -15 -222 -28 -224 -28 -3 -1 4 -7 14 -15 16 -12 17
-22 12 -97 -10 -130 -51 -244 -112 -318 -33 -38 -18 -41 25 -4 66 55 99 132
130 307 11 60 21 110 22 111 7 5 213 25 311 31 95 6 123 14 100 27 -26 14 -81
11 -278 -14z"/>
</g>
<g id="part-2" class="char-part">
  <path d="M637 484 c-4 -4 -7 -17 -7 -30 0 -22 -22 -34 -68 -34 -14 0 -21 -4
-16 -11 4 -7 21 -9 40 -6 19 3 34 2 34 -2 0 -10 -69 -74 -96 -89 -10 -6 -16
-14 -12 -17 4 -4 32 7 63 24 l55 31 0 -24 c0 -36 10 -55 26 -49 9 3 14 21 14
54 0 27 2 49 5 49 3 0 25 -16 51 -35 49 -37 88 -47 77 -19 -6 16 -96 64 -120
64 -7 0 -13 6 -13 14 0 10 19 16 62 21 48 6 57 10 44 17 -10 6 -37 7 -60 4
-40 -6 -43 -5 -42 16 1 22 -23 36 -37 22z"/>
</g>
<g id="part-3" class="char-part">
  <path d="M570 249 c-25 -4 -72 -8 -105 -8 l-60 -1 0 -95 c0 -63 4 -98 13 -107
10 -10 14 -8 18 10 6 21 12 22 95 22 49 0 89 -4 89 -8 0 -5 6 -17 14 -27 14
-19 15 -19 35 -1 18 17 21 30 21 112 0 118 -6 124 -120 103z m70 -43 c0 -21
-6 -24 -52 -30 -29 -4 -72 -9 -95 -12 -43 -6 -43 -6 -43 24 0 35 9 37 128 40
59 2 62 1 62 -22z m-2 -78 l-3 -33 -98 -3 c-98 -4 -99 -4 -95 20 3 21 10 24
93 34 50 6 94 12 98 13 5 0 7 -14 5 -31z"/>
</g>
</g>
</svg>