<?xml version="1.0" standalone="no"?>
<!DOCTYPE svg PUBLIC "-//W3C//DTD SVG 20010904//EN"
 "http://www.w3.org/TR/2001/REC-SVG-20010904/DTD/svg10.dtd">
<svg version="1.0" xmlns="http://www.w3.org/2000/svg"
 width="96.000000pt" height="68.000000pt" viewBox="0 0 96.000000 68.000000"
 preserveAspectRatio="xMidYMid meet">
<metadata>
Created by potrace 1.16, written by Peter Selinger 2001-2019
Combined from part_0.svg through part_5.svg with named groups
</metadata>
<g transform="translate(0.000000,68.000000) scale(0.100000,-0.100000)" fill="#000000" stroke="none">
<g id="part-0" class="char-part">
  <path d="M257 583 c-4 -3 -7 -15 -7 -25 0 -43 -83 -174 -102 -162 -7 5 -8 2
-3 -5 4 -8 -5 -26 -26 -47 -18 -19 -27 -34 -19 -34 14 0 78 45 97 70 10 12 12
1 13 -59 0 -41 -5 -102 -11 -137 -11 -66 -2 -104 26 -104 19 0 23 21 29 176 5
107 3 134 -8 144 -13 10 -8 21 30 76 24 36 44 71 44 78 0 27 -45 48 -63 29z"/>
  <path d="M606 568 c-23 -85 -42 -138 -62 -174 -28 -50 -16 -59 16 -13 19 25
28 30 58 27 34 -3 37 -6 39 -37 3 -39 -13 -107 -28 -116 -5 -4 -18 2 -27 12
-23 26 -53 37 -45 17 3 -7 9 -14 14 -14 5 0 16 -11 25 -25 15 -23 15 -27 1
-48 -8 -13 -39 -36 -69 -50 -29 -15 -46 -27 -37 -27 26 0 82 22 119 47 l34 23
42 -47 c44 -49 68 -55 139 -34 27 8 28 9 10 15 -65 23 -133 52 -153 65 -25 18
-25 20 7 125 14 48 17 74 11 86 -9 16 -4 19 40 25 28 4 50 12 50 17 0 10 -52
7 -152 -8 l-36 -6 30 60 c17 33 28 67 25 76 -7 19 -46 21 -51 4z"/>
  <path d="M390 513 c0 -92 -6 -103 -51 -103 -21 0 -41 -4 -44 -10 -4 -6 12 -10
41 -10 l46 0 -4 -54 -4 -54 35 2 c29 1 37 -3 39 -20 2 -11 -2 -32 -7 -47 -9
-24 -16 -27 -55 -27 -37 0 -45 3 -50 23 -10 37 -7 57 9 57 8 0 15 4 15 9 0 6
-18 9 -40 9 -30 0 -38 -3 -31 -12 6 -7 15 -36 22 -64 10 -51 29 -77 37 -54 2
7 16 12 32 12 42 0 90 11 85 20 -3 4 6 24 20 44 14 20 25 41 25 45 0 13 -27
21 -66 21 l-35 0 7 48 c9 61 9 62 50 62 19 0 34 5 34 10 0 6 -16 10 -36 10
l-36 0 7 38 c3 20 9 46 11 58 4 15 -2 23 -21 32 -14 7 -28 12 -30 12 -3 0 -5
-26 -5 -57z"/>
</g>
<g id="part-1" class="char-part">
  <path d="M260 568 c0 -35 -68 -149 -123 -205 -62 -63 -50 -69 23 -11 l52 42
-6 -120 c-4 -65 -7 -132 -8 -147 -1 -35 17 -56 33 -40 18 18 28 284 12 304
-18 22 -18 23 32 93 25 35 45 67 45 71 0 11 -32 34 -47 35 -7 0 -13 -10 -13
-22z"/>
</g>
<g id="part-2" class="char-part">
  <path d="M388 507 c4 -75 -10 -97 -63 -97 -19 0 -37 -4 -40 -10 -4 -6 14 -10
46 -10 l52 0 -5 -45 c-5 -39 -3 -45 13 -45 14 0 20 10 25 49 7 51 17 61 72 61
12 0 22 5 22 10 0 6 -18 10 -41 10 -38 0 -41 2 -36 23 19 79 19 95 -1 106 -41
22 -47 15 -44 -52z"/>
</g>
<g id="part-3" class="char-part">
  <path d="M410 299 c-25 -4 -64 -8 -88 -8 -37 -1 -41 -3 -33 -18 6 -10 17 -44
26 -77 15 -55 17 -57 34 -42 10 9 35 16 57 16 49 0 53 4 84 64 23 47 24 49 5
62 -20 15 -19 15 -85 3z m35 -56 c-4 -21 -8 -40 -10 -42 -2 -2 -24 -6 -50 -8
-39 -5 -45 -3 -45 13 0 11 -3 29 -6 41 -7 24 6 30 75 32 l43 1 -7 -37z"/>
</g>
<g id="part-4" class="char-part">
  <path d="M652 352 c0 -32 -5 -68 -11 -80 l-12 -23 -30 26 c-47 39 -70 32 -26
-9 20 -18 37 -38 37 -43 0 -16 -64 -71 -100 -87 -29 -12 -31 -15 -12 -16 30 0
92 26 118 51 l22 21 50 -52 c47 -49 51 -51 88 -44 59 11 82 21 64 28 -8 3 -41
15 -73 27 -32 11 -69 31 -82 42 l-25 22 25 88 c14 48 23 92 20 97 -4 6 -17 10
-30 10 -23 0 -24 -3 -23 -58z"/>
</g>
</g>
</svg>