<?xml version="1.0" standalone="no"?>
<!DOCTYPE svg PUBLIC "-//W3C//DTD SVG 20010904//EN"
 "http://www.w3.org/TR/2001/REC-SVG-20010904/DTD/svg10.dtd">
<svg version="1.0" xmlns="http://www.w3.org/2000/svg"
 width="96.000000pt" height="68.000000pt" viewBox="0 0 96.000000 68.000000"
 preserveAspectRatio="xMidYMid meet">
<metadata>
Created by potrace 1.16, written by Peter Selinger 2001-2019
Combined from part_0.svg through part_5.svg with named groups
</metadata>
<g transform="translate(0.000000,68.000000) scale(0.100000,-0.100000)" fill="#000000" stroke="none">
<g id="part-0" class="char-part">
  <path d="M224 579 c-3 -5 0 -17 6 -28 15 -28 13 -121 -2 -122 -7 -1 -28 -3
-46 -3 l-34 -2 -1 -78 c0 -72 12 -110 30 -93 4 4 9 40 12 80 5 65 8 72 29 75
20 3 22 0 22 -48 0 -28 -5 -105 -11 -170 -11 -122 -5 -160 25 -160 25 0 31 33
36 210 l5 175 28 3 c29 4 31 -1 28 -68 -2 -50 -8 -61 -27 -53 -16 6 -15 3 2
-20 10 -14 22 -27 26 -27 14 0 33 46 44 110 13 78 2 94 -60 85 l-39 -6 7 59
c5 43 3 62 -6 69 -18 14 -67 22 -74 12z"/>
  <path d="M611 563 c-19 -13 -53 -28 -75 -34 -75 -20 -83 -28 -23 -22 l57 6 0
-50 c0 -56 -8 -62 -80 -63 -19 0 -42 -5 -50 -10 -11 -7 5 -10 53 -10 l67 0
-37 -36 c-21 -19 -58 -46 -83 -59 -25 -14 -37 -24 -27 -25 24 0 83 25 114 50
36 28 40 26 36 -19 -2 -27 2 -41 12 -45 21 -8 29 11 26 65 -1 26 2 50 7 53 5
3 34 -11 64 -32 97 -66 128 -78 128 -48 0 24 -48 54 -122 78 -58 19 -66 24
-47 29 13 4 52 7 87 8 61 1 81 14 42 26 -11 4 -49 3 -84 0 l-64 -7 -4 55 -3
54 43 12 c45 12 51 29 16 41 -12 4 -31 -1 -53 -17z"/>
  <path d="M663 482 c-17 -20 -30 -38 -29 -40 6 -5 106 41 106 49 0 7 -33 30
-42 29 -2 -1 -17 -18 -35 -38z"/>
  <path d="M470 445 c28 -30 40 -32 40 -6 0 11 -9 21 -22 25 -39 10 -42 7 -18
-19z"/>
  <path d="M610 234 c-52 -7 -119 -13 -147 -13 -56 -1 -61 -4 -39 -26 7 -8 20
-44 27 -80 12 -60 15 -66 34 -61 12 3 59 9 105 12 78 6 84 6 99 -15 33 -43 61
-7 76 99 3 24 10 49 16 56 6 8 2 16 -15 28 -28 18 -26 18 -156 0z m110 -38 c0
-21 -5 -24 -52 -29 -29 -2 -55 -3 -57 -1 -2 2 -1 15 3 29 6 23 11 25 56 25 46
0 50 -2 50 -24z m-152 -18 c3 -27 2 -28 -46 -28 -43 0 -50 3 -55 22 -8 29 8
39 58 36 35 -3 40 -6 43 -30z m142 -38 c28 -18 -2 -45 -54 -48 -43 -3 -46 -2
-46 22 0 21 5 25 38 29 20 2 39 4 42 5 3 1 12 -3 20 -8z m-140 -30 c0 -17 -7
-20 -40 -20 -22 0 -40 2 -40 4 0 2 -3 11 -6 20 -5 13 2 16 40 16 39 0 46 -3
46 -20z"/>
</g>
<g id="part-1" class="char-part">
  <path d="M234 563 c15 -38 17 -137 6 -283 -16 -202 -16 -216 0 -234 28 -35 37
0 44 177 7 186 14 282 22 309 6 19 -30 48 -59 48 -14 0 -17 -5 -13 -17z"/>
</g>
<g id="part-2" class="char-part">
  <path d="M265 433 c-38 -7 -81 -12 -95 -9 l-25 5 1 -81 c2 -74 14 -112 31 -94
4 4 9 37 11 74 2 37 7 70 11 73 3 4 39 10 79 14 l72 7 0 -59 c0 -68 -4 -77
-34 -61 -16 8 -14 3 9 -21 l30 -32 17 22 c10 11 18 33 18 48 0 14 5 43 11 64
9 33 8 41 -8 53 -22 16 -37 16 -128 -3z"/>
</g>
<g id="part-3" class="char-part">
  <path d="M620 570 c-14 -10 -55 -29 -92 -41 -38 -12 -68 -24 -68 -26 0 -9 105
9 168 29 65 21 74 31 43 48 -24 13 -21 13 -51 -10z"/>
</g>
<g id="part-4" class="char-part">
  <path d="M577 513 c-4 -3 -7 -28 -7 -54 0 -52 11 -46 -110 -65 -43 -7 -44 -7
-17 -15 16 -4 34 -6 40 -4 7 2 28 6 47 9 l34 6 -39 -40 c-22 -23 -59 -52 -82
-66 -24 -14 -43 -27 -43 -29 0 -9 87 27 122 50 21 14 39 25 42 25 2 0 3 -15 1
-33 -2 -19 0 -40 5 -47 16 -26 30 3 30 61 0 32 3 59 6 59 3 0 43 -23 90 -52
67 -41 87 -49 97 -39 20 20 -35 58 -119 83 -40 12 -69 25 -63 29 6 3 43 7 81
8 77 2 98 8 77 22 -8 5 -48 6 -90 3 l-77 -6 7 39 c4 21 6 44 3 51 -4 13 -25
16 -35 5z"/>
</g>
<g id="part-5" class="char-part">
  <path d="M709 239 c-19 -12 9 -30 36 -24 16 4 15 2 -3 -7 -19 -9 -23 -17 -18
-39 7 -37 -12 -92 -30 -85 -20 8 -17 -7 6 -34 l21 -24 6 22 c3 12 10 22 15 22
6 0 8 11 6 25 -3 14 -1 25 4 25 5 0 7 4 3 9 -3 5 1 28 9 50 13 40 13 41 -14
55 -17 8 -33 10 -41 5z"/>
  <path d="M670 230 c-9 -6 -10 -10 -3 -10 6 0 15 5 18 10 8 12 4 12 -15 0z"/>
  <path d="M570 217 c0 -7 5 -18 12 -25 9 -9 9 -12 -1 -12 -7 0 -11 -6 -8 -12 2
-7 -5 -19 -17 -26 -13 -8 -14 -11 -4 -8 9 3 22 -3 30 -12 11 -13 11 -14 -1 -7
-11 6 -13 4 -8 -7 3 -9 2 -19 -3 -24 -5 -5 7 -10 27 -11 30 -1 33 0 18 10 -13
10 -14 18 -6 41 6 15 8 32 5 38 -4 6 -7 24 -6 39 0 22 -4 29 -19 29 -10 0 -19
-6 -19 -13z"/>
  <path d="M420 210 c0 -5 7 -10 16 -10 11 0 14 -5 10 -16 -3 -9 -3 -21 0 -26 4
-6 8 -27 10 -46 3 -35 18 -61 29 -50 10 10 -7 58 -18 51 -6 -4 -7 -1 -3 6 5 7
18 17 30 22 l21 10 -22 -5 c-22 -4 -33 10 -33 44 0 10 -7 21 -16 24 -21 8 -24
8 -24 -4z"/>
  <path d="M488 213 c6 -2 18 -2 25 0 6 3 1 5 -13 5 -14 0 -19 -2 -12 -5z"/>
  <path d="M668 153 c6 -2 18 -2 25 0 6 3 1 5 -13 5 -14 0 -19 -2 -12 -5z"/>
  <path d="M640 86 c0 -2 7 -6 15 -10 8 -3 15 -1 15 4 0 6 -7 10 -15 10 -8 0
-15 -2 -15 -4z"/>
  <path d="M513 73 c9 -2 23 -2 30 0 6 3 -1 5 -18 5 -16 0 -22 -2 -12 -5z"/>
</g>
</g>
</svg>