<?xml version="1.0" standalone="no"?>
<!DOCTYPE svg PUBLIC "-//W3C//DTD SVG 20010904//EN"
 "http://www.w3.org/TR/2001/REC-SVG-20010904/DTD/svg10.dtd">
<svg version="1.0" xmlns="http://www.w3.org/2000/svg"
 width="96.000000pt" height="68.000000pt" viewBox="0 0 96.000000 68.000000"
 preserveAspectRatio="xMidYMid meet">
<metadata>
Created by potrace 1.16, written by Peter Selinger 2001-2019
Combined from part_0.svg through part_5.svg with named groups
</metadata>
<g transform="translate(0.000000,68.000000) scale(0.100000,-0.100000)" fill="#000000" stroke="none">
<g id="part-0" class="char-part">
  <path d="M260 552 c-12 -27 -45 -68 -78 -99 -68 -63 -50 -70 34 -14 85 57 131
107 118 128 -5 9 -20 20 -32 24 -19 7 -24 2 -42 -39z"/>
  <path d="M622 326 c2 -151 6 -278 11 -282 16 -16 26 14 33 93 l7 82 88 7 c49
3 89 10 89 14 0 11 -47 21 -72 15 -13 -2 -42 -7 -66 -9 l-43 -4 3 46 3 47 63
3 c44 2 62 7 59 15 -3 8 -24 11 -66 9 l-61 -3 0 41 0 40 43 0 c52 0 87 9 87
23 0 6 -24 8 -66 4 l-67 -7 6 60 c6 52 4 61 -13 70 -41 22 -41 21 -38 -264z"/>
  <path d="M467 533 c16 -64 11 -77 -34 -87 -57 -13 -55 -30 2 -23 l45 7 0 -35
c0 -21 -5 -35 -12 -35 -26 0 -90 -22 -84 -28 4 -3 25 -5 46 -3 38 2 40 1 40
-27 0 -36 -9 -43 -82 -66 -62 -18 -73 -32 -34 -42 16 -4 37 3 64 20 42 26 57
25 42 -3 -5 -9 -11 -28 -14 -43 -3 -14 -17 -40 -31 -56 -46 -55 -23 -60 29 -6
51 53 70 135 71 309 l0 140 -28 3 c-26 3 -27 2 -20 -25z"/>
  <path d="M287 422 c-8 -39 -70 -116 -122 -152 -94 -64 -42 -52 58 15 l29 18
-6 -84 c-10 -145 -10 -150 5 -159 7 -5 18 -5 22 -1 12 12 24 227 13 250 -7 15
0 30 30 66 37 45 37 48 19 61 -28 21 -42 17 -48 -14z"/>
</g>
<g id="part-1" class="char-part">
  <path d="M265 553 c-9 -21 -39 -62 -68 -90 -28 -29 -47 -53 -42 -53 30 1 185
127 185 151 0 9 -33 29 -49 29 -6 0 -18 -17 -26 -37z"/>
</g>
<g id="part-2" class="char-part">
  <path d="M285 419 c-8 -36 -66 -103 -138 -161 -64 -50 -36 -49 39 1 l59 40 3
-52 c2 -29 -2 -75 -8 -103 -10 -39 -10 -56 -1 -73 17 -30 34 -22 42 20 11 49
13 201 4 222 -6 14 2 28 31 58 32 32 37 43 28 57 -6 9 -20 18 -32 20 -16 2
-22 -4 -27 -29z"/>
</g>
<g id="part-3" class="char-part">
  <path d="M467 523 c9 -46 9 -176 0 -256 -7 -62 -36 -139 -64 -169 -20 -23 -11
-33 15 -19 29 16 57 58 76 117 20 61 38 332 23 352 -5 6 -20 12 -34 12 -22 0
-23 -2 -16 -37z"/>
</g>
<g id="part-4" class="char-part">
  <path d="M380 236 c-60 -21 -63 -23 -43 -34 12 -7 27 -12 33 -12 16 0 90 49
90 60 0 12 -1 12 -80 -14z"/>
</g>
<g id="part-5" class="char-part">
  <path d="M637 323 c-3 -5 -4 -70 -4 -146 1 -93 4 -132 10 -121 6 10 11 38 13
63 2 25 6 61 10 80 4 23 1 37 -8 42 -10 7 -10 9 0 9 6 0 12 4 12 10 0 5 -7 7
-15 4 -11 -5 -13 -2 -9 10 3 9 10 13 15 10 10 -6 12 7 3 30 -6 17 -20 21 -27
9z"/>
  <path d="M790 240 c8 -5 24 -9 35 -9 l20 0 -20 9 c-11 5 -27 9 -35 9 -13 1
-13 0 0 -9z"/>
  <path d="M685 230 c-3 -5 -1 -10 4 -10 6 0 11 5 11 10 0 6 -2 10 -4 10 -3 0
-8 -4 -11 -10z"/>
  <path d="M710 232 c0 -5 14 -7 30 -4 17 2 30 6 30 8 0 2 -13 4 -30 4 -16 0
-30 -4 -30 -8z"/>
</g>
</g>
</svg>