<?xml version="1.0" standalone="no"?>
<!DOCTYPE svg PUBLIC "-//W3C//DTD SVG 20010904//EN"
 "http://www.w3.org/TR/2001/REC-SVG-20010904/DTD/svg10.dtd">
<svg version="1.0" xmlns="http://www.w3.org/2000/svg"
 width="96.000000pt" height="68.000000pt" viewBox="0 0 96.000000 68.000000"
 preserveAspectRatio="xMidYMid meet">
<metadata>
Created by potrace 1.16, written by Peter Selinger 2001-2019
Combined from part_0.svg through part_5.svg with named groups
</metadata>
<g transform="translate(0.000000,68.000000) scale(0.100000,-0.100000)" fill="#000000" stroke="none">
<g id="part-0" class="char-part">
  <path d="M260 591 c0 -17 72 -72 87 -67 8 3 18 6 23 6 4 0 6 10 3 21 -9 31
-113 69 -113 40z"/>
  <path d="M523 563 c4 -118 -11 -153 -64 -153 -16 0 -29 -4 -29 -10 0 -5 16
-10 35 -10 23 0 35 -5 35 -14 0 -32 -66 -139 -108 -176 -25 -22 -38 -40 -30
-40 20 0 105 65 118 90 6 11 15 20 19 20 11 0 81 -69 81 -79 0 -13 -64 -68
-100 -86 -19 -10 -30 -20 -23 -22 16 -6 97 34 119 58 21 24 39 24 56 1 49 -66
113 -87 187 -61 41 14 31 24 -39 38 -62 13 -140 55 -140 75 0 8 16 40 35 72
41 68 43 82 13 93 -30 11 -38 6 -38 -27 0 -31 -35 -112 -48 -112 -4 0 -21 14
-37 30 -16 17 -35 30 -42 30 -7 0 -13 3 -13 8 0 7 32 103 37 111 1 2 37 10 80
18 43 8 84 18 93 23 31 17 -36 22 -96 6 -32 -8 -60 -13 -63 -11 -2 3 1 33 7
67 12 66 5 88 -28 88 -13 0 -18 -7 -17 -27z"/>
  <path d="M650 552 c0 -12 48 -52 62 -52 13 0 22 30 12 40 -15 13 -74 23 -74
12z"/>
  <path d="M275 454 c-27 -7 -65 -14 -82 -14 -23 0 -33 -5 -33 -15 0 -19 31 -19
94 0 86 26 91 17 29 -51 -15 -17 -44 -48 -63 -70 -19 -22 -54 -55 -77 -74 -24
-18 -41 -35 -39 -37 8 -8 72 30 124 74 l52 45 0 -64 c0 -35 -5 -81 -10 -102
-5 -25 -5 -46 1 -58 21 -40 34 -11 42 93 5 57 10 106 13 108 2 2 15 -4 28 -13
31 -20 46 -20 46 -1 0 8 -17 19 -40 26 -67 20 -69 32 -10 90 41 41 49 53 39
65 -14 17 -48 17 -114 -2z"/>
</g>
<g id="part-1" class="char-part">
  <path d="M276 592 c-10 -9 46 -62 65 -62 25 0 34 19 17 36 -16 17 -74 35 -82
26z"/>
</g>
<g id="part-2" class="char-part">
  <path d="M319 424 c-17 -25 -73 -88 -124 -140 -52 -52 -92 -94 -89 -94 17 0
93 48 131 83 l46 42 -7 -90 c-10 -131 -10 -145 3 -158 20 -20 28 8 36 120 4
57 10 103 13 101 50 -25 63 -30 68 -25 14 14 -7 36 -40 42 -62 12 -63 27 -6
84 54 54 59 65 34 75 -27 10 -32 7 -65 -40z"/>
</g>
<g id="part-3" class="char-part">
  <path d="M650 551 c0 -14 41 -51 57 -51 17 0 29 28 17 40 -15 13 -74 23 -74
11z"/>
</g>
<g id="part-4" class="char-part">
  <path d="M525 533 c0 -96 -7 -110 -62 -118 -50 -7 -43 -25 10 -25 15 0 27 -6
27 -12 0 -32 -52 -119 -99 -166 -58 -58 -52 -67 14 -22 48 33 100 105 117 163
14 45 22 51 109 66 79 15 101 26 71 35 -11 4 -50 0 -87 -9 -36 -8 -67 -15 -69
-15 -1 0 4 32 13 71 13 61 13 72 0 80 -34 21 -44 11 -44 -48z"/>
</g>
<g id="part-5" class="char-part">
  <path d="M661 336 c-11 -19 -11 -28 0 -47 12 -23 11 -23 -6 -9 -10 8 -16 10
-12 3 4 -6 2 -15 -4 -18 -5 -4 -8 -14 -4 -23 3 -9 3 -13 -1 -9 -4 4 -14 -3
-22 -14 -12 -17 -16 -18 -23 -8 -6 10 -9 10 -9 2 0 -6 4 -14 10 -18 5 -3 7
-13 4 -23 -5 -14 -4 -15 5 -2 5 8 12 12 14 10 2 -3 10 -15 18 -27 10 -14 19
-19 28 -13 17 10 4 33 -15 26 -8 -3 -14 -2 -15 2 0 4 -2 17 -3 29 -1 12 2 21
7 20 5 -1 21 21 37 48 20 37 25 56 19 73 -10 28 -13 28 -28 -2z"/>
  <path d="M510 277 c0 -2 14 -16 32 -33 30 -28 30 -18 -1 18 -13 16 -31 24 -31
15z"/>
  <path d="M544 146 c-11 -12 -33 -31 -50 -44 -29 -22 -29 -22 11 1 22 13 48 26
58 30 9 3 17 11 17 16 0 19 -15 17 -36 -3z"/>
  <path d="M670 135 c-10 -12 -8 -18 11 -35 13 -10 27 -20 32 -21 12 -2 57 -1
65 2 13 4 27 7 47 9 l20 1 -20 8 c-11 5 -23 7 -27 4 -5 -2 -18 3 -30 11 -12 9
-33 16 -45 16 -13 0 -23 5 -23 10 0 15 -16 12 -30 -5z"/>
</g>
</g>
</svg>