<?xml version="1.0" standalone="no"?>
<!DOCTYPE svg PUBLIC "-//W3C//DTD SVG 20010904//EN"
 "http://www.w3.org/TR/2001/REC-SVG-20010904/DTD/svg10.dtd">
<svg version="1.0" xmlns="http://www.w3.org/2000/svg"
 width="96.000000pt" height="68.000000pt" viewBox="0 0 96.000000 68.000000"
 preserveAspectRatio="xMidYMid meet">
<metadata>
Created by potrace 1.16, written by Peter Selinger 2001-2019
Combined from part_0.svg through part_5.svg with named groups
</metadata>
<g transform="translate(0.000000,68.000000) scale(0.100000,-0.100000)" fill="#000000" stroke="none">
<g id="part-0" class="char-part">
  <path d="M362 570 c-24 -23 -139 -80 -159 -80 -7 0 -13 -5 -13 -11 0 -8 11 -9
32 -5 27 5 36 1 63 -29 l32 -34 -86 -45 c-92 -48 -90 -58 4 -26 70 24 75 24
75 5 0 -8 -32 -36 -70 -61 -39 -26 -69 -49 -67 -50 7 -7 73 21 114 48 47 32
59 34 66 14 8 -21 -46 -70 -135 -124 -42 -25 -75 -48 -74 -50 7 -6 109 41 163
75 58 37 69 32 58 -25 -11 -62 -31 -85 -71 -80 -48 6 -46 1 19 -51 14 -11 21
-11 43 4 35 23 54 73 54 144 0 74 -9 99 -54 149 l-36 39 26 12 c14 6 30 8 36
5 6 -4 8 -3 5 2 -3 6 17 22 44 38 55 31 58 46 11 60 -28 8 -33 5 -62 -28 -18
-20 -36 -36 -42 -36 -5 0 -7 4 -4 8 6 10 -5 26 -27 38 -14 8 -5 15 53 40 70
29 90 54 54 68 -24 9 -28 8 -52 -14z"/>
  <path d="M675 504 c-38 -7 -94 -14 -122 -15 -29 -1 -53 -5 -53 -10 0 -12 38
-21 60 -14 16 5 20 2 20 -14 0 -28 -29 -74 -85 -132 -26 -27 -43 -49 -38 -49
22 0 106 71 143 120 41 55 47 70 30 70 -5 0 -10 4 -10 9 0 13 120 25 131 14
10 -10 -2 -85 -22 -135 -12 -30 -36 -36 -70 -18 -26 15 -24 5 8 -30 14 -17 34
-30 44 -30 24 0 57 44 69 94 6 22 17 60 24 84 13 40 12 44 -7 57 -24 17 -27
17 -122 -1z"/>
  <path d="M170 440 c0 -13 46 -60 58 -60 5 0 15 6 21 14 9 11 6 18 -15 35 -28
22 -64 28 -64 11z"/>
  <path d="M620 228 c-41 -5 -94 -7 -117 -5 -24 3 -43 3 -43 2 0 -2 7 -16 15
-31 8 -16 15 -36 15 -44 0 -8 5 -31 10 -52 l10 -36 83 4 c135 8 167 13 167 31
0 8 12 38 26 66 24 48 24 52 8 64 -20 15 -63 15 -174 1z m106 -49 c-3 -17 -6
-37 -6 -43 -1 -28 -20 -37 -97 -43 l-80 -6 -11 46 c-7 25 -12 50 -12 56 0 11
45 16 149 19 l64 2 -7 -31z"/>
</g>
<g id="part-1" class="char-part">
  <path d="M364 569 c-20 -22 -100 -66 -144 -80 -22 -6 -21 -7 11 -8 28 -1 41
-7 53 -26 9 -14 23 -25 32 -25 23 0 13 32 -14 46 -21 10 -17 13 45 39 85 35
93 42 69 61 -26 18 -29 18 -52 -7z"/>
  <path d="M368 450 c-20 -21 -75 -57 -122 -81 -46 -24 -83 -45 -82 -47 7 -7
146 52 224 94 85 46 99 68 46 70 -21 1 -39 -8 -66 -36z"/>
  <path d="M176 438 c15 -27 38 -48 51 -48 21 0 15 27 -9 44 -27 19 -52 21 -42
4z"/>
</g>
<g id="part-2" class="char-part">
  <path d="M325 250 c-16 -17 -68 -54 -115 -81 -93 -54 -71 -59 35 -8 84 40 118
69 113 98 -3 22 -4 22 -33 -9z"/>
</g>
<g id="part-3" class="char-part">
  <path d="M675 504 c-38 -7 -94 -13 -122 -13 -29 -1 -53 -5 -53 -10 0 -19 41
-22 121 -6 140 26 146 23 125 -69 -18 -75 -31 -89 -74 -81 l-34 6 29 -31 c52
-56 89 -26 121 96 11 38 22 76 26 85 5 11 -1 19 -19 27 -30 14 -28 14 -120 -4z"/>
</g>
<g id="part-4" class="char-part">
  <path d="M580 443 c-19 -51 -32 -72 -86 -127 l-52 -56 38 20 c44 22 94 71 136
131 23 34 25 42 13 50 -24 15 -39 10 -49 -18z"/>
</g>
<g id="part-5" class="char-part">
  <path d="M690 230 c-25 -8 -25 -8 5 -11 17 -1 39 -1 50 -1 11 1 15 -1 9 -5
-18 -13 -24 -44 -13 -65 8 -15 8 -23 -1 -32 -8 -8 -10 -7 -5 7 5 10 2 17 -6
17 -7 0 -9 -3 -6 -7 4 -3 0 -17 -8 -30 -15 -22 -14 -23 10 -21 21 2 26 9 32
40 3 21 10 38 15 38 6 0 7 12 4 28 -4 18 -4 22 3 13 5 -7 14 -10 21 -6 30 19
-65 50 -110 35z m67 -52 c-3 -8 -6 -5 -6 6 -1 11 2 17 5 13 3 -3 4 -12 1 -19z"/>
  <path d="M478 202 c2 -7 11 -11 19 -8 11 4 11 1 3 -14 -8 -14 -8 -32 0 -59 14
-52 27 -60 70 -44 l35 13 -37 -5 c-34 -5 -38 -4 -38 15 0 13 -4 19 -12 14 -7
-5 -8 -3 -2 7 4 7 7 28 5 45 -2 30 0 32 46 41 l48 10 -71 -1 c-55 -1 -70 -4
-66 -14z"/>
  <path d="M655 80 c3 -5 11 -10 16 -10 6 0 7 5 4 10 -3 6 -11 10 -16 10 -6 0
-7 -4 -4 -10z"/>
  <path d="M618 73 c7 -3 16 -2 19 1 4 3 -2 6 -13 5 -11 0 -14 -3 -6 -6z"/>
</g>
</g>
</svg>