<?xml version="1.0" standalone="no"?>
<!DOCTYPE svg PUBLIC "-//W3C//DTD SVG 20010904//EN"
 "http://www.w3.org/TR/2001/REC-SVG-20010904/DTD/svg10.dtd">
<svg version="1.0" xmlns="http://www.w3.org/2000/svg"
 width="96.000000pt" height="68.000000pt" viewBox="0 0 96.000000 68.000000"
 preserveAspectRatio="xMidYMid meet">
<metadata>
Created by potrace 1.16, written by Peter Selinger 2001-2019
Combined from part_0.svg through part_5.svg with named groups
</metadata>
<g transform="translate(0.000000,68.000000) scale(0.100000,-0.100000)" fill="#000000" stroke="none">
<g id="part-0" class="char-part">
  <path d="M390 557 c-13 -30 -29 -54 -35 -55 -14 -1 -133 -21 -168 -28 -15 -3
-27 -9 -27 -14 0 -14 47 -20 94 -11 46 8 46 8 46 -20 0 -28 -1 -29 -51 -29
-49 0 -51 -1 -44 -22 4 -13 10 -43 15 -68 14 -76 16 -78 66 -72 44 5 46 4 42
-19 -3 -22 -9 -25 -96 -35 -51 -7 -96 -14 -99 -17 -22 -22 148 -17 175 5 8 7
12 7 12 -2 0 -25 -52 -81 -98 -105 -52 -27 -34 -34 27 -9 39 15 70 45 104 97
17 26 21 27 102 27 47 0 85 4 85 9 0 15 -50 22 -112 15 -56 -6 -61 -5 -55 10
4 10 7 22 7 28 0 6 20 9 50 6 43 -3 50 0 60 20 5 13 10 31 10 40 1 9 7 35 15
57 14 38 13 41 -6 56 -16 12 -32 14 -60 9 -22 -4 -40 -5 -41 -1 -9 38 8 48 85
50 33 1 47 5 47 15 0 20 -42 28 -103 20 l-52 -7 45 33 c25 18 47 35 50 37 8 7
-32 33 -50 33 -10 0 -26 -21 -40 -53z m-22 -120 c3 -23 0 -27 -22 -27 -18 0
-24 4 -21 15 3 8 7 22 10 31 8 24 30 11 33 -19z m104 -33 c3 -3 4 -13 1 -22
-3 -14 -12 -17 -39 -14 -36 4 -47 27 -16 35 26 7 48 8 54 1z m-84 -46 c8 -10
28 -18 43 -18 33 0 42 -11 34 -42 -5 -21 -13 -24 -68 -27 -150 -8 -142 -9
-144 24 0 17 -2 32 -3 35 -11 33 -8 49 11 55 27 9 36 -1 21 -25 -17 -27 -15
-32 7 -20 11 5 22 19 26 29 6 21 47 33 54 16 2 -5 10 -18 19 -27z"/>
  <path d="M328 313 c-16 -2 -28 -9 -28 -15 0 -6 12 -8 31 -4 17 3 44 6 60 6 16
0 29 5 29 10 0 10 -38 11 -92 3z"/>
  <path d="M240 570 c0 -18 57 -73 68 -66 16 9 15 41 0 53 -20 16 -68 25 -68 13z"/>
  <path d="M705 503 c-22 -8 -57 -13 -78 -11 l-38 2 1 -228 c0 -126 4 -236 9
-244 19 -34 28 29 34 226 4 125 10 209 17 217 13 16 80 25 80 10 0 -5 -8 -32
-17 -58 -17 -46 -17 -49 0 -58 23 -13 47 -62 47 -95 0 -24 -3 -26 -36 -22 -32
4 -34 3 -18 -9 19 -13 27 -18 57 -42 25 -20 47 2 47 50 0 55 -15 85 -54 111
-20 13 -36 27 -36 32 0 5 18 29 41 53 22 24 39 49 37 55 -7 20 -52 25 -93 11z"/>
  <path d="M444 90 c29 -27 51 -40 61 -36 12 4 13 10 6 24 -15 29 -33 40 -75 47
l-38 8 46 -43z"/>
</g>
<g id="part-1" class="char-part">
  <path d="M393 555 c-12 -25 -20 -45 -16 -45 3 0 28 16 55 36 36 27 46 39 36
45 -30 19 -53 8 -75 -36z"/>
  <path d="M256 548 c33 -40 64 -52 64 -25 0 21 -34 47 -60 47 -23 0 -23 0 -4
-22z"/>
  <path d="M445 510 c-22 -4 -93 -15 -157 -25 -65 -9 -118 -21 -118 -26 0 -13
46 -11 158 6 53 8 118 15 144 16 55 3 82 15 55 23 -35 12 -43 12 -82 6z"/>
</g>
<g id="part-2" class="char-part">
  <path d="M328 218 c-3 -21 -11 -24 -83 -31 -44 -5 -89 -12 -100 -16 -20 -8
-20 -8 0 -18 14 -8 41 -7 94 3 41 8 76 13 78 11 11 -12 -50 -75 -96 -99 -45
-24 -49 -28 -27 -28 53 0 130 55 165 118 9 17 26 19 161 22 l35 1 -25 14 c-19
11 -42 14 -92 9 -64 -6 -66 -5 -61 15 4 17 1 21 -20 21 -19 0 -26 -6 -29 -22z"/>
  <path d="M400 135 c0 -12 88 -85 103 -85 9 0 17 3 17 6 0 15 -23 45 -42 55
-24 13 -78 29 -78 24z"/>
</g>
<g id="part-3" class="char-part">
  <path d="M678 497 c-52 -15 -48 -28 7 -20 51 7 53 2 30 -54 -8 -20 -13 -38
-10 -41 8 -8 90 90 90 107 0 20 -62 24 -117 8z"/>
</g>
<g id="part-4" class="char-part">
  <path d="M588 278 c2 -239 6 -278 24 -260 10 10 34 459 26 468 -2 1 -14 5 -28
9 l-25 6 3 -223z"/>
</g>
</g>
</svg>