<?xml version="1.0" standalone="no"?>
<!DOCTYPE svg PUBLIC "-//W3C//DTD SVG 20010904//EN"
 "http://www.w3.org/TR/2001/REC-SVG-20010904/DTD/svg10.dtd">
<svg version="1.0" xmlns="http://www.w3.org/2000/svg"
 width="96.000000pt" height="68.000000pt" viewBox="0 0 96.000000 68.000000"
 preserveAspectRatio="xMidYMid meet">
<metadata>
Created by potrace 1.16, written by Peter Selinger 2001-2019
Combined from part_0.svg through part_5.svg with named groups
</metadata>
<g transform="translate(0.000000,68.000000) scale(0.100000,-0.100000)" fill="#000000" stroke="none">
<g id="part-0" class="char-part">
  <path d="M406 581 c-9 -60 -122 -174 -271 -274 -35 -24 -37 -27 -16 -27 51 0
164 72 254 162 76 76 91 87 105 77 10 -7 58 -54 107 -106 l90 -93 70 1 c39 0
79 4 90 9 19 7 19 8 -5 18 -98 39 -160 68 -196 93 -74 50 -147 118 -162 149
-10 20 -22 30 -37 30 -18 0 -24 -7 -29 -39z"/>
  <path d="M425 390 c-22 -5 -57 -11 -79 -15 -48 -8 -35 -27 21 -30 40 -3 60
-22 50 -49 -5 -12 -21 -16 -64 -17 -32 -1 -71 -4 -88 -8 l-30 -7 24 -13 c17
-9 46 -12 93 -9 l68 5 0 -67 0 -67 -31 -7 c-17 -3 -57 -6 -89 -6 -67 0 -120
-9 -120 -20 0 -20 67 -30 140 -20 41 5 140 10 220 10 155 0 190 5 190 25 0 27
-55 38 -141 26 -45 -6 -88 -11 -96 -11 -10 0 -13 19 -13 75 l0 75 80 0 c45 0
80 4 80 10 0 20 -44 32 -102 27 l-58 -5 0 34 c0 33 2 34 38 34 51 0 72 14 44
29 -23 12 -78 13 -137 1z"/>
  <path d="M570 231 c0 -4 -18 -29 -41 -55 -30 -34 -36 -46 -24 -46 23 0 135 51
135 61 0 5 -10 17 -22 29 -22 20 -48 27 -48 11z"/>
  <path d="M270 203 c0 -18 62 -83 80 -83 41 0 30 53 -15 70 -46 17 -65 21 -65
13z"/>
</g>
<g id="part-1" class="char-part">
  <path d="M416 598 c-3 -7 -7 -25 -10 -39 -8 -36 -134 -163 -225 -227 -86 -61
-75 -68 22 -14 82 45 135 87 205 165 l54 58 112 -110 112 -111 55 1 c29 1 65
4 79 9 l25 7 -25 11 c-14 5 -54 22 -90 36 -71 29 -243 156 -249 184 -5 26 -21
42 -43 42 -10 0 -20 -6 -22 -12z"/>
  <path d="M412 383 c-95 -16 -109 -29 -37 -35 37 -3 40 -6 43 -34 3 -30 1 -31
-44 -38 -26 -3 -64 -6 -86 -6 -24 0 -37 -4 -33 -10 3 -5 44 -10 91 -10 l84 0
0 -69 c0 -39 -4 -72 -8 -75 -4 -2 -58 -8 -120 -12 -62 -4 -112 -11 -112 -15 0
-18 59 -22 166 -11 61 7 171 12 243 12 102 0 132 3 129 13 -7 21 -66 34 -116
26 -26 -4 -68 -8 -94 -8 l-48 -1 0 59 c0 89 1 91 80 91 38 0 72 5 75 10 10 17
-45 31 -95 24 l-48 -6 -4 36 c-4 40 3 46 60 46 35 1 36 2 18 15 -23 17 -22 17
-144 -2z"/>
  <path d="M570 222 c0 -5 -17 -28 -37 -52 -21 -24 -31 -41 -23 -38 126 52 142
66 101 88 -24 12 -41 13 -41 2z"/>
  <path d="M280 193 c0 -15 62 -74 73 -70 7 2 13 13 15 25 3 18 -4 26 -32 37
-39 17 -56 19 -56 8z"/>
</g>
</g>
</svg>