<?xml version="1.0" standalone="no"?>
<!DOCTYPE svg PUBLIC "-//W3C//DTD SVG 20010904//EN"
 "http://www.w3.org/TR/2001/REC-SVG-20010904/DTD/svg10.dtd">
<svg version="1.0" xmlns="http://www.w3.org/2000/svg"
 width="96.000000pt" height="68.000000pt" viewBox="0 0 96.000000 68.000000"
 preserveAspectRatio="xMidYMid meet">
<metadata>
Created by potrace 1.16, written by Peter Selinger 2001-2019
Combined from part_0.svg through part_5.svg with named groups
</metadata>
<g transform="translate(0.000000,68.000000) scale(0.100000,-0.100000)" fill="#000000" stroke="none">
<g id="part-0" class="char-part">
  <path d="M265 570 c51 -56 120 -72 113 -26 -4 26 -42 46 -92 46 -39 0 -39 0
-21 -20z"/>
  <path d="M550 554 c-6 -14 -10 -28 -10 -32 0 -4 -18 -31 -40 -60 -47 -62 -49
-70 -12 -45 24 17 157 43 220 43 27 0 28 -26 8 -114 -15 -63 -27 -77 -59 -68
-20 5 -20 5 2 -26 25 -36 25 -36 52 -22 23 13 44 61 54 121 3 24 11 59 17 78
8 27 7 36 -5 49 -16 15 -44 13 -189 -14 -37 -7 -36 9 2 53 25 28 29 38 19 49
-18 22 -48 17 -59 -12z"/>
  <path d="M275 450 c-11 -4 -55 -11 -98 -15 -85 -8 -102 -19 -62 -37 21 -9 43
-8 108 4 45 9 83 15 85 13 7 -6 -141 -141 -185 -169 -30 -19 -42 -31 -33 -33
23 -5 81 22 134 62 25 19 49 35 53 35 6 0 -2 -136 -12 -185 -5 -23 -1 -37 13
-55 35 -43 47 -15 45 101 -2 54 0 99 3 99 2 0 18 -10 34 -21 30 -23 60 -20 60
5 0 9 -15 23 -32 33 l-33 17 38 14 c38 15 46 29 25 50 -16 16 -48 15 -48 -1 0
-8 -8 -21 -19 -31 -15 -14 -20 -14 -30 -2 -9 11 -3 22 36 55 46 39 47 41 28
55 -22 17 -78 20 -110 6z"/>
  <path d="M538 364 c-4 -3 -27 -6 -52 -6 -28 0 -44 -4 -40 -10 3 -5 6 -53 5
-105 -2 -109 7 -130 63 -157 19 -9 71 -19 114 -23 65 -5 92 -2 151 16 40 12
74 27 76 34 6 16 -39 109 -48 100 -4 -3 -7 -16 -7 -29 0 -63 -101 -97 -232
-76 -39 6 -75 17 -79 24 -5 7 -9 34 -9 61 0 43 2 47 24 47 51 0 86 12 86 30 0
10 8 32 18 49 15 28 15 33 2 41 -17 11 -63 13 -72 4z m22 -53 c0 -32 -4 -40
-22 -45 -41 -11 -48 -7 -48 27 0 39 15 57 47 57 20 0 23 -5 23 -39z"/>
</g>
<g id="part-1" class="char-part">
  <path d="M292 555 c21 -19 46 -35 57 -35 21 0 33 21 22 39 -8 13 -65 31 -96
31 -17 0 -14 -6 17 -35z"/>
  <path d="M260 445 c-30 -8 -80 -17 -110 -22 -52 -8 -54 -9 -32 -21 19 -11 37
-10 103 3 44 9 83 14 87 11 9 -9 -74 -91 -150 -148 -38 -28 -68 -52 -68 -54 0
-14 126 50 150 76 3 3 14 12 24 20 19 15 19 12 13 -107 -5 -98 -3 -124 8 -133
27 -23 35 0 35 106 0 57 3 104 6 104 3 0 20 -11 38 -25 40 -30 46 -31 46 -5 0
12 -12 26 -32 36 l-33 17 43 20 c48 24 51 30 20 44 -19 8 -25 5 -43 -21 -24
-36 -33 -38 -49 -13 -9 14 -4 23 34 56 44 38 44 40 25 55 -24 18 -42 18 -115
1z"/>
</g>
<g id="part-2" class="char-part">
  <path d="M545 545 c-9 -25 -35 -68 -56 -95 -41 -52 -41 -62 1 -32 23 16 149
41 213 42 25 0 27 -3 26 -37 0 -21 -8 -63 -18 -93 -17 -56 -25 -61 -65 -44
-16 6 -15 1 8 -29 16 -20 33 -37 38 -37 23 0 58 55 68 108 6 32 16 74 22 94 8
29 8 41 -2 53 -16 19 -34 19 -131 -1 -43 -9 -84 -14 -89 -12 -6 2 6 23 26 47
l38 44 -23 18 c-13 11 -27 19 -31 19 -4 0 -15 -20 -25 -45z"/>
</g>
<g id="part-3" class="char-part">
  <path d="M498 363 l-48 -4 0 -60 0 -59 48 1 c57 1 94 11 92 24 0 6 7 27 16 48
15 33 16 40 3 48 -14 9 -21 9 -111 2z m62 -53 c0 -25 -5 -40 -12 -40 -7 0 -23
-3 -35 -6 -20 -6 -23 -3 -23 24 0 35 22 62 51 62 16 0 19 -7 19 -40z"/>
</g>
<g id="part-4" class="char-part">
  <path d="M450 191 c0 -92 53 -125 205 -126 91 0 155 13 190 39 19 14 19 16 3
48 -9 18 -19 42 -23 53 -7 19 -8 19 -17 -5 -34 -88 -65 -104 -194 -98 -111 6
-134 21 -134 88 0 38 -4 50 -15 50 -11 0 -15 -12 -15 -49z"/>
</g>
</g>
</svg>