<?xml version="1.0" standalone="no"?>
<!DOCTYPE svg PUBLIC "-//W3C//DTD SVG 20010904//EN"
 "http://www.w3.org/TR/2001/REC-SVG-20010904/DTD/svg10.dtd">
<svg version="1.0" xmlns="http://www.w3.org/2000/svg"
 width="96.000000pt" height="68.000000pt" viewBox="0 0 96.000000 68.000000"
 preserveAspectRatio="xMidYMid meet">
<metadata>
Created by potrace 1.16, written by Peter Selinger 2001-2019
Combined from part_0.svg through part_5.svg with named groups
</metadata>
<g transform="translate(0.000000,68.000000) scale(0.100000,-0.100000)" fill="#000000" stroke="none">
<g id="part-0" class="char-part">
  <path d="M535 564 c13 -31 18 -121 7 -128 -5 -3 -42 -9 -81 -12 -73 -7 -82
-12 -56 -34 18 -15 20 -110 4 -175 -11 -42 -12 -43 -56 -47 -24 -2 -46 -1 -49
1 -2 2 -4 21 -4 42 0 36 2 38 40 44 52 9 65 28 16 24 -43 -4 -57 11 -47 50 5
17 15 27 30 29 15 2 21 8 17 18 -3 8 4 35 15 60 34 72 6 89 -104 60 -30 -8
-73 -12 -96 -9 -43 6 -53 -5 -26 -27 8 -6 21 -36 30 -65 17 -60 29 -73 50 -55
27 22 35 0 35 -99 l0 -98 -27 1 c-27 1 -28 3 -33 66 -5 59 -7 65 -29 68 -18 3
-22 0 -18 -11 3 -9 9 -43 13 -76 l7 -61 -44 0 -44 -1 29 -25 c16 -14 36 -23
45 -20 9 2 63 21 120 41 57 19 106 33 109 31 2 -3 -13 -29 -34 -58 l-39 -53
32 23 c54 38 80 82 109 181 5 16 49 -9 77 -46 10 -13 25 -30 33 -37 8 -8 14
-18 14 -23 -1 -12 -99 -68 -149 -83 -24 -8 -38 -16 -32 -18 19 -6 99 16 158
44 l53 25 42 -35 c25 -22 52 -36 68 -36 49 0 120 13 120 21 0 5 -19 13 -42 19
-49 12 -139 48 -151 60 -5 4 11 39 36 76 57 85 51 99 -35 90 l-58 -6 0 53 c0
29 5 58 12 65 13 13 98 17 98 4 0 -4 -8 -18 -17 -32 -13 -18 -13 -22 -2 -18
78 31 99 41 99 49 0 5 -14 16 -32 25 -24 12 -46 15 -91 10 l-60 -6 6 55 c6 60
6 60 -42 70 -31 7 -33 5 -26 -11z m-218 -131 c-7 -42 -20 -53 -64 -53 -23 0
-33 5 -37 20 -3 11 -8 29 -11 39 -6 21 10 26 84 30 33 1 34 1 28 -36z m233
-82 c0 -63 -7 -70 -67 -71 -20 0 -23 5 -23 39 0 68 14 91 55 91 l35 0 0 -59z
m100 -83 c0 -16 -37 -98 -44 -98 -13 0 -90 80 -83 86 7 7 68 20 110 23 9 0 17
-5 17 -11z"/>
</g>
<g id="part-1" class="char-part">
  <path d="M280 494 c-19 -7 -56 -13 -82 -12 -26 1 -51 -1 -54 -5 -4 -4 -2 -7 4
-7 6 0 16 -19 22 -42 18 -71 28 -90 48 -84 9 2 43 7 75 11 50 6 57 9 57 28 0
12 9 40 21 61 11 21 17 42 12 47 -16 16 -68 17 -103 3z m40 -51 c0 -51 -9 -61
-57 -69 -45 -7 -48 -4 -58 48 l-7 36 44 10 c75 17 78 16 78 -25z"/>
</g>
<g id="part-2" class="char-part">
  <path d="M275 154 c-22 -8 -73 -17 -112 -21 -61 -5 -71 -8 -61 -20 29 -35 45
-34 165 7 64 22 119 43 122 45 11 11 -77 2 -114 -11z"/>
</g>
<g id="part-3" class="char-part">
  <path d="M537 558 c4 -13 8 -45 8 -73 0 -42 -3 -50 -20 -53 -48 -7 -65 -13
-65 -23 0 -6 16 -8 45 -3 l45 6 0 -61 c0 -54 2 -61 20 -61 18 0 20 7 20 54 0
66 16 86 70 86 39 0 39 -1 29 -26 -5 -15 -8 -28 -6 -30 2 -3 82 34 97 44 3 2
-6 13 -20 24 -22 18 -34 20 -94 14 l-69 -6 7 55 c6 53 5 56 -20 65 -43 17 -56
13 -47 -12z"/>
</g>
<g id="part-4" class="char-part">
  <path d="M407 413 c-18 -5 -18 -6 -1 -24 14 -16 16 -32 12 -102 -6 -87 -24
-136 -77 -207 l-26 -35 35 26 c69 51 97 114 110 244 10 103 5 113 -53 98z"/>
</g>
<g id="part-5" class="char-part">
  <path d="M635 294 c-28 -10 -32 -13 -12 -10 23 3 27 0 27 -23 0 -14 -4 -33
-10 -41 -5 -9 -5 -19 2 -27 8 -11 7 -12 -7 -7 -12 5 -16 4 -12 -3 4 -6 0 -13
-8 -17 -8 -3 -17 -1 -20 4 -3 5 -20 19 -38 31 l-32 23 20 -24 c11 -14 26 -30
34 -36 12 -9 11 -14 -7 -32 -23 -23 -10 -36 21 -20 14 7 24 5 37 -7 10 -9 23
-14 29 -10 7 3 8 0 5 -9 -7 -17 11 -22 21 -6 3 6 11 10 18 10 6 0 2 -7 -9 -15
-15 -12 -16 -16 -6 -23 8 -5 23 -8 35 -7 12 1 37 3 54 4 20 1 32 6 30 13 -2
13 -107 49 -140 49 -9 0 -15 4 -12 10 4 5 -3 9 -14 9 -12 0 -21 5 -21 11 0 5
5 7 12 3 7 -4 8 -3 4 4 -4 6 1 20 11 31 38 42 43 51 44 83 0 26 2 29 8 14 6
-15 9 -17 16 -6 5 8 1 18 -10 27 -22 15 -18 15 -70 -3z m38 -29 c-3 -9 -8 -14
-10 -11 -3 3 -2 9 2 15 9 16 15 13 8 -4z m-65 -129 c-2 -1 -12 -8 -22 -16 -18
-14 -18 -14 -6 7 8 12 18 19 23 16 4 -3 7 -6 5 -7z"/>
  <path d="M485 270 c12 -5 14 -9 6 -9 -11 -1 -10 -5 5 -16 10 -8 24 -14 29 -14
6 0 2 4 -8 10 -9 6 -15 15 -12 20 4 5 10 7 15 4 5 -3 11 -1 15 5 4 6 -9 10
-32 9 -30 0 -34 -2 -18 -9z"/>
  <path d="M530 90 c0 -5 -7 -6 -17 -3 -12 5 -14 3 -8 -7 6 -10 4 -12 -7 -8 -19
8 -45 -7 -29 -16 6 -4 11 -3 11 3 0 6 6 8 13 6 6 -3 26 4 42 15 21 14 25 20
13 20 -10 0 -18 -4 -18 -10z"/>
</g>
</g>
</svg>