<?xml version="1.0" standalone="no"?>
<!DOCTYPE svg PUBLIC "-//W3C//DTD SVG 20010904//EN"
 "http://www.w3.org/TR/2001/REC-SVG-20010904/DTD/svg10.dtd">
<svg version="1.0" xmlns="http://www.w3.org/2000/svg"
 width="96.000000pt" height="68.000000pt" viewBox="0 0 96.000000 68.000000"
 preserveAspectRatio="xMidYMid meet">
<metadata>
Created by potrace 1.16, written by Peter Selinger 2001-2019
Combined from part_0.svg through part_5.svg with named groups
</metadata>
<g transform="translate(0.000000,68.000000) scale(0.100000,-0.100000)" fill="#000000" stroke="none">
<g id="part-0" class="char-part">
  <path d="M425 604 c-60 -7 -127 -11 -147 -8 -44 7 -46 2 -15 -36 14 -16 29
-55 37 -91 17 -84 22 -90 77 -82 49 6 63 -3 63 -44 0 -25 -16 -28 -192 -39
-60 -3 -108 -10 -108 -15 0 -18 58 -22 150 -11 52 7 107 12 123 12 l27 0 0
-125 c0 -79 4 -125 10 -125 21 0 39 92 40 213 l0 47 155 0 c85 0 155 4 155 9
0 16 -26 30 -60 31 -19 1 -84 -2 -144 -6 l-108 -7 6 31 c6 24 4 31 -11 35 -10
3 10 5 45 4 l64 -2 39 94 c21 51 39 95 39 96 0 2 -7 11 -16 19 -19 19 -72 19
-229 0z m150 -34 c3 -6 4 -18 0 -29 -5 -15 -20 -19 -104 -25 -55 -3 -106 -9
-114 -12 -10 -3 -18 5 -25 25 -12 33 -19 30 103 44 65 8 134 6 140 -3z m-17
-108 c-11 -27 -11 -27 -107 -27 -91 0 -96 1 -99 22 -3 21 1 22 75 26 43 1 92
4 110 5 30 2 31 1 21 -26z"/>
</g>
<g id="part-1" class="char-part">
  <path d="M465 604 c-49 -7 -118 -13 -152 -13 -35 -1 -63 -5 -63 -11 0 -5 5
-10 10 -10 15 0 37 -56 50 -122 12 -63 21 -74 48 -59 21 11 168 16 200 6 23
-8 21 -12 88 140 10 22 20 43 22 47 6 12 -55 38 -85 37 -15 -1 -68 -8 -118
-15z m113 -49 l-3 -36 -85 -6 c-156 -11 -153 -11 -164 19 -5 15 -8 30 -5 32 4
4 166 21 232 25 26 1 28 -1 25 -34z m-17 -98 c-10 -25 -16 -27 -71 -29 -137
-5 -134 -5 -140 22 l-6 25 110 10 c61 6 112 7 114 4 1 -3 -2 -18 -7 -32z"/>
</g>
<g id="part-2" class="char-part">
  <path d="M436 361 l6 -38 -48 -6 c-27 -3 -97 -9 -156 -13 -60 -4 -108 -10
-108 -15 0 -17 76 -21 166 -10 51 6 104 11 118 11 l26 0 0 -124 c0 -191 33
-170 46 30 l7 104 154 0 c119 0 154 3 151 13 -8 22 -69 35 -128 26 -30 -4 -84
-8 -119 -8 l-63 -1 6 27 c8 29 -5 43 -42 43 -20 0 -22 -3 -16 -39z"/>
</g>
</g>
</svg>