<?xml version="1.0" standalone="no"?>
<!DOCTYPE svg PUBLIC "-//W3C//DTD SVG 20010904//EN"
 "http://www.w3.org/TR/2001/REC-SVG-20010904/DTD/svg10.dtd">
<svg version="1.0" xmlns="http://www.w3.org/2000/svg"
 width="96.000000pt" height="68.000000pt" viewBox="0 0 96.000000 68.000000"
 preserveAspectRatio="xMidYMid meet">
<metadata>
Created by potrace 1.16, written by Peter Selinger 2001-2019
Combined from part_0.svg through part_5.svg with named groups
</metadata>
<g transform="translate(0.000000,68.000000) scale(0.100000,-0.100000)" fill="#000000" stroke="none">
<g id="part-0" class="char-part">
  <path d="M545 589 c-44 -5 -146 -10 -227 -11 -82 -2 -148 -7 -148 -12 0 -5 5
-26 12 -48 9 -29 8 -81 -1 -220 -12 -179 -11 -182 9 -202 14 -14 23 -17 28
-10 5 7 85 13 235 17 216 5 228 4 238 -14 12 -24 45 -25 58 -1 5 10 11 123 12
251 l2 233 -24 14 c-27 15 -74 15 -194 3z m140 -46 c4 -10 10 -103 12 -208 l6
-190 -238 -3 -238 -2 6 191 c3 105 8 194 12 197 6 7 265 28 366 31 55 1 68 -2
74 -16z"/>
  <path d="M366 473 c-9 -27 -32 -65 -52 -87 -44 -48 -40 -55 9 -15 37 30 67 33
67 7 0 -16 -36 -76 -63 -105 -29 -32 -4 -29 28 3 33 32 75 99 75 118 0 19 40
28 47 11 11 -32 -36 -130 -92 -187 -14 -16 -21 -28 -15 -28 18 0 86 68 106
107 10 21 27 51 37 66 15 22 16 31 7 42 -10 12 -8 15 11 16 13 0 32 2 43 4 17
3 18 -1 12 -57 -4 -34 -15 -77 -25 -97 -14 -29 -22 -36 -44 -34 l-27 2 17 -30
c9 -16 23 -29 31 -29 21 0 58 46 69 87 6 21 19 64 28 96 9 31 14 61 10 66 -11
18 -61 20 -155 7 -52 -8 -98 -12 -103 -9 -4 2 4 19 18 37 19 25 22 35 13 44
-22 22 -36 12 -52 -35z"/>
</g>
<g id="part-1" class="char-part">
  <path d="M658 595 c-6 -6 -304 -26 -405 -27 l-82 -1 10 -24 c12 -32 11 -259
-1 -346 -11 -78 0 -112 35 -102 11 3 119 8 240 12 216 6 220 5 239 -16 53 -60
68 -8 64 225 -2 104 1 203 5 220 7 28 5 32 -20 42 -38 14 -79 23 -85 17z m28
-46 c11 -18 28 -310 20 -359 l-7 -45 -72 0 c-39 0 -146 -2 -237 -5 l-165 -5 3
195 c2 107 7 198 10 202 19 19 437 35 448 17z"/>
</g>
<g id="part-2" class="char-part">
  <path d="M370 485 c-10 -30 -38 -73 -93 -142 -18 -24 3 -13 40 20 33 29 49 35
123 45 132 18 150 17 150 -13 0 -44 -21 -120 -39 -145 -17 -21 -22 -23 -44
-13 l-26 12 21 -35 c40 -69 93 -21 123 111 9 41 20 77 26 80 16 11 10 22 -21
35 -24 10 -47 10 -113 1 -109 -16 -137 -20 -137 -17 0 1 11 17 25 36 19 25 22
37 14 47 -19 22 -37 14 -49 -22z"/>
</g>
<g id="part-3" class="char-part">
  <path d="M387 372 c-3 -15 -25 -52 -48 -81 -38 -48 -34 -55 12 -19 24 20 79
99 79 115 0 7 -8 13 -19 13 -12 0 -20 -9 -24 -28z"/>
</g>
<g id="part-4" class="char-part">
  <path d="M494 412 c-5 -4 -17 -32 -27 -62 -10 -35 -33 -74 -63 -108 -25 -29
-44 -55 -42 -57 12 -12 91 73 127 136 23 39 41 74 41 79 0 11 -25 19 -36 12z"/>
</g>
</g>
</svg>