<?xml version="1.0" standalone="no"?>
<!DOCTYPE svg PUBLIC "-//W3C//DTD SVG 20010904//EN"
 "http://www.w3.org/TR/2001/REC-SVG-20010904/DTD/svg10.dtd">
<svg version="1.0" xmlns="http://www.w3.org/2000/svg"
 width="96.000000pt" height="68.000000pt" viewBox="0 0 96.000000 68.000000"
 preserveAspectRatio="xMidYMid meet">
<metadata>
Created by potrace 1.16, written by Peter Selinger 2001-2019
Combined from part_0.svg through part_5.svg with named groups
</metadata>
<g transform="translate(0.000000,68.000000) scale(0.100000,-0.100000)" fill="#000000" stroke="none">
<g id="part-0" class="char-part">
  <path d="M550 566 l0 -46 -44 0 c-25 0 -48 -4 -51 -10 -4 -6 13 -10 44 -10 47
0 50 -2 53 -27 4 -36 21 -33 32 5 8 28 13 31 67 37 76 9 80 29 5 22 l-55 -5
-3 37 c-2 29 -8 37 -25 39 -21 3 -23 -1 -23 -42z"/>
  <path d="M196 541 c-4 -6 -2 -19 4 -30 5 -11 10 -47 10 -80 l0 -60 -45 -7
c-59 -8 -58 -22 3 -26 l47 -3 3 -62 3 -62 -38 -10 c-21 -5 -50 -13 -65 -17
-30 -7 -35 -16 -15 -31 30 -24 58 -19 167 32 61 29 114 56 118 60 7 7 -43 1
-96 -12 -22 -5 -23 -4 -20 53 l3 58 38 9 c47 11 43 31 -6 35 -35 3 -37 5 -37
37 0 19 5 46 12 60 9 21 9 29 -3 40 -19 19 -75 30 -83 16z"/>
  <path d="M660 465 c0 -27 -7 -30 -102 -40 -51 -6 -57 -4 -63 14 -5 15 -15 21
-37 21 -26 0 -28 -2 -18 -15 19 -23 2 -35 -48 -35 -35 0 -43 -3 -34 -12 12
-12 59 -14 92 -3 15 5 21 0 26 -19 7 -28 24 -26 24 3 0 13 10 20 38 25 67 11
112 7 112 -9 0 -21 13 -19 28 5 10 17 23 20 88 20 56 0 75 3 72 13 -3 7 -27
13 -60 15 -46 2 -57 7 -61 22 -3 14 -14 20 -31 20 -21 0 -26 -5 -26 -25z"/>
  <path d="M610 349 c-25 -4 -74 -8 -110 -8 l-65 -1 0 -107 c0 -95 2 -108 18
-111 9 -2 17 1 17 7 0 6 5 11 10 11 31 0 -11 -60 -69 -100 -19 -13 -29 -26
-23 -28 14 -4 172 86 172 97 0 5 -10 13 -22 19 -19 9 -9 11 55 11 44 1 86 -4
97 -11 10 -7 23 -9 27 -4 4 4 10 53 13 109 8 133 2 138 -120 116z m60 -19 c0
-5 2 -15 5 -23 5 -11 -11 -15 -79 -20 -46 -4 -91 -10 -100 -13 -12 -5 -16 0
-16 18 0 23 5 25 73 34 95 12 117 13 117 4z m10 -79 c0 -15 -15 -19 -97 -27
-98 -10 -117 -6 -106 23 3 8 23 13 52 14 25 0 66 4 91 8 52 8 60 6 60 -18z m0
-60 c0 -11 -4 -22 -8 -25 -4 -2 -51 -6 -103 -7 -89 -2 -94 -1 -97 19 -3 19 2
21 65 25 37 2 85 4 106 5 31 2 37 -1 37 -17z"/>
  <path d="M682 56 c31 -31 61 -56 68 -56 7 0 10 13 8 32 -3 33 -40 60 -103 73
-28 6 -27 4 27 -49z"/>
</g>
<g id="part-1" class="char-part">
  <path d="M203 526 c3 -8 9 -45 12 -84 7 -67 7 -69 -16 -75 -13 -4 -34 -7 -46
-7 -13 0 -23 -4 -23 -10 0 -5 20 -10 45 -10 l45 0 0 -69 0 -69 -65 -13 c-36
-7 -65 -16 -65 -19 0 -8 46 -30 62 -30 13 0 229 102 225 106 -2 2 -26 -3 -55
-10 l-52 -14 0 63 0 64 35 7 c19 3 35 10 35 14 0 12 -26 19 -49 13 -19 -5 -21
-1 -21 48 0 30 5 61 10 69 7 11 3 18 -13 27 -31 17 -71 17 -64 -1z"/>
</g>
<g id="part-2" class="char-part">
  <path d="M550 569 l0 -49 -50 0 c-27 0 -50 -4 -50 -10 0 -5 22 -10 49 -10 47
0 50 -2 53 -27 4 -37 21 -35 32 4 9 29 13 32 68 38 74 9 75 25 2 25 l-56 0 4
30 c4 25 0 31 -24 39 l-28 10 0 -50z"/>
</g>
<g id="part-3" class="char-part">
  <path d="M660 465 c0 -30 -4 -31 -91 -39 -60 -6 -67 -4 -71 12 -5 18 -54 39
-65 28 -3 -2 0 -13 6 -24 12 -23 -2 -32 -50 -32 -16 0 -29 -4 -29 -10 0 -5 25
-10 55 -10 40 0 57 -4 61 -15 8 -21 24 -19 24 4 0 14 10 20 46 25 76 10 104 8
104 -9 0 -21 17 -19 30 5 9 17 21 20 85 20 40 0 76 4 79 9 8 13 -19 21 -74 21
-39 0 -49 4 -53 20 -3 14 -14 20 -31 20 -21 0 -26 -5 -26 -25z"/>
</g>
<g id="part-4" class="char-part">
  <path d="M490 117 c0 -11 -21 -32 -100 -97 l-25 -20 47 19 c26 11 70 35 97 54
39 26 48 36 39 45 -16 16 -58 15 -58 -1z"/>
  <path d="M680 55 c56 -57 74 -65 84 -40 10 26 -4 43 -57 70 -79 39 -87 31 -27
-30z"/>
</g>
</g>
</svg>