<?xml version="1.0" standalone="no"?>
<!DOCTYPE svg PUBLIC "-//W3C//DTD SVG 20010904//EN"
 "http://www.w3.org/TR/2001/REC-SVG-20010904/DTD/svg10.dtd">
<svg version="1.0" xmlns="http://www.w3.org/2000/svg"
 width="96.000000pt" height="68.000000pt" viewBox="0 0 96.000000 68.000000"
 preserveAspectRatio="xMidYMid meet">
<metadata>
Created by potrace 1.16, written by Peter Selinger 2001-2019
Combined from part_0.svg through part_5.svg with named groups
</metadata>
<g transform="translate(0.000000,68.000000) scale(0.100000,-0.100000)" fill="#000000" stroke="none">
<g id="part-0" class="char-part">
  <path d="M303 611 c6 -29 6 -29 -53 -36 -78 -9 -77 -25 0 -25 47 0 60 -3 60
-15 0 -11 -11 -15 -40 -15 -22 0 -40 -4 -40 -10 0 -5 14 -10 31 -10 17 0 37
-6 44 -14 17 -16 6 -20 -87 -31 -35 -5 -55 -11 -52 -17 4 -6 28 -8 60 -4 33 4
54 2 54 -4 0 -13 -39 -49 -73 -67 -16 -8 -27 -16 -24 -19 8 -8 72 24 99 50 28
26 72 34 83 16 10 -17 -16 -42 -38 -36 -13 3 -17 0 -13 -9 3 -8 1 -17 -4 -20
-5 -3 -7 -26 -3 -50 3 -27 1 -57 -7 -75 -18 -44 2 -64 49 -50 19 5 68 12 110
15 42 4 95 8 118 10 55 4 66 -10 58 -69 -9 -55 -24 -70 -65 -61 -39 9 -39 -6
1 -39 37 -32 39 -32 71 -3 17 14 30 40 37 77 7 30 14 64 17 76 9 34 -40 48
-137 41 -66 -5 -79 -4 -79 8 0 11 11 15 38 15 44 0 73 14 48 23 -8 3 -31 3
-50 0 -22 -3 -36 -2 -36 5 0 13 24 22 61 22 16 0 29 5 29 10 0 6 -20 10 -45
10 -63 0 -56 16 10 25 56 7 84 24 43 26 -31 2 -58 -1 -177 -18 l-44 -6 22 32
c28 38 21 61 -16 61 -15 0 -34 4 -42 9 -10 7 4 12 47 17 63 7 78 26 16 22 -19
-1 -39 3 -45 9 -8 8 3 13 42 20 58 9 66 29 12 27 -22 -1 -33 3 -33 12 0 9 11
14 29 14 16 0 42 5 58 11 25 9 26 11 10 21 -10 5 -34 7 -53 4 -26 -5 -34 -4
-34 8 0 17 -30 36 -56 36 -13 0 -15 -6 -11 -29z m137 -300 c0 -11 -35 -21 -72
-21 -18 0 -28 5 -28 15 0 11 12 15 50 15 28 0 50 -4 50 -9z m0 -46 c0 -12 -13
-15 -55 -15 -67 0 -73 17 -7 23 26 2 50 4 55 5 4 1 7 -5 7 -13z m0 -49 c0 -10
-16 -15 -51 -18 -51 -3 -66 3 -54 22 10 16 105 13 105 -4z"/>
  <path d="M530 604 c-6 -14 -10 -28 -10 -30 0 -3 -14 -25 -30 -50 -31 -44 -28
-61 4 -25 18 19 68 32 85 22 5 -3 7 -18 4 -33 -5 -24 -9 -26 -37 -22 l-31 6
24 -20 25 -20 -35 -21 c-19 -11 -40 -21 -46 -21 -7 0 -13 -4 -13 -9 0 -13 71
7 91 25 21 19 23 19 82 -21 52 -35 85 -41 137 -25 28 8 30 7 -77 39 -83 25
-100 40 -83 71 6 11 10 31 8 43 -2 17 3 23 22 25 14 2 32 5 40 8 13 5 12 7 -2
15 -11 6 -36 4 -77 -7 -56 -16 -91 -13 -65 4 22 14 34 48 22 60 -18 18 -28 14
-38 -14z"/>
  <path d="M197 126 c-26 -39 -26 -82 0 -72 8 3 16 6 18 6 11 0 25 72 17 86 -8
14 -13 11 -35 -20z"/>
  <path d="M510 152 c0 -12 44 -52 58 -52 22 0 12 37 -13 48 -30 14 -45 15 -45
4z"/>
  <path d="M412 128 c21 -37 48 -51 48 -25 0 16 -32 47 -48 47 -9 0 -9 -6 0 -22z"/>
  <path d="M292 133 c24 -51 33 -63 45 -63 21 0 15 37 -9 54 -24 17 -42 21 -36
9z"/>
</g>
<g id="part-1" class="char-part">
  <path d="M312 606 c6 -30 -6 -36 -68 -36 -24 0 -44 -4 -44 -10 0 -6 27 -10 60
-10 47 0 60 -3 60 -15 0 -10 -10 -15 -29 -15 -17 0 -33 -5 -37 -11 -5 -8 14
-9 67 -4 94 8 116 14 98 26 -8 4 -24 6 -36 2 -17 -4 -23 -1 -23 11 0 11 14 17
50 22 64 8 66 26 3 23 -43 -3 -48 -1 -51 19 -3 16 -10 22 -29 22 -21 0 -25 -4
-21 -24z"/>
</g>
<g id="part-2" class="char-part">
  <path d="M592 518 c-7 -7 -12 -22 -12 -35 0 -13 -1 -23 -3 -23 -1 0 -17 4 -35
9 -17 5 -32 6 -32 1 0 -4 12 -11 26 -14 35 -9 26 -26 -32 -59 -40 -23 -44 -27
-19 -22 17 3 47 15 69 26 l38 20 52 -36 c52 -35 84 -41 136 -25 29 8 27 10
-75 40 -98 29 -101 31 -85 69 19 46 1 78 -28 49z"/>
</g>
<g id="part-3" class="char-part">
  <path d="M520 358 c-25 -4 -85 -9 -135 -12 -49 -2 -89 -7 -88 -10 13 -32 14
-67 3 -108 -16 -64 -6 -76 49 -59 22 6 78 14 123 17 102 7 134 13 122 24 -7 6
-115 1 -235 -12 -23 -3 -24 -1 -20 52 1 30 5 58 8 63 2 4 29 7 58 7 63 0 195
21 195 31 0 12 -34 15 -80 7z"/>
</g>
<g id="part-4" class="char-part">
  <path d="M436 305 c-4 -10 -20 -15 -51 -15 -27 0 -45 -5 -45 -11 0 -8 16 -10
50 -6 40 5 50 3 50 -8 0 -10 -11 -15 -32 -16 -18 0 -42 -4 -53 -9 -15 -6 -6
-9 33 -9 28 -1 52 -5 52 -11 0 -5 9 -10 20 -10 11 0 20 7 20 15 0 10 11 15 33
16 17 0 41 4 52 9 15 6 6 9 -33 9 -65 1 -68 24 -4 29 23 2 42 8 42 14 0 6 -18
9 -45 6 -25 -2 -45 0 -45 4 0 15 -38 8 -44 -7z"/>
</g>
<g id="part-5" class="char-part">
  <path d="M535 130 c26 -27 45 -31 45 -10 0 9 -52 40 -66 40 -4 0 5 -13 21 -30z"/>
  <path d="M195 110 c-19 -43 -16 -56 11 -46 10 4 14 13 11 26 -3 11 -2 18 3 15
4 -2 8 7 8 20 0 36 -12 31 -33 -15z m10 -30 c3 -5 1 -10 -4 -10 -6 0 -11 5
-11 10 0 6 2 10 4 10 3 0 8 -4 11 -10z"/>
  <path d="M420 133 c0 -12 28 -38 34 -32 2 2 -5 13 -15 23 -11 11 -19 15 -19 9z"/>
  <path d="M315 110 c-3 -5 -1 -10 5 -10 6 0 8 -4 5 -10 -3 -5 1 -10 10 -10 13
0 14 4 5 20 -12 23 -16 24 -25 10z"/>
</g>
</g>
</svg>