<?xml version="1.0" standalone="no"?>
<!DOCTYPE svg PUBLIC "-//W3C//DTD SVG 20010904//EN"
 "http://www.w3.org/TR/2001/REC-SVG-20010904/DTD/svg10.dtd">
<svg version="1.0" xmlns="http://www.w3.org/2000/svg"
 width="96.000000pt" height="68.000000pt" viewBox="0 0 96.000000 68.000000"
 preserveAspectRatio="xMidYMid meet">
<metadata>
Created by potrace 1.16, written by Peter Selinger 2001-2019
Combined from part_0.svg through part_5.svg with named groups
</metadata>
<g transform="translate(0.000000,68.000000) scale(0.100000,-0.100000)" fill="#000000" stroke="none">
<g id="part-0" class="char-part">
  <path d="M505 589 c-22 -5 -80 -11 -130 -14 l-90 -5 3 -72 c5 -118 -42 -227
-146 -339 -83 -90 -14 -70 77 22 46 46 79 111 106 203 19 66 18 65 196 69 113
2 115 2 111 25 -3 14 6 35 23 58 15 19 25 37 24 38 -31 26 -96 32 -174 15z
m77 -50 c-1 -13 -6 -27 -11 -32 -10 -10 -120 -27 -178 -27 -39 0 -43 2 -43 24
0 14 6 28 13 33 12 8 193 32 212 28 6 -1 9 -13 7 -26z"/>
  <path d="M537 425 c-15 -7 -60 -24 -99 -37 -69 -22 -70 -23 -37 -28 28 -4 35
-10 37 -31 3 -28 -15 -39 -71 -39 -18 0 -26 -4 -21 -11 4 -7 24 -9 51 -6 l44
5 -3 -32 c-3 -31 -3 -31 -80 -40 -43 -4 -78 -12 -78 -16 0 -13 55 -19 96 -10
58 14 64 12 64 -16 0 -42 34 -80 85 -94 62 -17 239 -9 283 14 36 19 39 31 15
81 -21 43 -29 44 -38 4 -11 -49 -54 -69 -153 -69 -110 0 -152 18 -152 65 l0
33 108 7 c125 8 151 17 101 34 -26 8 -53 8 -119 -4 -47 -8 -86 -15 -87 -15 -2
0 -3 15 -3 34 l0 33 76 13 c54 8 73 15 66 22 -8 8 -28 8 -68 -1 -32 -6 -58
-10 -60 -8 -1 1 -4 15 -6 32 -3 28 -1 30 42 37 25 5 56 11 70 14 l25 6 -24 19
c-28 23 -29 23 -64 4z"/>
</g>
<g id="part-1" class="char-part">
  <path d="M495 585 c-44 -8 -108 -14 -142 -14 l-63 -1 6 -43 c14 -101 -39 -240
-136 -355 -55 -65 -58 -71 -29 -57 87 46 154 140 189 269 l17 61 104 8 c152
11 190 17 183 28 -3 6 7 28 22 50 19 28 24 43 17 50 -17 17 -82 18 -168 4z
m95 -37 c-1 -45 -20 -55 -133 -68 -60 -7 -110 -10 -112 -8 -2 2 0 19 4 38 l7
35 84 11 c137 18 150 18 150 -8z"/>
</g>
<g id="part-2" class="char-part">
  <path d="M525 423 c-16 -9 -61 -27 -100 -39 -83 -27 -55 -31 66 -9 119 22 129
24 129 34 0 8 -44 31 -58 31 -4 -1 -20 -8 -37 -17z"/>
</g>
<g id="part-3" class="char-part">
  <path d="M439 363 c-1 -5 0 -20 1 -34 1 -25 -2 -27 -49 -34 -60 -8 -58 -28 3
-23 40 3 41 2 41 -27 0 -30 0 -30 -77 -39 -43 -5 -78 -12 -78 -16 0 -14 48
-20 95 -11 25 5 55 6 66 4 10 -3 25 -1 32 5 6 6 59 13 117 17 58 4 111 11 119
15 19 10 -52 34 -77 26 -11 -4 -49 -10 -86 -14 l-67 -9 3 31 c3 30 5 31 76 45
86 16 86 38 0 26 -62 -9 -63 -9 -63 8 -1 21 -16 37 -36 37 -10 0 -19 -3 -20
-7z"/>
</g>
<g id="part-4" class="char-part">
  <path d="M791 186 c-6 -15 -11 -32 -11 -37 0 -5 -15 -18 -32 -29 -26 -16 -51
-20 -114 -20 -101 0 -138 12 -154 51 -14 32 -40 40 -40 12 0 -39 38 -82 82
-94 90 -24 300 1 321 38 2 5 -6 30 -19 58 l-23 49 -10 -28z"/>
</g>
</g>
</svg>