<?xml version="1.0" standalone="no"?>
<!DOCTYPE svg PUBLIC "-//W3C//DTD SVG 20010904//EN"
 "http://www.w3.org/TR/2001/REC-SVG-20010904/DTD/svg10.dtd">
<svg version="1.0" xmlns="http://www.w3.org/2000/svg"
 width="96.000000pt" height="68.000000pt" viewBox="0 0 96.000000 68.000000"
 preserveAspectRatio="xMidYMid meet">
<metadata>
Created by potrace 1.16, written by Peter Selinger 2001-2019
Combined from part_0.svg through part_5.svg with named groups
</metadata>
<g transform="translate(0.000000,68.000000) scale(0.100000,-0.100000)" fill="#000000" stroke="none">
<g id="part-0" class="char-part">
  <path d="M655 540 c-11 -5 -32 -9 -47 -9 -15 -1 -30 -6 -34 -12 -4 -7 11 -9
51 -4 l58 8 -6 -33 c-4 -18 -7 -36 -7 -41 0 -4 -25 -11 -55 -14 -70 -9 -82
-25 -18 -25 84 0 121 10 116 30 -3 10 3 35 13 55 14 31 15 38 3 46 -17 11 -47
10 -74 -1z"/>
  <path d="M195 519 c4 -12 4 -45 0 -74 l-6 -53 -45 -7 c-24 -3 -44 -10 -44 -15
0 -14 36 -21 64 -14 26 6 26 6 26 -51 l0 -58 -43 5 -43 5 13 -41 c7 -23 15
-54 18 -69 4 -21 10 -27 21 -23 9 3 39 9 67 12 l52 6 18 54 c10 30 15 59 11
65 -3 6 -22 9 -41 7 l-35 -4 6 45 c6 47 18 60 51 61 11 0 27 5 35 10 13 9 13
11 0 20 -8 6 -28 9 -43 7 l-29 -4 7 60 c8 64 1 77 -43 77 -19 0 -22 -4 -17
-21z m59 -311 c-4 -24 -8 -45 -10 -46 -1 -2 -20 -6 -42 -9 -40 -5 -41 -5 -48
31 -8 44 -5 47 43 56 65 13 64 14 57 -32z"/>
  <path d="M414 533 l-50 -4 4 -111 c3 -60 -1 -157 -8 -214 -9 -83 -9 -108 0
-119 22 -27 28 -16 35 60 l7 75 32 0 c43 0 77 11 70 21 -3 5 -28 7 -55 3 l-50
-7 3 34 c3 31 6 34 53 44 37 9 45 14 33 19 -10 5 -31 3 -47 -2 -29 -10 -29
-10 -33 28 -4 43 6 50 70 50 23 0 32 5 32 17 0 26 23 83 33 83 5 0 4 7 -3 15
-7 8 -26 14 -44 13 -17 -1 -54 -3 -82 -5z m66 -45 c0 -42 -8 -53 -42 -62 -27
-6 -28 -5 -28 37 0 51 4 57 42 57 25 0 28 -3 28 -32z"/>
  <path d="M668 354 c-3 -3 -34 -9 -68 -14 -65 -9 -81 -16 -64 -28 5 -4 25 -31
43 -60 l33 -52 -23 -20 c-29 -25 -75 -50 -109 -61 -25 -7 -25 -7 4 -8 16 -1
55 11 88 26 59 26 61 26 75 7 44 -61 50 -64 118 -64 36 0 65 3 65 8 0 4 -26
19 -58 34 -31 15 -70 38 -86 52 l-29 26 43 67 c39 63 41 68 24 80 -18 13 -47
17 -56 7z m-3 -34 c7 -11 -23 -80 -34 -80 -6 0 -35 44 -43 65 -2 8 19 16 64
24 4 0 10 -3 13 -9z"/>
</g>
<g id="part-1" class="char-part">
  <path d="M198 466 l4 -75 -46 -6 c-62 -10 -69 -25 -12 -25 l46 0 0 -50 c0 -62
26 -71 35 -13 12 69 14 72 61 79 71 10 56 29 -19 24 -24 -1 -28 2 -24 17 3 10
8 37 12 60 6 35 3 43 -14 52 -41 23 -46 16 -43 -63z"/>
</g>
<g id="part-2" class="char-part">
  <path d="M205 258 c-22 -5 -55 -6 -72 -3 -38 7 -38 7 -18 -31 8 -16 15 -40 15
-54 0 -44 9 -48 83 -36 50 7 67 14 67 26 0 8 9 33 21 54 17 31 18 40 7 47 -16
11 -51 10 -103 -3z m47 -53 c-3 -27 -10 -39 -29 -46 -46 -17 -62 -12 -69 26
-3 20 -4 39 0 42 7 7 87 21 97 17 3 -2 3 -19 1 -39z"/>
</g>
<g id="part-3" class="char-part">
  <path d="M475 540 c-11 -5 -41 -9 -67 -9 l-48 -1 7 -62 c3 -35 7 -65 9 -66 1
-2 31 -1 66 3 l63 7 17 56 c16 53 16 58 1 70 -19 14 -21 14 -48 2z m5 -52 c0
-42 -9 -55 -43 -63 -26 -7 -27 -6 -27 38 0 47 7 55 48 56 18 1 22 -4 22 -31z"/>
</g>
<g id="part-4" class="char-part">
  <path d="M361 207 c-12 -103 -9 -137 14 -137 8 0 15 25 20 75 l7 75 36 1 c21
0 46 4 57 9 33 13 -7 23 -48 12 -43 -12 -47 -9 -47 35 0 21 -5 33 -13 33 -9 0
-17 -31 -26 -103z"/>
</g>
<g id="part-5" class="char-part">
  <path d="M690 332 c0 -15 -2 -15 -11 -2 -8 11 -9 7 -4 -17 4 -22 3 -33 -5 -33
-6 0 -9 -4 -6 -9 3 -5 -1 -15 -10 -22 -18 -15 -47 -21 -39 -9 3 5 0 12 -7 17
-18 11 -40 52 -33 63 3 5 -4 8 -15 7 -24 -2 -25 -10 -5 -27 8 -6 31 -41 51
-77 25 -45 40 -63 50 -59 9 4 12 2 8 -5 -11 -18 17 -57 49 -69 23 -8 33 -7 38
2 5 8 12 9 21 2 7 -6 24 -11 38 -12 27 -1 29 -2 -73 51 -19 10 -47 32 -63 48
-26 27 -27 31 -12 40 11 6 15 16 11 26 -5 12 -3 14 7 8 8 -5 11 -4 7 2 -4 6 0
16 8 23 9 7 13 22 10 34 -3 12 -2 15 1 8 3 -6 10 -10 15 -6 15 9 10 21 -11 27
-14 4 -20 0 -20 -11z m34 -224 c-3 -4 -11 -5 -19 -1 -21 7 -19 12 4 10 11 0
18 -5 15 -9z"/>
  <path d="M595 180 c-3 -6 -22 -18 -42 -29 -22 -11 -32 -21 -24 -25 6 -4 11 -3
11 2 0 5 13 12 29 15 17 4 35 15 41 27 11 20 -3 30 -15 10z"/>
</g>
</g>
</svg>