<?xml version="1.0" standalone="no"?>
<!DOCTYPE svg PUBLIC "-//W3C//DTD SVG 20010904//EN"
 "http://www.w3.org/TR/2001/REC-SVG-20010904/DTD/svg10.dtd">
<svg version="1.0" xmlns="http://www.w3.org/2000/svg"
 width="96.000000pt" height="68.000000pt" viewBox="0 0 96.000000 68.000000"
 preserveAspectRatio="xMidYMid meet">
<metadata>
Created by potrace 1.16, written by Peter Selinger 2001-2019
Combined from part_0.svg through part_5.svg with named groups
</metadata>
<g transform="translate(0.000000,68.000000) scale(0.100000,-0.100000)" fill="#000000" stroke="none">
<g id="part-0" class="char-part">
  <path d="M527 613 c-4 -3 -7 -19 -7 -34 0 -24 -5 -28 -40 -34 -45 -8 -45 -25
0 -25 25 0 29 -4 28 -29 -1 -35 -15 -39 -160 -48 -71 -4 -95 -9 -89 -17 5 -6
18 -36 28 -66 15 -47 21 -55 41 -52 18 3 22 -2 22 -21 0 -24 -3 -25 -100 -32
-66 -4 -98 -10 -94 -17 4 -7 35 -9 85 -5 44 3 79 2 79 -3 0 -14 -70 -64 -143
-103 -39 -20 -67 -37 -61 -37 16 0 135 48 161 66 14 8 27 13 30 10 3 -3 6 -37
7 -75 1 -39 4 -72 7 -75 2 -2 48 0 102 6 75 7 102 7 113 -3 25 -20 38 5 44 82
8 101 1 106 -136 89 -58 -6 -107 -10 -110 -7 -2 2 9 18 25 36 26 28 35 31 88
31 63 -1 75 -6 195 -93 67 -48 91 -54 163 -38 37 8 30 12 -65 41 -69 20 -151
59 -174 81 -6 5 23 9 72 9 64 0 82 3 82 14 0 24 -53 28 -175 16 -64 -7 -117
-11 -119 -9 -2 2 -7 14 -10 27 -7 20 -4 22 31 24 55 2 66 2 85 -7 15 -6 23 4
47 56 32 72 29 83 -25 93 l-35 7 23 29 c20 26 29 29 80 29 57 1 83 15 57 32
-8 5 -28 9 -46 9 -22 0 -33 6 -38 19 -3 10 -16 22 -28 25 -28 7 -32 7 -40 -1z
m9 -214 c-2 -22 -7 -43 -10 -47 -3 -3 -27 -6 -54 -7 -26 -1 -71 -5 -99 -9 -48
-7 -53 -6 -53 12 0 16 9 20 61 26 34 3 79 6 100 6 22 0 39 5 39 11 0 8 -31 9
-105 4 -91 -6 -105 -5 -105 8 0 15 10 18 115 30 17 2 49 5 73 6 l43 1 -5 -41z
m-6 -248 c0 -15 -10 -19 -52 -25 -29 -3 -70 -9 -90 -12 -36 -6 -38 -5 -38 19
0 31 11 34 108 36 64 1 72 -1 72 -18z m-2 -96 c-2 -1 -43 -6 -91 -10 l-89 -7
4 29 c3 27 5 28 68 31 36 1 74 4 85 5 14 1 21 -5 23 -21 2 -13 2 -25 0 -27z"/>
  <path d="M263 583 c2 -10 8 -26 12 -35 6 -16 1 -18 -49 -18 -61 0 -70 -10 -31
-36 20 -13 31 -14 56 -5 47 16 56 14 63 -15 9 -34 30 -25 34 14 3 26 8 32 27
32 13 0 27 5 30 10 4 6 -8 10 -29 10 -25 0 -36 5 -36 14 0 23 -29 46 -57 46
-19 0 -24 -4 -20 -17z"/>
</g>
<g id="part-1" class="char-part">
  <path d="M530 580 c0 -27 -4 -30 -40 -36 -44 -7 -45 -24 0 -24 23 0 27 -3 23
-20 -7 -27 5 -25 28 4 14 18 32 24 75 29 31 3 59 8 62 11 11 12 -11 21 -49 20
-31 -1 -39 2 -39 16 0 18 -19 30 -46 30 -9 0 -14 -11 -14 -30z"/>
  <path d="M270 578 c0 -8 5 -19 12 -26 17 -17 5 -24 -52 -30 -27 -2 -50 -8 -50
-13 0 -16 53 -22 84 -10 31 11 47 3 59 -32 7 -21 27 5 21 27 -4 19 0 24 28 33
l33 11 -37 1 c-30 1 -37 5 -40 24 -2 16 -11 23 -30 25 -19 2 -28 -1 -28 -10z"/>
</g>
<g id="part-2" class="char-part">
  <path d="M450 455 c-36 -7 -96 -13 -134 -14 -53 -1 -66 -4 -58 -13 5 -7 18
-39 27 -70 16 -55 17 -56 48 -52 148 20 183 22 191 14 18 -18 27 -10 56 56 17
36 30 67 30 69 0 6 -63 25 -79 24 -9 -1 -45 -7 -81 -14z m90 -35 c0 -17 -6
-20 -32 -19 -18 1 -70 -2 -115 -6 -72 -7 -83 -6 -83 8 0 12 15 17 58 22 31 3
66 7 77 9 11 2 37 4 58 5 31 1 37 -2 37 -19z m-14 -65 c-3 -8 -12 -12 -20 -9
-7 3 -49 0 -92 -5 -75 -11 -93 -7 -94 20 0 9 204 25 208 16 2 -4 1 -14 -2 -22z"/>
</g>
<g id="part-3" class="char-part">
  <path d="M350 285 c0 -23 -4 -25 -47 -26 -27 -1 -73 -4 -103 -8 -53 -7 -54 -8
-28 -19 19 -8 44 -8 84 -2 32 5 60 7 63 4 10 -9 -60 -61 -139 -104 -47 -25
-64 -38 -45 -34 56 11 158 64 211 109 48 41 57 45 107 45 57 0 83 -13 206
-107 45 -34 77 -39 146 -24 37 8 30 12 -64 40 -41 12 -99 37 -130 54 l-56 32
83 3 c63 2 82 6 82 17 0 22 -56 27 -169 16 -120 -13 -137 -13 -128 -4 13 12
-15 33 -44 33 -24 0 -29 -4 -29 -25z"/>
</g>
<g id="part-4" class="char-part">
  <path d="M480 194 c-8 -2 -49 -8 -90 -12 l-75 -7 -1 -71 c-1 -40 1 -76 5 -82
4 -7 37 -7 101 0 72 8 99 7 114 -2 31 -19 46 11 46 92 0 56 -3 69 -19 78 -19
10 -52 11 -81 4z m41 -24 c5 0 9 -10 9 -22 0 -19 -6 -23 -32 -23 -18 0 -59 -4
-90 -8 -57 -8 -58 -8 -58 17 0 22 5 25 43 30 23 3 53 7 67 9 14 3 31 3 38 1 8
-2 18 -4 23 -4z m9 -90 c0 -26 -3 -30 -29 -30 -15 0 -56 -3 -90 -6 l-61 -7 0
31 0 31 78 4 c42 1 83 4 90 5 7 1 12 -10 12 -28z"/>
</g>
</g>
</svg>