<?xml version="1.0" standalone="no"?>
<!DOCTYPE svg PUBLIC "-//W3C//DTD SVG 20010904//EN"
 "http://www.w3.org/TR/2001/REC-SVG-20010904/DTD/svg10.dtd">
<svg version="1.0" xmlns="http://www.w3.org/2000/svg"
 width="96.000000pt" height="68.000000pt" viewBox="0 0 96.000000 68.000000"
 preserveAspectRatio="xMidYMid meet">
<metadata>
Created by potrace 1.16, written by Peter Selinger 2001-2019
Combined from part_0.svg through part_5.svg with named groups
</metadata>
<g transform="translate(0.000000,68.000000) scale(0.100000,-0.100000)" fill="#000000" stroke="none">
<g id="part-0" class="char-part">
  <path d="M244 584 c4 -10 9 -50 13 -90 l6 -72 -59 -7 c-73 -8 -94 -14 -94 -25
0 -5 29 -10 65 -12 l66 -3 -38 -62 c-21 -34 -58 -83 -81 -108 -33 -34 -39 -45
-26 -45 29 0 93 50 126 98 16 24 32 41 34 39 3 -2 -1 -46 -7 -98 -14 -114 -14
-138 0 -152 8 -8 16 -9 29 -1 14 9 18 32 22 134 l5 122 27 -21 c33 -27 48 -27
48 0 0 23 -30 55 -62 65 -36 11 -18 46 30 58 57 14 58 30 3 34 l-43 3 6 69 c6
62 5 70 -13 79 -32 17 -64 14 -57 -5z"/>
  <path d="M590 543 c-29 -9 -69 -13 -113 -10 -66 4 -68 4 -61 -17 20 -61 15
-249 -12 -417 -8 -47 16 -59 55 -27 15 13 53 39 84 58 31 19 57 38 57 42 0 4
-26 -4 -57 -18 -32 -14 -64 -28 -71 -31 -10 -4 -12 19 -10 108 l3 114 96 1
c53 0 100 4 106 7 6 4 16 34 23 67 7 33 17 63 21 66 19 12 8 44 -21 59 -34 18
-41 18 -100 -2z m60 -52 c0 -28 -2 -29 -62 -35 -35 -4 -73 -10 -84 -12 -24 -6
-38 17 -29 47 6 19 32 25 123 27 51 2 52 1 52 -27z m-12 -80 c-2 -27 -5 -29
-62 -35 -100 -10 -106 -9 -106 19 0 22 4 25 38 26 20 0 55 4 77 8 22 5 43 9
48 10 4 0 6 -12 5 -28z"/>
  <path d="M672 293 c-32 -37 -45 -46 -57 -38 -7 6 -32 23 -55 39 -22 16 -44 26
-48 22 -4 -4 2 -12 13 -18 20 -12 90 -83 158 -161 29 -33 48 -47 66 -47 39 0
101 12 101 19 0 3 -28 17 -63 30 -57 22 -147 83 -147 100 0 4 27 20 60 36 60
29 74 47 44 59 -25 10 -28 8 -72 -41z"/>
</g>
<g id="part-1" class="char-part">
  <path d="M258 511 l4 -89 -28 -5 c-16 -3 -48 -9 -72 -12 -66 -10 -40 -29 30
-21 l59 6 -31 -59 c-18 -32 -54 -84 -82 -115 -27 -31 -47 -56 -43 -56 29 0
102 65 147 130 l17 25 0 -49 c1 -27 -4 -78 -10 -113 -12 -70 -6 -113 16 -113
27 0 35 38 35 161 l0 123 29 -34 c23 -27 32 -32 42 -23 17 17 4 41 -36 64 -24
15 -35 28 -35 44 0 20 6 25 45 31 25 3 48 10 50 14 8 13 -32 22 -65 15 -35 -8
-35 -5 -20 76 10 50 9 55 -11 72 -40 33 -45 23 -41 -72z"/>
</g>
<g id="part-2" class="char-part">
  <path d="M605 548 c-12 -8 -55 -13 -108 -13 -83 0 -88 -1 -82 -20 4 -11 9 -54
12 -95 l5 -75 117 1 116 2 29 86 c26 77 28 89 14 102 -20 20 -79 27 -103 12z
m40 -57 l0 -33 -65 -4 c-36 -2 -72 -7 -82 -10 -21 -6 -30 9 -23 39 6 22 15 25
78 34 40 6 77 9 82 8 6 -1 10 -16 10 -34z m-5 -75 c0 -32 -3 -34 -93 -42 l-77
-7 0 25 c0 26 15 30 158 47 6 0 12 -10 12 -23z"/>
</g>
<g id="part-3" class="char-part">
  <path d="M439 348 c-1 -1 -7 -48 -14 -103 -7 -55 -16 -119 -20 -142 -11 -65
10 -65 104 2 44 31 83 60 86 65 3 5 -24 -4 -60 -20 -37 -17 -69 -30 -72 -30
-3 0 -3 50 -2 112 3 82 0 113 -9 116 -6 2 -13 2 -13 0z"/>
  <path d="M673 295 c-20 -25 -41 -45 -46 -45 -4 0 -29 16 -54 35 -25 19 -53 35
-62 34 -11 0 -9 -5 9 -17 27 -18 29 -20 138 -135 57 -61 79 -77 101 -77 38 0
91 11 91 19 0 3 -31 18 -68 33 -37 16 -87 44 -111 63 l-44 35 29 13 c16 7 49
23 73 36 42 22 44 24 26 37 -29 22 -41 17 -82 -31z"/>
</g>
</g>
</svg>