<?xml version="1.0" standalone="no"?>
<!DOCTYPE svg PUBLIC "-//W3C//DTD SVG 20010904//EN"
 "http://www.w3.org/TR/2001/REC-SVG-20010904/DTD/svg10.dtd">
<svg version="1.0" xmlns="http://www.w3.org/2000/svg"
 width="96.000000pt" height="68.000000pt" viewBox="0 0 96.000000 68.000000"
 preserveAspectRatio="xMidYMid meet">
<metadata>
Created by potrace 1.16, written by Peter Selinger 2001-2019
Combined from part_0.svg through part_5.svg with named groups
</metadata>
<g transform="translate(0.000000,68.000000) scale(0.100000,-0.100000)" fill="#000000" stroke="none">
<g id="part-0" class="char-part">
  <path d="M539 623 c-1 -5 0 -36 1 -69 2 -68 -4 -74 -77 -74 -18 0 -33 -5 -33
-11 0 -8 17 -10 55 -5 l55 6 0 -28 c0 -25 -4 -28 -37 -30 -71 -4 -113 -14
-107 -24 4 -7 32 -9 75 -5 68 6 69 5 69 -19 0 -14 -6 -25 -15 -25 -8 -1 -19
-3 -25 -4 -5 -1 -24 -3 -41 -4 -50 -2 -22 -21 32 -21 l49 0 0 -98 c0 -107 -8
-126 -46 -112 -33 13 -30 8 18 -39 39 -36 43 -38 55 -22 8 12 13 63 14 150 l1
131 29 1 c16 1 34 3 39 4 6 1 22 3 38 4 21 1 27 6 29 26 5 56 3 55 65 55 33 0
58 4 58 10 0 15 -49 32 -71 25 -20 -7 -26 9 -9 20 19 12 10 33 -19 45 -23 9
-42 9 -81 1 -28 -6 -53 -11 -56 -11 -3 0 -4 23 -2 52 3 49 2 52 -29 65 -18 7
-34 10 -34 6z m153 -163 c-2 -14 -5 -26 -5 -26 -1 -1 -23 -5 -49 -8 -48 -7
-48 -6 -48 23 0 32 16 40 75 37 26 -1 30 -4 27 -26z m-14 -73 c4 -18 -33 -37
-72 -37 -17 0 -22 5 -21 23 1 17 10 23 36 28 44 8 53 6 57 -14z"/>
  <path d="M214 549 c-3 -6 -1 -16 5 -22 6 -6 11 -41 11 -78 l0 -66 -50 -7 c-80
-11 -73 -36 11 -36 l39 0 0 -49 0 -50 -57 -16 c-92 -25 -88 -23 -68 -45 10
-11 27 -20 38 -20 17 0 156 69 216 109 35 22 3 28 -38 6 l-31 -16 0 50 0 49
40 7 c22 4 42 10 45 15 10 16 -25 32 -56 26 l-32 -6 6 42 c3 24 9 53 13 66 5
19 1 24 -30 37 -42 18 -53 19 -62 4z"/>
  <path d="M666 269 c-14 -23 -25 -43 -24 -44 6 -6 93 40 93 49 0 5 -9 15 -21
22 -19 13 -22 11 -48 -27z"/>
  <path d="M410 263 c1 -16 39 -53 54 -53 23 0 20 37 -3 50 -23 12 -51 13 -51 3z"/>
  <path d="M640 185 c16 -19 116 -85 129 -85 16 0 14 35 -3 49 -11 9 -120 51
-134 51 -2 0 1 -7 8 -15z"/>
  <path d="M430 165 c-30 -13 -63 -24 -72 -25 -22 0 -23 -13 -2 -31 18 -15 54 1
114 51 42 36 33 37 -40 5z"/>
</g>
<g id="part-1" class="char-part">
  <path d="M225 528 c4 -13 9 -51 12 -85 l5 -62 -51 -7 c-70 -9 -74 -24 -7 -24
l56 0 0 -54 0 -55 -70 -22 c-38 -13 -70 -26 -70 -30 0 -4 12 -12 28 -18 25
-11 37 -6 130 45 105 57 143 87 77 60 -21 -9 -41 -16 -46 -16 -5 0 -9 22 -9
49 l0 49 45 11 c57 14 60 35 4 29 l-41 -4 4 68 c6 74 -3 88 -53 88 -18 0 -20
-4 -14 -22z"/>
</g>
<g id="part-2" class="char-part">
  <path d="M536 561 l7 -69 -57 -7 c-74 -10 -75 -30 0 -22 l55 6 -3 -27 c-3 -24
-8 -27 -43 -30 -22 -1 -56 -5 -75 -8 -30 -5 -32 -7 -16 -16 11 -6 43 -7 81 -3
62 6 62 6 58 -18 -5 -25 -34 -37 -90 -37 -14 0 -21 -4 -18 -10 3 -6 28 -10 56
-10 27 0 49 -4 49 -10 0 -5 9 -10 20 -10 11 0 20 6 20 14 0 10 20 16 70 21 63
6 70 9 65 26 -3 10 -1 27 5 39 9 16 21 20 65 20 30 0 55 4 55 10 0 16 -41 32
-66 26 -26 -7 -31 3 -11 23 10 10 7 16 -13 33 -24 20 -53 20 -129 1 -24 -6
-24 -5 -17 45 6 49 6 52 -23 67 -49 25 -52 21 -45 -54z m154 -101 c0 -26 -4
-30 -27 -30 -16 0 -38 -3 -50 -6 -20 -6 -23 -3 -23 24 0 26 4 31 28 35 68 10
72 9 72 -23z m-17 -91 c-6 -6 -26 -12 -46 -16 -35 -5 -37 -4 -37 20 0 23 4 26
43 29 42 3 61 -12 40 -33z"/>
</g>
<g id="part-3" class="char-part">
  <path d="M680 288 c0 -6 -10 -22 -22 -35 -20 -22 -21 -23 -2 -23 10 0 34 9 52
20 28 17 32 23 22 35 -15 18 -50 20 -50 3z"/>
  <path d="M547 283 c-4 -3 -7 -40 -7 -82 0 -89 -8 -106 -44 -99 -26 5 -26 5 -9
-15 60 -70 61 -71 77 -58 22 18 24 261 3 261 -8 0 -17 -3 -20 -7z"/>
  <path d="M420 240 c25 -35 60 -41 60 -10 0 22 -27 40 -60 40 l-21 0 21 -30z"/>
  <path d="M425 167 c-97 -37 -91 -33 -75 -52 19 -23 36 -19 95 25 43 32 78 64
63 59 -2 -1 -39 -15 -83 -32z"/>
  <path d="M630 197 c0 -9 123 -97 136 -97 50 0 -2 63 -65 80 -23 6 -49 14 -57
17 -8 3 -14 3 -14 0z"/>
</g>
</g>
</svg>