<?xml version="1.0" standalone="no"?>
<!DOCTYPE svg PUBLIC "-//W3C//DTD SVG 20010904//EN"
 "http://www.w3.org/TR/2001/REC-SVG-20010904/DTD/svg10.dtd">
<svg version="1.0" xmlns="http://www.w3.org/2000/svg"
 width="96.000000pt" height="68.000000pt" viewBox="0 0 96.000000 68.000000"
 preserveAspectRatio="xMidYMid meet">
<metadata>
Created by potrace 1.16, written by Peter Selinger 2001-2019
Combined from part_0.svg through part_5.svg with named groups
</metadata>
<g transform="translate(0.000000,68.000000) scale(0.100000,-0.100000)" fill="#000000" stroke="none">
<g id="part-0" class="char-part">
  <path d="M534 554 c7 -69 -4 -81 -78 -89 -88 -9 -88 -30 -1 -23 65 6 65 6 65
-21 0 -44 -13 -55 -59 -47 l-42 6 5 -32 c3 -18 8 -86 11 -150 l6 -118 -55 0
c-47 0 -54 -2 -49 -16 5 -14 22 -15 142 -10 303 14 356 18 364 26 15 14 -63
33 -110 26 l-44 -6 6 78 c4 42 11 104 16 136 7 51 6 61 -9 72 -21 16 -45 17
-95 3 -22 -6 -41 -8 -44 -5 -3 3 -3 20 1 39 l6 34 92 7 c51 4 95 9 97 12 16
15 -32 24 -101 19 -84 -6 -93 0 -63 42 17 24 7 37 -37 48 -27 7 -27 6 -24 -31z
m116 -214 c0 -28 -2 -30 -39 -30 -21 0 -59 -3 -85 -6 -45 -7 -46 -6 -46 19 0
28 10 33 80 40 90 9 90 9 90 -23z m0 -75 c0 -27 4 -26 -147 -29 -21 -1 -29 4
-31 21 -3 19 2 22 45 26 129 10 133 9 133 -18z m0 -70 c0 -19 -5 -25 -22 -25
-13 0 -54 -3 -91 -7 -68 -6 -69 -6 -65 18 2 20 10 25 48 30 25 3 64 7 88 7 39
2 42 0 42 -23z m0 -69 c0 -21 -6 -26 -42 -31 -24 -4 -63 -5 -88 -3 -37 2 -45
6 -45 23 0 17 9 21 50 26 111 13 125 11 125 -15z"/>
  <path d="M236 538 c5 -24 9 -63 9 -88 l0 -45 -72 -8 c-40 -5 -73 -13 -73 -18
0 -14 47 -22 96 -14 l45 6 -20 -38 c-23 -46 -97 -142 -123 -161 -23 -17 -24
-36 0 -27 9 3 21 7 26 8 11 3 80 70 100 99 l16 22 0 -32 c0 -18 -5 -65 -11
-104 -9 -55 -8 -76 2 -94 15 -29 27 -30 45 -6 9 12 13 54 14 141 l0 124 23
-21 c31 -30 59 -29 55 1 -2 13 -16 29 -38 39 -52 26 -46 50 14 63 27 6 51 16
54 23 5 15 -41 26 -74 18 l-26 -7 7 66 7 65 -36 15 c-49 21 -49 20 -40 -27z"/>
</g>
<g id="part-1" class="char-part">
  <path d="M235 553 c5 -10 10 -48 13 -85 l4 -66 -58 -7 c-88 -10 -97 -19 -21
-23 37 -2 67 -6 67 -10 0 -18 -62 -112 -105 -160 -71 -79 -27 -67 52 14 l64
67 -7 -69 c-3 -38 -10 -84 -14 -102 -11 -43 4 -85 28 -80 15 3 17 19 20 141 1
75 6 137 10 137 5 0 18 -12 31 -26 23 -27 44 -28 49 -2 2 10 -12 23 -37 34
-53 25 -57 59 -8 69 55 11 67 16 67 27 0 7 -19 9 -50 6 l-51 -5 6 46 c4 25 9
53 11 63 5 19 -31 48 -59 48 -14 0 -17 -4 -12 -17z"/>
</g>
<g id="part-2" class="char-part">
  <path d="M533 539 c1 -60 -4 -65 -91 -74 -53 -6 -62 -9 -48 -17 11 -6 43 -8
74 -5 l54 6 -5 -35 c-5 -32 -4 -35 16 -32 15 2 24 13 30 39 l9 37 101 7 c91 7
99 9 81 22 -15 11 -36 13 -96 8 -43 -3 -78 -4 -78 0 0 3 7 19 15 35 14 27 14
30 -7 44 -42 30 -56 21 -55 -35z"/>
</g>
<g id="part-3" class="char-part">
  <path d="M570 384 c-36 -8 -84 -11 -106 -8 l-42 5 4 -68 c14 -217 16 -233 30
-233 11 0 14 16 14 65 0 61 1 65 23 65 12 0 52 3 90 7 l67 6 0 -62 c0 -54 2
-61 19 -61 16 0 20 9 25 58 3 31 10 93 15 137 13 110 0 118 -139 89z m80 -44
c0 -28 -2 -30 -39 -30 -21 0 -59 -3 -85 -6 -44 -7 -46 -6 -46 19 0 22 6 27 33
31 133 22 137 22 137 -14z m0 -75 c0 -20 -5 -24 -27 -23 -16 1 -57 -2 -91 -6
-63 -8 -64 -8 -60 15 3 25 35 34 136 37 38 2 42 0 42 -23z"/>
</g>
<g id="part-4" class="char-part">
  <path d="M600 94 c-80 -7 -173 -14 -207 -15 -63 -3 -79 -11 -46 -23 22 -9 503
15 503 25 0 10 -59 29 -84 28 -12 -1 -86 -8 -166 -15z"/>
</g>
</g>
</svg>