<?xml version="1.0" standalone="no"?>
<!DOCTYPE svg PUBLIC "-//W3C//DTD SVG 20010904//EN"
 "http://www.w3.org/TR/2001/REC-SVG-20010904/DTD/svg10.dtd">
<svg version="1.0" xmlns="http://www.w3.org/2000/svg"
 width="96.000000pt" height="68.000000pt" viewBox="0 0 96.000000 68.000000"
 preserveAspectRatio="xMidYMid meet">
<metadata>
Created by potrace 1.16, written by Peter Selinger 2001-2019
Combined from part_0.svg through part_5.svg with named groups
</metadata>
<g transform="translate(0.000000,68.000000) scale(0.100000,-0.100000)" fill="#000000" stroke="none">
<g id="part-0" class="char-part">
  <path d="M380 619 c0 -6 12 -26 26 -45 l26 -34 -68 -2 c-88 -2 -105 -2 -129 6
-17 6 -23 -2 -44 -54 -19 -47 -22 -63 -12 -73 17 -17 42 1 64 46 18 35 22 37
65 37 26 0 63 3 83 6 37 6 37 6 41 -34 l3 -40 -60 -16 -60 -15 60 2 c55 2 60
0 57 -18 -5 -27 -1 -25 -81 -32 -39 -3 -71 -10 -71 -14 0 -5 34 -9 75 -9 73 0
75 -1 75 -24 0 -23 -4 -25 -77 -31 -43 -3 -103 -10 -133 -14 -54 -7 -55 -8
-28 -21 23 -11 41 -11 95 -1 76 13 380 31 430 25 41 -5 52 13 17 27 -18 6 -66
8 -130 3 -116 -8 -135 -4 -127 24 4 17 17 21 84 27 77 7 99 17 59 28 -11 3
-47 3 -80 0 -59 -6 -60 -5 -60 20 0 23 5 27 58 37 75 16 80 20 48 37 -24 13
-30 12 -51 -1 -34 -22 -45 -20 -45 9 0 13 -7 28 -16 33 -11 6 17 11 86 16 56
4 104 5 107 2 2 -2 -3 -16 -13 -30 -9 -15 -14 -29 -11 -33 3 -3 38 2 77 12 54
13 70 21 66 32 -3 8 -6 16 -6 18 0 2 -15 13 -34 25 -33 20 -40 20 -136 10
-135 -13 -130 -14 -130 16 0 19 -8 28 -35 40 -41 17 -65 18 -65 3z"/>
  <path d="M475 200 c-33 -4 -88 -8 -122 -9 -57 -1 -78 -11 -55 -25 5 -3 14 -30
21 -60 12 -56 28 -78 40 -58 4 6 55 12 124 13 99 2 117 5 112 17 -3 8 10 33
30 57 30 37 33 44 19 55 -19 16 -91 20 -169 10z m95 -27 c0 -5 -5 -24 -10 -44
l-10 -37 -91 -7 c-102 -8 -111 -4 -107 50 3 27 7 31 43 36 60 9 175 10 175 2z"/>
</g>
<g id="part-1" class="char-part">
  <path d="M390 611 c0 -15 49 -61 65 -61 27 0 30 31 6 52 -24 18 -71 25 -71 9z"/>
  <path d="M432 542 c-156 -13 -185 -13 -192 -1 -11 16 -12 15 -39 -38 -27 -55
-28 -83 0 -83 14 0 25 12 37 39 l16 38 111 12 c173 20 289 28 303 23 10 -3 9
-10 -3 -29 -9 -14 -14 -27 -12 -30 10 -9 127 20 127 31 0 7 -13 22 -30 34 -34
26 -50 26 -318 4z"/>
</g>
<g id="part-2" class="char-part">
  <path d="M430 476 c0 -43 -1 -44 -42 -54 -24 -7 -54 -14 -68 -16 -14 -3 5 -3
43 -1 65 4 67 3 67 -19 0 -20 -6 -24 -46 -30 -26 -3 -60 -6 -75 -6 -16 0 -29
-4 -29 -10 0 -6 32 -10 75 -10 74 0 75 0 75 -26 0 -21 4 -25 23 -22 15 2 23
11 25 30 3 25 6 26 83 33 43 4 79 11 79 15 0 15 -33 20 -97 14 -64 -7 -65 -7
-61 17 2 20 12 26 61 38 60 14 67 21 42 41 -13 11 -22 10 -51 -3 -44 -22 -44
-22 -44 8 0 23 -24 45 -49 45 -6 0 -11 -19 -11 -44z"/>
</g>
<g id="part-3" class="char-part">
  <path d="M520 290 c-216 -18 -344 -31 -349 -36 -3 -3 1 -10 9 -15 15 -10 41
-9 205 11 49 6 154 11 232 12 79 1 143 5 143 9 0 17 -41 29 -92 28 -29 -1 -96
-5 -148 -9z"/>
</g>
<g id="part-4" class="char-part">
  <path d="M480 200 c-30 -5 -85 -8 -122 -9 -38 -1 -68 -3 -68 -5 0 -2 7 -17 15
-32 8 -16 15 -41 15 -55 0 -30 28 -71 36 -51 4 8 29 12 72 12 100 0 171 11
166 24 -3 7 11 30 31 53 19 23 35 43 35 46 0 10 -63 27 -94 26 -17 -1 -56 -5
-86 -9z m83 -67 l-9 -38 -92 -9 c-51 -4 -96 -6 -99 -2 -3 3 -8 23 -10 45 l-5
39 89 7 c48 3 95 7 103 9 26 4 33 -11 23 -51z"/>
</g>
</g>
</svg>