<?xml version="1.0" standalone="no"?>
<!DOCTYPE svg PUBLIC "-//W3C//DTD SVG 20010904//EN"
 "http://www.w3.org/TR/2001/REC-SVG-20010904/DTD/svg10.dtd">
<svg version="1.0" xmlns="http://www.w3.org/2000/svg"
 width="96.000000pt" height="68.000000pt" viewBox="0 0 96.000000 68.000000"
 preserveAspectRatio="xMidYMid meet">
<metadata>
Created by potrace 1.16, written by Peter Selinger 2001-2019
Combined from part_0.svg through part_5.svg with named groups
</metadata>
<g transform="translate(0.000000,68.000000) scale(0.100000,-0.100000)" fill="#000000" stroke="none">
<g id="part-0" class="char-part">
  <path d="M254 529 c6 -36 -5 -129 -20 -181 -4 -14 -19 -18 -77 -20 -77 -3 -85
-11 -43 -42 22 -17 30 -18 63 -8 40 12 54 9 35 -10 -23 -23 -13 -47 28 -68 22
-11 40 -24 40 -28 0 -13 -41 -46 -82 -67 -35 -18 -49 -35 -29 -35 21 0 80 26
117 51 l41 28 24 -25 c13 -15 35 -30 48 -35 56 -22 53 46 -4 77 -19 10 -35 20
-35 22 0 1 8 19 19 40 10 20 22 52 26 69 17 81 49 46 76 -82 12 -55 22 -101
23 -102 0 -1 21 3 46 7 25 5 77 9 117 10 63 0 72 -2 78 -20 3 -11 12 -20 19
-20 27 0 45 38 61 130 9 52 18 105 21 117 4 15 -1 26 -19 38 -22 14 -34 14
-92 4 -88 -15 -91 -11 -75 87 11 72 11 79 -6 91 -10 7 -27 13 -39 13 -21 0
-22 -3 -17 -104 l4 -103 -82 -2 c-64 -2 -85 1 -93 13 -7 9 -27 19 -44 22 -30
6 -33 4 -33 -19 0 -20 -6 -26 -32 -30 -18 -2 -35 -3 -36 -2 -2 2 8 42 22 88
14 47 26 90 26 97 0 18 -31 39 -59 40 -22 0 -23 -3 -17 -41z m530 -202 c2 -41
-3 -45 -69 -48 -59 -4 -60 -4 -63 24 -6 48 1 53 69 53 61 -1 62 -2 63 -29z
m-184 -22 c0 -41 -2 -45 -25 -46 -14 -1 -35 -2 -47 -2 -22 -1 -34 21 -37 65
-1 16 5 18 92 26 14 2 17 -6 17 -43z m-250 -7 c0 -13 -9 -38 -20 -56 -17 -27
-25 -32 -43 -26 -35 10 -41 20 -31 56 7 25 17 34 39 39 50 11 55 10 55 -13z
m422 -94 l-8 -39 -57 -3 -57 -3 0 40 c0 37 2 40 33 45 98 16 101 15 89 -40z
m-172 -11 l0 -43 -40 0 -40 0 0 43 0 42 40 0 40 1 0 -43z"/>
</g>
<g id="part-1" class="char-part">
  <path d="M258 512 c5 -77 -14 -169 -38 -182 -10 -6 -44 -10 -74 -10 -57 0 -71
-11 -37 -30 25 -13 67 -13 93 1 19 10 20 9 13 -29 -6 -40 -6 -41 34 -62 23
-11 41 -24 41 -29 0 -12 -30 -36 -80 -65 -26 -15 -37 -26 -27 -26 21 0 94 35
120 58 16 14 21 13 61 -16 53 -38 66 -40 66 -8 0 18 -10 31 -39 47 l-40 22 16
30 c18 36 53 135 53 152 0 14 -48 38 -60 30 -4 -3 -6 -13 -3 -24 5 -19 -19
-31 -63 -31 l-22 0 28 94 c15 52 25 98 21 104 -7 11 -46 32 -58 32 -5 0 -7
-26 -5 -58z m102 -198 c0 -16 -40 -114 -47 -114 -2 0 -20 7 -39 15 -26 11 -34
19 -30 31 3 9 9 26 12 39 4 16 17 25 47 33 59 14 57 14 57 -4z"/>
</g>
<g id="part-2" class="char-part">
  <path d="M586 553 c4 -10 9 -55 12 -100 l4 -83 29 0 c28 0 29 2 27 38 -1 20 2
61 6 89 8 51 7 53 -19 63 -43 16 -69 13 -59 -7z"/>
</g>
<g id="part-3" class="char-part">
  <path d="M720 379 c-25 -4 -102 -11 -171 -15 l-126 -7 22 -33 c14 -20 28 -64
35 -113 8 -44 16 -85 20 -91 5 -8 20 -8 51 -1 24 6 76 11 116 11 63 0 72 -2
78 -20 3 -11 15 -20 25 -20 22 0 45 54 55 130 3 30 11 73 17 95 9 35 8 41 -12
57 -24 19 -39 20 -110 7z m60 -59 c0 -37 -2 -40 -27 -40 -16 0 -45 -3 -65 -6
l-38 -7 0 41 c0 46 5 49 83 51 l47 1 0 -40z m-180 -14 l0 -44 -42 -4 c-51 -6
-54 -4 -63 44 l-7 37 48 4 c27 2 52 4 57 5 4 1 7 -18 7 -42z m175 -88 c-4 -24
-9 -46 -12 -50 -2 -5 -29 -8 -59 -8 l-54 0 0 39 0 40 48 6 c26 4 52 8 57 10
24 8 26 3 20 -37z m-175 -26 l0 -43 -37 3 c-33 3 -39 7 -44 33 -8 44 -3 50 41
50 l40 1 0 -44z"/>
</g>
</g>
</svg>