<?xml version="1.0" standalone="no"?>
<!DOCTYPE svg PUBLIC "-//W3C//DTD SVG 20010904//EN"
 "http://www.w3.org/TR/2001/REC-SVG-20010904/DTD/svg10.dtd">
<svg version="1.0" xmlns="http://www.w3.org/2000/svg"
 width="96.000000pt" height="68.000000pt" viewBox="0 0 96.000000 68.000000"
 preserveAspectRatio="xMidYMid meet">
<metadata>
Created by potrace 1.16, written by Peter Selinger 2001-2019
Combined from part_0.svg through part_5.svg with named groups
</metadata>
<g transform="translate(0.000000,68.000000) scale(0.100000,-0.100000)" fill="#000000" stroke="none">
<g id="part-0" class="char-part">
  <path d="M390 524 c-30 -8 -65 -12 -77 -9 -22 5 -23 3 -23 -78 0 -94 -19 -180
-56 -251 -33 -63 -24 -70 15 -12 38 55 50 84 65 166 l12 64 60 11 c32 6 62 12
67 13 4 1 17 2 30 3 12 0 16 3 10 6 -19 7 -16 27 8 57 11 14 17 30 14 36 -8
13 -57 11 -125 -6z m60 -43 c0 -32 -7 -36 -74 -46 -44 -7 -46 -6 -46 16 0 43
18 54 93 58 23 1 27 -3 27 -28z"/>
  <path d="M630 530 c-8 -5 -28 -10 -45 -10 l-30 0 -1 -80 c-1 -44 0 -80 2 -80
8 0 28 49 38 95 10 44 15 50 36 50 23 0 25 -4 30 -57 3 -31 10 -62 16 -68 17
-17 109 -8 109 10 0 12 -11 14 -49 12 l-49 -3 7 42 c4 24 12 49 18 56 23 28
-47 56 -82 33z"/>
  <path d="M150 523 c0 -17 56 -63 77 -63 30 0 31 33 1 54 -22 16 -78 22 -78 9z"/>
  <path d="M439 402 c-1 -4 -2 -20 -3 -37 -1 -38 -36 -50 -36 -12 0 24 -23 42
-41 32 -4 -3 -6 -19 -2 -35 4 -25 1 -31 -18 -39 -23 -9 -23 -12 4 -15 6 0 12
-14 12 -31 0 -27 -4 -30 -32 -33 -18 -2 -33 -7 -33 -13 0 -12 20 -11 89 1 31
5 77 12 104 16 47 5 57 24 13 24 -30 0 -34 5 -28 35 3 16 11 25 23 25 10 0 21
5 24 10 4 6 -5 10 -20 10 -24 0 -26 3 -20 29 5 23 2 29 -14 34 -12 3 -22 2
-22 -1z m-1 -123 c3 -22 -2 -27 -22 -31 -23 -5 -26 -2 -26 22 0 15 3 30 7 34
15 14 38 0 41 -25z"/>
  <path d="M100 381 c0 -13 69 -71 84 -71 17 0 27 25 20 44 -10 25 -104 49 -104
27z"/>
  <path d="M615 307 c-38 -11 -72 -22 -73 -23 -2 -1 9 -16 25 -33 16 -16 35 -41
43 -56 13 -24 12 -28 -11 -49 -14 -13 -35 -27 -46 -30 -12 -4 -27 -14 -35 -23
-11 -14 -10 -15 12 -8 14 4 43 17 66 29 l41 23 41 -39 c38 -35 45 -38 102 -38
33 0 60 4 60 9 0 5 -30 23 -67 41 -108 50 -108 49 -65 130 20 38 34 71 32 74
-15 14 -63 12 -125 -7z m55 -27 c0 -22 -20 -70 -30 -70 -7 0 -53 60 -48 64 12
8 55 25 66 25 6 1 12 -8 12 -19z"/>
  <path d="M172 228 c-22 -30 -51 -62 -65 -71 -23 -15 -24 -19 -14 -52 18 -61
39 -46 87 65 23 56 40 103 37 106 -3 3 -23 -19 -45 -48z"/>
  <path d="M342 170 c-8 -17 -27 -44 -44 -60 -33 -33 -27 -39 13 -12 68 46 109
92 80 92 -5 0 -15 2 -23 5 -8 3 -18 -7 -26 -25z"/>
  <path d="M460 192 c0 -4 13 -23 28 -42 24 -28 30 -31 35 -16 5 11 -2 26 -18
42 -24 24 -45 31 -45 16z"/>
</g>
<g id="part-1" class="char-part">
  <path d="M180 495 c34 -35 54 -43 64 -26 11 17 -6 40 -36 50 -57 20 -64 13
-28 -24z"/>
  <path d="M110 382 c0 -14 55 -62 72 -62 20 0 25 34 7 46 -17 10 -79 23 -79 16z"/>
  <path d="M186 238 c-15 -24 -44 -57 -64 -74 -34 -31 -35 -33 -22 -63 7 -18 17
-30 23 -28 11 3 100 197 94 203 -2 3 -16 -15 -31 -38z"/>
</g>
<g id="part-2" class="char-part">
  <path d="M405 528 c-33 -10 -72 -17 -87 -14 l-28 6 0 -78 c0 -97 -22 -190 -62
-267 -27 -53 -28 -58 -8 -40 46 41 71 100 104 246 5 23 12 27 58 33 107 14
119 17 107 32 -8 10 -6 21 11 44 37 52 -4 68 -95 38z m45 -35 c0 -26 -12 -40
-43 -52 -48 -19 -77 -14 -77 12 0 41 18 52 93 56 20 1 27 -4 27 -16z"/>
</g>
<g id="part-3" class="char-part">
  <path d="M342 171 c-7 -16 -28 -44 -47 -64 -52 -53 -7 -35 57 24 44 40 50 50
38 59 -24 16 -34 12 -48 -19z"/>
  <path d="M462 193 c33 -69 54 -86 65 -56 4 10 -3 24 -21 40 -26 22 -52 31 -44
16z"/>
</g>
<g id="part-4" class="char-part">
  <path d="M670 321 c-8 -5 -41 -14 -73 -21 l-59 -12 25 -26 c14 -15 32 -42 42
-61 16 -32 16 -34 -2 -52 -10 -10 -40 -29 -68 -43 -48 -25 -48 -26 -15 -20 19
3 55 16 79 29 l43 25 20 -25 c28 -36 70 -55 120 -55 68 0 76 14 21 35 -26 10
-67 31 -91 47 l-43 29 38 70 c32 59 35 71 23 79 -19 12 -40 12 -60 1z m0 -41
c0 -24 -20 -70 -31 -70 -9 0 -53 60 -48 64 5 4 62 24 72 25 4 1 7 -8 7 -19z"/>
</g>
</g>
</svg>