<?xml version="1.0" standalone="no"?>
<!DOCTYPE svg PUBLIC "-//W3C//DTD SVG 20010904//EN"
 "http://www.w3.org/TR/2001/REC-SVG-20010904/DTD/svg10.dtd">
<svg version="1.0" xmlns="http://www.w3.org/2000/svg"
 width="96.000000pt" height="68.000000pt" viewBox="0 0 96.000000 68.000000"
 preserveAspectRatio="xMidYMid meet">
<metadata>
Created by potrace 1.16, written by Peter Selinger 2001-2019
Combined from part_0.svg through part_5.svg with named groups
</metadata>
<g transform="translate(0.000000,68.000000) scale(0.100000,-0.100000)" fill="#000000" stroke="none">
<g id="part-0" class="char-part">
  <path d="M310 586 c0 -8 9 -31 21 -50 l20 -35 -33 -5 c-18 -3 -67 -10 -108
-16 -82 -12 -89 -15 -72 -32 17 -17 71 -15 182 4 52 9 117 19 143 23 64 8 56
29 -12 33 -28 2 -49 7 -46 12 11 17 -16 51 -50 66 -43 17 -45 17 -45 0z"/>
  <path d="M690 554 c-20 -9 -55 -14 -83 -12 l-47 3 0 -252 c0 -236 5 -282 27
-259 4 3 11 111 17 240 6 129 14 238 18 242 4 4 30 9 58 12 l50 5 -22 -63
c-21 -56 -21 -63 -7 -74 23 -16 59 -77 59 -100 0 -16 -6 -18 -45 -14 -25 3
-45 4 -45 3 0 -1 25 -18 55 -38 49 -33 56 -35 70 -21 9 9 15 33 15 59 0 35 -6
52 -31 79 -16 19 -39 38 -50 41 -28 9 -23 25 26 75 50 50 56 75 23 84 -34 9
-49 7 -88 -10z"/>
  <path d="M400 433 c1 -13 75 -68 91 -68 28 0 13 30 -26 52 -41 23 -65 29 -65
16z"/>
  <path d="M259 399 c-6 -13 -32 -45 -57 -71 -60 -64 -25 -51 86 31 30 23 43 51
23 51 -5 0 -16 3 -24 6 -10 3 -20 -3 -28 -17z"/>
  <path d="M380 326 c0 -46 -20 -61 -61 -47 -44 15 -44 14 -12 -13 39 -34 26
-51 -77 -103 -46 -24 -77 -43 -68 -43 25 0 124 40 145 59 51 46 49 46 102 7
57 -42 71 -45 71 -13 0 15 -13 30 -40 47 -35 21 -55 60 -32 60 5 0 15 11 22
25 15 29 1 55 -31 55 -15 0 -19 -7 -19 -34z"/>
</g>
<g id="part-1" class="char-part">
  <path d="M310 584 c0 -4 9 -22 21 -40 14 -24 28 -34 45 -34 24 0 32 22 16 46
-15 23 -82 46 -82 28z"/>
  <path d="M290 488 c-80 -11 -147 -22 -149 -23 -1 -2 0 -8 4 -14 9 -15 71 -14
152 3 37 8 98 17 136 21 65 6 83 17 51 29 -20 8 -21 8 -194 -16z"/>
</g>
<g id="part-2" class="char-part">
  <path d="M380 332 c0 -16 -6 -37 -14 -47 -14 -19 -15 -19 -50 -2 -54 25 -66
21 -23 -10 20 -14 37 -30 37 -34 0 -15 -67 -63 -125 -90 -33 -16 -52 -28 -43
-29 32 0 120 39 160 71 43 34 37 35 107 -24 29 -25 36 -27 48 -15 20 21 9 40
-43 71 l-45 27 30 39 c29 37 30 39 12 55 -28 26 -51 20 -51 -12z"/>
</g>
<g id="part-3" class="char-part">
  <path d="M673 552 c-29 -9 -53 -20 -53 -24 0 -5 25 -5 56 -2 l55 7 -16 -39
c-41 -93 -32 -96 45 -11 35 38 50 61 43 68 -17 17 -77 18 -130 1z"/>
</g>
<g id="part-4" class="char-part">
  <path d="M560 298 c0 -228 6 -289 25 -258 4 7 11 94 16 194 5 99 10 209 13
244 l5 62 -29 0 -30 0 0 -242z"/>
</g>
</g>
</svg>