<?xml version="1.0" standalone="no"?>
<!DOCTYPE svg PUBLIC "-//W3C//DTD SVG 20010904//EN"
 "http://www.w3.org/TR/2001/REC-SVG-20010904/DTD/svg10.dtd">
<svg version="1.0" xmlns="http://www.w3.org/2000/svg"
 width="96.000000pt" height="68.000000pt" viewBox="0 0 96.000000 68.000000"
 preserveAspectRatio="xMidYMid meet">
<metadata>
Created by potrace 1.16, written by Peter Selinger 2001-2019
Combined from part_0.svg through part_5.svg with named groups
</metadata>
<g transform="translate(0.000000,68.000000) scale(0.100000,-0.100000)" fill="#000000" stroke="none">
<g id="part-0" class="char-part">
  <path d="M418 560 c6 -73 -4 -80 -107 -80 l-86 0 0 -123 c0 -79 -5 -137 -14
-165 -16 -47 -6 -97 19 -97 20 0 26 35 34 196 4 79 11 148 15 152 14 14 121
21 121 8 0 -7 -22 -34 -50 -61 -46 -46 -47 -50 -24 -50 15 0 42 16 69 41 l45
42 55 -37 c65 -43 95 -47 95 -12 0 31 -17 44 -70 52 -58 9 -71 16 -61 33 6 10
39 15 110 19 l101 5 0 -183 0 -183 -50 6 -50 6 33 -28 c54 -47 76 -55 97 -36
15 14 18 39 22 198 3 100 8 189 11 197 4 8 0 24 -9 35 -12 16 -25 20 -74 18
-33 -1 -85 -7 -115 -13 -31 -7 -59 -10 -61 -7 -2 2 3 24 11 48 15 40 14 45 -2
56 -9 7 -28 13 -42 13 -25 0 -26 -2 -23 -50z"/>
  <path d="M417 343 c-2 -5 -7 -20 -10 -34 -9 -34 -43 -77 -81 -101 l-31 -19 30
7 c17 4 49 22 72 40 50 41 62 42 94 8 25 -27 70 -54 89 -54 6 0 10 10 8 22 -3
25 -70 68 -105 68 -24 0 -32 25 -10 33 8 3 6 10 -8 21 -22 17 -41 20 -48 9z"/>
</g>
<g id="part-1" class="char-part">
  <path d="M424 574 c11 -58 -17 -135 -69 -188 -56 -58 -33 -60 37 -3 l53 43 59
-38 c66 -43 74 -45 83 -22 9 23 -16 42 -77 57 -61 16 -59 13 -35 102 16 56 16
60 -1 72 -10 7 -26 13 -37 13 -17 0 -18 -5 -13 -36z"/>
</g>
<g id="part-2" class="char-part">
  <path d="M565 504 c-44 -7 -142 -16 -217 -20 -133 -7 -137 -8 -126 -27 16 -31
4 -233 -16 -280 -16 -36 -16 -41 -1 -64 9 -13 21 -23 28 -20 18 6 25 48 32
206 l8 150 56 6 c31 3 92 10 136 15 44 6 108 10 143 10 l62 0 0 -181 0 -182
-51 6 -51 6 50 -39 c55 -44 76 -49 91 -22 5 9 11 96 14 192 3 96 9 187 12 202
6 23 3 29 -23 42 -35 18 -39 18 -147 0z"/>
</g>
<g id="part-3" class="char-part">
  <path d="M410 330 c0 -35 -29 -79 -72 -110 -22 -17 -36 -30 -30 -30 24 0 63
21 100 54 l38 35 55 -44 c60 -50 92 -58 87 -22 -3 21 -57 57 -108 70 -18 5
-20 9 -11 26 9 16 8 22 -8 31 -31 16 -51 12 -51 -10z"/>
</g>
</g>
</svg>