<?xml version="1.0" standalone="no"?>
<!DOCTYPE svg PUBLIC "-//W3C//DTD SVG 20010904//EN"
 "http://www.w3.org/TR/2001/REC-SVG-20010904/DTD/svg10.dtd">
<svg version="1.0" xmlns="http://www.w3.org/2000/svg"
 width="96.000000pt" height="68.000000pt" viewBox="0 0 96.000000 68.000000"
 preserveAspectRatio="xMidYMid meet">
<metadata>
Created by potrace 1.16, written by Peter Selinger 2001-2019
Combined from part_0.svg through part_5.svg with named groups
</metadata>
<g transform="translate(0.000000,68.000000) scale(0.100000,-0.100000)" fill="#000000" stroke="none">
<g id="part-0" class="char-part">
  <path d="M505 559 c-16 -28 -47 -62 -68 -76 -32 -20 -36 -26 -27 -43 12 -23
18 -24 55 -10 24 9 26 8 20 -12 -7 -22 -39 -65 -60 -80 -5 -4 -6 -10 -2 -14 8
-8 75 43 89 66 4 8 12 27 18 43 6 17 17 27 30 27 17 0 20 -7 20 -39 0 -21 6
-44 13 -50 23 -18 114 -32 143 -21 40 16 18 30 -46 30 -32 0 -62 5 -65 10 -4
6 -4 29 0 50 6 33 11 40 29 40 13 0 31 -9 41 -20 10 -11 24 -20 32 -20 21 0
15 34 -9 57 -45 40 -107 61 -74 24 17 -18 16 -19 -33 -30 -28 -6 -70 -14 -93
-17 l-43 -6 48 50 c31 31 48 56 45 68 -7 36 -33 25 -63 -27z"/>
  <path d="M218 412 c4 -128 4 -129 -20 -135 -45 -13 -46 -10 -33 48 12 51 12
56 -5 65 -37 20 -49 13 -43 -23 3 -21 -1 -46 -11 -65 -33 -64 -11 -97 48 -73
24 10 156 41 174 41 2 0 1 -4 -2 -9 -3 -4 1 -17 9 -27 21 -28 32 -9 50 81 14
74 14 81 -2 93 -9 6 -25 12 -34 12 -16 0 -17 -7 -12 -50 7 -57 -6 -80 -43 -80
-20 0 -23 4 -19 23 2 12 6 67 7 122 l3 100 -35 3 -35 3 3 -129z"/>
  <path d="M503 313 c-13 -27 -41 -68 -63 -91 -22 -24 -40 -46 -40 -48 0 -5 24
8 57 32 20 14 23 13 58 -17 l37 -33 -28 -23 c-16 -13 -51 -31 -79 -40 -33 -11
-44 -18 -31 -21 10 -2 52 8 92 23 l74 27 46 -37 45 -37 80 4 c93 6 122 22 57
32 -53 8 -100 23 -156 47 -49 22 -48 23 13 103 19 25 35 50 35 55 0 17 -50 21
-92 6 -60 -21 -76 -20 -55 3 18 20 23 52 8 52 -5 0 -15 2 -23 5 -8 3 -21 -12
-35 -42z m117 -48 c0 -25 -33 -85 -47 -85 -21 0 -77 55 -69 69 4 6 11 9 16 6
4 -2 25 2 46 9 50 19 54 19 54 1z"/>
</g>
<g id="part-1" class="char-part">
  <path d="M216 523 c5 -10 10 -67 12 -127 4 -118 1 -126 -50 -126 -32 0 -31 -1
-17 60 9 38 8 46 -7 57 -28 21 -34 16 -34 -27 0 -22 -6 -56 -14 -75 -12 -28
-12 -37 -1 -51 12 -17 15 -17 51 -1 42 18 116 36 150 37 14 0 24 -8 27 -21 11
-40 31 -13 45 59 16 81 12 102 -18 102 -18 0 -20 -6 -20 -60 l0 -60 -36 0 -36
0 7 98 c4 53 9 105 11 114 4 13 -3 21 -21 28 -41 16 -59 13 -49 -7z"/>
</g>
<g id="part-2" class="char-part">
  <path d="M530 598 c-1 -21 -57 -89 -94 -114 -26 -18 -33 -29 -29 -45 4 -15 11
-19 27 -15 12 3 69 18 128 34 l108 28 20 -23 c36 -42 66 -21 40 28 -10 18 -69
49 -93 49 -5 0 -2 -9 7 -19 17 -19 16 -20 -36 -30 -29 -6 -71 -13 -93 -17
l-40 -6 54 55 c36 37 52 61 48 71 -7 19 -47 22 -47 4z"/>
</g>
<g id="part-3" class="char-part">
  <path d="M584 456 c-3 -8 -4 -29 -2 -47 4 -44 36 -60 111 -57 76 4 73 22 -5
28 l-63 5 2 43 c2 36 -1 42 -18 42 -11 0 -22 -6 -25 -14z"/>
  <path d="M496 434 c-9 -8 -16 -20 -16 -25 0 -5 -16 -27 -36 -49 -26 -28 -32
-40 -20 -40 21 0 106 82 106 103 0 24 -16 29 -34 11z"/>
</g>
<g id="part-4" class="char-part">
  <path d="M610 295 c-19 -7 -45 -14 -57 -14 -22 -1 -29 -11 -17 -24 3 -3 24 1
46 9 l40 14 -6 -32 c-6 -31 -32 -68 -47 -68 -4 0 -21 11 -37 25 -47 39 -60 29
-18 -14 l37 -38 -26 -21 c-14 -11 -48 -28 -76 -37 -27 -9 -49 -19 -49 -22 0
-12 84 9 129 31 l47 24 50 -39 c41 -32 57 -39 94 -39 57 0 120 10 120 20 0 4
-34 14 -75 24 -42 9 -94 25 -115 36 l-40 20 26 43 c15 23 36 52 47 65 34 36
-13 60 -73 37z"/>
</g>
</g>
</svg>