<?xml version="1.0" standalone="no"?>
<!DOCTYPE svg PUBLIC "-//W3C//DTD SVG 20010904//EN"
 "http://www.w3.org/TR/2001/REC-SVG-20010904/DTD/svg10.dtd">
<svg version="1.0" xmlns="http://www.w3.org/2000/svg"
 width="96.000000pt" height="68.000000pt" viewBox="0 0 96.000000 68.000000"
 preserveAspectRatio="xMidYMid meet">
<metadata>
Created by potrace 1.16, written by Peter Selinger 2001-2019
Combined from part_0.svg through part_5.svg with named groups
</metadata>
<g transform="translate(0.000000,68.000000) scale(0.100000,-0.100000)" fill="#000000" stroke="none">
<g id="part-0" class="char-part">
  <path d="M264 576 c4 -15 4 -43 0 -61 -6 -33 -9 -35 -55 -41 -59 -8 -65 -24
-9 -24 31 0 40 -4 40 -17 0 -35 -17 -46 -65 -45 -25 1 -45 -2 -43 -6 16 -32
28 -63 37 -100 11 -39 14 -42 37 -36 26 7 43 -7 44 -32 0 -12 -93 -34 -144
-34 l-30 0 23 -16 c21 -15 29 -15 85 -2 71 17 76 13 56 -57 -12 -43 -7 -85 11
-85 16 0 29 48 29 105 0 60 -5 56 84 70 51 8 36 20 -26 20 -45 0 -51 3 -54 23
-3 19 0 22 28 20 30 -3 32 0 55 57 12 32 23 65 23 72 0 15 -60 27 -88 19 -17
-6 -19 -3 -15 14 6 24 24 35 76 44 48 9 44 30 -6 34 -41 4 -45 11 -21 48 21
31 11 42 -41 51 -37 6 -38 6 -31 -21z m66 -210 c0 -21 -5 -24 -66 -29 -71 -7
-84 -4 -84 18 0 13 67 31 123 34 22 1 27 -3 27 -23z m-10 -68 c0 -21 -5 -23
-60 -26 -54 -2 -60 -1 -60 17 0 21 18 27 83 30 32 1 37 -2 37 -21z"/>
  <path d="M540 568 c0 -29 -50 -116 -94 -164 -25 -29 -46 -55 -46 -58 0 -24
117 82 148 134 l21 33 87 -87 87 -88 46 6 c67 9 68 20 4 42 -64 21 -212 131
-205 152 5 16 -16 42 -34 42 -8 0 -14 -6 -14 -12z"/>
  <path d="M655 330 c-11 -5 -32 -9 -47 -9 -16 -1 -28 -6 -28 -12 0 -7 18 -8 55
-4 l56 7 -3 -113 -3 -114 -35 3 -35 3 34 -35 c26 -27 38 -33 51 -26 26 14 30
32 30 123 0 45 4 97 9 115 16 54 -28 86 -84 62z"/>
  <path d="M445 313 c-54 -8 -54 -25 0 -21 l50 3 3 -109 3 -109 -31 6 c-37 8
-38 3 -2 -28 57 -51 69 -30 73 135 l4 125 -35 1 c-19 1 -48 -1 -65 -3z"/>
  <path d="M594 251 c23 -26 49 -28 44 -3 -2 10 -14 18 -33 20 -30 4 -30 4 -11
-17z"/>
  <path d="M425 240 c18 -20 45 -27 45 -12 0 15 -24 32 -44 32 -18 0 -19 -1 -1
-20z"/>
  <path d="M417 158 c-52 -28 -56 -33 -42 -47 14 -14 20 -11 62 32 26 26 46 47
43 47 -3 0 -31 -15 -63 -32z"/>
  <path d="M603 172 c-48 -18 -53 -27 -23 -37 15 -5 30 2 52 24 36 35 31 37 -29
13z"/>
</g>
<g id="part-1" class="char-part">
  <path d="M269 594 c0 -5 0 -28 1 -50 2 -51 -19 -74 -66 -74 -19 0 -34 -4 -34
-10 0 -5 18 -10 40 -10 38 0 40 -1 34 -25 -9 -38 28 -34 43 4 9 25 18 31 57
36 25 4 48 11 51 15 7 11 -35 20 -62 14 -27 -7 -28 -5 -6 41 10 22 13 39 7 44
-13 14 -64 25 -65 15z"/>
</g>
<g id="part-2" class="char-part">
  <path d="M244 226 c7 -27 0 -30 -97 -41 -31 -4 -59 -11 -62 -15 -10 -17 55
-21 109 -7 l56 15 0 -24 c0 -14 -6 -39 -14 -57 -14 -34 -6 -77 14 -77 16 0 30
45 30 95 0 64 7 75 49 76 20 0 45 4 56 8 19 8 19 8 -2 15 -12 4 -38 4 -58 0
-31 -5 -35 -4 -35 15 0 16 -6 21 -26 21 -23 0 -25 -3 -20 -24z"/>
</g>
<g id="part-3" class="char-part">
  <path d="M534 553 c-12 -48 -41 -96 -94 -155 -28 -32 -47 -58 -42 -58 20 0 93
62 129 110 20 27 42 50 49 50 6 0 42 -34 79 -75 37 -41 76 -77 87 -81 22 -7
98 5 98 15 0 4 -26 18 -57 31 -81 33 -203 129 -196 154 5 18 -11 36 -34 36 -7
0 -16 -12 -19 -27z"/>
</g>
<g id="part-4" class="char-part">
  <path d="M440 313 c-52 -10 -46 -26 7 -19 l52 7 3 -95 c4 -125 3 -129 -33
-124 l-29 5 27 -29 c55 -58 69 -34 75 129 4 100 3 123 -9 127 -16 7 -54 6 -93
-1z"/>
</g>
<g id="part-5" class="char-part">
  <path d="M581 156 c-19 -11 -20 -14 -8 -19 9 -3 26 3 39 13 27 23 7 27 -31 6z"/>
</g>
</g>
</svg>