<?xml version="1.0" standalone="no"?>
<!DOCTYPE svg PUBLIC "-//W3C//DTD SVG 20010904//EN"
 "http://www.w3.org/TR/2001/REC-SVG-20010904/DTD/svg10.dtd">
<svg version="1.0" xmlns="http://www.w3.org/2000/svg"
 width="96.000000pt" height="68.000000pt" viewBox="0 0 96.000000 68.000000"
 preserveAspectRatio="xMidYMid meet">
<metadata>
Created by potrace 1.16, written by Peter Selinger 2001-2019
Combined from part_0.svg through part_5.svg with named groups
</metadata>
<g transform="translate(0.000000,68.000000) scale(0.100000,-0.100000)" fill="#000000" stroke="none">
<g id="part-0" class="char-part">
  <path d="M406 552 l7 -79 -39 -6 c-22 -4 -56 -7 -76 -7 -21 0 -38 -4 -38 -10
0 -6 32 -10 75 -10 l75 0 -1 -117 c0 -65 -4 -140 -7 -168 l-7 -50 -40 3 -39 3
44 -40 c25 -22 49 -40 54 -41 26 -1 35 39 36 158 0 67 3 122 8 122 4 0 32 -26
63 -57 72 -74 139 -133 151 -133 29 0 147 35 141 41 -4 4 -37 15 -73 24 -36 8
-83 23 -105 32 -51 21 -148 94 -138 103 4 4 45 20 91 35 87 28 95 39 49 65
-24 13 -27 13 -54 -14 -43 -44 -101 -79 -118 -72 -12 4 -15 18 -13 58 l3 53
50 8 c28 4 57 10 65 13 29 10 -13 25 -65 22 l-50 -3 3 30 c2 17 8 43 14 58 9
23 8 30 -8 42 -11 8 -29 15 -42 15 -22 0 -22 -2 -16 -78z"/>
  <path d="M540 573 c0 -20 112 -78 124 -66 17 17 3 45 -29 59 -36 15 -95 19
-95 7z"/>
  <path d="M230 374 c0 -11 62 -54 77 -54 6 0 16 6 22 14 10 12 9 17 -6 24 -27
15 -93 26 -93 16z"/>
  <path d="M320 267 c-55 -27 -140 -57 -160 -57 -8 0 -22 -4 -30 -10 -12 -7 -12
-12 4 -29 11 -12 24 -21 29 -21 14 0 182 107 197 125 16 19 14 19 -40 -8z"/>
</g>
<g id="part-1" class="char-part">
  <path d="M550 573 c0 -13 81 -63 102 -63 27 0 22 35 -6 48 -35 16 -96 26 -96
15z"/>
</g>
<g id="part-2" class="char-part">
  <path d="M395 613 c5 -10 10 -45 13 -79 l4 -61 -47 -6 c-26 -4 -63 -7 -81 -7
-19 0 -34 -4 -34 -10 0 -6 33 -10 80 -10 l80 0 0 -40 c0 -33 3 -40 18 -38 12
2 19 15 22 43 l5 40 63 9 c41 6 62 13 62 22 0 12 -14 16 -60 16 -3 1 -17 -2
-32 -6 -26 -6 -28 -4 -28 22 0 16 5 43 11 61 10 28 9 34 -7 46 -11 8 -32 15
-48 15 -23 0 -27 -3 -21 -17z"/>
</g>
<g id="part-3" class="char-part">
  <path d="M572 396 c-19 -19 -50 -42 -69 -52 -33 -18 -35 -18 -47 -1 -7 9 -21
17 -30 17 -13 0 -16 -13 -17 -82 0 -46 -4 -103 -7 -128 l-7 -45 -45 3 -44 3
43 -33 c75 -56 71 -55 87 -34 10 15 14 51 14 143 0 68 3 123 6 123 4 0 45 -37
91 -82 113 -112 118 -114 204 -93 38 10 69 20 69 24 0 4 -33 15 -73 24 -88 21
-164 55 -217 98 -47 38 -47 37 63 75 42 15 77 31 77 35 0 10 -41 39 -55 39 -5
0 -25 -16 -43 -34z"/>
  <path d="M230 371 c0 -12 63 -51 83 -51 8 0 18 7 21 16 4 11 -4 19 -29 30 -39
16 -75 18 -75 5z"/>
  <path d="M320 269 c-19 -10 -72 -30 -117 -45 -46 -14 -83 -30 -83 -34 0 -13
30 -40 44 -40 17 0 167 94 190 119 23 25 13 25 -34 0z"/>
</g>
</g>
</svg>