<?xml version="1.0" standalone="no"?>
<!DOCTYPE svg PUBLIC "-//W3C//DTD SVG 20010904//EN"
 "http://www.w3.org/TR/2001/REC-SVG-20010904/DTD/svg10.dtd">
<svg version="1.0" xmlns="http://www.w3.org/2000/svg"
 width="96.000000pt" height="68.000000pt" viewBox="0 0 96.000000 68.000000"
 preserveAspectRatio="xMidYMid meet">
<metadata>
Created by potrace 1.16, written by Peter Selinger 2001-2019
Combined from part_0.svg through part_5.svg with named groups
</metadata>
<g transform="translate(0.000000,68.000000) scale(0.100000,-0.100000)" fill="#000000" stroke="none">
<g id="part-0" class="char-part">
  <path d="M546 578 c-11 -18 -32 -46 -49 -61 -23 -22 -35 -27 -59 -22 -28 7
-29 6 -21 -22 10 -35 10 -74 -1 -140 -10 -64 0 -68 62 -22 24 17 46 28 50 25
12 -12 -30 -110 -66 -155 -39 -48 -19 -44 35 8 45 43 72 107 79 191 6 56 4 74
-7 81 -31 19 -39 10 -39 -45 0 -49 -2 -54 -24 -60 -13 -3 -32 -9 -41 -12 -15
-6 -16 0 -10 62 9 76 9 77 95 121 67 34 74 42 53 65 -23 26 -36 22 -57 -14z"/>
  <path d="M241 551 c-93 -16 -129 -36 -74 -43 l28 -3 3 -137 c2 -116 0 -138
-12 -138 -8 0 -27 -5 -43 -11 l-28 -11 27 -14 c26 -13 32 -12 98 21 38 19 73
35 76 35 4 0 4 -28 2 -62 -6 -70 -3 -88 17 -88 21 0 24 22 27 199 3 219 5 231
32 231 11 0 28 5 36 10 13 9 13 11 0 20 -20 13 -76 10 -189 -9z m90 -63 l6
-36 -44 0 c-42 0 -43 0 -43 33 0 29 4 34 28 38 42 6 47 3 53 -35z m-1 -96 c0
-25 -3 -28 -40 -29 -35 -2 -40 1 -40 21 0 30 7 36 47 36 29 0 33 -3 33 -28z
m2 -88 c-3 -18 -15 -31 -38 -40 -46 -19 -54 -18 -54 10 0 46 10 56 55 56 40 0
42 -1 37 -26z"/>
  <path d="M750 490 c-14 -4 -47 -8 -75 -9 l-50 -1 3 -202 c2 -220 6 -258 24
-240 10 10 25 198 27 352 2 58 10 69 55 77 l37 6 -3 -84 c-3 -79 -4 -84 -25
-83 -20 0 -21 -1 -5 -22 22 -30 50 -30 62 -1 5 12 14 60 19 106 10 76 9 85 -7
97 -19 15 -26 15 -62 4z"/>
</g>
<g id="part-1" class="char-part">
  <path d="M261 550 c-57 -10 -106 -21 -108 -24 -3 -3 6 -8 21 -12 l26 -6 0
-135 c0 -123 2 -134 18 -131 13 2 18 15 20 51 l3 47 45 0 c26 0 44 5 44 11 0
8 -15 10 -46 5 l-45 -6 3 33 c3 29 7 33 46 41 23 5 42 13 42 18 0 5 -19 8 -42
6 l-43 -3 3 35 c2 19 5 37 7 38 2 2 41 8 87 14 82 10 96 13 86 23 -13 14 -73
12 -167 -5z"/>
</g>
<g id="part-2" class="char-part">
  <path d="M330 405 c0 -144 10 -130 -122 -166 -49 -13 -88 -27 -88 -32 0 -4 11
-12 23 -18 20 -9 36 -5 95 25 39 20 75 36 80 36 5 0 5 -27 0 -61 -5 -41 -4
-67 3 -82 11 -20 12 -20 25 -2 10 13 14 53 14 139 0 67 3 158 7 204 6 79 5 82
-16 82 -20 0 -21 -4 -21 -125z"/>
</g>
<g id="part-3" class="char-part">
  <path d="M541 577 c-11 -18 -31 -43 -45 -56 -43 -41 -30 -40 49 1 41 22 75 43
75 47 0 11 -35 41 -47 41 -6 0 -20 -15 -32 -33z"/>
</g>
<g id="part-4" class="char-part">
  <path d="M529 389 c3 -74 1 -85 -28 -144 -18 -35 -44 -73 -58 -85 -33 -25 -20
-26 21 -1 64 40 99 111 111 226 8 70 2 84 -35 85 -13 0 -15 -14 -11 -81z"/>
</g>
<g id="part-5" class="char-part">
  <path d="M636 472 c-3 -7 -2 -126 2 -224 2 -36 5 -46 16 -42 11 4 14 28 14
102 0 53 3 111 6 128 5 26 2 33 -14 37 -11 3 -22 2 -24 -1z"/>
  <path d="M647 193 c-4 -3 -7 -40 -6 -82 0 -60 2 -71 10 -52 15 37 24 141 12
141 -5 0 -13 -3 -16 -7z"/>
</g>
</g>
</svg>