<?xml version="1.0" standalone="no"?>
<!DOCTYPE svg PUBLIC "-//W3C//DTD SVG 20010904//EN"
 "http://www.w3.org/TR/2001/REC-SVG-20010904/DTD/svg10.dtd">
<svg version="1.0" xmlns="http://www.w3.org/2000/svg"
 width="96.000000pt" height="68.000000pt" viewBox="0 0 96.000000 68.000000"
 preserveAspectRatio="xMidYMid meet">
<metadata>
Created by potrace 1.16, written by Peter Selinger 2001-2019
Combined from part_0.svg through part_5.svg with named groups
</metadata>
<g transform="translate(0.000000,68.000000) scale(0.100000,-0.100000)" fill="#000000" stroke="none">
<g id="part-0" class="char-part">
  <path d="M464 609 c-3 -5 -4 -31 -3 -57 l3 -47 -44 -15 -45 -15 44 -5 c40 -4
46 -8 53 -36 12 -45 30 -56 106 -61 81 -5 147 7 147 27 0 16 -12 17 -129 4
-61 -6 -71 -5 -83 11 -15 21 -17 61 -4 69 5 3 42 13 82 21 41 9 78 20 82 24
20 20 -17 21 -87 2 -41 -10 -77 -17 -79 -14 -3 2 -1 20 4 40 4 20 6 40 4 44
-8 12 -45 18 -51 8z"/>
  <path d="M240 587 c0 -17 58 -57 82 -57 33 0 45 17 26 36 -13 14 -108 32 -108
21z"/>
  <path d="M190 501 c0 -17 62 -61 86 -61 39 0 32 38 -11 56 -39 16 -75 18 -75
5z"/>
  <path d="M315 409 c-27 -16 -65 -31 -82 -35 -37 -7 -42 -23 -14 -48 25 -22 47
-12 114 52 70 69 64 78 -18 31z"/>
  <path d="M430 327 l0 -46 -42 -5 c-24 -3 -87 -8 -140 -12 -54 -3 -98 -9 -98
-13 0 -15 66 -27 105 -20 22 5 64 8 94 8 l54 1 -46 -35 c-42 -32 -90 -59 -167
-93 l-25 -11 30 0 c28 -1 114 26 125 39 3 3 29 23 59 44 l54 38 -6 -80 c-4
-60 -2 -85 9 -99 23 -30 34 2 34 95 l0 84 43 -33 c23 -19 44 -36 47 -39 3 -3
19 -15 37 -27 26 -19 46 -23 108 -23 41 0 75 4 75 8 0 4 -32 15 -71 25 -73 17
-219 91 -227 115 -3 10 22 13 119 12 161 -1 159 -1 159 9 0 24 -58 32 -166 23
-60 -6 -113 -8 -117 -5 -4 2 -5 20 -1 39 4 21 2 34 -4 34 -6 0 -17 3 -26 6
-13 5 -16 -2 -16 -39z"/>
</g>
<g id="part-1" class="char-part">
  <path d="M250 581 c0 -15 55 -51 79 -51 26 0 28 26 4 38 -30 16 -83 24 -83 13z"/>
  <path d="M220 475 c29 -31 60 -41 71 -24 5 8 9 17 9 20 0 10 -50 29 -77 29
l-26 0 23 -25z"/>
  <path d="M315 404 c-33 -18 -68 -34 -77 -34 -9 0 -20 -5 -23 -10 -9 -14 13
-40 34 -40 15 0 131 102 131 115 0 7 3 8 -65 -31z"/>
</g>
<g id="part-2" class="char-part">
  <path d="M460 560 l0 -60 -47 -12 -48 -13 50 -5 c45 -5 50 -8 53 -31 5 -45 36
-63 110 -67 82 -4 147 8 147 28 0 16 -15 17 -131 5 -68 -7 -73 -6 -84 15 -25
46 -8 64 81 86 45 10 84 25 87 32 5 17 -22 15 -102 -7 l-69 -19 6 48 c5 43 4
49 -16 54 -12 3 -25 6 -29 6 -5 0 -8 -27 -8 -60z"/>
</g>
<g id="part-3" class="char-part">
  <path d="M428 325 c4 -43 3 -45 -22 -46 -14 -1 -29 -2 -33 -3 -5 -1 -56 -6
-115 -10 -60 -4 -108 -12 -108 -16 0 -18 62 -29 108 -20 75 14 132 19 132 10
0 -12 -112 -87 -171 -114 l-54 -24 35 -1 c43 -1 119 33 184 84 l49 37 -6 -80
c-4 -60 -2 -85 9 -99 22 -29 34 1 34 90 0 42 2 77 5 77 3 0 39 -25 79 -55 l73
-55 78 0 c92 0 90 11 -4 35 -93 24 -227 97 -215 116 3 5 69 9 147 9 135 0 140
1 124 18 -19 18 -59 21 -202 12 l-80 -5 3 34 c3 35 -9 51 -39 51 -14 0 -16 -8
-11 -45z"/>
</g>
</g>
</svg>