<?xml version="1.0" standalone="no"?>
<!DOCTYPE svg PUBLIC "-//W3C//DTD SVG 20010904//EN"
 "http://www.w3.org/TR/2001/REC-SVG-20010904/DTD/svg10.dtd">
<svg version="1.0" xmlns="http://www.w3.org/2000/svg"
 width="96.000000pt" height="68.000000pt" viewBox="0 0 96.000000 68.000000"
 preserveAspectRatio="xMidYMid meet">
<metadata>
Created by potrace 1.16, written by Peter Selinger 2001-2019
Combined from part_0.svg through part_5.svg with named groups
</metadata>
<g transform="translate(0.000000,68.000000) scale(0.100000,-0.100000)" fill="#000000" stroke="none">
<g id="part-0" class="char-part">
  <path d="M528 515 c2 -31 1 -55 -4 -54 -5 1 -27 1 -48 0 -50 -1 -36 -18 19
-23 36 -3 39 -5 39 -33 0 -34 -19 -42 -111 -44 -64 -1 -71 -21 -8 -21 41 0 45
-2 45 -25 0 -14 -14 -37 -35 -58 -19 -19 -35 -37 -35 -41 0 -14 56 24 94 63
33 34 37 42 26 56 -11 13 -7 15 31 16 24 0 52 2 62 4 15 3 17 -5 17 -55 l0
-58 50 -11 c28 -6 69 -11 90 -11 33 0 40 3 40 19 0 18 -7 20 -70 19 -38 -1
-72 0 -74 3 -3 2 0 26 6 52 l10 47 64 0 c62 0 82 11 47 25 -10 3 -62 3 -116
-1 l-98 -7 3 34 c3 33 5 34 56 42 28 5 52 12 52 17 0 12 -52 19 -77 9 -22 -8
-23 -6 -23 35 0 31 -5 46 -16 50 -36 14 -41 7 -36 -49z"/>
  <path d="M235 470 c-16 -4 -46 -8 -65 -9 l-35 -1 1 -166 c1 -97 6 -170 12
-176 7 -7 16 -6 30 1 11 6 37 11 57 11 28 0 38 -5 47 -25 14 -30 34 -32 43 -5
3 11 10 20 14 20 4 0 9 64 10 143 1 78 5 152 8 165 10 43 -44 62 -122 42z m61
-65 c3 -20 5 -37 3 -39 -2 -2 -28 -6 -56 -9 l-53 -6 0 39 c0 42 7 48 62 49 35
1 38 -1 44 -34z m2 -109 c1 -32 0 -34 -32 -34 -19 0 -43 -3 -55 -7 -19 -6 -21
-2 -21 29 0 33 2 35 38 39 20 2 44 4 53 5 11 2 16 -7 17 -32z m2 -101 c0 -23
-5 -35 -14 -35 -7 0 -35 -3 -61 -7 l-47 -6 7 34 c9 42 19 49 73 49 41 0 42 0
42 -35z"/>
  <path d="M536 217 l6 -44 -51 -7 c-61 -8 -59 -27 2 -24 42 3 42 3 45 -34 l3
-36 -91 -8 c-164 -12 -80 -23 138 -17 159 5 212 9 212 18 0 20 -42 26 -135 19
l-85 -7 0 36 0 35 60 7 c33 4 60 11 60 15 0 14 -30 20 -74 14 l-43 -6 1 38 c1
35 -2 39 -26 42 -27 3 -28 3 -22 -41z"/>
</g>
<g id="part-1" class="char-part">
  <path d="M260 470 c-14 -4 -49 -8 -78 -9 -51 -1 -53 -2 -45 -23 4 -13 8 -76 7
-140 -1 -108 1 -118 18 -118 13 0 18 7 18 25 0 21 5 25 29 25 16 0 42 3 59 6
26 5 31 3 34 -17 2 -16 10 -24 23 -24 19 0 20 8 23 131 l3 131 -26 11 c-29 13
-30 13 -65 2z m40 -74 l0 -41 -55 -2 -55 -3 0 45 c0 43 0 44 38 47 64 5 72 0
72 -46z m0 -96 c0 -27 -4 -40 -14 -40 -7 0 -34 -3 -60 -6 -46 -7 -46 -6 -46
22 0 43 10 52 60 57 25 2 48 4 53 5 4 1 7 -16 7 -38z"/>
</g>
<g id="part-2" class="char-part">
  <path d="M300 180 c0 -12 -11 -19 -37 -24 -61 -10 -83 -7 -83 9 0 20 -36 19
-44 -1 -4 -9 1 -28 9 -41 14 -21 17 -22 31 -8 25 25 81 19 100 -10 22 -33 40
-32 59 6 22 42 16 82 -12 84 -16 1 -23 -4 -23 -15z"/>
</g>
<g id="part-3" class="char-part">
  <path d="M528 525 c6 -54 -4 -65 -55 -65 -18 0 -33 -4 -33 -10 0 -5 20 -10 45
-10 44 0 45 0 45 -34 0 -31 -3 -34 -37 -40 -21 -3 -57 -6 -80 -6 -26 0 -43 -5
-43 -11 0 -9 26 -10 93 -5 50 4 137 9 192 12 126 6 154 12 134 25 -8 6 -55 7
-117 3 l-103 -6 3 33 c3 31 6 34 48 42 25 4 52 11 60 14 26 9 -29 24 -66 17
-33 -6 -33 -6 -36 38 -3 38 -6 43 -29 46 -26 3 -27 2 -21 -43z"/>
</g>
<g id="part-4" class="char-part">
  <path d="M620 306 c0 -63 7 -70 83 -80 59 -7 97 1 97 21 0 11 -9 13 -44 8 -24
-4 -58 -4 -76 0 -29 6 -31 9 -24 38 12 53 10 62 -13 65 -22 3 -23 0 -23 -52z"/>
  <path d="M460 315 c0 -14 -14 -37 -35 -58 -19 -19 -35 -37 -35 -41 0 -14 56
24 94 62 40 42 41 62 0 62 -19 0 -24 -5 -24 -25z"/>
</g>
<g id="part-5" class="char-part">
  <path d="M544 218 c1 -30 5 -42 14 -40 8 1 11 -2 7 -8 -3 -6 -11 -8 -16 -5 -5
4 -9 -1 -9 -10 0 -9 5 -13 11 -9 8 4 8 0 0 -15 -9 -16 -9 -21 1 -21 9 0 9 -3
-2 -10 -11 -7 -11 -10 -2 -10 27 0 -11 -25 -42 -27 -17 -1 -54 -3 -83 -5 -28
-1 -49 -7 -46 -12 3 -4 31 -5 62 -2 81 10 164 15 261 15 67 0 82 3 72 13 -8 8
-33 11 -70 9 -88 -5 -106 -7 -125 -16 -10 -4 -21 -5 -24 -1 -4 3 0 6 8 6 10 0
14 11 13 36 -2 28 3 37 19 44 14 6 16 9 7 9 -9 1 -16 11 -17 23 -1 11 -8 25
-15 29 -10 7 -11 9 0 9 10 0 10 5 2 20 -17 32 -27 23 -26 -22z"/>
  <path d="M602 175 c11 -11 58 -15 58 -5 0 5 -14 10 -32 10 -17 0 -29 -2 -26
-5z"/>
  <path d="M478 153 c7 -3 16 -2 19 1 4 3 -2 6 -13 5 -11 0 -14 -3 -6 -6z"/>
</g>
</g>
</svg>