<?xml version="1.0" standalone="no"?>
<!DOCTYPE svg PUBLIC "-//W3C//DTD SVG 20010904//EN"
 "http://www.w3.org/TR/2001/REC-SVG-20010904/DTD/svg10.dtd">
<svg version="1.0" xmlns="http://www.w3.org/2000/svg"
 width="96.000000pt" height="68.000000pt" viewBox="0 0 96.000000 68.000000"
 preserveAspectRatio="xMidYMid meet">
<metadata>
Created by potrace 1.16, written by Peter Selinger 2001-2019
Combined from part_0.svg through part_5.svg with named groups
</metadata>
<g transform="translate(0.000000,68.000000) scale(0.100000,-0.100000)" fill="#000000" stroke="none">
<g id="part-0" class="char-part">
  <path d="M557 535 c-4 -24 -17 -67 -31 -94 -25 -54 -21 -74 9 -41 13 14 31 20
62 20 38 0 43 -2 43 -24 0 -32 -20 -86 -31 -86 -6 0 -24 7 -40 16 -17 8 -36
13 -42 11 -7 -2 8 -14 32 -26 l43 -22 -23 -25 c-12 -13 -28 -24 -34 -24 -6 0
-20 -7 -31 -16 -18 -15 -17 -15 16 -10 19 4 51 17 70 30 l35 23 50 -38 c50
-39 78 -48 90 -29 8 14 -36 53 -85 75 -30 14 -39 23 -34 34 33 81 38 104 27
108 -27 9 -11 23 26 23 22 0 43 5 46 10 12 20 -29 23 -103 7 -42 -9 -77 -15
-79 -13 -3 2 8 28 22 57 26 50 26 53 9 66 -30 22 -41 15 -47 -32z"/>
  <path d="M290 541 c0 -10 -25 -53 -55 -95 -30 -42 -52 -76 -49 -76 14 0 62 31
83 54 17 18 35 26 58 26 l33 0 -21 -44 c-20 -40 -25 -44 -78 -54 -51 -10 -46
-10 47 -5 97 4 102 4 102 -16 0 -11 -4 -22 -8 -25 -4 -3 -65 -10 -135 -17 -70
-7 -127 -16 -127 -20 0 -15 30 -16 138 -5 62 7 114 11 116 9 2 -2 2 -13 -1
-23 -4 -15 -18 -20 -71 -25 -92 -9 -93 -9 -92 -20 0 -6 26 -9 58 -8 82 3 143
13 137 23 -3 4 -1 20 5 34 8 22 16 26 50 26 47 0 54 18 10 27 -28 5 -30 9 -25
34 6 26 4 28 -29 35 -20 3 -46 4 -58 1 -15 -4 -7 9 30 46 41 41 50 55 40 65
-15 15 -50 15 -83 0 -32 -15 -43 -4 -20 22 24 26 13 50 -25 50 -23 0 -30 -5
-30 -19z"/>
  <path d="M530 131 c0 -30 33 -81 53 -81 28 0 22 54 -9 79 -33 26 -44 26 -44 2z"/>
  <path d="M680 144 c0 -3 6 -11 13 -18 6 -7 27 -32 46 -55 42 -50 64 -54 59 -9
-2 26 -12 37 -48 59 -43 26 -70 35 -70 23z"/>
  <path d="M191 98 c-34 -46 -35 -61 -4 -66 30 -4 59 46 54 96 -2 22 -19 12 -50
-30z"/>
  <path d="M360 130 c0 -16 27 -65 43 -78 22 -19 40 8 28 41 -14 35 -71 65 -71
37z"/>
</g>
<g id="part-1" class="char-part">
  <path d="M294 534 c-4 -15 -29 -55 -55 -90 -27 -35 -45 -64 -40 -64 4 0 26 16
49 36 30 25 53 36 81 38 l40 3 -20 -38 c-23 -45 -23 -49 -6 -49 7 0 35 25 62
56 38 44 45 58 34 65 -19 12 -31 11 -72 -6 -53 -22 -61 -19 -38 14 25 35 26
47 5 55 -27 10 -33 7 -40 -20z"/>
</g>
<g id="part-2" class="char-part">
  <path d="M640 401 c0 -25 -18 -91 -25 -91 -1 0 -22 7 -45 15 -57 20 -61 13
-10 -16 39 -22 40 -24 23 -41 -10 -9 -36 -26 -58 -37 -36 -18 -37 -20 -14 -21
14 0 48 12 77 26 l52 26 49 -36 c51 -37 75 -44 87 -24 9 14 -34 49 -88 74 -29
13 -37 22 -32 33 34 79 39 102 24 111 -27 17 -40 11 -40 -19z"/>
</g>
<g id="part-3" class="char-part">
  <path d="M530 129 c0 -31 32 -79 52 -79 27 0 23 51 -5 78 -29 28 -47 28 -47 1z"/>
  <path d="M680 137 c8 -7 32 -33 53 -59 44 -55 67 -62 67 -20 0 33 -21 55 -73
77 -45 19 -69 20 -47 2z"/>
  <path d="M191 103 c-37 -43 -37 -68 -1 -68 29 0 61 53 53 85 -7 28 -16 25 -52
-17z"/>
  <path d="M360 126 c0 -21 44 -81 60 -81 23 0 23 39 0 68 -22 28 -60 37 -60 13z"/>
</g>
</g>
</svg>