<?xml version="1.0" standalone="no"?>
<!DOCTYPE svg PUBLIC "-//W3C//DTD SVG 20010904//EN"
 "http://www.w3.org/TR/2001/REC-SVG-20010904/DTD/svg10.dtd">
<svg version="1.0" xmlns="http://www.w3.org/2000/svg"
 width="96.000000pt" height="68.000000pt" viewBox="0 0 96.000000 68.000000"
 preserveAspectRatio="xMidYMid meet">
<metadata>
Created by potrace 1.16, written by Peter Selinger 2001-2019
Combined from part_0.svg through part_5.svg with named groups
</metadata>
<g transform="translate(0.000000,68.000000) scale(0.100000,-0.100000)" fill="#000000" stroke="none">
<g id="part-0" class="char-part">
  <path d="M590 568 c-30 -15 -68 -32 -85 -37 l-30 -9 35 -1 c38 -1 180 38 180
49 0 4 -10 11 -22 17 -18 7 -34 4 -78 -19z"/>
  <path d="M291 529 c-29 -21 -74 -48 -99 -61 -44 -22 -45 -23 -20 -26 15 -2 36
2 47 7 42 23 57 14 60 -33 l2 -43 -53 -7 c-87 -11 -118 -18 -118 -26 0 -17 53
-20 99 -6 27 8 52 12 55 9 11 -12 -29 -69 -96 -135 -47 -47 -62 -67 -46 -63
35 12 106 63 125 91 25 38 32 16 23 -66 -12 -97 -12 -122 -1 -139 8 -12 12
-12 25 -2 13 11 16 36 16 132 0 66 4 119 9 119 5 0 14 -7 21 -15 7 -8 19 -15
26 -15 25 0 15 31 -16 48 -41 24 -42 62 -1 62 16 0 36 3 45 6 27 10 7 24 -35
24 l-40 0 7 35 c5 27 3 36 -11 41 -21 9 -6 20 48 34 37 11 47 30 25 47 -29 22
-46 19 -97 -18z"/>
  <path d="M665 493 c-29 -36 -29 -36 -5 -28 14 4 40 14 59 21 28 12 31 16 21
29 -19 23 -42 17 -75 -22z"/>
  <path d="M547 504 c-3 -3 -1 -16 5 -29 11 -24 38 -24 38 1 0 15 -34 37 -43 28z"/>
  <path d="M440 482 c0 -5 9 -17 20 -27 27 -24 50 -6 25 19 -17 17 -45 22 -45 8z"/>
  <path d="M563 426 c-93 -13 -119 -26 -49 -26 40 0 47 -3 44 -17 -2 -10 -10
-19 -18 -20 -8 -1 -37 -5 -64 -8 -29 -4 -44 -10 -37 -14 7 -4 36 -4 65 0 29 5
98 12 152 16 60 5 97 12 94 18 -5 11 -14 11 -95 4 -40 -3 -50 -1 -50 11 0 10
16 18 48 24 26 5 47 13 47 18 0 10 -31 9 -137 -6z"/>
  <path d="M610 325 c-30 -7 -76 -14 -102 -14 -28 -1 -48 -6 -48 -12 0 -8 24 -9
83 -3 113 10 122 10 125 -1 6 -17 -19 -23 -146 -36 -85 -8 -119 -15 -108 -21
10 -6 51 -5 104 1 123 15 157 15 143 -3 -7 -8 -44 -16 -92 -21 -97 -8 -148
-23 -83 -24 22 -1 81 2 130 5 88 7 90 7 89 33 0 24 4 26 45 29 25 1 52 5 60 8
23 8 -8 24 -47 24 -26 0 -31 3 -26 16 13 34 -31 41 -127 19z"/>
  <path d="M740 181 c0 -15 80 -82 90 -76 18 11 11 42 -12 57 -30 19 -78 31 -78
19z"/>
  <path d="M560 159 c0 -16 42 -48 63 -49 27 0 20 28 -13 45 -34 18 -50 19 -50
4z"/>
  <path d="M378 114 c-23 -45 -23 -66 -1 -62 23 4 44 48 36 76 -7 30 -15 27 -35
-14z"/>
  <path d="M470 140 c0 -26 48 -87 81 -104 61 -31 249 -17 249 18 0 6 -19 22
-43 36 -59 35 -58 35 -47 6 8 -21 6 -27 -10 -36 -43 -23 -164 1 -185 36 -23
39 -44 59 -45 44z"/>
</g>
<g id="part-1" class="char-part">
  <path d="M317 540 c-15 -12 -57 -39 -94 -60 -37 -22 -62 -40 -56 -40 18 0 217
72 228 82 7 6 3 14 -9 24 -26 19 -39 18 -69 -6z"/>
</g>
<g id="part-2" class="char-part">
  <path d="M278 473 c-1 -5 -2 -28 -2 -53 l-1 -45 -82 -14 c-46 -8 -83 -18 -83
-22 0 -16 52 -22 90 -10 20 6 45 11 54 11 28 0 -5 -51 -85 -130 -39 -38 -66
-70 -60 -70 23 0 75 33 124 79 44 41 49 43 44 21 -3 -14 -9 -67 -13 -117 -6
-82 -5 -93 11 -99 28 -11 35 15 35 145 l0 125 30 -29 c25 -24 30 -26 36 -11 7
19 -10 43 -37 51 -29 9 -26 55 4 55 35 0 67 11 61 21 -3 5 -23 9 -44 9 -39 0
-39 1 -34 30 4 18 1 36 -6 45 -13 16 -39 20 -42 8z"/>
</g>
<g id="part-3" class="char-part">
  <path d="M609 578 c-19 -12 -56 -29 -84 -39 l-50 -18 39 0 c43 -1 176 35 176
48 0 4 -11 13 -24 19 -19 8 -30 6 -57 -10z"/>
  <path d="M671 499 c-37 -44 -32 -47 33 -19 52 22 57 32 23 47 -20 9 -27 6 -56
-28z"/>
  <path d="M540 497 c0 -17 21 -37 38 -37 21 0 9 32 -15 41 -16 6 -23 5 -23 -4z"/>
  <path d="M450 465 c26 -28 50 -33 50 -10 0 16 -30 35 -56 35 -15 0 -14 -4 6
-25z"/>
</g>
<g id="part-4" class="char-part">
  <path d="M558 427 c-93 -11 -119 -27 -42 -27 38 0 45 -3 42 -17 -2 -14 -18
-20 -62 -25 -32 -4 -61 -10 -64 -13 -8 -8 51 -6 156 6 190 20 188 20 168 31
-12 7 -38 6 -79 -1 -60 -11 -86 -4 -73 18 4 6 29 13 56 17 28 4 50 10 50 15 0
10 -32 10 -152 -4z"/>
</g>
<g id="part-5" class="char-part">
  <path d="M775 159 c8 -12 56 -32 62 -25 5 4 -50 36 -62 36 -3 0 -3 -5 0 -11z"/>
  <path d="M585 137 c24 -20 31 -22 33 -11 5 20 3 21 -33 30 l-30 7 30 -26z"/>
  <path d="M395 130 c3 -5 2 -10 -3 -10 -8 0 -32 -42 -32 -55 0 -14 31 -2 41 16
8 15 8 19 0 15 -6 -4 -11 -3 -11 2 0 6 7 13 16 16 16 6 11 26 -7 26 -6 0 -7
-4 -4 -10z"/>
  <path d="M470 136 c0 -2 8 -10 18 -17 15 -13 16 -12 3 4 -13 16 -21 21 -21 13z"/>
  <path d="M807 119 c7 -7 15 -10 18 -7 3 3 -2 9 -12 12 -14 6 -15 5 -6 -5z"/>
  <path d="M510 75 c13 -14 30 -25 37 -25 8 0 21 -7 29 -15 23 -22 146 -15 176
11 18 15 20 15 9 2 -16 -21 -4 -23 21 -4 16 11 14 15 -21 34 -33 19 -39 20
-37 6 0 -9 -8 -21 -19 -28 -11 -6 -23 -15 -27 -21 -5 -7 -11 -6 -15 1 -5 6
-35 14 -68 18 -42 4 -65 12 -77 26 -9 11 -20 20 -24 20 -4 0 3 -11 16 -25z"/>
</g>
</g>
</svg>