<?xml version="1.0" standalone="no"?>
<!DOCTYPE svg PUBLIC "-//W3C//DTD SVG 20010904//EN"
 "http://www.w3.org/TR/2001/REC-SVG-20010904/DTD/svg10.dtd">
<svg version="1.0" xmlns="http://www.w3.org/2000/svg"
 width="96.000000pt" height="68.000000pt" viewBox="0 0 96.000000 68.000000"
 preserveAspectRatio="xMidYMid meet">
<metadata>
Created by potrace 1.16, written by Peter Selinger 2001-2019
Combined from part_0.svg through part_5.svg with named groups
</metadata>
<g transform="translate(0.000000,68.000000) scale(0.100000,-0.100000)" fill="#000000" stroke="none">
<g id="part-0" class="char-part">
  <path d="M292 543 c-35 -35 -61 -67 -58 -70 3 -3 28 6 55 21 35 18 66 26 98
26 l48 -1 -39 -34 c-38 -34 -42 -35 -120 -35 -66 0 -77 -2 -64 -12 9 -7 21
-30 28 -50 11 -37 12 -37 56 -31 27 3 44 2 44 -5 0 -10 -64 -53 -125 -85 -49
-26 -19 -19 61 14 96 40 127 33 70 -16 -21 -19 -65 -47 -98 -62 -33 -15 -55
-29 -49 -31 17 -6 87 24 152 64 31 19 59 34 63 34 3 0 6 -10 6 -22 -1 -30 -63
-76 -171 -127 -46 -22 -76 -41 -67 -41 29 0 165 56 212 89 l46 30 0 -42 c0
-23 -7 -53 -16 -66 -14 -19 -22 -22 -53 -16 l-36 7 38 -37 c43 -41 61 -42 91
-2 18 24 21 42 20 108 -1 44 2 78 6 77 4 -2 40 -32 79 -68 85 -76 101 -84 161
-75 70 11 69 16 -7 41 -68 22 -98 38 -193 104 -25 17 -68 44 -97 60 -48 28
-51 31 -40 54 11 23 16 24 91 22 74 -1 80 0 94 24 9 14 24 34 34 46 19 21 18
21 -11 34 -17 6 -40 12 -53 13 -27 0 -109 -13 -120 -19 -5 -3 -8 -3 -8 -1 0 6
100 67 111 67 5 0 9 7 9 15 0 27 -43 35 -96 19 -62 -18 -74 -18 -45 3 23 15
23 17 6 30 -30 21 -47 14 -113 -54z m258 -102 c0 -44 -10 -51 -71 -51 -59 0
-59 0 -59 29 0 34 3 35 76 38 47 2 54 0 54 -16z m-170 -12 c4 -6 5 -20 3 -30
-4 -16 -15 -19 -58 -19 -46 0 -53 3 -58 22 -4 12 -2 25 3 28 19 12 103 11 110
-1z"/>
  <path d="M540 300 c-30 -27 -39 -40 -28 -40 9 0 20 5 23 10 3 6 13 10 21 10 8
0 31 7 51 15 30 13 33 17 23 30 -19 23 -41 17 -90 -25z"/>
</g>
<g id="part-1" class="char-part">
  <path d="M345 590 c-3 -11 -29 -40 -58 -65 -55 -48 -52 -59 7 -24 34 20 146
37 146 22 0 -5 -14 -21 -32 -36 -29 -24 -30 -27 -10 -22 30 9 142 77 142 87 0
17 -56 20 -108 5 -64 -18 -77 -14 -42 10 22 15 22 17 5 30 -26 18 -43 16 -50
-7z"/>
</g>
<g id="part-2" class="char-part">
  <path d="M435 468 c-60 -11 -138 -17 -173 -15 -58 3 -80 -4 -49 -16 7 -3 19
-24 26 -47 11 -38 15 -41 39 -35 15 3 85 7 156 9 l130 4 33 46 c18 25 29 47
25 49 -33 20 -85 22 -187 5z m110 -19 c4 -5 4 -21 1 -35 -6 -22 -11 -24 -67
-24 -60 0 -60 0 -57 28 3 24 8 28 53 33 28 3 53 7 57 7 4 1 10 -3 13 -9z
m-165 -39 c0 -29 -1 -30 -50 -30 -43 0 -52 3 -59 23 -10 27 5 35 67 36 40 1
42 0 42 -29z"/>
</g>
<g id="part-3" class="char-part">
  <path d="M322 335 c-13 -13 -47 -36 -77 -51 -30 -16 -52 -30 -51 -32 5 -4 119
39 131 49 26 25 90 -19 106 -74 15 -53 11 -112 -10 -138 -17 -21 -22 -22 -56
-12 l-38 12 39 -40 c45 -46 67 -47 98 -6 17 23 21 43 21 95 -1 95 -17 134 -67
162 -36 20 -39 25 -25 35 9 7 14 15 10 18 -14 14 -59 4 -81 -18z"/>
</g>
<g id="part-4" class="char-part">
  <path d="M570 330 c0 -16 -82 -71 -97 -65 -27 10 2 -22 92 -101 l89 -79 59 2
c33 1 64 6 68 10 5 5 -21 19 -61 31 -63 20 -220 107 -220 123 0 6 15 12 115
49 29 11 29 12 11 26 -23 16 -56 19 -56 4z"/>
</g>
</g>
</svg>