<?xml version="1.0" standalone="no"?>
<!DOCTYPE svg PUBLIC "-//W3C//DTD SVG 20010904//EN"
 "http://www.w3.org/TR/2001/REC-SVG-20010904/DTD/svg10.dtd">
<svg version="1.0" xmlns="http://www.w3.org/2000/svg"
 width="96.000000pt" height="68.000000pt" viewBox="0 0 96.000000 68.000000"
 preserveAspectRatio="xMidYMid meet">
<metadata>
Created by potrace 1.16, written by Peter Selinger 2001-2019
Combined from part_0.svg through part_5.svg with named groups
</metadata>
<g transform="translate(0.000000,68.000000) scale(0.100000,-0.100000)" fill="#000000" stroke="none">
<g id="part-0" class="char-part">
  <path d="M465 538 c3 -29 8 -72 11 -95 l5 -43 -50 0 -51 0 0 55 c0 50 -2 55
-25 61 -14 4 -27 5 -29 3 -2 -2 2 -31 9 -64 7 -33 11 -61 10 -63 -1 -1 -44 -5
-96 -8 -52 -4 -98 -10 -103 -15 -17 -16 43 -29 87 -20 23 5 68 12 100 16 46 5
57 4 57 -8 0 -15 -35 -64 -60 -84 -29 -24 6 -13 40 12 l34 25 21 -20 c29 -27
67 -25 102 4 29 24 29 24 53 5 30 -22 50 -24 50 -5 0 8 -13 19 -30 25 -28 9
-42 31 -20 31 17 0 11 28 -7 33 -10 3 39 5 109 6 128 1 156 8 115 30 -16 9
-51 9 -137 1 -63 -5 -118 -10 -122 -10 -5 0 -8 15 -8 34 l0 33 72 7 c82 7 105
20 65 35 -18 7 -44 7 -78 1 -29 -6 -53 -10 -55 -10 -2 0 -4 15 -4 34 0 35 -13
46 -51 46 -18 0 -19 -5 -14 -52z m70 -187 c-4 -14 -16 -36 -27 -48 -20 -22
-26 -21 -87 14 -2 2 2 10 10 19 11 14 10 18 -6 27 -17 10 -13 13 30 17 74 8
88 3 80 -29z"/>
  <path d="M686 298 c3 -18 2 -72 -1 -119 l-7 -86 -195 -8 c-107 -4 -197 -5
-199 -2 -3 2 -8 52 -11 110 -5 95 -8 106 -27 111 -11 3 -21 4 -22 3 -1 -1 2
-27 7 -57 6 -30 8 -91 7 -135 l-3 -80 35 1 c19 0 64 6 100 12 36 6 118 13 183
17 102 6 117 5 117 -8 0 -20 19 -32 31 -20 5 5 16 59 23 119 8 60 17 118 22
128 8 21 -17 46 -48 46 -15 0 -17 -6 -12 -32z"/>
  <path d="M400 237 c-60 -7 -78 -12 -60 -17 33 -8 282 9 294 21 13 12 -122 9
-234 -4z"/>
  <path d="M513 154 c-36 -48 -33 -54 11 -25 23 16 34 17 50 9 12 -6 24 -15 27
-20 6 -10 39 0 39 12 0 4 -14 13 -31 19 -19 6 -28 15 -23 22 7 11 -12 29 -31
28 -5 0 -25 -20 -42 -45z"/>
  <path d="M384 173 c-4 -10 -18 -30 -32 -45 -20 -21 -22 -28 -10 -28 9 0 21 7
29 16 12 15 34 15 72 -1 12 -5 17 -3 17 8 0 9 -8 18 -19 22 -10 3 -18 13 -17
22 2 24 -33 29 -40 6z"/>
</g>
<g id="part-1" class="char-part">
  <path d="M463 575 c4 -8 9 -48 13 -90 6 -63 10 -75 25 -75 13 0 19 9 21 38 l3
37 55 3 c74 3 102 10 94 23 -4 8 -32 9 -82 4 l-75 -7 6 31 c5 24 2 33 -13 41
-28 15 -53 13 -47 -5z"/>
</g>
<g id="part-2" class="char-part">
  <path d="M640 420 c-36 -4 -163 -16 -282 -26 -120 -10 -218 -22 -218 -26 0
-20 43 -29 93 -19 101 21 323 41 455 41 72 0 132 4 132 8 0 14 -49 32 -83 31
-18 -1 -61 -5 -97 -9z"/>
</g>
<g id="part-3" class="char-part">
  <path d="M684 220 c0 -61 -5 -114 -10 -119 -5 -5 -95 -12 -200 -16 l-191 -7
-6 68 c-4 38 -7 88 -7 111 0 33 -4 43 -21 48 -31 10 -33 1 -19 -65 8 -38 10
-87 6 -131 -8 -86 -5 -87 107 -66 45 9 137 19 205 23 107 6 122 5 122 -9 0
-20 19 -32 31 -20 5 5 15 58 23 119 8 60 18 118 22 128 8 21 -17 46 -45 46
-14 0 -16 -17 -17 -110z"/>
</g>
<g id="part-4" class="char-part">
  <path d="M390 355 c0 -8 -16 -33 -36 -55 -42 -47 -33 -52 22 -12 57 42 71 61
53 73 -21 13 -39 11 -39 -6z"/>
  <path d="M427 289 c14 -15 27 -19 40 -15 17 7 17 8 -1 22 -11 8 -29 14 -40 14
-20 0 -20 0 1 -21z"/>
</g>
<g id="part-5" class="char-part">
  <path d="M543 183 c-3 -10 -15 -29 -27 -42 l-21 -25 31 22 c17 12 34 19 38 15
3 -3 6 -1 6 5 0 7 -5 12 -11 12 -5 0 -7 5 -4 10 4 6 11 7 17 4 7 -4 8 -2 4 4
-10 17 -26 15 -33 -5z"/>
  <path d="M598 128 c5 -5 16 -8 23 -6 8 3 3 7 -10 11 -17 4 -21 3 -13 -5z"/>
</g>
</g>
</svg>