<?xml version="1.0" standalone="no"?>
<!DOCTYPE svg PUBLIC "-//W3C//DTD SVG 20010904//EN"
 "http://www.w3.org/TR/2001/REC-SVG-20010904/DTD/svg10.dtd">
<svg version="1.0" xmlns="http://www.w3.org/2000/svg"
 width="96.000000pt" height="68.000000pt" viewBox="0 0 96.000000 68.000000"
 preserveAspectRatio="xMidYMid meet">
<metadata>
Created by potrace 1.16, written by Peter Selinger 2001-2019
Combined from part_0.svg through part_5.svg with named groups
</metadata>
<g transform="translate(0.000000,68.000000) scale(0.100000,-0.100000)" fill="#000000" stroke="none">
<g id="part-0" class="char-part">
  <path d="M265 543 c-10 -26 -38 -66 -62 -89 -67 -65 -55 -95 32 -76 25 5 45 6
45 2 0 -4 -27 -33 -59 -63 -57 -53 -59 -55 -38 -66 18 -9 30 -8 62 8 70 33
122 46 139 32 23 -19 29 16 6 39 -24 24 -52 26 -48 4 2 -11 -9 -21 -32 -30
-78 -28 -77 -16 8 64 45 42 82 84 82 92 0 8 -9 21 -20 28 -18 11 -21 9 -34
-22 -8 -18 -18 -36 -22 -39 -17 -10 -94 -19 -94 -10 0 4 25 35 55 68 56 62 67
88 39 99 -31 12 -42 5 -59 -41z"/>
  <path d="M580 484 c-25 -7 -64 -13 -87 -13 -44 -1 -58 -15 -25 -23 11 -3 41
-2 68 3 94 15 97 14 91 -28 -9 -54 -25 -64 -111 -70 -71 -6 -90 -13 -66 -28 6
-3 10 -43 10 -89 0 -94 7 -106 75 -125 50 -14 178 -14 226 -1 20 6 44 19 54
30 17 19 18 23 3 48 -8 15 -19 41 -23 57 l-8 30 -11 -45 c-18 -67 -57 -90
-155 -90 -124 0 -141 19 -126 137 6 52 7 53 39 53 62 0 127 13 123 24 -5 14
26 78 50 101 16 17 16 18 -2 31 -22 17 -64 16 -125 -2z"/>
  <path d="M347 226 c19 -26 50 -40 58 -25 9 13 -32 49 -55 49 -20 0 -20 -1 -3
-24z"/>
  <path d="M240 212 c1 -18 41 -54 55 -48 12 4 23 36 12 36 -1 0 -17 4 -35 9
-17 5 -32 7 -32 3z"/>
  <path d="M116 183 c-7 -7 45 -81 62 -88 33 -13 44 31 14 58 -21 19 -68 38 -76
30z"/>
</g>
<g id="part-1" class="char-part">
  <path d="M266 536 c-15 -30 -46 -73 -69 -95 -38 -37 -40 -42 -26 -57 14 -13
23 -14 60 -4 73 20 76 24 29 29 l-45 6 63 67 c34 37 62 72 62 77 0 9 -31 31
-43 31 -3 0 -17 -24 -31 -54z"/>
</g>
<g id="part-2" class="char-part">
  <path d="M332 238 c2 -6 16 -21 31 -32 22 -16 29 -17 40 -7 10 10 7 16 -12 32
-26 21 -65 26 -59 7z"/>
  <path d="M240 215 c0 -14 34 -55 46 -55 20 0 28 21 13 35 -16 15 -59 30 -59
20z"/>
  <path d="M110 185 c0 -21 64 -95 81 -95 29 0 22 48 -11 71 -28 19 -70 34 -70
24z"/>
</g>
<g id="part-3" class="char-part">
  <path d="M570 484 c-25 -7 -59 -13 -77 -13 -17 -1 -34 -5 -38 -10 -10 -16 30
-22 85 -11 95 18 104 12 79 -57 -9 -28 -15 -31 -72 -37 -89 -10 -112 -17 -95
-27 7 -5 27 -7 43 -4 17 2 61 7 98 10 45 5 67 11 64 18 -5 14 17 61 45 97 18
23 18 25 2 37 -22 16 -74 15 -134 -3z"/>
</g>
<g id="part-4" class="char-part">
  <path d="M460 241 c0 -97 6 -108 69 -130 42 -14 183 -14 232 -1 20 6 44 19 54
30 17 19 17 22 -6 70 l-24 51 -11 -38 c-17 -59 -60 -83 -151 -83 -48 0 -85 6
-105 16 l-31 16 6 73 c5 66 3 74 -14 78 -18 5 -19 -1 -19 -82z"/>
</g>
</g>
</svg>