<?xml version="1.0" standalone="no"?>
<!DOCTYPE svg PUBLIC "-//W3C//DTD SVG 20010904//EN"
 "http://www.w3.org/TR/2001/REC-SVG-20010904/DTD/svg10.dtd">
<svg version="1.0" xmlns="http://www.w3.org/2000/svg"
 width="96.000000pt" height="68.000000pt" viewBox="0 0 96.000000 68.000000"
 preserveAspectRatio="xMidYMid meet">
<metadata>
Created by potrace 1.16, written by Peter Selinger 2001-2019
Combined from part_0.svg through part_5.svg with named groups
</metadata>
<g transform="translate(0.000000,68.000000) scale(0.100000,-0.100000)" fill="#000000" stroke="none">
<g id="part-0" class="char-part">
  <path d="M456 623 c-3 -3 4 -28 15 -56 31 -77 28 -80 -81 -94 -52 -7 -116 -16
-142 -19 -27 -4 -48 -10 -48 -15 0 -5 6 -9 14 -9 22 0 29 -35 21 -109 -8 -79
-40 -154 -85 -199 -18 -18 -30 -35 -28 -38 9 -8 90 58 95 77 3 10 9 19 14 19
5 0 12 15 17 32 7 30 13 34 57 41 72 12 75 9 75 -78 l0 -75 -27 6 -28 7 24
-27 c51 -54 75 -20 68 95 -3 44 -2 81 2 83 3 2 29 5 56 7 28 1 57 7 65 13 8 6
12 7 8 2 -4 -4 4 -26 18 -47 l25 -40 -58 -61 c-47 -49 -53 -59 -33 -53 14 4
46 23 72 41 47 33 48 33 60 14 25 -39 127 -102 175 -108 l46 -5 -7 29 c-4 16
-11 50 -15 76 -10 63 -15 66 -30 18 -6 -22 -18 -40 -25 -40 -15 0 -96 56 -113
79 -9 13 -4 30 29 90 39 70 40 75 23 88 -33 24 -52 16 -59 -24 -4 -21 -12 -51
-20 -68 l-13 -30 -21 41 c-17 33 -52 146 -52 168 0 3 27 6 59 6 33 0 62 4 66
9 9 16 -30 31 -79 31 l-46 0 0 49 c0 28 -5 53 -11 57 -17 10 -77 22 -83 17z
m65 -248 c10 -38 16 -71 14 -73 -2 -2 -33 -5 -69 -8 -64 -4 -66 -3 -62 19 1
12 9 23 17 24 60 8 89 15 89 23 0 5 -22 6 -50 4 -48 -5 -50 -4 -50 21 0 14 -4
25 -9 25 -5 0 -16 3 -24 6 -12 4 -14 -6 -9 -64 4 -66 3 -69 -19 -75 -13 -4
-37 -7 -52 -7 -26 0 -28 3 -23 28 3 15 6 50 8 77 l3 50 85 11 c135 19 131 20
151 -61z"/>
  <path d="M620 574 c51 -63 100 -83 100 -39 0 28 -18 40 -75 51 -38 7 -39 6
-25 -12z"/>
  <path d="M460 212 c0 -14 41 -53 53 -49 23 7 17 26 -12 41 -34 18 -41 19 -41
8z"/>
  <path d="M291 187 c-5 -13 -16 -29 -25 -36 -9 -7 -16 -18 -16 -23 0 -13 31 6
63 38 21 21 24 29 15 36 -21 12 -28 10 -37 -15z"/>
</g>
<g id="part-1" class="char-part">
  <path d="M460 610 c0 -6 6 -23 14 -38 7 -15 17 -41 20 -58 l7 -32 -58 -6
c-145 -17 -153 -19 -153 -32 0 -14 -1 -14 148 5 34 4 64 5 66 2 2 -3 16 -49
30 -101 15 -52 34 -105 42 -117 23 -36 17 -48 -41 -99 -30 -26 -53 -49 -51
-52 6 -5 73 34 103 61 l22 20 45 -41 c54 -50 115 -82 156 -82 l31 0 -7 47 c-4
26 -10 59 -14 73 -7 23 -8 23 -15 -13 -4 -21 -14 -41 -22 -44 -15 -6 -77 34
-114 73 l-24 25 40 75 c39 73 40 76 20 90 -27 20 -39 13 -46 -27 -3 -19 -13
-50 -21 -69 l-16 -35 -30 65 c-17 36 -34 86 -37 113 l-7 47 55 0 c31 0 58 4
62 9 10 17 -37 33 -81 28 l-44 -5 0 54 c0 49 -2 55 -26 64 -33 13 -54 13 -54
0z"/>
  <path d="M620 582 c0 -16 78 -74 90 -67 20 12 10 43 -17 53 -51 19 -73 23 -73
14z"/>
</g>
<g id="part-2" class="char-part">
  <path d="M238 453 c-21 -2 -38 -6 -38 -9 0 -2 10 -14 21 -25 19 -19 21 -28 15
-83 -10 -94 -33 -150 -83 -206 -48 -53 -48 -59 -5 -36 74 39 117 121 132 252
12 107 12 114 3 112 -5 -1 -25 -3 -45 -5z"/>
</g>
<g id="part-3" class="char-part">
  <path d="M364 389 c3 -17 6 -49 6 -70 0 -47 25 -54 33 -9 5 25 11 30 34 30 41
0 74 11 67 22 -3 5 -25 6 -50 2 -42 -6 -44 -5 -44 19 0 23 -16 37 -42 37 -6 0
-8 -12 -4 -31z"/>
</g>
<g id="part-4" class="char-part">
  <path d="M375 282 c-55 -8 -102 -17 -104 -19 -15 -12 20 -13 101 -3 191 23
185 22 163 31 -26 10 -42 9 -160 -9z"/>
</g>
<g id="part-5" class="char-part">
  <path d="M391 251 c-8 -5 -9 -11 -3 -15 6 -3 9 -22 6 -41 -2 -18 0 -36 5 -39
5 -4 9 18 8 49 -1 30 -2 55 -2 55 0 0 -6 -4 -14 -9z"/>
  <path d="M304 198 c-4 -7 -14 -24 -23 -37 -15 -23 -15 -24 7 -12 12 7 22 21
22 34 0 18 2 19 10 7 6 -9 10 -10 10 -3 0 18 -18 25 -26 11z"/>
  <path d="M488 188 c12 -12 24 -19 27 -16 8 7 -23 38 -38 38 -6 0 -2 -10 11
-22z"/>
  <path d="M385 108 c-4 -18 -9 -27 -12 -20 -5 14 -23 16 -23 3 0 -5 10 -13 22
-17 15 -4 25 -1 35 12 15 21 17 38 3 29 -6 -3 -7 1 -4 9 3 9 2 16 -4 16 -5 0
-13 -15 -17 -32z"/>
</g>
</g>
</svg>