<?xml version="1.0" standalone="no"?>
<!DOCTYPE svg PUBLIC "-//W3C//DTD SVG 20010904//EN"
 "http://www.w3.org/TR/2001/REC-SVG-20010904/DTD/svg10.dtd">
<svg version="1.0" xmlns="http://www.w3.org/2000/svg"
 width="96.000000pt" height="68.000000pt" viewBox="0 0 96.000000 68.000000"
 preserveAspectRatio="xMidYMid meet">
<metadata>
Created by potrace 1.16, written by Peter Selinger 2001-2019
Combined from part_0.svg through part_5.svg with named groups
</metadata>
<g transform="translate(0.000000,68.000000) scale(0.100000,-0.100000)" fill="#000000" stroke="none">
<g id="part-0" class="char-part">
  <path d="M335 554 c-41 -9 -90 -12 -119 -8 l-49 6 9 -28 c11 -37 11 -113 0
-185 -10 -68 -3 -73 80 -53 32 7 81 14 108 14 l49 0 -5 -65 c-7 -84 -27 -115
-74 -115 l-36 0 24 -29 c25 -32 44 -37 69 -18 25 19 39 53 54 130 7 40 17 80
20 89 9 22 -29 38 -90 38 -36 0 -43 3 -40 18 2 9 4 20 4 25 1 4 19 7 41 7 22
0 40 5 40 10 0 6 -18 10 -41 10 -36 0 -40 2 -37 23 2 18 11 23 48 28 33 4 40
7 27 13 -9 5 -29 6 -42 4 -22 -5 -25 -2 -25 22 0 25 4 28 45 34 51 8 64 20 36
35 -11 6 -21 11 -23 10 -2 0 -34 -7 -73 -15z m-35 -68 c0 -23 -16 -36 -46 -36
-9 0 -14 11 -14 30 0 27 3 30 30 30 25 0 30 -4 30 -24z m-2 -74 c3 -17 -2 -22
-17 -22 -12 0 -24 -1 -28 -2 -14 -3 -15 34 -1 43 21 14 43 6 46 -19z m0 -64
c-2 -18 -11 -24 -35 -26 -30 -3 -33 -1 -33 22 0 23 4 26 36 26 31 0 35 -3 32
-22z"/>
  <path d="M550 507 c0 -7 16 -29 36 -49 l35 -37 -70 -7 c-84 -8 -94 -24 -16
-24 49 0 55 -2 61 -24 12 -48 2 -61 -49 -64 -26 -2 -47 -7 -47 -13 0 -10 27
-13 73 -10 26 2 27 1 27 -52 l0 -54 -37 -7 c-21 -3 -53 -6 -70 -6 -18 0 -33
-4 -33 -9 0 -15 81 -24 110 -13 33 13 23 12 167 12 121 0 126 1 110 17 -15 15
-33 18 -107 15 l-90 -2 0 50 c0 54 -4 51 83 65 54 9 36 25 -28 25 l-53 0 2 33
c2 17 -2 35 -8 39 -6 4 5 8 24 8 19 0 58 6 85 14 65 18 38 31 -44 22 -55 -6
-58 -5 -57 15 1 24 -35 54 -76 63 -20 4 -28 2 -28 -7z"/>
  <path d="M320 263 c1 -13 38 -53 49 -53 17 0 13 18 -9 40 -20 20 -40 26 -40
13z"/>
  <path d="M100 211 c-13 -40 -9 -71 9 -71 13 0 31 65 24 90 -8 30 -18 24 -33
-19z"/>
  <path d="M180 238 c0 -20 30 -59 40 -53 13 8 -1 45 -21 56 -14 7 -19 6 -19 -3z"/>
  <path d="M264 234 c3 -9 6 -20 6 -25 0 -5 7 -9 15 -9 18 0 20 21 3 38 -17 17
-31 15 -24 -4z"/>
</g>
<g id="part-1" class="char-part">
  <path d="M340 549 c-19 -5 -65 -10 -102 -10 -63 -1 -83 -9 -58 -24 12 -8 13
-126 0 -180 -5 -23 -5 -44 0 -49 5 -5 35 -4 72 3 35 6 84 12 110 14 32 1 48 6
48 15 0 10 -11 12 -42 8 -24 -3 -65 -7 -92 -8 l-49 -3 2 95 c1 52 4 97 7 99 2
2 25 6 51 7 78 5 144 18 146 29 3 13 -49 16 -93 4z"/>
</g>
<g id="part-2" class="char-part">
  <path d="M320 263 c1 -13 38 -53 49 -53 19 0 12 28 -11 44 -24 17 -38 20 -38
9z"/>
  <path d="M102 217 c-18 -49 -16 -79 5 -75 19 4 36 53 28 86 -8 31 -19 27 -33
-11z"/>
  <path d="M180 241 c0 -6 5 -22 12 -36 12 -27 44 -36 34 -9 -3 9 -6 20 -6 24 0
5 -9 14 -20 20 -13 7 -20 7 -20 1z"/>
  <path d="M259 232 c5 -10 17 -25 26 -32 15 -12 16 -11 13 16 -2 22 -9 30 -26
32 -20 3 -22 1 -13 -16z"/>
</g>
<g id="part-3" class="char-part">
  <path d="M554 494 c10 -16 27 -37 38 -47 12 -10 19 -20 16 -22 -2 -3 -32 -8
-66 -11 -34 -4 -62 -11 -62 -15 0 -20 285 3 307 24 18 18 -20 24 -83 13 -40
-7 -41 -6 -47 24 -7 31 -21 41 -86 55 l-35 7 18 -28z"/>
</g>
<g id="part-4" class="char-part">
  <path d="M598 345 l4 -45 -38 0 c-47 0 -84 -19 -44 -21 14 -1 37 -1 53 0 26 2
27 1 27 -52 0 -53 -1 -55 -31 -61 -17 -3 -50 -6 -72 -6 -29 0 -38 -3 -30 -11
12 -12 28 -12 231 -3 83 3 152 10 152 14 0 17 -59 27 -130 22 l-75 -4 4 52 c3
56 3 55 74 65 68 9 50 29 -20 22 l-54 -6 3 37 c3 35 1 37 -27 40 -30 3 -30 3
-27 -43z"/>
</g>
</g>
</svg>