<?xml version="1.0" standalone="no"?>
<!DOCTYPE svg PUBLIC "-//W3C//DTD SVG 20010904//EN"
 "http://www.w3.org/TR/2001/REC-SVG-20010904/DTD/svg10.dtd">
<svg version="1.0" xmlns="http://www.w3.org/2000/svg"
 width="96.000000pt" height="68.000000pt" viewBox="0 0 96.000000 68.000000"
 preserveAspectRatio="xMidYMid meet">
<metadata>
Created by potrace 1.16, written by Peter Selinger 2001-2019
Combined from part_0.svg through part_5.svg with named groups
</metadata>
<g transform="translate(0.000000,68.000000) scale(0.100000,-0.100000)" fill="#000000" stroke="none">
<g id="part-0" class="char-part">
  <path d="M557 583 c-4 -3 -7 -13 -7 -20 0 -8 -14 -35 -31 -59 -27 -39 -35 -45
-62 -42 -24 2 -31 -1 -28 -12 2 -8 7 -63 10 -122 6 -110 12 -128 33 -111 21
17 217 26 235 11 30 -24 41 13 39 133 -2 144 2 142 -178 110 -27 -4 -48 -5
-48 -2 0 3 21 26 46 52 26 26 43 52 40 58 -8 12 -39 15 -49 4z m137 -160 c8
-53 8 -151 -1 -156 -5 -3 -54 -8 -110 -12 l-103 -8 0 96 0 96 48 6 c26 4 52 8
57 10 6 2 31 4 56 4 46 1 46 1 53 -36z"/>
  <path d="M563 410 c-3 -11 -12 -20 -20 -20 -9 0 -13 -6 -10 -14 3 -8 -1 -20
-9 -27 -8 -6 -12 -14 -9 -17 3 -3 13 2 24 12 16 14 20 15 30 2 16 -19 8 -32
-33 -57 -41 -25 -27 -24 29 2 44 21 46 21 65 4 19 -17 20 -17 27 1 4 10 2 19
-5 22 -19 6 -14 40 8 52 30 16 14 32 -29 28 -29 -2 -35 1 -33 15 4 24 -29 22
-35 -3z m62 -40 c-8 -13 -35 -13 -55 0 -11 7 -5 10 23 10 23 0 36 -4 32 -10z"/>
  <path d="M218 501 c-105 -17 -125 -26 -84 -37 34 -8 37 -25 34 -168 l-3 -119
-32 -11 c-45 -16 -50 -24 -19 -36 24 -9 38 -4 112 36 46 25 84 42 85 37 1 -4
0 -42 -1 -84 -1 -78 9 -104 33 -80 8 8 11 68 9 194 -1 100 1 198 6 217 7 30
12 35 40 38 34 3 42 16 16 26 -25 9 -91 5 -196 -13z m93 -36 c5 -61 6 -60 -44
-65 l-47 -6 0 37 c0 35 2 38 33 42 17 2 38 5 45 5 6 1 13 -5 13 -13z m3 -112
c-6 -33 0 -29 -51 -37 -42 -6 -43 -6 -43 23 0 28 3 30 43 34 23 2 45 4 49 5 4
1 4 -10 2 -25z m2 -97 c1 -23 -5 -31 -32 -42 -54 -23 -64 -19 -64 25 0 43 10
50 65 48 25 -2 29 -6 31 -31z"/>
  <path d="M566 169 c27 -30 54 -43 66 -31 15 15 -27 52 -59 52 -26 0 -26 0 -7
-21z"/>
  <path d="M725 183 c30 -28 86 -63 98 -63 25 0 28 29 4 44 -25 16 -118 33 -102
19z"/>
  <path d="M460 175 c0 -19 44 -86 69 -108 53 -45 167 -57 245 -27 39 14 31 35
-24 64 -60 31 -64 32 -50 6 17 -31 4 -40 -57 -40 -74 0 -118 22 -140 71 -10
21 -24 39 -30 39 -7 0 -13 -2 -13 -5z"/>
  <path d="M395 121 c-10 -23 -15 -48 -11 -58 7 -17 9 -16 27 6 19 23 27 91 11
91 -5 0 -17 -18 -27 -39z"/>
</g>
<g id="part-1" class="char-part">
  <path d="M237 500 c-60 -10 -111 -21 -114 -24 -3 -3 6 -8 20 -11 24 -6 25 -8
32 -145 5 -113 9 -138 21 -133 9 3 14 21 14 54 0 47 1 49 28 49 37 0 72 11 72
22 0 5 -22 6 -50 2 l-50 -7 0 30 c0 29 3 31 50 37 28 4 50 12 50 18 0 7 -16 8
-47 4 l-48 -6 0 39 c0 45 -1 44 130 57 71 6 83 10 73 19 -14 14 -82 12 -181
-5z"/>
</g>
<g id="part-2" class="char-part">
  <path d="M310 354 l0 -133 -37 -10 c-101 -28 -183 -56 -183 -64 0 -4 11 -12
24 -18 20 -10 36 -5 110 33 l86 45 0 -83 c0 -81 10 -108 32 -86 7 7 11 90 11
229 0 216 0 218 -21 219 -21 1 -22 -2 -22 -132z"/>
</g>
<g id="part-3" class="char-part">
  <path d="M534 533 c-16 -32 -30 -62 -33 -68 -2 -5 23 15 56 45 44 40 58 58 50
68 -21 27 -45 12 -73 -45z"/>
</g>
<g id="part-4" class="char-part">
  <path d="M595 474 c-38 -7 -92 -13 -120 -12 -39 1 -49 -2 -46 -13 2 -8 7 -62
10 -121 6 -110 12 -128 33 -111 21 17 216 27 234 12 30 -24 39 6 40 127 0 113
0 116 -24 125 -28 11 -38 10 -127 -7z m99 -46 c3 -17 6 -61 6 -98 l0 -67 -77
-7 c-42 -3 -91 -6 -110 -6 l-33 0 0 95 0 94 33 6 c81 14 143 21 158 17 9 -2
20 -17 23 -34z"/>
</g>
<g id="part-5" class="char-part">
  <path d="M595 170 c3 -6 0 -10 -7 -10 -9 0 -9 -3 2 -10 21 -14 30 -12 30 4 0
8 -7 17 -16 20 -8 3 -12 2 -9 -4z"/>
  <path d="M758 165 c12 -9 27 -13 34 -9 6 4 8 3 4 -4 -3 -6 -2 -13 4 -17 5 -3
10 0 11 7 0 7 4 4 8 -6 7 -18 8 -18 14 -2 7 17 -7 26 -68 40 -30 7 -30 7 -7
-9z"/>
  <path d="M416 144 c-3 -9 -3 -21 1 -26 3 -7 1 -8 -5 -4 -14 9 -33 -26 -23 -43
12 -18 33 12 38 54 4 37 -1 45 -11 19z"/>
  <path d="M713 106 c17 -13 17 -15 -5 -30 -12 -9 -28 -16 -35 -16 -7 0 -13 -6
-13 -12 0 -10 -2 -10 -9 0 -4 8 -11 13 -15 13 -33 -5 -76 1 -71 9 6 9 2 12
-27 14 -7 1 -16 6 -20 11 -5 6 -8 6 -8 -1 0 -10 40 -53 44 -46 0 2 15 -2 31
-8 26 -10 102 -9 175 3 22 4 40 17 40 28 0 6 -5 7 -11 3 -6 -3 -14 -3 -18 2
-8 12 -58 44 -68 44 -4 0 0 -7 10 -14z"/>
</g>
</g>
</svg>