<?xml version="1.0" standalone="no"?>
<!DOCTYPE svg PUBLIC "-//W3C//DTD SVG 20010904//EN"
 "http://www.w3.org/TR/2001/REC-SVG-20010904/DTD/svg10.dtd">
<svg version="1.0" xmlns="http://www.w3.org/2000/svg"
 width="96.000000pt" height="68.000000pt" viewBox="0 0 96.000000 68.000000"
 preserveAspectRatio="xMidYMid meet">
<metadata>
Created by potrace 1.16, written by Peter Selinger 2001-2019
Combined from part_0.svg through part_5.svg with named groups
</metadata>
<g transform="translate(0.000000,68.000000) scale(0.100000,-0.100000)" fill="#000000" stroke="none">
<g id="part-0" class="char-part">
  <path d="M677 612 c-3 -4 -8 -24 -12 -45 -6 -33 -11 -37 -39 -38 l-31 -2 28
-4 c25 -4 28 -8 23 -31 l-6 -27 24 28 c22 23 33 27 81 27 30 0 55 4 55 10 0
13 -45 24 -70 17 -24 -6 -37 10 -21 26 6 6 11 14 11 19 0 11 -38 29 -43 20z"/>
  <path d="M257 558 c5 -24 8 -68 8 -98 l0 -55 -67 -10 c-37 -5 -70 -13 -74 -17
-11 -12 44 -21 86 -14 22 3 40 3 40 0 0 -20 -52 -87 -109 -141 -69 -66 -68
-78 2 -41 23 12 45 21 49 20 5 -1 7 2 5 6 -1 5 13 25 31 46 l32 37 0 -60 c0
-33 -5 -82 -10 -109 -12 -54 -1 -102 24 -102 27 0 36 37 36 156 0 113 1 116
18 101 25 -22 39 -21 45 3 5 21 -17 40 -47 40 -11 0 -16 9 -16 30 0 26 4 30
28 30 15 0 33 4 41 9 21 13 3 31 -31 31 l-31 0 6 75 c5 75 5 75 -23 90 -45 24
-51 20 -43 -27z"/>
  <path d="M450 557 c0 -7 6 -19 12 -25 17 -17 -5 -32 -47 -32 -28 -1 -29 -2
-11 -15 13 -10 25 -11 44 -4 21 8 29 7 38 -5 15 -21 24 -20 24 2 0 10 12 23
28 30 l27 12 -27 -5 c-23 -4 -28 -2 -28 14 0 11 -9 25 -19 31 -26 14 -41 13
-41 -3z"/>
  <path d="M543 436 c-89 -15 -104 -26 -35 -26 50 0 51 -1 57 -33 4 -18 5 -51 3
-72 l-3 -40 -80 -8 c-44 -5 -91 -11 -105 -14 -45 -11 38 -19 105 -10 69 9 84
5 81 -19 -3 -23 -29 -32 -88 -33 -27 -1 -48 -5 -48 -10 0 -17 36 -22 81 -12
24 5 47 8 51 5 4 -3 8 -39 8 -80 0 -68 9 -90 26 -63 3 6 9 43 13 82 l6 72 87
1 c49 0 88 4 89 9 1 16 -34 22 -108 17 -58 -4 -73 -2 -73 9 0 31 18 37 124 43
110 6 126 10 112 24 -7 6 -40 6 -196 -1 l-35 -2 0 72 0 71 53 7 c28 3 52 11
52 16 0 12 -88 10 -177 -5z"/>
  <path d="M710 395 c0 -25 -11 -34 -44 -39 -30 -4 -29 -16 2 -16 26 0 32 -4 32
-22 l0 -23 18 22 c11 14 35 25 67 31 l50 9 -37 8 c-22 4 -38 13 -38 21 0 12
-29 34 -44 34 -3 0 -6 -11 -6 -25z"/>
  <path d="M436 382 c-3 -3 -1 -11 5 -18 15 -18 3 -34 -26 -34 -13 0 -27 -4 -30
-10 -6 -10 18 -14 62 -11 14 2 24 -5 28 -19 8 -25 25 -17 18 9 -3 13 2 21 19
26 23 7 23 8 2 12 -12 2 -24 12 -27 22 -4 18 -41 34 -51 23z"/>
</g>
<g id="part-1" class="char-part">
  <path d="M256 573 c4 -10 10 -53 12 -95 l3 -76 -58 -7 c-88 -10 -95 -19 -20
-25 l68 -5 -31 -50 c-17 -27 -57 -74 -88 -103 -45 -41 -51 -50 -30 -42 46 16
76 40 120 94 l41 51 -7 -67 c-3 -38 -9 -96 -12 -130 -4 -49 -2 -68 10 -83 25
-32 36 -3 36 95 0 47 3 102 6 122 6 32 9 36 25 28 26 -14 39 -12 39 6 0 8 -13
20 -30 25 -24 9 -30 17 -30 40 0 24 5 29 35 35 42 8 41 29 0 29 -36 1 -37 6
-27 83 8 58 7 64 -12 78 -30 21 -60 19 -50 -3z"/>
</g>
<g id="part-2" class="char-part">
  <path d="M666 575 c-7 -42 -9 -45 -39 -46 -32 -2 -32 -2 -3 -6 24 -4 27 -8 23
-29 -5 -31 0 -30 25 1 16 21 28 25 68 25 27 0 52 4 55 10 8 13 -39 24 -70 16
-29 -7 -29 -6 -13 29 10 22 9 28 -3 36 -27 17 -37 9 -43 -36z"/>
  <path d="M455 544 c21 -32 7 -47 -37 -41 -30 4 -36 -4 -15 -22 9 -7 24 -8 46
-1 25 7 33 6 38 -6 8 -21 23 -17 23 6 0 13 7 20 19 20 11 0 23 5 27 11 5 9 -1
10 -20 5 -23 -6 -26 -3 -26 18 0 25 -16 36 -52 36 -20 0 -20 -1 -3 -26z"/>
</g>
<g id="part-3" class="char-part">
  <path d="M573 440 c-56 -9 -106 -19 -109 -23 -4 -4 23 -7 61 -7 73 0 195 19
195 31 0 14 -49 14 -147 -1z"/>
</g>
<g id="part-4" class="char-part">
  <path d="M568 301 c4 -123 6 -121 -90 -121 -27 0 -48 -4 -48 -9 0 -17 37 -22
81 -12 24 6 47 11 52 11 4 0 7 -36 7 -79 0 -124 26 -118 37 9 3 36 11 68 17
72 6 4 49 8 96 8 70 1 81 3 65 12 -12 7 -52 11 -99 9 l-79 -2 6 99 c5 85 4
101 -9 106 -37 14 -39 8 -36 -103z"/>
</g>
</g>
</svg>