<?xml version="1.0" standalone="no"?>
<!DOCTYPE svg PUBLIC "-//W3C//DTD SVG 20010904//EN"
 "http://www.w3.org/TR/2001/REC-SVG-20010904/DTD/svg10.dtd">
<svg version="1.0" xmlns="http://www.w3.org/2000/svg"
 width="96.000000pt" height="68.000000pt" viewBox="0 0 96.000000 68.000000"
 preserveAspectRatio="xMidYMid meet">
<metadata>
Created by potrace 1.16, written by Peter Selinger 2001-2019
Combined from part_0.svg through part_5.svg with named groups
</metadata>
<g transform="translate(0.000000,68.000000) scale(0.100000,-0.100000)" fill="#000000" stroke="none">
<g id="part-0" class="char-part">
  <path d="M610 559 c-19 -5 -63 -10 -98 -12 l-63 -4 -2 -159 c-2 -158 -2 -159
21 -162 12 -2 22 -7 22 -12 0 -15 -62 -81 -104 -112 -39 -28 -34 -38 7 -17 17
9 123 83 167 116 2 2 -2 8 -10 13 -17 10 7 17 90 23 38 3 58 1 65 -9 7 -9 15
-11 25 -4 23 14 34 320 12 338 -18 14 -80 14 -132 1z m78 -67 c2 -23 0 -41 -5
-40 -4 1 -42 -2 -83 -7 -41 -5 -83 -9 -92 -10 -15 -2 -18 6 -18 41 l0 42 53
10 c28 6 72 9 97 9 l45 -2 3 -43z m12 -92 c0 -36 1 -36 -117 -47 l-93 -8 0 32
c0 31 1 32 58 38 31 3 66 7 77 9 66 10 75 7 75 -24z m-2 -97 c-3 -33 -7 -38
-28 -39 -14 -1 -62 -5 -107 -9 -53 -4 -83 -3 -83 3 0 5 3 23 6 39 6 28 7 29
77 31 39 2 73 5 76 7 2 3 17 5 33 5 28 0 29 -2 26 -37z"/>
  <path d="M285 448 c-11 -7 -48 -12 -82 -12 -35 0 -63 -1 -63 -3 0 -2 6 -14 14
-26 8 -12 21 -48 30 -80 17 -68 21 -74 39 -59 7 6 43 14 79 18 66 7 67 7 62
34 -4 17 2 43 16 70 21 42 21 44 4 57 -22 16 -72 16 -99 1z m25 -67 c0 -45
-20 -71 -55 -71 -20 0 -26 8 -35 41 -13 48 -8 56 40 62 19 2 38 5 43 5 4 1 7
-16 7 -37z"/>
  <path d="M642 200 c6 -19 121 -130 134 -130 28 0 14 48 -23 80 -47 41 -120 74
-111 50z"/>
</g>
<g id="part-1" class="char-part">
  <path d="M280 444 c-25 -9 -66 -13 -93 -11 -44 4 -46 3 -33 -12 9 -9 22 -45
30 -80 17 -71 22 -79 38 -63 7 7 35 12 64 12 62 0 92 9 73 21 -10 6 -8 20 10
64 13 32 20 60 15 65 -17 17 -60 18 -104 4z m35 -71 c-9 -62 -10 -63 -54 -63
-38 0 -38 1 -48 49 l-10 50 31 4 c17 2 44 5 60 5 l28 2 -7 -47z"/>
</g>
<g id="part-2" class="char-part">
  <path d="M570 554 c-41 -7 -86 -11 -100 -8 l-25 5 0 -131 c0 -128 0 -130 23
-130 15 0 22 6 22 18 0 14 7 18 33 18 17 0 65 3 105 7 69 8 72 7 72 -12 0 -15
6 -21 24 -21 23 0 24 2 28 123 5 102 3 124 -10 135 -19 15 -73 14 -172 -4z
m118 -63 c3 -34 0 -42 -10 -38 -8 2 -49 -1 -92 -9 -44 -7 -83 -11 -87 -8 -5 3
-9 23 -9 44 0 39 0 39 48 45 26 4 52 8 57 10 6 2 28 3 50 2 40 -2 40 -2 43
-46z m10 -93 l-3 -33 -80 -7 c-44 -4 -90 -10 -102 -13 -21 -5 -23 -2 -23 29
l0 34 73 10 c39 5 87 10 105 11 32 1 33 -1 30 -31z"/>
</g>
<g id="part-3" class="char-part">
  <path d="M700 280 c0 -16 -7 -20 -37 -20 -21 0 -69 -3 -106 -7 -64 -6 -68 -5
-74 16 -3 12 -13 21 -24 21 -14 0 -19 -7 -19 -29 0 -46 14 -49 135 -35 100 11
112 11 128 -4 18 -16 20 -15 33 3 8 10 14 31 14 47 0 23 -4 28 -25 28 -18 0
-25 -5 -25 -20z"/>
</g>
<g id="part-4" class="char-part">
  <path d="M485 201 c-6 -19 -80 -92 -125 -123 l-25 -18 27 10 c32 11 97 51 153
94 22 17 42 32 45 34 9 6 -25 22 -47 22 -13 0 -24 -8 -28 -19z"/>
  <path d="M695 140 c38 -38 75 -70 82 -70 20 0 15 44 -7 68 -22 24 -111 72
-132 72 -7 0 19 -31 57 -70z"/>
</g>
</g>
</svg>