<?xml version="1.0" standalone="no"?>
<!DOCTYPE svg PUBLIC "-//W3C//DTD SVG 20010904//EN"
 "http://www.w3.org/TR/2001/REC-SVG-20010904/DTD/svg10.dtd">
<svg version="1.0" xmlns="http://www.w3.org/2000/svg"
 width="96.000000pt" height="68.000000pt" viewBox="0 0 96.000000 68.000000"
 preserveAspectRatio="xMidYMid meet">
<metadata>
Created by potrace 1.16, written by Peter Selinger 2001-2019
Combined from part_0.svg through part_5.svg with named groups
</metadata>
<g transform="translate(0.000000,68.000000) scale(0.100000,-0.100000)" fill="#000000" stroke="none">
<g id="part-0" class="char-part">
  <path d="M690 613 c-8 -118 9 -563 20 -563 18 0 23 47 31 264 4 126 11 241 14
255 5 23 1 30 -20 39 -30 14 -45 15 -45 5z"/>
  <path d="M286 551 c-3 -5 1 -22 9 -37 11 -23 12 -50 6 -129 -8 -108 -26 -156
-82 -220 -27 -31 -29 -35 -12 -35 28 0 84 40 110 79 32 47 42 90 49 211 7 114
5 121 -48 134 -15 3 -29 2 -32 -3z"/>
  <path d="M495 363 c0 -183 5 -214 32 -181 6 7 13 90 15 185 5 168 5 172 -16
177 -12 3 -23 6 -26 6 -3 0 -5 -84 -5 -187z"/>
</g>
<g id="part-1" class="char-part">
  <path d="M296 533 c5 -10 9 -67 9 -128 -1 -99 -4 -115 -27 -160 -14 -28 -41
-66 -60 -84 -21 -22 -26 -32 -15 -27 10 3 23 6 27 6 5 0 26 15 46 32 56 49 75
103 85 236 8 104 7 116 -9 128 -9 7 -28 14 -41 14 -19 0 -22 -3 -15 -17z"/>
</g>
<g id="part-2" class="char-part">
  <path d="M495 363 c0 -169 2 -188 17 -191 23 -5 26 14 31 205 4 135 2 163 -10
167 -37 15 -38 10 -38 -181z"/>
</g>
<g id="part-3" class="char-part">
  <path d="M687 488 c5 -239 15 -438 23 -438 17 0 23 45 31 265 4 126 11 241 14
256 7 29 -14 49 -52 49 -17 0 -18 -10 -16 -132z"/>
</g>
</g>
</svg>