<?xml version="1.0" standalone="no"?>
<!DOCTYPE svg PUBLIC "-//W3C//DTD SVG 20010904//EN"
 "http://www.w3.org/TR/2001/REC-SVG-20010904/DTD/svg10.dtd">
<svg version="1.0" xmlns="http://www.w3.org/2000/svg"
 width="96.000000pt" height="68.000000pt" viewBox="0 0 96.000000 68.000000"
 preserveAspectRatio="xMidYMid meet">
<metadata>
Created by potrace 1.16, written by Peter Selinger 2001-2019
Combined from part_0.svg through part_5.svg with named groups
</metadata>
<g transform="translate(0.000000,68.000000) scale(0.100000,-0.100000)" fill="#000000" stroke="none">
<g id="part-0" class="char-part">
  <path d="M510 595 c-58 -7 -147 -14 -197 -14 -55 -1 -93 -5 -93 -11 0 -5 5
-10 10 -10 6 0 21 -25 35 -56 22 -49 28 -55 47 -51 13 3 67 9 121 12 105 8
114 3 81 -43 -19 -27 -14 -27 37 -1 25 12 39 25 36 34 -4 9 3 12 24 11 26 -1
34 6 59 49 16 28 29 54 30 58 0 8 -64 38 -77 36 -4 -1 -55 -7 -113 -14z m108
-57 c-3 -32 -4 -33 -54 -36 l-52 -3 17 35 c14 31 20 35 54 36 37 0 38 -1 35
-32z m-118 8 c0 -31 -13 -46 -40 -46 -17 0 -30 7 -34 18 -3 9 -9 23 -12 30 -4
9 7 12 40 12 33 0 46 -4 46 -14z m-112 -8 c7 -7 12 -20 12 -30 0 -14 -8 -18
-40 -18 -34 0 -42 4 -50 26 -6 14 -10 27 -10 30 0 10 77 3 88 -8z"/>
  <path d="M339 433 c15 -29 39 -46 56 -39 31 12 12 41 -33 51 -31 6 -33 5 -23
-12z"/>
  <path d="M530 384 c-47 -7 -131 -13 -188 -13 l-102 -1 14 -22 c8 -13 19 -42
26 -66 9 -33 15 -42 28 -38 9 3 89 8 177 10 l160 5 20 39 c11 21 26 46 33 55
11 13 10 17 -10 28 -32 17 -61 18 -158 3z m100 -41 c0 -48 -13 -57 -89 -61
l-71 -3 0 40 c0 44 0 45 103 49 56 3 57 3 57 -25z m-200 -28 l0 -45 -59 0
c-52 0 -59 2 -65 23 -14 52 -10 56 57 60 34 2 63 4 65 5 1 1 2 -18 2 -43z"/>
  <path d="M544 335 c-22 -34 -12 -41 25 -19 23 14 28 21 19 31 -15 19 -25 16
-44 -12z"/>
  <path d="M350 326 c0 -15 28 -42 35 -34 9 8 -5 36 -21 42 -8 3 -14 -1 -14 -8z"/>
  <path d="M478 224 c-3 -3 -36 -7 -73 -9 l-67 -4 0 -81 c-1 -84 11 -115 34 -92
7 7 41 12 84 12 64 0 73 -2 79 -20 8 -24 18 -25 39 -5 23 24 19 183 -6 196
-18 10 -81 12 -90 3z m62 -51 c0 -28 0 -28 -80 -31 -79 -2 -80 -2 -80 22 0 31
9 34 93 35 67 1 67 1 67 -26z m0 -73 l0 -30 -80 0 c-78 0 -80 1 -80 25 0 23 4
24 63 28 34 2 70 4 80 5 13 2 17 -5 17 -28z"/>
</g>
<g id="part-1" class="char-part">
  <path d="M515 589 c-33 -4 -113 -9 -177 -11 -110 -3 -115 -4 -98 -20 10 -9 24
-34 30 -55 16 -50 26 -59 44 -44 11 9 57 12 171 9 l155 -3 20 42 c11 23 24 44
30 48 17 10 12 21 -15 33 -29 13 -70 13 -160 1z m111 -24 c3 -8 2 -26 -3 -40
l-8 -26 -151 -6 c-141 -5 -151 -4 -156 13 -3 11 -9 27 -13 37 -6 15 1 17 71
18 44 1 111 5 149 9 39 4 78 8 88 8 10 1 20 -5 23 -13z"/>
</g>
<g id="part-2" class="char-part">
  <path d="M493 530 c0 -22 2 -40 5 -40 4 0 17 16 29 34 19 29 20 35 7 40 -31
12 -39 5 -41 -34z"/>
</g>
<g id="part-3" class="char-part">
  <path d="M520 438 c-7 -18 -15 -36 -17 -40 -3 -4 16 4 41 18 49 27 56 38 30
48 -29 11 -40 6 -54 -26z"/>
  <path d="M349 422 c23 -33 45 -41 57 -21 9 15 -15 36 -50 45 l-30 7 23 -31z"/>
</g>
<g id="part-4" class="char-part">
  <path d="M540 384 c-47 -7 -137 -13 -200 -14 -83 0 -110 -3 -98 -11 10 -5 25
-35 34 -65 13 -45 19 -54 33 -49 10 3 89 7 177 10 l158 4 19 38 c11 21 26 46
35 55 14 16 12 19 -21 33 -20 8 -40 15 -44 14 -4 -1 -46 -7 -93 -15z m90 -41
c0 -35 -14 -58 -37 -59 -10 -1 -76 -5 -148 -9 l-130 -7 -12 38 c-6 21 -11 39
-10 40 1 1 49 4 106 8 58 3 106 8 108 9 2 2 30 5 63 6 60 2 60 2 60 -26z"/>
</g>
<g id="part-5" class="char-part">
  <path d="M495 223 c-16 -3 -34 -9 -40 -15 -7 -7 5 -8 37 -4 41 6 48 4 58 -13
8 -16 8 -21 -1 -21 -8 0 -7 -5 2 -17 10 -11 10 -14 2 -9 -10 5 -13 -3 -13 -29
0 -26 3 -34 13 -29 9 6 8 3 -1 -8 -8 -9 -21 -14 -30 -12 -15 5 -15 4 1 -9 9
-8 17 -19 17 -26 0 -6 7 -11 17 -11 9 0 13 3 10 7 -4 3 1 11 10 18 14 10 15
19 5 56 -6 24 -8 57 -5 73 6 29 -16 58 -41 55 -6 -1 -24 -4 -41 -6z"/>
  <path d="M345 193 c4 -10 7 -26 7 -36 -1 -10 4 -16 11 -14 7 3 11 10 9 17 -2
7 5 21 14 31 19 21 6 27 -14 7 -9 -9 -12 -9 -12 0 0 7 -5 12 -11 12 -7 0 -8
-7 -4 -17z"/>
  <path d="M474 141 c-5 -5 -25 -11 -44 -14 -34 -4 -34 -4 7 -5 23 -1 45 3 48 9
9 14 1 21 -11 10z"/>
  <path d="M349 107 c-6 -12 -7 -31 -2 -43 6 -16 13 -19 33 -13 14 4 18 7 9 8
-23 1 -31 59 -10 64 13 4 13 5 -2 6 -9 0 -22 -9 -28 -22z"/>
  <path d="M440 59 c-23 -7 -23 -7 7 -8 17 -1 34 3 37 7 6 10 -10 11 -44 1z"/>
</g>
</g>
</svg>