<?xml version="1.0" standalone="no"?>
<!DOCTYPE svg PUBLIC "-//W3C//DTD SVG 20010904//EN"
 "http://www.w3.org/TR/2001/REC-SVG-20010904/DTD/svg10.dtd">
<svg version="1.0" xmlns="http://www.w3.org/2000/svg"
 width="96.000000pt" height="68.000000pt" viewBox="0 0 96.000000 68.000000"
 preserveAspectRatio="xMidYMid meet">
<metadata>
Created by potrace 1.16, written by Peter Selinger 2001-2019
Combined from part_0.svg through part_5.svg with named groups
</metadata>
<g transform="translate(0.000000,68.000000) scale(0.100000,-0.100000)" fill="#000000" stroke="none">
<g id="part-0" class="char-part">
  <path d="M525 629 c-27 -5 -96 -10 -152 -11 -57 -2 -103 -5 -103 -7 0 -2 8
-11 18 -20 10 -9 24 -38 32 -64 14 -53 28 -64 57 -48 11 5 70 13 131 17 99 6
112 9 107 24 -3 10 6 27 25 45 16 16 30 32 30 37 0 9 -67 39 -84 37 -6 -1 -33
-5 -61 -10z m40 -56 c-9 -35 -18 -41 -85 -48 -110 -13 -112 -13 -121 19 -5 17
-7 31 -5 33 4 4 140 20 185 22 31 1 33 0 26 -26z"/>
  <path d="M575 475 c-32 -10 -213 -34 -260 -35 l-30 0 0 -125 c1 -86 5 -129 13
-137 10 -10 15 -10 21 1 10 16 41 8 41 -11 0 -7 -27 -38 -61 -70 -33 -32 -56
-58 -50 -58 22 0 191 107 191 121 0 4 -10 11 -22 15 -20 7 -18 9 17 15 22 4
65 8 95 8 45 1 58 -3 68 -19 16 -26 30 -25 52 2 15 20 17 39 14 147 -3 118 -5
126 -26 138 -22 12 -43 15 -63 8z m35 -65 c0 -24 -4 -29 -22 -27 -23 1 -137
-9 -215 -19 -42 -6 -43 -6 -43 24 0 30 0 30 78 39 42 6 105 11 140 12 l62 1 0
-30z m-2 -72 c-3 -22 -10 -24 -128 -35 -69 -6 -131 -12 -137 -12 -8 -1 -13 11
-13 28 0 28 2 29 33 25 17 -2 61 -1 97 4 36 5 84 10 108 11 40 1 43 -1 40 -21z
m2 -72 c0 -26 -11 -29 -155 -41 -38 -3 -85 -8 -103 -11 -32 -5 -33 -4 -30 26
l3 31 100 5 c55 3 102 7 104 10 2 2 22 4 43 4 33 0 38 -3 38 -24z"/>
  <path d="M546 138 c16 -13 49 -42 74 -65 51 -48 80 -55 80 -20 0 32 -36 64
-99 87 -70 27 -91 26 -55 -2z"/>
</g>
<g id="part-1" class="char-part">
  <path d="M480 620 c-36 -4 -96 -8 -135 -9 -58 -1 -67 -4 -54 -14 9 -7 24 -38
33 -70 16 -54 28 -68 40 -48 3 5 39 12 78 15 131 12 168 18 163 26 -3 5 9 25
26 45 17 20 30 37 28 39 -30 26 -61 29 -179 16z m90 -42 c0 -13 -4 -28 -8 -35
-8 -13 -107 -33 -162 -33 -33 0 -38 3 -47 35 -11 34 -11 34 26 41 20 3 41 7
46 9 6 2 40 4 78 4 63 1 67 0 67 -21z"/>
</g>
<g id="part-2" class="char-part">
  <path d="M510 465 c-36 -8 -104 -17 -152 -21 -80 -6 -87 -8 -78 -25 6 -10 10
-49 10 -88 0 -53 3 -71 13 -71 8 0 16 3 19 6 3 3 35 7 69 8 35 2 99 7 142 11
68 7 77 6 77 -9 0 -11 9 -16 28 -16 l27 0 -1 97 c0 94 -1 98 -25 110 -29 15
-44 15 -129 -2z m98 -59 c3 -23 0 -28 -12 -23 -9 4 -69 0 -134 -8 -64 -8 -120
-15 -124 -15 -5 0 -8 13 -8 29 0 28 1 29 78 39 42 5 104 9 137 8 58 -1 60 -2
63 -30z m2 -69 c0 -23 -3 -24 -102 -30 -57 -4 -120 -10 -140 -13 -35 -6 -38
-5 -38 18 0 24 3 25 98 35 170 17 182 17 182 -10z"/>
</g>
<g id="part-3" class="char-part">
  <path d="M280 231 c0 -16 3 -36 6 -45 7 -18 34 -22 34 -6 0 6 15 10 33 9 17 0
78 2 133 6 98 8 102 7 109 -14 15 -47 75 -4 75 54 0 21 -5 25 -29 25 -16 0
-31 -4 -33 -10 -2 -7 -237 -40 -284 -40 -2 0 -4 11 -4 25 0 18 -5 25 -20 25
-15 0 -20 -7 -20 -29z"/>
</g>
<g id="part-4" class="char-part">
  <path d="M351 155 c-11 -18 -42 -51 -70 -72 -97 -74 -48 -62 82 20 42 27 77
53 77 58 0 5 -1 9 -3 9 -1 0 -17 4 -34 9 -30 9 -33 7 -52 -24z"/>
  <path d="M595 95 c82 -70 105 -79 105 -42 0 31 -34 61 -98 86 -86 34 -87 25
-7 -44z"/>
</g>
</g>
</svg>