<?xml version="1.0" standalone="no"?>
<!DOCTYPE svg PUBLIC "-//W3C//DTD SVG 20010904//EN"
 "http://www.w3.org/TR/2001/REC-SVG-20010904/DTD/svg10.dtd">
<svg version="1.0" xmlns="http://www.w3.org/2000/svg"
 width="96.000000pt" height="68.000000pt" viewBox="0 0 96.000000 68.000000"
 preserveAspectRatio="xMidYMid meet">
<metadata>
Created by potrace 1.16, written by Peter Selinger 2001-2019
Combined from part_0.svg through part_5.svg with named groups
</metadata>
<g transform="translate(0.000000,68.000000) scale(0.100000,-0.100000)" fill="#000000" stroke="none">
<g id="part-0" class="char-part">
  <path d="M510 583 c0 -27 -53 -132 -91 -183 -59 -77 -62 -87 -13 -45 16 14 32
25 37 25 11 0 9 -188 -3 -253 -9 -47 -8 -62 6 -89 16 -30 17 -31 30 -13 8 10
14 33 14 50 l0 32 98 6 c53 4 126 7 162 8 36 1 76 4 90 9 l25 7 -30 12 c-20 9
-55 11 -107 6 l-78 -6 0 34 0 34 60 7 c78 9 77 26 -1 26 -60 0 -60 0 -57 28 2
22 9 27 33 30 63 5 95 13 95 23 0 7 -22 10 -57 7 l-58 -3 0 37 c0 32 3 37 29
42 16 3 46 6 67 6 22 0 39 4 39 10 0 15 -47 23 -96 16 -39 -5 -44 -3 -44 14 0
21 -35 50 -62 50 -16 0 -17 -3 -6 -22 7 -12 19 -29 27 -37 12 -13 5 -17 -55
-28 -38 -7 -74 -12 -81 -11 -6 2 10 35 37 77 42 62 47 76 37 92 -15 24 -47 25
-47 2z m98 -225 l3 -38 -45 0 c-24 0 -51 -3 -59 -6 -11 -4 -16 5 -19 35 -3 39
-3 40 32 44 75 9 84 5 88 -35z m2 -86 c0 -26 -4 -30 -37 -36 -73 -12 -83 -9
-83 23 0 31 0 31 88 39 29 2 32 0 32 -26z m0 -97 l0 -35 -60 0 -60 0 0 35 0
35 60 0 60 0 0 -35z"/>
  <path d="M248 495 c3 -49 1 -85 -4 -84 -10 3 -99 -10 -128 -18 -33 -9 -2 -22
62 -25 l62 -3 -23 -43 c-12 -24 -48 -72 -80 -107 -31 -35 -57 -66 -57 -70 0
-17 99 52 133 92 l37 44 0 -38 c0 -22 -5 -64 -10 -95 -12 -61 -1 -108 24 -108
27 0 36 37 36 152 l1 113 23 -29 c25 -30 56 -31 56 -1 0 19 -23 45 -40 45 -6
0 -9 4 -6 9 3 5 -2 8 -12 7 -12 -1 -17 6 -17 24 0 20 6 25 40 32 22 5 44 13
50 19 16 16 -16 30 -57 25 -24 -2 -35 0 -33 8 2 6 6 32 9 58 5 45 4 49 -24 63
-16 8 -33 15 -38 15 -6 0 -8 -35 -4 -85z"/>
</g>
<g id="part-1" class="char-part">
  <path d="M245 553 c5 -10 10 -46 13 -79 5 -70 11 -64 -100 -80 -73 -10 -47
-27 28 -19 l64 7 -10 -28 c-16 -40 -94 -147 -130 -178 -18 -15 -25 -26 -17
-26 23 0 96 58 125 100 32 46 46 51 38 13 -12 -61 -16 -199 -7 -212 8 -12 12
-12 25 -2 13 11 16 37 16 137 0 68 4 124 9 124 5 0 16 -11 25 -25 9 -14 26
-25 37 -25 33 0 19 32 -24 55 -28 15 -37 26 -37 46 0 23 6 27 42 35 61 13 64
37 4 33 l-46 -4 6 61 c6 56 4 63 -14 73 -33 17 -56 14 -47 -6z"/>
</g>
<g id="part-2" class="char-part">
  <path d="M504 565 c-7 -39 -73 -156 -112 -197 -19 -21 -22 -28 -10 -28 8 0 23
9 33 20 34 38 38 25 31 -117 -11 -203 -11 -202 6 -220 15 -14 17 -14 26 4 16
29 18 334 3 362 -10 18 -10 26 3 44 34 47 86 128 86 134 0 9 -33 32 -47 33 -7
0 -15 -16 -19 -35z"/>
</g>
<g id="part-3" class="char-part">
  <path d="M610 270 c0 -28 -2 -29 -60 -36 -33 -4 -60 -11 -60 -15 0 -5 27 -9
60 -9 l60 0 0 -35 0 -35 -60 0 c-48 0 -60 -3 -60 -16 0 -14 17 -15 148 -9 81
4 158 9 172 11 14 1 32 3 40 4 11 0 10 4 -5 16 -16 13 -37 15 -108 10 l-88 -7
3 33 c3 32 5 33 58 41 82 13 85 27 6 27 -67 0 -68 0 -64 25 4 21 1 25 -18 25
-20 0 -24 -5 -24 -30z"/>
</g>
</g>
</svg>