<?xml version="1.0" standalone="no"?>
<!DOCTYPE svg PUBLIC "-//W3C//DTD SVG 20010904//EN"
 "http://www.w3.org/TR/2001/REC-SVG-20010904/DTD/svg10.dtd">
<svg version="1.0" xmlns="http://www.w3.org/2000/svg"
 width="96.000000pt" height="68.000000pt" viewBox="0 0 96.000000 68.000000"
 preserveAspectRatio="xMidYMid meet">
<metadata>
Created by potrace 1.16, written by Peter Selinger 2001-2019
Combined from part_0.svg through part_5.svg with named groups
</metadata>
<g transform="translate(0.000000,68.000000) scale(0.100000,-0.100000)" fill="#000000" stroke="none">
<g id="part-0" class="char-part">
  <path d="M560 587 c0 -7 4 -17 9 -22 9 -10 35 -185 28 -191 -2 -2 -18 -7 -37
-10 -30 -7 -33 -5 -28 14 4 15 0 25 -10 32 -18 10 -16 13 28 39 12 8 12 12 1
25 -20 24 -49 19 -65 -12 -8 -16 -22 -34 -30 -41 -22 -19 -20 -34 3 -22 15 9
20 7 25 -12 9 -34 7 -45 -6 -44 -35 1 -58 -4 -58 -13 0 -5 15 -10 34 -10 37 0
46 -12 37 -49 -5 -16 -20 -28 -51 -40 -25 -9 -45 -21 -45 -26 0 -17 45 -17 71
-1 l24 16 0 -54 c0 -58 -11 -76 -36 -55 -26 22 -23 5 7 -30 28 -34 29 -34 49
-16 17 15 20 30 20 99 0 81 0 82 32 101 19 11 27 20 19 23 -7 2 -18 -1 -24 -7
-18 -18 -27 -13 -27 18 0 17 6 31 16 35 27 10 64 7 68 -6 2 -7 11 -40 21 -73
l17 -59 -25 -22 c-14 -12 -32 -24 -39 -27 -7 -2 -10 -8 -6 -12 4 -4 23 2 43
14 20 11 38 21 39 21 2 0 22 -25 45 -55 41 -55 116 -105 132 -88 4 4 3 28 -3
53 -18 75 -19 77 -30 48 -5 -16 -14 -28 -19 -28 -14 0 -49 33 -70 68 l-21 32
41 46 c44 50 50 68 25 78 -29 11 -44 6 -44 -14 0 -12 -7 -35 -17 -53 l-16 -32
-17 40 c-37 86 -38 82 35 90 36 3 65 11 65 16 0 14 -47 22 -90 15 -37 -6 -40
-4 -46 20 -4 14 -4 59 -1 99 l5 74 -30 10 c-40 14 -48 14 -48 -2z"/>
  <path d="M267 583 c-4 -3 -7 -17 -7 -30 0 -48 -50 -137 -133 -234 -26 -31 -47
-59 -47 -63 0 -12 39 11 80 46 44 39 66 41 54 6 -5 -16 -3 -19 7 -12 11 6 12
5 2 -7 -6 -8 -14 -50 -16 -94 -3 -44 -7 -91 -9 -105 -5 -39 25 -36 85 9 59 45
69 48 87 26 18 -21 30 -19 30 6 0 22 -36 58 -58 59 -8 0 -11 -7 -8 -18 4 -13
-3 -22 -27 -34 -67 -34 -67 -33 -67 31 l0 59 46 4 c25 2 48 0 51 -5 9 -15 32
15 39 51 4 19 13 47 20 61 19 36 -5 55 -61 46 -22 -4 -55 -8 -72 -10 -32 -4
-33 -4 -18 19 12 18 29 25 70 31 30 3 58 11 61 17 5 8 -10 9 -50 4 l-57 -6 23
39 22 39 38 -24 c21 -13 44 -24 51 -24 43 0 20 47 -27 55 -21 4 -42 18 -55 36
-21 28 -41 36 -54 22z m83 -238 c0 -14 -6 -25 -12 -25 -7 0 -30 -3 -51 -7 -37
-6 -39 -5 -35 18 2 17 11 26 33 30 57 12 65 10 65 -16z m-10 -64 c0 -22 -19
-31 -67 -31 -27 0 -34 4 -31 17 3 17 34 30 76 32 15 1 22 -5 22 -18z"/>
  <path d="M680 505 c0 -14 57 -54 78 -55 36 0 25 26 -18 44 -42 17 -60 20 -60
11z"/>
</g>
<g id="part-1" class="char-part">
  <path d="M260 530 c-14 -58 -71 -151 -137 -221 -51 -55 -46 -63 14 -20 49 35
99 97 142 174 l33 57 48 -27 c27 -15 52 -24 57 -20 15 15 -14 42 -55 51 -29 7
-42 15 -42 27 0 15 -19 29 -40 29 -4 0 -13 -22 -20 -50z"/>
</g>
<g id="part-2" class="char-part">
  <path d="M330 176 c0 -16 45 -66 60 -66 11 0 13 30 2 46 -7 11 -45 34 -56 34
-3 0 -6 -6 -6 -14z"/>
</g>
<g id="part-3" class="char-part">
  <path d="M486 462 c-8 -15 -27 -40 -43 -56 -32 -33 -31 -33 55 12 65 34 70 40
50 60 -20 20 -47 13 -62 -16z"/>
</g>
<g id="part-4" class="char-part">
  <path d="M489 413 c-1 -5 0 -20 1 -35 1 -23 -3 -28 -34 -34 -42 -7 -38 -24 5
-24 16 0 30 -4 30 -10 1 -5 2 -16 3 -22 3 -18 -13 -48 -25 -48 -5 0 -26 -7
-47 -16 -35 -15 -36 -16 -18 -30 17 -12 24 -12 53 6 l33 19 0 -53 c0 -61 -5
-69 -32 -55 -30 16 -29 8 3 -30 28 -34 29 -34 49 -16 17 15 20 30 20 101 0 83
0 84 31 99 17 9 29 19 26 22 -3 2 -14 0 -25 -6 -29 -16 -32 -14 -32 17 0 20 7
32 23 40 l22 11 -23 7 c-17 5 -22 12 -19 26 3 11 -2 22 -13 28 -22 12 -30 13
-31 3z"/>
</g>
<g id="part-5" class="char-part">
  <path d="M570 579 c0 -4 5 -11 11 -14 6 -4 8 -14 5 -22 -3 -8 -1 -23 4 -34 6
-11 12 -51 13 -90 1 -46 6 -73 14 -76 6 -3 9 -12 6 -20 -4 -9 1 -22 12 -29 10
-8 14 -14 7 -14 -8 0 -7 -12 4 -42 13 -38 13 -43 -3 -62 l-18 -20 29 18 c16
10 25 13 22 7 -4 -6 0 -11 9 -11 9 0 15 -6 14 -13 -3 -27 2 -39 15 -34 11 4
13 1 9 -10 -4 -11 -2 -14 5 -9 7 4 12 2 12 -6 0 -7 16 -26 35 -41 19 -15 35
-24 35 -18 0 5 -6 12 -12 14 -8 3 -6 6 5 6 13 1 17 9 16 39 0 30 -2 33 -9 16
-9 -22 -55 -42 -48 -21 5 15 -38 58 -48 48 -4 -3 -4 0 1 8 5 9 2 19 -10 28
-11 7 -15 13 -10 13 5 0 1 6 -9 13 -16 12 -16 13 4 14 25 2 52 32 45 51 -3 7
-1 11 4 8 12 -8 34 21 26 34 -11 18 -46 12 -44 -7 1 -10 -1 -30 -5 -45 -6 -21
-14 -27 -31 -26 -13 1 -21 6 -19 10 3 4 -2 28 -11 54 -8 25 -13 49 -10 54 3 5
-1 10 -7 13 -7 2 17 3 55 2 37 0 67 2 67 7 0 4 -6 8 -12 9 -7 0 -26 3 -41 5
-19 3 -26 1 -22 -6 6 -10 -36 -5 -57 7 -7 3 -4 142 4 172 2 9 -9 17 -29 21
-18 4 -33 4 -33 -1z m185 -279 c3 -5 1 -10 -4 -10 -6 0 -11 5 -11 10 0 6 2 10
4 10 3 0 8 -4 11 -10z"/>
  <path d="M700 495 c0 -10 45 -45 57 -45 22 0 15 28 -9 36 -30 10 -48 13 -48 9z"/>
  <path d="M826 53 c-4 -9 -2 -21 4 -27 7 -7 10 -2 10 17 0 31 -5 34 -14 10z"/>
</g>
</g>
</svg>