<?xml version="1.0" standalone="no"?>
<!DOCTYPE svg PUBLIC "-//W3C//DTD SVG 20010904//EN"
 "http://www.w3.org/TR/2001/REC-SVG-20010904/DTD/svg10.dtd">
<svg version="1.0" xmlns="http://www.w3.org/2000/svg"
 width="96.000000pt" height="68.000000pt" viewBox="0 0 96.000000 68.000000"
 preserveAspectRatio="xMidYMid meet">
<metadata>
Created by potrace 1.16, written by Peter Selinger 2001-2019
Combined from part_0.svg through part_5.svg with named groups
</metadata>
<g transform="translate(0.000000,68.000000) scale(0.100000,-0.100000)" fill="#000000" stroke="none">
<g id="part-0" class="char-part">
  <path d="M556 578 c-7 -41 -62 -154 -94 -191 -8 -9 -12 -20 -9 -24 4 -3 28 15
52 41 46 47 46 47 136 57 68 8 94 7 105 -2 17 -14 20 -203 3 -264 -8 -30 -40
-75 -53 -75 -1 0 -15 4 -33 9 -44 13 -47 4 -11 -35 39 -43 65 -43 105 -2 41
42 51 90 56 255 4 130 3 132 -20 144 -20 11 -35 10 -81 0 -31 -7 -79 -15 -106
-18 l-49 -6 33 58 33 58 -22 19 c-33 26 -38 23 -45 -24z"/>
  <path d="M346 549 c-11 -7 -50 -13 -88 -13 -37 -1 -68 -2 -68 -4 0 -1 9 -19
20 -39 11 -21 20 -47 20 -58 0 -32 17 -50 47 -50 l28 0 0 -100 0 -100 -27 -3
-28 -3 0 74 c0 69 -2 75 -22 80 -12 4 -23 5 -24 4 -1 -1 2 -39 5 -84 4 -54 3
-83 -4 -84 -5 -1 -23 -2 -40 -3 -16 -2 -34 -4 -39 -4 -15 -3 26 -42 43 -42 23
0 274 81 286 93 11 11 -57 4 -88 -8 -16 -7 -18 -3 -15 41 3 44 6 49 28 52 49
5 71 13 65 22 -3 5 -25 7 -48 4 l-43 -6 4 41 c4 39 6 41 38 41 31 0 34 2 28
24 -4 16 2 38 18 65 17 30 20 43 12 51 -17 17 -86 22 -108 9z m29 -71 c-4 -24
-8 -44 -9 -44 0 -1 -22 -4 -48 -6 -46 -5 -46 -5 -53 29 -8 43 -6 45 48 54 73
11 69 13 62 -33z"/>
  <path d="M520 322 c0 -14 73 -83 84 -79 6 2 12 15 14 30 3 22 -3 29 -34 42
-40 16 -64 19 -64 7z"/>
</g>
<g id="part-1" class="char-part">
  <path d="M340 540 c-14 -4 -54 -8 -89 -9 -60 -1 -63 -2 -49 -18 9 -10 22 -40
30 -68 l14 -50 54 2 c84 4 120 12 114 26 -2 7 6 34 20 59 18 34 21 49 13 57
-12 12 -69 13 -107 1z m40 -52 c0 -48 -12 -60 -63 -65 l-45 -5 -11 38 c-12 44
-8 51 34 57 80 11 85 9 85 -25z"/>
</g>
<g id="part-2" class="char-part">
  <path d="M340 199 c-36 -10 -100 -22 -142 -25 -43 -4 -78 -11 -78 -17 0 -14
32 -36 52 -37 22 0 270 80 283 91 15 15 -45 8 -115 -12z"/>
</g>
<g id="part-3" class="char-part">
  <path d="M560 600 c0 -29 -33 -107 -74 -174 -20 -33 -33 -62 -30 -65 3 -3 26
16 50 42 l43 48 97 11 c80 9 98 9 105 -3 6 -8 8 -70 7 -139 -5 -169 -31 -217
-103 -190 -40 15 -41 6 -4 -34 39 -43 68 -46 104 -10 40 40 47 68 56 214 4 74
9 143 11 153 2 11 -7 24 -24 34 -25 16 -33 16 -121 -1 -51 -10 -99 -17 -105
-15 -7 3 0 22 18 51 35 56 37 74 11 88 -29 15 -41 12 -41 -10z"/>
</g>
<g id="part-4" class="char-part">
  <path d="M529 313 c38 -65 84 -87 89 -42 2 21 -3 29 -31 43 -48 22 -71 22 -58
-1z"/>
</g>
</g>
</svg>