<?xml version="1.0" standalone="no"?>
<!DOCTYPE svg PUBLIC "-//W3C//DTD SVG 20010904//EN"
 "http://www.w3.org/TR/2001/REC-SVG-20010904/DTD/svg10.dtd">
<svg version="1.0" xmlns="http://www.w3.org/2000/svg"
 width="96.000000pt" height="68.000000pt" viewBox="0 0 96.000000 68.000000"
 preserveAspectRatio="xMidYMid meet">
<metadata>
Created by potrace 1.16, written by Peter Selinger 2001-2019
Combined from part_0.svg through part_5.svg with named groups
</metadata>
<g transform="translate(0.000000,68.000000) scale(0.100000,-0.100000)" fill="#000000" stroke="none">
<g id="part-0" class="char-part">
  <path d="M521 588 c6 -74 -13 -98 -77 -98 -24 0 -44 -4 -44 -10 0 -11 65 -24
79 -15 37 22 -16 -59 -66 -103 -33 -29 -35 -32 -13 -26 38 11 78 44 116 97
l35 48 74 -61 c41 -33 77 -65 80 -70 3 -6 36 -10 73 -10 73 0 73 9 -2 34 -61
20 -177 88 -173 101 2 5 32 11 68 13 71 4 81 8 59 23 -9 6 -47 8 -93 4 -78 -6
-79 -6 -72 17 4 13 12 28 17 34 11 15 -17 44 -43 44 -14 0 -19 -6 -18 -22z"/>
  <path d="M275 539 c-16 -5 -50 -6 -74 -3 -42 6 -43 6 -35 -17 12 -33 7 -250
-6 -300 -7 -23 -23 -60 -36 -81 -14 -22 -24 -44 -22 -50 7 -20 85 78 98 123
12 41 16 45 41 41 20 -3 30 2 38 17 22 40 32 22 29 -51 -3 -78 -10 -85 -63
-62 -16 6 -15 2 9 -27 16 -18 38 -40 49 -48 18 -13 22 -12 44 13 22 26 23 33
23 204 0 97 3 186 6 198 12 44 -35 63 -101 43z m37 -80 l3 -51 -29 6 c-16 3
-35 6 -42 6 -10 0 -14 12 -14 38 0 47 4 52 46 52 31 0 32 -1 36 -51z m-2 -116
c0 -14 -51 -43 -75 -43 -11 0 -15 10 -15 38 0 21 3 41 6 44 9 9 84 -26 84 -39z"/>
  <path d="M533 377 c-64 -13 -69 -27 -10 -26 57 2 101 12 101 24 1 14 -29 14
-91 2z"/>
  <path d="M582 320 c-19 -4 -67 -11 -108 -15 -76 -7 -93 -25 -23 -25 21 0 39
-3 39 -6 0 -4 -9 -22 -21 -40 -18 -29 -18 -35 -6 -40 9 -3 24 -1 34 5 11 5 43
13 71 17 41 5 53 4 57 -9 9 -23 -12 -92 -35 -112 -17 -15 -24 -16 -46 -6 -36
16 -39 10 -11 -22 27 -32 66 -35 90 -9 9 10 28 48 41 85 l24 68 -23 15 c-19
12 -38 14 -91 9 -55 -6 -65 -5 -60 6 3 8 9 21 12 30 6 18 63 29 146 29 35 0
48 4 46 13 -5 14 -88 19 -136 7z"/>
</g>
<g id="part-1" class="char-part">
  <path d="M280 538 c-19 -5 -51 -8 -70 -5 l-35 4 0 -146 c0 -152 -9 -199 -47
-254 -28 -39 -17 -44 19 -9 16 16 37 54 48 85 17 50 21 55 38 45 16 -8 25 -4
53 23 l34 33 0 -73 c0 -92 -10 -114 -47 -100 -14 5 -27 8 -29 6 -2 -2 15 -21
37 -43 l40 -39 18 24 c16 21 19 51 23 230 6 244 6 244 -82 219z m34 -34 c3 -9
6 -36 6 -61 0 -42 -2 -45 -22 -39 -13 4 -35 9 -50 12 -29 7 -34 24 -22 71 8
31 77 44 88 17z m-60 -119 c11 -8 30 -15 43 -15 16 0 23 -6 23 -20 0 -15 -13
-26 -46 -40 -25 -11 -48 -20 -50 -20 -2 0 -4 25 -4 55 0 59 4 63 34 40z"/>
</g>
<g id="part-2" class="char-part">
  <path d="M518 560 c-3 -28 -8 -53 -11 -56 -3 -4 -27 -9 -52 -11 -25 -3 -48 -9
-51 -14 -6 -11 41 -23 66 -16 11 3 20 2 20 -2 0 -12 -43 -66 -80 -99 -22 -19
-29 -32 -20 -32 28 0 79 39 120 94 l42 56 75 -62 c40 -34 76 -65 79 -70 3 -4
35 -8 72 -8 74 0 73 9 -5 34 -28 10 -80 36 -115 58 -60 39 -62 42 -38 49 14 4
46 7 73 8 26 1 47 5 47 11 0 16 -47 23 -116 15 l-65 -7 16 38 c15 36 15 39 -1
51 -36 26 -51 16 -56 -37z"/>
</g>
<g id="part-3" class="char-part">
  <path d="M533 377 c-77 -14 -67 -31 12 -24 74 7 94 15 74 28 -16 10 -16 10
-86 -4z"/>
</g>
<g id="part-4" class="char-part">
  <path d="M548 233 c-21 -2 -38 -9 -38 -14 0 -6 23 -7 60 -3 67 7 70 4 50 -67
-15 -54 -42 -74 -80 -61 l-31 11 21 -29 c41 -57 97 -32 128 57 11 32 23 65 26
74 5 10 -1 19 -19 27 -26 12 -43 12 -117 5z"/>
</g>
</g>
</svg>