<?xml version="1.0" standalone="no"?>
<!DOCTYPE svg PUBLIC "-//W3C//DTD SVG 20010904//EN"
 "http://www.w3.org/TR/2001/REC-SVG-20010904/DTD/svg10.dtd">
<svg version="1.0" xmlns="http://www.w3.org/2000/svg"
 width="96.000000pt" height="68.000000pt" viewBox="0 0 96.000000 68.000000"
 preserveAspectRatio="xMidYMid meet">
<metadata>
Created by potrace 1.16, written by Peter Selinger 2001-2019
Combined from part_0.svg through part_5.svg with named groups
</metadata>
<g transform="translate(0.000000,68.000000) scale(0.100000,-0.100000)" fill="#000000" stroke="none">
<g id="part-0" class="char-part">
  <path d="M260 550 c-63 -10 -121 -19 -128 -19 -8 -1 -6 -10 9 -30 19 -26 21
-39 18 -153 -3 -78 -9 -130 -16 -139 -16 -19 -6 -57 16 -61 9 -2 32 2 51 9 19
7 83 12 143 13 81 0 107 3 107 13 0 25 -24 37 -72 37 -48 0 -48 0 -41 27 4 16
7 36 7 46 0 11 8 17 23 17 14 0 23 6 23 15 0 8 8 30 17 50 9 19 14 38 10 42
-4 3 -25 6 -48 5 l-41 -2 7 48 c8 52 17 62 58 62 34 0 35 17 1 30 -14 6 -26 9
-27 9 -1 -1 -54 -9 -117 -19z m42 -85 l3 -55 -36 0 c-40 0 -53 -8 -40 -24 5
-6 13 -27 18 -46 7 -27 15 -36 35 -38 19 -2 27 -10 30 -30 8 -58 -7 -72 -81
-72 l-33 0 7 128 c8 165 11 180 38 185 54 11 55 10 59 -48z m72 -94 c-9 -37
-15 -41 -60 -44 -38 -2 -39 -1 -39 33 0 33 2 35 40 40 56 8 66 3 59 -29z"/>
  <path d="M575 551 c-80 -10 -123 -19 -112 -24 10 -4 36 -7 58 -7 43 0 46 -7
28 -59 -9 -27 -16 -31 -45 -31 -31 0 -34 -2 -24 -20 6 -11 9 -65 8 -127 -3
-107 -3 -108 20 -106 35 4 26 -15 -35 -75 -32 -30 -49 -52 -38 -48 32 11 125
69 125 78 0 4 6 8 14 8 18 0 27 25 15 37 -7 7 10 12 48 17 52 6 59 5 75 -16
31 -41 42 -10 48 129 l5 125 -26 14 c-21 10 -40 11 -85 4 -94 -16 -99 -14 -69
16 17 17 24 32 20 45 -6 18 0 19 82 19 99 0 128 10 88 28 -31 14 -34 14 -200
-7z m127 -150 c4 -28 4 -28 -61 -35 -113 -10 -121 -9 -121 19 0 20 6 25 38 30
20 4 42 8 47 10 6 2 29 4 51 4 39 1 42 -1 46 -28z m8 -75 c0 -21 -5 -24 -62
-30 -35 -4 -78 -9 -96 -13 -32 -5 -33 -4 -30 23 3 27 6 29 58 35 119 13 130
11 130 -15z m0 -71 c0 -31 -3 -32 -108 -40 l-83 -7 3 29 c3 26 6 28 63 34 124
12 125 12 125 -16z"/>
  <path d="M660 155 c0 -16 106 -115 123 -115 35 0 17 51 -28 81 -42 28 -95 47
-95 34z"/>
</g>
<g id="part-1" class="char-part">
  <path d="M239 543 l-106 -15 19 -36 c17 -32 19 -51 14 -147 -3 -60 -11 -125
-18 -143 -11 -28 -10 -34 2 -43 8 -5 26 -6 40 -3 68 18 112 23 183 24 58 0 78
3 74 13 -4 13 -96 16 -192 7 l-50 -5 1 153 c0 117 4 156 14 162 7 4 57 11 112
15 83 6 97 9 87 21 -14 17 -41 16 -180 -3z"/>
</g>
<g id="part-2" class="char-part">
  <path d="M310 255 c0 -57 24 -62 39 -7 15 51 14 52 -14 52 -23 0 -25 -4 -25
-45z"/>
</g>
<g id="part-3" class="char-part">
  <path d="M680 564 c-8 -1 -61 -8 -117 -15 -109 -12 -134 -26 -55 -31 49 -3 53
-8 38 -55 -10 -31 14 -30 43 1 16 17 21 31 16 45 -6 20 -3 21 82 21 99 0 128
10 88 28 -24 11 -61 14 -95 6z"/>
</g>
<g id="part-4" class="char-part">
  <path d="M625 444 c-38 -7 -90 -13 -114 -13 -38 -1 -42 -3 -31 -16 9 -11 11
-39 7 -100 -5 -79 -4 -85 14 -85 12 0 19 7 19 20 0 17 7 20 49 20 26 0 69 3
95 6 38 6 46 4 46 -10 0 -10 9 -16 25 -16 25 0 25 0 25 93 0 91 -1 94 -25 105
-14 7 -29 11 -33 11 -4 -1 -38 -7 -77 -15z m77 -43 l4 -29 -80 -8 c-45 -4 -85
-8 -91 -8 -14 -1 -19 34 -6 47 12 12 71 24 127 26 39 1 42 -1 46 -28z m6 -77
c-3 -23 -8 -26 -48 -29 -25 -1 -67 -6 -93 -10 l-49 -8 4 29 c3 27 7 29 53 35
28 3 69 7 93 7 41 2 43 1 40 -24z"/>
</g>
<g id="part-5" class="char-part">
  <path d="M521 149 c-12 -16 -19 -34 -16 -39 3 -6 0 -10 -7 -10 -7 0 -26 -12
-43 -26 -22 -19 -23 -22 -5 -10 14 9 35 20 46 25 12 6 28 18 35 29 8 10 24 22
37 26 21 7 31 25 15 27 -5 0 -15 2 -24 4 -9 1 -26 -10 -38 -26z"/>
  <path d="M702 114 c24 -24 49 -42 56 -39 7 3 10 0 7 -5 -3 -6 -1 -10 5 -10 6
0 8 -5 4 -12 -5 -9 -2 -8 9 1 16 12 16 16 2 31 -8 9 -12 21 -8 25 5 5 0 4 -9
-4 -13 -9 -21 -10 -35 -1 -16 10 -15 10 5 5 12 -4 22 -2 22 4 0 10 -38 27 -52
23 -5 -1 -8 2 -8 7 0 5 -9 11 -20 14 -15 4 -9 -7 22 -39z"/>
</g>
</g>
</svg>