<?xml version="1.0" standalone="no"?>
<!DOCTYPE svg PUBLIC "-//W3C//DTD SVG 20010904//EN"
 "http://www.w3.org/TR/2001/REC-SVG-20010904/DTD/svg10.dtd">
<svg version="1.0" xmlns="http://www.w3.org/2000/svg"
 width="96.000000pt" height="68.000000pt" viewBox="0 0 96.000000 68.000000"
 preserveAspectRatio="xMidYMid meet">
<metadata>
Created by potrace 1.16, written by Peter Selinger 2001-2019
Combined from part_0.svg through part_5.svg with named groups
</metadata>
<g transform="translate(0.000000,68.000000) scale(0.100000,-0.100000)" fill="#000000" stroke="none">
<g id="part-0" class="char-part">
  <path d="M556 559 c-10 -6 -35 -9 -55 -6 l-36 4 0 -76 c0 -58 -5 -84 -18 -105
-23 -34 -15 -46 14 -20 33 30 49 69 49 122 0 53 9 62 71 62 25 0 25 -1 21 -58
-6 -78 13 -101 88 -108 62 -7 125 10 100 26 -8 6 -45 10 -82 10 l-68 0 0 36
c0 20 7 51 16 70 9 19 14 37 11 41 -12 11 -93 13 -111 2z"/>
  <path d="M295 549 c-16 -5 -50 -7 -75 -4 l-45 5 0 -158 0 -158 -34 -67 c-19
-37 -32 -69 -30 -71 17 -17 109 118 109 160 0 7 11 9 26 6 17 -3 33 3 50 19
l25 23 -3 -74 -3 -75 -40 3 -40 3 40 -40 c45 -47 71 -52 85 -15 6 14 10 101
10 194 0 95 5 181 11 197 9 24 7 30 -11 45 -25 20 -32 21 -75 7z m23 -88 c3
-46 1 -53 -13 -47 -9 3 -28 9 -41 12 -20 5 -24 12 -24 44 0 40 12 50 55 47 17
-2 20 -10 23 -56z m-18 -91 c27 0 26 -26 -2 -42 -13 -7 -26 -12 -30 -13 -3 0
-10 -3 -14 -7 -17 -18 -24 -5 -24 43 l0 51 25 -16 c13 -9 33 -16 45 -16z"/>
  <path d="M575 329 c-38 -10 -87 -19 -107 -19 -21 0 -38 -4 -38 -10 0 -5 5 -10
10 -10 14 0 100 -90 100 -104 0 -15 -57 -53 -100 -67 -50 -17 -56 -26 -13 -21
20 3 57 15 81 28 25 13 49 24 55 24 5 0 34 -22 64 -50 59 -54 70 -57 153 -39
60 13 57 19 -25 43 -109 33 -178 80 -146 100 9 6 71 111 71 120 0 3 -8 9 -17
14 -12 6 -43 3 -88 -9z m29 -27 c2 -4 -4 -28 -15 -52 l-20 -43 -34 33 c-19 19
-35 37 -35 41 0 7 56 26 82 28 9 1 19 -3 22 -7z"/>
</g>
<g id="part-1" class="char-part">
  <path d="M271 540 c-19 -5 -49 -6 -67 -3 l-33 6 9 -34 c25 -85 5 -265 -39
-351 -16 -32 -26 -58 -21 -58 17 0 60 63 81 120 19 53 23 58 40 47 15 -9 23
-7 49 18 16 16 33 26 36 22 4 -4 3 -42 -2 -84 -10 -83 -11 -84 -64 -68 -22 6
-21 3 15 -34 45 -47 57 -50 78 -18 12 19 16 64 18 223 1 110 -1 205 -5 212 -8
13 -44 14 -95 2z m53 -70 c4 -28 4 -55 1 -59 -3 -5 -19 -5 -38 1 -17 6 -38 12
-44 14 -14 4 -17 51 -7 78 4 11 19 16 44 16 l37 0 7 -50z m-15 -100 c34 0 24
-28 -19 -50 -61 -31 -74 -27 -66 18 3 20 6 45 6 55 0 17 2 17 29 -2 16 -12 39
-21 50 -21z"/>
</g>
<g id="part-2" class="char-part">
  <path d="M465 488 c0 -51 -5 -84 -18 -107 -21 -41 -15 -51 14 -25 33 30 46 64
51 131 4 56 2 62 -16 67 -12 3 -23 6 -26 6 -3 0 -6 -33 -5 -72z"/>
</g>
<g id="part-3" class="char-part">
  <path d="M540 555 c-38 -15 -35 -18 25 -19 l40 -1 -3 -55 c-5 -77 15 -102 89
-107 30 -3 67 0 83 6 47 19 16 36 -62 36 l-67 0 -3 33 c-2 19 4 44 12 57 30
46 16 66 -47 64 -18 0 -48 -7 -67 -14z"/>
</g>
<g id="part-4" class="char-part">
  <path d="M565 325 c-22 -8 -61 -14 -87 -14 -53 -1 -61 -11 -24 -31 14 -7 39
-31 57 -53 l33 -40 -34 -29 c-19 -15 -57 -35 -84 -44 -28 -10 -45 -19 -39 -21
18 -6 112 23 148 45 l30 19 57 -53 c62 -59 78 -63 173 -40 l50 12 -75 23 c-84
26 -140 52 -159 75 -10 12 -5 25 29 77 22 34 39 68 36 75 -7 17 -57 16 -111
-1z m30 -56 c-22 -62 -25 -63 -61 -28 -19 18 -34 36 -34 40 0 7 62 26 92 28
16 1 16 -2 3 -40z"/>
</g>
</g>
</svg>