<?xml version="1.0" standalone="no"?>
<!DOCTYPE svg PUBLIC "-//W3C//DTD SVG 20010904//EN"
 "http://www.w3.org/TR/2001/REC-SVG-20010904/DTD/svg10.dtd">
<svg version="1.0" xmlns="http://www.w3.org/2000/svg"
 width="96.000000pt" height="68.000000pt" viewBox="0 0 96.000000 68.000000"
 preserveAspectRatio="xMidYMid meet">
<metadata>
Created by potrace 1.16, written by Peter Selinger 2001-2019
Combined from part_0.svg through part_5.svg with named groups
</metadata>
<g transform="translate(0.000000,68.000000) scale(0.100000,-0.100000)" fill="#000000" stroke="none">
<g id="part-0" class="char-part">
  <path d="M306 547 c9 -63 -13 -175 -37 -187 -10 -6 -49 -10 -88 -10 -59 0 -69
-2 -64 -15 5 -15 57 -48 64 -41 2 2 21 6 42 10 36 7 38 6 32 -14 -8 -24 17
-57 53 -71 42 -16 21 -41 -75 -89 -35 -17 -63 -33 -63 -36 0 -15 92 12 141 42
31 19 60 34 64 34 4 0 27 -20 50 -45 43 -45 67 -50 79 -19 9 23 -10 50 -51 75
-21 12 -39 23 -41 24 -2 2 6 18 17 36 10 19 25 53 32 76 8 30 18 43 35 47 26
7 33 26 9 26 -9 0 -12 6 -9 15 6 16 -31 35 -67 35 -18 0 -20 -4 -14 -30 7 -31
11 -28 -69 -45 l-24 -5 29 86 c16 47 29 91 29 99 0 17 -19 32 -53 40 l-27 7 6
-45z m97 -245 c-29 -71 -30 -72 -63 -60 -17 5 -30 14 -30 20 0 5 -4 6 -10 3
-12 -7 -12 11 -1 40 5 13 24 23 57 30 27 6 52 10 56 8 4 -2 0 -20 -9 -41z"/>
  <path d="M690 399 c-41 -10 -106 -13 -137 -5 -23 5 -32 -7 -14 -18 5 -4 14
-39 21 -79 19 -122 17 -119 48 -113 15 3 61 8 103 11 69 6 76 8 72 25 -3 11 5
51 16 90 17 56 19 75 10 86 -13 15 -64 17 -119 3z m47 -90 c-3 -39 -9 -74 -12
-77 -3 -3 -30 -7 -60 -10 -63 -5 -64 -5 -67 83 -3 59 -3 59 27 66 17 4 50 7
74 8 l44 1 -6 -71z"/>
</g>
<g id="part-1" class="char-part">
  <path d="M310 513 c0 -38 -6 -88 -14 -113 -12 -41 -17 -46 -52 -52 -21 -4 -59
-7 -83 -7 l-44 -1 19 -21 c15 -17 27 -20 59 -15 23 3 49 8 60 12 19 8 19 8 -2
-43 -3 -7 15 -25 41 -40 25 -15 46 -31 46 -34 0 -9 -67 -54 -115 -78 -32 -16
-36 -20 -17 -21 24 0 88 29 135 62 l28 20 49 -46 c55 -52 80 -58 80 -22 0 25
-44 69 -80 81 -21 7 -26 20 -10 30 10 6 26 39 54 108 8 20 22 37 30 37 9 0 16
5 16 10 0 6 -4 10 -10 10 -5 0 -10 7 -10 15 0 14 -37 35 -61 35 -6 0 -9 -15
-7 -32 3 -32 2 -33 -45 -42 -26 -4 -50 -6 -53 -3 -3 2 9 46 27 96 30 89 31 93
13 106 -11 8 -27 15 -36 15 -15 0 -18 -10 -18 -67z m110 -175 c-1 -19 -36 -95
-49 -102 -5 -4 -26 0 -46 8 -56 24 -43 76 25 94 49 14 70 14 70 0z"/>
</g>
<g id="part-2" class="char-part">
  <path d="M681 398 c-19 -5 -61 -8 -93 -6 -49 2 -57 1 -52 -12 9 -19 31 -114
39 -163 5 -34 9 -38 28 -34 12 3 59 9 105 13 76 6 82 8 76 26 -3 11 4 51 16
89 18 56 20 72 10 84 -14 17 -76 19 -129 3z m54 -90 c-3 -40 -9 -75 -11 -77
-2 -2 -29 -6 -59 -9 -51 -4 -54 -3 -60 21 -4 13 -7 46 -8 73 -2 46 -1 49 28
55 17 4 50 7 74 8 l44 1 -8 -72z"/>
</g>
</g>
</svg>