<?xml version="1.0" standalone="no"?>
<!DOCTYPE svg PUBLIC "-//W3C//DTD SVG 20010904//EN"
 "http://www.w3.org/TR/2001/REC-SVG-20010904/DTD/svg10.dtd">
<svg version="1.0" xmlns="http://www.w3.org/2000/svg"
 width="96.000000pt" height="68.000000pt" viewBox="0 0 96.000000 68.000000"
 preserveAspectRatio="xMidYMid meet">
<metadata>
Created by potrace 1.16, written by Peter Selinger 2001-2019
Combined from part_0.svg through part_5.svg with named groups
</metadata>
<g transform="translate(0.000000,68.000000) scale(0.100000,-0.100000)" fill="#000000" stroke="none">
<g id="part-0" class="char-part">
  <path d="M320 570 c-14 -4 -51 -8 -82 -9 -32 -1 -58 -5 -58 -10 0 -5 7 -45 15
-88 8 -43 15 -79 15 -80 0 -1 -17 0 -39 1 -35 3 -39 0 -50 -29 -15 -41 -14
-68 2 -63 10 4 30 34 40 62 4 13 257 54 257 41 0 -3 -5 -15 -10 -26 -6 -10 -8
-19 -6 -19 13 0 76 35 76 42 0 11 -53 36 -67 31 -16 -6 -16 -4 3 66 9 33 14
66 11 75 -7 17 -62 20 -107 6z m45 -45 c0 -16 -8 -21 -43 -23 l-44 -3 6 -49
c4 -37 2 -49 -9 -54 -20 -7 -26 6 -32 74 l-6 59 39 6 c22 4 44 8 49 10 22 8
40 -1 40 -20z m-5 -75 c0 -36 -3 -40 -24 -40 -24 0 -26 7 -17 62 0 3 9 9 19
11 9 3 18 5 20 6 1 0 2 -17 2 -39z"/>
  <path d="M609 564 c0 -5 0 -34 0 -64 0 -30 -3 -73 -7 -94 -7 -36 -10 -40 -42
-43 -19 -2 -50 -6 -69 -9 -58 -10 -14 -25 51 -18 l58 6 -5 -29 c-3 -15 -7 -39
-9 -53 -3 -23 -7 -25 -50 -24 -40 1 -46 -1 -40 -15 4 -9 12 -44 19 -79 7 -35
14 -65 16 -66 2 -2 27 0 54 4 28 5 74 9 103 9 47 1 53 3 48 19 -4 12 5 34 25
61 30 42 30 43 12 63 -16 18 -26 19 -80 14 l-62 -6 6 52 c3 29 7 55 9 57 2 2
44 6 94 9 49 2 90 8 90 13 0 15 -43 21 -106 14 l-64 -7 0 39 c1 21 7 55 14 76
12 32 12 40 -1 52 -8 8 -18 15 -23 15 -5 0 -15 3 -24 6 -9 3 -16 2 -17 -2z
m95 -342 c2 -4 0 -28 -5 -54 -9 -42 -13 -46 -47 -52 -89 -14 -102 -6 -102 66
0 30 11 35 90 41 25 2 48 4 52 5 4 1 9 -2 12 -6z"/>
  <path d="M332 339 c-13 -5 -47 -11 -75 -13 l-52 -4 -8 -99 c-13 -149 -13 -156
0 -160 7 -3 16 13 23 39 6 24 13 49 15 56 3 7 21 12 44 12 22 0 46 3 55 6 20
8 30 -17 22 -51 -5 -19 -13 -25 -33 -25 l-27 0 29 -30 c27 -28 30 -29 47 -14
21 20 26 49 31 176 3 93 2 97 -21 107 -12 6 -24 11 -25 10 -1 0 -13 -4 -25
-10z m26 -43 c5 -26 -6 -33 -65 -41 l-53 -7 0 30 c0 26 5 31 28 35 54 9 87 3
90 -17z m2 -75 c0 -21 -26 -31 -87 -31 -36 0 -40 2 -36 19 5 21 24 27 86 30
30 1 37 -2 37 -18z"/>
</g>
<g id="part-1" class="char-part">
  <path d="M305 564 c-33 -8 -72 -11 -87 -8 -33 7 -34 -3 -17 -103 8 -48 15 -63
28 -63 15 0 16 9 13 66 -3 36 0 70 4 74 5 5 36 12 68 16 l59 7 -7 -67 c-6 -60
-5 -67 10 -64 12 2 23 24 36 68 17 61 17 66 1 78 -20 14 -28 14 -108 -4z"/>
</g>
<g id="part-2" class="char-part">
  <path d="M300 334 c-30 -8 -65 -12 -76 -9 -21 5 -22 0 -28 -88 -3 -50 -9 -111
-12 -134 -5 -35 -3 -43 10 -43 10 0 19 15 26 43 6 23 13 48 15 55 3 8 25 12
65 12 56 0 60 -2 60 -22 0 -37 -15 -51 -45 -46 l-27 6 33 -34 c18 -19 36 -34
41 -34 22 0 36 62 39 172 4 114 4 117 -19 128 -13 5 -24 10 -25 9 -1 -1 -27
-7 -57 -15z m58 -41 c3 -18 -4 -23 -48 -32 -70 -15 -72 -15 -68 16 2 22 10 29
33 34 52 12 80 6 83 -18z m2 -73 c0 -11 -2 -20 -4 -20 -2 0 -27 -4 -56 -10
-59 -11 -70 -8 -63 19 5 20 26 27 91 30 26 1 32 -3 32 -19z"/>
</g>
<g id="part-3" class="char-part">
  <path d="M607 536 c3 -19 2 -64 -2 -100 l-7 -65 -36 -6 c-20 -3 -52 -8 -71
-11 -58 -9 -14 -25 50 -18 l56 6 -7 -51 c-6 -48 -5 -51 16 -51 23 0 34 22 34
72 0 38 25 48 114 48 42 0 76 4 76 9 0 17 -40 23 -109 16 l-68 -7 12 64 c7 34
16 70 19 79 9 20 -27 49 -61 49 -19 0 -21 -4 -16 -34z"/>
</g>
<g id="part-4" class="char-part">
  <path d="M630 238 c-36 -4 -82 -6 -104 -3 -34 5 -38 4 -31 -12 4 -10 14 -47
21 -82 8 -36 16 -66 17 -68 2 -1 18 2 36 7 19 5 67 10 107 11 60 1 72 4 63 15
-12 15 0 45 34 81 20 22 20 23 2 43 -20 22 -40 23 -145 8z m75 -17 c3 -6 0
-30 -6 -55 -10 -40 -15 -46 -43 -52 -18 -3 -48 -4 -67 -2 -33 3 -34 4 -37 50
-3 46 -2 47 30 52 107 18 116 18 123 7z"/>
</g>
</g>
</svg>