<?xml version="1.0" standalone="no"?>
<!DOCTYPE svg PUBLIC "-//W3C//DTD SVG 20010904//EN"
 "http://www.w3.org/TR/2001/REC-SVG-20010904/DTD/svg10.dtd">
<svg version="1.0" xmlns="http://www.w3.org/2000/svg"
 width="96.000000pt" height="68.000000pt" viewBox="0 0 96.000000 68.000000"
 preserveAspectRatio="xMidYMid meet">
<metadata>
Created by potrace 1.16, written by Peter Selinger 2001-2019
Combined from part_0.svg through part_5.svg with named groups
</metadata>
<g transform="translate(0.000000,68.000000) scale(0.100000,-0.100000)" fill="#000000" stroke="none">
<g id="part-0" class="char-part">
  <path d="M513 603 c22 -79 18 -87 -43 -101 l-45 -10 48 -1 c45 -1 47 -2 47
-30 0 -34 -17 -41 -104 -41 -56 0 -58 -1 -44 -17 9 -10 22 -44 29 -76 l12 -57
34 6 c18 3 40 3 50 0 14 -6 9 -15 -28 -53 -24 -25 -78 -68 -119 -95 -54 -35
-67 -47 -45 -42 48 11 106 44 161 90 28 24 53 42 56 39 2 -2 0 -39 -5 -80 -10
-77 -1 -125 23 -125 20 0 29 50 23 134 -4 51 -2 86 3 86 6 0 43 -31 84 -70 67
-62 79 -69 115 -70 48 0 85 9 85 21 0 5 -9 9 -19 9 -48 0 -171 67 -271 147
-14 11 32 23 79 21 l55 -3 27 55 c15 30 33 61 40 69 10 11 9 17 -7 28 -15 12
-38 13 -108 8 -79 -5 -88 -4 -82 10 3 9 6 23 6 31 0 8 10 14 23 14 36 0 67 12
61 22 -3 5 -24 6 -46 3 l-41 -7 7 37 c8 43 -5 65 -41 65 -18 0 -23 -4 -20 -17z
m170 -212 c-3 -62 -20 -81 -75 -81 l-49 0 3 53 3 52 40 6 c71 11 80 8 78 -30z
m-162 -6 c4 -84 4 -85 -45 -85 l-44 0 -10 47 c-6 26 -7 50 -2 53 5 3 29 6 54
7 42 2 46 0 47 -22z"/>
  <path d="M608 375 c-28 -37 -21 -46 17 -24 28 17 33 24 24 35 -15 19 -21 17
-41 -11z"/>
  <path d="M445 370 c-6 -9 32 -50 47 -50 4 0 8 8 8 18 0 20 -46 47 -55 32z"/>
  <path d="M208 444 c5 -127 -6 -211 -33 -264 -7 -14 -32 -46 -55 -72 -45 -52
-39 -60 20 -27 24 14 50 42 73 80 l34 59 27 -35 c27 -35 49 -44 61 -24 14 22
-5 56 -43 73 l-38 17 7 52 c4 29 8 59 8 67 1 8 26 28 56 44 60 31 70 52 29 62
-21 5 -31 0 -55 -27 l-30 -34 5 71 c6 77 2 84 -48 84 -22 0 -22 -1 -18 -126z"/>
  <path d="M100 396 c0 -24 46 -81 68 -84 17 -3 22 2 22 20 0 34 -20 57 -57 67
-25 7 -33 6 -33 -3z"/>
</g>
<g id="part-1" class="char-part">
  <path d="M208 565 c-4 -4 -3 -18 3 -32 14 -36 11 -189 -5 -265 -17 -80 -35
-116 -84 -170 l-37 -41 31 16 c39 20 96 82 113 124 l13 32 26 -32 c42 -51 56
-57 66 -32 9 23 -15 54 -52 67 l-32 12 6 66 c4 36 10 70 15 76 4 5 28 20 53
33 56 28 62 37 35 52 -19 10 -26 6 -60 -32 l-38 -44 0 30 c0 17 4 49 8 72 4
23 5 46 2 51 -8 13 -55 25 -63 17z"/>
  <path d="M121 360 c16 -29 29 -40 46 -40 14 0 23 6 23 15 0 23 -46 65 -70 65
l-21 0 22 -40z"/>
</g>
<g id="part-2" class="char-part">
  <path d="M513 603 c22 -80 19 -87 -48 -99 l-50 -9 53 -3 52 -3 0 -105 0 -105
-47 -50 c-26 -28 -81 -73 -123 -100 -54 -36 -67 -48 -45 -43 55 13 115 46 167
92 l51 46 -7 -89 c-8 -96 -3 -125 20 -125 25 0 33 45 27 141 l-6 94 84 -78
c77 -70 87 -77 124 -76 22 1 51 4 65 9 23 7 24 8 5 14 -91 33 -158 67 -210
106 l-60 45 -2 86 c-2 117 4 138 36 145 52 12 61 16 61 26 0 7 -16 9 -46 4
l-46 -6 7 41 c8 45 -2 59 -43 59 -17 0 -22 -4 -19 -17z"/>
</g>
<g id="part-3" class="char-part">
  <path d="M550 435 c-41 -8 -101 -14 -133 -14 -57 -1 -57 -1 -43 -24 9 -12 20
-46 27 -75 l11 -53 36 6 c21 3 84 6 141 8 l103 2 25 50 c14 27 33 58 42 68 39
45 -55 59 -209 32z m135 -14 c7 -12 -10 -90 -22 -101 -4 -4 -58 -11 -119 -15
l-110 -6 -11 48 c-6 26 -11 49 -10 50 2 1 103 14 254 32 6 0 14 -3 18 -8z"/>
</g>
<g id="part-4" class="char-part">
  <path d="M529 408 c-1 -2 -3 -24 -4 -50 -3 -41 0 -48 16 -48 16 0 19 8 19 50
0 38 -4 50 -15 50 -8 0 -16 -1 -16 -2z"/>
  <path d="M614 388 c-4 -7 -15 -24 -23 -38 l-16 -24 42 24 c33 18 40 26 32 37
-14 16 -26 17 -35 1z"/>
  <path d="M440 372 c0 -12 39 -52 50 -52 21 0 9 37 -15 48 -31 14 -35 15 -35 4z"/>
</g>
</g>
</svg>