<?xml version="1.0" standalone="no"?>
<!DOCTYPE svg PUBLIC "-//W3C//DTD SVG 20010904//EN"
 "http://www.w3.org/TR/2001/REC-SVG-20010904/DTD/svg10.dtd">
<svg version="1.0" xmlns="http://www.w3.org/2000/svg"
 width="96.000000pt" height="68.000000pt" viewBox="0 0 96.000000 68.000000"
 preserveAspectRatio="xMidYMid meet">
<metadata>
Created by potrace 1.16, written by Peter Selinger 2001-2019
Combined from part_0.svg through part_5.svg with named groups
</metadata>
<g transform="translate(0.000000,68.000000) scale(0.100000,-0.100000)" fill="#000000" stroke="none">
<g id="part-0" class="char-part">
  <path d="M320 581 l0 -39 -67 -8 c-61 -6 -65 -8 -47 -21 12 -9 33 -13 57 -10
21 3 37 1 37 -5 0 -5 -27 -37 -60 -70 -33 -33 -60 -62 -60 -64 0 -3 10 -2 23
2 42 13 102 62 132 108 29 44 62 65 84 52 6 -4 8 -12 6 -19 -2 -7 -6 -24 -9
-39 -8 -35 -41 -55 -62 -37 -24 20 -24 6 1 -25 39 -49 72 -23 109 84 13 37 13
45 0 57 -7 8 -18 11 -24 8 -5 -3 -10 -2 -10 3 0 5 -11 7 -25 4 -20 -3 -24 -1
-19 12 9 22 -13 46 -42 46 -21 0 -24 -5 -24 -39z"/>
  <path d="M620 558 c-25 -5 -62 -7 -82 -4 -35 4 -50 -5 -29 -18 5 -3 12 -18 15
-33 18 -77 20 -78 94 -75 90 4 115 10 108 27 -2 8 7 31 21 51 24 36 24 39 7
51 -20 15 -68 15 -134 1z m74 -17 c8 -12 -12 -73 -26 -83 -7 -4 -31 -8 -54 -8
-38 0 -41 2 -52 37 -6 20 -10 38 -9 40 3 2 97 19 124 22 6 0 14 -3 17 -8z"/>
  <path d="M480 364 c-47 -8 -100 -12 -119 -8 -30 5 -33 3 -25 -13 5 -10 8 -62
6 -115 -3 -98 5 -121 33 -98 10 8 15 8 20 0 9 -15 -19 -44 -77 -82 -26 -17
-46 -34 -43 -36 3 -3 51 17 107 45 l103 50 -30 16 c-30 15 -29 15 64 19 68 2
95 0 98 -10 8 -20 32 -14 38 11 3 12 7 65 9 117 4 130 -1 133 -184 104z m130
-38 c0 -22 -4 -23 -87 -29 -49 -4 -98 -9 -109 -13 -16 -4 -23 0 -27 17 -4 13
-4 26 -1 29 6 6 104 16 177 18 43 2 47 0 47 -22z m0 -65 c0 -16 -13 -20 -100
-30 -133 -15 -132 -15 -128 10 3 18 11 21 73 25 38 3 71 7 74 10 2 2 22 4 43
4 30 0 38 -4 38 -19z m0 -72 c0 -15 -7 -19 -32 -19 -18 0 -70 -3 -115 -7 -79
-6 -83 -5 -83 14 0 19 9 21 108 30 59 5 110 7 115 5 4 -2 7 -12 7 -23z"/>
  <path d="M550 114 c0 -8 43 -50 84 -81 35 -28 56 -29 56 -5 0 23 -22 43 -77
71 -43 21 -63 26 -63 15z"/>
</g>
<g id="part-1" class="char-part">
  <path d="M330 593 c0 -43 -12 -53 -76 -61 -52 -7 -56 -9 -38 -19 13 -8 33 -9
57 -3 20 4 37 5 37 1 0 -14 -51 -77 -87 -108 -25 -21 -32 -33 -22 -33 27 0 93
54 129 108 24 35 42 52 56 52 12 0 25 7 28 16 5 13 2 15 -14 11 -16 -4 -20 -1
-18 12 4 21 -19 51 -38 51 -9 0 -14 -11 -14 -27z"/>
</g>
<g id="part-2" class="char-part">
  <path d="M620 558 c-25 -5 -62 -7 -82 -4 -36 4 -47 -2 -30 -18 4 -4 14 -31 22
-59 l16 -52 59 3 c117 5 130 10 131 43 1 16 10 39 20 50 18 20 18 21 -1 35
-21 16 -67 16 -135 2z m67 -16 c9 -6 10 -17 3 -44 -11 -38 -28 -48 -86 -48
-28 0 -33 4 -41 39 l-10 39 56 10 c31 5 58 10 61 11 3 0 11 -3 17 -7z"/>
</g>
<g id="part-3" class="char-part">
  <path d="M485 364 c-49 -7 -105 -11 -124 -7 -32 5 -33 4 -25 -18 5 -13 8 -52
8 -87 l-1 -62 46 5 c146 18 207 22 216 14 5 -5 19 -9 32 -9 21 0 23 5 23 49 0
27 3 62 6 78 5 24 2 31 -21 41 -30 14 -41 14 -160 -4z m125 -38 c0 -22 -4 -23
-86 -30 -48 -3 -97 -9 -110 -12 -27 -7 -44 20 -25 39 12 12 84 23 169 26 48 1
52 -1 52 -23z m0 -65 c0 -16 -13 -20 -100 -30 -130 -14 -130 -14 -130 8 0 16
12 20 78 28 129 17 152 16 152 -6z"/>
</g>
<g id="part-4" class="char-part">
  <path d="M610 186 c0 -9 -23 -15 -82 -19 -128 -10 -148 -9 -148 9 0 10 -7 14
-22 12 -18 -2 -22 -9 -20 -28 3 -32 18 -46 34 -33 7 6 64 13 126 15 89 4 115
2 119 -9 3 -7 11 -13 18 -13 15 0 25 22 25 56 0 19 -5 24 -25 24 -14 0 -25 -6
-25 -14z"/>
</g>
<g id="part-5" class="char-part">
  <path d="M399 113 c-1 -10 -1 -21 0 -26 0 -4 -2 -6 -6 -5 -15 3 -43 -14 -37
-23 3 -5 0 -9 -7 -9 -7 0 -10 -3 -6 -6 3 -4 28 6 54 22 26 16 55 32 63 35 11
5 8 10 -13 18 -39 15 -47 14 -48 -6z"/>
  <path d="M575 89 c11 -7 35 -26 54 -43 22 -21 35 -27 38 -18 3 6 9 10 14 7 5
-4 6 0 4 8 -8 18 -53 43 -95 50 -29 6 -32 5 -15 -4z"/>
</g>
</g>
</svg>