<?xml version="1.0" standalone="no"?>
<!DOCTYPE svg PUBLIC "-//W3C//DTD SVG 20010904//EN"
 "http://www.w3.org/TR/2001/REC-SVG-20010904/DTD/svg10.dtd">
<svg version="1.0" xmlns="http://www.w3.org/2000/svg"
 width="96.000000pt" height="68.000000pt" viewBox="0 0 96.000000 68.000000"
 preserveAspectRatio="xMidYMid meet">
<metadata>
Created by potrace 1.16, written by Peter Selinger 2001-2019
Combined from part_0.svg through part_5.svg with named groups
</metadata>
<g transform="translate(0.000000,68.000000) scale(0.100000,-0.100000)" fill="#000000" stroke="none">
<g id="part-0" class="char-part">
  <path d="M307 614 c-4 -4 5 -20 18 -36 14 -16 23 -33 20 -38 -2 -4 -33 -11
-67 -14 -35 -4 -76 -10 -91 -13 -26 -5 -27 -7 -11 -24 14 -16 16 -32 11 -101
-8 -101 -27 -176 -67 -261 -16 -35 -30 -68 -30 -72 0 -5 15 6 34 24 36 35 67
96 86 171 l11 45 82 0 c70 0 82 -3 85 -17 3 -16 -5 -18 -58 -18 -55 0 -61 -2
-55 -17 4 -10 12 -37 18 -60 l10 -43 110 4 c122 5 120 4 148 85 15 43 3 51
-73 51 -45 0 -58 3 -58 15 0 12 14 15 68 15 37 0 74 4 82 10 33 20 -27 22
-182 5 -87 -9 -162 -15 -164 -12 -7 7 7 142 16 157 11 17 71 28 198 36 62 4
115 11 118 16 3 4 -10 15 -30 23 -32 13 -52 13 -122 0 -18 -4 -20 -1 -16 20 4
21 -1 27 -32 40 -39 17 -50 18 -59 9z m203 -374 c0 -17 -7 -20 -38 -20 -43 0
-53 6 -45 26 3 9 20 14 44 14 32 0 39 -3 39 -20z m-120 -10 c0 -17 -7 -20 -39
-20 -38 0 -42 5 -32 38 1 1 17 2 36 2 28 0 35 -4 35 -20z m110 -40 c0 -16 -7
-20 -34 -20 -40 0 -58 26 -23 33 48 9 57 7 57 -13z m-110 -10 c0 -16 -7 -20
-35 -20 -40 0 -50 26 -12 33 42 8 47 7 47 -13z"/>
  <path d="M735 500 c-11 -5 -40 -9 -64 -9 l-44 -1 5 -235 c3 -130 8 -238 12
-242 16 -17 21 24 26 227 3 120 8 221 12 225 3 4 25 9 47 12 l40 6 -9 -29 c-4
-16 -14 -44 -22 -62 -11 -29 -11 -35 2 -45 30 -23 60 -70 60 -93 0 -21 -5 -24
-42 -24 l-43 0 49 -31 c53 -34 72 -32 82 6 10 41 -5 77 -52 122 -50 49 -50 54
12 123 34 37 34 39 15 49 -23 13 -58 13 -86 1z"/>
  <path d="M450 470 c0 -24 -4 -30 -22 -31 -13 -1 -33 -3 -45 -4 -14 -1 -23 4
-26 16 -3 11 -14 19 -26 19 -18 0 -20 -3 -12 -19 13 -23 5 -31 -31 -31 -17 0
-27 -4 -23 -10 3 -5 21 -10 40 -10 27 0 34 -4 37 -22 3 -21 8 -23 48 -20 77 4
88 10 92 40 3 24 7 27 46 30 54 4 55 22 0 22 -23 0 -38 3 -35 6 10 10 -12 44
-28 44 -10 0 -15 -10 -15 -30z m0 -70 c0 -25 -67 -41 -81 -19 -13 21 -11 27
14 32 52 10 67 7 67 -13z"/>
  <path d="M503 76 c46 -47 67 -52 67 -17 0 26 -29 48 -75 57 l-40 7 48 -47z"/>
  <path d="M320 101 c0 -6 -17 -22 -37 -36 -46 -31 -33 -32 41 -3 31 11 55 26
53 32 -5 14 -57 21 -57 7z"/>
</g>
<g id="part-1" class="char-part">
  <path d="M321 593 c7 -10 21 -27 31 -39 l18 -21 -100 -12 c-92 -12 -120 -23
-87 -34 18 -6 11 -138 -13 -232 -11 -43 -33 -104 -49 -136 -22 -44 -25 -55
-12 -47 53 33 96 141 120 297 l17 116 64 12 c36 6 107 15 159 18 86 7 93 9 75
22 -15 11 -36 13 -93 8 -69 -6 -73 -5 -61 11 13 14 11 19 -9 35 -13 11 -35 19
-48 19 -23 0 -24 -2 -12 -17z"/>
</g>
<g id="part-2" class="char-part">
  <path d="M330 109 c0 -5 -20 -24 -45 -41 -25 -17 -43 -33 -41 -35 8 -8 137 50
133 60 -4 14 -47 29 -47 16z"/>
  <path d="M478 103 c17 -31 70 -76 81 -69 33 21 -2 69 -57 81 -31 6 -33 5 -24
-12z"/>
</g>
<g id="part-3" class="char-part">
  <path d="M718 497 c-53 -15 -47 -28 8 -20 l45 6 -20 -53 c-24 -63 -20 -74 11
-34 13 16 35 42 51 58 33 35 34 42 5 50 -30 8 -54 6 -100 -7z"/>
</g>
<g id="part-4" class="char-part">
  <path d="M630 352 c0 -175 11 -358 20 -340 13 22 19 116 22 298 2 174 2 175
-20 178 -22 3 -22 2 -22 -136z"/>
</g>
</g>
</svg>