<?xml version="1.0" standalone="no"?>
<!DOCTYPE svg PUBLIC "-//W3C//DTD SVG 20010904//EN"
 "http://www.w3.org/TR/2001/REC-SVG-20010904/DTD/svg10.dtd">
<svg version="1.0" xmlns="http://www.w3.org/2000/svg"
 width="96.000000pt" height="68.000000pt" viewBox="0 0 96.000000 68.000000"
 preserveAspectRatio="xMidYMid meet">
<metadata>
Created by potrace 1.16, written by Peter Selinger 2001-2019
Combined from part_0.svg through part_5.svg with named groups
</metadata>
<g transform="translate(0.000000,68.000000) scale(0.100000,-0.100000)" fill="#000000" stroke="none">
<g id="part-0" class="char-part">
  <path d="M560 581 c0 -42 -13 -51 -72 -51 -16 0 -28 -4 -28 -9 0 -11 25 -21
55 -21 22 0 23 -2 14 -32 -14 -49 -11 -54 14 -30 13 12 27 19 32 15 4 -5 5 -3
1 4 -4 7 -1 21 6 33 10 16 23 20 68 20 63 0 95 14 70 30 -8 5 -34 10 -58 10
-39 0 -42 2 -33 19 13 23 -14 51 -47 51 -19 0 -22 -6 -22 -39z"/>
  <path d="M290 597 c0 -3 7 -21 15 -41 l15 -36 -37 -2 c-21 -1 -50 -1 -65 0
-36 3 -37 -22 -3 -44 20 -13 31 -14 56 -5 47 16 58 14 69 -14 15 -40 40 -25
40 25 0 11 12 23 33 31 l32 13 -37 4 c-33 3 -37 6 -40 35 -3 29 -6 32 -40 35
-21 2 -38 1 -38 -1z"/>
  <path d="M572 425 c-30 -7 -70 -12 -91 -11 l-37 2 4 -107 c3 -59 -1 -144 -7
-188 -10 -69 -10 -84 3 -102 l14 -21 11 20 c6 12 11 28 11 36 0 9 16 20 43 27
23 6 47 15 53 20 11 9 66 -27 86 -56 8 -11 116 -12 145 0 13 5 -7 15 -76 38
-52 18 -96 37 -98 43 -2 6 12 34 32 62 19 28 35 56 35 61 0 17 -37 22 -77 12
-37 -10 -81 -14 -115 -12 -15 1 -18 11 -18 71 l0 69 38 10 c20 6 49 11 65 11
22 0 27 -4 27 -24 0 -32 -27 -58 -51 -51 -24 8 -24 1 -2 -25 32 -37 74 -16 89
45 4 17 11 36 17 43 24 30 -30 44 -101 27z m58 -192 c0 -4 -5 -22 -12 -40 -15
-41 -36 -42 -73 -3 -33 35 -32 36 73 49 6 0 12 -2 12 -6z m-71 -85 c8 -13 7
-21 -5 -32 -15 -16 -62 -32 -68 -25 -2 2 -1 30 1 61 l5 58 28 -23 c15 -12 32
-30 39 -39z"/>
  <path d="M311 407 c-6 -6 -36 -10 -68 -10 l-58 1 4 -91 c4 -102 -11 -185 -41
-234 -13 -22 -15 -33 -7 -33 20 0 55 49 72 103 15 48 19 52 49 55 18 1 42 3
52 5 18 2 19 -4 17 -58 -3 -72 -6 -78 -37 -72 -31 6 -30 0 3 -35 62 -65 81
-22 84 188 1 88 0 165 -4 171 -10 15 -54 22 -66 10z m19 -55 c0 -37 -1 -39
-45 -49 -47 -11 -55 -5 -55 37 0 24 31 41 93 49 4 1 7 -16 7 -37z m5 -91 c0
-25 -2 -26 -77 -45 -27 -6 -28 -5 -28 28 0 33 2 35 38 39 59 6 67 4 67 -22z"/>
</g>
<g id="part-1" class="char-part">
  <path d="M570 589 c0 -41 -18 -59 -60 -59 -22 0 -40 -4 -40 -10 0 -5 18 -10
40 -10 l39 0 -14 -42 -15 -43 38 42 c35 38 44 42 108 50 67 9 68 10 39 22 -16
7 -43 10 -59 7 -26 -6 -28 -4 -21 21 7 28 -6 43 -37 43 -12 0 -18 -8 -18 -21z"/>
  <path d="M300 591 c0 -5 5 -22 10 -37 14 -35 1 -44 -67 -44 -56 0 -67 -12 -32
-31 20 -10 55 -8 105 6 18 6 22 1 27 -24 9 -42 27 -39 27 4 0 23 5 37 15 40
46 15 49 19 13 23 -34 3 -38 6 -38 32 0 27 -15 40 -46 40 -8 0 -14 -4 -14 -9z"/>
</g>
<g id="part-2" class="char-part">
  <path d="M295 405 c-22 -7 -56 -11 -75 -8 l-35 5 0 -124 c0 -118 -1 -127 -31
-186 -33 -66 -29 -78 12 -37 27 27 54 83 54 113 0 14 13 21 57 30 31 6 57 11
58 9 1 -1 -1 -31 -4 -67 l-6 -65 -33 2 c-33 1 -33 1 -15 -20 32 -38 55 -57 64
-51 28 17 37 66 41 226 4 167 4 167 -20 177 -12 6 -24 11 -25 10 -1 -1 -20 -7
-42 -14z m35 -60 c0 -21 -5 -35 -12 -35 -7 0 -30 -3 -50 -6 -37 -6 -38 -6 -38
24 0 36 20 51 68 52 30 0 32 -2 32 -35z m0 -69 c0 -8 2 -20 5 -28 4 -10 -10
-16 -50 -24 l-56 -10 3 30 c3 27 8 32 38 37 56 10 60 10 60 -5z"/>
</g>
<g id="part-3" class="char-part">
  <path d="M607 434 c-3 -3 -29 -9 -58 -13 -31 -3 -54 -12 -57 -20 -4 -11 1 -12
19 -7 13 4 43 10 67 13 40 5 42 4 42 -20 0 -36 -25 -58 -58 -51 l-27 7 24 -27
c40 -43 75 -29 99 39 5 17 13 37 16 46 9 21 -50 50 -67 33z"/>
</g>
<g id="part-4" class="char-part">
  <path d="M610 259 c-19 -5 -54 -9 -77 -10 -56 -2 -56 -21 -3 -73 22 -21 40
-43 40 -48 0 -5 -20 -18 -45 -29 -25 -11 -45 -22 -45 -23 0 -6 64 10 86 22 18
9 29 5 75 -29 51 -39 56 -41 103 -34 79 10 86 21 25 35 -60 15 -139 47 -139
58 0 4 16 30 36 59 30 44 34 56 24 68 -14 17 -28 17 -80 4z m20 -28 c0 -26
-24 -71 -38 -71 -16 0 -72 47 -72 61 0 7 18 10 93 17 9 1 17 -2 17 -7z"/>
</g>
</g>
</svg>