<?xml version="1.0" standalone="no"?>
<!DOCTYPE svg PUBLIC "-//W3C//DTD SVG 20010904//EN"
 "http://www.w3.org/TR/2001/REC-SVG-20010904/DTD/svg10.dtd">
<svg version="1.0" xmlns="http://www.w3.org/2000/svg"
 width="96.000000pt" height="68.000000pt" viewBox="0 0 96.000000 68.000000"
 preserveAspectRatio="xMidYMid meet">
<metadata>
Created by potrace 1.16, written by Peter Selinger 2001-2019
Combined from part_0.svg through part_5.svg with named groups
</metadata>
<g transform="translate(0.000000,68.000000) scale(0.100000,-0.100000)" fill="#000000" stroke="none">
<g id="part-0" class="char-part">
  <path d="M406 643 c4 -10 10 -42 12 -70 4 -51 3 -53 -21 -53 -13 0 -39 -3 -57
-7 l-33 -6 7 36 c6 30 3 38 -13 46 -37 20 -51 14 -45 -19 4 -19 1 -38 -9 -54
-15 -23 -15 -26 1 -46 17 -22 19 -22 72 -6 73 22 74 21 103 -23 l25 -38 -100
-7 c-83 -5 -104 -4 -118 9 -15 14 -19 11 -40 -34 -33 -70 -8 -102 30 -38 l20
34 147 12 c278 24 283 24 283 13 0 -6 -7 -18 -16 -27 -9 -9 -15 -18 -12 -20 9
-9 128 20 128 31 0 7 -15 22 -34 34 -32 19 -40 20 -118 10 -119 -15 -138 -13
-138 8 0 24 -19 42 -45 43 -41 1 16 16 88 22 54 5 67 3 67 -8 0 -20 19 -28 35
-15 8 6 21 35 29 63 14 48 14 53 -1 65 -9 6 -27 12 -40 12 -22 0 -23 -3 -17
-40 l7 -40 -46 0 c-25 0 -52 -3 -61 -6 -12 -5 -16 6 -18 63 l-3 68 -39 3 c-34
3 -38 1 -30 -15z"/>
  <path d="M407 329 c-38 -4 -71 -10 -75 -13 -7 -8 192 -8 212 0 9 3 16 10 16
15 0 10 -56 10 -153 -2z"/>
  <path d="M413 252 c-161 -17 -216 -40 -69 -29 81 7 84 6 90 -16 19 -70 -3
-135 -43 -124 -28 7 -27 -5 5 -37 32 -31 34 -32 62 -6 18 17 22 32 23 93 1 40
1 78 0 85 -1 6 -1 12 1 12 2 0 44 3 93 6 92 7 103 9 92 20 -13 13 -105 12
-254 -4z"/>
  <path d="M289 158 c-6 -13 -25 -38 -42 -55 -41 -44 -23 -41 51 7 64 41 73 54
46 64 -28 11 -43 6 -55 -16z"/>
  <path d="M575 170 c4 -6 30 -29 57 -51 45 -35 53 -38 66 -26 22 23 -1 53 -55
71 -54 19 -77 20 -68 6z"/>
</g>
<g id="part-1" class="char-part">
  <path d="M407 653 c-4 -3 -3 -11 2 -17 4 -6 11 -34 14 -63 7 -59 3 -63 -74
-63 l-48 0 2 36 c2 29 -2 38 -20 45 -21 8 -23 6 -23 -26 0 -20 -5 -44 -12 -54
-25 -41 16 -64 75 -42 13 5 77 15 141 22 108 11 119 11 128 -4 18 -32 37 -18
54 40 16 54 16 57 -2 70 -31 23 -47 17 -41 -17 11 -52 2 -60 -70 -60 l-65 0 7
60 c7 58 6 60 -20 70 -31 12 -39 12 -48 3z"/>
</g>
<g id="part-2" class="char-part">
  <path d="M410 469 c0 -6 9 -23 20 -38 l19 -28 -102 -6 c-88 -6 -104 -4 -114
10 -7 9 -14 15 -16 12 -19 -24 -47 -84 -47 -100 0 -36 47 -13 62 31 4 12 49
19 217 34 117 10 215 16 218 12 3 -3 -2 -17 -12 -32 -17 -27 -17 -27 6 -20 13
3 43 9 67 12 51 8 54 25 7 54 -33 20 -40 21 -122 11 -119 -15 -134 -14 -127 4
4 9 -6 22 -28 35 -38 23 -48 25 -48 9z"/>
</g>
<g id="part-3" class="char-part">
  <path d="M397 330 c-87 -11 -81 -20 15 -20 96 0 150 8 142 21 -6 10 -73 10
-157 -1z"/>
</g>
<g id="part-4" class="char-part">
  <path d="M437 177 c7 -72 -8 -101 -48 -93 -29 6 -29 5 -13 -20 24 -36 49 -47
74 -32 26 16 29 27 31 118 2 74 2 75 -24 78 -25 3 -26 3 -20 -51z"/>
  <path d="M285 153 c-10 -16 -29 -40 -43 -55 -14 -16 -21 -28 -15 -28 15 0 133
80 133 90 0 7 -33 19 -51 20 -4 0 -15 -12 -24 -27z"/>
  <path d="M570 177 c0 -8 110 -97 120 -97 11 0 20 28 14 44 -9 23 -134 73 -134
53z"/>
</g>
</g>
</svg>