<?xml version="1.0" standalone="no"?>
<!DOCTYPE svg PUBLIC "-//W3C//DTD SVG 20010904//EN"
 "http://www.w3.org/TR/2001/REC-SVG-20010904/DTD/svg10.dtd">
<svg version="1.0" xmlns="http://www.w3.org/2000/svg"
 width="96.000000pt" height="68.000000pt" viewBox="0 0 96.000000 68.000000"
 preserveAspectRatio="xMidYMid meet">
<metadata>
Created by potrace 1.16, written by Peter Selinger 2001-2019
Combined from part_0.svg through part_5.svg with named groups
</metadata>
<g transform="translate(0.000000,68.000000) scale(0.100000,-0.100000)" fill="#000000" stroke="none">
<g id="part-0" class="char-part">
  <path d="M230 551 c0 -5 16 -23 35 -40 40 -35 85 -42 85 -13 0 28 -13 39 -55
51 -49 13 -65 14 -65 2z"/>
  <path d="M605 459 c-67 -11 -139 -16 -164 -13 l-43 6 6 -39 c3 -21 9 -84 12
-141 7 -102 14 -122 37 -104 7 5 50 13 97 16 47 4 93 9 102 12 12 3 22 -5 33
-26 9 -17 22 -30 28 -27 22 7 46 71 61 167 8 52 17 104 21 116 5 17 0 24 -28
37 -19 10 -37 16 -39 16 -1 -1 -57 -10 -123 -20z m103 -18 c9 -5 12 -23 10
-51 l-3 -42 -55 -3 c-30 -1 -86 -5 -123 -10 -78 -9 -85 -5 -79 49 4 34 5 35
61 42 31 4 76 10 101 14 63 11 73 11 88 1z m8 -133 c-3 -13 -6 -37 -6 -54 0
-31 0 -31 -57 -32 -32 -1 -88 -5 -125 -10 l-68 -8 0 53 0 53 63 1 c34 1 87 4
117 9 30 4 61 8 69 9 9 1 11 -6 7 -21z"/>
  <path d="M146 402 c-9 -15 61 -72 89 -72 37 0 35 47 -2 61 -46 17 -80 22 -87
11z"/>
  <path d="M313 303 c-10 -15 -45 -55 -79 -89 l-61 -62 15 -36 c24 -61 42 -47
105 83 31 65 57 122 57 125 0 15 -21 3 -37 -21z"/>
</g>
<g id="part-1" class="char-part">
  <path d="M234 542 c13 -21 87 -64 101 -58 26 10 16 36 -20 52 -37 15 -89 19
-81 6z"/>
  <path d="M150 400 c0 -15 72 -71 88 -68 21 4 25 20 10 41 -14 17 -98 41 -98
27z"/>
  <path d="M281 254 c-29 -36 -63 -70 -77 -76 -27 -12 -29 -25 -13 -62 23 -49
36 -38 95 80 31 63 55 117 52 119 -2 3 -28 -25 -57 -61z"/>
</g>
<g id="part-2" class="char-part">
  <path d="M709 476 c-10 -11 -248 -36 -279 -30 l-33 7 6 -39 c4 -21 10 -86 13
-142 5 -77 11 -105 21 -109 8 -3 18 -1 22 4 3 6 42 14 86 17 44 4 90 9 102 12
17 3 26 -3 38 -26 9 -16 20 -30 25 -30 21 0 42 53 60 156 11 60 22 118 25 129
5 15 -1 24 -24 38 -28 16 -53 22 -62 13z m-5 -32 c11 -4 16 -19 16 -53 l0 -46
-57 -1 c-32 0 -91 -4 -130 -9 l-73 -8 0 45 0 45 103 15 c130 20 123 19 141 12z
m12 -145 c-3 -17 -6 -42 -6 -55 0 -19 -5 -22 -32 -22 -18 1 -75 -2 -125 -7
l-93 -8 0 52 0 51 68 1 c37 0 90 4 117 9 82 12 78 13 71 -21z"/>
</g>
</g>
</svg>