<?xml version="1.0" standalone="no"?>
<!DOCTYPE svg PUBLIC "-//W3C//DTD SVG 20010904//EN"
 "http://www.w3.org/TR/2001/REC-SVG-20010904/DTD/svg10.dtd">
<svg version="1.0" xmlns="http://www.w3.org/2000/svg"
 width="96.000000pt" height="68.000000pt" viewBox="0 0 96.000000 68.000000"
 preserveAspectRatio="xMidYMid meet">
<metadata>
Created by potrace 1.16, written by Peter Selinger 2001-2019
Combined from part_0.svg through part_5.svg with named groups
</metadata>
<g transform="translate(0.000000,68.000000) scale(0.100000,-0.100000)" fill="#000000" stroke="none">
<g id="part-0" class="char-part">
  <path d="M395 554 c-17 -8 -44 -11 -64 -8 -33 5 -33 5 -26 -23 8 -33 8 -243
-1 -329 -6 -63 8 -116 27 -97 5 5 12 102 15 215 l7 207 30 10 c42 15 48 6 24
-38 -20 -36 -20 -39 -4 -55 9 -10 17 -31 17 -47 0 -27 -3 -30 -22 -24 -22 6
-22 6 2 -14 56 -47 94 3 46 60 -36 42 -33 63 15 101 37 30 39 33 23 45 -22 16
-50 15 -89 -3z"/>
  <path d="M785 543 c-139 -19 -299 -43 -302 -46 -11 -12 42 -12 122 0 50 7 95
11 100 9 15 -5 20 -53 20 -216 l0 -145 -37 1 c-21 1 -38 -1 -38 -5 0 -3 18
-21 39 -38 78 -64 91 -28 84 226 l-4 191 53 0 c51 1 52 1 28 15 -14 8 -27 14
-30 13 -3 0 -18 -3 -35 -5z"/>
  <path d="M205 485 c-16 -8 -54 -14 -84 -15 -51 0 -53 -1 -38 -17 8 -10 23 -48
32 -85 11 -43 23 -68 31 -68 8 0 14 4 14 9 0 4 24 12 53 17 42 7 51 13 49 27
-2 10 4 41 14 69 9 27 12 53 8 58 -18 16 -50 18 -79 5z m25 -44 c0 -54 -12
-79 -41 -83 -25 -4 -30 0 -40 29 -13 42 -7 60 23 66 48 9 58 7 58 -12z"/>
  <path d="M552 407 c-42 -9 -51 -14 -46 -26 4 -9 12 -35 18 -58 9 -38 26 -59
26 -33 0 6 20 10 45 10 43 0 45 2 45 28 0 15 7 38 16 50 9 13 14 25 12 28 -11
10 -67 11 -116 1z m56 -49 c-2 -27 -8 -34 -29 -36 -21 -2 -28 2 -33 23 -9 35
-1 45 35 45 28 0 30 -2 27 -32z"/>
</g>
<g id="part-1" class="char-part">
  <path d="M206 478 c-11 -6 -43 -11 -73 -12 -55 0 -63 -5 -39 -25 7 -6 19 -38
26 -71 8 -38 18 -60 26 -60 8 0 14 4 14 9 0 6 21 11 48 13 26 2 47 8 47 13 2
28 18 90 28 107 10 15 9 21 -3 28 -20 13 -51 12 -74 -2z m28 -26 c-1 -7 -2
-25 -2 -41 -3 -56 -64 -84 -81 -38 -22 58 -18 70 24 83 45 14 60 13 59 -4z"/>
</g>
<g id="part-2" class="char-part">
  <path d="M383 552 c-31 -15 -48 -40 -20 -29 62 23 68 18 42 -33 -22 -42 -7
-37 50 16 39 36 46 47 35 54 -21 14 -70 10 -107 -8z"/>
</g>
<g id="part-3" class="char-part">
  <path d="M305 330 c0 -150 4 -223 11 -230 8 -8 14 -8 18 -2 3 6 9 105 13 222
6 217 5 229 -32 230 -6 0 -10 -80 -10 -220z"/>
</g>
<g id="part-4" class="char-part">
  <path d="M552 407 c-30 -6 -50 -15 -48 -21 3 -6 11 -30 18 -54 8 -29 17 -41
26 -37 7 3 32 5 54 5 29 0 39 4 35 13 -3 8 3 32 13 55 25 56 14 60 -98 39z
m54 -73 c-7 -19 -52 -18 -60 2 -14 37 -7 53 27 56 27 3 32 -1 35 -20 2 -13 1
-30 -2 -38z"/>
</g>
</g>
</svg>