<?xml version="1.0" standalone="no"?>
<!DOCTYPE svg PUBLIC "-//W3C//DTD SVG 20010904//EN"
 "http://www.w3.org/TR/2001/REC-SVG-20010904/DTD/svg10.dtd">
<svg version="1.0" xmlns="http://www.w3.org/2000/svg"
 width="96.000000pt" height="68.000000pt" viewBox="0 0 96.000000 68.000000"
 preserveAspectRatio="xMidYMid meet">
<metadata>
Created by potrace 1.16, written by Peter Selinger 2001-2019
Combined from part_0.svg through part_5.svg with named groups
</metadata>
<g transform="translate(0.000000,68.000000) scale(0.100000,-0.100000)" fill="#000000" stroke="none">
<g id="part-0" class="char-part">
  <path d="M287 563 c-4 -3 -7 -15 -7 -25 0 -46 -94 -187 -173 -259 -24 -21 -28
-28 -15 -29 15 0 106 62 119 82 3 5 19 8 35 6 21 -2 30 -9 32 -25 3 -20 -2
-23 -48 -29 -65 -9 -60 -28 8 -32 l52 -3 0 -53 c0 -61 -6 -66 -97 -66 -63 0
-72 -21 -20 -45 30 -15 38 -13 150 23 65 22 117 43 117 48 -1 10 -21 11 -67 1
-37 -7 -46 7 -10 17 12 3 33 15 47 25 20 16 22 21 11 35 -21 25 -36 19 -56
-21 l-19 -38 -6 30 c-9 43 4 61 50 69 54 9 48 31 -8 30 -37 -1 -41 2 -40 22 2
17 10 25 31 30 15 3 26 11 24 17 -5 14 -43 14 -109 0 l-46 -10 25 38 c14 21
29 36 34 33 5 -3 6 1 3 9 -9 24 16 30 39 10 57 -50 76 -56 164 -50 82 6 83 6
83 -17 0 -26 -29 -36 -108 -36 -43 0 -44 -1 -29 -18 9 -10 23 -45 30 -77 7
-32 19 -61 25 -63 7 -2 12 1 12 7 0 6 18 11 39 11 38 0 39 -1 32 -28 -6 -23
-13 -27 -49 -30 -55 -4 -44 -22 14 -22 37 0 44 -3 44 -19 0 -24 -18 -30 -98
-32 -34 -1 -65 -5 -68 -10 -10 -17 50 -21 171 -10 69 6 149 11 178 11 49 1 51
2 32 16 -16 12 -37 15 -97 11 -77 -5 -78 -5 -78 19 0 18 5 24 23 24 35 0 67
11 61 21 -3 5 -23 9 -45 9 -35 0 -39 2 -39 26 0 25 2 26 52 22 l52 -3 34 69
c33 67 33 70 16 84 -14 10 -37 12 -86 8 -67 -6 -68 -6 -68 18 0 24 3 25 100
31 87 7 99 10 88 22 -10 13 -28 14 -95 9 -73 -6 -83 -5 -83 9 0 9 -9 19 -20
22 -30 8 -16 20 40 33 55 13 62 25 25 42 -21 10 -32 6 -84 -25 -32 -21 -63
-37 -68 -37 -5 0 -18 -7 -29 -15 -18 -14 -16 -15 22 -9 36 5 42 3 46 -14 7
-24 -4 -28 -108 -38 l-72 -6 5 25 c4 21 0 27 -32 38 -30 11 -36 18 -32 37 6
29 -37 64 -56 45z m443 -218 c19 -22 3 -35 -46 -35 -37 0 -44 3 -44 19 0 15 8
21 33 24 17 2 35 5 38 5 4 1 12 -5 19 -13z m-140 -24 c0 -13 -10 -20 -31 -25
-48 -9 -56 -8 -62 13 -7 27 0 31 50 31 35 0 43 -3 43 -19z m132 -56 c-4 -22
-10 -25 -43 -25 -32 0 -39 4 -39 19 0 20 16 28 61 30 23 1 26 -2 21 -24z
m-129 -15 c-4 -15 -14 -20 -39 -20 -19 0 -34 2 -34 4 0 2 -3 11 -6 20 -5 13 2
16 39 16 40 0 45 -2 40 -20z"/>
  <path d="M180 211 c0 -20 51 -70 65 -64 21 7 19 37 -3 56 -20 18 -62 23 -62 8z"/>
</g>
<g id="part-1" class="char-part">
  <path d="M280 523 c-16 -59 -62 -132 -127 -200 -32 -35 -55 -63 -50 -63 11 0
64 36 97 66 29 26 76 23 85 -7 9 -27 -2 -39 -38 -40 -18 0 -41 -4 -52 -9 -18
-8 -18 -9 5 -10 14 -1 40 -1 58 0 l32 2 0 -61 c0 -33 -5 -63 -11 -66 -5 -4
-37 -8 -70 -8 -47 -1 -59 -5 -57 -17 2 -8 15 -19 29 -24 20 -7 52 -1 143 28
64 21 116 40 116 43 0 3 -25 2 -56 -2 l-55 -7 3 58 3 58 43 9 c23 4 42 12 42
17 0 13 -29 21 -54 14 -19 -4 -24 -1 -28 21 -5 22 -1 27 23 32 30 6 38 18 17
25 -7 3 -39 -2 -71 -9 -33 -8 -61 -12 -63 -10 -2 2 13 29 33 60 l38 56 33 -26
c32 -24 62 -25 62 -3 0 7 -18 19 -40 28 -30 13 -38 21 -34 35 6 20 -12 47 -32
47 -7 0 -18 -17 -24 -37z"/>
  <path d="M370 218 c-7 -18 -15 -37 -18 -41 -5 -10 23 4 53 26 16 13 17 17 6
31 -19 23 -25 20 -41 -16z"/>
  <path d="M190 206 c0 -7 11 -23 25 -36 19 -18 28 -21 37 -12 9 9 7 16 -6 31
-21 23 -56 34 -56 17z"/>
</g>
<g id="part-2" class="char-part">
  <path d="M645 561 c-6 -5 -44 -28 -85 -50 -42 -23 -66 -41 -55 -41 18 0 203
58 215 68 8 6 -32 32 -50 32 -9 0 -20 -4 -25 -9z"/>
</g>
<g id="part-3" class="char-part">
  <path d="M582 466 c6 -29 -1 -31 -109 -42 -107 -10 -82 -28 28 -21 l89 6 0
-25 c0 -21 4 -25 23 -22 15 2 23 11 25 29 3 27 5 27 103 34 54 4 99 11 99 15
0 16 -43 22 -115 15 -68 -6 -73 -5 -78 14 -4 16 -13 21 -37 21 -29 0 -32 -3
-28 -24z"/>
</g>
<g id="part-4" class="char-part">
  <path d="M597 203 c-4 -3 -7 -17 -7 -30 0 -21 -4 -23 -47 -23 -38 -1 -44 -3
-31 -11 10 -5 24 -9 30 -8 42 5 58 -2 58 -25 0 -17 -6 -25 -17 -24 -63 1 -144
-6 -149 -13 -10 -17 52 -21 160 -10 62 6 141 11 177 11 60 1 63 2 44 16 -16
13 -36 15 -96 10 -70 -5 -77 -4 -82 14 -6 24 -4 26 51 35 53 9 45 29 -9 22
-36 -5 -39 -3 -39 19 0 17 -6 24 -18 24 -10 0 -22 -3 -25 -7z"/>
</g>
</g>
</svg>