<?xml version="1.0" standalone="no"?>
<!DOCTYPE svg PUBLIC "-//W3C//DTD SVG 20010904//EN"
 "http://www.w3.org/TR/2001/REC-SVG-20010904/DTD/svg10.dtd">
<svg version="1.0" xmlns="http://www.w3.org/2000/svg"
 width="96.000000pt" height="68.000000pt" viewBox="0 0 96.000000 68.000000"
 preserveAspectRatio="xMidYMid meet">
<metadata>
Created by potrace 1.16, written by Peter Selinger 2001-2019
Combined from part_0.svg through part_5.svg with named groups
</metadata>
<g transform="translate(0.000000,68.000000) scale(0.100000,-0.100000)" fill="#000000" stroke="none">
<g id="part-0" class="char-part">
  <path d="M710 570 c-14 -4 -48 -8 -77 -9 l-52 -1 5 -32 c4 -30 12 -115 13
-146 1 -9 6 -10 20 -2 11 5 43 10 71 10 l51 0 -3 -147 -3 -148 -35 3 -35 4 40
-36 c45 -41 47 -42 67 -18 13 14 17 58 20 264 l3 247 -23 10 c-26 12 -27 12
-62 1z m28 -52 c3 -26 0 -28 -30 -28 -18 0 -43 -3 -55 -6 -20 -6 -23 -3 -23
24 0 34 13 41 70 39 30 -2 35 -6 38 -29z m2 -72 c0 -26 -12 -33 -70 -38 -31
-3 -35 0 -38 24 -3 29 7 35 71 37 33 1 37 -2 37 -23z"/>
  <path d="M200 535 c0 -17 66 -75 86 -75 33 0 32 33 -2 59 -23 18 -84 30 -84
16z"/>
  <path d="M392 523 c-53 -4 -54 -5 -47 -31 4 -15 7 -74 6 -132 -1 -92 -6 -133
-28 -251 -5 -28 21 -59 37 -43 5 5 14 70 20 144 6 74 12 136 14 137 2 2 25 5
52 7 l49 4 11 79 c6 43 9 81 7 86 -4 7 -16 7 -121 0z m78 -43 c0 -27 -3 -30
-30 -30 -16 0 -33 0 -37 -1 -5 0 -10 8 -12 17 -4 22 25 44 56 44 19 0 23 -5
23 -30z m0 -65 c0 -18 -7 -28 -26 -35 -43 -17 -54 -13 -54 22 0 17 3 29 6 26
3 -3 17 -2 32 2 41 12 42 12 42 -15z"/>
  <path d="M167 359 c43 -44 73 -48 73 -10 0 27 -37 51 -80 51 l-35 0 42 -41z"/>
  <path d="M540 319 c-59 -10 -89 -19 -79 -23 10 -4 23 -7 30 -5 31 4 40 -2 37
-23 -2 -17 -11 -24 -30 -26 -38 -4 -36 -22 2 -22 25 0 30 -4 30 -24 0 -21 -6
-25 -51 -31 -31 -4 -47 -11 -42 -16 6 -6 37 -5 79 1 38 5 93 10 122 10 40 0
52 3 52 16 0 13 -11 15 -57 13 -53 -3 -58 -1 -61 18 -3 18 3 23 32 29 42 7 38
24 -5 24 -48 0 -34 33 19 44 42 10 53 20 30 28 -7 2 -56 -4 -108 -13z"/>
  <path d="M249 253 c-24 -32 -47 -60 -50 -63 -3 -3 -18 -15 -33 -27 -26 -21
-27 -25 -16 -57 12 -37 33 -52 48 -33 29 38 113 237 99 237 -2 0 -24 -26 -48
-57z"/>
</g>
<g id="part-1" class="char-part">
  <path d="M210 535 c0 -4 12 -22 27 -41 18 -24 33 -34 47 -32 29 4 31 32 4 50
-26 16 -78 32 -78 23z"/>
  <path d="M146 388 c31 -55 94 -80 94 -37 0 13 -11 25 -35 35 -43 18 -69 18
-59 2z"/>
  <path d="M246 241 c-26 -33 -57 -68 -71 -79 -28 -22 -31 -48 -11 -74 21 -29
32 -21 59 40 14 31 37 83 51 115 14 31 24 57 21 57 -2 0 -24 -27 -49 -59z"/>
</g>
<g id="part-2" class="char-part">
  <path d="M450 530 c-14 -4 -45 -8 -69 -9 -43 -1 -43 -1 -37 -32 3 -17 6 -56 6
-86 l0 -54 72 3 73 3 11 80 c15 102 7 115 -56 95z m20 -50 c0 -25 -4 -30 -24
-30 -13 0 -31 -3 -40 -6 -12 -5 -16 1 -16 24 0 31 10 38 58 41 18 1 22 -4 22
-29z m0 -75 c0 -14 -4 -25 -9 -25 -5 0 -23 -3 -40 -6 -28 -6 -31 -4 -31 19 0
28 11 35 53 36 22 1 27 -3 27 -24z"/>
</g>
<g id="part-3" class="char-part">
  <path d="M740 247 c0 -79 -3 -146 -6 -149 -3 -4 -19 -2 -37 3 -17 5 -32 7 -34
5 -2 -2 16 -21 42 -41 44 -37 46 -37 65 -20 18 17 20 31 20 182 l0 163 -25 0
-25 0 0 -143z"/>
</g>
<g id="part-4" class="char-part">
  <path d="M548 292 c-11 -2 -18 -13 -18 -28 0 -20 -5 -24 -30 -24 -16 0 -30 -5
-30 -10 0 -6 6 -10 13 -9 35 4 47 -2 47 -25 0 -22 -5 -25 -56 -32 -45 -5 -53
-9 -39 -17 12 -6 40 -6 86 2 37 6 87 11 111 11 24 0 50 4 57 9 22 14 -30 25
-79 17 -38 -6 -40 -5 -40 18 0 21 6 26 36 32 38 7 29 24 -13 24 -13 0 -23 7
-25 18 -2 11 -10 16 -20 14z"/>
</g>
</g>
</svg>