<?xml version="1.0" standalone="no"?>
<!DOCTYPE svg PUBLIC "-//W3C//DTD SVG 20010904//EN"
 "http://www.w3.org/TR/2001/REC-SVG-20010904/DTD/svg10.dtd">
<svg version="1.0" xmlns="http://www.w3.org/2000/svg"
 width="96.000000pt" height="68.000000pt" viewBox="0 0 96.000000 68.000000"
 preserveAspectRatio="xMidYMid meet">
<metadata>
Created by potrace 1.16, written by Peter Selinger 2001-2019
Combined from part_0.svg through part_5.svg with named groups
</metadata>
<g transform="translate(0.000000,68.000000) scale(0.100000,-0.100000)" fill="#000000" stroke="none">
<g id="part-0" class="char-part">
  <path d="M390 602 c0 -4 13 -24 30 -43 l29 -36 -101 -7 c-86 -5 -103 -4 -110
9 -13 23 -27 18 -40 -12 -7 -16 -21 -41 -31 -56 -18 -27 -18 -30 -3 -45 21
-21 45 -8 66 36 13 27 20 32 53 32 21 0 115 7 208 16 94 9 173 13 176 10 3 -3
-2 -17 -11 -32 -10 -14 -15 -28 -13 -31 8 -8 121 19 135 32 11 10 6 18 -24 44
-32 29 -42 32 -78 27 -23 -3 -69 -8 -102 -12 -60 -6 -61 -6 -68 21 -4 17 -18
31 -41 41 -37 15 -75 19 -75 6z"/>
  <path d="M402 412 c-151 -15 -152 -15 -135 -34 16 -17 18 -37 15 -142 -1 -68
-7 -131 -14 -144 -10 -18 -9 -26 5 -39 14 -14 22 -15 55 -5 22 7 114 15 206
19 92 3 169 10 172 15 11 17 -45 26 -125 21 l-82 -6 7 29 c4 16 8 37 8 47 0
13 9 17 38 17 33 0 39 4 52 34 8 18 19 37 25 40 38 24 -19 53 -92 47 -37 -3
-39 -2 -31 21 4 12 8 30 8 40 0 12 13 18 53 23 29 3 53 10 53 15 0 10 -27 20
-48 19 -9 -1 -86 -9 -170 -17z m68 -71 l0 -39 -66 -7 c-78 -8 -89 -1 -80 49
l7 36 69 0 70 0 0 -39z m93 -59 c3 -4 3 -19 0 -34 -5 -26 -8 -27 -92 -33 -47
-3 -101 -8 -118 -11 -32 -5 -33 -4 -33 30 l0 34 88 7 c48 3 96 7 107 9 38 6
44 6 48 -2z m-95 -143 l3 -47 -71 -7 c-85 -9 -95 -2 -85 54 6 38 8 40 48 44
23 2 56 4 72 3 28 -1 30 -3 33 -47z"/>
</g>
<g id="part-1" class="char-part">
  <path d="M400 601 c0 -5 13 -26 30 -44 l30 -34 -53 -7 c-82 -9 -162 -7 -175 6
-6 6 -13 10 -15 7 -51 -72 -67 -112 -48 -123 17 -11 38 5 57 40 12 21 26 34
39 34 11 0 106 9 210 19 105 10 193 17 197 14 5 -2 1 -17 -7 -33 -8 -16 -15
-31 -15 -33 0 -2 29 3 65 11 36 9 65 21 65 28 0 7 -16 22 -36 34 -32 20 -44
22 -111 16 -42 -4 -89 -10 -105 -13 -25 -5 -28 -3 -28 21 0 16 -9 31 -22 40
-32 20 -78 31 -78 17z"/>
</g>
<g id="part-2" class="char-part">
  <path d="M405 412 c-82 -8 -152 -16 -154 -19 -3 -2 4 -10 15 -17 17 -13 19
-26 16 -133 -2 -65 -8 -133 -15 -151 -14 -40 2 -56 48 -46 71 14 178 23 283
24 110 0 134 8 92 30 -15 8 -56 7 -148 -2 -70 -7 -149 -12 -177 -13 l-50 0 3
120 c5 188 -11 169 151 182 143 11 175 18 150 34 -17 11 -25 10 -214 -9z"/>
</g>
<g id="part-3" class="char-part">
  <path d="M470 349 c0 -32 3 -40 17 -37 17 3 37 54 27 70 -3 4 -14 8 -25 8 -16
0 -19 -7 -19 -41z"/>
</g>
<g id="part-4" class="char-part">
  <path d="M477 183 c-4 -3 -7 -26 -7 -49 0 -34 3 -42 15 -38 16 6 38 71 29 86
-6 10 -28 11 -37 1z"/>
</g>
</g>
</svg>