<?xml version="1.0" standalone="no"?>
<!DOCTYPE svg PUBLIC "-//W3C//DTD SVG 20010904//EN"
 "http://www.w3.org/TR/2001/REC-SVG-20010904/DTD/svg10.dtd">
<svg version="1.0" xmlns="http://www.w3.org/2000/svg"
 width="96.000000pt" height="68.000000pt" viewBox="0 0 96.000000 68.000000"
 preserveAspectRatio="xMidYMid meet">
<metadata>
Created by potrace 1.16, written by Peter Selinger 2001-2019
Combined from part_0.svg through part_5.svg with named groups
</metadata>
<g transform="translate(0.000000,68.000000) scale(0.100000,-0.100000)" fill="#000000" stroke="none">
<g id="part-0" class="char-part">
  <path d="M250 507 c0 -70 -12 -142 -25 -155 -3 -3 -35 -8 -70 -10 -70 -5 -79
-13 -41 -37 18 -12 33 -14 65 -6 37 8 40 7 31 -9 -18 -33 -11 -48 30 -66 40
-18 40 -18 20 -39 -10 -11 -44 -33 -75 -48 -30 -16 -55 -31 -55 -34 0 -17 89
10 136 42 l55 36 26 -21 c32 -25 59 -26 66 0 5 19 -28 50 -53 50 -7 0 -10 3
-8 8 2 4 14 35 27 70 18 47 30 64 47 68 23 6 34 24 14 24 -5 0 -19 9 -30 20
-31 31 -95 25 -68 -7 14 -18 8 -23 -35 -30 l-36 -6 31 93 c34 102 33 103 -29
122 -22 6 -23 4 -23 -65z m90 -196 c-19 -69 -45 -87 -84 -58 -25 19 -6 64 31
73 15 3 33 7 38 9 21 7 23 4 15 -24z"/>
  <path d="M610 500 c-14 -4 -50 -8 -80 -9 l-55 -1 3 -180 c2 -99 0 -180 -5
-181 -4 -1 -25 -3 -46 -4 -50 -4 -56 -12 -21 -26 21 -8 44 -8 84 1 30 6 121
14 203 17 81 3 147 10 147 15 0 16 -46 26 -94 21 l-48 -6 5 49 c4 27 9 97 13
157 3 59 10 110 16 113 5 3 2 14 -8 25 -18 20 -67 24 -114 9z m60 -125 l0
-102 -52 -7 c-99 -11 -98 -11 -98 38 l0 44 70 7 c39 4 70 12 70 17 0 7 -23 9
-65 5 -35 -3 -67 -2 -70 3 -3 5 -3 27 1 49 6 38 9 41 38 42 17 1 42 4 56 8 46
14 50 6 50 -104z m-8 -177 c-2 -29 -5 -54 -6 -54 0 -1 -30 -3 -66 -5 l-65 -4
0 50 0 50 50 6 c100 12 93 15 87 -43z"/>
</g>
<g id="part-1" class="char-part">
  <path d="M254 518 c4 -29 1 -80 -6 -113 l-13 -60 -67 -3 c-69 -3 -80 -10 -53
-32 10 -8 30 -10 59 -6 l45 7 -6 -34 c-5 -31 -2 -34 37 -52 l41 -19 -23 -22
c-13 -12 -50 -36 -83 -53 -33 -17 -53 -31 -44 -31 29 0 83 23 128 53 l45 30
39 -22 c27 -16 42 -20 49 -13 17 17 1 42 -32 53 l-29 11 18 36 c10 21 24 54
30 75 9 26 18 37 32 37 10 0 19 5 19 10 0 6 -5 10 -11 10 -7 0 -17 6 -23 14
-6 8 -21 17 -33 21 -20 6 -23 3 -23 -23 0 -27 -4 -30 -37 -34 -21 -3 -40 -4
-42 -2 -1 1 9 38 23 81 32 97 32 107 1 121 -43 20 -47 16 -41 -40z m96 -190
c0 -15 -37 -98 -43 -98 -20 0 -67 25 -67 35 0 35 20 64 47 68 53 8 63 7 63 -5z"/>
</g>
<g id="part-2" class="char-part">
  <path d="M620 504 c-25 -8 -69 -14 -98 -12 l-54 3 6 -29 c3 -16 6 -98 6 -182
0 -147 1 -154 20 -154 18 0 20 7 20 55 l0 55 38 0 c20 0 54 3 74 6 l37 7 -6
-52 c-5 -47 -4 -51 15 -51 18 0 21 8 26 63 14 164 23 243 30 260 7 13 1 20
-28 32 -19 8 -37 15 -38 14 -2 -1 -23 -7 -48 -15z m50 -73 l0 -48 -67 -6 c-37
-4 -71 -3 -75 1 -5 5 -5 26 0 48 7 34 12 40 42 45 19 4 50 7 68 8 32 1 32 1
32 -48z m-2 -156 c-2 -1 -36 -6 -75 -10 l-73 -7 0 45 0 44 73 9 72 9 3 -44 c2
-24 2 -44 0 -46z"/>
</g>
<g id="part-3" class="char-part">
  <path d="M590 140 c-96 -10 -184 -20 -195 -22 -18 -4 -18 -6 7 -18 21 -10 39
-10 90 -1 34 7 130 15 211 18 123 5 146 8 135 19 -22 22 -65 23 -248 4z"/>
</g>
</g>
</svg>