<?xml version="1.0" standalone="no"?>
<!DOCTYPE svg PUBLIC "-//W3C//DTD SVG 20010904//EN"
 "http://www.w3.org/TR/2001/REC-SVG-20010904/DTD/svg10.dtd">
<svg version="1.0" xmlns="http://www.w3.org/2000/svg"
 width="96.000000pt" height="68.000000pt" viewBox="0 0 96.000000 68.000000"
 preserveAspectRatio="xMidYMid meet">
<metadata>
Created by potrace 1.16, written by Peter Selinger 2001-2019
Combined from part_0.svg through part_5.svg with named groups
</metadata>
<g transform="translate(0.000000,68.000000) scale(0.100000,-0.100000)" fill="#000000" stroke="none">
<g id="part-0" class="char-part">
  <path d="M353 602 c0 -15 -3 -40 -7 -55 -5 -20 -3 -27 8 -27 8 0 19 6 23 14 5
8 27 16 53 18 52 4 60 22 12 26 -23 2 -32 8 -29 16 7 18 -12 36 -38 36 -17 0
-22 -6 -22 -28z"/>
  <path d="M256 612 c-3 -2 -1 -13 4 -22 8 -16 3 -19 -46 -25 -72 -9 -58 -30 18
-27 30 1 55 -3 59 -9 13 -22 25 0 21 39 -3 33 -8 41 -28 45 -13 2 -26 2 -28
-1z"/>
  <path d="M530 597 c0 -8 -11 -31 -25 -51 -14 -20 -25 -39 -25 -41 0 -2 23 -1
50 2 46 5 50 4 50 -15 0 -11 -3 -27 -6 -36 -7 -18 -39 -22 -49 -6 -3 6 -16 10
-28 10 -19 0 -17 -3 12 -21 l34 -21 -39 -19 c-36 -18 -37 -19 -9 -15 17 3 42
8 57 11 19 5 35 1 57 -14 23 -17 44 -21 100 -21 41 0 71 4 71 10 0 6 -15 10
-32 10 -34 0 -127 22 -147 35 -8 4 -5 16 10 36 12 17 19 38 16 49 -4 15 2 20
34 25 22 4 39 11 39 17 0 10 -15 9 -130 -8 l-45 -7 23 23 c13 12 22 29 20 38
-4 21 -38 29 -38 9z"/>
  <path d="M221 500 c-23 -31 -27 -45 -11 -35 9 6 80 15 145 18 29 2 30 1 30
-43 0 -39 -3 -45 -22 -48 -19 -3 -21 -6 -13 -23 12 -21 45 -26 56 -7 4 6 13
37 21 67 11 51 11 57 -5 69 -9 7 -30 11 -47 8 -112 -18 -115 -18 -109 -3 10
28 -23 26 -45 -3z"/>
  <path d="M222 443 c-18 -3 -32 -7 -30 -11 2 -4 10 -20 18 -35 8 -17 19 -26 28
-22 7 3 26 5 42 5 18 0 29 6 33 18 2 9 8 25 12 35 6 15 2 17 -31 15 -22 0 -54
-3 -72 -5z m66 -25 c-4 -28 -51 -33 -56 -6 -3 15 5 19 51 27 5 0 7 -9 5 -21z"/>
  <path d="M465 345 c-44 -8 -99 -14 -121 -14 l-42 -1 6 -45 c2 -25 -1 -58 -8
-75 -18 -44 -4 -56 53 -42 24 6 94 15 156 18 129 8 133 6 126 -65 -6 -58 -21
-74 -62 -68 -39 7 -40 4 -8 -28 29 -30 54 -32 82 -5 24 21 26 29 43 114 16 80
15 80 -127 76 -50 -1 -83 2 -83 8 0 13 25 22 61 22 20 0 28 4 23 11 -4 7 -21
9 -45 5 -31 -5 -39 -3 -39 9 0 11 12 15 45 15 25 0 45 5 45 10 0 6 -20 10 -45
10 -63 0 -56 16 10 26 56 9 76 28 33 31 -13 0 -59 -5 -103 -12z m-25 -44 c0
-9 -47 -21 -81 -21 -11 0 -19 7 -19 15 0 11 12 15 50 15 28 0 50 -4 50 -9z
m-2 -43 c-5 -15 -108 -24 -108 -10 0 17 14 22 63 22 34 0 47 -4 45 -12z m-1
-44 c5 -15 -86 -29 -99 -16 -6 6 -7 15 -3 22 9 14 97 9 102 -6z"/>
  <path d="M198 124 c-24 -47 -23 -74 2 -74 25 0 42 32 38 72 -4 43 -20 44 -40
2z"/>
  <path d="M510 153 c0 -18 49 -56 64 -50 32 12 12 40 -37 52 -15 4 -27 3 -27
-2z"/>
  <path d="M420 120 c23 -32 40 -39 40 -17 0 17 -32 47 -49 47 -8 0 -5 -11 9
-30z"/>
  <path d="M290 133 c0 -5 11 -21 24 -38 22 -27 25 -28 31 -12 5 11 1 25 -10 37
-18 20 -45 27 -45 13z"/>
</g>
<g id="part-1" class="char-part">
  <path d="M360 613 c0 -10 -3 -36 -6 -58 -5 -34 -3 -38 8 -24 7 9 34 19 61 23
29 4 45 11 41 18 -4 5 -20 7 -36 4 -26 -5 -28 -3 -23 14 4 13 0 22 -14 29 -27
15 -31 14 -31 -6z"/>
  <path d="M264 594 c8 -22 -9 -34 -51 -34 -18 0 -33 -5 -33 -11 0 -8 17 -10 55
-5 45 5 55 3 55 -9 0 -8 5 -15 11 -15 6 0 9 17 7 43 -3 36 -7 43 -27 45 -19 3
-23 0 -17 -14z"/>
</g>
<g id="part-2" class="char-part">
  <path d="M580 486 c0 -35 -25 -52 -56 -37 -36 16 -54 13 -21 -5 36 -20 34 -29
-10 -47 -32 -14 -34 -16 -14 -16 14 -1 39 4 57 11 28 10 37 8 68 -10 28 -17
53 -22 106 -22 38 0 72 5 75 10 4 6 -9 10 -32 10 -38 0 -131 21 -152 35 -8 4
-5 15 9 35 28 39 26 60 -5 60 -20 0 -25 -5 -25 -24z"/>
</g>
<g id="part-3" class="char-part">
  <path d="M505 350 c-22 -5 -79 -11 -127 -15 l-86 -7 10 -24 c8 -18 8 -38 -1
-76 -15 -66 -7 -74 56 -58 26 7 96 15 156 17 62 4 107 10 107 16 0 7 -38 7
-112 2 -186 -13 -173 -14 -172 20 1 17 2 42 3 58 1 26 2 27 64 28 77 0 193 22
190 35 -3 12 -39 14 -88 4z"/>
</g>
<g id="part-4" class="char-part">
  <path d="M437 295 c-4 -9 -10 -14 -14 -12 -5 3 -26 1 -48 -3 l-40 -8 53 -1
c39 -1 52 -5 52 -16 0 -11 -13 -15 -52 -17 l-53 -1 45 -4 c25 -2 50 -11 56
-19 15 -19 37 -14 46 9 5 12 19 17 48 17 23 0 40 5 40 11 0 8 -15 9 -45 5 -37
-6 -45 -4 -45 8 0 11 10 16 33 16 17 0 39 5 47 10 11 7 6 10 -21 10 -20 0 -50
3 -66 6 -23 4 -32 2 -36 -11z"/>
</g>
<g id="part-5" class="char-part">
  <path d="M535 130 c19 -19 32 -27 39 -20 11 11 -11 43 -24 35 -5 -3 -11 -1
-15 5 -3 5 -11 10 -17 10 -7 0 1 -14 17 -30z"/>
  <path d="M214 135 c-4 -11 -11 -22 -14 -25 -4 -3 -10 -14 -14 -25 -8 -27 27
-29 43 -3 9 14 8 18 -1 18 -9 0 -10 3 -2 8 7 4 8 15 4 27 l-8 20 -8 -20z"/>
  <path d="M420 132 c1 -17 28 -43 35 -33 3 6 1 11 -5 11 -6 0 -9 4 -6 9 3 5 -1
11 -9 15 -8 3 -15 2 -15 -2z"/>
  <path d="M310 115 c0 -8 8 -15 18 -14 10 0 12 3 4 6 -6 2 -10 9 -6 14 3 5 0 9
-5 9 -6 0 -11 -7 -11 -15z"/>
  <path d="M328 83 c7 -3 16 -2 19 1 4 3 -2 6 -13 5 -11 0 -14 -3 -6 -6z"/>
</g>
</g>
</svg>