<?xml version="1.0" standalone="no"?>
<!DOCTYPE svg PUBLIC "-//W3C//DTD SVG 20010904//EN"
 "http://www.w3.org/TR/2001/REC-SVG-20010904/DTD/svg10.dtd">
<svg version="1.0" xmlns="http://www.w3.org/2000/svg"
 width="96.000000pt" height="68.000000pt" viewBox="0 0 96.000000 68.000000"
 preserveAspectRatio="xMidYMid meet">
<metadata>
Created by potrace 1.16, written by Peter Selinger 2001-2019
Combined from part_0.svg through part_5.svg with named groups
</metadata>
<g transform="translate(0.000000,68.000000) scale(0.100000,-0.100000)" fill="#000000" stroke="none">
<g id="part-0" class="char-part">
  <path d="M260 594 c0 -5 11 -21 25 -36 14 -15 21 -29 17 -31 -4 -3 -35 -8 -69
-12 -65 -7 -80 -18 -41 -31 28 -8 42 -24 46 -49 2 -11 8 -25 13 -32 14 -17 0
-22 -80 -29 -67 -7 -84 -15 -61 -29 9 -6 70 2 180 21 14 2 62 7 108 11 63 5
82 9 82 21 0 12 -10 14 -55 8 -30 -3 -55 -4 -55 -2 0 3 9 21 21 40 11 19 18
40 14 45 -3 6 6 13 20 17 14 3 25 13 25 21 0 12 -11 14 -48 11 -41 -2 -48 0
-45 13 3 8 -2 21 -10 28 -19 15 -87 27 -87 15z m91 -177 c-8 -21 -17 -27 -41
-27 -23 0 -30 5 -30 19 0 10 -9 30 -20 44 l-21 26 33 5 c79 13 83 12 86 -15 2
-14 -2 -37 -7 -52z"/>
  <path d="M500 571 c0 -11 5 -23 11 -27 8 -4 10 -30 7 -76 -3 -37 -2 -71 2 -73
5 -3 32 1 61 8 69 18 91 12 87 -21 -4 -32 -49 -46 -128 -39 l-55 5 3 -131 c2
-79 7 -136 14 -145 36 -43 167 -64 270 -43 71 15 84 29 64 67 -8 16 -18 38
-22 49 -6 18 -8 16 -21 -15 -8 -19 -22 -40 -31 -47 -22 -16 -162 -17 -197 -1
-29 13 -28 32 1 35 10 1 51 5 89 9 97 9 55 24 -47 17 -74 -6 -78 -5 -78 15 0
18 8 21 78 27 120 10 136 27 19 20 -98 -5 -98 -5 -95 17 2 18 10 24 38 25 93
7 140 15 140 25 0 10 -124 3 -156 -9 -10 -4 -14 3 -14 21 0 32 3 33 103 41 59
5 77 10 73 20 -2 7 4 30 14 49 18 36 18 37 -3 47 -15 9 -38 8 -90 -1 -73 -13
-92 -7 -85 26 2 15 17 21 73 27 101 12 117 16 109 29 -7 10 -84 6 -148 -8 -27
-7 -28 -6 -21 25 6 27 3 32 -20 41 -37 14 -45 13 -45 -9z"/>
  <path d="M345 339 c-16 -5 -55 -10 -85 -12 l-55 -4 3 -39 c2 -22 -4 -73 -12
-114 -18 -85 -20 -120 -7 -120 16 0 30 26 37 67 6 42 6 42 59 48 56 7 86 5 86
-7 -1 -5 -1 -24 -1 -43 0 -34 -1 -35 -37 -35 l-38 -1 35 -29 c41 -34 40 -34
65 -16 16 12 20 32 25 147 6 111 4 137 -8 152 -17 19 -23 19 -67 6z m23 -43
c5 -26 -6 -33 -70 -41 -57 -6 -58 -6 -58 19 0 26 9 31 75 39 42 5 50 3 53 -17z
m6 -78 c-3 -13 -7 -24 -8 -24 0 -1 -29 -4 -63 -8 -62 -7 -63 -7 -63 18 0 22 5
25 43 29 100 9 99 9 91 -15z"/>
</g>
<g id="part-1" class="char-part">
  <path d="M270 586 c0 -8 14 -26 31 -39 l31 -24 -64 -7 c-71 -8 -102 -20 -70
-28 20 -5 214 17 241 27 30 11 -11 25 -55 19 -40 -6 -41 -5 -37 19 4 20 0 26
-28 36 -42 14 -49 14 -49 -3z"/>
</g>
<g id="part-2" class="char-part">
  <path d="M345 340 c-16 -4 -56 -8 -88 -9 l-59 -1 6 -37 c4 -21 2 -63 -4 -93
-21 -111 -23 -137 -10 -145 16 -10 28 10 36 61 6 40 7 42 51 48 91 12 93 11
93 -39 l0 -45 -37 0 -38 -1 35 -29 c69 -58 83 -36 91 134 4 107 3 134 -9 149
-16 18 -21 19 -67 7z m25 -50 c0 -14 -12 -21 -50 -29 -73 -16 -80 -14 -80 14
0 19 6 25 33 29 91 15 97 14 97 -14z m0 -75 c0 -21 -5 -25 -27 -25 -16 0 -45
-3 -65 -6 -36 -6 -38 -5 -38 19 0 22 5 26 38 30 90 9 92 9 92 -18z"/>
</g>
<g id="part-3" class="char-part">
  <path d="M505 563 c4 -16 8 -52 9 -80 1 -43 4 -53 18 -53 11 0 18 10 20 28 3
26 6 27 73 35 101 12 117 16 109 29 -7 10 -72 7 -141 -8 -33 -6 -33 -6 -27 25
6 27 3 32 -20 41 -43 16 -49 13 -41 -17z"/>
</g>
<g id="part-4" class="char-part">
  <path d="M635 440 c-22 -5 -59 -9 -82 -9 -45 -1 -61 -12 -40 -30 9 -7 24 -8
45 -2 17 5 51 11 74 12 42 3 43 3 40 -26 -2 -17 -6 -32 -9 -35 -2 -3 -45 -5
-94 -5 -49 0 -89 -3 -89 -7 0 -11 24 -22 45 -21 11 1 59 5 107 8 69 5 86 10
81 21 -3 8 2 25 11 39 19 29 21 55 4 55 -7 0 -22 2 -33 4 -11 2 -38 0 -60 -4z"/>
</g>
<g id="part-5" class="char-part">
  <path d="M504 159 c-18 -22 -6 -72 23 -96 15 -12 31 -19 35 -17 5 3 16 0 25
-8 25 -20 164 -16 198 6 15 10 24 13 21 7 -10 -16 10 -13 23 3 10 12 10 20 0
38 -13 23 -15 28 -18 51 -1 6 -7 1 -12 -13 -7 -17 -7 -26 0 -28 6 -2 11 -8 11
-13 0 -4 -6 -6 -14 -3 -8 3 -25 -1 -38 -9 -13 -8 -59 -17 -103 -20 -53 -3 -73
-2 -60 4 18 9 18 9 -3 5 -15 -3 -33 3 -48 16 -19 18 -21 24 -11 37 8 10 9 13
0 8 -8 -5 -13 2 -15 20 -2 21 -5 24 -14 12z"/>
  <path d="M655 140 c-16 -7 -17 -9 -3 -9 9 -1 20 4 23 9 7 11 7 11 -20 0z"/>
  <path d="M580 130 c-35 -7 -35 -7 -5 -9 17 0 37 4 45 9 17 11 11 11 -40 0z"/>
</g>
</g>
</svg>