<?xml version="1.0" standalone="no"?>
<!DOCTYPE svg PUBLIC "-//W3C//DTD SVG 20010904//EN"
 "http://www.w3.org/TR/2001/REC-SVG-20010904/DTD/svg10.dtd">
<svg version="1.0" xmlns="http://www.w3.org/2000/svg"
 width="96.000000pt" height="68.000000pt" viewBox="0 0 96.000000 68.000000"
 preserveAspectRatio="xMidYMid meet">
<metadata>
Created by potrace 1.16, written by Peter Selinger 2001-2019
Combined from part_0.svg through part_5.svg with named groups
</metadata>
<g transform="translate(0.000000,68.000000) scale(0.100000,-0.100000)" fill="#000000" stroke="none">
<g id="part-0" class="char-part">
  <path d="M548 603 c-3 -36 -5 -39 -45 -47 -24 -6 -43 -13 -43 -17 0 -10 49
-21 62 -13 8 5 9 -1 5 -17 -4 -13 -7 -29 -7 -35 0 -14 -55 -23 -189 -31 -76
-4 -102 -3 -97 6 4 6 3 11 -2 11 -14 0 -42 -46 -49 -81 -5 -26 -3 -30 12 -28
10 2 25 19 34 36 13 26 22 33 47 33 17 0 59 3 93 6 57 6 61 6 61 -14 0 -17 -8
-22 -55 -27 -30 -4 -55 -11 -55 -16 0 -4 27 -9 60 -11 89 -4 65 -27 -38 -35
-66 -5 -80 -8 -71 -19 6 -7 16 -35 23 -61 l12 -48 62 0 c56 0 62 -2 62 -20 0
-19 -7 -21 -77 -23 -112 -3 -203 -13 -203 -22 0 -15 60 -19 142 -10 46 6 97
10 113 10 30 0 30 -1 30 -54 0 -52 8 -76 21 -63 4 3 9 32 13 64 l6 58 157 1
c87 0 161 4 165 7 4 4 1 13 -5 19 -14 14 -104 16 -224 5 -85 -9 -88 -8 -88 12
0 18 6 21 48 22 98 2 93 0 128 64 32 58 32 61 15 78 -17 17 -25 18 -89 8 -94
-15 -102 -14 -102 7 0 14 9 18 51 19 28 0 56 6 62 12 12 12 -11 16 -70 12 -24
-2 -33 2 -33 12 0 9 -6 17 -12 20 -7 2 36 8 95 12 59 4 111 5 114 1 3 -3 -1
-14 -10 -24 -30 -33 -27 -34 66 -11 20 6 37 14 37 19 0 4 -16 18 -35 30 -27
16 -44 20 -77 16 -24 -3 -65 -8 -91 -11 l-48 -5 28 34 c24 31 33 35 95 41 45
5 68 11 68 20 0 17 -45 28 -82 19 -26 -5 -29 -4 -24 12 8 26 -4 41 -36 49 -25
6 -27 5 -30 -32z m69 -288 c8 -21 7 -22 -69 -30 -64 -6 -68 -5 -68 14 0 21 17
27 88 30 30 1 44 -4 49 -14z m-181 -23 c-2 -13 -16 -18 -57 -23 -52 -5 -73 3
-66 26 3 9 103 24 119 18 3 -2 5 -11 4 -21z m174 -29 c-1 -21 -20 -31 -72 -35
-51 -4 -58 -2 -58 13 0 10 9 19 23 22 39 8 107 7 107 0z m-170 -17 c0 -26 -16
-36 -61 -36 -42 0 -49 3 -49 20 0 18 7 20 55 20 30 0 55 -2 55 -4z"/>
  <path d="M294 607 c-3 -9 2 -27 11 -41 l17 -26 -60 0 c-69 0 -84 -12 -48 -35
20 -14 31 -14 67 -5 44 12 59 5 72 -33 7 -22 27 5 21 28 -5 20 -1 25 23 31 47
11 50 19 8 24 -35 4 -40 9 -43 33 -2 15 -9 27 -17 27 -7 0 -20 3 -29 6 -9 4
-18 0 -22 -9z"/>
</g>
<g id="part-1" class="char-part">
  <path d="M550 596 c0 -36 -12 -46 -56 -46 -14 0 -22 -4 -19 -10 3 -5 19 -10
35 -10 27 0 29 -2 20 -25 -13 -35 4 -32 32 5 20 28 26 30 84 30 61 0 87 11 63
26 -7 4 -34 6 -61 5 -46 -1 -48 0 -38 18 8 16 7 22 -9 31 -37 19 -51 12 -51
-24z"/>
  <path d="M302 593 c3 -10 9 -26 13 -35 6 -14 -2 -18 -54 -24 -53 -6 -60 -9
-49 -21 9 -12 25 -14 69 -9 52 6 58 5 64 -14 10 -30 25 -24 25 10 0 25 4 30
24 30 14 0 28 5 31 10 4 6 -8 10 -29 10 -30 0 -35 3 -38 28 -2 21 -9 28 -32
30 -24 3 -28 0 -24 -15z"/>
</g>
<g id="part-2" class="char-part">
  <path d="M669 476 c-2 -2 -98 -12 -213 -22 -202 -17 -209 -17 -222 1 -12 17
-15 15 -34 -26 -11 -24 -20 -52 -20 -61 0 -29 29 -20 50 15 20 32 20 32 137
44 187 19 323 27 323 18 0 -5 -10 -20 -22 -33 -23 -24 -23 -24 -2 -18 12 4 41
10 65 14 23 4 44 13 46 19 8 23 -89 67 -108 49z"/>
</g>
<g id="part-3" class="char-part">
  <path d="M437 433 c-4 -3 -7 -14 -7 -24 0 -14 -12 -19 -55 -24 -71 -9 -71 -25
-1 -25 39 0 55 -4 60 -15 8 -21 37 -19 43 4 4 15 18 21 56 26 29 4 56 10 61
13 17 10 -28 20 -65 15 -31 -4 -37 -2 -42 16 -5 20 -36 29 -50 14z"/>
</g>
<g id="part-4" class="char-part">
  <path d="M447 193 c-10 -3 -16 -11 -14 -18 7 -16 -41 -25 -138 -25 -38 -1 -88
-5 -110 -9 l-40 -8 28 -11 c21 -9 52 -9 115 -2 146 17 139 19 144 -45 8 -91
24 -90 36 1 l7 59 163 3 c120 2 162 6 160 14 -8 23 -69 29 -176 19 -141 -15
-142 -15 -142 9 0 20 -2 21 -33 13z"/>
</g>
</g>
</svg>