<?xml version="1.0" standalone="no"?>
<!DOCTYPE svg PUBLIC "-//W3C//DTD SVG 20010904//EN"
 "http://www.w3.org/TR/2001/REC-SVG-20010904/DTD/svg10.dtd">
<svg version="1.0" xmlns="http://www.w3.org/2000/svg"
 width="96.000000pt" height="68.000000pt" viewBox="0 0 96.000000 68.000000"
 preserveAspectRatio="xMidYMid meet">
<metadata>
Created by potrace 1.16, written by Peter Selinger 2001-2019
Combined from part_0.svg through part_5.svg with named groups
</metadata>
<g transform="translate(0.000000,68.000000) scale(0.100000,-0.100000)" fill="#000000" stroke="none">
<g id="part-0" class="char-part">
  <path d="M532 566 c-29 -19 -73 -40 -98 -47 -42 -13 -63 -31 -26 -24 224 45
268 65 207 93 -32 15 -20 18 -83 -22z"/>
  <path d="M206 561 c-8 -13 63 -81 84 -81 18 0 21 5 18 32 -3 29 -7 33 -51 44
-26 7 -49 9 -51 5z"/>
  <path d="M659 459 c-25 -27 -42 -49 -38 -49 15 0 118 50 124 60 8 13 -12 40
-29 39 -6 0 -32 -23 -57 -50z"/>
  <path d="M490 472 c0 -4 11 -19 25 -32 20 -19 28 -21 37 -12 9 9 10 17 2 30
-12 18 -64 30 -64 14z"/>
  <path d="M366 438 c25 -44 74 -67 74 -34 0 18 -18 32 -53 40 -22 5 -27 4 -21
-6z"/>
  <path d="M120 413 c1 -13 46 -60 69 -72 27 -15 41 -7 41 24 0 17 -9 27 -40 39
-43 17 -70 21 -70 9z"/>
  <path d="M545 350 c-33 -16 -82 -36 -110 -44 l-50 -15 55 2 c55 2 55 2 58 -30
l3 -32 -70 -7 c-43 -4 -68 -10 -64 -16 3 -6 32 -8 74 -4 l69 7 0 -39 0 -40
-47 -6 c-27 -3 -72 -7 -100 -8 -73 -4 -61 -23 13 -22 197 3 434 18 431 28 -3
7 -45 10 -125 9 l-122 -2 0 44 0 45 69 0 c70 0 100 13 60 25 -12 4 -45 4 -75
0 -53 -6 -54 -6 -54 18 0 14 -3 32 -6 40 -4 11 5 16 33 22 21 4 46 11 56 17
18 9 18 10 0 23 -24 19 -29 18 -98 -15z"/>
  <path d="M250 275 c-36 -52 -90 -105 -107 -105 -17 0 -17 -62 -1 -78 21 -21
46 -13 57 19 6 17 31 64 56 105 44 73 55 104 35 104 -5 0 -23 -20 -40 -45z"/>
</g>
<g id="part-1" class="char-part">
  <path d="M230 530 c26 -36 52 -51 69 -41 21 13 3 48 -31 60 -53 19 -62 15 -38
-19z"/>
  <path d="M154 375 c36 -35 60 -43 70 -26 16 26 -30 61 -80 61 -25 0 -25 0 10
-35z"/>
  <path d="M232 244 c-29 -35 -64 -70 -77 -76 -28 -12 -30 -25 -13 -63 16 -36
33 -31 57 20 11 24 36 68 54 97 67 106 56 118 -21 22z"/>
</g>
<g id="part-2" class="char-part">
  <path d="M547 574 c-21 -14 -66 -36 -100 -49 -48 -19 -56 -24 -34 -25 36 0
237 50 237 60 0 11 -21 26 -45 34 -13 4 -34 -3 -58 -20z"/>
  <path d="M659 459 c-25 -27 -42 -49 -37 -49 5 0 38 14 75 30 65 30 66 30 48
50 -10 11 -23 20 -29 19 -6 0 -32 -23 -57 -50z"/>
  <path d="M490 472 c0 -12 44 -52 58 -52 20 0 24 21 6 41 -17 19 -64 27 -64 11z"/>
  <path d="M360 442 c0 -15 45 -52 63 -52 26 0 21 37 -5 45 -13 4 -31 9 -40 11
-10 3 -18 1 -18 -4z"/>
</g>
<g id="part-3" class="char-part">
  <path d="M565 358 c-22 -12 -74 -32 -115 -45 l-75 -23 65 6 c64 6 197 38 209
50 6 5 -27 34 -38 34 -3 -1 -24 -11 -46 -22z"/>
</g>
<g id="part-4" class="char-part">
  <path d="M513 303 c-7 -2 -13 -20 -13 -38 l0 -34 -70 -7 c-42 -4 -67 -10 -63
-16 3 -6 32 -8 74 -4 l69 7 0 -43 0 -43 -43 -2 c-23 -1 -71 -5 -106 -9 -51 -5
-61 -8 -47 -16 13 -7 67 -7 170 1 83 6 191 11 239 11 67 0 88 3 84 13 -3 9
-37 12 -127 12 l-123 0 -2 38 c-2 20 0 39 4 41 4 3 39 6 79 7 40 2 72 7 72 11
0 14 -43 20 -96 13 l-54 -6 0 29 c0 18 -6 32 -16 36 -9 3 -16 6 -17 5 -1 0 -8
-3 -14 -6z"/>
</g>
</g>
</svg>