<?xml version="1.0" standalone="no"?>
<!DOCTYPE svg PUBLIC "-//W3C//DTD SVG 20010904//EN"
 "http://www.w3.org/TR/2001/REC-SVG-20010904/DTD/svg10.dtd">
<svg version="1.0" xmlns="http://www.w3.org/2000/svg"
 width="96.000000pt" height="68.000000pt" viewBox="0 0 96.000000 68.000000"
 preserveAspectRatio="xMidYMid meet">
<metadata>
Created by potrace 1.16, written by Peter Selinger 2001-2019
Combined from part_0.svg through part_5.svg with named groups
</metadata>
<g transform="translate(0.000000,68.000000) scale(0.100000,-0.100000)" fill="#000000" stroke="none">
<g id="part-0" class="char-part">
  <path d="M542 573 c-88 -14 -105 -14 -112 -2 -6 9 -15 0 -29 -35 -26 -58 -26
-68 -3 -64 9 2 23 17 31 34 12 27 20 32 60 37 25 3 47 4 48 4 0 -1 3 -15 5
-31 3 -26 -1 -30 -37 -42 l-40 -12 36 -1 c27 -1 38 -6 42 -20 3 -11 2 -22 -1
-25 -3 -3 -37 -6 -76 -6 -50 -1 -66 -3 -55 -10 9 -5 20 -27 24 -47 4 -21 13
-53 21 -71 12 -29 16 -32 33 -23 35 19 51 13 51 -19 l0 -30 -62 -1 c-35 0 -83
-4 -108 -8 -44 -7 -44 -8 -19 -19 19 -7 49 -8 103 0 43 5 80 7 84 3 4 -4 9
-42 11 -86 4 -109 31 -106 31 4 0 101 -5 97 136 97 68 0 124 4 124 9 0 21 -57
30 -145 22 -95 -8 -109 -5 -103 25 3 15 13 19 43 20 22 0 45 2 52 2 7 1 20 25
30 52 10 28 21 50 25 50 17 0 7 30 -13 40 -20 11 -87 16 -119 8 -9 -2 -15 4
-15 17 0 15 10 21 43 28 53 10 55 27 3 27 -33 0 -39 3 -43 25 -3 13 -3 27 0
30 3 3 34 5 70 5 63 0 64 0 60 -25 -5 -22 -3 -25 16 -19 11 4 34 13 50 21 26
13 27 16 13 30 -22 22 -139 25 -265 6z m136 -185 c-2 -19 -10 -24 -45 -26 -37
-3 -43 0 -43 17 0 20 16 28 63 30 24 1 28 -3 25 -21z m-138 -12 c0 -20 -6 -25
-35 -28 -23 -3 -36 1 -40 10 -10 26 -5 31 33 35 20 2 38 4 40 5 1 1 2 -9 2
-22z m123 -56 c-4 -15 -14 -20 -39 -20 -27 0 -34 4 -34 20 0 17 7 20 39 20 34
0 38 -3 34 -20z m-123 -10 c0 -16 -7 -20 -30 -20 -23 0 -30 4 -30 20 0 16 7
20 30 20 23 0 30 -4 30 -20z"/>
  <path d="M234 531 c-51 -9 -93 -20 -93 -26 -1 -5 20 -12 46 -15 l48 -5 3 -47
3 -47 -46 -6 c-63 -10 -67 -25 -5 -25 l51 0 -3 -57 -3 -56 -58 -17 c-64 -17
-74 -30 -36 -44 20 -7 43 -1 110 29 46 21 93 45 104 53 19 14 19 14 -5 8 -14
-3 -35 -9 -48 -12 -22 -6 -23 -5 -20 52 l3 58 43 9 c51 10 46 30 -6 25 l-37
-3 1 45 c1 45 1 45 44 56 50 12 62 29 28 38 -13 3 -25 5 -28 4 -3 0 -46 -8
-96 -17z"/>
</g>
<g id="part-1" class="char-part">
  <path d="M215 521 l-90 -16 60 -5 c33 -4 76 -3 95 1 19 4 47 10 63 14 15 3 27
10 27 15 0 13 -47 11 -155 -9z"/>
</g>
<g id="part-2" class="char-part">
  <path d="M237 444 l6 -52 -52 -7 c-66 -9 -66 -25 -1 -25 l51 0 -3 -57 -3 -57
-60 -14 c-71 -18 -71 -17 -55 -37 21 -25 52 -18 171 39 100 48 135 72 67 47
-13 -4 -35 -11 -50 -15 -28 -6 -28 -6 -28 48 l0 54 45 11 c52 13 51 31 -1 31
-34 0 -34 0 -34 45 0 44 -1 45 -29 43 -29 -2 -29 -3 -24 -54z"/>
</g>
<g id="part-3" class="char-part">
  <path d="M550 575 c-69 -9 -109 -10 -117 -3 -8 7 -18 -2 -32 -33 -12 -24 -21
-49 -21 -57 0 -24 35 -8 50 24 14 30 18 32 107 43 50 6 115 11 144 11 50 0 51
-1 46 -25 -3 -17 0 -24 7 -21 6 3 28 10 49 17 45 15 48 33 6 48 -39 13 -101
12 -239 -4z"/>
</g>
<g id="part-4" class="char-part">
  <path d="M540 533 c5 -41 -1 -50 -37 -60 l-38 -10 38 -2 c30 -1 37 -5 37 -21
0 -30 47 -28 52 2 2 14 11 24 23 26 51 7 65 13 59 23 -4 7 -21 9 -40 6 -30 -5
-33 -3 -36 21 -2 21 -9 28 -31 30 -23 3 -28 0 -27 -15z"/>
</g>
<g id="part-5" class="char-part">
  <path d="M561 261 c-8 -5 -11 -16 -8 -24 3 -8 0 -20 -6 -27 -10 -10 -8 -12 7
-6 14 5 16 3 9 -6 -10 -13 -12 -153 -2 -162 6 -6 12 42 13 107 1 60 8 63 151
60 99 -2 108 -1 90 13 -15 11 -37 13 -98 8 -43 -3 -91 -10 -107 -14 -21 -6
-27 -5 -24 4 8 22 -10 56 -25 47z"/>
  <path d="M433 203 c-24 -2 -43 -9 -43 -14 0 -7 15 -8 43 -3 23 4 47 7 54 7 7
0 10 4 7 9 -3 4 -8 7 -12 6 -4 -1 -26 -3 -49 -5z"/>
  <path d="M347 189 c7 -7 15 -10 18 -7 3 3 -2 9 -12 12 -14 6 -15 5 -6 -5z"/>
</g>
</g>
</svg>