<?xml version="1.0" standalone="no"?>
<!DOCTYPE svg PUBLIC "-//W3C//DTD SVG 20010904//EN"
 "http://www.w3.org/TR/2001/REC-SVG-20010904/DTD/svg10.dtd">
<svg version="1.0" xmlns="http://www.w3.org/2000/svg"
 width="96.000000pt" height="68.000000pt" viewBox="0 0 96.000000 68.000000"
 preserveAspectRatio="xMidYMid meet">
<metadata>
Created by potrace 1.16, written by Peter Selinger 2001-2019
Combined from part_0.svg through part_5.svg with named groups
</metadata>
<g transform="translate(0.000000,68.000000) scale(0.100000,-0.100000)" fill="#000000" stroke="none">
<g id="part-0" class="char-part">
  <path d="M500 558 c-25 -4 -94 -14 -155 -21 -60 -7 -110 -17 -110 -22 0 -6 33
-11 73 -13 69 -3 72 -4 72 -28 0 -73 -50 -103 -152 -90 -49 7 -50 6 -44 -16 4
-13 10 -57 12 -98 7 -100 12 -120 29 -120 18 0 19 9 15 123 l-2 87 56 0 56 0
0 -77 c0 -143 37 -141 42 2 l3 90 44 3 c24 2 48 -1 53 -6 5 -5 5 -48 -1 -108
-10 -98 -4 -131 20 -107 10 10 42 180 41 216 -1 15 9 17 68 17 53 0 69 -4 74
-16 8 -20 6 -140 -3 -179 -6 -27 -10 -30 -44 -28 -38 2 -39 -2 -15 -32 5 -5
14 -18 21 -28 11 -16 17 -17 38 -7 32 15 55 79 63 175 3 39 8 79 11 91 5 15
-1 25 -21 39 -29 19 -22 19 -302 -12 l-53 -5 25 37 c14 20 28 45 31 55 7 22
19 26 100 35 78 8 95 13 95 30 0 24 -56 30 -140 13z"/>
</g>
<g id="part-1" class="char-part">
  <path d="M395 539 c-77 -9 -144 -18 -148 -18 -5 -1 -5 -5 -2 -11 3 -5 37 -10
76 -10 77 0 80 -4 54 -67 -18 -43 -18 -43 -2 -43 12 0 77 91 77 109 0 4 41 14
92 20 99 13 103 14 93 30 -8 15 -71 12 -240 -10z"/>
</g>
<g id="part-2" class="char-part">
  <path d="M535 403 c-72 -7 -182 -14 -246 -16 l-116 -2 14 -44 c7 -24 13 -75
13 -113 0 -54 3 -70 16 -75 27 -10 33 18 27 113 l-6 91 59 6 c217 22 366 30
382 20 14 -8 17 -26 17 -89 0 -129 -17 -155 -77 -123 -18 10 -17 5 8 -30 32
-44 46 -53 69 -44 27 10 47 64 56 152 4 47 11 98 14 112 5 21 2 30 -16 43 -27
18 -36 18 -214 -1z"/>
</g>
<g id="part-3" class="char-part">
  <path d="M348 363 c-2 -5 -1 -46 2 -93 4 -66 8 -85 20 -85 12 0 16 18 18 93 3
86 1 92 -17 92 -11 0 -21 -3 -23 -7z"/>
</g>
<g id="part-4" class="char-part">
  <path d="M493 302 c-1 -43 -4 -90 -7 -104 -2 -14 0 -31 5 -39 16 -26 30 5 44
97 7 49 15 96 17 104 2 10 -6 16 -27 18 l-30 3 -2 -79z"/>
</g>
</g>
</svg>