<?xml version="1.0" standalone="no"?>
<!DOCTYPE svg PUBLIC "-//W3C//DTD SVG 20010904//EN"
 "http://www.w3.org/TR/2001/REC-SVG-20010904/DTD/svg10.dtd">
<svg version="1.0" xmlns="http://www.w3.org/2000/svg"
 width="96.000000pt" height="68.000000pt" viewBox="0 0 96.000000 68.000000"
 preserveAspectRatio="xMidYMid meet">
<metadata>
Created by potrace 1.16, written by Peter Selinger 2001-2019
Combined from part_0.svg through part_5.svg with named groups
</metadata>
<g transform="translate(0.000000,68.000000) scale(0.100000,-0.100000)" fill="#000000" stroke="none">
<g id="part-0" class="char-part">
  <path d="M562 545 c0 -25 -2 -48 -4 -51 -3 -2 -35 -7 -71 -11 -40 -3 -64 -10
-60 -16 3 -6 33 -7 74 -3 63 6 69 5 69 -13 0 -21 -19 -31 -61 -31 -16 0 -29
-4 -29 -10 0 -13 48 -13 143 2 85 13 102 28 32 28 -38 0 -45 3 -45 20 0 17 7
20 53 21 28 1 63 4 77 9 42 13 -2 23 -72 17 l-60 -5 5 33 c6 35 -7 55 -35 55
-14 0 -17 -8 -16 -45z"/>
  <path d="M240 562 c0 -22 59 -72 85 -72 20 0 25 5 25 25 0 19 -8 28 -27 36
-47 18 -83 22 -83 11z"/>
  <path d="M310 442 c-18 -7 -64 -16 -102 -19 -37 -3 -68 -10 -68 -14 0 -19 57
-21 121 -4 37 9 73 15 80 13 16 -5 -124 -146 -192 -193 -33 -22 -44 -34 -29
-30 34 10 68 29 109 59 19 14 39 26 43 26 12 0 10 -128 -3 -173 -8 -31 -7 -43
6 -63 26 -39 35 -19 35 75 0 144 13 177 53 131 17 -20 38 -26 50 -13 12 12
-15 33 -57 44 -22 6 -44 16 -48 22 -6 10 50 71 94 102 46 32 -30 63 -92 37z"/>
  <path d="M560 368 c-30 -5 -63 -7 -72 -4 -22 5 -22 8 2 -42 12 -24 18 -47 15
-52 -3 -5 1 -23 9 -39 15 -27 14 -29 -7 -35 -12 -3 -48 -6 -79 -6 -32 0 -58
-4 -58 -9 0 -15 43 -20 85 -10 22 6 120 13 218 16 97 3 177 10 177 14 0 15
-51 22 -118 16 l-65 -7 21 23 c22 24 29 47 13 47 -12 0 -1 47 15 60 7 6 10 18
7 26 -6 16 -74 17 -163 2z m100 -32 c0 -23 -5 -25 -65 -31 -73 -8 -72 -8 -77
20 -2 17 4 21 42 26 92 12 100 11 100 -15z m-2 -72 c4 -29 -19 -52 -60 -59
-32 -6 -37 -4 -43 17 -5 12 -15 28 -24 35 -14 10 -14 12 -1 17 16 6 98 13 115
11 6 -1 11 -10 13 -21z"/>
  <path d="M558 147 c-65 -6 -118 -14 -118 -18 0 -5 4 -9 10 -9 5 0 14 -17 20
-37 15 -57 25 -69 43 -54 9 7 21 11 29 10 48 -6 168 2 168 13 0 6 12 26 26 45
14 19 24 36 23 37 -15 12 -51 26 -66 24 -10 -1 -71 -6 -135 -11z m122 -35 c0
-39 -22 -51 -93 -53 -71 -2 -87 6 -87 43 0 18 25 24 123 26 49 2 57 -1 57 -16z"/>
</g>
<g id="part-1" class="char-part">
  <path d="M250 552 c0 -18 68 -65 85 -58 19 7 19 30 1 45 -20 17 -86 26 -86 13z"/>
</g>
<g id="part-2" class="char-part">
  <path d="M228 295 c-37 -35 -84 -74 -105 -85 -36 -20 -36 -21 -8 -15 32 7 131
60 140 76 25 40 35 -73 14 -157 -9 -34 -9 -52 0 -70 23 -52 36 -21 41 99 3 64
9 119 12 122 4 4 23 -5 43 -21 26 -20 39 -24 47 -16 16 16 -5 38 -50 52 -20 6
-43 14 -51 16 -11 4 -11 7 1 22 29 33 30 42 6 42 -14 -1 -48 -25 -90 -65z"/>
</g>
<g id="part-3" class="char-part">
  <path d="M558 540 l4 -50 -34 -2 c-18 0 -37 -2 -43 -3 -5 -2 -23 -3 -38 -4
-18 -1 -26 -5 -21 -12 4 -8 30 -10 75 -7 61 5 69 3 69 -12 0 -19 -27 -30 -73
-30 -16 0 -26 -4 -22 -10 8 -13 56 -13 150 1 83 13 100 29 30 29 -38 0 -45 3
-45 20 0 18 7 20 58 21 31 1 68 4 82 8 l25 7 -23 8 c-13 4 -49 6 -80 4 l-57
-3 3 34 c3 36 -9 51 -43 51 -18 0 -20 -5 -17 -50z"/>
</g>
<g id="part-4" class="char-part">
  <path d="M600 373 c-41 -8 -87 -12 -102 -10 -31 4 -32 3 -18 -21 5 -9 14 -30
20 -45 7 -20 15 -27 28 -23 9 2 52 8 94 11 53 5 75 11 72 19 -3 7 4 21 16 31
27 24 25 31 -7 42 -18 6 -55 4 -103 -4z m60 -37 c0 -23 -5 -25 -65 -31 -73 -8
-70 -9 -79 22 -6 20 -3 22 36 26 106 9 108 9 108 -17z"/>
</g>
<g id="part-5" class="char-part">
  <path d="M675 150 c-17 -7 -17 -9 -3 -9 15 -1 17 -8 12 -46 -3 -28 -1 -45 6
-45 5 0 10 4 10 9 0 6 12 22 26 38 l26 28 -22 17 c-25 20 -27 20 -55 8z"/>
  <path d="M450 136 c0 -11 30 -60 42 -68 11 -6 11 -10 -1 -17 -15 -10 2 -26 18
-17 11 7 -9 66 -22 66 -4 0 -5 5 -2 10 3 6 15 10 26 10 10 0 19 5 19 10 0 6
-18 10 -40 10 -22 0 -40 -2 -40 -4z"/>
  <path d="M595 50 c-16 -7 -13 -9 15 -9 19 0 41 3 48 8 18 11 -36 12 -63 1z"/>
</g>
</g>
</svg>