<?xml version="1.0" standalone="no"?>
<!DOCTYPE svg PUBLIC "-//W3C//DTD SVG 20010904//EN"
 "http://www.w3.org/TR/2001/REC-SVG-20010904/DTD/svg10.dtd">
<svg version="1.0" xmlns="http://www.w3.org/2000/svg"
 width="96.000000pt" height="68.000000pt" viewBox="0 0 96.000000 68.000000"
 preserveAspectRatio="xMidYMid meet">
<metadata>
Created by potrace 1.16, written by Peter Selinger 2001-2019
Combined from part_0.svg through part_5.svg with named groups
</metadata>
<g transform="translate(0.000000,68.000000) scale(0.100000,-0.100000)" fill="#000000" stroke="none">
<g id="part-0" class="char-part">
  <path d="M298 504 c5 -105 2 -114 -51 -114 l-28 0 20 26 c29 36 26 50 -9 63
-34 11 -32 14 -50 -55 -5 -23 -21 -58 -35 -78 -44 -65 -29 -75 28 -19 28 26
50 38 83 43 l45 7 -3 -56 -3 -56 -92 -30 c-51 -17 -95 -34 -99 -37 -4 -4 5
-13 20 -19 21 -10 33 -9 68 6 24 10 50 25 59 32 26 22 50 16 45 -9 -19 -95
-16 -158 9 -158 22 0 28 19 31 109 2 47 3 91 4 97 0 6 19 17 43 24 23 7 36 15
29 17 -7 3 -26 0 -42 -6 l-30 -10 0 49 0 48 41 7 c48 8 47 30 -2 30 l-34 0 3
60 c2 33 5 67 8 77 3 9 -4 23 -18 32 -42 30 -46 22 -40 -80z"/>
  <path d="M578 495 c-1 -57 -6 -106 -9 -109 -3 -3 -40 -9 -83 -12 -42 -4 -79
-10 -81 -15 -9 -13 48 -19 109 -10 l58 8 -5 -55 c-3 -30 -8 -56 -11 -59 -3 -3
-30 -6 -60 -7 -58 -1 -66 -6 -42 -25 7 -6 17 -35 20 -63 8 -60 22 -84 41 -68
7 6 63 13 124 17 100 5 133 14 99 25 -9 3 -5 19 14 56 26 49 26 51 7 68 -17
16 -66 16 -142 1 -7 -1 -10 5 -8 13 2 8 6 34 8 57 l5 41 109 8 c110 7 132 16
82 35 -26 10 -62 8 -152 -8 l-33 -6 7 54 c3 30 10 68 15 86 9 35 2 45 -42 62
l-26 10 -4 -104z m115 -307 c-3 -24 -12 -48 -19 -54 -8 -6 -47 -12 -87 -13
l-73 -2 -11 46 c-10 42 -9 46 11 50 24 5 83 11 143 13 l41 2 -5 -42z"/>
</g>
<g id="part-1" class="char-part">
  <path d="M187 439 c-3 -23 -19 -64 -37 -91 -17 -28 -29 -52 -27 -54 14 -14
127 129 127 160 0 14 -21 26 -45 26 -7 0 -15 -17 -18 -41z"/>
</g>
<g id="part-2" class="char-part">
  <path d="M297 504 c7 -107 3 -114 -54 -114 -18 0 -33 -4 -33 -10 0 -5 20 -10
46 -10 l45 0 -3 -52 -3 -53 -85 -27 c-121 -39 -114 -36 -100 -53 19 -23 51
-18 111 15 30 16 58 30 63 30 5 0 6 -33 2 -75 -6 -71 2 -115 23 -115 18 0 31
56 31 135 l0 84 35 17 c20 9 38 20 40 25 6 8 -46 -4 -65 -16 -6 -4 -10 12 -10
44 l0 51 40 6 c22 4 43 10 46 15 6 11 -41 23 -61 16 -22 -9 -24 1 -15 78 7 63
6 72 -12 88 -41 35 -47 24 -41 -79z"/>
</g>
<g id="part-3" class="char-part">
  <path d="M580 508 c0 -128 2 -125 -91 -133 -43 -4 -81 -11 -84 -16 -9 -14 57
-20 114 -11 l54 9 -6 -58 c-5 -56 -4 -59 18 -59 21 0 24 6 30 59 l7 58 66 7
c37 3 86 6 109 6 52 0 62 14 23 30 -23 10 -47 10 -107 1 -42 -6 -79 -9 -82 -6
-3 3 2 43 11 87 16 77 16 82 0 94 -9 8 -27 14 -39 14 -22 0 -23 -4 -23 -82z"/>
</g>
<g id="part-4" class="char-part">
  <path d="M645 249 c-16 -5 -69 -10 -117 -11 -48 -2 -88 -4 -88 -6 0 -1 6 -13
14 -25 8 -12 17 -40 21 -62 10 -57 23 -79 39 -65 8 5 63 13 125 17 92 5 109 8
100 20 -9 10 -6 25 14 62 24 47 24 50 8 65 -19 17 -68 20 -116 5z m49 -61 c-4
-24 -10 -47 -15 -52 -9 -10 -146 -24 -158 -16 -11 7 -31 89 -22 93 3 2 29 5
56 6 28 2 52 5 54 7 2 2 24 4 48 4 l43 0 -6 -42z"/>
</g>
</g>
</svg>