<?xml version="1.0" standalone="no"?>
<!DOCTYPE svg PUBLIC "-//W3C//DTD SVG 20010904//EN"
 "http://www.w3.org/TR/2001/REC-SVG-20010904/DTD/svg10.dtd">
<svg version="1.0" xmlns="http://www.w3.org/2000/svg"
 width="96.000000pt" height="68.000000pt" viewBox="0 0 96.000000 68.000000"
 preserveAspectRatio="xMidYMid meet">
<metadata>
Created by potrace 1.16, written by Peter Selinger 2001-2019
Combined from part_0.svg through part_5.svg with named groups
</metadata>
<g transform="translate(0.000000,68.000000) scale(0.100000,-0.100000)" fill="#000000" stroke="none">
<g id="part-0" class="char-part">
  <path d="M377 538 c-25 -55 -83 -120 -128 -144 -33 -16 -42 -39 -28 -66 8 -15
17 -18 36 -13 74 18 83 18 83 -1 0 -82 -63 -160 -172 -213 -60 -30 -61 -31
-23 -25 56 9 125 40 158 72 50 47 106 170 85 183 -15 9 0 15 50 22 l32 4 0
-97 c0 -119 11 -153 58 -182 51 -32 206 -33 267 -3 45 22 48 40 23 108 l-15
38 -17 -46 c-24 -62 -57 -78 -152 -73 -97 5 -114 19 -114 102 0 34 5 79 11
100 9 34 8 42 -5 52 -14 10 -11 12 21 17 29 5 42 2 59 -14 28 -26 58 -21 62 9
5 30 -59 89 -105 98 -44 8 -48 3 -22 -30 15 -19 17 -27 7 -30 -24 -8 -212 -25
-217 -21 -2 3 28 39 68 80 70 72 73 76 58 98 -27 41 -52 34 -80 -25z"/>
</g>
<g id="part-1" class="char-part">
  <path d="M402 578 c-5 -7 -13 -23 -16 -34 -12 -39 -66 -104 -117 -140 -37 -27
-49 -42 -47 -58 4 -27 26 -26 178 3 174 34 194 36 209 17 21 -25 51 -20 51 8
0 27 -40 65 -89 86 -40 16 -50 6 -23 -23 12 -13 22 -26 22 -29 0 -7 -224 -32
-238 -27 -6 2 21 38 59 79 38 41 69 80 69 86 0 11 -32 44 -42 44 -3 0 -10 -6
-16 -12z"/>
</g>
<g id="part-2" class="char-part">
  <path d="M338 315 c13 -71 -58 -158 -172 -211 -31 -14 -55 -28 -53 -30 8 -8
97 16 137 36 21 11 53 38 73 60 34 40 81 146 71 162 -3 4 -18 8 -33 8 -25 0
-28 -3 -23 -25z"/>
</g>
<g id="part-3" class="char-part">
  <path d="M480 364 c-13 -4 -14 -22 -10 -117 6 -124 15 -149 63 -174 48 -25
179 -28 241 -6 67 24 73 38 48 104 -16 44 -22 50 -27 34 -22 -63 -31 -77 -58
-91 -22 -12 -51 -15 -105 -12 -63 3 -77 7 -93 27 -22 27 -26 111 -7 174 11 35
10 41 -7 53 -10 8 -21 13 -24 13 -3 -1 -13 -3 -21 -5z"/>
</g>
</g>
</svg>