<?xml version="1.0" standalone="no"?>
<!DOCTYPE svg PUBLIC "-//W3C//DTD SVG 20010904//EN"
 "http://www.w3.org/TR/2001/REC-SVG-20010904/DTD/svg10.dtd">
<svg version="1.0" xmlns="http://www.w3.org/2000/svg"
 width="96.000000pt" height="68.000000pt" viewBox="0 0 96.000000 68.000000"
 preserveAspectRatio="xMidYMid meet">
<metadata>
Created by potrace 1.16, written by Peter Selinger 2001-2019
Combined from part_0.svg through part_5.svg with named groups
</metadata>
<g transform="translate(0.000000,68.000000) scale(0.100000,-0.100000)" fill="#000000" stroke="none">
<g id="part-0" class="char-part">
  <path d="M240 512 c0 -32 -5 -84 -11 -115 l-11 -55 -71 -9 c-69 -8 -70 -8 -52
-27 14 -14 29 -17 62 -13 47 5 48 4 33 -23 -14 -26 -4 -46 37 -72 l36 -21 -29
-24 c-16 -13 -50 -35 -76 -49 -27 -13 -48 -27 -48 -30 0 -15 80 11 126 41 l52
34 28 -30 c15 -16 36 -29 46 -29 29 0 22 42 -12 75 -19 18 -26 32 -21 39 5 6
20 40 34 76 18 48 30 66 46 70 34 8 30 21 -14 37 -60 22 -70 21 -67 -3 2 -17
-4 -23 -29 -28 -18 -3 -34 -5 -35 -3 -2 2 9 44 26 93 l29 89 -21 18 c-11 9
-29 17 -39 17 -16 0 -19 -8 -19 -58z m90 -193 c0 -6 -9 -32 -21 -59 l-21 -48
-31 13 c-25 11 -31 19 -28 37 5 39 20 56 48 61 50 7 53 7 53 -4z"/>
  <path d="M719 506 c-2 -2 -62 -12 -132 -22 -124 -16 -159 -30 -94 -36 31 -3
32 -4 35 -54 3 -56 -5 -64 -72 -64 -28 0 -28 -1 -22 -37 3 -21 6 -52 6 -70 l0
-32 50 6 50 6 0 -51 0 -51 -71 -7 c-55 -5 -67 -9 -54 -17 12 -6 51 -6 117 2
54 6 148 11 208 11 61 0 110 4 110 9 0 15 -28 21 -96 21 l-64 0 0 38 c0 50 8
58 61 66 39 6 46 10 42 25 -3 10 3 33 12 51 26 50 15 60 -60 60 l-65 0 2 54
c2 54 2 54 41 63 42 9 54 26 22 31 -12 2 -23 1 -26 -2z m-74 -111 l0 -60 58 3
c63 3 64 1 51 -67 -6 -30 -8 -31 -58 -31 l-51 0 3 -65 4 -65 -39 0 -38 0 0 52
0 53 -53 0 -52 0 0 46 0 46 48 9 47 9 3 55 c4 77 7 82 44 78 l33 -3 0 -60z"/>
</g>
<g id="part-1" class="char-part">
  <path d="M244 538 c9 -43 -13 -175 -31 -194 -9 -9 -35 -14 -69 -14 -30 0 -54
-4 -54 -10 0 -19 41 -32 81 -25 37 6 53 -5 29 -20 -20 -13 -9 -45 25 -71 34
-26 35 -27 18 -47 -10 -10 -40 -33 -68 -49 -49 -29 -49 -30 -15 -24 19 3 54
20 78 36 23 17 46 30 51 30 5 0 16 -12 25 -26 11 -16 25 -24 38 -22 33 5 32
25 -2 57 -30 27 -31 30 -17 57 8 16 22 52 31 80 12 38 23 53 44 61 24 9 24 11
6 12 -12 1 -27 8 -34 16 -7 8 -21 15 -32 15 -15 0 -19 -5 -15 -20 4 -16 -1
-21 -21 -26 -15 -3 -33 -7 -39 -10 -18 -5 -16 10 12 101 14 44 25 85 25 92 0
9 -49 33 -68 33 -2 0 -2 -15 2 -32z m67 -283 c-21 -48 -27 -51 -66 -33 -28 13
-30 21 -14 66 9 26 18 33 52 40 52 10 58 -5 28 -73z"/>
</g>
<g id="part-2" class="char-part">
  <path d="M709 506 c-2 -3 -62 -12 -132 -22 -130 -17 -167 -34 -76 -34 54 0
260 28 269 36 2 3 -2 9 -10 14 -16 10 -44 13 -51 6z"/>
</g>
<g id="part-3" class="char-part">
  <path d="M529 399 c2 -40 6 -49 20 -47 12 2 17 16 19 51 3 43 1 47 -20 47 -21
0 -23 -3 -19 -51z"/>
</g>
<g id="part-4" class="char-part">
  <path d="M610 108 c-41 -4 -91 -10 -110 -12 -19 -3 -51 -6 -70 -6 -31 -1 -33
-2 -16 -12 15 -8 46 -8 120 0 56 7 149 12 209 12 59 0 107 4 107 9 0 23 -78
26 -240 9z"/>
</g>
</g>
</svg>