<?xml version="1.0" standalone="no"?>
<!DOCTYPE svg PUBLIC "-//W3C//DTD SVG 20010904//EN"
 "http://www.w3.org/TR/2001/REC-SVG-20010904/DTD/svg10.dtd">
<svg version="1.0" xmlns="http://www.w3.org/2000/svg"
 width="96.000000pt" height="68.000000pt" viewBox="0 0 96.000000 68.000000"
 preserveAspectRatio="xMidYMid meet">
<metadata>
Created by potrace 1.16, written by Peter Selinger 2001-2019
Combined from part_0.svg through part_5.svg with named groups
</metadata>
<g transform="translate(0.000000,68.000000) scale(0.100000,-0.100000)" fill="#000000" stroke="none">
<g id="part-0" class="char-part">
  <path d="M573 633 c1 -68 -2 -73 -43 -79 -48 -8 -52 -22 -9 -31 29 -5 30 -8
24 -39 -8 -45 8 -43 36 4 30 49 35 52 101 52 31 0 60 5 63 10 9 15 -46 32 -82
25 -36 -6 -38 -4 -22 26 14 27 -4 49 -41 49 -19 0 -27 -5 -27 -17z"/>
  <path d="M309 586 c12 -18 21 -36 21 -40 0 -3 -31 -6 -70 -6 -73 0 -82 -6 -52
-33 22 -20 56 -22 102 -6 30 11 34 10 51 -12 23 -30 24 -38 2 -33 -13 4 -23
-6 -36 -38 -9 -24 -39 -67 -66 -95 -27 -29 -45 -53 -39 -53 11 0 64 37 91 64
15 16 274 43 303 32 14 -6 16 -20 12 -104 -3 -57 -12 -113 -22 -136 -15 -37
-17 -38 -52 -32 -19 4 -43 10 -52 13 -10 4 -5 -7 14 -31 48 -60 93 -58 132 6
14 23 22 61 27 123 4 50 14 107 21 127 13 37 12 37 -21 58 -21 13 -42 19 -57
15 -42 -10 -243 -33 -251 -28 -5 3 0 14 10 25 9 11 19 38 20 61 4 57 9 67 33
67 33 0 23 18 -12 22 -26 2 -34 8 -37 28 -4 31 -17 40 -59 40 l-34 0 21 -34z"/>
  <path d="M330 264 c0 -3 19 -26 42 -50 44 -46 78 -57 78 -26 0 24 -25 46 -74
66 -43 18 -46 19 -46 10z"/>
</g>
<g id="part-1" class="char-part">
  <path d="M580 616 c0 -52 -9 -66 -40 -66 -16 0 -31 -4 -34 -9 -8 -12 20 -22
40 -14 13 5 14 0 9 -31 -4 -20 -5 -36 -2 -36 2 0 16 18 31 40 24 37 30 40 74
41 26 0 56 4 66 8 30 11 2 24 -51 23 l-44 0 7 33 c5 28 3 33 -18 38 -36 10
-38 9 -38 -27z"/>
  <path d="M300 614 c0 -3 9 -17 20 -31 11 -14 20 -30 20 -34 0 -5 -31 -9 -70
-9 -76 0 -92 -15 -45 -40 20 -10 33 -11 64 -2 54 17 69 15 76 -8 10 -31 36
-25 33 8 -2 21 2 28 20 30 33 5 27 22 -8 22 -23 0 -30 5 -30 19 0 27 -27 51
-56 51 -13 0 -24 -3 -24 -6z"/>
</g>
<g id="part-2" class="char-part">
  <path d="M326 418 c-8 -24 -41 -69 -72 -100 -32 -32 -52 -58 -47 -58 10 0 102
66 113 81 7 9 275 33 294 26 23 -9 21 -154 -2 -222 -18 -54 -30 -59 -96 -40
l-29 8 33 -41 c36 -46 62 -52 96 -24 39 32 52 65 60 157 3 50 13 107 20 128
13 37 13 38 -19 57 -21 13 -42 18 -62 15 -61 -12 -250 -32 -254 -29 -3 2 8 17
23 33 27 29 28 29 8 40 -35 19 -49 12 -66 -31z"/>
</g>
<g id="part-3" class="char-part">
  <path d="M330 262 c0 -15 86 -92 103 -92 22 0 22 32 -1 53 -16 14 -83 47 -97
47 -3 0 -5 -4 -5 -8z"/>
</g>
</g>
</svg>