<?xml version="1.0" standalone="no"?>
<!DOCTYPE svg PUBLIC "-//W3C//DTD SVG 20010904//EN"
 "http://www.w3.org/TR/2001/REC-SVG-20010904/DTD/svg10.dtd">
<svg version="1.0" xmlns="http://www.w3.org/2000/svg"
 width="96.000000pt" height="68.000000pt" viewBox="0 0 96.000000 68.000000"
 preserveAspectRatio="xMidYMid meet">
<metadata>
Created by potrace 1.16, written by Peter Selinger 2001-2019
Combined from part_0.svg through part_5.svg with named groups
</metadata>
<g transform="translate(0.000000,68.000000) scale(0.100000,-0.100000)" fill="#000000" stroke="none">
<g id="part-0" class="char-part">
  <path d="M270 592 c0 -15 50 -52 70 -52 23 0 33 25 15 40 -19 16 -85 25 -85
12z"/>
  <path d="M517 571 c-55 -9 -96 -19 -92 -22 3 -4 24 -5 46 -2 42 6 45 2 28 -46
-12 -35 -14 -36 -49 -16 -44 25 -57 16 -20 -15 l35 -30 -39 -35 c-47 -42 -37
-45 19 -7 47 32 108 119 101 145 -3 14 3 17 34 17 48 0 54 -9 40 -60 -14 -53
-41 -80 -71 -73 l-23 6 23 -31 c12 -18 28 -32 35 -32 18 0 52 40 63 74 12 39
22 41 57 11 16 -14 38 -25 49 -25 18 0 18 2 5 23 -8 12 -30 27 -49 33 -35 12
-49 38 -30 57 16 16 14 23 -14 35 -30 14 -23 14 -148 -7z"/>
  <path d="M210 521 c0 -15 51 -51 71 -51 29 0 24 39 -7 50 -32 13 -64 13 -64 1z"/>
  <path d="M320 445 c-23 -19 -48 -35 -55 -35 -7 0 -22 -8 -33 -17 -16 -14 -18
-23 -12 -40 13 -32 41 -28 67 10 13 17 37 49 55 69 42 50 31 57 -22 13z"/>
  <path d="M437 300 l6 -57 -39 -6 c-22 -4 -59 -7 -84 -7 -66 0 -150 -12 -150
-20 0 -19 121 -15 208 5 12 3 22 1 22 -3 0 -16 -94 -103 -139 -130 -24 -14
-39 -28 -33 -30 14 -4 101 42 134 71 13 11 36 32 52 46 l28 26 -6 -80 c-4 -48
-2 -86 4 -95 18 -26 30 8 30 88 0 39 3 72 8 72 4 0 38 -30 76 -65 69 -64 70
-65 127 -65 71 0 84 15 27 31 -49 15 -66 24 -162 88 l-69 46 39 7 c22 4 90 7
152 7 61 1 112 5 112 10 0 17 -51 21 -176 15 l-125 -7 3 48 c3 45 1 49 -23 55
l-27 8 5 -58z"/>
  <path d="M560 315 c-38 -39 -34 -42 33 -19 47 16 61 37 31 48 -25 10 -28 8
-64 -29z"/>
  <path d="M310 310 c0 -11 40 -50 51 -50 19 0 18 21 -1 40 -21 21 -50 27 -50
10z"/>
</g>
<g id="part-1" class="char-part">
  <path d="M280 587 c0 -16 57 -50 70 -42 19 12 10 35 -17 41 -16 3 -34 7 -40
10 -7 2 -13 -2 -13 -9z"/>
  <path d="M240 495 c26 -28 45 -32 53 -11 8 20 -13 36 -47 36 l-29 0 23 -25z"/>
  <path d="M319 441 c-19 -15 -49 -36 -66 -45 -37 -18 -39 -24 -20 -50 12 -16
18 -12 71 49 64 72 70 91 15 46z"/>
</g>
<g id="part-2" class="char-part">
  <path d="M670 492 c0 -10 41 -47 67 -60 28 -15 39 9 14 32 -20 18 -81 39 -81
28z"/>
</g>
<g id="part-3" class="char-part">
  <path d="M437 308 c7 -51 6 -50 25 -43 16 7 32 60 22 76 -3 5 -16 9 -29 9 -21
0 -23 -3 -18 -42z"/>
  <path d="M560 315 c-18 -19 -32 -35 -29 -35 3 0 29 7 58 16 39 11 51 19 49 32
-6 31 -41 25 -78 -13z"/>
  <path d="M315 296 c20 -30 45 -40 59 -26 14 14 -27 50 -55 50 -18 0 -18 -2 -4
-24z"/>
</g>
<g id="part-4" class="char-part">
  <path d="M437 246 c-2 -7 -113 -18 -257 -26 -24 -2 -24 -2 6 -15 26 -12 45
-12 120 -1 49 8 91 12 93 10 9 -9 -86 -98 -144 -136 -33 -22 -49 -36 -35 -33
45 13 116 56 170 103 l53 46 -7 -75 c-7 -86 -1 -116 20 -98 10 8 14 35 14 91
l0 80 78 -71 c76 -70 78 -71 132 -71 82 0 90 13 23 34 -32 10 -96 43 -143 74
-77 52 -82 57 -60 63 14 4 83 7 155 8 103 1 126 3 116 14 -14 14 -329 18 -334
3z"/>
</g>
</g>
</svg>