<?xml version="1.0" standalone="no"?>
<!DOCTYPE svg PUBLIC "-//W3C//DTD SVG 20010904//EN"
 "http://www.w3.org/TR/2001/REC-SVG-20010904/DTD/svg10.dtd">
<svg version="1.0" xmlns="http://www.w3.org/2000/svg"
 width="96.000000pt" height="68.000000pt" viewBox="0 0 96.000000 68.000000"
 preserveAspectRatio="xMidYMid meet">
<metadata>
Created by potrace 1.16, written by Peter Selinger 2001-2019
Combined from part_0.svg through part_5.svg with named groups
</metadata>
<g transform="translate(0.000000,68.000000) scale(0.100000,-0.100000)" fill="#000000" stroke="none">
<g id="part-0" class="char-part">
  <path d="M266 602 c-3 -5 -1 -24 4 -43 6 -19 10 -57 10 -86 l0 -52 -75 -12
c-41 -6 -75 -15 -75 -20 0 -14 41 -21 86 -14 24 3 44 4 44 1 0 -17 -69 -118
-108 -158 -25 -26 -43 -50 -39 -54 11 -11 75 35 120 87 l43 49 -8 -77 c-13
-118 -12 -144 7 -162 15 -15 17 -15 31 3 10 15 14 51 14 138 l0 119 25 -26
c30 -29 43 -31 52 -8 7 18 -38 63 -63 63 -8 0 -14 8 -14 18 0 13 13 21 46 30
39 11 44 15 34 27 -7 8 -26 15 -42 15 l-30 0 7 68 c5 51 3 71 -7 79 -20 16
-56 25 -62 15z"/>
  <path d="M685 505 c-33 -7 -62 -13 -65 -14 -3 -1 2 -5 10 -11 8 -5 42 -6 76
-3 62 6 62 6 68 -23 8 -34 7 -159 -1 -262 l-5 -73 -41 6 -40 7 36 -36 c20 -20
43 -36 50 -36 36 0 42 29 47 234 6 248 10 241 -135 211z"/>
  <path d="M500 480 c-8 -5 -29 -10 -47 -10 -17 0 -34 -4 -37 -9 -9 -14 40 -22
70 -11 52 20 54 14 54 -152 0 -84 -4 -159 -9 -167 -8 -12 -13 -12 -35 3 -35
23 -33 7 5 -32 37 -38 44 -39 63 -9 11 16 15 66 18 198 l3 176 -24 11 c-30 14
-41 15 -61 2z"/>
  <path d="M630 401 c0 -16 68 -63 80 -56 20 13 9 36 -25 51 -40 16 -55 18 -55
5z"/>
  <path d="M417 373 c-8 -8 40 -53 57 -53 9 0 16 8 16 20 0 11 -1 20 -3 20 -1 0
-16 4 -34 9 -17 5 -34 7 -36 4z"/>
  <path d="M718 301 c-1 -5 -28 -21 -57 -36 -51 -25 -54 -28 -36 -41 10 -8 22
-14 25 -14 3 0 28 23 55 50 32 33 44 50 33 50 -9 0 -18 -4 -20 -9z"/>
  <path d="M460 260 c-14 -11 -37 -22 -52 -25 -34 -8 -46 -24 -27 -36 22 -14 35
-11 66 19 59 54 68 85 13 42z"/>
</g>
<g id="part-1" class="char-part">
  <path d="M270 593 c0 -5 5 -39 10 -76 14 -93 7 -104 -75 -112 -82 -9 -85 -25
-5 -25 33 0 60 -3 60 -7 0 -19 -65 -118 -104 -158 -23 -25 -37 -45 -31 -45 22
0 90 56 119 98 16 24 31 40 34 38 2 -3 -1 -50 -7 -106 -13 -109 -9 -143 17
-138 20 4 30 61 31 188 l2 85 20 -27 c24 -33 49 -36 49 -7 0 13 -11 25 -35 35
-27 11 -35 20 -35 39 0 21 5 25 28 25 15 0 34 5 42 10 13 9 13 11 0 19 -8 5
-26 7 -42 4 -29 -6 -29 -7 -12 101 5 33 -19 66 -48 66 -10 0 -18 -3 -18 -7z"/>
</g>
<g id="part-2" class="char-part">
  <path d="M490 480 c-8 -5 -30 -10 -47 -10 -18 0 -33 -4 -33 -9 0 -17 40 -23
75 -11 19 6 39 9 45 5 11 -7 14 -274 4 -312 -6 -21 -8 -22 -41 -8 -49 21 -49
20 -2 -25 34 -32 45 -37 60 -29 25 13 28 29 31 221 4 166 4 167 -20 177 -28
13 -52 14 -72 1z"/>
</g>
<g id="part-3" class="char-part">
  <path d="M440 253 c-36 -19 -66 -38 -68 -43 -2 -5 8 -12 23 -16 21 -5 33 0 62
27 28 27 63 74 51 68 -2 -1 -32 -17 -68 -36z"/>
</g>
<g id="part-4" class="char-part">
  <path d="M731 306 c-6 -8 -36 -24 -66 -37 -56 -24 -62 -34 -32 -53 13 -8 25
-3 58 29 37 36 66 75 56 75 -3 0 -10 -6 -16 -14z"/>
</g>
</g>
</svg>