<?xml version="1.0" standalone="no"?>
<!DOCTYPE svg PUBLIC "-//W3C//DTD SVG 20010904//EN"
 "http://www.w3.org/TR/2001/REC-SVG-20010904/DTD/svg10.dtd">
<svg version="1.0" xmlns="http://www.w3.org/2000/svg"
 width="96.000000pt" height="68.000000pt" viewBox="0 0 96.000000 68.000000"
 preserveAspectRatio="xMidYMid meet">
<metadata>
Created by potrace 1.16, written by Peter Selinger 2001-2019
Combined from part_0.svg through part_5.svg with named groups
</metadata>
<g transform="translate(0.000000,68.000000) scale(0.100000,-0.100000)" fill="#000000" stroke="none">
<g id="part-0" class="char-part">
  <path d="M280 537 c-16 -55 -67 -129 -141 -204 -81 -82 -50 -85 49 -5 l43 34
-5 -104 c-4 -57 -10 -118 -15 -136 -18 -60 23 -122 47 -74 14 26 21 313 9 333
-8 13 0 31 42 88 29 39 50 75 47 80 -3 5 -19 14 -35 19 -27 10 -29 9 -41 -31z"/>
  <path d="M484 564 c7 -19 -14 -71 -43 -103 -18 -20 -27 -23 -66 -18 -42 4 -45
3 -31 -12 13 -14 22 -42 40 -124 5 -21 12 -27 31 -27 23 0 25 -3 19 -27 -12
-51 -55 -125 -92 -159 -33 -30 -34 -33 -12 -27 58 15 174 170 149 199 -11 13
-3 21 21 20 12 -1 16 -20 18 -96 2 -80 6 -98 24 -117 41 -44 188 -53 276 -16
31 13 33 16 26 46 -3 18 -11 43 -17 57 -10 25 -10 24 -20 -14 -13 -51 -55 -69
-150 -64 -53 3 -72 8 -83 23 -16 22 -18 73 -4 111 13 32 5 61 -18 68 -9 2 5 4
33 3 l50 -1 42 79 c59 112 49 120 -126 95 -41 -6 -76 -8 -79 -6 -2 3 10 17 28
32 68 57 72 67 41 84 -31 16 -64 13 -57 -6z m158 -144 c-4 -29 -7 -30 -52 -30
-43 0 -48 3 -52 24 -5 26 5 31 78 35 29 1 30 -1 26 -29z m-152 -14 c0 -39 -83
-52 -93 -14 -9 32 -1 38 49 38 40 0 44 -2 44 -24z m140 -40 c0 -3 -4 -16 -10
-30 -8 -22 -16 -26 -50 -26 -35 0 -40 3 -40 23 0 13 3 27 7 30 7 8 93 10 93 3z
m-137 -25 c7 -27 -11 -41 -50 -41 -30 0 -33 3 -33 30 0 28 2 30 39 30 30 0 40
-4 44 -19z"/>
  <path d="M636 242 c-4 -10 -20 -33 -37 -50 -50 -51 -26 -64 62 -36 46 15 51
15 68 0 23 -21 31 -20 31 3 0 11 -10 27 -22 35 -28 20 -38 20 -38 1 0 -8 -6
-15 -14 -15 -8 0 -21 -3 -30 -6 -22 -9 -20 13 4 38 11 12 19 27 17 33 -6 18
-35 17 -41 -3z"/>
</g>
<g id="part-1" class="char-part">
  <path d="M286 538 c-9 -45 -62 -122 -138 -202 -35 -36 -62 -66 -60 -66 13 0
70 37 103 67 l39 35 0 -90 c0 -50 -5 -114 -11 -142 -13 -62 -5 -103 19 -98 14
3 18 18 23 78 12 134 12 249 1 263 -8 10 1 29 38 77 55 72 59 85 31 100 -31
16 -38 12 -45 -22z"/>
</g>
<g id="part-2" class="char-part">
  <path d="M484 565 c7 -20 -10 -64 -36 -92 -21 -22 -21 -23 -2 -23 11 0 42 23
69 51 48 48 49 51 31 65 -27 19 -70 19 -62 -1z"/>
</g>
<g id="part-3" class="char-part">
  <path d="M636 242 c-3 -9 -20 -33 -37 -51 -43 -48 -27 -59 51 -36 58 18 61 18
81 -1 17 -16 22 -16 30 -4 6 11 2 21 -17 38 -29 25 -44 28 -44 8 0 -12 -58
-32 -67 -22 -2 2 8 17 22 35 26 30 26 51 0 51 -7 0 -16 -8 -19 -18z"/>
</g>
</g>
</svg>