<?xml version="1.0" standalone="no"?>
<!DOCTYPE svg PUBLIC "-//W3C//DTD SVG 20010904//EN"
 "http://www.w3.org/TR/2001/REC-SVG-20010904/DTD/svg10.dtd">
<svg version="1.0" xmlns="http://www.w3.org/2000/svg"
 width="96.000000pt" height="68.000000pt" viewBox="0 0 96.000000 68.000000"
 preserveAspectRatio="xMidYMid meet">
<metadata>
Created by potrace 1.16, written by Peter Selinger 2001-2019
Combined from part_0.svg through part_5.svg with named groups
</metadata>
<g transform="translate(0.000000,68.000000) scale(0.100000,-0.100000)" fill="#000000" stroke="none">
<g id="part-0" class="char-part">
  <path d="M436 548 c-10 -29 -29 -69 -43 -91 -32 -51 -22 -59 19 -15 30 32 41
36 123 48 133 19 156 24 158 35 4 18 -50 16 -133 -5 -45 -12 -85 -19 -87 -16
-3 3 4 21 15 40 15 25 17 37 9 45 -24 24 -42 11 -61 -41z"/>
  <path d="M160 544 c0 -20 80 -95 97 -92 28 5 29 54 1 72 -28 17 -98 32 -98 20z"/>
  <path d="M530 420 c0 -29 -5 -42 -19 -50 -31 -16 -51 -12 -51 10 0 14 -7 20
-21 20 -15 0 -20 -6 -19 -22 4 -42 0 -47 -40 -58 -22 -6 -40 -16 -40 -21 0
-11 26 -8 64 7 13 5 16 -1 16 -32 1 -77 52 -104 194 -104 98 0 159 17 170 47
6 14 -19 73 -30 73 -3 0 -10 -14 -16 -31 -14 -40 -41 -49 -152 -49 -105 0
-121 8 -129 61 -6 40 -2 48 30 67 37 20 43 15 43 -38 0 -27 4 -50 9 -50 11 0
21 35 21 76 0 34 25 57 74 70 31 7 30 11 10 -55 -8 -29 -13 -55 -10 -58 6 -7
86 116 86 133 0 24 -56 27 -99 5 -51 -27 -51 -27 -51 9 0 23 -4 30 -20 30 -17
0 -20 -7 -20 -40z"/>
  <path d="M180 390 c-25 -10 -54 -22 -65 -26 -14 -6 -2 -10 43 -12 l63 -3 -17
-29 c-17 -27 -17 -29 9 -60 15 -17 27 -42 27 -56 0 -23 -3 -24 -69 -24 -74 0
-98 -13 -66 -37 14 -10 39 -11 96 -7 74 6 82 5 248 -51 150 -49 178 -56 219
-50 64 10 174 48 173 60 0 6 -24 11 -53 12 -157 8 -324 26 -408 46 l-95 23 0
33 c-1 24 -9 40 -29 58 l-29 24 43 44 42 43 -23 16 c-29 20 -52 19 -109 -4z"/>
</g>
<g id="part-1" class="char-part">
  <path d="M170 536 c0 -17 63 -76 82 -76 19 0 30 23 22 45 -4 8 -7 15 -8 15 0
0 -22 7 -48 15 -38 11 -48 11 -48 1z"/>
  <path d="M182 385 c-83 -30 -89 -39 -19 -31 60 7 64 3 46 -37 -9 -21 -8 -30 9
-53 12 -16 24 -41 27 -55 8 -31 -10 -39 -92 -39 -54 0 -64 -8 -38 -30 11 -9
29 -9 82 0 l68 12 171 -56 c94 -31 189 -56 212 -56 39 0 169 35 185 49 9 9
-96 21 -193 21 -66 1 -138 12 -287 45 l-81 18 5 32 c4 26 0 36 -27 58 l-32 27
41 39 c23 21 41 43 41 48 0 8 -46 35 -53 32 -1 -1 -30 -11 -65 -24z"/>
</g>
<g id="part-2" class="char-part">
  <path d="M441 562 c-6 -20 -26 -64 -46 -96 -19 -33 -34 -61 -32 -62 2 -2 23
14 47 36 24 22 53 40 64 40 31 0 226 37 233 43 3 3 -7 9 -22 13 -16 4 -64 -2
-118 -14 -50 -12 -93 -19 -95 -17 -3 2 5 20 16 39 15 25 17 37 9 45 -23 23
-46 12 -56 -27z"/>
</g>
<g id="part-3" class="char-part">
  <path d="M420 378 c4 -41 1 -45 -40 -57 -22 -6 -40 -16 -40 -21 0 -13 22 -13
54 0 25 9 26 8 26 -26 0 -50 13 -69 60 -88 62 -24 219 -22 270 4 45 23 48 36
21 81 l-19 31 -12 -37 c-15 -47 -38 -55 -156 -55 -109 0 -134 14 -134 75 0 24
6 37 20 45 23 12 27 30 6 30 -8 0 -13 8 -12 17 1 12 -7 19 -22 21 -19 3 -23
-1 -22 -20z"/>
</g>
<g id="part-4" class="char-part">
  <path d="M530 420 c0 -33 -4 -43 -20 -47 -11 -3 -20 -12 -20 -20 0 -10 6 -12
20 -8 18 6 20 2 20 -44 0 -28 4 -51 9 -51 10 0 21 48 21 90 0 23 7 30 46 45
25 9 47 15 50 12 3 -2 -3 -29 -14 -60 -11 -33 -14 -53 -7 -51 14 6 85 115 85
130 0 22 -60 25 -100 4 -49 -25 -48 -25 -52 7 -2 17 -10 29 -20 31 -15 3 -18
-4 -18 -38z"/>
</g>
</g>
</svg>