<?xml version="1.0" standalone="no"?>
<!DOCTYPE svg PUBLIC "-//W3C//DTD SVG 20010904//EN"
 "http://www.w3.org/TR/2001/REC-SVG-20010904/DTD/svg10.dtd">
<svg version="1.0" xmlns="http://www.w3.org/2000/svg"
 width="96.000000pt" height="68.000000pt" viewBox="0 0 96.000000 68.000000"
 preserveAspectRatio="xMidYMid meet">
<metadata>
Created by potrace 1.16, written by Peter Selinger 2001-2019
Combined from part_0.svg through part_5.svg with named groups
</metadata>
<g transform="translate(0.000000,68.000000) scale(0.100000,-0.100000)" fill="#000000" stroke="none">
<g id="part-0" class="char-part">
  <path d="M361 566 c-137 -14 -206 -25 -209 -34 -2 -6 3 -12 12 -12 28 0 39
-74 32 -225 -3 -77 -11 -158 -17 -179 -10 -35 -9 -42 8 -54 19 -14 39 -12 128
8 28 6 143 13 257 14 114 1 211 6 215 10 4 4 -3 16 -16 27 -29 23 -87 24 -291
4 -80 -8 -165 -15 -189 -15 l-44 0 5 200 c3 111 8 203 10 206 8 7 216 23 340
26 92 3 108 5 108 19 0 35 -56 36 -349 5z"/>
  <path d="M520 343 c2 -182 8 -224 29 -185 6 11 11 34 11 50 0 26 4 30 38 36
20 3 55 6 77 6 22 0 47 4 54 9 26 17 -36 25 -98 14 -31 -6 -59 -9 -62 -7 -3 1
-3 19 -1 38 l4 36 59 0 c38 0 59 4 59 11 0 8 -18 10 -60 6 l-60 -7 0 35 c0 33
2 35 34 35 49 0 96 11 96 23 0 6 -23 7 -64 3 l-65 -6 -3 37 c-2 31 -7 39 -26
41 l-23 3 1 -178z"/>
  <path d="M400 469 c12 -43 6 -49 -45 -49 -24 0 -47 -5 -50 -11 -5 -7 10 -10
46 -8 51 3 54 2 57 -23 3 -27 -16 -38 -70 -38 -15 0 -29 -4 -32 -9 -10 -15 21
-21 56 -10 18 5 34 9 35 9 2 0 3 -13 3 -28 0 -35 -31 -52 -96 -52 -45 0 -51
-10 -15 -29 12 -7 30 -4 59 9 37 17 42 17 42 3 0 -9 -10 -31 -21 -50 -28 -46
-17 -54 18 -13 40 47 50 83 58 205 8 112 4 124 -37 125 -14 0 -15 -5 -8 -31z"/>
</g>
<g id="part-1" class="char-part">
  <path d="M395 565 c-116 -13 -218 -24 -229 -24 -16 -1 -16 -3 5 -20 23 -18 24
-25 27 -173 2 -96 -1 -175 -9 -211 -10 -51 -10 -60 4 -74 14 -15 21 -15 74 1
45 14 109 19 286 23 125 3 227 9 227 14 0 5 -12 16 -26 25 -24 16 -40 16 -261
-5 -145 -13 -240 -18 -246 -12 -15 15 2 389 18 405 15 15 83 22 293 32 132 6
167 13 143 28 -24 15 -113 13 -306 -9z"/>
</g>
<g id="part-2" class="char-part">
  <path d="M393 486 c27 -70 10 -254 -29 -312 -30 -43 -17 -44 23 -1 40 43 43
53 57 192 13 128 12 135 -33 135 -16 0 -21 -4 -18 -14z"/>
</g>
<g id="part-3" class="char-part">
  <path d="M360 260 c-14 -4 -42 -8 -62 -9 -44 -1 -49 -13 -14 -29 20 -9 33 -7
65 6 23 9 41 23 41 30 0 6 -1 12 -2 11 -2 -1 -14 -5 -28 -9z"/>
</g>
<g id="part-4" class="char-part">
  <path d="M521 246 c2 -94 10 -121 28 -88 6 11 11 34 11 50 0 26 4 30 38 36 20
3 56 6 79 6 23 0 45 4 48 10 10 16 -39 22 -96 12 -30 -6 -57 -8 -61 -6 -4 3
-5 18 -1 34 5 27 3 30 -21 30 l-27 0 2 -84z"/>
</g>
</g>
</svg>