<?xml version="1.0" standalone="no"?>
<!DOCTYPE svg PUBLIC "-//W3C//DTD SVG 20010904//EN"
 "http://www.w3.org/TR/2001/REC-SVG-20010904/DTD/svg10.dtd">
<svg version="1.0" xmlns="http://www.w3.org/2000/svg"
 width="96.000000pt" height="68.000000pt" viewBox="0 0 96.000000 68.000000"
 preserveAspectRatio="xMidYMid meet">
<metadata>
Created by potrace 1.16, written by Peter Selinger 2001-2019
Combined from part_0.svg through part_5.svg with named groups
</metadata>
<g transform="translate(0.000000,68.000000) scale(0.100000,-0.100000)" fill="#000000" stroke="none">
<g id="part-0" class="char-part">
  <path d="M613 558 c6 -80 -9 -130 -49 -165 -28 -25 -33 -33 -19 -33 9 0 35 18
57 40 22 22 43 40 47 40 4 0 22 -16 41 -35 34 -35 54 -43 65 -25 12 19 -15 48
-60 65 -25 10 -45 21 -45 24 0 4 27 17 60 30 61 24 68 36 36 55 -14 9 -23 5
-48 -26 -16 -21 -34 -38 -40 -38 -5 0 -9 19 -8 43 4 61 2 67 -20 67 -17 0 -19
-6 -17 -42z"/>
  <path d="M410 509 c0 -81 0 -81 -39 -120 -21 -22 -37 -39 -34 -39 13 0 61 32
82 54 l25 26 27 -26 c15 -14 32 -23 38 -19 17 10 -5 42 -34 49 -38 10 -30 34
20 58 48 23 55 35 28 45 -11 4 -23 -3 -37 -20 -30 -38 -40 -34 -33 13 4 32 2
42 -13 50 -10 6 -21 10 -24 10 -3 0 -6 -37 -6 -81z"/>
  <path d="M180 543 c0 -18 71 -83 89 -83 22 0 29 32 13 57 -15 23 -102 45 -102
26z"/>
  <path d="M330 503 c0 -5 9 -19 20 -33 15 -20 22 -22 31 -13 10 10 9 17 -6 33
-18 20 -45 27 -45 13z"/>
  <path d="M532 478 c6 -16 36 -34 44 -26 3 4 4 14 1 23 -7 17 -51 21 -45 3z"/>
  <path d="M106 408 c48 -56 95 -76 107 -44 12 30 -43 66 -100 66 -26 0 -26 0
-7 -22z"/>
  <path d="M525 329 c-119 -13 -161 -15 -167 -6 -9 14 -11 12 -32 -41 -25 -66 1
-90 31 -28 15 32 21 35 67 40 28 3 98 10 156 16 58 6 115 13 128 16 16 3 22 0
22 -14 0 -10 -5 -23 -12 -30 -16 -16 -1 -15 55 4 60 20 65 29 28 49 -36 18
-70 18 -276 -6z"/>
  <path d="M225 266 c-18 -29 -47 -64 -62 -77 -42 -35 -45 -44 -29 -84 16 -37
43 -47 52 -17 3 9 16 42 29 72 49 115 64 160 55 160 -6 0 -26 -24 -45 -54z"/>
  <path d="M508 258 c-3 -32 -4 -33 -55 -36 -29 -2 -53 -7 -53 -13 0 -10 10 -12
58 -9 22 1 32 -3 32 -13 0 -21 -50 -81 -93 -112 -48 -34 -42 -43 10 -16 42 21
107 87 125 126 6 14 22 25 40 29 58 12 68 8 68 -23 0 -49 -11 -89 -32 -110
-15 -17 -23 -19 -39 -10 -27 14 -36 4 -15 -16 9 -9 16 -21 16 -26 0 -17 49 -9
68 11 11 12 29 53 41 93 12 40 24 77 27 83 8 19 -43 33 -96 27 -41 -5 -51 -3
-50 8 5 30 -1 39 -24 39 -21 0 -25 -6 -28 -32z"/>
</g>
<g id="part-1" class="char-part">
  <path d="M180 545 c0 -12 74 -85 86 -85 20 0 28 25 15 49 -12 22 -101 54 -101
36z"/>
  <path d="M100 422 c0 -16 73 -73 90 -70 24 5 23 36 -2 52 -31 20 -88 32 -88
18z"/>
  <path d="M226 259 c-21 -32 -51 -70 -67 -83 -16 -14 -29 -32 -29 -41 0 -24 19
-55 33 -55 13 0 114 226 106 235 -2 2 -22 -23 -43 -56z"/>
</g>
<g id="part-2" class="char-part">
  <path d="M409 584 c0 -5 0 -42 1 -82 l1 -74 -42 -40 c-35 -33 -38 -39 -18 -33
13 4 40 23 60 41 l35 34 23 -26 c23 -26 46 -28 46 -3 0 8 -15 21 -32 29 -18 8
-33 21 -33 27 0 7 23 24 51 39 50 25 51 26 30 41 -20 13 -23 13 -41 -9 -11
-13 -19 -26 -20 -30 0 -5 -5 -8 -11 -8 -8 0 -9 15 -5 45 5 27 3 45 -3 45 -5 0
-16 3 -25 6 -9 3 -16 2 -17 -2z"/>
  <path d="M330 501 c0 -5 9 -19 19 -32 15 -18 22 -21 31 -13 17 17 -5 54 -30
54 -11 0 -20 -4 -20 -9z"/>
</g>
<g id="part-3" class="char-part">
  <path d="M608 535 c4 -80 -9 -116 -57 -156 l-36 -30 33 12 c18 6 48 27 67 46
l33 34 41 -36 c25 -23 47 -35 56 -31 33 12 5 51 -50 70 -22 8 -41 18 -42 23
-2 4 18 16 44 26 71 25 79 32 64 51 -20 24 -37 19 -68 -19 -15 -19 -32 -35
-36 -35 -5 0 -7 24 -5 53 3 49 2 52 -22 55 -25 3 -25 2 -22 -63z"/>
  <path d="M532 478 c6 -16 36 -34 44 -26 3 4 4 14 1 23 -7 17 -51 21 -45 3z"/>
</g>
<g id="part-4" class="char-part">
  <path d="M601 241 c-49 -9 -50 -27 -2 -23 21 2 42 -1 45 -7 10 -16 -15 -104
-36 -128 -16 -17 -25 -20 -44 -13 -29 11 -30 3 -5 -27 42 -50 86 -16 120 92
12 39 24 75 27 81 2 6 -7 16 -21 22 -28 13 -31 13 -84 3z"/>
</g>
</g>
</svg>