<?xml version="1.0" standalone="no"?>
<!DOCTYPE svg PUBLIC "-//W3C//DTD SVG 20010904//EN"
 "http://www.w3.org/TR/2001/REC-SVG-20010904/DTD/svg10.dtd">
<svg version="1.0" xmlns="http://www.w3.org/2000/svg"
 width="96.000000pt" height="68.000000pt" viewBox="0 0 96.000000 68.000000"
 preserveAspectRatio="xMidYMid meet">
<metadata>
Created by potrace 1.16, written by Peter Selinger 2001-2019
Combined from part_0.svg through part_5.svg with named groups
</metadata>
<g transform="translate(0.000000,68.000000) scale(0.100000,-0.100000)" fill="#000000" stroke="none">
<g id="part-0" class="char-part">
  <path d="M420 605 c-136 -14 -129 -13 -110 -25 8 -5 41 -10 73 -10 44 0 57 -3
57 -15 0 -19 12 -16 -103 -24 -56 -3 -98 -2 -100 3 -2 5 -16 -12 -31 -38 -17
-30 -24 -52 -19 -57 16 -16 39 0 53 35 12 33 14 33 88 40 132 11 124 15 120
-51 -2 -46 0 -58 12 -58 11 0 16 15 18 63 2 40 7 62 15 62 7 0 51 3 99 7 48 3
94 3 104 -1 15 -6 15 -9 -7 -33 -22 -23 -22 -25 -4 -20 11 3 41 9 68 13 26 3
47 9 46 13 0 9 -53 49 -69 52 -14 2 -62 -2 -192 -17 -43 -5 -48 -4 -48 14 0
16 9 20 62 26 68 7 80 12 58 26 -18 11 -37 11 -190 -5z"/>
  <path d="M570 493 c-20 -21 -21 -25 -7 -20 11 4 30 10 43 13 20 5 22 9 13 20
-16 19 -20 18 -49 -13z"/>
  <path d="M320 470 c20 -13 50 -13 50 0 0 6 -15 10 -32 10 -25 0 -29 -3 -18
-10z"/>
  <path d="M328 427 c-47 -10 -58 -20 -38 -32 8 -5 100 32 100 41 0 5 1 5 -62
-9z"/>
  <path d="M535 431 c8 -13 75 -34 83 -26 11 11 -30 35 -61 35 -15 0 -26 -4 -22
-9z"/>
  <path d="M347 393 c-4 -3 -7 -14 -7 -24 0 -9 -19 -33 -42 -53 -52 -43 -32 -48
22 -6 31 24 47 30 87 30 88 0 233 13 233 20 0 14 -27 18 -66 10 -22 -4 -72
-10 -112 -13 -65 -5 -73 -4 -68 10 9 23 -29 44 -47 26z"/>
  <path d="M475 298 c-38 -4 -89 -6 -113 -3 -39 4 -42 3 -32 -14 15 -30 12 -78
-6 -85 -9 -3 -51 -6 -95 -6 -51 0 -79 -4 -79 -11 0 -7 28 -10 85 -8 94 4 105
-5 65 -51 -26 -29 -27 -55 -2 -44 19 10 228 15 249 7 27 -10 -26 -36 -60 -29
l-31 6 29 -30 c16 -16 34 -30 39 -30 13 1 60 41 72 62 8 13 16 14 57 3 26 -7
50 -9 52 -5 6 10 -33 35 -67 44 -29 7 -33 20 -22 64 6 21 11 22 102 22 77 0
93 3 84 12 -8 8 -47 14 -92 17 -84 3 -92 9 -70 51 8 15 6 21 -9 30 -22 11 -56
11 -156 -2z m115 -50 l0 -43 -111 -3 -112 -4 6 24 c4 12 7 31 7 40 0 17 24 21
158 26 l52 2 0 -42z m0 -75 c0 -10 -3 -28 -6 -40 -6 -22 -10 -23 -130 -23 -68
0 -124 2 -124 5 0 4 7 19 15 35 16 32 31 35 173 38 63 2 72 0 72 -15z"/>
  <path d="M468 240 c25 -23 42 -26 42 -6 0 7 -10 16 -22 20 -38 10 -43 7 -20
-14z"/>
  <path d="M440 164 c0 -10 33 -33 48 -34 21 0 13 16 -13 28 -30 14 -35 15 -35
6z"/>
</g>
<g id="part-1" class="char-part">
  <path d="M520 609 c-25 -4 -68 -8 -96 -8 -28 -1 -67 -4 -85 -8 -29 -7 -22 -9
41 -13 82 -5 230 9 230 22 0 4 -4 8 -9 8 -5 0 -15 2 -23 4 -7 2 -33 0 -58 -5z"/>
</g>
<g id="part-2" class="char-part">
  <path d="M699 566 c-9 -9 -374 -38 -425 -34 -51 4 -51 4 -73 -36 -26 -51 -27
-66 -1 -66 13 0 26 13 39 38 l20 39 216 18 c118 10 218 15 222 11 3 -3 -4 -18
-18 -32 l-24 -27 25 6 c14 3 46 9 73 12 26 4 47 11 47 16 0 23 -86 70 -101 55z"/>
</g>
<g id="part-3" class="char-part">
  <path d="M345 381 c-3 -10 -24 -37 -47 -60 -50 -49 -31 -56 30 -11 35 25 51
30 99 30 91 0 223 12 223 20 0 19 -32 18 -223 -4 -31 -3 -36 -2 -27 9 9 10 7
16 -9 24 -28 16 -39 14 -46 -8z"/>
</g>
<g id="part-4" class="char-part">
  <path d="M480 298 c-36 -5 -86 -6 -112 -3 l-48 6 12 -26 c15 -32 -4 -123 -32
-153 -11 -12 -20 -30 -20 -42 0 -20 1 -20 30 -5 30 16 156 19 215 6 l30 -7
-23 -13 c-14 -7 -35 -10 -54 -6 l-31 7 37 -32 c32 -29 40 -31 61 -22 13 6 32
23 41 38 15 23 22 25 55 20 20 -3 44 -9 53 -12 10 -4 16 -1 16 9 0 14 -25 27
-77 42 -13 3 -23 9 -23 13 0 19 28 151 34 160 4 6 -2 16 -13 21 -23 13 -59 12
-151 -1z m110 -72 c0 -36 -4 -76 -10 -90 -9 -26 -10 -26 -129 -26 l-120 0 19
43 c10 23 21 61 25 84 l7 42 51 4 c29 2 76 4 105 5 l52 2 0 -64z"/>
</g>
<g id="part-5" class="char-part">
  <path d="M490 240 c0 -5 5 -10 11 -10 5 0 7 5 4 10 -3 6 -8 10 -11 10 -2 0 -4
-4 -4 -10z"/>
  <path d="M677 213 c-15 -2 -25 -9 -22 -14 7 -11 58 -12 106 -2 28 5 30 7 14
14 -11 4 -27 8 -35 8 -13 1 -13 0 0 -9 9 -6 10 -10 3 -10 -6 0 -15 5 -18 10
-3 6 -9 9 -13 9 -4 -1 -19 -4 -35 -6z"/>
  <path d="M520 200 l-35 -7 38 -2 c20 0 37 4 37 9 0 6 -1 9 -2 9 -2 -1 -19 -5
-38 -9z"/>
  <path d="M345 189 c-13 -6 0 -7 40 -3 33 4 62 8 64 10 9 8 -85 2 -104 -7z"/>
  <path d="M195 180 l-30 -8 33 -1 c17 0 32 4 32 9 0 6 -1 9 -2 9 -2 -1 -16 -5
-33 -9z"/>
  <path d="M258 183 c7 -3 16 -2 19 1 4 3 -2 6 -13 5 -11 0 -14 -3 -6 -6z"/>
</g>
</g>
</svg>