<?xml version="1.0" standalone="no"?>
<!DOCTYPE svg PUBLIC "-//W3C//DTD SVG 20010904//EN"
 "http://www.w3.org/TR/2001/REC-SVG-20010904/DTD/svg10.dtd">
<svg version="1.0" xmlns="http://www.w3.org/2000/svg"
 width="96.000000pt" height="68.000000pt" viewBox="0 0 96.000000 68.000000"
 preserveAspectRatio="xMidYMid meet">
<metadata>
Created by potrace 1.16, written by Peter Selinger 2001-2019
Combined from part_0.svg through part_5.svg with named groups
</metadata>
<g transform="translate(0.000000,68.000000) scale(0.100000,-0.100000)" fill="#000000" stroke="none">
<g id="part-0" class="char-part">
  <path d="M264 533 c-11 -61 -74 -162 -153 -245 -19 -21 -32 -38 -29 -38 21 0
62 24 97 55 46 42 74 43 79 4 3 -24 -1 -27 -42 -33 -61 -10 -58 -26 4 -26 l50
0 0 -60 0 -59 -34 -6 c-18 -4 -52 -7 -76 -8 -50 -2 -61 -19 -27 -41 22 -15 31
-14 138 20 148 46 164 53 153 64 -6 6 -30 4 -63 -5 -47 -12 -52 -12 -47 2 3 8
6 34 6 59 0 44 0 44 42 50 26 5 55 19 78 40 l37 34 23 -25 c26 -28 40 -32 40
-11 0 8 -12 23 -27 34 -24 18 -26 23 -16 45 10 21 9 28 -3 38 -19 15 -27 6
-42 -48 -19 -65 -39 -82 -87 -75 -33 6 -40 11 -41 30 0 18 5 22 27 22 27 0 47
15 36 27 -9 8 -48 8 -95 -1 l-44 -8 18 33 c9 19 25 46 36 62 l20 28 35 -31
c37 -33 56 -35 62 -5 4 21 -34 54 -62 55 -10 0 -21 8 -24 18 -8 20 -33 41 -50
42 -7 0 -15 -17 -19 -37z"/>
  <path d="M563 522 c3 -17 9 -89 13 -161 l7 -130 -27 -11 c-15 -5 -38 -10 -52
-10 -13 0 -24 -4 -24 -10 0 -5 23 -10 51 -10 l51 0 -4 -32 c-3 -43 -11 -47
-83 -49 -33 0 -71 -4 -85 -9 -55 -16 13 -23 124 -11 62 6 158 11 214 11 97 0
128 10 80 26 -25 8 -62 8 -150 -2 l-58 -6 0 41 0 40 55 3 c72 4 71 22 -1 26
l-57 3 5 132 c3 73 9 139 12 149 6 12 1 18 -16 23 -65 19 -61 20 -55 -13z"/>
  <path d="M710 420 c0 -22 -22 -61 -54 -97 -28 -33 -15 -37 24 -8 33 24 34 25
54 6 21 -19 59 -41 71 -41 4 0 5 10 3 22 -2 13 -18 29 -41 41 l-38 20 22 23
c26 28 19 54 -16 54 -18 0 -25 -5 -25 -20z"/>
  <path d="M357 211 c-14 -21 -23 -41 -20 -44 5 -5 69 26 86 43 8 7 -18 40 -32
40 -5 0 -20 -18 -34 -39z"/>
  <path d="M160 215 c0 -18 44 -65 61 -65 40 0 12 54 -33 66 -16 3 -28 3 -28 -1z"/>
</g>
<g id="part-1" class="char-part">
  <path d="M265 520 c-8 -47 -85 -168 -142 -224 -63 -61 4 -36 77 30 32 28 70
18 70 -20 0 -27 -16 -36 -66 -36 -19 0 -34 -5 -34 -11 0 -7 18 -10 50 -7 l50
3 0 -61 c0 -71 -1 -72 -97 -81 -67 -6 -78 -16 -38 -35 21 -10 45 -5 148 27
153 48 187 73 53 39 -24 -6 -26 -4 -26 29 0 19 3 49 6 66 5 25 11 31 33 31 14
0 33 5 41 10 13 8 12 10 -5 11 -11 1 -30 1 -42 0 -19 -1 -23 3 -23 28 0 25 5
30 30 36 17 4 30 11 30 17 0 10 -18 9 -115 -8 -39 -7 -39 -6 -24 12 9 10 29
40 44 67 15 26 31 47 35 47 5 0 21 -11 36 -25 32 -30 54 -32 54 -6 0 22 -16
37 -50 46 -14 3 -30 16 -35 28 -6 12 -20 23 -32 25 -18 3 -22 -3 -28 -38z"/>
  <path d="M374 228 c-4 -7 -14 -24 -23 -37 l-15 -23 43 21 c41 22 50 43 19 49
-9 2 -20 -3 -24 -10z"/>
  <path d="M170 203 c1 -13 38 -53 49 -53 20 0 23 22 5 41 -17 18 -54 27 -54 12z"/>
</g>
<g id="part-2" class="char-part">
  <path d="M456 392 c-3 -22 -17 -55 -31 -75 -30 -45 -19 -48 20 -7 l29 30 23
-25 c29 -30 43 -32 43 -5 0 11 -4 20 -8 20 -5 0 -16 6 -26 13 -15 11 -16 16
-5 41 11 23 10 29 -2 37 -26 16 -36 9 -43 -29z"/>
</g>
<g id="part-3" class="char-part">
  <path d="M707 411 c-3 -15 -22 -49 -41 -74 -36 -47 -26 -53 23 -15 23 17 24
17 53 -7 16 -14 38 -25 49 -25 33 0 21 29 -22 51 l-41 21 26 27 c20 21 23 30
14 39 -23 23 -55 14 -61 -17z"/>
</g>
<g id="part-4" class="char-part">
  <path d="M564 523 c3 -16 8 -90 12 -165 l7 -137 -51 -7 c-62 -8 -59 -24 4 -24
44 0 44 0 44 -35 0 -40 -1 -40 -124 -51 -62 -5 -76 -8 -61 -16 12 -7 53 -7
130 1 61 6 159 11 218 11 59 0 107 4 107 9 0 20 -57 28 -139 19 -93 -10 -100
-7 -93 42 4 29 6 30 58 30 53 0 78 12 48 24 -9 3 -36 6 -61 6 l-45 0 4 133 c3
72 8 139 12 148 5 13 0 19 -25 28 -46 16 -52 14 -45 -16z"/>
</g>
</g>
</svg>