<?xml version="1.0" standalone="no"?>
<!DOCTYPE svg PUBLIC "-//W3C//DTD SVG 20010904//EN"
 "http://www.w3.org/TR/2001/REC-SVG-20010904/DTD/svg10.dtd">
<svg version="1.0" xmlns="http://www.w3.org/2000/svg"
 width="96.000000pt" height="68.000000pt" viewBox="0 0 96.000000 68.000000"
 preserveAspectRatio="xMidYMid meet">
<metadata>
Created by potrace 1.16, written by Peter Selinger 2001-2019
Combined from part_0.svg through part_5.svg with named groups
</metadata>
<g transform="translate(0.000000,68.000000) scale(0.100000,-0.100000)" fill="#000000" stroke="none">
<g id="part-0" class="char-part">
  <path d="M541 573 c7 -10 21 -28 32 -39 l18 -22 -70 -7 c-39 -4 -71 -12 -71
-17 0 -13 158 -3 238 14 58 13 72 30 22 30 -3 0 -26 -3 -52 -6 -46 -7 -48 -6
-48 17 0 24 -33 47 -67 47 -13 0 -13 -3 -2 -17z"/>
  <path d="M265 543 c-44 -8 -95 -17 -113 -19 -43 -7 -36 -28 10 -32 31 -3 36
-7 40 -33 6 -42 -15 -62 -59 -54 -30 5 -46 -6 -25 -19 13 -8 14 -118 2 -185
-8 -46 -8 -65 2 -80 10 -17 15 -18 28 -7 8 8 51 16 98 19 74 5 83 3 93 -14 12
-24 34 -25 45 -2 5 10 9 81 9 158 0 157 -5 169 -62 159 -31 -6 -33 -4 -33 22
0 42 10 50 63 58 26 4 47 12 47 17 0 9 -44 30 -58 28 -4 -1 -43 -8 -87 -16z
m1 -59 c-3 -9 -6 -27 -6 -40 0 -15 -6 -24 -15 -24 -9 0 -15 9 -15 24 0 35 10
56 27 56 10 0 13 -6 9 -16z m78 -80 c11 -4 16 -19 16 -50 0 -42 -1 -44 -29
-44 -33 0 -39 13 -33 68 4 32 15 38 46 26z m-74 -54 l0 -50 45 -12 45 -12 0
-52 c0 -29 -3 -55 -7 -57 -5 -3 -51 -6 -103 -8 l-95 -4 3 49 c3 34 13 61 33
89 16 22 29 44 29 48 0 22 21 59 35 59 11 0 15 -12 15 -50z m-70 20 c0 -11 -8
-37 -17 -58 l-17 -37 -4 44 c-2 24 -1 50 2 57 8 22 36 17 36 -6z"/>
  <path d="M218 223 c-16 -2 -28 -9 -28 -15 0 -7 16 -9 46 -4 26 3 55 6 65 6 11
0 19 5 19 10 0 10 -48 11 -102 3z"/>
  <path d="M670 467 c0 -7 -15 -36 -34 -65 -37 -55 -35 -65 7 -32 32 26 39 25
67 -5 28 -30 50 -32 50 -4 0 13 -11 25 -35 35 -38 16 -43 25 -20 44 12 10 13
16 4 26 -14 18 -39 18 -39 1z"/>
  <path d="M494 443 c-10 -31 -36 -77 -57 -100 -29 -33 -11 -28 30 7 40 35 44
36 68 10 22 -24 35 -26 35 -5 0 9 -11 21 -25 27 -28 13 -30 19 -13 36 8 8 8
15 -2 27 -16 20 -29 19 -36 -2z"/>
  <path d="M575 301 l6 -28 -80 -7 c-47 -4 -81 -12 -81 -18 0 -7 25 -9 80 -4
l80 6 0 -109 c0 -171 33 -158 42 17 3 51 8 95 11 99 4 3 49 8 102 11 52 2 95
8 95 13 0 15 -65 21 -132 12 -53 -8 -65 -7 -61 4 3 7 -6 17 -22 23 -41 16 -47
13 -40 -19z"/>
</g>
<g id="part-1" class="char-part">
  <path d="M260 535 c-36 -8 -82 -14 -103 -15 -26 0 -36 -4 -31 -11 5 -8 37 -10
108 -6 108 7 154 16 158 32 4 15 -59 15 -132 0z"/>
</g>
<g id="part-2" class="char-part">
  <path d="M280 424 c-36 -7 -89 -13 -119 -14 -47 0 -52 -2 -46 -17 15 -38 17
-95 6 -172 -9 -60 -9 -86 -1 -102 10 -18 13 -19 28 -6 11 9 47 16 99 19 79 4
84 4 99 -20 15 -23 17 -23 32 -8 24 24 25 304 2 323 -18 14 -16 14 -100 -3z
m69 -32 c10 -19 14 -172 5 -208 -5 -19 -14 -22 -97 -27 -51 -3 -95 -2 -98 1
-3 4 -3 57 0 117 l6 110 70 11 c99 16 103 16 114 -4z"/>
</g>
<g id="part-3" class="char-part">
  <path d="M539 572 c5 -10 17 -24 25 -32 27 -22 18 -28 -49 -35 -81 -9 -85 -25
-6 -25 56 0 230 26 240 35 17 18 -41 24 -102 11 -21 -5 -37 -5 -36 0 4 26 -4
42 -26 52 -40 18 -58 16 -46 -6z"/>
</g>
<g id="part-4" class="char-part">
  <path d="M497 453 c-4 -3 -7 -14 -7 -23 0 -10 -16 -38 -35 -64 -40 -52 -34
-62 10 -16 34 35 46 37 70 10 22 -24 35 -26 35 -5 0 9 -11 21 -25 27 -28 13
-30 19 -13 36 8 8 8 15 -2 27 -14 16 -23 19 -33 8z"/>
</g>
<g id="part-5" class="char-part">
  <path d="M576 315 c4 -10 14 -14 28 -10 18 5 17 4 -4 -9 -14 -9 -20 -16 -15
-17 13 -2 -59 -18 -109 -24 -22 -3 -42 -8 -45 -11 -3 -4 17 -3 44 0 99 15 110
13 108 -12 -3 -20 -1 -21 18 -10 14 9 18 20 15 38 -3 14 -3 20 0 14 3 -6 17
-9 32 -6 l27 6 -25 6 c-14 3 -25 12 -25 19 0 8 -9 17 -20 22 -30 12 -35 10
-29 -6z"/>
  <path d="M748 295 c-3 -3 -16 -8 -28 -10 -43 -8 -32 -13 22 -10 67 3 66 3 48
15 -17 11 -34 13 -42 5z"/>
  <path d="M595 199 c-7 -31 -9 -62 -7 -123 2 -55 16 -53 26 4 4 26 4 30 -3 15
-9 -19 -10 -19 -10 3 -1 12 2 22 7 22 8 0 8 88 -1 97 -3 3 -9 -5 -12 -18z"/>
</g>
</g>
</svg>