<?xml version="1.0" standalone="no"?>
<!DOCTYPE svg PUBLIC "-//W3C//DTD SVG 20010904//EN"
 "http://www.w3.org/TR/2001/REC-SVG-20010904/DTD/svg10.dtd">
<svg version="1.0" xmlns="http://www.w3.org/2000/svg"
 width="96.000000pt" height="68.000000pt" viewBox="0 0 96.000000 68.000000"
 preserveAspectRatio="xMidYMid meet">
<metadata>
Created by potrace 1.16, written by Peter Selinger 2001-2019
Combined from part_0.svg through part_5.svg with named groups
</metadata>
<g transform="translate(0.000000,68.000000) scale(0.100000,-0.100000)" fill="#000000" stroke="none">
<g id="part-0" class="char-part">
  <path d="M637 556 l5 -44 -57 -7 c-60 -8 -75 -1 -75 38 0 11 -8 17 -21 17 -19
0 -20 -4 -15 -35 7 -35 7 -35 -29 -35 -47 0 -45 -18 3 -22 l37 -3 3 -71 3 -71
87 3 87 2 7 39 c4 21 7 57 7 80 l1 41 50 7 c58 8 57 25 -1 25 -38 0 -39 1 -39
34 0 22 -6 36 -16 40 -36 14 -42 7 -37 -38z m3 -96 c0 -26 -3 -30 -29 -30 -16
0 -43 -3 -60 -6 -29 -6 -31 -5 -31 24 0 29 3 31 43 35 23 2 50 4 60 5 13 2 17
-5 17 -28z m0 -75 c0 -19 -6 -25 -32 -30 -77 -13 -83 -12 -86 17 -3 29 8 34
81 37 33 1 37 -2 37 -24z"/>
  <path d="M220 557 c0 -7 12 -29 26 -50 31 -46 58 -46 62 -1 3 26 -2 32 -33 47
-43 20 -55 21 -55 4z"/>
  <path d="M240 454 c-168 -27 -157 -24 -135 -40 22 -16 74 -18 125 -5 19 5 68
15 109 21 67 11 73 14 56 26 -22 16 -42 16 -155 -2z"/>
  <path d="M258 366 c-31 -6 -60 -15 -65 -20 -11 -11 110 -1 132 11 29 16 -4 20
-67 9z"/>
  <path d="M556 312 c-3 -2 -2 -17 1 -33 5 -29 5 -29 -43 -30 -27 0 -67 -4 -89
-8 -58 -12 -19 -25 51 -18 36 4 54 2 54 -5 0 -14 -59 -68 -118 -110 -24 -16
-41 -32 -39 -35 8 -8 69 27 130 74 l57 44 0 -79 c0 -59 4 -83 15 -92 9 -7 18
-11 20 -8 3 2 5 46 6 96 1 51 5 92 8 92 4 0 26 -25 50 -56 24 -30 54 -59 67
-64 26 -10 116 -2 109 10 -2 3 -28 15 -57 25 -54 18 -158 89 -166 113 -3 9 22
12 103 12 98 0 106 1 94 16 -11 14 -27 15 -106 10 l-93 -7 0 24 c0 18 -6 26
-25 29 -13 3 -27 3 -29 0z"/>
  <path d="M305 304 c-5 -1 -31 -5 -57 -9 -27 -3 -48 -11 -48 -17 0 -12 91 -5
131 10 21 8 21 9 3 14 -10 2 -23 4 -29 2z"/>
  <path d="M270 224 c-25 -7 -61 -14 -80 -14 -19 0 -30 -4 -24 -8 6 -4 14 -20
18 -37 13 -57 28 -86 40 -76 6 5 37 12 68 16 38 5 55 11 52 19 -3 7 2 29 11
50 12 29 13 41 4 52 -14 17 -31 17 -89 -2z m40 -53 c0 -41 -11 -51 -55 -51
-15 0 -25 7 -29 23 -11 43 -7 56 22 60 62 9 62 9 62 -32z"/>
</g>
<g id="part-1" class="char-part">
  <path d="M220 564 c0 -3 10 -23 23 -44 15 -28 29 -40 45 -40 25 0 30 26 10 52
-13 15 -78 42 -78 32z"/>
  <path d="M186 441 c-80 -13 -87 -16 -70 -28 10 -8 30 -12 44 -10 189 31 240
42 240 49 0 12 -105 7 -214 -11z"/>
</g>
<g id="part-2" class="char-part">
  <path d="M275 225 c-22 -8 -57 -14 -78 -14 -37 -1 -38 -1 -23 -23 9 -12 16
-30 16 -40 0 -9 5 -29 10 -43 8 -20 14 -24 23 -17 6 6 38 13 69 17 32 4 55 11
52 16 -3 5 2 30 12 55 15 39 15 47 3 55 -18 11 -35 10 -84 -6z m35 -50 c0 -24
-6 -37 -19 -45 -31 -16 -61 -12 -61 8 0 9 -3 27 -6 39 -5 19 -1 22 28 26 18 2
39 5 46 5 7 1 12 -11 12 -33z"/>
</g>
<g id="part-3" class="char-part">
  <path d="M637 557 l5 -44 -47 -6 c-70 -10 -72 -10 -78 23 -5 22 -12 30 -27 30
-18 0 -21 -5 -18 -32 3 -31 1 -33 -29 -36 -44 -4 -42 -22 1 -22 40 0 46 -11
46 -89 l0 -58 87 3 c48 1 89 6 90 11 2 4 6 39 10 78 l8 70 50 11 c44 9 48 12
30 21 -11 6 -33 9 -49 6 -27 -6 -28 -5 -21 25 5 25 2 33 -14 41 -39 22 -49 14
-44 -32z m1 -128 c-1 -67 -7 -73 -79 -81 l-34 -3 -3 67 -3 67 43 4 c24 2 51 4
60 5 14 2 17 -7 16 -59z"/>
</g>
<g id="part-4" class="char-part">
  <path d="M543 423 c-40 -8 -26 -26 15 -19 20 3 45 6 55 6 9 0 17 5 17 10 0 10
-44 11 -87 3z"/>
</g>
<g id="part-5" class="char-part">
  <path d="M563 278 c4 -31 2 -34 -17 -31 -11 2 -32 -1 -46 -6 -24 -11 -23 -11
6 -6 22 4 35 1 45 -11 8 -10 9 -15 2 -11 -7 5 -22 -7 -39 -28 -32 -43 -26 -58
7 -18 25 29 41 35 56 19 4 -5 3 -7 -3 -3 -7 4 -11 -5 -11 -23 0 -16 4 -27 9
-24 4 3 7 -16 7 -43 l-2 -48 -7 40 -7 40 -1 -40 c-2 -46 10 -71 28 -60 8 5 11
33 8 96 -4 78 -3 87 11 79 26 -15 45 -34 57 -55 14 -25 31 -30 31 -9 0 9 -16
27 -36 40 -65 43 -77 54 -64 62 18 11 1 66 -21 70 -15 3 -17 -2 -13 -30z"/>
  <path d="M685 261 c-58 -6 -59 -6 -20 -12 47 -7 113 -5 122 5 3 3 1 6 -5 6 -5
0 -16 1 -24 3 -7 2 -40 1 -73 -2z"/>
  <path d="M410 230 c36 -12 62 -12 55 0 -3 6 -23 10 -43 9 -33 -1 -34 -2 -12
-9z"/>
  <path d="M454 128 l-19 -23 23 19 c21 18 27 26 19 26 -2 0 -12 -10 -23 -22z"/>
  <path d="M703 123 c0 -31 16 -41 67 -41 28 0 50 2 50 5 0 8 -84 42 -92 37 -4
-3 -8 0 -8 5 0 6 -4 11 -8 11 -5 0 -9 -8 -9 -17z"/>
</g>
</g>
</svg>