<?xml version="1.0" standalone="no"?>
<!DOCTYPE svg PUBLIC "-//W3C//DTD SVG 20010904//EN"
 "http://www.w3.org/TR/2001/REC-SVG-20010904/DTD/svg10.dtd">
<svg version="1.0" xmlns="http://www.w3.org/2000/svg"
 width="96.000000pt" height="68.000000pt" viewBox="0 0 96.000000 68.000000"
 preserveAspectRatio="xMidYMid meet">
<metadata>
Created by potrace 1.16, written by Peter Selinger 2001-2019
Combined from part_0.svg through part_5.svg with named groups
</metadata>
<g transform="translate(0.000000,68.000000) scale(0.100000,-0.100000)" fill="#000000" stroke="none">
<g id="part-0" class="char-part">
  <path d="M550 570 c0 -71 -14 -87 -84 -95 -33 -4 -69 -9 -80 -11 -62 -11 6
-29 79 -20 l54 6 -32 -52 c-36 -58 -64 -89 -122 -136 -22 -17 -34 -32 -27 -32
16 0 113 61 131 83 7 9 17 15 21 12 11 -7 3 -93 -15 -166 -15 -59 -11 -99 10
-99 12 0 35 63 35 98 0 27 2 28 88 36 l72 7 0 -52 0 -52 -40 6 c-47 6 -51 -1
-12 -25 15 -10 37 -25 49 -33 20 -16 22 -15 39 10 14 22 17 47 15 145 -1 65 3
129 8 143 8 20 6 29 -10 43 -17 16 -26 16 -105 4 -47 -7 -88 -10 -91 -7 -3 3
4 21 16 40 20 33 24 34 98 41 191 17 215 24 156 47 -20 7 -51 6 -113 -5 -47
-8 -89 -11 -93 -6 -5 4 -2 24 7 44 13 32 13 37 0 51 -9 8 -24 15 -35 15 -16 0
-19 -7 -19 -40z m128 -237 c3 -29 0 -33 -20 -33 -13 0 -47 -3 -75 -6 -51 -7
-53 -6 -53 17 0 37 12 47 55 52 80 8 90 5 93 -30z m2 -82 c0 -22 -5 -29 -17
-29 -10 1 -44 -2 -75 -6 l-58 -7 0 30 0 30 68 4 c37 2 70 4 75 5 4 1 7 -11 7
-27z"/>
  <path d="M300 548 c-15 -55 -62 -127 -137 -205 -70 -74 -54 -83 30 -16 l59 46
-5 -109 c-3 -60 -9 -123 -12 -139 -5 -23 -1 -37 13 -55 32 -39 42 -16 47 106
3 60 7 128 10 150 4 31 2 46 -11 59 -16 15 -13 21 36 92 l53 76 -22 19 c-35
28 -49 22 -61 -24z"/>
</g>
<g id="part-1" class="char-part">
  <path d="M301 538 c-18 -59 -55 -113 -129 -190 -36 -38 -60 -68 -54 -68 12 0
105 69 110 82 2 4 11 8 19 8 14 0 15 -14 10 -102 -3 -57 -10 -115 -16 -131
-12 -31 3 -77 25 -77 18 0 22 23 29 181 4 114 3 138 -10 149 -13 10 -8 22 38
87 50 72 51 75 33 89 -31 22 -42 17 -55 -28z"/>
</g>
<g id="part-2" class="char-part">
  <path d="M548 555 c-3 -31 -9 -60 -14 -65 -5 -5 -46 -12 -92 -16 -45 -4 -82
-11 -82 -15 0 -14 49 -22 101 -16 27 3 49 3 49 -2 0 -21 -64 -103 -125 -158
-37 -35 -65 -63 -61 -63 4 0 25 9 47 21 59 30 124 93 165 160 19 33 41 59 47
59 50 0 244 23 250 30 5 4 -7 13 -25 19 -26 9 -56 8 -126 -2 -51 -8 -92 -11
-92 -7 0 4 7 25 16 46 15 35 15 39 -2 51 -37 27 -51 17 -56 -42z"/>
</g>
<g id="part-3" class="char-part">
  <path d="M590 386 c-36 -6 -70 -14 -76 -18 -6 -4 -14 -43 -18 -86 -3 -44 -13
-102 -22 -131 -16 -55 -12 -91 11 -91 13 0 25 31 40 103 4 22 11 27 34 27 15
0 49 3 75 6 l46 7 0 -53 0 -53 -42 6 -43 5 44 -39 c24 -21 47 -39 52 -39 5 0
16 12 26 27 15 22 17 46 15 144 -1 64 2 128 7 142 8 20 6 28 -8 41 -20 18 -47
18 -141 2z m88 -52 l3 -31 -71 -7 c-40 -4 -74 -5 -77 -2 -3 2 -2 18 2 35 6 27
11 30 48 34 82 8 92 5 95 -29z m2 -83 c0 -26 -3 -29 -34 -29 -19 0 -53 -3 -76
-7 -41 -7 -41 -7 -38 21 3 28 6 29 68 35 36 3 68 6 73 7 4 1 7 -11 7 -27z"/>
</g>
</g>
</svg>