<?xml version="1.0" standalone="no"?>
<!DOCTYPE svg PUBLIC "-//W3C//DTD SVG 20010904//EN"
 "http://www.w3.org/TR/2001/REC-SVG-20010904/DTD/svg10.dtd">
<svg version="1.0" xmlns="http://www.w3.org/2000/svg"
 width="96.000000pt" height="68.000000pt" viewBox="0 0 96.000000 68.000000"
 preserveAspectRatio="xMidYMid meet">
<metadata>
Created by potrace 1.16, written by Peter Selinger 2001-2019
Combined from part_0.svg through part_5.svg with named groups
</metadata>
<g transform="translate(0.000000,68.000000) scale(0.100000,-0.100000)" fill="#000000" stroke="none">
<g id="part-0" class="char-part">
  <path d="M557 574 c-9 -9 24 -64 44 -75 25 -13 44 13 29 40 -16 31 -58 50 -73
35z"/>
  <path d="M244 527 c-10 -49 -39 -98 -78 -136 -38 -37 -43 -50 -25 -68 7 -7 23
-7 55 3 24 7 44 10 44 6 0 -4 -21 -27 -45 -51 -71 -71 -55 -85 56 -47 46 15
78 21 83 15 16 -15 36 -10 36 10 0 19 -55 50 -67 37 -3 -3 -1 -6 5 -6 26 0 10
-18 -27 -28 -78 -24 -77 -14 8 67 75 72 82 81 71 101 -15 28 -31 21 -54 -22
-15 -29 -26 -37 -59 -42 -22 -4 -42 -5 -44 -2 -2 2 21 33 51 69 57 67 66 87
44 104 -33 25 -47 22 -54 -10z"/>
  <path d="M650 484 c-107 -16 -187 -17 -196 -3 -7 12 -54 -72 -54 -97 0 -29 36
-14 48 20 12 34 12 34 117 50 102 16 165 20 165 12 0 -3 -5 -17 -10 -31 -10
-27 -10 -27 26 -20 20 3 48 11 63 16 l26 10 -33 30 c-36 32 -32 32 -152 13z"/>
  <path d="M595 379 c-27 -5 -65 -11 -82 -14 -45 -8 -42 -25 5 -24 61 2 167 23
167 34 0 14 -30 15 -90 4z"/>
  <path d="M640 295 c-52 -8 -123 -17 -157 -21 -88 -10 -82 -28 6 -21 l70 6 6
-55 c4 -29 4 -70 0 -90 -6 -34 -8 -36 -36 -30 -35 7 -37 -3 -5 -33 30 -29 71
-23 79 11 3 13 7 64 8 114 l3 92 100 7 c90 6 98 8 81 21 -22 16 -29 16 -155
-1z"/>
  <path d="M312 184 c15 -15 31 -25 35 -20 12 12 -12 41 -38 44 l-24 4 27 -28z"/>
  <path d="M702 174 c96 -106 102 -109 113 -74 9 30 -15 61 -67 88 -70 34 -86
29 -46 -14z"/>
  <path d="M443 192 c-6 -4 -13 -16 -17 -28 -3 -11 -15 -30 -26 -42 -11 -11 -16
-24 -10 -27 11 -7 90 62 90 80 0 16 -23 26 -37 17z"/>
  <path d="M210 175 c0 -15 34 -55 46 -55 21 0 17 38 -5 50 -21 11 -41 13 -41 5z"/>
  <path d="M116 152 c-8 -13 35 -93 48 -89 16 5 20 46 5 63 -18 21 -47 36 -53
26z"/>
</g>
<g id="part-1" class="char-part">
  <path d="M253 533 c-20 -60 -45 -105 -77 -140 -55 -61 -46 -82 26 -62 59 17
69 29 25 29 l-37 0 60 76 c33 41 60 77 60 79 0 8 -32 35 -41 35 -5 0 -12 -8
-16 -17z"/>
</g>
<g id="part-2" class="char-part">
  <path d="M306 185 c19 -30 44 -33 44 -6 0 19 -18 31 -46 31 -12 0 -12 -4 2
-25z"/>
  <path d="M210 175 c0 -15 34 -55 46 -55 21 0 17 38 -5 50 -21 11 -41 13 -41 5z"/>
  <path d="M110 150 c0 -23 41 -90 55 -90 24 0 18 53 -8 78 -25 23 -47 29 -47
12z"/>
</g>
<g id="part-3" class="char-part">
  <path d="M550 572 c0 -16 51 -82 64 -82 35 0 25 59 -14 80 -22 12 -50 13 -50
2z"/>
  <path d="M650 484 c-91 -15 -190 -18 -190 -4 0 25 -21 6 -40 -36 -25 -58 -25
-74 -1 -74 13 0 24 11 32 33 12 34 13 34 114 50 132 22 169 22 161 2 -3 -8 -9
-22 -13 -31 -5 -14 -2 -16 18 -11 13 3 41 9 62 12 20 4 37 11 37 16 0 14 -66
59 -86 58 -10 -1 -53 -7 -94 -15z"/>
</g>
<g id="part-4" class="char-part">
  <path d="M600 380 c-19 -4 -57 -11 -85 -15 -43 -6 -47 -9 -27 -16 21 -8 154 4
192 17 13 4 13 6 0 14 -17 11 -31 11 -80 0z"/>
</g>
<g id="part-5" class="char-part">
  <path d="M575 251 c-3 -6 0 -11 7 -11 10 0 10 -2 -1 -9 -10 -6 -12 -29 -10
-89 2 -44 2 -77 -1 -72 -3 4 -20 9 -37 12 -32 4 -33 4 -15 -16 9 -12 22 -24
27 -28 15 -11 27 -10 20 2 -3 5 0 7 8 4 15 -5 31 22 21 37 -3 5 -1 9 4 9 15 0
10 162 -5 167 -6 2 -14 -1 -18 -6z"/>
  <path d="M715 171 c21 -22 44 -50 52 -61 17 -24 39 -26 47 -4 5 13 3 14 -7 6
-9 -8 -17 -8 -27 0 -13 8 -12 9 2 5 9 -3 19 1 22 8 6 16 -60 66 -103 80 -21 6
-19 2 14 -34z m30 -10 c-6 -5 -25 10 -25 20 0 5 6 4 14 -3 8 -7 12 -15 11 -17z"/>
  <path d="M450 182 c0 -5 -9 -18 -20 -30 -12 -12 -18 -22 -14 -22 3 0 0 -7 -7
-17 -13 -15 -12 -15 9 -2 12 8 25 22 28 32 3 9 9 15 14 12 4 -3 6 4 3 15 -5
20 -13 27 -13 12z"/>
</g>
</g>
</svg>