<?xml version="1.0" standalone="no"?>
<!DOCTYPE svg PUBLIC "-//W3C//DTD SVG 20010904//EN"
 "http://www.w3.org/TR/2001/REC-SVG-20010904/DTD/svg10.dtd">
<svg version="1.0" xmlns="http://www.w3.org/2000/svg"
 width="96.000000pt" height="68.000000pt" viewBox="0 0 96.000000 68.000000"
 preserveAspectRatio="xMidYMid meet">
<metadata>
Created by potrace 1.16, written by Peter Selinger 2001-2019
Combined from part_0.svg through part_5.svg with named groups
</metadata>
<g transform="translate(0.000000,68.000000) scale(0.100000,-0.100000)" fill="#000000" stroke="none">
<g id="part-0" class="char-part">
  <path d="M668 605 c-10 -11 -413 -36 -462 -29 l-49 6 9 -28 c10 -31 12 -247 4
-381 -4 -70 -2 -85 13 -100 12 -13 20 -15 25 -6 5 7 84 15 232 22 l225 10 20
-24 c22 -26 41 -31 65 -15 13 8 15 46 15 242 0 128 4 240 8 249 6 13 -1 21
-36 38 -44 22 -60 25 -69 16z m11 -54 c21 -13 37 -243 25 -342 l-9 -74 -234
-8 c-128 -5 -235 -6 -238 -3 -3 3 -2 97 2 209 l7 204 147 10 c202 13 283 14
300 4z"/>
  <path d="M410 512 c0 -27 -52 -92 -104 -131 -25 -19 -44 -36 -42 -38 9 -10 87
40 139 87 l57 52 27 -20 c45 -32 133 -82 144 -82 6 0 9 10 7 22 -2 18 -20 29
-80 53 -44 17 -85 40 -94 53 -18 27 -54 30 -54 4z"/>
  <path d="M430 387 c-51 -11 -53 -12 -20 -15 47 -5 122 7 115 19 -7 11 -22 10
-95 -4z"/>
  <path d="M569 346 c-10 -10 -241 -36 -265 -30 -24 6 -26 5 -19 -12 5 -10 11
-46 14 -78 7 -68 25 -84 35 -31 6 30 11 35 35 35 22 0 27 -4 27 -21 -1 -33 22
-35 26 -2 2 22 9 29 31 31 25 3 27 1 27 -33 0 -42 15 -39 23 3 6 29 27 42 70
42 13 0 18 -6 15 -22 -2 -18 -9 -23 -30 -23 -33 1 -34 -2 -8 -33 40 -48 73
-12 85 94 6 58 6 61 -20 72 -27 13 -39 15 -46 8z m19 -53 c3 -21 -1 -23 -37
-23 -41 0 -46 5 -35 35 10 26 68 16 72 -12z m-108 -8 c0 -21 -5 -25 -28 -25
-24 0 -28 4 -26 23 1 12 3 23 3 25 1 1 12 2 26 2 20 0 25 -5 25 -25z m-90 -10
c0 -21 -5 -25 -30 -25 -23 0 -30 5 -30 19 0 20 12 29 43 30 12 1 17 -7 17 -24z"/>
</g>
<g id="part-1" class="char-part">
  <path d="M585 590 c-33 -4 -139 -11 -235 -15 l-175 -8 1 -236 c1 -130 2 -242
3 -248 1 -15 28 -18 33 -4 2 4 107 11 233 15 l231 7 14 -25 c15 -30 32 -33 54
-10 18 18 18 16 18 298 0 209 -1 210 -24 222 -25 14 -60 15 -153 4z m108 -39
c12 -12 22 -391 10 -408 -9 -12 -474 -36 -483 -25 -7 9 3 409 11 416 8 8 366
35 413 31 21 -2 43 -8 49 -14z"/>
</g>
<g id="part-2" class="char-part">
  <path d="M410 511 c0 -25 -49 -85 -106 -129 -25 -20 -41 -38 -36 -40 16 -5 92
45 142 94 l46 44 79 -50 c89 -55 108 -61 103 -28 -2 17 -20 29 -81 53 -42 17
-84 41 -93 53 -19 27 -54 29 -54 3z"/>
</g>
<g id="part-3" class="char-part">
  <path d="M425 385 l-50 -13 55 -1 c61 -1 100 7 100 20 0 12 -45 10 -105 -6z"/>
</g>
<g id="part-4" class="char-part">
  <path d="M465 328 c-66 -10 -135 -16 -153 -14 -29 4 -33 3 -26 -12 4 -9 10
-44 13 -76 6 -59 24 -84 34 -47 2 11 2 40 0 64 -5 38 -2 46 13 50 39 12 214
29 229 23 12 -4 15 -18 13 -58 -3 -50 -5 -53 -29 -53 -25 1 -25 0 -10 -27 20
-35 51 -34 67 2 7 14 15 52 18 86 6 58 6 61 -19 72 -14 7 -27 11 -28 11 -1 -1
-56 -10 -122 -21z"/>
</g>
</g>
</svg>